600 0 8 0           
96 GICL ACIS Healer - Source: /gicl/data5/repository/Drexel/SM99-DATA/part119.smdg.deltas.sat - 6 0 18 ACIS 6.0.3 Solaris 24 Sat Apr 13 20:44:50 2002 
1 9.999999999999999547e-07 1.000000000000000036e-10 
body $-1 $8 $-1 $-1 #
body $-1 $9 $-1 $-1 #
body $-1 $10 $-1 $-1 #
body $-1 $11 $-1 $-1 #
body $-1 $12 $-1 $-1 #
body $-1 $13 $-1 $-1 #
body $-1 $14 $-1 $-1 #
body $-1 $15 $-1 $-1 #
lump $-1 $-1 $16 $0 #
lump $-1 $-1 $17 $1 #
lump $-1 $-1 $18 $2 #
lump $-1 $-1 $19 $3 #
lump $-1 $-1 $20 $4 #
lump $-1 $-1 $21 $5 #
lump $-1 $-1 $22 $6 #
lump $-1 $-1 $23 $7 #
shell $-1 $-1 $-1 $24 $-1 $8 #
shell $-1 $-1 $-1 $25 $-1 $9 #
shell $-1 $-1 $-1 $26 $-1 $10 #
shell $-1 $-1 $-1 $27 $-1 $11 #
shell $-1 $-1 $-1 $28 $-1 $12 #
shell $-1 $-1 $-1 $29 $-1 $13 #
shell $-1 $-1 $-1 $30 $-1 $14 #
shell $-1 $-1 $-1 $31 $-1 $15 #
face $-1 $32 $33 $16 $-1 $34 forward single #
face $-1 $35 $36 $17 $-1 $37 reversed single #
face $-1 $38 $39 $18 $-1 $40 reversed single #
face $-1 $41 $42 $19 $-1 $43 forward single #
face $-1 $44 $45 $20 $-1 $46 forward single #
face $-1 $47 $48 $21 $-1 $49 reversed single #
face $-1 $50 $51 $22 $-1 $52 forward single #
face $-1 $53 $54 $23 $-1 $55 forward single #
face $-1 $56 $57 $16 $-1 $58 reversed single #
loop $-1 $-1 $59 $24 #
plane-surface $-1 72.6279488509781288 49.22639786450569943 46.60966335111124437 0 0 1 1 0 0 forward_v I I I I #
face $-1 $60 $61 $17 $-1 $62 reversed single #
loop $-1 $-1 $63 $25 #
plane-surface $-1 37.69867863896071469 9.210547139392183169 23.30483167555562218 1 0 0 0 0 -1 forward_v I I I I #
face $-1 $64 $65 $18 $-1 $66 reversed single #
loop $-1 $-1 $67 $26 #
plane-surface $-1 -95.29644436036994648 78.08302165983363352 149.2530402803407981 0 1 0 -0.6560590369687036016 0 0.754709573287431712 forward_v I I I I #
face $-1 $68 $69 $19 $-1 $70 forward single #
loop $-1 $71 $72 $27 #
cone-surface $-1 4.943294913181773609 83.90295710817012775 42.05196241890385522 0.6560590369687036016 0 -0.754709573287431712 1.886773933218579336 0 1.640147592421759004 1 I I 0 1 2.5 forward I I I I #
face $-1 $73 $74 $20 $-1 $75 forward single #
loop $-1 $76 $77 $28 #
cone-surface $-1 4.943294913181773609 92.63286028067489042 42.05196241890385522 0.6560590369687036016 0 -0.754709573287431712 1.886773933218579336 0 1.640147592421759004 1 I I 0 1 2.5 forward I I I I #
face $-1 $78 $79 $21 $-1 $80 reversed single #
loop $-1 $-1 $81 $29 #
plane-surface $-1 138.0867455338669743 81.46239304343706067 242.5197945951336749 0 1 0 0.6819983681709311796 0 0.7313536940579346002 forward_v I I I I #
face $-1 $82 $83 $22 $-1 $84 forward single #
loop $-1 $85 $86 $30 #
cone-surface $-1 139.3473531372360696 86.31679381074401647 40.97747530169897345 -0.6819983681709311796 0 -0.7313536940579346002 1.4627073881158692 0 -1.363996736341862359 1 I I 0 1 2 forward I I I I #
face $-1 $87 $88 $23 $-1 $89 forward single #
loop $-1 $90 $91 $31 #
cone-surface $-1 139.3473531372360696 93.59839496170444306 40.97747530169897345 -0.6819983681709311796 0 -0.7313536940579346002 1.4627073881158692 0 -1.363996736341862359 1 I I 0 1 2 forward I I I I #
face $-1 $92 $93 $16 $-1 $94 reversed single #
loop $-1 $-1 $95 $32 #
plane-surface $-1 72.6279488509781288 49.22639786450569943 0 0 0 1 1 0 0 forward_v I I I I #
coedge $-1 $96 $97 $98 $99 forward $33 $-1 #
face $-1 $100 $101 $17 $-1 $102 reversed single #
loop $-1 $-1 $103 $35 #
plane-surface $-1 42.15417099503598308 18.42109427878436634 23.30483167555562218 0 -1 0 0 0 -1 forward_v I I I I #
coedge $-1 $104 $105 $106 $107 forward $36 $-1 #
face $-1 $108 $109 $18 $-1 $110 forward single #
loop $-1 $-1 $111 $38 #
plane-surface $-1 0 88.26790869442251619 39.62702370821455133 -0.6560590369687036016 0 0.754709573287431712 0.754709573287431712 0 0.6560590369687036016 forward_v I I I I #
coedge $-1 $112 $113 $114 $115 reversed $39 $-1 #
face $-1 $-1 $116 $19 $-1 $117 forward single #
loop $-1 $118 $119 $41 #
cone-surface $-1 6.690359686224667257 83.90295710817012775 40.04219434153552726 0.6560590369687036016 0 -0.754709573287431712 0.9433869666092896678 0 0.8200737962108795021 1 I I -0.7071067811865474617 0.7071067811865474617 1.25 forward I I I I #
loop $-1 $-1 $120 $27 #
coedge $-1 $72 $72 $121 $122 reversed $42 $-1 #
face $-1 $-1 $123 $20 $-1 $124 forward single #
loop $-1 $125 $126 $44 #
cone-surface $-1 6.690359686224667257 92.63286028067489042 40.04219434153552726 0.6560590369687036016 0 -0.754709573287431712 0.9433869666092896678 0 0.8200737962108795021 1 I I -0.7071067811865474617 0.7071067811865474617 1.25 forward I I I I #
loop $-1 $-1 $127 $28 #
coedge $-1 $77 $77 $128 $129 reversed $45 $-1 #
face $-1 $130 $131 $21 $-1 $132 reversed single #
loop $-1 $-1 $133 $47 #
plane-surface $-1 39.02246033392908942 89.95759438622422977 136.2863572271065209 0.6819983681709311796 0 0.7313536940579346002 0.7313536940579346002 0 -0.6819983681709311796 forward_v I I I I #
coedge $-1 $134 $135 $136 $137 reversed $48 $-1 #
face $-1 $-1 $138 $22 $-1 $139 forward single #
loop $-1 $140 $141 $50 #
cone-surface $-1 137.790289691608848 86.31679381074401647 39.30772922020008764 -0.6819983681709311796 0 -0.7313536940579346002 0.7313536940579346002 0 -0.6819983681709311796 1 I I -0.7071067811865474617 0.7071067811865474617 1 forward I I I I #
loop $-1 $-1 $142 $30 #
coedge $-1 $86 $86 $143 $144 reversed $51 $-1 #
face $-1 $-1 $145 $23 $-1 $146 forward single #
loop $-1 $147 $148 $53 #
cone-surface $-1 137.790289691608848 93.59839496170444306 39.30772922020008764 -0.6819983681709311796 0 -0.7313536940579346002 0.7313536940579346002 0 -0.6819983681709311796 1 I I -0.7071067811865474617 0.7071067811865474617 1 forward I I I I #
loop $-1 $-1 $149 $31 #
coedge $-1 $91 $91 $150 $151 reversed $54 $-1 #
face $-1 $152 $153 $16 $-1 $154 reversed single #
loop $-1 $-1 $155 $56 #
plane-surface $-1 72.6279488509781288 0 23.30483167555562218 0 1 0 0 0 1 forward_v I I I I #
coedge $-1 $156 $157 $158 $159 forward $57 $-1 #
coedge $-1 $160 $59 $161 $162 forward $33 $-1 #
coedge $-1 $59 $160 $163 $164 forward $33 $-1 #
coedge $-1 $165 $166 $59 $99 reversed $167 $-1 #
edge $-1 $168 -49.22639786450569943 $169 49.22639786450569943 $98 $170 forward 7 unknown #
face $-1 $171 $172 $17 $-1 $173 forward single #
loop $-1 $-1 $174 $60 #
plane-surface $-1 46.60966335111125147 9.210547139392183169 23.30483167555562218 -1 0 0 0 0 1 forward_v I I I I #
coedge $-1 $175 $176 $177 $178 forward $61 $-1 #
coedge $-1 $179 $63 $180 $181 reversed $36 $-1 #
coedge $-1 $63 $179 $182 $183 reversed $36 $-1 #
coedge $-1 $176 $175 $63 $107 reversed $61 $-1 #
edge $-1 $184 -23.30483167555562218 $185 23.30483167555562218 $106 $186 forward 7 unknown #
face $-1 $187 $188 $18 $-1 $189 reversed single #
loop $-1 $-1 $114 $64 #
plane-surface $-1 72.6279488509781288 49.22639786450569943 46.60966335111124437 0 0 1 1 0 0 forward_v I I I I #
coedge $-1 $190 $191 $192 $193 reversed $65 $-1 #
coedge $-1 $113 $67 $194 $195 reversed $39 $-1 #
coedge $-1 $67 $112 $190 $196 reversed $39 $-1 #
coedge $-1 $192 $197 $67 $115 forward $109 $-1 #
edge $-1 $198 11.33424775469590884 $199 19.36685562739540956 $114 $200 forward 7 unknown #
loop $-1 $-1 $121 $68 #
plane-surface $-1 0 88.26790869442251619 39.62702370821455133 -0.6560590369687036016 0 0.754709573287431712 0.754709573287431712 0 0.6560590369687036016 forward_v I I I I #
loop $-1 $-1 $201 $41 #
coedge $-1 $119 $119 $120 $202 reversed $69 $-1 #
coedge $-1 $120 $120 $119 $202 forward $71 $-1 #
coedge $-1 $121 $121 $72 $122 forward $116 $-1 #
edge $-1 $203 0 $203 6.283185307179586232 $121 $204 forward 7 unknown #
loop $-1 $-1 $128 $73 #
plane-surface $-1 0 88.26790869442251619 39.62702370821455133 -0.6560590369687036016 0 0.754709573287431712 0.754709573287431712 0 0.6560590369687036016 forward_v I I I I #
loop $-1 $-1 $205 $44 #
coedge $-1 $126 $126 $127 $206 reversed $74 $-1 #
coedge $-1 $127 $127 $126 $206 forward $76 $-1 #
coedge $-1 $128 $128 $77 $129 forward $123 $-1 #
edge $-1 $207 0 $207 6.283185307179586232 $128 $208 forward 7 unknown #
face $-1 $209 $210 $21 $-1 $211 forward single #
loop $-1 $-1 $136 $78 #
plane-surface $-1 145.2558977019562576 49.22639786450569943 23.30483167555562218 -1 0 0 0 0 1 forward_v I I I I #
coedge $-1 $212 $213 $214 $215 reversed $79 $-1 #
coedge $-1 $135 $81 $216 $217 reversed $48 $-1 #
coedge $-1 $81 $134 $212 $218 reversed $48 $-1 #
coedge $-1 $214 $219 $81 $137 forward $131 $-1 #
edge $-1 $220 86.30264978423340949 $221 95.69024110817602491 $136 $222 forward 7 unknown #
loop $-1 $-1 $143 $82 #
plane-surface $-1 39.02246033392908942 89.95759438622422977 136.2863572271065209 0.6819983681709311796 0 0.7313536940579346002 0.7313536940579346002 0 -0.6819983681709311796 forward_v I I I I #
loop $-1 $-1 $223 $50 #
coedge $-1 $141 $141 $142 $224 reversed $83 $-1 #
coedge $-1 $142 $142 $141 $224 forward $85 $-1 #
coedge $-1 $143 $143 $86 $144 forward $138 $-1 #
edge $-1 $225 0 $225 6.283185307179586232 $143 $226 forward 7 unknown #
loop $-1 $-1 $150 $87 #
plane-surface $-1 39.02246033392908942 89.95759438622422977 136.2863572271065209 0.6819983681709311796 0 0.7313536940579346002 0.7313536940579346002 0 -0.6819983681709311796 forward_v I I I I #
loop $-1 $-1 $227 $53 #
coedge $-1 $148 $148 $149 $228 reversed $88 $-1 #
coedge $-1 $149 $149 $148 $228 forward $90 $-1 #
coedge $-1 $150 $150 $91 $151 forward $145 $-1 #
edge $-1 $229 0 $229 6.283185307179586232 $150 $230 forward 7 unknown #
face $-1 $231 $232 $16 $-1 $233 reversed single #
loop $-1 $-1 $234 $92 #
plane-surface $-1 0 49.22639786450569943 23.30483167555562218 1 0 0 0 0 -1 forward_v I I I I #
coedge $-1 $235 $163 $236 $237 forward $93 $-1 #
coedge $-1 $238 $95 $235 $239 forward $57 $-1 #
coedge $-1 $95 $238 $240 $241 forward $57 $-1 #
coedge $-1 $166 $165 $95 $159 reversed $167 $-1 #
edge $-1 $242 -49.22639786450569943 $243 49.22639786450569943 $158 $244 forward 7 unknown #
coedge $-1 $97 $96 $245 $246 forward $33 $-1 #
coedge $-1 $247 $248 $96 $162 reversed $232 $-1 #
edge $-1 $169 -72.6279488509781288 $249 72.6279488509781288 $161 $250 forward 7 unknown #
coedge $-1 $155 $251 $97 $164 reversed $93 $-1 #
edge $-1 $252 -72.6279488509781288 $168 72.6279488509781288 $163 $253 forward 7 unknown #
coedge $-1 $158 $98 $251 $254 forward $167 $-1 #
coedge $-1 $98 $158 $247 $255 reversed $167 $-1 #
loop $-1 $-1 $165 $231 #
vertex $-1 $99 $256 #
vertex $-1 $99 $257 #
straight-curve $-1 145.2558977019562576 49.22639786450569943 46.60966335111124437 0 1 0 I I #
face $-1 $258 $259 $17 $-1 $260 reversed single #
loop $-1 $-1 $261 $100 #
plane-surface $-1 72.6279488509781288 49.22639786450569943 46.60966335111124437 0 0 1 1 0 0 forward_v I I I I #
coedge $-1 $262 $263 $264 $265 reversed $101 $-1 #
coedge $-1 $106 $103 $266 $267 reversed $61 $-1 #
coedge $-1 $103 $106 $268 $269 reversed $61 $-1 #
coedge $-1 $263 $262 $103 $178 reversed $101 $-1 #
edge $-1 $270 -23.30483167555562218 $271 23.30483167555562218 $177 $272 forward 7 unknown #
coedge $-1 $105 $104 $273 $274 reversed $36 $-1 #
coedge $-1 $266 $275 $104 $181 forward $259 $-1 #
edge $-1 $276 -29.2184725019489413 $185 -10.79737822316457496 $180 $277 forward 7 unknown #
coedge $-1 $278 $268 $105 $183 forward $172 $-1 #
edge $-1 $184 10.79737822316457496 $279 29.2184725019489413 $182 $280 forward 7 unknown #
vertex $-1 $183 $281 #
vertex $-1 $181 $282 #
straight-curve $-1 37.69867863896071469 18.42109427878436634 23.30483167555562218 0 0 -1 I I #
face $-1 $-1 $283 $18 $-1 $284 reversed single #
loop $-1 $-1 $285 $108 #
plane-surface $-1 72.6279488509781288 98.45279572901139886 23.30483167555562218 0 -1 0 0 0 -1 forward_v I I I I #
coedge $-1 $286 $111 $113 $196 forward $65 $-1 #
coedge $-1 $111 $286 $285 $287 reversed $65 $-1 #
coedge $-1 $288 $114 $111 $193 forward $109 $-1 #
edge $-1 $199 9.335868380369532815 $289 29.70564244954729816 $192 $290 forward 7 unknown #
coedge $-1 $291 $292 $112 $195 forward $283 $-1 #
edge $-1 $293 -46.65191226973365701 $198 -39.66927262683696398 $194 $294 forward 7 unknown #
edge $-1 $199 -10.6433098996086013 $293 0 $113 $295 forward 7 unknown #
coedge $-1 $114 $288 $291 $296 forward $109 $-1 #
vertex $-1 $195 $297 #
vertex $-1 $115 $298 #
straight-curve $-1 -11.33424775469590884 78.08302165983363352 46.60966335111123726 1 0 0 I I #
coedge $-1 $201 $201 $-1 $299 reversed $118 $-1 #
edge $-1 $300 0 $300 6.283185307179586232 $119 $301 forward 7 unknown #
vertex $-1 $122 $302 #
ellipse-curve $-1 4.016303936349757464 83.90295710817012775 43.1183435296629014 -0.6560590369687036016 0 0.754709573287431712 1.886773933218579336 0 1.640147592421759004 1 I I #
coedge $-1 $205 $205 $-1 $303 reversed $125 $-1 #
edge $-1 $304 0 $304 6.283185307179586232 $126 $305 forward 7 unknown #
vertex $-1 $129 $306 #
ellipse-curve $-1 4.016303936349757464 92.63286028067489042 43.1183435296629014 -0.6560590369687036016 0 0.754709573287431712 1.886773933218579336 0 1.640147592421759004 1 I I #
face $-1 $-1 $307 $21 $-1 $308 reversed single #
loop $-1 $-1 $216 $130 #
plane-surface $-1 72.6279488509781288 49.22639786450569943 46.60966335111124437 0 0 1 1 0 0 forward_v I I I I #
coedge $-1 $309 $133 $135 $218 forward $79 $-1 #
coedge $-1 $133 $309 $310 $311 reversed $79 $-1 #
coedge $-1 $312 $136 $133 $215 forward $131 $-1 #
edge $-1 $221 11.87039691807208897 $313 28.86079960364642716 $214 $314 forward 7 unknown #
coedge $-1 $315 $316 $134 $217 forward $210 $-1 #
edge $-1 $317 29.83159153500592708 $220 39.89855050953370608 $216 $318 forward 7 unknown #
edge $-1 $221 -145.2558977019562576 $317 -131.4910681040212523 $135 $319 forward 7 unknown #
coedge $-1 $136 $312 $315 $320 reversed $131 $-1 #
vertex $-1 $320 $321 #
vertex $-1 $137 $322 #
straight-curve $-1 145.2558977019562576 81.46239304343706067 132.9123131353446468 0 0 -1 I I #
coedge $-1 $223 $223 $-1 $323 reversed $140 $-1 #
edge $-1 $324 0 $324 6.283185307179586232 $141 $325 forward 7 unknown #
vertex $-1 $144 $326 #
ellipse-curve $-1 140.2224182146923681 86.31679381074401647 41.91586768913993666 0.6819983681709311796 0 0.7313536940579346002 1.4627073881158692 0 -1.363996736341862359 1 I I #
coedge $-1 $227 $227 $-1 $327 reversed $147 $-1 #
edge $-1 $328 0 $328 6.283185307179586232 $148 $329 forward 7 unknown #
vertex $-1 $151 $330 #
ellipse-curve $-1 140.2224182146923681 93.59839496170444306 41.91586768913993666 0.6819983681709311796 0 0.7313536940579346002 1.4627073881158692 0 -1.363996736341862359 1 I I #
face $-1 $-1 $167 $16 $-1 $331 reversed single #
loop $-1 $-1 $247 $152 #
plane-surface $-1 72.6279488509781288 98.45279572901139886 23.30483167555562218 0 -1 0 0 0 -1 forward_v I I I I #
coedge $-1 $332 $245 $248 $333 forward $153 $-1 #
coedge $-1 $251 $155 $156 $239 reversed $93 $-1 #
coedge $-1 $245 $332 $155 $237 reversed $153 $-1 #
edge $-1 $252 -23.30483167555562218 $334 23.30483167555562218 $236 $335 forward 7 unknown #
coedge $-1 $157 $156 $332 $336 forward $57 $-1 #
edge $-1 $243 -72.6279488509781288 $334 72.6279488509781288 $235 $337 forward 7 unknown #
coedge $-1 $248 $247 $157 $241 reversed $232 $-1 #
edge $-1 $338 -72.6279488509781288 $242 72.6279488509781288 $240 $339 forward 7 unknown #
vertex $-1 $159 $340 #
vertex $-1 $254 $341 #
straight-curve $-1 145.2558977019562576 49.22639786450569943 0 0 -1 0 I I #
coedge $-1 $234 $236 $160 $246 reversed $153 $-1 #
edge $-1 $249 -49.22639786450569943 $252 49.22639786450569943 $245 $342 forward 7 unknown #
coedge $-1 $240 $161 $166 $255 forward $232 $-1 #
coedge $-1 $161 $240 $234 $333 reversed $232 $-1 #
vertex $-1 $162 $343 #
straight-curve $-1 72.6279488509781288 98.45279572901139886 46.60966335111124437 -1 0 0 I I #
coedge $-1 $163 $235 $165 $254 reversed $93 $-1 #
vertex $-1 $246 $344 #
straight-curve $-1 72.6279488509781288 0 46.60966335111124437 1 0 0 I I #
edge $-1 $168 -23.30483167555562218 $243 23.30483167555562218 $165 $345 forward 7 unknown #
edge $-1 $169 -23.30483167555562218 $242 23.30483167555562218 $166 $346 forward 7 unknown #
point $-1 145.2558977019562576 0 46.60966335111124437 #
point $-1 145.2558977019562576 98.45279572901139886 46.60966335111124437 #
face $-1 $-1 $347 $17 $-1 $348 reversed single #
loop $-1 $-1 $349 $171 #
plane-surface $-1 72.6279488509781288 49.22639786450569943 0 0 0 1 1 0 0 forward_v I I I I #
coedge $-1 $268 $278 $263 $350 forward $172 $-1 #
coedge $-1 $177 $174 $349 $351 reversed $101 $-1 #
coedge $-1 $174 $177 $261 $350 reversed $101 $-1 #
coedge $-1 $352 $353 $174 $265 forward $347 $-1 #
edge $-1 $354 -23.30483167555562218 $355 23.30483167555562218 $264 $356 forward 7 unknown #
coedge $-1 $349 $180 $175 $267 forward $259 $-1 #
edge $-1 $185 -19.69238128404634125 $271 -10.78139657189580447 $266 $357 forward 7 unknown #
coedge $-1 $182 $261 $176 $269 forward $172 $-1 #
edge $-1 $270 10.78139657189580447 $184 19.69238128404634125 $268 $358 forward 7 unknown #
vertex $-1 $269 $359 #
vertex $-1 $267 $360 #
straight-curve $-1 46.60966335111125147 18.42109427878436634 23.30483167555562218 0 0 -1 I I #
coedge $-1 $353 $352 $179 $274 forward $347 $-1 #
edge $-1 $279 -23.30483167555562218 $276 23.30483167555562218 $273 $361 forward 7 unknown #
coedge $-1 $180 $349 $353 $362 forward $259 $-1 #
vertex $-1 $181 $363 #
straight-curve $-1 37.69867863896071469 29.2184725019489413 0 0 1 0 I I #
coedge $-1 $261 $182 $352 $364 forward $172 $-1 #
vertex $-1 $364 $365 #
straight-curve $-1 37.69867863896071469 29.2184725019489413 46.60966335111124437 0 -1 0 I I #
point $-1 37.69867863896071469 18.42109427878436634 46.60966335111124437 #
point $-1 37.69867863896071469 18.42109427878436634 0 #
loop $-1 $-1 $194 $187 #
plane-surface $-1 0 49.22639786450569943 23.30483167555562218 1 0 0 0 0 -1 forward_v I I I I #
coedge $-1 $366 $367 $191 $287 forward $188 $-1 #
coedge $-1 $191 $190 $292 $368 reversed $65 $-1 #
edge $-1 $289 11.40903345034072913 $369 22.05234334994932865 $285 $370 forward 7 unknown #
coedge $-1 $197 $192 $367 $371 forward $109 $-1 #
vertex $-1 $371 $372 #
straight-curve $-1 8.032607872699514928 68.74715327946410071 46.60966335111125147 0 1 0 I I #
coedge $-1 $373 $194 $197 $296 reversed $283 $-1 #
coedge $-1 $194 $373 $286 $368 forward $283 $-1 #
vertex $-1 $195 $374 #
straight-curve $-1 0 78.08302165983363352 86.27893597794820835 0 0 1 I I #
straight-curve $-1 0 78.08302165983363352 39.62702370821455133 -0.754709573287431712 0 -0.6560590369687036016 I I #
edge $-1 $375 -49.22639786450569943 $198 -28.85662379532793409 $291 $376 forward 7 unknown #
point $-1 0 78.08302165983363352 46.60966335111124437 #
point $-1 8.032607872699500717 78.08302165983363352 46.60966335111124437 #
edge $-1 $377 1 $377 0 $201 $-1 forward 7 unknown #
vertex $-1 $202 $378 #
ellipse-curve $-1 5.870285890013789754 83.90295710817012775 40.98558130814481615 -0.6560590369687036016 0 0.754709573287431712 1.886773933218579336 0 1.640147592421759004 1 I I #
point $-1 5.903077869568335245 83.90295710817012775 44.75849112208466352 #
edge $-1 $379 1 $379 0 $205 $-1 forward 7 unknown #
vertex $-1 $206 $380 #
ellipse-curve $-1 5.870285890013789754 92.63286028067489042 40.98558130814481615 -0.6560590369687036016 0 0.754709573287431712 1.886773933218579336 0 1.640147592421759004 1 I I #
point $-1 5.903077869568335245 92.63286028067489042 44.75849112208466352 #
loop $-1 $-1 $310 $209 #
plane-surface $-1 72.6279488509781288 98.45279572901139886 23.30483167555562218 0 -1 0 0 0 -1 forward_v I I I I #
coedge $-1 $213 $212 $316 $381 reversed $79 $-1 #
coedge $-1 $382 $383 $213 $311 forward $307 $-1 #
edge $-1 $313 -94.44054058836357513 $384 -80.67571099042854144 $310 $385 forward 7 unknown #
coedge $-1 $219 $214 $383 $386 reversed $131 $-1 #
vertex $-1 $215 $387 #
straight-curve $-1 145.2558977019562576 69.5919961253649717 37.22207202716863605 0 1 0 I I #
coedge $-1 $388 $216 $219 $320 forward $210 $-1 #
coedge $-1 $216 $388 $309 $381 forward $210 $-1 #
vertex $-1 $217 $389 #
straight-curve $-1 105.3573471924225515 81.46239304343706067 46.60966335111123726 1 0 0 I I #
straight-curve $-1 39.02246033392908942 81.46239304343706067 136.2863572271065209 -0.7313536940579346002 0 0.6819983681709311796 I I #
edge $-1 $220 32.23599517893136124 $390 49.22639786450569943 $219 $391 forward 7 unknown #
point $-1 145.2558977019562576 81.46239304343706067 46.60966335111124437 #
point $-1 145.2558977019562576 81.46239304343706067 37.22207202716862184 #
edge $-1 $392 1 $392 0 $223 $-1 forward 7 unknown #
vertex $-1 $224 $393 #
ellipse-curve $-1 138.4722880597797712 86.31679381074401647 40.03908291425801735 0.6819983681709311796 0 0.7313536940579346002 1.4627073881158692 0 -1.363996736341862359 1 I I #
point $-1 141.6851256028082275 86.31679381074401647 40.55187095279806897 #
edge $-1 $394 1 $394 0 $227 $-1 forward 7 unknown #
vertex $-1 $228 $395 #
ellipse-curve $-1 138.4722880597797712 93.59839496170444306 40.03908291425801735 0.6819983681709311796 0 0.7313536940579346002 1.4627073881158692 0 -1.363996736341862359 1 I I #
point $-1 141.6851256028082275 93.59839496170444306 40.55187095279806897 #
plane-surface $-1 145.2558977019562576 49.22639786450569943 23.30483167555562218 -1 0 0 0 0 1 forward_v I I I I #
coedge $-1 $236 $234 $238 $336 reversed $153 $-1 #
edge $-1 $249 -23.30483167555562218 $338 23.30483167555562218 $248 $396 forward 7 unknown #
vertex $-1 $336 $397 #
straight-curve $-1 0 0 23.30483167555562218 0 0 -1 I I #
edge $-1 $334 -49.22639786450569943 $338 49.22639786450569943 $332 $398 forward 7 unknown #
straight-curve $-1 72.6279488509781288 0 0 -1 0 0 I I #
vertex $-1 $241 $399 #
straight-curve $-1 72.6279488509781288 98.45279572901139886 0 1 0 0 I I #
point $-1 145.2558977019562576 98.45279572901139886 0 #
point $-1 145.2558977019562576 0 0 #
straight-curve $-1 0 49.22639786450569943 46.60966335111124437 0 -1 0 I I #
point $-1 0 98.45279572901139886 46.60966335111124437 #
point $-1 0 0 46.60966335111124437 #
straight-curve $-1 145.2558977019562576 0 23.30483167555562218 0 0 -1 I I #
straight-curve $-1 145.2558977019562576 98.45279572901139886 23.30483167555562218 0 0 -1 I I #
loop $-1 $-1 $264 $258 #
plane-surface $-1 72.6279488509781288 0 23.30483167555562218 0 1 0 0 0 1 forward_v I I I I #
coedge $-1 $275 $266 $262 $351 forward $259 $-1 #
edge $-1 $355 -29.2184725019489413 $270 -10.79737822316457496 $261 $400 forward 7 unknown #
edge $-1 $271 10.79737822316457496 $354 29.2184725019489413 $349 $401 forward 7 unknown #
coedge $-1 $273 $264 $278 $364 reversed $347 $-1 #
coedge $-1 $264 $273 $275 $362 reversed $347 $-1 #
vertex $-1 $362 $402 #
vertex $-1 $265 $403 #
straight-curve $-1 46.60966335111125147 0 23.30483167555562218 0 0 1 I I #
straight-curve $-1 57.39105992300705594 18.42109427878436634 0 1 0 0 I I #
straight-curve $-1 57.39105992300705594 18.42109427878436634 46.60966335111124437 -1 0 0 I I #
point $-1 46.60966335111125147 18.42109427878436634 46.60966335111124437 #
point $-1 46.60966335111125147 18.42109427878436634 0 #
straight-curve $-1 37.69867863896071469 0 23.30483167555562218 0 0 -1 I I #
edge $-1 $354 26.01828549986687733 $276 34.92927021201741411 $353 $404 forward 7 unknown #
point $-1 37.69867863896071469 0 0 #
edge $-1 $279 -34.92927021201741411 $355 -26.01828549986687733 $352 $405 forward 7 unknown #
point $-1 37.69867863896071469 0 46.60966335111124437 #
coedge $-1 $367 $285 $373 $406 reversed $188 $-1 #
coedge $-1 $285 $366 $288 $371 reversed $188 $-1 #
edge $-1 $369 -29.70564244954729816 $293 -9.335868380369532815 $292 $407 forward 7 unknown #
vertex $-1 $287 $408 #
straight-curve $-1 16.64311463962818749 98.45279572901139886 54.0946628492855055 -0.754709573287431712 0 -0.6560590369687036016 I I #
edge $-1 $289 64.59534097827862809 $375 72.6279488509781288 $367 $409 forward 7 unknown #
point $-1 8.032607872699500717 98.45279572901139886 46.60966335111124437 #
coedge $-1 $292 $291 $366 $406 forward $283 $-1 #
point $-1 0 78.08302165983363352 39.62702370821455133 #
vertex $-1 $371 $410 #
straight-curve $-1 0 49.22639786450569943 46.60966335111124437 0 -1 0 I I #
vertex $-1 $299 $411 #
point $-1 7.757059823232367535 83.90295710817012775 42.62572890056657116 #
vertex $-1 $303 $412 #
point $-1 7.757059823232367535 92.63286028067489042 42.62572890056657116 #
edge $-1 $384 -28.86079960364642716 $317 -11.87039691807208897 $316 $413 forward 7 unknown #
coedge $-1 $383 $310 $388 $414 reversed $307 $-1 #
coedge $-1 $310 $382 $312 $386 forward $307 $-1 #
vertex $-1 $311 $415 #
straight-curve $-1 76.18645947382825057 98.45279572901139886 101.6303665976131754 -0.7313536940579346002 0 0.6819983681709311796 I I #
edge $-1 $390 -23.30483167555562218 $313 -13.91724035161300677 $312 $416 forward 7 unknown #
point $-1 145.2558977019562576 98.45279572901139886 37.22207202716862895 #
coedge $-1 $316 $315 $382 $414 forward $210 $-1 #
point $-1 135.1889387274284786 81.46239304343706067 46.60966335111123726 #
vertex $-1 $320 $417 #
straight-curve $-1 145.2558977019562576 49.22639786450569943 46.60966335111124437 0 1 0 I I #
vertex $-1 $323 $418 #
point $-1 139.9349954478956306 86.31679381074401647 38.67508617791615677 #
vertex $-1 $327 $419 #
point $-1 139.9349954478956306 93.59839496170444306 38.67508617791615677 #
straight-curve $-1 0 98.45279572901139886 23.30483167555562218 0 0 -1 I I #
point $-1 0 0 0 #
straight-curve $-1 0 49.22639786450569943 0 0 1 0 I I #
point $-1 0 98.45279572901139886 0 #
straight-curve $-1 46.60966335111125147 29.2184725019489413 46.60966335111124437 0 1 0 I I #
straight-curve $-1 46.60966335111125147 29.2184725019489413 0 0 -1 0 I I #
point $-1 46.60966335111125147 0 0 #
point $-1 46.60966335111125147 0 46.60966335111124437 #
straight-curve $-1 72.6279488509781288 0 0 -1 0 0 I I #
straight-curve $-1 72.6279488509781288 0 46.60966335111124437 1 0 0 I I #
edge $-1 $375 -23.30483167555562218 $369 -16.32219203265892915 $366 $420 forward 7 unknown #
straight-curve $-1 0 68.74715327946410071 39.62702370821456554 0 -1 0 I I #
point $-1 0 98.45279572901139886 39.62702370821455133 #
straight-curve $-1 72.6279488509781288 98.45279572901139886 46.60966335111124437 -1 0 0 I I #
point $-1 0 98.45279572901139886 46.60966335111124437 #
point $-1 7.510433482435544761 83.90295710817012775 39.09880737492623837 #
point $-1 7.510433482435544761 92.63286028067489042 39.09880737492623837 #
straight-curve $-1 135.188938727428507 69.5919961253649717 46.60966335111123726 0 -1 0 I I #
edge $-1 $390 -72.6279488509781288 $384 -62.56098987645034981 $382 $421 forward 7 unknown #
point $-1 135.1889387274284786 98.45279572901139886 46.60966335111123726 #
straight-curve $-1 145.2558977019562576 98.45279572901139886 23.30483167555562218 0 0 -1 I I #
point $-1 145.2558977019562576 98.45279572901139886 46.60966335111124437 #
point $-1 137.1082913234379248 86.31679381074401647 38.57637552614215082 #
point $-1 137.1082913234379248 93.59839496170444306 38.57637552614215082 #
straight-curve $-1 0 98.45279572901139886 23.30483167555562218 0 0 -1 I I #
straight-curve $-1 72.6279488509781288 98.45279572901139886 46.60966335111124437 -1 0 0 I I #
End-of-ACIS-data 