600 0 9 0           
95 GICL ACIS Healer - Source: /gicl/data5/repository/Drexel/SM99-DATA/part100.smdg.delta.sat - 6 0 18 ACIS 6.0.3 Solaris 24 Sat Apr 13 20:42:51 2002 
1 9.999999999999999547e-07 1.000000000000000036e-10 
body $-1 $9 $-1 $-1 #
body $-1 $10 $-1 $-1 #
body $-1 $11 $-1 $-1 #
body $-1 $12 $-1 $-1 #
body $-1 $13 $-1 $-1 #
body $-1 $14 $-1 $-1 #
body $-1 $15 $-1 $-1 #
body $-1 $16 $-1 $-1 #
body $-1 $17 $-1 $-1 #
lump $-1 $-1 $18 $0 #
lump $-1 $-1 $19 $1 #
lump $-1 $-1 $20 $2 #
lump $-1 $-1 $21 $3 #
lump $-1 $-1 $22 $4 #
lump $-1 $-1 $23 $5 #
lump $-1 $-1 $24 $6 #
lump $-1 $-1 $25 $7 #
lump $-1 $-1 $26 $8 #
shell $-1 $-1 $-1 $27 $-1 $9 #
shell $-1 $-1 $-1 $28 $-1 $10 #
shell $-1 $-1 $-1 $29 $-1 $11 #
shell $-1 $-1 $-1 $30 $-1 $12 #
shell $-1 $-1 $-1 $31 $-1 $13 #
shell $-1 $-1 $-1 $32 $-1 $14 #
shell $-1 $-1 $-1 $33 $-1 $15 #
shell $-1 $-1 $-1 $34 $-1 $16 #
shell $-1 $-1 $-1 $35 $-1 $17 #
face $-1 $36 $37 $18 $-1 $38 forward single #
face $-1 $39 $40 $19 $-1 $41 reversed single #
face $-1 $42 $43 $20 $-1 $44 forward single #
face $-1 $45 $46 $21 $-1 $47 reversed single #
face $-1 $48 $49 $22 $-1 $50 forward single #
face $-1 $51 $52 $23 $-1 $53 forward single #
face $-1 $54 $55 $24 $-1 $56 reversed single #
face $-1 $57 $58 $25 $-1 $59 forward single #
face $-1 $60 $61 $26 $-1 $62 forward single #
face $-1 $63 $64 $18 $-1 $65 reversed single #
loop $-1 $-1 $66 $27 #
plane-surface $-1 50.32868434705648752 29.85546030252326588 17.8835728822841773 0 0 1 1 0 0 forward_v I I I I #
face $-1 $67 $68 $19 $-1 $69 reversed single #
loop $-1 $-1 $70 $28 #
plane-surface $-1 3.100008503325263121 13.72412901213506586 8.941786441142088648 0 1 0 0 0 1 forward_v I I I I #
face $-1 $71 $72 $20 $-1 $73 reversed single #
loop $-1 $-1 $74 $29 #
plane-surface $-1 100.657368694112975 29.85546030252326588 8.941786441142088648 -1 0 0 0 0 1 forward_v I I I I #
face $-1 $75 $76 $21 $-1 $77 reversed single #
loop $-1 $-1 $78 $30 #
plane-surface $-1 69.58997919296288615 58.32843172998723702 126.2109852989456016 1 0 0 0 -0.5000000066987363434 -0.8660253999169214012 forward_v I I I I #
face $-1 $79 $80 $22 $-1 $81 forward single #
loop $-1 $82 $83 $31 #
cone-surface $-1 76.20191163054740002 50.65452569281789863 10.89732283862980644 0 -0.5000000066987363434 -0.8660253999169214012 2.5 0 0 1 I I 0 1 2.5 forward I I I I #
face $-1 $84 $85 $23 $-1 $86 forward single #
loop $-1 $87 $88 $32 #
cone-surface $-1 86.11981028692419216 50.65452569281789863 10.89732283862980644 0 -0.5000000066987363434 -0.8660253999169214012 2.5 0 0 1 I I 0 1 2.5 forward I I I I #
face $-1 $89 $90 $24 $-1 $91 reversed single #
loop $-1 $-1 $92 $33 #
plane-surface $-1 92.73174272450873445 -56.28688698732921125 97.71595714151506229 -1 0 0 0 -0.5591929107383988296 0.8290375676529484483 forward_v I I I I #
face $-1 $93 $94 $25 $-1 $95 forward single #
loop $-1 $96 $97 $34 #
cone-surface $-1 76.50221050995750716 3.359361415661879846 15.06928840542562043 0 0.5591929107383988296 -0.8290375676529484483 1 0 0 1 I I 0 1 1 forward I I I I #
face $-1 $98 $99 $26 $-1 $100 forward single #
loop $-1 $101 $102 $35 #
cone-surface $-1 86.23992983868824069 3.359361415661879846 15.06928840542562043 0 0.5591929107383988296 -0.8290375676529484483 1 0 0 1 I I 0 1 1 forward I I I I #
face $-1 $103 $104 $18 $-1 $105 reversed single #
loop $-1 $-1 $106 $36 #
plane-surface $-1 50.32868434705648752 29.85546030252326588 0 0 0 1 1 0 0 forward_v I I I I #
coedge $-1 $107 $108 $109 $110 forward $37 $-1 #
face $-1 $111 $112 $19 $-1 $113 reversed single #
loop $-1 $-1 $114 $39 #
plane-surface $-1 3.100008503325263121 17.8835728822841773 8.941786441142088648 0 -1 0 0 0 -1 forward_v I I I I #
coedge $-1 $115 $116 $117 $118 reversed $40 $-1 #
face $-1 $119 $120 $20 $-1 $121 forward single #
loop $-1 $-1 $122 $42 #
plane-surface $-1 50.32868434705648752 0 8.941786441142088648 0 1 0 0 0 1 forward_v I I I I #
coedge $-1 $123 $124 $125 $126 forward $43 $-1 #
face $-1 $127 $128 $21 $-1 $129 reversed single #
loop $-1 $-1 $130 $45 #
plane-surface $-1 81.1608609587358103 7.999746708653574956 39.03914732104141194 0 0.5000000066987363434 0.8660253999169214012 1 0 0 forward_v I I I I #
coedge $-1 $131 $132 $133 $134 reversed $46 $-1 #
face $-1 $-1 $135 $22 $-1 $136 forward single #
loop $-1 $137 $138 $48 #
cone-surface $-1 76.20191163054740002 48.50745315207404218 7.178484176956160923 0 -0.5000000066987363434 -0.8660253999169214012 1.25 0 0 1 I I -0.7071067811865474617 0.7071067811865476838 1.25 forward I I I I #
loop $-1 $-1 $139 $31 #
coedge $-1 $83 $83 $140 $141 reversed $49 $-1 #
face $-1 $-1 $142 $23 $-1 $143 forward single #
loop $-1 $144 $145 $51 #
cone-surface $-1 86.11981028692419216 48.50745315207404218 7.178484176956160923 0 -0.5000000066987363434 -0.8660253999169214012 1.25 0 0 1 I I -0.7071067811865474617 0.7071067811865476838 1.25 forward I I I I #
loop $-1 $-1 $146 $32 #
coedge $-1 $88 $88 $147 $148 reversed $52 $-1 #
face $-1 $149 $150 $24 $-1 $151 reversed single #
loop $-1 $-1 $152 $54 #
plane-surface $-1 81.37107017432288103 3.552713678800500929e-15 14.26721703300160371 0 -0.5591929107383988296 0.8290375676529484483 1 0 0 forward_v I I I I #
coedge $-1 $153 $154 $155 $156 reversed $55 $-1 #
face $-1 $-1 $157 $25 $-1 $158 forward single #
loop $-1 $159 $160 $57 #
cone-surface $-1 76.50221050995750716 4.317585322185220065 13.64866306938187535 0 0.5591929107383988296 -0.8290375676529484483 0.5 0 0 1 I I -0.7071067811865474617 0.7071067811865474617 0.5 forward I I I I #
loop $-1 $-1 $161 $34 #
coedge $-1 $97 $97 $162 $163 reversed $58 $-1 #
face $-1 $-1 $164 $26 $-1 $165 forward single #
loop $-1 $166 $167 $60 #
cone-surface $-1 86.23992983868824069 4.317585322185220065 13.64866306938187535 0 0.5591929107383988296 -0.8290375676529484483 0.5 0 0 1 I I -0.7071067811865474617 0.7071067811865474617 0.5 forward I I I I #
loop $-1 $-1 $168 $35 #
coedge $-1 $102 $102 $169 $170 reversed $61 $-1 #
face $-1 $171 $172 $18 $-1 $173 reversed single #
loop $-1 $-1 $174 $63 #
plane-surface $-1 50.32868434705648752 0 8.941786441142088648 0 1 0 0 0 1 forward_v I I I I #
coedge $-1 $175 $176 $177 $178 forward $64 $-1 #
coedge $-1 $179 $66 $180 $181 forward $37 $-1 #
coedge $-1 $66 $179 $182 $183 forward $37 $-1 #
coedge $-1 $184 $185 $66 $110 reversed $186 $-1 #
edge $-1 $187 -29.85546030252326588 $188 29.85546030252326588 $109 $189 forward 7 unknown #
face $-1 $190 $191 $19 $-1 $192 reversed single #
loop $-1 $-1 $193 $67 #
plane-surface $-1 6.200017006650526241 15.80385094720962158 8.941786441142088648 -1 0 0 0 0 1 forward_v I I I I #
coedge $-1 $194 $195 $196 $197 forward $68 $-1 #
coedge $-1 $198 $70 $199 $200 reversed $40 $-1 #
coedge $-1 $70 $198 $201 $202 reversed $40 $-1 #
coedge $-1 $203 $204 $70 $118 forward $205 $-1 #
edge $-1 $206 -8.941786441142088648 $207 8.941786441142088648 $117 $208 forward 7 unknown #
face $-1 $209 $210 $20 $-1 $211 reversed single #
loop $-1 $-1 $212 $71 #
plane-surface $-1 104.6201816789150882 29.85546030252326588 4.827799227219810696 0 0 1 1 0 0 forward_v I I I I #
coedge $-1 $213 $214 $124 $215 forward $72 $-1 #
coedge $-1 $216 $74 $217 $218 reversed $43 $-1 #
coedge $-1 $74 $216 $122 $215 reversed $43 $-1 #
coedge $-1 $219 $220 $74 $126 reversed $120 $-1 #
edge $-1 $221 -29.85546030252326588 $222 29.85546030252326588 $125 $223 forward 7 unknown #
face $-1 $224 $225 $21 $-1 $226 reversed single #
loop $-1 $-1 $227 $75 #
plane-surface $-1 92.73174272450873445 58.32843172998723702 126.2109852989456016 -1 0 0 0 0.5000000066987363434 0.8660253999169214012 forward_v I I I I #
coedge $-1 $228 $229 $230 $231 reversed $76 $-1 #
coedge $-1 $132 $78 $232 $233 reversed $46 $-1 #
coedge $-1 $78 $131 $228 $234 reversed $46 $-1 #
coedge $-1 $230 $235 $78 $134 forward $236 $-1 #
edge $-1 $237 -15.61897458879128209 $238 -0.5503298290749185639 $133 $239 forward 7 unknown #
loop $-1 $-1 $140 $79 #
plane-surface $-1 81.1608609587358103 7.999746708653574956 39.03914732104141194 0 0.5000000066987363434 0.8660253999169214012 1 0 0 forward_v I I I I #
loop $-1 $-1 $240 $48 #
coedge $-1 $138 $138 $139 $241 reversed $80 $-1 #
coedge $-1 $139 $139 $138 $241 forward $82 $-1 #
coedge $-1 $140 $140 $83 $141 forward $135 $-1 #
edge $-1 $242 1.421085490559154083e-15 $242 6.283185307179588008 $140 $243 forward 7 unknown #
loop $-1 $-1 $147 $84 #
plane-surface $-1 81.1608609587358103 7.999746708653574956 39.03914732104141194 0 0.5000000066987363434 0.8660253999169214012 1 0 0 forward_v I I I I #
loop $-1 $-1 $244 $51 #
coedge $-1 $145 $145 $146 $245 reversed $85 $-1 #
coedge $-1 $146 $146 $145 $245 forward $87 $-1 #
coedge $-1 $147 $147 $88 $148 forward $142 $-1 #
edge $-1 $246 1.421085490559154083e-15 $246 6.283185307179588008 $147 $247 forward 7 unknown #
face $-1 $248 $249 $24 $-1 $250 forward single #
loop $-1 $-1 $251 $89 #
plane-surface $-1 70.01039762413702761 -56.28688698732921125 97.71595714151506229 1 0 0 0 0.5591929107383988296 -0.8290375676529484483 forward_v I I I I #
coedge $-1 $252 $253 $254 $255 reversed $90 $-1 #
coedge $-1 $154 $92 $256 $257 reversed $55 $-1 #
coedge $-1 $92 $153 $252 $258 reversed $55 $-1 #
coedge $-1 $254 $259 $92 $156 forward $249 $-1 #
edge $-1 $260 13.21571334240297446 $261 18.57718127141844988 $155 $262 forward 7 unknown #
loop $-1 $-1 $162 $93 #
plane-surface $-1 81.37107017432288103 3.552713678800500929e-15 14.26721703300160371 0 -0.5591929107383988296 0.8290375676529484483 1 0 0 forward_v I I I I #
loop $-1 $-1 $263 $57 #
coedge $-1 $160 $160 $161 $264 reversed $94 $-1 #
coedge $-1 $161 $161 $160 $264 forward $96 $-1 #
coedge $-1 $162 $162 $97 $163 forward $157 $-1 #
edge $-1 $265 -9.586808037715486065e-16 $265 6.283185307179585344 $162 $266 forward 7 unknown #
loop $-1 $-1 $169 $98 #
plane-surface $-1 81.37107017432288103 3.552713678800500929e-15 14.26721703300160371 0 -0.5591929107383988296 0.8290375676529484483 1 0 0 forward_v I I I I #
loop $-1 $-1 $267 $60 #
coedge $-1 $167 $167 $168 $268 reversed $99 $-1 #
coedge $-1 $168 $168 $167 $268 forward $101 $-1 #
coedge $-1 $169 $169 $102 $170 forward $164 $-1 #
edge $-1 $269 -9.586808037715486065e-16 $269 6.283185307179585344 $169 $270 forward 7 unknown #
face $-1 $271 $272 $18 $-1 $273 reversed single #
loop $-1 $-1 $274 $103 #
plane-surface $-1 0 29.85546030252326588 8.941786441142088648 1 0 0 0 0 -1 forward_v I I I I #
coedge $-1 $275 $182 $276 $277 forward $104 $-1 #
coedge $-1 $278 $106 $275 $279 forward $64 $-1 #
coedge $-1 $106 $278 $280 $281 forward $64 $-1 #
coedge $-1 $185 $184 $106 $178 reversed $186 $-1 #
edge $-1 $282 -29.85546030252326588 $283 29.85546030252326588 $177 $284 forward 7 unknown #
coedge $-1 $108 $107 $285 $286 forward $37 $-1 #
coedge $-1 $287 $288 $107 $181 reversed $272 $-1 #
edge $-1 $188 -50.32868434705648752 $289 50.32868434705648752 $180 $290 forward 7 unknown #
coedge $-1 $174 $291 $108 $183 reversed $104 $-1 #
edge $-1 $292 -50.32868434705648752 $187 50.32868434705648752 $182 $293 forward 7 unknown #
coedge $-1 $177 $109 $291 $294 forward $186 $-1 #
coedge $-1 $109 $177 $287 $295 reversed $186 $-1 #
loop $-1 $-1 $184 $271 #
vertex $-1 $110 $296 #
vertex $-1 $110 $297 #
straight-curve $-1 100.657368694112975 29.85546030252326588 17.8835728822841773 0 1 0 I I #
face $-1 $298 $299 $19 $-1 $300 forward single #
loop $-1 $-1 $301 $111 #
plane-surface $-1 50.32868434705648752 29.85546030252326588 0 0 0 1 1 0 0 forward_v I I I I #
coedge $-1 $302 $303 $198 $304 forward $112 $-1 #
coedge $-1 $305 $114 $301 $306 reversed $68 $-1 #
coedge $-1 $114 $305 $307 $308 reversed $68 $-1 #
coedge $-1 $303 $302 $114 $197 reversed $112 $-1 #
edge $-1 $309 -8.941786441142088648 $310 8.941786441142088648 $196 $311 forward 7 unknown #
coedge $-1 $116 $115 $193 $304 reversed $40 $-1 #
coedge $-1 $312 $313 $115 $200 forward $191 $-1 #
edge $-1 $314 20.51432941854034908 $206 26.71434642519087532 $199 $315 forward 7 unknown #
coedge $-1 $316 $317 $116 $202 forward $299 $-1 #
edge $-1 $207 -26.71434642519087532 $318 -20.51432941854034908 $201 $319 forward 7 unknown #
coedge $-1 $320 $117 $317 $321 reversed $205 $-1 #
coedge $-1 $117 $320 $312 $322 reversed $205 $-1 #
loop $-1 $-1 $320 $298 #
vertex $-1 $322 $323 #
vertex $-1 $118 $324 #
straight-curve $-1 0 13.72412901213506586 8.941786441142088648 0 0 1 I I #
face $-1 $325 $326 $20 $-1 $327 reversed single #
loop $-1 $-1 $328 $119 #
plane-surface $-1 104.6201816789150882 29.85546030252326588 1.827799227219810696 0 0 1 1 0 0 forward_v I I I I #
coedge $-1 $220 $219 $329 $330 forward $120 $-1 #
coedge $-1 $331 $122 $332 $333 reversed $72 $-1 #
coedge $-1 $122 $331 $219 $334 reversed $72 $-1 #
edge $-1 $221 4.113987213922277952 $335 7.113987213922277952 $122 $336 forward 7 unknown #
coedge $-1 $124 $123 $337 $338 forward $43 $-1 #
coedge $-1 $339 $340 $123 $218 forward $341 $-1 #
edge $-1 $342 -7.113987213922277952 $222 -4.113987213922277952 $217 $343 forward 7 unknown #
coedge $-1 $212 $125 $214 $334 forward $120 $-1 #
coedge $-1 $125 $212 $339 $344 forward $120 $-1 #
vertex $-1 $215 $345 #
vertex $-1 $344 $346 #
straight-curve $-1 100.657368694112975 29.85546030252326588 4.827799227219810696 0 1 0 I I #
face $-1 $-1 $236 $21 $-1 $347 forward single #
loop $-1 $-1 $348 $127 #
plane-surface $-1 50.32868434705648752 59.71092060504653176 8.941786441142088648 0 -1 0 0 0 -1 forward_v I I I I #
coedge $-1 $349 $350 $351 $352 reversed $128 $-1 #
coedge $-1 $353 $130 $132 $234 forward $76 $-1 #
coedge $-1 $130 $353 $349 $354 forward $76 $-1 #
coedge $-1 $351 $133 $130 $231 forward $236 $-1 #
edge $-1 $238 3.845206540066740786 $355 26.98697007161258909 $230 $356 forward 7 unknown #
coedge $-1 $357 $358 $131 $233 forward $225 $-1 #
edge $-1 $359 -58.39269925151340601 $237 -49.69281298775967315 $232 $360 forward 7 unknown #
edge $-1 $238 42.31114831065202253 $359 59.71092060504652466 $132 $361 forward 7 unknown #
coedge $-1 $133 $351 $357 $362 forward $236 $-1 #
loop $-1 $-1 $351 $224 #
vertex $-1 $233 $363 #
vertex $-1 $134 $364 #
straight-curve $-1 69.58997919296288615 44.09194601625524967 17.88357288228418085 0 -1 0 I I #
coedge $-1 $240 $240 $-1 $365 reversed $137 $-1 #
edge $-1 $366 0 $366 6.283185307179586232 $138 $367 forward 7 unknown #
vertex $-1 $141 $368 #
ellipse-curve $-1 76.20191163054740002 52.17659822518834289 13.53362975040730731 0 0.5000000066987363434 0.8660253999169214012 2.5 0 0 1 I I #
coedge $-1 $244 $244 $-1 $369 reversed $144 $-1 #
edge $-1 $370 0 $370 6.283185307179586232 $145 $371 forward 7 unknown #
vertex $-1 $148 $372 #
ellipse-curve $-1 86.11981028692419216 52.17659822518834289 13.53362975040730731 0 0.5000000066987363434 0.8660253999169214012 2.5 0 0 1 I I #
face $-1 $-1 $373 $24 $-1 $374 reversed single #
loop $-1 $-1 $155 $149 #
plane-surface $-1 50.32868434705648752 29.85546030252326588 17.8835728822841773 0 0 1 1 0 0 forward_v I I I I #
coedge $-1 $375 $376 $377 $378 reversed $150 $-1 #
coedge $-1 $379 $152 $154 $258 forward $90 $-1 #
coedge $-1 $152 $379 $375 $380 forward $90 $-1 #
coedge $-1 $377 $155 $152 $255 forward $249 $-1 #
edge $-1 $261 -26.88186546381905373 $381 -4.160520363447346881 $254 $382 forward 7 unknown #
coedge $-1 $383 $384 $153 $257 forward $373 $-1 #
edge $-1 $385 -39.06165475832698064 $260 -35.4452989090444035 $256 $386 forward 7 unknown #
edge $-1 $261 -6.467098884546434334 $385 4.931985409908702699e-15 $154 $387 forward 7 unknown #
coedge $-1 $155 $377 $383 $388 forward $249 $-1 #
vertex $-1 $156 $389 #
vertex $-1 $156 $390 #
straight-curve $-1 92.73174272450873445 -13.21571334240297446 17.88357288228418085 0 1 0 I I #
coedge $-1 $263 $263 $-1 $391 reversed $159 $-1 #
edge $-1 $392 0 $392 6.283185307179586232 $160 $393 forward 7 unknown #
vertex $-1 $163 $394 #
ellipse-curve $-1 76.50221050995750716 2.68073396450773771 16.07539495764288873 0 -0.5591929107383988296 0.8290375676529484483 1 0 0 1 I I #
coedge $-1 $267 $267 $-1 $395 reversed $166 $-1 #
edge $-1 $396 0 $396 6.283185307179586232 $167 $397 forward 7 unknown #
vertex $-1 $170 $398 #
ellipse-curve $-1 86.23992983868824069 2.68073396450773771 16.07539495764288873 0 -0.5591929107383988296 0.8290375676529484483 1 0 0 1 I I #
face $-1 $-1 $186 $18 $-1 $399 reversed single #
loop $-1 $-1 $287 $171 #
plane-surface $-1 50.32868434705648752 59.71092060504653176 8.941786441142088648 0 -1 0 0 0 -1 forward_v I I I I #
coedge $-1 $400 $285 $288 $401 forward $172 $-1 #
coedge $-1 $291 $174 $175 $279 reversed $104 $-1 #
coedge $-1 $285 $400 $174 $277 reversed $172 $-1 #
edge $-1 $292 -8.941786441142088648 $402 8.941786441142088648 $276 $403 forward 7 unknown #
coedge $-1 $176 $175 $400 $404 forward $64 $-1 #
edge $-1 $283 -50.32868434705648752 $402 50.32868434705648752 $275 $405 forward 7 unknown #
coedge $-1 $288 $287 $176 $281 reversed $272 $-1 #
edge $-1 $406 -50.32868434705648752 $282 50.32868434705648752 $280 $407 forward 7 unknown #
vertex $-1 $178 $408 #
vertex $-1 $294 $409 #
straight-curve $-1 100.657368694112975 29.85546030252326588 0 0 -1 0 I I #
coedge $-1 $274 $276 $179 $286 reversed $172 $-1 #
edge $-1 $289 -29.85546030252326588 $292 29.85546030252326588 $285 $410 forward 7 unknown #
coedge $-1 $280 $180 $185 $295 forward $272 $-1 #
coedge $-1 $180 $280 $274 $401 reversed $272 $-1 #
vertex $-1 $181 $411 #
straight-curve $-1 50.32868434705648752 59.71092060504653176 17.8835728822841773 -1 0 0 I I #
coedge $-1 $182 $275 $184 $294 reversed $104 $-1 #
vertex $-1 $286 $412 #
straight-curve $-1 50.32868434705648752 0 17.8835728822841773 1 0 0 I I #
edge $-1 $187 -8.941786441142088648 $283 8.941786441142088648 $184 $413 forward 7 unknown #
edge $-1 $188 -8.941786441142088648 $282 8.941786441142088648 $185 $414 forward 7 unknown #
point $-1 100.657368694112975 0 17.8835728822841773 #
point $-1 100.657368694112975 59.71092060504653176 17.8835728822841773 #
face $-1 $-1 $205 $19 $-1 $415 reversed single #
loop $-1 $-1 $307 $190 #
plane-surface $-1 50.32868434705648752 29.85546030252326588 17.8835728822841773 0 0 1 1 0 0 forward_v I I I I #
coedge $-1 $313 $312 $194 $306 forward $191 $-1 #
coedge $-1 $196 $193 $313 $416 reversed $112 $-1 #
coedge $-1 $193 $196 $316 $417 reversed $112 $-1 #
edge $-1 $318 -8.941786441142088648 $314 8.941786441142088648 $193 $418 forward 7 unknown #
coedge $-1 $195 $194 $320 $419 reversed $68 $-1 #
edge $-1 $420 -26.71434642519087532 $310 -20.51432941854034908 $301 $421 forward 7 unknown #
coedge $-1 $317 $316 $195 $308 forward $299 $-1 #
edge $-1 $309 20.51432941854034908 $422 26.71434642519087532 $307 $423 forward 7 unknown #
vertex $-1 $308 $424 #
vertex $-1 $306 $425 #
straight-curve $-1 6.200017006650526241 17.8835728822841773 8.941786441142088648 0 0 -1 I I #
coedge $-1 $301 $199 $204 $322 forward $191 $-1 #
coedge $-1 $199 $301 $302 $416 forward $191 $-1 #
vertex $-1 $200 $426 #
straight-curve $-1 26.71434642519087532 13.72412901213506586 0 -1 0 0 I I #
coedge $-1 $307 $201 $303 $417 forward $299 $-1 #
coedge $-1 $201 $307 $203 $321 forward $299 $-1 #
vertex $-1 $202 $427 #
straight-curve $-1 26.71434642519087532 13.72412901213506586 17.8835728822841773 1 0 0 I I #
coedge $-1 $204 $203 $305 $419 forward $205 $-1 #
edge $-1 $422 11.97188742023908858 $207 16.13133129038820002 $203 $428 forward 7 unknown #
edge $-1 $206 -16.13133129038820002 $420 -11.97188742023908858 $204 $429 forward 7 unknown #
point $-1 0 13.72412901213506586 0 #
point $-1 0 13.72412901213506586 17.8835728822841773 #
face $-1 $-1 $341 $20 $-1 $430 reversed single #
loop $-1 $-1 $431 $209 #
plane-surface $-1 108.5829946637172156 29.85546030252326588 3.327799227219810696 -1 0 0 0 0 1 forward_v I I I I #
coedge $-1 $332 $432 $433 $434 forward $210 $-1 #
coedge $-1 $431 $435 $212 $330 reversed $326 $-1 #
edge $-1 $436 -29.85546030252326588 $437 29.85546030252326588 $329 $438 forward 7 unknown #
coedge $-1 $214 $213 $431 $439 reversed $72 $-1 #
coedge $-1 $337 $328 $213 $333 forward $210 $-1 #
edge $-1 $440 -3.962812984802127403 $335 3.962812984802127403 $213 $441 forward 7 unknown #
edge $-1 $221 -3.962812984802127403 $436 3.962812984802127403 $214 $442 forward 7 unknown #
vertex $-1 $215 $443 #
straight-curve $-1 100.657368694112975 0 8.941786441142088648 0 0 -1 I I #
coedge $-1 $432 $332 $216 $338 reversed $210 $-1 #
edge $-1 $342 -29.85546030252326588 $335 29.85546030252326588 $337 $444 forward 7 unknown #
coedge $-1 $445 $217 $220 $344 reversed $341 $-1 #
coedge $-1 $217 $445 $432 $446 reversed $341 $-1 #
loop $-1 $-1 $217 $325 #
vertex $-1 $218 $447 #
straight-curve $-1 100.657368694112975 59.71092060504653176 8.941786441142088648 0 0 1 I I #
edge $-1 $437 -3.962812984802127403 $222 3.962812984802127403 $339 $448 forward 7 unknown #
point $-1 100.6573686941129608 0 4.827799227219810696 #
point $-1 100.6573686941129608 59.71092060504653176 4.827799227219810696 #
plane-surface $-1 50.32868434705648752 29.85546030252326588 17.8835728822841773 0 0 1 1 0 0 forward_v I I I I #
coedge $-1 $358 $357 $350 $449 forward $225 $-1 #
coedge $-1 $350 $227 $229 $354 reversed $128 $-1 #
coedge $-1 $227 $349 $348 $449 reversed $128 $-1 #
coedge $-1 $235 $230 $227 $352 forward $236 $-1 #
edge $-1 $355 0.5503298290749185639 $450 15.61897458879128209 $351 $451 forward 7 unknown #
coedge $-1 $229 $228 $358 $452 reversed $76 $-1 #
edge $-1 $453 -59.71092060504652466 $355 -42.31114831065202253 $349 $454 forward 7 unknown #
vertex $-1 $231 $455 #
straight-curve $-1 65.74477265289614536 44.64227584533016113 17.8835728822841773 1 0 0 I I #
coedge $-1 $348 $232 $235 $362 reversed $225 $-1 #
coedge $-1 $232 $348 $353 $452 forward $225 $-1 #
vertex $-1 $233 $456 #
straight-curve $-1 69.58997919296288615 59.71092060504653176 67.57638587004385045 0 0 1 I I #
straight-curve $-1 69.58997919296288615 7.999746708653574956 39.03914732104141194 0 0.8660253999169214012 -0.5000000066987363434 I I #
edge $-1 $450 -42.40305837745224693 $237 -19.26129484590639862 $357 $457 forward 7 unknown #
point $-1 69.58997919296288615 59.71092060504653176 17.8835728822841773 #
point $-1 69.58997919296288615 44.64227584533016824 17.8835728822841773 #
edge $-1 $458 1 $458 0 $240 $-1 forward 7 unknown #
vertex $-1 $241 $459 #
ellipse-curve $-1 76.20191163054740002 49.13245316044746147 8.261015926852312674 0 0.5000000066987363434 0.8660253999169214012 2.5 0 0 1 I I #
point $-1 78.70191163054740002 52.17659822518834289 13.53362975040730021 #
edge $-1 $460 1 $460 0 $244 $-1 forward 7 unknown #
vertex $-1 $245 $461 #
ellipse-curve $-1 86.11981028692419216 49.13245316044746147 8.261015926852312674 0 0.5000000066987363434 0.8660253999169214012 2.5 0 0 1 I I #
point $-1 88.61981028692419216 52.17659822518834289 13.53362975040730021 #
loop $-1 $-1 $256 $248 #
plane-surface $-1 50.32868434705648752 0 8.941786441142088648 0 1 0 0 0 1 forward_v I I I I #
coedge $-1 $376 $251 $253 $380 reversed $150 $-1 #
coedge $-1 $251 $375 $462 $463 reversed $150 $-1 #
coedge $-1 $259 $254 $251 $378 forward $249 $-1 #
edge $-1 $381 -18.57718127141844988 $464 -13.21571334240297446 $377 $465 forward 7 unknown #
coedge $-1 $253 $252 $384 $466 reversed $90 $-1 #
edge $-1 $467 -4.931985409908702699e-15 $381 6.467098884546434334 $375 $468 forward 7 unknown #
vertex $-1 $255 $469 #
straight-curve $-1 65.84987726068968072 5.361467929015478973 17.8835728822841773 -1 0 0 I I #
coedge $-1 $462 $256 $259 $388 reversed $373 $-1 #
coedge $-1 $256 $462 $379 $466 forward $373 $-1 #
vertex $-1 $257 $470 #
straight-curve $-1 92.73174272450873445 0 53.3288717913285808 0 0 1 I I #
straight-curve $-1 92.73174272450873445 3.552713678800500929e-15 14.26721703300160371 0 -0.8290375676529484483 -0.5591929107383988296 I I #
edge $-1 $464 19.68171327708054008 $260 42.40305837745224693 $383 $471 forward 7 unknown #
point $-1 92.73174272450873445 0 17.8835728822841773 #
point $-1 92.73174272450873445 5.36146792901547542 17.8835728822841773 #
edge $-1 $472 1 $472 0 $263 $-1 forward 7 unknown #
vertex $-1 $264 $473 #
ellipse-curve $-1 76.50221050995750716 4.037988866816021982 14.06318185320834857 0 -0.5591929107383988296 0.8290375676529484483 1 0 0 1 I I #
point $-1 77.50221050995750716 2.680733964507734157 16.07539495764289228 #
edge $-1 $474 1 $474 0 $267 $-1 forward 7 unknown #
vertex $-1 $268 $475 #
ellipse-curve $-1 86.23992983868824069 4.037988866816021982 14.06318185320834857 0 -0.5591929107383988296 0.8290375676529484483 1 0 0 1 I I #
point $-1 87.23992983868824069 2.680733964507734157 16.07539495764289228 #
plane-surface $-1 100.657368694112975 29.85546030252326588 8.941786441142088648 -1 0 0 0 0 1 forward_v I I I I #
coedge $-1 $276 $274 $278 $404 reversed $172 $-1 #
edge $-1 $289 -8.941786441142088648 $406 8.941786441142088648 $288 $476 forward 7 unknown #
vertex $-1 $404 $477 #
straight-curve $-1 0 0 8.941786441142088648 0 0 -1 I I #
edge $-1 $402 -29.85546030252326588 $406 29.85546030252326588 $400 $478 forward 7 unknown #
straight-curve $-1 50.32868434705648752 0 0 -1 0 0 I I #
vertex $-1 $281 $479 #
straight-curve $-1 50.32868434705648752 59.71092060504653176 0 1 0 0 I I #
point $-1 100.657368694112975 59.71092060504653176 0 #
point $-1 100.657368694112975 0 0 #
straight-curve $-1 0 29.85546030252326588 17.8835728822841773 0 -1 0 I I #
point $-1 0 59.71092060504653176 17.8835728822841773 #
point $-1 0 0 17.8835728822841773 #
straight-curve $-1 100.657368694112975 0 8.941786441142088648 0 0 -1 I I #
straight-curve $-1 100.657368694112975 59.71092060504653176 8.941786441142088648 0 0 -1 I I #
plane-surface $-1 0 29.85546030252326588 8.941786441142088648 1 0 0 0 0 -1 forward_v I I I I #
edge $-1 $310 4.946082742582266434 $314 9.105526612731377867 $313 $480 forward 7 unknown #
edge $-1 $318 -9.105526612731377867 $309 -4.946082742582266434 $316 $481 forward 7 unknown #
straight-curve $-1 6.200017006650526241 13.72412901213506586 8.941786441142088648 0 0 -1 I I #
edge $-1 $422 -8.941786441142088648 $420 8.941786441142088648 $320 $482 forward 7 unknown #
vertex $-1 $419 $483 #
straight-curve $-1 26.71434642519087532 17.8835728822841773 0 1 0 0 I I #
vertex $-1 $321 $484 #
straight-curve $-1 26.71434642519087532 17.8835728822841773 17.8835728822841773 -1 0 0 I I #
point $-1 6.200017006650526241 17.8835728822841773 17.8835728822841773 #
point $-1 6.200017006650526241 17.8835728822841773 0 #
point $-1 6.200017006650526241 13.72412901213506586 0 #
point $-1 6.200017006650526241 13.72412901213506586 17.8835728822841773 #
straight-curve $-1 0 29.85546030252326588 17.8835728822841773 0 -1 0 I I #
straight-curve $-1 0 29.85546030252326588 0 0 1 0 I I #
plane-surface $-1 50.32868434705648752 59.71092060504653176 8.941786441142088648 0 -1 0 0 0 -1 forward_v I I I I #
coedge $-1 $433 $329 $331 $439 forward $326 $-1 #
coedge $-1 $328 $337 $340 $446 forward $210 $-1 #
coedge $-1 $435 $431 $328 $434 reversed $326 $-1 #
edge $-1 $485 -29.85546030252326588 $440 29.85546030252326588 $433 $486 forward 7 unknown #
coedge $-1 $329 $433 $445 $487 reversed $326 $-1 #
vertex $-1 $330 $488 #
vertex $-1 $330 $489 #
straight-curve $-1 108.5829946637172156 29.85546030252326588 4.827799227219810696 0 1 0 I I #
edge $-1 $436 -1.5 $440 1.5 $431 $490 forward 7 unknown #
vertex $-1 $439 $491 #
straight-curve $-1 104.6201816789150882 0 1.827799227219810696 -1 0 0 I I #
straight-curve $-1 104.6201816789150882 0 4.827799227219810696 1 0 0 I I #
point $-1 100.6573686941129608 0 1.827799227219810696 #
straight-curve $-1 100.657368694112975 29.85546030252326588 1.827799227219810696 0 -1 0 I I #
coedge $-1 $340 $339 $435 $487 forward $341 $-1 #
edge $-1 $342 -3.962812984802127403 $485 3.962812984802127403 $340 $492 forward 7 unknown #
point $-1 100.6573686941129608 59.71092060504653176 1.827799227219810696 #
straight-curve $-1 104.6201816789150882 59.71092060504653176 4.827799227219810696 -1 0 0 I I #
edge $-1 $450 49.69281298775967315 $453 58.39269925151340601 $348 $493 forward 7 unknown #
vertex $-1 $362 $494 #
straight-curve $-1 92.73174272450873445 44.09194601625524967 17.88357288228418085 0 1 0 I I #
edge $-1 $453 -26.98697007161258909 $359 -3.845206540066740786 $358 $495 forward 7 unknown #
vertex $-1 $452 $496 #
straight-curve $-1 92.73174272450873445 7.999746708653574956 39.03914732104141194 0 -0.8660253999169214012 0.5000000066987363434 I I #
point $-1 92.73174272450873445 44.64227584533016824 17.8835728822841773 #
point $-1 69.58997919296288615 59.71092060504653176 9.183686618530440882 #
straight-curve $-1 50.32868434705648752 59.71092060504653176 17.8835728822841773 -1 0 0 I I #
vertex $-1 $365 $497 #
point $-1 78.70191163054740002 49.13245316044746147 8.261015926852312674 #
vertex $-1 $369 $498 #
point $-1 88.61981028692419216 49.13245316044746147 8.261015926852312674 #
coedge $-1 $384 $383 $376 $463 forward $373 $-1 #
edge $-1 $464 35.4452989090444035 $467 39.06165475832698064 $462 $499 forward 7 unknown #
vertex $-1 $388 $500 #
straight-curve $-1 70.01039762413702761 -13.21571334240297446 17.88357288228418085 0 -1 0 I I #
edge $-1 $467 4.160520363447346881 $385 26.88186546381905373 $384 $501 forward 7 unknown #
vertex $-1 $466 $502 #
straight-curve $-1 70.01039762413702761 3.552713678800500929e-15 14.26721703300160371 0 0.8290375676529484483 0.5591929107383988296 I I #
point $-1 70.01039762413702761 5.36146792901547542 17.8835728822841773 #
point $-1 92.73174272450873445 0 14.26721703300160016 #
straight-curve $-1 50.32868434705648752 0 17.8835728822841773 1 0 0 I I #
vertex $-1 $391 $503 #
point $-1 77.50221050995750716 4.037988866816021982 14.06318185320834857 #
vertex $-1 $395 $504 #
point $-1 87.23992983868824069 4.037988866816021982 14.06318185320834857 #
straight-curve $-1 0 59.71092060504653176 8.941786441142088648 0 0 -1 I I #
point $-1 0 0 0 #
straight-curve $-1 0 29.85546030252326588 0 0 1 0 I I #
point $-1 0 59.71092060504653176 0 #
straight-curve $-1 6.200017006650526241 22.82965562486644373 0 0 -1 0 I I #
straight-curve $-1 6.200017006650526241 22.82965562486644373 17.8835728822841773 0 1 0 I I #
straight-curve $-1 0 17.8835728822841773 8.941786441142088648 0 0 -1 I I #
point $-1 0 17.8835728822841773 0 #
point $-1 0 17.8835728822841773 17.8835728822841773 #
vertex $-1 $434 $505 #
straight-curve $-1 108.5829946637172156 29.85546030252326588 1.827799227219810696 0 -1 0 I I #
edge $-1 $437 -1.5 $485 1.5 $435 $506 forward 7 unknown #
point $-1 108.5829946637172156 0 4.827799227219810696 #
point $-1 108.5829946637172156 59.71092060504653176 4.827799227219810696 #
straight-curve $-1 108.5829946637172156 0 3.327799227219810696 0 0 -1 I I #
point $-1 108.5829946637172156 0 1.827799227219810696 #
straight-curve $-1 104.6201816789150882 59.71092060504653176 1.827799227219810696 1 0 0 I I #
straight-curve $-1 92.73174272450873445 59.71092060504653176 67.57638587004385045 0 0 -1 I I #
point $-1 92.73174272450873445 59.71092060504653176 17.8835728822841773 #
straight-curve $-1 65.74477265289614536 59.71092060504652466 9.183686618530439105 -1 0 0 I I #
point $-1 92.73174272450873445 59.71092060504653176 9.183686618530440882 #
point $-1 76.20191163054740002 47.88245314370062289 6.095952427060009171 #
point $-1 86.11981028692419216 47.88245314370062289 6.095952427060009171 #
straight-curve $-1 70.01039762413702761 0 53.3288717913285808 0 0 -1 I I #
point $-1 70.01039762413702761 0 17.8835728822841773 #
straight-curve $-1 65.84987726068968072 0 14.26721703300160016 1 0 0 I I #
point $-1 70.01039762413702761 0 14.26721703300160016 #
point $-1 76.50221050995750716 4.597181777554418147 13.23414428555540212 #
point $-1 86.23992983868824069 4.597181777554418147 13.23414428555540212 #
point $-1 108.5829946637172156 59.71092060504653176 1.827799227219810696 #
straight-curve $-1 108.5829946637172156 59.71092060504653176 3.327799227219810696 0 0 -1 I I #
End-of-ACIS-data 