300 0 4 0           
7 Unknown 11 ACIS 3.0 NT 24 Fri Oct 30 14:04:11 1998 
-1 9.9999999999999995e-007 1e-010 
body $4 $5 $-1 $6 #
body $7 $8 $-1 $9 #
body $10 $11 $-1 $12 #
body $13 $14 $-1 $15 #
display_attribute-st-attrib $-1 $16 $-1 $0 1 #
lump $-1 $-1 $17 $0 #
transform $-1 1 0 0 0 1 0 0 0 1 60.283822138126773 24.617994446555205 7.2180828225298166 1 rotate no_reflect no_shear #
display_attribute-st-attrib $-1 $18 $-1 $1 3 #
lump $-1 $-1 $19 $1 #
transform $-1 1 0 0 0 1 0 0 0 1 60.283822138126773 24.617994446555205 7.2180828225298166 1 rotate no_reflect no_shear #
display_attribute-st-attrib $-1 $20 $-1 $2 3 #
lump $-1 $-1 $21 $2 #
transform $-1 1 0 0 0 1 0 0 0 1 60.283822138126773 24.617994446555205 7.2180828225298166 1 rotate no_reflect no_shear #
display_attribute-st-attrib $-1 $22 $-1 $3 3 #
lump $-1 $-1 $23 $3 #
transform $-1 1 0 0 0 1 0 0 0 1 60.283822138126773 24.617994446555205 7.2180828225298166 1 rotate no_reflect no_shear #
id_attribute-st-attrib $-1 $-1 $4 $0 500 #
shell $-1 $-1 $-1 $24 $-1 $5 #
id_attribute-st-attrib $-1 $-1 $7 $1 505 #
shell $-1 $-1 $-1 $25 $-1 $8 #
id_attribute-st-attrib $-1 $-1 $10 $2 516 #
shell $-1 $-1 $-1 $26 $-1 $11 #
id_attribute-st-attrib $-1 $-1 $13 $3 523 #
shell $-1 $-1 $-1 $27 $-1 $14 #
face $-1 $28 $29 $17 $-1 $30 forward single #
face $-1 $31 $32 $19 $-1 $33 forward single #
face $-1 $34 $35 $21 $-1 $36 reversed single #
face $-1 $37 $38 $23 $-1 $39 forward single #
face $-1 $40 $41 $17 $-1 $42 reversed single #
loop $-1 $-1 $43 $24 #
plane-surface $-1 0 0 7.2180828225298166 0 0 1 1 0 0 forward_v I I I I #
face $-1 $44 $45 $19 $-1 $46 reversed single #
loop $-1 $-1 $47 $25 #
plane-surface $-1 0 -24.617994446555205 0 0 1 0 0 0 1 forward_v I I I I #
face $-1 $48 $49 $21 $-1 $50 reversed single #
loop $-1 $-1 $51 $26 #
plane-surface $-1 34.7341669496438 57.855806176991081 126.91937253128015 1 0 0 0 -0.6018150307709319 -0.79863550430605224 forward_v I I I I #
face $-1 $52 $53 $23 $-1 $54 forward single #
loop $-1 $55 $56 $27 #
cone-surface $-1 47.508994543885287 18.81456805241989 1.8832571262296822 0 -0.6018150307709319 -0.79863550430605224 1.5 0 0 1 I I 0 1 forward I I I I #
face $-1 $57 $58 $17 $-1 $59 reversed single #
loop $-1 $-1 $60 $28 #
plane-surface $-1 0 0 -7.2180828225298166 0 0 1 1 0 0 forward_v I I I I #
coedge $-1 $61 $62 $63 $64 forward $29 $-1 #
face $-1 $65 $66 $19 $-1 $67 reversed single #
loop $-1 $-1 $68 $31 #
plane-surface $-1 0 0 -7.2180828225298166 0 0 1 1 0 0 forward_v I I I I #
coedge $-1 $69 $70 $71 $72 forward $32 $-1 #
face $-1 $73 $74 $21 $-1 $75 forward single #
loop $-1 $-1 $76 $34 #
plane-surface $-1 47.508994543885287 -14.703614373101217 30.62977114172169 0 0.6018150307709319 0.79863550430605224 1 0 0 forward_v I I I I #
coedge $-1 $77 $78 $79 $80 reversed $35 $-1 #
face $-1 $-1 $81 $23 $-1 $82 forward single #
loop $-1 $83 $84 $37 #
cone-surface $-1 47.508994543885287 16.686405228679863 -0.94091027252366377 0 -0.6018150307709319 -0.79863550430605224 0.75 0 0 1 I I -0.70710678118654757 0.70710678118654757 forward I I I I #
loop $-1 $-1 $85 $27 #
coedge $-1 $56 $56 $86 $87 reversed $38 $-1 #
face $-1 $88 $89 $17 $-1 $90 reversed single #
loop $-1 $-1 $91 $40 #
plane-surface $-1 0 -24.617994446555205 0 0 1 0 0 0 1 forward_v I I I I #
coedge $-1 $92 $93 $94 $95 forward $41 $-1 #
coedge $-1 $96 $43 $97 $98 forward $29 $-1 #
coedge $-1 $43 $96 $99 $100 forward $29 $-1 #
coedge $-1 $101 $102 $43 $64 reversed $103 $-1 #
edge $-1 $104 $105 $63 $106 forward #
face $-1 $107 $108 $19 $-1 $109 forward single #
loop $-1 $-1 $110 $44 #
plane-surface $-1 60.283822138126773 0 0 -1 0 0 0 0 1 forward_v I I I I #
coedge $-1 $111 $112 $113 $114 forward $45 $-1 #
coedge $-1 $113 $47 $110 $115 reversed $32 $-1 #
coedge $-1 $47 $113 $116 $117 reversed $32 $-1 #
coedge $-1 $118 $119 $47 $72 reversed $108 $-1 #
edge $-1 $120 $121 $71 $122 forward #
face $-1 $123 $124 $21 $-1 $125 reversed single #
loop $-1 $-1 $79 $48 #
plane-surface $-1 0 0 7.2180828225298166 0 0 1 1 0 0 forward_v I I I I #
coedge $-1 $126 $127 $128 $129 reversed $49 $-1 #
coedge $-1 $78 $51 $130 $131 reversed $35 $-1 #
coedge $-1 $51 $77 $126 $132 reversed $35 $-1 #
coedge $-1 $128 $133 $51 $80 forward $74 $-1 #
edge $-1 $134 $135 $79 $136 forward #
loop $-1 $-1 $86 $52 #
plane-surface $-1 47.508994543885287 -14.703614373101217 30.62977114172169 0 0.6018150307709319 0.79863550430605224 1 0 0 forward_v I I I I #
loop $-1 $-1 $137 $37 #
coedge $-1 $84 $84 $85 $138 reversed $53 $-1 #
coedge $-1 $85 $85 $84 $138 forward $55 $-1 #
coedge $-1 $86 $86 $56 $87 forward $81 $-1 #
edge $-1 $139 $139 $86 $140 forward #
face $-1 $141 $142 $17 $-1 $143 reversed single #
loop $-1 $-1 $144 $57 #
plane-surface $-1 -60.283822138126773 0 0 1 0 0 0 0 -1 forward_v I I I I #
coedge $-1 $145 $99 $146 $147 forward $58 $-1 #
coedge $-1 $148 $60 $145 $149 forward $41 $-1 #
coedge $-1 $60 $148 $150 $151 forward $41 $-1 #
coedge $-1 $102 $101 $60 $95 reversed $103 $-1 #
edge $-1 $152 $153 $94 $154 forward #
coedge $-1 $62 $61 $155 $156 forward $29 $-1 #
coedge $-1 $157 $158 $61 $98 reversed $142 $-1 #
edge $-1 $105 $159 $97 $160 forward #
coedge $-1 $91 $161 $62 $100 reversed $58 $-1 #
edge $-1 $162 $104 $99 $163 forward #
coedge $-1 $94 $63 $161 $164 forward $103 $-1 #
coedge $-1 $63 $94 $157 $165 reversed $103 $-1 #
loop $-1 $-1 $101 $141 #
vertex $-1 $64 $166 #
vertex $-1 $64 $167 #
straight-curve $-1 60.283822138126773 0 7.2180828225298166 0 1 0 I I #
face $-1 $168 $169 $19 $-1 $170 reversed single #
loop $-1 $-1 $119 $65 #
plane-surface $-1 0 -27.814862555765995 -3.9571139436261058 0 0 1 1 0 0 forward_v I I I I #
coedge $-1 $171 $172 $69 $115 forward $66 $-1 #
coedge $-1 $173 $68 $172 $174 forward $45 $-1 #
coedge $-1 $68 $173 $175 $176 forward $45 $-1 #
coedge $-1 $70 $69 $68 $114 reversed $32 $-1 #
edge $-1 $177 $178 $68 $179 forward #
edge $-1 $178 $121 $110 $180 forward #
coedge $-1 $175 $181 $70 $117 forward $182 $-1 #
edge $-1 $120 $177 $116 $183 forward #
coedge $-1 $184 $71 $181 $185 forward $108 $-1 #
coedge $-1 $71 $184 $171 $186 forward $108 $-1 #
vertex $-1 $117 $187 #
vertex $-1 $186 $188 #
straight-curve $-1 0 -24.617994446555205 -3.9571139436261058 1 0 0 I I #
face $-1 $-1 $189 $21 $-1 $190 reversed single #
loop $-1 $-1 $191 $73 #
plane-surface $-1 60.283822138126773 0 0 -1 0 0 0 0 1 forward_v I I I I #
coedge $-1 $192 $76 $78 $132 forward $49 $-1 #
coedge $-1 $76 $192 $191 $193 reversed $49 $-1 #
coedge $-1 $194 $79 $76 $129 forward $74 $-1 #
edge $-1 $135 $195 $128 $196 forward #
coedge $-1 $197 $198 $77 $131 forward $189 $-1 #
edge $-1 $199 $134 $130 $200 forward #
edge $-1 $135 $199 $78 $201 forward #
coedge $-1 $79 $194 $197 $202 forward $74 $-1 #
vertex $-1 $131 $203 #
vertex $-1 $80 $204 #
straight-curve $-1 34.7341669496438 28.92790308849554 7.2180828225298157 0 -1 0 I I #
coedge $-1 $137 $137 $-1 $205 reversed $83 $-1 #
edge $-1 $206 $206 $84 $207 forward #
vertex $-1 $87 $208 #
ellipse-curve $-1 47.508994543885287 20.491369603081729 4.1084478967535052 0 0.6018150307709319 0.79863550430605224 1.5 0 0 1 I I #
face $-1 $-1 $103 $17 $-1 $209 reversed single #
loop $-1 $-1 $157 $88 #
plane-surface $-1 0 24.617994446555205 0 0 -1 0 0 0 -1 forward_v I I I I #
coedge $-1 $210 $155 $158 $211 forward $89 $-1 #
coedge $-1 $161 $91 $92 $149 reversed $58 $-1 #
coedge $-1 $155 $210 $91 $147 reversed $89 $-1 #
edge $-1 $162 $212 $146 $213 forward #
coedge $-1 $93 $92 $210 $214 forward $41 $-1 #
edge $-1 $153 $212 $145 $215 forward #
coedge $-1 $158 $157 $93 $151 reversed $142 $-1 #
edge $-1 $216 $152 $150 $217 forward #
vertex $-1 $95 $218 #
vertex $-1 $164 $219 #
straight-curve $-1 60.283822138126773 0 -7.2180828225298166 0 -1 0 I I #
coedge $-1 $144 $146 $96 $156 reversed $89 $-1 #
edge $-1 $159 $162 $155 $220 forward #
coedge $-1 $150 $97 $102 $165 forward $142 $-1 #
coedge $-1 $97 $150 $144 $211 reversed $142 $-1 #
vertex $-1 $98 $221 #
straight-curve $-1 0 24.617994446555205 7.2180828225298166 -1 0 0 I I #
coedge $-1 $99 $145 $101 $164 reversed $58 $-1 #
vertex $-1 $156 $222 #
straight-curve $-1 0 -24.617994446555205 7.2180828225298166 1 0 0 I I #
edge $-1 $104 $153 $101 $223 forward #
edge $-1 $105 $152 $102 $224 forward #
point $-1 60.283822138126773 -24.617994446555205 7.2180828225298166 #
point $-1 60.283822138126773 24.617994446555205 7.2180828225298166 #
face $-1 $-1 $182 $19 $-1 $225 reversed single #
loop $-1 $-1 $226 $107 #
plane-surface $-1 0 -31.011730664976785 -5.5875983830779612 0 1 0 0 0 1 forward_v I I I I #
coedge $-1 $227 $110 $119 $186 reversed $66 $-1 #
coedge $-1 $110 $227 $111 $174 reversed $66 $-1 #
coedge $-1 $112 $111 $228 $229 forward $45 $-1 #
edge $-1 $178 $230 $172 $231 forward #
coedge $-1 $232 $116 $112 $176 reversed $182 $-1 #
edge $-1 $233 $177 $175 $234 forward #
vertex $-1 $117 $235 #
vertex $-1 $174 $236 #
straight-curve $-1 0 -24.617994446555205 -7.2180828225298166 1 0 0 I I #
straight-curve $-1 60.283822138126773 -24.617994446555205 0 0 0 1 I I #
coedge $-1 $116 $232 $118 $185 reversed $182 $-1 #
loop $-1 $-1 $116 $168 #
straight-curve $-1 -60.283822138126773 -24.617994446555205 0 0 0 -1 I I #
coedge $-1 $119 $118 $237 $238 forward $108 $-1 #
edge $-1 $120 $239 $181 $240 forward #
edge $-1 $241 $121 $171 $242 forward #
point $-1 -60.283822138126773 -24.617994446555205 -3.9571139436261058 #
point $-1 60.283822138126773 -24.617994446555205 -3.9571139436261058 #
loop $-1 $-1 $130 $123 #
plane-surface $-1 0 24.617994446555205 0 0 -1 0 0 0 -1 forward_v I I I I #
coedge $-1 $243 $244 $127 $193 forward $124 $-1 #
coedge $-1 $127 $126 $198 $245 reversed $49 $-1 #
edge $-1 $195 $246 $191 $247 forward #
coedge $-1 $133 $128 $244 $248 forward $74 $-1 #
vertex $-1 $248 $249 #
straight-curve $-1 23.754497271942643 16.364744759608261 7.2180828225298157 1 0 0 I I #
coedge $-1 $250 $130 $133 $202 reversed $189 $-1 #
coedge $-1 $130 $250 $192 $245 forward $189 $-1 #
vertex $-1 $131 $251 #
straight-curve $-1 34.7341669496438 24.617994446555205 63.459686265640073 0 0 1 I I #
straight-curve $-1 34.7341669496438 -14.703614373101217 30.62977114172169 0 0.79863550430605224 -0.6018150307709319 I I #
edge $-1 $252 $134 $197 $253 forward #
point $-1 34.7341669496438 24.617994446555205 7.2180828225298166 #
point $-1 34.7341669496438 16.364744759608257 7.2180828225298157 #
edge $-1 $254 $254 $137 $-1 forward #
vertex $-1 $138 $255 #
ellipse-curve $-1 47.508994543885287 17.137766501758062 -0.34193364429412454 0 0.6018150307709319 0.79863550430605224 1.5 0 0 1 I I #
point $-1 49.008994543885287 20.491369603081715 4.1084478967534883 #
plane-surface $-1 60.283822138126773 0 0 -1 0 0 0 0 1 forward_v I I I I #
coedge $-1 $146 $144 $148 $214 reversed $89 $-1 #
edge $-1 $159 $216 $158 $256 forward #
vertex $-1 $214 $257 #
straight-curve $-1 -60.283822138126773 -24.617994446555205 0 0 0 -1 I I #
edge $-1 $212 $216 $210 $258 forward #
straight-curve $-1 0 -24.617994446555205 -7.2180828225298166 -1 0 0 I I #
vertex $-1 $151 $259 #
straight-curve $-1 0 24.617994446555205 -7.2180828225298166 1 0 0 I I #
point $-1 60.283822138126773 24.617994446555205 -7.2180828225298166 #
point $-1 60.283822138126773 -24.617994446555205 -7.2180828225298166 #
straight-curve $-1 -60.283822138126773 0 7.2180828225298166 0 -1 0 I I #
point $-1 -60.283822138126773 24.617994446555205 7.2180828225298166 #
point $-1 -60.283822138126773 -24.617994446555205 7.2180828225298166 #
straight-curve $-1 60.283822138126773 -24.617994446555205 0 0 0 -1 I I #
straight-curve $-1 60.283822138126773 24.617994446555205 0 0 0 -1 I I #
plane-surface $-1 -60.283822138126773 0 0 1 0 0 0 0 -1 forward_v I I I I #
coedge $-1 $228 $237 $232 $260 forward $169 $-1 #
coedge $-1 $172 $171 $261 $262 forward $66 $-1 #
coedge $-1 $261 $226 $173 $229 reversed $169 $-1 #
edge $-1 $230 $233 $228 $263 forward #
vertex $-1 $262 $264 #
straight-curve $-1 60.283822138126773 0 -7.2180828225298166 0 -1 0 I I #
coedge $-1 $181 $175 $226 $260 reversed $182 $-1 #
vertex $-1 $176 $265 #
straight-curve $-1 -60.283822138126773 0 -7.2180828225298166 0 1 0 I I #
point $-1 -60.283822138126773 -24.617994446555205 -7.2180828225298166 #
point $-1 60.283822138126773 -24.617994446555205 -7.2180828225298166 #
coedge $-1 $226 $261 $184 $238 reversed $169 $-1 #
edge $-1 $239 $241 $237 $266 forward #
vertex $-1 $185 $267 #
straight-curve $-1 -60.283822138126773 -27.814862555765995 -3.9571139436261058 0 -1 0 I I #
vertex $-1 $186 $268 #
straight-curve $-1 60.283822138126773 -27.814862555765995 -3.9571139436261058 0 1 0 I I #
coedge $-1 $244 $191 $250 $269 reversed $124 $-1 #
coedge $-1 $191 $243 $194 $248 reversed $124 $-1 #
edge $-1 $246 $199 $198 $270 forward #
vertex $-1 $193 $271 #
straight-curve $-1 60.283822138126773 -2.6536880218110168 21.549500156035414 0 0.79863550430605224 -0.6018150307709319 I I #
edge $-1 $195 $252 $244 $272 forward #
point $-1 60.283822138126773 16.364744759608257 7.2180828225298157 #
coedge $-1 $198 $197 $243 $269 forward $189 $-1 #
point $-1 34.7341669496438 24.617994446555201 0.99881297097718758 #
vertex $-1 $248 $273 #
straight-curve $-1 0 24.617994446555205 7.2180828225298166 -1 0 0 I I #
vertex $-1 $205 $274 #
point $-1 49.008994543885287 17.137766501758062 -0.34193364429412454 #
straight-curve $-1 -60.283822138126773 24.617994446555205 0 0 0 -1 I I #
point $-1 -60.283822138126773 -24.617994446555205 -7.2180828225298166 #
straight-curve $-1 -60.283822138126773 0 -7.2180828225298166 0 1 0 I I #
point $-1 -60.283822138126773 24.617994446555205 -7.2180828225298166 #
edge $-1 $239 $233 $232 $275 forward #
coedge $-1 $237 $228 $227 $262 reversed $169 $-1 #
edge $-1 $241 $230 $227 $276 forward #
straight-curve $-1 0 -31.011730664976785 -7.2180828225298166 -1 0 0 I I #
point $-1 60.283822138126773 -31.011730664976785 -7.2180828225298166 #
point $-1 -60.283822138126773 -31.011730664976785 -7.2180828225298166 #
straight-curve $-1 0 -31.011730664976785 -3.9571139436261058 1 0 0 I I #
point $-1 -60.283822138126773 -31.011730664976785 -3.9571139436261058 #
point $-1 60.283822138126773 -31.011730664976785 -3.9571139436261058 #
edge $-1 $252 $246 $243 $277 forward #
straight-curve $-1 23.754497271942643 24.617994446555201 0.99881297097718935 -1 0 0 I I #
point $-1 60.283822138126773 24.617994446555201 0.99881297097718758 #
straight-curve $-1 60.283822138126773 0 7.2180828225298166 0 1 0 I I #
point $-1 60.283822138126773 24.617994446555205 7.2180828225298166 #
point $-1 47.508994543885287 16.235043955601665 -1.539886900753203 #
straight-curve $-1 -60.283822138126773 -31.011730664976785 -5.5875983830779612 0 0 -1 I I #
straight-curve $-1 60.283822138126773 -31.011730664976785 -5.5875983830779612 0 0 -1 I I #
straight-curve $-1 60.283822138126773 24.617994446555205 0 0 0 -1 I I #
End-of-ACIS-data 