600 0 8 0           
94 GICL ACIS Healer - Source: /gicl/data5/repository/Drexel/SM99-DATA/part119.smdg.feat.sat - 6 0 18 ACIS 6.0.3 Solaris 24 Sat Apr 13 20:44:54 2002 
1 9.999999999999999547e-07 1.000000000000000036e-10 
body $-1 $8 $-1 $-1 #
body $-1 $9 $-1 $-1 #
body $-1 $10 $-1 $-1 #
body $-1 $11 $-1 $-1 #
body $-1 $12 $-1 $-1 #
body $-1 $13 $-1 $-1 #
body $-1 $14 $-1 $-1 #
body $-1 $15 $-1 $-1 #
lump $-1 $-1 $16 $0 #
lump $-1 $-1 $17 $1 #
lump $-1 $-1 $18 $2 #
lump $-1 $-1 $19 $3 #
lump $-1 $-1 $20 $4 #
lump $-1 $-1 $21 $5 #
lump $-1 $-1 $22 $6 #
lump $-1 $-1 $23 $7 #
shell $-1 $-1 $-1 $24 $-1 $8 #
shell $-1 $-1 $-1 $25 $-1 $9 #
shell $-1 $-1 $-1 $26 $-1 $10 #
shell $-1 $-1 $-1 $27 $-1 $11 #
shell $-1 $-1 $-1 $28 $-1 $12 #
shell $-1 $-1 $-1 $29 $-1 $13 #
shell $-1 $-1 $-1 $30 $-1 $14 #
shell $-1 $-1 $-1 $31 $-1 $15 #
face $-1 $32 $33 $16 $-1 $34 forward single #
face $-1 $35 $36 $17 $-1 $37 forward single #
face $-1 $38 $39 $18 $-1 $40 forward single #
face $-1 $41 $42 $19 $-1 $43 forward single #
face $-1 $44 $45 $20 $-1 $46 forward single #
face $-1 $47 $48 $21 $-1 $49 forward single #
face $-1 $50 $51 $22 $-1 $52 forward single #
face $-1 $53 $54 $23 $-1 $55 forward single #
face $-1 $56 $57 $16 $-1 $58 reversed single #
loop $-1 $-1 $59 $24 #
plane-surface $-1 72.6279488509781288 49.22639786450569943 46.60966335111124437 0 0 1 1 0 0 forward_v I I I I #
face $-1 $60 $61 $17 $-1 $62 reversed single #
loop $-1 $-1 $63 $25 #
plane-surface $-1 42.15417099503598308 9.210547139392183169 46.60966335111124437 0 0 1 1 0 0 forward_v I I I I #
face $-1 $64 $65 $18 $-1 $66 reversed single #
loop $-1 $-1 $67 $26 #
plane-surface $-1 -190.592888720739893 88.26790869442251619 258.8790568524670448 -0.6560590369687036016 0 0.754709573287431712 0.754709573287431712 0 0.6560590369687036016 forward_v I I I I #
face $-1 $68 $69 $19 $-1 $70 forward single #
loop $-1 $71 $72 $27 #
cone-surface $-1 4.943294913181770944 83.90295710817012775 42.05196241890386233 0.6560590369687036016 0 -0.754709573287431712 1.886773933218579336 0 1.640147592421759004 1 I I 0 1 2.5 forward I I I I #
face $-1 $73 $74 $20 $-1 $75 forward single #
loop $-1 $76 $77 $28 #
cone-surface $-1 4.943294913181770944 92.63286028067489042 42.05196241890386233 0.6560590369687036016 0 -0.754709573287431712 1.886773933218579336 0 1.640147592421759004 1 I I 0 1 2.5 forward I I I I #
face $-1 $78 $79 $21 $-1 $80 reversed single #
loop $-1 $-1 $81 $29 #
plane-surface $-1 237.1510307338048733 89.95759438622422977 348.7532319631608289 0.6819983681709311796 0 0.7313536940579346002 0.7313536940579346002 0 -0.6819983681709311796 forward_v I I I I #
face $-1 $82 $83 $22 $-1 $84 forward single #
loop $-1 $85 $86 $30 #
cone-surface $-1 139.3473531372360696 86.31679381074401647 40.97747530169897345 -0.6819983681709311796 0 -0.7313536940579346002 1.4627073881158692 0 -1.363996736341862359 1 I I 0 1 2 forward I I I I #
face $-1 $87 $88 $23 $-1 $89 forward single #
loop $-1 $90 $91 $31 #
cone-surface $-1 139.3473531372360696 93.59839496170444306 40.97747530169897345 -0.6819983681709311796 0 -0.7313536940579346002 1.4627073881158692 0 -1.363996736341862359 1 I I 0 1 2 forward I I I I #
face $-1 $92 $93 $16 $-1 $94 reversed single #
loop $-1 $-1 $95 $32 #
plane-surface $-1 72.6279488509781288 49.22639786450569943 0 0 0 1 1 0 0 forward_v I I I I #
coedge $-1 $96 $97 $98 $99 forward $33 $-1 #
face $-1 $100 $101 $17 $-1 $102 reversed single #
loop $-1 $-1 $103 $35 #
plane-surface $-1 42.15417099503598308 9.210547139392183169 0 0 0 1 1 0 0 forward_v I I I I #
coedge $-1 $104 $105 $106 $107 forward $36 $-1 #
face $-1 $108 $109 $18 $-1 $110 reversed single #
loop $-1 $-1 $111 $38 #
plane-surface $-1 0 88.26790869442251619 39.62702370821455133 -0.6560590369687036016 0 0.754709573287431712 0.754709573287431712 0 0.6560590369687036016 forward_v I I I I #
coedge $-1 $112 $113 $114 $115 forward $39 $-1 #
face $-1 $-1 $116 $19 $-1 $117 forward single #
loop $-1 $-1 $118 $41 #
plane-surface $-1 4.016303936349752135 83.90295710817012775 43.1183435296629014 -0.6560590369687036016 0 0.754709573287431712 -0.754709573287431712 0 -0.6560590369687036016 forward_v I I I I #
loop $-1 $-1 $119 $27 #
coedge $-1 $72 $72 $118 $120 reversed $42 $-1 #
face $-1 $-1 $121 $20 $-1 $122 forward single #
loop $-1 $-1 $123 $44 #
plane-surface $-1 4.016303936349752135 92.63286028067489042 43.1183435296629014 -0.6560590369687036016 0 0.754709573287431712 -0.754709573287431712 0 -0.6560590369687036016 forward_v I I I I #
loop $-1 $-1 $124 $28 #
coedge $-1 $77 $77 $123 $125 reversed $45 $-1 #
face $-1 $126 $127 $21 $-1 $128 reversed single #
loop $-1 $-1 $129 $47 #
plane-surface $-1 39.02246033392908942 89.95759438622422977 136.2863572271065209 0.6819983681709311796 0 0.7313536940579346002 0.7313536940579346002 0 -0.6819983681709311796 forward_v I I I I #
coedge $-1 $130 $131 $132 $133 forward $48 $-1 #
face $-1 $-1 $134 $22 $-1 $135 forward single #
loop $-1 $-1 $136 $50 #
plane-surface $-1 140.2224182146923681 86.31679381074401647 41.91586768913992955 0.6819983681709311796 0 0.7313536940579346002 -0.7313536940579346002 0 0.6819983681709311796 forward_v I I I I #
loop $-1 $-1 $137 $30 #
coedge $-1 $86 $86 $136 $138 reversed $51 $-1 #
face $-1 $-1 $139 $23 $-1 $140 forward single #
loop $-1 $-1 $141 $53 #
plane-surface $-1 140.2224182146923681 93.59839496170444306 41.91586768913992955 0.6819983681709311796 0 0.7313536940579346002 -0.7313536940579346002 0 0.6819983681709311796 forward_v I I I I #
loop $-1 $-1 $142 $31 #
coedge $-1 $91 $91 $141 $143 reversed $54 $-1 #
face $-1 $144 $145 $16 $-1 $146 reversed single #
loop $-1 $-1 $147 $56 #
plane-surface $-1 72.6279488509781288 0 23.30483167555562218 0 1 0 0 0 1 forward_v I I I I #
coedge $-1 $148 $149 $150 $151 forward $57 $-1 #
coedge $-1 $152 $59 $153 $154 forward $33 $-1 #
coedge $-1 $59 $152 $155 $156 forward $33 $-1 #
coedge $-1 $157 $158 $59 $99 reversed $159 $-1 #
edge $-1 $160 -49.22639786450569943 $161 49.22639786450569943 $98 $162 forward 7 unknown #
face $-1 $163 $164 $17 $-1 $165 reversed single #
loop $-1 $-1 $166 $60 #
plane-surface $-1 42.15417099503598308 0 23.30483167555562218 0 1 0 0 0 1 forward_v I I I I #
coedge $-1 $167 $168 $169 $170 forward $61 $-1 #
coedge $-1 $171 $63 $172 $173 forward $36 $-1 #
coedge $-1 $63 $171 $174 $175 forward $36 $-1 #
coedge $-1 $176 $177 $63 $107 reversed $178 $-1 #
edge $-1 $179 -9.210547139392183169 $180 9.210547139392183169 $106 $181 forward 7 unknown #
face $-1 $182 $183 $18 $-1 $184 reversed single #
loop $-1 $-1 $185 $64 #
plane-surface $-1 -95.29644436036994648 78.08302165983363352 149.2530402803407981 0 1 0 -0.6560590369687036016 0 0.754709573287431712 forward_v I I I I #
coedge $-1 $186 $187 $188 $189 forward $65 $-1 #
coedge $-1 $190 $67 $191 $192 forward $39 $-1 #
coedge $-1 $67 $190 $193 $194 forward $39 $-1 #
coedge $-1 $195 $196 $67 $115 reversed $197 $-1 #
edge $-1 $198 -10.18488703458888267 $199 10.18488703458888267 $114 $200 forward 7 unknown #
loop $-1 $201 $202 $68 #
cone-surface $-1 6.69035968622467081 83.90295710817012775 40.04219434153552726 0.6560590369687036016 0 -0.754709573287431712 0.9433869666092896678 0 0.8200737962108795021 1 I I -0.7071067811865474617 0.7071067811865474617 1.25 forward I I I I #
coedge $-1 $118 $118 $72 $120 forward $69 $-1 #
coedge $-1 $119 $119 $202 $203 forward $71 $-1 #
edge $-1 $204 0 $204 6.283185307179586232 $118 $205 forward 7 unknown #
loop $-1 $206 $207 $73 #
cone-surface $-1 6.69035968622467081 92.63286028067489042 40.04219434153552726 0.6560590369687036016 0 -0.754709573287431712 0.9433869666092896678 0 0.8200737962108795021 1 I I -0.7071067811865474617 0.7071067811865474617 1.25 forward I I I I #
coedge $-1 $123 $123 $77 $125 forward $74 $-1 #
coedge $-1 $124 $124 $207 $208 forward $76 $-1 #
edge $-1 $209 0 $209 6.283185307179586232 $123 $210 forward 7 unknown #
face $-1 $211 $212 $21 $-1 $213 reversed single #
loop $-1 $-1 $214 $78 #
plane-surface $-1 138.0867455338669743 81.46239304343706067 242.5197945951336749 0 1 0 0.6819983681709311796 0 0.7313536940579346002 forward_v I I I I #
coedge $-1 $215 $216 $217 $218 forward $79 $-1 #
coedge $-1 $219 $81 $220 $221 forward $48 $-1 #
coedge $-1 $81 $219 $222 $223 forward $48 $-1 #
coedge $-1 $224 $225 $81 $133 reversed $226 $-1 #
edge $-1 $227 -8.495201342787169096 $228 8.495201342787169096 $132 $229 forward 7 unknown #
loop $-1 $230 $231 $82 #
cone-surface $-1 137.790289691608848 86.31679381074401647 39.30772922020008764 -0.6819983681709311796 0 -0.7313536940579346002 0.7313536940579346002 0 -0.6819983681709311796 1 I I -0.7071067811865474617 0.7071067811865474617 1 forward I I I I #
coedge $-1 $136 $136 $86 $138 forward $83 $-1 #
coedge $-1 $137 $137 $231 $232 forward $85 $-1 #
edge $-1 $233 0 $233 6.283185307179586232 $136 $234 forward 7 unknown #
loop $-1 $235 $236 $87 #
cone-surface $-1 137.790289691608848 93.59839496170444306 39.30772922020008764 -0.6819983681709311796 0 -0.7313536940579346002 0.7313536940579346002 0 -0.6819983681709311796 1 I I -0.7071067811865474617 0.7071067811865474617 1 forward I I I I #
coedge $-1 $141 $141 $91 $143 forward $88 $-1 #
coedge $-1 $142 $142 $236 $237 forward $90 $-1 #
edge $-1 $238 0 $238 6.283185307179586232 $141 $239 forward 7 unknown #
face $-1 $240 $241 $16 $-1 $242 reversed single #
loop $-1 $-1 $243 $92 #
plane-surface $-1 0 49.22639786450569943 23.30483167555562218 1 0 0 0 0 -1 forward_v I I I I #
coedge $-1 $244 $155 $245 $246 forward $93 $-1 #
coedge $-1 $247 $95 $244 $248 forward $57 $-1 #
coedge $-1 $95 $247 $249 $250 forward $57 $-1 #
coedge $-1 $158 $157 $95 $151 reversed $159 $-1 #
edge $-1 $251 -49.22639786450569943 $252 49.22639786450569943 $150 $253 forward 7 unknown #
coedge $-1 $97 $96 $254 $255 forward $33 $-1 #
coedge $-1 $256 $257 $96 $154 reversed $241 $-1 #
edge $-1 $161 -72.6279488509781288 $258 72.6279488509781288 $153 $259 forward 7 unknown #
coedge $-1 $147 $260 $97 $156 reversed $93 $-1 #
edge $-1 $261 -72.6279488509781288 $160 72.6279488509781288 $155 $262 forward 7 unknown #
coedge $-1 $150 $98 $260 $263 forward $159 $-1 #
coedge $-1 $98 $150 $256 $264 reversed $159 $-1 #
loop $-1 $-1 $157 $240 #
vertex $-1 $99 $265 #
vertex $-1 $99 $266 #
straight-curve $-1 145.2558977019562576 49.22639786450569943 46.60966335111124437 0 1 0 I I #
face $-1 $267 $268 $17 $-1 $269 reversed single #
loop $-1 $-1 $270 $100 #
plane-surface $-1 37.69867863896071469 9.210547139392183169 23.30483167555562218 1 0 0 0 0 -1 forward_v I I I I #
coedge $-1 $271 $174 $272 $273 forward $101 $-1 #
coedge $-1 $274 $103 $271 $275 forward $61 $-1 #
coedge $-1 $103 $274 $276 $277 forward $61 $-1 #
coedge $-1 $177 $176 $103 $170 reversed $178 $-1 #
edge $-1 $278 -9.210547139392183169 $279 9.210547139392183169 $169 $280 forward 7 unknown #
coedge $-1 $105 $104 $281 $282 forward $36 $-1 #
coedge $-1 $283 $284 $104 $173 reversed $268 $-1 #
edge $-1 $180 -4.45549235607526839 $285 4.45549235607526839 $172 $286 forward 7 unknown #
coedge $-1 $166 $287 $105 $175 reversed $101 $-1 #
edge $-1 $288 -4.45549235607526839 $179 4.45549235607526839 $174 $289 forward 7 unknown #
coedge $-1 $169 $106 $287 $290 forward $178 $-1 #
coedge $-1 $106 $169 $283 $291 reversed $178 $-1 #
loop $-1 $-1 $176 $267 #
vertex $-1 $107 $292 #
vertex $-1 $107 $293 #
straight-curve $-1 46.60966335111125147 9.210547139392183169 46.60966335111124437 0 1 0 I I #
face $-1 $294 $295 $18 $-1 $296 reversed single #
loop $-1 $-1 $297 $108 #
plane-surface $-1 -314.5484775046224399 88.26790869442251619 -41.3398484403990949 0.754709573287431712 0 0.6560590369687036016 0.6560590369687036016 0 -0.754709573287431712 forward_v I I I I #
coedge $-1 $298 $193 $299 $300 forward $109 $-1 #
coedge $-1 $301 $111 $298 $302 forward $65 $-1 #
coedge $-1 $111 $301 $303 $304 forward $65 $-1 #
coedge $-1 $196 $195 $111 $189 reversed $197 $-1 #
edge $-1 $305 -10.18488703458888267 $306 10.18488703458888267 $188 $307 forward 7 unknown #
coedge $-1 $113 $112 $308 $309 forward $39 $-1 #
coedge $-1 $310 $311 $112 $192 reversed $295 $-1 #
edge $-1 $199 -290.5117954039125152 $312 290.5117954039125152 $191 $313 forward 7 unknown #
coedge $-1 $185 $314 $113 $194 reversed $109 $-1 #
edge $-1 $315 -290.5117954039125152 $198 290.5117954039125152 $193 $316 forward 7 unknown #
coedge $-1 $188 $114 $314 $317 forward $197 $-1 #
coedge $-1 $114 $188 $310 $318 reversed $197 $-1 #
loop $-1 $-1 $195 $294 #
vertex $-1 $115 $319 #
vertex $-1 $115 $320 #
straight-curve $-1 28.6591444235126005 88.26790869442251619 449.4719455732068809 0 1 0 I I #
loop $-1 $-1 $321 $68 #
coedge $-1 $202 $202 $119 $203 reversed $116 $-1 #
edge $-1 $322 0 $322 6.283185307179586232 $202 $323 forward 7 unknown #
vertex $-1 $120 $324 #
ellipse-curve $-1 4.016303936349752135 83.90295710817012775 43.1183435296629014 -0.6560590369687036016 0 0.754709573287431712 1.886773933218579336 0 1.640147592421759004 1 I I #
loop $-1 $-1 $325 $73 #
coedge $-1 $207 $207 $124 $208 reversed $121 $-1 #
edge $-1 $326 0 $326 6.283185307179586232 $207 $327 forward 7 unknown #
vertex $-1 $125 $328 #
ellipse-curve $-1 4.016303936349752135 92.63286028067489042 43.1183435296629014 -0.6560590369687036016 0 0.754709573287431712 1.886773933218579336 0 1.640147592421759004 1 I I #
face $-1 $329 $330 $21 $-1 $331 reversed single #
loop $-1 $-1 $332 $126 #
plane-surface $-1 -74.38012920218736213 89.95759438622422977 440.6483649950094446 0.7313536940579346002 0 -0.6819983681709311796 -0.6819983681709311796 0 -0.7313536940579346002 forward_v I I I I #
coedge $-1 $333 $222 $334 $335 forward $127 $-1 #
coedge $-1 $336 $129 $333 $337 forward $79 $-1 #
coedge $-1 $129 $336 $338 $339 forward $79 $-1 #
coedge $-1 $225 $224 $129 $218 reversed $226 $-1 #
edge $-1 $340 -8.495201342787169096 $341 8.495201342787169096 $217 $342 forward 7 unknown #
coedge $-1 $131 $130 $343 $344 forward $48 $-1 #
coedge $-1 $345 $346 $130 $221 reversed $330 $-1 #
edge $-1 $228 -290.5117954039125152 $347 290.5117954039125721 $220 $348 forward 7 unknown #
coedge $-1 $214 $349 $131 $223 reversed $127 $-1 #
edge $-1 $350 -290.5117954039125721 $227 290.5117954039125152 $222 $351 forward 7 unknown #
coedge $-1 $217 $132 $349 $352 forward $226 $-1 #
coedge $-1 $132 $217 $345 $353 reversed $226 $-1 #
loop $-1 $-1 $224 $329 #
vertex $-1 $133 $354 #
vertex $-1 $133 $355 #
straight-curve $-1 449.6179054698591813 89.95759438622422977 150.6246615632850876 0 1 0 I I #
loop $-1 $-1 $356 $82 #
coedge $-1 $231 $231 $137 $232 reversed $134 $-1 #
edge $-1 $357 0 $357 6.283185307179586232 $231 $358 forward 7 unknown #
vertex $-1 $138 $359 #
ellipse-curve $-1 140.2224182146923681 86.31679381074401647 41.91586768913992955 0.6819983681709311796 0 0.7313536940579346002 1.4627073881158692 0 -1.363996736341862359 1 I I #
loop $-1 $-1 $360 $87 #
coedge $-1 $236 $236 $142 $237 reversed $139 $-1 #
edge $-1 $361 0 $361 6.283185307179586232 $236 $362 forward 7 unknown #
vertex $-1 $143 $363 #
ellipse-curve $-1 140.2224182146923681 93.59839496170444306 41.91586768913992955 0.6819983681709311796 0 0.7313536940579346002 1.4627073881158692 0 -1.363996736341862359 1 I I #
face $-1 $-1 $159 $16 $-1 $364 reversed single #
loop $-1 $-1 $256 $144 #
plane-surface $-1 72.6279488509781288 98.45279572901139886 23.30483167555562218 0 -1 0 0 0 -1 forward_v I I I I #
coedge $-1 $365 $254 $257 $366 forward $145 $-1 #
coedge $-1 $260 $147 $148 $248 reversed $93 $-1 #
coedge $-1 $254 $365 $147 $246 reversed $145 $-1 #
edge $-1 $261 -23.30483167555562218 $367 23.30483167555562218 $245 $368 forward 7 unknown #
coedge $-1 $149 $148 $365 $369 forward $57 $-1 #
edge $-1 $252 -72.6279488509781288 $367 72.6279488509781288 $244 $370 forward 7 unknown #
coedge $-1 $257 $256 $149 $250 reversed $241 $-1 #
edge $-1 $371 -72.6279488509781288 $251 72.6279488509781288 $249 $372 forward 7 unknown #
vertex $-1 $151 $373 #
vertex $-1 $263 $374 #
straight-curve $-1 145.2558977019562576 49.22639786450569943 0 0 -1 0 I I #
coedge $-1 $243 $245 $152 $255 reversed $145 $-1 #
edge $-1 $258 -49.22639786450569943 $261 49.22639786450569943 $254 $375 forward 7 unknown #
coedge $-1 $249 $153 $158 $264 forward $241 $-1 #
coedge $-1 $153 $249 $243 $366 reversed $241 $-1 #
vertex $-1 $154 $376 #
straight-curve $-1 72.6279488509781288 98.45279572901139886 46.60966335111124437 -1 0 0 I I #
coedge $-1 $155 $244 $157 $263 reversed $93 $-1 #
vertex $-1 $255 $377 #
straight-curve $-1 72.6279488509781288 0 46.60966335111124437 1 0 0 I I #
edge $-1 $160 -23.30483167555562218 $252 23.30483167555562218 $157 $378 forward 7 unknown #
edge $-1 $161 -23.30483167555562218 $251 23.30483167555562218 $158 $379 forward 7 unknown #
point $-1 145.2558977019562576 0 46.60966335111124437 #
point $-1 145.2558977019562576 98.45279572901139886 46.60966335111124437 #
face $-1 $-1 $178 $17 $-1 $380 reversed single #
loop $-1 $-1 $283 $163 #
plane-surface $-1 42.15417099503598308 18.42109427878436634 23.30483167555562218 0 -1 0 0 0 -1 forward_v I I I I #
coedge $-1 $381 $281 $284 $382 forward $164 $-1 #
coedge $-1 $287 $166 $167 $275 reversed $101 $-1 #
coedge $-1 $281 $381 $166 $273 reversed $164 $-1 #
edge $-1 $288 -23.30483167555562218 $383 23.30483167555562218 $272 $384 forward 7 unknown #
coedge $-1 $168 $167 $381 $385 forward $61 $-1 #
edge $-1 $279 -4.45549235607526839 $383 4.45549235607526839 $271 $386 forward 7 unknown #
coedge $-1 $284 $283 $168 $277 reversed $268 $-1 #
edge $-1 $387 -4.45549235607526839 $278 4.45549235607526839 $276 $388 forward 7 unknown #
vertex $-1 $170 $389 #
vertex $-1 $290 $390 #
straight-curve $-1 46.60966335111125147 9.210547139392183169 0 0 -1 0 I I #
coedge $-1 $270 $272 $171 $282 reversed $164 $-1 #
edge $-1 $285 -9.210547139392183169 $288 9.210547139392183169 $281 $391 forward 7 unknown #
coedge $-1 $276 $172 $177 $291 forward $268 $-1 #
coedge $-1 $172 $276 $270 $382 reversed $268 $-1 #
vertex $-1 $173 $392 #
straight-curve $-1 42.15417099503598308 18.42109427878436634 46.60966335111124437 -1 0 0 I I #
coedge $-1 $174 $271 $176 $290 reversed $101 $-1 #
vertex $-1 $282 $393 #
straight-curve $-1 42.15417099503598308 0 46.60966335111124437 1 0 0 I I #
edge $-1 $179 -23.30483167555562218 $279 23.30483167555562218 $176 $394 forward 7 unknown #
edge $-1 $180 -23.30483167555562218 $278 23.30483167555562218 $177 $395 forward 7 unknown #
point $-1 46.60966335111125147 0 46.60966335111124437 #
point $-1 46.60966335111125147 18.42109427878436634 46.60966335111124437 #
face $-1 $-1 $197 $18 $-1 $396 reversed single #
loop $-1 $-1 $310 $182 #
plane-surface $-1 -95.29644436036994648 98.45279572901139886 149.2530402803407981 0 -1 0 0.6560590369687036016 0 -0.754709573287431712 forward_v I I I I #
coedge $-1 $397 $308 $311 $398 forward $183 $-1 #
coedge $-1 $314 $185 $186 $302 reversed $109 $-1 #
coedge $-1 $308 $397 $185 $300 reversed $183 $-1 #
edge $-1 $315 -145.2558977019562576 $399 145.2558977019562576 $299 $400 forward 7 unknown #
coedge $-1 $187 $186 $397 $401 forward $65 $-1 #
edge $-1 $306 -290.5117954039125152 $399 290.5117954039125152 $298 $402 forward 7 unknown #
coedge $-1 $311 $310 $187 $304 reversed $295 $-1 #
edge $-1 $403 -290.5117954039125152 $305 290.5117954039125152 $303 $404 forward 7 unknown #
vertex $-1 $189 $405 #
vertex $-1 $317 $406 #
straight-curve $-1 219.2520331442524935 88.26790869442251619 230.2199124289544443 0 -1 0 I I #
coedge $-1 $297 $299 $190 $309 reversed $183 $-1 #
edge $-1 $312 -10.18488703458888267 $315 10.18488703458888267 $308 $407 forward 7 unknown #
coedge $-1 $303 $191 $196 $318 forward $295 $-1 #
coedge $-1 $191 $303 $297 $398 reversed $295 $-1 #
vertex $-1 $192 $408 #
straight-curve $-1 -190.592888720739893 98.45279572901139886 258.8790568524670448 -0.754709573287431712 0 -0.6560590369687036016 I I #
coedge $-1 $193 $298 $195 $317 reversed $109 $-1 #
vertex $-1 $309 $409 #
straight-curve $-1 -190.592888720739893 78.08302165983363352 258.8790568524670448 0.754709573287431712 0 0.6560590369687036016 I I #
edge $-1 $198 -145.2558977019562576 $306 145.2558977019562576 $195 $410 forward 7 unknown #
edge $-1 $199 -145.2558977019562576 $305 145.2558977019562576 $196 $411 forward 7 unknown #
point $-1 28.6591444235126005 78.08302165983363352 449.4719455732068809 #
point $-1 28.6591444235126005 98.45279572901139886 449.4719455732068809 #
coedge $-1 $321 $321 $-1 $412 reversed $201 $-1 #
vertex $-1 $203 $413 #
ellipse-curve $-1 5.87028589001379153 83.90295710817012775 40.98558130814481615 -0.6560590369687036016 0 0.754709573287431712 1.886773933218579336 0 1.640147592421759004 1 I I #
point $-1 5.903077869568331693 83.90295710817012775 44.75849112208465641 #
coedge $-1 $325 $325 $-1 $414 reversed $206 $-1 #
vertex $-1 $208 $415 #
ellipse-curve $-1 5.87028589001379153 92.63286028067489042 40.98558130814481615 -0.6560590369687036016 0 0.754709573287431712 1.886773933218579336 0 1.640147592421759004 1 I I #
point $-1 5.903077869568331693 92.63286028067489042 44.75849112208465641 #
face $-1 $-1 $226 $21 $-1 $416 reversed single #
loop $-1 $-1 $345 $211 #
plane-surface $-1 138.0867455338669743 98.45279572901139886 242.5197945951336749 0 -1 0 -0.6819983681709311796 0 -0.7313536940579346002 forward_v I I I I #
coedge $-1 $417 $343 $346 $418 forward $212 $-1 #
coedge $-1 $349 $214 $215 $337 reversed $127 $-1 #
coedge $-1 $343 $417 $214 $335 reversed $212 $-1 #
edge $-1 $350 -145.255897701956286 $419 145.2558977019562576 $334 $420 forward 7 unknown #
coedge $-1 $216 $215 $417 $421 forward $79 $-1 #
edge $-1 $341 -290.5117954039125721 $419 290.5117954039125152 $333 $422 forward 7 unknown #
coedge $-1 $346 $345 $216 $339 reversed $330 $-1 #
edge $-1 $423 -290.5117954039125152 $340 290.5117954039125721 $338 $424 forward 7 unknown #
vertex $-1 $218 $425 #
vertex $-1 $352 $426 #
straight-curve $-1 251.48933506998344 89.95759438622422977 -61.84221317276924879 0 -1 0 I I #
coedge $-1 $332 $334 $219 $344 reversed $212 $-1 #
edge $-1 $347 -8.495201342787169096 $350 8.495201342787169096 $343 $427 forward 7 unknown #
coedge $-1 $338 $220 $225 $353 forward $330 $-1 #
coedge $-1 $220 $338 $332 $418 reversed $330 $-1 #
vertex $-1 $221 $428 #
straight-curve $-1 237.1510307338048733 98.45279572901139886 348.7532319631608289 -0.7313536940579346002 0 0.6819983681709311796 I I #
coedge $-1 $222 $333 $224 $352 reversed $127 $-1 #
vertex $-1 $344 $429 #
straight-curve $-1 237.1510307338048733 81.46239304343706067 348.7532319631608289 0.7313536940579346002 0 -0.6819983681709311796 I I #
edge $-1 $227 -145.2558977019562576 $341 145.2558977019562576 $224 $430 forward 7 unknown #
edge $-1 $228 -145.2558977019562576 $340 145.2558977019562576 $225 $431 forward 7 unknown #
point $-1 449.6179054698591813 81.46239304343706067 150.6246615632850876 #
point $-1 449.6179054698591813 98.45279572901139886 150.6246615632850876 #
coedge $-1 $356 $356 $-1 $432 reversed $230 $-1 #
vertex $-1 $232 $433 #
ellipse-curve $-1 138.4722880597797712 86.31679381074401647 40.03908291425802446 0.6819983681709311796 0 0.7313536940579346002 1.4627073881158692 0 -1.363996736341862359 1 I I #
point $-1 141.6851256028082275 86.31679381074401647 40.55187095279806897 #
coedge $-1 $360 $360 $-1 $434 reversed $235 $-1 #
vertex $-1 $237 $435 #
ellipse-curve $-1 138.4722880597797712 93.59839496170444306 40.03908291425802446 0.6819983681709311796 0 0.7313536940579346002 1.4627073881158692 0 -1.363996736341862359 1 I I #
point $-1 141.6851256028082275 93.59839496170444306 40.55187095279806897 #
plane-surface $-1 145.2558977019562576 49.22639786450569943 23.30483167555562218 -1 0 0 0 0 1 forward_v I I I I #
coedge $-1 $245 $243 $247 $369 reversed $145 $-1 #
edge $-1 $258 -23.30483167555562218 $371 23.30483167555562218 $257 $436 forward 7 unknown #
vertex $-1 $369 $437 #
straight-curve $-1 0 0 23.30483167555562218 0 0 -1 I I #
edge $-1 $367 -49.22639786450569943 $371 49.22639786450569943 $365 $438 forward 7 unknown #
straight-curve $-1 72.6279488509781288 0 0 -1 0 0 I I #
vertex $-1 $250 $439 #
straight-curve $-1 72.6279488509781288 98.45279572901139886 0 1 0 0 I I #
point $-1 145.2558977019562576 98.45279572901139886 0 #
point $-1 145.2558977019562576 0 0 #
straight-curve $-1 0 49.22639786450569943 46.60966335111124437 0 -1 0 I I #
point $-1 0 98.45279572901139886 46.60966335111124437 #
point $-1 0 0 46.60966335111124437 #
straight-curve $-1 145.2558977019562576 0 23.30483167555562218 0 0 -1 I I #
straight-curve $-1 145.2558977019562576 98.45279572901139886 23.30483167555562218 0 0 -1 I I #
plane-surface $-1 46.60966335111125147 9.210547139392183169 23.30483167555562218 -1 0 0 0 0 1 forward_v I I I I #
coedge $-1 $272 $270 $274 $385 reversed $164 $-1 #
edge $-1 $285 -23.30483167555562218 $387 23.30483167555562218 $284 $440 forward 7 unknown #
vertex $-1 $385 $441 #
straight-curve $-1 37.69867863896071469 0 23.30483167555562218 0 0 -1 I I #
edge $-1 $383 -9.210547139392183169 $387 9.210547139392183169 $381 $442 forward 7 unknown #
straight-curve $-1 42.15417099503598308 0 0 -1 0 0 I I #
vertex $-1 $277 $443 #
straight-curve $-1 42.15417099503598308 18.42109427878436634 0 1 0 0 I I #
point $-1 46.60966335111125147 18.42109427878436634 0 #
point $-1 46.60966335111125147 0 0 #
straight-curve $-1 37.69867863896071469 9.210547139392183169 46.60966335111124437 0 -1 0 I I #
point $-1 37.69867863896071469 18.42109427878436634 46.60966335111124437 #
point $-1 37.69867863896071469 0 46.60966335111124437 #
straight-curve $-1 46.60966335111125147 0 23.30483167555562218 0 0 -1 I I #
straight-curve $-1 46.60966335111125147 18.42109427878436634 23.30483167555562218 0 0 -1 I I #
plane-surface $-1 123.955588783882547 88.26790869442251619 339.8459290010806626 -0.754709573287431712 0 -0.6560590369687036016 -0.6560590369687036016 0 0.754709573287431712 forward_v I I I I #
coedge $-1 $299 $297 $301 $401 reversed $183 $-1 #
edge $-1 $312 -145.2558977019562576 $403 145.2558977019562576 $311 $444 forward 7 unknown #
vertex $-1 $401 $445 #
straight-curve $-1 -314.5484775046224399 78.08302165983363352 -41.3398484403990949 0.6560590369687036016 0 -0.754709573287431712 I I #
edge $-1 $399 -10.18488703458888267 $403 10.18488703458888267 $397 $446 forward 7 unknown #
straight-curve $-1 0 78.08302165983363352 39.62702370821455133 -0.754709573287431712 0 -0.6560590369687036016 I I #
vertex $-1 $304 $447 #
straight-curve $-1 0 98.45279572901139886 39.62702370821455133 0.754709573287431712 0 0.6560590369687036016 I I #
point $-1 219.2520331442524935 98.45279572901139886 230.2199124289544443 #
point $-1 219.2520331442524935 78.08302165983363352 230.2199124289544443 #
straight-curve $-1 -409.8449218649923864 88.26790869442251619 68.28616813172715183 0 -1 0 I I #
point $-1 -409.8449218649923864 98.45279572901139886 68.28616813172715183 #
point $-1 -409.8449218649923864 78.08302165983363352 68.28616813172715183 #
straight-curve $-1 123.955588783882547 78.08302165983363352 339.8459290010806626 0.6560590369687036016 0 -0.754709573287431712 I I #
straight-curve $-1 123.955588783882547 98.45279572901139886 339.8459290010806626 0.6560590369687036016 0 -0.754709573287431712 I I #
edge $-1 $448 1 $448 0 $321 $-1 forward 7 unknown #
point $-1 7.757059823232371087 83.90295710817012775 42.62572890056657826 #
edge $-1 $449 1 $449 0 $325 $-1 forward 7 unknown #
point $-1 7.757059823232371087 92.63286028067489042 42.62572890056657826 #
plane-surface $-1 350.5536202699213391 89.95759438622422977 44.39122419525790519 -0.7313536940579346002 0 0.6819983681709311796 0.6819983681709311796 0 0.7313536940579346002 forward_v I I I I #
coedge $-1 $334 $332 $336 $421 reversed $212 $-1 #
edge $-1 $347 -145.255897701956286 $423 145.2558977019562576 $346 $450 forward 7 unknown #
vertex $-1 $421 $451 #
straight-curve $-1 -74.38012920218736213 81.46239304343706067 440.6483649950094446 -0.6819983681709311796 0 -0.7313536940579346002 I I #
edge $-1 $419 -8.495201342787169096 $423 8.495201342787169096 $417 $452 forward 7 unknown #
straight-curve $-1 39.02246033392908942 81.46239304343706067 136.2863572271065209 -0.7313536940579346002 0 0.6819983681709311796 I I #
vertex $-1 $339 $453 #
straight-curve $-1 39.02246033392908942 98.45279572901139886 136.2863572271065209 0.7313536940579346002 0 -0.6819983681709311796 I I #
point $-1 251.48933506998344 98.45279572901139886 -61.84221317276924879 #
point $-1 251.48933506998344 81.46239304343706067 -61.84221317276924879 #
straight-curve $-1 24.68415599775052272 89.95759438622422977 546.881802363036627 0 -1 0 I I #
point $-1 24.68415599775052272 98.45279572901139886 546.881802363036627 #
point $-1 24.68415599775052272 81.46239304343706067 546.881802363036627 #
straight-curve $-1 350.5536202699213391 81.46239304343706067 44.39122419525790519 -0.6819983681709311796 0 -0.7313536940579346002 I I #
straight-curve $-1 350.5536202699213391 98.45279572901139886 44.39122419525790519 -0.6819983681709311796 0 -0.7313536940579346002 I I #
edge $-1 $454 1 $454 0 $356 $-1 forward 7 unknown #
point $-1 139.934995447895659 86.31679381074401647 38.67508617791615677 #
edge $-1 $455 1 $455 0 $360 $-1 forward 7 unknown #
point $-1 139.934995447895659 93.59839496170444306 38.67508617791615677 #
straight-curve $-1 0 98.45279572901139886 23.30483167555562218 0 0 -1 I I #
point $-1 0 0 0 #
straight-curve $-1 0 49.22639786450569943 0 0 1 0 I I #
point $-1 0 98.45279572901139886 0 #
straight-curve $-1 37.69867863896071469 18.42109427878436634 23.30483167555562218 0 0 -1 I I #
point $-1 37.69867863896071469 0 0 #
straight-curve $-1 37.69867863896071469 9.210547139392183169 0 0 1 0 I I #
point $-1 37.69867863896071469 18.42109427878436634 0 #
straight-curve $-1 -314.5484775046224399 98.45279572901139886 -41.3398484403990949 0.6560590369687036016 0 -0.754709573287431712 I I #
point $-1 -219.2520331442524935 78.08302165983363352 -150.9658650125253132 #
straight-curve $-1 -219.2520331442524935 88.26790869442251619 -150.9658650125253132 0 1 0 I I #
point $-1 -219.2520331442524935 98.45279572901139886 -150.9658650125253132 #
vertex $-1 $412 $456 #
vertex $-1 $414 $457 #
straight-curve $-1 -74.38012920218736213 98.45279572901139886 440.6483649950094446 -0.6819983681709311796 0 -0.7313536940579346002 I I #
point $-1 -173.4444144021252328 81.46239304343706067 334.4149276269822622 #
straight-curve $-1 -173.4444144021252328 89.95759438622422977 334.4149276269822622 0 1 0 I I #
point $-1 -173.4444144021252328 98.45279572901139886 334.4149276269822622 #
vertex $-1 $432 $458 #
vertex $-1 $434 $459 #
point $-1 7.51043348243555009 83.90295710817012775 39.09880737492623837 #
point $-1 7.51043348243555009 92.63286028067489042 39.09880737492623837 #
point $-1 137.1082913234379248 86.31679381074401647 38.57637552614215082 #
point $-1 137.1082913234379248 93.59839496170444306 38.57637552614215082 #
End-of-ACIS-data 