600 0 5 0           
94 GICL ACIS Healer - Source: /gicl/data5/repository/Drexel/SM99-DATA/part111.smdg.feat.sat - 6 0 18 ACIS 6.0.3 Solaris 24 Sat Apr 13 20:44:04 2002 
1 9.999999999999999547e-07 1.000000000000000036e-10 
body $-1 $5 $-1 $-1 #
body $-1 $6 $-1 $-1 #
body $-1 $7 $-1 $-1 #
body $-1 $8 $-1 $-1 #
body $-1 $9 $-1 $-1 #
lump $-1 $-1 $10 $0 #
lump $-1 $-1 $11 $1 #
lump $-1 $-1 $12 $2 #
lump $-1 $-1 $13 $3 #
lump $-1 $-1 $14 $4 #
shell $-1 $-1 $-1 $15 $-1 $5 #
shell $-1 $-1 $-1 $16 $-1 $6 #
shell $-1 $-1 $-1 $17 $-1 $7 #
shell $-1 $-1 $-1 $18 $-1 $8 #
shell $-1 $-1 $-1 $19 $-1 $9 #
face $-1 $20 $21 $10 $-1 $22 forward single #
face $-1 $23 $24 $11 $-1 $25 forward single #
face $-1 $26 $27 $12 $-1 $28 forward single #
face $-1 $29 $30 $13 $-1 $31 forward single #
face $-1 $32 $33 $14 $-1 $34 forward single #
face $-1 $35 $36 $10 $-1 $37 reversed single #
loop $-1 $-1 $38 $15 #
plane-surface $-1 79.3115024262215087 53.36286624468802131 29.33027805617942718 0 0 1 1 0 0 forward_v I I I I #
face $-1 $39 $40 $11 $-1 $41 reversed single #
loop $-1 $-1 $42 $16 #
plane-surface $-1 104.4902589149733387 -172.7845628518602155 281.0625351762357127 0 -0.5446390421508873203 0.8386705633113421543 1 0 0 forward_v I I I I #
face $-1 $43 $44 $12 $-1 $45 forward single #
loop $-1 $46 $47 $17 #
cone-surface $-1 95.84787810889035597 12.44034682128080505 20.00016255085605721 0 0.5446390421508873203 -0.8386705633113421543 1.5 0 0 1 I I 0 1 1.5 forward I I I I #
face $-1 $48 $49 $13 $-1 $50 forward single #
loop $-1 $51 $52 $18 #
cone-surface $-1 104.4902589149733387 12.44034682128080505 20.00016255085605721 0 0.5446390421508873203 -0.8386705633113421543 1.5 0 0 1 I I 0 1 1.5 forward I I I I #
face $-1 $53 $54 $14 $-1 $55 forward single #
loop $-1 $56 $57 $19 #
cone-surface $-1 113.1326397210563215 12.44034682128080505 20.00016255085605721 0 0.5446390421508873203 -0.8386705633113421543 1.5 0 0 1 I I 0 1 1.5 forward I I I I #
face $-1 $58 $59 $10 $-1 $60 reversed single #
loop $-1 $-1 $61 $20 #
plane-surface $-1 79.3115024262215087 53.36286624468802131 0 0 0 1 1 0 0 forward_v I I I I #
coedge $-1 $62 $63 $64 $65 forward $21 $-1 #
face $-1 $66 $67 $11 $-1 $68 reversed single #
loop $-1 $-1 $69 $23 #
plane-surface $-1 104.4902589149733387 2.842170943040400743e-14 14.99764550876341218 0 -0.5446390421508873203 0.8386705633113421543 1 0 0 forward_v I I I I #
coedge $-1 $70 $71 $72 $73 forward $24 $-1 #
face $-1 $-1 $74 $12 $-1 $75 forward single #
loop $-1 $-1 $76 $26 #
plane-surface $-1 95.84787810889035597 11.03515914393970121 22.16396178247142856 0 -0.5446390421508873203 0.8386705633113421543 -1 0 -0 forward_v I I I I #
loop $-1 $-1 $77 $17 #
coedge $-1 $47 $47 $76 $78 reversed $27 $-1 #
face $-1 $-1 $79 $13 $-1 $80 forward single #
loop $-1 $-1 $81 $29 #
plane-surface $-1 104.4902589149733387 11.03515914393970121 22.16396178247142856 0 -0.5446390421508873203 0.8386705633113421543 -1 0 -0 forward_v I I I I #
loop $-1 $-1 $82 $18 #
coedge $-1 $52 $52 $81 $83 reversed $30 $-1 #
face $-1 $-1 $84 $14 $-1 $85 forward single #
loop $-1 $-1 $86 $32 #
plane-surface $-1 113.1326397210563215 11.03515914393970121 22.16396178247142856 0 -0.5446390421508873203 0.8386705633113421543 -1 0 -0 forward_v I I I I #
loop $-1 $-1 $87 $19 #
coedge $-1 $57 $57 $86 $88 reversed $33 $-1 #
face $-1 $89 $90 $10 $-1 $91 reversed single #
loop $-1 $-1 $92 $35 #
plane-surface $-1 79.3115024262215087 0 14.66513902808971359 0 1 0 0 0 1 forward_v I I I I #
coedge $-1 $93 $94 $95 $96 forward $36 $-1 #
coedge $-1 $97 $38 $98 $99 forward $21 $-1 #
coedge $-1 $38 $97 $100 $101 forward $21 $-1 #
coedge $-1 $102 $103 $38 $65 reversed $104 $-1 #
edge $-1 $105 -53.36286624468802131 $106 53.36286624468802131 $64 $107 forward 7 unknown #
face $-1 $108 $109 $11 $-1 $110 reversed single #
loop $-1 $-1 $111 $39 #
plane-surface $-1 104.4902589149733387 -352.457171093402394 -24.75447250936068144 0 0.8386705633113421543 0.5446390421508873203 0 -0.5446390421508873203 0.8386705633113421543 forward_v I I I I #
coedge $-1 $112 $113 $114 $115 forward $40 $-1 #
coedge $-1 $116 $42 $117 $118 forward $24 $-1 #
coedge $-1 $42 $116 $119 $120 forward $24 $-1 #
coedge $-1 $121 $122 $42 $73 reversed $123 $-1 #
edge $-1 $124 -317.246009704885978 $125 317.2460097048860348 $72 $126 forward 7 unknown #
loop $-1 $127 $128 $43 #
cone-surface $-1 95.84787810889035597 14.25401378023507704 17.20736039675718132 0 0.5446390421508873203 -0.8386705633113421543 0.75 0 0 1 I I -0.7071067811865475727 0.7071067811865475727 0.75 forward I I I I #
coedge $-1 $76 $76 $47 $78 forward $44 $-1 #
coedge $-1 $77 $77 $128 $129 forward $46 $-1 #
edge $-1 $130 0 $130 6.283185307179586232 $76 $131 forward 7 unknown #
loop $-1 $132 $133 $48 #
cone-surface $-1 104.4902589149733387 14.25401378023507704 17.20736039675718132 0 0.5446390421508873203 -0.8386705633113421543 0.75 0 0 1 I I -0.7071067811865475727 0.7071067811865475727 0.75 forward I I I I #
coedge $-1 $81 $81 $52 $83 forward $49 $-1 #
coedge $-1 $82 $82 $133 $134 forward $51 $-1 #
edge $-1 $135 0 $135 6.283185307179586232 $81 $136 forward 7 unknown #
loop $-1 $137 $138 $53 #
cone-surface $-1 113.1326397210563215 14.25401378023507704 17.20736039675718132 0 0.5446390421508873203 -0.8386705633113421543 0.75 0 0 1 I I -0.7071067811865475727 0.7071067811865475727 0.75 forward I I I I #
coedge $-1 $86 $86 $57 $88 forward $54 $-1 #
coedge $-1 $87 $87 $138 $139 forward $56 $-1 #
edge $-1 $140 0 $140 6.283185307179586232 $86 $141 forward 7 unknown #
face $-1 $142 $143 $10 $-1 $144 reversed single #
loop $-1 $-1 $145 $58 #
plane-surface $-1 0 53.36286624468802131 14.66513902808971359 1 0 0 0 0 -1 forward_v I I I I #
coedge $-1 $146 $100 $147 $148 forward $59 $-1 #
coedge $-1 $149 $61 $146 $150 forward $36 $-1 #
coedge $-1 $61 $149 $151 $152 forward $36 $-1 #
coedge $-1 $103 $102 $61 $96 reversed $104 $-1 #
edge $-1 $153 -53.36286624468802131 $154 53.36286624468802131 $95 $155 forward 7 unknown #
coedge $-1 $63 $62 $156 $157 forward $21 $-1 #
coedge $-1 $158 $159 $62 $99 reversed $143 $-1 #
edge $-1 $106 -79.3115024262215087 $160 79.3115024262215087 $98 $161 forward 7 unknown #
coedge $-1 $92 $162 $63 $101 reversed $59 $-1 #
edge $-1 $163 -79.3115024262215087 $105 79.3115024262215087 $100 $164 forward 7 unknown #
coedge $-1 $95 $64 $162 $165 forward $104 $-1 #
coedge $-1 $64 $95 $158 $166 reversed $104 $-1 #
loop $-1 $-1 $102 $142 #
vertex $-1 $65 $167 #
vertex $-1 $65 $168 #
straight-curve $-1 158.6230048524430174 53.36286624468802131 29.33027805617942718 0 1 0 I I #
face $-1 $169 $170 $11 $-1 $171 reversed single #
loop $-1 $-1 $172 $66 #
plane-surface $-1 90.08629090483503887 -86.39228142593009352 148.0300903424995624 1 0 0 0 0.5446390421508873203 -0.8386705633113421543 forward_v I I I I #
coedge $-1 $173 $119 $174 $175 forward $67 $-1 #
coedge $-1 $176 $69 $173 $177 forward $40 $-1 #
coedge $-1 $69 $176 $178 $179 forward $40 $-1 #
coedge $-1 $122 $121 $69 $115 reversed $123 $-1 #
edge $-1 $180 -317.246009704885978 $181 317.246009704885978 $114 $182 forward 7 unknown #
coedge $-1 $71 $70 $183 $184 forward $24 $-1 #
coedge $-1 $185 $186 $70 $118 reversed $170 $-1 #
edge $-1 $125 -14.40396801013829986 $187 14.40396801013829986 $117 $188 forward 7 unknown #
coedge $-1 $111 $189 $71 $120 reversed $67 $-1 #
edge $-1 $190 -14.40396801013829986 $124 14.40396801013829986 $119 $191 forward 7 unknown #
coedge $-1 $114 $72 $189 $192 forward $123 $-1 #
coedge $-1 $72 $114 $185 $193 reversed $123 $-1 #
loop $-1 $-1 $121 $169 #
vertex $-1 $73 $194 #
vertex $-1 $73 $195 #
straight-curve $-1 118.8942269251116386 -172.7845628518602155 281.0625351762357127 0 0.8386705633113421543 0.5446390421508873203 I I #
loop $-1 $-1 $196 $43 #
coedge $-1 $128 $128 $77 $129 reversed $74 $-1 #
edge $-1 $197 0 $197 6.283185307179586232 $128 $198 forward 7 unknown #
vertex $-1 $78 $199 #
ellipse-curve $-1 95.84787810889035597 11.03515914393970121 22.16396178247142856 0 -0.5446390421508873203 0.8386705633113421543 1.5 0 0 1 I I #
loop $-1 $-1 $200 $48 #
coedge $-1 $133 $133 $82 $134 reversed $79 $-1 #
edge $-1 $201 0 $201 6.283185307179586232 $133 $202 forward 7 unknown #
vertex $-1 $83 $203 #
ellipse-curve $-1 104.4902589149733387 11.03515914393970121 22.16396178247142856 0 -0.5446390421508873203 0.8386705633113421543 1.5 0 0 1 I I #
loop $-1 $-1 $204 $53 #
coedge $-1 $138 $138 $87 $139 reversed $84 $-1 #
edge $-1 $205 0 $205 6.283185307179586232 $138 $206 forward 7 unknown #
vertex $-1 $88 $207 #
ellipse-curve $-1 113.1326397210563215 11.03515914393970121 22.16396178247142856 0 -0.5446390421508873203 0.8386705633113421543 1.5 0 0 1 I I #
face $-1 $-1 $104 $10 $-1 $208 reversed single #
loop $-1 $-1 $158 $89 #
plane-surface $-1 79.3115024262215087 106.7257324893760426 14.66513902808971359 0 -1 0 0 0 -1 forward_v I I I I #
coedge $-1 $209 $156 $159 $210 forward $90 $-1 #
coedge $-1 $162 $92 $93 $150 reversed $59 $-1 #
coedge $-1 $156 $209 $92 $148 reversed $90 $-1 #
edge $-1 $163 -14.66513902808971359 $211 14.66513902808971359 $147 $212 forward 7 unknown #
coedge $-1 $94 $93 $209 $213 forward $36 $-1 #
edge $-1 $154 -79.3115024262215087 $211 79.3115024262215087 $146 $214 forward 7 unknown #
coedge $-1 $159 $158 $94 $152 reversed $143 $-1 #
edge $-1 $215 -79.3115024262215087 $153 79.3115024262215087 $151 $216 forward 7 unknown #
vertex $-1 $96 $217 #
vertex $-1 $165 $218 #
straight-curve $-1 158.6230048524430174 53.36286624468802131 0 0 -1 0 I I #
coedge $-1 $145 $147 $97 $157 reversed $90 $-1 #
edge $-1 $160 -53.36286624468802131 $163 53.36286624468802131 $156 $219 forward 7 unknown #
coedge $-1 $151 $98 $103 $166 forward $143 $-1 #
coedge $-1 $98 $151 $145 $210 reversed $143 $-1 #
vertex $-1 $99 $220 #
straight-curve $-1 79.3115024262215087 106.7257324893760426 29.33027805617942718 -1 0 0 I I #
coedge $-1 $100 $146 $102 $165 reversed $59 $-1 #
vertex $-1 $157 $221 #
straight-curve $-1 79.3115024262215087 0 29.33027805617942718 1 0 0 I I #
edge $-1 $105 -14.66513902808971359 $154 14.66513902808971359 $102 $222 forward 7 unknown #
edge $-1 $106 -14.66513902808971359 $153 14.66513902808971359 $103 $223 forward 7 unknown #
point $-1 158.6230048524430174 0 29.33027805617942718 #
point $-1 158.6230048524430174 106.7257324893760426 29.33027805617942718 #
face $-1 $-1 $123 $11 $-1 $224 reversed single #
loop $-1 $-1 $185 $108 #
plane-surface $-1 104.4902589149733387 179.672608241542207 320.8146531943598347 0 -0.8386705633113421543 -0.5446390421508873203 0 0.5446390421508873203 -0.8386705633113421543 forward_v I I I I #
coedge $-1 $225 $183 $186 $226 forward $109 $-1 #
coedge $-1 $189 $111 $112 $177 reversed $67 $-1 #
coedge $-1 $183 $225 $111 $175 reversed $109 $-1 #
edge $-1 $190 -158.623004852442989 $227 158.6230048524430742 $174 $228 forward 7 unknown #
coedge $-1 $113 $112 $225 $229 forward $40 $-1 #
edge $-1 $181 -14.40396801013829986 $227 14.40396801013829986 $173 $230 forward 7 unknown #
coedge $-1 $186 $185 $113 $179 reversed $170 $-1 #
edge $-1 $231 -14.40396801013829986 $180 14.40396801013829986 $178 $232 forward 7 unknown #
vertex $-1 $115 $233 #
vertex $-1 $192 $234 #
straight-curve $-1 118.8942269251116386 2.842170943040400743e-14 14.99764550876341218 0 -0.8386705633113421543 -0.5446390421508873203 I I #
coedge $-1 $172 $174 $116 $184 reversed $109 $-1 #
edge $-1 $187 -317.2460097048860348 $190 317.246009704885978 $183 $235 forward 7 unknown #
coedge $-1 $178 $117 $122 $193 forward $170 $-1 #
coedge $-1 $117 $178 $172 $226 reversed $170 $-1 #
vertex $-1 $118 $236 #
straight-curve $-1 104.4902589149733387 93.28032681561208506 453.8470980280959566 -1 0 0 I I #
coedge $-1 $119 $173 $121 $192 reversed $67 $-1 #
vertex $-1 $184 $237 #
straight-curve $-1 104.4902589149733387 -438.8494525193324876 108.2779723243754688 1 0 0 I I #
edge $-1 $124 -158.623004852442989 $181 158.6230048524430742 $121 $238 forward 7 unknown #
edge $-1 $125 -158.623004852442989 $180 158.6230048524430458 $122 $239 forward 7 unknown #
point $-1 118.8942269251116386 -438.8494525193324876 108.2779723243754688 #
point $-1 118.8942269251116386 93.28032681561208506 453.8470980280959566 #
coedge $-1 $196 $196 $-1 $240 reversed $127 $-1 #
vertex $-1 $129 $241 #
ellipse-curve $-1 95.84787810889035597 13.84553449862191243 17.83636331924068941 0 -0.5446390421508873203 0.8386705633113421543 1.5 0 0 1 I I #
point $-1 97.34787810889035597 11.03515914393970121 22.16396178247142856 #
coedge $-1 $200 $200 $-1 $242 reversed $132 $-1 #
vertex $-1 $134 $243 #
ellipse-curve $-1 104.4902589149733387 13.84553449862191243 17.83636331924068941 0 -0.5446390421508873203 0.8386705633113421543 1.5 0 0 1 I I #
point $-1 105.9902589149733387 11.03515914393970121 22.16396178247142856 #
coedge $-1 $204 $204 $-1 $244 reversed $137 $-1 #
vertex $-1 $139 $245 #
ellipse-curve $-1 113.1326397210563215 13.84553449862191243 17.83636331924068941 0 -0.5446390421508873203 0.8386705633113421543 1.5 0 0 1 I I #
point $-1 114.6326397210563215 11.03515914393970121 22.16396178247142856 #
plane-surface $-1 158.6230048524430174 53.36286624468802131 14.66513902808971359 -1 0 0 0 0 1 forward_v I I I I #
coedge $-1 $147 $145 $149 $213 reversed $90 $-1 #
edge $-1 $160 -14.66513902808971359 $215 14.66513902808971359 $159 $246 forward 7 unknown #
vertex $-1 $213 $247 #
straight-curve $-1 0 0 14.66513902808971359 0 0 -1 I I #
edge $-1 $211 -53.36286624468802131 $215 53.36286624468802131 $209 $248 forward 7 unknown #
straight-curve $-1 79.3115024262215087 0 0 -1 0 0 I I #
vertex $-1 $152 $249 #
straight-curve $-1 79.3115024262215087 106.7257324893760426 0 1 0 0 I I #
point $-1 158.6230048524430174 106.7257324893760426 0 #
point $-1 158.6230048524430174 0 0 #
straight-curve $-1 0 53.36286624468802131 29.33027805617942718 0 -1 0 I I #
point $-1 0 106.7257324893760426 29.33027805617942718 #
point $-1 0 0 29.33027805617942718 #
straight-curve $-1 158.6230048524430174 0 14.66513902808971359 0 0 -1 I I #
straight-curve $-1 158.6230048524430174 106.7257324893760426 14.66513902808971359 0 0 -1 I I #
plane-surface $-1 118.8942269251116386 -86.39228142593009352 148.0300903424995624 -1 0 0 0 -0.5446390421508873203 0.8386705633113421543 forward_v I I I I #
coedge $-1 $174 $172 $176 $229 reversed $109 $-1 #
edge $-1 $187 -158.623004852442989 $231 158.6230048524430458 $186 $250 forward 7 unknown #
vertex $-1 $229 $251 #
straight-curve $-1 90.08629090483503887 -352.457171093402394 -24.75447250936068144 0 0.5446390421508873203 -0.8386705633113421543 I I #
edge $-1 $227 -317.246009704885978 $231 317.246009704885978 $225 $252 forward 7 unknown #
straight-curve $-1 104.4902589149733387 -266.0648896674722437 -157.7869173430968601 -1 0 0 I I #
vertex $-1 $179 $253 #
straight-curve $-1 104.4902589149733387 266.0648896674723005 187.7822083606236561 1 0 0 I I #
point $-1 118.8942269251116386 266.0648896674723005 187.7822083606236561 #
point $-1 118.8942269251116386 -266.0648896674722437 -157.7869173430968601 #
straight-curve $-1 90.08629090483503887 -172.7845628518602155 281.0625351762357127 0 -0.8386705633113421543 -0.5446390421508873203 I I #
point $-1 90.08629090483503887 93.28032681561208506 453.8470980280959566 #
point $-1 90.08629090483503887 -438.8494525193324876 108.2779723243754688 #
straight-curve $-1 118.8942269251116386 -352.457171093402394 -24.75447250936068144 0 0.5446390421508873203 -0.8386705633113421543 I I #
straight-curve $-1 118.8942269251116386 179.672608241542207 320.8146531943598347 0 0.5446390421508873203 -0.8386705633113421543 I I #
edge $-1 $254 1 $254 0 $196 $-1 forward 7 unknown #
point $-1 97.34787810889035597 13.84553449862191243 17.83636331924068941 #
edge $-1 $255 1 $255 0 $200 $-1 forward 7 unknown #
point $-1 105.9902589149733387 13.84553449862191243 17.83636331924068941 #
edge $-1 $256 1 $256 0 $204 $-1 forward 7 unknown #
point $-1 114.6326397210563215 13.84553449862191243 17.83636331924068941 #
straight-curve $-1 0 106.7257324893760426 14.66513902808971359 0 0 -1 I I #
point $-1 0 0 0 #
straight-curve $-1 0 53.36286624468802131 0 0 1 0 I I #
point $-1 0 106.7257324893760426 0 #
straight-curve $-1 90.08629090483503887 179.672608241542207 320.8146531943598347 0 0.5446390421508873203 -0.8386705633113421543 I I #
point $-1 90.08629090483503887 -266.0648896674722437 -157.7869173430968601 #
straight-curve $-1 90.08629090483503887 2.842170943040400743e-14 14.99764550876341218 0 0.8386705633113421543 0.5446390421508873203 I I #
point $-1 90.08629090483503887 266.0648896674723005 187.7822083606236561 #
vertex $-1 $240 $257 #
vertex $-1 $242 $258 #
vertex $-1 $244 $259 #
point $-1 95.84787810889035597 14.66249306184824164 16.57835747427367323 #
point $-1 104.4902589149733387 14.66249306184824164 16.57835747427367323 #
point $-1 113.1326397210563215 14.66249306184824164 16.57835747427367323 #
End-of-ACIS-data 