300 0 5 0           
7 Unknown 11 ACIS 3.0 NT 24 Fri Oct 30 18:01:40 1998 
-1 9.9999999999999995e-007 1e-010 
body $5 $6 $-1 $7 #
body $8 $9 $-1 $10 #
body $11 $12 $-1 $13 #
body $14 $15 $-1 $16 #
body $17 $18 $-1 $19 #
display_attribute-st-attrib $-1 $20 $-1 $0 1 #
lump $-1 $-1 $21 $0 #
transform $-1 1 0 0 0 1 0 0 0 1 79.311502426221509 53.362866244688021 14.665139028089714 1 rotate no_reflect no_shear #
display_attribute-st-attrib $-1 $22 $-1 $1 1 #
lump $-1 $-1 $23 $1 #
transform $-1 1 0 0 0 0.83867056331134215 0.54463904215088732 0 -0.54463904215088732 0.83867056331134215 104.49025891497334 -86.392281425930094 148.03009034249956 1 rotate no_reflect no_shear #
display_attribute-st-attrib $-1 $24 $-1 $2 1 #
lump $-1 $-1 $25 $2 #
transform $-1 1 0 0 0 -0.83867056331134215 -0.54463904215088732 0 0.54463904215088732 -0.83867056331134215 95.847878108890356 14.254013780235077 17.207360396757181 1 rotate no_reflect no_shear #
display_attribute-st-attrib $-1 $26 $-1 $3 1 #
lump $-1 $-1 $27 $3 #
transform $-1 1 0 0 0 -0.83867056331134215 -0.54463904215088732 0 0.54463904215088732 -0.83867056331134215 104.49025891497334 14.254013780235077 17.207360396757181 1 rotate no_reflect no_shear #
display_attribute-st-attrib $-1 $28 $-1 $4 1 #
lump $-1 $-1 $29 $4 #
transform $-1 1 0 0 0 -0.83867056331134215 -0.54463904215088732 0 0.54463904215088732 -0.83867056331134215 113.13263972105632 14.254013780235077 17.207360396757181 1 rotate no_reflect no_shear #
id_attribute-st-attrib $-1 $-1 $5 $0 1661 #
shell $-1 $-1 $-1 $30 $-1 $6 #
id_attribute-st-attrib $-1 $-1 $8 $1 1672 #
shell $-1 $-1 $-1 $31 $-1 $9 #
id_attribute-st-attrib $-1 $-1 $11 $2 1679 #
shell $-1 $-1 $-1 $32 $-1 $12 #
id_attribute-st-attrib $-1 $-1 $14 $3 1687 #
shell $-1 $-1 $-1 $33 $-1 $15 #
id_attribute-st-attrib $-1 $-1 $17 $4 1696 #
shell $-1 $-1 $-1 $34 $-1 $18 #
face $-1 $35 $36 $21 $-1 $37 forward single #
face $-1 $38 $39 $23 $-1 $40 forward single #
face $-1 $41 $42 $25 $-1 $43 forward single #
face $-1 $44 $45 $27 $-1 $46 forward single #
face $-1 $47 $48 $29 $-1 $49 forward single #
face $-1 $50 $51 $21 $-1 $52 reversed single #
loop $-1 $-1 $53 $30 #
plane-surface $-1 0 0 14.665139028089714 0 0 1 1 0 0 forward_v I I I I #
face $-1 $54 $55 $23 $-1 $56 reversed single #
loop $-1 $-1 $57 $31 #
plane-surface $-1 0 0 158.62300485244302 0 0 1 1 0 0 forward_v I I I I #
face $-1 $58 $59 $25 $-1 $60 forward single #
loop $-1 $61 $62 $32 #
cone-surface $-1 0 0 -3.3300347911008021 0 0 1 1.5 0 0 1 I I 0 1 forward I I I I #
face $-1 $63 $64 $27 $-1 $65 forward single #
loop $-1 $66 $67 $33 #
cone-surface $-1 0 0 -3.3300347911008021 0 0 1 1.5 0 0 1 I I 0 1 forward I I I I #
face $-1 $68 $69 $29 $-1 $70 forward single #
loop $-1 $71 $72 $34 #
cone-surface $-1 0 0 -3.3300347911008021 0 0 1 1.5 0 0 1 I I 0 1 forward I I I I #
face $-1 $73 $74 $21 $-1 $75 reversed single #
loop $-1 $-1 $76 $35 #
plane-surface $-1 0 0 -14.665139028089714 0 0 1 1 0 0 forward_v I I I I #
coedge $-1 $77 $78 $79 $80 forward $36 $-1 #
face $-1 $81 $82 $23 $-1 $83 reversed single #
loop $-1 $-1 $84 $38 #
plane-surface $-1 0 0 -158.62300485244302 0 0 1 1 0 0 forward_v I I I I #
coedge $-1 $85 $86 $87 $88 forward $39 $-1 #
face $-1 $-1 $89 $25 $-1 $90 forward single #
loop $-1 $-1 $91 $41 #
plane-surface $-1 0 0 -5.9100695822016043 0 0 -1 -1 0 0 forward_v I I I I #
loop $-1 $-1 $92 $32 #
coedge $-1 $62 $62 $91 $93 reversed $42 $-1 #
face $-1 $-1 $94 $27 $-1 $95 forward single #
loop $-1 $-1 $96 $44 #
plane-surface $-1 0 0 -5.9100695822016043 0 0 -1 -1 0 0 forward_v I I I I #
loop $-1 $-1 $97 $33 #
coedge $-1 $67 $67 $96 $98 reversed $45 $-1 #
face $-1 $-1 $99 $29 $-1 $100 forward single #
loop $-1 $-1 $101 $47 #
plane-surface $-1 0 0 -5.9100695822016043 0 0 -1 -1 0 0 forward_v I I I I #
loop $-1 $-1 $102 $34 #
coedge $-1 $72 $72 $101 $103 reversed $48 $-1 #
face $-1 $104 $105 $21 $-1 $106 reversed single #
loop $-1 $-1 $107 $50 #
plane-surface $-1 0 -53.362866244688021 0 0 1 0 0 0 1 forward_v I I I I #
coedge $-1 $108 $109 $110 $111 forward $51 $-1 #
coedge $-1 $112 $53 $113 $114 forward $36 $-1 #
coedge $-1 $53 $112 $115 $116 forward $36 $-1 #
coedge $-1 $117 $118 $53 $80 reversed $119 $-1 #
edge $-1 $120 $121 $79 $122 forward #
face $-1 $123 $124 $23 $-1 $125 reversed single #
loop $-1 $-1 $126 $54 #
plane-surface $-1 0 -317.24600970488603 0 0 1 0 0 0 1 forward_v I I I I #
coedge $-1 $127 $128 $129 $130 forward $55 $-1 #
coedge $-1 $131 $57 $132 $133 forward $39 $-1 #
coedge $-1 $57 $131 $134 $135 forward $39 $-1 #
coedge $-1 $136 $137 $57 $88 reversed $138 $-1 #
edge $-1 $139 $140 $87 $141 forward #
loop $-1 $142 $143 $58 #
cone-surface $-1 0 0 0 0 0 1 0.75 0 0 1 I I -0.70710678118654757 0.70710678118654757 forward I I I I #
coedge $-1 $91 $91 $62 $93 forward $59 $-1 #
coedge $-1 $92 $92 $143 $144 forward $61 $-1 #
edge $-1 $145 $145 $91 $146 forward #
loop $-1 $147 $148 $63 #
cone-surface $-1 0 0 0 0 0 1 0.75 0 0 1 I I -0.70710678118654757 0.70710678118654757 forward I I I I #
coedge $-1 $96 $96 $67 $98 forward $64 $-1 #
coedge $-1 $97 $97 $148 $149 forward $66 $-1 #
edge $-1 $150 $150 $96 $151 forward #
loop $-1 $152 $153 $68 #
cone-surface $-1 0 0 0 0 0 1 0.75 0 0 1 I I -0.70710678118654757 0.70710678118654757 forward I I I I #
coedge $-1 $101 $101 $72 $103 forward $69 $-1 #
coedge $-1 $102 $102 $153 $154 forward $71 $-1 #
edge $-1 $155 $155 $101 $156 forward #
face $-1 $157 $158 $21 $-1 $159 reversed single #
loop $-1 $-1 $160 $73 #
plane-surface $-1 -79.311502426221509 0 0 1 0 0 0 0 -1 forward_v I I I I #
coedge $-1 $161 $115 $162 $163 forward $74 $-1 #
coedge $-1 $164 $76 $161 $165 forward $51 $-1 #
coedge $-1 $76 $164 $166 $167 forward $51 $-1 #
coedge $-1 $118 $117 $76 $111 reversed $119 $-1 #
edge $-1 $168 $169 $110 $170 forward #
coedge $-1 $78 $77 $171 $172 forward $36 $-1 #
coedge $-1 $173 $174 $77 $114 reversed $158 $-1 #
edge $-1 $121 $175 $113 $176 forward #
coedge $-1 $107 $177 $78 $116 reversed $74 $-1 #
edge $-1 $178 $120 $115 $179 forward #
coedge $-1 $110 $79 $177 $180 forward $119 $-1 #
coedge $-1 $79 $110 $173 $181 reversed $119 $-1 #
loop $-1 $-1 $117 $157 #
vertex $-1 $80 $182 #
vertex $-1 $80 $183 #
straight-curve $-1 79.311502426221509 0 14.665139028089714 0 1 0 I I #
face $-1 $184 $185 $23 $-1 $186 reversed single #
loop $-1 $-1 $187 $81 #
plane-surface $-1 -14.4039680101383 0 0 1 0 0 0 0 -1 forward_v I I I I #
coedge $-1 $188 $134 $189 $190 forward $82 $-1 #
coedge $-1 $191 $84 $188 $192 forward $55 $-1 #
coedge $-1 $84 $191 $193 $194 forward $55 $-1 #
coedge $-1 $137 $136 $84 $130 reversed $138 $-1 #
edge $-1 $195 $196 $129 $197 forward #
coedge $-1 $86 $85 $198 $199 forward $39 $-1 #
coedge $-1 $200 $201 $85 $133 reversed $185 $-1 #
edge $-1 $140 $202 $132 $203 forward #
coedge $-1 $126 $204 $86 $135 reversed $82 $-1 #
edge $-1 $205 $139 $134 $206 forward #
coedge $-1 $129 $87 $204 $207 forward $138 $-1 #
coedge $-1 $87 $129 $200 $208 reversed $138 $-1 #
loop $-1 $-1 $136 $184 #
vertex $-1 $88 $209 #
vertex $-1 $88 $210 #
straight-curve $-1 14.4039680101383 0 158.62300485244302 0 1 0 I I #
loop $-1 $-1 $211 $58 #
coedge $-1 $143 $143 $92 $144 reversed $89 $-1 #
edge $-1 $212 $212 $143 $213 forward #
vertex $-1 $93 $214 #
ellipse-curve $-1 0 0 -5.9100695822016043 0 0 -1 1.5 0 0 1 I I #
loop $-1 $-1 $215 $63 #
coedge $-1 $148 $148 $97 $149 reversed $94 $-1 #
edge $-1 $216 $216 $148 $217 forward #
vertex $-1 $98 $218 #
ellipse-curve $-1 0 0 -5.9100695822016043 0 0 -1 1.5 0 0 1 I I #
loop $-1 $-1 $219 $68 #
coedge $-1 $153 $153 $102 $154 reversed $99 $-1 #
edge $-1 $220 $220 $153 $221 forward #
vertex $-1 $103 $222 #
ellipse-curve $-1 0 0 -5.9100695822016043 0 0 -1 1.5 0 0 1 I I #
face $-1 $-1 $119 $21 $-1 $223 reversed single #
loop $-1 $-1 $173 $104 #
plane-surface $-1 0 53.362866244688021 0 0 -1 0 0 0 -1 forward_v I I I I #
coedge $-1 $224 $171 $174 $225 forward $105 $-1 #
coedge $-1 $177 $107 $108 $165 reversed $74 $-1 #
coedge $-1 $171 $224 $107 $163 reversed $105 $-1 #
edge $-1 $178 $226 $162 $227 forward #
coedge $-1 $109 $108 $224 $228 forward $51 $-1 #
edge $-1 $169 $226 $161 $229 forward #
coedge $-1 $174 $173 $109 $167 reversed $158 $-1 #
edge $-1 $230 $168 $166 $231 forward #
vertex $-1 $111 $232 #
vertex $-1 $180 $233 #
straight-curve $-1 79.311502426221509 0 -14.665139028089714 0 -1 0 I I #
coedge $-1 $160 $162 $112 $172 reversed $105 $-1 #
edge $-1 $175 $178 $171 $234 forward #
coedge $-1 $166 $113 $118 $181 forward $158 $-1 #
coedge $-1 $113 $166 $160 $225 reversed $158 $-1 #
vertex $-1 $114 $235 #
straight-curve $-1 0 53.362866244688021 14.665139028089714 -1 0 0 I I #
coedge $-1 $115 $161 $117 $180 reversed $74 $-1 #
vertex $-1 $172 $236 #
straight-curve $-1 0 -53.362866244688021 14.665139028089714 1 0 0 I I #
edge $-1 $120 $169 $117 $237 forward #
edge $-1 $121 $168 $118 $238 forward #
point $-1 79.311502426221509 -53.362866244688021 14.665139028089714 #
point $-1 79.311502426221509 53.362866244688021 14.665139028089714 #
face $-1 $-1 $138 $23 $-1 $239 reversed single #
loop $-1 $-1 $200 $123 #
plane-surface $-1 0 317.24600970488603 0 0 -1 0 0 0 -1 forward_v I I I I #
coedge $-1 $240 $198 $201 $241 forward $124 $-1 #
coedge $-1 $204 $126 $127 $192 reversed $82 $-1 #
coedge $-1 $198 $240 $126 $190 reversed $124 $-1 #
edge $-1 $205 $242 $189 $243 forward #
coedge $-1 $128 $127 $240 $244 forward $55 $-1 #
edge $-1 $196 $242 $188 $245 forward #
coedge $-1 $201 $200 $128 $194 reversed $185 $-1 #
edge $-1 $246 $195 $193 $247 forward #
vertex $-1 $130 $248 #
vertex $-1 $207 $249 #
straight-curve $-1 14.4039680101383 0 -158.62300485244302 0 -1 0 I I #
coedge $-1 $187 $189 $131 $199 reversed $124 $-1 #
edge $-1 $202 $205 $198 $250 forward #
coedge $-1 $193 $132 $137 $208 forward $185 $-1 #
coedge $-1 $132 $193 $187 $241 reversed $185 $-1 #
vertex $-1 $133 $251 #
straight-curve $-1 0 317.24600970488603 158.62300485244302 -1 0 0 I I #
coedge $-1 $134 $188 $136 $207 reversed $82 $-1 #
vertex $-1 $199 $252 #
straight-curve $-1 0 -317.24600970488603 158.62300485244302 1 0 0 I I #
edge $-1 $139 $196 $136 $253 forward #
edge $-1 $140 $195 $137 $254 forward #
point $-1 14.4039680101383 -317.24600970488603 158.62300485244302 #
point $-1 14.4039680101383 317.24600970488603 158.62300485244302 #
coedge $-1 $211 $211 $-1 $255 reversed $142 $-1 #
vertex $-1 $144 $256 #
ellipse-curve $-1 0 0 -0.75 0 0 -1 1.5 0 0 1 I I #
point $-1 1.5 0 -5.9100695822016043 #
coedge $-1 $215 $215 $-1 $257 reversed $147 $-1 #
vertex $-1 $149 $258 #
ellipse-curve $-1 0 0 -0.75 0 0 -1 1.5 0 0 1 I I #
point $-1 1.5 0 -5.9100695822016043 #
coedge $-1 $219 $219 $-1 $259 reversed $152 $-1 #
vertex $-1 $154 $260 #
ellipse-curve $-1 0 0 -0.75 0 0 -1 1.5 0 0 1 I I #
point $-1 1.5 0 -5.9100695822016043 #
plane-surface $-1 79.311502426221509 0 0 -1 0 0 0 0 1 forward_v I I I I #
coedge $-1 $162 $160 $164 $228 reversed $105 $-1 #
edge $-1 $175 $230 $174 $261 forward #
vertex $-1 $228 $262 #
straight-curve $-1 -79.311502426221509 -53.362866244688021 0 0 0 -1 I I #
edge $-1 $226 $230 $224 $263 forward #
straight-curve $-1 0 -53.362866244688021 -14.665139028089714 -1 0 0 I I #
vertex $-1 $167 $264 #
straight-curve $-1 0 53.362866244688021 -14.665139028089714 1 0 0 I I #
point $-1 79.311502426221509 53.362866244688021 -14.665139028089714 #
point $-1 79.311502426221509 -53.362866244688021 -14.665139028089714 #
straight-curve $-1 -79.311502426221509 0 14.665139028089714 0 -1 0 I I #
point $-1 -79.311502426221509 53.362866244688021 14.665139028089714 #
point $-1 -79.311502426221509 -53.362866244688021 14.665139028089714 #
straight-curve $-1 79.311502426221509 -53.362866244688021 0 0 0 -1 I I #
straight-curve $-1 79.311502426221509 53.362866244688021 0 0 0 -1 I I #
plane-surface $-1 14.4039680101383 0 0 -1 0 0 0 0 1 forward_v I I I I #
coedge $-1 $189 $187 $191 $244 reversed $124 $-1 #
edge $-1 $202 $246 $201 $265 forward #
vertex $-1 $244 $266 #
straight-curve $-1 -14.4039680101383 -317.24600970488603 0 0 0 -1 I I #
edge $-1 $242 $246 $240 $267 forward #
straight-curve $-1 0 -317.24600970488603 -158.62300485244302 -1 0 0 I I #
vertex $-1 $194 $268 #
straight-curve $-1 0 317.24600970488603 -158.62300485244302 1 0 0 I I #
point $-1 14.4039680101383 317.24600970488603 -158.62300485244302 #
point $-1 14.4039680101383 -317.24600970488603 -158.62300485244302 #
straight-curve $-1 -14.4039680101383 0 158.62300485244302 0 -1 0 I I #
point $-1 -14.4039680101383 317.24600970488603 158.62300485244302 #
point $-1 -14.4039680101383 -317.24600970488603 158.62300485244302 #
straight-curve $-1 14.4039680101383 -317.24600970488603 0 0 0 -1 I I #
straight-curve $-1 14.4039680101383 317.24600970488603 0 0 0 -1 I I #
edge $-1 $269 $269 $211 $-1 forward #
point $-1 1.5 0 -0.75 #
edge $-1 $270 $270 $215 $-1 forward #
point $-1 1.5 0 -0.75 #
edge $-1 $271 $271 $219 $-1 forward #
point $-1 1.5 0 -0.75 #
straight-curve $-1 -79.311502426221509 53.362866244688021 0 0 0 -1 I I #
point $-1 -79.311502426221509 -53.362866244688021 -14.665139028089714 #
straight-curve $-1 -79.311502426221509 0 -14.665139028089714 0 1 0 I I #
point $-1 -79.311502426221509 53.362866244688021 -14.665139028089714 #
straight-curve $-1 -14.4039680101383 317.24600970488603 0 0 0 -1 I I #
point $-1 -14.4039680101383 -317.24600970488603 -158.62300485244302 #
straight-curve $-1 -14.4039680101383 0 -158.62300485244302 0 1 0 I I #
point $-1 -14.4039680101383 317.24600970488603 -158.62300485244302 #
vertex $-1 $255 $272 #
vertex $-1 $257 $273 #
vertex $-1 $259 $274 #
point $-1 0 0 0.75 #
point $-1 0 0 0.75 #
point $-1 0 0 0.75 #
End-of-ACIS-data 