300 0 2 0           
7 Unknown 11 ACIS 3.0 NT 24 Fri Oct 30 14:25:17 1998 
-1 9.9999999999999995e-007 1e-010 
body $2 $3 $-1 $4 #
body $5 $6 $-1 $7 #
display_attribute-st-attrib $-1 $8 $-1 $0 1 #
lump $-1 $-1 $9 $0 #
transform $-1 1 0 0 0 1 0 0 0 1 40.187994018372144 22.57307633623266 10.530336321920993 1 rotate no_reflect no_shear #
display_attribute-st-attrib $-1 $10 $-1 $1 1 #
lump $-1 $-1 $11 $1 #
transform $-1 1 0 0 0 1 0 0 0 1 3.8139536758913155 22.57307633623266 2.5803774965544672 1 rotate no_reflect no_shear #
id_attribute-st-attrib $-1 $-1 $2 $0 1640 #
shell $-1 $-1 $-1 $12 $-1 $3 #
id_attribute-st-attrib $-1 $-1 $5 $1 1645 #
shell $-1 $-1 $-1 $13 $-1 $6 #
face $-1 $14 $15 $9 $-1 $16 forward single #
face $-1 $17 $18 $11 $-1 $19 forward single #
face $-1 $20 $21 $9 $-1 $22 reversed single #
loop $-1 $-1 $23 $12 #
plane-surface $-1 0 0 10.530336321920993 0 0 1 1 0 0 forward_v I I I I #
face $-1 $24 $25 $11 $-1 $26 reversed single #
loop $-1 $-1 $27 $13 #
plane-surface $-1 0 0 2.5803774965544672 0 0 1 1 0 0 forward_v I I I I #
face $-1 $28 $29 $9 $-1 $30 reversed single #
loop $-1 $-1 $31 $14 #
plane-surface $-1 0 0 -10.530336321920993 0 0 1 1 0 0 forward_v I I I I #
coedge $-1 $32 $33 $34 $35 forward $15 $-1 #
face $-1 $36 $37 $11 $-1 $38 reversed single #
loop $-1 $-1 $39 $17 #
plane-surface $-1 0 0 -2.5803774965544672 0 0 1 1 0 0 forward_v I I I I #
coedge $-1 $40 $41 $42 $43 forward $18 $-1 #
face $-1 $44 $45 $9 $-1 $46 reversed single #
loop $-1 $-1 $47 $20 #
plane-surface $-1 0 -22.57307633623266 0 0 1 0 0 0 1 forward_v I I I I #
coedge $-1 $48 $49 $50 $51 forward $21 $-1 #
coedge $-1 $52 $23 $53 $54 forward $15 $-1 #
coedge $-1 $23 $52 $55 $56 forward $15 $-1 #
coedge $-1 $57 $58 $23 $35 reversed $59 $-1 #
edge $-1 $60 $61 $34 $62 forward #
face $-1 $63 $64 $11 $-1 $65 reversed single #
loop $-1 $-1 $66 $24 #
plane-surface $-1 0 -22.57307633623266 0 0 1 0 0 0 1 forward_v I I I I #
coedge $-1 $67 $68 $69 $70 forward $25 $-1 #
coedge $-1 $71 $27 $72 $73 forward $18 $-1 #
coedge $-1 $27 $71 $74 $75 forward $18 $-1 #
coedge $-1 $76 $77 $27 $43 reversed $78 $-1 #
edge $-1 $79 $80 $42 $81 forward #
face $-1 $82 $83 $9 $-1 $84 reversed single #
loop $-1 $-1 $85 $28 #
plane-surface $-1 -40.187994018372144 0 0 1 0 0 0 0 -1 forward_v I I I I #
coedge $-1 $86 $55 $87 $88 forward $29 $-1 #
coedge $-1 $89 $31 $86 $90 forward $21 $-1 #
coedge $-1 $31 $89 $91 $92 forward $21 $-1 #
coedge $-1 $58 $57 $31 $51 reversed $59 $-1 #
edge $-1 $93 $94 $50 $95 forward #
coedge $-1 $33 $32 $96 $97 forward $15 $-1 #
coedge $-1 $98 $99 $32 $54 reversed $83 $-1 #
edge $-1 $61 $100 $53 $101 forward #
coedge $-1 $47 $102 $33 $56 reversed $29 $-1 #
edge $-1 $103 $60 $55 $104 forward #
coedge $-1 $50 $34 $102 $105 forward $59 $-1 #
coedge $-1 $34 $50 $98 $106 reversed $59 $-1 #
loop $-1 $-1 $57 $82 #
vertex $-1 $35 $107 #
vertex $-1 $35 $108 #
straight-curve $-1 40.187994018372144 0 10.530336321920993 0 1 0 I I #
face $-1 $109 $110 $11 $-1 $111 reversed single #
loop $-1 $-1 $112 $36 #
plane-surface $-1 -3.8139536758913155 0 0 1 0 0 0 0 -1 forward_v I I I I #
coedge $-1 $113 $74 $114 $115 forward $37 $-1 #
coedge $-1 $116 $39 $113 $117 forward $25 $-1 #
coedge $-1 $39 $116 $118 $119 forward $25 $-1 #
coedge $-1 $77 $76 $39 $70 reversed $78 $-1 #
edge $-1 $120 $121 $69 $122 forward #
coedge $-1 $41 $40 $123 $124 forward $18 $-1 #
coedge $-1 $125 $126 $40 $73 reversed $110 $-1 #
edge $-1 $80 $127 $72 $128 forward #
coedge $-1 $66 $129 $41 $75 reversed $37 $-1 #
edge $-1 $130 $79 $74 $131 forward #
coedge $-1 $69 $42 $129 $132 forward $78 $-1 #
coedge $-1 $42 $69 $125 $133 reversed $78 $-1 #
loop $-1 $-1 $76 $109 #
vertex $-1 $43 $134 #
vertex $-1 $43 $135 #
straight-curve $-1 3.8139536758913155 0 2.5803774965544672 0 1 0 I I #
face $-1 $-1 $59 $9 $-1 $136 reversed single #
loop $-1 $-1 $98 $44 #
plane-surface $-1 0 22.57307633623266 0 0 -1 0 0 0 -1 forward_v I I I I #
coedge $-1 $137 $96 $99 $138 forward $45 $-1 #
coedge $-1 $102 $47 $48 $90 reversed $29 $-1 #
coedge $-1 $96 $137 $47 $88 reversed $45 $-1 #
edge $-1 $103 $139 $87 $140 forward #
coedge $-1 $49 $48 $137 $141 forward $21 $-1 #
edge $-1 $94 $139 $86 $142 forward #
coedge $-1 $99 $98 $49 $92 reversed $83 $-1 #
edge $-1 $143 $93 $91 $144 forward #
vertex $-1 $51 $145 #
vertex $-1 $105 $146 #
straight-curve $-1 40.187994018372144 0 -10.530336321920993 0 -1 0 I I #
coedge $-1 $85 $87 $52 $97 reversed $45 $-1 #
edge $-1 $100 $103 $96 $147 forward #
coedge $-1 $91 $53 $58 $106 forward $83 $-1 #
coedge $-1 $53 $91 $85 $138 reversed $83 $-1 #
vertex $-1 $54 $148 #
straight-curve $-1 0 22.57307633623266 10.530336321920993 -1 0 0 I I #
coedge $-1 $55 $86 $57 $105 reversed $29 $-1 #
vertex $-1 $97 $149 #
straight-curve $-1 0 -22.57307633623266 10.530336321920993 1 0 0 I I #
edge $-1 $60 $94 $57 $150 forward #
edge $-1 $61 $93 $58 $151 forward #
point $-1 40.187994018372144 -22.57307633623266 10.530336321920993 #
point $-1 40.187994018372144 22.57307633623266 10.530336321920993 #
face $-1 $-1 $78 $11 $-1 $152 reversed single #
loop $-1 $-1 $125 $63 #
plane-surface $-1 0 22.57307633623266 0 0 -1 0 0 0 -1 forward_v I I I I #
coedge $-1 $153 $123 $126 $154 forward $64 $-1 #
coedge $-1 $129 $66 $67 $117 reversed $37 $-1 #
coedge $-1 $123 $153 $66 $115 reversed $64 $-1 #
edge $-1 $130 $155 $114 $156 forward #
coedge $-1 $68 $67 $153 $157 forward $25 $-1 #
edge $-1 $121 $155 $113 $158 forward #
coedge $-1 $126 $125 $68 $119 reversed $110 $-1 #
edge $-1 $159 $120 $118 $160 forward #
vertex $-1 $70 $161 #
vertex $-1 $132 $162 #
straight-curve $-1 3.8139536758913155 0 -2.5803774965544672 0 -1 0 I I #
coedge $-1 $112 $114 $71 $124 reversed $64 $-1 #
edge $-1 $127 $130 $123 $163 forward #
coedge $-1 $118 $72 $77 $133 forward $110 $-1 #
coedge $-1 $72 $118 $112 $154 reversed $110 $-1 #
vertex $-1 $73 $164 #
straight-curve $-1 0 22.57307633623266 2.5803774965544672 -1 0 0 I I #
coedge $-1 $74 $113 $76 $132 reversed $37 $-1 #
vertex $-1 $124 $165 #
straight-curve $-1 0 -22.57307633623266 2.5803774965544672 1 0 0 I I #
edge $-1 $79 $121 $76 $166 forward #
edge $-1 $80 $120 $77 $167 forward #
point $-1 3.8139536758913155 -22.57307633623266 2.5803774965544672 #
point $-1 3.8139536758913155 22.57307633623266 2.5803774965544672 #
plane-surface $-1 40.187994018372144 0 0 -1 0 0 0 0 1 forward_v I I I I #
coedge $-1 $87 $85 $89 $141 reversed $45 $-1 #
edge $-1 $100 $143 $99 $168 forward #
vertex $-1 $141 $169 #
straight-curve $-1 -40.187994018372144 -22.57307633623266 0 0 0 -1 I I #
edge $-1 $139 $143 $137 $170 forward #
straight-curve $-1 0 -22.57307633623266 -10.530336321920993 -1 0 0 I I #
vertex $-1 $92 $171 #
straight-curve $-1 0 22.57307633623266 -10.530336321920993 1 0 0 I I #
point $-1 40.187994018372144 22.57307633623266 -10.530336321920993 #
point $-1 40.187994018372144 -22.57307633623266 -10.530336321920993 #
straight-curve $-1 -40.187994018372144 0 10.530336321920993 0 -1 0 I I #
point $-1 -40.187994018372144 22.57307633623266 10.530336321920993 #
point $-1 -40.187994018372144 -22.57307633623266 10.530336321920993 #
straight-curve $-1 40.187994018372144 -22.57307633623266 0 0 0 -1 I I #
straight-curve $-1 40.187994018372144 22.57307633623266 0 0 0 -1 I I #
plane-surface $-1 3.8139536758913155 0 0 -1 0 0 0 0 1 forward_v I I I I #
coedge $-1 $114 $112 $116 $157 reversed $64 $-1 #
edge $-1 $127 $159 $126 $172 forward #
vertex $-1 $157 $173 #
straight-curve $-1 -3.8139536758913155 -22.57307633623266 0 0 0 -1 I I #
edge $-1 $155 $159 $153 $174 forward #
straight-curve $-1 0 -22.57307633623266 -2.5803774965544672 -1 0 0 I I #
vertex $-1 $119 $175 #
straight-curve $-1 0 22.57307633623266 -2.5803774965544672 1 0 0 I I #
point $-1 3.8139536758913155 22.57307633623266 -2.5803774965544672 #
point $-1 3.8139536758913155 -22.57307633623266 -2.5803774965544672 #
straight-curve $-1 -3.8139536758913155 0 2.5803774965544672 0 -1 0 I I #
point $-1 -3.8139536758913155 22.57307633623266 2.5803774965544672 #
point $-1 -3.8139536758913155 -22.57307633623266 2.5803774965544672 #
straight-curve $-1 3.8139536758913155 -22.57307633623266 0 0 0 -1 I I #
straight-curve $-1 3.8139536758913155 22.57307633623266 0 0 0 -1 I I #
straight-curve $-1 -40.187994018372144 22.57307633623266 0 0 0 -1 I I #
point $-1 -40.187994018372144 -22.57307633623266 -10.530336321920993 #
straight-curve $-1 -40.187994018372144 0 -10.530336321920993 0 1 0 I I #
point $-1 -40.187994018372144 22.57307633623266 -10.530336321920993 #
straight-curve $-1 -3.8139536758913155 22.57307633623266 0 0 0 -1 I I #
point $-1 -3.8139536758913155 -22.57307633623266 -2.5803774965544672 #
straight-curve $-1 -3.8139536758913155 0 -2.5803774965544672 0 1 0 I I #
point $-1 -3.8139536758913155 22.57307633623266 -2.5803774965544672 #
End-of-ACIS-data 