300 0 14 0           
7 Unknown 11 ACIS 3.0 NT 24 Fri Oct 30 14:55:46 1998 
-1 9.9999999999999995e-007 1e-010 
body $14 $15 $-1 $16 #
body $17 $18 $-1 $19 #
body $20 $21 $-1 $22 #
body $23 $24 $-1 $25 #
body $26 $27 $-1 $28 #
body $29 $30 $-1 $31 #
body $32 $33 $-1 $34 #
body $35 $36 $-1 $37 #
body $38 $39 $-1 $40 #
body $41 $42 $-1 $43 #
body $44 $45 $-1 $46 #
body $47 $48 $-1 $49 #
body $50 $51 $-1 $52 #
body $53 $54 $-1 $55 #
display_attribute-st-attrib $-1 $56 $-1 $0 1 #
lump $-1 $-1 $57 $0 #
transform $-1 1 0 0 0 1 0 0 0 1 65.491500595110935 26.874760159670437 10.744080802747728 1 rotate no_reflect no_shear #
display_attribute-st-attrib $-1 $58 $-1 $1 3 #
lump $-1 $-1 $59 $1 #
transform $-1 1 0 0 0 1 0 0 0 1 65.491500595110935 26.874760159670437 10.744080802747728 1 rotate no_reflect no_shear #
display_attribute-st-attrib $-1 $60 $-1 $2 3 #
lump $-1 $-1 $61 $2 #
transform $-1 1 0 0 0 1 0 0 0 1 65.491500595110935 26.874760159670437 10.744080802747728 1 rotate no_reflect no_shear #
display_attribute-st-attrib $-1 $62 $-1 $3 3 #
lump $-1 $-1 $63 $3 #
transform $-1 1 0 0 0 1 0 0 0 1 65.491500595110935 26.874760159670437 10.744080802747728 1 rotate no_reflect no_shear #
display_attribute-st-attrib $-1 $64 $-1 $4 3 #
lump $-1 $-1 $65 $4 #
transform $-1 1 0 0 0 1 0 0 0 1 65.491500595110935 26.874760159670437 10.744080802747728 1 rotate no_reflect no_shear #
display_attribute-st-attrib $-1 $66 $-1 $5 3 #
lump $-1 $-1 $67 $5 #
transform $-1 1 0 0 0 1 0 0 0 1 65.491500595110935 26.874760159670437 10.744080802747728 1 rotate no_reflect no_shear #
display_attribute-st-attrib $-1 $68 $-1 $6 3 #
lump $-1 $-1 $69 $6 #
transform $-1 1 0 0 0 1 0 0 0 1 65.491500595110935 26.874760159670437 10.744080802747728 1 rotate no_reflect no_shear #
display_attribute-st-attrib $-1 $70 $-1 $7 3 #
lump $-1 $-1 $71 $7 #
transform $-1 1 0 0 0 1 0 0 0 1 65.491500595110935 26.874760159670437 10.744080802747728 1 rotate no_reflect no_shear #
display_attribute-st-attrib $-1 $72 $-1 $8 3 #
lump $-1 $-1 $73 $8 #
transform $-1 1 0 0 0 1 0 0 0 1 65.491500595110935 26.874760159670437 10.744080802747728 1 rotate no_reflect no_shear #
display_attribute-st-attrib $-1 $74 $-1 $9 3 #
lump $-1 $-1 $75 $9 #
transform $-1 1 0 0 0 1 0 0 0 1 65.491500595110935 26.874760159670437 10.744080802747728 1 rotate no_reflect no_shear #
display_attribute-st-attrib $-1 $76 $-1 $10 3 #
lump $-1 $-1 $77 $10 #
transform $-1 1 0 0 0 1 0 0 0 1 65.491500595110935 26.874760159670437 10.744080802747728 1 rotate no_reflect no_shear #
display_attribute-st-attrib $-1 $78 $-1 $11 3 #
lump $-1 $-1 $79 $11 #
transform $-1 1 0 0 0 1 0 0 0 1 65.491500595110935 26.874760159670437 10.744080802747728 1 rotate no_reflect no_shear #
display_attribute-st-attrib $-1 $80 $-1 $12 3 #
lump $-1 $-1 $81 $12 #
transform $-1 1 0 0 0 1 0 0 0 1 65.491500595110935 26.874760159670437 10.744080802747728 1 rotate no_reflect no_shear #
display_attribute-st-attrib $-1 $82 $-1 $13 3 #
lump $-1 $-1 $83 $13 #
transform $-1 1 0 0 0 1 0 0 0 1 65.491500595110935 26.874760159670437 10.744080802747728 1 rotate no_reflect no_shear #
id_attribute-st-attrib $-1 $-1 $14 $0 2272 #
shell $-1 $-1 $-1 $84 $-1 $15 #
id_attribute-st-attrib $-1 $-1 $17 $1 2277 #
shell $-1 $-1 $-1 $85 $-1 $18 #
id_attribute-st-attrib $-1 $-1 $20 $2 2291 #
shell $-1 $-1 $-1 $86 $-1 $21 #
id_attribute-st-attrib $-1 $-1 $23 $3 2299 #
shell $-1 $-1 $-1 $87 $-1 $24 #
id_attribute-st-attrib $-1 $-1 $26 $4 2308 #
shell $-1 $-1 $-1 $88 $-1 $27 #
id_attribute-st-attrib $-1 $-1 $29 $5 2318 #
shell $-1 $-1 $-1 $89 $-1 $30 #
id_attribute-st-attrib $-1 $-1 $32 $6 2334 #
shell $-1 $-1 $-1 $90 $-1 $33 #
id_attribute-st-attrib $-1 $-1 $35 $7 2346 #
shell $-1 $-1 $-1 $91 $-1 $36 #
id_attribute-st-attrib $-1 $-1 $38 $8 2361 #
shell $-1 $-1 $-1 $92 $-1 $39 #
id_attribute-st-attrib $-1 $-1 $41 $9 2375 #
shell $-1 $-1 $-1 $93 $-1 $42 #
id_attribute-st-attrib $-1 $-1 $44 $10 2392 #
shell $-1 $-1 $-1 $94 $-1 $45 #
id_attribute-st-attrib $-1 $-1 $47 $11 2408 #
shell $-1 $-1 $-1 $95 $-1 $48 #
id_attribute-st-attrib $-1 $-1 $50 $12 2425 #
shell $-1 $-1 $-1 $96 $-1 $51 #
id_attribute-st-attrib $-1 $-1 $53 $13 2443 #
shell $-1 $-1 $-1 $97 $-1 $54 #
face $-1 $98 $99 $57 $-1 $100 forward single #
face $-1 $101 $102 $59 $-1 $103 reversed single #
face $-1 $104 $105 $61 $-1 $106 reversed single #
face $-1 $107 $108 $63 $-1 $109 forward single #
face $-1 $110 $111 $65 $-1 $112 forward single #
face $-1 $113 $114 $67 $-1 $115 forward single #
face $-1 $116 $117 $69 $-1 $118 reversed single #
face $-1 $119 $120 $71 $-1 $121 forward single #
face $-1 $122 $123 $73 $-1 $124 reversed single #
face $-1 $125 $126 $75 $-1 $127 forward single #
face $-1 $128 $129 $77 $-1 $130 reversed single #
face $-1 $131 $132 $79 $-1 $133 forward single #
face $-1 $134 $135 $81 $-1 $136 reversed single #
face $-1 $137 $138 $83 $-1 $139 forward single #
face $-1 $140 $141 $57 $-1 $142 reversed single #
loop $-1 $-1 $143 $84 #
plane-surface $-1 0 0 10.744080802747728 0 0 1 1 0 0 forward_v I I I I #
face $-1 $144 $145 $59 $-1 $146 reversed single #
loop $-1 $-1 $147 $85 #
plane-surface $-1 -47.003338989615479 -22.043307657618026 0 1 0 0 0 0 -1 forward_v I I I I #
face $-1 $148 $149 $61 $-1 $150 reversed single #
loop $-1 $-1 $151 $86 #
plane-surface $-1 -147.92177514860583 -4.1536305347492668 109.06573278845802 0 1 0 -0.62932039886446345 0 0.77714595512881146 forward_v I I I I #
face $-1 $152 $153 $63 $-1 $154 forward single #
loop $-1 $155 $156 $87 #
cone-surface $-1 -62.519682183674682 -1.5941301279799482 7.985345422648586 0.62932039886446345 0 -0.77714595512881146 0.77714595512881146 0 0.62932039886446345 1 I I 0 1 forward I I I I #
face $-1 $157 $158 $65 $-1 $159 forward single #
loop $-1 $160 $161 $88 #
cone-surface $-1 -62.519682183674682 2.2451204821740269 7.985345422648586 0.62932039886446345 0 -0.77714595512881146 0.77714595512881146 0 0.62932039886446345 1 I I 0 1 forward I I I I #
face $-1 $162 $163 $67 $-1 $164 forward single #
loop $-1 $165 $166 $89 #
cone-surface $-1 -62.519682183674682 6.0843710923279986 7.985345422648586 0.62932039886446345 0 -0.77714595512881146 0.77714595512881146 0 0.62932039886446345 1 I I 0 1 forward I I I I #
face $-1 $167 $168 $69 $-1 $169 reversed single #
loop $-1 $-1 $170 $90 #
plane-surface $-1 39.71136427580025 -6.1902013267566049 185.67191507384914 0 -1 0 -0.6018150307709319 0 -0.79863550430605224 forward_v I I I I #
face $-1 $171 $172 $71 $-1 $173 forward single #
loop $-1 $174 $175 $91 #
cone-surface $-1 59.171299860634868 -9.642831980549154 5.5941530425070853 -0.6018150307709319 0 -0.79863550430605224 0.79863550430605224 0 -0.6018150307709319 1 I I 0 1 forward I I I I #
face $-1 $176 $177 $73 $-1 $178 reversed single #
loop $-1 $-1 $179 $92 #
plane-surface $-1 39.71136427580025 3.4593216616444336 185.67191507384914 0 -1 0 -0.6018150307709319 0 -0.79863550430605224 forward_v I I I I #
face $-1 $180 $181 $75 $-1 $182 forward single #
loop $-1 $183 $184 $93 #
cone-surface $-1 59.171299860634868 0.0066910078518844784 5.5941530425070853 -0.6018150307709319 0 -0.79863550430605224 0.79863550430605224 0 -0.6018150307709319 1 I I 0 1 forward I I I I #
face $-1 $185 $186 $77 $-1 $187 reversed single #
loop $-1 $-1 $188 $94 #
plane-surface $-1 39.71136427580025 13.108844650045473 185.67191507384914 0 -1 0 -0.6018150307709319 0 -0.79863550430605224 forward_v I I I I #
face $-1 $189 $190 $79 $-1 $191 forward single #
loop $-1 $192 $193 $95 #
cone-surface $-1 59.171299860634868 9.656213996252923 5.5941530425070853 -0.6018150307709319 0 -0.79863550430605224 0.79863550430605224 0 -0.6018150307709319 1 I I 0 1 forward I I I I #
face $-1 $194 $195 $81 $-1 $196 reversed single #
loop $-1 $-1 $197 $96 #
plane-surface $-1 39.71136427580025 22.758367638446511 185.67191507384914 0 -1 0 -0.6018150307709319 0 -0.79863550430605224 forward_v I I I I #
face $-1 $198 $199 $83 $-1 $200 forward single #
loop $-1 $201 $202 $97 #
cone-surface $-1 59.171299860634868 19.305736984653961 5.5941530425070853 -0.6018150307709319 0 -0.79863550430605224 0.79863550430605224 0 -0.6018150307709319 1 I I 0 1 forward I I I I #
face $-1 $203 $204 $57 $-1 $205 reversed single #
loop $-1 $-1 $206 $98 #
plane-surface $-1 0 0 -10.744080802747728 0 0 1 1 0 0 forward_v I I I I #
coedge $-1 $207 $208 $209 $210 forward $99 $-1 #
face $-1 $211 $212 $59 $-1 $213 reversed single #
loop $-1 $-1 $214 $101 #
plane-surface $-1 -45.503338989615479 -17.211855155565615 0 0 -1 0 0 0 -1 forward_v I I I I #
coedge $-1 $215 $216 $217 $218 forward $102 $-1 #
face $-1 $219 $220 $61 $-1 $221 reversed single #
loop $-1 $-1 $222 $104 #
plane-surface $-1 -65.491500595110935 2.2451204821740234 7.2728232228448206 -0.62932039886446345 0 0.77714595512881146 0.77714595512881146 0 0.62932039886446345 forward_v I I I I #
coedge $-1 $223 $224 $225 $226 reversed $105 $-1 #
face $-1 $-1 $227 $63 $-1 $228 forward single #
loop $-1 $229 $230 $107 #
cone-surface $-1 -61.376526586250087 -1.5941301279799482 6.5736658549364968 0.62932039886446345 0 -0.77714595512881146 0.38857297756440573 0 0.31466019943223172 1 I I -0.70710678118654746 0.70710678118654746 forward I I I I #
loop $-1 $-1 $231 $87 #
coedge $-1 $156 $156 $232 $233 reversed $108 $-1 #
face $-1 $-1 $234 $65 $-1 $235 forward single #
loop $-1 $236 $237 $110 #
cone-surface $-1 -61.376526586250087 2.2451204821740269 6.5736658549364968 0.62932039886446345 0 -0.77714595512881146 0.38857297756440573 0 0.31466019943223172 1 I I -0.70710678118654746 0.70710678118654746 forward I I I I #
loop $-1 $-1 $238 $88 #
coedge $-1 $161 $161 $239 $240 reversed $111 $-1 #
face $-1 $-1 $241 $67 $-1 $242 forward single #
loop $-1 $243 $244 $113 #
cone-surface $-1 -61.376526586250087 6.0843710923279986 6.5736658549364968 0.62932039886446345 0 -0.77714595512881146 0.38857297756440573 0 0.31466019943223172 1 I I -0.70710678118654746 0.70710678118654746 forward I I I I #
loop $-1 $-1 $245 $89 #
coedge $-1 $166 $166 $246 $247 reversed $114 $-1 #
face $-1 $248 $249 $69 $-1 $250 reversed single #
loop $-1 $-1 $251 $116 #
plane-surface $-1 -39.116174615962137 -9.642831980549154 81.064239862776049 0.6018150307709319 0 0.79863550430605224 0.79863550430605224 0 -0.6018150307709319 forward_v I I I I #
coedge $-1 $252 $253 $254 $255 reversed $117 $-1 #
face $-1 $-1 $256 $71 $-1 $257 forward single #
loop $-1 $258 $259 $119 #
cone-surface $-1 58.195028674361211 -9.642831980549154 4.2985974459804517 -0.6018150307709319 0 -0.79863550430605224 0.39931775215302612 0 -0.30090751538546595 1 I I -0.70710678118654746 0.70710678118654746 forward I I I I #
loop $-1 $-1 $260 $91 #
coedge $-1 $175 $175 $261 $262 reversed $120 $-1 #
face $-1 $263 $264 $73 $-1 $265 reversed single #
loop $-1 $-1 $266 $122 #
plane-surface $-1 -39.116174615962137 0.0066910078518844784 81.064239862776049 0.6018150307709319 0 0.79863550430605224 0.79863550430605224 0 -0.6018150307709319 forward_v I I I I #
coedge $-1 $267 $268 $269 $270 reversed $123 $-1 #
face $-1 $-1 $271 $75 $-1 $272 forward single #
loop $-1 $273 $274 $125 #
cone-surface $-1 58.195028674361211 0.0066910078518844784 4.2985974459804517 -0.6018150307709319 0 -0.79863550430605224 0.39931775215302612 0 -0.30090751538546595 1 I I -0.70710678118654746 0.70710678118654746 forward I I I I #
loop $-1 $-1 $275 $93 #
coedge $-1 $184 $184 $276 $277 reversed $126 $-1 #
face $-1 $278 $279 $77 $-1 $280 reversed single #
loop $-1 $-1 $281 $128 #
plane-surface $-1 -39.116174615962137 9.656213996252923 81.064239862776049 0.6018150307709319 0 0.79863550430605224 0.79863550430605224 0 -0.6018150307709319 forward_v I I I I #
coedge $-1 $282 $283 $284 $285 reversed $129 $-1 #
face $-1 $-1 $286 $79 $-1 $287 forward single #
loop $-1 $288 $289 $131 #
cone-surface $-1 58.195028674361211 9.656213996252923 4.2985974459804517 -0.6018150307709319 0 -0.79863550430605224 0.39931775215302612 0 -0.30090751538546595 1 I I -0.70710678118654746 0.70710678118654746 forward I I I I #
loop $-1 $-1 $290 $95 #
coedge $-1 $193 $193 $291 $292 reversed $132 $-1 #
face $-1 $293 $294 $81 $-1 $295 reversed single #
loop $-1 $-1 $296 $134 #
plane-surface $-1 -39.116174615962137 19.305736984653961 81.064239862776049 0.6018150307709319 0 0.79863550430605224 0.79863550430605224 0 -0.6018150307709319 forward_v I I I I #
coedge $-1 $297 $298 $299 $300 reversed $135 $-1 #
face $-1 $-1 $301 $83 $-1 $302 forward single #
loop $-1 $303 $304 $137 #
cone-surface $-1 58.195028674361211 19.305736984653961 4.2985974459804517 -0.6018150307709319 0 -0.79863550430605224 0.39931775215302612 0 -0.30090751538546595 1 I I -0.70710678118654746 0.70710678118654746 forward I I I I #
loop $-1 $-1 $305 $97 #
coedge $-1 $202 $202 $306 $307 reversed $138 $-1 #
face $-1 $308 $309 $57 $-1 $310 reversed single #
loop $-1 $-1 $311 $140 #
plane-surface $-1 0 -26.874760159670437 0 0 1 0 0 0 1 forward_v I I I I #
coedge $-1 $312 $313 $314 $315 forward $141 $-1 #
coedge $-1 $316 $143 $317 $318 forward $99 $-1 #
coedge $-1 $143 $316 $319 $320 forward $99 $-1 #
coedge $-1 $321 $322 $143 $210 reversed $323 $-1 #
edge $-1 $324 $325 $209 $326 forward #
face $-1 $327 $328 $59 $-1 $329 forward single #
loop $-1 $-1 $330 $144 #
plane-surface $-1 -44.003338989615479 -22.043307657618026 0 -1 0 0 0 0 1 forward_v I I I I #
coedge $-1 $331 $332 $333 $334 forward $145 $-1 #
coedge $-1 $335 $147 $336 $337 reversed $102 $-1 #
coedge $-1 $147 $335 $338 $339 reversed $102 $-1 #
coedge $-1 $332 $331 $147 $218 reversed $145 $-1 #
edge $-1 $340 $341 $217 $342 forward #
face $-1 $343 $344 $61 $-1 $345 reversed single #
loop $-1 $-1 $346 $148 #
plane-surface $-1 -147.92177514860583 8.6438714990973136 109.06573278845802 0 -1 0 0.62932039886446345 0 -0.77714595512881146 forward_v I I I I #
coedge $-1 $347 $348 $349 $350 reversed $149 $-1 #
coedge $-1 $224 $151 $351 $352 reversed $105 $-1 #
coedge $-1 $151 $223 $347 $353 reversed $105 $-1 #
coedge $-1 $349 $354 $151 $226 forward $355 $-1 #
edge $-1 $356 $357 $225 $358 forward #
loop $-1 $-1 $232 $152 #
plane-surface $-1 -65.491500595110935 2.2451204821740234 7.2728232228448206 -0.62932039886446345 0 0.77714595512881146 0.77714595512881146 0 0.62932039886446345 forward_v I I I I #
loop $-1 $-1 $359 $107 #
coedge $-1 $230 $230 $231 $360 reversed $153 $-1 #
coedge $-1 $231 $231 $230 $360 forward $155 $-1 #
coedge $-1 $232 $232 $156 $233 forward $227 $-1 #
edge $-1 $361 $361 $232 $362 forward #
loop $-1 $-1 $239 $157 #
plane-surface $-1 -65.491500595110935 2.2451204821740234 7.2728232228448206 -0.62932039886446345 0 0.77714595512881146 0.77714595512881146 0 0.62932039886446345 forward_v I I I I #
loop $-1 $-1 $363 $110 #
coedge $-1 $237 $237 $238 $364 reversed $158 $-1 #
coedge $-1 $238 $238 $237 $364 forward $160 $-1 #
coedge $-1 $239 $239 $161 $240 forward $234 $-1 #
edge $-1 $365 $365 $239 $366 forward #
loop $-1 $-1 $246 $162 #
plane-surface $-1 -65.491500595110935 2.2451204821740234 7.2728232228448206 -0.62932039886446345 0 0.77714595512881146 0.77714595512881146 0 0.62932039886446345 forward_v I I I I #
loop $-1 $-1 $367 $113 #
coedge $-1 $244 $244 $245 $368 reversed $163 $-1 #
coedge $-1 $245 $245 $244 $368 forward $165 $-1 #
coedge $-1 $246 $246 $166 $247 forward $241 $-1 #
edge $-1 $369 $369 $246 $370 forward #
face $-1 $371 $372 $69 $-1 $373 forward single #
loop $-1 $-1 $374 $167 #
plane-surface $-1 39.71136427580025 -13.095462634341704 185.67191507384914 0 1 0 0.6018150307709319 0 0.79863550430605224 forward_v I I I I #
coedge $-1 $375 $376 $377 $378 reversed $168 $-1 #
coedge $-1 $253 $170 $379 $380 reversed $117 $-1 #
coedge $-1 $170 $252 $375 $381 reversed $117 $-1 #
coedge $-1 $377 $382 $170 $255 forward $372 $-1 #
edge $-1 $383 $384 $254 $385 forward #
loop $-1 $-1 $261 $171 #
plane-surface $-1 -39.116174615962137 -9.642831980549154 81.064239862776049 0.6018150307709319 0 0.79863550430605224 0.79863550430605224 0 -0.6018150307709319 forward_v I I I I #
loop $-1 $-1 $386 $119 #
coedge $-1 $259 $259 $260 $387 reversed $172 $-1 #
coedge $-1 $260 $260 $259 $387 forward $174 $-1 #
coedge $-1 $261 $261 $175 $262 forward $256 $-1 #
edge $-1 $388 $388 $261 $389 forward #
face $-1 $390 $391 $73 $-1 $392 reversed single #
loop $-1 $-1 $393 $176 #
plane-surface $-1 39.71136427580025 -3.4459396459406646 185.67191507384914 0 1 0 0.6018150307709319 0 0.79863550430605224 forward_v I I I I #
coedge $-1 $394 $395 $396 $397 reversed $177 $-1 #
coedge $-1 $268 $179 $398 $399 reversed $123 $-1 #
coedge $-1 $179 $267 $394 $400 reversed $123 $-1 #
coedge $-1 $396 $401 $179 $270 forward $402 $-1 #
edge $-1 $403 $404 $269 $405 forward #
loop $-1 $-1 $276 $180 #
plane-surface $-1 -39.116174615962137 0.0066910078518844784 81.064239862776049 0.6018150307709319 0 0.79863550430605224 0.79863550430605224 0 -0.6018150307709319 forward_v I I I I #
loop $-1 $-1 $406 $125 #
coedge $-1 $274 $274 $275 $407 reversed $181 $-1 #
coedge $-1 $275 $275 $274 $407 forward $183 $-1 #
coedge $-1 $276 $276 $184 $277 forward $271 $-1 #
edge $-1 $408 $408 $276 $409 forward #
face $-1 $410 $411 $77 $-1 $412 reversed single #
loop $-1 $-1 $413 $185 #
plane-surface $-1 39.71136427580025 6.2035833424603739 185.67191507384914 0 1 0 0.6018150307709319 0 0.79863550430605224 forward_v I I I I #
coedge $-1 $414 $415 $416 $417 reversed $186 $-1 #
coedge $-1 $283 $188 $418 $419 reversed $129 $-1 #
coedge $-1 $188 $282 $414 $420 reversed $129 $-1 #
coedge $-1 $416 $421 $188 $285 forward $422 $-1 #
edge $-1 $423 $424 $284 $425 forward #
loop $-1 $-1 $291 $189 #
plane-surface $-1 -39.116174615962137 9.656213996252923 81.064239862776049 0.6018150307709319 0 0.79863550430605224 0.79863550430605224 0 -0.6018150307709319 forward_v I I I I #
loop $-1 $-1 $426 $131 #
coedge $-1 $289 $289 $290 $427 reversed $190 $-1 #
coedge $-1 $290 $290 $289 $427 forward $192 $-1 #
coedge $-1 $291 $291 $193 $292 forward $286 $-1 #
edge $-1 $428 $428 $291 $429 forward #
face $-1 $430 $431 $81 $-1 $432 reversed single #
loop $-1 $-1 $433 $194 #
plane-surface $-1 39.71136427580025 15.853106330861412 185.67191507384914 0 1 0 0.6018150307709319 0 0.79863550430605224 forward_v I I I I #
coedge $-1 $434 $435 $436 $437 reversed $195 $-1 #
coedge $-1 $298 $197 $438 $439 reversed $135 $-1 #
coedge $-1 $197 $297 $434 $440 reversed $135 $-1 #
coedge $-1 $436 $441 $197 $300 forward $442 $-1 #
edge $-1 $443 $444 $299 $445 forward #
loop $-1 $-1 $306 $198 #
plane-surface $-1 -39.116174615962137 19.305736984653961 81.064239862776049 0.6018150307709319 0 0.79863550430605224 0.79863550430605224 0 -0.6018150307709319 forward_v I I I I #
loop $-1 $-1 $446 $137 #
coedge $-1 $304 $304 $305 $447 reversed $199 $-1 #
coedge $-1 $305 $305 $304 $447 forward $201 $-1 #
coedge $-1 $306 $306 $202 $307 forward $301 $-1 #
edge $-1 $448 $448 $306 $449 forward #
face $-1 $450 $451 $57 $-1 $452 reversed single #
loop $-1 $-1 $453 $203 #
plane-surface $-1 -65.491500595110935 0 0 1 0 0 0 0 -1 forward_v I I I I #
coedge $-1 $454 $319 $455 $456 forward $204 $-1 #
coedge $-1 $457 $206 $454 $458 forward $141 $-1 #
coedge $-1 $206 $457 $459 $460 forward $141 $-1 #
coedge $-1 $322 $321 $206 $315 reversed $323 $-1 #
edge $-1 $461 $462 $314 $463 forward #
coedge $-1 $208 $207 $464 $465 forward $99 $-1 #
coedge $-1 $466 $467 $207 $318 reversed $451 $-1 #
edge $-1 $325 $468 $317 $469 forward #
coedge $-1 $311 $470 $208 $320 reversed $204 $-1 #
edge $-1 $471 $324 $319 $472 forward #
coedge $-1 $314 $209 $470 $473 forward $323 $-1 #
coedge $-1 $209 $314 $466 $474 reversed $323 $-1 #
loop $-1 $-1 $321 $450 #
vertex $-1 $210 $475 #
vertex $-1 $210 $476 #
straight-curve $-1 65.491500595110935 0 10.744080802747728 0 1 0 I I #
face $-1 $477 $478 $59 $-1 $479 reversed single #
loop $-1 $-1 $480 $211 #
plane-surface $-1 0 0 10.744080802747728 0 0 1 1 0 0 forward_v I I I I #
coedge $-1 $481 $482 $483 $484 reversed $212 $-1 #
coedge $-1 $217 $214 $485 $486 reversed $145 $-1 #
coedge $-1 $214 $217 $487 $488 reversed $145 $-1 #
coedge $-1 $482 $481 $214 $334 reversed $212 $-1 #
edge $-1 $489 $490 $333 $491 forward #
coedge $-1 $216 $215 $492 $493 reversed $102 $-1 #
coedge $-1 $485 $494 $215 $337 forward $478 $-1 #
edge $-1 $495 $341 $336 $496 forward #
coedge $-1 $497 $487 $216 $339 forward $328 $-1 #
edge $-1 $340 $498 $338 $499 forward #
vertex $-1 $339 $500 #
vertex $-1 $337 $501 #
straight-curve $-1 -47.003338989615479 -17.211855155565615 0 0 0 -1 I I #
face $-1 $-1 $355 $61 $-1 $502 forward single #
loop $-1 $-1 $503 $219 #
plane-surface $-1 -65.491500595110935 0 0 1 0 0 0 0 -1 forward_v I I I I #
coedge $-1 $504 $505 $506 $507 reversed $220 $-1 #
coedge $-1 $508 $222 $224 $353 forward $149 $-1 #
coedge $-1 $222 $508 $504 $509 forward $149 $-1 #
coedge $-1 $506 $225 $222 $350 forward $355 $-1 #
edge $-1 $357 $510 $349 $511 forward #
coedge $-1 $512 $513 $223 $352 forward $344 $-1 #
edge $-1 $514 $356 $351 $515 forward #
edge $-1 $357 $514 $224 $516 forward #
coedge $-1 $225 $506 $512 $517 forward $355 $-1 #
loop $-1 $-1 $506 $343 #
vertex $-1 $352 $518 #
vertex $-1 $226 $519 #
straight-curve $-1 -73.960887574302916 -4.1536305347492668 10.744080802747725 1 0 0 I I #
coedge $-1 $359 $359 $-1 $520 reversed $229 $-1 #
edge $-1 $521 $521 $230 $522 forward #
vertex $-1 $233 $523 #
ellipse-curve $-1 -63.348177581667052 -1.5941301279799482 9.0084520127962762 -0.62932039886446345 0 0.77714595512881146 0.77714595512881146 0 0.62932039886446345 1 I I #
coedge $-1 $363 $363 $-1 $524 reversed $236 $-1 #
edge $-1 $525 $525 $237 $526 forward #
vertex $-1 $240 $527 #
ellipse-curve $-1 -63.348177581667052 2.2451204821740269 9.0084520127962762 -0.62932039886446345 0 0.77714595512881146 0.77714595512881146 0 0.62932039886446345 1 I I #
coedge $-1 $367 $367 $-1 $528 reversed $243 $-1 #
edge $-1 $529 $529 $244 $530 forward #
vertex $-1 $247 $531 #
ellipse-curve $-1 -63.348177581667052 6.0843710923279986 9.0084520127962762 -0.62932039886446345 0 0.77714595512881146 0.77714595512881146 0 0.62932039886446345 1 I I #
face $-1 $-1 $532 $69 $-1 $533 reversed single #
loop $-1 $-1 $254 $248 #
plane-surface $-1 0 0 10.744080802747728 0 0 1 1 0 0 forward_v I I I I #
coedge $-1 $534 $535 $536 $537 reversed $249 $-1 #
coedge $-1 $538 $251 $253 $381 forward $168 $-1 #
coedge $-1 $251 $538 $534 $539 forward $168 $-1 #
coedge $-1 $536 $254 $251 $378 forward $372 $-1 #
edge $-1 $384 $540 $377 $541 forward #
coedge $-1 $542 $543 $252 $380 forward $532 $-1 #
edge $-1 $544 $383 $379 $545 forward #
edge $-1 $384 $544 $253 $546 forward #
coedge $-1 $254 $536 $542 $547 forward $372 $-1 #
vertex $-1 $380 $548 #
vertex $-1 $255 $549 #
straight-curve $-1 19.855682137900125 -6.1902013267566049 10.744080802747732 -1 0 0 I I #
coedge $-1 $386 $386 $-1 $550 reversed $258 $-1 #
edge $-1 $551 $551 $259 $552 forward #
vertex $-1 $262 $553 #
ellipse-curve $-1 59.846663531523063 -9.642831980549154 6.4903908868807019 0.6018150307709319 0 0.79863550430605224 0.79863550430605224 0 -0.6018150307709319 1 I I #
face $-1 $-1 $402 $73 $-1 $554 forward single #
loop $-1 $-1 $555 $263 #
plane-surface $-1 65.491500595110935 0 0 -1 0 0 0 0 1 forward_v I I I I #
coedge $-1 $556 $557 $558 $559 reversed $264 $-1 #
coedge $-1 $560 $266 $268 $400 forward $177 $-1 #
coedge $-1 $266 $560 $556 $561 forward $177 $-1 #
coedge $-1 $558 $269 $266 $397 forward $402 $-1 #
edge $-1 $404 $562 $396 $563 forward #
coedge $-1 $564 $565 $267 $399 forward $391 $-1 #
edge $-1 $566 $403 $398 $567 forward #
edge $-1 $404 $566 $268 $568 forward #
coedge $-1 $269 $558 $564 $569 forward $402 $-1 #
loop $-1 $-1 $558 $390 #
vertex $-1 $399 $570 #
vertex $-1 $270 $571 #
straight-curve $-1 19.855682137900125 3.4593216616444336 10.744080802747732 -1 0 0 I I #
coedge $-1 $406 $406 $-1 $572 reversed $273 $-1 #
edge $-1 $573 $573 $274 $574 forward #
vertex $-1 $277 $575 #
ellipse-curve $-1 59.846663531523063 0.0066910078518844784 6.4903908868807019 0.6018150307709319 0 0.79863550430605224 0.79863550430605224 0 -0.6018150307709319 1 I I #
face $-1 $-1 $422 $77 $-1 $576 forward single #
loop $-1 $-1 $577 $278 #
plane-surface $-1 65.491500595110935 0 0 -1 0 0 0 0 1 forward_v I I I I #
coedge $-1 $578 $579 $580 $581 reversed $279 $-1 #
coedge $-1 $582 $281 $283 $420 forward $186 $-1 #
coedge $-1 $281 $582 $578 $583 forward $186 $-1 #
coedge $-1 $580 $284 $281 $417 forward $422 $-1 #
edge $-1 $424 $584 $416 $585 forward #
coedge $-1 $586 $587 $282 $419 forward $411 $-1 #
edge $-1 $588 $423 $418 $589 forward #
edge $-1 $424 $588 $283 $590 forward #
coedge $-1 $284 $580 $586 $591 forward $422 $-1 #
loop $-1 $-1 $580 $410 #
vertex $-1 $419 $592 #
vertex $-1 $285 $593 #
straight-curve $-1 19.855682137900125 13.108844650045473 10.744080802747732 -1 0 0 I I #
coedge $-1 $426 $426 $-1 $594 reversed $288 $-1 #
edge $-1 $595 $595 $289 $596 forward #
vertex $-1 $292 $597 #
ellipse-curve $-1 59.846663531523063 9.656213996252923 6.4903908868807019 0.6018150307709319 0 0.79863550430605224 0.79863550430605224 0 -0.6018150307709319 1 I I #
face $-1 $-1 $442 $81 $-1 $598 forward single #
loop $-1 $-1 $599 $293 #
plane-surface $-1 65.491500595110935 0 0 -1 0 0 0 0 1 forward_v I I I I #
coedge $-1 $600 $601 $602 $603 reversed $294 $-1 #
coedge $-1 $604 $296 $298 $440 forward $195 $-1 #
coedge $-1 $296 $604 $600 $605 forward $195 $-1 #
coedge $-1 $602 $299 $296 $437 forward $442 $-1 #
edge $-1 $444 $606 $436 $607 forward #
coedge $-1 $608 $609 $297 $439 forward $431 $-1 #
edge $-1 $610 $443 $438 $611 forward #
edge $-1 $444 $610 $298 $612 forward #
coedge $-1 $299 $602 $608 $613 forward $442 $-1 #
loop $-1 $-1 $602 $430 #
vertex $-1 $439 $614 #
vertex $-1 $300 $615 #
straight-curve $-1 19.855682137900125 22.758367638446511 10.744080802747732 -1 0 0 I I #
coedge $-1 $446 $446 $-1 $616 reversed $303 $-1 #
edge $-1 $617 $617 $304 $618 forward #
vertex $-1 $307 $619 #
ellipse-curve $-1 59.846663531523063 19.305736984653961 6.4903908868807019 0.6018150307709319 0 0.79863550430605224 0.79863550430605224 0 -0.6018150307709319 1 I I #
face $-1 $-1 $323 $57 $-1 $620 reversed single #
loop $-1 $-1 $466 $308 #
plane-surface $-1 0 26.874760159670437 0 0 -1 0 0 0 -1 forward_v I I I I #
coedge $-1 $621 $464 $467 $622 forward $309 $-1 #
coedge $-1 $470 $311 $312 $458 reversed $204 $-1 #
coedge $-1 $464 $621 $311 $456 reversed $309 $-1 #
edge $-1 $471 $623 $455 $624 forward #
coedge $-1 $313 $312 $621 $625 forward $141 $-1 #
edge $-1 $462 $623 $454 $626 forward #
coedge $-1 $467 $466 $313 $460 reversed $451 $-1 #
edge $-1 $627 $461 $459 $628 forward #
vertex $-1 $315 $629 #
vertex $-1 $473 $630 #
straight-curve $-1 65.491500595110935 0 -10.744080802747728 0 -1 0 I I #
coedge $-1 $453 $455 $316 $465 reversed $309 $-1 #
edge $-1 $468 $471 $464 $631 forward #
coedge $-1 $459 $317 $322 $474 forward $451 $-1 #
coedge $-1 $317 $459 $453 $622 reversed $451 $-1 #
vertex $-1 $318 $632 #
straight-curve $-1 0 26.874760159670437 10.744080802747728 -1 0 0 I I #
coedge $-1 $319 $454 $321 $473 reversed $204 $-1 #
vertex $-1 $465 $633 #
straight-curve $-1 0 -26.874760159670437 10.744080802747728 1 0 0 I I #
edge $-1 $324 $462 $321 $634 forward #
edge $-1 $325 $461 $322 $635 forward #
point $-1 65.491500595110935 -26.874760159670437 10.744080802747728 #
point $-1 65.491500595110935 26.874760159670437 10.744080802747728 #
face $-1 $-1 $636 $59 $-1 $637 reversed single #
loop $-1 $-1 $638 $327 #
plane-surface $-1 0 0 -10.744080802747728 0 0 1 1 0 0 forward_v I I I I #
coedge $-1 $487 $497 $482 $639 forward $328 $-1 #
coedge $-1 $333 $330 $638 $640 reversed $212 $-1 #
coedge $-1 $330 $333 $480 $639 reversed $212 $-1 #
coedge $-1 $641 $642 $330 $484 forward $636 $-1 #
edge $-1 $643 $644 $483 $645 forward #
coedge $-1 $638 $336 $331 $486 forward $478 $-1 #
edge $-1 $341 $490 $485 $646 forward #
coedge $-1 $338 $480 $332 $488 forward $328 $-1 #
edge $-1 $489 $340 $487 $647 forward #
vertex $-1 $488 $648 #
vertex $-1 $486 $649 #
straight-curve $-1 -44.003338989615479 -17.211855155565615 0 0 0 -1 I I #
coedge $-1 $642 $641 $335 $493 forward $636 $-1 #
edge $-1 $498 $495 $492 $650 forward #
coedge $-1 $336 $638 $642 $651 forward $478 $-1 #
vertex $-1 $337 $652 #
straight-curve $-1 -47.003338989615479 -11.021653828809013 -10.744080802747728 0 1 0 I I #
coedge $-1 $480 $338 $641 $653 forward $328 $-1 #
vertex $-1 $653 $654 #
straight-curve $-1 -47.003338989615479 -11.021653828809013 10.744080802747728 0 -1 0 I I #
point $-1 -47.003338989615479 -17.211855155565615 10.744080802747728 #
point $-1 -47.003338989615479 -17.211855155565615 -10.744080802747728 #
plane-surface $-1 0 0 10.744080802747728 0 0 1 1 0 0 forward_v I I I I #
coedge $-1 $513 $512 $505 $655 forward $344 $-1 #
coedge $-1 $505 $346 $348 $509 reversed $220 $-1 #
coedge $-1 $346 $504 $503 $655 reversed $220 $-1 #
coedge $-1 $354 $349 $346 $507 forward $355 $-1 #
edge $-1 $510 $656 $506 $657 forward #
coedge $-1 $348 $347 $513 $658 reversed $149 $-1 #
edge $-1 $659 $510 $504 $660 forward #
vertex $-1 $350 $661 #
straight-curve $-1 -61.204854568223169 1.1225602410870117 10.744080802747728 0 1 0 I I #
coedge $-1 $503 $351 $354 $517 reversed $344 $-1 #
coedge $-1 $351 $503 $508 $658 forward $344 $-1 #
vertex $-1 $352 $662 #
straight-curve $-1 -65.491500595110935 -4.1536305347492668 54.532866394229011 0 0 1 I I #
straight-curve $-1 -65.491500595110935 -4.1536305347492668 7.2728232228448206 -0.77714595512881146 0 -0.62932039886446345 I I #
edge $-1 $656 $356 $512 $663 forward #
point $-1 -65.491500595110935 -4.1536305347492668 10.744080802747728 #
point $-1 -61.204854568223176 -4.1536305347492668 10.744080802747728 #
edge $-1 $664 $664 $359 $-1 forward #
vertex $-1 $360 $665 #
ellipse-curve $-1 -61.691186785682319 -1.5941301279799482 6.9622388325009021 -0.62932039886446345 0 0.77714595512881146 0.77714595512881146 0 0.62932039886446345 1 I I #
point $-1 -62.571031626538236 -1.5941301279799482 9.6377724116607322 #
edge $-1 $666 $666 $363 $-1 forward #
vertex $-1 $364 $667 #
ellipse-curve $-1 -61.691186785682319 2.2451204821740269 6.9622388325009021 -0.62932039886446345 0 0.77714595512881146 0.77714595512881146 0 0.62932039886446345 1 I I #
point $-1 -62.571031626538236 2.2451204821740269 9.6377724116607322 #
edge $-1 $668 $668 $367 $-1 forward #
vertex $-1 $368 $669 #
ellipse-curve $-1 -61.691186785682319 6.0843710923279986 6.9622388325009021 -0.62932039886446345 0 0.77714595512881146 0.77714595512881146 0 0.62932039886446345 1 I I #
point $-1 -62.571031626538236 6.0843710923279986 9.6377724116607322 #
loop $-1 $-1 $379 $371 #
plane-surface $-1 65.491500595110935 0 0 -1 0 0 0 0 1 forward_v I I I I #
coedge $-1 $535 $374 $376 $539 reversed $249 $-1 #
coedge $-1 $374 $534 $670 $671 reversed $249 $-1 #
coedge $-1 $382 $377 $374 $537 forward $372 $-1 #
edge $-1 $540 $672 $536 $673 forward #
coedge $-1 $376 $375 $543 $674 reversed $168 $-1 #
edge $-1 $675 $540 $534 $676 forward #
vertex $-1 $378 $677 #
straight-curve $-1 54.201826467935192 -4.821415990274577 10.744080802747717 0 -1 0 I I #
coedge $-1 $670 $379 $382 $547 reversed $532 $-1 #
coedge $-1 $379 $670 $538 $674 forward $532 $-1 #
vertex $-1 $380 $678 #
straight-curve $-1 65.491500595110935 -6.1902013267566049 92.835957536924568 0 0 1 I I #
straight-curve $-1 -39.116174615962137 -6.1902013267566049 81.064239862776049 0.79863550430605224 0 -0.6018150307709319 I I #
edge $-1 $672 $383 $542 $679 forward #
point $-1 65.491500595110935 -6.1902013267566049 10.744080802747728 #
point $-1 54.201826467935177 -6.1902013267566049 10.744080802747732 #
edge $-1 $680 $680 $386 $-1 forward #
vertex $-1 $387 $681 #
ellipse-curve $-1 58.495936189746679 -9.642831980549154 4.6979151981334777 0.6018150307709319 0 0.79863550430605224 0.79863550430605224 0 -0.6018150307709319 1 I I #
point $-1 60.645299035829112 -9.642831980549154 5.8885758561097612 #
plane-surface $-1 0 0 10.744080802747728 0 0 1 1 0 0 forward_v I I I I #
coedge $-1 $565 $564 $557 $682 forward $391 $-1 #
coedge $-1 $557 $393 $395 $561 reversed $264 $-1 #
coedge $-1 $393 $556 $555 $682 reversed $264 $-1 #
coedge $-1 $401 $396 $393 $559 forward $402 $-1 #
edge $-1 $562 $683 $558 $684 forward #
coedge $-1 $395 $394 $565 $685 reversed $177 $-1 #
edge $-1 $686 $562 $556 $687 forward #
vertex $-1 $397 $688 #
straight-curve $-1 54.201826467935192 0.0033455039259422392 10.744080802747717 0 -1 0 I I #
coedge $-1 $555 $398 $401 $569 reversed $391 $-1 #
coedge $-1 $398 $555 $560 $685 forward $391 $-1 #
vertex $-1 $399 $689 #
straight-curve $-1 65.491500595110935 3.4593216616444336 92.835957536924568 0 0 1 I I #
straight-curve $-1 -39.116174615962137 3.4593216616444336 81.064239862776049 0.79863550430605224 0 -0.6018150307709319 I I #
edge $-1 $683 $403 $564 $690 forward #
point $-1 65.491500595110935 3.4593216616444336 10.744080802747728 #
point $-1 54.201826467935177 3.4593216616444336 10.744080802747732 #
edge $-1 $691 $691 $406 $-1 forward #
vertex $-1 $407 $692 #
ellipse-curve $-1 58.495936189746679 0.0066910078518844784 4.6979151981334777 0.6018150307709319 0 0.79863550430605224 0.79863550430605224 0 -0.6018150307709319 1 I I #
point $-1 60.645299035829112 0.0066910078518844784 5.8885758561097612 #
plane-surface $-1 0 0 10.744080802747728 0 0 1 1 0 0 forward_v I I I I #
coedge $-1 $587 $586 $579 $693 forward $411 $-1 #
coedge $-1 $579 $413 $415 $583 reversed $279 $-1 #
coedge $-1 $413 $578 $577 $693 reversed $279 $-1 #
coedge $-1 $421 $416 $413 $581 forward $422 $-1 #
edge $-1 $584 $694 $580 $695 forward #
coedge $-1 $415 $414 $587 $696 reversed $186 $-1 #
edge $-1 $697 $584 $578 $698 forward #
vertex $-1 $417 $699 #
straight-curve $-1 54.201826467935192 4.8281069981264615 10.744080802747717 0 -1 0 I I #
coedge $-1 $577 $418 $421 $591 reversed $411 $-1 #
coedge $-1 $418 $577 $582 $696 forward $411 $-1 #
vertex $-1 $419 $700 #
straight-curve $-1 65.491500595110935 13.108844650045473 92.835957536924568 0 0 1 I I #
straight-curve $-1 -39.116174615962137 13.108844650045473 81.064239862776049 0.79863550430605224 0 -0.6018150307709319 I I #
edge $-1 $694 $423 $586 $701 forward #
point $-1 65.491500595110935 13.108844650045473 10.744080802747728 #
point $-1 54.201826467935177 13.108844650045473 10.744080802747732 #
edge $-1 $702 $702 $426 $-1 forward #
vertex $-1 $427 $703 #
ellipse-curve $-1 58.495936189746679 9.656213996252923 4.6979151981334777 0.6018150307709319 0 0.79863550430605224 0.79863550430605224 0 -0.6018150307709319 1 I I #
point $-1 60.645299035829112 9.656213996252923 5.8885758561097612 #
plane-surface $-1 0 0 10.744080802747728 0 0 1 1 0 0 forward_v I I I I #
coedge $-1 $609 $608 $601 $704 forward $431 $-1 #
coedge $-1 $601 $433 $435 $605 reversed $294 $-1 #
coedge $-1 $433 $600 $599 $704 reversed $294 $-1 #
coedge $-1 $441 $436 $433 $603 forward $442 $-1 #
edge $-1 $606 $705 $602 $706 forward #
coedge $-1 $435 $434 $609 $707 reversed $195 $-1 #
edge $-1 $708 $606 $600 $709 forward #
vertex $-1 $437 $710 #
straight-curve $-1 54.201826467935192 9.6528684923269807 10.744080802747717 0 -1 0 I I #
coedge $-1 $599 $438 $441 $613 reversed $431 $-1 #
coedge $-1 $438 $599 $604 $707 forward $431 $-1 #
vertex $-1 $439 $711 #
straight-curve $-1 65.491500595110935 22.758367638446511 92.835957536924568 0 0 1 I I #
straight-curve $-1 -39.116174615962137 22.758367638446511 81.064239862776049 0.79863550430605224 0 -0.6018150307709319 I I #
edge $-1 $705 $443 $608 $712 forward #
point $-1 65.491500595110935 22.758367638446511 10.744080802747728 #
point $-1 54.201826467935177 22.758367638446511 10.744080802747732 #
edge $-1 $713 $713 $446 $-1 forward #
vertex $-1 $447 $714 #
ellipse-curve $-1 58.495936189746679 19.305736984653961 4.6979151981334777 0.6018150307709319 0 0.79863550430605224 0.79863550430605224 0 -0.6018150307709319 1 I I #
point $-1 60.645299035829112 19.305736984653961 5.8885758561097612 #
plane-surface $-1 65.491500595110935 0 0 -1 0 0 0 0 1 forward_v I I I I #
coedge $-1 $455 $453 $457 $625 reversed $309 $-1 #
edge $-1 $468 $627 $467 $715 forward #
vertex $-1 $625 $716 #
straight-curve $-1 -65.491500595110935 -26.874760159670437 0 0 0 -1 I I #
edge $-1 $623 $627 $621 $717 forward #
straight-curve $-1 0 -26.874760159670437 -10.744080802747728 -1 0 0 I I #
vertex $-1 $460 $718 #
straight-curve $-1 0 26.874760159670437 -10.744080802747728 1 0 0 I I #
point $-1 65.491500595110935 26.874760159670437 -10.744080802747728 #
point $-1 65.491500595110935 -26.874760159670437 -10.744080802747728 #
straight-curve $-1 -65.491500595110935 0 10.744080802747728 0 -1 0 I I #
point $-1 -65.491500595110935 26.874760159670437 10.744080802747728 #
point $-1 -65.491500595110935 -26.874760159670437 10.744080802747728 #
straight-curve $-1 65.491500595110935 -26.874760159670437 0 0 0 -1 I I #
straight-curve $-1 65.491500595110935 26.874760159670437 0 0 0 -1 I I #
loop $-1 $-1 $483 $477 #
plane-surface $-1 0 -26.874760159670437 0 0 1 0 0 0 1 forward_v I I I I #
coedge $-1 $494 $485 $481 $640 forward $478 $-1 #
edge $-1 $644 $489 $480 $719 forward #
edge $-1 $490 $643 $638 $720 forward #
coedge $-1 $492 $483 $497 $653 reversed $636 $-1 #
coedge $-1 $483 $492 $494 $651 reversed $636 $-1 #
vertex $-1 $651 $721 #
vertex $-1 $484 $722 #
straight-curve $-1 -44.003338989615479 -26.874760159670437 0 0 0 1 I I #
straight-curve $-1 -22.751669494807739 -17.211855155565615 -10.744080802747728 1 0 0 I I #
straight-curve $-1 -22.751669494807739 -17.211855155565615 10.744080802747728 -1 0 0 I I #
point $-1 -44.003338989615479 -17.211855155565615 10.744080802747728 #
point $-1 -44.003338989615479 -17.211855155565615 -10.744080802747728 #
straight-curve $-1 -47.003338989615479 -26.874760159670437 0 0 0 -1 I I #
edge $-1 $643 $495 $642 $723 forward #
point $-1 -47.003338989615479 -26.874760159670437 -10.744080802747728 #
edge $-1 $498 $644 $641 $724 forward #
point $-1 -47.003338989615479 -26.874760159670437 10.744080802747728 #
edge $-1 $656 $659 $503 $725 forward #
vertex $-1 $517 $726 #
straight-curve $-1 -73.960887574302916 8.6438714990973136 10.744080802747725 -1 0 0 I I #
edge $-1 $659 $514 $513 $727 forward #
vertex $-1 $658 $728 #
straight-curve $-1 -65.491500595110935 8.6438714990973136 7.2728232228448206 0.77714595512881146 0 0.62932039886446345 I I #
point $-1 -61.204854568223176 8.6438714990973136 10.744080802747728 #
point $-1 -65.491500595110935 -4.1536305347492668 7.2728232228448206 #
straight-curve $-1 -65.491500595110935 0 10.744080802747728 0 -1 0 I I #
vertex $-1 $520 $729 #
point $-1 -60.91404083055351 -1.5941301279799482 7.5915592313653661 #
vertex $-1 $524 $730 #
point $-1 -60.91404083055351 2.2451204821740269 7.5915592313653661 #
vertex $-1 $528 $731 #
point $-1 -60.91404083055351 6.0843710923279986 7.5915592313653661 #
coedge $-1 $543 $542 $535 $671 forward $532 $-1 #
edge $-1 $672 $675 $670 $732 forward #
vertex $-1 $547 $733 #
straight-curve $-1 19.855682137900125 -13.095462634341704 10.744080802747732 1 0 0 I I #
edge $-1 $675 $544 $543 $734 forward #
vertex $-1 $674 $735 #
straight-curve $-1 -39.116174615962137 -13.095462634341704 81.064239862776049 -0.79863550430605224 0 0.6018150307709319 I I #
point $-1 54.201826467935177 -13.095462634341704 10.744080802747732 #
point $-1 65.491500595110949 -6.1902013267566049 2.2367009710136614 #
straight-curve $-1 65.491500595110935 0 10.744080802747728 0 1 0 I I #
vertex $-1 $550 $736 #
point $-1 59.294571694052728 -9.642831980549154 4.0961001673625459 #
edge $-1 $683 $686 $555 $737 forward #
vertex $-1 $569 $738 #
straight-curve $-1 19.855682137900125 -3.4459396459406646 10.744080802747732 1 0 0 I I #
edge $-1 $686 $566 $565 $739 forward #
vertex $-1 $685 $740 #
straight-curve $-1 -39.116174615962137 -3.4459396459406646 81.064239862776049 -0.79863550430605224 0 0.6018150307709319 I I #
point $-1 54.201826467935177 -3.4459396459406646 10.744080802747732 #
point $-1 65.491500595110949 3.4593216616444336 2.2367009710136614 #
straight-curve $-1 65.491500595110935 0 10.744080802747728 0 1 0 I I #
vertex $-1 $572 $741 #
point $-1 59.294571694052728 0.0066910078518844784 4.0961001673625459 #
edge $-1 $694 $697 $577 $742 forward #
vertex $-1 $591 $743 #
straight-curve $-1 19.855682137900125 6.2035833424603739 10.744080802747732 1 0 0 I I #
edge $-1 $697 $588 $587 $744 forward #
vertex $-1 $696 $745 #
straight-curve $-1 -39.116174615962137 6.2035833424603739 81.064239862776049 -0.79863550430605224 0 0.6018150307709319 I I #
point $-1 54.201826467935177 6.2035833424603739 10.744080802747732 #
point $-1 65.491500595110949 13.108844650045473 2.2367009710136614 #
straight-curve $-1 65.491500595110935 0 10.744080802747728 0 1 0 I I #
vertex $-1 $594 $746 #
point $-1 59.294571694052728 9.656213996252923 4.0961001673625459 #
edge $-1 $705 $708 $599 $747 forward #
vertex $-1 $613 $748 #
straight-curve $-1 19.855682137900125 15.853106330861412 10.744080802747732 1 0 0 I I #
edge $-1 $708 $610 $609 $749 forward #
vertex $-1 $707 $750 #
straight-curve $-1 -39.116174615962137 15.853106330861412 81.064239862776049 -0.79863550430605224 0 0.6018150307709319 I I #
point $-1 54.201826467935177 15.853106330861412 10.744080802747732 #
point $-1 65.491500595110949 22.758367638446511 2.2367009710136614 #
straight-curve $-1 65.491500595110935 0 10.744080802747728 0 1 0 I I #
vertex $-1 $616 $751 #
point $-1 59.294571694052728 19.305736984653961 4.0961001673625459 #
straight-curve $-1 -65.491500595110935 26.874760159670437 0 0 0 -1 I I #
point $-1 -65.491500595110935 -26.874760159670437 -10.744080802747728 #
straight-curve $-1 -65.491500595110935 0 -10.744080802747728 0 1 0 I I #
point $-1 -65.491500595110935 26.874760159670437 -10.744080802747728 #
straight-curve $-1 -44.003338989615479 -11.021653828809013 10.744080802747728 0 1 0 I I #
straight-curve $-1 -44.003338989615479 -11.021653828809013 -10.744080802747728 0 -1 0 I I #
point $-1 -44.003338989615479 -26.874760159670437 -10.744080802747728 #
point $-1 -44.003338989615479 -26.874760159670437 10.744080802747728 #
straight-curve $-1 0 -26.874760159670437 -10.744080802747728 -1 0 0 I I #
straight-curve $-1 0 -26.874760159670437 10.744080802747728 1 0 0 I I #
straight-curve $-1 -65.491500595110935 8.6438714990973136 54.532866394229011 0 0 -1 I I #
point $-1 -65.491500595110935 8.6438714990973136 10.744080802747728 #
straight-curve $-1 -65.491500595110935 1.1225602410870117 7.2728232228448242 0 -1 0 I I #
point $-1 -65.491500595110935 8.6438714990973136 7.2728232228448206 #
point $-1 -61.061866386817854 -1.5941301279799482 6.1850928773720915 #
point $-1 -61.061866386817854 2.2451204821740269 6.1850928773720915 #
point $-1 -61.061866386817854 6.0843710923279986 6.1850928773720915 #
straight-curve $-1 65.491500595110935 -13.095462634341704 92.835957536924568 0 0 -1 I I #
point $-1 65.491500595110935 -13.095462634341704 10.744080802747728 #
straight-curve $-1 65.491500595110921 -4.821415990274577 2.2367009710136827 0 1 0 I I #
point $-1 65.491500595110949 -13.095462634341704 2.2367009710136614 #
point $-1 57.894121158975743 -9.642831980549154 3.8992796938274257 #
straight-curve $-1 65.491500595110935 -3.4459396459406646 92.835957536924568 0 0 -1 I I #
point $-1 65.491500595110935 -3.4459396459406646 10.744080802747728 #
straight-curve $-1 65.491500595110921 0.0033455039259422392 2.2367009710136827 0 1 0 I I #
point $-1 65.491500595110949 -3.4459396459406646 2.2367009710136614 #
point $-1 57.894121158975743 0.0066910078518844784 3.8992796938274257 #
straight-curve $-1 65.491500595110935 6.2035833424603739 92.835957536924568 0 0 -1 I I #
point $-1 65.491500595110935 6.2035833424603739 10.744080802747728 #
straight-curve $-1 65.491500595110921 4.8281069981264615 2.2367009710136827 0 1 0 I I #
point $-1 65.491500595110949 6.2035833424603739 2.2367009710136614 #
point $-1 57.894121158975743 9.656213996252923 3.8992796938274257 #
straight-curve $-1 65.491500595110935 15.853106330861412 92.835957536924568 0 0 -1 I I #
point $-1 65.491500595110935 15.853106330861412 10.744080802747728 #
straight-curve $-1 65.491500595110921 9.6528684923269807 2.2367009710136827 0 1 0 I I #
point $-1 65.491500595110949 15.853106330861412 2.2367009710136614 #
point $-1 57.894121158975743 19.305736984653961 3.8992796938274257 #
End-of-ACIS-data 