300 0 10 0           
7 Unknown 11 ACIS 3.0 NT 24 Fri Oct 30 18:06:21 1998 
-1 9.9999999999999995e-007 1e-010 
body $10 $11 $-1 $12 #
body $13 $14 $-1 $15 #
body $16 $17 $-1 $18 #
body $19 $20 $-1 $21 #
body $22 $23 $-1 $24 #
body $25 $26 $-1 $27 #
body $28 $29 $-1 $30 #
body $31 $32 $-1 $33 #
body $34 $35 $-1 $36 #
body $37 $38 $-1 $39 #
display_attribute-st-attrib $-1 $40 $-1 $0 1 #
lump $-1 $-1 $41 $0 #
transform $-1 1 0 0 0 1 0 0 0 1 68.416394543290508 40.252651160111448 11.013185305811186 1 rotate no_reflect no_shear #
display_attribute-st-attrib $-1 $42 $-1 $1 9 #
lump $-1 $-1 $43 $1 #
transform $-1 1 0 0 0 1 0 0 0 1 68.416394543290508 40.252651160111448 11.013185305811186 1 rotate no_reflect no_shear #
display_attribute-st-attrib $-1 $44 $-1 $2 8 #
lump $-1 $-1 $45 $2 #
transform $-1 1 0 0 0 1 0 0 0 1 68.416394543290508 40.252651160111448 11.013185305811186 1 rotate no_reflect no_shear #
display_attribute-st-attrib $-1 $46 $-1 $3 7 #
lump $-1 $-1 $47 $3 #
transform $-1 1 0 0 0 1 0 0 0 1 68.416394543290508 40.252651160111448 11.013185305811186 1 rotate no_reflect no_shear #
display_attribute-st-attrib $-1 $48 $-1 $4 6 #
lump $-1 $-1 $49 $4 #
transform $-1 1 0 0 0 1 0 0 0 1 68.416394543290508 40.252651160111448 11.013185305811186 1 rotate no_reflect no_shear #
display_attribute-st-attrib $-1 $50 $-1 $5 5 #
lump $-1 $-1 $51 $5 #
transform $-1 1 0 0 0 1 0 0 0 1 68.416394543290508 40.252651160111448 11.013185305811186 1 rotate no_reflect no_shear #
display_attribute-st-attrib $-1 $52 $-1 $6 4 #
lump $-1 $-1 $53 $6 #
transform $-1 1 0 0 0 1 0 0 0 1 68.416394543290508 40.252651160111448 11.013185305811186 1 rotate no_reflect no_shear #
display_attribute-st-attrib $-1 $54 $-1 $7 3 #
lump $-1 $-1 $55 $7 #
transform $-1 1 0 0 0 1 0 0 0 1 68.416394543290508 40.252651160111448 11.013185305811186 1 rotate no_reflect no_shear #
display_attribute-st-attrib $-1 $56 $-1 $8 2 #
lump $-1 $-1 $57 $8 #
transform $-1 1 0 0 0 1 0 0 0 1 68.416394543290508 40.252651160111448 11.013185305811186 1 rotate no_reflect no_shear #
display_attribute-st-attrib $-1 $58 $-1 $9 1 #
lump $-1 $-1 $59 $9 #
transform $-1 1 0 0 0 1 0 0 0 1 68.416394543290508 40.252651160111448 11.013185305811186 1 rotate no_reflect no_shear #
id_attribute-st-attrib $-1 $-1 $10 $0 1730 #
shell $-1 $-1 $-1 $60 $-1 $11 #
id_attribute-st-attrib $-1 $-1 $13 $1 1738 #
shell $-1 $-1 $-1 $61 $-1 $14 #
id_attribute-st-attrib $-1 $-1 $16 $2 1756 #
shell $-1 $-1 $-1 $62 $-1 $17 #
id_attribute-st-attrib $-1 $-1 $19 $3 1764 #
shell $-1 $-1 $-1 $63 $-1 $20 #
id_attribute-st-attrib $-1 $-1 $22 $4 1773 #
shell $-1 $-1 $-1 $64 $-1 $23 #
id_attribute-st-attrib $-1 $-1 $25 $5 1783 #
shell $-1 $-1 $-1 $65 $-1 $26 #
id_attribute-st-attrib $-1 $-1 $28 $6 1794 #
shell $-1 $-1 $-1 $66 $-1 $29 #
id_attribute-st-attrib $-1 $-1 $31 $7 1806 #
shell $-1 $-1 $-1 $67 $-1 $32 #
id_attribute-st-attrib $-1 $-1 $34 $8 1819 #
shell $-1 $-1 $-1 $68 $-1 $35 #
id_attribute-st-attrib $-1 $-1 $37 $9 1833 #
shell $-1 $-1 $-1 $69 $-1 $38 #
face $-1 $70 $71 $41 $-1 $72 forward single #
face $-1 $73 $74 $43 $-1 $75 forward single #
face $-1 $76 $77 $45 $-1 $78 reversed single #
face $-1 $79 $80 $47 $-1 $81 forward single #
face $-1 $82 $83 $49 $-1 $84 forward single #
face $-1 $85 $86 $51 $-1 $87 forward single #
face $-1 $88 $89 $53 $-1 $90 reversed single #
face $-1 $91 $92 $55 $-1 $93 forward single #
face $-1 $94 $95 $57 $-1 $96 forward single #
face $-1 $97 $98 $59 $-1 $99 forward single #
face $-1 $100 $101 $41 $-1 $102 reversed single #
loop $-1 $-1 $103 $60 #
plane-surface $-1 0 0 11.013185305811186 0 0 1 1 0 0 forward_v I I I I #
face $-1 $104 $105 $43 $-1 $106 reversed single #
loop $-1 $-1 $107 $61 #
plane-surface $-1 0 -34.877711227451414 -7.8202455259062491 0 0 1 1 0 0 forward_v I I I I #
face $-1 $108 $109 $45 $-1 $110 reversed single #
loop $-1 $-1 $111 $62 #
plane-surface $-1 58.288824601901638 -13.578472866817819 201.20032414935969 0 -1 0 -0.66913061440640931 0 -0.74314481823134659 forward_v I I I I #
face $-1 $112 $113 $47 $-1 $114 forward single #
loop $-1 $115 $116 $63 #
cone-surface $-1 65.97449567055591 -26.317911609196667 8.6581946604714304 -0.66913061440640931 0 -0.74314481823134659 0.74314481823134659 0 -0.66913061440640931 1 I I 0 1 forward I I I I #
face $-1 $117 $118 $49 $-1 $119 forward single #
loop $-1 $120 $121 $64 #
cone-surface $-1 65.97449567055591 -21.540622080804599 8.6581946604714304 -0.66913061440640931 0 -0.74314481823134659 0.74314481823134659 0 -0.66913061440640931 1 I I 0 1 forward I I I I #
face $-1 $122 $123 $51 $-1 $124 forward single #
loop $-1 $125 $126 $65 #
cone-surface $-1 65.97449567055591 -16.763332552412532 8.6581946604714304 -0.66913061440640931 0 -0.74314481823134659 0.74314481823134659 0 -0.66913061440640931 1 I I 0 1 forward I I I I #
face $-1 $127 $128 $53 $-1 $129 reversed single #
loop $-1 $-1 $130 $66 #
plane-surface $-1 58.288824601901638 24.328352732137891 201.20032414935969 0 1 0 0.66913061440640931 0 0.74314481823134659 forward_v I I I I #
face $-1 $131 $132 $55 $-1 $133 forward single #
loop $-1 $134 $135 $67 #
cone-surface $-1 65.97449567055591 27.513212417732611 8.6581946604714304 -0.66913061440640931 0 -0.74314481823134659 0.74314481823134659 0 -0.66913061440640931 1 I I 0 1 forward I I I I #
face $-1 $136 $137 $57 $-1 $138 forward single #
loop $-1 $139 $140 $68 #
cone-surface $-1 65.97449567055591 32.290501946124671 8.6581946604714304 -0.66913061440640931 0 -0.74314481823134659 0.74314481823134659 0 -0.66913061440640931 1 I I 0 1 forward I I I I #
face $-1 $141 $142 $59 $-1 $143 forward single #
loop $-1 $144 $145 $69 #
cone-surface $-1 65.97449567055591 37.067791474516746 8.6581946604714304 -0.66913061440640931 0 -0.74314481823134659 0.74314481823134659 0 -0.66913061440640931 1 I I 0 1 forward I I I I #
face $-1 $146 $147 $41 $-1 $148 reversed single #
loop $-1 $-1 $149 $70 #
plane-surface $-1 0 0 -11.013185305811186 0 0 1 1 0 0 forward_v I I I I #
coedge $-1 $150 $151 $152 $153 forward $71 $-1 #
face $-1 $154 $155 $43 $-1 $156 reversed single #
loop $-1 $-1 $157 $73 #
plane-surface $-1 0 -29.50277129479138 -9.4167154158587181 0 -1 0 0 0 -1 forward_v I I I I #
coedge $-1 $158 $159 $160 $161 reversed $74 $-1 #
face $-1 $162 $163 $45 $-1 $164 reversed single #
loop $-1 $-1 $165 $76 #
plane-surface $-1 -33.270183630544935 -21.540622080804599 99.513745975524259 0.66913061440640931 0 0.74314481823134659 0.74314481823134659 0 -0.66913061440640931 forward_v I I I I #
coedge $-1 $166 $167 $168 $169 reversed $77 $-1 #
face $-1 $-1 $170 $47 $-1 $171 forward single #
loop $-1 $172 $173 $79 #
cone-surface $-1 64.896406523192255 -26.317911609196667 7.4608553873827557 -0.66913061440640931 0 -0.74314481823134659 0.3715724091156733 0 -0.33456530720320465 1 I I -0.70710678118654746 0.70710678118654746 forward I I I I #
loop $-1 $-1 $174 $63 #
coedge $-1 $116 $116 $175 $176 reversed $80 $-1 #
face $-1 $-1 $177 $49 $-1 $178 forward single #
loop $-1 $179 $180 $82 #
cone-surface $-1 64.896406523192255 -21.540622080804599 7.4608553873827557 -0.66913061440640931 0 -0.74314481823134659 0.3715724091156733 0 -0.33456530720320465 1 I I -0.70710678118654746 0.70710678118654746 forward I I I I #
loop $-1 $-1 $181 $64 #
coedge $-1 $121 $121 $182 $183 reversed $83 $-1 #
face $-1 $-1 $184 $51 $-1 $185 forward single #
loop $-1 $186 $187 $85 #
cone-surface $-1 64.896406523192255 -16.763332552412532 7.4608553873827557 -0.66913061440640931 0 -0.74314481823134659 0.3715724091156733 0 -0.33456530720320465 1 I I -0.70710678118654746 0.70710678118654746 forward I I I I #
loop $-1 $-1 $188 $65 #
coedge $-1 $126 $126 $189 $190 reversed $86 $-1 #
face $-1 $191 $192 $53 $-1 $193 reversed single #
loop $-1 $-1 $194 $88 #
plane-surface $-1 -33.270183630544935 32.290501946124671 99.513745975524259 0.66913061440640931 0 0.74314481823134659 0.74314481823134659 0 -0.66913061440640931 forward_v I I I I #
coedge $-1 $195 $196 $197 $198 reversed $89 $-1 #
face $-1 $-1 $199 $55 $-1 $200 forward single #
loop $-1 $201 $202 $91 #
cone-surface $-1 64.896406523192255 27.513212417732611 7.4608553873827557 -0.66913061440640931 0 -0.74314481823134659 0.3715724091156733 0 -0.33456530720320465 1 I I -0.70710678118654746 0.70710678118654746 forward I I I I #
loop $-1 $-1 $203 $67 #
coedge $-1 $135 $135 $204 $205 reversed $92 $-1 #
face $-1 $-1 $206 $57 $-1 $207 forward single #
loop $-1 $208 $209 $94 #
cone-surface $-1 64.896406523192255 32.290501946124671 7.4608553873827557 -0.66913061440640931 0 -0.74314481823134659 0.3715724091156733 0 -0.33456530720320465 1 I I -0.70710678118654746 0.70710678118654746 forward I I I I #
loop $-1 $-1 $210 $68 #
coedge $-1 $140 $140 $211 $212 reversed $95 $-1 #
face $-1 $-1 $213 $59 $-1 $214 forward single #
loop $-1 $215 $216 $97 #
cone-surface $-1 64.896406523192255 37.067791474516746 7.4608553873827557 -0.66913061440640931 0 -0.74314481823134659 0.3715724091156733 0 -0.33456530720320465 1 I I -0.70710678118654746 0.70710678118654746 forward I I I I #
loop $-1 $-1 $217 $69 #
coedge $-1 $145 $145 $218 $219 reversed $98 $-1 #
face $-1 $220 $221 $41 $-1 $222 reversed single #
loop $-1 $-1 $223 $100 #
plane-surface $-1 0 -40.252651160111448 0 0 1 0 0 0 1 forward_v I I I I #
coedge $-1 $224 $225 $226 $227 forward $101 $-1 #
coedge $-1 $228 $103 $229 $230 forward $71 $-1 #
coedge $-1 $103 $228 $231 $232 forward $71 $-1 #
coedge $-1 $233 $234 $103 $153 reversed $235 $-1 #
edge $-1 $236 $237 $152 $238 forward #
face $-1 $239 $240 $43 $-1 $241 reversed single #
loop $-1 $-1 $242 $104 #
plane-surface $-1 0 0 -11.013185305811186 0 0 1 1 0 0 forward_v I I I I #
coedge $-1 $243 $244 $245 $246 reversed $105 $-1 #
coedge $-1 $247 $107 $244 $248 forward $74 $-1 #
coedge $-1 $107 $247 $249 $250 reversed $74 $-1 #
coedge $-1 $251 $245 $107 $161 forward $240 $-1 #
edge $-1 $252 $253 $160 $254 forward #
face $-1 $255 $256 $45 $-1 $257 reversed single #
loop $-1 $-1 $258 $108 #
plane-surface $-1 58.288824601901638 -29.50277129479138 201.20032414935969 0 1 0 0.66913061440640931 0 0.74314481823134659 forward_v I I I I #
coedge $-1 $259 $260 $261 $262 reversed $109 $-1 #
coedge $-1 $167 $111 $263 $264 reversed $77 $-1 #
coedge $-1 $111 $166 $259 $265 reversed $77 $-1 #
coedge $-1 $261 $266 $111 $169 forward $267 $-1 #
edge $-1 $268 $269 $168 $270 forward #
loop $-1 $-1 $175 $112 #
plane-surface $-1 -33.270183630544935 -21.540622080804599 99.513745975524259 0.66913061440640931 0 0.74314481823134659 0.74314481823134659 0 -0.66913061440640931 forward_v I I I I #
loop $-1 $-1 $271 $79 #
coedge $-1 $173 $173 $174 $272 reversed $113 $-1 #
coedge $-1 $174 $174 $173 $272 forward $115 $-1 #
coedge $-1 $175 $175 $116 $176 forward $170 $-1 #
edge $-1 $273 $273 $175 $274 forward #
loop $-1 $-1 $182 $117 #
plane-surface $-1 -33.270183630544935 -21.540622080804599 99.513745975524259 0.66913061440640931 0 0.74314481823134659 0.74314481823134659 0 -0.66913061440640931 forward_v I I I I #
loop $-1 $-1 $275 $82 #
coedge $-1 $180 $180 $181 $276 reversed $118 $-1 #
coedge $-1 $181 $181 $180 $276 forward $120 $-1 #
coedge $-1 $182 $182 $121 $183 forward $177 $-1 #
edge $-1 $277 $277 $182 $278 forward #
loop $-1 $-1 $189 $122 #
plane-surface $-1 -33.270183630544935 -21.540622080804599 99.513745975524259 0.66913061440640931 0 0.74314481823134659 0.74314481823134659 0 -0.66913061440640931 forward_v I I I I #
loop $-1 $-1 $279 $85 #
coedge $-1 $187 $187 $188 $280 reversed $123 $-1 #
coedge $-1 $188 $188 $187 $280 forward $125 $-1 #
coedge $-1 $189 $189 $126 $190 forward $184 $-1 #
edge $-1 $281 $281 $189 $282 forward #
face $-1 $283 $284 $53 $-1 $285 forward single #
loop $-1 $-1 $197 $127 #
plane-surface $-1 68.416394543290508 0 0 -1 0 0 0 0 1 forward_v I I I I #
coedge $-1 $286 $287 $288 $289 reversed $128 $-1 #
coedge $-1 $196 $130 $290 $291 reversed $89 $-1 #
coedge $-1 $130 $195 $286 $292 reversed $89 $-1 #
coedge $-1 $288 $293 $130 $198 forward $192 $-1 #
edge $-1 $294 $295 $197 $296 forward #
loop $-1 $-1 $204 $131 #
plane-surface $-1 -33.270183630544935 32.290501946124671 99.513745975524259 0.66913061440640931 0 0.74314481823134659 0.74314481823134659 0 -0.66913061440640931 forward_v I I I I #
loop $-1 $-1 $297 $91 #
coedge $-1 $202 $202 $203 $298 reversed $132 $-1 #
coedge $-1 $203 $203 $202 $298 forward $134 $-1 #
coedge $-1 $204 $204 $135 $205 forward $199 $-1 #
edge $-1 $299 $299 $204 $300 forward #
loop $-1 $-1 $211 $136 #
plane-surface $-1 -33.270183630544935 32.290501946124671 99.513745975524259 0.66913061440640931 0 0.74314481823134659 0.74314481823134659 0 -0.66913061440640931 forward_v I I I I #
loop $-1 $-1 $301 $94 #
coedge $-1 $209 $209 $210 $302 reversed $137 $-1 #
coedge $-1 $210 $210 $209 $302 forward $139 $-1 #
coedge $-1 $211 $211 $140 $212 forward $206 $-1 #
edge $-1 $303 $303 $211 $304 forward #
loop $-1 $-1 $218 $141 #
plane-surface $-1 -33.270183630544935 32.290501946124671 99.513745975524259 0.66913061440640931 0 0.74314481823134659 0.74314481823134659 0 -0.66913061440640931 forward_v I I I I #
loop $-1 $-1 $305 $97 #
coedge $-1 $216 $216 $217 $306 reversed $142 $-1 #
coedge $-1 $217 $217 $216 $306 forward $144 $-1 #
coedge $-1 $218 $218 $145 $219 forward $213 $-1 #
edge $-1 $307 $307 $218 $308 forward #
face $-1 $309 $310 $41 $-1 $311 reversed single #
loop $-1 $-1 $312 $146 #
plane-surface $-1 -68.416394543290508 0 0 1 0 0 0 0 -1 forward_v I I I I #
coedge $-1 $313 $231 $314 $315 forward $147 $-1 #
coedge $-1 $316 $149 $313 $317 forward $101 $-1 #
coedge $-1 $149 $316 $318 $319 forward $101 $-1 #
coedge $-1 $234 $233 $149 $227 reversed $235 $-1 #
edge $-1 $320 $321 $226 $322 forward #
coedge $-1 $151 $150 $323 $324 forward $71 $-1 #
coedge $-1 $325 $326 $150 $230 reversed $310 $-1 #
edge $-1 $237 $327 $229 $328 forward #
coedge $-1 $223 $329 $151 $232 reversed $147 $-1 #
edge $-1 $330 $236 $231 $331 forward #
coedge $-1 $226 $152 $329 $332 forward $235 $-1 #
coedge $-1 $152 $226 $325 $333 reversed $235 $-1 #
loop $-1 $-1 $233 $309 #
vertex $-1 $153 $334 #
vertex $-1 $153 $335 #
straight-curve $-1 68.416394543290508 0 11.013185305811186 0 1 0 I I #
face $-1 $336 $337 $43 $-1 $338 reversed single #
loop $-1 $-1 $245 $154 #
plane-surface $-1 68.416394543290508 0 0 -1 0 0 0 0 1 forward_v I I I I #
coedge $-1 $339 $340 $243 $341 forward $155 $-1 #
coedge $-1 $342 $157 $242 $341 reversed $105 $-1 #
coedge $-1 $157 $342 $158 $248 reversed $105 $-1 #
coedge $-1 $160 $343 $157 $246 forward $240 $-1 #
edge $-1 $344 $252 $245 $345 forward #
coedge $-1 $159 $158 $346 $347 reversed $74 $-1 #
edge $-1 $252 $348 $244 $349 forward #
coedge $-1 $350 $351 $159 $250 forward $337 $-1 #
edge $-1 $253 $352 $249 $353 forward #
coedge $-1 $343 $160 $351 $354 forward $240 $-1 #
vertex $-1 $161 $355 #
vertex $-1 $354 $356 #
straight-curve $-1 68.416394543290508 -17.438855613725707 -7.8202455259062491 0 -1 0 I I #
face $-1 $-1 $267 $45 $-1 $357 forward single #
loop $-1 $-1 $358 $162 #
plane-surface $-1 68.416394543290508 0 0 -1 0 0 0 0 1 forward_v I I I I #
coedge $-1 $359 $360 $361 $362 reversed $163 $-1 #
coedge $-1 $363 $165 $167 $265 forward $109 $-1 #
coedge $-1 $165 $363 $359 $364 forward $109 $-1 #
coedge $-1 $361 $168 $165 $262 forward $267 $-1 #
edge $-1 $269 $365 $261 $366 forward #
coedge $-1 $367 $368 $166 $264 forward $256 $-1 #
edge $-1 $369 $268 $263 $370 forward #
edge $-1 $269 $369 $167 $371 forward #
coedge $-1 $168 $361 $367 $372 forward $267 $-1 #
loop $-1 $-1 $361 $255 #
vertex $-1 $264 $373 #
vertex $-1 $169 $374 #
straight-curve $-1 29.144412300950819 -13.578472866817819 11.013185305811191 -1 0 0 I I #
coedge $-1 $271 $271 $-1 $375 reversed $172 $-1 #
edge $-1 $376 $376 $173 $377 forward #
vertex $-1 $176 $378 #
ellipse-curve $-1 66.71801951071636 -26.317911609196667 9.48396152444443 0.66913061440640931 0 0.74314481823134659 0.74314481823134659 0 -0.66913061440640931 1 I I #
coedge $-1 $275 $275 $-1 $379 reversed $179 $-1 #
edge $-1 $380 $380 $180 $381 forward #
vertex $-1 $183 $382 #
ellipse-curve $-1 66.71801951071636 -21.540622080804599 9.48396152444443 0.66913061440640931 0 0.74314481823134659 0.74314481823134659 0 -0.66913061440640931 1 I I #
coedge $-1 $279 $279 $-1 $383 reversed $186 $-1 #
edge $-1 $384 $384 $187 $385 forward #
vertex $-1 $190 $386 #
ellipse-curve $-1 66.71801951071636 -16.763332552412532 9.48396152444443 0.66913061440640931 0 0.74314481823134659 0.74314481823134659 0 -0.66913061440640931 1 I I #
face $-1 $-1 $387 $53 $-1 $388 reversed single #
loop $-1 $-1 $290 $191 #
plane-surface $-1 0 0 11.013185305811186 0 0 1 1 0 0 forward_v I I I I #
coedge $-1 $389 $194 $196 $292 forward $128 $-1 #
coedge $-1 $194 $389 $390 $391 reversed $128 $-1 #
coedge $-1 $392 $197 $194 $289 forward $192 $-1 #
edge $-1 $295 $393 $288 $394 forward #
coedge $-1 $395 $396 $195 $291 forward $284 $-1 #
edge $-1 $397 $294 $290 $398 forward #
edge $-1 $295 $397 $196 $399 forward #
coedge $-1 $197 $392 $395 $400 reversed $192 $-1 #
vertex $-1 $400 $401 #
vertex $-1 $198 $402 #
straight-curve $-1 68.416394543290508 24.328352732137891 100.60016207467984 0 0 -1 I I #
coedge $-1 $297 $297 $-1 $403 reversed $201 $-1 #
edge $-1 $404 $404 $202 $405 forward #
vertex $-1 $205 $406 #
ellipse-curve $-1 66.71801951071636 27.513212417732611 9.48396152444443 0.66913061440640931 0 0.74314481823134659 0.74314481823134659 0 -0.66913061440640931 1 I I #
coedge $-1 $301 $301 $-1 $407 reversed $208 $-1 #
edge $-1 $408 $408 $209 $409 forward #
vertex $-1 $212 $410 #
ellipse-curve $-1 66.71801951071636 32.290501946124671 9.48396152444443 0.66913061440640931 0 0.74314481823134659 0.74314481823134659 0 -0.66913061440640931 1 I I #
coedge $-1 $305 $305 $-1 $411 reversed $215 $-1 #
edge $-1 $412 $412 $216 $413 forward #
vertex $-1 $219 $414 #
ellipse-curve $-1 66.71801951071636 37.067791474516746 9.48396152444443 0.66913061440640931 0 0.74314481823134659 0.74314481823134659 0 -0.66913061440640931 1 I I #
face $-1 $-1 $235 $41 $-1 $415 reversed single #
loop $-1 $-1 $325 $220 #
plane-surface $-1 0 40.252651160111448 0 0 -1 0 0 0 -1 forward_v I I I I #
coedge $-1 $416 $323 $326 $417 forward $221 $-1 #
coedge $-1 $329 $223 $224 $317 reversed $147 $-1 #
coedge $-1 $323 $416 $223 $315 reversed $221 $-1 #
edge $-1 $330 $418 $314 $419 forward #
coedge $-1 $225 $224 $416 $420 forward $101 $-1 #
edge $-1 $321 $418 $313 $421 forward #
coedge $-1 $326 $325 $225 $319 reversed $310 $-1 #
edge $-1 $422 $320 $318 $423 forward #
vertex $-1 $227 $424 #
vertex $-1 $332 $425 #
straight-curve $-1 68.416394543290508 0 -11.013185305811186 0 -1 0 I I #
coedge $-1 $312 $314 $228 $324 reversed $221 $-1 #
edge $-1 $327 $330 $323 $426 forward #
coedge $-1 $318 $229 $234 $333 forward $310 $-1 #
coedge $-1 $229 $318 $312 $417 reversed $310 $-1 #
vertex $-1 $230 $427 #
straight-curve $-1 0 40.252651160111448 11.013185305811186 -1 0 0 I I #
coedge $-1 $231 $313 $233 $332 reversed $147 $-1 #
vertex $-1 $324 $428 #
straight-curve $-1 0 -40.252651160111448 11.013185305811186 1 0 0 I I #
edge $-1 $236 $321 $233 $429 forward #
edge $-1 $237 $320 $234 $430 forward #
point $-1 68.416394543290508 -40.252651160111448 11.013185305811186 #
point $-1 68.416394543290508 40.252651160111448 11.013185305811186 #
face $-1 $-1 $431 $43 $-1 $432 reversed single #
loop $-1 $-1 $249 $239 #
plane-surface $-1 0 -40.252651160111448 0 0 1 0 0 0 1 forward_v I I I I #
coedge $-1 $433 $242 $343 $434 forward $155 $-1 #
coedge $-1 $242 $433 $435 $436 forward $155 $-1 #
edge $-1 $437 $344 $242 $438 forward #
coedge $-1 $244 $243 $439 $440 reversed $105 $-1 #
coedge $-1 $245 $251 $339 $434 reversed $240 $-1 #
vertex $-1 $434 $441 #
straight-curve $-1 68.416394543290508 -29.50277129479138 -4.708357707929359 0 0 1 I I #
coedge $-1 $439 $442 $247 $347 forward $431 $-1 #
edge $-1 $352 $348 $346 $443 forward #
vertex $-1 $347 $444 #
straight-curve $-1 0 -29.50277129479138 -7.8202455259062491 -1 0 0 I I #
coedge $-1 $445 $249 $442 $446 forward $337 $-1 #
coedge $-1 $249 $445 $251 $354 reversed $337 $-1 #
vertex $-1 $446 $447 #
straight-curve $-1 0 -40.252651160111448 -7.8202455259062491 -1 0 0 I I #
edge $-1 $253 $448 $251 $449 forward #
point $-1 68.416394543290508 -29.50277129479138 -7.8202455259062491 #
point $-1 68.416394543290508 -40.252651160111448 -7.8202455259062491 #
plane-surface $-1 0 0 11.013185305811186 0 0 1 1 0 0 forward_v I I I I #
coedge $-1 $368 $367 $360 $450 forward $256 $-1 #
coedge $-1 $360 $258 $260 $364 reversed $163 $-1 #
coedge $-1 $258 $359 $358 $450 reversed $163 $-1 #
coedge $-1 $266 $261 $258 $362 forward $267 $-1 #
edge $-1 $365 $451 $361 $452 forward #
coedge $-1 $260 $259 $368 $453 reversed $109 $-1 #
edge $-1 $454 $365 $359 $455 forward #
vertex $-1 $262 $456 #
straight-curve $-1 65.019644478142226 -10.7703110404023 11.013185305811184 0 -1 0 I I #
coedge $-1 $358 $263 $266 $372 reversed $256 $-1 #
coedge $-1 $263 $358 $363 $453 forward $256 $-1 #
vertex $-1 $264 $457 #
straight-curve $-1 68.416394543290508 -13.578472866817819 100.60016207467984 0 0 1 I I #
straight-curve $-1 -33.270183630544935 -13.578472866817819 99.513745975524259 0.74314481823134659 0 -0.66913061440640931 I I #
edge $-1 $451 $268 $367 $458 forward #
point $-1 68.416394543290508 -13.578472866817819 11.013185305811186 #
point $-1 65.019644478142183 -13.578472866817819 11.013185305811206 #
edge $-1 $459 $459 $271 $-1 forward #
vertex $-1 $272 $460 #
ellipse-curve $-1 65.230971830395461 -26.317911609196667 7.832427796498429 0.66913061440640931 0 0.74314481823134659 0.74314481823134659 0 -0.66913061440640931 1 I I #
point $-1 67.461164328947703 -26.317911609196667 8.8148309100380224 #
edge $-1 $461 $461 $275 $-1 forward #
vertex $-1 $276 $462 #
ellipse-curve $-1 65.230971830395461 -21.540622080804599 7.832427796498429 0.66913061440640931 0 0.74314481823134659 0.74314481823134659 0 -0.66913061440640931 1 I I #
point $-1 67.461164328947703 -21.540622080804599 8.8148309100380224 #
edge $-1 $463 $463 $279 $-1 forward #
vertex $-1 $280 $464 #
ellipse-curve $-1 65.230971830395461 -16.763332552412532 7.832427796498429 0.66913061440640931 0 0.74314481823134659 0.74314481823134659 0 -0.66913061440640931 1 I I #
point $-1 67.461164328947703 -16.763332552412532 8.8148309100380224 #
loop $-1 $-1 $390 $283 #
plane-surface $-1 0 40.252651160111448 0 0 -1 0 0 0 -1 forward_v I I I I #
coedge $-1 $287 $286 $396 $465 reversed $128 $-1 #
coedge $-1 $466 $467 $287 $391 forward $387 $-1 #
edge $-1 $393 $468 $390 $469 forward #
coedge $-1 $293 $288 $467 $470 reversed $192 $-1 #
vertex $-1 $289 $471 #
straight-curve $-1 68.416394543290494 16.145250973062335 7.9547377430776862 0 1 0 I I #
coedge $-1 $472 $290 $293 $400 forward $284 $-1 #
coedge $-1 $290 $472 $389 $465 forward $284 $-1 #
vertex $-1 $291 $473 #
straight-curve $-1 29.144412300950819 24.328352732137891 11.013185305811191 1 0 0 I I #
straight-curve $-1 -33.270183630544935 24.328352732137891 99.513745975524259 -0.74314481823134659 0 0.66913061440640931 I I #
edge $-1 $294 $474 $293 $475 forward #
point $-1 68.416394543290508 24.328352732137891 11.013185305811186 #
point $-1 68.416394543290494 24.328352732137891 7.9547377430776862 #
edge $-1 $476 $476 $297 $-1 forward #
vertex $-1 $298 $477 #
ellipse-curve $-1 65.230971830395461 27.513212417732611 7.832427796498429 0.66913061440640931 0 0.74314481823134659 0.74314481823134659 0 -0.66913061440640931 1 I I #
point $-1 67.461164328947703 27.513212417732611 8.8148309100380224 #
edge $-1 $478 $478 $301 $-1 forward #
vertex $-1 $302 $479 #
ellipse-curve $-1 65.230971830395461 32.290501946124671 7.832427796498429 0.66913061440640931 0 0.74314481823134659 0.74314481823134659 0 -0.66913061440640931 1 I I #
point $-1 67.461164328947703 32.290501946124671 8.8148309100380224 #
edge $-1 $480 $480 $305 $-1 forward #
vertex $-1 $306 $481 #
ellipse-curve $-1 65.230971830395461 37.067791474516746 7.832427796498429 0.66913061440640931 0 0.74314481823134659 0.74314481823134659 0 -0.66913061440640931 1 I I #
point $-1 67.461164328947703 37.067791474516746 8.8148309100380224 #
plane-surface $-1 68.416394543290508 0 0 -1 0 0 0 0 1 forward_v I I I I #
coedge $-1 $314 $312 $316 $420 reversed $221 $-1 #
edge $-1 $327 $422 $326 $482 forward #
vertex $-1 $420 $483 #
straight-curve $-1 -68.416394543290508 -40.252651160111448 0 0 0 -1 I I #
edge $-1 $418 $422 $416 $484 forward #
straight-curve $-1 0 -40.252651160111448 -11.013185305811186 -1 0 0 I I #
vertex $-1 $319 $485 #
straight-curve $-1 0 40.252651160111448 -11.013185305811186 1 0 0 I I #
point $-1 68.416394543290508 40.252651160111448 -11.013185305811186 #
point $-1 68.416394543290508 -40.252651160111448 -11.013185305811186 #
straight-curve $-1 -68.416394543290508 0 11.013185305811186 0 -1 0 I I #
point $-1 -68.416394543290508 40.252651160111448 11.013185305811186 #
point $-1 -68.416394543290508 -40.252651160111448 11.013185305811186 #
straight-curve $-1 68.416394543290508 -40.252651160111448 0 0 0 -1 I I #
straight-curve $-1 68.416394543290508 40.252651160111448 0 0 0 -1 I I #
loop $-1 $-1 $439 $336 #
plane-surface $-1 -68.416394543290508 0 0 1 0 0 0 0 -1 forward_v I I I I #
coedge $-1 $340 $339 $445 $486 forward $155 $-1 #
edge $-1 $344 $448 $343 $487 forward #
coedge $-1 $442 $439 $340 $436 reversed $431 $-1 #
edge $-1 $488 $437 $435 $489 forward #
vertex $-1 $440 $490 #
straight-curve $-1 0 -29.50277129479138 -11.013185305811186 1 0 0 I I #
coedge $-1 $435 $346 $342 $440 forward $431 $-1 #
edge $-1 $348 $437 $439 $491 forward #
point $-1 68.416394543290508 -29.50277129479138 -11.013185305811188 #
coedge $-1 $346 $435 $350 $446 reversed $431 $-1 #
straight-curve $-1 -68.416394543290508 -17.438855613725707 -7.8202455259062491 0 1 0 I I #
point $-1 -68.416394543290508 -29.50277129479138 -7.8202455259062491 #
coedge $-1 $351 $350 $433 $486 reversed $337 $-1 #
edge $-1 $352 $488 $442 $492 forward #
point $-1 -68.416394543290508 -40.252651160111448 -7.8202455259062491 #
vertex $-1 $354 $493 #
straight-curve $-1 68.416394543290508 -40.252651160111448 0 0 0 -1 I I #
edge $-1 $451 $454 $358 $494 forward #
vertex $-1 $372 $495 #
straight-curve $-1 29.144412300950819 -29.50277129479138 11.013185305811191 1 0 0 I I #
edge $-1 $454 $369 $368 $496 forward #
vertex $-1 $453 $497 #
straight-curve $-1 -33.270183630544935 -29.50277129479138 99.513745975524259 -0.74314481823134659 0 0.66913061440640931 I I #
point $-1 65.019644478142183 -29.50277129479138 11.013185305811206 #
point $-1 68.416394543290494 -13.578472866817819 7.9547377430776862 #
straight-curve $-1 68.416394543290508 0 11.013185305811186 0 1 0 I I #
vertex $-1 $375 $498 #
point $-1 65.974116648626804 -26.317911609196667 7.1632971820920197 #
vertex $-1 $379 $499 #
point $-1 65.974116648626804 -21.540622080804599 7.1632971820920197 #
vertex $-1 $383 $500 #
point $-1 65.974116648626804 -16.763332552412532 7.1632971820920197 #
edge $-1 $468 $397 $396 $501 forward #
coedge $-1 $467 $390 $472 $502 reversed $387 $-1 #
coedge $-1 $390 $466 $392 $470 forward $387 $-1 #
vertex $-1 $391 $503 #
straight-curve $-1 0.65893226183509412 40.252651160111448 68.963832141277621 -0.74314481823134659 0 0.66913061440640931 I I #
edge $-1 $474 $393 $392 $504 forward #
point $-1 68.416394543290508 40.252651160111448 7.9547377430776782 #
coedge $-1 $396 $395 $466 $502 forward $284 $-1 #
point $-1 65.019644478142183 24.328352732137891 11.013185305811206 #
vertex $-1 $400 $505 #
straight-curve $-1 68.416394543290508 0 11.013185305811186 0 1 0 I I #
vertex $-1 $403 $506 #
point $-1 65.974116648626804 27.513212417732611 7.1632971820920197 #
vertex $-1 $407 $507 #
point $-1 65.974116648626804 32.290501946124671 7.1632971820920197 #
vertex $-1 $411 $508 #
point $-1 65.974116648626804 37.067791474516746 7.1632971820920197 #
straight-curve $-1 -68.416394543290508 40.252651160111448 0 0 0 -1 I I #
point $-1 -68.416394543290508 -40.252651160111448 -11.013185305811186 #
straight-curve $-1 -68.416394543290508 0 -11.013185305811186 0 1 0 I I #
point $-1 -68.416394543290508 40.252651160111448 -11.013185305811186 #
edge $-1 $448 $488 $445 $509 forward #
straight-curve $-1 68.416394543290508 0 -11.013185305811186 0 -1 0 I I #
vertex $-1 $436 $510 #
straight-curve $-1 -68.416394543290508 0 -11.013185305811186 0 1 0 I I #
point $-1 -68.416394543290508 -29.50277129479138 -11.013185305811188 #
straight-curve $-1 -68.416394543290508 -29.50277129479138 -4.708357707929359 0 0 -1 I I #
straight-curve $-1 -68.416394543290508 -40.252651160111448 0 0 0 -1 I I #
point $-1 68.416394543290508 -40.252651160111448 -11.013185305811186 #
straight-curve $-1 68.416394543290508 -29.50277129479138 100.60016207467984 0 0 -1 I I #
point $-1 68.416394543290508 -29.50277129479138 11.013185305811186 #
straight-curve $-1 68.416394543290494 -10.7703110404023 7.9547377430776862 0 1 0 I I #
point $-1 68.416394543290494 -29.50277129479138 7.9547377430776862 #
point $-1 64.561841215989048 -26.317911609196667 7.0892829782670823 #
point $-1 64.561841215989048 -21.540622080804599 7.0892829782670823 #
point $-1 64.561841215989048 -16.763332552412532 7.0892829782670823 #
straight-curve $-1 65.019644478142226 16.145250973062335 11.013185305811184 0 -1 0 I I #
edge $-1 $474 $468 $466 $511 forward #
point $-1 65.019644478142183 40.252651160111455 11.013185305811206 #
straight-curve $-1 68.416394543290508 40.252651160111448 0 0 0 -1 I I #
point $-1 68.416394543290508 40.252651160111448 11.013185305811186 #
point $-1 64.561841215989048 27.513212417732611 7.0892829782670823 #
point $-1 64.561841215989048 32.290501946124671 7.0892829782670823 #
point $-1 64.561841215989048 37.067791474516746 7.0892829782670823 #
straight-curve $-1 0 -40.252651160111448 -11.013185305811186 -1 0 0 I I #
point $-1 -68.416394543290508 -40.252651160111448 -11.013185305811186 #
straight-curve $-1 0 40.252651160111448 11.013185305811186 -1 0 0 I I #
End-of-ACIS-data 