300 0 14 0           
7 Unknown 11 ACIS 3.0 NT 24 Fri Oct 30 15:18:37 1998 
-1 9.9999999999999995e-007 1e-010 
body $14 $15 $-1 $16 #
body $17 $18 $-1 $19 #
body $20 $21 $-1 $22 #
body $23 $24 $-1 $25 #
body $26 $27 $-1 $28 #
body $29 $30 $-1 $31 #
body $32 $33 $-1 $34 #
body $35 $36 $-1 $37 #
body $38 $39 $-1 $40 #
body $41 $42 $-1 $43 #
body $44 $45 $-1 $46 #
body $47 $48 $-1 $49 #
body $50 $51 $-1 $52 #
body $53 $54 $-1 $55 #
display_attribute-st-attrib $-1 $56 $-1 $0 2 #
lump $-1 $-1 $57 $0 #
transform $-1 1 0 0 0 1 0 0 0 1 66.472975859859005 27.165531554362193 8.0961027373309733 1 rotate no_reflect no_shear #
display_attribute-st-attrib $-1 $58 $-1 $1 1 #
lump $-1 $-1 $59 $1 #
transform $-1 1 0 0 0 1 0 0 0 1 66.472975859859005 27.165531554362193 8.0961027373309733 1 rotate no_reflect no_shear #
display_attribute-st-attrib $-1 $60 $-1 $2 12 #
lump $-1 $-1 $61 $2 #
transform $-1 1 0 0 0 1 0 0 0 1 66.472975859859005 27.165531554362193 8.0961027373309733 1 rotate no_reflect no_shear #
display_attribute-st-attrib $-1 $62 $-1 $3 11 #
lump $-1 $-1 $63 $3 #
transform $-1 1 0 0 0 1 0 0 0 1 66.472975859859005 27.165531554362193 8.0961027373309733 1 rotate no_reflect no_shear #
display_attribute-st-attrib $-1 $64 $-1 $4 10 #
lump $-1 $-1 $65 $4 #
transform $-1 1 0 0 0 1 0 0 0 1 66.472975859859005 27.165531554362193 8.0961027373309733 1 rotate no_reflect no_shear #
display_attribute-st-attrib $-1 $66 $-1 $5 9 #
lump $-1 $-1 $67 $5 #
transform $-1 1 0 0 0 1 0 0 0 1 66.472975859859005 27.165531554362193 8.0961027373309733 1 rotate no_reflect no_shear #
display_attribute-st-attrib $-1 $68 $-1 $6 8 #
lump $-1 $-1 $69 $6 #
transform $-1 1 0 0 0 1 0 0 0 1 66.472975859859005 27.165531554362193 8.0961027373309733 1 rotate no_reflect no_shear #
display_attribute-st-attrib $-1 $70 $-1 $7 7 #
lump $-1 $-1 $71 $7 #
transform $-1 1 0 0 0 1 0 0 0 1 66.472975859859005 27.165531554362193 8.0961027373309733 1 rotate no_reflect no_shear #
display_attribute-st-attrib $-1 $72 $-1 $8 6 #
lump $-1 $-1 $73 $8 #
transform $-1 1 0 0 0 1 0 0 0 1 66.472975859859005 27.165531554362193 8.0961027373309733 1 rotate no_reflect no_shear #
display_attribute-st-attrib $-1 $74 $-1 $9 5 #
lump $-1 $-1 $75 $9 #
transform $-1 1 0 0 0 1 0 0 0 1 66.472975859859005 27.165531554362193 8.0961027373309733 1 rotate no_reflect no_shear #
display_attribute-st-attrib $-1 $76 $-1 $10 4 #
lump $-1 $-1 $77 $10 #
transform $-1 1 0 0 0 1 0 0 0 1 66.472975859859005 27.165531554362193 8.0961027373309733 1 rotate no_reflect no_shear #
display_attribute-st-attrib $-1 $78 $-1 $11 3 #
lump $-1 $-1 $79 $11 #
transform $-1 1 0 0 0 1 0 0 0 1 66.472975859859005 27.165531554362193 8.0961027373309733 1 rotate no_reflect no_shear #
display_attribute-st-attrib $-1 $80 $-1 $12 2 #
lump $-1 $-1 $81 $12 #
transform $-1 1 0 0 0 1 0 0 0 1 66.472975859859005 27.165531554362193 8.0961027373309733 1 rotate no_reflect no_shear #
display_attribute-st-attrib $-1 $82 $-1 $13 1 #
lump $-1 $-1 $83 $13 #
transform $-1 1 0 0 0 1 0 0 0 1 66.472975859859005 27.165531554362193 8.0961027373309733 1 rotate no_reflect no_shear #
id_attribute-st-attrib $-1 $-1 $14 $0 2813 #
shell $-1 $-1 $-1 $84 $-1 $15 #
id_attribute-st-attrib $-1 $-1 $17 $1 2821 #
shell $-1 $-1 $-1 $85 $-1 $18 #
id_attribute-st-attrib $-1 $-1 $20 $2 2837 #
shell $-1 $-1 $-1 $86 $-1 $21 #
id_attribute-st-attrib $-1 $-1 $23 $3 2844 #
shell $-1 $-1 $-1 $87 $-1 $24 #
id_attribute-st-attrib $-1 $-1 $26 $4 2852 #
shell $-1 $-1 $-1 $88 $-1 $27 #
id_attribute-st-attrib $-1 $-1 $29 $5 2861 #
shell $-1 $-1 $-1 $89 $-1 $30 #
id_attribute-st-attrib $-1 $-1 $32 $6 2871 #
shell $-1 $-1 $-1 $90 $-1 $33 #
id_attribute-st-attrib $-1 $-1 $35 $7 2882 #
shell $-1 $-1 $-1 $91 $-1 $36 #
id_attribute-st-attrib $-1 $-1 $38 $8 2902 #
shell $-1 $-1 $-1 $92 $-1 $39 #
id_attribute-st-attrib $-1 $-1 $41 $9 2915 #
shell $-1 $-1 $-1 $93 $-1 $42 #
id_attribute-st-attrib $-1 $-1 $44 $10 2929 #
shell $-1 $-1 $-1 $94 $-1 $45 #
id_attribute-st-attrib $-1 $-1 $47 $11 2944 #
shell $-1 $-1 $-1 $95 $-1 $48 #
id_attribute-st-attrib $-1 $-1 $50 $12 2960 #
shell $-1 $-1 $-1 $96 $-1 $51 #
id_attribute-st-attrib $-1 $-1 $53 $13 2977 #
shell $-1 $-1 $-1 $97 $-1 $54 #
face $-1 $98 $99 $57 $-1 $100 forward single #
face $-1 $101 $102 $59 $-1 $103 forward single #
face $-1 $104 $105 $61 $-1 $106 reversed single #
face $-1 $107 $108 $63 $-1 $109 forward single #
face $-1 $110 $111 $65 $-1 $112 forward single #
face $-1 $113 $114 $67 $-1 $115 reversed single #
face $-1 $116 $117 $69 $-1 $118 forward single #
face $-1 $119 $120 $71 $-1 $121 forward single #
face $-1 $122 $123 $73 $-1 $124 reversed single #
face $-1 $125 $126 $75 $-1 $127 forward single #
face $-1 $128 $129 $77 $-1 $130 forward single #
face $-1 $131 $132 $79 $-1 $133 reversed single #
face $-1 $134 $135 $81 $-1 $136 forward single #
face $-1 $137 $138 $83 $-1 $139 forward single #
face $-1 $140 $141 $57 $-1 $142 reversed single #
loop $-1 $-1 $143 $84 #
plane-surface $-1 0 0 8.0961027373309733 0 0 1 1 0 0 forward_v I I I I #
face $-1 $144 $145 $59 $-1 $146 reversed single #
loop $-1 $-1 $147 $85 #
plane-surface $-1 -66.472975859859005 0 0 1 0 0 0 0 -1 forward_v I I I I #
face $-1 $148 $149 $61 $-1 $150 reversed single #
loop $-1 $-1 $151 $86 #
plane-surface $-1 -25.890601260116924 117.10246060060234 115.40758428467933 1 0 0 0 -0.87461971476443456 -0.48480960649040278 forward_v I I I I #
face $-1 $152 $153 $63 $-1 $154 forward single #
loop $-1 $155 $156 $87 #
cone-surface $-1 -20.093100212087791 25.436401199746609 5.5231919793951549 0 -0.87461971476443456 -0.48480960649040278 0.5 0 0 1 I I 0 1 forward I I I I #
face $-1 $157 $158 $65 $-1 $159 forward single #
loop $-1 $160 $161 $88 #
cone-surface $-1 -11.396848640044091 25.436401199746609 5.5231919793951549 0 -0.87461971476443456 -0.48480960649040278 0.5 0 0 1 I I 0 1 forward I I I I #
face $-1 $162 $163 $67 $-1 $164 reversed single #
loop $-1 $-1 $165 $89 #
plane-surface $-1 14.60507898706512 117.10246060060234 115.40758428467933 1 0 0 0 -0.87461971476443456 -0.48480960649040278 forward_v I I I I #
face $-1 $166 $167 $69 $-1 $168 forward single #
loop $-1 $169 $170 $90 #
cone-surface $-1 20.40258003509426 25.436401199746609 5.5231919793951549 0 -0.87461971476443456 -0.48480960649040278 0.5 0 0 1 I I 0 1 forward I I I I #
face $-1 $171 $172 $71 $-1 $173 forward single #
loop $-1 $174 $175 $91 #
cone-surface $-1 29.098831607137953 25.436401199746609 5.5231919793951549 0 -0.87461971476443456 -0.48480960649040278 0.5 0 0 1 I I 0 1 forward I I I I #
face $-1 $176 $177 $73 $-1 $178 reversed single #
loop $-1 $-1 $179 $92 #
plane-surface $-1 -5.5993475920149649 -143.44268192654826 67.888565365678318 -1 0 0 0 -0.87461971476443456 0.48480960649040278 forward_v I I I I #
face $-1 $180 $181 $75 $-1 $182 forward single #
loop $-1 $183 $184 $93 #
cone-surface $-1 -20.093100212087791 -25.436401199746612 5.5231919793951567 0 0.87461971476443456 -0.48480960649040278 0.5 0 0 1 I I 0 1 forward I I I I #
face $-1 $185 $186 $77 $-1 $187 forward single #
loop $-1 $188 $189 $94 #
cone-surface $-1 -11.396848640044091 -25.436401199746612 5.5231919793951567 0 0.87461971476443456 -0.48480960649040278 0.5 0 0 1 I I 0 1 forward I I I I #
face $-1 $190 $191 $79 $-1 $192 reversed single #
loop $-1 $-1 $193 $95 #
plane-surface $-1 34.896332655167079 -143.44268192654826 67.888565365678318 -1 0 0 0 -0.87461971476443456 0.48480960649040278 forward_v I I I I #
face $-1 $194 $195 $81 $-1 $196 forward single #
loop $-1 $197 $198 $96 #
cone-surface $-1 20.40258003509426 -25.436401199746612 5.5231919793951567 0 0.87461971476443456 -0.48480960649040278 0.5 0 0 1 I I 0 1 forward I I I I #
face $-1 $199 $200 $83 $-1 $201 forward single #
loop $-1 $202 $203 $97 #
cone-surface $-1 29.098831607137953 -25.436401199746612 5.5231919793951567 0 0.87461971476443456 -0.48480960649040278 0.5 0 0 1 I I 0 1 forward I I I I #
face $-1 $204 $205 $57 $-1 $206 reversed single #
loop $-1 $-1 $207 $98 #
plane-surface $-1 0 0 -8.0961027373309733 0 0 1 1 0 0 forward_v I I I I #
coedge $-1 $208 $209 $210 $211 forward $99 $-1 #
face $-1 $212 $213 $59 $-1 $214 forward single #
loop $-1 $-1 $215 $101 #
plane-surface $-1 0 27.165531554362193 0 0 -1 0 0 0 -1 forward_v I I I I #
coedge $-1 $216 $217 $218 $219 forward $102 $-1 #
face $-1 $220 $221 $61 $-1 $222 reversed single #
loop $-1 $-1 $223 $104 #
plane-surface $-1 -15.744974426065944 0.82531022841628499 50.954109746950749 0 0.87461971476443456 0.48480960649040278 1 0 0 forward_v I I I I #
coedge $-1 $224 $225 $226 $227 reversed $105 $-1 #
face $-1 $-1 $228 $63 $-1 $229 forward single #
loop $-1 $230 $231 $107 #
cone-surface $-1 -20.093100212087791 24.780436413673282 5.1595847745273531 0 -0.87461971476443456 -0.48480960649040278 0.25 0 0 1 I I -0.70710678118654746 0.70710678118654746 forward I I I I #
loop $-1 $-1 $232 $87 #
coedge $-1 $156 $156 $233 $234 reversed $108 $-1 #
face $-1 $-1 $235 $65 $-1 $236 forward single #
loop $-1 $237 $238 $110 #
cone-surface $-1 -11.396848640044091 24.780436413673282 5.1595847745273531 0 -0.87461971476443456 -0.48480960649040278 0.25 0 0 1 I I -0.70710678118654746 0.70710678118654746 forward I I I I #
loop $-1 $-1 $239 $88 #
coedge $-1 $161 $161 $240 $241 reversed $111 $-1 #
face $-1 $242 $243 $67 $-1 $244 reversed single #
loop $-1 $-1 $245 $113 #
plane-surface $-1 24.7507058211161 0.82531022841628499 50.954109746950749 0 0.87461971476443456 0.48480960649040278 1 0 0 forward_v I I I I #
coedge $-1 $246 $247 $248 $249 reversed $114 $-1 #
face $-1 $-1 $250 $69 $-1 $251 forward single #
loop $-1 $252 $253 $116 #
cone-surface $-1 20.40258003509426 24.780436413673282 5.1595847745273531 0 -0.87461971476443456 -0.48480960649040278 0.25 0 0 1 I I -0.70710678118654746 0.70710678118654746 forward I I I I #
loop $-1 $-1 $254 $90 #
coedge $-1 $170 $170 $255 $256 reversed $117 $-1 #
face $-1 $-1 $257 $71 $-1 $258 forward single #
loop $-1 $259 $260 $119 #
cone-surface $-1 29.098831607137953 24.780436413673282 5.1595847745273531 0 -0.87461971476443456 -0.48480960649040278 0.25 0 0 1 I I -0.70710678118654746 0.70710678118654746 forward I I I I #
loop $-1 $-1 $261 $91 #
coedge $-1 $175 $175 $262 $263 reversed $120 $-1 #
face $-1 $264 $265 $73 $-1 $266 reversed single #
loop $-1 $-1 $267 $122 #
plane-surface $-1 -15.744974426065944 -27.165531554362204 3.4350908279497361 0 -0.87461971476443456 0.48480960649040278 1 0 0 forward_v I I I I #
coedge $-1 $268 $269 $270 $271 reversed $123 $-1 #
face $-1 $-1 $272 $75 $-1 $273 forward single #
loop $-1 $274 $275 $125 #
cone-surface $-1 -20.093100212087791 -24.780436413673286 5.1595847745273549 0 0.87461971476443456 -0.48480960649040278 0.25 0 0 1 I I -0.70710678118654746 0.70710678118654746 forward I I I I #
loop $-1 $-1 $276 $93 #
coedge $-1 $184 $184 $277 $278 reversed $126 $-1 #
face $-1 $-1 $279 $77 $-1 $280 forward single #
loop $-1 $281 $282 $128 #
cone-surface $-1 -11.396848640044091 -24.780436413673286 5.1595847745273549 0 0.87461971476443456 -0.48480960649040278 0.25 0 0 1 I I -0.70710678118654746 0.70710678118654746 forward I I I I #
loop $-1 $-1 $283 $94 #
coedge $-1 $189 $189 $284 $285 reversed $129 $-1 #
face $-1 $286 $287 $79 $-1 $288 reversed single #
loop $-1 $-1 $289 $131 #
plane-surface $-1 24.7507058211161 -27.165531554362204 3.4350908279497361 0 -0.87461971476443456 0.48480960649040278 1 0 0 forward_v I I I I #
coedge $-1 $290 $291 $292 $293 reversed $132 $-1 #
face $-1 $-1 $294 $81 $-1 $295 forward single #
loop $-1 $296 $297 $134 #
cone-surface $-1 20.40258003509426 -24.780436413673286 5.1595847745273549 0 0.87461971476443456 -0.48480960649040278 0.25 0 0 1 I I -0.70710678118654746 0.70710678118654746 forward I I I I #
loop $-1 $-1 $298 $96 #
coedge $-1 $198 $198 $299 $300 reversed $135 $-1 #
face $-1 $-1 $301 $83 $-1 $302 forward single #
loop $-1 $303 $304 $137 #
cone-surface $-1 29.098831607137953 -24.780436413673286 5.1595847745273549 0 0.87461971476443456 -0.48480960649040278 0.25 0 0 1 I I -0.70710678118654746 0.70710678118654746 forward I I I I #
loop $-1 $-1 $305 $97 #
coedge $-1 $203 $203 $306 $307 reversed $138 $-1 #
face $-1 $308 $309 $57 $-1 $310 reversed single #
loop $-1 $-1 $311 $140 #
plane-surface $-1 0 -27.165531554362193 0 0 1 0 0 0 1 forward_v I I I I #
coedge $-1 $312 $313 $314 $315 forward $141 $-1 #
coedge $-1 $316 $143 $317 $318 forward $99 $-1 #
coedge $-1 $143 $316 $319 $320 forward $99 $-1 #
coedge $-1 $321 $322 $143 $211 reversed $323 $-1 #
edge $-1 $324 $325 $210 $326 forward #
face $-1 $327 $328 $59 $-1 $329 reversed single #
loop $-1 $-1 $218 $144 #
plane-surface $-1 -70.975841557384072 0 -5.0961027373309733 0 0 1 1 0 0 forward_v I I I I #
coedge $-1 $330 $331 $217 $332 forward $145 $-1 #
coedge $-1 $333 $147 $334 $335 reversed $102 $-1 #
coedge $-1 $147 $333 $215 $332 reversed $102 $-1 #
coedge $-1 $336 $337 $147 $219 reversed $213 $-1 #
edge $-1 $338 $339 $218 $340 forward #
face $-1 $341 $342 $61 $-1 $343 forward single #
loop $-1 $-1 $344 $148 #
plane-surface $-1 -5.5993475920149649 117.10246060060234 115.40758428467933 -1 0 0 0 0.87461971476443456 0.48480960649040278 forward_v I I I I #
coedge $-1 $345 $346 $347 $348 reversed $149 $-1 #
coedge $-1 $225 $151 $349 $350 reversed $105 $-1 #
coedge $-1 $151 $224 $345 $351 reversed $105 $-1 #
coedge $-1 $347 $352 $151 $227 forward $342 $-1 #
edge $-1 $353 $354 $226 $355 forward #
loop $-1 $-1 $233 $152 #
plane-surface $-1 -15.744974426065944 0.82531022841628499 50.954109746950749 0 0.87461971476443456 0.48480960649040278 1 0 0 forward_v I I I I #
loop $-1 $-1 $356 $107 #
coedge $-1 $231 $231 $232 $357 reversed $153 $-1 #
coedge $-1 $232 $232 $231 $357 forward $155 $-1 #
coedge $-1 $233 $233 $156 $234 forward $228 $-1 #
edge $-1 $358 $358 $233 $359 forward #
loop $-1 $-1 $240 $157 #
plane-surface $-1 -15.744974426065944 0.82531022841628499 50.954109746950749 0 0.87461971476443456 0.48480960649040278 1 0 0 forward_v I I I I #
loop $-1 $-1 $360 $110 #
coedge $-1 $238 $238 $239 $361 reversed $158 $-1 #
coedge $-1 $239 $239 $238 $361 forward $160 $-1 #
coedge $-1 $240 $240 $161 $241 forward $235 $-1 #
edge $-1 $362 $362 $240 $363 forward #
face $-1 $364 $365 $67 $-1 $366 forward single #
loop $-1 $-1 $367 $162 #
plane-surface $-1 34.896332655167079 117.10246060060234 115.40758428467933 -1 0 0 0 0.87461971476443456 0.48480960649040278 forward_v I I I I #
coedge $-1 $368 $369 $370 $371 reversed $163 $-1 #
coedge $-1 $247 $165 $372 $373 reversed $114 $-1 #
coedge $-1 $165 $246 $368 $374 reversed $114 $-1 #
coedge $-1 $370 $375 $165 $249 forward $365 $-1 #
edge $-1 $376 $377 $248 $378 forward #
loop $-1 $-1 $255 $166 #
plane-surface $-1 24.7507058211161 0.82531022841628499 50.954109746950749 0 0.87461971476443456 0.48480960649040278 1 0 0 forward_v I I I I #
loop $-1 $-1 $379 $116 #
coedge $-1 $253 $253 $254 $380 reversed $167 $-1 #
coedge $-1 $254 $254 $253 $380 forward $169 $-1 #
coedge $-1 $255 $255 $170 $256 forward $250 $-1 #
edge $-1 $381 $381 $255 $382 forward #
loop $-1 $-1 $262 $171 #
plane-surface $-1 24.7507058211161 0.82531022841628499 50.954109746950749 0 0.87461971476443456 0.48480960649040278 1 0 0 forward_v I I I I #
loop $-1 $-1 $383 $119 #
coedge $-1 $260 $260 $261 $384 reversed $172 $-1 #
coedge $-1 $261 $261 $260 $384 forward $174 $-1 #
coedge $-1 $262 $262 $175 $263 forward $257 $-1 #
edge $-1 $385 $385 $262 $386 forward #
face $-1 $387 $388 $73 $-1 $389 reversed single #
loop $-1 $-1 $390 $176 #
plane-surface $-1 -25.890601260116924 -143.44268192654826 67.888565365678318 1 0 0 0 0.87461971476443456 -0.48480960649040278 forward_v I I I I #
coedge $-1 $391 $392 $393 $394 reversed $177 $-1 #
coedge $-1 $269 $179 $395 $396 reversed $123 $-1 #
coedge $-1 $179 $268 $391 $397 reversed $123 $-1 #
coedge $-1 $393 $398 $179 $271 forward $399 $-1 #
edge $-1 $400 $401 $270 $402 forward #
loop $-1 $-1 $277 $180 #
plane-surface $-1 -15.744974426065944 -27.165531554362204 3.4350908279497361 0 -0.87461971476443456 0.48480960649040278 1 0 0 forward_v I I I I #
loop $-1 $-1 $403 $125 #
coedge $-1 $275 $275 $276 $404 reversed $181 $-1 #
coedge $-1 $276 $276 $275 $404 forward $183 $-1 #
coedge $-1 $277 $277 $184 $278 forward $272 $-1 #
edge $-1 $405 $405 $277 $406 forward #
loop $-1 $-1 $284 $185 #
plane-surface $-1 -15.744974426065944 -27.165531554362204 3.4350908279497361 0 -0.87461971476443456 0.48480960649040278 1 0 0 forward_v I I I I #
loop $-1 $-1 $407 $128 #
coedge $-1 $282 $282 $283 $408 reversed $186 $-1 #
coedge $-1 $283 $283 $282 $408 forward $188 $-1 #
coedge $-1 $284 $284 $189 $285 forward $279 $-1 #
edge $-1 $409 $409 $284 $410 forward #
face $-1 $411 $412 $79 $-1 $413 reversed single #
loop $-1 $-1 $414 $190 #
plane-surface $-1 14.60507898706512 -143.44268192654826 67.888565365678318 1 0 0 0 0.87461971476443456 -0.48480960649040278 forward_v I I I I #
coedge $-1 $415 $416 $417 $418 reversed $191 $-1 #
coedge $-1 $291 $193 $419 $420 reversed $132 $-1 #
coedge $-1 $193 $290 $415 $421 reversed $132 $-1 #
coedge $-1 $417 $422 $193 $293 forward $423 $-1 #
edge $-1 $424 $425 $292 $426 forward #
loop $-1 $-1 $299 $194 #
plane-surface $-1 24.7507058211161 -27.165531554362204 3.4350908279497361 0 -0.87461971476443456 0.48480960649040278 1 0 0 forward_v I I I I #
loop $-1 $-1 $427 $134 #
coedge $-1 $297 $297 $298 $428 reversed $195 $-1 #
coedge $-1 $298 $298 $297 $428 forward $197 $-1 #
coedge $-1 $299 $299 $198 $300 forward $294 $-1 #
edge $-1 $429 $429 $299 $430 forward #
loop $-1 $-1 $306 $199 #
plane-surface $-1 24.7507058211161 -27.165531554362204 3.4350908279497361 0 -0.87461971476443456 0.48480960649040278 1 0 0 forward_v I I I I #
loop $-1 $-1 $431 $137 #
coedge $-1 $304 $304 $305 $432 reversed $200 $-1 #
coedge $-1 $305 $305 $304 $432 forward $202 $-1 #
coedge $-1 $306 $306 $203 $307 forward $301 $-1 #
edge $-1 $433 $433 $306 $434 forward #
face $-1 $435 $436 $57 $-1 $437 reversed single #
loop $-1 $-1 $438 $204 #
plane-surface $-1 -66.472975859859005 0 0 1 0 0 0 0 -1 forward_v I I I I #
coedge $-1 $439 $319 $438 $440 forward $205 $-1 #
coedge $-1 $441 $207 $439 $442 forward $141 $-1 #
coedge $-1 $207 $441 $443 $444 forward $141 $-1 #
coedge $-1 $322 $321 $207 $315 reversed $323 $-1 #
edge $-1 $445 $446 $314 $447 forward #
coedge $-1 $209 $208 $448 $449 forward $99 $-1 #
coedge $-1 $450 $451 $208 $318 reversed $436 $-1 #
edge $-1 $325 $452 $317 $453 forward #
coedge $-1 $311 $454 $209 $320 reversed $205 $-1 #
edge $-1 $455 $324 $319 $456 forward #
coedge $-1 $314 $210 $454 $457 forward $323 $-1 #
coedge $-1 $210 $314 $450 $458 reversed $323 $-1 #
loop $-1 $-1 $321 $435 #
vertex $-1 $211 $459 #
vertex $-1 $211 $460 #
straight-curve $-1 66.472975859859005 0 8.0961027373309733 0 1 0 I I #
face $-1 $461 $462 $59 $-1 $463 reversed single #
loop $-1 $-1 $464 $212 #
plane-surface $-1 -75.478707254909139 0 -6.5961027373309733 1 0 0 0 0 -1 forward_v I I I I #
coedge $-1 $465 $215 $466 $467 reversed $145 $-1 #
coedge $-1 $215 $465 $336 $468 reversed $145 $-1 #
edge $-1 $338 $469 $215 $470 forward #
coedge $-1 $217 $216 $471 $472 reversed $102 $-1 #
coedge $-1 $473 $474 $216 $335 forward $475 $-1 #
edge $-1 $476 $339 $334 $477 forward #
coedge $-1 $478 $218 $331 $468 forward $213 $-1 #
coedge $-1 $218 $478 $473 $479 forward $213 $-1 #
vertex $-1 $332 $480 #
vertex $-1 $479 $481 #
straight-curve $-1 -66.472975859859005 0 -5.0961027373309733 0 -1 0 I I #
face $-1 $-1 $482 $61 $-1 $483 reversed single #
loop $-1 $-1 $226 $220 #
plane-surface $-1 0 0 8.0961027373309733 0 0 1 1 0 0 forward_v I I I I #
coedge $-1 $484 $485 $486 $487 reversed $221 $-1 #
coedge $-1 $488 $223 $225 $351 forward $149 $-1 #
coedge $-1 $223 $488 $484 $489 forward $149 $-1 #
coedge $-1 $486 $226 $223 $348 forward $342 $-1 #
edge $-1 $354 $490 $347 $491 forward #
coedge $-1 $492 $493 $224 $350 forward $482 $-1 #
edge $-1 $494 $353 $349 $495 forward #
edge $-1 $354 $494 $225 $496 forward #
coedge $-1 $226 $486 $492 $497 forward $342 $-1 #
vertex $-1 $350 $498 #
vertex $-1 $227 $499 #
straight-curve $-1 -25.890601260116924 58.551230300301171 8.0961027373309733 0 -1 0 I I #
coedge $-1 $356 $356 $-1 $500 reversed $230 $-1 #
edge $-1 $501 $501 $231 $502 forward #
vertex $-1 $234 $503 #
ellipse-curve $-1 -20.093100212087791 25.873711057128823 5.7655967826403547 0 0.87461971476443456 0.48480960649040278 0.5 0 0 1 I I #
coedge $-1 $360 $360 $-1 $504 reversed $237 $-1 #
edge $-1 $505 $505 $238 $506 forward #
vertex $-1 $241 $507 #
ellipse-curve $-1 -11.396848640044091 25.873711057128823 5.7655967826403547 0 0.87461971476443456 0.48480960649040278 0.5 0 0 1 I I #
face $-1 $-1 $508 $67 $-1 $509 reversed single #
loop $-1 $-1 $248 $242 #
plane-surface $-1 0 0 8.0961027373309733 0 0 1 1 0 0 forward_v I I I I #
coedge $-1 $510 $511 $512 $513 reversed $243 $-1 #
coedge $-1 $514 $245 $247 $374 forward $163 $-1 #
coedge $-1 $245 $514 $510 $515 forward $163 $-1 #
coedge $-1 $512 $248 $245 $371 forward $365 $-1 #
edge $-1 $377 $516 $370 $517 forward #
coedge $-1 $518 $519 $246 $373 forward $508 $-1 #
edge $-1 $520 $376 $372 $521 forward #
edge $-1 $377 $520 $247 $522 forward #
coedge $-1 $248 $512 $518 $523 forward $365 $-1 #
vertex $-1 $249 $524 #
vertex $-1 $249 $525 #
straight-curve $-1 14.60507898706512 58.551230300301171 8.0961027373309733 0 -1 0 I I #
coedge $-1 $379 $379 $-1 $526 reversed $252 $-1 #
edge $-1 $527 $527 $253 $528 forward #
vertex $-1 $256 $529 #
ellipse-curve $-1 20.40258003509426 25.873711057128823 5.7655967826403547 0 0.87461971476443456 0.48480960649040278 0.5 0 0 1 I I #
coedge $-1 $383 $383 $-1 $530 reversed $259 $-1 #
edge $-1 $531 $531 $260 $532 forward #
vertex $-1 $263 $533 #
ellipse-curve $-1 29.098831607137953 25.873711057128823 5.7655967826403547 0 0.87461971476443456 0.48480960649040278 0.5 0 0 1 I I #
face $-1 $-1 $399 $73 $-1 $534 forward single #
loop $-1 $-1 $535 $264 #
plane-surface $-1 0 -27.165531554362193 0 0 1 0 0 0 1 forward_v I I I I #
coedge $-1 $536 $537 $538 $539 reversed $265 $-1 #
coedge $-1 $540 $267 $269 $397 forward $177 $-1 #
coedge $-1 $267 $540 $536 $541 forward $177 $-1 #
coedge $-1 $538 $270 $267 $394 forward $399 $-1 #
edge $-1 $401 $542 $393 $543 forward #
coedge $-1 $544 $545 $268 $396 forward $388 $-1 #
edge $-1 $546 $400 $395 $547 forward #
edge $-1 $401 $546 $269 $548 forward #
coedge $-1 $270 $538 $544 $549 forward $399 $-1 #
loop $-1 $-1 $538 $387 #
vertex $-1 $396 $550 #
vertex $-1 $271 $551 #
straight-curve $-1 -5.5993475920149649 -71.72134096327413 8.0961027373309733 0 1 0 I I #
coedge $-1 $403 $403 $-1 $552 reversed $274 $-1 #
edge $-1 $553 $553 $275 $554 forward #
vertex $-1 $278 $555 #
ellipse-curve $-1 -20.093100212087791 -25.873711057128833 5.76559678264036 0 -0.87461971476443456 0.48480960649040278 0.5 0 0 1 I I #
coedge $-1 $407 $407 $-1 $556 reversed $281 $-1 #
edge $-1 $557 $557 $282 $558 forward #
vertex $-1 $285 $559 #
ellipse-curve $-1 -11.396848640044091 -25.873711057128833 5.76559678264036 0 -0.87461971476443456 0.48480960649040278 0.5 0 0 1 I I #
face $-1 $-1 $423 $79 $-1 $560 forward single #
loop $-1 $-1 $561 $286 #
plane-surface $-1 0 -27.165531554362193 0 0 1 0 0 0 1 forward_v I I I I #
coedge $-1 $562 $563 $564 $565 reversed $287 $-1 #
coedge $-1 $566 $289 $291 $421 forward $191 $-1 #
coedge $-1 $289 $566 $562 $567 forward $191 $-1 #
coedge $-1 $564 $292 $289 $418 forward $423 $-1 #
edge $-1 $425 $568 $417 $569 forward #
coedge $-1 $570 $571 $290 $420 forward $412 $-1 #
edge $-1 $572 $424 $419 $573 forward #
edge $-1 $425 $572 $291 $574 forward #
coedge $-1 $292 $564 $570 $575 forward $423 $-1 #
loop $-1 $-1 $564 $411 #
vertex $-1 $420 $576 #
vertex $-1 $293 $577 #
straight-curve $-1 34.896332655167079 -71.72134096327413 8.0961027373309733 0 1 0 I I #
coedge $-1 $427 $427 $-1 $578 reversed $296 $-1 #
edge $-1 $579 $579 $297 $580 forward #
vertex $-1 $300 $581 #
ellipse-curve $-1 20.40258003509426 -25.873711057128833 5.76559678264036 0 -0.87461971476443456 0.48480960649040278 0.5 0 0 1 I I #
coedge $-1 $431 $431 $-1 $582 reversed $303 $-1 #
edge $-1 $583 $583 $304 $584 forward #
vertex $-1 $307 $585 #
ellipse-curve $-1 29.098831607137953 -25.873711057128833 5.76559678264036 0 -0.87461971476443456 0.48480960649040278 0.5 0 0 1 I I #
face $-1 $-1 $323 $57 $-1 $586 reversed single #
loop $-1 $-1 $450 $308 #
plane-surface $-1 0 27.165531554362193 0 0 -1 0 0 0 -1 forward_v I I I I #
coedge $-1 $448 $587 $311 $440 reversed $309 $-1 #
coedge $-1 $454 $311 $312 $442 reversed $205 $-1 #
edge $-1 $455 $588 $438 $589 forward #
coedge $-1 $313 $312 $587 $590 forward $141 $-1 #
edge $-1 $446 $588 $439 $591 forward #
coedge $-1 $451 $450 $313 $444 reversed $436 $-1 #
edge $-1 $592 $445 $443 $593 forward #
vertex $-1 $315 $594 #
vertex $-1 $457 $595 #
straight-curve $-1 66.472975859859005 0 -8.0961027373309733 0 -1 0 I I #
coedge $-1 $596 $438 $316 $449 reversed $309 $-1 #
edge $-1 $452 $455 $448 $597 forward #
coedge $-1 $443 $317 $322 $458 forward $436 $-1 #
coedge $-1 $317 $443 $596 $598 reversed $436 $-1 #
vertex $-1 $318 $599 #
straight-curve $-1 0 27.165531554362193 8.0961027373309733 -1 0 0 I I #
coedge $-1 $319 $439 $321 $457 reversed $205 $-1 #
vertex $-1 $449 $600 #
straight-curve $-1 0 -27.165531554362193 8.0961027373309733 1 0 0 I I #
edge $-1 $324 $446 $321 $601 forward #
edge $-1 $325 $445 $322 $602 forward #
point $-1 66.472975859859005 -27.165531554362193 8.0961027373309733 #
point $-1 66.472975859859005 27.165531554362193 8.0961027373309733 #
face $-1 $-1 $475 $59 $-1 $603 reversed single #
loop $-1 $-1 $471 $327 #
plane-surface $-1 0 0 -8.0961027373309733 0 0 1 1 0 0 forward_v I I I I #
coedge $-1 $604 $605 $465 $606 forward $328 $-1 #
coedge $-1 $331 $330 $464 $606 reversed $145 $-1 #
coedge $-1 $471 $607 $330 $467 forward $462 $-1 #
edge $-1 $608 $469 $330 $609 forward #
edge $-1 $338 $610 $331 $611 forward #
vertex $-1 $332 $612 #
straight-curve $-1 -66.472975859859005 27.165531554362193 0 0 0 -1 I I #
coedge $-1 $613 $466 $333 $472 forward $462 $-1 #
edge $-1 $469 $476 $471 $614 forward #
coedge $-1 $615 $334 $337 $479 reversed $475 $-1 #
coedge $-1 $334 $615 $613 $616 reversed $475 $-1 #
loop $-1 $-1 $334 $461 #
vertex $-1 $616 $617 #
straight-curve $-1 -66.472975859859005 -27.165531554362193 0 0 0 1 I I #
coedge $-1 $337 $336 $605 $618 forward $213 $-1 #
edge $-1 $619 $339 $473 $620 forward #
point $-1 -66.472975859859005 27.165531554362193 -5.0961027373309733 #
point $-1 -66.472975859859005 -27.165531554362193 -5.0961027373309733 #
loop $-1 $-1 $349 $341 #
plane-surface $-1 0 27.165531554362193 0 0 -1 0 0 0 -1 forward_v I I I I #
coedge $-1 $485 $344 $346 $489 reversed $221 $-1 #
coedge $-1 $344 $484 $621 $622 reversed $221 $-1 #
coedge $-1 $352 $347 $344 $487 forward $342 $-1 #
edge $-1 $490 $623 $486 $624 forward #
coedge $-1 $346 $345 $493 $625 reversed $149 $-1 #
edge $-1 $626 $490 $484 $627 forward #
vertex $-1 $348 $628 #
straight-curve $-1 -7.8724872130329722 24.581890559895449 8.0961027373309769 1 0 0 I I #
coedge $-1 $621 $349 $352 $497 reversed $482 $-1 #
coedge $-1 $349 $621 $488 $625 forward $482 $-1 #
vertex $-1 $350 $629 #
straight-curve $-1 -25.890601260116924 27.16553155436219 57.703792142339665 0 0 1 I I #
straight-curve $-1 -25.890601260116924 0.82531022841628499 50.954109746950749 0 0.48480960649040278 -0.87461971476443456 I I #
edge $-1 $623 $353 $492 $630 forward #
point $-1 -25.890601260116924 27.165531554362193 8.0961027373309733 #
point $-1 -25.890601260116924 24.581890559895452 8.0961027373309733 #
edge $-1 $631 $631 $356 $-1 forward #
vertex $-1 $357 $632 #
ellipse-curve $-1 -20.093100212087791 24.999091342364391 5.2807871761499534 0 0.87461971476443456 0.48480960649040278 0.5 0 0 1 I I #
point $-1 -19.593100212087791 25.873711057128826 5.7655967826403565 #
edge $-1 $633 $633 $360 $-1 forward #
vertex $-1 $361 $634 #
ellipse-curve $-1 -11.396848640044091 24.999091342364391 5.2807871761499534 0 0.87461971476443456 0.48480960649040278 0.5 0 0 1 I I #
point $-1 -10.896848640044091 25.873711057128826 5.7655967826403565 #
loop $-1 $-1 $372 $364 #
plane-surface $-1 0 27.165531554362193 0 0 -1 0 0 0 -1 forward_v I I I I #
coedge $-1 $511 $367 $369 $515 reversed $243 $-1 #
coedge $-1 $367 $510 $635 $636 reversed $243 $-1 #
coedge $-1 $375 $370 $367 $513 forward $365 $-1 #
edge $-1 $516 $637 $512 $638 forward #
coedge $-1 $369 $368 $519 $639 reversed $163 $-1 #
edge $-1 $640 $516 $510 $641 forward #
vertex $-1 $371 $642 #
straight-curve $-1 12.37535291055805 24.581890559895449 8.0961027373309769 1 0 0 I I #
coedge $-1 $635 $372 $375 $523 reversed $508 $-1 #
coedge $-1 $372 $635 $514 $639 forward $508 $-1 #
vertex $-1 $373 $643 #
straight-curve $-1 14.60507898706512 27.16553155436219 57.703792142339665 0 0 1 I I #
straight-curve $-1 14.60507898706512 0.82531022841628499 50.954109746950749 0 0.48480960649040278 -0.87461971476443456 I I #
edge $-1 $637 $376 $518 $644 forward #
point $-1 14.60507898706512 27.165531554362193 8.0961027373309733 #
point $-1 14.60507898706512 24.581890559895452 8.0961027373309733 #
edge $-1 $645 $645 $379 $-1 forward #
vertex $-1 $380 $646 #
ellipse-curve $-1 20.40258003509426 24.999091342364391 5.2807871761499534 0 0.87461971476443456 0.48480960649040278 0.5 0 0 1 I I #
point $-1 20.90258003509426 25.873711057128826 5.7655967826403565 #
edge $-1 $647 $647 $383 $-1 forward #
vertex $-1 $384 $648 #
ellipse-curve $-1 29.098831607137953 24.999091342364391 5.2807871761499534 0 0.87461971476443456 0.48480960649040278 0.5 0 0 1 I I #
point $-1 29.598831607137953 25.873711057128826 5.7655967826403565 #
plane-surface $-1 0 0 8.0961027373309733 0 0 1 1 0 0 forward_v I I I I #
coedge $-1 $545 $544 $537 $649 forward $388 $-1 #
coedge $-1 $537 $390 $392 $541 reversed $265 $-1 #
coedge $-1 $390 $536 $535 $649 reversed $265 $-1 #
coedge $-1 $398 $393 $390 $539 forward $399 $-1 #
edge $-1 $542 $650 $538 $651 forward #
coedge $-1 $392 $391 $545 $652 reversed $177 $-1 #
edge $-1 $653 $542 $536 $654 forward #
vertex $-1 $394 $655 #
straight-curve $-1 -7.8724872130329722 -24.581890559895466 8.0961027373309733 -1 0 0 I I #
coedge $-1 $535 $395 $398 $549 reversed $388 $-1 #
coedge $-1 $395 $535 $540 $652 forward $388 $-1 #
vertex $-1 $396 $656 #
straight-curve $-1 -5.5993475920149649 -27.16553155436219 33.944282682839159 0 0 1 I I #
straight-curve $-1 -5.5993475920149649 -27.165531554362204 3.4350908279497361 0 -0.48480960649040278 -0.87461971476443456 I I #
edge $-1 $650 $400 $544 $657 forward #
point $-1 -5.5993475920149649 -27.165531554362193 8.0961027373309733 #
point $-1 -5.5993475920149649 -24.581890559895466 8.0961027373309733 #
edge $-1 $658 $658 $403 $-1 forward #
vertex $-1 $404 $659 #
ellipse-curve $-1 -20.093100212087791 -24.999091342364395 5.2807871761499552 0 -0.87461971476443456 0.48480960649040278 0.5 0 0 1 I I #
point $-1 -19.593100212087791 -25.87371105712883 5.7655967826403582 #
edge $-1 $660 $660 $407 $-1 forward #
vertex $-1 $408 $661 #
ellipse-curve $-1 -11.396848640044091 -24.999091342364395 5.2807871761499552 0 -0.87461971476443456 0.48480960649040278 0.5 0 0 1 I I #
point $-1 -10.896848640044091 -25.87371105712883 5.7655967826403582 #
plane-surface $-1 0 0 8.0961027373309733 0 0 1 1 0 0 forward_v I I I I #
coedge $-1 $571 $570 $563 $662 forward $412 $-1 #
coedge $-1 $563 $414 $416 $567 reversed $287 $-1 #
coedge $-1 $414 $562 $561 $662 reversed $287 $-1 #
coedge $-1 $422 $417 $414 $565 forward $423 $-1 #
edge $-1 $568 $663 $564 $664 forward #
coedge $-1 $416 $415 $571 $665 reversed $191 $-1 #
edge $-1 $666 $568 $562 $667 forward #
vertex $-1 $418 $668 #
straight-curve $-1 12.37535291055805 -24.581890559895466 8.0961027373309733 -1 0 0 I I #
coedge $-1 $561 $419 $422 $575 reversed $412 $-1 #
coedge $-1 $419 $561 $566 $665 forward $412 $-1 #
vertex $-1 $420 $669 #
straight-curve $-1 34.896332655167079 -27.16553155436219 33.944282682839159 0 0 1 I I #
straight-curve $-1 34.896332655167079 -27.165531554362204 3.4350908279497361 0 -0.48480960649040278 -0.87461971476443456 I I #
edge $-1 $663 $424 $570 $670 forward #
point $-1 34.896332655167079 -27.165531554362193 8.0961027373309733 #
point $-1 34.896332655167079 -24.581890559895466 8.0961027373309733 #
edge $-1 $671 $671 $427 $-1 forward #
vertex $-1 $428 $672 #
ellipse-curve $-1 20.40258003509426 -24.999091342364395 5.2807871761499552 0 -0.87461971476443456 0.48480960649040278 0.5 0 0 1 I I #
point $-1 20.90258003509426 -25.87371105712883 5.7655967826403582 #
edge $-1 $673 $673 $431 $-1 forward #
vertex $-1 $432 $674 #
ellipse-curve $-1 29.098831607137953 -24.999091342364395 5.2807871761499552 0 -0.87461971476443456 0.48480960649040278 0.5 0 0 1 I I #
point $-1 29.598831607137953 -25.87371105712883 5.7655967826403582 #
plane-surface $-1 66.472975859859005 0 0 -1 0 0 0 0 1 forward_v I I I I #
coedge $-1 $438 $596 $441 $590 reversed $309 $-1 #
vertex $-1 $590 $675 #
straight-curve $-1 -66.472975859859005 -27.165531554362193 0 0 0 -1 I I #
edge $-1 $588 $592 $587 $676 forward #
straight-curve $-1 0 -27.165531554362193 -8.0961027373309733 -1 0 0 I I #
vertex $-1 $444 $677 #
straight-curve $-1 0 27.165531554362193 -8.0961027373309733 1 0 0 I I #
point $-1 66.472975859859005 27.165531554362193 -8.0961027373309733 #
point $-1 66.472975859859005 -27.165531554362193 -8.0961027373309733 #
coedge $-1 $587 $448 $451 $598 forward $309 $-1 #
straight-curve $-1 -66.472975859859005 0 8.0961027373309733 0 -1 0 I I #
edge $-1 $452 $592 $451 $678 forward #
point $-1 -66.472975859859005 27.165531554362193 8.0961027373309733 #
point $-1 -66.472975859859005 -27.165531554362193 8.0961027373309733 #
straight-curve $-1 66.472975859859005 -27.165531554362193 0 0 0 -1 I I #
straight-curve $-1 66.472975859859005 27.165531554362193 0 0 0 -1 I I #
plane-surface $-1 0 -27.165531554362193 0 0 1 0 0 0 1 forward_v I I I I #
coedge $-1 $679 $464 $607 $680 reversed $328 $-1 #
coedge $-1 $464 $679 $478 $618 reversed $328 $-1 #
edge $-1 $610 $608 $465 $681 forward #
coedge $-1 $466 $613 $604 $680 forward $462 $-1 #
vertex $-1 $467 $682 #
straight-curve $-1 0 27.165531554362193 -8.0961027373309733 1 0 0 I I #
vertex $-1 $468 $683 #
straight-curve $-1 -70.975841557384072 27.165531554362193 -5.0961027373309733 -1 0 0 I I #
point $-1 -66.472975859859005 27.165531554362193 -8.0961027373309733 #
coedge $-1 $607 $471 $474 $616 forward $462 $-1 #
straight-curve $-1 -66.472975859859005 0 -8.0961027373309733 0 -1 0 I I #
coedge $-1 $474 $473 $679 $684 forward $475 $-1 #
edge $-1 $476 $685 $474 $686 forward #
point $-1 -66.472975859859005 -27.165531554362193 -8.0961027373309733 #
edge $-1 $610 $619 $605 $687 forward #
vertex $-1 $618 $688 #
straight-curve $-1 -70.975841557384072 -27.165531554362193 -5.0961027373309733 1 0 0 I I #
coedge $-1 $493 $492 $485 $622 forward $482 $-1 #
edge $-1 $623 $626 $621 $689 forward #
vertex $-1 $497 $690 #
straight-curve $-1 -5.5993475920149649 58.551230300301171 8.0961027373309733 0 1 0 I I #
edge $-1 $626 $494 $493 $691 forward #
vertex $-1 $625 $692 #
straight-curve $-1 -5.5993475920149649 0.82531022841628499 50.954109746950749 0 -0.48480960649040278 0.87461971476443456 I I #
point $-1 -5.5993475920149649 24.581890559895452 8.0961027373309733 #
point $-1 -25.890601260116924 27.165531554362193 3.4350908279497361 #
straight-curve $-1 0 27.165531554362193 8.0961027373309733 -1 0 0 I I #
vertex $-1 $500 $693 #
point $-1 -19.593100212087791 24.999091342364391 5.2807871761499534 #
vertex $-1 $504 $694 #
point $-1 -10.896848640044091 24.999091342364391 5.2807871761499534 #
coedge $-1 $519 $518 $511 $636 forward $508 $-1 #
edge $-1 $637 $640 $635 $695 forward #
vertex $-1 $523 $696 #
straight-curve $-1 34.896332655167079 58.551230300301171 8.0961027373309733 0 1 0 I I #
edge $-1 $640 $520 $519 $697 forward #
vertex $-1 $639 $698 #
straight-curve $-1 34.896332655167079 0.82531022841628499 50.954109746950749 0 -0.48480960649040278 0.87461971476443456 I I #
point $-1 34.896332655167079 24.581890559895452 8.0961027373309733 #
point $-1 14.60507898706512 27.165531554362193 3.4350908279497361 #
straight-curve $-1 0 27.165531554362193 8.0961027373309733 -1 0 0 I I #
vertex $-1 $526 $699 #
point $-1 20.90258003509426 24.999091342364391 5.2807871761499534 #
vertex $-1 $530 $700 #
point $-1 29.598831607137953 24.999091342364391 5.2807871761499534 #
edge $-1 $650 $653 $535 $701 forward #
vertex $-1 $549 $702 #
straight-curve $-1 -25.890601260116924 -71.72134096327413 8.0961027373309733 0 -1 0 I I #
edge $-1 $653 $546 $545 $703 forward #
vertex $-1 $652 $704 #
straight-curve $-1 -25.890601260116924 -27.165531554362204 3.4350908279497361 0 0.48480960649040278 0.87461971476443456 I I #
point $-1 -25.890601260116924 -24.581890559895466 8.0961027373309733 #
point $-1 -5.5993475920149649 -27.165531554362193 3.4350908279497552 #
straight-curve $-1 0 -27.165531554362193 8.0961027373309733 1 0 0 I I #
vertex $-1 $552 $705 #
point $-1 -19.593100212087791 -24.999091342364395 5.2807871761499552 #
vertex $-1 $556 $706 #
point $-1 -10.896848640044091 -24.999091342364395 5.2807871761499552 #
edge $-1 $663 $666 $561 $707 forward #
vertex $-1 $575 $708 #
straight-curve $-1 14.60507898706512 -71.72134096327413 8.0961027373309733 0 -1 0 I I #
edge $-1 $666 $572 $571 $709 forward #
vertex $-1 $665 $710 #
straight-curve $-1 14.60507898706512 -27.165531554362204 3.4350908279497361 0 0.48480960649040278 0.87461971476443456 I I #
point $-1 14.60507898706512 -24.581890559895466 8.0961027373309733 #
point $-1 34.896332655167079 -27.165531554362193 3.4350908279497552 #
straight-curve $-1 0 -27.165531554362193 8.0961027373309733 1 0 0 I I #
vertex $-1 $578 $711 #
point $-1 20.90258003509426 -24.999091342364395 5.2807871761499552 #
vertex $-1 $582 $712 #
point $-1 29.598831607137953 -24.999091342364395 5.2807871761499552 #
point $-1 -66.472975859859005 -27.165531554362193 -8.0961027373309733 #
straight-curve $-1 -66.472975859859005 0 -8.0961027373309733 0 1 0 I I #
point $-1 -66.472975859859005 27.165531554362193 -8.0961027373309733 #
straight-curve $-1 -66.472975859859005 27.165531554362193 0 0 0 -1 I I #
coedge $-1 $605 $604 $615 $684 reversed $328 $-1 #
edge $-1 $685 $608 $604 $713 forward #
straight-curve $-1 -75.478707254909139 27.165531554362193 -6.5961027373309733 0 0 -1 I I #
point $-1 -75.478707254909139 27.165531554362193 -8.0961027373309733 #
point $-1 -75.478707254909139 27.165531554362193 -5.0961027373309733 #
edge $-1 $619 $685 $679 $714 forward #
vertex $-1 $680 $715 #
straight-curve $-1 -70.975841557384072 -27.165531554362193 -8.0961027373309733 -1 0 0 I I #
straight-curve $-1 -75.478707254909139 0 -5.0961027373309733 0 -1 0 I I #
point $-1 -75.478707254909139 -27.165531554362193 -5.0961027373309733 #
straight-curve $-1 -5.5993475920149649 27.16553155436219 57.703792142339665 0 0 -1 I I #
point $-1 -5.5993475920149649 27.165531554362193 8.0961027373309733 #
straight-curve $-1 -7.8724872130329722 27.16553155436219 3.4350908279497361 -1 0 0 I I #
point $-1 -5.5993475920149649 27.165531554362193 3.4350908279497361 #
point $-1 -20.093100212087791 24.561781484982173 5.0383823729047528 #
point $-1 -11.396848640044091 24.561781484982173 5.0383823729047528 #
straight-curve $-1 34.896332655167079 27.16553155436219 57.703792142339665 0 0 -1 I I #
point $-1 34.896332655167079 27.165531554362193 8.0961027373309733 #
straight-curve $-1 12.37535291055805 27.16553155436219 3.4350908279497361 -1 0 0 I I #
point $-1 34.896332655167079 27.165531554362193 3.4350908279497361 #
point $-1 20.40258003509426 24.561781484982173 5.0383823729047528 #
point $-1 29.098831607137953 24.561781484982173 5.0383823729047528 #
straight-curve $-1 -25.890601260116924 -27.16553155436219 33.944282682839159 0 0 -1 I I #
point $-1 -25.890601260116924 -27.165531554362193 8.0961027373309733 #
straight-curve $-1 -7.8724872130329722 -27.165531554362193 3.4350908279497494 1 0 0 I I #
point $-1 -25.890601260116924 -27.165531554362193 3.4350908279497552 #
point $-1 -20.093100212087791 -24.561781484982177 5.0383823729047545 #
point $-1 -11.396848640044091 -24.561781484982177 5.0383823729047545 #
straight-curve $-1 14.60507898706512 -27.16553155436219 33.944282682839159 0 0 -1 I I #
point $-1 14.60507898706512 -27.165531554362193 8.0961027373309733 #
straight-curve $-1 12.37535291055805 -27.165531554362193 3.4350908279497494 1 0 0 I I #
point $-1 14.60507898706512 -27.165531554362193 3.4350908279497552 #
point $-1 20.40258003509426 -24.561781484982177 5.0383823729047545 #
point $-1 29.098831607137953 -24.561781484982177 5.0383823729047545 #
straight-curve $-1 -75.478707254909139 0 -8.0961027373309733 0 1 0 I I #
straight-curve $-1 -75.478707254909139 -27.165531554362193 -6.5961027373309733 0 0 -1 I I #
point $-1 -75.478707254909139 -27.165531554362193 -8.0961027373309733 #
End-of-ACIS-data 