300 0 3 0           
7 Unknown 11 ACIS 3.0 NT 24 Fri Oct 30 14:20:09 1998 
-1 9.9999999999999995e-007 1e-010 
body $3 $4 $-1 $5 #
body $6 $7 $-1 $8 #
body $9 $10 $-1 $11 #
display_attribute-st-attrib $-1 $12 $-1 $0 1 #
lump $-1 $-1 $13 $0 #
transform $-1 1 0 0 0 1 0 0 0 1 43.366801965392007 27.337615630254454 9.4373884311883707 1 rotate no_reflect no_shear #
display_attribute-st-attrib $-1 $14 $-1 $1 1 #
lump $-1 $-1 $15 $1 #
transform $-1 1 0 0 0 1 0 0 0 1 43.366801965392007 27.337615630254454 9.4373884311883707 1 rotate no_reflect no_shear #
display_attribute-st-attrib $-1 $16 $-1 $2 1 #
lump $-1 $-1 $17 $2 #
transform $-1 1 0 0 0 1 0 0 0 1 43.366801965392007 27.337615630254454 9.4373884311883707 1 rotate no_reflect no_shear #
id_attribute-st-attrib $-1 $-1 $3 $0 1485 #
shell $-1 $-1 $-1 $18 $-1 $4 #
id_attribute-st-attrib $-1 $-1 $6 $1 1490 #
shell $-1 $-1 $-1 $19 $-1 $7 #
id_attribute-st-attrib $-1 $-1 $9 $2 1498 #
shell $-1 $-1 $-1 $20 $-1 $10 #
face $-1 $21 $22 $13 $-1 $23 forward single #
face $-1 $24 $25 $15 $-1 $26 reversed single #
face $-1 $27 $28 $17 $-1 $29 reversed single #
face $-1 $30 $31 $13 $-1 $32 reversed single #
loop $-1 $-1 $33 $18 #
plane-surface $-1 0 0 9.4373884311883707 0 0 1 1 0 0 forward_v I I I I #
face $-1 $34 $35 $15 $-1 $36 forward single #
loop $-1 $-1 $37 $19 #
plane-surface $-1 0 -21.937731311008051 -0.028274898903390078 0 0 1 1 0 0 forward_v I I I I #
face $-1 $38 $39 $17 $-1 $40 forward single #
loop $-1 $-1 $41 $20 #
plane-surface $-1 0 21.937731311008051 -0.028274898903390078 0 0 1 1 0 0 forward_v I I I I #
face $-1 $42 $43 $13 $-1 $44 reversed single #
loop $-1 $-1 $45 $21 #
plane-surface $-1 0 0 -9.4373884311883707 0 0 1 1 0 0 forward_v I I I I #
coedge $-1 $46 $47 $48 $49 forward $22 $-1 #
face $-1 $50 $51 $15 $-1 $52 forward single #
loop $-1 $-1 $53 $24 #
plane-surface $-1 0 -21.937731311008051 -3.028274898903391 0 0 1 1 0 0 forward_v I I I I #
coedge $-1 $54 $55 $56 $57 reversed $25 $-1 #
face $-1 $58 $59 $17 $-1 $60 forward single #
loop $-1 $-1 $61 $27 #
plane-surface $-1 0 21.937731311008051 -3.028274898903391 0 0 1 1 0 0 forward_v I I I I #
coedge $-1 $62 $63 $64 $65 reversed $28 $-1 #
face $-1 $66 $67 $13 $-1 $68 reversed single #
loop $-1 $-1 $69 $30 #
plane-surface $-1 0 -27.337615630254454 0 0 1 0 0 0 1 forward_v I I I I #
coedge $-1 $70 $71 $72 $73 forward $31 $-1 #
coedge $-1 $74 $33 $75 $76 forward $22 $-1 #
coedge $-1 $33 $74 $77 $78 forward $22 $-1 #
coedge $-1 $79 $80 $33 $49 reversed $81 $-1 #
edge $-1 $82 $83 $48 $84 forward #
face $-1 $85 $86 $15 $-1 $87 reversed single #
loop $-1 $-1 $88 $34 #
plane-surface $-1 0 -16.537846991761647 -1.5282748989033905 0 -1 0 0 0 -1 forward_v I I I I #
coedge $-1 $89 $90 $91 $92 reversed $35 $-1 #
coedge $-1 $93 $37 $94 $95 reversed $25 $-1 #
coedge $-1 $37 $93 $96 $97 reversed $25 $-1 #
coedge $-1 $98 $99 $37 $57 forward $86 $-1 #
edge $-1 $100 $101 $56 $102 forward #
face $-1 $103 $104 $17 $-1 $105 reversed single #
loop $-1 $-1 $106 $38 #
plane-surface $-1 0 16.537846991761647 -1.5282748989033905 0 1 0 0 0 1 forward_v I I I I #
coedge $-1 $107 $108 $109 $110 reversed $39 $-1 #
coedge $-1 $111 $41 $112 $113 reversed $28 $-1 #
coedge $-1 $41 $111 $114 $115 reversed $28 $-1 #
coedge $-1 $116 $117 $41 $65 forward $118 $-1 #
edge $-1 $119 $120 $64 $121 forward #
face $-1 $122 $123 $13 $-1 $124 reversed single #
loop $-1 $-1 $125 $42 #
plane-surface $-1 -43.366801965392007 0 0 1 0 0 0 0 -1 forward_v I I I I #
coedge $-1 $126 $77 $127 $128 forward $43 $-1 #
coedge $-1 $129 $45 $126 $130 forward $31 $-1 #
coedge $-1 $45 $129 $131 $132 forward $31 $-1 #
coedge $-1 $80 $79 $45 $73 reversed $81 $-1 #
edge $-1 $133 $134 $72 $135 forward #
coedge $-1 $47 $46 $136 $137 forward $22 $-1 #
coedge $-1 $138 $139 $46 $76 reversed $123 $-1 #
edge $-1 $83 $140 $75 $141 forward #
coedge $-1 $69 $142 $47 $78 reversed $43 $-1 #
edge $-1 $143 $82 $77 $144 forward #
coedge $-1 $72 $48 $142 $145 forward $81 $-1 #
coedge $-1 $48 $72 $138 $146 reversed $81 $-1 #
loop $-1 $-1 $79 $122 #
vertex $-1 $49 $147 #
vertex $-1 $49 $148 #
straight-curve $-1 43.366801965392007 0 9.4373884311883707 0 1 0 I I #
face $-1 $149 $150 $15 $-1 $151 reversed single #
loop $-1 $-1 $56 $50 #
plane-surface $-1 43.366801965392007 0 0 -1 0 0 0 0 1 forward_v I I I I #
coedge $-1 $96 $152 $98 $153 reversed $51 $-1 #
coedge $-1 $154 $53 $152 $155 reversed $35 $-1 #
coedge $-1 $53 $154 $156 $157 reversed $35 $-1 #
coedge $-1 $158 $98 $53 $92 forward $86 $-1 #
edge $-1 $159 $160 $91 $161 forward #
coedge $-1 $55 $54 $162 $163 reversed $25 $-1 #
coedge $-1 $164 $165 $54 $95 forward $166 $-1 #
edge $-1 $167 $100 $94 $168 forward #
coedge $-1 $169 $88 $55 $97 forward $51 $-1 #
edge $-1 $101 $170 $96 $171 forward #
coedge $-1 $91 $56 $88 $153 forward $86 $-1 #
coedge $-1 $56 $172 $164 $173 forward $86 $-1 #
vertex $-1 $95 $174 #
vertex $-1 $57 $175 #
straight-curve $-1 43.366801965392007 -10.968865655504025 -0.028274898903390078 0 1 0 I I #
face $-1 $176 $177 $17 $-1 $105 reversed single #
loop $-1 $-1 $178 $58 #
plane-surface $-1 0 27.337615630254454 0 0 -1 0 0 0 -1 forward_v I I I I #
coedge $-1 $112 $179 $180 $181 reversed $59 $-1 #
coedge $-1 $182 $61 $178 $183 reversed $39 $-1 #
coedge $-1 $61 $182 $179 $184 reversed $39 $-1 #
coedge $-1 $117 $185 $61 $110 forward $118 $-1 #
edge $-1 $186 $187 $109 $188 forward #
coedge $-1 $63 $62 $189 $190 reversed $28 $-1 #
coedge $-1 $191 $106 $62 $113 forward $59 $-1 #
edge $-1 $192 $119 $112 $193 forward #
coedge $-1 $194 $195 $63 $115 forward $177 $-1 #
edge $-1 $120 $196 $114 $197 forward #
coedge $-1 $198 $64 $195 $199 reversed $118 $-1 #
coedge $-1 $64 $109 $191 $200 forward $118 $-1 #
loop $-1 $-1 $64 $201 #
vertex $-1 $65 $202 #
vertex $-1 $115 $203 #
straight-curve $-1 43.366801965392007 10.968865655504025 -0.028274898903390078 0 1 0 I I #
face $-1 $-1 $81 $13 $-1 $204 reversed single #
loop $-1 $-1 $138 $66 #
plane-surface $-1 0 27.337615630254454 0 0 -1 0 0 0 -1 forward_v I I I I #
coedge $-1 $205 $136 $139 $206 forward $67 $-1 #
coedge $-1 $142 $69 $70 $130 reversed $43 $-1 #
coedge $-1 $136 $205 $69 $128 reversed $67 $-1 #
edge $-1 $143 $207 $127 $208 forward #
coedge $-1 $71 $70 $205 $209 forward $31 $-1 #
edge $-1 $134 $207 $126 $210 forward #
coedge $-1 $139 $138 $71 $132 reversed $123 $-1 #
edge $-1 $211 $133 $131 $212 forward #
vertex $-1 $73 $213 #
vertex $-1 $145 $214 #
straight-curve $-1 43.366801965392007 0 -9.4373884311883707 0 -1 0 I I #
coedge $-1 $125 $127 $74 $137 reversed $67 $-1 #
edge $-1 $140 $143 $136 $215 forward #
coedge $-1 $131 $75 $80 $146 forward $123 $-1 #
coedge $-1 $75 $131 $125 $206 reversed $123 $-1 #
vertex $-1 $76 $216 #
straight-curve $-1 0 27.337615630254454 9.4373884311883707 -1 0 0 I I #
coedge $-1 $77 $126 $79 $145 reversed $43 $-1 #
vertex $-1 $137 $217 #
straight-curve $-1 0 -27.337615630254454 9.4373884311883707 1 0 0 I I #
edge $-1 $82 $134 $79 $218 forward #
edge $-1 $83 $133 $80 $219 forward #
point $-1 43.366801965392007 -27.337615630254454 9.4373884311883707 #
point $-1 43.366801965392007 27.337615630254454 9.4373884311883707 #
face $-1 $220 $221 $15 $-1 $222 forward single #
loop $-1 $-1 $156 $85 #
plane-surface $-1 0 -27.337615630254454 0 0 1 0 0 0 1 forward_v I I I I #
coedge $-1 $88 $169 $89 $155 forward $51 $-1 #
edge $-1 $101 $159 $98 $223 forward #
coedge $-1 $90 $89 $224 $225 reversed $35 $-1 #
edge $-1 $226 $159 $152 $227 forward #
coedge $-1 $228 $229 $90 $157 forward $150 $-1 #
edge $-1 $160 $230 $156 $231 forward #
coedge $-1 $232 $91 $229 $233 forward $86 $-1 #
vertex $-1 $92 $234 #
vertex $-1 $233 $235 #
straight-curve $-1 43.366801965392007 -10.968865655504025 -3.028274898903391 0 -1 0 I I #
coedge $-1 $236 $237 $93 $163 forward $238 $-1 #
edge $-1 $170 $167 $162 $239 forward #
coedge $-1 $240 $94 $99 $173 reversed $166 $-1 #
coedge $-1 $94 $240 $236 $241 forward $166 $-1 #
loop $-1 $-1 $94 $242 #
vertex $-1 $163 $243 #
straight-curve $-1 0 -27.337615630254454 -0.028274898903390078 1 0 0 I I #
coedge $-1 $152 $96 $237 $244 reversed $51 $-1 #
vertex $-1 $163 $245 #
straight-curve $-1 0 -16.537846991761647 -0.028274898903390078 -1 0 0 I I #
coedge $-1 $99 $246 $247 $248 reversed $86 $-1 #
edge $-1 $249 $100 $99 $250 forward #
point $-1 43.366801965392007 -27.337615630254454 -0.028274898903390078 #
point $-1 43.366801965392007 -16.537846991761647 -0.028274898903390078 #
face $-1 $251 $252 $17 $-1 $253 reversed single #
loop $-1 $-1 $114 $103 #
coedge $-1 $254 $255 $107 $183 forward $104 $-1 #
coedge $-1 $106 $191 $108 $184 forward $59 $-1 #
coedge $-1 $256 $189 $106 $181 forward $252 $-1 #
edge $-1 $192 $257 $180 $258 forward #
coedge $-1 $108 $107 $256 $259 reversed $39 $-1 #
edge $-1 $260 $186 $178 $261 forward #
edge $-1 $187 $257 $179 $262 forward #
coedge $-1 $109 $263 $254 $264 reversed $118 $-1 #
vertex $-1 $264 $265 #
vertex $-1 $110 $266 #
straight-curve $-1 43.366801965392007 10.968865655504025 -3.028274898903391 0 -1 0 I I #
coedge $-1 $180 $267 $111 $190 forward $252 $-1 #
edge $-1 $196 $192 $189 $268 forward #
coedge $-1 $179 $112 $117 $200 reversed $59 $-1 #
vertex $-1 $190 $269 #
straight-curve $-1 0 16.537846991761647 -0.028274898903390078 1 0 0 I I #
coedge $-1 $270 $114 $267 $271 reversed $177 $-1 #
coedge $-1 $114 $270 $116 $199 forward $177 $-1 #
vertex $-1 $190 $272 #
straight-curve $-1 0 27.337615630254454 -0.028274898903390078 -1 0 0 I I #
coedge $-1 $273 $116 $274 $275 reversed $118 $-1 #
edge $-1 $276 $120 $116 $277 forward #
edge $-1 $187 $119 $117 $278 forward #
face $-1 $279 $118 $17 $-1 $280 reversed single #
point $-1 43.366801965392007 16.537846991761647 -0.028274898903390078 #
point $-1 43.366801965392007 27.337615630254454 -0.028274898903390078 #
plane-surface $-1 43.366801965392007 0 0 -1 0 0 0 0 1 forward_v I I I I #
coedge $-1 $127 $125 $129 $209 reversed $67 $-1 #
edge $-1 $140 $211 $139 $281 forward #
vertex $-1 $209 $282 #
straight-curve $-1 -43.366801965392007 -27.337615630254454 0 0 0 -1 I I #
edge $-1 $207 $211 $205 $283 forward #
straight-curve $-1 0 -27.337615630254454 -9.4373884311883707 -1 0 0 I I #
vertex $-1 $132 $284 #
straight-curve $-1 0 27.337615630254454 -9.4373884311883707 1 0 0 I I #
point $-1 43.366801965392007 27.337615630254454 -9.4373884311883707 #
point $-1 43.366801965392007 -27.337615630254454 -9.4373884311883707 #
straight-curve $-1 -43.366801965392007 0 9.4373884311883707 0 -1 0 I I #
point $-1 -43.366801965392007 27.337615630254454 9.4373884311883707 #
point $-1 -43.366801965392007 -27.337615630254454 9.4373884311883707 #
straight-curve $-1 43.366801965392007 -27.337615630254454 0 0 0 -1 I I #
straight-curve $-1 43.366801965392007 27.337615630254454 0 0 0 -1 I I #
face $-1 $242 $285 $15 $-1 $286 reversed single #
loop $-1 $-1 $247 $149 #
plane-surface $-1 0 0 9.4373884311883707 0 0 1 1 0 0 forward_v I I I I #
straight-curve $-1 43.366801965392007 -16.537846991761647 -0.76413744945169526 0 0 -1 I I #
coedge $-1 $237 $287 $154 $225 forward $238 $-1 #
edge $-1 $230 $226 $224 $288 forward #
vertex $-1 $225 $289 #
straight-curve $-1 0 -16.537846991761647 -3.028274898903391 1 0 0 I I #
coedge $-1 $290 $156 $287 $291 forward $150 $-1 #
coedge $-1 $156 $290 $158 $233 reversed $150 $-1 #
vertex $-1 $291 $292 #
straight-curve $-1 0 -27.337615630254454 -3.028274898903391 -1 0 0 I I #
coedge $-1 $246 $158 $293 $294 reversed $86 $-1 #
edge $-1 $160 $295 $158 $250 forward #
point $-1 43.366801965392007 -16.537846991761647 -3.028274898903391 #
point $-1 43.366801965392007 -27.337615630254454 -3.028274898903391 #
coedge $-1 $296 $162 $165 $241 reversed $238 $-1 #
coedge $-1 $162 $224 $169 $244 forward $238 $-1 #
loop $-1 $-1 $162 $297 #
straight-curve $-1 -43.366801965392007 -10.968865655504025 -0.028274898903390078 0 -1 0 I I #
coedge $-1 $165 $164 $298 $299 reversed $166 $-1 #
edge $-1 $300 $167 $236 $301 forward #
face $-1 $297 $166 $15 $-1 $151 reversed single #
point $-1 -43.366801965392007 -27.337615630254454 -0.028274898903390078 #
edge $-1 $226 $170 $237 $302 forward #
point $-1 -43.366801965392007 -16.537846991761647 -0.028274898903390078 #
coedge $-1 $172 $232 $303 $304 reversed $86 $-1 #
coedge $-1 $305 $298 $172 $248 forward $221 $-1 #
edge $-1 $249 $306 $172 $307 forward #
vertex $-1 $248 $308 #
straight-curve $-1 43.366801965392007 -27.337615630254454 0 0 0 -1 I I #
face $-1 $309 $310 $17 $-1 $311 reversed single #
loop $-1 $-1 $189 $176 #
plane-surface $-1 -43.366801965392007 0 0 1 0 0 0 0 -1 forward_v I I I I #
coedge $-1 $312 $178 $185 $264 forward $104 $-1 #
coedge $-1 $178 $312 $313 $314 reversed $104 $-1 #
coedge $-1 $313 $180 $182 $259 forward $252 $-1 #
vertex $-1 $259 $315 #
straight-curve $-1 -43.366801965392007 16.537846991761647 -0.76413744945169526 0 0 -1 I I #
edge $-1 $257 $260 $256 $316 forward #
vertex $-1 $314 $317 #
straight-curve $-1 0 27.337615630254454 -3.028274898903391 1 0 0 I I #
straight-curve $-1 0 16.537846991761647 -3.028274898903391 -1 0 0 I I #
coedge $-1 $185 $318 $319 $320 reversed $118 $-1 #
edge $-1 $186 $321 $185 $277 forward #
point $-1 43.366801965392007 27.337615630254454 -3.028274898903391 #
point $-1 43.366801965392007 16.537846991761647 -3.028274898903391 #
coedge $-1 $189 $322 $194 $271 forward $252 $-1 #
straight-curve $-1 -43.366801965392007 10.968865655504025 -0.028274898903390078 0 -1 0 I I #
point $-1 -43.366801965392007 16.537846991761647 -0.028274898903390078 #
coedge $-1 $195 $194 $323 $324 reversed $177 $-1 #
edge $-1 $325 $196 $194 $326 forward #
point $-1 -43.366801965392007 27.337615630254454 -0.028274898903390078 #
coedge $-1 $327 $198 $328 $329 forward $118 $-1 #
coedge $-1 $323 $330 $198 $275 forward $331 $-1 #
edge $-1 $332 $276 $198 $333 forward #
vertex $-1 $275 $334 #
straight-curve $-1 43.366801965392007 27.337615630254454 0 0 0 -1 I I #
straight-curve $-1 43.366801965392007 16.537846991761647 -0.76413744945169526 0 0 1 I I #
face $-1 $335 $336 $17 $-1 $337 reversed single #
plane-surface $-1 43.366801965392007 0 0 -1 0 0 0 0 1 forward_v I I I I #
straight-curve $-1 -43.366801965392007 27.337615630254454 0 0 0 -1 I I #
point $-1 -43.366801965392007 -27.337615630254454 -9.4373884311883707 #
straight-curve $-1 -43.366801965392007 0 -9.4373884311883707 0 1 0 I I #
point $-1 -43.366801965392007 27.337615630254454 -9.4373884311883707 #
loop $-1 $-1 $293 $220 #
plane-surface $-1 0 0 -9.4373884311883707 0 0 1 1 0 0 forward_v I I I I #
coedge $-1 $224 $338 $228 $291 reversed $238 $-1 #
straight-curve $-1 -43.366801965392007 -10.968865655504025 -3.028274898903391 0 1 0 I I #
point $-1 -43.366801965392007 -16.537846991761647 -3.028274898903391 #
coedge $-1 $229 $228 $339 $340 reversed $150 $-1 #
edge $-1 $230 $341 $287 $301 forward #
point $-1 -43.366801965392007 -27.337615630254454 -3.028274898903391 #
coedge $-1 $339 $342 $232 $294 forward $285 $-1 #
edge $-1 $343 $295 $232 $344 forward #
vertex $-1 $233 $345 #
coedge $-1 $346 $236 $347 $348 reversed $238 $-1 #
face $-1 $349 $238 $15 $-1 $350 reversed single #
coedge $-1 $247 $347 $240 $299 forward $221 $-1 #
edge $-1 $300 $249 $240 $351 forward #
vertex $-1 $348 $352 #
straight-curve $-1 -43.366801965392007 -27.337615630254454 0 0 0 -1 I I #
straight-curve $-1 -43.366801965392007 -16.537846991761647 -0.76413744945169526 0 0 1 I I #
coedge $-1 $353 $354 $246 $304 forward $355 $-1 #
edge $-1 $306 $343 $246 $356 forward #
coedge $-1 $347 $247 $354 $357 forward $221 $-1 #
vertex $-1 $248 $358 #
straight-curve $-1 43.366801965392007 0 9.4373884311883707 0 1 0 I I #
point $-1 43.366801965392007 -27.337615630254454 9.4373884311883707 #
face $-1 $359 $360 $17 $-1 $361 forward single #
loop $-1 $-1 $362 $251 #
plane-surface $-1 0 -21.937731311008051 -0.028274898903390078 0 0 1 1 0 0 forward_v I I I I #
coedge $-1 $255 $254 $363 $364 reversed $104 $-1 #
coedge $-1 $365 $256 $255 $314 forward $252 $-1 #
edge $-1 $260 $366 $255 $326 forward #
point $-1 -43.366801965392007 16.537846991761647 -3.028274898903391 #
straight-curve $-1 -43.366801965392007 10.968865655504025 -3.028274898903391 0 1 0 I I #
point $-1 -43.366801965392007 27.337615630254454 -3.028274898903391 #
coedge $-1 $263 $367 $368 $369 forward $118 $-1 #
coedge $-1 $370 $363 $263 $320 forward $371 $-1 #
edge $-1 $321 $372 $263 $373 forward #
vertex $-1 $320 $374 #
coedge $-1 $267 $375 $376 $377 reversed $252 $-1 #
coedge $-1 $376 $274 $270 $324 forward $331 $-1 #
edge $-1 $276 $325 $270 $378 forward #
vertex $-1 $324 $379 #
straight-curve $-1 -43.366801965392007 27.337615630254454 0 0 0 -1 I I #
coedge $-1 $380 $273 $362 $381 forward $118 $-1 #
coedge $-1 $382 $383 $273 $329 reversed $384 $-1 #
edge $-1 $332 $385 $273 $386 forward #
coedge $-1 $274 $376 $382 $387 forward $331 $-1 #
loop $-1 $-1 $274 $335 #
vertex $-1 $275 $388 #
straight-curve $-1 43.366801965392007 0 9.4373884311883707 0 1 0 I I #
point $-1 43.366801965392007 27.337615630254454 9.4373884311883707 #
face $-1 $389 $331 $17 $-1 $390 forward single #
loop $-1 $-1 $391 $279 #
plane-surface $-1 0 -27.337615630254454 0 0 1 0 0 0 1 forward_v I I I I #
coedge $-1 $287 $346 $392 $393 reversed $238 $-1 #
coedge $-1 $392 $293 $290 $340 forward $285 $-1 #
edge $-1 $295 $341 $290 $394 forward #
vertex $-1 $393 $395 #
coedge $-1 $293 $392 $353 $396 forward $285 $-1 #
vertex $-1 $294 $397 #
straight-curve $-1 43.366801965392007 0 -9.4373884311883707 0 -1 0 I I #
point $-1 43.366801965392007 -27.337615630254454 -9.4373884311883707 #
coedge $-1 $338 $296 $398 $399 forward $238 $-1 #
coedge $-1 $298 $305 $296 $348 forward $221 $-1 #
edge $-1 $400 $300 $296 $401 forward #
face $-1 $-1 $355 $15 $-1 $402 reversed single #
plane-surface $-1 -43.366801965392007 0 0 1 0 0 0 0 -1 forward_v I I I I #
straight-curve $-1 0 -27.337615630254454 9.4373884311883707 1 0 0 I I #
point $-1 -43.366801965392007 -27.337615630254454 9.4373884311883707 #
coedge $-1 $398 $303 $342 $396 reversed $355 $-1 #
coedge $-1 $303 $398 $305 $357 reversed $355 $-1 #
loop $-1 $-1 $303 $349 #
straight-curve $-1 43.366801965392007 27.337615630254454 0 0 0 -1 I I #
edge $-1 $306 $400 $354 $403 forward #
point $-1 43.366801965392007 27.337615630254454 9.4373884311883707 #
face $-1 $201 $404 $17 $-1 $405 forward single #
loop $-1 $-1 $406 $309 #
plane-surface $-1 0 -21.937731311008051 -3.028274898903391 0 0 1 1 0 0 forward_v I I I I #
coedge $-1 $407 $408 $327 $381 reversed $310 $-1 #
coedge $-1 $319 $409 $312 $364 forward $371 $-1 #
edge $-1 $366 $321 $312 $410 forward #
coedge $-1 $411 $313 $409 $412 reversed $252 $-1 #
vertex $-1 $364 $413 #
coedge $-1 $318 $380 $406 $414 forward $118 $-1 #
coedge $-1 $391 $415 $318 $369 reversed $336 $-1 #
edge $-1 $416 $372 $318 $386 forward #
coedge $-1 $409 $319 $415 $417 forward $371 $-1 #
loop $-1 $-1 $319 $389 #
vertex $-1 $369 $418 #
straight-curve $-1 43.366801965392007 0 -9.4373884311883707 0 -1 0 I I #
point $-1 43.366801965392007 27.337615630254454 -9.4373884311883707 #
coedge $-1 $322 $419 $420 $421 reversed $252 $-1 #
coedge $-1 $330 $323 $322 $377 forward $331 $-1 #
edge $-1 $325 $422 $322 $423 forward #
straight-curve $-1 0 27.337615630254454 9.4373884311883707 -1 0 0 I I #
point $-1 -43.366801965392007 27.337615630254454 9.4373884311883707 #
coedge $-1 $367 $327 $424 $425 forward $118 $-1 #
edge $-1 $385 $426 $327 $427 forward #
coedge $-1 $420 $328 $330 $387 reversed $384 $-1 #
coedge $-1 $328 $420 $407 $428 forward $384 $-1 #
loop $-1 $-1 $383 $429 #
vertex $-1 $428 $430 #
straight-curve $-1 43.366801965392007 -27.337615630254454 0 0 0 -1 I I #
edge $-1 $422 $332 $382 $431 forward #
point $-1 43.366801965392007 -27.337615630254454 9.4373884311883707 #
face $-1 $429 $371 $17 $-1 $432 reversed single #
plane-surface $-1 0 0 9.4373884311883707 0 0 1 1 0 0 forward_v I I I I #
coedge $-1 $433 $368 $434 $435 forward $336 $-1 #
coedge $-1 $342 $339 $338 $393 forward $285 $-1 #
edge $-1 $341 $436 $338 $437 forward #
straight-curve $-1 0 -27.337615630254454 -9.4373884311883707 -1 0 0 I I #
point $-1 -43.366801965392007 -27.337615630254454 -9.4373884311883707 #
edge $-1 $436 $343 $353 $438 forward #
point $-1 43.366801965392007 27.337615630254454 -9.4373884311883707 #
coedge $-1 $354 $353 $346 $399 reversed $355 $-1 #
edge $-1 $400 $436 $398 $439 forward #
vertex $-1 $357 $440 #
straight-curve $-1 -43.366801965392007 0 9.4373884311883707 0 -1 0 I I #
plane-surface $-1 0 27.337615630254454 0 0 -1 0 0 0 -1 forward_v I I I I #
straight-curve $-1 0 27.337615630254454 9.4373884311883707 -1 0 0 I I #
loop $-1 $-1 $424 $359 #
plane-surface $-1 0 -16.537846991761647 -1.5282748989033905 0 -1 0 0 0 -1 forward_v I I I I #
coedge $-1 $441 $434 $367 $414 reversed $360 $-1 #
coedge $-1 $442 $362 $383 $428 reversed $310 $-1 #
coedge $-1 $362 $442 $443 $444 reversed $310 $-1 #
coedge $-1 $363 $370 $365 $412 forward $371 $-1 #
straight-curve $-1 0 27.337615630254454 -9.4373884311883707 1 0 0 I I #
coedge $-1 $445 $365 $433 $446 reversed $252 $-1 #
edge $-1 $447 $366 $365 $448 forward #
point $-1 -43.366801965392007 27.337615630254454 -9.4373884311883707 #
edge $-1 $449 $416 $367 $450 forward #
coedge $-1 $368 $433 $370 $417 reversed $336 $-1 #
vertex $-1 $369 $451 #
edge $-1 $372 $447 $415 $452 forward #
point $-1 43.366801965392007 -27.337615630254454 -9.4373884311883707 #
coedge $-1 $375 $453 $442 $454 forward $252 $-1 #
coedge $-1 $383 $382 $375 $421 forward $384 $-1 #
edge $-1 $422 $455 $375 $456 forward #
vertex $-1 $377 $457 #
straight-curve $-1 -43.366801965392007 0 9.4373884311883707 0 -1 0 I I #
coedge $-1 $443 $458 $380 $425 reversed $404 $-1 #
edge $-1 $426 $449 $380 $459 forward #
vertex $-1 $381 $460 #
straight-curve $-1 43.366801965392007 -10.968865655504025 -0.028274898903390078 0 1 0 I I #
edge $-1 $455 $385 $383 $461 forward #
face $-1 $-1 $384 $17 $-1 $337 reversed single #
point $-1 43.366801965392007 -27.337615630254454 -0.028274898903390078 #
straight-curve $-1 0 -27.337615630254454 9.4373884311883707 1 0 0 I I #
plane-surface $-1 0 0 -9.4373884311883707 0 0 1 1 0 0 forward_v I I I I #
coedge $-1 $415 $391 $411 $446 forward $336 $-1 #
coedge $-1 $406 $462 $391 $435 reversed $360 $-1 #
edge $-1 $416 $463 $391 $464 forward #
vertex $-1 $396 $465 #
straight-curve $-1 -43.366801965392007 0 -9.4373884311883707 0 1 0 I I #
straight-curve $-1 0 27.337615630254454 -9.4373884311883707 1 0 0 I I #
straight-curve $-1 -43.366801965392007 27.337615630254454 0 0 0 -1 I I #
point $-1 -43.366801965392007 27.337615630254454 9.4373884311883707 #
coedge $-1 $462 $406 $458 $466 reversed $360 $-1 #
coedge $-1 $408 $407 $419 $454 reversed $310 $-1 #
coedge $-1 $467 $424 $408 $444 forward $404 $-1 #
edge $-1 $426 $468 $443 $469 forward #
coedge $-1 $453 $411 $462 $470 forward $252 $-1 #
edge $-1 $463 $447 $411 $456 forward #
vertex $-1 $412 $471 #
straight-curve $-1 -43.366801965392007 0 -9.4373884311883707 0 1 0 I I #
vertex $-1 $414 $472 #
straight-curve $-1 43.366801965392007 -10.968865655504025 -3.028274898903391 0 -1 0 I I #
point $-1 43.366801965392007 -27.337615630254454 -3.028274898903391 #
straight-curve $-1 0 -27.337615630254454 -9.4373884311883707 -1 0 0 I I #
coedge $-1 $419 $445 $467 $473 forward $252 $-1 #
edge $-1 $468 $455 $419 $474 forward #
vertex $-1 $454 $475 #
straight-curve $-1 -43.366801965392007 -27.337615630254454 0 0 0 -1 I I #
point $-1 -43.366801965392007 -27.337615630254454 9.4373884311883707 #
coedge $-1 $424 $467 $441 $466 forward $404 $-1 #
straight-curve $-1 43.366801965392007 -16.537846991761647 -0.76413744945169526 0 0 -1 I I #
point $-1 43.366801965392007 -16.537846991761647 -0.028274898903390078 #
straight-curve $-1 0 -27.337615630254454 -0.028274898903390078 1 0 0 I I #
coedge $-1 $434 $441 $445 $470 reversed $360 $-1 #
vertex $-1 $446 $476 #
straight-curve $-1 0 -27.337615630254454 -3.028274898903391 -1 0 0 I I #
point $-1 -43.366801965392007 27.337615630254454 -9.4373884311883707 #
edge $-1 $477 $449 $458 $478 forward #
coedge $-1 $458 $443 $453 $473 reversed $404 $-1 #
vertex $-1 $454 $479 #
straight-curve $-1 0 -16.537846991761647 -0.028274898903390078 -1 0 0 I I #
edge $-1 $463 $477 $445 $480 forward #
point $-1 -43.366801965392007 -27.337615630254454 -9.4373884311883707 #
point $-1 43.366801965392007 -16.537846991761647 -3.028274898903391 #
edge $-1 $477 $468 $453 $481 forward #
straight-curve $-1 -43.366801965392007 -10.968865655504025 -0.028274898903390078 0 -1 0 I I #
point $-1 -43.366801965392007 -27.337615630254454 -0.028274898903390078 #
point $-1 -43.366801965392007 -27.337615630254454 -3.028274898903391 #
vertex $-1 $470 $482 #
straight-curve $-1 0 -16.537846991761647 -3.028274898903391 1 0 0 I I #
point $-1 -43.366801965392007 -16.537846991761647 -0.028274898903390078 #
straight-curve $-1 -43.366801965392007 -10.968865655504025 -3.028274898903391 0 1 0 I I #
straight-curve $-1 -43.366801965392007 -16.537846991761647 -0.76413744945169526 0 0 1 I I #
point $-1 -43.366801965392007 -16.537846991761647 -3.028274898903391 #
End-of-ACIS-data 