300 0 18 0           
7 Unknown 11 ACIS 3.0 NT 24 Fri Oct 30 18:23:21 1998 
-1 9.9999999999999995e-007 1e-010 
body $18 $19 $-1 $20 #
body $21 $22 $-1 $23 #
body $24 $25 $-1 $26 #
body $27 $28 $-1 $29 #
body $30 $31 $-1 $32 #
body $33 $34 $-1 $35 #
body $36 $37 $-1 $38 #
body $39 $40 $-1 $41 #
body $42 $43 $-1 $44 #
body $45 $46 $-1 $47 #
body $48 $49 $-1 $50 #
body $51 $52 $-1 $53 #
body $54 $55 $-1 $56 #
body $57 $58 $-1 $59 #
body $60 $61 $-1 $62 #
body $63 $64 $-1 $65 #
body $66 $67 $-1 $68 #
body $69 $70 $-1 $71 #
display_attribute-st-attrib $-1 $72 $-1 $0 1 #
lump $-1 $-1 $73 $0 #
transform $-1 1 0 0 0 1 0 0 0 1 45.168614764854887 28.191407740028801 5.9916312949716044 1 rotate no_reflect no_shear #
display_attribute-st-attrib $-1 $74 $-1 $1 1 #
lump $-1 $-1 $75 $1 #
transform $-1 1 0 0 0 1 0 0 0 1 45.168614764854887 3.82486125116163 10.483262589943209 1 rotate no_reflect no_shear #
display_attribute-st-attrib $-1 $76 $-1 $2 1 #
lump $-1 $-1 $77 $2 #
transform $-1 0.71933979245794832 0 0.69465837861970381 0 1 0 -0.69465837861970381 0 0.71933979245794832 -62.753513394104218 15.782103519479202 71.113023629927838 1 rotate no_reflect no_shear #
display_attribute-st-attrib $-1 $78 $-1 $3 1 #
lump $-1 $-1 $79 $3 #
transform $-1 0.71933979245794832 0 0.69465837861970381 0 -1 0 0.69465837861970381 0 -0.71933979245794832 4.5075870050596301 14.046006850645927 7.5271874867172546 1 rotate no_reflect no_shear #
display_attribute-st-attrib $-1 $80 $-1 $4 1 #
lump $-1 $-1 $81 $4 #
transform $-1 0.71933979245794832 0 0.69465837861970381 0 -1 0 0.69465837861970381 0 -0.71933979245794832 4.5075870050596301 17.518200188312477 7.5271874867172546 1 rotate no_reflect no_shear #
display_attribute-st-attrib $-1 $82 $-1 $5 1 #
lump $-1 $-1 $83 $5 #
transform $-1 0.71933979245794832 0 0.69465837861970381 0 1 0 -0.69465837861970381 0 0.71933979245794832 -62.753513394104218 26.60488050062002 71.113023629927838 1 rotate no_reflect no_shear #
display_attribute-st-attrib $-1 $84 $-1 $6 1 #
lump $-1 $-1 $85 $6 #
transform $-1 0.71933979245794832 0 0.69465837861970381 0 -1 0 0.69465837861970381 0 -0.71933979245794832 4.5075870050596301 24.868783831786747 7.5271874867172546 1 rotate no_reflect no_shear #
display_attribute-st-attrib $-1 $86 $-1 $7 1 #
lump $-1 $-1 $87 $7 #
transform $-1 0.71933979245794832 0 0.69465837861970381 0 -1 0 0.69465837861970381 0 -0.71933979245794832 4.5075870050596301 28.340977169453296 7.5271874867172546 1 rotate no_reflect no_shear #
display_attribute-st-attrib $-1 $88 $-1 $8 1 #
lump $-1 $-1 $89 $8 #
transform $-1 0.71933979245794832 0 0.69465837861970381 0 1 0 -0.69465837861970381 0 0.71933979245794832 -62.753513394104218 37.427657481760839 71.113023629927838 1 rotate no_reflect no_shear #
display_attribute-st-attrib $-1 $90 $-1 $9 1 #
lump $-1 $-1 $91 $9 #
transform $-1 0.71933979245794832 0 0.69465837861970381 0 -1 0 0.69465837861970381 0 -0.71933979245794832 4.5075870050596301 35.691560812927563 7.5271874867172546 1 rotate no_reflect no_shear #
display_attribute-st-attrib $-1 $92 $-1 $10 1 #
lump $-1 $-1 $93 $10 #
transform $-1 0.71933979245794832 0 0.69465837861970381 0 -1 0 0.69465837861970381 0 -0.71933979245794832 4.5075870050596301 39.163754150594116 7.5271874867172546 1 rotate no_reflect no_shear #
display_attribute-st-attrib $-1 $94 $-1 $11 1 #
lump $-1 $-1 $95 $11 #
transform $-1 0.71933979245794832 0 0.69465837861970381 0 1 0 -0.69465837861970381 0 0.71933979245794832 -62.753513394104218 48.250434462901659 71.113023629927838 1 rotate no_reflect no_shear #
display_attribute-st-attrib $-1 $96 $-1 $12 1 #
lump $-1 $-1 $97 $12 #
transform $-1 0.71933979245794832 0 0.69465837861970381 0 -1 0 0.69465837861970381 0 -0.71933979245794832 4.5075870050596301 46.514337794068382 7.5271874867172546 1 rotate no_reflect no_shear #
display_attribute-st-attrib $-1 $98 $-1 $13 1 #
lump $-1 $-1 $99 $13 #
transform $-1 0.71933979245794832 0 0.69465837861970381 0 -1 0 0.69465837861970381 0 -0.71933979245794832 4.5075870050596301 49.986531131734935 7.5271874867172546 1 rotate no_reflect no_shear #
display_attribute-st-attrib $-1 $100 $-1 $14 1 #
lump $-1 $-1 $101 $14 #
transform $-1 0.7313536940579346 0 -0.68199836817093118 0 1 0 0.68199836817093118 0 0.7313536940579346 85.878606126541911 27.024212226614388 134.79411942319226 1 rotate no_reflect no_shear #
display_attribute-st-attrib $-1 $102 $-1 $15 1 #
lump $-1 $-1 $103 $15 #
transform $-1 0.7313536940579346 0 -0.68199836817093118 0 -1 0 -0.68199836817093118 0 -0.7313536940579346 84.728006284751643 27.024212226614388 6.3331043708070496 1 rotate no_reflect no_shear #
display_attribute-st-attrib $-1 $104 $-1 $16 1 #
lump $-1 $-1 $105 $16 #
transform $-1 0.7313536940579346 0 -0.68199836817093118 0 1 0 0.68199836817093118 0 0.7313536940579346 85.878606126541911 51.39075871548156 134.79411942319226 1 rotate no_reflect no_shear #
display_attribute-st-attrib $-1 $106 $-1 $17 1 #
lump $-1 $-1 $107 $17 #
transform $-1 0.7313536940579346 0 -0.68199836817093118 0 -1 0 -0.68199836817093118 0 -0.7313536940579346 84.728006284751643 51.39075871548156 6.3331043708070496 1 rotate no_reflect no_shear #
id_attribute-st-attrib $-1 $-1 $18 $0 1961 #
shell $-1 $-1 $-1 $108 $-1 $19 #
id_attribute-st-attrib $-1 $-1 $21 $1 1966 #
shell $-1 $-1 $-1 $109 $-1 $22 #
id_attribute-st-attrib $-1 $-1 $24 $2 1981 #
shell $-1 $-1 $-1 $110 $-1 $25 #
id_attribute-st-attrib $-1 $-1 $27 $3 1989 #
shell $-1 $-1 $-1 $111 $-1 $28 #
id_attribute-st-attrib $-1 $-1 $30 $4 1998 #
shell $-1 $-1 $-1 $112 $-1 $31 #
id_attribute-st-attrib $-1 $-1 $33 $5 2011 #
shell $-1 $-1 $-1 $113 $-1 $34 #
id_attribute-st-attrib $-1 $-1 $36 $6 2022 #
shell $-1 $-1 $-1 $114 $-1 $37 #
id_attribute-st-attrib $-1 $-1 $39 $7 2034 #
shell $-1 $-1 $-1 $115 $-1 $40 #
id_attribute-st-attrib $-1 $-1 $42 $8 2050 #
shell $-1 $-1 $-1 $116 $-1 $43 #
id_attribute-st-attrib $-1 $-1 $45 $9 2064 #
shell $-1 $-1 $-1 $117 $-1 $46 #
id_attribute-st-attrib $-1 $-1 $48 $10 2079 #
shell $-1 $-1 $-1 $118 $-1 $49 #
id_attribute-st-attrib $-1 $-1 $51 $11 2095 #
shell $-1 $-1 $-1 $119 $-1 $52 #
id_attribute-st-attrib $-1 $-1 $54 $12 2112 #
shell $-1 $-1 $-1 $120 $-1 $55 #
id_attribute-st-attrib $-1 $-1 $57 $13 2130 #
shell $-1 $-1 $-1 $121 $-1 $58 #
id_attribute-st-attrib $-1 $-1 $60 $14 2154 #
shell $-1 $-1 $-1 $122 $-1 $61 #
id_attribute-st-attrib $-1 $-1 $63 $15 2174 #
shell $-1 $-1 $-1 $123 $-1 $64 #
id_attribute-st-attrib $-1 $-1 $66 $16 2195 #
shell $-1 $-1 $-1 $124 $-1 $67 #
id_attribute-st-attrib $-1 $-1 $69 $17 2217 #
shell $-1 $-1 $-1 $125 $-1 $70 #
face $-1 $126 $127 $73 $-1 $128 forward single #
face $-1 $129 $130 $75 $-1 $131 forward single #
face $-1 $132 $133 $77 $-1 $134 forward single #
face $-1 $135 $136 $79 $-1 $137 forward single #
face $-1 $138 $139 $81 $-1 $140 forward single #
face $-1 $141 $142 $83 $-1 $143 forward single #
face $-1 $144 $145 $85 $-1 $146 forward single #
face $-1 $147 $148 $87 $-1 $149 forward single #
face $-1 $150 $151 $89 $-1 $152 forward single #
face $-1 $153 $154 $91 $-1 $155 forward single #
face $-1 $156 $157 $93 $-1 $158 forward single #
face $-1 $159 $160 $95 $-1 $161 forward single #
face $-1 $162 $163 $97 $-1 $164 forward single #
face $-1 $165 $166 $99 $-1 $167 forward single #
face $-1 $168 $169 $101 $-1 $170 forward single #
face $-1 $171 $172 $103 $-1 $173 forward single #
face $-1 $174 $175 $105 $-1 $176 forward single #
face $-1 $177 $178 $107 $-1 $179 forward single #
face $-1 $180 $181 $73 $-1 $182 reversed single #
loop $-1 $-1 $183 $108 #
plane-surface $-1 0 0 5.9916312949716044 0 0 1 1 0 0 forward_v I I I I #
face $-1 $184 $185 $75 $-1 $186 reversed single #
loop $-1 $-1 $187 $109 #
plane-surface $-1 0 0 1.5 0 0 1 1 0 0 forward_v I I I I #
face $-1 $188 $189 $77 $-1 $190 reversed single #
loop $-1 $-1 $191 $110 #
plane-surface $-1 0 0 90.337229529709774 0 0 1 1 0 0 forward_v I I I I #
face $-1 $192 $193 $79 $-1 $194 forward single #
loop $-1 $195 $196 $111 #
cone-surface $-1 0 0 -1.1880397961363567 0 0 1 0.5 0 0 1 I I 0 1 forward I I I I #
face $-1 $197 $198 $81 $-1 $199 forward single #
loop $-1 $200 $201 $112 #
cone-surface $-1 0 0 -1.1880397961363567 0 0 1 0.5 0 0 1 I I 0 1 forward I I I I #
face $-1 $202 $203 $83 $-1 $204 reversed single #
loop $-1 $-1 $205 $113 #
plane-surface $-1 0 0 90.337229529709774 0 0 1 1 0 0 forward_v I I I I #
face $-1 $206 $207 $85 $-1 $208 forward single #
loop $-1 $209 $210 $114 #
cone-surface $-1 0 0 -1.1880397961363567 0 0 1 0.5 0 0 1 I I 0 1 forward I I I I #
face $-1 $211 $212 $87 $-1 $213 forward single #
loop $-1 $214 $215 $115 #
cone-surface $-1 0 0 -1.1880397961363567 0 0 1 0.5 0 0 1 I I 0 1 forward I I I I #
face $-1 $216 $217 $89 $-1 $218 reversed single #
loop $-1 $-1 $219 $116 #
plane-surface $-1 0 0 90.337229529709774 0 0 1 1 0 0 forward_v I I I I #
face $-1 $220 $221 $91 $-1 $222 forward single #
loop $-1 $223 $224 $117 #
cone-surface $-1 0 0 -1.1880397961363567 0 0 1 0.5 0 0 1 I I 0 1 forward I I I I #
face $-1 $225 $226 $93 $-1 $227 forward single #
loop $-1 $228 $229 $118 #
cone-surface $-1 0 0 -1.1880397961363567 0 0 1 0.5 0 0 1 I I 0 1 forward I I I I #
face $-1 $230 $231 $95 $-1 $232 reversed single #
loop $-1 $-1 $233 $119 #
plane-surface $-1 0 0 90.337229529709774 0 0 1 1 0 0 forward_v I I I I #
face $-1 $234 $235 $97 $-1 $236 forward single #
loop $-1 $237 $238 $120 #
cone-surface $-1 0 0 -1.1880397961363567 0 0 1 0.5 0 0 1 I I 0 1 forward I I I I #
face $-1 $239 $240 $99 $-1 $241 forward single #
loop $-1 $242 $243 $121 #
cone-surface $-1 0 0 -1.1880397961363567 0 0 1 0.5 0 0 1 I I 0 1 forward I I I I #
face $-1 $244 $245 $101 $-1 $246 reversed single #
loop $-1 $-1 $247 $122 #
plane-surface $-1 0 0 90.337229529709774 0 0 1 1 0 0 forward_v I I I I #
face $-1 $248 $249 $103 $-1 $250 forward single #
loop $-1 $251 $252 $123 #
cone-surface $-1 0 0 -2.4489577929013944 0 0 1 1 0 0 1 I I 0 1 forward I I I I #
face $-1 $253 $254 $105 $-1 $255 reversed single #
loop $-1 $-1 $256 $124 #
plane-surface $-1 0 0 90.337229529709774 0 0 1 1 0 0 forward_v I I I I #
face $-1 $257 $258 $107 $-1 $259 forward single #
loop $-1 $260 $261 $125 #
cone-surface $-1 0 0 -2.4489577929013944 0 0 1 1 0 0 1 I I 0 1 forward I I I I #
face $-1 $262 $263 $73 $-1 $264 reversed single #
loop $-1 $-1 $265 $126 #
plane-surface $-1 0 0 -5.9916312949716044 0 0 1 1 0 0 forward_v I I I I #
coedge $-1 $266 $267 $268 $269 forward $127 $-1 #
face $-1 $270 $271 $75 $-1 $272 reversed single #
loop $-1 $-1 $273 $129 #
plane-surface $-1 0 0 -1.5 0 0 1 1 0 0 forward_v I I I I #
coedge $-1 $274 $275 $276 $277 forward $130 $-1 #
face $-1 $278 $279 $77 $-1 $280 reversed single #
loop $-1 $-1 $281 $132 #
plane-surface $-1 0 0 -90.337229529709774 0 0 1 1 0 0 forward_v I I I I #
coedge $-1 $282 $283 $284 $285 forward $133 $-1 #
face $-1 $-1 $286 $79 $-1 $287 forward single #
loop $-1 $-1 $288 $135 #
plane-surface $-1 0 0 -2.1260795922727134 0 0 -1 -1 0 0 forward_v I I I I #
loop $-1 $-1 $289 $111 #
coedge $-1 $196 $196 $288 $290 reversed $136 $-1 #
face $-1 $-1 $291 $81 $-1 $292 forward single #
loop $-1 $-1 $293 $138 #
plane-surface $-1 0 0 -2.1260795922727134 0 0 -1 -1 0 0 forward_v I I I I #
loop $-1 $-1 $294 $112 #
coedge $-1 $201 $201 $293 $295 reversed $139 $-1 #
face $-1 $296 $297 $83 $-1 $298 reversed single #
loop $-1 $-1 $299 $141 #
plane-surface $-1 0 0 -90.337229529709774 0 0 1 1 0 0 forward_v I I I I #
coedge $-1 $300 $301 $302 $303 forward $142 $-1 #
face $-1 $-1 $304 $85 $-1 $305 forward single #
loop $-1 $-1 $306 $144 #
plane-surface $-1 0 0 -2.1260795922727134 0 0 -1 -1 0 0 forward_v I I I I #
loop $-1 $-1 $307 $114 #
coedge $-1 $210 $210 $306 $308 reversed $145 $-1 #
face $-1 $-1 $309 $87 $-1 $310 forward single #
loop $-1 $-1 $311 $147 #
plane-surface $-1 0 0 -2.1260795922727134 0 0 -1 -1 0 0 forward_v I I I I #
loop $-1 $-1 $312 $115 #
coedge $-1 $215 $215 $311 $313 reversed $148 $-1 #
face $-1 $314 $315 $89 $-1 $316 reversed single #
loop $-1 $-1 $317 $150 #
plane-surface $-1 0 0 -90.337229529709774 0 0 1 1 0 0 forward_v I I I I #
coedge $-1 $318 $319 $320 $321 forward $151 $-1 #
face $-1 $-1 $322 $91 $-1 $323 forward single #
loop $-1 $-1 $324 $153 #
plane-surface $-1 0 0 -2.1260795922727134 0 0 -1 -1 0 0 forward_v I I I I #
loop $-1 $-1 $325 $117 #
coedge $-1 $224 $224 $324 $326 reversed $154 $-1 #
face $-1 $-1 $327 $93 $-1 $328 forward single #
loop $-1 $-1 $329 $156 #
plane-surface $-1 0 0 -2.1260795922727134 0 0 -1 -1 0 0 forward_v I I I I #
loop $-1 $-1 $330 $118 #
coedge $-1 $229 $229 $329 $331 reversed $157 $-1 #
face $-1 $332 $333 $95 $-1 $334 reversed single #
loop $-1 $-1 $335 $159 #
plane-surface $-1 0 0 -90.337229529709774 0 0 1 1 0 0 forward_v I I I I #
coedge $-1 $336 $337 $338 $339 forward $160 $-1 #
face $-1 $-1 $340 $97 $-1 $341 forward single #
loop $-1 $-1 $342 $162 #
plane-surface $-1 0 0 -2.1260795922727134 0 0 -1 -1 0 0 forward_v I I I I #
loop $-1 $-1 $343 $120 #
coedge $-1 $238 $238 $342 $344 reversed $163 $-1 #
face $-1 $-1 $345 $99 $-1 $346 forward single #
loop $-1 $-1 $347 $165 #
plane-surface $-1 0 0 -2.1260795922727134 0 0 -1 -1 0 0 forward_v I I I I #
loop $-1 $-1 $348 $121 #
coedge $-1 $243 $243 $347 $349 reversed $166 $-1 #
face $-1 $350 $351 $101 $-1 $352 reversed single #
loop $-1 $-1 $353 $168 #
plane-surface $-1 0 0 -90.337229529709774 0 0 1 1 0 0 forward_v I I I I #
coedge $-1 $354 $355 $356 $357 forward $169 $-1 #
face $-1 $-1 $358 $103 $-1 $359 forward single #
loop $-1 $-1 $360 $171 #
plane-surface $-1 0 0 -4.3979155858027887 0 0 -1 -1 0 0 forward_v I I I I #
loop $-1 $-1 $361 $123 #
coedge $-1 $252 $252 $360 $362 reversed $172 $-1 #
face $-1 $363 $364 $105 $-1 $365 reversed single #
loop $-1 $-1 $366 $174 #
plane-surface $-1 0 0 -90.337229529709774 0 0 1 1 0 0 forward_v I I I I #
coedge $-1 $367 $368 $369 $370 forward $175 $-1 #
face $-1 $-1 $371 $107 $-1 $372 forward single #
loop $-1 $-1 $373 $177 #
plane-surface $-1 0 0 -4.3979155858027887 0 0 -1 -1 0 0 forward_v I I I I #
loop $-1 $-1 $374 $125 #
coedge $-1 $261 $261 $373 $375 reversed $178 $-1 #
face $-1 $376 $377 $73 $-1 $378 reversed single #
loop $-1 $-1 $379 $180 #
plane-surface $-1 0 -28.191407740028801 0 0 1 0 0 0 1 forward_v I I I I #
coedge $-1 $380 $381 $382 $383 forward $181 $-1 #
coedge $-1 $384 $183 $385 $386 forward $127 $-1 #
coedge $-1 $183 $384 $387 $388 forward $127 $-1 #
coedge $-1 $389 $390 $183 $269 reversed $391 $-1 #
edge $-1 $392 $393 $268 $394 forward #
face $-1 $395 $396 $75 $-1 $397 reversed single #
loop $-1 $-1 $398 $184 #
plane-surface $-1 0 -3.82486125116163 0 0 1 0 0 0 1 forward_v I I I I #
coedge $-1 $399 $400 $401 $402 forward $185 $-1 #
coedge $-1 $403 $187 $404 $405 forward $130 $-1 #
coedge $-1 $187 $403 $406 $407 forward $130 $-1 #
coedge $-1 $408 $409 $187 $277 reversed $410 $-1 #
edge $-1 $411 $412 $276 $413 forward #
face $-1 $414 $415 $77 $-1 $416 reversed single #
loop $-1 $-1 $417 $188 #
plane-surface $-1 0 -4.0508922272776413 0 0 1 0 0 0 1 forward_v I I I I #
coedge $-1 $418 $419 $420 $421 forward $189 $-1 #
coedge $-1 $422 $191 $423 $424 forward $133 $-1 #
coedge $-1 $191 $422 $425 $426 forward $133 $-1 #
coedge $-1 $427 $428 $191 $285 reversed $429 $-1 #
edge $-1 $430 $431 $284 $432 forward #
loop $-1 $433 $434 $192 #
cone-surface $-1 0 0 0 0 0 1 0.25 0 0 1 I I -0.70710678118654746 0.70710678118654746 forward I I I I #
coedge $-1 $288 $288 $196 $290 forward $193 $-1 #
coedge $-1 $289 $289 $434 $435 forward $195 $-1 #
edge $-1 $436 $436 $288 $437 forward #
loop $-1 $438 $439 $197 #
cone-surface $-1 0 0 0 0 0 1 0.25 0 0 1 I I -0.70710678118654746 0.70710678118654746 forward I I I I #
coedge $-1 $293 $293 $201 $295 forward $198 $-1 #
coedge $-1 $294 $294 $439 $440 forward $200 $-1 #
edge $-1 $441 $441 $293 $442 forward #
face $-1 $443 $444 $83 $-1 $445 reversed single #
loop $-1 $-1 $446 $202 #
plane-surface $-1 0 -4.0508922272776413 0 0 1 0 0 0 1 forward_v I I I I #
coedge $-1 $447 $448 $449 $450 forward $203 $-1 #
coedge $-1 $451 $205 $452 $453 forward $142 $-1 #
coedge $-1 $205 $451 $454 $455 forward $142 $-1 #
coedge $-1 $456 $457 $205 $303 reversed $458 $-1 #
edge $-1 $459 $460 $302 $461 forward #
loop $-1 $462 $463 $206 #
cone-surface $-1 0 0 0 0 0 1 0.25 0 0 1 I I -0.70710678118654746 0.70710678118654746 forward I I I I #
coedge $-1 $306 $306 $210 $308 forward $207 $-1 #
coedge $-1 $307 $307 $463 $464 forward $209 $-1 #
edge $-1 $465 $465 $306 $466 forward #
loop $-1 $467 $468 $211 #
cone-surface $-1 0 0 0 0 0 1 0.25 0 0 1 I I -0.70710678118654746 0.70710678118654746 forward I I I I #
coedge $-1 $311 $311 $215 $313 forward $212 $-1 #
coedge $-1 $312 $312 $468 $469 forward $214 $-1 #
edge $-1 $470 $470 $311 $471 forward #
face $-1 $472 $473 $89 $-1 $474 reversed single #
loop $-1 $-1 $475 $216 #
plane-surface $-1 0 -4.0508922272776413 0 0 1 0 0 0 1 forward_v I I I I #
coedge $-1 $476 $477 $478 $479 forward $217 $-1 #
coedge $-1 $480 $219 $481 $482 forward $151 $-1 #
coedge $-1 $219 $480 $483 $484 forward $151 $-1 #
coedge $-1 $485 $486 $219 $321 reversed $487 $-1 #
edge $-1 $488 $489 $320 $490 forward #
loop $-1 $491 $492 $220 #
cone-surface $-1 0 0 0 0 0 1 0.25 0 0 1 I I -0.70710678118654746 0.70710678118654746 forward I I I I #
coedge $-1 $324 $324 $224 $326 forward $221 $-1 #
coedge $-1 $325 $325 $492 $493 forward $223 $-1 #
edge $-1 $494 $494 $324 $495 forward #
loop $-1 $496 $497 $225 #
cone-surface $-1 0 0 0 0 0 1 0.25 0 0 1 I I -0.70710678118654746 0.70710678118654746 forward I I I I #
coedge $-1 $329 $329 $229 $331 forward $226 $-1 #
coedge $-1 $330 $330 $497 $498 forward $228 $-1 #
edge $-1 $499 $499 $329 $500 forward #
face $-1 $501 $502 $95 $-1 $503 reversed single #
loop $-1 $-1 $504 $230 #
plane-surface $-1 0 -4.0508922272776413 0 0 1 0 0 0 1 forward_v I I I I #
coedge $-1 $505 $506 $507 $508 forward $231 $-1 #
coedge $-1 $509 $233 $510 $511 forward $160 $-1 #
coedge $-1 $233 $509 $512 $513 forward $160 $-1 #
coedge $-1 $514 $515 $233 $339 reversed $516 $-1 #
edge $-1 $517 $518 $338 $519 forward #
loop $-1 $520 $521 $234 #
cone-surface $-1 0 0 0 0 0 1 0.25 0 0 1 I I -0.70710678118654746 0.70710678118654746 forward I I I I #
coedge $-1 $342 $342 $238 $344 forward $235 $-1 #
coedge $-1 $343 $343 $521 $522 forward $237 $-1 #
edge $-1 $523 $523 $342 $524 forward #
loop $-1 $525 $526 $239 #
cone-surface $-1 0 0 0 0 0 1 0.25 0 0 1 I I -0.70710678118654746 0.70710678118654746 forward I I I I #
coedge $-1 $347 $347 $243 $349 forward $240 $-1 #
coedge $-1 $348 $348 $526 $527 forward $242 $-1 #
edge $-1 $528 $528 $347 $529 forward #
face $-1 $530 $531 $101 $-1 $532 reversed single #
loop $-1 $-1 $533 $244 #
plane-surface $-1 0 -4.9920567645760414 0 0 1 0 0 0 1 forward_v I I I I #
coedge $-1 $534 $535 $536 $537 forward $245 $-1 #
coedge $-1 $538 $247 $539 $540 forward $169 $-1 #
coedge $-1 $247 $538 $541 $542 forward $169 $-1 #
coedge $-1 $543 $544 $247 $357 reversed $545 $-1 #
edge $-1 $546 $547 $356 $548 forward #
loop $-1 $549 $550 $248 #
cone-surface $-1 0 0 0 0 0 1 0.5 0 0 1 I I -0.70710678118654768 0.70710678118654735 forward I I I I #
coedge $-1 $360 $360 $252 $362 forward $249 $-1 #
coedge $-1 $361 $361 $550 $551 forward $251 $-1 #
edge $-1 $552 $552 $360 $553 forward #
face $-1 $554 $555 $105 $-1 $556 reversed single #
loop $-1 $-1 $557 $253 #
plane-surface $-1 0 -4.9920567645760414 0 0 1 0 0 0 1 forward_v I I I I #
coedge $-1 $558 $559 $560 $561 forward $254 $-1 #
coedge $-1 $562 $256 $563 $564 forward $175 $-1 #
coedge $-1 $256 $562 $565 $566 forward $175 $-1 #
coedge $-1 $567 $568 $256 $370 reversed $569 $-1 #
edge $-1 $570 $571 $369 $572 forward #
loop $-1 $573 $574 $257 #
cone-surface $-1 0 0 0 0 0 1 0.5 0 0 1 I I -0.70710678118654768 0.70710678118654735 forward I I I I #
coedge $-1 $373 $373 $261 $375 forward $258 $-1 #
coedge $-1 $374 $374 $574 $575 forward $260 $-1 #
edge $-1 $576 $576 $373 $577 forward #
face $-1 $578 $579 $73 $-1 $580 reversed single #
loop $-1 $-1 $581 $262 #
plane-surface $-1 -45.168614764854887 0 0 1 0 0 0 0 -1 forward_v I I I I #
coedge $-1 $582 $387 $583 $584 forward $263 $-1 #
coedge $-1 $585 $265 $582 $586 forward $181 $-1 #
coedge $-1 $265 $585 $587 $588 forward $181 $-1 #
coedge $-1 $390 $389 $265 $383 reversed $391 $-1 #
edge $-1 $589 $590 $382 $591 forward #
coedge $-1 $267 $266 $592 $593 forward $127 $-1 #
coedge $-1 $594 $595 $266 $386 reversed $579 $-1 #
edge $-1 $393 $596 $385 $597 forward #
coedge $-1 $379 $598 $267 $388 reversed $263 $-1 #
edge $-1 $599 $392 $387 $600 forward #
coedge $-1 $382 $268 $598 $601 forward $391 $-1 #
coedge $-1 $268 $382 $594 $602 reversed $391 $-1 #
loop $-1 $-1 $389 $578 #
vertex $-1 $269 $603 #
vertex $-1 $269 $604 #
straight-curve $-1 45.168614764854887 0 5.9916312949716044 0 1 0 I I #
face $-1 $605 $606 $75 $-1 $607 reversed single #
loop $-1 $-1 $608 $270 #
plane-surface $-1 -45.168614764854887 0 0 1 0 0 0 0 -1 forward_v I I I I #
coedge $-1 $609 $406 $610 $611 forward $271 $-1 #
coedge $-1 $612 $273 $609 $613 forward $185 $-1 #
coedge $-1 $273 $612 $614 $615 forward $185 $-1 #
coedge $-1 $409 $408 $273 $402 reversed $410 $-1 #
edge $-1 $616 $617 $401 $618 forward #
coedge $-1 $275 $274 $619 $620 forward $130 $-1 #
coedge $-1 $621 $622 $274 $405 reversed $606 $-1 #
edge $-1 $412 $623 $404 $624 forward #
coedge $-1 $398 $625 $275 $407 reversed $271 $-1 #
edge $-1 $626 $411 $406 $627 forward #
coedge $-1 $401 $276 $625 $628 forward $410 $-1 #
coedge $-1 $276 $401 $621 $629 reversed $410 $-1 #
loop $-1 $-1 $408 $605 #
vertex $-1 $277 $630 #
vertex $-1 $277 $631 #
straight-curve $-1 45.168614764854887 0 1.5 0 1 0 I I #
face $-1 $632 $633 $77 $-1 $634 reversed single #
loop $-1 $-1 $635 $278 #
plane-surface $-1 -180.67445905941955 0 0 1 0 0 0 0 -1 forward_v I I I I #
coedge $-1 $636 $425 $637 $638 forward $279 $-1 #
coedge $-1 $639 $281 $636 $640 forward $189 $-1 #
coedge $-1 $281 $639 $641 $642 forward $189 $-1 #
coedge $-1 $428 $427 $281 $421 reversed $429 $-1 #
edge $-1 $643 $644 $420 $645 forward #
coedge $-1 $283 $282 $646 $647 forward $133 $-1 #
coedge $-1 $648 $649 $282 $424 reversed $633 $-1 #
edge $-1 $431 $650 $423 $651 forward #
coedge $-1 $417 $652 $283 $426 reversed $279 $-1 #
edge $-1 $653 $430 $425 $654 forward #
coedge $-1 $420 $284 $652 $655 forward $429 $-1 #
coedge $-1 $284 $420 $648 $656 reversed $429 $-1 #
loop $-1 $-1 $427 $632 #
vertex $-1 $285 $657 #
vertex $-1 $285 $658 #
straight-curve $-1 180.67445905941955 0 90.337229529709774 0 1 0 I I #
loop $-1 $-1 $659 $192 #
coedge $-1 $434 $434 $289 $435 reversed $286 $-1 #
edge $-1 $660 $660 $434 $661 forward #
vertex $-1 $290 $662 #
ellipse-curve $-1 0 0 -2.1260795922727134 0 0 -1 0.5 0 0 1 I I #
loop $-1 $-1 $663 $197 #
coedge $-1 $439 $439 $294 $440 reversed $291 $-1 #
edge $-1 $664 $664 $439 $665 forward #
vertex $-1 $295 $666 #
ellipse-curve $-1 0 0 -2.1260795922727134 0 0 -1 0.5 0 0 1 I I #
face $-1 $667 $668 $83 $-1 $669 reversed single #
loop $-1 $-1 $670 $296 #
plane-surface $-1 -180.67445905941955 0 0 1 0 0 0 0 -1 forward_v I I I I #
coedge $-1 $671 $454 $672 $673 forward $297 $-1 #
coedge $-1 $674 $299 $671 $675 forward $203 $-1 #
coedge $-1 $299 $674 $676 $677 forward $203 $-1 #
coedge $-1 $457 $456 $299 $450 reversed $458 $-1 #
edge $-1 $678 $679 $449 $680 forward #
coedge $-1 $301 $300 $681 $682 forward $142 $-1 #
coedge $-1 $683 $684 $300 $453 reversed $668 $-1 #
edge $-1 $460 $685 $452 $686 forward #
coedge $-1 $446 $687 $301 $455 reversed $297 $-1 #
edge $-1 $688 $459 $454 $689 forward #
coedge $-1 $449 $302 $687 $690 forward $458 $-1 #
coedge $-1 $302 $449 $683 $691 reversed $458 $-1 #
loop $-1 $-1 $456 $667 #
vertex $-1 $303 $692 #
vertex $-1 $303 $693 #
straight-curve $-1 180.67445905941955 0 90.337229529709774 0 1 0 I I #
loop $-1 $-1 $694 $206 #
coedge $-1 $463 $463 $307 $464 reversed $304 $-1 #
edge $-1 $695 $695 $463 $696 forward #
vertex $-1 $308 $697 #
ellipse-curve $-1 0 0 -2.1260795922727134 0 0 -1 0.5 0 0 1 I I #
loop $-1 $-1 $698 $211 #
coedge $-1 $468 $468 $312 $469 reversed $309 $-1 #
edge $-1 $699 $699 $468 $700 forward #
vertex $-1 $313 $701 #
ellipse-curve $-1 0 0 -2.1260795922727134 0 0 -1 0.5 0 0 1 I I #
face $-1 $702 $703 $89 $-1 $704 reversed single #
loop $-1 $-1 $705 $314 #
plane-surface $-1 -180.67445905941955 0 0 1 0 0 0 0 -1 forward_v I I I I #
coedge $-1 $706 $483 $707 $708 forward $315 $-1 #
coedge $-1 $709 $317 $706 $710 forward $217 $-1 #
coedge $-1 $317 $709 $711 $712 forward $217 $-1 #
coedge $-1 $486 $485 $317 $479 reversed $487 $-1 #
edge $-1 $713 $714 $478 $715 forward #
coedge $-1 $319 $318 $716 $717 forward $151 $-1 #
coedge $-1 $718 $719 $318 $482 reversed $703 $-1 #
edge $-1 $489 $720 $481 $721 forward #
coedge $-1 $475 $722 $319 $484 reversed $315 $-1 #
edge $-1 $723 $488 $483 $724 forward #
coedge $-1 $478 $320 $722 $725 forward $487 $-1 #
coedge $-1 $320 $478 $718 $726 reversed $487 $-1 #
loop $-1 $-1 $485 $702 #
vertex $-1 $321 $727 #
vertex $-1 $321 $728 #
straight-curve $-1 180.67445905941955 0 90.337229529709774 0 1 0 I I #
loop $-1 $-1 $729 $220 #
coedge $-1 $492 $492 $325 $493 reversed $322 $-1 #
edge $-1 $730 $730 $492 $731 forward #
vertex $-1 $326 $732 #
ellipse-curve $-1 0 0 -2.1260795922727134 0 0 -1 0.5 0 0 1 I I #
loop $-1 $-1 $733 $225 #
coedge $-1 $497 $497 $330 $498 reversed $327 $-1 #
edge $-1 $734 $734 $497 $735 forward #
vertex $-1 $331 $736 #
ellipse-curve $-1 0 0 -2.1260795922727134 0 0 -1 0.5 0 0 1 I I #
face $-1 $737 $738 $95 $-1 $739 reversed single #
loop $-1 $-1 $740 $332 #
plane-surface $-1 -180.67445905941955 0 0 1 0 0 0 0 -1 forward_v I I I I #
coedge $-1 $741 $512 $742 $743 forward $333 $-1 #
coedge $-1 $744 $335 $741 $745 forward $231 $-1 #
coedge $-1 $335 $744 $746 $747 forward $231 $-1 #
coedge $-1 $515 $514 $335 $508 reversed $516 $-1 #
edge $-1 $748 $749 $507 $750 forward #
coedge $-1 $337 $336 $751 $752 forward $160 $-1 #
coedge $-1 $753 $754 $336 $511 reversed $738 $-1 #
edge $-1 $518 $755 $510 $756 forward #
coedge $-1 $504 $757 $337 $513 reversed $333 $-1 #
edge $-1 $758 $517 $512 $759 forward #
coedge $-1 $507 $338 $757 $760 forward $516 $-1 #
coedge $-1 $338 $507 $753 $761 reversed $516 $-1 #
loop $-1 $-1 $514 $737 #
vertex $-1 $339 $762 #
vertex $-1 $339 $763 #
straight-curve $-1 180.67445905941955 0 90.337229529709774 0 1 0 I I #
loop $-1 $-1 $764 $234 #
coedge $-1 $521 $521 $343 $522 reversed $340 $-1 #
edge $-1 $765 $765 $521 $766 forward #
vertex $-1 $344 $767 #
ellipse-curve $-1 0 0 -2.1260795922727134 0 0 -1 0.5 0 0 1 I I #
loop $-1 $-1 $768 $239 #
coedge $-1 $526 $526 $348 $527 reversed $345 $-1 #
edge $-1 $769 $769 $526 $770 forward #
vertex $-1 $349 $771 #
ellipse-curve $-1 0 0 -2.1260795922727134 0 0 -1 0.5 0 0 1 I I #
face $-1 $772 $773 $101 $-1 $774 reversed single #
loop $-1 $-1 $775 $350 #
plane-surface $-1 -180.67445905941955 0 0 1 0 0 0 0 -1 forward_v I I I I #
coedge $-1 $776 $541 $777 $778 forward $351 $-1 #
coedge $-1 $779 $353 $776 $780 forward $245 $-1 #
coedge $-1 $353 $779 $781 $782 forward $245 $-1 #
coedge $-1 $544 $543 $353 $537 reversed $545 $-1 #
edge $-1 $783 $784 $536 $785 forward #
coedge $-1 $355 $354 $786 $787 forward $169 $-1 #
coedge $-1 $788 $789 $354 $540 reversed $773 $-1 #
edge $-1 $547 $790 $539 $791 forward #
coedge $-1 $533 $792 $355 $542 reversed $351 $-1 #
edge $-1 $793 $546 $541 $794 forward #
coedge $-1 $536 $356 $792 $795 forward $545 $-1 #
coedge $-1 $356 $536 $788 $796 reversed $545 $-1 #
loop $-1 $-1 $543 $772 #
vertex $-1 $357 $797 #
vertex $-1 $357 $798 #
straight-curve $-1 180.67445905941955 0 90.337229529709774 0 1 0 I I #
loop $-1 $-1 $799 $248 #
coedge $-1 $550 $550 $361 $551 reversed $358 $-1 #
edge $-1 $800 $800 $550 $801 forward #
vertex $-1 $362 $802 #
ellipse-curve $-1 0 0 -4.3979155858027887 0 0 -1 1 0 0 1 I I #
face $-1 $803 $804 $105 $-1 $805 reversed single #
loop $-1 $-1 $806 $363 #
plane-surface $-1 -180.67445905941955 0 0 1 0 0 0 0 -1 forward_v I I I I #
coedge $-1 $807 $565 $808 $809 forward $364 $-1 #
coedge $-1 $810 $366 $807 $811 forward $254 $-1 #
coedge $-1 $366 $810 $812 $813 forward $254 $-1 #
coedge $-1 $568 $567 $366 $561 reversed $569 $-1 #
edge $-1 $814 $815 $560 $816 forward #
coedge $-1 $368 $367 $817 $818 forward $175 $-1 #
coedge $-1 $819 $820 $367 $564 reversed $804 $-1 #
edge $-1 $571 $821 $563 $822 forward #
coedge $-1 $557 $823 $368 $566 reversed $364 $-1 #
edge $-1 $824 $570 $565 $825 forward #
coedge $-1 $560 $369 $823 $826 forward $569 $-1 #
coedge $-1 $369 $560 $819 $827 reversed $569 $-1 #
loop $-1 $-1 $567 $803 #
vertex $-1 $370 $828 #
vertex $-1 $370 $829 #
straight-curve $-1 180.67445905941955 0 90.337229529709774 0 1 0 I I #
loop $-1 $-1 $830 $257 #
coedge $-1 $574 $574 $374 $575 reversed $371 $-1 #
edge $-1 $831 $831 $574 $832 forward #
vertex $-1 $375 $833 #
ellipse-curve $-1 0 0 -4.3979155858027887 0 0 -1 1 0 0 1 I I #
face $-1 $-1 $391 $73 $-1 $834 reversed single #
loop $-1 $-1 $594 $376 #
plane-surface $-1 0 28.191407740028801 0 0 -1 0 0 0 -1 forward_v I I I I #
coedge $-1 $835 $592 $595 $836 forward $377 $-1 #
coedge $-1 $598 $379 $380 $586 reversed $263 $-1 #
coedge $-1 $592 $835 $379 $584 reversed $377 $-1 #
edge $-1 $599 $837 $583 $838 forward #
coedge $-1 $381 $380 $835 $839 forward $181 $-1 #
edge $-1 $590 $837 $582 $840 forward #
coedge $-1 $595 $594 $381 $588 reversed $579 $-1 #
edge $-1 $841 $589 $587 $842 forward #
vertex $-1 $383 $843 #
vertex $-1 $601 $844 #
straight-curve $-1 45.168614764854887 0 -5.9916312949716044 0 -1 0 I I #
coedge $-1 $581 $583 $384 $593 reversed $377 $-1 #
edge $-1 $596 $599 $592 $845 forward #
coedge $-1 $587 $385 $390 $602 forward $579 $-1 #
coedge $-1 $385 $587 $581 $836 reversed $579 $-1 #
vertex $-1 $386 $846 #
straight-curve $-1 0 28.191407740028801 5.9916312949716044 -1 0 0 I I #
coedge $-1 $387 $582 $389 $601 reversed $263 $-1 #
vertex $-1 $593 $847 #
straight-curve $-1 0 -28.191407740028801 5.9916312949716044 1 0 0 I I #
edge $-1 $392 $590 $389 $848 forward #
edge $-1 $393 $589 $390 $849 forward #
point $-1 45.168614764854887 -28.191407740028801 5.9916312949716044 #
point $-1 45.168614764854887 28.191407740028801 5.9916312949716044 #
face $-1 $-1 $410 $75 $-1 $850 reversed single #
loop $-1 $-1 $621 $395 #
plane-surface $-1 0 3.82486125116163 0 0 -1 0 0 0 -1 forward_v I I I I #
coedge $-1 $851 $619 $622 $852 forward $396 $-1 #
coedge $-1 $625 $398 $399 $613 reversed $271 $-1 #
coedge $-1 $619 $851 $398 $611 reversed $396 $-1 #
edge $-1 $626 $853 $610 $854 forward #
coedge $-1 $400 $399 $851 $855 forward $185 $-1 #
edge $-1 $617 $853 $609 $856 forward #
coedge $-1 $622 $621 $400 $615 reversed $606 $-1 #
edge $-1 $857 $616 $614 $858 forward #
vertex $-1 $402 $859 #
vertex $-1 $628 $860 #
straight-curve $-1 45.168614764854887 0 -1.5 0 -1 0 I I #
coedge $-1 $608 $610 $403 $620 reversed $396 $-1 #
edge $-1 $623 $626 $619 $861 forward #
coedge $-1 $614 $404 $409 $629 forward $606 $-1 #
coedge $-1 $404 $614 $608 $852 reversed $606 $-1 #
vertex $-1 $405 $862 #
straight-curve $-1 0 3.82486125116163 1.5 -1 0 0 I I #
coedge $-1 $406 $609 $408 $628 reversed $271 $-1 #
vertex $-1 $620 $863 #
straight-curve $-1 0 -3.82486125116163 1.5 1 0 0 I I #
edge $-1 $411 $617 $408 $864 forward #
edge $-1 $412 $616 $409 $865 forward #
point $-1 45.168614764854887 -3.82486125116163 1.5 #
point $-1 45.168614764854887 3.82486125116163 1.5 #
face $-1 $-1 $429 $77 $-1 $866 reversed single #
loop $-1 $-1 $648 $414 #
plane-surface $-1 0 4.0508922272776413 0 0 -1 0 0 0 -1 forward_v I I I I #
coedge $-1 $867 $646 $649 $868 forward $415 $-1 #
coedge $-1 $652 $417 $418 $640 reversed $279 $-1 #
coedge $-1 $646 $867 $417 $638 reversed $415 $-1 #
edge $-1 $653 $869 $637 $870 forward #
coedge $-1 $419 $418 $867 $871 forward $189 $-1 #
edge $-1 $644 $869 $636 $872 forward #
coedge $-1 $649 $648 $419 $642 reversed $633 $-1 #
edge $-1 $873 $643 $641 $874 forward #
vertex $-1 $421 $875 #
vertex $-1 $655 $876 #
straight-curve $-1 180.67445905941955 0 -90.337229529709774 0 -1 0 I I #
coedge $-1 $635 $637 $422 $647 reversed $415 $-1 #
edge $-1 $650 $653 $646 $877 forward #
coedge $-1 $641 $423 $428 $656 forward $633 $-1 #
coedge $-1 $423 $641 $635 $868 reversed $633 $-1 #
vertex $-1 $424 $878 #
straight-curve $-1 0 4.0508922272776413 90.337229529709774 -1 0 0 I I #
coedge $-1 $425 $636 $427 $655 reversed $279 $-1 #
vertex $-1 $647 $879 #
straight-curve $-1 0 -4.0508922272776413 90.337229529709774 1 0 0 I I #
edge $-1 $430 $644 $427 $880 forward #
edge $-1 $431 $643 $428 $881 forward #
point $-1 180.67445905941955 -4.0508922272776413 90.337229529709774 #
point $-1 180.67445905941955 4.0508922272776413 90.337229529709774 #
coedge $-1 $659 $659 $-1 $882 reversed $433 $-1 #
vertex $-1 $435 $883 #
ellipse-curve $-1 0 0 -0.25 0 0 -1 0.5 0 0 1 I I #
point $-1 0.5 0 -2.1260795922727134 #
coedge $-1 $663 $663 $-1 $884 reversed $438 $-1 #
vertex $-1 $440 $885 #
ellipse-curve $-1 0 0 -0.25 0 0 -1 0.5 0 0 1 I I #
point $-1 0.5 0 -2.1260795922727134 #
face $-1 $-1 $458 $83 $-1 $886 reversed single #
loop $-1 $-1 $683 $443 #
plane-surface $-1 0 4.0508922272776413 0 0 -1 0 0 0 -1 forward_v I I I I #
coedge $-1 $887 $681 $684 $888 forward $444 $-1 #
coedge $-1 $687 $446 $447 $675 reversed $297 $-1 #
coedge $-1 $681 $887 $446 $673 reversed $444 $-1 #
edge $-1 $688 $889 $672 $890 forward #
coedge $-1 $448 $447 $887 $891 forward $203 $-1 #
edge $-1 $679 $889 $671 $892 forward #
coedge $-1 $684 $683 $448 $677 reversed $668 $-1 #
edge $-1 $893 $678 $676 $894 forward #
vertex $-1 $450 $895 #
vertex $-1 $690 $896 #
straight-curve $-1 180.67445905941955 0 -90.337229529709774 0 -1 0 I I #
coedge $-1 $670 $672 $451 $682 reversed $444 $-1 #
edge $-1 $685 $688 $681 $897 forward #
coedge $-1 $676 $452 $457 $691 forward $668 $-1 #
coedge $-1 $452 $676 $670 $888 reversed $668 $-1 #
vertex $-1 $453 $898 #
straight-curve $-1 0 4.0508922272776413 90.337229529709774 -1 0 0 I I #
coedge $-1 $454 $671 $456 $690 reversed $297 $-1 #
vertex $-1 $682 $899 #
straight-curve $-1 0 -4.0508922272776413 90.337229529709774 1 0 0 I I #
edge $-1 $459 $679 $456 $900 forward #
edge $-1 $460 $678 $457 $901 forward #
point $-1 180.67445905941955 -4.0508922272776413 90.337229529709774 #
point $-1 180.67445905941955 4.0508922272776413 90.337229529709774 #
coedge $-1 $694 $694 $-1 $902 reversed $462 $-1 #
vertex $-1 $464 $903 #
ellipse-curve $-1 0 0 -0.25 0 0 -1 0.5 0 0 1 I I #
point $-1 0.5 0 -2.1260795922727134 #
coedge $-1 $698 $698 $-1 $904 reversed $467 $-1 #
vertex $-1 $469 $905 #
ellipse-curve $-1 0 0 -0.25 0 0 -1 0.5 0 0 1 I I #
point $-1 0.5 0 -2.1260795922727134 #
face $-1 $-1 $487 $89 $-1 $906 reversed single #
loop $-1 $-1 $718 $472 #
plane-surface $-1 0 4.0508922272776413 0 0 -1 0 0 0 -1 forward_v I I I I #
coedge $-1 $907 $716 $719 $908 forward $473 $-1 #
coedge $-1 $722 $475 $476 $710 reversed $315 $-1 #
coedge $-1 $716 $907 $475 $708 reversed $473 $-1 #
edge $-1 $723 $909 $707 $910 forward #
coedge $-1 $477 $476 $907 $911 forward $217 $-1 #
edge $-1 $714 $909 $706 $912 forward #
coedge $-1 $719 $718 $477 $712 reversed $703 $-1 #
edge $-1 $913 $713 $711 $914 forward #
vertex $-1 $479 $915 #
vertex $-1 $725 $916 #
straight-curve $-1 180.67445905941955 0 -90.337229529709774 0 -1 0 I I #
coedge $-1 $705 $707 $480 $717 reversed $473 $-1 #
edge $-1 $720 $723 $716 $917 forward #
coedge $-1 $711 $481 $486 $726 forward $703 $-1 #
coedge $-1 $481 $711 $705 $908 reversed $703 $-1 #
vertex $-1 $482 $918 #
straight-curve $-1 0 4.0508922272776413 90.337229529709774 -1 0 0 I I #
coedge $-1 $483 $706 $485 $725 reversed $315 $-1 #
vertex $-1 $717 $919 #
straight-curve $-1 0 -4.0508922272776413 90.337229529709774 1 0 0 I I #
edge $-1 $488 $714 $485 $920 forward #
edge $-1 $489 $713 $486 $921 forward #
point $-1 180.67445905941955 -4.0508922272776413 90.337229529709774 #
point $-1 180.67445905941955 4.0508922272776413 90.337229529709774 #
coedge $-1 $729 $729 $-1 $922 reversed $491 $-1 #
vertex $-1 $493 $923 #
ellipse-curve $-1 0 0 -0.25 0 0 -1 0.5 0 0 1 I I #
point $-1 0.5 0 -2.1260795922727134 #
coedge $-1 $733 $733 $-1 $924 reversed $496 $-1 #
vertex $-1 $498 $925 #
ellipse-curve $-1 0 0 -0.25 0 0 -1 0.5 0 0 1 I I #
point $-1 0.5 0 -2.1260795922727134 #
face $-1 $-1 $516 $95 $-1 $926 reversed single #
loop $-1 $-1 $753 $501 #
plane-surface $-1 0 4.0508922272776413 0 0 -1 0 0 0 -1 forward_v I I I I #
coedge $-1 $927 $751 $754 $928 forward $502 $-1 #
coedge $-1 $757 $504 $505 $745 reversed $333 $-1 #
coedge $-1 $751 $927 $504 $743 reversed $502 $-1 #
edge $-1 $758 $929 $742 $930 forward #
coedge $-1 $506 $505 $927 $931 forward $231 $-1 #
edge $-1 $749 $929 $741 $932 forward #
coedge $-1 $754 $753 $506 $747 reversed $738 $-1 #
edge $-1 $933 $748 $746 $934 forward #
vertex $-1 $508 $935 #
vertex $-1 $760 $936 #
straight-curve $-1 180.67445905941955 0 -90.337229529709774 0 -1 0 I I #
coedge $-1 $740 $742 $509 $752 reversed $502 $-1 #
edge $-1 $755 $758 $751 $937 forward #
coedge $-1 $746 $510 $515 $761 forward $738 $-1 #
coedge $-1 $510 $746 $740 $928 reversed $738 $-1 #
vertex $-1 $511 $938 #
straight-curve $-1 0 4.0508922272776413 90.337229529709774 -1 0 0 I I #
coedge $-1 $512 $741 $514 $760 reversed $333 $-1 #
vertex $-1 $752 $939 #
straight-curve $-1 0 -4.0508922272776413 90.337229529709774 1 0 0 I I #
edge $-1 $517 $749 $514 $940 forward #
edge $-1 $518 $748 $515 $941 forward #
point $-1 180.67445905941955 -4.0508922272776413 90.337229529709774 #
point $-1 180.67445905941955 4.0508922272776413 90.337229529709774 #
coedge $-1 $764 $764 $-1 $942 reversed $520 $-1 #
vertex $-1 $522 $943 #
ellipse-curve $-1 0 0 -0.25 0 0 -1 0.5 0 0 1 I I #
point $-1 0.5 0 -2.1260795922727134 #
coedge $-1 $768 $768 $-1 $944 reversed $525 $-1 #
vertex $-1 $527 $945 #
ellipse-curve $-1 0 0 -0.25 0 0 -1 0.5 0 0 1 I I #
point $-1 0.5 0 -2.1260795922727134 #
face $-1 $-1 $545 $101 $-1 $946 reversed single #
loop $-1 $-1 $788 $530 #
plane-surface $-1 0 4.9920567645760414 0 0 -1 0 0 0 -1 forward_v I I I I #
coedge $-1 $947 $786 $789 $948 forward $531 $-1 #
coedge $-1 $792 $533 $534 $780 reversed $351 $-1 #
coedge $-1 $786 $947 $533 $778 reversed $531 $-1 #
edge $-1 $793 $949 $777 $950 forward #
coedge $-1 $535 $534 $947 $951 forward $245 $-1 #
edge $-1 $784 $949 $776 $952 forward #
coedge $-1 $789 $788 $535 $782 reversed $773 $-1 #
edge $-1 $953 $783 $781 $954 forward #
vertex $-1 $537 $955 #
vertex $-1 $795 $956 #
straight-curve $-1 180.67445905941955 0 -90.337229529709774 0 -1 0 I I #
coedge $-1 $775 $777 $538 $787 reversed $531 $-1 #
edge $-1 $790 $793 $786 $957 forward #
coedge $-1 $781 $539 $544 $796 forward $773 $-1 #
coedge $-1 $539 $781 $775 $948 reversed $773 $-1 #
vertex $-1 $540 $958 #
straight-curve $-1 0 4.9920567645760414 90.337229529709774 -1 0 0 I I #
coedge $-1 $541 $776 $543 $795 reversed $351 $-1 #
vertex $-1 $787 $959 #
straight-curve $-1 0 -4.9920567645760414 90.337229529709774 1 0 0 I I #
edge $-1 $546 $784 $543 $960 forward #
edge $-1 $547 $783 $544 $961 forward #
point $-1 180.67445905941955 -4.9920567645760414 90.337229529709774 #
point $-1 180.67445905941955 4.9920567645760414 90.337229529709774 #
coedge $-1 $799 $799 $-1 $962 reversed $549 $-1 #
vertex $-1 $551 $963 #
ellipse-curve $-1 0 0 -0.49999999999999978 0 0 -1 1 0 0 1 I I #
point $-1 1 0 -4.3979155858027887 #
face $-1 $-1 $569 $105 $-1 $964 reversed single #
loop $-1 $-1 $819 $554 #
plane-surface $-1 0 4.9920567645760414 0 0 -1 0 0 0 -1 forward_v I I I I #
coedge $-1 $965 $817 $820 $966 forward $555 $-1 #
coedge $-1 $823 $557 $558 $811 reversed $364 $-1 #
coedge $-1 $817 $965 $557 $809 reversed $555 $-1 #
edge $-1 $824 $967 $808 $968 forward #
coedge $-1 $559 $558 $965 $969 forward $254 $-1 #
edge $-1 $815 $967 $807 $970 forward #
coedge $-1 $820 $819 $559 $813 reversed $804 $-1 #
edge $-1 $971 $814 $812 $972 forward #
vertex $-1 $561 $973 #
vertex $-1 $826 $974 #
straight-curve $-1 180.67445905941955 0 -90.337229529709774 0 -1 0 I I #
coedge $-1 $806 $808 $562 $818 reversed $555 $-1 #
edge $-1 $821 $824 $817 $975 forward #
coedge $-1 $812 $563 $568 $827 forward $804 $-1 #
coedge $-1 $563 $812 $806 $966 reversed $804 $-1 #
vertex $-1 $564 $976 #
straight-curve $-1 0 4.9920567645760414 90.337229529709774 -1 0 0 I I #
coedge $-1 $565 $807 $567 $826 reversed $364 $-1 #
vertex $-1 $818 $977 #
straight-curve $-1 0 -4.9920567645760414 90.337229529709774 1 0 0 I I #
edge $-1 $570 $815 $567 $978 forward #
edge $-1 $571 $814 $568 $979 forward #
point $-1 180.67445905941955 -4.9920567645760414 90.337229529709774 #
point $-1 180.67445905941955 4.9920567645760414 90.337229529709774 #
coedge $-1 $830 $830 $-1 $980 reversed $573 $-1 #
vertex $-1 $575 $981 #
ellipse-curve $-1 0 0 -0.49999999999999978 0 0 -1 1 0 0 1 I I #
point $-1 1 0 -4.3979155858027887 #
plane-surface $-1 45.168614764854887 0 0 -1 0 0 0 0 1 forward_v I I I I #
coedge $-1 $583 $581 $585 $839 reversed $377 $-1 #
edge $-1 $596 $841 $595 $982 forward #
vertex $-1 $839 $983 #
straight-curve $-1 -45.168614764854887 -28.191407740028801 0 0 0 -1 I I #
edge $-1 $837 $841 $835 $984 forward #
straight-curve $-1 0 -28.191407740028801 -5.9916312949716044 -1 0 0 I I #
vertex $-1 $588 $985 #
straight-curve $-1 0 28.191407740028801 -5.9916312949716044 1 0 0 I I #
point $-1 45.168614764854887 28.191407740028801 -5.9916312949716044 #
point $-1 45.168614764854887 -28.191407740028801 -5.9916312949716044 #
straight-curve $-1 -45.168614764854887 0 5.9916312949716044 0 -1 0 I I #
point $-1 -45.168614764854887 28.191407740028801 5.9916312949716044 #
point $-1 -45.168614764854887 -28.191407740028801 5.9916312949716044 #
straight-curve $-1 45.168614764854887 -28.191407740028801 0 0 0 -1 I I #
straight-curve $-1 45.168614764854887 28.191407740028801 0 0 0 -1 I I #
plane-surface $-1 45.168614764854887 0 0 -1 0 0 0 0 1 forward_v I I I I #
coedge $-1 $610 $608 $612 $855 reversed $396 $-1 #
edge $-1 $623 $857 $622 $986 forward #
vertex $-1 $855 $987 #
straight-curve $-1 -45.168614764854887 -3.82486125116163 0 0 0 -1 I I #
edge $-1 $853 $857 $851 $988 forward #
straight-curve $-1 0 -3.82486125116163 -1.5 -1 0 0 I I #
vertex $-1 $615 $989 #
straight-curve $-1 0 3.82486125116163 -1.5 1 0 0 I I #
point $-1 45.168614764854887 3.82486125116163 -1.5 #
point $-1 45.168614764854887 -3.82486125116163 -1.5 #
straight-curve $-1 -45.168614764854887 0 1.5 0 -1 0 I I #
point $-1 -45.168614764854887 3.82486125116163 1.5 #
point $-1 -45.168614764854887 -3.82486125116163 1.5 #
straight-curve $-1 45.168614764854887 -3.82486125116163 0 0 0 -1 I I #
straight-curve $-1 45.168614764854887 3.82486125116163 0 0 0 -1 I I #
plane-surface $-1 180.67445905941955 0 0 -1 0 0 0 0 1 forward_v I I I I #
coedge $-1 $637 $635 $639 $871 reversed $415 $-1 #
edge $-1 $650 $873 $649 $990 forward #
vertex $-1 $871 $991 #
straight-curve $-1 -180.67445905941955 -4.0508922272776413 0 0 0 -1 I I #
edge $-1 $869 $873 $867 $992 forward #
straight-curve $-1 0 -4.0508922272776413 -90.337229529709774 -1 0 0 I I #
vertex $-1 $642 $993 #
straight-curve $-1 0 4.0508922272776413 -90.337229529709774 1 0 0 I I #
point $-1 180.67445905941955 4.0508922272776413 -90.337229529709774 #
point $-1 180.67445905941955 -4.0508922272776413 -90.337229529709774 #
straight-curve $-1 -180.67445905941955 0 90.337229529709774 0 -1 0 I I #
point $-1 -180.67445905941955 4.0508922272776413 90.337229529709774 #
point $-1 -180.67445905941955 -4.0508922272776413 90.337229529709774 #
straight-curve $-1 180.67445905941955 -4.0508922272776413 0 0 0 -1 I I #
straight-curve $-1 180.67445905941955 4.0508922272776413 0 0 0 -1 I I #
edge $-1 $994 $994 $659 $-1 forward #
point $-1 0.5 0 -0.25 #
edge $-1 $995 $995 $663 $-1 forward #
point $-1 0.5 0 -0.25 #
plane-surface $-1 180.67445905941955 0 0 -1 0 0 0 0 1 forward_v I I I I #
coedge $-1 $672 $670 $674 $891 reversed $444 $-1 #
edge $-1 $685 $893 $684 $996 forward #
vertex $-1 $891 $997 #
straight-curve $-1 -180.67445905941955 -4.0508922272776413 0 0 0 -1 I I #
edge $-1 $889 $893 $887 $998 forward #
straight-curve $-1 0 -4.0508922272776413 -90.337229529709774 -1 0 0 I I #
vertex $-1 $677 $999 #
straight-curve $-1 0 4.0508922272776413 -90.337229529709774 1 0 0 I I #
point $-1 180.67445905941955 4.0508922272776413 -90.337229529709774 #
point $-1 180.67445905941955 -4.0508922272776413 -90.337229529709774 #
straight-curve $-1 -180.67445905941955 0 90.337229529709774 0 -1 0 I I #
point $-1 -180.67445905941955 4.0508922272776413 90.337229529709774 #
point $-1 -180.67445905941955 -4.0508922272776413 90.337229529709774 #
straight-curve $-1 180.67445905941955 -4.0508922272776413 0 0 0 -1 I I #
straight-curve $-1 180.67445905941955 4.0508922272776413 0 0 0 -1 I I #
edge $-1 $1000 $1000 $694 $-1 forward #
point $-1 0.5 0 -0.25 #
edge $-1 $1001 $1001 $698 $-1 forward #
point $-1 0.5 0 -0.25 #
plane-surface $-1 180.67445905941955 0 0 -1 0 0 0 0 1 forward_v I I I I #
coedge $-1 $707 $705 $709 $911 reversed $473 $-1 #
edge $-1 $720 $913 $719 $1002 forward #
vertex $-1 $911 $1003 #
straight-curve $-1 -180.67445905941955 -4.0508922272776413 0 0 0 -1 I I #
edge $-1 $909 $913 $907 $1004 forward #
straight-curve $-1 0 -4.0508922272776413 -90.337229529709774 -1 0 0 I I #
vertex $-1 $712 $1005 #
straight-curve $-1 0 4.0508922272776413 -90.337229529709774 1 0 0 I I #
point $-1 180.67445905941955 4.0508922272776413 -90.337229529709774 #
point $-1 180.67445905941955 -4.0508922272776413 -90.337229529709774 #
straight-curve $-1 -180.67445905941955 0 90.337229529709774 0 -1 0 I I #
point $-1 -180.67445905941955 4.0508922272776413 90.337229529709774 #
point $-1 -180.67445905941955 -4.0508922272776413 90.337229529709774 #
straight-curve $-1 180.67445905941955 -4.0508922272776413 0 0 0 -1 I I #
straight-curve $-1 180.67445905941955 4.0508922272776413 0 0 0 -1 I I #
edge $-1 $1006 $1006 $729 $-1 forward #
point $-1 0.5 0 -0.25 #
edge $-1 $1007 $1007 $733 $-1 forward #
point $-1 0.5 0 -0.25 #
plane-surface $-1 180.67445905941955 0 0 -1 0 0 0 0 1 forward_v I I I I #
coedge $-1 $742 $740 $744 $931 reversed $502 $-1 #
edge $-1 $755 $933 $754 $1008 forward #
vertex $-1 $931 $1009 #
straight-curve $-1 -180.67445905941955 -4.0508922272776413 0 0 0 -1 I I #
edge $-1 $929 $933 $927 $1010 forward #
straight-curve $-1 0 -4.0508922272776413 -90.337229529709774 -1 0 0 I I #
vertex $-1 $747 $1011 #
straight-curve $-1 0 4.0508922272776413 -90.337229529709774 1 0 0 I I #
point $-1 180.67445905941955 4.0508922272776413 -90.337229529709774 #
point $-1 180.67445905941955 -4.0508922272776413 -90.337229529709774 #
straight-curve $-1 -180.67445905941955 0 90.337229529709774 0 -1 0 I I #
point $-1 -180.67445905941955 4.0508922272776413 90.337229529709774 #
point $-1 -180.67445905941955 -4.0508922272776413 90.337229529709774 #
straight-curve $-1 180.67445905941955 -4.0508922272776413 0 0 0 -1 I I #
straight-curve $-1 180.67445905941955 4.0508922272776413 0 0 0 -1 I I #
edge $-1 $1012 $1012 $764 $-1 forward #
point $-1 0.5 0 -0.25 #
edge $-1 $1013 $1013 $768 $-1 forward #
point $-1 0.5 0 -0.25 #
plane-surface $-1 180.67445905941955 0 0 -1 0 0 0 0 1 forward_v I I I I #
coedge $-1 $777 $775 $779 $951 reversed $531 $-1 #
edge $-1 $790 $953 $789 $1014 forward #
vertex $-1 $951 $1015 #
straight-curve $-1 -180.67445905941955 -4.9920567645760414 0 0 0 -1 I I #
edge $-1 $949 $953 $947 $1016 forward #
straight-curve $-1 0 -4.9920567645760414 -90.337229529709774 -1 0 0 I I #
vertex $-1 $782 $1017 #
straight-curve $-1 0 4.9920567645760414 -90.337229529709774 1 0 0 I I #
point $-1 180.67445905941955 4.9920567645760414 -90.337229529709774 #
point $-1 180.67445905941955 -4.9920567645760414 -90.337229529709774 #
straight-curve $-1 -180.67445905941955 0 90.337229529709774 0 -1 0 I I #
point $-1 -180.67445905941955 4.9920567645760414 90.337229529709774 #
point $-1 -180.67445905941955 -4.9920567645760414 90.337229529709774 #
straight-curve $-1 180.67445905941955 -4.9920567645760414 0 0 0 -1 I I #
straight-curve $-1 180.67445905941955 4.9920567645760414 0 0 0 -1 I I #
edge $-1 $1018 $1018 $799 $-1 forward #
point $-1 1 0 -0.49999999999999978 #
plane-surface $-1 180.67445905941955 0 0 -1 0 0 0 0 1 forward_v I I I I #
coedge $-1 $808 $806 $810 $969 reversed $555 $-1 #
edge $-1 $821 $971 $820 $1019 forward #
vertex $-1 $969 $1020 #
straight-curve $-1 -180.67445905941955 -4.9920567645760414 0 0 0 -1 I I #
edge $-1 $967 $971 $965 $1021 forward #
straight-curve $-1 0 -4.9920567645760414 -90.337229529709774 -1 0 0 I I #
vertex $-1 $813 $1022 #
straight-curve $-1 0 4.9920567645760414 -90.337229529709774 1 0 0 I I #
point $-1 180.67445905941955 4.9920567645760414 -90.337229529709774 #
point $-1 180.67445905941955 -4.9920567645760414 -90.337229529709774 #
straight-curve $-1 -180.67445905941955 0 90.337229529709774 0 -1 0 I I #
point $-1 -180.67445905941955 4.9920567645760414 90.337229529709774 #
point $-1 -180.67445905941955 -4.9920567645760414 90.337229529709774 #
straight-curve $-1 180.67445905941955 -4.9920567645760414 0 0 0 -1 I I #
straight-curve $-1 180.67445905941955 4.9920567645760414 0 0 0 -1 I I #
edge $-1 $1023 $1023 $830 $-1 forward #
point $-1 1 0 -0.49999999999999978 #
straight-curve $-1 -45.168614764854887 28.191407740028801 0 0 0 -1 I I #
point $-1 -45.168614764854887 -28.191407740028801 -5.9916312949716044 #
straight-curve $-1 -45.168614764854887 0 -5.9916312949716044 0 1 0 I I #
point $-1 -45.168614764854887 28.191407740028801 -5.9916312949716044 #
straight-curve $-1 -45.168614764854887 3.82486125116163 0 0 0 -1 I I #
point $-1 -45.168614764854887 -3.82486125116163 -1.5 #
straight-curve $-1 -45.168614764854887 0 -1.5 0 1 0 I I #
point $-1 -45.168614764854887 3.82486125116163 -1.5 #
straight-curve $-1 -180.67445905941955 4.0508922272776413 0 0 0 -1 I I #
point $-1 -180.67445905941955 -4.0508922272776413 -90.337229529709774 #
straight-curve $-1 -180.67445905941955 0 -90.337229529709774 0 1 0 I I #
point $-1 -180.67445905941955 4.0508922272776413 -90.337229529709774 #
vertex $-1 $882 $1024 #
vertex $-1 $884 $1025 #
straight-curve $-1 -180.67445905941955 4.0508922272776413 0 0 0 -1 I I #
point $-1 -180.67445905941955 -4.0508922272776413 -90.337229529709774 #
straight-curve $-1 -180.67445905941955 0 -90.337229529709774 0 1 0 I I #
point $-1 -180.67445905941955 4.0508922272776413 -90.337229529709774 #
vertex $-1 $902 $1026 #
vertex $-1 $904 $1027 #
straight-curve $-1 -180.67445905941955 4.0508922272776413 0 0 0 -1 I I #
point $-1 -180.67445905941955 -4.0508922272776413 -90.337229529709774 #
straight-curve $-1 -180.67445905941955 0 -90.337229529709774 0 1 0 I I #
point $-1 -180.67445905941955 4.0508922272776413 -90.337229529709774 #
vertex $-1 $922 $1028 #
vertex $-1 $924 $1029 #
straight-curve $-1 -180.67445905941955 4.0508922272776413 0 0 0 -1 I I #
point $-1 -180.67445905941955 -4.0508922272776413 -90.337229529709774 #
straight-curve $-1 -180.67445905941955 0 -90.337229529709774 0 1 0 I I #
point $-1 -180.67445905941955 4.0508922272776413 -90.337229529709774 #
vertex $-1 $942 $1030 #
vertex $-1 $944 $1031 #
straight-curve $-1 -180.67445905941955 4.9920567645760414 0 0 0 -1 I I #
point $-1 -180.67445905941955 -4.9920567645760414 -90.337229529709774 #
straight-curve $-1 -180.67445905941955 0 -90.337229529709774 0 1 0 I I #
point $-1 -180.67445905941955 4.9920567645760414 -90.337229529709774 #
vertex $-1 $962 $1032 #
straight-curve $-1 -180.67445905941955 4.9920567645760414 0 0 0 -1 I I #
point $-1 -180.67445905941955 -4.9920567645760414 -90.337229529709774 #
straight-curve $-1 -180.67445905941955 0 -90.337229529709774 0 1 0 I I #
point $-1 -180.67445905941955 4.9920567645760414 -90.337229529709774 #
vertex $-1 $980 $1033 #
point $-1 0 0 0.25 #
point $-1 0 0 0.25 #
point $-1 0 0 0.25 #
point $-1 0 0 0.25 #
point $-1 0 0 0.25 #
point $-1 0 0 0.25 #
point $-1 0 0 0.25 #
point $-1 0 0 0.25 #
point $-1 0 0 0.49999999999999978 #
point $-1 0 0 0.49999999999999978 #
End-of-ACIS-data 