600 0 10 0           
95 GICL ACIS Healer - Source: /gicl/data5/repository/Drexel/SM99-DATA/part108.smdg.delta.sat - 6 0 18 ACIS 6.0.3 Solaris 24 Sat Apr 13 20:43:44 2002 
1 9.999999999999999547e-07 1.000000000000000036e-10 
body $-1 $10 $-1 $-1 #
body $-1 $11 $-1 $-1 #
body $-1 $12 $-1 $-1 #
body $-1 $13 $-1 $-1 #
body $-1 $14 $-1 $-1 #
body $-1 $15 $-1 $-1 #
body $-1 $16 $-1 $-1 #
body $-1 $17 $-1 $-1 #
body $-1 $18 $-1 $-1 #
body $-1 $19 $-1 $-1 #
lump $-1 $-1 $20 $0 #
lump $-1 $-1 $21 $1 #
lump $-1 $-1 $22 $2 #
lump $-1 $-1 $23 $3 #
lump $-1 $-1 $24 $4 #
lump $-1 $-1 $25 $5 #
lump $-1 $-1 $26 $6 #
lump $-1 $-1 $27 $7 #
lump $-1 $-1 $28 $8 #
lump $-1 $-1 $29 $9 #
shell $-1 $-1 $-1 $30 $-1 $10 #
shell $-1 $-1 $-1 $31 $-1 $11 #
shell $-1 $-1 $-1 $32 $-1 $12 #
shell $-1 $-1 $-1 $33 $-1 $13 #
shell $-1 $-1 $-1 $34 $-1 $14 #
shell $-1 $-1 $-1 $35 $-1 $15 #
shell $-1 $-1 $-1 $36 $-1 $16 #
shell $-1 $-1 $-1 $37 $-1 $17 #
shell $-1 $-1 $-1 $38 $-1 $18 #
shell $-1 $-1 $-1 $39 $-1 $19 #
face $-1 $40 $41 $20 $-1 $42 forward single #
face $-1 $43 $44 $21 $-1 $45 forward single #
face $-1 $46 $47 $22 $-1 $48 reversed single #
face $-1 $49 $50 $23 $-1 $51 forward single #
face $-1 $52 $53 $24 $-1 $54 forward single #
face $-1 $55 $56 $25 $-1 $57 forward single #
face $-1 $58 $59 $26 $-1 $60 reversed single #
face $-1 $61 $62 $27 $-1 $63 forward single #
face $-1 $64 $65 $28 $-1 $66 forward single #
face $-1 $67 $68 $29 $-1 $69 forward single #
face $-1 $70 $71 $20 $-1 $72 reversed single #
loop $-1 $-1 $73 $30 #
plane-surface $-1 45.85222937711722579 19.89080261415738704 10.13072990103304605 0 0 1 1 0 0 forward_v I I I I #
face $-1 $74 $75 $21 $-1 $76 reversed single #
loop $-1 $-1 $77 $31 #
plane-surface $-1 2.061775281448561259 19.89080261415738704 3 0 0 1 1 0 0 forward_v I I I I #
face $-1 $78 $79 $22 $-1 $80 reversed single #
loop $-1 $-1 $81 $32 #
plane-surface $-1 45.44087106368250772 86.01398080330594098 94.03598341137637817 1 0 0 0 -0.7771459697322561366 -0.629320380830711068 forward_v I I I I #
face $-1 $82 $83 $23 $-1 $84 forward single #
loop $-1 $85 $86 $33 #
cone-surface $-1 49.56051746998483765 37.48099227418822466 7.454896925912592565 0 -0.7771459697322561366 -0.629320380830711068 0.5 0 0 1 I I 0 1 0.5 forward I I I I #
face $-1 $87 $88 $24 $-1 $89 forward single #
loop $-1 $90 $91 $34 #
cone-surface $-1 55.73998707943832187 37.48099227418822466 7.454896925912592565 0 -0.7771459697322561366 -0.629320380830711068 0.5 0 0 1 I I 0 1 0.5 forward I I I I #
face $-1 $92 $93 $25 $-1 $94 forward single #
loop $-1 $95 $96 $35 #
cone-surface $-1 61.9194566888918061 37.48099227418822466 7.454896925912592565 0 -0.7771459697322561366 -0.629320380830711068 0.5 0 0 1 I I 0 1 0.5 forward I I I I #
face $-1 $97 $98 $26 $-1 $99 reversed single #
loop $-1 $-1 $100 $36 #
plane-surface $-1 66.03910309519413602 -71.26775052733120219 63.11986923871189958 -1 0 0 0 -0.7771459697322561366 0.629320380830711068 forward_v I I I I #
face $-1 $101 $102 $27 $-1 $103 forward single #
loop $-1 $104 $105 $37 #
cone-surface $-1 49.56051746998483765 2.300612954126549425 7.454896925912590788 0 0.7771459697322561366 -0.629320380830711068 0.5 0 0 1 I I 0 1 0.5 forward I I I I #
face $-1 $106 $107 $28 $-1 $108 forward single #
loop $-1 $109 $110 $38 #
cone-surface $-1 55.73998707943832187 2.300612954126549425 7.454896925912590788 0 0.7771459697322561366 -0.629320380830711068 0.5 0 0 1 I I 0 1 0.5 forward I I I I #
face $-1 $111 $112 $29 $-1 $113 forward single #
loop $-1 $114 $115 $39 #
cone-surface $-1 61.9194566888918061 2.300612954126549425 7.454896925912590788 0 0.7771459697322561366 -0.629320380830711068 0.5 0 0 1 I I 0 1 0.5 forward I I I I #
face $-1 $116 $117 $20 $-1 $118 reversed single #
loop $-1 $-1 $119 $40 #
plane-surface $-1 45.85222937711722579 19.89080261415738704 0 0 0 1 1 0 0 forward_v I I I I #
coedge $-1 $120 $121 $122 $123 forward $41 $-1 #
face $-1 $124 $125 $21 $-1 $126 reversed single #
loop $-1 $-1 $127 $43 #
plane-surface $-1 4.123550562897122518 19.89080261415738704 1.5 -1 0 0 0 0 1 forward_v I I I I #
coedge $-1 $128 $129 $130 $131 forward $44 $-1 #
face $-1 $132 $133 $22 $-1 $134 reversed single #
loop $-1 $-1 $135 $46 #
plane-surface $-1 55.73998707943832187 14.74623027597471747 36.32449850428731963 0 0.7771459697322561366 0.629320380830711068 1 0 0 forward_v I I I I #
coedge $-1 $136 $137 $138 $139 reversed $47 $-1 #
face $-1 $-1 $140 $23 $-1 $141 forward single #
loop $-1 $142 $143 $49 #
cone-surface $-1 49.56051746998483765 36.89813279688902981 6.982906640289559874 0 -0.7771459697322561366 -0.629320380830711068 0.25 0 0 1 I I -0.7071067811865474617 0.7071067811865474617 0.25 forward I I I I #
loop $-1 $-1 $144 $33 #
coedge $-1 $86 $86 $145 $146 reversed $50 $-1 #
face $-1 $-1 $147 $24 $-1 $148 forward single #
loop $-1 $149 $150 $52 #
cone-surface $-1 55.73998707943832187 36.89813279688902981 6.982906640289559874 0 -0.7771459697322561366 -0.629320380830711068 0.25 0 0 1 I I -0.7071067811865474617 0.7071067811865474617 0.25 forward I I I I #
loop $-1 $-1 $151 $34 #
coedge $-1 $91 $91 $152 $153 reversed $53 $-1 #
face $-1 $-1 $154 $25 $-1 $155 forward single #
loop $-1 $156 $157 $55 #
cone-surface $-1 61.9194566888918061 36.89813279688902981 6.982906640289559874 0 -0.7771459697322561366 -0.629320380830711068 0.25 0 0 1 I I -0.7071067811865474617 0.7071067811865474617 0.25 forward I I I I #
loop $-1 $-1 $158 $35 #
coedge $-1 $96 $96 $159 $160 reversed $56 $-1 #
face $-1 $161 $162 $26 $-1 $163 reversed single #
loop $-1 $-1 $164 $58 #
plane-surface $-1 55.73998707943832187 7.105427357601001859e-15 5.408384331622839269 0 -0.7771459697322561366 0.629320380830711068 1 0 0 forward_v I I I I #
coedge $-1 $165 $166 $167 $168 reversed $59 $-1 #
face $-1 $-1 $169 $27 $-1 $170 forward single #
loop $-1 $171 $172 $61 #
cone-surface $-1 49.56051746998483765 2.883472431425740723 6.982906640289558098 0 0.7771459697322561366 -0.629320380830711068 0.25 0 0 1 I I -0.7071067811865474617 0.7071067811865474617 0.25 forward I I I I #
loop $-1 $-1 $173 $37 #
coedge $-1 $105 $105 $174 $175 reversed $62 $-1 #
face $-1 $-1 $176 $28 $-1 $177 forward single #
loop $-1 $178 $179 $64 #
cone-surface $-1 55.73998707943832187 2.883472431425740723 6.982906640289558098 0 0.7771459697322561366 -0.629320380830711068 0.25 0 0 1 I I -0.7071067811865474617 0.7071067811865474617 0.25 forward I I I I #
loop $-1 $-1 $180 $38 #
coedge $-1 $110 $110 $181 $182 reversed $65 $-1 #
face $-1 $-1 $183 $29 $-1 $184 forward single #
loop $-1 $185 $186 $67 #
cone-surface $-1 61.9194566888918061 2.883472431425740723 6.982906640289558098 0 0.7771459697322561366 -0.629320380830711068 0.25 0 0 1 I I -0.7071067811865474617 0.7071067811865474617 0.25 forward I I I I #
loop $-1 $-1 $187 $39 #
coedge $-1 $115 $115 $188 $189 reversed $68 $-1 #
face $-1 $190 $191 $20 $-1 $192 reversed single #
loop $-1 $-1 $193 $70 #
plane-surface $-1 45.85222937711722579 0 5.065364950516523024 0 1 0 0 0 1 forward_v I I I I #
coedge $-1 $194 $195 $196 $197 forward $71 $-1 #
coedge $-1 $198 $73 $199 $200 forward $41 $-1 #
coedge $-1 $73 $198 $201 $202 forward $41 $-1 #
coedge $-1 $203 $204 $73 $123 reversed $205 $-1 #
edge $-1 $206 -19.89080261415738704 $207 19.89080261415738704 $122 $208 forward 7 unknown #
face $-1 $209 $210 $21 $-1 $211 reversed single #
loop $-1 $-1 $212 $74 #
plane-surface $-1 45.85222937711722579 19.89080261415738704 0 0 0 1 1 0 0 forward_v I I I I #
coedge $-1 $213 $130 $214 $215 reversed $75 $-1 #
coedge $-1 $216 $77 $217 $218 reversed $44 $-1 #
coedge $-1 $77 $216 $219 $220 reversed $44 $-1 #
coedge $-1 $127 $221 $77 $131 reversed $75 $-1 #
edge $-1 $222 -19.89080261415738704 $223 19.89080261415738704 $130 $224 forward 7 unknown #
face $-1 $225 $226 $22 $-1 $227 reversed single #
loop $-1 $-1 $228 $78 #
plane-surface $-1 66.03910309519413602 86.01398080330594098 94.03598341137637817 -1 0 0 0 0.7771459697322561366 0.629320380830711068 forward_v I I I I #
coedge $-1 $229 $230 $231 $232 reversed $79 $-1 #
coedge $-1 $137 $81 $233 $234 reversed $47 $-1 #
coedge $-1 $81 $136 $229 $235 reversed $47 $-1 #
coedge $-1 $231 $236 $81 $139 forward $237 $-1 #
edge $-1 $238 13.17078648041688638 $239 16.99486641893772543 $138 $240 forward 7 unknown #
loop $-1 $-1 $145 $82 #
plane-surface $-1 55.73998707943832187 14.74623027597471747 36.32449850428731963 0 0.7771459697322561366 0.629320380830711068 1 0 0 forward_v I I I I #
loop $-1 $-1 $241 $49 #
coedge $-1 $143 $143 $144 $242 reversed $83 $-1 #
coedge $-1 $144 $144 $143 $242 forward $85 $-1 #
coedge $-1 $145 $145 $86 $146 forward $140 $-1 #
edge $-1 $243 8.943180501300831054e-15 $243 6.283185307179595114 $145 $244 forward 7 unknown #
loop $-1 $-1 $152 $87 #
plane-surface $-1 55.73998707943832187 14.74623027597471747 36.32449850428731963 0 0.7771459697322561366 0.629320380830711068 1 0 0 forward_v I I I I #
loop $-1 $-1 $245 $52 #
coedge $-1 $150 $150 $151 $246 reversed $88 $-1 #
coedge $-1 $151 $151 $150 $246 forward $90 $-1 #
coedge $-1 $152 $152 $91 $153 forward $147 $-1 #
edge $-1 $247 8.943180501300831054e-15 $247 6.283185307179595114 $152 $248 forward 7 unknown #
loop $-1 $-1 $159 $92 #
plane-surface $-1 55.73998707943832187 14.74623027597471747 36.32449850428731963 0 0.7771459697322561366 0.629320380830711068 1 0 0 forward_v I I I I #
loop $-1 $-1 $249 $55 #
coedge $-1 $157 $157 $158 $250 reversed $93 $-1 #
coedge $-1 $158 $158 $157 $250 forward $95 $-1 #
coedge $-1 $159 $159 $96 $160 forward $154 $-1 #
edge $-1 $251 8.943180501300831054e-15 $251 6.283185307179595114 $159 $252 forward 7 unknown #
face $-1 $253 $254 $26 $-1 $255 forward single #
loop $-1 $-1 $256 $97 #
plane-surface $-1 45.44087106368250772 -71.26775052733120219 63.11986923871189958 1 0 0 0 0.7771459697322561366 -0.629320380830711068 forward_v I I I I #
coedge $-1 $257 $258 $259 $260 reversed $98 $-1 #
coedge $-1 $166 $100 $261 $262 reversed $59 $-1 #
coedge $-1 $100 $165 $257 $263 reversed $59 $-1 #
coedge $-1 $259 $264 $100 $168 forward $254 $-1 #
edge $-1 $265 25.68847395658691113 $266 29.51255389510776794 $167 $267 forward 7 unknown #
loop $-1 $-1 $174 $101 #
plane-surface $-1 55.73998707943832187 7.105427357601001859e-15 5.408384331622839269 0 -0.7771459697322561366 0.629320380830711068 1 0 0 forward_v I I I I #
loop $-1 $-1 $268 $61 #
coedge $-1 $172 $172 $173 $269 reversed $102 $-1 #
coedge $-1 $173 $173 $172 $269 forward $104 $-1 #
coedge $-1 $174 $174 $105 $175 forward $169 $-1 #
edge $-1 $270 -2.370862283581379617e-15 $270 6.283185307179583567 $174 $271 forward 7 unknown #
loop $-1 $-1 $181 $106 #
plane-surface $-1 55.73998707943832187 7.105427357601001859e-15 5.408384331622839269 0 -0.7771459697322561366 0.629320380830711068 1 0 0 forward_v I I I I #
loop $-1 $-1 $272 $64 #
coedge $-1 $179 $179 $180 $273 reversed $107 $-1 #
coedge $-1 $180 $180 $179 $273 forward $109 $-1 #
coedge $-1 $181 $181 $110 $182 forward $176 $-1 #
edge $-1 $274 -2.370862283581379617e-15 $274 6.283185307179583567 $181 $275 forward 7 unknown #
loop $-1 $-1 $188 $111 #
plane-surface $-1 55.73998707943832187 7.105427357601001859e-15 5.408384331622839269 0 -0.7771459697322561366 0.629320380830711068 1 0 0 forward_v I I I I #
loop $-1 $-1 $276 $67 #
coedge $-1 $186 $186 $187 $277 reversed $112 $-1 #
coedge $-1 $187 $187 $186 $277 forward $114 $-1 #
coedge $-1 $188 $188 $115 $189 forward $183 $-1 #
edge $-1 $278 -2.370862283581379617e-15 $278 6.283185307179583567 $188 $279 forward 7 unknown #
face $-1 $280 $281 $20 $-1 $282 reversed single #
loop $-1 $-1 $283 $116 #
plane-surface $-1 0 19.89080261415738704 5.065364950516523024 1 0 0 0 0 -1 forward_v I I I I #
coedge $-1 $284 $201 $285 $286 forward $117 $-1 #
coedge $-1 $287 $119 $284 $288 forward $71 $-1 #
coedge $-1 $119 $287 $289 $290 forward $71 $-1 #
coedge $-1 $204 $203 $119 $197 reversed $205 $-1 #
edge $-1 $291 -19.89080261415738704 $292 19.89080261415738704 $196 $293 forward 7 unknown #
coedge $-1 $121 $120 $294 $295 forward $41 $-1 #
coedge $-1 $296 $297 $120 $200 reversed $281 $-1 #
edge $-1 $207 -45.85222937711722579 $298 45.85222937711722579 $199 $299 forward 7 unknown #
coedge $-1 $193 $300 $121 $202 reversed $117 $-1 #
edge $-1 $301 -45.85222937711722579 $206 45.85222937711722579 $201 $302 forward 7 unknown #
coedge $-1 $196 $122 $300 $303 forward $205 $-1 #
coedge $-1 $122 $196 $296 $304 reversed $205 $-1 #
loop $-1 $-1 $203 $280 #
vertex $-1 $123 $305 #
vertex $-1 $123 $306 #
straight-curve $-1 91.70445875423445159 19.89080261415738704 10.13072990103304605 0 1 0 I I #
face $-1 $307 $308 $21 $-1 $309 reversed single #
loop $-1 $-1 $214 $124 #
plane-surface $-1 45.85222937711722579 0 5.065364950516523024 0 1 0 0 0 1 forward_v I I I I #
coedge $-1 $310 $311 $213 $312 forward $125 $-1 #
coedge $-1 $221 $127 $212 $312 reversed $75 $-1 #
coedge $-1 $219 $313 $127 $215 forward $210 $-1 #
edge $-1 $314 -3.282682475258261512 $222 -0.2826824752582615119 $214 $315 forward 7 unknown #
coedge $-1 $129 $128 $316 $317 reversed $44 $-1 #
coedge $-1 $318 $319 $128 $218 forward $320 $-1 #
edge $-1 $321 -23.95700232928289353 $223 -19.83345176638577101 $217 $322 forward 7 unknown #
coedge $-1 $323 $214 $129 $220 forward $210 $-1 #
edge $-1 $222 19.83345176638577101 $324 23.95700232928289353 $219 $325 forward 7 unknown #
coedge $-1 $130 $213 $318 $326 reversed $75 $-1 #
vertex $-1 $220 $327 #
vertex $-1 $218 $328 #
straight-curve $-1 4.123550562897122518 19.89080261415738704 3 0 1 0 I I #
face $-1 $-1 $237 $22 $-1 $329 forward single #
loop $-1 $-1 $330 $132 #
plane-surface $-1 45.85222937711722579 39.78160522831477408 5.065364950516523024 0 -1 0 0 0 -1 forward_v I I I I #
coedge $-1 $331 $332 $333 $334 reversed $133 $-1 #
coedge $-1 $335 $135 $137 $235 forward $79 $-1 #
coedge $-1 $135 $335 $331 $336 forward $79 $-1 #
coedge $-1 $333 $138 $135 $232 forward $237 $-1 #
edge $-1 $239 -5.355237164595266108 $337 15.24299486691636218 $231 $338 forward 7 unknown #
coedge $-1 $339 $340 $136 $234 forward $226 $-1 #
edge $-1 $341 -44.14228984932360333 $238 -39.41994427991340899 $233 $342 forward 7 unknown #
edge $-1 $239 33.70508195812764285 $341 39.78160522831476698 $137 $343 forward 7 unknown #
coedge $-1 $138 $333 $339 $344 forward $237 $-1 #
loop $-1 $-1 $333 $225 #
vertex $-1 $234 $345 #
vertex $-1 $139 $346 #
straight-curve $-1 45.44087106368250772 52.95239170873166046 10.13072990103304782 0 -1 0 I I #
coedge $-1 $241 $241 $-1 $347 reversed $142 $-1 #
edge $-1 $348 0 $348 6.283185307179586232 $143 $349 forward 7 unknown #
vertex $-1 $146 $350 #
ellipse-curve $-1 49.56051746998483765 37.86956525905434745 7.769557116327948876 0 0.7771459697322561366 0.629320380830711068 0.5 0 0 1 I I #
coedge $-1 $245 $245 $-1 $351 reversed $149 $-1 #
edge $-1 $352 0 $352 6.283185307179586232 $150 $353 forward 7 unknown #
vertex $-1 $153 $354 #
ellipse-curve $-1 55.73998707943832187 37.86956525905434745 7.769557116327948876 0 0.7771459697322561366 0.629320380830711068 0.5 0 0 1 I I #
coedge $-1 $249 $249 $-1 $355 reversed $156 $-1 #
edge $-1 $356 0 $356 6.283185307179586232 $157 $357 forward 7 unknown #
vertex $-1 $160 $358 #
ellipse-curve $-1 61.9194566888918061 37.86956525905434745 7.769557116327948876 0 0.7771459697322561366 0.629320380830711068 0.5 0 0 1 I I #
face $-1 $-1 $359 $26 $-1 $360 reversed single #
loop $-1 $-1 $167 $161 #
plane-surface $-1 45.85222937711722579 19.89080261415738704 10.13072990103304605 0 0 1 1 0 0 forward_v I I I I #
coedge $-1 $361 $362 $363 $364 reversed $162 $-1 #
coedge $-1 $365 $164 $166 $263 forward $98 $-1 #
coedge $-1 $164 $365 $361 $366 forward $98 $-1 #
coedge $-1 $363 $167 $164 $260 forward $254 $-1 #
edge $-1 $266 -15.24299486691636218 $367 5.355237164595266108 $259 $368 forward 7 unknown #
coedge $-1 $369 $370 $165 $262 forward $359 $-1 #
edge $-1 $371 -28.6842327629913818 $265 -23.96188719358116614 $261 $372 forward 7 unknown #
edge $-1 $266 -6.07652327018714189 $371 1.137403304338158105e-14 $166 $373 forward 7 unknown #
coedge $-1 $167 $363 $369 $374 forward $254 $-1 #
vertex $-1 $168 $375 #
vertex $-1 $168 $376 #
straight-curve $-1 66.03910309519413602 -25.68847395658691113 10.13072990103304782 0 1 0 I I #
coedge $-1 $268 $268 $-1 $377 reversed $171 $-1 #
edge $-1 $378 0 $378 6.283185307179586232 $172 $379 forward 7 unknown #
vertex $-1 $175 $380 #
ellipse-curve $-1 49.56051746998483765 1.912039969260430183 7.769557116327939994 0 -0.7771459697322561366 0.629320380830711068 0.5 0 0 1 I I #
coedge $-1 $272 $272 $-1 $381 reversed $178 $-1 #
edge $-1 $382 0 $382 6.283185307179586232 $179 $383 forward 7 unknown #
vertex $-1 $182 $384 #
ellipse-curve $-1 55.73998707943832187 1.912039969260430183 7.769557116327939994 0 -0.7771459697322561366 0.629320380830711068 0.5 0 0 1 I I #
coedge $-1 $276 $276 $-1 $385 reversed $185 $-1 #
edge $-1 $386 0 $386 6.283185307179586232 $186 $387 forward 7 unknown #
vertex $-1 $189 $388 #
ellipse-curve $-1 61.9194566888918061 1.912039969260430183 7.769557116327939994 0 -0.7771459697322561366 0.629320380830711068 0.5 0 0 1 I I #
face $-1 $-1 $205 $20 $-1 $389 reversed single #
loop $-1 $-1 $296 $190 #
plane-surface $-1 45.85222937711722579 39.78160522831477408 5.065364950516523024 0 -1 0 0 0 -1 forward_v I I I I #
coedge $-1 $390 $294 $297 $391 forward $191 $-1 #
coedge $-1 $300 $193 $194 $288 reversed $117 $-1 #
coedge $-1 $294 $390 $193 $286 reversed $191 $-1 #
edge $-1 $301 -5.065364950516523024 $392 5.065364950516523024 $285 $393 forward 7 unknown #
coedge $-1 $195 $194 $390 $394 forward $71 $-1 #
edge $-1 $292 -45.85222937711722579 $392 45.85222937711722579 $284 $395 forward 7 unknown #
coedge $-1 $297 $296 $195 $290 reversed $281 $-1 #
edge $-1 $396 -45.85222937711722579 $291 45.85222937711722579 $289 $397 forward 7 unknown #
vertex $-1 $197 $398 #
vertex $-1 $303 $399 #
straight-curve $-1 91.70445875423445159 19.89080261415738704 0 0 -1 0 I I #
coedge $-1 $283 $285 $198 $295 reversed $191 $-1 #
edge $-1 $298 -19.89080261415738704 $301 19.89080261415738704 $294 $400 forward 7 unknown #
coedge $-1 $289 $199 $204 $304 forward $281 $-1 #
coedge $-1 $199 $289 $283 $391 reversed $281 $-1 #
vertex $-1 $200 $401 #
straight-curve $-1 45.85222937711722579 39.78160522831477408 10.13072990103304605 -1 0 0 I I #
coedge $-1 $201 $284 $203 $303 reversed $117 $-1 #
vertex $-1 $295 $402 #
straight-curve $-1 45.85222937711722579 0 10.13072990103304605 1 0 0 I I #
edge $-1 $206 -5.065364950516523024 $292 5.065364950516523024 $203 $403 forward 7 unknown #
edge $-1 $207 -5.065364950516523024 $291 5.065364950516523024 $204 $404 forward 7 unknown #
point $-1 91.70445875423445159 0 10.13072990103304605 #
point $-1 91.70445875423445159 39.78160522831477408 10.13072990103304605 #
face $-1 $-1 $320 $21 $-1 $405 reversed single #
loop $-1 $-1 $316 $209 #
plane-surface $-1 0 19.89080261415738704 5.065364950516523024 1 0 0 0 0 -1 forward_v I I I I #
coedge $-1 $406 $212 $313 $407 forward $125 $-1 #
coedge $-1 $212 $406 $408 $409 forward $125 $-1 #
edge $-1 $410 -19.89080261415738704 $314 19.89080261415738704 $212 $411 forward 7 unknown #
coedge $-1 $214 $323 $310 $407 reversed $210 $-1 #
vertex $-1 $407 $412 #
straight-curve $-1 4.123550562897122518 0 3.282682475258261512 0 0 1 I I #
coedge $-1 $413 $414 $216 $317 forward $308 $-1 #
edge $-1 $324 -19.89080261415738704 $321 19.89080261415738704 $316 $415 forward 7 unknown #
coedge $-1 $408 $217 $221 $326 forward $320 $-1 #
coedge $-1 $217 $408 $413 $416 reversed $320 $-1 #
loop $-1 $-1 $318 $307 #
vertex $-1 $416 $417 #
straight-curve $-1 23.95700232928289353 39.78160522831477408 3 1 0 0 I I #
coedge $-1 $313 $219 $414 $418 forward $210 $-1 #
vertex $-1 $418 $419 #
straight-curve $-1 23.95700232928289353 0 3 -1 0 0 I I #
edge $-1 $223 0.2826824752582615119 $410 3.282682475258261512 $318 $420 forward 7 unknown #
point $-1 4.123550562897122518 0 3 #
point $-1 4.123550562897122518 39.78160522831477408 3 #
plane-surface $-1 45.85222937711722579 19.89080261415738704 10.13072990103304605 0 0 1 1 0 0 forward_v I I I I #
coedge $-1 $340 $339 $332 $421 forward $226 $-1 #
coedge $-1 $332 $228 $230 $336 reversed $133 $-1 #
coedge $-1 $228 $331 $330 $421 reversed $133 $-1 #
coedge $-1 $236 $231 $228 $334 forward $237 $-1 #
edge $-1 $337 -16.99486641893772543 $422 -13.17078648041688638 $333 $423 forward 7 unknown #
coedge $-1 $230 $229 $340 $424 reversed $79 $-1 #
edge $-1 $425 -39.78160522831476698 $337 -33.70508195812764285 $331 $426 forward 7 unknown #
vertex $-1 $232 $427 #
straight-curve $-1 50.79610822827777383 35.95752528979392793 10.13072990103304782 1 0 0 I I #
coedge $-1 $330 $233 $236 $344 reversed $226 $-1 #
coedge $-1 $233 $330 $335 $424 forward $226 $-1 #
vertex $-1 $234 $428 #
straight-curve $-1 45.44087106368250772 39.78160522831477408 49.55067418094645149 0 0 1 I I #
straight-curve $-1 45.44087106368250772 14.74623027597471747 36.32449850428731963 0 0.629320380830711068 -0.7771459697322561366 I I #
edge $-1 $422 -20.18687371807691022 $238 0.4113583134347180703 $339 $429 forward 7 unknown #
point $-1 45.44087106368250772 39.78160522831477408 10.13072990103304605 #
point $-1 45.44087106368250772 35.95752528979393503 10.13072990103304427 #
edge $-1 $430 1 $430 0 $241 $-1 forward 7 unknown #
vertex $-1 $242 $431 #
ellipse-curve $-1 49.56051746998483765 37.09241928932209476 7.14023673549723803 0 0.7771459697322561366 0.629320380830711068 0.5 0 0 1 I I #
point $-1 50.06051746998483765 37.86956525905435456 7.769557116327948876 #
edge $-1 $432 1 $432 0 $245 $-1 forward 7 unknown #
vertex $-1 $246 $433 #
ellipse-curve $-1 55.73998707943832187 37.09241928932209476 7.14023673549723803 0 0.7771459697322561366 0.629320380830711068 0.5 0 0 1 I I #
point $-1 56.23998707943832187 37.86956525905435456 7.769557116327948876 #
edge $-1 $434 1 $434 0 $249 $-1 forward 7 unknown #
vertex $-1 $250 $435 #
ellipse-curve $-1 61.9194566888918061 37.09241928932209476 7.14023673549723803 0 0.7771459697322561366 0.629320380830711068 0.5 0 0 1 I I #
point $-1 62.4194566888918061 37.86956525905435456 7.769557116327948876 #
loop $-1 $-1 $261 $253 #
plane-surface $-1 45.85222937711722579 0 5.065364950516523024 0 1 0 0 0 1 forward_v I I I I #
coedge $-1 $362 $256 $258 $366 reversed $162 $-1 #
coedge $-1 $256 $361 $436 $437 reversed $162 $-1 #
coedge $-1 $264 $259 $256 $364 forward $254 $-1 #
edge $-1 $367 -29.51255389510776794 $438 -25.68847395658691113 $363 $439 forward 7 unknown #
coedge $-1 $258 $257 $370 $440 reversed $98 $-1 #
edge $-1 $441 -1.137403304338158105e-14 $367 6.07652327018714189 $361 $442 forward 7 unknown #
vertex $-1 $260 $443 #
straight-curve $-1 50.79610822827777383 3.824079938520856814 10.13072990103304605 -1 0 0 I I #
coedge $-1 $436 $261 $264 $374 reversed $359 $-1 #
coedge $-1 $261 $436 $365 $440 forward $359 $-1 #
vertex $-1 $262 $444 #
straight-curve $-1 66.03910309519413602 0 34.09261709461421219 0 0 1 I I #
straight-curve $-1 66.03910309519413602 7.105427357601001859e-15 5.408384331622839269 0 -0.629320380830711068 -0.7771459697322561366 I I #
edge $-1 $438 -0.4113583134347180703 $265 20.18687371807691022 $369 $445 forward 7 unknown #
point $-1 66.03910309519413602 0 10.13072990103304605 #
point $-1 66.03910309519413602 3.824079938520856814 10.13072990103304605 #
edge $-1 $446 1 $446 0 $268 $-1 forward 7 unknown #
vertex $-1 $269 $447 #
ellipse-curve $-1 49.56051746998483765 2.689185938992675773 7.140236735497236253 0 -0.7771459697322561366 0.629320380830711068 0.5 0 0 1 I I #
point $-1 50.06051746998483765 1.912039969260419525 7.769557116327947099 #
edge $-1 $448 1 $448 0 $272 $-1 forward 7 unknown #
vertex $-1 $273 $449 #
ellipse-curve $-1 55.73998707943832187 2.689185938992675773 7.140236735497236253 0 -0.7771459697322561366 0.629320380830711068 0.5 0 0 1 I I #
point $-1 56.23998707943832187 1.912039969260419525 7.769557116327947099 #
edge $-1 $450 1 $450 0 $276 $-1 forward 7 unknown #
vertex $-1 $277 $451 #
ellipse-curve $-1 61.9194566888918061 2.689185938992675773 7.140236735497236253 0 -0.7771459697322561366 0.629320380830711068 0.5 0 0 1 I I #
point $-1 62.4194566888918061 1.912039969260419525 7.769557116327947099 #
plane-surface $-1 91.70445875423445159 19.89080261415738704 5.065364950516523024 -1 0 0 0 0 1 forward_v I I I I #
coedge $-1 $285 $283 $287 $394 reversed $191 $-1 #
edge $-1 $298 -5.065364950516523024 $396 5.065364950516523024 $297 $452 forward 7 unknown #
vertex $-1 $394 $453 #
straight-curve $-1 0 0 5.065364950516523024 0 0 -1 I I #
edge $-1 $392 -19.89080261415738704 $396 19.89080261415738704 $390 $454 forward 7 unknown #
straight-curve $-1 45.85222937711722579 0 0 -1 0 0 I I #
vertex $-1 $290 $455 #
straight-curve $-1 45.85222937711722579 39.78160522831477408 0 1 0 0 I I #
point $-1 91.70445875423445159 39.78160522831477408 0 #
point $-1 91.70445875423445159 0 0 #
straight-curve $-1 0 19.89080261415738704 10.13072990103304605 0 -1 0 I I #
point $-1 0 39.78160522831477408 10.13072990103304605 #
point $-1 0 0 10.13072990103304605 #
straight-curve $-1 91.70445875423445159 0 5.065364950516523024 0 0 -1 I I #
straight-curve $-1 91.70445875423445159 39.78160522831477408 5.065364950516523024 0 0 -1 I I #
plane-surface $-1 45.85222937711722579 39.78160522831477408 5.065364950516523024 0 -1 0 0 0 -1 forward_v I I I I #
coedge $-1 $311 $310 $456 $457 forward $125 $-1 #
edge $-1 $314 41.72867881422010328 $458 45.85222937711722579 $313 $459 forward 7 unknown #
coedge $-1 $319 $318 $311 $409 reversed $320 $-1 #
edge $-1 $460 -45.85222937711722579 $410 -41.72867881422010328 $408 $461 forward 7 unknown #
vertex $-1 $326 $462 #
straight-curve $-1 4.123550562897122518 19.89080261415738704 0 0 -1 0 I I #
point $-1 4.123550562897122518 0 0 #
coedge $-1 $456 $316 $319 $416 forward $308 $-1 #
coedge $-1 $316 $456 $323 $418 reversed $308 $-1 #
straight-curve $-1 0 19.89080261415738704 3 0 1 0 I I #
edge $-1 $321 2.065364950516523024 $460 5.065364950516523024 $319 $463 forward 7 unknown #
point $-1 0 39.78160522831477408 3 #
edge $-1 $324 2.065364950516523024 $458 5.065364950516523024 $414 $464 forward 7 unknown #
point $-1 0 0 3 #
straight-curve $-1 4.123550562897122518 39.78160522831477408 3.282682475258261512 0 0 -1 I I #
edge $-1 $422 39.41994427991340899 $425 44.14228984932360333 $330 $465 forward 7 unknown #
vertex $-1 $344 $466 #
straight-curve $-1 66.03910309519413602 52.95239170873166046 10.13072990103304782 0 1 0 I I #
edge $-1 $425 -15.24299486691636218 $341 5.355237164595266108 $340 $467 forward 7 unknown #
vertex $-1 $424 $468 #
straight-curve $-1 66.03910309519413602 14.74623027597471747 36.32449850428731963 0 -0.629320380830711068 0.7771459697322561366 I I #
point $-1 66.03910309519413602 35.95752528979393503 10.13072990103304427 #
point $-1 45.44087106368250772 39.78160522831477408 5.408384331622846375 #
straight-curve $-1 45.85222937711722579 39.78160522831477408 10.13072990103304605 -1 0 0 I I #
vertex $-1 $347 $469 #
point $-1 50.06051746998483765 37.09241928932209476 7.14023673549723803 #
vertex $-1 $351 $470 #
point $-1 56.23998707943832187 37.09241928932209476 7.14023673549723803 #
vertex $-1 $355 $471 #
point $-1 62.4194566888918061 37.09241928932209476 7.14023673549723803 #
coedge $-1 $370 $369 $362 $437 forward $359 $-1 #
edge $-1 $438 23.96188719358116614 $441 28.6842327629913818 $436 $472 forward 7 unknown #
vertex $-1 $374 $473 #
straight-curve $-1 45.44087106368250772 -25.68847395658691113 10.13072990103304782 0 -1 0 I I #
edge $-1 $441 -5.355237164595266108 $371 15.24299486691636218 $370 $474 forward 7 unknown #
vertex $-1 $440 $475 #
straight-curve $-1 45.44087106368250772 7.105427357601001859e-15 5.408384331622839269 0 0.629320380830711068 0.7771459697322561366 I I #
point $-1 45.44087106368250772 3.824079938520856814 10.13072990103304605 #
point $-1 66.03910309519413602 0 5.408384331622830388 #
straight-curve $-1 45.85222937711722579 0 10.13072990103304605 1 0 0 I I #
vertex $-1 $377 $476 #
point $-1 50.06051746998483765 2.689185938992675773 7.140236735497236253 #
vertex $-1 $381 $477 #
point $-1 56.23998707943832187 2.689185938992675773 7.140236735497236253 #
vertex $-1 $385 $478 #
point $-1 62.4194566888918061 2.689185938992675773 7.140236735497236253 #
straight-curve $-1 0 39.78160522831477408 5.065364950516523024 0 0 -1 I I #
point $-1 0 0 0 #
straight-curve $-1 0 19.89080261415738704 0 0 1 0 I I #
point $-1 0 39.78160522831477408 0 #
coedge $-1 $414 $413 $406 $457 reversed $308 $-1 #
edge $-1 $458 -19.89080261415738704 $460 19.89080261415738704 $456 $479 forward 7 unknown #
vertex $-1 $457 $480 #
straight-curve $-1 45.85222937711722579 0 0 -1 0 0 I I #
vertex $-1 $409 $481 #
straight-curve $-1 45.85222937711722579 39.78160522831477408 0 1 0 0 I I #
point $-1 4.123550562897122518 39.78160522831477408 0 #
straight-curve $-1 0 39.78160522831477408 5.065364950516523024 0 0 -1 I I #
straight-curve $-1 0 0 5.065364950516523024 0 0 -1 I I #
straight-curve $-1 66.03910309519413602 39.78160522831477408 49.55067418094645149 0 0 -1 I I #
point $-1 66.03910309519413602 39.78160522831477408 10.13072990103304605 #
straight-curve $-1 50.79610822827777383 39.78160522831477408 5.408384331622846375 -1 0 0 I I #
point $-1 66.03910309519413602 39.78160522831477408 5.408384331622846375 #
point $-1 49.56051746998483765 36.70384630445596486 6.825576545081881719 #
point $-1 55.73998707943832187 36.70384630445596486 6.825576545081881719 #
point $-1 61.9194566888918061 36.70384630445596486 6.825576545081881719 #
straight-curve $-1 45.44087106368250772 0 34.09261709461421219 0 0 -1 I I #
point $-1 45.44087106368250772 0 10.13072990103304605 #
straight-curve $-1 50.79610822827777383 0 5.408384331622831276 1 0 0 I I #
point $-1 45.44087106368250772 0 5.408384331622830388 #
point $-1 49.56051746998483765 3.077758923858805673 6.825576545081879942 #
point $-1 55.73998707943832187 3.077758923858805673 6.825576545081879942 #
point $-1 61.9194566888918061 3.077758923858805673 6.825576545081879942 #
straight-curve $-1 0 19.89080261415738704 0 0 1 0 I I #
point $-1 0 0 0 #
point $-1 0 39.78160522831477408 0 #
End-of-ACIS-data 