600 0 4 0           
94 GICL ACIS Healer - Source: /gicl/data5/repository/Drexel/SM99-DATA/part120.smdg.feat.sat - 6 0 18 ACIS 6.0.3 Solaris 24 Sat Apr 13 20:44:58 2002 
1 9.999999999999999547e-07 1.000000000000000036e-10 
body $-1 $4 $-1 $-1 #
body $-1 $5 $-1 $-1 #
body $-1 $6 $-1 $-1 #
body $-1 $7 $-1 $-1 #
lump $-1 $-1 $8 $0 #
lump $-1 $-1 $9 $1 #
lump $-1 $-1 $10 $2 #
lump $-1 $-1 $11 $3 #
shell $-1 $-1 $-1 $12 $-1 $4 #
shell $-1 $-1 $-1 $13 $-1 $5 #
shell $-1 $-1 $-1 $14 $-1 $6 #
shell $-1 $-1 $-1 $15 $-1 $7 #
face $-1 $16 $17 $8 $-1 $18 forward single #
face $-1 $19 $20 $9 $-1 $21 forward single #
face $-1 $22 $23 $10 $-1 $24 forward single #
face $-1 $25 $26 $11 $-1 $27 forward single #
face $-1 $28 $29 $8 $-1 $30 reversed single #
loop $-1 $-1 $31 $12 #
plane-surface $-1 61.53386028626361792 40.42583260586468441 16.35613370735772421 0 0 1 1 0 0 forward_v I I I I #
face $-1 $32 $33 $9 $-1 $34 reversed single #
loop $-1 $-1 $35 $13 #
plane-surface $-1 61.53386028626361792 3.370013955478156298 3.011411451860665167 0 0 1 1 0 0 forward_v I I I I #
face $-1 $36 $37 $10 $-1 $38 reversed single #
loop $-1 $-1 $39 $14 #
plane-surface $-1 223.6336247063472626 19.21660286802584139 266.4433594905992777 0.7431448337585914166 0 0.6691305971616567927 0.6691305971616567927 0 -0.7431448337585914166 forward_v I I I I #
face $-1 $40 $41 $11 $-1 $42 forward single #
loop $-1 $43 $44 $15 #
cone-surface $-1 119.1214075414803801 19.21660286802584139 12.22873041884249545 -0.7431448337585914166 0 -0.6691305971616567927 0.6691305971616567927 0 -0.7431448337585914166 1 I I 0 1 1 forward I I I I #
face $-1 $45 $46 $8 $-1 $47 reversed single #
loop $-1 $-1 $48 $16 #
plane-surface $-1 61.53386028626361792 40.42583260586468441 0 0 0 1 1 0 0 forward_v I I I I #
coedge $-1 $49 $50 $51 $52 forward $17 $-1 #
face $-1 $53 $54 $9 $-1 $55 reversed single #
loop $-1 $-1 $56 $19 #
plane-surface $-1 61.53386028626361792 3.370013955478156298 0 0 0 1 1 0 0 forward_v I I I I #
coedge $-1 $57 $58 $59 $60 forward $20 $-1 #
face $-1 $61 $62 $10 $-1 $63 reversed single #
loop $-1 $-1 $64 $22 #
plane-surface $-1 40.71934321450819994 19.21660286802584139 101.7466047745611206 0.7431448337585914166 0 0.6691305971616567927 0.6691305971616567927 0 -0.7431448337585914166 forward_v I I I I #
coedge $-1 $65 $66 $67 $68 forward $23 $-1 #
face $-1 $-1 $69 $11 $-1 $70 forward single #
loop $-1 $-1 $71 $25 #
plane-surface $-1 120.3364936834357053 19.21660286802584139 13.32279886799966206 0.7431448337585914166 0 0.6691305971616567927 -0.6691305971616567927 0 0.7431448337585914166 forward_v I I I I #
loop $-1 $-1 $72 $15 #
coedge $-1 $44 $44 $71 $73 reversed $26 $-1 #
face $-1 $74 $75 $8 $-1 $76 reversed single #
loop $-1 $-1 $77 $28 #
plane-surface $-1 61.53386028626361792 0 8.178066853678862103 0 1 0 0 0 1 forward_v I I I I #
coedge $-1 $78 $79 $80 $81 forward $29 $-1 #
coedge $-1 $82 $31 $83 $84 forward $17 $-1 #
coedge $-1 $31 $82 $85 $86 forward $17 $-1 #
coedge $-1 $87 $88 $31 $52 reversed $89 $-1 #
edge $-1 $90 -40.42583260586468441 $91 40.42583260586468441 $51 $92 forward 7 unknown #
face $-1 $93 $94 $9 $-1 $95 reversed single #
loop $-1 $-1 $96 $32 #
plane-surface $-1 61.53386028626361792 0 1.505705725930332584 0 1 0 0 0 1 forward_v I I I I #
coedge $-1 $97 $98 $99 $100 forward $33 $-1 #
coedge $-1 $101 $35 $102 $103 forward $20 $-1 #
coedge $-1 $35 $101 $104 $105 forward $20 $-1 #
coedge $-1 $106 $107 $35 $60 reversed $108 $-1 #
edge $-1 $109 -3.370013955478156298 $110 3.370013955478156298 $59 $111 forward 7 unknown #
face $-1 $112 $113 $10 $-1 $114 reversed single #
loop $-1 $-1 $115 $36 #
plane-surface $-1 132.1764839604277313 9.645329295604003761 184.094982132580185 0 1 0 0.7431448337585914166 0 0.6691305971616567927 forward_v I I I I #
coedge $-1 $116 $117 $118 $119 forward $37 $-1 #
coedge $-1 $120 $39 $121 $122 forward $23 $-1 #
coedge $-1 $39 $120 $123 $124 forward $23 $-1 #
coedge $-1 $125 $126 $39 $68 reversed $127 $-1 #
edge $-1 $128 -9.571273572421837628 $129 9.571273572421837628 $67 $130 forward 7 unknown #
loop $-1 $131 $132 $40 #
cone-surface $-1 117.5347489826457519 19.21660286802584139 10.80009667110449811 -0.7431448337585914166 0 -0.6691305971616567927 0.3345652985808283963 0 -0.3715724168792957083 1 I I -0.7071067811865474617 0.7071067811865474617 0.5 forward I I I I #
coedge $-1 $71 $71 $44 $73 forward $41 $-1 #
coedge $-1 $72 $72 $132 $133 forward $43 $-1 #
edge $-1 $134 0 $134 6.283185307179586232 $71 $135 forward 7 unknown #
face $-1 $136 $137 $8 $-1 $138 reversed single #
loop $-1 $-1 $139 $45 #
plane-surface $-1 0 40.42583260586468441 8.178066853678862103 1 0 0 0 0 -1 forward_v I I I I #
coedge $-1 $140 $85 $141 $142 forward $46 $-1 #
coedge $-1 $143 $48 $140 $144 forward $29 $-1 #
coedge $-1 $48 $143 $145 $146 forward $29 $-1 #
coedge $-1 $88 $87 $48 $81 reversed $89 $-1 #
edge $-1 $147 -40.42583260586468441 $148 40.42583260586468441 $80 $149 forward 7 unknown #
coedge $-1 $50 $49 $150 $151 forward $17 $-1 #
coedge $-1 $152 $153 $49 $84 reversed $137 $-1 #
edge $-1 $91 -61.53386028626361792 $154 61.53386028626361792 $83 $155 forward 7 unknown #
coedge $-1 $77 $156 $50 $86 reversed $46 $-1 #
edge $-1 $157 -61.53386028626361792 $90 61.53386028626361792 $85 $158 forward 7 unknown #
coedge $-1 $80 $51 $156 $159 forward $89 $-1 #
coedge $-1 $51 $80 $152 $160 reversed $89 $-1 #
loop $-1 $-1 $87 $136 #
vertex $-1 $52 $161 #
vertex $-1 $52 $162 #
straight-curve $-1 123.0677205725272358 40.42583260586468441 16.35613370735772421 0 1 0 I I #
face $-1 $163 $164 $9 $-1 $165 reversed single #
loop $-1 $-1 $166 $53 #
plane-surface $-1 0 3.370013955478156298 1.505705725930332584 1 0 0 0 0 -1 forward_v I I I I #
coedge $-1 $167 $104 $168 $169 forward $54 $-1 #
coedge $-1 $170 $56 $167 $171 forward $33 $-1 #
coedge $-1 $56 $170 $172 $173 forward $33 $-1 #
coedge $-1 $107 $106 $56 $100 reversed $108 $-1 #
edge $-1 $174 -3.370013955478156298 $175 3.370013955478156298 $99 $176 forward 7 unknown #
coedge $-1 $58 $57 $177 $178 forward $20 $-1 #
coedge $-1 $179 $180 $57 $103 reversed $164 $-1 #
edge $-1 $110 -61.53386028626361792 $181 61.53386028626361792 $102 $182 forward 7 unknown #
coedge $-1 $96 $183 $58 $105 reversed $54 $-1 #
edge $-1 $184 -61.53386028626361792 $109 61.53386028626361792 $104 $185 forward 7 unknown #
coedge $-1 $99 $59 $183 $186 forward $108 $-1 #
coedge $-1 $59 $99 $179 $187 reversed $108 $-1 #
loop $-1 $-1 $106 $163 #
vertex $-1 $60 $188 #
vertex $-1 $60 $189 #
straight-curve $-1 123.0677205725272358 3.370013955478156298 3.011411451860665167 0 1 0 I I #
face $-1 $190 $191 $10 $-1 $192 reversed single #
loop $-1 $-1 $193 $61 #
plane-surface $-1 -32.52027075561039737 19.21660286802584139 367.0092636244192477 0.6691305971616567927 0 -0.7431448337585914166 -0.7431448337585914166 0 -0.6691305971616567927 forward_v I I I I #
coedge $-1 $194 $123 $195 $196 forward $62 $-1 #
coedge $-1 $197 $64 $194 $198 forward $37 $-1 #
coedge $-1 $64 $197 $199 $200 forward $37 $-1 #
coedge $-1 $126 $125 $64 $119 reversed $127 $-1 #
edge $-1 $201 -9.571273572421837628 $202 9.571273572421837628 $118 $203 forward 7 unknown #
coedge $-1 $66 $65 $204 $205 forward $23 $-1 #
coedge $-1 $206 $207 $65 $122 reversed $191 $-1 #
edge $-1 $129 -246.1354411450544433 $208 246.1354411450544148 $121 $209 forward 7 unknown #
coedge $-1 $115 $210 $66 $124 reversed $62 $-1 #
edge $-1 $211 -246.1354411450544148 $128 246.1354411450544433 $123 $212 forward 7 unknown #
coedge $-1 $118 $67 $210 $213 forward $127 $-1 #
coedge $-1 $67 $118 $206 $214 reversed $127 $-1 #
loop $-1 $-1 $125 $190 #
vertex $-1 $68 $215 #
vertex $-1 $68 $216 #
straight-curve $-1 388.3303794223853629 19.21660286802584139 83.52907799876018657 0 1 0 I I #
loop $-1 $-1 $217 $40 #
coedge $-1 $132 $132 $72 $133 reversed $69 $-1 #
edge $-1 $218 0 $218 6.283185307179586232 $132 $219 forward 7 unknown #
vertex $-1 $73 $220 #
ellipse-curve $-1 120.3364936834357053 19.21660286802584139 13.32279886799966206 0.7431448337585914166 0 0.6691305971616567927 0.6691305971616567927 0 -0.7431448337585914166 1 I I #
face $-1 $-1 $89 $8 $-1 $221 reversed single #
loop $-1 $-1 $152 $74 #
plane-surface $-1 61.53386028626361792 80.85166521172936882 8.178066853678862103 0 -1 0 0 0 -1 forward_v I I I I #
coedge $-1 $222 $150 $153 $223 forward $75 $-1 #
coedge $-1 $156 $77 $78 $144 reversed $46 $-1 #
coedge $-1 $150 $222 $77 $142 reversed $75 $-1 #
edge $-1 $157 -8.178066853678862103 $224 8.178066853678862103 $141 $225 forward 7 unknown #
coedge $-1 $79 $78 $222 $226 forward $29 $-1 #
edge $-1 $148 -61.53386028626361792 $224 61.53386028626361792 $140 $227 forward 7 unknown #
coedge $-1 $153 $152 $79 $146 reversed $137 $-1 #
edge $-1 $228 -61.53386028626361792 $147 61.53386028626361792 $145 $229 forward 7 unknown #
vertex $-1 $81 $230 #
vertex $-1 $159 $231 #
straight-curve $-1 123.0677205725272358 40.42583260586468441 0 0 -1 0 I I #
coedge $-1 $139 $141 $82 $151 reversed $75 $-1 #
edge $-1 $154 -40.42583260586468441 $157 40.42583260586468441 $150 $232 forward 7 unknown #
coedge $-1 $145 $83 $88 $160 forward $137 $-1 #
coedge $-1 $83 $145 $139 $223 reversed $137 $-1 #
vertex $-1 $84 $233 #
straight-curve $-1 61.53386028626361792 80.85166521172936882 16.35613370735772421 -1 0 0 I I #
coedge $-1 $85 $140 $87 $159 reversed $46 $-1 #
vertex $-1 $151 $234 #
straight-curve $-1 61.53386028626361792 0 16.35613370735772421 1 0 0 I I #
edge $-1 $90 -8.178066853678862103 $148 8.178066853678862103 $87 $235 forward 7 unknown #
edge $-1 $91 -8.178066853678862103 $147 8.178066853678862103 $88 $236 forward 7 unknown #
point $-1 123.0677205725272358 0 16.35613370735772421 #
point $-1 123.0677205725272358 80.85166521172936882 16.35613370735772421 #
face $-1 $-1 $108 $9 $-1 $237 reversed single #
loop $-1 $-1 $179 $93 #
plane-surface $-1 61.53386028626361792 6.740027910956312596 1.505705725930332584 0 -1 0 0 0 -1 forward_v I I I I #
coedge $-1 $238 $177 $180 $239 forward $94 $-1 #
coedge $-1 $183 $96 $97 $171 reversed $54 $-1 #
coedge $-1 $177 $238 $96 $169 reversed $94 $-1 #
edge $-1 $184 -1.505705725930332584 $240 1.505705725930332584 $168 $241 forward 7 unknown #
coedge $-1 $98 $97 $238 $242 forward $33 $-1 #
edge $-1 $175 -61.53386028626361792 $240 61.53386028626361792 $167 $243 forward 7 unknown #
coedge $-1 $180 $179 $98 $173 reversed $164 $-1 #
edge $-1 $244 -61.53386028626361792 $174 61.53386028626361792 $172 $245 forward 7 unknown #
vertex $-1 $100 $246 #
vertex $-1 $186 $247 #
straight-curve $-1 123.0677205725272358 3.370013955478156298 0 0 -1 0 I I #
coedge $-1 $166 $168 $101 $178 reversed $94 $-1 #
edge $-1 $181 -3.370013955478156298 $184 3.370013955478156298 $177 $248 forward 7 unknown #
coedge $-1 $172 $102 $107 $187 forward $164 $-1 #
coedge $-1 $102 $172 $166 $239 reversed $164 $-1 #
vertex $-1 $103 $249 #
straight-curve $-1 61.53386028626361792 6.740027910956312596 3.011411451860665167 -1 0 0 I I #
coedge $-1 $104 $167 $106 $186 reversed $54 $-1 #
vertex $-1 $178 $250 #
straight-curve $-1 61.53386028626361792 0 3.011411451860665167 1 0 0 I I #
edge $-1 $109 -1.505705725930332584 $175 1.505705725930332584 $106 $251 forward 7 unknown #
edge $-1 $110 -1.505705725930332584 $174 1.505705725930332584 $107 $252 forward 7 unknown #
point $-1 123.0677205725272358 0 3.011411451860665167 #
point $-1 123.0677205725272358 6.740027910956312596 3.011411451860665167 #
face $-1 $-1 $127 $10 $-1 $253 reversed single #
loop $-1 $-1 $206 $112 #
plane-surface $-1 132.1764839604277313 28.78787644044767902 184.094982132580185 0 -1 0 -0.7431448337585914166 0 -0.6691305971616567927 forward_v I I I I #
coedge $-1 $254 $204 $207 $255 forward $113 $-1 #
coedge $-1 $210 $115 $116 $198 reversed $62 $-1 #
coedge $-1 $204 $254 $115 $196 reversed $113 $-1 #
edge $-1 $211 -123.0677205725272074 $256 123.067720572527179 $195 $257 forward 7 unknown #
coedge $-1 $117 $116 $254 $258 forward $37 $-1 #
edge $-1 $202 -246.1354411450544148 $256 246.1354411450544433 $194 $259 forward 7 unknown #
coedge $-1 $207 $206 $117 $200 reversed $191 $-1 #
edge $-1 $260 -246.1354411450544433 $201 246.1354411450544148 $199 $261 forward 7 unknown #
vertex $-1 $119 $262 #
vertex $-1 $213 $263 #
straight-curve $-1 205.4160979305463286 19.21660286802584139 -81.16767671727791367 0 -1 0 I I #
coedge $-1 $193 $195 $120 $205 reversed $113 $-1 #
edge $-1 $208 -9.571273572421837628 $211 9.571273572421837628 $204 $264 forward 7 unknown #
coedge $-1 $199 $121 $126 $214 forward $191 $-1 #
coedge $-1 $121 $199 $193 $255 reversed $191 $-1 #
vertex $-1 $122 $265 #
straight-curve $-1 223.6336247063472626 28.78787644044767902 266.4433594905992777 -0.6691305971616567927 0 0.7431448337585914166 I I #
coedge $-1 $123 $194 $125 $213 reversed $62 $-1 #
vertex $-1 $205 $266 #
straight-curve $-1 223.6336247063472626 9.645329295604003761 266.4433594905992777 0.6691305971616567927 0 -0.7431448337585914166 I I #
edge $-1 $128 -123.0677205725272074 $202 123.0677205725272074 $125 $267 forward 7 unknown #
edge $-1 $129 -123.0677205725272074 $201 123.0677205725272074 $126 $268 forward 7 unknown #
point $-1 388.3303794223853629 9.645329295604003761 83.52907799876018657 #
point $-1 388.3303794223853629 28.78787644044767902 83.52907799876018657 #
coedge $-1 $217 $217 $-1 $269 reversed $131 $-1 #
vertex $-1 $133 $270 #
ellipse-curve $-1 117.9063213995250408 19.21660286802584139 11.13466196968532707 0.7431448337585914166 0 0.6691305971616567927 0.6691305971616567927 0 -0.7431448337585914166 1 I I #
point $-1 121.0056242805973596 19.21660286802584139 12.57965403424107187 #
plane-surface $-1 123.0677205725272358 40.42583260586468441 8.178066853678862103 -1 0 0 0 0 1 forward_v I I I I #
coedge $-1 $141 $139 $143 $226 reversed $75 $-1 #
edge $-1 $154 -8.178066853678862103 $228 8.178066853678862103 $153 $271 forward 7 unknown #
vertex $-1 $226 $272 #
straight-curve $-1 0 0 8.178066853678862103 0 0 -1 I I #
edge $-1 $224 -40.42583260586468441 $228 40.42583260586468441 $222 $273 forward 7 unknown #
straight-curve $-1 61.53386028626361792 0 0 -1 0 0 I I #
vertex $-1 $146 $274 #
straight-curve $-1 61.53386028626361792 80.85166521172936882 0 1 0 0 I I #
point $-1 123.0677205725272358 80.85166521172936882 0 #
point $-1 123.0677205725272358 0 0 #
straight-curve $-1 0 40.42583260586468441 16.35613370735772421 0 -1 0 I I #
point $-1 0 80.85166521172936882 16.35613370735772421 #
point $-1 0 0 16.35613370735772421 #
straight-curve $-1 123.0677205725272358 0 8.178066853678862103 0 0 -1 I I #
straight-curve $-1 123.0677205725272358 80.85166521172936882 8.178066853678862103 0 0 -1 I I #
plane-surface $-1 123.0677205725272358 3.370013955478156298 1.505705725930332584 -1 0 0 0 0 1 forward_v I I I I #
coedge $-1 $168 $166 $170 $242 reversed $94 $-1 #
edge $-1 $181 -1.505705725930332584 $244 1.505705725930332584 $180 $275 forward 7 unknown #
vertex $-1 $242 $276 #
straight-curve $-1 0 0 1.505705725930332584 0 0 -1 I I #
edge $-1 $240 -3.370013955478156298 $244 3.370013955478156298 $238 $277 forward 7 unknown #
straight-curve $-1 61.53386028626361792 0 0 -1 0 0 I I #
vertex $-1 $173 $278 #
straight-curve $-1 61.53386028626361792 6.740027910956312596 0 1 0 0 I I #
point $-1 123.0677205725272358 6.740027910956312596 0 #
point $-1 123.0677205725272358 0 0 #
straight-curve $-1 0 3.370013955478156298 3.011411451860665167 0 -1 0 I I #
point $-1 0 6.740027910956312596 3.011411451860665167 #
point $-1 0 0 3.011411451860665167 #
straight-curve $-1 123.0677205725272358 0 1.505705725930332584 0 0 -1 I I #
straight-curve $-1 123.0677205725272358 6.740027910956312596 1.505705725930332584 0 0 -1 I I #
plane-surface $-1 296.87323867646586 19.21660286802584139 1.180700640741122243 -0.6691305971616567927 0 0.7431448337585914166 0.7431448337585914166 0 0.6691305971616567927 forward_v I I I I #
coedge $-1 $195 $193 $197 $258 reversed $113 $-1 #
edge $-1 $208 -123.0677205725272074 $260 123.067720572527179 $207 $279 forward 7 unknown #
vertex $-1 $258 $280 #
straight-curve $-1 -32.52027075561039737 9.645329295604003761 367.0092636244192477 -0.7431448337585914166 0 -0.6691305971616567927 I I #
edge $-1 $256 -9.571273572421837628 $260 9.571273572421837628 $254 $281 forward 7 unknown #
straight-curve $-1 40.71934321450819994 9.645329295604003761 101.7466047745611206 -0.6691305971616567927 0 0.7431448337585914166 I I #
vertex $-1 $200 $282 #
straight-curve $-1 40.71934321450819994 28.78787644044767902 101.7466047745611206 0.6691305971616567927 0 -0.7431448337585914166 I I #
point $-1 205.4160979305463286 28.78787644044767902 -81.16767671727791367 #
point $-1 205.4160979305463286 9.645329295604003761 -81.16767671727791367 #
straight-curve $-1 58.93686999030913398 19.21660286802584139 449.3576409824382836 0 -1 0 I I #
point $-1 58.93686999030913398 28.78787644044767902 449.3576409824382836 #
point $-1 58.93686999030913398 9.645329295604003761 449.3576409824382836 #
straight-curve $-1 296.87323867646586 9.645329295604003761 1.180700640741122243 -0.7431448337585914166 0 -0.6691305971616567927 I I #
straight-curve $-1 296.87323867646586 28.78787644044767902 1.180700640741122243 -0.7431448337585914166 0 -0.6691305971616567927 I I #
edge $-1 $283 1 $283 0 $217 $-1 forward 7 unknown #
point $-1 118.5754519966867093 19.21660286802584139 10.39151713592673509 #
straight-curve $-1 0 80.85166521172936882 8.178066853678862103 0 0 -1 I I #
point $-1 0 0 0 #
straight-curve $-1 0 40.42583260586468441 0 0 1 0 I I #
point $-1 0 80.85166521172936882 0 #
straight-curve $-1 0 6.740027910956312596 1.505705725930332584 0 0 -1 I I #
point $-1 0 0 0 #
straight-curve $-1 0 3.370013955478156298 0 0 1 0 I I #
point $-1 0 6.740027910956312596 0 #
straight-curve $-1 -32.52027075561039737 28.78787644044767902 367.0092636244192477 -0.7431448337585914166 0 -0.6691305971616567927 I I #
point $-1 -123.9774115015299003 9.645329295604003761 284.6608862664002118 #
straight-curve $-1 -123.9774115015299003 19.21660286802584139 284.6608862664002118 0 1 0 I I #
point $-1 -123.9774115015299003 28.78787644044767902 284.6608862664002118 #
vertex $-1 $269 $284 #
point $-1 117.163176565766463 19.21660286802584139 10.46553137252366916 #
End-of-ACIS-data 