600 0 4 0           
93 GICL ACIS Healer - Source: /gicl/data5/repository/Drexel/SM99-DATA/part117.smdg.des.sat - 6 0 18 ACIS 6.0.3 Solaris 24 Sat Apr 13 20:44:41 2002 
1 9.999999999999999547e-07 1.000000000000000036e-10 
body $-1 $4 $-1 $-1 #
body $-1 $5 $-1 $-1 #
body $-1 $6 $-1 $-1 #
body $-1 $7 $-1 $-1 #
lump $-1 $-1 $8 $0 #
lump $-1 $-1 $9 $1 #
lump $-1 $-1 $10 $2 #
lump $-1 $-1 $11 $3 #
shell $-1 $-1 $-1 $12 $-1 $4 #
shell $-1 $-1 $-1 $13 $-1 $5 #
shell $-1 $-1 $-1 $14 $-1 $6 #
shell $-1 $-1 $-1 $15 $-1 $7 #
face $-1 $16 $17 $8 $-1 $18 forward single #
face $-1 $19 $20 $9 $-1 $21 forward single #
face $-1 $22 $23 $10 $-1 $24 forward single #
face $-1 $25 $26 $11 $-1 $27 reversed single #
face $-1 $28 $29 $8 $-1 $30 reversed single #
loop $-1 $-1 $31 $12 #
plane-surface $-1 52.08410901211584587 20.90564928550825385 8.839618239409066547 0 0 1 1 0 0 forward_v I I I I #
face $-1 $32 $33 $9 $-1 $34 forward single #
loop $-1 $-1 $35 $13 #
plane-surface $-1 5.839618239409062994 1.62301023714346826 4.419809119704533273 1 0 0 0 0 -1 forward_v I I I I #
face $-1 $36 $37 $10 $-1 $38 forward single #
loop $-1 $-1 $39 $14 #
plane-surface $-1 76.60546076565168505 98.1553700962382436 101.8515467186120986 1 0 0 0 -0.7880107618611372766 -0.6156614647604883306 forward_v I I I I #
face $-1 $40 $41 $11 $-1 $42 reversed single #
loop $-1 $43 $44 $15 #
cone-surface $-1 90.3868393949416884 39.45935101131041733 6.209608163992095697 0 -0.7880107618611372766 -0.6156614647604883306 0.5 0 0 1 I I 0 1 0.5 forward I I I I #
face $-1 $45 $46 $8 $-1 $47 reversed single #
loop $-1 $-1 $48 $16 #
plane-surface $-1 52.08410901211584587 20.90564928550825385 0 0 0 1 1 0 0 forward_v I I I I #
coedge $-1 $49 $50 $51 $52 forward $17 $-1 #
face $-1 $53 $54 $9 $-1 $55 forward single #
loop $-1 $-1 $56 $19 #
plane-surface $-1 7.339618239409062994 3.246020474286936519 4.419809119704533273 0 -1 0 0 0 -1 forward_v I I I I #
coedge $-1 $57 $58 $59 $60 reversed $20 $-1 #
face $-1 $61 $62 $10 $-1 $63 forward single #
loop $-1 $-1 $64 $22 #
plane-surface $-1 90.3868393949416884 16.06969324924637732 37.71918902832370435 0 0.7880107618611372766 0.6156614647604883306 1 0 0 forward_v I I I I #
coedge $-1 $65 $66 $67 $68 reversed $23 $-1 #
face $-1 $69 $70 $11 $-1 $71 forward single #
loop $-1 $72 $73 $25 #
cone-surface $-1 90.3868393949416884 38.49960695526762322 5.459773948602784088 0 -0.7880107618611372766 -0.6156614647604883306 0.25 0 0 1 I I -0.7071067811865474617 0.7071067811865474617 0.25 forward I I I I #
loop $-1 $-1 $74 $15 #
coedge $-1 $44 $44 $75 $76 reversed $26 $-1 #
face $-1 $77 $78 $8 $-1 $79 reversed single #
loop $-1 $-1 $80 $28 #
plane-surface $-1 52.08410901211584587 0 4.419809119704533273 0 1 0 0 0 1 forward_v I I I I #
coedge $-1 $81 $82 $83 $84 forward $29 $-1 #
coedge $-1 $85 $31 $86 $87 forward $17 $-1 #
coedge $-1 $31 $85 $88 $89 forward $17 $-1 #
coedge $-1 $90 $91 $31 $52 reversed $92 $-1 #
edge $-1 $93 -20.90564928550825385 $94 20.90564928550825385 $51 $95 forward 7 unknown #
face $-1 $96 $97 $9 $-1 $98 forward single #
loop $-1 $-1 $99 $32 #
plane-surface $-1 8.839618239409062994 1.62301023714346826 4.419809119704533273 -1 0 0 0 0 1 forward_v I I I I #
coedge $-1 $100 $101 $102 $103 reversed $33 $-1 #
coedge $-1 $104 $35 $105 $106 reversed $20 $-1 #
coedge $-1 $35 $104 $107 $108 reversed $20 $-1 #
coedge $-1 $101 $100 $35 $60 forward $33 $-1 #
edge $-1 $109 -4.419809119704533273 $110 4.419809119704533273 $59 $111 forward 7 unknown #
face $-1 $112 $113 $10 $-1 $114 reversed single #
loop $-1 $-1 $115 $36 #
plane-surface $-1 52.08410901211584587 20.90564928550825385 8.839618239409066547 0 0 1 1 0 0 forward_v I I I I #
coedge $-1 $116 $117 $115 $118 reversed $37 $-1 #
coedge $-1 $66 $39 $117 $119 forward $23 $-1 #
coedge $-1 $39 $65 $120 $121 reversed $23 $-1 #
coedge $-1 $122 $115 $39 $68 forward $62 $-1 #
edge $-1 $123 -20.89762350811388814 $124 -17.71921111985674457 $67 $125 forward 7 unknown #
face $-1 $126 $127 $11 $-1 $128 forward single #
loop $-1 $-1 $129 $40 #
plane-surface $-1 76.60546076565168505 98.1553700962382436 101.8515467186120986 1 0 0 0 -0.7880107618611372766 -0.6156614647604883306 forward_v I I I I #
loop $-1 $-1 $130 $25 #
coedge $-1 $73 $73 $74 $131 forward $41 $-1 #
coedge $-1 $74 $74 $73 $131 reversed $43 $-1 #
coedge $-1 $75 $75 $44 $76 forward $127 $-1 #
edge $-1 $132 -2.449230821364508103e-15 $132 6.283185307179583567 $75 $133 forward 7 unknown #
face $-1 $134 $135 $8 $-1 $136 reversed single #
loop $-1 $-1 $137 $45 #
plane-surface $-1 0 20.90564928550825385 4.419809119704533273 1 0 0 0 0 -1 forward_v I I I I #
coedge $-1 $138 $88 $139 $140 forward $46 $-1 #
coedge $-1 $141 $48 $138 $142 forward $29 $-1 #
coedge $-1 $48 $141 $143 $144 forward $29 $-1 #
coedge $-1 $91 $90 $48 $84 reversed $92 $-1 #
edge $-1 $145 -20.90564928550825385 $146 20.90564928550825385 $83 $147 forward 7 unknown #
coedge $-1 $50 $49 $148 $149 forward $17 $-1 #
coedge $-1 $150 $151 $49 $87 reversed $135 $-1 #
edge $-1 $94 -52.08410901211584587 $152 52.08410901211584587 $86 $153 forward 7 unknown #
coedge $-1 $80 $154 $50 $89 reversed $46 $-1 #
edge $-1 $155 -52.08410901211584587 $93 52.08410901211584587 $88 $156 forward 7 unknown #
coedge $-1 $83 $51 $154 $157 forward $92 $-1 #
coedge $-1 $51 $83 $150 $158 reversed $92 $-1 #
loop $-1 $-1 $90 $134 #
vertex $-1 $52 $159 #
vertex $-1 $52 $160 #
straight-curve $-1 104.1682180242316917 20.90564928550825385 8.839618239409066547 0 1 0 I I #
face $-1 $161 $162 $9 $-1 $163 reversed single #
loop $-1 $-1 $105 $53 #
plane-surface $-1 52.08410901211584587 20.90564928550825385 8.839618239409066547 0 0 1 1 0 0 forward_v I I I I #
coedge $-1 $164 $165 $166 $167 reversed $54 $-1 #
coedge $-1 $59 $56 $168 $169 reversed $33 $-1 #
coedge $-1 $56 $59 $170 $171 reversed $33 $-1 #
coedge $-1 $165 $164 $56 $103 forward $54 $-1 #
edge $-1 $172 -4.419809119704533273 $173 4.419809119704533273 $102 $174 forward 7 unknown #
coedge $-1 $58 $57 $175 $176 reversed $20 $-1 #
coedge $-1 $168 $177 $57 $106 forward $97 $-1 #
edge $-1 $178 -11.26432976132586106 $109 -8.018309287038924538 $105 $179 forward 7 unknown #
coedge $-1 $180 $170 $58 $108 forward $181 $-1 #
edge $-1 $110 8.018309287038924538 $182 11.26432976132586106 $107 $183 forward 7 unknown #
vertex $-1 $106 $184 #
vertex $-1 $108 $185 #
straight-curve $-1 5.839618239409062994 3.246020474286936519 4.419809119704533273 0 0 -1 I I #
face $-1 $186 $187 $10 $-1 $188 forward single #
loop $-1 $-1 $120 $61 #
plane-surface $-1 52.08410901211584587 41.81129857101650771 4.419809119704533273 0 -1 0 0 0 -1 forward_v I I I I #
coedge $-1 $67 $189 $64 $118 forward $62 $-1 #
coedge $-1 $190 $64 $191 $192 reversed $37 $-1 #
coedge $-1 $64 $190 $65 $119 reversed $37 $-1 #
edge $-1 $193 -32.93274382070292461 $123 -5.369986562122917917 $115 $194 forward 7 unknown #
edge $-1 $123 36.64870099071537624 $195 41.8112985710165006 $65 $196 forward 7 unknown #
coedge $-1 $197 $198 $66 $121 forward $113 $-1 #
edge $-1 $124 44.29605967974924852 $195 48.36424213218479906 $120 $199 forward 7 unknown #
coedge $-1 $200 $67 $198 $201 forward $62 $-1 #
vertex $-1 $118 $202 #
vertex $-1 $201 $203 #
straight-curve $-1 76.60546076565168505 59.53050969087325228 8.83961823940906477 0 1 0 I I #
face $-1 $204 $205 $11 $-1 $206 forward single #
loop $-1 $207 $75 $69 #
plane-surface $-1 90.3868393949416884 16.06969324924637732 37.71918902832370435 0 0.7880107618611372766 0.6156614647604883306 1 0 0 forward_v I I I I #
coedge $-1 $208 $209 $210 $211 reversed $70 $-1 #
coedge $-1 $130 $130 $-1 $212 forward $72 $-1 #
edge $-1 $213 0 $213 6.283185307179586232 $73 $214 forward 7 unknown #
vertex $-1 $76 $215 #
ellipse-curve $-1 90.3868393949416884 40.22209237688793593 6.805527013191292163 0 -0.7880107618611372766 -0.6156614647604883306 0.5 0 0 1 I I #
face $-1 $-1 $92 $8 $-1 $216 reversed single #
loop $-1 $-1 $150 $77 #
plane-surface $-1 52.08410901211584587 41.81129857101650771 4.419809119704533273 0 -1 0 0 0 -1 forward_v I I I I #
coedge $-1 $217 $148 $151 $218 forward $78 $-1 #
coedge $-1 $154 $80 $81 $142 reversed $46 $-1 #
coedge $-1 $148 $217 $80 $140 reversed $78 $-1 #
edge $-1 $155 -4.419809119704533273 $219 4.419809119704533273 $139 $220 forward 7 unknown #
coedge $-1 $82 $81 $217 $221 forward $29 $-1 #
edge $-1 $146 -52.08410901211584587 $219 52.08410901211584587 $138 $222 forward 7 unknown #
coedge $-1 $151 $150 $82 $144 reversed $135 $-1 #
edge $-1 $223 -52.08410901211584587 $145 52.08410901211584587 $143 $224 forward 7 unknown #
vertex $-1 $84 $225 #
vertex $-1 $157 $226 #
straight-curve $-1 104.1682180242316917 20.90564928550825385 0 0 -1 0 I I #
coedge $-1 $137 $139 $85 $149 reversed $78 $-1 #
edge $-1 $152 -20.90564928550825385 $155 20.90564928550825385 $148 $227 forward 7 unknown #
coedge $-1 $143 $86 $91 $158 forward $135 $-1 #
coedge $-1 $86 $143 $137 $218 reversed $135 $-1 #
vertex $-1 $87 $228 #
straight-curve $-1 52.08410901211584587 41.81129857101650771 8.839618239409066547 -1 0 0 I I #
coedge $-1 $88 $138 $90 $157 reversed $46 $-1 #
vertex $-1 $149 $229 #
straight-curve $-1 52.08410901211584587 0 8.839618239409066547 1 0 0 I I #
edge $-1 $93 -4.419809119704533273 $146 4.419809119704533273 $90 $230 forward 7 unknown #
edge $-1 $94 -4.419809119704533273 $145 4.419809119704533273 $91 $231 forward 7 unknown #
point $-1 104.1682180242316917 0 8.839618239409066547 #
point $-1 104.1682180242316917 41.81129857101650771 8.839618239409066547 #
face $-1 $232 $181 $9 $-1 $233 reversed single #
loop $-1 $-1 $166 $96 #
plane-surface $-1 52.08410901211584587 0 4.419809119704533273 0 1 0 0 0 1 forward_v I I I I #
coedge $-1 $102 $99 $234 $235 reversed $54 $-1 #
coedge $-1 $99 $102 $236 $237 reversed $54 $-1 #
coedge $-1 $238 $239 $99 $167 forward $162 $-1 #
edge $-1 $240 -4.419809119704533273 $241 4.419809119704533273 $166 $242 forward 7 unknown #
coedge $-1 $234 $105 $100 $169 forward $97 $-1 #
edge $-1 $109 -23.87224538635339144 $172 -20.87224538635339144 $168 $243 forward 7 unknown #
coedge $-1 $107 $236 $101 $171 forward $181 $-1 #
edge $-1 $173 20.87224538635339144 $110 23.87224538635339144 $170 $244 forward 7 unknown #
vertex $-1 $169 $245 #
vertex $-1 $171 $246 #
straight-curve $-1 8.839618239409062994 3.246020474286936519 4.419809119704533273 0 0 -1 I I #
coedge $-1 $247 $248 $104 $176 forward $249 $-1 #
edge $-1 $182 -4.419809119704533273 $178 4.419809119704533273 $175 $250 forward 7 unknown #
coedge $-1 $105 $251 $247 $252 forward $97 $-1 #
vertex $-1 $176 $253 #
straight-curve $-1 5.839618239409062994 11.26432976132586106 8.839618239409066547 0 1 0 I I #
coedge $-1 $254 $107 $248 $255 forward $181 $-1 #
loop $-1 $-1 $107 $161 #
vertex $-1 $255 $256 #
straight-curve $-1 5.839618239409062994 11.26432976132586106 0 0 -1 0 I I #
point $-1 5.839618239409062994 3.246020474286936519 8.839618239409066547 #
point $-1 5.839618239409062994 3.246020474286936519 0 #
face $-1 $257 $258 $10 $-1 $259 forward single #
loop $-1 $-1 $260 $112 #
plane-surface $-1 5.839618239409062994 1.62301023714346826 4.419809119704533273 1 0 0 0 0 -1 forward_v I I I I #
coedge $-1 $115 $261 $262 $263 forward $62 $-1 #
coedge $-1 $117 $116 $197 $264 reversed $37 $-1 #
coedge $-1 $262 $265 $116 $192 forward $266 $-1 #
edge $-1 $267 -27.20250781696812226 $193 -22.03991023666699789 $191 $268 forward 7 unknown #
vertex $-1 $192 $269 #
straight-curve $-1 71.23547420352876713 38.63288618275936415 8.839618239409068323 -1 0 0 I I #
vertex $-1 $264 $270 #
straight-curve $-1 76.60546076565168505 16.06969324924637732 37.71918902832370435 0 0.6156614647604883306 -0.7880107618611372766 I I #
coedge $-1 $271 $120 $190 $264 forward $113 $-1 #
coedge $-1 $120 $272 $122 $201 reversed $113 $-1 #
straight-curve $-1 76.60546076565168505 41.81129857101650771 53.13567791915831151 0 0 -1 I I #
coedge $-1 $273 $122 $274 $275 forward $62 $-1 #
edge $-1 $124 -24.52135175353583918 $276 52.08410901211584587 $198 $277 forward 7 unknown #
point $-1 76.60546076565168505 38.63288618275936415 8.83961823940906477 #
point $-1 76.60546076565168505 41.81129857101650771 8.839618239409066547 #
face $-1 $278 $279 $11 $-1 $280 reversed single #
loop $-1 $-1 $281 $126 #
plane-surface $-1 52.08410901211584587 20.90564928550825385 8.839618239409066547 0 0 1 1 0 0 forward_v I I I I #
loop $-1 $-1 $282 $69 #
coedge $-1 $209 $129 $283 $284 forward $70 $-1 #
coedge $-1 $129 $208 $285 $286 reversed $70 $-1 #
coedge $-1 $287 $281 $129 $211 forward $205 $-1 #
edge $-1 $288 -20.89762350811388814 $289 -17.71921111985674457 $210 $290 forward 7 unknown #
edge $-1 $291 1 $291 0 $130 $-1 forward 7 unknown #
vertex $-1 $131 $292 #
ellipse-curve $-1 90.3868393949416884 38.69660964573290585 5.613689314792906337 0 0.7880107618611372766 0.6156614647604883306 0.5 0 0 1 I I #
point $-1 90.8868393949416884 40.22209237688792882 6.805527013191285057 #
plane-surface $-1 104.1682180242316917 20.90564928550825385 4.419809119704533273 -1 0 0 0 0 1 forward_v I I I I #
coedge $-1 $139 $137 $141 $221 reversed $78 $-1 #
edge $-1 $152 -4.419809119704533273 $223 4.419809119704533273 $151 $293 forward 7 unknown #
vertex $-1 $221 $294 #
straight-curve $-1 0 0 4.419809119704533273 0 0 -1 I I #
edge $-1 $219 -20.90564928550825385 $223 20.90564928550825385 $217 $295 forward 7 unknown #
straight-curve $-1 52.08410901211584587 0 0 -1 0 0 I I #
vertex $-1 $144 $296 #
straight-curve $-1 52.08410901211584587 41.81129857101650771 0 1 0 0 I I #
point $-1 104.1682180242316917 41.81129857101650771 0 #
point $-1 104.1682180242316917 0 0 #
straight-curve $-1 0 20.90564928550825385 8.839618239409066547 0 -1 0 I I #
point $-1 0 41.81129857101650771 8.839618239409066547 #
point $-1 0 0 8.839618239409066547 #
straight-curve $-1 104.1682180242316917 0 4.419809119704533273 0 0 -1 I I #
straight-curve $-1 104.1682180242316917 41.81129857101650771 4.419809119704533273 0 0 -1 I I #
face $-1 $297 $249 $9 $-1 $163 reversed single #
plane-surface $-1 52.08410901211584587 20.90564928550825385 0 0 0 1 1 0 0 forward_v I I I I #
coedge $-1 $298 $168 $164 $235 forward $97 $-1 #
edge $-1 $172 8.018309287038924538 $240 11.26432976132586106 $234 $299 forward 7 unknown #
coedge $-1 $170 $300 $165 $237 forward $181 $-1 #
edge $-1 $241 -11.26432976132586106 $173 -8.018309287038924538 $236 $301 forward 7 unknown #
coedge $-1 $302 $166 $300 $303 reversed $162 $-1 #
coedge $-1 $166 $302 $298 $304 reversed $162 $-1 #
vertex $-1 $304 $305 #
vertex $-1 $167 $306 #
straight-curve $-1 8.839618239409062994 0 4.419809119704533273 0 0 -1 I I #
straight-curve $-1 29.71186362576245443 3.246020474286936519 8.839618239409066547 1 0 0 I I #
straight-curve $-1 29.71186362576245443 3.246020474286936519 0 -1 0 0 I I #
point $-1 8.839618239409062994 3.246020474286936519 8.839618239409066547 #
point $-1 8.839618239409062994 3.246020474286936519 0 #
coedge $-1 $307 $175 $177 $252 reversed $249 $-1 #
coedge $-1 $175 $307 $180 $255 reversed $249 $-1 #
loop $-1 $-1 $175 $232 #
straight-curve $-1 5.839618239409062994 0 4.419809119704533273 0 0 1 I I #
coedge $-1 $177 $308 $309 $310 forward $97 $-1 #
edge $-1 $311 -52.08410901211584587 $178 -46.24449077270678288 $247 $312 forward 7 unknown #
point $-1 5.839618239409062994 0 8.839618239409066547 #
coedge $-1 $313 $180 $314 $315 forward $181 $-1 #
edge $-1 $182 46.24449077270678288 $316 52.08410901211584587 $248 $317 forward 7 unknown #
point $-1 5.839618239409062994 0 0 #
face $-1 $318 $319 $10 $-1 $320 forward single #
loop $-1 $-1 $321 $186 #
plane-surface $-1 7.339618239409062994 3.246020474286936519 4.419809119704533273 0 -1 0 0 0 -1 forward_v I I I I #
coedge $-1 $322 $323 $324 $325 reversed $187 $-1 #
coedge $-1 $189 $326 $327 $328 forward $62 $-1 #
coedge $-1 $329 $191 $189 $263 reversed $266 $-1 #
edge $-1 $330 -20.90564928550825385 $193 17.72723689725111029 $262 $331 forward 7 unknown #
edge $-1 $195 5.369986562122917917 $267 32.93274382070292461 $197 $332 forward 7 unknown #
coedge $-1 $191 $333 $271 $334 reversed $266 $-1 #
loop $-1 $-1 $191 $335 #
vertex $-1 $334 $336 #
straight-curve $-1 104.1682180242316917 25.06376276326328068 26.20730469635610405 0 -0.6156614647604883306 0.7880107618611372766 I I #
point $-1 104.1682180242316917 38.63288618275936415 8.83961823940906477 #
point $-1 76.60546076565168505 41.81129857101650771 4.771435786973514226 #
coedge $-1 $337 $197 $265 $334 forward $113 $-1 #
coedge $-1 $198 $337 $338 $339 reversed $113 $-1 #
coedge $-1 $340 $200 $341 $342 forward $62 $-1 #
coedge $-1 $338 $343 $200 $275 reversed $344 $-1 #
edge $-1 $276 -20.90564928550825385 $345 20.90564928550825385 $274 $346 forward 7 unknown #
vertex $-1 $201 $347 #
straight-curve $-1 52.08410901211584587 41.81129857101650771 8.839618239409066547 -1 0 0 I I #
face $-1 $348 $349 $11 $-1 $350 forward single #
loop $-1 $-1 $285 $204 #
plane-surface $-1 52.08410901211584587 41.81129857101650771 4.419809119704533273 0 -1 0 0 0 -1 forward_v I I I I #
coedge $-1 $210 $351 $282 $352 forward $205 $-1 #
coedge $-1 $353 $283 $281 $352 reversed $207 $-1 #
coedge $-1 $282 $354 $208 $284 reversed $207 $-1 #
edge $-1 $288 36.64870099071537624 $355 41.8112985710165006 $208 $356 forward 7 unknown #
coedge $-1 $357 $358 $209 $286 forward $279 $-1 #
edge $-1 $289 44.29605967974924852 $355 48.36424213218479906 $285 $359 forward 7 unknown #
coedge $-1 $360 $210 $358 $361 forward $205 $-1 #
vertex $-1 $352 $362 #
vertex $-1 $361 $363 #
straight-curve $-1 76.60546076565168505 59.53050969087325228 8.83961823940906477 0 1 0 I I #
vertex $-1 $212 $364 #
point $-1 90.8868393949416884 38.69660964573290585 5.613689314792906337 #
straight-curve $-1 0 41.81129857101650771 4.419809119704533273 0 0 -1 I I #
point $-1 0 0 0 #
straight-curve $-1 0 20.90564928550825385 0 0 1 0 I I #
point $-1 0 41.81129857101650771 0 #
face $-1 $365 $366 $9 $-1 $367 reversed single #
coedge $-1 $368 $234 $239 $304 forward $97 $-1 #
straight-curve $-1 8.839618239409062994 11.26432976132586106 8.839618239409066547 0 -1 0 I I #
coedge $-1 $236 $369 $238 $303 forward $181 $-1 #
straight-curve $-1 8.839618239409062994 11.26432976132586106 0 0 1 0 I I #
coedge $-1 $239 $238 $370 $371 reversed $162 $-1 #
edge $-1 $372 -52.08410901211584587 $241 43.24449077270678288 $238 $317 forward 7 unknown #
edge $-1 $240 -43.24449077270678288 $373 52.08410901211584587 $239 $312 forward 7 unknown #
point $-1 8.839618239409062994 0 8.839618239409066547 #
point $-1 8.839618239409062994 0 0 #
coedge $-1 $248 $247 $374 $375 forward $249 $-1 #
coedge $-1 $251 $368 $376 $377 forward $97 $-1 #
coedge $-1 $378 $374 $251 $310 reversed $366 $-1 #
edge $-1 $379 -20.90564928550825385 $311 20.90564928550825385 $309 $380 forward 7 unknown #
vertex $-1 $310 $381 #
straight-curve $-1 52.08410901211584587 0 8.839618239409066547 1 0 0 I I #
coedge $-1 $369 $254 $382 $383 forward $181 $-1 #
coedge $-1 $374 $378 $254 $315 reversed $366 $-1 #
edge $-1 $316 -20.90564928550825385 $384 20.90564928550825385 $314 $385 forward 7 unknown #
vertex $-1 $315 $386 #
straight-curve $-1 52.08410901211584587 0 0 -1 0 0 I I #
face $-1 $387 $388 $10 $-1 $389 reversed single #
loop $-1 $-1 $390 $257 #
plane-surface $-1 8.839618239409062994 1.62301023714346826 4.419809119704533273 -1 0 0 0 0 1 forward_v I I I I #
coedge $-1 $391 $392 $393 $394 reversed $258 $-1 #
coedge $-1 $395 $260 $340 $396 reversed $187 $-1 #
coedge $-1 $260 $395 $397 $398 reversed $187 $-1 #
coedge $-1 $392 $391 $260 $325 forward $258 $-1 #
edge $-1 $399 -4.419809119704533273 $400 4.419809119704533273 $324 $401 forward 7 unknown #
coedge $-1 $261 $402 $403 $404 forward $62 $-1 #
coedge $-1 $405 $406 $261 $328 reversed $388 $-1 #
edge $-1 $407 -43.24449077270678288 $330 52.08410901211584587 $327 $408 forward 7 unknown #
coedge $-1 $333 $262 $406 $409 forward $266 $-1 #
vertex $-1 $263 $410 #
straight-curve $-1 104.1682180242316917 20.90564928550825385 8.839618239409066547 0 1 0 I I #
straight-curve $-1 71.23547420352876713 41.81129857101650771 4.771435786973514226 1 0 0 I I #
coedge $-1 $265 $329 $411 $412 reversed $266 $-1 #
edge $-1 $267 -0.3516266672689809525 $413 4.419809119704533273 $265 $414 forward 7 unknown #
face $-1 $-1 $266 $10 $-1 $415 reversed single #
point $-1 104.1682180242316917 41.81129857101650771 4.771435786973514226 #
coedge $-1 $272 $271 $416 $417 reversed $113 $-1 #
coedge $-1 $418 $274 $272 $339 forward $344 $-1 #
edge $-1 $276 -4.419809119704533273 $419 4.419809119704533273 $272 $420 forward 7 unknown #
coedge $-1 $402 $273 $322 $396 forward $62 $-1 #
coedge $-1 $421 $422 $273 $342 reversed $423 $-1 #
edge $-1 $345 -52.08410901211584587 $424 -46.24449077270678288 $341 $408 forward 7 unknown #
coedge $-1 $274 $418 $421 $425 reversed $344 $-1 #
loop $-1 $-1 $338 $426 #
vertex $-1 $275 $427 #
straight-curve $-1 0 20.90564928550825385 8.839618239409066547 0 -1 0 I I #
point $-1 0 41.81129857101650771 8.839618239409066547 #
face $-1 $428 $429 $11 $-1 $430 forward single #
loop $-1 $-1 $431 $278 #
plane-surface $-1 5.839618239409062994 1.62301023714346826 4.419809119704533273 1 0 0 0 0 -1 forward_v I I I I #
coedge $-1 $281 $432 $433 $434 forward $205 $-1 #
edge $-1 $435 -32.93274382070292461 $288 -5.369986562122917917 $281 $436 forward 7 unknown #
coedge $-1 $354 $282 $437 $438 reversed $207 $-1 #
coedge $-1 $283 $353 $357 $439 reversed $207 $-1 #
vertex $-1 $439 $440 #
straight-curve $-1 76.60546076565168505 16.06969324924637732 37.71918902832370435 0 0.6156614647604883306 -0.7880107618611372766 I I #
coedge $-1 $441 $285 $354 $439 forward $279 $-1 #
coedge $-1 $285 $442 $287 $361 reversed $279 $-1 #
straight-curve $-1 76.60546076565168505 41.81129857101650771 53.13567791915831151 0 0 -1 I I #
coedge $-1 $443 $287 $444 $445 forward $205 $-1 #
edge $-1 $289 -24.52135175353583918 $446 52.08410901211584587 $358 $447 forward 7 unknown #
point $-1 76.60546076565168505 38.63288618275936415 8.83961823940906477 #
point $-1 76.60546076565168505 41.81129857101650771 8.839618239409066547 #
point $-1 90.3868393949416884 38.30260426480234059 5.305858582412661839 #
face $-1 $448 $449 $9 $-1 $450 reversed single #
loop $-1 $-1 $378 $297 #
plane-surface $-1 0 20.90564928550825385 4.419809119704533273 1 0 0 0 0 -1 forward_v I I I I #
coedge $-1 $308 $298 $451 $452 forward $97 $-1 #
coedge $-1 $300 $313 $453 $454 forward $181 $-1 #
coedge $-1 $453 $451 $302 $371 forward $455 $-1 #
edge $-1 $373 -4.419809119704533273 $372 4.419809119704533273 $370 $456 forward 7 unknown #
vertex $-1 $371 $457 #
vertex $-1 $452 $458 #
coedge $-1 $309 $314 $307 $375 reversed $366 $-1 #
edge $-1 $311 -4.419809119704533273 $316 4.419809119704533273 $374 $459 forward 7 unknown #
coedge $-1 $460 $461 $308 $377 reversed $449 $-1 #
edge $-1 $462 -52.08410901211584587 $379 52.08410901211584587 $376 $463 forward 7 unknown #
coedge $-1 $314 $309 $461 $464 forward $366 $-1 #
vertex $-1 $377 $465 #
straight-curve $-1 0 20.90564928550825385 8.839618239409066547 0 -1 0 I I #
point $-1 0 0 8.839618239409066547 #
coedge $-1 $461 $460 $313 $383 reversed $449 $-1 #
edge $-1 $384 -52.08410901211584587 $466 52.08410901211584587 $382 $467 forward 7 unknown #
vertex $-1 $383 $468 #
straight-curve $-1 0 20.90564928550825385 0 0 1 0 I I #
point $-1 0 0 0 #
face $-1 $469 $470 $10 $-1 $471 reversed single #
loop $-1 $-1 $405 $318 #
plane-surface $-1 52.08410901211584587 0 4.419809119704533273 0 1 0 0 0 1 forward_v I I I I #
coedge $-1 $403 $472 $405 $473 reversed $319 $-1 #
coedge $-1 $324 $321 $402 $474 reversed $258 $-1 #
coedge $-1 $321 $324 $475 $476 reversed $258 $-1 #
coedge $-1 $472 $403 $321 $394 forward $319 $-1 #
edge $-1 $477 -4.419809119704533273 $478 4.419809119704533273 $393 $479 forward 7 unknown #
coedge $-1 $323 $322 $422 $480 reversed $187 $-1 #
edge $-1 $424 -11.26432976132586106 $399 -8.018309287038924538 $340 $481 forward 7 unknown #
coedge $-1 $482 $475 $323 $398 forward $470 $-1 #
edge $-1 $400 8.018309287038924538 $483 11.26432976132586106 $397 $484 forward 7 unknown #
vertex $-1 $396 $485 #
vertex $-1 $398 $486 #
straight-curve $-1 5.839618239409062994 3.246020474286936519 4.419809119704533273 0 0 -1 I I #
coedge $-1 $326 $340 $391 $474 forward $62 $-1 #
coedge $-1 $393 $390 $326 $404 reversed $319 $-1 #
edge $-1 $477 8.018309287038924538 $407 11.26432976132586106 $326 $487 forward 7 unknown #
coedge $-1 $488 $327 $390 $473 forward $388 $-1 #
coedge $-1 $327 $488 $329 $409 reversed $388 $-1 #
vertex $-1 $328 $489 #
straight-curve $-1 52.08410901211584587 0 8.839618239409066547 1 0 0 I I #
edge $-1 $330 -4.419809119704533273 $490 4.419809119704533273 $329 $491 forward 7 unknown #
point $-1 104.1682180242316917 0 8.839618239409066547 #
coedge $-1 $492 $416 $333 $412 forward $470 $-1 #
edge $-1 $413 -20.90564928550825385 $490 20.90564928550825385 $333 $493 forward 7 unknown #
vertex $-1 $412 $494 #
straight-curve $-1 104.1682180242316917 41.81129857101650771 4.419809119704533273 0 0 -1 I I #
plane-surface $-1 104.1682180242316917 20.90564928550825385 4.419809119704533273 -1 0 0 0 0 1 forward_v I I I I #
coedge $-1 $411 $495 $337 $417 forward $470 $-1 #
edge $-1 $419 -52.08410901211584587 $413 52.08410901211584587 $337 $496 forward 7 unknown #
coedge $-1 $343 $338 $495 $497 reversed $344 $-1 #
vertex $-1 $417 $498 #
straight-curve $-1 0 41.81129857101650771 4.419809119704533273 0 0 -1 I I #
coedge $-1 $499 $341 $343 $425 forward $423 $-1 #
coedge $-1 $341 $499 $395 $480 forward $423 $-1 #
loop $-1 $-1 $422 $469 #
vertex $-1 $480 $500 #
edge $-1 $345 -4.419809119704533273 $501 4.419809119704533273 $343 $502 forward 7 unknown #
face $-1 $335 $344 $10 $-1 $503 reversed single #
point $-1 0 0 8.839618239409066547 #
face $-1 $504 $505 $11 $-1 $506 forward single #
loop $-1 $-1 $507 $348 #
plane-surface $-1 7.339618239409062994 3.246020474286936519 4.419809119704533273 0 -1 0 0 0 -1 forward_v I I I I #
coedge $-1 $508 $509 $510 $511 reversed $349 $-1 #
coedge $-1 $351 $512 $513 $514 forward $205 $-1 #
coedge $-1 $515 $437 $351 $434 reversed $516 $-1 #
edge $-1 $517 -20.90564928550825385 $435 17.72723689725111029 $433 $518 forward 7 unknown #
vertex $-1 $438 $519 #
straight-curve $-1 71.23547420352876713 38.63288618275936415 8.839618239409068323 -1 0 0 I I #
coedge $-1 $433 $520 $353 $438 forward $516 $-1 #
edge $-1 $521 -27.20250781696812226 $435 -22.03991023666699789 $437 $522 forward 7 unknown #
edge $-1 $355 5.369986562122917917 $521 32.93274382070292461 $357 $523 forward 7 unknown #
point $-1 76.60546076565168505 41.81129857101650771 4.771435786973514226 #
coedge $-1 $524 $357 $520 $525 forward $279 $-1 #
coedge $-1 $358 $524 $526 $527 reversed $279 $-1 #
coedge $-1 $528 $360 $529 $530 forward $205 $-1 #
coedge $-1 $526 $531 $360 $445 reversed $532 $-1 #
edge $-1 $446 -20.90564928550825385 $533 20.90564928550825385 $444 $534 forward 7 unknown #
vertex $-1 $361 $535 #
straight-curve $-1 52.08410901211584587 41.81129857101650771 8.839618239409066547 -1 0 0 I I #
face $-1 $-1 $455 $9 $-1 $536 reversed single #
loop $-1 $-1 $460 $365 #
plane-surface $-1 52.08410901211584587 41.81129857101650771 4.419809119704533273 0 -1 0 0 0 -1 forward_v I I I I #
coedge $-1 $370 $537 $368 $452 reversed $455 $-1 #
edge $-1 $373 -20.90564928550825385 $462 20.90564928550825385 $451 $538 forward 7 unknown #
coedge $-1 $537 $370 $369 $454 reversed $455 $-1 #
edge $-1 $466 -20.90564928550825385 $372 20.90564928550825385 $453 $539 forward 7 unknown #
loop $-1 $-1 $370 $448 #
straight-curve $-1 104.1682180242316917 0 4.419809119704533273 0 0 -1 I I #
point $-1 104.1682180242316917 0 0 #
point $-1 104.1682180242316917 0 8.839618239409066547 #
straight-curve $-1 0 0 4.419809119704533273 0 0 -1 I I #
coedge $-1 $382 $376 $537 $540 forward $449 $-1 #
coedge $-1 $376 $382 $378 $464 reversed $449 $-1 #
vertex $-1 $452 $541 #
straight-curve $-1 52.08410901211584587 41.81129857101650771 8.839618239409066547 -1 0 0 I I #
edge $-1 $379 -4.419809119704533273 $384 4.419809119704533273 $461 $542 forward 7 unknown #
point $-1 0 41.81129857101650771 8.839618239409066547 #
vertex $-1 $454 $543 #
straight-curve $-1 52.08410901211584587 41.81129857101650771 0 1 0 0 I I #
point $-1 0 41.81129857101650771 0 #
face $-1 $426 $423 $10 $-1 $389 reversed single #
loop $-1 $-1 $397 $387 #
plane-surface $-1 52.08410901211584587 20.90564928550825385 0 0 0 1 1 0 0 forward_v I I I I #
coedge $-1 $390 $393 $544 $545 reversed $319 $-1 #
edge $-1 $407 -4.419809119704533273 $546 4.419809119704533273 $405 $547 forward 7 unknown #
edge $-1 $399 -23.87224538635339144 $477 -20.87224538635339144 $402 $548 forward 7 unknown #
coedge $-1 $397 $544 $392 $476 forward $470 $-1 #
edge $-1 $478 20.87224538635339144 $400 23.87224538635339144 $475 $549 forward 7 unknown #
vertex $-1 $474 $550 #
vertex $-1 $476 $551 #
straight-curve $-1 8.839618239409062994 3.246020474286936519 4.419809119704533273 0 0 -1 I I #
edge $-1 $483 -4.419809119704533273 $424 4.419809119704533273 $422 $552 forward 7 unknown #
straight-curve $-1 5.839618239409062994 11.26432976132586106 8.839618239409066547 0 1 0 I I #
coedge $-1 $495 $397 $499 $553 forward $470 $-1 #
vertex $-1 $553 $554 #
straight-curve $-1 5.839618239409062994 11.26432976132586106 0 0 -1 0 I I #
point $-1 5.839618239409062994 3.246020474286936519 8.839618239409066547 #
point $-1 5.839618239409062994 3.246020474286936519 0 #
straight-curve $-1 8.839618239409062994 11.26432976132586106 8.839618239409066547 0 -1 0 I I #
coedge $-1 $406 $405 $492 $555 reversed $388 $-1 #
point $-1 8.839618239409062994 0 8.839618239409066547 #
vertex $-1 $409 $556 #
straight-curve $-1 104.1682180242316917 0 4.419809119704533273 0 0 -1 I I #
coedge $-1 $544 $411 $488 $555 forward $470 $-1 #
straight-curve $-1 104.1682180242316917 20.90564928550825385 0 0 -1 0 I I #
point $-1 104.1682180242316917 41.81129857101650771 0 #
coedge $-1 $416 $482 $418 $497 forward $470 $-1 #
straight-curve $-1 52.08410901211584587 41.81129857101650771 0 1 0 0 I I #
edge $-1 $501 -20.90564928550825385 $419 20.90564928550825385 $418 $557 forward 7 unknown #
point $-1 0 41.81129857101650771 0 #
coedge $-1 $422 $421 $482 $553 reversed $423 $-1 #
point $-1 5.839618239409062994 0 8.839618239409066547 #
vertex $-1 $497 $558 #
straight-curve $-1 0 0 4.419809119704533273 0 0 -1 I I #
plane-surface $-1 0 20.90564928550825385 4.419809119704533273 1 0 0 0 0 -1 forward_v I I I I #
face $-1 $559 $560 $11 $-1 $561 reversed single #
loop $-1 $-1 $562 $428 #
plane-surface $-1 8.839618239409062994 1.62301023714346826 4.419809119704533273 -1 0 0 0 0 1 forward_v I I I I #
coedge $-1 $563 $564 $565 $566 reversed $429 $-1 #
coedge $-1 $567 $431 $528 $568 reversed $349 $-1 #
coedge $-1 $431 $567 $569 $570 reversed $349 $-1 #
coedge $-1 $564 $563 $431 $511 forward $429 $-1 #
edge $-1 $571 -4.419809119704533273 $572 4.419809119704533273 $510 $573 forward 7 unknown #
coedge $-1 $432 $574 $575 $576 forward $205 $-1 #
coedge $-1 $577 $578 $432 $514 reversed $560 $-1 #
edge $-1 $579 -43.24449077270678288 $517 52.08410901211584587 $513 $580 forward 7 unknown #
coedge $-1 $581 $433 $578 $582 forward $516 $-1 #
loop $-1 $-1 $437 $583 #
vertex $-1 $434 $584 #
straight-curve $-1 104.1682180242316917 20.90564928550825385 8.839618239409066547 0 1 0 I I #
point $-1 104.1682180242316917 38.63288618275936415 8.83961823940906477 #
coedge $-1 $437 $581 $441 $525 reversed $516 $-1 #
vertex $-1 $525 $585 #
straight-curve $-1 104.1682180242316917 25.06376276326328068 26.20730469635610405 0 -0.6156614647604883306 0.7880107618611372766 I I #
straight-curve $-1 71.23547420352876713 41.81129857101650771 4.771435786973514226 1 0 0 I I #
coedge $-1 $442 $441 $586 $587 reversed $279 $-1 #
edge $-1 $521 -0.3516266672689809525 $588 4.419809119704533273 $520 $589 forward 7 unknown #
coedge $-1 $590 $444 $442 $527 forward $532 $-1 #
edge $-1 $446 -4.419809119704533273 $591 4.419809119704533273 $442 $592 forward 7 unknown #
coedge $-1 $574 $443 $508 $568 forward $205 $-1 #
coedge $-1 $593 $594 $443 $530 reversed $595 $-1 #
edge $-1 $533 -52.08410901211584587 $596 -46.24449077270678288 $529 $580 forward 7 unknown #
coedge $-1 $444 $590 $593 $597 reversed $532 $-1 #
loop $-1 $-1 $526 $598 #
vertex $-1 $445 $599 #
straight-curve $-1 0 20.90564928550825385 8.839618239409066547 0 -1 0 I I #
point $-1 0 41.81129857101650771 8.839618239409066547 #
plane-surface $-1 104.1682180242316917 20.90564928550825385 4.419809119704533273 -1 0 0 0 0 1 forward_v I I I I #
coedge $-1 $451 $453 $460 $540 reversed $455 $-1 #
straight-curve $-1 104.1682180242316917 20.90564928550825385 8.839618239409066547 0 1 0 I I #
straight-curve $-1 104.1682180242316917 20.90564928550825385 0 0 -1 0 I I #
edge $-1 $462 -4.419809119704533273 $466 4.419809119704533273 $537 $600 forward 7 unknown #
point $-1 104.1682180242316917 41.81129857101650771 8.839618239409066547 #
straight-curve $-1 0 41.81129857101650771 4.419809119704533273 0 0 -1 I I #
point $-1 104.1682180242316917 41.81129857101650771 0 #
coedge $-1 $475 $492 $472 $545 forward $470 $-1 #
edge $-1 $546 -11.26432976132586106 $478 -8.018309287038924538 $544 $601 forward 7 unknown #
vertex $-1 $473 $602 #
straight-curve $-1 8.839618239409062994 0 4.419809119704533273 0 0 -1 I I #
straight-curve $-1 29.71186362576245443 3.246020474286936519 8.839618239409066547 1 0 0 I I #
straight-curve $-1 29.71186362576245443 3.246020474286936519 0 -1 0 0 I I #
point $-1 8.839618239409062994 3.246020474286936519 8.839618239409066547 #
point $-1 8.839618239409062994 3.246020474286936519 0 #
straight-curve $-1 5.839618239409062994 0 4.419809119704533273 0 0 1 I I #
edge $-1 $483 46.24449077270678288 $501 52.08410901211584587 $499 $603 forward 7 unknown #
point $-1 5.839618239409062994 0 0 #
edge $-1 $490 -52.08410901211584587 $546 43.24449077270678288 $488 $603 forward 7 unknown #
point $-1 104.1682180242316917 0 0 #
straight-curve $-1 0 20.90564928550825385 0 0 1 0 I I #
point $-1 0 0 0 #
face $-1 $604 $605 $11 $-1 $606 reversed single #
loop $-1 $-1 $577 $504 #
plane-surface $-1 52.08410901211584587 0 4.419809119704533273 0 1 0 0 0 1 forward_v I I I I #
coedge $-1 $575 $607 $577 $608 reversed $505 $-1 #
coedge $-1 $510 $507 $574 $609 reversed $429 $-1 #
coedge $-1 $507 $510 $610 $611 reversed $429 $-1 #
coedge $-1 $607 $575 $507 $566 forward $505 $-1 #
edge $-1 $612 -4.419809119704533273 $613 4.419809119704533273 $565 $614 forward 7 unknown #
coedge $-1 $509 $508 $594 $615 reversed $349 $-1 #
edge $-1 $596 -11.26432976132586106 $571 -8.018309287038924538 $528 $616 forward 7 unknown #
coedge $-1 $617 $610 $509 $570 forward $605 $-1 #
edge $-1 $572 8.018309287038924538 $618 11.26432976132586106 $569 $619 forward 7 unknown #
vertex $-1 $568 $620 #
vertex $-1 $570 $621 #
straight-curve $-1 5.839618239409062994 3.246020474286936519 4.419809119704533273 0 0 -1 I I #
coedge $-1 $512 $528 $563 $609 forward $205 $-1 #
coedge $-1 $565 $562 $512 $576 reversed $505 $-1 #
edge $-1 $612 8.018309287038924538 $579 11.26432976132586106 $512 $622 forward 7 unknown #
coedge $-1 $623 $513 $562 $608 forward $560 $-1 #
coedge $-1 $513 $623 $515 $582 reversed $560 $-1 #
vertex $-1 $514 $624 #
straight-curve $-1 52.08410901211584587 0 8.839618239409066547 1 0 0 I I #
coedge $-1 $520 $515 $625 $626 reversed $516 $-1 #
edge $-1 $517 -4.419809119704533273 $627 4.419809119704533273 $515 $628 forward 7 unknown #
face $-1 $-1 $516 $11 $-1 $629 reversed single #
point $-1 104.1682180242316917 0 8.839618239409066547 #
point $-1 104.1682180242316917 41.81129857101650771 4.771435786973514226 #
coedge $-1 $625 $630 $524 $587 forward $605 $-1 #
edge $-1 $591 -52.08410901211584587 $588 52.08410901211584587 $524 $631 forward 7 unknown #
vertex $-1 $626 $632 #
straight-curve $-1 104.1682180242316917 41.81129857101650771 4.419809119704533273 0 0 -1 I I #
coedge $-1 $531 $526 $630 $633 reversed $532 $-1 #
vertex $-1 $587 $634 #
straight-curve $-1 0 41.81129857101650771 4.419809119704533273 0 0 -1 I I #
coedge $-1 $635 $529 $531 $597 forward $595 $-1 #
coedge $-1 $529 $635 $567 $615 forward $595 $-1 #
loop $-1 $-1 $594 $604 #
vertex $-1 $615 $636 #
edge $-1 $533 -4.419809119704533273 $637 4.419809119704533273 $531 $638 forward 7 unknown #
face $-1 $583 $532 $11 $-1 $639 reversed single #
point $-1 0 0 8.839618239409066547 #
straight-curve $-1 104.1682180242316917 41.81129857101650771 4.419809119704533273 0 0 -1 I I #
straight-curve $-1 8.839618239409062994 11.26432976132586106 0 0 1 0 I I #
point $-1 8.839618239409062994 0 0 #
straight-curve $-1 52.08410901211584587 0 0 -1 0 0 I I #
face $-1 $598 $595 $11 $-1 $561 reversed single #
loop $-1 $-1 $569 $559 #
plane-surface $-1 52.08410901211584587 20.90564928550825385 0 0 0 1 1 0 0 forward_v I I I I #
coedge $-1 $562 $565 $640 $641 reversed $505 $-1 #
edge $-1 $579 -4.419809119704533273 $642 4.419809119704533273 $577 $643 forward 7 unknown #
edge $-1 $571 -23.87224538635339144 $612 -20.87224538635339144 $574 $644 forward 7 unknown #
coedge $-1 $569 $640 $564 $611 forward $605 $-1 #
edge $-1 $613 20.87224538635339144 $572 23.87224538635339144 $610 $645 forward 7 unknown #
vertex $-1 $609 $646 #
vertex $-1 $611 $647 #
straight-curve $-1 8.839618239409062994 3.246020474286936519 4.419809119704533273 0 0 -1 I I #
edge $-1 $618 -4.419809119704533273 $596 4.419809119704533273 $594 $648 forward 7 unknown #
straight-curve $-1 5.839618239409062994 11.26432976132586106 8.839618239409066547 0 1 0 I I #
coedge $-1 $630 $569 $635 $649 forward $605 $-1 #
vertex $-1 $649 $650 #
straight-curve $-1 5.839618239409062994 11.26432976132586106 0 0 -1 0 I I #
point $-1 5.839618239409062994 3.246020474286936519 8.839618239409066547 #
point $-1 5.839618239409062994 3.246020474286936519 0 #
straight-curve $-1 8.839618239409062994 11.26432976132586106 8.839618239409066547 0 -1 0 I I #
coedge $-1 $578 $577 $651 $652 reversed $560 $-1 #
point $-1 8.839618239409062994 0 8.839618239409066547 #
coedge $-1 $651 $586 $581 $626 forward $605 $-1 #
edge $-1 $588 -20.90564928550825385 $627 20.90564928550825385 $581 $653 forward 7 unknown #
vertex $-1 $582 $654 #
straight-curve $-1 104.1682180242316917 0 4.419809119704533273 0 0 -1 I I #
plane-surface $-1 104.1682180242316917 20.90564928550825385 4.419809119704533273 -1 0 0 0 0 1 forward_v I I I I #
coedge $-1 $586 $617 $590 $633 forward $605 $-1 #
straight-curve $-1 52.08410901211584587 41.81129857101650771 0 1 0 0 I I #
point $-1 104.1682180242316917 41.81129857101650771 0 #
edge $-1 $637 -20.90564928550825385 $591 20.90564928550825385 $590 $655 forward 7 unknown #
point $-1 0 41.81129857101650771 0 #
coedge $-1 $594 $593 $617 $649 reversed $595 $-1 #
point $-1 5.839618239409062994 0 8.839618239409066547 #
vertex $-1 $633 $656 #
straight-curve $-1 0 0 4.419809119704533273 0 0 -1 I I #
plane-surface $-1 0 20.90564928550825385 4.419809119704533273 1 0 0 0 0 -1 forward_v I I I I #
coedge $-1 $610 $651 $607 $641 forward $605 $-1 #
edge $-1 $642 -11.26432976132586106 $613 -8.018309287038924538 $640 $657 forward 7 unknown #
vertex $-1 $608 $658 #
straight-curve $-1 8.839618239409062994 0 4.419809119704533273 0 0 -1 I I #
straight-curve $-1 29.71186362576245443 3.246020474286936519 8.839618239409066547 1 0 0 I I #
straight-curve $-1 29.71186362576245443 3.246020474286936519 0 -1 0 0 I I #
point $-1 8.839618239409062994 3.246020474286936519 8.839618239409066547 #
point $-1 8.839618239409062994 3.246020474286936519 0 #
straight-curve $-1 5.839618239409062994 0 4.419809119704533273 0 0 1 I I #
edge $-1 $618 46.24449077270678288 $637 52.08410901211584587 $635 $659 forward 7 unknown #
point $-1 5.839618239409062994 0 0 #
coedge $-1 $640 $625 $623 $652 forward $605 $-1 #
edge $-1 $627 -52.08410901211584587 $642 43.24449077270678288 $623 $659 forward 7 unknown #
straight-curve $-1 104.1682180242316917 20.90564928550825385 0 0 -1 0 I I #
point $-1 104.1682180242316917 0 0 #
straight-curve $-1 0 20.90564928550825385 0 0 1 0 I I #
point $-1 0 0 0 #
straight-curve $-1 8.839618239409062994 11.26432976132586106 0 0 1 0 I I #
point $-1 8.839618239409062994 0 0 #
straight-curve $-1 52.08410901211584587 0 0 -1 0 0 I I #
End-of-ACIS-data 