300 0 9 0           
7 Unknown 11 ACIS 3.0 NT 24 Fri Oct 30 17:43:37 1998 
-1 9.9999999999999995e-007 1e-010 
body $9 $10 $-1 $11 #
body $12 $13 $-1 $14 #
body $15 $16 $-1 $17 #
body $18 $19 $-1 $20 #
body $21 $22 $-1 $23 #
body $24 $25 $-1 $26 #
body $27 $28 $-1 $29 #
body $30 $31 $-1 $32 #
body $33 $34 $-1 $35 #
display_attribute-st-attrib $-1 $36 $-1 $0 1 #
lump $-1 $-1 $37 $0 #
transform $-1 1 0 0 0 1 0 0 0 1 68.359019745475621 44.056696645556634 21.450328550204546 1 rotate no_reflect no_shear #
display_attribute-st-attrib $-1 $38 $-1 $1 1 #
lump $-1 $-1 $39 $1 #
transform $-1 1 0 0 0 1 0 0 0 1 68.359019745475621 11.013785001885308 2.952325105397732 1 rotate no_reflect no_shear #
display_attribute-st-attrib $-1 $40 $-1 $2 1 #
lump $-1 $-1 $41 $2 #
transform $-1 0.78801074757464917 0 -0.61566148304635926 0 1 0 0.61566148304635926 0 0.78801074757464917 113.15478593693611 27.017133360859191 220.74126650314651 1 rotate no_reflect no_shear #
display_attribute-st-attrib $-1 $42 $-1 $3 1 #
lump $-1 $-1 $43 $3 #
transform $-1 0.78801074757464917 0 -0.61566148304635926 0 -1 0 -0.61566148304635926 0 -0.78801074757464917 127.02313915009884 24.023395346606048 34.980791981558994 1 rotate no_reflect no_shear #
display_attribute-st-attrib $-1 $44 $-1 $4 1 #
lump $-1 $-1 $45 $4 #
transform $-1 0.78801074757464917 0 -0.61566148304635926 0 -1 0 -0.61566148304635926 0 -0.78801074757464917 127.02313915009884 27.017133360859194 34.980791981558994 1 rotate no_reflect no_shear #
display_attribute-st-attrib $-1 $46 $-1 $5 1 #
lump $-1 $-1 $47 $5 #
transform $-1 0.78801074757464917 0 -0.61566148304635926 0 -1 0 -0.61566148304635926 0 -0.78801074757464917 127.02313915009884 30.010871375112341 34.980791981558994 1 rotate no_reflect no_shear #
display_attribute-st-attrib $-1 $48 $-1 $6 1 #
lump $-1 $-1 $49 $6 #
transform $-1 0.60181501223851219 0 0.79863551827123203 0 1 0 -0.79863551827123203 0 0.60181501223851219 -109.18788232588264 79.481012037311586 118.65307742319254 1 rotate no_reflect no_shear #
display_attribute-st-attrib $-1 $50 $-1 $7 1 #
lump $-1 $-1 $51 $7 #
transform $-1 0.60181501223851219 0 0.79863551827123203 0 -1 0 0.79863551827123203 0 -0.60181501223851219 6.6760558420457521 75.781420071396582 36.459643760884532 1 rotate no_reflect no_shear #
display_attribute-st-attrib $-1 $52 $-1 $8 1 #
lump $-1 $-1 $53 $8 #
transform $-1 0.60181501223851219 0 0.79863551827123203 0 -1 0 0.79863551827123203 0 -0.60181501223851219 6.6760558420457521 83.180604003226591 36.459643760884532 1 rotate no_reflect no_shear #
id_attribute-st-attrib $-1 $-1 $9 $0 373 #
shell $-1 $-1 $-1 $54 $-1 $10 #
id_attribute-st-attrib $-1 $-1 $12 $1 378 #
shell $-1 $-1 $-1 $55 $-1 $13 #
id_attribute-st-attrib $-1 $-1 $15 $2 392 #
shell $-1 $-1 $-1 $56 $-1 $16 #
id_attribute-st-attrib $-1 $-1 $18 $3 400 #
shell $-1 $-1 $-1 $57 $-1 $19 #
id_attribute-st-attrib $-1 $-1 $21 $4 409 #
shell $-1 $-1 $-1 $58 $-1 $22 #
id_attribute-st-attrib $-1 $-1 $24 $5 419 #
shell $-1 $-1 $-1 $59 $-1 $25 #
id_attribute-st-attrib $-1 $-1 $27 $6 435 #
shell $-1 $-1 $-1 $60 $-1 $28 #
id_attribute-st-attrib $-1 $-1 $30 $7 447 #
shell $-1 $-1 $-1 $61 $-1 $31 #
id_attribute-st-attrib $-1 $-1 $33 $8 460 #
shell $-1 $-1 $-1 $62 $-1 $34 #
face $-1 $63 $64 $37 $-1 $65 forward single #
face $-1 $66 $67 $39 $-1 $68 forward single #
face $-1 $69 $70 $41 $-1 $71 forward single #
face $-1 $72 $73 $43 $-1 $74 forward single #
face $-1 $75 $76 $45 $-1 $77 forward single #
face $-1 $78 $79 $47 $-1 $80 forward single #
face $-1 $81 $82 $49 $-1 $83 forward single #
face $-1 $84 $85 $51 $-1 $86 forward single #
face $-1 $87 $88 $53 $-1 $89 forward single #
face $-1 $90 $91 $37 $-1 $92 reversed single #
loop $-1 $-1 $93 $54 #
plane-surface $-1 0 0 21.450328550204546 0 0 1 1 0 0 forward_v I I I I #
face $-1 $94 $95 $39 $-1 $96 reversed single #
loop $-1 $-1 $97 $55 #
plane-surface $-1 0 0 2.952325105397732 0 0 1 1 0 0 forward_v I I I I #
face $-1 $98 $99 $41 $-1 $100 reversed single #
loop $-1 $-1 $101 $56 #
plane-surface $-1 0 0 136.71803949095124 0 0 1 1 0 0 forward_v I I I I #
face $-1 $102 $103 $43 $-1 $104 forward single #
loop $-1 $105 $106 $57 #
cone-surface $-1 0 0 -0.625 0 0 1 0.25 0 0 1 I I 0 1 forward I I I I #
face $-1 $107 $108 $45 $-1 $109 forward single #
loop $-1 $110 $111 $58 #
cone-surface $-1 0 0 -0.625 0 0 1 0.25 0 0 1 I I 0 1 forward I I I I #
face $-1 $112 $113 $47 $-1 $114 forward single #
loop $-1 $115 $116 $59 #
cone-surface $-1 0 0 -0.625 0 0 1 0.25 0 0 1 I I 0 1 forward I I I I #
face $-1 $117 $118 $49 $-1 $119 reversed single #
loop $-1 $-1 $120 $60 #
plane-surface $-1 0 0 136.71803949095124 0 0 1 1 0 0 forward_v I I I I #
face $-1 $121 $122 $51 $-1 $123 forward single #
loop $-1 $124 $125 $61 #
cone-surface $-1 0 0 -3.0151295510727252 0 0 1 1.5 0 0 1 I I 0 1 forward I I I I #
face $-1 $126 $127 $53 $-1 $128 forward single #
loop $-1 $129 $130 $62 #
cone-surface $-1 0 0 -3.0151295510727252 0 0 1 1.5 0 0 1 I I 0 1 forward I I I I #
face $-1 $131 $132 $37 $-1 $133 reversed single #
loop $-1 $-1 $134 $63 #
plane-surface $-1 0 0 -21.450328550204546 0 0 1 1 0 0 forward_v I I I I #
coedge $-1 $135 $136 $137 $138 forward $64 $-1 #
face $-1 $139 $140 $39 $-1 $141 reversed single #
loop $-1 $-1 $142 $66 #
plane-surface $-1 0 0 -2.952325105397732 0 0 1 1 0 0 forward_v I I I I #
coedge $-1 $143 $144 $145 $146 forward $67 $-1 #
face $-1 $147 $148 $41 $-1 $149 reversed single #
loop $-1 $-1 $150 $69 #
plane-surface $-1 0 0 -136.71803949095124 0 0 1 1 0 0 forward_v I I I I #
coedge $-1 $151 $152 $153 $154 forward $70 $-1 #
face $-1 $-1 $155 $43 $-1 $156 forward single #
loop $-1 $-1 $157 $72 #
plane-surface $-1 0 0 -1.125 0 0 -1 -1 0 0 forward_v I I I I #
loop $-1 $-1 $158 $57 #
coedge $-1 $106 $106 $157 $159 reversed $73 $-1 #
face $-1 $-1 $160 $45 $-1 $161 forward single #
loop $-1 $-1 $162 $75 #
plane-surface $-1 0 0 -1.125 0 0 -1 -1 0 0 forward_v I I I I #
loop $-1 $-1 $163 $58 #
coedge $-1 $111 $111 $162 $164 reversed $76 $-1 #
face $-1 $-1 $165 $47 $-1 $166 forward single #
loop $-1 $-1 $167 $78 #
plane-surface $-1 0 0 -1.125 0 0 -1 -1 0 0 forward_v I I I I #
loop $-1 $-1 $168 $59 #
coedge $-1 $116 $116 $167 $169 reversed $79 $-1 #
face $-1 $170 $171 $49 $-1 $172 reversed single #
loop $-1 $-1 $173 $81 #
plane-surface $-1 0 0 -136.71803949095124 0 0 1 1 0 0 forward_v I I I I #
coedge $-1 $174 $175 $176 $177 forward $82 $-1 #
face $-1 $-1 $178 $51 $-1 $179 forward single #
loop $-1 $-1 $180 $84 #
plane-surface $-1 0 0 -5.2802591021454504 0 0 -1 -1 0 0 forward_v I I I I #
loop $-1 $-1 $181 $61 #
coedge $-1 $125 $125 $180 $182 reversed $85 $-1 #
face $-1 $-1 $183 $53 $-1 $184 forward single #
loop $-1 $-1 $185 $87 #
plane-surface $-1 0 0 -5.2802591021454504 0 0 -1 -1 0 0 forward_v I I I I #
loop $-1 $-1 $186 $62 #
coedge $-1 $130 $130 $185 $187 reversed $88 $-1 #
face $-1 $188 $189 $37 $-1 $190 reversed single #
loop $-1 $-1 $191 $90 #
plane-surface $-1 0 -44.056696645556634 0 0 1 0 0 0 1 forward_v I I I I #
coedge $-1 $192 $193 $194 $195 forward $91 $-1 #
coedge $-1 $196 $93 $197 $198 forward $64 $-1 #
coedge $-1 $93 $196 $199 $200 forward $64 $-1 #
coedge $-1 $201 $202 $93 $138 reversed $203 $-1 #
edge $-1 $204 $205 $137 $206 forward #
face $-1 $207 $208 $39 $-1 $209 reversed single #
loop $-1 $-1 $210 $94 #
plane-surface $-1 0 -11.013785001885308 0 0 1 0 0 0 1 forward_v I I I I #
coedge $-1 $211 $212 $213 $214 forward $95 $-1 #
coedge $-1 $215 $97 $216 $217 forward $67 $-1 #
coedge $-1 $97 $215 $218 $219 forward $67 $-1 #
coedge $-1 $220 $221 $97 $146 reversed $222 $-1 #
edge $-1 $223 $224 $145 $225 forward #
face $-1 $226 $227 $41 $-1 $228 reversed single #
loop $-1 $-1 $229 $98 #
plane-surface $-1 0 -4.989563357088576 0 0 1 0 0 0 1 forward_v I I I I #
coedge $-1 $230 $231 $232 $233 forward $99 $-1 #
coedge $-1 $234 $101 $235 $236 forward $70 $-1 #
coedge $-1 $101 $234 $237 $238 forward $70 $-1 #
coedge $-1 $239 $240 $101 $154 reversed $241 $-1 #
edge $-1 $242 $243 $153 $244 forward #
loop $-1 $245 $246 $102 #
cone-surface $-1 0 0 0 0 0 1 0.125 0 0 1 I I -0.70710678118654746 0.70710678118654746 forward I I I I #
coedge $-1 $157 $157 $106 $159 forward $103 $-1 #
coedge $-1 $158 $158 $246 $247 forward $105 $-1 #
edge $-1 $248 $248 $157 $249 forward #
loop $-1 $250 $251 $107 #
cone-surface $-1 0 0 0 0 0 1 0.125 0 0 1 I I -0.70710678118654746 0.70710678118654746 forward I I I I #
coedge $-1 $162 $162 $111 $164 forward $108 $-1 #
coedge $-1 $163 $163 $251 $252 forward $110 $-1 #
edge $-1 $253 $253 $162 $254 forward #
loop $-1 $255 $256 $112 #
cone-surface $-1 0 0 0 0 0 1 0.125 0 0 1 I I -0.70710678118654746 0.70710678118654746 forward I I I I #
coedge $-1 $167 $167 $116 $169 forward $113 $-1 #
coedge $-1 $168 $168 $256 $257 forward $115 $-1 #
edge $-1 $258 $258 $167 $259 forward #
face $-1 $260 $261 $49 $-1 $262 reversed single #
loop $-1 $-1 $263 $117 #
plane-surface $-1 0 -8.6323812538016753 0 0 1 0 0 0 1 forward_v I I I I #
coedge $-1 $264 $265 $266 $267 forward $118 $-1 #
coedge $-1 $268 $120 $269 $270 forward $82 $-1 #
coedge $-1 $120 $268 $271 $272 forward $82 $-1 #
coedge $-1 $273 $274 $120 $177 reversed $275 $-1 #
edge $-1 $276 $277 $176 $278 forward #
loop $-1 $279 $280 $121 #
cone-surface $-1 0 0 0 0 0 1 0.75 0 0 1 I I -0.70710678118654757 0.70710678118654757 forward I I I I #
coedge $-1 $180 $180 $125 $182 forward $122 $-1 #
coedge $-1 $181 $181 $280 $281 forward $124 $-1 #
edge $-1 $282 $282 $180 $283 forward #
loop $-1 $284 $285 $126 #
cone-surface $-1 0 0 0 0 0 1 0.75 0 0 1 I I -0.70710678118654757 0.70710678118654757 forward I I I I #
coedge $-1 $185 $185 $130 $187 forward $127 $-1 #
coedge $-1 $186 $186 $285 $286 forward $129 $-1 #
edge $-1 $287 $287 $185 $288 forward #
face $-1 $289 $290 $37 $-1 $291 reversed single #
loop $-1 $-1 $292 $131 #
plane-surface $-1 -68.359019745475621 0 0 1 0 0 0 0 -1 forward_v I I I I #
coedge $-1 $293 $199 $294 $295 forward $132 $-1 #
coedge $-1 $296 $134 $293 $297 forward $91 $-1 #
coedge $-1 $134 $296 $298 $299 forward $91 $-1 #
coedge $-1 $202 $201 $134 $195 reversed $203 $-1 #
edge $-1 $300 $301 $194 $302 forward #
coedge $-1 $136 $135 $303 $304 forward $64 $-1 #
coedge $-1 $305 $306 $135 $198 reversed $290 $-1 #
edge $-1 $205 $307 $197 $308 forward #
coedge $-1 $191 $309 $136 $200 reversed $132 $-1 #
edge $-1 $310 $204 $199 $311 forward #
coedge $-1 $194 $137 $309 $312 forward $203 $-1 #
coedge $-1 $137 $194 $305 $313 reversed $203 $-1 #
loop $-1 $-1 $201 $289 #
vertex $-1 $138 $314 #
vertex $-1 $138 $315 #
straight-curve $-1 68.359019745475621 0 21.450328550204546 0 1 0 I I #
face $-1 $316 $317 $39 $-1 $318 reversed single #
loop $-1 $-1 $319 $139 #
plane-surface $-1 -68.359019745475621 0 0 1 0 0 0 0 -1 forward_v I I I I #
coedge $-1 $320 $218 $321 $322 forward $140 $-1 #
coedge $-1 $323 $142 $320 $324 forward $95 $-1 #
coedge $-1 $142 $323 $325 $326 forward $95 $-1 #
coedge $-1 $221 $220 $142 $214 reversed $222 $-1 #
edge $-1 $327 $328 $213 $329 forward #
coedge $-1 $144 $143 $330 $331 forward $67 $-1 #
coedge $-1 $332 $333 $143 $217 reversed $317 $-1 #
edge $-1 $224 $334 $216 $335 forward #
coedge $-1 $210 $336 $144 $219 reversed $140 $-1 #
edge $-1 $337 $223 $218 $338 forward #
coedge $-1 $213 $145 $336 $339 forward $222 $-1 #
coedge $-1 $145 $213 $332 $340 reversed $222 $-1 #
loop $-1 $-1 $220 $316 #
vertex $-1 $146 $341 #
vertex $-1 $146 $342 #
straight-curve $-1 68.359019745475621 0 2.952325105397732 0 1 0 I I #
face $-1 $343 $344 $41 $-1 $345 reversed single #
loop $-1 $-1 $346 $147 #
plane-surface $-1 -273.43607898190248 0 0 1 0 0 0 0 -1 forward_v I I I I #
coedge $-1 $347 $237 $348 $349 forward $148 $-1 #
coedge $-1 $350 $150 $347 $351 forward $99 $-1 #
coedge $-1 $150 $350 $352 $353 forward $99 $-1 #
coedge $-1 $240 $239 $150 $233 reversed $241 $-1 #
edge $-1 $354 $355 $232 $356 forward #
coedge $-1 $152 $151 $357 $358 forward $70 $-1 #
coedge $-1 $359 $360 $151 $236 reversed $344 $-1 #
edge $-1 $243 $361 $235 $362 forward #
coedge $-1 $229 $363 $152 $238 reversed $148 $-1 #
edge $-1 $364 $242 $237 $365 forward #
coedge $-1 $232 $153 $363 $366 forward $241 $-1 #
coedge $-1 $153 $232 $359 $367 reversed $241 $-1 #
loop $-1 $-1 $239 $343 #
vertex $-1 $154 $368 #
vertex $-1 $154 $369 #
straight-curve $-1 273.43607898190248 0 136.71803949095124 0 1 0 I I #
loop $-1 $-1 $370 $102 #
coedge $-1 $246 $246 $158 $247 reversed $155 $-1 #
edge $-1 $371 $371 $246 $372 forward #
vertex $-1 $159 $373 #
ellipse-curve $-1 0 0 -1.125 0 0 -1 0.25 0 0 1 I I #
loop $-1 $-1 $374 $107 #
coedge $-1 $251 $251 $163 $252 reversed $160 $-1 #
edge $-1 $375 $375 $251 $376 forward #
vertex $-1 $164 $377 #
ellipse-curve $-1 0 0 -1.125 0 0 -1 0.25 0 0 1 I I #
loop $-1 $-1 $378 $112 #
coedge $-1 $256 $256 $168 $257 reversed $165 $-1 #
edge $-1 $379 $379 $256 $380 forward #
vertex $-1 $169 $381 #
ellipse-curve $-1 0 0 -1.125 0 0 -1 0.25 0 0 1 I I #
face $-1 $382 $383 $49 $-1 $384 reversed single #
loop $-1 $-1 $385 $170 #
plane-surface $-1 -273.43607898190248 0 0 1 0 0 0 0 -1 forward_v I I I I #
coedge $-1 $386 $271 $387 $388 forward $171 $-1 #
coedge $-1 $389 $173 $386 $390 forward $118 $-1 #
coedge $-1 $173 $389 $391 $392 forward $118 $-1 #
coedge $-1 $274 $273 $173 $267 reversed $275 $-1 #
edge $-1 $393 $394 $266 $395 forward #
coedge $-1 $175 $174 $396 $397 forward $82 $-1 #
coedge $-1 $398 $399 $174 $270 reversed $383 $-1 #
edge $-1 $277 $400 $269 $401 forward #
coedge $-1 $263 $402 $175 $272 reversed $171 $-1 #
edge $-1 $403 $276 $271 $404 forward #
coedge $-1 $266 $176 $402 $405 forward $275 $-1 #
coedge $-1 $176 $266 $398 $406 reversed $275 $-1 #
loop $-1 $-1 $273 $382 #
vertex $-1 $177 $407 #
vertex $-1 $177 $408 #
straight-curve $-1 273.43607898190248 0 136.71803949095124 0 1 0 I I #
loop $-1 $-1 $409 $121 #
coedge $-1 $280 $280 $181 $281 reversed $178 $-1 #
edge $-1 $410 $410 $280 $411 forward #
vertex $-1 $182 $412 #
ellipse-curve $-1 0 0 -5.2802591021454504 0 0 -1 1.5 0 0 1 I I #
loop $-1 $-1 $413 $126 #
coedge $-1 $285 $285 $186 $286 reversed $183 $-1 #
edge $-1 $414 $414 $285 $415 forward #
vertex $-1 $187 $416 #
ellipse-curve $-1 0 0 -5.2802591021454504 0 0 -1 1.5 0 0 1 I I #
face $-1 $-1 $203 $37 $-1 $417 reversed single #
loop $-1 $-1 $305 $188 #
plane-surface $-1 0 44.056696645556634 0 0 -1 0 0 0 -1 forward_v I I I I #
coedge $-1 $418 $303 $306 $419 forward $189 $-1 #
coedge $-1 $309 $191 $192 $297 reversed $132 $-1 #
coedge $-1 $303 $418 $191 $295 reversed $189 $-1 #
edge $-1 $310 $420 $294 $421 forward #
coedge $-1 $193 $192 $418 $422 forward $91 $-1 #
edge $-1 $301 $420 $293 $423 forward #
coedge $-1 $306 $305 $193 $299 reversed $290 $-1 #
edge $-1 $424 $300 $298 $425 forward #
vertex $-1 $195 $426 #
vertex $-1 $312 $427 #
straight-curve $-1 68.359019745475621 0 -21.450328550204546 0 -1 0 I I #
coedge $-1 $292 $294 $196 $304 reversed $189 $-1 #
edge $-1 $307 $310 $303 $428 forward #
coedge $-1 $298 $197 $202 $313 forward $290 $-1 #
coedge $-1 $197 $298 $292 $419 reversed $290 $-1 #
vertex $-1 $198 $429 #
straight-curve $-1 0 44.056696645556634 21.450328550204546 -1 0 0 I I #
coedge $-1 $199 $293 $201 $312 reversed $132 $-1 #
vertex $-1 $304 $430 #
straight-curve $-1 0 -44.056696645556634 21.450328550204546 1 0 0 I I #
edge $-1 $204 $301 $201 $431 forward #
edge $-1 $205 $300 $202 $432 forward #
point $-1 68.359019745475621 -44.056696645556634 21.450328550204546 #
point $-1 68.359019745475621 44.056696645556634 21.450328550204546 #
face $-1 $-1 $222 $39 $-1 $433 reversed single #
loop $-1 $-1 $332 $207 #
plane-surface $-1 0 11.013785001885308 0 0 -1 0 0 0 -1 forward_v I I I I #
coedge $-1 $434 $330 $333 $435 forward $208 $-1 #
coedge $-1 $336 $210 $211 $324 reversed $140 $-1 #
coedge $-1 $330 $434 $210 $322 reversed $208 $-1 #
edge $-1 $337 $436 $321 $437 forward #
coedge $-1 $212 $211 $434 $438 forward $95 $-1 #
edge $-1 $328 $436 $320 $439 forward #
coedge $-1 $333 $332 $212 $326 reversed $317 $-1 #
edge $-1 $440 $327 $325 $441 forward #
vertex $-1 $214 $442 #
vertex $-1 $339 $443 #
straight-curve $-1 68.359019745475621 0 -2.952325105397732 0 -1 0 I I #
coedge $-1 $319 $321 $215 $331 reversed $208 $-1 #
edge $-1 $334 $337 $330 $444 forward #
coedge $-1 $325 $216 $221 $340 forward $317 $-1 #
coedge $-1 $216 $325 $319 $435 reversed $317 $-1 #
vertex $-1 $217 $445 #
straight-curve $-1 0 11.013785001885308 2.952325105397732 -1 0 0 I I #
coedge $-1 $218 $320 $220 $339 reversed $140 $-1 #
vertex $-1 $331 $446 #
straight-curve $-1 0 -11.013785001885308 2.952325105397732 1 0 0 I I #
edge $-1 $223 $328 $220 $447 forward #
edge $-1 $224 $327 $221 $448 forward #
point $-1 68.359019745475621 -11.013785001885308 2.952325105397732 #
point $-1 68.359019745475621 11.013785001885308 2.952325105397732 #
face $-1 $-1 $241 $41 $-1 $449 reversed single #
loop $-1 $-1 $359 $226 #
plane-surface $-1 0 4.989563357088576 0 0 -1 0 0 0 -1 forward_v I I I I #
coedge $-1 $450 $357 $360 $451 forward $227 $-1 #
coedge $-1 $363 $229 $230 $351 reversed $148 $-1 #
coedge $-1 $357 $450 $229 $349 reversed $227 $-1 #
edge $-1 $364 $452 $348 $453 forward #
coedge $-1 $231 $230 $450 $454 forward $99 $-1 #
edge $-1 $355 $452 $347 $455 forward #
coedge $-1 $360 $359 $231 $353 reversed $344 $-1 #
edge $-1 $456 $354 $352 $457 forward #
vertex $-1 $233 $458 #
vertex $-1 $366 $459 #
straight-curve $-1 273.43607898190248 0 -136.71803949095124 0 -1 0 I I #
coedge $-1 $346 $348 $234 $358 reversed $227 $-1 #
edge $-1 $361 $364 $357 $460 forward #
coedge $-1 $352 $235 $240 $367 forward $344 $-1 #
coedge $-1 $235 $352 $346 $451 reversed $344 $-1 #
vertex $-1 $236 $461 #
straight-curve $-1 0 4.989563357088576 136.71803949095124 -1 0 0 I I #
coedge $-1 $237 $347 $239 $366 reversed $148 $-1 #
vertex $-1 $358 $462 #
straight-curve $-1 0 -4.989563357088576 136.71803949095124 1 0 0 I I #
edge $-1 $242 $355 $239 $463 forward #
edge $-1 $243 $354 $240 $464 forward #
point $-1 273.43607898190248 -4.989563357088576 136.71803949095124 #
point $-1 273.43607898190248 4.989563357088576 136.71803949095124 #
coedge $-1 $370 $370 $-1 $465 reversed $245 $-1 #
vertex $-1 $247 $466 #
ellipse-curve $-1 0 0 -0.125 0 0 -1 0.25 0 0 1 I I #
point $-1 0.25 0 -1.125 #
coedge $-1 $374 $374 $-1 $467 reversed $250 $-1 #
vertex $-1 $252 $468 #
ellipse-curve $-1 0 0 -0.125 0 0 -1 0.25 0 0 1 I I #
point $-1 0.25 0 -1.125 #
coedge $-1 $378 $378 $-1 $469 reversed $255 $-1 #
vertex $-1 $257 $470 #
ellipse-curve $-1 0 0 -0.125 0 0 -1 0.25 0 0 1 I I #
point $-1 0.25 0 -1.125 #
face $-1 $-1 $275 $49 $-1 $471 reversed single #
loop $-1 $-1 $398 $260 #
plane-surface $-1 0 8.6323812538016753 0 0 -1 0 0 0 -1 forward_v I I I I #
coedge $-1 $472 $396 $399 $473 forward $261 $-1 #
coedge $-1 $402 $263 $264 $390 reversed $171 $-1 #
coedge $-1 $396 $472 $263 $388 reversed $261 $-1 #
edge $-1 $403 $474 $387 $475 forward #
coedge $-1 $265 $264 $472 $476 forward $118 $-1 #
edge $-1 $394 $474 $386 $477 forward #
coedge $-1 $399 $398 $265 $392 reversed $383 $-1 #
edge $-1 $478 $393 $391 $479 forward #
vertex $-1 $267 $480 #
vertex $-1 $405 $481 #
straight-curve $-1 273.43607898190248 0 -136.71803949095124 0 -1 0 I I #
coedge $-1 $385 $387 $268 $397 reversed $261 $-1 #
edge $-1 $400 $403 $396 $482 forward #
coedge $-1 $391 $269 $274 $406 forward $383 $-1 #
coedge $-1 $269 $391 $385 $473 reversed $383 $-1 #
vertex $-1 $270 $483 #
straight-curve $-1 0 8.6323812538016753 136.71803949095124 -1 0 0 I I #
coedge $-1 $271 $386 $273 $405 reversed $171 $-1 #
vertex $-1 $397 $484 #
straight-curve $-1 0 -8.6323812538016753 136.71803949095124 1 0 0 I I #
edge $-1 $276 $394 $273 $485 forward #
edge $-1 $277 $393 $274 $486 forward #
point $-1 273.43607898190248 -8.6323812538016753 136.71803949095124 #
point $-1 273.43607898190248 8.6323812538016753 136.71803949095124 #
coedge $-1 $409 $409 $-1 $487 reversed $279 $-1 #
vertex $-1 $281 $488 #
ellipse-curve $-1 0 0 -0.75 0 0 -1 1.5 0 0 1 I I #
point $-1 1.5 0 -5.2802591021454504 #
coedge $-1 $413 $413 $-1 $489 reversed $284 $-1 #
vertex $-1 $286 $490 #
ellipse-curve $-1 0 0 -0.75 0 0 -1 1.5 0 0 1 I I #
point $-1 1.5 0 -5.2802591021454504 #
plane-surface $-1 68.359019745475621 0 0 -1 0 0 0 0 1 forward_v I I I I #
coedge $-1 $294 $292 $296 $422 reversed $189 $-1 #
edge $-1 $307 $424 $306 $491 forward #
vertex $-1 $422 $492 #
straight-curve $-1 -68.359019745475621 -44.056696645556634 0 0 0 -1 I I #
edge $-1 $420 $424 $418 $493 forward #
straight-curve $-1 0 -44.056696645556634 -21.450328550204546 -1 0 0 I I #
vertex $-1 $299 $494 #
straight-curve $-1 0 44.056696645556634 -21.450328550204546 1 0 0 I I #
point $-1 68.359019745475621 44.056696645556634 -21.450328550204546 #
point $-1 68.359019745475621 -44.056696645556634 -21.450328550204546 #
straight-curve $-1 -68.359019745475621 0 21.450328550204546 0 -1 0 I I #
point $-1 -68.359019745475621 44.056696645556634 21.450328550204546 #
point $-1 -68.359019745475621 -44.056696645556634 21.450328550204546 #
straight-curve $-1 68.359019745475621 -44.056696645556634 0 0 0 -1 I I #
straight-curve $-1 68.359019745475621 44.056696645556634 0 0 0 -1 I I #
plane-surface $-1 68.359019745475621 0 0 -1 0 0 0 0 1 forward_v I I I I #
coedge $-1 $321 $319 $323 $438 reversed $208 $-1 #
edge $-1 $334 $440 $333 $495 forward #
vertex $-1 $438 $496 #
straight-curve $-1 -68.359019745475621 -11.013785001885308 0 0 0 -1 I I #
edge $-1 $436 $440 $434 $497 forward #
straight-curve $-1 0 -11.013785001885308 -2.952325105397732 -1 0 0 I I #
vertex $-1 $326 $498 #
straight-curve $-1 0 11.013785001885308 -2.952325105397732 1 0 0 I I #
point $-1 68.359019745475621 11.013785001885308 -2.952325105397732 #
point $-1 68.359019745475621 -11.013785001885308 -2.952325105397732 #
straight-curve $-1 -68.359019745475621 0 2.952325105397732 0 -1 0 I I #
point $-1 -68.359019745475621 11.013785001885308 2.952325105397732 #
point $-1 -68.359019745475621 -11.013785001885308 2.952325105397732 #
straight-curve $-1 68.359019745475621 -11.013785001885308 0 0 0 -1 I I #
straight-curve $-1 68.359019745475621 11.013785001885308 0 0 0 -1 I I #
plane-surface $-1 273.43607898190248 0 0 -1 0 0 0 0 1 forward_v I I I I #
coedge $-1 $348 $346 $350 $454 reversed $227 $-1 #
edge $-1 $361 $456 $360 $499 forward #
vertex $-1 $454 $500 #
straight-curve $-1 -273.43607898190248 -4.989563357088576 0 0 0 -1 I I #
edge $-1 $452 $456 $450 $501 forward #
straight-curve $-1 0 -4.989563357088576 -136.71803949095124 -1 0 0 I I #
vertex $-1 $353 $502 #
straight-curve $-1 0 4.989563357088576 -136.71803949095124 1 0 0 I I #
point $-1 273.43607898190248 4.989563357088576 -136.71803949095124 #
point $-1 273.43607898190248 -4.989563357088576 -136.71803949095124 #
straight-curve $-1 -273.43607898190248 0 136.71803949095124 0 -1 0 I I #
point $-1 -273.43607898190248 4.989563357088576 136.71803949095124 #
point $-1 -273.43607898190248 -4.989563357088576 136.71803949095124 #
straight-curve $-1 273.43607898190248 -4.989563357088576 0 0 0 -1 I I #
straight-curve $-1 273.43607898190248 4.989563357088576 0 0 0 -1 I I #
edge $-1 $503 $503 $370 $-1 forward #
point $-1 0.25 0 -0.125 #
edge $-1 $504 $504 $374 $-1 forward #
point $-1 0.25 0 -0.125 #
edge $-1 $505 $505 $378 $-1 forward #
point $-1 0.25 0 -0.125 #
plane-surface $-1 273.43607898190248 0 0 -1 0 0 0 0 1 forward_v I I I I #
coedge $-1 $387 $385 $389 $476 reversed $261 $-1 #
edge $-1 $400 $478 $399 $506 forward #
vertex $-1 $476 $507 #
straight-curve $-1 -273.43607898190248 -8.6323812538016753 0 0 0 -1 I I #
edge $-1 $474 $478 $472 $508 forward #
straight-curve $-1 0 -8.6323812538016753 -136.71803949095124 -1 0 0 I I #
vertex $-1 $392 $509 #
straight-curve $-1 0 8.6323812538016753 -136.71803949095124 1 0 0 I I #
point $-1 273.43607898190248 8.6323812538016753 -136.71803949095124 #
point $-1 273.43607898190248 -8.6323812538016753 -136.71803949095124 #
straight-curve $-1 -273.43607898190248 0 136.71803949095124 0 -1 0 I I #
point $-1 -273.43607898190248 8.6323812538016753 136.71803949095124 #
point $-1 -273.43607898190248 -8.6323812538016753 136.71803949095124 #
straight-curve $-1 273.43607898190248 -8.6323812538016753 0 0 0 -1 I I #
straight-curve $-1 273.43607898190248 8.6323812538016753 0 0 0 -1 I I #
edge $-1 $510 $510 $409 $-1 forward #
point $-1 1.5 0 -0.75 #
edge $-1 $511 $511 $413 $-1 forward #
point $-1 1.5 0 -0.75 #
straight-curve $-1 -68.359019745475621 44.056696645556634 0 0 0 -1 I I #
point $-1 -68.359019745475621 -44.056696645556634 -21.450328550204546 #
straight-curve $-1 -68.359019745475621 0 -21.450328550204546 0 1 0 I I #
point $-1 -68.359019745475621 44.056696645556634 -21.450328550204546 #
straight-curve $-1 -68.359019745475621 11.013785001885308 0 0 0 -1 I I #
point $-1 -68.359019745475621 -11.013785001885308 -2.952325105397732 #
straight-curve $-1 -68.359019745475621 0 -2.952325105397732 0 1 0 I I #
point $-1 -68.359019745475621 11.013785001885308 -2.952325105397732 #
straight-curve $-1 -273.43607898190248 4.989563357088576 0 0 0 -1 I I #
point $-1 -273.43607898190248 -4.989563357088576 -136.71803949095124 #
straight-curve $-1 -273.43607898190248 0 -136.71803949095124 0 1 0 I I #
point $-1 -273.43607898190248 4.989563357088576 -136.71803949095124 #
vertex $-1 $465 $512 #
vertex $-1 $467 $513 #
vertex $-1 $469 $514 #
straight-curve $-1 -273.43607898190248 8.6323812538016753 0 0 0 -1 I I #
point $-1 -273.43607898190248 -8.6323812538016753 -136.71803949095124 #
straight-curve $-1 -273.43607898190248 0 -136.71803949095124 0 1 0 I I #
point $-1 -273.43607898190248 8.6323812538016753 -136.71803949095124 #
vertex $-1 $487 $515 #
vertex $-1 $489 $516 #
point $-1 0 0 0.125 #
point $-1 0 0 0.125 #
point $-1 0 0 0.125 #
point $-1 0 0 0.75 #
point $-1 0 0 0.75 #
End-of-ACIS-data 