600 0 8 0           
94 GICL ACIS Healer - Source: /gicl/data5/repository/Drexel/SM99-DATA/part122.smdg.feat.sat - 6 0 18 ACIS 6.0.3 Solaris 24 Sat Apr 13 20:45:09 2002 
1 9.999999999999999547e-07 1.000000000000000036e-10 
body $-1 $8 $-1 $-1 #
body $-1 $9 $-1 $-1 #
body $-1 $10 $-1 $-1 #
body $-1 $11 $-1 $-1 #
body $-1 $12 $-1 $-1 #
body $-1 $13 $-1 $-1 #
body $-1 $14 $-1 $-1 #
body $-1 $15 $-1 $-1 #
lump $-1 $-1 $16 $0 #
lump $-1 $-1 $17 $1 #
lump $-1 $-1 $18 $2 #
lump $-1 $-1 $19 $3 #
lump $-1 $-1 $20 $4 #
lump $-1 $-1 $21 $5 #
lump $-1 $-1 $22 $6 #
lump $-1 $-1 $23 $7 #
shell $-1 $-1 $-1 $24 $-1 $8 #
shell $-1 $-1 $-1 $25 $-1 $9 #
shell $-1 $-1 $-1 $26 $-1 $10 #
shell $-1 $-1 $-1 $27 $-1 $11 #
shell $-1 $-1 $-1 $28 $-1 $12 #
shell $-1 $-1 $-1 $29 $-1 $13 #
shell $-1 $-1 $-1 $30 $-1 $14 #
shell $-1 $-1 $-1 $31 $-1 $15 #
face $-1 $32 $33 $16 $-1 $34 forward single #
face $-1 $35 $36 $17 $-1 $37 forward single #
face $-1 $38 $39 $18 $-1 $40 forward single #
face $-1 $41 $42 $19 $-1 $43 forward single #
face $-1 $44 $45 $20 $-1 $46 forward single #
face $-1 $47 $48 $21 $-1 $49 forward single #
face $-1 $50 $51 $22 $-1 $52 forward single #
face $-1 $53 $54 $23 $-1 $55 forward single #
face $-1 $56 $57 $16 $-1 $58 reversed single #
loop $-1 $-1 $59 $24 #
plane-surface $-1 68.84365367595447083 31.46298051479089963 16.67969098551691332 0 0 1 1 0 0 forward_v I I I I #
face $-1 $60 $61 $17 $-1 $62 reversed single #
loop $-1 $-1 $63 $25 #
plane-surface $-1 68.84365367595447083 4.447181185939808046 16.67969098551691332 0 0 1 1 0 0 forward_v I I I I #
face $-1 $64 $65 $18 $-1 $66 reversed single #
loop $-1 $-1 $67 $26 #
plane-surface $-1 245.1810368282208401 40.68529375709819362 297.1536113415336899 0.7313537098837770145 0 0.6819983511997929071 0.6819983511997929071 0 -0.7313537098837770145 forward_v I I I I #
face $-1 $68 $69 $19 $-1 $70 forward single #
loop $-1 $71 $72 $27 #
cone-surface $-1 133.3805478450072144 39.0715544989927821 12.14000383743152156 -0.7313537098837770145 0 -0.6819983511997929071 0.3409991755998964535 0 -0.3656768549418885073 1 I I 0 1 0.5 forward I I I I #
face $-1 $73 $74 $20 $-1 $75 forward single #
loop $-1 $76 $77 $28 #
cone-surface $-1 133.3805478450072144 42.29903301520361225 12.14000383743152156 -0.7313537098837770145 0 -0.6819983511997929071 0.3409991755998964535 0 -0.3656768549418885073 1 I I 0 1 0.5 forward I I I I #
face $-1 $78 $79 $21 $-1 $80 reversed single #
loop $-1 $-1 $81 $29 #
plane-surface $-1 -240.848066965619239 12.11869860376119412 141.8866377214584418 -0.8746197147644345637 0 0.484809606490402778 0.484809606490402778 0 0.8746197147644345637 forward_v I I I I #
face $-1 $82 $83 $22 $-1 $84 forward single #
loop $-1 $85 $86 $30 #
cone-surface $-1 2.861098888213709834 10.736840218669089 12.21981191010789836 0.8746197147644345637 0 -0.484809606490402778 0.242404803245201389 0 0.4373098573822172819 1 I I 0 1 0.5 forward I I I I #
face $-1 $87 $88 $23 $-1 $89 forward single #
loop $-1 $90 $91 $31 #
cone-surface $-1 2.861098888213709834 13.50055698885329925 12.21981191010789836 0.8746197147644345637 0 -0.484809606490402778 0.242404803245201389 0 0.4373098573822172819 1 I I 0 1 0.5 forward I I I I #
face $-1 $92 $93 $16 $-1 $94 reversed single #
loop $-1 $-1 $95 $32 #
plane-surface $-1 68.84365367595447083 31.46298051479089963 0 0 0 1 1 0 0 forward_v I I I I #
coedge $-1 $96 $97 $98 $99 forward $33 $-1 #
face $-1 $100 $101 $17 $-1 $102 reversed single #
loop $-1 $-1 $103 $35 #
plane-surface $-1 68.84365367595447083 4.447181185939808046 13.55882189578927211 0 0 1 1 0 0 forward_v I I I I #
coedge $-1 $104 $105 $106 $107 forward $36 $-1 #
face $-1 $108 $109 $18 $-1 $110 reversed single #
loop $-1 $-1 $111 $38 #
plane-surface $-1 43.78479075676791865 40.68529375709819362 109.3485781512516297 0.7313537098837770145 0 0.6819983511997929071 0.6819983511997929071 0 -0.7313537098837770145 forward_v I I I I #
coedge $-1 $112 $113 $114 $115 forward $39 $-1 #
face $-1 $-1 $116 $19 $-1 $117 forward single #
loop $-1 $-1 $118 $41 #
plane-surface $-1 133.9436156534017925 39.0715544989927821 12.66507305052106069 0.7313537098837770145 0 0.6819983511997929071 -0.6819983511997929071 0 0.7313537098837770145 forward_v I I I I #
loop $-1 $-1 $119 $27 #
coedge $-1 $72 $72 $118 $120 reversed $42 $-1 #
face $-1 $-1 $121 $20 $-1 $122 forward single #
loop $-1 $-1 $123 $44 #
plane-surface $-1 133.9436156534017925 42.29903301520361225 12.66507305052106069 0.7313537098837770145 0 0.6819983511997929071 -0.6819983511997929071 0 0.7313537098837770145 forward_v I I I I #
loop $-1 $-1 $124 $28 #
coedge $-1 $77 $77 $123 $125 reversed $45 $-1 #
face $-1 $126 $127 $21 $-1 $128 reversed single #
loop $-1 $-1 $129 $47 #
plane-surface $-1 2.842170943040400743e-14 12.11869860376119412 8.3823791294542076 -0.8746197147644345637 0 0.484809606490402778 0.484809606490402778 0 0.8746197147644345637 forward_v I I I I #
coedge $-1 $130 $131 $132 $133 forward $48 $-1 #
face $-1 $-1 $134 $22 $-1 $135 forward single #
loop $-1 $-1 $136 $50 #
plane-surface $-1 2.299637446972790933 10.736840218669089 12.53103505748556401 -0.8746197147644345637 0 0.484809606490402778 -0.484809606490402778 0 -0.8746197147644345637 forward_v I I I I #
loop $-1 $-1 $137 $30 #
coedge $-1 $86 $86 $136 $138 reversed $51 $-1 #
face $-1 $-1 $139 $23 $-1 $140 forward single #
loop $-1 $-1 $141 $53 #
plane-surface $-1 2.299637446972790933 13.50055698885329925 12.53103505748556401 -0.8746197147644345637 0 0.484809606490402778 -0.484809606490402778 0 -0.8746197147644345637 forward_v I I I I #
loop $-1 $-1 $142 $31 #
coedge $-1 $91 $91 $141 $143 reversed $54 $-1 #
face $-1 $144 $145 $16 $-1 $146 reversed single #
loop $-1 $-1 $147 $56 #
plane-surface $-1 68.84365367595447083 0 8.339845492758456658 0 1 0 0 0 1 forward_v I I I I #
coedge $-1 $148 $149 $150 $151 forward $57 $-1 #
coedge $-1 $152 $59 $153 $154 forward $33 $-1 #
coedge $-1 $59 $152 $155 $156 forward $33 $-1 #
coedge $-1 $157 $158 $59 $99 reversed $159 $-1 #
edge $-1 $160 -31.46298051479089963 $161 31.46298051479089963 $98 $162 forward 7 unknown #
face $-1 $163 $164 $17 $-1 $165 reversed single #
loop $-1 $-1 $166 $60 #
plane-surface $-1 68.84365367595447083 0 15.11925644065309271 0 1 0 0 0 1 forward_v I I I I #
coedge $-1 $167 $168 $169 $170 forward $61 $-1 #
coedge $-1 $171 $63 $172 $173 forward $36 $-1 #
coedge $-1 $63 $171 $174 $175 forward $36 $-1 #
coedge $-1 $176 $177 $63 $107 reversed $178 $-1 #
edge $-1 $179 -4.447181185939808046 $180 4.447181185939808046 $106 $181 forward 7 unknown #
face $-1 $182 $183 $18 $-1 $184 reversed single #
loop $-1 $-1 $185 $64 #
plane-surface $-1 144.4829137924943723 36.91990215485222393 203.2510947463926527 0 1 0 0.7313537098837770145 0 0.6819983511997929071 forward_v I I I I #
coedge $-1 $186 $187 $188 $189 forward $65 $-1 #
coedge $-1 $190 $67 $191 $192 forward $39 $-1 #
coedge $-1 $67 $190 $193 $194 forward $39 $-1 #
coedge $-1 $195 $196 $67 $115 reversed $197 $-1 #
edge $-1 $198 -3.765391602245969693 $199 3.765391602245969693 $114 $200 forward 7 unknown #
loop $-1 $201 $202 $68 #
cone-surface $-1 132.6346416091416813 39.0715544989927821 11.44443503654203198 -0.7313537098837770145 0 -0.6819983511997929071 0.1704995877999482268 0 -0.1828384274709442536 1 I I -0.7071067811865474617 0.7071067811865474617 0.25 forward I I I I #
coedge $-1 $118 $118 $72 $120 forward $69 $-1 #
coedge $-1 $119 $119 $202 $203 forward $71 $-1 #
edge $-1 $204 0 $204 6.283185307179586232 $118 $205 forward 7 unknown #
loop $-1 $206 $207 $73 #
cone-surface $-1 132.6346416091416813 42.29903301520361225 11.44443503654203198 -0.7313537098837770145 0 -0.6819983511997929071 0.1704995877999482268 0 -0.1828384274709442536 1 I I -0.7071067811865474617 0.7071067811865474617 0.25 forward I I I I #
coedge $-1 $123 $123 $77 $125 forward $74 $-1 #
coedge $-1 $124 $124 $207 $208 forward $76 $-1 #
edge $-1 $209 0 $209 6.283185307179586232 $123 $210 forward 7 unknown #
face $-1 $211 $212 $21 $-1 $213 reversed single #
loop $-1 $-1 $214 $78 #
plane-surface $-1 -120.4240334828096053 8.894362371879616092 75.13450842545631758 0 1 0 -0.8746197147644345637 0 0.484809606490402778 forward_v I I I I #
coedge $-1 $215 $216 $217 $218 forward $79 $-1 #
coedge $-1 $219 $81 $220 $221 forward $48 $-1 #
coedge $-1 $81 $219 $222 $223 forward $48 $-1 #
coedge $-1 $224 $225 $81 $133 reversed $226 $-1 #
edge $-1 $227 -3.22433623188157803 $228 3.22433623188157803 $132 $229 forward 7 unknown #
loop $-1 $230 $231 $82 #
cone-surface $-1 3.641215258145737987 10.736840218669089 11.78738636110763061 0.8746197147644345637 0 -0.484809606490402778 0.1212024016226006945 0 0.2186549286911086409 1 I I -0.7071067811865474617 0.7071067811865474617 0.25 forward I I I I #
coedge $-1 $136 $136 $86 $138 forward $83 $-1 #
coedge $-1 $137 $137 $231 $232 forward $85 $-1 #
edge $-1 $233 0 $233 6.283185307179586232 $136 $234 forward 7 unknown #
loop $-1 $235 $236 $87 #
cone-surface $-1 3.641215258145737987 13.50055698885329925 11.78738636110763061 0.8746197147644345637 0 -0.484809606490402778 0.1212024016226006945 0 0.2186549286911086409 1 I I -0.7071067811865474617 0.7071067811865474617 0.25 forward I I I I #
coedge $-1 $141 $141 $91 $143 forward $88 $-1 #
coedge $-1 $142 $142 $236 $237 forward $90 $-1 #
edge $-1 $238 0 $238 6.283185307179586232 $141 $239 forward 7 unknown #
face $-1 $240 $241 $16 $-1 $242 reversed single #
loop $-1 $-1 $243 $92 #
plane-surface $-1 0 31.46298051479089963 8.339845492758456658 1 0 0 0 0 -1 forward_v I I I I #
coedge $-1 $244 $155 $245 $246 forward $93 $-1 #
coedge $-1 $247 $95 $244 $248 forward $57 $-1 #
coedge $-1 $95 $247 $249 $250 forward $57 $-1 #
coedge $-1 $158 $157 $95 $151 reversed $159 $-1 #
edge $-1 $251 -31.46298051479089963 $252 31.46298051479089963 $150 $253 forward 7 unknown #
coedge $-1 $97 $96 $254 $255 forward $33 $-1 #
coedge $-1 $256 $257 $96 $154 reversed $241 $-1 #
edge $-1 $161 -68.84365367595447083 $258 68.84365367595447083 $153 $259 forward 7 unknown #
coedge $-1 $147 $260 $97 $156 reversed $93 $-1 #
edge $-1 $261 -68.84365367595447083 $160 68.84365367595447083 $155 $262 forward 7 unknown #
coedge $-1 $150 $98 $260 $263 forward $159 $-1 #
coedge $-1 $98 $150 $256 $264 reversed $159 $-1 #
loop $-1 $-1 $157 $240 #
vertex $-1 $99 $265 #
vertex $-1 $99 $266 #
straight-curve $-1 137.6873073519089417 31.46298051479089963 16.67969098551691332 0 1 0 I I #
face $-1 $267 $268 $17 $-1 $269 reversed single #
loop $-1 $-1 $270 $100 #
plane-surface $-1 0 4.447181185939808046 15.11925644065309271 1 0 0 0 0 -1 forward_v I I I I #
coedge $-1 $271 $174 $272 $273 forward $101 $-1 #
coedge $-1 $274 $103 $271 $275 forward $61 $-1 #
coedge $-1 $103 $274 $276 $277 forward $61 $-1 #
coedge $-1 $177 $176 $103 $170 reversed $178 $-1 #
edge $-1 $278 -4.447181185939808046 $279 4.447181185939808046 $169 $280 forward 7 unknown #
coedge $-1 $105 $104 $281 $282 forward $36 $-1 #
coedge $-1 $283 $284 $104 $173 reversed $268 $-1 #
edge $-1 $180 -68.84365367595447083 $285 68.84365367595447083 $172 $286 forward 7 unknown #
coedge $-1 $166 $287 $105 $175 reversed $101 $-1 #
edge $-1 $288 -68.84365367595447083 $179 68.84365367595447083 $174 $289 forward 7 unknown #
coedge $-1 $169 $106 $287 $290 forward $178 $-1 #
coedge $-1 $106 $169 $283 $291 reversed $178 $-1 #
loop $-1 $-1 $176 $267 #
vertex $-1 $107 $292 #
vertex $-1 $107 $293 #
straight-curve $-1 137.6873073519089417 4.447181185939808046 16.67969098551691332 0 1 0 I I #
face $-1 $294 $295 $18 $-1 $296 reversed single #
loop $-1 $-1 $297 $108 #
plane-surface $-1 -43.32211939778767373 40.68529375709819362 404.6473408178455884 0.6819983511997929071 0 -0.7313537098837770145 -0.7313537098837770145 0 -0.6819983511997929071 forward_v I I I I #
coedge $-1 $298 $193 $299 $300 forward $109 $-1 #
coedge $-1 $301 $111 $298 $302 forward $65 $-1 #
coedge $-1 $111 $301 $303 $304 forward $65 $-1 #
coedge $-1 $196 $195 $111 $189 reversed $197 $-1 #
edge $-1 $305 -3.765391602245969693 $306 3.765391602245969693 $188 $307 forward 7 unknown #
coedge $-1 $113 $112 $308 $309 forward $39 $-1 #
coedge $-1 $310 $311 $112 $192 reversed $295 $-1 #
edge $-1 $199 -275.3746147038178833 $312 275.3746147038178833 $191 $313 forward 7 unknown #
coedge $-1 $185 $314 $113 $194 reversed $109 $-1 #
edge $-1 $315 -275.3746147038178833 $198 275.3746147038178833 $193 $316 forward 7 unknown #
coedge $-1 $188 $114 $314 $317 forward $197 $-1 #
coedge $-1 $114 $188 $310 $318 reversed $197 $-1 #
loop $-1 $-1 $195 $294 #
vertex $-1 $115 $319 #
vertex $-1 $115 $320 #
straight-curve $-1 432.9860700185029145 40.68529375709819362 95.75736527008076848 0 1 0 I I #
loop $-1 $-1 $321 $68 #
coedge $-1 $202 $202 $119 $203 reversed $116 $-1 #
edge $-1 $322 0 $322 6.283185307179586232 $202 $323 forward 7 unknown #
vertex $-1 $120 $324 #
ellipse-curve $-1 133.9436156534017925 39.0715544989927821 12.66507305052106069 0.7313537098837770145 0 0.6819983511997929071 0.3409991755998964535 0 -0.3656768549418885073 1 I I #
loop $-1 $-1 $325 $73 #
coedge $-1 $207 $207 $124 $208 reversed $121 $-1 #
edge $-1 $326 0 $326 6.283185307179586232 $207 $327 forward 7 unknown #
vertex $-1 $125 $328 #
ellipse-curve $-1 133.9436156534017925 42.29903301520361225 12.66507305052106069 0.7313537098837770145 0 0.6819983511997929071 0.3409991755998964535 0 -0.3656768549418885073 1 I I #
face $-1 $329 $330 $21 $-1 $331 reversed single #
loop $-1 $-1 $332 $126 #
plane-surface $-1 -253.9282920748138395 12.11869860376119412 -165.7135585401629498 0.484809606490402778 0 0.8746197147644345637 0.8746197147644345637 0 -0.484809606490402778 forward_v I I I I #
coedge $-1 $333 $222 $334 $335 forward $127 $-1 #
coedge $-1 $336 $129 $333 $337 forward $79 $-1 #
coedge $-1 $129 $336 $338 $339 forward $79 $-1 #
coedge $-1 $225 $224 $129 $218 reversed $226 $-1 #
edge $-1 $340 -3.22433623188157803 $341 3.22433623188157803 $217 $342 forward 7 unknown #
coedge $-1 $131 $130 $343 $344 forward $48 $-1 #
coedge $-1 $345 $346 $130 $221 reversed $330 $-1 #
edge $-1 $228 -275.3746147038178833 $347 275.3746147038178833 $220 $348 forward 7 unknown #
coedge $-1 $214 $349 $131 $223 reversed $127 $-1 #
edge $-1 $350 -275.3746147038178833 $227 275.3746147038178833 $222 $351 forward 7 unknown #
coedge $-1 $217 $132 $349 $352 forward $226 $-1 #
coedge $-1 $132 $217 $345 $353 reversed $226 $-1 #
loop $-1 $-1 $224 $329 #
vertex $-1 $133 $354 #
vertex $-1 $133 $355 #
straight-curve $-1 -107.343808373615019 12.11869860376119412 382.7347046870776808 0 1 0 I I #
loop $-1 $-1 $356 $82 #
coedge $-1 $231 $231 $137 $232 reversed $134 $-1 #
edge $-1 $357 0 $357 6.283185307179586232 $231 $358 forward 7 unknown #
vertex $-1 $138 $359 #
ellipse-curve $-1 2.299637446972790933 10.736840218669089 12.53103505748556401 -0.8746197147644345637 0 0.484809606490402778 0.242404803245201389 0 0.4373098573822172819 1 I I #
loop $-1 $-1 $360 $87 #
coedge $-1 $236 $236 $142 $237 reversed $139 $-1 #
edge $-1 $361 0 $361 6.283185307179586232 $236 $362 forward 7 unknown #
vertex $-1 $143 $363 #
ellipse-curve $-1 2.299637446972790933 13.50055698885329925 12.53103505748556401 -0.8746197147644345637 0 0.484809606490402778 0.242404803245201389 0 0.4373098573822172819 1 I I #
face $-1 $-1 $159 $16 $-1 $364 reversed single #
loop $-1 $-1 $256 $144 #
plane-surface $-1 68.84365367595447083 62.92596102958179927 8.339845492758456658 0 -1 0 0 0 -1 forward_v I I I I #
coedge $-1 $365 $254 $257 $366 forward $145 $-1 #
coedge $-1 $260 $147 $148 $248 reversed $93 $-1 #
coedge $-1 $254 $365 $147 $246 reversed $145 $-1 #
edge $-1 $261 -8.339845492758456658 $367 8.339845492758456658 $245 $368 forward 7 unknown #
coedge $-1 $149 $148 $365 $369 forward $57 $-1 #
edge $-1 $252 -68.84365367595447083 $367 68.84365367595447083 $244 $370 forward 7 unknown #
coedge $-1 $257 $256 $149 $250 reversed $241 $-1 #
edge $-1 $371 -68.84365367595447083 $251 68.84365367595447083 $249 $372 forward 7 unknown #
vertex $-1 $151 $373 #
vertex $-1 $263 $374 #
straight-curve $-1 137.6873073519089417 31.46298051479089963 0 0 -1 0 I I #
coedge $-1 $243 $245 $152 $255 reversed $145 $-1 #
edge $-1 $258 -31.46298051479089963 $261 31.46298051479089963 $254 $375 forward 7 unknown #
coedge $-1 $249 $153 $158 $264 forward $241 $-1 #
coedge $-1 $153 $249 $243 $366 reversed $241 $-1 #
vertex $-1 $154 $376 #
straight-curve $-1 68.84365367595447083 62.92596102958179927 16.67969098551691332 -1 0 0 I I #
coedge $-1 $155 $244 $157 $263 reversed $93 $-1 #
vertex $-1 $255 $377 #
straight-curve $-1 68.84365367595447083 0 16.67969098551691332 1 0 0 I I #
edge $-1 $160 -8.339845492758456658 $252 8.339845492758456658 $157 $378 forward 7 unknown #
edge $-1 $161 -8.339845492758456658 $251 8.339845492758456658 $158 $379 forward 7 unknown #
point $-1 137.6873073519089417 0 16.67969098551691332 #
point $-1 137.6873073519089417 62.92596102958179927 16.67969098551691332 #
face $-1 $-1 $178 $17 $-1 $380 reversed single #
loop $-1 $-1 $283 $163 #
plane-surface $-1 68.84365367595447083 8.894362371879616092 15.11925644065309271 0 -1 0 0 0 -1 forward_v I I I I #
coedge $-1 $381 $281 $284 $382 forward $164 $-1 #
coedge $-1 $287 $166 $167 $275 reversed $101 $-1 #
coedge $-1 $281 $381 $166 $273 reversed $164 $-1 #
edge $-1 $288 -1.560434544863820605 $383 1.560434544863820605 $272 $384 forward 7 unknown #
coedge $-1 $168 $167 $381 $385 forward $61 $-1 #
edge $-1 $279 -68.84365367595447083 $383 68.84365367595447083 $271 $386 forward 7 unknown #
coedge $-1 $284 $283 $168 $277 reversed $268 $-1 #
edge $-1 $387 -68.84365367595447083 $278 68.84365367595447083 $276 $388 forward 7 unknown #
vertex $-1 $170 $389 #
vertex $-1 $290 $390 #
straight-curve $-1 137.6873073519089417 4.447181185939808046 13.55882189578927211 0 -1 0 I I #
coedge $-1 $270 $272 $171 $282 reversed $164 $-1 #
edge $-1 $285 -4.447181185939808046 $288 4.447181185939808046 $281 $391 forward 7 unknown #
coedge $-1 $276 $172 $177 $291 forward $268 $-1 #
coedge $-1 $172 $276 $270 $382 reversed $268 $-1 #
vertex $-1 $173 $392 #
straight-curve $-1 68.84365367595447083 8.894362371879616092 16.67969098551691332 -1 0 0 I I #
coedge $-1 $174 $271 $176 $290 reversed $101 $-1 #
vertex $-1 $282 $393 #
straight-curve $-1 68.84365367595447083 0 16.67969098551691332 1 0 0 I I #
edge $-1 $179 -1.560434544863820605 $279 1.560434544863820605 $176 $394 forward 7 unknown #
edge $-1 $180 -1.560434544863820605 $278 1.560434544863820605 $177 $395 forward 7 unknown #
point $-1 137.6873073519089417 0 16.67969098551691332 #
point $-1 137.6873073519089417 8.894362371879616092 16.67969098551691332 #
face $-1 $-1 $197 $18 $-1 $396 reversed single #
loop $-1 $-1 $310 $182 #
plane-surface $-1 144.4829137924943723 44.45068535934416332 203.2510947463926527 0 -1 0 -0.7313537098837770145 0 -0.6819983511997929071 forward_v I I I I #
coedge $-1 $397 $308 $311 $398 forward $183 $-1 #
coedge $-1 $314 $185 $186 $302 reversed $109 $-1 #
coedge $-1 $308 $397 $185 $300 reversed $183 $-1 #
edge $-1 $315 -137.6873073519089132 $399 137.6873073519089417 $299 $400 forward 7 unknown #
coedge $-1 $187 $186 $397 $401 forward $65 $-1 #
edge $-1 $306 -275.3746147038178833 $399 275.3746147038178833 $298 $402 forward 7 unknown #
coedge $-1 $311 $310 $187 $304 reversed $295 $-1 #
edge $-1 $403 -275.3746147038178833 $305 275.3746147038178833 $303 $404 forward 7 unknown #
vertex $-1 $189 $405 #
vertex $-1 $317 $406 #
straight-curve $-1 231.5898239470499789 40.68529375709819362 -92.04766792020126331 0 -1 0 I I #
coedge $-1 $297 $299 $190 $309 reversed $183 $-1 #
edge $-1 $312 -3.765391602245969693 $315 3.765391602245969693 $308 $407 forward 7 unknown #
coedge $-1 $303 $191 $196 $318 forward $295 $-1 #
coedge $-1 $191 $303 $297 $398 reversed $295 $-1 #
vertex $-1 $192 $408 #
straight-curve $-1 245.1810368282208401 44.45068535934416332 297.1536113415336899 -0.6819983511997929071 0 0.7313537098837770145 I I #
coedge $-1 $193 $298 $195 $317 reversed $109 $-1 #
vertex $-1 $309 $409 #
straight-curve $-1 245.1810368282208401 36.91990215485222393 297.1536113415336899 0.6819983511997929071 0 -0.7313537098837770145 I I #
edge $-1 $198 -137.6873073519089701 $306 137.6873073519089132 $195 $410 forward 7 unknown #
edge $-1 $199 -137.6873073519089701 $305 137.6873073519089132 $196 $411 forward 7 unknown #
point $-1 432.9860700185029145 36.91990215485222393 95.75736527008076848 #
point $-1 432.9860700185029145 44.45068535934416332 95.75736527008076848 #
coedge $-1 $321 $321 $-1 $412 reversed $201 $-1 #
vertex $-1 $203 $413 #
ellipse-curve $-1 132.8174800366126362 39.0715544989927821 11.61493462434198065 0.7313537098837770145 0 0.6819983511997929071 0.3409991755998964535 0 -0.3656768549418885073 1 I I #
point $-1 134.284614829001697 39.0715544989927821 12.29939619557917219 #
coedge $-1 $325 $325 $-1 $414 reversed $206 $-1 #
vertex $-1 $208 $415 #
ellipse-curve $-1 132.8174800366126362 42.29903301520361225 11.61493462434198065 0.7313537098837770145 0 0.6819983511997929071 0.3409991755998964535 0 -0.3656768549418885073 1 I I #
point $-1 134.284614829001697 42.29903301520361225 12.29939619557917219 #
face $-1 $-1 $226 $21 $-1 $416 reversed single #
loop $-1 $-1 $345 $211 #
plane-surface $-1 -120.4240334828096053 15.34303483564277215 75.13450842545631758 0 -1 0 0.8746197147644345637 0 -0.484809606490402778 forward_v I I I I #
coedge $-1 $417 $343 $346 $418 forward $212 $-1 #
coedge $-1 $349 $214 $215 $337 reversed $127 $-1 #
coedge $-1 $343 $417 $214 $335 reversed $212 $-1 #
edge $-1 $350 -137.6873073519089132 $419 137.6873073519089417 $334 $420 forward 7 unknown #
coedge $-1 $216 $215 $417 $421 forward $79 $-1 #
edge $-1 $341 -275.3746147038179402 $419 275.3746147038178833 $333 $422 forward 7 unknown #
coedge $-1 $346 $345 $216 $339 reversed $330 $-1 #
edge $-1 $423 -275.3746147038178833 $340 275.3746147038179402 $338 $424 forward 7 unknown #
vertex $-1 $218 $425 #
vertex $-1 $352 $426 #
straight-curve $-1 133.5042585920042484 12.11869860376119412 249.2304460950734892 0 -1 0 I I #
coedge $-1 $332 $334 $219 $344 reversed $212 $-1 #
edge $-1 $347 -3.22433623188157803 $350 3.22433623188157803 $343 $427 forward 7 unknown #
coedge $-1 $338 $220 $225 $353 forward $330 $-1 #
coedge $-1 $220 $338 $332 $418 reversed $330 $-1 #
vertex $-1 $221 $428 #
straight-curve $-1 -240.848066965619239 15.34303483564277215 141.8866377214584418 -0.484809606490402778 0 -0.8746197147644345637 I I #
coedge $-1 $222 $333 $224 $352 reversed $127 $-1 #
vertex $-1 $344 $429 #
straight-curve $-1 -240.848066965619239 8.894362371879616092 141.8866377214584418 0.484809606490402778 0 0.8746197147644345637 I I #
edge $-1 $227 -137.6873073519089417 $341 137.6873073519089417 $224 $430 forward 7 unknown #
edge $-1 $228 -137.6873073519089417 $340 137.6873073519089417 $225 $431 forward 7 unknown #
point $-1 -107.343808373615019 8.894362371879616092 382.7347046870776808 #
point $-1 -107.343808373615019 15.34303483564277215 382.7347046870776808 #
coedge $-1 $356 $356 $-1 $432 reversed $230 $-1 #
vertex $-1 $232 $433 #
ellipse-curve $-1 3.42256032945462918 10.736840218669089 11.90858876273023093 -0.8746197147644345637 0 0.484809606490402778 0.242404803245201389 0 0.4373098573822172819 1 I I #
point $-1 2.542042250217992461 10.736840218669089 12.96834491486778163 #
coedge $-1 $360 $360 $-1 $434 reversed $235 $-1 #
vertex $-1 $237 $435 #
ellipse-curve $-1 3.42256032945462918 13.50055698885329925 11.90858876273023093 -0.8746197147644345637 0 0.484809606490402778 0.242404803245201389 0 0.4373098573822172819 1 I I #
point $-1 2.542042250217992461 13.50055698885329925 12.96834491486778163 #
plane-surface $-1 137.6873073519089417 31.46298051479089963 8.339845492758456658 -1 0 0 0 0 1 forward_v I I I I #
coedge $-1 $245 $243 $247 $369 reversed $145 $-1 #
edge $-1 $258 -8.339845492758456658 $371 8.339845492758456658 $257 $436 forward 7 unknown #
vertex $-1 $369 $437 #
straight-curve $-1 0 0 8.339845492758456658 0 0 -1 I I #
edge $-1 $367 -31.46298051479089963 $371 31.46298051479089963 $365 $438 forward 7 unknown #
straight-curve $-1 68.84365367595447083 0 0 -1 0 0 I I #
vertex $-1 $250 $439 #
straight-curve $-1 68.84365367595447083 62.92596102958179927 0 1 0 0 I I #
point $-1 137.6873073519089417 62.92596102958179927 0 #
point $-1 137.6873073519089417 0 0 #
straight-curve $-1 0 31.46298051479089963 16.67969098551691332 0 -1 0 I I #
point $-1 0 62.92596102958179927 16.67969098551691332 #
point $-1 0 0 16.67969098551691332 #
straight-curve $-1 137.6873073519089417 0 8.339845492758456658 0 0 -1 I I #
straight-curve $-1 137.6873073519089417 62.92596102958179927 8.339845492758456658 0 0 -1 I I #
plane-surface $-1 137.6873073519089417 4.447181185939808046 15.11925644065309271 -1 0 0 0 0 1 forward_v I I I I #
coedge $-1 $272 $270 $274 $385 reversed $164 $-1 #
edge $-1 $285 -1.560434544863820605 $387 1.560434544863820605 $284 $440 forward 7 unknown #
vertex $-1 $385 $441 #
straight-curve $-1 0 0 15.11925644065309271 0 0 -1 I I #
edge $-1 $383 -4.447181185939808046 $387 4.447181185939808046 $381 $442 forward 7 unknown #
straight-curve $-1 68.84365367595447083 0 13.55882189578927211 -1 0 0 I I #
vertex $-1 $277 $443 #
straight-curve $-1 68.84365367595447083 8.894362371879616092 13.55882189578927211 1 0 0 I I #
point $-1 137.6873073519089417 8.894362371879616092 13.55882189578927211 #
point $-1 137.6873073519089417 0 13.55882189578927211 #
straight-curve $-1 0 4.447181185939808046 16.67969098551691332 0 -1 0 I I #
point $-1 0 8.894362371879616092 16.67969098551691332 #
point $-1 0 0 16.67969098551691332 #
straight-curve $-1 137.6873073519089417 0 15.11925644065309271 0 0 -1 I I #
straight-curve $-1 137.6873073519089417 8.894362371879616092 15.11925644065309271 0 0 -1 I I #
plane-surface $-1 332.2879469827764183 40.68529375709819362 1.854848674939745479 -0.6819983511997929071 0 0.7313537098837770145 0.7313537098837770145 0 0.6819983511997929071 forward_v I I I I #
coedge $-1 $299 $297 $301 $401 reversed $183 $-1 #
edge $-1 $312 -137.6873073519089132 $403 137.6873073519089417 $311 $444 forward 7 unknown #
vertex $-1 $401 $445 #
straight-curve $-1 -43.32211939778767373 36.91990215485222393 404.6473408178455884 -0.7313537098837770145 0 -0.6819983511997929071 I I #
edge $-1 $399 -3.765391602245969693 $403 3.765391602245969693 $397 $446 forward 7 unknown #
straight-curve $-1 43.78479075676791865 36.91990215485222393 109.3485781512516297 -0.6819983511997929071 0 0.7313537098837770145 I I #
vertex $-1 $304 $447 #
straight-curve $-1 43.78479075676791865 44.45068535934416332 109.3485781512516297 0.6819983511997929071 0 -0.7313537098837770145 I I #
point $-1 231.5898239470499789 44.45068535934416332 -92.04766792020126331 #
point $-1 231.5898239470499789 36.91990215485222393 -92.04766792020126331 #
straight-curve $-1 57.37600363793877989 40.68529375709819362 498.5498574129865688 0 -1 0 I I #
point $-1 57.37600363793877989 44.45068535934416332 498.5498574129865688 #
point $-1 57.37600363793877989 36.91990215485222393 498.5498574129865688 #
straight-curve $-1 332.2879469827764183 36.91990215485222393 1.854848674939745479 -0.7313537098837770145 0 -0.6819983511997929071 I I #
straight-curve $-1 332.2879469827764183 44.45068535934416332 1.854848674939745479 -0.7313537098837770145 0 -0.6819983511997929071 I I #
edge $-1 $448 1 $448 0 $321 $-1 forward 7 unknown #
point $-1 133.1584792122125123 39.0715544989927821 11.24925776940009214 #
edge $-1 $449 1 $449 0 $325 $-1 forward 7 unknown #
point $-1 133.1584792122125123 42.29903301520361225 11.24925776940009214 #
plane-surface $-1 13.08022510919461467 12.11869860376119412 315.9825753910755566 -0.484809606490402778 0 -0.8746197147644345637 -0.8746197147644345637 0 0.484809606490402778 forward_v I I I I #
coedge $-1 $334 $332 $336 $421 reversed $212 $-1 #
edge $-1 $347 -137.6873073519089132 $423 137.6873073519089417 $346 $450 forward 7 unknown #
vertex $-1 $421 $451 #
straight-curve $-1 -253.9282920748138395 8.894362371879616092 -165.7135585401629498 0.8746197147644345637 0 -0.484809606490402778 I I #
edge $-1 $419 -3.22433623188157803 $423 3.22433623188157803 $417 $452 forward 7 unknown #
straight-curve $-1 2.842170943040400743e-14 8.894362371879616092 8.3823791294542076 -0.484809606490402778 0 -0.8746197147644345637 I I #
vertex $-1 $339 $453 #
straight-curve $-1 2.842170943040400743e-14 15.34303483564277215 8.3823791294542076 0.484809606490402778 0 0.8746197147644345637 I I #
point $-1 133.5042585920042484 15.34303483564277215 249.2304460950734892 #
point $-1 133.5042585920042484 8.894362371879616092 249.2304460950734892 #
straight-curve $-1 -374.3523255576234305 12.11869860376119412 -98.96142924416085407 0 -1 0 I I #
point $-1 -374.3523255576234305 15.34303483564277215 -98.96142924416085407 #
point $-1 -374.3523255576234305 8.894362371879616092 -98.96142924416085407 #
straight-curve $-1 13.08022510919461467 8.894362371879616092 315.9825753910755566 0.8746197147644345637 0 -0.484809606490402778 I I #
straight-curve $-1 13.08022510919461467 15.34303483564277215 315.9825753910755566 0.8746197147644345637 0 -0.484809606490402778 I I #
edge $-1 $454 1 $454 0 $356 $-1 forward 7 unknown #
point $-1 3.664965132699830708 10.736840218669089 12.34589862011244854 #
edge $-1 $455 1 $455 0 $360 $-1 forward 7 unknown #
point $-1 3.664965132699830708 13.50055698885329925 12.34589862011244854 #
straight-curve $-1 0 62.92596102958179927 8.339845492758456658 0 0 -1 I I #
point $-1 0 0 0 #
straight-curve $-1 0 31.46298051479089963 0 0 1 0 I I #
point $-1 0 62.92596102958179927 0 #
straight-curve $-1 0 8.894362371879616092 15.11925644065309271 0 0 -1 I I #
point $-1 0 0 13.55882189578927211 #
straight-curve $-1 0 4.447181185939808046 13.55882189578927211 0 1 0 I I #
point $-1 0 8.894362371879616092 13.55882189578927211 #
straight-curve $-1 -43.32211939778767373 44.45068535934416332 404.6473408178455884 -0.7313537098837770145 0 -0.6819983511997929071 I I #
point $-1 -144.0202424335141416 36.91990215485222393 310.7448242227045512 #
straight-curve $-1 -144.0202424335141416 40.68529375709819362 310.7448242227045512 0 1 0 I I #
point $-1 -144.0202424335141416 44.45068535934416332 310.7448242227045512 #
vertex $-1 $412 $456 #
vertex $-1 $414 $457 #
straight-curve $-1 -253.9282920748138395 15.34303483564277215 -165.7135585401629498 0.8746197147644345637 0 -0.484809606490402778 I I #
point $-1 -133.5042585920041915 8.894362371879616092 -232.4656878361650456 #
straight-curve $-1 -133.5042585920041915 12.11869860376119412 -232.4656878361650456 0 1 0 I I #
point $-1 -133.5042585920041915 15.34303483564277215 -232.4656878361650456 #
vertex $-1 $432 $458 #
vertex $-1 $434 $459 #
point $-1 132.4518031816707264 39.0715544989927821 11.27393544874208331 #
point $-1 132.4518031816707264 42.29903301520361225 11.27393544874208331 #
point $-1 3.859870186836846795 10.736840218669089 11.66618395948503029 #
point $-1 3.859870186836846795 13.50055698885329925 11.66618395948503029 #
End-of-ACIS-data 