300 0 8 0           
7 Unknown 11 ACIS 3.0 NT 24 Fri Oct 30 14:02:04 1998 
-1 9.9999999999999995e-007 1e-010 
body $8 $9 $-1 $10 #
body $11 $12 $-1 $13 #
body $14 $15 $-1 $16 #
body $17 $18 $-1 $19 #
body $20 $21 $-1 $22 #
body $23 $24 $-1 $25 #
body $26 $27 $-1 $28 #
body $29 $30 $-1 $31 #
display_attribute-st-attrib $-1 $32 $-1 $0 1 #
lump $-1 $-1 $33 $0 #
transform $-1 1 0 0 0 1 0 0 0 1 74.358958708456683 51.294224414040308 25.271880248279793 1 rotate no_reflect no_shear #
display_attribute-st-attrib $-1 $34 $-1 $1 7 #
lump $-1 $-1 $35 $1 #
transform $-1 1 0 0 0 1 0 0 0 1 74.358958708456683 51.294224414040308 25.271880248279793 1 rotate no_reflect no_shear #
display_attribute-st-attrib $-1 $36 $-1 $2 6 #
lump $-1 $-1 $37 $2 #
transform $-1 1 0 0 0 1 0 0 0 1 74.358958708456683 51.294224414040308 25.271880248279793 1 rotate no_reflect no_shear #
display_attribute-st-attrib $-1 $38 $-1 $3 5 #
lump $-1 $-1 $39 $3 #
transform $-1 1 0 0 0 1 0 0 0 1 74.358958708456683 51.294224414040308 25.271880248279793 1 rotate no_reflect no_shear #
display_attribute-st-attrib $-1 $40 $-1 $4 4 #
lump $-1 $-1 $41 $4 #
transform $-1 1 0 0 0 1 0 0 0 1 74.358958708456683 51.294224414040308 25.271880248279793 1 rotate no_reflect no_shear #
display_attribute-st-attrib $-1 $42 $-1 $5 3 #
lump $-1 $-1 $43 $5 #
transform $-1 1 0 0 0 1 0 0 0 1 74.358958708456683 51.294224414040308 25.271880248279793 1 rotate no_reflect no_shear #
display_attribute-st-attrib $-1 $44 $-1 $6 2 #
lump $-1 $-1 $45 $6 #
transform $-1 1 0 0 0 1 0 0 0 1 74.358958708456683 51.294224414040308 25.271880248279793 1 rotate no_reflect no_shear #
display_attribute-st-attrib $-1 $46 $-1 $7 1 #
lump $-1 $-1 $47 $7 #
transform $-1 1 0 0 0 1 0 0 0 1 74.358958708456683 51.294224414040308 25.271880248279793 1 rotate no_reflect no_shear #
id_attribute-st-attrib $-1 $-1 $8 $0 5 #
shell $-1 $-1 $-1 $48 $-1 $9 #
id_attribute-st-attrib $-1 $-1 $11 $1 13 #
shell $-1 $-1 $-1 $49 $-1 $12 #
id_attribute-st-attrib $-1 $-1 $14 $2 25 #
shell $-1 $-1 $-1 $50 $-1 $15 #
id_attribute-st-attrib $-1 $-1 $17 $3 33 #
shell $-1 $-1 $-1 $51 $-1 $18 #
id_attribute-st-attrib $-1 $-1 $20 $4 42 #
shell $-1 $-1 $-1 $52 $-1 $21 #
id_attribute-st-attrib $-1 $-1 $23 $5 57 #
shell $-1 $-1 $-1 $53 $-1 $24 #
id_attribute-st-attrib $-1 $-1 $26 $6 68 #
shell $-1 $-1 $-1 $54 $-1 $27 #
id_attribute-st-attrib $-1 $-1 $29 $7 80 #
shell $-1 $-1 $-1 $55 $-1 $30 #
face $-1 $56 $57 $33 $-1 $58 forward single #
face $-1 $59 $60 $35 $-1 $61 forward single #
face $-1 $62 $63 $37 $-1 $64 reversed single #
face $-1 $65 $66 $39 $-1 $67 forward single #
face $-1 $68 $69 $41 $-1 $70 forward single #
face $-1 $71 $72 $43 $-1 $73 reversed single #
face $-1 $74 $75 $45 $-1 $76 forward single #
face $-1 $77 $78 $47 $-1 $79 forward single #
face $-1 $80 $81 $33 $-1 $82 reversed single #
loop $-1 $-1 $83 $48 #
plane-surface $-1 0 0 25.271880248279793 0 0 1 1 0 0 forward_v I I I I #
face $-1 $84 $85 $35 $-1 $86 reversed single #
loop $-1 $-1 $87 $49 #
plane-surface $-1 0 -38.237816412006353 -11.307907328964481 0 0 1 1 0 0 forward_v I I I I #
face $-1 $88 $89 $37 $-1 $90 reversed single #
loop $-1 $-1 $91 $50 #
plane-surface $-1 30.631203226546745 -16.671694220707799 222.52522109253641 0 -1 0 -0.54463904215088732 0 -0.83867056331134215 forward_v I I I I #
face $-1 $92 $93 $39 $-1 $94 forward single #
loop $-1 $95 $96 $51 #
cone-surface $-1 67.565632385297931 -22.750061498753936 20.617753555174993 -0.54463904215088732 0 -0.83867056331134215 0.41933528165567108 0 -0.27231952107544366 1 I I 0 1 forward I I I I #
face $-1 $97 $98 $41 $-1 $99 forward single #
loop $-1 $100 $101 $52 #
cone-surface $-1 67.565632385297931 -19.103041131926254 20.617753555174993 -0.54463904215088732 0 -0.83867056331134215 0.41933528165567108 0 -0.27231952107544366 1 I I 0 1 forward I I I I #
face $-1 $102 $103 $43 $-1 $104 reversed single #
loop $-1 $-1 $105 $53 #
plane-surface $-1 -197.65170115996949 10.204088734676059 88.318241265939179 0 1 0 -0.82903758062907751 0 0.55919289150049634 forward_v I I I I #
face $-1 $106 $107 $45 $-1 $108 forward single #
loop $-1 $109 $110 $54 #
cone-surface $-1 -66.562201075274402 14.582326965933298 14.531003642295904 0.82903758062907751 0 -0.55919289150049634 0.55919289150049634 0 0.82903758062907751 1 I I 0 1 forward I I I I #
face $-1 $111 $112 $47 $-1 $113 forward single #
loop $-1 $114 $115 $55 #
cone-surface $-1 -66.562201075274402 21.149684312819154 14.531003642295904 0.82903758062907751 0 -0.55919289150049634 0.55919289150049634 0 0.82903758062907751 1 I I 0 1 forward I I I I #
face $-1 $116 $117 $33 $-1 $118 reversed single #
loop $-1 $-1 $119 $56 #
plane-surface $-1 0 0 -25.271880248279793 0 0 1 1 0 0 forward_v I I I I #
coedge $-1 $120 $121 $122 $123 forward $57 $-1 #
face $-1 $124 $125 $35 $-1 $126 reversed single #
loop $-1 $-1 $127 $59 #
plane-surface $-1 0 -25.181408409972395 -18.289893788622138 0 -1 0 0 0 -1 forward_v I I I I #
coedge $-1 $128 $129 $130 $131 reversed $60 $-1 #
face $-1 $132 $133 $37 $-1 $134 reversed single #
loop $-1 $-1 $135 $62 #
plane-surface $-1 -50.366380866075716 -20.926551315340095 97.799881518004014 0.54463904215088732 0 0.83867056331134215 0.83867056331134215 0 -0.54463904215088732 forward_v I I I I #
coedge $-1 $136 $137 $138 $139 reversed $63 $-1 #
face $-1 $-1 $140 $39 $-1 $141 forward single #
loop $-1 $142 $143 $65 #
cone-surface $-1 67.157153103684763 -22.750061498753936 19.988750632691485 -0.54463904215088732 0 -0.83867056331134215 0.20966764082783554 0 -0.13615976053772183 1 I I -0.70710678118654746 0.70710678118654746 forward I I I I #
loop $-1 $-1 $144 $51 #
coedge $-1 $96 $96 $145 $146 reversed $66 $-1 #
face $-1 $-1 $147 $41 $-1 $148 forward single #
loop $-1 $149 $150 $68 #
cone-surface $-1 67.157153103684763 -19.103041131926254 19.988750632691485 -0.54463904215088732 0 -0.83867056331134215 0.20966764082783554 0 -0.13615976053772183 1 I I -0.70710678118654746 0.70710678118654746 forward I I I I #
loop $-1 $-1 $151 $52 #
coedge $-1 $101 $101 $152 $153 reversed $69 $-1 #
face $-1 $154 $155 $43 $-1 $156 reversed single #
loop $-1 $-1 $157 $71 #
plane-surface $-1 -74.358958708456683 17.866005639376219 5.1562390076433644 -0.82903758062907751 0 0.55919289150049634 0.55919289150049634 0 0.82903758062907751 forward_v I I I I #
coedge $-1 $158 $159 $160 $161 reversed $72 $-1 #
face $-1 $-1 $162 $45 $-1 $163 forward single #
loop $-1 $164 $165 $74 #
cone-surface $-1 -65.135010109762902 14.582326965933298 13.568351210879975 0.82903758062907751 0 -0.55919289150049634 0.27959644575024817 0 0.41451879031453875 1 I I -0.70710678118654746 0.70710678118654746 forward I I I I #
loop $-1 $-1 $166 $54 #
coedge $-1 $110 $110 $167 $168 reversed $75 $-1 #
face $-1 $-1 $169 $47 $-1 $170 forward single #
loop $-1 $171 $172 $77 #
cone-surface $-1 -65.135010109762902 21.149684312819154 13.568351210879975 0.82903758062907751 0 -0.55919289150049634 0.27959644575024817 0 0.41451879031453875 1 I I -0.70710678118654746 0.70710678118654746 forward I I I I #
loop $-1 $-1 $173 $55 #
coedge $-1 $115 $115 $174 $175 reversed $78 $-1 #
face $-1 $176 $177 $33 $-1 $178 reversed single #
loop $-1 $-1 $179 $80 #
plane-surface $-1 0 -51.294224414040308 0 0 1 0 0 0 1 forward_v I I I I #
coedge $-1 $180 $181 $182 $183 forward $81 $-1 #
coedge $-1 $184 $83 $185 $186 forward $57 $-1 #
coedge $-1 $83 $184 $187 $188 forward $57 $-1 #
coedge $-1 $189 $190 $83 $123 reversed $191 $-1 #
edge $-1 $192 $193 $122 $194 forward #
face $-1 $195 $196 $35 $-1 $197 reversed single #
loop $-1 $-1 $198 $84 #
plane-surface $-1 0 0 -25.271880248279793 0 0 1 1 0 0 forward_v I I I I #
coedge $-1 $199 $200 $201 $202 reversed $85 $-1 #
coedge $-1 $203 $87 $200 $204 forward $60 $-1 #
coedge $-1 $87 $203 $205 $206 reversed $60 $-1 #
coedge $-1 $207 $201 $87 $131 forward $196 $-1 #
edge $-1 $208 $209 $130 $210 forward #
face $-1 $211 $212 $37 $-1 $213 reversed single #
loop $-1 $-1 $214 $88 #
plane-surface $-1 30.631203226546745 -25.181408409972391 222.52522109253641 0 1 0 0.54463904215088732 0 0.83867056331134215 forward_v I I I I #
coedge $-1 $215 $216 $217 $218 reversed $89 $-1 #
coedge $-1 $137 $91 $219 $220 reversed $63 $-1 #
coedge $-1 $91 $136 $215 $221 reversed $63 $-1 #
coedge $-1 $217 $222 $91 $139 forward $223 $-1 #
edge $-1 $224 $225 $138 $226 forward #
loop $-1 $-1 $145 $92 #
plane-surface $-1 -50.366380866075716 -20.926551315340095 97.799881518004014 0.54463904215088732 0 0.83867056331134215 0.83867056331134215 0 -0.54463904215088732 forward_v I I I I #
loop $-1 $-1 $227 $65 #
coedge $-1 $143 $143 $144 $228 reversed $93 $-1 #
coedge $-1 $144 $144 $143 $228 forward $95 $-1 #
coedge $-1 $145 $145 $96 $146 forward $140 $-1 #
edge $-1 $229 $229 $145 $230 forward #
loop $-1 $-1 $152 $97 #
plane-surface $-1 -50.366380866075716 -20.926551315340095 97.799881518004014 0.54463904215088732 0 0.83867056331134215 0.83867056331134215 0 -0.54463904215088732 forward_v I I I I #
loop $-1 $-1 $231 $68 #
coedge $-1 $150 $150 $151 $232 reversed $98 $-1 #
coedge $-1 $151 $151 $150 $232 forward $100 $-1 #
coedge $-1 $152 $152 $101 $153 forward $147 $-1 #
edge $-1 $233 $233 $152 $234 forward #
face $-1 $235 $236 $43 $-1 $237 forward single #
loop $-1 $-1 $238 $102 #
plane-surface $-1 -197.65170115996949 25.527922544076379 88.318241265939179 0 -1 0 0.82903758062907751 0 -0.55919289150049634 forward_v I I I I #
coedge $-1 $239 $240 $241 $242 reversed $103 $-1 #
coedge $-1 $159 $105 $243 $244 reversed $72 $-1 #
coedge $-1 $105 $158 $239 $245 reversed $72 $-1 #
coedge $-1 $241 $246 $105 $161 forward $236 $-1 #
edge $-1 $247 $248 $160 $249 forward #
loop $-1 $-1 $167 $106 #
plane-surface $-1 -74.358958708456683 17.866005639376219 5.1562390076433644 -0.82903758062907751 0 0.55919289150049634 0.55919289150049634 0 0.82903758062907751 forward_v I I I I #
loop $-1 $-1 $250 $74 #
coedge $-1 $165 $165 $166 $251 reversed $107 $-1 #
coedge $-1 $166 $166 $165 $251 forward $109 $-1 #
coedge $-1 $167 $167 $110 $168 forward $162 $-1 #
edge $-1 $252 $252 $167 $253 forward #
loop $-1 $-1 $174 $111 #
plane-surface $-1 -74.358958708456683 17.866005639376219 5.1562390076433644 -0.82903758062907751 0 0.55919289150049634 0.55919289150049634 0 0.82903758062907751 forward_v I I I I #
loop $-1 $-1 $254 $77 #
coedge $-1 $172 $172 $173 $255 reversed $112 $-1 #
coedge $-1 $173 $173 $172 $255 forward $114 $-1 #
coedge $-1 $174 $174 $115 $175 forward $169 $-1 #
edge $-1 $256 $256 $174 $257 forward #
face $-1 $258 $259 $33 $-1 $260 reversed single #
loop $-1 $-1 $261 $116 #
plane-surface $-1 -74.358958708456683 0 0 1 0 0 0 0 -1 forward_v I I I I #
coedge $-1 $262 $187 $263 $264 forward $117 $-1 #
coedge $-1 $265 $119 $262 $266 forward $81 $-1 #
coedge $-1 $119 $265 $267 $268 forward $81 $-1 #
coedge $-1 $190 $189 $119 $183 reversed $191 $-1 #
edge $-1 $269 $270 $182 $271 forward #
coedge $-1 $121 $120 $272 $273 forward $57 $-1 #
coedge $-1 $274 $275 $120 $186 reversed $259 $-1 #
edge $-1 $193 $276 $185 $277 forward #
coedge $-1 $179 $278 $121 $188 reversed $117 $-1 #
edge $-1 $279 $192 $187 $280 forward #
coedge $-1 $182 $122 $278 $281 forward $191 $-1 #
coedge $-1 $122 $182 $274 $282 reversed $191 $-1 #
loop $-1 $-1 $189 $258 #
vertex $-1 $123 $283 #
vertex $-1 $123 $284 #
straight-curve $-1 74.358958708456683 0 25.271880248279793 0 1 0 I I #
face $-1 $285 $286 $35 $-1 $287 reversed single #
loop $-1 $-1 $201 $124 #
plane-surface $-1 74.358958708456683 0 0 -1 0 0 0 0 1 forward_v I I I I #
coedge $-1 $288 $289 $199 $290 forward $125 $-1 #
coedge $-1 $291 $127 $198 $290 reversed $85 $-1 #
coedge $-1 $127 $291 $128 $204 reversed $85 $-1 #
coedge $-1 $130 $292 $127 $202 forward $196 $-1 #
edge $-1 $293 $208 $201 $294 forward #
coedge $-1 $129 $128 $295 $296 reversed $60 $-1 #
edge $-1 $208 $297 $200 $298 forward #
coedge $-1 $299 $300 $129 $206 forward $286 $-1 #
edge $-1 $209 $301 $205 $302 forward #
coedge $-1 $292 $130 $300 $303 forward $196 $-1 #
vertex $-1 $131 $304 #
vertex $-1 $303 $305 #
straight-curve $-1 74.358958708456683 -19.118908206003177 -11.307907328964481 0 -1 0 I I #
face $-1 $-1 $223 $37 $-1 $306 forward single #
loop $-1 $-1 $307 $132 #
plane-surface $-1 74.358958708456683 0 0 -1 0 0 0 0 1 forward_v I I I I #
coedge $-1 $308 $309 $310 $311 reversed $133 $-1 #
coedge $-1 $312 $135 $137 $221 forward $89 $-1 #
coedge $-1 $135 $312 $308 $313 forward $89 $-1 #
coedge $-1 $310 $138 $135 $218 forward $223 $-1 #
edge $-1 $225 $314 $217 $315 forward #
coedge $-1 $316 $317 $136 $220 forward $212 $-1 #
edge $-1 $318 $224 $219 $319 forward #
edge $-1 $225 $318 $137 $320 forward #
coedge $-1 $138 $310 $316 $321 forward $223 $-1 #
loop $-1 $-1 $310 $211 #
vertex $-1 $220 $322 #
vertex $-1 $139 $323 #
straight-curve $-1 15.315601613273373 -16.671694220707799 25.271880248279786 -1 0 0 I I #
coedge $-1 $227 $227 $-1 $324 reversed $142 $-1 #
edge $-1 $325 $325 $143 $326 forward #
vertex $-1 $146 $327 #
ellipse-curve $-1 67.837951906373377 -22.750061498753936 21.037088836830677 0.54463904215088732 0 0.83867056331134215 0.41933528165567108 0 -0.27231952107544366 1 I I #
coedge $-1 $231 $231 $-1 $328 reversed $149 $-1 #
edge $-1 $329 $329 $150 $330 forward #
vertex $-1 $153 $331 #
ellipse-curve $-1 67.837951906373377 -19.103041131926254 21.037088836830677 0.54463904215088732 0 0.83867056331134215 0.41933528165567108 0 -0.27231952107544366 1 I I #
face $-1 $-1 $332 $43 $-1 $333 reversed single #
loop $-1 $-1 $160 $154 #
plane-surface $-1 0 0 25.271880248279793 0 0 1 1 0 0 forward_v I I I I #
coedge $-1 $334 $335 $336 $337 reversed $155 $-1 #
coedge $-1 $338 $157 $159 $245 forward $103 $-1 #
coedge $-1 $157 $338 $334 $339 forward $103 $-1 #
coedge $-1 $336 $160 $157 $242 forward $236 $-1 #
edge $-1 $248 $340 $241 $341 forward #
coedge $-1 $342 $343 $158 $244 forward $332 $-1 #
edge $-1 $344 $247 $243 $345 forward #
edge $-1 $248 $344 $159 $346 forward #
coedge $-1 $160 $336 $342 $347 forward $236 $-1 #
vertex $-1 $244 $348 #
vertex $-1 $161 $349 #
straight-curve $-1 -98.825850579984746 10.204088734676059 25.271880248279793 1 0 0 I I #
coedge $-1 $250 $250 $-1 $350 reversed $164 $-1 #
edge $-1 $351 $351 $165 $352 forward #
vertex $-1 $168 $353 #
ellipse-curve $-1 -67.574873250471356 14.582326965933298 15.214059627961582 -0.82903758062907751 0 0.55919289150049634 0.55919289150049634 0 0.82903758062907751 1 I I #
coedge $-1 $254 $254 $-1 $354 reversed $171 $-1 #
edge $-1 $355 $355 $172 $356 forward #
vertex $-1 $175 $357 #
ellipse-curve $-1 -67.574873250471356 21.149684312819154 15.214059627961582 -0.82903758062907751 0 0.55919289150049634 0.55919289150049634 0 0.82903758062907751 1 I I #
face $-1 $-1 $191 $33 $-1 $358 reversed single #
loop $-1 $-1 $274 $176 #
plane-surface $-1 0 51.294224414040308 0 0 -1 0 0 0 -1 forward_v I I I I #
coedge $-1 $359 $272 $275 $360 forward $177 $-1 #
coedge $-1 $278 $179 $180 $266 reversed $117 $-1 #
coedge $-1 $272 $359 $179 $264 reversed $177 $-1 #
edge $-1 $279 $361 $263 $362 forward #
coedge $-1 $181 $180 $359 $363 forward $81 $-1 #
edge $-1 $270 $361 $262 $364 forward #
coedge $-1 $275 $274 $181 $268 reversed $259 $-1 #
edge $-1 $365 $269 $267 $366 forward #
vertex $-1 $183 $367 #
vertex $-1 $281 $368 #
straight-curve $-1 74.358958708456683 0 -25.271880248279793 0 -1 0 I I #
coedge $-1 $261 $263 $184 $273 reversed $177 $-1 #
edge $-1 $276 $279 $272 $369 forward #
coedge $-1 $267 $185 $190 $282 forward $259 $-1 #
coedge $-1 $185 $267 $261 $360 reversed $259 $-1 #
vertex $-1 $186 $370 #
straight-curve $-1 0 51.294224414040308 25.271880248279793 -1 0 0 I I #
coedge $-1 $187 $262 $189 $281 reversed $117 $-1 #
vertex $-1 $273 $371 #
straight-curve $-1 0 -51.294224414040308 25.271880248279793 1 0 0 I I #
edge $-1 $192 $270 $189 $372 forward #
edge $-1 $193 $269 $190 $373 forward #
point $-1 74.358958708456683 -51.294224414040308 25.271880248279793 #
point $-1 74.358958708456683 51.294224414040308 25.271880248279793 #
face $-1 $-1 $374 $35 $-1 $375 reversed single #
loop $-1 $-1 $205 $195 #
plane-surface $-1 0 -51.294224414040308 0 0 1 0 0 0 1 forward_v I I I I #
coedge $-1 $376 $198 $292 $377 forward $125 $-1 #
coedge $-1 $198 $376 $378 $379 forward $125 $-1 #
edge $-1 $380 $293 $198 $381 forward #
coedge $-1 $200 $199 $382 $383 reversed $85 $-1 #
coedge $-1 $201 $207 $288 $377 reversed $196 $-1 #
vertex $-1 $377 $384 #
straight-curve $-1 74.358958708456683 -25.181408409972395 -9.1449468943110688 0 0 1 I I #
coedge $-1 $382 $385 $203 $296 forward $374 $-1 #
edge $-1 $301 $297 $295 $386 forward #
vertex $-1 $296 $387 #
straight-curve $-1 0 -25.181408409972395 -11.307907328964481 -1 0 0 I I #
coedge $-1 $388 $205 $385 $389 forward $286 $-1 #
coedge $-1 $205 $388 $207 $303 reversed $286 $-1 #
vertex $-1 $389 $390 #
straight-curve $-1 0 -51.294224414040308 -11.307907328964481 -1 0 0 I I #
edge $-1 $209 $391 $207 $392 forward #
point $-1 74.358958708456683 -25.181408409972395 -11.307907328964481 #
point $-1 74.358958708456683 -51.294224414040315 -11.307907328964481 #
plane-surface $-1 0 0 25.271880248279793 0 0 1 1 0 0 forward_v I I I I #
coedge $-1 $317 $316 $309 $393 forward $212 $-1 #
coedge $-1 $309 $214 $216 $313 reversed $133 $-1 #
coedge $-1 $214 $308 $307 $393 reversed $133 $-1 #
coedge $-1 $222 $217 $214 $311 forward $223 $-1 #
edge $-1 $314 $394 $310 $395 forward #
coedge $-1 $216 $215 $317 $396 reversed $89 $-1 #
edge $-1 $397 $314 $308 $398 forward #
vertex $-1 $218 $399 #
straight-curve $-1 61.31694510429012 -10.463275657670048 25.271880248279793 0 -1 0 I I #
coedge $-1 $307 $219 $222 $321 reversed $212 $-1 #
coedge $-1 $219 $307 $312 $396 forward $212 $-1 #
vertex $-1 $220 $400 #
straight-curve $-1 74.358958708456683 -16.671694220707799 111.26261054626821 0 0 1 I I #
straight-curve $-1 -50.366380866075716 -16.671694220707799 97.799881518004014 0.83867056331134215 0 -0.54463904215088732 I I #
edge $-1 $394 $224 $316 $401 forward #
point $-1 74.358958708456683 -16.671694220707799 25.271880248279793 #
point $-1 61.316945104290113 -16.671694220707799 25.271880248279786 #
edge $-1 $402 $402 $227 $-1 forward #
vertex $-1 $228 $403 #
ellipse-curve $-1 67.293312864222486 -22.750061498753936 20.198418273519319 0.54463904215088732 0 0.83867056331134215 0.41933528165567108 0 -0.27231952107544366 1 I I #
point $-1 68.257287188029039 -22.750061498753936 20.764769315755217 #
edge $-1 $404 $404 $231 $-1 forward #
vertex $-1 $232 $405 #
ellipse-curve $-1 67.293312864222486 -19.103041131926254 20.198418273519319 0.54463904215088732 0 0.83867056331134215 0.41933528165567108 0 -0.27231952107544366 1 I I #
point $-1 68.257287188029039 -19.103041131926254 20.764769315755217 #
loop $-1 $-1 $243 $235 #
plane-surface $-1 -74.358958708456683 0 0 1 0 0 0 0 -1 forward_v I I I I #
coedge $-1 $335 $238 $240 $339 reversed $155 $-1 #
coedge $-1 $238 $334 $406 $407 reversed $155 $-1 #
coedge $-1 $246 $241 $238 $337 forward $236 $-1 #
edge $-1 $340 $408 $336 $409 forward #
coedge $-1 $240 $239 $343 $410 reversed $103 $-1 #
edge $-1 $411 $340 $334 $412 forward #
vertex $-1 $242 $413 #
straight-curve $-1 -60.79078779248605 8.9330028196881095 25.271880248279793 0 1 0 I I #
coedge $-1 $406 $243 $246 $347 reversed $332 $-1 #
coedge $-1 $243 $406 $338 $410 forward $332 $-1 #
vertex $-1 $244 $414 #
straight-curve $-1 -74.358958708456683 10.204088734676059 44.159120632969589 0 0 1 I I #
straight-curve $-1 -74.358958708456683 10.204088734676059 5.1562390076433644 -0.55919289150049634 0 -0.82903758062907751 I I #
edge $-1 $408 $247 $342 $415 forward #
point $-1 -74.358958708456683 10.204088734676059 25.271880248279793 #
point $-1 -60.790787792486043 10.204088734676059 25.271880248279793 #
edge $-1 $416 $416 $250 $-1 forward #
vertex $-1 $251 $417 #
ellipse-curve $-1 -65.549528900077448 14.582326965933298 13.847947656630224 -0.82903758062907751 0 0.55919289150049634 0.55919289150049634 0 0.82903758062907751 1 I I #
point $-1 -67.015680358970869 14.582326965933298 16.043097208590662 #
edge $-1 $418 $418 $254 $-1 forward #
vertex $-1 $255 $419 #
ellipse-curve $-1 -65.549528900077448 21.149684312819154 13.847947656630224 -0.82903758062907751 0 0.55919289150049634 0.55919289150049634 0 0.82903758062907751 1 I I #
point $-1 -67.015680358970869 21.149684312819154 16.043097208590662 #
plane-surface $-1 74.358958708456683 0 0 -1 0 0 0 0 1 forward_v I I I I #
coedge $-1 $263 $261 $265 $363 reversed $177 $-1 #
edge $-1 $276 $365 $275 $420 forward #
vertex $-1 $363 $421 #
straight-curve $-1 -74.358958708456683 -51.294224414040308 0 0 0 -1 I I #
edge $-1 $361 $365 $359 $422 forward #
straight-curve $-1 0 -51.294224414040308 -25.271880248279793 -1 0 0 I I #
vertex $-1 $268 $423 #
straight-curve $-1 0 51.294224414040308 -25.271880248279793 1 0 0 I I #
point $-1 74.358958708456683 51.294224414040308 -25.271880248279793 #
point $-1 74.358958708456683 -51.294224414040308 -25.271880248279793 #
straight-curve $-1 -74.358958708456683 0 25.271880248279793 0 -1 0 I I #
point $-1 -74.358958708456683 51.294224414040308 25.271880248279793 #
point $-1 -74.358958708456683 -51.294224414040308 25.271880248279793 #
straight-curve $-1 74.358958708456683 -51.294224414040308 0 0 0 -1 I I #
straight-curve $-1 74.358958708456683 51.294224414040308 0 0 0 -1 I I #
loop $-1 $-1 $382 $285 #
plane-surface $-1 -74.358958708456683 0 0 1 0 0 0 0 -1 forward_v I I I I #
coedge $-1 $289 $288 $388 $424 forward $125 $-1 #
edge $-1 $293 $391 $292 $425 forward #
coedge $-1 $385 $382 $289 $379 reversed $374 $-1 #
edge $-1 $426 $380 $378 $427 forward #
vertex $-1 $383 $428 #
straight-curve $-1 0 -25.181408409972395 -25.271880248279793 1 0 0 I I #
coedge $-1 $378 $295 $291 $383 forward $374 $-1 #
edge $-1 $297 $380 $382 $429 forward #
point $-1 74.358958708456683 -25.181408409972395 -25.271880248279793 #
coedge $-1 $295 $378 $299 $389 reversed $374 $-1 #
straight-curve $-1 -74.358958708456683 -19.118908206003177 -11.307907328964481 0 1 0 I I #
point $-1 -74.358958708456683 -25.181408409972395 -11.307907328964481 #
coedge $-1 $300 $299 $376 $424 reversed $286 $-1 #
edge $-1 $301 $426 $385 $430 forward #
point $-1 -74.358958708456683 -51.294224414040315 -11.307907328964481 #
vertex $-1 $303 $431 #
straight-curve $-1 74.358958708456683 -51.294224414040308 0 0 0 -1 I I #
edge $-1 $394 $397 $307 $432 forward #
vertex $-1 $321 $433 #
straight-curve $-1 15.315601613273373 -25.181408409972391 25.271880248279786 1 0 0 I I #
edge $-1 $397 $318 $317 $434 forward #
vertex $-1 $396 $435 #
straight-curve $-1 -50.366380866075716 -25.181408409972391 97.799881518004014 -0.83867056331134215 0 0.54463904215088732 I I #
point $-1 61.316945104290113 -25.181408409972391 25.271880248279786 #
point $-1 74.358958708456683 -16.671694220707799 16.802297425381553 #
straight-curve $-1 74.358958708456683 0 25.271880248279793 0 1 0 I I #
vertex $-1 $324 $436 #
point $-1 67.712648145878163 -22.750061498753936 19.926098752443878 #
vertex $-1 $328 $437 #
point $-1 67.712648145878163 -19.103041131926254 19.926098752443878 #
coedge $-1 $343 $342 $335 $407 forward $332 $-1 #
edge $-1 $408 $411 $406 $438 forward #
vertex $-1 $347 $439 #
straight-curve $-1 -98.825850579984746 25.527922544076379 25.271880248279793 -1 0 0 I I #
edge $-1 $411 $344 $343 $440 forward #
vertex $-1 $410 $441 #
straight-curve $-1 -74.358958708456683 25.527922544076379 5.1562390076433644 0.55919289150049634 0 0.82903758062907751 I I #
point $-1 -60.790787792486043 25.527922544076379 25.271880248279793 #
point $-1 -74.358958708456683 10.204088734676059 5.1562390076433644 #
straight-curve $-1 -74.358958708456683 0 25.271880248279793 0 -1 0 I I #
vertex $-1 $350 $442 #
point $-1 -64.990336008576946 14.582326965933298 14.6769852372593 #
vertex $-1 $354 $443 #
point $-1 -64.990336008576946 21.149684312819154 14.6769852372593 #
straight-curve $-1 -74.358958708456683 51.294224414040308 0 0 0 -1 I I #
point $-1 -74.358958708456683 -51.294224414040308 -25.271880248279793 #
straight-curve $-1 -74.358958708456683 0 -25.271880248279793 0 1 0 I I #
point $-1 -74.358958708456683 51.294224414040308 -25.271880248279793 #
edge $-1 $391 $426 $388 $444 forward #
straight-curve $-1 74.358958708456683 0 -25.271880248279793 0 -1 0 I I #
vertex $-1 $379 $445 #
straight-curve $-1 -74.358958708456683 0 -25.271880248279793 0 1 0 I I #
point $-1 -74.358958708456683 -25.181408409972395 -25.271880248279793 #
straight-curve $-1 -74.358958708456683 -25.181408409972395 -9.1449468943110688 0 0 -1 I I #
straight-curve $-1 -74.358958708456683 -51.294224414040308 0 0 0 -1 I I #
point $-1 74.358958708456683 -51.294224414040308 -25.271880248279793 #
straight-curve $-1 74.358958708456683 -25.181408409972391 111.26261054626821 0 0 -1 I I #
point $-1 74.358958708456683 -25.181408409972391 25.271880248279793 #
straight-curve $-1 74.358958708456683 -10.463275657670048 16.80229742538156 0 1 0 I I #
point $-1 74.358958708456683 -25.181408409972391 16.802297425381553 #
point $-1 67.02099334314704 -22.750061498753936 19.77908299186365 #
point $-1 67.02099334314704 -19.103041131926254 19.77908299186365 #
straight-curve $-1 -74.358958708456683 25.527922544076379 44.159120632969589 0 0 -1 I I #
point $-1 -74.358958708456683 25.527922544076379 25.271880248279793 #
straight-curve $-1 -74.358958708456683 8.9330028196881095 5.156239007643368 0 -1 0 I I #
point $-1 -74.358958708456683 25.527922544076379 5.1562390076433644 #
point $-1 -64.720491319448357 14.582326965933298 13.288754765129726 #
point $-1 -64.720491319448357 21.149684312819154 13.288754765129726 #
straight-curve $-1 0 -51.294224414040308 -25.271880248279793 -1 0 0 I I #
point $-1 -74.358958708456683 -51.294224414040308 -25.271880248279793 #
End-of-ACIS-data 