300 0 4 0           
7 Unknown 11 ACIS 3.0 NT 24 Fri Oct 30 18:47:43 1998 
-1 9.9999999999999995e-007 1e-010 
body $4 $5 $-1 $6 #
body $7 $8 $-1 $9 #
body $10 $11 $-1 $12 #
body $13 $14 $-1 $15 #
display_attribute-st-attrib $-1 $16 $-1 $0 1 #
lump $-1 $-1 $17 $0 #
transform $-1 1 0 0 0 1 0 0 0 1 52.084109012115846 20.905649285508254 4.4198091197045333 1 rotate no_reflect no_shear #
display_attribute-st-attrib $-1 $18 $-1 $1 3 #
lump $-1 $-1 $19 $1 #
transform $-1 1 0 0 0 1 0 0 0 1 52.084109012115846 20.905649285508254 4.4198091197045333 1 rotate no_reflect no_shear #
display_attribute-st-attrib $-1 $20 $-1 $2 3 #
lump $-1 $-1 $21 $2 #
transform $-1 1 0 0 0 1 0 0 0 1 52.084109012115846 20.905649285508254 4.4198091197045333 1 rotate no_reflect no_shear #
display_attribute-st-attrib $-1 $22 $-1 $3 3 #
lump $-1 $-1 $23 $3 #
transform $-1 1 0 0 0 1 0 0 0 1 52.084109012115846 20.905649285508254 4.4198091197045333 1 rotate no_reflect no_shear #
id_attribute-st-attrib $-1 $-1 $4 $0 3166 #
shell $-1 $-1 $-1 $24 $-1 $5 #
id_attribute-st-attrib $-1 $-1 $7 $1 3171 #
shell $-1 $-1 $-1 $25 $-1 $8 #
id_attribute-st-attrib $-1 $-1 $10 $2 3181 #
shell $-1 $-1 $-1 $26 $-1 $11 #
id_attribute-st-attrib $-1 $-1 $13 $3 3189 #
shell $-1 $-1 $-1 $27 $-1 $14 #
face $-1 $28 $29 $17 $-1 $30 forward single #
face $-1 $31 $32 $19 $-1 $33 reversed single #
face $-1 $34 $35 $21 $-1 $36 reversed single #
face $-1 $37 $38 $23 $-1 $39 forward single #
face $-1 $40 $41 $17 $-1 $42 reversed single #
loop $-1 $-1 $43 $24 #
plane-surface $-1 0 0 4.4198091197045333 0 0 1 1 0 0 forward_v I I I I #
face $-1 $44 $45 $19 $-1 $46 reversed single #
loop $-1 $-1 $47 $25 #
plane-surface $-1 -46.244490772706783 -19.282639048364786 0 1 0 0 0 0 -1 forward_v I I I I #
face $-1 $48 $49 $21 $-1 $50 reversed single #
loop $-1 $-1 $51 $26 #
plane-surface $-1 24.521351753535839 77.249720810729997 97.43173759890756 1 0 0 0 -0.78801076186113728 -0.61566146476048833 forward_v I I I I #
face $-1 $52 $53 $23 $-1 $54 forward single #
loop $-1 $55 $56 $27 #
cone-surface $-1 38.302730382825843 18.553701725802163 1.7897990442875624 0 -0.78801076186113728 -0.61566146476048833 0.5 0 0 1 I I 0 1 forward I I I I #
face $-1 $57 $58 $17 $-1 $59 reversed single #
loop $-1 $-1 $60 $28 #
plane-surface $-1 0 0 -4.4198091197045333 0 0 1 1 0 0 forward_v I I I I #
coedge $-1 $61 $62 $63 $64 forward $29 $-1 #
face $-1 $65 $66 $19 $-1 $67 reversed single #
loop $-1 $-1 $68 $31 #
plane-surface $-1 -44.744490772706783 -17.659628811221317 0 0 -1 0 0 0 -1 forward_v I I I I #
coedge $-1 $69 $70 $71 $72 forward $32 $-1 #
face $-1 $73 $74 $21 $-1 $75 forward single #
loop $-1 $-1 $76 $34 #
plane-surface $-1 38.302730382825843 -4.8359560362618765 33.299379908619173 0 0.78801076186113728 0.61566146476048833 1 0 0 forward_v I I I I #
coedge $-1 $77 $78 $79 $80 reversed $35 $-1 #
face $-1 $-1 $81 $23 $-1 $82 forward single #
loop $-1 $83 $84 $37 #
cone-surface $-1 38.302730382825843 17.593957669759369 1.0399648288982508 0 -0.78801076186113728 -0.61566146476048833 0.25 0 0 1 I I -0.70710678118654746 0.70710678118654746 forward I I I I #
loop $-1 $-1 $85 $27 #
coedge $-1 $56 $56 $86 $87 reversed $38 $-1 #
face $-1 $88 $89 $17 $-1 $90 reversed single #
loop $-1 $-1 $91 $40 #
plane-surface $-1 0 -20.905649285508254 0 0 1 0 0 0 1 forward_v I I I I #
coedge $-1 $92 $93 $94 $95 forward $41 $-1 #
coedge $-1 $96 $43 $97 $98 forward $29 $-1 #
coedge $-1 $43 $96 $99 $100 forward $29 $-1 #
coedge $-1 $101 $102 $43 $64 reversed $103 $-1 #
edge $-1 $104 $105 $63 $106 forward #
face $-1 $107 $108 $19 $-1 $109 forward single #
loop $-1 $-1 $110 $44 #
plane-surface $-1 -43.244490772706783 -19.282639048364786 0 -1 0 0 0 0 1 forward_v I I I I #
coedge $-1 $111 $112 $113 $114 forward $45 $-1 #
coedge $-1 $115 $47 $116 $117 reversed $32 $-1 #
coedge $-1 $47 $115 $118 $119 reversed $32 $-1 #
coedge $-1 $112 $111 $47 $72 reversed $45 $-1 #
edge $-1 $120 $121 $71 $122 forward #
face $-1 $123 $124 $21 $-1 $125 reversed single #
loop $-1 $-1 $79 $48 #
plane-surface $-1 0 0 4.4198091197045333 0 0 1 1 0 0 forward_v I I I I #
coedge $-1 $126 $127 $128 $129 reversed $49 $-1 #
coedge $-1 $78 $51 $130 $131 reversed $35 $-1 #
coedge $-1 $51 $77 $126 $132 reversed $35 $-1 #
coedge $-1 $128 $133 $51 $80 forward $74 $-1 #
edge $-1 $134 $135 $79 $136 forward #
loop $-1 $-1 $86 $52 #
plane-surface $-1 38.302730382825843 -4.8359560362618765 33.299379908619173 0 0.78801076186113728 0.61566146476048833 1 0 0 forward_v I I I I #
loop $-1 $-1 $137 $37 #
coedge $-1 $84 $84 $85 $138 reversed $53 $-1 #
coedge $-1 $85 $85 $84 $138 forward $55 $-1 #
coedge $-1 $86 $86 $56 $87 forward $81 $-1 #
edge $-1 $139 $139 $86 $140 forward #
face $-1 $141 $142 $17 $-1 $143 reversed single #
loop $-1 $-1 $144 $57 #
plane-surface $-1 -52.084109012115846 0 0 1 0 0 0 0 -1 forward_v I I I I #
coedge $-1 $145 $99 $146 $147 forward $58 $-1 #
coedge $-1 $148 $60 $145 $149 forward $41 $-1 #
coedge $-1 $60 $148 $150 $151 forward $41 $-1 #
coedge $-1 $102 $101 $60 $95 reversed $103 $-1 #
edge $-1 $152 $153 $94 $154 forward #
coedge $-1 $62 $61 $155 $156 forward $29 $-1 #
coedge $-1 $157 $158 $61 $98 reversed $142 $-1 #
edge $-1 $105 $159 $97 $160 forward #
coedge $-1 $91 $161 $62 $100 reversed $58 $-1 #
edge $-1 $162 $104 $99 $163 forward #
coedge $-1 $94 $63 $161 $164 forward $103 $-1 #
coedge $-1 $63 $94 $157 $165 reversed $103 $-1 #
loop $-1 $-1 $101 $141 #
vertex $-1 $64 $166 #
vertex $-1 $64 $167 #
straight-curve $-1 52.084109012115846 0 4.4198091197045333 0 1 0 I I #
face $-1 $168 $169 $19 $-1 $170 reversed single #
loop $-1 $-1 $171 $65 #
plane-surface $-1 0 0 4.4198091197045333 0 0 1 1 0 0 forward_v I I I I #
coedge $-1 $172 $173 $174 $175 reversed $66 $-1 #
coedge $-1 $71 $68 $176 $177 reversed $45 $-1 #
coedge $-1 $68 $71 $178 $179 reversed $45 $-1 #
coedge $-1 $173 $172 $68 $114 reversed $66 $-1 #
edge $-1 $180 $181 $113 $182 forward #
coedge $-1 $70 $69 $183 $184 reversed $32 $-1 #
coedge $-1 $176 $185 $69 $117 forward $169 $-1 #
edge $-1 $186 $121 $116 $187 forward #
coedge $-1 $188 $178 $70 $119 forward $108 $-1 #
edge $-1 $120 $189 $118 $190 forward #
vertex $-1 $119 $191 #
vertex $-1 $117 $192 #
straight-curve $-1 -46.244490772706783 -17.659628811221317 0 0 0 -1 I I #
face $-1 $-1 $193 $21 $-1 $194 reversed single #
loop $-1 $-1 $195 $73 #
plane-surface $-1 52.084109012115846 0 0 -1 0 0 0 0 1 forward_v I I I I #
coedge $-1 $196 $76 $78 $132 forward $49 $-1 #
coedge $-1 $76 $196 $195 $197 reversed $49 $-1 #
coedge $-1 $198 $79 $76 $129 forward $74 $-1 #
edge $-1 $135 $199 $128 $200 forward #
coedge $-1 $201 $202 $77 $131 forward $193 $-1 #
edge $-1 $203 $134 $130 $204 forward #
edge $-1 $135 $203 $78 $205 forward #
coedge $-1 $79 $198 $201 $206 forward $74 $-1 #
vertex $-1 $131 $207 #
vertex $-1 $80 $208 #
straight-curve $-1 24.521351753535839 38.624860405364998 4.4198091197045315 0 -1 0 I I #
coedge $-1 $137 $137 $-1 $209 reversed $83 $-1 #
edge $-1 $210 $210 $84 $211 forward #
vertex $-1 $87 $212 #
ellipse-curve $-1 38.302730382825843 19.316443091379682 2.3857178934867589 0 0.78801076186113728 0.61566146476048833 0.5 0 0 1 I I #
face $-1 $-1 $103 $17 $-1 $213 reversed single #
loop $-1 $-1 $157 $88 #
plane-surface $-1 0 20.905649285508254 0 0 -1 0 0 0 -1 forward_v I I I I #
coedge $-1 $214 $155 $158 $215 forward $89 $-1 #
coedge $-1 $161 $91 $92 $149 reversed $58 $-1 #
coedge $-1 $155 $214 $91 $147 reversed $89 $-1 #
edge $-1 $162 $216 $146 $217 forward #
coedge $-1 $93 $92 $214 $218 forward $41 $-1 #
edge $-1 $153 $216 $145 $219 forward #
coedge $-1 $158 $157 $93 $151 reversed $142 $-1 #
edge $-1 $220 $152 $150 $221 forward #
vertex $-1 $95 $222 #
vertex $-1 $164 $223 #
straight-curve $-1 52.084109012115846 0 -4.4198091197045333 0 -1 0 I I #
coedge $-1 $144 $146 $96 $156 reversed $89 $-1 #
edge $-1 $159 $162 $155 $224 forward #
coedge $-1 $150 $97 $102 $165 forward $142 $-1 #
coedge $-1 $97 $150 $144 $215 reversed $142 $-1 #
vertex $-1 $98 $225 #
straight-curve $-1 0 20.905649285508254 4.4198091197045333 -1 0 0 I I #
coedge $-1 $99 $145 $101 $164 reversed $58 $-1 #
vertex $-1 $156 $226 #
straight-curve $-1 0 -20.905649285508254 4.4198091197045333 1 0 0 I I #
edge $-1 $104 $153 $101 $227 forward #
edge $-1 $105 $152 $102 $228 forward #
point $-1 52.084109012115846 -20.905649285508254 4.4198091197045333 #
point $-1 52.084109012115846 20.905649285508254 4.4198091197045333 #
face $-1 $-1 $229 $19 $-1 $230 reversed single #
loop $-1 $-1 $231 $107 #
plane-surface $-1 0 0 -4.4198091197045333 0 0 1 1 0 0 forward_v I I I I #
coedge $-1 $178 $188 $173 $232 forward $108 $-1 #
coedge $-1 $113 $110 $231 $233 reversed $66 $-1 #
coedge $-1 $110 $113 $171 $232 reversed $66 $-1 #
coedge $-1 $234 $235 $110 $175 forward $229 $-1 #
edge $-1 $236 $237 $174 $238 forward #
coedge $-1 $231 $116 $111 $177 forward $169 $-1 #
edge $-1 $121 $181 $176 $239 forward #
coedge $-1 $118 $171 $112 $179 forward $108 $-1 #
edge $-1 $180 $120 $178 $240 forward #
vertex $-1 $179 $241 #
vertex $-1 $177 $242 #
straight-curve $-1 -43.244490772706783 -17.659628811221317 0 0 0 -1 I I #
coedge $-1 $235 $234 $115 $184 forward $229 $-1 #
edge $-1 $189 $186 $183 $243 forward #
coedge $-1 $116 $231 $235 $244 forward $169 $-1 #
vertex $-1 $117 $245 #
straight-curve $-1 -46.244490772706783 -9.6413195241823928 -4.4198091197045333 0 1 0 I I #
coedge $-1 $171 $118 $234 $246 forward $108 $-1 #
vertex $-1 $246 $247 #
straight-curve $-1 -46.244490772706783 -9.6413195241823928 4.4198091197045333 0 -1 0 I I #
point $-1 -46.244490772706783 -17.659628811221317 4.4198091197045333 #
point $-1 -46.244490772706783 -17.659628811221317 -4.4198091197045333 #
loop $-1 $-1 $130 $123 #
plane-surface $-1 0 20.905649285508254 0 0 -1 0 0 0 -1 forward_v I I I I #
coedge $-1 $248 $249 $127 $197 forward $124 $-1 #
coedge $-1 $127 $126 $202 $250 reversed $49 $-1 #
edge $-1 $199 $251 $195 $252 forward #
coedge $-1 $133 $128 $249 $253 forward $74 $-1 #
vertex $-1 $253 $254 #
straight-curve $-1 19.151365191412921 17.72723689725111 4.419809119704535 1 0 0 I I #
coedge $-1 $255 $130 $133 $206 reversed $193 $-1 #
coedge $-1 $130 $255 $196 $250 forward $193 $-1 #
vertex $-1 $131 $256 #
straight-curve $-1 24.521351753535839 20.905649285508254 48.71586879945378 0 0 1 I I #
straight-curve $-1 24.521351753535839 -4.8359560362618765 33.299379908619173 0 0.61566146476048833 -0.78801076186113728 I I #
edge $-1 $257 $134 $201 $258 forward #
point $-1 24.521351753535839 20.905649285508254 4.4198091197045333 #
point $-1 24.521351753535839 17.72723689725111 4.4198091197045315 #
edge $-1 $259 $259 $137 $-1 forward #
vertex $-1 $138 $260 #
ellipse-curve $-1 38.302730382825843 17.790960360224652 1.1938801950883728 0 0.78801076186113728 0.61566146476048833 0.5 0 0 1 I I #
point $-1 38.802730382825843 19.316443091379675 2.3857178934867518 #
plane-surface $-1 52.084109012115846 0 0 -1 0 0 0 0 1 forward_v I I I I #
coedge $-1 $146 $144 $148 $218 reversed $89 $-1 #
edge $-1 $159 $220 $158 $261 forward #
vertex $-1 $218 $262 #
straight-curve $-1 -52.084109012115846 -20.905649285508254 0 0 0 -1 I I #
edge $-1 $216 $220 $214 $263 forward #
straight-curve $-1 0 -20.905649285508254 -4.4198091197045333 -1 0 0 I I #
vertex $-1 $151 $264 #
straight-curve $-1 0 20.905649285508254 -4.4198091197045333 1 0 0 I I #
point $-1 52.084109012115846 20.905649285508254 -4.4198091197045333 #
point $-1 52.084109012115846 -20.905649285508254 -4.4198091197045333 #
straight-curve $-1 -52.084109012115846 0 4.4198091197045333 0 -1 0 I I #
point $-1 -52.084109012115846 20.905649285508254 4.4198091197045333 #
point $-1 -52.084109012115846 -20.905649285508254 4.4198091197045333 #
straight-curve $-1 52.084109012115846 -20.905649285508254 0 0 0 -1 I I #
straight-curve $-1 52.084109012115846 20.905649285508254 0 0 0 -1 I I #
loop $-1 $-1 $174 $168 #
plane-surface $-1 0 -20.905649285508254 0 0 1 0 0 0 1 forward_v I I I I #
coedge $-1 $185 $176 $172 $233 forward $169 $-1 #
edge $-1 $237 $180 $171 $265 forward #
edge $-1 $181 $236 $231 $266 forward #
coedge $-1 $183 $174 $188 $246 reversed $229 $-1 #
coedge $-1 $174 $183 $185 $244 reversed $229 $-1 #
vertex $-1 $244 $267 #
vertex $-1 $175 $268 #
straight-curve $-1 -43.244490772706783 -20.905649285508254 0 0 0 1 I I #
straight-curve $-1 -22.372245386353391 -17.659628811221317 -4.4198091197045333 1 0 0 I I #
straight-curve $-1 -22.372245386353391 -17.659628811221317 4.4198091197045333 -1 0 0 I I #
point $-1 -43.244490772706783 -17.659628811221317 4.4198091197045333 #
point $-1 -43.244490772706783 -17.659628811221317 -4.4198091197045333 #
straight-curve $-1 -46.244490772706783 -20.905649285508254 0 0 0 -1 I I #
edge $-1 $236 $186 $235 $269 forward #
point $-1 -46.244490772706783 -20.905649285508254 -4.4198091197045333 #
edge $-1 $189 $237 $234 $270 forward #
point $-1 -46.244490772706783 -20.905649285508254 4.4198091197045333 #
coedge $-1 $249 $195 $255 $271 reversed $124 $-1 #
coedge $-1 $195 $248 $198 $253 reversed $124 $-1 #
edge $-1 $251 $203 $202 $272 forward #
vertex $-1 $197 $273 #
straight-curve $-1 52.084109012115846 4.1581134777550268 21.787495576651573 0 0.61566146476048833 -0.78801076186113728 I I #
edge $-1 $199 $257 $249 $274 forward #
point $-1 52.084109012115846 17.72723689725111 4.4198091197045315 #
coedge $-1 $202 $201 $248 $271 forward $193 $-1 #
point $-1 24.521351753535839 20.905649285508254 0.35162666726898095 #
vertex $-1 $253 $275 #
straight-curve $-1 0 20.905649285508254 4.4198091197045333 -1 0 0 I I #
vertex $-1 $209 $276 #
point $-1 38.802730382825843 17.790960360224652 1.1938801950883728 #
straight-curve $-1 -52.084109012115846 20.905649285508254 0 0 0 -1 I I #
point $-1 -52.084109012115846 -20.905649285508254 -4.4198091197045333 #
straight-curve $-1 -52.084109012115846 0 -4.4198091197045333 0 1 0 I I #
point $-1 -52.084109012115846 20.905649285508254 -4.4198091197045333 #
straight-curve $-1 -43.244490772706783 -9.6413195241823928 4.4198091197045333 0 1 0 I I #
straight-curve $-1 -43.244490772706783 -9.6413195241823928 -4.4198091197045333 0 -1 0 I I #
point $-1 -43.244490772706783 -20.905649285508254 -4.4198091197045333 #
point $-1 -43.244490772706783 -20.905649285508254 4.4198091197045333 #
straight-curve $-1 0 -20.905649285508254 -4.4198091197045333 -1 0 0 I I #
straight-curve $-1 0 -20.905649285508254 4.4198091197045333 1 0 0 I I #
edge $-1 $257 $251 $248 $277 forward #
straight-curve $-1 19.151365191412921 20.905649285508254 0.35162666726898095 -1 0 0 I I #
point $-1 52.084109012115846 20.905649285508254 0.35162666726898095 #
straight-curve $-1 52.084109012115846 0 4.4198091197045333 0 1 0 I I #
point $-1 52.084109012115846 20.905649285508254 4.4198091197045333 #
point $-1 38.302730382825843 17.396954979294087 0.88604946270812879 #
straight-curve $-1 52.084109012115846 20.905649285508254 0 0 0 -1 I I #
End-of-ACIS-data 