300 0 15 0           
7 Unknown 11 ACIS 3.0 NT 24 Fri Oct 30 19:51:52 1998 
-1 9.9999999999999995e-007 1e-010 
body $15 $16 $-1 $17 #
body $18 $19 $-1 $20 #
body $21 $22 $-1 $23 #
body $24 $25 $-1 $26 #
body $27 $28 $-1 $29 #
body $30 $31 $-1 $32 #
body $33 $34 $-1 $35 #
body $36 $37 $-1 $38 #
body $39 $40 $-1 $41 #
body $42 $43 $-1 $44 #
body $45 $46 $-1 $47 #
body $48 $49 $-1 $50 #
body $51 $52 $-1 $53 #
body $54 $55 $-1 $56 #
body $57 $58 $-1 $59 #
display_attribute-st-attrib $-1 $60 $-1 $0 1 #
lump $-1 $-1 $61 $0 #
transform $-1 1 0 0 0 1 0 0 0 1 49.254432813501388 30.836218151782244 11.361697603329025 1 rotate no_reflect no_shear #
display_attribute-st-attrib $-1 $62 $-1 $1 14 #
lump $-1 $-1 $63 $1 #
transform $-1 1 0 0 0 1 0 0 0 1 49.254432813501388 30.836218151782244 11.361697603329025 1 rotate no_reflect no_shear #
display_attribute-st-attrib $-1 $64 $-1 $2 13 #
lump $-1 $-1 $65 $2 #
transform $-1 1 0 0 0 1 0 0 0 1 49.254432813501388 30.836218151782244 11.361697603329025 1 rotate no_reflect no_shear #
display_attribute-st-attrib $-1 $66 $-1 $3 12 #
lump $-1 $-1 $67 $3 #
transform $-1 1 0 0 0 1 0 0 0 1 49.254432813501388 30.836218151782244 11.361697603329025 1 rotate no_reflect no_shear #
display_attribute-st-attrib $-1 $68 $-1 $4 11 #
lump $-1 $-1 $69 $4 #
transform $-1 1 0 0 0 1 0 0 0 1 49.254432813501388 30.836218151782244 11.361697603329025 1 rotate no_reflect no_shear #
display_attribute-st-attrib $-1 $70 $-1 $5 10 #
lump $-1 $-1 $71 $5 #
transform $-1 1 0 0 0 1 0 0 0 1 49.254432813501388 30.836218151782244 11.361697603329025 1 rotate no_reflect no_shear #
display_attribute-st-attrib $-1 $72 $-1 $6 9 #
lump $-1 $-1 $73 $6 #
transform $-1 1 0 0 0 1 0 0 0 1 49.254432813501388 30.836218151782244 11.361697603329025 1 rotate no_reflect no_shear #
display_attribute-st-attrib $-1 $74 $-1 $7 8 #
lump $-1 $-1 $75 $7 #
transform $-1 1 0 0 0 1 0 0 0 1 49.254432813501388 30.836218151782244 11.361697603329025 1 rotate no_reflect no_shear #
display_attribute-st-attrib $-1 $76 $-1 $8 7 #
lump $-1 $-1 $77 $8 #
transform $-1 1 0 0 0 1 0 0 0 1 49.254432813501388 30.836218151782244 11.361697603329025 1 rotate no_reflect no_shear #
display_attribute-st-attrib $-1 $78 $-1 $9 6 #
lump $-1 $-1 $79 $9 #
transform $-1 1 0 0 0 1 0 0 0 1 49.254432813501388 30.836218151782244 11.361697603329025 1 rotate no_reflect no_shear #
display_attribute-st-attrib $-1 $80 $-1 $10 5 #
lump $-1 $-1 $81 $10 #
transform $-1 1 0 0 0 1 0 0 0 1 49.254432813501388 30.836218151782244 11.361697603329025 1 rotate no_reflect no_shear #
display_attribute-st-attrib $-1 $82 $-1 $11 4 #
lump $-1 $-1 $83 $11 #
transform $-1 1 0 0 0 1 0 0 0 1 49.254432813501388 30.836218151782244 11.361697603329025 1 rotate no_reflect no_shear #
display_attribute-st-attrib $-1 $84 $-1 $12 3 #
lump $-1 $-1 $85 $12 #
transform $-1 1 0 0 0 1 0 0 0 1 49.254432813501388 30.836218151782244 11.361697603329025 1 rotate no_reflect no_shear #
display_attribute-st-attrib $-1 $86 $-1 $13 2 #
lump $-1 $-1 $87 $13 #
transform $-1 1 0 0 0 1 0 0 0 1 49.254432813501388 30.836218151782244 11.361697603329025 1 rotate no_reflect no_shear #
display_attribute-st-attrib $-1 $88 $-1 $14 1 #
lump $-1 $-1 $89 $14 #
transform $-1 1 0 0 0 1 0 0 0 1 49.254432813501388 30.836218151782244 11.361697603329025 1 rotate no_reflect no_shear #
id_attribute-st-attrib $-1 $-1 $15 $0 3828 #
shell $-1 $-1 $-1 $90 $-1 $16 #
id_attribute-st-attrib $-1 $-1 $18 $1 3836 #
shell $-1 $-1 $-1 $91 $-1 $19 #
id_attribute-st-attrib $-1 $-1 $21 $2 3844 #
shell $-1 $-1 $-1 $92 $-1 $22 #
id_attribute-st-attrib $-1 $-1 $24 $3 3859 #
shell $-1 $-1 $-1 $93 $-1 $25 #
id_attribute-st-attrib $-1 $-1 $27 $4 3868 #
shell $-1 $-1 $-1 $94 $-1 $28 #
id_attribute-st-attrib $-1 $-1 $30 $5 3878 #
shell $-1 $-1 $-1 $95 $-1 $31 #
id_attribute-st-attrib $-1 $-1 $33 $6 3889 #
shell $-1 $-1 $-1 $96 $-1 $34 #
id_attribute-st-attrib $-1 $-1 $36 $7 3906 #
shell $-1 $-1 $-1 $97 $-1 $37 #
id_attribute-st-attrib $-1 $-1 $39 $8 3919 #
shell $-1 $-1 $-1 $98 $-1 $40 #
id_attribute-st-attrib $-1 $-1 $42 $9 3935 #
shell $-1 $-1 $-1 $99 $-1 $43 #
id_attribute-st-attrib $-1 $-1 $45 $10 3950 #
shell $-1 $-1 $-1 $100 $-1 $46 #
id_attribute-st-attrib $-1 $-1 $48 $11 3968 #
shell $-1 $-1 $-1 $101 $-1 $49 #
id_attribute-st-attrib $-1 $-1 $51 $12 3985 #
shell $-1 $-1 $-1 $102 $-1 $52 #
id_attribute-st-attrib $-1 $-1 $54 $13 4003 #
shell $-1 $-1 $-1 $103 $-1 $55 #
id_attribute-st-attrib $-1 $-1 $57 $14 4022 #
shell $-1 $-1 $-1 $104 $-1 $58 #
face $-1 $105 $106 $61 $-1 $107 forward single #
face $-1 $108 $109 $63 $-1 $110 reversed single #
face $-1 $111 $112 $65 $-1 $113 reversed single #
face $-1 $114 $115 $67 $-1 $116 reversed single #
face $-1 $117 $118 $69 $-1 $119 forward single #
face $-1 $120 $121 $71 $-1 $122 forward single #
face $-1 $123 $124 $73 $-1 $125 forward single #
face $-1 $126 $127 $75 $-1 $128 reversed single #
face $-1 $129 $130 $77 $-1 $131 forward single #
face $-1 $132 $133 $79 $-1 $134 reversed single #
face $-1 $135 $136 $81 $-1 $137 forward single #
face $-1 $138 $139 $83 $-1 $140 reversed single #
face $-1 $141 $142 $85 $-1 $143 forward single #
face $-1 $144 $145 $87 $-1 $146 reversed single #
face $-1 $147 $148 $89 $-1 $149 forward single #
face $-1 $150 $151 $61 $-1 $152 reversed single #
loop $-1 $-1 $153 $90 #
plane-surface $-1 0 0 11.361697603329025 0 0 1 1 0 0 forward_v I I I I #
face $-1 $154 $155 $63 $-1 $156 reversed single #
loop $-1 $-1 $157 $91 #
plane-surface $-1 -45.096085245035169 -25.992383916986228 0 1 0 0 0 0 -1 forward_v I I I I #
face $-1 $158 $159 $65 $-1 $160 reversed single #
loop $-1 $-1 $161 $92 #
plane-surface $-1 -42.271767013631745 21.148549682190215 0 0 1 0 0 0 1 forward_v I I I I #
face $-1 $162 $163 $67 $-1 $164 reversed single #
loop $-1 $-1 $165 $93 #
plane-surface $-1 -132.79468954365606 -4.8244924043266941 52.542163198636416 0 1 0 -0.84804810408105047 0 0.52991925155115449 forward_v I I I I #
face $-1 $166 $167 $69 $-1 $168 forward single #
loop $-1 $169 $170 $94 #
cone-surface $-1 -45.386979221525621 -2.776362923270252 5.5860986030998614 0.84804810408105047 0 -0.52991925155115449 0.26495962577557725 0 0.42402405204052523 1 I I 0 1 forward I I I I #
face $-1 $171 $172 $71 $-1 $173 forward single #
loop $-1 $174 $175 $95 #
cone-surface $-1 -45.386979221525621 0.29583129831441113 5.5860986030998614 0.84804810408105047 0 -0.52991925155115449 0.26495962577557725 0 0.42402405204052523 1 I I 0 1 forward I I I I #
face $-1 $176 $177 $73 $-1 $178 forward single #
loop $-1 $179 $180 $96 #
cone-surface $-1 -45.386979221525621 3.3680255198990743 5.5860986030998614 0.84804810408105047 0 -0.52991925155115449 0.26495962577557725 0 0.42402405204052523 1 I I 0 1 forward I I I I #
face $-1 $181 $182 $75 $-1 $183 reversed single #
loop $-1 $-1 $184 $97 #
plane-surface $-1 22.672341765341365 -12.731912228435096 139.83847020150083 0 -1 0 -0.55919291073839883 0 -0.82903756765294845 forward_v I I I I #
face $-1 $185 $186 $77 $-1 $187 forward single #
loop $-1 $188 $189 $98 #
cone-surface $-1 42.319770811240126 -15.910379610461877 6.0380505459014397 -0.55919291073839883 0 -0.82903756765294845 1.2435563514794228 0 -0.83878936610759824 1 I I 0 1 forward I I I I #
face $-1 $190 $191 $79 $-1 $192 reversed single #
loop $-1 $-1 $193 $99 #
plane-surface $-1 22.672341765341365 -2.124992488127182 139.83847020150083 0 -1 0 -0.55919291073839883 0 -0.82903756765294845 forward_v I I I I #
face $-1 $194 $195 $81 $-1 $196 forward single #
loop $-1 $197 $198 $100 #
cone-surface $-1 42.319770811240126 -5.3034598701539615 6.0380505459014397 -0.55919291073839883 0 -0.82903756765294845 1.2435563514794228 0 -0.83878936610759824 1 I I 0 1 forward I I I I #
face $-1 $199 $200 $83 $-1 $201 reversed single #
loop $-1 $-1 $202 $101 #
plane-surface $-1 22.672341765341365 8.4819272521807338 139.83847020150083 0 -1 0 -0.55919291073839883 0 -0.82903756765294845 forward_v I I I I #
face $-1 $203 $204 $85 $-1 $205 forward single #
loop $-1 $206 $207 $102 #
cone-surface $-1 42.319770811240126 5.3034598701539544 6.0380505459014397 -0.55919291073839883 0 -0.82903756765294845 1.2435563514794228 0 -0.83878936610759824 1 I I 0 1 forward I I I I #
face $-1 $208 $209 $87 $-1 $210 reversed single #
loop $-1 $-1 $211 $103 #
plane-surface $-1 22.672341765341365 19.088846992488648 139.83847020150083 0 -1 0 -0.55919291073839883 0 -0.82903756765294845 forward_v I I I I #
face $-1 $212 $213 $89 $-1 $214 forward single #
loop $-1 $215 $216 $104 #
cone-surface $-1 42.319770811240126 15.91037961046187 6.0380505459014397 -0.55919291073839883 0 -0.82903756765294845 1.2435563514794228 0 -0.83878936610759824 1 I I 0 1 forward I I I I #
face $-1 $217 $218 $61 $-1 $219 reversed single #
loop $-1 $-1 $220 $105 #
plane-surface $-1 0 0 -11.361697603329025 0 0 1 1 0 0 forward_v I I I I #
coedge $-1 $221 $222 $223 $224 forward $106 $-1 #
face $-1 $225 $226 $63 $-1 $227 reversed single #
loop $-1 $-1 $228 $108 #
plane-surface $-1 -42.271767013631745 -21.148549682190211 0 0 -1 0 0 0 -1 forward_v I I I I #
coedge $-1 $229 $230 $231 $232 forward $109 $-1 #
face $-1 $233 $234 $65 $-1 $235 reversed single #
loop $-1 $-1 $236 $111 #
plane-surface $-1 -45.096085245035169 25.992383916986231 0 1 0 0 0 0 -1 forward_v I I I I #
coedge $-1 $237 $238 $239 $240 forward $112 $-1 #
face $-1 $241 $242 $67 $-1 $243 reversed single #
loop $-1 $-1 $244 $114 #
plane-surface $-1 -49.254432813501396 0.29583129831441113 0.3404188544218556 -0.84804810408105047 0 0.52991925155115449 0.52991925155115449 0 0.84804810408105047 forward_v I I I I #
coedge $-1 $245 $246 $247 $248 reversed $115 $-1 #
face $-1 $-1 $249 $69 $-1 $250 forward single #
loop $-1 $251 $252 $117 #
cone-surface $-1 -44.750943143464831 -2.776362923270252 5.1886591644364959 0.84804810408105047 0 -0.52991925155115449 0.13247981288778862 0 0.21201202602026262 1 I I -0.70710678118654746 0.70710678118654746 forward I I I I #
loop $-1 $-1 $253 $94 #
coedge $-1 $170 $170 $254 $255 reversed $118 $-1 #
face $-1 $-1 $256 $71 $-1 $257 forward single #
loop $-1 $258 $259 $120 #
cone-surface $-1 -44.750943143464831 0.29583129831441113 5.1886591644364959 0.84804810408105047 0 -0.52991925155115449 0.13247981288778862 0 0.21201202602026262 1 I I -0.70710678118654746 0.70710678118654746 forward I I I I #
loop $-1 $-1 $260 $95 #
coedge $-1 $175 $175 $261 $262 reversed $121 $-1 #
face $-1 $-1 $263 $73 $-1 $264 forward single #
loop $-1 $265 $266 $123 #
cone-surface $-1 -44.750943143464831 3.3680255198990743 5.1886591644364959 0.84804810408105047 0 -0.52991925155115449 0.13247981288778862 0 0.21201202602026262 1 I I -0.70710678118654746 0.70710678118654746 forward I I I I #
loop $-1 $-1 $267 $96 #
coedge $-1 $180 $180 $268 $269 reversed $124 $-1 #
face $-1 $270 $271 $75 $-1 $272 reversed single #
loop $-1 $-1 $273 $126 #
plane-surface $-1 -32.413117538160122 -15.910379610461876 58.170919849839308 0.55919291073839883 0 0.82903756765294845 0.82903756765294845 0 -0.55919291073839883 forward_v I I I I #
coedge $-1 $274 $275 $276 $277 reversed $127 $-1 #
face $-1 $-1 $278 $77 $-1 $279 forward single #
loop $-1 $280 $281 $129 #
cone-surface $-1 41.10072702334093 -15.910379610461877 4.2307438412297476 -0.55919291073839883 0 -0.82903756765294845 0.62177817573971139 0 -0.41939468305379912 1 I I -0.70710678118654757 0.70710678118654757 forward I I I I #
loop $-1 $-1 $282 $98 #
coedge $-1 $189 $189 $283 $284 reversed $130 $-1 #
face $-1 $285 $286 $79 $-1 $287 reversed single #
loop $-1 $-1 $288 $132 #
plane-surface $-1 -32.413117538160122 -5.3034598701539615 58.170919849839308 0.55919291073839883 0 0.82903756765294845 0.82903756765294845 0 -0.55919291073839883 forward_v I I I I #
coedge $-1 $289 $290 $291 $292 reversed $133 $-1 #
face $-1 $-1 $293 $81 $-1 $294 forward single #
loop $-1 $295 $296 $135 #
cone-surface $-1 41.10072702334093 -5.3034598701539615 4.2307438412297476 -0.55919291073839883 0 -0.82903756765294845 0.62177817573971139 0 -0.41939468305379912 1 I I -0.70710678118654757 0.70710678118654757 forward I I I I #
loop $-1 $-1 $297 $100 #
coedge $-1 $198 $198 $298 $299 reversed $136 $-1 #
face $-1 $300 $301 $83 $-1 $302 reversed single #
loop $-1 $-1 $303 $138 #
plane-surface $-1 -32.413117538160122 5.3034598701539544 58.170919849839308 0.55919291073839883 0 0.82903756765294845 0.82903756765294845 0 -0.55919291073839883 forward_v I I I I #
coedge $-1 $304 $305 $306 $307 reversed $139 $-1 #
face $-1 $-1 $308 $85 $-1 $309 forward single #
loop $-1 $310 $311 $141 #
cone-surface $-1 41.10072702334093 5.3034598701539544 4.2307438412297476 -0.55919291073839883 0 -0.82903756765294845 0.62177817573971139 0 -0.41939468305379912 1 I I -0.70710678118654757 0.70710678118654757 forward I I I I #
loop $-1 $-1 $312 $102 #
coedge $-1 $207 $207 $313 $314 reversed $142 $-1 #
face $-1 $315 $316 $87 $-1 $317 reversed single #
loop $-1 $-1 $318 $144 #
plane-surface $-1 -32.413117538160122 15.91037961046187 58.170919849839308 0.55919291073839883 0 0.82903756765294845 0.82903756765294845 0 -0.55919291073839883 forward_v I I I I #
coedge $-1 $319 $320 $321 $322 reversed $145 $-1 #
face $-1 $-1 $323 $89 $-1 $324 forward single #
loop $-1 $325 $326 $147 #
cone-surface $-1 41.10072702334093 15.91037961046187 4.2307438412297476 -0.55919291073839883 0 -0.82903756765294845 0.62177817573971139 0 -0.41939468305379912 1 I I -0.70710678118654757 0.70710678118654757 forward I I I I #
loop $-1 $-1 $327 $104 #
coedge $-1 $216 $216 $328 $329 reversed $148 $-1 #
face $-1 $330 $331 $61 $-1 $332 reversed single #
loop $-1 $-1 $333 $150 #
plane-surface $-1 0 -30.836218151782244 0 0 1 0 0 0 1 forward_v I I I I #
coedge $-1 $334 $335 $336 $337 forward $151 $-1 #
coedge $-1 $338 $153 $339 $340 forward $106 $-1 #
coedge $-1 $153 $338 $341 $342 forward $106 $-1 #
coedge $-1 $343 $344 $153 $224 reversed $345 $-1 #
edge $-1 $346 $347 $223 $348 forward #
face $-1 $349 $350 $63 $-1 $351 forward single #
loop $-1 $-1 $352 $154 #
plane-surface $-1 -39.447448782228321 -25.992383916986228 0 -1 0 0 0 0 1 forward_v I I I I #
coedge $-1 $353 $354 $355 $356 forward $155 $-1 #
coedge $-1 $357 $157 $358 $359 reversed $109 $-1 #
coedge $-1 $157 $357 $360 $361 reversed $109 $-1 #
coedge $-1 $354 $353 $157 $232 reversed $155 $-1 #
edge $-1 $362 $363 $231 $364 forward #
face $-1 $365 $366 $65 $-1 $367 reversed single #
loop $-1 $-1 $368 $158 #
plane-surface $-1 -39.447448782228321 25.992383916986231 0 -1 0 0 0 0 1 forward_v I I I I #
coedge $-1 $369 $370 $371 $372 reversed $159 $-1 #
coedge $-1 $373 $161 $374 $375 reversed $112 $-1 #
coedge $-1 $161 $373 $376 $377 reversed $112 $-1 #
coedge $-1 $370 $369 $161 $240 reversed $159 $-1 #
edge $-1 $378 $379 $239 $380 forward #
face $-1 $381 $382 $67 $-1 $383 reversed single #
loop $-1 $-1 $384 $162 #
plane-surface $-1 -132.79468954365606 5.4161550009555164 52.542163198636416 0 -1 0 0.84804810408105047 0 -0.52991925155115449 forward_v I I I I #
coedge $-1 $385 $386 $387 $388 reversed $163 $-1 #
coedge $-1 $246 $165 $389 $390 reversed $115 $-1 #
coedge $-1 $165 $245 $385 $391 reversed $115 $-1 #
coedge $-1 $387 $392 $165 $248 forward $393 $-1 #
edge $-1 $394 $395 $247 $396 forward #
loop $-1 $-1 $254 $166 #
plane-surface $-1 -49.254432813501396 0.29583129831441113 0.3404188544218556 -0.84804810408105047 0 0.52991925155115449 0.52991925155115449 0 0.84804810408105047 forward_v I I I I #
loop $-1 $-1 $397 $117 #
coedge $-1 $252 $252 $253 $398 reversed $167 $-1 #
coedge $-1 $253 $253 $252 $398 forward $169 $-1 #
coedge $-1 $254 $254 $170 $255 forward $249 $-1 #
edge $-1 $399 $399 $254 $400 forward #
loop $-1 $-1 $261 $171 #
plane-surface $-1 -49.254432813501396 0.29583129831441113 0.3404188544218556 -0.84804810408105047 0 0.52991925155115449 0.52991925155115449 0 0.84804810408105047 forward_v I I I I #
loop $-1 $-1 $401 $120 #
coedge $-1 $259 $259 $260 $402 reversed $172 $-1 #
coedge $-1 $260 $260 $259 $402 forward $174 $-1 #
coedge $-1 $261 $261 $175 $262 forward $256 $-1 #
edge $-1 $403 $403 $261 $404 forward #
loop $-1 $-1 $268 $176 #
plane-surface $-1 -49.254432813501396 0.29583129831441113 0.3404188544218556 -0.84804810408105047 0 0.52991925155115449 0.52991925155115449 0 0.84804810408105047 forward_v I I I I #
loop $-1 $-1 $405 $123 #
coedge $-1 $266 $266 $267 $406 reversed $177 $-1 #
coedge $-1 $267 $267 $266 $406 forward $179 $-1 #
coedge $-1 $268 $268 $180 $269 forward $263 $-1 #
edge $-1 $407 $407 $268 $408 forward #
face $-1 $409 $410 $75 $-1 $411 forward single #
loop $-1 $-1 $412 $181 #
plane-surface $-1 22.672341765341365 -19.088846992488655 139.83847020150083 0 1 0 0.55919291073839883 0 0.82903756765294845 forward_v I I I I #
coedge $-1 $413 $414 $415 $416 reversed $182 $-1 #
coedge $-1 $275 $184 $417 $418 reversed $127 $-1 #
coedge $-1 $184 $274 $413 $419 reversed $127 $-1 #
coedge $-1 $415 $420 $184 $277 forward $410 $-1 #
edge $-1 $421 $422 $276 $423 forward #
loop $-1 $-1 $283 $185 #
plane-surface $-1 -32.413117538160122 -15.910379610461876 58.170919849839308 0.55919291073839883 0 0.82903756765294845 0.82903756765294845 0 -0.55919291073839883 forward_v I I I I #
loop $-1 $-1 $424 $129 #
coedge $-1 $281 $281 $282 $425 reversed $186 $-1 #
coedge $-1 $282 $282 $281 $425 forward $188 $-1 #
coedge $-1 $283 $283 $189 $284 forward $278 $-1 #
edge $-1 $426 $426 $283 $427 forward #
face $-1 $428 $429 $79 $-1 $430 reversed single #
loop $-1 $-1 $431 $190 #
plane-surface $-1 22.672341765341365 -8.481927252180741 139.83847020150083 0 1 0 0.55919291073839883 0 0.82903756765294845 forward_v I I I I #
coedge $-1 $432 $433 $434 $435 reversed $191 $-1 #
coedge $-1 $290 $193 $436 $437 reversed $133 $-1 #
coedge $-1 $193 $289 $432 $438 reversed $133 $-1 #
coedge $-1 $434 $439 $193 $292 forward $440 $-1 #
edge $-1 $441 $442 $291 $443 forward #
loop $-1 $-1 $298 $194 #
plane-surface $-1 -32.413117538160122 -5.3034598701539615 58.170919849839308 0.55919291073839883 0 0.82903756765294845 0.82903756765294845 0 -0.55919291073839883 forward_v I I I I #
loop $-1 $-1 $444 $135 #
coedge $-1 $296 $296 $297 $445 reversed $195 $-1 #
coedge $-1 $297 $297 $296 $445 forward $197 $-1 #
coedge $-1 $298 $298 $198 $299 forward $293 $-1 #
edge $-1 $446 $446 $298 $447 forward #
face $-1 $448 $449 $83 $-1 $450 reversed single #
loop $-1 $-1 $451 $199 #
plane-surface $-1 22.672341765341365 2.1249924881271749 139.83847020150083 0 1 0 0.55919291073839883 0 0.82903756765294845 forward_v I I I I #
coedge $-1 $452 $453 $454 $455 reversed $200 $-1 #
coedge $-1 $305 $202 $456 $457 reversed $139 $-1 #
coedge $-1 $202 $304 $452 $458 reversed $139 $-1 #
coedge $-1 $454 $459 $202 $307 forward $460 $-1 #
edge $-1 $461 $462 $306 $463 forward #
loop $-1 $-1 $313 $203 #
plane-surface $-1 -32.413117538160122 5.3034598701539544 58.170919849839308 0.55919291073839883 0 0.82903756765294845 0.82903756765294845 0 -0.55919291073839883 forward_v I I I I #
loop $-1 $-1 $464 $141 #
coedge $-1 $311 $311 $312 $465 reversed $204 $-1 #
coedge $-1 $312 $312 $311 $465 forward $206 $-1 #
coedge $-1 $313 $313 $207 $314 forward $308 $-1 #
edge $-1 $466 $466 $313 $467 forward #
face $-1 $468 $469 $87 $-1 $470 reversed single #
loop $-1 $-1 $471 $208 #
plane-surface $-1 22.672341765341365 12.731912228435091 139.83847020150083 0 1 0 0.55919291073839883 0 0.82903756765294845 forward_v I I I I #
coedge $-1 $472 $473 $474 $475 reversed $209 $-1 #
coedge $-1 $320 $211 $476 $477 reversed $145 $-1 #
coedge $-1 $211 $319 $472 $478 reversed $145 $-1 #
coedge $-1 $474 $479 $211 $322 forward $480 $-1 #
edge $-1 $481 $482 $321 $483 forward #
loop $-1 $-1 $328 $212 #
plane-surface $-1 -32.413117538160122 15.91037961046187 58.170919849839308 0.55919291073839883 0 0.82903756765294845 0.82903756765294845 0 -0.55919291073839883 forward_v I I I I #
loop $-1 $-1 $484 $147 #
coedge $-1 $326 $326 $327 $485 reversed $213 $-1 #
coedge $-1 $327 $327 $326 $485 forward $215 $-1 #
coedge $-1 $328 $328 $216 $329 forward $323 $-1 #
edge $-1 $486 $486 $328 $487 forward #
face $-1 $488 $489 $61 $-1 $490 reversed single #
loop $-1 $-1 $491 $217 #
plane-surface $-1 -49.254432813501388 0 0 1 0 0 0 0 -1 forward_v I I I I #
coedge $-1 $492 $341 $493 $494 forward $218 $-1 #
coedge $-1 $495 $220 $492 $496 forward $151 $-1 #
coedge $-1 $220 $495 $497 $498 forward $151 $-1 #
coedge $-1 $344 $343 $220 $337 reversed $345 $-1 #
edge $-1 $499 $500 $336 $501 forward #
coedge $-1 $222 $221 $502 $503 forward $106 $-1 #
coedge $-1 $504 $505 $221 $340 reversed $489 $-1 #
edge $-1 $347 $506 $339 $507 forward #
coedge $-1 $333 $508 $222 $342 reversed $218 $-1 #
edge $-1 $509 $346 $341 $510 forward #
coedge $-1 $336 $223 $508 $511 forward $345 $-1 #
coedge $-1 $223 $336 $504 $512 reversed $345 $-1 #
loop $-1 $-1 $343 $488 #
vertex $-1 $224 $513 #
vertex $-1 $224 $514 #
straight-curve $-1 49.254432813501388 0 11.361697603329025 0 1 0 I I #
face $-1 $515 $516 $63 $-1 $517 reversed single #
loop $-1 $-1 $518 $225 #
plane-surface $-1 0 0 11.361697603329025 0 0 1 1 0 0 forward_v I I I I #
coedge $-1 $519 $520 $521 $522 reversed $226 $-1 #
coedge $-1 $231 $228 $523 $524 reversed $155 $-1 #
coedge $-1 $228 $231 $525 $526 reversed $155 $-1 #
coedge $-1 $520 $519 $228 $356 reversed $226 $-1 #
edge $-1 $527 $528 $355 $529 forward #
coedge $-1 $230 $229 $530 $531 reversed $109 $-1 #
coedge $-1 $523 $532 $229 $359 forward $516 $-1 #
edge $-1 $533 $363 $358 $534 forward #
coedge $-1 $535 $525 $230 $361 forward $350 $-1 #
edge $-1 $362 $536 $360 $537 forward #
vertex $-1 $361 $538 #
vertex $-1 $359 $539 #
straight-curve $-1 -45.096085245035169 -21.148549682190211 0 0 0 -1 I I #
face $-1 $540 $541 $65 $-1 $542 forward single #
loop $-1 $-1 $543 $233 #
plane-surface $-1 0 0 -11.361697603329025 0 0 1 1 0 0 forward_v I I I I #
coedge $-1 $544 $545 $373 $546 forward $234 $-1 #
coedge $-1 $239 $236 $547 $548 reversed $159 $-1 #
coedge $-1 $236 $239 $549 $550 reversed $159 $-1 #
coedge $-1 $551 $552 $236 $372 forward $553 $-1 #
edge $-1 $554 $555 $371 $556 forward #
coedge $-1 $238 $237 $368 $546 reversed $112 $-1 #
coedge $-1 $547 $543 $237 $375 forward $366 $-1 #
edge $-1 $557 $379 $374 $558 forward #
coedge $-1 $559 $549 $238 $377 forward $541 $-1 #
edge $-1 $378 $560 $376 $561 forward #
vertex $-1 $377 $562 #
vertex $-1 $375 $563 #
straight-curve $-1 -45.096085245035169 21.148549682190215 0 0 0 -1 I I #
face $-1 $-1 $393 $67 $-1 $564 forward single #
loop $-1 $-1 $565 $241 #
plane-surface $-1 -49.254432813501388 0 0 1 0 0 0 0 -1 forward_v I I I I #
coedge $-1 $566 $567 $568 $569 reversed $242 $-1 #
coedge $-1 $570 $244 $246 $391 forward $163 $-1 #
coedge $-1 $244 $570 $566 $571 forward $163 $-1 #
coedge $-1 $568 $247 $244 $388 forward $393 $-1 #
edge $-1 $395 $572 $387 $573 forward #
coedge $-1 $574 $575 $245 $390 forward $382 $-1 #
edge $-1 $576 $394 $389 $577 forward #
edge $-1 $395 $576 $246 $578 forward #
coedge $-1 $247 $568 $574 $579 forward $393 $-1 #
loop $-1 $-1 $568 $381 #
vertex $-1 $390 $580 #
vertex $-1 $248 $581 #
straight-curve $-1 -66.397344771828031 -4.8244924043266941 11.361697603329024 1 0 0 I I #
coedge $-1 $397 $397 $-1 $582 reversed $251 $-1 #
edge $-1 $583 $583 $252 $584 forward #
vertex $-1 $255 $585 #
ellipse-curve $-1 -45.811003273566151 -2.776362923270252 5.8510582288754422 -0.84804810408105047 0 0.52991925155115449 0.26495962577557725 0 0.42402405204052523 1 I I #
coedge $-1 $401 $401 $-1 $586 reversed $258 $-1 #
edge $-1 $587 $587 $259 $588 forward #
vertex $-1 $262 $589 #
ellipse-curve $-1 -45.811003273566151 0.29583129831441113 5.8510582288754422 -0.84804810408105047 0 0.52991925155115449 0.26495962577557725 0 0.42402405204052523 1 I I #
coedge $-1 $405 $405 $-1 $590 reversed $265 $-1 #
edge $-1 $591 $591 $266 $592 forward #
vertex $-1 $269 $593 #
ellipse-curve $-1 -45.811003273566151 3.3680255198990743 5.8510582288754422 -0.84804810408105047 0 0.52991925155115449 0.26495962577557725 0 0.42402405204052523 1 I I #
face $-1 $-1 $594 $75 $-1 $595 reversed single #
loop $-1 $-1 $276 $270 #
plane-surface $-1 0 0 11.361697603329025 0 0 1 1 0 0 forward_v I I I I #
coedge $-1 $596 $597 $598 $599 reversed $271 $-1 #
coedge $-1 $600 $273 $275 $419 forward $182 $-1 #
coedge $-1 $273 $600 $596 $601 forward $182 $-1 #
coedge $-1 $598 $276 $273 $416 forward $410 $-1 #
edge $-1 $422 $602 $415 $603 forward #
coedge $-1 $604 $605 $274 $418 forward $594 $-1 #
edge $-1 $606 $421 $417 $607 forward #
edge $-1 $422 $606 $275 $608 forward #
coedge $-1 $276 $598 $604 $609 forward $410 $-1 #
vertex $-1 $277 $610 #
vertex $-1 $277 $611 #
straight-curve $-1 11.336170882670682 -12.731912228435096 11.36169760332902 -1 0 0 I I #
coedge $-1 $424 $424 $-1 $612 reversed $280 $-1 #
edge $-1 $613 $613 $281 $614 forward #
vertex $-1 $284 $615 #
ellipse-curve $-1 43.119419916085526 -15.910379610461877 7.2235790748334274 0.55919291073839883 0 0.82903756765294845 1.2435563514794228 0 -0.83878936610759824 1 I I #
face $-1 $-1 $440 $79 $-1 $616 forward single #
loop $-1 $-1 $617 $285 #
plane-surface $-1 49.254432813501388 0 0 -1 0 0 0 0 1 forward_v I I I I #
coedge $-1 $618 $619 $620 $621 reversed $286 $-1 #
coedge $-1 $622 $288 $290 $438 forward $191 $-1 #
coedge $-1 $288 $622 $618 $623 forward $191 $-1 #
coedge $-1 $620 $291 $288 $435 forward $440 $-1 #
edge $-1 $442 $624 $434 $625 forward #
coedge $-1 $626 $627 $289 $437 forward $429 $-1 #
edge $-1 $628 $441 $436 $629 forward #
edge $-1 $442 $628 $290 $630 forward #
coedge $-1 $291 $620 $626 $631 forward $440 $-1 #
loop $-1 $-1 $620 $428 #
vertex $-1 $437 $632 #
vertex $-1 $292 $633 #
straight-curve $-1 11.336170882670682 -2.124992488127182 11.36169760332902 -1 0 0 I I #
coedge $-1 $444 $444 $-1 $634 reversed $295 $-1 #
edge $-1 $635 $635 $296 $636 forward #
vertex $-1 $299 $637 #
ellipse-curve $-1 43.119419916085526 -5.3034598701539615 7.2235790748334274 0.55919291073839883 0 0.82903756765294845 1.2435563514794228 0 -0.83878936610759824 1 I I #
face $-1 $-1 $460 $83 $-1 $638 forward single #
loop $-1 $-1 $639 $300 #
plane-surface $-1 49.254432813501388 0 0 -1 0 0 0 0 1 forward_v I I I I #
coedge $-1 $640 $641 $642 $643 reversed $301 $-1 #
coedge $-1 $644 $303 $305 $458 forward $200 $-1 #
coedge $-1 $303 $644 $640 $645 forward $200 $-1 #
coedge $-1 $642 $306 $303 $455 forward $460 $-1 #
edge $-1 $462 $646 $454 $647 forward #
coedge $-1 $648 $649 $304 $457 forward $449 $-1 #
edge $-1 $650 $461 $456 $651 forward #
edge $-1 $462 $650 $305 $652 forward #
coedge $-1 $306 $642 $648 $653 forward $460 $-1 #
loop $-1 $-1 $642 $448 #
vertex $-1 $457 $654 #
vertex $-1 $307 $655 #
straight-curve $-1 11.336170882670682 8.4819272521807338 11.36169760332902 -1 0 0 I I #
coedge $-1 $464 $464 $-1 $656 reversed $310 $-1 #
edge $-1 $657 $657 $311 $658 forward #
vertex $-1 $314 $659 #
ellipse-curve $-1 43.119419916085526 5.3034598701539544 7.2235790748334274 0.55919291073839883 0 0.82903756765294845 1.2435563514794228 0 -0.83878936610759824 1 I I #
face $-1 $-1 $480 $87 $-1 $660 forward single #
loop $-1 $-1 $661 $315 #
plane-surface $-1 49.254432813501388 0 0 -1 0 0 0 0 1 forward_v I I I I #
coedge $-1 $662 $663 $664 $665 reversed $316 $-1 #
coedge $-1 $666 $318 $320 $478 forward $209 $-1 #
coedge $-1 $318 $666 $662 $667 forward $209 $-1 #
coedge $-1 $664 $321 $318 $475 forward $480 $-1 #
edge $-1 $482 $668 $474 $669 forward #
coedge $-1 $670 $671 $319 $477 forward $469 $-1 #
edge $-1 $672 $481 $476 $673 forward #
edge $-1 $482 $672 $320 $674 forward #
coedge $-1 $321 $664 $670 $675 forward $480 $-1 #
loop $-1 $-1 $664 $468 #
vertex $-1 $477 $676 #
vertex $-1 $322 $677 #
straight-curve $-1 11.336170882670682 19.088846992488648 11.36169760332902 -1 0 0 I I #
coedge $-1 $484 $484 $-1 $678 reversed $325 $-1 #
edge $-1 $679 $679 $326 $680 forward #
vertex $-1 $329 $681 #
ellipse-curve $-1 43.119419916085526 15.91037961046187 7.2235790748334274 0.55919291073839883 0 0.82903756765294845 1.2435563514794228 0 -0.83878936610759824 1 I I #
face $-1 $-1 $345 $61 $-1 $682 reversed single #
loop $-1 $-1 $504 $330 #
plane-surface $-1 0 30.836218151782244 0 0 -1 0 0 0 -1 forward_v I I I I #
coedge $-1 $683 $502 $505 $684 forward $331 $-1 #
coedge $-1 $508 $333 $334 $496 reversed $218 $-1 #
coedge $-1 $502 $683 $333 $494 reversed $331 $-1 #
edge $-1 $509 $685 $493 $686 forward #
coedge $-1 $335 $334 $683 $687 forward $151 $-1 #
edge $-1 $500 $685 $492 $688 forward #
coedge $-1 $505 $504 $335 $498 reversed $489 $-1 #
edge $-1 $689 $499 $497 $690 forward #
vertex $-1 $337 $691 #
vertex $-1 $511 $692 #
straight-curve $-1 49.254432813501388 0 -11.361697603329025 0 -1 0 I I #
coedge $-1 $491 $493 $338 $503 reversed $331 $-1 #
edge $-1 $506 $509 $502 $693 forward #
coedge $-1 $497 $339 $344 $512 forward $489 $-1 #
coedge $-1 $339 $497 $491 $684 reversed $489 $-1 #
vertex $-1 $340 $694 #
straight-curve $-1 0 30.836218151782244 11.361697603329025 -1 0 0 I I #
coedge $-1 $341 $492 $343 $511 reversed $218 $-1 #
vertex $-1 $503 $695 #
straight-curve $-1 0 -30.836218151782244 11.361697603329025 1 0 0 I I #
edge $-1 $346 $500 $343 $696 forward #
edge $-1 $347 $499 $344 $697 forward #
point $-1 49.254432813501388 -30.836218151782244 11.361697603329025 #
point $-1 49.254432813501388 30.836218151782244 11.361697603329025 #
face $-1 $-1 $698 $63 $-1 $699 reversed single #
loop $-1 $-1 $700 $349 #
plane-surface $-1 0 0 -11.361697603329025 0 0 1 1 0 0 forward_v I I I I #
coedge $-1 $525 $535 $520 $701 forward $350 $-1 #
coedge $-1 $355 $352 $700 $702 reversed $226 $-1 #
coedge $-1 $352 $355 $518 $701 reversed $226 $-1 #
coedge $-1 $703 $704 $352 $522 forward $698 $-1 #
edge $-1 $705 $706 $521 $707 forward #
coedge $-1 $700 $358 $353 $524 forward $516 $-1 #
edge $-1 $363 $528 $523 $708 forward #
coedge $-1 $360 $518 $354 $526 forward $350 $-1 #
edge $-1 $527 $362 $525 $709 forward #
vertex $-1 $526 $710 #
vertex $-1 $524 $711 #
straight-curve $-1 -39.447448782228321 -21.148549682190211 0 0 0 -1 I I #
coedge $-1 $704 $703 $357 $531 forward $698 $-1 #
edge $-1 $536 $533 $530 $712 forward #
coedge $-1 $358 $700 $704 $713 forward $516 $-1 #
vertex $-1 $359 $714 #
straight-curve $-1 -45.096085245035169 -12.996191958493114 -11.361697603329025 0 1 0 I I #
coedge $-1 $518 $360 $703 $715 forward $350 $-1 #
vertex $-1 $715 $716 #
straight-curve $-1 -45.096085245035169 -12.996191958493114 11.361697603329025 0 -1 0 I I #
point $-1 -45.096085245035169 -21.148549682190211 11.361697603329025 #
point $-1 -45.096085245035169 -21.148549682190211 -11.361697603329025 #
face $-1 $-1 $553 $65 $-1 $717 reversed single #
loop $-1 $-1 $559 $365 #
plane-surface $-1 0 0 11.361697603329025 0 0 1 1 0 0 forward_v I I I I #
coedge $-1 $374 $718 $544 $719 forward $366 $-1 #
coedge $-1 $720 $368 $543 $719 reversed $234 $-1 #
coedge $-1 $368 $720 $559 $721 reversed $234 $-1 #
edge $-1 $560 $557 $368 $722 forward #
coedge $-1 $718 $374 $369 $548 forward $366 $-1 #
edge $-1 $379 $554 $547 $723 forward #
coedge $-1 $376 $724 $370 $550 forward $541 $-1 #
edge $-1 $555 $378 $549 $725 forward #
coedge $-1 $726 $371 $724 $727 reversed $553 $-1 #
coedge $-1 $371 $726 $718 $728 reversed $553 $-1 #
loop $-1 $-1 $726 $540 #
vertex $-1 $728 $729 #
vertex $-1 $372 $730 #
straight-curve $-1 -45.096085245035169 30.836218151782244 0 0 0 1 I I #
vertex $-1 $375 $731 #
straight-curve $-1 -21.135883506815873 21.148549682190215 -11.361697603329025 -1 0 0 I I #
coedge $-1 $724 $376 $545 $721 forward $541 $-1 #
vertex $-1 $377 $732 #
straight-curve $-1 -21.135883506815873 21.148549682190215 11.361697603329025 1 0 0 I I #
point $-1 -45.096085245035169 21.148549682190215 11.361697603329025 #
point $-1 -45.096085245035169 21.148549682190215 -11.361697603329025 #
plane-surface $-1 0 0 11.361697603329025 0 0 1 1 0 0 forward_v I I I I #
coedge $-1 $575 $574 $567 $733 forward $382 $-1 #
coedge $-1 $567 $384 $386 $571 reversed $242 $-1 #
coedge $-1 $384 $566 $565 $733 reversed $242 $-1 #
coedge $-1 $392 $387 $384 $569 forward $393 $-1 #
edge $-1 $572 $734 $568 $735 forward #
coedge $-1 $386 $385 $575 $736 reversed $163 $-1 #
edge $-1 $737 $572 $566 $738 forward #
vertex $-1 $388 $739 #
straight-curve $-1 -42.367573733630913 0.14791564915720556 11.361697603329025 0 1 0 I I #
coedge $-1 $565 $389 $392 $579 reversed $382 $-1 #
coedge $-1 $389 $565 $570 $736 forward $382 $-1 #
vertex $-1 $390 $740 #
straight-curve $-1 -49.254432813501388 -4.8244924043266941 26.271081599318208 0 0 1 I I #
straight-curve $-1 -49.254432813501396 -4.8244924043266941 0.3404188544218556 -0.52991925155115449 0 -0.84804810408105047 I I #
edge $-1 $734 $394 $574 $741 forward #
point $-1 -49.254432813501388 -4.8244924043266941 11.361697603329025 #
point $-1 -42.367573733630913 -4.8244924043266941 11.361697603329025 #
edge $-1 $742 $742 $397 $-1 forward #
vertex $-1 $398 $743 #
ellipse-curve $-1 -44.962955169485092 -2.776362923270252 5.3211389773242841 -0.84804810408105047 0 0.52991925155115449 0.26495962577557725 0 0.42402405204052523 1 I I #
point $-1 -45.546043647790569 -2.776362923270252 6.2750822809159645 #
edge $-1 $744 $744 $401 $-1 forward #
vertex $-1 $402 $745 #
ellipse-curve $-1 -44.962955169485092 0.29583129831441113 5.3211389773242841 -0.84804810408105047 0 0.52991925155115449 0.26495962577557725 0 0.42402405204052523 1 I I #
point $-1 -45.546043647790569 0.29583129831441113 6.2750822809159645 #
edge $-1 $746 $746 $405 $-1 forward #
vertex $-1 $406 $747 #
ellipse-curve $-1 -44.962955169485092 3.3680255198990743 5.3211389773242841 -0.84804810408105047 0 0.52991925155115449 0.26495962577557725 0 0.42402405204052523 1 I I #
point $-1 -45.546043647790569 3.3680255198990743 6.2750822809159645 #
loop $-1 $-1 $417 $409 #
plane-surface $-1 49.254432813501388 0 0 -1 0 0 0 0 1 forward_v I I I I #
coedge $-1 $597 $412 $414 $601 reversed $271 $-1 #
coedge $-1 $412 $596 $748 $749 reversed $271 $-1 #
coedge $-1 $420 $415 $412 $599 forward $410 $-1 #
edge $-1 $602 $750 $598 $751 forward #
coedge $-1 $414 $413 $605 $752 reversed $182 $-1 #
edge $-1 $753 $602 $596 $754 forward #
vertex $-1 $416 $755 #
straight-curve $-1 36.984407018669671 -7.9551898052309378 11.361697603329027 0 -1 0 I I #
coedge $-1 $748 $417 $420 $609 reversed $594 $-1 #
coedge $-1 $417 $748 $600 $752 forward $594 $-1 #
vertex $-1 $418 $756 #
straight-curve $-1 49.254432813501388 -12.731912228435096 69.919235100750413 0 0 1 I I #
straight-curve $-1 -32.413117538160122 -12.731912228435096 58.170919849839308 0.82903756765294845 0 -0.55919291073839883 I I #
edge $-1 $750 $421 $604 $757 forward #
point $-1 49.254432813501388 -12.731912228435096 11.361697603329025 #
point $-1 36.984407018669671 -12.731912228435096 11.361697603329027 #
edge $-1 $758 $758 $424 $-1 forward #
vertex $-1 $425 $759 #
ellipse-curve $-1 41.520121706394733 -15.910379610461877 4.8525220169694592 0.55919291073839883 0 0.82903756765294845 1.2435563514794228 0 -0.83878936610759824 1 I I #
point $-1 44.362976267564946 -15.910379610461877 6.3847897087258225 #
plane-surface $-1 0 0 11.361697603329025 0 0 1 1 0 0 forward_v I I I I #
coedge $-1 $627 $626 $619 $760 forward $429 $-1 #
coedge $-1 $619 $431 $433 $623 reversed $286 $-1 #
coedge $-1 $431 $618 $617 $760 reversed $286 $-1 #
coedge $-1 $439 $434 $431 $621 forward $440 $-1 #
edge $-1 $624 $761 $620 $762 forward #
coedge $-1 $433 $432 $627 $763 reversed $191 $-1 #
edge $-1 $764 $624 $618 $765 forward #
vertex $-1 $435 $766 #
straight-curve $-1 36.984407018669671 -2.6517299350769807 11.361697603329027 0 -1 0 I I #
coedge $-1 $617 $436 $439 $631 reversed $429 $-1 #
coedge $-1 $436 $617 $622 $763 forward $429 $-1 #
vertex $-1 $437 $767 #
straight-curve $-1 49.254432813501388 -2.124992488127182 69.919235100750413 0 0 1 I I #
straight-curve $-1 -32.413117538160122 -2.124992488127182 58.170919849839308 0.82903756765294845 0 -0.55919291073839883 I I #
edge $-1 $761 $441 $626 $768 forward #
point $-1 49.254432813501388 -2.124992488127182 11.361697603329025 #
point $-1 36.984407018669671 -2.124992488127182 11.361697603329027 #
edge $-1 $769 $769 $444 $-1 forward #
vertex $-1 $445 $770 #
ellipse-curve $-1 41.520121706394733 -5.3034598701539615 4.8525220169694592 0.55919291073839883 0 0.82903756765294845 1.2435563514794228 0 -0.83878936610759824 1 I I #
point $-1 44.362976267564946 -5.3034598701539615 6.3847897087258225 #
plane-surface $-1 0 0 11.361697603329025 0 0 1 1 0 0 forward_v I I I I #
coedge $-1 $649 $648 $641 $771 forward $449 $-1 #
coedge $-1 $641 $451 $453 $645 reversed $301 $-1 #
coedge $-1 $451 $640 $639 $771 reversed $301 $-1 #
coedge $-1 $459 $454 $451 $643 forward $460 $-1 #
edge $-1 $646 $772 $642 $773 forward #
coedge $-1 $453 $452 $649 $774 reversed $200 $-1 #
edge $-1 $775 $646 $640 $776 forward #
vertex $-1 $455 $777 #
straight-curve $-1 36.984407018669671 2.6517299350769772 11.361697603329027 0 -1 0 I I #
coedge $-1 $639 $456 $459 $653 reversed $449 $-1 #
coedge $-1 $456 $639 $644 $774 forward $449 $-1 #
vertex $-1 $457 $778 #
straight-curve $-1 49.254432813501388 8.4819272521807338 69.919235100750413 0 0 1 I I #
straight-curve $-1 -32.413117538160122 8.4819272521807338 58.170919849839308 0.82903756765294845 0 -0.55919291073839883 I I #
edge $-1 $772 $461 $648 $779 forward #
point $-1 49.254432813501388 8.4819272521807338 11.361697603329025 #
point $-1 36.984407018669671 8.4819272521807338 11.361697603329027 #
edge $-1 $780 $780 $464 $-1 forward #
vertex $-1 $465 $781 #
ellipse-curve $-1 41.520121706394733 5.3034598701539544 4.8525220169694592 0.55919291073839883 0 0.82903756765294845 1.2435563514794228 0 -0.83878936610759824 1 I I #
point $-1 44.362976267564946 5.3034598701539544 6.3847897087258225 #
plane-surface $-1 0 0 11.361697603329025 0 0 1 1 0 0 forward_v I I I I #
coedge $-1 $671 $670 $663 $782 forward $469 $-1 #
coedge $-1 $663 $471 $473 $667 reversed $316 $-1 #
coedge $-1 $471 $662 $661 $782 reversed $316 $-1 #
coedge $-1 $479 $474 $471 $665 forward $480 $-1 #
edge $-1 $668 $783 $664 $784 forward #
coedge $-1 $473 $472 $671 $785 reversed $209 $-1 #
edge $-1 $786 $668 $662 $787 forward #
vertex $-1 $475 $788 #
straight-curve $-1 36.984407018669671 7.9551898052309351 11.361697603329027 0 -1 0 I I #
coedge $-1 $661 $476 $479 $675 reversed $469 $-1 #
coedge $-1 $476 $661 $666 $785 forward $469 $-1 #
vertex $-1 $477 $789 #
straight-curve $-1 49.254432813501388 19.088846992488648 69.919235100750413 0 0 1 I I #
straight-curve $-1 -32.413117538160122 19.088846992488648 58.170919849839308 0.82903756765294845 0 -0.55919291073839883 I I #
edge $-1 $783 $481 $670 $790 forward #
point $-1 49.254432813501388 19.088846992488648 11.361697603329025 #
point $-1 36.984407018669671 19.088846992488648 11.361697603329027 #
edge $-1 $791 $791 $484 $-1 forward #
vertex $-1 $485 $792 #
ellipse-curve $-1 41.520121706394733 15.91037961046187 4.8525220169694592 0.55919291073839883 0 0.82903756765294845 1.2435563514794228 0 -0.83878936610759824 1 I I #
point $-1 44.362976267564946 15.91037961046187 6.3847897087258225 #
plane-surface $-1 49.254432813501388 0 0 -1 0 0 0 0 1 forward_v I I I I #
coedge $-1 $493 $491 $495 $687 reversed $331 $-1 #
edge $-1 $506 $689 $505 $793 forward #
vertex $-1 $687 $794 #
straight-curve $-1 -49.254432813501388 -30.836218151782244 0 0 0 -1 I I #
edge $-1 $685 $689 $683 $795 forward #
straight-curve $-1 0 -30.836218151782244 -11.361697603329025 -1 0 0 I I #
vertex $-1 $498 $796 #
straight-curve $-1 0 30.836218151782244 -11.361697603329025 1 0 0 I I #
point $-1 49.254432813501388 30.836218151782244 -11.361697603329025 #
point $-1 49.254432813501388 -30.836218151782244 -11.361697603329025 #
straight-curve $-1 -49.254432813501388 0 11.361697603329025 0 -1 0 I I #
point $-1 -49.254432813501388 30.836218151782244 11.361697603329025 #
point $-1 -49.254432813501388 -30.836218151782244 11.361697603329025 #
straight-curve $-1 49.254432813501388 -30.836218151782244 0 0 0 -1 I I #
straight-curve $-1 49.254432813501388 30.836218151782244 0 0 0 -1 I I #
loop $-1 $-1 $521 $515 #
plane-surface $-1 0 -30.836218151782244 0 0 1 0 0 0 1 forward_v I I I I #
coedge $-1 $532 $523 $519 $702 forward $516 $-1 #
edge $-1 $706 $527 $518 $797 forward #
edge $-1 $528 $705 $700 $798 forward #
coedge $-1 $530 $521 $535 $715 reversed $698 $-1 #
coedge $-1 $521 $530 $532 $713 reversed $698 $-1 #
vertex $-1 $713 $799 #
vertex $-1 $522 $800 #
straight-curve $-1 -39.447448782228321 -30.836218151782244 0 0 0 1 I I #
straight-curve $-1 -21.135883506815873 -21.148549682190211 -11.361697603329025 1 0 0 I I #
straight-curve $-1 -21.135883506815873 -21.148549682190211 11.361697603329025 -1 0 0 I I #
point $-1 -39.447448782228321 -21.148549682190211 11.361697603329025 #
point $-1 -39.447448782228321 -21.148549682190211 -11.361697603329025 #
straight-curve $-1 -45.096085245035169 -30.836218151782244 0 0 0 -1 I I #
edge $-1 $705 $533 $704 $801 forward #
point $-1 -45.096085245035169 -30.836218151782244 -11.361697603329025 #
edge $-1 $536 $706 $703 $802 forward #
point $-1 -45.096085245035169 -30.836218151782244 11.361697603329025 #
plane-surface $-1 0 30.836218151782244 0 0 -1 0 0 0 -1 forward_v I I I I #
coedge $-1 $543 $547 $552 $728 forward $366 $-1 #
edge $-1 $803 $557 $543 $804 forward #
coedge $-1 $545 $544 $726 $805 reversed $234 $-1 #
edge $-1 $560 $806 $559 $807 forward #
straight-curve $-1 -39.447448782228321 21.148549682190215 0 0 0 -1 I I #
straight-curve $-1 -45.096085245035169 12.996191958493116 -11.361697603329025 0 1 0 I I #
coedge $-1 $549 $559 $551 $727 forward $541 $-1 #
straight-curve $-1 -45.096085245035169 12.996191958493116 11.361697603329025 0 -1 0 I I #
coedge $-1 $552 $551 $720 $805 forward $553 $-1 #
edge $-1 $806 $555 $551 $808 forward #
edge $-1 $554 $803 $552 $809 forward #
point $-1 -45.096085245035169 30.836218151782248 -11.361697603329025 #
point $-1 -45.096085245035169 30.836218151782248 11.361697603329025 #
point $-1 -39.447448782228321 21.148549682190215 -11.361697603329025 #
point $-1 -39.447448782228321 21.148549682190215 11.361697603329025 #
edge $-1 $734 $737 $565 $810 forward #
vertex $-1 $579 $811 #
straight-curve $-1 -66.397344771828031 5.4161550009555164 11.361697603329024 -1 0 0 I I #
edge $-1 $737 $576 $575 $812 forward #
vertex $-1 $736 $813 #
straight-curve $-1 -49.254432813501396 5.4161550009555164 0.3404188544218556 0.52991925155115449 0 0.84804810408105047 I I #
point $-1 -42.367573733630913 5.4161550009555164 11.361697603329025 #
point $-1 -49.254432813501388 -4.8244924043266941 0.34041885442186698 #
straight-curve $-1 -49.254432813501388 0 11.361697603329025 0 -1 0 I I #
vertex $-1 $582 $814 #
point $-1 -44.697995543709517 -2.776362923270252 5.7451630293648099 #
vertex $-1 $586 $815 #
point $-1 -44.697995543709517 0.29583129831441113 5.7451630293648099 #
vertex $-1 $590 $816 #
point $-1 -44.697995543709517 3.3680255198990743 5.7451630293648099 #
coedge $-1 $605 $604 $597 $749 forward $594 $-1 #
edge $-1 $750 $753 $748 $817 forward #
vertex $-1 $609 $818 #
straight-curve $-1 11.336170882670682 -19.088846992488655 11.36169760332902 1 0 0 I I #
edge $-1 $753 $606 $605 $819 forward #
vertex $-1 $752 $820 #
straight-curve $-1 -32.413117538160122 -19.088846992488655 58.170919849839308 -0.82903756765294845 0 0.55919291073839883 I I #
point $-1 36.984407018669671 -19.088846992488655 11.361697603329027 #
point $-1 49.254432813501381 -12.731912228435096 3.0854605463378348 #
straight-curve $-1 49.254432813501388 0 11.361697603329025 0 1 0 I I #
vertex $-1 $612 $821 #
point $-1 42.763678057874152 -15.910379610461877 4.0137326508618605 #
edge $-1 $761 $764 $617 $822 forward #
vertex $-1 $631 $823 #
straight-curve $-1 11.336170882670682 -8.481927252180741 11.36169760332902 1 0 0 I I #
edge $-1 $764 $628 $627 $824 forward #
vertex $-1 $763 $825 #
straight-curve $-1 -32.413117538160122 -8.481927252180741 58.170919849839308 -0.82903756765294845 0 0.55919291073839883 I I #
point $-1 36.984407018669671 -8.481927252180741 11.361697603329027 #
point $-1 49.254432813501381 -2.124992488127182 3.0854605463378348 #
straight-curve $-1 49.254432813501388 0 11.361697603329025 0 1 0 I I #
vertex $-1 $634 $826 #
point $-1 42.763678057874152 -5.3034598701539615 4.0137326508618605 #
edge $-1 $772 $775 $639 $827 forward #
vertex $-1 $653 $828 #
straight-curve $-1 11.336170882670682 2.1249924881271749 11.36169760332902 1 0 0 I I #
edge $-1 $775 $650 $649 $829 forward #
vertex $-1 $774 $830 #
straight-curve $-1 -32.413117538160122 2.1249924881271749 58.170919849839308 -0.82903756765294845 0 0.55919291073839883 I I #
point $-1 36.984407018669671 2.1249924881271749 11.361697603329027 #
point $-1 49.254432813501381 8.4819272521807338 3.0854605463378348 #
straight-curve $-1 49.254432813501388 0 11.361697603329025 0 1 0 I I #
vertex $-1 $656 $831 #
point $-1 42.763678057874152 5.3034598701539544 4.0137326508618605 #
edge $-1 $783 $786 $661 $832 forward #
vertex $-1 $675 $833 #
straight-curve $-1 11.336170882670682 12.731912228435091 11.36169760332902 1 0 0 I I #
edge $-1 $786 $672 $671 $834 forward #
vertex $-1 $785 $835 #
straight-curve $-1 -32.413117538160122 12.731912228435091 58.170919849839308 -0.82903756765294845 0 0.55919291073839883 I I #
point $-1 36.984407018669671 12.731912228435091 11.361697603329027 #
point $-1 49.254432813501381 19.088846992488648 3.0854605463378348 #
straight-curve $-1 49.254432813501388 0 11.361697603329025 0 1 0 I I #
vertex $-1 $678 $836 #
point $-1 42.763678057874152 15.91037961046187 4.0137326508618605 #
straight-curve $-1 -49.254432813501388 30.836218151782244 0 0 0 -1 I I #
point $-1 -49.254432813501388 -30.836218151782244 -11.361697603329025 #
straight-curve $-1 -49.254432813501388 0 -11.361697603329025 0 1 0 I I #
point $-1 -49.254432813501388 30.836218151782244 -11.361697603329025 #
straight-curve $-1 -39.447448782228321 -12.996191958493114 11.361697603329025 0 1 0 I I #
straight-curve $-1 -39.447448782228321 -12.996191958493114 -11.361697603329025 0 -1 0 I I #
point $-1 -39.447448782228321 -30.836218151782244 -11.361697603329025 #
point $-1 -39.447448782228321 -30.836218151782244 11.361697603329025 #
straight-curve $-1 0 -30.836218151782244 -11.361697603329025 -1 0 0 I I #
straight-curve $-1 0 -30.836218151782244 11.361697603329025 1 0 0 I I #
vertex $-1 $805 $837 #
straight-curve $-1 -39.447448782228321 12.996191958493116 -11.361697603329025 0 -1 0 I I #
edge $-1 $806 $803 $726 $838 forward #
vertex $-1 $727 $839 #
straight-curve $-1 -39.447448782228321 12.996191958493116 11.361697603329025 0 1 0 I I #
straight-curve $-1 0 30.836218151782244 11.361697603329025 -1 0 0 I I #
straight-curve $-1 0 30.836218151782244 -11.361697603329025 1 0 0 I I #
straight-curve $-1 -49.254432813501388 5.4161550009555164 26.271081599318208 0 0 -1 I I #
point $-1 -49.254432813501388 5.4161550009555164 11.361697603329025 #
straight-curve $-1 -49.254432813501388 0.14791564915720556 0.34041885442187714 0 -1 0 I I #
point $-1 -49.254432813501388 5.4161550009555164 0.34041885442186698 #
point $-1 -44.538931117444569 -2.776362923270252 5.0561793515487077 #
point $-1 -44.538931117444569 0.29583129831441113 5.0561793515487077 #
point $-1 -44.538931117444569 3.3680255198990743 5.0561793515487077 #
straight-curve $-1 49.254432813501388 -19.088846992488655 69.919235100750413 0 0 -1 I I #
point $-1 49.254432813501388 -19.088846992488655 11.361697603329025 #
straight-curve $-1 49.254432813501396 -7.9551898052309378 3.0854605463378313 0 1 0 I I #
point $-1 49.254432813501381 -19.088846992488655 3.0854605463378348 #
point $-1 40.681332340287128 -15.910379610461877 3.6089656654900359 #
straight-curve $-1 49.254432813501388 -8.481927252180741 69.919235100750413 0 0 -1 I I #
point $-1 49.254432813501388 -8.481927252180741 11.361697603329025 #
straight-curve $-1 49.254432813501396 -2.6517299350769807 3.0854605463378313 0 1 0 I I #
point $-1 49.254432813501381 -8.481927252180741 3.0854605463378348 #
point $-1 40.681332340287128 -5.3034598701539615 3.6089656654900359 #
straight-curve $-1 49.254432813501388 2.1249924881271749 69.919235100750413 0 0 -1 I I #
point $-1 49.254432813501388 2.1249924881271749 11.361697603329025 #
straight-curve $-1 49.254432813501396 2.6517299350769772 3.0854605463378313 0 1 0 I I #
point $-1 49.254432813501381 2.1249924881271749 3.0854605463378348 #
point $-1 40.681332340287128 5.3034598701539544 3.6089656654900359 #
straight-curve $-1 49.254432813501388 12.731912228435091 69.919235100750413 0 0 -1 I I #
point $-1 49.254432813501388 12.731912228435091 11.361697603329025 #
straight-curve $-1 49.254432813501396 7.9551898052309351 3.0854605463378313 0 1 0 I I #
point $-1 49.254432813501381 12.731912228435091 3.0854605463378348 #
point $-1 40.681332340287128 15.91037961046187 3.6089656654900359 #
point $-1 -39.447448782228321 30.836218151782248 -11.361697603329025 #
straight-curve $-1 -39.447448782228321 30.836218151782244 0 0 0 -1 I I #
point $-1 -39.447448782228321 30.836218151782248 11.361697603329025 #
End-of-ACIS-data 