600 0 4 0           
93 GICL ACIS Healer - Source: /gicl/data5/repository/Drexel/SM99-DATA/part120.smdg.des.sat - 6 0 18 ACIS 6.0.3 Solaris 24 Sat Apr 13 20:44:57 2002 
1 9.999999999999999547e-07 1.000000000000000036e-10 
body $-1 $4 $-1 $-1 #
body $-1 $5 $-1 $-1 #
body $-1 $6 $-1 $-1 #
body $-1 $7 $-1 $-1 #
lump $-1 $-1 $8 $0 #
lump $-1 $-1 $9 $1 #
lump $-1 $-1 $10 $2 #
lump $-1 $-1 $11 $3 #
shell $-1 $-1 $-1 $12 $-1 $4 #
shell $-1 $-1 $-1 $13 $-1 $5 #
shell $-1 $-1 $-1 $14 $-1 $6 #
shell $-1 $-1 $-1 $15 $-1 $7 #
face $-1 $16 $17 $8 $-1 $18 forward single #
face $-1 $19 $20 $9 $-1 $21 reversed single #
face $-1 $22 $23 $10 $-1 $24 forward single #
face $-1 $25 $26 $11 $-1 $27 reversed single #
face $-1 $28 $29 $8 $-1 $30 reversed single #
loop $-1 $-1 $31 $12 #
plane-surface $-1 61.53386028626361792 40.42583260586468441 16.35613370735772421 0 0 1 1 0 0 forward_v I I I I #
face $-1 $32 $33 $9 $-1 $34 forward single #
loop $-1 $-1 $35 $13 #
plane-surface $-1 61.53386028626361792 3.370013955478157186 3.011411451860665167 0 0 1 1 0 0 forward_v I I I I #
face $-1 $36 $37 $10 $-1 $38 forward single #
loop $-1 $-1 $39 $14 #
plane-surface $-1 132.1764839604277313 28.78787644044767902 184.094982132580185 0 -1 0 -0.7431448337585914166 0 -0.6691305971616567927 forward_v I I I I #
face $-1 $40 $41 $11 $-1 $42 reversed single #
loop $-1 $43 $44 $15 #
cone-surface $-1 119.1214075414803801 19.21660286802584139 12.22873041884249545 -0.7431448337585914166 0 -0.6691305971616567927 0.6691305971616567927 0 -0.7431448337585914166 1 I I 0 1 1 forward I I I I #
face $-1 $45 $46 $8 $-1 $47 reversed single #
loop $-1 $-1 $48 $16 #
plane-surface $-1 61.53386028626361792 40.42583260586468441 0 0 0 1 1 0 0 forward_v I I I I #
coedge $-1 $49 $50 $51 $52 forward $17 $-1 #
face $-1 $53 $54 $9 $-1 $55 reversed single #
loop $-1 $-1 $56 $19 #
plane-surface $-1 61.53386028626361792 6.740027910956314372 1.505705725930332584 0 -1 0 0 0 -1 forward_v I I I I #
coedge $-1 $57 $58 $59 $60 reversed $20 $-1 #
face $-1 $61 $62 $10 $-1 $63 forward single #
loop $-1 $-1 $64 $22 #
plane-surface $-1 40.71934321450819994 19.21660286802584139 101.7466047745611064 0.7431448337585914166 0 0.6691305971616567927 0.6691305971616567927 0 -0.7431448337585914166 forward_v I I I I #
coedge $-1 $65 $66 $67 $68 reversed $23 $-1 #
face $-1 $69 $70 $11 $-1 $71 forward single #
loop $-1 $72 $73 $25 #
cone-surface $-1 117.5347489826457519 19.21660286802584139 10.80009667110449811 -0.7431448337585914166 0 -0.6691305971616567927 0.3345652985808283963 0 -0.3715724168792957083 1 I I -0.7071067811865474617 0.7071067811865474617 0.5 forward I I I I #
loop $-1 $-1 $74 $15 #
coedge $-1 $44 $44 $75 $76 reversed $26 $-1 #
face $-1 $77 $78 $8 $-1 $79 reversed single #
loop $-1 $-1 $80 $28 #
plane-surface $-1 61.53386028626361792 0 8.178066853678862103 0 1 0 0 0 1 forward_v I I I I #
coedge $-1 $81 $82 $83 $84 forward $29 $-1 #
coedge $-1 $85 $31 $86 $87 forward $17 $-1 #
coedge $-1 $31 $85 $88 $89 forward $17 $-1 #
coedge $-1 $90 $91 $31 $52 reversed $92 $-1 #
edge $-1 $93 -40.42583260586468441 $94 40.42583260586468441 $51 $95 forward 7 unknown #
face $-1 $96 $97 $9 $-1 $98 reversed single #
loop $-1 $-1 $99 $32 #
plane-surface $-1 61.53386028626361792 0 8.178066853678862103 0 1 0 0 0 1 forward_v I I I I #
coedge $-1 $100 $101 $102 $103 reversed $33 $-1 #
coedge $-1 $104 $35 $99 $105 reversed $20 $-1 #
coedge $-1 $35 $104 $100 $106 reversed $20 $-1 #
coedge $-1 $102 $107 $35 $60 forward $108 $-1 #
edge $-1 $109 -21.8979232806714208 $110 -15.15789536971510643 $59 $111 forward 7 unknown #
face $-1 $112 $113 $10 $-1 $114 forward single #
loop $-1 $-1 $115 $36 #
plane-surface $-1 132.1764839604277313 9.645329295604003761 184.094982132580185 0 1 0 0.7431448337585914166 0 0.6691305971616567927 forward_v I I I I #
coedge $-1 $116 $117 $118 $119 reversed $37 $-1 #
coedge $-1 $66 $39 $117 $120 forward $23 $-1 #
coedge $-1 $39 $65 $121 $122 reversed $23 $-1 #
coedge $-1 $123 $118 $39 $68 forward $113 $-1 #
edge $-1 $124 20.75009467099850724 $125 26.21254844918155413 $67 $126 forward 7 unknown #
face $-1 $127 $128 $11 $-1 $129 forward single #
loop $-1 $-1 $130 $40 #
plane-surface $-1 132.1764839604277313 28.78787644044767902 184.094982132580185 0 -1 0 -0.7431448337585914166 0 -0.6691305971616567927 forward_v I I I I #
loop $-1 $-1 $131 $25 #
coedge $-1 $73 $73 $74 $132 forward $41 $-1 #
coedge $-1 $74 $74 $73 $132 reversed $43 $-1 #
coedge $-1 $75 $75 $44 $76 forward $128 $-1 #
edge $-1 $133 0 $133 6.283185307179586232 $75 $134 forward 7 unknown #
face $-1 $135 $136 $8 $-1 $137 reversed single #
loop $-1 $-1 $138 $45 #
plane-surface $-1 0 40.42583260586468441 8.178066853678862103 1 0 0 0 0 -1 forward_v I I I I #
coedge $-1 $139 $88 $140 $141 forward $46 $-1 #
coedge $-1 $142 $48 $139 $143 forward $29 $-1 #
coedge $-1 $48 $142 $144 $145 forward $29 $-1 #
coedge $-1 $91 $90 $48 $84 reversed $92 $-1 #
edge $-1 $146 -40.42583260586468441 $147 40.42583260586468441 $83 $148 forward 7 unknown #
coedge $-1 $50 $49 $149 $150 forward $17 $-1 #
coedge $-1 $151 $152 $49 $87 reversed $136 $-1 #
edge $-1 $94 -61.53386028626361792 $153 61.53386028626361792 $86 $154 forward 7 unknown #
coedge $-1 $80 $155 $50 $89 reversed $46 $-1 #
edge $-1 $156 -61.53386028626361792 $93 61.53386028626361792 $88 $157 forward 7 unknown #
coedge $-1 $83 $51 $155 $158 forward $92 $-1 #
coedge $-1 $51 $83 $151 $159 reversed $92 $-1 #
loop $-1 $-1 $90 $135 #
vertex $-1 $52 $160 #
vertex $-1 $52 $161 #
straight-curve $-1 123.0677205725272358 40.42583260586468441 16.35613370735772421 0 1 0 I I #
face $-1 $162 $163 $9 $-1 $164 forward single #
loop $-1 $-1 $165 $53 #
plane-surface $-1 61.53386028626361792 40.42583260586468441 0 0 0 1 1 0 0 forward_v I I I I #
coedge $-1 $166 $167 $57 $105 forward $54 $-1 #
coedge $-1 $168 $56 $58 $106 forward $33 $-1 #
coedge $-1 $56 $168 $165 $169 reversed $33 $-1 #
coedge $-1 $170 $59 $56 $103 forward $108 $-1 #
edge $-1 $110 1.830474837943931732 $171 4.841886289804596899 $102 $172 forward 7 unknown #
coedge $-1 $58 $57 $173 $174 reversed $20 $-1 #
edge $-1 $175 -61.53386028626361792 $109 61.53386028626361792 $99 $176 forward 7 unknown #
edge $-1 $110 -61.53386028626361792 $177 61.53386028626361792 $100 $178 forward 7 unknown #
coedge $-1 $59 $179 $166 $180 forward $108 $-1 #
loop $-1 $-1 $102 $181 #
vertex $-1 $105 $182 #
vertex $-1 $60 $183 #
straight-curve $-1 123.0677205725272358 21.8979232806714208 3.011411451860665167 0 1 0 I I #
face $-1 $184 $185 $10 $-1 $186 reversed single #
loop $-1 $-1 $187 $61 #
plane-surface $-1 61.53386028626361792 40.42583260586468441 16.35613370735772421 0 0 1 1 0 0 forward_v I I I I #
coedge $-1 $188 $189 $187 $190 reversed $62 $-1 #
coedge $-1 $191 $64 $189 $192 reversed $37 $-1 #
coedge $-1 $64 $191 $65 $120 reversed $37 $-1 #
coedge $-1 $67 $187 $64 $119 forward $113 $-1 #
edge $-1 $193 -20.17588844134126091 $124 -1.03334129649758566 $118 $194 forward 7 unknown #
edge $-1 $124 114.904211384105821 $195 123.067720572527179 $65 $196 forward 7 unknown #
coedge $-1 $197 $198 $66 $122 forward $199 $-1 #
edge $-1 $125 79.780390785771786 $195 85.84706046448791028 $121 $200 forward 7 unknown #
coedge $-1 $201 $67 $198 $202 forward $113 $-1 #
vertex $-1 $119 $203 #
vertex $-1 $202 $204 #
straight-curve $-1 96.85517212334568171 28.78787644044767902 16.35613370735772065 1 0 0 I I #
face $-1 $205 $206 $11 $-1 $207 forward single #
loop $-1 $208 $75 $69 #
plane-surface $-1 40.71934321450819994 19.21660286802584139 101.7466047745611064 0.7431448337585914166 0 0.6691305971616567927 0.6691305971616567927 0 -0.7431448337585914166 forward_v I I I I #
coedge $-1 $209 $210 $211 $212 reversed $70 $-1 #
coedge $-1 $131 $131 $-1 $213 forward $72 $-1 #
edge $-1 $214 0 $214 6.283185307179586232 $73 $215 forward 7 unknown #
vertex $-1 $76 $216 #
ellipse-curve $-1 120.3364936834357195 19.21660286802584139 13.32279886799966562 -0.7431448337585914166 0 -0.6691305971616567927 0.6691305971616567927 0 -0.7431448337585914166 1 I I #
face $-1 $-1 $92 $8 $-1 $217 reversed single #
loop $-1 $-1 $151 $77 #
plane-surface $-1 61.53386028626361792 80.85166521172936882 8.178066853678862103 0 -1 0 0 0 -1 forward_v I I I I #
coedge $-1 $218 $149 $152 $219 forward $78 $-1 #
coedge $-1 $155 $80 $81 $143 reversed $46 $-1 #
coedge $-1 $149 $218 $80 $141 reversed $78 $-1 #
edge $-1 $156 -8.178066853678862103 $220 8.178066853678862103 $140 $221 forward 7 unknown #
coedge $-1 $82 $81 $218 $222 forward $29 $-1 #
edge $-1 $147 -61.53386028626361792 $220 61.53386028626361792 $139 $223 forward 7 unknown #
coedge $-1 $152 $151 $82 $145 reversed $136 $-1 #
edge $-1 $224 -61.53386028626361792 $146 61.53386028626361792 $144 $225 forward 7 unknown #
vertex $-1 $84 $226 #
vertex $-1 $158 $227 #
straight-curve $-1 123.0677205725272358 40.42583260586468441 0 0 -1 0 I I #
coedge $-1 $138 $140 $85 $150 reversed $78 $-1 #
edge $-1 $153 -40.42583260586468441 $156 40.42583260586468441 $149 $228 forward 7 unknown #
coedge $-1 $144 $86 $91 $159 forward $136 $-1 #
coedge $-1 $86 $144 $138 $219 reversed $136 $-1 #
vertex $-1 $87 $229 #
straight-curve $-1 61.53386028626361792 80.85166521172936882 16.35613370735772421 -1 0 0 I I #
coedge $-1 $88 $139 $90 $158 reversed $46 $-1 #
vertex $-1 $150 $230 #
straight-curve $-1 61.53386028626361792 0 16.35613370735772421 1 0 0 I I #
edge $-1 $93 -8.178066853678862103 $147 8.178066853678862103 $90 $231 forward 7 unknown #
edge $-1 $94 -8.178066853678862103 $146 8.178066853678862103 $91 $232 forward 7 unknown #
point $-1 123.0677205725272358 0 16.35613370735772421 #
point $-1 123.0677205725272358 80.85166521172936882 16.35613370735772421 #
face $-1 $233 $234 $9 $-1 $235 reversed single #
loop $-1 $-1 $236 $96 #
plane-surface $-1 61.53386028626361792 40.42583260586468441 16.35613370735772421 0 0 1 1 0 0 forward_v I I I I #
coedge $-1 $237 $238 $101 $169 forward $97 $-1 #
coedge $-1 $239 $99 $107 $180 reversed $54 $-1 #
coedge $-1 $99 $239 $240 $241 forward $54 $-1 #
coedge $-1 $101 $100 $242 $243 reversed $33 $-1 #
edge $-1 $171 -61.53386028626361792 $244 61.53386028626361792 $165 $245 forward 7 unknown #
coedge $-1 $246 $102 $238 $247 reversed $108 $-1 #
vertex $-1 $169 $248 #
straight-curve $-1 123.0677205725272358 6.740027910956314372 4.841886289804596899 0 0 -1 I I #
coedge $-1 $240 $242 $104 $174 forward $234 $-1 #
edge $-1 $177 15.15789536971510643 $175 21.8979232806714208 $173 $249 forward 7 unknown #
vertex $-1 $105 $250 #
straight-curve $-1 61.53386028626361792 0 3.011411451860665167 1 0 0 I I #
vertex $-1 $174 $251 #
straight-curve $-1 61.53386028626361792 6.740027910956314372 3.011411451860665167 -1 0 0 I I #
coedge $-1 $107 $246 $236 $252 reversed $108 $-1 #
edge $-1 $253 -8.178066853678862103 $109 5.166655401818196935 $107 $254 forward 7 unknown #
face $-1 $-1 $108 $9 $-1 $255 reversed single #
point $-1 123.0677205725272358 0 3.011411451860665167 #
point $-1 123.0677205725272358 6.740027910956314372 3.011411451860665167 #
face $-1 $256 $257 $10 $-1 $258 forward single #
loop $-1 $-1 $259 $112 #
plane-surface $-1 61.53386028626361792 3.370013955478157186 3.011411451860665167 0 0 1 1 0 0 forward_v I I I I #
coedge $-1 $118 $260 $115 $190 forward $113 $-1 #
coedge $-1 $189 $115 $261 $262 reversed $62 $-1 #
coedge $-1 $115 $188 $116 $192 forward $62 $-1 #
edge $-1 $263 -26.21254844918155413 $193 -20.75009467099850724 $187 $264 forward 7 unknown #
coedge $-1 $117 $116 $197 $265 reversed $37 $-1 #
edge $-1 $266 -123.067720572527179 $193 -114.904211384105821 $189 $267 forward 7 unknown #
vertex $-1 $119 $268 #
straight-curve $-1 117.6052667943441747 29.82121773694526468 16.35613370735773486 0 1 0 I I #
vertex $-1 $265 $269 #
straight-curve $-1 40.71934321450819994 28.78787644044767902 101.7466047745611064 0.6691305971616567927 0 -0.7431448337585914166 I I #
coedge $-1 $261 $121 $191 $265 forward $199 $-1 #
coedge $-1 $121 $270 $123 $202 reversed $199 $-1 #
loop $-1 $-1 $261 $271 #
straight-curve $-1 123.0677205725272358 28.78787644044767902 96.13652449312951376 0 0 -1 I I #
coedge $-1 $272 $123 $273 $274 forward $113 $-1 #
edge $-1 $125 -11.63795616541700539 $275 40.42583260586468441 $198 $276 forward 7 unknown #
point $-1 117.605266794344189 28.78787644044767902 16.35613370735772065 #
point $-1 123.0677205725272358 28.78787644044767902 16.35613370735772421 #
face $-1 $277 $278 $11 $-1 $279 forward single #
loop $-1 $-1 $280 $127 #
plane-surface $-1 132.1764839604277313 9.645329295604003761 184.094982132580185 0 1 0 0.7431448337585914166 0 0.6691305971616567927 forward_v I I I I #
loop $-1 $-1 $281 $69 #
coedge $-1 $210 $130 $282 $283 forward $70 $-1 #
coedge $-1 $130 $209 $284 $285 reversed $70 $-1 #
coedge $-1 $286 $287 $130 $212 forward $278 $-1 #
edge $-1 $288 20.75009467099850724 $289 26.21254844918155413 $211 $290 forward 7 unknown #
edge $-1 $291 1 $291 0 $131 $-1 forward 7 unknown #
vertex $-1 $132 $292 #
ellipse-curve $-1 117.9063213995250408 19.21660286802584139 11.13466196968532707 0.7431448337585914166 0 0.6691305971616567927 0.6691305971616567927 0 -0.7431448337585914166 1 I I #
point $-1 121.0056242805973739 19.21660286802584139 12.57965403424107187 #
plane-surface $-1 123.0677205725272358 40.42583260586468441 8.178066853678862103 -1 0 0 0 0 1 forward_v I I I I #
coedge $-1 $140 $138 $142 $222 reversed $78 $-1 #
edge $-1 $153 -8.178066853678862103 $224 8.178066853678862103 $152 $293 forward 7 unknown #
vertex $-1 $222 $294 #
straight-curve $-1 0 0 8.178066853678862103 0 0 -1 I I #
edge $-1 $220 -40.42583260586468441 $224 40.42583260586468441 $218 $295 forward 7 unknown #
straight-curve $-1 61.53386028626361792 0 0 -1 0 0 I I #
vertex $-1 $145 $296 #
straight-curve $-1 61.53386028626361792 80.85166521172936882 0 1 0 0 I I #
point $-1 123.0677205725272358 80.85166521172936882 0 #
point $-1 123.0677205725272358 0 0 #
straight-curve $-1 0 40.42583260586468441 16.35613370735772421 0 -1 0 I I #
point $-1 0 80.85166521172936882 16.35613370735772421 #
point $-1 0 0 16.35613370735772421 #
straight-curve $-1 123.0677205725272358 0 8.178066853678862103 0 0 -1 I I #
straight-curve $-1 123.0677205725272358 80.85166521172936882 8.178066853678862103 0 0 -1 I I #
face $-1 $181 $297 $9 $-1 $298 reversed single #
loop $-1 $-1 $173 $162 #
plane-surface $-1 0 40.42583260586468441 8.178066853678862103 1 0 0 0 0 -1 forward_v I I I I #
coedge $-1 $299 $300 $179 $252 forward $163 $-1 #
coedge $-1 $301 $165 $302 $303 forward $97 $-1 #
coedge $-1 $165 $301 $170 $247 forward $97 $-1 #
coedge $-1 $167 $166 $300 $304 reversed $54 $-1 #
coedge $-1 $305 $173 $167 $241 reversed $234 $-1 #
edge $-1 $306 -8.178066853678862103 $175 5.166655401818196935 $240 $307 forward 7 unknown #
coedge $-1 $173 $302 $168 $243 forward $234 $-1 #
edge $-1 $244 -4.841886289804596899 $177 -1.830474837943931732 $242 $308 forward 7 unknown #
vertex $-1 $303 $309 #
straight-curve $-1 61.53386028626361792 6.740027910956314372 0 -1 0 0 I I #
coedge $-1 $179 $170 $310 $311 reversed $108 $-1 #
edge $-1 $312 -40.42583260586468441 $171 33.68580469490837004 $170 $313 forward 7 unknown #
point $-1 123.0677205725272358 6.740027910956314372 0 #
straight-curve $-1 0 21.8979232806714208 3.011411451860665167 0 -1 0 I I #
point $-1 0 0 3.011411451860665167 #
point $-1 0 6.740027910956314372 3.011411451860665167 #
edge $-1 $253 -40.42583260586468441 $314 40.42583260586468441 $179 $315 forward 7 unknown #
vertex $-1 $252 $316 #
straight-curve $-1 123.0677205725272358 0 8.178066853678862103 0 0 -1 I I #
plane-surface $-1 123.0677205725272358 40.42583260586468441 8.178066853678862103 -1 0 0 0 0 1 forward_v I I I I #
face $-1 $317 $318 $10 $-1 $319 reversed single #
loop $-1 $-1 $320 $184 #
plane-surface $-1 61.53386028626361792 6.740027910956314372 1.505705725930332584 0 -1 0 0 0 -1 forward_v I I I I #
coedge $-1 $321 $322 $323 $324 reversed $185 $-1 #
coedge $-1 $187 $325 $326 $327 forward $113 $-1 #
coedge $-1 $326 $197 $188 $262 forward $199 $-1 #
edge $-1 $266 -85.84706046448791028 $263 -79.780390785771786 $261 $328 forward 7 unknown #
vertex $-1 $262 $329 #
straight-curve $-1 96.85517212334568171 9.645329295604003761 16.35613370735772065 -1 0 0 I I #
edge $-1 $195 1.03334129649758566 $266 20.17588844134126091 $197 $330 forward 7 unknown #
vertex $-1 $265 $331 #
straight-curve $-1 40.71934321450819994 9.645329295604003761 101.7466047745611064 -0.6691305971616567927 0 0.7431448337585914166 I I #
point $-1 117.605266794344189 9.645329295604003761 16.35613370735772065 #
point $-1 123.0677205725272358 28.78787644044767902 10.28946402864160881 #
coedge $-1 $198 $332 $333 $334 reversed $199 $-1 #
face $-1 $-1 $199 $10 $-1 $335 reversed single #
coedge $-1 $325 $201 $336 $337 forward $113 $-1 #
coedge $-1 $333 $338 $201 $274 reversed $339 $-1 #
edge $-1 $275 -61.53386028626361792 $340 61.53386028626361792 $273 $341 forward 7 unknown #
vertex $-1 $202 $342 #
straight-curve $-1 123.0677205725272358 40.42583260586468441 16.35613370735772421 0 1 0 I I #
face $-1 $343 $344 $11 $-1 $345 reversed single #
loop $-1 $-1 $346 $205 #
plane-surface $-1 61.53386028626361792 40.42583260586468441 16.35613370735772421 0 0 1 1 0 0 forward_v I I I I #
coedge $-1 $347 $348 $346 $349 reversed $206 $-1 #
coedge $-1 $350 $282 $287 $351 reversed $208 $-1 #
coedge $-1 $281 $352 $209 $283 reversed $208 $-1 #
edge $-1 $288 114.904211384105821 $353 123.067720572527179 $209 $354 forward 7 unknown #
coedge $-1 $355 $356 $210 $285 forward $357 $-1 #
edge $-1 $289 79.780390785771786 $353 85.84706046448791028 $284 $358 forward 7 unknown #
coedge $-1 $359 $211 $356 $360 forward $278 $-1 #
coedge $-1 $211 $346 $281 $351 forward $278 $-1 #
vertex $-1 $351 $361 #
vertex $-1 $360 $362 #
straight-curve $-1 96.85517212334568171 28.78787644044767902 16.35613370735772065 1 0 0 I I #
vertex $-1 $213 $363 #
point $-1 118.5754519966866951 19.21660286802584139 10.39151713592673509 #
straight-curve $-1 0 80.85166521172936882 8.178066853678862103 0 0 -1 I I #
point $-1 0 0 0 #
straight-curve $-1 0 40.42583260586468441 0 0 1 0 I I #
point $-1 0 80.85166521172936882 0 #
loop $-1 $-1 $310 $233 #
plane-surface $-1 61.53386028626361792 80.85166521172936882 8.178066853678862103 0 -1 0 0 0 -1 forward_v I I I I #
coedge $-1 $364 $236 $365 $366 forward $163 $-1 #
coedge $-1 $236 $364 $239 $304 forward $163 $-1 #
coedge $-1 $238 $237 $367 $368 forward $97 $-1 #
coedge $-1 $242 $369 $237 $303 reversed $234 $-1 #
edge $-1 $244 -33.68580469490837004 $370 40.42583260586468441 $302 $371 forward 7 unknown #
edge $-1 $306 -61.53386028626361792 $253 61.53386028626361792 $239 $372 forward 7 unknown #
coedge $-1 $369 $240 $364 $373 reversed $234 $-1 #
vertex $-1 $373 $374 #
straight-curve $-1 0 0 8.178066853678862103 0 0 -1 I I #
straight-curve $-1 0 6.740027910956314372 4.841886289804596899 0 0 1 I I #
point $-1 0 6.740027910956314372 0 #
coedge $-1 $367 $365 $246 $311 forward $297 $-1 #
edge $-1 $314 -8.178066853678862103 $312 8.178066853678862103 $246 $375 forward 7 unknown #
vertex $-1 $247 $376 #
straight-curve $-1 123.0677205725272358 40.42583260586468441 0 0 -1 0 I I #
vertex $-1 $252 $377 #
straight-curve $-1 123.0677205725272358 40.42583260586468441 16.35613370735772421 0 1 0 I I #
point $-1 123.0677205725272358 0 16.35613370735772421 #
face $-1 $378 $379 $10 $-1 $380 reversed single #
loop $-1 $-1 $381 $256 #
plane-surface $-1 61.53386028626361792 0 8.178066853678862103 0 1 0 0 0 1 forward_v I I I I #
coedge $-1 $382 $383 $384 $385 reversed $257 $-1 #
coedge $-1 $386 $259 $381 $387 reversed $185 $-1 #
coedge $-1 $259 $386 $382 $388 reversed $185 $-1 #
coedge $-1 $384 $389 $259 $324 forward $199 $-1 #
edge $-1 $390 -21.8979232806714208 $391 -15.15789536971510643 $323 $392 forward 7 unknown #
coedge $-1 $260 $272 $393 $394 forward $113 $-1 #
coedge $-1 $389 $261 $260 $327 reversed $199 $-1 #
edge $-1 $395 -40.42583260586468441 $263 -30.78050331026068065 $326 $276 forward 7 unknown #
straight-curve $-1 123.0677205725272358 9.645329295604003761 96.13652449312951376 0 0 1 I I #
point $-1 123.0677205725272358 9.645329295604003761 16.35613370735772421 #
straight-curve $-1 123.0677205725272358 29.82121773694526468 10.28946402864160881 0 -1 0 I I #
point $-1 123.0677205725272358 9.645329295604003761 10.28946402864160881 #
coedge $-1 $270 $384 $396 $397 reversed $199 $-1 #
coedge $-1 $398 $273 $270 $334 forward $339 $-1 #
edge $-1 $275 -8.178066853678862103 $399 8.178066853678862103 $270 $400 forward 7 unknown #
plane-surface $-1 123.0677205725272358 40.42583260586468441 8.178066853678862103 -1 0 0 0 0 1 forward_v I I I I #
coedge $-1 $401 $402 $272 $337 reversed $403 $-1 #
edge $-1 $340 -40.42583260586468441 $404 40.42583260586468441 $336 $405 forward 7 unknown #
coedge $-1 $273 $398 $401 $406 reversed $339 $-1 #
loop $-1 $-1 $333 $407 #
vertex $-1 $274 $408 #
straight-curve $-1 61.53386028626361792 80.85166521172936882 16.35613370735772421 -1 0 0 I I #
point $-1 123.0677205725272358 80.85166521172936882 16.35613370735772421 #
face $-1 $409 $410 $11 $-1 $411 forward single #
loop $-1 $-1 $412 $277 #
plane-surface $-1 61.53386028626361792 3.370013955478157186 3.011411451860665167 0 0 1 1 0 0 forward_v I I I I #
coedge $-1 $287 $413 $280 $349 forward $278 $-1 #
coedge $-1 $348 $280 $414 $415 reversed $206 $-1 #
coedge $-1 $280 $347 $350 $416 forward $206 $-1 #
edge $-1 $417 -26.21254844918155413 $418 -20.75009467099850724 $346 $419 forward 7 unknown #
coedge $-1 $352 $281 $348 $416 reversed $208 $-1 #
edge $-1 $418 -20.17588844134126091 $288 -1.03334129649758566 $287 $420 forward 7 unknown #
coedge $-1 $282 $350 $355 $421 reversed $208 $-1 #
vertex $-1 $421 $422 #
straight-curve $-1 40.71934321450819994 28.78787644044767902 101.7466047745611064 0.6691305971616567927 0 -0.7431448337585914166 I I #
coedge $-1 $414 $284 $352 $421 forward $357 $-1 #
coedge $-1 $284 $423 $286 $360 reversed $357 $-1 #
loop $-1 $-1 $414 $424 #
straight-curve $-1 123.0677205725272358 28.78787644044767902 96.13652449312951376 0 0 -1 I I #
coedge $-1 $425 $286 $426 $427 forward $278 $-1 #
edge $-1 $289 -11.63795616541700539 $428 40.42583260586468441 $356 $429 forward 7 unknown #
point $-1 117.605266794344189 28.78787644044767902 16.35613370735772065 #
point $-1 123.0677205725272358 28.78787644044767902 16.35613370735772421 #
point $-1 117.163176565766463 19.21660286802584139 10.46553137252366916 #
coedge $-1 $300 $299 $305 $373 forward $163 $-1 #
coedge $-1 $310 $430 $299 $366 reversed $297 $-1 #
edge $-1 $314 -61.53386028626361792 $431 61.53386028626361792 $365 $432 forward 7 unknown #
coedge $-1 $430 $310 $301 $368 reversed $297 $-1 #
edge $-1 $370 -61.53386028626361792 $312 61.53386028626361792 $367 $433 forward 7 unknown #
coedge $-1 $302 $305 $430 $434 forward $234 $-1 #
vertex $-1 $368 $435 #
straight-curve $-1 0 40.42583260586468441 0 0 1 0 I I #
straight-curve $-1 61.53386028626361792 0 16.35613370735772421 1 0 0 I I #
edge $-1 $431 -40.42583260586468441 $306 40.42583260586468441 $305 $436 forward 7 unknown #
point $-1 0 0 16.35613370735772421 #
straight-curve $-1 123.0677205725272358 80.85166521172936882 8.178066853678862103 0 0 -1 I I #
point $-1 123.0677205725272358 80.85166521172936882 0 #
point $-1 123.0677205725272358 80.85166521172936882 16.35613370735772421 #
face $-1 $407 $403 $10 $-1 $437 reversed single #
loop $-1 $-1 $438 $317 #
plane-surface $-1 61.53386028626361792 40.42583260586468441 0 0 0 1 1 0 0 forward_v I I I I #
coedge $-1 $439 $440 $321 $387 forward $318 $-1 #
coedge $-1 $441 $320 $322 $388 forward $257 $-1 #
coedge $-1 $320 $441 $438 $442 reversed $257 $-1 #
coedge $-1 $332 $323 $320 $385 forward $199 $-1 #
edge $-1 $391 1.830474837943931732 $443 4.841886289804596899 $384 $444 forward 7 unknown #
coedge $-1 $322 $321 $445 $446 reversed $185 $-1 #
edge $-1 $447 -61.53386028626361792 $390 61.53386028626361792 $381 $448 forward 7 unknown #
edge $-1 $391 -61.53386028626361792 $449 61.53386028626361792 $382 $450 forward 7 unknown #
coedge $-1 $323 $326 $439 $451 forward $199 $-1 #
vertex $-1 $387 $452 #
vertex $-1 $324 $453 #
straight-curve $-1 123.0677205725272358 21.8979232806714208 3.011411451860665167 0 1 0 I I #
coedge $-1 $440 $439 $325 $394 reversed $318 $-1 #
edge $-1 $404 -61.53386028626361792 $395 61.53386028626361792 $393 $454 forward 7 unknown #
vertex $-1 $327 $455 #
coedge $-1 $438 $456 $332 $397 forward $379 $-1 #
edge $-1 $399 -40.42583260586468441 $443 33.68580469490837004 $332 $457 forward 7 unknown #
coedge $-1 $338 $333 $456 $458 reversed $339 $-1 #
vertex $-1 $397 $459 #
straight-curve $-1 123.0677205725272358 80.85166521172936882 8.178066853678862103 0 0 -1 I I #
coedge $-1 $460 $336 $338 $406 forward $403 $-1 #
coedge $-1 $336 $445 $440 $461 reversed $403 $-1 #
loop $-1 $-1 $445 $378 #
vertex $-1 $337 $462 #
straight-curve $-1 0 40.42583260586468441 16.35613370735772421 0 -1 0 I I #
edge $-1 $340 -8.178066853678862103 $463 8.178066853678862103 $338 $464 forward 7 unknown #
face $-1 $271 $339 $10 $-1 $465 reversed single #
point $-1 0 80.85166521172936882 16.35613370735772421 #
face $-1 $466 $467 $11 $-1 $468 reversed single #
loop $-1 $-1 $469 $343 #
plane-surface $-1 61.53386028626361792 6.740027910956314372 1.505705725930332584 0 -1 0 0 0 -1 forward_v I I I I #
coedge $-1 $470 $471 $472 $473 reversed $344 $-1 #
coedge $-1 $346 $474 $475 $476 forward $278 $-1 #
coedge $-1 $475 $355 $347 $415 forward $357 $-1 #
edge $-1 $477 -85.84706046448791028 $417 -79.780390785771786 $414 $478 forward 7 unknown #
edge $-1 $477 -123.067720572527179 $418 -114.904211384105821 $348 $479 forward 7 unknown #
vertex $-1 $415 $480 #
vertex $-1 $351 $481 #
straight-curve $-1 96.85517212334568171 9.645329295604003761 16.35613370735772065 -1 0 0 I I #
straight-curve $-1 117.6052667943441747 29.82121773694526468 16.35613370735773486 0 1 0 I I #
edge $-1 $353 1.03334129649758566 $477 20.17588844134126091 $355 $482 forward 7 unknown #
point $-1 123.0677205725272358 28.78787644044767902 10.28946402864160881 #
coedge $-1 $356 $483 $484 $485 reversed $357 $-1 #
face $-1 $-1 $357 $11 $-1 $486 reversed single #
coedge $-1 $474 $359 $487 $488 forward $278 $-1 #
coedge $-1 $484 $489 $359 $427 reversed $490 $-1 #
edge $-1 $428 -61.53386028626361792 $491 61.53386028626361792 $426 $492 forward 7 unknown #
vertex $-1 $360 $493 #
straight-curve $-1 123.0677205725272358 40.42583260586468441 16.35613370735772421 0 1 0 I I #
coedge $-1 $365 $367 $369 $434 reversed $297 $-1 #
vertex $-1 $366 $494 #
straight-curve $-1 61.53386028626361792 80.85166521172936882 16.35613370735772421 -1 0 0 I I #
straight-curve $-1 61.53386028626361792 80.85166521172936882 0 1 0 0 I I #
edge $-1 $431 -8.178066853678862103 $370 8.178066853678862103 $430 $495 forward 7 unknown #
point $-1 0 80.85166521172936882 0 #
straight-curve $-1 0 40.42583260586468441 16.35613370735772421 0 -1 0 I I #
plane-surface $-1 0 40.42583260586468441 8.178066853678862103 1 0 0 0 0 -1 forward_v I I I I #
coedge $-1 $496 $396 $383 $442 forward $379 $-1 #
coedge $-1 $393 $381 $389 $451 reversed $318 $-1 #
coedge $-1 $381 $393 $402 $461 forward $318 $-1 #
coedge $-1 $383 $382 $497 $498 reversed $257 $-1 #
edge $-1 $443 -61.53386028626361792 $499 61.53386028626361792 $438 $500 forward 7 unknown #
vertex $-1 $442 $501 #
straight-curve $-1 123.0677205725272358 6.740027910956314372 4.841886289804596899 0 0 -1 I I #
coedge $-1 $402 $497 $386 $446 forward $403 $-1 #
edge $-1 $449 15.15789536971510643 $447 21.8979232806714208 $445 $502 forward 7 unknown #
vertex $-1 $387 $503 #
straight-curve $-1 61.53386028626361792 0 3.011411451860665167 1 0 0 I I #
vertex $-1 $446 $504 #
straight-curve $-1 61.53386028626361792 6.740027910956314372 3.011411451860665167 -1 0 0 I I #
edge $-1 $395 -8.178066853678862103 $390 5.166655401818196935 $389 $505 forward 7 unknown #
point $-1 123.0677205725272358 0 3.011411451860665167 #
point $-1 123.0677205725272358 6.740027910956314372 3.011411451860665167 #
straight-curve $-1 61.53386028626361792 0 16.35613370735772421 1 0 0 I I #
point $-1 123.0677205725272358 0 16.35613370735772421 #
coedge $-1 $396 $496 $398 $458 forward $379 $-1 #
straight-curve $-1 123.0677205725272358 40.42583260586468441 0 0 -1 0 I I #
edge $-1 $463 -61.53386028626361792 $399 61.53386028626361792 $398 $506 forward 7 unknown #
point $-1 123.0677205725272358 80.85166521172936882 0 #
coedge $-1 $497 $401 $496 $507 reversed $403 $-1 #
edge $-1 $404 -8.178066853678862103 $447 5.166655401818196935 $402 $508 forward 7 unknown #
point $-1 0 0 16.35613370735772421 #
vertex $-1 $458 $509 #
straight-curve $-1 0 80.85166521172936882 8.178066853678862103 0 0 -1 I I #
plane-surface $-1 61.53386028626361792 80.85166521172936882 8.178066853678862103 0 -1 0 0 0 -1 forward_v I I I I #
face $-1 $510 $511 $11 $-1 $512 reversed single #
loop $-1 $-1 $513 $409 #
plane-surface $-1 61.53386028626361792 0 8.178066853678862103 0 1 0 0 0 1 forward_v I I I I #
coedge $-1 $514 $515 $516 $517 reversed $410 $-1 #
coedge $-1 $518 $412 $513 $519 reversed $344 $-1 #
coedge $-1 $412 $518 $514 $520 reversed $344 $-1 #
coedge $-1 $516 $521 $412 $473 forward $357 $-1 #
edge $-1 $522 -21.8979232806714208 $523 -15.15789536971510643 $472 $524 forward 7 unknown #
coedge $-1 $413 $425 $525 $526 forward $278 $-1 #
coedge $-1 $521 $414 $413 $476 reversed $357 $-1 #
edge $-1 $527 -40.42583260586468441 $417 -30.78050331026068065 $475 $429 forward 7 unknown #
vertex $-1 $421 $528 #
straight-curve $-1 123.0677205725272358 9.645329295604003761 96.13652449312951376 0 0 1 I I #
straight-curve $-1 40.71934321450819994 9.645329295604003761 101.7466047745611064 -0.6691305971616567927 0 0.7431448337585914166 I I #
point $-1 123.0677205725272358 9.645329295604003761 16.35613370735772421 #
point $-1 117.605266794344189 9.645329295604003761 16.35613370735772065 #
straight-curve $-1 123.0677205725272358 29.82121773694526468 10.28946402864160881 0 -1 0 I I #
coedge $-1 $423 $516 $529 $530 reversed $357 $-1 #
coedge $-1 $531 $426 $423 $485 forward $490 $-1 #
edge $-1 $428 -8.178066853678862103 $532 8.178066853678862103 $423 $533 forward 7 unknown #
plane-surface $-1 123.0677205725272358 40.42583260586468441 8.178066853678862103 -1 0 0 0 0 1 forward_v I I I I #
coedge $-1 $534 $535 $425 $488 reversed $536 $-1 #
edge $-1 $491 -40.42583260586468441 $537 40.42583260586468441 $487 $538 forward 7 unknown #
coedge $-1 $426 $531 $534 $539 reversed $490 $-1 #
loop $-1 $-1 $484 $540 #
vertex $-1 $427 $541 #
straight-curve $-1 61.53386028626361792 80.85166521172936882 16.35613370735772421 -1 0 0 I I #
point $-1 123.0677205725272358 80.85166521172936882 16.35613370735772421 #
point $-1 0 80.85166521172936882 16.35613370735772421 #
straight-curve $-1 0 80.85166521172936882 8.178066853678862103 0 0 -1 I I #
coedge $-1 $456 $438 $460 $507 forward $379 $-1 #
coedge $-1 $445 $460 $441 $498 forward $403 $-1 #
edge $-1 $499 -4.841886289804596899 $449 -1.830474837943931732 $497 $542 forward 7 unknown #
vertex $-1 $507 $543 #
straight-curve $-1 61.53386028626361792 6.740027910956314372 0 -1 0 0 I I #
point $-1 123.0677205725272358 6.740027910956314372 0 #
straight-curve $-1 0 21.8979232806714208 3.011411451860665167 0 -1 0 I I #
point $-1 0 0 3.011411451860665167 #
point $-1 0 6.740027910956314372 3.011411451860665167 #
straight-curve $-1 123.0677205725272358 0 8.178066853678862103 0 0 -1 I I #
straight-curve $-1 61.53386028626361792 80.85166521172936882 0 1 0 0 I I #
edge $-1 $499 -33.68580469490837004 $463 40.42583260586468441 $460 $544 forward 7 unknown #
straight-curve $-1 0 0 8.178066853678862103 0 0 -1 I I #
point $-1 0 80.85166521172936882 0 #
face $-1 $540 $536 $11 $-1 $545 reversed single #
loop $-1 $-1 $546 $466 #
plane-surface $-1 61.53386028626361792 40.42583260586468441 0 0 0 1 1 0 0 forward_v I I I I #
coedge $-1 $547 $548 $470 $519 forward $467 $-1 #
coedge $-1 $549 $469 $471 $520 forward $410 $-1 #
coedge $-1 $469 $549 $546 $550 reversed $410 $-1 #
coedge $-1 $483 $472 $469 $517 forward $357 $-1 #
edge $-1 $523 1.830474837943931732 $551 4.841886289804596899 $516 $552 forward 7 unknown #
coedge $-1 $471 $470 $553 $554 reversed $344 $-1 #
edge $-1 $555 -61.53386028626361792 $522 61.53386028626361792 $513 $556 forward 7 unknown #
edge $-1 $523 -61.53386028626361792 $557 61.53386028626361792 $514 $558 forward 7 unknown #
coedge $-1 $472 $475 $547 $559 forward $357 $-1 #
vertex $-1 $519 $560 #
vertex $-1 $473 $561 #
straight-curve $-1 123.0677205725272358 21.8979232806714208 3.011411451860665167 0 1 0 I I #
coedge $-1 $548 $547 $474 $526 reversed $467 $-1 #
edge $-1 $537 -61.53386028626361792 $527 61.53386028626361792 $525 $562 forward 7 unknown #
vertex $-1 $476 $563 #
point $-1 123.0677205725272358 9.645329295604003761 10.28946402864160881 #
coedge $-1 $546 $564 $483 $530 forward $511 $-1 #
edge $-1 $532 -40.42583260586468441 $551 33.68580469490837004 $483 $565 forward 7 unknown #
coedge $-1 $489 $484 $564 $566 reversed $490 $-1 #
vertex $-1 $530 $567 #
straight-curve $-1 123.0677205725272358 80.85166521172936882 8.178066853678862103 0 0 -1 I I #
coedge $-1 $568 $487 $489 $539 forward $536 $-1 #
coedge $-1 $487 $553 $548 $569 reversed $536 $-1 #
loop $-1 $-1 $553 $510 #
vertex $-1 $488 $570 #
straight-curve $-1 0 40.42583260586468441 16.35613370735772421 0 -1 0 I I #
edge $-1 $491 -8.178066853678862103 $571 8.178066853678862103 $489 $572 forward 7 unknown #
face $-1 $424 $490 $11 $-1 $573 reversed single #
point $-1 0 80.85166521172936882 16.35613370735772421 #
straight-curve $-1 0 6.740027910956314372 4.841886289804596899 0 0 1 I I #
point $-1 0 6.740027910956314372 0 #
straight-curve $-1 0 40.42583260586468441 0 0 1 0 I I #
plane-surface $-1 0 40.42583260586468441 8.178066853678862103 1 0 0 0 0 -1 forward_v I I I I #
coedge $-1 $574 $529 $515 $550 forward $511 $-1 #
coedge $-1 $525 $513 $521 $559 reversed $467 $-1 #
coedge $-1 $513 $525 $535 $569 forward $467 $-1 #
coedge $-1 $515 $514 $575 $576 reversed $410 $-1 #
edge $-1 $551 -61.53386028626361792 $577 61.53386028626361792 $546 $578 forward 7 unknown #
vertex $-1 $550 $579 #
straight-curve $-1 123.0677205725272358 6.740027910956314372 4.841886289804596899 0 0 -1 I I #
coedge $-1 $535 $575 $518 $554 forward $536 $-1 #
edge $-1 $557 15.15789536971510643 $555 21.8979232806714208 $553 $580 forward 7 unknown #
vertex $-1 $519 $581 #
straight-curve $-1 61.53386028626361792 0 3.011411451860665167 1 0 0 I I #
vertex $-1 $554 $582 #
straight-curve $-1 61.53386028626361792 6.740027910956314372 3.011411451860665167 -1 0 0 I I #
edge $-1 $527 -8.178066853678862103 $522 5.166655401818196935 $521 $583 forward 7 unknown #
point $-1 123.0677205725272358 0 3.011411451860665167 #
point $-1 123.0677205725272358 6.740027910956314372 3.011411451860665167 #
straight-curve $-1 61.53386028626361792 0 16.35613370735772421 1 0 0 I I #
point $-1 123.0677205725272358 0 16.35613370735772421 #
coedge $-1 $529 $574 $531 $566 forward $511 $-1 #
straight-curve $-1 123.0677205725272358 40.42583260586468441 0 0 -1 0 I I #
edge $-1 $571 -61.53386028626361792 $532 61.53386028626361792 $531 $584 forward 7 unknown #
point $-1 123.0677205725272358 80.85166521172936882 0 #
coedge $-1 $575 $534 $574 $585 reversed $536 $-1 #
edge $-1 $537 -8.178066853678862103 $555 5.166655401818196935 $535 $586 forward 7 unknown #
point $-1 0 0 16.35613370735772421 #
vertex $-1 $566 $587 #
straight-curve $-1 0 80.85166521172936882 8.178066853678862103 0 0 -1 I I #
plane-surface $-1 61.53386028626361792 80.85166521172936882 8.178066853678862103 0 -1 0 0 0 -1 forward_v I I I I #
coedge $-1 $564 $546 $568 $585 forward $511 $-1 #
coedge $-1 $553 $568 $549 $576 forward $536 $-1 #
edge $-1 $577 -4.841886289804596899 $557 -1.830474837943931732 $575 $588 forward 7 unknown #
vertex $-1 $585 $589 #
straight-curve $-1 61.53386028626361792 6.740027910956314372 0 -1 0 0 I I #
point $-1 123.0677205725272358 6.740027910956314372 0 #
straight-curve $-1 0 21.8979232806714208 3.011411451860665167 0 -1 0 I I #
point $-1 0 0 3.011411451860665167 #
point $-1 0 6.740027910956314372 3.011411451860665167 #
straight-curve $-1 123.0677205725272358 0 8.178066853678862103 0 0 -1 I I #
straight-curve $-1 61.53386028626361792 80.85166521172936882 0 1 0 0 I I #
edge $-1 $577 -33.68580469490837004 $571 40.42583260586468441 $568 $590 forward 7 unknown #
straight-curve $-1 0 0 8.178066853678862103 0 0 -1 I I #
point $-1 0 80.85166521172936882 0 #
straight-curve $-1 0 6.740027910956314372 4.841886289804596899 0 0 1 I I #
point $-1 0 6.740027910956314372 0 #
straight-curve $-1 0 40.42583260586468441 0 0 1 0 I I #
End-of-ACIS-data 