300 0 5 0           
7 Unknown 11 ACIS 3.0 NT 24 Fri Oct 30 18:01:40 1998 
-1 9.9999999999999995e-007 1e-010 
body $5 $6 $-1 $7 #
body $8 $9 $-1 $10 #
body $11 $12 $-1 $13 #
body $14 $15 $-1 $16 #
body $17 $18 $-1 $19 #
display_attribute-st-attrib $-1 $20 $-1 $0 1 #
lump $-1 $-1 $21 $0 #
transform $-1 1 0 0 0 1 0 0 0 1 79.311502426221509 53.362866244688021 14.665139028089714 1 rotate no_reflect no_shear #
display_attribute-st-attrib $-1 $22 $-1 $1 4 #
lump $-1 $-1 $23 $1 #
transform $-1 1 0 0 0 1 0 0 0 1 79.311502426221509 53.362866244688021 14.665139028089714 1 rotate no_reflect no_shear #
display_attribute-st-attrib $-1 $24 $-1 $2 3 #
lump $-1 $-1 $25 $2 #
transform $-1 1 0 0 0 1 0 0 0 1 79.311502426221509 53.362866244688021 14.665139028089714 1 rotate no_reflect no_shear #
display_attribute-st-attrib $-1 $26 $-1 $3 2 #
lump $-1 $-1 $27 $3 #
transform $-1 1 0 0 0 1 0 0 0 1 79.311502426221509 53.362866244688021 14.665139028089714 1 rotate no_reflect no_shear #
display_attribute-st-attrib $-1 $28 $-1 $4 1 #
lump $-1 $-1 $29 $4 #
transform $-1 1 0 0 0 1 0 0 0 1 79.311502426221509 53.362866244688021 14.665139028089714 1 rotate no_reflect no_shear #
id_attribute-st-attrib $-1 $-1 $5 $0 1664 #
shell $-1 $-1 $-1 $30 $-1 $6 #
id_attribute-st-attrib $-1 $-1 $8 $1 1678 #
shell $-1 $-1 $-1 $31 $-1 $9 #
id_attribute-st-attrib $-1 $-1 $11 $2 1685 #
shell $-1 $-1 $-1 $32 $-1 $12 #
id_attribute-st-attrib $-1 $-1 $14 $3 1693 #
shell $-1 $-1 $-1 $33 $-1 $15 #
id_attribute-st-attrib $-1 $-1 $17 $4 1702 #
shell $-1 $-1 $-1 $34 $-1 $18 #
face $-1 $35 $36 $21 $-1 $37 forward single #
face $-1 $38 $39 $23 $-1 $40 reversed single #
face $-1 $41 $42 $25 $-1 $43 forward single #
face $-1 $44 $45 $27 $-1 $46 forward single #
face $-1 $47 $48 $29 $-1 $49 forward single #
face $-1 $50 $51 $21 $-1 $52 reversed single #
loop $-1 $-1 $53 $30 #
plane-surface $-1 0 0 14.665139028089714 0 0 1 1 0 0 forward_v I I I I #
face $-1 $54 $55 $23 $-1 $56 reversed single #
loop $-1 $-1 $57 $31 #
plane-surface $-1 39.58272449889013 -139.7551476706181 133.36495131440984 -1 0 0 0 -0.54463904215088732 0.83867056331134215 forward_v I I I I #
face $-1 $58 $59 $25 $-1 $60 forward single #
loop $-1 $61 $62 $32 #
cone-surface $-1 16.536375682668847 -40.922519423407216 5.3350235227663454 0 0.54463904215088732 -0.83867056331134215 1.5 0 0 1 I I 0 1 forward I I I I #
face $-1 $63 $64 $27 $-1 $65 forward single #
loop $-1 $66 $67 $33 #
cone-surface $-1 25.17875648875183 -40.922519423407216 5.3350235227663454 0 0.54463904215088732 -0.83867056331134215 1.5 0 0 1 I I 0 1 forward I I I I #
face $-1 $68 $69 $29 $-1 $70 forward single #
loop $-1 $71 $72 $34 #
cone-surface $-1 33.821137294834813 -40.922519423407216 5.3350235227663454 0 0.54463904215088732 -0.83867056331134215 1.5 0 0 1 I I 0 1 forward I I I I #
face $-1 $73 $74 $21 $-1 $75 reversed single #
loop $-1 $-1 $76 $35 #
plane-surface $-1 0 0 -14.665139028089714 0 0 1 1 0 0 forward_v I I I I #
coedge $-1 $77 $78 $79 $80 forward $36 $-1 #
face $-1 $81 $82 $23 $-1 $83 reversed single #
loop $-1 $-1 $84 $38 #
plane-surface $-1 25.17875648875183 -53.362866244687979 0.33250648067368616 0 -0.54463904215088732 0.83867056331134215 1 0 0 forward_v I I I I #
coedge $-1 $85 $86 $87 $88 reversed $39 $-1 #
face $-1 $-1 $89 $25 $-1 $90 forward single #
loop $-1 $91 $92 $41 #
cone-surface $-1 16.536375682668847 -39.108852464452944 2.5422213686674677 0 0.54463904215088732 -0.83867056331134215 0.75 0 0 1 I I -0.70710678118654757 0.70710678118654757 forward I I I I #
loop $-1 $-1 $93 $32 #
coedge $-1 $62 $62 $94 $95 reversed $42 $-1 #
face $-1 $-1 $96 $27 $-1 $97 forward single #
loop $-1 $98 $99 $44 #
cone-surface $-1 25.17875648875183 -39.108852464452944 2.5422213686674677 0 0.54463904215088732 -0.83867056331134215 0.75 0 0 1 I I -0.70710678118654757 0.70710678118654757 forward I I I I #
loop $-1 $-1 $100 $33 #
coedge $-1 $67 $67 $101 $102 reversed $45 $-1 #
face $-1 $-1 $103 $29 $-1 $104 forward single #
loop $-1 $105 $106 $47 #
cone-surface $-1 33.821137294834813 -39.108852464452944 2.5422213686674677 0 0.54463904215088732 -0.83867056331134215 0.75 0 0 1 I I -0.70710678118654757 0.70710678118654757 forward I I I I #
loop $-1 $-1 $107 $34 #
coedge $-1 $72 $72 $108 $109 reversed $48 $-1 #
face $-1 $110 $111 $21 $-1 $112 reversed single #
loop $-1 $-1 $113 $50 #
plane-surface $-1 0 -53.362866244688021 0 0 1 0 0 0 1 forward_v I I I I #
coedge $-1 $114 $115 $116 $117 forward $51 $-1 #
coedge $-1 $118 $53 $119 $120 forward $36 $-1 #
coedge $-1 $53 $118 $121 $122 forward $36 $-1 #
coedge $-1 $123 $124 $53 $80 reversed $125 $-1 #
edge $-1 $126 $127 $79 $128 forward #
face $-1 $129 $130 $23 $-1 $131 reversed single #
loop $-1 $-1 $132 $54 #
plane-surface $-1 10.77478847861353 -139.7551476706181 133.36495131440984 1 0 0 0 0.54463904215088732 -0.83867056331134215 forward_v I I I I #
coedge $-1 $133 $134 $135 $136 reversed $55 $-1 #
coedge $-1 $86 $57 $137 $138 reversed $39 $-1 #
coedge $-1 $57 $85 $133 $139 reversed $39 $-1 #
coedge $-1 $135 $140 $57 $88 forward $141 $-1 #
edge $-1 $142 $143 $87 $144 forward #
loop $-1 $-1 $94 $58 #
plane-surface $-1 25.17875648875183 -53.362866244687979 0.33250648067368616 0 -0.54463904215088732 0.83867056331134215 1 0 0 forward_v I I I I #
loop $-1 $-1 $145 $41 #
coedge $-1 $92 $92 $93 $146 reversed $59 $-1 #
coedge $-1 $93 $93 $92 $146 forward $61 $-1 #
coedge $-1 $94 $94 $62 $95 forward $89 $-1 #
edge $-1 $147 $147 $94 $148 forward #
loop $-1 $-1 $101 $63 #
plane-surface $-1 25.17875648875183 -53.362866244687979 0.33250648067368616 0 -0.54463904215088732 0.83867056331134215 1 0 0 forward_v I I I I #
loop $-1 $-1 $149 $44 #
coedge $-1 $99 $99 $100 $150 reversed $64 $-1 #
coedge $-1 $100 $100 $99 $150 forward $66 $-1 #
coedge $-1 $101 $101 $67 $102 forward $96 $-1 #
edge $-1 $151 $151 $101 $152 forward #
loop $-1 $-1 $108 $68 #
plane-surface $-1 25.17875648875183 -53.362866244687979 0.33250648067368616 0 -0.54463904215088732 0.83867056331134215 1 0 0 forward_v I I I I #
loop $-1 $-1 $153 $47 #
coedge $-1 $106 $106 $107 $154 reversed $69 $-1 #
coedge $-1 $107 $107 $106 $154 forward $71 $-1 #
coedge $-1 $108 $108 $72 $109 forward $103 $-1 #
edge $-1 $155 $155 $108 $156 forward #
face $-1 $157 $158 $21 $-1 $159 reversed single #
loop $-1 $-1 $160 $73 #
plane-surface $-1 -79.311502426221509 0 0 1 0 0 0 0 -1 forward_v I I I I #
coedge $-1 $161 $121 $162 $163 forward $74 $-1 #
coedge $-1 $164 $76 $161 $165 forward $51 $-1 #
coedge $-1 $76 $164 $166 $167 forward $51 $-1 #
coedge $-1 $124 $123 $76 $117 reversed $125 $-1 #
edge $-1 $168 $169 $116 $170 forward #
coedge $-1 $78 $77 $171 $172 forward $36 $-1 #
coedge $-1 $173 $174 $77 $120 reversed $158 $-1 #
edge $-1 $127 $175 $119 $176 forward #
coedge $-1 $113 $177 $78 $122 reversed $74 $-1 #
edge $-1 $178 $126 $121 $179 forward #
coedge $-1 $116 $79 $177 $180 forward $125 $-1 #
coedge $-1 $79 $116 $173 $181 reversed $125 $-1 #
loop $-1 $-1 $123 $157 #
vertex $-1 $80 $182 #
vertex $-1 $80 $183 #
straight-curve $-1 79.311502426221509 0 14.665139028089714 0 1 0 I I #
face $-1 $-1 $141 $23 $-1 $184 forward single #
loop $-1 $-1 $185 $81 #
plane-surface $-1 0 -53.362866244688021 0 0 1 0 0 0 1 forward_v I I I I #
coedge $-1 $186 $187 $188 $189 reversed $82 $-1 #
coedge $-1 $190 $84 $86 $139 forward $55 $-1 #
coedge $-1 $84 $190 $186 $191 forward $55 $-1 #
coedge $-1 $188 $87 $84 $136 forward $141 $-1 #
edge $-1 $143 $192 $135 $193 forward #
coedge $-1 $194 $195 $85 $138 forward $130 $-1 #
edge $-1 $196 $142 $137 $197 forward #
edge $-1 $143 $196 $86 $198 forward #
coedge $-1 $87 $188 $194 $199 forward $141 $-1 #
loop $-1 $-1 $188 $129 #
vertex $-1 $138 $200 #
vertex $-1 $88 $201 #
straight-curve $-1 39.58272449889013 -69.87757383530905 14.665139028089712 0 1 0 I I #
coedge $-1 $145 $145 $-1 $202 reversed $91 $-1 #
edge $-1 $203 $203 $92 $204 forward #
vertex $-1 $95 $205 #
ellipse-curve $-1 16.536375682668847 -42.327707100748292 7.4988227543816723 0 -0.54463904215088732 0.83867056331134215 1.5 0 0 1 I I #
coedge $-1 $149 $149 $-1 $206 reversed $98 $-1 #
edge $-1 $207 $207 $99 $208 forward #
vertex $-1 $102 $209 #
ellipse-curve $-1 25.17875648875183 -42.327707100748292 7.4988227543816723 0 -0.54463904215088732 0.83867056331134215 1.5 0 0 1 I I #
coedge $-1 $153 $153 $-1 $210 reversed $105 $-1 #
edge $-1 $211 $211 $106 $212 forward #
vertex $-1 $109 $213 #
ellipse-curve $-1 33.821137294834813 -42.327707100748292 7.4988227543816723 0 -0.54463904215088732 0.83867056331134215 1.5 0 0 1 I I #
face $-1 $-1 $125 $21 $-1 $214 reversed single #
loop $-1 $-1 $173 $110 #
plane-surface $-1 0 53.362866244688021 0 0 -1 0 0 0 -1 forward_v I I I I #
coedge $-1 $215 $171 $174 $216 forward $111 $-1 #
coedge $-1 $177 $113 $114 $165 reversed $74 $-1 #
coedge $-1 $171 $215 $113 $163 reversed $111 $-1 #
edge $-1 $178 $217 $162 $218 forward #
coedge $-1 $115 $114 $215 $219 forward $51 $-1 #
edge $-1 $169 $217 $161 $220 forward #
coedge $-1 $174 $173 $115 $167 reversed $158 $-1 #
edge $-1 $221 $168 $166 $222 forward #
vertex $-1 $117 $223 #
vertex $-1 $180 $224 #
straight-curve $-1 79.311502426221509 0 -14.665139028089714 0 -1 0 I I #
coedge $-1 $160 $162 $118 $172 reversed $111 $-1 #
edge $-1 $175 $178 $171 $225 forward #
coedge $-1 $166 $119 $124 $181 forward $158 $-1 #
coedge $-1 $119 $166 $160 $216 reversed $158 $-1 #
vertex $-1 $120 $226 #
straight-curve $-1 0 53.362866244688021 14.665139028089714 -1 0 0 I I #
coedge $-1 $121 $161 $123 $180 reversed $74 $-1 #
vertex $-1 $172 $227 #
straight-curve $-1 0 -53.362866244688021 14.665139028089714 1 0 0 I I #
edge $-1 $126 $169 $123 $228 forward #
edge $-1 $127 $168 $124 $229 forward #
point $-1 79.311502426221509 -53.362866244688021 14.665139028089714 #
point $-1 79.311502426221509 53.362866244688021 14.665139028089714 #
plane-surface $-1 0 0 14.665139028089714 0 0 1 1 0 0 forward_v I I I I #
coedge $-1 $195 $194 $187 $230 forward $130 $-1 #
coedge $-1 $187 $132 $134 $191 reversed $82 $-1 #
coedge $-1 $132 $186 $185 $230 reversed $82 $-1 #
coedge $-1 $140 $135 $132 $189 forward $141 $-1 #
edge $-1 $192 $231 $188 $232 forward #
coedge $-1 $134 $133 $195 $233 reversed $55 $-1 #
edge $-1 $234 $192 $186 $235 forward #
vertex $-1 $136 $236 #
straight-curve $-1 12.589378244375915 -31.292547956808523 14.665139028089714 -1 0 0 I I #
coedge $-1 $185 $137 $140 $199 reversed $130 $-1 #
coedge $-1 $137 $185 $190 $233 forward $130 $-1 #
vertex $-1 $138 $237 #
straight-curve $-1 39.58272449889013 -53.362866244688021 66.682475657204918 0 0 1 I I #
straight-curve $-1 39.58272449889013 -53.362866244687979 0.33250648067368616 0 -0.83867056331134215 -0.54463904215088732 I I #
edge $-1 $231 $142 $194 $238 forward #
point $-1 39.58272449889013 -53.362866244688021 14.665139028089714 #
point $-1 39.58272449889013 -31.292547956808527 14.665139028089714 #
edge $-1 $239 $239 $145 $-1 forward #
vertex $-1 $146 $240 #
ellipse-curve $-1 16.536375682668847 -39.517331746066112 3.1712242911509745 0 -0.54463904215088732 0.83867056331134215 1.5 0 0 1 I I #
point $-1 18.036375682668847 -42.32770710074832 7.4988227543817159 #
edge $-1 $241 $241 $149 $-1 forward #
vertex $-1 $150 $242 #
ellipse-curve $-1 25.17875648875183 -39.517331746066112 3.1712242911509745 0 -0.54463904215088732 0.83867056331134215 1.5 0 0 1 I I #
point $-1 26.67875648875183 -42.32770710074832 7.4988227543817159 #
edge $-1 $243 $243 $153 $-1 forward #
vertex $-1 $154 $244 #
ellipse-curve $-1 33.821137294834813 -39.517331746066112 3.1712242911509745 0 -0.54463904215088732 0.83867056331134215 1.5 0 0 1 I I #
point $-1 35.321137294834813 -42.32770710074832 7.4988227543817159 #
plane-surface $-1 79.311502426221509 0 0 -1 0 0 0 0 1 forward_v I I I I #
coedge $-1 $162 $160 $164 $219 reversed $111 $-1 #
edge $-1 $175 $221 $174 $245 forward #
vertex $-1 $219 $246 #
straight-curve $-1 -79.311502426221509 -53.362866244688021 0 0 0 -1 I I #
edge $-1 $217 $221 $215 $247 forward #
straight-curve $-1 0 -53.362866244688021 -14.665139028089714 -1 0 0 I I #
vertex $-1 $167 $248 #
straight-curve $-1 0 53.362866244688021 -14.665139028089714 1 0 0 I I #
point $-1 79.311502426221509 53.362866244688021 -14.665139028089714 #
point $-1 79.311502426221509 -53.362866244688021 -14.665139028089714 #
straight-curve $-1 -79.311502426221509 0 14.665139028089714 0 -1 0 I I #
point $-1 -79.311502426221509 53.362866244688021 14.665139028089714 #
point $-1 -79.311502426221509 -53.362866244688021 14.665139028089714 #
straight-curve $-1 79.311502426221509 -53.362866244688021 0 0 0 -1 I I #
straight-curve $-1 79.311502426221509 53.362866244688021 0 0 0 -1 I I #
edge $-1 $231 $234 $185 $249 forward #
vertex $-1 $199 $250 #
straight-curve $-1 10.77478847861353 -69.87757383530905 14.665139028089712 0 -1 0 I I #
edge $-1 $234 $196 $195 $251 forward #
vertex $-1 $233 $252 #
straight-curve $-1 10.77478847861353 -53.362866244687979 0.33250648067368616 0 0.83867056331134215 0.54463904215088732 I I #
point $-1 10.77478847861353 -31.292547956808527 14.665139028089714 #
point $-1 39.58272449889013 -53.362866244688021 0.33250648067365846 #
straight-curve $-1 0 -53.362866244688021 14.665139028089714 1 0 0 I I #
vertex $-1 $202 $253 #
point $-1 18.036375682668847 -39.517331746066112 3.1712242911509745 #
vertex $-1 $206 $254 #
point $-1 26.67875648875183 -39.517331746066112 3.1712242911509745 #
vertex $-1 $210 $255 #
point $-1 35.321137294834813 -39.517331746066112 3.1712242911509745 #
straight-curve $-1 -79.311502426221509 53.362866244688021 0 0 0 -1 I I #
point $-1 -79.311502426221509 -53.362866244688021 -14.665139028089714 #
straight-curve $-1 -79.311502426221509 0 -14.665139028089714 0 1 0 I I #
point $-1 -79.311502426221509 53.362866244688021 -14.665139028089714 #
straight-curve $-1 10.77478847861353 -53.362866244688021 66.682475657204918 0 0 -1 I I #
point $-1 10.77478847861353 -53.362866244688021 14.665139028089714 #
straight-curve $-1 12.589378244375915 -53.362866244688021 0.33250648067366023 1 0 0 I I #
point $-1 10.77478847861353 -53.362866244688021 0.33250648067365846 #
point $-1 16.536375682668847 -38.700373182839776 1.913218446183961 #
point $-1 25.17875648875183 -38.700373182839776 1.913218446183961 #
point $-1 33.821137294834813 -38.700373182839776 1.913218446183961 #
End-of-ACIS-data 