300 0 6 0           
7 Unknown 11 ACIS 3.0 NT 24 Fri Oct 30 20:25:49 1998 
-1 9.9999999999999995e-007 1e-010 
body $6 $7 $-1 $8 #
body $9 $10 $-1 $11 #
body $12 $13 $-1 $14 #
body $15 $16 $-1 $17 #
body $18 $19 $-1 $20 #
body $21 $22 $-1 $23 #
display_attribute-st-attrib $-1 $24 $-1 $0 1 #
lump $-1 $-1 $25 $0 #
transform $-1 1 0 0 0 1 0 0 0 1 75.519882808923612 43.963878919188829 21.773839919802363 1 rotate no_reflect no_shear #
display_attribute-st-attrib $-1 $26 $-1 $1 1 #
lump $-1 $-1 $27 $1 #
transform $-1 1 0 0 0 1 0 0 0 1 75.519882808923612 -9.0047888916907937 40.61887343540144 1 rotate no_reflect no_shear #
display_attribute-st-attrib $-1 $28 $-1 $2 1 #
lump $-1 $-1 $29 $2 #
transform $-1 1 0 0 0 0.62932038083071107 -0.77714596973225614 0 0.77714596973225614 0.62932038083071107 9.5920415133615737 149.97297290915387 191.45451570178517 1 rotate no_reflect no_shear #
display_attribute-st-attrib $-1 $30 $-1 $3 1 #
lump $-1 $-1 $31 $3 #
transform $-1 1 0 0 0 -0.62932038083071107 0.77714596973225614 0 -0.77714596973225614 -0.62932038083071107 9.5920415133615737 78.814543094667343 33.503748217909532 1 rotate no_reflect no_shear #
display_attribute-st-attrib $-1 $32 $-1 $4 1 #
lump $-1 $-1 $33 $4 #
transform $-1 1 0 0 0 0.62932038083071107 -0.77714596973225614 0 0.77714596973225614 0.62932038083071107 85.111924322285191 149.97297290915387 191.45451570178517 1 rotate no_reflect no_shear #
display_attribute-st-attrib $-1 $34 $-1 $5 1 #
lump $-1 $-1 $35 $5 #
transform $-1 1 0 0 0 -0.62932038083071107 0.77714596973225614 0 -0.77714596973225614 -0.62932038083071107 85.111924322285191 78.814543094667343 33.503748217909532 1 rotate no_reflect no_shear #
id_attribute-st-attrib $-1 $-1 $6 $0 4646 #
shell $-1 $-1 $-1 $36 $-1 $7 #
id_attribute-st-attrib $-1 $-1 $9 $1 4651 #
shell $-1 $-1 $-1 $37 $-1 $10 #
id_attribute-st-attrib $-1 $-1 $12 $2 4664 #
shell $-1 $-1 $-1 $38 $-1 $13 #
id_attribute-st-attrib $-1 $-1 $15 $3 4671 #
shell $-1 $-1 $-1 $39 $-1 $16 #
id_attribute-st-attrib $-1 $-1 $18 $4 4679 #
shell $-1 $-1 $-1 $40 $-1 $19 #
id_attribute-st-attrib $-1 $-1 $21 $5 4688 #
shell $-1 $-1 $-1 $41 $-1 $22 #
face $-1 $42 $43 $25 $-1 $44 forward single #
face $-1 $45 $46 $27 $-1 $47 forward single #
face $-1 $48 $49 $29 $-1 $50 forward single #
face $-1 $51 $52 $31 $-1 $53 forward single #
face $-1 $54 $55 $33 $-1 $56 forward single #
face $-1 $57 $58 $35 $-1 $59 forward single #
face $-1 $60 $61 $25 $-1 $62 reversed single #
loop $-1 $-1 $63 $36 #
plane-surface $-1 0 0 21.773839919802363 0 0 1 1 0 0 forward_v I I I I #
face $-1 $64 $65 $27 $-1 $66 reversed single #
loop $-1 $-1 $67 $37 #
plane-surface $-1 0 0 2.9288064042032822 0 0 1 1 0 0 forward_v I I I I #
face $-1 $68 $69 $29 $-1 $70 reversed single #
loop $-1 $-1 $71 $38 #
plane-surface $-1 0 0 151.03976561784722 0 0 1 1 0 0 forward_v I I I I #
face $-1 $72 $73 $31 $-1 $74 forward single #
loop $-1 $75 $76 $39 #
cone-surface $-1 0 0 -2.0811792352061573 0 0 1 1 0 0 1 I I 0 1 forward I I I I #
face $-1 $77 $78 $33 $-1 $79 reversed single #
loop $-1 $-1 $80 $40 #
plane-surface $-1 0 0 151.03976561784722 0 0 1 1 0 0 forward_v I I I I #
face $-1 $81 $82 $35 $-1 $83 forward single #
loop $-1 $84 $85 $41 #
cone-surface $-1 0 0 -2.0811792352061573 0 0 1 1 0 0 1 I I 0 1 forward I I I I #
face $-1 $86 $87 $25 $-1 $88 reversed single #
loop $-1 $-1 $89 $42 #
plane-surface $-1 0 0 -21.773839919802363 0 0 1 1 0 0 forward_v I I I I #
coedge $-1 $90 $91 $92 $93 forward $43 $-1 #
face $-1 $94 $95 $27 $-1 $96 reversed single #
loop $-1 $-1 $97 $45 #
plane-surface $-1 0 0 -2.9288064042032822 0 0 1 1 0 0 forward_v I I I I #
coedge $-1 $98 $99 $100 $101 forward $46 $-1 #
face $-1 $102 $103 $29 $-1 $104 reversed single #
loop $-1 $-1 $105 $48 #
plane-surface $-1 0 0 -151.03976561784722 0 0 1 1 0 0 forward_v I I I I #
coedge $-1 $106 $107 $108 $109 forward $49 $-1 #
face $-1 $-1 $110 $31 $-1 $111 forward single #
loop $-1 $-1 $112 $51 #
plane-surface $-1 0 0 -3.6623584704123093 0 0 -1 -1 0 0 forward_v I I I I #
loop $-1 $-1 $113 $39 #
coedge $-1 $76 $76 $112 $114 reversed $52 $-1 #
face $-1 $115 $116 $33 $-1 $117 reversed single #
loop $-1 $-1 $118 $54 #
plane-surface $-1 0 0 -151.03976561784722 0 0 1 1 0 0 forward_v I I I I #
coedge $-1 $119 $120 $121 $122 forward $55 $-1 #
face $-1 $-1 $123 $35 $-1 $124 forward single #
loop $-1 $-1 $125 $57 #
plane-surface $-1 0 0 -3.6623584704123093 0 0 -1 -1 0 0 forward_v I I I I #
loop $-1 $-1 $126 $41 #
coedge $-1 $85 $85 $125 $127 reversed $58 $-1 #
face $-1 $128 $129 $25 $-1 $130 reversed single #
loop $-1 $-1 $131 $60 #
plane-surface $-1 0 -43.963878919188829 0 0 1 0 0 0 1 forward_v I I I I #
coedge $-1 $132 $133 $134 $135 forward $61 $-1 #
coedge $-1 $136 $63 $137 $138 forward $43 $-1 #
coedge $-1 $63 $136 $139 $140 forward $43 $-1 #
coedge $-1 $141 $142 $63 $93 reversed $143 $-1 #
edge $-1 $144 $145 $92 $146 forward #
face $-1 $147 $148 $27 $-1 $149 reversed single #
loop $-1 $-1 $150 $64 #
plane-surface $-1 0 -9.0047888916907937 0 0 1 0 0 0 1 forward_v I I I I #
coedge $-1 $151 $152 $153 $154 forward $65 $-1 #
coedge $-1 $155 $67 $156 $157 forward $46 $-1 #
coedge $-1 $67 $155 $158 $159 forward $46 $-1 #
coedge $-1 $160 $161 $67 $101 reversed $162 $-1 #
edge $-1 $163 $164 $100 $165 forward #
face $-1 $166 $167 $29 $-1 $168 reversed single #
loop $-1 $-1 $169 $68 #
plane-surface $-1 0 -302.07953123569445 0 0 1 0 0 0 1 forward_v I I I I #
coedge $-1 $170 $171 $172 $173 forward $69 $-1 #
coedge $-1 $174 $71 $175 $176 forward $49 $-1 #
coedge $-1 $71 $174 $177 $178 forward $49 $-1 #
coedge $-1 $179 $180 $71 $109 reversed $181 $-1 #
edge $-1 $182 $183 $108 $184 forward #
loop $-1 $185 $186 $72 #
cone-surface $-1 0 0 0 0 0 1 0.5 0 0 1 I I -0.70710678118654624 0.70710678118654879 forward I I I I #
coedge $-1 $112 $112 $76 $114 forward $73 $-1 #
coedge $-1 $113 $113 $186 $187 forward $75 $-1 #
edge $-1 $188 $188 $112 $189 forward #
face $-1 $190 $191 $33 $-1 $192 reversed single #
loop $-1 $-1 $193 $77 #
plane-surface $-1 0 -302.07953123569445 0 0 1 0 0 0 1 forward_v I I I I #
coedge $-1 $194 $195 $196 $197 forward $78 $-1 #
coedge $-1 $198 $80 $199 $200 forward $55 $-1 #
coedge $-1 $80 $198 $201 $202 forward $55 $-1 #
coedge $-1 $203 $204 $80 $122 reversed $205 $-1 #
edge $-1 $206 $207 $121 $208 forward #
loop $-1 $209 $210 $81 #
cone-surface $-1 0 0 0 0 0 1 0.5 0 0 1 I I -0.70710678118654624 0.70710678118654879 forward I I I I #
coedge $-1 $125 $125 $85 $127 forward $82 $-1 #
coedge $-1 $126 $126 $210 $211 forward $84 $-1 #
edge $-1 $212 $212 $125 $213 forward #
face $-1 $214 $215 $25 $-1 $216 reversed single #
loop $-1 $-1 $217 $86 #
plane-surface $-1 -75.519882808923612 0 0 1 0 0 0 0 -1 forward_v I I I I #
coedge $-1 $218 $139 $219 $220 forward $87 $-1 #
coedge $-1 $221 $89 $218 $222 forward $61 $-1 #
coedge $-1 $89 $221 $223 $224 forward $61 $-1 #
coedge $-1 $142 $141 $89 $135 reversed $143 $-1 #
edge $-1 $225 $226 $134 $227 forward #
coedge $-1 $91 $90 $228 $229 forward $43 $-1 #
coedge $-1 $230 $231 $90 $138 reversed $215 $-1 #
edge $-1 $145 $232 $137 $233 forward #
coedge $-1 $131 $234 $91 $140 reversed $87 $-1 #
edge $-1 $235 $144 $139 $236 forward #
coedge $-1 $134 $92 $234 $237 forward $143 $-1 #
coedge $-1 $92 $134 $230 $238 reversed $143 $-1 #
loop $-1 $-1 $141 $214 #
vertex $-1 $93 $239 #
vertex $-1 $93 $240 #
straight-curve $-1 75.519882808923612 0 21.773839919802363 0 1 0 I I #
face $-1 $241 $242 $27 $-1 $243 reversed single #
loop $-1 $-1 $244 $94 #
plane-surface $-1 -75.519882808923612 0 0 1 0 0 0 0 -1 forward_v I I I I #
coedge $-1 $245 $158 $246 $247 forward $95 $-1 #
coedge $-1 $248 $97 $245 $249 forward $65 $-1 #
coedge $-1 $97 $248 $250 $251 forward $65 $-1 #
coedge $-1 $161 $160 $97 $154 reversed $162 $-1 #
edge $-1 $252 $253 $153 $254 forward #
coedge $-1 $99 $98 $255 $256 forward $46 $-1 #
coedge $-1 $257 $258 $98 $157 reversed $242 $-1 #
edge $-1 $164 $259 $156 $260 forward #
coedge $-1 $150 $261 $99 $159 reversed $95 $-1 #
edge $-1 $262 $163 $158 $263 forward #
coedge $-1 $153 $100 $261 $264 forward $162 $-1 #
coedge $-1 $100 $153 $257 $265 reversed $162 $-1 #
loop $-1 $-1 $160 $241 #
vertex $-1 $101 $266 #
vertex $-1 $101 $267 #
straight-curve $-1 75.519882808923612 0 2.9288064042032822 0 1 0 I I #
face $-1 $268 $269 $29 $-1 $270 reversed single #
loop $-1 $-1 $271 $102 #
plane-surface $-1 -9.5920415133615737 0 0 1 0 0 0 0 -1 forward_v I I I I #
coedge $-1 $272 $177 $273 $274 forward $103 $-1 #
coedge $-1 $275 $105 $272 $276 forward $69 $-1 #
coedge $-1 $105 $275 $277 $278 forward $69 $-1 #
coedge $-1 $180 $179 $105 $173 reversed $181 $-1 #
edge $-1 $279 $280 $172 $281 forward #
coedge $-1 $107 $106 $282 $283 forward $49 $-1 #
coedge $-1 $284 $285 $106 $176 reversed $269 $-1 #
edge $-1 $183 $286 $175 $287 forward #
coedge $-1 $169 $288 $107 $178 reversed $103 $-1 #
edge $-1 $289 $182 $177 $290 forward #
coedge $-1 $172 $108 $288 $291 forward $181 $-1 #
coedge $-1 $108 $172 $284 $292 reversed $181 $-1 #
loop $-1 $-1 $179 $268 #
vertex $-1 $109 $293 #
vertex $-1 $109 $294 #
straight-curve $-1 9.5920415133615737 0 151.03976561784722 0 1 0 I I #
loop $-1 $-1 $295 $72 #
coedge $-1 $186 $186 $113 $187 reversed $110 $-1 #
edge $-1 $296 $296 $186 $297 forward #
vertex $-1 $114 $298 #
ellipse-curve $-1 0 0 -3.6623584704123093 0 0 -1 1 0 0 1 I I #
face $-1 $299 $300 $33 $-1 $301 reversed single #
loop $-1 $-1 $302 $115 #
plane-surface $-1 -9.5920415133615737 0 0 1 0 0 0 0 -1 forward_v I I I I #
coedge $-1 $303 $201 $304 $305 forward $116 $-1 #
coedge $-1 $306 $118 $303 $307 forward $78 $-1 #
coedge $-1 $118 $306 $308 $309 forward $78 $-1 #
coedge $-1 $204 $203 $118 $197 reversed $205 $-1 #
edge $-1 $310 $311 $196 $312 forward #
coedge $-1 $120 $119 $313 $314 forward $55 $-1 #
coedge $-1 $315 $316 $119 $200 reversed $300 $-1 #
edge $-1 $207 $317 $199 $318 forward #
coedge $-1 $193 $319 $120 $202 reversed $116 $-1 #
edge $-1 $320 $206 $201 $321 forward #
coedge $-1 $196 $121 $319 $322 forward $205 $-1 #
coedge $-1 $121 $196 $315 $323 reversed $205 $-1 #
loop $-1 $-1 $203 $299 #
vertex $-1 $122 $324 #
vertex $-1 $122 $325 #
straight-curve $-1 9.5920415133615737 0 151.03976561784722 0 1 0 I I #
loop $-1 $-1 $326 $81 #
coedge $-1 $210 $210 $126 $211 reversed $123 $-1 #
edge $-1 $327 $327 $210 $328 forward #
vertex $-1 $127 $329 #
ellipse-curve $-1 0 0 -3.6623584704123093 0 0 -1 1 0 0 1 I I #
face $-1 $-1 $143 $25 $-1 $330 reversed single #
loop $-1 $-1 $230 $128 #
plane-surface $-1 0 43.963878919188829 0 0 -1 0 0 0 -1 forward_v I I I I #
coedge $-1 $331 $228 $231 $332 forward $129 $-1 #
coedge $-1 $234 $131 $132 $222 reversed $87 $-1 #
coedge $-1 $228 $331 $131 $220 reversed $129 $-1 #
edge $-1 $235 $333 $219 $334 forward #
coedge $-1 $133 $132 $331 $335 forward $61 $-1 #
edge $-1 $226 $333 $218 $336 forward #
coedge $-1 $231 $230 $133 $224 reversed $215 $-1 #
edge $-1 $337 $225 $223 $338 forward #
vertex $-1 $135 $339 #
vertex $-1 $237 $340 #
straight-curve $-1 75.519882808923612 0 -21.773839919802363 0 -1 0 I I #
coedge $-1 $217 $219 $136 $229 reversed $129 $-1 #
edge $-1 $232 $235 $228 $341 forward #
coedge $-1 $223 $137 $142 $238 forward $215 $-1 #
coedge $-1 $137 $223 $217 $332 reversed $215 $-1 #
vertex $-1 $138 $342 #
straight-curve $-1 0 43.963878919188829 21.773839919802363 -1 0 0 I I #
coedge $-1 $139 $218 $141 $237 reversed $87 $-1 #
vertex $-1 $229 $343 #
straight-curve $-1 0 -43.963878919188829 21.773839919802363 1 0 0 I I #
edge $-1 $144 $226 $141 $344 forward #
edge $-1 $145 $225 $142 $345 forward #
point $-1 75.519882808923612 -43.963878919188829 21.773839919802363 #
point $-1 75.519882808923612 43.963878919188829 21.773839919802363 #
face $-1 $-1 $162 $27 $-1 $346 reversed single #
loop $-1 $-1 $257 $147 #
plane-surface $-1 0 9.0047888916907937 0 0 -1 0 0 0 -1 forward_v I I I I #
coedge $-1 $347 $255 $258 $348 forward $148 $-1 #
coedge $-1 $261 $150 $151 $249 reversed $95 $-1 #
coedge $-1 $255 $347 $150 $247 reversed $148 $-1 #
edge $-1 $262 $349 $246 $350 forward #
coedge $-1 $152 $151 $347 $351 forward $65 $-1 #
edge $-1 $253 $349 $245 $352 forward #
coedge $-1 $258 $257 $152 $251 reversed $242 $-1 #
edge $-1 $353 $252 $250 $354 forward #
vertex $-1 $154 $355 #
vertex $-1 $264 $356 #
straight-curve $-1 75.519882808923612 0 -2.9288064042032822 0 -1 0 I I #
coedge $-1 $244 $246 $155 $256 reversed $148 $-1 #
edge $-1 $259 $262 $255 $357 forward #
coedge $-1 $250 $156 $161 $265 forward $242 $-1 #
coedge $-1 $156 $250 $244 $348 reversed $242 $-1 #
vertex $-1 $157 $358 #
straight-curve $-1 0 9.0047888916907937 2.9288064042032822 -1 0 0 I I #
coedge $-1 $158 $245 $160 $264 reversed $95 $-1 #
vertex $-1 $256 $359 #
straight-curve $-1 0 -9.0047888916907937 2.9288064042032822 1 0 0 I I #
edge $-1 $163 $253 $160 $360 forward #
edge $-1 $164 $252 $161 $361 forward #
point $-1 75.519882808923612 -9.0047888916907937 2.9288064042032822 #
point $-1 75.519882808923612 9.0047888916907937 2.9288064042032822 #
face $-1 $-1 $181 $29 $-1 $362 reversed single #
loop $-1 $-1 $284 $166 #
plane-surface $-1 0 302.07953123569445 0 0 -1 0 0 0 -1 forward_v I I I I #
coedge $-1 $363 $282 $285 $364 forward $167 $-1 #
coedge $-1 $288 $169 $170 $276 reversed $103 $-1 #
coedge $-1 $282 $363 $169 $274 reversed $167 $-1 #
edge $-1 $289 $365 $273 $366 forward #
coedge $-1 $171 $170 $363 $367 forward $69 $-1 #
edge $-1 $280 $365 $272 $368 forward #
coedge $-1 $285 $284 $171 $278 reversed $269 $-1 #
edge $-1 $369 $279 $277 $370 forward #
vertex $-1 $173 $371 #
vertex $-1 $291 $372 #
straight-curve $-1 9.5920415133615737 0 -151.03976561784722 0 -1 0 I I #
coedge $-1 $271 $273 $174 $283 reversed $167 $-1 #
edge $-1 $286 $289 $282 $373 forward #
coedge $-1 $277 $175 $180 $292 forward $269 $-1 #
coedge $-1 $175 $277 $271 $364 reversed $269 $-1 #
vertex $-1 $176 $374 #
straight-curve $-1 0 302.07953123569445 151.03976561784722 -1 0 0 I I #
coedge $-1 $177 $272 $179 $291 reversed $103 $-1 #
vertex $-1 $283 $375 #
straight-curve $-1 0 -302.07953123569445 151.03976561784722 1 0 0 I I #
edge $-1 $182 $280 $179 $376 forward #
edge $-1 $183 $279 $180 $377 forward #
point $-1 9.5920415133615737 -302.07953123569445 151.03976561784722 #
point $-1 9.5920415133615737 302.07953123569445 151.03976561784722 #
coedge $-1 $295 $295 $-1 $378 reversed $185 $-1 #
vertex $-1 $187 $379 #
ellipse-curve $-1 0 0 -0.50000000000000178 0 0 -1 1 0 0 1 I I #
point $-1 1 0 -3.6623584704123093 #
face $-1 $-1 $205 $33 $-1 $380 reversed single #
loop $-1 $-1 $315 $190 #
plane-surface $-1 0 302.07953123569445 0 0 -1 0 0 0 -1 forward_v I I I I #
coedge $-1 $381 $313 $316 $382 forward $191 $-1 #
coedge $-1 $319 $193 $194 $307 reversed $116 $-1 #
coedge $-1 $313 $381 $193 $305 reversed $191 $-1 #
edge $-1 $320 $383 $304 $384 forward #
coedge $-1 $195 $194 $381 $385 forward $78 $-1 #
edge $-1 $311 $383 $303 $386 forward #
coedge $-1 $316 $315 $195 $309 reversed $300 $-1 #
edge $-1 $387 $310 $308 $388 forward #
vertex $-1 $197 $389 #
vertex $-1 $322 $390 #
straight-curve $-1 9.5920415133615737 0 -151.03976561784722 0 -1 0 I I #
coedge $-1 $302 $304 $198 $314 reversed $191 $-1 #
edge $-1 $317 $320 $313 $391 forward #
coedge $-1 $308 $199 $204 $323 forward $300 $-1 #
coedge $-1 $199 $308 $302 $382 reversed $300 $-1 #
vertex $-1 $200 $392 #
straight-curve $-1 0 302.07953123569445 151.03976561784722 -1 0 0 I I #
coedge $-1 $201 $303 $203 $322 reversed $116 $-1 #
vertex $-1 $314 $393 #
straight-curve $-1 0 -302.07953123569445 151.03976561784722 1 0 0 I I #
edge $-1 $206 $311 $203 $394 forward #
edge $-1 $207 $310 $204 $395 forward #
point $-1 9.5920415133615737 -302.07953123569445 151.03976561784722 #
point $-1 9.5920415133615737 302.07953123569445 151.03976561784722 #
coedge $-1 $326 $326 $-1 $396 reversed $209 $-1 #
vertex $-1 $211 $397 #
ellipse-curve $-1 0 0 -0.50000000000000178 0 0 -1 1 0 0 1 I I #
point $-1 1 0 -3.6623584704123093 #
plane-surface $-1 75.519882808923612 0 0 -1 0 0 0 0 1 forward_v I I I I #
coedge $-1 $219 $217 $221 $335 reversed $129 $-1 #
edge $-1 $232 $337 $231 $398 forward #
vertex $-1 $335 $399 #
straight-curve $-1 -75.519882808923612 -43.963878919188829 0 0 0 -1 I I #
edge $-1 $333 $337 $331 $400 forward #
straight-curve $-1 0 -43.963878919188829 -21.773839919802363 -1 0 0 I I #
vertex $-1 $224 $401 #
straight-curve $-1 0 43.963878919188829 -21.773839919802363 1 0 0 I I #
point $-1 75.519882808923612 43.963878919188829 -21.773839919802363 #
point $-1 75.519882808923612 -43.963878919188829 -21.773839919802363 #
straight-curve $-1 -75.519882808923612 0 21.773839919802363 0 -1 0 I I #
point $-1 -75.519882808923612 43.963878919188829 21.773839919802363 #
point $-1 -75.519882808923612 -43.963878919188829 21.773839919802363 #
straight-curve $-1 75.519882808923612 -43.963878919188829 0 0 0 -1 I I #
straight-curve $-1 75.519882808923612 43.963878919188829 0 0 0 -1 I I #
plane-surface $-1 75.519882808923612 0 0 -1 0 0 0 0 1 forward_v I I I I #
coedge $-1 $246 $244 $248 $351 reversed $148 $-1 #
edge $-1 $259 $353 $258 $402 forward #
vertex $-1 $351 $403 #
straight-curve $-1 -75.519882808923612 -9.0047888916907937 0 0 0 -1 I I #
edge $-1 $349 $353 $347 $404 forward #
straight-curve $-1 0 -9.0047888916907937 -2.9288064042032822 -1 0 0 I I #
vertex $-1 $251 $405 #
straight-curve $-1 0 9.0047888916907937 -2.9288064042032822 1 0 0 I I #
point $-1 75.519882808923612 9.0047888916907937 -2.9288064042032822 #
point $-1 75.519882808923612 -9.0047888916907937 -2.9288064042032822 #
straight-curve $-1 -75.519882808923612 0 2.9288064042032822 0 -1 0 I I #
point $-1 -75.519882808923612 9.0047888916907937 2.9288064042032822 #
point $-1 -75.519882808923612 -9.0047888916907937 2.9288064042032822 #
straight-curve $-1 75.519882808923612 -9.0047888916907937 0 0 0 -1 I I #
straight-curve $-1 75.519882808923612 9.0047888916907937 0 0 0 -1 I I #
plane-surface $-1 9.5920415133615737 0 0 -1 0 0 0 0 1 forward_v I I I I #
coedge $-1 $273 $271 $275 $367 reversed $167 $-1 #
edge $-1 $286 $369 $285 $406 forward #
vertex $-1 $367 $407 #
straight-curve $-1 -9.5920415133615737 -302.07953123569445 0 0 0 -1 I I #
edge $-1 $365 $369 $363 $408 forward #
straight-curve $-1 0 -302.07953123569445 -151.03976561784722 -1 0 0 I I #
vertex $-1 $278 $409 #
straight-curve $-1 0 302.07953123569445 -151.03976561784722 1 0 0 I I #
point $-1 9.5920415133615737 302.07953123569445 -151.03976561784722 #
point $-1 9.5920415133615737 -302.07953123569445 -151.03976561784722 #
straight-curve $-1 -9.5920415133615737 0 151.03976561784722 0 -1 0 I I #
point $-1 -9.5920415133615737 302.07953123569445 151.03976561784722 #
point $-1 -9.5920415133615737 -302.07953123569445 151.03976561784722 #
straight-curve $-1 9.5920415133615737 -302.07953123569445 0 0 0 -1 I I #
straight-curve $-1 9.5920415133615737 302.07953123569445 0 0 0 -1 I I #
edge $-1 $410 $410 $295 $-1 forward #
point $-1 1 0 -0.50000000000000178 #
plane-surface $-1 9.5920415133615737 0 0 -1 0 0 0 0 1 forward_v I I I I #
coedge $-1 $304 $302 $306 $385 reversed $191 $-1 #
edge $-1 $317 $387 $316 $411 forward #
vertex $-1 $385 $412 #
straight-curve $-1 -9.5920415133615737 -302.07953123569445 0 0 0 -1 I I #
edge $-1 $383 $387 $381 $413 forward #
straight-curve $-1 0 -302.07953123569445 -151.03976561784722 -1 0 0 I I #
vertex $-1 $309 $414 #
straight-curve $-1 0 302.07953123569445 -151.03976561784722 1 0 0 I I #
point $-1 9.5920415133615737 302.07953123569445 -151.03976561784722 #
point $-1 9.5920415133615737 -302.07953123569445 -151.03976561784722 #
straight-curve $-1 -9.5920415133615737 0 151.03976561784722 0 -1 0 I I #
point $-1 -9.5920415133615737 302.07953123569445 151.03976561784722 #
point $-1 -9.5920415133615737 -302.07953123569445 151.03976561784722 #
straight-curve $-1 9.5920415133615737 -302.07953123569445 0 0 0 -1 I I #
straight-curve $-1 9.5920415133615737 302.07953123569445 0 0 0 -1 I I #
edge $-1 $415 $415 $326 $-1 forward #
point $-1 1 0 -0.50000000000000178 #
straight-curve $-1 -75.519882808923612 43.963878919188829 0 0 0 -1 I I #
point $-1 -75.519882808923612 -43.963878919188829 -21.773839919802363 #
straight-curve $-1 -75.519882808923612 0 -21.773839919802363 0 1 0 I I #
point $-1 -75.519882808923612 43.963878919188829 -21.773839919802363 #
straight-curve $-1 -75.519882808923612 9.0047888916907937 0 0 0 -1 I I #
point $-1 -75.519882808923612 -9.0047888916907937 -2.9288064042032822 #
straight-curve $-1 -75.519882808923612 0 -2.9288064042032822 0 1 0 I I #
point $-1 -75.519882808923612 9.0047888916907937 -2.9288064042032822 #
straight-curve $-1 -9.5920415133615737 302.07953123569445 0 0 0 -1 I I #
point $-1 -9.5920415133615737 -302.07953123569445 -151.03976561784722 #
straight-curve $-1 -9.5920415133615737 0 -151.03976561784722 0 1 0 I I #
point $-1 -9.5920415133615737 302.07953123569445 -151.03976561784722 #
vertex $-1 $378 $416 #
straight-curve $-1 -9.5920415133615737 302.07953123569445 0 0 0 -1 I I #
point $-1 -9.5920415133615737 -302.07953123569445 -151.03976561784722 #
straight-curve $-1 -9.5920415133615737 0 -151.03976561784722 0 1 0 I I #
point $-1 -9.5920415133615737 302.07953123569445 -151.03976561784722 #
vertex $-1 $396 $417 #
point $-1 0 0 0.50000000000000178 #
point $-1 0 0 0.50000000000000178 #
End-of-ACIS-data 