600 0 11 0           
94 GICL ACIS Healer - Source: /gicl/data5/repository/Drexel/SM99-DATA/part125.smdg.feat.sat - 6 0 18 ACIS 6.0.3 Solaris 24 Sat Apr 13 20:45:29 2002 
1 9.999999999999999547e-07 1.000000000000000036e-10 
body $-1 $11 $-1 $-1 #
body $-1 $12 $-1 $-1 #
body $-1 $13 $-1 $-1 #
body $-1 $14 $-1 $-1 #
body $-1 $15 $-1 $-1 #
body $-1 $16 $-1 $-1 #
body $-1 $17 $-1 $-1 #
body $-1 $18 $-1 $-1 #
body $-1 $19 $-1 $-1 #
body $-1 $20 $-1 $-1 #
body $-1 $21 $-1 $-1 #
lump $-1 $-1 $22 $0 #
lump $-1 $-1 $23 $1 #
lump $-1 $-1 $24 $2 #
lump $-1 $-1 $25 $3 #
lump $-1 $-1 $26 $4 #
lump $-1 $-1 $27 $5 #
lump $-1 $-1 $28 $6 #
lump $-1 $-1 $29 $7 #
lump $-1 $-1 $30 $8 #
lump $-1 $-1 $31 $9 #
lump $-1 $-1 $32 $10 #
shell $-1 $-1 $-1 $33 $-1 $11 #
shell $-1 $-1 $-1 $34 $-1 $12 #
shell $-1 $-1 $-1 $35 $-1 $13 #
shell $-1 $-1 $-1 $36 $-1 $14 #
shell $-1 $-1 $-1 $37 $-1 $15 #
shell $-1 $-1 $-1 $38 $-1 $16 #
shell $-1 $-1 $-1 $39 $-1 $17 #
shell $-1 $-1 $-1 $40 $-1 $18 #
shell $-1 $-1 $-1 $41 $-1 $19 #
shell $-1 $-1 $-1 $42 $-1 $20 #
shell $-1 $-1 $-1 $43 $-1 $21 #
face $-1 $44 $45 $22 $-1 $46 forward single #
face $-1 $47 $48 $23 $-1 $49 forward single #
face $-1 $50 $51 $24 $-1 $52 forward single #
face $-1 $53 $54 $25 $-1 $55 forward single #
face $-1 $56 $57 $26 $-1 $58 forward single #
face $-1 $59 $60 $27 $-1 $61 forward single #
face $-1 $62 $63 $28 $-1 $64 forward single #
face $-1 $65 $66 $29 $-1 $67 forward single #
face $-1 $68 $69 $30 $-1 $70 forward single #
face $-1 $71 $72 $31 $-1 $73 forward single #
face $-1 $74 $75 $32 $-1 $76 forward single #
face $-1 $77 $78 $22 $-1 $79 reversed single #
loop $-1 $-1 $80 $33 #
plane-surface $-1 40.35401470992156447 19.67884765312163609 11.07317292577062773 0 0 1 1 0 0 forward_v I I I I #
face $-1 $81 $82 $23 $-1 $83 reversed single #
loop $-1 $-1 $84 $34 #
plane-surface $-1 40.35401470992156447 -2.094050310449754981 3.723621597429985552 0 0 1 1 0 0 forward_v I I I I #
face $-1 $85 $86 $24 $-1 $87 reversed single #
loop $-1 $-1 $88 $35 #
plane-surface $-1 -125.4438395773268979 12.98300496995868691 109.6058895049557407 -0.7771459697322561366 0 0.629320380830711068 0.629320380830711068 0 0.7771459697322561366 forward_v I I I I #
face $-1 $89 $90 $25 $-1 $91 forward single #
loop $-1 $92 $93 $36 #
cone-surface $-1 1.909823809418818907 11.60185663175865756 9.00169891400561184 0.7771459697322561366 0 -0.629320380830711068 0.314660190415355534 0 0.3885729848661280683 1 I I 0 1 0.5 forward I I I I #
face $-1 $94 $95 $26 $-1 $96 forward single #
loop $-1 $97 $98 $37 #
cone-surface $-1 1.909823809418818907 14.36415330815871627 9.00169891400561184 0.7771459697322561366 0 -0.629320380830711068 0.314660190415355534 0 0.3885729848661280683 1 I I 0 1 0.5 forward I I I I #
face $-1 $99 $100 $27 $-1 $101 reversed single #
loop $-1 $-1 $102 $38 #
plane-surface $-1 -125.4438395773268979 30.56279095718409167 109.6058895049557407 -0.7771459697322561366 0 0.629320380830711068 0.629320380830711068 0 0.7771459697322561366 forward_v I I I I #
face $-1 $103 $104 $28 $-1 $105 forward single #
loop $-1 $106 $107 $39 #
cone-surface $-1 1.909823809418818907 29.18164261898406409 9.00169891400561184 0.7771459697322561366 0 -0.629320380830711068 0.314660190415355534 0 0.3885729848661280683 1 I I 0 1 0.5 forward I I I I #
face $-1 $108 $109 $29 $-1 $110 forward single #
loop $-1 $111 $112 $40 #
cone-surface $-1 1.909823809418818907 31.9439392953841228 9.00169891400561184 0.7771459697322561366 0 -0.629320380830711068 0.314660190415355534 0 0.3885729848661280683 1 I I 0 1 0.5 forward I I I I #
face $-1 $113 $114 $30 $-1 $115 reversed single #
loop $-1 $-1 $116 $41 #
plane-surface $-1 119.568529341915962 25.21775202675432581 183.6408433354929457 0.6293203988644634483 0 0.7771459551288114609 0.7771459551288114609 0 -0.6293203988644634483 forward_v I I I I #
face $-1 $117 $118 $31 $-1 $119 forward single #
loop $-1 $120 $121 $42 #
cone-surface $-1 78.1289531226012457 23.65609104874452839 8.850911909988898429 -0.6293203988644634483 0 -0.7771459551288114609 0.3885729775644057304 0 -0.3146601994322317242 1 I I 0 1 0.5 forward I I I I #
face $-1 $122 $123 $32 $-1 $124 forward single #
loop $-1 $125 $126 $43 #
cone-surface $-1 78.1289531226012457 26.77941300476411612 8.850911909988898429 -0.6293203988644634483 0 -0.7771459551288114609 0.3885729775644057304 0 -0.3146601994322317242 1 I I 0 1 0.5 forward I I I I #
face $-1 $127 $128 $22 $-1 $129 reversed single #
loop $-1 $-1 $130 $44 #
plane-surface $-1 40.35401470992156447 19.67884765312163609 0 0 0 1 1 0 0 forward_v I I I I #
coedge $-1 $131 $132 $133 $134 forward $45 $-1 #
face $-1 $135 $136 $23 $-1 $137 reversed single #
loop $-1 $-1 $138 $47 #
plane-surface $-1 40.35401470992156447 -2.094050310449754981 0.7236215974299855525 0 0 1 1 0 0 forward_v I I I I #
coedge $-1 $139 $140 $141 $142 forward $48 $-1 #
face $-1 $143 $144 $24 $-1 $145 reversed single #
loop $-1 $-1 $146 $50 #
plane-surface $-1 1.421085471520200372e-14 12.98300496995868691 8.02347388377189219 -0.7771459697322561366 0 0.629320380830711068 0.629320380830711068 0 0.7771459697322561366 forward_v I I I I #
coedge $-1 $147 $148 $149 $150 forward $51 $-1 #
face $-1 $-1 $151 $25 $-1 $152 forward single #
loop $-1 $-1 $153 $53 #
plane-surface $-1 1.234798761930730793 11.60185663175865756 9.548323404771263512 -0.7771459697322561366 0 0.629320380830711068 -0.629320380830711068 0 -0.7771459697322561366 forward_v I I I I #
loop $-1 $-1 $154 $36 #
coedge $-1 $93 $93 $153 $155 reversed $54 $-1 #
face $-1 $-1 $156 $26 $-1 $157 forward single #
loop $-1 $-1 $158 $56 #
plane-surface $-1 1.234798761930730793 14.36415330815871627 9.548323404771263512 -0.7771459697322561366 0 0.629320380830711068 -0.629320380830711068 0 -0.7771459697322561366 forward_v I I I I #
loop $-1 $-1 $159 $37 #
coedge $-1 $98 $98 $158 $160 reversed $57 $-1 #
face $-1 $161 $162 $27 $-1 $163 reversed single #
loop $-1 $-1 $164 $59 #
plane-surface $-1 1.421085471520200372e-14 30.56279095718409167 8.02347388377189219 -0.7771459697322561366 0 0.629320380830711068 0.629320380830711068 0 0.7771459697322561366 forward_v I I I I #
coedge $-1 $165 $166 $167 $168 forward $60 $-1 #
face $-1 $-1 $169 $28 $-1 $170 forward single #
loop $-1 $-1 $171 $62 #
plane-surface $-1 1.234798761930730793 29.18164261898406409 9.548323404771263512 -0.7771459697322561366 0 0.629320380830711068 -0.629320380830711068 0 -0.7771459697322561366 forward_v I I I I #
loop $-1 $-1 $172 $39 #
coedge $-1 $107 $107 $171 $173 reversed $63 $-1 #
face $-1 $-1 $174 $29 $-1 $175 forward single #
loop $-1 $-1 $176 $65 #
plane-surface $-1 1.234798761930730793 31.9439392953841228 9.548323404771263512 -0.7771459697322561366 0 0.629320380830711068 -0.629320380830711068 0 -0.7771459697322561366 forward_v I I I I #
loop $-1 $-1 $177 $40 #
coedge $-1 $112 $112 $176 $178 reversed $66 $-1 #
face $-1 $179 $180 $30 $-1 $181 reversed single #
loop $-1 $-1 $182 $68 #
plane-surface $-1 17.98611080979491561 25.21775202675432581 58.19700611539651902 0.6293203988644634483 0 0.7771459551288114609 0.7771459551288114609 0 -0.6293203988644634483 forward_v I I I I #
coedge $-1 $183 $184 $185 $186 forward $69 $-1 #
face $-1 $-1 $187 $31 $-1 $188 forward single #
loop $-1 $-1 $189 $71 #
plane-surface $-1 78.44361332203348525 23.65609104874452839 9.239484887553304659 0.6293203988644634483 0 0.7771459551288114609 -0.7771459551288114609 0 0.6293203988644634483 forward_v I I I I #
loop $-1 $-1 $190 $42 #
coedge $-1 $121 $121 $189 $191 reversed $72 $-1 #
face $-1 $-1 $192 $32 $-1 $193 forward single #
loop $-1 $-1 $194 $74 #
plane-surface $-1 78.44361332203348525 26.77941300476411612 9.239484887553304659 0.6293203988644634483 0 0.7771459551288114609 -0.7771459551288114609 0 0.6293203988644634483 forward_v I I I I #
loop $-1 $-1 $195 $43 #
coedge $-1 $126 $126 $194 $196 reversed $75 $-1 #
face $-1 $197 $198 $22 $-1 $199 reversed single #
loop $-1 $-1 $200 $77 #
plane-surface $-1 40.35401470992156447 0 5.536586462885313864 0 1 0 0 0 1 forward_v I I I I #
coedge $-1 $201 $202 $203 $204 forward $78 $-1 #
coedge $-1 $205 $80 $206 $207 forward $45 $-1 #
coedge $-1 $80 $205 $208 $209 forward $45 $-1 #
coedge $-1 $210 $211 $80 $134 reversed $212 $-1 #
edge $-1 $213 -19.67884765312163609 $214 19.67884765312163609 $133 $215 forward 7 unknown #
face $-1 $216 $217 $23 $-1 $218 reversed single #
loop $-1 $-1 $219 $81 #
plane-surface $-1 40.35401470992156447 -4.188100620899509963 2.223621597429985552 0 1 0 0 0 1 forward_v I I I I #
coedge $-1 $220 $221 $222 $223 forward $82 $-1 #
coedge $-1 $224 $84 $225 $226 forward $48 $-1 #
coedge $-1 $84 $224 $227 $228 forward $48 $-1 #
coedge $-1 $229 $230 $84 $142 reversed $231 $-1 #
edge $-1 $232 -2.094050310449754981 $233 2.094050310449754981 $141 $234 forward 7 unknown #
face $-1 $235 $236 $24 $-1 $237 reversed single #
loop $-1 $-1 $238 $85 #
plane-surface $-1 -62.72191978866344186 9.760325514158619598 58.81468169436381288 0 1 0 -0.7771459697322561366 0 0.629320380830711068 forward_v I I I I #
coedge $-1 $239 $240 $241 $242 forward $86 $-1 #
coedge $-1 $243 $88 $244 $245 forward $51 $-1 #
coedge $-1 $88 $243 $246 $247 forward $51 $-1 #
coedge $-1 $248 $249 $88 $150 reversed $250 $-1 #
edge $-1 $251 -3.222679455800067316 $252 3.222679455800067316 $149 $253 forward 7 unknown #
loop $-1 $254 $255 $89 #
cone-surface $-1 2.779135349339970862 11.60185663175865756 8.297744328032283789 0.7771459697322561366 0 -0.629320380830711068 0.157330095207677767 0 0.1942864924330640342 1 I I -0.7071067811865474617 0.7071067811865474617 0.25 forward I I I I #
coedge $-1 $153 $153 $93 $155 forward $90 $-1 #
coedge $-1 $154 $154 $255 $256 forward $92 $-1 #
edge $-1 $257 0 $257 6.283185307179586232 $153 $258 forward 7 unknown #
loop $-1 $259 $260 $94 #
cone-surface $-1 2.779135349339970862 14.36415330815871627 8.297744328032283789 0.7771459697322561366 0 -0.629320380830711068 0.157330095207677767 0 0.1942864924330640342 1 I I -0.7071067811865474617 0.7071067811865474617 0.25 forward I I I I #
coedge $-1 $158 $158 $98 $160 forward $95 $-1 #
coedge $-1 $159 $159 $260 $261 forward $97 $-1 #
edge $-1 $262 0 $262 6.283185307179586232 $158 $263 forward 7 unknown #
face $-1 $264 $265 $27 $-1 $266 reversed single #
loop $-1 $-1 $267 $99 #
plane-surface $-1 -62.72191978866344186 27.34011150138402257 58.81468169436381288 0 1 0 -0.7771459697322561366 0 0.629320380830711068 forward_v I I I I #
coedge $-1 $268 $269 $270 $271 forward $100 $-1 #
coedge $-1 $272 $102 $273 $274 forward $60 $-1 #
coedge $-1 $102 $272 $275 $276 forward $60 $-1 #
coedge $-1 $277 $278 $102 $168 reversed $279 $-1 #
edge $-1 $280 -3.222679455800069093 $281 3.222679455800069093 $167 $282 forward 7 unknown #
loop $-1 $283 $284 $103 #
cone-surface $-1 2.779135349339970862 29.18164261898406409 8.297744328032283789 0.7771459697322561366 0 -0.629320380830711068 0.157330095207677767 0 0.1942864924330640342 1 I I -0.7071067811865474617 0.7071067811865474617 0.25 forward I I I I #
coedge $-1 $171 $171 $107 $173 forward $104 $-1 #
coedge $-1 $172 $172 $284 $285 forward $106 $-1 #
edge $-1 $286 0 $286 6.283185307179586232 $171 $287 forward 7 unknown #
loop $-1 $288 $289 $108 #
cone-surface $-1 2.779135349339970862 31.9439392953841228 8.297744328032283789 0.7771459697322561366 0 -0.629320380830711068 0.157330095207677767 0 0.1942864924330640342 1 I I -0.7071067811865474617 0.7071067811865474617 0.25 forward I I I I #
coedge $-1 $176 $176 $112 $178 forward $109 $-1 #
coedge $-1 $177 $177 $289 $290 forward $111 $-1 #
edge $-1 $291 0 $291 6.283185307179586232 $176 $292 forward 7 unknown #
face $-1 $293 $294 $30 $-1 $295 reversed single #
loop $-1 $-1 $296 $113 #
plane-surface $-1 68.77732007585544238 21.57387641139813894 120.9189247254447253 0 1 0 0.6293203988644634483 0 0.7771459551288114609 forward_v I I I I #
coedge $-1 $297 $298 $299 $300 forward $114 $-1 #
coedge $-1 $301 $116 $302 $303 forward $69 $-1 #
coedge $-1 $116 $301 $304 $305 forward $69 $-1 #
coedge $-1 $306 $307 $116 $186 reversed $308 $-1 #
edge $-1 $309 -3.64387561535618687 $310 3.64387561535618687 $185 $311 forward 7 unknown #
loop $-1 $312 $313 $117 #
cone-surface $-1 77.65696282345290058 23.65609104874452839 8.268052443642289973 -0.6293203988644634483 0 -0.7771459551288114609 0.1942864887822028652 0 -0.1573300997161158621 1 I I -0.7071067811865474617 0.7071067811865474617 0.25 forward I I I I #
coedge $-1 $189 $189 $121 $191 forward $118 $-1 #
coedge $-1 $190 $190 $313 $314 forward $120 $-1 #
edge $-1 $315 0 $315 6.283185307179586232 $189 $316 forward 7 unknown #
loop $-1 $317 $318 $122 #
cone-surface $-1 77.65696282345290058 26.77941300476411612 8.268052443642289973 -0.6293203988644634483 0 -0.7771459551288114609 0.1942864887822028652 0 -0.1573300997161158621 1 I I -0.7071067811865474617 0.7071067811865474617 0.25 forward I I I I #
coedge $-1 $194 $194 $126 $196 forward $123 $-1 #
coedge $-1 $195 $195 $318 $319 forward $125 $-1 #
edge $-1 $320 0 $320 6.283185307179586232 $194 $321 forward 7 unknown #
face $-1 $322 $323 $22 $-1 $324 reversed single #
loop $-1 $-1 $325 $127 #
plane-surface $-1 0 19.67884765312163609 5.536586462885313864 1 0 0 0 0 -1 forward_v I I I I #
coedge $-1 $326 $208 $327 $328 forward $128 $-1 #
coedge $-1 $329 $130 $326 $330 forward $78 $-1 #
coedge $-1 $130 $329 $331 $332 forward $78 $-1 #
coedge $-1 $211 $210 $130 $204 reversed $212 $-1 #
edge $-1 $333 -19.67884765312163609 $334 19.67884765312163609 $203 $335 forward 7 unknown #
coedge $-1 $132 $131 $336 $337 forward $45 $-1 #
coedge $-1 $338 $339 $131 $207 reversed $323 $-1 #
edge $-1 $214 -40.35401470992156447 $340 40.35401470992156447 $206 $341 forward 7 unknown #
coedge $-1 $200 $342 $132 $209 reversed $128 $-1 #
edge $-1 $343 -40.35401470992156447 $213 40.35401470992156447 $208 $344 forward 7 unknown #
coedge $-1 $203 $133 $342 $345 forward $212 $-1 #
coedge $-1 $133 $203 $338 $346 reversed $212 $-1 #
loop $-1 $-1 $210 $322 #
vertex $-1 $134 $347 #
vertex $-1 $134 $348 #
straight-curve $-1 80.70802941984312895 19.67884765312163609 11.07317292577062773 0 1 0 I I #
face $-1 $349 $350 $23 $-1 $351 reversed single #
loop $-1 $-1 $352 $135 #
plane-surface $-1 0 -2.094050310449754981 2.223621597429985552 1 0 0 0 0 -1 forward_v I I I I #
coedge $-1 $353 $227 $354 $355 forward $136 $-1 #
coedge $-1 $356 $138 $353 $357 forward $82 $-1 #
coedge $-1 $138 $356 $358 $359 forward $82 $-1 #
coedge $-1 $230 $229 $138 $223 reversed $231 $-1 #
edge $-1 $360 -2.094050310449754981 $361 2.094050310449754981 $222 $362 forward 7 unknown #
coedge $-1 $140 $139 $363 $364 forward $48 $-1 #
coedge $-1 $365 $366 $139 $226 reversed $350 $-1 #
edge $-1 $233 -40.35401470992156447 $367 40.35401470992156447 $225 $368 forward 7 unknown #
coedge $-1 $219 $369 $140 $228 reversed $136 $-1 #
edge $-1 $370 -40.35401470992156447 $232 40.35401470992156447 $227 $371 forward 7 unknown #
coedge $-1 $222 $141 $369 $372 forward $231 $-1 #
coedge $-1 $141 $222 $365 $373 reversed $231 $-1 #
loop $-1 $-1 $229 $349 #
vertex $-1 $142 $374 #
vertex $-1 $142 $375 #
straight-curve $-1 80.70802941984312895 -2.094050310449754981 3.723621597429985552 0 1 0 I I #
face $-1 $376 $377 $24 $-1 $378 reversed single #
loop $-1 $-1 $379 $143 #
plane-surface $-1 -164.3043354098472832 12.98300496995868691 -66.62915788296308506 0.629320380830711068 0 0.7771459697322561366 0.7771459697322561366 0 -0.629320380830711068 forward_v I I I I #
coedge $-1 $380 $246 $381 $382 forward $144 $-1 #
coedge $-1 $383 $146 $380 $384 forward $86 $-1 #
coedge $-1 $146 $383 $385 $386 forward $86 $-1 #
coedge $-1 $249 $248 $146 $242 reversed $250 $-1 #
edge $-1 $387 -3.222679455800067316 $388 3.222679455800067316 $241 $389 forward 7 unknown #
coedge $-1 $148 $147 $390 $391 forward $51 $-1 #
coedge $-1 $392 $393 $147 $245 reversed $377 $-1 #
edge $-1 $252 -161.4160588396862579 $394 161.4160588396862863 $244 $395 forward 7 unknown #
coedge $-1 $238 $396 $148 $247 reversed $144 $-1 #
edge $-1 $397 -161.4160588396862863 $251 161.4160588396862579 $246 $398 forward 7 unknown #
coedge $-1 $241 $149 $396 $399 forward $250 $-1 #
coedge $-1 $149 $241 $392 $400 reversed $250 $-1 #
loop $-1 $-1 $248 $376 #
vertex $-1 $150 $401 #
vertex $-1 $150 $402 #
straight-curve $-1 -23.86142395614307077 12.98300496995868691 235.0497290822826244 0 1 0 I I #
loop $-1 $-1 $403 $89 #
coedge $-1 $255 $255 $154 $256 reversed $151 $-1 #
edge $-1 $404 0 $404 6.283185307179586232 $255 $405 forward 7 unknown #
vertex $-1 $155 $406 #
ellipse-curve $-1 1.234798761930730793 11.60185663175865756 9.548323404771263512 -0.7771459697322561366 0 0.629320380830711068 0.314660190415355534 0 0.3885729848661280683 1 I I #
loop $-1 $-1 $407 $94 #
coedge $-1 $260 $260 $159 $261 reversed $156 $-1 #
edge $-1 $408 0 $408 6.283185307179586232 $260 $409 forward 7 unknown #
vertex $-1 $160 $410 #
ellipse-curve $-1 1.234798761930730793 14.36415330815871627 9.548323404771263512 -0.7771459697322561366 0 0.629320380830711068 0.314660190415355534 0 0.3885729848661280683 1 I I #
face $-1 $411 $412 $27 $-1 $413 reversed single #
loop $-1 $-1 $414 $161 #
plane-surface $-1 -164.3043354098472832 30.56279095718409167 -66.62915788296308506 0.629320380830711068 0 0.7771459697322561366 0.7771459697322561366 0 -0.629320380830711068 forward_v I I I I #
coedge $-1 $415 $275 $416 $417 forward $162 $-1 #
coedge $-1 $418 $164 $415 $419 forward $100 $-1 #
coedge $-1 $164 $418 $420 $421 forward $100 $-1 #
coedge $-1 $278 $277 $164 $271 reversed $279 $-1 #
edge $-1 $422 -3.222679455800069093 $423 3.222679455800069093 $270 $424 forward 7 unknown #
coedge $-1 $166 $165 $425 $426 forward $60 $-1 #
coedge $-1 $427 $428 $165 $274 reversed $412 $-1 #
edge $-1 $281 -161.4160588396862579 $429 161.4160588396862863 $273 $430 forward 7 unknown #
coedge $-1 $267 $431 $166 $276 reversed $162 $-1 #
edge $-1 $432 -161.4160588396862863 $280 161.4160588396862579 $275 $433 forward 7 unknown #
coedge $-1 $270 $167 $431 $434 forward $279 $-1 #
coedge $-1 $167 $270 $427 $435 reversed $279 $-1 #
loop $-1 $-1 $277 $411 #
vertex $-1 $168 $436 #
vertex $-1 $168 $437 #
straight-curve $-1 -23.86142395614307077 30.56279095718409167 235.0497290822826244 0 1 0 I I #
loop $-1 $-1 $438 $103 #
coedge $-1 $284 $284 $172 $285 reversed $169 $-1 #
edge $-1 $439 0 $439 6.283185307179586232 $284 $440 forward 7 unknown #
vertex $-1 $173 $441 #
ellipse-curve $-1 1.234798761930730793 29.18164261898406409 9.548323404771263512 -0.7771459697322561366 0 0.629320380830711068 0.314660190415355534 0 0.3885729848661280683 1 I I #
loop $-1 $-1 $442 $108 #
coedge $-1 $289 $289 $177 $290 reversed $174 $-1 #
edge $-1 $443 0 $443 6.283185307179586232 $289 $444 forward 7 unknown #
vertex $-1 $178 $445 #
ellipse-curve $-1 1.234798761930730793 31.9439392953841228 9.548323404771263512 -0.7771459697322561366 0 0.629320380830711068 0.314660190415355534 0 0.3885729848661280683 1 I I #
face $-1 $446 $447 $30 $-1 $448 reversed single #
loop $-1 $-1 $449 $179 #
plane-surface $-1 -56.66651714424097008 25.21775202675432581 222.501343257565793 0.7771459551288114609 0 -0.6293203988644634483 -0.6293203988644634483 0 -0.7771459551288114609 forward_v I I I I #
coedge $-1 $450 $304 $451 $452 forward $180 $-1 #
coedge $-1 $453 $182 $450 $454 forward $114 $-1 #
coedge $-1 $182 $453 $455 $456 forward $114 $-1 #
coedge $-1 $307 $306 $182 $300 reversed $308 $-1 #
edge $-1 $457 -3.64387561535618687 $458 3.64387561535618687 $299 $459 forward 7 unknown #
coedge $-1 $184 $183 $460 $461 forward $69 $-1 #
coedge $-1 $462 $463 $183 $303 reversed $447 $-1 #
edge $-1 $310 -161.4160588396862579 $464 161.4160588396862579 $302 $465 forward 7 unknown #
coedge $-1 $296 $466 $184 $305 reversed $180 $-1 #
edge $-1 $467 -161.4160588396862579 $309 161.4160588396862579 $304 $468 forward 7 unknown #
coedge $-1 $299 $185 $466 $469 forward $308 $-1 #
coedge $-1 $185 $299 $462 $470 reversed $308 $-1 #
loop $-1 $-1 $306 $446 #
vertex $-1 $186 $471 #
vertex $-1 $186 $472 #
straight-curve $-1 245.0123665620123745 25.21775202675432581 82.05842480337187794 0 1 0 I I #
loop $-1 $-1 $473 $117 #
coedge $-1 $313 $313 $190 $314 reversed $187 $-1 #
edge $-1 $474 0 $474 6.283185307179586232 $313 $475 forward 7 unknown #
vertex $-1 $191 $476 #
ellipse-curve $-1 78.44361332203348525 23.65609104874452839 9.239484887553304659 0.6293203988644634483 0 0.7771459551288114609 0.3885729775644057304 0 -0.3146601994322317242 1 I I #
loop $-1 $-1 $477 $122 #
coedge $-1 $318 $318 $195 $319 reversed $192 $-1 #
edge $-1 $478 0 $478 6.283185307179586232 $318 $479 forward 7 unknown #
vertex $-1 $196 $480 #
ellipse-curve $-1 78.44361332203348525 26.77941300476411612 9.239484887553304659 0.6293203988644634483 0 0.7771459551288114609 0.3885729775644057304 0 -0.3146601994322317242 1 I I #
face $-1 $-1 $212 $22 $-1 $481 reversed single #
loop $-1 $-1 $338 $197 #
plane-surface $-1 40.35401470992156447 39.35769530624327217 5.536586462885313864 0 -1 0 0 0 -1 forward_v I I I I #
coedge $-1 $482 $336 $339 $483 forward $198 $-1 #
coedge $-1 $342 $200 $201 $330 reversed $128 $-1 #
coedge $-1 $336 $482 $200 $328 reversed $198 $-1 #
edge $-1 $343 -5.536586462885313864 $484 5.536586462885313864 $327 $485 forward 7 unknown #
coedge $-1 $202 $201 $482 $486 forward $78 $-1 #
edge $-1 $334 -40.35401470992156447 $484 40.35401470992156447 $326 $487 forward 7 unknown #
coedge $-1 $339 $338 $202 $332 reversed $323 $-1 #
edge $-1 $488 -40.35401470992156447 $333 40.35401470992156447 $331 $489 forward 7 unknown #
vertex $-1 $204 $490 #
vertex $-1 $345 $491 #
straight-curve $-1 80.70802941984312895 19.67884765312163609 0 0 -1 0 I I #
coedge $-1 $325 $327 $205 $337 reversed $198 $-1 #
edge $-1 $340 -19.67884765312163609 $343 19.67884765312163609 $336 $492 forward 7 unknown #
coedge $-1 $331 $206 $211 $346 forward $323 $-1 #
coedge $-1 $206 $331 $325 $483 reversed $323 $-1 #
vertex $-1 $207 $493 #
straight-curve $-1 40.35401470992156447 39.35769530624327217 11.07317292577062773 -1 0 0 I I #
coedge $-1 $208 $326 $210 $345 reversed $128 $-1 #
vertex $-1 $337 $494 #
straight-curve $-1 40.35401470992156447 0 11.07317292577062773 1 0 0 I I #
edge $-1 $213 -5.536586462885313864 $334 5.536586462885313864 $210 $495 forward 7 unknown #
edge $-1 $214 -5.536586462885313864 $333 5.536586462885313864 $211 $496 forward 7 unknown #
point $-1 80.70802941984312895 0 11.07317292577062773 #
point $-1 80.70802941984312895 39.35769530624327217 11.07317292577062773 #
face $-1 $-1 $231 $23 $-1 $497 reversed single #
loop $-1 $-1 $365 $216 #
plane-surface $-1 40.35401470992156447 0 2.223621597429985552 0 -1 0 0 0 -1 forward_v I I I I #
coedge $-1 $498 $363 $366 $499 forward $217 $-1 #
coedge $-1 $369 $219 $220 $357 reversed $136 $-1 #
coedge $-1 $363 $498 $219 $355 reversed $217 $-1 #
edge $-1 $370 -1.5 $500 1.5 $354 $501 forward 7 unknown #
coedge $-1 $221 $220 $498 $502 forward $82 $-1 #
edge $-1 $361 -40.35401470992156447 $500 40.35401470992156447 $353 $503 forward 7 unknown #
coedge $-1 $366 $365 $221 $359 reversed $350 $-1 #
edge $-1 $504 -40.35401470992156447 $360 40.35401470992156447 $358 $505 forward 7 unknown #
vertex $-1 $223 $506 #
vertex $-1 $372 $507 #
straight-curve $-1 80.70802941984312895 -2.094050310449754981 0.7236215974299855525 0 -1 0 I I #
coedge $-1 $352 $354 $224 $364 reversed $217 $-1 #
edge $-1 $367 -2.094050310449754981 $370 2.094050310449754981 $363 $508 forward 7 unknown #
coedge $-1 $358 $225 $230 $373 forward $350 $-1 #
coedge $-1 $225 $358 $352 $499 reversed $350 $-1 #
vertex $-1 $226 $509 #
straight-curve $-1 40.35401470992156447 0 3.723621597429985552 -1 0 0 I I #
coedge $-1 $227 $353 $229 $372 reversed $136 $-1 #
vertex $-1 $364 $510 #
straight-curve $-1 40.35401470992156447 -4.188100620899509963 3.723621597429985552 1 0 0 I I #
edge $-1 $232 -1.5 $361 1.5 $229 $511 forward 7 unknown #
edge $-1 $233 -1.5 $360 1.5 $230 $512 forward 7 unknown #
point $-1 80.70802941984312895 -4.188100620899509963 3.723621597429985552 #
point $-1 80.70802941984312895 0 3.723621597429985552 #
face $-1 $-1 $250 $24 $-1 $513 reversed single #
loop $-1 $-1 $392 $235 #
plane-surface $-1 -62.72191978866344186 16.20568442575875423 58.81468169436381288 0 -1 0 0.7771459697322561366 0 -0.629320380830711068 forward_v I I I I #
coedge $-1 $514 $390 $393 $515 forward $236 $-1 #
coedge $-1 $396 $238 $239 $384 reversed $144 $-1 #
coedge $-1 $390 $514 $238 $382 reversed $236 $-1 #
edge $-1 $397 -80.70802941984314316 $516 80.70802941984315737 $381 $517 forward 7 unknown #
coedge $-1 $240 $239 $514 $518 forward $86 $-1 #
edge $-1 $388 -161.4160588396862863 $516 161.4160588396862863 $380 $519 forward 7 unknown #
coedge $-1 $393 $392 $240 $386 reversed $377 $-1 #
edge $-1 $520 -161.4160588396862863 $387 161.4160588396862863 $385 $521 forward 7 unknown #
vertex $-1 $242 $522 #
vertex $-1 $399 $523 #
straight-curve $-1 101.5824156211838414 12.98300496995868691 133.4673134610987972 0 -1 0 I I #
coedge $-1 $379 $381 $243 $391 reversed $236 $-1 #
edge $-1 $394 -3.222679455800067316 $397 3.222679455800067316 $390 $524 forward 7 unknown #
coedge $-1 $385 $244 $249 $400 forward $377 $-1 #
coedge $-1 $244 $385 $379 $515 reversed $377 $-1 #
vertex $-1 $245 $525 #
straight-curve $-1 -125.4438395773268979 16.20568442575875423 109.6058895049557407 -0.629320380830711068 0 -0.7771459697322561366 I I #
coedge $-1 $246 $380 $248 $399 reversed $144 $-1 #
vertex $-1 $391 $526 #
straight-curve $-1 -125.4438395773268979 9.760325514158619598 109.6058895049557407 0.629320380830711068 0 0.7771459697322561366 I I #
edge $-1 $251 -80.70802941984314316 $388 80.70802941984314316 $248 $527 forward 7 unknown #
edge $-1 $252 -80.70802941984314316 $387 80.70802941984314316 $249 $528 forward 7 unknown #
point $-1 -23.86142395614307077 9.760325514158619598 235.0497290822826244 #
point $-1 -23.86142395614307077 16.20568442575875423 235.0497290822826244 #
coedge $-1 $403 $403 $-1 $529 reversed $254 $-1 #
vertex $-1 $256 $530 #
ellipse-curve $-1 2.5848488569069068 11.60185663175865756 8.455074423239961945 -0.7771459697322561366 0 0.629320380830711068 0.314660190415355534 0 0.3885729848661280683 1 I I #
point $-1 1.549458952346086438 11.60185663175865756 9.936896389637391636 #
coedge $-1 $407 $407 $-1 $531 reversed $259 $-1 #
vertex $-1 $261 $532 #
ellipse-curve $-1 2.5848488569069068 14.36415330815871627 8.455074423239961945 -0.7771459697322561366 0 0.629320380830711068 0.314660190415355534 0 0.3885729848661280683 1 I I #
point $-1 1.549458952346086438 14.36415330815871627 9.936896389637391636 #
face $-1 $-1 $279 $27 $-1 $533 reversed single #
loop $-1 $-1 $427 $264 #
plane-surface $-1 -62.72191978866344186 33.78547041298416076 58.81468169436381288 0 -1 0 0.7771459697322561366 0 -0.629320380830711068 forward_v I I I I #
coedge $-1 $534 $425 $428 $535 forward $265 $-1 #
coedge $-1 $431 $267 $268 $419 reversed $162 $-1 #
coedge $-1 $425 $534 $267 $417 reversed $265 $-1 #
edge $-1 $432 -80.70802941984314316 $536 80.70802941984315737 $416 $537 forward 7 unknown #
coedge $-1 $269 $268 $534 $538 forward $100 $-1 #
edge $-1 $423 -161.4160588396862863 $536 161.4160588396862863 $415 $539 forward 7 unknown #
coedge $-1 $428 $427 $269 $421 reversed $412 $-1 #
edge $-1 $540 -161.4160588396862863 $422 161.4160588396862863 $420 $541 forward 7 unknown #
vertex $-1 $271 $542 #
vertex $-1 $434 $543 #
straight-curve $-1 101.5824156211838414 30.56279095718409167 133.4673134610987972 0 -1 0 I I #
coedge $-1 $414 $416 $272 $426 reversed $265 $-1 #
edge $-1 $429 -3.222679455800069093 $432 3.222679455800069093 $425 $544 forward 7 unknown #
coedge $-1 $420 $273 $278 $435 forward $412 $-1 #
coedge $-1 $273 $420 $414 $535 reversed $412 $-1 #
vertex $-1 $274 $545 #
straight-curve $-1 -125.4438395773268979 33.78547041298416076 109.6058895049557407 -0.629320380830711068 0 -0.7771459697322561366 I I #
coedge $-1 $275 $415 $277 $434 reversed $162 $-1 #
vertex $-1 $426 $546 #
straight-curve $-1 -125.4438395773268979 27.34011150138402257 109.6058895049557407 0.629320380830711068 0 0.7771459697322561366 I I #
edge $-1 $280 -80.70802941984314316 $423 80.70802941984314316 $277 $547 forward 7 unknown #
edge $-1 $281 -80.70802941984314316 $422 80.70802941984314316 $278 $548 forward 7 unknown #
point $-1 -23.86142395614307077 27.34011150138402257 235.0497290822826244 #
point $-1 -23.86142395614307077 33.78547041298416076 235.0497290822826244 #
coedge $-1 $438 $438 $-1 $549 reversed $283 $-1 #
vertex $-1 $285 $550 #
ellipse-curve $-1 2.5848488569069068 29.18164261898406409 8.455074423239961945 -0.7771459697322561366 0 0.629320380830711068 0.314660190415355534 0 0.3885729848661280683 1 I I #
point $-1 1.549458952346086438 29.18164261898406409 9.936896389637391636 #
coedge $-1 $442 $442 $-1 $551 reversed $288 $-1 #
vertex $-1 $290 $552 #
ellipse-curve $-1 2.5848488569069068 31.9439392953841228 8.455074423239961945 -0.7771459697322561366 0 0.629320380830711068 0.314660190415355534 0 0.3885729848661280683 1 I I #
point $-1 1.549458952346086438 31.9439392953841228 9.936896389637391636 #
face $-1 $-1 $308 $30 $-1 $553 reversed single #
loop $-1 $-1 $462 $293 #
plane-surface $-1 68.77732007585544238 28.86162764211051268 120.9189247254447253 0 -1 0 -0.6293203988644634483 0 -0.7771459551288114609 forward_v I I I I #
coedge $-1 $554 $460 $463 $555 forward $294 $-1 #
coedge $-1 $466 $296 $297 $454 reversed $180 $-1 #
coedge $-1 $460 $554 $296 $452 reversed $294 $-1 #
edge $-1 $467 -80.70802941984311474 $556 80.70802941984314316 $451 $557 forward 7 unknown #
coedge $-1 $298 $297 $554 $558 forward $114 $-1 #
edge $-1 $458 -161.4160588396862579 $556 161.4160588396862579 $450 $559 forward 7 unknown #
coedge $-1 $463 $462 $298 $456 reversed $447 $-1 #
edge $-1 $560 -161.4160588396862579 $457 161.4160588396862579 $455 $561 forward 7 unknown #
vertex $-1 $300 $562 #
vertex $-1 $469 $563 #
straight-curve $-1 143.4299480298913352 25.21775202675432581 -43.38541241672453452 0 -1 0 I I #
coedge $-1 $449 $451 $301 $461 reversed $294 $-1 #
edge $-1 $464 -3.64387561535618687 $467 3.64387561535618687 $460 $564 forward 7 unknown #
coedge $-1 $455 $302 $307 $470 forward $447 $-1 #
coedge $-1 $302 $455 $449 $555 reversed $447 $-1 #
vertex $-1 $303 $565 #
straight-curve $-1 119.568529341915962 28.86162764211051268 183.6408433354929457 -0.7771459551288114609 0 0.6293203988644634483 I I #
coedge $-1 $304 $450 $306 $469 reversed $180 $-1 #
vertex $-1 $461 $566 #
straight-curve $-1 119.568529341915962 21.57387641139813894 183.6408433354929457 0.7771459551288114609 0 -0.6293203988644634483 I I #
edge $-1 $309 -80.70802941984312895 $458 80.70802941984312895 $306 $567 forward 7 unknown #
edge $-1 $310 -80.70802941984312895 $457 80.70802941984312895 $307 $568 forward 7 unknown #
point $-1 245.0123665620123745 21.57387641139813894 82.05842480337187794 #
point $-1 245.0123665620123745 28.86162764211051268 82.05842480337187794 #
coedge $-1 $473 $473 $-1 $569 reversed $312 $-1 #
vertex $-1 $314 $570 #
ellipse-curve $-1 77.81429292316902036 23.65609104874452839 8.462338932424492199 0.6293203988644634483 0 0.7771459551288114609 0.3885729775644057304 0 -0.3146601994322317242 1 I I #
point $-1 78.83218629959787904 23.65609104874452839 8.924824688121072214 #
coedge $-1 $477 $477 $-1 $571 reversed $317 $-1 #
vertex $-1 $319 $572 #
ellipse-curve $-1 77.81429292316902036 26.77941300476411612 8.462338932424492199 0.6293203988644634483 0 0.7771459551288114609 0.3885729775644057304 0 -0.3146601994322317242 1 I I #
point $-1 78.83218629959787904 26.77941300476411612 8.924824688121072214 #
plane-surface $-1 80.70802941984312895 19.67884765312163609 5.536586462885313864 -1 0 0 0 0 1 forward_v I I I I #
coedge $-1 $327 $325 $329 $486 reversed $198 $-1 #
edge $-1 $340 -5.536586462885313864 $488 5.536586462885313864 $339 $573 forward 7 unknown #
vertex $-1 $486 $574 #
straight-curve $-1 0 0 5.536586462885313864 0 0 -1 I I #
edge $-1 $484 -19.67884765312163609 $488 19.67884765312163609 $482 $575 forward 7 unknown #
straight-curve $-1 40.35401470992156447 0 0 -1 0 0 I I #
vertex $-1 $332 $576 #
straight-curve $-1 40.35401470992156447 39.35769530624327217 0 1 0 0 I I #
point $-1 80.70802941984312895 39.35769530624327217 0 #
point $-1 80.70802941984312895 0 0 #
straight-curve $-1 0 19.67884765312163609 11.07317292577062773 0 -1 0 I I #
point $-1 0 39.35769530624327217 11.07317292577062773 #
point $-1 0 0 11.07317292577062773 #
straight-curve $-1 80.70802941984312895 0 5.536586462885313864 0 0 -1 I I #
straight-curve $-1 80.70802941984312895 39.35769530624327217 5.536586462885313864 0 0 -1 I I #
plane-surface $-1 80.70802941984312895 -2.094050310449754981 2.223621597429985552 -1 0 0 0 0 1 forward_v I I I I #
coedge $-1 $354 $352 $356 $502 reversed $217 $-1 #
edge $-1 $367 -1.5 $504 1.5 $366 $577 forward 7 unknown #
vertex $-1 $502 $578 #
straight-curve $-1 0 -4.188100620899509963 2.223621597429985552 0 0 -1 I I #
edge $-1 $500 -2.094050310449754981 $504 2.094050310449754981 $498 $579 forward 7 unknown #
straight-curve $-1 40.35401470992156447 -4.188100620899509963 0.7236215974299855525 -1 0 0 I I #
vertex $-1 $359 $580 #
straight-curve $-1 40.35401470992156447 0 0.7236215974299855525 1 0 0 I I #
point $-1 80.70802941984312895 0 0.7236215974299855525 #
point $-1 80.70802941984312895 -4.188100620899509963 0.7236215974299855525 #
straight-curve $-1 0 -2.094050310449754981 3.723621597429985552 0 -1 0 I I #
point $-1 0 0 3.723621597429985552 #
point $-1 0 -4.188100620899509963 3.723621597429985552 #
straight-curve $-1 80.70802941984312895 -4.188100620899509963 2.223621597429985552 0 0 -1 I I #
straight-curve $-1 80.70802941984312895 0 2.223621597429985552 0 0 -1 I I #
plane-surface $-1 38.86049583252038531 12.98300496995868691 184.2585212716907108 -0.629320380830711068 0 -0.7771459697322561366 -0.7771459697322561366 0 0.629320380830711068 forward_v I I I I #
coedge $-1 $381 $379 $383 $518 reversed $236 $-1 #
edge $-1 $394 -80.70802941984314316 $520 80.70802941984315737 $393 $581 forward 7 unknown #
vertex $-1 $518 $582 #
straight-curve $-1 -164.3043354098472832 9.760325514158619598 -66.62915788296308506 0.7771459697322561366 0 -0.629320380830711068 I I #
edge $-1 $516 -3.222679455800067316 $520 3.222679455800067316 $514 $583 forward 7 unknown #
straight-curve $-1 1.421085471520200372e-14 9.760325514158619598 8.02347388377189219 -0.629320380830711068 0 -0.7771459697322561366 I I #
vertex $-1 $386 $584 #
straight-curve $-1 1.421085471520200372e-14 16.20568442575875423 8.02347388377189219 0.629320380830711068 0 0.7771459697322561366 I I #
point $-1 101.5824156211838414 16.20568442575875423 133.4673134610987972 #
point $-1 101.5824156211838414 9.760325514158619598 133.4673134610987972 #
straight-curve $-1 -227.0262551985107393 12.98300496995868691 -15.83795007237115726 0 -1 0 I I #
point $-1 -227.0262551985107393 16.20568442575875423 -15.83795007237115726 #
point $-1 -227.0262551985107393 9.760325514158619598 -15.83795007237115726 #
straight-curve $-1 38.86049583252038531 9.760325514158619598 184.2585212716907108 0.7771459697322561366 0 -0.629320380830711068 I I #
straight-curve $-1 38.86049583252038531 16.20568442575875423 184.2585212716907108 0.7771459697322561366 0 -0.629320380830711068 I I #
edge $-1 $585 1 $585 0 $403 $-1 forward 7 unknown #
point $-1 2.899509047322262223 11.60185663175865756 8.843647408106090069 #
edge $-1 $586 1 $586 0 $407 $-1 forward 7 unknown #
point $-1 2.899509047322262223 14.36415330815871627 8.843647408106090069 #
plane-surface $-1 38.86049583252038531 30.56279095718409167 184.2585212716907108 -0.629320380830711068 0 -0.7771459697322561366 -0.7771459697322561366 0 0.629320380830711068 forward_v I I I I #
coedge $-1 $416 $414 $418 $538 reversed $265 $-1 #
edge $-1 $429 -80.70802941984314316 $540 80.70802941984315737 $428 $587 forward 7 unknown #
vertex $-1 $538 $588 #
straight-curve $-1 -164.3043354098472832 27.34011150138402257 -66.62915788296308506 0.7771459697322561366 0 -0.629320380830711068 I I #
edge $-1 $536 -3.222679455800069093 $540 3.222679455800069093 $534 $589 forward 7 unknown #
straight-curve $-1 1.421085471520200372e-14 27.34011150138402257 8.02347388377189219 -0.629320380830711068 0 -0.7771459697322561366 I I #
vertex $-1 $421 $590 #
straight-curve $-1 1.421085471520200372e-14 33.78547041298416076 8.02347388377189219 0.629320380830711068 0 0.7771459697322561366 I I #
point $-1 101.5824156211838414 33.78547041298416076 133.4673134610987972 #
point $-1 101.5824156211838414 27.34011150138402257 133.4673134610987972 #
straight-curve $-1 -227.0262551985107393 30.56279095718409167 -15.83795007237115726 0 -1 0 I I #
point $-1 -227.0262551985107393 33.78547041298416076 -15.83795007237115726 #
point $-1 -227.0262551985107393 27.34011150138402257 -15.83795007237115726 #
straight-curve $-1 38.86049583252038531 27.34011150138402257 184.2585212716907108 0.7771459697322561366 0 -0.629320380830711068 I I #
straight-curve $-1 38.86049583252038531 33.78547041298416076 184.2585212716907108 0.7771459697322561366 0 -0.629320380830711068 I I #
edge $-1 $591 1 $591 0 $438 $-1 forward 7 unknown #
point $-1 2.899509047322262223 29.18164261898406409 8.843647408106090069 #
edge $-1 $592 1 $592 0 $442 $-1 forward 7 unknown #
point $-1 2.899509047322262223 31.9439392953841228 8.843647408106090069 #
plane-surface $-1 194.2211572959518548 25.21775202675432581 19.33650619332367171 -0.7771459551288114609 0 0.6293203988644634483 0.6293203988644634483 0 0.7771459551288114609 forward_v I I I I #
coedge $-1 $451 $449 $453 $558 reversed $294 $-1 #
edge $-1 $464 -80.70802941984311474 $560 80.70802941984314316 $463 $593 forward 7 unknown #
vertex $-1 $558 $594 #
straight-curve $-1 -56.66651714424097008 21.57387641139813894 222.501343257565793 -0.6293203988644634483 0 -0.7771459551288114609 I I #
edge $-1 $556 -3.64387561535618687 $560 3.64387561535618687 $554 $595 forward 7 unknown #
straight-curve $-1 17.98611080979491561 21.57387641139813894 58.19700611539651902 -0.7771459551288114609 0 0.6293203988644634483 I I #
vertex $-1 $456 $596 #
straight-curve $-1 17.98611080979491561 28.86162764211051268 58.19700611539651902 0.7771459551288114609 0 -0.6293203988644634483 I I #
point $-1 143.4299480298913352 28.86162764211051268 -43.38541241672453452 #
point $-1 143.4299480298913352 21.57387641139813894 -43.38541241672453452 #
straight-curve $-1 -5.875307878180450416 25.21775202675432581 285.223261867613985 0 -1 0 I I #
point $-1 -5.875307878180450416 28.86162764211051268 285.223261867613985 #
point $-1 -5.875307878180450416 21.57387641139813894 285.223261867613985 #
straight-curve $-1 194.2211572959518548 21.57387641139813894 19.33650619332367171 -0.6293203988644634483 0 -0.7771459551288114609 I I #
straight-curve $-1 194.2211572959518548 28.86162764211051268 19.33650619332367171 -0.6293203988644634483 0 -0.7771459551288114609 I I #
edge $-1 $597 1 $597 0 $473 $-1 forward 7 unknown #
point $-1 78.20286590073342836 23.65609104874452839 8.14767873299226153 #
edge $-1 $598 1 $598 0 $477 $-1 forward 7 unknown #
point $-1 78.20286590073342836 26.77941300476411612 8.14767873299226153 #
straight-curve $-1 0 39.35769530624327217 5.536586462885313864 0 0 -1 I I #
point $-1 0 0 0 #
straight-curve $-1 0 19.67884765312163609 0 0 1 0 I I #
point $-1 0 39.35769530624327217 0 #
straight-curve $-1 0 0 2.223621597429985552 0 0 -1 I I #
point $-1 0 -4.188100620899509963 0.7236215974299855525 #
straight-curve $-1 0 -2.094050310449754981 0.7236215974299855525 0 1 0 I I #
point $-1 0 0 0.7236215974299855525 #
straight-curve $-1 -164.3043354098472832 16.20568442575875423 -66.62915788296308506 0.7771459697322561366 0 -0.629320380830711068 I I #
point $-1 -101.582415621183813 9.760325514158619598 -117.4203656935550129 #
straight-curve $-1 -101.582415621183813 12.98300496995868691 -117.4203656935550129 0 1 0 I I #
point $-1 -101.582415621183813 16.20568442575875423 -117.4203656935550129 #
vertex $-1 $529 $599 #
vertex $-1 $531 $600 #
straight-curve $-1 -164.3043354098472832 33.78547041298416076 -66.62915788296308506 0.7771459697322561366 0 -0.629320380830711068 I I #
point $-1 -101.582415621183813 27.34011150138402257 -117.4203656935550129 #
straight-curve $-1 -101.582415621183813 30.56279095718409167 -117.4203656935550129 0 1 0 I I #
point $-1 -101.582415621183813 33.78547041298416076 -117.4203656935550129 #
vertex $-1 $549 $601 #
vertex $-1 $551 $602 #
straight-curve $-1 -56.66651714424097008 28.86162764211051268 222.501343257565793 -0.6293203988644634483 0 -0.7771459551288114609 I I #
point $-1 -107.4577264103014898 21.57387641139813894 159.7794246475175726 #
straight-curve $-1 -107.4577264103014898 25.21775202675432581 159.7794246475175726 0 1 0 I I #
point $-1 -107.4577264103014898 28.86162764211051268 159.7794246475175726 #
vertex $-1 $569 $603 #
vertex $-1 $571 $604 #
point $-1 2.973421841773034924 11.60185663175865756 8.140414232824605634 #
point $-1 2.973421841773034924 14.36415330815871627 8.140414232824605634 #
point $-1 2.973421841773034924 29.18164261898406409 8.140414232824605634 #
point $-1 2.973421841773034924 31.9439392953841228 8.140414232824605634 #
point $-1 77.4996327237367808 23.65609104874452839 8.073765954860087746 #
point $-1 77.4996327237367808 26.77941300476411612 8.073765954860087746 #
End-of-ACIS-data 