600 0 9 0           
96 GICL ACIS Healer - Source: /gicl/data5/repository/Drexel/SM99-DATA/part100.smdg.deltas.sat - 6 0 18 ACIS 6.0.3 Solaris 24 Sat Apr 13 20:42:53 2002 
1 9.999999999999999547e-07 1.000000000000000036e-10 
body $-1 $9 $-1 $-1 #
body $-1 $10 $-1 $-1 #
body $-1 $11 $-1 $-1 #
body $-1 $12 $-1 $-1 #
body $-1 $13 $-1 $-1 #
body $-1 $14 $-1 $-1 #
body $-1 $15 $-1 $-1 #
body $-1 $16 $-1 $-1 #
body $-1 $17 $-1 $-1 #
lump $-1 $-1 $18 $0 #
lump $-1 $-1 $19 $1 #
lump $-1 $-1 $20 $2 #
lump $-1 $-1 $21 $3 #
lump $-1 $-1 $22 $4 #
lump $-1 $-1 $23 $5 #
lump $-1 $-1 $24 $6 #
lump $-1 $-1 $25 $7 #
lump $-1 $-1 $26 $8 #
shell $-1 $-1 $-1 $27 $-1 $9 #
shell $-1 $-1 $-1 $28 $-1 $10 #
shell $-1 $-1 $-1 $29 $-1 $11 #
shell $-1 $-1 $-1 $30 $-1 $12 #
shell $-1 $-1 $-1 $31 $-1 $13 #
shell $-1 $-1 $-1 $32 $-1 $14 #
shell $-1 $-1 $-1 $33 $-1 $15 #
shell $-1 $-1 $-1 $34 $-1 $16 #
shell $-1 $-1 $-1 $35 $-1 $17 #
face $-1 $36 $37 $18 $-1 $38 reversed single #
face $-1 $39 $40 $19 $-1 $41 reversed single #
face $-1 $42 $43 $20 $-1 $44 forward single #
face $-1 $45 $46 $21 $-1 $47 reversed single #
face $-1 $48 $49 $22 $-1 $50 forward single #
face $-1 $51 $52 $23 $-1 $53 forward single #
face $-1 $54 $55 $24 $-1 $56 reversed single #
face $-1 $57 $58 $25 $-1 $59 forward single #
face $-1 $60 $61 $26 $-1 $62 forward single #
face $-1 $63 $64 $18 $-1 $65 forward single #
loop $-1 $-1 $66 $27 #
plane-surface $-1 100.657368694112975 29.85546030252326588 8.941786441142088648 -1 0 0 0 0 1 forward_v I I I I #
face $-1 $67 $68 $19 $-1 $69 reversed single #
loop $-1 $-1 $70 $28 #
plane-surface $-1 3.100008503325263121 13.72412901213506586 8.941786441142088648 0 1 0 0 0 1 forward_v I I I I #
face $-1 $71 $72 $20 $-1 $73 reversed single #
loop $-1 $-1 $74 $29 #
plane-surface $-1 100.657368694112975 29.85546030252326588 8.941786441142088648 -1 0 0 0 0 1 forward_v I I I I #
face $-1 $75 $76 $21 $-1 $77 reversed single #
loop $-1 $-1 $78 $30 #
plane-surface $-1 69.58997919296288615 58.32843172998723702 126.2109852989456016 1 0 0 0 -0.5000000066987363434 -0.8660253999169214012 forward_v I I I I #
face $-1 $79 $80 $22 $-1 $81 forward single #
loop $-1 $82 $83 $31 #
cone-surface $-1 76.20191163054740002 50.65452569281789863 10.89732283862980644 0 -0.5000000066987363434 -0.8660253999169214012 2.5 0 0 1 I I 0 1 2.5 forward I I I I #
face $-1 $84 $85 $23 $-1 $86 forward single #
loop $-1 $87 $88 $32 #
cone-surface $-1 86.11981028692419216 50.65452569281789863 10.89732283862980644 0 -0.5000000066987363434 -0.8660253999169214012 2.5 0 0 1 I I 0 1 2.5 forward I I I I #
face $-1 $89 $90 $24 $-1 $91 reversed single #
loop $-1 $-1 $92 $33 #
plane-surface $-1 92.73174272450873445 -56.28688698732921125 97.71595714151506229 -1 0 0 0 -0.5591929107383988296 0.8290375676529484483 forward_v I I I I #
face $-1 $93 $94 $25 $-1 $95 forward single #
loop $-1 $96 $97 $34 #
cone-surface $-1 76.50221050995750716 3.359361415661879846 15.06928840542562043 0 0.5591929107383988296 -0.8290375676529484483 1 0 0 1 I I 0 1 1 forward I I I I #
face $-1 $98 $99 $26 $-1 $100 forward single #
loop $-1 $101 $102 $35 #
cone-surface $-1 86.23992983868824069 3.359361415661879846 15.06928840542562043 0 0.5591929107383988296 -0.8290375676529484483 1 0 0 1 I I 0 1 1 forward I I I I #
face $-1 $103 $104 $18 $-1 $105 reversed single #
loop $-1 $-1 $106 $36 #
plane-surface $-1 50.32868434705648752 29.85546030252326588 17.8835728822841773 0 0 1 1 0 0 forward_v I I I I #
coedge $-1 $107 $108 $109 $110 reversed $37 $-1 #
face $-1 $111 $112 $19 $-1 $113 reversed single #
loop $-1 $-1 $114 $39 #
plane-surface $-1 3.100008503325263121 17.8835728822841773 8.941786441142088648 0 -1 0 0 0 -1 forward_v I I I I #
coedge $-1 $115 $116 $117 $118 reversed $40 $-1 #
face $-1 $119 $120 $20 $-1 $121 forward single #
loop $-1 $-1 $122 $42 #
plane-surface $-1 50.32868434705648752 0 8.941786441142088648 0 1 0 0 0 1 forward_v I I I I #
coedge $-1 $123 $124 $125 $126 forward $43 $-1 #
face $-1 $127 $128 $21 $-1 $129 reversed single #
loop $-1 $-1 $130 $45 #
plane-surface $-1 81.1608609587358103 7.999746708653574956 39.03914732104141194 0 0.5000000066987363434 0.8660253999169214012 1 0 0 forward_v I I I I #
coedge $-1 $131 $132 $133 $134 reversed $46 $-1 #
face $-1 $-1 $135 $22 $-1 $136 forward single #
loop $-1 $137 $138 $48 #
cone-surface $-1 76.20191163054740002 48.50745315207404218 7.178484176956160923 0 -0.5000000066987363434 -0.8660253999169214012 1.25 0 0 1 I I -0.7071067811865474617 0.7071067811865476838 1.25 forward I I I I #
loop $-1 $-1 $139 $31 #
coedge $-1 $83 $83 $140 $141 reversed $49 $-1 #
face $-1 $-1 $142 $23 $-1 $143 forward single #
loop $-1 $144 $145 $51 #
cone-surface $-1 86.11981028692419216 48.50745315207404218 7.178484176956160923 0 -0.5000000066987363434 -0.8660253999169214012 1.25 0 0 1 I I -0.7071067811865474617 0.7071067811865476838 1.25 forward I I I I #
loop $-1 $-1 $146 $32 #
coedge $-1 $88 $88 $147 $148 reversed $52 $-1 #
face $-1 $149 $150 $24 $-1 $151 reversed single #
loop $-1 $-1 $152 $54 #
plane-surface $-1 81.37107017432288103 3.552713678800500929e-15 14.26721703300160371 0 -0.5591929107383988296 0.8290375676529484483 1 0 0 forward_v I I I I #
coedge $-1 $153 $154 $155 $156 reversed $55 $-1 #
face $-1 $-1 $157 $25 $-1 $158 forward single #
loop $-1 $159 $160 $57 #
cone-surface $-1 76.50221050995750716 4.317585322185220065 13.64866306938187535 0 0.5591929107383988296 -0.8290375676529484483 0.5 0 0 1 I I -0.7071067811865474617 0.7071067811865474617 0.5 forward I I I I #
loop $-1 $-1 $161 $34 #
coedge $-1 $97 $97 $162 $163 reversed $58 $-1 #
face $-1 $-1 $164 $26 $-1 $165 forward single #
loop $-1 $166 $167 $60 #
cone-surface $-1 86.23992983868824069 4.317585322185220065 13.64866306938187535 0 0.5591929107383988296 -0.8290375676529484483 0.5 0 0 1 I I -0.7071067811865474617 0.7071067811865474617 0.5 forward I I I I #
loop $-1 $-1 $168 $35 #
coedge $-1 $102 $102 $169 $170 reversed $61 $-1 #
face $-1 $171 $172 $18 $-1 $173 reversed single #
loop $-1 $-1 $174 $63 #
plane-surface $-1 50.32868434705648752 29.85546030252326588 0 0 0 1 1 0 0 forward_v I I I I #
coedge $-1 $175 $176 $107 $177 forward $64 $-1 #
coedge $-1 $178 $66 $106 $177 reversed $37 $-1 #
coedge $-1 $66 $178 $174 $179 reversed $37 $-1 #
coedge $-1 $180 $181 $66 $110 forward $182 $-1 #
edge $-1 $183 -8.941786441142088648 $184 8.941786441142088648 $66 $185 forward 7 unknown #
face $-1 $186 $187 $19 $-1 $188 reversed single #
loop $-1 $-1 $189 $67 #
plane-surface $-1 6.200017006650526241 15.80385094720962158 8.941786441142088648 -1 0 0 0 0 1 forward_v I I I I #
coedge $-1 $190 $191 $192 $193 forward $68 $-1 #
coedge $-1 $194 $70 $195 $196 reversed $40 $-1 #
coedge $-1 $70 $194 $197 $198 reversed $40 $-1 #
coedge $-1 $199 $200 $70 $118 forward $201 $-1 #
edge $-1 $202 -8.941786441142088648 $203 8.941786441142088648 $117 $204 forward 7 unknown #
face $-1 $205 $206 $20 $-1 $207 reversed single #
loop $-1 $-1 $208 $71 #
plane-surface $-1 104.6201816789150882 29.85546030252326588 4.827799227219810696 0 0 1 1 0 0 forward_v I I I I #
coedge $-1 $209 $210 $124 $211 forward $72 $-1 #
coedge $-1 $212 $74 $213 $214 reversed $43 $-1 #
coedge $-1 $74 $212 $122 $211 reversed $43 $-1 #
coedge $-1 $215 $216 $74 $126 reversed $120 $-1 #
edge $-1 $217 -29.85546030252326588 $218 29.85546030252326588 $125 $219 forward 7 unknown #
face $-1 $220 $221 $21 $-1 $222 reversed single #
loop $-1 $-1 $223 $75 #
plane-surface $-1 92.73174272450873445 58.32843172998723702 126.2109852989456016 -1 0 0 0 0.5000000066987363434 0.8660253999169214012 forward_v I I I I #
coedge $-1 $224 $225 $226 $227 reversed $76 $-1 #
coedge $-1 $132 $78 $228 $229 reversed $46 $-1 #
coedge $-1 $78 $131 $224 $230 reversed $46 $-1 #
coedge $-1 $226 $231 $78 $134 forward $232 $-1 #
edge $-1 $233 -15.61897458879128209 $234 -0.5503298290749185639 $133 $235 forward 7 unknown #
loop $-1 $-1 $140 $79 #
plane-surface $-1 81.1608609587358103 7.999746708653574956 39.03914732104141194 0 0.5000000066987363434 0.8660253999169214012 1 0 0 forward_v I I I I #
loop $-1 $-1 $236 $48 #
coedge $-1 $138 $138 $139 $237 reversed $80 $-1 #
coedge $-1 $139 $139 $138 $237 forward $82 $-1 #
coedge $-1 $140 $140 $83 $141 forward $135 $-1 #
edge $-1 $238 1.421085490559154083e-15 $238 6.283185307179588008 $140 $239 forward 7 unknown #
loop $-1 $-1 $147 $84 #
plane-surface $-1 81.1608609587358103 7.999746708653574956 39.03914732104141194 0 0.5000000066987363434 0.8660253999169214012 1 0 0 forward_v I I I I #
loop $-1 $-1 $240 $51 #
coedge $-1 $145 $145 $146 $241 reversed $85 $-1 #
coedge $-1 $146 $146 $145 $241 forward $87 $-1 #
coedge $-1 $147 $147 $88 $148 forward $142 $-1 #
edge $-1 $242 1.421085490559154083e-15 $242 6.283185307179588008 $147 $243 forward 7 unknown #
face $-1 $244 $245 $24 $-1 $246 forward single #
loop $-1 $-1 $247 $89 #
plane-surface $-1 70.01039762413702761 -56.28688698732921125 97.71595714151506229 1 0 0 0 0.5591929107383988296 -0.8290375676529484483 forward_v I I I I #
coedge $-1 $248 $249 $250 $251 reversed $90 $-1 #
coedge $-1 $154 $92 $252 $253 reversed $55 $-1 #
coedge $-1 $92 $153 $248 $254 reversed $55 $-1 #
coedge $-1 $250 $255 $92 $156 forward $245 $-1 #
edge $-1 $256 13.21571334240297446 $257 18.57718127141844988 $155 $258 forward 7 unknown #
loop $-1 $-1 $162 $93 #
plane-surface $-1 81.37107017432288103 3.552713678800500929e-15 14.26721703300160371 0 -0.5591929107383988296 0.8290375676529484483 1 0 0 forward_v I I I I #
loop $-1 $-1 $259 $57 #
coedge $-1 $160 $160 $161 $260 reversed $94 $-1 #
coedge $-1 $161 $161 $160 $260 forward $96 $-1 #
coedge $-1 $162 $162 $97 $163 forward $157 $-1 #
edge $-1 $261 -9.586808037715486065e-16 $261 6.283185307179585344 $162 $262 forward 7 unknown #
loop $-1 $-1 $169 $98 #
plane-surface $-1 81.37107017432288103 3.552713678800500929e-15 14.26721703300160371 0 -0.5591929107383988296 0.8290375676529484483 1 0 0 forward_v I I I I #
loop $-1 $-1 $263 $60 #
coedge $-1 $167 $167 $168 $264 reversed $99 $-1 #
coedge $-1 $168 $168 $167 $264 forward $101 $-1 #
coedge $-1 $169 $169 $102 $170 forward $164 $-1 #
edge $-1 $265 -9.586808037715486065e-16 $265 6.283185307179585344 $169 $266 forward 7 unknown #
face $-1 $267 $268 $18 $-1 $269 reversed single #
loop $-1 $-1 $270 $103 #
plane-surface $-1 50.32868434705648752 0 8.941786441142088648 0 1 0 0 0 1 forward_v I I I I #
coedge $-1 $271 $272 $108 $179 forward $104 $-1 #
coedge $-1 $273 $106 $181 $274 forward $64 $-1 #
coedge $-1 $106 $273 $275 $276 forward $64 $-1 #
edge $-1 $277 -29.85546030252326588 $183 29.85546030252326588 $107 $278 forward 7 unknown #
coedge $-1 $108 $107 $279 $280 forward $37 $-1 #
edge $-1 $184 -29.85546030252326588 $281 29.85546030252326588 $108 $282 forward 7 unknown #
coedge $-1 $283 $109 $272 $284 reversed $182 $-1 #
coedge $-1 $109 $283 $175 $274 reversed $182 $-1 #
loop $-1 $-1 $109 $267 #
vertex $-1 $177 $285 #
vertex $-1 $179 $286 #
straight-curve $-1 100.657368694112975 59.71092060504653176 8.941786441142088648 0 0 -1 I I #
face $-1 $287 $288 $19 $-1 $289 forward single #
loop $-1 $-1 $290 $111 #
plane-surface $-1 50.32868434705648752 29.85546030252326588 0 0 0 1 1 0 0 forward_v I I I I #
coedge $-1 $291 $292 $194 $293 forward $112 $-1 #
coedge $-1 $294 $114 $290 $295 reversed $68 $-1 #
coedge $-1 $114 $294 $296 $297 reversed $68 $-1 #
coedge $-1 $292 $291 $114 $193 reversed $112 $-1 #
edge $-1 $298 -8.941786441142088648 $299 8.941786441142088648 $192 $300 forward 7 unknown #
coedge $-1 $116 $115 $189 $293 reversed $40 $-1 #
coedge $-1 $301 $302 $115 $196 forward $187 $-1 #
edge $-1 $303 20.51432941854034908 $202 26.71434642519087532 $195 $304 forward 7 unknown #
coedge $-1 $305 $306 $116 $198 forward $288 $-1 #
edge $-1 $203 -26.71434642519087532 $307 -20.51432941854034908 $197 $308 forward 7 unknown #
coedge $-1 $309 $117 $306 $310 reversed $201 $-1 #
coedge $-1 $117 $309 $301 $311 reversed $201 $-1 #
loop $-1 $-1 $309 $287 #
vertex $-1 $311 $312 #
vertex $-1 $118 $313 #
straight-curve $-1 0 13.72412901213506586 8.941786441142088648 0 0 1 I I #
face $-1 $314 $315 $20 $-1 $316 reversed single #
loop $-1 $-1 $317 $119 #
plane-surface $-1 104.6201816789150882 29.85546030252326588 1.827799227219810696 0 0 1 1 0 0 forward_v I I I I #
coedge $-1 $216 $215 $318 $319 forward $120 $-1 #
coedge $-1 $320 $122 $321 $322 reversed $72 $-1 #
coedge $-1 $122 $320 $215 $323 reversed $72 $-1 #
edge $-1 $217 4.113987213922277952 $324 7.113987213922277952 $122 $325 forward 7 unknown #
coedge $-1 $124 $123 $326 $327 forward $43 $-1 #
coedge $-1 $328 $329 $123 $214 forward $330 $-1 #
edge $-1 $331 -7.113987213922277952 $218 -4.113987213922277952 $213 $332 forward 7 unknown #
coedge $-1 $208 $125 $210 $323 forward $120 $-1 #
coedge $-1 $125 $208 $328 $333 forward $120 $-1 #
vertex $-1 $211 $334 #
vertex $-1 $333 $335 #
straight-curve $-1 100.657368694112975 29.85546030252326588 4.827799227219810696 0 1 0 I I #
face $-1 $-1 $232 $21 $-1 $336 forward single #
loop $-1 $-1 $337 $127 #
plane-surface $-1 50.32868434705648752 59.71092060504653176 8.941786441142088648 0 -1 0 0 0 -1 forward_v I I I I #
coedge $-1 $338 $339 $340 $341 reversed $128 $-1 #
coedge $-1 $342 $130 $132 $230 forward $76 $-1 #
coedge $-1 $130 $342 $338 $343 forward $76 $-1 #
coedge $-1 $340 $133 $130 $227 forward $232 $-1 #
edge $-1 $234 3.845206540066740786 $344 26.98697007161258909 $226 $345 forward 7 unknown #
coedge $-1 $346 $347 $131 $229 forward $221 $-1 #
edge $-1 $348 -58.39269925151340601 $233 -49.69281298775967315 $228 $349 forward 7 unknown #
edge $-1 $234 42.31114831065202253 $348 59.71092060504652466 $132 $350 forward 7 unknown #
coedge $-1 $133 $340 $346 $351 forward $232 $-1 #
loop $-1 $-1 $340 $220 #
vertex $-1 $229 $352 #
vertex $-1 $134 $353 #
straight-curve $-1 69.58997919296288615 44.09194601625524967 17.88357288228418085 0 -1 0 I I #
coedge $-1 $236 $236 $-1 $354 reversed $137 $-1 #
edge $-1 $355 0 $355 6.283185307179586232 $138 $356 forward 7 unknown #
vertex $-1 $141 $357 #
ellipse-curve $-1 76.20191163054740002 52.17659822518834289 13.53362975040730731 0 0.5000000066987363434 0.8660253999169214012 2.5 0 0 1 I I #
coedge $-1 $240 $240 $-1 $358 reversed $144 $-1 #
edge $-1 $359 0 $359 6.283185307179586232 $145 $360 forward 7 unknown #
vertex $-1 $148 $361 #
ellipse-curve $-1 86.11981028692419216 52.17659822518834289 13.53362975040730731 0 0.5000000066987363434 0.8660253999169214012 2.5 0 0 1 I I #
face $-1 $-1 $362 $24 $-1 $363 reversed single #
loop $-1 $-1 $155 $149 #
plane-surface $-1 50.32868434705648752 29.85546030252326588 17.8835728822841773 0 0 1 1 0 0 forward_v I I I I #
coedge $-1 $364 $365 $366 $367 reversed $150 $-1 #
coedge $-1 $368 $152 $154 $254 forward $90 $-1 #
coedge $-1 $152 $368 $364 $369 forward $90 $-1 #
coedge $-1 $366 $155 $152 $251 forward $245 $-1 #
edge $-1 $257 -26.88186546381905373 $370 -4.160520363447346881 $250 $371 forward 7 unknown #
coedge $-1 $372 $373 $153 $253 forward $362 $-1 #
edge $-1 $374 -39.06165475832698064 $256 -35.4452989090444035 $252 $375 forward 7 unknown #
edge $-1 $257 -6.467098884546434334 $374 4.931985409908702699e-15 $154 $376 forward 7 unknown #
coedge $-1 $155 $366 $372 $377 forward $245 $-1 #
vertex $-1 $156 $378 #
vertex $-1 $156 $379 #
straight-curve $-1 92.73174272450873445 -13.21571334240297446 17.88357288228418085 0 1 0 I I #
coedge $-1 $259 $259 $-1 $380 reversed $159 $-1 #
edge $-1 $381 0 $381 6.283185307179586232 $160 $382 forward 7 unknown #
vertex $-1 $163 $383 #
ellipse-curve $-1 76.50221050995750716 2.68073396450773771 16.07539495764288873 0 -0.5591929107383988296 0.8290375676529484483 1 0 0 1 I I #
coedge $-1 $263 $263 $-1 $384 reversed $166 $-1 #
edge $-1 $385 0 $385 6.283185307179586232 $167 $386 forward 7 unknown #
vertex $-1 $170 $387 #
ellipse-curve $-1 86.23992983868824069 2.68073396450773771 16.07539495764288873 0 -0.5591929107383988296 0.8290375676529484483 1 0 0 1 I I #
face $-1 $-1 $182 $18 $-1 $388 reversed single #
loop $-1 $-1 $389 $171 #
plane-surface $-1 0 29.85546030252326588 8.941786441142088648 1 0 0 0 0 -1 forward_v I I I I #
coedge $-1 $390 $275 $391 $392 forward $172 $-1 #
coedge $-1 $393 $174 $390 $394 forward $104 $-1 #
coedge $-1 $174 $393 $180 $284 forward $104 $-1 #
coedge $-1 $176 $175 $395 $396 forward $64 $-1 #
edge $-1 $183 -50.32868434705648752 $397 50.32868434705648752 $181 $398 forward 7 unknown #
coedge $-1 $270 $279 $176 $276 reversed $172 $-1 #
edge $-1 $399 -50.32868434705648752 $277 50.32868434705648752 $275 $400 forward 7 unknown #
vertex $-1 $177 $401 #
straight-curve $-1 100.657368694112975 29.85546030252326588 17.8835728822841773 0 1 0 I I #
coedge $-1 $275 $390 $178 $280 reversed $172 $-1 #
edge $-1 $277 -8.941786441142088648 $281 8.941786441142088648 $178 $402 forward 7 unknown #
vertex $-1 $280 $403 #
straight-curve $-1 100.657368694112975 29.85546030252326588 0 0 -1 0 I I #
coedge $-1 $181 $180 $389 $404 reversed $182 $-1 #
edge $-1 $405 -50.32868434705648752 $184 50.32868434705648752 $180 $406 forward 7 unknown #
point $-1 100.657368694112975 59.71092060504653176 17.8835728822841773 #
point $-1 100.657368694112975 59.71092060504653176 0 #
face $-1 $-1 $201 $19 $-1 $407 reversed single #
loop $-1 $-1 $296 $186 #
plane-surface $-1 50.32868434705648752 29.85546030252326588 17.8835728822841773 0 0 1 1 0 0 forward_v I I I I #
coedge $-1 $302 $301 $190 $295 forward $187 $-1 #
coedge $-1 $192 $189 $302 $408 reversed $112 $-1 #
coedge $-1 $189 $192 $305 $409 reversed $112 $-1 #
edge $-1 $307 -8.941786441142088648 $303 8.941786441142088648 $189 $410 forward 7 unknown #
coedge $-1 $191 $190 $309 $411 reversed $68 $-1 #
edge $-1 $412 -26.71434642519087532 $299 -20.51432941854034908 $290 $413 forward 7 unknown #
coedge $-1 $306 $305 $191 $297 forward $288 $-1 #
edge $-1 $298 20.51432941854034908 $414 26.71434642519087532 $296 $415 forward 7 unknown #
vertex $-1 $297 $416 #
vertex $-1 $295 $417 #
straight-curve $-1 6.200017006650526241 17.8835728822841773 8.941786441142088648 0 0 -1 I I #
coedge $-1 $290 $195 $200 $311 forward $187 $-1 #
coedge $-1 $195 $290 $291 $408 forward $187 $-1 #
vertex $-1 $196 $418 #
straight-curve $-1 26.71434642519087532 13.72412901213506586 0 -1 0 0 I I #
coedge $-1 $296 $197 $292 $409 forward $288 $-1 #
coedge $-1 $197 $296 $199 $310 forward $288 $-1 #
vertex $-1 $198 $419 #
straight-curve $-1 26.71434642519087532 13.72412901213506586 17.8835728822841773 1 0 0 I I #
coedge $-1 $200 $199 $294 $411 forward $201 $-1 #
edge $-1 $414 11.97188742023908858 $203 16.13133129038820002 $199 $420 forward 7 unknown #
edge $-1 $202 -16.13133129038820002 $412 -11.97188742023908858 $200 $421 forward 7 unknown #
point $-1 0 13.72412901213506586 0 #
point $-1 0 13.72412901213506586 17.8835728822841773 #
face $-1 $-1 $330 $20 $-1 $422 reversed single #
loop $-1 $-1 $423 $205 #
plane-surface $-1 108.5829946637172156 29.85546030252326588 3.327799227219810696 -1 0 0 0 0 1 forward_v I I I I #
coedge $-1 $321 $424 $425 $426 forward $206 $-1 #
coedge $-1 $423 $427 $208 $319 reversed $315 $-1 #
edge $-1 $428 -29.85546030252326588 $429 29.85546030252326588 $318 $430 forward 7 unknown #
coedge $-1 $210 $209 $423 $431 reversed $72 $-1 #
coedge $-1 $326 $317 $209 $322 forward $206 $-1 #
edge $-1 $432 -3.962812984802127403 $324 3.962812984802127403 $209 $433 forward 7 unknown #
edge $-1 $217 -3.962812984802127403 $428 3.962812984802127403 $210 $434 forward 7 unknown #
vertex $-1 $211 $435 #
straight-curve $-1 100.657368694112975 0 8.941786441142088648 0 0 -1 I I #
coedge $-1 $424 $321 $212 $327 reversed $206 $-1 #
edge $-1 $331 -29.85546030252326588 $324 29.85546030252326588 $326 $436 forward 7 unknown #
coedge $-1 $437 $213 $216 $333 reversed $330 $-1 #
coedge $-1 $213 $437 $424 $438 reversed $330 $-1 #
loop $-1 $-1 $213 $314 #
vertex $-1 $214 $439 #
straight-curve $-1 100.657368694112975 59.71092060504653176 8.941786441142088648 0 0 1 I I #
edge $-1 $429 -3.962812984802127403 $218 3.962812984802127403 $328 $440 forward 7 unknown #
point $-1 100.6573686941129608 0 4.827799227219810696 #
point $-1 100.6573686941129608 59.71092060504653176 4.827799227219810696 #
plane-surface $-1 50.32868434705648752 29.85546030252326588 17.8835728822841773 0 0 1 1 0 0 forward_v I I I I #
coedge $-1 $347 $346 $339 $441 forward $221 $-1 #
coedge $-1 $339 $223 $225 $343 reversed $128 $-1 #
coedge $-1 $223 $338 $337 $441 reversed $128 $-1 #
coedge $-1 $231 $226 $223 $341 forward $232 $-1 #
edge $-1 $344 0.5503298290749185639 $442 15.61897458879128209 $340 $443 forward 7 unknown #
coedge $-1 $225 $224 $347 $444 reversed $76 $-1 #
edge $-1 $445 -59.71092060504652466 $344 -42.31114831065202253 $338 $446 forward 7 unknown #
vertex $-1 $227 $447 #
straight-curve $-1 65.74477265289614536 44.64227584533016113 17.8835728822841773 1 0 0 I I #
coedge $-1 $337 $228 $231 $351 reversed $221 $-1 #
coedge $-1 $228 $337 $342 $444 forward $221 $-1 #
vertex $-1 $229 $448 #
straight-curve $-1 69.58997919296288615 59.71092060504653176 67.57638587004385045 0 0 1 I I #
straight-curve $-1 69.58997919296288615 7.999746708653574956 39.03914732104141194 0 0.8660253999169214012 -0.5000000066987363434 I I #
edge $-1 $442 -42.40305837745224693 $233 -19.26129484590639862 $346 $449 forward 7 unknown #
point $-1 69.58997919296288615 59.71092060504653176 17.8835728822841773 #
point $-1 69.58997919296288615 44.64227584533016824 17.8835728822841773 #
edge $-1 $450 1 $450 0 $236 $-1 forward 7 unknown #
vertex $-1 $237 $451 #
ellipse-curve $-1 76.20191163054740002 49.13245316044746147 8.261015926852312674 0 0.5000000066987363434 0.8660253999169214012 2.5 0 0 1 I I #
point $-1 78.70191163054740002 52.17659822518834289 13.53362975040730021 #
edge $-1 $452 1 $452 0 $240 $-1 forward 7 unknown #
vertex $-1 $241 $453 #
ellipse-curve $-1 86.11981028692419216 49.13245316044746147 8.261015926852312674 0 0.5000000066987363434 0.8660253999169214012 2.5 0 0 1 I I #
point $-1 88.61981028692419216 52.17659822518834289 13.53362975040730021 #
loop $-1 $-1 $252 $244 #
plane-surface $-1 50.32868434705648752 0 8.941786441142088648 0 1 0 0 0 1 forward_v I I I I #
coedge $-1 $365 $247 $249 $369 reversed $150 $-1 #
coedge $-1 $247 $364 $454 $455 reversed $150 $-1 #
coedge $-1 $255 $250 $247 $367 forward $245 $-1 #
edge $-1 $370 -18.57718127141844988 $456 -13.21571334240297446 $366 $457 forward 7 unknown #
coedge $-1 $249 $248 $373 $458 reversed $90 $-1 #
edge $-1 $459 -4.931985409908702699e-15 $370 6.467098884546434334 $364 $460 forward 7 unknown #
vertex $-1 $251 $461 #
straight-curve $-1 65.84987726068968072 5.361467929015478973 17.8835728822841773 -1 0 0 I I #
coedge $-1 $454 $252 $255 $377 reversed $362 $-1 #
coedge $-1 $252 $454 $368 $458 forward $362 $-1 #
vertex $-1 $253 $462 #
straight-curve $-1 92.73174272450873445 0 53.3288717913285808 0 0 1 I I #
straight-curve $-1 92.73174272450873445 3.552713678800500929e-15 14.26721703300160371 0 -0.8290375676529484483 -0.5591929107383988296 I I #
edge $-1 $456 19.68171327708054008 $256 42.40305837745224693 $372 $463 forward 7 unknown #
point $-1 92.73174272450873445 0 17.8835728822841773 #
point $-1 92.73174272450873445 5.36146792901547542 17.8835728822841773 #
edge $-1 $464 1 $464 0 $259 $-1 forward 7 unknown #
vertex $-1 $260 $465 #
ellipse-curve $-1 76.50221050995750716 4.037988866816021982 14.06318185320834857 0 -0.5591929107383988296 0.8290375676529484483 1 0 0 1 I I #
point $-1 77.50221050995750716 2.680733964507734157 16.07539495764289228 #
edge $-1 $466 1 $466 0 $263 $-1 forward 7 unknown #
vertex $-1 $264 $467 #
ellipse-curve $-1 86.23992983868824069 4.037988866816021982 14.06318185320834857 0 -0.5591929107383988296 0.8290375676529484483 1 0 0 1 I I #
point $-1 87.23992983868824069 2.680733964507734157 16.07539495764289228 #
plane-surface $-1 50.32868434705648752 59.71092060504653176 8.941786441142088648 0 -1 0 0 0 -1 forward_v I I I I #
coedge $-1 $468 $395 $283 $404 forward $268 $-1 #
coedge $-1 $279 $270 $271 $394 reversed $172 $-1 #
coedge $-1 $395 $468 $270 $392 reversed $268 $-1 #
edge $-1 $399 -8.941786441142088648 $469 8.941786441142088648 $391 $470 forward 7 unknown #
coedge $-1 $272 $271 $468 $471 forward $104 $-1 #
edge $-1 $281 -50.32868434705648752 $469 50.32868434705648752 $390 $472 forward 7 unknown #
coedge $-1 $389 $391 $273 $396 reversed $268 $-1 #
edge $-1 $397 -29.85546030252326588 $399 29.85546030252326588 $395 $473 forward 7 unknown #
vertex $-1 $274 $474 #
straight-curve $-1 50.32868434705648752 59.71092060504653176 17.8835728822841773 -1 0 0 I I #
vertex $-1 $396 $475 #
straight-curve $-1 50.32868434705648752 0 17.8835728822841773 1 0 0 I I #
point $-1 100.657368694112975 0 17.8835728822841773 #
straight-curve $-1 100.657368694112975 0 8.941786441142088648 0 0 -1 I I #
point $-1 100.657368694112975 0 0 #
edge $-1 $397 -8.941786441142088648 $405 8.941786441142088648 $283 $476 forward 7 unknown #
vertex $-1 $284 $477 #
straight-curve $-1 50.32868434705648752 59.71092060504653176 0 1 0 0 I I #
plane-surface $-1 0 29.85546030252326588 8.941786441142088648 1 0 0 0 0 -1 forward_v I I I I #
edge $-1 $299 4.946082742582266434 $303 9.105526612731377867 $302 $478 forward 7 unknown #
edge $-1 $307 -9.105526612731377867 $298 -4.946082742582266434 $305 $479 forward 7 unknown #
straight-curve $-1 6.200017006650526241 13.72412901213506586 8.941786441142088648 0 0 -1 I I #
edge $-1 $414 -8.941786441142088648 $412 8.941786441142088648 $309 $480 forward 7 unknown #
vertex $-1 $411 $481 #
straight-curve $-1 26.71434642519087532 17.8835728822841773 0 1 0 0 I I #
vertex $-1 $310 $482 #
straight-curve $-1 26.71434642519087532 17.8835728822841773 17.8835728822841773 -1 0 0 I I #
point $-1 6.200017006650526241 17.8835728822841773 17.8835728822841773 #
point $-1 6.200017006650526241 17.8835728822841773 0 #
point $-1 6.200017006650526241 13.72412901213506586 0 #
point $-1 6.200017006650526241 13.72412901213506586 17.8835728822841773 #
straight-curve $-1 0 29.85546030252326588 17.8835728822841773 0 -1 0 I I #
straight-curve $-1 0 29.85546030252326588 0 0 1 0 I I #
plane-surface $-1 50.32868434705648752 59.71092060504653176 8.941786441142088648 0 -1 0 0 0 -1 forward_v I I I I #
coedge $-1 $425 $318 $320 $431 forward $315 $-1 #
coedge $-1 $317 $326 $329 $438 forward $206 $-1 #
coedge $-1 $427 $423 $317 $426 reversed $315 $-1 #
edge $-1 $483 -29.85546030252326588 $432 29.85546030252326588 $425 $484 forward 7 unknown #
coedge $-1 $318 $425 $437 $485 reversed $315 $-1 #
vertex $-1 $319 $486 #
vertex $-1 $319 $487 #
straight-curve $-1 108.5829946637172156 29.85546030252326588 4.827799227219810696 0 1 0 I I #
edge $-1 $428 -1.5 $432 1.5 $423 $488 forward 7 unknown #
vertex $-1 $431 $489 #
straight-curve $-1 104.6201816789150882 0 1.827799227219810696 -1 0 0 I I #
straight-curve $-1 104.6201816789150882 0 4.827799227219810696 1 0 0 I I #
point $-1 100.6573686941129608 0 1.827799227219810696 #
straight-curve $-1 100.657368694112975 29.85546030252326588 1.827799227219810696 0 -1 0 I I #
coedge $-1 $329 $328 $427 $485 forward $330 $-1 #
edge $-1 $331 -3.962812984802127403 $483 3.962812984802127403 $329 $490 forward 7 unknown #
point $-1 100.6573686941129608 59.71092060504653176 1.827799227219810696 #
straight-curve $-1 104.6201816789150882 59.71092060504653176 4.827799227219810696 -1 0 0 I I #
edge $-1 $442 49.69281298775967315 $445 58.39269925151340601 $337 $491 forward 7 unknown #
vertex $-1 $351 $492 #
straight-curve $-1 92.73174272450873445 44.09194601625524967 17.88357288228418085 0 1 0 I I #
edge $-1 $445 -26.98697007161258909 $348 -3.845206540066740786 $347 $493 forward 7 unknown #
vertex $-1 $444 $494 #
straight-curve $-1 92.73174272450873445 7.999746708653574956 39.03914732104141194 0 -0.8660253999169214012 0.5000000066987363434 I I #
point $-1 92.73174272450873445 44.64227584533016824 17.8835728822841773 #
point $-1 69.58997919296288615 59.71092060504653176 9.183686618530440882 #
straight-curve $-1 50.32868434705648752 59.71092060504653176 17.8835728822841773 -1 0 0 I I #
vertex $-1 $354 $495 #
point $-1 78.70191163054740002 49.13245316044746147 8.261015926852312674 #
vertex $-1 $358 $496 #
point $-1 88.61981028692419216 49.13245316044746147 8.261015926852312674 #
coedge $-1 $373 $372 $365 $455 forward $362 $-1 #
edge $-1 $456 35.4452989090444035 $459 39.06165475832698064 $454 $497 forward 7 unknown #
vertex $-1 $377 $498 #
straight-curve $-1 70.01039762413702761 -13.21571334240297446 17.88357288228418085 0 -1 0 I I #
edge $-1 $459 4.160520363447346881 $374 26.88186546381905373 $373 $499 forward 7 unknown #
vertex $-1 $458 $500 #
straight-curve $-1 70.01039762413702761 3.552713678800500929e-15 14.26721703300160371 0 0.8290375676529484483 0.5591929107383988296 I I #
point $-1 70.01039762413702761 5.36146792901547542 17.8835728822841773 #
point $-1 92.73174272450873445 0 14.26721703300160016 #
straight-curve $-1 50.32868434705648752 0 17.8835728822841773 1 0 0 I I #
vertex $-1 $380 $501 #
point $-1 77.50221050995750716 4.037988866816021982 14.06318185320834857 #
vertex $-1 $384 $502 #
point $-1 87.23992983868824069 4.037988866816021982 14.06318185320834857 #
coedge $-1 $391 $389 $393 $471 reversed $268 $-1 #
vertex $-1 $471 $503 #
straight-curve $-1 0 0 8.941786441142088648 0 0 -1 I I #
edge $-1 $469 -29.85546030252326588 $405 29.85546030252326588 $468 $504 forward 7 unknown #
straight-curve $-1 50.32868434705648752 0 0 -1 0 0 I I #
straight-curve $-1 0 29.85546030252326588 17.8835728822841773 0 -1 0 I I #
point $-1 0 59.71092060504653176 17.8835728822841773 #
point $-1 0 0 17.8835728822841773 #
straight-curve $-1 0 59.71092060504653176 8.941786441142088648 0 0 -1 I I #
point $-1 0 59.71092060504653176 0 #
straight-curve $-1 6.200017006650526241 22.82965562486644373 0 0 -1 0 I I #
straight-curve $-1 6.200017006650526241 22.82965562486644373 17.8835728822841773 0 1 0 I I #
straight-curve $-1 0 17.8835728822841773 8.941786441142088648 0 0 -1 I I #
point $-1 0 17.8835728822841773 0 #
point $-1 0 17.8835728822841773 17.8835728822841773 #
vertex $-1 $426 $505 #
straight-curve $-1 108.5829946637172156 29.85546030252326588 1.827799227219810696 0 -1 0 I I #
edge $-1 $429 -1.5 $483 1.5 $427 $506 forward 7 unknown #
point $-1 108.5829946637172156 0 4.827799227219810696 #
point $-1 108.5829946637172156 59.71092060504653176 4.827799227219810696 #
straight-curve $-1 108.5829946637172156 0 3.327799227219810696 0 0 -1 I I #
point $-1 108.5829946637172156 0 1.827799227219810696 #
straight-curve $-1 104.6201816789150882 59.71092060504653176 1.827799227219810696 1 0 0 I I #
straight-curve $-1 92.73174272450873445 59.71092060504653176 67.57638587004385045 0 0 -1 I I #
point $-1 92.73174272450873445 59.71092060504653176 17.8835728822841773 #
straight-curve $-1 65.74477265289614536 59.71092060504652466 9.183686618530439105 -1 0 0 I I #
point $-1 92.73174272450873445 59.71092060504653176 9.183686618530440882 #
point $-1 76.20191163054740002 47.88245314370062289 6.095952427060009171 #
point $-1 86.11981028692419216 47.88245314370062289 6.095952427060009171 #
straight-curve $-1 70.01039762413702761 0 53.3288717913285808 0 0 -1 I I #
point $-1 70.01039762413702761 0 17.8835728822841773 #
straight-curve $-1 65.84987726068968072 0 14.26721703300160016 1 0 0 I I #
point $-1 70.01039762413702761 0 14.26721703300160016 #
point $-1 76.50221050995750716 4.597181777554418147 13.23414428555540212 #
point $-1 86.23992983868824069 4.597181777554418147 13.23414428555540212 #
point $-1 0 0 0 #
straight-curve $-1 0 29.85546030252326588 0 0 1 0 I I #
point $-1 108.5829946637172156 59.71092060504653176 1.827799227219810696 #
straight-curve $-1 108.5829946637172156 59.71092060504653176 3.327799227219810696 0 0 -1 I I #
End-of-ACIS-data 