600 0 6 0           
95 GICL ACIS Healer - Source: /gicl/data5/repository/Drexel/SM99-DATA/part123.smdg.delta.sat - 6 0 18 ACIS 6.0.3 Solaris 24 Sat Apr 13 20:45:10 2002 
1 9.999999999999999547e-07 1.000000000000000036e-10 
body $-1 $6 $-1 $-1 #
body $-1 $7 $-1 $-1 #
body $-1 $8 $-1 $-1 #
body $-1 $9 $-1 $-1 #
body $-1 $10 $-1 $-1 #
body $-1 $11 $-1 $-1 #
lump $-1 $-1 $12 $0 #
lump $-1 $-1 $13 $1 #
lump $-1 $-1 $14 $2 #
lump $-1 $-1 $15 $3 #
lump $-1 $-1 $16 $4 #
lump $-1 $-1 $17 $5 #
shell $-1 $-1 $-1 $18 $-1 $6 #
shell $-1 $-1 $-1 $19 $-1 $7 #
shell $-1 $-1 $-1 $20 $-1 $8 #
shell $-1 $-1 $-1 $21 $-1 $9 #
shell $-1 $-1 $-1 $22 $-1 $10 #
shell $-1 $-1 $-1 $23 $-1 $11 #
face $-1 $24 $25 $12 $-1 $26 forward single #
face $-1 $27 $28 $13 $-1 $29 forward single #
face $-1 $30 $31 $14 $-1 $32 reversed single #
face $-1 $33 $34 $15 $-1 $35 forward single #
face $-1 $36 $37 $16 $-1 $38 reversed single #
face $-1 $39 $40 $17 $-1 $41 forward single #
face $-1 $42 $43 $12 $-1 $44 reversed single #
loop $-1 $-1 $45 $18 #
plane-surface $-1 61.92205572679830539 30.72726345733802589 21.61401867657987097 0 0 1 1 0 0 forward_v I I I I #
face $-1 $46 $47 $13 $-1 $48 reversed single #
loop $-1 $-1 $49 $19 #
plane-surface $-1 6.210872402219919763 30.72726345733802589 7.578423960165007855 0 0 1 1 0 0 forward_v I I I I #
face $-1 $50 $51 $14 $-1 $52 reversed single #
loop $-1 $-1 $53 $20 #
plane-surface $-1 12.42174480443983953 98.65280006873663865 148.7271518970755437 1 0 0 0 -0.6691306144064093075 -0.7431448182313465933 forward_v I I I I #
face $-1 $54 $55 $15 $-1 $56 forward single #
loop $-1 $57 $58 $21 #
cone-surface $-1 25.96928592351002862 56.8161452066033803 17.16786654222406128 0 -0.6691306144064093075 -0.7431448182313465933 1.5 0 0 1 I I 0 1 1.5 forward I I I I #
face $-1 $59 $60 $16 $-1 $61 reversed single #
loop $-1 $-1 $62 $22 #
plane-surface $-1 93.89691816301296967 -90.57385035884784941 101.3376425376374357 -1 0 0 0 -0.7313537098837770145 0.6819983511997929071 forward_v I I I I #
face $-1 $63 $64 $17 $-1 $65 forward single #
loop $-1 $66 $67 $23 #
cone-surface $-1 77.50218482020125066 3.030196230284776249 18.47936974936016341 0 0.7313537098837770145 -0.6819983511997929071 1 0 0 1 I I 0 1 1 forward I I I I #
face $-1 $68 $69 $12 $-1 $70 reversed single #
loop $-1 $-1 $71 $24 #
plane-surface $-1 61.92205572679830539 30.72726345733802589 0 0 0 1 1 0 0 forward_v I I I I #
coedge $-1 $72 $73 $74 $75 forward $25 $-1 #
face $-1 $76 $77 $13 $-1 $78 reversed single #
loop $-1 $-1 $79 $27 #
plane-surface $-1 6.210872402219919763 30.72726345733802589 2.17020295343840175 0 0 1 1 0 0 forward_v I I I I #
coedge $-1 $80 $81 $82 $83 forward $28 $-1 #
face $-1 $84 $85 $14 $-1 $86 reversed single #
loop $-1 $-1 $87 $30 #
plane-surface $-1 25.96928592351002862 15.78491368117570914 56.69304220186987919 0 0.6691306144064093075 0.7431448182313465933 1 0 0 forward_v I I I I #
coedge $-1 $88 $89 $90 $91 reversed $31 $-1 #
face $-1 $-1 $92 $15 $-1 $93 forward single #
loop $-1 $94 $95 $33 #
cone-surface $-1 25.96928592351002862 55.03112131110365368 15.18539670778594086 0 -0.6691306144064093075 -0.7431448182313465933 0.75 0 0 1 I I -0.7071067811865475727 0.7071067811865475727 0.75 forward I I I I #
loop $-1 $-1 $96 $21 #
coedge $-1 $58 $58 $97 $98 reversed $34 $-1 #
face $-1 $99 $100 $16 $-1 $101 reversed single #
loop $-1 $-1 $102 $36 #
plane-surface $-1 77.50218482020123645 -1.421085471520200372e-14 16.87616272048116883 0 -0.7313537098837770145 0.6819983511997929071 1 0 0 forward_v I I I I #
coedge $-1 $103 $104 $105 $106 reversed $37 $-1 #
face $-1 $-1 $107 $17 $-1 $108 forward single #
loop $-1 $109 $110 $39 #
cone-surface $-1 77.50218482020125066 4.21700829167733815 17.37264962458991846 0 0.7313537098837770145 -0.6819983511997929071 0.5 0 0 1 I I -0.7071067811865474617 0.7071067811865474617 0.5 forward I I I I #
loop $-1 $-1 $111 $23 #
coedge $-1 $67 $67 $112 $113 reversed $40 $-1 #
face $-1 $114 $115 $12 $-1 $116 reversed single #
loop $-1 $-1 $117 $42 #
plane-surface $-1 61.92205572679830539 0 10.80700933828993549 0 1 0 0 0 1 forward_v I I I I #
coedge $-1 $118 $119 $120 $121 forward $43 $-1 #
coedge $-1 $122 $45 $123 $124 forward $25 $-1 #
coedge $-1 $45 $122 $125 $126 forward $25 $-1 #
coedge $-1 $127 $128 $45 $75 reversed $129 $-1 #
edge $-1 $130 -30.72726345733802589 $131 30.72726345733802589 $74 $132 forward 7 unknown #
face $-1 $133 $134 $13 $-1 $135 reversed single #
loop $-1 $-1 $136 $46 #
plane-surface $-1 12.42174480443983953 30.72726345733802589 4.874313456801704803 -1 0 0 0 0 1 forward_v I I I I #
coedge $-1 $137 $138 $139 $140 forward $47 $-1 #
coedge $-1 $141 $49 $142 $143 reversed $28 $-1 #
coedge $-1 $49 $141 $144 $145 reversed $28 $-1 #
coedge $-1 $136 $146 $49 $83 reversed $77 $-1 #
edge $-1 $147 -30.72726345733802589 $148 30.72726345733802589 $82 $149 forward 7 unknown #
face $-1 $150 $151 $14 $-1 $152 forward single #
loop $-1 $-1 $153 $50 #
plane-surface $-1 39.51682704258021772 98.65280006873663865 148.7271518970755437 -1 0 0 0 0.6691306144064093075 0.7431448182313465933 forward_v I I I I #
coedge $-1 $154 $155 $156 $157 reversed $51 $-1 #
coedge $-1 $89 $53 $158 $159 reversed $31 $-1 #
coedge $-1 $53 $88 $154 $160 reversed $31 $-1 #
coedge $-1 $156 $161 $53 $91 forward $151 $-1 #
edge $-1 $162 3.235504848361273389 $163 9.945916395116803699 $90 $164 forward 7 unknown #
loop $-1 $-1 $97 $54 #
plane-surface $-1 25.96928592351002862 15.78491368117570914 56.69304220186987919 0 0.6691306144064093075 0.7431448182313465933 1 0 0 forward_v I I I I #
loop $-1 $-1 $165 $33 #
coedge $-1 $95 $95 $96 $166 reversed $55 $-1 #
coedge $-1 $96 $96 $95 $166 forward $57 $-1 #
coedge $-1 $97 $97 $58 $98 forward $92 $-1 #
edge $-1 $167 -1.584819657803889185e-15 $167 6.283185307179584456 $97 $168 forward 7 unknown #
face $-1 $169 $170 $16 $-1 $171 reversed single #
loop $-1 $-1 $172 $59 #
plane-surface $-1 61.10745147738950322 -90.57385035884784941 101.3376425376374357 1 0 0 0 0.7313537098837770145 -0.6819983511997929071 forward_v I I I I #
coedge $-1 $173 $174 $175 $176 reversed $60 $-1 #
coedge $-1 $104 $62 $177 $178 reversed $37 $-1 #
coedge $-1 $62 $103 $173 $179 reversed $37 $-1 #
coedge $-1 $175 $180 $62 $106 forward $181 $-1 #
edge $-1 $182 29.92329345075491176 $183 34.34141549842307484 $105 $184 forward 7 unknown #
loop $-1 $-1 $112 $63 #
plane-surface $-1 77.50218482020123645 -1.421085471520200372e-14 16.87616272048116883 0 -0.7313537098837770145 0.6819983511997929071 1 0 0 forward_v I I I I #
loop $-1 $-1 $185 $39 #
coedge $-1 $110 $110 $111 $186 reversed $64 $-1 #
coedge $-1 $111 $111 $110 $186 forward $66 $-1 #
coedge $-1 $112 $112 $67 $113 forward $107 $-1 #
edge $-1 $187 1.721563039552109783e-15 $187 6.283185307179588008 $112 $188 forward 7 unknown #
face $-1 $189 $190 $12 $-1 $191 reversed single #
loop $-1 $-1 $192 $68 #
plane-surface $-1 0 30.72726345733802589 10.80700933828993549 1 0 0 0 0 -1 forward_v I I I I #
coedge $-1 $193 $125 $194 $195 forward $69 $-1 #
coedge $-1 $196 $71 $193 $197 forward $43 $-1 #
coedge $-1 $71 $196 $198 $199 forward $43 $-1 #
coedge $-1 $128 $127 $71 $121 reversed $129 $-1 #
edge $-1 $200 -30.72726345733802589 $201 30.72726345733802589 $120 $202 forward 7 unknown #
coedge $-1 $73 $72 $203 $204 forward $25 $-1 #
coedge $-1 $205 $206 $72 $124 reversed $190 $-1 #
edge $-1 $131 -61.92205572679830539 $207 61.92205572679830539 $123 $208 forward 7 unknown #
coedge $-1 $117 $209 $73 $126 reversed $69 $-1 #
edge $-1 $210 -61.92205572679830539 $130 61.92205572679830539 $125 $211 forward 7 unknown #
coedge $-1 $120 $74 $209 $212 forward $129 $-1 #
coedge $-1 $74 $120 $205 $213 reversed $129 $-1 #
loop $-1 $-1 $127 $189 #
vertex $-1 $75 $214 #
vertex $-1 $75 $215 #
straight-curve $-1 123.8441114535966108 30.72726345733802589 21.61401867657987097 0 1 0 I I #
face $-1 $216 $217 $13 $-1 $218 reversed single #
loop $-1 $-1 $219 $76 #
plane-surface $-1 61.92205572679830539 0 10.80700933828993549 0 1 0 0 0 1 forward_v I I I I #
coedge $-1 $139 $82 $220 $221 reversed $77 $-1 #
coedge $-1 $222 $79 $219 $223 reversed $47 $-1 #
coedge $-1 $79 $222 $224 $225 reversed $47 $-1 #
coedge $-1 $146 $136 $79 $140 reversed $77 $-1 #
edge $-1 $226 -30.72726345733802589 $227 30.72726345733802589 $139 $228 forward 7 unknown #
coedge $-1 $81 $80 $229 $230 reversed $28 $-1 #
coedge $-1 $231 $232 $80 $143 forward $233 $-1 #
edge $-1 $234 -34.06646406450911257 $148 -21.64471926006927305 $142 $235 forward 7 unknown #
coedge $-1 $236 $220 $81 $145 forward $134 $-1 #
edge $-1 $147 21.64471926006927305 $237 34.06646406450911257 $144 $238 forward 7 unknown #
coedge $-1 $82 $139 $231 $239 reversed $77 $-1 #
vertex $-1 $145 $240 #
vertex $-1 $143 $241 #
straight-curve $-1 12.42174480443983953 30.72726345733802589 7.578423960165007855 0 1 0 I I #
face $-1 $-1 $242 $14 $-1 $243 reversed single #
loop $-1 $-1 $90 $84 #
plane-surface $-1 61.92205572679830539 30.72726345733802589 21.61401867657987097 0 0 1 1 0 0 forward_v I I I I #
coedge $-1 $244 $245 $246 $247 reversed $85 $-1 #
coedge $-1 $248 $87 $89 $160 forward $51 $-1 #
coedge $-1 $87 $248 $244 $249 forward $51 $-1 #
coedge $-1 $246 $90 $87 $157 forward $151 $-1 #
edge $-1 $163 -31.52392602071432748 $250 -4.428843782573949284 $156 $251 forward 7 unknown #
coedge $-1 $252 $253 $88 $159 forward $242 $-1 #
edge $-1 $254 -64.19514376828527702 $162 -58.15306194110286242 $158 $255 forward 7 unknown #
edge $-1 $163 52.42477742018853348 $254 61.45452691467606599 $89 $256 forward 7 unknown #
coedge $-1 $90 $246 $252 $257 forward $151 $-1 #
vertex $-1 $159 $258 #
vertex $-1 $91 $259 #
straight-curve $-1 12.42174480443983953 64.69003176303732516 21.61401867657987452 0 -1 0 I I #
coedge $-1 $165 $165 $-1 $260 reversed $94 $-1 #
edge $-1 $261 0 $261 6.283185307179586232 $95 $262 forward 7 unknown #
vertex $-1 $98 $263 #
ellipse-curve $-1 25.96928592351002862 58.09932114129829017 18.59297776298866722 0 0.6691306144064093075 0.7431448182313465933 1.5 0 0 1 I I #
face $-1 $-1 $181 $16 $-1 $264 forward single #
loop $-1 $-1 $265 $99 #
plane-surface $-1 61.92205572679830539 0 10.80700933828993549 0 1 0 0 0 1 forward_v I I I I #
coedge $-1 $266 $267 $268 $269 reversed $100 $-1 #
coedge $-1 $270 $102 $104 $179 forward $60 $-1 #
coedge $-1 $102 $270 $266 $271 forward $60 $-1 #
coedge $-1 $268 $105 $102 $176 forward $181 $-1 #
edge $-1 $183 -24.18479788951319165 $272 8.604668796110274798 $175 $273 forward 7 unknown #
coedge $-1 $274 $275 $103 $178 forward $170 $-1 #
edge $-1 $276 -39.19616321748250698 $182 -34.45830726138382261 $177 $277 forward 7 unknown #
edge $-1 $183 -6.478200482296887053 $276 -2.008494080148992e-14 $104 $278 forward 7 unknown #
coedge $-1 $105 $268 $274 $279 forward $181 $-1 #
loop $-1 $-1 $268 $169 #
vertex $-1 $178 $280 #
vertex $-1 $106 $281 #
straight-curve $-1 93.89691816301296967 -29.92329345075491176 21.61401867657987452 0 1 0 I I #
coedge $-1 $185 $185 $-1 $282 reversed $109 $-1 #
edge $-1 $283 0 $283 6.283185307179586232 $110 $284 forward 7 unknown #
vertex $-1 $113 $285 #
ellipse-curve $-1 77.50218482020125066 2.209061023834085091 19.24509069853052523 0 -0.7313537098837770145 0.6819983511997929071 1 0 0 1 I I #
face $-1 $-1 $129 $12 $-1 $286 reversed single #
loop $-1 $-1 $205 $114 #
plane-surface $-1 61.92205572679830539 61.45452691467605177 10.80700933828993549 0 -1 0 0 0 -1 forward_v I I I I #
coedge $-1 $287 $203 $206 $288 forward $115 $-1 #
coedge $-1 $209 $117 $118 $197 reversed $69 $-1 #
coedge $-1 $203 $287 $117 $195 reversed $115 $-1 #
edge $-1 $210 -10.80700933828993549 $289 10.80700933828993549 $194 $290 forward 7 unknown #
coedge $-1 $119 $118 $287 $291 forward $43 $-1 #
edge $-1 $201 -61.92205572679830539 $289 61.92205572679830539 $193 $292 forward 7 unknown #
coedge $-1 $206 $205 $119 $199 reversed $190 $-1 #
edge $-1 $293 -61.92205572679830539 $200 61.92205572679830539 $198 $294 forward 7 unknown #
vertex $-1 $121 $295 #
vertex $-1 $212 $296 #
straight-curve $-1 123.8441114535966108 30.72726345733802589 0 0 -1 0 I I #
coedge $-1 $192 $194 $122 $204 reversed $115 $-1 #
edge $-1 $207 -30.72726345733802589 $210 30.72726345733802589 $203 $297 forward 7 unknown #
coedge $-1 $198 $123 $128 $213 forward $190 $-1 #
coedge $-1 $123 $198 $192 $288 reversed $190 $-1 #
vertex $-1 $124 $298 #
straight-curve $-1 61.92205572679830539 61.45452691467605177 21.61401867657987097 -1 0 0 I I #
coedge $-1 $125 $193 $127 $212 reversed $69 $-1 #
vertex $-1 $204 $299 #
straight-curve $-1 61.92205572679830539 0 21.61401867657987097 1 0 0 I I #
edge $-1 $130 -10.80700933828993549 $201 10.80700933828993549 $127 $300 forward 7 unknown #
edge $-1 $131 -10.80700933828993549 $200 10.80700933828993549 $128 $301 forward 7 unknown #
point $-1 123.8441114535966108 0 21.61401867657987097 #
point $-1 123.8441114535966108 61.45452691467605177 21.61401867657987097 #
face $-1 $-1 $233 $13 $-1 $302 reversed single #
loop $-1 $-1 $303 $133 #
plane-surface $-1 0 30.72726345733802589 10.80700933828993549 1 0 0 0 0 -1 forward_v I I I I #
coedge $-1 $220 $236 $137 $223 forward $134 $-1 #
coedge $-1 $144 $219 $136 $221 forward $134 $-1 #
edge $-1 $227 -5.670458444107418394 $147 -0.2622374373808122883 $220 $304 forward 7 unknown #
coedge $-1 $138 $137 $303 $305 reversed $47 $-1 #
edge $-1 $306 -34.06646406450911257 $227 -21.64471926006927305 $219 $307 forward 7 unknown #
coedge $-1 $232 $231 $138 $225 forward $233 $-1 #
edge $-1 $226 21.64471926006927305 $308 34.06646406450911257 $224 $309 forward 7 unknown #
vertex $-1 $225 $310 #
vertex $-1 $223 $311 #
straight-curve $-1 12.42174480443983953 30.72726345733802589 2.17020295343840175 0 -1 0 I I #
coedge $-1 $312 $313 $141 $230 forward $217 $-1 #
edge $-1 $237 -30.72726345733802589 $234 30.72726345733802589 $229 $314 forward 7 unknown #
coedge $-1 $224 $142 $146 $239 forward $233 $-1 #
coedge $-1 $142 $224 $312 $315 reversed $233 $-1 #
loop $-1 $-1 $224 $216 #
vertex $-1 $315 $316 #
straight-curve $-1 34.06646406450911257 61.45452691467605177 7.578423960165007855 1 0 0 I I #
coedge $-1 $219 $144 $313 $317 forward $134 $-1 #
vertex $-1 $317 $318 #
straight-curve $-1 34.06646406450911257 0 7.578423960165007855 -1 0 0 I I #
edge $-1 $148 0.2622374373808122883 $226 5.670458444107418394 $231 $319 forward 7 unknown #
point $-1 12.42174480443983953 0 7.578423960165007855 #
point $-1 12.42174480443983953 61.45452691467605177 7.578423960165007855 #
loop $-1 $-1 $158 $150 #
plane-surface $-1 61.92205572679830539 61.45452691467605177 10.80700933828993549 0 -1 0 0 0 -1 forward_v I I I I #
coedge $-1 $245 $153 $155 $249 reversed $85 $-1 #
coedge $-1 $153 $244 $320 $321 reversed $85 $-1 #
coedge $-1 $161 $156 $153 $247 forward $151 $-1 #
edge $-1 $250 -9.945916395116803699 $322 -3.235504848361273389 $246 $323 forward 7 unknown #
coedge $-1 $155 $154 $253 $324 reversed $51 $-1 #
edge $-1 $325 -61.45452691467606599 $250 -52.42477742018853348 $244 $326 forward 7 unknown #
vertex $-1 $157 $327 #
straight-curve $-1 43.94567082515416701 54.74411536792052857 21.61401867657986742 1 0 0 I I #
coedge $-1 $320 $158 $161 $257 reversed $242 $-1 #
coedge $-1 $158 $320 $248 $324 forward $242 $-1 #
vertex $-1 $159 $328 #
straight-curve $-1 12.42174480443983953 61.45452691467605177 79.76708061768273694 0 0 1 I I #
straight-curve $-1 12.42174480443983953 15.78491368117570914 56.69304220186987919 0 0.7431448182313465933 -0.6691306144064093075 I I #
edge $-1 $322 22.40522868421808766 $162 49.50031092235846586 $252 $329 forward 7 unknown #
point $-1 12.42174480443983953 61.45452691467605177 21.61401867657987097 #
point $-1 12.42174480443983953 54.74411536792052146 21.61401867657987452 #
edge $-1 $330 1 $330 0 $165 $-1 forward 7 unknown #
vertex $-1 $166 $331 #
ellipse-curve $-1 25.96928592351002862 55.53296927190845622 15.74275532145945178 0 0.6691306144064093075 0.7431448182313465933 1.5 0 0 1 I I #
point $-1 27.46928592351002862 58.09932114129829017 18.59297776298867078 #
plane-surface $-1 61.92205572679830539 30.72726345733802589 21.61401867657987097 0 0 1 1 0 0 forward_v I I I I #
coedge $-1 $275 $274 $267 $332 forward $170 $-1 #
coedge $-1 $267 $172 $174 $271 reversed $100 $-1 #
coedge $-1 $172 $266 $265 $332 reversed $100 $-1 #
coedge $-1 $180 $175 $172 $269 forward $181 $-1 #
edge $-1 $272 -34.34141549842307484 $333 -29.92329345075491176 $268 $334 forward 7 unknown #
coedge $-1 $174 $173 $275 $335 reversed $60 $-1 #
edge $-1 $336 2.008494080148992e-14 $272 6.478200482296887053 $266 $337 forward 7 unknown #
vertex $-1 $176 $338 #
straight-curve $-1 69.71212027349977802 4.41812204766816663 21.61401867657987097 -1 0 0 I I #
coedge $-1 $265 $177 $180 $279 reversed $170 $-1 #
coedge $-1 $177 $265 $270 $335 forward $170 $-1 #
vertex $-1 $178 $339 #
straight-curve $-1 93.89691816301296967 0 56.07232593796369002 0 0 1 I I #
straight-curve $-1 93.89691816301296967 -1.421085471520200372e-14 16.87616272048116883 0 -0.6819983511997929071 -0.7313537098837770145 I I #
edge $-1 $333 -0.8146042494088021613 $182 31.97486243621466429 $274 $340 forward 7 unknown #
point $-1 93.89691816301296967 0 21.61401867657987097 #
point $-1 93.89691816301296967 4.41812204766816663 21.61401867657987097 #
edge $-1 $341 1 $341 0 $185 $-1 forward 7 unknown #
vertex $-1 $186 $342 #
ellipse-curve $-1 77.50218482020125066 3.851331436735449643 17.7136488001898158 0 -0.7313537098837770145 0.6819983511997929071 1 0 0 1 I I #
point $-1 78.50218482020125066 2.209061023834102855 19.24509069853051102 #
plane-surface $-1 123.8441114535966108 30.72726345733802589 10.80700933828993549 -1 0 0 0 0 1 forward_v I I I I #
coedge $-1 $194 $192 $196 $291 reversed $115 $-1 #
edge $-1 $207 -10.80700933828993549 $293 10.80700933828993549 $206 $343 forward 7 unknown #
vertex $-1 $291 $344 #
straight-curve $-1 0 0 10.80700933828993549 0 0 -1 I I #
edge $-1 $289 -30.72726345733802589 $293 30.72726345733802589 $287 $345 forward 7 unknown #
straight-curve $-1 61.92205572679830539 0 0 -1 0 0 I I #
vertex $-1 $199 $346 #
straight-curve $-1 61.92205572679830539 61.45452691467605177 0 1 0 0 I I #
point $-1 123.8441114535966108 61.45452691467605177 0 #
point $-1 123.8441114535966108 0 0 #
straight-curve $-1 0 30.72726345733802589 21.61401867657987097 0 -1 0 I I #
point $-1 0 61.45452691467605177 21.61401867657987097 #
point $-1 0 0 21.61401867657987097 #
straight-curve $-1 123.8441114535966108 0 10.80700933828993549 0 0 -1 I I #
straight-curve $-1 123.8441114535966108 61.45452691467605177 10.80700933828993549 0 0 -1 I I #
plane-surface $-1 61.92205572679830539 61.45452691467605177 10.80700933828993549 0 -1 0 0 0 -1 forward_v I I I I #
coedge $-1 $313 $312 $222 $305 forward $217 $-1 #
straight-curve $-1 12.42174480443983953 0 7.840661397545820144 0 0 1 I I #
edge $-1 $308 -30.72726345733802589 $306 30.72726345733802589 $303 $347 forward 7 unknown #
vertex $-1 $223 $348 #
straight-curve $-1 34.06646406450911257 0 2.17020295343840175 1 0 0 I I #
vertex $-1 $225 $349 #
straight-curve $-1 34.06646406450911257 61.45452691467605177 2.17020295343840175 -1 0 0 I I #
point $-1 12.42174480443983953 61.45452691467605177 2.17020295343840175 #
point $-1 12.42174480443983953 0 2.17020295343840175 #
coedge $-1 $303 $229 $232 $315 forward $217 $-1 #
coedge $-1 $229 $303 $236 $317 reversed $217 $-1 #
straight-curve $-1 0 30.72726345733802589 7.578423960165007855 0 1 0 I I #
edge $-1 $234 3.22858537812492763 $308 8.636806384851533736 $232 $350 forward 7 unknown #
point $-1 0 61.45452691467605177 7.578423960165007855 #
edge $-1 $237 3.22858537812492763 $306 8.636806384851533736 $313 $351 forward 7 unknown #
point $-1 0 0 7.578423960165007855 #
straight-curve $-1 12.42174480443983953 61.45452691467605177 7.840661397545820144 0 0 -1 I I #
coedge $-1 $253 $252 $245 $321 forward $242 $-1 #
edge $-1 $322 58.15306194110286242 $325 64.19514376828527702 $320 $352 forward 7 unknown #
vertex $-1 $257 $353 #
straight-curve $-1 39.51682704258021772 64.69003176303732516 21.61401867657987452 0 1 0 I I #
edge $-1 $325 4.428843782573949284 $254 31.52392602071432748 $253 $354 forward 7 unknown #
vertex $-1 $324 $355 #
straight-curve $-1 39.51682704258021772 15.78491368117570914 56.69304220186987919 0 -0.7431448182313465933 0.6691306144064093075 I I #
point $-1 39.51682704258021772 54.74411536792052146 21.61401867657987452 #
point $-1 12.42174480443983953 61.45452691467605177 15.57193684939746525 #
straight-curve $-1 61.92205572679830539 61.45452691467605177 21.61401867657987097 -1 0 0 I I #
vertex $-1 $260 $356 #
point $-1 27.46928592351002862 55.53296927190845622 15.74275532145945178 #
edge $-1 $333 34.45830726138382261 $336 39.19616321748250698 $265 $357 forward 7 unknown #
vertex $-1 $279 $358 #
straight-curve $-1 61.10745147738950322 -29.92329345075491176 21.61401867657987452 0 -1 0 I I #
edge $-1 $336 -8.604668796110274798 $276 24.18479788951319165 $275 $359 forward 7 unknown #
vertex $-1 $335 $360 #
straight-curve $-1 61.10745147738950322 -1.421085471520200372e-14 16.87616272048116883 0 0.6819983511997929071 0.7313537098837770145 I I #
point $-1 61.10745147738950322 4.41812204766816663 21.61401867657987097 #
point $-1 93.89691816301296967 0 16.87616272048118304 #
straight-curve $-1 61.92205572679830539 0 21.61401867657987097 1 0 0 I I #
vertex $-1 $282 $361 #
point $-1 78.50218482020125066 3.851331436735449643 17.7136488001898158 #
straight-curve $-1 0 61.45452691467605177 10.80700933828993549 0 0 -1 I I #
point $-1 0 0 0 #
straight-curve $-1 0 30.72726345733802589 0 0 1 0 I I #
point $-1 0 61.45452691467605177 0 #
straight-curve $-1 0 30.72726345733802589 2.17020295343840175 0 -1 0 I I #
point $-1 0 0 2.17020295343840175 #
point $-1 0 61.45452691467605177 2.17020295343840175 #
straight-curve $-1 0 61.45452691467605177 10.80700933828993549 0 0 -1 I I #
straight-curve $-1 0 0 10.80700933828993549 0 0 -1 I I #
straight-curve $-1 39.51682704258021772 61.45452691467605177 79.76708061768273694 0 0 -1 I I #
point $-1 39.51682704258021772 61.45452691467605177 21.61401867657987097 #
straight-curve $-1 43.94567082515416701 61.45452691467605177 15.5719368493974617 -1 0 0 I I #
point $-1 39.51682704258021772 61.45452691467605177 15.57193684939746525 #
point $-1 25.96928592351002862 54.52927335029885114 14.62803809411242995 #
straight-curve $-1 61.10745147738950322 0 56.07232593796369002 0 0 -1 I I #
point $-1 61.10745147738950322 0 21.61401867657987097 #
straight-curve $-1 69.71212027349977802 0 16.87616272048117949 1 0 0 I I #
point $-1 61.10745147738950322 0 16.87616272048118304 #
point $-1 77.50218482020125066 4.582685146619226657 17.03165044899002112 #
End-of-ACIS-data 