600 0 5 0           
95 GICL ACIS Healer - Source: /gicl/data5/repository/Drexel/SM99-DATA/part94.smdg.deltas.sat - 6 0 18 ACIS 6.0.3 Solaris 24 Sat Apr 13 20:47:01 2002 
1 9.999999999999999547e-07 1.000000000000000036e-10 
body $-1 $5 $-1 $-1 #
body $-1 $6 $-1 $-1 #
body $-1 $7 $-1 $-1 #
body $-1 $8 $-1 $-1 #
body $-1 $9 $-1 $-1 #
lump $-1 $-1 $10 $0 #
lump $-1 $-1 $11 $1 #
lump $-1 $-1 $12 $2 #
lump $-1 $-1 $13 $3 #
lump $-1 $-1 $14 $4 #
shell $-1 $-1 $-1 $15 $-1 $5 #
shell $-1 $-1 $-1 $16 $-1 $6 #
shell $-1 $-1 $-1 $17 $-1 $7 #
shell $-1 $-1 $-1 $18 $-1 $8 #
shell $-1 $-1 $-1 $19 $-1 $9 #
face $-1 $20 $21 $10 $-1 $22 forward single #
face $-1 $23 $24 $11 $-1 $25 reversed single #
face $-1 $26 $27 $12 $-1 $28 forward single #
face $-1 $29 $30 $13 $-1 $31 forward single #
face $-1 $32 $33 $14 $-1 $34 forward single #
face $-1 $35 $36 $10 $-1 $37 reversed single #
loop $-1 $-1 $38 $15 #
plane-surface $-1 46.95455793939024147 23.32796212844372619 17.82228683549329773 0 0 1 1 0 0 forward_v I I I I #
face $-1 $39 $40 $11 $-1 $41 reversed single #
loop $-1 $-1 $42 $16 #
plane-surface $-1 -61.60992412601511603 8.331407004846759889 80.15308633540793437 0 -1 0 0.6560590369687036016 0 -0.754709573287431712 forward_v I I I I #
face $-1 $43 $44 $12 $-1 $45 forward single #
loop $-1 $46 $47 $17 #
cone-surface $-1 5.242005953820502384 1.666281400969349846 13.17327741246970163 0.6560590369687036016 0 -0.754709573287431712 0.188677393321857928 0 0.1640147592421759004 1 I I 0 1 0.25 forward I I I I #
face $-1 $48 $49 $13 $-1 $50 forward single #
loop $-1 $51 $52 $18 #
cone-surface $-1 5.242005953820502384 4.165703502423379945 13.17327741246970163 0.6560590369687036016 0 -0.754709573287431712 0.188677393321857928 0 0.1640147592421759004 1 I I 0 1 0.25 forward I I I I #
face $-1 $53 $54 $14 $-1 $55 forward single #
loop $-1 $56 $57 $19 #
cone-surface $-1 5.242005953820502384 6.66512560387740649 13.17327741246970163 0.6560590369687036016 0 -0.754709573287431712 0.188677393321857928 0 0.1640147592421759004 1 I I 0 1 0.25 forward I I I I #
face $-1 $58 $59 $10 $-1 $60 reversed single #
loop $-1 $-1 $61 $20 #
plane-surface $-1 46.95455793939024147 23.32796212844372619 0 0 0 1 1 0 0 forward_v I I I I #
coedge $-1 $62 $63 $64 $65 forward $21 $-1 #
face $-1 $66 $67 $11 $-1 $68 forward single #
loop $-1 $-1 $69 $23 #
plane-surface $-1 0 4.165703502423379945 9.278977562733549789 -0.6560590369687036016 0 0.754709573287431712 0.754709573287431712 0 0.6560590369687036016 forward_v I I I I #
coedge $-1 $70 $71 $72 $73 reversed $24 $-1 #
face $-1 $-1 $74 $12 $-1 $75 forward single #
loop $-1 $76 $77 $26 #
cone-surface $-1 5.652042851925941136 1.666281400969349846 12.70158392916505719 0.6560590369687036016 0 -0.754709573287431712 0.094338696660928964 0 0.08200737962108795021 1 I I -0.7071067811865474617 0.7071067811865474617 0.125 forward I I I I #
loop $-1 $-1 $78 $17 #
coedge $-1 $47 $47 $79 $80 reversed $27 $-1 #
face $-1 $-1 $81 $13 $-1 $82 forward single #
loop $-1 $83 $84 $29 #
cone-surface $-1 5.652042851925941136 4.165703502423379945 12.70158392916505719 0.6560590369687036016 0 -0.754709573287431712 0.094338696660928964 0 0.08200737962108795021 1 I I -0.7071067811865474617 0.7071067811865474617 0.125 forward I I I I #
loop $-1 $-1 $85 $18 #
coedge $-1 $52 $52 $86 $87 reversed $30 $-1 #
face $-1 $-1 $88 $14 $-1 $89 forward single #
loop $-1 $90 $91 $32 #
cone-surface $-1 5.652042851925941136 6.66512560387740649 12.70158392916505719 0.6560590369687036016 0 -0.754709573287431712 0.094338696660928964 0 0.08200737962108795021 1 I I -0.7071067811865474617 0.7071067811865474617 0.125 forward I I I I #
loop $-1 $-1 $92 $19 #
coedge $-1 $57 $57 $93 $94 reversed $33 $-1 #
face $-1 $95 $96 $10 $-1 $97 reversed single #
loop $-1 $-1 $98 $35 #
plane-surface $-1 46.95455793939024147 0 8.911143417746648865 0 1 0 0 0 1 forward_v I I I I #
coedge $-1 $99 $100 $101 $102 forward $36 $-1 #
coedge $-1 $103 $38 $104 $105 forward $21 $-1 #
coedge $-1 $38 $103 $106 $107 forward $21 $-1 #
coedge $-1 $108 $109 $38 $65 reversed $110 $-1 #
edge $-1 $111 -23.32796212844372619 $112 23.32796212844372619 $64 $113 forward 7 unknown #
face $-1 $114 $115 $11 $-1 $116 reversed single #
loop $-1 $-1 $117 $39 #
plane-surface $-1 46.95455793939024147 23.32796212844372619 17.82228683549329773 0 0 1 1 0 0 forward_v I I I I #
coedge $-1 $118 $119 $120 $121 reversed $40 $-1 #
coedge $-1 $71 $42 $122 $123 reversed $24 $-1 #
coedge $-1 $42 $70 $118 $124 reversed $24 $-1 #
coedge $-1 $120 $125 $42 $73 forward $115 $-1 #
edge $-1 $126 26.70982804108399833 $127 35.25313731384374449 $72 $128 forward 7 unknown #
loop $-1 $-1 $79 $43 #
plane-surface $-1 0 4.165703502423379945 9.278977562733549789 -0.6560590369687036016 0 0.754709573287431712 0.754709573287431712 0 0.6560590369687036016 forward_v I I I I #
loop $-1 $-1 $129 $26 #
coedge $-1 $77 $77 $78 $130 reversed $44 $-1 #
coedge $-1 $78 $78 $77 $130 forward $46 $-1 #
coedge $-1 $79 $79 $47 $80 forward $74 $-1 #
edge $-1 $131 0 $131 6.283185307179586232 $79 $132 forward 7 unknown #
loop $-1 $-1 $86 $48 #
plane-surface $-1 0 4.165703502423379945 9.278977562733549789 -0.6560590369687036016 0 0.754709573287431712 0.754709573287431712 0 0.6560590369687036016 forward_v I I I I #
loop $-1 $-1 $133 $29 #
coedge $-1 $84 $84 $85 $134 reversed $49 $-1 #
coedge $-1 $85 $85 $84 $134 forward $51 $-1 #
coedge $-1 $86 $86 $52 $87 forward $81 $-1 #
edge $-1 $135 0 $135 6.283185307179586232 $86 $136 forward 7 unknown #
loop $-1 $-1 $93 $53 #
plane-surface $-1 0 4.165703502423379945 9.278977562733549789 -0.6560590369687036016 0 0.754709573287431712 0.754709573287431712 0 0.6560590369687036016 forward_v I I I I #
loop $-1 $-1 $137 $32 #
coedge $-1 $91 $91 $92 $138 reversed $54 $-1 #
coedge $-1 $92 $92 $91 $138 forward $56 $-1 #
coedge $-1 $93 $93 $57 $94 forward $88 $-1 #
edge $-1 $139 0 $139 6.283185307179586232 $93 $140 forward 7 unknown #
face $-1 $141 $142 $10 $-1 $143 reversed single #
loop $-1 $-1 $144 $58 #
plane-surface $-1 0 23.32796212844372619 8.911143417746648865 1 0 0 0 0 -1 forward_v I I I I #
coedge $-1 $145 $106 $146 $147 forward $59 $-1 #
coedge $-1 $148 $61 $145 $149 forward $36 $-1 #
coedge $-1 $61 $148 $150 $151 forward $36 $-1 #
coedge $-1 $109 $108 $61 $102 reversed $110 $-1 #
edge $-1 $152 -23.32796212844372619 $153 23.32796212844372619 $101 $154 forward 7 unknown #
coedge $-1 $63 $62 $155 $156 forward $21 $-1 #
coedge $-1 $157 $158 $62 $105 reversed $142 $-1 #
edge $-1 $112 -46.95455793939024147 $159 46.95455793939024147 $104 $160 forward 7 unknown #
coedge $-1 $98 $161 $63 $107 reversed $59 $-1 #
edge $-1 $162 -46.95455793939024147 $111 46.95455793939024147 $106 $163 forward 7 unknown #
coedge $-1 $101 $64 $161 $164 forward $110 $-1 #
coedge $-1 $64 $101 $157 $165 reversed $110 $-1 #
loop $-1 $-1 $108 $141 #
vertex $-1 $65 $166 #
vertex $-1 $65 $167 #
straight-curve $-1 93.90911587878048294 23.32796212844372619 17.82228683549329773 0 1 0 I I #
face $-1 $-1 $168 $11 $-1 $169 reversed single #
loop $-1 $-1 $72 $66 #
plane-surface $-1 0 23.32796212844372619 8.911143417746648865 1 0 0 0 0 -1 forward_v I I I I #
coedge $-1 $122 $170 $171 $172 forward $67 $-1 #
coedge $-1 $171 $69 $71 $124 forward $40 $-1 #
coedge $-1 $69 $171 $173 $174 reversed $40 $-1 #
coedge $-1 $175 $72 $69 $121 forward $115 $-1 #
edge $-1 $127 5.415425810586793176 $176 13.74683281543355307 $120 $177 forward 7 unknown #
coedge $-1 $178 $117 $70 $123 forward $67 $-1 #
edge $-1 $179 -17.15563596398472868 $126 -7.327683093312437279 $122 $180 forward 7 unknown #
edge $-1 $127 0 $179 13.02216537132663099 $71 $181 forward 7 unknown #
coedge $-1 $72 $175 $178 $182 reversed $115 $-1 #
vertex $-1 $182 $183 #
vertex $-1 $73 $184 #
straight-curve $-1 0 8.331407004846759889 44.53211487657729606 0 0 -1 I I #
coedge $-1 $129 $129 $-1 $185 reversed $76 $-1 #
edge $-1 $186 0 $186 6.283185307179586232 $77 $187 forward 7 unknown #
vertex $-1 $80 $188 #
ellipse-curve $-1 4.913976435336145698 1.666281400969349846 13.55063219911342465 -0.6560590369687036016 0 0.754709573287431712 0.188677393321857928 0 0.1640147592421759004 1 I I #
coedge $-1 $133 $133 $-1 $189 reversed $83 $-1 #
edge $-1 $190 0 $190 6.283185307179586232 $84 $191 forward 7 unknown #
vertex $-1 $87 $192 #
ellipse-curve $-1 4.913976435336145698 4.165703502423379945 13.55063219911342465 -0.6560590369687036016 0 0.754709573287431712 0.188677393321857928 0 0.1640147592421759004 1 I I #
coedge $-1 $137 $137 $-1 $193 reversed $90 $-1 #
edge $-1 $194 0 $194 6.283185307179586232 $91 $195 forward 7 unknown #
vertex $-1 $94 $196 #
ellipse-curve $-1 4.913976435336145698 6.66512560387740649 13.55063219911342465 -0.6560590369687036016 0 0.754709573287431712 0.188677393321857928 0 0.1640147592421759004 1 I I #
face $-1 $-1 $110 $10 $-1 $197 reversed single #
loop $-1 $-1 $157 $95 #
plane-surface $-1 46.95455793939024147 46.65592425688745237 8.911143417746648865 0 -1 0 0 0 -1 forward_v I I I I #
coedge $-1 $198 $155 $158 $199 forward $96 $-1 #
coedge $-1 $161 $98 $99 $149 reversed $59 $-1 #
coedge $-1 $155 $198 $98 $147 reversed $96 $-1 #
edge $-1 $162 -8.911143417746648865 $200 8.911143417746648865 $146 $201 forward 7 unknown #
coedge $-1 $100 $99 $198 $202 forward $36 $-1 #
edge $-1 $153 -46.95455793939024147 $200 46.95455793939024147 $145 $203 forward 7 unknown #
coedge $-1 $158 $157 $100 $151 reversed $142 $-1 #
edge $-1 $204 -46.95455793939024147 $152 46.95455793939024147 $150 $205 forward 7 unknown #
vertex $-1 $102 $206 #
vertex $-1 $164 $207 #
straight-curve $-1 93.90911587878048294 23.32796212844372619 0 0 -1 0 I I #
coedge $-1 $144 $146 $103 $156 reversed $96 $-1 #
edge $-1 $159 -23.32796212844372619 $162 23.32796212844372619 $155 $208 forward 7 unknown #
coedge $-1 $150 $104 $109 $165 forward $142 $-1 #
coedge $-1 $104 $150 $144 $199 reversed $142 $-1 #
vertex $-1 $105 $209 #
straight-curve $-1 46.95455793939024147 46.65592425688745237 17.82228683549329773 -1 0 0 I I #
coedge $-1 $106 $145 $108 $164 reversed $59 $-1 #
vertex $-1 $156 $210 #
straight-curve $-1 46.95455793939024147 0 17.82228683549329773 1 0 0 I I #
edge $-1 $111 -8.911143417746648865 $153 8.911143417746648865 $108 $211 forward 7 unknown #
edge $-1 $112 -8.911143417746648865 $152 8.911143417746648865 $109 $212 forward 7 unknown #
point $-1 93.90911587878048294 0 17.82228683549329773 #
point $-1 93.90911587878048294 46.65592425688745237 17.82228683549329773 #
loop $-1 $-1 $173 $114 #
plane-surface $-1 46.95455793939024147 0 8.911143417746648865 0 1 0 0 0 1 forward_v I I I I #
coedge $-1 $117 $178 $213 $214 forward $67 $-1 #
coedge $-1 $119 $118 $117 $172 reversed $40 $-1 #
edge $-1 $215 -13.74683281543355307 $179 -5.415425810586793176 $117 $216 forward 7 unknown #
coedge $-1 $213 $217 $119 $174 forward $168 $-1 #
edge $-1 $176 -17.59786673570644666 $215 -4.575701364379814784 $173 $218 forward 7 unknown #
coedge $-1 $125 $120 $217 $219 reversed $115 $-1 #
vertex $-1 $121 $220 #
straight-curve $-1 0 13.74683281543355307 9.278977562733551565 0 -1 0 I I #
coedge $-1 $170 $122 $125 $182 forward $67 $-1 #
vertex $-1 $123 $221 #
straight-curve $-1 -7.327683093312437279 8.331407004846759889 17.82228683549330128 -1 0 0 I I #
straight-curve $-1 0 8.331407004846759889 9.278977562733549789 0.754709573287431712 0 0.6560590369687036016 I I #
edge $-1 $126 14.9965551235969663 $222 23.32796212844372619 $125 $223 forward 7 unknown #
point $-1 0 8.331407004846759889 17.82228683549329773 #
point $-1 0 8.331407004846759889 9.278977562733549789 #
edge $-1 $224 1 $224 0 $129 $-1 forward 7 unknown #
vertex $-1 $130 $225 #
ellipse-curve $-1 5.570035472304851965 1.666281400969349846 12.79592262582598572 -0.6560590369687036016 0 0.754709573287431712 0.188677393321857928 0 0.1640147592421759004 1 I I #
point $-1 5.102653828658006319 1.666281400969349846 13.71464695835559411 #
edge $-1 $226 1 $226 0 $133 $-1 forward 7 unknown #
vertex $-1 $134 $227 #
ellipse-curve $-1 5.570035472304851965 4.165703502423379945 12.79592262582598572 -0.6560590369687036016 0 0.754709573287431712 0.188677393321857928 0 0.1640147592421759004 1 I I #
point $-1 5.102653828658006319 4.165703502423379945 13.71464695835559411 #
edge $-1 $228 1 $228 0 $137 $-1 forward 7 unknown #
vertex $-1 $138 $229 #
ellipse-curve $-1 5.570035472304851965 6.66512560387740649 12.79592262582598572 -0.6560590369687036016 0 0.754709573287431712 0.188677393321857928 0 0.1640147592421759004 1 I I #
point $-1 5.102653828658006319 6.66512560387740649 13.71464695835559411 #
plane-surface $-1 93.90911587878048294 23.32796212844372619 8.911143417746648865 -1 0 0 0 0 1 forward_v I I I I #
coedge $-1 $146 $144 $148 $202 reversed $96 $-1 #
edge $-1 $159 -8.911143417746648865 $204 8.911143417746648865 $158 $230 forward 7 unknown #
vertex $-1 $202 $231 #
straight-curve $-1 0 0 8.911143417746648865 0 0 -1 I I #
edge $-1 $200 -23.32796212844372619 $204 23.32796212844372619 $198 $232 forward 7 unknown #
straight-curve $-1 46.95455793939024147 0 0 -1 0 0 I I #
vertex $-1 $151 $233 #
straight-curve $-1 46.95455793939024147 46.65592425688745237 0 1 0 0 I I #
point $-1 93.90911587878048294 46.65592425688745237 0 #
point $-1 93.90911587878048294 0 0 #
straight-curve $-1 0 23.32796212844372619 17.82228683549329773 0 -1 0 I I #
point $-1 0 46.65592425688745237 17.82228683549329773 #
point $-1 0 0 17.82228683549329773 #
straight-curve $-1 93.90911587878048294 0 8.911143417746648865 0 0 -1 I I #
straight-curve $-1 93.90911587878048294 46.65592425688745237 8.911143417746648865 0 0 -1 I I #
coedge $-1 $217 $173 $170 $214 reversed $168 $-1 #
edge $-1 $222 -46.95455793939024147 $215 -37.12660506871795008 $213 $234 forward 7 unknown #
vertex $-1 $174 $235 #
straight-curve $-1 9.827952870672291397 13.74683281543355307 17.82228683549330128 0 1 0 I I #
coedge $-1 $173 $213 $175 $219 forward $168 $-1 #
straight-curve $-1 13.28127849487410117 0 20.82421706606470124 0.754709573287431712 0 0.6560590369687036016 I I #
edge $-1 $222 -8.911143417746648865 $176 -0.3678341449869009239 $175 $236 forward 7 unknown #
point $-1 0 0 9.278977562733549789 #
point $-1 9.827952870672291397 8.331407004846759889 17.82228683549329773 #
vertex $-1 $182 $237 #
straight-curve $-1 0 23.32796212844372619 17.82228683549329773 0 -1 0 I I #
vertex $-1 $185 $238 #
point $-1 5.758712865626712585 1.666281400969349846 12.95993738506816229 #
vertex $-1 $189 $239 #
point $-1 5.758712865626712585 4.165703502423379945 12.95993738506816229 #
vertex $-1 $193 $240 #
point $-1 5.758712865626712585 6.66512560387740649 12.95993738506816229 #
straight-curve $-1 0 46.65592425688745237 8.911143417746648865 0 0 -1 I I #
point $-1 0 0 0 #
straight-curve $-1 0 23.32796212844372619 0 0 1 0 I I #
point $-1 0 46.65592425688745237 0 #
straight-curve $-1 46.95455793939024147 0 17.82228683549329773 1 0 0 I I #
point $-1 9.827952870672291397 0 17.82228683549329773 #
straight-curve $-1 0 0 8.911143417746648865 0 0 -1 I I #
point $-1 0 0 17.82228683549329773 #
point $-1 5.734050231547030307 1.666281400969349846 12.60724523250412865 #
point $-1 5.734050231547030307 4.165703502423379945 12.60724523250412865 #
point $-1 5.734050231547030307 6.66512560387740649 12.60724523250412865 #
End-of-ACIS-data 