600 0 8 0           
95 GICL ACIS Healer - Source: /gicl/data5/repository/Drexel/SM99-DATA/part122.smdg.delta.sat - 6 0 18 ACIS 6.0.3 Solaris 24 Sat Apr 13 20:45:04 2002 
1 9.999999999999999547e-07 1.000000000000000036e-10 
body $-1 $8 $-1 $-1 #
body $-1 $9 $-1 $-1 #
body $-1 $10 $-1 $-1 #
body $-1 $11 $-1 $-1 #
body $-1 $12 $-1 $-1 #
body $-1 $13 $-1 $-1 #
body $-1 $14 $-1 $-1 #
body $-1 $15 $-1 $-1 #
lump $-1 $-1 $16 $0 #
lump $-1 $-1 $17 $1 #
lump $-1 $-1 $18 $2 #
lump $-1 $-1 $19 $3 #
lump $-1 $-1 $20 $4 #
lump $-1 $-1 $21 $5 #
lump $-1 $-1 $22 $6 #
lump $-1 $-1 $23 $7 #
shell $-1 $-1 $-1 $24 $-1 $8 #
shell $-1 $-1 $-1 $25 $-1 $9 #
shell $-1 $-1 $-1 $26 $-1 $10 #
shell $-1 $-1 $-1 $27 $-1 $11 #
shell $-1 $-1 $-1 $28 $-1 $12 #
shell $-1 $-1 $-1 $29 $-1 $13 #
shell $-1 $-1 $-1 $30 $-1 $14 #
shell $-1 $-1 $-1 $31 $-1 $15 #
face $-1 $32 $33 $16 $-1 $34 forward single #
face $-1 $35 $36 $17 $-1 $37 reversed single #
face $-1 $38 $39 $18 $-1 $40 reversed single #
face $-1 $41 $42 $19 $-1 $43 forward single #
face $-1 $44 $45 $20 $-1 $46 forward single #
face $-1 $47 $48 $21 $-1 $49 reversed single #
face $-1 $50 $51 $22 $-1 $52 forward single #
face $-1 $53 $54 $23 $-1 $55 forward single #
face $-1 $56 $57 $16 $-1 $58 reversed single #
loop $-1 $-1 $59 $24 #
plane-surface $-1 68.84365367595447083 31.46298051479089963 16.67969098551691332 0 0 1 1 0 0 forward_v I I I I #
face $-1 $60 $61 $17 $-1 $62 reversed single #
loop $-1 $-1 $63 $25 #
plane-surface $-1 68.84365367595447083 4.447181185939808046 13.55882189578927211 0 0 1 1 0 0 forward_v I I I I #
face $-1 $64 $65 $18 $-1 $66 reversed single #
loop $-1 $-1 $67 $26 #
plane-surface $-1 144.4829137924943723 44.45068535934416332 203.2510947463926527 0 -1 0 -0.7313537098837770145 0 -0.6819983511997929071 forward_v I I I I #
face $-1 $68 $69 $19 $-1 $70 forward single #
loop $-1 $71 $72 $27 #
cone-surface $-1 133.3805478450072144 39.0715544989927821 12.14000383743152156 -0.7313537098837770145 0 -0.6819983511997929071 0.3409991755998964535 0 -0.3656768549418885073 1 I I 0 1 0.5 forward I I I I #
face $-1 $73 $74 $20 $-1 $75 forward single #
loop $-1 $76 $77 $28 #
cone-surface $-1 133.3805478450072144 42.29903301520361225 12.14000383743152156 -0.7313537098837770145 0 -0.6819983511997929071 0.3409991755998964535 0 -0.3656768549418885073 1 I I 0 1 0.5 forward I I I I #
face $-1 $78 $79 $21 $-1 $80 reversed single #
loop $-1 $-1 $81 $29 #
plane-surface $-1 1.421085471520200372e-14 12.1186986037611959 8.3823791294542076 -0.8746197147644345637 0 0.484809606490402778 0.484809606490402778 0 0.8746197147644345637 forward_v I I I I #
face $-1 $82 $83 $22 $-1 $84 forward single #
loop $-1 $85 $86 $30 #
cone-surface $-1 2.861098888213703617 10.73684021866908722 12.21981191010789836 0.8746197147644345637 0 -0.484809606490402778 0.242404803245201389 0 0.4373098573822172819 1 I I 0 1 0.5 forward I I I I #
face $-1 $87 $88 $23 $-1 $89 forward single #
loop $-1 $90 $91 $31 #
cone-surface $-1 2.861098888213703617 13.50055698885329747 12.21981191010789836 0.8746197147644345637 0 -0.484809606490402778 0.242404803245201389 0 0.4373098573822172819 1 I I 0 1 0.5 forward I I I I #
face $-1 $92 $93 $16 $-1 $94 reversed single #
loop $-1 $-1 $95 $32 #
plane-surface $-1 68.84365367595447083 31.46298051479089963 0 0 0 1 1 0 0 forward_v I I I I #
coedge $-1 $96 $97 $98 $99 forward $33 $-1 #
face $-1 $100 $101 $17 $-1 $102 reversed single #
loop $-1 $-1 $103 $35 #
plane-surface $-1 68.84365367595447083 8.894362371879616092 15.11925644065309271 0 -1 0 0 0 -1 forward_v I I I I #
coedge $-1 $104 $105 $106 $107 reversed $36 $-1 #
face $-1 $108 $109 $18 $-1 $110 reversed single #
loop $-1 $-1 $111 $38 #
plane-surface $-1 43.78479075676791865 40.68529375709819362 109.3485781512516297 0.7313537098837770145 0 0.6819983511997929071 0.6819983511997929071 0 -0.7313537098837770145 forward_v I I I I #
coedge $-1 $112 $113 $114 $115 reversed $39 $-1 #
face $-1 $-1 $116 $19 $-1 $117 forward single #
loop $-1 $118 $119 $41 #
cone-surface $-1 132.6346416091416813 39.0715544989927821 11.44443503654203198 -0.7313537098837770145 0 -0.6819983511997929071 0.1704995877999482268 0 -0.1828384274709442536 1 I I -0.7071067811865474617 0.7071067811865474617 0.25 forward I I I I #
loop $-1 $-1 $120 $27 #
coedge $-1 $72 $72 $121 $122 reversed $42 $-1 #
face $-1 $-1 $123 $20 $-1 $124 forward single #
loop $-1 $125 $126 $44 #
cone-surface $-1 132.6346416091416813 42.29903301520361225 11.44443503654203198 -0.7313537098837770145 0 -0.6819983511997929071 0.1704995877999482268 0 -0.1828384274709442536 1 I I -0.7071067811865474617 0.7071067811865474617 0.25 forward I I I I #
loop $-1 $-1 $127 $28 #
coedge $-1 $77 $77 $128 $129 reversed $45 $-1 #
face $-1 $130 $131 $21 $-1 $132 forward single #
loop $-1 $-1 $133 $47 #
plane-surface $-1 -120.4240334828096195 15.3430348356427757 75.13450842545631758 0 -1 0 0.8746197147644345637 0 -0.484809606490402778 forward_v I I I I #
coedge $-1 $134 $135 $136 $137 reversed $48 $-1 #
face $-1 $-1 $138 $22 $-1 $139 forward single #
loop $-1 $140 $141 $50 #
cone-surface $-1 3.641215258145734879 10.73684021866908722 11.78738636110763061 0.8746197147644345637 0 -0.484809606490402778 0.1212024016226006945 0 0.2186549286911086409 1 I I -0.7071067811865474617 0.7071067811865474617 0.25 forward I I I I #
loop $-1 $-1 $142 $30 #
coedge $-1 $86 $86 $143 $144 reversed $51 $-1 #
face $-1 $-1 $145 $23 $-1 $146 forward single #
loop $-1 $147 $148 $53 #
cone-surface $-1 3.641215258145734879 13.50055698885329747 11.78738636110763061 0.8746197147644345637 0 -0.484809606490402778 0.1212024016226006945 0 0.2186549286911086409 1 I I -0.7071067811865474617 0.7071067811865474617 0.25 forward I I I I #
loop $-1 $-1 $149 $31 #
coedge $-1 $91 $91 $150 $151 reversed $54 $-1 #
face $-1 $152 $153 $16 $-1 $154 reversed single #
loop $-1 $-1 $155 $56 #
plane-surface $-1 68.84365367595447083 0 8.339845492758456658 0 1 0 0 0 1 forward_v I I I I #
coedge $-1 $156 $157 $158 $159 forward $57 $-1 #
coedge $-1 $160 $59 $161 $162 forward $33 $-1 #
coedge $-1 $59 $160 $163 $164 forward $33 $-1 #
coedge $-1 $165 $166 $59 $99 reversed $167 $-1 #
edge $-1 $168 -31.46298051479089963 $169 31.46298051479089963 $98 $170 forward 7 unknown #
face $-1 $171 $172 $17 $-1 $173 reversed single #
loop $-1 $-1 $174 $60 #
plane-surface $-1 0 31.46298051479089963 8.339845492758456658 1 0 0 0 0 -1 forward_v I I I I #
coedge $-1 $175 $176 $177 $178 reversed $61 $-1 #
coedge $-1 $179 $63 $180 $181 reversed $36 $-1 #
coedge $-1 $63 $179 $175 $182 forward $36 $-1 #
coedge $-1 $177 $183 $63 $107 forward $184 $-1 #
edge $-1 $185 -17.95508085036535562 $186 -9.060718478485739524 $106 $187 forward 7 unknown #
face $-1 $188 $189 $18 $-1 $190 reversed single #
loop $-1 $-1 $191 $64 #
plane-surface $-1 144.4829137924943723 36.91990215485222393 203.2510947463926527 0 1 0 0.7313537098837770145 0 0.6819983511997929071 forward_v I I I I #
coedge $-1 $192 $193 $194 $195 reversed $65 $-1 #
coedge $-1 $113 $67 $196 $197 reversed $39 $-1 #
coedge $-1 $67 $112 $192 $198 reversed $39 $-1 #
coedge $-1 $194 $199 $67 $115 forward $200 $-1 #
edge $-1 $201 -31.0240236176845201 $202 -23.53664022067022188 $114 $203 forward 7 unknown #
loop $-1 $-1 $121 $68 #
plane-surface $-1 43.78479075676791865 40.68529375709819362 109.3485781512516297 0.7313537098837770145 0 0.6819983511997929071 0.6819983511997929071 0 -0.7313537098837770145 forward_v I I I I #
loop $-1 $-1 $204 $41 #
coedge $-1 $119 $119 $120 $205 reversed $69 $-1 #
coedge $-1 $120 $120 $119 $205 forward $71 $-1 #
coedge $-1 $121 $121 $72 $122 forward $116 $-1 #
edge $-1 $206 0 $206 6.283185307179586232 $121 $207 forward 7 unknown #
loop $-1 $-1 $128 $73 #
plane-surface $-1 43.78479075676791865 40.68529375709819362 109.3485781512516297 0.7313537098837770145 0 0.6819983511997929071 0.6819983511997929071 0 -0.7313537098837770145 forward_v I I I I #
loop $-1 $-1 $208 $44 #
coedge $-1 $126 $126 $127 $209 reversed $74 $-1 #
coedge $-1 $127 $127 $126 $209 forward $76 $-1 #
coedge $-1 $128 $128 $77 $129 forward $123 $-1 #
edge $-1 $210 0 $210 6.283185307179586232 $128 $211 forward 7 unknown #
face $-1 $212 $213 $21 $-1 $214 reversed single #
loop $-1 $-1 $136 $78 #
plane-surface $-1 68.84365367595447083 31.46298051479089963 16.67969098551691332 0 0 1 1 0 0 forward_v I I I I #
coedge $-1 $215 $216 $217 $218 reversed $79 $-1 #
coedge $-1 $219 $81 $220 $221 reversed $48 $-1 #
coedge $-1 $81 $219 $215 $222 forward $48 $-1 #
coedge $-1 $217 $223 $81 $137 forward $131 $-1 #
edge $-1 $224 -12.89647718739643167 $225 -6.447804723633272062 $136 $226 forward 7 unknown #
loop $-1 $-1 $143 $82 #
plane-surface $-1 1.421085471520200372e-14 12.1186986037611959 8.3823791294542076 -0.8746197147644345637 0 0.484809606490402778 0.484809606490402778 0 0.8746197147644345637 forward_v I I I I #
loop $-1 $-1 $227 $50 #
coedge $-1 $141 $141 $142 $228 reversed $83 $-1 #
coedge $-1 $142 $142 $141 $228 forward $85 $-1 #
coedge $-1 $143 $143 $86 $144 forward $138 $-1 #
edge $-1 $229 0 $229 6.283185307179586232 $143 $230 forward 7 unknown #
loop $-1 $-1 $150 $87 #
plane-surface $-1 1.421085471520200372e-14 12.1186986037611959 8.3823791294542076 -0.8746197147644345637 0 0.484809606490402778 0.484809606490402778 0 0.8746197147644345637 forward_v I I I I #
loop $-1 $-1 $231 $53 #
coedge $-1 $148 $148 $149 $232 reversed $88 $-1 #
coedge $-1 $149 $149 $148 $232 forward $90 $-1 #
coedge $-1 $150 $150 $91 $151 forward $145 $-1 #
edge $-1 $233 0 $233 6.283185307179586232 $150 $234 forward 7 unknown #
face $-1 $235 $236 $16 $-1 $237 reversed single #
loop $-1 $-1 $238 $92 #
plane-surface $-1 0 31.46298051479089963 8.339845492758456658 1 0 0 0 0 -1 forward_v I I I I #
coedge $-1 $239 $163 $240 $241 forward $93 $-1 #
coedge $-1 $242 $95 $239 $243 forward $57 $-1 #
coedge $-1 $95 $242 $244 $245 forward $57 $-1 #
coedge $-1 $166 $165 $95 $159 reversed $167 $-1 #
edge $-1 $246 -31.46298051479089963 $247 31.46298051479089963 $158 $248 forward 7 unknown #
coedge $-1 $97 $96 $249 $250 forward $33 $-1 #
coedge $-1 $251 $252 $96 $162 reversed $236 $-1 #
edge $-1 $169 -68.84365367595447083 $253 68.84365367595447083 $161 $254 forward 7 unknown #
coedge $-1 $155 $255 $97 $164 reversed $93 $-1 #
edge $-1 $256 -68.84365367595447083 $168 68.84365367595447083 $163 $257 forward 7 unknown #
coedge $-1 $158 $98 $255 $258 forward $167 $-1 #
coedge $-1 $98 $158 $251 $259 reversed $167 $-1 #
loop $-1 $-1 $165 $235 #
vertex $-1 $99 $260 #
vertex $-1 $99 $261 #
straight-curve $-1 137.6873073519089417 31.46298051479089963 16.67969098551691332 0 1 0 I I #
face $-1 $262 $263 $17 $-1 $264 forward single #
loop $-1 $-1 $180 $100 #
plane-surface $-1 68.84365367595447083 0 8.339845492758456658 0 1 0 0 0 1 forward_v I I I I #
coedge $-1 $265 $266 $267 $268 forward $101 $-1 #
coedge $-1 $267 $103 $105 $182 reversed $61 $-1 #
coedge $-1 $103 $267 $269 $270 reversed $61 $-1 #
coedge $-1 $271 $106 $103 $178 forward $184 $-1 #
edge $-1 $186 1.829270929083497421 $272 4.950140018811138631 $177 $273 forward 7 unknown #
coedge $-1 $105 $104 $265 $274 reversed $36 $-1 #
coedge $-1 $275 $276 $104 $181 forward $172 $-1 #
edge $-1 $277 -68.84365367595447083 $185 68.84365367595447083 $180 $278 forward 7 unknown #
edge $-1 $279 -68.84365367595447083 $186 68.84365367595447083 $175 $280 forward 7 unknown #
coedge $-1 $106 $271 $275 $281 forward $184 $-1 #
loop $-1 $-1 $177 $262 #
vertex $-1 $181 $282 #
vertex $-1 $107 $283 #
straight-curve $-1 137.6873073519089417 17.95508085036535562 13.55882189578927211 0 1 0 I I #
face $-1 $-1 $200 $18 $-1 $284 forward single #
loop $-1 $-1 $285 $108 #
plane-surface $-1 137.6873073519089417 31.46298051479089963 8.339845492758456658 -1 0 0 0 0 1 forward_v I I I I #
coedge $-1 $286 $287 $288 $289 reversed $109 $-1 #
coedge $-1 $290 $111 $113 $198 forward $65 $-1 #
coedge $-1 $111 $290 $286 $291 forward $65 $-1 #
coedge $-1 $288 $114 $111 $195 forward $200 $-1 #
edge $-1 $202 -8.376548223399616688 $292 -0.8457650189076773017 $194 $293 forward 7 unknown #
coedge $-1 $294 $295 $112 $197 forward $189 $-1 #
edge $-1 $296 -97.14501500405037859 $201 -89.11577913405864138 $196 $297 forward 7 unknown #
edge $-1 $202 126.7087127792941317 $296 137.6873073519089417 $113 $298 forward 7 unknown #
coedge $-1 $114 $288 $294 $299 forward $200 $-1 #
loop $-1 $-1 $288 $188 #
vertex $-1 $197 $300 #
vertex $-1 $115 $301 #
straight-curve $-1 106.6632837342244216 44.45068535934416332 16.67969098551691332 -1 0 0 I I #
coedge $-1 $204 $204 $-1 $302 reversed $118 $-1 #
edge $-1 $303 0 $303 6.283185307179586232 $119 $304 forward 7 unknown #
vertex $-1 $122 $305 #
ellipse-curve $-1 133.9436156534017925 39.0715544989927821 12.66507305052105181 0.7313537098837770145 0 0.6819983511997929071 0.3409991755998964535 0 -0.3656768549418885073 1 I I #
coedge $-1 $208 $208 $-1 $306 reversed $125 $-1 #
edge $-1 $307 0 $307 6.283185307179586232 $126 $308 forward 7 unknown #
vertex $-1 $129 $309 #
ellipse-curve $-1 133.9436156534017925 42.29903301520361225 12.66507305052105181 0.7313537098837770145 0 0.6819983511997929071 0.3409991755998964535 0 -0.3656768549418885073 1 I I #
face $-1 $-1 $310 $21 $-1 $311 forward single #
loop $-1 $-1 $312 $130 #
plane-surface $-1 0 31.46298051479089963 8.339845492758456658 1 0 0 0 0 -1 forward_v I I I I #
coedge $-1 $216 $133 $135 $222 reversed $79 $-1 #
coedge $-1 $133 $215 $312 $313 reversed $79 $-1 #
coedge $-1 $314 $136 $133 $218 forward $131 $-1 #
edge $-1 $225 -30.38946479737317929 $315 -25.79018990342757434 $217 $316 forward 7 unknown #
coedge $-1 $135 $134 $317 $318 reversed $48 $-1 #
coedge $-1 $319 $320 $134 $221 forward $310 $-1 #
edge $-1 $321 -19.63413518016243486 $224 -10.14736999982633137 $220 $322 forward 7 unknown #
edge $-1 $323 -2.864047285311476366e-14 $225 9.486765180336075076 $215 $324 forward 7 unknown #
coedge $-1 $136 $314 $319 $325 forward $131 $-1 #
vertex $-1 $221 $326 #
vertex $-1 $137 $327 #
straight-curve $-1 4.599274893945590748 21.79083955927604777 16.67969098551691332 0 1 0 I I #
coedge $-1 $227 $227 $-1 $328 reversed $140 $-1 #
edge $-1 $329 0 $329 6.283185307179586232 $141 $330 forward 7 unknown #
vertex $-1 $144 $331 #
ellipse-curve $-1 2.299637446972809585 10.73684021866908722 12.53103505748555335 -0.8746197147644345637 0 0.484809606490402778 0.242404803245201389 0 0.4373098573822172819 1 I I #
coedge $-1 $231 $231 $-1 $332 reversed $147 $-1 #
edge $-1 $333 0 $333 6.283185307179586232 $148 $334 forward 7 unknown #
vertex $-1 $151 $335 #
ellipse-curve $-1 2.299637446972809585 13.50055698885329747 12.53103505748555335 -0.8746197147644345637 0 0.484809606490402778 0.242404803245201389 0 0.4373098573822172819 1 I I #
face $-1 $-1 $167 $16 $-1 $336 reversed single #
loop $-1 $-1 $251 $152 #
plane-surface $-1 68.84365367595447083 62.92596102958179927 8.339845492758456658 0 -1 0 0 0 -1 forward_v I I I I #
coedge $-1 $337 $249 $252 $338 forward $153 $-1 #
coedge $-1 $255 $155 $156 $243 reversed $93 $-1 #
coedge $-1 $249 $337 $155 $241 reversed $153 $-1 #
edge $-1 $256 -8.339845492758456658 $339 8.339845492758456658 $240 $340 forward 7 unknown #
coedge $-1 $157 $156 $337 $341 forward $57 $-1 #
edge $-1 $247 -68.84365367595447083 $339 68.84365367595447083 $239 $342 forward 7 unknown #
coedge $-1 $252 $251 $157 $245 reversed $236 $-1 #
edge $-1 $343 -68.84365367595447083 $246 68.84365367595447083 $244 $344 forward 7 unknown #
vertex $-1 $159 $345 #
vertex $-1 $258 $346 #
straight-curve $-1 137.6873073519089417 31.46298051479089963 0 0 -1 0 I I #
coedge $-1 $238 $240 $160 $250 reversed $153 $-1 #
edge $-1 $253 -31.46298051479089963 $256 31.46298051479089963 $249 $347 forward 7 unknown #
coedge $-1 $244 $161 $166 $259 forward $236 $-1 #
coedge $-1 $161 $244 $238 $338 reversed $236 $-1 #
vertex $-1 $162 $348 #
straight-curve $-1 68.84365367595447083 62.92596102958179927 16.67969098551691332 -1 0 0 I I #
coedge $-1 $163 $239 $165 $258 reversed $93 $-1 #
vertex $-1 $250 $349 #
straight-curve $-1 68.84365367595447083 0 16.67969098551691332 1 0 0 I I #
edge $-1 $168 -8.339845492758456658 $247 8.339845492758456658 $165 $350 forward 7 unknown #
edge $-1 $169 -8.339845492758456658 $246 8.339845492758456658 $166 $351 forward 7 unknown #
point $-1 137.6873073519089417 0 16.67969098551691332 #
point $-1 137.6873073519089417 62.92596102958179927 16.67969098551691332 #
face $-1 $-1 $184 $17 $-1 $352 reversed single #
loop $-1 $-1 $269 $171 #
plane-surface $-1 68.84365367595447083 31.46298051479089963 16.67969098551691332 0 0 1 1 0 0 forward_v I I I I #
coedge $-1 $353 $174 $179 $274 forward $101 $-1 #
coedge $-1 $174 $353 $354 $355 reversed $101 $-1 #
coedge $-1 $176 $175 $174 $268 reversed $61 $-1 #
edge $-1 $356 -4.950140018811138631 $279 -1.829270929083497421 $174 $357 forward 7 unknown #
coedge $-1 $354 $358 $176 $270 forward $263 $-1 #
edge $-1 $272 -68.84365367595447083 $356 68.84365367595447083 $269 $359 forward 7 unknown #
coedge $-1 $183 $177 $358 $360 reversed $184 $-1 #
vertex $-1 $178 $361 #
straight-curve $-1 137.6873073519089417 8.894362371879616092 11.72955096670577468 0 0 1 I I #
edge $-1 $279 9.060718478485739524 $277 17.95508085036535562 $265 $362 forward 7 unknown #
coedge $-1 $363 $180 $183 $281 reversed $172 $-1 #
coedge $-1 $180 $363 $353 $364 forward $172 $-1 #
vertex $-1 $181 $365 #
straight-curve $-1 68.84365367595447083 0 13.55882189578927211 1 0 0 I I #
vertex $-1 $274 $366 #
straight-curve $-1 68.84365367595447083 8.894362371879616092 13.55882189578927211 1 0 0 I I #
edge $-1 $367 -8.339845492758456658 $185 -5.218976403030815447 $183 $368 forward 7 unknown #
point $-1 137.6873073519089417 0 13.55882189578927211 #
point $-1 137.6873073519089417 8.894362371879616092 13.55882189578927211 #
plane-surface $-1 68.84365367595447083 31.46298051479089963 16.67969098551691332 0 0 1 1 0 0 forward_v I I I I #
coedge $-1 $295 $294 $287 $369 forward $189 $-1 #
coedge $-1 $287 $191 $193 $291 reversed $109 $-1 #
coedge $-1 $191 $286 $285 $369 reversed $109 $-1 #
coedge $-1 $199 $194 $191 $289 forward $200 $-1 #
edge $-1 $292 23.53664022067022188 $370 31.0240236176845201 $288 $371 forward 7 unknown #
coedge $-1 $193 $192 $295 $372 reversed $65 $-1 #
edge $-1 $373 -137.6873073519089417 $292 -126.7087127792941317 $286 $374 forward 7 unknown #
vertex $-1 $195 $375 #
straight-curve $-1 130.1999239548946434 36.07413713594454663 16.67969098551690621 0 -1 0 I I #
coedge $-1 $285 $196 $199 $299 reversed $189 $-1 #
coedge $-1 $196 $285 $290 $372 forward $189 $-1 #
vertex $-1 $197 $376 #
straight-curve $-1 137.6873073519089417 44.45068535934416332 105.7954701195755547 0 0 1 I I #
straight-curve $-1 43.78479075676791865 44.45068535934416332 109.3485781512516297 0.6819983511997929071 0 -0.7313537098837770145 I I #
edge $-1 $370 5.456921640061324297 $201 12.98770484455326368 $294 $377 forward 7 unknown #
point $-1 137.6873073519089417 44.45068535934416332 16.67969098551691332 #
point $-1 130.1999239548946434 44.45068535934416332 16.67969098551691332 #
edge $-1 $378 1 $378 0 $204 $-1 forward 7 unknown #
vertex $-1 $205 $379 #
ellipse-curve $-1 132.8174800366126078 39.0715544989927821 11.61493462434198065 0.7313537098837770145 0 0.6819983511997929071 0.3409991755998964535 0 -0.3656768549418885073 1 I I #
point $-1 134.284614829001697 39.0715544989927821 12.29939619557917396 #
edge $-1 $380 1 $380 0 $208 $-1 forward 7 unknown #
vertex $-1 $209 $381 #
ellipse-curve $-1 132.8174800366126078 42.29903301520361225 11.61493462434198065 0.7313537098837770145 0 0.6819983511997929071 0.3409991755998964535 0 -0.3656768549418885073 1 I I #
point $-1 134.284614829001697 42.29903301520361225 12.29939619557917396 #
loop $-1 $-1 $220 $212 #
plane-surface $-1 68.84365367595447083 8.894362371879616092 15.11925644065309271 0 -1 0 0 0 -1 forward_v I I I I #
coedge $-1 $317 $382 $216 $313 forward $213 $-1 #
edge $-1 $315 25.0574859735904738 $323 33.35479782965320794 $312 $383 forward 7 unknown #
coedge $-1 $223 $217 $382 $384 forward $131 $-1 #
vertex $-1 $384 $385 #
straight-curve $-1 -25.79018990342757434 15.3430348356427757 16.67969098551691332 -1 0 0 I I #
coedge $-1 $386 $312 $219 $318 forward $213 $-1 #
edge $-1 $323 6.447804723633272062 $321 12.89647718739643167 $317 $387 forward 7 unknown #
coedge $-1 $320 $220 $223 $325 reversed $310 $-1 #
coedge $-1 $220 $319 $386 $388 reversed $310 $-1 #
vertex $-1 $388 $389 #
straight-curve $-1 9.518817350473923966 8.894362371879616092 25.55478084037419961 0.484809606490402778 0 0.8746197147644345637 I I #
vertex $-1 $318 $390 #
straight-curve $-1 1.421085471520200372e-14 15.3430348356427757 8.3823791294542076 0.484809606490402778 0 0.8746197147644345637 I I #
edge $-1 $391 -68.84365367595447083 $224 -64.24437878200886587 $223 $392 forward 7 unknown #
point $-1 4.599274893945604958 8.894362371879616092 16.67969098551691332 #
point $-1 4.599274893945604958 15.3430348356427757 16.67969098551691332 #
edge $-1 $393 1 $393 0 $227 $-1 forward 7 unknown #
vertex $-1 $228 $394 #
ellipse-curve $-1 3.422560329454626071 10.73684021866908722 11.90858876273023093 -0.8746197147644345637 0 0.484809606490402778 0.242404803245201389 0 0.4373098573822172819 1 I I #
point $-1 2.542042250217988908 10.73684021866908722 12.96834491486778163 #
edge $-1 $395 1 $395 0 $231 $-1 forward 7 unknown #
vertex $-1 $232 $396 #
ellipse-curve $-1 3.422560329454626071 13.50055698885329747 11.90858876273023093 -0.8746197147644345637 0 0.484809606490402778 0.242404803245201389 0 0.4373098573822172819 1 I I #
point $-1 2.542042250217988908 13.50055698885329747 12.96834491486778163 #
plane-surface $-1 137.6873073519089417 31.46298051479089963 8.339845492758456658 -1 0 0 0 0 1 forward_v I I I I #
coedge $-1 $240 $238 $242 $341 reversed $153 $-1 #
edge $-1 $253 -8.339845492758456658 $343 8.339845492758456658 $252 $397 forward 7 unknown #
vertex $-1 $341 $398 #
straight-curve $-1 0 0 8.339845492758456658 0 0 -1 I I #
edge $-1 $339 -31.46298051479089963 $343 31.46298051479089963 $337 $399 forward 7 unknown #
straight-curve $-1 68.84365367595447083 0 0 -1 0 0 I I #
vertex $-1 $245 $400 #
straight-curve $-1 68.84365367595447083 62.92596102958179927 0 1 0 0 I I #
point $-1 137.6873073519089417 62.92596102958179927 0 #
point $-1 137.6873073519089417 0 0 #
straight-curve $-1 0 31.46298051479089963 16.67969098551691332 0 -1 0 I I #
point $-1 0 62.92596102958179927 16.67969098551691332 #
point $-1 0 0 16.67969098551691332 #
straight-curve $-1 137.6873073519089417 0 8.339845492758456658 0 0 -1 I I #
straight-curve $-1 137.6873073519089417 62.92596102958179927 8.339845492758456658 0 0 -1 I I #
plane-surface $-1 137.6873073519089417 31.46298051479089963 8.339845492758456658 -1 0 0 0 0 1 forward_v I I I I #
coedge $-1 $266 $265 $276 $364 reversed $101 $-1 #
coedge $-1 $401 $269 $266 $355 forward $263 $-1 #
edge $-1 $356 22.56861814291128354 $402 31.46298051479089963 $266 $403 forward 7 unknown #
vertex $-1 $355 $404 #
straight-curve $-1 0 8.894362371879616092 11.72955096670577468 0 0 -1 I I #
coedge $-1 $269 $401 $271 $360 forward $263 $-1 #
straight-curve $-1 68.84365367595447083 8.894362371879616092 16.67969098551691332 -1 0 0 I I #
edge $-1 $367 -31.46298051479089963 $272 -22.56861814291128354 $271 $405 forward 7 unknown #
point $-1 137.6873073519089417 8.894362371879616092 16.67969098551691332 #
straight-curve $-1 0 17.95508085036535562 13.55882189578927211 0 -1 0 I I #
coedge $-1 $276 $275 $401 $406 reversed $172 $-1 #
edge $-1 $402 -8.339845492758456658 $277 -5.218976403030815447 $353 $407 forward 7 unknown #
point $-1 0 0 13.55882189578927211 #
point $-1 0 8.894362371879616092 13.55882189578927211 #
vertex $-1 $360 $408 #
straight-curve $-1 137.6873073519089417 0 8.339845492758456658 0 0 -1 I I #
edge $-1 $370 89.11577913405864138 $373 97.14501500405037859 $285 $409 forward 7 unknown #
vertex $-1 $299 $410 #
straight-curve $-1 106.6632837342244216 36.91990215485222393 16.67969098551691332 1 0 0 I I #
edge $-1 $373 0.8457650189076773017 $296 8.376548223399616688 $295 $411 forward 7 unknown #
vertex $-1 $372 $412 #
straight-curve $-1 43.78479075676791865 36.91990215485222393 109.3485781512516297 -0.6819983511997929071 0 0.7313537098837770145 I I #
point $-1 130.1999239548946434 36.91990215485222393 16.67969098551691332 #
point $-1 137.6873073519089417 44.45068535934416332 8.650455115525176097 #
straight-curve $-1 137.6873073519089417 31.46298051479089963 16.67969098551691332 0 1 0 I I #
vertex $-1 $302 $413 #
point $-1 133.1584792122125123 39.0715544989927821 11.24925776940009214 #
vertex $-1 $306 $414 #
point $-1 133.1584792122125123 42.29903301520361225 11.24925776940009214 #
coedge $-1 $312 $386 $314 $384 reversed $213 $-1 #
straight-curve $-1 0 15.3430348356427757 41.73717695910738712 0 0 -1 I I #
edge $-1 $315 16.11994567914812393 $391 22.56861814291128354 $382 $415 forward 7 unknown #
point $-1 0 15.3430348356427757 16.67969098551691332 #
coedge $-1 $382 $317 $320 $388 forward $213 $-1 #
straight-curve $-1 0 21.79083955927604777 8.382379129454196942 0 -1 0 I I #
edge $-1 $321 -33.35479782965320794 $391 -25.0574859735904738 $386 $416 forward 7 unknown #
point $-1 0 8.894362371879616092 8.382379129454182731 #
point $-1 0 15.3430348356427757 8.382379129454182731 #
vertex $-1 $388 $417 #
straight-curve $-1 68.84365367595447083 8.894362371879616092 16.67969098551691332 1 0 0 I I #
vertex $-1 $328 $418 #
point $-1 3.664965132699833816 10.73684021866908722 12.34589862011244854 #
vertex $-1 $332 $419 #
point $-1 3.664965132699833816 13.50055698885329747 12.34589862011244854 #
straight-curve $-1 0 62.92596102958179927 8.339845492758456658 0 0 -1 I I #
point $-1 0 0 0 #
straight-curve $-1 0 31.46298051479089963 0 0 1 0 I I #
point $-1 0 62.92596102958179927 0 #
coedge $-1 $358 $354 $363 $406 forward $263 $-1 #
vertex $-1 $355 $420 #
straight-curve $-1 0 31.46298051479089963 16.67969098551691332 0 -1 0 I I #
point $-1 0 8.894362371879616092 16.67969098551691332 #
straight-curve $-1 137.6873073519089417 31.46298051479089963 16.67969098551691332 0 1 0 I I #
edge $-1 $402 -68.84365367595447083 $367 68.84365367595447083 $363 $421 forward 7 unknown #
straight-curve $-1 0 0 8.339845492758456658 0 0 -1 I I #
point $-1 137.6873073519089417 0 16.67969098551691332 #
straight-curve $-1 137.6873073519089417 36.91990215485222393 105.7954701195755547 0 0 -1 I I #
point $-1 137.6873073519089417 36.91990215485222393 16.67969098551691332 #
straight-curve $-1 137.6873073519089417 36.07413713594454663 8.650455115525183203 0 1 0 I I #
point $-1 137.6873073519089417 36.91990215485222393 8.650455115525176097 #
point $-1 132.4518031816707548 39.0715544989927821 11.27393544874208331 #
point $-1 132.4518031816707548 42.29903301520361225 11.27393544874208331 #
straight-curve $-1 0 31.46298051479089963 16.67969098551691332 0 -1 0 I I #
straight-curve $-1 0 8.894362371879616092 41.73717695910738712 0 0 1 I I #
point $-1 0 8.894362371879616092 16.67969098551691332 #
point $-1 3.859870186836843686 10.73684021866908722 11.66618395948503029 #
point $-1 3.859870186836843686 13.50055698885329747 11.66618395948503029 #
point $-1 0 0 16.67969098551691332 #
straight-curve $-1 68.84365367595447083 0 16.67969098551691332 1 0 0 I I #
End-of-ACIS-data 