300 0 14 0           
7 Unknown 11 ACIS 3.0 NT 24 Fri Oct 30 17:42:21 1998 
-1 9.9999999999999995e-007 1e-010 
body $14 $15 $-1 $16 #
body $17 $18 $-1 $19 #
body $20 $21 $-1 $22 #
body $23 $24 $-1 $25 #
body $26 $27 $-1 $28 #
body $29 $30 $-1 $31 #
body $32 $33 $-1 $34 #
body $35 $36 $-1 $37 #
body $38 $39 $-1 $40 #
body $41 $42 $-1 $43 #
body $44 $45 $-1 $46 #
body $47 $48 $-1 $49 #
body $50 $51 $-1 $52 #
body $53 $54 $-1 $55 #
display_attribute-st-attrib $-1 $56 $-1 $0 1 #
lump $-1 $-1 $57 $0 #
transform $-1 1 0 0 0 1 0 0 0 1 46.805627613147372 28.042380397579961 12.285860912246418 1 rotate no_reflect no_shear #
display_attribute-st-attrib $-1 $58 $-1 $1 3 #
lump $-1 $-1 $59 $1 #
transform $-1 1 0 0 0 1 0 0 0 1 46.805627613147372 28.042380397579961 12.285860912246418 1 rotate no_reflect no_shear #
display_attribute-st-attrib $-1 $60 $-1 $2 3 #
lump $-1 $-1 $61 $2 #
transform $-1 1 0 0 0 1 0 0 0 1 46.805627613147372 28.042380397579961 12.285860912246418 1 rotate no_reflect no_shear #
display_attribute-st-attrib $-1 $62 $-1 $3 3 #
lump $-1 $-1 $63 $3 #
transform $-1 1 0 0 0 1 0 0 0 1 46.805627613147372 28.042380397579961 12.285860912246418 1 rotate no_reflect no_shear #
display_attribute-st-attrib $-1 $64 $-1 $4 3 #
lump $-1 $-1 $65 $4 #
transform $-1 1 0 0 0 1 0 0 0 1 46.805627613147372 28.042380397579961 12.285860912246418 1 rotate no_reflect no_shear #
display_attribute-st-attrib $-1 $66 $-1 $5 3 #
lump $-1 $-1 $67 $5 #
transform $-1 1 0 0 0 1 0 0 0 1 46.805627613147372 28.042380397579961 12.285860912246418 1 rotate no_reflect no_shear #
display_attribute-st-attrib $-1 $68 $-1 $6 3 #
lump $-1 $-1 $69 $6 #
transform $-1 1 0 0 0 1 0 0 0 1 46.805627613147372 28.042380397579961 12.285860912246418 1 rotate no_reflect no_shear #
display_attribute-st-attrib $-1 $70 $-1 $7 3 #
lump $-1 $-1 $71 $7 #
transform $-1 1 0 0 0 1 0 0 0 1 46.805627613147372 28.042380397579961 12.285860912246418 1 rotate no_reflect no_shear #
display_attribute-st-attrib $-1 $72 $-1 $8 3 #
lump $-1 $-1 $73 $8 #
transform $-1 1 0 0 0 1 0 0 0 1 46.805627613147372 28.042380397579961 12.285860912246418 1 rotate no_reflect no_shear #
display_attribute-st-attrib $-1 $74 $-1 $9 3 #
lump $-1 $-1 $75 $9 #
transform $-1 1 0 0 0 1 0 0 0 1 46.805627613147372 28.042380397579961 12.285860912246418 1 rotate no_reflect no_shear #
display_attribute-st-attrib $-1 $76 $-1 $10 3 #
lump $-1 $-1 $77 $10 #
transform $-1 1 0 0 0 1 0 0 0 1 46.805627613147372 28.042380397579961 12.285860912246418 1 rotate no_reflect no_shear #
display_attribute-st-attrib $-1 $78 $-1 $11 3 #
lump $-1 $-1 $79 $11 #
transform $-1 1 0 0 0 1 0 0 0 1 46.805627613147372 28.042380397579961 12.285860912246418 1 rotate no_reflect no_shear #
display_attribute-st-attrib $-1 $80 $-1 $12 3 #
lump $-1 $-1 $81 $12 #
transform $-1 1 0 0 0 1 0 0 0 1 46.805627613147372 28.042380397579961 12.285860912246418 1 rotate no_reflect no_shear #
display_attribute-st-attrib $-1 $82 $-1 $13 3 #
lump $-1 $-1 $83 $13 #
transform $-1 1 0 0 0 1 0 0 0 1 46.805627613147372 28.042380397579961 12.285860912246418 1 rotate no_reflect no_shear #
id_attribute-st-attrib $-1 $-1 $14 $0 4 #
shell $-1 $-1 $-1 $84 $-1 $15 #
id_attribute-st-attrib $-1 $-1 $17 $1 9 #
shell $-1 $-1 $-1 $85 $-1 $18 #
id_attribute-st-attrib $-1 $-1 $20 $2 24 #
shell $-1 $-1 $-1 $86 $-1 $21 #
id_attribute-st-attrib $-1 $-1 $23 $3 32 #
shell $-1 $-1 $-1 $87 $-1 $24 #
id_attribute-st-attrib $-1 $-1 $26 $4 41 #
shell $-1 $-1 $-1 $88 $-1 $27 #
id_attribute-st-attrib $-1 $-1 $29 $5 54 #
shell $-1 $-1 $-1 $89 $-1 $30 #
id_attribute-st-attrib $-1 $-1 $32 $6 65 #
shell $-1 $-1 $-1 $90 $-1 $33 #
id_attribute-st-attrib $-1 $-1 $35 $7 77 #
shell $-1 $-1 $-1 $91 $-1 $36 #
id_attribute-st-attrib $-1 $-1 $38 $8 93 #
shell $-1 $-1 $-1 $92 $-1 $39 #
id_attribute-st-attrib $-1 $-1 $41 $9 107 #
shell $-1 $-1 $-1 $93 $-1 $42 #
id_attribute-st-attrib $-1 $-1 $44 $10 122 #
shell $-1 $-1 $-1 $94 $-1 $45 #
id_attribute-st-attrib $-1 $-1 $47 $11 138 #
shell $-1 $-1 $-1 $95 $-1 $48 #
id_attribute-st-attrib $-1 $-1 $50 $12 155 #
shell $-1 $-1 $-1 $96 $-1 $51 #
id_attribute-st-attrib $-1 $-1 $53 $13 173 #
shell $-1 $-1 $-1 $97 $-1 $54 #
face $-1 $98 $99 $57 $-1 $100 forward single #
face $-1 $101 $102 $59 $-1 $103 reversed single #
face $-1 $104 $105 $61 $-1 $106 reversed single #
face $-1 $107 $108 $63 $-1 $109 forward single #
face $-1 $110 $111 $65 $-1 $112 forward single #
face $-1 $113 $114 $67 $-1 $115 reversed single #
face $-1 $116 $117 $69 $-1 $118 forward single #
face $-1 $119 $120 $71 $-1 $121 forward single #
face $-1 $122 $123 $73 $-1 $124 reversed single #
face $-1 $125 $126 $75 $-1 $127 forward single #
face $-1 $128 $129 $77 $-1 $130 forward single #
face $-1 $131 $132 $79 $-1 $133 reversed single #
face $-1 $134 $135 $81 $-1 $136 forward single #
face $-1 $137 $138 $83 $-1 $139 forward single #
face $-1 $140 $141 $57 $-1 $142 reversed single #
loop $-1 $-1 $143 $84 #
plane-surface $-1 0 0 12.285860912246418 0 0 1 1 0 0 forward_v I I I I #
face $-1 $144 $145 $59 $-1 $146 reversed single #
loop $-1 $-1 $147 $85 #
plane-surface $-1 -41.912883896680292 0 6.8241701390804685 0 0 1 1 0 0 forward_v I I I I #
face $-1 $148 $149 $61 $-1 $150 reversed single #
loop $-1 $-1 $151 $86 #
plane-surface $-1 -29.884621180346286 77.708833448889862 106.35338843164416 1 0 0 0 -0.84804810408105047 -0.52991925155115449 forward_v I I I I #
face $-1 $152 $153 $63 $-1 $154 forward single #
loop $-1 $155 $156 $87 #
cone-surface $-1 -26.620109140347058 26.400474905808839 10.314657043603908 0 -0.84804810408105047 -0.52991925155115449 0.5 0 0 1 I I 0 1 forward I I I I #
face $-1 $157 $158 $65 $-1 $159 forward single #
loop $-1 $160 $161 $88 #
cone-surface $-1 -21.723341080348217 26.400474905808839 10.314657043603908 0 -0.84804810408105047 -0.52991925155115449 0.5 0 0 1 I I 0 1 forward I I I I #
face $-1 $162 $163 $67 $-1 $164 reversed single #
loop $-1 $-1 $165 $89 #
plane-surface $-1 -8.9281792320061371 77.708833448889862 106.35338843164416 1 0 0 0 -0.84804810408105047 -0.52991925155115449 forward_v I I I I #
face $-1 $166 $167 $69 $-1 $168 forward single #
loop $-1 $169 $170 $90 #
cone-surface $-1 -5.6636671920069119 26.400474905808839 10.314657043603908 0 -0.84804810408105047 -0.52991925155115449 0.5 0 0 1 I I 0 1 forward I I I I #
face $-1 $171 $172 $71 $-1 $173 forward single #
loop $-1 $174 $175 $91 #
cone-surface $-1 -0.76689913200807069 26.400474905808839 10.314657043603908 0 -0.84804810408105047 -0.52991925155115449 0.5 0 0 1 I I 0 1 forward I I I I #
face $-1 $176 $177 $73 $-1 $178 reversed single #
loop $-1 $-1 $179 $92 #
plane-surface $-1 12.028262716334005 77.708833448889862 106.35338843164416 1 0 0 0 -0.84804810408105047 -0.52991925155115449 forward_v I I I I #
face $-1 $180 $181 $75 $-1 $182 forward single #
loop $-1 $183 $184 $93 #
cone-surface $-1 15.292774756333237 26.400474905808839 10.314657043603908 0 -0.84804810408105047 -0.52991925155115449 0.5 0 0 1 I I 0 1 forward I I I I #
face $-1 $185 $186 $77 $-1 $187 forward single #
loop $-1 $188 $189 $94 #
cone-surface $-1 20.189542816332072 26.400474905808839 10.314657043603908 0 -0.84804810408105047 -0.52991925155115449 0.5 0 0 1 I I 0 1 forward I I I I #
face $-1 $190 $191 $79 $-1 $192 reversed single #
loop $-1 $-1 $193 $95 #
plane-surface $-1 32.984704664674148 77.708833448889862 106.35338843164416 1 0 0 0 -0.84804810408105047 -0.52991925155115449 forward_v I I I I #
face $-1 $194 $195 $81 $-1 $196 forward single #
loop $-1 $197 $198 $96 #
cone-surface $-1 36.24921670467338 26.400474905808839 10.314657043603908 0 -0.84804810408105047 -0.52991925155115449 0.5 0 0 1 I I 0 1 forward I I I I #
face $-1 $199 $200 $83 $-1 $201 forward single #
loop $-1 $202 $203 $97 #
cone-surface $-1 41.145984764672214 26.400474905808839 10.314657043603908 0 -0.84804810408105047 -0.52991925155115449 0.5 0 0 1 I I 0 1 forward I I I I #
face $-1 $204 $205 $57 $-1 $206 reversed single #
loop $-1 $-1 $207 $98 #
plane-surface $-1 0 0 -12.285860912246418 0 0 1 1 0 0 forward_v I I I I #
coedge $-1 $208 $209 $210 $211 forward $99 $-1 #
face $-1 $212 $213 $59 $-1 $214 reversed single #
loop $-1 $-1 $215 $101 #
plane-surface $-1 -37.020140180213211 0 9.5550155256634444 -1 0 0 0 0 1 forward_v I I I I #
coedge $-1 $216 $217 $218 $219 forward $102 $-1 #
face $-1 $220 $221 $61 $-1 $222 reversed single #
loop $-1 $-1 $223 $104 #
plane-surface $-1 -24.171725110347637 -1.6780140664167362 56.746982125361946 0 0.84804810408105047 0.52991925155115449 1 0 0 forward_v I I I I #
coedge $-1 $224 $225 $226 $227 reversed $105 $-1 #
face $-1 $-1 $228 $63 $-1 $229 forward single #
loop $-1 $230 $231 $107 #
cone-surface $-1 -26.620109140347058 25.515559083466627 9.7617002856031352 0 -0.84804810408105047 -0.52991925155115449 0.25 0 0 1 I I -0.70710678118654746 0.70710678118654746 forward I I I I #
loop $-1 $-1 $232 $87 #
coedge $-1 $156 $156 $233 $234 reversed $108 $-1 #
face $-1 $-1 $235 $65 $-1 $236 forward single #
loop $-1 $237 $238 $110 #
cone-surface $-1 -21.723341080348217 25.515559083466627 9.7617002856031352 0 -0.84804810408105047 -0.52991925155115449 0.25 0 0 1 I I -0.70710678118654746 0.70710678118654746 forward I I I I #
loop $-1 $-1 $239 $88 #
coedge $-1 $161 $161 $240 $241 reversed $111 $-1 #
face $-1 $242 $243 $67 $-1 $244 reversed single #
loop $-1 $-1 $245 $113 #
plane-surface $-1 -3.2152831620074878 -1.6780140664167362 56.746982125361946 0 0.84804810408105047 0.52991925155115449 1 0 0 forward_v I I I I #
coedge $-1 $246 $247 $248 $249 reversed $114 $-1 #
face $-1 $-1 $250 $69 $-1 $251 forward single #
loop $-1 $252 $253 $116 #
cone-surface $-1 -5.6636671920069119 25.515559083466627 9.7617002856031352 0 -0.84804810408105047 -0.52991925155115449 0.25 0 0 1 I I -0.70710678118654746 0.70710678118654746 forward I I I I #
loop $-1 $-1 $254 $90 #
coedge $-1 $170 $170 $255 $256 reversed $117 $-1 #
face $-1 $-1 $257 $71 $-1 $258 forward single #
loop $-1 $259 $260 $119 #
cone-surface $-1 -0.76689913200807069 25.515559083466627 9.7617002856031352 0 -0.84804810408105047 -0.52991925155115449 0.25 0 0 1 I I -0.70710678118654746 0.70710678118654746 forward I I I I #
loop $-1 $-1 $261 $91 #
coedge $-1 $175 $175 $262 $263 reversed $120 $-1 #
face $-1 $264 $265 $73 $-1 $266 reversed single #
loop $-1 $-1 $267 $122 #
plane-surface $-1 17.741158786332655 -1.6780140664167362 56.746982125361946 0 0.84804810408105047 0.52991925155115449 1 0 0 forward_v I I I I #
coedge $-1 $268 $269 $270 $271 reversed $123 $-1 #
face $-1 $-1 $272 $75 $-1 $273 forward single #
loop $-1 $274 $275 $125 #
cone-surface $-1 15.292774756333237 25.515559083466627 9.7617002856031352 0 -0.84804810408105047 -0.52991925155115449 0.25 0 0 1 I I -0.70710678118654746 0.70710678118654746 forward I I I I #
loop $-1 $-1 $276 $93 #
coedge $-1 $184 $184 $277 $278 reversed $126 $-1 #
face $-1 $-1 $279 $77 $-1 $280 forward single #
loop $-1 $281 $282 $128 #
cone-surface $-1 20.189542816332072 25.515559083466627 9.7617002856031352 0 -0.84804810408105047 -0.52991925155115449 0.25 0 0 1 I I -0.70710678118654746 0.70710678118654746 forward I I I I #
loop $-1 $-1 $283 $94 #
coedge $-1 $189 $189 $284 $285 reversed $129 $-1 #
face $-1 $286 $287 $79 $-1 $288 reversed single #
loop $-1 $-1 $289 $131 #
plane-surface $-1 38.697600734672797 -1.6780140664167362 56.746982125361946 0 0.84804810408105047 0.52991925155115449 1 0 0 forward_v I I I I #
coedge $-1 $290 $291 $292 $293 reversed $132 $-1 #
face $-1 $-1 $294 $81 $-1 $295 forward single #
loop $-1 $296 $297 $134 #
cone-surface $-1 36.24921670467338 25.515559083466627 9.7617002856031352 0 -0.84804810408105047 -0.52991925155115449 0.25 0 0 1 I I -0.70710678118654746 0.70710678118654746 forward I I I I #
loop $-1 $-1 $298 $96 #
coedge $-1 $198 $198 $299 $300 reversed $135 $-1 #
face $-1 $-1 $301 $83 $-1 $302 forward single #
loop $-1 $303 $304 $137 #
cone-surface $-1 41.145984764672214 25.515559083466627 9.7617002856031352 0 -0.84804810408105047 -0.52991925155115449 0.25 0 0 1 I I -0.70710678118654746 0.70710678118654746 forward I I I I #
loop $-1 $-1 $305 $97 #
coedge $-1 $203 $203 $306 $307 reversed $138 $-1 #
face $-1 $308 $309 $57 $-1 $310 reversed single #
loop $-1 $-1 $311 $140 #
plane-surface $-1 0 -28.042380397579961 0 0 1 0 0 0 1 forward_v I I I I #
coedge $-1 $312 $313 $314 $315 forward $141 $-1 #
coedge $-1 $316 $143 $317 $318 forward $99 $-1 #
coedge $-1 $143 $316 $319 $320 forward $99 $-1 #
coedge $-1 $321 $322 $143 $211 reversed $323 $-1 #
edge $-1 $324 $325 $210 $326 forward #
face $-1 $327 $328 $59 $-1 $329 reversed single #
loop $-1 $-1 $330 $144 #
plane-surface $-1 0 28.042380397579961 0 0 -1 0 0 0 -1 forward_v I I I I #
coedge $-1 $218 $331 $332 $333 reversed $145 $-1 #
coedge $-1 $334 $147 $335 $336 reversed $102 $-1 #
coedge $-1 $147 $334 $337 $338 reversed $102 $-1 #
coedge $-1 $339 $215 $147 $219 reversed $145 $-1 #
edge $-1 $340 $341 $218 $342 forward #
face $-1 $343 $344 $61 $-1 $345 forward single #
loop $-1 $-1 $346 $148 #
plane-surface $-1 -18.458829040348988 77.708833448889862 106.35338843164416 -1 0 0 0 0.84804810408105047 0.52991925155115449 forward_v I I I I #
coedge $-1 $347 $348 $349 $350 reversed $149 $-1 #
coedge $-1 $225 $151 $351 $352 reversed $105 $-1 #
coedge $-1 $151 $224 $347 $353 reversed $105 $-1 #
coedge $-1 $349 $354 $151 $227 forward $344 $-1 #
edge $-1 $355 $356 $226 $357 forward #
loop $-1 $-1 $233 $152 #
plane-surface $-1 -24.171725110347637 -1.6780140664167362 56.746982125361946 0 0.84804810408105047 0.52991925155115449 1 0 0 forward_v I I I I #
loop $-1 $-1 $358 $107 #
coedge $-1 $231 $231 $232 $359 reversed $153 $-1 #
coedge $-1 $232 $232 $231 $359 forward $155 $-1 #
coedge $-1 $233 $233 $156 $234 forward $228 $-1 #
edge $-1 $360 $360 $233 $361 forward #
loop $-1 $-1 $240 $157 #
plane-surface $-1 -24.171725110347637 -1.6780140664167362 56.746982125361946 0 0.84804810408105047 0.52991925155115449 1 0 0 forward_v I I I I #
loop $-1 $-1 $362 $110 #
coedge $-1 $238 $238 $239 $363 reversed $158 $-1 #
coedge $-1 $239 $239 $238 $363 forward $160 $-1 #
coedge $-1 $240 $240 $161 $241 forward $235 $-1 #
edge $-1 $364 $364 $240 $365 forward #
face $-1 $366 $367 $67 $-1 $368 forward single #
loop $-1 $-1 $369 $162 #
plane-surface $-1 2.4976129079911615 77.708833448889862 106.35338843164416 -1 0 0 0 0.84804810408105047 0.52991925155115449 forward_v I I I I #
coedge $-1 $370 $371 $372 $373 reversed $163 $-1 #
coedge $-1 $247 $165 $374 $375 reversed $114 $-1 #
coedge $-1 $165 $246 $370 $376 reversed $114 $-1 #
coedge $-1 $372 $377 $165 $249 forward $367 $-1 #
edge $-1 $378 $379 $248 $380 forward #
loop $-1 $-1 $255 $166 #
plane-surface $-1 -3.2152831620074878 -1.6780140664167362 56.746982125361946 0 0.84804810408105047 0.52991925155115449 1 0 0 forward_v I I I I #
loop $-1 $-1 $381 $116 #
coedge $-1 $253 $253 $254 $382 reversed $167 $-1 #
coedge $-1 $254 $254 $253 $382 forward $169 $-1 #
coedge $-1 $255 $255 $170 $256 forward $250 $-1 #
edge $-1 $383 $383 $255 $384 forward #
loop $-1 $-1 $262 $171 #
plane-surface $-1 -3.2152831620074878 -1.6780140664167362 56.746982125361946 0 0.84804810408105047 0.52991925155115449 1 0 0 forward_v I I I I #
loop $-1 $-1 $385 $119 #
coedge $-1 $260 $260 $261 $386 reversed $172 $-1 #
coedge $-1 $261 $261 $260 $386 forward $174 $-1 #
coedge $-1 $262 $262 $175 $263 forward $257 $-1 #
edge $-1 $387 $387 $262 $388 forward #
face $-1 $389 $390 $73 $-1 $391 forward single #
loop $-1 $-1 $392 $176 #
plane-surface $-1 23.454054856331304 77.708833448889862 106.35338843164416 -1 0 0 0 0.84804810408105047 0.52991925155115449 forward_v I I I I #
coedge $-1 $393 $394 $395 $396 reversed $177 $-1 #
coedge $-1 $269 $179 $397 $398 reversed $123 $-1 #
coedge $-1 $179 $268 $393 $399 reversed $123 $-1 #
coedge $-1 $395 $400 $179 $271 forward $390 $-1 #
edge $-1 $401 $402 $270 $403 forward #
loop $-1 $-1 $277 $180 #
plane-surface $-1 17.741158786332655 -1.6780140664167362 56.746982125361946 0 0.84804810408105047 0.52991925155115449 1 0 0 forward_v I I I I #
loop $-1 $-1 $404 $125 #
coedge $-1 $275 $275 $276 $405 reversed $181 $-1 #
coedge $-1 $276 $276 $275 $405 forward $183 $-1 #
coedge $-1 $277 $277 $184 $278 forward $272 $-1 #
edge $-1 $406 $406 $277 $407 forward #
loop $-1 $-1 $284 $185 #
plane-surface $-1 17.741158786332655 -1.6780140664167362 56.746982125361946 0 0.84804810408105047 0.52991925155115449 1 0 0 forward_v I I I I #
loop $-1 $-1 $408 $128 #
coedge $-1 $282 $282 $283 $409 reversed $186 $-1 #
coedge $-1 $283 $283 $282 $409 forward $188 $-1 #
coedge $-1 $284 $284 $189 $285 forward $279 $-1 #
edge $-1 $410 $410 $284 $411 forward #
face $-1 $412 $413 $79 $-1 $414 forward single #
loop $-1 $-1 $415 $190 #
plane-surface $-1 44.410496804671446 77.708833448889862 106.35338843164416 -1 0 0 0 0.84804810408105047 0.52991925155115449 forward_v I I I I #
coedge $-1 $416 $417 $418 $419 reversed $191 $-1 #
coedge $-1 $291 $193 $420 $421 reversed $132 $-1 #
coedge $-1 $193 $290 $416 $422 reversed $132 $-1 #
coedge $-1 $418 $423 $193 $293 forward $413 $-1 #
edge $-1 $424 $425 $292 $426 forward #
loop $-1 $-1 $299 $194 #
plane-surface $-1 38.697600734672797 -1.6780140664167362 56.746982125361946 0 0.84804810408105047 0.52991925155115449 1 0 0 forward_v I I I I #
loop $-1 $-1 $427 $134 #
coedge $-1 $297 $297 $298 $428 reversed $195 $-1 #
coedge $-1 $298 $298 $297 $428 forward $197 $-1 #
coedge $-1 $299 $299 $198 $300 forward $294 $-1 #
edge $-1 $429 $429 $299 $430 forward #
loop $-1 $-1 $306 $199 #
plane-surface $-1 38.697600734672797 -1.6780140664167362 56.746982125361946 0 0.84804810408105047 0.52991925155115449 1 0 0 forward_v I I I I #
loop $-1 $-1 $431 $137 #
coedge $-1 $304 $304 $305 $432 reversed $200 $-1 #
coedge $-1 $305 $305 $304 $432 forward $202 $-1 #
coedge $-1 $306 $306 $203 $307 forward $301 $-1 #
edge $-1 $433 $433 $306 $434 forward #
face $-1 $435 $436 $57 $-1 $437 reversed single #
loop $-1 $-1 $438 $204 #
plane-surface $-1 -46.805627613147372 0 0 1 0 0 0 0 -1 forward_v I I I I #
coedge $-1 $439 $319 $440 $441 forward $205 $-1 #
coedge $-1 $442 $207 $439 $443 forward $141 $-1 #
coedge $-1 $207 $442 $444 $445 forward $141 $-1 #
coedge $-1 $322 $321 $207 $315 reversed $323 $-1 #
edge $-1 $446 $447 $314 $448 forward #
coedge $-1 $209 $208 $449 $450 forward $99 $-1 #
coedge $-1 $451 $452 $208 $318 reversed $436 $-1 #
edge $-1 $325 $453 $317 $454 forward #
coedge $-1 $311 $455 $209 $320 reversed $205 $-1 #
edge $-1 $456 $324 $319 $457 forward #
coedge $-1 $314 $210 $455 $458 forward $323 $-1 #
coedge $-1 $210 $314 $451 $459 reversed $323 $-1 #
loop $-1 $-1 $321 $435 #
vertex $-1 $211 $460 #
vertex $-1 $211 $461 #
straight-curve $-1 46.805627613147372 0 12.285860912246418 0 1 0 I I #
face $-1 $462 $463 $59 $-1 $464 forward single #
loop $-1 $-1 $465 $212 #
plane-surface $-1 -46.805627613147372 0 0 1 0 0 0 0 -1 forward_v I I I I #
coedge $-1 $337 $466 $339 $467 forward $213 $-1 #
coedge $-1 $215 $339 $468 $469 reversed $145 $-1 #
coedge $-1 $470 $335 $215 $333 forward $471 $-1 #
edge $-1 $341 $472 $332 $473 forward #
coedge $-1 $217 $216 $465 $474 reversed $102 $-1 #
coedge $-1 $332 $475 $216 $336 forward $471 $-1 #
edge $-1 $476 $341 $335 $477 forward #
coedge $-1 $478 $330 $217 $338 forward $213 $-1 #
edge $-1 $340 $479 $337 $480 forward #
coedge $-1 $331 $218 $330 $467 reversed $145 $-1 #
vertex $-1 $338 $481 #
vertex $-1 $336 $482 #
straight-curve $-1 -37.020140180213211 0 6.8241701390804685 0 -1 0 I I #
face $-1 $-1 $483 $61 $-1 $484 reversed single #
loop $-1 $-1 $226 $220 #
plane-surface $-1 0 0 12.285860912246418 0 0 1 1 0 0 forward_v I I I I #
coedge $-1 $485 $486 $487 $488 reversed $221 $-1 #
coedge $-1 $489 $223 $225 $353 forward $149 $-1 #
coedge $-1 $223 $489 $485 $490 forward $149 $-1 #
coedge $-1 $487 $226 $223 $350 forward $344 $-1 #
edge $-1 $356 $491 $349 $492 forward #
coedge $-1 $493 $494 $224 $352 forward $483 $-1 #
edge $-1 $495 $355 $351 $496 forward #
edge $-1 $356 $495 $225 $497 forward #
coedge $-1 $226 $487 $493 $498 forward $344 $-1 #
vertex $-1 $352 $499 #
vertex $-1 $227 $500 #
straight-curve $-1 -29.884621180346286 38.854416724444931 12.28586091224642 0 -1 0 I I #
coedge $-1 $358 $358 $-1 $501 reversed $230 $-1 #
edge $-1 $502 $502 $231 $503 forward #
vertex $-1 $234 $504 #
ellipse-curve $-1 -26.620109140347058 27.073378702130768 10.73513398871688 0 0.84804810408105047 0.52991925155115449 0.5 0 0 1 I I #
coedge $-1 $362 $362 $-1 $505 reversed $237 $-1 #
edge $-1 $506 $506 $238 $507 forward #
vertex $-1 $241 $508 #
ellipse-curve $-1 -21.723341080348217 27.073378702130768 10.73513398871688 0 0.84804810408105047 0.52991925155115449 0.5 0 0 1 I I #
face $-1 $-1 $509 $67 $-1 $510 reversed single #
loop $-1 $-1 $248 $242 #
plane-surface $-1 0 0 12.285860912246418 0 0 1 1 0 0 forward_v I I I I #
coedge $-1 $511 $512 $513 $514 reversed $243 $-1 #
coedge $-1 $515 $245 $247 $376 forward $163 $-1 #
coedge $-1 $245 $515 $511 $516 forward $163 $-1 #
coedge $-1 $513 $248 $245 $373 forward $367 $-1 #
edge $-1 $379 $517 $372 $518 forward #
coedge $-1 $519 $520 $246 $375 forward $509 $-1 #
edge $-1 $521 $378 $374 $522 forward #
edge $-1 $379 $521 $247 $523 forward #
coedge $-1 $248 $513 $519 $524 forward $367 $-1 #
vertex $-1 $249 $525 #
vertex $-1 $249 $526 #
straight-curve $-1 -8.9281792320061371 38.854416724444931 12.28586091224642 0 -1 0 I I #
coedge $-1 $381 $381 $-1 $527 reversed $252 $-1 #
edge $-1 $528 $528 $253 $529 forward #
vertex $-1 $256 $530 #
ellipse-curve $-1 -5.6636671920069119 27.073378702130768 10.73513398871688 0 0.84804810408105047 0.52991925155115449 0.5 0 0 1 I I #
coedge $-1 $385 $385 $-1 $531 reversed $259 $-1 #
edge $-1 $532 $532 $260 $533 forward #
vertex $-1 $263 $534 #
ellipse-curve $-1 -0.76689913200807069 27.073378702130768 10.73513398871688 0 0.84804810408105047 0.52991925155115449 0.5 0 0 1 I I #
face $-1 $-1 $535 $73 $-1 $536 reversed single #
loop $-1 $-1 $270 $264 #
plane-surface $-1 0 0 12.285860912246418 0 0 1 1 0 0 forward_v I I I I #
coedge $-1 $537 $538 $539 $540 reversed $265 $-1 #
coedge $-1 $541 $267 $269 $399 forward $177 $-1 #
coedge $-1 $267 $541 $537 $542 forward $177 $-1 #
coedge $-1 $539 $270 $267 $396 forward $390 $-1 #
edge $-1 $402 $543 $395 $544 forward #
coedge $-1 $545 $546 $268 $398 forward $535 $-1 #
edge $-1 $547 $401 $397 $548 forward #
edge $-1 $402 $547 $269 $549 forward #
coedge $-1 $270 $539 $545 $550 forward $390 $-1 #
vertex $-1 $271 $551 #
vertex $-1 $271 $552 #
straight-curve $-1 12.028262716334005 38.854416724444931 12.28586091224642 0 -1 0 I I #
coedge $-1 $404 $404 $-1 $553 reversed $274 $-1 #
edge $-1 $554 $554 $275 $555 forward #
vertex $-1 $278 $556 #
ellipse-curve $-1 15.292774756333237 27.073378702130768 10.73513398871688 0 0.84804810408105047 0.52991925155115449 0.5 0 0 1 I I #
coedge $-1 $408 $408 $-1 $557 reversed $281 $-1 #
edge $-1 $558 $558 $282 $559 forward #
vertex $-1 $285 $560 #
ellipse-curve $-1 20.189542816332072 27.073378702130768 10.73513398871688 0 0.84804810408105047 0.52991925155115449 0.5 0 0 1 I I #
face $-1 $-1 $561 $79 $-1 $562 reversed single #
loop $-1 $-1 $292 $286 #
plane-surface $-1 0 0 12.285860912246418 0 0 1 1 0 0 forward_v I I I I #
coedge $-1 $563 $564 $565 $566 reversed $287 $-1 #
coedge $-1 $567 $289 $291 $422 forward $191 $-1 #
coedge $-1 $289 $567 $563 $568 forward $191 $-1 #
coedge $-1 $565 $292 $289 $419 forward $413 $-1 #
edge $-1 $425 $569 $418 $570 forward #
coedge $-1 $571 $572 $290 $421 forward $561 $-1 #
edge $-1 $573 $424 $420 $574 forward #
edge $-1 $425 $573 $291 $575 forward #
coedge $-1 $292 $565 $571 $576 forward $413 $-1 #
vertex $-1 $293 $577 #
vertex $-1 $293 $578 #
straight-curve $-1 32.984704664674148 38.854416724444931 12.28586091224642 0 -1 0 I I #
coedge $-1 $427 $427 $-1 $579 reversed $296 $-1 #
edge $-1 $580 $580 $297 $581 forward #
vertex $-1 $300 $582 #
ellipse-curve $-1 36.24921670467338 27.073378702130768 10.73513398871688 0 0.84804810408105047 0.52991925155115449 0.5 0 0 1 I I #
coedge $-1 $431 $431 $-1 $583 reversed $303 $-1 #
edge $-1 $584 $584 $304 $585 forward #
vertex $-1 $307 $586 #
ellipse-curve $-1 41.145984764672214 27.073378702130768 10.73513398871688 0 0.84804810408105047 0.52991925155115449 0.5 0 0 1 I I #
face $-1 $-1 $323 $57 $-1 $587 reversed single #
loop $-1 $-1 $451 $308 #
plane-surface $-1 0 28.042380397579961 0 0 -1 0 0 0 -1 forward_v I I I I #
coedge $-1 $588 $449 $452 $589 forward $309 $-1 #
coedge $-1 $455 $311 $312 $443 reversed $205 $-1 #
coedge $-1 $449 $588 $311 $441 reversed $309 $-1 #
edge $-1 $456 $590 $440 $591 forward #
coedge $-1 $313 $312 $588 $592 forward $141 $-1 #
edge $-1 $447 $590 $439 $593 forward #
coedge $-1 $452 $451 $313 $445 reversed $436 $-1 #
edge $-1 $594 $446 $444 $595 forward #
vertex $-1 $315 $596 #
vertex $-1 $458 $597 #
straight-curve $-1 46.805627613147372 0 -12.285860912246418 0 -1 0 I I #
coedge $-1 $438 $440 $316 $450 reversed $309 $-1 #
edge $-1 $453 $456 $449 $598 forward #
coedge $-1 $444 $317 $322 $459 forward $436 $-1 #
coedge $-1 $317 $444 $438 $589 reversed $436 $-1 #
vertex $-1 $318 $599 #
straight-curve $-1 0 28.042380397579961 12.285860912246418 -1 0 0 I I #
coedge $-1 $319 $439 $321 $458 reversed $205 $-1 #
vertex $-1 $450 $600 #
straight-curve $-1 0 -28.042380397579961 12.285860912246418 1 0 0 I I #
edge $-1 $324 $447 $321 $601 forward #
edge $-1 $325 $446 $322 $602 forward #
point $-1 46.805627613147372 -28.042380397579961 12.285860912246418 #
point $-1 46.805627613147372 28.042380397579961 12.285860912246418 #
face $-1 $-1 $471 $59 $-1 $603 reversed single #
loop $-1 $-1 $468 $327 #
plane-surface $-1 0 0 12.285860912246418 0 0 1 1 0 0 forward_v I I I I #
coedge $-1 $604 $605 $334 $474 forward $328 $-1 #
coedge $-1 $330 $478 $606 $607 reversed $213 $-1 #
edge $-1 $608 $340 $330 $609 forward #
coedge $-1 $606 $610 $331 $469 forward $463 $-1 #
edge $-1 $472 $608 $468 $611 forward #
coedge $-1 $475 $332 $610 $612 reversed $471 $-1 #
loop $-1 $-1 $332 $462 #
vertex $-1 $333 $613 #
straight-curve $-1 -37.020140180213211 -28.042380397579961 4.7775077628317222 0 0 1 I I #
edge $-1 $479 $476 $465 $614 forward #
coedge $-1 $335 $470 $604 $615 forward $471 $-1 #
vertex $-1 $474 $616 #
straight-curve $-1 -20.956441948340146 -28.042380397579961 6.8241701390804685 1 0 0 I I #
coedge $-1 $466 $337 $605 $617 reversed $213 $-1 #
vertex $-1 $474 $618 #
straight-curve $-1 -20.956441948340146 28.042380397579961 6.8241701390804685 -1 0 0 I I #
point $-1 -37.020140180213211 28.042380397579961 6.8241701390804685 #
point $-1 -37.020140180213211 -28.042380397579961 6.8241701390804685 #
loop $-1 $-1 $351 $343 #
plane-surface $-1 0 28.042380397579961 0 0 -1 0 0 0 -1 forward_v I I I I #
coedge $-1 $486 $346 $348 $490 reversed $221 $-1 #
coedge $-1 $346 $485 $619 $620 reversed $221 $-1 #
coedge $-1 $354 $349 $346 $488 forward $344 $-1 #
edge $-1 $491 $621 $487 $622 forward #
coedge $-1 $348 $347 $494 $623 reversed $149 $-1 #
edge $-1 $624 $491 $485 $625 forward #
vertex $-1 $350 $626 #
straight-curve $-1 -12.085862555173819 26.104377006681588 12.285860912246424 1 0 0 I I #
coedge $-1 $619 $351 $354 $498 reversed $483 $-1 #
coedge $-1 $351 $619 $489 $623 forward $483 $-1 #
vertex $-1 $352 $627 #
straight-curve $-1 -29.884621180346286 28.042380397579961 53.176694215822081 0 0 1 I I #
straight-curve $-1 -29.884621180346286 -1.6780140664167362 56.746982125361946 0 0.52991925155115449 -0.84804810408105047 I I #
edge $-1 $621 $355 $493 $628 forward #
point $-1 -29.884621180346286 28.042380397579961 12.285860912246418 #
point $-1 -29.884621180346286 26.104377006681592 12.28586091224642 #
edge $-1 $629 $629 $358 $-1 forward #
vertex $-1 $359 $630 #
ellipse-curve $-1 -26.620109140347058 25.727571109486888 9.8941800984909243 0 0.84804810408105047 0.52991925155115449 0.5 0 0 1 I I #
point $-1 -26.120109140347058 27.073378702130789 10.735133988716893 #
edge $-1 $631 $631 $362 $-1 forward #
vertex $-1 $363 $632 #
ellipse-curve $-1 -21.723341080348217 25.727571109486888 9.8941800984909243 0 0.84804810408105047 0.52991925155115449 0.5 0 0 1 I I #
point $-1 -21.223341080348217 27.073378702130789 10.735133988716893 #
loop $-1 $-1 $374 $366 #
plane-surface $-1 0 28.042380397579961 0 0 -1 0 0 0 -1 forward_v I I I I #
coedge $-1 $512 $369 $371 $516 reversed $243 $-1 #
coedge $-1 $369 $511 $633 $634 reversed $243 $-1 #
coedge $-1 $377 $372 $369 $514 forward $367 $-1 #
edge $-1 $517 $635 $513 $636 forward #
coedge $-1 $371 $370 $520 $637 reversed $163 $-1 #
edge $-1 $638 $517 $511 $639 forward #
vertex $-1 $373 $640 #
straight-curve $-1 -1.6076415810037439 26.104377006681588 12.285860912246424 1 0 0 I I #
coedge $-1 $633 $374 $377 $524 reversed $509 $-1 #
coedge $-1 $374 $633 $515 $637 forward $509 $-1 #
vertex $-1 $375 $641 #
straight-curve $-1 -8.9281792320061371 28.042380397579961 53.176694215822081 0 0 1 I I #
straight-curve $-1 -8.9281792320061371 -1.6780140664167362 56.746982125361946 0 0.52991925155115449 -0.84804810408105047 I I #
edge $-1 $635 $378 $519 $642 forward #
point $-1 -8.9281792320061371 28.042380397579961 12.285860912246418 #
point $-1 -8.9281792320061371 26.104377006681592 12.28586091224642 #
edge $-1 $643 $643 $381 $-1 forward #
vertex $-1 $382 $644 #
ellipse-curve $-1 -5.6636671920069119 25.727571109486888 9.8941800984909243 0 0.84804810408105047 0.52991925155115449 0.5 0 0 1 I I #
point $-1 -5.1636671920069119 27.073378702130789 10.735133988716893 #
edge $-1 $645 $645 $385 $-1 forward #
vertex $-1 $386 $646 #
ellipse-curve $-1 -0.76689913200807069 25.727571109486888 9.8941800984909243 0 0.84804810408105047 0.52991925155115449 0.5 0 0 1 I I #
point $-1 -0.26689913200807069 27.073378702130789 10.735133988716893 #
loop $-1 $-1 $397 $389 #
plane-surface $-1 0 28.042380397579961 0 0 -1 0 0 0 -1 forward_v I I I I #
coedge $-1 $538 $392 $394 $542 reversed $265 $-1 #
coedge $-1 $392 $537 $647 $648 reversed $265 $-1 #
coedge $-1 $400 $395 $392 $540 forward $390 $-1 #
edge $-1 $543 $649 $539 $650 forward #
coedge $-1 $394 $393 $546 $651 reversed $177 $-1 #
edge $-1 $652 $543 $537 $653 forward #
vertex $-1 $396 $654 #
straight-curve $-1 8.8705793931663273 26.104377006681588 12.285860912246424 1 0 0 I I #
coedge $-1 $647 $397 $400 $550 reversed $535 $-1 #
coedge $-1 $397 $647 $541 $651 forward $535 $-1 #
vertex $-1 $398 $655 #
straight-curve $-1 12.028262716334005 28.042380397579961 53.176694215822081 0 0 1 I I #
straight-curve $-1 12.028262716334005 -1.6780140664167362 56.746982125361946 0 0.52991925155115449 -0.84804810408105047 I I #
edge $-1 $649 $401 $545 $656 forward #
point $-1 12.028262716334005 28.042380397579961 12.285860912246418 #
point $-1 12.028262716334005 26.104377006681592 12.28586091224642 #
edge $-1 $657 $657 $404 $-1 forward #
vertex $-1 $405 $658 #
ellipse-curve $-1 15.292774756333237 25.727571109486888 9.8941800984909243 0 0.84804810408105047 0.52991925155115449 0.5 0 0 1 I I #
point $-1 15.792774756333237 27.073378702130789 10.735133988716893 #
edge $-1 $659 $659 $408 $-1 forward #
vertex $-1 $409 $660 #
ellipse-curve $-1 20.189542816332072 25.727571109486888 9.8941800984909243 0 0.84804810408105047 0.52991925155115449 0.5 0 0 1 I I #
point $-1 20.689542816332072 27.073378702130789 10.735133988716893 #
loop $-1 $-1 $420 $412 #
plane-surface $-1 0 28.042380397579961 0 0 -1 0 0 0 -1 forward_v I I I I #
coedge $-1 $564 $415 $417 $568 reversed $287 $-1 #
coedge $-1 $415 $563 $661 $662 reversed $287 $-1 #
coedge $-1 $423 $418 $415 $566 forward $413 $-1 #
edge $-1 $569 $663 $565 $664 forward #
coedge $-1 $417 $416 $572 $665 reversed $191 $-1 #
edge $-1 $666 $569 $563 $667 forward #
vertex $-1 $419 $668 #
straight-curve $-1 19.348800367336398 26.104377006681588 12.285860912246424 1 0 0 I I #
coedge $-1 $661 $420 $423 $576 reversed $561 $-1 #
coedge $-1 $420 $661 $567 $665 forward $561 $-1 #
vertex $-1 $421 $669 #
straight-curve $-1 32.984704664674148 28.042380397579961 53.176694215822081 0 0 1 I I #
straight-curve $-1 32.984704664674148 -1.6780140664167362 56.746982125361946 0 0.52991925155115449 -0.84804810408105047 I I #
edge $-1 $663 $424 $571 $670 forward #
point $-1 32.984704664674148 28.042380397579961 12.285860912246418 #
point $-1 32.984704664674148 26.104377006681592 12.28586091224642 #
edge $-1 $671 $671 $427 $-1 forward #
vertex $-1 $428 $672 #
ellipse-curve $-1 36.24921670467338 25.727571109486888 9.8941800984909243 0 0.84804810408105047 0.52991925155115449 0.5 0 0 1 I I #
point $-1 36.74921670467338 27.073378702130789 10.735133988716893 #
edge $-1 $673 $673 $431 $-1 forward #
vertex $-1 $432 $674 #
ellipse-curve $-1 41.145984764672214 25.727571109486888 9.8941800984909243 0 0.84804810408105047 0.52991925155115449 0.5 0 0 1 I I #
point $-1 41.645984764672214 27.073378702130789 10.735133988716893 #
plane-surface $-1 46.805627613147372 0 0 -1 0 0 0 0 1 forward_v I I I I #
coedge $-1 $440 $438 $442 $592 reversed $309 $-1 #
edge $-1 $453 $594 $452 $675 forward #
vertex $-1 $592 $676 #
straight-curve $-1 -46.805627613147372 -28.042380397579961 0 0 0 -1 I I #
edge $-1 $590 $594 $588 $677 forward #
straight-curve $-1 0 -28.042380397579961 -12.285860912246418 -1 0 0 I I #
vertex $-1 $445 $678 #
straight-curve $-1 0 28.042380397579961 -12.285860912246418 1 0 0 I I #
point $-1 46.805627613147372 28.042380397579961 -12.285860912246418 #
point $-1 46.805627613147372 -28.042380397579961 -12.285860912246418 #
straight-curve $-1 -46.805627613147372 0 12.285860912246418 0 -1 0 I I #
point $-1 -46.805627613147372 28.042380397579961 12.285860912246418 #
point $-1 -46.805627613147372 -28.042380397579961 12.285860912246418 #
straight-curve $-1 46.805627613147372 -28.042380397579961 0 0 0 -1 I I #
straight-curve $-1 46.805627613147372 28.042380397579961 0 0 0 -1 I I #
plane-surface $-1 0 -28.042380397579961 0 0 1 0 0 0 1 forward_v I I I I #
coedge $-1 $679 $465 $475 $615 reversed $328 $-1 #
coedge $-1 $465 $679 $478 $617 forward $328 $-1 #
coedge $-1 $680 $468 $466 $607 forward $463 $-1 #
edge $-1 $608 $681 $466 $682 forward #
vertex $-1 $607 $683 #
straight-curve $-1 -37.020140180213211 28.042380397579961 4.7775077628317222 0 0 -1 I I #
coedge $-1 $468 $680 $470 $612 forward $463 $-1 #
straight-curve $-1 -37.020140180213211 0 12.285860912246418 0 1 0 I I #
edge $-1 $684 $472 $470 $685 forward #
point $-1 -37.020140180213211 -28.042380397579961 12.28586091224642 #
straight-curve $-1 -46.805627613147372 0 6.8241701390804685 0 -1 0 I I #
edge $-1 $684 $476 $604 $686 forward #
point $-1 -46.805627613147372 -28.042380397579961 6.8241701390804685 #
edge $-1 $681 $479 $478 $687 forward #
point $-1 -46.805627613147372 28.042380397579961 6.8241701390804685 #
coedge $-1 $494 $493 $486 $620 forward $483 $-1 #
edge $-1 $621 $624 $619 $688 forward #
vertex $-1 $498 $689 #
straight-curve $-1 -18.458829040348988 38.854416724444931 12.28586091224642 0 1 0 I I #
edge $-1 $624 $495 $494 $690 forward #
vertex $-1 $623 $691 #
straight-curve $-1 -18.458829040348988 -1.6780140664167362 56.746982125361946 0 -0.52991925155115449 0.84804810408105047 I I #
point $-1 -18.458829040348988 26.104377006681592 12.28586091224642 #
point $-1 -29.884621180346286 28.042380397579961 9.1844070651873153 #
straight-curve $-1 0 28.042380397579961 12.285860912246418 -1 0 0 I I #
vertex $-1 $501 $692 #
point $-1 -26.120109140347058 25.727571109486888 9.8941800984909243 #
vertex $-1 $505 $693 #
point $-1 -21.223341080348217 25.727571109486888 9.8941800984909243 #
coedge $-1 $520 $519 $512 $634 forward $509 $-1 #
edge $-1 $635 $638 $633 $694 forward #
vertex $-1 $524 $695 #
straight-curve $-1 2.4976129079911615 38.854416724444931 12.28586091224642 0 1 0 I I #
edge $-1 $638 $521 $520 $696 forward #
vertex $-1 $637 $697 #
straight-curve $-1 2.4976129079911615 -1.6780140664167362 56.746982125361946 0 -0.52991925155115449 0.84804810408105047 I I #
point $-1 2.4976129079911615 26.104377006681592 12.28586091224642 #
point $-1 -8.9281792320061371 28.042380397579961 9.1844070651873153 #
straight-curve $-1 0 28.042380397579961 12.285860912246418 -1 0 0 I I #
vertex $-1 $527 $698 #
point $-1 -5.1636671920069119 25.727571109486888 9.8941800984909243 #
vertex $-1 $531 $699 #
point $-1 -0.26689913200807069 25.727571109486888 9.8941800984909243 #
coedge $-1 $546 $545 $538 $648 forward $535 $-1 #
edge $-1 $649 $652 $647 $700 forward #
vertex $-1 $550 $701 #
straight-curve $-1 23.454054856331304 38.854416724444931 12.28586091224642 0 1 0 I I #
edge $-1 $652 $547 $546 $702 forward #
vertex $-1 $651 $703 #
straight-curve $-1 23.454054856331304 -1.6780140664167362 56.746982125361946 0 -0.52991925155115449 0.84804810408105047 I I #
point $-1 23.454054856331304 26.104377006681592 12.28586091224642 #
point $-1 12.028262716334005 28.042380397579961 9.1844070651873153 #
straight-curve $-1 0 28.042380397579961 12.285860912246418 -1 0 0 I I #
vertex $-1 $553 $704 #
point $-1 15.792774756333237 25.727571109486888 9.8941800984909243 #
vertex $-1 $557 $705 #
point $-1 20.689542816332072 25.727571109486888 9.8941800984909243 #
coedge $-1 $572 $571 $564 $662 forward $561 $-1 #
edge $-1 $663 $666 $661 $706 forward #
vertex $-1 $576 $707 #
straight-curve $-1 44.410496804671446 38.854416724444931 12.28586091224642 0 1 0 I I #
edge $-1 $666 $573 $572 $708 forward #
vertex $-1 $665 $709 #
straight-curve $-1 44.410496804671446 -1.6780140664167362 56.746982125361946 0 -0.52991925155115449 0.84804810408105047 I I #
point $-1 44.410496804671446 26.104377006681592 12.28586091224642 #
point $-1 32.984704664674148 28.042380397579961 9.1844070651873153 #
straight-curve $-1 0 28.042380397579961 12.285860912246418 -1 0 0 I I #
vertex $-1 $579 $710 #
point $-1 36.74921670467338 25.727571109486888 9.8941800984909243 #
vertex $-1 $583 $711 #
point $-1 41.645984764672214 25.727571109486888 9.8941800984909243 #
straight-curve $-1 -46.805627613147372 28.042380397579961 0 0 0 -1 I I #
point $-1 -46.805627613147372 -28.042380397579961 -12.285860912246418 #
straight-curve $-1 -46.805627613147372 0 -12.285860912246418 0 1 0 I I #
point $-1 -46.805627613147372 28.042380397579961 -12.285860912246418 #
coedge $-1 $605 $604 $680 $712 reversed $328 $-1 #
coedge $-1 $610 $606 $679 $712 forward $463 $-1 #
vertex $-1 $607 $713 #
straight-curve $-1 0 28.042380397579961 12.285860912246418 -1 0 0 I I #
point $-1 -37.020140180213211 28.042380397579961 12.28586091224642 #
vertex $-1 $712 $714 #
straight-curve $-1 0 -28.042380397579961 12.285860912246418 1 0 0 I I #
straight-curve $-1 -46.805627613147372 -28.042380397579961 0 0 0 -1 I I #
straight-curve $-1 -46.805627613147372 28.042380397579961 0 0 0 -1 I I #
straight-curve $-1 -18.458829040348988 28.042380397579961 53.176694215822081 0 0 -1 I I #
point $-1 -18.458829040348988 28.042380397579961 12.285860912246418 #
straight-curve $-1 -12.085862555173819 28.042380397579961 9.1844070651873153 -1 0 0 I I #
point $-1 -18.458829040348988 28.042380397579961 9.1844070651873153 #
point $-1 -26.620109140347058 25.303547057446366 9.6292204727153461 #
point $-1 -21.723341080348217 25.303547057446366 9.6292204727153461 #
straight-curve $-1 2.4976129079911615 28.042380397579961 53.176694215822081 0 0 -1 I I #
point $-1 2.4976129079911615 28.042380397579961 12.285860912246418 #
straight-curve $-1 -1.6076415810037439 28.042380397579961 9.1844070651873153 -1 0 0 I I #
point $-1 2.4976129079911615 28.042380397579961 9.1844070651873153 #
point $-1 -5.6636671920069119 25.303547057446366 9.6292204727153461 #
point $-1 -0.76689913200807069 25.303547057446366 9.6292204727153461 #
straight-curve $-1 23.454054856331304 28.042380397579961 53.176694215822081 0 0 -1 I I #
point $-1 23.454054856331304 28.042380397579961 12.285860912246418 #
straight-curve $-1 8.8705793931663273 28.042380397579961 9.1844070651873153 -1 0 0 I I #
point $-1 23.454054856331304 28.042380397579961 9.1844070651873153 #
point $-1 15.292774756333237 25.303547057446366 9.6292204727153461 #
point $-1 20.189542816332072 25.303547057446366 9.6292204727153461 #
straight-curve $-1 44.410496804671446 28.042380397579961 53.176694215822081 0 0 -1 I I #
point $-1 44.410496804671446 28.042380397579961 12.285860912246418 #
straight-curve $-1 19.348800367336398 28.042380397579961 9.1844070651873153 -1 0 0 I I #
point $-1 44.410496804671446 28.042380397579961 9.1844070651873153 #
point $-1 36.24921670467338 25.303547057446366 9.6292204727153461 #
point $-1 41.145984764672214 25.303547057446366 9.6292204727153461 #
edge $-1 $681 $684 $679 $715 forward #
point $-1 -46.805627613147372 28.042380397579961 12.285860912246418 #
point $-1 -46.805627613147372 -28.042380397579961 12.285860912246418 #
straight-curve $-1 -46.805627613147372 0 12.285860912246418 0 -1 0 I I #
End-of-ACIS-data 