300 0 7 0           
7 Unknown 11 ACIS 3.0 NT 24 Fri Oct 30 21:05:12 1998 
-1 9.9999999999999995e-007 1e-010 
body $7 $8 $-1 $9 #
body $10 $11 $-1 $12 #
body $13 $14 $-1 $15 #
body $16 $17 $-1 $18 #
body $19 $20 $-1 $21 #
body $22 $23 $-1 $24 #
body $25 $26 $-1 $27 #
display_attribute-st-attrib $-1 $28 $-1 $0 1 #
lump $-1 $-1 $29 $0 #
transform $-1 1 0 0 0 1 0 0 0 1 42.221747489852596 17.371130169383857 4.8179744283082808 1 rotate no_reflect no_shear #
display_attribute-st-attrib $-1 $30 $-1 $1 3 #
lump $-1 $-1 $31 $1 #
transform $-1 1 0 0 0 1 0 0 0 1 42.221747489852596 17.371130169383857 4.8179744283082808 1 rotate no_reflect no_shear #
display_attribute-st-attrib $-1 $32 $-1 $2 3 #
lump $-1 $-1 $33 $2 #
transform $-1 1 0 0 0 1 0 0 0 1 42.221747489852596 17.371130169383857 4.8179744283082808 1 rotate no_reflect no_shear #
display_attribute-st-attrib $-1 $34 $-1 $3 3 #
lump $-1 $-1 $35 $3 #
transform $-1 1 0 0 0 1 0 0 0 1 42.221747489852596 17.371130169383857 4.8179744283082808 1 rotate no_reflect no_shear #
display_attribute-st-attrib $-1 $36 $-1 $4 3 #
lump $-1 $-1 $37 $4 #
transform $-1 1 0 0 0 1 0 0 0 1 42.221747489852596 17.371130169383857 4.8179744283082808 1 rotate no_reflect no_shear #
display_attribute-st-attrib $-1 $38 $-1 $5 3 #
lump $-1 $-1 $39 $5 #
transform $-1 1 0 0 0 1 0 0 0 1 42.221747489852596 17.371130169383857 4.8179744283082808 1 rotate no_reflect no_shear #
display_attribute-st-attrib $-1 $40 $-1 $6 3 #
lump $-1 $-1 $41 $6 #
transform $-1 1 0 0 0 1 0 0 0 1 42.221747489852596 17.371130169383857 4.8179744283082808 1 rotate no_reflect no_shear #
id_attribute-st-attrib $-1 $-1 $7 $0 4843 #
shell $-1 $-1 $-1 $42 $-1 $8 #
id_attribute-st-attrib $-1 $-1 $10 $1 4848 #
shell $-1 $-1 $-1 $43 $-1 $11 #
id_attribute-st-attrib $-1 $-1 $13 $2 4856 #
shell $-1 $-1 $-1 $44 $-1 $14 #
id_attribute-st-attrib $-1 $-1 $16 $3 4867 #
shell $-1 $-1 $-1 $45 $-1 $17 #
id_attribute-st-attrib $-1 $-1 $19 $4 4876 #
shell $-1 $-1 $-1 $46 $-1 $20 #
id_attribute-st-attrib $-1 $-1 $22 $5 4889 #
shell $-1 $-1 $-1 $47 $-1 $23 #
id_attribute-st-attrib $-1 $-1 $25 $6 4900 #
shell $-1 $-1 $-1 $48 $-1 $26 #
face $-1 $49 $50 $29 $-1 $51 forward single #
face $-1 $52 $53 $31 $-1 $54 reversed single #
face $-1 $55 $56 $33 $-1 $57 reversed single #
face $-1 $58 $59 $35 $-1 $60 reversed single #
face $-1 $61 $62 $37 $-1 $63 forward single #
face $-1 $64 $65 $39 $-1 $66 reversed single #
face $-1 $67 $68 $41 $-1 $69 forward single #
face $-1 $70 $71 $29 $-1 $72 reversed single #
loop $-1 $-1 $73 $42 #
plane-surface $-1 0 0 4.8179744283082808 0 0 1 1 0 0 forward_v I I I I #
face $-1 $74 $75 $31 $-1 $76 reversed single #
loop $-1 $-1 $77 $43 #
plane-surface $-1 -40.396725184326144 0 1.8179744283082808 0 0 1 1 0 0 forward_v I I I I #
face $-1 $78 $79 $33 $-1 $80 reversed single #
loop $-1 $-1 $81 $44 #
plane-surface $-1 40.396725184326151 0 1.8179744283082808 0 0 1 1 0 0 forward_v I I I I #
face $-1 $82 $83 $35 $-1 $84 reversed single #
loop $-1 $-1 $85 $45 #
plane-surface $-1 -22.114057903576516 49.552575509512792 86.715715471532022 1 0 0 0 -0.68199836817093118 -0.7313536940579346 forward_v I I I I #
face $-1 $86 $87 $37 $-1 $88 forward single #
loop $-1 $89 $90 $46 #
cone-surface $-1 -13.757581522879136 14.813628760958718 2.3419312950135218 0 -0.68199836817093118 -0.7313536940579346 1 0 0 1 I I 0 1 forward I I I I #
face $-1 $91 $92 $39 $-1 $93 reversed single #
loop $-1 $-1 $94 $47 #
plane-surface $-1 -5.4011051421817555 -74.961455948193034 63.021550613922777 -1 0 0 0 -0.68199836817093118 0.7313536940579346 forward_v I I I I #
face $-1 $95 $96 $41 $-1 $97 forward single #
loop $-1 $98 $99 $48 #
cone-surface $-1 -13.757581522879136 -14.813628760958718 2.3419312950135236 0 0.68199836817093118 -0.7313536940579346 1 0 0 1 I I 0 1 forward I I I I #
face $-1 $100 $101 $29 $-1 $102 reversed single #
loop $-1 $-1 $103 $49 #
plane-surface $-1 0 0 -4.8179744283082808 0 0 1 1 0 0 forward_v I I I I #
coedge $-1 $104 $105 $106 $107 forward $50 $-1 #
face $-1 $108 $109 $31 $-1 $110 reversed single #
loop $-1 $-1 $111 $52 #
plane-surface $-1 -38.571702878799691 0 3.3179744283082808 -1 0 0 0 0 1 forward_v I I I I #
coedge $-1 $112 $113 $114 $115 forward $53 $-1 #
face $-1 $116 $117 $33 $-1 $118 forward single #
loop $-1 $-1 $119 $55 #
plane-surface $-1 38.571702878799698 0 3.3179744283082808 1 0 0 0 0 -1 forward_v I I I I #
coedge $-1 $120 $121 $122 $123 reversed $56 $-1 #
face $-1 $124 $125 $35 $-1 $126 reversed single #
loop $-1 $-1 $127 $58 #
plane-surface $-1 -13.757581522879136 -8.0377502692963674 24.957653478961973 0 0.68199836817093118 0.7313536940579346 1 0 0 forward_v I I I I #
coedge $-1 $128 $129 $130 $131 reversed $59 $-1 #
face $-1 $-1 $132 $37 $-1 $133 forward single #
loop $-1 $134 $135 $61 #
cone-surface $-1 -13.757581522879136 13.820987805887821 1.2774542181675788 0 -0.68199836817093118 -0.7313536940579346 0.5 0 0 1 I I -0.70710678118654746 0.70710678118654746 forward I I I I #
loop $-1 $-1 $136 $46 #
coedge $-1 $90 $90 $137 $138 reversed $62 $-1 #
face $-1 $139 $140 $39 $-1 $141 reversed single #
loop $-1 $-1 $142 $64 #
plane-surface $-1 -13.757581522879136 -17.371130169383875 1.2634886213527281 0 -0.68199836817093118 0.7313536940579346 1 0 0 forward_v I I I I #
coedge $-1 $143 $144 $145 $146 reversed $65 $-1 #
face $-1 $-1 $147 $41 $-1 $148 forward single #
loop $-1 $149 $150 $67 #
cone-surface $-1 -13.757581522879136 -13.820987805887821 1.2774542181675805 0 0.68199836817093118 -0.7313536940579346 0.5 0 0 1 I I -0.70710678118654746 0.70710678118654746 forward I I I I #
loop $-1 $-1 $151 $48 #
coedge $-1 $99 $99 $152 $153 reversed $68 $-1 #
face $-1 $154 $155 $29 $-1 $156 reversed single #
loop $-1 $-1 $157 $70 #
plane-surface $-1 0 -17.371130169383857 0 0 1 0 0 0 1 forward_v I I I I #
coedge $-1 $158 $159 $160 $161 forward $71 $-1 #
coedge $-1 $162 $73 $163 $164 forward $50 $-1 #
coedge $-1 $73 $162 $165 $166 forward $50 $-1 #
coedge $-1 $167 $168 $73 $107 reversed $169 $-1 #
edge $-1 $170 $171 $106 $172 forward #
face $-1 $173 $174 $31 $-1 $175 reversed single #
loop $-1 $-1 $176 $74 #
plane-surface $-1 0 17.371130169383857 0 0 -1 0 0 0 -1 forward_v I I I I #
coedge $-1 $114 $177 $178 $179 reversed $75 $-1 #
coedge $-1 $180 $77 $181 $182 reversed $53 $-1 #
coedge $-1 $77 $180 $183 $184 reversed $53 $-1 #
coedge $-1 $185 $111 $77 $115 reversed $75 $-1 #
edge $-1 $186 $187 $114 $188 forward #
face $-1 $189 $190 $33 $-1 $191 reversed single #
loop $-1 $-1 $192 $78 #
plane-surface $-1 0 0 4.8179744283082808 0 0 1 1 0 0 forward_v I I I I #
coedge $-1 $193 $194 $195 $196 reversed $79 $-1 #
coedge $-1 $197 $81 $198 $199 reversed $56 $-1 #
coedge $-1 $81 $197 $200 $201 reversed $56 $-1 #
coedge $-1 $202 $203 $81 $123 forward $204 $-1 #
edge $-1 $205 $206 $122 $207 forward #
face $-1 $208 $209 $35 $-1 $210 reversed single #
loop $-1 $-1 $211 $82 #
plane-surface $-1 -5.4011051421817555 49.552575509512792 86.715715471532022 -1 0 0 0 0.68199836817093118 0.7313536940579346 forward_v I I I I #
coedge $-1 $212 $213 $214 $215 reversed $83 $-1 #
coedge $-1 $129 $85 $216 $217 reversed $59 $-1 #
coedge $-1 $85 $128 $212 $218 reversed $59 $-1 #
coedge $-1 $214 $219 $85 $131 forward $220 $-1 #
edge $-1 $221 $222 $130 $223 forward #
loop $-1 $-1 $137 $86 #
plane-surface $-1 -13.757581522879136 -8.0377502692963674 24.957653478961973 0 0.68199836817093118 0.7313536940579346 1 0 0 forward_v I I I I #
loop $-1 $-1 $224 $61 #
coedge $-1 $135 $135 $136 $225 reversed $87 $-1 #
coedge $-1 $136 $136 $135 $225 forward $89 $-1 #
coedge $-1 $137 $137 $90 $138 forward $132 $-1 #
edge $-1 $226 $226 $137 $227 forward #
face $-1 $228 $229 $39 $-1 $230 forward single #
loop $-1 $-1 $231 $91 #
plane-surface $-1 -22.114057903576516 -74.961455948193034 63.021550613922777 1 0 0 0 0.68199836817093118 -0.7313536940579346 forward_v I I I I #
coedge $-1 $232 $233 $234 $235 reversed $92 $-1 #
coedge $-1 $144 $94 $236 $237 reversed $65 $-1 #
coedge $-1 $94 $143 $232 $238 reversed $65 $-1 #
coedge $-1 $234 $239 $94 $146 forward $229 $-1 #
edge $-1 $240 $241 $145 $242 forward #
loop $-1 $-1 $152 $95 #
plane-surface $-1 -13.757581522879136 -17.371130169383875 1.2634886213527281 0 -0.68199836817093118 0.7313536940579346 1 0 0 forward_v I I I I #
loop $-1 $-1 $243 $67 #
coedge $-1 $150 $150 $151 $244 reversed $96 $-1 #
coedge $-1 $151 $151 $150 $244 forward $98 $-1 #
coedge $-1 $152 $152 $99 $153 forward $147 $-1 #
edge $-1 $245 $245 $152 $246 forward #
face $-1 $247 $248 $29 $-1 $249 reversed single #
loop $-1 $-1 $250 $100 #
plane-surface $-1 -42.221747489852596 0 0 1 0 0 0 0 -1 forward_v I I I I #
coedge $-1 $251 $165 $252 $253 forward $101 $-1 #
coedge $-1 $254 $103 $251 $255 forward $71 $-1 #
coedge $-1 $103 $254 $256 $257 forward $71 $-1 #
coedge $-1 $168 $167 $103 $161 reversed $169 $-1 #
edge $-1 $258 $259 $160 $260 forward #
coedge $-1 $105 $104 $261 $262 forward $50 $-1 #
coedge $-1 $263 $264 $104 $164 reversed $248 $-1 #
edge $-1 $171 $265 $163 $266 forward #
coedge $-1 $157 $267 $105 $166 reversed $101 $-1 #
edge $-1 $268 $170 $165 $269 forward #
coedge $-1 $160 $106 $267 $270 forward $169 $-1 #
coedge $-1 $106 $160 $263 $271 reversed $169 $-1 #
loop $-1 $-1 $167 $247 #
vertex $-1 $107 $272 #
vertex $-1 $107 $273 #
straight-curve $-1 42.221747489852596 0 4.8179744283082808 0 1 0 I I #
face $-1 $274 $275 $31 $-1 $276 forward single #
loop $-1 $-1 $277 $108 #
plane-surface $-1 -42.221747489852596 0 0 1 0 0 0 0 -1 forward_v I I I I #
coedge $-1 $183 $278 $185 $279 forward $109 $-1 #
coedge $-1 $111 $185 $280 $281 reversed $75 $-1 #
coedge $-1 $282 $181 $111 $179 forward $283 $-1 #
edge $-1 $187 $284 $178 $285 forward #
coedge $-1 $113 $112 $277 $286 reversed $53 $-1 #
coedge $-1 $178 $287 $112 $182 forward $283 $-1 #
edge $-1 $288 $187 $181 $289 forward #
coedge $-1 $290 $176 $113 $184 forward $109 $-1 #
edge $-1 $186 $291 $183 $292 forward #
coedge $-1 $177 $114 $176 $279 reversed $75 $-1 #
vertex $-1 $184 $293 #
vertex $-1 $182 $294 #
straight-curve $-1 -38.571702878799691 0 1.8179744283082808 0 -1 0 I I #
face $-1 $295 $296 $33 $-1 $297 reversed single #
loop $-1 $-1 $298 $116 #
plane-surface $-1 0 -17.371130169383857 0 0 1 0 0 0 1 forward_v I I I I #
coedge $-1 $299 $300 $194 $301 forward $117 $-1 #
coedge $-1 $302 $119 $197 $303 reversed $79 $-1 #
coedge $-1 $119 $302 $192 $301 reversed $79 $-1 #
coedge $-1 $304 $200 $119 $196 forward $296 $-1 #
edge $-1 $305 $306 $195 $307 forward #
coedge $-1 $121 $120 $193 $303 forward $56 $-1 #
coedge $-1 $308 $298 $120 $199 forward $190 $-1 #
edge $-1 $309 $205 $198 $310 forward #
coedge $-1 $195 $311 $121 $201 forward $296 $-1 #
edge $-1 $206 $305 $200 $312 forward #
coedge $-1 $313 $122 $311 $314 reversed $204 $-1 #
coedge $-1 $122 $313 $308 $315 forward $204 $-1 #
loop $-1 $-1 $122 $295 #
vertex $-1 $199 $316 #
vertex $-1 $123 $317 #
straight-curve $-1 42.221747489852596 0 1.8179744283082808 0 1 0 I I #
face $-1 $-1 $220 $35 $-1 $318 forward single #
loop $-1 $-1 $319 $124 #
plane-surface $-1 0 17.371130169383857 0 0 -1 0 0 0 -1 forward_v I I I I #
coedge $-1 $320 $321 $322 $323 reversed $125 $-1 #
coedge $-1 $324 $127 $129 $218 forward $83 $-1 #
coedge $-1 $127 $324 $320 $325 forward $83 $-1 #
coedge $-1 $322 $130 $127 $215 forward $220 $-1 #
edge $-1 $222 $326 $214 $327 forward #
coedge $-1 $328 $329 $128 $217 forward $209 $-1 #
edge $-1 $330 $221 $216 $331 forward #
edge $-1 $222 $330 $129 $332 forward #
coedge $-1 $130 $322 $328 $333 forward $220 $-1 #
loop $-1 $-1 $322 $208 #
vertex $-1 $217 $334 #
vertex $-1 $131 $335 #
straight-curve $-1 -22.114057903576516 24.776287754756396 4.8179744283082826 0 -1 0 I I #
coedge $-1 $224 $224 $-1 $336 reversed $134 $-1 #
edge $-1 $337 $337 $135 $338 forward #
vertex $-1 $138 $339 #
ellipse-curve $-1 -13.757581522879136 15.46527053194416 3.0407315248305102 0 0.68199836817093118 0.7313536940579346 1 0 0 1 I I #
face $-1 $-1 $340 $39 $-1 $341 reversed single #
loop $-1 $-1 $145 $139 #
plane-surface $-1 0 0 4.8179744283082808 0 0 1 1 0 0 forward_v I I I I #
coedge $-1 $342 $343 $344 $345 reversed $140 $-1 #
coedge $-1 $346 $142 $144 $238 forward $92 $-1 #
coedge $-1 $142 $346 $342 $347 forward $92 $-1 #
coedge $-1 $344 $145 $142 $235 forward $229 $-1 #
edge $-1 $241 $348 $234 $349 forward #
coedge $-1 $350 $351 $143 $237 forward $340 $-1 #
edge $-1 $352 $240 $236 $353 forward #
edge $-1 $241 $352 $144 $354 forward #
coedge $-1 $145 $344 $350 $355 forward $229 $-1 #
vertex $-1 $237 $356 #
vertex $-1 $146 $357 #
straight-curve $-1 -5.4011051421817555 -37.480727974096517 4.8179744283082826 0 1 0 I I #
coedge $-1 $243 $243 $-1 $358 reversed $149 $-1 #
edge $-1 $359 $359 $150 $360 forward #
vertex $-1 $153 $361 #
ellipse-curve $-1 -13.757581522879136 -15.465270531944162 3.0407315248305133 0 -0.68199836817093118 0.7313536940579346 1 0 0 1 I I #
face $-1 $-1 $169 $29 $-1 $362 reversed single #
loop $-1 $-1 $263 $154 #
plane-surface $-1 0 17.371130169383857 0 0 -1 0 0 0 -1 forward_v I I I I #
coedge $-1 $363 $261 $264 $364 forward $155 $-1 #
coedge $-1 $267 $157 $158 $255 reversed $101 $-1 #
coedge $-1 $261 $363 $157 $253 reversed $155 $-1 #
edge $-1 $268 $365 $252 $366 forward #
coedge $-1 $159 $158 $363 $367 forward $71 $-1 #
edge $-1 $259 $365 $251 $368 forward #
coedge $-1 $264 $263 $159 $257 reversed $248 $-1 #
edge $-1 $369 $258 $256 $370 forward #
vertex $-1 $161 $371 #
vertex $-1 $270 $372 #
straight-curve $-1 42.221747489852596 0 -4.8179744283082808 0 -1 0 I I #
coedge $-1 $250 $252 $162 $262 reversed $155 $-1 #
edge $-1 $265 $268 $261 $373 forward #
coedge $-1 $256 $163 $168 $271 forward $248 $-1 #
coedge $-1 $163 $256 $250 $364 reversed $248 $-1 #
vertex $-1 $164 $374 #
straight-curve $-1 0 17.371130169383857 4.8179744283082808 -1 0 0 I I #
coedge $-1 $165 $251 $167 $270 reversed $101 $-1 #
vertex $-1 $262 $375 #
straight-curve $-1 0 -17.371130169383857 4.8179744283082808 1 0 0 I I #
edge $-1 $170 $259 $167 $376 forward #
edge $-1 $171 $258 $168 $377 forward #
point $-1 42.221747489852596 -17.371130169383857 4.8179744283082808 #
point $-1 42.221747489852596 17.371130169383857 4.8179744283082808 #
face $-1 $-1 $283 $31 $-1 $378 reversed single #
loop $-1 $-1 $280 $173 #
plane-surface $-1 0 0 4.8179744283082808 0 0 1 1 0 0 forward_v I I I I #
coedge $-1 $379 $380 $180 $286 forward $174 $-1 #
coedge $-1 $176 $290 $381 $382 reversed $109 $-1 #
edge $-1 $383 $186 $176 $384 forward #
coedge $-1 $381 $385 $177 $281 forward $275 $-1 #
edge $-1 $284 $383 $280 $386 forward #
coedge $-1 $287 $178 $385 $387 reversed $283 $-1 #
loop $-1 $-1 $178 $274 #
vertex $-1 $179 $388 #
straight-curve $-1 -38.571702878799691 -17.371130169383857 1.6589872141541404 0 0 1 I I #
edge $-1 $291 $288 $277 $389 forward #
coedge $-1 $181 $282 $379 $390 forward $283 $-1 #
vertex $-1 $286 $391 #
straight-curve $-1 -20.198362592163072 -17.371130169383857 1.8179744283082808 1 0 0 I I #
coedge $-1 $278 $183 $380 $392 reversed $109 $-1 #
vertex $-1 $286 $393 #
straight-curve $-1 -20.198362592163072 17.371130169383857 1.8179744283082808 -1 0 0 I I #
point $-1 -38.571702878799691 17.371130169383857 1.8179744283082808 #
point $-1 -38.571702878799691 -17.371130169383857 1.8179744283082808 #
face $-1 $-1 $204 $33 $-1 $394 reversed single #
loop $-1 $-1 $195 $189 #
plane-surface $-1 0 17.371130169383857 0 0 -1 0 0 0 -1 forward_v I I I I #
coedge $-1 $198 $395 $302 $396 forward $190 $-1 #
coedge $-1 $397 $192 $395 $398 forward $117 $-1 #
coedge $-1 $192 $397 $304 $399 forward $117 $-1 #
edge $-1 $306 $400 $192 $401 forward #
coedge $-1 $194 $193 $298 $396 reversed $79 $-1 #
edge $-1 $309 $305 $193 $402 forward #
coedge $-1 $311 $195 $300 $399 reversed $296 $-1 #
vertex $-1 $201 $403 #
vertex $-1 $196 $404 #
straight-curve $-1 38.571702878799698 17.371130169383857 1.6589872141541404 0 0 1 I I #
coedge $-1 $395 $198 $203 $315 reversed $190 $-1 #
vertex $-1 $199 $405 #
straight-curve $-1 20.198362592163075 -17.371130169383857 1.8179744283082808 1 0 0 I I #
coedge $-1 $200 $304 $202 $314 forward $296 $-1 #
straight-curve $-1 20.198362592163075 17.371130169383857 1.8179744283082808 -1 0 0 I I #
coedge $-1 $203 $202 $397 $406 reversed $204 $-1 #
edge $-1 $407 $206 $202 $408 forward #
edge $-1 $409 $205 $203 $410 forward #
point $-1 42.221747489852604 -17.371130169383857 1.8179744283082808 #
point $-1 42.221747489852604 17.371130169383857 1.8179744283082808 #
plane-surface $-1 0 0 4.8179744283082808 0 0 1 1 0 0 forward_v I I I I #
coedge $-1 $329 $328 $321 $411 forward $209 $-1 #
coedge $-1 $321 $211 $213 $325 reversed $125 $-1 #
coedge $-1 $211 $320 $319 $411 reversed $125 $-1 #
coedge $-1 $219 $214 $211 $323 forward $220 $-1 #
edge $-1 $326 $412 $322 $413 forward #
coedge $-1 $213 $212 $329 $414 reversed $83 $-1 #
edge $-1 $415 $326 $320 $416 forward #
vertex $-1 $215 $417 #
straight-curve $-1 -6.8787907614395678 13.559410894504463 4.8179744283082826 1 0 0 I I #
coedge $-1 $319 $216 $219 $333 reversed $209 $-1 #
coedge $-1 $216 $319 $324 $414 forward $209 $-1 #
vertex $-1 $217 $418 #
straight-curve $-1 -22.114057903576516 17.371130169383857 43.357857735766011 0 0 1 I I #
straight-curve $-1 -22.114057903576516 -8.0377502692963674 24.957653478961973 0 0.7313536940579346 -0.68199836817093118 I I #
edge $-1 $412 $221 $328 $419 forward #
point $-1 -22.114057903576516 17.371130169383857 4.8179744283082808 #
point $-1 -22.114057903576516 13.559410894504463 4.8179744283082826 #
edge $-1 $420 $420 $224 $-1 forward #
vertex $-1 $225 $421 #
ellipse-curve $-1 -13.757581522879136 14.161986989973286 1.6431310651965461 0 0.68199836817093118 0.7313536940579346 1 0 0 1 I I #
point $-1 -12.757581522879136 15.465270531944148 3.0407315248304978 #
loop $-1 $-1 $236 $228 #
plane-surface $-1 0 -17.371130169383857 0 0 1 0 0 0 1 forward_v I I I I #
coedge $-1 $343 $231 $233 $347 reversed $140 $-1 #
coedge $-1 $231 $342 $422 $423 reversed $140 $-1 #
coedge $-1 $239 $234 $231 $345 forward $229 $-1 #
edge $-1 $348 $424 $344 $425 forward #
coedge $-1 $233 $232 $351 $426 reversed $92 $-1 #
edge $-1 $427 $348 $342 $428 forward #
vertex $-1 $235 $429 #
straight-curve $-1 -6.8787907614395678 -13.559410894504465 4.8179744283082808 -1 0 0 I I #
coedge $-1 $422 $236 $239 $355 reversed $340 $-1 #
coedge $-1 $236 $422 $346 $426 forward $340 $-1 #
vertex $-1 $237 $430 #
straight-curve $-1 -5.4011051421817555 -17.371130169383857 31.510775306961389 0 0 1 I I #
straight-curve $-1 -5.4011051421817555 -17.371130169383875 1.2634886213527281 0 -0.7313536940579346 -0.68199836817093118 I I #
edge $-1 $424 $240 $350 $431 forward #
point $-1 -5.4011051421817555 -17.371130169383857 4.8179744283082808 #
point $-1 -5.4011051421817555 -13.559410894504467 4.8179744283082808 #
edge $-1 $432 $432 $243 $-1 forward #
vertex $-1 $244 $433 #
ellipse-curve $-1 -13.757581522879136 -14.161986989973286 1.6431310651965478 0 -0.68199836817093118 0.7313536940579346 1 0 0 1 I I #
point $-1 -12.757581522879136 -15.465270531944148 3.0407315248304996 #
plane-surface $-1 42.221747489852596 0 0 -1 0 0 0 0 1 forward_v I I I I #
coedge $-1 $252 $250 $254 $367 reversed $155 $-1 #
edge $-1 $265 $369 $264 $434 forward #
vertex $-1 $367 $435 #
straight-curve $-1 -42.221747489852596 -17.371130169383857 0 0 0 -1 I I #
edge $-1 $365 $369 $363 $436 forward #
straight-curve $-1 0 -17.371130169383857 -4.8179744283082808 -1 0 0 I I #
vertex $-1 $257 $437 #
straight-curve $-1 0 17.371130169383857 -4.8179744283082808 1 0 0 I I #
point $-1 42.221747489852596 17.371130169383857 -4.8179744283082808 #
point $-1 42.221747489852596 -17.371130169383857 -4.8179744283082808 #
straight-curve $-1 -42.221747489852596 0 4.8179744283082808 0 -1 0 I I #
point $-1 -42.221747489852596 17.371130169383857 4.8179744283082808 #
point $-1 -42.221747489852596 -17.371130169383857 4.8179744283082808 #
straight-curve $-1 42.221747489852596 -17.371130169383857 0 0 0 -1 I I #
straight-curve $-1 42.221747489852596 17.371130169383857 0 0 0 -1 I I #
plane-surface $-1 0 -17.371130169383857 0 0 1 0 0 0 1 forward_v I I I I #
coedge $-1 $438 $277 $287 $390 reversed $174 $-1 #
coedge $-1 $277 $438 $290 $392 forward $174 $-1 #
coedge $-1 $439 $280 $278 $382 forward $275 $-1 #
edge $-1 $383 $440 $278 $441 forward #
vertex $-1 $382 $442 #
straight-curve $-1 -38.571702878799691 17.371130169383857 1.6589872141541404 0 0 -1 I I #
coedge $-1 $280 $439 $282 $387 forward $275 $-1 #
straight-curve $-1 -38.571702878799691 0 4.8179744283082808 0 1 0 I I #
edge $-1 $443 $284 $282 $444 forward #
point $-1 -38.571702878799691 -17.371130169383857 4.8179744283082808 #
straight-curve $-1 -42.221747489852596 0 1.8179744283082808 0 -1 0 I I #
edge $-1 $443 $288 $379 $445 forward #
point $-1 -42.221747489852596 -17.371130169383857 1.8179744283082808 #
edge $-1 $440 $291 $290 $446 forward #
point $-1 -42.221747489852596 17.371130169383857 1.8179744283082808 #
plane-surface $-1 42.221747489852596 0 0 -1 0 0 0 0 1 forward_v I I I I #
coedge $-1 $298 $308 $299 $398 reversed $190 $-1 #
edge $-1 $400 $309 $298 $447 forward #
coedge $-1 $300 $299 $313 $406 forward $117 $-1 #
edge $-1 $400 $409 $395 $448 forward #
edge $-1 $407 $306 $304 $449 forward #
vertex $-1 $398 $450 #
straight-curve $-1 38.571702878799698 0 4.8179744283082808 0 -1 0 I I #
straight-curve $-1 38.571702878799698 0 1.8179744283082808 0 1 0 I I #
point $-1 38.571702878799698 17.371130169383857 1.8179744283082808 #
point $-1 38.571702878799698 17.371130169383857 4.8179744283082808 #
point $-1 38.571702878799698 -17.371130169383857 1.8179744283082808 #
edge $-1 $409 $407 $313 $451 forward #
vertex $-1 $406 $452 #
straight-curve $-1 42.221747489852596 17.371130169383857 0 0 0 -1 I I #
vertex $-1 $406 $453 #
straight-curve $-1 42.221747489852596 -17.371130169383857 0 0 0 -1 I I #
edge $-1 $412 $415 $319 $454 forward #
vertex $-1 $333 $455 #
straight-curve $-1 -5.4011051421817555 24.776287754756396 4.8179744283082826 0 1 0 I I #
edge $-1 $415 $330 $329 $456 forward #
vertex $-1 $414 $457 #
straight-curve $-1 -5.4011051421817555 -8.0377502692963674 24.957653478961973 0 -0.7313536940579346 0.68199836817093118 I I #
point $-1 -5.4011051421817555 13.559410894504463 4.8179744283082826 #
point $-1 -22.114057903576516 17.371130169383854 1.2634886213527423 #
straight-curve $-1 0 17.371130169383857 4.8179744283082808 -1 0 0 I I #
vertex $-1 $336 $458 #
point $-1 -12.757581522879136 14.161986989973286 1.6431310651965461 #
coedge $-1 $351 $350 $343 $423 forward $340 $-1 #
edge $-1 $424 $427 $422 $459 forward #
vertex $-1 $355 $460 #
straight-curve $-1 -22.114057903576516 -37.480727974096517 4.8179744283082826 0 -1 0 I I #
edge $-1 $427 $352 $351 $461 forward #
vertex $-1 $426 $462 #
straight-curve $-1 -22.114057903576516 -17.371130169383875 1.2634886213527281 0 0.7313536940579346 0.68199836817093118 I I #
point $-1 -22.114057903576516 -13.559410894504467 4.8179744283082808 #
point $-1 -5.4011051421817555 -17.371130169383857 1.2634886213527448 #
straight-curve $-1 0 -17.371130169383857 4.8179744283082808 1 0 0 I I #
vertex $-1 $358 $463 #
point $-1 -12.757581522879136 -14.161986989973286 1.6431310651965478 #
straight-curve $-1 -42.221747489852596 17.371130169383857 0 0 0 -1 I I #
point $-1 -42.221747489852596 -17.371130169383857 -4.8179744283082808 #
straight-curve $-1 -42.221747489852596 0 -4.8179744283082808 0 1 0 I I #
point $-1 -42.221747489852596 17.371130169383857 -4.8179744283082808 #
coedge $-1 $380 $379 $439 $464 reversed $174 $-1 #
coedge $-1 $385 $381 $438 $464 forward $275 $-1 #
vertex $-1 $382 $465 #
straight-curve $-1 0 17.371130169383857 4.8179744283082808 -1 0 0 I I #
point $-1 -38.571702878799691 17.371130169383857 4.8179744283082808 #
vertex $-1 $464 $466 #
straight-curve $-1 0 -17.371130169383857 4.8179744283082808 1 0 0 I I #
straight-curve $-1 -42.221747489852596 -17.371130169383857 0 0 0 -1 I I #
straight-curve $-1 -42.221747489852596 17.371130169383857 0 0 0 -1 I I #
straight-curve $-1 38.571702878799698 -17.371130169383857 1.6589872141541404 0 0 -1 I I #
straight-curve $-1 0 -17.371130169383857 4.8179744283082808 1 0 0 I I #
straight-curve $-1 0 17.371130169383857 4.8179744283082808 -1 0 0 I I #
point $-1 38.571702878799698 -17.371130169383857 4.8179744283082808 #
straight-curve $-1 42.221747489852596 0 4.8179744283082808 0 1 0 I I #
point $-1 42.221747489852596 17.371130169383857 4.8179744283082808 #
point $-1 42.221747489852596 -17.371130169383857 4.8179744283082808 #
straight-curve $-1 -5.4011051421817555 17.371130169383857 43.357857735766011 0 0 -1 I I #
point $-1 -5.4011051421817555 17.371130169383857 4.8179744283082808 #
straight-curve $-1 -6.8787907614395678 17.371130169383857 1.2634886213527423 -1 0 0 I I #
point $-1 -5.4011051421817555 17.371130169383854 1.2634886213527423 #
point $-1 -13.757581522879136 13.479988621802356 0.91177737113861146 #
straight-curve $-1 -22.114057903576516 -17.371130169383857 31.510775306961389 0 0 -1 I I #
point $-1 -22.114057903576516 -17.371130169383857 4.8179744283082808 #
straight-curve $-1 -6.8787907614395678 -17.371130169383857 1.2634886213527468 1 0 0 I I #
point $-1 -22.114057903576516 -17.371130169383857 1.2634886213527448 #
point $-1 -13.757581522879136 -13.479988621802356 0.91177737113861324 #
edge $-1 $440 $443 $438 $467 forward #
point $-1 -42.221747489852596 17.371130169383857 4.8179744283082808 #
point $-1 -42.221747489852596 -17.371130169383857 4.8179744283082808 #
straight-curve $-1 -42.221747489852596 0 4.8179744283082808 0 -1 0 I I #
End-of-ACIS-data 