600 0 13 0           
95 GICL ACIS Healer - Source: /gicl/data5/repository/Drexel/SM99-DATA/part88.smdg.deltas.sat - 6 0 18 ACIS 6.0.3 Solaris 24 Sat Apr 13 20:46:31 2002 
1 9.999999999999999547e-07 1.000000000000000036e-10 
body $-1 $13 $-1 $-1 #
body $-1 $14 $-1 $-1 #
body $-1 $15 $-1 $-1 #
body $-1 $16 $-1 $-1 #
body $-1 $17 $-1 $-1 #
body $-1 $18 $-1 $-1 #
body $-1 $19 $-1 $-1 #
body $-1 $20 $-1 $-1 #
body $-1 $21 $-1 $-1 #
body $-1 $22 $-1 $-1 #
body $-1 $23 $-1 $-1 #
body $-1 $24 $-1 $-1 #
body $-1 $25 $-1 $-1 #
lump $-1 $-1 $26 $0 #
lump $-1 $-1 $27 $1 #
lump $-1 $-1 $28 $2 #
lump $-1 $-1 $29 $3 #
lump $-1 $-1 $30 $4 #
lump $-1 $-1 $31 $5 #
lump $-1 $-1 $32 $6 #
lump $-1 $-1 $33 $7 #
lump $-1 $-1 $34 $8 #
lump $-1 $-1 $35 $9 #
lump $-1 $-1 $36 $10 #
lump $-1 $-1 $37 $11 #
lump $-1 $-1 $38 $12 #
shell $-1 $-1 $-1 $39 $-1 $13 #
shell $-1 $-1 $-1 $40 $-1 $14 #
shell $-1 $-1 $-1 $41 $-1 $15 #
shell $-1 $-1 $-1 $42 $-1 $16 #
shell $-1 $-1 $-1 $43 $-1 $17 #
shell $-1 $-1 $-1 $44 $-1 $18 #
shell $-1 $-1 $-1 $45 $-1 $19 #
shell $-1 $-1 $-1 $46 $-1 $20 #
shell $-1 $-1 $-1 $47 $-1 $21 #
shell $-1 $-1 $-1 $48 $-1 $22 #
shell $-1 $-1 $-1 $49 $-1 $23 #
shell $-1 $-1 $-1 $50 $-1 $24 #
shell $-1 $-1 $-1 $51 $-1 $25 #
face $-1 $52 $53 $26 $-1 $54 forward single #
face $-1 $55 $56 $27 $-1 $57 reversed single #
face $-1 $58 $59 $28 $-1 $60 reversed single #
face $-1 $61 $62 $29 $-1 $63 forward single #
face $-1 $64 $65 $30 $-1 $66 forward single #
face $-1 $67 $68 $31 $-1 $69 forward single #
face $-1 $70 $71 $32 $-1 $72 reversed single #
face $-1 $73 $74 $33 $-1 $75 forward single #
face $-1 $76 $77 $34 $-1 $78 forward single #
face $-1 $79 $80 $35 $-1 $81 forward single #
face $-1 $82 $83 $36 $-1 $84 reversed single #
face $-1 $85 $86 $37 $-1 $87 forward single #
face $-1 $88 $89 $38 $-1 $90 forward single #
face $-1 $91 $92 $26 $-1 $93 reversed single #
loop $-1 $-1 $94 $39 #
plane-surface $-1 45.32242805261390828 21.96312663844251034 20.25833168338972357 0 0 1 1 0 0 forward_v I I I I #
face $-1 $95 $96 $27 $-1 $97 reversed single #
loop $-1 $-1 $98 $40 #
plane-surface $-1 0.5 4.211460288119607043 10.12916584169486178 1 0 0 0 0 -1 forward_v I I I I #
face $-1 $99 $100 $28 $-1 $101 reversed single #
loop $-1 $-1 $102 $41 #
plane-surface $-1 70.59133785347960099 16.87606243592790634 137.735971366330574 0 -1 0 -0.5877852598018022956 0 -0.8090169889191003438 forward_v I I I I #
face $-1 $103 $104 $29 $-1 $105 forward single #
loop $-1 $106 $107 $42 #
cone-surface $-1 83.96589851742552923 11.7645979511715062 15.15096503680929985 -0.5877852598018022956 0 -0.8090169889191003438 0.4045084944595501719 0 -0.2938926299009011478 1 I I 0 1 0.5 forward I I I I #
face $-1 $108 $109 $30 $-1 $110 forward single #
loop $-1 $111 $112 $43 #
cone-surface $-1 83.96589851742552923 13.68139713295515669 15.15096503680929985 -0.5877852598018022956 0 -0.8090169889191003438 0.4045084944595501719 0 -0.2938926299009011478 1 I I 0 1 0.5 forward I I I I #
face $-1 $113 $114 $31 $-1 $115 forward single #
loop $-1 $116 $117 $44 #
cone-surface $-1 83.96589851742552923 15.59819631473880719 15.15096503680929985 -0.5877852598018022956 0 -0.8090169889191003438 0.4045084944595501719 0 -0.2938926299009011478 1 I I 0 1 0.5 forward I I I I #
face $-1 $118 $119 $32 $-1 $120 reversed single #
loop $-1 $-1 $121 $45 #
plane-surface $-1 70.59133785347960099 41.86244202314182417 137.735971366330574 0 -1 0 -0.5877852598018022956 0 -0.8090169889191003438 forward_v I I I I #
face $-1 $122 $123 $33 $-1 $124 forward single #
loop $-1 $125 $126 $46 #
cone-surface $-1 83.96589851742552923 36.75097753838542758 15.15096503680929985 -0.5877852598018022956 0 -0.8090169889191003438 0.4045084944595501719 0 -0.2938926299009011478 1 I I 0 1 0.5 forward I I I I #
face $-1 $127 $128 $34 $-1 $129 forward single #
loop $-1 $130 $131 $47 #
cone-surface $-1 83.96589851742552923 38.66777672016907985 15.15096503680929985 -0.5877852598018022956 0 -0.8090169889191003438 0.4045084944595501719 0 -0.2938926299009011478 1 I I 0 1 0.5 forward I I I I #
face $-1 $132 $133 $35 $-1 $134 forward single #
loop $-1 $135 $136 $48 #
cone-surface $-1 83.96589851742552923 40.58457590195273212 15.15096503680929985 -0.5877852598018022956 0 -0.8090169889191003438 0.4045084944595501719 0 -0.2938926299009011478 1 I I 0 1 0.5 forward I I I I #
face $-1 $137 $138 $36 $-1 $139 reversed single #
loop $-1 $-1 $140 $49 #
plane-surface $-1 -7.105427357601001859e-15 12.49699252557043039 15.10459125347739295 -0.8480481040810504689 0 0.529919251551154491 0.529919251551154491 0 0.8480481040810504689 forward_v I I I I #
face $-1 $141 $142 $37 $-1 $143 forward single #
loop $-1 $144 $145 $50 #
cone-surface $-1 2.034231219632431475 10.75096169014276626 17.41650184265797918 0.8480481040810504689 0 -0.529919251551154491 0.2649596257755772455 0 0.4240240520405252345 1 I I 0 1 0.5 forward I I I I #
face $-1 $146 $147 $38 $-1 $148 forward single #
loop $-1 $149 $150 $51 #
cone-surface $-1 2.034231219632431475 14.24302336099809629 17.41650184265797918 0.8480481040810504689 0 -0.529919251551154491 0.2649596257755772455 0 0.4240240520405252345 1 I I 0 1 0.5 forward I I I I #
face $-1 $151 $152 $26 $-1 $153 reversed single #
loop $-1 $-1 $154 $52 #
plane-surface $-1 45.32242805261390828 21.96312663844251034 0 0 0 1 1 0 0 forward_v I I I I #
coedge $-1 $155 $156 $157 $158 forward $53 $-1 #
face $-1 $159 $160 $27 $-1 $161 reversed single #
loop $-1 $-1 $162 $55 #
plane-surface $-1 3.385360913412753803 8.422920576239214085 10.12916584169486178 0 -1 0 0 0 -1 forward_v I I I I #
coedge $-1 $163 $164 $165 $166 forward $56 $-1 #
face $-1 $167 $168 $28 $-1 $169 reversed single #
loop $-1 $-1 $170 $58 #
plane-surface $-1 17.31162755797128483 13.68139713295515492 64.4027428190740352 0.5877852598018022956 0 0.8090169889191003438 0.8090169889191003438 0 -0.5877852598018022956 forward_v I I I I #
coedge $-1 $171 $172 $173 $174 reversed $59 $-1 #
face $-1 $-1 $175 $29 $-1 $176 forward single #
loop $-1 $177 $178 $61 #
cone-surface $-1 83.42682479279605445 11.7645979511715062 14.4089937229110987 -0.5877852598018022956 0 -0.8090169889191003438 0.202254247229775086 0 -0.1469463149504505739 1 I I -0.7071067811865474617 0.7071067811865474617 0.25 forward I I I I #
loop $-1 $-1 $179 $42 #
coedge $-1 $107 $107 $180 $181 reversed $62 $-1 #
face $-1 $-1 $182 $30 $-1 $183 forward single #
loop $-1 $184 $185 $64 #
cone-surface $-1 83.42682479279605445 13.68139713295515669 14.4089937229110987 -0.5877852598018022956 0 -0.8090169889191003438 0.202254247229775086 0 -0.1469463149504505739 1 I I -0.7071067811865474617 0.7071067811865474617 0.25 forward I I I I #
loop $-1 $-1 $186 $43 #
coedge $-1 $112 $112 $187 $188 reversed $65 $-1 #
face $-1 $-1 $189 $31 $-1 $190 forward single #
loop $-1 $191 $192 $67 #
cone-surface $-1 83.42682479279605445 15.59819631473880719 14.4089937229110987 -0.5877852598018022956 0 -0.8090169889191003438 0.202254247229775086 0 -0.1469463149504505739 1 I I -0.7071067811865474617 0.7071067811865474617 0.25 forward I I I I #
loop $-1 $-1 $193 $44 #
coedge $-1 $117 $117 $194 $195 reversed $68 $-1 #
face $-1 $196 $197 $32 $-1 $198 reversed single #
loop $-1 $-1 $199 $70 #
plane-surface $-1 17.31162755797128483 38.66777672016907275 64.4027428190740352 0.5877852598018022956 0 0.8090169889191003438 0.8090169889191003438 0 -0.5877852598018022956 forward_v I I I I #
coedge $-1 $200 $201 $202 $203 reversed $71 $-1 #
face $-1 $-1 $204 $33 $-1 $205 forward single #
loop $-1 $206 $207 $73 #
cone-surface $-1 83.42682479279605445 36.75097753838542758 14.4089937229110987 -0.5877852598018022956 0 -0.8090169889191003438 0.202254247229775086 0 -0.1469463149504505739 1 I I -0.7071067811865474617 0.7071067811865474617 0.25 forward I I I I #
loop $-1 $-1 $208 $46 #
coedge $-1 $126 $126 $209 $210 reversed $74 $-1 #
face $-1 $-1 $211 $34 $-1 $212 forward single #
loop $-1 $213 $214 $76 #
cone-surface $-1 83.42682479279605445 38.66777672016907985 14.4089937229110987 -0.5877852598018022956 0 -0.8090169889191003438 0.202254247229775086 0 -0.1469463149504505739 1 I I -0.7071067811865474617 0.7071067811865474617 0.25 forward I I I I #
loop $-1 $-1 $215 $47 #
coedge $-1 $131 $131 $216 $217 reversed $77 $-1 #
face $-1 $-1 $218 $35 $-1 $219 forward single #
loop $-1 $220 $221 $79 #
cone-surface $-1 83.42682479279605445 40.58457590195273212 14.4089937229110987 -0.5877852598018022956 0 -0.8090169889191003438 0.202254247229775086 0 -0.1469463149504505739 1 I I -0.7071067811865474617 0.7071067811865474617 0.25 forward I I I I #
loop $-1 $-1 $222 $48 #
coedge $-1 $136 $136 $223 $224 reversed $80 $-1 #
face $-1 $225 $226 $36 $-1 $227 forward single #
loop $-1 $-1 $228 $82 #
plane-surface $-1 -76.87119836473809187 16.57106447490165024 63.13904555772181482 0 -1 0 0.8480481040810504689 0 -0.529919251551154491 forward_v I I I I #
coedge $-1 $229 $230 $231 $232 reversed $83 $-1 #
face $-1 $-1 $233 $37 $-1 $234 forward single #
loop $-1 $235 $236 $85 #
cone-surface $-1 2.670267297693222019 10.75096169014276626 17.01906240399461367 0.8480481040810504689 0 -0.529919251551154491 0.1324798128877886227 0 0.2120120260202626172 1 I I -0.7071067811865474617 0.7071067811865474617 0.25 forward I I I I #
loop $-1 $-1 $237 $50 #
coedge $-1 $145 $145 $238 $239 reversed $86 $-1 #
face $-1 $-1 $240 $38 $-1 $241 forward single #
loop $-1 $242 $243 $88 #
cone-surface $-1 2.670267297693222019 14.24302336099809629 17.01906240399461367 0.8480481040810504689 0 -0.529919251551154491 0.1324798128877886227 0 0.2120120260202626172 1 I I -0.7071067811865474617 0.7071067811865474617 0.25 forward I I I I #
loop $-1 $-1 $244 $51 #
coedge $-1 $150 $150 $245 $246 reversed $89 $-1 #
face $-1 $247 $248 $26 $-1 $249 reversed single #
loop $-1 $-1 $250 $91 #
plane-surface $-1 45.32242805261390828 0 10.12916584169486178 0 1 0 0 0 1 forward_v I I I I #
coedge $-1 $251 $252 $253 $254 forward $92 $-1 #
coedge $-1 $255 $94 $256 $257 forward $53 $-1 #
coedge $-1 $94 $255 $258 $259 forward $53 $-1 #
coedge $-1 $260 $261 $94 $158 reversed $262 $-1 #
edge $-1 $263 -21.96312663844251034 $264 21.96312663844251034 $157 $265 forward 7 unknown #
face $-1 $266 $267 $27 $-1 $268 forward single #
loop $-1 $-1 $269 $95 #
plane-surface $-1 6.270721826825507605 4.211460288119607043 10.12916584169486178 -1 0 0 0 0 1 forward_v I I I I #
coedge $-1 $270 $165 $271 $272 reversed $96 $-1 #
coedge $-1 $273 $98 $274 $275 reversed $56 $-1 #
coedge $-1 $98 $273 $276 $277 reversed $56 $-1 #
coedge $-1 $162 $278 $98 $166 reversed $96 $-1 #
edge $-1 $279 -10.12916584169486178 $280 10.12916584169486178 $165 $281 forward 7 unknown #
face $-1 $282 $283 $28 $-1 $284 reversed single #
loop $-1 $-1 $285 $99 #
plane-surface $-1 70.59133785347960099 10.4867318299824035 137.735971366330574 0 1 0 0.5877852598018022956 0 0.8090169889191003438 forward_v I I I I #
coedge $-1 $286 $287 $288 $289 reversed $100 $-1 #
coedge $-1 $172 $102 $290 $291 reversed $59 $-1 #
coedge $-1 $102 $171 $286 $292 reversed $59 $-1 #
coedge $-1 $288 $293 $102 $174 forward $294 $-1 #
edge $-1 $295 -32.68797315218105837 $296 -20.11431279593450938 $173 $297 forward 7 unknown #
loop $-1 $-1 $180 $103 #
plane-surface $-1 17.31162755797128483 13.68139713295515492 64.4027428190740352 0.5877852598018022956 0 0.8090169889191003438 0.8090169889191003438 0 -0.5877852598018022956 forward_v I I I I #
loop $-1 $-1 $298 $61 #
coedge $-1 $178 $178 $179 $299 reversed $104 $-1 #
coedge $-1 $179 $179 $178 $299 forward $106 $-1 #
coedge $-1 $180 $180 $107 $181 forward $175 $-1 #
edge $-1 $300 0 $300 6.283185307179586232 $180 $301 forward 7 unknown #
loop $-1 $-1 $187 $108 #
plane-surface $-1 17.31162755797128483 13.68139713295515492 64.4027428190740352 0.5877852598018022956 0 0.8090169889191003438 0.8090169889191003438 0 -0.5877852598018022956 forward_v I I I I #
loop $-1 $-1 $302 $64 #
coedge $-1 $185 $185 $186 $303 reversed $109 $-1 #
coedge $-1 $186 $186 $185 $303 forward $111 $-1 #
coedge $-1 $187 $187 $112 $188 forward $182 $-1 #
edge $-1 $304 0 $304 6.283185307179586232 $187 $305 forward 7 unknown #
loop $-1 $-1 $194 $113 #
plane-surface $-1 17.31162755797128483 13.68139713295515492 64.4027428190740352 0.5877852598018022956 0 0.8090169889191003438 0.8090169889191003438 0 -0.5877852598018022956 forward_v I I I I #
loop $-1 $-1 $306 $67 #
coedge $-1 $192 $192 $193 $307 reversed $114 $-1 #
coedge $-1 $193 $193 $192 $307 forward $116 $-1 #
coedge $-1 $194 $194 $117 $195 forward $189 $-1 #
edge $-1 $308 0 $308 6.283185307179586232 $194 $309 forward 7 unknown #
face $-1 $310 $311 $32 $-1 $312 reversed single #
loop $-1 $-1 $313 $118 #
plane-surface $-1 70.59133785347960099 35.47311141719632133 137.735971366330574 0 1 0 0.5877852598018022956 0 0.8090169889191003438 forward_v I I I I #
coedge $-1 $314 $315 $316 $317 reversed $119 $-1 #
coedge $-1 $201 $121 $318 $319 reversed $71 $-1 #
coedge $-1 $121 $200 $314 $320 reversed $71 $-1 #
coedge $-1 $316 $321 $121 $203 forward $322 $-1 #
edge $-1 $323 -32.68797315218105837 $324 -20.11431279593450938 $202 $325 forward 7 unknown #
loop $-1 $-1 $209 $122 #
plane-surface $-1 17.31162755797128483 38.66777672016907275 64.4027428190740352 0.5877852598018022956 0 0.8090169889191003438 0.8090169889191003438 0 -0.5877852598018022956 forward_v I I I I #
loop $-1 $-1 $326 $73 #
coedge $-1 $207 $207 $208 $327 reversed $123 $-1 #
coedge $-1 $208 $208 $207 $327 forward $125 $-1 #
coedge $-1 $209 $209 $126 $210 forward $204 $-1 #
edge $-1 $328 0 $328 6.283185307179586232 $209 $329 forward 7 unknown #
loop $-1 $-1 $216 $127 #
plane-surface $-1 17.31162755797128483 38.66777672016907275 64.4027428190740352 0.5877852598018022956 0 0.8090169889191003438 0.8090169889191003438 0 -0.5877852598018022956 forward_v I I I I #
loop $-1 $-1 $330 $76 #
coedge $-1 $214 $214 $215 $331 reversed $128 $-1 #
coedge $-1 $215 $215 $214 $331 forward $130 $-1 #
coedge $-1 $216 $216 $131 $217 forward $211 $-1 #
edge $-1 $332 0 $332 6.283185307179586232 $216 $333 forward 7 unknown #
loop $-1 $-1 $223 $132 #
plane-surface $-1 17.31162755797128483 38.66777672016907275 64.4027428190740352 0.5877852598018022956 0 0.8090169889191003438 0.8090169889191003438 0 -0.5877852598018022956 forward_v I I I I #
loop $-1 $-1 $334 $79 #
coedge $-1 $221 $221 $222 $335 reversed $133 $-1 #
coedge $-1 $222 $222 $221 $335 forward $135 $-1 #
coedge $-1 $223 $223 $136 $224 forward $218 $-1 #
edge $-1 $336 0 $336 6.283185307179586232 $223 $337 forward 7 unknown #
face $-1 $338 $339 $36 $-1 $340 forward single #
loop $-1 $-1 $341 $137 #
plane-surface $-1 45.32242805261390828 21.96312663844251034 20.25833168338972357 0 0 1 1 0 0 forward_v I I I I #
coedge $-1 $342 $343 $344 $345 reversed $138 $-1 #
coedge $-1 $346 $140 $347 $348 reversed $83 $-1 #
coedge $-1 $140 $346 $342 $349 forward $83 $-1 #
coedge $-1 $344 $341 $140 $232 forward $226 $-1 #
edge $-1 $350 -8.807139005767258055 $351 -0.6589951071048183451 $231 $352 forward 7 unknown #
loop $-1 $-1 $238 $141 #
plane-surface $-1 -7.105427357601001859e-15 12.49699252557043039 15.10459125347739295 -0.8480481040810504689 0 0.529919251551154491 0.529919251551154491 0 0.8480481040810504689 forward_v I I I I #
loop $-1 $-1 $353 $85 #
coedge $-1 $236 $236 $237 $354 reversed $142 $-1 #
coedge $-1 $237 $237 $236 $354 forward $144 $-1 #
coedge $-1 $238 $238 $145 $239 forward $233 $-1 #
edge $-1 $355 0 $355 6.283185307179586232 $238 $356 forward 7 unknown #
loop $-1 $-1 $245 $146 #
plane-surface $-1 -7.105427357601001859e-15 12.49699252557043039 15.10459125347739295 -0.8480481040810504689 0 0.529919251551154491 0.529919251551154491 0 0.8480481040810504689 forward_v I I I I #
loop $-1 $-1 $357 $88 #
coedge $-1 $243 $243 $244 $358 reversed $147 $-1 #
coedge $-1 $244 $244 $243 $358 forward $149 $-1 #
coedge $-1 $245 $245 $150 $246 forward $240 $-1 #
edge $-1 $359 0 $359 6.283185307179586232 $245 $360 forward 7 unknown #
face $-1 $361 $362 $26 $-1 $363 reversed single #
loop $-1 $-1 $364 $151 #
plane-surface $-1 0 21.96312663844251034 10.12916584169486178 1 0 0 0 0 -1 forward_v I I I I #
coedge $-1 $365 $258 $366 $367 forward $152 $-1 #
coedge $-1 $368 $154 $365 $369 forward $92 $-1 #
coedge $-1 $154 $368 $370 $371 forward $92 $-1 #
coedge $-1 $261 $260 $154 $254 reversed $262 $-1 #
edge $-1 $372 -21.96312663844251034 $373 21.96312663844251034 $253 $374 forward 7 unknown #
coedge $-1 $156 $155 $375 $376 forward $53 $-1 #
coedge $-1 $377 $378 $155 $257 reversed $362 $-1 #
edge $-1 $264 -45.32242805261390828 $379 45.32242805261390828 $256 $380 forward 7 unknown #
coedge $-1 $250 $381 $156 $259 reversed $152 $-1 #
edge $-1 $382 -45.32242805261390828 $263 45.32242805261390828 $258 $383 forward 7 unknown #
coedge $-1 $253 $157 $381 $384 forward $262 $-1 #
coedge $-1 $157 $253 $377 $385 reversed $262 $-1 #
loop $-1 $-1 $260 $361 #
vertex $-1 $158 $386 #
vertex $-1 $158 $387 #
straight-curve $-1 90.64485610522781656 21.96312663844251034 20.25833168338972357 0 1 0 I I #
face $-1 $388 $389 $27 $-1 $390 reversed single #
loop $-1 $-1 $391 $159 #
plane-surface $-1 45.32242805261390828 21.96312663844251034 20.25833168338972357 0 0 1 1 0 0 forward_v I I I I #
coedge $-1 $392 $393 $394 $395 reversed $160 $-1 #
coedge $-1 $278 $162 $396 $397 forward $96 $-1 #
coedge $-1 $276 $391 $162 $272 forward $267 $-1 #
edge $-1 $398 18.08317265618782343 $279 23.85389448301333104 $271 $399 forward 7 unknown #
coedge $-1 $164 $163 $400 $401 reversed $56 $-1 #
coedge $-1 $402 $403 $163 $275 forward $389 $-1 #
edge $-1 $404 -13.08729346328105869 $280 -4.664372887041844606 $274 $405 forward 7 unknown #
coedge $-1 $406 $271 $164 $277 forward $267 $-1 #
edge $-1 $279 4.664372887041844606 $407 13.08729346328105869 $276 $408 forward 7 unknown #
coedge $-1 $165 $270 $402 $409 reversed $96 $-1 #
vertex $-1 $277 $410 #
vertex $-1 $275 $411 #
straight-curve $-1 0.5 8.422920576239214085 10.12916584169486178 0 0 -1 I I #
face $-1 $-1 $294 $28 $-1 $412 forward single #
loop $-1 $-1 $413 $167 #
plane-surface $-1 90.64485610522781656 21.96312663844251034 10.12916584169486178 -1 0 0 0 0 1 forward_v I I I I #
coedge $-1 $414 $415 $416 $417 reversed $168 $-1 #
coedge $-1 $418 $170 $172 $292 forward $100 $-1 #
coedge $-1 $170 $418 $414 $419 forward $100 $-1 #
coedge $-1 $416 $173 $170 $289 forward $294 $-1 #
edge $-1 $296 0.946199449770926293 $420 7.335530055716429132 $288 $421 forward 7 unknown #
coedge $-1 $422 $423 $171 $291 forward $283 $-1 #
edge $-1 $424 -62.8095360804469891 $295 -53.67423692062298812 $290 $425 forward 7 unknown #
edge $-1 $296 75.10295707410142541 $424 90.64485610522780235 $172 $426 forward 7 unknown #
coedge $-1 $173 $416 $422 $427 forward $294 $-1 #
loop $-1 $-1 $416 $282 #
vertex $-1 $291 $428 #
vertex $-1 $174 $429 #
straight-curve $-1 57.95688295304675819 16.87606243592790634 20.25833168338972712 -1 0 0 I I #
coedge $-1 $298 $298 $-1 $430 reversed $177 $-1 #
edge $-1 $431 0 $431 6.283185307179586232 $178 $432 forward 7 unknown #
vertex $-1 $181 $433 #
ellipse-curve $-1 84.35802592710453496 11.7645979511715062 15.69068210347772663 0.5877852598018022956 0 0.8090169889191003438 0.4045084944595501719 0 -0.2938926299009011478 1 I I #
coedge $-1 $302 $302 $-1 $434 reversed $184 $-1 #
edge $-1 $435 0 $435 6.283185307179586232 $185 $436 forward 7 unknown #
vertex $-1 $188 $437 #
ellipse-curve $-1 84.35802592710453496 13.68139713295515669 15.69068210347772663 0.5877852598018022956 0 0.8090169889191003438 0.4045084944595501719 0 -0.2938926299009011478 1 I I #
coedge $-1 $306 $306 $-1 $438 reversed $191 $-1 #
edge $-1 $439 0 $439 6.283185307179586232 $192 $440 forward 7 unknown #
vertex $-1 $195 $441 #
ellipse-curve $-1 84.35802592710453496 15.59819631473880719 15.69068210347772663 0.5877852598018022956 0 0.8090169889191003438 0.4045084944595501719 0 -0.2938926299009011478 1 I I #
face $-1 $-1 $322 $32 $-1 $442 forward single #
loop $-1 $-1 $443 $196 #
plane-surface $-1 90.64485610522781656 21.96312663844251034 10.12916584169486178 -1 0 0 0 0 1 forward_v I I I I #
coedge $-1 $444 $445 $446 $447 reversed $197 $-1 #
coedge $-1 $448 $199 $201 $320 forward $119 $-1 #
coedge $-1 $199 $448 $444 $449 forward $119 $-1 #
coedge $-1 $446 $202 $199 $317 forward $322 $-1 #
edge $-1 $324 -11.54699034383603262 $450 -5.157659737890529783 $316 $451 forward 7 unknown #
coedge $-1 $452 $453 $200 $319 forward $311 $-1 #
edge $-1 $454 -62.8095360804469891 $323 -53.67423692062298812 $318 $455 forward 7 unknown #
edge $-1 $324 75.10295707410142541 $454 90.64485610522780235 $201 $456 forward 7 unknown #
coedge $-1 $202 $446 $452 $457 forward $322 $-1 #
loop $-1 $-1 $446 $310 #
vertex $-1 $319 $458 #
vertex $-1 $203 $459 #
straight-curve $-1 57.95688295304675819 41.86244202314182417 20.25833168338972712 -1 0 0 I I #
coedge $-1 $326 $326 $-1 $460 reversed $206 $-1 #
edge $-1 $461 0 $461 6.283185307179586232 $207 $462 forward 7 unknown #
vertex $-1 $210 $463 #
ellipse-curve $-1 84.35802592710453496 36.75097753838542758 15.69068210347772663 0.5877852598018022956 0 0.8090169889191003438 0.4045084944595501719 0 -0.2938926299009011478 1 I I #
coedge $-1 $330 $330 $-1 $464 reversed $213 $-1 #
edge $-1 $465 0 $465 6.283185307179586232 $214 $466 forward 7 unknown #
vertex $-1 $217 $467 #
ellipse-curve $-1 84.35802592710453496 38.66777672016907985 15.69068210347772663 0.5877852598018022956 0 0.8090169889191003438 0.4045084944595501719 0 -0.2938926299009011478 1 I I #
coedge $-1 $334 $334 $-1 $468 reversed $220 $-1 #
edge $-1 $469 0 $469 6.283185307179586232 $221 $470 forward 7 unknown #
vertex $-1 $224 $471 #
ellipse-curve $-1 84.35802592710453496 40.58457590195273212 15.69068210347772663 0.5877852598018022956 0 0.8090169889191003438 0.4045084944595501719 0 -0.2938926299009011478 1 I I #
face $-1 $-1 $472 $36 $-1 $473 reversed single #
loop $-1 $-1 $347 $225 #
plane-surface $-1 3.385360913412753803 8.422920576239214085 10.12916584169486178 0 -1 0 0 0 -1 forward_v I I I I #
coedge $-1 $231 $474 $475 $476 forward $226 $-1 #
coedge $-1 $343 $228 $230 $349 reversed $138 $-1 #
coedge $-1 $228 $342 $477 $478 reversed $138 $-1 #
coedge $-1 $474 $231 $228 $345 forward $226 $-1 #
edge $-1 $351 -18.9947994912458924 $479 -15.77438515606208824 $344 $480 forward 7 unknown #
coedge $-1 $230 $229 $481 $482 reversed $83 $-1 #
coedge $-1 $475 $483 $229 $348 forward $339 $-1 #
edge $-1 $484 1.212716082996330824 $350 7.289895437694541513 $347 $485 forward 7 unknown #
edge $-1 $486 1.431035509606454667e-14 $351 6.07717935469822379 $342 $487 forward 7 unknown #
vertex $-1 $232 $488 #
vertex $-1 $232 $489 #
straight-curve $-1 3.220414335183804155 17.23005958200646859 20.25833168338972712 0 1 0 I I #
coedge $-1 $353 $353 $-1 $490 reversed $235 $-1 #
edge $-1 $491 0 $491 6.283185307179586232 $236 $492 forward 7 unknown #
vertex $-1 $239 $493 #
ellipse-curve $-1 1.610207167591902078 10.75096169014276626 17.68146146843356092 -0.8480481040810504689 0 0.529919251551154491 0.2649596257755772455 0 0.4240240520405252345 1 I I #
coedge $-1 $357 $357 $-1 $494 reversed $242 $-1 #
edge $-1 $495 0 $495 6.283185307179586232 $243 $496 forward 7 unknown #
vertex $-1 $246 $497 #
ellipse-curve $-1 1.610207167591902078 14.24302336099809629 17.68146146843356092 -0.8480481040810504689 0 0.529919251551154491 0.2649596257755772455 0 0.4240240520405252345 1 I I #
face $-1 $-1 $262 $26 $-1 $498 reversed single #
loop $-1 $-1 $377 $247 #
plane-surface $-1 45.32242805261390828 43.92625327688502068 10.12916584169486178 0 -1 0 0 0 -1 forward_v I I I I #
coedge $-1 $499 $375 $378 $500 forward $248 $-1 #
coedge $-1 $381 $250 $251 $369 reversed $152 $-1 #
coedge $-1 $375 $499 $250 $367 reversed $248 $-1 #
edge $-1 $382 -10.12916584169486178 $501 10.12916584169486178 $366 $502 forward 7 unknown #
coedge $-1 $252 $251 $499 $503 forward $92 $-1 #
edge $-1 $373 -45.32242805261390828 $501 45.32242805261390828 $365 $504 forward 7 unknown #
coedge $-1 $378 $377 $252 $371 reversed $362 $-1 #
edge $-1 $505 -45.32242805261390828 $372 45.32242805261390828 $370 $506 forward 7 unknown #
vertex $-1 $254 $507 #
vertex $-1 $384 $508 #
straight-curve $-1 90.64485610522781656 21.96312663844251034 0 0 -1 0 I I #
coedge $-1 $364 $366 $255 $376 reversed $248 $-1 #
edge $-1 $379 -21.96312663844251034 $382 21.96312663844251034 $375 $509 forward 7 unknown #
coedge $-1 $370 $256 $261 $385 forward $362 $-1 #
coedge $-1 $256 $370 $364 $500 reversed $362 $-1 #
vertex $-1 $257 $510 #
straight-curve $-1 45.32242805261390828 43.92625327688502068 20.25833168338972357 -1 0 0 I I #
coedge $-1 $258 $365 $260 $384 reversed $152 $-1 #
vertex $-1 $376 $511 #
straight-curve $-1 45.32242805261390828 0 20.25833168338972357 1 0 0 I I #
edge $-1 $263 -10.12916584169486178 $373 10.12916584169486178 $260 $512 forward 7 unknown #
edge $-1 $264 -10.12916584169486178 $372 10.12916584169486178 $261 $513 forward 7 unknown #
point $-1 90.64485610522781656 0 20.25833168338972357 #
point $-1 90.64485610522781656 43.92625327688502068 20.25833168338972357 #
face $-1 $-1 $514 $27 $-1 $515 reversed single #
loop $-1 $-1 $516 $266 #
plane-surface $-1 45.32242805261390828 21.96312663844251034 0 0 0 1 1 0 0 forward_v I I I I #
coedge $-1 $271 $406 $393 $517 forward $267 $-1 #
coedge $-1 $396 $269 $516 $518 reversed $160 $-1 #
coedge $-1 $269 $396 $391 $517 reversed $160 $-1 #
coedge $-1 $519 $520 $269 $395 forward $514 $-1 #
edge $-1 $521 -10.12916584169486178 $522 10.12916584169486178 $394 $523 forward 7 unknown #
coedge $-1 $393 $392 $270 $397 reversed $160 $-1 #
edge $-1 $398 -10.12916584169486178 $524 10.12916584169486178 $396 $525 forward 7 unknown #
vertex $-1 $272 $526 #
straight-curve $-1 24.35389448301333104 8.422920576239214085 20.25833168338972357 -1 0 0 I I #
coedge $-1 $520 $519 $273 $401 forward $514 $-1 #
edge $-1 $407 -10.12916584169486178 $404 10.12916584169486178 $400 $527 forward 7 unknown #
coedge $-1 $516 $274 $278 $409 forward $389 $-1 #
coedge $-1 $274 $516 $520 $528 forward $389 $-1 #
vertex $-1 $275 $529 #
straight-curve $-1 0.5 13.08729346328105869 0 0 1 0 I I #
coedge $-1 $391 $276 $519 $530 forward $267 $-1 #
vertex $-1 $530 $531 #
straight-curve $-1 0.5 13.08729346328105869 20.25833168338972357 0 -1 0 I I #
edge $-1 $280 -23.85389448301333104 $524 -18.08317265618782343 $402 $532 forward 7 unknown #
point $-1 0.5 8.422920576239214085 20.25833168338972357 #
point $-1 0.5 8.422920576239214085 0 #
plane-surface $-1 45.32242805261390828 21.96312663844251034 20.25833168338972357 0 0 1 1 0 0 forward_v I I I I #
coedge $-1 $423 $422 $415 $533 forward $283 $-1 #
coedge $-1 $415 $285 $287 $419 reversed $168 $-1 #
coedge $-1 $285 $414 $413 $533 reversed $168 $-1 #
coedge $-1 $293 $288 $285 $417 forward $294 $-1 #
edge $-1 $420 20.11431279593450938 $534 32.68797315218105837 $416 $535 forward 7 unknown #
coedge $-1 $287 $286 $423 $536 reversed $100 $-1 #
edge $-1 $537 -90.64485610522780235 $420 -75.10295707410142541 $414 $538 forward 7 unknown #
vertex $-1 $289 $539 #
straight-curve $-1 78.07119574898126757 17.82226188569883263 20.25833168338972712 0 -1 0 I I #
coedge $-1 $413 $290 $293 $427 reversed $283 $-1 #
coedge $-1 $290 $413 $418 $536 forward $283 $-1 #
vertex $-1 $291 $540 #
straight-curve $-1 90.64485610522781656 16.87606243592790634 73.93256860401271524 0 0 1 I I #
straight-curve $-1 17.31162755797128483 16.87606243592790634 64.4027428190740352 0.8090169889191003438 0 -0.5877852598018022956 I I #
edge $-1 $534 -11.47639480846010684 $295 -5.087064202514604006 $422 $541 forward 7 unknown #
point $-1 90.64485610522781656 16.87606243592790634 20.25833168338972357 #
point $-1 78.07119574898126757 16.87606243592790634 20.25833168338972712 #
edge $-1 $542 1 $542 0 $298 $-1 forward 7 unknown #
vertex $-1 $299 $543 #
ellipse-curve $-1 83.57377110774649509 11.7645979511715062 14.61124797014087306 0.5877852598018022956 0 0.8090169889191003438 0.4045084944595501719 0 -0.2938926299009011478 1 I I #
point $-1 84.7625344215640979 11.7645979511715062 15.39678947357682404 #
edge $-1 $544 1 $544 0 $302 $-1 forward 7 unknown #
vertex $-1 $303 $545 #
ellipse-curve $-1 83.57377110774649509 13.68139713295515669 14.61124797014087306 0.5877852598018022956 0 0.8090169889191003438 0.4045084944595501719 0 -0.2938926299009011478 1 I I #
point $-1 84.7625344215640979 13.68139713295515669 15.39678947357682404 #
edge $-1 $546 1 $546 0 $306 $-1 forward 7 unknown #
vertex $-1 $307 $547 #
ellipse-curve $-1 83.57377110774649509 15.59819631473880719 14.61124797014087306 0.5877852598018022956 0 0.8090169889191003438 0.4045084944595501719 0 -0.2938926299009011478 1 I I #
point $-1 84.7625344215640979 15.59819631473880719 15.39678947357682404 #
plane-surface $-1 45.32242805261390828 21.96312663844251034 20.25833168338972357 0 0 1 1 0 0 forward_v I I I I #
coedge $-1 $453 $452 $445 $548 forward $311 $-1 #
coedge $-1 $445 $313 $315 $449 reversed $197 $-1 #
coedge $-1 $313 $444 $443 $548 reversed $197 $-1 #
coedge $-1 $321 $316 $313 $447 forward $322 $-1 #
edge $-1 $450 20.11431279593450938 $549 32.68797315218105837 $446 $550 forward 7 unknown #
coedge $-1 $315 $314 $453 $551 reversed $119 $-1 #
edge $-1 $552 -90.64485610522780235 $450 -75.10295707410142541 $444 $553 forward 7 unknown #
vertex $-1 $317 $554 #
straight-curve $-1 78.07119574898126757 30.31545167930579154 20.25833168338972712 0 -1 0 I I #
coedge $-1 $443 $318 $321 $457 reversed $311 $-1 #
coedge $-1 $318 $443 $448 $551 forward $311 $-1 #
vertex $-1 $319 $555 #
straight-curve $-1 90.64485610522781656 41.86244202314182417 73.93256860401271524 0 0 1 I I #
straight-curve $-1 17.31162755797128483 41.86244202314182417 64.4027428190740352 0.8090169889191003438 0 -0.5877852598018022956 I I #
edge $-1 $549 13.50998477875381099 $323 19.89931538469931382 $452 $556 forward 7 unknown #
point $-1 90.64485610522781656 41.86244202314182417 20.25833168338972357 #
point $-1 78.07119574898126757 41.86244202314182417 20.25833168338972712 #
edge $-1 $557 1 $557 0 $326 $-1 forward 7 unknown #
vertex $-1 $327 $558 #
ellipse-curve $-1 83.57377110774649509 36.75097753838542758 14.61124797014087306 0.5877852598018022956 0 0.8090169889191003438 0.4045084944595501719 0 -0.2938926299009011478 1 I I #
point $-1 84.7625344215640979 36.75097753838542758 15.39678947357682404 #
edge $-1 $559 1 $559 0 $330 $-1 forward 7 unknown #
vertex $-1 $331 $560 #
ellipse-curve $-1 83.57377110774649509 38.66777672016907985 14.61124797014087306 0.5877852598018022956 0 0.8090169889191003438 0.4045084944595501719 0 -0.2938926299009011478 1 I I #
point $-1 84.7625344215640979 38.66777672016907985 15.39678947357682404 #
edge $-1 $561 1 $561 0 $334 $-1 forward 7 unknown #
vertex $-1 $335 $562 #
ellipse-curve $-1 83.57377110774649509 40.58457590195273212 14.61124797014087306 0.5877852598018022956 0 0.8090169889191003438 0.4045084944595501719 0 -0.2938926299009011478 1 I I #
point $-1 84.7625344215640979 40.58457590195273212 15.39678947357682404 #
loop $-1 $-1 $563 $338 #
plane-surface $-1 0 21.96312663844251034 10.12916584169486178 1 0 0 0 0 -1 forward_v I I I I #
coedge $-1 $341 $344 $564 $565 forward $226 $-1 #
coedge $-1 $483 $347 $341 $476 reversed $339 $-1 #
edge $-1 $566 15.77438515606208824 $350 18.9947994912458924 $341 $567 forward 7 unknown #
coedge $-1 $481 $564 $343 $478 forward $472 $-1 #
edge $-1 $479 16.37577401631861207 $486 21.52951444623093025 $477 $568 forward 7 unknown #
vertex $-1 $565 $569 #
straight-curve $-1 -15.77438515606208824 16.57106447490165024 20.25833168338972712 -1 0 0 I I #
coedge $-1 $563 $477 $346 $482 forward $472 $-1 #
edge $-1 $486 0.6589951071048183451 $484 8.807139005767258055 $481 $570 forward 7 unknown #
coedge $-1 $347 $475 $563 $571 reversed $339 $-1 #
vertex $-1 $571 $572 #
straight-curve $-1 -0.6426415990454614757 8.422920576239214085 14.07614967850376786 0.529919251551154491 0 0.8480481040810504689 I I #
vertex $-1 $482 $573 #
straight-curve $-1 -7.105427357601001859e-15 16.57106447490165024 15.10459125347739295 0.529919251551154491 0 0.8480481040810504689 I I #
point $-1 3.220414335183804155 8.422920576239210533 20.25833168338972357 #
point $-1 3.220414335183804155 16.57106447490165024 20.25833168338972357 #
edge $-1 $574 1 $574 0 $353 $-1 forward 7 unknown #
vertex $-1 $354 $575 #
ellipse-curve $-1 2.458255271672960873 10.75096169014276626 17.15154221688240099 -0.8480481040810504689 0 0.529919251551154491 0.2649596257755772455 0 0.4240240520405252345 1 I I #
point $-1 1.87516679336748382 10.75096169014276626 18.10548552047408322 #
edge $-1 $576 1 $576 0 $357 $-1 forward 7 unknown #
vertex $-1 $358 $577 #
ellipse-curve $-1 2.458255271672960873 14.24302336099809629 17.15154221688240099 -0.8480481040810504689 0 0.529919251551154491 0.2649596257755772455 0 0.4240240520405252345 1 I I #
point $-1 1.87516679336748382 14.24302336099809629 18.10548552047408322 #
plane-surface $-1 90.64485610522781656 21.96312663844251034 10.12916584169486178 -1 0 0 0 0 1 forward_v I I I I #
coedge $-1 $366 $364 $368 $503 reversed $248 $-1 #
edge $-1 $379 -10.12916584169486178 $505 10.12916584169486178 $378 $578 forward 7 unknown #
vertex $-1 $503 $579 #
straight-curve $-1 0 0 10.12916584169486178 0 0 -1 I I #
edge $-1 $501 -21.96312663844251034 $505 21.96312663844251034 $499 $580 forward 7 unknown #
straight-curve $-1 45.32242805261390828 0 0 -1 0 0 I I #
vertex $-1 $371 $581 #
straight-curve $-1 45.32242805261390828 43.92625327688502068 0 1 0 0 I I #
point $-1 90.64485610522781656 43.92625327688502068 0 #
point $-1 90.64485610522781656 0 0 #
straight-curve $-1 0 21.96312663844251034 20.25833168338972357 0 -1 0 I I #
point $-1 0 43.92625327688502068 20.25833168338972357 #
point $-1 0 0 20.25833168338972357 #
straight-curve $-1 90.64485610522781656 0 10.12916584169486178 0 0 -1 I I #
straight-curve $-1 90.64485610522781656 43.92625327688502068 10.12916584169486178 0 0 -1 I I #
loop $-1 $-1 $394 $388 #
plane-surface $-1 45.32242805261390828 0 10.12916584169486178 0 1 0 0 0 1 forward_v I I I I #
coedge $-1 $403 $402 $392 $518 forward $389 $-1 #
edge $-1 $522 -13.08729346328105869 $398 -4.664372887041844606 $391 $582 forward 7 unknown #
edge $-1 $524 4.664372887041844606 $521 13.08729346328105869 $516 $583 forward 7 unknown #
coedge $-1 $400 $394 $406 $530 reversed $514 $-1 #
coedge $-1 $394 $400 $403 $528 reversed $514 $-1 #
vertex $-1 $528 $584 #
vertex $-1 $395 $585 #
straight-curve $-1 6.270721826825507605 0 10.12916584169486178 0 0 1 I I #
vertex $-1 $409 $586 #
straight-curve $-1 6.270721826825507605 8.422920576239214085 10.12916584169486178 0 0 -1 I I #
point $-1 6.270721826825507605 8.422920576239214085 20.25833168338972357 #
straight-curve $-1 0.5 0 10.12916584169486178 0 0 -1 I I #
edge $-1 $521 39.05170622578840067 $404 44.82242805261390828 $520 $587 forward 7 unknown #
point $-1 0.5 0 0 #
edge $-1 $407 -44.82242805261390828 $522 -39.05170622578840067 $519 $588 forward 7 unknown #
point $-1 0.5 0 20.25833168338972357 #
straight-curve $-1 24.35389448301333104 8.422920576239214085 0 1 0 0 I I #
edge $-1 $534 53.67423692062298812 $537 62.8095360804469891 $413 $589 forward 7 unknown #
vertex $-1 $427 $590 #
straight-curve $-1 57.95688295304675819 10.4867318299824035 20.25833168338972712 1 0 0 I I #
edge $-1 $537 -7.335530055716429132 $424 -0.946199449770926293 $423 $591 forward 7 unknown #
vertex $-1 $536 $592 #
straight-curve $-1 17.31162755797128483 10.4867318299824035 64.4027428190740352 -0.8090169889191003438 0 0.5877852598018022956 I I #
point $-1 78.07119574898126757 10.4867318299824035 20.25833168338972712 #
point $-1 90.64485610522783077 16.87606243592790634 11.12303252356572436 #
straight-curve $-1 90.64485610522781656 21.96312663844251034 20.25833168338972357 0 1 0 I I #
vertex $-1 $430 $593 #
point $-1 83.97827960220605803 11.7645979511715062 14.31735534023997225 #
vertex $-1 $434 $594 #
point $-1 83.97827960220605803 13.68139713295515669 14.31735534023997225 #
vertex $-1 $438 $595 #
point $-1 83.97827960220605803 15.59819631473880719 14.31735534023997225 #
edge $-1 $549 53.67423692062298812 $552 62.8095360804469891 $443 $596 forward 7 unknown #
vertex $-1 $457 $597 #
straight-curve $-1 57.95688295304675819 35.47311141719632133 20.25833168338972712 1 0 0 I I #
edge $-1 $552 5.157659737890529783 $454 11.54699034383603262 $453 $598 forward 7 unknown #
vertex $-1 $551 $599 #
straight-curve $-1 17.31162755797128483 35.47311141719632133 64.4027428190740352 -0.8090169889191003438 0 0.5877852598018022956 I I #
point $-1 78.07119574898126757 35.47311141719632133 20.25833168338972712 #
point $-1 90.64485610522783077 41.86244202314182417 11.12303252356572436 #
straight-curve $-1 90.64485610522781656 21.96312663844251034 20.25833168338972357 0 1 0 I I #
vertex $-1 $460 $600 #
point $-1 83.97827960220605803 36.75097753838542758 14.31735534023997225 #
vertex $-1 $464 $601 #
point $-1 83.97827960220605803 38.66777672016907985 14.31735534023997225 #
vertex $-1 $468 $602 #
point $-1 83.97827960220605803 40.58457590195273212 14.31735534023997225 #
coedge $-1 $564 $481 $483 $571 forward $472 $-1 #
coedge $-1 $477 $563 $474 $565 reversed $472 $-1 #
edge $-1 $479 5.392062163540860098 $566 13.54020606220329981 $564 $603 forward 7 unknown #
vertex $-1 $476 $604 #
straight-curve $-1 -15.77438515606208824 8.422920576239210533 20.25833168338972712 1 0 0 I I #
straight-curve $-1 0 16.57106447490165024 36.63410569970833564 0 0 -1 I I #
point $-1 0 16.57106447490165024 20.25833168338972357 #
straight-curve $-1 0 17.23005958200646859 15.10459125347740539 0 -1 0 I I #
edge $-1 $484 -21.52951444623093025 $566 -16.37577401631861207 $563 $605 forward 7 unknown #
point $-1 0 8.422920576239210533 15.10459125347740539 #
point $-1 0 16.57106447490165024 15.10459125347740539 #
vertex $-1 $490 $606 #
point $-1 2.72321489744853551 10.75096169014276626 17.57556626892292684 #
vertex $-1 $494 $607 #
point $-1 2.72321489744853551 14.24302336099809629 17.57556626892292684 #
straight-curve $-1 0 43.92625327688502068 10.12916584169486178 0 0 -1 I I #
point $-1 0 0 0 #
straight-curve $-1 0 21.96312663844251034 0 0 1 0 I I #
point $-1 0 43.92625327688502068 0 #
straight-curve $-1 6.270721826825507605 13.08729346328105869 20.25833168338972357 0 1 0 I I #
straight-curve $-1 6.270721826825507605 13.08729346328105869 0 0 -1 0 I I #
point $-1 6.270721826825507605 0 0 #
point $-1 6.270721826825507605 0 20.25833168338972357 #
point $-1 6.270721826825507605 8.422920576239214085 0 #
straight-curve $-1 45.32242805261390828 0 0 -1 0 0 I I #
straight-curve $-1 45.32242805261390828 0 20.25833168338972357 1 0 0 I I #
straight-curve $-1 90.64485610522781656 10.4867318299824035 73.93256860401271524 0 0 -1 I I #
point $-1 90.64485610522781656 10.4867318299824035 20.25833168338972357 #
straight-curve $-1 90.64485610522781656 17.82226188569883263 11.12303252356572436 0 1 0 I I #
point $-1 90.64485610522783077 10.4867318299824035 11.12303252356572436 #
point $-1 83.27987847784561382 11.7645979511715062 14.20673947568132434 #
point $-1 83.27987847784561382 13.68139713295515669 14.20673947568132434 #
point $-1 83.27987847784561382 15.59819631473880719 14.20673947568132434 #
straight-curve $-1 90.64485610522781656 35.47311141719632133 73.93256860401271524 0 0 -1 I I #
point $-1 90.64485610522781656 35.47311141719632133 20.25833168338972357 #
straight-curve $-1 90.64485610522781656 30.31545167930579154 11.12303252356572436 0 1 0 I I #
point $-1 90.64485610522783077 35.47311141719632133 11.12303252356572436 #
point $-1 83.27987847784561382 36.75097753838542758 14.20673947568132434 #
point $-1 83.27987847784561382 38.66777672016907985 14.20673947568132434 #
point $-1 83.27987847784561382 40.58457590195273212 14.20673947568132434 #
straight-curve $-1 0 21.96312663844251034 20.25833168338972357 0 -1 0 I I #
point $-1 0 8.422920576239210533 20.25833168338972357 #
straight-curve $-1 0 8.422920576239210533 36.63410569970833564 0 0 1 I I #
point $-1 2.882279323713483166 10.75096169014276626 16.88658259110682636 #
point $-1 2.882279323713483166 14.24302336099809629 16.88658259110682636 #
End-of-ACIS-data 