600 0 8 0           
96 GICL ACIS Healer - Source: /gicl/data5/repository/Drexel/SM99-DATA/part122.smdg.deltas.sat - 6 0 18 ACIS 6.0.3 Solaris 24 Sat Apr 13 20:45:06 2002 
1 9.999999999999999547e-07 1.000000000000000036e-10 
body $-1 $8 $-1 $-1 #
body $-1 $9 $-1 $-1 #
body $-1 $10 $-1 $-1 #
body $-1 $11 $-1 $-1 #
body $-1 $12 $-1 $-1 #
body $-1 $13 $-1 $-1 #
body $-1 $14 $-1 $-1 #
body $-1 $15 $-1 $-1 #
lump $-1 $-1 $16 $0 #
lump $-1 $-1 $17 $1 #
lump $-1 $-1 $18 $2 #
lump $-1 $-1 $19 $3 #
lump $-1 $-1 $20 $4 #
lump $-1 $-1 $21 $5 #
lump $-1 $-1 $22 $6 #
lump $-1 $-1 $23 $7 #
shell $-1 $-1 $-1 $24 $-1 $8 #
shell $-1 $-1 $-1 $25 $-1 $9 #
shell $-1 $-1 $-1 $26 $-1 $10 #
shell $-1 $-1 $-1 $27 $-1 $11 #
shell $-1 $-1 $-1 $28 $-1 $12 #
shell $-1 $-1 $-1 $29 $-1 $13 #
shell $-1 $-1 $-1 $30 $-1 $14 #
shell $-1 $-1 $-1 $31 $-1 $15 #
face $-1 $32 $33 $16 $-1 $34 forward single #
face $-1 $35 $36 $17 $-1 $37 reversed single #
face $-1 $38 $39 $18 $-1 $40 reversed single #
face $-1 $41 $42 $19 $-1 $43 forward single #
face $-1 $44 $45 $20 $-1 $46 forward single #
face $-1 $47 $48 $21 $-1 $49 reversed single #
face $-1 $50 $51 $22 $-1 $52 forward single #
face $-1 $53 $54 $23 $-1 $55 forward single #
face $-1 $56 $57 $16 $-1 $58 reversed single #
loop $-1 $-1 $59 $24 #
plane-surface $-1 68.84365367595447083 31.46298051479089963 16.67969098551691332 0 0 1 1 0 0 forward_v I I I I #
face $-1 $60 $61 $17 $-1 $62 reversed single #
loop $-1 $-1 $63 $25 #
plane-surface $-1 68.84365367595447083 4.447181185939808046 13.55882189578927211 0 0 1 1 0 0 forward_v I I I I #
face $-1 $64 $65 $18 $-1 $66 reversed single #
loop $-1 $-1 $67 $26 #
plane-surface $-1 144.4829137924943723 44.45068535934416332 203.2510947463926527 0 -1 0 -0.7313537098837770145 0 -0.6819983511997929071 forward_v I I I I #
face $-1 $68 $69 $19 $-1 $70 forward single #
loop $-1 $71 $72 $27 #
cone-surface $-1 133.3805478450072144 39.0715544989927821 12.14000383743152156 -0.7313537098837770145 0 -0.6819983511997929071 0.3409991755998964535 0 -0.3656768549418885073 1 I I 0 1 0.5 forward I I I I #
face $-1 $73 $74 $20 $-1 $75 forward single #
loop $-1 $76 $77 $28 #
cone-surface $-1 133.3805478450072144 42.29903301520361225 12.14000383743152156 -0.7313537098837770145 0 -0.6819983511997929071 0.3409991755998964535 0 -0.3656768549418885073 1 I I 0 1 0.5 forward I I I I #
face $-1 $78 $79 $21 $-1 $80 reversed single #
loop $-1 $-1 $81 $29 #
plane-surface $-1 1.421085471520200372e-14 12.1186986037611959 8.3823791294542076 -0.8746197147644345637 0 0.484809606490402778 0.484809606490402778 0 0.8746197147644345637 forward_v I I I I #
face $-1 $82 $83 $22 $-1 $84 forward single #
loop $-1 $85 $86 $30 #
cone-surface $-1 2.861098888213703617 10.73684021866908722 12.21981191010789836 0.8746197147644345637 0 -0.484809606490402778 0.242404803245201389 0 0.4373098573822172819 1 I I 0 1 0.5 forward I I I I #
face $-1 $87 $88 $23 $-1 $89 forward single #
loop $-1 $90 $91 $31 #
cone-surface $-1 2.861098888213703617 13.50055698885329747 12.21981191010789836 0.8746197147644345637 0 -0.484809606490402778 0.242404803245201389 0 0.4373098573822172819 1 I I 0 1 0.5 forward I I I I #
face $-1 $92 $93 $16 $-1 $94 reversed single #
loop $-1 $-1 $95 $32 #
plane-surface $-1 68.84365367595447083 31.46298051479089963 0 0 0 1 1 0 0 forward_v I I I I #
coedge $-1 $96 $97 $98 $99 forward $33 $-1 #
face $-1 $100 $101 $17 $-1 $102 reversed single #
loop $-1 $-1 $103 $35 #
plane-surface $-1 68.84365367595447083 8.894362371879616092 15.11925644065309271 0 -1 0 0 0 -1 forward_v I I I I #
coedge $-1 $104 $105 $106 $107 reversed $36 $-1 #
face $-1 $108 $109 $18 $-1 $110 reversed single #
loop $-1 $-1 $111 $38 #
plane-surface $-1 43.78479075676791865 40.68529375709819362 109.3485781512516297 0.7313537098837770145 0 0.6819983511997929071 0.6819983511997929071 0 -0.7313537098837770145 forward_v I I I I #
coedge $-1 $112 $113 $114 $115 reversed $39 $-1 #
face $-1 $-1 $116 $19 $-1 $117 forward single #
loop $-1 $118 $119 $41 #
cone-surface $-1 132.6346416091416813 39.0715544989927821 11.44443503654203198 -0.7313537098837770145 0 -0.6819983511997929071 0.1704995877999482268 0 -0.1828384274709442536 1 I I -0.7071067811865474617 0.7071067811865474617 0.25 forward I I I I #
loop $-1 $-1 $120 $27 #
coedge $-1 $72 $72 $121 $122 reversed $42 $-1 #
face $-1 $-1 $123 $20 $-1 $124 forward single #
loop $-1 $125 $126 $44 #
cone-surface $-1 132.6346416091416813 42.29903301520361225 11.44443503654203198 -0.7313537098837770145 0 -0.6819983511997929071 0.1704995877999482268 0 -0.1828384274709442536 1 I I -0.7071067811865474617 0.7071067811865474617 0.25 forward I I I I #
loop $-1 $-1 $127 $28 #
coedge $-1 $77 $77 $128 $129 reversed $45 $-1 #
face $-1 $130 $131 $21 $-1 $132 forward single #
loop $-1 $-1 $133 $47 #
plane-surface $-1 -120.4240334828096195 15.3430348356427757 75.13450842545631758 0 -1 0 0.8746197147644345637 0 -0.484809606490402778 forward_v I I I I #
coedge $-1 $134 $135 $136 $137 reversed $48 $-1 #
face $-1 $-1 $138 $22 $-1 $139 forward single #
loop $-1 $140 $141 $50 #
cone-surface $-1 3.641215258145734879 10.73684021866908722 11.78738636110763061 0.8746197147644345637 0 -0.484809606490402778 0.1212024016226006945 0 0.2186549286911086409 1 I I -0.7071067811865474617 0.7071067811865474617 0.25 forward I I I I #
loop $-1 $-1 $142 $30 #
coedge $-1 $86 $86 $143 $144 reversed $51 $-1 #
face $-1 $-1 $145 $23 $-1 $146 forward single #
loop $-1 $147 $148 $53 #
cone-surface $-1 3.641215258145734879 13.50055698885329747 11.78738636110763061 0.8746197147644345637 0 -0.484809606490402778 0.1212024016226006945 0 0.2186549286911086409 1 I I -0.7071067811865474617 0.7071067811865474617 0.25 forward I I I I #
loop $-1 $-1 $149 $31 #
coedge $-1 $91 $91 $150 $151 reversed $54 $-1 #
face $-1 $152 $153 $16 $-1 $154 reversed single #
loop $-1 $-1 $155 $56 #
plane-surface $-1 68.84365367595447083 0 8.339845492758456658 0 1 0 0 0 1 forward_v I I I I #
coedge $-1 $156 $157 $158 $159 forward $57 $-1 #
coedge $-1 $160 $59 $161 $162 forward $33 $-1 #
coedge $-1 $59 $160 $163 $164 forward $33 $-1 #
coedge $-1 $165 $166 $59 $99 reversed $167 $-1 #
edge $-1 $168 -31.46298051479089963 $169 31.46298051479089963 $98 $170 forward 7 unknown #
face $-1 $171 $172 $17 $-1 $173 reversed single #
loop $-1 $-1 $174 $60 #
plane-surface $-1 0 31.46298051479089963 8.339845492758456658 1 0 0 0 0 -1 forward_v I I I I #
coedge $-1 $175 $176 $177 $178 reversed $61 $-1 #
coedge $-1 $179 $63 $180 $181 reversed $36 $-1 #
coedge $-1 $63 $179 $182 $183 forward $36 $-1 #
coedge $-1 $184 $185 $63 $107 forward $186 $-1 #
edge $-1 $187 -17.95508085036535562 $188 -9.060718478485739524 $106 $189 forward 7 unknown #
face $-1 $190 $191 $18 $-1 $192 reversed single #
loop $-1 $-1 $193 $64 #
plane-surface $-1 144.4829137924943723 36.91990215485222393 203.2510947463926527 0 1 0 0.7313537098837770145 0 0.6819983511997929071 forward_v I I I I #
coedge $-1 $194 $195 $196 $197 reversed $65 $-1 #
coedge $-1 $113 $67 $198 $199 reversed $39 $-1 #
coedge $-1 $67 $112 $194 $200 reversed $39 $-1 #
coedge $-1 $196 $201 $67 $115 forward $202 $-1 #
edge $-1 $203 -31.0240236176845201 $204 -23.53664022067022188 $114 $205 forward 7 unknown #
loop $-1 $-1 $121 $68 #
plane-surface $-1 43.78479075676791865 40.68529375709819362 109.3485781512516297 0.7313537098837770145 0 0.6819983511997929071 0.6819983511997929071 0 -0.7313537098837770145 forward_v I I I I #
loop $-1 $-1 $206 $41 #
coedge $-1 $119 $119 $120 $207 reversed $69 $-1 #
coedge $-1 $120 $120 $119 $207 forward $71 $-1 #
coedge $-1 $121 $121 $72 $122 forward $116 $-1 #
edge $-1 $208 0 $208 6.283185307179586232 $121 $209 forward 7 unknown #
loop $-1 $-1 $128 $73 #
plane-surface $-1 43.78479075676791865 40.68529375709819362 109.3485781512516297 0.7313537098837770145 0 0.6819983511997929071 0.6819983511997929071 0 -0.7313537098837770145 forward_v I I I I #
loop $-1 $-1 $210 $44 #
coedge $-1 $126 $126 $127 $211 reversed $74 $-1 #
coedge $-1 $127 $127 $126 $211 forward $76 $-1 #
coedge $-1 $128 $128 $77 $129 forward $123 $-1 #
edge $-1 $212 0 $212 6.283185307179586232 $128 $213 forward 7 unknown #
face $-1 $214 $215 $21 $-1 $216 reversed single #
loop $-1 $-1 $136 $78 #
plane-surface $-1 68.84365367595447083 31.46298051479089963 16.67969098551691332 0 0 1 1 0 0 forward_v I I I I #
coedge $-1 $217 $218 $219 $220 reversed $79 $-1 #
coedge $-1 $221 $81 $222 $223 reversed $48 $-1 #
coedge $-1 $81 $221 $217 $224 forward $48 $-1 #
coedge $-1 $219 $225 $81 $137 forward $131 $-1 #
edge $-1 $226 -12.89647718739643167 $227 -6.447804723633272062 $136 $228 forward 7 unknown #
loop $-1 $-1 $143 $82 #
plane-surface $-1 1.421085471520200372e-14 12.1186986037611959 8.3823791294542076 -0.8746197147644345637 0 0.484809606490402778 0.484809606490402778 0 0.8746197147644345637 forward_v I I I I #
loop $-1 $-1 $229 $50 #
coedge $-1 $141 $141 $142 $230 reversed $83 $-1 #
coedge $-1 $142 $142 $141 $230 forward $85 $-1 #
coedge $-1 $143 $143 $86 $144 forward $138 $-1 #
edge $-1 $231 0 $231 6.283185307179586232 $143 $232 forward 7 unknown #
loop $-1 $-1 $150 $87 #
plane-surface $-1 1.421085471520200372e-14 12.1186986037611959 8.3823791294542076 -0.8746197147644345637 0 0.484809606490402778 0.484809606490402778 0 0.8746197147644345637 forward_v I I I I #
loop $-1 $-1 $233 $53 #
coedge $-1 $148 $148 $149 $234 reversed $88 $-1 #
coedge $-1 $149 $149 $148 $234 forward $90 $-1 #
coedge $-1 $150 $150 $91 $151 forward $145 $-1 #
edge $-1 $235 0 $235 6.283185307179586232 $150 $236 forward 7 unknown #
face $-1 $237 $238 $16 $-1 $239 reversed single #
loop $-1 $-1 $240 $92 #
plane-surface $-1 0 31.46298051479089963 8.339845492758456658 1 0 0 0 0 -1 forward_v I I I I #
coedge $-1 $241 $163 $242 $243 forward $93 $-1 #
coedge $-1 $244 $95 $241 $245 forward $57 $-1 #
coedge $-1 $95 $244 $246 $247 forward $57 $-1 #
coedge $-1 $166 $165 $95 $159 reversed $167 $-1 #
edge $-1 $248 -31.46298051479089963 $249 31.46298051479089963 $158 $250 forward 7 unknown #
coedge $-1 $97 $96 $251 $252 forward $33 $-1 #
coedge $-1 $253 $254 $96 $162 reversed $238 $-1 #
edge $-1 $169 -68.84365367595447083 $255 68.84365367595447083 $161 $256 forward 7 unknown #
coedge $-1 $155 $257 $97 $164 reversed $93 $-1 #
edge $-1 $258 -68.84365367595447083 $168 68.84365367595447083 $163 $259 forward 7 unknown #
coedge $-1 $158 $98 $257 $260 forward $167 $-1 #
coedge $-1 $98 $158 $253 $261 reversed $167 $-1 #
loop $-1 $-1 $165 $237 #
vertex $-1 $99 $262 #
vertex $-1 $99 $263 #
straight-curve $-1 137.6873073519089417 31.46298051479089963 16.67969098551691332 0 1 0 I I #
face $-1 $264 $265 $17 $-1 $266 forward single #
loop $-1 $-1 $180 $100 #
plane-surface $-1 68.84365367595447083 0 8.339845492758456658 0 1 0 0 0 1 forward_v I I I I #
coedge $-1 $267 $268 $176 $269 forward $101 $-1 #
coedge $-1 $182 $103 $184 $270 reversed $61 $-1 #
coedge $-1 $103 $182 $174 $269 reversed $61 $-1 #
coedge $-1 $271 $272 $103 $178 forward $265 $-1 #
edge $-1 $273 -68.84365367595447083 $274 68.84365367595447083 $177 $275 forward 7 unknown #
coedge $-1 $105 $104 $267 $276 reversed $36 $-1 #
coedge $-1 $277 $278 $104 $181 forward $172 $-1 #
edge $-1 $279 -68.84365367595447083 $187 68.84365367595447083 $180 $280 forward 7 unknown #
coedge $-1 $176 $175 $105 $183 reversed $61 $-1 #
edge $-1 $281 -68.84365367595447083 $188 68.84365367595447083 $182 $282 forward 7 unknown #
coedge $-1 $283 $106 $175 $270 forward $186 $-1 #
coedge $-1 $106 $283 $277 $284 forward $186 $-1 #
loop $-1 $-1 $184 $264 #
vertex $-1 $181 $285 #
vertex $-1 $107 $286 #
straight-curve $-1 137.6873073519089417 17.95508085036535562 13.55882189578927211 0 1 0 I I #
face $-1 $-1 $202 $18 $-1 $287 forward single #
loop $-1 $-1 $288 $108 #
plane-surface $-1 137.6873073519089417 31.46298051479089963 8.339845492758456658 -1 0 0 0 0 1 forward_v I I I I #
coedge $-1 $289 $290 $291 $292 reversed $109 $-1 #
coedge $-1 $293 $111 $113 $200 forward $65 $-1 #
coedge $-1 $111 $293 $289 $294 forward $65 $-1 #
coedge $-1 $291 $114 $111 $197 forward $202 $-1 #
edge $-1 $204 -8.376548223399616688 $295 -0.8457650189076773017 $196 $296 forward 7 unknown #
coedge $-1 $297 $298 $112 $199 forward $191 $-1 #
edge $-1 $299 -97.14501500405037859 $203 -89.11577913405864138 $198 $300 forward 7 unknown #
edge $-1 $204 126.7087127792941317 $299 137.6873073519089417 $113 $301 forward 7 unknown #
coedge $-1 $114 $291 $297 $302 forward $202 $-1 #
loop $-1 $-1 $291 $190 #
vertex $-1 $199 $303 #
vertex $-1 $115 $304 #
straight-curve $-1 106.6632837342244216 44.45068535934416332 16.67969098551691332 -1 0 0 I I #
coedge $-1 $206 $206 $-1 $305 reversed $118 $-1 #
edge $-1 $306 0 $306 6.283185307179586232 $119 $307 forward 7 unknown #
vertex $-1 $122 $308 #
ellipse-curve $-1 133.9436156534017925 39.0715544989927821 12.66507305052105181 0.7313537098837770145 0 0.6819983511997929071 0.3409991755998964535 0 -0.3656768549418885073 1 I I #
coedge $-1 $210 $210 $-1 $309 reversed $125 $-1 #
edge $-1 $310 0 $310 6.283185307179586232 $126 $311 forward 7 unknown #
vertex $-1 $129 $312 #
ellipse-curve $-1 133.9436156534017925 42.29903301520361225 12.66507305052105181 0.7313537098837770145 0 0.6819983511997929071 0.3409991755998964535 0 -0.3656768549418885073 1 I I #
face $-1 $-1 $313 $21 $-1 $314 forward single #
loop $-1 $-1 $315 $130 #
plane-surface $-1 0 31.46298051479089963 8.339845492758456658 1 0 0 0 0 -1 forward_v I I I I #
coedge $-1 $218 $133 $135 $224 reversed $79 $-1 #
coedge $-1 $133 $217 $315 $316 reversed $79 $-1 #
coedge $-1 $317 $136 $133 $220 forward $131 $-1 #
edge $-1 $227 -30.38946479737317929 $318 -25.79018990342757434 $219 $319 forward 7 unknown #
coedge $-1 $135 $134 $320 $321 reversed $48 $-1 #
coedge $-1 $322 $323 $134 $223 forward $313 $-1 #
edge $-1 $324 -19.63413518016243486 $226 -10.14736999982633137 $222 $325 forward 7 unknown #
edge $-1 $326 -2.864047285311476366e-14 $227 9.486765180336075076 $217 $327 forward 7 unknown #
coedge $-1 $136 $317 $322 $328 forward $131 $-1 #
vertex $-1 $223 $329 #
vertex $-1 $137 $330 #
straight-curve $-1 4.599274893945590748 21.79083955927604777 16.67969098551691332 0 1 0 I I #
coedge $-1 $229 $229 $-1 $331 reversed $140 $-1 #
edge $-1 $332 0 $332 6.283185307179586232 $141 $333 forward 7 unknown #
vertex $-1 $144 $334 #
ellipse-curve $-1 2.299637446972809585 10.73684021866908722 12.53103505748555335 -0.8746197147644345637 0 0.484809606490402778 0.242404803245201389 0 0.4373098573822172819 1 I I #
coedge $-1 $233 $233 $-1 $335 reversed $147 $-1 #
edge $-1 $336 0 $336 6.283185307179586232 $148 $337 forward 7 unknown #
vertex $-1 $151 $338 #
ellipse-curve $-1 2.299637446972809585 13.50055698885329747 12.53103505748555335 -0.8746197147644345637 0 0.484809606490402778 0.242404803245201389 0 0.4373098573822172819 1 I I #
face $-1 $-1 $167 $16 $-1 $339 reversed single #
loop $-1 $-1 $253 $152 #
plane-surface $-1 68.84365367595447083 62.92596102958179927 8.339845492758456658 0 -1 0 0 0 -1 forward_v I I I I #
coedge $-1 $340 $251 $254 $341 forward $153 $-1 #
coedge $-1 $257 $155 $156 $245 reversed $93 $-1 #
coedge $-1 $251 $340 $155 $243 reversed $153 $-1 #
edge $-1 $258 -8.339845492758456658 $342 8.339845492758456658 $242 $343 forward 7 unknown #
coedge $-1 $157 $156 $340 $344 forward $57 $-1 #
edge $-1 $249 -68.84365367595447083 $342 68.84365367595447083 $241 $345 forward 7 unknown #
coedge $-1 $254 $253 $157 $247 reversed $238 $-1 #
edge $-1 $346 -68.84365367595447083 $248 68.84365367595447083 $246 $347 forward 7 unknown #
vertex $-1 $159 $348 #
vertex $-1 $260 $349 #
straight-curve $-1 137.6873073519089417 31.46298051479089963 0 0 -1 0 I I #
coedge $-1 $240 $242 $160 $252 reversed $153 $-1 #
edge $-1 $255 -31.46298051479089963 $258 31.46298051479089963 $251 $350 forward 7 unknown #
coedge $-1 $246 $161 $166 $261 forward $238 $-1 #
coedge $-1 $161 $246 $240 $341 reversed $238 $-1 #
vertex $-1 $162 $351 #
straight-curve $-1 68.84365367595447083 62.92596102958179927 16.67969098551691332 -1 0 0 I I #
coedge $-1 $163 $241 $165 $260 reversed $93 $-1 #
vertex $-1 $252 $352 #
straight-curve $-1 68.84365367595447083 0 16.67969098551691332 1 0 0 I I #
edge $-1 $168 -8.339845492758456658 $249 8.339845492758456658 $165 $353 forward 7 unknown #
edge $-1 $169 -8.339845492758456658 $248 8.339845492758456658 $166 $354 forward 7 unknown #
point $-1 137.6873073519089417 0 16.67969098551691332 #
point $-1 137.6873073519089417 62.92596102958179927 16.67969098551691332 #
face $-1 $-1 $186 $17 $-1 $355 reversed single #
loop $-1 $-1 $177 $171 #
plane-surface $-1 68.84365367595447083 31.46298051479089963 16.67969098551691332 0 0 1 1 0 0 forward_v I I I I #
coedge $-1 $356 $174 $179 $276 forward $101 $-1 #
coedge $-1 $174 $356 $271 $357 reversed $101 $-1 #
edge $-1 $274 -4.950140018811138631 $281 -1.829270929083497421 $174 $358 forward 7 unknown #
edge $-1 $188 1.829270929083497421 $273 4.950140018811138631 $184 $359 forward 7 unknown #
coedge $-1 $360 $177 $268 $357 forward $265 $-1 #
coedge $-1 $177 $360 $283 $361 forward $265 $-1 #
vertex $-1 $270 $362 #
vertex $-1 $357 $363 #
straight-curve $-1 68.84365367595447083 8.894362371879616092 16.67969098551691332 -1 0 0 I I #
edge $-1 $281 9.060718478485739524 $279 17.95508085036535562 $267 $364 forward 7 unknown #
coedge $-1 $365 $180 $185 $284 reversed $172 $-1 #
coedge $-1 $180 $365 $356 $366 forward $172 $-1 #
vertex $-1 $181 $367 #
straight-curve $-1 68.84365367595447083 0 13.55882189578927211 1 0 0 I I #
vertex $-1 $276 $368 #
straight-curve $-1 68.84365367595447083 8.894362371879616092 13.55882189578927211 1 0 0 I I #
coedge $-1 $185 $184 $272 $361 reversed $186 $-1 #
edge $-1 $369 -8.339845492758456658 $187 -5.218976403030815447 $185 $370 forward 7 unknown #
point $-1 137.6873073519089417 0 13.55882189578927211 #
point $-1 137.6873073519089417 8.894362371879616092 13.55882189578927211 #
plane-surface $-1 68.84365367595447083 31.46298051479089963 16.67969098551691332 0 0 1 1 0 0 forward_v I I I I #
coedge $-1 $298 $297 $290 $371 forward $191 $-1 #
coedge $-1 $290 $193 $195 $294 reversed $109 $-1 #
coedge $-1 $193 $289 $288 $371 reversed $109 $-1 #
coedge $-1 $201 $196 $193 $292 forward $202 $-1 #
edge $-1 $295 23.53664022067022188 $372 31.0240236176845201 $291 $373 forward 7 unknown #
coedge $-1 $195 $194 $298 $374 reversed $65 $-1 #
edge $-1 $375 -137.6873073519089417 $295 -126.7087127792941317 $289 $376 forward 7 unknown #
vertex $-1 $197 $377 #
straight-curve $-1 130.1999239548946434 36.07413713594454663 16.67969098551690621 0 -1 0 I I #
coedge $-1 $288 $198 $201 $302 reversed $191 $-1 #
coedge $-1 $198 $288 $293 $374 forward $191 $-1 #
vertex $-1 $199 $378 #
straight-curve $-1 137.6873073519089417 44.45068535934416332 105.7954701195755547 0 0 1 I I #
straight-curve $-1 43.78479075676791865 44.45068535934416332 109.3485781512516297 0.6819983511997929071 0 -0.7313537098837770145 I I #
edge $-1 $372 5.456921640061324297 $203 12.98770484455326368 $297 $379 forward 7 unknown #
point $-1 137.6873073519089417 44.45068535934416332 16.67969098551691332 #
point $-1 130.1999239548946434 44.45068535934416332 16.67969098551691332 #
edge $-1 $380 1 $380 0 $206 $-1 forward 7 unknown #
vertex $-1 $207 $381 #
ellipse-curve $-1 132.8174800366126078 39.0715544989927821 11.61493462434198065 0.7313537098837770145 0 0.6819983511997929071 0.3409991755998964535 0 -0.3656768549418885073 1 I I #
point $-1 134.284614829001697 39.0715544989927821 12.29939619557917396 #
edge $-1 $382 1 $382 0 $210 $-1 forward 7 unknown #
vertex $-1 $211 $383 #
ellipse-curve $-1 132.8174800366126078 42.29903301520361225 11.61493462434198065 0.7313537098837770145 0 0.6819983511997929071 0.3409991755998964535 0 -0.3656768549418885073 1 I I #
point $-1 134.284614829001697 42.29903301520361225 12.29939619557917396 #
loop $-1 $-1 $222 $214 #
plane-surface $-1 68.84365367595447083 8.894362371879616092 15.11925644065309271 0 -1 0 0 0 -1 forward_v I I I I #
coedge $-1 $320 $384 $218 $316 forward $215 $-1 #
edge $-1 $318 25.0574859735904738 $326 33.35479782965320794 $315 $385 forward 7 unknown #
coedge $-1 $225 $219 $384 $386 forward $131 $-1 #
vertex $-1 $386 $387 #
straight-curve $-1 -25.79018990342757434 15.3430348356427757 16.67969098551691332 -1 0 0 I I #
coedge $-1 $388 $315 $221 $321 forward $215 $-1 #
edge $-1 $326 6.447804723633272062 $324 12.89647718739643167 $320 $389 forward 7 unknown #
coedge $-1 $323 $222 $225 $328 reversed $313 $-1 #
coedge $-1 $222 $322 $388 $390 reversed $313 $-1 #
vertex $-1 $390 $391 #
straight-curve $-1 9.518817350473923966 8.894362371879616092 25.55478084037419961 0.484809606490402778 0 0.8746197147644345637 I I #
vertex $-1 $321 $392 #
straight-curve $-1 1.421085471520200372e-14 15.3430348356427757 8.3823791294542076 0.484809606490402778 0 0.8746197147644345637 I I #
edge $-1 $393 -68.84365367595447083 $226 -64.24437878200886587 $225 $394 forward 7 unknown #
point $-1 4.599274893945604958 8.894362371879616092 16.67969098551691332 #
point $-1 4.599274893945604958 15.3430348356427757 16.67969098551691332 #
edge $-1 $395 1 $395 0 $229 $-1 forward 7 unknown #
vertex $-1 $230 $396 #
ellipse-curve $-1 3.422560329454626071 10.73684021866908722 11.90858876273023093 -0.8746197147644345637 0 0.484809606490402778 0.242404803245201389 0 0.4373098573822172819 1 I I #
point $-1 2.542042250217988908 10.73684021866908722 12.96834491486778163 #
edge $-1 $397 1 $397 0 $233 $-1 forward 7 unknown #
vertex $-1 $234 $398 #
ellipse-curve $-1 3.422560329454626071 13.50055698885329747 11.90858876273023093 -0.8746197147644345637 0 0.484809606490402778 0.242404803245201389 0 0.4373098573822172819 1 I I #
point $-1 2.542042250217988908 13.50055698885329747 12.96834491486778163 #
plane-surface $-1 137.6873073519089417 31.46298051479089963 8.339845492758456658 -1 0 0 0 0 1 forward_v I I I I #
coedge $-1 $242 $240 $244 $344 reversed $153 $-1 #
edge $-1 $255 -8.339845492758456658 $346 8.339845492758456658 $254 $399 forward 7 unknown #
vertex $-1 $344 $400 #
straight-curve $-1 0 0 8.339845492758456658 0 0 -1 I I #
edge $-1 $342 -31.46298051479089963 $346 31.46298051479089963 $340 $401 forward 7 unknown #
straight-curve $-1 68.84365367595447083 0 0 -1 0 0 I I #
vertex $-1 $247 $402 #
straight-curve $-1 68.84365367595447083 62.92596102958179927 0 1 0 0 I I #
point $-1 137.6873073519089417 62.92596102958179927 0 #
point $-1 137.6873073519089417 0 0 #
straight-curve $-1 0 31.46298051479089963 16.67969098551691332 0 -1 0 I I #
point $-1 0 62.92596102958179927 16.67969098551691332 #
point $-1 0 0 16.67969098551691332 #
straight-curve $-1 137.6873073519089417 0 8.339845492758456658 0 0 -1 I I #
straight-curve $-1 137.6873073519089417 62.92596102958179927 8.339845492758456658 0 0 -1 I I #
plane-surface $-1 137.6873073519089417 31.46298051479089963 8.339845492758456658 -1 0 0 0 0 1 forward_v I I I I #
coedge $-1 $268 $267 $278 $366 reversed $101 $-1 #
edge $-1 $274 22.56861814291128354 $403 31.46298051479089963 $268 $404 forward 7 unknown #
straight-curve $-1 0 8.894362371879616092 11.72955096670577468 0 0 -1 I I #
straight-curve $-1 137.6873073519089417 8.894362371879616092 11.72955096670577468 0 0 1 I I #
coedge $-1 $272 $271 $365 $405 forward $265 $-1 #
edge $-1 $369 -31.46298051479089963 $273 -22.56861814291128354 $283 $406 forward 7 unknown #
point $-1 137.6873073519089417 8.894362371879616092 16.67969098551691332 #
point $-1 0 8.894362371879616092 16.67969098551691332 #
straight-curve $-1 0 17.95508085036535562 13.55882189578927211 0 -1 0 I I #
coedge $-1 $278 $277 $360 $405 reversed $172 $-1 #
edge $-1 $403 -8.339845492758456658 $279 -5.218976403030815447 $356 $407 forward 7 unknown #
point $-1 0 0 13.55882189578927211 #
point $-1 0 8.894362371879616092 13.55882189578927211 #
vertex $-1 $361 $408 #
straight-curve $-1 137.6873073519089417 0 8.339845492758456658 0 0 -1 I I #
edge $-1 $372 89.11577913405864138 $375 97.14501500405037859 $288 $409 forward 7 unknown #
vertex $-1 $302 $410 #
straight-curve $-1 106.6632837342244216 36.91990215485222393 16.67969098551691332 1 0 0 I I #
edge $-1 $375 0.8457650189076773017 $299 8.376548223399616688 $298 $411 forward 7 unknown #
vertex $-1 $374 $412 #
straight-curve $-1 43.78479075676791865 36.91990215485222393 109.3485781512516297 -0.6819983511997929071 0 0.7313537098837770145 I I #
point $-1 130.1999239548946434 36.91990215485222393 16.67969098551691332 #
point $-1 137.6873073519089417 44.45068535934416332 8.650455115525176097 #
straight-curve $-1 137.6873073519089417 31.46298051479089963 16.67969098551691332 0 1 0 I I #
vertex $-1 $305 $413 #
point $-1 133.1584792122125123 39.0715544989927821 11.24925776940009214 #
vertex $-1 $309 $414 #
point $-1 133.1584792122125123 42.29903301520361225 11.24925776940009214 #
coedge $-1 $315 $388 $317 $386 reversed $215 $-1 #
straight-curve $-1 0 15.3430348356427757 41.73717695910738712 0 0 -1 I I #
edge $-1 $318 16.11994567914812393 $393 22.56861814291128354 $384 $415 forward 7 unknown #
point $-1 0 15.3430348356427757 16.67969098551691332 #
coedge $-1 $384 $320 $323 $390 forward $215 $-1 #
straight-curve $-1 0 21.79083955927604777 8.382379129454196942 0 -1 0 I I #
edge $-1 $324 -33.35479782965320794 $393 -25.0574859735904738 $388 $416 forward 7 unknown #
point $-1 0 8.894362371879616092 8.382379129454182731 #
point $-1 0 15.3430348356427757 8.382379129454182731 #
vertex $-1 $390 $417 #
straight-curve $-1 68.84365367595447083 8.894362371879616092 16.67969098551691332 1 0 0 I I #
vertex $-1 $331 $418 #
point $-1 3.664965132699833816 10.73684021866908722 12.34589862011244854 #
vertex $-1 $335 $419 #
point $-1 3.664965132699833816 13.50055698885329747 12.34589862011244854 #
straight-curve $-1 0 62.92596102958179927 8.339845492758456658 0 0 -1 I I #
point $-1 0 0 0 #
straight-curve $-1 0 31.46298051479089963 0 0 1 0 I I #
point $-1 0 62.92596102958179927 0 #
vertex $-1 $357 $420 #
straight-curve $-1 0 31.46298051479089963 16.67969098551691332 0 -1 0 I I #
edge $-1 $403 -68.84365367595447083 $369 68.84365367595447083 $365 $421 forward 7 unknown #
straight-curve $-1 137.6873073519089417 31.46298051479089963 16.67969098551691332 0 1 0 I I #
straight-curve $-1 0 0 8.339845492758456658 0 0 -1 I I #
point $-1 137.6873073519089417 0 16.67969098551691332 #
straight-curve $-1 137.6873073519089417 36.91990215485222393 105.7954701195755547 0 0 -1 I I #
point $-1 137.6873073519089417 36.91990215485222393 16.67969098551691332 #
straight-curve $-1 137.6873073519089417 36.07413713594454663 8.650455115525183203 0 1 0 I I #
point $-1 137.6873073519089417 36.91990215485222393 8.650455115525176097 #
point $-1 132.4518031816707548 39.0715544989927821 11.27393544874208331 #
point $-1 132.4518031816707548 42.29903301520361225 11.27393544874208331 #
straight-curve $-1 0 31.46298051479089963 16.67969098551691332 0 -1 0 I I #
straight-curve $-1 0 8.894362371879616092 41.73717695910738712 0 0 1 I I #
point $-1 0 8.894362371879616092 16.67969098551691332 #
point $-1 3.859870186836843686 10.73684021866908722 11.66618395948503029 #
point $-1 3.859870186836843686 13.50055698885329747 11.66618395948503029 #
point $-1 0 0 16.67969098551691332 #
straight-curve $-1 68.84365367595447083 0 16.67969098551691332 1 0 0 I I #
End-of-ACIS-data 