600 0 5 0           
94 GICL ACIS Healer - Source: /gicl/data5/repository/Drexel/SM99-DATA/part110.smdg.feat.sat - 6 0 18 ACIS 6.0.3 Solaris 24 Sat Apr 13 20:43:59 2002 
1 9.999999999999999547e-07 1.000000000000000036e-10 
body $-1 $5 $-1 $-1 #
body $-1 $6 $-1 $-1 #
body $-1 $7 $-1 $-1 #
body $-1 $8 $-1 $-1 #
body $-1 $9 $-1 $-1 #
lump $-1 $-1 $10 $0 #
lump $-1 $-1 $11 $1 #
lump $-1 $-1 $12 $2 #
lump $-1 $-1 $13 $3 #
lump $-1 $-1 $14 $4 #
shell $-1 $-1 $-1 $15 $-1 $5 #
shell $-1 $-1 $-1 $16 $-1 $6 #
shell $-1 $-1 $-1 $17 $-1 $7 #
shell $-1 $-1 $-1 $18 $-1 $8 #
shell $-1 $-1 $-1 $19 $-1 $9 #
face $-1 $20 $21 $10 $-1 $22 forward single #
face $-1 $23 $24 $11 $-1 $25 forward single #
face $-1 $26 $27 $12 $-1 $28 forward single #
face $-1 $29 $30 $13 $-1 $31 forward single #
face $-1 $32 $33 $14 $-1 $34 forward single #
face $-1 $35 $36 $10 $-1 $37 reversed single #
loop $-1 $-1 $38 $15 #
plane-surface $-1 53.89568773461104456 35.50203873413470035 15.61084244786399822 0 0 1 1 0 0 forward_v I I I I #
face $-1 $39 $40 $11 $-1 $41 reversed single #
loop $-1 $-1 $42 $16 #
plane-surface $-1 13.87241099090628715 -4.502029848390671773 15.61084244786399822 0 0 1 1 0 0 forward_v I I I I #
face $-1 $43 $44 $12 $-1 $45 reversed single #
loop $-1 $-1 $46 $17 #
plane-surface $-1 13.87241099090628715 75.50610731666006359 15.61084244786399822 0 0 1 1 0 0 forward_v I I I I #
face $-1 $47 $48 $13 $-1 $49 reversed single #
loop $-1 $-1 $50 $18 #
plane-surface $-1 195.8740756399950556 51.10775907156844511 236.7574255968874297 0.7431448337585914166 0 0.6691305971616567927 0.6691305971616567927 0 -0.7431448337585914166 forward_v I I I I #
face $-1 $51 $52 $14 $-1 $53 forward single #
loop $-1 $54 $55 $19 #
cone-surface $-1 105.6235833409760261 51.10775907156844511 13.35507317967527641 -0.7431448337585914166 0 -0.6691305971616567927 0.6691305971616567927 0 -0.7431448337585914166 1 I I 0 1 1 forward I I I I #
face $-1 $56 $57 $10 $-1 $58 reversed single #
loop $-1 $-1 $59 $20 #
plane-surface $-1 53.89568773461104456 35.50203873413470035 0 0 0 1 1 0 0 forward_v I I I I #
coedge $-1 $60 $61 $62 $63 forward $21 $-1 #
face $-1 $64 $65 $11 $-1 $66 reversed single #
loop $-1 $-1 $67 $23 #
plane-surface $-1 13.87241099090628715 -4.502029848390671773 0 0 0 1 1 0 0 forward_v I I I I #
coedge $-1 $68 $69 $70 $71 forward $24 $-1 #
face $-1 $72 $73 $12 $-1 $74 reversed single #
loop $-1 $-1 $75 $26 #
plane-surface $-1 13.87241099090628715 75.50610731666006359 0 0 0 1 1 0 0 forward_v I I I I #
coedge $-1 $76 $77 $78 $79 forward $27 $-1 #
face $-1 $80 $81 $13 $-1 $82 reversed single #
loop $-1 $-1 $83 $29 #
plane-surface $-1 35.66486803262515082 51.10775907156844511 92.50441072369355311 0.7431448337585914166 0 0.6691305971616567927 0.6691305971616567927 0 -0.7431448337585914166 forward_v I I I I #
coedge $-1 $84 $85 $86 $87 forward $30 $-1 #
face $-1 $-1 $88 $14 $-1 $89 forward single #
loop $-1 $-1 $90 $32 #
plane-surface $-1 106.3457608173686708 51.10775907156844511 14.00532468393627283 0.7431448337585914166 0 0.6691305971616567927 -0.6691305971616567927 0 0.7431448337585914166 forward_v I I I I #
loop $-1 $-1 $91 $19 #
coedge $-1 $55 $55 $90 $92 reversed $33 $-1 #
face $-1 $93 $94 $10 $-1 $95 reversed single #
loop $-1 $-1 $96 $35 #
plane-surface $-1 53.89568773461104456 0 7.805421223931999108 0 1 0 0 0 1 forward_v I I I I #
coedge $-1 $97 $98 $99 $100 forward $36 $-1 #
coedge $-1 $101 $38 $102 $103 forward $21 $-1 #
coedge $-1 $38 $101 $104 $105 forward $21 $-1 #
coedge $-1 $106 $107 $38 $63 reversed $108 $-1 #
edge $-1 $109 -35.50203873413470035 $110 35.50203873413470035 $62 $111 forward 7 unknown #
face $-1 $112 $113 $11 $-1 $114 reversed single #
loop $-1 $-1 $115 $39 #
plane-surface $-1 13.87241099090628715 -9.004059696781343547 7.805421223931999108 0 1 0 0 0 1 forward_v I I I I #
coedge $-1 $116 $117 $118 $119 forward $40 $-1 #
coedge $-1 $120 $42 $121 $122 forward $24 $-1 #
coedge $-1 $42 $120 $123 $124 forward $24 $-1 #
coedge $-1 $125 $126 $42 $71 reversed $127 $-1 #
edge $-1 $128 -4.502029848390671773 $129 4.502029848390671773 $70 $130 forward 7 unknown #
face $-1 $131 $132 $12 $-1 $133 reversed single #
loop $-1 $-1 $134 $43 #
plane-surface $-1 13.87241099090628715 71.0040774682694007 7.805421223931999108 0 1 0 0 0 1 forward_v I I I I #
coedge $-1 $135 $136 $137 $138 forward $44 $-1 #
coedge $-1 $139 $46 $140 $141 forward $27 $-1 #
coedge $-1 $46 $139 $142 $143 forward $27 $-1 #
coedge $-1 $144 $145 $46 $79 reversed $146 $-1 #
edge $-1 $147 -4.502029848390662892 $148 4.502029848390662892 $78 $149 forward 7 unknown #
face $-1 $150 $151 $13 $-1 $152 reversed single #
loop $-1 $-1 $153 $47 #
plane-surface $-1 115.7694718363101032 47.70083543931681902 164.6309181602904914 0 1 0 0.7431448337585914166 0 0.6691305971616567927 forward_v I I I I #
coedge $-1 $154 $155 $156 $157 forward $48 $-1 #
coedge $-1 $158 $50 $159 $160 forward $30 $-1 #
coedge $-1 $50 $158 $161 $162 forward $30 $-1 #
coedge $-1 $163 $164 $50 $87 reversed $165 $-1 #
edge $-1 $166 -3.406923632251626088 $167 3.406923632251626088 $86 $168 forward 7 unknown #
loop $-1 $169 $170 $51 #
cone-surface $-1 104.5298334477040783 51.10775907156844511 12.3702563768334528 -0.7431448337585914166 0 -0.6691305971616567927 0.3345652985808283963 0 -0.3715724168792957083 1 I I -0.7071067811865474617 0.7071067811865474617 0.5 forward I I I I #
coedge $-1 $90 $90 $55 $92 forward $52 $-1 #
coedge $-1 $91 $91 $170 $171 forward $54 $-1 #
edge $-1 $172 0 $172 6.283185307179586232 $90 $173 forward 7 unknown #
face $-1 $174 $175 $10 $-1 $176 reversed single #
loop $-1 $-1 $177 $56 #
plane-surface $-1 0 35.50203873413470035 7.805421223931999108 1 0 0 0 0 -1 forward_v I I I I #
coedge $-1 $178 $104 $179 $180 forward $57 $-1 #
coedge $-1 $181 $59 $178 $182 forward $36 $-1 #
coedge $-1 $59 $181 $183 $184 forward $36 $-1 #
coedge $-1 $107 $106 $59 $100 reversed $108 $-1 #
edge $-1 $185 -35.50203873413470035 $186 35.50203873413470035 $99 $187 forward 7 unknown #
coedge $-1 $61 $60 $188 $189 forward $21 $-1 #
coedge $-1 $190 $191 $60 $103 reversed $175 $-1 #
edge $-1 $110 -53.89568773461104456 $192 53.89568773461104456 $102 $193 forward 7 unknown #
coedge $-1 $96 $194 $61 $105 reversed $57 $-1 #
edge $-1 $195 -53.89568773461104456 $109 53.89568773461104456 $104 $196 forward 7 unknown #
coedge $-1 $99 $62 $194 $197 forward $108 $-1 #
coedge $-1 $62 $99 $190 $198 reversed $108 $-1 #
loop $-1 $-1 $106 $174 #
vertex $-1 $63 $199 #
vertex $-1 $63 $200 #
straight-curve $-1 107.7913754692220891 35.50203873413470035 15.61084244786399822 0 1 0 I I #
face $-1 $201 $202 $11 $-1 $203 reversed single #
loop $-1 $-1 $204 $64 #
plane-surface $-1 12.13397953394857609 -4.502029848390671773 7.805421223931999108 1 0 0 0 0 -1 forward_v I I I I #
coedge $-1 $205 $123 $206 $207 forward $65 $-1 #
coedge $-1 $208 $67 $205 $209 forward $40 $-1 #
coedge $-1 $67 $208 $210 $211 forward $40 $-1 #
coedge $-1 $126 $125 $67 $119 reversed $127 $-1 #
edge $-1 $212 -4.502029848390671773 $213 4.502029848390671773 $118 $214 forward 7 unknown #
coedge $-1 $69 $68 $215 $216 forward $24 $-1 #
coedge $-1 $217 $218 $68 $122 reversed $202 $-1 #
edge $-1 $129 -1.738431456957711063 $219 1.738431456957711063 $121 $220 forward 7 unknown #
coedge $-1 $115 $221 $69 $124 reversed $65 $-1 #
edge $-1 $222 -1.738431456957711063 $128 1.738431456957711063 $123 $223 forward 7 unknown #
coedge $-1 $118 $70 $221 $224 forward $127 $-1 #
coedge $-1 $70 $118 $217 $225 reversed $127 $-1 #
loop $-1 $-1 $125 $201 #
vertex $-1 $71 $226 #
vertex $-1 $71 $227 #
straight-curve $-1 15.61084244786399822 -4.502029848390671773 15.61084244786399822 0 1 0 I I #
face $-1 $228 $229 $12 $-1 $230 reversed single #
loop $-1 $-1 $231 $72 #
plane-surface $-1 12.13397953394857609 75.50610731666006359 7.805421223931999108 1 0 0 0 0 -1 forward_v I I I I #
coedge $-1 $232 $142 $233 $234 forward $73 $-1 #
coedge $-1 $235 $75 $232 $236 forward $44 $-1 #
coedge $-1 $75 $235 $237 $238 forward $44 $-1 #
coedge $-1 $145 $144 $75 $138 reversed $146 $-1 #
edge $-1 $239 -4.502029848390662892 $240 4.502029848390662892 $137 $241 forward 7 unknown #
coedge $-1 $77 $76 $242 $243 forward $27 $-1 #
coedge $-1 $244 $245 $76 $141 reversed $229 $-1 #
edge $-1 $148 -1.738431456957711063 $246 1.738431456957711063 $140 $247 forward 7 unknown #
coedge $-1 $134 $248 $77 $143 reversed $73 $-1 #
edge $-1 $249 -1.738431456957711063 $147 1.738431456957711063 $142 $250 forward 7 unknown #
coedge $-1 $137 $78 $248 $251 forward $146 $-1 #
coedge $-1 $78 $137 $244 $252 reversed $146 $-1 #
loop $-1 $-1 $144 $228 #
vertex $-1 $79 $253 #
vertex $-1 $79 $254 #
straight-curve $-1 15.61084244786399822 75.50610731666006359 15.61084244786399822 0 1 0 I I #
face $-1 $255 $256 $13 $-1 $257 reversed single #
loop $-1 $-1 $258 $80 #
plane-surface $-1 -28.48354303688377342 51.10775907156844511 324.8401257676604246 0.6691305971616567927 0 -0.7431448337585914166 -0.7431448337585914166 0 -0.6691305971616567927 forward_v I I I I #
coedge $-1 $259 $161 $260 $261 forward $81 $-1 #
coedge $-1 $262 $83 $259 $263 forward $48 $-1 #
coedge $-1 $83 $262 $264 $265 forward $48 $-1 #
coedge $-1 $164 $163 $83 $157 reversed $165 $-1 #
edge $-1 $266 -3.406923632251626088 $267 3.406923632251626088 $156 $268 forward 7 unknown #
coedge $-1 $85 $84 $269 $270 forward $30 $-1 #
coedge $-1 $271 $272 $84 $160 reversed $256 $-1 #
edge $-1 $167 -215.5827509384441214 $273 215.5827509384441214 $159 $274 forward 7 unknown #
coedge $-1 $153 $275 $85 $162 reversed $81 $-1 #
edge $-1 $276 -215.5827509384441214 $166 215.5827509384441214 $161 $277 forward 7 unknown #
coedge $-1 $156 $86 $275 $278 forward $165 $-1 #
coedge $-1 $86 $156 $271 $279 reversed $165 $-1 #
loop $-1 $-1 $163 $255 #
vertex $-1 $87 $280 #
vertex $-1 $87 $281 #
straight-curve $-1 340.1270905131889322 51.10775907156844511 76.54821798951752498 0 1 0 I I #
loop $-1 $-1 $282 $51 #
coedge $-1 $170 $170 $91 $171 reversed $88 $-1 #
edge $-1 $283 0 $283 6.283185307179586232 $170 $284 forward 7 unknown #
vertex $-1 $92 $285 #
ellipse-curve $-1 106.3457608173686708 51.10775907156844511 14.00532468393627283 0.7431448337585914166 0 0.6691305971616567927 0.6691305971616567927 0 -0.7431448337585914166 1 I I #
face $-1 $-1 $108 $10 $-1 $286 reversed single #
loop $-1 $-1 $190 $93 #
plane-surface $-1 53.89568773461104456 71.0040774682694007 7.805421223931999108 0 -1 0 0 0 -1 forward_v I I I I #
coedge $-1 $287 $188 $191 $288 forward $94 $-1 #
coedge $-1 $194 $96 $97 $182 reversed $57 $-1 #
coedge $-1 $188 $287 $96 $180 reversed $94 $-1 #
edge $-1 $195 -7.805421223931999108 $289 7.805421223931999108 $179 $290 forward 7 unknown #
coedge $-1 $98 $97 $287 $291 forward $36 $-1 #
edge $-1 $186 -53.89568773461104456 $289 53.89568773461104456 $178 $292 forward 7 unknown #
coedge $-1 $191 $190 $98 $184 reversed $175 $-1 #
edge $-1 $293 -53.89568773461104456 $185 53.89568773461104456 $183 $294 forward 7 unknown #
vertex $-1 $100 $295 #
vertex $-1 $197 $296 #
straight-curve $-1 107.7913754692220891 35.50203873413470035 0 0 -1 0 I I #
coedge $-1 $177 $179 $101 $189 reversed $94 $-1 #
edge $-1 $192 -35.50203873413470035 $195 35.50203873413470035 $188 $297 forward 7 unknown #
coedge $-1 $183 $102 $107 $198 forward $175 $-1 #
coedge $-1 $102 $183 $177 $288 reversed $175 $-1 #
vertex $-1 $103 $298 #
straight-curve $-1 53.89568773461104456 71.0040774682694007 15.61084244786399822 -1 0 0 I I #
coedge $-1 $104 $178 $106 $197 reversed $57 $-1 #
vertex $-1 $189 $299 #
straight-curve $-1 53.89568773461104456 0 15.61084244786399822 1 0 0 I I #
edge $-1 $109 -7.805421223931999108 $186 7.805421223931999108 $106 $300 forward 7 unknown #
edge $-1 $110 -7.805421223931999108 $185 7.805421223931999108 $107 $301 forward 7 unknown #
point $-1 107.7913754692220891 0 15.61084244786399822 #
point $-1 107.7913754692220891 71.0040774682694007 15.61084244786399822 #
face $-1 $-1 $127 $11 $-1 $302 reversed single #
loop $-1 $-1 $217 $112 #
plane-surface $-1 13.87241099090628715 0 7.805421223931999108 0 -1 0 0 0 -1 forward_v I I I I #
coedge $-1 $303 $215 $218 $304 forward $113 $-1 #
coedge $-1 $221 $115 $116 $209 reversed $65 $-1 #
coedge $-1 $215 $303 $115 $207 reversed $113 $-1 #
edge $-1 $222 -7.805421223931999108 $305 7.805421223931999108 $206 $306 forward 7 unknown #
coedge $-1 $117 $116 $303 $307 forward $40 $-1 #
edge $-1 $213 -1.738431456957711063 $305 1.738431456957711063 $205 $308 forward 7 unknown #
coedge $-1 $218 $217 $117 $211 reversed $202 $-1 #
edge $-1 $309 -1.738431456957711063 $212 1.738431456957711063 $210 $310 forward 7 unknown #
vertex $-1 $119 $311 #
vertex $-1 $224 $312 #
straight-curve $-1 15.61084244786399822 -4.502029848390671773 0 0 -1 0 I I #
coedge $-1 $204 $206 $120 $216 reversed $113 $-1 #
edge $-1 $219 -4.502029848390671773 $222 4.502029848390671773 $215 $313 forward 7 unknown #
coedge $-1 $210 $121 $126 $225 forward $202 $-1 #
coedge $-1 $121 $210 $204 $304 reversed $202 $-1 #
vertex $-1 $122 $314 #
straight-curve $-1 13.87241099090628715 0 15.61084244786399822 -1 0 0 I I #
coedge $-1 $123 $205 $125 $224 reversed $65 $-1 #
vertex $-1 $216 $315 #
straight-curve $-1 13.87241099090628715 -9.004059696781343547 15.61084244786399822 1 0 0 I I #
edge $-1 $128 -7.805421223931999108 $213 7.805421223931999108 $125 $316 forward 7 unknown #
edge $-1 $129 -7.805421223931999108 $212 7.805421223931999108 $126 $317 forward 7 unknown #
point $-1 15.61084244786399822 -9.004059696781343547 15.61084244786399822 #
point $-1 15.61084244786399822 0 15.61084244786399822 #
face $-1 $-1 $146 $12 $-1 $318 reversed single #
loop $-1 $-1 $244 $131 #
plane-surface $-1 13.87241099090628715 80.00813716505072648 7.805421223931999108 0 -1 0 0 0 -1 forward_v I I I I #
coedge $-1 $319 $242 $245 $320 forward $132 $-1 #
coedge $-1 $248 $134 $135 $236 reversed $73 $-1 #
coedge $-1 $242 $319 $134 $234 reversed $132 $-1 #
edge $-1 $249 -7.805421223931999108 $321 7.805421223931999108 $233 $322 forward 7 unknown #
coedge $-1 $136 $135 $319 $323 forward $44 $-1 #
edge $-1 $240 -1.738431456957711063 $321 1.738431456957711063 $232 $324 forward 7 unknown #
coedge $-1 $245 $244 $136 $238 reversed $229 $-1 #
edge $-1 $325 -1.738431456957711063 $239 1.738431456957711063 $237 $326 forward 7 unknown #
vertex $-1 $138 $327 #
vertex $-1 $251 $328 #
straight-curve $-1 15.61084244786399822 75.50610731666006359 0 0 -1 0 I I #
coedge $-1 $231 $233 $139 $243 reversed $132 $-1 #
edge $-1 $246 -4.502029848390662892 $249 4.502029848390662892 $242 $329 forward 7 unknown #
coedge $-1 $237 $140 $145 $252 forward $229 $-1 #
coedge $-1 $140 $237 $231 $320 reversed $229 $-1 #
vertex $-1 $141 $330 #
straight-curve $-1 13.87241099090628715 80.00813716505072648 15.61084244786399822 -1 0 0 I I #
coedge $-1 $142 $232 $144 $251 reversed $73 $-1 #
vertex $-1 $243 $331 #
straight-curve $-1 13.87241099090628715 71.0040774682694007 15.61084244786399822 1 0 0 I I #
edge $-1 $147 -7.805421223931999108 $240 7.805421223931999108 $144 $332 forward 7 unknown #
edge $-1 $148 -7.805421223931999108 $239 7.805421223931999108 $145 $333 forward 7 unknown #
point $-1 15.61084244786399822 71.0040774682694007 15.61084244786399822 #
point $-1 15.61084244786399822 80.00813716505072648 15.61084244786399822 #
face $-1 $-1 $165 $13 $-1 $334 reversed single #
loop $-1 $-1 $271 $150 #
plane-surface $-1 115.7694718363101032 54.5146827038200712 164.6309181602904914 0 -1 0 -0.7431448337585914166 0 -0.6691305971616567927 forward_v I I I I #
coedge $-1 $335 $269 $272 $336 forward $151 $-1 #
coedge $-1 $275 $153 $154 $263 reversed $81 $-1 #
coedge $-1 $269 $335 $153 $261 reversed $151 $-1 #
edge $-1 $276 -107.7913754692220607 $337 107.7913754692220891 $260 $338 forward 7 unknown #
coedge $-1 $155 $154 $335 $339 forward $48 $-1 #
edge $-1 $267 -215.5827509384441214 $337 215.5827509384441214 $259 $340 forward 7 unknown #
coedge $-1 $272 $271 $155 $265 reversed $256 $-1 #
edge $-1 $341 -215.5827509384441214 $266 215.5827509384441214 $264 $342 forward 7 unknown #
vertex $-1 $157 $343 #
vertex $-1 $278 $344 #
straight-curve $-1 179.9178829058190274 51.10775907156844511 -67.70479688367635163 0 -1 0 I I #
coedge $-1 $258 $260 $158 $270 reversed $151 $-1 #
edge $-1 $273 -3.406923632251626088 $276 3.406923632251626088 $269 $345 forward 7 unknown #
coedge $-1 $264 $159 $164 $279 forward $256 $-1 #
coedge $-1 $159 $264 $258 $336 reversed $256 $-1 #
vertex $-1 $160 $346 #
straight-curve $-1 195.8740756399950556 54.5146827038200712 236.7574255968874297 -0.6691305971616567927 0 0.7431448337585914166 I I #
coedge $-1 $161 $259 $163 $278 reversed $81 $-1 #
vertex $-1 $270 $347 #
straight-curve $-1 195.8740756399950556 47.70083543931681902 236.7574255968874297 0.6691305971616567927 0 -0.7431448337585914166 I I #
edge $-1 $166 -107.7913754692220607 $267 107.7913754692220891 $163 $348 forward 7 unknown #
edge $-1 $167 -107.7913754692220607 $266 107.7913754692220891 $164 $349 forward 7 unknown #
point $-1 340.1270905131889322 47.70083543931681902 76.54821798951752498 #
point $-1 340.1270905131889322 54.5146827038200712 76.54821798951752498 #
coedge $-1 $282 $282 $-1 $350 reversed $169 $-1 #
vertex $-1 $171 $351 #
ellipse-curve $-1 104.9014058645833671 51.10775907156844511 12.70482167541428176 0.7431448337585914166 0 0.6691305971616567927 0.6691305971616567927 0 -0.7431448337585914166 1 I I #
point $-1 107.0148914145303252 51.10775907156844511 13.26217985017768086 #
plane-surface $-1 107.7913754692220891 35.50203873413470035 7.805421223931999108 -1 0 0 0 0 1 forward_v I I I I #
coedge $-1 $179 $177 $181 $291 reversed $94 $-1 #
edge $-1 $192 -7.805421223931999108 $293 7.805421223931999108 $191 $352 forward 7 unknown #
vertex $-1 $291 $353 #
straight-curve $-1 0 0 7.805421223931999108 0 0 -1 I I #
edge $-1 $289 -35.50203873413470035 $293 35.50203873413470035 $287 $354 forward 7 unknown #
straight-curve $-1 53.89568773461104456 0 0 -1 0 0 I I #
vertex $-1 $184 $355 #
straight-curve $-1 53.89568773461104456 71.0040774682694007 0 1 0 0 I I #
point $-1 107.7913754692220891 71.0040774682694007 0 #
point $-1 107.7913754692220891 0 0 #
straight-curve $-1 0 35.50203873413470035 15.61084244786399822 0 -1 0 I I #
point $-1 0 71.0040774682694007 15.61084244786399822 #
point $-1 0 0 15.61084244786399822 #
straight-curve $-1 107.7913754692220891 0 7.805421223931999108 0 0 -1 I I #
straight-curve $-1 107.7913754692220891 71.0040774682694007 7.805421223931999108 0 0 -1 I I #
plane-surface $-1 15.61084244786399822 -4.502029848390671773 7.805421223931999108 -1 0 0 0 0 1 forward_v I I I I #
coedge $-1 $206 $204 $208 $307 reversed $113 $-1 #
edge $-1 $219 -7.805421223931999108 $309 7.805421223931999108 $218 $356 forward 7 unknown #
vertex $-1 $307 $357 #
straight-curve $-1 12.13397953394857609 -9.004059696781343547 7.805421223931999108 0 0 -1 I I #
edge $-1 $305 -4.502029848390671773 $309 4.502029848390671773 $303 $358 forward 7 unknown #
straight-curve $-1 13.87241099090628715 -9.004059696781343547 0 -1 0 0 I I #
vertex $-1 $211 $359 #
straight-curve $-1 13.87241099090628715 0 0 1 0 0 I I #
point $-1 15.61084244786399822 0 0 #
point $-1 15.61084244786399822 -9.004059696781343547 0 #
straight-curve $-1 12.13397953394857609 -4.502029848390671773 15.61084244786399822 0 -1 0 I I #
point $-1 12.13397953394857609 0 15.61084244786399822 #
point $-1 12.13397953394857609 -9.004059696781343547 15.61084244786399822 #
straight-curve $-1 15.61084244786399822 -9.004059696781343547 7.805421223931999108 0 0 -1 I I #
straight-curve $-1 15.61084244786399822 0 7.805421223931999108 0 0 -1 I I #
plane-surface $-1 15.61084244786399822 75.50610731666006359 7.805421223931999108 -1 0 0 0 0 1 forward_v I I I I #
coedge $-1 $233 $231 $235 $323 reversed $132 $-1 #
edge $-1 $246 -7.805421223931999108 $325 7.805421223931999108 $245 $360 forward 7 unknown #
vertex $-1 $323 $361 #
straight-curve $-1 12.13397953394857609 71.0040774682694007 7.805421223931999108 0 0 -1 I I #
edge $-1 $321 -4.502029848390662892 $325 4.502029848390662892 $319 $362 forward 7 unknown #
straight-curve $-1 13.87241099090628715 71.0040774682694007 0 -1 0 0 I I #
vertex $-1 $238 $363 #
straight-curve $-1 13.87241099090628715 80.00813716505072648 0 1 0 0 I I #
point $-1 15.61084244786399822 80.00813716505072648 0 #
point $-1 15.61084244786399822 71.0040774682694007 0 #
straight-curve $-1 12.13397953394857609 75.50610731666006359 15.61084244786399822 0 -1 0 I I #
point $-1 12.13397953394857609 80.00813716505072648 15.61084244786399822 #
point $-1 12.13397953394857609 71.0040774682694007 15.61084244786399822 #
straight-curve $-1 15.61084244786399822 71.0040774682694007 7.805421223931999108 0 0 -1 I I #
straight-curve $-1 15.61084244786399822 80.00813716505072648 7.805421223931999108 0 0 -1 I I #
plane-surface $-1 260.022486709503994 51.10775907156844511 4.421710552920586679 -0.6691305971616567927 0 0.7431448337585914166 0.7431448337585914166 0 0.6691305971616567927 forward_v I I I I #
coedge $-1 $260 $258 $262 $339 reversed $151 $-1 #
edge $-1 $273 -107.7913754692220607 $341 107.7913754692220891 $272 $364 forward 7 unknown #
vertex $-1 $339 $365 #
straight-curve $-1 -28.48354303688377342 47.70083543931681902 324.8401257676604246 -0.7431448337585914166 0 -0.6691305971616567927 I I #
edge $-1 $337 -3.406923632251626088 $341 3.406923632251626088 $335 $366 forward 7 unknown #
straight-curve $-1 35.66486803262515082 47.70083543931681902 92.50441072369355311 -0.6691305971616567927 0 0.7431448337585914166 I I #
vertex $-1 $265 $367 #
straight-curve $-1 35.66486803262515082 54.5146827038200712 92.50441072369355311 0.6691305971616567927 0 -0.7431448337585914166 I I #
point $-1 179.9178829058190274 54.5146827038200712 -67.70479688367635163 #
point $-1 179.9178829058190274 47.70083543931681902 -67.70479688367635163 #
straight-curve $-1 51.62106076680117894 51.10775907156844511 396.9666332042573345 0 -1 0 I I #
point $-1 51.62106076680117894 54.5146827038200712 396.9666332042573345 #
point $-1 51.62106076680117894 47.70083543931681902 396.9666332042573345 #
straight-curve $-1 260.022486709503994 47.70083543931681902 4.421710552920586679 -0.7431448337585914166 0 -0.6691305971616567927 I I #
straight-curve $-1 260.022486709503994 54.5146827038200712 4.421710552920586679 -0.7431448337585914166 0 -0.6691305971616567927 I I #
edge $-1 $368 1 $368 0 $282 $-1 forward 7 unknown #
point $-1 105.5705364617450357 51.10775907156844511 11.96167684165568978 #
straight-curve $-1 0 71.0040774682694007 7.805421223931999108 0 0 -1 I I #
point $-1 0 0 0 #
straight-curve $-1 0 35.50203873413470035 0 0 1 0 I I #
point $-1 0 71.0040774682694007 0 #
straight-curve $-1 12.13397953394857609 0 7.805421223931999108 0 0 -1 I I #
point $-1 12.13397953394857609 -9.004059696781343547 0 #
straight-curve $-1 12.13397953394857609 -4.502029848390671773 0 0 1 0 I I #
point $-1 12.13397953394857609 0 0 #
straight-curve $-1 12.13397953394857609 80.00813716505072648 7.805421223931999108 0 0 -1 I I #
point $-1 12.13397953394857609 71.0040774682694007 0 #
straight-curve $-1 12.13397953394857609 75.50610731666006359 0 0 1 0 I I #
point $-1 12.13397953394857609 80.00813716505072648 0 #
straight-curve $-1 -28.48354303688377342 54.5146827038200712 324.8401257676604246 -0.7431448337585914166 0 -0.6691305971616567927 I I #
point $-1 -108.5881468405687116 47.70083543931681902 252.7136183310634578 #
straight-curve $-1 -108.5881468405687116 51.10775907156844511 252.7136183310634578 0 1 0 I I #
point $-1 -108.5881468405687116 54.5146827038200712 252.7136183310634578 #
vertex $-1 $350 $369 #
point $-1 104.1582610308247894 51.10775907156844511 12.03569107825262385 #
End-of-ACIS-data 