300 0 5 0           
7 Unknown 11 ACIS 3.0 NT 24 Fri Oct 30 14:24:57 1998 
-1 9.9999999999999995e-007 1e-010 
body $5 $6 $-1 $7 #
body $8 $9 $-1 $10 #
body $11 $12 $-1 $13 #
body $14 $15 $-1 $16 #
body $17 $18 $-1 $19 #
display_attribute-st-attrib $-1 $20 $-1 $0 1 #
lump $-1 $-1 $21 $0 #
transform $-1 1 0 0 0 1 0 0 0 1 77.731864375743896 46.012367364480383 15.553941072196633 1 rotate no_reflect no_shear #
display_attribute-st-attrib $-1 $22 $-1 $1 3 #
lump $-1 $-1 $23 $1 #
transform $-1 1 0 0 0 1 0 0 0 1 77.731864375743896 46.012367364480383 15.553941072196633 1 rotate no_reflect no_shear #
display_attribute-st-attrib $-1 $24 $-1 $2 3 #
lump $-1 $-1 $25 $2 #
transform $-1 1 0 0 0 1 0 0 0 1 77.731864375743896 46.012367364480383 15.553941072196633 1 rotate no_reflect no_shear #
display_attribute-st-attrib $-1 $26 $-1 $3 3 #
lump $-1 $-1 $27 $3 #
transform $-1 1 0 0 0 1 0 0 0 1 77.731864375743896 46.012367364480383 15.553941072196633 1 rotate no_reflect no_shear #
display_attribute-st-attrib $-1 $28 $-1 $4 3 #
lump $-1 $-1 $29 $4 #
transform $-1 1 0 0 0 1 0 0 0 1 77.731864375743896 46.012367364480383 15.553941072196633 1 rotate no_reflect no_shear #
id_attribute-st-attrib $-1 $-1 $5 $0 1577 #
shell $-1 $-1 $-1 $30 $-1 $6 #
id_attribute-st-attrib $-1 $-1 $8 $1 1584 #
shell $-1 $-1 $-1 $31 $-1 $9 #
id_attribute-st-attrib $-1 $-1 $11 $2 1591 #
shell $-1 $-1 $-1 $32 $-1 $12 #
id_attribute-st-attrib $-1 $-1 $14 $3 1602 #
shell $-1 $-1 $-1 $33 $-1 $15 #
id_attribute-st-attrib $-1 $-1 $17 $4 1611 #
shell $-1 $-1 $-1 $34 $-1 $18 #
face $-1 $35 $36 $21 $-1 $37 forward single #
face $-1 $38 $39 $23 $-1 $40 reversed single #
face $-1 $41 $42 $25 $-1 $43 forward single #
face $-1 $44 $45 $27 $-1 $46 reversed single #
face $-1 $47 $48 $29 $-1 $49 forward single #
face $-1 $50 $51 $21 $-1 $52 reversed single #
loop $-1 $-1 $53 $30 #
plane-surface $-1 0 0 15.553941072196633 0 0 1 1 0 0 forward_v I I I I #
face $-1 $54 $55 $23 $-1 $56 reversed single #
loop $-1 $-1 $57 $31 #
plane-surface $-1 47.741895177638028 -145.94252718984799 120.74417056601422 -1 0 0 0 -0.64278761758704617 0.76604443648966558 forward_v I I I I #
face $-1 $58 $59 $25 $-1 $60 forward single #
loop $-1 $61 $62 $32 #
cone-surface $-1 30.763863006528027 -36.653847733923349 7.3222122585870331 0 0.64278761758704617 -0.76604443648966558 3 0 0 1 I I 0 1 forward I I I I #
face $-1 $63 $64 $27 $-1 $65 reversed single #
loop $-1 $-1 $66 $33 #
plane-surface $-1 -46.650979928644034 62.942081761927753 185.614708278378 -1 0 0 0 0.5877852598018023 0.80901698891910034 forward_v I I I I #
face $-1 $67 $68 $29 $-1 $69 forward single #
loop $-1 $70 $71 $34 #
cone-surface $-1 -62.191422152193965 37.474479715917965 8.1864980443881219 0 -0.5877852598018023 -0.80901698891910034 2 0 0 1 I I 0 1 forward I I I I #
face $-1 $72 $73 $21 $-1 $74 reversed single #
loop $-1 $-1 $75 $35 #
plane-surface $-1 0 0 -15.553941072196633 0 0 1 1 0 0 forward_v I I I I #
coedge $-1 $76 $77 $78 $79 forward $36 $-1 #
face $-1 $80 $81 $23 $-1 $82 reversed single #
loop $-1 $-1 $83 $38 #
plane-surface $-1 30.763863006528027 -46.012367364480383 1.6520460799985273 0 -0.64278761758704617 0.76604443648966558 1 0 0 forward_v I I I I #
coedge $-1 $84 $85 $86 $87 reversed $39 $-1 #
face $-1 $-1 $88 $25 $-1 $89 forward single #
loop $-1 $90 $91 $41 #
cone-surface $-1 30.763863006528027 -34.614963153891317 4.8923642863419872 0 0.64278761758704617 -0.76604443648966558 1.5 0 0 1 I I -0.70710678118654757 0.70710678118654757 forward I I I I #
loop $-1 $-1 $92 $32 #
coedge $-1 $62 $62 $93 $94 reversed $42 $-1 #
face $-1 $95 $96 $27 $-1 $97 reversed single #
loop $-1 $-1 $98 $44 #
plane-surface $-1 -62.191422152193965 -28.437206432022421 59.841910557713589 0 0.5877852598018023 0.80901698891910034 1 0 0 forward_v I I I I #
coedge $-1 $99 $100 $101 $102 reversed $45 $-1 #
face $-1 $-1 $103 $29 $-1 $104 forward single #
loop $-1 $105 $106 $47 #
cone-surface $-1 -62.191422152193965 35.095014053607414 4.9114445903291006 0 -0.5877852598018023 -0.80901698891910034 1 0 0 1 I I -0.70710678118654746 0.70710678118654746 forward I I I I #
loop $-1 $-1 $107 $34 #
coedge $-1 $71 $71 $108 $109 reversed $48 $-1 #
face $-1 $110 $111 $21 $-1 $112 reversed single #
loop $-1 $-1 $113 $50 #
plane-surface $-1 0 -46.012367364480383 0 0 1 0 0 0 1 forward_v I I I I #
coedge $-1 $114 $115 $116 $117 forward $51 $-1 #
coedge $-1 $118 $53 $119 $120 forward $36 $-1 #
coedge $-1 $53 $118 $121 $122 forward $36 $-1 #
coedge $-1 $123 $124 $53 $79 reversed $125 $-1 #
edge $-1 $126 $127 $78 $128 forward #
face $-1 $129 $130 $23 $-1 $131 reversed single #
loop $-1 $-1 $132 $54 #
plane-surface $-1 13.785830835418025 -145.94252718984799 120.74417056601422 1 0 0 0 0.64278761758704617 -0.76604443648966558 forward_v I I I I #
coedge $-1 $133 $134 $135 $136 reversed $55 $-1 #
coedge $-1 $85 $57 $137 $138 reversed $39 $-1 #
coedge $-1 $57 $84 $133 $139 reversed $39 $-1 #
coedge $-1 $135 $140 $57 $87 forward $141 $-1 #
edge $-1 $142 $143 $86 $144 forward #
loop $-1 $-1 $93 $58 #
plane-surface $-1 30.763863006528027 -46.012367364480383 1.6520460799985273 0 -0.64278761758704617 0.76604443648966558 1 0 0 forward_v I I I I #
loop $-1 $-1 $145 $41 #
coedge $-1 $91 $91 $92 $146 reversed $59 $-1 #
coedge $-1 $92 $92 $91 $146 forward $61 $-1 #
coedge $-1 $93 $93 $62 $94 forward $88 $-1 #
edge $-1 $147 $147 $93 $148 forward #
face $-1 $149 $150 $27 $-1 $151 forward single #
loop $-1 $-1 $101 $63 #
plane-surface $-1 0 46.012367364480383 0 0 -1 0 0 0 -1 forward_v I I I I #
coedge $-1 $152 $153 $154 $155 reversed $64 $-1 #
coedge $-1 $100 $66 $156 $157 reversed $45 $-1 #
coedge $-1 $66 $99 $152 $158 reversed $45 $-1 #
coedge $-1 $154 $159 $66 $102 forward $96 $-1 #
edge $-1 $160 $161 $101 $162 forward #
loop $-1 $-1 $108 $67 #
plane-surface $-1 -62.191422152193965 -28.437206432022421 59.841910557713589 0 0.5877852598018023 0.80901698891910034 1 0 0 forward_v I I I I #
loop $-1 $-1 $163 $47 #
coedge $-1 $106 $106 $107 $164 reversed $68 $-1 #
coedge $-1 $107 $107 $106 $164 forward $70 $-1 #
coedge $-1 $108 $108 $71 $109 forward $103 $-1 #
edge $-1 $165 $165 $108 $166 forward #
face $-1 $167 $168 $21 $-1 $169 reversed single #
loop $-1 $-1 $170 $72 #
plane-surface $-1 -77.731864375743896 0 0 1 0 0 0 0 -1 forward_v I I I I #
coedge $-1 $171 $121 $172 $173 forward $73 $-1 #
coedge $-1 $174 $75 $171 $175 forward $51 $-1 #
coedge $-1 $75 $174 $176 $177 forward $51 $-1 #
coedge $-1 $124 $123 $75 $117 reversed $125 $-1 #
edge $-1 $178 $179 $116 $180 forward #
coedge $-1 $77 $76 $181 $182 forward $36 $-1 #
coedge $-1 $183 $184 $76 $120 reversed $168 $-1 #
edge $-1 $127 $185 $119 $186 forward #
coedge $-1 $113 $187 $77 $122 reversed $73 $-1 #
edge $-1 $188 $126 $121 $189 forward #
coedge $-1 $116 $78 $187 $190 forward $125 $-1 #
coedge $-1 $78 $116 $183 $191 reversed $125 $-1 #
loop $-1 $-1 $123 $167 #
vertex $-1 $79 $192 #
vertex $-1 $79 $193 #
straight-curve $-1 77.731864375743896 0 15.553941072196633 0 1 0 I I #
face $-1 $-1 $141 $23 $-1 $194 forward single #
loop $-1 $-1 $195 $80 #
plane-surface $-1 0 -46.012367364480383 0 0 1 0 0 0 1 forward_v I I I I #
coedge $-1 $196 $197 $198 $199 reversed $81 $-1 #
coedge $-1 $200 $83 $85 $139 forward $55 $-1 #
coedge $-1 $83 $200 $196 $201 forward $55 $-1 #
coedge $-1 $198 $86 $83 $136 forward $141 $-1 #
edge $-1 $143 $202 $135 $203 forward #
coedge $-1 $204 $205 $84 $138 forward $130 $-1 #
edge $-1 $206 $142 $137 $207 forward #
edge $-1 $143 $206 $85 $208 forward #
coedge $-1 $86 $198 $204 $209 forward $141 $-1 #
loop $-1 $-1 $198 $129 #
vertex $-1 $138 $210 #
vertex $-1 $87 $211 #
straight-curve $-1 47.741895177638028 -72.971263594923997 15.553941072196636 0 1 0 I I #
coedge $-1 $145 $145 $-1 $212 reversed $90 $-1 #
edge $-1 $213 $213 $91 $214 forward #
vertex $-1 $94 $215 #
ellipse-curve $-1 30.763863006528027 -37.728550887574812 8.6029935760975782 0 -0.64278761758704617 0.76604443648966558 3 0 0 1 I I #
face $-1 $-1 $216 $27 $-1 $217 reversed single #
loop $-1 $-1 $156 $95 #
plane-surface $-1 0 0 15.553941072196633 0 0 1 1 0 0 forward_v I I I I #
coedge $-1 $218 $98 $100 $158 forward $64 $-1 #
coedge $-1 $98 $218 $219 $220 reversed $64 $-1 #
coedge $-1 $221 $101 $98 $155 forward $96 $-1 #
edge $-1 $161 $222 $154 $223 forward #
coedge $-1 $224 $225 $99 $157 forward $150 $-1 #
edge $-1 $226 $160 $156 $227 forward #
edge $-1 $161 $226 $100 $228 forward #
coedge $-1 $101 $221 $224 $229 reversed $96 $-1 #
vertex $-1 $229 $230 #
vertex $-1 $102 $231 #
straight-curve $-1 -46.650979928644034 46.012367364480383 92.807354139189002 0 0 -1 I I #
coedge $-1 $163 $163 $-1 $232 reversed $105 $-1 #
edge $-1 $233 $233 $106 $234 forward #
vertex $-1 $109 $235 #
ellipse-curve $-1 -62.191422152193965 39.266160118426704 10.652534509528035 0 0.5877852598018023 0.80901698891910034 2 0 0 1 I I #
face $-1 $-1 $125 $21 $-1 $236 reversed single #
loop $-1 $-1 $183 $110 #
plane-surface $-1 0 46.012367364480383 0 0 -1 0 0 0 -1 forward_v I I I I #
coedge $-1 $237 $181 $184 $238 forward $111 $-1 #
coedge $-1 $187 $113 $114 $175 reversed $73 $-1 #
coedge $-1 $181 $237 $113 $173 reversed $111 $-1 #
edge $-1 $188 $239 $172 $240 forward #
coedge $-1 $115 $114 $237 $241 forward $51 $-1 #
edge $-1 $179 $239 $171 $242 forward #
coedge $-1 $184 $183 $115 $177 reversed $168 $-1 #
edge $-1 $243 $178 $176 $244 forward #
vertex $-1 $117 $245 #
vertex $-1 $190 $246 #
straight-curve $-1 77.731864375743896 0 -15.553941072196633 0 -1 0 I I #
coedge $-1 $170 $172 $118 $182 reversed $111 $-1 #
edge $-1 $185 $188 $181 $247 forward #
coedge $-1 $176 $119 $124 $191 forward $168 $-1 #
coedge $-1 $119 $176 $170 $238 reversed $168 $-1 #
vertex $-1 $120 $248 #
straight-curve $-1 0 46.012367364480383 15.553941072196633 -1 0 0 I I #
coedge $-1 $121 $171 $123 $190 reversed $73 $-1 #
vertex $-1 $182 $249 #
straight-curve $-1 0 -46.012367364480383 15.553941072196633 1 0 0 I I #
edge $-1 $126 $179 $123 $250 forward #
edge $-1 $127 $178 $124 $251 forward #
point $-1 77.731864375743896 -46.012367364480383 15.553941072196633 #
point $-1 77.731864375743896 46.012367364480383 15.553941072196633 #
plane-surface $-1 0 0 15.553941072196633 0 0 1 1 0 0 forward_v I I I I #
coedge $-1 $205 $204 $197 $252 forward $130 $-1 #
coedge $-1 $197 $132 $134 $201 reversed $81 $-1 #
coedge $-1 $132 $196 $195 $252 reversed $81 $-1 #
coedge $-1 $140 $135 $132 $199 forward $141 $-1 #
edge $-1 $202 $253 $198 $254 forward #
coedge $-1 $134 $133 $205 $255 reversed $55 $-1 #
edge $-1 $256 $202 $196 $257 forward #
vertex $-1 $136 $258 #
straight-curve $-1 15.381931503264013 -29.444734410669241 15.553941072196633 -1 0 0 I I #
coedge $-1 $195 $137 $140 $209 reversed $130 $-1 #
coedge $-1 $137 $195 $200 $255 forward $130 $-1 #
vertex $-1 $138 $259 #
straight-curve $-1 47.741895177638028 -46.012367364480383 60.37208528300711 0 0 1 I I #
straight-curve $-1 47.741895177638028 -46.012367364480383 1.6520460799985273 0 -0.76604443648966558 -0.64278761758704617 I I #
edge $-1 $253 $142 $204 $260 forward #
point $-1 47.741895177638028 -46.012367364480383 15.553941072196633 #
point $-1 47.741895177638028 -29.444734410669238 15.553941072196633 #
edge $-1 $261 $261 $145 $-1 forward #
vertex $-1 $146 $262 #
ellipse-curve $-1 30.763863006528027 -35.579144580271887 6.0414309410764853 0 -0.64278761758704617 0.76604443648966558 3 0 0 1 I I #
point $-1 33.763863006528027 -37.728550887574812 8.60299357609758 #
loop $-1 $-1 $219 $149 #
plane-surface $-1 -77.731864375743896 0 0 1 0 0 0 0 -1 forward_v I I I I #
coedge $-1 $153 $152 $225 $263 reversed $64 $-1 #
coedge $-1 $264 $265 $153 $220 forward $216 $-1 #
edge $-1 $222 $266 $219 $267 forward #
coedge $-1 $159 $154 $265 $268 reversed $96 $-1 #
vertex $-1 $155 $269 #
straight-curve $-1 -31.095711076096983 46.012367364480383 5.7511279468594445 -1 0 0 I I #
coedge $-1 $270 $156 $159 $229 forward $150 $-1 #
coedge $-1 $156 $270 $218 $263 forward $150 $-1 #
vertex $-1 $157 $271 #
straight-curve $-1 -46.650979928644034 31.471040880963876 15.553941072196636 0 1 0 I I #
straight-curve $-1 -46.650979928644034 -28.437206432022421 59.841910557713589 0 -0.80901698891910034 0.5877852598018023 I I #
edge $-1 $160 $272 $159 $273 forward #
point $-1 -46.650979928644034 46.012367364480383 15.553941072196633 #
point $-1 -46.650979928644034 46.012367364480383 5.7511279468594481 #
edge $-1 $274 $274 $163 $-1 forward #
vertex $-1 $164 $275 #
ellipse-curve $-1 -62.191422152193965 35.68279931340922 5.7204615792482008 0 0.5877852598018023 0.80901698891910034 2 0 0 1 I I #
point $-1 -60.191422152193965 39.266160118426704 10.652534509528042 #
plane-surface $-1 77.731864375743896 0 0 -1 0 0 0 0 1 forward_v I I I I #
coedge $-1 $172 $170 $174 $241 reversed $111 $-1 #
edge $-1 $185 $243 $184 $276 forward #
vertex $-1 $241 $277 #
straight-curve $-1 -77.731864375743896 -46.012367364480383 0 0 0 -1 I I #
edge $-1 $239 $243 $237 $278 forward #
straight-curve $-1 0 -46.012367364480383 -15.553941072196633 -1 0 0 I I #
vertex $-1 $177 $279 #
straight-curve $-1 0 46.012367364480383 -15.553941072196633 1 0 0 I I #
point $-1 77.731864375743896 46.012367364480383 -15.553941072196633 #
point $-1 77.731864375743896 -46.012367364480383 -15.553941072196633 #
straight-curve $-1 -77.731864375743896 0 15.553941072196633 0 -1 0 I I #
point $-1 -77.731864375743896 46.012367364480383 15.553941072196633 #
point $-1 -77.731864375743896 -46.012367364480383 15.553941072196633 #
straight-curve $-1 77.731864375743896 -46.012367364480383 0 0 0 -1 I I #
straight-curve $-1 77.731864375743896 46.012367364480383 0 0 0 -1 I I #
edge $-1 $253 $256 $195 $280 forward #
vertex $-1 $209 $281 #
straight-curve $-1 13.785830835418025 -72.971263594923997 15.553941072196636 0 -1 0 I I #
edge $-1 $256 $206 $205 $282 forward #
vertex $-1 $255 $283 #
straight-curve $-1 13.785830835418025 -46.012367364480383 1.6520460799985273 0 0.76604443648966558 0.64278761758704617 I I #
point $-1 13.785830835418025 -29.444734410669238 15.553941072196633 #
point $-1 47.741895177638028 -46.012367364480383 1.6520460799985273 #
straight-curve $-1 0 -46.012367364480383 15.553941072196633 1 0 0 I I #
vertex $-1 $212 $284 #
point $-1 33.763863006528027 -35.579144580271887 6.0414309410764853 #
edge $-1 $266 $226 $225 $285 forward #
coedge $-1 $265 $219 $270 $286 reversed $216 $-1 #
coedge $-1 $219 $264 $221 $268 forward $216 $-1 #
vertex $-1 $220 $287 #
straight-curve $-1 -77.731864375743896 -4.9027501028353164 42.743126827315692 0 -0.80901698891910034 0.5877852598018023 I I #
edge $-1 $272 $222 $221 $288 forward #
point $-1 -77.731864375743896 46.012367364480383 5.7511279468594498 #
coedge $-1 $225 $224 $264 $286 forward $150 $-1 #
point $-1 -46.650979928644034 32.519952872373018 15.553941072196636 #
vertex $-1 $229 $289 #
straight-curve $-1 0 46.012367364480383 15.553941072196633 -1 0 0 I I #
vertex $-1 $232 $290 #
point $-1 -60.191422152193965 35.68279931340922 5.7204615792482008 #
straight-curve $-1 -77.731864375743896 46.012367364480383 0 0 0 -1 I I #
point $-1 -77.731864375743896 -46.012367364480383 -15.553941072196633 #
straight-curve $-1 -77.731864375743896 0 -15.553941072196633 0 1 0 I I #
point $-1 -77.731864375743896 46.012367364480383 -15.553941072196633 #
straight-curve $-1 13.785830835418025 -46.012367364480383 60.37208528300711 0 0 -1 I I #
point $-1 13.785830835418025 -46.012367364480383 15.553941072196633 #
straight-curve $-1 15.381931503264013 -46.012367364480383 1.6520460799985259 1 0 0 I I #
point $-1 13.785830835418025 -46.012367364480383 1.6520460799985273 #
point $-1 30.763863006528027 -33.650781727510747 3.7432976316074891 #
straight-curve $-1 -31.095711076096983 32.519952872373018 15.553941072196636 1 0 0 I I #
edge $-1 $272 $266 $264 $291 forward #
point $-1 -77.731864375743896 32.519952872373018 15.553941072196636 #
straight-curve $-1 -77.731864375743896 46.012367364480383 0 0 0 -1 I I #
point $-1 -77.731864375743896 46.012367364480383 15.553941072196633 #
point $-1 -62.191422152193965 34.507228793805609 4.1024276014100005 #
straight-curve $-1 -77.731864375743896 0 15.553941072196633 0 -1 0 I I #
End-of-ACIS-data 