600 0 3 0           
93 GICL ACIS Healer - Source: /gicl/data5/repository/Drexel/SM99-DATA/part113.smdg.des.sat - 6 0 18 ACIS 6.0.3 Solaris 24 Sat Apr 13 20:44:13 2002 
1 9.999999999999999547e-07 1.000000000000000036e-10 
body $-1 $3 $-1 $-1 #
body $-1 $4 $-1 $-1 #
body $-1 $5 $-1 $-1 #
lump $-1 $-1 $6 $0 #
lump $-1 $-1 $7 $1 #
lump $-1 $-1 $8 $2 #
shell $-1 $-1 $-1 $9 $-1 $3 #
shell $-1 $-1 $-1 $10 $-1 $4 #
shell $-1 $-1 $-1 $11 $-1 $5 #
face $-1 $12 $13 $6 $-1 $14 forward single #
face $-1 $15 $16 $7 $-1 $17 forward single #
face $-1 $18 $19 $8 $-1 $20 forward single #
face $-1 $21 $22 $6 $-1 $23 reversed single #
loop $-1 $-1 $24 $9 #
plane-surface $-1 76.98110904263435827 36.80513175978313711 19.74696915767972527 0 0 1 1 0 0 forward_v I I I I #
face $-1 $25 $26 $7 $-1 $27 forward single #
loop $-1 $-1 $28 $10 #
plane-surface $-1 8.053285104451418874 3.600611263708337617 9.873484578839862635 1 0 0 0 0 -1 forward_v I I I I #
face $-1 $29 $30 $8 $-1 $31 forward single #
loop $-1 $-1 $32 $11 #
plane-surface $-1 9.553285104451418874 66.40904099214958478 9.873484578839862635 0 1 0 0 0 1 forward_v I I I I #
face $-1 $33 $34 $6 $-1 $35 reversed single #
loop $-1 $-1 $36 $12 #
plane-surface $-1 76.98110904263435827 36.80513175978313711 0 0 0 1 1 0 0 forward_v I I I I #
coedge $-1 $37 $38 $39 $40 forward $13 $-1 #
face $-1 $41 $42 $7 $-1 $43 forward single #
loop $-1 $-1 $44 $15 #
plane-surface $-1 9.553285104451418874 7.201222527416678787 9.873484578839862635 0 -1 0 0 0 -1 forward_v I I I I #
coedge $-1 $45 $46 $47 $48 reversed $16 $-1 #
face $-1 $49 $50 $8 $-1 $51 forward single #
loop $-1 $-1 $52 $18 #
plane-surface $-1 8.053285104451418874 70.0096522558579295 9.873484578839862635 1 0 0 0 0 -1 forward_v I I I I #
coedge $-1 $53 $54 $55 $56 reversed $19 $-1 #
face $-1 $57 $58 $6 $-1 $59 reversed single #
loop $-1 $-1 $60 $21 #
plane-surface $-1 76.98110904263435827 0 9.873484578839862635 0 1 0 0 0 1 forward_v I I I I #
coedge $-1 $61 $62 $63 $64 forward $22 $-1 #
coedge $-1 $65 $24 $66 $67 forward $13 $-1 #
coedge $-1 $24 $65 $68 $69 forward $13 $-1 #
coedge $-1 $70 $71 $24 $40 reversed $72 $-1 #
edge $-1 $73 -36.80513175978313711 $74 36.80513175978313711 $39 $75 forward 7 unknown #
face $-1 $76 $77 $7 $-1 $78 forward single #
loop $-1 $-1 $79 $25 #
plane-surface $-1 11.05328510445141887 3.600611263708337617 9.873484578839862635 -1 0 0 0 0 1 forward_v I I I I #
coedge $-1 $80 $81 $82 $83 reversed $26 $-1 #
coedge $-1 $84 $28 $85 $86 reversed $16 $-1 #
coedge $-1 $28 $84 $87 $88 reversed $16 $-1 #
coedge $-1 $81 $80 $28 $48 forward $26 $-1 #
edge $-1 $89 -9.873484578839862635 $90 9.873484578839862635 $47 $91 forward 7 unknown #
face $-1 $92 $93 $8 $-1 $94 forward single #
loop $-1 $-1 $95 $29 #
plane-surface $-1 11.05328510445141887 70.0096522558579295 9.873484578839862635 -1 0 0 0 0 1 forward_v I I I I #
coedge $-1 $96 $97 $98 $99 reversed $30 $-1 #
coedge $-1 $100 $32 $101 $102 reversed $19 $-1 #
coedge $-1 $32 $100 $103 $104 reversed $19 $-1 #
coedge $-1 $97 $96 $32 $56 forward $30 $-1 #
edge $-1 $105 -9.873484578839862635 $106 9.873484578839862635 $55 $107 forward 7 unknown #
face $-1 $108 $109 $6 $-1 $110 reversed single #
loop $-1 $-1 $111 $33 #
plane-surface $-1 0 36.80513175978313711 9.873484578839862635 1 0 0 0 0 -1 forward_v I I I I #
coedge $-1 $112 $68 $113 $114 forward $34 $-1 #
coedge $-1 $115 $36 $112 $116 forward $22 $-1 #
coedge $-1 $36 $115 $117 $118 forward $22 $-1 #
coedge $-1 $71 $70 $36 $64 reversed $72 $-1 #
edge $-1 $119 -36.80513175978313711 $120 36.80513175978313711 $63 $121 forward 7 unknown #
coedge $-1 $38 $37 $122 $123 forward $13 $-1 #
coedge $-1 $124 $125 $37 $67 reversed $109 $-1 #
edge $-1 $74 -76.98110904263435827 $126 76.98110904263435827 $66 $127 forward 7 unknown #
coedge $-1 $60 $128 $38 $69 reversed $34 $-1 #
edge $-1 $129 -76.98110904263435827 $73 76.98110904263435827 $68 $130 forward 7 unknown #
coedge $-1 $63 $39 $128 $131 forward $72 $-1 #
coedge $-1 $39 $63 $124 $132 reversed $72 $-1 #
loop $-1 $-1 $70 $108 #
vertex $-1 $40 $133 #
vertex $-1 $40 $134 #
straight-curve $-1 153.9622180852687165 36.80513175978313711 19.74696915767972527 0 1 0 I I #
face $-1 $135 $136 $7 $-1 $137 reversed single #
loop $-1 $-1 $85 $41 #
plane-surface $-1 76.98110904263435827 36.80513175978313711 19.74696915767972527 0 0 1 1 0 0 forward_v I I I I #
coedge $-1 $138 $139 $140 $141 reversed $42 $-1 #
coedge $-1 $47 $44 $142 $143 reversed $26 $-1 #
coedge $-1 $44 $47 $144 $145 reversed $26 $-1 #
coedge $-1 $139 $138 $44 $83 forward $42 $-1 #
edge $-1 $146 -9.873484578839862635 $147 9.873484578839862635 $82 $148 forward 7 unknown #
coedge $-1 $46 $45 $149 $150 reversed $16 $-1 #
coedge $-1 $142 $151 $45 $86 forward $77 $-1 #
edge $-1 $152 -20.20287151174573737 $89 -13.00164898432905858 $85 $153 forward 7 unknown #
coedge $-1 $154 $144 $46 $88 forward $155 $-1 #
edge $-1 $90 13.00164898432905858 $156 20.20287151174573737 $87 $157 forward 7 unknown #
vertex $-1 $86 $158 #
vertex $-1 $88 $159 #
straight-curve $-1 8.053285104451418874 7.201222527416678787 9.873484578839862635 0 0 -1 I I #
face $-1 $160 $161 $8 $-1 $162 reversed single #
loop $-1 $-1 $163 $49 #
plane-surface $-1 76.98110904263435827 36.80513175978313711 19.74696915767972527 0 0 1 1 0 0 forward_v I I I I #
coedge $-1 $164 $165 $100 $166 reversed $50 $-1 #
coedge $-1 $55 $52 $167 $168 reversed $30 $-1 #
coedge $-1 $52 $55 $169 $170 reversed $30 $-1 #
coedge $-1 $171 $172 $52 $99 forward $161 $-1 #
edge $-1 $173 -9.873484578839862635 $174 9.873484578839862635 $98 $175 forward 7 unknown #
coedge $-1 $54 $53 $95 $166 forward $19 $-1 #
coedge $-1 $167 $163 $53 $102 forward $93 $-1 #
edge $-1 $176 32.2139119690914697 $105 35.2139119690914697 $101 $177 forward 7 unknown #
coedge $-1 $178 $169 $54 $104 forward $179 $-1 #
edge $-1 $106 -35.2139119690914697 $180 -32.2139119690914697 $103 $181 forward 7 unknown #
vertex $-1 $102 $182 #
vertex $-1 $104 $183 #
straight-curve $-1 8.053285104451418874 66.40904099214958478 9.873484578839862635 0 0 -1 I I #
face $-1 $-1 $72 $6 $-1 $184 reversed single #
loop $-1 $-1 $124 $57 #
plane-surface $-1 76.98110904263435827 73.61026351956627423 9.873484578839862635 0 -1 0 0 0 -1 forward_v I I I I #
coedge $-1 $185 $122 $125 $186 forward $58 $-1 #
coedge $-1 $128 $60 $61 $116 reversed $34 $-1 #
coedge $-1 $122 $185 $60 $114 reversed $58 $-1 #
edge $-1 $129 -9.873484578839862635 $187 9.873484578839862635 $113 $188 forward 7 unknown #
coedge $-1 $62 $61 $185 $189 forward $22 $-1 #
edge $-1 $120 -76.98110904263435827 $187 76.98110904263435827 $112 $190 forward 7 unknown #
coedge $-1 $125 $124 $62 $118 reversed $109 $-1 #
edge $-1 $191 -76.98110904263435827 $119 76.98110904263435827 $117 $192 forward 7 unknown #
vertex $-1 $64 $193 #
vertex $-1 $131 $194 #
straight-curve $-1 153.9622180852687165 36.80513175978313711 0 0 -1 0 I I #
coedge $-1 $111 $113 $65 $123 reversed $58 $-1 #
edge $-1 $126 -36.80513175978313711 $129 36.80513175978313711 $122 $195 forward 7 unknown #
coedge $-1 $117 $66 $71 $132 forward $109 $-1 #
coedge $-1 $66 $117 $111 $186 reversed $109 $-1 #
vertex $-1 $67 $196 #
straight-curve $-1 76.98110904263435827 73.61026351956627423 19.74696915767972527 -1 0 0 I I #
coedge $-1 $68 $112 $70 $131 reversed $34 $-1 #
vertex $-1 $123 $197 #
straight-curve $-1 76.98110904263435827 0 19.74696915767972527 1 0 0 I I #
edge $-1 $73 -9.873484578839862635 $120 9.873484578839862635 $70 $198 forward 7 unknown #
edge $-1 $74 -9.873484578839862635 $119 9.873484578839862635 $71 $199 forward 7 unknown #
point $-1 153.9622180852687165 0 19.74696915767972527 #
point $-1 153.9622180852687165 73.61026351956627423 19.74696915767972527 #
face $-1 $200 $155 $7 $-1 $201 reversed single #
loop $-1 $-1 $140 $76 #
plane-surface $-1 76.98110904263435827 0 9.873484578839862635 0 1 0 0 0 1 forward_v I I I I #
coedge $-1 $82 $79 $202 $203 reversed $42 $-1 #
coedge $-1 $79 $82 $204 $205 reversed $42 $-1 #
coedge $-1 $206 $207 $79 $141 forward $136 $-1 #
edge $-1 $208 -9.873484578839862635 $209 9.873484578839862635 $140 $210 forward 7 unknown #
coedge $-1 $202 $85 $80 $143 forward $77 $-1 #
edge $-1 $89 -35.2139119690914697 $146 -32.2139119690914697 $142 $211 forward 7 unknown #
coedge $-1 $87 $204 $81 $145 forward $155 $-1 #
edge $-1 $147 32.2139119690914697 $90 35.2139119690914697 $144 $212 forward 7 unknown #
vertex $-1 $143 $213 #
vertex $-1 $145 $214 #
straight-curve $-1 11.05328510445141887 7.201222527416678787 9.873484578839862635 0 0 -1 I I #
coedge $-1 $215 $216 $84 $150 forward $217 $-1 #
edge $-1 $156 -9.873484578839862635 $152 9.873484578839862635 $149 $218 forward 7 unknown #
coedge $-1 $85 $219 $215 $220 forward $77 $-1 #
vertex $-1 $150 $221 #
straight-curve $-1 8.053285104451418874 20.20287151174573737 19.74696915767972527 0 1 0 I I #
coedge $-1 $222 $87 $216 $223 forward $155 $-1 #
loop $-1 $-1 $87 $135 #
vertex $-1 $223 $224 #
straight-curve $-1 8.053285104451418874 20.20287151174573737 0 0 -1 0 I I #
point $-1 8.053285104451418874 7.201222527416678787 19.74696915767972527 #
point $-1 8.053285104451418874 7.201222527416678787 0 #
face $-1 $225 $226 $8 $-1 $227 forward single #
loop $-1 $-1 $98 $92 #
plane-surface $-1 76.98110904263435827 73.61026351956627423 9.873484578839862635 0 -1 0 0 0 -1 forward_v I I I I #
coedge $-1 $101 $228 $164 $229 forward $93 $-1 #
coedge $-1 $230 $95 $163 $229 reversed $50 $-1 #
coedge $-1 $95 $230 $178 $231 reversed $50 $-1 #
edge $-1 $176 -9.873484578839862635 $180 9.873484578839862635 $95 $232 forward 7 unknown #
coedge $-1 $233 $101 $96 $168 forward $93 $-1 #
edge $-1 $105 13.00164898432905147 $173 20.20287151174574092 $167 $234 forward 7 unknown #
coedge $-1 $103 $235 $97 $170 forward $179 $-1 #
edge $-1 $174 -20.20287151174574092 $106 -13.00164898432905147 $169 $236 forward 7 unknown #
coedge $-1 $237 $98 $235 $238 reversed $161 $-1 #
coedge $-1 $98 $237 $233 $239 reversed $161 $-1 #
vertex $-1 $239 $240 #
vertex $-1 $170 $241 #
straight-curve $-1 8.053285104451418874 73.61026351956627423 9.873484578839862635 0 0 -1 I I #
vertex $-1 $102 $242 #
straight-curve $-1 43.26719707354288857 66.40904099214958478 19.74696915767972527 -1 0 0 I I #
coedge $-1 $243 $103 $165 $231 forward $179 $-1 #
loop $-1 $-1 $178 $244 #
vertex $-1 $104 $245 #
straight-curve $-1 43.26719707354288857 66.40904099214958478 0 1 0 0 I I #
point $-1 8.053285104451418874 66.40904099214958478 19.74696915767972527 #
point $-1 8.053285104451418874 66.40904099214958478 0 #
plane-surface $-1 153.9622180852687165 36.80513175978313711 9.873484578839862635 -1 0 0 0 0 1 forward_v I I I I #
coedge $-1 $113 $111 $115 $189 reversed $58 $-1 #
edge $-1 $126 -9.873484578839862635 $191 9.873484578839862635 $125 $246 forward 7 unknown #
vertex $-1 $189 $247 #
straight-curve $-1 0 0 9.873484578839862635 0 0 -1 I I #
edge $-1 $187 -36.80513175978313711 $191 36.80513175978313711 $185 $248 forward 7 unknown #
straight-curve $-1 76.98110904263435827 0 0 -1 0 0 I I #
vertex $-1 $118 $249 #
straight-curve $-1 76.98110904263435827 73.61026351956627423 0 1 0 0 I I #
point $-1 153.9622180852687165 73.61026351956627423 0 #
point $-1 153.9622180852687165 0 0 #
straight-curve $-1 0 36.80513175978313711 19.74696915767972527 0 -1 0 I I #
point $-1 0 73.61026351956627423 19.74696915767972527 #
point $-1 0 0 19.74696915767972527 #
straight-curve $-1 153.9622180852687165 0 9.873484578839862635 0 0 -1 I I #
straight-curve $-1 153.9622180852687165 73.61026351956627423 9.873484578839862635 0 0 -1 I I #
face $-1 $250 $217 $7 $-1 $137 reversed single #
plane-surface $-1 76.98110904263435827 36.80513175978313711 0 0 0 1 1 0 0 forward_v I I I I #
coedge $-1 $251 $142 $138 $203 forward $77 $-1 #
edge $-1 $146 13.00164898432905858 $208 20.20287151174573737 $202 $252 forward 7 unknown #
coedge $-1 $144 $253 $139 $205 forward $155 $-1 #
edge $-1 $209 -20.20287151174573737 $147 -13.00164898432905858 $204 $254 forward 7 unknown #
coedge $-1 $255 $140 $253 $256 reversed $136 $-1 #
coedge $-1 $140 $255 $251 $257 reversed $136 $-1 #
vertex $-1 $257 $258 #
vertex $-1 $141 $259 #
straight-curve $-1 11.05328510445141887 0 9.873484578839862635 0 0 -1 I I #
straight-curve $-1 43.26719707354288857 7.201222527416678787 19.74696915767972527 1 0 0 I I #
straight-curve $-1 43.26719707354288857 7.201222527416678787 0 -1 0 0 I I #
point $-1 11.05328510445141887 7.201222527416678787 19.74696915767972527 #
point $-1 11.05328510445141887 7.201222527416678787 0 #
coedge $-1 $260 $149 $151 $220 reversed $217 $-1 #
coedge $-1 $149 $260 $154 $223 reversed $217 $-1 #
loop $-1 $-1 $149 $200 #
straight-curve $-1 8.053285104451418874 0 9.873484578839862635 0 0 1 I I #
coedge $-1 $151 $261 $262 $263 forward $77 $-1 #
edge $-1 $264 -76.98110904263435827 $152 -68.9278239381829394 $215 $265 forward 7 unknown #
point $-1 8.053285104451418874 0 19.74696915767972527 #
coedge $-1 $266 $154 $267 $268 forward $155 $-1 #
edge $-1 $156 68.9278239381829394 $269 76.98110904263435827 $216 $270 forward 7 unknown #
point $-1 8.053285104451418874 0 0 #
face $-1 $271 $272 $8 $-1 $273 forward single #
loop $-1 $-1 $274 $160 #
plane-surface $-1 8.053285104451418874 3.600611263708337617 9.873484578839862635 1 0 0 0 0 -1 forward_v I I I I #
coedge $-1 $163 $275 $276 $277 forward $93 $-1 #
edge $-1 $278 -20.20287151174574092 $176 -13.00164898432905147 $163 $279 forward 7 unknown #
coedge $-1 $165 $164 $280 $281 reversed $50 $-1 #
edge $-1 $180 13.00164898432905147 $282 20.20287151174574092 $178 $283 forward 7 unknown #
straight-curve $-1 11.05328510445141887 66.40904099214958478 9.873484578839862635 0 0 -1 I I #
coedge $-1 $284 $167 $172 $239 forward $93 $-1 #
straight-curve $-1 8.053285104451418874 53.40739200782053331 19.74696915767972527 0 1 0 I I #
coedge $-1 $169 $285 $171 $238 forward $179 $-1 #
straight-curve $-1 8.053285104451418874 53.40739200782053331 0 0 -1 0 I I #
coedge $-1 $172 $171 $286 $287 reversed $161 $-1 #
edge $-1 $288 -76.98110904263435827 $174 -68.9278239381829394 $171 $289 forward 7 unknown #
edge $-1 $173 68.9278239381829394 $290 76.98110904263435827 $172 $291 forward 7 unknown #
point $-1 8.053285104451418874 73.61026351956627423 19.74696915767972527 #
point $-1 8.053285104451418874 73.61026351956627423 0 #
point $-1 11.05328510445141887 66.40904099214958478 19.74696915767972527 #
coedge $-1 $292 $178 $293 $294 forward $179 $-1 #
face $-1 $295 $179 $8 $-1 $296 reversed single #
point $-1 11.05328510445141887 66.40904099214958478 0 #
straight-curve $-1 0 73.61026351956627423 9.873484578839862635 0 0 -1 I I #
point $-1 0 0 0 #
straight-curve $-1 0 36.80513175978313711 0 0 1 0 I I #
point $-1 0 73.61026351956627423 0 #
face $-1 $297 $298 $7 $-1 $299 reversed single #
coedge $-1 $300 $202 $207 $257 forward $77 $-1 #
straight-curve $-1 11.05328510445141887 20.20287151174573737 19.74696915767972527 0 -1 0 I I #
coedge $-1 $204 $301 $206 $256 forward $155 $-1 #
straight-curve $-1 11.05328510445141887 20.20287151174573737 0 0 1 0 I I #
coedge $-1 $207 $206 $302 $303 reversed $136 $-1 #
edge $-1 $304 -76.98110904263435827 $209 65.9278239381829394 $206 $270 forward 7 unknown #
edge $-1 $208 -65.9278239381829394 $305 76.98110904263435827 $207 $265 forward 7 unknown #
point $-1 11.05328510445141887 0 19.74696915767972527 #
point $-1 11.05328510445141887 0 0 #
coedge $-1 $216 $215 $306 $307 forward $217 $-1 #
coedge $-1 $219 $300 $308 $309 forward $77 $-1 #
coedge $-1 $310 $306 $219 $263 reversed $298 $-1 #
edge $-1 $311 -36.80513175978313711 $264 36.80513175978313711 $262 $312 forward 7 unknown #
vertex $-1 $263 $313 #
straight-curve $-1 76.98110904263435827 0 19.74696915767972527 1 0 0 I I #
coedge $-1 $301 $222 $314 $315 forward $155 $-1 #
coedge $-1 $306 $310 $222 $268 reversed $298 $-1 #
edge $-1 $269 -36.80513175978313711 $316 36.80513175978313711 $267 $317 forward 7 unknown #
vertex $-1 $268 $318 #
straight-curve $-1 76.98110904263435827 0 0 -1 0 0 I I #
face $-1 $319 $320 $8 $-1 $321 forward single #
loop $-1 $-1 $322 $225 #
plane-surface $-1 9.553285104451418874 7.201222527416678787 9.873484578839862635 0 -1 0 0 0 -1 forward_v I I I I #
coedge $-1 $323 $324 $325 $326 reversed $226 $-1 #
coedge $-1 $228 $327 $328 $329 forward $93 $-1 #
coedge $-1 $330 $280 $228 $277 reversed $331 $-1 #
edge $-1 $332 -76.98110904263435827 $278 65.9278239381829394 $276 $291 forward 7 unknown #
vertex $-1 $281 $333 #
straight-curve $-1 11.05328510445141887 53.40739200782053331 19.74696915767972527 0 -1 0 I I #
coedge $-1 $276 $293 $230 $281 forward $331 $-1 #
edge $-1 $282 -9.873484578839862635 $278 9.873484578839862635 $280 $334 forward 7 unknown #
vertex $-1 $294 $335 #
straight-curve $-1 11.05328510445141887 53.40739200782053331 0 0 1 0 I I #
coedge $-1 $336 $233 $337 $338 forward $93 $-1 #
coedge $-1 $235 $339 $340 $341 forward $179 $-1 #
coedge $-1 $340 $337 $237 $287 forward $342 $-1 #
edge $-1 $290 -9.873484578839862635 $288 9.873484578839862635 $237 $343 forward 7 unknown #
vertex $-1 $238 $344 #
straight-curve $-1 76.98110904263435827 73.61026351956627423 0 1 0 0 I I #
vertex $-1 $239 $345 #
straight-curve $-1 76.98110904263435827 73.61026351956627423 19.74696915767972527 -1 0 0 I I #
coedge $-1 $346 $243 $347 $348 forward $179 $-1 #
coedge $-1 $280 $330 $243 $294 reversed $331 $-1 #
edge $-1 $282 -65.9278239381829394 $349 76.98110904263435827 $293 $289 forward 7 unknown #
face $-1 $350 $351 $8 $-1 $352 reversed single #
plane-surface $-1 76.98110904263435827 36.80513175978313711 0 0 0 1 1 0 0 forward_v I I I I #
face $-1 $353 $354 $7 $-1 $355 reversed single #
loop $-1 $-1 $310 $250 #
plane-surface $-1 0 36.80513175978313711 9.873484578839862635 1 0 0 0 0 -1 forward_v I I I I #
coedge $-1 $261 $251 $356 $357 forward $77 $-1 #
coedge $-1 $253 $266 $358 $359 forward $155 $-1 #
coedge $-1 $358 $356 $255 $303 forward $360 $-1 #
edge $-1 $305 -9.873484578839862635 $304 9.873484578839862635 $302 $361 forward 7 unknown #
vertex $-1 $303 $362 #
vertex $-1 $357 $363 #
coedge $-1 $262 $267 $260 $307 reversed $298 $-1 #
edge $-1 $264 -9.873484578839862635 $269 9.873484578839862635 $306 $364 forward 7 unknown #
coedge $-1 $365 $366 $261 $309 reversed $354 $-1 #
edge $-1 $367 -76.98110904263435827 $311 76.98110904263435827 $308 $368 forward 7 unknown #
coedge $-1 $267 $262 $366 $369 forward $298 $-1 #
vertex $-1 $309 $370 #
straight-curve $-1 0 36.80513175978313711 19.74696915767972527 0 -1 0 I I #
point $-1 0 0 19.74696915767972527 #
coedge $-1 $366 $365 $266 $315 reversed $354 $-1 #
edge $-1 $316 -76.98110904263435827 $371 76.98110904263435827 $314 $372 forward 7 unknown #
vertex $-1 $315 $373 #
straight-curve $-1 0 36.80513175978313711 0 0 1 0 I I #
point $-1 0 0 0 #
face $-1 $244 $374 $8 $-1 $352 reversed single #
loop $-1 $-1 $375 $271 #
plane-surface $-1 11.05328510445141887 3.600611263708337617 9.873484578839862635 -1 0 0 0 0 1 forward_v I I I I #
coedge $-1 $376 $377 $378 $379 reversed $272 $-1 #
coedge $-1 $380 $274 $381 $382 reversed $226 $-1 #
coedge $-1 $274 $380 $383 $384 reversed $226 $-1 #
coedge $-1 $377 $376 $274 $326 forward $272 $-1 #
edge $-1 $385 -9.873484578839862635 $386 9.873484578839862635 $325 $387 forward 7 unknown #
coedge $-1 $275 $388 $389 $390 forward $93 $-1 #
coedge $-1 $391 $392 $275 $329 reversed $393 $-1 #
edge $-1 $394 -36.80513175978313711 $332 36.80513175978313711 $328 $395 forward 7 unknown #
coedge $-1 $293 $276 $392 $396 forward $331 $-1 #
loop $-1 $-1 $280 $397 #
vertex $-1 $329 $398 #
point $-1 11.05328510445141887 73.61026351956627423 19.74696915767972527 #
straight-curve $-1 11.05328510445141887 73.61026351956627423 9.873484578839862635 0 0 1 I I #
point $-1 11.05328510445141887 73.61026351956627423 0 #
coedge $-1 $381 $284 $399 $400 forward $93 $-1 #
coedge $-1 $286 $401 $284 $338 reversed $342 $-1 #
edge $-1 $290 -36.80513175978313711 $402 36.80513175978313711 $337 $403 forward 7 unknown #
coedge $-1 $285 $383 $404 $405 forward $179 $-1 #
coedge $-1 $401 $286 $285 $341 reversed $342 $-1 #
edge $-1 $406 -36.80513175978313711 $288 36.80513175978313711 $340 $407 forward 7 unknown #
loop $-1 $-1 $286 $350 #
straight-curve $-1 0 73.61026351956627423 9.873484578839862635 0 0 -1 I I #
point $-1 0 73.61026351956627423 0 #
point $-1 0 73.61026351956627423 19.74696915767972527 #
coedge $-1 $408 $292 $409 $410 forward $179 $-1 #
coedge $-1 $392 $391 $292 $348 reversed $393 $-1 #
edge $-1 $349 -36.80513175978313711 $411 36.80513175978313711 $347 $412 forward 7 unknown #
vertex $-1 $348 $413 #
face $-1 $397 $342 $8 $-1 $414 reversed single #
loop $-1 $-1 $415 $295 #
plane-surface $-1 76.98110904263435827 0 9.873484578839862635 0 1 0 0 0 1 forward_v I I I I #
face $-1 $-1 $360 $7 $-1 $416 reversed single #
loop $-1 $-1 $365 $297 #
plane-surface $-1 76.98110904263435827 73.61026351956627423 9.873484578839862635 0 -1 0 0 0 -1 forward_v I I I I #
coedge $-1 $302 $417 $300 $357 reversed $360 $-1 #
edge $-1 $305 -36.80513175978313711 $367 36.80513175978313711 $356 $418 forward 7 unknown #
coedge $-1 $417 $302 $301 $359 reversed $360 $-1 #
edge $-1 $371 -36.80513175978313711 $304 36.80513175978313711 $358 $419 forward 7 unknown #
loop $-1 $-1 $302 $353 #
straight-curve $-1 153.9622180852687165 0 9.873484578839862635 0 0 -1 I I #
point $-1 153.9622180852687165 0 0 #
point $-1 153.9622180852687165 0 19.74696915767972527 #
straight-curve $-1 0 0 9.873484578839862635 0 0 -1 I I #
coedge $-1 $314 $308 $417 $420 forward $354 $-1 #
coedge $-1 $308 $314 $310 $369 reversed $354 $-1 #
vertex $-1 $357 $421 #
straight-curve $-1 76.98110904263435827 73.61026351956627423 19.74696915767972527 -1 0 0 I I #
edge $-1 $311 -9.873484578839862635 $316 9.873484578839862635 $366 $422 forward 7 unknown #
point $-1 0 73.61026351956627423 19.74696915767972527 #
vertex $-1 $359 $423 #
straight-curve $-1 76.98110904263435827 73.61026351956627423 0 1 0 0 I I #
point $-1 0 73.61026351956627423 0 #
loop $-1 $-1 $424 $319 #
coedge $-1 $425 $426 $424 $427 reversed $320 $-1 #
coedge $-1 $325 $322 $428 $429 reversed $272 $-1 #
coedge $-1 $322 $325 $430 $431 reversed $272 $-1 #
coedge $-1 $426 $425 $322 $379 forward $320 $-1 #
edge $-1 $432 -9.873484578839862635 $433 9.873484578839862635 $378 $434 forward 7 unknown #
coedge $-1 $324 $323 $415 $435 reversed $226 $-1 #
coedge $-1 $428 $336 $323 $382 forward $93 $-1 #
edge $-1 $436 -20.20287151174573737 $385 -13.00164898432905858 $381 $437 forward 7 unknown #
coedge $-1 $339 $430 $324 $384 forward $179 $-1 #
edge $-1 $386 13.00164898432905858 $438 20.20287151174573737 $383 $439 forward 7 unknown #
vertex $-1 $382 $440 #
vertex $-1 $384 $441 #
straight-curve $-1 8.053285104451418874 7.201222527416678787 9.873484578839862635 0 0 -1 I I #
coedge $-1 $327 $428 $425 $442 forward $93 $-1 #
coedge $-1 $424 $443 $327 $390 reversed $374 $-1 #
edge $-1 $444 -65.9278239381829394 $394 76.98110904263435827 $389 $445 forward 7 unknown #
coedge $-1 $347 $328 $443 $446 forward $393 $-1 #
coedge $-1 $328 $347 $330 $396 reversed $393 $-1 #
loop $-1 $-1 $391 $447 #
vertex $-1 $329 $448 #
straight-curve $-1 153.9622180852687165 36.80513175978313711 19.74696915767972527 0 1 0 I I #
edge $-1 $332 -9.873484578839862635 $349 9.873484578839862635 $392 $449 forward 7 unknown #
face $-1 $447 $331 $8 $-1 $162 reversed single #
point $-1 153.9622180852687165 73.61026351956627423 19.74696915767972527 #
coedge $-1 $450 $415 $336 $400 reversed $351 $-1 #
edge $-1 $402 -76.98110904263435827 $436 -68.9278239381829394 $399 $445 forward 7 unknown #
coedge $-1 $337 $340 $450 $451 reversed $342 $-1 #
vertex $-1 $338 $452 #
straight-curve $-1 0 36.80513175978313711 19.74696915767972527 0 -1 0 I I #
coedge $-1 $415 $450 $339 $405 reversed $351 $-1 #
edge $-1 $438 68.9278239381829394 $406 76.98110904263435827 $404 $453 forward 7 unknown #
vertex $-1 $341 $454 #
straight-curve $-1 0 36.80513175978313711 0 0 1 0 I I #
coedge $-1 $430 $346 $426 $455 forward $179 $-1 #
coedge $-1 $443 $424 $346 $410 reversed $374 $-1 #
edge $-1 $411 -76.98110904263435827 $456 65.9278239381829394 $409 $453 forward 7 unknown #
vertex $-1 $446 $457 #
straight-curve $-1 153.9622180852687165 36.80513175978313711 0 0 -1 0 I I #
point $-1 153.9622180852687165 73.61026351956627423 0 #
plane-surface $-1 0 36.80513175978313711 9.873484578839862635 1 0 0 0 0 -1 forward_v I I I I #
coedge $-1 $399 $404 $380 $435 forward $351 $-1 #
plane-surface $-1 153.9622180852687165 36.80513175978313711 9.873484578839862635 -1 0 0 0 0 1 forward_v I I I I #
coedge $-1 $356 $358 $365 $420 reversed $360 $-1 #
straight-curve $-1 153.9622180852687165 36.80513175978313711 19.74696915767972527 0 1 0 I I #
straight-curve $-1 153.9622180852687165 36.80513175978313711 0 0 -1 0 I I #
edge $-1 $367 -9.873484578839862635 $371 9.873484578839862635 $417 $458 forward 7 unknown #
point $-1 153.9622180852687165 73.61026351956627423 19.74696915767972527 #
straight-curve $-1 0 73.61026351956627423 9.873484578839862635 0 0 -1 I I #
point $-1 153.9622180852687165 73.61026351956627423 0 #
coedge $-1 $409 $389 $375 $427 forward $374 $-1 #
coedge $-1 $378 $375 $388 $442 reversed $320 $-1 #
coedge $-1 $375 $378 $408 $455 reversed $320 $-1 #
edge $-1 $444 -9.873484578839862635 $456 9.873484578839862635 $424 $459 forward 7 unknown #
coedge $-1 $388 $381 $376 $429 forward $93 $-1 #
edge $-1 $385 -35.2139119690914697 $432 -32.2139119690914697 $428 $460 forward 7 unknown #
coedge $-1 $383 $408 $377 $431 forward $179 $-1 #
edge $-1 $433 32.2139119690914697 $386 35.2139119690914697 $430 $461 forward 7 unknown #
vertex $-1 $429 $462 #
vertex $-1 $431 $463 #
straight-curve $-1 11.05328510445141887 7.201222527416678787 9.873484578839862635 0 0 -1 I I #
edge $-1 $438 -9.873484578839862635 $436 9.873484578839862635 $415 $464 forward 7 unknown #
vertex $-1 $435 $465 #
straight-curve $-1 8.053285104451418874 20.20287151174573737 19.74696915767972527 0 1 0 I I #
vertex $-1 $405 $466 #
straight-curve $-1 8.053285104451418874 20.20287151174573737 0 0 -1 0 I I #
point $-1 8.053285104451418874 7.201222527416678787 19.74696915767972527 #
point $-1 8.053285104451418874 7.201222527416678787 0 #
edge $-1 $432 13.00164898432905858 $444 20.20287151174573737 $388 $467 forward 7 unknown #
coedge $-1 $389 $409 $391 $446 reversed $374 $-1 #
vertex $-1 $390 $468 #
straight-curve $-1 76.98110904263435827 0 19.74696915767972527 1 0 0 I I #
edge $-1 $394 -9.873484578839862635 $411 9.873484578839862635 $391 $469 forward 7 unknown #
face $-1 $-1 $393 $8 $-1 $470 reversed single #
point $-1 153.9622180852687165 0 19.74696915767972527 #
straight-curve $-1 153.9622180852687165 73.61026351956627423 9.873484578839862635 0 0 -1 I I #
coedge $-1 $404 $399 $401 $451 forward $351 $-1 #
edge $-1 $402 -9.873484578839862635 $406 9.873484578839862635 $401 $471 forward 7 unknown #
point $-1 0 0 19.74696915767972527 #
straight-curve $-1 76.98110904263435827 0 0 -1 0 0 I I #
point $-1 0 0 0 #
edge $-1 $456 -20.20287151174573737 $433 -13.00164898432905858 $408 $472 forward 7 unknown #
vertex $-1 $427 $473 #
point $-1 153.9622180852687165 0 0 #
straight-curve $-1 153.9622180852687165 73.61026351956627423 9.873484578839862635 0 0 -1 I I #
straight-curve $-1 11.05328510445141887 0 9.873484578839862635 0 0 -1 I I #
straight-curve $-1 43.26719707354288857 7.201222527416678787 19.74696915767972527 1 0 0 I I #
straight-curve $-1 43.26719707354288857 7.201222527416678787 0 -1 0 0 I I #
point $-1 11.05328510445141887 7.201222527416678787 19.74696915767972527 #
point $-1 11.05328510445141887 7.201222527416678787 0 #
straight-curve $-1 8.053285104451418874 0 9.873484578839862635 0 0 1 I I #
point $-1 8.053285104451418874 0 19.74696915767972527 #
point $-1 8.053285104451418874 0 0 #
straight-curve $-1 11.05328510445141887 20.20287151174573737 19.74696915767972527 0 -1 0 I I #
point $-1 11.05328510445141887 0 19.74696915767972527 #
straight-curve $-1 153.9622180852687165 0 9.873484578839862635 0 0 -1 I I #
plane-surface $-1 153.9622180852687165 36.80513175978313711 9.873484578839862635 -1 0 0 0 0 1 forward_v I I I I #
straight-curve $-1 0 0 9.873484578839862635 0 0 -1 I I #
straight-curve $-1 11.05328510445141887 20.20287151174573737 0 0 1 0 I I #
point $-1 11.05328510445141887 0 0 #
End-of-ACIS-data 