300 0 5 0           
7 Unknown 11 ACIS 3.0 NT 24 Fri Oct 30 19:16:40 1998 
-1 9.9999999999999995e-007 1e-010 
body $5 $6 $-1 $7 #
body $8 $9 $-1 $10 #
body $11 $12 $-1 $13 #
body $14 $15 $-1 $16 #
body $17 $18 $-1 $19 #
display_attribute-st-attrib $-1 $20 $-1 $0 1 #
lump $-1 $-1 $21 $0 #
transform $-1 1 0 0 0 1 0 0 0 1 78.641315958128601 38.259131014487735 16.275455584095155 1 rotate no_reflect no_shear #
display_attribute-st-attrib $-1 $22 $-1 $1 1 #
lump $-1 $-1 $23 $1 #
transform $-1 1 0 0 0 1 0 0 0 1 78.641315958128601 38.259131014487735 16.275455584095155 1 rotate no_reflect no_shear #
display_attribute-st-attrib $-1 $24 $-1 $2 1 #
lump $-1 $-1 $25 $2 #
transform $-1 1 0 0 0 1 0 0 0 1 78.641315958128601 38.259131014487735 16.275455584095155 1 rotate no_reflect no_shear #
display_attribute-st-attrib $-1 $26 $-1 $3 1 #
lump $-1 $-1 $27 $3 #
transform $-1 1 0 0 0 1 0 0 0 1 78.641315958128601 38.259131014487735 16.275455584095155 1 rotate no_reflect no_shear #
display_attribute-st-attrib $-1 $28 $-1 $4 1 #
lump $-1 $-1 $29 $4 #
transform $-1 1 0 0 0 1 0 0 0 1 78.641315958128601 38.259131014487735 16.275455584095155 1 rotate no_reflect no_shear #
id_attribute-st-attrib $-1 $-1 $5 $0 3532 #
shell $-1 $-1 $-1 $30 $-1 $6 #
id_attribute-st-attrib $-1 $-1 $8 $1 3537 #
shell $-1 $-1 $-1 $31 $-1 $9 #
id_attribute-st-attrib $-1 $-1 $11 $2 3549 #
shell $-1 $-1 $-1 $32 $-1 $12 #
id_attribute-st-attrib $-1 $-1 $14 $3 3557 #
shell $-1 $-1 $-1 $33 $-1 $15 #
id_attribute-st-attrib $-1 $-1 $17 $4 3566 #
shell $-1 $-1 $-1 $34 $-1 $18 #
face $-1 $35 $36 $21 $-1 $37 forward single #
face $-1 $38 $39 $23 $-1 $40 reversed single #
face $-1 $41 $42 $25 $-1 $43 forward single #
face $-1 $44 $45 $27 $-1 $46 reversed single #
face $-1 $47 $48 $29 $-1 $49 reversed single #
face $-1 $50 $51 $21 $-1 $52 reversed single #
loop $-1 $-1 $53 $30 #
plane-surface $-1 0 0 16.275455584095155 0 0 1 1 0 0 forward_v I I I I #
face $-1 $54 $55 $23 $-1 $56 forward single #
loop $-1 $-1 $57 $31 #
plane-surface $-1 -68.605811533403894 0 -10.695027956537309 0 0 1 1 0 0 forward_v I I I I #
face $-1 $58 $59 $25 $-1 $60 forward single #
loop $-1 $-1 $61 $32 #
plane-surface $-1 25.864388004699506 -163.87062726999125 95.649685223924365 1 0 0 0 0.79863551827123203 -0.60181501223851219 forward_v I I I I #
face $-1 $62 $63 $27 $-1 $64 reversed single #
loop $-1 $65 $66 $33 #
cone-surface $-1 35.542165715071022 -30.683248544966546 7.2647674418138672 0 0.79863551827123203 -0.60181501223851219 2.5 0 0 1 I I 0 1 forward I I I I #
face $-1 $67 $68 $29 $-1 $69 reversed single #
loop $-1 $70 $71 $34 #
cone-surface $-1 50.058832280628295 -30.683248544966546 7.2647674418138672 0 0.79863551827123203 -0.60181501223851219 2.5 0 0 1 I I 0 1 forward I I I I #
face $-1 $72 $73 $21 $-1 $74 reversed single #
loop $-1 $-1 $75 $35 #
plane-surface $-1 0 0 -16.275455584095155 0 0 1 1 0 0 forward_v I I I I #
coedge $-1 $76 $77 $78 $79 forward $36 $-1 #
face $-1 $80 $81 $23 $-1 $82 forward single #
loop $-1 $-1 $83 $38 #
plane-surface $-1 -68.605811533403894 0 -14.505432630991109 0 0 1 1 0 0 forward_v I I I I #
coedge $-1 $84 $85 $86 $87 reversed $39 $-1 #
face $-1 $88 $89 $25 $-1 $90 forward single #
loop $-1 $-1 $91 $41 #
plane-surface $-1 42.800498997849644 -38.25913101448775 0.9946361723366266 0 -0.79863551827123203 0.60181501223851219 1 0 0 forward_v I I I I #
coedge $-1 $92 $93 $94 $95 reversed $42 $-1 #
face $-1 $96 $97 $27 $-1 $98 forward single #
loop $-1 $99 $100 $44 #
cone-surface $-1 35.542165715071022 -27.866533192221016 5.142220240113712 0 0.79863551827123203 -0.60181501223851219 1.25 0 0 1 I I -0.70710678118654746 0.70710678118654746 forward I I I I #
loop $-1 $-1 $101 $33 #
coedge $-1 $66 $66 $102 $103 reversed $45 $-1 #
face $-1 $104 $105 $29 $-1 $106 reversed single #
loop $-1 $107 $108 $47 #
cone-surface $-1 50.058832280628295 -27.866533192221016 5.142220240113712 0 0.79863551827123203 -0.60181501223851219 1.25 0 0 1 I I -0.70710678118654746 0.70710678118654746 forward I I I I #
loop $-1 $-1 $109 $34 #
coedge $-1 $71 $71 $110 $111 reversed $48 $-1 #
face $-1 $112 $113 $21 $-1 $114 reversed single #
loop $-1 $-1 $115 $50 #
plane-surface $-1 0 -38.259131014487735 0 0 1 0 0 0 1 forward_v I I I I #
coedge $-1 $116 $117 $118 $119 forward $51 $-1 #
coedge $-1 $120 $53 $121 $122 forward $36 $-1 #
coedge $-1 $53 $120 $123 $124 forward $36 $-1 #
coedge $-1 $125 $126 $53 $79 reversed $127 $-1 #
edge $-1 $128 $129 $78 $130 forward #
face $-1 $131 $132 $23 $-1 $133 reversed single #
loop $-1 $-1 $134 $54 #
plane-surface $-1 -58.570307108679188 0 -12.600230293764209 -1 0 0 0 0 1 forward_v I I I I #
coedge $-1 $135 $136 $137 $138 reversed $55 $-1 #
coedge $-1 $139 $57 $140 $141 reversed $39 $-1 #
coedge $-1 $57 $139 $142 $143 reversed $39 $-1 #
coedge $-1 $144 $134 $57 $87 forward $81 $-1 #
edge $-1 $145 $146 $86 $147 forward #
face $-1 $148 $149 $25 $-1 $150 reversed single #
loop $-1 $-1 $151 $58 #
plane-surface $-1 59.736609990999781 -163.87062726999125 95.649685223924365 -1 0 0 0 -0.79863551827123203 0.60181501223851219 forward_v I I I I #
coedge $-1 $152 $153 $154 $155 reversed $59 $-1 #
coedge $-1 $93 $61 $153 $156 forward $42 $-1 #
coedge $-1 $61 $92 $157 $158 reversed $42 $-1 #
coedge $-1 $159 $154 $61 $95 forward $149 $-1 #
edge $-1 $160 $161 $94 $162 forward #
face $-1 $163 $164 $27 $-1 $165 forward single #
loop $-1 $-1 $166 $62 #
plane-surface $-1 25.864388004699506 -163.87062726999125 95.649685223924365 1 0 0 0 0.79863551827123203 -0.60181501223851219 forward_v I I I I #
loop $-1 $-1 $167 $44 #
coedge $-1 $100 $100 $101 $168 forward $63 $-1 #
coedge $-1 $101 $101 $100 $168 reversed $65 $-1 #
coedge $-1 $102 $102 $66 $103 forward $164 $-1 #
edge $-1 $169 $169 $102 $170 forward #
face $-1 $171 $172 $29 $-1 $173 reversed single #
loop $-1 $174 $175 $67 #
cone-surface $-1 35.542165715071022 -30.683248544966546 7.2647674418138672 0 0.79863551827123203 -0.60181501223851219 2.5 0 0 1 I I 0 1 forward I I I I #
loop $-1 $-1 $176 $47 #
coedge $-1 $108 $108 $109 $177 forward $68 $-1 #
coedge $-1 $109 $109 $108 $177 reversed $70 $-1 #
coedge $-1 $110 $110 $71 $111 forward $178 $-1 #
edge $-1 $179 $179 $110 $180 forward #
face $-1 $181 $182 $21 $-1 $183 reversed single #
loop $-1 $-1 $184 $72 #
plane-surface $-1 -78.641315958128601 0 0 1 0 0 0 0 -1 forward_v I I I I #
coedge $-1 $185 $123 $186 $187 forward $73 $-1 #
coedge $-1 $188 $75 $185 $189 forward $51 $-1 #
coedge $-1 $75 $188 $190 $191 forward $51 $-1 #
coedge $-1 $126 $125 $75 $119 reversed $127 $-1 #
edge $-1 $192 $193 $118 $194 forward #
coedge $-1 $77 $76 $195 $196 forward $36 $-1 #
coedge $-1 $197 $198 $76 $122 reversed $182 $-1 #
edge $-1 $129 $199 $121 $200 forward #
coedge $-1 $115 $201 $77 $124 reversed $73 $-1 #
edge $-1 $202 $128 $123 $203 forward #
coedge $-1 $118 $78 $201 $204 forward $127 $-1 #
coedge $-1 $78 $118 $197 $205 reversed $127 $-1 #
loop $-1 $-1 $125 $181 #
vertex $-1 $79 $206 #
vertex $-1 $79 $207 #
straight-curve $-1 78.641315958128601 0 16.275455584095155 0 1 0 I I #
face $-1 $208 $209 $23 $-1 $133 reversed single #
loop $-1 $-1 $210 $80 #
plane-surface $-1 -78.641315958128601 0 0 1 0 0 0 0 -1 forward_v I I I I #
coedge $-1 $86 $137 $211 $212 reversed $81 $-1 #
coedge $-1 $213 $83 $214 $215 reversed $55 $-1 #
coedge $-1 $83 $213 $216 $217 reversed $55 $-1 #
coedge $-1 $134 $144 $83 $138 forward $81 $-1 #
edge $-1 $218 $219 $137 $220 forward #
coedge $-1 $85 $84 $221 $222 reversed $39 $-1 #
coedge $-1 $211 $223 $84 $141 forward $224 $-1 #
edge $-1 $225 $145 $140 $226 forward #
coedge $-1 $227 $228 $85 $143 forward $229 $-1 #
edge $-1 $146 $230 $142 $231 forward #
coedge $-1 $137 $86 $228 $232 reversed $81 $-1 #
vertex $-1 $141 $233 #
vertex $-1 $143 $234 #
straight-curve $-1 -58.570307108679188 0 -10.695027956537309 0 1 0 I I #
face $-1 $235 $236 $25 $-1 $237 reversed single #
loop $-1 $-1 $238 $88 #
plane-surface $-1 0 -38.259131014487735 0 0 1 0 0 0 1 forward_v I I I I #
coedge $-1 $239 $240 $238 $241 reversed $89 $-1 #
coedge $-1 $242 $91 $240 $243 reversed $59 $-1 #
coedge $-1 $91 $242 $92 $156 reversed $59 $-1 #
coedge $-1 $94 $238 $91 $155 forward $149 $-1 #
edge $-1 $244 $160 $154 $245 forward #
edge $-1 $160 $246 $92 $247 forward #
coedge $-1 $248 $249 $93 $158 forward $250 $-1 #
edge $-1 $161 $246 $157 $251 forward #
coedge $-1 $252 $94 $249 $253 reversed $149 $-1 #
vertex $-1 $155 $254 #
vertex $-1 $158 $255 #
straight-curve $-1 25.864388004699506 -38.259131014487735 47.824842611962183 0 0 1 I I #
face $-1 $256 $257 $27 $-1 $258 forward single #
loop $-1 $259 $102 $96 #
plane-surface $-1 42.800498997849644 -38.25913101448775 0.9946361723366266 0 -0.79863551827123203 0.60181501223851219 1 0 0 forward_v I I I I #
coedge $-1 $260 $261 $262 $263 reversed $97 $-1 #
coedge $-1 $167 $167 $-1 $264 forward $99 $-1 #
edge $-1 $265 $265 $100 $266 forward #
vertex $-1 $103 $267 #
ellipse-curve $-1 35.542165715071022 -32.501669499873053 8.6350458782158963 0 0.79863551827123203 -0.60181501223851219 2.5 0 0 1 I I #
face $-1 $268 $269 $29 $-1 $270 forward single #
loop $-1 $271 $272 $104 #
cone-surface $-1 35.542165715071022 -27.866533192221016 5.142220240113712 0 0.79863551827123203 -0.60181501223851219 1.25 0 0 1 I I -0.70710678118654746 0.70710678118654746 forward I I I I #
loop $-1 $-1 $273 $67 #
coedge $-1 $175 $175 $274 $275 reversed $105 $-1 #
coedge $-1 $176 $176 $-1 $276 forward $107 $-1 #
edge $-1 $277 $277 $108 $278 forward #
loop $-1 $279 $110 $268 #
vertex $-1 $111 $280 #
ellipse-curve $-1 50.058832280628295 -32.501669499873053 8.6350458782158963 0 0.79863551827123203 -0.60181501223851219 2.5 0 0 1 I I #
face $-1 $-1 $127 $21 $-1 $281 reversed single #
loop $-1 $-1 $197 $112 #
plane-surface $-1 0 38.259131014487735 0 0 -1 0 0 0 -1 forward_v I I I I #
coedge $-1 $282 $195 $198 $283 forward $113 $-1 #
coedge $-1 $201 $115 $116 $189 reversed $73 $-1 #
coedge $-1 $195 $282 $115 $187 reversed $113 $-1 #
edge $-1 $202 $284 $186 $285 forward #
coedge $-1 $117 $116 $282 $286 forward $51 $-1 #
edge $-1 $193 $284 $185 $287 forward #
coedge $-1 $198 $197 $117 $191 reversed $182 $-1 #
edge $-1 $288 $192 $190 $289 forward #
vertex $-1 $119 $290 #
vertex $-1 $204 $291 #
straight-curve $-1 78.641315958128601 0 -16.275455584095155 0 -1 0 I I #
coedge $-1 $184 $186 $120 $196 reversed $113 $-1 #
edge $-1 $199 $202 $195 $292 forward #
coedge $-1 $190 $121 $126 $205 forward $182 $-1 #
coedge $-1 $121 $190 $184 $283 reversed $182 $-1 #
vertex $-1 $122 $293 #
straight-curve $-1 0 38.259131014487735 16.275455584095155 -1 0 0 I I #
coedge $-1 $123 $185 $125 $204 reversed $73 $-1 #
vertex $-1 $196 $294 #
straight-curve $-1 0 -38.259131014487735 16.275455584095155 1 0 0 I I #
edge $-1 $128 $193 $125 $295 forward #
edge $-1 $129 $192 $126 $296 forward #
point $-1 78.641315958128601 -38.259131014487735 16.275455584095155 #
point $-1 78.641315958128601 38.259131014487735 16.275455584095155 #
face $-1 $297 $224 $23 $-1 $298 reversed single #
loop $-1 $-1 $221 $131 #
coedge $-1 $299 $300 $213 $301 forward $132 $-1 #
coedge $-1 $216 $140 $134 $212 forward $224 $-1 #
edge $-1 $145 $219 $211 $302 forward #
coedge $-1 $136 $135 $210 $301 reversed $55 $-1 #
coedge $-1 $228 $303 $135 $215 forward $229 $-1 #
edge $-1 $304 $218 $214 $305 forward #
coedge $-1 $306 $211 $136 $217 forward $224 $-1 #
edge $-1 $219 $307 $216 $308 forward #
vertex $-1 $215 $309 #
vertex $-1 $217 $310 #
straight-curve $-1 -58.570307108679188 0 -14.505432630991109 0 -1 0 I I #
coedge $-1 $311 $312 $139 $222 forward $209 $-1 #
edge $-1 $230 $225 $221 $313 forward #
coedge $-1 $140 $314 $311 $315 forward $224 $-1 #
loop $-1 $-1 $140 $208 #
vertex $-1 $141 $316 #
straight-curve $-1 -34.302905766701947 -38.259131014487735 -10.695027956537309 1 0 0 I I #
coedge $-1 $317 $142 $312 $318 reversed $229 $-1 #
coedge $-1 $142 $214 $144 $232 forward $229 $-1 #
loop $-1 $-1 $142 $319 #
vertex $-1 $222 $320 #
straight-curve $-1 -34.302905766701947 38.259131014487735 -10.695027956537309 -1 0 0 I I #
edge $-1 $218 $146 $228 $321 forward #
point $-1 -58.570307108679188 -38.259131014487735 -10.695027956537309 #
point $-1 -58.570307108679188 38.259131014487735 -10.695027956537309 #
face $-1 $322 $323 $25 $-1 $324 forward single #
loop $-1 $-1 $325 $148 #
plane-surface $-1 -68.605811533403894 0 -10.695027956537309 0 0 1 1 0 0 forward_v I I I I #
coedge $-1 $154 $326 $151 $241 forward $149 $-1 #
coedge $-1 $240 $151 $327 $328 reversed $89 $-1 #
coedge $-1 $151 $239 $152 $243 forward $89 $-1 #
edge $-1 $329 $244 $238 $330 forward #
coedge $-1 $153 $152 $248 $331 reversed $59 $-1 #
edge $-1 $332 $244 $240 $333 forward #
vertex $-1 $155 $334 #
straight-curve $-1 21.400249498924822 -38.259131014487735 0.99463617233664237 -1 0 0 I I #
vertex $-1 $331 $335 #
straight-curve $-1 25.864388004699506 -38.25913101448775 0.9946361723366266 0 0.60181501223851219 0.79863551827123203 I I #
coedge $-1 $327 $157 $242 $331 forward $250 $-1 #
coedge $-1 $157 $336 $159 $253 forward $250 $-1 #
loop $-1 $-1 $327 $337 #
straight-curve $-1 25.864388004699506 -81.935313634995623 16.275455584095155 0 1 0 I I #
coedge $-1 $338 $159 $339 $340 forward $149 $-1 #
edge $-1 $341 $161 $159 $342 forward #
point $-1 25.864388004699506 -38.259131014487735 0.99463617233664547 #
point $-1 25.864388004699506 -38.259131014487735 16.275455584095155 #
face $-1 $343 $344 $27 $-1 $345 reversed single #
loop $-1 $-1 $346 $163 #
plane-surface $-1 59.736609990999781 -163.87062726999125 95.649685223924365 -1 0 0 0 -0.79863551827123203 0.60181501223851219 forward_v I I I I #
loop $-1 $-1 $347 $96 #
coedge $-1 $261 $166 $348 $349 forward $97 $-1 #
coedge $-1 $166 $260 $350 $351 reversed $97 $-1 #
coedge $-1 $352 $353 $166 $263 forward $344 $-1 #
edge $-1 $354 $355 $262 $356 forward #
edge $-1 $357 $357 $167 $-1 forward #
vertex $-1 $168 $358 #
ellipse-curve $-1 35.542165715071022 -28.864827590060056 5.8944890054118524 0 -0.79863551827123203 0.60181501223851219 2.5 0 0 1 I I #
point $-1 38.042165715071022 -32.501669499873039 8.6350458782158803 #
face $-1 $359 $178 $29 $-1 $360 forward single #
loop $-1 $-1 $361 $171 #
plane-surface $-1 25.864388004699506 -163.87062726999125 95.649685223924365 1 0 0 0 0.79863551827123203 -0.60181501223851219 forward_v I I I I #
loop $-1 $-1 $362 $104 #
coedge $-1 $272 $272 $273 $363 forward $172 $-1 #
coedge $-1 $273 $273 $272 $363 reversed $174 $-1 #
coedge $-1 $274 $274 $175 $275 forward $279 $-1 #
edge $-1 $364 $364 $274 $365 forward #
edge $-1 $366 $366 $176 $-1 forward #
vertex $-1 $177 $367 #
ellipse-curve $-1 50.058832280628295 -28.864827590060056 5.8944890054118524 0 -0.79863551827123203 0.60181501223851219 2.5 0 0 1 I I #
loop $-1 $368 $274 $268 #
point $-1 52.558832280628295 -32.501669499873039 8.6350458782158803 #
plane-surface $-1 78.641315958128601 0 0 -1 0 0 0 0 1 forward_v I I I I #
coedge $-1 $186 $184 $188 $286 reversed $113 $-1 #
edge $-1 $199 $288 $198 $369 forward #
vertex $-1 $286 $370 #
straight-curve $-1 -78.641315958128601 -38.259131014487735 0 0 0 -1 I I #
edge $-1 $284 $288 $282 $371 forward #
straight-curve $-1 0 -38.259131014487735 -16.275455584095155 -1 0 0 I I #
vertex $-1 $191 $372 #
straight-curve $-1 0 38.259131014487735 -16.275455584095155 1 0 0 I I #
point $-1 78.641315958128601 38.259131014487735 -16.275455584095155 #
point $-1 78.641315958128601 -38.259131014487735 -16.275455584095155 #
straight-curve $-1 -78.641315958128601 0 16.275455584095155 0 -1 0 I I #
point $-1 -78.641315958128601 38.259131014487735 16.275455584095155 #
point $-1 -78.641315958128601 -38.259131014487735 16.275455584095155 #
straight-curve $-1 78.641315958128601 -38.259131014487735 0 0 0 -1 I I #
straight-curve $-1 78.641315958128601 38.259131014487735 0 0 0 -1 I I #
face $-1 $373 $374 $23 $-1 $375 forward single #
plane-surface $-1 0 -38.259131014487735 0 0 1 0 0 0 1 forward_v I I I I #
coedge $-1 $376 $210 $303 $377 forward $132 $-1 #
coedge $-1 $210 $376 $306 $378 reversed $132 $-1 #
edge $-1 $307 $304 $210 $379 forward #
straight-curve $-1 -58.570307108679188 -38.259131014487735 -6.3001151468821046 0 0 -1 I I #
coedge $-1 $214 $380 $299 $377 reversed $229 $-1 #
vertex $-1 $377 $381 #
straight-curve $-1 -34.302905766701947 38.259131014487735 -14.505432630991109 1 0 0 I I #
coedge $-1 $382 $216 $300 $378 forward $224 $-1 #
vertex $-1 $378 $383 #
straight-curve $-1 -34.302905766701947 -38.259131014487735 -14.505432630991109 -1 0 0 I I #
point $-1 -58.570307108679188 38.259131014487735 -14.505432630991109 #
point $-1 -58.570307108679188 -38.259131014487735 -14.505432630991109 #
coedge $-1 $384 $221 $223 $315 reversed $209 $-1 #
coedge $-1 $221 $384 $227 $318 forward $209 $-1 #
straight-curve $-1 -78.641315958128601 0 -10.695027956537309 0 -1 0 I I #
coedge $-1 $223 $385 $386 $387 reversed $224 $-1 #
edge $-1 $388 $225 $311 $389 forward #
point $-1 -78.641315958128601 -38.259131014487735 -10.695027956537309 #
coedge $-1 $390 $227 $391 $392 reversed $229 $-1 #
edge $-1 $393 $230 $227 $394 forward #
face $-1 $395 $229 $23 $-1 $396 reversed single #
point $-1 -78.641315958128601 38.259131014487735 -10.695027956537309 #
straight-curve $-1 -58.570307108679188 38.259131014487735 -6.3001151468821046 0 0 1 I I #
face $-1 $397 $398 $25 $-1 $399 forward single #
loop $-1 $-1 $400 $235 #
plane-surface $-1 -68.605811533403894 0 -14.505432630991109 0 0 1 1 0 0 forward_v I I I I #
coedge $-1 $401 $402 $403 $404 reversed $236 $-1 #
coedge $-1 $238 $405 $406 $407 reversed $149 $-1 #
coedge $-1 $406 $248 $239 $328 forward $250 $-1 #
edge $-1 $332 $329 $327 $408 forward #
vertex $-1 $407 $409 #
straight-curve $-1 59.736609990999781 -38.259131014487735 47.824842611962183 0 0 -1 I I #
edge $-1 $246 $332 $248 $410 forward #
vertex $-1 $331 $411 #
straight-curve $-1 59.736609990999781 -38.25913101448775 0.9946361723366266 0 -0.60181501223851219 -0.79863551827123203 I I #
point $-1 59.736609990999781 -38.259131014487735 0.99463617233664547 #
point $-1 25.864388004699506 -26.744207985258363 16.275455584095155 #
coedge $-1 $249 $412 $413 $414 forward $250 $-1 #
face $-1 $415 $250 $25 $-1 $416 forward single #
coedge $-1 $417 $252 $401 $418 forward $149 $-1 #
coedge $-1 $413 $419 $252 $340 reversed $420 $-1 #
edge $-1 $341 $421 $339 $422 forward #
vertex $-1 $414 $423 #
straight-curve $-1 0 -38.259131014487735 16.275455584095155 1 0 0 I I #
face $-1 $424 $425 $27 $-1 $426 reversed single #
loop $-1 $-1 $427 $256 #
plane-surface $-1 0 -38.259131014487735 0 0 1 0 0 0 1 forward_v I I I I #
coedge $-1 $428 $429 $427 $430 reversed $257 $-1 #
coedge $-1 $431 $348 $353 $432 reversed $259 $-1 #
coedge $-1 $347 $433 $260 $349 reversed $259 $-1 #
edge $-1 $354 $434 $260 $435 forward #
coedge $-1 $436 $437 $261 $351 forward $438 $-1 #
edge $-1 $355 $434 $350 $439 forward #
coedge $-1 $440 $262 $437 $441 reversed $344 $-1 #
coedge $-1 $262 $427 $347 $432 forward $344 $-1 #
vertex $-1 $432 $442 #
vertex $-1 $351 $443 #
straight-curve $-1 25.864388004699506 -38.259131014487735 47.824842611962183 0 0 1 I I #
vertex $-1 $264 $444 #
point $-1 38.042165715071022 -28.864827590060056 5.8944890054118524 #
face $-1 $445 $446 $29 $-1 $447 forward single #
plane-surface $-1 42.800498997849644 -38.25913101448775 0.9946361723366266 0 -0.79863551827123203 0.60181501223851219 1 0 0 forward_v I I I I #
coedge $-1 $448 $449 $450 $451 reversed $269 $-1 #
coedge $-1 $362 $362 $-1 $452 forward $271 $-1 #
edge $-1 $453 $453 $272 $454 forward #
vertex $-1 $275 $455 #
ellipse-curve $-1 35.542165715071022 -32.501669499873053 8.6350458782158963 0 0.79863551827123203 -0.60181501223851219 2.5 0 0 1 I I #
vertex $-1 $276 $456 #
point $-1 52.558832280628295 -28.864827590060056 5.8944890054118524 #
loop $-1 $-1 $457 $268 #
straight-curve $-1 -78.641315958128601 38.259131014487735 0 0 0 -1 I I #
point $-1 -78.641315958128601 -38.259131014487735 -16.275455584095155 #
straight-curve $-1 -78.641315958128601 0 -16.275455584095155 0 1 0 I I #
point $-1 -78.641315958128601 38.259131014487735 -16.275455584095155 #
face $-1 $319 $458 $23 $-1 $459 reversed single #
loop $-1 $-1 $460 $297 #
plane-surface $-1 0 0 16.275455584095155 0 0 1 1 0 0 forward_v I I I I #
coedge $-1 $300 $299 $461 $462 reversed $132 $-1 #
edge $-1 $304 $463 $303 $394 forward #
edge $-1 $307 $464 $300 $389 forward #
straight-curve $-1 -78.641315958128601 0 -14.505432630991109 0 1 0 I I #
coedge $-1 $303 $390 $465 $466 reversed $229 $-1 #
point $-1 -78.641315958128601 38.259131014487735 -14.505432630991109 #
coedge $-1 $385 $306 $467 $468 reversed $224 $-1 #
point $-1 -78.641315958128601 -38.259131014487735 -14.505432630991109 #
coedge $-1 $312 $311 $469 $470 reversed $209 $-1 #
coedge $-1 $314 $382 $471 $472 reversed $224 $-1 #
coedge $-1 $460 $469 $314 $387 forward $374 $-1 #
edge $-1 $388 $473 $314 $474 forward #
vertex $-1 $470 $475 #
straight-curve $-1 -78.641315958128601 -38.259131014487735 0 0 0 -1 I I #
coedge $-1 $380 $317 $476 $477 forward $229 $-1 #
coedge $-1 $469 $460 $317 $392 forward $374 $-1 #
edge $-1 $478 $393 $317 $479 forward #
vertex $-1 $392 $480 #
straight-curve $-1 -78.641315958128601 38.259131014487735 0 0 0 -1 I I #
face $-1 $-1 $481 $23 $-1 $482 reversed single #
plane-surface $-1 0 38.259131014487735 0 0 -1 0 0 0 -1 forward_v I I I I #
face $-1 $483 $484 $25 $-1 $485 reversed single #
loop $-1 $-1 $486 $322 #
plane-surface $-1 -58.570307108679188 0 -12.600230293764209 -1 0 0 0 0 1 forward_v I I I I #
coedge $-1 $487 $488 $489 $490 reversed $323 $-1 #
coedge $-1 $491 $325 $338 $418 reversed $236 $-1 #
coedge $-1 $325 $491 $492 $493 reversed $236 $-1 #
coedge $-1 $494 $486 $325 $404 forward $398 $-1 #
edge $-1 $495 $496 $403 $497 forward #
coedge $-1 $326 $498 $499 $500 reversed $149 $-1 #
coedge $-1 $501 $327 $326 $407 forward $250 $-1 #
edge $-1 $329 $502 $326 $342 forward #
straight-curve $-1 59.736609990999781 -81.935313634995623 16.275455584095155 0 -1 0 I I #
point $-1 59.736609990999781 -38.259131014487735 16.275455584095155 #
straight-curve $-1 21.400249498924822 -26.744207985258367 16.275455584095155 1 0 0 I I #
point $-1 59.736609990999781 -26.744207985258363 16.275455584095155 #
coedge $-1 $336 $501 $503 $504 forward $250 $-1 #
coedge $-1 $505 $339 $336 $414 reversed $420 $-1 #
edge $-1 $506 $341 $413 $507 forward #
face $-1 $508 $509 $25 $-1 $510 reversed single #
plane-surface $-1 0 0 16.275455584095155 0 0 1 1 0 0 forward_v I I I I #
coedge $-1 $511 $338 $486 $512 forward $149 $-1 #
edge $-1 $421 $495 $338 $513 forward #
coedge $-1 $339 $505 $491 $514 forward $420 $-1 #
loop $-1 $-1 $419 $483 #
vertex $-1 $418 $515 #
straight-curve $-1 -78.641315958128601 -38.259131014487735 0 0 0 -1 I I #
point $-1 -78.641315958128601 -38.259131014487735 16.275455584095155 #
face $-1 $516 $517 $27 $-1 $518 forward single #
loop $-1 $-1 $519 $343 #
plane-surface $-1 -68.605811533403894 0 -10.695027956537309 0 0 1 1 0 0 forward_v I I I I #
coedge $-1 $353 $520 $346 $430 forward $344 $-1 #
coedge $-1 $429 $346 $521 $522 reversed $257 $-1 #
coedge $-1 $346 $428 $431 $523 forward $257 $-1 #
edge $-1 $524 $525 $427 $526 forward #
coedge $-1 $433 $347 $429 $523 reversed $259 $-1 #
edge $-1 $525 $354 $353 $527 forward #
coedge $-1 $348 $431 $436 $528 reversed $259 $-1 #
vertex $-1 $528 $529 #
straight-curve $-1 25.864388004699506 -38.25913101448775 0.9946361723366266 0 0.60181501223851219 0.79863551827123203 I I #
coedge $-1 $521 $350 $433 $528 forward $438 $-1 #
coedge $-1 $350 $530 $352 $441 forward $438 $-1 #
loop $-1 $-1 $521 $531 #
straight-curve $-1 25.864388004699506 -81.935313634995623 16.275455584095155 0 1 0 I I #
coedge $-1 $532 $352 $533 $534 forward $344 $-1 #
edge $-1 $535 $355 $352 $536 forward #
point $-1 25.864388004699506 -38.259131014487735 0.99463617233664547 #
point $-1 25.864388004699506 -38.259131014487735 16.275455584095155 #
point $-1 35.542165715071022 -26.868238794381977 4.3899514748155717 #
face $-1 $537 $538 $29 $-1 $539 reversed single #
loop $-1 $-1 $540 $359 #
plane-surface $-1 59.736609990999781 -163.87062726999125 95.649685223924365 -1 0 0 0 -0.79863551827123203 0.60181501223851219 forward_v I I I I #
coedge $-1 $449 $361 $541 $542 forward $269 $-1 #
coedge $-1 $361 $448 $543 $544 reversed $269 $-1 #
coedge $-1 $545 $546 $361 $451 forward $538 $-1 #
edge $-1 $547 $548 $450 $549 forward #
edge $-1 $550 $550 $362 $-1 forward #
vertex $-1 $363 $551 #
ellipse-curve $-1 35.542165715071022 -28.864827590060056 5.8944890054118524 0 -0.79863551827123203 0.60181501223851219 2.5 0 0 1 I I #
point $-1 38.042165715071022 -32.501669499873039 8.6350458782158803 #
point $-1 50.058832280628295 -26.868238794381977 4.3899514748155717 #
coedge $-1 $552 $541 $546 $553 reversed $368 $-1 #
loop $-1 $-1 $554 $373 #
plane-surface $-1 0 0 -16.275455584095155 0 0 1 1 0 0 forward_v I I I I #
coedge $-1 $391 $386 $555 $556 forward $374 $-1 #
coedge $-1 $465 $467 $376 $462 forward $458 $-1 #
edge $-1 $464 $463 $376 $557 forward #
vertex $-1 $466 $558 #
vertex $-1 $462 $559 #
coedge $-1 $554 $461 $380 $466 forward $458 $-1 #
edge $-1 $463 $560 $380 $561 forward #
coedge $-1 $461 $554 $382 $468 forward $458 $-1 #
edge $-1 $562 $464 $382 $563 forward #
coedge $-1 $386 $391 $384 $470 forward $374 $-1 #
edge $-1 $393 $388 $384 $564 forward #
coedge $-1 $565 $555 $385 $472 forward $481 $-1 #
edge $-1 $473 $562 $471 $566 forward #
vertex $-1 $556 $567 #
straight-curve $-1 0 -38.259131014487735 16.275455584095155 1 0 0 I I #
point $-1 -78.641315958128601 -38.259131014487735 16.275455584095155 #
coedge $-1 $555 $565 $390 $477 reversed $481 $-1 #
edge $-1 $478 $560 $476 $568 forward #
vertex $-1 $556 $569 #
straight-curve $-1 0 38.259131014487735 16.275455584095155 -1 0 0 I I #
point $-1 -78.641315958128601 38.259131014487735 16.275455584095155 #
loop $-1 $-1 $471 $395 #
plane-surface $-1 78.641315958128601 0 0 -1 0 0 0 0 1 forward_v I I I I #
face $-1 $337 $420 $25 $-1 $485 reversed single #
loop $-1 $-1 $570 $397 #
plane-surface $-1 -78.641315958128601 0 0 1 0 0 0 0 -1 forward_v I I I I #
coedge $-1 $403 $489 $417 $512 reversed $398 $-1 #
coedge $-1 $571 $400 $572 $573 reversed $323 $-1 #
coedge $-1 $400 $571 $511 $574 reversed $323 $-1 #
coedge $-1 $486 $494 $400 $490 forward $398 $-1 #
edge $-1 $575 $576 $489 $577 forward #
coedge $-1 $402 $401 $419 $514 reversed $236 $-1 #
coedge $-1 $578 $579 $402 $493 forward $580 $-1 #
edge $-1 $496 $581 $492 $582 forward #
coedge $-1 $489 $403 $579 $583 reversed $398 $-1 #
vertex $-1 $418 $584 #
vertex $-1 $493 $585 #
straight-curve $-1 -58.570307108679188 0 -10.695027956537309 0 1 0 I I #
coedge $-1 $405 $586 $587 $588 reversed $149 $-1 #
coedge $-1 $589 $590 $405 $500 forward $591 $-1 #
edge $-1 $502 $592 $499 $593 forward #
coedge $-1 $412 $406 $590 $594 forward $250 $-1 #
vertex $-1 $594 $595 #
coedge $-1 $596 $578 $412 $504 reversed $580 $-1 #
edge $-1 $597 $506 $503 $598 forward #
coedge $-1 $419 $413 $578 $599 forward $420 $-1 #
vertex $-1 $504 $600 #
straight-curve $-1 -78.641315958128601 0 16.275455584095155 0 -1 0 I I #
face $-1 $601 $580 $25 $-1 $602 reversed single #
loop $-1 $-1 $603 $415 #
plane-surface $-1 0 0 -16.275455584095155 0 0 1 1 0 0 forward_v I I I I #
coedge $-1 $586 $417 $488 $574 forward $149 $-1 #
edge $-1 $495 $576 $417 $604 forward #
straight-curve $-1 -34.302905766701947 -38.259131014487735 -10.695027956537309 1 0 0 I I #
edge $-1 $581 $421 $419 $605 forward #
point $-1 -78.641315958128601 -38.259131014487735 -10.695027956537309 #
face $-1 $606 $607 $27 $-1 $608 forward single #
loop $-1 $-1 $609 $424 #
plane-surface $-1 -68.605811533403894 0 -14.505432630991109 0 0 1 1 0 0 forward_v I I I I #
coedge $-1 $610 $611 $612 $613 reversed $425 $-1 #
coedge $-1 $427 $614 $615 $616 reversed $344 $-1 #
coedge $-1 $615 $436 $428 $522 forward $438 $-1 #
edge $-1 $617 $524 $521 $618 forward #
edge $-1 $617 $525 $429 $619 forward #
vertex $-1 $616 $620 #
vertex $-1 $432 $621 #
straight-curve $-1 59.736609990999781 -38.259131014487735 47.824842611962183 0 0 -1 I I #
straight-curve $-1 21.400249498924822 -38.259131014487735 0.99463617233664237 -1 0 0 I I #
edge $-1 $434 $617 $436 $622 forward #
point $-1 25.864388004699506 -26.744207985258363 16.275455584095155 #
coedge $-1 $437 $623 $624 $625 forward $438 $-1 #
face $-1 $626 $438 $27 $-1 $627 forward single #
coedge $-1 $628 $440 $610 $629 forward $344 $-1 #
coedge $-1 $624 $630 $440 $534 reversed $631 $-1 #
edge $-1 $535 $632 $533 $633 forward #
vertex $-1 $625 $634 #
straight-curve $-1 0 -38.259131014487735 16.275455584095155 1 0 0 I I #
face $-1 $635 $636 $29 $-1 $637 reversed single #
loop $-1 $-1 $638 $445 #
plane-surface $-1 0 -38.259131014487735 0 0 1 0 0 0 1 forward_v I I I I #
coedge $-1 $639 $640 $638 $641 reversed $446 $-1 #
coedge $-1 $457 $642 $448 $542 reversed $368 $-1 #
edge $-1 $547 $643 $448 $644 forward #
coedge $-1 $645 $646 $449 $544 forward $647 $-1 #
edge $-1 $548 $643 $543 $648 forward #
coedge $-1 $649 $450 $646 $650 reversed $538 $-1 #
coedge $-1 $450 $638 $457 $553 forward $538 $-1 #
vertex $-1 $553 $651 #
vertex $-1 $544 $652 #
straight-curve $-1 25.864388004699506 -38.259131014487735 47.824842611962183 0 0 1 I I #
vertex $-1 $452 $653 #
point $-1 38.042165715071022 -28.864827590060056 5.8944890054118524 #
coedge $-1 $642 $457 $640 $654 reversed $368 $-1 #
edge $-1 $655 $547 $546 $656 forward #
coedge $-1 $467 $465 $565 $657 forward $458 $-1 #
coedge $-1 $471 $476 $460 $556 reversed $481 $-1 #
edge $-1 $473 $478 $555 $658 forward #
straight-curve $-1 -78.641315958128601 0 -16.275455584095155 0 1 0 I I #
point $-1 -78.641315958128601 38.259131014487735 -16.275455584095155 #
point $-1 -78.641315958128601 -38.259131014487735 -16.275455584095155 #
vertex $-1 $657 $659 #
straight-curve $-1 0 38.259131014487735 -16.275455584095155 1 0 0 I I #
vertex $-1 $472 $660 #
straight-curve $-1 0 -38.259131014487735 -16.275455584095155 -1 0 0 I I #
straight-curve $-1 -78.641315958128601 0 16.275455584095155 0 -1 0 I I #
coedge $-1 $476 $471 $554 $657 reversed $481 $-1 #
straight-curve $-1 78.641315958128601 -38.259131014487735 0 0 0 -1 I I #
point $-1 78.641315958128601 -38.259131014487735 16.275455584095155 #
straight-curve $-1 78.641315958128601 38.259131014487735 0 0 0 -1 I I #
point $-1 78.641315958128601 38.259131014487735 16.275455584095155 #
coedge $-1 $661 $662 $571 $663 forward $484 $-1 #
coedge $-1 $488 $487 $570 $663 reversed $323 $-1 #
coedge $-1 $579 $664 $487 $573 forward $580 $-1 #
edge $-1 $665 $575 $572 $666 forward #
edge $-1 $576 $667 $511 $668 forward #
vertex $-1 $573 $669 #
vertex $-1 $574 $670 #
straight-curve $-1 -58.570307108679188 0 -14.505432630991109 0 -1 0 I I #
coedge $-1 $503 $492 $505 $599 reversed $580 $-1 #
coedge $-1 $492 $572 $494 $583 forward $580 $-1 #
loop $-1 $-1 $492 $508 #
vertex $-1 $514 $671 #
straight-curve $-1 -34.302905766701947 38.259131014487735 -10.695027956537309 -1 0 0 I I #
edge $-1 $575 $496 $579 $672 forward #
point $-1 -58.570307108679188 -38.259131014487735 -10.695027956537309 #
point $-1 -58.570307108679188 38.259131014487735 -10.695027956537309 #
coedge $-1 $498 $511 $662 $673 forward $149 $-1 #
coedge $-1 $674 $603 $498 $588 forward $509 $-1 #
edge $-1 $592 $675 $498 $676 forward #
coedge $-1 $677 $499 $603 $678 reversed $591 $-1 #
coedge $-1 $499 $677 $501 $594 reversed $591 $-1 #
loop $-1 $-1 $499 $601 #
vertex $-1 $500 $679 #
straight-curve $-1 78.641315958128601 -38.259131014487735 0 0 0 -1 I I #
edge $-1 $502 $597 $590 $680 forward #
point $-1 78.641315958128601 -38.259131014487735 16.275455584095155 #
coedge $-1 $681 $503 $677 $682 forward $580 $-1 #
vertex $-1 $594 $683 #
straight-curve $-1 0 38.259131014487735 16.275455584095155 -1 0 0 I I #
edge $-1 $506 $581 $578 $684 forward #
point $-1 -78.641315958128601 38.259131014487735 16.275455584095155 #
face $-1 $-1 $591 $25 $-1 $685 reversed single #
plane-surface $-1 0 38.259131014487735 0 0 -1 0 0 0 -1 forward_v I I I I #
coedge $-1 $587 $686 $589 $678 forward $509 $-1 #
straight-curve $-1 -58.570307108679188 -38.259131014487735 -6.3001151468821046 0 0 -1 I I #
straight-curve $-1 -78.641315958128601 0 -10.695027956537309 0 -1 0 I I #
face $-1 $687 $688 $27 $-1 $689 reversed single #
loop $-1 $-1 $690 $516 #
plane-surface $-1 -58.570307108679188 0 -12.600230293764209 -1 0 0 0 0 1 forward_v I I I I #
coedge $-1 $691 $692 $693 $694 reversed $517 $-1 #
coedge $-1 $695 $519 $532 $629 reversed $425 $-1 #
coedge $-1 $519 $695 $696 $697 reversed $425 $-1 #
coedge $-1 $698 $690 $519 $613 forward $607 $-1 #
edge $-1 $699 $700 $612 $701 forward #
coedge $-1 $520 $702 $703 $704 reversed $344 $-1 #
coedge $-1 $705 $521 $520 $616 forward $438 $-1 #
edge $-1 $524 $706 $520 $536 forward #
vertex $-1 $528 $707 #
straight-curve $-1 59.736609990999781 -81.935313634995623 16.275455584095155 0 -1 0 I I #
straight-curve $-1 59.736609990999781 -38.25913101448775 0.9946361723366266 0 -0.60181501223851219 -0.79863551827123203 I I #
point $-1 59.736609990999781 -38.259131014487735 16.275455584095155 #
point $-1 59.736609990999781 -38.259131014487735 0.99463617233664547 #
straight-curve $-1 21.400249498924822 -26.744207985258367 16.275455584095155 1 0 0 I I #
coedge $-1 $530 $705 $708 $709 forward $438 $-1 #
coedge $-1 $710 $533 $530 $625 reversed $631 $-1 #
edge $-1 $711 $535 $624 $712 forward #
face $-1 $713 $714 $27 $-1 $715 reversed single #
plane-surface $-1 0 0 16.275455584095155 0 0 1 1 0 0 forward_v I I I I #
coedge $-1 $716 $532 $690 $717 forward $344 $-1 #
edge $-1 $632 $699 $532 $718 forward #
coedge $-1 $533 $710 $695 $719 forward $631 $-1 #
loop $-1 $-1 $630 $687 #
vertex $-1 $629 $720 #
straight-curve $-1 -78.641315958128601 -38.259131014487735 0 0 0 -1 I I #
point $-1 -78.641315958128601 -38.259131014487735 16.275455584095155 #
face $-1 $721 $722 $29 $-1 $723 forward single #
loop $-1 $-1 $724 $537 #
plane-surface $-1 -68.605811533403894 0 -10.695027956537309 0 0 1 1 0 0 forward_v I I I I #
coedge $-1 $546 $725 $540 $641 forward $538 $-1 #
coedge $-1 $640 $540 $726 $727 reversed $446 $-1 #
coedge $-1 $540 $639 $552 $654 forward $446 $-1 #
edge $-1 $728 $655 $638 $729 forward #
coedge $-1 $541 $552 $645 $730 reversed $368 $-1 #
vertex $-1 $730 $731 #
straight-curve $-1 25.864388004699506 -38.25913101448775 0.9946361723366266 0 0.60181501223851219 0.79863551827123203 I I #
coedge $-1 $726 $543 $642 $730 forward $647 $-1 #
coedge $-1 $543 $732 $545 $650 forward $647 $-1 #
loop $-1 $-1 $726 $733 #
straight-curve $-1 25.864388004699506 -81.935313634995623 16.275455584095155 0 1 0 I I #
coedge $-1 $734 $545 $735 $736 forward $538 $-1 #
edge $-1 $737 $548 $545 $738 forward #
point $-1 25.864388004699506 -38.259131014487735 0.99463617233664547 #
point $-1 25.864388004699506 -38.259131014487735 16.275455584095155 #
point $-1 35.542165715071022 -26.868238794381977 4.3899514748155717 #
edge $-1 $739 $655 $640 $740 forward #
vertex $-1 $553 $741 #
straight-curve $-1 21.400249498924822 -38.259131014487735 0.99463617233664237 -1 0 0 I I #
edge $-1 $560 $562 $565 $742 forward #
straight-curve $-1 78.641315958128601 0 16.275455584095155 0 1 0 I I #
point $-1 78.641315958128601 38.259131014487735 -16.275455584095155 #
point $-1 78.641315958128601 -38.259131014487735 -16.275455584095155 #
coedge $-1 $743 $570 $664 $744 forward $484 $-1 #
coedge $-1 $570 $743 $586 $673 reversed $484 $-1 #
edge $-1 $667 $665 $570 $745 forward #
coedge $-1 $572 $681 $661 $744 reversed $580 $-1 #
vertex $-1 $744 $746 #
straight-curve $-1 -34.302905766701947 38.259131014487735 -14.505432630991109 1 0 0 I I #
vertex $-1 $673 $747 #
straight-curve $-1 -34.302905766701947 -38.259131014487735 -14.505432630991109 -1 0 0 I I #
point $-1 -58.570307108679188 38.259131014487735 -14.505432630991109 #
point $-1 -58.570307108679188 -38.259131014487735 -14.505432630991109 #
point $-1 -78.641315958128601 38.259131014487735 -10.695027956537309 #
straight-curve $-1 -58.570307108679188 38.259131014487735 -6.3001151468821046 0 0 1 I I #
edge $-1 $667 $675 $662 $422 forward #
coedge $-1 $686 $587 $743 $748 forward $509 $-1 #
vertex $-1 $748 $749 #
straight-curve $-1 0 -38.259131014487735 -16.275455584095155 -1 0 0 I I #
coedge $-1 $590 $589 $596 $682 reversed $591 $-1 #
edge $-1 $750 $592 $589 $751 forward #
point $-1 78.641315958128601 -38.259131014487735 -16.275455584095155 #
straight-curve $-1 78.641315958128601 0 16.275455584095155 0 1 0 I I #
coedge $-1 $664 $596 $686 $752 reversed $580 $-1 #
edge $-1 $597 $750 $677 $753 forward #
point $-1 78.641315958128601 38.259131014487735 16.275455584095155 #
straight-curve $-1 -78.641315958128601 38.259131014487735 0 0 0 -1 I I #
plane-surface $-1 78.641315958128601 0 0 -1 0 0 0 0 1 forward_v I I I I #
coedge $-1 $603 $674 $681 $752 forward $509 $-1 #
face $-1 $531 $631 $27 $-1 $689 reversed single #
loop $-1 $-1 $754 $606 #
plane-surface $-1 -78.641315958128601 0 0 1 0 0 0 0 -1 forward_v I I I I #
coedge $-1 $612 $693 $628 $717 reversed $607 $-1 #
coedge $-1 $755 $609 $756 $757 reversed $517 $-1 #
coedge $-1 $609 $755 $716 $758 reversed $517 $-1 #
coedge $-1 $690 $698 $609 $694 forward $607 $-1 #
edge $-1 $759 $760 $693 $761 forward #
coedge $-1 $611 $610 $630 $719 reversed $425 $-1 #
coedge $-1 $762 $763 $611 $697 forward $764 $-1 #
edge $-1 $700 $765 $696 $766 forward #
coedge $-1 $693 $612 $763 $767 reversed $607 $-1 #
vertex $-1 $629 $768 #
vertex $-1 $697 $769 #
straight-curve $-1 -58.570307108679188 0 -10.695027956537309 0 1 0 I I #
coedge $-1 $614 $770 $771 $772 reversed $344 $-1 #
coedge $-1 $773 $774 $614 $704 forward $775 $-1 #
edge $-1 $706 $776 $703 $777 forward #
coedge $-1 $623 $615 $774 $778 forward $438 $-1 #
vertex $-1 $778 $779 #
point $-1 59.736609990999781 -26.744207985258363 16.275455584095155 #
coedge $-1 $780 $762 $623 $709 reversed $764 $-1 #
edge $-1 $781 $711 $708 $782 forward #
coedge $-1 $630 $624 $762 $783 forward $631 $-1 #
vertex $-1 $709 $784 #
straight-curve $-1 -78.641315958128601 0 16.275455584095155 0 -1 0 I I #
face $-1 $785 $764 $27 $-1 $786 reversed single #
loop $-1 $-1 $787 $626 #
plane-surface $-1 0 0 -16.275455584095155 0 0 1 1 0 0 forward_v I I I I #
coedge $-1 $770 $628 $692 $758 forward $344 $-1 #
edge $-1 $699 $760 $628 $788 forward #
straight-curve $-1 -34.302905766701947 -38.259131014487735 -10.695027956537309 1 0 0 I I #
edge $-1 $765 $632 $630 $789 forward #
point $-1 -78.641315958128601 -38.259131014487735 -10.695027956537309 #
face $-1 $790 $791 $29 $-1 $792 forward single #
loop $-1 $-1 $793 $635 #
plane-surface $-1 -68.605811533403894 0 -14.505432630991109 0 0 1 1 0 0 forward_v I I I I #
coedge $-1 $794 $795 $796 $797 reversed $636 $-1 #
coedge $-1 $638 $798 $799 $800 reversed $538 $-1 #
coedge $-1 $799 $645 $639 $727 forward $647 $-1 #
edge $-1 $739 $728 $726 $801 forward #
vertex $-1 $800 $802 #
straight-curve $-1 59.736609990999781 -38.259131014487735 47.824842611962183 0 0 -1 I I #
edge $-1 $643 $739 $645 $803 forward #
point $-1 25.864388004699506 -26.744207985258363 16.275455584095155 #
coedge $-1 $646 $804 $805 $806 forward $647 $-1 #
face $-1 $807 $647 $29 $-1 $808 forward single #
coedge $-1 $809 $649 $794 $810 forward $538 $-1 #
coedge $-1 $805 $811 $649 $736 reversed $812 $-1 #
edge $-1 $737 $813 $735 $814 forward #
vertex $-1 $806 $815 #
straight-curve $-1 0 -38.259131014487735 16.275455584095155 1 0 0 I I #
vertex $-1 $730 $816 #
straight-curve $-1 59.736609990999781 -38.25913101448775 0.9946361723366266 0 -0.60181501223851219 -0.79863551827123203 I I #
point $-1 59.736609990999781 -38.259131014487735 0.99463617233664547 #
straight-curve $-1 78.641315958128601 0 -16.275455584095155 0 -1 0 I I #
coedge $-1 $662 $661 $674 $748 reversed $484 $-1 #
edge $-1 $665 $817 $664 $684 forward #
straight-curve $-1 -78.641315958128601 0 -14.505432630991109 0 1 0 I I #
point $-1 -78.641315958128601 38.259131014487735 -14.505432630991109 #
point $-1 -78.641315958128601 -38.259131014487735 -14.505432630991109 #
edge $-1 $675 $817 $743 $818 forward #
point $-1 -78.641315958128601 -38.259131014487735 -16.275455584095155 #
vertex $-1 $678 $819 #
straight-curve $-1 78.641315958128601 0 -16.275455584095155 0 -1 0 I I #
edge $-1 $817 $750 $681 $820 forward #
straight-curve $-1 78.641315958128601 38.259131014487735 0 0 0 -1 I I #
coedge $-1 $821 $822 $755 $823 forward $688 $-1 #
coedge $-1 $692 $691 $754 $823 reversed $517 $-1 #
coedge $-1 $763 $824 $691 $757 forward $764 $-1 #
edge $-1 $825 $759 $756 $826 forward #
edge $-1 $760 $827 $716 $828 forward #
vertex $-1 $757 $829 #
vertex $-1 $758 $830 #
straight-curve $-1 -58.570307108679188 0 -14.505432630991109 0 -1 0 I I #
coedge $-1 $708 $696 $710 $783 reversed $764 $-1 #
coedge $-1 $696 $756 $698 $767 forward $764 $-1 #
loop $-1 $-1 $696 $713 #
vertex $-1 $719 $831 #
straight-curve $-1 -34.302905766701947 38.259131014487735 -10.695027956537309 -1 0 0 I I #
edge $-1 $759 $700 $763 $832 forward #
point $-1 -58.570307108679188 -38.259131014487735 -10.695027956537309 #
point $-1 -58.570307108679188 38.259131014487735 -10.695027956537309 #
coedge $-1 $702 $716 $822 $833 forward $344 $-1 #
coedge $-1 $834 $787 $702 $772 forward $714 $-1 #
edge $-1 $776 $835 $702 $836 forward #
coedge $-1 $837 $703 $787 $838 reversed $775 $-1 #
coedge $-1 $703 $837 $705 $778 reversed $775 $-1 #
loop $-1 $-1 $703 $785 #
vertex $-1 $704 $839 #
straight-curve $-1 78.641315958128601 -38.259131014487735 0 0 0 -1 I I #
edge $-1 $706 $781 $774 $840 forward #
point $-1 78.641315958128601 -38.259131014487735 16.275455584095155 #
coedge $-1 $841 $708 $837 $842 forward $764 $-1 #
vertex $-1 $778 $843 #
straight-curve $-1 0 38.259131014487735 16.275455584095155 -1 0 0 I I #
edge $-1 $711 $765 $762 $844 forward #
point $-1 -78.641315958128601 38.259131014487735 16.275455584095155 #
face $-1 $-1 $775 $27 $-1 $845 reversed single #
plane-surface $-1 0 38.259131014487735 0 0 -1 0 0 0 -1 forward_v I I I I #
coedge $-1 $771 $846 $773 $838 forward $714 $-1 #
straight-curve $-1 -58.570307108679188 -38.259131014487735 -6.3001151468821046 0 0 -1 I I #
straight-curve $-1 -78.641315958128601 0 -10.695027956537309 0 -1 0 I I #
face $-1 $847 $848 $29 $-1 $849 reversed single #
loop $-1 $-1 $850 $721 #
plane-surface $-1 -58.570307108679188 0 -12.600230293764209 -1 0 0 0 0 1 forward_v I I I I #
coedge $-1 $851 $852 $853 $854 reversed $722 $-1 #
coedge $-1 $855 $724 $734 $810 reversed $636 $-1 #
coedge $-1 $724 $855 $856 $857 reversed $636 $-1 #
coedge $-1 $858 $850 $724 $797 forward $791 $-1 #
edge $-1 $859 $860 $796 $861 forward #
coedge $-1 $725 $862 $863 $864 reversed $538 $-1 #
coedge $-1 $865 $726 $725 $800 forward $647 $-1 #
edge $-1 $728 $866 $725 $738 forward #
straight-curve $-1 59.736609990999781 -81.935313634995623 16.275455584095155 0 -1 0 I I #
point $-1 59.736609990999781 -38.259131014487735 16.275455584095155 #
straight-curve $-1 21.400249498924822 -26.744207985258367 16.275455584095155 1 0 0 I I #
coedge $-1 $732 $865 $867 $868 forward $647 $-1 #
coedge $-1 $869 $735 $732 $806 reversed $812 $-1 #
edge $-1 $870 $737 $805 $871 forward #
face $-1 $872 $873 $29 $-1 $874 reversed single #
plane-surface $-1 0 0 16.275455584095155 0 0 1 1 0 0 forward_v I I I I #
coedge $-1 $875 $734 $850 $876 forward $538 $-1 #
edge $-1 $813 $859 $734 $877 forward #
coedge $-1 $735 $869 $855 $878 forward $812 $-1 #
loop $-1 $-1 $811 $847 #
vertex $-1 $810 $879 #
straight-curve $-1 -78.641315958128601 -38.259131014487735 0 0 0 -1 I I #
point $-1 -78.641315958128601 -38.259131014487735 16.275455584095155 #
point $-1 59.736609990999781 -26.744207985258363 16.275455584095155 #
vertex $-1 $752 $880 #
straight-curve $-1 -78.641315958128601 0 -16.275455584095155 0 1 0 I I #
point $-1 78.641315958128601 38.259131014487735 -16.275455584095155 #
straight-curve $-1 0 38.259131014487735 -16.275455584095155 1 0 0 I I #
coedge $-1 $881 $754 $824 $882 forward $688 $-1 #
coedge $-1 $754 $881 $770 $833 reversed $688 $-1 #
edge $-1 $827 $825 $754 $883 forward #
coedge $-1 $756 $841 $821 $882 reversed $764 $-1 #
vertex $-1 $882 $884 #
straight-curve $-1 -34.302905766701947 38.259131014487735 -14.505432630991109 1 0 0 I I #
vertex $-1 $833 $885 #
straight-curve $-1 -34.302905766701947 -38.259131014487735 -14.505432630991109 -1 0 0 I I #
point $-1 -58.570307108679188 38.259131014487735 -14.505432630991109 #
point $-1 -58.570307108679188 -38.259131014487735 -14.505432630991109 #
point $-1 -78.641315958128601 38.259131014487735 -10.695027956537309 #
straight-curve $-1 -58.570307108679188 38.259131014487735 -6.3001151468821046 0 0 1 I I #
edge $-1 $827 $835 $822 $633 forward #
coedge $-1 $846 $771 $881 $886 forward $714 $-1 #
vertex $-1 $886 $887 #
straight-curve $-1 0 -38.259131014487735 -16.275455584095155 -1 0 0 I I #
coedge $-1 $774 $773 $780 $842 reversed $775 $-1 #
edge $-1 $888 $776 $773 $889 forward #
point $-1 78.641315958128601 -38.259131014487735 -16.275455584095155 #
straight-curve $-1 78.641315958128601 0 16.275455584095155 0 1 0 I I #
coedge $-1 $824 $780 $846 $890 reversed $764 $-1 #
edge $-1 $781 $888 $837 $891 forward #
point $-1 78.641315958128601 38.259131014487735 16.275455584095155 #
straight-curve $-1 -78.641315958128601 38.259131014487735 0 0 0 -1 I I #
plane-surface $-1 78.641315958128601 0 0 -1 0 0 0 0 1 forward_v I I I I #
coedge $-1 $787 $834 $841 $890 forward $714 $-1 #
face $-1 $733 $812 $29 $-1 $849 reversed single #
loop $-1 $-1 $892 $790 #
plane-surface $-1 -78.641315958128601 0 0 1 0 0 0 0 -1 forward_v I I I I #
coedge $-1 $796 $853 $809 $876 reversed $791 $-1 #
coedge $-1 $893 $793 $894 $895 reversed $722 $-1 #
coedge $-1 $793 $893 $875 $896 reversed $722 $-1 #
coedge $-1 $850 $858 $793 $854 forward $791 $-1 #
edge $-1 $897 $898 $853 $899 forward #
coedge $-1 $795 $794 $811 $878 reversed $636 $-1 #
coedge $-1 $900 $901 $795 $857 forward $902 $-1 #
edge $-1 $860 $903 $856 $904 forward #
coedge $-1 $853 $796 $901 $905 reversed $791 $-1 #
vertex $-1 $810 $906 #
vertex $-1 $857 $907 #
straight-curve $-1 -58.570307108679188 0 -10.695027956537309 0 1 0 I I #
coedge $-1 $798 $908 $909 $910 reversed $538 $-1 #
coedge $-1 $911 $912 $798 $864 forward $913 $-1 #
edge $-1 $866 $914 $863 $915 forward #
coedge $-1 $804 $799 $912 $916 forward $647 $-1 #
vertex $-1 $916 $917 #
coedge $-1 $918 $900 $804 $868 reversed $902 $-1 #
edge $-1 $919 $870 $867 $920 forward #
coedge $-1 $811 $805 $900 $921 forward $812 $-1 #
vertex $-1 $868 $922 #
straight-curve $-1 -78.641315958128601 0 16.275455584095155 0 -1 0 I I #
face $-1 $923 $902 $29 $-1 $924 reversed single #
loop $-1 $-1 $925 $807 #
plane-surface $-1 0 0 -16.275455584095155 0 0 1 1 0 0 forward_v I I I I #
coedge $-1 $908 $809 $852 $896 forward $538 $-1 #
edge $-1 $859 $898 $809 $926 forward #
straight-curve $-1 -34.302905766701947 -38.259131014487735 -10.695027956537309 1 0 0 I I #
edge $-1 $903 $813 $811 $927 forward #
point $-1 -78.641315958128601 -38.259131014487735 -10.695027956537309 #
point $-1 -78.641315958128601 38.259131014487735 -16.275455584095155 #
coedge $-1 $822 $821 $834 $886 reversed $688 $-1 #
edge $-1 $825 $928 $824 $844 forward #
straight-curve $-1 -78.641315958128601 0 -14.505432630991109 0 1 0 I I #
point $-1 -78.641315958128601 38.259131014487735 -14.505432630991109 #
point $-1 -78.641315958128601 -38.259131014487735 -14.505432630991109 #
edge $-1 $835 $928 $881 $929 forward #
point $-1 -78.641315958128601 -38.259131014487735 -16.275455584095155 #
vertex $-1 $838 $930 #
straight-curve $-1 78.641315958128601 0 -16.275455584095155 0 -1 0 I I #
edge $-1 $928 $888 $841 $931 forward #
straight-curve $-1 78.641315958128601 38.259131014487735 0 0 0 -1 I I #
coedge $-1 $932 $933 $893 $934 forward $848 $-1 #
coedge $-1 $852 $851 $892 $934 reversed $722 $-1 #
coedge $-1 $901 $935 $851 $895 forward $902 $-1 #
edge $-1 $936 $897 $894 $937 forward #
edge $-1 $898 $938 $875 $939 forward #
vertex $-1 $895 $940 #
vertex $-1 $896 $941 #
straight-curve $-1 -58.570307108679188 0 -14.505432630991109 0 -1 0 I I #
coedge $-1 $867 $856 $869 $921 reversed $902 $-1 #
coedge $-1 $856 $894 $858 $905 forward $902 $-1 #
loop $-1 $-1 $856 $872 #
vertex $-1 $878 $942 #
straight-curve $-1 -34.302905766701947 38.259131014487735 -10.695027956537309 -1 0 0 I I #
edge $-1 $897 $860 $901 $943 forward #
point $-1 -58.570307108679188 -38.259131014487735 -10.695027956537309 #
point $-1 -58.570307108679188 38.259131014487735 -10.695027956537309 #
coedge $-1 $862 $875 $933 $944 forward $538 $-1 #
coedge $-1 $945 $925 $862 $910 forward $873 $-1 #
edge $-1 $914 $946 $862 $947 forward #
coedge $-1 $948 $863 $925 $949 reversed $913 $-1 #
coedge $-1 $863 $948 $865 $916 reversed $913 $-1 #
loop $-1 $-1 $863 $923 #
vertex $-1 $864 $950 #
straight-curve $-1 78.641315958128601 -38.259131014487735 0 0 0 -1 I I #
edge $-1 $866 $919 $912 $951 forward #
point $-1 78.641315958128601 -38.259131014487735 16.275455584095155 #
coedge $-1 $952 $867 $948 $953 forward $902 $-1 #
vertex $-1 $916 $954 #
straight-curve $-1 0 38.259131014487735 16.275455584095155 -1 0 0 I I #
edge $-1 $870 $903 $900 $955 forward #
point $-1 -78.641315958128601 38.259131014487735 16.275455584095155 #
face $-1 $-1 $913 $29 $-1 $956 reversed single #
plane-surface $-1 0 38.259131014487735 0 0 -1 0 0 0 -1 forward_v I I I I #
coedge $-1 $909 $957 $911 $949 forward $873 $-1 #
straight-curve $-1 -58.570307108679188 -38.259131014487735 -6.3001151468821046 0 0 -1 I I #
straight-curve $-1 -78.641315958128601 0 -10.695027956537309 0 -1 0 I I #
vertex $-1 $890 $958 #
straight-curve $-1 -78.641315958128601 0 -16.275455584095155 0 1 0 I I #
point $-1 78.641315958128601 38.259131014487735 -16.275455584095155 #
straight-curve $-1 0 38.259131014487735 -16.275455584095155 1 0 0 I I #
coedge $-1 $959 $892 $935 $960 forward $848 $-1 #
coedge $-1 $892 $959 $908 $944 reversed $848 $-1 #
edge $-1 $938 $936 $892 $961 forward #
coedge $-1 $894 $952 $932 $960 reversed $902 $-1 #
vertex $-1 $960 $962 #
straight-curve $-1 -34.302905766701947 38.259131014487735 -14.505432630991109 1 0 0 I I #
vertex $-1 $944 $963 #
straight-curve $-1 -34.302905766701947 -38.259131014487735 -14.505432630991109 -1 0 0 I I #
point $-1 -58.570307108679188 38.259131014487735 -14.505432630991109 #
point $-1 -58.570307108679188 -38.259131014487735 -14.505432630991109 #
point $-1 -78.641315958128601 38.259131014487735 -10.695027956537309 #
straight-curve $-1 -58.570307108679188 38.259131014487735 -6.3001151468821046 0 0 1 I I #
edge $-1 $938 $946 $933 $814 forward #
coedge $-1 $957 $909 $959 $964 forward $873 $-1 #
vertex $-1 $964 $965 #
straight-curve $-1 0 -38.259131014487735 -16.275455584095155 -1 0 0 I I #
coedge $-1 $912 $911 $918 $953 reversed $913 $-1 #
edge $-1 $966 $914 $911 $967 forward #
point $-1 78.641315958128601 -38.259131014487735 -16.275455584095155 #
straight-curve $-1 78.641315958128601 0 16.275455584095155 0 1 0 I I #
coedge $-1 $935 $918 $957 $968 reversed $902 $-1 #
edge $-1 $919 $966 $948 $969 forward #
point $-1 78.641315958128601 38.259131014487735 16.275455584095155 #
straight-curve $-1 -78.641315958128601 38.259131014487735 0 0 0 -1 I I #
plane-surface $-1 78.641315958128601 0 0 -1 0 0 0 0 1 forward_v I I I I #
coedge $-1 $925 $945 $952 $968 forward $873 $-1 #
point $-1 -78.641315958128601 38.259131014487735 -16.275455584095155 #
coedge $-1 $933 $932 $945 $964 reversed $848 $-1 #
edge $-1 $936 $970 $935 $955 forward #
straight-curve $-1 -78.641315958128601 0 -14.505432630991109 0 1 0 I I #
point $-1 -78.641315958128601 38.259131014487735 -14.505432630991109 #
point $-1 -78.641315958128601 -38.259131014487735 -14.505432630991109 #
edge $-1 $946 $970 $959 $971 forward #
point $-1 -78.641315958128601 -38.259131014487735 -16.275455584095155 #
vertex $-1 $949 $972 #
straight-curve $-1 78.641315958128601 0 -16.275455584095155 0 -1 0 I I #
edge $-1 $970 $966 $952 $973 forward #
straight-curve $-1 78.641315958128601 38.259131014487735 0 0 0 -1 I I #
vertex $-1 $968 $974 #
straight-curve $-1 -78.641315958128601 0 -16.275455584095155 0 1 0 I I #
point $-1 78.641315958128601 38.259131014487735 -16.275455584095155 #
straight-curve $-1 0 38.259131014487735 -16.275455584095155 1 0 0 I I #
point $-1 -78.641315958128601 38.259131014487735 -16.275455584095155 #
End-of-ACIS-data 