600 0 16 0           
96 GICL ACIS Healer - Source: /gicl/data5/repository/Drexel/SM99-DATA/part106.smdg.deltas.sat - 6 0 18 ACIS 6.0.3 Solaris 24 Sat Apr 13 20:43:32 2002 
1 9.999999999999999547e-07 1.000000000000000036e-10 
body $-1 $16 $-1 $-1 #
body $-1 $17 $-1 $-1 #
body $-1 $18 $-1 $-1 #
body $-1 $19 $-1 $-1 #
body $-1 $20 $-1 $-1 #
body $-1 $21 $-1 $-1 #
body $-1 $22 $-1 $-1 #
body $-1 $23 $-1 $-1 #
body $-1 $24 $-1 $-1 #
body $-1 $25 $-1 $-1 #
body $-1 $26 $-1 $-1 #
body $-1 $27 $-1 $-1 #
body $-1 $28 $-1 $-1 #
body $-1 $29 $-1 $-1 #
body $-1 $30 $-1 $-1 #
body $-1 $31 $-1 $-1 #
lump $-1 $-1 $32 $0 #
lump $-1 $-1 $33 $1 #
lump $-1 $-1 $34 $2 #
lump $-1 $-1 $35 $3 #
lump $-1 $-1 $36 $4 #
lump $-1 $-1 $37 $5 #
lump $-1 $-1 $38 $6 #
lump $-1 $-1 $39 $7 #
lump $-1 $-1 $40 $8 #
lump $-1 $-1 $41 $9 #
lump $-1 $-1 $42 $10 #
lump $-1 $-1 $43 $11 #
lump $-1 $-1 $44 $12 #
lump $-1 $-1 $45 $13 #
lump $-1 $-1 $46 $14 #
lump $-1 $-1 $47 $15 #
shell $-1 $-1 $-1 $48 $-1 $16 #
shell $-1 $-1 $-1 $49 $-1 $17 #
shell $-1 $-1 $-1 $50 $-1 $18 #
shell $-1 $-1 $-1 $51 $-1 $19 #
shell $-1 $-1 $-1 $52 $-1 $20 #
shell $-1 $-1 $-1 $53 $-1 $21 #
shell $-1 $-1 $-1 $54 $-1 $22 #
shell $-1 $-1 $-1 $55 $-1 $23 #
shell $-1 $-1 $-1 $56 $-1 $24 #
shell $-1 $-1 $-1 $57 $-1 $25 #
shell $-1 $-1 $-1 $58 $-1 $26 #
shell $-1 $-1 $-1 $59 $-1 $27 #
shell $-1 $-1 $-1 $60 $-1 $28 #
shell $-1 $-1 $-1 $61 $-1 $29 #
shell $-1 $-1 $-1 $62 $-1 $30 #
shell $-1 $-1 $-1 $63 $-1 $31 #
face $-1 $64 $65 $32 $-1 $66 forward single #
face $-1 $67 $68 $33 $-1 $69 forward single #
face $-1 $70 $71 $34 $-1 $72 reversed single #
face $-1 $73 $74 $35 $-1 $75 forward single #
face $-1 $76 $77 $36 $-1 $78 forward single #
face $-1 $79 $80 $37 $-1 $81 reversed single #
face $-1 $82 $83 $38 $-1 $84 forward single #
face $-1 $85 $86 $39 $-1 $87 forward single #
face $-1 $88 $89 $40 $-1 $90 reversed single #
face $-1 $91 $92 $41 $-1 $93 forward single #
face $-1 $94 $95 $42 $-1 $96 reversed single #
face $-1 $97 $98 $43 $-1 $99 forward single #
face $-1 $100 $101 $44 $-1 $102 reversed single #
face $-1 $103 $104 $45 $-1 $105 forward single #
face $-1 $106 $107 $46 $-1 $108 reversed single #
face $-1 $109 $110 $47 $-1 $111 forward single #
face $-1 $112 $113 $32 $-1 $114 reversed single #
loop $-1 $-1 $115 $48 #
plane-surface $-1 72.91238135929441455 49.08874416989197442 34.29875064156037467 0 0 1 1 0 0 forward_v I I I I #
face $-1 $116 $117 $33 $-1 $118 reversed single #
loop $-1 $-1 $119 $49 #
plane-surface $-1 6.972259702356325306 49.08874416989197442 3.920799288250151449 0 0 1 1 0 0 forward_v I I I I #
face $-1 $120 $121 $34 $-1 $122 reversed single #
loop $-1 $-1 $123 $50 #
plane-surface $-1 37.08528080775857916 146.778466612506918 188.5534064526860334 1 0 0 0 -0.7660444514056184984 -0.6427875998109056077 forward_v I I I I #
face $-1 $124 $125 $35 $-1 $126 forward single #
loop $-1 $127 $128 $51 #
cone-surface $-1 42.15921661936330622 89.26067612568073173 24.64347838857720419 0 -0.7660444514056186094 -0.6427875998109057187 2 0 0 1 I I 0 1 2 forward I I I I #
face $-1 $129 $130 $36 $-1 $131 forward single #
loop $-1 $132 $133 $52 #
cone-surface $-1 49.77012033677038971 89.26067612568073173 24.64347838857720419 0 -0.7660444514056186094 -0.6427875998109057187 2 0 0 1 I I 0 1 2 forward I I I I #
face $-1 $134 $135 $37 $-1 $136 reversed single #
loop $-1 $-1 $137 $53 #
plane-surface $-1 103.0254024646966684 146.778466612506918 188.5534064526860334 1 0 0 0 -0.7660444514056184984 -0.6427875998109056077 forward_v I I I I #
face $-1 $138 $139 $38 $-1 $140 forward single #
loop $-1 $141 $142 $54 #
cone-surface $-1 108.0993382763013955 89.26067612568073173 24.64347838857720419 0 -0.7660444514056186094 -0.6427875998109057187 2 0 0 1 I I 0 1 2 forward I I I I #
face $-1 $143 $144 $39 $-1 $145 forward single #
loop $-1 $146 $147 $55 #
cone-surface $-1 115.710241993708479 89.26067612568073173 24.64347838857720419 0 -0.7660444514056186094 -0.6427875998109057187 2 0 0 1 I I 0 1 2 forward I I I I #
face $-1 $148 $149 $40 $-1 $150 reversed single #
loop $-1 $-1 $151 $56 #
plane-surface $-1 35.03464658344198313 -113.3271266339138492 121.1329746340576605 -1 0 0 0 -0.7771459697322561366 0.629320380830711068 forward_v I I I I #
face $-1 $152 $153 $41 $-1 $154 forward single #
loop $-1 $155 $156 $57 #
cone-surface $-1 26.71671690264407317 3.119561800441310595 30.92292404810874729 0 0.7771459697322561366 -0.629320380830711068 1 0 0 1 I I 0 1 1 forward I I I I #
face $-1 $157 $158 $42 $-1 $159 reversed single #
loop $-1 $-1 $160 $58 #
plane-surface $-1 70.47992935611310372 -113.3271266339138492 121.1329746340576605 -1 0 0 0 -0.7771459697322561366 0.629320380830711068 forward_v I I I I #
face $-1 $161 $162 $43 $-1 $163 forward single #
loop $-1 $164 $165 $59 #
cone-surface $-1 62.16199967531518666 3.119561800441310595 30.92292404810874729 0 0.7771459697322561366 -0.629320380830711068 1 0 0 1 I I 0 1 1 forward I I I I #
face $-1 $166 $167 $44 $-1 $168 reversed single #
loop $-1 $-1 $169 $60 #
plane-surface $-1 105.9252121287842101 -113.3271266339138492 121.1329746340576605 -1 0 0 0 -0.7771459697322561366 0.629320380830711068 forward_v I I I I #
face $-1 $170 $171 $45 $-1 $172 forward single #
loop $-1 $173 $174 $61 #
cone-surface $-1 97.60728244798630726 3.119561800441310595 30.92292404810874729 0 0.7771459697322561366 -0.629320380830711068 1 0 0 1 I I 0 1 1 forward I I I I #
face $-1 $175 $176 $46 $-1 $177 reversed single #
loop $-1 $-1 $178 $62 #
plane-surface $-1 141.3704949014553165 -113.3271266339138492 121.1329746340576605 -1 0 0 0 -0.7771459697322561366 0.629320380830711068 forward_v I I I I #
face $-1 $179 $180 $47 $-1 $181 forward single #
loop $-1 $182 $183 $63 #
cone-surface $-1 133.0525652206574136 3.119561800441310595 30.92292404810874729 0 0.7771459697322561366 -0.629320380830711068 1 0 0 1 I I 0 1 1 forward I I I I #
face $-1 $184 $185 $32 $-1 $186 reversed single #
loop $-1 $-1 $187 $64 #
plane-surface $-1 72.91238135929441455 49.08874416989197442 0 0 0 1 1 0 0 forward_v I I I I #
coedge $-1 $188 $189 $190 $191 forward $65 $-1 #
face $-1 $192 $193 $33 $-1 $194 reversed single #
loop $-1 $-1 $195 $67 #
plane-surface $-1 13.94451940471265772 49.08874416989197442 1.960399644125075724 -1 0 0 0 0 1 forward_v I I I I #
coedge $-1 $196 $197 $198 $199 forward $68 $-1 #
face $-1 $200 $201 $34 $-1 $202 reversed single #
loop $-1 $-1 $203 $70 #
plane-surface $-1 45.96466847806684086 35.07021625439104895 94.81905723180949508 0 0.7660444514056186094 0.6427875998109057187 1 0 0 forward_v I I I I #
coedge $-1 $204 $205 $206 $207 reversed $71 $-1 #
face $-1 $-1 $208 $35 $-1 $209 forward single #
loop $-1 $210 $211 $73 #
cone-surface $-1 42.15921661936330622 85.74017269833559851 21.68942533847420862 0 -0.7660444514056186094 -0.6427875998109057187 1 0 0 1 I I -0.7071067811865474617 0.7071067811865474617 1 forward I I I I #
loop $-1 $-1 $212 $51 #
coedge $-1 $128 $128 $213 $214 reversed $74 $-1 #
face $-1 $-1 $215 $36 $-1 $216 forward single #
loop $-1 $217 $218 $76 #
cone-surface $-1 49.77012033677038971 85.74017269833559851 21.68942533847420862 0 -0.7660444514056186094 -0.6427875998109057187 1 0 0 1 I I -0.7071067811865474617 0.7071067811865474617 1 forward I I I I #
loop $-1 $-1 $219 $52 #
coedge $-1 $133 $133 $220 $221 reversed $77 $-1 #
face $-1 $222 $223 $37 $-1 $224 reversed single #
loop $-1 $-1 $225 $79 #
plane-surface $-1 111.9047901350049301 35.07021625439104895 94.81905723180949508 0 0.7660444514056186094 0.6427875998109057187 1 0 0 forward_v I I I I #
coedge $-1 $226 $227 $228 $229 reversed $80 $-1 #
face $-1 $-1 $230 $38 $-1 $231 forward single #
loop $-1 $232 $233 $82 #
cone-surface $-1 108.0993382763013955 85.74017269833559851 21.68942533847420862 0 -0.7660444514056186094 -0.6427875998109057187 1 0 0 1 I I -0.7071067811865474617 0.7071067811865474617 1 forward I I I I #
loop $-1 $-1 $234 $54 #
coedge $-1 $142 $142 $235 $236 reversed $83 $-1 #
face $-1 $-1 $237 $39 $-1 $238 forward single #
loop $-1 $239 $240 $85 #
cone-surface $-1 115.710241993708479 85.74017269833559851 21.68942533847420862 0 -0.7660444514056186094 -0.6427875998109057187 1 0 0 1 I I -0.7071067811865474617 0.7071067811865474617 1 forward I I I I #
loop $-1 $-1 $241 $55 #
coedge $-1 $147 $147 $242 $243 reversed $86 $-1 #
face $-1 $244 $245 $40 $-1 $246 reversed single #
loop $-1 $-1 $247 $88 #
plane-surface $-1 26.71671690264407317 7.105427357601001859e-15 29.36247942544725475 0 -0.7771459697322561366 0.629320380830711068 1 0 0 forward_v I I I I #
coedge $-1 $248 $249 $250 $251 reversed $89 $-1 #
face $-1 $-1 $252 $41 $-1 $253 forward single #
loop $-1 $254 $255 $91 #
cone-surface $-1 26.71671690264407317 4.629039832321694803 29.70057287229832355 0 0.7771459697322561366 -0.629320380830711068 0.5 0 0 1 I I -0.7071067811865474617 0.7071067811865474617 0.5 forward I I I I #
loop $-1 $-1 $256 $57 #
coedge $-1 $156 $156 $257 $258 reversed $92 $-1 #
face $-1 $259 $260 $42 $-1 $261 reversed single #
loop $-1 $-1 $262 $94 #
plane-surface $-1 62.16199967531518666 7.105427357601001859e-15 29.36247942544725475 0 -0.7771459697322561366 0.629320380830711068 1 0 0 forward_v I I I I #
coedge $-1 $263 $264 $265 $266 reversed $95 $-1 #
face $-1 $-1 $267 $43 $-1 $268 forward single #
loop $-1 $269 $270 $97 #
cone-surface $-1 62.16199967531518666 4.629039832321694803 29.70057287229832355 0 0.7771459697322561366 -0.629320380830711068 0.5 0 0 1 I I -0.7071067811865474617 0.7071067811865474617 0.5 forward I I I I #
loop $-1 $-1 $271 $59 #
coedge $-1 $165 $165 $272 $273 reversed $98 $-1 #
face $-1 $274 $275 $44 $-1 $276 reversed single #
loop $-1 $-1 $277 $100 #
plane-surface $-1 97.60728244798630726 7.105427357601001859e-15 29.36247942544725475 0 -0.7771459697322561366 0.629320380830711068 1 0 0 forward_v I I I I #
coedge $-1 $278 $279 $280 $281 reversed $101 $-1 #
face $-1 $-1 $282 $45 $-1 $283 forward single #
loop $-1 $284 $285 $103 #
cone-surface $-1 97.60728244798630726 4.629039832321694803 29.70057287229832355 0 0.7771459697322561366 -0.629320380830711068 0.5 0 0 1 I I -0.7071067811865474617 0.7071067811865474617 0.5 forward I I I I #
loop $-1 $-1 $286 $61 #
coedge $-1 $174 $174 $287 $288 reversed $104 $-1 #
face $-1 $289 $290 $46 $-1 $291 reversed single #
loop $-1 $-1 $292 $106 #
plane-surface $-1 133.0525652206574136 7.105427357601001859e-15 29.36247942544725475 0 -0.7771459697322561366 0.629320380830711068 1 0 0 forward_v I I I I #
coedge $-1 $293 $294 $295 $296 reversed $107 $-1 #
face $-1 $-1 $297 $47 $-1 $298 forward single #
loop $-1 $299 $300 $109 #
cone-surface $-1 133.0525652206574136 4.629039832321694803 29.70057287229832355 0 0.7771459697322561366 -0.629320380830711068 0.5 0 0 1 I I -0.7071067811865474617 0.7071067811865474617 0.5 forward I I I I #
loop $-1 $-1 $301 $63 #
coedge $-1 $183 $183 $302 $303 reversed $110 $-1 #
face $-1 $304 $305 $32 $-1 $306 reversed single #
loop $-1 $-1 $307 $112 #
plane-surface $-1 72.91238135929441455 0 17.14937532078018734 0 1 0 0 0 1 forward_v I I I I #
coedge $-1 $308 $309 $310 $311 forward $113 $-1 #
coedge $-1 $312 $115 $313 $314 forward $65 $-1 #
coedge $-1 $115 $312 $315 $316 forward $65 $-1 #
coedge $-1 $317 $318 $115 $191 reversed $319 $-1 #
edge $-1 $320 -49.08874416989197442 $321 49.08874416989197442 $190 $322 forward 7 unknown #
face $-1 $323 $324 $33 $-1 $325 reversed single #
loop $-1 $-1 $326 $116 #
plane-surface $-1 72.91238135929441455 49.08874416989197442 0 0 0 1 1 0 0 forward_v I I I I #
coedge $-1 $327 $198 $328 $329 reversed $117 $-1 #
coedge $-1 $330 $119 $331 $332 reversed $68 $-1 #
coedge $-1 $119 $330 $333 $334 reversed $68 $-1 #
coedge $-1 $195 $335 $119 $199 reversed $117 $-1 #
edge $-1 $336 -49.08874416989197442 $337 49.08874416989197442 $198 $338 forward 7 unknown #
face $-1 $339 $340 $34 $-1 $341 reversed single #
loop $-1 $-1 $342 $120 #
plane-surface $-1 54.84405614837510257 146.778466612506918 188.5534064526860334 -1 0 0 0 0.7660444514056184984 0.6427875998109056077 forward_v I I I I #
coedge $-1 $343 $344 $345 $346 reversed $121 $-1 #
coedge $-1 $205 $123 $347 $348 reversed $71 $-1 #
coedge $-1 $123 $204 $343 $349 reversed $71 $-1 #
coedge $-1 $345 $350 $123 $207 forward $351 $-1 #
edge $-1 $352 -0.2438829485844991041 $353 12.08082352774296453 $206 $354 forward 7 unknown #
loop $-1 $-1 $213 $124 #
plane-surface $-1 45.96466847806684086 35.07021625439104895 94.81905723180949508 0 0.7660444514056186094 0.6427875998109057187 1 0 0 forward_v I I I I #
loop $-1 $-1 $355 $73 #
coedge $-1 $211 $211 $212 $356 reversed $125 $-1 #
coedge $-1 $212 $212 $211 $356 forward $127 $-1 #
coedge $-1 $213 $213 $128 $214 forward $208 $-1 #
edge $-1 $357 3.691487991490254416e-15 $357 6.283185307179589785 $213 $358 forward 7 unknown #
loop $-1 $-1 $220 $129 #
plane-surface $-1 45.96466847806684086 35.07021625439104895 94.81905723180949508 0 0.7660444514056186094 0.6427875998109057187 1 0 0 forward_v I I I I #
loop $-1 $-1 $359 $76 #
coedge $-1 $218 $218 $219 $360 reversed $130 $-1 #
coedge $-1 $219 $219 $218 $360 forward $132 $-1 #
coedge $-1 $220 $220 $133 $221 forward $215 $-1 #
edge $-1 $361 3.691487991490254416e-15 $361 6.283185307179589785 $220 $362 forward 7 unknown #
face $-1 $363 $364 $37 $-1 $365 forward single #
loop $-1 $-1 $366 $134 #
plane-surface $-1 120.7841778053131918 146.778466612506918 188.5534064526860334 -1 0 0 0 0.7660444514056184984 0.6427875998109056077 forward_v I I I I #
coedge $-1 $367 $368 $369 $370 reversed $135 $-1 #
coedge $-1 $227 $137 $371 $372 reversed $80 $-1 #
coedge $-1 $137 $226 $367 $373 reversed $80 $-1 #
coedge $-1 $369 $374 $137 $229 forward $364 $-1 #
edge $-1 $375 -0.2438829485844991041 $376 12.08082352774296453 $228 $377 forward 7 unknown #
loop $-1 $-1 $235 $138 #
plane-surface $-1 111.9047901350049301 35.07021625439104895 94.81905723180949508 0 0.7660444514056186094 0.6427875998109057187 1 0 0 forward_v I I I I #
loop $-1 $-1 $378 $82 #
coedge $-1 $233 $233 $234 $379 reversed $139 $-1 #
coedge $-1 $234 $234 $233 $379 forward $141 $-1 #
coedge $-1 $235 $235 $142 $236 forward $230 $-1 #
edge $-1 $380 3.691487991490254416e-15 $380 6.283185307179589785 $235 $381 forward 7 unknown #
loop $-1 $-1 $242 $143 #
plane-surface $-1 111.9047901350049301 35.07021625439104895 94.81905723180949508 0 0.7660444514056186094 0.6427875998109057187 1 0 0 forward_v I I I I #
loop $-1 $-1 $382 $85 #
coedge $-1 $240 $240 $241 $383 reversed $144 $-1 #
coedge $-1 $241 $241 $240 $383 forward $146 $-1 #
coedge $-1 $242 $242 $147 $243 forward $237 $-1 #
edge $-1 $384 3.691487991490254416e-15 $384 6.283185307179589785 $242 $385 forward 7 unknown #
face $-1 $386 $387 $40 $-1 $388 forward single #
loop $-1 $-1 $389 $148 #
plane-surface $-1 18.39878722184616322 -113.3271266339138492 121.1329746340576605 1 0 0 0 0.7771459697322561366 -0.629320380830711068 forward_v I I I I #
coedge $-1 $390 $391 $392 $393 reversed $149 $-1 #
coedge $-1 $249 $151 $394 $395 reversed $89 $-1 #
coedge $-1 $151 $248 $390 $396 reversed $89 $-1 #
coedge $-1 $392 $397 $151 $251 forward $387 $-1 #
edge $-1 $398 32.11919123201094095 $399 36.11650473886506063 $250 $400 forward 7 unknown #
loop $-1 $-1 $257 $152 #
plane-surface $-1 26.71671690264407317 7.105427357601001859e-15 29.36247942544725475 0 -0.7771459697322561366 0.629320380830711068 1 0 0 forward_v I I I I #
loop $-1 $-1 $401 $91 #
coedge $-1 $255 $255 $256 $402 reversed $153 $-1 #
coedge $-1 $256 $256 $255 $402 forward $155 $-1 #
coedge $-1 $257 $257 $156 $258 forward $252 $-1 #
edge $-1 $403 1.050363983534517955e-15 $403 6.28318530717958712 $257 $404 forward 7 unknown #
face $-1 $405 $406 $42 $-1 $407 reversed single #
loop $-1 $-1 $408 $157 #
plane-surface $-1 53.84406999451727671 -113.3271266339138492 121.1329746340576605 1 0 0 0 0.7771459697322561366 -0.629320380830711068 forward_v I I I I #
coedge $-1 $409 $410 $411 $412 reversed $158 $-1 #
coedge $-1 $264 $160 $413 $414 reversed $95 $-1 #
coedge $-1 $160 $263 $409 $415 reversed $95 $-1 #
coedge $-1 $411 $416 $160 $266 forward $417 $-1 #
edge $-1 $418 32.11919123201094095 $419 36.11650473886506063 $265 $420 forward 7 unknown #
loop $-1 $-1 $272 $161 #
plane-surface $-1 62.16199967531518666 7.105427357601001859e-15 29.36247942544725475 0 -0.7771459697322561366 0.629320380830711068 1 0 0 forward_v I I I I #
loop $-1 $-1 $421 $97 #
coedge $-1 $270 $270 $271 $422 reversed $162 $-1 #
coedge $-1 $271 $271 $270 $422 forward $164 $-1 #
coedge $-1 $272 $272 $165 $273 forward $267 $-1 #
edge $-1 $423 1.050363983534517955e-15 $423 6.28318530717958712 $272 $424 forward 7 unknown #
face $-1 $425 $426 $44 $-1 $427 reversed single #
loop $-1 $-1 $428 $166 #
plane-surface $-1 89.28935276718840441 -113.3271266339138492 121.1329746340576605 1 0 0 0 0.7771459697322561366 -0.629320380830711068 forward_v I I I I #
coedge $-1 $429 $430 $431 $432 reversed $167 $-1 #
coedge $-1 $279 $169 $433 $434 reversed $101 $-1 #
coedge $-1 $169 $278 $429 $435 reversed $101 $-1 #
coedge $-1 $431 $436 $169 $281 forward $437 $-1 #
edge $-1 $438 32.11919123201094095 $439 36.11650473886506063 $280 $440 forward 7 unknown #
loop $-1 $-1 $287 $170 #
plane-surface $-1 97.60728244798630726 7.105427357601001859e-15 29.36247942544725475 0 -0.7771459697322561366 0.629320380830711068 1 0 0 forward_v I I I I #
loop $-1 $-1 $441 $103 #
coedge $-1 $285 $285 $286 $442 reversed $171 $-1 #
coedge $-1 $286 $286 $285 $442 forward $173 $-1 #
coedge $-1 $287 $287 $174 $288 forward $282 $-1 #
edge $-1 $443 1.050363983534517955e-15 $443 6.28318530717958712 $287 $444 forward 7 unknown #
face $-1 $445 $446 $46 $-1 $447 reversed single #
loop $-1 $-1 $448 $175 #
plane-surface $-1 124.7346355398595108 -113.3271266339138492 121.1329746340576605 1 0 0 0 0.7771459697322561366 -0.629320380830711068 forward_v I I I I #
coedge $-1 $449 $450 $451 $452 reversed $176 $-1 #
coedge $-1 $294 $178 $453 $454 reversed $107 $-1 #
coedge $-1 $178 $293 $449 $455 reversed $107 $-1 #
coedge $-1 $451 $456 $178 $296 forward $457 $-1 #
edge $-1 $458 32.11919123201094095 $459 36.11650473886506063 $295 $460 forward 7 unknown #
loop $-1 $-1 $302 $179 #
plane-surface $-1 133.0525652206574136 7.105427357601001859e-15 29.36247942544725475 0 -0.7771459697322561366 0.629320380830711068 1 0 0 forward_v I I I I #
loop $-1 $-1 $461 $109 #
coedge $-1 $300 $300 $301 $462 reversed $180 $-1 #
coedge $-1 $301 $301 $300 $462 forward $182 $-1 #
coedge $-1 $302 $302 $183 $303 forward $297 $-1 #
edge $-1 $463 1.050363983534517955e-15 $463 6.28318530717958712 $302 $464 forward 7 unknown #
face $-1 $465 $466 $32 $-1 $467 reversed single #
loop $-1 $-1 $468 $184 #
plane-surface $-1 0 49.08874416989197442 17.14937532078018734 1 0 0 0 0 -1 forward_v I I I I #
coedge $-1 $469 $315 $470 $471 forward $185 $-1 #
coedge $-1 $472 $187 $469 $473 forward $113 $-1 #
coedge $-1 $187 $472 $474 $475 forward $113 $-1 #
coedge $-1 $318 $317 $187 $311 reversed $319 $-1 #
edge $-1 $476 -49.08874416989197442 $477 49.08874416989197442 $310 $478 forward 7 unknown #
coedge $-1 $189 $188 $479 $480 forward $65 $-1 #
coedge $-1 $481 $482 $188 $314 reversed $466 $-1 #
edge $-1 $321 -72.91238135929441455 $483 72.91238135929441455 $313 $484 forward 7 unknown #
coedge $-1 $307 $485 $189 $316 reversed $185 $-1 #
edge $-1 $486 -72.91238135929441455 $320 72.91238135929441455 $315 $487 forward 7 unknown #
coedge $-1 $310 $190 $485 $488 forward $319 $-1 #
coedge $-1 $190 $310 $481 $489 reversed $319 $-1 #
loop $-1 $-1 $317 $465 #
vertex $-1 $191 $490 #
vertex $-1 $191 $491 #
straight-curve $-1 145.8247627185888291 49.08874416989197442 34.29875064156037467 0 1 0 I I #
face $-1 $492 $493 $33 $-1 $494 reversed single #
loop $-1 $-1 $328 $192 #
plane-surface $-1 72.91238135929441455 0 17.14937532078018734 0 1 0 0 0 1 forward_v I I I I #
coedge $-1 $495 $496 $327 $497 forward $193 $-1 #
coedge $-1 $335 $195 $326 $497 reversed $117 $-1 #
coedge $-1 $333 $498 $195 $329 forward $324 $-1 #
edge $-1 $499 -9.554887482452631531 $336 -5.634088194202480082 $328 $500 forward 7 unknown #
coedge $-1 $197 $196 $501 $502 reversed $68 $-1 #
coedge $-1 $503 $504 $196 $332 forward $505 $-1 #
edge $-1 $506 -39.94232053082536993 $337 -25.99780112611271221 $331 $507 forward 7 unknown #
coedge $-1 $508 $328 $197 $334 forward $324 $-1 #
edge $-1 $336 25.99780112611271221 $509 39.94232053082536993 $333 $510 forward 7 unknown #
coedge $-1 $198 $327 $503 $511 reversed $117 $-1 #
vertex $-1 $334 $512 #
vertex $-1 $332 $513 #
straight-curve $-1 13.94451940471265772 49.08874416989197442 3.920799288250151449 0 1 0 I I #
face $-1 $-1 $351 $34 $-1 $514 forward single #
loop $-1 $-1 $515 $200 #
plane-surface $-1 72.91238135929441455 98.17748833978394885 17.14937532078018734 0 -1 0 0 0 -1 forward_v I I I I #
coedge $-1 $516 $517 $518 $519 reversed $201 $-1 #
coedge $-1 $520 $203 $205 $349 forward $121 $-1 #
coedge $-1 $203 $520 $516 $521 forward $121 $-1 #
coedge $-1 $518 $206 $203 $346 forward $351 $-1 #
edge $-1 $353 -22.35324411092204855 $522 -4.59446877030552514 $345 $523 forward 7 unknown #
coedge $-1 $524 $525 $204 $348 forward $340 $-1 #
edge $-1 $526 -83.24065385055490651 $352 -68.55264024517272503 $347 $527 forward 7 unknown #
edge $-1 $353 79.00364852091826151 $526 98.17748833978397727 $205 $528 forward 7 unknown #
coedge $-1 $206 $518 $524 $529 forward $351 $-1 #
loop $-1 $-1 $518 $339 #
vertex $-1 $348 $530 #
vertex $-1 $207 $531 #
straight-curve $-1 37.08528080775857916 97.93360539119944974 34.29875064156038178 0 -1 0 I I #
coedge $-1 $355 $355 $-1 $532 reversed $210 $-1 #
edge $-1 $533 0 $533 6.283185307179586232 $211 $534 forward 7 unknown #
vertex $-1 $214 $535 #
ellipse-curve $-1 42.15921661936330622 92.01513510162021703 26.95474383886927683 0 0.7660444514056186094 0.6427875998109057187 2 0 0 1 I I #
coedge $-1 $359 $359 $-1 $536 reversed $217 $-1 #
edge $-1 $537 0 $537 6.283185307179586232 $218 $538 forward 7 unknown #
vertex $-1 $221 $539 #
ellipse-curve $-1 49.77012033677038971 92.01513510162021703 26.95474383886927683 0 0.7660444514056186094 0.6427875998109057187 2 0 0 1 I I #
face $-1 $-1 $540 $37 $-1 $541 reversed single #
loop $-1 $-1 $228 $222 #
plane-surface $-1 72.91238135929441455 49.08874416989197442 34.29875064156037467 0 0 1 1 0 0 forward_v I I I I #
coedge $-1 $542 $543 $544 $545 reversed $223 $-1 #
coedge $-1 $546 $225 $227 $373 forward $135 $-1 #
coedge $-1 $225 $546 $542 $547 forward $135 $-1 #
coedge $-1 $544 $228 $225 $370 forward $364 $-1 #
edge $-1 $376 10.61681671754699607 $548 28.37559205816351948 $369 $549 forward 7 unknown #
coedge $-1 $550 $551 $226 $372 forward $540 $-1 #
edge $-1 $552 -83.24065385055490651 $375 -68.55264024517272503 $371 $553 forward 7 unknown #
edge $-1 $376 79.00364852091826151 $552 98.17748833978397727 $227 $554 forward 7 unknown #
coedge $-1 $228 $544 $550 $555 forward $364 $-1 #
vertex $-1 $229 $556 #
vertex $-1 $229 $557 #
straight-curve $-1 103.0254024646966684 97.93360539119944974 34.29875064156038178 0 -1 0 I I #
coedge $-1 $378 $378 $-1 $558 reversed $232 $-1 #
edge $-1 $559 0 $559 6.283185307179586232 $233 $560 forward 7 unknown #
vertex $-1 $236 $561 #
ellipse-curve $-1 108.0993382763013955 92.01513510162021703 26.95474383886927683 0 0.7660444514056186094 0.6427875998109057187 2 0 0 1 I I #
coedge $-1 $382 $382 $-1 $562 reversed $239 $-1 #
edge $-1 $563 0 $563 6.283185307179586232 $240 $564 forward 7 unknown #
vertex $-1 $243 $565 #
ellipse-curve $-1 115.710241993708479 92.01513510162021703 26.95474383886927683 0 0.7660444514056186094 0.6427875998109057187 2 0 0 1 I I #
face $-1 $-1 $566 $40 $-1 $567 reversed single #
loop $-1 $-1 $250 $244 #
plane-surface $-1 72.91238135929441455 49.08874416989197442 34.29875064156037467 0 0 1 1 0 0 forward_v I I I I #
coedge $-1 $568 $569 $570 $571 reversed $245 $-1 #
coedge $-1 $572 $247 $249 $396 forward $149 $-1 #
coedge $-1 $247 $572 $568 $573 forward $149 $-1 #
coedge $-1 $570 $250 $247 $393 forward $387 $-1 #
edge $-1 $399 14.77990254752725718 $574 31.41576190912307709 $392 $575 forward 7 unknown #
coedge $-1 $576 $577 $248 $395 forward $566 $-1 #
edge $-1 $578 -39.77869555197167983 $398 -34.84242433585855281 $394 $579 forward 7 unknown #
edge $-1 $399 -6.35179413954082861 $578 9.993544484835347629e-15 $249 $580 forward 7 unknown #
coedge $-1 $250 $570 $576 $581 forward $387 $-1 #
vertex $-1 $251 $582 #
vertex $-1 $251 $583 #
straight-curve $-1 35.03464658344198313 -32.11919123201094095 34.29875064156037467 0 1 0 I I #
coedge $-1 $401 $401 $-1 $584 reversed $254 $-1 #
edge $-1 $585 0 $585 6.283185307179586232 $255 $586 forward 7 unknown #
vertex $-1 $258 $587 #
ellipse-curve $-1 26.71671690264407317 1.998656753427063393 31.83061503350381116 0 -0.7771459697322561366 0.629320380830711068 1 0 0 1 I I #
face $-1 $-1 $417 $42 $-1 $588 forward single #
loop $-1 $-1 $589 $259 #
plane-surface $-1 72.91238135929441455 0 17.14937532078018734 0 1 0 0 0 1 forward_v I I I I #
coedge $-1 $590 $591 $592 $593 reversed $260 $-1 #
coedge $-1 $594 $262 $264 $415 forward $158 $-1 #
coedge $-1 $262 $594 $590 $595 forward $158 $-1 #
coedge $-1 $592 $265 $262 $412 forward $417 $-1 #
edge $-1 $419 -2.94273883880831022 $596 13.69312052278751679 $411 $597 forward 7 unknown #
coedge $-1 $598 $599 $263 $414 forward $406 $-1 #
edge $-1 $600 -39.77869555197167983 $418 -34.84242433585855281 $413 $601 forward 7 unknown #
edge $-1 $419 -6.35179413954082861 $600 9.993544484835347629e-15 $264 $602 forward 7 unknown #
coedge $-1 $265 $592 $598 $603 forward $417 $-1 #
loop $-1 $-1 $592 $405 #
vertex $-1 $414 $604 #
vertex $-1 $266 $605 #
straight-curve $-1 70.47992935611310372 -32.11919123201094095 34.29875064156037467 0 1 0 I I #
coedge $-1 $421 $421 $-1 $606 reversed $269 $-1 #
edge $-1 $607 0 $607 6.283185307179586232 $270 $608 forward 7 unknown #
vertex $-1 $273 $609 #
ellipse-curve $-1 62.16199967531518666 1.998656753427063393 31.83061503350381116 0 -0.7771459697322561366 0.629320380830711068 1 0 0 1 I I #
face $-1 $-1 $437 $44 $-1 $610 forward single #
loop $-1 $-1 $611 $274 #
plane-surface $-1 72.91238135929441455 0 17.14937532078018734 0 1 0 0 0 1 forward_v I I I I #
coedge $-1 $612 $613 $614 $615 reversed $275 $-1 #
coedge $-1 $616 $277 $279 $435 forward $167 $-1 #
coedge $-1 $277 $616 $612 $617 forward $167 $-1 #
coedge $-1 $614 $280 $277 $432 forward $437 $-1 #
edge $-1 $439 -20.6653802251438492 $618 -4.029520863548043508 $431 $619 forward 7 unknown #
coedge $-1 $620 $621 $278 $434 forward $426 $-1 #
edge $-1 $622 -39.77869555197167983 $438 -34.84242433585855281 $433 $623 forward 7 unknown #
edge $-1 $439 -6.35179413954082861 $622 9.993544484835347629e-15 $279 $624 forward 7 unknown #
coedge $-1 $280 $614 $620 $625 forward $437 $-1 #
loop $-1 $-1 $614 $425 #
vertex $-1 $434 $626 #
vertex $-1 $281 $627 #
straight-curve $-1 105.9252121287842101 -32.11919123201094095 34.29875064156037467 0 1 0 I I #
coedge $-1 $441 $441 $-1 $628 reversed $284 $-1 #
edge $-1 $629 0 $629 6.283185307179586232 $285 $630 forward 7 unknown #
vertex $-1 $288 $631 #
ellipse-curve $-1 97.60728244798630726 1.998656753427063393 31.83061503350381116 0 -0.7771459697322561366 0.629320380830711068 1 0 0 1 I I #
face $-1 $-1 $457 $46 $-1 $632 forward single #
loop $-1 $-1 $633 $289 #
plane-surface $-1 72.91238135929441455 0 17.14937532078018734 0 1 0 0 0 1 forward_v I I I I #
coedge $-1 $634 $635 $636 $637 reversed $290 $-1 #
coedge $-1 $638 $292 $294 $455 forward $176 $-1 #
coedge $-1 $292 $638 $634 $639 forward $176 $-1 #
coedge $-1 $636 $295 $292 $452 forward $457 $-1 #
edge $-1 $459 -38.3880216114794024 $640 -21.7521622498835967 $451 $641 forward 7 unknown #
coedge $-1 $642 $643 $293 $454 forward $446 $-1 #
edge $-1 $644 -39.77869555197167983 $458 -34.84242433585855281 $453 $645 forward 7 unknown #
edge $-1 $459 -6.35179413954082861 $644 9.993544484835347629e-15 $294 $646 forward 7 unknown #
coedge $-1 $295 $636 $642 $647 forward $457 $-1 #
loop $-1 $-1 $636 $445 #
vertex $-1 $454 $648 #
vertex $-1 $296 $649 #
straight-curve $-1 141.3704949014553165 -32.11919123201094095 34.29875064156037467 0 1 0 I I #
coedge $-1 $461 $461 $-1 $650 reversed $299 $-1 #
edge $-1 $651 0 $651 6.283185307179586232 $300 $652 forward 7 unknown #
vertex $-1 $303 $653 #
ellipse-curve $-1 133.0525652206574136 1.998656753427063393 31.83061503350381116 0 -0.7771459697322561366 0.629320380830711068 1 0 0 1 I I #
face $-1 $-1 $319 $32 $-1 $654 reversed single #
loop $-1 $-1 $481 $304 #
plane-surface $-1 72.91238135929441455 98.17748833978394885 17.14937532078018734 0 -1 0 0 0 -1 forward_v I I I I #
coedge $-1 $655 $479 $482 $656 forward $305 $-1 #
coedge $-1 $485 $307 $308 $473 reversed $185 $-1 #
coedge $-1 $479 $655 $307 $471 reversed $305 $-1 #
edge $-1 $486 -17.14937532078018734 $657 17.14937532078018734 $470 $658 forward 7 unknown #
coedge $-1 $309 $308 $655 $659 forward $113 $-1 #
edge $-1 $477 -72.91238135929441455 $657 72.91238135929441455 $469 $660 forward 7 unknown #
coedge $-1 $482 $481 $309 $475 reversed $466 $-1 #
edge $-1 $661 -72.91238135929441455 $476 72.91238135929441455 $474 $662 forward 7 unknown #
vertex $-1 $311 $663 #
vertex $-1 $488 $664 #
straight-curve $-1 145.8247627185888291 49.08874416989197442 0 0 -1 0 I I #
coedge $-1 $468 $470 $312 $480 reversed $305 $-1 #
edge $-1 $483 -49.08874416989197442 $486 49.08874416989197442 $479 $665 forward 7 unknown #
coedge $-1 $474 $313 $318 $489 forward $466 $-1 #
coedge $-1 $313 $474 $468 $656 reversed $466 $-1 #
vertex $-1 $314 $666 #
straight-curve $-1 72.91238135929441455 98.17748833978394885 34.29875064156037467 -1 0 0 I I #
coedge $-1 $315 $469 $317 $488 reversed $185 $-1 #
vertex $-1 $480 $667 #
straight-curve $-1 72.91238135929441455 0 34.29875064156037467 1 0 0 I I #
edge $-1 $320 -17.14937532078018734 $477 17.14937532078018734 $317 $668 forward 7 unknown #
edge $-1 $321 -17.14937532078018734 $476 17.14937532078018734 $318 $669 forward 7 unknown #
point $-1 145.8247627185888291 0 34.29875064156037467 #
point $-1 145.8247627185888291 98.17748833978394885 34.29875064156037467 #
face $-1 $-1 $505 $33 $-1 $670 reversed single #
loop $-1 $-1 $501 $323 #
plane-surface $-1 0 49.08874416989197442 17.14937532078018734 1 0 0 0 0 -1 forward_v I I I I #
coedge $-1 $671 $326 $498 $672 forward $193 $-1 #
coedge $-1 $326 $671 $673 $674 forward $193 $-1 #
edge $-1 $675 -49.08874416989197442 $499 49.08874416989197442 $326 $676 forward 7 unknown #
coedge $-1 $328 $508 $495 $672 reversed $324 $-1 #
vertex $-1 $672 $677 #
straight-curve $-1 13.94451940471265772 0 9.554887482452631531 0 0 1 I I #
coedge $-1 $678 $679 $330 $502 forward $493 $-1 #
edge $-1 $509 -49.08874416989197442 $506 49.08874416989197442 $501 $680 forward 7 unknown #
coedge $-1 $673 $331 $335 $511 forward $505 $-1 #
coedge $-1 $331 $673 $678 $681 reversed $505 $-1 #
loop $-1 $-1 $503 $492 #
vertex $-1 $681 $682 #
straight-curve $-1 39.94232053082536993 98.17748833978394885 3.920799288250151449 1 0 0 I I #
coedge $-1 $498 $333 $679 $683 forward $324 $-1 #
vertex $-1 $683 $684 #
straight-curve $-1 39.94232053082536993 0 3.920799288250151449 -1 0 0 I I #
edge $-1 $337 5.634088194202480082 $675 9.554887482452631531 $503 $685 forward 7 unknown #
point $-1 13.94451940471265772 0 3.920799288250151449 #
point $-1 13.94451940471265772 98.17748833978394885 3.920799288250151449 #
plane-surface $-1 72.91238135929441455 49.08874416989197442 34.29875064156037467 0 0 1 1 0 0 forward_v I I I I #
coedge $-1 $525 $524 $517 $686 forward $340 $-1 #
coedge $-1 $517 $342 $344 $521 reversed $201 $-1 #
coedge $-1 $342 $516 $515 $686 reversed $201 $-1 #
coedge $-1 $350 $345 $342 $519 forward $351 $-1 #
edge $-1 $522 -12.08082352774296453 $687 0.2438829485844991041 $518 $688 forward 7 unknown #
coedge $-1 $344 $343 $525 $689 reversed $121 $-1 #
edge $-1 $690 -98.17748833978397727 $522 -79.00364852091826151 $516 $691 forward 7 unknown #
vertex $-1 $346 $692 #
straight-curve $-1 59.43852491868062771 85.85278186345648521 34.29875064156036757 1 0 0 I I #
coedge $-1 $515 $347 $350 $529 reversed $340 $-1 #
coedge $-1 $347 $515 $520 $689 forward $340 $-1 #
vertex $-1 $348 $693 #
straight-curve $-1 37.08528080775857916 98.17748833978394885 102.8513908867330997 0 0 1 I I #
straight-curve $-1 37.08528080775857916 35.07021625439104895 94.81905723180949508 0 0.6427875998109056077 -0.7660444514056184984 I I #
edge $-1 $687 18.06832521091931198 $352 35.82710055153583539 $524 $694 forward 7 unknown #
point $-1 37.08528080775857916 98.17748833978394885 34.29875064156037467 #
point $-1 37.08528080775857916 85.85278186345648521 34.29875064156038178 #
edge $-1 $695 1 $695 0 $355 $-1 forward 7 unknown #
vertex $-1 $356 $696 #
ellipse-curve $-1 42.15921661936330622 86.50621714974121801 22.33221293828511378 0 0.7660444514056186094 0.6427875998109057187 2 0 0 1 I I #
point $-1 44.15921661936330622 92.01513510162024545 26.95474383886929104 #
edge $-1 $697 1 $697 0 $359 $-1 forward 7 unknown #
vertex $-1 $360 $698 #
ellipse-curve $-1 49.77012033677038971 86.50621714974121801 22.33221293828511378 0 0.7660444514056186094 0.6427875998109057187 2 0 0 1 I I #
point $-1 51.77012033677038971 92.01513510162024545 26.95474383886929104 #
loop $-1 $-1 $371 $363 #
plane-surface $-1 72.91238135929441455 98.17748833978394885 17.14937532078018734 0 -1 0 0 0 -1 forward_v I I I I #
coedge $-1 $543 $366 $368 $547 reversed $223 $-1 #
coedge $-1 $366 $542 $699 $700 reversed $223 $-1 #
coedge $-1 $374 $369 $366 $545 forward $364 $-1 #
edge $-1 $548 -12.08082352774296453 $701 0.2438829485844991041 $544 $702 forward 7 unknown #
coedge $-1 $368 $367 $551 $703 reversed $135 $-1 #
edge $-1 $704 -98.17748833978397727 $548 -79.00364852091826151 $542 $705 forward 7 unknown #
vertex $-1 $370 $706 #
straight-curve $-1 92.40858574714967233 85.85278186345648521 34.29875064156036757 1 0 0 I I #
coedge $-1 $699 $371 $374 $555 reversed $540 $-1 #
coedge $-1 $371 $699 $546 $703 forward $540 $-1 #
vertex $-1 $372 $707 #
straight-curve $-1 103.0254024646966684 98.17748833978394885 102.8513908867330997 0 0 1 I I #
straight-curve $-1 103.0254024646966684 35.07021625439104895 94.81905723180949508 0 0.6427875998109056077 -0.7660444514056184984 I I #
edge $-1 $701 -47.87179644601877726 $375 -30.11302110540225385 $550 $708 forward 7 unknown #
point $-1 103.0254024646966684 98.17748833978394885 34.29875064156037467 #
point $-1 103.0254024646966684 85.85278186345648521 34.29875064156038178 #
edge $-1 $709 1 $709 0 $378 $-1 forward 7 unknown #
vertex $-1 $379 $710 #
ellipse-curve $-1 108.0993382763013955 86.50621714974121801 22.33221293828511378 0 0.7660444514056186094 0.6427875998109057187 2 0 0 1 I I #
point $-1 110.0993382763013955 92.01513510162024545 26.95474383886929104 #
edge $-1 $711 1 $711 0 $382 $-1 forward 7 unknown #
vertex $-1 $383 $712 #
ellipse-curve $-1 115.710241993708479 86.50621714974121801 22.33221293828511378 0 0.7660444514056186094 0.6427875998109057187 2 0 0 1 I I #
point $-1 117.710241993708479 92.01513510162024545 26.95474383886929104 #
loop $-1 $-1 $394 $386 #
plane-surface $-1 72.91238135929441455 0 17.14937532078018734 0 1 0 0 0 1 forward_v I I I I #
coedge $-1 $569 $389 $391 $573 reversed $245 $-1 #
coedge $-1 $389 $568 $713 $714 reversed $245 $-1 #
coedge $-1 $397 $392 $389 $571 forward $387 $-1 #
edge $-1 $574 -36.11650473886506063 $715 -32.11919123201094095 $570 $716 forward 7 unknown #
coedge $-1 $391 $390 $577 $717 reversed $149 $-1 #
edge $-1 $718 -9.993544484835347629e-15 $574 6.35179413954082861 $568 $719 forward 7 unknown #
vertex $-1 $393 $720 #
straight-curve $-1 49.81454913096924031 3.99731350685411968 34.29875064156037467 -1 0 0 I I #
coedge $-1 $713 $394 $397 $581 reversed $566 $-1 #
coedge $-1 $394 $713 $572 $717 forward $566 $-1 #
vertex $-1 $395 $721 #
straight-curve $-1 35.03464658344198313 0 69.14117497741892748 0 0 1 I I #
straight-curve $-1 35.03464658344198313 7.105427357601001859e-15 29.36247942544725475 0 -0.629320380830711068 -0.7771459697322561366 I I #
edge $-1 $715 -54.51359413744825133 $398 -37.87773477585243143 $576 $722 forward 7 unknown #
point $-1 35.03464658344198313 0 34.29875064156037467 #
point $-1 35.03464658344198313 3.99731350685411968 34.29875064156037467 #
edge $-1 $723 1 $723 0 $401 $-1 forward 7 unknown #
vertex $-1 $402 $724 #
ellipse-curve $-1 26.71671690264407317 4.240466847455564903 30.01523306271367986 0 -0.7771459697322561366 0.629320380830711068 1 0 0 1 I I #
point $-1 27.71671690264407317 1.998656753427056287 31.83061503350381827 #
plane-surface $-1 72.91238135929441455 49.08874416989197442 34.29875064156037467 0 0 1 1 0 0 forward_v I I I I #
coedge $-1 $599 $598 $591 $725 forward $406 $-1 #
coedge $-1 $591 $408 $410 $595 reversed $260 $-1 #
coedge $-1 $408 $590 $589 $725 reversed $260 $-1 #
coedge $-1 $416 $411 $408 $593 forward $417 $-1 #
edge $-1 $596 -36.11650473886506063 $726 -32.11919123201094095 $592 $727 forward 7 unknown #
coedge $-1 $410 $409 $599 $728 reversed $158 $-1 #
edge $-1 $729 -9.993544484835347629e-15 $596 6.35179413954082861 $590 $730 forward 7 unknown #
vertex $-1 $412 $731 #
straight-curve $-1 67.5371905173047935 3.99731350685411968 34.29875064156037467 -1 0 0 I I #
coedge $-1 $589 $413 $416 $603 reversed $406 $-1 #
coedge $-1 $413 $589 $594 $728 forward $406 $-1 #
vertex $-1 $414 $732 #
straight-curve $-1 70.47992935611310372 0 69.14117497741892748 0 0 1 I I #
straight-curve $-1 70.47992935611310372 7.105427357601001859e-15 29.36247942544725475 0 -0.629320380830711068 -0.7771459697322561366 I I #
edge $-1 $726 -19.06831136477713784 $418 -2.432452003181310829 $598 $733 forward 7 unknown #
point $-1 70.47992935611310372 0 34.29875064156037467 #
point $-1 70.47992935611310372 3.99731350685411968 34.29875064156037467 #
edge $-1 $734 1 $734 0 $421 $-1 forward 7 unknown #
vertex $-1 $422 $735 #
ellipse-curve $-1 62.16199967531518666 4.240466847455564903 30.01523306271367986 0 -0.7771459697322561366 0.629320380830711068 1 0 0 1 I I #
point $-1 63.16199967531518666 1.998656753427056287 31.83061503350381827 #
plane-surface $-1 72.91238135929441455 49.08874416989197442 34.29875064156037467 0 0 1 1 0 0 forward_v I I I I #
coedge $-1 $621 $620 $613 $736 forward $426 $-1 #
coedge $-1 $613 $428 $430 $617 reversed $275 $-1 #
coedge $-1 $428 $612 $611 $736 reversed $275 $-1 #
coedge $-1 $436 $431 $428 $615 forward $437 $-1 #
edge $-1 $618 -36.11650473886506063 $737 -32.11919123201094095 $614 $738 forward 7 unknown #
coedge $-1 $430 $429 $621 $739 reversed $167 $-1 #
edge $-1 $740 -9.993544484835347629e-15 $618 6.35179413954082861 $612 $741 forward 7 unknown #
vertex $-1 $432 $742 #
straight-curve $-1 85.25983190364036091 3.99731350685411968 34.29875064156037467 -1 0 0 I I #
coedge $-1 $611 $433 $436 $625 reversed $426 $-1 #
coedge $-1 $433 $611 $616 $739 forward $426 $-1 #
vertex $-1 $434 $743 #
straight-curve $-1 105.9252121287842101 0 69.14117497741892748 0 0 1 I I #
straight-curve $-1 105.9252121287842101 7.105427357601001859e-15 29.36247942544725475 0 -0.629320380830711068 -0.7771459697322561366 I I #
edge $-1 $737 16.37697140789398986 $438 33.01283076948979556 $620 $744 forward 7 unknown #
point $-1 105.9252121287842101 0 34.29875064156037467 #
point $-1 105.9252121287842101 3.99731350685411968 34.29875064156037467 #
edge $-1 $745 1 $745 0 $441 $-1 forward 7 unknown #
vertex $-1 $442 $746 #
ellipse-curve $-1 97.60728244798630726 4.240466847455564903 30.01523306271367986 0 -0.7771459697322561366 0.629320380830711068 1 0 0 1 I I #
point $-1 98.60728244798630726 1.998656753427056287 31.83061503350381827 #
plane-surface $-1 72.91238135929441455 49.08874416989197442 34.29875064156037467 0 0 1 1 0 0 forward_v I I I I #
coedge $-1 $643 $642 $635 $747 forward $446 $-1 #
coedge $-1 $635 $448 $450 $639 reversed $290 $-1 #
coedge $-1 $448 $634 $633 $747 reversed $290 $-1 #
coedge $-1 $456 $451 $448 $637 forward $457 $-1 #
edge $-1 $640 -36.11650473886506063 $748 -32.11919123201094095 $636 $749 forward 7 unknown #
coedge $-1 $450 $449 $643 $750 reversed $176 $-1 #
edge $-1 $751 -9.993544484835347629e-15 $640 6.35179413954082861 $634 $752 forward 7 unknown #
vertex $-1 $452 $753 #
straight-curve $-1 102.9824732899759141 3.99731350685411968 34.29875064156037467 -1 0 0 I I #
coedge $-1 $633 $453 $456 $647 reversed $446 $-1 #
coedge $-1 $453 $633 $638 $750 forward $446 $-1 #
vertex $-1 $454 $754 #
straight-curve $-1 141.3704949014553165 0 69.14117497741892748 0 0 1 I I #
straight-curve $-1 141.3704949014553165 7.105427357601001859e-15 29.36247942544725475 0 -0.629320380830711068 -0.7771459697322561366 I I #
edge $-1 $748 51.82225418056509625 $458 68.45811354216090194 $642 $755 forward 7 unknown #
point $-1 141.3704949014553165 0 34.29875064156037467 #
point $-1 141.3704949014553165 3.99731350685411968 34.29875064156037467 #
edge $-1 $756 1 $756 0 $461 $-1 forward 7 unknown #
vertex $-1 $462 $757 #
ellipse-curve $-1 133.0525652206574136 4.240466847455564903 30.01523306271367986 0 -0.7771459697322561366 0.629320380830711068 1 0 0 1 I I #
point $-1 134.0525652206574136 1.998656753427056287 31.83061503350381827 #
plane-surface $-1 145.8247627185888291 49.08874416989197442 17.14937532078018734 -1 0 0 0 0 1 forward_v I I I I #
coedge $-1 $470 $468 $472 $659 reversed $305 $-1 #
edge $-1 $483 -17.14937532078018734 $661 17.14937532078018734 $482 $758 forward 7 unknown #
vertex $-1 $659 $759 #
straight-curve $-1 0 0 17.14937532078018734 0 0 -1 I I #
edge $-1 $657 -49.08874416989197442 $661 49.08874416989197442 $655 $760 forward 7 unknown #
straight-curve $-1 72.91238135929441455 0 0 -1 0 0 I I #
vertex $-1 $475 $761 #
straight-curve $-1 72.91238135929441455 98.17748833978394885 0 1 0 0 I I #
point $-1 145.8247627185888291 98.17748833978394885 0 #
point $-1 145.8247627185888291 0 0 #
straight-curve $-1 0 49.08874416989197442 34.29875064156037467 0 -1 0 I I #
point $-1 0 98.17748833978394885 34.29875064156037467 #
point $-1 0 0 34.29875064156037467 #
straight-curve $-1 145.8247627185888291 0 17.14937532078018734 0 0 -1 I I #
straight-curve $-1 145.8247627185888291 98.17748833978394885 17.14937532078018734 0 0 -1 I I #
plane-surface $-1 72.91238135929441455 98.17748833978394885 17.14937532078018734 0 -1 0 0 0 -1 forward_v I I I I #
coedge $-1 $496 $495 $762 $763 forward $193 $-1 #
edge $-1 $499 58.96786195458175683 $764 72.91238135929441455 $498 $765 forward 7 unknown #
coedge $-1 $504 $503 $496 $674 reversed $505 $-1 #
edge $-1 $766 -72.91238135929441455 $675 -58.96786195458175683 $673 $767 forward 7 unknown #
vertex $-1 $511 $768 #
straight-curve $-1 13.94451940471265772 49.08874416989197442 0 0 -1 0 I I #
point $-1 13.94451940471265772 0 0 #
coedge $-1 $762 $501 $504 $681 forward $493 $-1 #
coedge $-1 $501 $762 $508 $683 reversed $493 $-1 #
straight-curve $-1 0 49.08874416989197442 3.920799288250151449 0 1 0 I I #
edge $-1 $506 13.22857603253003589 $766 17.14937532078018734 $504 $769 forward 7 unknown #
point $-1 0 98.17748833978394885 3.920799288250151449 #
edge $-1 $509 13.22857603253003589 $764 17.14937532078018734 $679 $770 forward 7 unknown #
point $-1 0 0 3.920799288250151449 #
straight-curve $-1 13.94451940471265772 98.17748833978394885 9.554887482452631531 0 0 -1 I I #
edge $-1 $687 68.55264024517272503 $690 83.24065385055490651 $515 $771 forward 7 unknown #
vertex $-1 $529 $772 #
straight-curve $-1 54.84405614837510257 97.93360539119944974 34.29875064156038178 0 1 0 I I #
edge $-1 $690 4.59446877030552514 $526 22.35324411092204855 $525 $773 forward 7 unknown #
vertex $-1 $689 $774 #
straight-curve $-1 54.84405614837510257 35.07021625439104895 94.81905723180949508 0 -0.6427875998109056077 0.7660444514056184984 I I #
point $-1 54.84405614837510257 85.85278186345648521 34.29875064156038178 #
point $-1 37.08528080775857916 98.17748833978394885 19.61073703617818609 #
straight-curve $-1 72.91238135929441455 98.17748833978394885 34.29875064156037467 -1 0 0 I I #
vertex $-1 $532 $775 #
point $-1 44.15921661936330622 86.50621714974121801 22.33221293828511378 #
vertex $-1 $536 $776 #
point $-1 51.77012033677038971 86.50621714974121801 22.33221293828511378 #
coedge $-1 $551 $550 $543 $700 forward $540 $-1 #
edge $-1 $701 68.55264024517272503 $704 83.24065385055490651 $699 $777 forward 7 unknown #
vertex $-1 $555 $778 #
straight-curve $-1 120.7841778053131918 97.93360539119944974 34.29875064156038178 0 1 0 I I #
edge $-1 $704 -28.37559205816351948 $552 -10.61681671754699607 $551 $779 forward 7 unknown #
vertex $-1 $703 $780 #
straight-curve $-1 120.7841778053131918 35.07021625439104895 94.81905723180949508 0 -0.6427875998109056077 0.7660444514056184984 I I #
point $-1 120.7841778053131918 85.85278186345648521 34.29875064156038178 #
point $-1 103.0254024646966684 98.17748833978394885 19.61073703617818609 #
straight-curve $-1 72.91238135929441455 98.17748833978394885 34.29875064156037467 -1 0 0 I I #
vertex $-1 $558 $781 #
point $-1 110.0993382763013955 86.50621714974121801 22.33221293828511378 #
vertex $-1 $562 $782 #
point $-1 117.710241993708479 86.50621714974121801 22.33221293828511378 #
coedge $-1 $577 $576 $569 $714 forward $566 $-1 #
edge $-1 $715 34.84242433585855281 $718 39.77869555197167983 $713 $783 forward 7 unknown #
vertex $-1 $581 $784 #
straight-curve $-1 18.39878722184616322 -32.11919123201094095 34.29875064156037467 0 -1 0 I I #
edge $-1 $718 -31.41576190912307709 $578 -14.77990254752725718 $577 $785 forward 7 unknown #
vertex $-1 $717 $786 #
straight-curve $-1 18.39878722184616322 7.105427357601001859e-15 29.36247942544725475 0 0.629320380830711068 0.7771459697322561366 I I #
point $-1 18.39878722184616322 3.99731350685411968 34.29875064156037467 #
point $-1 35.03464658344198313 0 29.36247942544724765 #
straight-curve $-1 72.91238135929441455 0 34.29875064156037467 1 0 0 I I #
vertex $-1 $584 $787 #
point $-1 27.71671690264407317 4.240466847455564903 30.01523306271367986 #
edge $-1 $726 34.84242433585855281 $729 39.77869555197167983 $589 $788 forward 7 unknown #
vertex $-1 $603 $789 #
straight-curve $-1 53.84406999451727671 -32.11919123201094095 34.29875064156037467 0 -1 0 I I #
edge $-1 $729 -13.69312052278751679 $600 2.94273883880831022 $599 $790 forward 7 unknown #
vertex $-1 $728 $791 #
straight-curve $-1 53.84406999451727671 7.105427357601001859e-15 29.36247942544725475 0 0.629320380830711068 0.7771459697322561366 I I #
point $-1 53.84406999451727671 3.99731350685411968 34.29875064156037467 #
point $-1 70.47992935611310372 0 29.36247942544724765 #
straight-curve $-1 72.91238135929441455 0 34.29875064156037467 1 0 0 I I #
vertex $-1 $606 $792 #
point $-1 63.16199967531518666 4.240466847455564903 30.01523306271367986 #
edge $-1 $737 34.84242433585855281 $740 39.77869555197167983 $611 $793 forward 7 unknown #
vertex $-1 $625 $794 #
straight-curve $-1 89.28935276718840441 -32.11919123201094095 34.29875064156037467 0 -1 0 I I #
edge $-1 $740 4.029520863548043508 $622 20.6653802251438492 $621 $795 forward 7 unknown #
vertex $-1 $739 $796 #
straight-curve $-1 89.28935276718840441 7.105427357601001859e-15 29.36247942544725475 0 0.629320380830711068 0.7771459697322561366 I I #
point $-1 89.28935276718840441 3.99731350685411968 34.29875064156037467 #
point $-1 105.9252121287842101 0 29.36247942544724765 #
straight-curve $-1 72.91238135929441455 0 34.29875064156037467 1 0 0 I I #
vertex $-1 $628 $797 #
point $-1 98.60728244798630726 4.240466847455564903 30.01523306271367986 #
edge $-1 $748 34.84242433585855281 $751 39.77869555197167983 $633 $798 forward 7 unknown #
vertex $-1 $647 $799 #
straight-curve $-1 124.7346355398595108 -32.11919123201094095 34.29875064156037467 0 -1 0 I I #
edge $-1 $751 21.7521622498835967 $644 38.3880216114794024 $643 $800 forward 7 unknown #
vertex $-1 $750 $801 #
straight-curve $-1 124.7346355398595108 7.105427357601001859e-15 29.36247942544725475 0 0.629320380830711068 0.7771459697322561366 I I #
point $-1 124.7346355398595108 3.99731350685411968 34.29875064156037467 #
point $-1 141.3704949014553165 0 29.36247942544724765 #
straight-curve $-1 72.91238135929441455 0 34.29875064156037467 1 0 0 I I #
vertex $-1 $650 $802 #
point $-1 134.0525652206574136 4.240466847455564903 30.01523306271367986 #
straight-curve $-1 0 98.17748833978394885 17.14937532078018734 0 0 -1 I I #
point $-1 0 0 0 #
straight-curve $-1 0 49.08874416989197442 0 0 1 0 I I #
point $-1 0 98.17748833978394885 0 #
coedge $-1 $679 $678 $671 $763 reversed $493 $-1 #
edge $-1 $764 -49.08874416989197442 $766 49.08874416989197442 $762 $803 forward 7 unknown #
vertex $-1 $763 $804 #
straight-curve $-1 72.91238135929441455 0 0 -1 0 0 I I #
vertex $-1 $674 $805 #
straight-curve $-1 72.91238135929441455 98.17748833978394885 0 1 0 0 I I #
point $-1 13.94451940471265772 98.17748833978394885 0 #
straight-curve $-1 0 98.17748833978394885 17.14937532078018734 0 0 -1 I I #
straight-curve $-1 0 0 17.14937532078018734 0 0 -1 I I #
straight-curve $-1 54.84405614837510257 98.17748833978394885 102.8513908867330997 0 0 -1 I I #
point $-1 54.84405614837510257 98.17748833978394885 34.29875064156037467 #
straight-curve $-1 59.43852491868062771 98.17748833978393463 19.61073703617817898 -1 0 0 I I #
point $-1 54.84405614837510257 98.17748833978394885 19.61073703617818609 #
point $-1 42.15921661936330622 84.97412824692997901 21.04663773866330345 #
point $-1 49.77012033677038971 84.97412824692997901 21.04663773866330345 #
straight-curve $-1 120.7841778053131918 98.17748833978394885 102.8513908867330997 0 0 -1 I I #
point $-1 120.7841778053131918 98.17748833978394885 34.29875064156037467 #
straight-curve $-1 92.40858574714967233 98.17748833978393463 19.61073703617817898 -1 0 0 I I #
point $-1 120.7841778053131918 98.17748833978394885 19.61073703617818609 #
point $-1 108.0993382763013955 84.97412824692997901 21.04663773866330345 #
point $-1 115.710241993708479 84.97412824692997901 21.04663773866330345 #
straight-curve $-1 18.39878722184616322 0 69.14117497741892748 0 0 -1 I I #
point $-1 18.39878722184616322 0 34.29875064156037467 #
straight-curve $-1 49.81454913096924031 0 29.36247942544724054 1 0 0 I I #
point $-1 18.39878722184616322 0 29.36247942544724765 #
point $-1 26.71671690264407317 5.017612817187824703 29.38591268188296723 #
straight-curve $-1 53.84406999451727671 0 69.14117497741892748 0 0 -1 I I #
point $-1 53.84406999451727671 0 34.29875064156037467 #
straight-curve $-1 67.5371905173047935 0 29.36247942544724054 1 0 0 I I #
point $-1 53.84406999451727671 0 29.36247942544724765 #
point $-1 62.16199967531518666 5.017612817187824703 29.38591268188296723 #
straight-curve $-1 89.28935276718840441 0 69.14117497741892748 0 0 -1 I I #
point $-1 89.28935276718840441 0 34.29875064156037467 #
straight-curve $-1 85.25983190364036091 0 29.36247942544724054 1 0 0 I I #
point $-1 89.28935276718840441 0 29.36247942544724765 #
point $-1 97.60728244798630726 5.017612817187824703 29.38591268188296723 #
straight-curve $-1 124.7346355398595108 0 69.14117497741892748 0 0 -1 I I #
point $-1 124.7346355398595108 0 34.29875064156037467 #
straight-curve $-1 102.9824732899759141 0 29.36247942544724054 1 0 0 I I #
point $-1 124.7346355398595108 0 29.36247942544724765 #
point $-1 133.0525652206574136 5.017612817187824703 29.38591268188296723 #
straight-curve $-1 0 49.08874416989197442 0 0 1 0 I I #
point $-1 0 0 0 #
point $-1 0 98.17748833978394885 0 #
End-of-ACIS-data 