300 0 16 0           
7 Unknown 11 ACIS 3.0 NT 24 Fri Oct 30 17:51:34 1998 
-1 9.9999999999999995e-007 1e-010 
body $16 $17 $-1 $18 #
body $19 $20 $-1 $21 #
body $22 $23 $-1 $24 #
body $25 $26 $-1 $27 #
body $28 $29 $-1 $30 #
body $31 $32 $-1 $33 #
body $34 $35 $-1 $36 #
body $37 $38 $-1 $39 #
body $40 $41 $-1 $42 #
body $43 $44 $-1 $45 #
body $46 $47 $-1 $48 #
body $49 $50 $-1 $51 #
body $52 $53 $-1 $54 #
body $55 $56 $-1 $57 #
body $58 $59 $-1 $60 #
body $61 $62 $-1 $63 #
display_attribute-st-attrib $-1 $64 $-1 $0 1 #
lump $-1 $-1 $65 $0 #
transform $-1 1 0 0 0 1 0 0 0 1 72.912381359294415 49.088744169891974 17.149375320780187 1 rotate no_reflect no_shear #
display_attribute-st-attrib $-1 $66 $-1 $1 1 #
lump $-1 $-1 $67 $1 #
transform $-1 1 0 0 0 1 0 0 0 1 6.9722597023563306 49.088744169891974 1.9603996441250755 1 rotate no_reflect no_shear #
display_attribute-st-attrib $-1 $68 $-1 $2 1 #
lump $-1 $-1 $69 $2 #
transform $-1 1 0 0 0 0.64278759981090561 -0.7660444514056185 0 0.7660444514056185 0.64278759981090561 45.964668478066841 146.77846661250692 188.55340645268603 1 rotate no_reflect no_shear #
display_attribute-st-attrib $-1 $70 $-1 $3 1 #
lump $-1 $-1 $71 $3 #
transform $-1 1 0 0 0 -0.64278759981090561 0.7660444514056185 0 -0.7660444514056185 -0.64278759981090561 42.159216619363306 85.740172698335599 21.689425338474209 1 rotate no_reflect no_shear #
display_attribute-st-attrib $-1 $72 $-1 $4 1 #
lump $-1 $-1 $73 $4 #
transform $-1 1 0 0 0 -0.64278759981090561 0.7660444514056185 0 -0.7660444514056185 -0.64278759981090561 49.77012033677039 85.740172698335599 21.689425338474209 1 rotate no_reflect no_shear #
display_attribute-st-attrib $-1 $74 $-1 $5 1 #
lump $-1 $-1 $75 $5 #
transform $-1 1 0 0 0 0.64278759981090561 -0.7660444514056185 0 0.7660444514056185 0.64278759981090561 111.90479013500493 146.77846661250692 188.55340645268603 1 rotate no_reflect no_shear #
display_attribute-st-attrib $-1 $76 $-1 $6 1 #
lump $-1 $-1 $77 $6 #
transform $-1 1 0 0 0 -0.64278759981090561 0.7660444514056185 0 -0.7660444514056185 -0.64278759981090561 108.0993382763014 85.740172698335599 21.689425338474209 1 rotate no_reflect no_shear #
display_attribute-st-attrib $-1 $78 $-1 $7 1 #
lump $-1 $-1 $79 $7 #
transform $-1 1 0 0 0 -0.64278759981090561 0.7660444514056185 0 -0.7660444514056185 -0.64278759981090561 115.71024199370848 85.740172698335599 21.689425338474209 1 rotate no_reflect no_shear #
display_attribute-st-attrib $-1 $80 $-1 $8 1 #
lump $-1 $-1 $81 $8 #
transform $-1 1 0 0 0 0.62932038083071107 0.77714596973225614 0 -0.77714596973225614 0.62932038083071107 26.716716902644073 -113.32712663391385 121.13297463405765 1 rotate no_reflect no_shear #
display_attribute-st-attrib $-1 $82 $-1 $9 1 #
lump $-1 $-1 $83 $9 #
transform $-1 1 0 0 0 -0.62932038083071107 -0.77714596973225614 0 0.77714596973225614 -0.62932038083071107 26.716716902644073 4.6290398323216948 29.700572872298324 1 rotate no_reflect no_shear #
display_attribute-st-attrib $-1 $84 $-1 $10 1 #
lump $-1 $-1 $85 $10 #
transform $-1 1 0 0 0 0.62932038083071107 0.77714596973225614 0 -0.77714596973225614 0.62932038083071107 62.161999675315187 -113.32712663391385 121.13297463405765 1 rotate no_reflect no_shear #
display_attribute-st-attrib $-1 $86 $-1 $11 1 #
lump $-1 $-1 $87 $11 #
transform $-1 1 0 0 0 -0.62932038083071107 -0.77714596973225614 0 0.77714596973225614 -0.62932038083071107 62.161999675315187 4.6290398323216948 29.700572872298324 1 rotate no_reflect no_shear #
display_attribute-st-attrib $-1 $88 $-1 $12 1 #
lump $-1 $-1 $89 $12 #
transform $-1 1 0 0 0 0.62932038083071107 0.77714596973225614 0 -0.77714596973225614 0.62932038083071107 97.607282447986307 -113.32712663391385 121.13297463405765 1 rotate no_reflect no_shear #
display_attribute-st-attrib $-1 $90 $-1 $13 1 #
lump $-1 $-1 $91 $13 #
transform $-1 1 0 0 0 -0.62932038083071107 -0.77714596973225614 0 0.77714596973225614 -0.62932038083071107 97.607282447986307 4.6290398323216948 29.700572872298324 1 rotate no_reflect no_shear #
display_attribute-st-attrib $-1 $92 $-1 $14 1 #
lump $-1 $-1 $93 $14 #
transform $-1 1 0 0 0 0.62932038083071107 0.77714596973225614 0 -0.77714596973225614 0.62932038083071107 133.05256522065741 -113.32712663391385 121.13297463405765 1 rotate no_reflect no_shear #
display_attribute-st-attrib $-1 $94 $-1 $15 1 #
lump $-1 $-1 $95 $15 #
transform $-1 1 0 0 0 -0.62932038083071107 -0.77714596973225614 0 0.77714596973225614 -0.62932038083071107 133.05256522065741 4.6290398323216948 29.700572872298324 1 rotate no_reflect no_shear #
id_attribute-st-attrib $-1 $-1 $16 $0 719 #
shell $-1 $-1 $-1 $96 $-1 $17 #
id_attribute-st-attrib $-1 $-1 $19 $1 724 #
shell $-1 $-1 $-1 $97 $-1 $20 #
id_attribute-st-attrib $-1 $-1 $22 $2 739 #
shell $-1 $-1 $-1 $98 $-1 $23 #
id_attribute-st-attrib $-1 $-1 $25 $3 747 #
shell $-1 $-1 $-1 $99 $-1 $26 #
id_attribute-st-attrib $-1 $-1 $28 $4 756 #
shell $-1 $-1 $-1 $100 $-1 $29 #
id_attribute-st-attrib $-1 $-1 $31 $5 766 #
shell $-1 $-1 $-1 $101 $-1 $32 #
id_attribute-st-attrib $-1 $-1 $34 $6 777 #
shell $-1 $-1 $-1 $102 $-1 $35 #
id_attribute-st-attrib $-1 $-1 $37 $7 789 #
shell $-1 $-1 $-1 $103 $-1 $38 #
id_attribute-st-attrib $-1 $-1 $40 $8 807 #
shell $-1 $-1 $-1 $104 $-1 $41 #
id_attribute-st-attrib $-1 $-1 $43 $9 821 #
shell $-1 $-1 $-1 $105 $-1 $44 #
id_attribute-st-attrib $-1 $-1 $46 $10 838 #
shell $-1 $-1 $-1 $106 $-1 $47 #
id_attribute-st-attrib $-1 $-1 $49 $11 854 #
shell $-1 $-1 $-1 $107 $-1 $50 #
id_attribute-st-attrib $-1 $-1 $52 $12 873 #
shell $-1 $-1 $-1 $108 $-1 $53 #
id_attribute-st-attrib $-1 $-1 $55 $13 891 #
shell $-1 $-1 $-1 $109 $-1 $56 #
id_attribute-st-attrib $-1 $-1 $58 $14 910 #
shell $-1 $-1 $-1 $110 $-1 $59 #
id_attribute-st-attrib $-1 $-1 $61 $15 930 #
shell $-1 $-1 $-1 $111 $-1 $62 #
face $-1 $112 $113 $65 $-1 $114 forward single #
face $-1 $115 $116 $67 $-1 $117 forward single #
face $-1 $118 $119 $69 $-1 $120 forward single #
face $-1 $121 $122 $71 $-1 $123 forward single #
face $-1 $124 $125 $73 $-1 $126 forward single #
face $-1 $127 $128 $75 $-1 $129 forward single #
face $-1 $130 $131 $77 $-1 $132 forward single #
face $-1 $133 $134 $79 $-1 $135 forward single #
face $-1 $136 $137 $81 $-1 $138 forward single #
face $-1 $139 $140 $83 $-1 $141 forward single #
face $-1 $142 $143 $85 $-1 $144 forward single #
face $-1 $145 $146 $87 $-1 $147 forward single #
face $-1 $148 $149 $89 $-1 $150 forward single #
face $-1 $151 $152 $91 $-1 $153 forward single #
face $-1 $154 $155 $93 $-1 $156 forward single #
face $-1 $157 $158 $95 $-1 $159 forward single #
face $-1 $160 $161 $65 $-1 $162 reversed single #
loop $-1 $-1 $163 $96 #
plane-surface $-1 0 0 17.149375320780187 0 0 1 1 0 0 forward_v I I I I #
face $-1 $164 $165 $67 $-1 $166 reversed single #
loop $-1 $-1 $167 $97 #
plane-surface $-1 0 0 1.9603996441250755 0 0 1 1 0 0 forward_v I I I I #
face $-1 $168 $169 $69 $-1 $170 reversed single #
loop $-1 $-1 $171 $98 #
plane-surface $-1 0 0 145.82476271858883 0 0 1 1 0 0 forward_v I I I I #
face $-1 $172 $173 $71 $-1 $174 forward single #
loop $-1 $175 $176 $99 #
cone-surface $-1 0 0 -4.5956907864619883 0 0 1 2 0 0 1 I I 0 1 forward I I I I #
face $-1 $177 $178 $73 $-1 $179 forward single #
loop $-1 $180 $181 $100 #
cone-surface $-1 0 0 -4.5956907864619883 0 0 1 2 0 0 1 I I 0 1 forward I I I I #
face $-1 $182 $183 $75 $-1 $184 reversed single #
loop $-1 $-1 $185 $101 #
plane-surface $-1 0 0 145.82476271858883 0 0 1 1 0 0 forward_v I I I I #
face $-1 $186 $187 $77 $-1 $188 forward single #
loop $-1 $189 $190 $102 #
cone-surface $-1 0 0 -4.5956907864619883 0 0 1 2 0 0 1 I I 0 1 forward I I I I #
face $-1 $191 $192 $79 $-1 $193 forward single #
loop $-1 $194 $195 $103 #
cone-surface $-1 0 0 -4.5956907864619883 0 0 1 2 0 0 1 I I 0 1 forward I I I I #
face $-1 $196 $197 $81 $-1 $198 reversed single #
loop $-1 $-1 $199 $104 #
plane-surface $-1 0 0 145.82476271858883 0 0 1 1 0 0 forward_v I I I I #
face $-1 $200 $201 $83 $-1 $202 forward single #
loop $-1 $203 $204 $105 #
cone-surface $-1 0 0 -1.9423352763451014 0 0 1 1 0 0 1 I I 0 1 forward I I I I #
face $-1 $205 $206 $85 $-1 $207 reversed single #
loop $-1 $-1 $208 $106 #
plane-surface $-1 0 0 145.82476271858883 0 0 1 1 0 0 forward_v I I I I #
face $-1 $209 $210 $87 $-1 $211 forward single #
loop $-1 $212 $213 $107 #
cone-surface $-1 0 0 -1.9423352763451014 0 0 1 1 0 0 1 I I 0 1 forward I I I I #
face $-1 $214 $215 $89 $-1 $216 reversed single #
loop $-1 $-1 $217 $108 #
plane-surface $-1 0 0 145.82476271858883 0 0 1 1 0 0 forward_v I I I I #
face $-1 $218 $219 $91 $-1 $220 forward single #
loop $-1 $221 $222 $109 #
cone-surface $-1 0 0 -1.9423352763451014 0 0 1 1 0 0 1 I I 0 1 forward I I I I #
face $-1 $223 $224 $93 $-1 $225 reversed single #
loop $-1 $-1 $226 $110 #
plane-surface $-1 0 0 145.82476271858883 0 0 1 1 0 0 forward_v I I I I #
face $-1 $227 $228 $95 $-1 $229 forward single #
loop $-1 $230 $231 $111 #
cone-surface $-1 0 0 -1.9423352763451014 0 0 1 1 0 0 1 I I 0 1 forward I I I I #
face $-1 $232 $233 $65 $-1 $234 reversed single #
loop $-1 $-1 $235 $112 #
plane-surface $-1 0 0 -17.149375320780187 0 0 1 1 0 0 forward_v I I I I #
coedge $-1 $236 $237 $238 $239 forward $113 $-1 #
face $-1 $240 $241 $67 $-1 $242 reversed single #
loop $-1 $-1 $243 $115 #
plane-surface $-1 0 0 -1.9603996441250755 0 0 1 1 0 0 forward_v I I I I #
coedge $-1 $244 $245 $246 $247 forward $116 $-1 #
face $-1 $248 $249 $69 $-1 $250 reversed single #
loop $-1 $-1 $251 $118 #
plane-surface $-1 0 0 -145.82476271858883 0 0 1 1 0 0 forward_v I I I I #
coedge $-1 $252 $253 $254 $255 forward $119 $-1 #
face $-1 $-1 $256 $71 $-1 $257 forward single #
loop $-1 $-1 $258 $121 #
plane-surface $-1 0 0 -8.1913815729239765 0 0 -1 -1 0 0 forward_v I I I I #
loop $-1 $-1 $259 $99 #
coedge $-1 $176 $176 $258 $260 reversed $122 $-1 #
face $-1 $-1 $261 $73 $-1 $262 forward single #
loop $-1 $-1 $263 $124 #
plane-surface $-1 0 0 -8.1913815729239765 0 0 -1 -1 0 0 forward_v I I I I #
loop $-1 $-1 $264 $100 #
coedge $-1 $181 $181 $263 $265 reversed $125 $-1 #
face $-1 $266 $267 $75 $-1 $268 reversed single #
loop $-1 $-1 $269 $127 #
plane-surface $-1 0 0 -145.82476271858883 0 0 1 1 0 0 forward_v I I I I #
coedge $-1 $270 $271 $272 $273 forward $128 $-1 #
face $-1 $-1 $274 $77 $-1 $275 forward single #
loop $-1 $-1 $276 $130 #
plane-surface $-1 0 0 -8.1913815729239765 0 0 -1 -1 0 0 forward_v I I I I #
loop $-1 $-1 $277 $102 #
coedge $-1 $190 $190 $276 $278 reversed $131 $-1 #
face $-1 $-1 $279 $79 $-1 $280 forward single #
loop $-1 $-1 $281 $133 #
plane-surface $-1 0 0 -8.1913815729239765 0 0 -1 -1 0 0 forward_v I I I I #
loop $-1 $-1 $282 $103 #
coedge $-1 $195 $195 $281 $283 reversed $134 $-1 #
face $-1 $284 $285 $81 $-1 $286 reversed single #
loop $-1 $-1 $287 $136 #
plane-surface $-1 0 0 -145.82476271858883 0 0 1 1 0 0 forward_v I I I I #
coedge $-1 $288 $289 $290 $291 forward $137 $-1 #
face $-1 $-1 $292 $83 $-1 $293 forward single #
loop $-1 $-1 $294 $139 #
plane-surface $-1 0 0 -3.3846705526902046 0 0 -1 -1 0 0 forward_v I I I I #
loop $-1 $-1 $295 $105 #
coedge $-1 $204 $204 $294 $296 reversed $140 $-1 #
face $-1 $297 $298 $85 $-1 $299 reversed single #
loop $-1 $-1 $300 $142 #
plane-surface $-1 0 0 -145.82476271858883 0 0 1 1 0 0 forward_v I I I I #
coedge $-1 $301 $302 $303 $304 forward $143 $-1 #
face $-1 $-1 $305 $87 $-1 $306 forward single #
loop $-1 $-1 $307 $145 #
plane-surface $-1 0 0 -3.3846705526902046 0 0 -1 -1 0 0 forward_v I I I I #
loop $-1 $-1 $308 $107 #
coedge $-1 $213 $213 $307 $309 reversed $146 $-1 #
face $-1 $310 $311 $89 $-1 $312 reversed single #
loop $-1 $-1 $313 $148 #
plane-surface $-1 0 0 -145.82476271858883 0 0 1 1 0 0 forward_v I I I I #
coedge $-1 $314 $315 $316 $317 forward $149 $-1 #
face $-1 $-1 $318 $91 $-1 $319 forward single #
loop $-1 $-1 $320 $151 #
plane-surface $-1 0 0 -3.3846705526902046 0 0 -1 -1 0 0 forward_v I I I I #
loop $-1 $-1 $321 $109 #
coedge $-1 $222 $222 $320 $322 reversed $152 $-1 #
face $-1 $323 $324 $93 $-1 $325 reversed single #
loop $-1 $-1 $326 $154 #
plane-surface $-1 0 0 -145.82476271858883 0 0 1 1 0 0 forward_v I I I I #
coedge $-1 $327 $328 $329 $330 forward $155 $-1 #
face $-1 $-1 $331 $95 $-1 $332 forward single #
loop $-1 $-1 $333 $157 #
plane-surface $-1 0 0 -3.3846705526902046 0 0 -1 -1 0 0 forward_v I I I I #
loop $-1 $-1 $334 $111 #
coedge $-1 $231 $231 $333 $335 reversed $158 $-1 #
face $-1 $336 $337 $65 $-1 $338 reversed single #
loop $-1 $-1 $339 $160 #
plane-surface $-1 0 -49.088744169891974 0 0 1 0 0 0 1 forward_v I I I I #
coedge $-1 $340 $341 $342 $343 forward $161 $-1 #
coedge $-1 $344 $163 $345 $346 forward $113 $-1 #
coedge $-1 $163 $344 $347 $348 forward $113 $-1 #
coedge $-1 $349 $350 $163 $239 reversed $351 $-1 #
edge $-1 $352 $353 $238 $354 forward #
face $-1 $355 $356 $67 $-1 $357 reversed single #
loop $-1 $-1 $358 $164 #
plane-surface $-1 0 -49.088744169891974 0 0 1 0 0 0 1 forward_v I I I I #
coedge $-1 $359 $360 $361 $362 forward $165 $-1 #
coedge $-1 $363 $167 $364 $365 forward $116 $-1 #
coedge $-1 $167 $363 $366 $367 forward $116 $-1 #
coedge $-1 $368 $369 $167 $247 reversed $370 $-1 #
edge $-1 $371 $372 $246 $373 forward #
face $-1 $374 $375 $69 $-1 $376 reversed single #
loop $-1 $-1 $377 $168 #
plane-surface $-1 0 -291.64952543717766 0 0 1 0 0 0 1 forward_v I I I I #
coedge $-1 $378 $379 $380 $381 forward $169 $-1 #
coedge $-1 $382 $171 $383 $384 forward $119 $-1 #
coedge $-1 $171 $382 $385 $386 forward $119 $-1 #
coedge $-1 $387 $388 $171 $255 reversed $389 $-1 #
edge $-1 $390 $391 $254 $392 forward #
loop $-1 $393 $394 $172 #
cone-surface $-1 0 0 0 0 0 1 1 0 0 1 I I -0.70710678118654746 0.70710678118654746 forward I I I I #
coedge $-1 $258 $258 $176 $260 forward $173 $-1 #
coedge $-1 $259 $259 $394 $395 forward $175 $-1 #
edge $-1 $396 $396 $258 $397 forward #
loop $-1 $398 $399 $177 #
cone-surface $-1 0 0 0 0 0 1 1 0 0 1 I I -0.70710678118654746 0.70710678118654746 forward I I I I #
coedge $-1 $263 $263 $181 $265 forward $178 $-1 #
coedge $-1 $264 $264 $399 $400 forward $180 $-1 #
edge $-1 $401 $401 $263 $402 forward #
face $-1 $403 $404 $75 $-1 $405 reversed single #
loop $-1 $-1 $406 $182 #
plane-surface $-1 0 -291.64952543717766 0 0 1 0 0 0 1 forward_v I I I I #
coedge $-1 $407 $408 $409 $410 forward $183 $-1 #
coedge $-1 $411 $185 $412 $413 forward $128 $-1 #
coedge $-1 $185 $411 $414 $415 forward $128 $-1 #
coedge $-1 $416 $417 $185 $273 reversed $418 $-1 #
edge $-1 $419 $420 $272 $421 forward #
loop $-1 $422 $423 $186 #
cone-surface $-1 0 0 0 0 0 1 1 0 0 1 I I -0.70710678118654746 0.70710678118654746 forward I I I I #
coedge $-1 $276 $276 $190 $278 forward $187 $-1 #
coedge $-1 $277 $277 $423 $424 forward $189 $-1 #
edge $-1 $425 $425 $276 $426 forward #
loop $-1 $427 $428 $191 #
cone-surface $-1 0 0 0 0 0 1 1 0 0 1 I I -0.70710678118654746 0.70710678118654746 forward I I I I #
coedge $-1 $281 $281 $195 $283 forward $192 $-1 #
coedge $-1 $282 $282 $428 $429 forward $194 $-1 #
edge $-1 $430 $430 $281 $431 forward #
face $-1 $432 $433 $81 $-1 $434 reversed single #
loop $-1 $-1 $435 $196 #
plane-surface $-1 0 -291.64952543717766 0 0 1 0 0 0 1 forward_v I I I I #
coedge $-1 $436 $437 $438 $439 forward $197 $-1 #
coedge $-1 $440 $199 $441 $442 forward $137 $-1 #
coedge $-1 $199 $440 $443 $444 forward $137 $-1 #
coedge $-1 $445 $446 $199 $291 reversed $447 $-1 #
edge $-1 $448 $449 $290 $450 forward #
loop $-1 $451 $452 $200 #
cone-surface $-1 0 0 0 0 0 1 0.5 0 0 1 I I -0.70710678118654746 0.70710678118654746 forward I I I I #
coedge $-1 $294 $294 $204 $296 forward $201 $-1 #
coedge $-1 $295 $295 $452 $453 forward $203 $-1 #
edge $-1 $454 $454 $294 $455 forward #
face $-1 $456 $457 $85 $-1 $458 reversed single #
loop $-1 $-1 $459 $205 #
plane-surface $-1 0 -291.64952543717766 0 0 1 0 0 0 1 forward_v I I I I #
coedge $-1 $460 $461 $462 $463 forward $206 $-1 #
coedge $-1 $464 $208 $465 $466 forward $143 $-1 #
coedge $-1 $208 $464 $467 $468 forward $143 $-1 #
coedge $-1 $469 $470 $208 $304 reversed $471 $-1 #
edge $-1 $472 $473 $303 $474 forward #
loop $-1 $475 $476 $209 #
cone-surface $-1 0 0 0 0 0 1 0.5 0 0 1 I I -0.70710678118654746 0.70710678118654746 forward I I I I #
coedge $-1 $307 $307 $213 $309 forward $210 $-1 #
coedge $-1 $308 $308 $476 $477 forward $212 $-1 #
edge $-1 $478 $478 $307 $479 forward #
face $-1 $480 $481 $89 $-1 $482 reversed single #
loop $-1 $-1 $483 $214 #
plane-surface $-1 0 -291.64952543717766 0 0 1 0 0 0 1 forward_v I I I I #
coedge $-1 $484 $485 $486 $487 forward $215 $-1 #
coedge $-1 $488 $217 $489 $490 forward $149 $-1 #
coedge $-1 $217 $488 $491 $492 forward $149 $-1 #
coedge $-1 $493 $494 $217 $317 reversed $495 $-1 #
edge $-1 $496 $497 $316 $498 forward #
loop $-1 $499 $500 $218 #
cone-surface $-1 0 0 0 0 0 1 0.5 0 0 1 I I -0.70710678118654746 0.70710678118654746 forward I I I I #
coedge $-1 $320 $320 $222 $322 forward $219 $-1 #
coedge $-1 $321 $321 $500 $501 forward $221 $-1 #
edge $-1 $502 $502 $320 $503 forward #
face $-1 $504 $505 $93 $-1 $506 reversed single #
loop $-1 $-1 $507 $223 #
plane-surface $-1 0 -291.64952543717766 0 0 1 0 0 0 1 forward_v I I I I #
coedge $-1 $508 $509 $510 $511 forward $224 $-1 #
coedge $-1 $512 $226 $513 $514 forward $155 $-1 #
coedge $-1 $226 $512 $515 $516 forward $155 $-1 #
coedge $-1 $517 $518 $226 $330 reversed $519 $-1 #
edge $-1 $520 $521 $329 $522 forward #
loop $-1 $523 $524 $227 #
cone-surface $-1 0 0 0 0 0 1 0.5 0 0 1 I I -0.70710678118654746 0.70710678118654746 forward I I I I #
coedge $-1 $333 $333 $231 $335 forward $228 $-1 #
coedge $-1 $334 $334 $524 $525 forward $230 $-1 #
edge $-1 $526 $526 $333 $527 forward #
face $-1 $528 $529 $65 $-1 $530 reversed single #
loop $-1 $-1 $531 $232 #
plane-surface $-1 -72.912381359294415 0 0 1 0 0 0 0 -1 forward_v I I I I #
coedge $-1 $532 $347 $533 $534 forward $233 $-1 #
coedge $-1 $535 $235 $532 $536 forward $161 $-1 #
coedge $-1 $235 $535 $537 $538 forward $161 $-1 #
coedge $-1 $350 $349 $235 $343 reversed $351 $-1 #
edge $-1 $539 $540 $342 $541 forward #
coedge $-1 $237 $236 $542 $543 forward $113 $-1 #
coedge $-1 $544 $545 $236 $346 reversed $529 $-1 #
edge $-1 $353 $546 $345 $547 forward #
coedge $-1 $339 $548 $237 $348 reversed $233 $-1 #
edge $-1 $549 $352 $347 $550 forward #
coedge $-1 $342 $238 $548 $551 forward $351 $-1 #
coedge $-1 $238 $342 $544 $552 reversed $351 $-1 #
loop $-1 $-1 $349 $528 #
vertex $-1 $239 $553 #
vertex $-1 $239 $554 #
straight-curve $-1 72.912381359294415 0 17.149375320780187 0 1 0 I I #
face $-1 $555 $556 $67 $-1 $557 reversed single #
loop $-1 $-1 $558 $240 #
plane-surface $-1 -6.9722597023563306 0 0 1 0 0 0 0 -1 forward_v I I I I #
coedge $-1 $559 $366 $560 $561 forward $241 $-1 #
coedge $-1 $562 $243 $559 $563 forward $165 $-1 #
coedge $-1 $243 $562 $564 $565 forward $165 $-1 #
coedge $-1 $369 $368 $243 $362 reversed $370 $-1 #
edge $-1 $566 $567 $361 $568 forward #
coedge $-1 $245 $244 $569 $570 forward $116 $-1 #
coedge $-1 $571 $572 $244 $365 reversed $556 $-1 #
edge $-1 $372 $573 $364 $574 forward #
coedge $-1 $358 $575 $245 $367 reversed $241 $-1 #
edge $-1 $576 $371 $366 $577 forward #
coedge $-1 $361 $246 $575 $578 forward $370 $-1 #
coedge $-1 $246 $361 $571 $579 reversed $370 $-1 #
loop $-1 $-1 $368 $555 #
vertex $-1 $247 $580 #
vertex $-1 $247 $581 #
straight-curve $-1 6.9722597023563306 0 1.9603996441250755 0 1 0 I I #
face $-1 $582 $583 $69 $-1 $584 reversed single #
loop $-1 $-1 $585 $248 #
plane-surface $-1 -8.8793876703082582 0 0 1 0 0 0 0 -1 forward_v I I I I #
coedge $-1 $586 $385 $587 $588 forward $249 $-1 #
coedge $-1 $589 $251 $586 $590 forward $169 $-1 #
coedge $-1 $251 $589 $591 $592 forward $169 $-1 #
coedge $-1 $388 $387 $251 $381 reversed $389 $-1 #
edge $-1 $593 $594 $380 $595 forward #
coedge $-1 $253 $252 $596 $597 forward $119 $-1 #
coedge $-1 $598 $599 $252 $384 reversed $583 $-1 #
edge $-1 $391 $600 $383 $601 forward #
coedge $-1 $377 $602 $253 $386 reversed $249 $-1 #
edge $-1 $603 $390 $385 $604 forward #
coedge $-1 $380 $254 $602 $605 forward $389 $-1 #
coedge $-1 $254 $380 $598 $606 reversed $389 $-1 #
loop $-1 $-1 $387 $582 #
vertex $-1 $255 $607 #
vertex $-1 $255 $608 #
straight-curve $-1 8.8793876703082582 0 145.82476271858883 0 1 0 I I #
loop $-1 $-1 $609 $172 #
coedge $-1 $394 $394 $259 $395 reversed $256 $-1 #
edge $-1 $610 $610 $394 $611 forward #
vertex $-1 $260 $612 #
ellipse-curve $-1 0 0 -8.1913815729239765 0 0 -1 2 0 0 1 I I #
loop $-1 $-1 $613 $177 #
coedge $-1 $399 $399 $264 $400 reversed $261 $-1 #
edge $-1 $614 $614 $399 $615 forward #
vertex $-1 $265 $616 #
ellipse-curve $-1 0 0 -8.1913815729239765 0 0 -1 2 0 0 1 I I #
face $-1 $617 $618 $75 $-1 $619 reversed single #
loop $-1 $-1 $620 $266 #
plane-surface $-1 -8.8793876703082582 0 0 1 0 0 0 0 -1 forward_v I I I I #
coedge $-1 $621 $414 $622 $623 forward $267 $-1 #
coedge $-1 $624 $269 $621 $625 forward $183 $-1 #
coedge $-1 $269 $624 $626 $627 forward $183 $-1 #
coedge $-1 $417 $416 $269 $410 reversed $418 $-1 #
edge $-1 $628 $629 $409 $630 forward #
coedge $-1 $271 $270 $631 $632 forward $128 $-1 #
coedge $-1 $633 $634 $270 $413 reversed $618 $-1 #
edge $-1 $420 $635 $412 $636 forward #
coedge $-1 $406 $637 $271 $415 reversed $267 $-1 #
edge $-1 $638 $419 $414 $639 forward #
coedge $-1 $409 $272 $637 $640 forward $418 $-1 #
coedge $-1 $272 $409 $633 $641 reversed $418 $-1 #
loop $-1 $-1 $416 $617 #
vertex $-1 $273 $642 #
vertex $-1 $273 $643 #
straight-curve $-1 8.8793876703082582 0 145.82476271858883 0 1 0 I I #
loop $-1 $-1 $644 $186 #
coedge $-1 $423 $423 $277 $424 reversed $274 $-1 #
edge $-1 $645 $645 $423 $646 forward #
vertex $-1 $278 $647 #
ellipse-curve $-1 0 0 -8.1913815729239765 0 0 -1 2 0 0 1 I I #
loop $-1 $-1 $648 $191 #
coedge $-1 $428 $428 $282 $429 reversed $279 $-1 #
edge $-1 $649 $649 $428 $650 forward #
vertex $-1 $283 $651 #
ellipse-curve $-1 0 0 -8.1913815729239765 0 0 -1 2 0 0 1 I I #
face $-1 $652 $653 $81 $-1 $654 reversed single #
loop $-1 $-1 $655 $284 #
plane-surface $-1 -8.31792968079791 0 0 1 0 0 0 0 -1 forward_v I I I I #
coedge $-1 $656 $443 $657 $658 forward $285 $-1 #
coedge $-1 $659 $287 $656 $660 forward $197 $-1 #
coedge $-1 $287 $659 $661 $662 forward $197 $-1 #
coedge $-1 $446 $445 $287 $439 reversed $447 $-1 #
edge $-1 $663 $664 $438 $665 forward #
coedge $-1 $289 $288 $666 $667 forward $137 $-1 #
coedge $-1 $668 $669 $288 $442 reversed $653 $-1 #
edge $-1 $449 $670 $441 $671 forward #
coedge $-1 $435 $672 $289 $444 reversed $285 $-1 #
edge $-1 $673 $448 $443 $674 forward #
coedge $-1 $438 $290 $672 $675 forward $447 $-1 #
coedge $-1 $290 $438 $668 $676 reversed $447 $-1 #
loop $-1 $-1 $445 $652 #
vertex $-1 $291 $677 #
vertex $-1 $291 $678 #
straight-curve $-1 8.31792968079791 0 145.82476271858883 0 1 0 I I #
loop $-1 $-1 $679 $200 #
coedge $-1 $452 $452 $295 $453 reversed $292 $-1 #
edge $-1 $680 $680 $452 $681 forward #
vertex $-1 $296 $682 #
ellipse-curve $-1 0 0 -3.3846705526902046 0 0 -1 1 0 0 1 I I #
face $-1 $683 $684 $85 $-1 $685 reversed single #
loop $-1 $-1 $686 $297 #
plane-surface $-1 -8.31792968079791 0 0 1 0 0 0 0 -1 forward_v I I I I #
coedge $-1 $687 $467 $688 $689 forward $298 $-1 #
coedge $-1 $690 $300 $687 $691 forward $206 $-1 #
coedge $-1 $300 $690 $692 $693 forward $206 $-1 #
coedge $-1 $470 $469 $300 $463 reversed $471 $-1 #
edge $-1 $694 $695 $462 $696 forward #
coedge $-1 $302 $301 $697 $698 forward $143 $-1 #
coedge $-1 $699 $700 $301 $466 reversed $684 $-1 #
edge $-1 $473 $701 $465 $702 forward #
coedge $-1 $459 $703 $302 $468 reversed $298 $-1 #
edge $-1 $704 $472 $467 $705 forward #
coedge $-1 $462 $303 $703 $706 forward $471 $-1 #
coedge $-1 $303 $462 $699 $707 reversed $471 $-1 #
loop $-1 $-1 $469 $683 #
vertex $-1 $304 $708 #
vertex $-1 $304 $709 #
straight-curve $-1 8.31792968079791 0 145.82476271858883 0 1 0 I I #
loop $-1 $-1 $710 $209 #
coedge $-1 $476 $476 $308 $477 reversed $305 $-1 #
edge $-1 $711 $711 $476 $712 forward #
vertex $-1 $309 $713 #
ellipse-curve $-1 0 0 -3.3846705526902046 0 0 -1 1 0 0 1 I I #
face $-1 $714 $715 $89 $-1 $716 reversed single #
loop $-1 $-1 $717 $310 #
plane-surface $-1 -8.31792968079791 0 0 1 0 0 0 0 -1 forward_v I I I I #
coedge $-1 $718 $491 $719 $720 forward $311 $-1 #
coedge $-1 $721 $313 $718 $722 forward $215 $-1 #
coedge $-1 $313 $721 $723 $724 forward $215 $-1 #
coedge $-1 $494 $493 $313 $487 reversed $495 $-1 #
edge $-1 $725 $726 $486 $727 forward #
coedge $-1 $315 $314 $728 $729 forward $149 $-1 #
coedge $-1 $730 $731 $314 $490 reversed $715 $-1 #
edge $-1 $497 $732 $489 $733 forward #
coedge $-1 $483 $734 $315 $492 reversed $311 $-1 #
edge $-1 $735 $496 $491 $736 forward #
coedge $-1 $486 $316 $734 $737 forward $495 $-1 #
coedge $-1 $316 $486 $730 $738 reversed $495 $-1 #
loop $-1 $-1 $493 $714 #
vertex $-1 $317 $739 #
vertex $-1 $317 $740 #
straight-curve $-1 8.31792968079791 0 145.82476271858883 0 1 0 I I #
loop $-1 $-1 $741 $218 #
coedge $-1 $500 $500 $321 $501 reversed $318 $-1 #
edge $-1 $742 $742 $500 $743 forward #
vertex $-1 $322 $744 #
ellipse-curve $-1 0 0 -3.3846705526902046 0 0 -1 1 0 0 1 I I #
face $-1 $745 $746 $93 $-1 $747 reversed single #
loop $-1 $-1 $748 $323 #
plane-surface $-1 -8.31792968079791 0 0 1 0 0 0 0 -1 forward_v I I I I #
coedge $-1 $749 $515 $750 $751 forward $324 $-1 #
coedge $-1 $752 $326 $749 $753 forward $224 $-1 #
coedge $-1 $326 $752 $754 $755 forward $224 $-1 #
coedge $-1 $518 $517 $326 $511 reversed $519 $-1 #
edge $-1 $756 $757 $510 $758 forward #
coedge $-1 $328 $327 $759 $760 forward $155 $-1 #
coedge $-1 $761 $762 $327 $514 reversed $746 $-1 #
edge $-1 $521 $763 $513 $764 forward #
coedge $-1 $507 $765 $328 $516 reversed $324 $-1 #
edge $-1 $766 $520 $515 $767 forward #
coedge $-1 $510 $329 $765 $768 forward $519 $-1 #
coedge $-1 $329 $510 $761 $769 reversed $519 $-1 #
loop $-1 $-1 $517 $745 #
vertex $-1 $330 $770 #
vertex $-1 $330 $771 #
straight-curve $-1 8.31792968079791 0 145.82476271858883 0 1 0 I I #
loop $-1 $-1 $772 $227 #
coedge $-1 $524 $524 $334 $525 reversed $331 $-1 #
edge $-1 $773 $773 $524 $774 forward #
vertex $-1 $335 $775 #
ellipse-curve $-1 0 0 -3.3846705526902046 0 0 -1 1 0 0 1 I I #
face $-1 $-1 $351 $65 $-1 $776 reversed single #
loop $-1 $-1 $544 $336 #
plane-surface $-1 0 49.088744169891974 0 0 -1 0 0 0 -1 forward_v I I I I #
coedge $-1 $777 $542 $545 $778 forward $337 $-1 #
coedge $-1 $548 $339 $340 $536 reversed $233 $-1 #
coedge $-1 $542 $777 $339 $534 reversed $337 $-1 #
edge $-1 $549 $779 $533 $780 forward #
coedge $-1 $341 $340 $777 $781 forward $161 $-1 #
edge $-1 $540 $779 $532 $782 forward #
coedge $-1 $545 $544 $341 $538 reversed $529 $-1 #
edge $-1 $783 $539 $537 $784 forward #
vertex $-1 $343 $785 #
vertex $-1 $551 $786 #
straight-curve $-1 72.912381359294415 0 -17.149375320780187 0 -1 0 I I #
coedge $-1 $531 $533 $344 $543 reversed $337 $-1 #
edge $-1 $546 $549 $542 $787 forward #
coedge $-1 $537 $345 $350 $552 forward $529 $-1 #
coedge $-1 $345 $537 $531 $778 reversed $529 $-1 #
vertex $-1 $346 $788 #
straight-curve $-1 0 49.088744169891974 17.149375320780187 -1 0 0 I I #
coedge $-1 $347 $532 $349 $551 reversed $233 $-1 #
vertex $-1 $543 $789 #
straight-curve $-1 0 -49.088744169891974 17.149375320780187 1 0 0 I I #
edge $-1 $352 $540 $349 $790 forward #
edge $-1 $353 $539 $350 $791 forward #
point $-1 72.912381359294415 -49.088744169891974 17.149375320780187 #
point $-1 72.912381359294415 49.088744169891974 17.149375320780187 #
face $-1 $-1 $370 $67 $-1 $792 reversed single #
loop $-1 $-1 $571 $355 #
plane-surface $-1 0 49.088744169891974 0 0 -1 0 0 0 -1 forward_v I I I I #
coedge $-1 $793 $569 $572 $794 forward $356 $-1 #
coedge $-1 $575 $358 $359 $563 reversed $241 $-1 #
coedge $-1 $569 $793 $358 $561 reversed $356 $-1 #
edge $-1 $576 $795 $560 $796 forward #
coedge $-1 $360 $359 $793 $797 forward $165 $-1 #
edge $-1 $567 $795 $559 $798 forward #
coedge $-1 $572 $571 $360 $565 reversed $556 $-1 #
edge $-1 $799 $566 $564 $800 forward #
vertex $-1 $362 $801 #
vertex $-1 $578 $802 #
straight-curve $-1 6.9722597023563306 0 -1.9603996441250755 0 -1 0 I I #
coedge $-1 $558 $560 $363 $570 reversed $356 $-1 #
edge $-1 $573 $576 $569 $803 forward #
coedge $-1 $564 $364 $369 $579 forward $556 $-1 #
coedge $-1 $364 $564 $558 $794 reversed $556 $-1 #
vertex $-1 $365 $804 #
straight-curve $-1 0 49.088744169891974 1.9603996441250755 -1 0 0 I I #
coedge $-1 $366 $559 $368 $578 reversed $241 $-1 #
vertex $-1 $570 $805 #
straight-curve $-1 0 -49.088744169891974 1.9603996441250755 1 0 0 I I #
edge $-1 $371 $567 $368 $806 forward #
edge $-1 $372 $566 $369 $807 forward #
point $-1 6.9722597023563306 -49.088744169891974 1.9603996441250755 #
point $-1 6.9722597023563306 49.088744169891974 1.9603996441250755 #
face $-1 $-1 $389 $69 $-1 $808 reversed single #
loop $-1 $-1 $598 $374 #
plane-surface $-1 0 291.64952543717766 0 0 -1 0 0 0 -1 forward_v I I I I #
coedge $-1 $809 $596 $599 $810 forward $375 $-1 #
coedge $-1 $602 $377 $378 $590 reversed $249 $-1 #
coedge $-1 $596 $809 $377 $588 reversed $375 $-1 #
edge $-1 $603 $811 $587 $812 forward #
coedge $-1 $379 $378 $809 $813 forward $169 $-1 #
edge $-1 $594 $811 $586 $814 forward #
coedge $-1 $599 $598 $379 $592 reversed $583 $-1 #
edge $-1 $815 $593 $591 $816 forward #
vertex $-1 $381 $817 #
vertex $-1 $605 $818 #
straight-curve $-1 8.8793876703082582 0 -145.82476271858883 0 -1 0 I I #
coedge $-1 $585 $587 $382 $597 reversed $375 $-1 #
edge $-1 $600 $603 $596 $819 forward #
coedge $-1 $591 $383 $388 $606 forward $583 $-1 #
coedge $-1 $383 $591 $585 $810 reversed $583 $-1 #
vertex $-1 $384 $820 #
straight-curve $-1 0 291.64952543717766 145.82476271858883 -1 0 0 I I #
coedge $-1 $385 $586 $387 $605 reversed $249 $-1 #
vertex $-1 $597 $821 #
straight-curve $-1 0 -291.64952543717766 145.82476271858883 1 0 0 I I #
edge $-1 $390 $594 $387 $822 forward #
edge $-1 $391 $593 $388 $823 forward #
point $-1 8.8793876703082582 -291.64952543717766 145.82476271858883 #
point $-1 8.8793876703082582 291.64952543717766 145.82476271858883 #
coedge $-1 $609 $609 $-1 $824 reversed $393 $-1 #
vertex $-1 $395 $825 #
ellipse-curve $-1 0 0 -1 0 0 -1 2 0 0 1 I I #
point $-1 2 0 -8.1913815729239765 #
coedge $-1 $613 $613 $-1 $826 reversed $398 $-1 #
vertex $-1 $400 $827 #
ellipse-curve $-1 0 0 -1 0 0 -1 2 0 0 1 I I #
point $-1 2 0 -8.1913815729239765 #
face $-1 $-1 $418 $75 $-1 $828 reversed single #
loop $-1 $-1 $633 $403 #
plane-surface $-1 0 291.64952543717766 0 0 -1 0 0 0 -1 forward_v I I I I #
coedge $-1 $829 $631 $634 $830 forward $404 $-1 #
coedge $-1 $637 $406 $407 $625 reversed $267 $-1 #
coedge $-1 $631 $829 $406 $623 reversed $404 $-1 #
edge $-1 $638 $831 $622 $832 forward #
coedge $-1 $408 $407 $829 $833 forward $183 $-1 #
edge $-1 $629 $831 $621 $834 forward #
coedge $-1 $634 $633 $408 $627 reversed $618 $-1 #
edge $-1 $835 $628 $626 $836 forward #
vertex $-1 $410 $837 #
vertex $-1 $640 $838 #
straight-curve $-1 8.8793876703082582 0 -145.82476271858883 0 -1 0 I I #
coedge $-1 $620 $622 $411 $632 reversed $404 $-1 #
edge $-1 $635 $638 $631 $839 forward #
coedge $-1 $626 $412 $417 $641 forward $618 $-1 #
coedge $-1 $412 $626 $620 $830 reversed $618 $-1 #
vertex $-1 $413 $840 #
straight-curve $-1 0 291.64952543717766 145.82476271858883 -1 0 0 I I #
coedge $-1 $414 $621 $416 $640 reversed $267 $-1 #
vertex $-1 $632 $841 #
straight-curve $-1 0 -291.64952543717766 145.82476271858883 1 0 0 I I #
edge $-1 $419 $629 $416 $842 forward #
edge $-1 $420 $628 $417 $843 forward #
point $-1 8.8793876703082582 -291.64952543717766 145.82476271858883 #
point $-1 8.8793876703082582 291.64952543717766 145.82476271858883 #
coedge $-1 $644 $644 $-1 $844 reversed $422 $-1 #
vertex $-1 $424 $845 #
ellipse-curve $-1 0 0 -1 0 0 -1 2 0 0 1 I I #
point $-1 2 0 -8.1913815729239765 #
coedge $-1 $648 $648 $-1 $846 reversed $427 $-1 #
vertex $-1 $429 $847 #
ellipse-curve $-1 0 0 -1 0 0 -1 2 0 0 1 I I #
point $-1 2 0 -8.1913815729239765 #
face $-1 $-1 $447 $81 $-1 $848 reversed single #
loop $-1 $-1 $668 $432 #
plane-surface $-1 0 291.64952543717766 0 0 -1 0 0 0 -1 forward_v I I I I #
coedge $-1 $849 $666 $669 $850 forward $433 $-1 #
coedge $-1 $672 $435 $436 $660 reversed $285 $-1 #
coedge $-1 $666 $849 $435 $658 reversed $433 $-1 #
edge $-1 $673 $851 $657 $852 forward #
coedge $-1 $437 $436 $849 $853 forward $197 $-1 #
edge $-1 $664 $851 $656 $854 forward #
coedge $-1 $669 $668 $437 $662 reversed $653 $-1 #
edge $-1 $855 $663 $661 $856 forward #
vertex $-1 $439 $857 #
vertex $-1 $675 $858 #
straight-curve $-1 8.31792968079791 0 -145.82476271858883 0 -1 0 I I #
coedge $-1 $655 $657 $440 $667 reversed $433 $-1 #
edge $-1 $670 $673 $666 $859 forward #
coedge $-1 $661 $441 $446 $676 forward $653 $-1 #
coedge $-1 $441 $661 $655 $850 reversed $653 $-1 #
vertex $-1 $442 $860 #
straight-curve $-1 0 291.64952543717766 145.82476271858883 -1 0 0 I I #
coedge $-1 $443 $656 $445 $675 reversed $285 $-1 #
vertex $-1 $667 $861 #
straight-curve $-1 0 -291.64952543717766 145.82476271858883 1 0 0 I I #
edge $-1 $448 $664 $445 $862 forward #
edge $-1 $449 $663 $446 $863 forward #
point $-1 8.31792968079791 -291.64952543717766 145.82476271858883 #
point $-1 8.31792968079791 291.64952543717766 145.82476271858883 #
coedge $-1 $679 $679 $-1 $864 reversed $451 $-1 #
vertex $-1 $453 $865 #
ellipse-curve $-1 0 0 -0.5 0 0 -1 1 0 0 1 I I #
point $-1 1 0 -3.3846705526902046 #
face $-1 $-1 $471 $85 $-1 $866 reversed single #
loop $-1 $-1 $699 $456 #
plane-surface $-1 0 291.64952543717766 0 0 -1 0 0 0 -1 forward_v I I I I #
coedge $-1 $867 $697 $700 $868 forward $457 $-1 #
coedge $-1 $703 $459 $460 $691 reversed $298 $-1 #
coedge $-1 $697 $867 $459 $689 reversed $457 $-1 #
edge $-1 $704 $869 $688 $870 forward #
coedge $-1 $461 $460 $867 $871 forward $206 $-1 #
edge $-1 $695 $869 $687 $872 forward #
coedge $-1 $700 $699 $461 $693 reversed $684 $-1 #
edge $-1 $873 $694 $692 $874 forward #
vertex $-1 $463 $875 #
vertex $-1 $706 $876 #
straight-curve $-1 8.31792968079791 0 -145.82476271858883 0 -1 0 I I #
coedge $-1 $686 $688 $464 $698 reversed $457 $-1 #
edge $-1 $701 $704 $697 $877 forward #
coedge $-1 $692 $465 $470 $707 forward $684 $-1 #
coedge $-1 $465 $692 $686 $868 reversed $684 $-1 #
vertex $-1 $466 $878 #
straight-curve $-1 0 291.64952543717766 145.82476271858883 -1 0 0 I I #
coedge $-1 $467 $687 $469 $706 reversed $298 $-1 #
vertex $-1 $698 $879 #
straight-curve $-1 0 -291.64952543717766 145.82476271858883 1 0 0 I I #
edge $-1 $472 $695 $469 $880 forward #
edge $-1 $473 $694 $470 $881 forward #
point $-1 8.31792968079791 -291.64952543717766 145.82476271858883 #
point $-1 8.31792968079791 291.64952543717766 145.82476271858883 #
coedge $-1 $710 $710 $-1 $882 reversed $475 $-1 #
vertex $-1 $477 $883 #
ellipse-curve $-1 0 0 -0.5 0 0 -1 1 0 0 1 I I #
point $-1 1 0 -3.3846705526902046 #
face $-1 $-1 $495 $89 $-1 $884 reversed single #
loop $-1 $-1 $730 $480 #
plane-surface $-1 0 291.64952543717766 0 0 -1 0 0 0 -1 forward_v I I I I #
coedge $-1 $885 $728 $731 $886 forward $481 $-1 #
coedge $-1 $734 $483 $484 $722 reversed $311 $-1 #
coedge $-1 $728 $885 $483 $720 reversed $481 $-1 #
edge $-1 $735 $887 $719 $888 forward #
coedge $-1 $485 $484 $885 $889 forward $215 $-1 #
edge $-1 $726 $887 $718 $890 forward #
coedge $-1 $731 $730 $485 $724 reversed $715 $-1 #
edge $-1 $891 $725 $723 $892 forward #
vertex $-1 $487 $893 #
vertex $-1 $737 $894 #
straight-curve $-1 8.31792968079791 0 -145.82476271858883 0 -1 0 I I #
coedge $-1 $717 $719 $488 $729 reversed $481 $-1 #
edge $-1 $732 $735 $728 $895 forward #
coedge $-1 $723 $489 $494 $738 forward $715 $-1 #
coedge $-1 $489 $723 $717 $886 reversed $715 $-1 #
vertex $-1 $490 $896 #
straight-curve $-1 0 291.64952543717766 145.82476271858883 -1 0 0 I I #
coedge $-1 $491 $718 $493 $737 reversed $311 $-1 #
vertex $-1 $729 $897 #
straight-curve $-1 0 -291.64952543717766 145.82476271858883 1 0 0 I I #
edge $-1 $496 $726 $493 $898 forward #
edge $-1 $497 $725 $494 $899 forward #
point $-1 8.31792968079791 -291.64952543717766 145.82476271858883 #
point $-1 8.31792968079791 291.64952543717766 145.82476271858883 #
coedge $-1 $741 $741 $-1 $900 reversed $499 $-1 #
vertex $-1 $501 $901 #
ellipse-curve $-1 0 0 -0.5 0 0 -1 1 0 0 1 I I #
point $-1 1 0 -3.3846705526902046 #
face $-1 $-1 $519 $93 $-1 $902 reversed single #
loop $-1 $-1 $761 $504 #
plane-surface $-1 0 291.64952543717766 0 0 -1 0 0 0 -1 forward_v I I I I #
coedge $-1 $903 $759 $762 $904 forward $505 $-1 #
coedge $-1 $765 $507 $508 $753 reversed $324 $-1 #
coedge $-1 $759 $903 $507 $751 reversed $505 $-1 #
edge $-1 $766 $905 $750 $906 forward #
coedge $-1 $509 $508 $903 $907 forward $224 $-1 #
edge $-1 $757 $905 $749 $908 forward #
coedge $-1 $762 $761 $509 $755 reversed $746 $-1 #
edge $-1 $909 $756 $754 $910 forward #
vertex $-1 $511 $911 #
vertex $-1 $768 $912 #
straight-curve $-1 8.31792968079791 0 -145.82476271858883 0 -1 0 I I #
coedge $-1 $748 $750 $512 $760 reversed $505 $-1 #
edge $-1 $763 $766 $759 $913 forward #
coedge $-1 $754 $513 $518 $769 forward $746 $-1 #
coedge $-1 $513 $754 $748 $904 reversed $746 $-1 #
vertex $-1 $514 $914 #
straight-curve $-1 0 291.64952543717766 145.82476271858883 -1 0 0 I I #
coedge $-1 $515 $749 $517 $768 reversed $324 $-1 #
vertex $-1 $760 $915 #
straight-curve $-1 0 -291.64952543717766 145.82476271858883 1 0 0 I I #
edge $-1 $520 $757 $517 $916 forward #
edge $-1 $521 $756 $518 $917 forward #
point $-1 8.31792968079791 -291.64952543717766 145.82476271858883 #
point $-1 8.31792968079791 291.64952543717766 145.82476271858883 #
coedge $-1 $772 $772 $-1 $918 reversed $523 $-1 #
vertex $-1 $525 $919 #
ellipse-curve $-1 0 0 -0.5 0 0 -1 1 0 0 1 I I #
point $-1 1 0 -3.3846705526902046 #
plane-surface $-1 72.912381359294415 0 0 -1 0 0 0 0 1 forward_v I I I I #
coedge $-1 $533 $531 $535 $781 reversed $337 $-1 #
edge $-1 $546 $783 $545 $920 forward #
vertex $-1 $781 $921 #
straight-curve $-1 -72.912381359294415 -49.088744169891974 0 0 0 -1 I I #
edge $-1 $779 $783 $777 $922 forward #
straight-curve $-1 0 -49.088744169891974 -17.149375320780187 -1 0 0 I I #
vertex $-1 $538 $923 #
straight-curve $-1 0 49.088744169891974 -17.149375320780187 1 0 0 I I #
point $-1 72.912381359294415 49.088744169891974 -17.149375320780187 #
point $-1 72.912381359294415 -49.088744169891974 -17.149375320780187 #
straight-curve $-1 -72.912381359294415 0 17.149375320780187 0 -1 0 I I #
point $-1 -72.912381359294415 49.088744169891974 17.149375320780187 #
point $-1 -72.912381359294415 -49.088744169891974 17.149375320780187 #
straight-curve $-1 72.912381359294415 -49.088744169891974 0 0 0 -1 I I #
straight-curve $-1 72.912381359294415 49.088744169891974 0 0 0 -1 I I #
plane-surface $-1 6.9722597023563306 0 0 -1 0 0 0 0 1 forward_v I I I I #
coedge $-1 $560 $558 $562 $797 reversed $356 $-1 #
edge $-1 $573 $799 $572 $924 forward #
vertex $-1 $797 $925 #
straight-curve $-1 -6.9722597023563306 -49.088744169891974 0 0 0 -1 I I #
edge $-1 $795 $799 $793 $926 forward #
straight-curve $-1 0 -49.088744169891974 -1.9603996441250755 -1 0 0 I I #
vertex $-1 $565 $927 #
straight-curve $-1 0 49.088744169891974 -1.9603996441250755 1 0 0 I I #
point $-1 6.9722597023563306 49.088744169891974 -1.9603996441250755 #
point $-1 6.9722597023563306 -49.088744169891974 -1.9603996441250755 #
straight-curve $-1 -6.9722597023563306 0 1.9603996441250755 0 -1 0 I I #
point $-1 -6.9722597023563306 49.088744169891974 1.9603996441250755 #
point $-1 -6.9722597023563306 -49.088744169891974 1.9603996441250755 #
straight-curve $-1 6.9722597023563306 -49.088744169891974 0 0 0 -1 I I #
straight-curve $-1 6.9722597023563306 49.088744169891974 0 0 0 -1 I I #
plane-surface $-1 8.8793876703082582 0 0 -1 0 0 0 0 1 forward_v I I I I #
coedge $-1 $587 $585 $589 $813 reversed $375 $-1 #
edge $-1 $600 $815 $599 $928 forward #
vertex $-1 $813 $929 #
straight-curve $-1 -8.8793876703082582 -291.64952543717766 0 0 0 -1 I I #
edge $-1 $811 $815 $809 $930 forward #
straight-curve $-1 0 -291.64952543717766 -145.82476271858883 -1 0 0 I I #
vertex $-1 $592 $931 #
straight-curve $-1 0 291.64952543717766 -145.82476271858883 1 0 0 I I #
point $-1 8.8793876703082582 291.64952543717766 -145.82476271858883 #
point $-1 8.8793876703082582 -291.64952543717766 -145.82476271858883 #
straight-curve $-1 -8.8793876703082582 0 145.82476271858883 0 -1 0 I I #
point $-1 -8.8793876703082582 291.64952543717766 145.82476271858883 #
point $-1 -8.8793876703082582 -291.64952543717766 145.82476271858883 #
straight-curve $-1 8.8793876703082582 -291.64952543717766 0 0 0 -1 I I #
straight-curve $-1 8.8793876703082582 291.64952543717766 0 0 0 -1 I I #
edge $-1 $932 $932 $609 $-1 forward #
point $-1 2 0 -1 #
edge $-1 $933 $933 $613 $-1 forward #
point $-1 2 0 -1 #
plane-surface $-1 8.8793876703082582 0 0 -1 0 0 0 0 1 forward_v I I I I #
coedge $-1 $622 $620 $624 $833 reversed $404 $-1 #
edge $-1 $635 $835 $634 $934 forward #
vertex $-1 $833 $935 #
straight-curve $-1 -8.8793876703082582 -291.64952543717766 0 0 0 -1 I I #
edge $-1 $831 $835 $829 $936 forward #
straight-curve $-1 0 -291.64952543717766 -145.82476271858883 -1 0 0 I I #
vertex $-1 $627 $937 #
straight-curve $-1 0 291.64952543717766 -145.82476271858883 1 0 0 I I #
point $-1 8.8793876703082582 291.64952543717766 -145.82476271858883 #
point $-1 8.8793876703082582 -291.64952543717766 -145.82476271858883 #
straight-curve $-1 -8.8793876703082582 0 145.82476271858883 0 -1 0 I I #
point $-1 -8.8793876703082582 291.64952543717766 145.82476271858883 #
point $-1 -8.8793876703082582 -291.64952543717766 145.82476271858883 #
straight-curve $-1 8.8793876703082582 -291.64952543717766 0 0 0 -1 I I #
straight-curve $-1 8.8793876703082582 291.64952543717766 0 0 0 -1 I I #
edge $-1 $938 $938 $644 $-1 forward #
point $-1 2 0 -1 #
edge $-1 $939 $939 $648 $-1 forward #
point $-1 2 0 -1 #
plane-surface $-1 8.31792968079791 0 0 -1 0 0 0 0 1 forward_v I I I I #
coedge $-1 $657 $655 $659 $853 reversed $433 $-1 #
edge $-1 $670 $855 $669 $940 forward #
vertex $-1 $853 $941 #
straight-curve $-1 -8.31792968079791 -291.64952543717766 0 0 0 -1 I I #
edge $-1 $851 $855 $849 $942 forward #
straight-curve $-1 0 -291.64952543717766 -145.82476271858883 -1 0 0 I I #
vertex $-1 $662 $943 #
straight-curve $-1 0 291.64952543717766 -145.82476271858883 1 0 0 I I #
point $-1 8.31792968079791 291.64952543717766 -145.82476271858883 #
point $-1 8.31792968079791 -291.64952543717766 -145.82476271858883 #
straight-curve $-1 -8.31792968079791 0 145.82476271858883 0 -1 0 I I #
point $-1 -8.31792968079791 291.64952543717766 145.82476271858883 #
point $-1 -8.31792968079791 -291.64952543717766 145.82476271858883 #
straight-curve $-1 8.31792968079791 -291.64952543717766 0 0 0 -1 I I #
straight-curve $-1 8.31792968079791 291.64952543717766 0 0 0 -1 I I #
edge $-1 $944 $944 $679 $-1 forward #
point $-1 1 0 -0.5 #
plane-surface $-1 8.31792968079791 0 0 -1 0 0 0 0 1 forward_v I I I I #
coedge $-1 $688 $686 $690 $871 reversed $457 $-1 #
edge $-1 $701 $873 $700 $945 forward #
vertex $-1 $871 $946 #
straight-curve $-1 -8.31792968079791 -291.64952543717766 0 0 0 -1 I I #
edge $-1 $869 $873 $867 $947 forward #
straight-curve $-1 0 -291.64952543717766 -145.82476271858883 -1 0 0 I I #
vertex $-1 $693 $948 #
straight-curve $-1 0 291.64952543717766 -145.82476271858883 1 0 0 I I #
point $-1 8.31792968079791 291.64952543717766 -145.82476271858883 #
point $-1 8.31792968079791 -291.64952543717766 -145.82476271858883 #
straight-curve $-1 -8.31792968079791 0 145.82476271858883 0 -1 0 I I #
point $-1 -8.31792968079791 291.64952543717766 145.82476271858883 #
point $-1 -8.31792968079791 -291.64952543717766 145.82476271858883 #
straight-curve $-1 8.31792968079791 -291.64952543717766 0 0 0 -1 I I #
straight-curve $-1 8.31792968079791 291.64952543717766 0 0 0 -1 I I #
edge $-1 $949 $949 $710 $-1 forward #
point $-1 1 0 -0.5 #
plane-surface $-1 8.31792968079791 0 0 -1 0 0 0 0 1 forward_v I I I I #
coedge $-1 $719 $717 $721 $889 reversed $481 $-1 #
edge $-1 $732 $891 $731 $950 forward #
vertex $-1 $889 $951 #
straight-curve $-1 -8.31792968079791 -291.64952543717766 0 0 0 -1 I I #
edge $-1 $887 $891 $885 $952 forward #
straight-curve $-1 0 -291.64952543717766 -145.82476271858883 -1 0 0 I I #
vertex $-1 $724 $953 #
straight-curve $-1 0 291.64952543717766 -145.82476271858883 1 0 0 I I #
point $-1 8.31792968079791 291.64952543717766 -145.82476271858883 #
point $-1 8.31792968079791 -291.64952543717766 -145.82476271858883 #
straight-curve $-1 -8.31792968079791 0 145.82476271858883 0 -1 0 I I #
point $-1 -8.31792968079791 291.64952543717766 145.82476271858883 #
point $-1 -8.31792968079791 -291.64952543717766 145.82476271858883 #
straight-curve $-1 8.31792968079791 -291.64952543717766 0 0 0 -1 I I #
straight-curve $-1 8.31792968079791 291.64952543717766 0 0 0 -1 I I #
edge $-1 $954 $954 $741 $-1 forward #
point $-1 1 0 -0.5 #
plane-surface $-1 8.31792968079791 0 0 -1 0 0 0 0 1 forward_v I I I I #
coedge $-1 $750 $748 $752 $907 reversed $505 $-1 #
edge $-1 $763 $909 $762 $955 forward #
vertex $-1 $907 $956 #
straight-curve $-1 -8.31792968079791 -291.64952543717766 0 0 0 -1 I I #
edge $-1 $905 $909 $903 $957 forward #
straight-curve $-1 0 -291.64952543717766 -145.82476271858883 -1 0 0 I I #
vertex $-1 $755 $958 #
straight-curve $-1 0 291.64952543717766 -145.82476271858883 1 0 0 I I #
point $-1 8.31792968079791 291.64952543717766 -145.82476271858883 #
point $-1 8.31792968079791 -291.64952543717766 -145.82476271858883 #
straight-curve $-1 -8.31792968079791 0 145.82476271858883 0 -1 0 I I #
point $-1 -8.31792968079791 291.64952543717766 145.82476271858883 #
point $-1 -8.31792968079791 -291.64952543717766 145.82476271858883 #
straight-curve $-1 8.31792968079791 -291.64952543717766 0 0 0 -1 I I #
straight-curve $-1 8.31792968079791 291.64952543717766 0 0 0 -1 I I #
edge $-1 $959 $959 $772 $-1 forward #
point $-1 1 0 -0.5 #
straight-curve $-1 -72.912381359294415 49.088744169891974 0 0 0 -1 I I #
point $-1 -72.912381359294415 -49.088744169891974 -17.149375320780187 #
straight-curve $-1 -72.912381359294415 0 -17.149375320780187 0 1 0 I I #
point $-1 -72.912381359294415 49.088744169891974 -17.149375320780187 #
straight-curve $-1 -6.9722597023563306 49.088744169891974 0 0 0 -1 I I #
point $-1 -6.9722597023563306 -49.088744169891974 -1.9603996441250755 #
straight-curve $-1 -6.9722597023563306 0 -1.9603996441250755 0 1 0 I I #
point $-1 -6.9722597023563306 49.088744169891974 -1.9603996441250755 #
straight-curve $-1 -8.8793876703082582 291.64952543717766 0 0 0 -1 I I #
point $-1 -8.8793876703082582 -291.64952543717766 -145.82476271858883 #
straight-curve $-1 -8.8793876703082582 0 -145.82476271858883 0 1 0 I I #
point $-1 -8.8793876703082582 291.64952543717766 -145.82476271858883 #
vertex $-1 $824 $960 #
vertex $-1 $826 $961 #
straight-curve $-1 -8.8793876703082582 291.64952543717766 0 0 0 -1 I I #
point $-1 -8.8793876703082582 -291.64952543717766 -145.82476271858883 #
straight-curve $-1 -8.8793876703082582 0 -145.82476271858883 0 1 0 I I #
point $-1 -8.8793876703082582 291.64952543717766 -145.82476271858883 #
vertex $-1 $844 $962 #
vertex $-1 $846 $963 #
straight-curve $-1 -8.31792968079791 291.64952543717766 0 0 0 -1 I I #
point $-1 -8.31792968079791 -291.64952543717766 -145.82476271858883 #
straight-curve $-1 -8.31792968079791 0 -145.82476271858883 0 1 0 I I #
point $-1 -8.31792968079791 291.64952543717766 -145.82476271858883 #
vertex $-1 $864 $964 #
straight-curve $-1 -8.31792968079791 291.64952543717766 0 0 0 -1 I I #
point $-1 -8.31792968079791 -291.64952543717766 -145.82476271858883 #
straight-curve $-1 -8.31792968079791 0 -145.82476271858883 0 1 0 I I #
point $-1 -8.31792968079791 291.64952543717766 -145.82476271858883 #
vertex $-1 $882 $965 #
straight-curve $-1 -8.31792968079791 291.64952543717766 0 0 0 -1 I I #
point $-1 -8.31792968079791 -291.64952543717766 -145.82476271858883 #
straight-curve $-1 -8.31792968079791 0 -145.82476271858883 0 1 0 I I #
point $-1 -8.31792968079791 291.64952543717766 -145.82476271858883 #
vertex $-1 $900 $966 #
straight-curve $-1 -8.31792968079791 291.64952543717766 0 0 0 -1 I I #
point $-1 -8.31792968079791 -291.64952543717766 -145.82476271858883 #
straight-curve $-1 -8.31792968079791 0 -145.82476271858883 0 1 0 I I #
point $-1 -8.31792968079791 291.64952543717766 -145.82476271858883 #
vertex $-1 $918 $967 #
point $-1 0 0 1 #
point $-1 0 0 1 #
point $-1 0 0 1 #
point $-1 0 0 1 #
point $-1 0 0 0.5 #
point $-1 0 0 0.5 #
point $-1 0 0 0.5 #
point $-1 0 0 0.5 #
End-of-ACIS-data 