600 0 5 0           
93 GICL ACIS Healer - Source: /gicl/data5/repository/Drexel/SM99-DATA/part92.smdg.feat.sat - 6 0 18 ACIS 6.0.3 Solaris 24 Sat Apr 13 20:46:54 2002 
1 9.999999999999999547e-07 1.000000000000000036e-10 
body $-1 $5 $-1 $-1 #
body $-1 $6 $-1 $-1 #
body $-1 $7 $-1 $-1 #
body $-1 $8 $-1 $-1 #
body $-1 $9 $-1 $-1 #
lump $-1 $-1 $10 $0 #
lump $-1 $-1 $11 $1 #
lump $-1 $-1 $12 $2 #
lump $-1 $-1 $13 $3 #
lump $-1 $-1 $14 $4 #
shell $-1 $-1 $-1 $15 $-1 $5 #
shell $-1 $-1 $-1 $16 $-1 $6 #
shell $-1 $-1 $-1 $17 $-1 $7 #
shell $-1 $-1 $-1 $18 $-1 $8 #
shell $-1 $-1 $-1 $19 $-1 $9 #
face $-1 $20 $21 $10 $-1 $22 forward single #
face $-1 $23 $24 $11 $-1 $25 forward single #
face $-1 $26 $27 $12 $-1 $28 forward single #
face $-1 $29 $30 $13 $-1 $31 forward single #
face $-1 $32 $33 $14 $-1 $34 forward single #
face $-1 $35 $36 $10 $-1 $37 reversed single #
loop $-1 $-1 $38 $15 #
plane-surface $-1 77.73186437574389629 46.012367364480383 31.10788214439326538 0 0 1 1 0 0 forward_v I I I I #
face $-1 $39 $40 $11 $-1 $41 reversed single #
loop $-1 $-1 $42 $16 #
plane-surface $-1 108.495727382271923 -199.8603196507352209 255.3902361242265329 0 -0.6427876175870461672 0.7660444364896655811 1 0 0 forward_v I I I I #
face $-1 $43 $44 $12 $-1 $45 forward single #
loop $-1 $46 $47 $17 #
cone-surface $-1 108.495727382271923 9.358519630557033508 22.87615333078366575 0 0.6427876175870461672 -0.7660444364896655811 3 0 0 1 I I 0 1 3 forward I I I I #
face $-1 $48 $49 $13 $-1 $50 reversed single #
loop $-1 $-1 $51 $18 #
plane-surface $-1 15.54044222354993465 200.3337373203582956 326.9414470712390539 0 0.5877852598018022956 0.8090169889191003438 1 0 0 forward_v I I I I #
face $-1 $52 $53 $14 $-1 $54 forward single #
loop $-1 $55 $56 $19 #
cone-surface $-1 15.54044222354993465 83.48684708039834845 23.74043911658475636 0 -0.5877852598018022956 -0.8090169889191003438 2 0 0 1 I I 0 1 2 forward I I I I #
face $-1 $57 $58 $10 $-1 $59 reversed single #
loop $-1 $-1 $60 $20 #
plane-surface $-1 77.73186437574389629 46.012367364480383 0 0 0 1 1 0 0 forward_v I I I I #
coedge $-1 $61 $62 $63 $64 forward $21 $-1 #
face $-1 $65 $66 $11 $-1 $67 reversed single #
loop $-1 $-1 $68 $23 #
plane-surface $-1 108.495727382271923 0 17.2059871521951635 0 -0.6427876175870461672 0.7660444364896655811 1 0 0 forward_v I I I I #
coedge $-1 $69 $70 $71 $72 forward $24 $-1 #
face $-1 $-1 $73 $12 $-1 $74 forward single #
loop $-1 $-1 $75 $26 #
plane-surface $-1 108.495727382271923 8.283816476905569104 24.15693464829421089 0 -0.6427876175870461672 0.7660444364896655811 -1 0 -0 forward_v I I I I #
loop $-1 $-1 $76 $17 #
coedge $-1 $47 $47 $75 $77 reversed $27 $-1 #
face $-1 $78 $79 $13 $-1 $80 reversed single #
loop $-1 $-1 $81 $29 #
plane-surface $-1 15.54044222354993465 17.57516093245796185 75.39585162991022571 0 0.5877852598018022956 0.8090169889191003438 1 0 0 forward_v I I I I #
coedge $-1 $82 $83 $84 $85 forward $30 $-1 #
face $-1 $-1 $86 $14 $-1 $87 forward single #
loop $-1 $-1 $88 $32 #
plane-surface $-1 15.54044222354993465 85.27852748290709428 26.20647558172467484 0 0.5877852598018022956 0.8090169889191003438 -1 -0 0 forward_v I I I I #
loop $-1 $-1 $89 $19 #
coedge $-1 $56 $56 $88 $90 reversed $33 $-1 #
face $-1 $91 $92 $10 $-1 $93 reversed single #
loop $-1 $-1 $94 $35 #
plane-surface $-1 77.73186437574389629 0 15.55394107219663269 0 1 0 0 0 1 forward_v I I I I #
coedge $-1 $95 $96 $97 $98 forward $36 $-1 #
coedge $-1 $99 $38 $100 $101 forward $21 $-1 #
coedge $-1 $38 $99 $102 $103 forward $21 $-1 #
coedge $-1 $104 $105 $38 $64 reversed $106 $-1 #
edge $-1 $107 -46.012367364480383 $108 46.012367364480383 $63 $109 forward 7 unknown #
face $-1 $110 $111 $11 $-1 $112 reversed single #
loop $-1 $-1 $113 $39 #
plane-surface $-1 108.495727382271923 -338.114408797398994 -63.56220801252436559 0 0.7660444364896655811 0.6427876175870461672 0 -0.6427876175870461672 0.7660444364896655811 forward_v I I I I #
coedge $-1 $114 $115 $116 $117 forward $40 $-1 #
coedge $-1 $118 $42 $119 $120 forward $24 $-1 #
coedge $-1 $42 $118 $121 $122 forward $24 $-1 #
coedge $-1 $123 $124 $42 $72 reversed $125 $-1 #
edge $-1 $126 -310.9274575029755852 $127 310.9274575029755852 $71 $128 forward 7 unknown #
loop $-1 $129 $130 $43 #
cone-surface $-1 108.495727382271923 11.39740421058906783 20.44630535853861986 0 0.6427876175870461672 -0.7660444364896655811 1.5 0 0 1 I I -0.7071067811865475727 0.7071067811865475727 1.5 forward I I I I #
coedge $-1 $75 $75 $47 $77 forward $44 $-1 #
coedge $-1 $76 $76 $130 $131 forward $46 $-1 #
edge $-1 $132 0 $132 6.283185307179586232 $75 $133 forward 7 unknown #
face $-1 $134 $135 $13 $-1 $136 reversed single #
loop $-1 $-1 $137 $48 #
plane-surface $-1 15.54044222354993465 -142.5911463149207066 383.9272257384749878 0 0.8090169889191003438 -0.5877852598018022956 0 0.5877852598018022956 0.8090169889191003438 forward_v I I I I #
coedge $-1 $138 $139 $140 $141 forward $49 $-1 #
coedge $-1 $142 $51 $143 $144 forward $30 $-1 #
coedge $-1 $51 $142 $145 $146 forward $30 $-1 #
coedge $-1 $147 $148 $51 $85 reversed $149 $-1 #
edge $-1 $150 -310.9274575029755283 $151 310.9274575029755283 $84 $152 forward 7 unknown #
loop $-1 $153 $154 $52 #
cone-surface $-1 15.54044222354993465 81.10738141808779744 20.46538566252573332 0 -0.5877852598018022956 -0.8090169889191003438 1 0 0 1 I I -0.7071067811865474617 0.7071067811865474617 1 forward I I I I #
coedge $-1 $88 $88 $56 $90 forward $53 $-1 #
coedge $-1 $89 $89 $154 $155 forward $55 $-1 #
edge $-1 $156 0 $156 6.283185307179586232 $88 $157 forward 7 unknown #
face $-1 $158 $159 $10 $-1 $160 reversed single #
loop $-1 $-1 $161 $57 #
plane-surface $-1 0 46.012367364480383 15.55394107219663269 1 0 0 0 0 -1 forward_v I I I I #
coedge $-1 $162 $102 $163 $164 forward $58 $-1 #
coedge $-1 $165 $60 $162 $166 forward $36 $-1 #
coedge $-1 $60 $165 $167 $168 forward $36 $-1 #
coedge $-1 $105 $104 $60 $98 reversed $106 $-1 #
edge $-1 $169 -46.012367364480383 $170 46.012367364480383 $97 $171 forward 7 unknown #
coedge $-1 $62 $61 $172 $173 forward $21 $-1 #
coedge $-1 $174 $175 $61 $101 reversed $159 $-1 #
edge $-1 $108 -77.73186437574389629 $176 77.73186437574389629 $100 $177 forward 7 unknown #
coedge $-1 $94 $178 $62 $103 reversed $58 $-1 #
edge $-1 $179 -77.73186437574389629 $107 77.73186437574389629 $102 $180 forward 7 unknown #
coedge $-1 $97 $63 $178 $181 forward $106 $-1 #
coedge $-1 $63 $97 $174 $182 reversed $106 $-1 #
loop $-1 $-1 $104 $158 #
vertex $-1 $64 $183 #
vertex $-1 $64 $184 #
straight-curve $-1 155.4637287514877926 46.012367364480383 31.10788214439326538 0 1 0 I I #
face $-1 $185 $186 $11 $-1 $187 reversed single #
loop $-1 $-1 $188 $65 #
plane-surface $-1 91.51769521116192152 -99.93015982536761044 136.2981116382108553 1 0 0 0 0.6427876175870461672 -0.7660444364896655811 forward_v I I I I #
coedge $-1 $189 $121 $190 $191 forward $66 $-1 #
coedge $-1 $192 $68 $189 $193 forward $40 $-1 #
coedge $-1 $68 $192 $194 $195 forward $40 $-1 #
coedge $-1 $124 $123 $68 $117 reversed $125 $-1 #
edge $-1 $196 -310.9274575029755852 $197 310.9274575029755852 $116 $198 forward 7 unknown #
coedge $-1 $70 $69 $199 $200 forward $24 $-1 #
coedge $-1 $201 $202 $69 $120 reversed $186 $-1 #
edge $-1 $127 -16.97803217111000151 $203 16.97803217111000151 $119 $204 forward 7 unknown #
coedge $-1 $113 $205 $70 $122 reversed $66 $-1 #
edge $-1 $206 -16.97803217111000151 $126 16.97803217111000151 $121 $207 forward 7 unknown #
coedge $-1 $116 $71 $205 $208 forward $125 $-1 #
coedge $-1 $71 $116 $201 $209 reversed $125 $-1 #
loop $-1 $-1 $123 $185 #
vertex $-1 $72 $210 #
vertex $-1 $72 $211 #
straight-curve $-1 125.4737595533819245 -199.8603196507352209 255.3902361242265329 0 0.7660444364896655811 0.6427876175870461672 I I #
loop $-1 $-1 $212 $43 #
coedge $-1 $130 $130 $76 $131 reversed $73 $-1 #
edge $-1 $213 0 $213 6.283185307179586232 $130 $214 forward 7 unknown #
vertex $-1 $77 $215 #
ellipse-curve $-1 108.495727382271923 8.283816476905569104 24.15693464829421089 0 -0.6427876175870461672 0.7660444364896655811 3 0 0 1 I I #
face $-1 $216 $217 $13 $-1 $218 reversed single #
loop $-1 $-1 $219 $78 #
plane-surface $-1 0 108.9544491264081358 201.1686493505746398 1 0 0 0 -0.5877852598018022956 -0.8090169889191003438 forward_v I I I I #
coedge $-1 $220 $145 $221 $222 forward $79 $-1 #
coedge $-1 $223 $81 $220 $224 forward $49 $-1 #
coedge $-1 $81 $223 $225 $226 forward $49 $-1 #
coedge $-1 $148 $147 $81 $141 reversed $149 $-1 #
edge $-1 $227 -310.9274575029755283 $228 310.9274575029755283 $140 $229 forward 7 unknown #
coedge $-1 $83 $82 $230 $231 forward $30 $-1 #
coedge $-1 $232 $233 $82 $144 reversed $217 $-1 #
edge $-1 $151 -15.54044222354993465 $234 15.54044222354993465 $143 $235 forward 7 unknown #
coedge $-1 $137 $236 $83 $146 reversed $79 $-1 #
edge $-1 $237 -15.54044222354993465 $150 15.54044222354993465 $145 $238 forward 7 unknown #
coedge $-1 $140 $84 $236 $239 forward $149 $-1 #
coedge $-1 $84 $140 $232 $240 reversed $149 $-1 #
loop $-1 $-1 $147 $216 #
vertex $-1 $85 $241 #
vertex $-1 $85 $242 #
straight-curve $-1 31.08088444709986931 200.3337373203582956 326.9414470712390539 0 0.8090169889191003438 -0.5877852598018022956 I I #
loop $-1 $-1 $243 $52 #
coedge $-1 $154 $154 $89 $155 reversed $86 $-1 #
edge $-1 $244 0 $244 6.283185307179586232 $154 $245 forward 7 unknown #
vertex $-1 $90 $246 #
ellipse-curve $-1 15.54044222354993465 85.27852748290709428 26.20647558172467484 0 0.5877852598018022956 0.8090169889191003438 2 0 0 1 I I #
face $-1 $-1 $106 $10 $-1 $247 reversed single #
loop $-1 $-1 $174 $91 #
plane-surface $-1 77.73186437574389629 92.02473472896076601 15.55394107219663269 0 -1 0 0 0 -1 forward_v I I I I #
coedge $-1 $248 $172 $175 $249 forward $92 $-1 #
coedge $-1 $178 $94 $95 $166 reversed $58 $-1 #
coedge $-1 $172 $248 $94 $164 reversed $92 $-1 #
edge $-1 $179 -15.55394107219663269 $250 15.55394107219663269 $163 $251 forward 7 unknown #
coedge $-1 $96 $95 $248 $252 forward $36 $-1 #
edge $-1 $170 -77.73186437574389629 $250 77.73186437574389629 $162 $253 forward 7 unknown #
coedge $-1 $175 $174 $96 $168 reversed $159 $-1 #
edge $-1 $254 -77.73186437574389629 $169 77.73186437574389629 $167 $255 forward 7 unknown #
vertex $-1 $98 $256 #
vertex $-1 $181 $257 #
straight-curve $-1 155.4637287514877926 46.012367364480383 0 0 -1 0 I I #
coedge $-1 $161 $163 $99 $173 reversed $92 $-1 #
edge $-1 $176 -46.012367364480383 $179 46.012367364480383 $172 $258 forward 7 unknown #
coedge $-1 $167 $100 $105 $182 forward $159 $-1 #
coedge $-1 $100 $167 $161 $249 reversed $159 $-1 #
vertex $-1 $101 $259 #
straight-curve $-1 77.73186437574389629 92.02473472896076601 31.10788214439326538 -1 0 0 I I #
coedge $-1 $102 $162 $104 $181 reversed $58 $-1 #
vertex $-1 $173 $260 #
straight-curve $-1 77.73186437574389629 0 31.10788214439326538 1 0 0 I I #
edge $-1 $107 -15.55394107219663269 $170 15.55394107219663269 $104 $261 forward 7 unknown #
edge $-1 $108 -15.55394107219663269 $169 15.55394107219663269 $105 $262 forward 7 unknown #
point $-1 155.4637287514877926 0 31.10788214439326538 #
point $-1 155.4637287514877926 92.02473472896076601 31.10788214439326538 #
face $-1 $-1 $125 $11 $-1 $263 reversed single #
loop $-1 $-1 $201 $110 #
plane-surface $-1 108.495727382271923 138.2540891466637731 336.1584312889460762 0 -0.7660444364896655811 -0.6427876175870461672 0 0.6427876175870461672 -0.7660444364896655811 forward_v I I I I #
coedge $-1 $264 $199 $202 $265 forward $111 $-1 #
coedge $-1 $205 $113 $114 $193 reversed $66 $-1 #
coedge $-1 $199 $264 $113 $191 reversed $111 $-1 #
edge $-1 $206 -155.4637287514877926 $266 155.4637287514877926 $190 $267 forward 7 unknown #
coedge $-1 $115 $114 $264 $268 forward $40 $-1 #
edge $-1 $197 -16.97803217111000151 $266 16.97803217111000151 $189 $269 forward 7 unknown #
coedge $-1 $202 $201 $115 $195 reversed $186 $-1 #
edge $-1 $270 -16.97803217111000151 $196 16.97803217111000151 $194 $271 forward 7 unknown #
vertex $-1 $117 $272 #
vertex $-1 $208 $273 #
straight-curve $-1 125.4737595533819245 0 17.2059871521951635 0 -0.7660444364896655811 -0.6427876175870461672 I I #
coedge $-1 $188 $190 $118 $200 reversed $111 $-1 #
edge $-1 $203 -310.9274575029755852 $206 310.9274575029755852 $199 $274 forward 7 unknown #
coedge $-1 $194 $119 $124 $209 forward $186 $-1 #
coedge $-1 $119 $194 $188 $265 reversed $186 $-1 #
vertex $-1 $120 $275 #
straight-curve $-1 108.495727382271923 38.3239293212961627 455.2505557749617537 -1 0 0 I I #
coedge $-1 $121 $189 $123 $208 reversed $66 $-1 #
vertex $-1 $200 $276 #
straight-curve $-1 108.495727382271923 -438.0445686227666329 55.5299164734913262 1 0 0 I I #
edge $-1 $126 -155.4637287514877926 $197 155.4637287514877926 $123 $277 forward 7 unknown #
edge $-1 $127 -155.4637287514877926 $196 155.4637287514877926 $124 $278 forward 7 unknown #
point $-1 125.4737595533819245 -438.0445686227666329 55.5299164734913262 #
point $-1 125.4737595533819245 38.3239293212961627 455.2505557749617537 #
coedge $-1 $212 $212 $-1 $279 reversed $129 $-1 #
vertex $-1 $131 $280 #
ellipse-curve $-1 108.495727382271923 10.43322278420849791 21.59537201327311706 0 -0.6427876175870461672 0.7660444364896655811 3 0 0 1 I I #
point $-1 111.495727382271923 8.283816476905569104 24.15693464829421089 #
face $-1 $-1 $149 $13 $-1 $281 reversed single #
loop $-1 $-1 $232 $134 #
plane-surface $-1 15.54044222354993465 360.5000445677369498 18.41007296267429183 0 -0.8090169889191003438 0.5877852598018022956 0 -0.5877852598018022956 -0.8090169889191003438 forward_v I I I I #
coedge $-1 $282 $230 $233 $283 forward $135 $-1 #
coedge $-1 $236 $137 $138 $224 reversed $79 $-1 #
coedge $-1 $230 $282 $137 $222 reversed $135 $-1 #
edge $-1 $237 -155.4637287514877926 $284 155.4637287514877642 $221 $285 forward 7 unknown #
coedge $-1 $139 $138 $282 $286 forward $49 $-1 #
edge $-1 $228 -15.54044222354993465 $284 15.54044222354993465 $220 $287 forward 7 unknown #
coedge $-1 $233 $232 $139 $226 reversed $217 $-1 #
edge $-1 $288 -15.54044222354993465 $227 15.54044222354993465 $225 $289 forward 7 unknown #
vertex $-1 $141 $290 #
vertex $-1 $239 $291 #
straight-curve $-1 31.08088444709986931 17.57516093245796185 75.39585162991022571 0 -0.8090169889191003438 0.5877852598018022956 I I #
coedge $-1 $219 $221 $142 $231 reversed $135 $-1 #
edge $-1 $234 -310.9274575029755283 $237 310.9274575029755283 $230 $292 forward 7 unknown #
coedge $-1 $225 $143 $148 $240 forward $217 $-1 #
coedge $-1 $143 $225 $219 $283 reversed $217 $-1 #
vertex $-1 $144 $293 #
straight-curve $-1 15.54044222354993465 451.8793327616871238 144.1828706833387059 -1 0 0 I I #
coedge $-1 $145 $220 $147 $239 reversed $79 $-1 #
vertex $-1 $231 $294 #
straight-curve $-1 15.54044222354993465 -51.21185812097051837 509.7000234591394019 1 0 0 I I #
edge $-1 $150 -155.4637287514877926 $228 155.4637287514877642 $147 $295 forward 7 unknown #
edge $-1 $151 -155.4637287514877642 $227 155.4637287514877642 $148 $296 forward 7 unknown #
point $-1 31.08088444709986931 -51.21185812097051837 509.7000234591394019 #
point $-1 31.08088444709986931 451.8793327616871238 144.1828706833387059 #
coedge $-1 $243 $243 $-1 $297 reversed $153 $-1 #
vertex $-1 $155 $298 #
ellipse-curve $-1 15.54044222354993465 81.69516667788960262 21.27440265144483433 0 0.5877852598018022956 0.8090169889191003438 2 0 0 1 I I #
point $-1 17.54044222354993465 85.27852748290709428 26.20647558172467484 #
plane-surface $-1 155.4637287514877926 46.012367364480383 15.55394107219663269 -1 0 0 0 0 1 forward_v I I I I #
coedge $-1 $163 $161 $165 $252 reversed $92 $-1 #
edge $-1 $176 -15.55394107219663269 $254 15.55394107219663269 $175 $299 forward 7 unknown #
vertex $-1 $252 $300 #
straight-curve $-1 0 0 15.55394107219663269 0 0 -1 I I #
edge $-1 $250 -46.012367364480383 $254 46.012367364480383 $248 $301 forward 7 unknown #
straight-curve $-1 77.73186437574389629 0 0 -1 0 0 I I #
vertex $-1 $168 $302 #
straight-curve $-1 77.73186437574389629 92.02473472896076601 0 1 0 0 I I #
point $-1 155.4637287514877926 92.02473472896076601 0 #
point $-1 155.4637287514877926 0 0 #
straight-curve $-1 0 46.012367364480383 31.10788214439326538 0 -1 0 I I #
point $-1 0 92.02473472896076601 31.10788214439326538 #
point $-1 0 0 31.10788214439326538 #
straight-curve $-1 155.4637287514877926 0 15.55394107219663269 0 0 -1 I I #
straight-curve $-1 155.4637287514877926 92.02473472896076601 15.55394107219663269 0 0 -1 I I #
plane-surface $-1 125.4737595533819245 -99.93015982536761044 136.2981116382108553 -1 0 0 0 -0.6427876175870461672 0.7660444364896655811 forward_v I I I I #
coedge $-1 $190 $188 $192 $268 reversed $111 $-1 #
edge $-1 $203 -155.4637287514877926 $270 155.4637287514877926 $202 $303 forward 7 unknown #
vertex $-1 $268 $304 #
straight-curve $-1 91.51769521116192152 -338.114408797398994 -63.56220801252436559 0 0.6427876175870461672 -0.7660444364896655811 I I #
edge $-1 $266 -310.9274575029755852 $270 310.9274575029755852 $264 $305 forward 7 unknown #
straight-curve $-1 108.495727382271923 -238.1842489720313836 -182.6543324985400432 -1 0 0 I I #
vertex $-1 $195 $306 #
straight-curve $-1 108.495727382271923 238.1842489720313836 217.0663068029303986 1 0 0 I I #
point $-1 125.4737595533819245 238.1842489720313836 217.0663068029303986 #
point $-1 125.4737595533819245 -238.1842489720313836 -182.6543324985400432 #
straight-curve $-1 91.51769521116192152 -199.8603196507352209 255.3902361242265329 0 -0.7660444364896655811 -0.6427876175870461672 I I #
point $-1 91.51769521116192152 38.3239293212961627 455.2505557749617537 #
point $-1 91.51769521116192152 -438.0445686227666329 55.5299164734913262 #
straight-curve $-1 125.4737595533819245 -338.114408797398994 -63.56220801252436559 0 0.6427876175870461672 -0.7660444364896655811 I I #
straight-curve $-1 125.4737595533819245 138.2540891466637731 336.1584312889460762 0 0.6427876175870461672 -0.7660444364896655811 I I #
edge $-1 $307 1 $307 0 $212 $-1 forward 7 unknown #
point $-1 111.495727382271923 10.43322278420849791 21.59537201327311706 #
plane-surface $-1 31.08088444709986931 108.9544491264081358 201.1686493505746398 -1 0 0 0 0.5877852598018022956 0.8090169889191003438 forward_v I I I I #
coedge $-1 $221 $219 $223 $286 reversed $135 $-1 #
edge $-1 $234 -155.4637287514877642 $288 155.4637287514877642 $233 $308 forward 7 unknown #
vertex $-1 $286 $309 #
straight-curve $-1 0 -142.5911463149207066 383.9272257384749878 0 -0.5877852598018022956 -0.8090169889191003438 I I #
edge $-1 $284 -310.9274575029755283 $288 310.9274575029755283 $282 $310 forward 7 unknown #
straight-curve $-1 15.54044222354993465 -233.9704345088708806 258.1544280178105737 -1 0 0 I I #
vertex $-1 $226 $311 #
straight-curve $-1 15.54044222354993465 269.1207563737867758 -107.3627247579901223 1 0 0 I I #
point $-1 31.08088444709986931 269.1207563737867758 -107.3627247579901223 #
point $-1 31.08088444709986931 -233.9704345088708806 258.1544280178105737 #
straight-curve $-1 0 200.3337373203582956 326.9414470712390539 0 -0.8090169889191003438 0.5877852598018022956 I I #
point $-1 0 451.8793327616871238 144.1828706833387059 #
point $-1 0 -51.21185812097051837 509.7000234591394019 #
straight-curve $-1 31.08088444709986931 -142.5911463149207066 383.9272257384749878 0 -0.5877852598018022956 -0.8090169889191003438 I I #
straight-curve $-1 31.08088444709986931 360.5000445677369498 18.41007296267429183 0 -0.5877852598018022956 -0.8090169889191003438 I I #
edge $-1 $312 1 $312 0 $243 $-1 forward 7 unknown #
point $-1 17.54044222354993465 81.69516667788960262 21.27440265144483433 #
straight-curve $-1 0 92.02473472896076601 15.55394107219663269 0 0 -1 I I #
point $-1 0 0 0 #
straight-curve $-1 0 46.012367364480383 0 0 1 0 I I #
point $-1 0 92.02473472896076601 0 #
straight-curve $-1 91.51769521116192152 138.2540891466637731 336.1584312889460762 0 0.6427876175870461672 -0.7660444364896655811 I I #
point $-1 91.51769521116192152 -238.1842489720313836 -182.6543324985400432 #
straight-curve $-1 91.51769521116192152 0 17.2059871521951635 0 0.7660444364896655811 0.6427876175870461672 I I #
point $-1 91.51769521116192152 238.1842489720313836 217.0663068029303986 #
vertex $-1 $279 $313 #
straight-curve $-1 0 360.5000445677369498 18.41007296267429183 0 -0.5877852598018022956 -0.8090169889191003438 I I #
point $-1 0 -233.9704345088708806 258.1544280178105737 #
straight-curve $-1 0 17.57516093245796185 75.39585162991022571 0 0.8090169889191003438 -0.5877852598018022956 I I #
point $-1 0 269.1207563737867758 -107.3627247579901223 #
vertex $-1 $297 $314 #
point $-1 108.495727382271923 12.36158563696963775 19.29723870380412265 #
point $-1 15.54044222354993465 80.51959615828599226 19.65636867360663231 #
End-of-ACIS-data 