600 0 13 0           
93 GICL ACIS Healer - Source: /gicl/data5/repository/Drexel/SM99-DATA/part88.smdg.feat.sat - 6 0 18 ACIS 6.0.3 Solaris 24 Sat Apr 13 20:46:32 2002 
1 9.999999999999999547e-07 1.000000000000000036e-10 
body $-1 $13 $-1 $-1 #
body $-1 $14 $-1 $-1 #
body $-1 $15 $-1 $-1 #
body $-1 $16 $-1 $-1 #
body $-1 $17 $-1 $-1 #
body $-1 $18 $-1 $-1 #
body $-1 $19 $-1 $-1 #
body $-1 $20 $-1 $-1 #
body $-1 $21 $-1 $-1 #
body $-1 $22 $-1 $-1 #
body $-1 $23 $-1 $-1 #
body $-1 $24 $-1 $-1 #
body $-1 $25 $-1 $-1 #
lump $-1 $-1 $26 $0 #
lump $-1 $-1 $27 $1 #
lump $-1 $-1 $28 $2 #
lump $-1 $-1 $29 $3 #
lump $-1 $-1 $30 $4 #
lump $-1 $-1 $31 $5 #
lump $-1 $-1 $32 $6 #
lump $-1 $-1 $33 $7 #
lump $-1 $-1 $34 $8 #
lump $-1 $-1 $35 $9 #
lump $-1 $-1 $36 $10 #
lump $-1 $-1 $37 $11 #
lump $-1 $-1 $38 $12 #
shell $-1 $-1 $-1 $39 $-1 $13 #
shell $-1 $-1 $-1 $40 $-1 $14 #
shell $-1 $-1 $-1 $41 $-1 $15 #
shell $-1 $-1 $-1 $42 $-1 $16 #
shell $-1 $-1 $-1 $43 $-1 $17 #
shell $-1 $-1 $-1 $44 $-1 $18 #
shell $-1 $-1 $-1 $45 $-1 $19 #
shell $-1 $-1 $-1 $46 $-1 $20 #
shell $-1 $-1 $-1 $47 $-1 $21 #
shell $-1 $-1 $-1 $48 $-1 $22 #
shell $-1 $-1 $-1 $49 $-1 $23 #
shell $-1 $-1 $-1 $50 $-1 $24 #
shell $-1 $-1 $-1 $51 $-1 $25 #
face $-1 $52 $53 $26 $-1 $54 forward single #
face $-1 $55 $56 $27 $-1 $57 forward single #
face $-1 $58 $59 $28 $-1 $60 forward single #
face $-1 $61 $62 $29 $-1 $63 forward single #
face $-1 $64 $65 $30 $-1 $66 forward single #
face $-1 $67 $68 $31 $-1 $69 forward single #
face $-1 $70 $71 $32 $-1 $72 forward single #
face $-1 $73 $74 $33 $-1 $75 forward single #
face $-1 $76 $77 $34 $-1 $78 forward single #
face $-1 $79 $80 $35 $-1 $81 forward single #
face $-1 $82 $83 $36 $-1 $84 forward single #
face $-1 $85 $86 $37 $-1 $87 forward single #
face $-1 $88 $89 $38 $-1 $90 forward single #
face $-1 $91 $92 $26 $-1 $93 reversed single #
loop $-1 $-1 $94 $39 #
plane-surface $-1 45.32242805261390828 21.96312663844251034 20.25833168338972357 0 0 1 1 0 0 forward_v I I I I #
face $-1 $95 $96 $27 $-1 $97 reversed single #
loop $-1 $-1 $98 $40 #
plane-surface $-1 3.38536091341275247 4.211460288119606155 20.25833168338972357 0 0 1 1 0 0 forward_v I I I I #
face $-1 $99 $100 $28 $-1 $101 reversed single #
loop $-1 $-1 $102 $41 #
plane-surface $-1 123.8710481489879101 13.68139713295515492 211.0691999135871129 0.5877852598018022956 0 0.8090169889191003438 0.8090169889191003438 0 -0.5877852598018022956 forward_v I I I I #
face $-1 $103 $104 $29 $-1 $105 forward single #
loop $-1 $106 $107 $42 #
cone-surface $-1 83.96589851742552923 11.7645979511715062 15.15096503680929985 -0.5877852598018022956 0 -0.8090169889191003438 0.4045084944595501719 0 -0.2938926299009011478 1 I I 0 1 0.5 forward I I I I #
face $-1 $108 $109 $30 $-1 $110 forward single #
loop $-1 $111 $112 $43 #
cone-surface $-1 83.96589851742552923 13.68139713295515669 15.15096503680929985 -0.5877852598018022956 0 -0.8090169889191003438 0.4045084944595501719 0 -0.2938926299009011478 1 I I 0 1 0.5 forward I I I I #
face $-1 $113 $114 $31 $-1 $115 forward single #
loop $-1 $116 $117 $44 #
cone-surface $-1 83.96589851742552923 15.59819631473880719 15.15096503680929985 -0.5877852598018022956 0 -0.8090169889191003438 0.4045084944595501719 0 -0.2938926299009011478 1 I I 0 1 0.5 forward I I I I #
face $-1 $118 $119 $32 $-1 $120 reversed single #
loop $-1 $-1 $121 $45 #
plane-surface $-1 123.8710481489879101 38.66777672016907275 211.0691999135871129 0.5877852598018022956 0 0.8090169889191003438 0.8090169889191003438 0 -0.5877852598018022956 forward_v I I I I #
face $-1 $122 $123 $33 $-1 $124 forward single #
loop $-1 $125 $126 $46 #
cone-surface $-1 83.96589851742552923 36.75097753838542758 15.15096503680929985 -0.5877852598018022956 0 -0.8090169889191003438 0.4045084944595501719 0 -0.2938926299009011478 1 I I 0 1 0.5 forward I I I I #
face $-1 $127 $128 $34 $-1 $129 forward single #
loop $-1 $130 $131 $47 #
cone-surface $-1 83.96589851742552923 38.66777672016907985 15.15096503680929985 -0.5877852598018022956 0 -0.8090169889191003438 0.4045084944595501719 0 -0.2938926299009011478 1 I I 0 1 0.5 forward I I I I #
face $-1 $132 $133 $35 $-1 $134 forward single #
loop $-1 $135 $136 $48 #
cone-surface $-1 83.96589851742552923 40.58457590195273212 15.15096503680929985 -0.5877852598018022956 0 -0.8090169889191003438 0.4045084944595501719 0 -0.2938926299009011478 1 I I 0 1 0.5 forward I I I I #
face $-1 $137 $138 $36 $-1 $139 reversed single #
loop $-1 $-1 $140 $49 #
plane-surface $-1 -153.7423967294761837 12.49699252557043039 111.1734998619662349 -0.8480481040810504689 0 0.529919251551154491 0.529919251551154491 0 0.8480481040810504689 forward_v I I I I #
face $-1 $141 $142 $37 $-1 $143 forward single #
loop $-1 $144 $145 $50 #
cone-surface $-1 2.034231219632430587 10.75096169014276626 17.41650184265797918 0.8480481040810504689 0 -0.529919251551154491 0.2649596257755772455 0 0.4240240520405252345 1 I I 0 1 0.5 forward I I I I #
face $-1 $146 $147 $38 $-1 $148 forward single #
loop $-1 $149 $150 $51 #
cone-surface $-1 2.034231219632430587 14.24302336099809629 17.41650184265797918 0.8480481040810504689 0 -0.529919251551154491 0.2649596257755772455 0 0.4240240520405252345 1 I I 0 1 0.5 forward I I I I #
face $-1 $151 $152 $26 $-1 $153 reversed single #
loop $-1 $-1 $154 $52 #
plane-surface $-1 45.32242805261390828 21.96312663844251034 0 0 0 1 1 0 0 forward_v I I I I #
coedge $-1 $155 $156 $157 $158 forward $53 $-1 #
face $-1 $159 $160 $27 $-1 $161 reversed single #
loop $-1 $-1 $162 $55 #
plane-surface $-1 3.38536091341275247 4.211460288119606155 0 0 0 1 1 0 0 forward_v I I I I #
coedge $-1 $163 $164 $165 $166 forward $56 $-1 #
face $-1 $167 $168 $28 $-1 $169 reversed single #
loop $-1 $-1 $170 $58 #
plane-surface $-1 17.31162755797128483 13.68139713295515492 64.4027428190740352 0.5877852598018022956 0 0.8090169889191003438 0.8090169889191003438 0 -0.5877852598018022956 forward_v I I I I #
coedge $-1 $171 $172 $173 $174 forward $59 $-1 #
face $-1 $-1 $175 $29 $-1 $176 forward single #
loop $-1 $-1 $177 $61 #
plane-surface $-1 84.35802592710454917 11.7645979511715062 15.69068210347772485 0.5877852598018022956 0 0.8090169889191003438 -0.8090169889191003438 0 0.5877852598018022956 forward_v I I I I #
loop $-1 $-1 $178 $42 #
coedge $-1 $107 $107 $177 $179 reversed $62 $-1 #
face $-1 $-1 $180 $30 $-1 $181 forward single #
loop $-1 $-1 $182 $64 #
plane-surface $-1 84.35802592710454917 13.68139713295515669 15.69068210347772485 0.5877852598018022956 0 0.8090169889191003438 -0.8090169889191003438 0 0.5877852598018022956 forward_v I I I I #
loop $-1 $-1 $183 $43 #
coedge $-1 $112 $112 $182 $184 reversed $65 $-1 #
face $-1 $-1 $185 $31 $-1 $186 forward single #
loop $-1 $-1 $187 $67 #
plane-surface $-1 84.35802592710454917 15.59819631473880719 15.69068210347772485 0.5877852598018022956 0 0.8090169889191003438 -0.8090169889191003438 0 0.5877852598018022956 forward_v I I I I #
loop $-1 $-1 $188 $44 #
coedge $-1 $117 $117 $187 $189 reversed $68 $-1 #
face $-1 $190 $191 $32 $-1 $192 reversed single #
loop $-1 $-1 $193 $70 #
plane-surface $-1 17.31162755797128483 38.66777672016907275 64.4027428190740352 0.5877852598018022956 0 0.8090169889191003438 0.8090169889191003438 0 -0.5877852598018022956 forward_v I I I I #
coedge $-1 $194 $195 $196 $197 forward $71 $-1 #
face $-1 $-1 $198 $33 $-1 $199 forward single #
loop $-1 $-1 $200 $73 #
plane-surface $-1 84.35802592710454917 36.75097753838542758 15.69068210347772485 0.5877852598018022956 0 0.8090169889191003438 -0.8090169889191003438 0 0.5877852598018022956 forward_v I I I I #
loop $-1 $-1 $201 $46 #
coedge $-1 $126 $126 $200 $202 reversed $74 $-1 #
face $-1 $-1 $203 $34 $-1 $204 forward single #
loop $-1 $-1 $205 $76 #
plane-surface $-1 84.35802592710454917 38.66777672016907985 15.69068210347772485 0.5877852598018022956 0 0.8090169889191003438 -0.8090169889191003438 0 0.5877852598018022956 forward_v I I I I #
loop $-1 $-1 $206 $47 #
coedge $-1 $131 $131 $205 $207 reversed $77 $-1 #
face $-1 $-1 $208 $35 $-1 $209 forward single #
loop $-1 $-1 $210 $79 #
plane-surface $-1 84.35802592710454917 40.58457590195273212 15.69068210347772485 0.5877852598018022956 0 0.8090169889191003438 -0.8090169889191003438 0 0.5877852598018022956 forward_v I I I I #
loop $-1 $-1 $211 $48 #
coedge $-1 $136 $136 $210 $212 reversed $80 $-1 #
face $-1 $213 $214 $36 $-1 $215 reversed single #
loop $-1 $-1 $216 $82 #
plane-surface $-1 -1.421085471520200372e-14 12.49699252557043039 15.10459125347739473 -0.8480481040810504689 0 0.529919251551154491 0.529919251551154491 0 0.8480481040810504689 forward_v I I I I #
coedge $-1 $217 $218 $219 $220 forward $83 $-1 #
face $-1 $-1 $221 $37 $-1 $222 forward single #
loop $-1 $-1 $223 $85 #
plane-surface $-1 1.610207167591905408 10.75096169014276626 17.68146146843355737 -0.8480481040810504689 0 0.529919251551154491 -0.529919251551154491 0 -0.8480481040810504689 forward_v I I I I #
loop $-1 $-1 $224 $50 #
coedge $-1 $145 $145 $223 $225 reversed $86 $-1 #
face $-1 $-1 $226 $38 $-1 $227 forward single #
loop $-1 $-1 $228 $88 #
plane-surface $-1 1.610207167591905408 14.24302336099809629 17.68146146843355737 -0.8480481040810504689 0 0.529919251551154491 -0.529919251551154491 0 -0.8480481040810504689 forward_v I I I I #
loop $-1 $-1 $229 $51 #
coedge $-1 $150 $150 $228 $230 reversed $89 $-1 #
face $-1 $231 $232 $26 $-1 $233 reversed single #
loop $-1 $-1 $234 $91 #
plane-surface $-1 45.32242805261390828 0 10.12916584169486178 0 1 0 0 0 1 forward_v I I I I #
coedge $-1 $235 $236 $237 $238 forward $92 $-1 #
coedge $-1 $239 $94 $240 $241 forward $53 $-1 #
coedge $-1 $94 $239 $242 $243 forward $53 $-1 #
coedge $-1 $244 $245 $94 $158 reversed $246 $-1 #
edge $-1 $247 -21.96312663844251034 $248 21.96312663844251034 $157 $249 forward 7 unknown #
face $-1 $250 $251 $27 $-1 $252 reversed single #
loop $-1 $-1 $253 $95 #
plane-surface $-1 3.38536091341275247 0 10.12916584169486178 0 1 0 0 0 1 forward_v I I I I #
coedge $-1 $254 $255 $256 $257 forward $96 $-1 #
coedge $-1 $258 $98 $259 $260 forward $56 $-1 #
coedge $-1 $98 $258 $261 $262 forward $56 $-1 #
coedge $-1 $263 $264 $98 $166 reversed $265 $-1 #
edge $-1 $266 -4.211460288119606155 $267 4.211460288119606155 $165 $268 forward 7 unknown #
face $-1 $269 $270 $28 $-1 $271 reversed single #
loop $-1 $-1 $272 $99 #
plane-surface $-1 70.59133785347960099 10.4867318299824035 137.735971366330574 0 1 0 0.5877852598018022956 0 0.8090169889191003438 forward_v I I I I #
coedge $-1 $273 $274 $275 $276 forward $100 $-1 #
coedge $-1 $277 $102 $278 $279 forward $59 $-1 #
coedge $-1 $102 $277 $280 $281 forward $59 $-1 #
coedge $-1 $282 $283 $102 $174 reversed $284 $-1 #
edge $-1 $285 -3.194665302972751419 $286 3.194665302972751419 $173 $287 forward 7 unknown #
loop $-1 $288 $289 $103 #
cone-surface $-1 83.42682479279605445 11.7645979511715062 14.4089937229110987 -0.5877852598018022956 0 -0.8090169889191003438 0.202254247229775086 0 -0.1469463149504505739 1 I I -0.7071067811865474617 0.7071067811865474617 0.25 forward I I I I #
coedge $-1 $177 $177 $107 $179 forward $104 $-1 #
coedge $-1 $178 $178 $289 $290 forward $106 $-1 #
edge $-1 $291 0 $291 6.283185307179586232 $177 $292 forward 7 unknown #
loop $-1 $293 $294 $108 #
cone-surface $-1 83.42682479279605445 13.68139713295515669 14.4089937229110987 -0.5877852598018022956 0 -0.8090169889191003438 0.202254247229775086 0 -0.1469463149504505739 1 I I -0.7071067811865474617 0.7071067811865474617 0.25 forward I I I I #
coedge $-1 $182 $182 $112 $184 forward $109 $-1 #
coedge $-1 $183 $183 $294 $295 forward $111 $-1 #
edge $-1 $296 0 $296 6.283185307179586232 $182 $297 forward 7 unknown #
loop $-1 $298 $299 $113 #
cone-surface $-1 83.42682479279605445 15.59819631473880719 14.4089937229110987 -0.5877852598018022956 0 -0.8090169889191003438 0.202254247229775086 0 -0.1469463149504505739 1 I I -0.7071067811865474617 0.7071067811865474617 0.25 forward I I I I #
coedge $-1 $187 $187 $117 $189 forward $114 $-1 #
coedge $-1 $188 $188 $299 $300 forward $116 $-1 #
edge $-1 $301 0 $301 6.283185307179586232 $187 $302 forward 7 unknown #
face $-1 $303 $304 $32 $-1 $305 reversed single #
loop $-1 $-1 $306 $118 #
plane-surface $-1 70.59133785347960099 35.47311141719632133 137.735971366330574 0 1 0 0.5877852598018022956 0 0.8090169889191003438 forward_v I I I I #
coedge $-1 $307 $308 $309 $310 forward $119 $-1 #
coedge $-1 $311 $121 $312 $313 forward $71 $-1 #
coedge $-1 $121 $311 $314 $315 forward $71 $-1 #
coedge $-1 $316 $317 $121 $197 reversed $318 $-1 #
edge $-1 $319 -3.194665302972751419 $320 3.194665302972751419 $196 $321 forward 7 unknown #
loop $-1 $322 $323 $122 #
cone-surface $-1 83.42682479279605445 36.75097753838542758 14.4089937229110987 -0.5877852598018022956 0 -0.8090169889191003438 0.202254247229775086 0 -0.1469463149504505739 1 I I -0.7071067811865474617 0.7071067811865474617 0.25 forward I I I I #
coedge $-1 $200 $200 $126 $202 forward $123 $-1 #
coedge $-1 $201 $201 $323 $324 forward $125 $-1 #
edge $-1 $325 0 $325 6.283185307179586232 $200 $326 forward 7 unknown #
loop $-1 $327 $328 $127 #
cone-surface $-1 83.42682479279605445 38.66777672016907985 14.4089937229110987 -0.5877852598018022956 0 -0.8090169889191003438 0.202254247229775086 0 -0.1469463149504505739 1 I I -0.7071067811865474617 0.7071067811865474617 0.25 forward I I I I #
coedge $-1 $205 $205 $131 $207 forward $128 $-1 #
coedge $-1 $206 $206 $328 $329 forward $130 $-1 #
edge $-1 $330 0 $330 6.283185307179586232 $205 $331 forward 7 unknown #
loop $-1 $332 $333 $132 #
cone-surface $-1 83.42682479279605445 40.58457590195273212 14.4089937229110987 -0.5877852598018022956 0 -0.8090169889191003438 0.202254247229775086 0 -0.1469463149504505739 1 I I -0.7071067811865474617 0.7071067811865474617 0.25 forward I I I I #
coedge $-1 $210 $210 $136 $212 forward $133 $-1 #
coedge $-1 $211 $211 $333 $334 forward $135 $-1 #
edge $-1 $335 0 $335 6.283185307179586232 $210 $336 forward 7 unknown #
face $-1 $337 $338 $36 $-1 $339 reversed single #
loop $-1 $-1 $340 $137 #
plane-surface $-1 -76.87119836473809187 8.422920576239210533 63.13904555772181482 0 1 0 -0.8480481040810504689 0 0.529919251551154491 forward_v I I I I #
coedge $-1 $341 $342 $343 $344 forward $138 $-1 #
coedge $-1 $345 $140 $346 $347 forward $83 $-1 #
coedge $-1 $140 $345 $348 $349 forward $83 $-1 #
coedge $-1 $350 $351 $140 $220 reversed $352 $-1 #
edge $-1 $353 -4.074071949331219855 $354 4.074071949331219855 $219 $355 forward 7 unknown #
loop $-1 $356 $357 $141 #
cone-surface $-1 2.670267297693218467 10.75096169014276626 17.01906240399461367 0.8480481040810504689 0 -0.529919251551154491 0.1324798128877886227 0 0.2120120260202626172 1 I I -0.7071067811865474617 0.7071067811865474617 0.25 forward I I I I #
coedge $-1 $223 $223 $145 $225 forward $142 $-1 #
coedge $-1 $224 $224 $357 $358 forward $144 $-1 #
edge $-1 $359 0 $359 6.283185307179586232 $223 $360 forward 7 unknown #
loop $-1 $361 $362 $146 #
cone-surface $-1 2.670267297693218467 14.24302336099809629 17.01906240399461367 0.8480481040810504689 0 -0.529919251551154491 0.1324798128877886227 0 0.2120120260202626172 1 I I -0.7071067811865474617 0.7071067811865474617 0.25 forward I I I I #
coedge $-1 $228 $228 $150 $230 forward $147 $-1 #
coedge $-1 $229 $229 $362 $363 forward $149 $-1 #
edge $-1 $364 0 $364 6.283185307179586232 $228 $365 forward 7 unknown #
face $-1 $366 $367 $26 $-1 $368 reversed single #
loop $-1 $-1 $369 $151 #
plane-surface $-1 0 21.96312663844251034 10.12916584169486178 1 0 0 0 0 -1 forward_v I I I I #
coedge $-1 $370 $242 $371 $372 forward $152 $-1 #
coedge $-1 $373 $154 $370 $374 forward $92 $-1 #
coedge $-1 $154 $373 $375 $376 forward $92 $-1 #
coedge $-1 $245 $244 $154 $238 reversed $246 $-1 #
edge $-1 $377 -21.96312663844251034 $378 21.96312663844251034 $237 $379 forward 7 unknown #
coedge $-1 $156 $155 $380 $381 forward $53 $-1 #
coedge $-1 $382 $383 $155 $241 reversed $367 $-1 #
edge $-1 $248 -45.32242805261390828 $384 45.32242805261390828 $240 $385 forward 7 unknown #
coedge $-1 $234 $386 $156 $243 reversed $152 $-1 #
edge $-1 $387 -45.32242805261390828 $247 45.32242805261390828 $242 $388 forward 7 unknown #
coedge $-1 $237 $157 $386 $389 forward $246 $-1 #
coedge $-1 $157 $237 $382 $390 reversed $246 $-1 #
loop $-1 $-1 $244 $366 #
vertex $-1 $158 $391 #
vertex $-1 $158 $392 #
straight-curve $-1 90.64485610522781656 21.96312663844251034 20.25833168338972357 0 1 0 I I #
face $-1 $393 $394 $27 $-1 $395 reversed single #
loop $-1 $-1 $396 $159 #
plane-surface $-1 0.5 4.211460288119606155 10.12916584169486178 1 0 0 0 0 -1 forward_v I I I I #
coedge $-1 $397 $261 $398 $399 forward $160 $-1 #
coedge $-1 $400 $162 $397 $401 forward $96 $-1 #
coedge $-1 $162 $400 $402 $403 forward $96 $-1 #
coedge $-1 $264 $263 $162 $257 reversed $265 $-1 #
edge $-1 $404 -4.211460288119606155 $405 4.211460288119606155 $256 $406 forward 7 unknown #
coedge $-1 $164 $163 $407 $408 forward $56 $-1 #
coedge $-1 $409 $410 $163 $260 reversed $394 $-1 #
edge $-1 $267 -2.88536091341275247 $411 2.88536091341275247 $259 $412 forward 7 unknown #
coedge $-1 $253 $413 $164 $262 reversed $160 $-1 #
edge $-1 $414 -2.88536091341275247 $266 2.88536091341275247 $261 $415 forward 7 unknown #
coedge $-1 $256 $165 $413 $416 forward $265 $-1 #
coedge $-1 $165 $256 $409 $417 reversed $265 $-1 #
loop $-1 $-1 $263 $393 #
vertex $-1 $166 $418 #
vertex $-1 $166 $419 #
straight-curve $-1 6.270721826825504941 4.211460288119606155 20.25833168338972357 0 1 0 I I #
face $-1 $420 $421 $28 $-1 $422 reversed single #
loop $-1 $-1 $423 $167 #
plane-surface $-1 -76.07511924103347667 13.68139713295515492 244.2953919573471921 0.8090169889191003438 0 -0.5877852598018022956 -0.5877852598018022956 0 -0.8090169889191003438 forward_v I I I I #
coedge $-1 $424 $280 $425 $426 forward $168 $-1 #
coedge $-1 $427 $170 $424 $428 forward $100 $-1 #
coedge $-1 $170 $427 $429 $430 forward $100 $-1 #
coedge $-1 $283 $282 $170 $276 reversed $284 $-1 #
edge $-1 $431 -3.194665302972751419 $432 3.194665302972751419 $275 $433 forward 7 unknown #
coedge $-1 $172 $171 $434 $435 forward $59 $-1 #
coedge $-1 $436 $437 $171 $279 reversed $421 $-1 #
edge $-1 $286 -181.2897122104556615 $438 181.2897122104556331 $278 $439 forward 7 unknown #
coedge $-1 $272 $440 $172 $281 reversed $168 $-1 #
edge $-1 $441 -181.2897122104556331 $285 181.2897122104556615 $280 $442 forward 7 unknown #
coedge $-1 $275 $173 $440 $443 forward $284 $-1 #
coedge $-1 $173 $275 $436 $444 reversed $284 $-1 #
loop $-1 $-1 $282 $420 #
vertex $-1 $174 $445 #
vertex $-1 $174 $446 #
straight-curve $-1 270.5375052435010161 13.68139713295515492 104.5097793225704805 0 1 0 I I #
loop $-1 $-1 $447 $103 #
coedge $-1 $289 $289 $178 $290 reversed $175 $-1 #
edge $-1 $448 0 $448 6.283185307179586232 $289 $449 forward 7 unknown #
vertex $-1 $179 $450 #
ellipse-curve $-1 84.35802592710454917 11.7645979511715062 15.69068210347772485 0.5877852598018022956 0 0.8090169889191003438 0.4045084944595501719 0 -0.2938926299009011478 1 I I #
loop $-1 $-1 $451 $108 #
coedge $-1 $294 $294 $183 $295 reversed $180 $-1 #
edge $-1 $452 0 $452 6.283185307179586232 $294 $453 forward 7 unknown #
vertex $-1 $184 $454 #
ellipse-curve $-1 84.35802592710454917 13.68139713295515669 15.69068210347772485 0.5877852598018022956 0 0.8090169889191003438 0.4045084944595501719 0 -0.2938926299009011478 1 I I #
loop $-1 $-1 $455 $113 #
coedge $-1 $299 $299 $188 $300 reversed $185 $-1 #
edge $-1 $456 0 $456 6.283185307179586232 $299 $457 forward 7 unknown #
vertex $-1 $189 $458 #
ellipse-curve $-1 84.35802592710454917 15.59819631473880719 15.69068210347772485 0.5877852598018022956 0 0.8090169889191003438 0.4045084944595501719 0 -0.2938926299009011478 1 I I #
face $-1 $459 $460 $32 $-1 $461 reversed single #
loop $-1 $-1 $462 $190 #
plane-surface $-1 -76.07511924103347667 38.66777672016907275 244.2953919573471921 0.8090169889191003438 0 -0.5877852598018022956 -0.5877852598018022956 0 -0.8090169889191003438 forward_v I I I I #
coedge $-1 $463 $314 $464 $465 forward $191 $-1 #
coedge $-1 $466 $193 $463 $467 forward $119 $-1 #
coedge $-1 $193 $466 $468 $469 forward $119 $-1 #
coedge $-1 $317 $316 $193 $310 reversed $318 $-1 #
edge $-1 $470 -3.194665302972751419 $471 3.194665302972751419 $309 $472 forward 7 unknown #
coedge $-1 $195 $194 $473 $474 forward $71 $-1 #
coedge $-1 $475 $476 $194 $313 reversed $460 $-1 #
edge $-1 $320 -181.2897122104556615 $477 181.2897122104556331 $312 $478 forward 7 unknown #
coedge $-1 $306 $479 $195 $315 reversed $191 $-1 #
edge $-1 $480 -181.2897122104556331 $319 181.2897122104556615 $314 $481 forward 7 unknown #
coedge $-1 $309 $196 $479 $482 forward $318 $-1 #
coedge $-1 $196 $309 $475 $483 reversed $318 $-1 #
loop $-1 $-1 $316 $459 #
vertex $-1 $197 $484 #
vertex $-1 $197 $485 #
straight-curve $-1 270.5375052435010161 38.66777672016907275 104.5097793225704805 0 1 0 I I #
loop $-1 $-1 $486 $122 #
coedge $-1 $323 $323 $201 $324 reversed $198 $-1 #
edge $-1 $487 0 $487 6.283185307179586232 $323 $488 forward 7 unknown #
vertex $-1 $202 $489 #
ellipse-curve $-1 84.35802592710454917 36.75097753838542758 15.69068210347772485 0.5877852598018022956 0 0.8090169889191003438 0.4045084944595501719 0 -0.2938926299009011478 1 I I #
loop $-1 $-1 $490 $127 #
coedge $-1 $328 $328 $206 $329 reversed $203 $-1 #
edge $-1 $491 0 $491 6.283185307179586232 $328 $492 forward 7 unknown #
vertex $-1 $207 $493 #
ellipse-curve $-1 84.35802592710454917 38.66777672016907985 15.69068210347772485 0.5877852598018022956 0 0.8090169889191003438 0.4045084944595501719 0 -0.2938926299009011478 1 I I #
loop $-1 $-1 $494 $132 #
coedge $-1 $333 $333 $211 $334 reversed $208 $-1 #
edge $-1 $495 0 $495 6.283185307179586232 $333 $496 forward 7 unknown #
vertex $-1 $212 $497 #
ellipse-curve $-1 84.35802592710454917 40.58457590195273212 15.69068210347772485 0.5877852598018022956 0 0.8090169889191003438 0.4045084944595501719 0 -0.2938926299009011478 1 I I #
face $-1 $498 $499 $36 $-1 $500 reversed single #
loop $-1 $-1 $501 $213 #
plane-surface $-1 -172.940106973226932 12.49699252557043039 -90.6033511717543405 0.529919251551154491 0 0.8480481040810504689 0.8480481040810504689 0 -0.529919251551154491 forward_v I I I I #
coedge $-1 $502 $348 $503 $504 forward $214 $-1 #
coedge $-1 $505 $216 $502 $506 forward $138 $-1 #
coedge $-1 $216 $505 $507 $508 forward $138 $-1 #
coedge $-1 $351 $350 $216 $344 reversed $352 $-1 #
edge $-1 $509 -4.074071949331219855 $510 4.074071949331219855 $343 $511 forward 7 unknown #
coedge $-1 $218 $217 $512 $513 forward $83 $-1 #
coedge $-1 $514 $515 $217 $347 reversed $499 $-1 #
edge $-1 $354 -181.2897122104556331 $516 181.2897122104556047 $346 $517 forward 7 unknown #
coedge $-1 $340 $518 $218 $349 reversed $214 $-1 #
edge $-1 $519 -181.2897122104556047 $353 181.2897122104556331 $348 $520 forward 7 unknown #
coedge $-1 $343 $219 $518 $521 forward $352 $-1 #
coedge $-1 $219 $343 $514 $522 reversed $352 $-1 #
loop $-1 $-1 $350 $498 #
vertex $-1 $220 $523 #
vertex $-1 $220 $524 #
straight-curve $-1 -57.67348812098732935 12.49699252557043039 264.9158965914423902 0 1 0 I I #
loop $-1 $-1 $525 $141 #
coedge $-1 $357 $357 $224 $358 reversed $221 $-1 #
edge $-1 $526 0 $526 6.283185307179586232 $357 $527 forward 7 unknown #
vertex $-1 $225 $528 #
ellipse-curve $-1 1.610207167591905408 10.75096169014276626 17.68146146843355737 -0.8480481040810504689 0 0.529919251551154491 0.2649596257755772455 0 0.4240240520405252345 1 I I #
loop $-1 $-1 $529 $146 #
coedge $-1 $362 $362 $229 $363 reversed $226 $-1 #
edge $-1 $530 0 $530 6.283185307179586232 $362 $531 forward 7 unknown #
vertex $-1 $230 $532 #
ellipse-curve $-1 1.610207167591905408 14.24302336099809629 17.68146146843355737 -0.8480481040810504689 0 0.529919251551154491 0.2649596257755772455 0 0.4240240520405252345 1 I I #
face $-1 $-1 $246 $26 $-1 $533 reversed single #
loop $-1 $-1 $382 $231 #
plane-surface $-1 45.32242805261390828 43.92625327688502068 10.12916584169486178 0 -1 0 0 0 -1 forward_v I I I I #
coedge $-1 $534 $380 $383 $535 forward $232 $-1 #
coedge $-1 $386 $234 $235 $374 reversed $152 $-1 #
coedge $-1 $380 $534 $234 $372 reversed $232 $-1 #
edge $-1 $387 -10.12916584169486178 $536 10.12916584169486178 $371 $537 forward 7 unknown #
coedge $-1 $236 $235 $534 $538 forward $92 $-1 #
edge $-1 $378 -45.32242805261390828 $536 45.32242805261390828 $370 $539 forward 7 unknown #
coedge $-1 $383 $382 $236 $376 reversed $367 $-1 #
edge $-1 $540 -45.32242805261390828 $377 45.32242805261390828 $375 $541 forward 7 unknown #
vertex $-1 $238 $542 #
vertex $-1 $389 $543 #
straight-curve $-1 90.64485610522781656 21.96312663844251034 0 0 -1 0 I I #
coedge $-1 $369 $371 $239 $381 reversed $232 $-1 #
edge $-1 $384 -21.96312663844251034 $387 21.96312663844251034 $380 $544 forward 7 unknown #
coedge $-1 $375 $240 $245 $390 forward $367 $-1 #
coedge $-1 $240 $375 $369 $535 reversed $367 $-1 #
vertex $-1 $241 $545 #
straight-curve $-1 45.32242805261390828 43.92625327688502068 20.25833168338972357 -1 0 0 I I #
coedge $-1 $242 $370 $244 $389 reversed $152 $-1 #
vertex $-1 $381 $546 #
straight-curve $-1 45.32242805261390828 0 20.25833168338972357 1 0 0 I I #
edge $-1 $247 -10.12916584169486178 $378 10.12916584169486178 $244 $547 forward 7 unknown #
edge $-1 $248 -10.12916584169486178 $377 10.12916584169486178 $245 $548 forward 7 unknown #
point $-1 90.64485610522781656 0 20.25833168338972357 #
point $-1 90.64485610522781656 43.92625327688502068 20.25833168338972357 #
face $-1 $-1 $265 $27 $-1 $549 reversed single #
loop $-1 $-1 $409 $250 #
plane-surface $-1 3.38536091341275247 8.422920576239212309 10.12916584169486178 0 -1 0 0 0 -1 forward_v I I I I #
coedge $-1 $550 $407 $410 $551 forward $251 $-1 #
coedge $-1 $413 $253 $254 $401 reversed $160 $-1 #
coedge $-1 $407 $550 $253 $399 reversed $251 $-1 #
edge $-1 $414 -10.12916584169486178 $552 10.12916584169486178 $398 $553 forward 7 unknown #
coedge $-1 $255 $254 $550 $554 forward $96 $-1 #
edge $-1 $405 -2.88536091341275247 $552 2.88536091341275247 $397 $555 forward 7 unknown #
coedge $-1 $410 $409 $255 $403 reversed $394 $-1 #
edge $-1 $556 -2.88536091341275247 $404 2.88536091341275247 $402 $557 forward 7 unknown #
vertex $-1 $257 $558 #
vertex $-1 $416 $559 #
straight-curve $-1 6.270721826825504941 4.211460288119606155 0 0 -1 0 I I #
coedge $-1 $396 $398 $258 $408 reversed $251 $-1 #
edge $-1 $411 -4.211460288119606155 $414 4.211460288119606155 $407 $560 forward 7 unknown #
coedge $-1 $402 $259 $264 $417 forward $394 $-1 #
coedge $-1 $259 $402 $396 $551 reversed $394 $-1 #
vertex $-1 $260 $561 #
straight-curve $-1 3.38536091341275247 8.422920576239212309 20.25833168338972357 -1 0 0 I I #
coedge $-1 $261 $397 $263 $416 reversed $160 $-1 #
vertex $-1 $408 $562 #
straight-curve $-1 3.38536091341275247 0 20.25833168338972357 1 0 0 I I #
edge $-1 $266 -10.12916584169486178 $405 10.12916584169486178 $263 $563 forward 7 unknown #
edge $-1 $267 -10.12916584169486178 $404 10.12916584169486178 $264 $564 forward 7 unknown #
point $-1 6.270721826825504941 0 20.25833168338972357 #
point $-1 6.270721826825504941 8.422920576239212309 20.25833168338972357 #
face $-1 $-1 $284 $28 $-1 $565 reversed single #
loop $-1 $-1 $436 $269 #
plane-surface $-1 70.59133785347960099 16.87606243592790634 137.735971366330574 0 -1 0 -0.5877852598018022956 0 -0.8090169889191003438 forward_v I I I I #
coedge $-1 $566 $434 $437 $567 forward $270 $-1 #
coedge $-1 $440 $272 $273 $428 reversed $168 $-1 #
coedge $-1 $434 $566 $272 $426 reversed $270 $-1 #
edge $-1 $441 -90.64485610522784498 $568 90.64485610522778813 $425 $569 forward 7 unknown #
coedge $-1 $274 $273 $566 $570 forward $100 $-1 #
edge $-1 $432 -181.2897122104556047 $568 181.2897122104556331 $424 $571 forward 7 unknown #
coedge $-1 $437 $436 $274 $430 reversed $421 $-1 #
edge $-1 $572 -181.2897122104556331 $431 181.2897122104556047 $429 $573 forward 7 unknown #
vertex $-1 $276 $574 #
vertex $-1 $443 $575 #
straight-curve $-1 163.9780846524843696 13.68139713295515492 -42.15667777194258292 0 -1 0 I I #
coedge $-1 $423 $425 $277 $435 reversed $270 $-1 #
edge $-1 $438 -3.194665302972751419 $441 3.194665302972751419 $434 $576 forward 7 unknown #
coedge $-1 $429 $278 $283 $444 forward $421 $-1 #
coedge $-1 $278 $429 $423 $567 reversed $421 $-1 #
vertex $-1 $279 $577 #
straight-curve $-1 123.8710481489879101 16.87606243592790634 211.0691999135871129 -0.8090169889191003438 0 0.5877852598018022956 I I #
coedge $-1 $280 $424 $282 $443 reversed $168 $-1 #
vertex $-1 $435 $578 #
straight-curve $-1 123.8710481489879101 10.4867318299824035 211.0691999135871129 0.8090169889191003438 0 -0.5877852598018022956 I I #
edge $-1 $285 -90.64485610522781656 $432 90.64485610522780235 $282 $579 forward 7 unknown #
edge $-1 $286 -90.64485610522781656 $431 90.64485610522780235 $283 $580 forward 7 unknown #
point $-1 270.5375052435010161 10.4867318299824035 104.5097793225704805 #
point $-1 270.5375052435010161 16.87606243592790634 104.5097793225704805 #
coedge $-1 $447 $447 $-1 $581 reversed $288 $-1 #
vertex $-1 $290 $582 #
ellipse-curve $-1 83.5737711077465093 11.7645979511715062 14.61124797014087306 0.5877852598018022956 0 0.8090169889191003438 0.4045084944595501719 0 -0.2938926299009011478 1 I I #
point $-1 84.7625344215640979 11.7645979511715062 15.39678947357682404 #
coedge $-1 $451 $451 $-1 $583 reversed $293 $-1 #
vertex $-1 $295 $584 #
ellipse-curve $-1 83.5737711077465093 13.68139713295515669 14.61124797014087306 0.5877852598018022956 0 0.8090169889191003438 0.4045084944595501719 0 -0.2938926299009011478 1 I I #
point $-1 84.7625344215640979 13.68139713295515669 15.39678947357682404 #
coedge $-1 $455 $455 $-1 $585 reversed $298 $-1 #
vertex $-1 $300 $586 #
ellipse-curve $-1 83.5737711077465093 15.59819631473880719 14.61124797014087306 0.5877852598018022956 0 0.8090169889191003438 0.4045084944595501719 0 -0.2938926299009011478 1 I I #
point $-1 84.7625344215640979 15.59819631473880719 15.39678947357682404 #
face $-1 $-1 $318 $32 $-1 $587 reversed single #
loop $-1 $-1 $475 $303 #
plane-surface $-1 70.59133785347960099 41.86244202314182417 137.735971366330574 0 -1 0 -0.5877852598018022956 0 -0.8090169889191003438 forward_v I I I I #
coedge $-1 $588 $473 $476 $589 forward $304 $-1 #
coedge $-1 $479 $306 $307 $467 reversed $191 $-1 #
coedge $-1 $473 $588 $306 $465 reversed $304 $-1 #
edge $-1 $480 -90.64485610522784498 $590 90.64485610522778813 $464 $591 forward 7 unknown #
coedge $-1 $308 $307 $588 $592 forward $119 $-1 #
edge $-1 $471 -181.2897122104556047 $590 181.2897122104556331 $463 $593 forward 7 unknown #
coedge $-1 $476 $475 $308 $469 reversed $460 $-1 #
edge $-1 $594 -181.2897122104556331 $470 181.2897122104556047 $468 $595 forward 7 unknown #
vertex $-1 $310 $596 #
vertex $-1 $482 $597 #
straight-curve $-1 163.9780846524843696 38.66777672016907275 -42.15667777194258292 0 -1 0 I I #
coedge $-1 $462 $464 $311 $474 reversed $304 $-1 #
edge $-1 $477 -3.194665302972751419 $480 3.194665302972751419 $473 $598 forward 7 unknown #
coedge $-1 $468 $312 $317 $483 forward $460 $-1 #
coedge $-1 $312 $468 $462 $589 reversed $460 $-1 #
vertex $-1 $313 $599 #
straight-curve $-1 123.8710481489879101 41.86244202314182417 211.0691999135871129 -0.8090169889191003438 0 0.5877852598018022956 I I #
coedge $-1 $314 $463 $316 $482 reversed $191 $-1 #
vertex $-1 $474 $600 #
straight-curve $-1 123.8710481489879101 35.47311141719632133 211.0691999135871129 0.8090169889191003438 0 -0.5877852598018022956 I I #
edge $-1 $319 -90.64485610522781656 $471 90.64485610522780235 $316 $601 forward 7 unknown #
edge $-1 $320 -90.64485610522781656 $470 90.64485610522780235 $317 $602 forward 7 unknown #
point $-1 270.5375052435010161 35.47311141719632133 104.5097793225704805 #
point $-1 270.5375052435010161 41.86244202314182417 104.5097793225704805 #
coedge $-1 $486 $486 $-1 $603 reversed $322 $-1 #
vertex $-1 $324 $604 #
ellipse-curve $-1 83.5737711077465093 36.75097753838542758 14.61124797014087306 0.5877852598018022956 0 0.8090169889191003438 0.4045084944595501719 0 -0.2938926299009011478 1 I I #
point $-1 84.7625344215640979 36.75097753838542758 15.39678947357682404 #
coedge $-1 $490 $490 $-1 $605 reversed $327 $-1 #
vertex $-1 $329 $606 #
ellipse-curve $-1 83.5737711077465093 38.66777672016907985 14.61124797014087306 0.5877852598018022956 0 0.8090169889191003438 0.4045084944595501719 0 -0.2938926299009011478 1 I I #
point $-1 84.7625344215640979 38.66777672016907985 15.39678947357682404 #
coedge $-1 $494 $494 $-1 $607 reversed $332 $-1 #
vertex $-1 $334 $608 #
ellipse-curve $-1 83.5737711077465093 40.58457590195273212 14.61124797014087306 0.5877852598018022956 0 0.8090169889191003438 0.4045084944595501719 0 -0.2938926299009011478 1 I I #
point $-1 84.7625344215640979 40.58457590195273212 15.39678947357682404 #
face $-1 $-1 $352 $36 $-1 $609 reversed single #
loop $-1 $-1 $514 $337 #
plane-surface $-1 -76.87119836473809187 16.57106447490165024 63.13904555772181482 0 -1 0 0.8480481040810504689 0 -0.529919251551154491 forward_v I I I I #
coedge $-1 $610 $512 $515 $611 forward $338 $-1 #
coedge $-1 $518 $340 $341 $506 reversed $214 $-1 #
coedge $-1 $512 $610 $340 $504 reversed $338 $-1 #
edge $-1 $519 -90.64485610522783077 $612 90.64485610522780235 $503 $613 forward 7 unknown #
coedge $-1 $342 $341 $610 $614 forward $138 $-1 #
edge $-1 $510 -181.2897122104556331 $612 181.2897122104556047 $502 $615 forward 7 unknown #
coedge $-1 $515 $514 $342 $508 reversed $499 $-1 #
edge $-1 $616 -181.2897122104556047 $509 181.2897122104556331 $507 $617 forward 7 unknown #
vertex $-1 $344 $618 #
vertex $-1 $521 $619 #
straight-curve $-1 96.06890860848884017 12.49699252557043039 168.84698798295355 0 -1 0 I I #
coedge $-1 $501 $503 $345 $513 reversed $338 $-1 #
edge $-1 $516 -4.074071949331219855 $519 4.074071949331219855 $512 $620 forward 7 unknown #
coedge $-1 $507 $346 $351 $522 forward $499 $-1 #
coedge $-1 $346 $507 $501 $611 reversed $499 $-1 #
vertex $-1 $347 $621 #
straight-curve $-1 -153.7423967294761837 16.57106447490165024 111.1734998619662349 -0.529919251551154491 0 -0.8480481040810504689 I I #
coedge $-1 $348 $502 $350 $521 reversed $214 $-1 #
vertex $-1 $513 $622 #
straight-curve $-1 -153.7423967294761837 8.422920576239210533 111.1734998619662349 0.529919251551154491 0 0.8480481040810504689 I I #
edge $-1 $353 -90.64485610522781656 $510 90.64485610522781656 $350 $623 forward 7 unknown #
edge $-1 $354 -90.64485610522781656 $509 90.64485610522781656 $351 $624 forward 7 unknown #
point $-1 -57.67348812098732935 8.422920576239210533 264.9158965914423902 #
point $-1 -57.67348812098732935 16.57106447490165024 264.9158965914423902 #
coedge $-1 $525 $525 $-1 $625 reversed $356 $-1 #
vertex $-1 $358 $626 #
ellipse-curve $-1 2.458255271672955988 10.75096169014276626 17.15154221688240099 -0.8480481040810504689 0 0.529919251551154491 0.2649596257755772455 0 0.4240240520405252345 1 I I #
point $-1 1.875166793367482709 10.75096169014276626 18.10548552047408322 #
coedge $-1 $529 $529 $-1 $627 reversed $361 $-1 #
vertex $-1 $363 $628 #
ellipse-curve $-1 2.458255271672955988 14.24302336099809629 17.15154221688240099 -0.8480481040810504689 0 0.529919251551154491 0.2649596257755772455 0 0.4240240520405252345 1 I I #
point $-1 1.875166793367482709 14.24302336099809629 18.10548552047408322 #
plane-surface $-1 90.64485610522781656 21.96312663844251034 10.12916584169486178 -1 0 0 0 0 1 forward_v I I I I #
coedge $-1 $371 $369 $373 $538 reversed $232 $-1 #
edge $-1 $384 -10.12916584169486178 $540 10.12916584169486178 $383 $629 forward 7 unknown #
vertex $-1 $538 $630 #
straight-curve $-1 0 0 10.12916584169486178 0 0 -1 I I #
edge $-1 $536 -21.96312663844251034 $540 21.96312663844251034 $534 $631 forward 7 unknown #
straight-curve $-1 45.32242805261390828 0 0 -1 0 0 I I #
vertex $-1 $376 $632 #
straight-curve $-1 45.32242805261390828 43.92625327688502068 0 1 0 0 I I #
point $-1 90.64485610522781656 43.92625327688502068 0 #
point $-1 90.64485610522781656 0 0 #
straight-curve $-1 0 21.96312663844251034 20.25833168338972357 0 -1 0 I I #
point $-1 0 43.92625327688502068 20.25833168338972357 #
point $-1 0 0 20.25833168338972357 #
straight-curve $-1 90.64485610522781656 0 10.12916584169486178 0 0 -1 I I #
straight-curve $-1 90.64485610522781656 43.92625327688502068 10.12916584169486178 0 0 -1 I I #
plane-surface $-1 6.270721826825504941 4.211460288119606155 10.12916584169486178 -1 0 0 0 0 1 forward_v I I I I #
coedge $-1 $398 $396 $400 $554 reversed $251 $-1 #
edge $-1 $411 -10.12916584169486178 $556 10.12916584169486178 $410 $633 forward 7 unknown #
vertex $-1 $554 $634 #
straight-curve $-1 0.5 0 10.12916584169486178 0 0 -1 I I #
edge $-1 $552 -4.211460288119606155 $556 4.211460288119606155 $550 $635 forward 7 unknown #
straight-curve $-1 3.38536091341275247 0 0 -1 0 0 I I #
vertex $-1 $403 $636 #
straight-curve $-1 3.38536091341275247 8.422920576239212309 0 1 0 0 I I #
point $-1 6.270721826825504941 8.422920576239212309 0 #
point $-1 6.270721826825504941 0 0 #
straight-curve $-1 0.5 4.211460288119606155 20.25833168338972357 0 -1 0 I I #
point $-1 0.5 8.422920576239212309 20.25833168338972357 #
point $-1 0.5 0 20.25833168338972357 #
straight-curve $-1 6.270721826825504941 0 10.12916584169486178 0 0 -1 I I #
straight-curve $-1 6.270721826825504941 8.422920576239212309 10.12916584169486178 0 0 -1 I I #
plane-surface $-1 217.2577949479926929 13.68139713295515492 31.1765507753139417 -0.8090169889191003438 0 0.5877852598018022956 0.5877852598018022956 0 0.8090169889191003438 forward_v I I I I #
coedge $-1 $425 $423 $427 $570 reversed $270 $-1 #
edge $-1 $438 -90.64485610522784498 $572 90.64485610522778813 $437 $637 forward 7 unknown #
vertex $-1 $570 $638 #
straight-curve $-1 -76.07511924103347667 10.4867318299824035 244.2953919573471921 -0.5877852598018022956 0 -0.8090169889191003438 I I #
edge $-1 $568 -3.194665302972751419 $572 3.194665302972751419 $566 $639 forward 7 unknown #
straight-curve $-1 17.31162755797128483 10.4867318299824035 64.4027428190740352 -0.8090169889191003438 0 0.5877852598018022956 I I #
vertex $-1 $430 $640 #
straight-curve $-1 17.31162755797128483 16.87606243592790634 64.4027428190740352 0.8090169889191003438 0 -0.5877852598018022956 I I #
point $-1 163.9780846524843696 16.87606243592790634 -42.15667777194258292 #
point $-1 163.9780846524843696 10.4867318299824035 -42.15667777194258292 #
straight-curve $-1 -22.7954089455251534 13.68139713295515492 317.6286205046037594 0 -1 0 I I #
point $-1 -22.7954089455251534 16.87606243592790634 317.6286205046037594 #
point $-1 -22.7954089455251534 10.4867318299824035 317.6286205046037594 #
straight-curve $-1 217.2577949479926929 10.4867318299824035 31.1765507753139417 -0.5877852598018022956 0 -0.8090169889191003438 I I #
straight-curve $-1 217.2577949479926929 16.87606243592790634 31.1765507753139417 -0.5877852598018022956 0 -0.8090169889191003438 I I #
edge $-1 $641 1 $641 0 $447 $-1 forward 7 unknown #
point $-1 83.97827960220605803 11.7645979511715062 14.31735534023997225 #
edge $-1 $642 1 $642 0 $451 $-1 forward 7 unknown #
point $-1 83.97827960220605803 13.68139713295515669 14.31735534023997225 #
edge $-1 $643 1 $643 0 $455 $-1 forward 7 unknown #
point $-1 83.97827960220605803 15.59819631473880719 14.31735534023997225 #
plane-surface $-1 217.2577949479926929 38.66777672016907275 31.1765507753139417 -0.8090169889191003438 0 0.5877852598018022956 0.5877852598018022956 0 0.8090169889191003438 forward_v I I I I #
coedge $-1 $464 $462 $466 $592 reversed $304 $-1 #
edge $-1 $477 -90.64485610522784498 $594 90.64485610522778813 $476 $644 forward 7 unknown #
vertex $-1 $592 $645 #
straight-curve $-1 -76.07511924103347667 35.47311141719632133 244.2953919573471921 -0.5877852598018022956 0 -0.8090169889191003438 I I #
edge $-1 $590 -3.194665302972751419 $594 3.194665302972751419 $588 $646 forward 7 unknown #
straight-curve $-1 17.31162755797128483 35.47311141719632133 64.4027428190740352 -0.8090169889191003438 0 0.5877852598018022956 I I #
vertex $-1 $469 $647 #
straight-curve $-1 17.31162755797128483 41.86244202314182417 64.4027428190740352 0.8090169889191003438 0 -0.5877852598018022956 I I #
point $-1 163.9780846524843696 41.86244202314182417 -42.15667777194258292 #
point $-1 163.9780846524843696 35.47311141719632133 -42.15667777194258292 #
straight-curve $-1 -22.7954089455251534 38.66777672016907275 317.6286205046037594 0 -1 0 I I #
point $-1 -22.7954089455251534 41.86244202314182417 317.6286205046037594 #
point $-1 -22.7954089455251534 35.47311141719632133 317.6286205046037594 #
straight-curve $-1 217.2577949479926929 35.47311141719632133 31.1765507753139417 -0.5877852598018022956 0 -0.8090169889191003438 I I #
straight-curve $-1 217.2577949479926929 41.86244202314182417 31.1765507753139417 -0.5877852598018022956 0 -0.8090169889191003438 I I #
edge $-1 $648 1 $648 0 $486 $-1 forward 7 unknown #
point $-1 83.97827960220605803 36.75097753838542758 14.31735534023997225 #
edge $-1 $649 1 $649 0 $490 $-1 forward 7 unknown #
point $-1 83.97827960220605803 38.66777672016907985 14.31735534023997225 #
edge $-1 $650 1 $650 0 $494 $-1 forward 7 unknown #
point $-1 83.97827960220605803 40.58457590195273212 14.31735534023997225 #
plane-surface $-1 19.1977102437507483 12.49699252557043039 216.8814422871979559 -0.529919251551154491 0 -0.8480481040810504689 -0.8480481040810504689 0 0.529919251551154491 forward_v I I I I #
coedge $-1 $503 $501 $505 $614 reversed $338 $-1 #
edge $-1 $516 -90.64485610522783077 $616 90.64485610522780235 $515 $651 forward 7 unknown #
vertex $-1 $614 $652 #
straight-curve $-1 -172.940106973226932 8.422920576239210533 -90.6033511717543405 0.8480481040810504689 0 -0.529919251551154491 I I #
edge $-1 $612 -4.074071949331219855 $616 4.074071949331219855 $610 $653 forward 7 unknown #
straight-curve $-1 -1.421085471520200372e-14 8.422920576239210533 15.10459125347739473 -0.529919251551154491 0 -0.8480481040810504689 I I #
vertex $-1 $508 $654 #
straight-curve $-1 -1.421085471520200372e-14 16.57106447490165024 15.10459125347739473 0.529919251551154491 0 0.8480481040810504689 I I #
point $-1 96.06890860848884017 16.57106447490165024 168.84698798295355 #
point $-1 96.06890860848884017 8.422920576239210533 168.84698798295355 #
straight-curve $-1 -249.8113053379650239 12.49699252557043039 -42.56889686750992041 0 -1 0 I I #
point $-1 -249.8113053379650239 16.57106447490165024 -42.56889686750992041 #
point $-1 -249.8113053379650239 8.422920576239210533 -42.56889686750992041 #
straight-curve $-1 19.1977102437507483 8.422920576239210533 216.8814422871979559 0.8480481040810504689 0 -0.529919251551154491 I I #
straight-curve $-1 19.1977102437507483 16.57106447490165024 216.8814422871979559 0.8480481040810504689 0 -0.529919251551154491 I I #
edge $-1 $655 1 $655 0 $525 $-1 forward 7 unknown #
point $-1 2.723214897448533289 10.75096169014276626 17.57556626892292684 #
edge $-1 $656 1 $656 0 $529 $-1 forward 7 unknown #
point $-1 2.723214897448533289 14.24302336099809629 17.57556626892292684 #
straight-curve $-1 0 43.92625327688502068 10.12916584169486178 0 0 -1 I I #
point $-1 0 0 0 #
straight-curve $-1 0 21.96312663844251034 0 0 1 0 I I #
point $-1 0 43.92625327688502068 0 #
straight-curve $-1 0.5 8.422920576239212309 10.12916584169486178 0 0 -1 I I #
point $-1 0.5 0 0 #
straight-curve $-1 0.5 4.211460288119606155 0 0 1 0 I I #
point $-1 0.5 8.422920576239212309 0 #
straight-curve $-1 -76.07511924103347667 16.87606243592790634 244.2953919573471921 -0.5877852598018022956 0 -0.8090169889191003438 I I #
point $-1 -129.3548295365417857 10.4867318299824035 170.9621634100906817 #
straight-curve $-1 -129.3548295365417857 13.68139713295515492 170.9621634100906817 0 1 0 I I #
point $-1 -129.3548295365417857 16.87606243592790634 170.9621634100906817 #
vertex $-1 $581 $657 #
vertex $-1 $583 $658 #
vertex $-1 $585 $659 #
straight-curve $-1 -76.07511924103347667 41.86244202314182417 244.2953919573471921 -0.5877852598018022956 0 -0.8090169889191003438 I I #
point $-1 -129.3548295365417857 35.47311141719632133 170.9621634100906817 #
straight-curve $-1 -129.3548295365417857 38.66777672016907275 170.9621634100906817 0 1 0 I I #
point $-1 -129.3548295365417857 41.86244202314182417 170.9621634100906817 #
vertex $-1 $603 $660 #
vertex $-1 $605 $661 #
vertex $-1 $607 $662 #
straight-curve $-1 -172.940106973226932 16.57106447490165024 -90.6033511717543405 0.8480481040810504689 0 -0.529919251551154491 I I #
point $-1 -96.06890860848885438 8.422920576239210533 -138.6378054759987322 #
straight-curve $-1 -96.06890860848885438 12.49699252557043039 -138.6378054759987322 0 1 0 I I #
point $-1 -96.06890860848885438 16.57106447490165024 -138.6378054759987322 #
vertex $-1 $625 $663 #
vertex $-1 $627 $664 #
point $-1 83.2798784778455996 11.7645979511715062 14.20673947568132434 #
point $-1 83.2798784778455996 13.68139713295515669 14.20673947568132434 #
point $-1 83.2798784778455996 15.59819631473880719 14.20673947568132434 #
point $-1 83.2798784778455996 36.75097753838542758 14.20673947568132434 #
point $-1 83.2798784778455996 38.66777672016907985 14.20673947568132434 #
point $-1 83.2798784778455996 40.58457590195273212 14.20673947568132434 #
point $-1 2.882279323713480945 10.75096169014276626 16.88658259110682636 #
point $-1 2.882279323713480945 14.24302336099809629 16.88658259110682636 #
End-of-ACIS-data 