600 0 10 0           
94 GICL ACIS Healer - Source: /gicl/data5/repository/Drexel/SM99-DATA/part112.smdg.feat.sat - 6 0 18 ACIS 6.0.3 Solaris 24 Sat Apr 13 20:44:10 2002 
1 9.999999999999999547e-07 1.000000000000000036e-10 
body $-1 $10 $-1 $-1 #
body $-1 $11 $-1 $-1 #
body $-1 $12 $-1 $-1 #
body $-1 $13 $-1 $-1 #
body $-1 $14 $-1 $-1 #
body $-1 $15 $-1 $-1 #
body $-1 $16 $-1 $-1 #
body $-1 $17 $-1 $-1 #
body $-1 $18 $-1 $-1 #
body $-1 $19 $-1 $-1 #
lump $-1 $-1 $20 $0 #
lump $-1 $-1 $21 $1 #
lump $-1 $-1 $22 $2 #
lump $-1 $-1 $23 $3 #
lump $-1 $-1 $24 $4 #
lump $-1 $-1 $25 $5 #
lump $-1 $-1 $26 $6 #
lump $-1 $-1 $27 $7 #
lump $-1 $-1 $28 $8 #
lump $-1 $-1 $29 $9 #
shell $-1 $-1 $-1 $30 $-1 $10 #
shell $-1 $-1 $-1 $31 $-1 $11 #
shell $-1 $-1 $-1 $32 $-1 $12 #
shell $-1 $-1 $-1 $33 $-1 $13 #
shell $-1 $-1 $-1 $34 $-1 $14 #
shell $-1 $-1 $-1 $35 $-1 $15 #
shell $-1 $-1 $-1 $36 $-1 $16 #
shell $-1 $-1 $-1 $37 $-1 $17 #
shell $-1 $-1 $-1 $38 $-1 $18 #
shell $-1 $-1 $-1 $39 $-1 $19 #
face $-1 $40 $41 $20 $-1 $42 forward single #
face $-1 $43 $44 $21 $-1 $45 forward single #
face $-1 $46 $47 $22 $-1 $48 forward single #
face $-1 $49 $50 $23 $-1 $51 forward single #
face $-1 $52 $53 $24 $-1 $54 forward single #
face $-1 $55 $56 $25 $-1 $57 forward single #
face $-1 $58 $59 $26 $-1 $60 forward single #
face $-1 $61 $62 $27 $-1 $63 forward single #
face $-1 $64 $65 $28 $-1 $66 forward single #
face $-1 $67 $68 $29 $-1 $69 forward single #
face $-1 $70 $71 $20 $-1 $72 reversed single #
loop $-1 $-1 $73 $30 #
plane-surface $-1 68.41639454329050807 40.25265116011144784 22.02637061162237231 0 0 1 1 0 0 forward_v I I I I #
face $-1 $74 $75 $21 $-1 $76 reversed single #
loop $-1 $-1 $77 $31 #
plane-surface $-1 68.41639454329050807 5.374939932660034003 3.192939779904937936 0 0 1 1 0 0 forward_v I I I I #
face $-1 $78 $79 $22 $-1 $80 reversed single #
loop $-1 $-1 $81 $32 #
plane-surface $-1 218.2642273776387185 18.71202907930684844 313.9000876290062934 0.6691306144064093075 0 0.7431448182313465933 0.7431448182313465933 0 -0.6691306144064093075 forward_v I I I I #
face $-1 $82 $83 $23 $-1 $84 forward single #
loop $-1 $85 $86 $33 #
cone-surface $-1 134.3908902138464043 13.93473955091478089 19.67137996628261476 -0.6691306144064093075 0 -0.7431448182313465933 0.7431448182313465933 0 -0.6691306144064093075 1 I I 0 1 1 forward I I I I #
face $-1 $87 $88 $24 $-1 $89 forward single #
loop $-1 $90 $91 $34 #
cone-surface $-1 134.3908902138464043 18.71202907930684844 19.67137996628261476 -0.6691306144064093075 0 -0.7431448182313465933 0.7431448182313465933 0 -0.6691306144064093075 1 I I 0 1 1 forward I I I I #
face $-1 $92 $93 $25 $-1 $94 forward single #
loop $-1 $95 $96 $35 #
cone-surface $-1 134.3908902138464043 23.489318607698916 19.67137996628261476 -0.6691306144064093075 0 -0.7431448182313465933 0.7431448182313465933 0 -0.6691306144064093075 1 I I 0 1 1 forward I I I I #
face $-1 $97 $98 $26 $-1 $99 reversed single #
loop $-1 $-1 $100 $36 #
plane-surface $-1 218.2642273776387185 72.54315310623611879 313.9000876290062934 0.6691306144064093075 0 0.7431448182313465933 0.7431448182313465933 0 -0.6691306144064093075 forward_v I I I I #
face $-1 $101 $102 $27 $-1 $103 forward single #
loop $-1 $104 $105 $37 #
cone-surface $-1 134.3908902138464043 67.76586357784405834 19.67137996628261476 -0.6691306144064093075 0 -0.7431448182313465933 0.7431448182313465933 0 -0.6691306144064093075 1 I I 0 1 1 forward I I I I #
face $-1 $106 $107 $28 $-1 $108 forward single #
loop $-1 $109 $110 $38 #
cone-surface $-1 134.3908902138464043 72.54315310623611879 19.67137996628261476 -0.6691306144064093075 0 -0.7431448182313465933 0.7431448182313465933 0 -0.6691306144064093075 1 I I 0 1 1 forward I I I I #
face $-1 $111 $112 $29 $-1 $113 forward single #
loop $-1 $114 $115 $39 #
cone-surface $-1 134.3908902138464043 77.32044263462819345 19.67137996628261476 -0.6691306144064093075 0 -0.7431448182313465933 0.7431448182313465933 0 -0.6691306144064093075 1 I I 0 1 1 forward I I I I #
face $-1 $116 $117 $20 $-1 $118 reversed single #
loop $-1 $-1 $119 $40 #
plane-surface $-1 68.41639454329050807 40.25265116011144784 0 0 0 1 1 0 0 forward_v I I I I #
coedge $-1 $120 $121 $122 $123 forward $41 $-1 #
face $-1 $124 $125 $21 $-1 $126 reversed single #
loop $-1 $-1 $127 $43 #
plane-surface $-1 68.41639454329050807 5.374939932660034003 0 0 0 1 1 0 0 forward_v I I I I #
coedge $-1 $128 $129 $130 $131 forward $44 $-1 #
face $-1 $132 $133 $22 $-1 $134 reversed single #
loop $-1 $-1 $135 $46 #
plane-surface $-1 35.1462109127455733 18.71202907930684844 110.5269312813354503 0.6691306144064093075 0 0.7431448182313465933 0.7431448182313465933 0 -0.6691306144064093075 forward_v I I I I #
coedge $-1 $136 $137 $138 $139 forward $47 $-1 #
face $-1 $-1 $140 $23 $-1 $141 forward single #
loop $-1 $-1 $142 $49 #
plane-surface $-1 135.1344140540068679 13.93473955091478089 20.49714683025561612 0.6691306144064093075 0 0.7431448182313465933 -0.7431448182313465933 0 0.6691306144064093075 forward_v I I I I #
loop $-1 $-1 $143 $33 #
coedge $-1 $86 $86 $142 $144 reversed $50 $-1 #
face $-1 $-1 $145 $24 $-1 $146 forward single #
loop $-1 $-1 $147 $52 #
plane-surface $-1 135.1344140540068679 18.71202907930684844 20.49714683025561612 0.6691306144064093075 0 0.7431448182313465933 -0.7431448182313465933 0 0.6691306144064093075 forward_v I I I I #
loop $-1 $-1 $148 $34 #
coedge $-1 $91 $91 $147 $149 reversed $53 $-1 #
face $-1 $-1 $150 $25 $-1 $151 forward single #
loop $-1 $-1 $152 $55 #
plane-surface $-1 135.1344140540068679 23.489318607698916 20.49714683025561612 0.6691306144064093075 0 0.7431448182313465933 -0.7431448182313465933 0 0.6691306144064093075 forward_v I I I I #
loop $-1 $-1 $153 $35 #
coedge $-1 $96 $96 $152 $154 reversed $56 $-1 #
face $-1 $155 $156 $26 $-1 $157 reversed single #
loop $-1 $-1 $158 $58 #
plane-surface $-1 35.1462109127455733 72.54315310623611879 110.5269312813354503 0.6691306144064093075 0 0.7431448182313465933 0.7431448182313465933 0 -0.6691306144064093075 forward_v I I I I #
coedge $-1 $159 $160 $161 $162 forward $59 $-1 #
face $-1 $-1 $163 $27 $-1 $164 forward single #
loop $-1 $-1 $165 $61 #
plane-surface $-1 135.1344140540068679 67.76586357784405834 20.49714683025561612 0.6691306144064093075 0 0.7431448182313465933 -0.7431448182313465933 0 0.6691306144064093075 forward_v I I I I #
loop $-1 $-1 $166 $37 #
coedge $-1 $105 $105 $165 $167 reversed $62 $-1 #
face $-1 $-1 $168 $28 $-1 $169 forward single #
loop $-1 $-1 $170 $64 #
plane-surface $-1 135.1344140540068679 72.54315310623611879 20.49714683025561612 0.6691306144064093075 0 0.7431448182313465933 -0.7431448182313465933 0 0.6691306144064093075 forward_v I I I I #
loop $-1 $-1 $171 $38 #
coedge $-1 $110 $110 $170 $172 reversed $65 $-1 #
face $-1 $-1 $173 $29 $-1 $174 forward single #
loop $-1 $-1 $175 $67 #
plane-surface $-1 135.1344140540068679 77.32044263462819345 20.49714683025561612 0.6691306144064093075 0 0.7431448182313465933 -0.7431448182313465933 0 0.6691306144064093075 forward_v I I I I #
loop $-1 $-1 $176 $39 #
coedge $-1 $115 $115 $175 $177 reversed $68 $-1 #
face $-1 $178 $179 $20 $-1 $180 reversed single #
loop $-1 $-1 $181 $70 #
plane-surface $-1 68.41639454329050807 0 11.01318530581118615 0 1 0 0 0 1 forward_v I I I I #
coedge $-1 $182 $183 $184 $185 forward $71 $-1 #
coedge $-1 $186 $73 $187 $188 forward $41 $-1 #
coedge $-1 $73 $186 $189 $190 forward $41 $-1 #
coedge $-1 $191 $192 $73 $123 reversed $193 $-1 #
edge $-1 $194 -40.25265116011144784 $195 40.25265116011144784 $122 $196 forward 7 unknown #
face $-1 $197 $198 $21 $-1 $199 reversed single #
loop $-1 $-1 $200 $74 #
plane-surface $-1 68.41639454329050807 0 1.596469889952468968 0 1 0 0 0 1 forward_v I I I I #
coedge $-1 $201 $202 $203 $204 forward $75 $-1 #
coedge $-1 $205 $77 $206 $207 forward $44 $-1 #
coedge $-1 $77 $205 $208 $209 forward $44 $-1 #
coedge $-1 $210 $211 $77 $131 reversed $212 $-1 #
edge $-1 $213 -5.374939932660034003 $214 5.374939932660034003 $130 $215 forward 7 unknown #
face $-1 $216 $217 $22 $-1 $218 reversed single #
loop $-1 $-1 $219 $78 #
plane-surface $-1 126.7052191451921459 10.74987986532006801 212.2135094551708789 0 1 0 0.6691306144064093075 0 0.7431448182313465933 forward_v I I I I #
coedge $-1 $220 $221 $222 $223 forward $79 $-1 #
coedge $-1 $224 $81 $225 $226 forward $47 $-1 #
coedge $-1 $81 $224 $227 $228 forward $47 $-1 #
coedge $-1 $229 $230 $81 $139 reversed $231 $-1 #
edge $-1 $232 -7.962149213986780438 $233 7.962149213986780438 $138 $234 forward 7 unknown #
loop $-1 $235 $236 $82 #
cone-surface $-1 133.3128010664827627 13.93473955091478089 18.47404069319394182 -0.6691306144064093075 0 -0.7431448182313465933 0.3715724091156732967 0 -0.3345653072032046538 1 I I -0.7071067811865474617 0.7071067811865474617 0.5 forward I I I I #
coedge $-1 $142 $142 $86 $144 forward $83 $-1 #
coedge $-1 $143 $143 $236 $237 forward $85 $-1 #
edge $-1 $238 0 $238 6.283185307179586232 $142 $239 forward 7 unknown #
loop $-1 $240 $241 $87 #
cone-surface $-1 133.3128010664827627 18.71202907930684844 18.47404069319394182 -0.6691306144064093075 0 -0.7431448182313465933 0.3715724091156732967 0 -0.3345653072032046538 1 I I -0.7071067811865474617 0.7071067811865474617 0.5 forward I I I I #
coedge $-1 $147 $147 $91 $149 forward $88 $-1 #
coedge $-1 $148 $148 $241 $242 forward $90 $-1 #
edge $-1 $243 0 $243 6.283185307179586232 $147 $244 forward 7 unknown #
loop $-1 $245 $246 $92 #
cone-surface $-1 133.3128010664827627 23.489318607698916 18.47404069319394182 -0.6691306144064093075 0 -0.7431448182313465933 0.3715724091156732967 0 -0.3345653072032046538 1 I I -0.7071067811865474617 0.7071067811865474617 0.5 forward I I I I #
coedge $-1 $152 $152 $96 $154 forward $93 $-1 #
coedge $-1 $153 $153 $246 $247 forward $95 $-1 #
edge $-1 $248 0 $248 6.283185307179586232 $152 $249 forward 7 unknown #
face $-1 $250 $251 $26 $-1 $252 reversed single #
loop $-1 $-1 $253 $97 #
plane-surface $-1 126.7052191451921459 64.5810038922493419 212.2135094551708789 0 1 0 0.6691306144064093075 0 0.7431448182313465933 forward_v I I I I #
coedge $-1 $254 $255 $256 $257 forward $98 $-1 #
coedge $-1 $258 $100 $259 $260 forward $59 $-1 #
coedge $-1 $100 $258 $261 $262 forward $59 $-1 #
coedge $-1 $263 $264 $100 $162 reversed $265 $-1 #
edge $-1 $266 -7.962149213986776886 $267 7.962149213986776886 $161 $268 forward 7 unknown #
loop $-1 $269 $270 $101 #
cone-surface $-1 133.3128010664827627 67.76586357784405834 18.47404069319394182 -0.6691306144064093075 0 -0.7431448182313465933 0.3715724091156732967 0 -0.3345653072032046538 1 I I -0.7071067811865474617 0.7071067811865474617 0.5 forward I I I I #
coedge $-1 $165 $165 $105 $167 forward $102 $-1 #
coedge $-1 $166 $166 $270 $271 forward $104 $-1 #
edge $-1 $272 0 $272 6.283185307179586232 $165 $273 forward 7 unknown #
loop $-1 $274 $275 $106 #
cone-surface $-1 133.3128010664827627 72.54315310623611879 18.47404069319394182 -0.6691306144064093075 0 -0.7431448182313465933 0.3715724091156732967 0 -0.3345653072032046538 1 I I -0.7071067811865474617 0.7071067811865474617 0.5 forward I I I I #
coedge $-1 $170 $170 $110 $172 forward $107 $-1 #
coedge $-1 $171 $171 $275 $276 forward $109 $-1 #
edge $-1 $277 0 $277 6.283185307179586232 $170 $278 forward 7 unknown #
loop $-1 $279 $280 $111 #
cone-surface $-1 133.3128010664827627 77.32044263462819345 18.47404069319394182 -0.6691306144064093075 0 -0.7431448182313465933 0.3715724091156732967 0 -0.3345653072032046538 1 I I -0.7071067811865474617 0.7071067811865474617 0.5 forward I I I I #
coedge $-1 $175 $175 $115 $177 forward $112 $-1 #
coedge $-1 $176 $176 $280 $281 forward $114 $-1 #
edge $-1 $282 0 $282 6.283185307179586232 $175 $283 forward 7 unknown #
face $-1 $284 $285 $20 $-1 $286 reversed single #
loop $-1 $-1 $287 $116 #
plane-surface $-1 0 40.25265116011144784 11.01318530581118615 1 0 0 0 0 -1 forward_v I I I I #
coedge $-1 $288 $189 $289 $290 forward $117 $-1 #
coedge $-1 $291 $119 $288 $292 forward $71 $-1 #
coedge $-1 $119 $291 $293 $294 forward $71 $-1 #
coedge $-1 $192 $191 $119 $185 reversed $193 $-1 #
edge $-1 $295 -40.25265116011144784 $296 40.25265116011144784 $184 $297 forward 7 unknown #
coedge $-1 $121 $120 $298 $299 forward $41 $-1 #
coedge $-1 $300 $301 $120 $188 reversed $285 $-1 #
edge $-1 $195 -68.41639454329050807 $302 68.41639454329050807 $187 $303 forward 7 unknown #
coedge $-1 $181 $304 $121 $190 reversed $117 $-1 #
edge $-1 $305 -68.41639454329050807 $194 68.41639454329050807 $189 $306 forward 7 unknown #
coedge $-1 $184 $122 $304 $307 forward $193 $-1 #
coedge $-1 $122 $184 $300 $308 reversed $193 $-1 #
loop $-1 $-1 $191 $284 #
vertex $-1 $123 $309 #
vertex $-1 $123 $310 #
straight-curve $-1 136.8327890865810161 40.25265116011144784 22.02637061162237231 0 1 0 I I #
face $-1 $311 $312 $21 $-1 $313 reversed single #
loop $-1 $-1 $314 $124 #
plane-surface $-1 0 5.374939932660034003 1.596469889952468968 1 0 0 0 0 -1 forward_v I I I I #
coedge $-1 $315 $208 $316 $317 forward $125 $-1 #
coedge $-1 $318 $127 $315 $319 forward $75 $-1 #
coedge $-1 $127 $318 $320 $321 forward $75 $-1 #
coedge $-1 $211 $210 $127 $204 reversed $212 $-1 #
edge $-1 $322 -5.374939932660034003 $323 5.374939932660034003 $203 $324 forward 7 unknown #
coedge $-1 $129 $128 $325 $326 forward $44 $-1 #
coedge $-1 $327 $328 $128 $207 reversed $312 $-1 #
edge $-1 $214 -68.41639454329050807 $329 68.41639454329050807 $206 $330 forward 7 unknown #
coedge $-1 $200 $331 $129 $209 reversed $125 $-1 #
edge $-1 $332 -68.41639454329050807 $213 68.41639454329050807 $208 $333 forward 7 unknown #
coedge $-1 $203 $130 $331 $334 forward $212 $-1 #
coedge $-1 $130 $203 $327 $335 reversed $212 $-1 #
loop $-1 $-1 $210 $311 #
vertex $-1 $131 $336 #
vertex $-1 $131 $337 #
straight-curve $-1 136.8327890865810161 5.374939932660034003 3.192939779904937936 0 1 0 I I #
face $-1 $338 $339 $22 $-1 $340 reversed single #
loop $-1 $-1 $341 $132 #
plane-surface $-1 -76.66793720247871136 18.71202907930684844 395.3315259200639957 0.7431448182313465933 0 -0.6691306144064093075 -0.6691306144064093075 0 -0.7431448182313465933 forward_v I I I I #
coedge $-1 $342 $227 $343 $344 forward $133 $-1 #
coedge $-1 $345 $135 $342 $346 forward $79 $-1 #
coedge $-1 $135 $345 $347 $348 forward $79 $-1 #
coedge $-1 $230 $229 $135 $223 reversed $231 $-1 #
edge $-1 $349 -7.962149213986780438 $350 7.962149213986780438 $222 $351 forward 7 unknown #
coedge $-1 $137 $136 $352 $353 forward $47 $-1 #
coedge $-1 $354 $355 $136 $226 reversed $339 $-1 #
edge $-1 $233 -273.6655781731619754 $356 273.6655781731620323 $225 $357 forward 7 unknown #
coedge $-1 $219 $358 $137 $228 reversed $133 $-1 #
edge $-1 $359 -273.6655781731620323 $232 273.6655781731619754 $227 $360 forward 7 unknown #
coedge $-1 $222 $138 $358 $361 forward $231 $-1 #
coedge $-1 $138 $222 $354 $362 reversed $231 $-1 #
loop $-1 $-1 $229 $338 #
vertex $-1 $139 $363 #
vertex $-1 $139 $364 #
straight-curve $-1 421.6373837253095758 18.71202907930684844 130.7820711641131766 0 1 0 I I #
loop $-1 $-1 $365 $82 #
coedge $-1 $236 $236 $143 $237 reversed $140 $-1 #
edge $-1 $366 0 $366 6.283185307179586232 $236 $367 forward 7 unknown #
vertex $-1 $144 $368 #
ellipse-curve $-1 135.1344140540068679 13.93473955091478089 20.49714683025561612 0.6691306144064093075 0 0.7431448182313465933 0.7431448182313465933 0 -0.6691306144064093075 1 I I #
loop $-1 $-1 $369 $87 #
coedge $-1 $241 $241 $148 $242 reversed $145 $-1 #
edge $-1 $370 0 $370 6.283185307179586232 $241 $371 forward 7 unknown #
vertex $-1 $149 $372 #
ellipse-curve $-1 135.1344140540068679 18.71202907930684844 20.49714683025561612 0.6691306144064093075 0 0.7431448182313465933 0.7431448182313465933 0 -0.6691306144064093075 1 I I #
loop $-1 $-1 $373 $92 #
coedge $-1 $246 $246 $153 $247 reversed $150 $-1 #
edge $-1 $374 0 $374 6.283185307179586232 $246 $375 forward 7 unknown #
vertex $-1 $154 $376 #
ellipse-curve $-1 135.1344140540068679 23.489318607698916 20.49714683025561612 0.6691306144064093075 0 0.7431448182313465933 0.7431448182313465933 0 -0.6691306144064093075 1 I I #
face $-1 $377 $378 $26 $-1 $379 reversed single #
loop $-1 $-1 $380 $155 #
plane-surface $-1 -76.66793720247871136 72.54315310623611879 395.3315259200639957 0.7431448182313465933 0 -0.6691306144064093075 -0.6691306144064093075 0 -0.7431448182313465933 forward_v I I I I #
coedge $-1 $381 $261 $382 $383 forward $156 $-1 #
coedge $-1 $384 $158 $381 $385 forward $98 $-1 #
coedge $-1 $158 $384 $386 $387 forward $98 $-1 #
coedge $-1 $264 $263 $158 $257 reversed $265 $-1 #
edge $-1 $388 -7.962149213986776886 $389 7.962149213986776886 $256 $390 forward 7 unknown #
coedge $-1 $160 $159 $391 $392 forward $59 $-1 #
coedge $-1 $393 $394 $159 $260 reversed $378 $-1 #
edge $-1 $267 -273.6655781731619754 $395 273.6655781731620323 $259 $396 forward 7 unknown #
coedge $-1 $253 $397 $160 $262 reversed $156 $-1 #
edge $-1 $398 -273.6655781731620323 $266 273.6655781731619754 $261 $399 forward 7 unknown #
coedge $-1 $256 $161 $397 $400 forward $265 $-1 #
coedge $-1 $161 $256 $393 $401 reversed $265 $-1 #
loop $-1 $-1 $263 $377 #
vertex $-1 $162 $402 #
vertex $-1 $162 $403 #
straight-curve $-1 421.6373837253095758 72.54315310623611879 130.7820711641131766 0 1 0 I I #
loop $-1 $-1 $404 $101 #
coedge $-1 $270 $270 $166 $271 reversed $163 $-1 #
edge $-1 $405 0 $405 6.283185307179586232 $270 $406 forward 7 unknown #
vertex $-1 $167 $407 #
ellipse-curve $-1 135.1344140540068679 67.76586357784405834 20.49714683025561612 0.6691306144064093075 0 0.7431448182313465933 0.7431448182313465933 0 -0.6691306144064093075 1 I I #
loop $-1 $-1 $408 $106 #
coedge $-1 $275 $275 $171 $276 reversed $168 $-1 #
edge $-1 $409 0 $409 6.283185307179586232 $275 $410 forward 7 unknown #
vertex $-1 $172 $411 #
ellipse-curve $-1 135.1344140540068679 72.54315310623611879 20.49714683025561612 0.6691306144064093075 0 0.7431448182313465933 0.7431448182313465933 0 -0.6691306144064093075 1 I I #
loop $-1 $-1 $412 $111 #
coedge $-1 $280 $280 $176 $281 reversed $173 $-1 #
edge $-1 $413 0 $413 6.283185307179586232 $280 $414 forward 7 unknown #
vertex $-1 $177 $415 #
ellipse-curve $-1 135.1344140540068679 77.32044263462819345 20.49714683025561612 0.6691306144064093075 0 0.7431448182313465933 0.7431448182313465933 0 -0.6691306144064093075 1 I I #
face $-1 $-1 $193 $20 $-1 $416 reversed single #
loop $-1 $-1 $300 $178 #
plane-surface $-1 68.41639454329050807 80.50530232022289567 11.01318530581118615 0 -1 0 0 0 -1 forward_v I I I I #
coedge $-1 $417 $298 $301 $418 forward $179 $-1 #
coedge $-1 $304 $181 $182 $292 reversed $117 $-1 #
coedge $-1 $298 $417 $181 $290 reversed $179 $-1 #
edge $-1 $305 -11.01318530581118615 $419 11.01318530581118615 $289 $420 forward 7 unknown #
coedge $-1 $183 $182 $417 $421 forward $71 $-1 #
edge $-1 $296 -68.41639454329050807 $419 68.41639454329050807 $288 $422 forward 7 unknown #
coedge $-1 $301 $300 $183 $294 reversed $285 $-1 #
edge $-1 $423 -68.41639454329050807 $295 68.41639454329050807 $293 $424 forward 7 unknown #
vertex $-1 $185 $425 #
vertex $-1 $307 $426 #
straight-curve $-1 136.8327890865810161 40.25265116011144784 0 0 -1 0 I I #
coedge $-1 $287 $289 $186 $299 reversed $179 $-1 #
edge $-1 $302 -40.25265116011144784 $305 40.25265116011144784 $298 $427 forward 7 unknown #
coedge $-1 $293 $187 $192 $308 forward $285 $-1 #
coedge $-1 $187 $293 $287 $418 reversed $285 $-1 #
vertex $-1 $188 $428 #
straight-curve $-1 68.41639454329050807 80.50530232022289567 22.02637061162237231 -1 0 0 I I #
coedge $-1 $189 $288 $191 $307 reversed $117 $-1 #
vertex $-1 $299 $429 #
straight-curve $-1 68.41639454329050807 0 22.02637061162237231 1 0 0 I I #
edge $-1 $194 -11.01318530581118615 $296 11.01318530581118615 $191 $430 forward 7 unknown #
edge $-1 $195 -11.01318530581118615 $295 11.01318530581118615 $192 $431 forward 7 unknown #
point $-1 136.8327890865810161 0 22.02637061162237231 #
point $-1 136.8327890865810161 80.50530232022289567 22.02637061162237231 #
face $-1 $-1 $212 $21 $-1 $432 reversed single #
loop $-1 $-1 $327 $197 #
plane-surface $-1 68.41639454329050807 10.74987986532006801 1.596469889952468968 0 -1 0 0 0 -1 forward_v I I I I #
coedge $-1 $433 $325 $328 $434 forward $198 $-1 #
coedge $-1 $331 $200 $201 $319 reversed $125 $-1 #
coedge $-1 $325 $433 $200 $317 reversed $198 $-1 #
edge $-1 $332 -1.596469889952468968 $435 1.596469889952468968 $316 $436 forward 7 unknown #
coedge $-1 $202 $201 $433 $437 forward $75 $-1 #
edge $-1 $323 -68.41639454329050807 $435 68.41639454329050807 $315 $438 forward 7 unknown #
coedge $-1 $328 $327 $202 $321 reversed $312 $-1 #
edge $-1 $439 -68.41639454329050807 $322 68.41639454329050807 $320 $440 forward 7 unknown #
vertex $-1 $204 $441 #
vertex $-1 $334 $442 #
straight-curve $-1 136.8327890865810161 5.374939932660034003 0 0 -1 0 I I #
coedge $-1 $314 $316 $205 $326 reversed $198 $-1 #
edge $-1 $329 -5.374939932660034003 $332 5.374939932660034003 $325 $443 forward 7 unknown #
coedge $-1 $320 $206 $211 $335 forward $312 $-1 #
coedge $-1 $206 $320 $314 $434 reversed $312 $-1 #
vertex $-1 $207 $444 #
straight-curve $-1 68.41639454329050807 10.74987986532006801 3.192939779904937936 -1 0 0 I I #
coedge $-1 $208 $315 $210 $334 reversed $125 $-1 #
vertex $-1 $326 $445 #
straight-curve $-1 68.41639454329050807 0 3.192939779904937936 1 0 0 I I #
edge $-1 $213 -1.596469889952468968 $323 1.596469889952468968 $210 $446 forward 7 unknown #
edge $-1 $214 -1.596469889952468968 $322 1.596469889952468968 $211 $447 forward 7 unknown #
point $-1 136.8327890865810161 0 3.192939779904937936 #
point $-1 136.8327890865810161 10.74987986532006801 3.192939779904937936 #
face $-1 $-1 $231 $22 $-1 $448 reversed single #
loop $-1 $-1 $354 $216 #
plane-surface $-1 126.7052191451921459 26.67417829329362888 212.2135094551708789 0 -1 0 -0.6691306144064093075 0 -0.7431448182313465933 forward_v I I I I #
coedge $-1 $449 $352 $355 $450 forward $217 $-1 #
coedge $-1 $358 $219 $220 $346 reversed $133 $-1 #
coedge $-1 $352 $449 $219 $344 reversed $217 $-1 #
edge $-1 $359 -136.8327890865810446 $451 136.8327890865810161 $343 $452 forward 7 unknown #
coedge $-1 $221 $220 $449 $453 forward $79 $-1 #
edge $-1 $350 -273.6655781731620323 $451 273.6655781731619754 $342 $454 forward 7 unknown #
coedge $-1 $355 $354 $221 $348 reversed $339 $-1 #
edge $-1 $455 -273.6655781731619754 $349 273.6655781731620323 $347 $456 forward 7 unknown #
vertex $-1 $223 $457 #
vertex $-1 $361 $458 #
straight-curve $-1 238.5193672604164306 18.71202907930684844 -72.59108518355770912 0 -1 0 I I #
coedge $-1 $341 $343 $224 $353 reversed $217 $-1 #
edge $-1 $356 -7.962149213986780438 $359 7.962149213986780438 $352 $459 forward 7 unknown #
coedge $-1 $347 $225 $230 $362 forward $339 $-1 #
coedge $-1 $225 $347 $341 $450 reversed $339 $-1 #
vertex $-1 $226 $460 #
straight-curve $-1 218.2642273776387185 26.67417829329362888 313.9000876290062934 -0.7431448182313465933 0 0.6691306144064093075 I I #
coedge $-1 $227 $342 $229 $361 reversed $133 $-1 #
vertex $-1 $353 $461 #
straight-curve $-1 218.2642273776387185 10.74987986532006801 313.9000876290062934 0.7431448182313465933 0 -0.6691306144064093075 I I #
edge $-1 $232 -136.8327890865809877 $350 136.8327890865810161 $229 $462 forward 7 unknown #
edge $-1 $233 -136.8327890865809877 $349 136.8327890865810161 $230 $463 forward 7 unknown #
point $-1 421.6373837253095758 10.74987986532006801 130.7820711641131766 #
point $-1 421.6373837253095758 26.67417829329362888 130.7820711641131766 #
coedge $-1 $365 $365 $-1 $464 reversed $235 $-1 #
vertex $-1 $237 $465 #
ellipse-curve $-1 133.6473663736859692 13.93473955091478089 18.8456131023096134 0.6691306144064093075 0 0.7431448182313465933 0.7431448182313465933 0 -0.6691306144064093075 1 I I #
point $-1 135.8775588722382111 13.93473955091478089 19.82801621584921037 #
coedge $-1 $369 $369 $-1 $466 reversed $240 $-1 #
vertex $-1 $242 $467 #
ellipse-curve $-1 133.6473663736859692 18.71202907930684844 18.8456131023096134 0.6691306144064093075 0 0.7431448182313465933 0.7431448182313465933 0 -0.6691306144064093075 1 I I #
point $-1 135.8775588722382111 18.71202907930684844 19.82801621584921037 #
coedge $-1 $373 $373 $-1 $468 reversed $245 $-1 #
vertex $-1 $247 $469 #
ellipse-curve $-1 133.6473663736859692 23.489318607698916 18.8456131023096134 0.6691306144064093075 0 0.7431448182313465933 0.7431448182313465933 0 -0.6691306144064093075 1 I I #
point $-1 135.8775588722382111 23.489318607698916 19.82801621584921037 #
face $-1 $-1 $265 $26 $-1 $470 reversed single #
loop $-1 $-1 $393 $250 #
plane-surface $-1 126.7052191451921459 80.50530232022289567 212.2135094551708789 0 -1 0 -0.6691306144064093075 0 -0.7431448182313465933 forward_v I I I I #
coedge $-1 $471 $391 $394 $472 forward $251 $-1 #
coedge $-1 $397 $253 $254 $385 reversed $156 $-1 #
coedge $-1 $391 $471 $253 $383 reversed $251 $-1 #
edge $-1 $398 -136.8327890865810446 $473 136.8327890865810161 $382 $474 forward 7 unknown #
coedge $-1 $255 $254 $471 $475 forward $98 $-1 #
edge $-1 $389 -273.6655781731620323 $473 273.6655781731619754 $381 $476 forward 7 unknown #
coedge $-1 $394 $393 $255 $387 reversed $378 $-1 #
edge $-1 $477 -273.6655781731619754 $388 273.6655781731620323 $386 $478 forward 7 unknown #
vertex $-1 $257 $479 #
vertex $-1 $400 $480 #
straight-curve $-1 238.5193672604164306 72.54315310623611879 -72.59108518355770912 0 -1 0 I I #
coedge $-1 $380 $382 $258 $392 reversed $251 $-1 #
edge $-1 $395 -7.962149213986776886 $398 7.962149213986776886 $391 $481 forward 7 unknown #
coedge $-1 $386 $259 $264 $401 forward $378 $-1 #
coedge $-1 $259 $386 $380 $472 reversed $378 $-1 #
vertex $-1 $260 $482 #
straight-curve $-1 218.2642273776387185 80.50530232022289567 313.9000876290062934 -0.7431448182313465933 0 0.6691306144064093075 I I #
coedge $-1 $261 $381 $263 $400 reversed $156 $-1 #
vertex $-1 $392 $483 #
straight-curve $-1 218.2642273776387185 64.5810038922493419 313.9000876290062934 0.7431448182313465933 0 -0.6691306144064093075 I I #
edge $-1 $266 -136.8327890865809877 $389 136.8327890865810161 $263 $484 forward 7 unknown #
edge $-1 $267 -136.8327890865809877 $388 136.8327890865810161 $264 $485 forward 7 unknown #
point $-1 421.6373837253095758 64.5810038922493419 130.7820711641131766 #
point $-1 421.6373837253095758 80.50530232022289567 130.7820711641131766 #
coedge $-1 $404 $404 $-1 $486 reversed $269 $-1 #
vertex $-1 $271 $487 #
ellipse-curve $-1 133.6473663736859692 67.76586357784405834 18.8456131023096134 0.6691306144064093075 0 0.7431448182313465933 0.7431448182313465933 0 -0.6691306144064093075 1 I I #
point $-1 135.8775588722382111 67.76586357784405834 19.82801621584921037 #
coedge $-1 $408 $408 $-1 $488 reversed $274 $-1 #
vertex $-1 $276 $489 #
ellipse-curve $-1 133.6473663736859692 72.54315310623611879 18.8456131023096134 0.6691306144064093075 0 0.7431448182313465933 0.7431448182313465933 0 -0.6691306144064093075 1 I I #
point $-1 135.8775588722382111 72.54315310623611879 19.82801621584921037 #
coedge $-1 $412 $412 $-1 $490 reversed $279 $-1 #
vertex $-1 $281 $491 #
ellipse-curve $-1 133.6473663736859692 77.32044263462819345 18.8456131023096134 0.6691306144064093075 0 0.7431448182313465933 0.7431448182313465933 0 -0.6691306144064093075 1 I I #
point $-1 135.8775588722382111 77.32044263462819345 19.82801621584921037 #
plane-surface $-1 136.8327890865810161 40.25265116011144784 11.01318530581118615 -1 0 0 0 0 1 forward_v I I I I #
coedge $-1 $289 $287 $291 $421 reversed $179 $-1 #
edge $-1 $302 -11.01318530581118615 $423 11.01318530581118615 $301 $492 forward 7 unknown #
vertex $-1 $421 $493 #
straight-curve $-1 0 0 11.01318530581118615 0 0 -1 I I #
edge $-1 $419 -40.25265116011144784 $423 40.25265116011144784 $417 $494 forward 7 unknown #
straight-curve $-1 68.41639454329050807 0 0 -1 0 0 I I #
vertex $-1 $294 $495 #
straight-curve $-1 68.41639454329050807 80.50530232022289567 0 1 0 0 I I #
point $-1 136.8327890865810161 80.50530232022289567 0 #
point $-1 136.8327890865810161 0 0 #
straight-curve $-1 0 40.25265116011144784 22.02637061162237231 0 -1 0 I I #
point $-1 0 80.50530232022289567 22.02637061162237231 #
point $-1 0 0 22.02637061162237231 #
straight-curve $-1 136.8327890865810161 0 11.01318530581118615 0 0 -1 I I #
straight-curve $-1 136.8327890865810161 80.50530232022289567 11.01318530581118615 0 0 -1 I I #
plane-surface $-1 136.8327890865810161 5.374939932660034003 1.596469889952468968 -1 0 0 0 0 1 forward_v I I I I #
coedge $-1 $316 $314 $318 $437 reversed $198 $-1 #
edge $-1 $329 -1.596469889952468968 $439 1.596469889952468968 $328 $496 forward 7 unknown #
vertex $-1 $437 $497 #
straight-curve $-1 0 0 1.596469889952468968 0 0 -1 I I #
edge $-1 $435 -5.374939932660034003 $439 5.374939932660034003 $433 $498 forward 7 unknown #
straight-curve $-1 68.41639454329050807 0 0 -1 0 0 I I #
vertex $-1 $321 $499 #
straight-curve $-1 68.41639454329050807 10.74987986532006801 0 1 0 0 I I #
point $-1 136.8327890865810161 10.74987986532006801 0 #
point $-1 136.8327890865810161 0 0 #
straight-curve $-1 0 5.374939932660034003 3.192939779904937936 0 -1 0 I I #
point $-1 0 10.74987986532006801 3.192939779904937936 #
point $-1 0 0 3.192939779904937936 #
straight-curve $-1 136.8327890865810161 0 1.596469889952468968 0 0 -1 I I #
straight-curve $-1 136.8327890865810161 10.74987986532006801 1.596469889952468968 0 0 -1 I I #
plane-surface $-1 330.0783754928630174 18.71202907930684844 29.09549299027773372 -0.7431448182313465933 0 0.6691306144064093075 0.6691306144064093075 0 0.7431448182313465933 forward_v I I I I #
coedge $-1 $343 $341 $345 $453 reversed $217 $-1 #
edge $-1 $356 -136.8327890865810446 $455 136.8327890865810161 $355 $500 forward 7 unknown #
vertex $-1 $453 $501 #
straight-curve $-1 -76.66793720247871136 10.74987986532006801 395.3315259200639957 -0.6691306144064093075 0 -0.7431448182313465933 I I #
edge $-1 $451 -7.962149213986780438 $455 7.962149213986780438 $449 $502 forward 7 unknown #
straight-curve $-1 35.1462109127455733 10.74987986532006801 110.5269312813354503 -0.7431448182313465933 0 0.6691306144064093075 I I #
vertex $-1 $348 $503 #
straight-curve $-1 35.1462109127455733 26.67417829329362888 110.5269312813354503 0.7431448182313465933 0 -0.6691306144064093075 I I #
point $-1 238.5193672604164306 26.67417829329362888 -72.59108518355770912 #
point $-1 238.5193672604164306 10.74987986532006801 -72.59108518355770912 #
straight-curve $-1 14.89107102996786125 18.71202907930684844 497.018104093899467 0 -1 0 I I #
point $-1 14.89107102996786125 26.67417829329362888 497.018104093899467 #
point $-1 14.89107102996786125 10.74987986532006801 497.018104093899467 #
straight-curve $-1 330.0783754928630174 10.74987986532006801 29.09549299027773372 -0.6691306144064093075 0 -0.7431448182313465933 I I #
straight-curve $-1 330.0783754928630174 26.67417829329362888 29.09549299027773372 -0.6691306144064093075 0 -0.7431448182313465933 I I #
edge $-1 $504 1 $504 0 $365 $-1 forward 7 unknown #
point $-1 134.3905111919173123 13.93473955091478089 18.17648248790320409 #
edge $-1 $505 1 $505 0 $369 $-1 forward 7 unknown #
point $-1 134.3905111919173123 18.71202907930684844 18.17648248790320409 #
edge $-1 $506 1 $506 0 $373 $-1 forward 7 unknown #
point $-1 134.3905111919173123 23.489318607698916 18.17648248790320409 #
plane-surface $-1 330.0783754928630174 72.54315310623611879 29.09549299027773372 -0.7431448182313465933 0 0.6691306144064093075 0.6691306144064093075 0 0.7431448182313465933 forward_v I I I I #
coedge $-1 $382 $380 $384 $475 reversed $251 $-1 #
edge $-1 $395 -136.8327890865810446 $477 136.8327890865810161 $394 $507 forward 7 unknown #
vertex $-1 $475 $508 #
straight-curve $-1 -76.66793720247871136 64.5810038922493419 395.3315259200639957 -0.6691306144064093075 0 -0.7431448182313465933 I I #
edge $-1 $473 -7.962149213986776886 $477 7.962149213986776886 $471 $509 forward 7 unknown #
straight-curve $-1 35.1462109127455733 64.5810038922493419 110.5269312813354503 -0.7431448182313465933 0 0.6691306144064093075 I I #
vertex $-1 $387 $510 #
straight-curve $-1 35.1462109127455733 80.50530232022289567 110.5269312813354503 0.7431448182313465933 0 -0.6691306144064093075 I I #
point $-1 238.5193672604164306 80.50530232022289567 -72.59108518355770912 #
point $-1 238.5193672604164306 64.5810038922493419 -72.59108518355770912 #
straight-curve $-1 14.89107102996786125 72.54315310623611879 497.018104093899467 0 -1 0 I I #
point $-1 14.89107102996786125 80.50530232022289567 497.018104093899467 #
point $-1 14.89107102996786125 64.5810038922493419 497.018104093899467 #
straight-curve $-1 330.0783754928630174 64.5810038922493419 29.09549299027773372 -0.6691306144064093075 0 -0.7431448182313465933 I I #
straight-curve $-1 330.0783754928630174 80.50530232022289567 29.09549299027773372 -0.6691306144064093075 0 -0.7431448182313465933 I I #
edge $-1 $511 1 $511 0 $404 $-1 forward 7 unknown #
point $-1 134.3905111919173123 67.76586357784405834 18.17648248790320409 #
edge $-1 $512 1 $512 0 $408 $-1 forward 7 unknown #
point $-1 134.3905111919173123 72.54315310623611879 18.17648248790320409 #
edge $-1 $513 1 $513 0 $412 $-1 forward 7 unknown #
point $-1 134.3905111919173123 77.32044263462819345 18.17648248790320409 #
straight-curve $-1 0 80.50530232022289567 11.01318530581118615 0 0 -1 I I #
point $-1 0 0 0 #
straight-curve $-1 0 40.25265116011144784 0 0 1 0 I I #
point $-1 0 80.50530232022289567 0 #
straight-curve $-1 0 10.74987986532006801 1.596469889952468968 0 0 -1 I I #
point $-1 0 0 0 #
straight-curve $-1 0 5.374939932660034003 0 0 1 0 I I #
point $-1 0 10.74987986532006801 0 #
straight-curve $-1 -76.66793720247871136 26.67417829329362888 395.3315259200639957 -0.6691306144064093075 0 -0.7431448182313465933 I I #
point $-1 -168.2269454349253124 10.74987986532006801 293.6449477462285813 #
straight-curve $-1 -168.2269454349253124 18.71202907930684844 293.6449477462285813 0 1 0 I I #
point $-1 -168.2269454349253124 26.67417829329362888 293.6449477462285813 #
vertex $-1 $464 $514 #
vertex $-1 $466 $515 #
vertex $-1 $468 $516 #
straight-curve $-1 -76.66793720247871136 80.50530232022289567 395.3315259200639957 -0.6691306144064093075 0 -0.7431448182313465933 I I #
point $-1 -168.2269454349253124 64.5810038922493419 293.6449477462285813 #
straight-curve $-1 -168.2269454349253124 72.54315310623611879 293.6449477462285813 0 1 0 I I #
point $-1 -168.2269454349253124 80.50530232022289567 293.6449477462285813 #
vertex $-1 $486 $517 #
vertex $-1 $488 $518 #
vertex $-1 $490 $519 #
point $-1 132.9782357592795563 13.93473955091478089 18.10246828407827024 #
point $-1 132.9782357592795563 18.71202907930684844 18.10246828407827024 #
point $-1 132.9782357592795563 23.489318607698916 18.10246828407827024 #
point $-1 132.9782357592795563 67.76586357784405834 18.10246828407827024 #
point $-1 132.9782357592795563 72.54315310623611879 18.10246828407827024 #
point $-1 132.9782357592795563 77.32044263462819345 18.10246828407827024 #
End-of-ACIS-data 