300 0 10 0           
7 Unknown 11 ACIS 3.0 NT 24 Fri Oct 30 14:02:55 1998 
-1 9.9999999999999995e-007 1e-010 
body $10 $11 $-1 $12 #
body $13 $14 $-1 $15 #
body $16 $17 $-1 $18 #
body $19 $20 $-1 $21 #
body $22 $23 $-1 $24 #
body $25 $26 $-1 $27 #
body $28 $29 $-1 $30 #
body $31 $32 $-1 $33 #
body $34 $35 $-1 $36 #
body $37 $38 $-1 $39 #
display_attribute-st-attrib $-1 $40 $-1 $0 1 #
lump $-1 $-1 $41 $0 #
transform $-1 1 0 0 0 1 0 0 0 1 75.506454664754173 51.247238009928701 21.623247125274553 1 rotate no_reflect no_shear #
display_attribute-st-attrib $-1 $42 $-1 $1 9 #
lump $-1 $-1 $43 $1 #
transform $-1 1 0 0 0 1 0 0 0 1 75.506454664754173 51.247238009928701 21.623247125274553 1 rotate no_reflect no_shear #
display_attribute-st-attrib $-1 $44 $-1 $2 8 #
lump $-1 $-1 $45 $2 #
transform $-1 1 0 0 0 1 0 0 0 1 75.506454664754173 51.247238009928701 21.623247125274553 1 rotate no_reflect no_shear #
display_attribute-st-attrib $-1 $46 $-1 $3 7 #
lump $-1 $-1 $47 $3 #
transform $-1 1 0 0 0 1 0 0 0 1 75.506454664754173 51.247238009928701 21.623247125274553 1 rotate no_reflect no_shear #
display_attribute-st-attrib $-1 $48 $-1 $4 6 #
lump $-1 $-1 $49 $4 #
transform $-1 1 0 0 0 1 0 0 0 1 75.506454664754173 51.247238009928701 21.623247125274553 1 rotate no_reflect no_shear #
display_attribute-st-attrib $-1 $50 $-1 $5 5 #
lump $-1 $-1 $51 $5 #
transform $-1 1 0 0 0 1 0 0 0 1 75.506454664754173 51.247238009928701 21.623247125274553 1 rotate no_reflect no_shear #
display_attribute-st-attrib $-1 $52 $-1 $6 4 #
lump $-1 $-1 $53 $6 #
transform $-1 1 0 0 0 1 0 0 0 1 75.506454664754173 51.247238009928701 21.623247125274553 1 rotate no_reflect no_shear #
display_attribute-st-attrib $-1 $54 $-1 $7 3 #
lump $-1 $-1 $55 $7 #
transform $-1 1 0 0 0 1 0 0 0 1 75.506454664754173 51.247238009928701 21.623247125274553 1 rotate no_reflect no_shear #
display_attribute-st-attrib $-1 $56 $-1 $8 2 #
lump $-1 $-1 $57 $8 #
transform $-1 1 0 0 0 1 0 0 0 1 75.506454664754173 51.247238009928701 21.623247125274553 1 rotate no_reflect no_shear #
display_attribute-st-attrib $-1 $58 $-1 $9 1 #
lump $-1 $-1 $59 $9 #
transform $-1 1 0 0 0 1 0 0 0 1 75.506454664754173 51.247238009928701 21.623247125274553 1 rotate no_reflect no_shear #
id_attribute-st-attrib $-1 $-1 $10 $0 152 #
shell $-1 $-1 $-1 $60 $-1 $11 #
id_attribute-st-attrib $-1 $-1 $13 $1 160 #
shell $-1 $-1 $-1 $61 $-1 $14 #
id_attribute-st-attrib $-1 $-1 $16 $2 174 #
shell $-1 $-1 $-1 $62 $-1 $17 #
id_attribute-st-attrib $-1 $-1 $19 $3 182 #
shell $-1 $-1 $-1 $63 $-1 $20 #
id_attribute-st-attrib $-1 $-1 $22 $4 191 #
shell $-1 $-1 $-1 $64 $-1 $23 #
id_attribute-st-attrib $-1 $-1 $25 $5 201 #
shell $-1 $-1 $-1 $65 $-1 $26 #
id_attribute-st-attrib $-1 $-1 $28 $6 219 #
shell $-1 $-1 $-1 $66 $-1 $29 #
id_attribute-st-attrib $-1 $-1 $31 $7 231 #
shell $-1 $-1 $-1 $67 $-1 $32 #
id_attribute-st-attrib $-1 $-1 $34 $8 244 #
shell $-1 $-1 $-1 $68 $-1 $35 #
id_attribute-st-attrib $-1 $-1 $37 $9 258 #
shell $-1 $-1 $-1 $69 $-1 $38 #
face $-1 $70 $71 $41 $-1 $72 forward single #
face $-1 $73 $74 $43 $-1 $75 reversed single #
face $-1 $76 $77 $45 $-1 $78 reversed single #
face $-1 $79 $80 $47 $-1 $81 forward single #
face $-1 $82 $83 $49 $-1 $84 forward single #
face $-1 $85 $86 $51 $-1 $87 forward single #
face $-1 $88 $89 $53 $-1 $90 reversed single #
face $-1 $91 $92 $55 $-1 $93 forward single #
face $-1 $94 $95 $57 $-1 $96 forward single #
face $-1 $97 $98 $59 $-1 $99 forward single #
face $-1 $100 $101 $41 $-1 $102 reversed single #
loop $-1 $-1 $103 $60 #
plane-surface $-1 0 0 21.623247125274553 0 0 1 1 0 0 forward_v I I I I #
face $-1 $104 $105 $43 $-1 $106 reversed single #
loop $-1 $-1 $107 $61 #
plane-surface $-1 0 -39.225024085452574 11.471334862150108 0 0 1 1 0 0 forward_v I I I I #
face $-1 $108 $109 $45 $-1 $110 reversed single #
loop $-1 $-1 $111 $62 #
plane-surface $-1 42.097607614753286 33.356150542610109 213.95938160845685 0 -1 0 -0.5877852598018023 0 -0.80901698891910034 forward_v I I I I #
face $-1 $112 $113 $47 $-1 $114 forward single #
loop $-1 $115 $116 $63 #
cone-surface $-1 62.26103425811025 15.385829501223746 11.710231761011611 -0.5877852598018023 0 -0.80901698891910034 0.80901698891910034 0 -0.5877852598018023 1 I I 0 1 forward I I I I #
face $-1 $117 $118 $49 $-1 $119 forward single #
loop $-1 $120 $121 $64 #
cone-surface $-1 62.26103425811025 22.124699891743624 11.710231761011611 -0.5877852598018023 0 -0.80901698891910034 0.80901698891910034 0 -0.5877852598018023 1 I I 0 1 forward I I I I #
face $-1 $122 $123 $51 $-1 $124 forward single #
loop $-1 $125 $126 $65 #
cone-surface $-1 62.26103425811025 28.863570282263503 11.710231761011611 -0.5877852598018023 0 -0.80901698891910034 0.80901698891910034 0 -0.5877852598018023 1 I I 0 1 forward I I I I #
face $-1 $127 $128 $53 $-1 $129 reversed single #
loop $-1 $-1 $130 $66 #
plane-surface $-1 -192.86552852772419 18.300840995451743 100.09214486878034 0 1 0 -0.77714596973225614 0 0.62932038083071107 forward_v I I I I #
face $-1 $131 $132 $55 $-1 $133 forward single #
loop $-1 $134 $135 $67 #
cone-surface $-1 -68.053511186968834 21.184245976504265 12.736447170844649 0.77714596973225614 0 -0.62932038083071107 0.62932038083071107 0 0.77714596973225614 1 I I 0 1 forward I I I I #
face $-1 $136 $137 $57 $-1 $138 forward single #
loop $-1 $139 $140 $68 #
cone-surface $-1 -68.053511186968834 25.50935344808304 12.736447170844649 0.77714596973225614 0 -0.62932038083071107 0.62932038083071107 0 0.77714596973225614 1 I I 0 1 forward I I I I #
face $-1 $141 $142 $59 $-1 $143 forward single #
loop $-1 $144 $145 $69 #
cone-surface $-1 -68.053511186968834 29.834460919661815 12.736447170844649 0.77714596973225614 0 -0.62932038083071107 0.62932038083071107 0 0.77714596973225614 1 I I 0 1 forward I I I I #
face $-1 $146 $147 $41 $-1 $148 reversed single #
loop $-1 $-1 $149 $70 #
plane-surface $-1 0 0 -21.623247125274553 0 0 1 1 0 0 forward_v I I I I #
coedge $-1 $150 $151 $152 $153 forward $71 $-1 #
face $-1 $154 $155 $43 $-1 $156 reversed single #
loop $-1 $-1 $157 $73 #
plane-surface $-1 0 -27.202810160976448 16.54729099371233 0 -1 0 0 0 -1 forward_v I I I I #
coedge $-1 $158 $159 $160 $161 reversed $74 $-1 #
face $-1 $162 $163 $45 $-1 $164 reversed single #
loop $-1 $-1 $165 $76 #
plane-surface $-1 -46.665554528917795 22.124699891743639 91.787372414784898 0.5877852598018023 0 0.80901698891910034 0.80901698891910034 0 -0.5877852598018023 forward_v I I I I #
coedge $-1 $166 $167 $168 $169 reversed $77 $-1 #
face $-1 $-1 $170 $47 $-1 $171 forward single #
loop $-1 $172 $173 $79 #
cone-surface $-1 61.521410003844736 15.385829501223746 10.692226329369475 -0.5877852598018023 0 -0.80901698891910034 0.40450849445955017 0 -0.29389262990090115 1 I I -0.70710678118654746 0.70710678118654746 forward I I I I #
loop $-1 $-1 $174 $63 #
coedge $-1 $116 $116 $175 $176 reversed $80 $-1 #
face $-1 $-1 $177 $49 $-1 $178 forward single #
loop $-1 $179 $180 $82 #
cone-surface $-1 61.521410003844736 22.124699891743624 10.692226329369475 -0.5877852598018023 0 -0.80901698891910034 0.40450849445955017 0 -0.29389262990090115 1 I I -0.70710678118654746 0.70710678118654746 forward I I I I #
loop $-1 $-1 $181 $64 #
coedge $-1 $121 $121 $182 $183 reversed $83 $-1 #
face $-1 $-1 $184 $51 $-1 $185 forward single #
loop $-1 $186 $187 $85 #
cone-surface $-1 61.521410003844736 28.863570282263503 10.692226329369475 -0.5877852598018023 0 -0.80901698891910034 0.40450849445955017 0 -0.29389262990090115 1 I I -0.70710678118654746 0.70710678118654746 forward I I I I #
loop $-1 $-1 $188 $65 #
coedge $-1 $126 $126 $189 $190 reversed $86 $-1 #
face $-1 $191 $192 $53 $-1 $193 reversed single #
loop $-1 $-1 $194 $88 #
plane-surface $-1 -75.506454664754159 25.50935344808304 5.0566432591805039 -0.77714596973225614 0 0.62932038083071107 0.62932038083071107 0 0.77714596973225614 forward_v I I I I #
coedge $-1 $195 $196 $197 $198 reversed $89 $-1 #
face $-1 $-1 $199 $55 $-1 $200 forward single #
loop $-1 $201 $202 $91 #
cone-surface $-1 -66.919680191484957 21.184245976504265 11.818288959046406 0.77714596973225614 0 -0.62932038083071107 0.31466019041535553 0 0.38857298486612807 1 I I -0.70710678118654746 0.70710678118654746 forward I I I I #
loop $-1 $-1 $203 $67 #
coedge $-1 $135 $135 $204 $205 reversed $92 $-1 #
face $-1 $-1 $206 $57 $-1 $207 forward single #
loop $-1 $208 $209 $94 #
cone-surface $-1 -66.919680191484957 25.50935344808304 11.818288959046406 0.77714596973225614 0 -0.62932038083071107 0.31466019041535553 0 0.38857298486612807 1 I I -0.70710678118654746 0.70710678118654746 forward I I I I #
loop $-1 $-1 $210 $68 #
coedge $-1 $140 $140 $211 $212 reversed $95 $-1 #
face $-1 $-1 $213 $59 $-1 $214 forward single #
loop $-1 $215 $216 $97 #
cone-surface $-1 -66.919680191484957 29.834460919661815 11.818288959046406 0.77714596973225614 0 -0.62932038083071107 0.31466019041535553 0 0.38857298486612807 1 I I -0.70710678118654746 0.70710678118654746 forward I I I I #
loop $-1 $-1 $217 $69 #
coedge $-1 $145 $145 $218 $219 reversed $98 $-1 #
face $-1 $220 $221 $41 $-1 $222 reversed single #
loop $-1 $-1 $223 $100 #
plane-surface $-1 0 -51.247238009928701 0 0 1 0 0 0 1 forward_v I I I I #
coedge $-1 $224 $225 $226 $227 forward $101 $-1 #
coedge $-1 $228 $103 $229 $230 forward $71 $-1 #
coedge $-1 $103 $228 $231 $232 forward $71 $-1 #
coedge $-1 $233 $234 $103 $153 reversed $235 $-1 #
edge $-1 $236 $237 $152 $238 forward #
face $-1 $239 $240 $43 $-1 $241 reversed single #
loop $-1 $-1 $242 $104 #
plane-surface $-1 -75.506454664754173 0 0 1 0 0 0 0 -1 forward_v I I I I #
coedge $-1 $243 $244 $245 $246 reversed $105 $-1 #
coedge $-1 $247 $107 $248 $249 reversed $74 $-1 #
coedge $-1 $107 $247 $243 $250 forward $74 $-1 #
coedge $-1 $245 $251 $107 $161 forward $252 $-1 #
edge $-1 $253 $254 $160 $255 forward #
face $-1 $256 $257 $45 $-1 $258 reversed single #
loop $-1 $-1 $259 $108 #
plane-surface $-1 42.097607614753286 10.893249240877168 213.95938160845685 0 1 0 0.5877852598018023 0 0.80901698891910034 forward_v I I I I #
coedge $-1 $260 $261 $262 $263 reversed $109 $-1 #
coedge $-1 $167 $111 $264 $265 reversed $77 $-1 #
coedge $-1 $111 $166 $260 $266 reversed $77 $-1 #
coedge $-1 $262 $267 $111 $169 forward $268 $-1 #
edge $-1 $269 $270 $168 $271 forward #
loop $-1 $-1 $175 $112 #
plane-surface $-1 -46.665554528917795 22.124699891743639 91.787372414784898 0.5877852598018023 0 0.80901698891910034 0.80901698891910034 0 -0.5877852598018023 forward_v I I I I #
loop $-1 $-1 $272 $79 #
coedge $-1 $173 $173 $174 $273 reversed $113 $-1 #
coedge $-1 $174 $174 $173 $273 forward $115 $-1 #
coedge $-1 $175 $175 $116 $176 forward $170 $-1 #
edge $-1 $274 $274 $175 $275 forward #
loop $-1 $-1 $182 $117 #
plane-surface $-1 -46.665554528917795 22.124699891743639 91.787372414784898 0.5877852598018023 0 0.80901698891910034 0.80901698891910034 0 -0.5877852598018023 forward_v I I I I #
loop $-1 $-1 $276 $82 #
coedge $-1 $180 $180 $181 $277 reversed $118 $-1 #
coedge $-1 $181 $181 $180 $277 forward $120 $-1 #
coedge $-1 $182 $182 $121 $183 forward $177 $-1 #
edge $-1 $278 $278 $182 $279 forward #
loop $-1 $-1 $189 $122 #
plane-surface $-1 -46.665554528917795 22.124699891743639 91.787372414784898 0.5877852598018023 0 0.80901698891910034 0.80901698891910034 0 -0.5877852598018023 forward_v I I I I #
loop $-1 $-1 $280 $85 #
coedge $-1 $187 $187 $188 $281 reversed $123 $-1 #
coedge $-1 $188 $188 $187 $281 forward $125 $-1 #
coedge $-1 $189 $189 $126 $190 forward $184 $-1 #
edge $-1 $282 $282 $189 $283 forward #
face $-1 $284 $285 $53 $-1 $286 forward single #
loop $-1 $-1 $287 $127 #
plane-surface $-1 -192.86552852772419 32.717865900714337 100.09214486878034 0 -1 0 0.77714596973225614 0 -0.62932038083071107 forward_v I I I I #
coedge $-1 $288 $289 $290 $291 reversed $128 $-1 #
coedge $-1 $196 $130 $292 $293 reversed $89 $-1 #
coedge $-1 $130 $195 $288 $294 reversed $89 $-1 #
coedge $-1 $290 $295 $130 $198 forward $285 $-1 #
edge $-1 $296 $297 $197 $298 forward #
loop $-1 $-1 $204 $131 #
plane-surface $-1 -75.506454664754159 25.50935344808304 5.0566432591805039 -0.77714596973225614 0 0.62932038083071107 0.62932038083071107 0 0.77714596973225614 forward_v I I I I #
loop $-1 $-1 $299 $91 #
coedge $-1 $202 $202 $203 $300 reversed $132 $-1 #
coedge $-1 $203 $203 $202 $300 forward $134 $-1 #
coedge $-1 $204 $204 $135 $205 forward $199 $-1 #
edge $-1 $301 $301 $204 $302 forward #
loop $-1 $-1 $211 $136 #
plane-surface $-1 -75.506454664754159 25.50935344808304 5.0566432591805039 -0.77714596973225614 0 0.62932038083071107 0.62932038083071107 0 0.77714596973225614 forward_v I I I I #
loop $-1 $-1 $303 $94 #
coedge $-1 $209 $209 $210 $304 reversed $137 $-1 #
coedge $-1 $210 $210 $209 $304 forward $139 $-1 #
coedge $-1 $211 $211 $140 $212 forward $206 $-1 #
edge $-1 $305 $305 $211 $306 forward #
loop $-1 $-1 $218 $141 #
plane-surface $-1 -75.506454664754159 25.50935344808304 5.0566432591805039 -0.77714596973225614 0 0.62932038083071107 0.62932038083071107 0 0.77714596973225614 forward_v I I I I #
loop $-1 $-1 $307 $97 #
coedge $-1 $216 $216 $217 $308 reversed $142 $-1 #
coedge $-1 $217 $217 $216 $308 forward $144 $-1 #
coedge $-1 $218 $218 $145 $219 forward $213 $-1 #
edge $-1 $309 $309 $218 $310 forward #
face $-1 $311 $312 $41 $-1 $313 reversed single #
loop $-1 $-1 $314 $146 #
plane-surface $-1 -75.506454664754173 0 0 1 0 0 0 0 -1 forward_v I I I I #
coedge $-1 $315 $231 $316 $317 forward $147 $-1 #
coedge $-1 $318 $149 $315 $319 forward $101 $-1 #
coedge $-1 $149 $318 $320 $321 forward $101 $-1 #
coedge $-1 $234 $233 $149 $227 reversed $235 $-1 #
edge $-1 $322 $323 $226 $324 forward #
coedge $-1 $151 $150 $325 $326 forward $71 $-1 #
coedge $-1 $327 $328 $150 $230 reversed $312 $-1 #
edge $-1 $237 $329 $229 $330 forward #
coedge $-1 $223 $331 $151 $232 reversed $147 $-1 #
edge $-1 $332 $236 $231 $333 forward #
coedge $-1 $226 $152 $331 $334 forward $235 $-1 #
coedge $-1 $152 $226 $327 $335 reversed $235 $-1 #
loop $-1 $-1 $233 $311 #
vertex $-1 $153 $336 #
vertex $-1 $153 $337 #
straight-curve $-1 75.506454664754173 0 21.623247125274553 0 1 0 I I #
face $-1 $338 $339 $43 $-1 $340 forward single #
loop $-1 $-1 $248 $154 #
plane-surface $-1 0 -51.247238009928701 0 0 1 0 0 0 1 forward_v I I I I #
coedge $-1 $341 $342 $343 $344 forward $155 $-1 #
coedge $-1 $343 $157 $159 $250 reversed $105 $-1 #
coedge $-1 $157 $343 $345 $346 reversed $105 $-1 #
coedge $-1 $347 $160 $157 $246 forward $252 $-1 #
edge $-1 $254 $348 $245 $349 forward #
coedge $-1 $159 $158 $341 $350 reversed $74 $-1 #
coedge $-1 $351 $352 $158 $249 forward $240 $-1 #
edge $-1 $353 $253 $248 $354 forward #
edge $-1 $355 $254 $243 $356 forward #
coedge $-1 $160 $347 $351 $357 forward $252 $-1 #
loop $-1 $-1 $245 $338 #
vertex $-1 $249 $358 #
vertex $-1 $161 $359 #
straight-curve $-1 75.506454664754173 -19.612512042726287 11.471334862150108 0 1 0 I I #
face $-1 $-1 $268 $45 $-1 $360 forward single #
loop $-1 $-1 $361 $162 #
plane-surface $-1 75.506454664754173 0 0 -1 0 0 0 0 1 forward_v I I I I #
coedge $-1 $362 $363 $364 $365 reversed $163 $-1 #
coedge $-1 $366 $165 $167 $266 forward $109 $-1 #
coedge $-1 $165 $366 $362 $367 forward $109 $-1 #
coedge $-1 $364 $168 $165 $263 forward $268 $-1 #
edge $-1 $270 $368 $262 $369 forward #
coedge $-1 $370 $371 $166 $265 forward $257 $-1 #
edge $-1 $372 $269 $264 $373 forward #
edge $-1 $270 $372 $167 $374 forward #
coedge $-1 $168 $364 $370 $375 forward $268 $-1 #
loop $-1 $-1 $364 $256 #
vertex $-1 $265 $376 #
vertex $-1 $169 $377 #
straight-curve $-1 21.048803807376643 33.356150542610109 21.623247125274546 -1 0 0 I I #
coedge $-1 $272 $272 $-1 $378 reversed $172 $-1 #
edge $-1 $379 $379 $173 $380 forward #
vertex $-1 $176 $381 #
ellipse-curve $-1 62.706765882474855 15.385829501223746 12.323728698194191 0.5877852598018023 0 0.80901698891910034 0.80901698891910034 0 -0.5877852598018023 1 I I #
coedge $-1 $276 $276 $-1 $382 reversed $179 $-1 #
edge $-1 $383 $383 $180 $384 forward #
vertex $-1 $183 $385 #
ellipse-curve $-1 62.706765882474855 22.124699891743624 12.323728698194191 0.5877852598018023 0 0.80901698891910034 0.80901698891910034 0 -0.5877852598018023 1 I I #
coedge $-1 $280 $280 $-1 $386 reversed $186 $-1 #
edge $-1 $387 $387 $187 $388 forward #
vertex $-1 $190 $389 #
ellipse-curve $-1 62.706765882474855 28.863570282263503 12.323728698194191 0.5877852598018023 0 0.80901698891910034 0.80901698891910034 0 -0.5877852598018023 1 I I #
face $-1 $-1 $390 $53 $-1 $391 reversed single #
loop $-1 $-1 $197 $191 #
plane-surface $-1 0 0 21.623247125274553 0 0 1 1 0 0 forward_v I I I I #
coedge $-1 $392 $393 $394 $395 reversed $192 $-1 #
coedge $-1 $396 $194 $196 $294 forward $128 $-1 #
coedge $-1 $194 $396 $392 $397 forward $128 $-1 #
coedge $-1 $394 $197 $194 $291 forward $285 $-1 #
edge $-1 $297 $398 $290 $399 forward #
coedge $-1 $400 $401 $195 $293 forward $390 $-1 #
edge $-1 $402 $296 $292 $403 forward #
edge $-1 $297 $402 $196 $404 forward #
coedge $-1 $197 $394 $400 $405 forward $285 $-1 #
vertex $-1 $293 $406 #
vertex $-1 $198 $407 #
straight-curve $-1 -96.432764263862097 18.300840995451743 21.623247125274553 1 0 0 I I #
coedge $-1 $299 $299 $-1 $408 reversed $201 $-1 #
edge $-1 $409 $409 $202 $410 forward #
vertex $-1 $205 $411 #
ellipse-curve $-1 -68.798769197586566 21.184245976504265 13.339945192227525 -0.77714596973225614 0 0.62932038083071107 0.62932038083071107 0 0.77714596973225614 1 I I #
coedge $-1 $303 $303 $-1 $412 reversed $208 $-1 #
edge $-1 $413 $413 $209 $414 forward #
vertex $-1 $212 $415 #
ellipse-curve $-1 -68.798769197586566 25.50935344808304 13.339945192227525 -0.77714596973225614 0 0.62932038083071107 0.62932038083071107 0 0.77714596973225614 1 I I #
coedge $-1 $307 $307 $-1 $416 reversed $215 $-1 #
edge $-1 $417 $417 $216 $418 forward #
vertex $-1 $219 $419 #
ellipse-curve $-1 -68.798769197586566 29.834460919661815 13.339945192227525 -0.77714596973225614 0 0.62932038083071107 0.62932038083071107 0 0.77714596973225614 1 I I #
face $-1 $-1 $235 $41 $-1 $420 reversed single #
loop $-1 $-1 $327 $220 #
plane-surface $-1 0 51.247238009928701 0 0 -1 0 0 0 -1 forward_v I I I I #
coedge $-1 $421 $325 $328 $422 forward $221 $-1 #
coedge $-1 $331 $223 $224 $319 reversed $147 $-1 #
coedge $-1 $325 $421 $223 $317 reversed $221 $-1 #
edge $-1 $332 $423 $316 $424 forward #
coedge $-1 $225 $224 $421 $425 forward $101 $-1 #
edge $-1 $323 $423 $315 $426 forward #
coedge $-1 $328 $327 $225 $321 reversed $312 $-1 #
edge $-1 $427 $322 $320 $428 forward #
vertex $-1 $227 $429 #
vertex $-1 $334 $430 #
straight-curve $-1 75.506454664754173 0 -21.623247125274553 0 -1 0 I I #
coedge $-1 $314 $316 $228 $326 reversed $221 $-1 #
edge $-1 $329 $332 $325 $431 forward #
coedge $-1 $320 $229 $234 $335 forward $312 $-1 #
coedge $-1 $229 $320 $314 $422 reversed $312 $-1 #
vertex $-1 $230 $432 #
straight-curve $-1 0 51.247238009928701 21.623247125274553 -1 0 0 I I #
coedge $-1 $231 $315 $233 $334 reversed $147 $-1 #
vertex $-1 $326 $433 #
straight-curve $-1 0 -51.247238009928701 21.623247125274553 1 0 0 I I #
edge $-1 $236 $323 $233 $434 forward #
edge $-1 $237 $322 $234 $435 forward #
point $-1 75.506454664754173 -51.247238009928701 21.623247125274553 #
point $-1 75.506454664754173 51.247238009928701 21.623247125274553 #
face $-1 $-1 $252 $43 $-1 $436 reversed single #
loop $-1 $-1 $345 $239 #
plane-surface $-1 0 0 21.623247125274553 0 0 1 1 0 0 forward_v I I I I #
coedge $-1 $437 $242 $247 $350 forward $155 $-1 #
coedge $-1 $242 $437 $438 $439 reversed $155 $-1 #
coedge $-1 $244 $243 $242 $344 reversed $105 $-1 #
edge $-1 $440 $355 $242 $441 forward #
coedge $-1 $438 $442 $244 $346 forward $339 $-1 #
edge $-1 $348 $440 $345 $443 forward #
coedge $-1 $251 $245 $442 $444 reversed $252 $-1 #
vertex $-1 $246 $445 #
straight-curve $-1 75.506454664754173 -27.202810160976448 8.2736454968561652 0 0 1 I I #
edge $-1 $355 $353 $341 $446 forward #
coedge $-1 $447 $248 $251 $357 reversed $240 $-1 #
coedge $-1 $248 $447 $437 $448 forward $240 $-1 #
vertex $-1 $249 $449 #
straight-curve $-1 0 -51.247238009928701 11.471334862150108 1 0 0 I I #
vertex $-1 $350 $450 #
straight-curve $-1 0 -27.202810160976448 11.471334862150108 1 0 0 I I #
edge $-1 $451 $253 $251 $452 forward #
point $-1 75.506454664754173 -51.247238009928701 11.471334862150108 #
point $-1 75.506454664754173 -27.202810160976448 11.471334862150108 #
plane-surface $-1 0 0 21.623247125274553 0 0 1 1 0 0 forward_v I I I I #
coedge $-1 $371 $370 $363 $453 forward $257 $-1 #
coedge $-1 $363 $259 $261 $367 reversed $163 $-1 #
coedge $-1 $259 $362 $361 $453 reversed $163 $-1 #
coedge $-1 $267 $262 $259 $365 forward $268 $-1 #
edge $-1 $368 $454 $364 $455 forward #
coedge $-1 $261 $260 $371 $456 reversed $109 $-1 #
edge $-1 $457 $368 $362 $458 forward #
vertex $-1 $263 $459 #
straight-curve $-1 49.9070771001956 11.062349945871819 21.623247125274546 0 -1 0 I I #
coedge $-1 $361 $264 $267 $375 reversed $257 $-1 #
coedge $-1 $264 $361 $366 $456 forward $257 $-1 #
vertex $-1 $265 $460 #
straight-curve $-1 75.506454664754173 33.356150542610109 106.97969080422843 0 0 1 I I #
straight-curve $-1 -46.665554528917795 33.356150542610109 91.787372414784898 0.80901698891910034 0 -0.5877852598018023 I I #
edge $-1 $454 $269 $370 $461 forward #
point $-1 75.506454664754173 33.356150542610109 21.623247125274553 #
point $-1 49.907077100195565 33.356150542610109 21.62324712527456 #
edge $-1 $462 $462 $272 $-1 forward #
vertex $-1 $273 $463 #
ellipse-curve $-1 61.815302633745638 15.385829501223746 11.096734823829026 0.5877852598018023 0 0.80901698891910034 0.80901698891910034 0 -0.5877852598018023 1 I I #
point $-1 63.515782871393959 15.385829501223746 11.735943438392395 #
edge $-1 $464 $464 $276 $-1 forward #
vertex $-1 $277 $465 #
ellipse-curve $-1 61.815302633745638 22.124699891743624 11.096734823829026 0.5877852598018023 0 0.80901698891910034 0.80901698891910034 0 -0.5877852598018023 1 I I #
point $-1 63.515782871393959 22.124699891743624 11.735943438392395 #
edge $-1 $466 $466 $280 $-1 forward #
vertex $-1 $281 $467 #
ellipse-curve $-1 61.815302633745638 28.863570282263503 11.096734823829026 0.5877852598018023 0 0.80901698891910034 0.80901698891910034 0 -0.5877852598018023 1 I I #
point $-1 63.515782871393959 28.863570282263503 11.735943438392395 #
loop $-1 $-1 $292 $284 #
plane-surface $-1 -75.506454664754173 0 0 1 0 0 0 0 -1 forward_v I I I I #
coedge $-1 $393 $287 $289 $397 reversed $192 $-1 #
coedge $-1 $287 $392 $468 $469 reversed $192 $-1 #
coedge $-1 $295 $290 $287 $395 forward $285 $-1 #
edge $-1 $398 $470 $394 $471 forward #
coedge $-1 $289 $288 $401 $472 reversed $128 $-1 #
edge $-1 $473 $398 $392 $474 forward #
vertex $-1 $291 $475 #
straight-curve $-1 -62.091083730418973 12.75467672404152 21.623247125274553 0 1 0 I I #
coedge $-1 $468 $292 $295 $405 reversed $390 $-1 #
coedge $-1 $292 $468 $396 $472 forward $390 $-1 #
vertex $-1 $293 $476 #
straight-curve $-1 -75.506454664754173 18.300840995451743 50.046072434390169 0 0 1 I I #
straight-curve $-1 -75.506454664754159 18.300840995451743 5.0566432591805039 -0.62932038083071107 0 -0.77714596973225614 I I #
edge $-1 $470 $296 $400 $477 forward #
point $-1 -75.506454664754173 18.300840995451743 21.623247125274553 #
point $-1 -62.09108373041898 18.300840995451743 21.623247125274553 #
edge $-1 $478 $478 $299 $-1 forward #
vertex $-1 $300 $479 #
ellipse-curve $-1 -67.308253176351087 21.184245976504265 12.132949149461762 -0.77714596973225614 0 0.62932038083071107 0.62932038083071107 0 0.77714596973225614 1 I I #
point $-1 -68.169448816755875 21.184245976504265 14.11709116195979 #
edge $-1 $480 $480 $303 $-1 forward #
vertex $-1 $304 $481 #
ellipse-curve $-1 -67.308253176351087 25.50935344808304 12.132949149461762 -0.77714596973225614 0 0.62932038083071107 0.62932038083071107 0 0.77714596973225614 1 I I #
point $-1 -68.169448816755875 25.50935344808304 14.11709116195979 #
edge $-1 $482 $482 $307 $-1 forward #
vertex $-1 $308 $483 #
ellipse-curve $-1 -67.308253176351087 29.834460919661815 12.132949149461762 -0.77714596973225614 0 0.62932038083071107 0.62932038083071107 0 0.77714596973225614 1 I I #
point $-1 -68.169448816755875 29.834460919661815 14.11709116195979 #
plane-surface $-1 75.506454664754173 0 0 -1 0 0 0 0 1 forward_v I I I I #
coedge $-1 $316 $314 $318 $425 reversed $221 $-1 #
edge $-1 $329 $427 $328 $484 forward #
vertex $-1 $425 $485 #
straight-curve $-1 -75.506454664754173 -51.247238009928701 0 0 0 -1 I I #
edge $-1 $423 $427 $421 $486 forward #
straight-curve $-1 0 -51.247238009928701 -21.623247125274553 -1 0 0 I I #
vertex $-1 $321 $487 #
straight-curve $-1 0 51.247238009928701 -21.623247125274553 1 0 0 I I #
point $-1 75.506454664754173 51.247238009928701 -21.623247125274553 #
point $-1 75.506454664754173 -51.247238009928701 -21.623247125274553 #
straight-curve $-1 -75.506454664754173 0 21.623247125274553 0 -1 0 I I #
point $-1 -75.506454664754173 51.247238009928701 21.623247125274553 #
point $-1 -75.506454664754173 -51.247238009928701 21.623247125274553 #
straight-curve $-1 75.506454664754173 -51.247238009928701 0 0 0 -1 I I #
straight-curve $-1 75.506454664754173 51.247238009928701 0 0 0 -1 I I #
plane-surface $-1 75.506454664754173 0 0 -1 0 0 0 0 1 forward_v I I I I #
coedge $-1 $342 $341 $352 $448 reversed $155 $-1 #
coedge $-1 $488 $345 $342 $439 forward $339 $-1 #
edge $-1 $440 $489 $342 $490 forward #
vertex $-1 $439 $491 #
straight-curve $-1 -75.506454664754173 -27.202810160976448 8.2736454968561652 0 0 -1 I I #
coedge $-1 $345 $488 $347 $444 forward $339 $-1 #
straight-curve $-1 0 -27.202810160976448 21.623247125274553 -1 0 0 I I #
edge $-1 $451 $348 $347 $492 forward #
point $-1 75.506454664754173 -27.202810160976448 21.623247125274553 #
straight-curve $-1 -75.506454664754173 -19.612512042726287 11.471334862150108 0 -1 0 I I #
coedge $-1 $352 $351 $488 $493 reversed $240 $-1 #
edge $-1 $489 $353 $437 $494 forward #
point $-1 -75.506454664754173 -51.247238009928701 11.471334862150108 #
point $-1 -75.506454664754173 -27.202810160976448 11.471334862150108 #
vertex $-1 $444 $495 #
straight-curve $-1 75.506454664754173 -51.247238009928701 0 0 0 -1 I I #
edge $-1 $454 $457 $361 $496 forward #
vertex $-1 $375 $497 #
straight-curve $-1 21.048803807376643 10.893249240877168 21.623247125274546 1 0 0 I I #
edge $-1 $457 $372 $371 $498 forward #
vertex $-1 $456 $499 #
straight-curve $-1 -46.665554528917795 10.893249240877168 91.787372414784898 -0.80901698891910034 0 0.5877852598018023 I I #
point $-1 49.907077100195565 10.893249240877168 21.62324712527456 #
point $-1 75.506454664754159 33.356150542610109 3.0242102711138159 #
straight-curve $-1 75.506454664754173 0 21.623247125274553 0 1 0 I I #
vertex $-1 $378 $500 #
point $-1 62.624319622664736 15.385829501223746 10.508949564027223 #
vertex $-1 $382 $501 #
point $-1 62.624319622664736 22.124699891743624 10.508949564027223 #
vertex $-1 $386 $502 #
point $-1 62.624319622664736 28.863570282263503 10.508949564027223 #
coedge $-1 $401 $400 $393 $469 forward $390 $-1 #
edge $-1 $470 $473 $468 $503 forward #
vertex $-1 $405 $504 #
straight-curve $-1 -96.432764263862097 32.717865900714337 21.623247125274553 -1 0 0 I I #
edge $-1 $473 $402 $401 $505 forward #
vertex $-1 $472 $506 #
straight-curve $-1 -75.506454664754159 32.717865900714337 5.0566432591805039 0.62932038083071107 0 0.77714596973225614 I I #
point $-1 -62.09108373041898 32.717865900714337 21.623247125274553 #
point $-1 -75.506454664754173 18.300840995451743 5.0566432591804862 #
straight-curve $-1 -75.506454664754173 0 21.623247125274553 0 -1 0 I I #
vertex $-1 $408 $507 #
point $-1 -66.678932795520367 21.184245976504265 12.910095119194018 #
vertex $-1 $412 $508 #
point $-1 -66.678932795520367 25.50935344808304 12.910095119194018 #
vertex $-1 $416 $509 #
point $-1 -66.678932795520367 29.834460919661815 12.910095119194018 #
straight-curve $-1 -75.506454664754173 51.247238009928701 0 0 0 -1 I I #
point $-1 -75.506454664754173 -51.247238009928701 -21.623247125274553 #
straight-curve $-1 -75.506454664754173 0 -21.623247125274553 0 1 0 I I #
point $-1 -75.506454664754173 51.247238009928701 -21.623247125274553 #
coedge $-1 $442 $438 $447 $493 forward $339 $-1 #
vertex $-1 $439 $510 #
straight-curve $-1 -75.506454664754173 0 21.623247125274553 0 -1 0 I I #
point $-1 -75.506454664754173 -27.202810160976448 21.623247125274553 #
straight-curve $-1 75.506454664754173 0 21.623247125274553 0 1 0 I I #
edge $-1 $489 $451 $447 $511 forward #
straight-curve $-1 -75.506454664754173 -51.247238009928701 0 0 0 -1 I I #
point $-1 75.506454664754173 -51.247238009928701 21.623247125274553 #
straight-curve $-1 75.506454664754173 10.893249240877168 106.97969080422843 0 0 -1 I I #
point $-1 75.506454664754173 10.893249240877168 21.623247125274553 #
straight-curve $-1 75.506454664754187 11.062349945871819 3.0242102711138088 0 1 0 I I #
point $-1 75.506454664754159 10.893249240877168 3.0242102711138159 #
point $-1 61.227517373943833 15.385829501223746 10.287717834909925 #
point $-1 61.227517373943833 22.124699891743624 10.287717834909925 #
point $-1 61.227517373943833 28.863570282263503 10.287717834909925 #
straight-curve $-1 -75.506454664754173 32.717865900714337 50.046072434390169 0 0 -1 I I #
point $-1 -75.506454664754173 32.717865900714337 21.623247125274553 #
straight-curve $-1 -75.506454664754173 12.75467672404152 5.0566432591804711 0 -1 0 I I #
point $-1 -75.506454664754173 32.717865900714337 5.0566432591804862 #
point $-1 -66.531107206618827 21.184245976504265 11.503628768631049 #
point $-1 -66.531107206618827 25.50935344808304 11.503628768631049 #
point $-1 -66.531107206618827 29.834460919661815 11.503628768631049 #
point $-1 -75.506454664754173 -51.247238009928701 21.623247125274553 #
straight-curve $-1 0 -51.247238009928701 21.623247125274553 1 0 0 I I #
End-of-ACIS-data 