600 0 4 0           
94 GICL ACIS Healer - Source: /gicl/data5/repository/Drexel/SM99-DATA/part86.smdg.delta.sat - 6 0 18 ACIS 6.0.3 Solaris 24 Sat Apr 13 20:46:14 2002 
1 9.999999999999999547e-07 1.000000000000000036e-10 
body $-1 $4 $-1 $-1 #
body $-1 $5 $-1 $-1 #
body $-1 $6 $-1 $-1 #
body $-1 $7 $-1 $-1 #
lump $-1 $-1 $8 $0 #
lump $-1 $-1 $9 $1 #
lump $-1 $-1 $10 $2 #
lump $-1 $-1 $11 $3 #
shell $-1 $-1 $-1 $12 $-1 $4 #
shell $-1 $-1 $-1 $13 $-1 $5 #
shell $-1 $-1 $-1 $14 $-1 $6 #
shell $-1 $-1 $-1 $15 $-1 $7 #
face $-1 $16 $17 $8 $-1 $18 forward single #
face $-1 $19 $20 $9 $-1 $21 forward single #
face $-1 $22 $23 $10 $-1 $24 reversed single #
face $-1 $25 $26 $11 $-1 $27 forward single #
face $-1 $28 $29 $8 $-1 $30 reversed single #
loop $-1 $-1 $31 $12 #
plane-surface $-1 60.28382213812677293 24.61799444655520475 14.43616564505963318 0 0 1 1 0 0 forward_v I I I I #
face $-1 $32 $33 $9 $-1 $34 reversed single #
loop $-1 $-1 $35 $13 #
plane-surface $-1 60.28382213812677293 0 7.218082822529816589 0 1 0 0 0 1 forward_v I I I I #
face $-1 $36 $37 $10 $-1 $38 reversed single #
loop $-1 $-1 $39 $14 #
plane-surface $-1 95.01798908777057306 82.47380062354628194 134.137455353809969 1 0 0 0 -0.6018150307709319025 -0.7986355043060522352 forward_v I I I I #
face $-1 $40 $41 $11 $-1 $42 forward single #
loop $-1 $43 $44 $15 #
cone-surface $-1 107.7928166820120595 43.43256249897509491 9.10133994875949881 0 -0.6018150307709319025 -0.7986355043060522352 1.5 0 0 1 I I 0 1 1.5 forward I I I I #
face $-1 $45 $46 $8 $-1 $47 reversed single #
loop $-1 $-1 $48 $16 #
plane-surface $-1 60.28382213812677293 24.61799444655520475 0 0 0 1 1 0 0 forward_v I I I I #
coedge $-1 $49 $50 $51 $52 forward $17 $-1 #
face $-1 $53 $54 $9 $-1 $55 reversed single #
loop $-1 $-1 $56 $19 #
plane-surface $-1 60.28382213812677293 24.61799444655520475 0 0 0 1 1 0 0 forward_v I I I I #
coedge $-1 $57 $58 $59 $60 forward $20 $-1 #
face $-1 $61 $62 $10 $-1 $63 forward single #
loop $-1 $-1 $64 $22 #
plane-surface $-1 107.7928166820120595 9.914380073453987308 37.84785396425150594 0 0.6018150307709319025 0.7986355043060522352 1 0 0 forward_v I I I I #
coedge $-1 $65 $66 $67 $68 reversed $23 $-1 #
face $-1 $-1 $69 $11 $-1 $70 forward single #
loop $-1 $71 $72 $25 #
cone-surface $-1 107.7928166820120595 41.30439967523506795 6.277172550006152818 0 -0.6018150307709319025 -0.7986355043060522352 0.75 0 0 1 I I -0.7071067811865475727 0.7071067811865475727 0.75 forward I I I I #
loop $-1 $-1 $73 $15 #
coedge $-1 $44 $44 $74 $75 reversed $26 $-1 #
face $-1 $76 $77 $8 $-1 $78 reversed single #
loop $-1 $-1 $79 $28 #
plane-surface $-1 60.28382213812677293 0 7.218082822529816589 0 1 0 0 0 1 forward_v I I I I #
coedge $-1 $80 $81 $82 $83 forward $29 $-1 #
coedge $-1 $84 $31 $85 $86 forward $17 $-1 #
coedge $-1 $31 $84 $87 $88 forward $17 $-1 #
coedge $-1 $89 $90 $31 $52 reversed $91 $-1 #
edge $-1 $92 -24.61799444655520475 $93 24.61799444655520475 $51 $94 forward 7 unknown #
face $-1 $95 $96 $9 $-1 $97 forward single #
loop $-1 $-1 $98 $32 #
plane-surface $-1 120.5676442762535459 24.61799444655520475 7.218082822529816589 -1 0 0 0 0 1 forward_v I I I I #
coedge $-1 $99 $100 $101 $102 forward $33 $-1 #
coedge $-1 $101 $35 $98 $103 reversed $20 $-1 #
coedge $-1 $35 $101 $104 $105 reversed $20 $-1 #
coedge $-1 $106 $107 $35 $60 reversed $96 $-1 #
edge $-1 $108 -60.28382213812677293 $109 60.28382213812677293 $59 $110 forward 7 unknown #
face $-1 $111 $112 $10 $-1 $113 reversed single #
loop $-1 $-1 $67 $36 #
plane-surface $-1 60.28382213812677293 24.61799444655520475 14.43616564505963318 0 0 1 1 0 0 forward_v I I I I #
coedge $-1 $114 $115 $116 $117 reversed $37 $-1 #
coedge $-1 $66 $39 $118 $119 reversed $23 $-1 #
coedge $-1 $39 $65 $114 $120 reversed $23 $-1 #
coedge $-1 $116 $121 $39 $68 forward $62 $-1 #
edge $-1 $122 4.309908641940332075 $123 12.56315832888728323 $67 $124 forward 7 unknown #
loop $-1 $-1 $74 $40 #
plane-surface $-1 107.7928166820120595 9.914380073453987308 37.84785396425150594 0 0.6018150307709319025 0.7986355043060522352 1 0 0 forward_v I I I I #
loop $-1 $-1 $125 $25 #
coedge $-1 $72 $72 $73 $126 reversed $41 $-1 #
coedge $-1 $73 $73 $72 $126 forward $43 $-1 #
coedge $-1 $74 $74 $44 $75 forward $69 $-1 #
edge $-1 $127 -4.392737749714814924e-16 $127 6.283185307179586232 $74 $128 forward 7 unknown #
face $-1 $129 $130 $8 $-1 $131 reversed single #
loop $-1 $-1 $132 $45 #
plane-surface $-1 0 24.61799444655520475 7.218082822529816589 1 0 0 0 0 -1 forward_v I I I I #
coedge $-1 $133 $87 $134 $135 forward $46 $-1 #
coedge $-1 $136 $48 $133 $137 forward $29 $-1 #
coedge $-1 $48 $136 $138 $139 forward $29 $-1 #
coedge $-1 $90 $89 $48 $83 reversed $91 $-1 #
edge $-1 $140 -24.61799444655520475 $141 24.61799444655520475 $82 $142 forward 7 unknown #
coedge $-1 $50 $49 $143 $144 forward $17 $-1 #
coedge $-1 $145 $146 $49 $86 reversed $130 $-1 #
edge $-1 $93 -60.28382213812677293 $147 60.28382213812677293 $85 $148 forward 7 unknown #
coedge $-1 $79 $149 $50 $88 reversed $46 $-1 #
edge $-1 $150 -60.28382213812677293 $92 60.28382213812677293 $87 $151 forward 7 unknown #
coedge $-1 $82 $51 $149 $152 forward $91 $-1 #
coedge $-1 $51 $82 $145 $153 reversed $91 $-1 #
loop $-1 $-1 $89 $129 #
vertex $-1 $52 $154 #
vertex $-1 $52 $155 #
straight-curve $-1 120.5676442762535459 24.61799444655520475 14.43616564505963318 0 1 0 I I #
face $-1 $156 $157 $9 $-1 $158 reversed single #
loop $-1 $-1 $107 $53 #
plane-surface $-1 60.28382213812677293 -3.19686810921079001 3.260968878903710788 0 0 1 1 0 0 forward_v I I I I #
coedge $-1 $159 $160 $57 $103 forward $54 $-1 #
coedge $-1 $161 $56 $160 $162 forward $33 $-1 #
coedge $-1 $56 $161 $163 $164 forward $33 $-1 #
coedge $-1 $58 $57 $56 $102 reversed $20 $-1 #
edge $-1 $165 -60.28382213812677293 $166 60.28382213812677293 $56 $167 forward 7 unknown #
edge $-1 $166 -7.218082822529816589 $109 -3.957113943626105801 $98 $168 forward 7 unknown #
coedge $-1 $163 $169 $58 $105 forward $170 $-1 #
edge $-1 $108 3.957113943626105801 $165 7.218082822529816589 $104 $171 forward 7 unknown #
coedge $-1 $172 $59 $169 $173 forward $96 $-1 #
coedge $-1 $59 $172 $159 $174 forward $96 $-1 #
vertex $-1 $105 $175 #
vertex $-1 $174 $176 #
straight-curve $-1 60.28382213812677293 0 3.260968878903710788 1 0 0 I I #
face $-1 $-1 $177 $10 $-1 $178 reversed single #
loop $-1 $-1 $179 $61 #
plane-surface $-1 120.5676442762535459 24.61799444655520475 7.218082822529816589 -1 0 0 0 0 1 forward_v I I I I #
coedge $-1 $180 $64 $66 $120 forward $37 $-1 #
coedge $-1 $64 $180 $179 $181 reversed $37 $-1 #
coedge $-1 $182 $67 $64 $117 forward $62 $-1 #
edge $-1 $123 10.97966967770115332 $183 36.52932486618412611 $116 $184 forward 7 unknown #
coedge $-1 $185 $186 $65 $119 forward $177 $-1 #
edge $-1 $187 -62.46087329466288907 $122 -56.24160344311026449 $118 $188 forward 7 unknown #
edge $-1 $123 38.9018005901268964 $187 49.2359888931104166 $66 $189 forward 7 unknown #
coedge $-1 $67 $182 $185 $190 forward $62 $-1 #
vertex $-1 $119 $191 #
vertex $-1 $68 $192 #
straight-curve $-1 95.01798908777057306 53.54589753505074157 14.4361656450596314 0 -1 0 I I #
coedge $-1 $125 $125 $-1 $193 reversed $71 $-1 #
edge $-1 $194 0 $194 6.283185307179586232 $72 $195 forward 7 unknown #
vertex $-1 $75 $196 #
ellipse-curve $-1 107.7928166820120595 45.10936404963693747 11.32653071928332267 0 0.6018150307709319025 0.7986355043060522352 1.5 0 0 1 I I #
face $-1 $-1 $91 $8 $-1 $197 reversed single #
loop $-1 $-1 $145 $76 #
plane-surface $-1 60.28382213812677293 49.23598889311040949 7.218082822529816589 0 -1 0 0 0 -1 forward_v I I I I #
coedge $-1 $198 $143 $146 $199 forward $77 $-1 #
coedge $-1 $149 $79 $80 $137 reversed $46 $-1 #
coedge $-1 $143 $198 $79 $135 reversed $77 $-1 #
edge $-1 $150 -7.218082822529816589 $200 7.218082822529816589 $134 $201 forward 7 unknown #
coedge $-1 $81 $80 $198 $202 forward $29 $-1 #
edge $-1 $141 -60.28382213812677293 $200 60.28382213812677293 $133 $203 forward 7 unknown #
coedge $-1 $146 $145 $81 $139 reversed $130 $-1 #
edge $-1 $204 -60.28382213812677293 $140 60.28382213812677293 $138 $205 forward 7 unknown #
vertex $-1 $83 $206 #
vertex $-1 $152 $207 #
straight-curve $-1 120.5676442762535459 24.61799444655520475 0 0 -1 0 I I #
coedge $-1 $132 $134 $84 $144 reversed $77 $-1 #
edge $-1 $147 -24.61799444655520475 $150 24.61799444655520475 $143 $208 forward 7 unknown #
coedge $-1 $138 $85 $90 $153 forward $130 $-1 #
coedge $-1 $85 $138 $132 $199 reversed $130 $-1 #
vertex $-1 $86 $209 #
straight-curve $-1 60.28382213812677293 49.23598889311040949 14.43616564505963318 -1 0 0 I I #
coedge $-1 $87 $133 $89 $152 reversed $46 $-1 #
vertex $-1 $144 $210 #
straight-curve $-1 60.28382213812677293 0 14.43616564505963318 1 0 0 I I #
edge $-1 $92 -7.218082822529816589 $141 7.218082822529816589 $89 $211 forward 7 unknown #
edge $-1 $93 -7.218082822529816589 $140 7.218082822529816589 $90 $212 forward 7 unknown #
point $-1 120.5676442762535459 0 14.43616564505963318 #
point $-1 120.5676442762535459 49.23598889311040949 14.43616564505963318 #
face $-1 $-1 $170 $9 $-1 $213 reversed single #
loop $-1 $-1 $214 $95 #
plane-surface $-1 60.28382213812677293 -6.39373621842158002 1.630484439451855394 0 1 0 0 0 1 forward_v I I I I #
coedge $-1 $215 $98 $107 $174 reversed $54 $-1 #
coedge $-1 $98 $215 $99 $162 reversed $54 $-1 #
coedge $-1 $100 $99 $216 $217 forward $33 $-1 #
edge $-1 $166 24.61799444655520475 $218 31.01173066497678477 $160 $219 forward 7 unknown #
coedge $-1 $220 $104 $100 $164 reversed $170 $-1 #
edge $-1 $221 -31.01173066497678477 $165 -24.61799444655520475 $163 $222 forward 7 unknown #
vertex $-1 $105 $223 #
vertex $-1 $162 $224 #
straight-curve $-1 60.28382213812677293 0 0 1 0 0 I I #
straight-curve $-1 120.5676442762535459 0 7.218082822529816589 0 0 1 I I #
coedge $-1 $104 $220 $106 $173 reversed $170 $-1 #
loop $-1 $-1 $104 $156 #
straight-curve $-1 0 0 7.218082822529816589 0 0 -1 I I #
coedge $-1 $107 $106 $225 $226 forward $96 $-1 #
edge $-1 $108 -3.19686810921079001 $227 3.19686810921079001 $169 $228 forward 7 unknown #
edge $-1 $229 -3.19686810921079001 $109 3.19686810921079001 $159 $230 forward 7 unknown #
point $-1 0 0 3.260968878903710788 #
point $-1 120.5676442762535459 0 3.260968878903710788 #
loop $-1 $-1 $118 $111 #
plane-surface $-1 60.28382213812677293 49.23598889311040949 7.218082822529816589 0 -1 0 0 0 -1 forward_v I I I I #
coedge $-1 $231 $232 $115 $181 forward $112 $-1 #
coedge $-1 $115 $114 $186 $233 reversed $37 $-1 #
edge $-1 $183 23.81365801905427304 $234 34.14784632203778614 $179 $235 forward 7 unknown #
coedge $-1 $121 $116 $232 $236 forward $62 $-1 #
vertex $-1 $236 $237 #
straight-curve $-1 84.03831941006941975 40.98273920616346544 14.4361656450596314 1 0 0 I I #
coedge $-1 $238 $118 $121 $190 reversed $177 $-1 #
coedge $-1 $118 $238 $180 $233 forward $177 $-1 #
vertex $-1 $119 $239 #
straight-curve $-1 95.01798908777057306 49.23598889311040949 70.67776908816989589 0 0 1 I I #
straight-curve $-1 95.01798908777057306 9.914380073453987308 37.84785396425150594 0 0.7986355043060522352 -0.6018150307709319025 I I #
edge $-1 $240 -60.28382213812677293 $122 -34.73416694964380014 $185 $241 forward 7 unknown #
point $-1 95.01798908777057306 49.23598889311040949 14.43616564505963318 #
point $-1 95.01798908777057306 40.98273920616345833 14.4361656450596314 #
edge $-1 $242 1 $242 0 $125 $-1 forward 7 unknown #
vertex $-1 $126 $243 #
ellipse-curve $-1 107.7928166820120595 41.75576094831326657 6.876149178235691828 0 0.6018150307709319025 0.7986355043060522352 1.5 0 0 1 I I #
point $-1 109.2928166820120595 45.10936404963692326 11.3265307192833049 #
plane-surface $-1 120.5676442762535459 24.61799444655520475 7.218082822529816589 -1 0 0 0 0 1 forward_v I I I I #
coedge $-1 $134 $132 $136 $202 reversed $77 $-1 #
edge $-1 $147 -7.218082822529816589 $204 7.218082822529816589 $146 $244 forward 7 unknown #
vertex $-1 $202 $245 #
straight-curve $-1 0 0 7.218082822529816589 0 0 -1 I I #
edge $-1 $200 -24.61799444655520475 $204 24.61799444655520475 $198 $246 forward 7 unknown #
straight-curve $-1 60.28382213812677293 0 0 -1 0 0 I I #
vertex $-1 $139 $247 #
straight-curve $-1 60.28382213812677293 49.23598889311040949 0 1 0 0 I I #
point $-1 120.5676442762535459 49.23598889311040949 0 #
point $-1 120.5676442762535459 0 0 #
straight-curve $-1 0 24.61799444655520475 14.43616564505963318 0 -1 0 I I #
point $-1 0 49.23598889311040949 14.43616564505963318 #
point $-1 0 0 14.43616564505963318 #
straight-curve $-1 120.5676442762535459 0 7.218082822529816589 0 0 -1 I I #
straight-curve $-1 120.5676442762535459 49.23598889311040949 7.218082822529816589 0 0 -1 I I #
plane-surface $-1 0 24.61799444655520475 7.218082822529816589 1 0 0 0 0 -1 forward_v I I I I #
coedge $-1 $216 $225 $220 $248 forward $157 $-1 #
coedge $-1 $160 $159 $249 $250 forward $54 $-1 #
coedge $-1 $249 $214 $161 $217 reversed $157 $-1 #
edge $-1 $218 -60.28382213812677293 $221 60.28382213812677293 $216 $251 forward 7 unknown #
vertex $-1 $250 $252 #
straight-curve $-1 120.5676442762535459 24.61799444655520475 0 0 -1 0 I I #
coedge $-1 $169 $163 $214 $248 reversed $170 $-1 #
vertex $-1 $164 $253 #
straight-curve $-1 0 24.61799444655520475 0 0 1 0 I I #
point $-1 0 0 0 #
point $-1 120.5676442762535459 0 0 #
coedge $-1 $214 $249 $172 $226 reversed $157 $-1 #
edge $-1 $227 -60.28382213812677293 $229 60.28382213812677293 $225 $254 forward 7 unknown #
vertex $-1 $173 $255 #
straight-curve $-1 0 -3.19686810921079001 3.260968878903710788 0 -1 0 I I #
vertex $-1 $174 $256 #
straight-curve $-1 120.5676442762535459 -3.19686810921079001 3.260968878903710788 0 1 0 I I #
coedge $-1 $232 $179 $238 $257 reversed $112 $-1 #
coedge $-1 $179 $231 $182 $236 reversed $112 $-1 #
edge $-1 $234 -36.52932486618412611 $187 -10.97966967770115332 $186 $258 forward 7 unknown #
vertex $-1 $181 $259 #
straight-curve $-1 120.5676442762535459 21.96430642474418704 28.76758297856522972 0 0.7986355043060522352 -0.6018150307709319025 I I #
edge $-1 $183 16.36474475960825359 $240 24.61799444655520475 $232 $260 forward 7 unknown #
point $-1 120.5676442762535459 40.98273920616345833 14.4361656450596314 #
coedge $-1 $186 $185 $231 $257 forward $177 $-1 #
point $-1 95.01798908777057306 49.23598889311040239 8.216895793507003276 #
vertex $-1 $236 $261 #
straight-curve $-1 60.28382213812677293 49.23598889311040949 14.43616564505963318 -1 0 0 I I #
vertex $-1 $193 $262 #
point $-1 109.2928166820120595 41.75576094831326657 6.876149178235691828 #
straight-curve $-1 0 49.23598889311040949 7.218082822529816589 0 0 -1 I I #
point $-1 0 0 0 #
straight-curve $-1 0 24.61799444655520475 0 0 1 0 I I #
point $-1 0 49.23598889311040949 0 #
edge $-1 $227 -1.630484439451855394 $221 1.630484439451855394 $220 $263 forward 7 unknown #
coedge $-1 $225 $216 $215 $250 reversed $157 $-1 #
edge $-1 $229 -1.630484439451855394 $218 1.630484439451855394 $215 $264 forward 7 unknown #
straight-curve $-1 60.28382213812677293 -6.39373621842158002 0 -1 0 0 I I #
point $-1 120.5676442762535459 -6.39373621842158002 0 #
point $-1 0 -6.39373621842158002 0 #
straight-curve $-1 60.28382213812677293 -6.39373621842158002 3.260968878903710788 1 0 0 I I #
point $-1 0 -6.39373621842158002 3.260968878903710788 #
point $-1 120.5676442762535459 -6.39373621842158002 3.260968878903710788 #
edge $-1 $240 -7.218082822529816589 $234 -0.9988129709771866871 $231 $265 forward 7 unknown #
straight-curve $-1 84.03831941006941975 49.23598889311040239 8.216895793507006829 -1 0 0 I I #
point $-1 120.5676442762535459 49.23598889311040239 8.216895793507003276 #
straight-curve $-1 120.5676442762535459 24.61799444655520475 14.43616564505963318 0 1 0 I I #
point $-1 120.5676442762535459 49.23598889311040949 14.43616564505963318 #
point $-1 107.7928166820120595 40.85303840215686932 5.678195921776613808 #
straight-curve $-1 0 -6.39373621842158002 1.630484439451855394 0 0 -1 I I #
straight-curve $-1 120.5676442762535459 -6.39373621842158002 1.630484439451855394 0 0 -1 I I #
straight-curve $-1 120.5676442762535459 49.23598889311040949 7.218082822529816589 0 0 -1 I I #
End-of-ACIS-data 