300 0 5 0           
7 Unknown 11 ACIS 3.0 NT 24 Fri Oct 30 18:00:13 1998 
-1 9.9999999999999995e-007 1e-010 
body $5 $6 $-1 $7 #
body $8 $9 $-1 $10 #
body $11 $12 $-1 $13 #
body $14 $15 $-1 $16 #
body $17 $18 $-1 $19 #
display_attribute-st-attrib $-1 $20 $-1 $0 1 #
lump $-1 $-1 $21 $0 #
transform $-1 1 0 0 0 1 0 0 0 1 53.895687734611045 35.5020387341347 7.8054212239319991 1 rotate no_reflect no_shear #
display_attribute-st-attrib $-1 $22 $-1 $1 1 #
lump $-1 $-1 $23 $1 #
transform $-1 1 0 0 0 1 0 0 0 1 53.895687734611045 35.5020387341347 7.8054212239319991 1 rotate no_reflect no_shear #
display_attribute-st-attrib $-1 $24 $-1 $2 1 #
lump $-1 $-1 $25 $2 #
transform $-1 1 0 0 0 1 0 0 0 1 53.895687734611045 35.5020387341347 7.8054212239319991 1 rotate no_reflect no_shear #
display_attribute-st-attrib $-1 $26 $-1 $3 1 #
lump $-1 $-1 $27 $3 #
transform $-1 1 0 0 0 1 0 0 0 1 53.895687734611045 35.5020387341347 7.8054212239319991 1 rotate no_reflect no_shear #
display_attribute-st-attrib $-1 $28 $-1 $4 1 #
lump $-1 $-1 $29 $4 #
transform $-1 1 0 0 0 1 0 0 0 1 53.895687734611045 35.5020387341347 7.8054212239319991 1 rotate no_reflect no_shear #
id_attribute-st-attrib $-1 $-1 $5 $0 1600 #
shell $-1 $-1 $-1 $30 $-1 $6 #
id_attribute-st-attrib $-1 $-1 $8 $1 1605 #
shell $-1 $-1 $-1 $31 $-1 $9 #
id_attribute-st-attrib $-1 $-1 $11 $2 1614 #
shell $-1 $-1 $-1 $32 $-1 $12 #
id_attribute-st-attrib $-1 $-1 $14 $3 1626 #
shell $-1 $-1 $-1 $33 $-1 $15 #
id_attribute-st-attrib $-1 $-1 $17 $4 1633 #
shell $-1 $-1 $-1 $34 $-1 $18 #
face $-1 $35 $36 $21 $-1 $37 forward single #
face $-1 $38 $39 $23 $-1 $40 reversed single #
face $-1 $41 $42 $25 $-1 $43 reversed single #
face $-1 $44 $45 $27 $-1 $46 forward single #
face $-1 $47 $48 $29 $-1 $49 reversed single #
face $-1 $50 $51 $21 $-1 $52 reversed single #
loop $-1 $-1 $53 $30 #
plane-surface $-1 0 0 7.8054212239319991 0 0 1 1 0 0 forward_v I I I I #
face $-1 $54 $55 $23 $-1 $56 reversed single #
loop $-1 $-1 $57 $31 #
plane-surface $-1 -40.023276743704756 -44.50609843091604 0 0 1 0 0 0 1 forward_v I I I I #
face $-1 $58 $59 $25 $-1 $60 reversed single #
loop $-1 $-1 $61 $32 #
plane-surface $-1 -41.761708200662468 40.004068582525363 0 1 0 0 0 0 -1 forward_v I I I I #
face $-1 $62 $63 $27 $-1 $64 forward single #
loop $-1 $-1 $65 $33 #
plane-surface $-1 61.873784101699059 19.012643969685371 156.82549693635849 0 -1 0 -0.74314483375859142 0 -0.66913059716165679 forward_v I I I I #
face $-1 $66 $67 $29 $-1 $68 reversed single #
loop $-1 $69 $70 $34 #
cone-surface $-1 51.727895606364982 15.605720337433745 5.5496519557432773 -0.74314483375859142 0 -0.66913059716165679 0.66913059716165679 0 -0.74314483375859142 1 I I 0 1 forward I I I I #
face $-1 $71 $72 $21 $-1 $73 reversed single #
loop $-1 $-1 $74 $35 #
plane-surface $-1 0 0 -7.8054212239319991 0 0 1 1 0 0 forward_v I I I I #
coedge $-1 $75 $76 $77 $78 forward $36 $-1 #
face $-1 $79 $80 $23 $-1 $81 reversed single #
loop $-1 $-1 $82 $38 #
plane-surface $-1 -41.761708200662468 -40.00406858252537 0 1 0 0 0 0 -1 forward_v I I I I #
coedge $-1 $83 $84 $85 $86 forward $39 $-1 #
face $-1 $87 $88 $25 $-1 $89 reversed single #
loop $-1 $-1 $90 $41 #
plane-surface $-1 -40.023276743704756 44.506098430916033 0 0 -1 0 0 0 -1 forward_v I I I I #
coedge $-1 $91 $92 $93 $94 forward $42 $-1 #
face $-1 $95 $96 $27 $-1 $97 forward single #
loop $-1 $-1 $98 $44 #
plane-surface $-1 -18.230819701985894 15.605720337433745 84.698989499761552 0.74314483375859142 0 0.66913059716165679 0.66913059716165679 0 -0.74314483375859142 forward_v I I I I #
coedge $-1 $99 $100 $101 $102 reversed $45 $-1 #
face $-1 $103 $104 $29 $-1 $105 forward single #
loop $-1 $106 $107 $47 #
cone-surface $-1 50.634145713093034 15.605720337433745 4.5648351529014537 -0.74314483375859142 0 -0.66913059716165679 0.3345652985808284 0 -0.37157241687929571 1 I I -0.70710678118654746 0.70710678118654746 forward I I I I #
loop $-1 $-1 $108 $34 #
coedge $-1 $70 $70 $109 $110 reversed $48 $-1 #
face $-1 $111 $112 $21 $-1 $113 reversed single #
loop $-1 $-1 $114 $50 #
plane-surface $-1 0 -35.5020387341347 0 0 1 0 0 0 1 forward_v I I I I #
coedge $-1 $115 $116 $117 $118 forward $51 $-1 #
coedge $-1 $119 $53 $120 $121 forward $36 $-1 #
coedge $-1 $53 $119 $122 $123 forward $36 $-1 #
coedge $-1 $124 $125 $53 $78 reversed $126 $-1 #
edge $-1 $127 $128 $77 $129 forward #
face $-1 $130 $131 $23 $-1 $132 reversed single #
loop $-1 $-1 $133 $54 #
plane-surface $-1 -38.284845286747043 -40.00406858252537 0 -1 0 0 0 0 1 forward_v I I I I #
coedge $-1 $134 $135 $136 $137 reversed $55 $-1 #
coedge $-1 $138 $57 $139 $140 reversed $39 $-1 #
coedge $-1 $57 $138 $141 $142 reversed $39 $-1 #
coedge $-1 $135 $134 $57 $86 reversed $55 $-1 #
edge $-1 $143 $144 $85 $145 forward #
face $-1 $146 $147 $25 $-1 $148 reversed single #
loop $-1 $-1 $149 $58 #
plane-surface $-1 -38.284845286747043 40.004068582525363 0 -1 0 0 0 0 1 forward_v I I I I #
coedge $-1 $150 $151 $152 $153 forward $59 $-1 #
coedge $-1 $154 $61 $155 $156 reversed $42 $-1 #
coedge $-1 $61 $154 $157 $158 reversed $42 $-1 #
coedge $-1 $151 $150 $61 $94 reversed $59 $-1 #
edge $-1 $159 $160 $93 $161 forward #
face $-1 $162 $163 $27 $-1 $164 forward single #
loop $-1 $-1 $165 $62 #
plane-surface $-1 61.873784101699059 12.198796705182119 156.82549693635849 0 1 0 0.74314483375859142 0 0.66913059716165679 forward_v I I I I #
coedge $-1 $166 $167 $168 $169 reversed $63 $-1 #
coedge $-1 $100 $65 $167 $170 forward $45 $-1 #
coedge $-1 $65 $99 $171 $172 reversed $45 $-1 #
coedge $-1 $173 $168 $65 $102 forward $163 $-1 #
edge $-1 $174 $175 $101 $176 forward #
face $-1 $177 $178 $29 $-1 $179 forward single #
loop $-1 $-1 $180 $66 #
plane-surface $-1 61.873784101699059 19.012643969685371 156.82549693635849 0 -1 0 -0.74314483375859142 0 -0.66913059716165679 forward_v I I I I #
loop $-1 $-1 $181 $47 #
coedge $-1 $107 $107 $108 $182 forward $67 $-1 #
coedge $-1 $108 $108 $107 $182 reversed $69 $-1 #
coedge $-1 $109 $109 $70 $110 forward $178 $-1 #
edge $-1 $183 $183 $109 $184 forward #
face $-1 $185 $186 $21 $-1 $187 reversed single #
loop $-1 $-1 $188 $71 #
plane-surface $-1 -53.895687734611045 0 0 1 0 0 0 0 -1 forward_v I I I I #
coedge $-1 $189 $122 $190 $191 forward $72 $-1 #
coedge $-1 $192 $74 $189 $193 forward $51 $-1 #
coedge $-1 $74 $192 $194 $195 forward $51 $-1 #
coedge $-1 $125 $124 $74 $118 reversed $126 $-1 #
edge $-1 $196 $197 $117 $198 forward #
coedge $-1 $76 $75 $199 $200 forward $36 $-1 #
coedge $-1 $201 $202 $75 $121 reversed $186 $-1 #
edge $-1 $128 $203 $120 $204 forward #
coedge $-1 $114 $205 $76 $123 reversed $72 $-1 #
edge $-1 $206 $127 $122 $207 forward #
coedge $-1 $117 $77 $205 $208 forward $126 $-1 #
coedge $-1 $77 $117 $201 $209 reversed $126 $-1 #
loop $-1 $-1 $124 $185 #
vertex $-1 $78 $210 #
vertex $-1 $78 $211 #
straight-curve $-1 53.895687734611045 0 7.8054212239319991 0 1 0 I I #
face $-1 $212 $213 $23 $-1 $132 reversed single #
loop $-1 $-1 $136 $79 #
plane-surface $-1 0 -35.5020387341347 0 0 1 0 0 0 1 forward_v I I I I #
coedge $-1 $214 $215 $138 $216 forward $80 $-1 #
coedge $-1 $85 $82 $217 $218 reversed $55 $-1 #
coedge $-1 $82 $85 $219 $220 reversed $55 $-1 #
coedge $-1 $221 $222 $82 $137 forward $131 $-1 #
edge $-1 $223 $224 $136 $225 forward #
coedge $-1 $84 $83 $133 $216 reversed $39 $-1 #
coedge $-1 $217 $226 $83 $140 forward $227 $-1 #
edge $-1 $228 $144 $83 $229 forward #
coedge $-1 $230 $219 $84 $142 forward $231 $-1 #
edge $-1 $143 $232 $84 $233 forward #
vertex $-1 $220 $234 #
vertex $-1 $218 $235 #
straight-curve $-1 -41.761708200662468 -44.50609843091604 0 0 0 -1 I I #
face $-1 $236 $237 $25 $-1 $148 reversed single #
loop $-1 $-1 $238 $87 #
plane-surface $-1 0 35.5020387341347 0 0 -1 0 0 0 -1 forward_v I I I I #
coedge $-1 $239 $240 $238 $241 reversed $88 $-1 #
coedge $-1 $93 $90 $242 $243 reversed $59 $-1 #
coedge $-1 $90 $93 $244 $245 reversed $59 $-1 #
coedge $-1 $240 $239 $90 $153 reversed $88 $-1 #
edge $-1 $246 $247 $152 $248 forward #
coedge $-1 $92 $91 $249 $250 reversed $42 $-1 #
coedge $-1 $242 $251 $91 $156 forward $252 $-1 #
edge $-1 $253 $160 $91 $254 forward #
coedge $-1 $255 $244 $92 $158 forward $256 $-1 #
edge $-1 $159 $257 $92 $258 forward #
vertex $-1 $245 $259 #
vertex $-1 $243 $260 #
straight-curve $-1 -41.761708200662468 44.506098430916033 0 0 0 -1 I I #
face $-1 $261 $262 $27 $-1 $263 reversed single #
loop $-1 $-1 $264 $95 #
plane-surface $-1 0 0 7.8054212239319991 0 0 1 1 0 0 forward_v I I I I #
coedge $-1 $265 $266 $264 $267 reversed $96 $-1 #
coedge $-1 $268 $98 $266 $269 reversed $63 $-1 #
coedge $-1 $98 $268 $99 $170 reversed $63 $-1 #
coedge $-1 $101 $264 $98 $169 forward $163 $-1 #
edge $-1 $270 $174 $168 $271 forward #
edge $-1 $174 $272 $99 $273 forward #
coedge $-1 $274 $275 $100 $172 forward $276 $-1 #
edge $-1 $175 $272 $171 $277 forward #
coedge $-1 $278 $101 $275 $279 forward $163 $-1 #
vertex $-1 $169 $280 #
vertex $-1 $279 $281 #
straight-curve $-1 30.936892050849529 19.012643969685371 7.8054212239320009 1 0 0 I I #
face $-1 $282 $283 $29 $-1 $284 forward single #
loop $-1 $285 $109 $103 #
plane-surface $-1 -18.230819701985894 15.605720337433745 84.698989499761552 0.74314483375859142 0 0.66913059716165679 0.66913059716165679 0 -0.74314483375859142 forward_v I I I I #
coedge $-1 $286 $287 $288 $289 reversed $104 $-1 #
coedge $-1 $181 $181 $-1 $290 forward $106 $-1 #
edge $-1 $291 $291 $107 $292 forward #
vertex $-1 $110 $293 #
ellipse-curve $-1 52.450073082757648 15.605720337433745 6.1999034600042879 -0.74314483375859142 0 -0.66913059716165679 0.66913059716165679 0 -0.74314483375859142 1 I I #
face $-1 $-1 $126 $21 $-1 $294 reversed single #
loop $-1 $-1 $201 $111 #
plane-surface $-1 0 35.5020387341347 0 0 -1 0 0 0 -1 forward_v I I I I #
coedge $-1 $295 $199 $202 $296 forward $112 $-1 #
coedge $-1 $205 $114 $115 $193 reversed $72 $-1 #
coedge $-1 $199 $295 $114 $191 reversed $112 $-1 #
edge $-1 $206 $297 $190 $298 forward #
coedge $-1 $116 $115 $295 $299 forward $51 $-1 #
edge $-1 $197 $297 $189 $300 forward #
coedge $-1 $202 $201 $116 $195 reversed $186 $-1 #
edge $-1 $301 $196 $194 $302 forward #
vertex $-1 $118 $303 #
vertex $-1 $208 $304 #
straight-curve $-1 53.895687734611045 0 -7.8054212239319991 0 -1 0 I I #
coedge $-1 $188 $190 $119 $200 reversed $112 $-1 #
edge $-1 $203 $206 $199 $305 forward #
coedge $-1 $194 $120 $125 $209 forward $186 $-1 #
coedge $-1 $120 $194 $188 $296 reversed $186 $-1 #
vertex $-1 $121 $306 #
straight-curve $-1 0 35.5020387341347 7.8054212239319991 -1 0 0 I I #
coedge $-1 $122 $189 $124 $208 reversed $72 $-1 #
vertex $-1 $200 $307 #
straight-curve $-1 0 -35.5020387341347 7.8054212239319991 1 0 0 I I #
edge $-1 $127 $197 $124 $308 forward #
edge $-1 $128 $196 $125 $309 forward #
point $-1 53.895687734611045 -35.5020387341347 7.8054212239319991 #
point $-1 53.895687734611045 35.5020387341347 7.8054212239319991 #
face $-1 $310 $231 $23 $-1 $311 forward single #
loop $-1 $-1 $312 $130 #
coedge $-1 $313 $133 $226 $314 reversed $80 $-1 #
coedge $-1 $133 $313 $230 $315 reversed $80 $-1 #
edge $-1 $232 $228 $133 $316 forward #
coedge $-1 $317 $139 $134 $218 forward $227 $-1 #
edge $-1 $144 $223 $134 $318 forward #
coedge $-1 $141 $319 $135 $220 forward $231 $-1 #
edge $-1 $224 $143 $135 $320 forward #
coedge $-1 $321 $136 $319 $322 reversed $131 $-1 #
coedge $-1 $136 $321 $317 $323 reversed $131 $-1 #
vertex $-1 $323 $324 #
vertex $-1 $220 $325 #
straight-curve $-1 -41.761708200662468 -35.5020387341347 0 0 0 1 I I #
coedge $-1 $139 $326 $214 $314 forward $227 $-1 #
loop $-1 $-1 $327 $310 #
vertex $-1 $216 $328 #
straight-curve $-1 -40.023276743704756 -44.50609843091604 -7.8054212239319991 -1 0 0 I I #
coedge $-1 $329 $141 $215 $315 forward $231 $-1 #
loop $-1 $-1 $330 $212 #
vertex $-1 $315 $331 #
straight-curve $-1 -40.023276743704756 -44.50609843091604 7.8054212239319991 1 0 0 I I #
point $-1 -41.761708200662468 -44.50609843091604 7.8054212239319991 #
point $-1 -41.761708200662468 -44.50609843091604 -7.8054212239319991 #
face $-1 $332 $333 $25 $-1 $334 reversed single #
loop $-1 $-1 $249 $146 #
coedge $-1 $335 $336 $149 $241 forward $147 $-1 #
coedge $-1 $152 $149 $337 $338 reversed $88 $-1 #
coedge $-1 $149 $152 $339 $340 reversed $88 $-1 #
edge $-1 $341 $342 $238 $343 forward #
coedge $-1 $337 $155 $150 $243 forward $252 $-1 #
edge $-1 $160 $247 $150 $344 forward #
coedge $-1 $157 $339 $151 $245 forward $256 $-1 #
edge $-1 $246 $159 $151 $345 forward #
vertex $-1 $340 $346 #
vertex $-1 $338 $347 #
straight-curve $-1 -38.284845286747043 44.506098430916033 0 0 0 -1 I I #
coedge $-1 $348 $349 $154 $250 forward $237 $-1 #
edge $-1 $257 $253 $249 $350 forward #
coedge $-1 $155 $351 $348 $352 forward $252 $-1 #
loop $-1 $-1 $353 $354 #
vertex $-1 $156 $355 #
straight-curve $-1 -41.761708200662468 40.004068582525363 -7.8054212239319991 0 1 0 I I #
coedge $-1 $356 $157 $349 $357 forward $256 $-1 #
loop $-1 $-1 $358 $359 #
vertex $-1 $357 $360 #
straight-curve $-1 -41.761708200662468 40.004068582525363 7.8054212239319991 0 -1 0 I I #
point $-1 -41.761708200662468 44.506098430916033 7.8054212239319991 #
point $-1 -41.761708200662468 44.506098430916033 -7.8054212239319991 #
face $-1 $361 $362 $27 $-1 $363 reversed single #
loop $-1 $-1 $364 $162 #
plane-surface $-1 -41.761708200662468 40.004068582525363 0 1 0 0 0 0 -1 forward_v I I I I #
coedge $-1 $168 $365 $165 $267 forward $163 $-1 #
coedge $-1 $266 $165 $366 $367 reversed $96 $-1 #
coedge $-1 $165 $265 $166 $269 forward $96 $-1 #
edge $-1 $368 $270 $264 $369 forward #
coedge $-1 $167 $166 $274 $370 reversed $63 $-1 #
edge $-1 $371 $270 $266 $372 forward #
vertex $-1 $169 $373 #
straight-curve $-1 51.004458430904208 7.8028601687168724 7.805421223932008 0 1 0 I I #
vertex $-1 $370 $374 #
straight-curve $-1 -18.230819701985894 19.012643969685371 84.698989499761552 0.66913059716165679 0 -0.74314483375859142 I I #
coedge $-1 $366 $171 $268 $370 forward $276 $-1 #
coedge $-1 $171 $375 $173 $279 reversed $276 $-1 #
loop $-1 $-1 $366 $376 #
straight-curve $-1 53.895687734611045 19.012643969685371 78.412748468179245 0 0 -1 I I #
coedge $-1 $377 $173 $378 $379 forward $163 $-1 #
edge $-1 $175 $380 $275 $381 forward #
point $-1 51.004458430904208 19.012643969685371 7.8054212239320009 #
point $-1 53.895687734611045 19.012643969685371 7.8054212239319991 #
face $-1 $382 $383 $29 $-1 $384 forward single #
loop $-1 $-1 $385 $177 #
plane-surface $-1 61.873784101699059 12.198796705182119 156.82549693635849 0 1 0 0.74314483375859142 0 0.66913059716165679 forward_v I I I I #
loop $-1 $-1 $386 $103 #
coedge $-1 $287 $180 $387 $388 forward $104 $-1 #
coedge $-1 $180 $286 $389 $390 reversed $104 $-1 #
coedge $-1 $391 $392 $180 $289 forward $383 $-1 #
edge $-1 $393 $394 $288 $395 forward #
edge $-1 $396 $396 $181 $-1 forward #
vertex $-1 $182 $397 #
ellipse-curve $-1 51.00571812997233 15.605720337433745 4.8994004514822818 0.74314483375859142 0 0.66913059716165679 0.66913059716165679 0 -0.74314483375859142 1 I I #
point $-1 53.119203679919281 15.605720337433745 5.4567586262456818 #
plane-surface $-1 53.895687734611045 0 0 -1 0 0 0 0 1 forward_v I I I I #
coedge $-1 $190 $188 $192 $299 reversed $112 $-1 #
edge $-1 $203 $301 $202 $398 forward #
vertex $-1 $299 $399 #
straight-curve $-1 -53.895687734611045 -35.5020387341347 0 0 0 -1 I I #
edge $-1 $297 $301 $295 $400 forward #
straight-curve $-1 0 -35.5020387341347 -7.8054212239319991 -1 0 0 I I #
vertex $-1 $195 $401 #
straight-curve $-1 0 35.5020387341347 -7.8054212239319991 1 0 0 I I #
point $-1 53.895687734611045 35.5020387341347 -7.8054212239319991 #
point $-1 53.895687734611045 -35.5020387341347 -7.8054212239319991 #
straight-curve $-1 -53.895687734611045 0 7.8054212239319991 0 -1 0 I I #
point $-1 -53.895687734611045 35.5020387341347 7.8054212239319991 #
point $-1 -53.895687734611045 -35.5020387341347 7.8054212239319991 #
straight-curve $-1 53.895687734611045 -35.5020387341347 0 0 0 -1 I I #
straight-curve $-1 53.895687734611045 35.5020387341347 0 0 0 -1 I I #
face $-1 $402 $227 $23 $-1 $403 reversed single #
plane-surface $-1 0 0 7.8054212239319991 0 0 1 1 0 0 forward_v I I I I #
coedge $-1 $404 $405 $313 $406 forward $213 $-1 #
coedge $-1 $215 $214 $312 $406 reversed $80 $-1 #
edge $-1 $407 $228 $214 $408 forward #
edge $-1 $232 $409 $215 $410 forward #
straight-curve $-1 -38.284845286747043 -44.50609843091604 0 0 0 -1 I I #
coedge $-1 $411 $217 $222 $323 forward $227 $-1 #
straight-curve $-1 -41.761708200662468 -40.00406858252537 -7.8054212239319991 0 1 0 I I #
coedge $-1 $219 $412 $221 $322 forward $231 $-1 #
straight-curve $-1 -41.761708200662468 -40.00406858252537 7.8054212239319991 0 -1 0 I I #
coedge $-1 $222 $221 $413 $414 forward $131 $-1 #
edge $-1 $415 $224 $221 $416 forward #
edge $-1 $223 $417 $222 $418 forward #
point $-1 -41.761708200662468 -35.5020387341347 -7.8054212239319991 #
point $-1 -41.761708200662468 -35.5020387341347 7.8054212239319991 #
coedge $-1 $226 $327 $404 $419 forward $227 $-1 #
coedge $-1 $326 $420 $421 $422 forward $227 $-1 #
point $-1 -38.284845286747043 -44.50609843091604 -7.8054212239319991 #
coedge $-1 $330 $230 $405 $423 forward $231 $-1 #
coedge $-1 $424 $329 $425 $426 forward $231 $-1 #
point $-1 -38.284845286747043 -44.50609843091604 7.8054212239319991 #
face $-1 $427 $428 $25 $-1 $429 reversed single #
loop $-1 $-1 $430 $236 #
plane-surface $-1 -40.023276743704756 -44.50609843091604 0 0 1 0 0 0 1 forward_v I I I I #
coedge $-1 $431 $238 $432 $433 reversed $147 $-1 #
coedge $-1 $238 $431 $434 $435 reversed $147 $-1 #
coedge $-1 $434 $242 $239 $338 forward $252 $-1 #
edge $-1 $247 $341 $239 $436 forward #
coedge $-1 $244 $432 $240 $340 forward $256 $-1 #
edge $-1 $342 $246 $240 $437 forward #
vertex $-1 $435 $438 #
vertex $-1 $340 $439 #
straight-curve $-1 -38.284845286747043 35.5020387341347 0 0 0 1 I I #
straight-curve $-1 -40.023276743704756 44.506098430916033 -7.8054212239319991 1 0 0 I I #
straight-curve $-1 -40.023276743704756 44.506098430916033 7.8054212239319991 -1 0 0 I I #
point $-1 -38.284845286747043 44.506098430916033 7.8054212239319991 #
point $-1 -38.284845286747043 44.506098430916033 -7.8054212239319991 #
coedge $-1 $440 $249 $251 $352 reversed $237 $-1 #
coedge $-1 $249 $440 $255 $357 reversed $237 $-1 #
straight-curve $-1 -41.761708200662468 35.5020387341347 0 0 0 -1 I I #
coedge $-1 $251 $441 $442 $443 forward $252 $-1 #
edge $-1 $444 $253 $348 $445 forward #
coedge $-1 $446 $434 $447 $448 forward $252 $-1 #
face $-1 $449 $252 $25 $-1 $450 reversed single #
point $-1 -41.761708200662468 35.502038734134693 -7.8054212239319991 #
coedge $-1 $451 $255 $452 $453 forward $256 $-1 #
edge $-1 $257 $454 $349 $455 forward #
coedge $-1 $432 $456 $457 $458 forward $256 $-1 #
face $-1 $354 $256 $25 $-1 $459 forward single #
point $-1 -41.761708200662468 35.502038734134693 7.8054212239319991 #
face $-1 $460 $461 $27 $-1 $462 reversed single #
loop $-1 $-1 $463 $261 #
plane-surface $-1 -40.023276743704756 44.506098430916033 0 0 -1 0 0 0 -1 forward_v I I I I #
coedge $-1 $464 $465 $466 $467 forward $262 $-1 #
coedge $-1 $264 $468 $469 $470 forward $163 $-1 #
coedge $-1 $469 $274 $265 $367 forward $276 $-1 #
edge $-1 $371 $368 $366 $471 forward #
vertex $-1 $367 $472 #
straight-curve $-1 30.936892050849529 12.198796705182119 7.8054212239320009 -1 0 0 I I #
edge $-1 $272 $371 $274 $473 forward #
vertex $-1 $370 $474 #
straight-curve $-1 -18.230819701985894 12.198796705182119 84.698989499761552 -0.66913059716165679 0 0.74314483375859142 I I #
point $-1 51.004458430904208 12.198796705182119 7.8054212239320009 #
point $-1 53.895687734611045 19.012643969685371 4.5943856960765999 #
coedge $-1 $275 $475 $476 $477 reversed $276 $-1 #
face $-1 $-1 $276 $27 $-1 $478 reversed single #
coedge $-1 $479 $278 $480 $481 forward $163 $-1 #
coedge $-1 $476 $482 $278 $379 reversed $483 $-1 #
edge $-1 $380 $484 $378 $485 forward #
vertex $-1 $279 $486 #
straight-curve $-1 53.895687734611045 0 7.8054212239319991 0 1 0 I I #
face $-1 $487 $488 $29 $-1 $489 reversed single #
loop $-1 $-1 $490 $282 #
plane-surface $-1 0 0 7.8054212239319991 0 0 1 1 0 0 forward_v I I I I #
coedge $-1 $491 $492 $490 $493 reversed $283 $-1 #
coedge $-1 $494 $387 $392 $495 reversed $285 $-1 #
coedge $-1 $386 $496 $286 $388 reversed $285 $-1 #
edge $-1 $393 $497 $286 $498 forward #
coedge $-1 $499 $500 $287 $390 forward $501 $-1 #
edge $-1 $394 $497 $389 $502 forward #
coedge $-1 $503 $288 $500 $504 forward $383 $-1 #
coedge $-1 $288 $490 $386 $495 forward $383 $-1 #
vertex $-1 $495 $505 #
vertex $-1 $504 $506 #
straight-curve $-1 30.936892050849529 19.012643969685371 7.8054212239320009 1 0 0 I I #
vertex $-1 $290 $507 #
point $-1 51.674848727133984 15.605720337433745 4.1562556177236907 #
straight-curve $-1 -53.895687734611045 35.5020387341347 0 0 0 -1 I I #
point $-1 -53.895687734611045 -35.5020387341347 -7.8054212239319991 #
straight-curve $-1 -53.895687734611045 0 -7.8054212239319991 0 1 0 I I #
point $-1 -53.895687734611045 35.5020387341347 -7.8054212239319991 #
face $-1 $508 $509 $23 $-1 $510 reversed single #
plane-surface $-1 0 0 -7.8054212239319991 0 0 1 1 0 0 forward_v I I I I #
coedge $-1 $511 $312 $326 $419 reversed $213 $-1 #
coedge $-1 $312 $511 $329 $423 reversed $213 $-1 #
edge $-1 $409 $407 $312 $512 forward #
vertex $-1 $314 $513 #
straight-curve $-1 -38.284845286747043 -40.00406858252537 -7.8054212239319991 0 -1 0 I I #
vertex $-1 $423 $514 #
straight-curve $-1 -38.284845286747043 -40.00406858252537 7.8054212239319991 0 1 0 I I #
coedge $-1 $420 $317 $515 $516 forward $227 $-1 #
coedge $-1 $319 $424 $517 $518 forward $231 $-1 #
coedge $-1 $517 $515 $321 $414 reversed $509 $-1 #
edge $-1 $415 $417 $413 $519 forward #
vertex $-1 $518 $520 #
straight-curve $-1 0 -35.5020387341347 7.8054212239319991 1 0 0 I I #
vertex $-1 $516 $521 #
straight-curve $-1 0 -35.5020387341347 -7.8054212239319991 -1 0 0 I I #
edge $-1 $522 $407 $404 $418 forward #
coedge $-1 $327 $411 $523 $524 forward $227 $-1 #
coedge $-1 $525 $526 $327 $422 reversed $527 $-1 #
edge $-1 $528 $522 $421 $529 forward #
edge $-1 $409 $530 $405 $416 forward #
coedge $-1 $412 $330 $531 $532 forward $231 $-1 #
coedge $-1 $526 $525 $330 $426 reversed $527 $-1 #
edge $-1 $530 $533 $425 $534 forward #
face $-1 $535 $536 $25 $-1 $537 reversed single #
loop $-1 $-1 $538 $332 #
plane-surface $-1 -41.761708200662468 -40.00406858252537 0 1 0 0 0 0 -1 forward_v I I I I #
coedge $-1 $539 $540 $541 $542 forward $333 $-1 #
coedge $-1 $336 $335 $543 $544 forward $147 $-1 #
coedge $-1 $339 $358 $335 $433 forward $256 $-1 #
edge $-1 $545 $342 $335 $455 forward #
coedge $-1 $353 $337 $336 $435 forward $252 $-1 #
edge $-1 $341 $546 $336 $445 forward #
straight-curve $-1 -38.284845286747043 40.004068582525363 -7.8054212239319991 0 -1 0 I I #
straight-curve $-1 -38.284845286747043 40.004068582525363 7.8054212239319991 0 1 0 I I #
point $-1 -38.284845286747043 35.502038734134693 -7.8054212239319991 #
point $-1 -38.284845286747043 35.502038734134693 7.8054212239319991 #
coedge $-1 $349 $348 $547 $548 reversed $237 $-1 #
coedge $-1 $351 $549 $550 $551 forward $252 $-1 #
coedge $-1 $552 $547 $351 $443 reversed $553 $-1 #
edge $-1 $554 $444 $442 $555 forward #
vertex $-1 $352 $556 #
straight-curve $-1 0 35.5020387341347 -7.8054212239319991 1 0 0 I I #
coedge $-1 $557 $353 $558 $559 forward $252 $-1 #
coedge $-1 $543 $560 $353 $448 reversed $561 $-1 #
edge $-1 $546 $562 $447 $563 forward #
face $-1 $564 $553 $25 $-1 $565 reversed single #
plane-surface $-1 0 0 -7.8054212239319991 0 0 1 1 0 0 forward_v I I I I #
coedge $-1 $566 $356 $567 $568 forward $256 $-1 #
coedge $-1 $547 $552 $356 $453 reversed $553 $-1 #
edge $-1 $454 $569 $452 $570 forward #
vertex $-1 $357 $571 #
straight-curve $-1 0 35.5020387341347 7.8054212239319991 -1 0 0 I I #
coedge $-1 $358 $572 $573 $574 forward $256 $-1 #
coedge $-1 $560 $543 $358 $458 reversed $561 $-1 #
edge $-1 $575 $545 $457 $576 forward #
plane-surface $-1 0 0 7.8054212239319991 0 0 1 1 0 0 forward_v I I I I #
face $-1 $577 $483 $27 $-1 $578 reversed single #
loop $-1 $-1 $579 $361 #
plane-surface $-1 -38.284845286747043 40.004068582525363 0 -1 0 0 0 0 1 forward_v I I I I #
coedge $-1 $580 $581 $582 $583 forward $362 $-1 #
coedge $-1 $584 $364 $585 $586 reversed $262 $-1 #
coedge $-1 $364 $584 $587 $588 reversed $262 $-1 #
coedge $-1 $581 $580 $364 $467 reversed $362 $-1 #
edge $-1 $589 $590 $466 $591 forward #
coedge $-1 $365 $592 $593 $594 forward $163 $-1 #
coedge $-1 $595 $366 $365 $470 reversed $276 $-1 #
edge $-1 $596 $368 $469 $381 forward #
straight-curve $-1 53.895687734611045 12.198796705182119 78.412748468179245 0 0 1 I I #
point $-1 53.895687734611045 12.198796705182119 7.8054212239319991 #
straight-curve $-1 53.895687734611059 7.8028601687168724 4.5943856960765856 0 -1 0 I I #
point $-1 53.895687734611045 12.198796705182119 4.5943856960765999 #
coedge $-1 $375 $595 $597 $598 reversed $276 $-1 #
coedge $-1 $599 $378 $375 $477 forward $483 $-1 #
edge $-1 $380 $600 $375 $601 forward #
plane-surface $-1 53.895687734611045 0 0 -1 0 0 0 0 1 forward_v I I I I #
coedge $-1 $587 $377 $581 $602 forward $163 $-1 #
coedge $-1 $579 $582 $377 $481 reversed $461 $-1 #
edge $-1 $484 $603 $480 $604 forward #
coedge $-1 $378 $599 $579 $605 forward $483 $-1 #
loop $-1 $-1 $482 $460 #
vertex $-1 $481 $606 #
straight-curve $-1 0 35.5020387341347 7.8054212239319991 -1 0 0 I I #
point $-1 53.895687734611045 35.5020387341347 7.8054212239319991 #
face $-1 $607 $608 $29 $-1 $609 reversed single #
loop $-1 $-1 $610 $382 #
plane-surface $-1 -41.761708200662468 40.004068582525363 0 1 0 0 0 0 -1 forward_v I I I I #
coedge $-1 $392 $611 $385 $493 forward $383 $-1 #
coedge $-1 $492 $385 $612 $613 reversed $283 $-1 #
coedge $-1 $385 $491 $494 $614 forward $283 $-1 #
edge $-1 $615 $616 $490 $617 forward #
coedge $-1 $496 $386 $492 $614 reversed $285 $-1 #
edge $-1 $616 $393 $392 $618 forward #
coedge $-1 $387 $494 $499 $619 reversed $285 $-1 #
vertex $-1 $619 $620 #
straight-curve $-1 -18.230819701985894 19.012643969685371 84.698989499761552 0.66913059716165679 0 -0.74314483375859142 I I #
coedge $-1 $612 $389 $496 $619 forward $501 $-1 #
coedge $-1 $389 $621 $391 $504 reversed $501 $-1 #
loop $-1 $-1 $612 $622 #
straight-curve $-1 53.895687734611045 19.012643969685371 78.412748468179245 0 0 -1 I I #
coedge $-1 $623 $391 $624 $625 forward $383 $-1 #
edge $-1 $394 $626 $500 $627 forward #
point $-1 51.004458430904208 19.012643969685371 7.8054212239320009 #
point $-1 53.895687734611045 19.012643969685371 7.8054212239319991 #
point $-1 50.262573296213738 15.605720337433745 4.2302698543206256 #
face $-1 $628 $629 $23 $-1 $630 reversed single #
loop $-1 $-1 $631 $402 #
plane-surface $-1 -53.895687734611045 0 0 1 0 0 0 0 -1 forward_v I I I I #
coedge $-1 $405 $404 $526 $632 reversed $213 $-1 #
straight-curve $-1 -38.284845286747043 -35.5020387341347 0 0 0 -1 I I #
point $-1 -38.284845286747043 -35.5020387341347 -7.8054212239319991 #
point $-1 -38.284845286747043 -35.5020387341347 7.8054212239319991 #
coedge $-1 $413 $631 $411 $516 reversed $509 $-1 #
edge $-1 $417 $633 $515 $634 forward #
coedge $-1 $631 $413 $412 $518 reversed $509 $-1 #
edge $-1 $635 $415 $517 $636 forward #
straight-curve $-1 -53.895687734611045 -35.5020387341347 0 0 0 -1 I I #
point $-1 -53.895687734611045 -35.5020387341347 7.8054212239319991 #
point $-1 -53.895687734611045 -35.5020387341347 -7.8054212239319991 #
vertex $-1 $632 $637 #
coedge $-1 $638 $639 $420 $524 reversed $629 $-1 #
edge $-1 $633 $528 $523 $640 forward #
coedge $-1 $425 $421 $639 $641 reversed $527 $-1 #
coedge $-1 $421 $425 $511 $632 forward $527 $-1 #
loop $-1 $-1 $526 $628 #
vertex $-1 $422 $642 #
straight-curve $-1 53.895687734611045 0 -7.8054212239319991 0 -1 0 I I #
vertex $-1 $426 $643 #
coedge $-1 $639 $638 $424 $532 reversed $629 $-1 #
edge $-1 $533 $635 $531 $644 forward #
vertex $-1 $426 $645 #
straight-curve $-1 53.895687734611045 0 7.8054212239319991 0 1 0 I I #
face $-1 $646 $647 $25 $-1 $648 reversed single #
loop $-1 $-1 $649 $427 #
plane-surface $-1 -38.284845286747043 -40.00406858252537 0 -1 0 0 0 0 1 forward_v I I I I #
coedge $-1 $650 $651 $652 $653 reversed $428 $-1 #
coedge $-1 $654 $430 $655 $656 reversed $333 $-1 #
coedge $-1 $430 $654 $657 $658 reversed $333 $-1 #
coedge $-1 $651 $650 $430 $542 reversed $428 $-1 #
edge $-1 $659 $660 $541 $661 forward #
coedge $-1 $457 $447 $431 $544 reversed $561 $-1 #
edge $-1 $545 $546 $543 $662 forward #
vertex $-1 $458 $663 #
vertex $-1 $448 $664 #
coedge $-1 $442 $452 $440 $548 forward $553 $-1 #
edge $-1 $454 $444 $440 $665 forward #
coedge $-1 $441 $655 $650 $666 forward $252 $-1 #
coedge $-1 $652 $667 $441 $551 reversed $647 $-1 #
edge $-1 $668 $554 $550 $669 forward #
coedge $-1 $452 $442 $667 $670 reversed $553 $-1 #
loop $-1 $-1 $547 $449 #
vertex $-1 $443 $671 #
straight-curve $-1 -53.895687734611045 0 -7.8054212239319991 0 1 0 I I #
point $-1 -53.895687734611045 35.5020387341347 -7.8054212239319991 #
coedge $-1 $655 $446 $672 $673 forward $252 $-1 #
coedge $-1 $674 $675 $446 $559 reversed $676 $-1 #
edge $-1 $562 $677 $558 $669 forward #
coedge $-1 $447 $457 $674 $678 forward $561 $-1 #
loop $-1 $-1 $560 $564 #
vertex $-1 $678 $679 #
straight-curve $-1 53.895687734611045 0 -7.8054212239319991 0 -1 0 I I #
face $-1 $-1 $561 $25 $-1 $680 reversed single #
plane-surface $-1 -53.895687734611045 0 0 1 0 0 0 0 -1 forward_v I I I I #
coedge $-1 $657 $451 $651 $681 forward $256 $-1 #
coedge $-1 $667 $652 $451 $568 reversed $647 $-1 #
edge $-1 $569 $682 $567 $683 forward #
vertex $-1 $453 $684 #
straight-curve $-1 -53.895687734611045 0 7.8054212239319991 0 -1 0 I I #
point $-1 -53.895687734611045 35.5020387341347 7.8054212239319991 #
coedge $-1 $456 $657 $685 $686 forward $256 $-1 #
coedge $-1 $675 $674 $456 $574 reversed $676 $-1 #
edge $-1 $687 $575 $573 $683 forward #
vertex $-1 $458 $688 #
straight-curve $-1 53.895687734611045 0 7.8054212239319991 0 1 0 I I #
face $-1 $689 $690 $27 $-1 $578 reversed single #
plane-surface $-1 0 35.5020387341347 0 0 -1 0 0 0 -1 forward_v I I I I #
coedge $-1 $691 $480 $482 $605 reversed $461 $-1 #
coedge $-1 $466 $463 $692 $693 reversed $362 $-1 #
coedge $-1 $463 $466 $479 $602 reversed $362 $-1 #
coedge $-1 $480 $691 $463 $583 reversed $461 $-1 #
edge $-1 $603 $694 $582 $695 forward #
coedge $-1 $465 $464 $696 $697 reversed $262 $-1 #
coedge $-1 $692 $698 $464 $586 forward $699 $-1 #
edge $-1 $700 $590 $464 $701 forward #
coedge $-1 $702 $479 $465 $588 forward $163 $-1 #
edge $-1 $589 $703 $465 $704 forward #
vertex $-1 $602 $705 #
vertex $-1 $693 $706 #
straight-curve $-1 -41.761708200662468 44.506098430916033 0 0 0 -1 I I #
coedge $-1 $468 $707 $708 $709 forward $163 $-1 #
coedge $-1 $710 $711 $468 $594 reversed $712 $-1 #
edge $-1 $713 $596 $593 $714 forward #
coedge $-1 $475 $469 $711 $715 forward $276 $-1 #
vertex $-1 $470 $716 #
coedge $-1 $717 $718 $475 $598 forward $699 $-1 #
edge $-1 $600 $719 $475 $720 forward #
coedge $-1 $482 $476 $718 $721 reversed $483 $-1 #
vertex $-1 $598 $722 #
straight-curve $-1 53.895687734611045 35.5020387341347 0 0 0 -1 I I #
edge $-1 $603 $589 $581 $723 forward #
vertex $-1 $481 $724 #
straight-curve $-1 -38.284845286747043 40.004068582525363 7.8054212239319991 0 1 0 I I #
edge $-1 $725 $484 $482 $726 forward #
point $-1 -38.284845286747043 35.502038734134693 7.8054212239319991 #
face $-1 $727 $728 $29 $-1 $729 reversed single #
loop $-1 $-1 $730 $487 #
plane-surface $-1 -40.023276743704756 44.506098430916033 0 0 -1 0 0 0 -1 forward_v I I I I #
coedge $-1 $731 $732 $733 $734 forward $488 $-1 #
coedge $-1 $490 $735 $736 $737 forward $383 $-1 #
coedge $-1 $736 $499 $491 $613 forward $501 $-1 #
edge $-1 $738 $615 $612 $739 forward #
edge $-1 $738 $616 $492 $740 forward #
vertex $-1 $613 $741 #
vertex $-1 $495 $742 #
straight-curve $-1 30.936892050849529 12.198796705182119 7.8054212239320009 -1 0 0 I I #
straight-curve $-1 51.004458430904208 7.8028601687168724 7.805421223932008 0 1 0 I I #
edge $-1 $497 $738 $499 $743 forward #
point $-1 53.895687734611045 19.012643969685371 4.5943856960765999 #
coedge $-1 $500 $744 $745 $746 reversed $501 $-1 #
face $-1 $-1 $501 $29 $-1 $747 reversed single #
coedge $-1 $748 $503 $749 $750 forward $383 $-1 #
coedge $-1 $745 $751 $503 $625 reversed $752 $-1 #
edge $-1 $626 $753 $624 $754 forward #
vertex $-1 $504 $755 #
straight-curve $-1 53.895687734611045 0 7.8054212239319991 0 1 0 I I #
face $-1 $-1 $527 $23 $-1 $756 reversed single #
loop $-1 $-1 $639 $508 #
plane-surface $-1 0 35.5020387341347 0 0 -1 0 0 0 -1 forward_v I I I I #
coedge $-1 $515 $517 $638 $757 forward $509 $-1 #
edge $-1 $530 $522 $526 $758 forward #
vertex $-1 $524 $759 #
straight-curve $-1 -53.895687734611045 0 -7.8054212239319991 0 1 0 I I #
vertex $-1 $532 $760 #
straight-curve $-1 -53.895687734611045 0 7.8054212239319991 0 -1 0 I I #
point $-1 53.895687734611045 -35.5020387341347 -7.8054212239319991 #
coedge $-1 $531 $523 $631 $757 reversed $629 $-1 #
coedge $-1 $523 $531 $525 $641 forward $629 $-1 #
straight-curve $-1 0 35.5020387341347 -7.8054212239319991 1 0 0 I I #
edge $-1 $533 $528 $525 $761 forward #
point $-1 53.895687734611045 35.5020387341347 -7.8054212239319991 #
point $-1 53.895687734611045 -35.5020387341347 7.8054212239319991 #
straight-curve $-1 0 35.5020387341347 7.8054212239319991 -1 0 0 I I #
point $-1 53.895687734611045 35.5020387341347 7.8054212239319991 #
face $-1 $359 $676 $25 $-1 $648 reversed single #
loop $-1 $-1 $652 $535 #
plane-surface $-1 0 -35.5020387341347 0 0 1 0 0 0 1 forward_v I I I I #
coedge $-1 $672 $685 $654 $762 forward $536 $-1 #
coedge $-1 $541 $538 $549 $666 reversed $428 $-1 #
coedge $-1 $538 $541 $566 $681 reversed $428 $-1 #
coedge $-1 $567 $550 $538 $653 forward $647 $-1 #
edge $-1 $668 $682 $652 $763 forward #
coedge $-1 $540 $539 $649 $762 reversed $333 $-1 #
coedge $-1 $549 $557 $539 $656 forward $252 $-1 #
edge $-1 $764 $660 $539 $765 forward #
coedge $-1 $572 $566 $540 $658 forward $256 $-1 #
edge $-1 $659 $766 $540 $767 forward #
vertex $-1 $681 $768 #
vertex $-1 $666 $769 #
straight-curve $-1 -41.761708200662468 -44.50609843091604 0 0 0 -1 I I #
straight-curve $-1 53.895687734611045 35.5020387341347 0 0 0 -1 I I #
point $-1 53.895687734611045 35.5020387341347 7.8054212239319991 #
point $-1 53.895687734611045 35.5020387341347 -7.8054212239319991 #
straight-curve $-1 -53.895687734611045 35.5020387341347 0 0 0 -1 I I #
edge $-1 $660 $668 $650 $770 forward #
coedge $-1 $550 $567 $552 $670 forward $647 $-1 #
vertex $-1 $551 $771 #
straight-curve $-1 0 -35.5020387341347 -7.8054212239319991 -1 0 0 I I #
edge $-1 $569 $554 $552 $772 forward #
point $-1 -53.895687734611045 -35.5020387341347 -7.8054212239319991 #
coedge $-1 $773 $649 $557 $673 reversed $536 $-1 #
edge $-1 $677 $764 $672 $774 forward #
coedge $-1 $573 $558 $560 $678 reversed $676 $-1 #
coedge $-1 $558 $573 $773 $775 forward $676 $-1 #
loop $-1 $-1 $675 $646 #
vertex $-1 $673 $776 #
edge $-1 $575 $562 $560 $777 forward #
point $-1 53.895687734611045 -35.5020387341347 -7.8054212239319991 #
plane-surface $-1 53.895687734611045 0 0 -1 0 0 0 0 1 forward_v I I I I #
edge $-1 $682 $659 $651 $778 forward #
vertex $-1 $681 $779 #
straight-curve $-1 0 -35.5020387341347 7.8054212239319991 1 0 0 I I #
point $-1 -53.895687734611045 -35.5020387341347 7.8054212239319991 #
coedge $-1 $649 $773 $572 $686 reversed $536 $-1 #
edge $-1 $766 $687 $685 $780 forward #
vertex $-1 $574 $781 #
point $-1 53.895687734611045 -35.5020387341347 7.8054212239319991 #
face $-1 $782 $783 $27 $-1 $784 reversed single #
loop $-1 $-1 $696 $577 #
coedge $-1 $582 $579 $785 $786 reversed $461 $-1 #
coedge $-1 $785 $585 $580 $693 forward $699 $-1 #
edge $-1 $590 $694 $580 $787 forward #
vertex $-1 $786 $788 #
straight-curve $-1 -38.284845286747043 44.506098430916033 0 0 0 -1 I I #
coedge $-1 $789 $790 $584 $697 forward $690 $-1 #
edge $-1 $703 $700 $696 $791 forward #
coedge $-1 $585 $792 $789 $793 forward $699 $-1 #
loop $-1 $-1 $597 $794 #
vertex $-1 $586 $795 #
straight-curve $-1 -41.761708200662468 40.004068582525363 -7.8054212239319991 0 1 0 I I #
coedge $-1 $796 $587 $790 $797 forward $163 $-1 #
vertex $-1 $797 $798 #
straight-curve $-1 -41.761708200662468 40.004068582525363 7.8054212239319991 0 -1 0 I I #
point $-1 -41.761708200662468 44.506098430916033 7.8054212239319991 #
point $-1 -41.761708200662468 44.506098430916033 -7.8054212239319991 #
coedge $-1 $592 $799 $800 $801 forward $163 $-1 #
coedge $-1 $802 $803 $592 $709 reversed $804 $-1 #
edge $-1 $805 $713 $708 $806 forward #
coedge $-1 $807 $593 $803 $808 forward $712 $-1 #
coedge $-1 $593 $807 $595 $715 reversed $712 $-1 #
loop $-1 $-1 $710 $809 #
vertex $-1 $594 $810 #
straight-curve $-1 0 -35.5020387341347 7.8054212239319991 1 0 0 I I #
edge $-1 $596 $719 $595 $811 forward #
point $-1 53.895687734611045 -35.5020387341347 7.8054212239319991 #
coedge $-1 $812 $597 $807 $813 forward $699 $-1 #
coedge $-1 $597 $785 $599 $721 forward $699 $-1 #
vertex $-1 $715 $814 #
straight-curve $-1 53.895687734611045 0 -7.8054212239319991 0 -1 0 I I #
edge $-1 $725 $600 $599 $815 forward #
point $-1 53.895687734611045 35.5020387341347 -7.8054212239319991 #
straight-curve $-1 -40.023276743704756 44.506098430916033 7.8054212239319991 -1 0 0 I I #
point $-1 -38.284845286747043 44.506098430916033 7.8054212239319991 #
vertex $-1 $721 $816 #
straight-curve $-1 -38.284845286747043 35.5020387341347 0 0 0 1 I I #
face $-1 $817 $752 $29 $-1 $818 reversed single #
loop $-1 $-1 $819 $607 #
plane-surface $-1 -38.284845286747043 40.004068582525363 0 -1 0 0 0 0 1 forward_v I I I I #
coedge $-1 $820 $821 $822 $823 forward $608 $-1 #
coedge $-1 $824 $610 $825 $826 reversed $488 $-1 #
coedge $-1 $610 $824 $827 $828 reversed $488 $-1 #
coedge $-1 $821 $820 $610 $734 reversed $608 $-1 #
edge $-1 $829 $830 $733 $831 forward #
coedge $-1 $611 $832 $833 $834 forward $383 $-1 #
coedge $-1 $835 $612 $611 $737 reversed $501 $-1 #
edge $-1 $836 $615 $736 $627 forward #
vertex $-1 $619 $837 #
straight-curve $-1 53.895687734611045 12.198796705182119 78.412748468179245 0 0 1 I I #
straight-curve $-1 -18.230819701985894 12.198796705182119 84.698989499761552 -0.66913059716165679 0 0.74314483375859142 I I #
point $-1 53.895687734611045 12.198796705182119 7.8054212239319991 #
point $-1 51.004458430904208 12.198796705182119 7.8054212239320009 #
straight-curve $-1 53.895687734611059 7.8028601687168724 4.5943856960765856 0 -1 0 I I #
coedge $-1 $621 $835 $838 $839 reversed $501 $-1 #
coedge $-1 $840 $624 $621 $746 forward $752 $-1 #
edge $-1 $626 $841 $621 $842 forward #
plane-surface $-1 53.895687734611045 0 0 -1 0 0 0 0 1 forward_v I I I I #
coedge $-1 $827 $623 $821 $843 forward $383 $-1 #
coedge $-1 $819 $822 $623 $750 reversed $728 $-1 #
edge $-1 $753 $844 $749 $845 forward #
coedge $-1 $624 $840 $819 $846 forward $752 $-1 #
loop $-1 $-1 $751 $727 #
vertex $-1 $750 $847 #
straight-curve $-1 0 35.5020387341347 7.8054212239319991 -1 0 0 I I #
point $-1 53.895687734611045 35.5020387341347 7.8054212239319991 #
plane-surface $-1 53.895687734611045 0 0 -1 0 0 0 0 1 forward_v I I I I #
edge $-1 $635 $633 $638 $848 forward #
straight-curve $-1 53.895687734611045 -35.5020387341347 0 0 0 -1 I I #
point $-1 -53.895687734611045 35.5020387341347 -7.8054212239319991 #
point $-1 -53.895687734611045 35.5020387341347 7.8054212239319991 #
straight-curve $-1 53.895687734611045 35.5020387341347 0 0 0 -1 I I #
edge $-1 $766 $764 $649 $849 forward #
straight-curve $-1 -41.761708200662468 -35.5020387341347 0 0 0 1 I I #
vertex $-1 $762 $850 #
straight-curve $-1 -40.023276743704756 -44.50609843091604 -7.8054212239319991 -1 0 0 I I #
vertex $-1 $686 $851 #
straight-curve $-1 -40.023276743704756 -44.50609843091604 7.8054212239319991 1 0 0 I I #
point $-1 -41.761708200662468 -44.50609843091604 7.8054212239319991 #
point $-1 -41.761708200662468 -44.50609843091604 -7.8054212239319991 #
straight-curve $-1 -41.761708200662468 -40.00406858252537 -7.8054212239319991 0 1 0 I I #
point $-1 -41.761708200662468 -35.5020387341347 -7.8054212239319991 #
straight-curve $-1 -53.895687734611045 -35.5020387341347 0 0 0 -1 I I #
coedge $-1 $685 $672 $675 $775 reversed $536 $-1 #
straight-curve $-1 -38.284845286747043 -40.00406858252537 -7.8054212239319991 0 -1 0 I I #
edge $-1 $687 $677 $675 $852 forward #
point $-1 -38.284845286747043 -35.5020387341347 -7.8054212239319991 #
straight-curve $-1 53.895687734611045 -35.5020387341347 0 0 0 -1 I I #
straight-curve $-1 -41.761708200662468 -40.00406858252537 7.8054212239319991 0 -1 0 I I #
point $-1 -41.761708200662468 -35.5020387341347 7.8054212239319991 #
straight-curve $-1 -38.284845286747043 -40.00406858252537 7.8054212239319991 0 1 0 I I #
point $-1 -38.284845286747043 -35.5020387341347 7.8054212239319991 #
face $-1 $853 $854 $27 $-1 $855 reversed single #
loop $-1 $-1 $856 $689 #
plane-surface $-1 -40.023276743704756 -44.50609843091604 0 0 1 0 0 0 1 forward_v I I I I #
coedge $-1 $718 $692 $691 $786 forward $699 $-1 #
edge $-1 $694 $725 $691 $857 forward #
straight-curve $-1 -40.023276743704756 44.506098430916033 -7.8054212239319991 1 0 0 I I #
point $-1 -38.284845286747043 44.506098430916033 -7.8054212239319991 #
coedge $-1 $858 $696 $698 $793 reversed $690 $-1 #
coedge $-1 $696 $858 $702 $797 reversed $690 $-1 #
straight-curve $-1 -41.761708200662468 35.5020387341347 0 0 0 -1 I I #
coedge $-1 $698 $859 $860 $861 forward $699 $-1 #
edge $-1 $862 $700 $789 $815 forward #
face $-1 $863 $699 $27 $-1 $864 reversed single #
point $-1 -41.761708200662468 35.502038734134693 -7.8054212239319991 #
coedge $-1 $865 $702 $866 $867 forward $163 $-1 #
edge $-1 $703 $868 $790 $485 forward #
point $-1 -41.761708200662468 35.502038734134693 7.8054212239319991 #
coedge $-1 $707 $865 $869 $870 forward $163 $-1 #
coedge $-1 $856 $871 $707 $801 reversed $783 $-1 #
edge $-1 $872 $805 $800 $873 forward #
coedge $-1 $874 $708 $871 $875 forward $804 $-1 #
coedge $-1 $708 $874 $710 $808 reversed $804 $-1 #
loop $-1 $-1 $802 $853 #
vertex $-1 $709 $876 #
straight-curve $-1 -38.284845286747043 -40.00406858252537 7.8054212239319991 0 1 0 I I #
coedge $-1 $711 $710 $717 $813 reversed $712 $-1 #
edge $-1 $713 $877 $710 $878 forward #
face $-1 $794 $712 $27 $-1 $879 reversed single #
point $-1 -38.284845286747043 -35.5020387341347 7.8054212239319991 #
straight-curve $-1 53.895687734611045 -35.5020387341347 0 0 0 -1 I I #
coedge $-1 $880 $717 $874 $881 forward $699 $-1 #
edge $-1 $719 $877 $807 $882 forward #
point $-1 53.895687734611045 -35.5020387341347 -7.8054212239319991 #
straight-curve $-1 0 35.5020387341347 -7.8054212239319991 1 0 0 I I #
point $-1 -38.284845286747043 35.502038734134693 -7.8054212239319991 #
face $-1 $883 $884 $29 $-1 $818 reversed single #
plane-surface $-1 0 35.5020387341347 0 0 -1 0 0 0 -1 forward_v I I I I #
coedge $-1 $885 $749 $751 $846 reversed $728 $-1 #
coedge $-1 $733 $730 $886 $887 reversed $608 $-1 #
coedge $-1 $730 $733 $748 $843 reversed $608 $-1 #
coedge $-1 $749 $885 $730 $823 reversed $728 $-1 #
edge $-1 $844 $888 $822 $889 forward #
coedge $-1 $732 $731 $890 $891 reversed $488 $-1 #
coedge $-1 $886 $892 $731 $826 forward $893 $-1 #
edge $-1 $894 $830 $731 $895 forward #
coedge $-1 $896 $748 $732 $828 forward $383 $-1 #
edge $-1 $829 $897 $732 $898 forward #
vertex $-1 $843 $899 #
vertex $-1 $887 $900 #
straight-curve $-1 -41.761708200662468 44.506098430916033 0 0 0 -1 I I #
coedge $-1 $735 $901 $902 $903 forward $383 $-1 #
coedge $-1 $904 $905 $735 $834 reversed $906 $-1 #
edge $-1 $907 $836 $833 $908 forward #
coedge $-1 $744 $736 $905 $909 forward $501 $-1 #
vertex $-1 $737 $910 #
point $-1 53.895687734611045 12.198796705182119 4.5943856960765999 #
coedge $-1 $911 $912 $744 $839 forward $893 $-1 #
edge $-1 $841 $913 $744 $914 forward #
coedge $-1 $751 $745 $912 $915 reversed $752 $-1 #
vertex $-1 $839 $916 #
straight-curve $-1 53.895687734611045 35.5020387341347 0 0 0 -1 I I #
edge $-1 $844 $829 $821 $917 forward #
vertex $-1 $750 $918 #
straight-curve $-1 -38.284845286747043 40.004068582525363 7.8054212239319991 0 1 0 I I #
edge $-1 $919 $753 $751 $920 forward #
point $-1 -38.284845286747043 35.502038734134693 7.8054212239319991 #
straight-curve $-1 -53.895687734611045 35.5020387341347 0 0 0 -1 I I #
straight-curve $-1 -38.284845286747043 -44.50609843091604 0 0 0 -1 I I #
point $-1 -38.284845286747043 -44.50609843091604 -7.8054212239319991 #
point $-1 -38.284845286747043 -44.50609843091604 7.8054212239319991 #
straight-curve $-1 -38.284845286747043 -35.5020387341347 0 0 0 -1 I I #
face $-1 $921 $804 $27 $-1 $922 reversed single #
loop $-1 $-1 $923 $782 #
plane-surface $-1 -41.761708200662468 -40.00406858252537 0 1 0 0 0 0 -1 forward_v I I I I #
coedge $-1 $924 $800 $925 $926 forward $783 $-1 #
straight-curve $-1 -38.284845286747043 40.004068582525363 -7.8054212239319991 0 -1 0 I I #
coedge $-1 $790 $789 $927 $928 reversed $690 $-1 #
coedge $-1 $792 $929 $930 $931 forward $699 $-1 #
coedge $-1 $932 $927 $792 $861 reversed $933 $-1 #
edge $-1 $934 $862 $860 $935 forward #
vertex $-1 $793 $936 #
face $-1 $376 $933 $27 $-1 $937 reversed single #
plane-surface $-1 0 0 -7.8054212239319991 0 0 1 1 0 0 forward_v I I I I #
coedge $-1 $799 $796 $938 $939 forward $163 $-1 #
coedge $-1 $927 $932 $796 $867 reversed $933 $-1 #
edge $-1 $868 $940 $866 $941 forward #
vertex $-1 $797 $942 #
coedge $-1 $923 $925 $799 $870 reversed $854 $-1 #
edge $-1 $943 $872 $869 $944 forward #
coedge $-1 $800 $924 $802 $875 reversed $783 $-1 #
vertex $-1 $870 $945 #
straight-curve $-1 -40.023276743704756 -44.50609843091604 7.8054212239319991 1 0 0 I I #
coedge $-1 $803 $802 $812 $881 reversed $804 $-1 #
edge $-1 $805 $946 $802 $947 forward #
point $-1 -38.284845286747043 -44.50609843091604 7.8054212239319991 #
vertex $-1 $881 $948 #
straight-curve $-1 -38.284845286747043 -35.5020387341347 0 0 0 -1 I I #
plane-surface $-1 0 -35.5020387341347 0 0 1 0 0 0 1 forward_v I I I I #
coedge $-1 $929 $812 $924 $949 forward $699 $-1 #
edge $-1 $877 $946 $874 $950 forward #
straight-curve $-1 0 -35.5020387341347 -7.8054212239319991 -1 0 0 I I #
face $-1 $951 $952 $29 $-1 $953 reversed single #
loop $-1 $-1 $890 $817 #
coedge $-1 $822 $819 $954 $955 reversed $728 $-1 #
coedge $-1 $954 $825 $820 $887 forward $893 $-1 #
edge $-1 $830 $888 $820 $956 forward #
vertex $-1 $955 $957 #
straight-curve $-1 -38.284845286747043 44.506098430916033 0 0 0 -1 I I #
coedge $-1 $958 $959 $824 $891 forward $884 $-1 #
edge $-1 $897 $894 $890 $960 forward #
coedge $-1 $825 $961 $958 $962 forward $893 $-1 #
loop $-1 $-1 $838 $963 #
vertex $-1 $826 $964 #
straight-curve $-1 -41.761708200662468 40.004068582525363 -7.8054212239319991 0 1 0 I I #
coedge $-1 $965 $827 $959 $966 forward $383 $-1 #
vertex $-1 $966 $967 #
straight-curve $-1 -41.761708200662468 40.004068582525363 7.8054212239319991 0 -1 0 I I #
point $-1 -41.761708200662468 44.506098430916033 7.8054212239319991 #
point $-1 -41.761708200662468 44.506098430916033 -7.8054212239319991 #
coedge $-1 $832 $968 $969 $970 forward $383 $-1 #
coedge $-1 $971 $972 $832 $903 reversed $973 $-1 #
edge $-1 $974 $907 $902 $975 forward #
coedge $-1 $976 $833 $972 $977 forward $906 $-1 #
coedge $-1 $833 $976 $835 $909 reversed $906 $-1 #
loop $-1 $-1 $904 $978 #
vertex $-1 $834 $979 #
straight-curve $-1 0 -35.5020387341347 7.8054212239319991 1 0 0 I I #
edge $-1 $836 $913 $835 $980 forward #
point $-1 53.895687734611045 -35.5020387341347 7.8054212239319991 #
coedge $-1 $981 $838 $976 $982 forward $893 $-1 #
coedge $-1 $838 $954 $840 $915 forward $893 $-1 #
vertex $-1 $909 $983 #
straight-curve $-1 53.895687734611045 0 -7.8054212239319991 0 -1 0 I I #
edge $-1 $919 $841 $840 $984 forward #
point $-1 53.895687734611045 35.5020387341347 -7.8054212239319991 #
straight-curve $-1 -40.023276743704756 44.506098430916033 7.8054212239319991 -1 0 0 I I #
point $-1 -38.284845286747043 44.506098430916033 7.8054212239319991 #
vertex $-1 $915 $985 #
straight-curve $-1 -38.284845286747043 35.5020387341347 0 0 0 1 I I #
face $-1 $809 $986 $27 $-1 $879 reversed single #
plane-surface $-1 -38.284845286747043 -40.00406858252537 0 -1 0 0 0 0 1 forward_v I I I I #
coedge $-1 $987 $869 $988 $989 reversed $854 $-1 #
coedge $-1 $871 $856 $880 $949 reversed $783 $-1 #
coedge $-1 $869 $987 $856 $926 reversed $854 $-1 #
edge $-1 $872 $990 $925 $991 forward #
coedge $-1 $860 $866 $858 $928 forward $933 $-1 #
edge $-1 $868 $862 $858 $992 forward #
coedge $-1 $859 $880 $987 $993 forward $699 $-1 #
coedge $-1 $988 $994 $859 $931 reversed $986 $-1 #
edge $-1 $995 $934 $930 $882 forward #
coedge $-1 $866 $860 $994 $996 reversed $933 $-1 #
loop $-1 $-1 $927 $863 #
vertex $-1 $861 $997 #
straight-curve $-1 -53.895687734611045 0 -7.8054212239319991 0 1 0 I I #
point $-1 -53.895687734611045 35.5020387341347 -7.8054212239319991 #
plane-surface $-1 -53.895687734611045 0 0 1 0 0 0 0 -1 forward_v I I I I #
coedge $-1 $994 $988 $865 $939 reversed $986 $-1 #
edge $-1 $940 $943 $938 $714 forward #
vertex $-1 $867 $998 #
straight-curve $-1 -53.895687734611045 0 7.8054212239319991 0 -1 0 I I #
point $-1 -53.895687734611045 35.5020387341347 7.8054212239319991 #
vertex $-1 $870 $999 #
straight-curve $-1 -41.761708200662468 -40.00406858252537 7.8054212239319991 0 -1 0 I I #
point $-1 -41.761708200662468 -44.50609843091604 7.8054212239319991 #
vertex $-1 $875 $1000 #
straight-curve $-1 -38.284845286747043 -44.50609843091604 0 0 0 -1 I I #
point $-1 -38.284845286747043 -35.5020387341347 -7.8054212239319991 #
edge $-1 $946 $990 $924 $1001 forward #
straight-curve $-1 -38.284845286747043 -40.00406858252537 -7.8054212239319991 0 -1 0 I I #
face $-1 $1002 $1003 $29 $-1 $1004 reversed single #
loop $-1 $-1 $1005 $883 #
plane-surface $-1 -40.023276743704756 -44.50609843091604 0 0 1 0 0 0 1 forward_v I I I I #
coedge $-1 $912 $886 $885 $955 forward $893 $-1 #
edge $-1 $888 $919 $885 $1006 forward #
straight-curve $-1 -40.023276743704756 44.506098430916033 -7.8054212239319991 1 0 0 I I #
point $-1 -38.284845286747043 44.506098430916033 -7.8054212239319991 #
coedge $-1 $1007 $890 $892 $962 reversed $884 $-1 #
coedge $-1 $890 $1007 $896 $966 reversed $884 $-1 #
straight-curve $-1 -41.761708200662468 35.5020387341347 0 0 0 -1 I I #
coedge $-1 $892 $1008 $1009 $1010 forward $893 $-1 #
edge $-1 $1011 $894 $958 $984 forward #
face $-1 $1012 $893 $29 $-1 $1013 reversed single #
point $-1 -41.761708200662468 35.502038734134693 -7.8054212239319991 #
coedge $-1 $1014 $896 $1015 $1016 forward $383 $-1 #
edge $-1 $897 $1017 $959 $754 forward #
point $-1 -41.761708200662468 35.502038734134693 7.8054212239319991 #
coedge $-1 $901 $1014 $1018 $1019 forward $383 $-1 #
coedge $-1 $1005 $1020 $901 $970 reversed $952 $-1 #
edge $-1 $1021 $974 $969 $1022 forward #
coedge $-1 $1023 $902 $1020 $1024 forward $973 $-1 #
coedge $-1 $902 $1023 $904 $977 reversed $973 $-1 #
loop $-1 $-1 $971 $1002 #
vertex $-1 $903 $1025 #
straight-curve $-1 -38.284845286747043 -40.00406858252537 7.8054212239319991 0 1 0 I I #
coedge $-1 $905 $904 $911 $982 reversed $906 $-1 #
edge $-1 $907 $1026 $904 $1027 forward #
face $-1 $963 $906 $29 $-1 $1028 reversed single #
point $-1 -38.284845286747043 -35.5020387341347 7.8054212239319991 #
straight-curve $-1 53.895687734611045 -35.5020387341347 0 0 0 -1 I I #
coedge $-1 $1029 $911 $1023 $1030 forward $893 $-1 #
edge $-1 $913 $1026 $976 $1031 forward #
point $-1 53.895687734611045 -35.5020387341347 -7.8054212239319991 #
straight-curve $-1 0 35.5020387341347 -7.8054212239319991 1 0 0 I I #
point $-1 -38.284845286747043 35.502038734134693 -7.8054212239319991 #
loop $-1 $-1 $988 $921 #
coedge $-1 $925 $923 $929 $993 reversed $854 $-1 #
coedge $-1 $938 $930 $923 $989 forward $986 $-1 #
edge $-1 $995 $943 $988 $1032 forward #
vertex $-1 $993 $1033 #
straight-curve $-1 -41.761708200662468 -44.50609843091604 0 0 0 -1 I I #
straight-curve $-1 -53.895687734611045 35.5020387341347 0 0 0 -1 I I #
edge $-1 $990 $995 $987 $1034 forward #
coedge $-1 $930 $938 $932 $996 forward $986 $-1 #
vertex $-1 $931 $1035 #
edge $-1 $940 $934 $932 $1036 forward #
point $-1 -53.895687734611045 -35.5020387341347 -7.8054212239319991 #
point $-1 -53.895687734611045 -35.5020387341347 7.8054212239319991 #
point $-1 -41.761708200662468 -35.5020387341347 7.8054212239319991 #
point $-1 -38.284845286747043 -44.50609843091604 -7.8054212239319991 #
straight-curve $-1 -40.023276743704756 -44.50609843091604 -7.8054212239319991 -1 0 0 I I #
face $-1 $1037 $973 $29 $-1 $1038 reversed single #
loop $-1 $-1 $1039 $951 #
plane-surface $-1 -41.761708200662468 -40.00406858252537 0 1 0 0 0 0 -1 forward_v I I I I #
coedge $-1 $1040 $969 $1041 $1042 forward $952 $-1 #
straight-curve $-1 -38.284845286747043 40.004068582525363 -7.8054212239319991 0 -1 0 I I #
coedge $-1 $959 $958 $1043 $1044 reversed $884 $-1 #
coedge $-1 $961 $1045 $1046 $1047 forward $893 $-1 #
coedge $-1 $1048 $1043 $961 $1010 reversed $1049 $-1 #
edge $-1 $1050 $1011 $1009 $1051 forward #
vertex $-1 $962 $1052 #
face $-1 $622 $1049 $29 $-1 $1053 reversed single #
plane-surface $-1 0 0 -7.8054212239319991 0 0 1 1 0 0 forward_v I I I I #
coedge $-1 $968 $965 $1054 $1055 forward $383 $-1 #
coedge $-1 $1043 $1048 $965 $1016 reversed $1049 $-1 #
edge $-1 $1017 $1056 $1015 $1057 forward #
vertex $-1 $966 $1058 #
coedge $-1 $1039 $1041 $968 $1019 reversed $1003 $-1 #
edge $-1 $1059 $1021 $1018 $1060 forward #
coedge $-1 $969 $1040 $971 $1024 reversed $952 $-1 #
vertex $-1 $1019 $1061 #
straight-curve $-1 -40.023276743704756 -44.50609843091604 7.8054212239319991 1 0 0 I I #
coedge $-1 $972 $971 $981 $1030 reversed $973 $-1 #
edge $-1 $974 $1062 $971 $1063 forward #
point $-1 -38.284845286747043 -44.50609843091604 7.8054212239319991 #
vertex $-1 $1030 $1064 #
straight-curve $-1 -38.284845286747043 -35.5020387341347 0 0 0 -1 I I #
plane-surface $-1 0 -35.5020387341347 0 0 1 0 0 0 1 forward_v I I I I #
coedge $-1 $1045 $981 $1040 $1065 forward $893 $-1 #
edge $-1 $1026 $1062 $1023 $1066 forward #
straight-curve $-1 0 -35.5020387341347 -7.8054212239319991 -1 0 0 I I #
straight-curve $-1 -41.761708200662468 -35.5020387341347 0 0 0 1 I I #
point $-1 -41.761708200662468 -44.50609843091604 -7.8054212239319991 #
straight-curve $-1 -41.761708200662468 -40.00406858252537 -7.8054212239319991 0 1 0 I I #
point $-1 -41.761708200662468 -35.5020387341347 -7.8054212239319991 #
straight-curve $-1 -53.895687734611045 -35.5020387341347 0 0 0 -1 I I #
face $-1 $978 $1067 $29 $-1 $1028 reversed single #
plane-surface $-1 -38.284845286747043 -40.00406858252537 0 -1 0 0 0 0 1 forward_v I I I I #
coedge $-1 $1068 $1018 $1069 $1070 reversed $1003 $-1 #
coedge $-1 $1020 $1005 $1029 $1065 reversed $952 $-1 #
coedge $-1 $1018 $1068 $1005 $1042 reversed $1003 $-1 #
edge $-1 $1021 $1071 $1041 $1072 forward #
coedge $-1 $1009 $1015 $1007 $1044 forward $1049 $-1 #
edge $-1 $1017 $1011 $1007 $1073 forward #
coedge $-1 $1008 $1029 $1068 $1074 forward $893 $-1 #
coedge $-1 $1069 $1075 $1008 $1047 reversed $1067 $-1 #
edge $-1 $1076 $1050 $1046 $1031 forward #
coedge $-1 $1015 $1009 $1075 $1077 reversed $1049 $-1 #
loop $-1 $-1 $1043 $1012 #
vertex $-1 $1010 $1078 #
straight-curve $-1 -53.895687734611045 0 -7.8054212239319991 0 1 0 I I #
point $-1 -53.895687734611045 35.5020387341347 -7.8054212239319991 #
plane-surface $-1 -53.895687734611045 0 0 1 0 0 0 0 -1 forward_v I I I I #
coedge $-1 $1075 $1069 $1014 $1055 reversed $1067 $-1 #
edge $-1 $1056 $1059 $1054 $908 forward #
vertex $-1 $1016 $1079 #
straight-curve $-1 -53.895687734611045 0 7.8054212239319991 0 -1 0 I I #
point $-1 -53.895687734611045 35.5020387341347 7.8054212239319991 #
vertex $-1 $1019 $1080 #
straight-curve $-1 -41.761708200662468 -40.00406858252537 7.8054212239319991 0 -1 0 I I #
point $-1 -41.761708200662468 -44.50609843091604 7.8054212239319991 #
vertex $-1 $1024 $1081 #
straight-curve $-1 -38.284845286747043 -44.50609843091604 0 0 0 -1 I I #
point $-1 -38.284845286747043 -35.5020387341347 -7.8054212239319991 #
edge $-1 $1062 $1071 $1040 $1082 forward #
straight-curve $-1 -38.284845286747043 -40.00406858252537 -7.8054212239319991 0 -1 0 I I #
loop $-1 $-1 $1069 $1037 #
coedge $-1 $1041 $1039 $1045 $1074 reversed $1003 $-1 #
coedge $-1 $1054 $1046 $1039 $1070 forward $1067 $-1 #
edge $-1 $1076 $1059 $1069 $1083 forward #
vertex $-1 $1074 $1084 #
straight-curve $-1 -41.761708200662468 -44.50609843091604 0 0 0 -1 I I #
straight-curve $-1 -53.895687734611045 35.5020387341347 0 0 0 -1 I I #
edge $-1 $1071 $1076 $1068 $1085 forward #
coedge $-1 $1046 $1054 $1048 $1077 forward $1067 $-1 #
vertex $-1 $1047 $1086 #
edge $-1 $1056 $1050 $1048 $1087 forward #
point $-1 -53.895687734611045 -35.5020387341347 -7.8054212239319991 #
point $-1 -53.895687734611045 -35.5020387341347 7.8054212239319991 #
point $-1 -41.761708200662468 -35.5020387341347 7.8054212239319991 #
point $-1 -38.284845286747043 -44.50609843091604 -7.8054212239319991 #
straight-curve $-1 -40.023276743704756 -44.50609843091604 -7.8054212239319991 -1 0 0 I I #
straight-curve $-1 -41.761708200662468 -35.5020387341347 0 0 0 1 I I #
point $-1 -41.761708200662468 -44.50609843091604 -7.8054212239319991 #
straight-curve $-1 -41.761708200662468 -40.00406858252537 -7.8054212239319991 0 1 0 I I #
point $-1 -41.761708200662468 -35.5020387341347 -7.8054212239319991 #
straight-curve $-1 -53.895687734611045 -35.5020387341347 0 0 0 -1 I I #
End-of-ACIS-data 