300 0 10 0           
7 Unknown 11 ACIS 3.0 NT 24 Fri Oct 30 15:47:10 1998 
-1 9.9999999999999995e-007 1e-010 
body $10 $11 $-1 $12 #
body $13 $14 $-1 $15 #
body $16 $17 $-1 $18 #
body $19 $20 $-1 $21 #
body $22 $23 $-1 $24 #
body $25 $26 $-1 $27 #
body $28 $29 $-1 $30 #
body $31 $32 $-1 $33 #
body $34 $35 $-1 $36 #
body $37 $38 $-1 $39 #
display_attribute-st-attrib $-1 $40 $-1 $0 1 #
lump $-1 $-1 $41 $0 #
transform $-1 1 0 0 0 1 0 0 0 1 57.94976653340251 35.403527980862393 12.855239587496648 1 rotate no_reflect no_shear #
display_attribute-st-attrib $-1 $42 $-1 $1 1 #
lump $-1 $-1 $43 $1 #
transform $-1 1 0 0 0 1 0 0 0 1 3.1886031601116671 5.7565988066069167 12.855239587496648 1 rotate no_reflect no_shear #
display_attribute-st-attrib $-1 $44 $-1 $2 1 #
lump $-1 $-1 $45 $2 #
transform $-1 0.65605901945558964 0 0.75470958851134928 0 1 0 -0.75470958851134928 0 0.65605901945558964 -87.470488909505946 18.960153847040033 91.6727665808897 1 rotate no_reflect no_shear #
display_attribute-st-attrib $-1 $46 $-1 $3 1 #
lump $-1 $-1 $47 $3 #
transform $-1 0.65605901945558964 0 0.75470958851134928 0 -1 0 0.75470958851134928 0 -0.65605901945558964 5.6017371710207273 14.491980106744315 19.610140838282767 1 rotate no_reflect no_shear #
display_attribute-st-attrib $-1 $48 $-1 $4 1 #
lump $-1 $-1 $49 $4 #
transform $-1 0.65605901945558964 0 0.75470958851134928 0 -1 0 0.75470958851134928 0 -0.65605901945558964 5.6017371710207273 18.960153847040033 19.610140838282767 1 rotate no_reflect no_shear #
display_attribute-st-attrib $-1 $50 $-1 $5 1 #
lump $-1 $-1 $51 $5 #
transform $-1 0.65605901945558964 0 0.75470958851134928 0 -1 0 0.75470958851134928 0 -0.65605901945558964 5.6017371710207273 23.428327587335751 19.610140838282767 1 rotate no_reflect no_shear #
display_attribute-st-attrib $-1 $52 $-1 $6 1 #
lump $-1 $-1 $53 $6 #
transform $-1 0.74314481823134659 0 -0.66913061440640931 0 1 0 0.66913061440640931 0 0.74314481823134659 107.32132140318346 14.664475430245135 183.90519744737574 1 rotate no_reflect no_shear #
display_attribute-st-attrib $-1 $54 $-1 $7 1 #
lump $-1 $-1 $55 $7 #
transform $-1 0.74314481823134659 0 -0.66913061440640931 0 -1 0 -0.66913061440640931 0 -0.74314481823134659 111.63929995915521 12.773708740026354 21.619549132868322 1 rotate no_reflect no_shear #
display_attribute-st-attrib $-1 $56 $-1 $8 1 #
lump $-1 $-1 $57 $8 #
transform $-1 0.74314481823134659 0 -0.66913061440640931 0 -1 0 -0.66913061440640931 0 -0.74314481823134659 111.63929995915521 14.664475430245135 21.619549132868322 1 rotate no_reflect no_shear #
display_attribute-st-attrib $-1 $58 $-1 $9 1 #
lump $-1 $-1 $59 $9 #
transform $-1 0.74314481823134659 0 -0.66913061440640931 0 -1 0 -0.66913061440640931 0 -0.74314481823134659 111.63929995915521 16.555242120463916 21.619549132868322 1 rotate no_reflect no_shear #
id_attribute-st-attrib $-1 $-1 $10 $0 3172 #
shell $-1 $-1 $-1 $60 $-1 $11 #
id_attribute-st-attrib $-1 $-1 $13 $1 3177 #
shell $-1 $-1 $-1 $61 $-1 $14 #
id_attribute-st-attrib $-1 $-1 $16 $2 3191 #
shell $-1 $-1 $-1 $62 $-1 $17 #
id_attribute-st-attrib $-1 $-1 $19 $3 3199 #
shell $-1 $-1 $-1 $63 $-1 $20 #
id_attribute-st-attrib $-1 $-1 $22 $4 3208 #
shell $-1 $-1 $-1 $64 $-1 $23 #
id_attribute-st-attrib $-1 $-1 $25 $5 3218 #
shell $-1 $-1 $-1 $65 $-1 $26 #
id_attribute-st-attrib $-1 $-1 $28 $6 3236 #
shell $-1 $-1 $-1 $66 $-1 $29 #
id_attribute-st-attrib $-1 $-1 $31 $7 3248 #
shell $-1 $-1 $-1 $67 $-1 $32 #
id_attribute-st-attrib $-1 $-1 $34 $8 3261 #
shell $-1 $-1 $-1 $68 $-1 $35 #
id_attribute-st-attrib $-1 $-1 $37 $9 3275 #
shell $-1 $-1 $-1 $69 $-1 $38 #
face $-1 $70 $71 $41 $-1 $72 forward single #
face $-1 $73 $74 $43 $-1 $75 forward single #
face $-1 $76 $77 $45 $-1 $78 forward single #
face $-1 $79 $80 $47 $-1 $81 forward single #
face $-1 $82 $83 $49 $-1 $84 forward single #
face $-1 $85 $86 $51 $-1 $87 forward single #
face $-1 $88 $89 $53 $-1 $90 forward single #
face $-1 $91 $92 $55 $-1 $93 forward single #
face $-1 $94 $95 $57 $-1 $96 forward single #
face $-1 $97 $98 $59 $-1 $99 forward single #
face $-1 $100 $101 $41 $-1 $102 reversed single #
loop $-1 $-1 $103 $60 #
plane-surface $-1 0 0 12.855239587496648 0 0 1 1 0 0 forward_v I I I I #
face $-1 $104 $105 $43 $-1 $106 reversed single #
loop $-1 $-1 $107 $61 #
plane-surface $-1 0 0 12.855239587496648 0 0 1 1 0 0 forward_v I I I I #
face $-1 $108 $109 $45 $-1 $110 reversed single #
loop $-1 $-1 $111 $62 #
plane-surface $-1 0 0 115.89953306680502 0 0 1 1 0 0 forward_v I I I I #
face $-1 $112 $113 $47 $-1 $114 forward single #
loop $-1 $115 $116 $63 #
cone-surface $-1 0 0 -1.0601519821771905 0 0 1 1 0 0 1 I I 0 1 forward I I I I #
face $-1 $117 $118 $49 $-1 $119 forward single #
loop $-1 $120 $121 $64 #
cone-surface $-1 0 0 -1.0601519821771905 0 0 1 1 0 0 1 I I 0 1 forward I I I I #
face $-1 $122 $123 $51 $-1 $124 forward single #
loop $-1 $125 $126 $65 #
cone-surface $-1 0 0 -1.0601519821771905 0 0 1 1 0 0 1 I I 0 1 forward I I I I #
face $-1 $127 $128 $53 $-1 $129 reversed single #
loop $-1 $-1 $130 $66 #
plane-surface $-1 0 0 115.89953306680502 0 0 1 1 0 0 forward_v I I I I #
face $-1 $131 $132 $55 $-1 $133 forward single #
loop $-1 $134 $135 $67 #
cone-surface $-1 0 0 -1.0314569536423832 0 0 1 0.5 0 0 1 I I 0 1 forward I I I I #
face $-1 $136 $137 $57 $-1 $138 forward single #
loop $-1 $139 $140 $68 #
cone-surface $-1 0 0 -1.0314569536423832 0 0 1 0.5 0 0 1 I I 0 1 forward I I I I #
face $-1 $141 $142 $59 $-1 $143 forward single #
loop $-1 $144 $145 $69 #
cone-surface $-1 0 0 -1.0314569536423832 0 0 1 0.5 0 0 1 I I 0 1 forward I I I I #
face $-1 $146 $147 $41 $-1 $148 reversed single #
loop $-1 $-1 $149 $70 #
plane-surface $-1 0 0 -12.855239587496648 0 0 1 1 0 0 forward_v I I I I #
coedge $-1 $150 $151 $152 $153 forward $71 $-1 #
face $-1 $154 $155 $43 $-1 $156 reversed single #
loop $-1 $-1 $157 $73 #
plane-surface $-1 0 0 -12.855239587496648 0 0 1 1 0 0 forward_v I I I I #
coedge $-1 $158 $159 $160 $161 forward $74 $-1 #
face $-1 $162 $163 $45 $-1 $164 reversed single #
loop $-1 $-1 $165 $76 #
plane-surface $-1 0 0 -115.89953306680502 0 0 1 1 0 0 forward_v I I I I #
coedge $-1 $166 $167 $168 $169 forward $77 $-1 #
face $-1 $-1 $170 $47 $-1 $171 forward single #
loop $-1 $-1 $172 $79 #
plane-surface $-1 0 0 -1.6203039643543811 0 0 -1 -1 0 0 forward_v I I I I #
loop $-1 $-1 $173 $63 #
coedge $-1 $116 $116 $172 $174 reversed $80 $-1 #
face $-1 $-1 $175 $49 $-1 $176 forward single #
loop $-1 $-1 $177 $82 #
plane-surface $-1 0 0 -1.6203039643543811 0 0 -1 -1 0 0 forward_v I I I I #
loop $-1 $-1 $178 $64 #
coedge $-1 $121 $121 $177 $179 reversed $83 $-1 #
face $-1 $-1 $180 $51 $-1 $181 forward single #
loop $-1 $-1 $182 $85 #
plane-surface $-1 0 0 -1.6203039643543811 0 0 -1 -1 0 0 forward_v I I I I #
loop $-1 $-1 $183 $65 #
coedge $-1 $126 $126 $182 $184 reversed $86 $-1 #
face $-1 $185 $186 $53 $-1 $187 reversed single #
loop $-1 $-1 $188 $88 #
plane-surface $-1 0 0 -115.89953306680502 0 0 1 1 0 0 forward_v I I I I #
coedge $-1 $189 $190 $191 $192 forward $89 $-1 #
face $-1 $-1 $193 $55 $-1 $194 forward single #
loop $-1 $-1 $195 $91 #
plane-surface $-1 0 0 -1.8129139072847682 0 0 -1 -1 0 0 forward_v I I I I #
loop $-1 $-1 $196 $67 #
coedge $-1 $135 $135 $195 $197 reversed $92 $-1 #
face $-1 $-1 $198 $57 $-1 $199 forward single #
loop $-1 $-1 $200 $94 #
plane-surface $-1 0 0 -1.8129139072847682 0 0 -1 -1 0 0 forward_v I I I I #
loop $-1 $-1 $201 $68 #
coedge $-1 $140 $140 $200 $202 reversed $95 $-1 #
face $-1 $-1 $203 $59 $-1 $204 forward single #
loop $-1 $-1 $205 $97 #
plane-surface $-1 0 0 -1.8129139072847682 0 0 -1 -1 0 0 forward_v I I I I #
loop $-1 $-1 $206 $69 #
coedge $-1 $145 $145 $205 $207 reversed $98 $-1 #
face $-1 $208 $209 $41 $-1 $210 reversed single #
loop $-1 $-1 $211 $100 #
plane-surface $-1 0 -35.403527980862393 0 0 1 0 0 0 1 forward_v I I I I #
coedge $-1 $212 $213 $214 $215 forward $101 $-1 #
coedge $-1 $216 $103 $217 $218 forward $71 $-1 #
coedge $-1 $103 $216 $219 $220 forward $71 $-1 #
coedge $-1 $221 $222 $103 $153 reversed $223 $-1 #
edge $-1 $224 $225 $152 $226 forward #
face $-1 $227 $228 $43 $-1 $229 reversed single #
loop $-1 $-1 $230 $104 #
plane-surface $-1 0 -5.7565988066069167 0 0 1 0 0 0 1 forward_v I I I I #
coedge $-1 $231 $232 $233 $234 forward $105 $-1 #
coedge $-1 $235 $107 $236 $237 forward $74 $-1 #
coedge $-1 $107 $235 $238 $239 forward $74 $-1 #
coedge $-1 $240 $241 $107 $161 reversed $242 $-1 #
edge $-1 $243 $244 $160 $245 forward #
face $-1 $246 $247 $45 $-1 $248 reversed single #
loop $-1 $-1 $249 $108 #
plane-surface $-1 0 -7.4469562338262012 0 0 1 0 0 0 1 forward_v I I I I #
coedge $-1 $250 $251 $252 $253 forward $109 $-1 #
coedge $-1 $254 $111 $255 $256 forward $77 $-1 #
coedge $-1 $111 $254 $257 $258 forward $77 $-1 #
coedge $-1 $259 $260 $111 $169 reversed $261 $-1 #
edge $-1 $262 $263 $168 $264 forward #
loop $-1 $265 $266 $112 #
cone-surface $-1 0 0 0 0 0 1 0.5 0 0 1 I I -0.70710678118654746 0.70710678118654746 forward I I I I #
coedge $-1 $172 $172 $116 $174 forward $113 $-1 #
coedge $-1 $173 $173 $266 $267 forward $115 $-1 #
edge $-1 $268 $268 $172 $269 forward #
loop $-1 $270 $271 $117 #
cone-surface $-1 0 0 0 0 0 1 0.5 0 0 1 I I -0.70710678118654746 0.70710678118654746 forward I I I I #
coedge $-1 $177 $177 $121 $179 forward $118 $-1 #
coedge $-1 $178 $178 $271 $272 forward $120 $-1 #
edge $-1 $273 $273 $177 $274 forward #
loop $-1 $275 $276 $122 #
cone-surface $-1 0 0 0 0 0 1 0.5 0 0 1 I I -0.70710678118654746 0.70710678118654746 forward I I I I #
coedge $-1 $182 $182 $126 $184 forward $123 $-1 #
coedge $-1 $183 $183 $276 $277 forward $125 $-1 #
edge $-1 $278 $278 $182 $279 forward #
face $-1 $280 $281 $53 $-1 $282 reversed single #
loop $-1 $-1 $283 $127 #
plane-surface $-1 0 -3.1512778170313016 0 0 1 0 0 0 1 forward_v I I I I #
coedge $-1 $284 $285 $286 $287 forward $128 $-1 #
coedge $-1 $288 $130 $289 $290 forward $89 $-1 #
coedge $-1 $130 $288 $291 $292 forward $89 $-1 #
coedge $-1 $293 $294 $130 $192 reversed $295 $-1 #
edge $-1 $296 $297 $191 $298 forward #
loop $-1 $299 $300 $131 #
cone-surface $-1 0 0 0 0 0 1 0.25 0 0 1 I I -0.70710678118654746 0.70710678118654746 forward I I I I #
coedge $-1 $195 $195 $135 $197 forward $132 $-1 #
coedge $-1 $196 $196 $300 $301 forward $134 $-1 #
edge $-1 $302 $302 $195 $303 forward #
loop $-1 $304 $305 $136 #
cone-surface $-1 0 0 0 0 0 1 0.25 0 0 1 I I -0.70710678118654746 0.70710678118654746 forward I I I I #
coedge $-1 $200 $200 $140 $202 forward $137 $-1 #
coedge $-1 $201 $201 $305 $306 forward $139 $-1 #
edge $-1 $307 $307 $200 $308 forward #
loop $-1 $309 $310 $141 #
cone-surface $-1 0 0 0 0 0 1 0.25 0 0 1 I I -0.70710678118654746 0.70710678118654746 forward I I I I #
coedge $-1 $205 $205 $145 $207 forward $142 $-1 #
coedge $-1 $206 $206 $310 $311 forward $144 $-1 #
edge $-1 $312 $312 $205 $313 forward #
face $-1 $314 $315 $41 $-1 $316 reversed single #
loop $-1 $-1 $317 $146 #
plane-surface $-1 -57.94976653340251 0 0 1 0 0 0 0 -1 forward_v I I I I #
coedge $-1 $318 $219 $319 $320 forward $147 $-1 #
coedge $-1 $321 $149 $318 $322 forward $101 $-1 #
coedge $-1 $149 $321 $323 $324 forward $101 $-1 #
coedge $-1 $222 $221 $149 $215 reversed $223 $-1 #
edge $-1 $325 $326 $214 $327 forward #
coedge $-1 $151 $150 $328 $329 forward $71 $-1 #
coedge $-1 $330 $331 $150 $218 reversed $315 $-1 #
edge $-1 $225 $332 $217 $333 forward #
coedge $-1 $211 $334 $151 $220 reversed $147 $-1 #
edge $-1 $335 $224 $219 $336 forward #
coedge $-1 $214 $152 $334 $337 forward $223 $-1 #
coedge $-1 $152 $214 $330 $338 reversed $223 $-1 #
loop $-1 $-1 $221 $314 #
vertex $-1 $153 $339 #
vertex $-1 $153 $340 #
straight-curve $-1 57.94976653340251 0 12.855239587496648 0 1 0 I I #
face $-1 $341 $342 $43 $-1 $343 reversed single #
loop $-1 $-1 $344 $154 #
plane-surface $-1 -3.1886031601116671 0 0 1 0 0 0 0 -1 forward_v I I I I #
coedge $-1 $345 $238 $346 $347 forward $155 $-1 #
coedge $-1 $348 $157 $345 $349 forward $105 $-1 #
coedge $-1 $157 $348 $350 $351 forward $105 $-1 #
coedge $-1 $241 $240 $157 $234 reversed $242 $-1 #
edge $-1 $352 $353 $233 $354 forward #
coedge $-1 $159 $158 $355 $356 forward $74 $-1 #
coedge $-1 $357 $358 $158 $237 reversed $342 $-1 #
edge $-1 $244 $359 $236 $360 forward #
coedge $-1 $230 $361 $159 $239 reversed $155 $-1 #
edge $-1 $362 $243 $238 $363 forward #
coedge $-1 $233 $160 $361 $364 forward $242 $-1 #
coedge $-1 $160 $233 $357 $365 reversed $242 $-1 #
loop $-1 $-1 $240 $341 #
vertex $-1 $161 $366 #
vertex $-1 $161 $367 #
straight-curve $-1 3.1886031601116671 0 12.855239587496648 0 1 0 I I #
face $-1 $368 $369 $45 $-1 $370 reversed single #
loop $-1 $-1 $371 $162 #
plane-surface $-1 -231.79906613361004 0 0 1 0 0 0 0 -1 forward_v I I I I #
coedge $-1 $372 $257 $373 $374 forward $163 $-1 #
coedge $-1 $375 $165 $372 $376 forward $109 $-1 #
coedge $-1 $165 $375 $377 $378 forward $109 $-1 #
coedge $-1 $260 $259 $165 $253 reversed $261 $-1 #
edge $-1 $379 $380 $252 $381 forward #
coedge $-1 $167 $166 $382 $383 forward $77 $-1 #
coedge $-1 $384 $385 $166 $256 reversed $369 $-1 #
edge $-1 $263 $386 $255 $387 forward #
coedge $-1 $249 $388 $167 $258 reversed $163 $-1 #
edge $-1 $389 $262 $257 $390 forward #
coedge $-1 $252 $168 $388 $391 forward $261 $-1 #
coedge $-1 $168 $252 $384 $392 reversed $261 $-1 #
loop $-1 $-1 $259 $368 #
vertex $-1 $169 $393 #
vertex $-1 $169 $394 #
straight-curve $-1 231.79906613361004 0 115.89953306680502 0 1 0 I I #
loop $-1 $-1 $395 $112 #
coedge $-1 $266 $266 $173 $267 reversed $170 $-1 #
edge $-1 $396 $396 $266 $397 forward #
vertex $-1 $174 $398 #
ellipse-curve $-1 0 0 -1.6203039643543811 0 0 -1 1 0 0 1 I I #
loop $-1 $-1 $399 $117 #
coedge $-1 $271 $271 $178 $272 reversed $175 $-1 #
edge $-1 $400 $400 $271 $401 forward #
vertex $-1 $179 $402 #
ellipse-curve $-1 0 0 -1.6203039643543811 0 0 -1 1 0 0 1 I I #
loop $-1 $-1 $403 $122 #
coedge $-1 $276 $276 $183 $277 reversed $180 $-1 #
edge $-1 $404 $404 $276 $405 forward #
vertex $-1 $184 $406 #
ellipse-curve $-1 0 0 -1.6203039643543811 0 0 -1 1 0 0 1 I I #
face $-1 $407 $408 $53 $-1 $409 reversed single #
loop $-1 $-1 $410 $185 #
plane-surface $-1 -231.79906613361004 0 0 1 0 0 0 0 -1 forward_v I I I I #
coedge $-1 $411 $291 $412 $413 forward $186 $-1 #
coedge $-1 $414 $188 $411 $415 forward $128 $-1 #
coedge $-1 $188 $414 $416 $417 forward $128 $-1 #
coedge $-1 $294 $293 $188 $287 reversed $295 $-1 #
edge $-1 $418 $419 $286 $420 forward #
coedge $-1 $190 $189 $421 $422 forward $89 $-1 #
coedge $-1 $423 $424 $189 $290 reversed $408 $-1 #
edge $-1 $297 $425 $289 $426 forward #
coedge $-1 $283 $427 $190 $292 reversed $186 $-1 #
edge $-1 $428 $296 $291 $429 forward #
coedge $-1 $286 $191 $427 $430 forward $295 $-1 #
coedge $-1 $191 $286 $423 $431 reversed $295 $-1 #
loop $-1 $-1 $293 $407 #
vertex $-1 $192 $432 #
vertex $-1 $192 $433 #
straight-curve $-1 231.79906613361004 0 115.89953306680502 0 1 0 I I #
loop $-1 $-1 $434 $131 #
coedge $-1 $300 $300 $196 $301 reversed $193 $-1 #
edge $-1 $435 $435 $300 $436 forward #
vertex $-1 $197 $437 #
ellipse-curve $-1 0 0 -1.8129139072847682 0 0 -1 0.5 0 0 1 I I #
loop $-1 $-1 $438 $136 #
coedge $-1 $305 $305 $201 $306 reversed $198 $-1 #
edge $-1 $439 $439 $305 $440 forward #
vertex $-1 $202 $441 #
ellipse-curve $-1 0 0 -1.8129139072847682 0 0 -1 0.5 0 0 1 I I #
loop $-1 $-1 $442 $141 #
coedge $-1 $310 $310 $206 $311 reversed $203 $-1 #
edge $-1 $443 $443 $310 $444 forward #
vertex $-1 $207 $445 #
ellipse-curve $-1 0 0 -1.8129139072847682 0 0 -1 0.5 0 0 1 I I #
face $-1 $-1 $223 $41 $-1 $446 reversed single #
loop $-1 $-1 $330 $208 #
plane-surface $-1 0 35.403527980862393 0 0 -1 0 0 0 -1 forward_v I I I I #
coedge $-1 $447 $328 $331 $448 forward $209 $-1 #
coedge $-1 $334 $211 $212 $322 reversed $147 $-1 #
coedge $-1 $328 $447 $211 $320 reversed $209 $-1 #
edge $-1 $335 $449 $319 $450 forward #
coedge $-1 $213 $212 $447 $451 forward $101 $-1 #
edge $-1 $326 $449 $318 $452 forward #
coedge $-1 $331 $330 $213 $324 reversed $315 $-1 #
edge $-1 $453 $325 $323 $454 forward #
vertex $-1 $215 $455 #
vertex $-1 $337 $456 #
straight-curve $-1 57.94976653340251 0 -12.855239587496648 0 -1 0 I I #
coedge $-1 $317 $319 $216 $329 reversed $209 $-1 #
edge $-1 $332 $335 $328 $457 forward #
coedge $-1 $323 $217 $222 $338 forward $315 $-1 #
coedge $-1 $217 $323 $317 $448 reversed $315 $-1 #
vertex $-1 $218 $458 #
straight-curve $-1 0 35.403527980862393 12.855239587496648 -1 0 0 I I #
coedge $-1 $219 $318 $221 $337 reversed $147 $-1 #
vertex $-1 $329 $459 #
straight-curve $-1 0 -35.403527980862393 12.855239587496648 1 0 0 I I #
edge $-1 $224 $326 $221 $460 forward #
edge $-1 $225 $325 $222 $461 forward #
point $-1 57.94976653340251 -35.403527980862393 12.855239587496648 #
point $-1 57.94976653340251 35.403527980862393 12.855239587496648 #
face $-1 $-1 $242 $43 $-1 $462 reversed single #
loop $-1 $-1 $357 $227 #
plane-surface $-1 0 5.7565988066069167 0 0 -1 0 0 0 -1 forward_v I I I I #
coedge $-1 $463 $355 $358 $464 forward $228 $-1 #
coedge $-1 $361 $230 $231 $349 reversed $155 $-1 #
coedge $-1 $355 $463 $230 $347 reversed $228 $-1 #
edge $-1 $362 $465 $346 $466 forward #
coedge $-1 $232 $231 $463 $467 forward $105 $-1 #
edge $-1 $353 $465 $345 $468 forward #
coedge $-1 $358 $357 $232 $351 reversed $342 $-1 #
edge $-1 $469 $352 $350 $470 forward #
vertex $-1 $234 $471 #
vertex $-1 $364 $472 #
straight-curve $-1 3.1886031601116671 0 -12.855239587496648 0 -1 0 I I #
coedge $-1 $344 $346 $235 $356 reversed $228 $-1 #
edge $-1 $359 $362 $355 $473 forward #
coedge $-1 $350 $236 $241 $365 forward $342 $-1 #
coedge $-1 $236 $350 $344 $464 reversed $342 $-1 #
vertex $-1 $237 $474 #
straight-curve $-1 0 5.7565988066069167 12.855239587496648 -1 0 0 I I #
coedge $-1 $238 $345 $240 $364 reversed $155 $-1 #
vertex $-1 $356 $475 #
straight-curve $-1 0 -5.7565988066069167 12.855239587496648 1 0 0 I I #
edge $-1 $243 $353 $240 $476 forward #
edge $-1 $244 $352 $241 $477 forward #
point $-1 3.1886031601116671 -5.7565988066069167 12.855239587496648 #
point $-1 3.1886031601116671 5.7565988066069167 12.855239587496648 #
face $-1 $-1 $261 $45 $-1 $478 reversed single #
loop $-1 $-1 $384 $246 #
plane-surface $-1 0 7.4469562338262012 0 0 -1 0 0 0 -1 forward_v I I I I #
coedge $-1 $479 $382 $385 $480 forward $247 $-1 #
coedge $-1 $388 $249 $250 $376 reversed $163 $-1 #
coedge $-1 $382 $479 $249 $374 reversed $247 $-1 #
edge $-1 $389 $481 $373 $482 forward #
coedge $-1 $251 $250 $479 $483 forward $109 $-1 #
edge $-1 $380 $481 $372 $484 forward #
coedge $-1 $385 $384 $251 $378 reversed $369 $-1 #
edge $-1 $485 $379 $377 $486 forward #
vertex $-1 $253 $487 #
vertex $-1 $391 $488 #
straight-curve $-1 231.79906613361004 0 -115.89953306680502 0 -1 0 I I #
coedge $-1 $371 $373 $254 $383 reversed $247 $-1 #
edge $-1 $386 $389 $382 $489 forward #
coedge $-1 $377 $255 $260 $392 forward $369 $-1 #
coedge $-1 $255 $377 $371 $480 reversed $369 $-1 #
vertex $-1 $256 $490 #
straight-curve $-1 0 7.4469562338262012 115.89953306680502 -1 0 0 I I #
coedge $-1 $257 $372 $259 $391 reversed $163 $-1 #
vertex $-1 $383 $491 #
straight-curve $-1 0 -7.4469562338262012 115.89953306680502 1 0 0 I I #
edge $-1 $262 $380 $259 $492 forward #
edge $-1 $263 $379 $260 $493 forward #
point $-1 231.79906613361004 -7.4469562338262012 115.89953306680502 #
point $-1 231.79906613361004 7.4469562338262012 115.89953306680502 #
coedge $-1 $395 $395 $-1 $494 reversed $265 $-1 #
vertex $-1 $267 $495 #
ellipse-curve $-1 0 0 -0.5 0 0 -1 1 0 0 1 I I #
point $-1 1 0 -1.6203039643543811 #
coedge $-1 $399 $399 $-1 $496 reversed $270 $-1 #
vertex $-1 $272 $497 #
ellipse-curve $-1 0 0 -0.5 0 0 -1 1 0 0 1 I I #
point $-1 1 0 -1.6203039643543811 #
coedge $-1 $403 $403 $-1 $498 reversed $275 $-1 #
vertex $-1 $277 $499 #
ellipse-curve $-1 0 0 -0.5 0 0 -1 1 0 0 1 I I #
point $-1 1 0 -1.6203039643543811 #
face $-1 $-1 $295 $53 $-1 $500 reversed single #
loop $-1 $-1 $423 $280 #
plane-surface $-1 0 3.1512778170313016 0 0 -1 0 0 0 -1 forward_v I I I I #
coedge $-1 $501 $421 $424 $502 forward $281 $-1 #
coedge $-1 $427 $283 $284 $415 reversed $186 $-1 #
coedge $-1 $421 $501 $283 $413 reversed $281 $-1 #
edge $-1 $428 $503 $412 $504 forward #
coedge $-1 $285 $284 $501 $505 forward $128 $-1 #
edge $-1 $419 $503 $411 $506 forward #
coedge $-1 $424 $423 $285 $417 reversed $408 $-1 #
edge $-1 $507 $418 $416 $508 forward #
vertex $-1 $287 $509 #
vertex $-1 $430 $510 #
straight-curve $-1 231.79906613361004 0 -115.89953306680502 0 -1 0 I I #
coedge $-1 $410 $412 $288 $422 reversed $281 $-1 #
edge $-1 $425 $428 $421 $511 forward #
coedge $-1 $416 $289 $294 $431 forward $408 $-1 #
coedge $-1 $289 $416 $410 $502 reversed $408 $-1 #
vertex $-1 $290 $512 #
straight-curve $-1 0 3.1512778170313016 115.89953306680502 -1 0 0 I I #
coedge $-1 $291 $411 $293 $430 reversed $186 $-1 #
vertex $-1 $422 $513 #
straight-curve $-1 0 -3.1512778170313016 115.89953306680502 1 0 0 I I #
edge $-1 $296 $419 $293 $514 forward #
edge $-1 $297 $418 $294 $515 forward #
point $-1 231.79906613361004 -3.1512778170313016 115.89953306680502 #
point $-1 231.79906613361004 3.1512778170313016 115.89953306680502 #
coedge $-1 $434 $434 $-1 $516 reversed $299 $-1 #
vertex $-1 $301 $517 #
ellipse-curve $-1 0 0 -0.25 0 0 -1 0.5 0 0 1 I I #
point $-1 0.5 0 -1.8129139072847682 #
coedge $-1 $438 $438 $-1 $518 reversed $304 $-1 #
vertex $-1 $306 $519 #
ellipse-curve $-1 0 0 -0.25 0 0 -1 0.5 0 0 1 I I #
point $-1 0.5 0 -1.8129139072847682 #
coedge $-1 $442 $442 $-1 $520 reversed $309 $-1 #
vertex $-1 $311 $521 #
ellipse-curve $-1 0 0 -0.25 0 0 -1 0.5 0 0 1 I I #
point $-1 0.5 0 -1.8129139072847682 #
plane-surface $-1 57.94976653340251 0 0 -1 0 0 0 0 1 forward_v I I I I #
coedge $-1 $319 $317 $321 $451 reversed $209 $-1 #
edge $-1 $332 $453 $331 $522 forward #
vertex $-1 $451 $523 #
straight-curve $-1 -57.94976653340251 -35.403527980862393 0 0 0 -1 I I #
edge $-1 $449 $453 $447 $524 forward #
straight-curve $-1 0 -35.403527980862393 -12.855239587496648 -1 0 0 I I #
vertex $-1 $324 $525 #
straight-curve $-1 0 35.403527980862393 -12.855239587496648 1 0 0 I I #
point $-1 57.94976653340251 35.403527980862393 -12.855239587496648 #
point $-1 57.94976653340251 -35.403527980862393 -12.855239587496648 #
straight-curve $-1 -57.94976653340251 0 12.855239587496648 0 -1 0 I I #
point $-1 -57.94976653340251 35.403527980862393 12.855239587496648 #
point $-1 -57.94976653340251 -35.403527980862393 12.855239587496648 #
straight-curve $-1 57.94976653340251 -35.403527980862393 0 0 0 -1 I I #
straight-curve $-1 57.94976653340251 35.403527980862393 0 0 0 -1 I I #
plane-surface $-1 3.1886031601116671 0 0 -1 0 0 0 0 1 forward_v I I I I #
coedge $-1 $346 $344 $348 $467 reversed $228 $-1 #
edge $-1 $359 $469 $358 $526 forward #
vertex $-1 $467 $527 #
straight-curve $-1 -3.1886031601116671 -5.7565988066069167 0 0 0 -1 I I #
edge $-1 $465 $469 $463 $528 forward #
straight-curve $-1 0 -5.7565988066069167 -12.855239587496648 -1 0 0 I I #
vertex $-1 $351 $529 #
straight-curve $-1 0 5.7565988066069167 -12.855239587496648 1 0 0 I I #
point $-1 3.1886031601116671 5.7565988066069167 -12.855239587496648 #
point $-1 3.1886031601116671 -5.7565988066069167 -12.855239587496648 #
straight-curve $-1 -3.1886031601116671 0 12.855239587496648 0 -1 0 I I #
point $-1 -3.1886031601116671 5.7565988066069167 12.855239587496648 #
point $-1 -3.1886031601116671 -5.7565988066069167 12.855239587496648 #
straight-curve $-1 3.1886031601116671 -5.7565988066069167 0 0 0 -1 I I #
straight-curve $-1 3.1886031601116671 5.7565988066069167 0 0 0 -1 I I #
plane-surface $-1 231.79906613361004 0 0 -1 0 0 0 0 1 forward_v I I I I #
coedge $-1 $373 $371 $375 $483 reversed $247 $-1 #
edge $-1 $386 $485 $385 $530 forward #
vertex $-1 $483 $531 #
straight-curve $-1 -231.79906613361004 -7.4469562338262012 0 0 0 -1 I I #
edge $-1 $481 $485 $479 $532 forward #
straight-curve $-1 0 -7.4469562338262012 -115.89953306680502 -1 0 0 I I #
vertex $-1 $378 $533 #
straight-curve $-1 0 7.4469562338262012 -115.89953306680502 1 0 0 I I #
point $-1 231.79906613361004 7.4469562338262012 -115.89953306680502 #
point $-1 231.79906613361004 -7.4469562338262012 -115.89953306680502 #
straight-curve $-1 -231.79906613361004 0 115.89953306680502 0 -1 0 I I #
point $-1 -231.79906613361004 7.4469562338262012 115.89953306680502 #
point $-1 -231.79906613361004 -7.4469562338262012 115.89953306680502 #
straight-curve $-1 231.79906613361004 -7.4469562338262012 0 0 0 -1 I I #
straight-curve $-1 231.79906613361004 7.4469562338262012 0 0 0 -1 I I #
edge $-1 $534 $534 $395 $-1 forward #
point $-1 1 0 -0.5 #
edge $-1 $535 $535 $399 $-1 forward #
point $-1 1 0 -0.5 #
edge $-1 $536 $536 $403 $-1 forward #
point $-1 1 0 -0.5 #
plane-surface $-1 231.79906613361004 0 0 -1 0 0 0 0 1 forward_v I I I I #
coedge $-1 $412 $410 $414 $505 reversed $281 $-1 #
edge $-1 $425 $507 $424 $537 forward #
vertex $-1 $505 $538 #
straight-curve $-1 -231.79906613361004 -3.1512778170313016 0 0 0 -1 I I #
edge $-1 $503 $507 $501 $539 forward #
straight-curve $-1 0 -3.1512778170313016 -115.89953306680502 -1 0 0 I I #
vertex $-1 $417 $540 #
straight-curve $-1 0 3.1512778170313016 -115.89953306680502 1 0 0 I I #
point $-1 231.79906613361004 3.1512778170313016 -115.89953306680502 #
point $-1 231.79906613361004 -3.1512778170313016 -115.89953306680502 #
straight-curve $-1 -231.79906613361004 0 115.89953306680502 0 -1 0 I I #
point $-1 -231.79906613361004 3.1512778170313016 115.89953306680502 #
point $-1 -231.79906613361004 -3.1512778170313016 115.89953306680502 #
straight-curve $-1 231.79906613361004 -3.1512778170313016 0 0 0 -1 I I #
straight-curve $-1 231.79906613361004 3.1512778170313016 0 0 0 -1 I I #
edge $-1 $541 $541 $434 $-1 forward #
point $-1 0.5 0 -0.25 #
edge $-1 $542 $542 $438 $-1 forward #
point $-1 0.5 0 -0.25 #
edge $-1 $543 $543 $442 $-1 forward #
point $-1 0.5 0 -0.25 #
straight-curve $-1 -57.94976653340251 35.403527980862393 0 0 0 -1 I I #
point $-1 -57.94976653340251 -35.403527980862393 -12.855239587496648 #
straight-curve $-1 -57.94976653340251 0 -12.855239587496648 0 1 0 I I #
point $-1 -57.94976653340251 35.403527980862393 -12.855239587496648 #
straight-curve $-1 -3.1886031601116671 5.7565988066069167 0 0 0 -1 I I #
point $-1 -3.1886031601116671 -5.7565988066069167 -12.855239587496648 #
straight-curve $-1 -3.1886031601116671 0 -12.855239587496648 0 1 0 I I #
point $-1 -3.1886031601116671 5.7565988066069167 -12.855239587496648 #
straight-curve $-1 -231.79906613361004 7.4469562338262012 0 0 0 -1 I I #
point $-1 -231.79906613361004 -7.4469562338262012 -115.89953306680502 #
straight-curve $-1 -231.79906613361004 0 -115.89953306680502 0 1 0 I I #
point $-1 -231.79906613361004 7.4469562338262012 -115.89953306680502 #
vertex $-1 $494 $544 #
vertex $-1 $496 $545 #
vertex $-1 $498 $546 #
straight-curve $-1 -231.79906613361004 3.1512778170313016 0 0 0 -1 I I #
point $-1 -231.79906613361004 -3.1512778170313016 -115.89953306680502 #
straight-curve $-1 -231.79906613361004 0 -115.89953306680502 0 1 0 I I #
point $-1 -231.79906613361004 3.1512778170313016 -115.89953306680502 #
vertex $-1 $516 $547 #
vertex $-1 $518 $548 #
vertex $-1 $520 $549 #
point $-1 0 0 0.5 #
point $-1 0 0 0.5 #
point $-1 0 0 0.5 #
point $-1 0 0 0.25 #
point $-1 0 0 0.25 #
point $-1 0 0 0.25 #
End-of-ACIS-data 