300 0 5 0           
7 Unknown 11 ACIS 3.0 NT 24 Fri Oct 30 14:21:43 1998 
-1 9.9999999999999995e-007 1e-010 
body $5 $6 $-1 $7 #
body $8 $9 $-1 $10 #
body $11 $12 $-1 $13 #
body $14 $15 $-1 $16 #
body $17 $18 $-1 $19 #
display_attribute-st-attrib $-1 $20 $-1 $0 2 #
lump $-1 $-1 $21 $0 #
transform $-1 1 0 0 0 1 0 0 0 1 77.115390484328742 52.289115796986735 18.952989269973809 1 rotate no_reflect no_shear #
display_attribute-st-attrib $-1 $22 $-1 $1 1 #
lump $-1 $-1 $23 $1 #
transform $-1 1 0 0 0 1 0 0 0 1 77.115390484328742 52.289115796986735 18.952989269973809 1 rotate no_reflect no_shear #
display_attribute-st-attrib $-1 $24 $-1 $2 3 #
lump $-1 $-1 $25 $2 #
transform $-1 1 0 0 0 1 0 0 0 1 77.115390484328742 52.289115796986735 18.952989269973809 1 rotate no_reflect no_shear #
display_attribute-st-attrib $-1 $26 $-1 $3 2 #
lump $-1 $-1 $27 $3 #
transform $-1 1 0 0 0 1 0 0 0 1 77.115390484328742 52.289115796986735 18.952989269973809 1 rotate no_reflect no_shear #
display_attribute-st-attrib $-1 $28 $-1 $4 1 #
lump $-1 $-1 $29 $4 #
transform $-1 1 0 0 0 1 0 0 0 1 77.115390484328742 52.289115796986735 18.952989269973809 1 rotate no_reflect no_shear #
id_attribute-st-attrib $-1 $-1 $5 $0 1515 #
shell $-1 $-1 $-1 $30 $-1 $6 #
id_attribute-st-attrib $-1 $-1 $8 $1 1523 #
shell $-1 $-1 $-1 $31 $-1 $9 #
id_attribute-st-attrib $-1 $-1 $11 $2 1536 #
shell $-1 $-1 $-1 $32 $-1 $12 #
id_attribute-st-attrib $-1 $-1 $14 $3 1543 #
shell $-1 $-1 $-1 $33 $-1 $15 #
id_attribute-st-attrib $-1 $-1 $17 $4 1551 #
shell $-1 $-1 $-1 $34 $-1 $18 #
face $-1 $35 $36 $21 $-1 $37 reversed single #
face $-1 $38 $39 $23 $-1 $40 forward single #
face $-1 $41 $42 $25 $-1 $43 reversed single #
face $-1 $44 $45 $27 $-1 $46 forward single #
face $-1 $47 $48 $29 $-1 $49 forward single #
face $-1 $50 $51 $21 $-1 $52 forward single #
loop $-1 $-1 $53 $30 #
plane-surface $-1 0 -52.289115796986735 0 0 1 0 0 0 1 forward_v I I I I #
face $-1 $54 $55 $23 $-1 $56 reversed single #
loop $-1 $-1 $57 $31 #
plane-surface $-1 0 -52.289115796986735 0 0 1 0 0 0 1 forward_v I I I I #
face $-1 $58 $59 $25 $-1 $60 reversed single #
loop $-1 $-1 $61 $32 #
plane-surface $-1 -57.407156499103792 64.834296681146782 198.57188391664684 -1 0 0 0 0.61566148304635926 0.78801074757464917 forward_v I I I I #
face $-1 $62 $63 $27 $-1 $64 forward single #
loop $-1 $65 $66 $33 #
cone-surface $-1 -71.484466488550183 46.457735308377337 13.500101059972701 0 -0.61566148304635926 -0.78801074757464917 1.5 0 0 1 I I 0 1 forward I I I I #
face $-1 $67 $68 $29 $-1 $69 forward single #
loop $-1 $70 $71 $34 #
cone-surface $-1 -63.038080494882351 46.457735308377337 13.500101059972701 0 -0.61566148304635926 -0.78801074757464917 1.5 0 0 1 I I 0 1 forward I I I I #
face $-1 $72 $73 $21 $-1 $74 reversed single #
loop $-1 $-1 $75 $35 #
plane-surface $-1 0 0 18.952989269973809 0 0 1 1 0 0 forward_v I I I I #
coedge $-1 $76 $77 $78 $79 reversed $36 $-1 #
face $-1 $80 $81 $23 $-1 $82 reversed single #
loop $-1 $-1 $83 $38 #
plane-surface $-1 0 0 -18.952989269973809 0 0 1 1 0 0 forward_v I I I I #
coedge $-1 $84 $85 $86 $87 forward $39 $-1 #
face $-1 $88 $89 $25 $-1 $90 reversed single #
loop $-1 $-1 $91 $41 #
plane-surface $-1 -67.261273491716267 -30.119654661415083 77.036370906513085 0 0.61566148304635926 0.78801074757464917 1 0 0 forward_v I I I I #
coedge $-1 $92 $93 $94 $95 reversed $42 $-1 #
face $-1 $-1 $96 $27 $-1 $97 forward single #
loop $-1 $98 $99 $44 #
cone-surface $-1 -71.484466488550183 44.197325539794591 10.606908549776637 0 -0.61566148304635926 -0.78801074757464917 0.75 0 0 1 I I -0.70710678118654757 0.70710678118654757 forward I I I I #
loop $-1 $-1 $100 $33 #
coedge $-1 $66 $66 $101 $102 reversed $45 $-1 #
face $-1 $-1 $103 $29 $-1 $104 forward single #
loop $-1 $105 $106 $47 #
cone-surface $-1 -63.038080494882351 44.197325539794591 10.606908549776637 0 -0.61566148304635926 -0.78801074757464917 0.75 0 0 1 I I -0.70710678118654757 0.70710678118654757 forward I I I I #
loop $-1 $-1 $107 $34 #
coedge $-1 $71 $71 $108 $109 reversed $48 $-1 #
face $-1 $110 $111 $21 $-1 $112 reversed single #
loop $-1 $-1 $113 $50 #
plane-surface $-1 0 0 -18.952989269973809 0 0 1 1 0 0 forward_v I I I I #
coedge $-1 $114 $115 $116 $117 forward $51 $-1 #
coedge $-1 $118 $53 $119 $120 reversed $36 $-1 #
coedge $-1 $53 $118 $121 $122 forward $36 $-1 #
coedge $-1 $123 $113 $53 $79 forward $73 $-1 #
edge $-1 $124 $125 $53 $126 forward #
face $-1 $127 $128 $23 $-1 $129 reversed single #
loop $-1 $-1 $130 $54 #
plane-surface $-1 -42.309206396015895 -67.221089023763639 0 0 1 0 0 0 1 forward_v I I I I #
coedge $-1 $131 $132 $85 $133 forward $55 $-1 #
coedge $-1 $134 $57 $135 $136 reversed $39 $-1 #
coedge $-1 $57 $134 $83 $133 reversed $39 $-1 #
coedge $-1 $137 $138 $57 $87 reversed $128 $-1 #
edge $-1 $139 $140 $86 $141 forward #
face $-1 $142 $143 $25 $-1 $144 forward single #
loop $-1 $-1 $145 $58 #
plane-surface $-1 -77.115390484328742 0 0 1 0 0 0 0 -1 forward_v I I I I #
coedge $-1 $146 $147 $148 $149 reversed $59 $-1 #
coedge $-1 $93 $61 $150 $151 reversed $42 $-1 #
coedge $-1 $61 $92 $146 $152 reversed $42 $-1 #
coedge $-1 $148 $153 $61 $95 forward $154 $-1 #
edge $-1 $155 $156 $94 $157 forward #
loop $-1 $-1 $101 $62 #
plane-surface $-1 -67.261273491716267 -30.119654661415083 77.036370906513085 0 0.61566148304635926 0.78801074757464917 1 0 0 forward_v I I I I #
loop $-1 $-1 $158 $44 #
coedge $-1 $99 $99 $100 $159 reversed $63 $-1 #
coedge $-1 $100 $100 $99 $159 forward $65 $-1 #
coedge $-1 $101 $101 $66 $102 forward $96 $-1 #
edge $-1 $160 $160 $101 $161 forward #
loop $-1 $-1 $108 $67 #
plane-surface $-1 -67.261273491716267 -30.119654661415083 77.036370906513085 0 0.61566148304635926 0.78801074757464917 1 0 0 forward_v I I I I #
loop $-1 $-1 $162 $47 #
coedge $-1 $106 $106 $107 $163 reversed $68 $-1 #
coedge $-1 $107 $107 $106 $163 forward $70 $-1 #
coedge $-1 $108 $108 $71 $109 forward $103 $-1 #
edge $-1 $164 $164 $108 $165 forward #
face $-1 $166 $167 $21 $-1 $168 reversed single #
loop $-1 $-1 $169 $72 #
plane-surface $-1 -77.115390484328742 0 0 1 0 0 0 0 -1 forward_v I I I I #
coedge $-1 $78 $170 $171 $172 forward $73 $-1 #
coedge $-1 $173 $75 $174 $175 forward $51 $-1 #
coedge $-1 $75 $173 $118 $176 forward $51 $-1 #
coedge $-1 $119 $177 $75 $117 reversed $178 $-1 #
edge $-1 $179 $180 $116 $181 forward #
coedge $-1 $77 $76 $115 $176 reversed $36 $-1 #
coedge $-1 $171 $116 $76 $120 forward $178 $-1 #
edge $-1 $179 $124 $119 $182 forward #
coedge $-1 $183 $184 $77 $122 reversed $111 $-1 #
edge $-1 $185 $125 $121 $186 forward #
coedge $-1 $170 $78 $184 $187 forward $73 $-1 #
vertex $-1 $120 $188 #
vertex $-1 $187 $189 #
straight-curve $-1 0 -52.289115796986735 -18.952989269973809 -1 0 0 I I #
face $-1 $190 $191 $23 $-1 $192 reversed single #
loop $-1 $-1 $86 $80 #
plane-surface $-1 -45.409000847650674 -59.755102410375187 0 1 0 0 0 0 -1 forward_v I I I I #
coedge $-1 $193 $194 $195 $196 forward $81 $-1 #
coedge $-1 $197 $83 $198 $199 forward $55 $-1 #
coedge $-1 $83 $197 $137 $200 forward $55 $-1 #
edge $-1 $139 $201 $83 $202 forward #
coedge $-1 $85 $84 $203 $204 forward $39 $-1 #
coedge $-1 $205 $206 $84 $136 forward $207 $-1 #
edge $-1 $208 $140 $135 $209 forward #
coedge $-1 $195 $86 $132 $200 reversed $128 $-1 #
coedge $-1 $86 $195 $205 $210 reversed $128 $-1 #
vertex $-1 $133 $211 #
vertex $-1 $210 $212 #
straight-curve $-1 -45.409000847650674 -52.289115796986735 0 0 0 1 I I #
face $-1 $-1 $154 $25 $-1 $213 reversed single #
loop $-1 $-1 $150 $88 #
plane-surface $-1 0 0 18.952989269973809 0 0 1 1 0 0 forward_v I I I I #
coedge $-1 $214 $215 $147 $216 forward $89 $-1 #
coedge $-1 $217 $91 $93 $152 forward $59 $-1 #
coedge $-1 $91 $217 $145 $216 reversed $59 $-1 #
coedge $-1 $218 $94 $91 $149 forward $154 $-1 #
edge $-1 $156 $219 $148 $220 forward #
coedge $-1 $221 $222 $92 $151 forward $143 $-1 #
edge $-1 $223 $155 $150 $224 forward #
edge $-1 $156 $223 $93 $225 forward #
coedge $-1 $94 $218 $221 $226 reversed $154 $-1 #
loop $-1 $-1 $148 $142 #
vertex $-1 $226 $227 #
vertex $-1 $95 $228 #
straight-curve $-1 -57.407156499103792 52.289115796986735 99.28594195832342 0 0 -1 I I #
coedge $-1 $158 $158 $-1 $229 reversed $98 $-1 #
edge $-1 $230 $230 $99 $231 forward #
vertex $-1 $102 $232 #
ellipse-curve $-1 -71.484466488550183 48.256398964675327 15.802285509487801 0 0.61566148304635926 0.78801074757464917 1.5 0 0 1 I I #
coedge $-1 $162 $162 $-1 $233 reversed $105 $-1 #
edge $-1 $234 $234 $106 $235 forward #
vertex $-1 $109 $236 #
ellipse-curve $-1 -63.038080494882351 48.256398964675327 15.802285509487801 0 0.61566148304635926 0.78801074757464917 1.5 0 0 1 I I #
face $-1 $-1 $178 $21 $-1 $237 reversed single #
loop $-1 $-1 $238 $110 #
plane-surface $-1 0 52.289115796986735 0 0 -1 0 0 0 -1 forward_v I I I I #
coedge $-1 $184 $183 $239 $240 forward $111 $-1 #
coedge $-1 $113 $123 $241 $242 forward $73 $-1 #
coedge $-1 $177 $119 $113 $172 reversed $178 $-1 #
edge $-1 $243 $124 $171 $244 forward #
coedge $-1 $115 $114 $183 $245 forward $51 $-1 #
coedge $-1 $238 $239 $114 $175 reversed $167 $-1 #
edge $-1 $180 $246 $174 $247 forward #
edge $-1 $185 $179 $118 $248 forward #
coedge $-1 $116 $171 $238 $249 reversed $178 $-1 #
loop $-1 $-1 $119 $166 #
vertex $-1 $117 $250 #
vertex $-1 $117 $251 #
straight-curve $-1 77.115390484328742 0 18.952989269973809 0 1 0 I I #
straight-curve $-1 77.115390484328742 -52.289115796986735 0 0 0 -1 I I #
coedge $-1 $169 $121 $173 $245 reversed $111 $-1 #
coedge $-1 $121 $169 $123 $187 reversed $111 $-1 #
vertex $-1 $245 $252 #
straight-curve $-1 -77.115390484328742 -52.289115796986735 0 0 0 -1 I I #
edge $-1 $125 $253 $184 $254 forward #
point $-1 77.115390484328742 -52.289115796986735 -18.952989269973809 #
point $-1 -77.115390484328742 -52.289115796986735 -18.952989269973809 #
face $-1 $-1 $207 $23 $-1 $255 forward single #
loop $-1 $-1 $256 $127 #
plane-surface $-1 -39.209411944381117 -59.755102410375187 0 -1 0 0 0 0 1 forward_v I I I I #
coedge $-1 $257 $130 $197 $258 reversed $81 $-1 #
coedge $-1 $130 $257 $259 $260 reversed $81 $-1 #
coedge $-1 $138 $137 $130 $196 reversed $128 $-1 #
edge $-1 $261 $262 $195 $263 forward #
coedge $-1 $132 $131 $193 $258 forward $55 $-1 #
coedge $-1 $203 $256 $131 $199 reversed $191 $-1 #
edge $-1 $201 $264 $198 $265 forward #
edge $-1 $262 $139 $137 $266 forward #
vertex $-1 $199 $267 #
straight-curve $-1 0 -52.289115796986735 -18.952989269973809 1 0 0 I I #
coedge $-1 $268 $198 $134 $204 reversed $191 $-1 #
edge $-1 $208 $201 $203 $269 forward #
coedge $-1 $259 $135 $138 $210 forward $207 $-1 #
coedge $-1 $135 $259 $268 $270 forward $207 $-1 #
loop $-1 $-1 $135 $190 #
vertex $-1 $136 $271 #
straight-curve $-1 0 -52.289115796986735 18.952989269973809 -1 0 0 I I #
edge $-1 $140 $261 $138 $272 forward #
point $-1 -45.409000847650674 -52.289115796986735 -18.952989269973809 #
point $-1 -45.409000847650674 -52.289115796986735 18.952989269973809 #
plane-surface $-1 0 52.289115796986735 0 0 -1 0 0 0 -1 forward_v I I I I #
coedge $-1 $215 $145 $273 $274 reversed $89 $-1 #
coedge $-1 $145 $214 $218 $275 forward $89 $-1 #
edge $-1 $219 $276 $145 $277 forward #
coedge $-1 $147 $146 $222 $278 reversed $59 $-1 #
coedge $-1 $153 $148 $215 $275 reversed $154 $-1 #
vertex $-1 $216 $279 #
straight-curve $-1 -33.630636745858133 52.289115796986735 12.65158174900176 -1 0 0 I I #
coedge $-1 $273 $150 $153 $226 forward $143 $-1 #
coedge $-1 $150 $273 $217 $278 forward $143 $-1 #
vertex $-1 $151 $280 #
straight-curve $-1 -57.407156499103792 32.417148340573391 18.952989269973813 0 1 0 I I #
straight-curve $-1 -57.407156499103792 -30.119654661415083 77.036370906513085 0 -0.78801074757464917 0.61566148304635926 I I #
edge $-1 $155 $281 $153 $282 forward #
point $-1 -57.407156499103792 52.289115796986735 18.952989269973809 #
point $-1 -57.407156499103792 52.289115796986735 12.651581749001764 #
edge $-1 $283 $283 $158 $-1 forward #
vertex $-1 $159 $284 #
ellipse-curve $-1 -71.484466488550183 44.659071652079362 11.197916610457625 0 0.61566148304635926 0.78801074757464917 1.5 0 0 1 I I #
point $-1 -69.984466488550183 48.256398964675306 15.802285509487778 #
edge $-1 $285 $285 $162 $-1 forward #
vertex $-1 $163 $286 #
ellipse-curve $-1 -63.038080494882351 44.659071652079362 11.197916610457625 0 0.61566148304635926 0.78801074757464917 1.5 0 0 1 I I #
point $-1 -61.538080494882351 48.256398964675306 15.802285509487778 #
plane-surface $-1 77.115390484328742 0 0 -1 0 0 0 0 1 forward_v I I I I #
coedge $-1 $241 $174 $177 $249 forward $167 $-1 #
coedge $-1 $174 $241 $169 $240 reversed $167 $-1 #
edge $-1 $246 $253 $239 $287 forward #
coedge $-1 $239 $238 $170 $242 reversed $167 $-1 #
edge $-1 $253 $243 $241 $288 forward #
vertex $-1 $172 $289 #
straight-curve $-1 77.115390484328742 0 -18.952989269973809 0 -1 0 I I #
edge $-1 $246 $185 $183 $290 forward #
vertex $-1 $175 $291 #
straight-curve $-1 0 52.289115796986735 18.952989269973809 -1 0 0 I I #
straight-curve $-1 0 -52.289115796986735 18.952989269973809 1 0 0 I I #
edge $-1 $180 $243 $177 $292 forward #
point $-1 77.115390484328742 -52.289115796986735 18.952989269973809 #
point $-1 77.115390484328742 52.289115796986735 18.952989269973809 #
point $-1 -77.115390484328742 -52.289115796986735 18.952989269973809 #
vertex $-1 $242 $293 #
straight-curve $-1 -77.115390484328742 0 -18.952989269973809 0 1 0 I I #
plane-surface $-1 0 0 18.952989269973809 0 0 1 1 0 0 forward_v I I I I #
coedge $-1 $198 $268 $257 $294 forward $191 $-1 #
coedge $-1 $194 $193 $256 $294 reversed $81 $-1 #
edge $-1 $264 $262 $193 $295 forward #
coedge $-1 $206 $205 $194 $260 forward $207 $-1 #
edge $-1 $261 $296 $194 $297 forward #
vertex $-1 $210 $298 #
vertex $-1 $200 $299 #
straight-curve $-1 -45.409000847650674 -67.221089023763639 0 0 0 -1 I I #
vertex $-1 $294 $300 #
straight-curve $-1 -39.209411944381117 -59.755102410375187 -18.952989269973809 0 -1 0 I I #
straight-curve $-1 -45.409000847650674 -59.755102410375187 -18.952989269973809 0 1 0 I I #
point $-1 -39.209411944381117 -52.289115796986735 -18.952989269973809 #
coedge $-1 $256 $203 $206 $270 reversed $191 $-1 #
straight-curve $-1 -39.209411944381117 -52.289115796986735 0 0 0 -1 I I #
edge $-1 $296 $208 $268 $301 forward #
point $-1 -39.209411944381117 -52.289115796986735 18.952989269973809 #
straight-curve $-1 -45.409000847650674 -59.755102410375187 18.952989269973809 0 -1 0 I I #
coedge $-1 $222 $221 $214 $274 forward $143 $-1 #
edge $-1 $281 $276 $214 $302 forward #
edge $-1 $281 $219 $218 $303 forward #
vertex $-1 $216 $304 #
straight-curve $-1 -77.115390484328742 -2.0810746957065476 55.13023094924457 0 -0.78801074757464917 0.61566148304635926 I I #
edge $-1 $276 $223 $222 $305 forward #
point $-1 -77.115390484328742 52.289115796986735 12.651581749001767 #
point $-1 -57.407156499103792 44.223682132363933 18.952989269973813 #
vertex $-1 $226 $306 #
straight-curve $-1 0 52.289115796986735 18.952989269973809 -1 0 0 I I #
vertex $-1 $229 $307 #
point $-1 -69.984466488550183 44.659071652079362 11.197916610457625 #
vertex $-1 $233 $308 #
point $-1 -61.538080494882351 44.659071652079362 11.197916610457625 #
straight-curve $-1 -77.115390484328742 52.289115796986735 0 0 0 -1 I I #
straight-curve $-1 0 52.289115796986735 -18.952989269973809 1 0 0 I I #
point $-1 77.115390484328742 52.289115796986735 -18.952989269973809 #
straight-curve $-1 -77.115390484328742 0 18.952989269973809 0 -1 0 I I #
point $-1 -77.115390484328742 52.289115796986735 18.952989269973809 #
straight-curve $-1 77.115390484328742 52.289115796986735 0 0 0 -1 I I #
point $-1 -77.115390484328742 52.289115796986735 -18.952989269973809 #
edge $-1 $296 $264 $256 $309 forward #
straight-curve $-1 -42.309206396015895 -67.221089023763639 -18.952989269973809 -1 0 0 I I #
vertex $-1 $270 $310 #
straight-curve $-1 -42.309206396015895 -67.221089023763639 18.952989269973809 1 0 0 I I #
point $-1 -45.409000847650674 -67.221089023763639 18.952989269973809 #
point $-1 -45.409000847650674 -67.221089023763639 -18.952989269973809 #
point $-1 -39.209411944381117 -67.221089023763639 -18.952989269973809 #
straight-curve $-1 -39.209411944381117 -59.755102410375187 18.952989269973809 0 1 0 I I #
straight-curve $-1 -77.115390484328742 0 18.952989269973809 0 -1 0 I I #
straight-curve $-1 -77.115390484328742 52.289115796986735 0 0 0 -1 I I #
point $-1 -77.115390484328742 44.223682132363933 18.952989269973813 #
straight-curve $-1 -33.630636745858133 44.223682132363948 18.952989269973806 1 0 0 I I #
point $-1 -77.115390484328742 52.289115796986735 18.952989269973809 #
point $-1 -71.484466488550183 43.735579427509819 10.01590048909565 #
point $-1 -63.038080494882351 43.735579427509819 10.01590048909565 #
straight-curve $-1 -39.209411944381117 -67.221089023763639 0 0 0 -1 I I #
point $-1 -39.209411944381117 -67.221089023763639 18.952989269973809 #
End-of-ACIS-data 