600 0 5 0           
96 GICL ACIS Healer - Source: /gicl/data5/repository/Drexel/SM99-DATA/part110.smdg.deltas.sat - 6 0 18 ACIS 6.0.3 Solaris 24 Sat Apr 13 20:43:56 2002 
1 9.999999999999999547e-07 1.000000000000000036e-10 
body $-1 $5 $-1 $-1 #
body $-1 $6 $-1 $-1 #
body $-1 $7 $-1 $-1 #
body $-1 $8 $-1 $-1 #
body $-1 $9 $-1 $-1 #
lump $-1 $-1 $10 $0 #
lump $-1 $-1 $11 $1 #
lump $-1 $-1 $12 $2 #
lump $-1 $-1 $13 $3 #
lump $-1 $-1 $14 $4 #
shell $-1 $-1 $-1 $15 $-1 $5 #
shell $-1 $-1 $-1 $16 $-1 $6 #
shell $-1 $-1 $-1 $17 $-1 $7 #
shell $-1 $-1 $-1 $18 $-1 $8 #
shell $-1 $-1 $-1 $19 $-1 $9 #
face $-1 $20 $21 $10 $-1 $22 reversed single #
face $-1 $23 $24 $11 $-1 $25 forward single #
face $-1 $26 $27 $12 $-1 $28 forward single #
face $-1 $29 $30 $13 $-1 $31 reversed single #
face $-1 $32 $33 $14 $-1 $34 forward single #
face $-1 $35 $36 $10 $-1 $37 reversed single #
loop $-1 $-1 $38 $15 #
plane-surface $-1 53.89568773461104456 71.0040774682694007 7.805421223931999108 0 -1 0 0 0 -1 forward_v I I I I #
face $-1 $39 $40 $11 $-1 $41 reversed single #
loop $-1 $-1 $42 $16 #
plane-surface $-1 53.89568773461104456 0 7.805421223931999108 0 1 0 0 0 1 forward_v I I I I #
face $-1 $43 $44 $12 $-1 $45 reversed single #
loop $-1 $-1 $46 $17 #
plane-surface $-1 53.89568773461104456 71.0040774682694007 7.805421223931999108 0 -1 0 0 0 -1 forward_v I I I I #
face $-1 $47 $48 $13 $-1 $49 reversed single #
loop $-1 $-1 $50 $18 #
plane-surface $-1 115.7694718363101032 54.5146827038200712 164.6309181602904914 0 -1 0 -0.7431448337585914166 0 -0.6691305971616567927 forward_v I I I I #
face $-1 $51 $52 $14 $-1 $53 forward single #
loop $-1 $54 $55 $19 #
cone-surface $-1 105.6235833409760261 51.10775907156844511 13.35507317967527641 -0.7431448337585914166 0 -0.6691305971616567927 0.6691305971616567927 0 -0.7431448337585914166 1 I I 0 1 1 forward I I I I #
face $-1 $56 $57 $10 $-1 $58 forward single #
loop $-1 $-1 $59 $20 #
plane-surface $-1 53.89568773461104456 0 7.805421223931999108 0 1 0 0 0 1 forward_v I I I I #
coedge $-1 $60 $61 $62 $63 reversed $21 $-1 #
face $-1 $64 $65 $11 $-1 $66 reversed single #
loop $-1 $-1 $67 $23 #
plane-surface $-1 53.89568773461104456 35.50203873413470035 0 0 0 1 1 0 0 forward_v I I I I #
coedge $-1 $68 $69 $70 $71 forward $24 $-1 #
face $-1 $72 $73 $12 $-1 $74 reversed single #
loop $-1 $-1 $75 $26 #
plane-surface $-1 53.89568773461104456 35.50203873413470035 0 0 0 1 1 0 0 forward_v I I I I #
coedge $-1 $76 $77 $78 $79 forward $27 $-1 #
face $-1 $80 $81 $13 $-1 $82 reversed single #
loop $-1 $-1 $83 $29 #
plane-surface $-1 35.66486803262515082 51.10775907156844511 92.50441072369355311 0.7431448337585914166 0 0.6691305971616567927 0.6691305971616567927 0 -0.7431448337585914166 forward_v I I I I #
coedge $-1 $84 $85 $86 $87 reversed $30 $-1 #
face $-1 $-1 $88 $14 $-1 $89 forward single #
loop $-1 $90 $91 $32 #
cone-surface $-1 104.5298334477040783 51.10775907156844511 12.3702563768334528 -0.7431448337585914166 0 -0.6691305971616567927 0.3345652985808283963 0 -0.3715724168792957083 1 I I -0.7071067811865474617 0.7071067811865474617 0.5 forward I I I I #
loop $-1 $-1 $92 $19 #
coedge $-1 $55 $55 $93 $94 reversed $33 $-1 #
face $-1 $95 $96 $10 $-1 $97 reversed single #
loop $-1 $-1 $98 $35 #
plane-surface $-1 53.89568773461104456 35.50203873413470035 15.61084244786399822 0 0 1 1 0 0 forward_v I I I I #
coedge $-1 $99 $100 $101 $102 reversed $36 $-1 #
coedge $-1 $103 $38 $104 $105 reversed $21 $-1 #
coedge $-1 $38 $103 $106 $107 forward $21 $-1 #
coedge $-1 $108 $109 $38 $63 forward $96 $-1 #
edge $-1 $110 -53.89568773461104456 $111 53.89568773461104456 $38 $112 forward 7 unknown #
face $-1 $113 $114 $11 $-1 $115 reversed single #
loop $-1 $-1 $116 $39 #
plane-surface $-1 13.87241099090628893 -9.004059696781339994 7.805421223931999108 0 1 0 0 0 1 forward_v I I I I #
coedge $-1 $117 $118 $69 $119 forward $40 $-1 #
coedge $-1 $120 $42 $121 $122 reversed $24 $-1 #
coedge $-1 $42 $120 $67 $119 reversed $24 $-1 #
coedge $-1 $123 $124 $42 $71 reversed $114 $-1 #
edge $-1 $125 -7.805421223931999108 $126 7.805421223931999108 $70 $127 forward 7 unknown #
face $-1 $128 $129 $12 $-1 $130 reversed single #
loop $-1 $-1 $131 $43 #
plane-surface $-1 12.13397953394857609 75.50610731666006359 7.805421223931999108 1 0 0 0 0 -1 forward_v I I I I #
coedge $-1 $132 $133 $77 $134 forward $44 $-1 #
coedge $-1 $135 $46 $136 $137 reversed $27 $-1 #
coedge $-1 $46 $135 $75 $134 reversed $27 $-1 #
coedge $-1 $138 $139 $46 $79 reversed $140 $-1 #
edge $-1 $141 -7.805421223931999108 $142 7.805421223931999108 $78 $143 forward 7 unknown #
face $-1 $144 $145 $13 $-1 $146 forward single #
loop $-1 $-1 $147 $47 #
plane-surface $-1 115.7694718363101032 47.70083543931681902 164.6309181602904914 0 1 0 0.7431448337585914166 0 0.6691305971616567927 forward_v I I I I #
coedge $-1 $148 $149 $150 $151 reversed $48 $-1 #
coedge $-1 $85 $50 $152 $153 reversed $30 $-1 #
coedge $-1 $50 $84 $148 $154 reversed $30 $-1 #
coedge $-1 $150 $155 $50 $87 forward $145 $-1 #
edge $-1 $156 -22.95879568376150814 $157 -20.06756638005467153 $86 $158 forward 7 unknown #
loop $-1 $-1 $93 $51 #
plane-surface $-1 35.66486803262515082 51.10775907156844511 92.50441072369355311 0.7431448337585914166 0 0.6691305971616567927 0.6691305971616567927 0 -0.7431448337585914166 forward_v I I I I #
loop $-1 $-1 $159 $32 #
coedge $-1 $91 $91 $92 $160 reversed $52 $-1 #
coedge $-1 $92 $92 $91 $160 forward $54 $-1 #
coedge $-1 $93 $93 $55 $94 forward $88 $-1 #
edge $-1 $161 0 $161 6.283185307179586232 $93 $162 forward 7 unknown #
face $-1 $163 $164 $10 $-1 $165 reversed single #
loop $-1 $-1 $108 $56 #
plane-surface $-1 53.89568773461104456 35.50203873413470035 0 0 0 1 1 0 0 forward_v I I I I #
coedge $-1 $166 $167 $168 $169 forward $57 $-1 #
coedge $-1 $170 $59 $171 $172 reversed $36 $-1 #
coedge $-1 $59 $170 $173 $174 forward $36 $-1 #
coedge $-1 $109 $108 $59 $102 forward $96 $-1 #
edge $-1 $175 -53.89568773461104456 $176 53.89568773461104456 $59 $177 forward 7 unknown #
coedge $-1 $61 $60 $166 $178 reversed $21 $-1 #
coedge $-1 $179 $180 $60 $105 forward $164 $-1 #
edge $-1 $181 -7.805421223931999108 $110 7.805421223931999108 $60 $182 forward 7 unknown #
coedge $-1 $168 $183 $61 $107 reversed $184 $-1 #
edge $-1 $185 -7.805421223931999108 $111 7.805421223931999108 $106 $186 forward 7 unknown #
coedge $-1 $101 $62 $183 $187 forward $96 $-1 #
coedge $-1 $62 $101 $179 $188 forward $96 $-1 #
vertex $-1 $63 $189 #
vertex $-1 $187 $190 #
straight-curve $-1 53.89568773461104456 71.0040774682694007 0 1 0 0 I I #
face $-1 $191 $192 $11 $-1 $193 reversed single #
loop $-1 $-1 $70 $64 #
plane-surface $-1 12.13397953394857609 -4.502029848390669997 7.805421223931999108 1 0 0 0 0 -1 forward_v I I I I #
coedge $-1 $194 $195 $196 $197 forward $65 $-1 #
coedge $-1 $198 $67 $199 $200 forward $40 $-1 #
coedge $-1 $67 $198 $123 $201 forward $40 $-1 #
edge $-1 $125 -41.76170820066246847 $202 -38.28484528674704279 $67 $203 forward 7 unknown #
coedge $-1 $69 $68 $204 $205 forward $24 $-1 #
coedge $-1 $206 $207 $68 $122 forward $208 $-1 #
edge $-1 $209 38.28484528674704279 $126 41.76170820066246847 $121 $210 forward 7 unknown #
coedge $-1 $196 $70 $118 $201 reversed $114 $-1 #
coedge $-1 $70 $196 $206 $211 reversed $114 $-1 #
vertex $-1 $119 $212 #
vertex $-1 $211 $213 #
straight-curve $-1 12.13397953394857609 0 7.805421223931999108 0 0 1 I I #
face $-1 $214 $140 $12 $-1 $215 reversed single #
loop $-1 $-1 $216 $72 #
plane-surface $-1 13.87241099090628893 80.00813716505072648 7.805421223931999108 0 -1 0 0 0 -1 forward_v I I I I #
coedge $-1 $217 $218 $219 $220 forward $73 $-1 #
coedge $-1 $221 $75 $217 $222 forward $44 $-1 #
coedge $-1 $75 $221 $138 $223 forward $44 $-1 #
edge $-1 $141 38.28484528674704279 $224 41.76170820066246847 $75 $225 forward 7 unknown #
coedge $-1 $77 $76 $226 $227 forward $27 $-1 #
coedge $-1 $228 $229 $76 $137 forward $230 $-1 #
edge $-1 $231 -41.76170820066246847 $142 -38.28484528674704279 $136 $232 forward 7 unknown #
coedge $-1 $233 $78 $133 $223 reversed $140 $-1 #
coedge $-1 $78 $233 $228 $234 reversed $140 $-1 #
loop $-1 $-1 $78 $128 #
vertex $-1 $134 $235 #
vertex $-1 $234 $236 #
straight-curve $-1 15.61084244786400177 71.0040774682694007 7.805421223931999108 0 0 1 I I #
face $-1 $-1 $237 $13 $-1 $238 reversed single #
loop $-1 $-1 $86 $80 #
plane-surface $-1 53.89568773461104456 35.50203873413470035 15.61084244786399822 0 0 1 1 0 0 forward_v I I I I #
coedge $-1 $239 $240 $241 $242 reversed $81 $-1 #
coedge $-1 $243 $83 $85 $154 forward $48 $-1 #
coedge $-1 $83 $243 $239 $244 forward $48 $-1 #
coedge $-1 $241 $86 $83 $151 forward $145 $-1 #
edge $-1 $157 -11.20978380096849492 $245 -4.395936536465242739 $150 $246 forward 7 unknown #
coedge $-1 $247 $248 $84 $153 forward $237 $-1 #
edge $-1 $249 -73.81836277210264541 $156 -70.60732724424724438 $152 $250 forward 7 unknown #
edge $-1 $157 103.4705010151604085 $249 107.7913754692220607 $85 $251 forward 7 unknown #
coedge $-1 $86 $241 $247 $252 forward $145 $-1 #
vertex $-1 $87 $253 #
vertex $-1 $87 $254 #
straight-curve $-1 84.83257978546058098 54.5146827038200712 15.61084244786399999 -1 0 0 I I #
coedge $-1 $159 $159 $-1 $255 reversed $90 $-1 #
edge $-1 $256 0 $256 6.283185307179586232 $91 $257 forward 7 unknown #
vertex $-1 $94 $258 #
ellipse-curve $-1 106.3457608173686992 51.10775907156844511 14.00532468393628704 0.7431448337585914166 0 0.6691305971616567927 0.6691305971616567927 0 -0.7431448337585914166 1 I I #
face $-1 $-1 $184 $10 $-1 $259 reversed single #
loop $-1 $-1 $104 $95 #
plane-surface $-1 0 35.50203873413470035 7.805421223931999108 1 0 0 0 0 -1 forward_v I I I I #
coedge $-1 $260 $98 $103 $178 forward $57 $-1 #
coedge $-1 $98 $260 $170 $261 forward $57 $-1 #
coedge $-1 $171 $106 $98 $169 reversed $184 $-1 #
edge $-1 $262 -35.50203873413470035 $185 35.50203873413470035 $168 $263 forward 7 unknown #
coedge $-1 $100 $99 $167 $261 reversed $36 $-1 #
coedge $-1 $183 $168 $99 $172 forward $184 $-1 #
edge $-1 $262 -7.805421223931999108 $175 7.805421223931999108 $171 $264 forward 7 unknown #
coedge $-1 $180 $179 $100 $174 reversed $164 $-1 #
edge $-1 $265 -7.805421223931999108 $176 7.805421223931999108 $173 $266 forward 7 unknown #
vertex $-1 $172 $267 #
vertex $-1 $188 $268 #
straight-curve $-1 53.89568773461104456 0 0 -1 0 0 I I #
edge $-1 $185 -53.89568773461104456 $181 53.89568773461104456 $103 $269 forward 7 unknown #
coedge $-1 $173 $104 $109 $188 reversed $164 $-1 #
coedge $-1 $104 $173 $260 $270 reversed $164 $-1 #
vertex $-1 $178 $271 #
straight-curve $-1 0 71.0040774682694007 7.805421223931999108 0 0 -1 I I #
coedge $-1 $106 $171 $108 $187 reversed $184 $-1 #
loop $-1 $-1 $171 $163 #
vertex $-1 $169 $272 #
straight-curve $-1 107.7913754692220891 71.0040774682694007 7.805421223931999108 0 0 -1 I I #
edge $-1 $111 -35.50203873413470035 $175 35.50203873413470035 $183 $273 forward 7 unknown #
edge $-1 $176 -35.50203873413470035 $110 35.50203873413470035 $179 $274 forward 7 unknown #
point $-1 0 71.0040774682694007 0 #
point $-1 107.7913754692220891 71.0040774682694007 0 #
face $-1 $-1 $208 $11 $-1 $275 forward single #
loop $-1 $-1 $276 $113 #
plane-surface $-1 15.61084244786400177 -4.502029848390669997 7.805421223931999108 -1 0 0 0 0 1 forward_v I I I I #
coedge $-1 $277 $116 $198 $278 reversed $65 $-1 #
coedge $-1 $116 $277 $279 $280 reversed $65 $-1 #
coedge $-1 $124 $123 $116 $197 reversed $114 $-1 #
edge $-1 $281 -7.805421223931999108 $282 7.805421223931999108 $196 $283 forward 7 unknown #
coedge $-1 $118 $117 $194 $278 forward $40 $-1 #
coedge $-1 $204 $276 $117 $200 reversed $192 $-1 #
edge $-1 $202 -4.502029848390669997 $284 4.502029848390669997 $199 $285 forward 7 unknown #
edge $-1 $282 -4.502029848390669997 $125 4.502029848390669997 $123 $286 forward 7 unknown #
vertex $-1 $200 $287 #
straight-curve $-1 53.89568773461104456 0 0 1 0 0 I I #
coedge $-1 $288 $199 $120 $205 reversed $192 $-1 #
edge $-1 $209 -7.805421223931999108 $202 7.805421223931999108 $204 $289 forward 7 unknown #
coedge $-1 $279 $121 $124 $211 forward $208 $-1 #
coedge $-1 $121 $279 $288 $290 forward $208 $-1 #
loop $-1 $-1 $121 $191 #
vertex $-1 $122 $291 #
straight-curve $-1 53.89568773461104456 0 15.61084244786399822 -1 0 0 I I #
edge $-1 $126 -4.502029848390669997 $281 4.502029848390669997 $124 $292 forward 7 unknown #
point $-1 12.13397953394857609 0 0 #
point $-1 12.13397953394857609 0 15.61084244786399822 #
face $-1 $-1 $230 $12 $-1 $293 forward single #
plane-surface $-1 15.61084244786400177 75.50610731666006359 7.805421223931999108 -1 0 0 0 0 1 forward_v I I I I #
coedge $-1 $294 $295 $233 $296 forward $129 $-1 #
coedge $-1 $226 $131 $132 $222 reversed $73 $-1 #
coedge $-1 $131 $226 $229 $297 reversed $73 $-1 #
coedge $-1 $295 $294 $131 $220 reversed $129 $-1 #
edge $-1 $298 -7.805421223931999108 $299 7.805421223931999108 $219 $300 forward 7 unknown #
coedge $-1 $133 $132 $294 $301 forward $44 $-1 #
edge $-1 $224 -4.502029848390662892 $299 4.502029848390662892 $217 $302 forward 7 unknown #
edge $-1 $303 -4.502029848390662892 $141 4.502029848390662892 $138 $304 forward 7 unknown #
vertex $-1 $222 $305 #
straight-curve $-1 53.89568773461104456 71.0040774682694007 0 -1 0 0 I I #
coedge $-1 $218 $217 $135 $227 reversed $73 $-1 #
edge $-1 $231 -7.805421223931999108 $224 7.805421223931999108 $226 $306 forward 7 unknown #
coedge $-1 $307 $136 $139 $234 forward $230 $-1 #
coedge $-1 $136 $307 $218 $297 forward $230 $-1 #
loop $-1 $-1 $136 $214 #
vertex $-1 $137 $308 #
straight-curve $-1 53.89568773461104456 71.0040774682694007 15.61084244786399822 1 0 0 I I #
coedge $-1 $139 $138 $216 $296 reversed $140 $-1 #
edge $-1 $142 -4.502029848390662892 $309 4.502029848390662892 $139 $310 forward 7 unknown #
point $-1 15.61084244786400177 71.0040774682694007 0 #
point $-1 15.61084244786400177 71.0040774682694007 15.61084244786399822 #
loop $-1 $-1 $152 $144 #
plane-surface $-1 107.7913754692220891 35.50203873413470035 7.805421223931999108 -1 0 0 0 0 1 forward_v I I I I #
coedge $-1 $240 $147 $149 $244 reversed $81 $-1 #
coedge $-1 $147 $239 $311 $312 reversed $81 $-1 #
coedge $-1 $155 $150 $147 $242 forward $145 $-1 #
edge $-1 $245 20.06756638005467153 $313 22.95879568376150814 $241 $314 forward 7 unknown #
coedge $-1 $149 $148 $248 $315 reversed $48 $-1 #
edge $-1 $316 -107.7913754692220607 $245 -103.4705010151604085 $239 $317 forward 7 unknown #
vertex $-1 $151 $318 #
straight-curve $-1 104.9001461655152525 43.30489890285157628 15.6108424478640071 0 -1 0 I I #
coedge $-1 $311 $152 $155 $252 reversed $237 $-1 #
coedge $-1 $152 $311 $243 $315 forward $237 $-1 #
vertex $-1 $153 $319 #
straight-curve $-1 107.7913754692220891 54.5146827038200712 86.21816969211124615 0 0 1 I I #
straight-curve $-1 35.66486803262515082 54.5146827038200712 92.50441072369355311 0.6691305971616567927 0 -0.7431448337585914166 I I #
edge $-1 $313 12.19879670518211867 $156 19.01264396968537085 $247 $320 forward 7 unknown #
point $-1 107.7913754692220891 54.5146827038200712 15.61084244786399822 #
point $-1 104.9001461655152525 54.5146827038200712 15.61084244786399999 #
edge $-1 $321 1 $321 0 $159 $-1 forward 7 unknown #
vertex $-1 $160 $322 #
ellipse-curve $-1 104.9014058645833813 51.10775907156844511 12.70482167541427998 0.7431448337585914166 0 0.6691305971616567927 0.6691305971616567927 0 -0.7431448337585914166 1 I I #
point $-1 107.0148914145303252 51.10775907156844511 13.26217985017768086 #
plane-surface $-1 107.7913754692220891 35.50203873413470035 7.805421223931999108 -1 0 0 0 0 1 forward_v I I I I #
coedge $-1 $167 $166 $180 $270 forward $57 $-1 #
edge $-1 $265 -53.89568773461104456 $262 53.89568773461104456 $170 $323 forward 7 unknown #
vertex $-1 $169 $324 #
straight-curve $-1 107.7913754692220891 35.50203873413470035 15.61084244786399822 0 1 0 I I #
straight-curve $-1 107.7913754692220891 0 7.805421223931999108 0 0 -1 I I #
vertex $-1 $270 $325 #
straight-curve $-1 0 0 7.805421223931999108 0 0 -1 I I #
point $-1 107.7913754692220891 0 0 #
point $-1 0 0 0 #
straight-curve $-1 53.89568773461104456 71.0040774682694007 15.61084244786399822 -1 0 0 I I #
edge $-1 $181 -35.50203873413470035 $265 35.50203873413470035 $180 $326 forward 7 unknown #
point $-1 0 71.0040774682694007 15.61084244786399822 #
point $-1 107.7913754692220891 71.0040774682694007 15.61084244786399822 #
straight-curve $-1 107.7913754692220891 35.50203873413470035 0 0 -1 0 I I #
straight-curve $-1 0 35.50203873413470035 0 0 1 0 I I #
plane-surface $-1 53.89568773461104456 35.50203873413470035 15.61084244786399822 0 0 1 1 0 0 forward_v I I I I #
coedge $-1 $199 $288 $277 $327 forward $192 $-1 #
coedge $-1 $195 $194 $276 $327 reversed $65 $-1 #
edge $-1 $284 -1.73843145695771284 $282 1.73843145695771284 $194 $328 forward 7 unknown #
coedge $-1 $207 $206 $195 $280 forward $208 $-1 #
edge $-1 $281 -1.73843145695771284 $329 1.73843145695771284 $195 $330 forward 7 unknown #
vertex $-1 $211 $331 #
vertex $-1 $201 $332 #
straight-curve $-1 12.13397953394857609 -9.004059696781339994 7.805421223931999108 0 0 -1 I I #
vertex $-1 $327 $333 #
straight-curve $-1 15.61084244786400177 -4.502029848390669997 0 0 -1 0 I I #
straight-curve $-1 12.13397953394857609 -4.502029848390669997 0 0 1 0 I I #
point $-1 15.61084244786400177 0 0 #
coedge $-1 $276 $204 $207 $290 reversed $192 $-1 #
straight-curve $-1 15.61084244786400177 0 7.805421223931999108 0 0 -1 I I #
edge $-1 $329 -4.502029848390669997 $209 4.502029848390669997 $288 $334 forward 7 unknown #
point $-1 15.61084244786400177 0 15.61084244786399822 #
straight-curve $-1 12.13397953394857609 -4.502029848390669997 15.61084244786399822 0 -1 0 I I #
plane-surface $-1 53.89568773461104456 35.50203873413470035 15.61084244786399822 0 0 1 1 0 0 forward_v I I I I #
coedge $-1 $219 $216 $221 $301 reversed $129 $-1 #
coedge $-1 $216 $219 $307 $335 reversed $129 $-1 #
edge $-1 $309 -7.805421223931999108 $303 7.805421223931999108 $233 $336 forward 7 unknown #
edge $-1 $298 -4.502029848390662892 $231 4.502029848390662892 $218 $337 forward 7 unknown #
vertex $-1 $335 $338 #
vertex $-1 $301 $339 #
straight-curve $-1 12.13397953394857609 80.00813716505072648 7.805421223931999108 0 0 -1 I I #
edge $-1 $299 -1.73843145695771284 $303 1.73843145695771284 $294 $340 forward 7 unknown #
straight-curve $-1 12.13397953394857609 75.50610731666006359 0 0 1 0 I I #
vertex $-1 $223 $341 #
straight-curve $-1 15.61084244786400177 75.50610731666006359 0 0 -1 0 I I #
point $-1 12.13397953394857609 71.0040774682694007 0 #
straight-curve $-1 12.13397953394857609 71.0040774682694007 7.805421223931999108 0 0 -1 I I #
coedge $-1 $229 $228 $295 $335 forward $230 $-1 #
point $-1 12.13397953394857609 71.0040774682694007 15.61084244786399822 #
vertex $-1 $234 $342 #
straight-curve $-1 15.61084244786400177 75.50610731666006359 15.61084244786399822 0 1 0 I I #
coedge $-1 $248 $247 $240 $312 forward $237 $-1 #
edge $-1 $313 70.60732724424724438 $316 73.81836277210264541 $311 $343 forward 7 unknown #
vertex $-1 $252 $344 #
straight-curve $-1 84.83257978546058098 47.70083543931681902 15.61084244786399999 1 0 0 I I #
edge $-1 $316 4.395936536465242739 $249 11.20978380096849492 $248 $345 forward 7 unknown #
vertex $-1 $315 $346 #
straight-curve $-1 35.66486803262515082 47.70083543931681902 92.50441072369355311 -0.6691305971616567927 0 0.7431448337585914166 I I #
point $-1 104.9001461655152525 47.70083543931681902 15.61084244786399999 #
point $-1 107.7913754692220891 54.5146827038200712 12.39980692000859896 #
straight-curve $-1 107.7913754692220891 35.50203873413470035 15.61084244786399822 0 1 0 I I #
vertex $-1 $255 $347 #
point $-1 105.5705364617450357 51.10775907156844511 11.96167684165568978 #
straight-curve $-1 53.89568773461104456 0 15.61084244786399822 1 0 0 I I #
point $-1 107.7913754692220891 0 15.61084244786399822 #
point $-1 0 0 15.61084244786399822 #
straight-curve $-1 0 35.50203873413470035 15.61084244786399822 0 -1 0 I I #
edge $-1 $329 -7.805421223931999108 $284 7.805421223931999108 $276 $348 forward 7 unknown #
straight-curve $-1 13.87241099090628893 -9.004059696781339994 0 -1 0 0 I I #
vertex $-1 $290 $349 #
straight-curve $-1 13.87241099090628893 -9.004059696781339994 15.61084244786399822 1 0 0 I I #
point $-1 12.13397953394857609 -9.004059696781339994 15.61084244786399822 #
point $-1 12.13397953394857609 -9.004059696781339994 0 #
point $-1 15.61084244786400177 -9.004059696781339994 0 #
straight-curve $-1 15.61084244786400177 -4.502029848390669997 15.61084244786399822 0 1 0 I I #
edge $-1 $309 -1.73843145695771284 $298 1.73843145695771284 $295 $350 forward 7 unknown #
straight-curve $-1 15.61084244786400177 80.00813716505072648 7.805421223931999108 0 0 -1 I I #
straight-curve $-1 12.13397953394857609 75.50610731666006359 15.61084244786399822 0 -1 0 I I #
point $-1 12.13397953394857609 80.00813716505072648 15.61084244786399822 #
point $-1 12.13397953394857609 80.00813716505072648 0 #
straight-curve $-1 13.87241099090628893 80.00813716505072648 0 1 0 0 I I #
point $-1 15.61084244786400177 80.00813716505072648 0 #
point $-1 15.61084244786400177 80.00813716505072648 15.61084244786399822 #
straight-curve $-1 107.7913754692220891 47.70083543931681902 86.21816969211124615 0 0 -1 I I #
point $-1 107.7913754692220891 47.70083543931681902 15.61084244786399822 #
straight-curve $-1 107.7913754692221033 43.30489890285157628 12.39980692000858475 0 1 0 I I #
point $-1 107.7913754692220891 47.70083543931681902 12.39980692000859896 #
point $-1 104.1582610308247752 51.10775907156844511 12.03569107825262563 #
straight-curve $-1 15.61084244786400177 -9.004059696781339994 7.805421223931999108 0 0 -1 I I #
point $-1 15.61084244786400177 -9.004059696781339994 15.61084244786399822 #
straight-curve $-1 13.87241099090628893 80.00813716505072648 15.61084244786399822 -1 0 0 I I #
End-of-ACIS-data 