300 0 11 0           
7 Unknown 11 ACIS 3.0 NT 24 Fri Oct 30 18:31:37 1998 
-1 9.9999999999999995e-007 1e-010 
body $11 $12 $-1 $13 #
body $14 $15 $-1 $16 #
body $17 $18 $-1 $19 #
body $20 $21 $-1 $22 #
body $23 $24 $-1 $25 #
body $26 $27 $-1 $28 #
body $29 $30 $-1 $31 #
body $32 $33 $-1 $34 #
body $35 $36 $-1 $37 #
body $38 $39 $-1 $40 #
body $41 $42 $-1 $43 #
display_attribute-st-attrib $-1 $44 $-1 $0 1 #
lump $-1 $-1 $45 $0 #
transform $-1 1 0 0 0 1 0 0 0 1 43.17758720664083 22.059481617182289 9.355032520651978 1 rotate no_reflect no_shear #
display_attribute-st-attrib $-1 $46 $-1 $1 10 #
lump $-1 $-1 $47 $1 #
transform $-1 1 0 0 0 1 0 0 0 1 43.17758720664083 22.059481617182289 9.355032520651978 1 rotate no_reflect no_shear #
display_attribute-st-attrib $-1 $48 $-1 $2 9 #
lump $-1 $-1 $49 $2 #
transform $-1 1 0 0 0 1 0 0 0 1 43.17758720664083 22.059481617182289 9.355032520651978 1 rotate no_reflect no_shear #
display_attribute-st-attrib $-1 $50 $-1 $3 8 #
lump $-1 $-1 $51 $3 #
transform $-1 1 0 0 0 1 0 0 0 1 43.17758720664083 22.059481617182289 9.355032520651978 1 rotate no_reflect no_shear #
display_attribute-st-attrib $-1 $52 $-1 $4 7 #
lump $-1 $-1 $53 $4 #
transform $-1 1 0 0 0 1 0 0 0 1 43.17758720664083 22.059481617182289 9.355032520651978 1 rotate no_reflect no_shear #
display_attribute-st-attrib $-1 $54 $-1 $5 6 #
lump $-1 $-1 $55 $5 #
transform $-1 1 0 0 0 1 0 0 0 1 43.17758720664083 22.059481617182289 9.355032520651978 1 rotate no_reflect no_shear #
display_attribute-st-attrib $-1 $56 $-1 $6 5 #
lump $-1 $-1 $57 $6 #
transform $-1 1 0 0 0 1 0 0 0 1 43.17758720664083 22.059481617182289 9.355032520651978 1 rotate no_reflect no_shear #
display_attribute-st-attrib $-1 $58 $-1 $7 4 #
lump $-1 $-1 $59 $7 #
transform $-1 1 0 0 0 1 0 0 0 1 43.17758720664083 22.059481617182289 9.355032520651978 1 rotate no_reflect no_shear #
display_attribute-st-attrib $-1 $60 $-1 $8 3 #
lump $-1 $-1 $61 $8 #
transform $-1 1 0 0 0 1 0 0 0 1 43.17758720664083 22.059481617182289 9.355032520651978 1 rotate no_reflect no_shear #
display_attribute-st-attrib $-1 $62 $-1 $9 2 #
lump $-1 $-1 $63 $9 #
transform $-1 1 0 0 0 1 0 0 0 1 43.17758720664083 22.059481617182289 9.355032520651978 1 rotate no_reflect no_shear #
display_attribute-st-attrib $-1 $64 $-1 $10 1 #
lump $-1 $-1 $65 $10 #
transform $-1 1 0 0 0 1 0 0 0 1 43.17758720664083 22.059481617182289 9.355032520651978 1 rotate no_reflect no_shear #
id_attribute-st-attrib $-1 $-1 $11 $0 2550 #
shell $-1 $-1 $-1 $66 $-1 $12 #
id_attribute-st-attrib $-1 $-1 $14 $1 2560 #
shell $-1 $-1 $-1 $67 $-1 $15 #
id_attribute-st-attrib $-1 $-1 $17 $2 2567 #
shell $-1 $-1 $-1 $68 $-1 $18 #
id_attribute-st-attrib $-1 $-1 $20 $3 2580 #
shell $-1 $-1 $-1 $69 $-1 $21 #
id_attribute-st-attrib $-1 $-1 $23 $4 2589 #
shell $-1 $-1 $-1 $70 $-1 $24 #
id_attribute-st-attrib $-1 $-1 $26 $5 2601 #
shell $-1 $-1 $-1 $71 $-1 $27 #
id_attribute-st-attrib $-1 $-1 $29 $6 2612 #
shell $-1 $-1 $-1 $72 $-1 $30 #
id_attribute-st-attrib $-1 $-1 $32 $7 2626 #
shell $-1 $-1 $-1 $73 $-1 $33 #
id_attribute-st-attrib $-1 $-1 $35 $8 2639 #
shell $-1 $-1 $-1 $74 $-1 $36 #
id_attribute-st-attrib $-1 $-1 $38 $9 2653 #
shell $-1 $-1 $-1 $75 $-1 $39 #
id_attribute-st-attrib $-1 $-1 $41 $10 2668 #
shell $-1 $-1 $-1 $76 $-1 $42 #
face $-1 $77 $78 $45 $-1 $79 forward single #
face $-1 $80 $81 $47 $-1 $82 reversed single #
face $-1 $83 $84 $49 $-1 $85 forward single #
face $-1 $86 $87 $51 $-1 $88 reversed single #
face $-1 $89 $90 $53 $-1 $91 forward single #
face $-1 $92 $93 $55 $-1 $94 reversed single #
face $-1 $95 $96 $57 $-1 $97 forward single #
face $-1 $98 $99 $59 $-1 $100 reversed single #
face $-1 $101 $102 $61 $-1 $103 forward single #
face $-1 $104 $105 $63 $-1 $106 reversed single #
face $-1 $107 $108 $65 $-1 $109 forward single #
face $-1 $110 $111 $45 $-1 $112 reversed single #
loop $-1 $-1 $113 $66 #
plane-surface $-1 0 0 9.355032520651978 0 0 1 1 0 0 forward_v I I I I #
face $-1 $114 $115 $47 $-1 $116 reversed single #
loop $-1 $-1 $117 $67 #
plane-surface $-1 -6.3537049906737764 -16.799032685495778 72.668558038458855 0.81915205242281985 0 0.57357642473473569 0.57357642473473569 0 -0.81915205242281985 forward_v I I I I #
face $-1 $118 $119 $49 $-1 $120 forward single #
loop $-1 $121 $122 $68 #
cone-surface $-1 39.126060039289349 -16.799032685495778 4.6259557243864435 -0.81915205242281985 0 -0.57357642473473569 0.86036463710210354 0 -1.2287280786342298 1 I I 0 1 forward I I I I #
face $-1 $123 $124 $51 $-1 $125 reversed single #
loop $-1 $-1 $126 $69 #
plane-surface $-1 -103.16493264999281 -20.050403406066522 62.637325165539536 0 1 0 -0.69465837861970381 0 0.71933979245794832 forward_v I I I I #
face $-1 $127 $128 $53 $-1 $129 forward single #
loop $-1 $130 $131 $70 #
cone-surface $-1 -37.822201784911428 -16.563235157072718 4.128906844542497 0.69465837861970381 0 -0.71933979245794832 1.0790096886869225 0 1.0419875679295556 1 I I 0 1 forward I I I I #
face $-1 $132 $133 $55 $-1 $134 reversed single #
loop $-1 $-1 $135 $71 #
plane-surface $-1 -103.16493264999281 -9.0206625974753756 62.637325165539536 0 1 0 -0.69465837861970381 0 0.71933979245794832 forward_v I I I I #
face $-1 $136 $137 $57 $-1 $138 forward single #
loop $-1 $139 $140 $72 #
cone-surface $-1 -37.822201784911428 -5.5334943484815717 4.128906844542497 0.69465837861970381 0 -0.71933979245794832 1.0790096886869225 0 1.0419875679295556 1 I I 0 1 forward I I I I #
face $-1 $141 $142 $59 $-1 $143 reversed single #
loop $-1 $-1 $144 $73 #
plane-surface $-1 -103.16493264999281 2.0090782111157681 62.637325165539536 0 1 0 -0.69465837861970381 0 0.71933979245794832 forward_v I I I I #
face $-1 $145 $146 $61 $-1 $147 forward single #
loop $-1 $148 $149 $74 #
cone-surface $-1 -37.822201784911428 5.4962464601095711 4.128906844542497 0.69465837861970381 0 -0.71933979245794832 1.0790096886869225 0 1.0419875679295556 1 I I 0 1 forward I I I I #
face $-1 $150 $151 $63 $-1 $152 reversed single #
loop $-1 $-1 $153 $75 #
plane-surface $-1 -103.16493264999281 13.03881901970691 62.637325165539536 0 1 0 -0.69465837861970381 0 0.71933979245794832 forward_v I I I I #
face $-1 $154 $155 $65 $-1 $156 forward single #
loop $-1 $157 $158 $76 #
cone-surface $-1 -37.822201784911428 16.525987268700714 4.128906844542497 0.69465837861970381 0 -0.71933979245794832 1.0790096886869225 0 1.0419875679295556 1 I I 0 1 forward I I I I #
face $-1 $159 $160 $45 $-1 $161 reversed single #
loop $-1 $-1 $162 $77 #
plane-surface $-1 0 0 -9.355032520651978 0 0 1 1 0 0 forward_v I I I I #
coedge $-1 $163 $164 $165 $166 forward $78 $-1 #
face $-1 $167 $168 $47 $-1 $169 forward single #
loop $-1 $-1 $170 $80 #
plane-surface $-1 64.384313367296471 -11.538583753809267 122.19985023577348 0 -1 0 -0.81915205242281985 0 -0.57357642473473569 forward_v I I I I #
coedge $-1 $171 $172 $173 $174 reversed $81 $-1 #
face $-1 $-1 $175 $49 $-1 $176 forward single #
loop $-1 $177 $178 $83 #
cone-surface $-1 37.059511681200625 -16.799032685495778 3.1789430296515455 -0.81915205242281985 0 -0.57357642473473569 0.43018231855105177 0 -0.61436403931711492 1 I I -0.70710678118654757 0.70710678118654757 forward I I I I #
loop $-1 $-1 $179 $68 #
coedge $-1 $122 $122 $180 $181 reversed $84 $-1 #
face $-1 $182 $183 $51 $-1 $184 reversed single #
loop $-1 $-1 $185 $86 #
plane-surface $-1 -43.177587206640837 -16.563235157072718 0.51861192541957735 -0.69465837861970381 0 0.71933979245794832 0.71933979245794832 0 0.69465837861970381 forward_v I I I I #
coedge $-1 $186 $187 $188 $189 reversed $87 $-1 #
face $-1 $-1 $190 $53 $-1 $191 forward single #
loop $-1 $192 $193 $89 #
cone-surface $-1 -36.521013171228709 -16.563235157072718 2.7814866217057563 0.69465837861970381 0 -0.71933979245794832 0.53950484434346124 0 0.5209937839647778 1 I I -0.70710678118654757 0.70710678118654757 forward I I I I #
loop $-1 $-1 $194 $70 #
coedge $-1 $131 $131 $195 $196 reversed $90 $-1 #
face $-1 $197 $198 $55 $-1 $199 reversed single #
loop $-1 $-1 $200 $92 #
plane-surface $-1 -43.177587206640837 -5.5334943484815717 0.51861192541957735 -0.69465837861970381 0 0.71933979245794832 0.71933979245794832 0 0.69465837861970381 forward_v I I I I #
coedge $-1 $201 $202 $203 $204 reversed $93 $-1 #
face $-1 $-1 $205 $57 $-1 $206 forward single #
loop $-1 $207 $208 $95 #
cone-surface $-1 -36.521013171228709 -5.5334943484815717 2.7814866217057563 0.69465837861970381 0 -0.71933979245794832 0.53950484434346124 0 0.5209937839647778 1 I I -0.70710678118654757 0.70710678118654757 forward I I I I #
loop $-1 $-1 $209 $72 #
coedge $-1 $140 $140 $210 $211 reversed $96 $-1 #
face $-1 $212 $213 $59 $-1 $214 reversed single #
loop $-1 $-1 $215 $98 #
plane-surface $-1 -43.177587206640837 5.4962464601095711 0.51861192541957735 -0.69465837861970381 0 0.71933979245794832 0.71933979245794832 0 0.69465837861970381 forward_v I I I I #
coedge $-1 $216 $217 $218 $219 reversed $99 $-1 #
face $-1 $-1 $220 $61 $-1 $221 forward single #
loop $-1 $222 $223 $101 #
cone-surface $-1 -36.521013171228709 5.4962464601095711 2.7814866217057563 0.69465837861970381 0 -0.71933979245794832 0.53950484434346124 0 0.5209937839647778 1 I I -0.70710678118654757 0.70710678118654757 forward I I I I #
loop $-1 $-1 $224 $74 #
coedge $-1 $149 $149 $225 $226 reversed $102 $-1 #
face $-1 $227 $228 $63 $-1 $229 reversed single #
loop $-1 $-1 $230 $104 #
plane-surface $-1 -43.177587206640837 16.525987268700714 0.51861192541957735 -0.69465837861970381 0 0.71933979245794832 0.71933979245794832 0 0.69465837861970381 forward_v I I I I #
coedge $-1 $231 $232 $233 $234 reversed $105 $-1 #
face $-1 $-1 $235 $65 $-1 $236 forward single #
loop $-1 $237 $238 $107 #
cone-surface $-1 -36.521013171228709 16.525987268700714 2.7814866217057563 0.69465837861970381 0 -0.71933979245794832 0.53950484434346124 0 0.5209937839647778 1 I I -0.70710678118654757 0.70710678118654757 forward I I I I #
loop $-1 $-1 $239 $76 #
coedge $-1 $158 $158 $240 $241 reversed $108 $-1 #
face $-1 $242 $243 $45 $-1 $244 reversed single #
loop $-1 $-1 $245 $110 #
plane-surface $-1 0 -22.059481617182289 0 0 1 0 0 0 1 forward_v I I I I #
coedge $-1 $246 $247 $248 $249 forward $111 $-1 #
coedge $-1 $250 $113 $251 $252 forward $78 $-1 #
coedge $-1 $113 $250 $253 $254 forward $78 $-1 #
coedge $-1 $255 $256 $113 $166 reversed $257 $-1 #
edge $-1 $258 $259 $165 $260 forward #
face $-1 $261 $262 $47 $-1 $263 reversed single #
loop $-1 $-1 $264 $114 #
plane-surface $-1 0 0 9.355032520651978 0 0 1 1 0 0 forward_v I I I I #
coedge $-1 $265 $266 $267 $268 reversed $115 $-1 #
coedge $-1 $269 $117 $270 $271 reversed $81 $-1 #
coedge $-1 $117 $269 $265 $272 forward $81 $-1 #
coedge $-1 $267 $273 $117 $174 forward $274 $-1 #
edge $-1 $275 $276 $173 $277 forward #
loop $-1 $-1 $180 $118 #
plane-surface $-1 -6.3537049906737764 -16.799032685495778 72.668558038458855 0.81915205242281985 0 0.57357642473473569 0.57357642473473569 0 -0.81915205242281985 forward_v I I I I #
loop $-1 $-1 $278 $83 #
coedge $-1 $178 $178 $179 $279 reversed $119 $-1 #
coedge $-1 $179 $179 $178 $279 forward $121 $-1 #
coedge $-1 $180 $180 $122 $181 forward $175 $-1 #
edge $-1 $280 $280 $180 $281 forward #
face $-1 $282 $283 $51 $-1 $284 reversed single #
loop $-1 $-1 $285 $123 #
plane-surface $-1 -103.16493264999281 -13.076066908078914 62.637325165539536 0 -1 0 0.69465837861970381 0 -0.71933979245794832 forward_v I I I I #
coedge $-1 $286 $287 $288 $289 reversed $124 $-1 #
coedge $-1 $187 $126 $290 $291 reversed $87 $-1 #
coedge $-1 $126 $186 $286 $292 reversed $87 $-1 #
coedge $-1 $288 $293 $126 $189 forward $294 $-1 #
edge $-1 $295 $296 $188 $297 forward #
loop $-1 $-1 $195 $127 #
plane-surface $-1 -43.177587206640837 -16.563235157072718 0.51861192541957735 -0.69465837861970381 0 0.71933979245794832 0.71933979245794832 0 0.69465837861970381 forward_v I I I I #
loop $-1 $-1 $298 $89 #
coedge $-1 $193 $193 $194 $299 reversed $128 $-1 #
coedge $-1 $194 $194 $193 $299 forward $130 $-1 #
coedge $-1 $195 $195 $131 $196 forward $190 $-1 #
edge $-1 $300 $300 $195 $301 forward #
face $-1 $302 $303 $55 $-1 $304 forward single #
loop $-1 $-1 $305 $132 #
plane-surface $-1 -103.16493264999281 -2.0463260994877688 62.637325165539536 0 -1 0 0.69465837861970381 0 -0.71933979245794832 forward_v I I I I #
coedge $-1 $306 $307 $308 $309 reversed $133 $-1 #
coedge $-1 $202 $135 $310 $311 reversed $93 $-1 #
coedge $-1 $135 $201 $306 $312 reversed $93 $-1 #
coedge $-1 $308 $313 $135 $204 forward $303 $-1 #
edge $-1 $314 $315 $203 $316 forward #
loop $-1 $-1 $210 $136 #
plane-surface $-1 -43.177587206640837 -5.5334943484815717 0.51861192541957735 -0.69465837861970381 0 0.71933979245794832 0.71933979245794832 0 0.69465837861970381 forward_v I I I I #
loop $-1 $-1 $317 $95 #
coedge $-1 $208 $208 $209 $318 reversed $137 $-1 #
coedge $-1 $209 $209 $208 $318 forward $139 $-1 #
coedge $-1 $210 $210 $140 $211 forward $205 $-1 #
edge $-1 $319 $319 $210 $320 forward #
face $-1 $321 $322 $59 $-1 $323 forward single #
loop $-1 $-1 $324 $141 #
plane-surface $-1 -103.16493264999281 8.9834147091033749 62.637325165539536 0 -1 0 0.69465837861970381 0 -0.71933979245794832 forward_v I I I I #
coedge $-1 $325 $326 $327 $328 reversed $142 $-1 #
coedge $-1 $217 $144 $329 $330 reversed $99 $-1 #
coedge $-1 $144 $216 $325 $331 reversed $99 $-1 #
coedge $-1 $327 $332 $144 $219 forward $322 $-1 #
edge $-1 $333 $334 $218 $335 forward #
loop $-1 $-1 $225 $145 #
plane-surface $-1 -43.177587206640837 5.4962464601095711 0.51861192541957735 -0.69465837861970381 0 0.71933979245794832 0.71933979245794832 0 0.69465837861970381 forward_v I I I I #
loop $-1 $-1 $336 $101 #
coedge $-1 $223 $223 $224 $337 reversed $146 $-1 #
coedge $-1 $224 $224 $223 $337 forward $148 $-1 #
coedge $-1 $225 $225 $149 $226 forward $220 $-1 #
edge $-1 $338 $338 $225 $339 forward #
face $-1 $340 $341 $63 $-1 $342 forward single #
loop $-1 $-1 $343 $150 #
plane-surface $-1 -103.16493264999281 20.013155517694518 62.637325165539536 0 -1 0 0.69465837861970381 0 -0.71933979245794832 forward_v I I I I #
coedge $-1 $344 $345 $346 $347 reversed $151 $-1 #
coedge $-1 $232 $153 $348 $349 reversed $105 $-1 #
coedge $-1 $153 $231 $344 $350 reversed $105 $-1 #
coedge $-1 $346 $351 $153 $234 forward $341 $-1 #
edge $-1 $352 $353 $233 $354 forward #
loop $-1 $-1 $240 $154 #
plane-surface $-1 -43.177587206640837 16.525987268700714 0.51861192541957735 -0.69465837861970381 0 0.71933979245794832 0.71933979245794832 0 0.69465837861970381 forward_v I I I I #
loop $-1 $-1 $355 $107 #
coedge $-1 $238 $238 $239 $356 reversed $155 $-1 #
coedge $-1 $239 $239 $238 $356 forward $157 $-1 #
coedge $-1 $240 $240 $158 $241 forward $235 $-1 #
edge $-1 $357 $357 $240 $358 forward #
face $-1 $359 $360 $45 $-1 $361 reversed single #
loop $-1 $-1 $362 $159 #
plane-surface $-1 -43.17758720664083 0 0 1 0 0 0 0 -1 forward_v I I I I #
coedge $-1 $363 $253 $364 $365 forward $160 $-1 #
coedge $-1 $366 $162 $363 $367 forward $111 $-1 #
coedge $-1 $162 $366 $368 $369 forward $111 $-1 #
coedge $-1 $256 $255 $162 $249 reversed $257 $-1 #
edge $-1 $370 $371 $248 $372 forward #
coedge $-1 $164 $163 $373 $374 forward $78 $-1 #
coedge $-1 $375 $376 $163 $252 reversed $360 $-1 #
edge $-1 $259 $377 $251 $378 forward #
coedge $-1 $245 $379 $164 $254 reversed $160 $-1 #
edge $-1 $380 $258 $253 $381 forward #
coedge $-1 $248 $165 $379 $382 forward $257 $-1 #
coedge $-1 $165 $248 $375 $383 reversed $257 $-1 #
loop $-1 $-1 $255 $359 #
vertex $-1 $166 $384 #
vertex $-1 $166 $385 #
straight-curve $-1 43.17758720664083 0 9.355032520651978 0 1 0 I I #
face $-1 $-1 $274 $47 $-1 $386 reversed single #
loop $-1 $-1 $270 $167 #
plane-surface $-1 0 -22.059481617182289 0 0 1 0 0 0 1 forward_v I I I I #
coedge $-1 $387 $388 $266 $389 forward $168 $-1 #
coedge $-1 $266 $170 $172 $272 reversed $115 $-1 #
coedge $-1 $170 $265 $264 $389 reversed $115 $-1 #
coedge $-1 $390 $173 $170 $268 forward $274 $-1 #
edge $-1 $276 $391 $267 $392 forward #
coedge $-1 $172 $171 $387 $393 reversed $81 $-1 #
coedge $-1 $394 $395 $171 $271 forward $262 $-1 #
edge $-1 $396 $275 $270 $397 forward #
edge $-1 $398 $276 $265 $399 forward #
coedge $-1 $173 $390 $394 $400 forward $274 $-1 #
loop $-1 $-1 $267 $261 #
vertex $-1 $271 $401 #
vertex $-1 $174 $402 #
straight-curve $-1 43.177587206640837 -8.3995163427478889 1.9305396804886215 0 1 0 I I #
coedge $-1 $278 $278 $-1 $403 reversed $177 $-1 #
edge $-1 $404 $404 $178 $405 forward #
vertex $-1 $181 $406 #
ellipse-curve $-1 40.578244358060978 -16.799032685495778 5.6427861005703051 0.81915205242281985 0 0.57357642473473569 0.86036463710210354 0 -1.2287280786342298 1 I I #
face $-1 $-1 $294 $51 $-1 $407 forward single #
loop $-1 $-1 $408 $182 #
plane-surface $-1 -43.17758720664083 0 0 1 0 0 0 0 -1 forward_v I I I I #
coedge $-1 $409 $410 $411 $412 reversed $183 $-1 #
coedge $-1 $413 $185 $187 $292 forward $124 $-1 #
coedge $-1 $185 $413 $409 $414 forward $124 $-1 #
coedge $-1 $411 $188 $185 $289 forward $294 $-1 #
edge $-1 $296 $415 $288 $416 forward #
coedge $-1 $417 $418 $186 $291 forward $283 $-1 #
edge $-1 $419 $295 $290 $420 forward #
edge $-1 $296 $419 $187 $421 forward #
coedge $-1 $188 $411 $417 $422 forward $294 $-1 #
loop $-1 $-1 $411 $282 #
vertex $-1 $291 $423 #
vertex $-1 $189 $424 #
straight-curve $-1 -51.582466324996403 -20.050403406066522 9.355032520651978 1 0 0 I I #
coedge $-1 $298 $298 $-1 $425 reversed $192 $-1 #
edge $-1 $426 $426 $193 $427 forward #
vertex $-1 $196 $428 #
ellipse-curve $-1 -38.60239661462937 -16.563235157072718 4.9368222230357794 -0.69465837861970381 0 0.71933979245794832 1.0790096886869225 0 1.0419875679295556 1 I I #
face $-1 $-1 $429 $55 $-1 $430 reversed single #
loop $-1 $-1 $203 $197 #
plane-surface $-1 0 0 9.355032520651978 0 0 1 1 0 0 forward_v I I I I #
coedge $-1 $431 $432 $433 $434 reversed $198 $-1 #
coedge $-1 $435 $200 $202 $312 forward $133 $-1 #
coedge $-1 $200 $435 $431 $436 forward $133 $-1 #
coedge $-1 $433 $203 $200 $309 forward $303 $-1 #
edge $-1 $315 $437 $308 $438 forward #
coedge $-1 $439 $440 $201 $311 forward $429 $-1 #
edge $-1 $441 $314 $310 $442 forward #
edge $-1 $315 $441 $202 $443 forward #
coedge $-1 $203 $433 $439 $444 forward $303 $-1 #
vertex $-1 $311 $445 #
vertex $-1 $204 $446 #
straight-curve $-1 -51.582466324996403 -9.0206625974753756 9.355032520651978 1 0 0 I I #
coedge $-1 $317 $317 $-1 $447 reversed $207 $-1 #
edge $-1 $448 $448 $208 $449 forward #
vertex $-1 $211 $450 #
ellipse-curve $-1 -38.60239661462937 -5.5334943484815717 4.9368222230357794 -0.69465837861970381 0 0.71933979245794832 1.0790096886869225 0 1.0419875679295556 1 I I #
face $-1 $-1 $451 $59 $-1 $452 reversed single #
loop $-1 $-1 $218 $212 #
plane-surface $-1 0 0 9.355032520651978 0 0 1 1 0 0 forward_v I I I I #
coedge $-1 $453 $454 $455 $456 reversed $213 $-1 #
coedge $-1 $457 $215 $217 $331 forward $142 $-1 #
coedge $-1 $215 $457 $453 $458 forward $142 $-1 #
coedge $-1 $455 $218 $215 $328 forward $322 $-1 #
edge $-1 $334 $459 $327 $460 forward #
coedge $-1 $461 $462 $216 $330 forward $451 $-1 #
edge $-1 $463 $333 $329 $464 forward #
edge $-1 $334 $463 $217 $465 forward #
coedge $-1 $218 $455 $461 $466 forward $322 $-1 #
vertex $-1 $219 $467 #
vertex $-1 $219 $468 #
straight-curve $-1 -51.582466324996403 2.0090782111157681 9.355032520651978 1 0 0 I I #
coedge $-1 $336 $336 $-1 $469 reversed $222 $-1 #
edge $-1 $470 $470 $223 $471 forward #
vertex $-1 $226 $472 #
ellipse-curve $-1 -38.60239661462937 5.4962464601095711 4.9368222230357794 -0.69465837861970381 0 0.71933979245794832 1.0790096886869225 0 1.0419875679295556 1 I I #
face $-1 $-1 $473 $63 $-1 $474 reversed single #
loop $-1 $-1 $233 $227 #
plane-surface $-1 0 0 9.355032520651978 0 0 1 1 0 0 forward_v I I I I #
coedge $-1 $475 $476 $477 $478 reversed $228 $-1 #
coedge $-1 $479 $230 $232 $350 forward $151 $-1 #
coedge $-1 $230 $479 $475 $480 forward $151 $-1 #
coedge $-1 $477 $233 $230 $347 forward $341 $-1 #
edge $-1 $353 $481 $346 $482 forward #
coedge $-1 $483 $484 $231 $349 forward $473 $-1 #
edge $-1 $485 $352 $348 $486 forward #
edge $-1 $353 $485 $232 $487 forward #
coedge $-1 $233 $477 $483 $488 forward $341 $-1 #
vertex $-1 $234 $489 #
vertex $-1 $234 $490 #
straight-curve $-1 -51.582466324996403 13.03881901970691 9.355032520651978 1 0 0 I I #
coedge $-1 $355 $355 $-1 $491 reversed $237 $-1 #
edge $-1 $492 $492 $238 $493 forward #
vertex $-1 $241 $494 #
ellipse-curve $-1 -38.60239661462937 16.525987268700714 4.9368222230357794 -0.69465837861970381 0 0.71933979245794832 1.0790096886869225 0 1.0419875679295556 1 I I #
face $-1 $-1 $257 $45 $-1 $495 reversed single #
loop $-1 $-1 $375 $242 #
plane-surface $-1 0 22.059481617182289 0 0 -1 0 0 0 -1 forward_v I I I I #
coedge $-1 $496 $373 $376 $497 forward $243 $-1 #
coedge $-1 $379 $245 $246 $367 reversed $160 $-1 #
coedge $-1 $373 $496 $245 $365 reversed $243 $-1 #
edge $-1 $380 $498 $364 $499 forward #
coedge $-1 $247 $246 $496 $500 forward $111 $-1 #
edge $-1 $371 $498 $363 $501 forward #
coedge $-1 $376 $375 $247 $369 reversed $360 $-1 #
edge $-1 $502 $370 $368 $503 forward #
vertex $-1 $249 $504 #
vertex $-1 $382 $505 #
straight-curve $-1 43.17758720664083 0 -9.355032520651978 0 -1 0 I I #
coedge $-1 $362 $364 $250 $374 reversed $243 $-1 #
edge $-1 $377 $380 $373 $506 forward #
coedge $-1 $368 $251 $256 $383 forward $360 $-1 #
coedge $-1 $251 $368 $362 $497 reversed $360 $-1 #
vertex $-1 $252 $507 #
straight-curve $-1 0 22.059481617182289 9.355032520651978 -1 0 0 I I #
coedge $-1 $253 $363 $255 $382 reversed $160 $-1 #
vertex $-1 $374 $508 #
straight-curve $-1 0 -22.059481617182289 9.355032520651978 1 0 0 I I #
edge $-1 $258 $371 $255 $509 forward #
edge $-1 $259 $370 $256 $510 forward #
point $-1 43.17758720664083 -22.059481617182289 9.355032520651978 #
point $-1 43.17758720664083 22.059481617182289 9.355032520651978 #
plane-surface $-1 43.17758720664083 0 0 -1 0 0 0 0 1 forward_v I I I I #
coedge $-1 $511 $264 $269 $393 forward $168 $-1 #
coedge $-1 $264 $511 $390 $512 forward $168 $-1 #
edge $-1 $391 $398 $264 $513 forward #
coedge $-1 $273 $267 $388 $512 reversed $274 $-1 #
vertex $-1 $268 $514 #
straight-curve $-1 43.17758720664083 -11.538583753809267 61.099925117886741 0 0 1 I I #
edge $-1 $398 $396 $387 $515 forward #
coedge $-1 $395 $270 $273 $400 reversed $262 $-1 #
coedge $-1 $270 $394 $511 $516 reversed $262 $-1 #
vertex $-1 $516 $517 #
straight-curve $-1 11.762974203517404 -22.059481617182289 46.795257977580718 0.57357642473473569 0 -0.81915205242281985 I I #
vertex $-1 $393 $518 #
straight-curve $-1 -6.3537049906737764 -11.538583753809267 72.668558038458855 0.57357642473473569 0 -0.81915205242281985 I I #
edge $-1 $519 $275 $273 $520 forward #
point $-1 43.17758720664083 -22.059481617182289 1.9305396804886295 #
point $-1 43.17758720664083 -11.538583753809267 1.9305396804886215 #
edge $-1 $521 $521 $278 $-1 forward #
vertex $-1 $279 $522 #
ellipse-curve $-1 37.673875720517742 -16.799032685495778 3.6091253482025971 0.81915205242281985 0 0.57357642473473569 0.86036463710210354 0 -1.2287280786342298 1 I I #
point $-1 41.438608995163051 -16.799032685495778 4.414058021936059 #
plane-surface $-1 0 0 9.355032520651978 0 0 1 1 0 0 forward_v I I I I #
coedge $-1 $418 $417 $410 $523 forward $283 $-1 #
coedge $-1 $410 $285 $287 $414 reversed $183 $-1 #
coedge $-1 $285 $409 $408 $523 reversed $183 $-1 #
coedge $-1 $293 $288 $285 $412 forward $294 $-1 #
edge $-1 $415 $524 $411 $525 forward #
coedge $-1 $287 $286 $418 $526 reversed $124 $-1 #
edge $-1 $527 $415 $409 $528 forward #
vertex $-1 $289 $529 #
straight-curve $-1 -34.027206022617904 -8.281617578536359 9.355032520651978 0 1 0 I I #
coedge $-1 $408 $290 $293 $422 reversed $283 $-1 #
coedge $-1 $290 $408 $413 $526 forward $283 $-1 #
vertex $-1 $291 $530 #
straight-curve $-1 -43.17758720664083 -20.050403406066522 31.318662582769768 0 0 1 I I #
straight-curve $-1 -43.177587206640837 -20.050403406066522 0.51861192541957735 -0.71933979245794832 0 -0.69465837861970381 I I #
edge $-1 $524 $295 $417 $531 forward #
point $-1 -43.17758720664083 -20.050403406066522 9.355032520651978 #
point $-1 -34.027206022617904 -20.050403406066522 9.355032520651978 #
edge $-1 $532 $532 $298 $-1 forward #
vertex $-1 $299 $533 #
ellipse-curve $-1 -37.042006955193486 -16.563235157072718 3.3209914660492177 -0.69465837861970381 0 0.71933979245794832 1.0790096886869225 0 1.0419875679295556 1 I I #
point $-1 -37.52338692594244 -16.563235157072718 5.9788097909653324 #
loop $-1 $-1 $310 $302 #
plane-surface $-1 -43.17758720664083 0 0 1 0 0 0 0 -1 forward_v I I I I #
coedge $-1 $432 $305 $307 $436 reversed $198 $-1 #
coedge $-1 $305 $431 $534 $535 reversed $198 $-1 #
coedge $-1 $313 $308 $305 $434 forward $303 $-1 #
edge $-1 $437 $536 $433 $537 forward #
coedge $-1 $307 $306 $440 $538 reversed $133 $-1 #
edge $-1 $539 $437 $431 $540 forward #
vertex $-1 $309 $541 #
straight-curve $-1 -34.027206022617904 -2.7667471742407859 9.355032520651978 0 1 0 I I #
coedge $-1 $534 $310 $313 $444 reversed $429 $-1 #
coedge $-1 $310 $534 $435 $538 forward $429 $-1 #
vertex $-1 $311 $542 #
straight-curve $-1 -43.17758720664083 -9.0206625974753756 31.318662582769768 0 0 1 I I #
straight-curve $-1 -43.177587206640837 -9.0206625974753756 0.51861192541957735 -0.71933979245794832 0 -0.69465837861970381 I I #
edge $-1 $536 $314 $439 $543 forward #
point $-1 -43.17758720664083 -9.0206625974753756 9.355032520651978 #
point $-1 -34.027206022617904 -9.0206625974753756 9.355032520651978 #
edge $-1 $544 $544 $317 $-1 forward #
vertex $-1 $318 $545 #
ellipse-curve $-1 -37.042006955193486 -5.5334943484815717 3.3209914660492177 -0.69465837861970381 0 0.71933979245794832 1.0790096886869225 0 1.0419875679295556 1 I I #
point $-1 -37.52338692594244 -5.5334943484815717 5.9788097909653324 #
loop $-1 $-1 $329 $321 #
plane-surface $-1 -43.17758720664083 0 0 1 0 0 0 0 -1 forward_v I I I I #
coedge $-1 $454 $324 $326 $458 reversed $213 $-1 #
coedge $-1 $324 $453 $546 $547 reversed $213 $-1 #
coedge $-1 $332 $327 $324 $456 forward $322 $-1 #
edge $-1 $459 $548 $455 $549 forward #
coedge $-1 $326 $325 $462 $550 reversed $142 $-1 #
edge $-1 $551 $459 $453 $552 forward #
vertex $-1 $328 $553 #
straight-curve $-1 -34.027206022617904 2.7481232300547855 9.355032520651978 0 1 0 I I #
coedge $-1 $546 $329 $332 $466 reversed $451 $-1 #
coedge $-1 $329 $546 $457 $550 forward $451 $-1 #
vertex $-1 $330 $554 #
straight-curve $-1 -43.17758720664083 2.0090782111157681 31.318662582769768 0 0 1 I I #
straight-curve $-1 -43.177587206640837 2.0090782111157681 0.51861192541957735 -0.71933979245794832 0 -0.69465837861970381 I I #
edge $-1 $548 $333 $461 $555 forward #
point $-1 -43.17758720664083 2.0090782111157681 9.355032520651978 #
point $-1 -34.027206022617904 2.0090782111157681 9.355032520651978 #
edge $-1 $556 $556 $336 $-1 forward #
vertex $-1 $337 $557 #
ellipse-curve $-1 -37.042006955193486 5.4962464601095711 3.3209914660492177 -0.69465837861970381 0 0.71933979245794832 1.0790096886869225 0 1.0419875679295556 1 I I #
point $-1 -37.52338692594244 5.4962464601095711 5.9788097909653324 #
loop $-1 $-1 $348 $340 #
plane-surface $-1 -43.17758720664083 0 0 1 0 0 0 0 -1 forward_v I I I I #
coedge $-1 $476 $343 $345 $480 reversed $228 $-1 #
coedge $-1 $343 $475 $558 $559 reversed $228 $-1 #
coedge $-1 $351 $346 $343 $478 forward $341 $-1 #
edge $-1 $481 $560 $477 $561 forward #
coedge $-1 $345 $344 $484 $562 reversed $151 $-1 #
edge $-1 $563 $481 $475 $564 forward #
vertex $-1 $347 $565 #
straight-curve $-1 -34.027206022617904 8.2629936343503569 9.355032520651978 0 1 0 I I #
coedge $-1 $558 $348 $351 $488 reversed $473 $-1 #
coedge $-1 $348 $558 $479 $562 forward $473 $-1 #
vertex $-1 $349 $566 #
straight-curve $-1 -43.17758720664083 13.03881901970691 31.318662582769768 0 0 1 I I #
straight-curve $-1 -43.177587206640837 13.03881901970691 0.51861192541957735 -0.71933979245794832 0 -0.69465837861970381 I I #
edge $-1 $560 $352 $483 $567 forward #
point $-1 -43.17758720664083 13.03881901970691 9.355032520651978 #
point $-1 -34.027206022617904 13.03881901970691 9.355032520651978 #
edge $-1 $568 $568 $355 $-1 forward #
vertex $-1 $356 $569 #
ellipse-curve $-1 -37.042006955193486 16.525987268700714 3.3209914660492177 -0.69465837861970381 0 0.71933979245794832 1.0790096886869225 0 1.0419875679295556 1 I I #
point $-1 -37.52338692594244 16.525987268700714 5.9788097909653324 #
plane-surface $-1 43.17758720664083 0 0 -1 0 0 0 0 1 forward_v I I I I #
coedge $-1 $364 $362 $366 $500 reversed $243 $-1 #
edge $-1 $377 $502 $376 $570 forward #
vertex $-1 $500 $571 #
straight-curve $-1 -43.17758720664083 -22.059481617182289 0 0 0 -1 I I #
edge $-1 $498 $502 $496 $572 forward #
straight-curve $-1 0 -22.059481617182289 -9.355032520651978 -1 0 0 I I #
vertex $-1 $369 $573 #
straight-curve $-1 0 22.059481617182289 -9.355032520651978 1 0 0 I I #
point $-1 43.17758720664083 22.059481617182289 -9.355032520651978 #
point $-1 43.17758720664083 -22.059481617182289 -9.355032520651978 #
straight-curve $-1 -43.17758720664083 0 9.355032520651978 0 -1 0 I I #
point $-1 -43.17758720664083 22.059481617182289 9.355032520651978 #
point $-1 -43.17758720664083 -22.059481617182289 9.355032520651978 #
straight-curve $-1 43.17758720664083 -22.059481617182289 0 0 0 -1 I I #
straight-curve $-1 43.17758720664083 22.059481617182289 0 0 0 -1 I I #
coedge $-1 $388 $387 $395 $516 forward $168 $-1 #
edge $-1 $519 $391 $390 $574 forward #
straight-curve $-1 32.192156683648236 -11.538583753809267 9.3550325206519744 -1 0 0 I I #
point $-1 43.17758720664083 -11.538583753809267 9.355032520651978 #
straight-curve $-1 37.978901509481126 -8.3995163427478889 9.3550325206519744 0 -1 0 I I #
edge $-1 $396 $519 $395 $575 forward #
point $-1 37.978901509481119 -22.059481617182289 9.3550325206519744 #
point $-1 37.978901509481119 -11.538583753809267 9.3550325206519744 #
vertex $-1 $512 $576 #
straight-curve $-1 43.17758720664083 -22.059481617182289 0 0 0 -1 I I #
vertex $-1 $403 $577 #
point $-1 38.534240357619844 -16.799032685495778 2.3803972695683675 #
edge $-1 $524 $527 $408 $578 forward #
vertex $-1 $422 $579 #
straight-curve $-1 -51.582466324996403 -13.076066908078914 9.355032520651978 -1 0 0 I I #
edge $-1 $527 $419 $418 $580 forward #
vertex $-1 $526 $581 #
straight-curve $-1 -43.177587206640837 -13.076066908078914 0.51861192541957735 0.71933979245794832 0 0.69465837861970381 I I #
point $-1 -34.027206022617904 -13.076066908078914 9.355032520651978 #
point $-1 -43.17758720664083 -20.050403406066522 0.51861192541958423 #
straight-curve $-1 -43.17758720664083 0 9.355032520651978 0 -1 0 I I #
vertex $-1 $425 $582 #
point $-1 -35.962997266506562 -16.563235157072718 4.3629790339787728 #
coedge $-1 $440 $439 $432 $535 forward $429 $-1 #
edge $-1 $536 $539 $534 $583 forward #
vertex $-1 $444 $584 #
straight-curve $-1 -51.582466324996403 -2.0463260994877688 9.355032520651978 -1 0 0 I I #
edge $-1 $539 $441 $440 $585 forward #
vertex $-1 $538 $586 #
straight-curve $-1 -43.177587206640837 -2.0463260994877688 0.51861192541957735 0.71933979245794832 0 0.69465837861970381 I I #
point $-1 -34.027206022617904 -2.0463260994877688 9.355032520651978 #
point $-1 -43.17758720664083 -9.0206625974753756 0.51861192541958423 #
straight-curve $-1 -43.17758720664083 0 9.355032520651978 0 -1 0 I I #
vertex $-1 $447 $587 #
point $-1 -35.962997266506562 -5.5334943484815717 4.3629790339787728 #
coedge $-1 $462 $461 $454 $547 forward $451 $-1 #
edge $-1 $548 $551 $546 $588 forward #
vertex $-1 $466 $589 #
straight-curve $-1 -51.582466324996403 8.9834147091033749 9.355032520651978 -1 0 0 I I #
edge $-1 $551 $463 $462 $590 forward #
vertex $-1 $550 $591 #
straight-curve $-1 -43.177587206640837 8.9834147091033749 0.51861192541957735 0.71933979245794832 0 0.69465837861970381 I I #
point $-1 -34.027206022617904 8.9834147091033749 9.355032520651978 #
point $-1 -43.17758720664083 2.0090782111157681 0.51861192541958423 #
straight-curve $-1 -43.17758720664083 0 9.355032520651978 0 -1 0 I I #
vertex $-1 $469 $592 #
point $-1 -35.962997266506562 5.4962464601095711 4.3629790339787728 #
coedge $-1 $484 $483 $476 $559 forward $473 $-1 #
edge $-1 $560 $563 $558 $593 forward #
vertex $-1 $488 $594 #
straight-curve $-1 -51.582466324996403 20.013155517694518 9.355032520651978 -1 0 0 I I #
edge $-1 $563 $485 $484 $595 forward #
vertex $-1 $562 $596 #
straight-curve $-1 -43.177587206640837 20.013155517694518 0.51861192541957735 0.71933979245794832 0 0.69465837861970381 I I #
point $-1 -34.027206022617904 20.013155517694518 9.355032520651978 #
point $-1 -43.17758720664083 13.03881901970691 0.51861192541958423 #
straight-curve $-1 -43.17758720664083 0 9.355032520651978 0 -1 0 I I #
vertex $-1 $491 $597 #
point $-1 -35.962997266506562 16.525987268700714 4.3629790339787728 #
straight-curve $-1 -43.17758720664083 22.059481617182289 0 0 0 -1 I I #
point $-1 -43.17758720664083 -22.059481617182289 -9.355032520651978 #
straight-curve $-1 -43.17758720664083 0 -9.355032520651978 0 1 0 I I #
point $-1 -43.17758720664083 22.059481617182289 -9.355032520651978 #
straight-curve $-1 43.17758720664083 0 9.355032520651978 0 1 0 I I #
straight-curve $-1 0 -22.059481617182289 9.355032520651978 1 0 0 I I #
point $-1 43.17758720664083 -22.059481617182289 9.355032520651978 #
point $-1 36.445147641883509 -16.799032685495778 2.7487607111004939 #
straight-curve $-1 -43.17758720664083 -13.076066908078914 31.318662582769768 0 0 -1 I I #
point $-1 -43.17758720664083 -13.076066908078914 9.355032520651978 #
straight-curve $-1 -43.17758720664083 -8.281617578536359 0.51861192541958934 0 -1 0 I I #
point $-1 -43.17758720664083 -13.076066908078914 0.51861192541958423 #
point $-1 -36.000019387263933 -16.563235157072718 2.241981777362295 #
straight-curve $-1 -43.17758720664083 -2.0463260994877688 31.318662582769768 0 0 -1 I I #
point $-1 -43.17758720664083 -2.0463260994877688 9.355032520651978 #
straight-curve $-1 -43.17758720664083 -2.7667471742407859 0.51861192541958934 0 -1 0 I I #
point $-1 -43.17758720664083 -2.0463260994877688 0.51861192541958423 #
point $-1 -36.000019387263933 -5.5334943484815717 2.241981777362295 #
straight-curve $-1 -43.17758720664083 8.9834147091033749 31.318662582769768 0 0 -1 I I #
point $-1 -43.17758720664083 8.9834147091033749 9.355032520651978 #
straight-curve $-1 -43.17758720664083 2.7481232300547855 0.51861192541958934 0 -1 0 I I #
point $-1 -43.17758720664083 8.9834147091033749 0.51861192541958423 #
point $-1 -36.000019387263933 5.4962464601095711 2.241981777362295 #
straight-curve $-1 -43.17758720664083 20.013155517694518 31.318662582769768 0 0 -1 I I #
point $-1 -43.17758720664083 20.013155517694518 9.355032520651978 #
straight-curve $-1 -43.17758720664083 8.2629936343503569 0.51861192541958934 0 -1 0 I I #
point $-1 -43.17758720664083 20.013155517694518 0.51861192541958423 #
point $-1 -36.000019387263933 16.525987268700714 2.241981777362295 #
End-of-ACIS-data 