600 0 6 0           
94 GICL ACIS Healer - Source: /gicl/data5/repository/Drexel/SM99-DATA/part123.smdg.feat.sat - 6 0 18 ACIS 6.0.3 Solaris 24 Sat Apr 13 20:45:14 2002 
1 9.999999999999999547e-07 1.000000000000000036e-10 
body $-1 $6 $-1 $-1 #
body $-1 $7 $-1 $-1 #
body $-1 $8 $-1 $-1 #
body $-1 $9 $-1 $-1 #
body $-1 $10 $-1 $-1 #
body $-1 $11 $-1 $-1 #
lump $-1 $-1 $12 $0 #
lump $-1 $-1 $13 $1 #
lump $-1 $-1 $14 $2 #
lump $-1 $-1 $15 $3 #
lump $-1 $-1 $16 $4 #
lump $-1 $-1 $17 $5 #
shell $-1 $-1 $-1 $18 $-1 $6 #
shell $-1 $-1 $-1 $19 $-1 $7 #
shell $-1 $-1 $-1 $20 $-1 $8 #
shell $-1 $-1 $-1 $21 $-1 $9 #
shell $-1 $-1 $-1 $22 $-1 $10 #
shell $-1 $-1 $-1 $23 $-1 $11 #
face $-1 $24 $25 $12 $-1 $26 forward single #
face $-1 $27 $28 $13 $-1 $29 forward single #
face $-1 $30 $31 $14 $-1 $32 forward single #
face $-1 $33 $34 $15 $-1 $35 forward single #
face $-1 $36 $37 $16 $-1 $38 forward single #
face $-1 $39 $40 $17 $-1 $41 forward single #
face $-1 $42 $43 $12 $-1 $44 reversed single #
loop $-1 $-1 $45 $18 #
plane-surface $-1 61.92205572679830539 30.72726345733802589 21.61401867657987097 0 0 1 1 0 0 forward_v I I I I #
face $-1 $46 $47 $13 $-1 $48 reversed single #
loop $-1 $-1 $49 $19 #
plane-surface $-1 6.210872402219917099 30.72726345733802589 7.578423960165007855 0 0 1 1 0 0 forward_v I I I I #
face $-1 $50 $51 $14 $-1 $52 reversed single #
loop $-1 $-1 $53 $20 #
plane-surface $-1 25.96928592351002507 181.5206864562975682 240.7612615922812154 0 0.6691306144064093075 0.7431448182313465933 1 0 0 forward_v I I I I #
face $-1 $54 $55 $15 $-1 $56 forward single #
loop $-1 $57 $58 $21 #
cone-surface $-1 25.96928592351002862 56.8161452066033803 17.16786654222406128 0 -0.6691306144064093075 -0.7431448182313465933 1.5 0 0 1 I I 0 1 1.5 forward I I I I #
face $-1 $59 $60 $16 $-1 $61 reversed single #
loop $-1 $-1 $62 $22 #
plane-surface $-1 77.50218482020123645 -181.1477007176956704 185.7991223547937238 0 -0.7313537098837770145 0.6819983511997929071 1 0 0 forward_v I I I I #
face $-1 $63 $64 $17 $-1 $65 forward single #
loop $-1 $66 $67 $23 #
cone-surface $-1 77.50218482020125066 3.030196230284774472 18.47936974936016341 0 0.7313537098837770145 -0.6819983511997929071 1 0 0 1 I I 0 1 1 forward I I I I #
face $-1 $68 $69 $12 $-1 $70 reversed single #
loop $-1 $-1 $71 $24 #
plane-surface $-1 61.92205572679830539 30.72726345733802589 0 0 0 1 1 0 0 forward_v I I I I #
coedge $-1 $72 $73 $74 $75 forward $25 $-1 #
face $-1 $76 $77 $13 $-1 $78 reversed single #
loop $-1 $-1 $79 $27 #
plane-surface $-1 6.210872402219917099 30.72726345733802589 2.17020295343840175 0 0 1 1 0 0 forward_v I I I I #
coedge $-1 $80 $81 $82 $83 forward $28 $-1 #
face $-1 $84 $85 $14 $-1 $86 reversed single #
loop $-1 $-1 $87 $30 #
plane-surface $-1 25.96928592351002507 15.78491368117570914 56.69304220186987209 0 0.6691306144064093075 0.7431448182313465933 1 0 0 forward_v I I I I #
coedge $-1 $88 $89 $90 $91 forward $31 $-1 #
face $-1 $-1 $92 $15 $-1 $93 forward single #
loop $-1 $-1 $94 $33 #
plane-surface $-1 25.96928592351002862 58.09932114129829017 18.59297776298867078 0 0.6691306144064093075 0.7431448182313465933 -1 -0 0 forward_v I I I I #
loop $-1 $-1 $95 $21 #
coedge $-1 $58 $58 $94 $96 reversed $34 $-1 #
face $-1 $97 $98 $16 $-1 $99 reversed single #
loop $-1 $-1 $100 $36 #
plane-surface $-1 77.50218482020123645 -1.421085471520200372e-14 16.87616272048116173 0 -0.7313537098837770145 0.6819983511997929071 1 0 0 forward_v I I I I #
coedge $-1 $101 $102 $103 $104 forward $37 $-1 #
face $-1 $-1 $105 $17 $-1 $106 forward single #
loop $-1 $-1 $107 $39 #
plane-surface $-1 77.50218482020125066 2.209061023834101078 19.24509069853051102 0 -0.7313537098837770145 0.6819983511997929071 -1 0 -0 forward_v I I I I #
loop $-1 $-1 $108 $23 #
coedge $-1 $67 $67 $107 $109 reversed $40 $-1 #
face $-1 $110 $111 $12 $-1 $112 reversed single #
loop $-1 $-1 $113 $42 #
plane-surface $-1 61.92205572679830539 0 10.80700933828993549 0 1 0 0 0 1 forward_v I I I I #
coedge $-1 $114 $115 $116 $117 forward $43 $-1 #
coedge $-1 $118 $45 $119 $120 forward $25 $-1 #
coedge $-1 $45 $118 $121 $122 forward $25 $-1 #
coedge $-1 $123 $124 $45 $75 reversed $125 $-1 #
edge $-1 $126 -30.72726345733802589 $127 30.72726345733802589 $74 $128 forward 7 unknown #
face $-1 $129 $130 $13 $-1 $131 reversed single #
loop $-1 $-1 $132 $46 #
plane-surface $-1 6.210872402219917099 0 4.874313456801704803 0 1 0 0 0 1 forward_v I I I I #
coedge $-1 $133 $134 $135 $136 forward $47 $-1 #
coedge $-1 $137 $49 $138 $139 forward $28 $-1 #
coedge $-1 $49 $137 $140 $141 forward $28 $-1 #
coedge $-1 $142 $143 $49 $83 reversed $144 $-1 #
edge $-1 $145 -30.72726345733802589 $146 30.72726345733802589 $82 $147 forward 7 unknown #
face $-1 $148 $149 $14 $-1 $150 reversed single #
loop $-1 $-1 $151 $50 #
plane-surface $-1 25.96928592351002507 -85.41541932167473306 314.4629246721974027 0 0.7431448182313465933 -0.6691306144064093075 0 0.6691306144064093075 0.7431448182313465933 forward_v I I I I #
coedge $-1 $152 $153 $154 $155 forward $51 $-1 #
coedge $-1 $156 $53 $157 $158 forward $31 $-1 #
coedge $-1 $53 $156 $159 $160 forward $31 $-1 #
coedge $-1 $161 $162 $53 $91 reversed $163 $-1 #
edge $-1 $164 -247.6882229071931931 $165 247.6882229071932215 $90 $166 forward 7 unknown #
loop $-1 $167 $168 $54 #
cone-surface $-1 25.96928592351002862 55.03112131110365368 15.18539670778594086 0 -0.6691306144064093075 -0.7431448182313465933 0.75 0 0 1 I I -0.7071067811865475727 0.7071067811865475727 0.75 forward I I I I #
coedge $-1 $94 $94 $58 $96 forward $55 $-1 #
coedge $-1 $95 $95 $168 $169 forward $57 $-1 #
edge $-1 $170 0 $170 6.283185307179586232 $94 $171 forward 7 unknown #
face $-1 $172 $173 $16 $-1 $174 reversed single #
loop $-1 $-1 $175 $59 #
plane-surface $-1 77.50218482020123645 -259.4968099931604115 -79.81005818005823471 0 0.6819983511997929071 0.7313537098837770145 0 -0.7313537098837770145 0.6819983511997929071 forward_v I I I I #
coedge $-1 $176 $177 $178 $179 forward $60 $-1 #
coedge $-1 $180 $62 $181 $182 forward $37 $-1 #
coedge $-1 $62 $180 $183 $184 forward $37 $-1 #
coedge $-1 $185 $186 $62 $104 reversed $187 $-1 #
edge $-1 $188 -247.6882229071931931 $189 247.6882229071931363 $103 $190 forward 7 unknown #
loop $-1 $191 $192 $63 #
cone-surface $-1 77.50218482020125066 4.217008291677336373 17.37264962458991846 0 0.7313537098837770145 -0.6819983511997929071 0.5 0 0 1 I I -0.7071067811865474617 0.7071067811865474617 0.5 forward I I I I #
coedge $-1 $107 $107 $67 $109 forward $64 $-1 #
coedge $-1 $108 $108 $192 $193 forward $66 $-1 #
edge $-1 $194 0 $194 6.283185307179586232 $107 $195 forward 7 unknown #
face $-1 $196 $197 $12 $-1 $198 reversed single #
loop $-1 $-1 $199 $68 #
plane-surface $-1 0 30.72726345733802589 10.80700933828993549 1 0 0 0 0 -1 forward_v I I I I #
coedge $-1 $200 $121 $201 $202 forward $69 $-1 #
coedge $-1 $203 $71 $200 $204 forward $43 $-1 #
coedge $-1 $71 $203 $205 $206 forward $43 $-1 #
coedge $-1 $124 $123 $71 $117 reversed $125 $-1 #
edge $-1 $207 -30.72726345733802589 $208 30.72726345733802589 $116 $209 forward 7 unknown #
coedge $-1 $73 $72 $210 $211 forward $25 $-1 #
coedge $-1 $212 $213 $72 $120 reversed $197 $-1 #
edge $-1 $127 -61.92205572679830539 $214 61.92205572679830539 $119 $215 forward 7 unknown #
coedge $-1 $113 $216 $73 $122 reversed $69 $-1 #
edge $-1 $217 -61.92205572679830539 $126 61.92205572679830539 $121 $218 forward 7 unknown #
coedge $-1 $116 $74 $216 $219 forward $125 $-1 #
coedge $-1 $74 $116 $212 $220 reversed $125 $-1 #
loop $-1 $-1 $123 $196 #
vertex $-1 $75 $221 #
vertex $-1 $75 $222 #
straight-curve $-1 123.8441114535966108 30.72726345733802589 21.61401867657987097 0 1 0 I I #
face $-1 $223 $224 $13 $-1 $225 reversed single #
loop $-1 $-1 $226 $76 #
plane-surface $-1 0 30.72726345733802589 4.874313456801704803 1 0 0 0 0 -1 forward_v I I I I #
coedge $-1 $227 $140 $228 $229 forward $77 $-1 #
coedge $-1 $230 $79 $227 $231 forward $47 $-1 #
coedge $-1 $79 $230 $232 $233 forward $47 $-1 #
coedge $-1 $143 $142 $79 $136 reversed $144 $-1 #
edge $-1 $234 -30.72726345733802589 $235 30.72726345733802589 $135 $236 forward 7 unknown #
coedge $-1 $81 $80 $237 $238 forward $28 $-1 #
coedge $-1 $239 $240 $80 $139 reversed $224 $-1 #
edge $-1 $146 -6.210872402219917099 $241 6.210872402219917099 $138 $242 forward 7 unknown #
coedge $-1 $132 $243 $81 $141 reversed $77 $-1 #
edge $-1 $244 -6.210872402219917099 $145 6.210872402219917099 $140 $245 forward 7 unknown #
coedge $-1 $135 $82 $243 $246 forward $144 $-1 #
coedge $-1 $82 $135 $239 $247 reversed $144 $-1 #
loop $-1 $-1 $142 $223 #
vertex $-1 $83 $248 #
vertex $-1 $83 $249 #
straight-curve $-1 12.4217448044398342 30.72726345733802589 7.578423960165007855 0 1 0 I I #
face $-1 $250 $251 $14 $-1 $252 reversed single #
loop $-1 $-1 $253 $84 #
plane-surface $-1 12.42174480443983242 98.65280006873663865 148.7271518970755437 1 0 0 0 -0.6691306144064093075 -0.7431448182313465933 forward_v I I I I #
coedge $-1 $254 $159 $255 $256 forward $85 $-1 #
coedge $-1 $257 $87 $254 $258 forward $51 $-1 #
coedge $-1 $87 $257 $259 $260 forward $51 $-1 #
coedge $-1 $162 $161 $87 $155 reversed $163 $-1 #
edge $-1 $261 -247.6882229071931931 $262 247.68822290719325 $154 $263 forward 7 unknown #
coedge $-1 $89 $88 $264 $265 forward $31 $-1 #
coedge $-1 $266 $267 $88 $158 reversed $251 $-1 #
edge $-1 $165 -13.54754111907019265 $268 13.54754111907019265 $157 $269 forward 7 unknown #
coedge $-1 $151 $270 $89 $160 reversed $85 $-1 #
edge $-1 $271 -13.54754111907019265 $164 13.54754111907019265 $159 $272 forward 7 unknown #
coedge $-1 $154 $90 $270 $273 forward $163 $-1 #
coedge $-1 $90 $154 $266 $274 reversed $163 $-1 #
loop $-1 $-1 $161 $250 #
vertex $-1 $91 $275 #
vertex $-1 $91 $276 #
straight-curve $-1 39.51682704258021772 181.5206864562975682 240.7612615922812154 0 0.7431448182313465933 -0.6691306144064093075 I I #
loop $-1 $-1 $277 $54 #
coedge $-1 $168 $168 $95 $169 reversed $92 $-1 #
edge $-1 $278 0 $278 6.283185307179586232 $168 $279 forward 7 unknown #
vertex $-1 $96 $280 #
ellipse-curve $-1 25.96928592351002862 58.09932114129829017 18.59297776298867078 0 0.6691306144064093075 0.7431448182313465933 1.5 0 0 1 I I #
face $-1 $281 $282 $16 $-1 $283 reversed single #
loop $-1 $-1 $284 $97 #
plane-surface $-1 61.10745147738950322 -90.57385035884784941 101.3376425376374357 1 0 0 0 0.7313537098837770145 -0.6819983511997929071 forward_v I I I I #
coedge $-1 $285 $183 $286 $287 forward $98 $-1 #
coedge $-1 $288 $100 $285 $289 forward $60 $-1 #
coedge $-1 $100 $288 $290 $291 forward $60 $-1 #
coedge $-1 $186 $185 $100 $179 reversed $187 $-1 #
edge $-1 $292 -247.6882229071931931 $293 247.6882229071932215 $178 $294 forward 7 unknown #
coedge $-1 $102 $101 $295 $296 forward $37 $-1 #
coedge $-1 $297 $298 $101 $182 reversed $282 $-1 #
edge $-1 $189 -16.39473334281173322 $299 16.39473334281173322 $181 $300 forward 7 unknown #
coedge $-1 $175 $301 $102 $184 reversed $98 $-1 #
edge $-1 $302 -16.39473334281173322 $188 16.39473334281173322 $183 $303 forward 7 unknown #
coedge $-1 $178 $103 $301 $304 forward $187 $-1 #
coedge $-1 $103 $178 $297 $305 reversed $187 $-1 #
loop $-1 $-1 $185 $281 #
vertex $-1 $104 $306 #
vertex $-1 $104 $307 #
straight-curve $-1 93.89691816301296967 -181.1477007176956704 185.7991223547937238 0 0.6819983511997929071 0.7313537098837770145 I I #
loop $-1 $-1 $308 $63 #
coedge $-1 $192 $192 $108 $193 reversed $105 $-1 #
edge $-1 $309 0 $309 6.283185307179586232 $192 $310 forward 7 unknown #
vertex $-1 $109 $311 #
ellipse-curve $-1 77.50218482020125066 2.209061023834101078 19.24509069853051102 0 -0.7313537098837770145 0.6819983511997929071 1 0 0 1 I I #
face $-1 $-1 $125 $12 $-1 $312 reversed single #
loop $-1 $-1 $212 $110 #
plane-surface $-1 61.92205572679830539 61.45452691467605177 10.80700933828993549 0 -1 0 0 0 -1 forward_v I I I I #
coedge $-1 $313 $210 $213 $314 forward $111 $-1 #
coedge $-1 $216 $113 $114 $204 reversed $69 $-1 #
coedge $-1 $210 $313 $113 $202 reversed $111 $-1 #
edge $-1 $217 -10.80700933828993549 $315 10.80700933828993549 $201 $316 forward 7 unknown #
coedge $-1 $115 $114 $313 $317 forward $43 $-1 #
edge $-1 $208 -61.92205572679830539 $315 61.92205572679830539 $200 $318 forward 7 unknown #
coedge $-1 $213 $212 $115 $206 reversed $197 $-1 #
edge $-1 $319 -61.92205572679830539 $207 61.92205572679830539 $205 $320 forward 7 unknown #
vertex $-1 $117 $321 #
vertex $-1 $219 $322 #
straight-curve $-1 123.8441114535966108 30.72726345733802589 0 0 -1 0 I I #
coedge $-1 $199 $201 $118 $211 reversed $111 $-1 #
edge $-1 $214 -30.72726345733802589 $217 30.72726345733802589 $210 $323 forward 7 unknown #
coedge $-1 $205 $119 $124 $220 forward $197 $-1 #
coedge $-1 $119 $205 $199 $314 reversed $197 $-1 #
vertex $-1 $120 $324 #
straight-curve $-1 61.92205572679830539 61.45452691467605177 21.61401867657987097 -1 0 0 I I #
coedge $-1 $121 $200 $123 $219 reversed $69 $-1 #
vertex $-1 $211 $325 #
straight-curve $-1 61.92205572679830539 0 21.61401867657987097 1 0 0 I I #
edge $-1 $126 -10.80700933828993549 $208 10.80700933828993549 $123 $326 forward 7 unknown #
edge $-1 $127 -10.80700933828993549 $207 10.80700933828993549 $124 $327 forward 7 unknown #
point $-1 123.8441114535966108 0 21.61401867657987097 #
point $-1 123.8441114535966108 61.45452691467605177 21.61401867657987097 #
face $-1 $-1 $144 $13 $-1 $328 reversed single #
loop $-1 $-1 $239 $129 #
plane-surface $-1 6.210872402219917099 61.45452691467605177 4.874313456801704803 0 -1 0 0 0 -1 forward_v I I I I #
coedge $-1 $329 $237 $240 $330 forward $130 $-1 #
coedge $-1 $243 $132 $133 $231 reversed $77 $-1 #
coedge $-1 $237 $329 $132 $229 reversed $130 $-1 #
edge $-1 $244 -2.704110503363303053 $331 2.704110503363303053 $228 $332 forward 7 unknown #
coedge $-1 $134 $133 $329 $333 forward $47 $-1 #
edge $-1 $235 -6.210872402219917099 $331 6.210872402219917099 $227 $334 forward 7 unknown #
coedge $-1 $240 $239 $134 $233 reversed $224 $-1 #
edge $-1 $335 -6.210872402219917099 $234 6.210872402219917099 $232 $336 forward 7 unknown #
vertex $-1 $136 $337 #
vertex $-1 $246 $338 #
straight-curve $-1 12.4217448044398342 30.72726345733802589 2.17020295343840175 0 -1 0 I I #
coedge $-1 $226 $228 $137 $238 reversed $130 $-1 #
edge $-1 $241 -30.72726345733802589 $244 30.72726345733802589 $237 $339 forward 7 unknown #
coedge $-1 $232 $138 $143 $247 forward $224 $-1 #
coedge $-1 $138 $232 $226 $330 reversed $224 $-1 #
vertex $-1 $139 $340 #
straight-curve $-1 6.210872402219917099 61.45452691467605177 7.578423960165007855 -1 0 0 I I #
coedge $-1 $140 $227 $142 $246 reversed $77 $-1 #
vertex $-1 $238 $341 #
straight-curve $-1 6.210872402219917099 0 7.578423960165007855 1 0 0 I I #
edge $-1 $145 -2.704110503363303053 $235 2.704110503363303053 $142 $342 forward 7 unknown #
edge $-1 $146 -2.704110503363303053 $234 2.704110503363303053 $143 $343 forward 7 unknown #
point $-1 12.4217448044398342 0 7.578423960165007855 #
point $-1 12.4217448044398342 61.45452691467605177 7.578423960165007855 #
face $-1 $-1 $163 $14 $-1 $344 reversed single #
loop $-1 $-1 $266 $148 #
plane-surface $-1 25.96928592351002507 282.7210194591480104 -17.00862087804631528 0 -0.7431448182313465933 0.6691306144064093075 0 -0.6691306144064093075 -0.7431448182313465933 forward_v I I I I #
coedge $-1 $345 $264 $267 $346 forward $149 $-1 #
coedge $-1 $270 $151 $152 $258 reversed $85 $-1 #
coedge $-1 $264 $345 $151 $256 reversed $149 $-1 #
edge $-1 $271 -123.8441114535965824 $347 123.8441114535966108 $255 $348 forward 7 unknown #
coedge $-1 $153 $152 $345 $349 forward $51 $-1 #
edge $-1 $262 -13.54754111907019265 $347 13.54754111907019265 $254 $350 forward 7 unknown #
coedge $-1 $267 $266 $153 $260 reversed $251 $-1 #
edge $-1 $351 -13.54754111907019265 $261 13.54754111907019265 $259 $352 forward 7 unknown #
vertex $-1 $155 $353 #
vertex $-1 $273 $354 #
straight-curve $-1 39.51682704258021772 15.78491368117570914 56.69304220186987209 0 -0.7431448182313465933 0.6691306144064093075 I I #
coedge $-1 $253 $255 $156 $265 reversed $149 $-1 #
edge $-1 $268 -247.6882229071932215 $271 247.6882229071931931 $264 $355 forward 7 unknown #
coedge $-1 $259 $157 $162 $274 forward $251 $-1 #
coedge $-1 $157 $259 $253 $346 reversed $251 $-1 #
vertex $-1 $158 $356 #
straight-curve $-1 25.96928592351002507 365.5889058467089399 75.02548881715935636 -1 0 0 I I #
coedge $-1 $159 $254 $161 $273 reversed $85 $-1 #
vertex $-1 $265 $357 #
straight-curve $-1 25.96928592351002507 -2.547532934113803549 406.497034367403046 1 0 0 I I #
edge $-1 $164 -123.8441114535965824 $262 123.8441114535966108 $161 $358 forward 7 unknown #
edge $-1 $165 -123.8441114535965966 $261 123.8441114535965824 $162 $359 forward 7 unknown #
point $-1 39.51682704258021772 -2.547532934113803549 406.497034367403046 #
point $-1 39.51682704258021772 365.5889058467089399 75.02548881715935636 #
coedge $-1 $277 $277 $-1 $360 reversed $167 $-1 #
vertex $-1 $169 $361 #
ellipse-curve $-1 25.96928592351002862 55.53296927190846333 15.74275532145945 0 0.6691306144064093075 0.7431448182313465933 1.5 0 0 1 I I #
point $-1 27.46928592351002862 58.09932114129829017 18.59297776298867078 #
face $-1 $-1 $187 $16 $-1 $362 reversed single #
loop $-1 $-1 $297 $172 #
plane-surface $-1 77.50218482020123645 78.3491092754646985 282.4853432553330776 0 -0.6819983511997929071 -0.7313537098837770145 0 0.7313537098837770145 -0.6819983511997929071 forward_v I I I I #
coedge $-1 $363 $295 $298 $364 forward $173 $-1 #
coedge $-1 $301 $175 $176 $289 reversed $98 $-1 #
coedge $-1 $295 $363 $175 $287 reversed $173 $-1 #
edge $-1 $302 -123.8441114535965539 $365 123.8441114535965966 $286 $366 forward 7 unknown #
coedge $-1 $177 $176 $363 $367 forward $60 $-1 #
edge $-1 $293 -16.39473334281173322 $365 16.39473334281173322 $285 $368 forward 7 unknown #
coedge $-1 $298 $297 $177 $291 reversed $282 $-1 #
edge $-1 $369 -16.39473334281173322 $292 16.39473334281173322 $290 $370 forward 7 unknown #
vertex $-1 $179 $371 #
vertex $-1 $304 $372 #
straight-curve $-1 93.89691816301296967 -1.421085471520200372e-14 16.87616272048116173 0 -0.6819983511997929071 -0.7313537098837770145 I I #
coedge $-1 $284 $286 $180 $296 reversed $173 $-1 #
edge $-1 $299 -247.6882229071931363 $302 247.6882229071931931 $295 $373 forward 7 unknown #
coedge $-1 $290 $181 $186 $305 forward $282 $-1 #
coedge $-1 $181 $290 $284 $364 reversed $282 $-1 #
vertex $-1 $182 $374 #
straight-curve $-1 77.50218482020123645 -12.2247410833831367 366.9468230724893374 -1 0 0 I I #
coedge $-1 $183 $285 $185 $304 reversed $98 $-1 #
vertex $-1 $296 $375 #
straight-curve $-1 77.50218482020123645 -350.0706603520081899 4.651421637098039241 1 0 0 I I #
edge $-1 $188 -123.8441114535965539 $293 123.8441114535965966 $185 $376 forward 7 unknown #
edge $-1 $189 -123.8441114535965966 $292 123.8441114535965824 $186 $377 forward 7 unknown #
point $-1 93.89691816301296967 -350.0706603520081899 4.651421637098039241 #
point $-1 93.89691816301296967 -12.2247410833831367 366.9468230724893374 #
coedge $-1 $308 $308 $-1 $378 reversed $191 $-1 #
vertex $-1 $193 $379 #
ellipse-curve $-1 77.50218482020125066 3.851331436735447866 17.7136488001898158 0 -0.7313537098837770145 0.6819983511997929071 1 0 0 1 I I #
point $-1 78.50218482020125066 2.209061023834101078 19.24509069853051102 #
plane-surface $-1 123.8441114535966108 30.72726345733802589 10.80700933828993549 -1 0 0 0 0 1 forward_v I I I I #
coedge $-1 $201 $199 $203 $317 reversed $111 $-1 #
edge $-1 $214 -10.80700933828993549 $319 10.80700933828993549 $213 $380 forward 7 unknown #
vertex $-1 $317 $381 #
straight-curve $-1 0 0 10.80700933828993549 0 0 -1 I I #
edge $-1 $315 -30.72726345733802589 $319 30.72726345733802589 $313 $382 forward 7 unknown #
straight-curve $-1 61.92205572679830539 0 0 -1 0 0 I I #
vertex $-1 $206 $383 #
straight-curve $-1 61.92205572679830539 61.45452691467605177 0 1 0 0 I I #
point $-1 123.8441114535966108 61.45452691467605177 0 #
point $-1 123.8441114535966108 0 0 #
straight-curve $-1 0 30.72726345733802589 21.61401867657987097 0 -1 0 I I #
point $-1 0 61.45452691467605177 21.61401867657987097 #
point $-1 0 0 21.61401867657987097 #
straight-curve $-1 123.8441114535966108 0 10.80700933828993549 0 0 -1 I I #
straight-curve $-1 123.8441114535966108 61.45452691467605177 10.80700933828993549 0 0 -1 I I #
plane-surface $-1 12.4217448044398342 30.72726345733802589 4.874313456801704803 -1 0 0 0 0 1 forward_v I I I I #
coedge $-1 $228 $226 $230 $333 reversed $130 $-1 #
edge $-1 $241 -2.704110503363303053 $335 2.704110503363303053 $240 $384 forward 7 unknown #
vertex $-1 $333 $385 #
straight-curve $-1 0 0 4.874313456801704803 0 0 -1 I I #
edge $-1 $331 -30.72726345733802589 $335 30.72726345733802589 $329 $386 forward 7 unknown #
straight-curve $-1 6.210872402219917099 0 2.17020295343840175 -1 0 0 I I #
vertex $-1 $233 $387 #
straight-curve $-1 6.210872402219917099 61.45452691467605177 2.17020295343840175 1 0 0 I I #
point $-1 12.4217448044398342 61.45452691467605177 2.17020295343840175 #
point $-1 12.4217448044398342 0 2.17020295343840175 #
straight-curve $-1 0 30.72726345733802589 7.578423960165007855 0 -1 0 I I #
point $-1 0 61.45452691467605177 7.578423960165007855 #
point $-1 0 0 7.578423960165007855 #
straight-curve $-1 12.4217448044398342 0 4.874313456801704803 0 0 -1 I I #
straight-curve $-1 12.4217448044398342 61.45452691467605177 4.874313456801704803 0 0 -1 I I #
plane-surface $-1 39.51682704258021772 98.65280006873663865 148.7271518970755437 -1 0 0 0 0.6691306144064093075 0.7431448182313465933 forward_v I I I I #
coedge $-1 $255 $253 $257 $349 reversed $149 $-1 #
edge $-1 $268 -123.8441114535965966 $351 123.8441114535965824 $267 $388 forward 7 unknown #
vertex $-1 $349 $389 #
straight-curve $-1 12.42174480443983242 -85.41541932167473306 314.4629246721974027 0 -0.6691306144064093075 -0.7431448182313465933 I I #
edge $-1 $347 -247.68822290719325 $351 247.6882229071931931 $345 $390 forward 7 unknown #
straight-curve $-1 25.96928592351002507 -168.283305709235691 222.4288149769917311 -1 0 0 I I #
vertex $-1 $260 $391 #
straight-curve $-1 25.96928592351002507 199.8531330715870808 -109.0427305732519585 1 0 0 I I #
point $-1 39.51682704258021772 199.8531330715870808 -109.0427305732519585 #
point $-1 39.51682704258021772 -168.283305709235691 222.4288149769917311 #
straight-curve $-1 12.42174480443983242 181.5206864562975682 240.7612615922812154 0 -0.7431448182313465933 0.6691306144064093075 I I #
point $-1 12.42174480443983242 365.5889058467089399 75.02548881715935636 #
point $-1 12.42174480443983242 -2.547532934113803549 406.497034367403046 #
straight-curve $-1 39.51682704258021772 -85.41541932167473306 314.4629246721974027 0 -0.6691306144064093075 -0.7431448182313465933 I I #
straight-curve $-1 39.51682704258021772 282.7210194591480104 -17.00862087804631528 0 -0.6691306144064093075 -0.7431448182313465933 I I #
edge $-1 $392 1 $392 0 $277 $-1 forward 7 unknown #
point $-1 27.46928592351002862 55.53296927190846333 15.74275532145945 #
plane-surface $-1 93.89691816301296967 -90.57385035884784941 101.3376425376374357 -1 0 0 0 -0.7313537098837770145 0.6819983511997929071 forward_v I I I I #
coedge $-1 $286 $284 $288 $367 reversed $173 $-1 #
edge $-1 $299 -123.8441114535965966 $369 123.8441114535965824 $298 $393 forward 7 unknown #
vertex $-1 $367 $394 #
straight-curve $-1 61.10745147738950322 -259.4968099931604115 -79.81005818005823471 0 0.7313537098837770145 -0.6819983511997929071 I I #
edge $-1 $365 -247.6882229071932215 $369 247.6882229071931931 $363 $395 forward 7 unknown #
straight-curve $-1 77.50218482020123645 -168.9229596343125763 -164.2715379972144945 -1 0 0 I I #
vertex $-1 $291 $396 #
straight-curve $-1 77.50218482020123645 168.9229596343125195 198.0238634381768179 1 0 0 I I #
point $-1 93.89691816301296967 168.9229596343125195 198.0238634381768179 #
point $-1 93.89691816301296967 -168.9229596343125763 -164.2715379972144945 #
straight-curve $-1 61.10745147738950322 -181.1477007176956704 185.7991223547937238 0 -0.6819983511997929071 -0.7313537098837770145 I I #
point $-1 61.10745147738950322 -12.2247410833831367 366.9468230724893374 #
point $-1 61.10745147738950322 -350.0706603520081899 4.651421637098039241 #
straight-curve $-1 93.89691816301296967 -259.4968099931604115 -79.81005818005823471 0 0.7313537098837770145 -0.6819983511997929071 I I #
straight-curve $-1 93.89691816301296967 78.3491092754646985 282.4853432553330776 0 0.7313537098837770145 -0.6819983511997929071 I I #
edge $-1 $397 1 $397 0 $308 $-1 forward 7 unknown #
point $-1 78.50218482020125066 3.851331436735447866 17.7136488001898158 #
straight-curve $-1 0 61.45452691467605177 10.80700933828993549 0 0 -1 I I #
point $-1 0 0 0 #
straight-curve $-1 0 30.72726345733802589 0 0 1 0 I I #
point $-1 0 61.45452691467605177 0 #
straight-curve $-1 0 61.45452691467605177 4.874313456801704803 0 0 -1 I I #
point $-1 0 0 2.17020295343840175 #
straight-curve $-1 0 30.72726345733802589 2.17020295343840175 0 1 0 I I #
point $-1 0 61.45452691467605177 2.17020295343840175 #
straight-curve $-1 12.42174480443983242 282.7210194591480104 -17.00862087804631528 0 -0.6691306144064093075 -0.7431448182313465933 I I #
point $-1 12.42174480443983242 -168.283305709235691 222.4288149769917311 #
straight-curve $-1 12.42174480443983242 15.78491368117570914 56.69304220186987209 0 0.7431448182313465933 -0.6691306144064093075 I I #
point $-1 12.42174480443983242 199.8531330715870808 -109.0427305732519585 #
vertex $-1 $360 $398 #
straight-curve $-1 61.10745147738950322 78.3491092754646985 282.4853432553330776 0 0.7313537098837770145 -0.6819983511997929071 I I #
point $-1 61.10745147738950322 -168.9229596343125763 -164.2715379972144945 #
straight-curve $-1 61.10745147738950322 -1.421085471520200372e-14 16.87616272048116173 0 0.6819983511997929071 0.7313537098837770145 I I #
point $-1 61.10745147738950322 168.9229596343125195 198.0238634381768179 #
vertex $-1 $378 $399 #
point $-1 25.96928592351002862 54.52927335029884404 14.62803809411243172 #
point $-1 77.50218482020125066 4.582685146619224881 17.03165044899002112 #
End-of-ACIS-data 