300 0 9 0           
7 Unknown 11 ACIS 3.0 NT 24 Fri Oct 30 17:43:37 1998 
-1 9.9999999999999995e-007 1e-010 
body $9 $10 $-1 $11 #
body $12 $13 $-1 $14 #
body $15 $16 $-1 $17 #
body $18 $19 $-1 $20 #
body $21 $22 $-1 $23 #
body $24 $25 $-1 $26 #
body $27 $28 $-1 $29 #
body $30 $31 $-1 $32 #
body $33 $34 $-1 $35 #
display_attribute-st-attrib $-1 $36 $-1 $0 1 #
lump $-1 $-1 $37 $0 #
transform $-1 1 0 0 0 1 0 0 0 1 68.359019745475621 44.056696645556634 21.450328550204546 1 rotate no_reflect no_shear #
display_attribute-st-attrib $-1 $38 $-1 $1 3 #
lump $-1 $-1 $39 $1 #
transform $-1 1 0 0 0 1 0 0 0 1 68.359019745475621 44.056696645556634 21.450328550204546 1 rotate no_reflect no_shear #
display_attribute-st-attrib $-1 $40 $-1 $2 3 #
lump $-1 $-1 $41 $2 #
transform $-1 1 0 0 0 1 0 0 0 1 68.359019745475621 44.056696645556634 21.450328550204546 1 rotate no_reflect no_shear #
display_attribute-st-attrib $-1 $42 $-1 $3 3 #
lump $-1 $-1 $43 $3 #
transform $-1 1 0 0 0 1 0 0 0 1 68.359019745475621 44.056696645556634 21.450328550204546 1 rotate no_reflect no_shear #
display_attribute-st-attrib $-1 $44 $-1 $4 3 #
lump $-1 $-1 $45 $4 #
transform $-1 1 0 0 0 1 0 0 0 1 68.359019745475621 44.056696645556634 21.450328550204546 1 rotate no_reflect no_shear #
display_attribute-st-attrib $-1 $46 $-1 $5 3 #
lump $-1 $-1 $47 $5 #
transform $-1 1 0 0 0 1 0 0 0 1 68.359019745475621 44.056696645556634 21.450328550204546 1 rotate no_reflect no_shear #
display_attribute-st-attrib $-1 $48 $-1 $6 3 #
lump $-1 $-1 $49 $6 #
transform $-1 1 0 0 0 1 0 0 0 1 68.359019745475621 44.056696645556634 21.450328550204546 1 rotate no_reflect no_shear #
display_attribute-st-attrib $-1 $50 $-1 $7 3 #
lump $-1 $-1 $51 $7 #
transform $-1 1 0 0 0 1 0 0 0 1 68.359019745475621 44.056696645556634 21.450328550204546 1 rotate no_reflect no_shear #
display_attribute-st-attrib $-1 $52 $-1 $8 3 #
lump $-1 $-1 $53 $8 #
transform $-1 1 0 0 0 1 0 0 0 1 68.359019745475621 44.056696645556634 21.450328550204546 1 rotate no_reflect no_shear #
id_attribute-st-attrib $-1 $-1 $9 $0 375 #
shell $-1 $-1 $-1 $54 $-1 $10 #
id_attribute-st-attrib $-1 $-1 $12 $1 380 #
shell $-1 $-1 $-1 $55 $-1 $13 #
id_attribute-st-attrib $-1 $-1 $15 $2 394 #
shell $-1 $-1 $-1 $56 $-1 $16 #
id_attribute-st-attrib $-1 $-1 $18 $3 402 #
shell $-1 $-1 $-1 $57 $-1 $19 #
id_attribute-st-attrib $-1 $-1 $21 $4 411 #
shell $-1 $-1 $-1 $58 $-1 $22 #
id_attribute-st-attrib $-1 $-1 $24 $5 421 #
shell $-1 $-1 $-1 $59 $-1 $25 #
id_attribute-st-attrib $-1 $-1 $27 $6 437 #
shell $-1 $-1 $-1 $60 $-1 $28 #
id_attribute-st-attrib $-1 $-1 $30 $7 449 #
shell $-1 $-1 $-1 $61 $-1 $31 #
id_attribute-st-attrib $-1 $-1 $33 $8 462 #
shell $-1 $-1 $-1 $62 $-1 $34 #
face $-1 $63 $64 $37 $-1 $65 forward single #
face $-1 $66 $67 $39 $-1 $68 forward single #
face $-1 $69 $70 $41 $-1 $71 reversed single #
face $-1 $72 $73 $43 $-1 $74 forward single #
face $-1 $75 $76 $45 $-1 $77 forward single #
face $-1 $78 $79 $47 $-1 $80 forward single #
face $-1 $81 $82 $49 $-1 $83 reversed single #
face $-1 $84 $85 $51 $-1 $86 forward single #
face $-1 $87 $88 $53 $-1 $89 forward single #
face $-1 $90 $91 $37 $-1 $92 reversed single #
loop $-1 $-1 $93 $54 #
plane-surface $-1 0 0 21.450328550204546 0 0 1 1 0 0 forward_v I I I I #
face $-1 $94 $95 $39 $-1 $96 reversed single #
loop $-1 $-1 $97 $55 #
plane-surface $-1 0 -33.042911643671324 -15.545678339409081 0 0 1 1 0 0 forward_v I I I I #
face $-1 $98 $99 $41 $-1 $100 reversed single #
loop $-1 $-1 $101 $56 #
plane-surface $-1 44.795766191460487 -12.049999927608868 199.29093795294196 0 -1 0 -0.61566148304635926 0 -0.78801074757464917 forward_v I I I I #
face $-1 $102 $103 $43 $-1 $104 forward single #
loop $-1 $105 $106 $57 #
cone-surface $-1 59.048907831527195 -20.033301298950587 14.022970148588604 -0.61566148304635926 0 -0.78801074757464917 0.19700268689366229 0 -0.15391537076158981 1 I I 0 1 forward I I I I #
face $-1 $107 $108 $45 $-1 $109 forward single #
loop $-1 $110 $111 $58 #
cone-surface $-1 59.048907831527195 -17.03956328469744 14.022970148588604 -0.61566148304635926 0 -0.78801074757464917 0.19700268689366229 0 -0.15391537076158981 1 I I 0 1 forward I I I I #
face $-1 $112 $113 $47 $-1 $114 forward single #
loop $-1 $115 $116 $59 #
cone-surface $-1 59.048907831527195 -14.045825270444293 14.022970148588604 -0.61566148304635926 0 -0.78801074757464917 0.19700268689366229 0 -0.15391537076158981 1 I I 0 1 forward I I I I #
face $-1 $117 $118 $49 $-1 $119 reversed single #
loop $-1 $-1 $120 $60 #
plane-surface $-1 -177.54690207135826 26.791934137953277 97.202748872987996 0 1 0 -0.79863551827123203 0 0.60181501223851219 forward_v I I I I #
face $-1 $121 $122 $51 $-1 $123 forward single #
loop $-1 $124 $125 $61 #
cone-surface $-1 -64.090953455105733 31.724723425839947 16.823865438359519 0.79863551827123203 0 -0.60181501223851219 0.90272251835776829 0 1.197953277406848 1 I I 0 1 forward I I I I #
face $-1 $126 $127 $53 $-1 $128 forward single #
loop $-1 $129 $130 $62 #
cone-surface $-1 -64.090953455105733 39.123907357669957 16.823865438359519 0.79863551827123203 0 -0.60181501223851219 0.90272251835776829 0 1.197953277406848 1 I I 0 1 forward I I I I #
face $-1 $131 $132 $37 $-1 $133 reversed single #
loop $-1 $-1 $134 $63 #
plane-surface $-1 0 0 -21.450328550204546 0 0 1 1 0 0 forward_v I I I I #
coedge $-1 $135 $136 $137 $138 forward $64 $-1 #
face $-1 $139 $140 $39 $-1 $141 reversed single #
loop $-1 $-1 $142 $66 #
plane-surface $-1 0 -22.029126641786014 -18.498003444806812 0 -1 0 0 0 -1 forward_v I I I I #
coedge $-1 $143 $144 $145 $146 reversed $67 $-1 #
face $-1 $147 $148 $41 $-1 $149 reversed single #
loop $-1 $-1 $150 $69 #
plane-surface $-1 -39.376264760729271 -17.039563284697444 91.555653446737068 0.61566148304635926 0 0.78801074757464917 0.78801074757464917 0 -0.61566148304635926 forward_v I I I I #
coedge $-1 $151 $152 $153 $154 reversed $70 $-1 #
face $-1 $-1 $155 $43 $-1 $156 forward single #
loop $-1 $157 $158 $72 #
cone-surface $-1 58.664119404623221 -20.033301298950587 13.530463431354448 -0.61566148304635926 0 -0.78801074757464917 0.098501343446831147 0 -0.076957685380794907 1 I I -0.70710678118654746 0.70710678118654746 forward I I I I #
loop $-1 $-1 $159 $57 #
coedge $-1 $106 $106 $160 $161 reversed $73 $-1 #
face $-1 $-1 $162 $45 $-1 $163 forward single #
loop $-1 $164 $165 $75 #
cone-surface $-1 58.664119404623221 -17.03956328469744 13.530463431354448 -0.61566148304635926 0 -0.78801074757464917 0.098501343446831147 0 -0.076957685380794907 1 I I -0.70710678118654746 0.70710678118654746 forward I I I I #
loop $-1 $-1 $166 $58 #
coedge $-1 $111 $111 $167 $168 reversed $76 $-1 #
face $-1 $-1 $169 $47 $-1 $170 forward single #
loop $-1 $171 $172 $78 #
cone-surface $-1 58.664119404623221 -14.045825270444293 13.530463431354448 -0.61566148304635926 0 -0.78801074757464917 0.098501343446831147 0 -0.076957685380794907 1 I I -0.70710678118654746 0.70710678118654746 forward I I I I #
loop $-1 $-1 $173 $59 #
coedge $-1 $116 $116 $174 $175 reversed $79 $-1 #
face $-1 $176 $177 $49 $-1 $178 reversed single #
loop $-1 $-1 $179 $81 #
plane-surface $-1 -68.359019745475649 35.424315391754952 14.923780263515781 -0.79863551827123203 0 0.60181501223851219 0.60181501223851219 0 0.79863551827123203 forward_v I I I I #
coedge $-1 $180 $181 $182 $183 reversed $82 $-1 #
face $-1 $-1 $184 $51 $-1 $185 forward single #
loop $-1 $186 $187 $84 #
cone-surface $-1 -61.682963903429865 31.724723425839947 15.009315210679986 0.79863551827123203 0 -0.60181501223851219 0.45136125917888414 0 0.59897663870342399 1 I I -0.70710678118654757 0.70710678118654757 forward I I I I #
loop $-1 $-1 $188 $61 #
coedge $-1 $125 $125 $189 $190 reversed $85 $-1 #
face $-1 $-1 $191 $53 $-1 $192 forward single #
loop $-1 $193 $194 $87 #
cone-surface $-1 -61.682963903429865 39.123907357669957 15.009315210679986 0.79863551827123203 0 -0.60181501223851219 0.45136125917888414 0 0.59897663870342399 1 I I -0.70710678118654757 0.70710678118654757 forward I I I I #
loop $-1 $-1 $195 $62 #
coedge $-1 $130 $130 $196 $197 reversed $88 $-1 #
face $-1 $198 $199 $37 $-1 $200 reversed single #
loop $-1 $-1 $201 $90 #
plane-surface $-1 0 -44.056696645556634 0 0 1 0 0 0 1 forward_v I I I I #
coedge $-1 $202 $203 $204 $205 forward $91 $-1 #
coedge $-1 $206 $93 $207 $208 forward $64 $-1 #
coedge $-1 $93 $206 $209 $210 forward $64 $-1 #
coedge $-1 $211 $212 $93 $138 reversed $213 $-1 #
edge $-1 $214 $215 $137 $216 forward #
face $-1 $217 $218 $39 $-1 $219 reversed single #
loop $-1 $-1 $220 $94 #
plane-surface $-1 0 0 -21.450328550204546 0 0 1 1 0 0 forward_v I I I I #
coedge $-1 $221 $222 $223 $224 reversed $95 $-1 #
coedge $-1 $225 $97 $222 $226 forward $67 $-1 #
coedge $-1 $97 $225 $227 $228 reversed $67 $-1 #
coedge $-1 $229 $223 $97 $146 forward $218 $-1 #
edge $-1 $230 $231 $145 $232 forward #
face $-1 $233 $234 $41 $-1 $235 reversed single #
loop $-1 $-1 $236 $98 #
plane-surface $-1 44.795766191460487 -22.029126641786021 199.29093795294196 0 1 0 0.61566148304635926 0 0.78801074757464917 forward_v I I I I #
coedge $-1 $237 $238 $239 $240 reversed $99 $-1 #
coedge $-1 $152 $101 $241 $242 reversed $70 $-1 #
coedge $-1 $101 $151 $237 $243 reversed $70 $-1 #
coedge $-1 $239 $244 $101 $154 forward $245 $-1 #
edge $-1 $246 $247 $153 $248 forward #
loop $-1 $-1 $160 $102 #
plane-surface $-1 -39.376264760729271 -17.039563284697444 91.555653446737068 0.61566148304635926 0 0.78801074757464917 0.78801074757464917 0 -0.61566148304635926 forward_v I I I I #
loop $-1 $-1 $249 $72 #
coedge $-1 $158 $158 $159 $250 reversed $103 $-1 #
coedge $-1 $159 $159 $158 $250 forward $105 $-1 #
coedge $-1 $160 $160 $106 $161 forward $155 $-1 #
edge $-1 $251 $251 $160 $252 forward #
loop $-1 $-1 $167 $107 #
plane-surface $-1 -39.376264760729271 -17.039563284697444 91.555653446737068 0.61566148304635926 0 0.78801074757464917 0.78801074757464917 0 -0.61566148304635926 forward_v I I I I #
loop $-1 $-1 $253 $75 #
coedge $-1 $165 $165 $166 $254 reversed $108 $-1 #
coedge $-1 $166 $166 $165 $254 forward $110 $-1 #
coedge $-1 $167 $167 $111 $168 forward $162 $-1 #
edge $-1 $255 $255 $167 $256 forward #
loop $-1 $-1 $174 $112 #
plane-surface $-1 -39.376264760729271 -17.039563284697444 91.555653446737068 0.61566148304635926 0 0.78801074757464917 0.78801074757464917 0 -0.61566148304635926 forward_v I I I I #
loop $-1 $-1 $257 $78 #
coedge $-1 $172 $172 $173 $258 reversed $113 $-1 #
coedge $-1 $173 $173 $172 $258 forward $115 $-1 #
coedge $-1 $174 $174 $116 $175 forward $169 $-1 #
edge $-1 $259 $259 $174 $260 forward #
face $-1 $261 $262 $49 $-1 $263 reversed single #
loop $-1 $-1 $264 $117 #
plane-surface $-1 0 44.056696645556634 0 0 -1 0 0 0 -1 forward_v I I I I #
coedge $-1 $265 $266 $267 $268 reversed $118 $-1 #
coedge $-1 $181 $120 $269 $270 reversed $82 $-1 #
coedge $-1 $120 $180 $265 $271 reversed $82 $-1 #
coedge $-1 $267 $272 $120 $183 forward $273 $-1 #
edge $-1 $274 $275 $182 $276 forward #
loop $-1 $-1 $189 $121 #
plane-surface $-1 -68.359019745475649 35.424315391754952 14.923780263515781 -0.79863551827123203 0 0.60181501223851219 0.60181501223851219 0 0.79863551827123203 forward_v I I I I #
loop $-1 $-1 $277 $84 #
coedge $-1 $187 $187 $188 $278 reversed $122 $-1 #
coedge $-1 $188 $188 $187 $278 forward $124 $-1 #
coedge $-1 $189 $189 $125 $190 forward $184 $-1 #
edge $-1 $279 $279 $189 $280 forward #
loop $-1 $-1 $196 $126 #
plane-surface $-1 -68.359019745475649 35.424315391754952 14.923780263515781 -0.79863551827123203 0 0.60181501223851219 0.60181501223851219 0 0.79863551827123203 forward_v I I I I #
loop $-1 $-1 $281 $87 #
coedge $-1 $194 $194 $195 $282 reversed $127 $-1 #
coedge $-1 $195 $195 $194 $282 forward $129 $-1 #
coedge $-1 $196 $196 $130 $197 forward $191 $-1 #
edge $-1 $283 $283 $196 $284 forward #
face $-1 $285 $286 $37 $-1 $287 reversed single #
loop $-1 $-1 $288 $131 #
plane-surface $-1 -68.359019745475621 0 0 1 0 0 0 0 -1 forward_v I I I I #
coedge $-1 $289 $209 $290 $291 forward $132 $-1 #
coedge $-1 $292 $134 $289 $293 forward $91 $-1 #
coedge $-1 $134 $292 $294 $295 forward $91 $-1 #
coedge $-1 $212 $211 $134 $205 reversed $213 $-1 #
edge $-1 $296 $297 $204 $298 forward #
coedge $-1 $136 $135 $299 $300 forward $64 $-1 #
coedge $-1 $301 $302 $135 $208 reversed $286 $-1 #
edge $-1 $215 $303 $207 $304 forward #
coedge $-1 $201 $305 $136 $210 reversed $132 $-1 #
edge $-1 $306 $214 $209 $307 forward #
coedge $-1 $204 $137 $305 $308 forward $213 $-1 #
coedge $-1 $137 $204 $301 $309 reversed $213 $-1 #
loop $-1 $-1 $211 $285 #
vertex $-1 $138 $310 #
vertex $-1 $138 $311 #
straight-curve $-1 68.359019745475621 0 21.450328550204546 0 1 0 I I #
face $-1 $312 $313 $39 $-1 $314 reversed single #
loop $-1 $-1 $223 $139 #
plane-surface $-1 68.359019745475621 0 0 -1 0 0 0 0 1 forward_v I I I I #
coedge $-1 $315 $316 $221 $317 forward $140 $-1 #
coedge $-1 $318 $142 $220 $317 reversed $95 $-1 #
coedge $-1 $142 $318 $143 $226 reversed $95 $-1 #
coedge $-1 $145 $319 $142 $224 forward $218 $-1 #
edge $-1 $320 $230 $223 $321 forward #
coedge $-1 $144 $143 $322 $323 reversed $67 $-1 #
edge $-1 $230 $324 $222 $325 forward #
coedge $-1 $326 $327 $144 $228 forward $313 $-1 #
edge $-1 $231 $328 $227 $329 forward #
coedge $-1 $319 $145 $327 $330 forward $218 $-1 #
vertex $-1 $146 $331 #
vertex $-1 $330 $332 #
straight-curve $-1 68.359019745475621 -16.521455821835662 -15.545678339409081 0 -1 0 I I #
face $-1 $-1 $245 $41 $-1 $333 forward single #
loop $-1 $-1 $334 $147 #
plane-surface $-1 68.359019745475621 0 0 -1 0 0 0 0 1 forward_v I I I I #
coedge $-1 $335 $336 $337 $338 reversed $148 $-1 #
coedge $-1 $339 $150 $152 $243 forward $99 $-1 #
coedge $-1 $150 $339 $335 $340 forward $99 $-1 #
coedge $-1 $337 $153 $150 $240 forward $245 $-1 #
edge $-1 $247 $341 $239 $342 forward #
coedge $-1 $343 $344 $151 $242 forward $234 $-1 #
edge $-1 $345 $246 $241 $346 forward #
edge $-1 $247 $345 $152 $347 forward #
coedge $-1 $153 $337 $343 $348 forward $245 $-1 #
loop $-1 $-1 $337 $233 #
vertex $-1 $242 $349 #
vertex $-1 $154 $350 #
straight-curve $-1 22.397883095730243 -12.049999927608868 21.450328550204546 -1 0 0 I I #
coedge $-1 $249 $249 $-1 $351 reversed $157 $-1 #
edge $-1 $352 $352 $158 $353 forward #
vertex $-1 $161 $354 #
ellipse-curve $-1 59.356738573050372 -20.033301298950587 14.416975522375928 0.61566148304635926 0 0.78801074757464917 0.19700268689366229 0 -0.15391537076158981 1 I I #
coedge $-1 $253 $253 $-1 $355 reversed $164 $-1 #
edge $-1 $356 $356 $165 $357 forward #
vertex $-1 $168 $358 #
ellipse-curve $-1 59.356738573050372 -17.03956328469744 14.416975522375928 0.61566148304635926 0 0.78801074757464917 0.19700268689366229 0 -0.15391537076158981 1 I I #
coedge $-1 $257 $257 $-1 $359 reversed $171 $-1 #
edge $-1 $360 $360 $172 $361 forward #
vertex $-1 $175 $362 #
ellipse-curve $-1 59.356738573050372 -14.045825270444293 14.416975522375928 0.61566148304635926 0 0.78801074757464917 0.19700268689366229 0 -0.15391537076158981 1 I I #
face $-1 $-1 $273 $49 $-1 $363 forward single #
loop $-1 $-1 $364 $176 #
plane-surface $-1 -68.359019745475621 0 0 1 0 0 0 0 -1 forward_v I I I I #
coedge $-1 $365 $366 $266 $367 forward $177 $-1 #
coedge $-1 $368 $179 $181 $271 forward $118 $-1 #
coedge $-1 $179 $368 $264 $367 reversed $118 $-1 #
coedge $-1 $369 $182 $179 $268 forward $273 $-1 #
edge $-1 $275 $370 $267 $371 forward #
coedge $-1 $372 $364 $180 $270 forward $262 $-1 #
edge $-1 $373 $274 $269 $374 forward #
edge $-1 $275 $373 $181 $375 forward #
coedge $-1 $182 $369 $372 $376 forward $273 $-1 #
loop $-1 $-1 $267 $261 #
vertex $-1 $270 $377 #
vertex $-1 $183 $378 #
straight-curve $-1 -88.77345103567913 26.791934137953277 21.450328550204546 1 0 0 I I #
coedge $-1 $277 $277 $-1 $379 reversed $186 $-1 #
edge $-1 $380 $380 $187 $381 forward #
vertex $-1 $190 $382 #
ellipse-curve $-1 -65.899966368078211 31.724723425839947 18.187054406860184 -0.79863551827123203 0 0.60181501223851219 0.90272251835776829 0 1.197953277406848 1 I I #
coedge $-1 $281 $281 $-1 $383 reversed $193 $-1 #
edge $-1 $384 $384 $194 $385 forward #
vertex $-1 $197 $386 #
ellipse-curve $-1 -65.899966368078211 39.123907357669957 18.187054406860184 -0.79863551827123203 0 0.60181501223851219 0.90272251835776829 0 1.197953277406848 1 I I #
face $-1 $-1 $213 $37 $-1 $387 reversed single #
loop $-1 $-1 $301 $198 #
plane-surface $-1 0 44.056696645556634 0 0 -1 0 0 0 -1 forward_v I I I I #
coedge $-1 $388 $299 $302 $389 forward $199 $-1 #
coedge $-1 $305 $201 $202 $293 reversed $132 $-1 #
coedge $-1 $299 $388 $201 $291 reversed $199 $-1 #
edge $-1 $306 $390 $290 $391 forward #
coedge $-1 $203 $202 $388 $392 forward $91 $-1 #
edge $-1 $297 $390 $289 $393 forward #
coedge $-1 $302 $301 $203 $295 reversed $286 $-1 #
edge $-1 $394 $296 $294 $395 forward #
vertex $-1 $205 $396 #
vertex $-1 $308 $397 #
straight-curve $-1 68.359019745475621 0 -21.450328550204546 0 -1 0 I I #
coedge $-1 $288 $290 $206 $300 reversed $199 $-1 #
edge $-1 $303 $306 $299 $398 forward #
coedge $-1 $294 $207 $212 $309 forward $286 $-1 #
coedge $-1 $207 $294 $288 $389 reversed $286 $-1 #
vertex $-1 $208 $399 #
straight-curve $-1 0 44.056696645556634 21.450328550204546 -1 0 0 I I #
coedge $-1 $209 $289 $211 $308 reversed $132 $-1 #
vertex $-1 $300 $400 #
straight-curve $-1 0 -44.056696645556634 21.450328550204546 1 0 0 I I #
edge $-1 $214 $297 $211 $401 forward #
edge $-1 $215 $296 $212 $402 forward #
point $-1 68.359019745475621 -44.056696645556634 21.450328550204546 #
point $-1 68.359019745475621 44.056696645556634 21.450328550204546 #
face $-1 $-1 $403 $39 $-1 $404 reversed single #
loop $-1 $-1 $227 $217 #
plane-surface $-1 0 -44.056696645556634 0 0 1 0 0 0 1 forward_v I I I I #
coedge $-1 $405 $220 $319 $406 forward $140 $-1 #
coedge $-1 $220 $405 $407 $408 forward $140 $-1 #
edge $-1 $409 $320 $220 $410 forward #
coedge $-1 $222 $221 $411 $412 reversed $95 $-1 #
coedge $-1 $223 $229 $315 $406 reversed $218 $-1 #
vertex $-1 $406 $413 #
straight-curve $-1 68.359019745475621 -22.029126641786014 -9.2490017224034062 0 0 1 I I #
coedge $-1 $411 $414 $225 $323 forward $403 $-1 #
edge $-1 $328 $324 $322 $415 forward #
vertex $-1 $323 $416 #
straight-curve $-1 0 -22.029126641786014 -15.545678339409081 -1 0 0 I I #
coedge $-1 $417 $227 $414 $418 forward $313 $-1 #
coedge $-1 $227 $417 $229 $330 reversed $313 $-1 #
vertex $-1 $418 $419 #
straight-curve $-1 0 -44.056696645556634 -15.545678339409081 -1 0 0 I I #
edge $-1 $231 $420 $229 $421 forward #
point $-1 68.359019745475621 -22.029126641786014 -15.545678339409081 #
point $-1 68.359019745475621 -44.056696645556634 -15.545678339409081 #
plane-surface $-1 0 0 21.450328550204546 0 0 1 1 0 0 forward_v I I I I #
coedge $-1 $344 $343 $336 $422 forward $234 $-1 #
coedge $-1 $336 $236 $238 $340 reversed $148 $-1 #
coedge $-1 $236 $335 $334 $422 reversed $148 $-1 #
coedge $-1 $244 $239 $236 $338 forward $245 $-1 #
edge $-1 $341 $423 $337 $424 forward #
coedge $-1 $238 $237 $344 $425 reversed $99 $-1 #
edge $-1 $426 $341 $335 $427 forward #
vertex $-1 $240 $428 #
straight-curve $-1 50.354457400625122 -8.5197816423487218 21.450328550204539 0 -1 0 I I #
coedge $-1 $334 $241 $244 $348 reversed $234 $-1 #
coedge $-1 $241 $334 $339 $425 forward $234 $-1 #
vertex $-1 $242 $429 #
straight-curve $-1 68.359019745475621 -12.049999927608868 99.64546897647098 0 0 1 I I #
straight-curve $-1 -39.376264760729271 -12.049999927608868 91.555653446737068 0.78801074757464917 0 -0.61566148304635926 I I #
edge $-1 $423 $246 $343 $430 forward #
point $-1 68.359019745475621 -12.049999927608868 21.450328550204546 #
point $-1 50.354457400625122 -12.049999927608868 21.450328550204546 #
edge $-1 $431 $431 $249 $-1 forward #
vertex $-1 $250 $432 #
ellipse-curve $-1 58.741077090004019 -20.033301298950587 13.628964774801279 0.61566148304635926 0 0.78801074757464917 0.19700268689366229 0 -0.15391537076158981 1 I I #
point $-1 59.55374125994404 -20.033301298950587 14.263060151614338 #
edge $-1 $433 $433 $253 $-1 forward #
vertex $-1 $254 $434 #
ellipse-curve $-1 58.741077090004019 -17.03956328469744 13.628964774801279 0.61566148304635926 0 0.78801074757464917 0.19700268689366229 0 -0.15391537076158981 1 I I #
point $-1 59.55374125994404 -17.03956328469744 14.263060151614338 #
edge $-1 $435 $435 $257 $-1 forward #
vertex $-1 $258 $436 #
ellipse-curve $-1 58.741077090004019 -14.045825270444293 13.628964774801279 0.61566148304635926 0 0.78801074757464917 0.19700268689366229 0 -0.15391537076158981 1 I I #
point $-1 59.55374125994404 -14.045825270444293 14.263060151614338 #
plane-surface $-1 0 0 21.450328550204546 0 0 1 1 0 0 forward_v I I I I #
coedge $-1 $269 $437 $368 $438 forward $262 $-1 #
coedge $-1 $366 $264 $437 $439 reversed $177 $-1 #
coedge $-1 $264 $365 $369 $440 reversed $177 $-1 #
edge $-1 $370 $441 $264 $442 forward #
coedge $-1 $266 $265 $364 $438 reversed $118 $-1 #
coedge $-1 $272 $267 $366 $440 forward $273 $-1 #
vertex $-1 $440 $443 #
straight-curve $-1 -63.440912990680786 17.712157695877476 21.450328550204546 0 1 0 I I #
coedge $-1 $437 $269 $272 $376 reversed $262 $-1 #
vertex $-1 $270 $444 #
straight-curve $-1 -68.359019745475621 26.791934137953277 48.601374436493998 0 0 1 I I #
straight-curve $-1 -68.359019745475649 26.791934137953277 14.923780263515781 -0.60181501223851219 0 -0.79863551827123203 I I #
edge $-1 $445 $274 $372 $446 forward #
point $-1 -68.359019745475621 26.791934137953277 21.450328550204546 #
point $-1 -63.440912990680786 26.791934137953277 21.450328550204546 #
edge $-1 $447 $447 $277 $-1 forward #
vertex $-1 $278 $448 #
ellipse-curve $-1 -62.281940542133292 31.724723425839947 15.460676469858871 -0.79863551827123203 0 0.60181501223851219 0.90272251835776829 0 1.197953277406848 1 I I #
point $-1 -64.997243849720419 31.724723425839947 19.385007684267013 #
edge $-1 $449 $449 $281 $-1 forward #
vertex $-1 $282 $450 #
ellipse-curve $-1 -62.281940542133292 39.123907357669957 15.460676469858871 -0.79863551827123203 0 0.60181501223851219 0.90272251835776829 0 1.197953277406848 1 I I #
point $-1 -64.997243849720419 39.123907357669957 19.385007684267013 #
plane-surface $-1 68.359019745475621 0 0 -1 0 0 0 0 1 forward_v I I I I #
coedge $-1 $290 $288 $292 $392 reversed $199 $-1 #
edge $-1 $303 $394 $302 $451 forward #
vertex $-1 $392 $452 #
straight-curve $-1 -68.359019745475621 -44.056696645556634 0 0 0 -1 I I #
edge $-1 $390 $394 $388 $453 forward #
straight-curve $-1 0 -44.056696645556634 -21.450328550204546 -1 0 0 I I #
vertex $-1 $295 $454 #
straight-curve $-1 0 44.056696645556634 -21.450328550204546 1 0 0 I I #
point $-1 68.359019745475621 44.056696645556634 -21.450328550204546 #
point $-1 68.359019745475621 -44.056696645556634 -21.450328550204546 #
straight-curve $-1 -68.359019745475621 0 21.450328550204546 0 -1 0 I I #
point $-1 -68.359019745475621 44.056696645556634 21.450328550204546 #
point $-1 -68.359019745475621 -44.056696645556634 21.450328550204546 #
straight-curve $-1 68.359019745475621 -44.056696645556634 0 0 0 -1 I I #
straight-curve $-1 68.359019745475621 44.056696645556634 0 0 0 -1 I I #
loop $-1 $-1 $411 $312 #
plane-surface $-1 -68.359019745475621 0 0 1 0 0 0 0 -1 forward_v I I I I #
coedge $-1 $316 $315 $417 $455 forward $140 $-1 #
edge $-1 $320 $420 $319 $456 forward #
coedge $-1 $414 $411 $316 $408 reversed $403 $-1 #
edge $-1 $457 $409 $407 $458 forward #
vertex $-1 $412 $459 #
straight-curve $-1 0 -22.029126641786014 -21.450328550204546 1 0 0 I I #
coedge $-1 $407 $322 $318 $412 forward $403 $-1 #
edge $-1 $324 $409 $411 $460 forward #
point $-1 68.359019745475621 -22.029126641786014 -21.450328550204546 #
coedge $-1 $322 $407 $326 $418 reversed $403 $-1 #
straight-curve $-1 -68.359019745475621 -16.521455821835662 -15.545678339409081 0 1 0 I I #
point $-1 -68.359019745475621 -22.029126641786014 -15.545678339409081 #
coedge $-1 $327 $326 $405 $455 reversed $313 $-1 #
edge $-1 $328 $457 $414 $461 forward #
point $-1 -68.359019745475621 -44.056696645556634 -15.545678339409081 #
vertex $-1 $330 $462 #
straight-curve $-1 68.359019745475621 -44.056696645556634 0 0 0 -1 I I #
edge $-1 $423 $426 $334 $463 forward #
vertex $-1 $348 $464 #
straight-curve $-1 22.397883095730243 -22.029126641786021 21.450328550204546 1 0 0 I I #
edge $-1 $426 $345 $344 $465 forward #
vertex $-1 $425 $466 #
straight-curve $-1 -39.376264760729271 -22.029126641786021 91.555653446737068 -0.78801074757464917 0 0.61566148304635926 I I #
point $-1 50.354457400625122 -22.029126641786021 21.450328550204546 #
point $-1 68.359019745475621 -12.049999927608868 7.3836224945473106 #
straight-curve $-1 68.359019745475621 0 21.450328550204546 0 1 0 I I #
vertex $-1 $351 $467 #
point $-1 58.938079776897681 -20.033301298950587 13.475049404039689 #
vertex $-1 $355 $468 #
point $-1 58.938079776897681 -17.03956328469744 13.475049404039689 #
vertex $-1 $359 $469 #
point $-1 58.938079776897681 -14.045825270444293 13.475049404039689 #
coedge $-1 $364 $372 $365 $439 forward $262 $-1 #
edge $-1 $441 $373 $364 $470 forward #
edge $-1 $445 $441 $365 $471 forward #
edge $-1 $370 $445 $366 $472 forward #
vertex $-1 $367 $473 #
straight-curve $-1 -59.566254673678415 44.056696645556634 26.592173951523215 -0.60181501223851219 0 -0.79863551827123203 I I #
point $-1 -63.440912990680786 44.056696645556627 21.450328550204546 #
point $-1 -68.359019745475621 26.791934137953277 14.923780263515818 #
vertex $-1 $440 $474 #
straight-curve $-1 -68.359019745475621 0 21.450328550204546 0 -1 0 I I #
vertex $-1 $379 $475 #
point $-1 -61.379218023775522 31.724723425839947 16.658629747265717 #
vertex $-1 $383 $476 #
point $-1 -61.379218023775522 39.123907357669957 16.658629747265717 #
straight-curve $-1 -68.359019745475621 44.056696645556634 0 0 0 -1 I I #
point $-1 -68.359019745475621 -44.056696645556634 -21.450328550204546 #
straight-curve $-1 -68.359019745475621 0 -21.450328550204546 0 1 0 I I #
point $-1 -68.359019745475621 44.056696645556634 -21.450328550204546 #
edge $-1 $420 $457 $417 $477 forward #
straight-curve $-1 68.359019745475621 0 -21.450328550204546 0 -1 0 I I #
vertex $-1 $408 $478 #
straight-curve $-1 -68.359019745475621 0 -21.450328550204546 0 1 0 I I #
point $-1 -68.359019745475621 -22.029126641786014 -21.450328550204546 #
straight-curve $-1 -68.359019745475621 -22.029126641786014 -9.2490017224034062 0 0 -1 I I #
straight-curve $-1 -68.359019745475621 -44.056696645556634 0 0 0 -1 I I #
point $-1 68.359019745475621 -44.056696645556634 -21.450328550204546 #
straight-curve $-1 68.359019745475621 -22.029126641786021 99.64546897647098 0 0 -1 I I #
point $-1 68.359019745475621 -22.029126641786021 21.450328550204546 #
straight-curve $-1 68.359019745475621 -8.5197816423487218 7.3836224945473177 0 1 0 I I #
point $-1 68.359019745475621 -22.029126641786021 7.3836224945473106 #
point $-1 58.587161719242424 -20.033301298950587 13.431962087907618 #
point $-1 58.587161719242424 -17.03956328469744 13.431962087907618 #
point $-1 58.587161719242424 -14.045825270444293 13.431962087907618 #
straight-curve $-1 -68.359019745475621 17.712157695877476 14.923780263515827 0 -1 0 I I #
straight-curve $-1 -68.359019745475621 44.056696645556634 0 0 0 -1 I I #
straight-curve $-1 0 44.056696645556634 21.450328550204546 -1 0 0 I I #
point $-1 -68.359019745475621 44.056696645556627 14.923780263515818 #
point $-1 -68.359019745475621 44.056696645556634 21.450328550204546 #
point $-1 -61.083987264726439 31.724723425839947 14.557953951501101 #
point $-1 -61.083987264726439 39.123907357669957 14.557953951501101 #
straight-curve $-1 0 -44.056696645556634 -21.450328550204546 -1 0 0 I I #
point $-1 -68.359019745475621 -44.056696645556634 -21.450328550204546 #
End-of-ACIS-data 