300 0 11 0           
7 Unknown 11 ACIS 3.0 NT 24 Fri Oct 30 14:06:40 1998 
-1 9.9999999999999995e-007 1e-010 
body $11 $12 $-1 $13 #
body $14 $15 $-1 $16 #
body $17 $18 $-1 $19 #
body $20 $21 $-1 $22 #
body $23 $24 $-1 $25 #
body $26 $27 $-1 $28 #
body $29 $30 $-1 $31 #
body $32 $33 $-1 $34 #
body $35 $36 $-1 $37 #
body $38 $39 $-1 $40 #
body $41 $42 $-1 $43 #
display_attribute-st-attrib $-1 $44 $-1 $0 1 #
lump $-1 $-1 $45 $0 #
transform $-1 1 0 0 0 1 0 0 0 1 45.254066591387677 26.615197244055 9.7391949069305301 1 rotate no_reflect no_shear #
display_attribute-st-attrib $-1 $46 $-1 $1 10 #
lump $-1 $-1 $47 $1 #
transform $-1 1 0 0 0 1 0 0 0 1 45.254066591387677 26.615197244055 9.7391949069305301 1 rotate no_reflect no_shear #
display_attribute-st-attrib $-1 $48 $-1 $2 9 #
lump $-1 $-1 $49 $2 #
transform $-1 1 0 0 0 1 0 0 0 1 45.254066591387677 26.615197244055 9.7391949069305301 1 rotate no_reflect no_shear #
display_attribute-st-attrib $-1 $50 $-1 $3 8 #
lump $-1 $-1 $51 $3 #
transform $-1 1 0 0 0 1 0 0 0 1 45.254066591387677 26.615197244055 9.7391949069305301 1 rotate no_reflect no_shear #
display_attribute-st-attrib $-1 $52 $-1 $4 7 #
lump $-1 $-1 $53 $4 #
transform $-1 1 0 0 0 1 0 0 0 1 45.254066591387677 26.615197244055 9.7391949069305301 1 rotate no_reflect no_shear #
display_attribute-st-attrib $-1 $54 $-1 $5 6 #
lump $-1 $-1 $55 $5 #
transform $-1 1 0 0 0 1 0 0 0 1 45.254066591387677 26.615197244055 9.7391949069305301 1 rotate no_reflect no_shear #
display_attribute-st-attrib $-1 $56 $-1 $6 5 #
lump $-1 $-1 $57 $6 #
transform $-1 1 0 0 0 1 0 0 0 1 45.254066591387677 26.615197244055 9.7391949069305301 1 rotate no_reflect no_shear #
display_attribute-st-attrib $-1 $58 $-1 $7 4 #
lump $-1 $-1 $59 $7 #
transform $-1 1 0 0 0 1 0 0 0 1 45.254066591387677 26.615197244055 9.7391949069305301 1 rotate no_reflect no_shear #
display_attribute-st-attrib $-1 $60 $-1 $8 3 #
lump $-1 $-1 $61 $8 #
transform $-1 1 0 0 0 1 0 0 0 1 45.254066591387677 26.615197244055 9.7391949069305301 1 rotate no_reflect no_shear #
display_attribute-st-attrib $-1 $62 $-1 $9 2 #
lump $-1 $-1 $63 $9 #
transform $-1 1 0 0 0 1 0 0 0 1 45.254066591387677 26.615197244055 9.7391949069305301 1 rotate no_reflect no_shear #
display_attribute-st-attrib $-1 $64 $-1 $10 1 #
lump $-1 $-1 $65 $10 #
transform $-1 1 0 0 0 1 0 0 0 1 45.254066591387677 26.615197244055 9.7391949069305301 1 rotate no_reflect no_shear #
id_attribute-st-attrib $-1 $-1 $11 $0 545 #
shell $-1 $-1 $-1 $66 $-1 $12 #
id_attribute-st-attrib $-1 $-1 $14 $1 553 #
shell $-1 $-1 $-1 $67 $-1 $15 #
id_attribute-st-attrib $-1 $-1 $17 $2 561 #
shell $-1 $-1 $-1 $68 $-1 $18 #
id_attribute-st-attrib $-1 $-1 $20 $3 580 #
shell $-1 $-1 $-1 $69 $-1 $21 #
id_attribute-st-attrib $-1 $-1 $23 $4 589 #
shell $-1 $-1 $-1 $70 $-1 $24 #
id_attribute-st-attrib $-1 $-1 $26 $5 599 #
shell $-1 $-1 $-1 $71 $-1 $27 #
id_attribute-st-attrib $-1 $-1 $29 $6 610 #
shell $-1 $-1 $-1 $72 $-1 $30 #
id_attribute-st-attrib $-1 $-1 $32 $7 622 #
shell $-1 $-1 $-1 $73 $-1 $33 #
id_attribute-st-attrib $-1 $-1 $35 $8 635 #
shell $-1 $-1 $-1 $74 $-1 $36 #
id_attribute-st-attrib $-1 $-1 $38 $9 649 #
shell $-1 $-1 $-1 $75 $-1 $39 #
id_attribute-st-attrib $-1 $-1 $41 $10 664 #
shell $-1 $-1 $-1 $76 $-1 $42 #
face $-1 $77 $78 $45 $-1 $79 forward single #
face $-1 $80 $81 $47 $-1 $82 forward single #
face $-1 $83 $84 $49 $-1 $85 forward single #
face $-1 $86 $87 $51 $-1 $88 reversed single #
face $-1 $89 $90 $53 $-1 $91 forward single #
face $-1 $92 $93 $55 $-1 $94 forward single #
face $-1 $95 $96 $57 $-1 $97 forward single #
face $-1 $98 $99 $59 $-1 $100 reversed single #
face $-1 $101 $102 $61 $-1 $103 forward single #
face $-1 $104 $105 $63 $-1 $106 forward single #
face $-1 $107 $108 $65 $-1 $109 forward single #
face $-1 $110 $111 $45 $-1 $112 reversed single #
loop $-1 $-1 $113 $66 #
plane-surface $-1 0 0 9.7391949069305301 0 0 1 1 0 0 forward_v I I I I #
face $-1 $114 $115 $47 $-1 $116 reversed single #
loop $-1 $-1 $117 $67 #
plane-surface $-1 0 -21.735003693954948 -3.6212403536928655 0 0 1 1 0 0 forward_v I I I I #
face $-1 $118 $119 $49 $-1 $120 reversed single #
loop $-1 $-1 $121 $68 #
plane-surface $-1 0 21.735003693954948 -3.6212403536928655 0 0 1 1 0 0 forward_v I I I I #
face $-1 $122 $123 $51 $-1 $124 reversed single #
loop $-1 $-1 $125 $69 #
plane-surface $-1 -109.25298206001401 -4.5899311942185079 67.480704522159115 0 -1 0 0.70710678939079041 0 -0.70710677298230451 forward_v I I I I #
face $-1 $126 $127 $53 $-1 $128 forward single #
loop $-1 $129 $130 $70 #
cone-surface $-1 -41.725090720174173 -11.128459049316422 6.2102189724035615 0.70710678939079041 0 -0.70710677298230451 0.35355338649115226 0 0.35355339469539521 1 I I 0 1 forward I I I I #
face $-1 $131 $132 $55 $-1 $133 forward single #
loop $-1 $134 $135 $71 #
cone-surface $-1 -41.725090720174173 -8.676511103654704 6.2102189724035615 0.70710678939079041 0 -0.70710677298230451 0.35355338649115226 0 0.35355339469539521 1 I I 0 1 forward I I I I #
face $-1 $136 $137 $57 $-1 $138 forward single #
loop $-1 $139 $140 $72 #
cone-surface $-1 -41.725090720174173 -6.2245631579929857 6.2102189724035615 0.70710678939079041 0 -0.70710677298230451 0.35355338649115226 0 0.35355339469539521 1 I I 0 1 forward I I I I #
face $-1 $141 $142 $59 $-1 $143 reversed single #
loop $-1 $-1 $144 $73 #
plane-surface $-1 -109.25298206001401 12.264878949636387 67.480704522159115 0 -1 0 0.70710678939079041 0 -0.70710677298230451 forward_v I I I I #
face $-1 $145 $146 $61 $-1 $147 forward single #
loop $-1 $148 $149 $74 #
cone-surface $-1 -41.725090720174173 5.7263510945384688 6.2102189724035615 0.70710678939079041 0 -0.70710677298230451 0.35355338649115226 0 0.35355339469539521 1 I I 0 1 forward I I I I #
face $-1 $150 $151 $63 $-1 $152 forward single #
loop $-1 $153 $154 $75 #
cone-surface $-1 -41.725090720174173 8.1782990402001907 6.2102189724035615 0.70710678939079041 0 -0.70710677298230451 0.35355338649115226 0 0.35355339469539521 1 I I 0 1 forward I I I I #
face $-1 $155 $156 $65 $-1 $157 forward single #
loop $-1 $158 $159 $76 #
cone-surface $-1 -41.725090720174173 10.630246985861913 6.2102189724035615 0.70710678939079041 0 -0.70710677298230451 0.35355338649115226 0 0.35355339469539521 1 I I 0 1 forward I I I I #
face $-1 $160 $161 $45 $-1 $162 reversed single #
loop $-1 $-1 $163 $77 #
plane-surface $-1 0 0 -9.7391949069305301 0 0 1 1 0 0 forward_v I I I I #
coedge $-1 $164 $165 $166 $167 forward $78 $-1 #
face $-1 $168 $169 $47 $-1 $170 reversed single #
loop $-1 $-1 $171 $80 #
plane-surface $-1 0 -21.735003693954948 -6.6212403536928655 0 0 1 1 0 0 forward_v I I I I #
coedge $-1 $172 $173 $174 $175 reversed $81 $-1 #
face $-1 $176 $177 $49 $-1 $178 reversed single #
loop $-1 $-1 $179 $83 #
plane-surface $-1 0 21.735003693954948 -6.6212403536928655 0 0 1 1 0 0 forward_v I I I I #
coedge $-1 $180 $181 $182 $183 reversed $84 $-1 #
face $-1 $184 $185 $51 $-1 $186 reversed single #
loop $-1 $-1 $187 $86 #
plane-surface $-1 -45.254066591387662 -8.676511103654704 3.4817905386342005 -0.70710678939079041 0 0.70710677298230451 0.70710677298230451 0 0.70710678939079041 forward_v I I I I #
coedge $-1 $188 $189 $190 $191 reversed $87 $-1 #
face $-1 $-1 $192 $53 $-1 $193 forward single #
loop $-1 $194 $195 $89 #
cone-surface $-1 -41.148040263159274 -11.128459049316422 5.6331685287791817 0.70710678939079041 0 -0.70710677298230451 0.17677669324557613 0 0.1767766973476976 1 I I -0.70710678118654746 0.70710678118654746 forward I I I I #
loop $-1 $-1 $196 $70 #
coedge $-1 $130 $130 $197 $198 reversed $90 $-1 #
face $-1 $-1 $199 $55 $-1 $200 forward single #
loop $-1 $201 $202 $92 #
cone-surface $-1 -41.148040263159274 -8.676511103654704 5.6331685287791817 0.70710678939079041 0 -0.70710677298230451 0.17677669324557613 0 0.1767766973476976 1 I I -0.70710678118654746 0.70710678118654746 forward I I I I #
loop $-1 $-1 $203 $71 #
coedge $-1 $135 $135 $204 $205 reversed $93 $-1 #
face $-1 $-1 $206 $57 $-1 $207 forward single #
loop $-1 $208 $209 $95 #
cone-surface $-1 -41.148040263159274 -6.2245631579929857 5.6331685287791817 0.70710678939079041 0 -0.70710677298230451 0.17677669324557613 0 0.1767766973476976 1 I I -0.70710678118654746 0.70710678118654746 forward I I I I #
loop $-1 $-1 $210 $72 #
coedge $-1 $140 $140 $211 $212 reversed $96 $-1 #
face $-1 $213 $214 $59 $-1 $215 reversed single #
loop $-1 $-1 $216 $98 #
plane-surface $-1 -45.254066591387662 8.1782990402001907 3.4817905386342005 -0.70710678939079041 0 0.70710677298230451 0.70710677298230451 0 0.70710678939079041 forward_v I I I I #
coedge $-1 $217 $218 $219 $220 reversed $99 $-1 #
face $-1 $-1 $221 $61 $-1 $222 forward single #
loop $-1 $223 $224 $101 #
cone-surface $-1 -41.148040263159274 5.7263510945384688 5.6331685287791817 0.70710678939079041 0 -0.70710677298230451 0.17677669324557613 0 0.1767766973476976 1 I I -0.70710678118654746 0.70710678118654746 forward I I I I #
loop $-1 $-1 $225 $74 #
coedge $-1 $149 $149 $226 $227 reversed $102 $-1 #
face $-1 $-1 $228 $63 $-1 $229 forward single #
loop $-1 $230 $231 $104 #
cone-surface $-1 -41.148040263159274 8.1782990402001907 5.6331685287791817 0.70710678939079041 0 -0.70710677298230451 0.17677669324557613 0 0.1767766973476976 1 I I -0.70710678118654746 0.70710678118654746 forward I I I I #
loop $-1 $-1 $232 $75 #
coedge $-1 $154 $154 $233 $234 reversed $105 $-1 #
face $-1 $-1 $235 $65 $-1 $236 forward single #
loop $-1 $237 $238 $107 #
cone-surface $-1 -41.148040263159274 10.630246985861913 5.6331685287791817 0.70710678939079041 0 -0.70710677298230451 0.17677669324557613 0 0.1767766973476976 1 I I -0.70710678118654746 0.70710678118654746 forward I I I I #
loop $-1 $-1 $239 $76 #
coedge $-1 $159 $159 $240 $241 reversed $108 $-1 #
face $-1 $242 $243 $45 $-1 $244 reversed single #
loop $-1 $-1 $245 $110 #
plane-surface $-1 0 -26.615197244055 0 0 1 0 0 0 1 forward_v I I I I #
coedge $-1 $246 $247 $248 $249 forward $111 $-1 #
coedge $-1 $250 $113 $251 $252 forward $78 $-1 #
coedge $-1 $113 $250 $253 $254 forward $78 $-1 #
coedge $-1 $255 $256 $113 $167 reversed $257 $-1 #
edge $-1 $258 $259 $166 $260 forward #
face $-1 $261 $262 $47 $-1 $263 reversed single #
loop $-1 $-1 $264 $114 #
plane-surface $-1 0 -16.854810143854895 -5.1212403536928655 0 -1 0 0 0 -1 forward_v I I I I #
coedge $-1 $265 $266 $267 $268 reversed $115 $-1 #
coedge $-1 $269 $117 $270 $271 forward $81 $-1 #
coedge $-1 $117 $269 $272 $273 reversed $81 $-1 #
coedge $-1 $274 $275 $117 $175 forward $276 $-1 #
edge $-1 $277 $278 $174 $279 forward #
face $-1 $280 $281 $49 $-1 $282 reversed single #
loop $-1 $-1 $283 $118 #
plane-surface $-1 0 16.854810143854895 -5.1212403536928655 0 1 0 0 0 1 forward_v I I I I #
coedge $-1 $284 $285 $286 $287 reversed $119 $-1 #
coedge $-1 $288 $121 $289 $290 reversed $84 $-1 #
coedge $-1 $121 $288 $291 $292 forward $84 $-1 #
coedge $-1 $293 $294 $121 $183 forward $281 $-1 #
edge $-1 $295 $296 $182 $297 forward #
face $-1 $298 $299 $51 $-1 $300 reversed single #
loop $-1 $-1 $301 $122 #
plane-surface $-1 -109.25298206001401 -12.7630910130909 67.480704522159115 0 1 0 -0.70710678939079041 0 0.70710677298230451 forward_v I I I I #
coedge $-1 $302 $303 $304 $305 reversed $123 $-1 #
coedge $-1 $189 $125 $306 $307 reversed $87 $-1 #
coedge $-1 $125 $188 $302 $308 reversed $87 $-1 #
coedge $-1 $304 $309 $125 $191 forward $299 $-1 #
edge $-1 $310 $311 $190 $312 forward #
loop $-1 $-1 $197 $126 #
plane-surface $-1 -45.254066591387662 -8.676511103654704 3.4817905386342005 -0.70710678939079041 0 0.70710677298230451 0.70710677298230451 0 0.70710678939079041 forward_v I I I I #
loop $-1 $-1 $313 $89 #
coedge $-1 $195 $195 $196 $314 reversed $127 $-1 #
coedge $-1 $196 $196 $195 $314 forward $129 $-1 #
coedge $-1 $197 $197 $130 $198 forward $192 $-1 #
edge $-1 $315 $315 $197 $316 forward #
loop $-1 $-1 $204 $131 #
plane-surface $-1 -45.254066591387662 -8.676511103654704 3.4817905386342005 -0.70710678939079041 0 0.70710677298230451 0.70710677298230451 0 0.70710678939079041 forward_v I I I I #
loop $-1 $-1 $317 $92 #
coedge $-1 $202 $202 $203 $318 reversed $132 $-1 #
coedge $-1 $203 $203 $202 $318 forward $134 $-1 #
coedge $-1 $204 $204 $135 $205 forward $199 $-1 #
edge $-1 $319 $319 $204 $320 forward #
loop $-1 $-1 $211 $136 #
plane-surface $-1 -45.254066591387662 -8.676511103654704 3.4817905386342005 -0.70710678939079041 0 0.70710677298230451 0.70710677298230451 0 0.70710678939079041 forward_v I I I I #
loop $-1 $-1 $321 $95 #
coedge $-1 $209 $209 $210 $322 reversed $137 $-1 #
coedge $-1 $210 $210 $209 $322 forward $139 $-1 #
coedge $-1 $211 $211 $140 $212 forward $206 $-1 #
edge $-1 $323 $323 $211 $324 forward #
face $-1 $325 $326 $59 $-1 $327 forward single #
loop $-1 $-1 $328 $141 #
plane-surface $-1 -109.25298206001401 4.0917191307639946 67.480704522159115 0 1 0 -0.70710678939079041 0 0.70710677298230451 forward_v I I I I #
coedge $-1 $329 $330 $331 $332 reversed $142 $-1 #
coedge $-1 $218 $144 $333 $334 reversed $99 $-1 #
coedge $-1 $144 $217 $329 $335 reversed $99 $-1 #
coedge $-1 $331 $336 $144 $220 forward $337 $-1 #
edge $-1 $338 $339 $219 $340 forward #
loop $-1 $-1 $226 $145 #
plane-surface $-1 -45.254066591387662 8.1782990402001907 3.4817905386342005 -0.70710678939079041 0 0.70710677298230451 0.70710677298230451 0 0.70710678939079041 forward_v I I I I #
loop $-1 $-1 $341 $101 #
coedge $-1 $224 $224 $225 $342 reversed $146 $-1 #
coedge $-1 $225 $225 $224 $342 forward $148 $-1 #
coedge $-1 $226 $226 $149 $227 forward $221 $-1 #
edge $-1 $343 $343 $226 $344 forward #
loop $-1 $-1 $233 $150 #
plane-surface $-1 -45.254066591387662 8.1782990402001907 3.4817905386342005 -0.70710678939079041 0 0.70710677298230451 0.70710677298230451 0 0.70710678939079041 forward_v I I I I #
loop $-1 $-1 $345 $104 #
coedge $-1 $231 $231 $232 $346 reversed $151 $-1 #
coedge $-1 $232 $232 $231 $346 forward $153 $-1 #
coedge $-1 $233 $233 $154 $234 forward $228 $-1 #
edge $-1 $347 $347 $233 $348 forward #
loop $-1 $-1 $240 $155 #
plane-surface $-1 -45.254066591387662 8.1782990402001907 3.4817905386342005 -0.70710678939079041 0 0.70710677298230451 0.70710677298230451 0 0.70710678939079041 forward_v I I I I #
loop $-1 $-1 $349 $107 #
coedge $-1 $238 $238 $239 $350 reversed $156 $-1 #
coedge $-1 $239 $239 $238 $350 forward $158 $-1 #
coedge $-1 $240 $240 $159 $241 forward $235 $-1 #
edge $-1 $351 $351 $240 $352 forward #
face $-1 $353 $354 $45 $-1 $355 reversed single #
loop $-1 $-1 $356 $160 #
plane-surface $-1 -45.254066591387677 0 0 1 0 0 0 0 -1 forward_v I I I I #
coedge $-1 $357 $253 $358 $359 forward $161 $-1 #
coedge $-1 $360 $163 $357 $361 forward $111 $-1 #
coedge $-1 $163 $360 $362 $363 forward $111 $-1 #
coedge $-1 $256 $255 $163 $249 reversed $257 $-1 #
edge $-1 $364 $365 $248 $366 forward #
coedge $-1 $165 $164 $367 $368 forward $78 $-1 #
coedge $-1 $369 $370 $164 $252 reversed $354 $-1 #
edge $-1 $259 $371 $251 $372 forward #
coedge $-1 $245 $373 $165 $254 reversed $161 $-1 #
edge $-1 $374 $258 $253 $375 forward #
coedge $-1 $248 $166 $373 $376 forward $257 $-1 #
coedge $-1 $166 $248 $369 $377 reversed $257 $-1 #
loop $-1 $-1 $255 $353 #
vertex $-1 $167 $378 #
vertex $-1 $167 $379 #
straight-curve $-1 45.254066591387677 0 9.7391949069305301 0 1 0 I I #
face $-1 $380 $381 $47 $-1 $382 reversed single #
loop $-1 $-1 $383 $168 #
plane-surface $-1 -45.254066591387677 0 0 1 0 0 0 0 -1 forward_v I I I I #
coedge $-1 $384 $270 $275 $385 reversed $169 $-1 #
coedge $-1 $386 $171 $387 $388 reversed $115 $-1 #
coedge $-1 $171 $386 $384 $389 forward $115 $-1 #
coedge $-1 $275 $274 $171 $268 forward $276 $-1 #
edge $-1 $390 $391 $267 $392 forward #
coedge $-1 $173 $172 $383 $393 reversed $81 $-1 #
coedge $-1 $264 $394 $172 $271 reversed $169 $-1 #
edge $-1 $277 $395 $270 $396 forward #
coedge $-1 $397 $398 $173 $273 forward $381 $-1 #
edge $-1 $278 $399 $272 $400 forward #
coedge $-1 $267 $174 $398 $401 forward $276 $-1 #
coedge $-1 $174 $267 $264 $385 forward $276 $-1 #
loop $-1 $-1 $174 $380 #
vertex $-1 $175 $402 #
vertex $-1 $401 $403 #
straight-curve $-1 45.254066591387677 -10.867501846977474 -3.6212403536928655 0 -1 0 I I #
face $-1 $404 $405 $49 $-1 $406 reversed single #
loop $-1 $-1 $182 $176 #
plane-surface $-1 45.254066591387677 0 0 -1 0 0 0 0 1 forward_v I I I I #
coedge $-1 $407 $291 $408 $409 reversed $177 $-1 #
coedge $-1 $410 $179 $407 $411 forward $119 $-1 #
coedge $-1 $179 $410 $412 $413 reversed $119 $-1 #
coedge $-1 $294 $293 $179 $287 forward $281 $-1 #
edge $-1 $414 $415 $286 $416 forward #
coedge $-1 $181 $180 $417 $418 reversed $84 $-1 #
coedge $-1 $419 $420 $180 $290 forward $421 $-1 #
edge $-1 $422 $295 $289 $423 forward #
coedge $-1 $283 $424 $181 $292 reversed $177 $-1 #
edge $-1 $425 $296 $291 $426 forward #
coedge $-1 $286 $182 $424 $427 forward $281 $-1 #
coedge $-1 $182 $286 $419 $428 reversed $281 $-1 #
vertex $-1 $428 $429 #
vertex $-1 $183 $430 #
straight-curve $-1 45.254066591387677 10.867501846977474 -3.6212403536928655 0 -1 0 I I #
face $-1 $-1 $431 $51 $-1 $432 forward single #
loop $-1 $-1 $190 $184 #
plane-surface $-1 -45.254066591387677 0 0 1 0 0 0 0 -1 forward_v I I I I #
coedge $-1 $433 $434 $435 $436 reversed $185 $-1 #
coedge $-1 $437 $187 $189 $308 forward $123 $-1 #
coedge $-1 $187 $437 $433 $438 forward $123 $-1 #
coedge $-1 $435 $190 $187 $305 forward $299 $-1 #
edge $-1 $311 $439 $304 $440 forward #
coedge $-1 $441 $442 $188 $307 forward $431 $-1 #
edge $-1 $443 $310 $306 $444 forward #
edge $-1 $311 $443 $189 $445 forward #
coedge $-1 $190 $435 $441 $446 reversed $299 $-1 #
vertex $-1 $446 $447 #
vertex $-1 $191 $448 #
straight-curve $-1 -45.254066591387677 -4.5899311942185079 33.740352261079558 0 0 -1 I I #
coedge $-1 $313 $313 $-1 $449 reversed $194 $-1 #
edge $-1 $450 $450 $195 $451 forward #
vertex $-1 $198 $452 #
ellipse-curve $-1 -42.125364479841359 -11.128459049316422 6.6104927227823573 -0.70710678939079041 0 0.70710677298230451 0.35355338649115226 0 0.35355339469539521 1 I I #
coedge $-1 $317 $317 $-1 $453 reversed $201 $-1 #
edge $-1 $454 $454 $202 $455 forward #
vertex $-1 $205 $456 #
ellipse-curve $-1 -42.125364479841359 -8.676511103654704 6.6104927227823573 -0.70710678939079041 0 0.70710677298230451 0.35355338649115226 0 0.35355339469539521 1 I I #
coedge $-1 $321 $321 $-1 $457 reversed $208 $-1 #
edge $-1 $458 $458 $209 $459 forward #
vertex $-1 $212 $460 #
ellipse-curve $-1 -42.125364479841359 -6.2245631579929857 6.6104927227823573 -0.70710678939079041 0 0.70710677298230451 0.35355338649115226 0 0.35355339469539521 1 I I #
face $-1 $-1 $337 $59 $-1 $461 reversed single #
loop $-1 $-1 $462 $213 #
plane-surface $-1 0 0 9.7391949069305301 0 0 1 1 0 0 forward_v I I I I #
coedge $-1 $463 $464 $465 $466 reversed $214 $-1 #
coedge $-1 $467 $216 $218 $335 forward $142 $-1 #
coedge $-1 $216 $467 $463 $468 forward $142 $-1 #
coedge $-1 $465 $219 $216 $332 forward $337 $-1 #
edge $-1 $339 $469 $331 $470 forward #
coedge $-1 $471 $472 $217 $334 forward $326 $-1 #
edge $-1 $473 $338 $333 $474 forward #
edge $-1 $339 $473 $218 $475 forward #
coedge $-1 $219 $465 $471 $476 reversed $337 $-1 #
loop $-1 $-1 $465 $325 #
vertex $-1 $476 $477 #
vertex $-1 $220 $478 #
straight-curve $-1 -45.254066591387677 12.264878949636387 33.740352261079558 0 0 -1 I I #
coedge $-1 $341 $341 $-1 $479 reversed $223 $-1 #
edge $-1 $480 $480 $224 $481 forward #
vertex $-1 $227 $482 #
ellipse-curve $-1 -42.125364479841359 5.7263510945384688 6.6104927227823573 -0.70710678939079041 0 0.70710677298230451 0.35355338649115226 0 0.35355339469539521 1 I I #
coedge $-1 $345 $345 $-1 $483 reversed $230 $-1 #
edge $-1 $484 $484 $231 $485 forward #
vertex $-1 $234 $486 #
ellipse-curve $-1 -42.125364479841359 8.1782990402001907 6.6104927227823573 -0.70710678939079041 0 0.70710677298230451 0.35355338649115226 0 0.35355339469539521 1 I I #
coedge $-1 $349 $349 $-1 $487 reversed $237 $-1 #
edge $-1 $488 $488 $238 $489 forward #
vertex $-1 $241 $490 #
ellipse-curve $-1 -42.125364479841359 10.630246985861913 6.6104927227823573 -0.70710678939079041 0 0.70710677298230451 0.35355338649115226 0 0.35355339469539521 1 I I #
face $-1 $-1 $257 $45 $-1 $491 reversed single #
loop $-1 $-1 $369 $242 #
plane-surface $-1 0 26.615197244055 0 0 -1 0 0 0 -1 forward_v I I I I #
coedge $-1 $492 $367 $370 $493 forward $243 $-1 #
coedge $-1 $373 $245 $246 $361 reversed $161 $-1 #
coedge $-1 $367 $492 $245 $359 reversed $243 $-1 #
edge $-1 $374 $494 $358 $495 forward #
coedge $-1 $247 $246 $492 $496 forward $111 $-1 #
edge $-1 $365 $494 $357 $497 forward #
coedge $-1 $370 $369 $247 $363 reversed $354 $-1 #
edge $-1 $498 $364 $362 $499 forward #
vertex $-1 $249 $500 #
vertex $-1 $376 $501 #
straight-curve $-1 45.254066591387677 0 -9.7391949069305301 0 -1 0 I I #
coedge $-1 $356 $358 $250 $368 reversed $243 $-1 #
edge $-1 $371 $374 $367 $502 forward #
coedge $-1 $362 $251 $256 $377 forward $354 $-1 #
coedge $-1 $251 $362 $356 $493 reversed $354 $-1 #
vertex $-1 $252 $503 #
straight-curve $-1 0 26.615197244055 9.7391949069305301 -1 0 0 I I #
coedge $-1 $253 $357 $255 $376 reversed $161 $-1 #
vertex $-1 $368 $504 #
straight-curve $-1 0 -26.615197244055 9.7391949069305301 1 0 0 I I #
edge $-1 $258 $365 $255 $505 forward #
edge $-1 $259 $364 $256 $506 forward #
point $-1 45.254066591387677 -26.615197244055 9.7391949069305301 #
point $-1 45.254066591387677 26.615197244055 9.7391949069305301 #
face $-1 $-1 $276 $47 $-1 $507 reversed single #
loop $-1 $-1 $272 $261 #
plane-surface $-1 0 -26.615197244055 0 0 1 0 0 0 1 forward_v I I I I #
coedge $-1 $508 $509 $269 $393 forward $262 $-1 #
coedge $-1 $394 $264 $266 $389 reversed $169 $-1 #
edge $-1 $391 $277 $275 $510 forward #
coedge $-1 $266 $265 $511 $512 reversed $115 $-1 #
coedge $-1 $398 $397 $265 $388 forward $381 $-1 #
edge $-1 $513 $390 $387 $514 forward #
edge $-1 $515 $391 $384 $516 forward #
vertex $-1 $388 $517 #
vertex $-1 $268 $518 #
straight-curve $-1 45.254066591387677 -10.867501846977474 -6.6212403536928655 0 1 0 I I #
edge $-1 $399 $395 $383 $519 forward #
coedge $-1 $270 $384 $508 $520 reversed $169 $-1 #
vertex $-1 $393 $521 #
straight-curve $-1 0 -16.854810143854895 -3.6212403536928655 -1 0 0 I I #
coedge $-1 $387 $272 $509 $522 forward $381 $-1 #
coedge $-1 $272 $387 $274 $401 reversed $381 $-1 #
vertex $-1 $522 $523 #
straight-curve $-1 0 -26.615197244055 -3.6212403536928655 -1 0 0 I I #
edge $-1 $278 $390 $274 $524 forward #
point $-1 45.254066591387677 -16.854810143854895 -3.6212403536928655 #
point $-1 45.254066591387677 -26.615197244055 -3.6212403536928655 #
face $-1 $-1 $421 $49 $-1 $525 reversed single #
loop $-1 $-1 $417 $280 #
plane-surface $-1 -45.254066591387677 0 0 1 0 0 0 0 -1 forward_v I I I I #
coedge $-1 $424 $283 $284 $411 reversed $177 $-1 #
coedge $-1 $417 $526 $283 $409 forward $405 $-1 #
edge $-1 $527 $425 $408 $528 forward #
coedge $-1 $285 $284 $526 $529 reversed $119 $-1 #
edge $-1 $414 $527 $407 $530 forward #
coedge $-1 $420 $419 $285 $413 forward $421 $-1 #
edge $-1 $415 $531 $412 $532 forward #
vertex $-1 $287 $533 #
vertex $-1 $413 $534 #
straight-curve $-1 45.254066591387677 10.867501846977474 -6.6212403536928655 0 1 0 I I #
coedge $-1 $535 $408 $288 $418 forward $405 $-1 #
edge $-1 $425 $422 $417 $536 forward #
coedge $-1 $412 $289 $294 $428 forward $421 $-1 #
coedge $-1 $289 $412 $535 $537 reversed $421 $-1 #
loop $-1 $-1 $289 $404 #
vertex $-1 $537 $538 #
straight-curve $-1 0 26.615197244055 -3.6212403536928655 1 0 0 I I #
coedge $-1 $291 $407 $293 $427 reversed $177 $-1 #
vertex $-1 $418 $539 #
straight-curve $-1 0 16.854810143854895 -3.6212403536928655 1 0 0 I I #
edge $-1 $296 $414 $293 $540 forward #
edge $-1 $295 $415 $294 $541 forward #
point $-1 45.254066591387677 26.615197244055 -3.6212403536928655 #
point $-1 45.254066591387677 16.854810143854895 -3.6212403536928655 #
loop $-1 $-1 $306 $298 #
plane-surface $-1 0 0 9.7391949069305301 0 0 1 1 0 0 forward_v I I I I #
coedge $-1 $434 $301 $303 $438 reversed $185 $-1 #
coedge $-1 $301 $433 $542 $543 reversed $185 $-1 #
coedge $-1 $309 $304 $301 $436 forward $299 $-1 #
edge $-1 $439 $544 $435 $545 forward #
coedge $-1 $303 $302 $442 $546 reversed $123 $-1 #
edge $-1 $547 $439 $433 $548 forward #
vertex $-1 $305 $549 #
straight-curve $-1 -45.254066591387677 -4.338255551827352 3.4817905386341863 0 -1 0 I I #
coedge $-1 $542 $306 $309 $446 forward $431 $-1 #
coedge $-1 $306 $542 $437 $546 forward $431 $-1 #
vertex $-1 $307 $550 #
straight-curve $-1 -54.626491030007003 -4.5899311942185079 9.7391949069305284 -1 0 0 I I #
straight-curve $-1 -45.254066591387662 -4.5899311942185079 3.4817905386342005 0.70710677298230451 0 0.70710678939079041 I I #
edge $-1 $310 $544 $309 $551 forward #
point $-1 -45.254066591387677 -4.5899311942185079 9.7391949069305301 #
point $-1 -45.254066591387677 -4.5899311942185079 3.4817905386341863 #
edge $-1 $552 $552 $313 $-1 forward #
vertex $-1 $314 $553 #
ellipse-curve $-1 -41.324816960506972 -11.128459049316422 5.8099452220247576 -0.70710678939079041 0 0.70710677298230451 0.35355338649115226 0 0.35355339469539521 1 I I #
point $-1 -41.771811093350216 -11.128459049316422 6.9640461174777615 #
edge $-1 $554 $554 $317 $-1 forward #
vertex $-1 $318 $555 #
ellipse-curve $-1 -41.324816960506972 -8.676511103654704 5.8099452220247576 -0.70710678939079041 0 0.70710677298230451 0.35355338649115226 0 0.35355339469539521 1 I I #
point $-1 -41.771811093350216 -8.676511103654704 6.9640461174777615 #
edge $-1 $556 $556 $321 $-1 forward #
vertex $-1 $322 $557 #
ellipse-curve $-1 -41.324816960506972 -6.2245631579929857 5.8099452220247576 -0.70710678939079041 0 0.70710677298230451 0.35355338649115226 0 0.35355339469539521 1 I I #
point $-1 -41.771811093350216 -6.2245631579929857 6.9640461174777615 #
plane-surface $-1 -45.254066591387677 0 0 1 0 0 0 0 -1 forward_v I I I I #
coedge $-1 $472 $471 $464 $558 forward $326 $-1 #
coedge $-1 $464 $328 $330 $468 reversed $214 $-1 #
coedge $-1 $328 $463 $462 $558 reversed $214 $-1 #
coedge $-1 $336 $331 $328 $466 forward $337 $-1 #
edge $-1 $469 $559 $465 $560 forward #
coedge $-1 $330 $329 $472 $561 reversed $142 $-1 #
edge $-1 $562 $469 $463 $563 forward #
vertex $-1 $332 $564 #
straight-curve $-1 -45.254066591387677 4.0891495201000954 3.4817905386341863 0 -1 0 I I #
coedge $-1 $462 $333 $336 $476 forward $326 $-1 #
coedge $-1 $333 $462 $467 $561 forward $326 $-1 #
vertex $-1 $334 $565 #
straight-curve $-1 -54.626491030007003 12.264878949636387 9.7391949069305284 -1 0 0 I I #
straight-curve $-1 -45.254066591387662 12.264878949636387 3.4817905386342005 0.70710677298230451 0 0.70710678939079041 I I #
edge $-1 $338 $559 $336 $566 forward #
point $-1 -45.254066591387677 12.264878949636387 9.7391949069305301 #
point $-1 -45.254066591387677 12.264878949636387 3.4817905386341863 #
edge $-1 $567 $567 $341 $-1 forward #
vertex $-1 $342 $568 #
ellipse-curve $-1 -41.324816960506972 5.7263510945384688 5.8099452220247576 -0.70710678939079041 0 0.70710677298230451 0.35355338649115226 0 0.35355339469539521 1 I I #
point $-1 -41.771811093350216 5.7263510945384688 6.9640461174777615 #
edge $-1 $569 $569 $345 $-1 forward #
vertex $-1 $346 $570 #
ellipse-curve $-1 -41.324816960506972 8.1782990402001907 5.8099452220247576 -0.70710678939079041 0 0.70710677298230451 0.35355338649115226 0 0.35355339469539521 1 I I #
point $-1 -41.771811093350216 8.1782990402001907 6.9640461174777615 #
edge $-1 $571 $571 $349 $-1 forward #
vertex $-1 $350 $572 #
ellipse-curve $-1 -41.324816960506972 10.630246985861913 5.8099452220247576 -0.70710678939079041 0 0.70710677298230451 0.35355338649115226 0 0.35355339469539521 1 I I #
point $-1 -41.771811093350216 10.630246985861913 6.9640461174777615 #
plane-surface $-1 45.254066591387677 0 0 -1 0 0 0 0 1 forward_v I I I I #
coedge $-1 $358 $356 $360 $496 reversed $243 $-1 #
edge $-1 $371 $498 $370 $573 forward #
vertex $-1 $496 $574 #
straight-curve $-1 -45.254066591387677 -26.615197244055 0 0 0 -1 I I #
edge $-1 $494 $498 $492 $575 forward #
straight-curve $-1 0 -26.615197244055 -9.7391949069305301 -1 0 0 I I #
vertex $-1 $363 $576 #
straight-curve $-1 0 26.615197244055 -9.7391949069305301 1 0 0 I I #
point $-1 45.254066591387677 26.615197244055 -9.7391949069305301 #
point $-1 45.254066591387677 -26.615197244055 -9.7391949069305301 #
straight-curve $-1 -45.254066591387677 0 9.7391949069305301 0 -1 0 I I #
point $-1 -45.254066591387677 26.615197244055 9.7391949069305301 #
point $-1 -45.254066591387677 -26.615197244055 9.7391949069305301 #
straight-curve $-1 45.254066591387677 -26.615197244055 0 0 0 -1 I I #
straight-curve $-1 45.254066591387677 26.615197244055 0 0 0 -1 I I #
plane-surface $-1 45.254066591387677 0 0 -1 0 0 0 0 1 forward_v I I I I #
coedge $-1 $511 $383 $394 $520 forward $262 $-1 #
coedge $-1 $383 $511 $397 $522 reversed $262 $-1 #
straight-curve $-1 45.254066591387677 -16.854810143854895 -2.5606201768464327 0 0 1 I I #
coedge $-1 $509 $508 $386 $512 forward $262 $-1 #
edge $-1 $515 $513 $511 $577 forward #
vertex $-1 $388 $578 #
straight-curve $-1 0 -26.615197244055 -6.6212403536928655 1 0 0 I I #
vertex $-1 $512 $579 #
straight-curve $-1 0 -16.854810143854895 -6.6212403536928655 1 0 0 I I #
point $-1 45.254066591387677 -26.615197244055 -6.6212403536928655 #
point $-1 45.254066591387677 -16.854810143854895 -6.6212403536928655 #
straight-curve $-1 -45.254066591387677 -10.867501846977474 -3.6212403536928655 0 1 0 I I #
edge $-1 $395 $515 $508 $580 forward #
point $-1 -45.254066591387677 -16.854810143854895 -3.6212403536928655 #
edge $-1 $399 $513 $509 $581 forward #
point $-1 -45.254066591387677 -26.615197244055 -3.6212403536928655 #
straight-curve $-1 45.254066591387677 -26.615197244055 0 0 0 -1 I I #
plane-surface $-1 0 26.615197244055 0 0 -1 0 0 0 -1 forward_v I I I I #
coedge $-1 $408 $535 $410 $529 forward $405 $-1 #
vertex $-1 $529 $582 #
straight-curve $-1 -45.254066591387677 16.854810143854895 -2.5606201768464327 0 0 1 I I #
edge $-1 $531 $527 $526 $583 forward #
straight-curve $-1 0 16.854810143854895 -6.6212403536928655 -1 0 0 I I #
vertex $-1 $413 $584 #
straight-curve $-1 0 26.615197244055 -6.6212403536928655 -1 0 0 I I #
point $-1 45.254066591387677 16.854810143854895 -6.6212403536928655 #
point $-1 45.254066591387677 26.615197244055 -6.6212403536928655 #
coedge $-1 $526 $417 $420 $537 forward $405 $-1 #
straight-curve $-1 -45.254066591387677 10.867501846977474 -3.6212403536928655 0 1 0 I I #
edge $-1 $422 $531 $420 $585 forward #
point $-1 -45.254066591387677 26.615197244055 -3.6212403536928655 #
point $-1 -45.254066591387677 16.854810143854895 -3.6212403536928655 #
straight-curve $-1 45.254066591387677 16.854810143854895 -2.5606201768464327 0 0 -1 I I #
straight-curve $-1 45.254066591387677 26.615197244055 0 0 0 -1 I I #
coedge $-1 $442 $441 $434 $543 forward $431 $-1 #
edge $-1 $544 $547 $542 $586 forward #
vertex $-1 $543 $587 #
straight-curve $-1 -45.254066591387677 -12.7630910130909 33.740352261079558 0 0 1 I I #
edge $-1 $547 $443 $442 $588 forward #
vertex $-1 $546 $589 #
straight-curve $-1 -45.254066591387662 -12.7630910130909 3.4817905386342005 -0.70710677298230451 0 -0.70710678939079041 I I #
point $-1 -45.254066591387677 -12.7630910130909 3.4817905386341863 #
point $-1 -38.996662368295048 -4.5899311942185079 9.7391949069305284 #
straight-curve $-1 -45.254066591387677 0 9.7391949069305301 0 -1 0 I I #
vertex $-1 $449 $590 #
point $-1 -40.971263574015822 -11.128459049316422 6.1634986167201529 #
vertex $-1 $453 $591 #
point $-1 -40.971263574015822 -8.676511103654704 6.1634986167201529 #
vertex $-1 $457 $592 #
point $-1 -40.971263574015822 -6.2245631579929857 6.1634986167201529 #
edge $-1 $559 $562 $462 $593 forward #
vertex $-1 $558 $594 #
straight-curve $-1 -45.254066591387677 4.0917191307639946 33.740352261079558 0 0 1 I I #
edge $-1 $562 $473 $472 $595 forward #
vertex $-1 $561 $596 #
straight-curve $-1 -45.254066591387662 4.0917191307639946 3.4817905386342005 -0.70710677298230451 0 -0.70710678939079041 I I #
point $-1 -45.254066591387677 4.0917191307639946 3.4817905386341863 #
point $-1 -38.996662368295048 12.264878949636387 9.7391949069305284 #
straight-curve $-1 -45.254066591387677 0 9.7391949069305301 0 -1 0 I I #
vertex $-1 $479 $597 #
point $-1 -40.971263574015822 5.7263510945384688 6.1634986167201529 #
vertex $-1 $483 $598 #
point $-1 -40.971263574015822 8.1782990402001907 6.1634986167201529 #
vertex $-1 $487 $599 #
point $-1 -40.971263574015822 10.630246985861913 6.1634986167201529 #
straight-curve $-1 -45.254066591387677 26.615197244055 0 0 0 -1 I I #
point $-1 -45.254066591387677 -26.615197244055 -9.7391949069305301 #
straight-curve $-1 -45.254066591387677 0 -9.7391949069305301 0 1 0 I I #
point $-1 -45.254066591387677 26.615197244055 -9.7391949069305301 #
straight-curve $-1 -45.254066591387677 -10.867501846977474 -6.6212403536928655 0 -1 0 I I #
point $-1 -45.254066591387677 -26.615197244055 -6.6212403536928655 #
point $-1 -45.254066591387677 -16.854810143854895 -6.6212403536928655 #
straight-curve $-1 -45.254066591387677 -16.854810143854895 -2.5606201768464327 0 0 -1 I I #
straight-curve $-1 -45.254066591387677 -26.615197244055 0 0 0 -1 I I #
point $-1 -45.254066591387677 16.854810143854895 -6.6212403536928655 #
straight-curve $-1 -45.254066591387677 10.867501846977474 -6.6212403536928655 0 -1 0 I I #
point $-1 -45.254066591387677 26.615197244055 -6.6212403536928655 #
straight-curve $-1 -45.254066591387677 26.615197244055 0 0 0 -1 I I #
straight-curve $-1 -54.626491030007003 -12.7630910130909 9.7391949069305284 1 0 0 I I #
point $-1 -45.254066591387677 -12.7630910130909 9.7391949069305301 #
straight-curve $-1 -38.996662368295041 -4.338255551827352 9.7391949069305284 0 1 0 I I #
point $-1 -38.996662368295048 -12.7630910130909 9.7391949069305284 #
point $-1 -40.971263565811576 -11.128459049316422 5.4563918355336058 #
point $-1 -40.971263565811576 -8.676511103654704 5.4563918355336058 #
point $-1 -40.971263565811576 -6.2245631579929857 5.4563918355336058 #
straight-curve $-1 -54.626491030007003 4.0917191307639946 9.7391949069305284 1 0 0 I I #
point $-1 -45.254066591387677 4.0917191307639946 9.7391949069305301 #
straight-curve $-1 -38.996662368295041 4.0891495201000954 9.7391949069305284 0 1 0 I I #
point $-1 -38.996662368295048 4.0917191307639946 9.7391949069305284 #
point $-1 -40.971263565811576 5.7263510945384688 5.4563918355336058 #
point $-1 -40.971263565811576 8.1782990402001907 5.4563918355336058 #
point $-1 -40.971263565811576 10.630246985861913 5.4563918355336058 #
End-of-ACIS-data 