300 0 10 0           
7 Unknown 11 ACIS 3.0 NT 24 Fri Oct 30 17:57:16 1998 
-1 9.9999999999999995e-007 1e-010 
body $10 $11 $-1 $12 #
body $13 $14 $-1 $15 #
body $16 $17 $-1 $18 #
body $19 $20 $-1 $21 #
body $22 $23 $-1 $24 #
body $25 $26 $-1 $27 #
body $28 $29 $-1 $30 #
body $31 $32 $-1 $33 #
body $34 $35 $-1 $36 #
body $37 $38 $-1 $39 #
display_attribute-st-attrib $-1 $40 $-1 $0 1 #
lump $-1 $-1 $41 $0 #
transform $-1 1 0 0 0 1 0 0 0 1 45.852229377117226 19.890802614157387 5.065364950516523 1 rotate no_reflect no_shear #
display_attribute-st-attrib $-1 $42 $-1 $1 3 #
lump $-1 $-1 $43 $1 #
transform $-1 1 0 0 0 1 0 0 0 1 45.852229377117226 19.890802614157387 5.065364950516523 1 rotate no_reflect no_shear #
display_attribute-st-attrib $-1 $44 $-1 $2 3 #
lump $-1 $-1 $45 $2 #
transform $-1 1 0 0 0 1 0 0 0 1 45.852229377117226 19.890802614157387 5.065364950516523 1 rotate no_reflect no_shear #
display_attribute-st-attrib $-1 $46 $-1 $3 3 #
lump $-1 $-1 $47 $3 #
transform $-1 1 0 0 0 1 0 0 0 1 45.852229377117226 19.890802614157387 5.065364950516523 1 rotate no_reflect no_shear #
display_attribute-st-attrib $-1 $48 $-1 $4 3 #
lump $-1 $-1 $49 $4 #
transform $-1 1 0 0 0 1 0 0 0 1 45.852229377117226 19.890802614157387 5.065364950516523 1 rotate no_reflect no_shear #
display_attribute-st-attrib $-1 $50 $-1 $5 3 #
lump $-1 $-1 $51 $5 #
transform $-1 1 0 0 0 1 0 0 0 1 45.852229377117226 19.890802614157387 5.065364950516523 1 rotate no_reflect no_shear #
display_attribute-st-attrib $-1 $52 $-1 $6 3 #
lump $-1 $-1 $53 $6 #
transform $-1 1 0 0 0 1 0 0 0 1 45.852229377117226 19.890802614157387 5.065364950516523 1 rotate no_reflect no_shear #
display_attribute-st-attrib $-1 $54 $-1 $7 3 #
lump $-1 $-1 $55 $7 #
transform $-1 1 0 0 0 1 0 0 0 1 45.852229377117226 19.890802614157387 5.065364950516523 1 rotate no_reflect no_shear #
display_attribute-st-attrib $-1 $56 $-1 $8 3 #
lump $-1 $-1 $57 $8 #
transform $-1 1 0 0 0 1 0 0 0 1 45.852229377117226 19.890802614157387 5.065364950516523 1 rotate no_reflect no_shear #
display_attribute-st-attrib $-1 $58 $-1 $9 3 #
lump $-1 $-1 $59 $9 #
transform $-1 1 0 0 0 1 0 0 0 1 45.852229377117226 19.890802614157387 5.065364950516523 1 rotate no_reflect no_shear #
id_attribute-st-attrib $-1 $-1 $10 $0 1308 #
shell $-1 $-1 $-1 $60 $-1 $11 #
id_attribute-st-attrib $-1 $-1 $13 $1 1313 #
shell $-1 $-1 $-1 $61 $-1 $14 #
id_attribute-st-attrib $-1 $-1 $16 $2 1327 #
shell $-1 $-1 $-1 $62 $-1 $17 #
id_attribute-st-attrib $-1 $-1 $19 $3 1335 #
shell $-1 $-1 $-1 $63 $-1 $20 #
id_attribute-st-attrib $-1 $-1 $22 $4 1344 #
shell $-1 $-1 $-1 $64 $-1 $23 #
id_attribute-st-attrib $-1 $-1 $25 $5 1354 #
shell $-1 $-1 $-1 $65 $-1 $26 #
id_attribute-st-attrib $-1 $-1 $28 $6 1372 #
shell $-1 $-1 $-1 $66 $-1 $29 #
id_attribute-st-attrib $-1 $-1 $31 $7 1384 #
shell $-1 $-1 $-1 $67 $-1 $32 #
id_attribute-st-attrib $-1 $-1 $34 $8 1397 #
shell $-1 $-1 $-1 $68 $-1 $35 #
id_attribute-st-attrib $-1 $-1 $37 $9 1411 #
shell $-1 $-1 $-1 $69 $-1 $38 #
face $-1 $70 $71 $41 $-1 $72 forward single #
face $-1 $73 $74 $43 $-1 $75 forward single #
face $-1 $76 $77 $45 $-1 $78 reversed single #
face $-1 $79 $80 $47 $-1 $81 forward single #
face $-1 $82 $83 $49 $-1 $84 forward single #
face $-1 $85 $86 $51 $-1 $87 forward single #
face $-1 $88 $89 $53 $-1 $90 reversed single #
face $-1 $91 $92 $55 $-1 $93 forward single #
face $-1 $94 $95 $57 $-1 $96 forward single #
face $-1 $97 $98 $59 $-1 $99 forward single #
face $-1 $100 $101 $41 $-1 $102 reversed single #
loop $-1 $-1 $103 $60 #
plane-surface $-1 0 0 5.065364950516523 0 0 1 1 0 0 forward_v I I I I #
face $-1 $104 $105 $43 $-1 $106 reversed single #
loop $-1 $-1 $107 $61 #
plane-surface $-1 -43.790454095668665 0 -2.065364950516523 0 0 1 1 0 0 forward_v I I I I #
face $-1 $108 $109 $45 $-1 $110 reversed single #
loop $-1 $-1 $111 $62 #
plane-surface $-1 -0.41135831343471452 66.123178189148547 88.970618460859853 1 0 0 0 -0.77714596973225614 -0.62932038083071107 forward_v I I I I #
face $-1 $112 $113 $47 $-1 $114 forward single #
loop $-1 $115 $116 $63 #
cone-surface $-1 3.7082880928676119 17.590189660030834 2.38953197539607 0 -0.77714596973225614 -0.62932038083071107 0.5 0 0 1 I I 0 1 forward I I I I #
face $-1 $117 $118 $49 $-1 $119 forward single #
loop $-1 $120 $121 $64 #
cone-surface $-1 9.8877577023210961 17.590189660030834 2.38953197539607 0 -0.77714596973225614 -0.62932038083071107 0.5 0 0 1 I I 0 1 forward I I I I #
face $-1 $122 $123 $51 $-1 $124 forward single #
loop $-1 $125 $126 $65 #
cone-surface $-1 16.06722731177458 17.590189660030834 2.38953197539607 0 -0.77714596973225614 -0.62932038083071107 0.5 0 0 1 I I 0 1 forward I I I I #
face $-1 $127 $128 $53 $-1 $129 reversed single #
loop $-1 $-1 $130 $66 #
plane-surface $-1 20.186873718076907 -91.158553141488596 58.054504288195375 -1 0 0 0 -0.77714596973225614 0.62932038083071107 forward_v I I I I #
face $-1 $131 $132 $55 $-1 $133 forward single #
loop $-1 $134 $135 $67 #
cone-surface $-1 3.7082880928676119 -17.590189660030838 2.3895319753960682 0 0.77714596973225614 -0.62932038083071107 0.5 0 0 1 I I 0 1 forward I I I I #
face $-1 $136 $137 $57 $-1 $138 forward single #
loop $-1 $139 $140 $68 #
cone-surface $-1 9.8877577023210961 -17.590189660030838 2.3895319753960682 0 0.77714596973225614 -0.62932038083071107 0.5 0 0 1 I I 0 1 forward I I I I #
face $-1 $141 $142 $59 $-1 $143 forward single #
loop $-1 $144 $145 $69 #
cone-surface $-1 16.06722731177458 -17.590189660030838 2.3895319753960682 0 0.77714596973225614 -0.62932038083071107 0.5 0 0 1 I I 0 1 forward I I I I #
face $-1 $146 $147 $41 $-1 $148 reversed single #
loop $-1 $-1 $149 $70 #
plane-surface $-1 0 0 -5.065364950516523 0 0 1 1 0 0 forward_v I I I I #
coedge $-1 $150 $151 $152 $153 forward $71 $-1 #
face $-1 $154 $155 $43 $-1 $156 reversed single #
loop $-1 $-1 $157 $73 #
plane-surface $-1 -41.728678814220103 0 -3.565364950516523 -1 0 0 0 0 1 forward_v I I I I #
coedge $-1 $158 $159 $160 $161 forward $74 $-1 #
face $-1 $162 $163 $45 $-1 $164 reversed single #
loop $-1 $-1 $165 $76 #
plane-surface $-1 9.8877577023210961 -5.1445723381826696 31.259133553770795 0 0.77714596973225614 0.62932038083071107 1 0 0 forward_v I I I I #
coedge $-1 $166 $167 $168 $169 reversed $77 $-1 #
face $-1 $-1 $170 $47 $-1 $171 forward single #
loop $-1 $172 $173 $79 #
cone-surface $-1 3.7082880928676119 17.007330182731643 1.9175416897730369 0 -0.77714596973225614 -0.62932038083071107 0.25 0 0 1 I I -0.70710678118654746 0.70710678118654746 forward I I I I #
loop $-1 $-1 $174 $63 #
coedge $-1 $116 $116 $175 $176 reversed $80 $-1 #
face $-1 $-1 $177 $49 $-1 $178 forward single #
loop $-1 $179 $180 $82 #
cone-surface $-1 9.8877577023210961 17.007330182731643 1.9175416897730369 0 -0.77714596973225614 -0.62932038083071107 0.25 0 0 1 I I -0.70710678118654746 0.70710678118654746 forward I I I I #
loop $-1 $-1 $181 $64 #
coedge $-1 $121 $121 $182 $183 reversed $83 $-1 #
face $-1 $-1 $184 $51 $-1 $185 forward single #
loop $-1 $186 $187 $85 #
cone-surface $-1 16.06722731177458 17.007330182731643 1.9175416897730369 0 -0.77714596973225614 -0.62932038083071107 0.25 0 0 1 I I -0.70710678118654746 0.70710678118654746 forward I I I I #
loop $-1 $-1 $188 $65 #
coedge $-1 $126 $126 $189 $190 reversed $86 $-1 #
face $-1 $191 $192 $53 $-1 $193 reversed single #
loop $-1 $-1 $194 $88 #
plane-surface $-1 9.8877577023210961 -19.89080261415738 0.34301938110631625 0 -0.77714596973225614 0.62932038083071107 1 0 0 forward_v I I I I #
coedge $-1 $195 $196 $197 $198 reversed $89 $-1 #
face $-1 $-1 $199 $55 $-1 $200 forward single #
loop $-1 $201 $202 $91 #
cone-surface $-1 3.7082880928676119 -17.007330182731646 1.9175416897730351 0 0.77714596973225614 -0.62932038083071107 0.25 0 0 1 I I -0.70710678118654746 0.70710678118654746 forward I I I I #
loop $-1 $-1 $203 $67 #
coedge $-1 $135 $135 $204 $205 reversed $92 $-1 #
face $-1 $-1 $206 $57 $-1 $207 forward single #
loop $-1 $208 $209 $94 #
cone-surface $-1 9.8877577023210961 -17.007330182731646 1.9175416897730351 0 0.77714596973225614 -0.62932038083071107 0.25 0 0 1 I I -0.70710678118654746 0.70710678118654746 forward I I I I #
loop $-1 $-1 $210 $68 #
coedge $-1 $140 $140 $211 $212 reversed $95 $-1 #
face $-1 $-1 $213 $59 $-1 $214 forward single #
loop $-1 $215 $216 $97 #
cone-surface $-1 16.06722731177458 -17.007330182731646 1.9175416897730351 0 0.77714596973225614 -0.62932038083071107 0.25 0 0 1 I I -0.70710678118654746 0.70710678118654746 forward I I I I #
loop $-1 $-1 $217 $69 #
coedge $-1 $145 $145 $218 $219 reversed $98 $-1 #
face $-1 $220 $221 $41 $-1 $222 reversed single #
loop $-1 $-1 $223 $100 #
plane-surface $-1 0 -19.890802614157387 0 0 1 0 0 0 1 forward_v I I I I #
coedge $-1 $224 $225 $226 $227 forward $101 $-1 #
coedge $-1 $228 $103 $229 $230 forward $71 $-1 #
coedge $-1 $103 $228 $231 $232 forward $71 $-1 #
coedge $-1 $233 $234 $103 $153 reversed $235 $-1 #
edge $-1 $236 $237 $152 $238 forward #
face $-1 $239 $240 $43 $-1 $241 reversed single #
loop $-1 $-1 $242 $104 #
plane-surface $-1 0 0 -5.065364950516523 0 0 1 1 0 0 forward_v I I I I #
coedge $-1 $243 $160 $244 $245 reversed $105 $-1 #
coedge $-1 $246 $107 $247 $248 reversed $74 $-1 #
coedge $-1 $107 $246 $249 $250 reversed $74 $-1 #
coedge $-1 $157 $251 $107 $161 reversed $105 $-1 #
edge $-1 $252 $253 $160 $254 forward #
face $-1 $255 $256 $45 $-1 $257 reversed single #
loop $-1 $-1 $258 $108 #
plane-surface $-1 20.186873718076907 66.123178189148547 88.970618460859853 -1 0 0 0 0.77714596973225614 0.62932038083071107 forward_v I I I I #
coedge $-1 $259 $260 $261 $262 reversed $109 $-1 #
coedge $-1 $167 $111 $263 $264 reversed $77 $-1 #
coedge $-1 $111 $166 $259 $265 reversed $77 $-1 #
coedge $-1 $261 $266 $111 $169 forward $267 $-1 #
edge $-1 $268 $269 $168 $270 forward #
loop $-1 $-1 $175 $112 #
plane-surface $-1 9.8877577023210961 -5.1445723381826696 31.259133553770795 0 0.77714596973225614 0.62932038083071107 1 0 0 forward_v I I I I #
loop $-1 $-1 $271 $79 #
coedge $-1 $173 $173 $174 $272 reversed $113 $-1 #
coedge $-1 $174 $174 $173 $272 forward $115 $-1 #
coedge $-1 $175 $175 $116 $176 forward $170 $-1 #
edge $-1 $273 $273 $175 $274 forward #
loop $-1 $-1 $182 $117 #
plane-surface $-1 9.8877577023210961 -5.1445723381826696 31.259133553770795 0 0.77714596973225614 0.62932038083071107 1 0 0 forward_v I I I I #
loop $-1 $-1 $275 $82 #
coedge $-1 $180 $180 $181 $276 reversed $118 $-1 #
coedge $-1 $181 $181 $180 $276 forward $120 $-1 #
coedge $-1 $182 $182 $121 $183 forward $177 $-1 #
edge $-1 $277 $277 $182 $278 forward #
loop $-1 $-1 $189 $122 #
plane-surface $-1 9.8877577023210961 -5.1445723381826696 31.259133553770795 0 0.77714596973225614 0.62932038083071107 1 0 0 forward_v I I I I #
loop $-1 $-1 $279 $85 #
coedge $-1 $187 $187 $188 $280 reversed $123 $-1 #
coedge $-1 $188 $188 $187 $280 forward $125 $-1 #
coedge $-1 $189 $189 $126 $190 forward $184 $-1 #
edge $-1 $281 $281 $189 $282 forward #
face $-1 $283 $284 $53 $-1 $285 forward single #
loop $-1 $-1 $286 $127 #
plane-surface $-1 -0.41135831343471452 -91.158553141488596 58.054504288195375 1 0 0 0 0.77714596973225614 -0.62932038083071107 forward_v I I I I #
coedge $-1 $287 $288 $289 $290 reversed $128 $-1 #
coedge $-1 $196 $130 $291 $292 reversed $89 $-1 #
coedge $-1 $130 $195 $287 $293 reversed $89 $-1 #
coedge $-1 $289 $294 $130 $198 forward $284 $-1 #
edge $-1 $295 $296 $197 $297 forward #
loop $-1 $-1 $204 $131 #
plane-surface $-1 9.8877577023210961 -19.89080261415738 0.34301938110631625 0 -0.77714596973225614 0.62932038083071107 1 0 0 forward_v I I I I #
loop $-1 $-1 $298 $91 #
coedge $-1 $202 $202 $203 $299 reversed $132 $-1 #
coedge $-1 $203 $203 $202 $299 forward $134 $-1 #
coedge $-1 $204 $204 $135 $205 forward $199 $-1 #
edge $-1 $300 $300 $204 $301 forward #
loop $-1 $-1 $211 $136 #
plane-surface $-1 9.8877577023210961 -19.89080261415738 0.34301938110631625 0 -0.77714596973225614 0.62932038083071107 1 0 0 forward_v I I I I #
loop $-1 $-1 $302 $94 #
coedge $-1 $209 $209 $210 $303 reversed $137 $-1 #
coedge $-1 $210 $210 $209 $303 forward $139 $-1 #
coedge $-1 $211 $211 $140 $212 forward $206 $-1 #
edge $-1 $304 $304 $211 $305 forward #
loop $-1 $-1 $218 $141 #
plane-surface $-1 9.8877577023210961 -19.89080261415738 0.34301938110631625 0 -0.77714596973225614 0.62932038083071107 1 0 0 forward_v I I I I #
loop $-1 $-1 $306 $97 #
coedge $-1 $216 $216 $217 $307 reversed $142 $-1 #
coedge $-1 $217 $217 $216 $307 forward $144 $-1 #
coedge $-1 $218 $218 $145 $219 forward $213 $-1 #
edge $-1 $308 $308 $218 $309 forward #
face $-1 $310 $311 $41 $-1 $312 reversed single #
loop $-1 $-1 $313 $146 #
plane-surface $-1 -45.852229377117226 0 0 1 0 0 0 0 -1 forward_v I I I I #
coedge $-1 $314 $231 $315 $316 forward $147 $-1 #
coedge $-1 $317 $149 $314 $318 forward $101 $-1 #
coedge $-1 $149 $317 $319 $320 forward $101 $-1 #
coedge $-1 $234 $233 $149 $227 reversed $235 $-1 #
edge $-1 $321 $322 $226 $323 forward #
coedge $-1 $151 $150 $324 $325 forward $71 $-1 #
coedge $-1 $326 $327 $150 $230 reversed $311 $-1 #
edge $-1 $237 $328 $229 $329 forward #
coedge $-1 $223 $330 $151 $232 reversed $147 $-1 #
edge $-1 $331 $236 $231 $332 forward #
coedge $-1 $226 $152 $330 $333 forward $235 $-1 #
coedge $-1 $152 $226 $326 $334 reversed $235 $-1 #
loop $-1 $-1 $233 $310 #
vertex $-1 $153 $335 #
vertex $-1 $153 $336 #
straight-curve $-1 45.852229377117226 0 5.065364950516523 0 1 0 I I #
face $-1 $337 $338 $43 $-1 $339 reversed single #
loop $-1 $-1 $244 $154 #
plane-surface $-1 0 -19.890802614157387 0 0 1 0 0 0 1 forward_v I I I I #
coedge $-1 $340 $341 $243 $342 forward $155 $-1 #
coedge $-1 $251 $157 $242 $342 reversed $105 $-1 #
coedge $-1 $249 $343 $157 $245 forward $240 $-1 #
edge $-1 $344 $252 $244 $345 forward #
coedge $-1 $159 $158 $346 $347 reversed $74 $-1 #
coedge $-1 $348 $349 $158 $248 forward $350 $-1 #
edge $-1 $351 $253 $247 $352 forward #
coedge $-1 $353 $244 $159 $250 forward $240 $-1 #
edge $-1 $252 $354 $249 $355 forward #
coedge $-1 $160 $243 $348 $356 reversed $105 $-1 #
vertex $-1 $250 $357 #
vertex $-1 $248 $358 #
straight-curve $-1 -41.728678814220103 0 -2.065364950516523 0 1 0 I I #
face $-1 $-1 $267 $45 $-1 $359 forward single #
loop $-1 $-1 $360 $162 #
plane-surface $-1 0 19.890802614157387 0 0 -1 0 0 0 -1 forward_v I I I I #
coedge $-1 $361 $362 $363 $364 reversed $163 $-1 #
coedge $-1 $365 $165 $167 $265 forward $109 $-1 #
coedge $-1 $165 $365 $361 $366 forward $109 $-1 #
coedge $-1 $363 $168 $165 $262 forward $267 $-1 #
edge $-1 $269 $367 $261 $368 forward #
coedge $-1 $369 $370 $166 $264 forward $256 $-1 #
edge $-1 $371 $268 $263 $372 forward #
edge $-1 $269 $371 $167 $373 forward #
coedge $-1 $168 $363 $369 $374 forward $267 $-1 #
loop $-1 $-1 $363 $255 #
vertex $-1 $264 $375 #
vertex $-1 $169 $376 #
straight-curve $-1 -0.41135831343471452 33.061589094574273 5.0653649505165248 0 -1 0 I I #
coedge $-1 $271 $271 $-1 $377 reversed $172 $-1 #
edge $-1 $378 $378 $173 $379 forward #
vertex $-1 $176 $380 #
ellipse-curve $-1 3.7082880928676119 17.97876264489696 2.7041921658114254 0 0.77714596973225614 0.62932038083071107 0.5 0 0 1 I I #
coedge $-1 $275 $275 $-1 $381 reversed $179 $-1 #
edge $-1 $382 $382 $180 $383 forward #
vertex $-1 $183 $384 #
ellipse-curve $-1 9.8877577023210961 17.97876264489696 2.7041921658114254 0 0.77714596973225614 0.62932038083071107 0.5 0 0 1 I I #
coedge $-1 $279 $279 $-1 $385 reversed $186 $-1 #
edge $-1 $386 $386 $187 $387 forward #
vertex $-1 $190 $388 #
ellipse-curve $-1 16.06722731177458 17.97876264489696 2.7041921658114254 0 0.77714596973225614 0.62932038083071107 0.5 0 0 1 I I #
face $-1 $-1 $389 $53 $-1 $390 reversed single #
loop $-1 $-1 $197 $191 #
plane-surface $-1 0 0 5.065364950516523 0 0 1 1 0 0 forward_v I I I I #
coedge $-1 $391 $392 $393 $394 reversed $192 $-1 #
coedge $-1 $395 $194 $196 $293 forward $128 $-1 #
coedge $-1 $194 $395 $391 $396 forward $128 $-1 #
coedge $-1 $393 $197 $194 $290 forward $284 $-1 #
edge $-1 $296 $397 $289 $398 forward #
coedge $-1 $399 $400 $195 $292 forward $389 $-1 #
edge $-1 $401 $295 $291 $402 forward #
edge $-1 $296 $401 $196 $403 forward #
coedge $-1 $197 $393 $399 $404 forward $284 $-1 #
vertex $-1 $198 $405 #
vertex $-1 $198 $406 #
straight-curve $-1 20.186873718076907 -45.579276570744298 5.0653649505165248 0 1 0 I I #
coedge $-1 $298 $298 $-1 $407 reversed $201 $-1 #
edge $-1 $408 $408 $202 $409 forward #
vertex $-1 $205 $410 #
ellipse-curve $-1 3.7082880928676119 -17.978762644896957 2.704192165811417 0 -0.77714596973225614 0.62932038083071107 0.5 0 0 1 I I #
coedge $-1 $302 $302 $-1 $411 reversed $208 $-1 #
edge $-1 $412 $412 $209 $413 forward #
vertex $-1 $212 $414 #
ellipse-curve $-1 9.8877577023210961 -17.978762644896957 2.704192165811417 0 -0.77714596973225614 0.62932038083071107 0.5 0 0 1 I I #
coedge $-1 $306 $306 $-1 $415 reversed $215 $-1 #
edge $-1 $416 $416 $216 $417 forward #
vertex $-1 $219 $418 #
ellipse-curve $-1 16.06722731177458 -17.978762644896957 2.704192165811417 0 -0.77714596973225614 0.62932038083071107 0.5 0 0 1 I I #
face $-1 $-1 $235 $41 $-1 $419 reversed single #
loop $-1 $-1 $326 $220 #
plane-surface $-1 0 19.890802614157387 0 0 -1 0 0 0 -1 forward_v I I I I #
coedge $-1 $420 $324 $327 $421 forward $221 $-1 #
coedge $-1 $330 $223 $224 $318 reversed $147 $-1 #
coedge $-1 $324 $420 $223 $316 reversed $221 $-1 #
edge $-1 $331 $422 $315 $423 forward #
coedge $-1 $225 $224 $420 $424 forward $101 $-1 #
edge $-1 $322 $422 $314 $425 forward #
coedge $-1 $327 $326 $225 $320 reversed $311 $-1 #
edge $-1 $426 $321 $319 $427 forward #
vertex $-1 $227 $428 #
vertex $-1 $333 $429 #
straight-curve $-1 45.852229377117226 0 -5.065364950516523 0 -1 0 I I #
coedge $-1 $313 $315 $228 $325 reversed $221 $-1 #
edge $-1 $328 $331 $324 $430 forward #
coedge $-1 $319 $229 $234 $334 forward $311 $-1 #
coedge $-1 $229 $319 $313 $421 reversed $311 $-1 #
vertex $-1 $230 $431 #
straight-curve $-1 0 19.890802614157387 5.065364950516523 -1 0 0 I I #
coedge $-1 $231 $314 $233 $333 reversed $147 $-1 #
vertex $-1 $325 $432 #
straight-curve $-1 0 -19.890802614157387 5.065364950516523 1 0 0 I I #
edge $-1 $236 $322 $233 $433 forward #
edge $-1 $237 $321 $234 $434 forward #
point $-1 45.852229377117226 -19.890802614157387 5.065364950516523 #
point $-1 45.852229377117226 19.890802614157387 5.065364950516523 #
face $-1 $-1 $350 $43 $-1 $435 reversed single #
loop $-1 $-1 $346 $239 #
plane-surface $-1 -45.852229377117226 0 0 1 0 0 0 0 -1 forward_v I I I I #
coedge $-1 $436 $242 $343 $437 forward $155 $-1 #
coedge $-1 $242 $436 $438 $439 forward $155 $-1 #
edge $-1 $440 $344 $242 $441 forward #
coedge $-1 $244 $353 $340 $437 reversed $240 $-1 #
vertex $-1 $437 $442 #
straight-curve $-1 -41.728678814220103 -19.890802614157387 -1.7826824752582615 0 0 1 I I #
coedge $-1 $443 $444 $246 $347 forward $338 $-1 #
edge $-1 $354 $351 $346 $445 forward #
coedge $-1 $438 $247 $251 $356 forward $350 $-1 #
coedge $-1 $247 $438 $443 $446 reversed $350 $-1 #
loop $-1 $-1 $348 $337 #
vertex $-1 $446 $447 #
straight-curve $-1 -21.895227047834332 19.890802614157387 -2.065364950516523 1 0 0 I I #
coedge $-1 $343 $249 $444 $448 forward $240 $-1 #
vertex $-1 $448 $449 #
straight-curve $-1 -21.895227047834332 -19.890802614157387 -2.065364950516523 -1 0 0 I I #
edge $-1 $253 $440 $348 $450 forward #
point $-1 -41.728678814220103 -19.890802614157387 -2.065364950516523 #
point $-1 -41.728678814220103 19.890802614157387 -2.065364950516523 #
plane-surface $-1 0 0 5.065364950516523 0 0 1 1 0 0 forward_v I I I I #
coedge $-1 $370 $369 $362 $451 forward $256 $-1 #
coedge $-1 $362 $258 $260 $366 reversed $163 $-1 #
coedge $-1 $258 $361 $360 $451 reversed $163 $-1 #
coedge $-1 $266 $261 $258 $364 forward $267 $-1 #
edge $-1 $367 $452 $363 $453 forward #
coedge $-1 $260 $259 $370 $454 reversed $109 $-1 #
edge $-1 $455 $367 $361 $456 forward #
vertex $-1 $262 $457 #
straight-curve $-1 4.943878851160548 16.066722675636541 5.0653649505165248 1 0 0 I I #
coedge $-1 $360 $263 $266 $374 reversed $256 $-1 #
coedge $-1 $263 $360 $365 $454 forward $256 $-1 #
vertex $-1 $264 $458 #
straight-curve $-1 -0.41135831343471452 19.890802614157387 44.485309230429927 0 0 1 I I #
straight-curve $-1 -0.41135831343471452 -5.1445723381826696 31.259133553770795 0 0.62932038083071107 -0.77714596973225614 I I #
edge $-1 $452 $268 $369 $459 forward #
point $-1 -0.41135831343471452 19.890802614157387 5.065364950516523 #
point $-1 -0.41135831343471452 16.066722675636544 5.0653649505165212 #
edge $-1 $460 $460 $271 $-1 forward #
vertex $-1 $272 $461 #
ellipse-curve $-1 3.7082880928676119 17.201616675164708 2.0748717849807146 0 0.77714596973225614 0.62932038083071107 0.5 0 0 1 I I #
point $-1 4.2082880928676119 17.978762644896964 2.7041921658114259 #
edge $-1 $462 $462 $275 $-1 forward #
vertex $-1 $276 $463 #
ellipse-curve $-1 9.8877577023210961 17.201616675164708 2.0748717849807146 0 0.77714596973225614 0.62932038083071107 0.5 0 0 1 I I #
point $-1 10.387757702321096 17.978762644896964 2.7041921658114259 #
edge $-1 $464 $464 $279 $-1 forward #
vertex $-1 $280 $465 #
ellipse-curve $-1 16.06722731177458 17.201616675164708 2.0748717849807146 0 0.77714596973225614 0.62932038083071107 0.5 0 0 1 I I #
point $-1 16.56722731177458 17.978762644896964 2.7041921658114259 #
loop $-1 $-1 $291 $283 #
plane-surface $-1 0 -19.890802614157387 0 0 1 0 0 0 1 forward_v I I I I #
coedge $-1 $392 $286 $288 $396 reversed $192 $-1 #
coedge $-1 $286 $391 $466 $467 reversed $192 $-1 #
coedge $-1 $294 $289 $286 $394 forward $284 $-1 #
edge $-1 $397 $468 $393 $469 forward #
coedge $-1 $288 $287 $400 $470 reversed $128 $-1 #
edge $-1 $471 $397 $391 $472 forward #
vertex $-1 $290 $473 #
straight-curve $-1 4.943878851160548 -16.06672267563653 5.065364950516523 -1 0 0 I I #
coedge $-1 $466 $291 $294 $404 reversed $389 $-1 #
coedge $-1 $291 $466 $395 $470 forward $389 $-1 #
vertex $-1 $292 $474 #
straight-curve $-1 20.186873718076907 -19.890802614157387 29.027252144097687 0 0 1 I I #
straight-curve $-1 20.186873718076907 -19.89080261415738 0.34301938110631625 0 -0.62932038083071107 -0.77714596973225614 I I #
edge $-1 $468 $295 $399 $475 forward #
point $-1 20.186873718076907 -19.890802614157387 5.065364950516523 #
point $-1 20.186873718076907 -16.06672267563653 5.065364950516523 #
edge $-1 $476 $476 $298 $-1 forward #
vertex $-1 $299 $477 #
ellipse-curve $-1 3.7082880928676119 -17.201616675164711 2.0748717849807128 0 -0.77714596973225614 0.62932038083071107 0.5 0 0 1 I I #
point $-1 4.2082880928676119 -17.978762644896968 2.7041921658114241 #
edge $-1 $478 $478 $302 $-1 forward #
vertex $-1 $303 $479 #
ellipse-curve $-1 9.8877577023210961 -17.201616675164711 2.0748717849807128 0 -0.77714596973225614 0.62932038083071107 0.5 0 0 1 I I #
point $-1 10.387757702321096 -17.978762644896968 2.7041921658114241 #
edge $-1 $480 $480 $306 $-1 forward #
vertex $-1 $307 $481 #
ellipse-curve $-1 16.06722731177458 -17.201616675164711 2.0748717849807128 0 -0.77714596973225614 0.62932038083071107 0.5 0 0 1 I I #
point $-1 16.56722731177458 -17.978762644896968 2.7041921658114241 #
plane-surface $-1 45.852229377117226 0 0 -1 0 0 0 0 1 forward_v I I I I #
coedge $-1 $315 $313 $317 $424 reversed $221 $-1 #
edge $-1 $328 $426 $327 $482 forward #
vertex $-1 $424 $483 #
straight-curve $-1 -45.852229377117226 -19.890802614157387 0 0 0 -1 I I #
edge $-1 $422 $426 $420 $484 forward #
straight-curve $-1 0 -19.890802614157387 -5.065364950516523 -1 0 0 I I #
vertex $-1 $320 $485 #
straight-curve $-1 0 19.890802614157387 -5.065364950516523 1 0 0 I I #
point $-1 45.852229377117226 19.890802614157387 -5.065364950516523 #
point $-1 45.852229377117226 -19.890802614157387 -5.065364950516523 #
straight-curve $-1 -45.852229377117226 0 5.065364950516523 0 -1 0 I I #
point $-1 -45.852229377117226 19.890802614157387 5.065364950516523 #
point $-1 -45.852229377117226 -19.890802614157387 5.065364950516523 #
straight-curve $-1 45.852229377117226 -19.890802614157387 0 0 0 -1 I I #
straight-curve $-1 45.852229377117226 19.890802614157387 0 0 0 -1 I I #
plane-surface $-1 0 19.890802614157387 0 0 -1 0 0 0 -1 forward_v I I I I #
coedge $-1 $341 $340 $486 $487 forward $155 $-1 #
edge $-1 $344 $488 $343 $489 forward #
coedge $-1 $349 $348 $341 $439 reversed $350 $-1 #
edge $-1 $490 $440 $438 $491 forward #
vertex $-1 $356 $492 #
straight-curve $-1 -41.728678814220103 0 -5.065364950516523 0 -1 0 I I #
point $-1 -41.728678814220103 -19.890802614157387 -5.065364950516523 #
coedge $-1 $486 $346 $349 $446 forward $338 $-1 #
coedge $-1 $346 $486 $353 $448 reversed $338 $-1 #
straight-curve $-1 -45.852229377117226 0 -2.065364950516523 0 1 0 I I #
edge $-1 $351 $490 $349 $493 forward #
point $-1 -45.852229377117226 19.890802614157387 -2.065364950516523 #
edge $-1 $354 $488 $444 $494 forward #
point $-1 -45.852229377117226 -19.890802614157387 -2.065364950516523 #
straight-curve $-1 -41.728678814220103 19.890802614157387 -1.7826824752582615 0 0 -1 I I #
edge $-1 $452 $455 $360 $495 forward #
vertex $-1 $374 $496 #
straight-curve $-1 20.186873718076907 33.061589094574273 5.0653649505165248 0 1 0 I I #
edge $-1 $455 $371 $370 $497 forward #
vertex $-1 $454 $498 #
straight-curve $-1 20.186873718076907 -5.1445723381826696 31.259133553770795 0 -0.62932038083071107 0.77714596973225614 I I #
point $-1 20.186873718076907 16.066722675636544 5.0653649505165212 #
point $-1 -0.41135831343471452 19.890802614157387 0.34301938110632335 #
straight-curve $-1 0 19.890802614157387 5.065364950516523 -1 0 0 I I #
vertex $-1 $377 $499 #
point $-1 4.2082880928676119 17.201616675164708 2.0748717849807146 #
vertex $-1 $381 $500 #
point $-1 10.387757702321096 17.201616675164708 2.0748717849807146 #
vertex $-1 $385 $501 #
point $-1 16.56722731177458 17.201616675164708 2.0748717849807146 #
coedge $-1 $400 $399 $392 $467 forward $389 $-1 #
edge $-1 $468 $471 $466 $502 forward #
vertex $-1 $404 $503 #
straight-curve $-1 -0.41135831343471452 -45.579276570744298 5.0653649505165248 0 -1 0 I I #
edge $-1 $471 $401 $400 $504 forward #
vertex $-1 $470 $505 #
straight-curve $-1 -0.41135831343471452 -19.89080261415738 0.34301938110631625 0 0.62932038083071107 0.77714596973225614 I I #
point $-1 -0.41135831343471452 -16.06672267563653 5.065364950516523 #
point $-1 20.186873718076907 -19.890802614157387 0.34301938110630747 #
straight-curve $-1 0 -19.890802614157387 5.065364950516523 1 0 0 I I #
vertex $-1 $407 $506 #
point $-1 4.2082880928676119 -17.201616675164711 2.0748717849807128 #
vertex $-1 $411 $507 #
point $-1 10.387757702321096 -17.201616675164711 2.0748717849807128 #
vertex $-1 $415 $508 #
point $-1 16.56722731177458 -17.201616675164711 2.0748717849807128 #
straight-curve $-1 -45.852229377117226 19.890802614157387 0 0 0 -1 I I #
point $-1 -45.852229377117226 -19.890802614157387 -5.065364950516523 #
straight-curve $-1 -45.852229377117226 0 -5.065364950516523 0 1 0 I I #
point $-1 -45.852229377117226 19.890802614157387 -5.065364950516523 #
coedge $-1 $444 $443 $436 $487 reversed $338 $-1 #
edge $-1 $488 $490 $486 $509 forward #
vertex $-1 $487 $510 #
straight-curve $-1 0 -19.890802614157387 -5.065364950516523 -1 0 0 I I #
vertex $-1 $439 $511 #
straight-curve $-1 0 19.890802614157387 -5.065364950516523 1 0 0 I I #
point $-1 -41.728678814220103 19.890802614157387 -5.065364950516523 #
straight-curve $-1 -45.852229377117226 19.890802614157387 0 0 0 -1 I I #
straight-curve $-1 -45.852229377117226 -19.890802614157387 0 0 0 -1 I I #
straight-curve $-1 20.186873718076907 19.890802614157387 44.485309230429927 0 0 -1 I I #
point $-1 20.186873718076907 19.890802614157387 5.065364950516523 #
straight-curve $-1 4.943878851160548 19.890802614157387 0.34301938110632335 -1 0 0 I I #
point $-1 20.186873718076907 19.890802614157387 0.34301938110632335 #
point $-1 3.7082880928676119 16.813043690298578 1.7602115945653591 #
point $-1 9.8877577023210961 16.813043690298578 1.7602115945653591 #
point $-1 16.06722731177458 16.813043690298578 1.7602115945653591 #
straight-curve $-1 -0.41135831343471452 -19.890802614157387 29.027252144097687 0 0 -1 I I #
point $-1 -0.41135831343471452 -19.890802614157387 5.065364950516523 #
straight-curve $-1 4.943878851160548 -19.890802614157387 0.34301938110630853 1 0 0 I I #
point $-1 -0.41135831343471452 -19.890802614157387 0.34301938110630747 #
point $-1 3.7082880928676119 -16.813043690298581 1.7602115945653574 #
point $-1 9.8877577023210961 -16.813043690298581 1.7602115945653574 #
point $-1 16.06722731177458 -16.813043690298581 1.7602115945653574 #
straight-curve $-1 -45.852229377117226 0 -5.065364950516523 0 1 0 I I #
point $-1 -45.852229377117226 -19.890802614157387 -5.065364950516523 #
point $-1 -45.852229377117226 19.890802614157387 -5.065364950516523 #
End-of-ACIS-data 