600 0 8 0           
94 GICL ACIS Healer - Source: /gicl/data5/repository/Drexel/SM99-DATA/part118.smdg.feat.sat - 6 0 18 ACIS 6.0.3 Solaris 24 Sat Apr 13 20:44:48 2002 
1 9.999999999999999547e-07 1.000000000000000036e-10 
body $-1 $8 $-1 $-1 #
body $-1 $9 $-1 $-1 #
body $-1 $10 $-1 $-1 #
body $-1 $11 $-1 $-1 #
body $-1 $12 $-1 $-1 #
body $-1 $13 $-1 $-1 #
body $-1 $14 $-1 $-1 #
body $-1 $15 $-1 $-1 #
lump $-1 $-1 $16 $0 #
lump $-1 $-1 $17 $1 #
lump $-1 $-1 $18 $2 #
lump $-1 $-1 $19 $3 #
lump $-1 $-1 $20 $4 #
lump $-1 $-1 $21 $5 #
lump $-1 $-1 $22 $6 #
lump $-1 $-1 $23 $7 #
shell $-1 $-1 $-1 $24 $-1 $8 #
shell $-1 $-1 $-1 $25 $-1 $9 #
shell $-1 $-1 $-1 $26 $-1 $10 #
shell $-1 $-1 $-1 $27 $-1 $11 #
shell $-1 $-1 $-1 $28 $-1 $12 #
shell $-1 $-1 $-1 $29 $-1 $13 #
shell $-1 $-1 $-1 $30 $-1 $14 #
shell $-1 $-1 $-1 $31 $-1 $15 #
face $-1 $32 $33 $16 $-1 $34 forward single #
face $-1 $35 $36 $17 $-1 $37 forward single #
face $-1 $38 $39 $18 $-1 $40 forward single #
face $-1 $41 $42 $19 $-1 $43 forward single #
face $-1 $44 $45 $20 $-1 $46 forward single #
face $-1 $47 $48 $21 $-1 $49 forward single #
face $-1 $50 $51 $22 $-1 $52 forward single #
face $-1 $53 $54 $23 $-1 $55 forward single #
face $-1 $56 $57 $16 $-1 $58 reversed single #
loop $-1 $-1 $59 $24 #
plane-surface $-1 76.25476851710561732 43.35214028741579995 31.32250680405450893 0 0 1 1 0 0 forward_v I I I I #
face $-1 $60 $61 $17 $-1 $62 reversed single #
loop $-1 $-1 $63 $25 #
plane-surface $-1 -9.043388051068131261 43.35214028741579995 3.629709481663728088 0 0 1 1 0 0 forward_v I I I I #
face $-1 $64 $65 $18 $-1 $66 reversed single #
loop $-1 $-1 $67 $26 #
plane-surface $-1 28.3458827407708398 164.1257103929576999 329.8458556961044792 0 0.5000000066987363434 0.8660253999169214012 1 0 0 forward_v I I I I #
face $-1 $68 $69 $19 $-1 $70 forward single #
loop $-1 $71 $72 $27 #
cone-surface $-1 25.23687766085317818 78.04585259943608833 25.3087270020552495 0 -0.5000000066987363434 -0.8660253999169214012 1 0 0 1 I I 0 1 1 forward I I I I #
face $-1 $73 $74 $20 $-1 $75 forward single #
loop $-1 $76 $77 $28 #
cone-surface $-1 31.45488782068850497 78.04585259943608833 25.3087270020552495 0 -0.5000000066987363434 -0.8660253999169214012 1 0 0 1 I I 0 1 1 forward I I I I #
face $-1 $78 $79 $21 $-1 $80 reversed single #
loop $-1 $-1 $81 $29 #
plane-surface $-1 142.2504303955766431 164.1257103929576999 329.8458556961044792 0 0.5000000066987363434 0.8660253999169214012 1 0 0 forward_v I I I I #
face $-1 $82 $83 $22 $-1 $84 forward single #
loop $-1 $85 $86 $30 #
cone-surface $-1 139.141425315658978 78.04585259943608833 25.3087270020552495 0 -0.5000000066987363434 -0.8660253999169214012 1 0 0 1 I I 0 1 1 forward I I I I #
face $-1 $87 $88 $23 $-1 $89 forward single #
loop $-1 $90 $91 $31 #
cone-surface $-1 145.3594354754943083 78.04585259943608833 25.3087270020552495 0 -0.5000000066987363434 -0.8660253999169214012 1 0 0 1 I I 0 1 1 forward I I I I #
face $-1 $92 $93 $16 $-1 $94 reversed single #
loop $-1 $-1 $95 $32 #
plane-surface $-1 76.25476851710561732 43.35214028741579995 0 0 0 1 1 0 0 forward_v I I I I #
coedge $-1 $96 $97 $98 $99 forward $33 $-1 #
face $-1 $100 $101 $17 $-1 $102 reversed single #
loop $-1 $-1 $103 $35 #
plane-surface $-1 -9.043388051068131261 43.35214028741579995 0 0 0 1 1 0 0 forward_v I I I I #
coedge $-1 $104 $105 $106 $107 forward $36 $-1 #
face $-1 $108 $109 $18 $-1 $110 reversed single #
loop $-1 $-1 $111 $38 #
plane-surface $-1 28.3458827407708398 11.61617131550411841 65.69159009370986269 0 0.5000000066987363434 0.8660253999169214012 1 0 0 forward_v I I I I #
coedge $-1 $112 $113 $114 $115 forward $39 $-1 #
face $-1 $-1 $116 $19 $-1 $117 forward single #
loop $-1 $-1 $118 $41 #
plane-surface $-1 25.23687766085317818 78.92472464710051838 26.83097801476971611 0 0.5000000066987363434 0.8660253999169214012 -1 -0 0 forward_v I I I I #
loop $-1 $-1 $119 $27 #
coedge $-1 $72 $72 $118 $120 reversed $42 $-1 #
face $-1 $-1 $121 $20 $-1 $122 forward single #
loop $-1 $-1 $123 $44 #
plane-surface $-1 31.45488782068850497 78.92472464710051838 26.83097801476971611 0 0.5000000066987363434 0.8660253999169214012 -1 -0 0 forward_v I I I I #
loop $-1 $-1 $124 $28 #
coedge $-1 $77 $77 $123 $125 reversed $45 $-1 #
face $-1 $126 $127 $21 $-1 $128 reversed single #
loop $-1 $-1 $129 $47 #
plane-surface $-1 142.2504303955766431 11.61617131550411841 65.69159009370986269 0 0.5000000066987363434 0.8660253999169214012 1 0 0 forward_v I I I I #
coedge $-1 $130 $131 $132 $133 forward $48 $-1 #
face $-1 $-1 $134 $22 $-1 $135 forward single #
loop $-1 $-1 $136 $50 #
plane-surface $-1 139.141425315658978 78.92472464710051838 26.83097801476971611 0 0.5000000066987363434 0.8660253999169214012 -1 -0 0 forward_v I I I I #
loop $-1 $-1 $137 $30 #
coedge $-1 $86 $86 $136 $138 reversed $51 $-1 #
face $-1 $-1 $139 $23 $-1 $140 forward single #
loop $-1 $-1 $141 $53 #
plane-surface $-1 145.3594354754943083 78.92472464710051838 26.83097801476971611 0 0.5000000066987363434 0.8660253999169214012 -1 -0 0 forward_v I I I I #
loop $-1 $-1 $142 $31 #
coedge $-1 $91 $91 $141 $143 reversed $54 $-1 #
face $-1 $144 $145 $16 $-1 $146 reversed single #
loop $-1 $-1 $147 $56 #
plane-surface $-1 76.25476851710561732 0 15.66125340202725447 0 1 0 0 0 1 forward_v I I I I #
coedge $-1 $148 $149 $150 $151 forward $57 $-1 #
coedge $-1 $152 $59 $153 $154 forward $33 $-1 #
coedge $-1 $59 $152 $155 $156 forward $33 $-1 #
coedge $-1 $157 $158 $59 $99 reversed $159 $-1 #
edge $-1 $160 -43.35214028741579995 $161 43.35214028741579995 $98 $162 forward 7 unknown #
face $-1 $163 $164 $17 $-1 $165 reversed single #
loop $-1 $-1 $166 $60 #
plane-surface $-1 -9.043388051068131261 0 1.814854740831864044 0 1 0 0 0 1 forward_v I I I I #
coedge $-1 $167 $168 $169 $170 forward $61 $-1 #
coedge $-1 $171 $63 $172 $173 forward $36 $-1 #
coedge $-1 $63 $171 $174 $175 forward $36 $-1 #
coedge $-1 $176 $177 $63 $107 reversed $178 $-1 #
edge $-1 $179 -43.35214028741579995 $180 43.35214028741579995 $106 $181 forward 7 unknown #
face $-1 $182 $183 $18 $-1 $184 reversed single #
loop $-1 $-1 $185 $64 #
plane-surface $-1 28.3458827407708398 -176.2833247481636931 350.278261972360724 0 0.8660253999169214012 -0.5000000066987363434 0 0.5000000066987363434 0.8660253999169214012 forward_v I I I I #
coedge $-1 $186 $187 $188 $189 forward $65 $-1 #
coedge $-1 $190 $67 $191 $192 forward $39 $-1 #
coedge $-1 $67 $190 $193 $194 forward $39 $-1 #
coedge $-1 $195 $196 $67 $115 reversed $197 $-1 #
edge $-1 $198 -305.0190740684224693 $199 305.0190740684224693 $114 $200 forward 7 unknown #
loop $-1 $201 $202 $68 #
cone-surface $-1 25.23687766085317818 76.91698054842228771 23.35346328938231864 0 -0.5000000066987363434 -0.8660253999169214012 0.5 0 0 1 I I -0.7071067811865474617 0.7071067811865474617 0.5 forward I I I I #
coedge $-1 $118 $118 $72 $120 forward $69 $-1 #
coedge $-1 $119 $119 $202 $203 forward $71 $-1 #
edge $-1 $204 0 $204 6.283185307179586232 $118 $205 forward 7 unknown #
loop $-1 $206 $207 $73 #
cone-surface $-1 31.45488782068850497 76.91698054842228771 23.35346328938231864 0 -0.5000000066987363434 -0.8660253999169214012 0.5 0 0 1 I I -0.7071067811865474617 0.7071067811865474617 0.5 forward I I I I #
coedge $-1 $123 $123 $77 $125 forward $74 $-1 #
coedge $-1 $124 $124 $207 $208 forward $76 $-1 #
edge $-1 $209 0 $209 6.283185307179586232 $123 $210 forward 7 unknown #
face $-1 $211 $212 $21 $-1 $213 reversed single #
loop $-1 $-1 $214 $78 #
plane-surface $-1 142.2504303955766431 -176.2833247481636931 350.278261972360724 0 0.8660253999169214012 -0.5000000066987363434 0 0.5000000066987363434 0.8660253999169214012 forward_v I I I I #
coedge $-1 $215 $216 $217 $218 forward $79 $-1 #
coedge $-1 $219 $81 $220 $221 forward $48 $-1 #
coedge $-1 $81 $219 $222 $223 forward $48 $-1 #
coedge $-1 $224 $225 $81 $133 reversed $226 $-1 #
edge $-1 $227 -305.0190740684224693 $228 305.0190740684224693 $132 $229 forward 7 unknown #
loop $-1 $230 $231 $82 #
cone-surface $-1 139.141425315658978 76.91698054842228771 23.35346328938231864 0 -0.5000000066987363434 -0.8660253999169214012 0.5 0 0 1 I I -0.7071067811865474617 0.7071067811865474617 0.5 forward I I I I #
coedge $-1 $136 $136 $86 $138 forward $83 $-1 #
coedge $-1 $137 $137 $231 $232 forward $85 $-1 #
edge $-1 $233 0 $233 6.283185307179586232 $136 $234 forward 7 unknown #
loop $-1 $235 $236 $87 #
cone-surface $-1 145.3594354754943083 76.91698054842228771 23.35346328938231864 0 -0.5000000066987363434 -0.8660253999169214012 0.5 0 0 1 I I -0.7071067811865474617 0.7071067811865474617 0.5 forward I I I I #
coedge $-1 $141 $141 $91 $143 forward $88 $-1 #
coedge $-1 $142 $142 $236 $237 forward $90 $-1 #
edge $-1 $238 0 $238 6.283185307179586232 $141 $239 forward 7 unknown #
face $-1 $240 $241 $16 $-1 $242 reversed single #
loop $-1 $-1 $243 $92 #
plane-surface $-1 0 43.35214028741579995 15.66125340202725447 1 0 0 0 0 -1 forward_v I I I I #
coedge $-1 $244 $155 $245 $246 forward $93 $-1 #
coedge $-1 $247 $95 $244 $248 forward $57 $-1 #
coedge $-1 $95 $247 $249 $250 forward $57 $-1 #
coedge $-1 $158 $157 $95 $151 reversed $159 $-1 #
edge $-1 $251 -43.35214028741579995 $252 43.35214028741579995 $150 $253 forward 7 unknown #
coedge $-1 $97 $96 $254 $255 forward $33 $-1 #
coedge $-1 $256 $257 $96 $154 reversed $241 $-1 #
edge $-1 $161 -76.25476851710561732 $258 76.25476851710561732 $153 $259 forward 7 unknown #
coedge $-1 $147 $260 $97 $156 reversed $93 $-1 #
edge $-1 $261 -76.25476851710561732 $160 76.25476851710561732 $155 $262 forward 7 unknown #
coedge $-1 $150 $98 $260 $263 forward $159 $-1 #
coedge $-1 $98 $150 $256 $264 reversed $159 $-1 #
loop $-1 $-1 $157 $240 #
vertex $-1 $99 $265 #
vertex $-1 $99 $266 #
straight-curve $-1 152.5095370342112346 43.35214028741579995 31.32250680405450893 0 1 0 I I #
face $-1 $267 $268 $17 $-1 $269 reversed single #
loop $-1 $-1 $270 $100 #
plane-surface $-1 -18.08677610213626252 43.35214028741579995 1.814854740831864044 1 0 0 0 0 -1 forward_v I I I I #
coedge $-1 $271 $174 $272 $273 forward $101 $-1 #
coedge $-1 $274 $103 $271 $275 forward $61 $-1 #
coedge $-1 $103 $274 $276 $277 forward $61 $-1 #
coedge $-1 $177 $176 $103 $170 reversed $178 $-1 #
edge $-1 $278 -43.35214028741579995 $279 43.35214028741579995 $169 $280 forward 7 unknown #
coedge $-1 $105 $104 $281 $282 forward $36 $-1 #
coedge $-1 $283 $284 $104 $173 reversed $268 $-1 #
edge $-1 $180 -9.043388051068131261 $285 9.043388051068131261 $172 $286 forward 7 unknown #
coedge $-1 $166 $287 $105 $175 reversed $101 $-1 #
edge $-1 $288 -9.043388051068131261 $179 9.043388051068131261 $174 $289 forward 7 unknown #
coedge $-1 $169 $106 $287 $290 forward $178 $-1 #
coedge $-1 $106 $169 $283 $291 reversed $178 $-1 #
loop $-1 $-1 $176 $267 #
vertex $-1 $107 $292 #
vertex $-1 $107 $293 #
straight-curve $-1 0 43.35214028741579995 3.629709481663728088 0 1 0 I I #
face $-1 $294 $295 $18 $-1 $296 reversed single #
loop $-1 $-1 $297 $108 #
plane-surface $-1 21.09153755429629484 87.87094085423090917 197.7687228949071709 1 0 0 0 -0.5000000066987363434 -0.8660253999169214012 forward_v I I I I #
coedge $-1 $298 $193 $299 $300 forward $109 $-1 #
coedge $-1 $301 $111 $298 $302 forward $65 $-1 #
coedge $-1 $111 $301 $303 $304 forward $65 $-1 #
coedge $-1 $196 $195 $111 $189 reversed $197 $-1 #
edge $-1 $305 -305.0190740684224693 $306 305.0190740684224693 $188 $307 forward 7 unknown #
coedge $-1 $113 $112 $308 $309 forward $39 $-1 #
coedge $-1 $310 $311 $112 $192 reversed $295 $-1 #
edge $-1 $199 -7.25434518647454496 $312 7.25434518647454496 $191 $313 forward 7 unknown #
coedge $-1 $185 $314 $113 $194 reversed $109 $-1 #
edge $-1 $315 -7.25434518647454496 $198 7.25434518647454496 $193 $316 forward 7 unknown #
coedge $-1 $188 $114 $314 $317 forward $197 $-1 #
coedge $-1 $114 $188 $310 $318 reversed $197 $-1 #
loop $-1 $-1 $195 $294 #
vertex $-1 $115 $319 #
vertex $-1 $115 $320 #
straight-curve $-1 35.60022792724538476 164.1257103929576999 329.8458556961044792 0 0.8660253999169214012 -0.5000000066987363434 I I #
loop $-1 $-1 $321 $68 #
coedge $-1 $202 $202 $119 $203 reversed $116 $-1 #
edge $-1 $322 0 $322 6.283185307179586232 $202 $323 forward 7 unknown #
vertex $-1 $120 $324 #
ellipse-curve $-1 25.23687766085317818 78.92472464710051838 26.83097801476971611 0 0.5000000066987363434 0.8660253999169214012 1 0 0 1 I I #
loop $-1 $-1 $325 $73 #
coedge $-1 $207 $207 $124 $208 reversed $121 $-1 #
edge $-1 $326 0 $326 6.283185307179586232 $207 $327 forward 7 unknown #
vertex $-1 $125 $328 #
ellipse-curve $-1 31.45488782068850497 78.92472464710051838 26.83097801476971611 0 0.5000000066987363434 0.8660253999169214012 1 0 0 1 I I #
face $-1 $329 $330 $21 $-1 $331 reversed single #
loop $-1 $-1 $332 $126 #
plane-surface $-1 134.9960852091020911 87.87094085423090917 197.7687228949071709 1 0 0 0 -0.5000000066987363434 -0.8660253999169214012 forward_v I I I I #
coedge $-1 $333 $222 $334 $335 forward $127 $-1 #
coedge $-1 $336 $129 $333 $337 forward $79 $-1 #
coedge $-1 $129 $336 $338 $339 forward $79 $-1 #
coedge $-1 $225 $224 $129 $218 reversed $226 $-1 #
edge $-1 $340 -305.0190740684224693 $341 305.0190740684224693 $217 $342 forward 7 unknown #
coedge $-1 $131 $130 $343 $344 forward $48 $-1 #
coedge $-1 $345 $346 $130 $221 reversed $330 $-1 #
edge $-1 $228 -7.254345186474552065 $347 7.254345186474552065 $220 $348 forward 7 unknown #
coedge $-1 $214 $349 $131 $223 reversed $127 $-1 #
edge $-1 $350 -7.254345186474552065 $227 7.254345186474552065 $222 $351 forward 7 unknown #
coedge $-1 $217 $132 $349 $352 forward $226 $-1 #
coedge $-1 $132 $217 $345 $353 reversed $226 $-1 #
loop $-1 $-1 $224 $329 #
vertex $-1 $133 $354 #
vertex $-1 $133 $355 #
straight-curve $-1 149.5047755820511952 164.1257103929576999 329.8458556961044792 0 0.8660253999169214012 -0.5000000066987363434 I I #
loop $-1 $-1 $356 $82 #
coedge $-1 $231 $231 $137 $232 reversed $134 $-1 #
edge $-1 $357 0 $357 6.283185307179586232 $231 $358 forward 7 unknown #
vertex $-1 $138 $359 #
ellipse-curve $-1 139.141425315658978 78.92472464710051838 26.83097801476971611 0 0.5000000066987363434 0.8660253999169214012 1 0 0 1 I I #
loop $-1 $-1 $360 $87 #
coedge $-1 $236 $236 $142 $237 reversed $139 $-1 #
edge $-1 $361 0 $361 6.283185307179586232 $236 $362 forward 7 unknown #
vertex $-1 $143 $363 #
ellipse-curve $-1 145.3594354754943083 78.92472464710051838 26.83097801476971611 0 0.5000000066987363434 0.8660253999169214012 1 0 0 1 I I #
face $-1 $-1 $159 $16 $-1 $364 reversed single #
loop $-1 $-1 $256 $144 #
plane-surface $-1 76.25476851710561732 86.70428057483159989 15.66125340202725447 0 -1 0 0 0 -1 forward_v I I I I #
coedge $-1 $365 $254 $257 $366 forward $145 $-1 #
coedge $-1 $260 $147 $148 $248 reversed $93 $-1 #
coedge $-1 $254 $365 $147 $246 reversed $145 $-1 #
edge $-1 $261 -15.66125340202725447 $367 15.66125340202725447 $245 $368 forward 7 unknown #
coedge $-1 $149 $148 $365 $369 forward $57 $-1 #
edge $-1 $252 -76.25476851710561732 $367 76.25476851710561732 $244 $370 forward 7 unknown #
coedge $-1 $257 $256 $149 $250 reversed $241 $-1 #
edge $-1 $371 -76.25476851710561732 $251 76.25476851710561732 $249 $372 forward 7 unknown #
vertex $-1 $151 $373 #
vertex $-1 $263 $374 #
straight-curve $-1 152.5095370342112346 43.35214028741579995 0 0 -1 0 I I #
coedge $-1 $243 $245 $152 $255 reversed $145 $-1 #
edge $-1 $258 -43.35214028741579995 $261 43.35214028741579995 $254 $375 forward 7 unknown #
coedge $-1 $249 $153 $158 $264 forward $241 $-1 #
coedge $-1 $153 $249 $243 $366 reversed $241 $-1 #
vertex $-1 $154 $376 #
straight-curve $-1 76.25476851710561732 86.70428057483159989 31.32250680405450893 -1 0 0 I I #
coedge $-1 $155 $244 $157 $263 reversed $93 $-1 #
vertex $-1 $255 $377 #
straight-curve $-1 76.25476851710561732 0 31.32250680405450893 1 0 0 I I #
edge $-1 $160 -15.66125340202725447 $252 15.66125340202725447 $157 $378 forward 7 unknown #
edge $-1 $161 -15.66125340202725447 $251 15.66125340202725447 $158 $379 forward 7 unknown #
point $-1 152.5095370342112346 0 31.32250680405450893 #
point $-1 152.5095370342112346 86.70428057483159989 31.32250680405450893 #
face $-1 $-1 $178 $17 $-1 $380 reversed single #
loop $-1 $-1 $283 $163 #
plane-surface $-1 -9.043388051068131261 86.70428057483159989 1.814854740831864044 0 -1 0 0 0 -1 forward_v I I I I #
coedge $-1 $381 $281 $284 $382 forward $164 $-1 #
coedge $-1 $287 $166 $167 $275 reversed $101 $-1 #
coedge $-1 $281 $381 $166 $273 reversed $164 $-1 #
edge $-1 $288 -1.814854740831864044 $383 1.814854740831864044 $272 $384 forward 7 unknown #
coedge $-1 $168 $167 $381 $385 forward $61 $-1 #
edge $-1 $279 -9.043388051068131261 $383 9.043388051068131261 $271 $386 forward 7 unknown #
coedge $-1 $284 $283 $168 $277 reversed $268 $-1 #
edge $-1 $387 -9.043388051068131261 $278 9.043388051068131261 $276 $388 forward 7 unknown #
vertex $-1 $170 $389 #
vertex $-1 $290 $390 #
straight-curve $-1 0 43.35214028741579995 0 0 -1 0 I I #
coedge $-1 $270 $272 $171 $282 reversed $164 $-1 #
edge $-1 $285 -43.35214028741579995 $288 43.35214028741579995 $281 $391 forward 7 unknown #
coedge $-1 $276 $172 $177 $291 forward $268 $-1 #
coedge $-1 $172 $276 $270 $382 reversed $268 $-1 #
vertex $-1 $173 $392 #
straight-curve $-1 -9.043388051068131261 86.70428057483159989 3.629709481663728088 -1 0 0 I I #
coedge $-1 $174 $271 $176 $290 reversed $101 $-1 #
vertex $-1 $282 $393 #
straight-curve $-1 -9.043388051068131261 0 3.629709481663728088 1 0 0 I I #
edge $-1 $179 -1.814854740831864044 $279 1.814854740831864044 $176 $394 forward 7 unknown #
edge $-1 $180 -1.814854740831864044 $278 1.814854740831864044 $177 $395 forward 7 unknown #
point $-1 0 0 3.629709481663728088 #
point $-1 0 86.70428057483159989 3.629709481663728088 #
face $-1 $-1 $197 $18 $-1 $396 reversed single #
loop $-1 $-1 $310 $182 #
plane-surface $-1 28.3458827407708398 352.0252064566255399 45.25918381745358943 0 -0.8660253999169214012 0.5000000066987363434 0 -0.5000000066987363434 -0.8660253999169214012 forward_v I I I I #
coedge $-1 $397 $308 $311 $398 forward $183 $-1 #
coedge $-1 $314 $185 $186 $302 reversed $109 $-1 #
coedge $-1 $308 $397 $185 $300 reversed $183 $-1 #
edge $-1 $315 -152.5095370342112631 $399 152.5095370342112062 $299 $400 forward 7 unknown #
coedge $-1 $187 $186 $397 $401 forward $65 $-1 #
edge $-1 $306 -7.25434518647454496 $399 7.25434518647454496 $298 $402 forward 7 unknown #
coedge $-1 $311 $310 $187 $304 reversed $295 $-1 #
edge $-1 $403 -7.25434518647454496 $305 7.25434518647454496 $303 $404 forward 7 unknown #
vertex $-1 $189 $405 #
vertex $-1 $317 $406 #
straight-curve $-1 35.60022792724538476 11.61617131550411841 65.69159009370986269 0 -0.8660253999169214012 0.5000000066987363434 I I #
coedge $-1 $297 $299 $190 $309 reversed $183 $-1 #
edge $-1 $312 -305.0190740684224693 $315 305.0190740684224693 $308 $407 forward 7 unknown #
coedge $-1 $303 $191 $196 $318 forward $295 $-1 #
coedge $-1 $191 $303 $297 $398 reversed $295 $-1 #
vertex $-1 $192 $408 #
straight-curve $-1 28.3458827407708398 428.2799759953523449 177.3363166186508977 -1 0 0 I I #
coedge $-1 $193 $298 $195 $317 reversed $109 $-1 #
vertex $-1 $309 $409 #
straight-curve $-1 28.3458827407708398 -100.0285552094369024 482.3553947735580891 1 0 0 I I #
edge $-1 $198 -152.5095370342112631 $306 152.5095370342112062 $195 $410 forward 7 unknown #
edge $-1 $199 -152.5095370342112346 $305 152.5095370342112631 $196 $411 forward 7 unknown #
point $-1 35.60022792724538476 -100.0285552094369024 482.3553947735580891 #
point $-1 35.60022792724538476 428.2799759953523449 177.3363166186508977 #
coedge $-1 $321 $321 $-1 $412 reversed $201 $-1 #
vertex $-1 $203 $413 #
ellipse-curve $-1 25.23687766085317818 77.16698055177165827 23.78647598934077934 0 0.5000000066987363434 0.8660253999169214012 1 0 0 1 I I #
point $-1 26.23687766085317818 78.92472464710051838 26.83097801476971611 #
coedge $-1 $325 $325 $-1 $414 reversed $206 $-1 #
vertex $-1 $208 $415 #
ellipse-curve $-1 31.45488782068850497 77.16698055177165827 23.78647598934077934 0 0.5000000066987363434 0.8660253999169214012 1 0 0 1 I I #
point $-1 32.45488782068850497 78.92472464710051838 26.83097801476971611 #
face $-1 $-1 $226 $21 $-1 $416 reversed single #
loop $-1 $-1 $345 $211 #
plane-surface $-1 142.2504303955766431 352.0252064566255399 45.25918381745358943 0 -0.8660253999169214012 0.5000000066987363434 0 -0.5000000066987363434 -0.8660253999169214012 forward_v I I I I #
coedge $-1 $417 $343 $346 $418 forward $212 $-1 #
coedge $-1 $349 $214 $215 $337 reversed $127 $-1 #
coedge $-1 $343 $417 $214 $335 reversed $212 $-1 #
edge $-1 $350 -152.5095370342112631 $419 152.5095370342112062 $334 $420 forward 7 unknown #
coedge $-1 $216 $215 $417 $421 forward $79 $-1 #
edge $-1 $341 -7.254345186474552065 $419 7.254345186474552065 $333 $422 forward 7 unknown #
coedge $-1 $346 $345 $216 $339 reversed $330 $-1 #
edge $-1 $423 -7.254345186474552065 $340 7.254345186474552065 $338 $424 forward 7 unknown #
vertex $-1 $218 $425 #
vertex $-1 $352 $426 #
straight-curve $-1 149.5047755820511952 11.61617131550411841 65.69159009370986269 0 -0.8660253999169214012 0.5000000066987363434 I I #
coedge $-1 $332 $334 $219 $344 reversed $212 $-1 #
edge $-1 $347 -305.0190740684224693 $350 305.0190740684224693 $343 $427 forward 7 unknown #
coedge $-1 $338 $220 $225 $353 forward $330 $-1 #
coedge $-1 $220 $338 $332 $418 reversed $330 $-1 #
vertex $-1 $221 $428 #
straight-curve $-1 142.2504303955766431 428.2799759953523449 177.3363166186508977 -1 0 0 I I #
coedge $-1 $222 $333 $224 $352 reversed $127 $-1 #
vertex $-1 $344 $429 #
straight-curve $-1 142.2504303955766431 -100.0285552094369024 482.3553947735580891 1 0 0 I I #
edge $-1 $227 -152.5095370342112631 $341 152.5095370342112062 $224 $430 forward 7 unknown #
edge $-1 $228 -152.5095370342112346 $340 152.5095370342112631 $225 $431 forward 7 unknown #
point $-1 149.5047755820511952 -100.0285552094369024 482.3553947735580891 #
point $-1 149.5047755820511952 428.2799759953523449 177.3363166186508977 #
coedge $-1 $356 $356 $-1 $432 reversed $230 $-1 #
vertex $-1 $232 $433 #
ellipse-curve $-1 139.141425315658978 77.16698055177165827 23.78647598934077934 0 0.5000000066987363434 0.8660253999169214012 1 0 0 1 I I #
point $-1 140.141425315658978 78.92472464710051838 26.83097801476971611 #
coedge $-1 $360 $360 $-1 $434 reversed $235 $-1 #
vertex $-1 $237 $435 #
ellipse-curve $-1 145.3594354754943083 77.16698055177165827 23.78647598934077934 0 0.5000000066987363434 0.8660253999169214012 1 0 0 1 I I #
point $-1 146.3594354754943083 78.92472464710051838 26.83097801476971611 #
plane-surface $-1 152.5095370342112346 43.35214028741579995 15.66125340202725447 -1 0 0 0 0 1 forward_v I I I I #
coedge $-1 $245 $243 $247 $369 reversed $145 $-1 #
edge $-1 $258 -15.66125340202725447 $371 15.66125340202725447 $257 $436 forward 7 unknown #
vertex $-1 $369 $437 #
straight-curve $-1 0 0 15.66125340202725447 0 0 -1 I I #
edge $-1 $367 -43.35214028741579995 $371 43.35214028741579995 $365 $438 forward 7 unknown #
straight-curve $-1 76.25476851710561732 0 0 -1 0 0 I I #
vertex $-1 $250 $439 #
straight-curve $-1 76.25476851710561732 86.70428057483159989 0 1 0 0 I I #
point $-1 152.5095370342112346 86.70428057483159989 0 #
point $-1 152.5095370342112346 0 0 #
straight-curve $-1 0 43.35214028741579995 31.32250680405450893 0 -1 0 I I #
point $-1 0 86.70428057483159989 31.32250680405450893 #
point $-1 0 0 31.32250680405450893 #
straight-curve $-1 152.5095370342112346 0 15.66125340202725447 0 0 -1 I I #
straight-curve $-1 152.5095370342112346 86.70428057483159989 15.66125340202725447 0 0 -1 I I #
plane-surface $-1 0 43.35214028741579995 1.814854740831864044 -1 0 0 0 0 1 forward_v I I I I #
coedge $-1 $272 $270 $274 $385 reversed $164 $-1 #
edge $-1 $285 -1.814854740831864044 $387 1.814854740831864044 $284 $440 forward 7 unknown #
vertex $-1 $385 $441 #
straight-curve $-1 -18.08677610213626252 0 1.814854740831864044 0 0 -1 I I #
edge $-1 $383 -43.35214028741579995 $387 43.35214028741579995 $381 $442 forward 7 unknown #
straight-curve $-1 -9.043388051068131261 0 0 -1 0 0 I I #
vertex $-1 $277 $443 #
straight-curve $-1 -9.043388051068131261 86.70428057483159989 0 1 0 0 I I #
point $-1 0 86.70428057483159989 0 #
point $-1 0 0 0 #
straight-curve $-1 -18.08677610213626252 43.35214028741579995 3.629709481663728088 0 -1 0 I I #
point $-1 -18.08677610213626252 86.70428057483159989 3.629709481663728088 #
point $-1 -18.08677610213626252 0 3.629709481663728088 #
straight-curve $-1 0 0 1.814854740831864044 0 0 -1 I I #
straight-curve $-1 0 86.70428057483159989 1.814854740831864044 0 0 -1 I I #
plane-surface $-1 35.60022792724538476 87.87094085423090917 197.7687228949071709 -1 0 0 0 0.5000000066987363434 0.8660253999169214012 forward_v I I I I #
coedge $-1 $299 $297 $301 $401 reversed $183 $-1 #
edge $-1 $312 -152.5095370342112346 $403 152.5095370342112631 $311 $444 forward 7 unknown #
vertex $-1 $401 $445 #
straight-curve $-1 21.09153755429629484 -176.2833247481636931 350.278261972360724 0 -0.5000000066987363434 -0.8660253999169214012 I I #
edge $-1 $399 -305.0190740684224693 $403 305.0190740684224693 $397 $446 forward 7 unknown #
straight-curve $-1 28.3458827407708398 -252.5380942868904981 218.2011291711634442 -1 0 0 I I #
vertex $-1 $304 $447 #
straight-curve $-1 28.3458827407708398 275.7704369178987349 -86.81794898374374725 1 0 0 I I #
point $-1 35.60022792724538476 275.7704369178987349 -86.81794898374374725 #
point $-1 35.60022792724538476 -252.5380942868904981 218.2011291711634442 #
straight-curve $-1 21.09153755429629484 164.1257103929576999 329.8458556961044792 0 -0.8660253999169214012 0.5000000066987363434 I I #
point $-1 21.09153755429629484 428.2799759953523449 177.3363166186508977 #
point $-1 21.09153755429629484 -100.0285552094369024 482.3553947735580891 #
straight-curve $-1 35.60022792724538476 -176.2833247481636931 350.278261972360724 0 -0.5000000066987363434 -0.8660253999169214012 I I #
straight-curve $-1 35.60022792724538476 352.0252064566255399 45.25918381745358943 0 -0.5000000066987363434 -0.8660253999169214012 I I #
edge $-1 $448 1 $448 0 $321 $-1 forward 7 unknown #
point $-1 26.23687766085317818 77.16698055177165827 23.78647598934077934 #
edge $-1 $449 1 $449 0 $325 $-1 forward 7 unknown #
point $-1 32.45488782068850497 77.16698055177165827 23.78647598934077934 #
plane-surface $-1 149.5047755820511952 87.87094085423090917 197.7687228949071709 -1 0 0 0 0.5000000066987363434 0.8660253999169214012 forward_v I I I I #
coedge $-1 $334 $332 $336 $421 reversed $212 $-1 #
edge $-1 $347 -152.5095370342112346 $423 152.5095370342112631 $346 $450 forward 7 unknown #
vertex $-1 $421 $451 #
straight-curve $-1 134.9960852091020911 -176.2833247481636931 350.278261972360724 0 -0.5000000066987363434 -0.8660253999169214012 I I #
edge $-1 $419 -305.0190740684224693 $423 305.0190740684224693 $417 $452 forward 7 unknown #
straight-curve $-1 142.2504303955766431 -252.5380942868904981 218.2011291711634442 -1 0 0 I I #
vertex $-1 $339 $453 #
straight-curve $-1 142.2504303955766431 275.7704369178987349 -86.81794898374374725 1 0 0 I I #
point $-1 149.5047755820511952 275.7704369178987349 -86.81794898374374725 #
point $-1 149.5047755820511952 -252.5380942868904981 218.2011291711634442 #
straight-curve $-1 134.9960852091020911 164.1257103929576999 329.8458556961044792 0 -0.8660253999169214012 0.5000000066987363434 I I #
point $-1 134.9960852091020911 428.2799759953523449 177.3363166186508977 #
point $-1 134.9960852091020911 -100.0285552094369024 482.3553947735580891 #
straight-curve $-1 149.5047755820511952 -176.2833247481636931 350.278261972360724 0 -0.5000000066987363434 -0.8660253999169214012 I I #
straight-curve $-1 149.5047755820511952 352.0252064566255399 45.25918381745358943 0 -0.5000000066987363434 -0.8660253999169214012 I I #
edge $-1 $454 1 $454 0 $356 $-1 forward 7 unknown #
point $-1 140.141425315658978 77.16698055177165827 23.78647598934077934 #
edge $-1 $455 1 $455 0 $360 $-1 forward 7 unknown #
point $-1 146.3594354754943083 77.16698055177165827 23.78647598934077934 #
straight-curve $-1 0 86.70428057483159989 15.66125340202725447 0 0 -1 I I #
point $-1 0 0 0 #
straight-curve $-1 0 43.35214028741579995 0 0 1 0 I I #
point $-1 0 86.70428057483159989 0 #
straight-curve $-1 -18.08677610213626252 86.70428057483159989 1.814854740831864044 0 0 -1 I I #
point $-1 -18.08677610213626252 0 0 #
straight-curve $-1 -18.08677610213626252 43.35214028741579995 0 0 1 0 I I #
point $-1 -18.08677610213626252 86.70428057483159989 0 #
straight-curve $-1 21.09153755429629484 352.0252064566255399 45.25918381745358943 0 -0.5000000066987363434 -0.8660253999169214012 I I #
point $-1 21.09153755429629484 -252.5380942868904981 218.2011291711634442 #
straight-curve $-1 21.09153755429629484 11.61617131550411841 65.69159009370986269 0 0.8660253999169214012 -0.5000000066987363434 I I #
point $-1 21.09153755429629484 275.7704369178987349 -86.81794898374374725 #
vertex $-1 $412 $456 #
vertex $-1 $414 $457 #
straight-curve $-1 134.9960852091020911 352.0252064566255399 45.25918381745358943 0 -0.5000000066987363434 -0.8660253999169214012 I I #
point $-1 134.9960852091020911 -252.5380942868904981 218.2011291711634442 #
straight-curve $-1 134.9960852091020911 11.61617131550411841 65.69159009370986269 0 0.8660253999169214012 -0.5000000066987363434 I I #
point $-1 134.9960852091020911 275.7704369178987349 -86.81794898374374725 #
vertex $-1 $432 $458 #
vertex $-1 $434 $459 #
point $-1 25.23687766085317818 76.66698054507291715 22.92045058942385793 #
point $-1 31.45488782068850497 76.66698054507291715 22.92045058942385793 #
point $-1 139.141425315658978 76.66698054507291715 22.92045058942385793 #
point $-1 145.3594354754943083 76.66698054507291715 22.92045058942385793 #
End-of-ACIS-data 