300 0 9 0           
7 Unknown 11 ACIS 3.0 NT 24 Fri Oct 30 20:18:40 1998 
-1 9.9999999999999995e-007 1e-010 
body $9 $10 $-1 $11 #
body $12 $13 $-1 $14 #
body $15 $16 $-1 $17 #
body $18 $19 $-1 $20 #
body $21 $22 $-1 $23 #
body $24 $25 $-1 $26 #
body $27 $28 $-1 $29 #
body $30 $31 $-1 $32 #
body $33 $34 $-1 $35 #
display_attribute-st-attrib $-1 $36 $-1 $0 1 #
lump $-1 $-1 $37 $0 #
transform $-1 1 0 0 0 1 0 0 0 1 70.690633869441811 34.710186388404075 15.619954630885106 1 rotate no_reflect no_shear #
display_attribute-st-attrib $-1 $38 $-1 $1 1 #
lump $-1 $-1 $39 $1 #
transform $-1 1 0 0 0 1 0 0 0 1 70.690633869441811 -9.642961139046804 23.93498609686322 1 rotate no_reflect no_shear #
display_attribute-st-attrib $-1 $40 $-1 $2 1 #
lump $-1 $-1 $41 $2 #
transform $-1 1 0 0 0 1 0 0 0 1 70.690633869441811 79.063333915854955 23.93498609686322 1 rotate no_reflect no_shear #
display_attribute-st-attrib $-1 $42 $-1 $3 1 #
lump $-1 $-1 $43 $3 #
transform $-1 0.81915203911291934 0 0.57357644374324357 0 1 0 -0.57357644374324357 0 0.81915203911291934 -81.092964761580248 23.275688662429872 137.65814699300864 1 rotate no_reflect no_shear #
display_attribute-st-attrib $-1 $44 $-1 $4 1 #
lump $-1 $-1 $45 $4 #
transform $-1 0.81915203911291934 0 0.57357644374324357 0 -1 0 0.57357644374324357 0 -0.81915203911291934 8.6435501777434194 21.565788783428616 23.778941214030574 1 rotate no_reflect no_shear #
display_attribute-st-attrib $-1 $46 $-1 $5 1 #
lump $-1 $-1 $47 $5 #
transform $-1 0.81915203911291934 0 0.57357644374324357 0 -1 0 0.57357644374324357 0 -0.81915203911291934 8.6435501777434194 24.985588541431127 23.778941214030574 1 rotate no_reflect no_shear #
display_attribute-st-attrib $-1 $48 $-1 $6 1 #
lump $-1 $-1 $49 $6 #
transform $-1 0.81915203911291934 0 -0.57357644374324357 0 1 0 0.57357644374324357 0 0.81915203911291934 106.66147873978775 23.275688662429872 218.75111175458886 1 rotate no_reflect no_shear #
display_attribute-st-attrib $-1 $50 $-1 $7 1 #
lump $-1 $-1 $51 $7 #
transform $-1 0.81915203911291934 0 -0.57357644374324357 0 -1 0 -0.57357644374324357 0 -0.81915203911291934 132.73771756114019 21.565788783428616 23.778941214030574 1 rotate no_reflect no_shear #
display_attribute-st-attrib $-1 $52 $-1 $8 1 #
lump $-1 $-1 $53 $8 #
transform $-1 0.81915203911291934 0 -0.57357644374324357 0 -1 0 -0.57357644374324357 0 -0.81915203911291934 132.73771756114019 24.985588541431127 23.778941214030574 1 rotate no_reflect no_shear #
id_attribute-st-attrib $-1 $-1 $9 $0 4483 #
shell $-1 $-1 $-1 $54 $-1 $10 #
id_attribute-st-attrib $-1 $-1 $12 $1 4488 #
shell $-1 $-1 $-1 $55 $-1 $13 #
id_attribute-st-attrib $-1 $-1 $15 $2 4497 #
shell $-1 $-1 $-1 $56 $-1 $16 #
id_attribute-st-attrib $-1 $-1 $18 $3 4511 #
shell $-1 $-1 $-1 $57 $-1 $19 #
id_attribute-st-attrib $-1 $-1 $21 $4 4518 #
shell $-1 $-1 $-1 $58 $-1 $22 #
id_attribute-st-attrib $-1 $-1 $24 $5 4526 #
shell $-1 $-1 $-1 $59 $-1 $25 #
id_attribute-st-attrib $-1 $-1 $27 $6 4540 #
shell $-1 $-1 $-1 $60 $-1 $28 #
id_attribute-st-attrib $-1 $-1 $30 $7 4550 #
shell $-1 $-1 $-1 $61 $-1 $31 #
id_attribute-st-attrib $-1 $-1 $33 $8 4561 #
shell $-1 $-1 $-1 $62 $-1 $34 #
face $-1 $63 $64 $37 $-1 $65 forward single #
face $-1 $66 $67 $39 $-1 $68 forward single #
face $-1 $69 $70 $41 $-1 $71 forward single #
face $-1 $72 $73 $43 $-1 $74 forward single #
face $-1 $75 $76 $45 $-1 $77 forward single #
face $-1 $78 $79 $47 $-1 $80 forward single #
face $-1 $81 $82 $49 $-1 $83 forward single #
face $-1 $84 $85 $51 $-1 $86 forward single #
face $-1 $87 $88 $53 $-1 $89 forward single #
face $-1 $90 $91 $37 $-1 $92 reversed single #
loop $-1 $-1 $93 $54 #
plane-surface $-1 0 0 15.619954630885106 0 0 1 1 0 0 forward_v I I I I #
face $-1 $94 $95 $39 $-1 $96 reversed single #
loop $-1 $-1 $97 $55 #
plane-surface $-1 0 0 4.0461626914728139 0 0 1 1 0 0 forward_v I I I I #
face $-1 $98 $99 $41 $-1 $100 reversed single #
loop $-1 $-1 $101 $56 #
plane-surface $-1 0 0 4.0461626914728139 0 0 1 1 0 0 forward_v I I I I #
face $-1 $102 $103 $43 $-1 $104 reversed single #
loop $-1 $-1 $105 $57 #
plane-surface $-1 0 0 141.38126773888362 0 0 1 1 0 0 forward_v I I I I #
face $-1 $106 $107 $45 $-1 $108 forward single #
loop $-1 $109 $110 $58 #
cone-surface $-1 0 0 -1.9369335001678536 0 0 1 1 0 0 1 I I 0 1 forward I I I I #
face $-1 $111 $112 $47 $-1 $113 forward single #
loop $-1 $114 $115 $59 #
cone-surface $-1 0 0 -1.9369335001678536 0 0 1 1 0 0 1 I I 0 1 forward I I I I #
face $-1 $116 $117 $49 $-1 $118 reversed single #
loop $-1 $-1 $119 $60 #
plane-surface $-1 0 0 141.38126773888362 0 0 1 1 0 0 forward_v I I I I #
face $-1 $120 $121 $51 $-1 $122 forward single #
loop $-1 $123 $124 $61 #
cone-surface $-1 0 0 -1.9369335001678536 0 0 1 1 0 0 1 I I 0 1 forward I I I I #
face $-1 $125 $126 $53 $-1 $127 forward single #
loop $-1 $128 $129 $62 #
cone-surface $-1 0 0 -1.9369335001678536 0 0 1 1 0 0 1 I I 0 1 forward I I I I #
face $-1 $130 $131 $37 $-1 $132 reversed single #
loop $-1 $-1 $133 $63 #
plane-surface $-1 0 0 -15.619954630885106 0 0 1 1 0 0 forward_v I I I I #
coedge $-1 $134 $135 $136 $137 forward $64 $-1 #
face $-1 $138 $139 $39 $-1 $140 reversed single #
loop $-1 $-1 $141 $66 #
plane-surface $-1 0 0 -4.0461626914728139 0 0 1 1 0 0 forward_v I I I I #
coedge $-1 $142 $143 $144 $145 forward $67 $-1 #
face $-1 $146 $147 $41 $-1 $148 reversed single #
loop $-1 $-1 $149 $69 #
plane-surface $-1 0 0 -4.0461626914728139 0 0 1 1 0 0 forward_v I I I I #
coedge $-1 $150 $151 $152 $153 forward $70 $-1 #
face $-1 $154 $155 $43 $-1 $156 reversed single #
loop $-1 $-1 $157 $72 #
plane-surface $-1 0 0 -141.38126773888362 0 0 1 1 0 0 forward_v I I I I #
coedge $-1 $158 $159 $160 $161 forward $73 $-1 #
face $-1 $-1 $162 $45 $-1 $163 forward single #
loop $-1 $-1 $164 $75 #
plane-surface $-1 0 0 -3.3738670003357054 0 0 -1 -1 0 0 forward_v I I I I #
loop $-1 $-1 $165 $58 #
coedge $-1 $110 $110 $164 $166 reversed $76 $-1 #
face $-1 $-1 $167 $47 $-1 $168 forward single #
loop $-1 $-1 $169 $78 #
plane-surface $-1 0 0 -3.3738670003357054 0 0 -1 -1 0 0 forward_v I I I I #
loop $-1 $-1 $170 $59 #
coedge $-1 $115 $115 $169 $171 reversed $79 $-1 #
face $-1 $172 $173 $49 $-1 $174 reversed single #
loop $-1 $-1 $175 $81 #
plane-surface $-1 0 0 -141.38126773888362 0 0 1 1 0 0 forward_v I I I I #
coedge $-1 $176 $177 $178 $179 forward $82 $-1 #
face $-1 $-1 $180 $51 $-1 $181 forward single #
loop $-1 $-1 $182 $84 #
plane-surface $-1 0 0 -3.3738670003357054 0 0 -1 -1 0 0 forward_v I I I I #
loop $-1 $-1 $183 $61 #
coedge $-1 $124 $124 $182 $184 reversed $85 $-1 #
face $-1 $-1 $185 $53 $-1 $186 forward single #
loop $-1 $-1 $187 $87 #
plane-surface $-1 0 0 -3.3738670003357054 0 0 -1 -1 0 0 forward_v I I I I #
loop $-1 $-1 $188 $62 #
coedge $-1 $129 $129 $187 $189 reversed $88 $-1 #
face $-1 $190 $191 $37 $-1 $192 reversed single #
loop $-1 $-1 $193 $90 #
plane-surface $-1 0 -34.710186388404075 0 0 1 0 0 0 1 forward_v I I I I #
coedge $-1 $194 $195 $196 $197 forward $91 $-1 #
coedge $-1 $198 $93 $199 $200 forward $64 $-1 #
coedge $-1 $93 $198 $201 $202 forward $64 $-1 #
coedge $-1 $203 $204 $93 $137 reversed $205 $-1 #
edge $-1 $206 $207 $136 $208 forward #
face $-1 $209 $210 $39 $-1 $211 reversed single #
loop $-1 $-1 $212 $94 #
plane-surface $-1 0 -9.642961139046804 0 0 1 0 0 0 1 forward_v I I I I #
coedge $-1 $213 $214 $215 $216 forward $95 $-1 #
coedge $-1 $217 $97 $218 $219 forward $67 $-1 #
coedge $-1 $97 $217 $220 $221 forward $67 $-1 #
coedge $-1 $222 $223 $97 $145 reversed $224 $-1 #
edge $-1 $225 $226 $144 $227 forward #
face $-1 $228 $229 $41 $-1 $230 reversed single #
loop $-1 $-1 $231 $98 #
plane-surface $-1 0 -9.642961139046804 0 0 1 0 0 0 1 forward_v I I I I #
coedge $-1 $232 $233 $234 $235 forward $99 $-1 #
coedge $-1 $236 $101 $237 $238 forward $70 $-1 #
coedge $-1 $101 $236 $239 $240 forward $70 $-1 #
coedge $-1 $241 $242 $101 $153 reversed $243 $-1 #
edge $-1 $244 $245 $152 $246 forward #
face $-1 $247 $248 $43 $-1 $249 reversed single #
loop $-1 $-1 $250 $102 #
plane-surface $-1 0 -3.9897663843362619 0 0 1 0 0 0 1 forward_v I I I I #
coedge $-1 $251 $252 $253 $254 forward $103 $-1 #
coedge $-1 $255 $105 $256 $257 forward $73 $-1 #
coedge $-1 $105 $255 $258 $259 forward $73 $-1 #
coedge $-1 $260 $261 $105 $161 reversed $262 $-1 #
edge $-1 $263 $264 $160 $265 forward #
loop $-1 $266 $267 $106 #
cone-surface $-1 0 0 0 0 0 1 0.5 0 0 1 I I -0.70710678118654746 0.70710678118654746 forward I I I I #
coedge $-1 $164 $164 $110 $166 forward $107 $-1 #
coedge $-1 $165 $165 $267 $268 forward $109 $-1 #
edge $-1 $269 $269 $164 $270 forward #
loop $-1 $271 $272 $111 #
cone-surface $-1 0 0 0 0 0 1 0.5 0 0 1 I I -0.70710678118654746 0.70710678118654746 forward I I I I #
coedge $-1 $169 $169 $115 $171 forward $112 $-1 #
coedge $-1 $170 $170 $272 $273 forward $114 $-1 #
edge $-1 $274 $274 $169 $275 forward #
face $-1 $276 $277 $49 $-1 $278 reversed single #
loop $-1 $-1 $279 $116 #
plane-surface $-1 0 -3.9897663843362619 0 0 1 0 0 0 1 forward_v I I I I #
coedge $-1 $280 $281 $282 $283 forward $117 $-1 #
coedge $-1 $284 $119 $285 $286 forward $82 $-1 #
coedge $-1 $119 $284 $287 $288 forward $82 $-1 #
coedge $-1 $289 $290 $119 $179 reversed $291 $-1 #
edge $-1 $292 $293 $178 $294 forward #
loop $-1 $295 $296 $120 #
cone-surface $-1 0 0 0 0 0 1 0.5 0 0 1 I I -0.70710678118654746 0.70710678118654746 forward I I I I #
coedge $-1 $182 $182 $124 $184 forward $121 $-1 #
coedge $-1 $183 $183 $296 $297 forward $123 $-1 #
edge $-1 $298 $298 $182 $299 forward #
loop $-1 $300 $301 $125 #
cone-surface $-1 0 0 0 0 0 1 0.5 0 0 1 I I -0.70710678118654746 0.70710678118654746 forward I I I I #
coedge $-1 $187 $187 $129 $189 forward $126 $-1 #
coedge $-1 $188 $188 $301 $302 forward $128 $-1 #
edge $-1 $303 $303 $187 $304 forward #
face $-1 $305 $306 $37 $-1 $307 reversed single #
loop $-1 $-1 $308 $130 #
plane-surface $-1 -70.690633869441811 0 0 1 0 0 0 0 -1 forward_v I I I I #
coedge $-1 $309 $201 $310 $311 forward $131 $-1 #
coedge $-1 $312 $133 $309 $313 forward $91 $-1 #
coedge $-1 $133 $312 $314 $315 forward $91 $-1 #
coedge $-1 $204 $203 $133 $197 reversed $205 $-1 #
edge $-1 $316 $317 $196 $318 forward #
coedge $-1 $135 $134 $319 $320 forward $64 $-1 #
coedge $-1 $321 $322 $134 $200 reversed $306 $-1 #
edge $-1 $207 $323 $199 $324 forward #
coedge $-1 $193 $325 $135 $202 reversed $131 $-1 #
edge $-1 $326 $206 $201 $327 forward #
coedge $-1 $196 $136 $325 $328 forward $205 $-1 #
coedge $-1 $136 $196 $321 $329 reversed $205 $-1 #
loop $-1 $-1 $203 $305 #
vertex $-1 $137 $330 #
vertex $-1 $137 $331 #
straight-curve $-1 70.690633869441811 0 15.619954630885106 0 1 0 I I #
face $-1 $332 $333 $39 $-1 $334 reversed single #
loop $-1 $-1 $335 $138 #
plane-surface $-1 -70.690633869441811 0 0 1 0 0 0 0 -1 forward_v I I I I #
coedge $-1 $336 $220 $337 $338 forward $139 $-1 #
coedge $-1 $339 $141 $336 $340 forward $95 $-1 #
coedge $-1 $141 $339 $341 $342 forward $95 $-1 #
coedge $-1 $223 $222 $141 $216 reversed $224 $-1 #
edge $-1 $343 $344 $215 $345 forward #
coedge $-1 $143 $142 $346 $347 forward $67 $-1 #
coedge $-1 $348 $349 $142 $219 reversed $333 $-1 #
edge $-1 $226 $350 $218 $351 forward #
coedge $-1 $212 $352 $143 $221 reversed $139 $-1 #
edge $-1 $353 $225 $220 $354 forward #
coedge $-1 $215 $144 $352 $355 forward $224 $-1 #
coedge $-1 $144 $215 $348 $356 reversed $224 $-1 #
loop $-1 $-1 $222 $332 #
vertex $-1 $145 $357 #
vertex $-1 $145 $358 #
straight-curve $-1 70.690633869441811 0 4.0461626914728139 0 1 0 I I #
face $-1 $359 $360 $41 $-1 $361 reversed single #
loop $-1 $-1 $362 $146 #
plane-surface $-1 -70.690633869441811 0 0 1 0 0 0 0 -1 forward_v I I I I #
coedge $-1 $363 $239 $364 $365 forward $147 $-1 #
coedge $-1 $366 $149 $363 $367 forward $99 $-1 #
coedge $-1 $149 $366 $368 $369 forward $99 $-1 #
coedge $-1 $242 $241 $149 $235 reversed $243 $-1 #
edge $-1 $370 $371 $234 $372 forward #
coedge $-1 $151 $150 $373 $374 forward $70 $-1 #
coedge $-1 $375 $376 $150 $238 reversed $360 $-1 #
edge $-1 $245 $377 $237 $378 forward #
coedge $-1 $231 $379 $151 $240 reversed $147 $-1 #
edge $-1 $380 $244 $239 $381 forward #
coedge $-1 $234 $152 $379 $382 forward $243 $-1 #
coedge $-1 $152 $234 $375 $383 reversed $243 $-1 #
loop $-1 $-1 $241 $359 #
vertex $-1 $153 $384 #
vertex $-1 $153 $385 #
straight-curve $-1 70.690633869441811 0 4.0461626914728139 0 1 0 I I #
face $-1 $386 $387 $43 $-1 $388 reversed single #
loop $-1 $-1 $389 $154 #
plane-surface $-1 -282.76253547776724 0 0 1 0 0 0 0 -1 forward_v I I I I #
coedge $-1 $390 $258 $391 $392 forward $155 $-1 #
coedge $-1 $393 $157 $390 $394 forward $103 $-1 #
coedge $-1 $157 $393 $395 $396 forward $103 $-1 #
coedge $-1 $261 $260 $157 $254 reversed $262 $-1 #
edge $-1 $397 $398 $253 $399 forward #
coedge $-1 $159 $158 $400 $401 forward $73 $-1 #
coedge $-1 $402 $403 $158 $257 reversed $387 $-1 #
edge $-1 $264 $404 $256 $405 forward #
coedge $-1 $250 $406 $159 $259 reversed $155 $-1 #
edge $-1 $407 $263 $258 $408 forward #
coedge $-1 $253 $160 $406 $409 forward $262 $-1 #
coedge $-1 $160 $253 $402 $410 reversed $262 $-1 #
loop $-1 $-1 $260 $386 #
vertex $-1 $161 $411 #
vertex $-1 $161 $412 #
straight-curve $-1 282.76253547776724 0 141.38126773888362 0 1 0 I I #
loop $-1 $-1 $413 $106 #
coedge $-1 $267 $267 $165 $268 reversed $162 $-1 #
edge $-1 $414 $414 $267 $415 forward #
vertex $-1 $166 $416 #
ellipse-curve $-1 0 0 -3.3738670003357054 0 0 -1 1 0 0 1 I I #
loop $-1 $-1 $417 $111 #
coedge $-1 $272 $272 $170 $273 reversed $167 $-1 #
edge $-1 $418 $418 $272 $419 forward #
vertex $-1 $171 $420 #
ellipse-curve $-1 0 0 -3.3738670003357054 0 0 -1 1 0 0 1 I I #
face $-1 $421 $422 $49 $-1 $423 reversed single #
loop $-1 $-1 $424 $172 #
plane-surface $-1 -282.76253547776724 0 0 1 0 0 0 0 -1 forward_v I I I I #
coedge $-1 $425 $287 $426 $427 forward $173 $-1 #
coedge $-1 $428 $175 $425 $429 forward $117 $-1 #
coedge $-1 $175 $428 $430 $431 forward $117 $-1 #
coedge $-1 $290 $289 $175 $283 reversed $291 $-1 #
edge $-1 $432 $433 $282 $434 forward #
coedge $-1 $177 $176 $435 $436 forward $82 $-1 #
coedge $-1 $437 $438 $176 $286 reversed $422 $-1 #
edge $-1 $293 $439 $285 $440 forward #
coedge $-1 $279 $441 $177 $288 reversed $173 $-1 #
edge $-1 $442 $292 $287 $443 forward #
coedge $-1 $282 $178 $441 $444 forward $291 $-1 #
coedge $-1 $178 $282 $437 $445 reversed $291 $-1 #
loop $-1 $-1 $289 $421 #
vertex $-1 $179 $446 #
vertex $-1 $179 $447 #
straight-curve $-1 282.76253547776724 0 141.38126773888362 0 1 0 I I #
loop $-1 $-1 $448 $120 #
coedge $-1 $296 $296 $183 $297 reversed $180 $-1 #
edge $-1 $449 $449 $296 $450 forward #
vertex $-1 $184 $451 #
ellipse-curve $-1 0 0 -3.3738670003357054 0 0 -1 1 0 0 1 I I #
loop $-1 $-1 $452 $125 #
coedge $-1 $301 $301 $188 $302 reversed $185 $-1 #
edge $-1 $453 $453 $301 $454 forward #
vertex $-1 $189 $455 #
ellipse-curve $-1 0 0 -3.3738670003357054 0 0 -1 1 0 0 1 I I #
face $-1 $-1 $205 $37 $-1 $456 reversed single #
loop $-1 $-1 $321 $190 #
plane-surface $-1 0 34.710186388404075 0 0 -1 0 0 0 -1 forward_v I I I I #
coedge $-1 $457 $319 $322 $458 forward $191 $-1 #
coedge $-1 $325 $193 $194 $313 reversed $131 $-1 #
coedge $-1 $319 $457 $193 $311 reversed $191 $-1 #
edge $-1 $326 $459 $310 $460 forward #
coedge $-1 $195 $194 $457 $461 forward $91 $-1 #
edge $-1 $317 $459 $309 $462 forward #
coedge $-1 $322 $321 $195 $315 reversed $306 $-1 #
edge $-1 $463 $316 $314 $464 forward #
vertex $-1 $197 $465 #
vertex $-1 $328 $466 #
straight-curve $-1 70.690633869441811 0 -15.619954630885106 0 -1 0 I I #
coedge $-1 $308 $310 $198 $320 reversed $191 $-1 #
edge $-1 $323 $326 $319 $467 forward #
coedge $-1 $314 $199 $204 $329 forward $306 $-1 #
coedge $-1 $199 $314 $308 $458 reversed $306 $-1 #
vertex $-1 $200 $468 #
straight-curve $-1 0 34.710186388404075 15.619954630885106 -1 0 0 I I #
coedge $-1 $201 $309 $203 $328 reversed $131 $-1 #
vertex $-1 $320 $469 #
straight-curve $-1 0 -34.710186388404075 15.619954630885106 1 0 0 I I #
edge $-1 $206 $317 $203 $470 forward #
edge $-1 $207 $316 $204 $471 forward #
point $-1 70.690633869441811 -34.710186388404075 15.619954630885106 #
point $-1 70.690633869441811 34.710186388404075 15.619954630885106 #
face $-1 $-1 $224 $39 $-1 $472 reversed single #
loop $-1 $-1 $348 $209 #
plane-surface $-1 0 9.642961139046804 0 0 -1 0 0 0 -1 forward_v I I I I #
coedge $-1 $473 $346 $349 $474 forward $210 $-1 #
coedge $-1 $352 $212 $213 $340 reversed $139 $-1 #
coedge $-1 $346 $473 $212 $338 reversed $210 $-1 #
edge $-1 $353 $475 $337 $476 forward #
coedge $-1 $214 $213 $473 $477 forward $95 $-1 #
edge $-1 $344 $475 $336 $478 forward #
coedge $-1 $349 $348 $214 $342 reversed $333 $-1 #
edge $-1 $479 $343 $341 $480 forward #
vertex $-1 $216 $481 #
vertex $-1 $355 $482 #
straight-curve $-1 70.690633869441811 0 -4.0461626914728139 0 -1 0 I I #
coedge $-1 $335 $337 $217 $347 reversed $210 $-1 #
edge $-1 $350 $353 $346 $483 forward #
coedge $-1 $341 $218 $223 $356 forward $333 $-1 #
coedge $-1 $218 $341 $335 $474 reversed $333 $-1 #
vertex $-1 $219 $484 #
straight-curve $-1 0 9.642961139046804 4.0461626914728139 -1 0 0 I I #
coedge $-1 $220 $336 $222 $355 reversed $139 $-1 #
vertex $-1 $347 $485 #
straight-curve $-1 0 -9.642961139046804 4.0461626914728139 1 0 0 I I #
edge $-1 $225 $344 $222 $486 forward #
edge $-1 $226 $343 $223 $487 forward #
point $-1 70.690633869441811 -9.642961139046804 4.0461626914728139 #
point $-1 70.690633869441811 9.642961139046804 4.0461626914728139 #
face $-1 $-1 $243 $41 $-1 $488 reversed single #
loop $-1 $-1 $375 $228 #
plane-surface $-1 0 9.642961139046804 0 0 -1 0 0 0 -1 forward_v I I I I #
coedge $-1 $489 $373 $376 $490 forward $229 $-1 #
coedge $-1 $379 $231 $232 $367 reversed $147 $-1 #
coedge $-1 $373 $489 $231 $365 reversed $229 $-1 #
edge $-1 $380 $491 $364 $492 forward #
coedge $-1 $233 $232 $489 $493 forward $99 $-1 #
edge $-1 $371 $491 $363 $494 forward #
coedge $-1 $376 $375 $233 $369 reversed $360 $-1 #
edge $-1 $495 $370 $368 $496 forward #
vertex $-1 $235 $497 #
vertex $-1 $382 $498 #
straight-curve $-1 70.690633869441811 0 -4.0461626914728139 0 -1 0 I I #
coedge $-1 $362 $364 $236 $374 reversed $229 $-1 #
edge $-1 $377 $380 $373 $499 forward #
coedge $-1 $368 $237 $242 $383 forward $360 $-1 #
coedge $-1 $237 $368 $362 $490 reversed $360 $-1 #
vertex $-1 $238 $500 #
straight-curve $-1 0 9.642961139046804 4.0461626914728139 -1 0 0 I I #
coedge $-1 $239 $363 $241 $382 reversed $147 $-1 #
vertex $-1 $374 $501 #
straight-curve $-1 0 -9.642961139046804 4.0461626914728139 1 0 0 I I #
edge $-1 $244 $371 $241 $502 forward #
edge $-1 $245 $370 $242 $503 forward #
point $-1 70.690633869441811 -9.642961139046804 4.0461626914728139 #
point $-1 70.690633869441811 9.642961139046804 4.0461626914728139 #
face $-1 $-1 $262 $43 $-1 $504 reversed single #
loop $-1 $-1 $402 $247 #
plane-surface $-1 0 3.9897663843362619 0 0 -1 0 0 0 -1 forward_v I I I I #
coedge $-1 $505 $400 $403 $506 forward $248 $-1 #
coedge $-1 $406 $250 $251 $394 reversed $155 $-1 #
coedge $-1 $400 $505 $250 $392 reversed $248 $-1 #
edge $-1 $407 $507 $391 $508 forward #
coedge $-1 $252 $251 $505 $509 forward $103 $-1 #
edge $-1 $398 $507 $390 $510 forward #
coedge $-1 $403 $402 $252 $396 reversed $387 $-1 #
edge $-1 $511 $397 $395 $512 forward #
vertex $-1 $254 $513 #
vertex $-1 $409 $514 #
straight-curve $-1 282.76253547776724 0 -141.38126773888362 0 -1 0 I I #
coedge $-1 $389 $391 $255 $401 reversed $248 $-1 #
edge $-1 $404 $407 $400 $515 forward #
coedge $-1 $395 $256 $261 $410 forward $387 $-1 #
coedge $-1 $256 $395 $389 $506 reversed $387 $-1 #
vertex $-1 $257 $516 #
straight-curve $-1 0 3.9897663843362619 141.38126773888362 -1 0 0 I I #
coedge $-1 $258 $390 $260 $409 reversed $155 $-1 #
vertex $-1 $401 $517 #
straight-curve $-1 0 -3.9897663843362619 141.38126773888362 1 0 0 I I #
edge $-1 $263 $398 $260 $518 forward #
edge $-1 $264 $397 $261 $519 forward #
point $-1 282.76253547776724 -3.9897663843362619 141.38126773888362 #
point $-1 282.76253547776724 3.9897663843362619 141.38126773888362 #
coedge $-1 $413 $413 $-1 $520 reversed $266 $-1 #
vertex $-1 $268 $521 #
ellipse-curve $-1 0 0 -0.5 0 0 -1 1 0 0 1 I I #
point $-1 1 0 -3.3738670003357054 #
coedge $-1 $417 $417 $-1 $522 reversed $271 $-1 #
vertex $-1 $273 $523 #
ellipse-curve $-1 0 0 -0.5 0 0 -1 1 0 0 1 I I #
point $-1 1 0 -3.3738670003357054 #
face $-1 $-1 $291 $49 $-1 $524 reversed single #
loop $-1 $-1 $437 $276 #
plane-surface $-1 0 3.9897663843362619 0 0 -1 0 0 0 -1 forward_v I I I I #
coedge $-1 $525 $435 $438 $526 forward $277 $-1 #
coedge $-1 $441 $279 $280 $429 reversed $173 $-1 #
coedge $-1 $435 $525 $279 $427 reversed $277 $-1 #
edge $-1 $442 $527 $426 $528 forward #
coedge $-1 $281 $280 $525 $529 forward $117 $-1 #
edge $-1 $433 $527 $425 $530 forward #
coedge $-1 $438 $437 $281 $431 reversed $422 $-1 #
edge $-1 $531 $432 $430 $532 forward #
vertex $-1 $283 $533 #
vertex $-1 $444 $534 #
straight-curve $-1 282.76253547776724 0 -141.38126773888362 0 -1 0 I I #
coedge $-1 $424 $426 $284 $436 reversed $277 $-1 #
edge $-1 $439 $442 $435 $535 forward #
coedge $-1 $430 $285 $290 $445 forward $422 $-1 #
coedge $-1 $285 $430 $424 $526 reversed $422 $-1 #
vertex $-1 $286 $536 #
straight-curve $-1 0 3.9897663843362619 141.38126773888362 -1 0 0 I I #
coedge $-1 $287 $425 $289 $444 reversed $173 $-1 #
vertex $-1 $436 $537 #
straight-curve $-1 0 -3.9897663843362619 141.38126773888362 1 0 0 I I #
edge $-1 $292 $433 $289 $538 forward #
edge $-1 $293 $432 $290 $539 forward #
point $-1 282.76253547776724 -3.9897663843362619 141.38126773888362 #
point $-1 282.76253547776724 3.9897663843362619 141.38126773888362 #
coedge $-1 $448 $448 $-1 $540 reversed $295 $-1 #
vertex $-1 $297 $541 #
ellipse-curve $-1 0 0 -0.5 0 0 -1 1 0 0 1 I I #
point $-1 1 0 -3.3738670003357054 #
coedge $-1 $452 $452 $-1 $542 reversed $300 $-1 #
vertex $-1 $302 $543 #
ellipse-curve $-1 0 0 -0.5 0 0 -1 1 0 0 1 I I #
point $-1 1 0 -3.3738670003357054 #
plane-surface $-1 70.690633869441811 0 0 -1 0 0 0 0 1 forward_v I I I I #
coedge $-1 $310 $308 $312 $461 reversed $191 $-1 #
edge $-1 $323 $463 $322 $544 forward #
vertex $-1 $461 $545 #
straight-curve $-1 -70.690633869441811 -34.710186388404075 0 0 0 -1 I I #
edge $-1 $459 $463 $457 $546 forward #
straight-curve $-1 0 -34.710186388404075 -15.619954630885106 -1 0 0 I I #
vertex $-1 $315 $547 #
straight-curve $-1 0 34.710186388404075 -15.619954630885106 1 0 0 I I #
point $-1 70.690633869441811 34.710186388404075 -15.619954630885106 #
point $-1 70.690633869441811 -34.710186388404075 -15.619954630885106 #
straight-curve $-1 -70.690633869441811 0 15.619954630885106 0 -1 0 I I #
point $-1 -70.690633869441811 34.710186388404075 15.619954630885106 #
point $-1 -70.690633869441811 -34.710186388404075 15.619954630885106 #
straight-curve $-1 70.690633869441811 -34.710186388404075 0 0 0 -1 I I #
straight-curve $-1 70.690633869441811 34.710186388404075 0 0 0 -1 I I #
plane-surface $-1 70.690633869441811 0 0 -1 0 0 0 0 1 forward_v I I I I #
coedge $-1 $337 $335 $339 $477 reversed $210 $-1 #
edge $-1 $350 $479 $349 $548 forward #
vertex $-1 $477 $549 #
straight-curve $-1 -70.690633869441811 -9.642961139046804 0 0 0 -1 I I #
edge $-1 $475 $479 $473 $550 forward #
straight-curve $-1 0 -9.642961139046804 -4.0461626914728139 -1 0 0 I I #
vertex $-1 $342 $551 #
straight-curve $-1 0 9.642961139046804 -4.0461626914728139 1 0 0 I I #
point $-1 70.690633869441811 9.642961139046804 -4.0461626914728139 #
point $-1 70.690633869441811 -9.642961139046804 -4.0461626914728139 #
straight-curve $-1 -70.690633869441811 0 4.0461626914728139 0 -1 0 I I #
point $-1 -70.690633869441811 9.642961139046804 4.0461626914728139 #
point $-1 -70.690633869441811 -9.642961139046804 4.0461626914728139 #
straight-curve $-1 70.690633869441811 -9.642961139046804 0 0 0 -1 I I #
straight-curve $-1 70.690633869441811 9.642961139046804 0 0 0 -1 I I #
plane-surface $-1 70.690633869441811 0 0 -1 0 0 0 0 1 forward_v I I I I #
coedge $-1 $364 $362 $366 $493 reversed $229 $-1 #
edge $-1 $377 $495 $376 $552 forward #
vertex $-1 $493 $553 #
straight-curve $-1 -70.690633869441811 -9.642961139046804 0 0 0 -1 I I #
edge $-1 $491 $495 $489 $554 forward #
straight-curve $-1 0 -9.642961139046804 -4.0461626914728139 -1 0 0 I I #
vertex $-1 $369 $555 #
straight-curve $-1 0 9.642961139046804 -4.0461626914728139 1 0 0 I I #
point $-1 70.690633869441811 9.642961139046804 -4.0461626914728139 #
point $-1 70.690633869441811 -9.642961139046804 -4.0461626914728139 #
straight-curve $-1 -70.690633869441811 0 4.0461626914728139 0 -1 0 I I #
point $-1 -70.690633869441811 9.642961139046804 4.0461626914728139 #
point $-1 -70.690633869441811 -9.642961139046804 4.0461626914728139 #
straight-curve $-1 70.690633869441811 -9.642961139046804 0 0 0 -1 I I #
straight-curve $-1 70.690633869441811 9.642961139046804 0 0 0 -1 I I #
plane-surface $-1 282.76253547776724 0 0 -1 0 0 0 0 1 forward_v I I I I #
coedge $-1 $391 $389 $393 $509 reversed $248 $-1 #
edge $-1 $404 $511 $403 $556 forward #
vertex $-1 $509 $557 #
straight-curve $-1 -282.76253547776724 -3.9897663843362619 0 0 0 -1 I I #
edge $-1 $507 $511 $505 $558 forward #
straight-curve $-1 0 -3.9897663843362619 -141.38126773888362 -1 0 0 I I #
vertex $-1 $396 $559 #
straight-curve $-1 0 3.9897663843362619 -141.38126773888362 1 0 0 I I #
point $-1 282.76253547776724 3.9897663843362619 -141.38126773888362 #
point $-1 282.76253547776724 -3.9897663843362619 -141.38126773888362 #
straight-curve $-1 -282.76253547776724 0 141.38126773888362 0 -1 0 I I #
point $-1 -282.76253547776724 3.9897663843362619 141.38126773888362 #
point $-1 -282.76253547776724 -3.9897663843362619 141.38126773888362 #
straight-curve $-1 282.76253547776724 -3.9897663843362619 0 0 0 -1 I I #
straight-curve $-1 282.76253547776724 3.9897663843362619 0 0 0 -1 I I #
edge $-1 $560 $560 $413 $-1 forward #
point $-1 1 0 -0.5 #
edge $-1 $561 $561 $417 $-1 forward #
point $-1 1 0 -0.5 #
plane-surface $-1 282.76253547776724 0 0 -1 0 0 0 0 1 forward_v I I I I #
coedge $-1 $426 $424 $428 $529 reversed $277 $-1 #
edge $-1 $439 $531 $438 $562 forward #
vertex $-1 $529 $563 #
straight-curve $-1 -282.76253547776724 -3.9897663843362619 0 0 0 -1 I I #
edge $-1 $527 $531 $525 $564 forward #
straight-curve $-1 0 -3.9897663843362619 -141.38126773888362 -1 0 0 I I #
vertex $-1 $431 $565 #
straight-curve $-1 0 3.9897663843362619 -141.38126773888362 1 0 0 I I #
point $-1 282.76253547776724 3.9897663843362619 -141.38126773888362 #
point $-1 282.76253547776724 -3.9897663843362619 -141.38126773888362 #
straight-curve $-1 -282.76253547776724 0 141.38126773888362 0 -1 0 I I #
point $-1 -282.76253547776724 3.9897663843362619 141.38126773888362 #
point $-1 -282.76253547776724 -3.9897663843362619 141.38126773888362 #
straight-curve $-1 282.76253547776724 -3.9897663843362619 0 0 0 -1 I I #
straight-curve $-1 282.76253547776724 3.9897663843362619 0 0 0 -1 I I #
edge $-1 $566 $566 $448 $-1 forward #
point $-1 1 0 -0.5 #
edge $-1 $567 $567 $452 $-1 forward #
point $-1 1 0 -0.5 #
straight-curve $-1 -70.690633869441811 34.710186388404075 0 0 0 -1 I I #
point $-1 -70.690633869441811 -34.710186388404075 -15.619954630885106 #
straight-curve $-1 -70.690633869441811 0 -15.619954630885106 0 1 0 I I #
point $-1 -70.690633869441811 34.710186388404075 -15.619954630885106 #
straight-curve $-1 -70.690633869441811 9.642961139046804 0 0 0 -1 I I #
point $-1 -70.690633869441811 -9.642961139046804 -4.0461626914728139 #
straight-curve $-1 -70.690633869441811 0 -4.0461626914728139 0 1 0 I I #
point $-1 -70.690633869441811 9.642961139046804 -4.0461626914728139 #
straight-curve $-1 -70.690633869441811 9.642961139046804 0 0 0 -1 I I #
point $-1 -70.690633869441811 -9.642961139046804 -4.0461626914728139 #
straight-curve $-1 -70.690633869441811 0 -4.0461626914728139 0 1 0 I I #
point $-1 -70.690633869441811 9.642961139046804 -4.0461626914728139 #
straight-curve $-1 -282.76253547776724 3.9897663843362619 0 0 0 -1 I I #
point $-1 -282.76253547776724 -3.9897663843362619 -141.38126773888362 #
straight-curve $-1 -282.76253547776724 0 -141.38126773888362 0 1 0 I I #
point $-1 -282.76253547776724 3.9897663843362619 -141.38126773888362 #
vertex $-1 $520 $568 #
vertex $-1 $522 $569 #
straight-curve $-1 -282.76253547776724 3.9897663843362619 0 0 0 -1 I I #
point $-1 -282.76253547776724 -3.9897663843362619 -141.38126773888362 #
straight-curve $-1 -282.76253547776724 0 -141.38126773888362 0 1 0 I I #
point $-1 -282.76253547776724 3.9897663843362619 -141.38126773888362 #
vertex $-1 $540 $570 #
vertex $-1 $542 $571 #
point $-1 0 0 0.5 #
point $-1 0 0 0.5 #
point $-1 0 0 0.5 #
point $-1 0 0 0.5 #
End-of-ACIS-data 