600 0 3 0           
95 GICL ACIS Healer - Source: /gicl/data5/repository/Drexel/SM99-DATA/part113.smdg.delta.sat - 6 0 18 ACIS 6.0.3 Solaris 24 Sat Apr 13 20:44:11 2002 
1 9.999999999999999547e-07 1.000000000000000036e-10 
body $-1 $3 $-1 $-1 #
body $-1 $4 $-1 $-1 #
body $-1 $5 $-1 $-1 #
lump $-1 $-1 $6 $0 #
lump $-1 $-1 $7 $1 #
lump $-1 $-1 $8 $2 #
shell $-1 $-1 $-1 $9 $-1 $3 #
shell $-1 $-1 $-1 $10 $-1 $4 #
shell $-1 $-1 $-1 $11 $-1 $5 #
face $-1 $12 $13 $6 $-1 $14 forward single #
face $-1 $15 $16 $7 $-1 $17 reversed single #
face $-1 $18 $19 $8 $-1 $20 reversed single #
face $-1 $21 $22 $6 $-1 $23 reversed single #
loop $-1 $-1 $24 $9 #
plane-surface $-1 76.98110904263435827 36.80513175978313711 19.74696915767972527 0 0 1 1 0 0 forward_v I I I I #
face $-1 $25 $26 $7 $-1 $27 reversed single #
loop $-1 $-1 $28 $10 #
plane-surface $-1 8.053285104451418874 3.600611263708337617 9.873484578839862635 1 0 0 0 0 -1 forward_v I I I I #
face $-1 $29 $30 $8 $-1 $31 reversed single #
loop $-1 $-1 $32 $11 #
plane-surface $-1 9.553285104451418874 66.40904099214958478 9.873484578839862635 0 1 0 0 0 1 forward_v I I I I #
face $-1 $33 $34 $6 $-1 $35 reversed single #
loop $-1 $-1 $36 $12 #
plane-surface $-1 76.98110904263435827 36.80513175978313711 0 0 0 1 1 0 0 forward_v I I I I #
coedge $-1 $37 $38 $39 $40 forward $13 $-1 #
face $-1 $41 $42 $7 $-1 $43 reversed single #
loop $-1 $-1 $44 $15 #
plane-surface $-1 9.553285104451418874 7.201222527416678787 9.873484578839862635 0 -1 0 0 0 -1 forward_v I I I I #
coedge $-1 $45 $46 $47 $48 forward $16 $-1 #
face $-1 $49 $50 $8 $-1 $51 reversed single #
loop $-1 $-1 $52 $18 #
plane-surface $-1 8.053285104451418874 70.0096522558579295 9.873484578839862635 1 0 0 0 0 -1 forward_v I I I I #
coedge $-1 $53 $54 $55 $56 forward $19 $-1 #
face $-1 $57 $58 $6 $-1 $59 reversed single #
loop $-1 $-1 $60 $21 #
plane-surface $-1 76.98110904263435827 0 9.873484578839862635 0 1 0 0 0 1 forward_v I I I I #
coedge $-1 $61 $62 $63 $64 forward $22 $-1 #
coedge $-1 $65 $24 $66 $67 forward $13 $-1 #
coedge $-1 $24 $65 $68 $69 forward $13 $-1 #
coedge $-1 $70 $71 $24 $40 reversed $72 $-1 #
edge $-1 $73 -36.80513175978313711 $74 36.80513175978313711 $39 $75 forward 7 unknown #
face $-1 $76 $77 $7 $-1 $78 forward single #
loop $-1 $-1 $79 $25 #
plane-surface $-1 11.05328510445141887 3.600611263708337617 9.873484578839862635 -1 0 0 0 0 1 forward_v I I I I #
coedge $-1 $80 $81 $82 $83 forward $26 $-1 #
coedge $-1 $84 $28 $85 $86 reversed $16 $-1 #
coedge $-1 $28 $84 $87 $88 reversed $16 $-1 #
coedge $-1 $81 $80 $28 $48 reversed $26 $-1 #
edge $-1 $89 -9.873484578839862635 $90 9.873484578839862635 $47 $91 forward 7 unknown #
face $-1 $92 $93 $8 $-1 $94 reversed single #
loop $-1 $-1 $95 $29 #
plane-surface $-1 11.05328510445141887 70.0096522558579295 9.873484578839862635 -1 0 0 0 0 1 forward_v I I I I #
coedge $-1 $96 $97 $98 $99 reversed $30 $-1 #
coedge $-1 $100 $32 $101 $102 reversed $19 $-1 #
coedge $-1 $32 $100 $103 $104 reversed $19 $-1 #
coedge $-1 $97 $96 $32 $56 reversed $30 $-1 #
edge $-1 $105 -9.873484578839862635 $106 9.873484578839862635 $55 $107 forward 7 unknown #
face $-1 $108 $109 $6 $-1 $110 reversed single #
loop $-1 $-1 $111 $33 #
plane-surface $-1 0 36.80513175978313711 9.873484578839862635 1 0 0 0 0 -1 forward_v I I I I #
coedge $-1 $112 $68 $113 $114 forward $34 $-1 #
coedge $-1 $115 $36 $112 $116 forward $22 $-1 #
coedge $-1 $36 $115 $117 $118 forward $22 $-1 #
coedge $-1 $71 $70 $36 $64 reversed $72 $-1 #
edge $-1 $119 -36.80513175978313711 $120 36.80513175978313711 $63 $121 forward 7 unknown #
coedge $-1 $38 $37 $122 $123 forward $13 $-1 #
coedge $-1 $124 $125 $37 $67 reversed $109 $-1 #
edge $-1 $74 -76.98110904263435827 $126 76.98110904263435827 $66 $127 forward 7 unknown #
coedge $-1 $60 $128 $38 $69 reversed $34 $-1 #
edge $-1 $129 -76.98110904263435827 $73 76.98110904263435827 $68 $130 forward 7 unknown #
coedge $-1 $63 $39 $128 $131 forward $72 $-1 #
coedge $-1 $39 $63 $124 $132 reversed $72 $-1 #
loop $-1 $-1 $70 $108 #
vertex $-1 $40 $133 #
vertex $-1 $40 $134 #
straight-curve $-1 153.9622180852687165 36.80513175978313711 19.74696915767972527 0 1 0 I I #
face $-1 $135 $136 $7 $-1 $137 reversed single #
loop $-1 $-1 $138 $41 #
plane-surface $-1 76.98110904263435827 36.80513175978313711 19.74696915767972527 0 0 1 1 0 0 forward_v I I I I #
coedge $-1 $139 $140 $141 $142 reversed $42 $-1 #
coedge $-1 $47 $44 $143 $144 reversed $26 $-1 #
coedge $-1 $44 $47 $145 $146 reversed $26 $-1 #
coedge $-1 $140 $139 $44 $83 reversed $42 $-1 #
edge $-1 $147 -9.873484578839862635 $148 9.873484578839862635 $82 $149 forward 7 unknown #
coedge $-1 $46 $45 $150 $151 reversed $16 $-1 #
coedge $-1 $143 $152 $45 $86 forward $136 $-1 #
edge $-1 $153 -20.20287151174573737 $90 -13.00164898432905858 $85 $154 forward 7 unknown #
coedge $-1 $155 $145 $46 $88 forward $77 $-1 #
edge $-1 $89 13.00164898432905858 $156 20.20287151174573737 $87 $157 forward 7 unknown #
vertex $-1 $88 $158 #
vertex $-1 $86 $159 #
straight-curve $-1 8.053285104451418874 7.201222527416678787 9.873484578839862635 0 0 -1 I I #
face $-1 $160 $161 $8 $-1 $162 forward single #
loop $-1 $-1 $163 $49 #
plane-surface $-1 76.98110904263435827 36.80513175978313711 0 0 0 1 1 0 0 forward_v I I I I #
coedge $-1 $164 $165 $100 $166 forward $50 $-1 #
coedge $-1 $55 $52 $167 $168 reversed $30 $-1 #
coedge $-1 $52 $55 $169 $170 reversed $30 $-1 #
coedge $-1 $171 $172 $52 $99 forward $173 $-1 #
edge $-1 $174 -9.873484578839862635 $175 9.873484578839862635 $98 $176 forward 7 unknown #
coedge $-1 $54 $53 $95 $166 reversed $19 $-1 #
coedge $-1 $167 $163 $53 $102 forward $93 $-1 #
edge $-1 $177 32.2139119690914697 $106 35.2139119690914697 $101 $178 forward 7 unknown #
coedge $-1 $179 $169 $54 $104 forward $161 $-1 #
edge $-1 $105 -35.2139119690914697 $180 -32.2139119690914697 $103 $181 forward 7 unknown #
vertex $-1 $104 $182 #
vertex $-1 $102 $183 #
straight-curve $-1 8.053285104451418874 66.40904099214958478 9.873484578839862635 0 0 -1 I I #
face $-1 $-1 $72 $6 $-1 $184 reversed single #
loop $-1 $-1 $124 $57 #
plane-surface $-1 76.98110904263435827 73.61026351956627423 9.873484578839862635 0 -1 0 0 0 -1 forward_v I I I I #
coedge $-1 $185 $122 $125 $186 forward $58 $-1 #
coedge $-1 $128 $60 $61 $116 reversed $34 $-1 #
coedge $-1 $122 $185 $60 $114 reversed $58 $-1 #
edge $-1 $129 -9.873484578839862635 $187 9.873484578839862635 $113 $188 forward 7 unknown #
coedge $-1 $62 $61 $185 $189 forward $22 $-1 #
edge $-1 $120 -76.98110904263435827 $187 76.98110904263435827 $112 $190 forward 7 unknown #
coedge $-1 $125 $124 $62 $118 reversed $109 $-1 #
edge $-1 $191 -76.98110904263435827 $119 76.98110904263435827 $117 $192 forward 7 unknown #
vertex $-1 $64 $193 #
vertex $-1 $131 $194 #
straight-curve $-1 153.9622180852687165 36.80513175978313711 0 0 -1 0 I I #
coedge $-1 $111 $113 $65 $123 reversed $58 $-1 #
edge $-1 $126 -36.80513175978313711 $129 36.80513175978313711 $122 $195 forward 7 unknown #
coedge $-1 $117 $66 $71 $132 forward $109 $-1 #
coedge $-1 $66 $117 $111 $186 reversed $109 $-1 #
vertex $-1 $67 $196 #
straight-curve $-1 76.98110904263435827 73.61026351956627423 19.74696915767972527 -1 0 0 I I #
coedge $-1 $68 $112 $70 $131 reversed $34 $-1 #
vertex $-1 $123 $197 #
straight-curve $-1 76.98110904263435827 0 19.74696915767972527 1 0 0 I I #
edge $-1 $73 -9.873484578839862635 $120 9.873484578839862635 $70 $198 forward 7 unknown #
edge $-1 $74 -9.873484578839862635 $119 9.873484578839862635 $71 $199 forward 7 unknown #
point $-1 153.9622180852687165 0 19.74696915767972527 #
point $-1 153.9622180852687165 73.61026351956627423 19.74696915767972527 #
face $-1 $-1 $200 $7 $-1 $201 reversed single #
loop $-1 $-1 $202 $76 #
plane-surface $-1 76.98110904263435827 36.80513175978313711 0 0 0 1 1 0 0 forward_v I I I I #
coedge $-1 $145 $155 $140 $203 forward $77 $-1 #
coedge $-1 $82 $79 $202 $204 reversed $42 $-1 #
coedge $-1 $79 $82 $138 $203 reversed $42 $-1 #
coedge $-1 $205 $206 $79 $142 forward $200 $-1 #
edge $-1 $207 -9.873484578839862635 $208 9.873484578839862635 $141 $209 forward 7 unknown #
coedge $-1 $202 $85 $80 $144 forward $136 $-1 #
edge $-1 $90 -35.2139119690914697 $148 -32.2139119690914697 $143 $210 forward 7 unknown #
coedge $-1 $87 $138 $81 $146 forward $77 $-1 #
edge $-1 $147 32.2139119690914697 $89 35.2139119690914697 $145 $211 forward 7 unknown #
vertex $-1 $146 $212 #
vertex $-1 $144 $213 #
straight-curve $-1 11.05328510445141887 7.201222527416678787 9.873484578839862635 0 0 -1 I I #
coedge $-1 $206 $205 $84 $151 forward $200 $-1 #
edge $-1 $156 -9.873484578839862635 $153 9.873484578839862635 $150 $214 forward 7 unknown #
coedge $-1 $85 $202 $206 $215 forward $136 $-1 #
vertex $-1 $86 $216 #
straight-curve $-1 8.053285104451418874 20.20287151174573737 0 0 1 0 I I #
coedge $-1 $138 $87 $205 $217 forward $77 $-1 #
vertex $-1 $217 $218 #
straight-curve $-1 8.053285104451418874 20.20287151174573737 19.74696915767972527 0 -1 0 I I #
point $-1 8.053285104451418874 7.201222527416678787 19.74696915767972527 #
point $-1 8.053285104451418874 7.201222527416678787 0 #
face $-1 $-1 $173 $8 $-1 $219 reversed single #
loop $-1 $-1 $179 $92 #
plane-surface $-1 76.98110904263435827 36.80513175978313711 19.74696915767972527 0 0 1 1 0 0 forward_v I I I I #
coedge $-1 $101 $220 $164 $221 forward $93 $-1 #
coedge $-1 $222 $95 $163 $221 reversed $50 $-1 #
coedge $-1 $95 $222 $179 $223 reversed $50 $-1 #
edge $-1 $180 -9.873484578839862635 $177 9.873484578839862635 $95 $224 forward 7 unknown #
coedge $-1 $220 $101 $96 $168 forward $93 $-1 #
edge $-1 $106 13.00164898432905147 $174 20.20287151174574092 $167 $225 forward 7 unknown #
coedge $-1 $103 $226 $97 $170 forward $161 $-1 #
edge $-1 $175 -20.20287151174574092 $105 -13.00164898432905147 $169 $227 forward 7 unknown #
coedge $-1 $228 $98 $226 $229 reversed $173 $-1 #
coedge $-1 $98 $228 $220 $230 reversed $173 $-1 #
loop $-1 $-1 $228 $160 #
vertex $-1 $230 $231 #
vertex $-1 $99 $232 #
straight-curve $-1 8.053285104451418874 73.61026351956627423 9.873484578839862635 0 0 1 I I #
vertex $-1 $102 $233 #
straight-curve $-1 43.26719707354288857 66.40904099214958478 0 -1 0 0 I I #
coedge $-1 $226 $103 $165 $223 forward $161 $-1 #
vertex $-1 $104 $234 #
straight-curve $-1 43.26719707354288857 66.40904099214958478 19.74696915767972527 1 0 0 I I #
point $-1 8.053285104451418874 66.40904099214958478 19.74696915767972527 #
point $-1 8.053285104451418874 66.40904099214958478 0 #
plane-surface $-1 153.9622180852687165 36.80513175978313711 9.873484578839862635 -1 0 0 0 0 1 forward_v I I I I #
coedge $-1 $113 $111 $115 $189 reversed $58 $-1 #
edge $-1 $126 -9.873484578839862635 $191 9.873484578839862635 $125 $235 forward 7 unknown #
vertex $-1 $189 $236 #
straight-curve $-1 0 0 9.873484578839862635 0 0 -1 I I #
edge $-1 $187 -36.80513175978313711 $191 36.80513175978313711 $185 $237 forward 7 unknown #
straight-curve $-1 76.98110904263435827 0 0 -1 0 0 I I #
vertex $-1 $118 $238 #
straight-curve $-1 76.98110904263435827 73.61026351956627423 0 1 0 0 I I #
point $-1 153.9622180852687165 73.61026351956627423 0 #
point $-1 153.9622180852687165 0 0 #
straight-curve $-1 0 36.80513175978313711 19.74696915767972527 0 -1 0 I I #
point $-1 0 73.61026351956627423 19.74696915767972527 #
point $-1 0 0 19.74696915767972527 #
straight-curve $-1 153.9622180852687165 0 9.873484578839862635 0 0 -1 I I #
straight-curve $-1 153.9622180852687165 73.61026351956627423 9.873484578839862635 0 0 -1 I I #
loop $-1 $-1 $141 $135 #
plane-surface $-1 76.98110904263435827 0 9.873484578839862635 0 1 0 0 0 1 forward_v I I I I #
coedge $-1 $152 $143 $139 $204 forward $136 $-1 #
edge $-1 $208 -20.20287151174573737 $147 -13.00164898432905858 $138 $239 forward 7 unknown #
edge $-1 $148 13.00164898432905858 $207 20.20287151174573737 $202 $240 forward 7 unknown #
coedge $-1 $150 $141 $155 $217 reversed $200 $-1 #
coedge $-1 $141 $150 $152 $215 reversed $200 $-1 #
vertex $-1 $215 $241 #
vertex $-1 $142 $242 #
straight-curve $-1 11.05328510445141887 0 9.873484578839862635 0 0 1 I I #
straight-curve $-1 43.26719707354288857 7.201222527416678787 0 1 0 0 I I #
straight-curve $-1 43.26719707354288857 7.201222527416678787 19.74696915767972527 -1 0 0 I I #
point $-1 11.05328510445141887 7.201222527416678787 19.74696915767972527 #
point $-1 11.05328510445141887 7.201222527416678787 0 #
straight-curve $-1 8.053285104451418874 0 9.873484578839862635 0 0 -1 I I #
edge $-1 $207 65.9278239381829394 $153 68.9278239381829394 $206 $243 forward 7 unknown #
point $-1 8.053285104451418874 0 0 #
edge $-1 $156 -68.9278239381829394 $208 -65.9278239381829394 $205 $244 forward 7 unknown #
point $-1 8.053285104451418874 0 19.74696915767972527 #
plane-surface $-1 76.98110904263435827 73.61026351956627423 9.873484578839862635 0 -1 0 0 0 -1 forward_v I I I I #
coedge $-1 $163 $167 $172 $230 forward $93 $-1 #
edge $-1 $245 -20.20287151174574092 $177 -13.00164898432905147 $163 $246 forward 7 unknown #
coedge $-1 $165 $164 $228 $247 reversed $50 $-1 #
edge $-1 $180 13.00164898432905147 $248 20.20287151174574092 $179 $249 forward 7 unknown #
straight-curve $-1 11.05328510445141887 66.40904099214958478 9.873484578839862635 0 0 -1 I I #
straight-curve $-1 8.053285104451418874 53.40739200782053331 0 0 1 0 I I #
coedge $-1 $169 $179 $171 $229 forward $161 $-1 #
straight-curve $-1 8.053285104451418874 53.40739200782053331 19.74696915767972527 0 -1 0 I I #
coedge $-1 $172 $171 $222 $247 forward $173 $-1 #
edge $-1 $248 65.9278239381829394 $175 68.9278239381829394 $171 $250 forward 7 unknown #
edge $-1 $174 -68.9278239381829394 $245 -65.9278239381829394 $172 $251 forward 7 unknown #
point $-1 8.053285104451418874 73.61026351956627423 0 #
point $-1 8.053285104451418874 73.61026351956627423 19.74696915767972527 #
point $-1 11.05328510445141887 66.40904099214958478 0 #
point $-1 11.05328510445141887 66.40904099214958478 19.74696915767972527 #
straight-curve $-1 0 73.61026351956627423 9.873484578839862635 0 0 -1 I I #
point $-1 0 0 0 #
straight-curve $-1 0 36.80513175978313711 0 0 1 0 I I #
point $-1 0 73.61026351956627423 0 #
straight-curve $-1 11.05328510445141887 20.20287151174573737 19.74696915767972527 0 1 0 I I #
straight-curve $-1 11.05328510445141887 20.20287151174573737 0 0 -1 0 I I #
point $-1 11.05328510445141887 0 0 #
point $-1 11.05328510445141887 0 19.74696915767972527 #
straight-curve $-1 76.98110904263435827 0 0 -1 0 0 I I #
straight-curve $-1 76.98110904263435827 0 19.74696915767972527 1 0 0 I I #
vertex $-1 $247 $252 #
straight-curve $-1 11.05328510445141887 53.40739200782053331 0 0 -1 0 I I #
edge $-1 $248 -9.873484578839862635 $245 9.873484578839862635 $228 $253 forward 7 unknown #
vertex $-1 $229 $254 #
straight-curve $-1 11.05328510445141887 53.40739200782053331 19.74696915767972527 0 1 0 I I #
straight-curve $-1 76.98110904263435827 73.61026351956627423 19.74696915767972527 -1 0 0 I I #
straight-curve $-1 76.98110904263435827 73.61026351956627423 0 1 0 0 I I #
point $-1 11.05328510445141887 73.61026351956627423 0 #
straight-curve $-1 11.05328510445141887 73.61026351956627423 9.873484578839862635 0 0 -1 I I #
point $-1 11.05328510445141887 73.61026351956627423 19.74696915767972527 #
End-of-ACIS-data 