300 0 11 0           
7 Unknown 11 ACIS 3.0 NT 24 Fri Oct 30 20:07:14 1998 
-1 9.9999999999999995e-007 1e-010 
body $11 $12 $-1 $13 #
body $14 $15 $-1 $16 #
body $17 $18 $-1 $19 #
body $20 $21 $-1 $22 #
body $23 $24 $-1 $25 #
body $26 $27 $-1 $28 #
body $29 $30 $-1 $31 #
body $32 $33 $-1 $34 #
body $35 $36 $-1 $37 #
body $38 $39 $-1 $40 #
body $41 $42 $-1 $43 #
display_attribute-st-attrib $-1 $44 $-1 $0 2 #
lump $-1 $-1 $45 $0 #
transform $-1 1 0 0 0 1 0 0 0 1 40.354014709921564 19.678847653121636 5.5365864628853139 1 rotate no_reflect no_shear #
display_attribute-st-attrib $-1 $46 $-1 $1 1 #
lump $-1 $-1 $47 $1 #
transform $-1 1 0 0 0 1 0 0 0 1 40.354014709921564 19.678847653121636 5.5365864628853139 1 rotate no_reflect no_shear #
display_attribute-st-attrib $-1 $48 $-1 $2 9 #
lump $-1 $-1 $49 $2 #
transform $-1 1 0 0 0 1 0 0 0 1 40.354014709921564 19.678847653121636 5.5365864628853139 1 rotate no_reflect no_shear #
display_attribute-st-attrib $-1 $50 $-1 $3 8 #
lump $-1 $-1 $51 $3 #
transform $-1 1 0 0 0 1 0 0 0 1 40.354014709921564 19.678847653121636 5.5365864628853139 1 rotate no_reflect no_shear #
display_attribute-st-attrib $-1 $52 $-1 $4 7 #
lump $-1 $-1 $53 $4 #
transform $-1 1 0 0 0 1 0 0 0 1 40.354014709921564 19.678847653121636 5.5365864628853139 1 rotate no_reflect no_shear #
display_attribute-st-attrib $-1 $54 $-1 $5 6 #
lump $-1 $-1 $55 $5 #
transform $-1 1 0 0 0 1 0 0 0 1 40.354014709921564 19.678847653121636 5.5365864628853139 1 rotate no_reflect no_shear #
display_attribute-st-attrib $-1 $56 $-1 $6 5 #
lump $-1 $-1 $57 $6 #
transform $-1 1 0 0 0 1 0 0 0 1 40.354014709921564 19.678847653121636 5.5365864628853139 1 rotate no_reflect no_shear #
display_attribute-st-attrib $-1 $58 $-1 $7 4 #
lump $-1 $-1 $59 $7 #
transform $-1 1 0 0 0 1 0 0 0 1 40.354014709921564 19.678847653121636 5.5365864628853139 1 rotate no_reflect no_shear #
display_attribute-st-attrib $-1 $60 $-1 $8 3 #
lump $-1 $-1 $61 $8 #
transform $-1 1 0 0 0 1 0 0 0 1 40.354014709921564 19.678847653121636 5.5365864628853139 1 rotate no_reflect no_shear #
display_attribute-st-attrib $-1 $62 $-1 $9 2 #
lump $-1 $-1 $63 $9 #
transform $-1 1 0 0 0 1 0 0 0 1 40.354014709921564 19.678847653121636 5.5365864628853139 1 rotate no_reflect no_shear #
display_attribute-st-attrib $-1 $64 $-1 $10 1 #
lump $-1 $-1 $65 $10 #
transform $-1 1 0 0 0 1 0 0 0 1 40.354014709921564 19.678847653121636 5.5365864628853139 1 rotate no_reflect no_shear #
id_attribute-st-attrib $-1 $-1 $11 $0 4250 #
shell $-1 $-1 $-1 $66 $-1 $12 #
id_attribute-st-attrib $-1 $-1 $14 $1 4258 #
shell $-1 $-1 $-1 $67 $-1 $15 #
id_attribute-st-attrib $-1 $-1 $17 $2 4274 #
shell $-1 $-1 $-1 $68 $-1 $18 #
id_attribute-st-attrib $-1 $-1 $20 $3 4281 #
shell $-1 $-1 $-1 $69 $-1 $21 #
id_attribute-st-attrib $-1 $-1 $23 $4 4289 #
shell $-1 $-1 $-1 $70 $-1 $24 #
id_attribute-st-attrib $-1 $-1 $26 $5 4298 #
shell $-1 $-1 $-1 $71 $-1 $27 #
id_attribute-st-attrib $-1 $-1 $29 $6 4308 #
shell $-1 $-1 $-1 $72 $-1 $30 #
id_attribute-st-attrib $-1 $-1 $32 $7 4319 #
shell $-1 $-1 $-1 $73 $-1 $33 #
id_attribute-st-attrib $-1 $-1 $35 $8 4336 #
shell $-1 $-1 $-1 $74 $-1 $36 #
id_attribute-st-attrib $-1 $-1 $38 $9 4349 #
shell $-1 $-1 $-1 $75 $-1 $39 #
id_attribute-st-attrib $-1 $-1 $41 $10 4363 #
shell $-1 $-1 $-1 $76 $-1 $42 #
face $-1 $77 $78 $45 $-1 $79 forward single #
face $-1 $80 $81 $47 $-1 $82 forward single #
face $-1 $83 $84 $49 $-1 $85 reversed single #
face $-1 $86 $87 $51 $-1 $88 forward single #
face $-1 $89 $90 $53 $-1 $91 forward single #
face $-1 $92 $93 $55 $-1 $94 reversed single #
face $-1 $95 $96 $57 $-1 $97 forward single #
face $-1 $98 $99 $59 $-1 $100 forward single #
face $-1 $101 $102 $61 $-1 $103 reversed single #
face $-1 $104 $105 $63 $-1 $106 forward single #
face $-1 $107 $108 $65 $-1 $109 forward single #
face $-1 $110 $111 $45 $-1 $112 reversed single #
loop $-1 $-1 $113 $66 #
plane-surface $-1 0 0 5.5365864628853139 0 0 1 1 0 0 forward_v I I I I #
face $-1 $114 $115 $47 $-1 $116 reversed single #
loop $-1 $-1 $117 $67 #
plane-surface $-1 0 -19.678847653121636 0 0 1 0 0 0 1 forward_v I I I I #
face $-1 $118 $119 $49 $-1 $120 reversed single #
loop $-1 $-1 $121 $68 #
plane-surface $-1 -103.07593449858501 -9.9185221389630165 53.278095231478503 0 1 0 -0.77714596973225614 0 0.62932038083071107 forward_v I I I I #
face $-1 $122 $123 $51 $-1 $124 forward single #
loop $-1 $125 $126 $69 #
cone-surface $-1 -38.44419090050274 -8.0769910213629785 3.4651124511202984 0.77714596973225614 0 -0.62932038083071107 0.31466019041535553 0 0.38857298486612807 1 I I 0 1 forward I I I I #
face $-1 $127 $128 $53 $-1 $129 forward single #
loop $-1 $130 $131 $70 #
cone-surface $-1 -38.44419090050274 -5.3146943449629198 3.4651124511202984 0.77714596973225614 0 -0.62932038083071107 0.31466019041535553 0 0.38857298486612807 1 I I 0 1 forward I I I I #
face $-1 $132 $133 $55 $-1 $134 reversed single #
loop $-1 $-1 $135 $71 #
plane-surface $-1 -103.07593449858501 7.6612638482623883 53.278095231478503 0 1 0 -0.77714596973225614 0 0.62932038083071107 forward_v I I I I #
face $-1 $136 $137 $57 $-1 $138 forward single #
loop $-1 $139 $140 $72 #
cone-surface $-1 -38.44419090050274 9.502794965862428 3.4651124511202984 0.77714596973225614 0 -0.62932038083071107 0.31466019041535553 0 0.38857298486612807 1 I I 0 1 forward I I I I #
face $-1 $141 $142 $59 $-1 $143 forward single #
loop $-1 $144 $145 $73 #
cone-surface $-1 -38.44419090050274 12.265091642262487 3.4651124511202984 0.77714596973225614 0 -0.62932038083071107 0.31466019041535553 0 0.38857298486612807 1 I I 0 1 forward I I I I #
face $-1 $146 $147 $61 $-1 $148 reversed single #
loop $-1 $-1 $149 $74 #
plane-surface $-1 28.423305365933878 9.1827799889888748 115.38233826255941 0 -1 0 -0.62932039886446345 0 -0.77714595512881146 forward_v I I I I #
face $-1 $150 $151 $63 $-1 $152 forward single #
loop $-1 $153 $154 $75 #
cone-surface $-1 37.774938412679681 3.9772433956228923 3.3143254471035846 -0.62932039886446345 0 -0.77714595512881146 0.38857297756440573 0 -0.31466019943223172 1 I I 0 1 forward I I I I #
face $-1 $155 $156 $65 $-1 $157 forward single #
loop $-1 $158 $159 $76 #
cone-surface $-1 37.774938412679681 7.10056535164248 3.3143254471035846 -0.62932039886446345 0 -0.77714595512881146 0.38857297756440573 0 -0.31466019943223172 1 I I 0 1 forward I I I I #
face $-1 $160 $161 $45 $-1 $162 reversed single #
loop $-1 $-1 $163 $77 #
plane-surface $-1 0 0 -5.5365864628853139 0 0 1 1 0 0 forward_v I I I I #
coedge $-1 $164 $165 $166 $167 forward $78 $-1 #
face $-1 $168 $169 $47 $-1 $170 forward single #
loop $-1 $-1 $171 $80 #
plane-surface $-1 -40.354014709921564 0 0 1 0 0 0 0 -1 forward_v I I I I #
coedge $-1 $172 $173 $174 $175 forward $81 $-1 #
face $-1 $176 $177 $49 $-1 $178 reversed single #
loop $-1 $-1 $179 $83 #
plane-surface $-1 -40.354014709921557 -6.6958426831629492 2.4868874208865819 -0.77714596973225614 0 0.62932038083071107 0.62932038083071107 0 0.77714596973225614 forward_v I I I I #
coedge $-1 $180 $181 $182 $183 reversed $84 $-1 #
face $-1 $-1 $184 $51 $-1 $185 forward single #
loop $-1 $186 $187 $86 #
cone-surface $-1 -37.574879360581591 -8.0769910213629785 2.7611578651469699 0.77714596973225614 0 -0.62932038083071107 0.15733009520767777 0 0.19428649243306403 1 I I -0.70710678118654746 0.70710678118654746 forward I I I I #
loop $-1 $-1 $188 $69 #
coedge $-1 $126 $126 $189 $190 reversed $87 $-1 #
face $-1 $-1 $191 $53 $-1 $192 forward single #
loop $-1 $193 $194 $89 #
cone-surface $-1 -37.574879360581591 -5.3146943449629198 2.7611578651469699 0.77714596973225614 0 -0.62932038083071107 0.15733009520767777 0 0.19428649243306403 1 I I -0.70710678118654746 0.70710678118654746 forward I I I I #
loop $-1 $-1 $195 $70 #
coedge $-1 $131 $131 $196 $197 reversed $90 $-1 #
face $-1 $198 $199 $55 $-1 $200 reversed single #
loop $-1 $-1 $201 $92 #
plane-surface $-1 -40.354014709921557 10.883943304062456 2.4868874208865819 -0.77714596973225614 0 0.62932038083071107 0.62932038083071107 0 0.77714596973225614 forward_v I I I I #
coedge $-1 $202 $203 $204 $205 reversed $93 $-1 #
face $-1 $-1 $206 $57 $-1 $207 forward single #
loop $-1 $208 $209 $95 #
cone-surface $-1 -37.574879360581591 9.502794965862428 2.7611578651469699 0.77714596973225614 0 -0.62932038083071107 0.15733009520767777 0 0.19428649243306403 1 I I -0.70710678118654746 0.70710678118654746 forward I I I I #
loop $-1 $-1 $210 $72 #
coedge $-1 $140 $140 $211 $212 reversed $96 $-1 #
face $-1 $-1 $213 $59 $-1 $214 forward single #
loop $-1 $215 $216 $98 #
cone-surface $-1 -37.574879360581591 12.265091642262487 2.7611578651469699 0.77714596973225614 0 -0.62932038083071107 0.15733009520767777 0 0.19428649243306403 1 I I -0.70710678118654746 0.70710678118654746 forward I I I I #
loop $-1 $-1 $217 $73 #
coedge $-1 $145 $145 $218 $219 reversed $99 $-1 #
face $-1 $220 $221 $61 $-1 $222 reversed single #
loop $-1 $-1 $223 $101 #
plane-surface $-1 -22.367903900126649 5.5389043736326897 52.660419652511209 0.62932039886446345 0 0.77714595512881146 0.77714595512881146 0 -0.62932039886446345 forward_v I I I I #
coedge $-1 $224 $225 $226 $227 reversed $102 $-1 #
face $-1 $-1 $228 $63 $-1 $229 forward single #
loop $-1 $230 $231 $104 #
cone-surface $-1 37.302948113531336 3.9772433956228923 2.7314659807569761 -0.62932039886446345 0 -0.77714595512881146 0.19428648878220287 0 -0.15733009971611586 1 I I -0.70710678118654746 0.70710678118654746 forward I I I I #
loop $-1 $-1 $232 $75 #
coedge $-1 $154 $154 $233 $234 reversed $105 $-1 #
face $-1 $-1 $235 $65 $-1 $236 forward single #
loop $-1 $237 $238 $107 #
cone-surface $-1 37.302948113531336 7.10056535164248 2.7314659807569761 -0.62932039886446345 0 -0.77714595512881146 0.19428648878220287 0 -0.15733009971611586 1 I I -0.70710678118654746 0.70710678118654746 forward I I I I #
loop $-1 $-1 $239 $76 #
coedge $-1 $159 $159 $240 $241 reversed $108 $-1 #
face $-1 $242 $243 $45 $-1 $244 reversed single #
loop $-1 $-1 $245 $110 #
plane-surface $-1 0 -19.678847653121636 0 0 1 0 0 0 1 forward_v I I I I #
coedge $-1 $246 $247 $248 $249 forward $111 $-1 #
coedge $-1 $250 $113 $251 $252 forward $78 $-1 #
coedge $-1 $113 $250 $253 $254 forward $78 $-1 #
coedge $-1 $255 $256 $113 $167 reversed $257 $-1 #
edge $-1 $258 $259 $166 $260 forward #
face $-1 $261 $262 $47 $-1 $263 reversed single #
loop $-1 $-1 $264 $114 #
plane-surface $-1 0 -21.772897963571392 -1.8129648654553283 0 0 1 1 0 0 forward_v I I I I #
coedge $-1 $265 $266 $173 $267 forward $115 $-1 #
coedge $-1 $268 $117 $269 $270 reversed $81 $-1 #
coedge $-1 $117 $268 $171 $267 reversed $81 $-1 #
coedge $-1 $271 $264 $117 $175 reversed $169 $-1 #
edge $-1 $272 $273 $174 $274 forward #
face $-1 $275 $276 $49 $-1 $277 forward single #
loop $-1 $-1 $278 $118 #
plane-surface $-1 -103.07593449858501 -3.4731632273628819 53.278095231478503 0 -1 0 0.77714596973225614 0 -0.62932038083071107 forward_v I I I I #
coedge $-1 $279 $280 $281 $282 reversed $119 $-1 #
coedge $-1 $181 $121 $283 $284 reversed $84 $-1 #
coedge $-1 $121 $180 $279 $285 reversed $84 $-1 #
coedge $-1 $281 $286 $121 $183 forward $276 $-1 #
edge $-1 $287 $288 $182 $289 forward #
loop $-1 $-1 $189 $122 #
plane-surface $-1 -40.354014709921557 -6.6958426831629492 2.4868874208865819 -0.77714596973225614 0 0.62932038083071107 0.62932038083071107 0 0.77714596973225614 forward_v I I I I #
loop $-1 $-1 $290 $86 #
coedge $-1 $187 $187 $188 $291 reversed $123 $-1 #
coedge $-1 $188 $188 $187 $291 forward $125 $-1 #
coedge $-1 $189 $189 $126 $190 forward $184 $-1 #
edge $-1 $292 $292 $189 $293 forward #
loop $-1 $-1 $196 $127 #
plane-surface $-1 -40.354014709921557 -6.6958426831629492 2.4868874208865819 -0.77714596973225614 0 0.62932038083071107 0.62932038083071107 0 0.77714596973225614 forward_v I I I I #
loop $-1 $-1 $294 $89 #
coedge $-1 $194 $194 $195 $295 reversed $128 $-1 #
coedge $-1 $195 $195 $194 $295 forward $130 $-1 #
coedge $-1 $196 $196 $131 $197 forward $191 $-1 #
edge $-1 $296 $296 $196 $297 forward #
face $-1 $298 $299 $55 $-1 $300 forward single #
loop $-1 $-1 $301 $132 #
plane-surface $-1 -103.07593449858501 14.106622759862523 53.278095231478503 0 -1 0 0.77714596973225614 0 -0.62932038083071107 forward_v I I I I #
coedge $-1 $302 $303 $304 $305 reversed $133 $-1 #
coedge $-1 $203 $135 $306 $307 reversed $93 $-1 #
coedge $-1 $135 $202 $302 $308 reversed $93 $-1 #
coedge $-1 $304 $309 $135 $205 forward $299 $-1 #
edge $-1 $310 $311 $204 $312 forward #
loop $-1 $-1 $211 $136 #
plane-surface $-1 -40.354014709921557 10.883943304062456 2.4868874208865819 -0.77714596973225614 0 0.62932038083071107 0.62932038083071107 0 0.77714596973225614 forward_v I I I I #
loop $-1 $-1 $313 $95 #
coedge $-1 $209 $209 $210 $314 reversed $137 $-1 #
coedge $-1 $210 $210 $209 $314 forward $139 $-1 #
coedge $-1 $211 $211 $140 $212 forward $206 $-1 #
edge $-1 $315 $315 $211 $316 forward #
loop $-1 $-1 $218 $141 #
plane-surface $-1 -40.354014709921557 10.883943304062456 2.4868874208865819 -0.77714596973225614 0 0.62932038083071107 0.62932038083071107 0 0.77714596973225614 forward_v I I I I #
loop $-1 $-1 $317 $98 #
coedge $-1 $216 $216 $217 $318 reversed $142 $-1 #
coedge $-1 $217 $217 $216 $318 forward $144 $-1 #
coedge $-1 $218 $218 $145 $219 forward $213 $-1 #
edge $-1 $319 $319 $218 $320 forward #
face $-1 $321 $322 $61 $-1 $323 reversed single #
loop $-1 $-1 $324 $146 #
plane-surface $-1 28.423305365933878 1.8950287582765046 115.38233826255941 0 1 0 0.62932039886446345 0 0.77714595512881146 forward_v I I I I #
coedge $-1 $325 $326 $327 $328 reversed $147 $-1 #
coedge $-1 $225 $149 $329 $330 reversed $102 $-1 #
coedge $-1 $149 $224 $325 $331 reversed $102 $-1 #
coedge $-1 $327 $332 $149 $227 forward $333 $-1 #
edge $-1 $334 $335 $226 $336 forward #
loop $-1 $-1 $233 $150 #
plane-surface $-1 -22.367903900126649 5.5389043736326897 52.660419652511209 0.62932039886446345 0 0.77714595512881146 0.77714595512881146 0 -0.62932039886446345 forward_v I I I I #
loop $-1 $-1 $337 $104 #
coedge $-1 $231 $231 $232 $338 reversed $151 $-1 #
coedge $-1 $232 $232 $231 $338 forward $153 $-1 #
coedge $-1 $233 $233 $154 $234 forward $228 $-1 #
edge $-1 $339 $339 $233 $340 forward #
loop $-1 $-1 $240 $155 #
plane-surface $-1 -22.367903900126649 5.5389043736326897 52.660419652511209 0.62932039886446345 0 0.77714595512881146 0.77714595512881146 0 -0.62932039886446345 forward_v I I I I #
loop $-1 $-1 $341 $107 #
coedge $-1 $238 $238 $239 $342 reversed $156 $-1 #
coedge $-1 $239 $239 $238 $342 forward $158 $-1 #
coedge $-1 $240 $240 $159 $241 forward $235 $-1 #
edge $-1 $343 $343 $240 $344 forward #
face $-1 $345 $346 $45 $-1 $347 reversed single #
loop $-1 $-1 $348 $160 #
plane-surface $-1 -40.354014709921564 0 0 1 0 0 0 0 -1 forward_v I I I I #
coedge $-1 $349 $253 $350 $351 forward $161 $-1 #
coedge $-1 $352 $163 $349 $353 forward $111 $-1 #
coedge $-1 $163 $352 $354 $355 forward $111 $-1 #
coedge $-1 $256 $255 $163 $249 reversed $257 $-1 #
edge $-1 $356 $357 $248 $358 forward #
coedge $-1 $165 $164 $359 $360 forward $78 $-1 #
coedge $-1 $361 $362 $164 $252 reversed $346 $-1 #
edge $-1 $259 $363 $251 $364 forward #
coedge $-1 $245 $365 $165 $254 reversed $161 $-1 #
edge $-1 $366 $258 $253 $367 forward #
coedge $-1 $248 $166 $365 $368 forward $257 $-1 #
coedge $-1 $166 $248 $361 $369 reversed $257 $-1 #
loop $-1 $-1 $255 $345 #
vertex $-1 $167 $370 #
vertex $-1 $167 $371 #
straight-curve $-1 40.354014709921564 0 5.5365864628853139 0 1 0 I I #
face $-1 $372 $373 $47 $-1 $374 reversed single #
loop $-1 $-1 $375 $168 #
plane-surface $-1 0 -21.772897963571392 -4.8129648654553279 0 0 1 1 0 0 forward_v I I I I #
coedge $-1 $174 $376 $377 $378 forward $169 $-1 #
coedge $-1 $379 $171 $380 $381 reversed $115 $-1 #
coedge $-1 $171 $379 $271 $382 reversed $115 $-1 #
edge $-1 $272 $383 $171 $384 forward #
coedge $-1 $173 $172 $385 $386 forward $81 $-1 #
coedge $-1 $377 $387 $172 $270 forward $388 $-1 #
edge $-1 $389 $273 $269 $390 forward #
coedge $-1 $376 $174 $266 $382 forward $169 $-1 #
vertex $-1 $267 $391 #
vertex $-1 $378 $392 #
straight-curve $-1 0 -19.678847653121636 -1.8129648654553283 1 0 0 I I #
face $-1 $-1 $393 $49 $-1 $394 reversed single #
loop $-1 $-1 $182 $176 #
plane-surface $-1 0 0 5.5365864628853139 0 0 1 1 0 0 forward_v I I I I #
coedge $-1 $395 $396 $397 $398 reversed $177 $-1 #
coedge $-1 $399 $179 $181 $285 forward $119 $-1 #
coedge $-1 $179 $399 $395 $400 forward $119 $-1 #
coedge $-1 $397 $182 $179 $282 forward $276 $-1 #
edge $-1 $288 $401 $281 $402 forward #
coedge $-1 $403 $404 $180 $284 forward $393 $-1 #
edge $-1 $405 $287 $283 $406 forward #
edge $-1 $288 $405 $181 $407 forward #
coedge $-1 $182 $397 $403 $408 forward $276 $-1 #
vertex $-1 $284 $409 #
vertex $-1 $183 $410 #
straight-curve $-1 -51.537967249292507 -9.9185221389630165 5.5365864628853139 1 0 0 I I #
coedge $-1 $290 $290 $-1 $411 reversed $186 $-1 #
edge $-1 $412 $412 $187 $413 forward #
vertex $-1 $190 $414 #
ellipse-curve $-1 -39.119215947990824 -8.0769910213629785 4.011736941885947 -0.77714596973225614 0 0.62932038083071107 0.31466019041535553 0 0.38857298486612807 1 I I #
coedge $-1 $294 $294 $-1 $415 reversed $193 $-1 #
edge $-1 $416 $416 $194 $417 forward #
vertex $-1 $197 $418 #
ellipse-curve $-1 -39.119215947990824 -5.3146943449629198 4.011736941885947 -0.77714596973225614 0 0.62932038083071107 0.31466019041535553 0 0.38857298486612807 1 I I #
face $-1 $-1 $419 $55 $-1 $420 reversed single #
loop $-1 $-1 $204 $198 #
plane-surface $-1 0 0 5.5365864628853139 0 0 1 1 0 0 forward_v I I I I #
coedge $-1 $421 $422 $423 $424 reversed $199 $-1 #
coedge $-1 $425 $201 $203 $308 forward $133 $-1 #
coedge $-1 $201 $425 $421 $426 forward $133 $-1 #
coedge $-1 $423 $204 $201 $305 forward $299 $-1 #
edge $-1 $311 $427 $304 $428 forward #
coedge $-1 $429 $430 $202 $307 forward $419 $-1 #
edge $-1 $431 $310 $306 $432 forward #
edge $-1 $311 $431 $203 $433 forward #
coedge $-1 $204 $423 $429 $434 forward $299 $-1 #
vertex $-1 $205 $435 #
vertex $-1 $205 $436 #
straight-curve $-1 -51.537967249292507 7.6612638482623883 5.5365864628853139 1 0 0 I I #
coedge $-1 $313 $313 $-1 $437 reversed $208 $-1 #
edge $-1 $438 $438 $209 $439 forward #
vertex $-1 $212 $440 #
ellipse-curve $-1 -39.119215947990824 9.502794965862428 4.011736941885947 -0.77714596973225614 0 0.62932038083071107 0.31466019041535553 0 0.38857298486612807 1 I I #
coedge $-1 $317 $317 $-1 $441 reversed $215 $-1 #
edge $-1 $442 $442 $216 $443 forward #
vertex $-1 $219 $444 #
ellipse-curve $-1 -39.119215947990824 12.265091642262487 4.011736941885947 -0.77714596973225614 0 0.62932038083071107 0.31466019041535553 0 0.38857298486612807 1 I I #
face $-1 $-1 $333 $61 $-1 $445 forward single #
loop $-1 $-1 $446 $220 #
plane-surface $-1 40.354014709921564 0 0 -1 0 0 0 0 1 forward_v I I I I #
coedge $-1 $447 $448 $449 $450 reversed $221 $-1 #
coedge $-1 $451 $223 $225 $331 forward $147 $-1 #
coedge $-1 $223 $451 $447 $452 forward $147 $-1 #
coedge $-1 $449 $226 $223 $328 forward $333 $-1 #
edge $-1 $335 $453 $327 $454 forward #
coedge $-1 $455 $456 $224 $330 forward $322 $-1 #
edge $-1 $457 $334 $329 $458 forward #
edge $-1 $335 $457 $225 $459 forward #
coedge $-1 $226 $449 $455 $460 forward $333 $-1 #
loop $-1 $-1 $449 $321 #
vertex $-1 $330 $461 #
vertex $-1 $227 $462 #
straight-curve $-1 14.211652682966939 9.1827799889888748 5.5365864628853103 -1 0 0 I I #
coedge $-1 $337 $337 $-1 $463 reversed $230 $-1 #
edge $-1 $464 $464 $231 $465 forward #
vertex $-1 $234 $466 #
ellipse-curve $-1 38.089598612111921 3.9772433956228923 3.7028984246680015 0.62932039886446345 0 0.77714595512881146 0.38857297756440573 0 -0.31466019943223172 1 I I #
coedge $-1 $341 $341 $-1 $467 reversed $237 $-1 #
edge $-1 $468 $468 $238 $469 forward #
vertex $-1 $241 $470 #
ellipse-curve $-1 38.089598612111921 7.10056535164248 3.7028984246680015 0.62932039886446345 0 0.77714595512881146 0.38857297756440573 0 -0.31466019943223172 1 I I #
face $-1 $-1 $257 $45 $-1 $471 reversed single #
loop $-1 $-1 $361 $242 #
plane-surface $-1 0 19.678847653121636 0 0 -1 0 0 0 -1 forward_v I I I I #
coedge $-1 $472 $359 $362 $473 forward $243 $-1 #
coedge $-1 $365 $245 $246 $353 reversed $161 $-1 #
coedge $-1 $359 $472 $245 $351 reversed $243 $-1 #
edge $-1 $366 $474 $350 $475 forward #
coedge $-1 $247 $246 $472 $476 forward $111 $-1 #
edge $-1 $357 $474 $349 $477 forward #
coedge $-1 $362 $361 $247 $355 reversed $346 $-1 #
edge $-1 $478 $356 $354 $479 forward #
vertex $-1 $249 $480 #
vertex $-1 $368 $481 #
straight-curve $-1 40.354014709921564 0 -5.5365864628853139 0 -1 0 I I #
coedge $-1 $348 $350 $250 $360 reversed $243 $-1 #
edge $-1 $363 $366 $359 $482 forward #
coedge $-1 $354 $251 $256 $369 forward $346 $-1 #
coedge $-1 $251 $354 $348 $473 reversed $346 $-1 #
vertex $-1 $252 $483 #
straight-curve $-1 0 19.678847653121636 5.5365864628853139 -1 0 0 I I #
coedge $-1 $253 $349 $255 $368 reversed $161 $-1 #
vertex $-1 $360 $484 #
straight-curve $-1 0 -19.678847653121636 5.5365864628853139 1 0 0 I I #
edge $-1 $258 $357 $255 $485 forward #
edge $-1 $259 $356 $256 $486 forward #
point $-1 40.354014709921564 -19.678847653121636 5.5365864628853139 #
point $-1 40.354014709921564 19.678847653121636 5.5365864628853139 #
face $-1 $-1 $388 $47 $-1 $487 reversed single #
loop $-1 $-1 $488 $261 #
plane-surface $-1 0 -23.866948274021148 -3.3129648654553283 0 1 0 0 0 1 forward_v I I I I #
coedge $-1 $489 $385 $387 $490 forward $262 $-1 #
coedge $-1 $264 $271 $491 $492 forward $169 $-1 #
coedge $-1 $493 $269 $264 $378 reversed $388 $-1 #
edge $-1 $494 $273 $377 $495 forward #
coedge $-1 $266 $265 $488 $496 reversed $115 $-1 #
coedge $-1 $385 $489 $265 $381 forward $262 $-1 #
edge $-1 $497 $383 $265 $498 forward #
edge $-1 $272 $499 $266 $500 forward #
vertex $-1 $267 $501 #
straight-curve $-1 -40.354014709921564 -19.678847653121636 0 0 0 -1 I I #
coedge $-1 $375 $380 $268 $386 reversed $262 $-1 #
edge $-1 $389 $383 $385 $502 forward #
coedge $-1 $269 $493 $375 $490 reversed $388 $-1 #
loop $-1 $-1 $269 $372 #
vertex $-1 $270 $503 #
straight-curve $-1 40.354014709921564 -19.678847653121636 0 0 0 1 I I #
point $-1 -40.354014709921564 -19.678847653121636 -1.8129648654553283 #
point $-1 40.354014709921564 -19.678847653121636 -1.8129648654553283 #
loop $-1 $-1 $283 $275 #
plane-surface $-1 -40.354014709921564 0 0 1 0 0 0 0 -1 forward_v I I I I #
coedge $-1 $396 $278 $280 $400 reversed $177 $-1 #
coedge $-1 $278 $395 $504 $505 reversed $177 $-1 #
coedge $-1 $286 $281 $278 $398 forward $276 $-1 #
edge $-1 $401 $506 $397 $507 forward #
coedge $-1 $280 $279 $404 $508 reversed $119 $-1 #
edge $-1 $509 $401 $395 $510 forward #
vertex $-1 $282 $511 #
straight-curve $-1 -37.884417186060091 -3.3479213415814746 5.5365864628853148 0 1 0 I I #
coedge $-1 $504 $283 $286 $408 reversed $393 $-1 #
coedge $-1 $283 $504 $399 $508 forward $393 $-1 #
vertex $-1 $284 $512 #
straight-curve $-1 -40.354014709921564 -9.9185221389630165 26.639047615739251 0 0 1 I I #
straight-curve $-1 -40.354014709921557 -9.9185221389630165 2.4868874208865819 -0.62932038083071107 0 -0.77714596973225614 I I #
edge $-1 $506 $287 $403 $513 forward #
point $-1 -40.354014709921564 -9.9185221389630165 5.5365864628853139 #
point $-1 -37.884417186060091 -9.9185221389630165 5.5365864628853139 #
edge $-1 $514 $514 $290 $-1 forward #
vertex $-1 $291 $515 #
ellipse-curve $-1 -37.769165853014655 -8.0769910213629785 2.9184879603546476 -0.77714596973225614 0 0.62932038083071107 0.31466019041535553 0 0.38857298486612807 1 I I #
point $-1 -38.804555757575471 -8.0769910213629785 4.4003099267520778 #
edge $-1 $516 $516 $294 $-1 forward #
vertex $-1 $295 $517 #
ellipse-curve $-1 -37.769165853014655 -5.3146943449629198 2.9184879603546476 -0.77714596973225614 0 0.62932038083071107 0.31466019041535553 0 0.38857298486612807 1 I I #
point $-1 -38.804555757575471 -5.3146943449629198 4.4003099267520778 #
loop $-1 $-1 $306 $298 #
plane-surface $-1 -40.354014709921564 0 0 1 0 0 0 0 -1 forward_v I I I I #
coedge $-1 $422 $301 $303 $426 reversed $199 $-1 #
coedge $-1 $301 $421 $518 $519 reversed $199 $-1 #
coedge $-1 $309 $304 $301 $424 forward $299 $-1 #
edge $-1 $427 $520 $423 $521 forward #
coedge $-1 $303 $302 $430 $522 reversed $133 $-1 #
edge $-1 $523 $427 $421 $524 forward #
vertex $-1 $305 $525 #
straight-curve $-1 -37.884417186060091 5.4419716520312278 5.5365864628853148 0 1 0 I I #
coedge $-1 $518 $306 $309 $434 reversed $419 $-1 #
coedge $-1 $306 $518 $425 $522 forward $419 $-1 #
vertex $-1 $307 $526 #
straight-curve $-1 -40.354014709921564 7.6612638482623883 26.639047615739251 0 0 1 I I #
straight-curve $-1 -40.354014709921557 7.6612638482623883 2.4868874208865819 -0.62932038083071107 0 -0.77714596973225614 I I #
edge $-1 $520 $310 $429 $527 forward #
point $-1 -40.354014709921564 7.6612638482623883 5.5365864628853139 #
point $-1 -37.884417186060091 7.6612638482623883 5.5365864628853139 #
edge $-1 $528 $528 $313 $-1 forward #
vertex $-1 $314 $529 #
ellipse-curve $-1 -37.769165853014655 9.502794965862428 2.9184879603546476 -0.77714596973225614 0 0.62932038083071107 0.31466019041535553 0 0.38857298486612807 1 I I #
point $-1 -38.804555757575471 9.502794965862428 4.4003099267520778 #
edge $-1 $530 $530 $317 $-1 forward #
vertex $-1 $318 $531 #
ellipse-curve $-1 -37.769165853014655 12.265091642262487 2.9184879603546476 -0.77714596973225614 0 0.62932038083071107 0.31466019041535553 0 0.38857298486612807 1 I I #
point $-1 -38.804555757575471 12.265091642262487 4.4003099267520778 #
plane-surface $-1 0 0 5.5365864628853139 0 0 1 1 0 0 forward_v I I I I #
coedge $-1 $456 $455 $448 $532 forward $322 $-1 #
coedge $-1 $448 $324 $326 $452 reversed $221 $-1 #
coedge $-1 $324 $447 $446 $532 reversed $221 $-1 #
coedge $-1 $332 $327 $324 $450 forward $333 $-1 #
edge $-1 $453 $533 $449 $534 forward #
coedge $-1 $326 $325 $456 $535 reversed $147 $-1 #
edge $-1 $536 $453 $447 $537 forward #
vertex $-1 $328 $538 #
straight-curve $-1 35.825182514302291 2.7694521868163449 5.5365864628853032 0 -1 0 I I #
coedge $-1 $446 $329 $332 $460 reversed $322 $-1 #
coedge $-1 $329 $446 $451 $535 forward $322 $-1 #
vertex $-1 $330 $539 #
straight-curve $-1 40.354014709921564 9.1827799889888748 57.691169131279707 0 0 1 I I #
straight-curve $-1 -22.367903900126649 9.1827799889888748 52.660419652511209 0.77714595512881146 0 -0.62932039886446345 I I #
edge $-1 $533 $334 $455 $540 forward #
point $-1 40.354014709921564 9.1827799889888748 5.5365864628853139 #
point $-1 35.825182514302291 9.1827799889888748 5.5365864628853032 #
edge $-1 $541 $541 $337 $-1 forward #
vertex $-1 $338 $542 #
ellipse-curve $-1 37.460278213247449 3.9772433956228923 2.9257524695391788 0.62932039886446345 0 0.77714595512881146 0.38857297756440573 0 -0.31466019943223172 1 I I #
point $-1 38.478171589676322 3.9772433956228923 3.3882382252357588 #
edge $-1 $543 $543 $341 $-1 forward #
vertex $-1 $342 $544 #
ellipse-curve $-1 37.460278213247449 7.10056535164248 2.9257524695391788 0.62932039886446345 0 0.77714595512881146 0.38857297756440573 0 -0.31466019943223172 1 I I #
point $-1 38.478171589676322 7.10056535164248 3.3882382252357588 #
plane-surface $-1 40.354014709921564 0 0 -1 0 0 0 0 1 forward_v I I I I #
coedge $-1 $350 $348 $352 $476 reversed $243 $-1 #
edge $-1 $363 $478 $362 $545 forward #
vertex $-1 $476 $546 #
straight-curve $-1 -40.354014709921564 -19.678847653121636 0 0 0 -1 I I #
edge $-1 $474 $478 $472 $547 forward #
straight-curve $-1 0 -19.678847653121636 -5.5365864628853139 -1 0 0 I I #
vertex $-1 $355 $548 #
straight-curve $-1 0 19.678847653121636 -5.5365864628853139 1 0 0 I I #
point $-1 40.354014709921564 19.678847653121636 -5.5365864628853139 #
point $-1 40.354014709921564 -19.678847653121636 -5.5365864628853139 #
straight-curve $-1 -40.354014709921564 0 5.5365864628853139 0 -1 0 I I #
point $-1 -40.354014709921564 19.678847653121636 5.5365864628853139 #
point $-1 -40.354014709921564 -19.678847653121636 5.5365864628853139 #
straight-curve $-1 40.354014709921564 -19.678847653121636 0 0 0 -1 I I #
straight-curve $-1 40.354014709921564 19.678847653121636 0 0 0 -1 I I #
plane-surface $-1 40.354014709921564 0 0 -1 0 0 0 0 1 forward_v I I I I #
coedge $-1 $549 $491 $379 $496 forward $373 $-1 #
coedge $-1 $380 $375 $549 $550 forward $262 $-1 #
edge $-1 $389 $551 $387 $552 forward #
coedge $-1 $488 $553 $376 $492 reversed $373 $-1 #
edge $-1 $499 $494 $491 $554 forward #
coedge $-1 $387 $377 $553 $555 forward $388 $-1 #
vertex $-1 $378 $556 #
straight-curve $-1 40.354014709921564 -21.772897963571392 -1.8129648654553283 0 1 0 I I #
edge $-1 $499 $497 $379 $557 forward #
vertex $-1 $381 $558 #
straight-curve $-1 -40.354014709921564 -21.772897963571392 -4.8129648654553279 0 1 0 I I #
vertex $-1 $382 $559 #
straight-curve $-1 -40.354014709921564 -21.772897963571392 -1.8129648654553283 0 -1 0 I I #
point $-1 -40.354014709921564 -19.678847653121636 -4.8129648654553279 #
straight-curve $-1 0 -19.678847653121636 -4.8129648654553279 -1 0 0 I I #
point $-1 40.354014709921564 -19.678847653121636 -4.8129648654553279 #
coedge $-1 $404 $403 $396 $505 forward $393 $-1 #
edge $-1 $506 $509 $504 $560 forward #
vertex $-1 $408 $561 #
straight-curve $-1 -51.537967249292507 -3.4731632273628819 5.5365864628853139 -1 0 0 I I #
edge $-1 $509 $405 $404 $562 forward #
vertex $-1 $508 $563 #
straight-curve $-1 -40.354014709921557 -3.4731632273628819 2.4868874208865819 0.62932038083071107 0 0.77714596973225614 I I #
point $-1 -37.884417186060091 -3.4731632273628819 5.5365864628853139 #
point $-1 -40.354014709921564 -9.9185221389630165 2.486887420886573 #
straight-curve $-1 -40.354014709921564 0 5.5365864628853139 0 -1 0 I I #
vertex $-1 $411 $564 #
point $-1 -37.454505662599296 -8.0769910213629785 3.3070609452207758 #
vertex $-1 $415 $565 #
point $-1 -37.454505662599296 -5.3146943449629198 3.3070609452207758 #
coedge $-1 $430 $429 $422 $519 forward $419 $-1 #
edge $-1 $520 $523 $518 $566 forward #
vertex $-1 $434 $567 #
straight-curve $-1 -51.537967249292507 14.106622759862523 5.5365864628853139 -1 0 0 I I #
edge $-1 $523 $431 $430 $568 forward #
vertex $-1 $522 $569 #
straight-curve $-1 -40.354014709921557 14.106622759862523 2.4868874208865819 0.62932038083071107 0 0.77714596973225614 I I #
point $-1 -37.884417186060091 14.106622759862523 5.5365864628853139 #
point $-1 -40.354014709921564 7.6612638482623883 2.486887420886573 #
straight-curve $-1 -40.354014709921564 0 5.5365864628853139 0 -1 0 I I #
vertex $-1 $437 $570 #
point $-1 -37.454505662599296 9.502794965862428 3.3070609452207758 #
vertex $-1 $441 $571 #
point $-1 -37.454505662599296 12.265091642262487 3.3070609452207758 #
edge $-1 $533 $536 $446 $572 forward #
vertex $-1 $460 $573 #
straight-curve $-1 14.211652682966939 1.8950287582765046 5.5365864628853103 1 0 0 I I #
edge $-1 $536 $457 $456 $574 forward #
vertex $-1 $535 $575 #
straight-curve $-1 -22.367903900126649 1.8950287582765046 52.660419652511209 -0.77714595512881146 0 0.62932039886446345 I I #
point $-1 35.825182514302291 1.8950287582765046 5.5365864628853032 #
point $-1 40.354014709921564 9.1827799889888748 1.8692103864506748 #
straight-curve $-1 40.354014709921564 0 5.5365864628853139 0 1 0 I I #
vertex $-1 $463 $576 #
point $-1 37.848851190811857 3.9772433956228923 2.6110922701069472 #
vertex $-1 $467 $577 #
point $-1 37.848851190811857 7.10056535164248 2.6110922701069472 #
straight-curve $-1 -40.354014709921564 19.678847653121636 0 0 0 -1 I I #
point $-1 -40.354014709921564 -19.678847653121636 -5.5365864628853139 #
straight-curve $-1 -40.354014709921564 0 -5.5365864628853139 0 1 0 I I #
point $-1 -40.354014709921564 19.678847653121636 -5.5365864628853139 #
coedge $-1 $553 $488 $489 $550 reversed $373 $-1 #
edge $-1 $551 $497 $549 $578 forward #
vertex $-1 $555 $579 #
straight-curve $-1 40.354014709921564 -21.772897963571392 -4.8129648654553279 0 -1 0 I I #
coedge $-1 $491 $549 $493 $555 reversed $373 $-1 #
straight-curve $-1 0 -23.866948274021148 -1.8129648654553283 1 0 0 I I #
edge $-1 $494 $551 $493 $580 forward #
point $-1 40.354014709921564 -23.866948274021148 -1.8129648654553283 #
straight-curve $-1 -40.354014709921564 -23.866948274021148 -3.3129648654553283 0 0 -1 I I #
point $-1 -40.354014709921564 -23.866948274021148 -4.8129648654553279 #
point $-1 -40.354014709921564 -23.866948274021148 -1.8129648654553283 #
straight-curve $-1 -40.354014709921564 -3.4731632273628819 26.639047615739251 0 0 -1 I I #
point $-1 -40.354014709921564 -3.4731632273628819 5.5365864628853139 #
straight-curve $-1 -40.354014709921564 -3.3479213415814746 2.4868874208865663 0 -1 0 I I #
point $-1 -40.354014709921564 -3.4731632273628819 2.486887420886573 #
point $-1 -37.380592868148526 -8.0769910213629785 2.6038277699392922 #
point $-1 -37.380592868148526 -5.3146943449629198 2.6038277699392922 #
straight-curve $-1 -40.354014709921564 14.106622759862523 26.639047615739251 0 0 -1 I I #
point $-1 -40.354014709921564 14.106622759862523 5.5365864628853139 #
straight-curve $-1 -40.354014709921564 5.4419716520312278 2.4868874208865663 0 -1 0 I I #
point $-1 -40.354014709921564 14.106622759862523 2.486887420886573 #
point $-1 -37.380592868148526 9.502794965862428 2.6038277699392922 #
point $-1 -37.380592868148526 12.265091642262487 2.6038277699392922 #
straight-curve $-1 40.354014709921564 1.8950287582765046 57.691169131279707 0 0 -1 I I #
point $-1 40.354014709921564 1.8950287582765046 5.5365864628853139 #
straight-curve $-1 40.354014709921572 2.7694521868163449 1.8692103864506713 0 1 0 I I #
point $-1 40.354014709921564 1.8950287582765046 1.8692103864506748 #
point $-1 37.145618013815223 3.9772433956228923 2.5371794919747734 #
point $-1 37.145618013815223 7.10056535164248 2.5371794919747734 #
straight-curve $-1 0 -23.866948274021148 -4.8129648654553279 -1 0 0 I I #
point $-1 40.354014709921564 -23.866948274021148 -4.8129648654553279 #
straight-curve $-1 40.354014709921564 -23.866948274021148 -3.3129648654553283 0 0 -1 I I #
End-of-ACIS-data 