600 0 11 0           
96 GICL ACIS Healer - Source: /gicl/data5/repository/Drexel/SM99-DATA/part125.smdg.deltas.sat - 6 0 18 ACIS 6.0.3 Solaris 24 Sat Apr 13 20:45:25 2002 
1 9.999999999999999547e-07 1.000000000000000036e-10 
body $-1 $11 $-1 $-1 #
body $-1 $12 $-1 $-1 #
body $-1 $13 $-1 $-1 #
body $-1 $14 $-1 $-1 #
body $-1 $15 $-1 $-1 #
body $-1 $16 $-1 $-1 #
body $-1 $17 $-1 $-1 #
body $-1 $18 $-1 $-1 #
body $-1 $19 $-1 $-1 #
body $-1 $20 $-1 $-1 #
body $-1 $21 $-1 $-1 #
lump $-1 $-1 $22 $0 #
lump $-1 $-1 $23 $1 #
lump $-1 $-1 $24 $2 #
lump $-1 $-1 $25 $3 #
lump $-1 $-1 $26 $4 #
lump $-1 $-1 $27 $5 #
lump $-1 $-1 $28 $6 #
lump $-1 $-1 $29 $7 #
lump $-1 $-1 $30 $8 #
lump $-1 $-1 $31 $9 #
lump $-1 $-1 $32 $10 #
shell $-1 $-1 $-1 $33 $-1 $11 #
shell $-1 $-1 $-1 $34 $-1 $12 #
shell $-1 $-1 $-1 $35 $-1 $13 #
shell $-1 $-1 $-1 $36 $-1 $14 #
shell $-1 $-1 $-1 $37 $-1 $15 #
shell $-1 $-1 $-1 $38 $-1 $16 #
shell $-1 $-1 $-1 $39 $-1 $17 #
shell $-1 $-1 $-1 $40 $-1 $18 #
shell $-1 $-1 $-1 $41 $-1 $19 #
shell $-1 $-1 $-1 $42 $-1 $20 #
shell $-1 $-1 $-1 $43 $-1 $21 #
face $-1 $44 $45 $22 $-1 $46 forward single #
face $-1 $47 $48 $23 $-1 $49 forward single #
face $-1 $50 $51 $24 $-1 $52 reversed single #
face $-1 $53 $54 $25 $-1 $55 forward single #
face $-1 $56 $57 $26 $-1 $58 forward single #
face $-1 $59 $60 $27 $-1 $61 reversed single #
face $-1 $62 $63 $28 $-1 $64 forward single #
face $-1 $65 $66 $29 $-1 $67 forward single #
face $-1 $68 $69 $30 $-1 $70 reversed single #
face $-1 $71 $72 $31 $-1 $73 forward single #
face $-1 $74 $75 $32 $-1 $76 forward single #
face $-1 $77 $78 $22 $-1 $79 reversed single #
loop $-1 $-1 $80 $33 #
plane-surface $-1 40.35401470992156447 19.67884765312163609 11.07317292577062773 0 0 1 1 0 0 forward_v I I I I #
face $-1 $81 $82 $23 $-1 $83 reversed single #
loop $-1 $-1 $84 $34 #
plane-surface $-1 40.35401470992156447 0 5.536586462885313864 0 1 0 0 0 1 forward_v I I I I #
face $-1 $85 $86 $24 $-1 $87 reversed single #
loop $-1 $-1 $88 $35 #
plane-surface $-1 -62.72191978866344897 9.760325514158619598 58.81468169436381288 0 1 0 -0.7771459697322561366 0 0.629320380830711068 forward_v I I I I #
face $-1 $89 $90 $25 $-1 $91 forward single #
loop $-1 $92 $93 $36 #
cone-surface $-1 1.909823809418824681 11.60185663175865756 9.00169891400561184 0.7771459697322561366 0 -0.629320380830711068 0.314660190415355534 0 0.3885729848661280683 1 I I 0 1 0.5 forward I I I I #
face $-1 $94 $95 $26 $-1 $96 forward single #
loop $-1 $97 $98 $37 #
cone-surface $-1 1.909823809418824681 14.36415330815871627 9.00169891400561184 0.7771459697322561366 0 -0.629320380830711068 0.314660190415355534 0 0.3885729848661280683 1 I I 0 1 0.5 forward I I I I #
face $-1 $99 $100 $27 $-1 $101 reversed single #
loop $-1 $-1 $102 $38 #
plane-surface $-1 -62.72191978866344897 27.34011150138402257 58.81468169436381288 0 1 0 -0.7771459697322561366 0 0.629320380830711068 forward_v I I I I #
face $-1 $103 $104 $28 $-1 $105 forward single #
loop $-1 $106 $107 $39 #
cone-surface $-1 1.909823809418824681 29.18164261898406409 9.00169891400561184 0.7771459697322561366 0 -0.629320380830711068 0.314660190415355534 0 0.3885729848661280683 1 I I 0 1 0.5 forward I I I I #
face $-1 $108 $109 $29 $-1 $110 forward single #
loop $-1 $111 $112 $40 #
cone-surface $-1 1.909823809418824681 31.9439392953841228 9.00169891400561184 0.7771459697322561366 0 -0.629320380830711068 0.314660190415355534 0 0.3885729848661280683 1 I I 0 1 0.5 forward I I I I #
face $-1 $113 $114 $30 $-1 $115 reversed single #
loop $-1 $-1 $116 $41 #
plane-surface $-1 68.77732007585544238 28.86162764211051268 120.9189247254447253 0 -1 0 -0.6293203988644634483 0 -0.7771459551288114609 forward_v I I I I #
face $-1 $117 $118 $31 $-1 $119 forward single #
loop $-1 $120 $121 $42 #
cone-surface $-1 78.1289531226012457 23.65609104874452839 8.850911909988898429 -0.6293203988644634483 0 -0.7771459551288114609 0.3885729775644057304 0 -0.3146601994322317242 1 I I 0 1 0.5 forward I I I I #
face $-1 $122 $123 $32 $-1 $124 forward single #
loop $-1 $125 $126 $43 #
cone-surface $-1 78.1289531226012457 26.77941300476411612 8.850911909988898429 -0.6293203988644634483 0 -0.7771459551288114609 0.3885729775644057304 0 -0.3146601994322317242 1 I I 0 1 0.5 forward I I I I #
face $-1 $127 $128 $22 $-1 $129 reversed single #
loop $-1 $-1 $130 $44 #
plane-surface $-1 40.35401470992156447 19.67884765312163609 0 0 0 1 1 0 0 forward_v I I I I #
coedge $-1 $131 $132 $133 $134 forward $45 $-1 #
face $-1 $135 $136 $23 $-1 $137 forward single #
loop $-1 $-1 $138 $47 #
plane-surface $-1 0 19.67884765312163609 5.536586462885313864 1 0 0 0 0 -1 forward_v I I I I #
coedge $-1 $139 $140 $141 $142 forward $48 $-1 #
face $-1 $143 $144 $24 $-1 $145 reversed single #
loop $-1 $-1 $146 $50 #
plane-surface $-1 7.105427357601001859e-15 12.98300496995868691 8.023473883771895743 -0.7771459697322561366 0 0.629320380830711068 0.629320380830711068 0 0.7771459697322561366 forward_v I I I I #
coedge $-1 $147 $148 $149 $150 reversed $51 $-1 #
face $-1 $-1 $151 $25 $-1 $152 forward single #
loop $-1 $153 $154 $53 #
cone-surface $-1 2.77913534933997397 11.60185663175865756 8.297744328032283789 0.7771459697322561366 0 -0.629320380830711068 0.157330095207677767 0 0.1942864924330640342 1 I I -0.7071067811865474617 0.7071067811865474617 0.25 forward I I I I #
loop $-1 $-1 $155 $36 #
coedge $-1 $93 $93 $156 $157 reversed $54 $-1 #
face $-1 $-1 $158 $26 $-1 $159 forward single #
loop $-1 $160 $161 $56 #
cone-surface $-1 2.77913534933997397 14.36415330815871627 8.297744328032283789 0.7771459697322561366 0 -0.629320380830711068 0.157330095207677767 0 0.1942864924330640342 1 I I -0.7071067811865474617 0.7071067811865474617 0.25 forward I I I I #
loop $-1 $-1 $162 $37 #
coedge $-1 $98 $98 $163 $164 reversed $57 $-1 #
face $-1 $165 $166 $27 $-1 $167 reversed single #
loop $-1 $-1 $168 $59 #
plane-surface $-1 7.105427357601001859e-15 30.56279095718409167 8.023473883771895743 -0.7771459697322561366 0 0.629320380830711068 0.629320380830711068 0 0.7771459697322561366 forward_v I I I I #
coedge $-1 $169 $170 $171 $172 reversed $60 $-1 #
face $-1 $-1 $173 $28 $-1 $174 forward single #
loop $-1 $175 $176 $62 #
cone-surface $-1 2.77913534933997397 29.18164261898406409 8.297744328032283789 0.7771459697322561366 0 -0.629320380830711068 0.157330095207677767 0 0.1942864924330640342 1 I I -0.7071067811865474617 0.7071067811865474617 0.25 forward I I I I #
loop $-1 $-1 $177 $39 #
coedge $-1 $107 $107 $178 $179 reversed $63 $-1 #
face $-1 $-1 $180 $29 $-1 $181 forward single #
loop $-1 $182 $183 $65 #
cone-surface $-1 2.77913534933997397 31.9439392953841228 8.297744328032283789 0.7771459697322561366 0 -0.629320380830711068 0.157330095207677767 0 0.1942864924330640342 1 I I -0.7071067811865474617 0.7071067811865474617 0.25 forward I I I I #
loop $-1 $-1 $184 $40 #
coedge $-1 $112 $112 $185 $186 reversed $66 $-1 #
face $-1 $187 $188 $30 $-1 $189 reversed single #
loop $-1 $-1 $190 $68 #
plane-surface $-1 17.98611080979491561 25.21775202675432581 58.19700611539651902 0.6293203988644634483 0 0.7771459551288114609 0.7771459551288114609 0 -0.6293203988644634483 forward_v I I I I #
coedge $-1 $191 $192 $193 $194 reversed $69 $-1 #
face $-1 $-1 $195 $31 $-1 $196 forward single #
loop $-1 $197 $198 $71 #
cone-surface $-1 77.65696282345290058 23.65609104874452839 8.268052443642289973 -0.6293203988644634483 0 -0.7771459551288114609 0.1942864887822028652 0 -0.1573300997161158621 1 I I -0.7071067811865474617 0.7071067811865474617 0.25 forward I I I I #
loop $-1 $-1 $199 $42 #
coedge $-1 $121 $121 $200 $201 reversed $72 $-1 #
face $-1 $-1 $202 $32 $-1 $203 forward single #
loop $-1 $204 $205 $74 #
cone-surface $-1 77.65696282345290058 26.77941300476411612 8.268052443642289973 -0.6293203988644634483 0 -0.7771459551288114609 0.1942864887822028652 0 -0.1573300997161158621 1 I I -0.7071067811865474617 0.7071067811865474617 0.25 forward I I I I #
loop $-1 $-1 $206 $43 #
coedge $-1 $126 $126 $207 $208 reversed $75 $-1 #
face $-1 $209 $210 $22 $-1 $211 reversed single #
loop $-1 $-1 $212 $77 #
plane-surface $-1 40.35401470992156447 0 5.536586462885313864 0 1 0 0 0 1 forward_v I I I I #
coedge $-1 $213 $214 $215 $216 forward $78 $-1 #
coedge $-1 $217 $80 $218 $219 forward $45 $-1 #
coedge $-1 $80 $217 $220 $221 forward $45 $-1 #
coedge $-1 $222 $223 $80 $134 reversed $224 $-1 #
edge $-1 $225 -19.67884765312163609 $226 19.67884765312163609 $133 $227 forward 7 unknown #
face $-1 $228 $229 $23 $-1 $230 reversed single #
loop $-1 $-1 $231 $81 #
plane-surface $-1 40.35401470992156447 -2.09405031044975587 3.723621597429985552 0 0 1 1 0 0 forward_v I I I I #
coedge $-1 $232 $233 $140 $234 forward $82 $-1 #
coedge $-1 $235 $84 $236 $237 reversed $48 $-1 #
coedge $-1 $84 $235 $138 $234 reversed $48 $-1 #
coedge $-1 $238 $231 $84 $142 reversed $136 $-1 #
edge $-1 $239 -40.35401470992156447 $240 40.35401470992156447 $141 $241 forward 7 unknown #
face $-1 $242 $243 $24 $-1 $244 forward single #
loop $-1 $-1 $245 $85 #
plane-surface $-1 -62.72191978866344897 16.20568442575875423 58.81468169436381288 0 -1 0 0.7771459697322561366 0 -0.629320380830711068 forward_v I I I I #
coedge $-1 $246 $247 $248 $249 reversed $86 $-1 #
coedge $-1 $148 $88 $250 $251 reversed $51 $-1 #
coedge $-1 $88 $147 $246 $252 reversed $51 $-1 #
coedge $-1 $248 $253 $88 $150 forward $243 $-1 #
edge $-1 $254 11.18395253937094225 $255 13.65355006323241582 $149 $256 forward 7 unknown #
loop $-1 $-1 $156 $89 #
plane-surface $-1 7.105427357601001859e-15 12.98300496995868691 8.023473883771895743 -0.7771459697322561366 0 0.629320380830711068 0.629320380830711068 0 0.7771459697322561366 forward_v I I I I #
loop $-1 $-1 $257 $53 #
coedge $-1 $154 $154 $155 $258 reversed $90 $-1 #
coedge $-1 $155 $155 $154 $258 forward $92 $-1 #
coedge $-1 $156 $156 $93 $157 forward $151 $-1 #
edge $-1 $259 0 $259 6.283185307179586232 $156 $260 forward 7 unknown #
loop $-1 $-1 $163 $94 #
plane-surface $-1 7.105427357601001859e-15 12.98300496995868691 8.023473883771895743 -0.7771459697322561366 0 0.629320380830711068 0.629320380830711068 0 0.7771459697322561366 forward_v I I I I #
loop $-1 $-1 $261 $56 #
coedge $-1 $161 $161 $162 $262 reversed $95 $-1 #
coedge $-1 $162 $162 $161 $262 forward $97 $-1 #
coedge $-1 $163 $163 $98 $164 forward $158 $-1 #
edge $-1 $263 0 $263 6.283185307179586232 $163 $264 forward 7 unknown #
face $-1 $265 $266 $27 $-1 $267 forward single #
loop $-1 $-1 $268 $99 #
plane-surface $-1 -62.72191978866344897 33.78547041298416076 58.81468169436381288 0 -1 0 0.7771459697322561366 0 -0.629320380830711068 forward_v I I I I #
coedge $-1 $269 $270 $271 $272 reversed $100 $-1 #
coedge $-1 $170 $102 $273 $274 reversed $60 $-1 #
coedge $-1 $102 $169 $269 $275 reversed $60 $-1 #
coedge $-1 $271 $276 $102 $172 forward $266 $-1 #
edge $-1 $277 11.18395253937094225 $278 13.65355006323241582 $171 $279 forward 7 unknown #
loop $-1 $-1 $178 $103 #
plane-surface $-1 7.105427357601001859e-15 30.56279095718409167 8.023473883771895743 -0.7771459697322561366 0 0.629320380830711068 0.629320380830711068 0 0.7771459697322561366 forward_v I I I I #
loop $-1 $-1 $280 $62 #
coedge $-1 $176 $176 $177 $281 reversed $104 $-1 #
coedge $-1 $177 $177 $176 $281 forward $106 $-1 #
coedge $-1 $178 $178 $107 $179 forward $173 $-1 #
edge $-1 $282 0 $282 6.283185307179586232 $178 $283 forward 7 unknown #
loop $-1 $-1 $185 $108 #
plane-surface $-1 7.105427357601001859e-15 30.56279095718409167 8.023473883771895743 -0.7771459697322561366 0 0.629320380830711068 0.629320380830711068 0 0.7771459697322561366 forward_v I I I I #
loop $-1 $-1 $284 $65 #
coedge $-1 $183 $183 $184 $285 reversed $109 $-1 #
coedge $-1 $184 $184 $183 $285 forward $111 $-1 #
coedge $-1 $185 $185 $112 $186 forward $180 $-1 #
edge $-1 $286 0 $286 6.283185307179586232 $185 $287 forward 7 unknown #
face $-1 $288 $289 $30 $-1 $290 reversed single #
loop $-1 $-1 $291 $113 #
plane-surface $-1 68.77732007585544238 21.57387641139813894 120.9189247254447253 0 1 0 0.6293203988644634483 0 0.7771459551288114609 forward_v I I I I #
coedge $-1 $292 $293 $294 $295 reversed $114 $-1 #
coedge $-1 $192 $116 $296 $297 reversed $69 $-1 #
coedge $-1 $116 $191 $292 $298 reversed $69 $-1 #
coedge $-1 $294 $299 $116 $194 forward $300 $-1 #
edge $-1 $301 -26.14236202695462907 $302 -21.61352983133535588 $193 $303 forward 7 unknown #
loop $-1 $-1 $200 $117 #
plane-surface $-1 17.98611080979491561 25.21775202675432581 58.19700611539651902 0.6293203988644634483 0 0.7771459551288114609 0.7771459551288114609 0 -0.6293203988644634483 forward_v I I I I #
loop $-1 $-1 $304 $71 #
coedge $-1 $198 $198 $199 $305 reversed $118 $-1 #
coedge $-1 $199 $199 $198 $305 forward $120 $-1 #
coedge $-1 $200 $200 $121 $201 forward $195 $-1 #
edge $-1 $306 0 $306 6.283185307179586232 $200 $307 forward 7 unknown #
loop $-1 $-1 $207 $122 #
plane-surface $-1 17.98611080979491561 25.21775202675432581 58.19700611539651902 0.6293203988644634483 0 0.7771459551288114609 0.7771459551288114609 0 -0.6293203988644634483 forward_v I I I I #
loop $-1 $-1 $308 $74 #
coedge $-1 $205 $205 $206 $309 reversed $123 $-1 #
coedge $-1 $206 $206 $205 $309 forward $125 $-1 #
coedge $-1 $207 $207 $126 $208 forward $202 $-1 #
edge $-1 $310 0 $310 6.283185307179586232 $207 $311 forward 7 unknown #
face $-1 $312 $313 $22 $-1 $314 reversed single #
loop $-1 $-1 $315 $127 #
plane-surface $-1 0 19.67884765312163609 5.536586462885313864 1 0 0 0 0 -1 forward_v I I I I #
coedge $-1 $316 $220 $317 $318 forward $128 $-1 #
coedge $-1 $319 $130 $316 $320 forward $78 $-1 #
coedge $-1 $130 $319 $321 $322 forward $78 $-1 #
coedge $-1 $223 $222 $130 $216 reversed $224 $-1 #
edge $-1 $323 -19.67884765312163609 $324 19.67884765312163609 $215 $325 forward 7 unknown #
coedge $-1 $132 $131 $326 $327 forward $45 $-1 #
coedge $-1 $328 $329 $131 $219 reversed $313 $-1 #
edge $-1 $226 -40.35401470992156447 $330 40.35401470992156447 $218 $331 forward 7 unknown #
coedge $-1 $212 $332 $132 $221 reversed $128 $-1 #
edge $-1 $333 -40.35401470992156447 $225 40.35401470992156447 $220 $334 forward 7 unknown #
coedge $-1 $215 $133 $332 $335 forward $224 $-1 #
coedge $-1 $133 $215 $328 $336 reversed $224 $-1 #
loop $-1 $-1 $222 $312 #
vertex $-1 $134 $337 #
vertex $-1 $134 $338 #
straight-curve $-1 80.70802941984312895 19.67884765312163609 11.07317292577062773 0 1 0 I I #
face $-1 $339 $340 $23 $-1 $341 reversed single #
loop $-1 $-1 $342 $135 #
plane-surface $-1 40.35401470992156447 -2.09405031044975587 0.7236215974299859965 0 0 1 1 0 0 forward_v I I I I #
coedge $-1 $141 $343 $344 $345 forward $136 $-1 #
coedge $-1 $346 $138 $347 $348 reversed $82 $-1 #
coedge $-1 $138 $346 $238 $349 reversed $82 $-1 #
edge $-1 $239 1.812964865455328312 $350 4.812964865455327867 $138 $351 forward 7 unknown #
coedge $-1 $140 $139 $352 $353 forward $48 $-1 #
coedge $-1 $344 $354 $139 $237 forward $355 $-1 #
edge $-1 $356 -4.812964865455327867 $240 -1.812964865455328312 $236 $357 forward 7 unknown #
coedge $-1 $343 $141 $233 $349 forward $136 $-1 #
vertex $-1 $234 $358 #
vertex $-1 $345 $359 #
straight-curve $-1 40.35401470992156447 0 3.723621597429985552 1 0 0 I I #
face $-1 $-1 $360 $24 $-1 $361 reversed single #
loop $-1 $-1 $149 $143 #
plane-surface $-1 40.35401470992156447 19.67884765312163609 11.07317292577062773 0 0 1 1 0 0 forward_v I I I I #
coedge $-1 $362 $363 $364 $365 reversed $144 $-1 #
coedge $-1 $366 $146 $148 $252 forward $86 $-1 #
coedge $-1 $146 $366 $362 $367 forward $86 $-1 #
coedge $-1 $364 $149 $146 $249 forward $243 $-1 #
edge $-1 $255 -6.570600797381541014 $368 -0.1252418857814063813 $248 $369 forward 7 unknown #
coedge $-1 $370 $371 $147 $251 forward $360 $-1 #
edge $-1 $372 -24.15216019485268362 $254 -21.10246115285394097 $250 $373 forward 7 unknown #
edge $-1 $255 -3.924229373600716109 $372 1.137403304338158105e-14 $148 $374 forward 7 unknown #
coedge $-1 $149 $364 $370 $375 forward $243 $-1 #
vertex $-1 $251 $376 #
vertex $-1 $150 $377 #
straight-curve $-1 -11.18395253937094225 9.760325514158619598 11.07317292577062773 1 0 0 I I #
coedge $-1 $257 $257 $-1 $378 reversed $153 $-1 #
edge $-1 $379 0 $379 6.283185307179586232 $154 $380 forward 7 unknown #
vertex $-1 $157 $381 #
ellipse-curve $-1 1.234798761930740341 11.60185663175865756 9.548323404771259959 -0.7771459697322561366 0 0.629320380830711068 0.314660190415355534 0 0.3885729848661280683 1 I I #
coedge $-1 $261 $261 $-1 $382 reversed $160 $-1 #
edge $-1 $383 0 $383 6.283185307179586232 $161 $384 forward 7 unknown #
vertex $-1 $164 $385 #
ellipse-curve $-1 1.234798761930740341 14.36415330815871627 9.548323404771259959 -0.7771459697322561366 0 0.629320380830711068 0.314660190415355534 0 0.3885729848661280683 1 I I #
face $-1 $-1 $386 $27 $-1 $387 reversed single #
loop $-1 $-1 $171 $165 #
plane-surface $-1 40.35401470992156447 19.67884765312163609 11.07317292577062773 0 0 1 1 0 0 forward_v I I I I #
coedge $-1 $388 $389 $390 $391 reversed $166 $-1 #
coedge $-1 $392 $168 $170 $275 forward $100 $-1 #
coedge $-1 $168 $392 $388 $393 forward $100 $-1 #
coedge $-1 $390 $171 $168 $272 forward $266 $-1 #
edge $-1 $278 2.219292196231158698 $394 8.664651107831296883 $271 $395 forward 7 unknown #
coedge $-1 $396 $397 $169 $274 forward $386 $-1 #
edge $-1 $398 -24.15216019485268362 $277 -21.10246115285394097 $273 $399 forward 7 unknown #
edge $-1 $278 -3.924229373600716109 $398 1.137403304338158105e-14 $170 $400 forward 7 unknown #
coedge $-1 $171 $390 $396 $401 forward $266 $-1 #
vertex $-1 $172 $402 #
vertex $-1 $172 $403 #
straight-curve $-1 -11.18395253937094225 27.34011150138402257 11.07317292577062773 1 0 0 I I #
coedge $-1 $280 $280 $-1 $404 reversed $175 $-1 #
edge $-1 $405 0 $405 6.283185307179586232 $176 $406 forward 7 unknown #
vertex $-1 $179 $407 #
ellipse-curve $-1 1.234798761930740341 29.18164261898406409 9.548323404771259959 -0.7771459697322561366 0 0.629320380830711068 0.314660190415355534 0 0.3885729848661280683 1 I I #
coedge $-1 $284 $284 $-1 $408 reversed $182 $-1 #
edge $-1 $409 0 $409 6.283185307179586232 $183 $410 forward 7 unknown #
vertex $-1 $186 $411 #
ellipse-curve $-1 1.234798761930740341 31.9439392953841228 9.548323404771259959 -0.7771459697322561366 0 0.629320380830711068 0.314660190415355534 0 0.3885729848661280683 1 I I #
face $-1 $-1 $300 $30 $-1 $412 forward single #
loop $-1 $-1 $413 $187 #
plane-surface $-1 80.70802941984312895 19.67884765312163609 5.536586462885313864 -1 0 0 0 0 1 forward_v I I I I #
coedge $-1 $414 $415 $416 $417 reversed $188 $-1 #
coedge $-1 $418 $190 $192 $298 forward $114 $-1 #
coedge $-1 $190 $418 $414 $419 forward $114 $-1 #
coedge $-1 $416 $193 $190 $295 forward $300 $-1 #
edge $-1 $302 -6.413327802172531733 $420 0.874423428539842007 $294 $421 forward 7 unknown #
coedge $-1 $422 $423 $191 $297 forward $289 $-1 #
edge $-1 $424 -55.82195874482903264 $301 -52.15458266839439005 $296 $425 forward 7 unknown #
edge $-1 $302 74.88051122235265211 $424 80.70802941984314316 $192 $426 forward 7 unknown #
coedge $-1 $193 $416 $422 $427 forward $300 $-1 #
loop $-1 $-1 $416 $288 #
vertex $-1 $297 $428 #
vertex $-1 $194 $429 #
straight-curve $-1 54.56566739288849988 28.86162764211051268 11.07317292577062418 -1 0 0 I I #
coedge $-1 $304 $304 $-1 $430 reversed $197 $-1 #
edge $-1 $431 0 $431 6.283185307179586232 $198 $432 forward 7 unknown #
vertex $-1 $201 $433 #
ellipse-curve $-1 78.44361332203348525 23.65609104874452839 9.239484887553315318 0.6293203988644634483 0 0.7771459551288114609 0.3885729775644057304 0 -0.3146601994322317242 1 I I #
coedge $-1 $308 $308 $-1 $434 reversed $204 $-1 #
edge $-1 $435 0 $435 6.283185307179586232 $205 $436 forward 7 unknown #
vertex $-1 $208 $437 #
ellipse-curve $-1 78.44361332203348525 26.77941300476411612 9.239484887553315318 0.6293203988644634483 0 0.7771459551288114609 0.3885729775644057304 0 -0.3146601994322317242 1 I I #
face $-1 $-1 $224 $22 $-1 $438 reversed single #
loop $-1 $-1 $328 $209 #
plane-surface $-1 40.35401470992156447 39.35769530624327217 5.536586462885313864 0 -1 0 0 0 -1 forward_v I I I I #
coedge $-1 $439 $326 $329 $440 forward $210 $-1 #
coedge $-1 $332 $212 $213 $320 reversed $128 $-1 #
coedge $-1 $326 $439 $212 $318 reversed $210 $-1 #
edge $-1 $333 -5.536586462885313864 $441 5.536586462885313864 $317 $442 forward 7 unknown #
coedge $-1 $214 $213 $439 $443 forward $78 $-1 #
edge $-1 $324 -40.35401470992156447 $441 40.35401470992156447 $316 $444 forward 7 unknown #
coedge $-1 $329 $328 $214 $322 reversed $313 $-1 #
edge $-1 $445 -40.35401470992156447 $323 40.35401470992156447 $321 $446 forward 7 unknown #
vertex $-1 $216 $447 #
vertex $-1 $335 $448 #
straight-curve $-1 80.70802941984312895 19.67884765312163609 0 0 -1 0 I I #
coedge $-1 $315 $317 $217 $327 reversed $210 $-1 #
edge $-1 $330 -19.67884765312163609 $333 19.67884765312163609 $326 $449 forward 7 unknown #
coedge $-1 $321 $218 $223 $336 forward $313 $-1 #
coedge $-1 $218 $321 $315 $440 reversed $313 $-1 #
vertex $-1 $219 $450 #
straight-curve $-1 40.35401470992156447 39.35769530624327217 11.07317292577062773 -1 0 0 I I #
coedge $-1 $220 $316 $222 $335 reversed $128 $-1 #
vertex $-1 $327 $451 #
straight-curve $-1 40.35401470992156447 0 11.07317292577062773 1 0 0 I I #
edge $-1 $225 -5.536586462885313864 $324 5.536586462885313864 $222 $452 forward 7 unknown #
edge $-1 $226 -5.536586462885313864 $323 5.536586462885313864 $223 $453 forward 7 unknown #
point $-1 80.70802941984312895 0 11.07317292577062773 #
point $-1 80.70802941984312895 39.35769530624327217 11.07317292577062773 #
face $-1 $-1 $355 $23 $-1 $454 reversed single #
loop $-1 $-1 $455 $228 #
plane-surface $-1 40.35401470992156447 -4.188100620899511739 2.223621597429985552 0 1 0 0 0 1 forward_v I I I I #
coedge $-1 $456 $352 $354 $457 forward $229 $-1 #
coedge $-1 $231 $238 $458 $459 forward $136 $-1 #
coedge $-1 $460 $236 $231 $345 reversed $355 $-1 #
edge $-1 $461 -2.09405031044975587 $240 2.09405031044975587 $344 $462 forward 7 unknown #
coedge $-1 $233 $232 $455 $463 reversed $82 $-1 #
coedge $-1 $352 $456 $232 $348 forward $229 $-1 #
edge $-1 $464 -2.09405031044975587 $350 2.09405031044975587 $232 $465 forward 7 unknown #
edge $-1 $239 -2.09405031044975587 $466 2.09405031044975587 $233 $467 forward 7 unknown #
vertex $-1 $234 $468 #
straight-curve $-1 0 0 5.536586462885313864 0 0 -1 I I #
coedge $-1 $342 $347 $235 $353 reversed $229 $-1 #
edge $-1 $356 -40.35401470992156447 $350 40.35401470992156447 $352 $469 forward 7 unknown #
coedge $-1 $236 $460 $342 $457 reversed $355 $-1 #
loop $-1 $-1 $236 $339 #
vertex $-1 $237 $470 #
straight-curve $-1 80.70802941984312895 0 5.536586462885313864 0 0 1 I I #
point $-1 0 0 3.723621597429985552 #
point $-1 80.70802941984312895 0 3.723621597429985552 #
loop $-1 $-1 $250 $242 #
plane-surface $-1 0 19.67884765312163609 5.536586462885313864 1 0 0 0 0 -1 forward_v I I I I #
coedge $-1 $363 $245 $247 $367 reversed $144 $-1 #
coedge $-1 $245 $362 $471 $472 reversed $144 $-1 #
coedge $-1 $253 $248 $245 $365 forward $243 $-1 #
edge $-1 $368 -13.65355006323241582 $473 -11.18395253937094225 $364 $474 forward 7 unknown #
coedge $-1 $247 $246 $371 $475 reversed $86 $-1 #
edge $-1 $476 -1.137403304338158105e-14 $368 3.924229373600716109 $362 $477 forward 7 unknown #
vertex $-1 $249 $478 #
straight-curve $-1 2.469597523861473576 16.33092631154016061 11.07317292577062773 0 1 0 I I #
coedge $-1 $471 $250 $253 $375 reversed $360 $-1 #
coedge $-1 $250 $471 $366 $475 forward $360 $-1 #
vertex $-1 $251 $479 #
straight-curve $-1 0 9.760325514158619598 32.1756340786245687 0 0 1 I I #
straight-curve $-1 7.105427357601001859e-15 9.760325514158619598 8.023473883771895743 -0.629320380830711068 0 -0.7771459697322561366 I I #
edge $-1 $473 3.473163227362881855 $254 9.918522138963016488 $370 $480 forward 7 unknown #
point $-1 0 9.760325514158619598 11.07317292577062773 #
point $-1 2.469597523861473576 9.760325514158619598 11.07317292577062773 #
edge $-1 $481 1 $481 0 $257 $-1 forward 7 unknown #
vertex $-1 $258 $482 #
ellipse-curve $-1 2.58484885690690902 11.60185663175865756 8.455074423239961945 -0.7771459697322561366 0 0.629320380830711068 0.314660190415355534 0 0.3885729848661280683 1 I I #
point $-1 1.549458952346093099 11.60185663175865756 9.936896389637391636 #
edge $-1 $483 1 $483 0 $261 $-1 forward 7 unknown #
vertex $-1 $262 $484 #
ellipse-curve $-1 2.58484885690690902 14.36415330815871627 8.455074423239961945 -0.7771459697322561366 0 0.629320380830711068 0.314660190415355534 0 0.3885729848661280683 1 I I #
point $-1 1.549458952346093099 14.36415330815871627 9.936896389637391636 #
loop $-1 $-1 $273 $265 #
plane-surface $-1 0 19.67884765312163609 5.536586462885313864 1 0 0 0 0 -1 forward_v I I I I #
coedge $-1 $389 $268 $270 $393 reversed $166 $-1 #
coedge $-1 $268 $388 $485 $486 reversed $166 $-1 #
coedge $-1 $276 $271 $268 $391 forward $266 $-1 #
edge $-1 $394 -13.65355006323241582 $487 -11.18395253937094225 $390 $488 forward 7 unknown #
coedge $-1 $270 $269 $397 $489 reversed $100 $-1 #
edge $-1 $490 -1.137403304338158105e-14 $394 3.924229373600716109 $388 $491 forward 7 unknown #
vertex $-1 $272 $492 #
straight-curve $-1 2.469597523861473576 25.12081930515286388 11.07317292577062773 0 1 0 I I #
coedge $-1 $485 $273 $276 $401 reversed $386 $-1 #
coedge $-1 $273 $485 $392 $489 forward $386 $-1 #
vertex $-1 $274 $493 #
straight-curve $-1 0 27.34011150138402257 32.1756340786245687 0 0 1 I I #
straight-curve $-1 7.105427357601001859e-15 27.34011150138402257 8.023473883771895743 -0.629320380830711068 0 -0.7771459697322561366 I I #
edge $-1 $487 -14.10662275986252467 $277 -7.661263848262386489 $396 $494 forward 7 unknown #
point $-1 0 27.34011150138402257 11.07317292577062773 #
point $-1 2.469597523861473576 27.34011150138402257 11.07317292577062773 #
edge $-1 $495 1 $495 0 $280 $-1 forward 7 unknown #
vertex $-1 $281 $496 #
ellipse-curve $-1 2.58484885690690902 29.18164261898406409 8.455074423239961945 -0.7771459697322561366 0 0.629320380830711068 0.314660190415355534 0 0.3885729848661280683 1 I I #
point $-1 1.549458952346093099 29.18164261898406409 9.936896389637391636 #
edge $-1 $497 1 $497 0 $284 $-1 forward 7 unknown #
vertex $-1 $285 $498 #
ellipse-curve $-1 2.58484885690690902 31.9439392953841228 8.455074423239961945 -0.7771459697322561366 0 0.629320380830711068 0.314660190415355534 0 0.3885729848661280683 1 I I #
point $-1 1.549458952346093099 31.9439392953841228 9.936896389637391636 #
plane-surface $-1 40.35401470992156447 19.67884765312163609 11.07317292577062773 0 0 1 1 0 0 forward_v I I I I #
coedge $-1 $423 $422 $415 $499 forward $289 $-1 #
coedge $-1 $415 $291 $293 $419 reversed $188 $-1 #
coedge $-1 $291 $414 $413 $499 reversed $188 $-1 #
coedge $-1 $299 $294 $291 $417 forward $300 $-1 #
edge $-1 $420 21.61352983133535588 $500 26.14236202695462907 $416 $501 forward 7 unknown #
coedge $-1 $293 $292 $423 $502 reversed $114 $-1 #
edge $-1 $503 -80.70802941984314316 $420 -74.88051122235265211 $414 $504 forward 7 unknown #
vertex $-1 $295 $505 #
straight-curve $-1 76.17919722422385576 22.44829983993798095 11.07317292577061707 0 -1 0 I I #
coedge $-1 $413 $296 $299 $427 reversed $289 $-1 #
coedge $-1 $296 $413 $418 $502 forward $289 $-1 #
vertex $-1 $297 $506 #
straight-curve $-1 80.70802941984312895 28.86162764211051268 63.22775559416501778 0 0 1 I I #
straight-curve $-1 17.98611080979491561 28.86162764211051268 58.19700611539651902 0.7771459551288114609 0 -0.6293203988644634483 I I #
edge $-1 $500 1.895028758276502856 $301 9.182779988988876596 $422 $507 forward 7 unknown #
point $-1 80.70802941984312895 28.86162764211051268 11.07317292577062773 #
point $-1 76.17919722422385576 28.86162764211051268 11.07317292577061707 #
edge $-1 $508 1 $508 0 $304 $-1 forward 7 unknown #
vertex $-1 $305 $509 #
ellipse-curve $-1 77.81429292316900614 23.65609104874452839 8.462338932424492199 0.6293203988644634483 0 0.7771459551288114609 0.3885729775644057304 0 -0.3146601994322317242 1 I I #
point $-1 78.83218629959787904 23.65609104874452839 8.924824688121072214 #
edge $-1 $510 1 $510 0 $308 $-1 forward 7 unknown #
vertex $-1 $309 $511 #
ellipse-curve $-1 77.81429292316900614 26.77941300476411612 8.462338932424492199 0.6293203988644634483 0 0.7771459551288114609 0.3885729775644057304 0 -0.3146601994322317242 1 I I #
point $-1 78.83218629959787904 26.77941300476411612 8.924824688121072214 #
plane-surface $-1 80.70802941984312895 19.67884765312163609 5.536586462885313864 -1 0 0 0 0 1 forward_v I I I I #
coedge $-1 $317 $315 $319 $443 reversed $210 $-1 #
edge $-1 $330 -5.536586462885313864 $445 5.536586462885313864 $329 $512 forward 7 unknown #
vertex $-1 $443 $513 #
straight-curve $-1 0 0 5.536586462885313864 0 0 -1 I I #
edge $-1 $441 -19.67884765312163609 $445 19.67884765312163609 $439 $514 forward 7 unknown #
straight-curve $-1 40.35401470992156447 0 0 -1 0 0 I I #
vertex $-1 $322 $515 #
straight-curve $-1 40.35401470992156447 39.35769530624327217 0 1 0 0 I I #
point $-1 80.70802941984312895 39.35769530624327217 0 #
point $-1 80.70802941984312895 0 0 #
straight-curve $-1 0 19.67884765312163609 11.07317292577062773 0 -1 0 I I #
point $-1 0 39.35769530624327217 11.07317292577062773 #
point $-1 0 0 11.07317292577062773 #
straight-curve $-1 80.70802941984312895 0 5.536586462885313864 0 0 -1 I I #
straight-curve $-1 80.70802941984312895 39.35769530624327217 5.536586462885313864 0 0 -1 I I #
plane-surface $-1 80.70802941984312895 19.67884765312163609 5.536586462885313864 -1 0 0 0 0 1 forward_v I I I I #
coedge $-1 $516 $458 $346 $463 forward $340 $-1 #
coedge $-1 $347 $342 $516 $517 forward $229 $-1 #
edge $-1 $356 -2.09405031044975587 $518 2.09405031044975587 $354 $519 forward 7 unknown #
coedge $-1 $455 $520 $343 $459 reversed $340 $-1 #
edge $-1 $466 -40.35401470992156447 $461 40.35401470992156447 $458 $521 forward 7 unknown #
coedge $-1 $354 $344 $520 $522 forward $355 $-1 #
vertex $-1 $345 $523 #
straight-curve $-1 80.70802941984312895 -2.09405031044975587 3.723621597429985552 0 1 0 I I #
edge $-1 $466 -1.5 $464 1.499999999999999556 $346 $524 forward 7 unknown #
vertex $-1 $348 $525 #
straight-curve $-1 0 -2.09405031044975587 0.7236215974299859965 0 1 0 I I #
vertex $-1 $349 $526 #
straight-curve $-1 0 -2.09405031044975587 3.723621597429985552 0 -1 0 I I #
point $-1 0 0 0.7236215974299859965 #
straight-curve $-1 40.35401470992156447 0 0.7236215974299859965 -1 0 0 I I #
point $-1 80.70802941984312895 0 0.7236215974299859965 #
coedge $-1 $371 $370 $363 $472 forward $360 $-1 #
edge $-1 $473 21.10246115285394097 $476 24.15216019485268362 $471 $527 forward 7 unknown #
vertex $-1 $375 $528 #
straight-curve $-1 -11.18395253937094225 16.20568442575875423 11.07317292577062773 -1 0 0 I I #
edge $-1 $476 0.1252418857814063813 $372 6.570600797381541014 $371 $529 forward 7 unknown #
vertex $-1 $475 $530 #
straight-curve $-1 7.105427357601001859e-15 16.20568442575875423 8.023473883771895743 0.629320380830711068 0 0.7771459697322561366 I I #
point $-1 2.469597523861473576 16.20568442575875423 11.07317292577062773 #
point $-1 0 9.760325514158619598 8.023473883771886861 #
straight-curve $-1 0 19.67884765312163609 11.07317292577062773 0 -1 0 I I #
vertex $-1 $378 $531 #
point $-1 2.899509047322268884 11.60185663175865756 8.843647408106090069 #
vertex $-1 $382 $532 #
point $-1 2.899509047322268884 14.36415330815871627 8.843647408106090069 #
coedge $-1 $397 $396 $389 $486 forward $386 $-1 #
edge $-1 $487 21.10246115285394097 $490 24.15216019485268362 $485 $533 forward 7 unknown #
vertex $-1 $401 $534 #
straight-curve $-1 -11.18395253937094225 33.78547041298416076 11.07317292577062773 -1 0 0 I I #
edge $-1 $490 -8.664651107831296883 $398 -2.219292196231158698 $397 $535 forward 7 unknown #
vertex $-1 $489 $536 #
straight-curve $-1 7.105427357601001859e-15 33.78547041298416076 8.023473883771895743 0.629320380830711068 0 0.7771459697322561366 I I #
point $-1 2.469597523861473576 33.78547041298416076 11.07317292577062773 #
point $-1 0 27.34011150138402257 8.023473883771886861 #
straight-curve $-1 0 19.67884765312163609 11.07317292577062773 0 -1 0 I I #
vertex $-1 $404 $537 #
point $-1 2.899509047322268884 29.18164261898406409 8.843647408106090069 #
vertex $-1 $408 $538 #
point $-1 2.899509047322268884 31.9439392953841228 8.843647408106090069 #
edge $-1 $500 52.15458266839439005 $503 55.82195874482903264 $413 $539 forward 7 unknown #
vertex $-1 $427 $540 #
straight-curve $-1 54.56566739288849988 21.57387641139813894 11.07317292577062418 1 0 0 I I #
edge $-1 $503 -0.874423428539842007 $424 6.413327802172531733 $423 $541 forward 7 unknown #
vertex $-1 $502 $542 #
straight-curve $-1 17.98611080979491561 21.57387641139813894 58.19700611539651902 -0.7771459551288114609 0 0.6293203988644634483 I I #
point $-1 76.17919722422385576 21.57387641139813894 11.07317292577061707 #
point $-1 80.70802941984312895 28.86162764211051268 7.405796849335988696 #
straight-curve $-1 80.70802941984312895 19.67884765312163609 11.07317292577062773 0 1 0 I I #
vertex $-1 $430 $543 #
point $-1 78.20286590073342836 23.65609104874452839 8.14767873299226153 #
vertex $-1 $434 $544 #
point $-1 78.20286590073342836 26.77941300476411612 8.14767873299226153 #
straight-curve $-1 0 39.35769530624327217 5.536586462885313864 0 0 -1 I I #
point $-1 0 0 0 #
straight-curve $-1 0 19.67884765312163609 0 0 1 0 I I #
point $-1 0 39.35769530624327217 0 #
coedge $-1 $520 $455 $456 $517 reversed $340 $-1 #
edge $-1 $518 -40.35401470992156447 $464 40.35401470992156447 $516 $545 forward 7 unknown #
vertex $-1 $522 $546 #
straight-curve $-1 80.70802941984312895 -2.09405031044975587 0.7236215974299859965 0 -1 0 I I #
coedge $-1 $458 $516 $460 $522 reversed $340 $-1 #
straight-curve $-1 40.35401470992156447 -4.188100620899511739 3.723621597429985552 1 0 0 I I #
edge $-1 $461 -1.5 $518 1.499999999999999556 $460 $547 forward 7 unknown #
point $-1 80.70802941984312895 -4.188100620899511739 3.723621597429985552 #
straight-curve $-1 0 -4.188100620899511739 2.223621597429985552 0 0 -1 I I #
point $-1 0 -4.188100620899511739 0.7236215974299859965 #
point $-1 0 -4.188100620899511739 3.723621597429985552 #
straight-curve $-1 0 16.20568442575875423 32.1756340786245687 0 0 -1 I I #
point $-1 0 16.20568442575875423 11.07317292577062773 #
straight-curve $-1 0 16.33092631154016061 8.023473883771879755 0 -1 0 I I #
point $-1 0 16.20568442575875423 8.023473883771886861 #
point $-1 2.973421841773038921 11.60185663175865756 8.140414232824605634 #
point $-1 2.973421841773038921 14.36415330815871627 8.140414232824605634 #
straight-curve $-1 0 33.78547041298416076 32.1756340786245687 0 0 -1 I I #
point $-1 0 33.78547041298416076 11.07317292577062773 #
straight-curve $-1 0 25.12081930515286388 8.023473883771879755 0 -1 0 I I #
point $-1 0 33.78547041298416076 8.023473883771886861 #
point $-1 2.973421841773038921 29.18164261898406409 8.140414232824605634 #
point $-1 2.973421841773038921 31.9439392953841228 8.140414232824605634 #
straight-curve $-1 80.70802941984312895 21.57387641139813894 63.22775559416501778 0 0 -1 I I #
point $-1 80.70802941984312895 21.57387641139813894 11.07317292577062773 #
straight-curve $-1 80.70802941984314316 22.44829983993798095 7.405796849335985144 0 1 0 I I #
point $-1 80.70802941984312895 21.57387641139813894 7.405796849335988696 #
point $-1 77.49963272373679501 23.65609104874452839 8.073765954860087746 #
point $-1 77.49963272373679501 26.77941300476411612 8.073765954860087746 #
straight-curve $-1 40.35401470992156447 -4.188100620899511739 0.7236215974299859965 -1 0 0 I I #
point $-1 80.70802941984312895 -4.188100620899511739 0.7236215974299859965 #
straight-curve $-1 80.70802941984312895 -4.188100620899511739 2.223621597429985552 0 0 -1 I I #
End-of-ACIS-data 