300 0 8 0           
7 Unknown 11 ACIS 3.0 NT 24 Fri Oct 30 19:23:41 1998 
-1 9.9999999999999995e-007 1e-010 
body $8 $9 $-1 $10 #
body $11 $12 $-1 $13 #
body $14 $15 $-1 $16 #
body $17 $18 $-1 $19 #
body $20 $21 $-1 $22 #
body $23 $24 $-1 $25 #
body $26 $27 $-1 $28 #
body $29 $30 $-1 $31 #
display_attribute-st-attrib $-1 $32 $-1 $0 1 #
lump $-1 $-1 $33 $0 #
transform $-1 1 0 0 0 1 0 0 0 1 68.843653675954471 31.4629805147909 8.3398454927584567 1 rotate no_reflect no_shear #
display_attribute-st-attrib $-1 $34 $-1 $1 7 #
lump $-1 $-1 $35 $1 #
transform $-1 1 0 0 0 1 0 0 0 1 68.843653675954471 31.4629805147909 8.3398454927584567 1 rotate no_reflect no_shear #
display_attribute-st-attrib $-1 $36 $-1 $2 6 #
lump $-1 $-1 $37 $2 #
transform $-1 1 0 0 0 1 0 0 0 1 68.843653675954471 31.4629805147909 8.3398454927584567 1 rotate no_reflect no_shear #
display_attribute-st-attrib $-1 $38 $-1 $3 5 #
lump $-1 $-1 $39 $3 #
transform $-1 1 0 0 0 1 0 0 0 1 68.843653675954471 31.4629805147909 8.3398454927584567 1 rotate no_reflect no_shear #
display_attribute-st-attrib $-1 $40 $-1 $4 4 #
lump $-1 $-1 $41 $4 #
transform $-1 1 0 0 0 1 0 0 0 1 68.843653675954471 31.4629805147909 8.3398454927584567 1 rotate no_reflect no_shear #
display_attribute-st-attrib $-1 $42 $-1 $5 3 #
lump $-1 $-1 $43 $5 #
transform $-1 1 0 0 0 1 0 0 0 1 68.843653675954471 31.4629805147909 8.3398454927584567 1 rotate no_reflect no_shear #
display_attribute-st-attrib $-1 $44 $-1 $6 2 #
lump $-1 $-1 $45 $6 #
transform $-1 1 0 0 0 1 0 0 0 1 68.843653675954471 31.4629805147909 8.3398454927584567 1 rotate no_reflect no_shear #
display_attribute-st-attrib $-1 $46 $-1 $7 1 #
lump $-1 $-1 $47 $7 #
transform $-1 1 0 0 0 1 0 0 0 1 68.843653675954471 31.4629805147909 8.3398454927584567 1 rotate no_reflect no_shear #
id_attribute-st-attrib $-1 $-1 $8 $0 3599 #
shell $-1 $-1 $-1 $48 $-1 $9 #
id_attribute-st-attrib $-1 $-1 $11 $1 3607 #
shell $-1 $-1 $-1 $49 $-1 $12 #
id_attribute-st-attrib $-1 $-1 $14 $2 3619 #
shell $-1 $-1 $-1 $50 $-1 $15 #
id_attribute-st-attrib $-1 $-1 $17 $3 3627 #
shell $-1 $-1 $-1 $51 $-1 $18 #
id_attribute-st-attrib $-1 $-1 $20 $4 3636 #
shell $-1 $-1 $-1 $52 $-1 $21 #
id_attribute-st-attrib $-1 $-1 $23 $5 3651 #
shell $-1 $-1 $-1 $53 $-1 $24 #
id_attribute-st-attrib $-1 $-1 $26 $6 3662 #
shell $-1 $-1 $-1 $54 $-1 $27 #
id_attribute-st-attrib $-1 $-1 $29 $7 3674 #
shell $-1 $-1 $-1 $55 $-1 $30 #
face $-1 $56 $57 $33 $-1 $58 forward single #
face $-1 $59 $60 $35 $-1 $61 reversed single #
face $-1 $62 $63 $37 $-1 $64 reversed single #
face $-1 $65 $66 $39 $-1 $67 forward single #
face $-1 $68 $69 $41 $-1 $70 forward single #
face $-1 $71 $72 $43 $-1 $73 reversed single #
face $-1 $74 $75 $45 $-1 $76 forward single #
face $-1 $77 $78 $47 $-1 $79 forward single #
face $-1 $80 $81 $33 $-1 $82 reversed single #
loop $-1 $-1 $83 $48 #
plane-surface $-1 0 0 8.3398454927584567 0 0 1 1 0 0 forward_v I I I I #
face $-1 $84 $85 $35 $-1 $86 reversed single #
loop $-1 $-1 $87 $49 #
plane-surface $-1 0 -27.015799328851092 5.2189764030308154 0 0 1 1 0 0 forward_v I I I I #
face $-1 $88 $89 $37 $-1 $90 reversed single #
loop $-1 $-1 $91 $50 #
plane-surface $-1 75.639260116539901 12.98770484455326 194.9112492536342 0 -1 0 -0.73135370988377701 0 -0.68199835119979291 forward_v I I I I #
face $-1 $92 $93 $39 $-1 $94 forward single #
loop $-1 $95 $96 $51 #
cone-surface $-1 64.536894169052744 7.6085739842018825 3.8001583446730645 -0.73135370988377701 0 -0.68199835119979291 0.34099917559989645 0 -0.36567685494188851 1 I I 0 1 forward I I I I #
face $-1 $97 $98 $41 $-1 $99 forward single #
loop $-1 $100 $101 $52 #
cone-surface $-1 64.536894169052744 10.836052500412713 3.8001583446730645 -0.73135370988377701 0 -0.68199835119979291 0.34099917559989645 0 -0.36567685494188851 1 I I 0 1 forward I I I I #
face $-1 $102 $103 $43 $-1 $104 reversed single #
loop $-1 $-1 $105 $53 #
plane-surface $-1 -68.843653675954457 -19.344281911029704 0.042533636695750943 -0.87461971476443456 0 0.48480960649040278 0.48480960649040278 0 0.87461971476443456 forward_v I I I I #
face $-1 $106 $107 $45 $-1 $108 forward single #
loop $-1 $109 $110 $54 #
cone-surface $-1 -65.982554787740767 -20.726140296121812 3.8799664173494413 0.87461971476443456 0 -0.48480960649040278 0.24240480324520139 0 0.43730985738221728 1 I I 0 1 forward I I I I #
face $-1 $111 $112 $47 $-1 $113 forward single #
loop $-1 $114 $115 $55 #
cone-surface $-1 -65.982554787740767 -17.962423525937602 3.8799664173494413 0.87461971476443456 0 -0.48480960649040278 0.24240480324520139 0 0.43730985738221728 1 I I 0 1 forward I I I I #
face $-1 $116 $117 $33 $-1 $118 reversed single #
loop $-1 $-1 $119 $56 #
plane-surface $-1 0 0 -8.3398454927584567 0 0 1 1 0 0 forward_v I I I I #
coedge $-1 $120 $121 $122 $123 forward $57 $-1 #
face $-1 $124 $125 $35 $-1 $126 reversed single #
loop $-1 $-1 $127 $59 #
plane-surface $-1 0 -22.568618142911284 6.7794109478946361 0 -1 0 0 0 -1 forward_v I I I I #
coedge $-1 $128 $129 $130 $131 reversed $60 $-1 #
face $-1 $132 $133 $37 $-1 $134 reversed single #
loop $-1 $-1 $135 $62 #
plane-surface $-1 -25.058862919186552 9.222313242307294 101.00873265849317 0.73135370988377701 0 0.68199835119979291 0.68199835119979291 0 -0.73135370988377701 forward_v I I I I #
coedge $-1 $136 $137 $138 $139 reversed $63 $-1 #
face $-1 $-1 $140 $39 $-1 $141 forward single #
loop $-1 $142 $143 $65 #
cone-surface $-1 63.790987933187211 7.6085739842018825 3.1045895437835753 -0.73135370988377701 0 -0.68199835119979291 0.17049958779994823 0 -0.18283842747094425 1 I I -0.70710678118654746 0.70710678118654746 forward I I I I #
loop $-1 $-1 $144 $51 #
coedge $-1 $96 $96 $145 $146 reversed $66 $-1 #
face $-1 $-1 $147 $41 $-1 $148 forward single #
loop $-1 $149 $150 $68 #
cone-surface $-1 63.790987933187211 10.836052500412713 3.1045895437835753 -0.73135370988377701 0 -0.68199835119979291 0.17049958779994823 0 -0.18283842747094425 1 I I -0.70710678118654746 0.70710678118654746 forward I I I I #
loop $-1 $-1 $151 $52 #
coedge $-1 $101 $101 $152 $153 reversed $69 $-1 #
face $-1 $154 $155 $43 $-1 $156 forward single #
loop $-1 $-1 $157 $71 #
plane-surface $-1 -189.26768715876409 -16.119945679148124 66.794662932697861 0 -1 0 0.87461971476443456 0 -0.48480960649040278 forward_v I I I I #
coedge $-1 $158 $159 $160 $161 reversed $72 $-1 #
face $-1 $-1 $162 $45 $-1 $163 forward single #
loop $-1 $164 $165 $74 #
cone-surface $-1 -65.202438417808736 -20.726140296121812 3.4475408683491739 0.87461971476443456 0 -0.48480960649040278 0.12120240162260069 0 0.21865492869110864 1 I I -0.70710678118654746 0.70710678118654746 forward I I I I #
loop $-1 $-1 $166 $54 #
coedge $-1 $110 $110 $167 $168 reversed $75 $-1 #
face $-1 $-1 $169 $47 $-1 $170 forward single #
loop $-1 $171 $172 $77 #
cone-surface $-1 -65.202438417808736 -17.962423525937602 3.4475408683491739 0.87461971476443456 0 -0.48480960649040278 0.12120240162260069 0 0.21865492869110864 1 I I -0.70710678118654746 0.70710678118654746 forward I I I I #
loop $-1 $-1 $173 $55 #
coedge $-1 $115 $115 $174 $175 reversed $78 $-1 #
face $-1 $176 $177 $33 $-1 $178 reversed single #
loop $-1 $-1 $179 $80 #
plane-surface $-1 0 -31.4629805147909 0 0 1 0 0 0 1 forward_v I I I I #
coedge $-1 $180 $181 $182 $183 forward $81 $-1 #
coedge $-1 $184 $83 $185 $186 forward $57 $-1 #
coedge $-1 $83 $184 $187 $188 forward $57 $-1 #
coedge $-1 $189 $190 $83 $123 reversed $191 $-1 #
edge $-1 $192 $193 $122 $194 forward #
face $-1 $195 $196 $35 $-1 $197 reversed single #
loop $-1 $-1 $198 $84 #
plane-surface $-1 -68.843653675954471 0 0 1 0 0 0 0 -1 forward_v I I I I #
coedge $-1 $199 $200 $201 $202 reversed $85 $-1 #
coedge $-1 $203 $87 $204 $205 reversed $60 $-1 #
coedge $-1 $87 $203 $206 $207 forward $60 $-1 #
coedge $-1 $208 $209 $87 $131 forward $210 $-1 #
edge $-1 $211 $212 $130 $213 forward #
face $-1 $214 $215 $37 $-1 $216 reversed single #
loop $-1 $-1 $217 $88 #
plane-surface $-1 75.639260116539901 5.4569216400613278 194.9112492536342 0 1 0 0.73135370988377701 0 0.68199835119979291 forward_v I I I I #
coedge $-1 $218 $219 $220 $221 reversed $89 $-1 #
coedge $-1 $137 $91 $222 $223 reversed $63 $-1 #
coedge $-1 $91 $136 $218 $224 reversed $63 $-1 #
coedge $-1 $220 $225 $91 $139 forward $226 $-1 #
edge $-1 $227 $228 $138 $229 forward #
loop $-1 $-1 $145 $92 #
plane-surface $-1 -25.058862919186552 9.222313242307294 101.00873265849317 0.73135370988377701 0 0.68199835119979291 0.68199835119979291 0 -0.73135370988377701 forward_v I I I I #
loop $-1 $-1 $230 $65 #
coedge $-1 $143 $143 $144 $231 reversed $93 $-1 #
coedge $-1 $144 $144 $143 $231 forward $95 $-1 #
coedge $-1 $145 $145 $96 $146 forward $140 $-1 #
edge $-1 $232 $232 $145 $233 forward #
loop $-1 $-1 $152 $97 #
plane-surface $-1 -25.058862919186552 9.222313242307294 101.00873265849317 0.73135370988377701 0 0.68199835119979291 0.68199835119979291 0 -0.73135370988377701 forward_v I I I I #
loop $-1 $-1 $234 $68 #
coedge $-1 $150 $150 $151 $235 reversed $98 $-1 #
coedge $-1 $151 $151 $150 $235 forward $100 $-1 #
coedge $-1 $152 $152 $101 $153 forward $147 $-1 #
edge $-1 $236 $236 $152 $237 forward #
face $-1 $238 $239 $43 $-1 $240 reversed single #
loop $-1 $-1 $160 $102 #
plane-surface $-1 0 0 8.3398454927584567 0 0 1 1 0 0 forward_v I I I I #
coedge $-1 $241 $242 $243 $244 reversed $103 $-1 #
coedge $-1 $245 $105 $246 $247 reversed $72 $-1 #
coedge $-1 $105 $245 $241 $248 forward $72 $-1 #
coedge $-1 $243 $249 $105 $161 forward $155 $-1 #
edge $-1 $250 $251 $160 $252 forward #
loop $-1 $-1 $167 $106 #
plane-surface $-1 -68.843653675954457 -19.344281911029704 0.042533636695750943 -0.87461971476443456 0 0.48480960649040278 0.48480960649040278 0 0.87461971476443456 forward_v I I I I #
loop $-1 $-1 $253 $74 #
coedge $-1 $165 $165 $166 $254 reversed $107 $-1 #
coedge $-1 $166 $166 $165 $254 forward $109 $-1 #
coedge $-1 $167 $167 $110 $168 forward $162 $-1 #
edge $-1 $255 $255 $167 $256 forward #
loop $-1 $-1 $174 $111 #
plane-surface $-1 -68.843653675954457 -19.344281911029704 0.042533636695750943 -0.87461971476443456 0 0.48480960649040278 0.48480960649040278 0 0.87461971476443456 forward_v I I I I #
loop $-1 $-1 $257 $77 #
coedge $-1 $172 $172 $173 $258 reversed $112 $-1 #
coedge $-1 $173 $173 $172 $258 forward $114 $-1 #
coedge $-1 $174 $174 $115 $175 forward $169 $-1 #
edge $-1 $259 $259 $174 $260 forward #
face $-1 $261 $262 $33 $-1 $263 reversed single #
loop $-1 $-1 $264 $116 #
plane-surface $-1 -68.843653675954471 0 0 1 0 0 0 0 -1 forward_v I I I I #
coedge $-1 $265 $187 $266 $267 forward $117 $-1 #
coedge $-1 $268 $119 $265 $269 forward $81 $-1 #
coedge $-1 $119 $268 $270 $271 forward $81 $-1 #
coedge $-1 $190 $189 $119 $183 reversed $191 $-1 #
edge $-1 $272 $273 $182 $274 forward #
coedge $-1 $121 $120 $275 $276 forward $57 $-1 #
coedge $-1 $277 $278 $120 $186 reversed $262 $-1 #
edge $-1 $193 $279 $185 $280 forward #
coedge $-1 $179 $281 $121 $188 reversed $117 $-1 #
edge $-1 $282 $192 $187 $283 forward #
coedge $-1 $182 $122 $281 $284 forward $191 $-1 #
coedge $-1 $122 $182 $277 $285 reversed $191 $-1 #
loop $-1 $-1 $189 $261 #
vertex $-1 $123 $286 #
vertex $-1 $123 $287 #
straight-curve $-1 68.843653675954471 0 8.3398454927584567 0 1 0 I I #
face $-1 $288 $289 $35 $-1 $290 forward single #
loop $-1 $-1 $204 $124 #
plane-surface $-1 0 -31.4629805147909 0 0 1 0 0 0 1 forward_v I I I I #
coedge $-1 $291 $292 $200 $293 forward $125 $-1 #
coedge $-1 $206 $127 $208 $294 reversed $85 $-1 #
coedge $-1 $127 $206 $198 $293 reversed $85 $-1 #
coedge $-1 $295 $296 $127 $202 forward $289 $-1 #
edge $-1 $297 $298 $201 $299 forward #
coedge $-1 $129 $128 $291 $300 reversed $60 $-1 #
coedge $-1 $301 $302 $128 $205 forward $196 $-1 #
edge $-1 $303 $211 $204 $304 forward #
coedge $-1 $200 $199 $129 $207 reversed $85 $-1 #
edge $-1 $305 $212 $206 $306 forward #
coedge $-1 $307 $130 $199 $294 forward $210 $-1 #
coedge $-1 $130 $307 $301 $308 forward $210 $-1 #
loop $-1 $-1 $208 $288 #
vertex $-1 $205 $309 #
vertex $-1 $131 $310 #
straight-curve $-1 68.843653675954471 -13.507899664425546 5.2189764030308154 0 1 0 I I #
face $-1 $-1 $226 $37 $-1 $311 forward single #
loop $-1 $-1 $312 $132 #
plane-surface $-1 68.843653675954471 0 0 -1 0 0 0 0 1 forward_v I I I I #
coedge $-1 $313 $314 $315 $316 reversed $133 $-1 #
coedge $-1 $317 $135 $137 $224 forward $89 $-1 #
coedge $-1 $135 $317 $313 $318 forward $89 $-1 #
coedge $-1 $315 $138 $135 $221 forward $226 $-1 #
edge $-1 $228 $319 $220 $320 forward #
coedge $-1 $321 $322 $136 $223 forward $215 $-1 #
edge $-1 $323 $227 $222 $324 forward #
edge $-1 $228 $323 $137 $325 forward #
coedge $-1 $138 $315 $321 $326 forward $226 $-1 #
loop $-1 $-1 $315 $214 #
vertex $-1 $223 $327 #
vertex $-1 $139 $328 #
straight-curve $-1 37.819630058269951 12.98770484455326 8.3398454927584567 -1 0 0 I I #
coedge $-1 $230 $230 $-1 $329 reversed $142 $-1 #
edge $-1 $330 $330 $143 $331 forward #
vertex $-1 $146 $332 #
ellipse-curve $-1 65.099961977447322 7.6085739842018825 4.3252275577625952 0.73135370988377701 0 0.68199835119979291 0.34099917559989645 0 -0.36567685494188851 1 I I #
coedge $-1 $234 $234 $-1 $333 reversed $149 $-1 #
edge $-1 $334 $334 $150 $335 forward #
vertex $-1 $153 $336 #
ellipse-curve $-1 65.099961977447322 10.836052500412713 4.3252275577625952 0.73135370988377701 0 0.68199835119979291 0.34099917559989645 0 -0.36567685494188851 1 I I #
face $-1 $-1 $337 $43 $-1 $338 forward single #
loop $-1 $-1 $339 $154 #
plane-surface $-1 -68.843653675954471 0 0 1 0 0 0 0 -1 forward_v I I I I #
coedge $-1 $242 $157 $159 $248 reversed $103 $-1 #
coedge $-1 $157 $241 $339 $340 reversed $103 $-1 #
coedge $-1 $341 $160 $157 $244 forward $155 $-1 #
edge $-1 $251 $342 $243 $343 forward #
coedge $-1 $159 $158 $344 $345 reversed $72 $-1 #
coedge $-1 $346 $347 $158 $247 forward $337 $-1 #
edge $-1 $348 $250 $246 $349 forward #
edge $-1 $350 $251 $241 $351 forward #
coedge $-1 $160 $341 $346 $352 forward $155 $-1 #
vertex $-1 $247 $353 #
vertex $-1 $161 $354 #
straight-curve $-1 -64.24437878200888 -9.6721409555148519 8.3398454927584567 0 1 0 I I #
coedge $-1 $253 $253 $-1 $355 reversed $164 $-1 #
edge $-1 $356 $356 $165 $357 forward #
vertex $-1 $168 $358 #
ellipse-curve $-1 -66.544016228981661 -20.726140296121812 4.1911895647270976 -0.87461971476443456 0 0.48480960649040278 0.24240480324520139 0 0.43730985738221728 1 I I #
coedge $-1 $257 $257 $-1 $359 reversed $171 $-1 #
edge $-1 $360 $360 $172 $361 forward #
vertex $-1 $175 $362 #
ellipse-curve $-1 -66.544016228981661 -17.962423525937602 4.1911895647270976 -0.87461971476443456 0 0.48480960649040278 0.24240480324520139 0 0.43730985738221728 1 I I #
face $-1 $-1 $191 $33 $-1 $363 reversed single #
loop $-1 $-1 $277 $176 #
plane-surface $-1 0 31.4629805147909 0 0 -1 0 0 0 -1 forward_v I I I I #
coedge $-1 $364 $275 $278 $365 forward $177 $-1 #
coedge $-1 $281 $179 $180 $269 reversed $117 $-1 #
coedge $-1 $275 $364 $179 $267 reversed $177 $-1 #
edge $-1 $282 $366 $266 $367 forward #
coedge $-1 $181 $180 $364 $368 forward $81 $-1 #
edge $-1 $273 $366 $265 $369 forward #
coedge $-1 $278 $277 $181 $271 reversed $262 $-1 #
edge $-1 $370 $272 $270 $371 forward #
vertex $-1 $183 $372 #
vertex $-1 $284 $373 #
straight-curve $-1 68.843653675954471 0 -8.3398454927584567 0 -1 0 I I #
coedge $-1 $264 $266 $184 $276 reversed $177 $-1 #
edge $-1 $279 $282 $275 $374 forward #
coedge $-1 $270 $185 $190 $285 forward $262 $-1 #
coedge $-1 $185 $270 $264 $365 reversed $262 $-1 #
vertex $-1 $186 $375 #
straight-curve $-1 0 31.4629805147909 8.3398454927584567 -1 0 0 I I #
coedge $-1 $187 $265 $189 $284 reversed $117 $-1 #
vertex $-1 $276 $376 #
straight-curve $-1 0 -31.4629805147909 8.3398454927584567 1 0 0 I I #
edge $-1 $192 $273 $189 $377 forward #
edge $-1 $193 $272 $190 $378 forward #
point $-1 68.843653675954471 -31.4629805147909 8.3398454927584567 #
point $-1 68.843653675954471 31.4629805147909 8.3398454927584567 #
face $-1 $-1 $210 $35 $-1 $379 reversed single #
loop $-1 $-1 $201 $195 #
plane-surface $-1 0 0 8.3398454927584567 0 0 1 1 0 0 forward_v I I I I #
coedge $-1 $380 $198 $203 $300 forward $125 $-1 #
coedge $-1 $198 $380 $295 $381 reversed $125 $-1 #
edge $-1 $298 $305 $198 $382 forward #
edge $-1 $212 $297 $208 $383 forward #
coedge $-1 $384 $201 $292 $381 forward $289 $-1 #
coedge $-1 $201 $384 $307 $385 forward $289 $-1 #
vertex $-1 $294 $386 #
vertex $-1 $381 $387 #
straight-curve $-1 0 -22.568618142911284 8.3398454927584567 -1 0 0 I I #
edge $-1 $305 $303 $291 $388 forward #
coedge $-1 $389 $204 $209 $308 reversed $196 $-1 #
coedge $-1 $204 $389 $380 $390 forward $196 $-1 #
vertex $-1 $205 $391 #
straight-curve $-1 0 -31.4629805147909 5.2189764030308154 1 0 0 I I #
vertex $-1 $300 $392 #
straight-curve $-1 0 -22.568618142911284 5.2189764030308154 1 0 0 I I #
coedge $-1 $209 $208 $296 $385 reversed $210 $-1 #
edge $-1 $393 $211 $209 $394 forward #
point $-1 68.843653675954471 -31.4629805147909 5.2189764030308154 #
point $-1 68.843653675954471 -22.568618142911284 5.2189764030308154 #
plane-surface $-1 0 0 8.3398454927584567 0 0 1 1 0 0 forward_v I I I I #
coedge $-1 $322 $321 $314 $395 forward $215 $-1 #
coedge $-1 $314 $217 $219 $318 reversed $133 $-1 #
coedge $-1 $217 $313 $312 $395 reversed $133 $-1 #
coedge $-1 $225 $220 $217 $316 forward $226 $-1 #
edge $-1 $319 $396 $315 $397 forward #
coedge $-1 $219 $218 $322 $398 reversed $89 $-1 #
edge $-1 $399 $319 $313 $400 forward #
vertex $-1 $221 $401 #
straight-curve $-1 61.356270278940187 4.611156621153647 8.3398454927584496 0 -1 0 I I #
coedge $-1 $312 $222 $225 $326 reversed $215 $-1 #
coedge $-1 $222 $312 $317 $398 forward $215 $-1 #
vertex $-1 $223 $402 #
straight-curve $-1 68.843653675954471 12.98770484455326 97.455624626817098 0 0 1 I I #
straight-curve $-1 -25.058862919186552 12.98770484455326 101.00873265849317 0.68199835119979291 0 -0.73135370988377701 I I #
edge $-1 $396 $227 $321 $403 forward #
point $-1 68.843653675954471 12.98770484455326 8.3398454927584567 #
point $-1 61.356270278940187 12.98770484455326 8.3398454927584567 #
edge $-1 $404 $404 $230 $-1 forward #
vertex $-1 $231 $405 #
ellipse-curve $-1 63.973826360658151 7.6085739842018825 3.2750891315835235 0.73135370988377701 0 0.68199835119979291 0.34099917559989645 0 -0.36567685494188851 1 I I #
point $-1 65.440961153047226 7.6085739842018825 3.9595507028207164 #
edge $-1 $406 $406 $234 $-1 forward #
vertex $-1 $235 $407 #
ellipse-curve $-1 63.973826360658151 10.836052500412713 3.2750891315835235 0.73135370988377701 0 0.68199835119979291 0.34099917559989645 0 -0.36567685494188851 1 I I #
point $-1 65.440961153047226 10.836052500412713 3.9595507028207164 #
loop $-1 $-1 $246 $238 #
plane-surface $-1 0 -22.568618142911284 6.7794109478946361 0 -1 0 0 0 -1 forward_v I I I I #
coedge $-1 $344 $408 $242 $340 forward $239 $-1 #
edge $-1 $342 $350 $339 $409 forward #
coedge $-1 $249 $243 $408 $410 forward $155 $-1 #
vertex $-1 $410 $411 #
straight-curve $-1 -94.633843579382045 -16.119945679148124 8.3398454927584567 -1 0 0 I I #
coedge $-1 $412 $339 $245 $345 forward $239 $-1 #
edge $-1 $350 $348 $344 $413 forward #
coedge $-1 $347 $246 $249 $352 reversed $337 $-1 #
coedge $-1 $246 $346 $412 $414 reversed $337 $-1 #
vertex $-1 $414 $415 #
straight-curve $-1 -59.324836325480547 -22.568618142911284 17.214935347615743 0.48480960649040278 0 0.87461971476443456 I I #
vertex $-1 $345 $416 #
straight-curve $-1 -68.843653675954457 -16.119945679148124 0.042533636695750943 0.48480960649040278 0 0.87461971476443456 I I #
edge $-1 $417 $250 $249 $418 forward #
point $-1 -64.244378782008866 -22.568618142911284 8.3398454927584567 #
point $-1 -64.244378782008866 -16.119945679148124 8.3398454927584567 #
edge $-1 $419 $419 $253 $-1 forward #
vertex $-1 $254 $420 #
ellipse-curve $-1 -65.421093346499845 -20.726140296121812 3.5687432699717747 -0.87461971476443456 0 0.48480960649040278 0.24240480324520139 0 0.43730985738221728 1 I I #
point $-1 -66.301611425736482 -20.726140296121812 4.628499422109325 #
edge $-1 $421 $421 $257 $-1 forward #
vertex $-1 $258 $422 #
ellipse-curve $-1 -65.421093346499845 -17.962423525937602 3.5687432699717747 -0.87461971476443456 0 0.48480960649040278 0.24240480324520139 0 0.43730985738221728 1 I I #
point $-1 -66.301611425736482 -17.962423525937602 4.628499422109325 #
plane-surface $-1 68.843653675954471 0 0 -1 0 0 0 0 1 forward_v I I I I #
coedge $-1 $266 $264 $268 $368 reversed $177 $-1 #
edge $-1 $279 $370 $278 $423 forward #
vertex $-1 $368 $424 #
straight-curve $-1 -68.843653675954471 -31.4629805147909 0 0 0 -1 I I #
edge $-1 $366 $370 $364 $425 forward #
straight-curve $-1 0 -31.4629805147909 -8.3398454927584567 -1 0 0 I I #
vertex $-1 $271 $426 #
straight-curve $-1 0 31.4629805147909 -8.3398454927584567 1 0 0 I I #
point $-1 68.843653675954471 31.4629805147909 -8.3398454927584567 #
point $-1 68.843653675954471 -31.4629805147909 -8.3398454927584567 #
straight-curve $-1 -68.843653675954471 0 8.3398454927584567 0 -1 0 I I #
point $-1 -68.843653675954471 31.4629805147909 8.3398454927584567 #
point $-1 -68.843653675954471 -31.4629805147909 8.3398454927584567 #
straight-curve $-1 68.843653675954471 -31.4629805147909 0 0 0 -1 I I #
straight-curve $-1 68.843653675954471 31.4629805147909 0 0 0 -1 I I #
plane-surface $-1 68.843653675954471 0 0 -1 0 0 0 0 1 forward_v I I I I #
coedge $-1 $292 $291 $302 $390 reversed $125 $-1 #
edge $-1 $298 $427 $292 $428 forward #
straight-curve $-1 -68.843653675954471 -22.568618142911284 3.389705473947318 0 0 -1 I I #
straight-curve $-1 68.843653675954471 -22.568618142911284 3.389705473947318 0 0 1 I I #
coedge $-1 $296 $295 $389 $429 forward $289 $-1 #
edge $-1 $393 $297 $307 $430 forward #
point $-1 68.843653675954471 -22.568618142911284 8.3398454927584567 #
point $-1 -68.843653675954471 -22.568618142911284 8.3398454927584567 #
straight-curve $-1 -68.843653675954471 -13.507899664425546 5.2189764030308154 0 -1 0 I I #
coedge $-1 $302 $301 $384 $429 reversed $196 $-1 #
edge $-1 $427 $303 $380 $431 forward #
point $-1 -68.843653675954471 -31.4629805147909 5.2189764030308154 #
point $-1 -68.843653675954471 -22.568618142911284 5.2189764030308154 #
vertex $-1 $385 $432 #
straight-curve $-1 68.843653675954471 -31.4629805147909 0 0 0 -1 I I #
edge $-1 $396 $399 $312 $433 forward #
vertex $-1 $326 $434 #
straight-curve $-1 37.819630058269951 5.4569216400613278 8.3398454927584567 1 0 0 I I #
edge $-1 $399 $323 $322 $435 forward #
vertex $-1 $398 $436 #
straight-curve $-1 -25.058862919186552 5.4569216400613278 101.00873265849317 -0.68199835119979291 0 0.73135370988377701 I I #
point $-1 61.356270278940187 5.4569216400613278 8.3398454927584567 #
point $-1 68.843653675954471 12.98770484455326 0.31060962276671944 #
straight-curve $-1 68.843653675954471 0 8.3398454927584567 0 1 0 I I #
vertex $-1 $329 $437 #
point $-1 64.314825536258056 7.6085739842018825 2.909412276641635 #
vertex $-1 $333 $438 #
point $-1 64.314825536258056 10.836052500412713 2.909412276641635 #
coedge $-1 $339 $412 $341 $410 reversed $239 $-1 #
straight-curve $-1 -68.843653675954471 -16.119945679148124 33.39733146634893 0 0 -1 I I #
edge $-1 $342 $417 $408 $439 forward #
point $-1 -68.843653675954471 -16.119945679148124 8.3398454927584567 #
coedge $-1 $408 $344 $347 $414 forward $239 $-1 #
straight-curve $-1 -68.843653675954471 -9.6721409555148519 0.042533636695741062 0 -1 0 I I #
edge $-1 $348 $417 $412 $440 forward #
point $-1 -68.843653675954471 -22.568618142911284 0.042533636695725303 #
point $-1 -68.843653675954471 -16.119945679148124 0.042533636695725303 #
vertex $-1 $414 $441 #
straight-curve $-1 0 -22.568618142911284 8.3398454927584567 1 0 0 I I #
vertex $-1 $355 $442 #
point $-1 -65.178688543254637 -20.726140296121812 4.0060531273539919 #
vertex $-1 $359 $443 #
point $-1 -65.178688543254637 -17.962423525937602 4.0060531273539919 #
straight-curve $-1 -68.843653675954471 31.4629805147909 0 0 0 -1 I I #
point $-1 -68.843653675954471 -31.4629805147909 -8.3398454927584567 #
straight-curve $-1 -68.843653675954471 0 -8.3398454927584567 0 1 0 I I #
point $-1 -68.843653675954471 31.4629805147909 -8.3398454927584567 #
vertex $-1 $381 $444 #
straight-curve $-1 -68.843653675954471 0 8.3398454927584567 0 -1 0 I I #
edge $-1 $427 $393 $389 $445 forward #
straight-curve $-1 68.843653675954471 0 8.3398454927584567 0 1 0 I I #
straight-curve $-1 -68.843653675954471 -31.4629805147909 0 0 0 -1 I I #
point $-1 68.843653675954471 -31.4629805147909 8.3398454927584567 #
straight-curve $-1 68.843653675954471 5.4569216400613278 97.455624626817098 0 0 -1 I I #
point $-1 68.843653675954471 5.4569216400613278 8.3398454927584567 #
straight-curve $-1 68.843653675954471 4.611156621153647 0.31060962276672655 0 1 0 I I #
point $-1 68.843653675954471 5.4569216400613278 0.31060962276671944 #
point $-1 63.60814950571627 7.6085739842018825 2.9340899559836271 #
point $-1 63.60814950571627 10.836052500412713 2.9340899559836271 #
straight-curve $-1 -68.843653675954471 0 8.3398454927584567 0 -1 0 I I #
straight-curve $-1 -68.843653675954471 -22.568618142911284 33.39733146634893 0 0 1 I I #
point $-1 -68.843653675954471 -22.568618142911284 8.3398454927584567 #
point $-1 -64.983783489117627 -20.726140296121812 3.3263384667265732 #
point $-1 -64.983783489117627 -17.962423525937602 3.3263384667265732 #
point $-1 -68.843653675954471 -31.4629805147909 8.3398454927584567 #
straight-curve $-1 0 -31.4629805147909 8.3398454927584567 1 0 0 I I #
End-of-ACIS-data 