300 0 5 0           
7 Unknown 11 ACIS 3.0 NT 24 Fri Oct 30 14:21:42 1998 
-1 9.9999999999999995e-007 1e-010 
body $5 $6 $-1 $7 #
body $8 $9 $-1 $10 #
body $11 $12 $-1 $13 #
body $14 $15 $-1 $16 #
body $17 $18 $-1 $19 #
display_attribute-st-attrib $-1 $20 $-1 $0 1 #
lump $-1 $-1 $21 $0 #
transform $-1 1 0 0 0 1 0 0 0 1 77.115390484328742 52.289115796986735 18.952989269973809 1 rotate no_reflect no_shear #
display_attribute-st-attrib $-1 $22 $-1 $1 1 #
lump $-1 $-1 $23 $1 #
transform $-1 1 0 0 0 1 0 0 0 1 34.806184088312847 -7.4659866133884503 18.952989269973809 1 rotate no_reflect no_shear #
display_attribute-st-attrib $-1 $24 $-1 $2 1 #
lump $-1 $-1 $25 $2 #
transform $-1 1 0 0 0 0.78801074757464917 -0.61566148304635926 0 0.61566148304635926 0.78801074757464917 9.8541169926124716 117.12341247813352 217.52487318662065 1 rotate no_reflect no_shear #
display_attribute-st-attrib $-1 $26 $-1 $3 1 #
lump $-1 $-1 $27 $3 #
transform $-1 1 0 0 0 -0.78801074757464917 0.61566148304635926 0 -0.61566148304635926 -0.78801074757464917 5.6309239957785548 96.486441336781326 29.559897819750447 1 rotate no_reflect no_shear #
display_attribute-st-attrib $-1 $28 $-1 $4 1 #
lump $-1 $-1 $29 $4 #
transform $-1 1 0 0 0 -0.78801074757464917 0.61566148304635926 0 -0.61566148304635926 -0.78801074757464917 14.077309989446388 96.486441336781326 29.559897819750447 1 rotate no_reflect no_shear #
id_attribute-st-attrib $-1 $-1 $5 $0 1512 #
shell $-1 $-1 $-1 $30 $-1 $6 #
id_attribute-st-attrib $-1 $-1 $8 $1 1517 #
shell $-1 $-1 $-1 $31 $-1 $9 #
id_attribute-st-attrib $-1 $-1 $11 $2 1530 #
shell $-1 $-1 $-1 $32 $-1 $12 #
id_attribute-st-attrib $-1 $-1 $14 $3 1537 #
shell $-1 $-1 $-1 $33 $-1 $15 #
id_attribute-st-attrib $-1 $-1 $17 $4 1545 #
shell $-1 $-1 $-1 $34 $-1 $18 #
face $-1 $35 $36 $21 $-1 $37 forward single #
face $-1 $38 $39 $23 $-1 $40 forward single #
face $-1 $41 $42 $25 $-1 $43 forward single #
face $-1 $44 $45 $27 $-1 $46 forward single #
face $-1 $47 $48 $29 $-1 $49 forward single #
face $-1 $50 $51 $21 $-1 $52 reversed single #
loop $-1 $-1 $53 $30 #
plane-surface $-1 0 0 18.952989269973809 0 0 1 1 0 0 forward_v I I I I #
face $-1 $54 $55 $23 $-1 $56 reversed single #
loop $-1 $-1 $57 $31 #
plane-surface $-1 0 0 18.952989269973809 0 0 1 1 0 0 forward_v I I I I #
face $-1 $58 $59 $25 $-1 $60 reversed single #
loop $-1 $-1 $61 $32 #
plane-surface $-1 0 0 154.23078096865748 0 0 1 1 0 0 forward_v I I I I #
face $-1 $62 $63 $27 $-1 $64 forward single #
loop $-1 $65 $66 $33 #
cone-surface $-1 0 0 -3.6715140232551065 0 0 1 1.5 0 0 1 I I 0 1 forward I I I I #
face $-1 $67 $68 $29 $-1 $69 forward single #
loop $-1 $70 $71 $34 #
cone-surface $-1 0 0 -3.6715140232551065 0 0 1 1.5 0 0 1 I I 0 1 forward I I I I #
face $-1 $72 $73 $21 $-1 $74 reversed single #
loop $-1 $-1 $75 $35 #
plane-surface $-1 0 0 -18.952989269973809 0 0 1 1 0 0 forward_v I I I I #
coedge $-1 $76 $77 $78 $79 forward $36 $-1 #
face $-1 $80 $81 $23 $-1 $82 reversed single #
loop $-1 $-1 $83 $38 #
plane-surface $-1 0 0 -18.952989269973809 0 0 1 1 0 0 forward_v I I I I #
coedge $-1 $84 $85 $86 $87 forward $39 $-1 #
face $-1 $88 $89 $25 $-1 $90 reversed single #
loop $-1 $-1 $91 $41 #
plane-surface $-1 0 0 -154.23078096865748 0 0 1 1 0 0 forward_v I I I I #
coedge $-1 $92 $93 $94 $95 forward $42 $-1 #
face $-1 $-1 $96 $27 $-1 $97 forward single #
loop $-1 $-1 $98 $44 #
plane-surface $-1 0 0 -6.5930280465102111 0 0 -1 -1 0 0 forward_v I I I I #
loop $-1 $-1 $99 $33 #
coedge $-1 $66 $66 $98 $100 reversed $45 $-1 #
face $-1 $-1 $101 $29 $-1 $102 forward single #
loop $-1 $-1 $103 $47 #
plane-surface $-1 0 0 -6.5930280465102111 0 0 -1 -1 0 0 forward_v I I I I #
loop $-1 $-1 $104 $34 #
coedge $-1 $71 $71 $103 $105 reversed $48 $-1 #
face $-1 $106 $107 $21 $-1 $108 reversed single #
loop $-1 $-1 $109 $50 #
plane-surface $-1 0 -52.289115796986735 0 0 1 0 0 0 1 forward_v I I I I #
coedge $-1 $110 $111 $112 $113 forward $51 $-1 #
coedge $-1 $114 $53 $115 $116 forward $36 $-1 #
coedge $-1 $53 $114 $117 $118 forward $36 $-1 #
coedge $-1 $119 $120 $53 $79 reversed $121 $-1 #
edge $-1 $122 $123 $78 $124 forward #
face $-1 $125 $126 $23 $-1 $127 reversed single #
loop $-1 $-1 $128 $54 #
plane-surface $-1 0 -7.4659866133884503 0 0 1 0 0 0 1 forward_v I I I I #
coedge $-1 $129 $130 $131 $132 forward $55 $-1 #
coedge $-1 $133 $57 $134 $135 forward $39 $-1 #
coedge $-1 $57 $133 $136 $137 forward $39 $-1 #
coedge $-1 $138 $139 $57 $87 reversed $140 $-1 #
edge $-1 $141 $142 $86 $143 forward #
face $-1 $144 $145 $25 $-1 $146 reversed single #
loop $-1 $-1 $147 $58 #
plane-surface $-1 0 -308.46156193731497 0 0 1 0 0 0 1 forward_v I I I I #
coedge $-1 $148 $149 $150 $151 forward $59 $-1 #
coedge $-1 $152 $61 $153 $154 forward $42 $-1 #
coedge $-1 $61 $152 $155 $156 forward $42 $-1 #
coedge $-1 $157 $158 $61 $95 reversed $159 $-1 #
edge $-1 $160 $161 $94 $162 forward #
loop $-1 $163 $164 $62 #
cone-surface $-1 0 0 0 0 0 1 0.75 0 0 1 I I -0.70710678118654757 0.70710678118654757 forward I I I I #
coedge $-1 $98 $98 $66 $100 forward $63 $-1 #
coedge $-1 $99 $99 $164 $165 forward $65 $-1 #
edge $-1 $166 $166 $98 $167 forward #
loop $-1 $168 $169 $67 #
cone-surface $-1 0 0 0 0 0 1 0.75 0 0 1 I I -0.70710678118654757 0.70710678118654757 forward I I I I #
coedge $-1 $103 $103 $71 $105 forward $68 $-1 #
coedge $-1 $104 $104 $169 $170 forward $70 $-1 #
edge $-1 $171 $171 $103 $172 forward #
face $-1 $173 $174 $21 $-1 $175 reversed single #
loop $-1 $-1 $176 $72 #
plane-surface $-1 -77.115390484328742 0 0 1 0 0 0 0 -1 forward_v I I I I #
coedge $-1 $177 $117 $178 $179 forward $73 $-1 #
coedge $-1 $180 $75 $177 $181 forward $51 $-1 #
coedge $-1 $75 $180 $182 $183 forward $51 $-1 #
coedge $-1 $120 $119 $75 $113 reversed $121 $-1 #
edge $-1 $184 $185 $112 $186 forward #
coedge $-1 $77 $76 $187 $188 forward $36 $-1 #
coedge $-1 $189 $190 $76 $116 reversed $174 $-1 #
edge $-1 $123 $191 $115 $192 forward #
coedge $-1 $109 $193 $77 $118 reversed $73 $-1 #
edge $-1 $194 $122 $117 $195 forward #
coedge $-1 $112 $78 $193 $196 forward $121 $-1 #
coedge $-1 $78 $112 $189 $197 reversed $121 $-1 #
loop $-1 $-1 $119 $173 #
vertex $-1 $79 $198 #
vertex $-1 $79 $199 #
straight-curve $-1 77.115390484328742 0 18.952989269973809 0 1 0 I I #
face $-1 $200 $201 $23 $-1 $202 reversed single #
loop $-1 $-1 $203 $80 #
plane-surface $-1 -3.0997944516347751 0 0 1 0 0 0 0 -1 forward_v I I I I #
coedge $-1 $204 $136 $205 $206 forward $81 $-1 #
coedge $-1 $207 $83 $204 $208 forward $55 $-1 #
coedge $-1 $83 $207 $209 $210 forward $55 $-1 #
coedge $-1 $139 $138 $83 $132 reversed $140 $-1 #
edge $-1 $211 $212 $131 $213 forward #
coedge $-1 $85 $84 $214 $215 forward $39 $-1 #
coedge $-1 $216 $217 $84 $135 reversed $201 $-1 #
edge $-1 $142 $218 $134 $219 forward #
coedge $-1 $128 $220 $85 $137 reversed $81 $-1 #
edge $-1 $221 $141 $136 $222 forward #
coedge $-1 $131 $86 $220 $223 forward $140 $-1 #
coedge $-1 $86 $131 $216 $224 reversed $140 $-1 #
loop $-1 $-1 $138 $200 #
vertex $-1 $87 $225 #
vertex $-1 $87 $226 #
straight-curve $-1 3.0997944516347751 0 18.952989269973809 0 1 0 I I #
face $-1 $227 $228 $25 $-1 $229 reversed single #
loop $-1 $-1 $230 $88 #
plane-surface $-1 -9.8541169926124716 0 0 1 0 0 0 0 -1 forward_v I I I I #
coedge $-1 $231 $155 $232 $233 forward $89 $-1 #
coedge $-1 $234 $91 $231 $235 forward $59 $-1 #
coedge $-1 $91 $234 $236 $237 forward $59 $-1 #
coedge $-1 $158 $157 $91 $151 reversed $159 $-1 #
edge $-1 $238 $239 $150 $240 forward #
coedge $-1 $93 $92 $241 $242 forward $42 $-1 #
coedge $-1 $243 $244 $92 $154 reversed $228 $-1 #
edge $-1 $161 $245 $153 $246 forward #
coedge $-1 $147 $247 $93 $156 reversed $89 $-1 #
edge $-1 $248 $160 $155 $249 forward #
coedge $-1 $150 $94 $247 $250 forward $159 $-1 #
coedge $-1 $94 $150 $243 $251 reversed $159 $-1 #
loop $-1 $-1 $157 $227 #
vertex $-1 $95 $252 #
vertex $-1 $95 $253 #
straight-curve $-1 9.8541169926124716 0 154.23078096865748 0 1 0 I I #
loop $-1 $-1 $254 $62 #
coedge $-1 $164 $164 $99 $165 reversed $96 $-1 #
edge $-1 $255 $255 $164 $256 forward #
vertex $-1 $100 $257 #
ellipse-curve $-1 0 0 -6.5930280465102111 0 0 -1 1.5 0 0 1 I I #
loop $-1 $-1 $258 $67 #
coedge $-1 $169 $169 $104 $170 reversed $101 $-1 #
edge $-1 $259 $259 $169 $260 forward #
vertex $-1 $105 $261 #
ellipse-curve $-1 0 0 -6.5930280465102111 0 0 -1 1.5 0 0 1 I I #
face $-1 $-1 $121 $21 $-1 $262 reversed single #
loop $-1 $-1 $189 $106 #
plane-surface $-1 0 52.289115796986735 0 0 -1 0 0 0 -1 forward_v I I I I #
coedge $-1 $263 $187 $190 $264 forward $107 $-1 #
coedge $-1 $193 $109 $110 $181 reversed $73 $-1 #
coedge $-1 $187 $263 $109 $179 reversed $107 $-1 #
edge $-1 $194 $265 $178 $266 forward #
coedge $-1 $111 $110 $263 $267 forward $51 $-1 #
edge $-1 $185 $265 $177 $268 forward #
coedge $-1 $190 $189 $111 $183 reversed $174 $-1 #
edge $-1 $269 $184 $182 $270 forward #
vertex $-1 $113 $271 #
vertex $-1 $196 $272 #
straight-curve $-1 77.115390484328742 0 -18.952989269973809 0 -1 0 I I #
coedge $-1 $176 $178 $114 $188 reversed $107 $-1 #
edge $-1 $191 $194 $187 $273 forward #
coedge $-1 $182 $115 $120 $197 forward $174 $-1 #
coedge $-1 $115 $182 $176 $264 reversed $174 $-1 #
vertex $-1 $116 $274 #
straight-curve $-1 0 52.289115796986735 18.952989269973809 -1 0 0 I I #
coedge $-1 $117 $177 $119 $196 reversed $73 $-1 #
vertex $-1 $188 $275 #
straight-curve $-1 0 -52.289115796986735 18.952989269973809 1 0 0 I I #
edge $-1 $122 $185 $119 $276 forward #
edge $-1 $123 $184 $120 $277 forward #
point $-1 77.115390484328742 -52.289115796986735 18.952989269973809 #
point $-1 77.115390484328742 52.289115796986735 18.952989269973809 #
face $-1 $-1 $140 $23 $-1 $278 reversed single #
loop $-1 $-1 $216 $125 #
plane-surface $-1 0 7.4659866133884503 0 0 -1 0 0 0 -1 forward_v I I I I #
coedge $-1 $279 $214 $217 $280 forward $126 $-1 #
coedge $-1 $220 $128 $129 $208 reversed $81 $-1 #
coedge $-1 $214 $279 $128 $206 reversed $126 $-1 #
edge $-1 $221 $281 $205 $282 forward #
coedge $-1 $130 $129 $279 $283 forward $55 $-1 #
edge $-1 $212 $281 $204 $284 forward #
coedge $-1 $217 $216 $130 $210 reversed $201 $-1 #
edge $-1 $285 $211 $209 $286 forward #
vertex $-1 $132 $287 #
vertex $-1 $223 $288 #
straight-curve $-1 3.0997944516347751 0 -18.952989269973809 0 -1 0 I I #
coedge $-1 $203 $205 $133 $215 reversed $126 $-1 #
edge $-1 $218 $221 $214 $289 forward #
coedge $-1 $209 $134 $139 $224 forward $201 $-1 #
coedge $-1 $134 $209 $203 $280 reversed $201 $-1 #
vertex $-1 $135 $290 #
straight-curve $-1 0 7.4659866133884503 18.952989269973809 -1 0 0 I I #
coedge $-1 $136 $204 $138 $223 reversed $81 $-1 #
vertex $-1 $215 $291 #
straight-curve $-1 0 -7.4659866133884503 18.952989269973809 1 0 0 I I #
edge $-1 $141 $212 $138 $292 forward #
edge $-1 $142 $211 $139 $293 forward #
point $-1 3.0997944516347751 -7.4659866133884503 18.952989269973809 #
point $-1 3.0997944516347751 7.4659866133884503 18.952989269973809 #
face $-1 $-1 $159 $25 $-1 $294 reversed single #
loop $-1 $-1 $243 $144 #
plane-surface $-1 0 308.46156193731497 0 0 -1 0 0 0 -1 forward_v I I I I #
coedge $-1 $295 $241 $244 $296 forward $145 $-1 #
coedge $-1 $247 $147 $148 $235 reversed $89 $-1 #
coedge $-1 $241 $295 $147 $233 reversed $145 $-1 #
edge $-1 $248 $297 $232 $298 forward #
coedge $-1 $149 $148 $295 $299 forward $59 $-1 #
edge $-1 $239 $297 $231 $300 forward #
coedge $-1 $244 $243 $149 $237 reversed $228 $-1 #
edge $-1 $301 $238 $236 $302 forward #
vertex $-1 $151 $303 #
vertex $-1 $250 $304 #
straight-curve $-1 9.8541169926124716 0 -154.23078096865748 0 -1 0 I I #
coedge $-1 $230 $232 $152 $242 reversed $145 $-1 #
edge $-1 $245 $248 $241 $305 forward #
coedge $-1 $236 $153 $158 $251 forward $228 $-1 #
coedge $-1 $153 $236 $230 $296 reversed $228 $-1 #
vertex $-1 $154 $306 #
straight-curve $-1 0 308.46156193731497 154.23078096865748 -1 0 0 I I #
coedge $-1 $155 $231 $157 $250 reversed $89 $-1 #
vertex $-1 $242 $307 #
straight-curve $-1 0 -308.46156193731497 154.23078096865748 1 0 0 I I #
edge $-1 $160 $239 $157 $308 forward #
edge $-1 $161 $238 $158 $309 forward #
point $-1 9.8541169926124716 -308.46156193731497 154.23078096865748 #
point $-1 9.8541169926124716 308.46156193731497 154.23078096865748 #
coedge $-1 $254 $254 $-1 $310 reversed $163 $-1 #
vertex $-1 $165 $311 #
ellipse-curve $-1 0 0 -0.75 0 0 -1 1.5 0 0 1 I I #
point $-1 1.5 0 -6.5930280465102111 #
coedge $-1 $258 $258 $-1 $312 reversed $168 $-1 #
vertex $-1 $170 $313 #
ellipse-curve $-1 0 0 -0.75 0 0 -1 1.5 0 0 1 I I #
point $-1 1.5 0 -6.5930280465102111 #
plane-surface $-1 77.115390484328742 0 0 -1 0 0 0 0 1 forward_v I I I I #
coedge $-1 $178 $176 $180 $267 reversed $107 $-1 #
edge $-1 $191 $269 $190 $314 forward #
vertex $-1 $267 $315 #
straight-curve $-1 -77.115390484328742 -52.289115796986735 0 0 0 -1 I I #
edge $-1 $265 $269 $263 $316 forward #
straight-curve $-1 0 -52.289115796986735 -18.952989269973809 -1 0 0 I I #
vertex $-1 $183 $317 #
straight-curve $-1 0 52.289115796986735 -18.952989269973809 1 0 0 I I #
point $-1 77.115390484328742 52.289115796986735 -18.952989269973809 #
point $-1 77.115390484328742 -52.289115796986735 -18.952989269973809 #
straight-curve $-1 -77.115390484328742 0 18.952989269973809 0 -1 0 I I #
point $-1 -77.115390484328742 52.289115796986735 18.952989269973809 #
point $-1 -77.115390484328742 -52.289115796986735 18.952989269973809 #
straight-curve $-1 77.115390484328742 -52.289115796986735 0 0 0 -1 I I #
straight-curve $-1 77.115390484328742 52.289115796986735 0 0 0 -1 I I #
plane-surface $-1 3.0997944516347751 0 0 -1 0 0 0 0 1 forward_v I I I I #
coedge $-1 $205 $203 $207 $283 reversed $126 $-1 #
edge $-1 $218 $285 $217 $318 forward #
vertex $-1 $283 $319 #
straight-curve $-1 -3.0997944516347751 -7.4659866133884503 0 0 0 -1 I I #
edge $-1 $281 $285 $279 $320 forward #
straight-curve $-1 0 -7.4659866133884503 -18.952989269973809 -1 0 0 I I #
vertex $-1 $210 $321 #
straight-curve $-1 0 7.4659866133884503 -18.952989269973809 1 0 0 I I #
point $-1 3.0997944516347751 7.4659866133884503 -18.952989269973809 #
point $-1 3.0997944516347751 -7.4659866133884503 -18.952989269973809 #
straight-curve $-1 -3.0997944516347751 0 18.952989269973809 0 -1 0 I I #
point $-1 -3.0997944516347751 7.4659866133884503 18.952989269973809 #
point $-1 -3.0997944516347751 -7.4659866133884503 18.952989269973809 #
straight-curve $-1 3.0997944516347751 -7.4659866133884503 0 0 0 -1 I I #
straight-curve $-1 3.0997944516347751 7.4659866133884503 0 0 0 -1 I I #
plane-surface $-1 9.8541169926124716 0 0 -1 0 0 0 0 1 forward_v I I I I #
coedge $-1 $232 $230 $234 $299 reversed $145 $-1 #
edge $-1 $245 $301 $244 $322 forward #
vertex $-1 $299 $323 #
straight-curve $-1 -9.8541169926124716 -308.46156193731497 0 0 0 -1 I I #
edge $-1 $297 $301 $295 $324 forward #
straight-curve $-1 0 -308.46156193731497 -154.23078096865748 -1 0 0 I I #
vertex $-1 $237 $325 #
straight-curve $-1 0 308.46156193731497 -154.23078096865748 1 0 0 I I #
point $-1 9.8541169926124716 308.46156193731497 -154.23078096865748 #
point $-1 9.8541169926124716 -308.46156193731497 -154.23078096865748 #
straight-curve $-1 -9.8541169926124716 0 154.23078096865748 0 -1 0 I I #
point $-1 -9.8541169926124716 308.46156193731497 154.23078096865748 #
point $-1 -9.8541169926124716 -308.46156193731497 154.23078096865748 #
straight-curve $-1 9.8541169926124716 -308.46156193731497 0 0 0 -1 I I #
straight-curve $-1 9.8541169926124716 308.46156193731497 0 0 0 -1 I I #
edge $-1 $326 $326 $254 $-1 forward #
point $-1 1.5 0 -0.75 #
edge $-1 $327 $327 $258 $-1 forward #
point $-1 1.5 0 -0.75 #
straight-curve $-1 -77.115390484328742 52.289115796986735 0 0 0 -1 I I #
point $-1 -77.115390484328742 -52.289115796986735 -18.952989269973809 #
straight-curve $-1 -77.115390484328742 0 -18.952989269973809 0 1 0 I I #
point $-1 -77.115390484328742 52.289115796986735 -18.952989269973809 #
straight-curve $-1 -3.0997944516347751 7.4659866133884503 0 0 0 -1 I I #
point $-1 -3.0997944516347751 -7.4659866133884503 -18.952989269973809 #
straight-curve $-1 -3.0997944516347751 0 -18.952989269973809 0 1 0 I I #
point $-1 -3.0997944516347751 7.4659866133884503 -18.952989269973809 #
straight-curve $-1 -9.8541169926124716 308.46156193731497 0 0 0 -1 I I #
point $-1 -9.8541169926124716 -308.46156193731497 -154.23078096865748 #
straight-curve $-1 -9.8541169926124716 0 -154.23078096865748 0 1 0 I I #
point $-1 -9.8541169926124716 308.46156193731497 -154.23078096865748 #
vertex $-1 $310 $328 #
vertex $-1 $312 $329 #
point $-1 0 0 0.75 #
point $-1 0 0 0.75 #
End-of-ACIS-data 