600 0 7 0           
94 GICL ACIS Healer - Source: /gicl/data5/repository/Drexel/SM99-DATA/part128.smdg.feat.sat - 6 0 18 ACIS 6.0.3 Solaris 24 Sat Apr 13 20:45:46 2002 
1 9.999999999999999547e-07 1.000000000000000036e-10 
body $-1 $7 $-1 $-1 #
body $-1 $8 $-1 $-1 #
body $-1 $9 $-1 $-1 #
body $-1 $10 $-1 $-1 #
body $-1 $11 $-1 $-1 #
body $-1 $12 $-1 $-1 #
body $-1 $13 $-1 $-1 #
lump $-1 $-1 $14 $0 #
lump $-1 $-1 $15 $1 #
lump $-1 $-1 $16 $2 #
lump $-1 $-1 $17 $3 #
lump $-1 $-1 $18 $4 #
lump $-1 $-1 $19 $5 #
lump $-1 $-1 $20 $6 #
shell $-1 $-1 $-1 $21 $-1 $7 #
shell $-1 $-1 $-1 $22 $-1 $8 #
shell $-1 $-1 $-1 $23 $-1 $9 #
shell $-1 $-1 $-1 $24 $-1 $10 #
shell $-1 $-1 $-1 $25 $-1 $11 #
shell $-1 $-1 $-1 $26 $-1 $12 #
shell $-1 $-1 $-1 $27 $-1 $13 #
face $-1 $28 $29 $14 $-1 $30 forward single #
face $-1 $31 $32 $15 $-1 $33 forward single #
face $-1 $34 $35 $16 $-1 $36 forward single #
face $-1 $37 $38 $17 $-1 $39 forward single #
face $-1 $40 $41 $18 $-1 $42 forward single #
face $-1 $43 $44 $19 $-1 $45 forward single #
face $-1 $46 $47 $20 $-1 $48 forward single #
face $-1 $49 $50 $14 $-1 $51 reversed single #
loop $-1 $-1 $52 $21 #
plane-surface $-1 43.79772331919308925 29.77822807075140332 25.98476880951508505 0 0 1 1 0 0 forward_v I I I I #
face $-1 $53 $54 $15 $-1 $55 reversed single #
loop $-1 $-1 $56 $22 #
plane-surface $-1 43.79772331919308925 5.411468666740746336 3.258107933405338219 0 0 1 1 0 0 forward_v I I I I #
face $-1 $57 $58 $16 $-1 $59 reversed single #
loop $-1 $-1 $60 $23 #
plane-surface $-1 43.79772331919308925 54.1449874747620612 3.258107933405338219 0 0 1 1 0 0 forward_v I I I I #
face $-1 $61 $62 $17 $-1 $63 reversed single #
loop $-1 $-1 $64 $24 #
plane-surface $-1 -100.485369541893192 45.23501573160967126 165.4970757770555281 -0.5735764437432435692 0 0.819152039112919339 0.819152039112919339 0 0.5735764437432435692 forward_v I I I I #
face $-1 $65 $66 $18 $-1 $67 forward single #
loop $-1 $68 $69 $25 #
cone-surface $-1 3.86176381111631839 45.23501573160967126 22.54656143617251018 0.5735764437432435692 0 -0.819152039112919339 1.228728058669378953 0 0.8603646656148653538 1 I I 0 1 1.5 forward I I I I #
face $-1 $70 $71 $19 $-1 $72 reversed single #
loop $-1 $-1 $73 $26 #
plane-surface $-1 116.3268274494384116 45.23501573160967126 215.7397605480021525 0.5735764437432435692 0 0.819152039112919339 0.819152039112919339 0 -0.5735764437432435692 forward_v I I I I #
face $-1 $74 $75 $20 $-1 $76 forward single #
loop $-1 $77 $78 $27 #
cone-surface $-1 83.73368282726985967 45.23501573160967126 22.54656143617251729 -0.5735764437432435692 0 -0.819152039112919339 1.228728058669378953 0 -0.8603646656148653538 1 I I 0 1 1.5 forward I I I I #
face $-1 $79 $80 $14 $-1 $81 reversed single #
loop $-1 $-1 $82 $28 #
plane-surface $-1 43.79772331919308925 29.77822807075140332 0 0 0 1 1 0 0 forward_v I I I I #
coedge $-1 $83 $84 $85 $86 forward $29 $-1 #
face $-1 $87 $88 $15 $-1 $89 reversed single #
loop $-1 $-1 $90 $31 #
plane-surface $-1 43.79772331919308925 5.411468666740746336 0 0 0 1 1 0 0 forward_v I I I I #
coedge $-1 $91 $92 $93 $94 forward $32 $-1 #
face $-1 $95 $96 $16 $-1 $97 reversed single #
loop $-1 $-1 $98 $34 #
plane-surface $-1 43.79772331919308925 54.1449874747620612 0 0 0 1 1 0 0 forward_v I I I I #
coedge $-1 $99 $100 $101 $102 forward $35 $-1 #
face $-1 $103 $104 $17 $-1 $105 reversed single #
loop $-1 $-1 $106 $37 #
plane-surface $-1 7.105427357601001859e-15 45.23501573160967126 21.98909831537361015 -0.5735764437432435692 0 0.819152039112919339 0.819152039112919339 0 0.5735764437432435692 forward_v I I I I #
coedge $-1 $107 $108 $109 $110 forward $38 $-1 #
face $-1 $-1 $111 $18 $-1 $112 forward single #
loop $-1 $-1 $113 $40 #
plane-surface $-1 2.85320437110250591 45.23501573160967126 23.98693356244435293 -0.5735764437432435692 0 0.819152039112919339 -0.819152039112919339 0 -0.5735764437432435692 forward_v I I I I #
loop $-1 $-1 $114 $25 #
coedge $-1 $69 $69 $113 $115 reversed $41 $-1 #
face $-1 $116 $117 $19 $-1 $118 reversed single #
loop $-1 $-1 $119 $43 #
plane-surface $-1 15.84145790754521244 45.23501573160967126 72.23178308632022038 0.5735764437432435692 0 0.819152039112919339 0.819152039112919339 0 -0.5735764437432435692 forward_v I I I I #
coedge $-1 $120 $121 $122 $123 forward $44 $-1 #
face $-1 $-1 $124 $20 $-1 $125 forward single #
loop $-1 $-1 $126 $46 #
plane-surface $-1 84.74224226728367171 45.23501573160967126 23.98693356244436004 0.5735764437432435692 0 0.819152039112919339 -0.819152039112919339 0 0.5735764437432435692 forward_v I I I I #
loop $-1 $-1 $127 $27 #
coedge $-1 $78 $78 $126 $128 reversed $47 $-1 #
face $-1 $129 $130 $14 $-1 $131 reversed single #
loop $-1 $-1 $132 $49 #
plane-surface $-1 43.79772331919308925 0 12.99238440475754253 0 1 0 0 0 1 forward_v I I I I #
coedge $-1 $133 $134 $135 $136 forward $50 $-1 #
coedge $-1 $137 $52 $138 $139 forward $29 $-1 #
coedge $-1 $52 $137 $140 $141 forward $29 $-1 #
coedge $-1 $142 $143 $52 $86 reversed $144 $-1 #
edge $-1 $145 -29.77822807075140332 $146 29.77822807075140332 $85 $147 forward 7 unknown #
face $-1 $148 $149 $15 $-1 $150 reversed single #
loop $-1 $-1 $151 $53 #
plane-surface $-1 43.79772331919308925 0 1.62905396670266911 0 1 0 0 0 1 forward_v I I I I #
coedge $-1 $152 $153 $154 $155 forward $54 $-1 #
coedge $-1 $156 $56 $157 $158 forward $32 $-1 #
coedge $-1 $56 $156 $159 $160 forward $32 $-1 #
coedge $-1 $161 $162 $56 $94 reversed $163 $-1 #
edge $-1 $164 -5.411468666740746336 $165 5.411468666740746336 $93 $166 forward 7 unknown #
face $-1 $167 $168 $16 $-1 $169 reversed single #
loop $-1 $-1 $170 $57 #
plane-surface $-1 43.79772331919308925 48.73351880802131575 1.62905396670266911 0 1 0 0 0 1 forward_v I I I I #
coedge $-1 $171 $172 $173 $174 forward $58 $-1 #
coedge $-1 $175 $60 $176 $177 forward $35 $-1 #
coedge $-1 $60 $175 $178 $179 forward $35 $-1 #
coedge $-1 $180 $181 $60 $102 reversed $182 $-1 #
edge $-1 $183 -5.411468666740745448 $184 5.411468666740745448 $101 $185 forward 7 unknown #
face $-1 $186 $187 $17 $-1 $188 reversed single #
loop $-1 $-1 $189 $61 #
plane-surface $-1 -50.24268477094659602 41.73651265519802678 93.74308704621456911 0 1 0 -0.5735764437432435692 0 0.819152039112919339 forward_v I I I I #
coedge $-1 $190 $191 $192 $193 forward $62 $-1 #
coedge $-1 $194 $64 $195 $196 forward $38 $-1 #
coedge $-1 $64 $194 $197 $198 forward $38 $-1 #
coedge $-1 $199 $200 $64 $110 reversed $201 $-1 #
edge $-1 $202 -3.498503076411644486 $203 3.498503076411644486 $109 $204 forward 7 unknown #
loop $-1 $205 $206 $65 #
cone-surface $-1 5.300505583937563436 45.23501573160967126 20.49182528056597619 0.5735764437432435692 0 -0.819152039112919339 0.6143640293346894765 0 0.4301823328074326769 1 I I -0.7071067811865475727 0.7071067811865475727 0.75 forward I I I I #
coedge $-1 $113 $113 $69 $115 forward $66 $-1 #
coedge $-1 $114 $114 $206 $207 forward $68 $-1 #
edge $-1 $208 0 $208 6.283185307179586232 $113 $209 forward 7 unknown #
face $-1 $210 $211 $19 $-1 $212 reversed single #
loop $-1 $-1 $213 $70 #
plane-surface $-1 66.08414267849181556 41.73651265519802678 143.9857718171611793 0 1 0 0.5735764437432435692 0 0.819152039112919339 forward_v I I I I #
coedge $-1 $214 $215 $216 $217 forward $71 $-1 #
coedge $-1 $218 $73 $219 $220 forward $44 $-1 #
coedge $-1 $73 $218 $221 $222 forward $44 $-1 #
coedge $-1 $223 $224 $73 $123 reversed $225 $-1 #
edge $-1 $226 -3.498503076411644486 $227 3.498503076411644486 $122 $228 forward 7 unknown #
loop $-1 $229 $230 $74 #
cone-surface $-1 82.29494105444861418 45.23501573160967126 20.49182528056598329 -0.5735764437432435692 0 -0.819152039112919339 0.6143640293346894765 0 -0.4301823328074326769 1 I I -0.7071067811865475727 0.7071067811865475727 0.75 forward I I I I #
coedge $-1 $126 $126 $78 $128 forward $75 $-1 #
coedge $-1 $127 $127 $230 $231 forward $77 $-1 #
edge $-1 $232 0 $232 6.283185307179586232 $126 $233 forward 7 unknown #
face $-1 $234 $235 $14 $-1 $236 reversed single #
loop $-1 $-1 $237 $79 #
plane-surface $-1 0 29.77822807075140332 12.99238440475754253 1 0 0 0 0 -1 forward_v I I I I #
coedge $-1 $238 $140 $239 $240 forward $80 $-1 #
coedge $-1 $241 $82 $238 $242 forward $50 $-1 #
coedge $-1 $82 $241 $243 $244 forward $50 $-1 #
coedge $-1 $143 $142 $82 $136 reversed $144 $-1 #
edge $-1 $245 -29.77822807075140332 $246 29.77822807075140332 $135 $247 forward 7 unknown #
coedge $-1 $84 $83 $248 $249 forward $29 $-1 #
coedge $-1 $250 $251 $83 $139 reversed $235 $-1 #
edge $-1 $146 -43.79772331919308925 $252 43.79772331919308925 $138 $253 forward 7 unknown #
coedge $-1 $132 $254 $84 $141 reversed $80 $-1 #
edge $-1 $255 -43.79772331919308925 $145 43.79772331919308925 $140 $256 forward 7 unknown #
coedge $-1 $135 $85 $254 $257 forward $144 $-1 #
coedge $-1 $85 $135 $250 $258 reversed $144 $-1 #
loop $-1 $-1 $142 $234 #
vertex $-1 $86 $259 #
vertex $-1 $86 $260 #
straight-curve $-1 87.59544663838617851 29.77822807075140332 25.98476880951508505 0 1 0 I I #
face $-1 $261 $262 $15 $-1 $263 reversed single #
loop $-1 $-1 $264 $87 #
plane-surface $-1 0 5.411468666740746336 1.62905396670266911 1 0 0 0 0 -1 forward_v I I I I #
coedge $-1 $265 $159 $266 $267 forward $88 $-1 #
coedge $-1 $268 $90 $265 $269 forward $54 $-1 #
coedge $-1 $90 $268 $270 $271 forward $54 $-1 #
coedge $-1 $162 $161 $90 $155 reversed $163 $-1 #
edge $-1 $272 -5.411468666740746336 $273 5.411468666740746336 $154 $274 forward 7 unknown #
coedge $-1 $92 $91 $275 $276 forward $32 $-1 #
coedge $-1 $277 $278 $91 $158 reversed $262 $-1 #
edge $-1 $165 -43.79772331919308925 $279 43.79772331919308925 $157 $280 forward 7 unknown #
coedge $-1 $151 $281 $92 $160 reversed $88 $-1 #
edge $-1 $282 -43.79772331919308925 $164 43.79772331919308925 $159 $283 forward 7 unknown #
coedge $-1 $154 $93 $281 $284 forward $163 $-1 #
coedge $-1 $93 $154 $277 $285 reversed $163 $-1 #
loop $-1 $-1 $161 $261 #
vertex $-1 $94 $286 #
vertex $-1 $94 $287 #
straight-curve $-1 87.59544663838617851 5.411468666740746336 3.258107933405338219 0 1 0 I I #
face $-1 $288 $289 $16 $-1 $290 reversed single #
loop $-1 $-1 $291 $95 #
plane-surface $-1 0 54.1449874747620612 1.62905396670266911 1 0 0 0 0 -1 forward_v I I I I #
coedge $-1 $292 $178 $293 $294 forward $96 $-1 #
coedge $-1 $295 $98 $292 $296 forward $58 $-1 #
coedge $-1 $98 $295 $297 $298 forward $58 $-1 #
coedge $-1 $181 $180 $98 $174 reversed $182 $-1 #
edge $-1 $299 -5.411468666740745448 $300 5.411468666740745448 $173 $301 forward 7 unknown #
coedge $-1 $100 $99 $302 $303 forward $35 $-1 #
coedge $-1 $304 $305 $99 $177 reversed $289 $-1 #
edge $-1 $184 -43.79772331919308925 $306 43.79772331919308925 $176 $307 forward 7 unknown #
coedge $-1 $170 $308 $100 $179 reversed $96 $-1 #
edge $-1 $309 -43.79772331919308925 $183 43.79772331919308925 $178 $310 forward 7 unknown #
coedge $-1 $173 $101 $308 $311 forward $182 $-1 #
coedge $-1 $101 $173 $304 $312 reversed $182 $-1 #
loop $-1 $-1 $180 $288 #
vertex $-1 $102 $313 #
vertex $-1 $102 $314 #
straight-curve $-1 87.59544663838617851 54.1449874747620612 3.258107933405338219 0 1 0 I I #
face $-1 $315 $316 $17 $-1 $317 reversed single #
loop $-1 $-1 $318 $103 #
plane-surface $-1 -193.7506622326285139 45.23501573160967126 -6.742282495678637133 0.819152039112919339 0 0.5735764437432435692 0.5735764437432435692 0 -0.819152039112919339 forward_v I I I I #
coedge $-1 $319 $197 $320 $321 forward $104 $-1 #
coedge $-1 $322 $106 $319 $323 forward $62 $-1 #
coedge $-1 $106 $322 $324 $325 forward $62 $-1 #
coedge $-1 $200 $199 $106 $193 reversed $201 $-1 #
edge $-1 $326 -3.498503076411644486 $327 3.498503076411644486 $192 $328 forward 7 unknown #
coedge $-1 $108 $107 $329 $330 forward $38 $-1 #
coedge $-1 $331 $332 $107 $196 reversed $316 $-1 #
edge $-1 $203 -175.190893276772357 $333 175.190893276772357 $195 $334 forward 7 unknown #
coedge $-1 $189 $335 $108 $198 reversed $104 $-1 #
edge $-1 $336 -175.190893276772357 $202 175.190893276772357 $197 $337 forward 7 unknown #
coedge $-1 $192 $109 $335 $338 forward $201 $-1 #
coedge $-1 $109 $192 $331 $339 reversed $201 $-1 #
loop $-1 $-1 $199 $315 #
vertex $-1 $110 $340 #
vertex $-1 $110 $341 #
straight-curve $-1 43.02260791978872589 45.23501573160967126 265.9824453189487485 0 1 0 I I #
loop $-1 $-1 $342 $65 #
coedge $-1 $206 $206 $114 $207 reversed $111 $-1 #
edge $-1 $343 0 $343 6.283185307179586232 $206 $344 forward 7 unknown #
vertex $-1 $115 $345 #
ellipse-curve $-1 2.85320437110250591 45.23501573160967126 23.98693356244435293 -0.5735764437432435692 0 0.819152039112919339 1.228728058669378953 0 0.8603646656148653538 1 I I #
face $-1 $346 $347 $19 $-1 $348 reversed single #
loop $-1 $-1 $349 $116 #
plane-surface $-1 -77.42383478319010237 45.23501573160967126 244.4711413590543998 0.819152039112919339 0 -0.5735764437432435692 -0.5735764437432435692 0 -0.819152039112919339 forward_v I I I I #
coedge $-1 $350 $221 $351 $352 forward $117 $-1 #
coedge $-1 $353 $119 $350 $354 forward $71 $-1 #
coedge $-1 $119 $353 $355 $356 forward $71 $-1 #
coedge $-1 $224 $223 $119 $217 reversed $225 $-1 #
edge $-1 $357 -3.498503076411644486 $358 3.498503076411644486 $216 $359 forward 7 unknown #
coedge $-1 $121 $120 $360 $361 forward $44 $-1 #
coedge $-1 $362 $363 $120 $220 reversed $347 $-1 #
edge $-1 $227 -175.190893276772357 $364 175.190893276772357 $219 $365 forward 7 unknown #
coedge $-1 $213 $366 $121 $222 reversed $117 $-1 #
edge $-1 $367 -175.190893276772357 $226 175.190893276772357 $221 $368 forward 7 unknown #
coedge $-1 $216 $122 $366 $369 forward $225 $-1 #
coedge $-1 $122 $216 $362 $370 reversed $225 $-1 #
loop $-1 $-1 $223 $346 #
vertex $-1 $123 $371 #
vertex $-1 $123 $372 #
straight-curve $-1 259.8348049111203295 45.23501573160967126 115.2543910061089321 0 1 0 I I #
loop $-1 $-1 $373 $74 #
coedge $-1 $230 $230 $127 $231 reversed $124 $-1 #
edge $-1 $374 0 $374 6.283185307179586232 $230 $375 forward 7 unknown #
vertex $-1 $128 $376 #
ellipse-curve $-1 84.74224226728367171 45.23501573160967126 23.98693356244436004 0.5735764437432435692 0 0.819152039112919339 1.228728058669378953 0 -0.8603646656148653538 1 I I #
face $-1 $-1 $144 $14 $-1 $377 reversed single #
loop $-1 $-1 $250 $129 #
plane-surface $-1 43.79772331919308925 59.55645614150280664 12.99238440475754253 0 -1 0 0 0 -1 forward_v I I I I #
coedge $-1 $378 $248 $251 $379 forward $130 $-1 #
coedge $-1 $254 $132 $133 $242 reversed $80 $-1 #
coedge $-1 $248 $378 $132 $240 reversed $130 $-1 #
edge $-1 $255 -12.99238440475754253 $380 12.99238440475754253 $239 $381 forward 7 unknown #
coedge $-1 $134 $133 $378 $382 forward $50 $-1 #
edge $-1 $246 -43.79772331919308925 $380 43.79772331919308925 $238 $383 forward 7 unknown #
coedge $-1 $251 $250 $134 $244 reversed $235 $-1 #
edge $-1 $384 -43.79772331919308925 $245 43.79772331919308925 $243 $385 forward 7 unknown #
vertex $-1 $136 $386 #
vertex $-1 $257 $387 #
straight-curve $-1 87.59544663838617851 29.77822807075140332 0 0 -1 0 I I #
coedge $-1 $237 $239 $137 $249 reversed $130 $-1 #
edge $-1 $252 -29.77822807075140332 $255 29.77822807075140332 $248 $388 forward 7 unknown #
coedge $-1 $243 $138 $143 $258 forward $235 $-1 #
coedge $-1 $138 $243 $237 $379 reversed $235 $-1 #
vertex $-1 $139 $389 #
straight-curve $-1 43.79772331919308925 59.55645614150280664 25.98476880951508505 -1 0 0 I I #
coedge $-1 $140 $238 $142 $257 reversed $80 $-1 #
vertex $-1 $249 $390 #
straight-curve $-1 43.79772331919308925 0 25.98476880951508505 1 0 0 I I #
edge $-1 $145 -12.99238440475754253 $246 12.99238440475754253 $142 $391 forward 7 unknown #
edge $-1 $146 -12.99238440475754253 $245 12.99238440475754253 $143 $392 forward 7 unknown #
point $-1 87.59544663838617851 0 25.98476880951508505 #
point $-1 87.59544663838617851 59.55645614150280664 25.98476880951508505 #
face $-1 $-1 $163 $15 $-1 $393 reversed single #
loop $-1 $-1 $277 $148 #
plane-surface $-1 43.79772331919308925 10.82293733348149267 1.62905396670266911 0 -1 0 0 0 -1 forward_v I I I I #
coedge $-1 $394 $275 $278 $395 forward $149 $-1 #
coedge $-1 $281 $151 $152 $269 reversed $88 $-1 #
coedge $-1 $275 $394 $151 $267 reversed $149 $-1 #
edge $-1 $282 -1.62905396670266911 $396 1.62905396670266911 $266 $397 forward 7 unknown #
coedge $-1 $153 $152 $394 $398 forward $54 $-1 #
edge $-1 $273 -43.79772331919308925 $396 43.79772331919308925 $265 $399 forward 7 unknown #
coedge $-1 $278 $277 $153 $271 reversed $262 $-1 #
edge $-1 $400 -43.79772331919308925 $272 43.79772331919308925 $270 $401 forward 7 unknown #
vertex $-1 $155 $402 #
vertex $-1 $284 $403 #
straight-curve $-1 87.59544663838617851 5.411468666740746336 0 0 -1 0 I I #
coedge $-1 $264 $266 $156 $276 reversed $149 $-1 #
edge $-1 $279 -5.411468666740746336 $282 5.411468666740746336 $275 $404 forward 7 unknown #
coedge $-1 $270 $157 $162 $285 forward $262 $-1 #
coedge $-1 $157 $270 $264 $395 reversed $262 $-1 #
vertex $-1 $158 $405 #
straight-curve $-1 43.79772331919308925 10.82293733348149267 3.258107933405338219 -1 0 0 I I #
coedge $-1 $159 $265 $161 $284 reversed $88 $-1 #
vertex $-1 $276 $406 #
straight-curve $-1 43.79772331919308925 0 3.258107933405338219 1 0 0 I I #
edge $-1 $164 -1.62905396670266911 $273 1.62905396670266911 $161 $407 forward 7 unknown #
edge $-1 $165 -1.62905396670266911 $272 1.62905396670266911 $162 $408 forward 7 unknown #
point $-1 87.59544663838617851 0 3.258107933405338219 #
point $-1 87.59544663838617851 10.82293733348149267 3.258107933405338219 #
face $-1 $-1 $182 $16 $-1 $409 reversed single #
loop $-1 $-1 $304 $167 #
plane-surface $-1 43.79772331919308925 59.55645614150280664 1.62905396670266911 0 -1 0 0 0 -1 forward_v I I I I #
coedge $-1 $410 $302 $305 $411 forward $168 $-1 #
coedge $-1 $308 $170 $171 $296 reversed $96 $-1 #
coedge $-1 $302 $410 $170 $294 reversed $168 $-1 #
edge $-1 $309 -1.62905396670266911 $412 1.62905396670266911 $293 $413 forward 7 unknown #
coedge $-1 $172 $171 $410 $414 forward $58 $-1 #
edge $-1 $300 -43.79772331919308925 $412 43.79772331919308925 $292 $415 forward 7 unknown #
coedge $-1 $305 $304 $172 $298 reversed $289 $-1 #
edge $-1 $416 -43.79772331919308925 $299 43.79772331919308925 $297 $417 forward 7 unknown #
vertex $-1 $174 $418 #
vertex $-1 $311 $419 #
straight-curve $-1 87.59544663838617851 54.1449874747620612 0 0 -1 0 I I #
coedge $-1 $291 $293 $175 $303 reversed $168 $-1 #
edge $-1 $306 -5.411468666740745448 $309 5.411468666740745448 $302 $420 forward 7 unknown #
coedge $-1 $297 $176 $181 $312 forward $289 $-1 #
coedge $-1 $176 $297 $291 $411 reversed $289 $-1 #
vertex $-1 $177 $421 #
straight-curve $-1 43.79772331919308925 59.55645614150280664 3.258107933405338219 -1 0 0 I I #
coedge $-1 $178 $292 $180 $311 reversed $96 $-1 #
vertex $-1 $303 $422 #
straight-curve $-1 43.79772331919308925 48.73351880802131575 3.258107933405338219 1 0 0 I I #
edge $-1 $183 -1.62905396670266911 $300 1.62905396670266911 $180 $423 forward 7 unknown #
edge $-1 $184 -1.62905396670266911 $299 1.62905396670266911 $181 $424 forward 7 unknown #
point $-1 87.59544663838617851 48.73351880802131575 3.258107933405338219 #
point $-1 87.59544663838617851 59.55645614150280664 3.258107933405338219 #
face $-1 $-1 $201 $17 $-1 $425 reversed single #
loop $-1 $-1 $331 $186 #
plane-surface $-1 -50.24268477094659602 48.73351880802131575 93.74308704621456911 0 -1 0 0.5735764437432435692 0 -0.819152039112919339 forward_v I I I I #
coedge $-1 $426 $329 $332 $427 forward $187 $-1 #
coedge $-1 $335 $189 $190 $323 reversed $104 $-1 #
coedge $-1 $329 $426 $189 $321 reversed $187 $-1 #
edge $-1 $336 -87.59544663838617851 $428 87.59544663838617851 $320 $429 forward 7 unknown #
coedge $-1 $191 $190 $426 $430 forward $62 $-1 #
edge $-1 $327 -175.190893276772357 $428 175.190893276772357 $319 $431 forward 7 unknown #
coedge $-1 $332 $331 $191 $325 reversed $316 $-1 #
edge $-1 $432 -175.190893276772357 $326 175.190893276772357 $324 $433 forward 7 unknown #
vertex $-1 $193 $434 #
vertex $-1 $338 $435 #
straight-curve $-1 143.5079774616819179 45.23501573160967126 122.4744678572668164 0 -1 0 I I #
coedge $-1 $318 $320 $194 $330 reversed $187 $-1 #
edge $-1 $333 -3.498503076411644486 $336 3.498503076411644486 $329 $436 forward 7 unknown #
coedge $-1 $324 $195 $200 $339 forward $316 $-1 #
coedge $-1 $195 $324 $318 $427 reversed $316 $-1 #
vertex $-1 $196 $437 #
straight-curve $-1 -100.485369541893192 48.73351880802131575 165.4970757770555281 -0.819152039112919339 0 -0.5735764437432435692 I I #
coedge $-1 $197 $319 $199 $338 reversed $104 $-1 #
vertex $-1 $330 $438 #
straight-curve $-1 -100.485369541893192 41.73651265519802678 165.4970757770555281 0.819152039112919339 0 0.5735764437432435692 I I #
edge $-1 $202 -87.59544663838619272 $327 87.59544663838617851 $199 $439 forward 7 unknown #
edge $-1 $203 -87.59544663838619272 $326 87.59544663838617851 $200 $440 forward 7 unknown #
point $-1 43.02260791978872589 41.73651265519802678 265.9824453189487485 #
point $-1 43.02260791978872589 48.73351880802131575 265.9824453189487485 #
coedge $-1 $342 $342 $-1 $441 reversed $205 $-1 #
vertex $-1 $207 $442 #
ellipse-curve $-1 4.87032325113013087 45.23501573160967126 21.10618930990066389 -0.5735764437432435692 0 0.819152039112919339 1.228728058669378953 0 0.8603646656148653538 1 I I #
point $-1 4.081932429771884863 45.23501573160967126 24.84729822805921984 #
face $-1 $-1 $225 $19 $-1 $443 reversed single #
loop $-1 $-1 $362 $210 #
plane-surface $-1 66.08414267849181556 48.73351880802131575 143.9857718171611793 0 -1 0 -0.5735764437432435692 0 -0.819152039112919339 forward_v I I I I #
coedge $-1 $444 $360 $363 $445 forward $211 $-1 #
coedge $-1 $366 $213 $214 $354 reversed $117 $-1 #
coedge $-1 $360 $444 $213 $352 reversed $211 $-1 #
edge $-1 $367 -87.5954466383861643 $446 87.59544663838619272 $351 $447 forward 7 unknown #
coedge $-1 $215 $214 $444 $448 forward $71 $-1 #
edge $-1 $358 -175.190893276772357 $446 175.190893276772357 $350 $449 forward 7 unknown #
coedge $-1 $363 $362 $215 $356 reversed $347 $-1 #
edge $-1 $450 -175.190893276772357 $357 175.190893276772357 $355 $451 forward 7 unknown #
vertex $-1 $217 $452 #
vertex $-1 $369 $453 #
straight-curve $-1 159.3494353692271375 45.23501573160967126 -28.25358645557298587 0 -1 0 I I #
coedge $-1 $349 $351 $218 $361 reversed $211 $-1 #
edge $-1 $364 -3.498503076411644486 $367 3.498503076411644486 $360 $454 forward 7 unknown #
coedge $-1 $355 $219 $224 $370 forward $347 $-1 #
coedge $-1 $219 $355 $349 $445 reversed $347 $-1 #
vertex $-1 $220 $455 #
straight-curve $-1 116.3268274494384116 48.73351880802131575 215.7397605480021525 -0.819152039112919339 0 0.5735764437432435692 I I #
coedge $-1 $221 $350 $223 $369 reversed $117 $-1 #
vertex $-1 $361 $456 #
straight-curve $-1 116.3268274494384116 41.73651265519802678 215.7397605480021525 0.819152039112919339 0 -0.5735764437432435692 I I #
edge $-1 $226 -87.59544663838617851 $358 87.59544663838617851 $223 $457 forward 7 unknown #
edge $-1 $227 -87.59544663838617851 $357 87.59544663838617851 $224 $458 forward 7 unknown #
point $-1 259.8348049111203295 41.73651265519802678 115.2543910061089321 #
point $-1 259.8348049111203295 48.73351880802131575 115.2543910061089321 #
coedge $-1 $373 $373 $-1 $459 reversed $229 $-1 #
vertex $-1 $231 $460 #
ellipse-curve $-1 82.72512338725604764 45.23501573160967126 21.10618930990067099 0.5735764437432435692 0 0.819152039112919339 1.228728058669378953 0 -0.8603646656148653538 1 I I #
point $-1 85.97097032595304711 45.23501573160967126 23.12656889682949668 #
plane-surface $-1 87.59544663838617851 29.77822807075140332 12.99238440475754253 -1 0 0 0 0 1 forward_v I I I I #
coedge $-1 $239 $237 $241 $382 reversed $130 $-1 #
edge $-1 $252 -12.99238440475754253 $384 12.99238440475754253 $251 $461 forward 7 unknown #
vertex $-1 $382 $462 #
straight-curve $-1 0 0 12.99238440475754253 0 0 -1 I I #
edge $-1 $380 -29.77822807075140332 $384 29.77822807075140332 $378 $463 forward 7 unknown #
straight-curve $-1 43.79772331919308925 0 0 -1 0 0 I I #
vertex $-1 $244 $464 #
straight-curve $-1 43.79772331919308925 59.55645614150280664 0 1 0 0 I I #
point $-1 87.59544663838617851 59.55645614150280664 0 #
point $-1 87.59544663838617851 0 0 #
straight-curve $-1 0 29.77822807075140332 25.98476880951508505 0 -1 0 I I #
point $-1 0 59.55645614150280664 25.98476880951508505 #
point $-1 0 0 25.98476880951508505 #
straight-curve $-1 87.59544663838617851 0 12.99238440475754253 0 0 -1 I I #
straight-curve $-1 87.59544663838617851 59.55645614150280664 12.99238440475754253 0 0 -1 I I #
plane-surface $-1 87.59544663838617851 5.411468666740746336 1.62905396670266911 -1 0 0 0 0 1 forward_v I I I I #
coedge $-1 $266 $264 $268 $398 reversed $149 $-1 #
edge $-1 $279 -1.62905396670266911 $400 1.62905396670266911 $278 $465 forward 7 unknown #
vertex $-1 $398 $466 #
straight-curve $-1 0 0 1.62905396670266911 0 0 -1 I I #
edge $-1 $396 -5.411468666740746336 $400 5.411468666740746336 $394 $467 forward 7 unknown #
straight-curve $-1 43.79772331919308925 0 0 -1 0 0 I I #
vertex $-1 $271 $468 #
straight-curve $-1 43.79772331919308925 10.82293733348149267 0 1 0 0 I I #
point $-1 87.59544663838617851 10.82293733348149267 0 #
point $-1 87.59544663838617851 0 0 #
straight-curve $-1 0 5.411468666740746336 3.258107933405338219 0 -1 0 I I #
point $-1 0 10.82293733348149267 3.258107933405338219 #
point $-1 0 0 3.258107933405338219 #
straight-curve $-1 87.59544663838617851 0 1.62905396670266911 0 0 -1 I I #
straight-curve $-1 87.59544663838617851 10.82293733348149267 1.62905396670266911 0 0 -1 I I #
plane-surface $-1 87.59544663838617851 54.1449874747620612 1.62905396670266911 -1 0 0 0 0 1 forward_v I I I I #
coedge $-1 $293 $291 $295 $414 reversed $168 $-1 #
edge $-1 $306 -1.62905396670266911 $416 1.62905396670266911 $305 $469 forward 7 unknown #
vertex $-1 $414 $470 #
straight-curve $-1 0 48.73351880802131575 1.62905396670266911 0 0 -1 I I #
edge $-1 $412 -5.411468666740745448 $416 5.411468666740745448 $410 $471 forward 7 unknown #
straight-curve $-1 43.79772331919308925 48.73351880802131575 0 -1 0 0 I I #
vertex $-1 $298 $472 #
straight-curve $-1 43.79772331919308925 59.55645614150280664 0 1 0 0 I I #
point $-1 87.59544663838617851 59.55645614150280664 0 #
point $-1 87.59544663838617851 48.73351880802131575 0 #
straight-curve $-1 0 54.1449874747620612 3.258107933405338219 0 -1 0 I I #
point $-1 0 59.55645614150280664 3.258107933405338219 #
point $-1 0 48.73351880802131575 3.258107933405338219 #
straight-curve $-1 87.59544663838617851 48.73351880802131575 1.62905396670266911 0 0 -1 I I #
straight-curve $-1 87.59544663838617851 59.55645614150280664 1.62905396670266911 0 0 -1 I I #
plane-surface $-1 93.26529269073532191 45.23501573160967126 194.2284565881077754 -0.819152039112919339 0 -0.5735764437432435692 -0.5735764437432435692 0 0.819152039112919339 forward_v I I I I #
coedge $-1 $320 $318 $322 $430 reversed $187 $-1 #
edge $-1 $333 -87.59544663838617851 $432 87.59544663838617851 $332 $473 forward 7 unknown #
vertex $-1 $430 $474 #
straight-curve $-1 -193.7506622326285139 41.73651265519802678 -6.742282495678637133 0.5735764437432435692 0 -0.819152039112919339 I I #
edge $-1 $428 -3.498503076411644486 $432 3.498503076411644486 $426 $475 forward 7 unknown #
straight-curve $-1 7.105427357601001859e-15 41.73651265519802678 21.98909831537361015 -0.819152039112919339 0 -0.5735764437432435692 I I #
vertex $-1 $325 $476 #
straight-curve $-1 7.105427357601001859e-15 48.73351880802131575 21.98909831537361015 0.819152039112919339 0 0.5735764437432435692 I I #
point $-1 143.5079774616819179 48.73351880802131575 122.4744678572668164 #
point $-1 143.5079774616819179 41.73651265519802678 122.4744678572668164 #
straight-curve $-1 -243.99334700357511 45.23501573160967126 65.01170623516232183 0 -1 0 I I #
point $-1 -243.99334700357511 48.73351880802131575 65.01170623516232183 #
point $-1 -243.99334700357511 41.73651265519802678 65.01170623516232183 #
straight-curve $-1 93.26529269073532191 41.73651265519802678 194.2284565881077754 0.5735764437432435692 0 -0.819152039112919339 I I #
straight-curve $-1 93.26529269073532191 48.73351880802131575 194.2284565881077754 0.5735764437432435692 0 -0.819152039112919339 I I #
edge $-1 $477 1 $477 0 $342 $-1 forward 7 unknown #
point $-1 6.099051309799509824 45.23501573160967126 21.96655397551553079 #
plane-surface $-1 209.5921201401737335 45.23501573160967126 43.5004022752679731 -0.819152039112919339 0 0.5735764437432435692 0.5735764437432435692 0 0.819152039112919339 forward_v I I I I #
coedge $-1 $351 $349 $353 $448 reversed $211 $-1 #
edge $-1 $364 -87.5954466383861643 $450 87.59544663838619272 $363 $478 forward 7 unknown #
vertex $-1 $448 $479 #
straight-curve $-1 -77.42383478319010237 41.73651265519802678 244.4711413590543998 -0.5735764437432435692 0 -0.819152039112919339 I I #
edge $-1 $446 -3.498503076411644486 $450 3.498503076411644486 $444 $480 forward 7 unknown #
straight-curve $-1 15.84145790754521244 41.73651265519802678 72.23178308632022038 -0.819152039112919339 0 0.5735764437432435692 I I #
vertex $-1 $356 $481 #
straight-curve $-1 15.84145790754521244 48.73351880802131575 72.23178308632022038 0.819152039112919339 0 -0.5735764437432435692 I I #
point $-1 159.3494353692271375 48.73351880802131575 -28.25358645557298587 #
point $-1 159.3494353692271375 41.73651265519802678 -28.25358645557298587 #
straight-curve $-1 -27.18115001224350635 45.23501573160967126 316.2251300898953446 0 -1 0 I I #
point $-1 -27.18115001224350635 48.73351880802131575 316.2251300898953446 #
point $-1 -27.18115001224350635 41.73651265519802678 316.2251300898953446 #
straight-curve $-1 209.5921201401737335 41.73651265519802678 43.5004022752679731 -0.5735764437432435692 0 -0.819152039112919339 I I #
straight-curve $-1 209.5921201401737335 48.73351880802131575 43.5004022752679731 -0.5735764437432435692 0 -0.819152039112919339 I I #
edge $-1 $482 1 $482 0 $373 $-1 forward 7 unknown #
point $-1 83.95385144592542304 45.23501573160967126 20.24582464428580764 #
straight-curve $-1 0 59.55645614150280664 12.99238440475754253 0 0 -1 I I #
point $-1 0 0 0 #
straight-curve $-1 0 29.77822807075140332 0 0 1 0 I I #
point $-1 0 59.55645614150280664 0 #
straight-curve $-1 0 10.82293733348149267 1.62905396670266911 0 0 -1 I I #
point $-1 0 0 0 #
straight-curve $-1 0 5.411468666740746336 0 0 1 0 I I #
point $-1 0 10.82293733348149267 0 #
straight-curve $-1 0 59.55645614150280664 1.62905396670266911 0 0 -1 I I #
point $-1 0 48.73351880802131575 0 #
straight-curve $-1 0 54.1449874747620612 0 0 1 0 I I #
point $-1 0 59.55645614150280664 0 #
straight-curve $-1 -193.7506622326285139 48.73351880802131575 -6.742282495678637133 0.5735764437432435692 0 -0.819152039112919339 I I #
point $-1 -143.5079774616819179 41.73651265519802678 -78.4962712265195961 #
straight-curve $-1 -143.5079774616819179 45.23501573160967126 -78.4962712265195961 0 1 0 I I #
point $-1 -143.5079774616819179 48.73351880802131575 -78.4962712265195961 #
vertex $-1 $441 $483 #
straight-curve $-1 -77.42383478319010237 48.73351880802131575 244.4711413590543998 -0.5735764437432435692 0 -0.819152039112919339 I I #
point $-1 -127.6665195541366984 41.73651265519802678 172.7171526282134266 #
straight-curve $-1 -127.6665195541366984 45.23501573160967126 172.7171526282134266 0 1 0 I I #
point $-1 -127.6665195541366984 48.73351880802131575 172.7171526282134266 #
vertex $-1 $459 $484 #
point $-1 5.730687916744996002 45.23501573160967126 19.87746125123128849 #
point $-1 81.86475872164118073 45.23501573160967126 19.87746125123129559 #
End-of-ACIS-data 