600 0 5 0           
92 GICL ACIS Healer - Source: /gicl/data5/repository/Drexel/SM99-DATA/part94.smdg.des.sat - 6 0 18 ACIS 6.0.3 Solaris 24 Sat Apr 13 20:47:02 2002 
1 9.999999999999999547e-07 1.000000000000000036e-10 
body $-1 $5 $-1 $-1 #
body $-1 $6 $-1 $-1 #
body $-1 $7 $-1 $-1 #
body $-1 $8 $-1 $-1 #
body $-1 $9 $-1 $-1 #
lump $-1 $-1 $10 $0 #
lump $-1 $-1 $11 $1 #
lump $-1 $-1 $12 $2 #
lump $-1 $-1 $13 $3 #
lump $-1 $-1 $14 $4 #
shell $-1 $-1 $-1 $15 $-1 $5 #
shell $-1 $-1 $-1 $16 $-1 $6 #
shell $-1 $-1 $-1 $17 $-1 $7 #
shell $-1 $-1 $-1 $18 $-1 $8 #
shell $-1 $-1 $-1 $19 $-1 $9 #
face $-1 $20 $21 $10 $-1 $22 forward single #
face $-1 $23 $24 $11 $-1 $25 forward single #
face $-1 $26 $27 $12 $-1 $28 reversed single #
face $-1 $29 $30 $13 $-1 $31 reversed single #
face $-1 $32 $33 $14 $-1 $34 reversed single #
face $-1 $35 $36 $10 $-1 $37 reversed single #
loop $-1 $-1 $38 $15 #
plane-surface $-1 46.95455793939024147 23.32796212844372619 17.82228683549329773 0 0 1 1 0 0 forward_v I I I I #
face $-1 $39 $40 $11 $-1 $41 forward single #
loop $-1 $-1 $42 $16 #
plane-surface $-1 -61.60992412601511603 8.331407004846759889 80.15308633540793437 0 -1 0 0.6560590369687036016 0 -0.754709573287431712 forward_v I I I I #
face $-1 $43 $44 $12 $-1 $45 reversed single #
loop $-1 $46 $47 $17 #
cone-surface $-1 5.242005953820502384 1.666281400969349846 13.17327741246970163 0.6560590369687036016 0 -0.754709573287431712 0.188677393321857928 0 0.1640147592421759004 1 I I 0 1 0.25 forward I I I I #
face $-1 $48 $49 $13 $-1 $50 reversed single #
loop $-1 $51 $52 $18 #
cone-surface $-1 5.242005953820502384 4.165703502423379945 13.17327741246970163 0.6560590369687036016 0 -0.754709573287431712 0.188677393321857928 0 0.1640147592421759004 1 I I 0 1 0.25 forward I I I I #
face $-1 $53 $54 $14 $-1 $55 reversed single #
loop $-1 $56 $57 $19 #
cone-surface $-1 5.242005953820502384 6.66512560387740649 13.17327741246970163 0.6560590369687036016 0 -0.754709573287431712 0.188677393321857928 0 0.1640147592421759004 1 I I 0 1 0.25 forward I I I I #
face $-1 $58 $59 $10 $-1 $60 reversed single #
loop $-1 $-1 $61 $20 #
plane-surface $-1 46.95455793939024147 23.32796212844372619 0 0 0 1 1 0 0 forward_v I I I I #
coedge $-1 $62 $63 $64 $65 forward $21 $-1 #
face $-1 $66 $67 $11 $-1 $68 reversed single #
loop $-1 $-1 $69 $23 #
plane-surface $-1 0 4.165703502423379945 9.278977562733549789 -0.6560590369687036016 0 0.754709573287431712 0.754709573287431712 0 0.6560590369687036016 forward_v I I I I #
coedge $-1 $70 $71 $72 $73 reversed $24 $-1 #
face $-1 $74 $75 $12 $-1 $76 forward single #
loop $-1 $77 $78 $26 #
cone-surface $-1 5.652042851925941136 1.666281400969349846 12.70158392916505719 0.6560590369687036016 0 -0.754709573287431712 0.094338696660928964 0 0.08200737962108795021 1 I I -0.7071067811865474617 0.7071067811865474617 0.125 forward I I I I #
loop $-1 $-1 $79 $17 #
coedge $-1 $47 $47 $80 $81 reversed $27 $-1 #
face $-1 $82 $83 $13 $-1 $84 reversed single #
loop $-1 $85 $86 $29 #
cone-surface $-1 5.652042851925941136 4.165703502423379945 12.70158392916505719 0.6560590369687036016 0 -0.754709573287431712 0.094338696660928964 0 0.08200737962108795021 1 I I -0.7071067811865474617 0.7071067811865474617 0.125 forward I I I I #
loop $-1 $-1 $87 $18 #
coedge $-1 $52 $52 $88 $89 reversed $30 $-1 #
face $-1 $90 $91 $14 $-1 $92 reversed single #
loop $-1 $93 $94 $32 #
cone-surface $-1 5.652042851925941136 6.66512560387740649 12.70158392916505719 0.6560590369687036016 0 -0.754709573287431712 0.094338696660928964 0 0.08200737962108795021 1 I I -0.7071067811865474617 0.7071067811865474617 0.125 forward I I I I #
loop $-1 $-1 $95 $19 #
coedge $-1 $57 $57 $96 $97 reversed $33 $-1 #
face $-1 $98 $99 $10 $-1 $100 reversed single #
loop $-1 $-1 $101 $35 #
plane-surface $-1 46.95455793939024147 0 8.911143417746648865 0 1 0 0 0 1 forward_v I I I I #
coedge $-1 $102 $103 $104 $105 forward $36 $-1 #
coedge $-1 $106 $38 $107 $108 forward $21 $-1 #
coedge $-1 $38 $106 $109 $110 forward $21 $-1 #
coedge $-1 $111 $112 $38 $65 reversed $113 $-1 #
edge $-1 $114 -23.32796212844372619 $115 23.32796212844372619 $64 $116 forward 7 unknown #
face $-1 $117 $118 $11 $-1 $119 forward single #
loop $-1 $-1 $120 $39 #
plane-surface $-1 0 23.32796212844372619 8.911143417746648865 1 0 0 0 0 -1 forward_v I I I I #
coedge $-1 $121 $122 $120 $123 reversed $40 $-1 #
coedge $-1 $71 $42 $122 $124 forward $24 $-1 #
coedge $-1 $42 $70 $125 $126 reversed $24 $-1 #
coedge $-1 $127 $120 $42 $73 forward $67 $-1 #
edge $-1 $128 -35.25313731384374449 $129 -26.70982804108399833 $72 $130 forward 7 unknown #
face $-1 $131 $132 $12 $-1 $133 forward single #
loop $-1 $-1 $134 $43 #
plane-surface $-1 -61.60992412601511603 8.331407004846759889 80.15308633540793437 0 -1 0 0.6560590369687036016 0 -0.754709573287431712 forward_v I I I I #
loop $-1 $-1 $135 $26 #
coedge $-1 $78 $78 $79 $136 forward $44 $-1 #
coedge $-1 $79 $79 $78 $136 reversed $46 $-1 #
coedge $-1 $80 $80 $47 $81 forward $132 $-1 #
edge $-1 $137 0 $137 6.283185307179586232 $80 $138 forward 7 unknown #
face $-1 $139 $140 $13 $-1 $141 reversed single #
loop $-1 $142 $143 $48 #
cone-surface $-1 5.242005953820502384 1.666281400969349846 13.17327741246970163 0.6560590369687036016 0 -0.754709573287431712 0.188677393321857928 0 0.1640147592421759004 1 I I 0 1 0.25 forward I I I I #
loop $-1 $-1 $144 $29 #
coedge $-1 $86 $86 $87 $145 forward $49 $-1 #
coedge $-1 $87 $87 $86 $145 reversed $51 $-1 #
coedge $-1 $88 $88 $52 $89 forward $146 $-1 #
edge $-1 $147 0 $147 6.283185307179586232 $88 $148 forward 7 unknown #
face $-1 $149 $150 $14 $-1 $151 reversed single #
loop $-1 $152 $153 $53 #
cone-surface $-1 5.242005953820502384 4.165703502423379945 13.17327741246970163 0.6560590369687036016 0 -0.754709573287431712 0.188677393321857928 0 0.1640147592421759004 1 I I 0 1 0.25 forward I I I I #
loop $-1 $-1 $154 $32 #
coedge $-1 $94 $94 $95 $155 forward $54 $-1 #
coedge $-1 $95 $95 $94 $155 reversed $56 $-1 #
coedge $-1 $96 $96 $57 $97 forward $156 $-1 #
edge $-1 $157 0 $157 6.283185307179586232 $96 $158 forward 7 unknown #
face $-1 $159 $160 $10 $-1 $161 reversed single #
loop $-1 $-1 $162 $58 #
plane-surface $-1 0 23.32796212844372619 8.911143417746648865 1 0 0 0 0 -1 forward_v I I I I #
coedge $-1 $163 $109 $164 $165 forward $59 $-1 #
coedge $-1 $166 $61 $163 $167 forward $36 $-1 #
coedge $-1 $61 $166 $168 $169 forward $36 $-1 #
coedge $-1 $112 $111 $61 $105 reversed $113 $-1 #
edge $-1 $170 -23.32796212844372619 $171 23.32796212844372619 $104 $172 forward 7 unknown #
coedge $-1 $63 $62 $173 $174 forward $21 $-1 #
coedge $-1 $175 $176 $62 $108 reversed $160 $-1 #
edge $-1 $115 -46.95455793939024147 $177 46.95455793939024147 $107 $178 forward 7 unknown #
coedge $-1 $101 $179 $63 $110 reversed $59 $-1 #
edge $-1 $180 -46.95455793939024147 $114 46.95455793939024147 $109 $181 forward 7 unknown #
coedge $-1 $104 $64 $179 $182 forward $113 $-1 #
coedge $-1 $64 $104 $175 $183 reversed $113 $-1 #
loop $-1 $-1 $111 $159 #
vertex $-1 $65 $184 #
vertex $-1 $65 $185 #
straight-curve $-1 93.90911587878048294 23.32796212844372619 17.82228683549329773 0 1 0 I I #
face $-1 $186 $187 $11 $-1 $188 reversed single #
loop $-1 $-1 $125 $66 #
plane-surface $-1 46.95455793939024147 23.32796212844372619 17.82228683549329773 0 0 1 1 0 0 forward_v I I I I #
coedge $-1 $72 $189 $69 $123 forward $67 $-1 #
coedge $-1 $190 $69 $191 $192 reversed $40 $-1 #
coedge $-1 $69 $190 $70 $124 reversed $40 $-1 #
edge $-1 $193 -13.74683281543355307 $128 -5.415425810586793176 $120 $194 forward 7 unknown #
edge $-1 $128 0 $195 13.02216537132663099 $70 $196 forward 7 unknown #
coedge $-1 $197 $198 $71 $126 forward $118 $-1 #
edge $-1 $129 7.327683093312437279 $195 17.15563596398472868 $125 $199 forward 7 unknown #
coedge $-1 $200 $72 $198 $201 reversed $67 $-1 #
vertex $-1 $123 $202 #
vertex $-1 $126 $203 #
straight-curve $-1 0 8.331407004846759889 44.53211487657729606 0 0 1 I I #
face $-1 $204 $205 $12 $-1 $206 reversed single #
loop $-1 $207 $80 $74 #
plane-surface $-1 0 4.165703502423379945 9.278977562733549789 -0.6560590369687036016 0 0.754709573287431712 0.754709573287431712 0 0.6560590369687036016 forward_v I I I I #
coedge $-1 $208 $209 $210 $211 reversed $75 $-1 #
coedge $-1 $135 $135 $-1 $212 forward $77 $-1 #
edge $-1 $213 0 $213 6.283185307179586232 $78 $214 forward 7 unknown #
vertex $-1 $81 $215 #
ellipse-curve $-1 4.913976435336145698 1.666281400969349846 13.55063219911342465 0.6560590369687036016 0 -0.754709573287431712 0.188677393321857928 0 0.1640147592421759004 1 I I #
face $-1 $216 $217 $13 $-1 $218 forward single #
loop $-1 $219 $220 $82 #
cone-surface $-1 5.652042851925941136 1.666281400969349846 12.70158392916505719 0.6560590369687036016 0 -0.754709573287431712 0.094338696660928964 0 0.08200737962108795021 1 I I -0.7071067811865474617 0.7071067811865474617 0.125 forward I I I I #
loop $-1 $-1 $221 $48 #
coedge $-1 $143 $143 $222 $223 reversed $83 $-1 #
coedge $-1 $144 $144 $-1 $224 forward $85 $-1 #
edge $-1 $225 0 $225 6.283185307179586232 $86 $226 forward 7 unknown #
loop $-1 $227 $88 $216 #
vertex $-1 $89 $228 #
ellipse-curve $-1 4.913976435336145698 4.165703502423379945 13.55063219911342465 0.6560590369687036016 0 -0.754709573287431712 0.188677393321857928 0 0.1640147592421759004 1 I I #
face $-1 $229 $230 $14 $-1 $231 reversed single #
loop $-1 $232 $233 $90 #
cone-surface $-1 5.652042851925941136 4.165703502423379945 12.70158392916505719 0.6560590369687036016 0 -0.754709573287431712 0.094338696660928964 0 0.08200737962108795021 1 I I -0.7071067811865474617 0.7071067811865474617 0.125 forward I I I I #
loop $-1 $-1 $234 $53 #
coedge $-1 $153 $153 $235 $236 reversed $91 $-1 #
coedge $-1 $154 $154 $-1 $237 forward $93 $-1 #
edge $-1 $238 0 $238 6.283185307179586232 $94 $239 forward 7 unknown #
loop $-1 $240 $96 $241 #
vertex $-1 $97 $242 #
ellipse-curve $-1 4.913976435336145698 6.66512560387740649 13.55063219911342465 0.6560590369687036016 0 -0.754709573287431712 0.188677393321857928 0 0.1640147592421759004 1 I I #
face $-1 $-1 $113 $10 $-1 $243 reversed single #
loop $-1 $-1 $175 $98 #
plane-surface $-1 46.95455793939024147 46.65592425688745237 8.911143417746648865 0 -1 0 0 0 -1 forward_v I I I I #
coedge $-1 $244 $173 $176 $245 forward $99 $-1 #
coedge $-1 $179 $101 $102 $167 reversed $59 $-1 #
coedge $-1 $173 $244 $101 $165 reversed $99 $-1 #
edge $-1 $180 -8.911143417746648865 $246 8.911143417746648865 $164 $247 forward 7 unknown #
coedge $-1 $103 $102 $244 $248 forward $36 $-1 #
edge $-1 $171 -46.95455793939024147 $246 46.95455793939024147 $163 $249 forward 7 unknown #
coedge $-1 $176 $175 $103 $169 reversed $160 $-1 #
edge $-1 $250 -46.95455793939024147 $170 46.95455793939024147 $168 $251 forward 7 unknown #
vertex $-1 $105 $252 #
vertex $-1 $182 $253 #
straight-curve $-1 93.90911587878048294 23.32796212844372619 0 0 -1 0 I I #
coedge $-1 $162 $164 $106 $174 reversed $99 $-1 #
edge $-1 $177 -23.32796212844372619 $180 23.32796212844372619 $173 $254 forward 7 unknown #
coedge $-1 $168 $107 $112 $183 forward $160 $-1 #
coedge $-1 $107 $168 $162 $245 reversed $160 $-1 #
vertex $-1 $108 $255 #
straight-curve $-1 46.95455793939024147 46.65592425688745237 17.82228683549329773 -1 0 0 I I #
coedge $-1 $109 $163 $111 $182 reversed $59 $-1 #
vertex $-1 $174 $256 #
straight-curve $-1 46.95455793939024147 0 17.82228683549329773 1 0 0 I I #
edge $-1 $114 -8.911143417746648865 $171 8.911143417746648865 $111 $257 forward 7 unknown #
edge $-1 $115 -8.911143417746648865 $170 8.911143417746648865 $112 $258 forward 7 unknown #
point $-1 93.90911587878048294 0 17.82228683549329773 #
point $-1 93.90911587878048294 46.65592425688745237 17.82228683549329773 #
face $-1 $259 $260 $11 $-1 $261 reversed single #
loop $-1 $-1 $262 $117 #
plane-surface $-1 46.95455793939024147 23.32796212844372619 0 0 0 1 1 0 0 forward_v I I I I #
coedge $-1 $120 $263 $264 $265 reversed $67 $-1 #
coedge $-1 $122 $121 $197 $266 reversed $40 $-1 #
coedge $-1 $264 $267 $121 $192 forward $260 $-1 #
edge $-1 $268 4.575701364379814784 $193 17.59786673570644666 $191 $269 forward 7 unknown #
vertex $-1 $265 $270 #
straight-curve $-1 0 13.74683281543355307 9.278977562733551565 0 1 0 I I #
vertex $-1 $266 $271 #
straight-curve $-1 0 8.331407004846759889 9.278977562733549789 0.754709573287431712 0 0.6560590369687036016 I I #
coedge $-1 $272 $125 $190 $266 forward $118 $-1 #
coedge $-1 $125 $273 $127 $201 forward $118 $-1 #
straight-curve $-1 -7.327683093312437279 8.331407004846759889 17.82228683549330128 1 0 0 I I #
coedge $-1 $263 $127 $274 $275 forward $67 $-1 #
edge $-1 $276 -23.32796212844372619 $129 14.9965551235969663 $127 $277 forward 7 unknown #
point $-1 0 8.331407004846759889 9.278977562733549789 #
point $-1 0 8.331407004846759889 17.82228683549329773 #
face $-1 $278 $279 $12 $-1 $280 forward single #
loop $-1 $-1 $281 $131 #
plane-surface $-1 0 23.32796212844372619 8.911143417746648865 1 0 0 0 0 -1 forward_v I I I I #
loop $-1 $-1 $282 $74 #
coedge $-1 $209 $134 $283 $284 forward $75 $-1 #
coedge $-1 $134 $208 $285 $286 reversed $75 $-1 #
coedge $-1 $287 $281 $134 $211 forward $205 $-1 #
edge $-1 $288 -35.25313731384374449 $289 -26.70982804108399833 $210 $290 forward 7 unknown #
edge $-1 $291 1 $291 0 $135 $-1 forward 7 unknown #
vertex $-1 $136 $292 #
ellipse-curve $-1 5.570035472304851965 1.666281400969349846 12.79592262582598572 -0.6560590369687036016 0 0.754709573287431712 0.188677393321857928 0 0.1640147592421759004 1 I I #
point $-1 5.102653828658006319 1.666281400969349846 13.71464695835559411 #
face $-1 $293 $146 $13 $-1 $294 forward single #
loop $-1 $-1 $295 $139 #
plane-surface $-1 -61.60992412601511603 8.331407004846759889 80.15308633540793437 0 -1 0 0.6560590369687036016 0 -0.754709573287431712 forward_v I I I I #
loop $-1 $-1 $296 $82 #
coedge $-1 $220 $220 $221 $297 forward $140 $-1 #
coedge $-1 $221 $221 $220 $297 reversed $142 $-1 #
coedge $-1 $222 $222 $143 $223 forward $227 $-1 #
edge $-1 $298 0 $298 6.283185307179586232 $222 $299 forward 7 unknown #
edge $-1 $300 1 $300 0 $144 $-1 forward 7 unknown #
vertex $-1 $145 $301 #
ellipse-curve $-1 5.570035472304851965 4.165703502423379945 12.79592262582598572 -0.6560590369687036016 0 0.754709573287431712 0.188677393321857928 0 0.1640147592421759004 1 I I #
loop $-1 $302 $222 $216 #
point $-1 5.102653828658006319 4.165703502423379945 13.71464695835559411 #
face $-1 $303 $304 $14 $-1 $305 reversed single #
loop $-1 $306 $307 $149 #
cone-surface $-1 5.242005953820502384 1.666281400969349846 13.17327741246970163 0.6560590369687036016 0 -0.754709573287431712 0.188677393321857928 0 0.1640147592421759004 1 I I 0 1 0.25 forward I I I I #
loop $-1 $-1 $308 $90 #
coedge $-1 $233 $233 $234 $309 forward $150 $-1 #
coedge $-1 $234 $234 $233 $309 reversed $152 $-1 #
coedge $-1 $235 $235 $153 $236 forward $240 $-1 #
edge $-1 $310 0 $310 6.283185307179586232 $235 $311 forward 7 unknown #
edge $-1 $312 1 $312 0 $154 $-1 forward 7 unknown #
vertex $-1 $155 $313 #
ellipse-curve $-1 5.570035472304851965 6.66512560387740649 12.79592262582598572 -0.6560590369687036016 0 0.754709573287431712 0.188677393321857928 0 0.1640147592421759004 1 I I #
loop $-1 $314 $235 $241 #
face $-1 $315 $156 $14 $-1 $316 forward single #
point $-1 5.102653828658006319 6.66512560387740649 13.71464695835559411 #
plane-surface $-1 93.90911587878048294 23.32796212844372619 8.911143417746648865 -1 0 0 0 0 1 forward_v I I I I #
coedge $-1 $164 $162 $166 $248 reversed $99 $-1 #
edge $-1 $177 -8.911143417746648865 $250 8.911143417746648865 $176 $317 forward 7 unknown #
vertex $-1 $248 $318 #
straight-curve $-1 0 0 8.911143417746648865 0 0 -1 I I #
edge $-1 $246 -23.32796212844372619 $250 23.32796212844372619 $244 $319 forward 7 unknown #
straight-curve $-1 46.95455793939024147 0 0 -1 0 0 I I #
vertex $-1 $169 $320 #
straight-curve $-1 46.95455793939024147 46.65592425688745237 0 1 0 0 I I #
point $-1 93.90911587878048294 46.65592425688745237 0 #
point $-1 93.90911587878048294 0 0 #
straight-curve $-1 0 23.32796212844372619 17.82228683549329773 0 -1 0 I I #
point $-1 0 46.65592425688745237 17.82228683549329773 #
point $-1 0 0 17.82228683549329773 #
straight-curve $-1 93.90911587878048294 0 8.911143417746648865 0 0 -1 I I #
straight-curve $-1 93.90911587878048294 46.65592425688745237 8.911143417746648865 0 0 -1 I I #
face $-1 $321 $322 $11 $-1 $323 reversed single #
loop $-1 $-1 $191 $186 #
plane-surface $-1 46.95455793939024147 0 8.911143417746648865 0 1 0 0 0 1 forward_v I I I I #
coedge $-1 $324 $325 $326 $327 forward $187 $-1 #
coedge $-1 $189 $200 $328 $329 reversed $67 $-1 #
coedge $-1 $330 $191 $189 $265 forward $260 $-1 #
edge $-1 $193 -0.3678341449869009239 $331 8.911143417746648865 $189 $332 forward 7 unknown #
edge $-1 $195 5.415425810586793176 $268 13.74683281543355307 $197 $333 forward 7 unknown #
coedge $-1 $191 $334 $272 $335 reversed $260 $-1 #
vertex $-1 $335 $336 #
straight-curve $-1 13.28127849487410117 0 20.82421706606470124 -0.754709573287431712 0 -0.6560590369687036016 I I #
point $-1 0 0 9.278977562733549789 #
point $-1 9.827952870672291397 8.331407004846759889 17.82228683549329773 #
coedge $-1 $337 $197 $267 $335 forward $118 $-1 #
coedge $-1 $198 $337 $338 $339 forward $118 $-1 #
coedge $-1 $338 $340 $200 $275 reversed $322 $-1 #
edge $-1 $276 -8.911143417746648865 $341 8.911143417746648865 $274 $342 forward 7 unknown #
vertex $-1 $339 $343 #
straight-curve $-1 0 23.32796212844372619 17.82228683549329773 0 -1 0 I I #
face $-1 $344 $345 $12 $-1 $346 reversed single #
loop $-1 $-1 $285 $204 #
plane-surface $-1 46.95455793939024147 23.32796212844372619 17.82228683549329773 0 0 1 1 0 0 forward_v I I I I #
coedge $-1 $210 $347 $282 $348 forward $205 $-1 #
coedge $-1 $349 $283 $281 $348 reversed $207 $-1 #
coedge $-1 $282 $350 $208 $284 reversed $207 $-1 #
edge $-1 $288 0 $351 13.02216537132663099 $208 $352 forward 7 unknown #
coedge $-1 $353 $354 $209 $286 forward $279 $-1 #
edge $-1 $289 7.327683093312437279 $351 17.15563596398472868 $285 $355 forward 7 unknown #
coedge $-1 $356 $210 $354 $357 reversed $205 $-1 #
vertex $-1 $348 $358 #
vertex $-1 $286 $359 #
straight-curve $-1 0 8.331407004846759889 44.53211487657729606 0 0 1 I I #
vertex $-1 $212 $360 #
point $-1 5.758712865626712585 1.666281400969349846 12.95993738506816229 #
face $-1 $361 $362 $13 $-1 $363 reversed single #
plane-surface $-1 0 4.165703502423379945 9.278977562733549789 -0.6560590369687036016 0 0.754709573287431712 0.754709573287431712 0 0.6560590369687036016 forward_v I I I I #
coedge $-1 $364 $365 $366 $367 reversed $217 $-1 #
coedge $-1 $296 $296 $-1 $368 forward $219 $-1 #
edge $-1 $369 0 $369 6.283185307179586232 $220 $370 forward 7 unknown #
vertex $-1 $223 $371 #
ellipse-curve $-1 4.913976435336145698 1.666281400969349846 13.55063219911342465 0.6560590369687036016 0 -0.754709573287431712 0.188677393321857928 0 0.1640147592421759004 1 I I #
vertex $-1 $224 $372 #
point $-1 5.758712865626712585 4.165703502423379945 12.95993738506816229 #
loop $-1 $-1 $373 $216 #
face $-1 $241 $374 $14 $-1 $375 forward single #
loop $-1 $376 $377 $229 #
cone-surface $-1 5.652042851925941136 1.666281400969349846 12.70158392916505719 0.6560590369687036016 0 -0.754709573287431712 0.094338696660928964 0 0.08200737962108795021 1 I I -0.7071067811865474617 0.7071067811865474617 0.125 forward I I I I #
loop $-1 $-1 $378 $149 #
coedge $-1 $307 $307 $379 $380 reversed $230 $-1 #
coedge $-1 $308 $308 $-1 $381 forward $232 $-1 #
edge $-1 $382 0 $382 6.283185307179586232 $233 $383 forward 7 unknown #
vertex $-1 $236 $384 #
ellipse-curve $-1 4.913976435336145698 4.165703502423379945 13.55063219911342465 0.6560590369687036016 0 -0.754709573287431712 0.188677393321857928 0 0.1640147592421759004 1 I I #
vertex $-1 $237 $385 #
point $-1 5.758712865626712585 6.66512560387740649 12.95993738506816229 #
loop $-1 $386 $379 $241 #
face $-1 $387 $388 $14 $-1 $389 reversed single #
plane-surface $-1 0 4.165703502423379945 9.278977562733549789 -0.6560590369687036016 0 0.754709573287431712 0.754709573287431712 0 0.6560590369687036016 forward_v I I I I #
straight-curve $-1 0 46.65592425688745237 8.911143417746648865 0 0 -1 I I #
point $-1 0 0 0 #
straight-curve $-1 0 23.32796212844372619 0 0 1 0 I I #
point $-1 0 46.65592425688745237 0 #
face $-1 $-1 $390 $11 $-1 $391 reversed single #
loop $-1 $-1 $392 $259 #
plane-surface $-1 46.95455793939024147 46.65592425688745237 8.911143417746648865 0 -1 0 0 0 -1 forward_v I I I I #
coedge $-1 $328 $262 $330 $393 forward $187 $-1 #
coedge $-1 $262 $328 $340 $394 forward $187 $-1 #
coedge $-1 $395 $396 $262 $327 reversed $390 $-1 #
edge $-1 $397 -23.32796212844372619 $398 23.32796212844372619 $326 $399 forward 7 unknown #
coedge $-1 $325 $324 $263 $329 forward $187 $-1 #
edge $-1 $331 -23.32796212844372619 $341 23.32796212844372619 $263 $400 forward 7 unknown #
coedge $-1 $334 $264 $324 $393 reversed $260 $-1 #
vertex $-1 $329 $401 #
straight-curve $-1 0 0 8.911143417746648865 0 0 -1 I I #
straight-curve $-1 9.827952870672291397 13.74683281543355307 17.82228683549330128 0 -1 0 I I #
coedge $-1 $267 $330 $396 $402 reversed $260 $-1 #
edge $-1 $268 -37.12660506871795008 $403 46.95455793939024147 $267 $404 forward 7 unknown #
point $-1 9.827952870672291397 0 17.82228683549329773 #
coedge $-1 $273 $272 $405 $406 forward $118 $-1 #
coedge $-1 $392 $274 $273 $339 reversed $322 $-1 #
edge $-1 $407 -46.95455793939024147 $276 46.95455793939024147 $338 $408 forward 7 unknown #
coedge $-1 $274 $392 $325 $394 reversed $322 $-1 #
vertex $-1 $394 $409 #
straight-curve $-1 0 46.65592425688745237 8.911143417746648865 0 0 -1 I I #
point $-1 0 46.65592425688745237 17.82228683549329773 #
face $-1 $410 $411 $12 $-1 $412 reversed single #
loop $-1 $-1 $413 $278 #
plane-surface $-1 46.95455793939024147 23.32796212844372619 0 0 0 1 1 0 0 forward_v I I I I #
coedge $-1 $281 $414 $415 $416 reversed $205 $-1 #
edge $-1 $417 -13.74683281543355307 $288 -5.415425810586793176 $281 $418 forward 7 unknown #
coedge $-1 $350 $282 $419 $420 reversed $207 $-1 #
coedge $-1 $283 $349 $353 $421 reversed $207 $-1 #
vertex $-1 $421 $422 #
straight-curve $-1 0 8.331407004846759889 9.278977562733549789 0.754709573287431712 0 0.6560590369687036016 I I #
coedge $-1 $423 $285 $350 $421 forward $279 $-1 #
coedge $-1 $285 $424 $287 $357 forward $279 $-1 #
straight-curve $-1 -7.327683093312437279 8.331407004846759889 17.82228683549330128 1 0 0 I I #
coedge $-1 $414 $287 $425 $426 forward $205 $-1 #
edge $-1 $427 -23.32796212844372619 $289 14.9965551235969663 $287 $428 forward 7 unknown #
point $-1 0 8.331407004846759889 9.278977562733549789 #
point $-1 0 8.331407004846759889 17.82228683549329773 #
point $-1 5.734050231547030307 1.666281400969349846 12.60724523250412865 #
face $-1 $429 $430 $13 $-1 $431 forward single #
loop $-1 $-1 $432 $293 #
plane-surface $-1 0 23.32796212844372619 8.911143417746648865 1 0 0 0 0 -1 forward_v I I I I #
coedge $-1 $365 $295 $433 $434 forward $217 $-1 #
coedge $-1 $295 $364 $435 $436 reversed $217 $-1 #
coedge $-1 $437 $432 $295 $367 forward $362 $-1 #
edge $-1 $438 -35.25313731384374449 $439 -26.70982804108399833 $366 $440 forward 7 unknown #
edge $-1 $441 1 $441 0 $296 $-1 forward 7 unknown #
vertex $-1 $297 $442 #
ellipse-curve $-1 5.570035472304851965 1.666281400969349846 12.79592262582598572 -0.6560590369687036016 0 0.754709573287431712 0.188677393321857928 0 0.1640147592421759004 1 I I #
point $-1 5.102653828658006319 1.666281400969349846 13.71464695835559411 #
point $-1 5.734050231547030307 4.165703502423379945 12.60724523250412865 #
coedge $-1 $443 $433 $432 $444 reversed $302 $-1 #
loop $-1 $-1 $445 $303 #
plane-surface $-1 -61.60992412601511603 8.331407004846759889 80.15308633540793437 0 -1 0 0.6560590369687036016 0 -0.754709573287431712 forward_v I I I I #
loop $-1 $-1 $446 $229 #
coedge $-1 $377 $377 $378 $447 forward $304 $-1 #
coedge $-1 $378 $378 $377 $447 reversed $306 $-1 #
coedge $-1 $379 $379 $307 $380 forward $314 $-1 #
edge $-1 $448 0 $448 6.283185307179586232 $379 $449 forward 7 unknown #
edge $-1 $450 1 $450 0 $308 $-1 forward 7 unknown #
vertex $-1 $309 $451 #
ellipse-curve $-1 5.570035472304851965 4.165703502423379945 12.79592262582598572 -0.6560590369687036016 0 0.754709573287431712 0.188677393321857928 0 0.1640147592421759004 1 I I #
point $-1 5.102653828658006319 4.165703502423379945 13.71464695835559411 #
point $-1 5.734050231547030307 6.66512560387740649 12.60724523250412865 #
loop $-1 $-1 $452 $241 #
face $-1 $453 $454 $14 $-1 $455 forward single #
loop $-1 $-1 $456 $315 #
plane-surface $-1 0 23.32796212844372619 8.911143417746648865 1 0 0 0 0 -1 forward_v I I I I #
loop $-1 $-1 $396 $321 #
plane-surface $-1 93.90911587878048294 23.32796212844372619 8.911143417746648865 -1 0 0 0 0 1 forward_v I I I I #
coedge $-1 $340 $338 $395 $457 forward $322 $-1 #
edge $-1 $398 -46.95455793939024147 $331 46.95455793939024147 $330 $458 forward 7 unknown #
edge $-1 $341 -46.95455793939024147 $397 46.95455793939024147 $340 $459 forward 7 unknown #
coedge $-1 $405 $326 $392 $457 reversed $390 $-1 #
coedge $-1 $326 $405 $334 $402 forward $390 $-1 #
vertex $-1 $327 $460 #
vertex $-1 $402 $461 #
straight-curve $-1 93.90911587878048294 23.32796212844372619 0 0 -1 0 I I #
straight-curve $-1 0 23.32796212844372619 0 0 1 0 I I #
point $-1 0 0 0 #
edge $-1 $403 -8.911143417746648865 $398 8.911143417746648865 $396 $462 forward 7 unknown #
vertex $-1 $406 $463 #
straight-curve $-1 46.95455793939024147 0 17.82228683549329773 1 0 0 I I #
coedge $-1 $396 $395 $337 $406 reversed $390 $-1 #
edge $-1 $403 -23.32796212844372619 $407 23.32796212844372619 $405 $464 forward 7 unknown #
vertex $-1 $406 $465 #
straight-curve $-1 46.95455793939024147 46.65592425688745237 17.82228683549329773 -1 0 0 I I #
point $-1 0 46.65592425688745237 0 #
face $-1 $466 $467 $12 $-1 $468 reversed single #
loop $-1 $-1 $419 $344 #
plane-surface $-1 46.95455793939024147 0 8.911143417746648865 0 1 0 0 0 1 forward_v I I I I #
coedge $-1 $469 $470 $471 $472 forward $345 $-1 #
coedge $-1 $347 $356 $473 $474 reversed $205 $-1 #
coedge $-1 $475 $419 $347 $416 forward $411 $-1 #
edge $-1 $417 -0.3678341449869009239 $476 8.911143417746648865 $347 $477 forward 7 unknown #
vertex $-1 $416 $478 #
straight-curve $-1 0 13.74683281543355307 9.278977562733551565 0 1 0 I I #
coedge $-1 $415 $479 $349 $420 forward $411 $-1 #
edge $-1 $480 4.575701364379814784 $417 17.59786673570644666 $419 $481 forward 7 unknown #
edge $-1 $351 5.415425810586793176 $480 13.74683281543355307 $353 $482 forward 7 unknown #
point $-1 9.827952870672291397 8.331407004846759889 17.82228683549329773 #
coedge $-1 $483 $353 $479 $484 forward $279 $-1 #
coedge $-1 $354 $483 $485 $486 forward $279 $-1 #
coedge $-1 $485 $487 $356 $426 reversed $467 $-1 #
edge $-1 $427 -8.911143417746648865 $488 8.911143417746648865 $425 $489 forward 7 unknown #
vertex $-1 $486 $490 #
straight-curve $-1 0 23.32796212844372619 17.82228683549329773 0 -1 0 I I #
face $-1 $491 $492 $13 $-1 $493 reversed single #
loop $-1 $-1 $435 $361 #
plane-surface $-1 46.95455793939024147 23.32796212844372619 17.82228683549329773 0 0 1 1 0 0 forward_v I I I I #
coedge $-1 $366 $494 $373 $444 forward $362 $-1 #
coedge $-1 $373 $495 $364 $434 reversed $302 $-1 #
edge $-1 $438 0 $496 13.02216537132663099 $364 $497 forward 7 unknown #
coedge $-1 $498 $499 $365 $436 forward $430 $-1 #
edge $-1 $439 7.327683093312437279 $496 17.15563596398472868 $435 $500 forward 7 unknown #
coedge $-1 $501 $366 $499 $502 reversed $362 $-1 #
vertex $-1 $444 $503 #
vertex $-1 $436 $504 #
straight-curve $-1 0 8.331407004846759889 44.53211487657729606 0 0 1 I I #
vertex $-1 $368 $505 #
point $-1 5.758712865626712585 1.666281400969349846 12.95993738506816229 #
coedge $-1 $495 $373 $506 $507 reversed $302 $-1 #
edge $-1 $508 -13.74683281543355307 $438 -5.415425810586793176 $432 $509 forward 7 unknown #
coedge $-1 $510 $511 $512 $513 reversed $374 $-1 #
coedge $-1 $446 $446 $-1 $514 forward $376 $-1 #
edge $-1 $515 0 $515 6.283185307179586232 $377 $516 forward 7 unknown #
vertex $-1 $380 $517 #
ellipse-curve $-1 4.913976435336145698 1.666281400969349846 13.55063219911342465 0.6560590369687036016 0 -0.754709573287431712 0.188677393321857928 0 0.1640147592421759004 1 I I #
vertex $-1 $381 $518 #
point $-1 5.758712865626712585 4.165703502423379945 12.95993738506816229 #
coedge $-1 $519 $520 $456 $521 reversed $386 $-1 #
face $-1 $522 $523 $14 $-1 $524 reversed single #
loop $-1 $-1 $525 $387 #
plane-surface $-1 46.95455793939024147 23.32796212844372619 17.82228683549329773 0 0 1 1 0 0 forward_v I I I I #
coedge $-1 $512 $526 $452 $521 forward $388 $-1 #
edge $-1 $407 -8.911143417746648865 $397 8.911143417746648865 $395 $527 forward 7 unknown #
straight-curve $-1 46.95455793939024147 0 0 -1 0 0 I I #
straight-curve $-1 46.95455793939024147 46.65592425688745237 0 1 0 0 I I #
point $-1 93.90911587878048294 46.65592425688745237 0 #
point $-1 93.90911587878048294 0 0 #
straight-curve $-1 93.90911587878048294 0 8.911143417746648865 0 0 -1 I I #
point $-1 93.90911587878048294 0 17.82228683549329773 #
straight-curve $-1 93.90911587878048294 23.32796212844372619 17.82228683549329773 0 1 0 I I #
point $-1 93.90911587878048294 46.65592425688745237 17.82228683549329773 #
face $-1 $-1 $528 $12 $-1 $529 reversed single #
loop $-1 $-1 $530 $410 #
plane-surface $-1 46.95455793939024147 46.65592425688745237 8.911143417746648865 0 -1 0 0 0 -1 forward_v I I I I #
coedge $-1 $473 $413 $475 $531 forward $345 $-1 #
coedge $-1 $413 $473 $487 $532 forward $345 $-1 #
coedge $-1 $533 $534 $413 $472 reversed $528 $-1 #
edge $-1 $535 -23.32796212844372619 $536 23.32796212844372619 $471 $537 forward 7 unknown #
coedge $-1 $470 $469 $414 $474 forward $345 $-1 #
edge $-1 $476 -23.32796212844372619 $488 23.32796212844372619 $414 $538 forward 7 unknown #
coedge $-1 $539 $415 $469 $531 reversed $411 $-1 #
vertex $-1 $474 $540 #
straight-curve $-1 0 0 8.911143417746648865 0 0 -1 I I #
point $-1 0 0 9.278977562733549789 #
coedge $-1 $419 $539 $423 $484 reversed $411 $-1 #
vertex $-1 $484 $541 #
straight-curve $-1 13.28127849487410117 0 20.82421706606470124 -0.754709573287431712 0 -0.6560590369687036016 I I #
straight-curve $-1 9.827952870672291397 13.74683281543355307 17.82228683549330128 0 -1 0 I I #
coedge $-1 $424 $423 $542 $543 forward $279 $-1 #
edge $-1 $480 -37.12660506871795008 $544 46.95455793939024147 $479 $545 forward 7 unknown #
coedge $-1 $530 $425 $424 $486 reversed $467 $-1 #
edge $-1 $546 -46.95455793939024147 $427 46.95455793939024147 $485 $547 forward 7 unknown #
coedge $-1 $425 $530 $470 $532 reversed $467 $-1 #
vertex $-1 $532 $548 #
straight-curve $-1 0 46.65592425688745237 8.911143417746648865 0 0 -1 I I #
point $-1 0 46.65592425688745237 17.82228683549329773 #
face $-1 $549 $550 $13 $-1 $551 reversed single #
loop $-1 $-1 $552 $429 #
plane-surface $-1 46.95455793939024147 23.32796212844372619 0 0 0 1 1 0 0 forward_v I I I I #
coedge $-1 $432 $553 $554 $555 reversed $362 $-1 #
coedge $-1 $433 $443 $498 $556 reversed $302 $-1 #
vertex $-1 $556 $557 #
straight-curve $-1 0 8.331407004846759889 9.278977562733549789 0.754709573287431712 0 0.6560590369687036016 I I #
coedge $-1 $558 $435 $495 $556 forward $430 $-1 #
coedge $-1 $435 $559 $437 $502 forward $430 $-1 #
straight-curve $-1 -7.327683093312437279 8.331407004846759889 17.82228683549330128 1 0 0 I I #
coedge $-1 $553 $437 $560 $561 forward $362 $-1 #
edge $-1 $562 -23.32796212844372619 $439 14.9965551235969663 $437 $563 forward 7 unknown #
point $-1 0 8.331407004846759889 9.278977562733549789 #
point $-1 0 8.331407004846759889 17.82228683549329773 #
point $-1 5.734050231547030307 1.666281400969349846 12.60724523250412865 #
coedge $-1 $554 $564 $443 $507 forward $550 $-1 #
edge $-1 $565 4.575701364379814784 $508 17.59786673570644666 $506 $566 forward 7 unknown #
vertex $-1 $555 $567 #
straight-curve $-1 0 13.74683281543355307 9.278977562733551565 0 1 0 I I #
coedge $-1 $511 $445 $520 $568 forward $374 $-1 #
coedge $-1 $445 $510 $525 $569 reversed $374 $-1 #
coedge $-1 $570 $456 $445 $513 forward $388 $-1 #
edge $-1 $571 -35.25313731384374449 $572 -26.70982804108399833 $512 $573 forward 7 unknown #
edge $-1 $574 1 $574 0 $446 $-1 forward 7 unknown #
vertex $-1 $447 $575 #
ellipse-curve $-1 5.570035472304851965 1.666281400969349846 12.79592262582598572 -0.6560590369687036016 0 0.754709573287431712 0.188677393321857928 0 0.1640147592421759004 1 I I #
point $-1 5.102653828658006319 1.666281400969349846 13.71464695835559411 #
point $-1 5.734050231547030307 4.165703502423379945 12.60724523250412865 #
coedge $-1 $576 $452 $577 $578 reversed $386 $-1 #
coedge $-1 $452 $576 $510 $568 reversed $386 $-1 #
edge $-1 $579 -13.74683281543355307 $571 -5.415425810586793176 $456 $580 forward 7 unknown #
face $-1 $581 $582 $14 $-1 $583 reversed single #
loop $-1 $-1 $584 $453 #
plane-surface $-1 46.95455793939024147 23.32796212844372619 0 0 0 1 1 0 0 forward_v I I I I #
coedge $-1 $585 $586 $511 $569 forward $454 $-1 #
coedge $-1 $456 $587 $588 $589 reversed $388 $-1 #
straight-curve $-1 93.90911587878048294 46.65592425688745237 8.911143417746648865 0 0 -1 I I #
loop $-1 $-1 $534 $466 #
plane-surface $-1 93.90911587878048294 23.32796212844372619 8.911143417746648865 -1 0 0 0 0 1 forward_v I I I I #
coedge $-1 $487 $485 $533 $590 forward $467 $-1 #
edge $-1 $536 -46.95455793939024147 $476 46.95455793939024147 $475 $591 forward 7 unknown #
edge $-1 $488 -46.95455793939024147 $535 46.95455793939024147 $487 $592 forward 7 unknown #
coedge $-1 $542 $471 $530 $590 reversed $528 $-1 #
coedge $-1 $471 $542 $539 $593 forward $528 $-1 #
vertex $-1 $472 $594 #
vertex $-1 $593 $595 #
straight-curve $-1 93.90911587878048294 23.32796212844372619 0 0 -1 0 I I #
straight-curve $-1 0 23.32796212844372619 0 0 1 0 I I #
coedge $-1 $479 $475 $534 $593 reversed $411 $-1 #
point $-1 0 0 0 #
point $-1 9.827952870672291397 0 17.82228683549329773 #
coedge $-1 $534 $533 $483 $543 reversed $528 $-1 #
edge $-1 $544 -23.32796212844372619 $546 23.32796212844372619 $542 $596 forward 7 unknown #
vertex $-1 $543 $597 #
straight-curve $-1 46.95455793939024147 0 17.82228683549329773 1 0 0 I I #
vertex $-1 $543 $598 #
straight-curve $-1 46.95455793939024147 46.65592425688745237 17.82228683549329773 -1 0 0 I I #
point $-1 0 46.65592425688745237 0 #
face $-1 $599 $600 $13 $-1 $601 reversed single #
loop $-1 $-1 $506 $491 #
plane-surface $-1 46.95455793939024147 0 8.911143417746648865 0 1 0 0 0 1 forward_v I I I I #
coedge $-1 $602 $603 $604 $605 forward $492 $-1 #
coedge $-1 $494 $501 $606 $607 reversed $362 $-1 #
coedge $-1 $608 $506 $494 $555 forward $550 $-1 #
edge $-1 $508 -0.3678341449869009239 $609 8.911143417746648865 $494 $610 forward 7 unknown #
edge $-1 $496 5.415425810586793176 $565 13.74683281543355307 $498 $611 forward 7 unknown #
point $-1 9.827952870672291397 8.331407004846759889 17.82228683549329773 #
coedge $-1 $612 $498 $564 $613 forward $430 $-1 #
coedge $-1 $499 $612 $614 $615 forward $430 $-1 #
coedge $-1 $614 $616 $501 $561 reversed $600 $-1 #
edge $-1 $562 -8.911143417746648865 $617 8.911143417746648865 $560 $618 forward 7 unknown #
vertex $-1 $615 $619 #
straight-curve $-1 0 23.32796212844372619 17.82228683549329773 0 -1 0 I I #
coedge $-1 $506 $620 $558 $613 reversed $550 $-1 #
vertex $-1 $613 $621 #
straight-curve $-1 13.28127849487410117 0 20.82421706606470124 -0.754709573287431712 0 -0.6560590369687036016 I I #
point $-1 0 0 9.278977562733549789 #
edge $-1 $571 0 $622 13.02216537132663099 $510 $623 forward 7 unknown #
edge $-1 $572 7.327683093312437279 $622 17.15563596398472868 $525 $624 forward 7 unknown #
coedge $-1 $625 $512 $586 $626 reversed $388 $-1 #
vertex $-1 $521 $627 #
vertex $-1 $569 $628 #
straight-curve $-1 0 8.331407004846759889 44.53211487657729606 0 0 1 I I #
vertex $-1 $514 $629 #
point $-1 5.758712865626712585 1.666281400969349846 12.95993738506816229 #
coedge $-1 $520 $519 $585 $630 reversed $386 $-1 #
coedge $-1 $588 $631 $519 $578 forward $582 $-1 #
edge $-1 $632 4.575701364379814784 $579 17.59786673570644666 $577 $633 forward 7 unknown #
vertex $-1 $589 $634 #
straight-curve $-1 0 13.74683281543355307 9.278977562733551565 0 1 0 I I #
face $-1 $635 $636 $14 $-1 $637 reversed single #
loop $-1 $-1 $577 $522 #
plane-surface $-1 46.95455793939024147 0 8.911143417746648865 0 1 0 0 0 1 forward_v I I I I #
coedge $-1 $638 $639 $640 $641 forward $523 $-1 #
coedge $-1 $642 $525 $576 $630 forward $454 $-1 #
coedge $-1 $525 $643 $570 $626 forward $454 $-1 #
coedge $-1 $526 $625 $644 $645 reversed $388 $-1 #
coedge $-1 $646 $577 $526 $589 forward $582 $-1 #
edge $-1 $579 -0.3678341449869009239 $647 8.911143417746648865 $526 $648 forward 7 unknown #
edge $-1 $546 -8.911143417746648865 $535 8.911143417746648865 $533 $649 forward 7 unknown #
straight-curve $-1 46.95455793939024147 0 0 -1 0 0 I I #
straight-curve $-1 46.95455793939024147 46.65592425688745237 0 1 0 0 I I #
edge $-1 $544 -8.911143417746648865 $536 8.911143417746648865 $534 $650 forward 7 unknown #
point $-1 93.90911587878048294 46.65592425688745237 0 #
point $-1 93.90911587878048294 0 0 #
straight-curve $-1 93.90911587878048294 23.32796212844372619 17.82228683549329773 0 1 0 I I #
point $-1 93.90911587878048294 0 17.82228683549329773 #
point $-1 93.90911587878048294 46.65592425688745237 17.82228683549329773 #
face $-1 $-1 $651 $13 $-1 $652 reversed single #
loop $-1 $-1 $653 $549 #
plane-surface $-1 46.95455793939024147 46.65592425688745237 8.911143417746648865 0 -1 0 0 0 -1 forward_v I I I I #
coedge $-1 $606 $552 $608 $654 forward $492 $-1 #
coedge $-1 $552 $606 $616 $655 forward $492 $-1 #
coedge $-1 $656 $657 $552 $605 reversed $651 $-1 #
edge $-1 $658 -23.32796212844372619 $659 23.32796212844372619 $604 $660 forward 7 unknown #
coedge $-1 $603 $602 $553 $607 forward $492 $-1 #
edge $-1 $609 -23.32796212844372619 $617 23.32796212844372619 $553 $661 forward 7 unknown #
coedge $-1 $620 $554 $602 $654 reversed $550 $-1 #
vertex $-1 $607 $662 #
straight-curve $-1 0 0 8.911143417746648865 0 0 -1 I I #
straight-curve $-1 9.827952870672291397 13.74683281543355307 17.82228683549330128 0 -1 0 I I #
coedge $-1 $559 $558 $663 $664 forward $430 $-1 #
edge $-1 $565 -37.12660506871795008 $665 46.95455793939024147 $564 $666 forward 7 unknown #
coedge $-1 $653 $560 $559 $615 reversed $600 $-1 #
edge $-1 $667 -46.95455793939024147 $562 46.95455793939024147 $614 $668 forward 7 unknown #
coedge $-1 $560 $653 $603 $655 reversed $600 $-1 #
vertex $-1 $655 $669 #
straight-curve $-1 0 46.65592425688745237 8.911143417746648865 0 0 -1 I I #
point $-1 0 46.65592425688745237 17.82228683549329773 #
coedge $-1 $564 $608 $657 $670 reversed $550 $-1 #
point $-1 9.827952870672291397 0 17.82228683549329773 #
vertex $-1 $630 $671 #
straight-curve $-1 0 8.331407004846759889 9.278977562733549789 0.754709573287431712 0 0.6560590369687036016 I I #
straight-curve $-1 -7.327683093312437279 8.331407004846759889 17.82228683549330128 1 0 0 I I #
coedge $-1 $587 $570 $672 $673 forward $388 $-1 #
edge $-1 $674 -23.32796212844372619 $572 14.9965551235969663 $570 $675 forward 7 unknown #
point $-1 0 8.331407004846759889 9.278977562733549789 #
point $-1 0 8.331407004846759889 17.82228683549329773 #
point $-1 5.734050231547030307 1.666281400969349846 12.60724523250412865 #
edge $-1 $622 5.415425810586793176 $632 13.74683281543355307 $585 $676 forward 7 unknown #
coedge $-1 $577 $677 $642 $678 reversed $582 $-1 #
vertex $-1 $678 $679 #
straight-curve $-1 13.28127849487410117 0 20.82421706606470124 -0.754709573287431712 0 -0.6560590369687036016 I I #
point $-1 0 0 9.278977562733549789 #
face $-1 $-1 $680 $14 $-1 $681 reversed single #
loop $-1 $-1 $682 $581 #
plane-surface $-1 46.95455793939024147 46.65592425688745237 8.911143417746648865 0 -1 0 0 0 -1 forward_v I I I I #
coedge $-1 $644 $584 $646 $683 forward $523 $-1 #
coedge $-1 $584 $644 $684 $685 forward $523 $-1 #
coedge $-1 $686 $687 $584 $641 reversed $680 $-1 #
edge $-1 $688 -23.32796212844372619 $689 23.32796212844372619 $640 $690 forward 7 unknown #
coedge $-1 $691 $585 $631 $678 forward $454 $-1 #
coedge $-1 $586 $691 $692 $693 forward $454 $-1 #
coedge $-1 $639 $638 $587 $645 forward $523 $-1 #
edge $-1 $647 -23.32796212844372619 $694 23.32796212844372619 $587 $695 forward 7 unknown #
coedge $-1 $677 $588 $638 $683 reversed $582 $-1 #
vertex $-1 $645 $696 #
straight-curve $-1 0 0 8.911143417746648865 0 0 -1 I I #
straight-curve $-1 93.90911587878048294 46.65592425688745237 8.911143417746648865 0 0 -1 I I #
straight-curve $-1 93.90911587878048294 0 8.911143417746648865 0 0 -1 I I #
loop $-1 $-1 $657 $599 #
plane-surface $-1 93.90911587878048294 23.32796212844372619 8.911143417746648865 -1 0 0 0 0 1 forward_v I I I I #
coedge $-1 $616 $614 $656 $697 forward $600 $-1 #
edge $-1 $659 -46.95455793939024147 $609 46.95455793939024147 $608 $698 forward 7 unknown #
edge $-1 $617 -46.95455793939024147 $658 46.95455793939024147 $616 $699 forward 7 unknown #
coedge $-1 $663 $604 $653 $697 reversed $651 $-1 #
coedge $-1 $604 $663 $620 $670 forward $651 $-1 #
vertex $-1 $605 $700 #
vertex $-1 $670 $701 #
straight-curve $-1 93.90911587878048294 23.32796212844372619 0 0 -1 0 I I #
straight-curve $-1 0 23.32796212844372619 0 0 1 0 I I #
point $-1 0 0 0 #
coedge $-1 $657 $656 $612 $664 reversed $651 $-1 #
edge $-1 $665 -23.32796212844372619 $667 23.32796212844372619 $663 $702 forward 7 unknown #
vertex $-1 $664 $703 #
straight-curve $-1 46.95455793939024147 0 17.82228683549329773 1 0 0 I I #
vertex $-1 $664 $704 #
straight-curve $-1 46.95455793939024147 46.65592425688745237 17.82228683549329773 -1 0 0 I I #
point $-1 0 46.65592425688745237 0 #
edge $-1 $665 -8.911143417746648865 $659 8.911143417746648865 $657 $705 forward 7 unknown #
point $-1 9.827952870672291397 8.331407004846759889 17.82228683549329773 #
coedge $-1 $692 $684 $625 $673 reversed $636 $-1 #
edge $-1 $674 -8.911143417746648865 $694 8.911143417746648865 $672 $706 forward 7 unknown #
vertex $-1 $693 $707 #
straight-curve $-1 0 23.32796212844372619 17.82228683549329773 0 -1 0 I I #
straight-curve $-1 9.827952870672291397 13.74683281543355307 17.82228683549330128 0 -1 0 I I #
coedge $-1 $631 $646 $687 $708 reversed $582 $-1 #
edge $-1 $632 -37.12660506871795008 $709 46.95455793939024147 $631 $710 forward 7 unknown #
point $-1 9.827952870672291397 0 17.82228683549329773 #
loop $-1 $-1 $687 $635 #
plane-surface $-1 93.90911587878048294 23.32796212844372619 8.911143417746648865 -1 0 0 0 0 1 forward_v I I I I #
coedge $-1 $684 $692 $686 $711 forward $636 $-1 #
edge $-1 $689 -46.95455793939024147 $647 46.95455793939024147 $646 $712 forward 7 unknown #
coedge $-1 $672 $682 $639 $685 reversed $636 $-1 #
edge $-1 $694 -46.95455793939024147 $688 46.95455793939024147 $684 $713 forward 7 unknown #
coedge $-1 $714 $640 $682 $711 reversed $680 $-1 #
coedge $-1 $640 $714 $677 $708 forward $680 $-1 #
vertex $-1 $641 $715 #
vertex $-1 $708 $716 #
straight-curve $-1 93.90911587878048294 23.32796212844372619 0 0 -1 0 I I #
coedge $-1 $643 $642 $714 $717 forward $454 $-1 #
coedge $-1 $682 $672 $643 $693 reversed $636 $-1 #
edge $-1 $718 -46.95455793939024147 $674 46.95455793939024147 $692 $719 forward 7 unknown #
vertex $-1 $685 $720 #
straight-curve $-1 0 23.32796212844372619 0 0 1 0 I I #
point $-1 0 0 0 #
edge $-1 $667 -8.911143417746648865 $658 8.911143417746648865 $656 $721 forward 7 unknown #
straight-curve $-1 46.95455793939024147 0 0 -1 0 0 I I #
straight-curve $-1 46.95455793939024147 46.65592425688745237 0 1 0 0 I I #
point $-1 93.90911587878048294 46.65592425688745237 0 #
point $-1 93.90911587878048294 0 0 #
straight-curve $-1 93.90911587878048294 23.32796212844372619 17.82228683549329773 0 1 0 I I #
point $-1 93.90911587878048294 0 17.82228683549329773 #
point $-1 93.90911587878048294 46.65592425688745237 17.82228683549329773 #
straight-curve $-1 93.90911587878048294 0 8.911143417746648865 0 0 -1 I I #
straight-curve $-1 0 46.65592425688745237 8.911143417746648865 0 0 -1 I I #
point $-1 0 46.65592425688745237 17.82228683549329773 #
edge $-1 $709 -8.911143417746648865 $689 8.911143417746648865 $687 $722 forward 7 unknown #
vertex $-1 $717 $723 #
straight-curve $-1 46.95455793939024147 0 17.82228683549329773 1 0 0 I I #
edge $-1 $718 -8.911143417746648865 $688 8.911143417746648865 $686 $724 forward 7 unknown #
straight-curve $-1 46.95455793939024147 0 0 -1 0 0 I I #
straight-curve $-1 46.95455793939024147 46.65592425688745237 0 1 0 0 I I #
coedge $-1 $687 $686 $691 $717 reversed $680 $-1 #
point $-1 93.90911587878048294 46.65592425688745237 0 #
point $-1 93.90911587878048294 0 0 #
edge $-1 $709 -23.32796212844372619 $718 23.32796212844372619 $714 $725 forward 7 unknown #
vertex $-1 $717 $726 #
straight-curve $-1 46.95455793939024147 46.65592425688745237 17.82228683549329773 -1 0 0 I I #
point $-1 0 46.65592425688745237 0 #
straight-curve $-1 93.90911587878048294 46.65592425688745237 8.911143417746648865 0 0 -1 I I #
straight-curve $-1 93.90911587878048294 0 8.911143417746648865 0 0 -1 I I #
point $-1 93.90911587878048294 0 17.82228683549329773 #
straight-curve $-1 93.90911587878048294 46.65592425688745237 8.911143417746648865 0 0 -1 I I #
straight-curve $-1 93.90911587878048294 23.32796212844372619 17.82228683549329773 0 1 0 I I #
point $-1 93.90911587878048294 46.65592425688745237 17.82228683549329773 #
End-of-ACIS-data 