300 0 6 0           
7 Unknown 11 ACIS 3.0 NT 24 Fri Oct 30 17:58:55 1998 
-1 9.9999999999999995e-007 1e-010 
body $6 $7 $-1 $8 #
body $9 $10 $-1 $11 #
body $12 $13 $-1 $14 #
body $15 $16 $-1 $17 #
body $18 $19 $-1 $20 #
body $21 $22 $-1 $23 #
display_attribute-st-attrib $-1 $24 $-1 $0 1 #
lump $-1 $-1 $25 $0 #
transform $-1 1 0 0 0 1 0 0 0 1 73.154087954344305 50.467100241607362 11.870480513385916 1 rotate no_reflect no_shear #
display_attribute-st-attrib $-1 $26 $-1 $1 1 #
lump $-1 $-1 $27 $1 #
transform $-1 1 0 0 0 1 0 0 0 1 73.154087954344305 50.467100241607362 11.870480513385916 1 rotate no_reflect no_shear #
display_attribute-st-attrib $-1 $28 $-1 $2 1 #
lump $-1 $-1 $29 $2 #
transform $-1 1 0 0 0 1 0 0 0 1 73.154087954344305 50.467100241607362 11.870480513385916 1 rotate no_reflect no_shear #
display_attribute-st-attrib $-1 $30 $-1 $3 1 #
lump $-1 $-1 $31 $3 #
transform $-1 1 0 0 0 1 0 0 0 1 73.154087954344305 50.467100241607362 11.870480513385916 1 rotate no_reflect no_shear #
display_attribute-st-attrib $-1 $32 $-1 $4 1 #
lump $-1 $-1 $33 $4 #
transform $-1 1 0 0 0 1 0 0 0 1 73.154087954344305 50.467100241607362 11.870480513385916 1 rotate no_reflect no_shear #
display_attribute-st-attrib $-1 $34 $-1 $5 1 #
lump $-1 $-1 $35 $5 #
transform $-1 1 0 0 0 1 0 0 0 1 73.154087954344305 50.467100241607362 11.870480513385916 1 rotate no_reflect no_shear #
id_attribute-st-attrib $-1 $-1 $6 $0 1516 #
shell $-1 $-1 $-1 $36 $-1 $7 #
id_attribute-st-attrib $-1 $-1 $9 $1 1521 #
shell $-1 $-1 $-1 $37 $-1 $10 #
id_attribute-st-attrib $-1 $-1 $12 $2 1532 #
shell $-1 $-1 $-1 $38 $-1 $13 #
id_attribute-st-attrib $-1 $-1 $15 $3 1539 #
shell $-1 $-1 $-1 $39 $-1 $16 #
id_attribute-st-attrib $-1 $-1 $18 $4 1550 #
shell $-1 $-1 $-1 $40 $-1 $19 #
id_attribute-st-attrib $-1 $-1 $21 $5 1559 #
shell $-1 $-1 $-1 $41 $-1 $22 #
face $-1 $42 $43 $25 $-1 $44 forward single #
face $-1 $45 $46 $27 $-1 $47 forward single #
face $-1 $48 $49 $29 $-1 $50 forward single #
face $-1 $51 $52 $31 $-1 $53 reversed single #
face $-1 $54 $55 $33 $-1 $56 forward single #
face $-1 $57 $58 $35 $-1 $59 reversed single #
face $-1 $60 $61 $25 $-1 $62 reversed single #
loop $-1 $-1 $63 $36 #
plane-surface $-1 0 0 11.870480513385916 0 0 1 1 0 0 forward_v I I I I #
face $-1 $64 $65 $27 $-1 $66 reversed single #
loop $-1 $-1 $67 $37 #
plane-surface $-1 0 -55.992889163254411 -6.72893622387876 0 0 1 1 0 0 forward_v I I I I #
face $-1 $68 $69 $29 $-1 $70 forward single #
loop $-1 $-1 $71 $38 #
plane-surface $-1 -178.39938320583343 32.505114057078281 110.2282794923739 0 1 0 -0.71933980857756763 0 0.69465836192734942 forward_v I I I I #
face $-1 $72 $73 $31 $-1 $74 reversed single #
loop $-1 $75 $76 $39 #
cone-surface $-1 -70.859738506115832 41.486107149342821 9.5443643145192514 0.71933980857756763 0 -0.69465836192734942 0.34732918096367471 0 0.35966990428878381 1 I I 0 1 forward I I I I #
face $-1 $77 $78 $33 $-1 $79 forward single #
loop $-1 $-1 $80 $40 #
plane-surface $-1 76.765185392525325 32.505114057078281 215.47357474386303 0 1 0 0.71933980857756763 0 0.69465836192734942 forward_v I I I I #
face $-1 $81 $82 $35 $-1 $83 reversed single #
loop $-1 $84 $85 $41 #
cone-surface $-1 70.859738506115846 41.486107149342821 9.5443643145192514 -0.71933980857756763 0 -0.69465836192734942 0.34732918096367471 0 -0.35966990428878381 1 I I 0 1 forward I I I I #
face $-1 $86 $87 $25 $-1 $88 reversed single #
loop $-1 $-1 $89 $42 #
plane-surface $-1 0 0 -11.870480513385916 0 0 1 1 0 0 forward_v I I I I #
coedge $-1 $90 $91 $92 $93 forward $43 $-1 #
face $-1 $94 $95 $27 $-1 $96 forward single #
loop $-1 $-1 $97 $45 #
plane-surface $-1 0 -61.51867808490146 -9.2997083686323379 0 1 0 0 0 1 forward_v I I I I #
coedge $-1 $98 $99 $100 $101 forward $46 $-1 #
face $-1 $102 $103 $29 $-1 $104 forward single #
loop $-1 $-1 $105 $48 #
plane-surface $-1 -73.154087954344277 41.486107149342821 8.5940816790657806 -0.71933980857756763 0 0.69465836192734942 0.69465836192734942 0 0.71933980857756763 forward_v I I I I #
coedge $-1 $106 $107 $108 $109 reversed $49 $-1 #
face $-1 $110 $111 $31 $-1 $112 forward single #
loop $-1 $113 $114 $51 #
cone-surface $-1 -69.967544856240991 41.486107149342821 8.6827829423308014 0.71933980857756763 0 -0.69465836192734942 0.17366459048183736 0 0.17983495214439191 1 I I -0.70710678118654746 0.70710678118654746 forward I I I I #
loop $-1 $-1 $115 $39 #
coedge $-1 $76 $76 $116 $117 reversed $52 $-1 #
face $-1 $118 $119 $33 $-1 $120 reversed single #
loop $-1 $-1 $121 $54 #
plane-surface $-1 -28.480109858963829 41.486107149342821 113.83937693055491 0.71933980857756763 0 0.69465836192734942 0.69465836192734942 0 -0.71933980857756763 forward_v I I I I #
coedge $-1 $122 $123 $124 $125 reversed $55 $-1 #
face $-1 $126 $127 $35 $-1 $128 forward single #
loop $-1 $129 $130 $57 #
cone-surface $-1 69.967544856241005 41.486107149342821 8.6827829423308014 -0.71933980857756763 0 -0.69465836192734942 0.17366459048183736 0 -0.17983495214439191 1 I I -0.70710678118654746 0.70710678118654746 forward I I I I #
loop $-1 $-1 $131 $41 #
coedge $-1 $85 $85 $132 $133 reversed $58 $-1 #
face $-1 $134 $135 $25 $-1 $136 reversed single #
loop $-1 $-1 $137 $60 #
plane-surface $-1 0 -50.467100241607362 0 0 1 0 0 0 1 forward_v I I I I #
coedge $-1 $138 $139 $140 $141 forward $61 $-1 #
coedge $-1 $142 $63 $143 $144 forward $43 $-1 #
coedge $-1 $63 $142 $145 $146 forward $43 $-1 #
coedge $-1 $147 $148 $63 $93 reversed $149 $-1 #
edge $-1 $150 $151 $92 $152 forward #
face $-1 $153 $154 $27 $-1 $155 reversed single #
loop $-1 $-1 $156 $64 #
plane-surface $-1 0 0 11.870480513385916 0 0 1 1 0 0 forward_v I I I I #
coedge $-1 $157 $158 $159 $160 forward $65 $-1 #
coedge $-1 $161 $67 $162 $163 reversed $46 $-1 #
coedge $-1 $67 $161 $158 $164 forward $46 $-1 #
coedge $-1 $165 $166 $67 $101 reversed $167 $-1 #
edge $-1 $168 $169 $100 $170 forward #
face $-1 $171 $172 $29 $-1 $173 reversed single #
loop $-1 $-1 $174 $68 #
plane-surface $-1 0 0 11.870480513385916 0 0 1 1 0 0 forward_v I I I I #
coedge $-1 $175 $176 $174 $177 reversed $69 $-1 #
coedge $-1 $107 $71 $176 $178 forward $49 $-1 #
coedge $-1 $71 $106 $179 $180 reversed $49 $-1 #
coedge $-1 $181 $174 $71 $109 forward $103 $-1 #
edge $-1 $182 $183 $108 $184 forward #
face $-1 $185 $186 $31 $-1 $187 forward single #
loop $-1 $-1 $188 $72 #
plane-surface $-1 -178.39938320583343 32.505114057078281 110.2282794923739 0 1 0 -0.71933980857756763 0 0.69465836192734942 forward_v I I I I #
loop $-1 $-1 $189 $51 #
coedge $-1 $114 $114 $115 $190 forward $73 $-1 #
coedge $-1 $115 $115 $114 $190 reversed $75 $-1 #
coedge $-1 $116 $116 $76 $117 forward $186 $-1 #
edge $-1 $191 $191 $116 $192 forward #
face $-1 $193 $194 $33 $-1 $195 forward single #
loop $-1 $-1 $196 $77 #
plane-surface $-1 73.154087954344305 0 0 -1 0 0 0 0 1 forward_v I I I I #
coedge $-1 $197 $198 $196 $199 reversed $78 $-1 #
coedge $-1 $123 $80 $198 $200 forward $55 $-1 #
coedge $-1 $80 $122 $201 $202 reversed $55 $-1 #
coedge $-1 $203 $196 $80 $125 forward $119 $-1 #
edge $-1 $204 $205 $124 $206 forward #
face $-1 $207 $208 $35 $-1 $209 forward single #
loop $-1 $-1 $210 $81 #
plane-surface $-1 76.765185392525325 32.505114057078281 215.47357474386303 0 1 0 0.71933980857756763 0 0.69465836192734942 forward_v I I I I #
loop $-1 $-1 $211 $57 #
coedge $-1 $130 $130 $131 $212 forward $82 $-1 #
coedge $-1 $131 $131 $130 $212 reversed $84 $-1 #
coedge $-1 $132 $132 $85 $133 forward $208 $-1 #
edge $-1 $213 $213 $132 $214 forward #
face $-1 $215 $216 $25 $-1 $217 reversed single #
loop $-1 $-1 $218 $86 #
plane-surface $-1 -73.154087954344305 0 0 1 0 0 0 0 -1 forward_v I I I I #
coedge $-1 $219 $145 $220 $221 forward $87 $-1 #
coedge $-1 $222 $89 $219 $223 forward $61 $-1 #
coedge $-1 $89 $222 $224 $225 forward $61 $-1 #
coedge $-1 $148 $147 $89 $141 reversed $149 $-1 #
edge $-1 $226 $227 $140 $228 forward #
coedge $-1 $91 $90 $229 $230 forward $43 $-1 #
coedge $-1 $231 $232 $90 $144 reversed $216 $-1 #
edge $-1 $151 $233 $143 $234 forward #
coedge $-1 $137 $235 $91 $146 reversed $87 $-1 #
edge $-1 $236 $150 $145 $237 forward #
coedge $-1 $140 $92 $235 $238 forward $149 $-1 #
coedge $-1 $92 $140 $231 $239 reversed $149 $-1 #
loop $-1 $-1 $147 $215 #
vertex $-1 $93 $240 #
vertex $-1 $93 $241 #
straight-curve $-1 73.154087954344305 0 11.870480513385916 0 1 0 I I #
face $-1 $242 $243 $27 $-1 $244 reversed single #
loop $-1 $-1 $245 $94 #
plane-surface $-1 0 0 -11.870480513385916 0 0 1 1 0 0 forward_v I I I I #
coedge $-1 $246 $247 $248 $249 forward $95 $-1 #
coedge $-1 $250 $97 $251 $252 reversed $65 $-1 #
coedge $-1 $97 $250 $99 $164 reversed $65 $-1 #
coedge $-1 $253 $254 $97 $160 reversed $255 $-1 #
edge $-1 $256 $257 $159 $258 forward #
coedge $-1 $99 $98 $253 $259 forward $46 $-1 #
coedge $-1 $260 $261 $98 $163 forward $243 $-1 #
edge $-1 $262 $169 $162 $263 forward #
edge $-1 $256 $168 $158 $264 forward #
coedge $-1 $265 $100 $250 $266 forward $167 $-1 #
coedge $-1 $100 $248 $260 $267 forward $167 $-1 #
loop $-1 $-1 $166 $268 #
vertex $-1 $101 $269 #
vertex $-1 $101 $270 #
straight-curve $-1 73.154087954344305 -55.992889163254411 -6.72893622387876 0 1 0 I I #
face $-1 $271 $272 $29 $-1 $273 forward single #
loop $-1 $-1 $179 $102 #
plane-surface $-1 -73.154087954344305 0 0 1 0 0 0 0 -1 forward_v I I I I #
coedge $-1 $108 $274 $105 $177 forward $103 $-1 #
coedge $-1 $275 $105 $276 $277 reversed $69 $-1 #
coedge $-1 $105 $275 $106 $178 reversed $69 $-1 #
edge $-1 $278 $182 $174 $279 forward #
edge $-1 $182 $280 $106 $281 forward #
coedge $-1 $282 $283 $107 $180 forward $172 $-1 #
edge $-1 $183 $280 $179 $284 forward #
coedge $-1 $285 $108 $283 $286 forward $103 $-1 #
vertex $-1 $177 $287 #
vertex $-1 $286 $288 #
straight-curve $-1 -89.199691602916715 32.505114057078281 11.870480513385914 -1 0 0 I I #
face $-1 $289 $290 $31 $-1 $291 forward single #
loop $-1 $292 $116 $110 #
plane-surface $-1 -73.154087954344277 41.486107149342821 8.5940816790657806 -0.71933980857756763 0 0.69465836192734942 0.69465836192734942 0 0.71933980857756763 forward_v I I I I #
coedge $-1 $293 $294 $295 $296 reversed $111 $-1 #
coedge $-1 $189 $189 $-1 $297 forward $113 $-1 #
edge $-1 $298 $298 $114 $299 forward #
vertex $-1 $117 $300 #
ellipse-curve $-1 -71.572097203846241 41.486107149342821 10.232281096225829 0.71933980857756763 0 -0.69465836192734942 0.34732918096367471 0 0.35966990428878381 1 I I #
face $-1 $301 $302 $33 $-1 $303 reversed single #
loop $-1 $-1 $201 $118 #
plane-surface $-1 0 0 11.870480513385916 0 0 1 1 0 0 forward_v I I I I #
coedge $-1 $124 $304 $121 $199 forward $119 $-1 #
coedge $-1 $305 $121 $306 $307 reversed $78 $-1 #
coedge $-1 $121 $305 $122 $200 reversed $78 $-1 #
edge $-1 $308 $204 $196 $309 forward #
edge $-1 $204 $310 $122 $311 forward #
coedge $-1 $312 $313 $123 $202 forward $194 $-1 #
edge $-1 $205 $310 $201 $314 forward #
coedge $-1 $315 $124 $313 $316 reversed $119 $-1 #
vertex $-1 $199 $317 #
vertex $-1 $202 $318 #
straight-curve $-1 73.154087954344305 32.505114057078281 107.73678737193151 0 0 1 I I #
face $-1 $319 $320 $35 $-1 $321 reversed single #
loop $-1 $322 $132 $126 #
plane-surface $-1 -28.480109858963829 41.486107149342821 113.83937693055491 0.71933980857756763 0 0.69465836192734942 0.69465836192734942 0 -0.71933980857756763 forward_v I I I I #
coedge $-1 $323 $324 $325 $326 reversed $127 $-1 #
coedge $-1 $211 $211 $-1 $327 forward $129 $-1 #
edge $-1 $328 $328 $130 $329 forward #
vertex $-1 $133 $330 #
ellipse-curve $-1 71.572097203846241 41.486107149342821 10.232281096225815 -0.71933980857756763 0 -0.69465836192734942 0.34732918096367471 0 -0.35966990428878381 1 I I #
face $-1 $-1 $149 $25 $-1 $331 reversed single #
loop $-1 $-1 $231 $134 #
plane-surface $-1 0 50.467100241607362 0 0 -1 0 0 0 -1 forward_v I I I I #
coedge $-1 $332 $229 $232 $333 forward $135 $-1 #
coedge $-1 $235 $137 $138 $223 reversed $87 $-1 #
coedge $-1 $229 $332 $137 $221 reversed $135 $-1 #
edge $-1 $236 $334 $220 $335 forward #
coedge $-1 $139 $138 $332 $336 forward $61 $-1 #
edge $-1 $227 $334 $219 $337 forward #
coedge $-1 $232 $231 $139 $225 reversed $216 $-1 #
edge $-1 $338 $226 $224 $339 forward #
vertex $-1 $141 $340 #
vertex $-1 $238 $341 #
straight-curve $-1 73.154087954344305 0 -11.870480513385916 0 -1 0 I I #
coedge $-1 $218 $220 $142 $230 reversed $135 $-1 #
edge $-1 $233 $236 $229 $342 forward #
coedge $-1 $224 $143 $148 $239 forward $216 $-1 #
coedge $-1 $143 $224 $218 $333 reversed $216 $-1 #
vertex $-1 $144 $343 #
straight-curve $-1 0 50.467100241607362 11.870480513385916 -1 0 0 I I #
coedge $-1 $145 $219 $147 $238 reversed $87 $-1 #
vertex $-1 $230 $344 #
straight-curve $-1 0 -50.467100241607362 11.870480513385916 1 0 0 I I #
edge $-1 $150 $227 $147 $345 forward #
edge $-1 $151 $226 $148 $346 forward #
point $-1 73.154087954344305 -50.467100241607362 11.870480513385916 #
point $-1 73.154087954344305 50.467100241607362 11.870480513385916 #
face $-1 $347 $255 $27 $-1 $348 reversed single #
loop $-1 $-1 $162 $153 #
plane-surface $-1 0 -50.467100241607362 0 0 1 0 0 0 1 forward_v I I I I #
coedge $-1 $251 $349 $265 $350 forward $154 $-1 #
coedge $-1 $351 $156 $352 $353 forward $95 $-1 #
coedge $-1 $156 $351 $354 $355 forward $95 $-1 #
coedge $-1 $166 $356 $156 $249 reversed $167 $-1 #
edge $-1 $357 $358 $248 $359 forward #
coedge $-1 $158 $157 $165 $266 reversed $65 $-1 #
coedge $-1 $360 $245 $157 $252 forward $154 $-1 #
edge $-1 $361 $257 $157 $362 forward #
coedge $-1 $363 $159 $161 $259 reversed $255 $-1 #
coedge $-1 $159 $364 $360 $365 reversed $255 $-1 #
loop $-1 $-1 $364 $242 #
vertex $-1 $259 $366 #
vertex $-1 $365 $367 #
straight-curve $-1 -73.154087954344305 -61.51867808490146 -9.2997083686323379 0 0 -1 I I #
edge $-1 $262 $256 $253 $368 forward #
coedge $-1 $354 $162 $166 $267 reversed $243 $-1 #
coedge $-1 $162 $354 $363 $369 forward $243 $-1 #
vertex $-1 $369 $370 #
straight-curve $-1 0 -50.467100241607362 -6.72893622387876 1 0 0 I I #
straight-curve $-1 0 -61.51867808490146 -6.72893622387876 1 0 0 I I #
coedge $-1 $356 $165 $245 $350 reversed $167 $-1 #
edge $-1 $168 $361 $165 $371 forward #
edge $-1 $357 $169 $166 $372 forward #
face $-1 $-1 $167 $27 $-1 $373 reversed single #
point $-1 73.154087954344305 -61.51867808490146 -6.72893622387876 #
point $-1 73.154087954344305 -50.467100241607362 -6.72893622387876 #
face $-1 $374 $375 $29 $-1 $376 reversed single #
loop $-1 $-1 $377 $171 #
plane-surface $-1 0 -55.992889163254411 -6.72893622387876 0 0 1 1 0 0 forward_v I I I I #
coedge $-1 $174 $378 $379 $380 forward $103 $-1 #
coedge $-1 $176 $175 $282 $381 reversed $69 $-1 #
coedge $-1 $379 $382 $175 $277 forward $383 $-1 #
edge $-1 $384 $278 $276 $385 forward #
vertex $-1 $277 $386 #
straight-curve $-1 -69.990106453348176 20.743053574671411 11.870480513385916 0 -1 0 I I #
vertex $-1 $381 $387 #
straight-curve $-1 -73.154087954344277 32.505114057078281 8.5940816790657806 -0.69465836192734942 0 -0.71933980857756763 I I #
coedge $-1 $388 $179 $275 $381 forward $172 $-1 #
coedge $-1 $179 $389 $181 $286 reversed $172 $-1 #
straight-curve $-1 -73.154087954344305 32.505114057078281 55.11413974618695 0 0 -1 I I #
coedge $-1 $378 $181 $390 $391 forward $103 $-1 #
edge $-1 $183 $392 $283 $393 forward #
point $-1 -69.990106453348176 32.505114057078281 11.870480513385916 #
point $-1 -73.154087954344305 32.505114057078281 11.870480513385916 #
face $-1 $394 $395 $31 $-1 $396 reversed single #
loop $-1 $-1 $397 $185 #
plane-surface $-1 0 0 11.870480513385916 0 0 1 1 0 0 forward_v I I I I #
loop $-1 $-1 $398 $110 #
coedge $-1 $294 $188 $399 $400 forward $111 $-1 #
coedge $-1 $188 $293 $401 $402 reversed $111 $-1 #
coedge $-1 $403 $397 $188 $296 forward $290 $-1 #
edge $-1 $404 $405 $295 $406 forward #
edge $-1 $407 $407 $189 $-1 forward #
vertex $-1 $190 $408 #
ellipse-curve $-1 -70.147379808385381 41.486107149342821 8.8564475328126395 -0.71933980857756763 0 0.69465836192734942 0.34732918096367471 0 0.35966990428878381 1 I I #
point $-1 -71.2247680228826 41.486107149342821 10.591951000514648 #
face $-1 $409 $410 $33 $-1 $411 reversed single #
loop $-1 $412 $413 $193 #
cone-surface $-1 -70.859738506115832 41.486107149342821 9.5443643145192514 0.71933980857756763 0 -0.69465836192734942 0.34732918096367471 0 0.35966990428878381 1 I I 0 1 forward I I I I #
coedge $-1 $196 $414 $415 $416 reversed $119 $-1 #
coedge $-1 $198 $197 $312 $417 reversed $78 $-1 #
coedge $-1 $415 $418 $197 $307 forward $419 $-1 #
edge $-1 $420 $308 $306 $421 forward #
vertex $-1 $416 $422 #
straight-curve $-1 73.154087954344305 20.743053574671411 8.5940816790657308 0 -1 0 I I #
vertex $-1 $417 $423 #
straight-curve $-1 -28.480109858963829 32.505114057078281 113.83937693055491 -0.69465836192734942 0 0.71933980857756763 I I #
coedge $-1 $424 $201 $305 $417 forward $194 $-1 #
coedge $-1 $201 $425 $203 $316 forward $194 $-1 #
straight-curve $-1 38.382592696262662 32.505114057078281 11.870480513385914 -1 0 0 I I #
coedge $-1 $426 $203 $427 $428 forward $119 $-1 #
edge $-1 $429 $205 $203 $430 forward #
point $-1 73.154087954344305 32.505114057078281 8.5940816790657237 #
point $-1 73.154087954344305 32.505114057078281 11.870480513385916 #
face $-1 $431 $432 $35 $-1 $433 forward single #
loop $-1 $-1 $434 $207 #
plane-surface $-1 73.154087954344305 0 0 -1 0 0 0 0 1 forward_v I I I I #
loop $-1 $-1 $435 $126 #
coedge $-1 $324 $210 $436 $437 forward $127 $-1 #
coedge $-1 $210 $323 $438 $439 reversed $127 $-1 #
coedge $-1 $440 $434 $210 $326 forward $320 $-1 #
edge $-1 $441 $442 $325 $443 forward #
edge $-1 $444 $444 $211 $-1 forward #
vertex $-1 $212 $445 #
ellipse-curve $-1 70.147379808385395 41.486107149342821 8.8564475328126395 0.71933980857756763 0 0.69465836192734942 0.34732918096367471 0 -0.35966990428878381 1 I I #
point $-1 71.919426384809967 41.486107149342821 9.8726111919370787 #
plane-surface $-1 73.154087954344305 0 0 -1 0 0 0 0 1 forward_v I I I I #
coedge $-1 $220 $218 $222 $336 reversed $135 $-1 #
edge $-1 $233 $338 $232 $446 forward #
vertex $-1 $336 $447 #
straight-curve $-1 -73.154087954344305 -50.467100241607362 0 0 0 -1 I I #
edge $-1 $334 $338 $332 $448 forward #
straight-curve $-1 0 -50.467100241607362 -11.870480513385916 -1 0 0 I I #
vertex $-1 $225 $449 #
straight-curve $-1 0 50.467100241607362 -11.870480513385916 1 0 0 I I #
point $-1 73.154087954344305 50.467100241607362 -11.870480513385916 #
point $-1 73.154087954344305 -50.467100241607362 -11.870480513385916 #
straight-curve $-1 -73.154087954344305 0 11.870480513385916 0 -1 0 I I #
point $-1 -73.154087954344305 50.467100241607362 11.870480513385916 #
point $-1 -73.154087954344305 -50.467100241607362 11.870480513385916 #
straight-curve $-1 73.154087954344305 -50.467100241607362 0 0 0 -1 I I #
straight-curve $-1 73.154087954344305 50.467100241607362 0 0 0 -1 I I #
face $-1 $268 $450 $27 $-1 $451 reversed single #
plane-surface $-1 -73.154087954344305 0 0 1 0 0 0 0 -1 forward_v I I I I #
coedge $-1 $245 $360 $452 $453 forward $154 $-1 #
edge $-1 $454 $361 $265 $455 forward #
coedge $-1 $247 $246 $456 $457 forward $95 $-1 #
coedge $-1 $458 $459 $246 $353 reversed $450 $-1 #
edge $-1 $358 $460 $352 $461 forward #
coedge $-1 $261 $260 $247 $355 reversed $243 $-1 #
edge $-1 $462 $357 $354 $463 forward #
coedge $-1 $248 $265 $458 $464 reversed $167 $-1 #
vertex $-1 $249 $465 #
vertex $-1 $249 $466 #
straight-curve $-1 73.154087954344305 0 11.870480513385916 0 1 0 I I #
coedge $-1 $349 $251 $254 $365 forward $154 $-1 #
vertex $-1 $266 $467 #
straight-curve $-1 0 -61.51867808490146 -11.870480513385916 -1 0 0 I I #
coedge $-1 $456 $253 $261 $369 reversed $255 $-1 #
coedge $-1 $254 $456 $459 $468 forward $255 $-1 #
edge $-1 $257 $469 $254 $470 forward #
point $-1 -73.154087954344305 -61.51867808490146 -6.72893622387876 #
point $-1 -73.154087954344305 -61.51867808490146 -11.870480513385916 #
straight-curve $-1 -73.154087954344305 -55.992889163254411 -6.72893622387876 0 -1 0 I I #
edge $-1 $462 $262 $363 $471 forward #
point $-1 -73.154087954344305 -50.467100241607362 -6.72893622387876 #
straight-curve $-1 73.154087954344305 -61.51867808490146 -9.2997083686323379 0 0 -1 I I #
straight-curve $-1 73.154087954344305 -50.467100241607362 0 0 0 -1 I I #
plane-surface $-1 73.154087954344305 0 0 -1 0 0 0 0 1 forward_v I I I I #
face $-1 $472 $473 $29 $-1 $474 reversed single #
loop $-1 $-1 $475 $271 #
plane-surface $-1 0 -61.51867808490146 -9.2997083686323379 0 1 0 0 0 1 forward_v I I I I #
coedge $-1 $476 $477 $478 $479 forward $272 $-1 #
coedge $-1 $274 $285 $480 $481 forward $103 $-1 #
coedge $-1 $482 $276 $274 $380 reversed $383 $-1 #
edge $-1 $483 $278 $379 $484 forward #
edge $-1 $280 $384 $282 $485 forward #
coedge $-1 $276 $486 $388 $487 reversed $383 $-1 #
loop $-1 $-1 $276 $488 #
vertex $-1 $487 $489 #
straight-curve $-1 -57.651038209545248 50.467100241607362 24.647960027050843 0.69465836192734942 0 0.71933980857756763 I I #
point $-1 -69.990106453348176 50.467100241607362 11.870480513385916 #
point $-1 -73.154087954344305 32.505114057078281 8.5940816790657504 #
coedge $-1 $490 $282 $382 $487 forward $172 $-1 #
coedge $-1 $283 $491 $492 $493 reversed $172 $-1 #
coedge $-1 $492 $494 $285 $391 reversed $495 $-1 #
edge $-1 $392 $496 $390 $497 forward #
vertex $-1 $286 $498 #
straight-curve $-1 -73.154087954344305 0 11.870480513385916 0 -1 0 I I #
face $-1 $499 $500 $31 $-1 $501 forward single #
loop $-1 $-1 $401 $289 #
plane-surface $-1 -73.154087954344305 0 0 1 0 0 0 0 -1 forward_v I I I I #
coedge $-1 $295 $502 $398 $503 forward $290 $-1 #
coedge $-1 $504 $399 $397 $503 reversed $292 $-1 #
coedge $-1 $398 $505 $293 $400 reversed $292 $-1 #
edge $-1 $404 $506 $293 $507 forward #
coedge $-1 $508 $509 $294 $402 forward $395 $-1 #
edge $-1 $405 $506 $401 $510 forward #
coedge $-1 $511 $295 $509 $512 forward $290 $-1 #
vertex $-1 $503 $513 #
vertex $-1 $512 $514 #
straight-curve $-1 -89.199691602916715 32.505114057078281 11.870480513385914 -1 0 0 I I #
vertex $-1 $297 $515 #
point $-1 -69.800050627421712 41.486107149342821 9.2161174371014223 #
face $-1 $516 $517 $33 $-1 $518 forward single #
loop $-1 $519 $520 $301 #
cone-surface $-1 -69.967544856240991 41.486107149342821 8.6827829423308014 0.71933980857756763 0 -0.69465836192734942 0.17366459048183736 0 0.17983495214439191 1 I I -0.70710678118654746 0.70710678118654746 forward I I I I #
loop $-1 $-1 $521 $193 #
coedge $-1 $413 $413 $522 $523 reversed $302 $-1 #
coedge $-1 $304 $524 $525 $526 reversed $119 $-1 #
coedge $-1 $527 $306 $304 $416 forward $419 $-1 #
edge $-1 $308 $528 $304 $529 forward #
edge $-1 $310 $420 $312 $530 forward #
coedge $-1 $306 $531 $424 $532 reversed $419 $-1 #
loop $-1 $-1 $306 $533 #
vertex $-1 $532 $534 #
straight-curve $-1 6.8339393028911886 50.467100241607362 77.270607652795405 0.69465836192734942 0 -0.71933980857756763 I I #
point $-1 73.154087954344305 50.467100241607362 8.5940816790657344 #
point $-1 69.990106453348147 32.505114057078281 11.870480513385914 #
coedge $-1 $535 $312 $418 $532 forward $194 $-1 #
coedge $-1 $313 $536 $537 $538 forward $194 $-1 #
coedge $-1 $524 $315 $539 $540 reversed $119 $-1 #
coedge $-1 $537 $541 $315 $428 reversed $542 $-1 #
edge $-1 $429 $543 $315 $544 forward #
vertex $-1 $316 $545 #
straight-curve $-1 73.154087954344305 0 11.870480513385916 0 1 0 I I #
face $-1 $546 $547 $35 $-1 $548 reversed single #
loop $-1 $-1 $438 $319 #
plane-surface $-1 0 0 11.870480513385916 0 0 1 1 0 0 forward_v I I I I #
coedge $-1 $325 $549 $435 $550 forward $320 $-1 #
coedge $-1 $551 $436 $434 $550 reversed $322 $-1 #
coedge $-1 $435 $552 $323 $437 reversed $322 $-1 #
edge $-1 $441 $553 $323 $554 forward #
coedge $-1 $555 $556 $324 $439 forward $432 $-1 #
edge $-1 $442 $553 $438 $557 forward #
coedge $-1 $558 $325 $556 $559 reversed $320 $-1 #
vertex $-1 $550 $560 #
vertex $-1 $439 $561 #
straight-curve $-1 73.154087954344305 32.505114057078281 107.73678737193151 0 0 1 I I #
vertex $-1 $327 $562 #
point $-1 70.494708989349078 41.486107149342821 8.496777628523855 #
straight-curve $-1 -73.154087954344305 50.467100241607362 0 0 0 -1 I I #
point $-1 -73.154087954344305 -50.467100241607362 -11.870480513385916 #
straight-curve $-1 -73.154087954344305 0 -11.870480513385916 0 1 0 I I #
point $-1 -73.154087954344305 50.467100241607362 -11.870480513385916 #
loop $-1 $-1 $458 $347 #
plane-surface $-1 0 50.467100241607362 0 0 -1 0 0 0 -1 forward_v I I I I #
coedge $-1 $459 $458 $349 $453 reversed $450 $-1 #
edge $-1 $469 $454 $452 $563 forward #
vertex $-1 $350 $564 #
straight-curve $-1 73.154087954344305 0 -11.870480513385916 0 -1 0 I I #
coedge $-1 $364 $363 $351 $457 reversed $255 $-1 #
edge $-1 $460 $462 $456 $565 forward #
coedge $-1 $452 $352 $356 $464 forward $450 $-1 #
coedge $-1 $352 $452 $364 $468 reversed $450 $-1 #
vertex $-1 $353 $566 #
straight-curve $-1 0 50.467100241607362 11.870480513385916 -1 0 0 I I #
vertex $-1 $457 $567 #
straight-curve $-1 0 -50.467100241607362 11.870480513385916 1 0 0 I I #
edge $-1 $358 $454 $356 $568 forward #
point $-1 73.154087954344305 -50.467100241607362 11.870480513385916 #
point $-1 73.154087954344305 50.467100241607362 11.870480513385916 #
point $-1 73.154087954344305 -61.51867808490146 -11.870480513385916 #
edge $-1 $460 $469 $459 $569 forward #
vertex $-1 $453 $570 #
straight-curve $-1 -73.154087954344305 0 -11.870480513385916 0 1 0 I I #
straight-curve $-1 -73.154087954344305 -50.467100241607362 0 0 0 -1 I I #
face $-1 $488 $495 $29 $-1 $571 reversed single #
loop $-1 $-1 $572 $374 #
plane-surface $-1 0 0 -11.870480513385916 0 0 1 1 0 0 forward_v I I I I #
coedge $-1 $573 $574 $575 $576 forward $375 $-1 #
coedge $-1 $577 $377 $578 $579 reversed $272 $-1 #
coedge $-1 $377 $577 $574 $580 forward $272 $-1 #
coedge $-1 $581 $582 $377 $479 reversed $583 $-1 #
edge $-1 $584 $585 $478 $586 forward #
coedge $-1 $582 $587 $378 $481 reversed $583 $-1 #
edge $-1 $496 $483 $480 $588 forward #
coedge $-1 $486 $379 $587 $589 forward $383 $-1 #
vertex $-1 $481 $590 #
straight-curve $-1 0 50.467100241607362 11.870480513385916 -1 0 0 I I #
straight-curve $-1 -73.154087954344305 20.743053574671411 8.5940816790657575 0 1 0 I I #
coedge $-1 $382 $482 $591 $592 reversed $383 $-1 #
edge $-1 $384 $593 $382 $594 forward #
face $-1 $595 $383 $29 $-1 $596 reversed single #
point $-1 -73.154087954344305 50.467100241607362 8.5940816790657504 #
coedge $-1 $575 $388 $597 $598 reversed $172 $-1 #
coedge $-1 $389 $575 $577 $599 reversed $172 $-1 #
coedge $-1 $578 $390 $389 $493 forward $495 $-1 #
edge $-1 $392 $600 $389 $601 forward #
coedge $-1 $390 $578 $582 $602 reversed $495 $-1 #
loop $-1 $-1 $578 $472 #
vertex $-1 $481 $603 #
straight-curve $-1 0 -50.467100241607362 11.870480513385916 1 0 0 I I #
point $-1 -73.154087954344305 -50.467100241607362 11.870480513385916 #
face $-1 $604 $605 $31 $-1 $606 reversed single #
loop $-1 $-1 $607 $394 #
plane-surface $-1 0 -55.992889163254411 -6.72893622387876 0 0 1 1 0 0 forward_v I I I I #
coedge $-1 $397 $608 $609 $610 forward $290 $-1 #
edge $-1 $611 $404 $397 $612 forward #
coedge $-1 $505 $398 $613 $614 reversed $292 $-1 #
coedge $-1 $399 $504 $508 $615 reversed $292 $-1 #
vertex $-1 $615 $616 #
straight-curve $-1 -73.154087954344277 32.505114057078281 8.5940816790657806 -0.69465836192734942 0 -0.71933980857756763 I I #
coedge $-1 $617 $401 $505 $615 forward $395 $-1 #
coedge $-1 $401 $618 $403 $512 reversed $395 $-1 #
straight-curve $-1 -73.154087954344305 32.505114057078281 55.11413974618695 0 0 -1 I I #
coedge $-1 $608 $403 $619 $620 forward $290 $-1 #
edge $-1 $405 $621 $509 $622 forward #
point $-1 -69.990106453348176 32.505114057078281 11.870480513385916 #
point $-1 -73.154087954344305 32.505114057078281 11.870480513385916 #
point $-1 -69.787709904096602 41.486107149342821 8.5091183518489633 #
face $-1 $623 $624 $33 $-1 $625 forward single #
loop $-1 $-1 $626 $409 #
plane-surface $-1 -178.39938320583343 32.505114057078281 110.2282794923739 0 1 0 -0.71933980857756763 0 0.69465836192734942 forward_v I I I I #
loop $-1 $-1 $627 $301 #
coedge $-1 $520 $520 $521 $628 forward $410 $-1 #
coedge $-1 $521 $521 $520 $628 reversed $412 $-1 #
coedge $-1 $522 $522 $413 $523 forward $624 $-1 #
edge $-1 $629 $629 $522 $630 forward #
coedge $-1 $414 $426 $631 $632 forward $119 $-1 #
coedge $-1 $633 $634 $414 $526 forward $635 $-1 #
edge $-1 $528 $636 $414 $637 forward #
coedge $-1 $638 $415 $634 $639 reversed $419 $-1 #
vertex $-1 $526 $640 #
straight-curve $-1 73.154087954344305 50.467100241607362 0 0 0 -1 I I #
straight-curve $-1 69.990106453348147 20.743053574671411 11.870480513385914 0 1 0 I I #
coedge $-1 $418 $638 $641 $642 forward $419 $-1 #
edge $-1 $420 $643 $418 $644 forward #
face $-1 $-1 $419 $33 $-1 $645 reversed single #
point $-1 69.990106453348147 50.467100241607362 11.870480513385914 #
coedge $-1 $646 $424 $647 $648 forward $194 $-1 #
coedge $-1 $425 $646 $649 $650 forward $194 $-1 #
coedge $-1 $651 $427 $425 $538 reversed $542 $-1 #
edge $-1 $652 $429 $537 $653 forward #
coedge $-1 $654 $655 $426 $540 forward $656 $-1 #
edge $-1 $657 $543 $426 $658 forward #
coedge $-1 $427 $651 $654 $659 forward $542 $-1 #
loop $-1 $-1 $541 $660 #
vertex $-1 $540 $661 #
straight-curve $-1 73.154087954344305 -50.467100241607362 0 0 0 -1 I I #
point $-1 73.154087954344305 -50.467100241607362 11.870480513385916 #
face $-1 $662 $663 $35 $-1 $664 reversed single #
loop $-1 $665 $666 $431 #
cone-surface $-1 -70.859738506115832 41.486107149342821 9.5443643145192514 0.71933980857756763 0 -0.69465836192734942 0.34732918096367471 0 0.35966990428878381 1 I I 0 1 forward I I I I #
coedge $-1 $434 $667 $668 $669 reversed $320 $-1 #
edge $-1 $670 $441 $434 $671 forward #
coedge $-1 $552 $435 $672 $673 reversed $322 $-1 #
coedge $-1 $436 $551 $555 $674 reversed $322 $-1 #
vertex $-1 $674 $675 #
straight-curve $-1 -28.480109858963829 32.505114057078281 113.83937693055491 -0.69465836192734942 0 0.71933980857756763 I I #
coedge $-1 $676 $438 $552 $674 forward $432 $-1 #
coedge $-1 $438 $677 $440 $559 forward $432 $-1 #
straight-curve $-1 38.382592696262662 32.505114057078281 11.870480513385914 -1 0 0 I I #
coedge $-1 $678 $440 $679 $680 forward $320 $-1 #
edge $-1 $681 $442 $440 $682 forward #
point $-1 73.154087954344305 32.505114057078281 8.5940816790657237 #
point $-1 73.154087954344305 32.505114057078281 11.870480513385916 #
point $-1 69.787709904096616 41.486107149342821 8.5091183518489633 #
straight-curve $-1 0 50.467100241607362 -11.870480513385916 1 0 0 I I #
point $-1 73.154087954344305 50.467100241607362 -11.870480513385916 #
straight-curve $-1 -73.154087954344305 0 11.870480513385916 0 -1 0 I I #
point $-1 -73.154087954344305 50.467100241607362 11.870480513385916 #
point $-1 -73.154087954344305 -50.467100241607362 11.870480513385916 #
straight-curve $-1 73.154087954344305 50.467100241607362 0 0 0 -1 I I #
straight-curve $-1 -73.154087954344305 50.467100241607362 0 0 0 -1 I I #
point $-1 -73.154087954344305 50.467100241607362 -11.870480513385916 #
plane-surface $-1 0 -50.467100241607362 0 0 1 0 0 0 1 forward_v I I I I #
coedge $-1 $683 $591 $684 $685 forward $473 $-1 #
coedge $-1 $686 $475 $683 $687 reversed $375 $-1 #
coedge $-1 $475 $686 $477 $580 reversed $375 $-1 #
coedge $-1 $491 $490 $475 $576 reversed $172 $-1 #
edge $-1 $688 $689 $575 $690 forward #
coedge $-1 $477 $476 $491 $599 forward $272 $-1 #
coedge $-1 $494 $492 $476 $579 forward $495 $-1 #
edge $-1 $600 $585 $578 $691 forward #
edge $-1 $688 $584 $574 $692 forward #
coedge $-1 $684 $478 $686 $693 forward $583 $-1 #
coedge $-1 $478 $480 $494 $602 forward $583 $-1 #
loop $-1 $-1 $582 $595 #
vertex $-1 $479 $694 #
vertex $-1 $479 $695 #
straight-curve $-1 73.154087954344305 -55.992889163254411 -6.72893622387876 0 1 0 I I #
coedge $-1 $480 $684 $482 $589 reversed $583 $-1 #
straight-curve $-1 73.154087954344305 0 11.870480513385916 0 1 0 I I #
edge $-1 $483 $696 $587 $697 forward #
point $-1 73.154087954344305 50.467100241607362 11.870480513385916 #
coedge $-1 $572 $597 $486 $592 forward $473 $-1 #
edge $-1 $593 $696 $486 $698 forward #
vertex $-1 $592 $699 #
straight-curve $-1 -73.154087954344305 50.467100241607362 0 0 0 -1 I I #
face $-1 $-1 $583 $29 $-1 $700 reversed single #
plane-surface $-1 0 50.467100241607362 0 0 -1 0 0 0 -1 forward_v I I I I #
coedge $-1 $591 $683 $490 $598 forward $473 $-1 #
edge $-1 $689 $593 $490 $701 forward #
edge $-1 $600 $688 $491 $702 forward #
vertex $-1 $493 $703 #
straight-curve $-1 -73.154087954344305 -50.467100241607362 0 0 0 -1 I I #
edge $-1 $496 $585 $582 $704 forward #
point $-1 73.154087954344305 -50.467100241607362 11.870480513385916 #
face $-1 $705 $706 $31 $-1 $707 reversed single #
loop $-1 $-1 $708 $499 #
plane-surface $-1 0 -61.51867808490146 -9.2997083686323379 0 1 0 0 0 1 forward_v I I I I #
coedge $-1 $709 $710 $711 $712 forward $500 $-1 #
coedge $-1 $502 $511 $713 $714 forward $290 $-1 #
coedge $-1 $715 $613 $502 $610 reversed $716 $-1 #
edge $-1 $717 $611 $609 $718 forward #
vertex $-1 $614 $719 #
straight-curve $-1 -69.990106453348176 20.743053574671411 11.870480513385916 0 -1 0 I I #
coedge $-1 $609 $720 $504 $614 forward $716 $-1 #
edge $-1 $721 $611 $613 $722 forward #
edge $-1 $506 $721 $508 $723 forward #
point $-1 -73.154087954344305 32.505114057078281 8.5940816790657504 #
coedge $-1 $724 $508 $720 $725 forward $395 $-1 #
coedge $-1 $509 $726 $727 $728 reversed $395 $-1 #
coedge $-1 $727 $729 $511 $620 reversed $730 $-1 #
edge $-1 $621 $731 $619 $732 forward #
vertex $-1 $512 $733 #
straight-curve $-1 -73.154087954344305 0 11.870480513385916 0 -1 0 I I #
face $-1 $734 $735 $33 $-1 $736 reversed single #
loop $-1 $737 $522 $516 #
plane-surface $-1 -73.154087954344277 41.486107149342821 8.5940816790657806 -0.71933980857756763 0 0.69465836192734942 0.69465836192734942 0 0.71933980857756763 forward_v I I I I #
coedge $-1 $738 $739 $646 $740 reversed $517 $-1 #
coedge $-1 $627 $627 $-1 $741 forward $519 $-1 #
edge $-1 $742 $742 $520 $743 forward #
vertex $-1 $523 $744 #
ellipse-curve $-1 -71.572097203846241 41.486107149342821 10.232281096225829 0.71933980857756763 0 -0.69465836192734942 0.34732918096367471 0 0.35966990428878381 1 I I #
coedge $-1 $745 $746 $524 $632 reversed $747 $-1 #
edge $-1 $657 $636 $524 $748 forward #
coedge $-1 $749 $525 $746 $750 forward $635 $-1 #
coedge $-1 $525 $749 $527 $639 forward $635 $-1 #
loop $-1 $-1 $525 $751 #
vertex $-1 $632 $752 #
straight-curve $-1 73.154087954344305 0 -11.870480513385916 0 -1 0 I I #
coedge $-1 $531 $527 $753 $754 reversed $419 $-1 #
edge $-1 $755 $528 $527 $756 forward #
point $-1 73.154087954344305 50.467100241607362 -11.870480513385916 #
coedge $-1 $757 $647 $531 $642 reversed $737 $-1 #
edge $-1 $758 $643 $531 $759 forward #
vertex $-1 $642 $760 #
straight-curve $-1 0 50.467100241607362 11.870480513385916 -1 0 0 I I #
plane-surface $-1 0 50.467100241607362 0 0 -1 0 0 0 -1 forward_v I I I I #
coedge $-1 $536 $535 $626 $740 forward $194 $-1 #
coedge $-1 $641 $761 $535 $648 reversed $737 $-1 #
edge $-1 $643 $762 $535 $763 forward #
coedge $-1 $764 $765 $536 $650 reversed $735 $-1 #
edge $-1 $766 $652 $649 $767 forward #
coedge $-1 $541 $537 $765 $768 forward $542 $-1 #
vertex $-1 $650 $769 #
straight-curve $-1 0 -50.467100241607362 11.870480513385916 1 0 0 I I #
coedge $-1 $770 $539 $541 $659 reversed $656 $-1 #
coedge $-1 $539 $770 $745 $771 forward $656 $-1 #
loop $-1 $-1 $539 $734 #
vertex $-1 $540 $772 #
straight-curve $-1 73.154087954344305 -55.992889163254411 -6.72893622387876 0 1 0 I I #
edge $-1 $773 $543 $541 $774 forward #
face $-1 $533 $542 $33 $-1 $775 reversed single #
point $-1 73.154087954344305 -50.467100241607362 -6.72893622387876 #
face $-1 $776 $777 $35 $-1 $778 forward single #
loop $-1 $779 $780 $546 #
cone-surface $-1 -69.967544856240991 41.486107149342821 8.6827829423308014 0.71933980857756763 0 -0.69465836192734942 0.17366459048183736 0 0.17983495214439191 1 I I -0.70710678118654746 0.70710678118654746 forward I I I I #
loop $-1 $-1 $781 $431 #
coedge $-1 $666 $666 $782 $783 reversed $547 $-1 #
coedge $-1 $549 $784 $785 $786 reversed $320 $-1 #
coedge $-1 $787 $672 $549 $669 forward $788 $-1 #
edge $-1 $670 $789 $549 $790 forward #
vertex $-1 $669 $791 #
straight-curve $-1 73.154087954344305 20.743053574671411 8.5940816790657308 0 -1 0 I I #
coedge $-1 $668 $792 $551 $673 forward $788 $-1 #
edge $-1 $793 $670 $672 $794 forward #
edge $-1 $553 $793 $555 $795 forward #
point $-1 69.990106453348147 32.505114057078281 11.870480513385914 #
coedge $-1 $796 $555 $792 $797 forward $432 $-1 #
coedge $-1 $556 $798 $799 $800 forward $432 $-1 #
coedge $-1 $784 $558 $801 $802 reversed $320 $-1 #
coedge $-1 $799 $803 $558 $680 reversed $804 $-1 #
edge $-1 $681 $805 $558 $806 forward #
vertex $-1 $559 $807 #
straight-curve $-1 73.154087954344305 0 11.870480513385916 0 1 0 I I #
coedge $-1 $597 $572 $573 $687 forward $473 $-1 #
coedge $-1 $587 $581 $572 $685 reversed $583 $-1 #
edge $-1 $696 $808 $684 $809 forward #
coedge $-1 $574 $573 $581 $693 reversed $375 $-1 #
edge $-1 $808 $689 $573 $810 forward #
vertex $-1 $599 $811 #
vertex $-1 $598 $812 #
straight-curve $-1 -73.154087954344305 -61.51867808490146 -9.2997083686323379 0 0 -1 I I #
straight-curve $-1 0 -50.467100241607362 -6.72893622387876 1 0 0 I I #
straight-curve $-1 0 -61.51867808490146 -6.72893622387876 1 0 0 I I #
edge $-1 $584 $808 $581 $813 forward #
point $-1 73.154087954344305 -61.51867808490146 -6.72893622387876 #
point $-1 73.154087954344305 -50.467100241607362 -6.72893622387876 #
vertex $-1 $685 $814 #
straight-curve $-1 73.154087954344305 50.467100241607362 0 0 0 -1 I I #
straight-curve $-1 0 50.467100241607362 -11.870480513385916 1 0 0 I I #
point $-1 -73.154087954344305 50.467100241607362 -11.870480513385916 #
plane-surface $-1 73.154087954344305 0 0 -1 0 0 0 0 1 forward_v I I I I #
straight-curve $-1 -73.154087954344305 0 -11.870480513385916 0 1 0 I I #
straight-curve $-1 -73.154087954344305 -55.992889163254411 -6.72893622387876 0 -1 0 I I #
point $-1 -73.154087954344305 -50.467100241607362 -6.72893622387876 #
straight-curve $-1 73.154087954344305 -50.467100241607362 0 0 0 -1 I I #
face $-1 $815 $730 $31 $-1 $816 reversed single #
loop $-1 $-1 $817 $604 #
plane-surface $-1 0 0 -11.870480513385916 0 0 1 1 0 0 forward_v I I I I #
coedge $-1 $818 $819 $820 $821 forward $605 $-1 #
coedge $-1 $822 $607 $823 $824 reversed $500 $-1 #
coedge $-1 $607 $822 $819 $825 forward $500 $-1 #
coedge $-1 $826 $827 $607 $712 reversed $828 $-1 #
edge $-1 $829 $830 $711 $831 forward #
coedge $-1 $827 $832 $608 $714 reversed $828 $-1 #
edge $-1 $731 $717 $713 $833 forward #
coedge $-1 $834 $609 $832 $835 forward $716 $-1 #
loop $-1 $-1 $613 $815 #
vertex $-1 $714 $836 #
straight-curve $-1 0 50.467100241607362 11.870480513385916 -1 0 0 I I #
point $-1 -69.990106453348176 50.467100241607362 11.870480513385916 #
coedge $-1 $613 $834 $617 $725 reversed $716 $-1 #
vertex $-1 $725 $837 #
straight-curve $-1 -57.651038209545248 50.467100241607362 24.647960027050843 0.69465836192734942 0 0.71933980857756763 I I #
straight-curve $-1 -73.154087954344305 20.743053574671411 8.5940816790657575 0 1 0 I I #
coedge $-1 $820 $617 $838 $839 reversed $395 $-1 #
edge $-1 $721 $840 $720 $841 forward #
coedge $-1 $618 $820 $822 $842 reversed $395 $-1 #
coedge $-1 $823 $619 $618 $728 forward $730 $-1 #
edge $-1 $621 $843 $618 $844 forward #
coedge $-1 $619 $823 $827 $845 reversed $730 $-1 #
loop $-1 $-1 $823 $705 #
vertex $-1 $714 $846 #
straight-curve $-1 0 -50.467100241607362 11.870480513385916 1 0 0 I I #
point $-1 -73.154087954344305 -50.467100241607362 11.870480513385916 #
face $-1 $847 $656 $33 $-1 $848 forward single #
loop $-1 $-1 $764 $623 #
plane-surface $-1 -73.154087954344305 0 0 1 0 0 0 0 -1 forward_v I I I I #
loop $-1 $-1 $647 $516 #
coedge $-1 $739 $626 $761 $849 forward $517 $-1 #
coedge $-1 $626 $738 $764 $850 reversed $517 $-1 #
edge $-1 $762 $766 $646 $851 forward #
edge $-1 $852 $852 $627 $-1 forward #
vertex $-1 $628 $853 #
ellipse-curve $-1 -70.147379808385381 41.486107149342821 8.8564475328126395 -0.71933980857756763 0 0.69465836192734942 0.34732918096367471 0 0.35966990428878381 1 I I #
point $-1 -71.2247680228826 41.486107149342821 10.591951000514648 #
coedge $-1 $854 $631 $655 $771 reversed $747 $-1 #
coedge $-1 $631 $854 $633 $750 reversed $747 $-1 #
loop $-1 $-1 $854 $847 #
straight-curve $-1 73.154087954344305 -61.51867808490146 -9.2997083686323379 0 0 -1 I I #
coedge $-1 $634 $633 $855 $856 forward $635 $-1 #
edge $-1 $636 $857 $746 $858 forward #
face $-1 $660 $635 $33 $-1 $859 reversed single #
point $-1 73.154087954344305 -61.51867808490146 -11.870480513385916 #
coedge $-1 $855 $860 $638 $754 forward $735 $-1 #
edge $-1 $758 $755 $638 $861 forward #
vertex $-1 $639 $862 #
straight-curve $-1 0 50.467100241607362 -11.870480513385916 1 0 0 I I #
coedge $-1 $761 $641 $860 $863 reversed $737 $-1 #
vertex $-1 $754 $864 #
straight-curve $-1 -57.651038209545248 50.467100241607362 24.647960027050843 0.69465836192734942 0 0.71933980857756763 I I #
point $-1 -69.990106453348176 50.467100241607362 11.870480513385916 #
coedge $-1 $647 $757 $738 $849 reversed $737 $-1 #
vertex $-1 $648 $865 #
straight-curve $-1 -69.990106453348176 20.743053574671411 11.870480513385916 0 -1 0 I I #
coedge $-1 $860 $649 $739 $850 forward $735 $-1 #
coedge $-1 $649 $866 $651 $768 reversed $735 $-1 #
vertex $-1 $650 $867 #
straight-curve $-1 -73.154087954344305 0 11.870480513385916 0 -1 0 I I #
edge $-1 $652 $773 $765 $868 forward #
point $-1 -73.154087954344305 -50.467100241607362 11.870480513385916 #
coedge $-1 $655 $654 $866 $869 forward $656 $-1 #
edge $-1 $870 $657 $745 $871 forward #
point $-1 73.154087954344305 -61.51867808490146 -6.72893622387876 #
vertex $-1 $768 $872 #
straight-curve $-1 0 -50.467100241607362 -6.72893622387876 1 0 0 I I #
plane-surface $-1 0 -50.467100241607362 0 0 1 0 0 0 1 forward_v I I I I #
face $-1 $873 $874 $35 $-1 $875 forward single #
loop $-1 $-1 $876 $662 #
plane-surface $-1 -178.39938320583343 32.505114057078281 110.2282794923739 0 1 0 -0.71933980857756763 0 0.69465836192734942 forward_v I I I I #
loop $-1 $-1 $877 $546 #
coedge $-1 $780 $780 $781 $878 forward $663 $-1 #
coedge $-1 $781 $781 $780 $878 reversed $665 $-1 #
coedge $-1 $782 $782 $666 $783 forward $874 $-1 #
edge $-1 $879 $879 $782 $880 forward #
coedge $-1 $667 $678 $881 $882 forward $320 $-1 #
coedge $-1 $883 $884 $667 $786 forward $885 $-1 #
edge $-1 $789 $886 $667 $887 forward #
coedge $-1 $888 $668 $884 $889 reversed $788 $-1 #
loop $-1 $-1 $672 $890 #
vertex $-1 $786 $891 #
straight-curve $-1 73.154087954344305 50.467100241607362 0 0 0 -1 I I #
point $-1 73.154087954344305 50.467100241607362 8.5940816790657344 #
coedge $-1 $672 $892 $676 $797 reversed $788 $-1 #
vertex $-1 $797 $893 #
straight-curve $-1 6.8339393028911886 50.467100241607362 77.270607652795405 0.69465836192734942 0 -0.71933980857756763 I I #
straight-curve $-1 69.990106453348147 20.743053574671411 11.870480513385914 0 1 0 I I #
coedge $-1 $894 $676 $895 $896 forward $432 $-1 #
edge $-1 $793 $897 $792 $898 forward #
coedge $-1 $677 $894 $899 $900 forward $432 $-1 #
coedge $-1 $901 $679 $677 $800 reversed $804 $-1 #
edge $-1 $902 $681 $799 $903 forward #
coedge $-1 $904 $905 $678 $802 forward $906 $-1 #
edge $-1 $907 $805 $678 $908 forward #
coedge $-1 $679 $901 $904 $909 forward $804 $-1 #
loop $-1 $-1 $803 $910 #
vertex $-1 $802 $911 #
straight-curve $-1 73.154087954344305 -50.467100241607362 0 0 0 -1 I I #
point $-1 73.154087954344305 -50.467100241607362 11.870480513385916 #
vertex $-1 $693 $912 #
straight-curve $-1 73.154087954344305 0 -11.870480513385916 0 -1 0 I I #
straight-curve $-1 0 -61.51867808490146 -11.870480513385916 -1 0 0 I I #
point $-1 -73.154087954344305 -61.51867808490146 -6.72893622387876 #
point $-1 -73.154087954344305 -61.51867808490146 -11.870480513385916 #
straight-curve $-1 73.154087954344305 -61.51867808490146 -9.2997083686323379 0 0 -1 I I #
point $-1 73.154087954344305 50.467100241607362 -11.870480513385916 #
face $-1 $913 $716 $31 $-1 $914 reversed single #
plane-surface $-1 0 -50.467100241607362 0 0 1 0 0 0 1 forward_v I I I I #
coedge $-1 $915 $916 $917 $918 forward $706 $-1 #
coedge $-1 $919 $708 $915 $920 reversed $605 $-1 #
coedge $-1 $708 $919 $710 $825 reversed $605 $-1 #
coedge $-1 $726 $724 $708 $821 reversed $395 $-1 #
edge $-1 $921 $922 $820 $923 forward #
coedge $-1 $710 $709 $726 $842 forward $500 $-1 #
coedge $-1 $729 $727 $709 $824 forward $730 $-1 #
edge $-1 $843 $830 $823 $924 forward #
edge $-1 $921 $829 $819 $925 forward #
coedge $-1 $917 $711 $919 $926 forward $828 $-1 #
coedge $-1 $711 $713 $729 $845 forward $828 $-1 #
loop $-1 $-1 $827 $913 #
vertex $-1 $712 $927 #
vertex $-1 $712 $928 #
straight-curve $-1 73.154087954344305 -55.992889163254411 -6.72893622387876 0 1 0 I I #
coedge $-1 $713 $917 $715 $835 reversed $828 $-1 #
straight-curve $-1 73.154087954344305 0 11.870480513385916 0 1 0 I I #
coedge $-1 $720 $715 $916 $929 reversed $716 $-1 #
edge $-1 $717 $930 $832 $931 forward #
point $-1 73.154087954344305 50.467100241607362 11.870480513385916 #
point $-1 -73.154087954344305 50.467100241607362 8.5940816790657504 #
coedge $-1 $916 $915 $724 $839 forward $706 $-1 #
edge $-1 $922 $840 $724 $932 forward #
vertex $-1 $929 $933 #
straight-curve $-1 -73.154087954344305 50.467100241607362 0 0 0 -1 I I #
edge $-1 $843 $921 $726 $934 forward #
vertex $-1 $728 $935 #
straight-curve $-1 -73.154087954344305 -50.467100241607362 0 0 0 -1 I I #
edge $-1 $731 $830 $827 $936 forward #
point $-1 73.154087954344305 -50.467100241607362 11.870480513385916 #
face $-1 $751 $747 $33 $-1 $937 reversed single #
plane-surface $-1 0 -55.992889163254411 -6.72893622387876 0 0 1 1 0 0 forward_v I I I I #
edge $-1 $762 $938 $738 $939 forward #
edge $-1 $766 $938 $764 $940 forward #
straight-curve $-1 -89.199691602916715 32.505114057078281 11.870480513385914 -1 0 0 I I #
vertex $-1 $741 $941 #
point $-1 -69.800050627421712 41.486107149342821 9.2161174371014223 #
coedge $-1 $746 $745 $942 $943 forward $747 $-1 #
coedge $-1 $942 $753 $749 $856 reversed $735 $-1 #
edge $-1 $857 $755 $855 $944 forward #
vertex $-1 $856 $945 #
straight-curve $-1 0 -61.51867808490146 -11.870480513385916 -1 0 0 I I #
plane-surface $-1 0 0 -11.870480513385916 0 0 1 1 0 0 forward_v I I I I #
coedge $-1 $753 $764 $757 $863 forward $735 $-1 #
straight-curve $-1 -73.154087954344305 50.467100241607362 0 0 0 -1 I I #
point $-1 -73.154087954344305 50.467100241607362 -11.870480513385916 #
edge $-1 $938 $758 $860 $946 forward #
point $-1 -73.154087954344305 50.467100241607362 8.5940816790657504 #
point $-1 -69.990106453348176 32.505114057078281 11.870480513385916 #
coedge $-1 $765 $942 $770 $869 reversed $735 $-1 #
point $-1 -73.154087954344305 32.505114057078281 11.870480513385916 #
straight-curve $-1 -73.154087954344305 -50.467100241607362 0 0 0 -1 I I #
edge $-1 $773 $870 $866 $947 forward #
vertex $-1 $869 $948 #
straight-curve $-1 0 -61.51867808490146 -6.72893622387876 1 0 0 I I #
point $-1 -73.154087954344305 -50.467100241607362 -6.72893622387876 #
face $-1 $949 $950 $35 $-1 $951 reversed single #
loop $-1 $952 $782 $776 #
plane-surface $-1 -73.154087954344277 41.486107149342821 8.5940816790657806 -0.71933980857756763 0 0.69465836192734942 0.69465836192734942 0 0.71933980857756763 forward_v I I I I #
coedge $-1 $953 $954 $894 $955 reversed $777 $-1 #
coedge $-1 $877 $877 $-1 $956 forward $779 $-1 #
edge $-1 $957 $957 $780 $958 forward #
vertex $-1 $783 $959 #
ellipse-curve $-1 -71.572097203846241 41.486107149342821 10.232281096225829 0.71933980857756763 0 -0.69465836192734942 0.34732918096367471 0 0.35966990428878381 1 I I #
coedge $-1 $960 $961 $784 $882 reversed $962 $-1 #
edge $-1 $907 $886 $784 $963 forward #
coedge $-1 $964 $785 $961 $965 forward $885 $-1 #
coedge $-1 $785 $964 $787 $889 forward $885 $-1 #
loop $-1 $-1 $785 $966 #
vertex $-1 $882 $967 #
straight-curve $-1 73.154087954344305 0 -11.870480513385916 0 -1 0 I I #
coedge $-1 $892 $787 $968 $969 reversed $788 $-1 #
edge $-1 $970 $789 $787 $971 forward #
face $-1 $-1 $788 $35 $-1 $972 reversed single #
point $-1 73.154087954344305 50.467100241607362 -11.870480513385916 #
coedge $-1 $792 $888 $973 $974 forward $788 $-1 #
point $-1 69.990106453348147 50.467100241607362 11.870480513385914 #
coedge $-1 $798 $796 $876 $955 forward $432 $-1 #
coedge $-1 $973 $975 $796 $896 reversed $952 $-1 #
edge $-1 $897 $976 $796 $977 forward #
vertex $-1 $974 $978 #
straight-curve $-1 0 50.467100241607362 11.870480513385916 -1 0 0 I I #
coedge $-1 $979 $980 $798 $900 reversed $950 $-1 #
edge $-1 $981 $902 $899 $982 forward #
coedge $-1 $803 $799 $980 $983 forward $804 $-1 #
vertex $-1 $900 $984 #
straight-curve $-1 0 -50.467100241607362 11.870480513385916 1 0 0 I I #
coedge $-1 $985 $801 $803 $909 reversed $906 $-1 #
coedge $-1 $801 $985 $960 $986 forward $906 $-1 #
loop $-1 $-1 $801 $949 #
vertex $-1 $802 $987 #
straight-curve $-1 73.154087954344305 -55.992889163254411 -6.72893622387876 0 1 0 I I #
edge $-1 $988 $805 $803 $989 forward #
face $-1 $890 $804 $35 $-1 $990 reversed single #
point $-1 73.154087954344305 -50.467100241607362 -6.72893622387876 #
point $-1 73.154087954344305 -61.51867808490146 -11.870480513385916 #
face $-1 $-1 $828 $31 $-1 $991 reversed single #
plane-surface $-1 0 50.467100241607362 0 0 -1 0 0 0 -1 forward_v I I I I #
coedge $-1 $838 $817 $818 $920 forward $706 $-1 #
coedge $-1 $817 $838 $834 $929 forward $706 $-1 #
coedge $-1 $832 $826 $817 $918 reversed $828 $-1 #
edge $-1 $930 $992 $917 $993 forward #
coedge $-1 $819 $818 $826 $926 reversed $605 $-1 #
edge $-1 $992 $922 $818 $994 forward #
vertex $-1 $842 $995 #
vertex $-1 $839 $996 #
straight-curve $-1 -73.154087954344305 -61.51867808490146 -9.2997083686323379 0 0 -1 I I #
straight-curve $-1 0 -50.467100241607362 -6.72893622387876 1 0 0 I I #
straight-curve $-1 0 -61.51867808490146 -6.72893622387876 1 0 0 I I #
edge $-1 $829 $992 $826 $997 forward #
point $-1 73.154087954344305 -61.51867808490146 -6.72893622387876 #
point $-1 73.154087954344305 -50.467100241607362 -6.72893622387876 #
edge $-1 $840 $930 $834 $998 forward #
vertex $-1 $918 $999 #
straight-curve $-1 73.154087954344305 50.467100241607362 0 0 0 -1 I I #
straight-curve $-1 -73.154087954344305 0 -11.870480513385916 0 1 0 I I #
point $-1 -73.154087954344305 50.467100241607362 -11.870480513385916 #
straight-curve $-1 -73.154087954344305 -55.992889163254411 -6.72893622387876 0 -1 0 I I #
point $-1 -73.154087954344305 -50.467100241607362 -6.72893622387876 #
straight-curve $-1 73.154087954344305 -50.467100241607362 0 0 0 -1 I I #
plane-surface $-1 0 -61.51867808490146 -9.2997083686323379 0 1 0 0 0 1 forward_v I I I I #
vertex $-1 $863 $1000 #
straight-curve $-1 -73.154087954344277 32.505114057078281 8.5940816790657806 -0.69465836192734942 0 -0.71933980857756763 I I #
straight-curve $-1 -73.154087954344305 32.505114057078281 55.11413974618695 0 0 -1 I I #
point $-1 -69.787709904096602 41.486107149342821 8.5091183518489633 #
coedge $-1 $866 $855 $854 $943 reversed $735 $-1 #
edge $-1 $870 $857 $942 $1001 forward #
straight-curve $-1 -73.154087954344305 0 -11.870480513385916 0 1 0 I I #
point $-1 -73.154087954344305 -61.51867808490146 -11.870480513385916 #
straight-curve $-1 -73.154087954344305 20.743053574671411 8.5940816790657575 0 1 0 I I #
straight-curve $-1 -73.154087954344305 -55.992889163254411 -6.72893622387876 0 -1 0 I I #
point $-1 -73.154087954344305 -61.51867808490146 -6.72893622387876 #
face $-1 $1002 $906 $35 $-1 $1003 forward single #
loop $-1 $-1 $979 $873 #
plane-surface $-1 -73.154087954344305 0 0 1 0 0 0 0 -1 forward_v I I I I #
loop $-1 $-1 $895 $776 #
coedge $-1 $954 $876 $975 $1004 forward $777 $-1 #
coedge $-1 $876 $953 $979 $1005 reversed $777 $-1 #
edge $-1 $976 $981 $894 $1006 forward #
edge $-1 $1007 $1007 $877 $-1 forward #
vertex $-1 $878 $1008 #
ellipse-curve $-1 -70.147379808385381 41.486107149342821 8.8564475328126395 -0.71933980857756763 0 0.69465836192734942 0.34732918096367471 0 0.35966990428878381 1 I I #
point $-1 -71.2247680228826 41.486107149342821 10.591951000514648 #
coedge $-1 $1009 $881 $905 $986 reversed $962 $-1 #
coedge $-1 $881 $1009 $883 $965 reversed $962 $-1 #
loop $-1 $-1 $1009 $1002 #
straight-curve $-1 73.154087954344305 -61.51867808490146 -9.2997083686323379 0 0 -1 I I #
coedge $-1 $884 $883 $1010 $1011 forward $885 $-1 #
edge $-1 $886 $1012 $961 $1013 forward #
face $-1 $910 $885 $35 $-1 $1014 reversed single #
point $-1 73.154087954344305 -61.51867808490146 -11.870480513385916 #
coedge $-1 $1010 $1015 $888 $969 forward $950 $-1 #
edge $-1 $1016 $970 $888 $1017 forward #
vertex $-1 $889 $1018 #
straight-curve $-1 0 50.467100241607362 -11.870480513385916 1 0 0 I I #
plane-surface $-1 0 50.467100241607362 0 0 -1 0 0 0 -1 forward_v I I I I #
coedge $-1 $1019 $895 $892 $974 reversed $952 $-1 #
edge $-1 $1016 $897 $892 $1020 forward #
coedge $-1 $895 $1019 $953 $1004 reversed $952 $-1 #
vertex $-1 $896 $1021 #
straight-curve $-1 -69.990106453348176 20.743053574671411 11.870480513385916 0 -1 0 I I #
point $-1 -69.990106453348176 50.467100241607362 11.870480513385916 #
coedge $-1 $1015 $899 $954 $1005 forward $950 $-1 #
coedge $-1 $899 $1022 $901 $983 reversed $950 $-1 #
vertex $-1 $900 $1023 #
straight-curve $-1 -73.154087954344305 0 11.870480513385916 0 -1 0 I I #
edge $-1 $902 $988 $980 $1024 forward #
point $-1 -73.154087954344305 -50.467100241607362 11.870480513385916 #
coedge $-1 $905 $904 $1022 $1025 forward $906 $-1 #
edge $-1 $1026 $907 $960 $1027 forward #
point $-1 73.154087954344305 -61.51867808490146 -6.72893622387876 #
vertex $-1 $983 $1028 #
straight-curve $-1 0 -50.467100241607362 -6.72893622387876 1 0 0 I I #
plane-surface $-1 0 -50.467100241607362 0 0 1 0 0 0 1 forward_v I I I I #
plane-surface $-1 73.154087954344305 0 0 -1 0 0 0 0 1 forward_v I I I I #
vertex $-1 $926 $1029 #
straight-curve $-1 73.154087954344305 0 -11.870480513385916 0 -1 0 I I #
straight-curve $-1 0 -61.51867808490146 -11.870480513385916 -1 0 0 I I #
point $-1 -73.154087954344305 -61.51867808490146 -6.72893622387876 #
point $-1 -73.154087954344305 -61.51867808490146 -11.870480513385916 #
straight-curve $-1 73.154087954344305 -61.51867808490146 -9.2997083686323379 0 0 -1 I I #
straight-curve $-1 0 50.467100241607362 -11.870480513385916 1 0 0 I I #
point $-1 73.154087954344305 50.467100241607362 -11.870480513385916 #
point $-1 -73.154087954344305 32.505114057078281 8.5940816790657504 #
straight-curve $-1 -73.154087954344305 -61.51867808490146 -9.2997083686323379 0 0 -1 I I #
face $-1 $966 $962 $35 $-1 $1030 reversed single #
plane-surface $-1 0 -55.992889163254411 -6.72893622387876 0 0 1 1 0 0 forward_v I I I I #
edge $-1 $976 $1031 $953 $1032 forward #
edge $-1 $981 $1031 $979 $1033 forward #
straight-curve $-1 -89.199691602916715 32.505114057078281 11.870480513385914 -1 0 0 I I #
vertex $-1 $956 $1034 #
point $-1 -69.800050627421712 41.486107149342821 9.2161174371014223 #
coedge $-1 $961 $960 $1035 $1036 forward $962 $-1 #
coedge $-1 $1035 $968 $964 $1011 reversed $950 $-1 #
edge $-1 $1012 $970 $1010 $1037 forward #
vertex $-1 $1011 $1038 #
straight-curve $-1 0 -61.51867808490146 -11.870480513385916 -1 0 0 I I #
plane-surface $-1 0 0 -11.870480513385916 0 0 1 1 0 0 forward_v I I I I #
coedge $-1 $968 $979 $1019 $1039 forward $950 $-1 #
vertex $-1 $969 $1040 #
straight-curve $-1 -73.154087954344305 50.467100241607362 0 0 0 -1 I I #
point $-1 -73.154087954344305 50.467100241607362 -11.870480513385916 #
coedge $-1 $975 $973 $1015 $1039 reversed $952 $-1 #
straight-curve $-1 -57.651038209545248 50.467100241607362 24.647960027050843 0.69465836192734942 0 0.71933980857756763 I I #
point $-1 -69.990106453348176 32.505114057078281 11.870480513385916 #
coedge $-1 $980 $1035 $985 $1025 reversed $950 $-1 #
point $-1 -73.154087954344305 32.505114057078281 11.870480513385916 #
straight-curve $-1 -73.154087954344305 -50.467100241607362 0 0 0 -1 I I #
edge $-1 $988 $1026 $1022 $1041 forward #
vertex $-1 $1025 $1042 #
straight-curve $-1 0 -61.51867808490146 -6.72893622387876 1 0 0 I I #
point $-1 -73.154087954344305 -50.467100241607362 -6.72893622387876 #
point $-1 73.154087954344305 -61.51867808490146 -11.870480513385916 #
plane-surface $-1 0 -61.51867808490146 -9.2997083686323379 0 1 0 0 0 1 forward_v I I I I #
vertex $-1 $1039 $1043 #
straight-curve $-1 -73.154087954344277 32.505114057078281 8.5940816790657806 -0.69465836192734942 0 -0.71933980857756763 I I #
straight-curve $-1 -73.154087954344305 32.505114057078281 55.11413974618695 0 0 -1 I I #
point $-1 -69.787709904096602 41.486107149342821 8.5091183518489633 #
coedge $-1 $1022 $1010 $1009 $1036 reversed $950 $-1 #
edge $-1 $1026 $1012 $1035 $1044 forward #
straight-curve $-1 -73.154087954344305 0 -11.870480513385916 0 1 0 I I #
point $-1 -73.154087954344305 -61.51867808490146 -11.870480513385916 #
edge $-1 $1031 $1016 $1015 $1045 forward #
point $-1 -73.154087954344305 50.467100241607362 8.5940816790657504 #
straight-curve $-1 -73.154087954344305 -55.992889163254411 -6.72893622387876 0 -1 0 I I #
point $-1 -73.154087954344305 -61.51867808490146 -6.72893622387876 #
point $-1 -73.154087954344305 32.505114057078281 8.5940816790657504 #
straight-curve $-1 -73.154087954344305 -61.51867808490146 -9.2997083686323379 0 0 -1 I I #
straight-curve $-1 -73.154087954344305 20.743053574671411 8.5940816790657575 0 1 0 I I #
End-of-ACIS-data 