300 0 14 0           
7 Unknown 11 ACIS 3.0 NT 24 Fri Oct 30 18:45:48 1998 
-1 9.9999999999999995e-007 1e-010 
body $14 $15 $-1 $16 #
body $17 $18 $-1 $19 #
body $20 $21 $-1 $22 #
body $23 $24 $-1 $25 #
body $26 $27 $-1 $28 #
body $29 $30 $-1 $31 #
body $32 $33 $-1 $34 #
body $35 $36 $-1 $37 #
body $38 $39 $-1 $40 #
body $41 $42 $-1 $43 #
body $44 $45 $-1 $46 #
body $47 $48 $-1 $49 #
body $50 $51 $-1 $52 #
body $53 $54 $-1 $55 #
display_attribute-st-attrib $-1 $56 $-1 $0 1 #
lump $-1 $-1 $57 $0 #
transform $-1 1 0 0 0 1 0 0 0 1 56.06982634968108 37.97217635305347 15.09685751584731 1 rotate no_reflect no_shear #
display_attribute-st-attrib $-1 $58 $-1 $1 1 #
lump $-1 $-1 $59 $1 #
transform $-1 1 0 0 0 1 0 0 0 1 6.9965205988105748 37.97217635305347 2.9122509436908857 1 rotate no_reflect no_shear #
display_attribute-st-attrib $-1 $60 $-1 $2 1 #
lump $-1 $-1 $61 $2 #
transform $-1 1 0 0 0 0.81915203911291934 -0.57357644374324357 0 0.57357644374324357 0.81915203911291934 24.139130997432616 78.055044525691244 160.07751703226887 1 rotate no_reflect no_shear #
display_attribute-st-attrib $-1 $62 $-1 $3 1 #
lump $-1 $-1 $63 $3 #
transform $-1 1 0 0 0 -0.81915203911291934 0.57357644374324357 0 -0.57357644374324357 -0.81915203911291934 18.051477117545737 70.724026528016566 25.615695812917075 1 rotate no_reflect no_shear #
display_attribute-st-attrib $-1 $64 $-1 $4 1 #
lump $-1 $-1 $65 $4 #
transform $-1 1 0 0 0 -0.81915203911291934 0.57357644374324357 0 -0.57357644374324357 -0.81915203911291934 24.139130997432616 70.724026528016566 25.615695812917075 1 rotate no_reflect no_shear #
display_attribute-st-attrib $-1 $66 $-1 $5 1 #
lump $-1 $-1 $67 $5 #
transform $-1 1 0 0 0 -0.81915203911291934 0.57357644374324357 0 -0.57357644374324357 -0.81915203911291934 30.226784877319496 70.724026528016566 25.615695812917075 1 rotate no_reflect no_shear #
display_attribute-st-attrib $-1 $68 $-1 $6 1 #
lump $-1 $-1 $69 $6 #
transform $-1 1 0 0 0 0.83867056331134215 0.54463904215088732 0 -0.54463904215088732 0.83867056331134215 38.058184373321822 -61.075633033313764 117.38513753019016 1 rotate no_reflect no_shear #
display_attribute-st-attrib $-1 $70 $-1 $7 1 #
lump $-1 $-1 $71 $7 #
transform $-1 1 0 0 0 -0.83867056331134215 -0.54463904215088732 0 0.54463904215088732 -0.83867056331134215 31.661461670905961 8.507554475195338 21.794199694644394 1 rotate no_reflect no_shear #
display_attribute-st-attrib $-1 $72 $-1 $8 1 #
lump $-1 $-1 $73 $8 #
transform $-1 1 0 0 0 -0.83867056331134215 -0.54463904215088732 0 0.54463904215088732 -0.83867056331134215 38.058184373321822 8.507554475195338 21.794199694644394 1 rotate no_reflect no_shear #
display_attribute-st-attrib $-1 $74 $-1 $9 1 #
lump $-1 $-1 $75 $9 #
transform $-1 1 0 0 0 -0.83867056331134215 -0.54463904215088732 0 0.54463904215088732 -0.83867056331134215 44.454907075737687 8.507554475195338 21.794199694644394 1 rotate no_reflect no_shear #
display_attribute-st-attrib $-1 $76 $-1 $10 1 #
lump $-1 $-1 $77 $10 #
transform $-1 1 0 0 0 0.83867056331134215 0.54463904215088732 0 -0.54463904215088732 0.83867056331134215 88.074509523661476 -61.075633033313764 117.38513753019016 1 rotate no_reflect no_shear #
display_attribute-st-attrib $-1 $78 $-1 $11 1 #
lump $-1 $-1 $79 $11 #
transform $-1 1 0 0 0 -0.83867056331134215 -0.54463904215088732 0 0.54463904215088732 -0.83867056331134215 81.677786821245618 8.507554475195338 21.794199694644394 1 rotate no_reflect no_shear #
display_attribute-st-attrib $-1 $80 $-1 $12 1 #
lump $-1 $-1 $81 $12 #
transform $-1 1 0 0 0 -0.83867056331134215 -0.54463904215088732 0 0.54463904215088732 -0.83867056331134215 88.074509523661476 8.507554475195338 21.794199694644394 1 rotate no_reflect no_shear #
display_attribute-st-attrib $-1 $82 $-1 $13 1 #
lump $-1 $-1 $83 $13 #
transform $-1 1 0 0 0 -0.83867056331134215 -0.54463904215088732 0 0.54463904215088732 -0.83867056331134215 94.471232226077348 8.507554475195338 21.794199694644394 1 rotate no_reflect no_shear #
id_attribute-st-attrib $-1 $-1 $14 $0 2789 #
shell $-1 $-1 $-1 $84 $-1 $15 #
id_attribute-st-attrib $-1 $-1 $17 $1 2794 #
shell $-1 $-1 $-1 $85 $-1 $18 #
id_attribute-st-attrib $-1 $-1 $20 $2 2808 #
shell $-1 $-1 $-1 $86 $-1 $21 #
id_attribute-st-attrib $-1 $-1 $23 $3 2816 #
shell $-1 $-1 $-1 $87 $-1 $24 #
id_attribute-st-attrib $-1 $-1 $26 $4 2825 #
shell $-1 $-1 $-1 $88 $-1 $27 #
id_attribute-st-attrib $-1 $-1 $29 $5 2835 #
shell $-1 $-1 $-1 $89 $-1 $30 #
id_attribute-st-attrib $-1 $-1 $32 $6 2857 #
shell $-1 $-1 $-1 $90 $-1 $33 #
id_attribute-st-attrib $-1 $-1 $35 $7 2869 #
shell $-1 $-1 $-1 $91 $-1 $36 #
id_attribute-st-attrib $-1 $-1 $38 $8 2882 #
shell $-1 $-1 $-1 $92 $-1 $39 #
id_attribute-st-attrib $-1 $-1 $41 $9 2896 #
shell $-1 $-1 $-1 $93 $-1 $42 #
id_attribute-st-attrib $-1 $-1 $44 $10 2911 #
shell $-1 $-1 $-1 $94 $-1 $45 #
id_attribute-st-attrib $-1 $-1 $47 $11 2927 #
shell $-1 $-1 $-1 $95 $-1 $48 #
id_attribute-st-attrib $-1 $-1 $50 $12 2944 #
shell $-1 $-1 $-1 $96 $-1 $51 #
id_attribute-st-attrib $-1 $-1 $53 $13 2962 #
shell $-1 $-1 $-1 $97 $-1 $54 #
face $-1 $98 $99 $57 $-1 $100 forward single #
face $-1 $101 $102 $59 $-1 $103 forward single #
face $-1 $104 $105 $61 $-1 $106 forward single #
face $-1 $107 $108 $63 $-1 $109 forward single #
face $-1 $110 $111 $65 $-1 $112 forward single #
face $-1 $113 $114 $67 $-1 $115 forward single #
face $-1 $116 $117 $69 $-1 $118 forward single #
face $-1 $119 $120 $71 $-1 $121 forward single #
face $-1 $122 $123 $73 $-1 $124 forward single #
face $-1 $125 $126 $75 $-1 $127 forward single #
face $-1 $128 $129 $77 $-1 $130 forward single #
face $-1 $131 $132 $79 $-1 $133 forward single #
face $-1 $134 $135 $81 $-1 $136 forward single #
face $-1 $137 $138 $83 $-1 $139 forward single #
face $-1 $140 $141 $57 $-1 $142 reversed single #
loop $-1 $-1 $143 $84 #
plane-surface $-1 0 0 15.09685751584731 0 0 1 1 0 0 forward_v I I I I #
face $-1 $144 $145 $59 $-1 $146 reversed single #
loop $-1 $-1 $147 $85 #
plane-surface $-1 0 0 2.9122509436908857 0 0 1 1 0 0 forward_v I I I I #
face $-1 $148 $149 $61 $-1 $150 reversed single #
loop $-1 $-1 $151 $86 #
plane-surface $-1 0 0 112.13965269936216 0 0 1 1 0 0 forward_v I I I I #
face $-1 $152 $153 $63 $-1 $154 forward single #
loop $-1 $155 $156 $87 #
cone-surface $-1 0 0 -1.3549607837153239 0 0 1 1 0 0 1 I I 0 1 forward I I I I #
face $-1 $157 $158 $65 $-1 $159 forward single #
loop $-1 $160 $161 $88 #
cone-surface $-1 0 0 -1.3549607837153239 0 0 1 1 0 0 1 I I 0 1 forward I I I I #
face $-1 $162 $163 $67 $-1 $164 forward single #
loop $-1 $165 $166 $89 #
cone-surface $-1 0 0 -1.3549607837153239 0 0 1 1 0 0 1 I I 0 1 forward I I I I #
face $-1 $167 $168 $69 $-1 $169 reversed single #
loop $-1 $-1 $170 $90 #
plane-surface $-1 0 0 112.13965269936216 0 0 1 1 0 0 forward_v I I I I #
face $-1 $171 $172 $71 $-1 $173 forward single #
loop $-1 $174 $175 $91 #
cone-surface $-1 0 0 -3.3386867885372453 0 0 1 1.5 0 0 1 I I 0 1 forward I I I I #
face $-1 $176 $177 $73 $-1 $178 forward single #
loop $-1 $179 $180 $92 #
cone-surface $-1 0 0 -3.3386867885372453 0 0 1 1.5 0 0 1 I I 0 1 forward I I I I #
face $-1 $181 $182 $75 $-1 $183 forward single #
loop $-1 $184 $185 $93 #
cone-surface $-1 0 0 -3.3386867885372453 0 0 1 1.5 0 0 1 I I 0 1 forward I I I I #
face $-1 $186 $187 $77 $-1 $188 reversed single #
loop $-1 $-1 $189 $94 #
plane-surface $-1 0 0 112.13965269936216 0 0 1 1 0 0 forward_v I I I I #
face $-1 $190 $191 $79 $-1 $192 forward single #
loop $-1 $193 $194 $95 #
cone-surface $-1 0 0 -3.3386867885372453 0 0 1 1.5 0 0 1 I I 0 1 forward I I I I #
face $-1 $195 $196 $81 $-1 $197 forward single #
loop $-1 $198 $199 $96 #
cone-surface $-1 0 0 -3.3386867885372453 0 0 1 1.5 0 0 1 I I 0 1 forward I I I I #
face $-1 $200 $201 $83 $-1 $202 forward single #
loop $-1 $203 $204 $97 #
cone-surface $-1 0 0 -3.3386867885372453 0 0 1 1.5 0 0 1 I I 0 1 forward I I I I #
face $-1 $205 $206 $57 $-1 $207 reversed single #
loop $-1 $-1 $208 $98 #
plane-surface $-1 0 0 -15.09685751584731 0 0 1 1 0 0 forward_v I I I I #
coedge $-1 $209 $210 $211 $212 forward $99 $-1 #
face $-1 $213 $214 $59 $-1 $215 reversed single #
loop $-1 $-1 $216 $101 #
plane-surface $-1 0 0 -2.9122509436908857 0 0 1 1 0 0 forward_v I I I I #
coedge $-1 $217 $218 $219 $220 forward $102 $-1 #
face $-1 $221 $222 $61 $-1 $223 reversed single #
loop $-1 $-1 $224 $104 #
plane-surface $-1 0 0 -112.13965269936216 0 0 1 1 0 0 forward_v I I I I #
coedge $-1 $225 $226 $227 $228 forward $105 $-1 #
face $-1 $-1 $229 $63 $-1 $230 forward single #
loop $-1 $-1 $231 $107 #
plane-surface $-1 0 0 -2.2099215674306478 0 0 -1 -1 0 0 forward_v I I I I #
loop $-1 $-1 $232 $87 #
coedge $-1 $156 $156 $231 $233 reversed $108 $-1 #
face $-1 $-1 $234 $65 $-1 $235 forward single #
loop $-1 $-1 $236 $110 #
plane-surface $-1 0 0 -2.2099215674306478 0 0 -1 -1 0 0 forward_v I I I I #
loop $-1 $-1 $237 $88 #
coedge $-1 $161 $161 $236 $238 reversed $111 $-1 #
face $-1 $-1 $239 $67 $-1 $240 forward single #
loop $-1 $-1 $241 $113 #
plane-surface $-1 0 0 -2.2099215674306478 0 0 -1 -1 0 0 forward_v I I I I #
loop $-1 $-1 $242 $89 #
coedge $-1 $166 $166 $241 $243 reversed $114 $-1 #
face $-1 $244 $245 $69 $-1 $246 reversed single #
loop $-1 $-1 $247 $116 #
plane-surface $-1 0 0 -112.13965269936216 0 0 1 1 0 0 forward_v I I I I #
coedge $-1 $248 $249 $250 $251 forward $117 $-1 #
face $-1 $-1 $252 $71 $-1 $253 forward single #
loop $-1 $-1 $254 $119 #
plane-surface $-1 0 0 -5.9273735770744924 0 0 -1 -1 0 0 forward_v I I I I #
loop $-1 $-1 $255 $91 #
coedge $-1 $175 $175 $254 $256 reversed $120 $-1 #
face $-1 $-1 $257 $73 $-1 $258 forward single #
loop $-1 $-1 $259 $122 #
plane-surface $-1 0 0 -5.9273735770744924 0 0 -1 -1 0 0 forward_v I I I I #
loop $-1 $-1 $260 $92 #
coedge $-1 $180 $180 $259 $261 reversed $123 $-1 #
face $-1 $-1 $262 $75 $-1 $263 forward single #
loop $-1 $-1 $264 $125 #
plane-surface $-1 0 0 -5.9273735770744924 0 0 -1 -1 0 0 forward_v I I I I #
loop $-1 $-1 $265 $93 #
coedge $-1 $185 $185 $264 $266 reversed $126 $-1 #
face $-1 $267 $268 $77 $-1 $269 reversed single #
loop $-1 $-1 $270 $128 #
plane-surface $-1 0 0 -112.13965269936216 0 0 1 1 0 0 forward_v I I I I #
coedge $-1 $271 $272 $273 $274 forward $129 $-1 #
face $-1 $-1 $275 $79 $-1 $276 forward single #
loop $-1 $-1 $277 $131 #
plane-surface $-1 0 0 -5.9273735770744924 0 0 -1 -1 0 0 forward_v I I I I #
loop $-1 $-1 $278 $95 #
coedge $-1 $194 $194 $277 $279 reversed $132 $-1 #
face $-1 $-1 $280 $81 $-1 $281 forward single #
loop $-1 $-1 $282 $134 #
plane-surface $-1 0 0 -5.9273735770744924 0 0 -1 -1 0 0 forward_v I I I I #
loop $-1 $-1 $283 $96 #
coedge $-1 $199 $199 $282 $284 reversed $135 $-1 #
face $-1 $-1 $285 $83 $-1 $286 forward single #
loop $-1 $-1 $287 $137 #
plane-surface $-1 0 0 -5.9273735770744924 0 0 -1 -1 0 0 forward_v I I I I #
loop $-1 $-1 $288 $97 #
coedge $-1 $204 $204 $287 $289 reversed $138 $-1 #
face $-1 $290 $291 $57 $-1 $292 reversed single #
loop $-1 $-1 $293 $140 #
plane-surface $-1 0 -37.97217635305347 0 0 1 0 0 0 1 forward_v I I I I #
coedge $-1 $294 $295 $296 $297 forward $141 $-1 #
coedge $-1 $298 $143 $299 $300 forward $99 $-1 #
coedge $-1 $143 $298 $301 $302 forward $99 $-1 #
coedge $-1 $303 $304 $143 $212 reversed $305 $-1 #
edge $-1 $306 $307 $211 $308 forward #
face $-1 $309 $310 $59 $-1 $311 reversed single #
loop $-1 $-1 $312 $144 #
plane-surface $-1 0 -37.97217635305347 0 0 1 0 0 0 1 forward_v I I I I #
coedge $-1 $313 $314 $315 $316 forward $145 $-1 #
coedge $-1 $317 $147 $318 $319 forward $102 $-1 #
coedge $-1 $147 $317 $320 $321 forward $102 $-1 #
coedge $-1 $322 $323 $147 $220 reversed $324 $-1 #
edge $-1 $325 $326 $219 $327 forward #
face $-1 $328 $329 $61 $-1 $330 reversed single #
loop $-1 $-1 $331 $148 #
plane-surface $-1 0 -224.27930539872432 0 0 1 0 0 0 1 forward_v I I I I #
coedge $-1 $332 $333 $334 $335 forward $149 $-1 #
coedge $-1 $336 $151 $337 $338 forward $105 $-1 #
coedge $-1 $151 $336 $339 $340 forward $105 $-1 #
coedge $-1 $341 $342 $151 $228 reversed $343 $-1 #
edge $-1 $344 $345 $227 $346 forward #
loop $-1 $347 $348 $152 #
cone-surface $-1 0 0 0 0 0 1 0.5 0 0 1 I I -0.70710678118654746 0.70710678118654746 forward I I I I #
coedge $-1 $231 $231 $156 $233 forward $153 $-1 #
coedge $-1 $232 $232 $348 $349 forward $155 $-1 #
edge $-1 $350 $350 $231 $351 forward #
loop $-1 $352 $353 $157 #
cone-surface $-1 0 0 0 0 0 1 0.5 0 0 1 I I -0.70710678118654746 0.70710678118654746 forward I I I I #
coedge $-1 $236 $236 $161 $238 forward $158 $-1 #
coedge $-1 $237 $237 $353 $354 forward $160 $-1 #
edge $-1 $355 $355 $236 $356 forward #
loop $-1 $357 $358 $162 #
cone-surface $-1 0 0 0 0 0 1 0.5 0 0 1 I I -0.70710678118654746 0.70710678118654746 forward I I I I #
coedge $-1 $241 $241 $166 $243 forward $163 $-1 #
coedge $-1 $242 $242 $358 $359 forward $165 $-1 #
edge $-1 $360 $360 $241 $361 forward #
face $-1 $362 $363 $69 $-1 $364 reversed single #
loop $-1 $-1 $365 $167 #
plane-surface $-1 0 -224.27930539872432 0 0 1 0 0 0 1 forward_v I I I I #
coedge $-1 $366 $367 $368 $369 forward $168 $-1 #
coedge $-1 $370 $170 $371 $372 forward $117 $-1 #
coedge $-1 $170 $370 $373 $374 forward $117 $-1 #
coedge $-1 $375 $376 $170 $251 reversed $377 $-1 #
edge $-1 $378 $379 $250 $380 forward #
loop $-1 $381 $382 $171 #
cone-surface $-1 0 0 0 0 0 1 0.75 0 0 1 I I -0.70710678118654757 0.70710678118654757 forward I I I I #
coedge $-1 $254 $254 $175 $256 forward $172 $-1 #
coedge $-1 $255 $255 $382 $383 forward $174 $-1 #
edge $-1 $384 $384 $254 $385 forward #
loop $-1 $386 $387 $176 #
cone-surface $-1 0 0 0 0 0 1 0.75 0 0 1 I I -0.70710678118654757 0.70710678118654757 forward I I I I #
coedge $-1 $259 $259 $180 $261 forward $177 $-1 #
coedge $-1 $260 $260 $387 $388 forward $179 $-1 #
edge $-1 $389 $389 $259 $390 forward #
loop $-1 $391 $392 $181 #
cone-surface $-1 0 0 0 0 0 1 0.75 0 0 1 I I -0.70710678118654757 0.70710678118654757 forward I I I I #
coedge $-1 $264 $264 $185 $266 forward $182 $-1 #
coedge $-1 $265 $265 $392 $393 forward $184 $-1 #
edge $-1 $394 $394 $264 $395 forward #
face $-1 $396 $397 $77 $-1 $398 reversed single #
loop $-1 $-1 $399 $186 #
plane-surface $-1 0 -224.27930539872432 0 0 1 0 0 0 1 forward_v I I I I #
coedge $-1 $400 $401 $402 $403 forward $187 $-1 #
coedge $-1 $404 $189 $405 $406 forward $129 $-1 #
coedge $-1 $189 $404 $407 $408 forward $129 $-1 #
coedge $-1 $409 $410 $189 $274 reversed $411 $-1 #
edge $-1 $412 $413 $273 $414 forward #
loop $-1 $415 $416 $190 #
cone-surface $-1 0 0 0 0 0 1 0.75 0 0 1 I I -0.70710678118654757 0.70710678118654757 forward I I I I #
coedge $-1 $277 $277 $194 $279 forward $191 $-1 #
coedge $-1 $278 $278 $416 $417 forward $193 $-1 #
edge $-1 $418 $418 $277 $419 forward #
loop $-1 $420 $421 $195 #
cone-surface $-1 0 0 0 0 0 1 0.75 0 0 1 I I -0.70710678118654757 0.70710678118654757 forward I I I I #
coedge $-1 $282 $282 $199 $284 forward $196 $-1 #
coedge $-1 $283 $283 $421 $422 forward $198 $-1 #
edge $-1 $423 $423 $282 $424 forward #
loop $-1 $425 $426 $200 #
cone-surface $-1 0 0 0 0 0 1 0.75 0 0 1 I I -0.70710678118654757 0.70710678118654757 forward I I I I #
coedge $-1 $287 $287 $204 $289 forward $201 $-1 #
coedge $-1 $288 $288 $426 $427 forward $203 $-1 #
edge $-1 $428 $428 $287 $429 forward #
face $-1 $430 $431 $57 $-1 $432 reversed single #
loop $-1 $-1 $433 $205 #
plane-surface $-1 -56.06982634968108 0 0 1 0 0 0 0 -1 forward_v I I I I #
coedge $-1 $434 $301 $435 $436 forward $206 $-1 #
coedge $-1 $437 $208 $434 $438 forward $141 $-1 #
coedge $-1 $208 $437 $439 $440 forward $141 $-1 #
coedge $-1 $304 $303 $208 $297 reversed $305 $-1 #
edge $-1 $441 $442 $296 $443 forward #
coedge $-1 $210 $209 $444 $445 forward $99 $-1 #
coedge $-1 $446 $447 $209 $300 reversed $431 $-1 #
edge $-1 $307 $448 $299 $449 forward #
coedge $-1 $293 $450 $210 $302 reversed $206 $-1 #
edge $-1 $451 $306 $301 $452 forward #
coedge $-1 $296 $211 $450 $453 forward $305 $-1 #
coedge $-1 $211 $296 $446 $454 reversed $305 $-1 #
loop $-1 $-1 $303 $430 #
vertex $-1 $212 $455 #
vertex $-1 $212 $456 #
straight-curve $-1 56.06982634968108 0 15.09685751584731 0 1 0 I I #
face $-1 $457 $458 $59 $-1 $459 reversed single #
loop $-1 $-1 $460 $213 #
plane-surface $-1 -6.9965205988105748 0 0 1 0 0 0 0 -1 forward_v I I I I #
coedge $-1 $461 $320 $462 $463 forward $214 $-1 #
coedge $-1 $464 $216 $461 $465 forward $145 $-1 #
coedge $-1 $216 $464 $466 $467 forward $145 $-1 #
coedge $-1 $323 $322 $216 $316 reversed $324 $-1 #
edge $-1 $468 $469 $315 $470 forward #
coedge $-1 $218 $217 $471 $472 forward $102 $-1 #
coedge $-1 $473 $474 $217 $319 reversed $458 $-1 #
edge $-1 $326 $475 $318 $476 forward #
coedge $-1 $312 $477 $218 $321 reversed $214 $-1 #
edge $-1 $478 $325 $320 $479 forward #
coedge $-1 $315 $219 $477 $480 forward $324 $-1 #
coedge $-1 $219 $315 $473 $481 reversed $324 $-1 #
loop $-1 $-1 $322 $457 #
vertex $-1 $220 $482 #
vertex $-1 $220 $483 #
straight-curve $-1 6.9965205988105748 0 2.9122509436908857 0 1 0 I I #
face $-1 $484 $485 $61 $-1 $486 reversed single #
loop $-1 $-1 $487 $221 #
plane-surface $-1 -10.146089799811469 0 0 1 0 0 0 0 -1 forward_v I I I I #
coedge $-1 $488 $339 $489 $490 forward $222 $-1 #
coedge $-1 $491 $224 $488 $492 forward $149 $-1 #
coedge $-1 $224 $491 $493 $494 forward $149 $-1 #
coedge $-1 $342 $341 $224 $335 reversed $343 $-1 #
edge $-1 $495 $496 $334 $497 forward #
coedge $-1 $226 $225 $498 $499 forward $105 $-1 #
coedge $-1 $500 $501 $225 $338 reversed $485 $-1 #
edge $-1 $345 $502 $337 $503 forward #
coedge $-1 $331 $504 $226 $340 reversed $222 $-1 #
edge $-1 $505 $344 $339 $506 forward #
coedge $-1 $334 $227 $504 $507 forward $343 $-1 #
coedge $-1 $227 $334 $500 $508 reversed $343 $-1 #
loop $-1 $-1 $341 $484 #
vertex $-1 $228 $509 #
vertex $-1 $228 $510 #
straight-curve $-1 10.146089799811469 0 112.13965269936216 0 1 0 I I #
loop $-1 $-1 $511 $152 #
coedge $-1 $348 $348 $232 $349 reversed $229 $-1 #
edge $-1 $512 $512 $348 $513 forward #
vertex $-1 $233 $514 #
ellipse-curve $-1 0 0 -2.2099215674306478 0 0 -1 1 0 0 1 I I #
loop $-1 $-1 $515 $157 #
coedge $-1 $353 $353 $237 $354 reversed $234 $-1 #
edge $-1 $516 $516 $353 $517 forward #
vertex $-1 $238 $518 #
ellipse-curve $-1 0 0 -2.2099215674306478 0 0 -1 1 0 0 1 I I #
loop $-1 $-1 $519 $162 #
coedge $-1 $358 $358 $242 $359 reversed $239 $-1 #
edge $-1 $520 $520 $358 $521 forward #
vertex $-1 $243 $522 #
ellipse-curve $-1 0 0 -2.2099215674306478 0 0 -1 1 0 0 1 I I #
face $-1 $523 $524 $69 $-1 $525 reversed single #
loop $-1 $-1 $526 $244 #
plane-surface $-1 -10.66120450402644 0 0 1 0 0 0 0 -1 forward_v I I I I #
coedge $-1 $527 $373 $528 $529 forward $245 $-1 #
coedge $-1 $530 $247 $527 $531 forward $168 $-1 #
coedge $-1 $247 $530 $532 $533 forward $168 $-1 #
coedge $-1 $376 $375 $247 $369 reversed $377 $-1 #
edge $-1 $534 $535 $368 $536 forward #
coedge $-1 $249 $248 $537 $538 forward $117 $-1 #
coedge $-1 $539 $540 $248 $372 reversed $524 $-1 #
edge $-1 $379 $541 $371 $542 forward #
coedge $-1 $365 $543 $249 $374 reversed $245 $-1 #
edge $-1 $544 $378 $373 $545 forward #
coedge $-1 $368 $250 $543 $546 forward $377 $-1 #
coedge $-1 $250 $368 $539 $547 reversed $377 $-1 #
loop $-1 $-1 $375 $523 #
vertex $-1 $251 $548 #
vertex $-1 $251 $549 #
straight-curve $-1 10.66120450402644 0 112.13965269936216 0 1 0 I I #
loop $-1 $-1 $550 $171 #
coedge $-1 $382 $382 $255 $383 reversed $252 $-1 #
edge $-1 $551 $551 $382 $552 forward #
vertex $-1 $256 $553 #
ellipse-curve $-1 0 0 -5.9273735770744924 0 0 -1 1.5 0 0 1 I I #
loop $-1 $-1 $554 $176 #
coedge $-1 $387 $387 $260 $388 reversed $257 $-1 #
edge $-1 $555 $555 $387 $556 forward #
vertex $-1 $261 $557 #
ellipse-curve $-1 0 0 -5.9273735770744924 0 0 -1 1.5 0 0 1 I I #
loop $-1 $-1 $558 $181 #
coedge $-1 $392 $392 $265 $393 reversed $262 $-1 #
edge $-1 $559 $559 $392 $560 forward #
vertex $-1 $266 $561 #
ellipse-curve $-1 0 0 -5.9273735770744924 0 0 -1 1.5 0 0 1 I I #
face $-1 $562 $563 $77 $-1 $564 reversed single #
loop $-1 $-1 $565 $267 #
plane-surface $-1 -10.66120450402644 0 0 1 0 0 0 0 -1 forward_v I I I I #
coedge $-1 $566 $407 $567 $568 forward $268 $-1 #
coedge $-1 $569 $270 $566 $570 forward $187 $-1 #
coedge $-1 $270 $569 $571 $572 forward $187 $-1 #
coedge $-1 $410 $409 $270 $403 reversed $411 $-1 #
edge $-1 $573 $574 $402 $575 forward #
coedge $-1 $272 $271 $576 $577 forward $129 $-1 #
coedge $-1 $578 $579 $271 $406 reversed $563 $-1 #
edge $-1 $413 $580 $405 $581 forward #
coedge $-1 $399 $582 $272 $408 reversed $268 $-1 #
edge $-1 $583 $412 $407 $584 forward #
coedge $-1 $402 $273 $582 $585 forward $411 $-1 #
coedge $-1 $273 $402 $578 $586 reversed $411 $-1 #
loop $-1 $-1 $409 $562 #
vertex $-1 $274 $587 #
vertex $-1 $274 $588 #
straight-curve $-1 10.66120450402644 0 112.13965269936216 0 1 0 I I #
loop $-1 $-1 $589 $190 #
coedge $-1 $416 $416 $278 $417 reversed $275 $-1 #
edge $-1 $590 $590 $416 $591 forward #
vertex $-1 $279 $592 #
ellipse-curve $-1 0 0 -5.9273735770744924 0 0 -1 1.5 0 0 1 I I #
loop $-1 $-1 $593 $195 #
coedge $-1 $421 $421 $283 $422 reversed $280 $-1 #
edge $-1 $594 $594 $421 $595 forward #
vertex $-1 $284 $596 #
ellipse-curve $-1 0 0 -5.9273735770744924 0 0 -1 1.5 0 0 1 I I #
loop $-1 $-1 $597 $200 #
coedge $-1 $426 $426 $288 $427 reversed $285 $-1 #
edge $-1 $598 $598 $426 $599 forward #
vertex $-1 $289 $600 #
ellipse-curve $-1 0 0 -5.9273735770744924 0 0 -1 1.5 0 0 1 I I #
face $-1 $-1 $305 $57 $-1 $601 reversed single #
loop $-1 $-1 $446 $290 #
plane-surface $-1 0 37.97217635305347 0 0 -1 0 0 0 -1 forward_v I I I I #
coedge $-1 $602 $444 $447 $603 forward $291 $-1 #
coedge $-1 $450 $293 $294 $438 reversed $206 $-1 #
coedge $-1 $444 $602 $293 $436 reversed $291 $-1 #
edge $-1 $451 $604 $435 $605 forward #
coedge $-1 $295 $294 $602 $606 forward $141 $-1 #
edge $-1 $442 $604 $434 $607 forward #
coedge $-1 $447 $446 $295 $440 reversed $431 $-1 #
edge $-1 $608 $441 $439 $609 forward #
vertex $-1 $297 $610 #
vertex $-1 $453 $611 #
straight-curve $-1 56.06982634968108 0 -15.09685751584731 0 -1 0 I I #
coedge $-1 $433 $435 $298 $445 reversed $291 $-1 #
edge $-1 $448 $451 $444 $612 forward #
coedge $-1 $439 $299 $304 $454 forward $431 $-1 #
coedge $-1 $299 $439 $433 $603 reversed $431 $-1 #
vertex $-1 $300 $613 #
straight-curve $-1 0 37.97217635305347 15.09685751584731 -1 0 0 I I #
coedge $-1 $301 $434 $303 $453 reversed $206 $-1 #
vertex $-1 $445 $614 #
straight-curve $-1 0 -37.97217635305347 15.09685751584731 1 0 0 I I #
edge $-1 $306 $442 $303 $615 forward #
edge $-1 $307 $441 $304 $616 forward #
point $-1 56.06982634968108 -37.97217635305347 15.09685751584731 #
point $-1 56.06982634968108 37.97217635305347 15.09685751584731 #
face $-1 $-1 $324 $59 $-1 $617 reversed single #
loop $-1 $-1 $473 $309 #
plane-surface $-1 0 37.97217635305347 0 0 -1 0 0 0 -1 forward_v I I I I #
coedge $-1 $618 $471 $474 $619 forward $310 $-1 #
coedge $-1 $477 $312 $313 $465 reversed $214 $-1 #
coedge $-1 $471 $618 $312 $463 reversed $310 $-1 #
edge $-1 $478 $620 $462 $621 forward #
coedge $-1 $314 $313 $618 $622 forward $145 $-1 #
edge $-1 $469 $620 $461 $623 forward #
coedge $-1 $474 $473 $314 $467 reversed $458 $-1 #
edge $-1 $624 $468 $466 $625 forward #
vertex $-1 $316 $626 #
vertex $-1 $480 $627 #
straight-curve $-1 6.9965205988105748 0 -2.9122509436908857 0 -1 0 I I #
coedge $-1 $460 $462 $317 $472 reversed $310 $-1 #
edge $-1 $475 $478 $471 $628 forward #
coedge $-1 $466 $318 $323 $481 forward $458 $-1 #
coedge $-1 $318 $466 $460 $619 reversed $458 $-1 #
vertex $-1 $319 $629 #
straight-curve $-1 0 37.97217635305347 2.9122509436908857 -1 0 0 I I #
coedge $-1 $320 $461 $322 $480 reversed $214 $-1 #
vertex $-1 $472 $630 #
straight-curve $-1 0 -37.97217635305347 2.9122509436908857 1 0 0 I I #
edge $-1 $325 $469 $322 $631 forward #
edge $-1 $326 $468 $323 $632 forward #
point $-1 6.9965205988105748 -37.97217635305347 2.9122509436908857 #
point $-1 6.9965205988105748 37.97217635305347 2.9122509436908857 #
face $-1 $-1 $343 $61 $-1 $633 reversed single #
loop $-1 $-1 $500 $328 #
plane-surface $-1 0 224.27930539872432 0 0 -1 0 0 0 -1 forward_v I I I I #
coedge $-1 $634 $498 $501 $635 forward $329 $-1 #
coedge $-1 $504 $331 $332 $492 reversed $222 $-1 #
coedge $-1 $498 $634 $331 $490 reversed $329 $-1 #
edge $-1 $505 $636 $489 $637 forward #
coedge $-1 $333 $332 $634 $638 forward $149 $-1 #
edge $-1 $496 $636 $488 $639 forward #
coedge $-1 $501 $500 $333 $494 reversed $485 $-1 #
edge $-1 $640 $495 $493 $641 forward #
vertex $-1 $335 $642 #
vertex $-1 $507 $643 #
straight-curve $-1 10.146089799811469 0 -112.13965269936216 0 -1 0 I I #
coedge $-1 $487 $489 $336 $499 reversed $329 $-1 #
edge $-1 $502 $505 $498 $644 forward #
coedge $-1 $493 $337 $342 $508 forward $485 $-1 #
coedge $-1 $337 $493 $487 $635 reversed $485 $-1 #
vertex $-1 $338 $645 #
straight-curve $-1 0 224.27930539872432 112.13965269936216 -1 0 0 I I #
coedge $-1 $339 $488 $341 $507 reversed $222 $-1 #
vertex $-1 $499 $646 #
straight-curve $-1 0 -224.27930539872432 112.13965269936216 1 0 0 I I #
edge $-1 $344 $496 $341 $647 forward #
edge $-1 $345 $495 $342 $648 forward #
point $-1 10.146089799811469 -224.27930539872432 112.13965269936216 #
point $-1 10.146089799811469 224.27930539872432 112.13965269936216 #
coedge $-1 $511 $511 $-1 $649 reversed $347 $-1 #
vertex $-1 $349 $650 #
ellipse-curve $-1 0 0 -0.5 0 0 -1 1 0 0 1 I I #
point $-1 1 0 -2.2099215674306478 #
coedge $-1 $515 $515 $-1 $651 reversed $352 $-1 #
vertex $-1 $354 $652 #
ellipse-curve $-1 0 0 -0.5 0 0 -1 1 0 0 1 I I #
point $-1 1 0 -2.2099215674306478 #
coedge $-1 $519 $519 $-1 $653 reversed $357 $-1 #
vertex $-1 $359 $654 #
ellipse-curve $-1 0 0 -0.5 0 0 -1 1 0 0 1 I I #
point $-1 1 0 -2.2099215674306478 #
face $-1 $-1 $377 $69 $-1 $655 reversed single #
loop $-1 $-1 $539 $362 #
plane-surface $-1 0 224.27930539872432 0 0 -1 0 0 0 -1 forward_v I I I I #
coedge $-1 $656 $537 $540 $657 forward $363 $-1 #
coedge $-1 $543 $365 $366 $531 reversed $245 $-1 #
coedge $-1 $537 $656 $365 $529 reversed $363 $-1 #
edge $-1 $544 $658 $528 $659 forward #
coedge $-1 $367 $366 $656 $660 forward $168 $-1 #
edge $-1 $535 $658 $527 $661 forward #
coedge $-1 $540 $539 $367 $533 reversed $524 $-1 #
edge $-1 $662 $534 $532 $663 forward #
vertex $-1 $369 $664 #
vertex $-1 $546 $665 #
straight-curve $-1 10.66120450402644 0 -112.13965269936216 0 -1 0 I I #
coedge $-1 $526 $528 $370 $538 reversed $363 $-1 #
edge $-1 $541 $544 $537 $666 forward #
coedge $-1 $532 $371 $376 $547 forward $524 $-1 #
coedge $-1 $371 $532 $526 $657 reversed $524 $-1 #
vertex $-1 $372 $667 #
straight-curve $-1 0 224.27930539872432 112.13965269936216 -1 0 0 I I #
coedge $-1 $373 $527 $375 $546 reversed $245 $-1 #
vertex $-1 $538 $668 #
straight-curve $-1 0 -224.27930539872432 112.13965269936216 1 0 0 I I #
edge $-1 $378 $535 $375 $669 forward #
edge $-1 $379 $534 $376 $670 forward #
point $-1 10.66120450402644 -224.27930539872432 112.13965269936216 #
point $-1 10.66120450402644 224.27930539872432 112.13965269936216 #
coedge $-1 $550 $550 $-1 $671 reversed $381 $-1 #
vertex $-1 $383 $672 #
ellipse-curve $-1 0 0 -0.75 0 0 -1 1.5 0 0 1 I I #
point $-1 1.5 0 -5.9273735770744924 #
coedge $-1 $554 $554 $-1 $673 reversed $386 $-1 #
vertex $-1 $388 $674 #
ellipse-curve $-1 0 0 -0.75 0 0 -1 1.5 0 0 1 I I #
point $-1 1.5 0 -5.9273735770744924 #
coedge $-1 $558 $558 $-1 $675 reversed $391 $-1 #
vertex $-1 $393 $676 #
ellipse-curve $-1 0 0 -0.75 0 0 -1 1.5 0 0 1 I I #
point $-1 1.5 0 -5.9273735770744924 #
face $-1 $-1 $411 $77 $-1 $677 reversed single #
loop $-1 $-1 $578 $396 #
plane-surface $-1 0 224.27930539872432 0 0 -1 0 0 0 -1 forward_v I I I I #
coedge $-1 $678 $576 $579 $679 forward $397 $-1 #
coedge $-1 $582 $399 $400 $570 reversed $268 $-1 #
coedge $-1 $576 $678 $399 $568 reversed $397 $-1 #
edge $-1 $583 $680 $567 $681 forward #
coedge $-1 $401 $400 $678 $682 forward $187 $-1 #
edge $-1 $574 $680 $566 $683 forward #
coedge $-1 $579 $578 $401 $572 reversed $563 $-1 #
edge $-1 $684 $573 $571 $685 forward #
vertex $-1 $403 $686 #
vertex $-1 $585 $687 #
straight-curve $-1 10.66120450402644 0 -112.13965269936216 0 -1 0 I I #
coedge $-1 $565 $567 $404 $577 reversed $397 $-1 #
edge $-1 $580 $583 $576 $688 forward #
coedge $-1 $571 $405 $410 $586 forward $563 $-1 #
coedge $-1 $405 $571 $565 $679 reversed $563 $-1 #
vertex $-1 $406 $689 #
straight-curve $-1 0 224.27930539872432 112.13965269936216 -1 0 0 I I #
coedge $-1 $407 $566 $409 $585 reversed $268 $-1 #
vertex $-1 $577 $690 #
straight-curve $-1 0 -224.27930539872432 112.13965269936216 1 0 0 I I #
edge $-1 $412 $574 $409 $691 forward #
edge $-1 $413 $573 $410 $692 forward #
point $-1 10.66120450402644 -224.27930539872432 112.13965269936216 #
point $-1 10.66120450402644 224.27930539872432 112.13965269936216 #
coedge $-1 $589 $589 $-1 $693 reversed $415 $-1 #
vertex $-1 $417 $694 #
ellipse-curve $-1 0 0 -0.75 0 0 -1 1.5 0 0 1 I I #
point $-1 1.5 0 -5.9273735770744924 #
coedge $-1 $593 $593 $-1 $695 reversed $420 $-1 #
vertex $-1 $422 $696 #
ellipse-curve $-1 0 0 -0.75 0 0 -1 1.5 0 0 1 I I #
point $-1 1.5 0 -5.9273735770744924 #
coedge $-1 $597 $597 $-1 $697 reversed $425 $-1 #
vertex $-1 $427 $698 #
ellipse-curve $-1 0 0 -0.75 0 0 -1 1.5 0 0 1 I I #
point $-1 1.5 0 -5.9273735770744924 #
plane-surface $-1 56.06982634968108 0 0 -1 0 0 0 0 1 forward_v I I I I #
coedge $-1 $435 $433 $437 $606 reversed $291 $-1 #
edge $-1 $448 $608 $447 $699 forward #
vertex $-1 $606 $700 #
straight-curve $-1 -56.06982634968108 -37.97217635305347 0 0 0 -1 I I #
edge $-1 $604 $608 $602 $701 forward #
straight-curve $-1 0 -37.97217635305347 -15.09685751584731 -1 0 0 I I #
vertex $-1 $440 $702 #
straight-curve $-1 0 37.97217635305347 -15.09685751584731 1 0 0 I I #
point $-1 56.06982634968108 37.97217635305347 -15.09685751584731 #
point $-1 56.06982634968108 -37.97217635305347 -15.09685751584731 #
straight-curve $-1 -56.06982634968108 0 15.09685751584731 0 -1 0 I I #
point $-1 -56.06982634968108 37.97217635305347 15.09685751584731 #
point $-1 -56.06982634968108 -37.97217635305347 15.09685751584731 #
straight-curve $-1 56.06982634968108 -37.97217635305347 0 0 0 -1 I I #
straight-curve $-1 56.06982634968108 37.97217635305347 0 0 0 -1 I I #
plane-surface $-1 6.9965205988105748 0 0 -1 0 0 0 0 1 forward_v I I I I #
coedge $-1 $462 $460 $464 $622 reversed $310 $-1 #
edge $-1 $475 $624 $474 $703 forward #
vertex $-1 $622 $704 #
straight-curve $-1 -6.9965205988105748 -37.97217635305347 0 0 0 -1 I I #
edge $-1 $620 $624 $618 $705 forward #
straight-curve $-1 0 -37.97217635305347 -2.9122509436908857 -1 0 0 I I #
vertex $-1 $467 $706 #
straight-curve $-1 0 37.97217635305347 -2.9122509436908857 1 0 0 I I #
point $-1 6.9965205988105748 37.97217635305347 -2.9122509436908857 #
point $-1 6.9965205988105748 -37.97217635305347 -2.9122509436908857 #
straight-curve $-1 -6.9965205988105748 0 2.9122509436908857 0 -1 0 I I #
point $-1 -6.9965205988105748 37.97217635305347 2.9122509436908857 #
point $-1 -6.9965205988105748 -37.97217635305347 2.9122509436908857 #
straight-curve $-1 6.9965205988105748 -37.97217635305347 0 0 0 -1 I I #
straight-curve $-1 6.9965205988105748 37.97217635305347 0 0 0 -1 I I #
plane-surface $-1 10.146089799811469 0 0 -1 0 0 0 0 1 forward_v I I I I #
coedge $-1 $489 $487 $491 $638 reversed $329 $-1 #
edge $-1 $502 $640 $501 $707 forward #
vertex $-1 $638 $708 #
straight-curve $-1 -10.146089799811469 -224.27930539872432 0 0 0 -1 I I #
edge $-1 $636 $640 $634 $709 forward #
straight-curve $-1 0 -224.27930539872432 -112.13965269936216 -1 0 0 I I #
vertex $-1 $494 $710 #
straight-curve $-1 0 224.27930539872432 -112.13965269936216 1 0 0 I I #
point $-1 10.146089799811469 224.27930539872432 -112.13965269936216 #
point $-1 10.146089799811469 -224.27930539872432 -112.13965269936216 #
straight-curve $-1 -10.146089799811469 0 112.13965269936216 0 -1 0 I I #
point $-1 -10.146089799811469 224.27930539872432 112.13965269936216 #
point $-1 -10.146089799811469 -224.27930539872432 112.13965269936216 #
straight-curve $-1 10.146089799811469 -224.27930539872432 0 0 0 -1 I I #
straight-curve $-1 10.146089799811469 224.27930539872432 0 0 0 -1 I I #
edge $-1 $711 $711 $511 $-1 forward #
point $-1 1 0 -0.5 #
edge $-1 $712 $712 $515 $-1 forward #
point $-1 1 0 -0.5 #
edge $-1 $713 $713 $519 $-1 forward #
point $-1 1 0 -0.5 #
plane-surface $-1 10.66120450402644 0 0 -1 0 0 0 0 1 forward_v I I I I #
coedge $-1 $528 $526 $530 $660 reversed $363 $-1 #
edge $-1 $541 $662 $540 $714 forward #
vertex $-1 $660 $715 #
straight-curve $-1 -10.66120450402644 -224.27930539872432 0 0 0 -1 I I #
edge $-1 $658 $662 $656 $716 forward #
straight-curve $-1 0 -224.27930539872432 -112.13965269936216 -1 0 0 I I #
vertex $-1 $533 $717 #
straight-curve $-1 0 224.27930539872432 -112.13965269936216 1 0 0 I I #
point $-1 10.66120450402644 224.27930539872432 -112.13965269936216 #
point $-1 10.66120450402644 -224.27930539872432 -112.13965269936216 #
straight-curve $-1 -10.66120450402644 0 112.13965269936216 0 -1 0 I I #
point $-1 -10.66120450402644 224.27930539872432 112.13965269936216 #
point $-1 -10.66120450402644 -224.27930539872432 112.13965269936216 #
straight-curve $-1 10.66120450402644 -224.27930539872432 0 0 0 -1 I I #
straight-curve $-1 10.66120450402644 224.27930539872432 0 0 0 -1 I I #
edge $-1 $718 $718 $550 $-1 forward #
point $-1 1.5 0 -0.75 #
edge $-1 $719 $719 $554 $-1 forward #
point $-1 1.5 0 -0.75 #
edge $-1 $720 $720 $558 $-1 forward #
point $-1 1.5 0 -0.75 #
plane-surface $-1 10.66120450402644 0 0 -1 0 0 0 0 1 forward_v I I I I #
coedge $-1 $567 $565 $569 $682 reversed $397 $-1 #
edge $-1 $580 $684 $579 $721 forward #
vertex $-1 $682 $722 #
straight-curve $-1 -10.66120450402644 -224.27930539872432 0 0 0 -1 I I #
edge $-1 $680 $684 $678 $723 forward #
straight-curve $-1 0 -224.27930539872432 -112.13965269936216 -1 0 0 I I #
vertex $-1 $572 $724 #
straight-curve $-1 0 224.27930539872432 -112.13965269936216 1 0 0 I I #
point $-1 10.66120450402644 224.27930539872432 -112.13965269936216 #
point $-1 10.66120450402644 -224.27930539872432 -112.13965269936216 #
straight-curve $-1 -10.66120450402644 0 112.13965269936216 0 -1 0 I I #
point $-1 -10.66120450402644 224.27930539872432 112.13965269936216 #
point $-1 -10.66120450402644 -224.27930539872432 112.13965269936216 #
straight-curve $-1 10.66120450402644 -224.27930539872432 0 0 0 -1 I I #
straight-curve $-1 10.66120450402644 224.27930539872432 0 0 0 -1 I I #
edge $-1 $725 $725 $589 $-1 forward #
point $-1 1.5 0 -0.75 #
edge $-1 $726 $726 $593 $-1 forward #
point $-1 1.5 0 -0.75 #
edge $-1 $727 $727 $597 $-1 forward #
point $-1 1.5 0 -0.75 #
straight-curve $-1 -56.06982634968108 37.97217635305347 0 0 0 -1 I I #
point $-1 -56.06982634968108 -37.97217635305347 -15.09685751584731 #
straight-curve $-1 -56.06982634968108 0 -15.09685751584731 0 1 0 I I #
point $-1 -56.06982634968108 37.97217635305347 -15.09685751584731 #
straight-curve $-1 -6.9965205988105748 37.97217635305347 0 0 0 -1 I I #
point $-1 -6.9965205988105748 -37.97217635305347 -2.9122509436908857 #
straight-curve $-1 -6.9965205988105748 0 -2.9122509436908857 0 1 0 I I #
point $-1 -6.9965205988105748 37.97217635305347 -2.9122509436908857 #
straight-curve $-1 -10.146089799811469 224.27930539872432 0 0 0 -1 I I #
point $-1 -10.146089799811469 -224.27930539872432 -112.13965269936216 #
straight-curve $-1 -10.146089799811469 0 -112.13965269936216 0 1 0 I I #
point $-1 -10.146089799811469 224.27930539872432 -112.13965269936216 #
vertex $-1 $649 $728 #
vertex $-1 $651 $729 #
vertex $-1 $653 $730 #
straight-curve $-1 -10.66120450402644 224.27930539872432 0 0 0 -1 I I #
point $-1 -10.66120450402644 -224.27930539872432 -112.13965269936216 #
straight-curve $-1 -10.66120450402644 0 -112.13965269936216 0 1 0 I I #
point $-1 -10.66120450402644 224.27930539872432 -112.13965269936216 #
vertex $-1 $671 $731 #
vertex $-1 $673 $732 #
vertex $-1 $675 $733 #
straight-curve $-1 -10.66120450402644 224.27930539872432 0 0 0 -1 I I #
point $-1 -10.66120450402644 -224.27930539872432 -112.13965269936216 #
straight-curve $-1 -10.66120450402644 0 -112.13965269936216 0 1 0 I I #
point $-1 -10.66120450402644 224.27930539872432 -112.13965269936216 #
vertex $-1 $693 $734 #
vertex $-1 $695 $735 #
vertex $-1 $697 $736 #
point $-1 0 0 0.5 #
point $-1 0 0 0.5 #
point $-1 0 0 0.5 #
point $-1 0 0 0.75 #
point $-1 0 0 0.75 #
point $-1 0 0 0.75 #
point $-1 0 0 0.75 #
point $-1 0 0 0.75 #
point $-1 0 0 0.75 #
End-of-ACIS-data 