300 0 6 0           
7 Unknown 11 ACIS 3.0 NT 24 Fri Oct 30 20:25:50 1998 
-1 9.9999999999999995e-007 1e-010 
body $6 $7 $-1 $8 #
body $9 $10 $-1 $11 #
body $12 $13 $-1 $14 #
body $15 $16 $-1 $17 #
body $18 $19 $-1 $20 #
body $21 $22 $-1 $23 #
display_attribute-st-attrib $-1 $24 $-1 $0 1 #
lump $-1 $-1 $25 $0 #
transform $-1 1 0 0 0 1 0 0 0 1 75.519882808923612 43.963878919188829 21.773839919802363 1 rotate no_reflect no_shear #
display_attribute-st-attrib $-1 $26 $-1 $1 1 #
lump $-1 $-1 $27 $1 #
transform $-1 1 0 0 0 1 0 0 0 1 75.519882808923612 43.963878919188829 21.773839919802363 1 rotate no_reflect no_shear #
display_attribute-st-attrib $-1 $28 $-1 $2 1 #
lump $-1 $-1 $29 $2 #
transform $-1 1 0 0 0 1 0 0 0 1 75.519882808923612 43.963878919188829 21.773839919802363 1 rotate no_reflect no_shear #
display_attribute-st-attrib $-1 $30 $-1 $3 1 #
lump $-1 $-1 $31 $3 #
transform $-1 1 0 0 0 1 0 0 0 1 75.519882808923612 43.963878919188829 21.773839919802363 1 rotate no_reflect no_shear #
display_attribute-st-attrib $-1 $32 $-1 $4 1 #
lump $-1 $-1 $33 $4 #
transform $-1 1 0 0 0 1 0 0 0 1 75.519882808923612 43.963878919188829 21.773839919802363 1 rotate no_reflect no_shear #
display_attribute-st-attrib $-1 $34 $-1 $5 1 #
lump $-1 $-1 $35 $5 #
transform $-1 1 0 0 0 1 0 0 0 1 75.519882808923612 43.963878919188829 21.773839919802363 1 rotate no_reflect no_shear #
id_attribute-st-attrib $-1 $-1 $6 $0 4647 #
shell $-1 $-1 $-1 $36 $-1 $7 #
id_attribute-st-attrib $-1 $-1 $9 $1 4652 #
shell $-1 $-1 $-1 $37 $-1 $10 #
id_attribute-st-attrib $-1 $-1 $12 $2 4665 #
shell $-1 $-1 $-1 $38 $-1 $13 #
id_attribute-st-attrib $-1 $-1 $15 $3 4672 #
shell $-1 $-1 $-1 $39 $-1 $16 #
id_attribute-st-attrib $-1 $-1 $18 $4 4680 #
shell $-1 $-1 $-1 $40 $-1 $19 #
id_attribute-st-attrib $-1 $-1 $21 $5 4689 #
shell $-1 $-1 $-1 $41 $-1 $22 #
face $-1 $42 $43 $25 $-1 $44 forward single #
face $-1 $45 $46 $27 $-1 $47 reversed single #
face $-1 $48 $49 $29 $-1 $50 forward single #
face $-1 $51 $52 $31 $-1 $53 reversed single #
face $-1 $54 $55 $33 $-1 $56 forward single #
face $-1 $57 $58 $35 $-1 $59 reversed single #
face $-1 $60 $61 $25 $-1 $62 reversed single #
loop $-1 $-1 $63 $36 #
plane-surface $-1 0 0 21.773839919802363 0 0 1 1 0 0 forward_v I I I I #
face $-1 $64 $65 $27 $-1 $66 reversed single #
loop $-1 $-1 $67 $37 #
plane-surface $-1 0 -52.968667810879623 15.916227111395795 0 0 1 1 0 0 forward_v I I I I #
face $-1 $68 $69 $29 $-1 $70 forward single #
loop $-1 $-1 $71 $38 #
plane-surface $-1 -56.335799782200461 106.00909398996504 169.68067578198281 -1 0 0 0 0.77714596973225614 0.62932038083071107 forward_v I I I I #
face $-1 $72 $73 $31 $-1 $74 reversed single #
loop $-1 $75 $76 $39 #
cone-surface $-1 -65.927841295562033 36.46804423040944 13.039636806984076 0 -0.77714596973225614 -0.62932038083071107 1 0 0 1 I I 0 1 forward I I I I #
face $-1 $77 $78 $33 $-1 $79 forward single #
loop $-1 $-1 $80 $40 #
plane-surface $-1 19.184083026723151 106.00909398996504 169.68067578198281 -1 0 0 0 0.77714596973225614 0.62932038083071107 forward_v I I I I #
face $-1 $81 $82 $35 $-1 $83 reversed single #
loop $-1 $84 $85 $41 #
cone-surface $-1 9.5920415133615791 36.46804423040944 13.039636806984076 0 -0.77714596973225614 -0.62932038083071107 1 0 0 1 I I 0 1 forward I I I I #
face $-1 $86 $87 $25 $-1 $88 reversed single #
loop $-1 $-1 $89 $42 #
plane-surface $-1 0 0 -21.773839919802363 0 0 1 1 0 0 forward_v I I I I #
coedge $-1 $90 $91 $92 $93 forward $43 $-1 #
face $-1 $94 $95 $27 $-1 $96 forward single #
loop $-1 $-1 $97 $45 #
plane-surface $-1 0 -61.973456702570417 18.845033515599077 0 1 0 0 0 1 forward_v I I I I #
coedge $-1 $98 $99 $100 $101 forward $46 $-1 #
face $-1 $102 $103 $29 $-1 $104 reversed single #
loop $-1 $-1 $105 $48 #
plane-surface $-1 -65.927841295562033 -11.370851129249516 74.628272962777856 0 0.77714596973225614 0.62932038083071107 1 0 0 forward_v I I I I #
coedge $-1 $106 $107 $108 $109 reversed $49 $-1 #
face $-1 $110 $111 $31 $-1 $112 forward single #
loop $-1 $113 $114 $51 #
cone-surface $-1 -65.927841295562033 34.850664175478514 11.729908298107169 0 -0.77714596973225614 -0.62932038083071107 0.5 0 0 1 I I -0.70710678118654624 0.70710678118654879 forward I I I I #
loop $-1 $-1 $115 $39 #
coedge $-1 $76 $76 $116 $117 reversed $52 $-1 #
face $-1 $118 $119 $33 $-1 $120 forward single #
loop $-1 $-1 $121 $54 #
plane-surface $-1 9.5920415133615791 -11.370851129249516 74.628272962777856 0 0.77714596973225614 0.62932038083071107 1 0 0 forward_v I I I I #
coedge $-1 $122 $123 $124 $125 reversed $55 $-1 #
face $-1 $126 $127 $35 $-1 $128 forward single #
loop $-1 $129 $130 $57 #
cone-surface $-1 9.5920415133615791 34.850664175478514 11.729908298107169 0 -0.77714596973225614 -0.62932038083071107 0.5 0 0 1 I I -0.70710678118654624 0.70710678118654879 forward I I I I #
loop $-1 $-1 $131 $41 #
coedge $-1 $85 $85 $132 $133 reversed $58 $-1 #
face $-1 $134 $135 $25 $-1 $136 reversed single #
loop $-1 $-1 $137 $60 #
plane-surface $-1 0 -43.963878919188829 0 0 1 0 0 0 1 forward_v I I I I #
coedge $-1 $138 $139 $140 $141 forward $61 $-1 #
coedge $-1 $142 $63 $143 $144 forward $43 $-1 #
coedge $-1 $63 $142 $145 $146 forward $43 $-1 #
coedge $-1 $147 $148 $63 $93 reversed $149 $-1 #
edge $-1 $150 $151 $92 $152 forward #
face $-1 $153 $154 $27 $-1 $155 reversed single #
loop $-1 $-1 $156 $64 #
plane-surface $-1 0 0 21.773839919802363 0 0 1 1 0 0 forward_v I I I I #
coedge $-1 $157 $158 $159 $160 forward $65 $-1 #
coedge $-1 $161 $67 $157 $162 forward $46 $-1 #
coedge $-1 $67 $161 $163 $164 reversed $46 $-1 #
coedge $-1 $165 $166 $67 $101 reversed $167 $-1 #
edge $-1 $168 $169 $100 $170 forward #
face $-1 $171 $172 $29 $-1 $173 forward single #
loop $-1 $-1 $174 $68 #
plane-surface $-1 0 43.963878919188829 0 0 -1 0 0 0 -1 forward_v I I I I #
coedge $-1 $175 $176 $174 $177 reversed $69 $-1 #
coedge $-1 $107 $71 $176 $178 forward $49 $-1 #
coedge $-1 $71 $106 $179 $180 reversed $49 $-1 #
coedge $-1 $181 $174 $71 $109 forward $103 $-1 #
edge $-1 $182 $183 $108 $184 forward #
face $-1 $185 $186 $31 $-1 $187 forward single #
loop $-1 $-1 $188 $72 #
plane-surface $-1 -56.335799782200461 106.00909398996504 169.68067578198281 -1 0 0 0 0.77714596973225614 0.62932038083071107 forward_v I I I I #
loop $-1 $-1 $189 $51 #
coedge $-1 $114 $114 $115 $190 forward $73 $-1 #
coedge $-1 $115 $115 $114 $190 reversed $75 $-1 #
coedge $-1 $116 $116 $76 $117 forward $186 $-1 #
edge $-1 $191 $191 $116 $192 forward #
face $-1 $193 $194 $33 $-1 $195 reversed single #
loop $-1 $-1 $196 $77 #
plane-surface $-1 5.3290705182007514e-015 106.00909398996504 169.68067578198281 1 0 0 0 -0.77714596973225614 -0.62932038083071107 forward_v I I I I #
coedge $-1 $197 $198 $199 $200 reversed $78 $-1 #
coedge $-1 $123 $80 $198 $201 forward $55 $-1 #
coedge $-1 $80 $122 $202 $203 reversed $55 $-1 #
coedge $-1 $204 $199 $80 $125 forward $194 $-1 #
edge $-1 $205 $206 $124 $207 forward #
face $-1 $208 $209 $35 $-1 $210 forward single #
loop $-1 $-1 $211 $81 #
plane-surface $-1 19.184083026723151 106.00909398996504 169.68067578198281 -1 0 0 0 0.77714596973225614 0.62932038083071107 forward_v I I I I #
loop $-1 $-1 $212 $57 #
coedge $-1 $130 $130 $131 $213 forward $82 $-1 #
coedge $-1 $131 $131 $130 $213 reversed $84 $-1 #
coedge $-1 $132 $132 $85 $133 forward $209 $-1 #
edge $-1 $214 $214 $132 $215 forward #
face $-1 $216 $217 $25 $-1 $218 reversed single #
loop $-1 $-1 $219 $86 #
plane-surface $-1 -75.519882808923612 0 0 1 0 0 0 0 -1 forward_v I I I I #
coedge $-1 $220 $145 $221 $222 forward $87 $-1 #
coedge $-1 $223 $89 $220 $224 forward $61 $-1 #
coedge $-1 $89 $223 $225 $226 forward $61 $-1 #
coedge $-1 $148 $147 $89 $141 reversed $149 $-1 #
edge $-1 $227 $228 $140 $229 forward #
coedge $-1 $91 $90 $230 $231 forward $43 $-1 #
coedge $-1 $232 $233 $90 $144 reversed $217 $-1 #
edge $-1 $151 $234 $143 $235 forward #
coedge $-1 $137 $236 $91 $146 reversed $87 $-1 #
edge $-1 $237 $150 $145 $238 forward #
coedge $-1 $140 $92 $236 $239 forward $149 $-1 #
coedge $-1 $92 $140 $232 $240 reversed $149 $-1 #
loop $-1 $-1 $147 $216 #
vertex $-1 $93 $241 #
vertex $-1 $93 $242 #
straight-curve $-1 75.519882808923612 0 21.773839919802363 0 1 0 I I #
face $-1 $243 $244 $27 $-1 $245 reversed single #
loop $-1 $-1 $246 $94 #
plane-surface $-1 0 0 -21.773839919802363 0 0 1 1 0 0 forward_v I I I I #
coedge $-1 $247 $248 $249 $250 forward $95 $-1 #
coedge $-1 $251 $97 $98 $162 reversed $65 $-1 #
coedge $-1 $97 $251 $248 $252 reversed $65 $-1 #
coedge $-1 $253 $254 $97 $160 reversed $255 $-1 #
edge $-1 $256 $257 $159 $258 forward #
coedge $-1 $99 $98 $254 $259 forward $46 $-1 #
edge $-1 $169 $257 $157 $260 forward #
coedge $-1 $261 $262 $99 $164 forward $244 $-1 #
edge $-1 $168 $263 $163 $264 forward #
coedge $-1 $265 $100 $262 $266 forward $167 $-1 #
coedge $-1 $100 $249 $251 $267 forward $167 $-1 #
loop $-1 $-1 $165 $268 #
vertex $-1 $266 $269 #
vertex $-1 $267 $270 #
straight-curve $-1 75.519882808923612 -52.968667810879623 15.916227111395795 0 -1 0 I I #
face $-1 $271 $272 $29 $-1 $273 reversed single #
loop $-1 $-1 $179 $102 #
plane-surface $-1 0 0 21.773839919802363 0 0 1 1 0 0 forward_v I I I I #
coedge $-1 $108 $274 $105 $177 forward $103 $-1 #
coedge $-1 $275 $105 $276 $277 reversed $69 $-1 #
coedge $-1 $105 $275 $106 $178 reversed $69 $-1 #
edge $-1 $278 $182 $174 $279 forward #
edge $-1 $182 $280 $106 $281 forward #
coedge $-1 $282 $283 $107 $180 forward $172 $-1 #
edge $-1 $183 $280 $179 $284 forward #
coedge $-1 $285 $108 $283 $286 reversed $103 $-1 #
vertex $-1 $177 $287 #
vertex $-1 $180 $288 #
straight-curve $-1 -56.335799782200461 43.963878919188829 84.840337890991407 0 0 1 I I #
face $-1 $289 $290 $31 $-1 $291 reversed single #
loop $-1 $292 $116 $110 #
plane-surface $-1 -65.927841295562033 -11.370851129249516 74.628272962777856 0 0.77714596973225614 0.62932038083071107 1 0 0 forward_v I I I I #
coedge $-1 $293 $294 $295 $296 reversed $111 $-1 #
coedge $-1 $189 $189 $-1 $297 forward $113 $-1 #
edge $-1 $298 $298 $114 $299 forward #
vertex $-1 $117 $300 #
ellipse-curve $-1 -65.927841295562033 37.696851300474236 14.034705125445628 0 -0.77714596973225614 -0.62932038083071107 1 0 0 1 I I #
face $-1 $301 $302 $33 $-1 $303 reversed single #
loop $-1 $-1 $304 $118 #
plane-surface $-1 0 43.963878919188829 0 0 -1 0 0 0 -1 forward_v I I I I #
coedge $-1 $305 $306 $304 $307 reversed $119 $-1 #
coedge $-1 $308 $121 $306 $309 reversed $78 $-1 #
coedge $-1 $121 $308 $122 $201 reversed $78 $-1 #
coedge $-1 $124 $304 $121 $200 forward $194 $-1 #
edge $-1 $310 $205 $199 $311 forward #
edge $-1 $205 $312 $122 $313 forward #
coedge $-1 $314 $315 $123 $203 forward $316 $-1 #
edge $-1 $206 $312 $202 $317 forward #
coedge $-1 $318 $124 $315 $319 reversed $194 $-1 #
vertex $-1 $200 $320 #
vertex $-1 $203 $321 #
straight-curve $-1 19.184083026723151 43.963878919188829 84.840337890991407 0 0 1 I I #
face $-1 $322 $323 $35 $-1 $324 forward single #
loop $-1 $325 $132 $126 #
plane-surface $-1 9.5920415133615791 -11.370851129249516 74.628272962777856 0 0.77714596973225614 0.62932038083071107 1 0 0 forward_v I I I I #
coedge $-1 $326 $327 $328 $329 reversed $127 $-1 #
coedge $-1 $212 $212 $-1 $330 forward $129 $-1 #
edge $-1 $331 $331 $130 $332 forward #
vertex $-1 $133 $333 #
ellipse-curve $-1 9.5920415133615791 37.696851300474236 14.034705125445628 0 -0.77714596973225614 -0.62932038083071107 1 0 0 1 I I #
face $-1 $-1 $149 $25 $-1 $334 reversed single #
loop $-1 $-1 $232 $134 #
plane-surface $-1 0 43.963878919188829 0 0 -1 0 0 0 -1 forward_v I I I I #
coedge $-1 $335 $230 $233 $336 forward $135 $-1 #
coedge $-1 $236 $137 $138 $224 reversed $87 $-1 #
coedge $-1 $230 $335 $137 $222 reversed $135 $-1 #
edge $-1 $237 $337 $221 $338 forward #
coedge $-1 $139 $138 $335 $339 forward $61 $-1 #
edge $-1 $228 $337 $220 $340 forward #
coedge $-1 $233 $232 $139 $226 reversed $217 $-1 #
edge $-1 $341 $227 $225 $342 forward #
vertex $-1 $141 $343 #
vertex $-1 $239 $344 #
straight-curve $-1 75.519882808923612 0 -21.773839919802363 0 -1 0 I I #
coedge $-1 $219 $221 $142 $231 reversed $135 $-1 #
edge $-1 $234 $237 $230 $345 forward #
coedge $-1 $225 $143 $148 $240 forward $217 $-1 #
coedge $-1 $143 $225 $219 $336 reversed $217 $-1 #
vertex $-1 $144 $346 #
straight-curve $-1 0 43.963878919188829 21.773839919802363 -1 0 0 I I #
coedge $-1 $145 $220 $147 $239 reversed $87 $-1 #
vertex $-1 $231 $347 #
straight-curve $-1 0 -43.963878919188829 21.773839919802363 1 0 0 I I #
edge $-1 $150 $228 $147 $348 forward #
edge $-1 $151 $227 $148 $349 forward #
point $-1 75.519882808923612 -43.963878919188829 21.773839919802363 #
point $-1 75.519882808923612 43.963878919188829 21.773839919802363 #
face $-1 $350 $255 $27 $-1 $351 reversed single #
loop $-1 $-1 $163 $153 #
plane-surface $-1 0 -43.963878919188829 0 0 1 0 0 0 1 forward_v I I I I #
coedge $-1 $352 $353 $265 $354 forward $154 $-1 #
coedge $-1 $355 $156 $356 $357 forward $95 $-1 #
coedge $-1 $156 $355 $158 $252 forward $95 $-1 #
coedge $-1 $166 $358 $156 $250 reversed $167 $-1 #
edge $-1 $359 $360 $249 $361 forward #
coedge $-1 $158 $157 $166 $267 reversed $65 $-1 #
edge $-1 $256 $359 $158 $362 forward #
coedge $-1 $363 $159 $355 $364 reversed $255 $-1 #
coedge $-1 $159 $365 $161 $259 reversed $255 $-1 #
loop $-1 $-1 $363 $243 #
vertex $-1 $364 $366 #
vertex $-1 $259 $367 #
straight-curve $-1 -75.519882808923612 -61.973456702570417 18.845033515599077 0 0 -1 I I #
edge $-1 $257 $263 $254 $368 forward #
straight-curve $-1 0 -61.973456702570417 15.916227111395795 -1 0 0 I I #
coedge $-1 $369 $163 $365 $370 forward $244 $-1 #
coedge $-1 $163 $369 $165 $266 reversed $244 $-1 #
vertex $-1 $370 $371 #
straight-curve $-1 0 -43.963878919188829 15.916227111395795 -1 0 0 I I #
coedge $-1 $358 $165 $246 $354 reversed $167 $-1 #
edge $-1 $168 $372 $165 $373 forward #
edge $-1 $359 $169 $166 $374 forward #
face $-1 $-1 $167 $27 $-1 $375 reversed single #
point $-1 75.519882808923612 -43.963878919188829 15.916227111395795 #
point $-1 75.519882808923612 -61.973456702570417 15.916227111395795 #
face $-1 $376 $377 $29 $-1 $378 reversed single #
loop $-1 $-1 $379 $171 #
plane-surface $-1 0 -52.968667810879623 15.916227111395795 0 0 1 1 0 0 forward_v I I I I #
coedge $-1 $174 $380 $381 $382 reversed $103 $-1 #
coedge $-1 $176 $175 $282 $383 reversed $69 $-1 #
coedge $-1 $381 $384 $175 $277 forward $385 $-1 #
edge $-1 $386 $278 $276 $387 forward #
vertex $-1 $382 $388 #
straight-curve $-1 -32.963920647781016 43.963878919188829 6.2955703310888964 1 0 0 I I #
vertex $-1 $383 $389 #
straight-curve $-1 -56.335799782200461 -11.370851129249516 74.628272962777856 0 -0.62932038083071107 0.77714596973225614 I I #
coedge $-1 $390 $179 $275 $383 forward $172 $-1 #
coedge $-1 $179 $391 $181 $286 forward $172 $-1 #
straight-curve $-1 -56.335799782200461 53.004546994982519 21.773839919802356 0 -1 0 I I #
coedge $-1 $380 $181 $392 $393 forward $103 $-1 #
edge $-1 $394 $183 $181 $395 forward #
point $-1 -56.335799782200461 43.963878919188822 6.2955703310888964 #
point $-1 -56.335799782200461 43.963878919188829 21.773839919802363 #
face $-1 $396 $397 $31 $-1 $398 forward single #
loop $-1 $-1 $399 $185 #
plane-surface $-1 0 43.963878919188829 0 0 -1 0 0 0 -1 forward_v I I I I #
loop $-1 $-1 $400 $110 #
coedge $-1 $294 $188 $401 $402 forward $111 $-1 #
coedge $-1 $188 $293 $403 $404 reversed $111 $-1 #
coedge $-1 $405 $399 $188 $296 forward $290 $-1 #
edge $-1 $406 $407 $295 $408 forward #
edge $-1 $409 $409 $189 $-1 forward #
vertex $-1 $190 $410 #
ellipse-curve $-1 -65.927841295562033 35.239237160344643 12.044568488522525 0 0.77714596973225614 0.62932038083071107 1 0 0 1 I I #
point $-1 -64.927841295562033 37.696851300474229 14.034705125445624 #
face $-1 $411 $412 $33 $-1 $413 reversed single #
loop $-1 $414 $415 $193 #
cone-surface $-1 -65.927841295562033 36.46804423040944 13.039636806984076 0 -0.77714596973225614 -0.62932038083071107 1 0 0 1 I I 0 1 forward I I I I #
coedge $-1 $199 $416 $196 $307 forward $194 $-1 #
coedge $-1 $306 $196 $417 $418 reversed $119 $-1 #
coedge $-1 $196 $305 $197 $309 forward $119 $-1 #
edge $-1 $419 $310 $304 $420 forward #
coedge $-1 $198 $197 $314 $421 reversed $78 $-1 #
edge $-1 $422 $310 $306 $423 forward #
vertex $-1 $200 $424 #
straight-curve $-1 4.7960207566807895 43.963878919188829 6.2955703310888964 1 0 0 I I #
vertex $-1 $421 $425 #
straight-curve $-1 19.184083026723151 -11.370851129249516 74.628272962777856 0 -0.62932038083071107 0.77714596973225614 I I #
coedge $-1 $417 $202 $308 $421 forward $316 $-1 #
coedge $-1 $202 $426 $204 $319 forward $316 $-1 #
loop $-1 $-1 $417 $427 #
straight-curve $-1 19.184083026723151 53.004546994982519 21.773839919802356 0 -1 0 I I #
coedge $-1 $428 $204 $429 $430 forward $194 $-1 #
edge $-1 $431 $206 $204 $432 forward #
point $-1 19.184083026723151 43.963878919188822 6.2955703310888964 #
point $-1 19.184083026723151 43.963878919188829 21.773839919802363 #
face $-1 $433 $434 $35 $-1 $435 reversed single #
loop $-1 $-1 $436 $208 #
plane-surface $-1 5.3290705182007514e-015 106.00909398996504 169.68067578198281 1 0 0 0 -0.77714596973225614 -0.62932038083071107 forward_v I I I I #
loop $-1 $-1 $437 $126 #
coedge $-1 $327 $211 $438 $439 forward $127 $-1 #
coedge $-1 $211 $326 $440 $441 reversed $127 $-1 #
coedge $-1 $442 $443 $211 $329 forward $434 $-1 #
edge $-1 $444 $445 $328 $446 forward #
edge $-1 $447 $447 $212 $-1 forward #
vertex $-1 $213 $448 #
ellipse-curve $-1 9.5920415133615791 35.239237160344643 12.044568488522525 0 0.77714596973225614 0.62932038083071107 1 0 0 1 I I #
point $-1 10.592041513361579 37.696851300474229 14.034705125445624 #
plane-surface $-1 75.519882808923612 0 0 -1 0 0 0 0 1 forward_v I I I I #
coedge $-1 $221 $219 $223 $339 reversed $135 $-1 #
edge $-1 $234 $341 $233 $449 forward #
vertex $-1 $339 $450 #
straight-curve $-1 -75.519882808923612 -43.963878919188829 0 0 0 -1 I I #
edge $-1 $337 $341 $335 $451 forward #
straight-curve $-1 0 -43.963878919188829 -21.773839919802363 -1 0 0 I I #
vertex $-1 $226 $452 #
straight-curve $-1 0 43.963878919188829 -21.773839919802363 1 0 0 I I #
point $-1 75.519882808923612 43.963878919188829 -21.773839919802363 #
point $-1 75.519882808923612 -43.963878919188829 -21.773839919802363 #
straight-curve $-1 -75.519882808923612 0 21.773839919802363 0 -1 0 I I #
point $-1 -75.519882808923612 43.963878919188829 21.773839919802363 #
point $-1 -75.519882808923612 -43.963878919188829 21.773839919802363 #
straight-curve $-1 75.519882808923612 -43.963878919188829 0 0 0 -1 I I #
straight-curve $-1 75.519882808923612 43.963878919188829 0 0 0 -1 I I #
face $-1 $268 $453 $27 $-1 $454 reversed single #
plane-surface $-1 -75.519882808923612 0 0 1 0 0 0 0 -1 forward_v I I I I #
coedge $-1 $455 $246 $369 $456 forward $154 $-1 #
coedge $-1 $246 $455 $457 $458 forward $154 $-1 #
edge $-1 $459 $372 $265 $460 forward #
coedge $-1 $248 $247 $253 $364 forward $95 $-1 #
coedge $-1 $461 $462 $247 $357 reversed $453 $-1 #
edge $-1 $360 $463 $356 $464 forward #
coedge $-1 $249 $265 $461 $465 reversed $167 $-1 #
vertex $-1 $250 $466 #
vertex $-1 $250 $467 #
straight-curve $-1 75.519882808923612 0 21.773839919802363 0 1 0 I I #
straight-curve $-1 0 -61.973456702570417 21.773839919802359 1 0 0 I I #
coedge $-1 $468 $253 $462 $469 forward $255 $-1 #
edge $-1 $463 $256 $253 $470 forward #
coedge $-1 $254 $468 $261 $370 reversed $255 $-1 #
point $-1 -75.519882808923612 -61.973456702570417 21.773839919802359 #
point $-1 -75.519882808923612 -61.973456702570417 15.916227111395795 #
straight-curve $-1 -75.519882808923612 -52.968667810879623 15.916227111395795 0 1 0 I I #
coedge $-1 $262 $261 $352 $456 reversed $244 $-1 #
edge $-1 $263 $471 $365 $472 forward #
point $-1 -75.519882808923612 -43.963878919188829 15.916227111395795 #
vertex $-1 $266 $473 #
straight-curve $-1 75.519882808923612 -43.963878919188829 0 0 0 -1 I I #
straight-curve $-1 75.519882808923612 -61.973456702570417 18.845033515599077 0 0 -1 I I #
plane-surface $-1 75.519882808923612 0 0 -1 0 0 0 0 1 forward_v I I I I #
face $-1 $474 $475 $29 $-1 $476 reversed single #
loop $-1 $-1 $477 $271 #
plane-surface $-1 0 -61.973456702570417 18.845033515599077 0 1 0 0 0 1 forward_v I I I I #
coedge $-1 $478 $479 $480 $481 forward $272 $-1 #
coedge $-1 $274 $285 $482 $483 reversed $103 $-1 #
coedge $-1 $484 $276 $274 $382 forward $385 $-1 #
edge $-1 $278 $485 $274 $486 forward #
edge $-1 $280 $386 $282 $487 forward #
coedge $-1 $276 $488 $390 $489 reversed $385 $-1 #
loop $-1 $-1 $276 $490 #
vertex $-1 $489 $491 #
straight-curve $-1 -75.519882808923612 9.1301947932032057 49.311588966465543 0 0.62932038083071107 -0.77714596973225614 I I #
point $-1 -75.519882808923612 43.963878919188829 6.2955703310889009 #
point $-1 -56.335799782200461 31.429823681759643 21.773839919802356 #
coedge $-1 $492 $282 $384 $489 forward $172 $-1 #
coedge $-1 $283 $492 $493 $494 forward $172 $-1 #
coedge $-1 $493 $495 $285 $393 reversed $496 $-1 #
edge $-1 $394 $497 $392 $498 forward #
vertex $-1 $494 $499 #
straight-curve $-1 0 43.963878919188829 21.773839919802363 -1 0 0 I I #
face $-1 $500 $501 $31 $-1 $502 reversed single #
loop $-1 $-1 $403 $289 #
plane-surface $-1 0 0 21.773839919802363 0 0 1 1 0 0 forward_v I I I I #
coedge $-1 $295 $503 $400 $504 forward $290 $-1 #
coedge $-1 $505 $401 $399 $504 reversed $292 $-1 #
coedge $-1 $400 $506 $293 $402 reversed $292 $-1 #
edge $-1 $406 $507 $293 $508 forward #
coedge $-1 $509 $510 $294 $404 forward $397 $-1 #
edge $-1 $407 $507 $403 $511 forward #
coedge $-1 $512 $295 $510 $513 reversed $290 $-1 #
vertex $-1 $504 $514 #
vertex $-1 $404 $515 #
straight-curve $-1 -56.335799782200461 43.963878919188829 84.840337890991407 0 0 1 I I #
vertex $-1 $297 $516 #
point $-1 -64.927841295562033 35.239237160344643 12.044568488522525 #
face $-1 $517 $518 $33 $-1 $519 forward single #
loop $-1 $520 $521 $301 #
cone-surface $-1 -65.927841295562033 34.850664175478514 11.729908298107169 0 -0.77714596973225614 -0.62932038083071107 0.5 0 0 1 I I -0.70710678118654624 0.70710678118654879 forward I I I I #
loop $-1 $-1 $522 $193 #
coedge $-1 $415 $415 $523 $524 reversed $302 $-1 #
coedge $-1 $304 $525 $526 $527 reversed $194 $-1 #
coedge $-1 $526 $314 $305 $418 forward $316 $-1 #
edge $-1 $422 $419 $417 $528 forward #
vertex $-1 $527 $529 #
straight-curve $-1 5.3290705182007514e-015 43.963878919188829 84.840337890991407 0 0 -1 I I #
edge $-1 $312 $422 $314 $530 forward #
vertex $-1 $421 $531 #
straight-curve $-1 5.3290705182007514e-015 -11.370851129249516 74.628272962777856 0 0.62932038083071107 -0.77714596973225614 I I #
point $-1 5.3290705182007514e-015 43.963878919188822 6.2955703310888964 #
point $-1 19.184083026723151 31.429823681759643 21.773839919802356 #
coedge $-1 $315 $532 $533 $534 forward $316 $-1 #
face $-1 $535 $316 $33 $-1 $536 forward single #
coedge $-1 $537 $318 $538 $539 reversed $194 $-1 #
coedge $-1 $533 $540 $318 $430 reversed $541 $-1 #
edge $-1 $431 $542 $429 $543 forward #
vertex $-1 $534 $544 #
straight-curve $-1 0 43.963878919188829 21.773839919802363 -1 0 0 I I #
face $-1 $545 $546 $35 $-1 $547 reversed single #
loop $-1 $-1 $548 $322 #
plane-surface $-1 0 43.963878919188829 0 0 -1 0 0 0 -1 forward_v I I I I #
coedge $-1 $549 $550 $548 $551 reversed $323 $-1 #
coedge $-1 $552 $438 $443 $553 reversed $325 $-1 #
coedge $-1 $437 $554 $326 $439 reversed $325 $-1 #
edge $-1 $444 $555 $326 $556 forward #
coedge $-1 $557 $558 $327 $441 forward $559 $-1 #
edge $-1 $445 $555 $440 $560 forward #
coedge $-1 $561 $328 $558 $562 reversed $434 $-1 #
coedge $-1 $328 $548 $437 $553 forward $434 $-1 #
vertex $-1 $553 $563 #
vertex $-1 $441 $564 #
straight-curve $-1 19.184083026723151 43.963878919188829 84.840337890991407 0 0 1 I I #
vertex $-1 $330 $565 #
point $-1 10.592041513361579 35.239237160344643 12.044568488522525 #
straight-curve $-1 -75.519882808923612 43.963878919188829 0 0 0 -1 I I #
point $-1 -75.519882808923612 -43.963878919188829 -21.773839919802363 #
straight-curve $-1 -75.519882808923612 0 -21.773839919802363 0 1 0 I I #
point $-1 -75.519882808923612 43.963878919188829 -21.773839919802363 #
loop $-1 $-1 $461 $350 #
plane-surface $-1 0 43.963878919188829 0 0 -1 0 0 0 -1 forward_v I I I I #
coedge $-1 $353 $352 $468 $566 forward $154 $-1 #
edge $-1 $372 $471 $369 $567 forward #
coedge $-1 $462 $461 $353 $458 reversed $453 $-1 #
edge $-1 $568 $459 $457 $569 forward #
vertex $-1 $354 $570 #
straight-curve $-1 75.519882808923612 0 -21.773839919802363 0 -1 0 I I #
coedge $-1 $457 $356 $358 $465 forward $453 $-1 #
coedge $-1 $356 $457 $363 $469 reversed $453 $-1 #
vertex $-1 $357 $571 #
straight-curve $-1 0 43.963878919188829 21.773839919802363 -1 0 0 I I #
edge $-1 $360 $459 $358 $572 forward #
point $-1 75.519882808923612 -61.973456702570417 21.773839919802359 #
point $-1 75.519882808923612 43.963878919188829 21.773839919802363 #
coedge $-1 $365 $363 $455 $566 reversed $255 $-1 #
edge $-1 $463 $568 $462 $573 forward #
straight-curve $-1 -75.519882808923612 0 21.773839919802363 0 -1 0 I I #
vertex $-1 $566 $574 #
straight-curve $-1 -75.519882808923612 -43.963878919188829 0 0 0 -1 I I #
point $-1 75.519882808923612 -43.963878919188829 -21.773839919802363 #
face $-1 $490 $575 $29 $-1 $576 reversed single #
loop $-1 $-1 $577 $376 #
plane-surface $-1 0 0 -21.773839919802363 0 0 1 1 0 0 forward_v I I I I #
coedge $-1 $578 $579 $488 $580 forward $377 $-1 #
coedge $-1 $581 $379 $578 $582 forward $272 $-1 #
coedge $-1 $379 $581 $583 $584 reversed $272 $-1 #
coedge $-1 $585 $586 $379 $481 reversed $496 $-1 #
edge $-1 $587 $588 $480 $589 forward #
coedge $-1 $577 $590 $380 $483 forward $475 $-1 #
edge $-1 $485 $497 $380 $591 forward #
coedge $-1 $592 $381 $590 $593 reversed $385 $-1 #
vertex $-1 $483 $594 #
straight-curve $-1 -75.519882808923612 43.963878919188829 0 0 0 -1 I I #
straight-curve $-1 -32.963920647781016 31.429823681759633 21.773839919802363 -1 0 0 I I #
coedge $-1 $384 $595 $477 $580 reversed $385 $-1 #
edge $-1 $386 $596 $384 $597 forward #
face $-1 $598 $385 $29 $-1 $599 reversed single #
point $-1 -75.519882808923612 31.429823681759643 21.773839919802356 #
coedge $-1 $391 $390 $579 $600 forward $172 $-1 #
coedge $-1 $586 $392 $391 $494 reversed $496 $-1 #
edge $-1 $601 $394 $493 $602 forward #
coedge $-1 $392 $585 $577 $603 reversed $496 $-1 #
loop $-1 $-1 $585 $598 #
vertex $-1 $603 $604 #
straight-curve $-1 75.519882808923612 43.963878919188829 0 0 0 -1 I I #
point $-1 75.519882808923612 43.963878919188829 21.773839919802363 #
face $-1 $605 $606 $31 $-1 $607 reversed single #
loop $-1 $-1 $608 $396 #
plane-surface $-1 0 -52.968667810879623 15.916227111395795 0 0 1 1 0 0 forward_v I I I I #
coedge $-1 $399 $609 $610 $611 reversed $290 $-1 #
edge $-1 $612 $406 $399 $613 forward #
coedge $-1 $506 $400 $614 $615 reversed $292 $-1 #
coedge $-1 $401 $505 $509 $616 reversed $292 $-1 #
vertex $-1 $616 $617 #
straight-curve $-1 -56.335799782200461 -11.370851129249516 74.628272962777856 0 -0.62932038083071107 0.77714596973225614 I I #
coedge $-1 $618 $403 $506 $616 forward $397 $-1 #
coedge $-1 $403 $619 $405 $513 forward $397 $-1 #
straight-curve $-1 -56.335799782200461 53.004546994982519 21.773839919802356 0 -1 0 I I #
coedge $-1 $609 $405 $620 $621 forward $290 $-1 #
edge $-1 $622 $407 $405 $623 forward #
point $-1 -56.335799782200461 43.963878919188822 6.2955703310888964 #
point $-1 -56.335799782200461 43.963878919188829 21.773839919802363 #
point $-1 -65.927841295562033 34.462091190612384 11.415248107691813 #
face $-1 $427 $624 $33 $-1 $625 forward single #
loop $-1 $-1 $626 $411 #
plane-surface $-1 -56.335799782200461 106.00909398996504 169.68067578198281 -1 0 0 0 0.77714596973225614 0.62932038083071107 forward_v I I I I #
loop $-1 $-1 $627 $301 #
coedge $-1 $521 $521 $522 $628 forward $412 $-1 #
coedge $-1 $522 $522 $521 $628 reversed $414 $-1 #
coedge $-1 $523 $523 $415 $524 forward $624 $-1 #
edge $-1 $629 $629 $523 $630 forward #
coedge $-1 $416 $631 $626 $632 forward $194 $-1 #
coedge $-1 $633 $417 $416 $527 forward $316 $-1 #
edge $-1 $419 $634 $416 $432 forward #
straight-curve $-1 5.3290705182007514e-015 53.004546994982519 21.773839919802356 0 1 0 I I #
point $-1 5.3290705182007514e-015 43.963878919188829 21.773839919802363 #
straight-curve $-1 4.7960207566807895 31.429823681759633 21.773839919802363 -1 0 0 I I #
point $-1 5.3290705182007514e-015 31.429823681759643 21.773839919802356 #
coedge $-1 $426 $635 $636 $637 forward $316 $-1 #
coedge $-1 $638 $429 $426 $534 reversed $541 $-1 #
edge $-1 $639 $431 $533 $640 forward #
face $-1 $641 $642 $33 $-1 $643 reversed single #
plane-surface $-1 0 0 21.773839919802363 0 0 1 1 0 0 forward_v I I I I #
coedge $-1 $631 $428 $644 $645 reversed $194 $-1 #
coedge $-1 $646 $647 $428 $539 forward $648 $-1 #
edge $-1 $649 $542 $428 $650 forward #
coedge $-1 $429 $651 $646 $652 reversed $541 $-1 #
loop $-1 $-1 $651 $653 #
vertex $-1 $652 $654 #
straight-curve $-1 75.519882808923612 43.963878919188829 0 0 0 -1 I I #
point $-1 75.519882808923612 43.963878919188829 21.773839919802363 #
face $-1 $655 $656 $35 $-1 $657 reversed single #
loop $-1 $658 $659 $433 #
cone-surface $-1 -65.927841295562033 36.46804423040944 13.039636806984076 0 -0.77714596973225614 -0.62932038083071107 1 0 0 1 I I 0 1 forward I I I I #
coedge $-1 $443 $660 $436 $551 forward $434 $-1 #
coedge $-1 $550 $436 $661 $662 reversed $323 $-1 #
coedge $-1 $436 $549 $552 $663 forward $323 $-1 #
edge $-1 $664 $665 $548 $666 forward #
coedge $-1 $554 $437 $550 $663 reversed $325 $-1 #
edge $-1 $665 $444 $443 $667 forward #
coedge $-1 $438 $552 $557 $668 reversed $325 $-1 #
vertex $-1 $668 $669 #
straight-curve $-1 19.184083026723151 -11.370851129249516 74.628272962777856 0 -0.62932038083071107 0.77714596973225614 I I #
coedge $-1 $661 $440 $554 $668 forward $559 $-1 #
coedge $-1 $440 $670 $442 $562 forward $559 $-1 #
loop $-1 $-1 $661 $671 #
straight-curve $-1 19.184083026723151 53.004546994982519 21.773839919802356 0 -1 0 I I #
coedge $-1 $672 $442 $673 $674 forward $434 $-1 #
edge $-1 $675 $445 $442 $676 forward #
point $-1 19.184083026723151 43.963878919188822 6.2955703310888964 #
point $-1 19.184083026723151 43.963878919188829 21.773839919802363 #
point $-1 9.5920415133615791 34.462091190612384 11.415248107691813 #
edge $-1 $471 $568 $468 $677 forward #
straight-curve $-1 0 -43.963878919188829 -21.773839919802363 -1 0 0 I I #
vertex $-1 $458 $678 #
straight-curve $-1 0 43.963878919188829 -21.773839919802363 1 0 0 I I #
point $-1 75.519882808923612 43.963878919188829 -21.773839919802363 #
point $-1 -75.519882808923612 43.963878919188829 21.773839919802363 #
straight-curve $-1 75.519882808923612 43.963878919188829 0 0 0 -1 I I #
straight-curve $-1 -75.519882808923612 43.963878919188829 0 0 0 -1 I I #
point $-1 -75.519882808923612 -43.963878919188829 -21.773839919802363 #
loop $-1 $-1 $583 $474 #
plane-surface $-1 0 -43.963878919188829 0 0 1 0 0 0 1 forward_v I I I I #
coedge $-1 $679 $482 $495 $603 forward $475 $-1 #
coedge $-1 $680 $477 $478 $582 reversed $377 $-1 #
coedge $-1 $477 $680 $492 $600 reversed $377 $-1 #
edge $-1 $596 $681 $488 $682 forward #
coedge $-1 $479 $478 $595 $683 forward $272 $-1 #
edge $-1 $588 $681 $578 $684 forward #
coedge $-1 $685 $686 $479 $584 forward $575 $-1 #
edge $-1 $587 $687 $583 $688 forward #
coedge $-1 $495 $480 $686 $689 forward $496 $-1 #
coedge $-1 $480 $493 $680 $690 forward $496 $-1 #
vertex $-1 $689 $691 #
vertex $-1 $690 $692 #
straight-curve $-1 75.519882808923612 -52.968667810879623 15.916227111395795 0 -1 0 I I #
coedge $-1 $482 $679 $484 $593 forward $475 $-1 #
straight-curve $-1 0 43.963878919188829 -21.773839919802363 1 0 0 I I #
coedge $-1 $595 $484 $685 $693 reversed $385 $-1 #
edge $-1 $694 $485 $484 $695 forward #
point $-1 -75.519882808923612 43.963878919188829 -21.773839919802363 #
coedge $-1 $488 $592 $581 $683 reversed $385 $-1 #
vertex $-1 $489 $696 #
straight-curve $-1 -75.519882808923612 0 21.773839919802363 0 -1 0 I I #
face $-1 $-1 $496 $29 $-1 $697 reversed single #
plane-surface $-1 -75.519882808923612 0 0 1 0 0 0 0 -1 forward_v I I I I #
edge $-1 $596 $601 $579 $698 forward #
vertex $-1 $494 $699 #
straight-curve $-1 75.519882808923612 0 21.773839919802363 0 1 0 I I #
edge $-1 $497 $700 $495 $701 forward #
point $-1 75.519882808923612 43.963878919188829 -21.773839919802363 #
face $-1 $702 $703 $31 $-1 $704 reversed single #
loop $-1 $-1 $705 $500 #
plane-surface $-1 0 -61.973456702570417 18.845033515599077 0 1 0 0 0 1 forward_v I I I I #
coedge $-1 $706 $707 $708 $709 forward $501 $-1 #
coedge $-1 $503 $512 $710 $711 reversed $290 $-1 #
coedge $-1 $712 $614 $503 $611 forward $713 $-1 #
edge $-1 $612 $714 $503 $715 forward #
vertex $-1 $611 $716 #
straight-curve $-1 -32.963920647781016 43.963878919188829 6.2955703310888964 1 0 0 I I #
coedge $-1 $610 $717 $505 $615 forward $713 $-1 #
edge $-1 $718 $612 $614 $719 forward #
edge $-1 $507 $718 $509 $720 forward #
point $-1 -56.335799782200461 31.429823681759643 21.773839919802356 #
coedge $-1 $721 $509 $717 $722 forward $397 $-1 #
coedge $-1 $510 $721 $723 $724 forward $397 $-1 #
coedge $-1 $723 $725 $512 $621 reversed $726 $-1 #
edge $-1 $622 $727 $620 $728 forward #
vertex $-1 $724 $729 #
straight-curve $-1 0 43.963878919188829 21.773839919802363 -1 0 0 I I #
loop $-1 $730 $523 $517 #
plane-surface $-1 -65.927841295562033 -11.370851129249516 74.628272962777856 0 0.77714596973225614 0.62932038083071107 1 0 0 forward_v I I I I #
coedge $-1 $731 $732 $525 $632 reversed $518 $-1 #
coedge $-1 $627 $627 $-1 $733 forward $520 $-1 #
edge $-1 $734 $734 $521 $735 forward #
vertex $-1 $524 $736 #
ellipse-curve $-1 -65.927841295562033 37.696851300474236 14.034705125445628 0 -0.77714596973225614 -0.62932038083071107 1 0 0 1 I I #
coedge $-1 $525 $537 $737 $738 forward $194 $-1 #
edge $-1 $739 $634 $525 $740 forward #
coedge $-1 $741 $526 $732 $742 forward $316 $-1 #
vertex $-1 $742 $743 #
coedge $-1 $532 $741 $744 $745 forward $316 $-1 #
coedge $-1 $746 $747 $532 $637 reversed $748 $-1 #
edge $-1 $749 $639 $636 $750 forward #
coedge $-1 $751 $533 $747 $752 forward $541 $-1 #
vertex $-1 $534 $753 #
straight-curve $-1 75.519882808923612 0 21.773839919802363 0 1 0 I I #
face $-1 $754 $748 $33 $-1 $755 reversed single #
loop $-1 $-1 $756 $535 #
plane-surface $-1 0 -52.968667810879623 15.916227111395795 0 0 1 1 0 0 forward_v I I I I #
coedge $-1 $757 $758 $537 $645 forward $759 $-1 #
edge $-1 $760 $649 $537 $761 forward #
coedge $-1 $762 $538 $540 $652 forward $648 $-1 #
coedge $-1 $538 $762 $757 $763 forward $648 $-1 #
loop $-1 $-1 $646 $754 #
vertex $-1 $539 $764 #
straight-curve $-1 0 43.963878919188829 -21.773839919802363 1 0 0 I I #
coedge $-1 $540 $751 $765 $766 forward $541 $-1 #
edge $-1 $542 $767 $540 $768 forward #
face $-1 $-1 $541 $33 $-1 $769 reversed single #
point $-1 75.519882808923612 43.963878919188829 -21.773839919802363 #
face $-1 $770 $771 $35 $-1 $772 forward single #
loop $-1 $773 $774 $545 #
cone-surface $-1 -65.927841295562033 34.850664175478514 11.729908298107169 0 -0.77714596973225614 -0.62932038083071107 0.5 0 0 1 I I -0.70710678118654624 0.70710678118654879 forward I I I I #
loop $-1 $-1 $775 $433 #
coedge $-1 $659 $659 $776 $777 reversed $546 $-1 #
coedge $-1 $548 $778 $779 $780 reversed $434 $-1 #
coedge $-1 $779 $557 $549 $662 forward $559 $-1 #
edge $-1 $781 $664 $661 $782 forward #
edge $-1 $781 $665 $550 $783 forward #
vertex $-1 $780 $784 #
vertex $-1 $553 $785 #
straight-curve $-1 5.3290705182007514e-015 43.963878919188829 84.840337890991407 0 0 -1 I I #
straight-curve $-1 4.7960207566807895 43.963878919188829 6.2955703310888964 1 0 0 I I #
edge $-1 $555 $781 $557 $786 forward #
point $-1 19.184083026723151 31.429823681759643 21.773839919802356 #
coedge $-1 $558 $787 $788 $789 forward $559 $-1 #
face $-1 $790 $559 $35 $-1 $791 forward single #
coedge $-1 $792 $561 $793 $794 reversed $434 $-1 #
coedge $-1 $788 $795 $561 $674 reversed $796 $-1 #
edge $-1 $675 $797 $673 $798 forward #
vertex $-1 $789 $799 #
straight-curve $-1 0 43.963878919188829 21.773839919802363 -1 0 0 I I #
straight-curve $-1 -75.519882808923612 0 -21.773839919802363 0 1 0 I I #
point $-1 -75.519882808923612 43.963878919188829 -21.773839919802363 #
coedge $-1 $590 $577 $800 $801 forward $475 $-1 #
coedge $-1 $579 $578 $586 $690 reversed $377 $-1 #
vertex $-1 $683 $802 #
straight-curve $-1 -75.519882808923612 -61.973456702570417 18.845033515599077 0 0 -1 I I #
edge $-1 $681 $687 $595 $803 forward #
straight-curve $-1 0 -61.973456702570417 15.916227111395795 -1 0 0 I I #
coedge $-1 $800 $583 $592 $693 forward $575 $-1 #
coedge $-1 $583 $800 $585 $689 reversed $575 $-1 #
vertex $-1 $693 $804 #
straight-curve $-1 0 -43.963878919188829 15.916227111395795 -1 0 0 I I #
edge $-1 $587 $700 $585 $805 forward #
edge $-1 $601 $588 $586 $806 forward #
point $-1 75.519882808923612 -43.963878919188829 15.916227111395795 #
point $-1 75.519882808923612 -61.973456702570417 15.916227111395795 #
edge $-1 $687 $694 $592 $807 forward #
vertex $-1 $593 $808 #
straight-curve $-1 -75.519882808923612 0 -21.773839919802363 0 1 0 I I #
point $-1 -75.519882808923612 -61.973456702570417 21.773839919802359 #
plane-surface $-1 75.519882808923612 0 0 -1 0 0 0 0 1 forward_v I I I I #
straight-curve $-1 0 -61.973456702570417 21.773839919802359 1 0 0 I I #
point $-1 75.519882808923612 -61.973456702570417 21.773839919802359 #
vertex $-1 $689 $809 #
straight-curve $-1 75.519882808923612 0 -21.773839919802363 0 -1 0 I I #
face $-1 $810 $811 $31 $-1 $812 reversed single #
loop $-1 $-1 $813 $605 #
plane-surface $-1 0 0 -21.773839919802363 0 0 1 1 0 0 forward_v I I I I #
coedge $-1 $814 $815 $816 $817 forward $606 $-1 #
coedge $-1 $818 $608 $814 $819 forward $501 $-1 #
coedge $-1 $608 $818 $820 $821 reversed $501 $-1 #
coedge $-1 $822 $823 $608 $709 reversed $726 $-1 #
edge $-1 $824 $825 $708 $826 forward #
coedge $-1 $813 $827 $609 $711 forward $703 $-1 #
edge $-1 $714 $727 $609 $828 forward #
coedge $-1 $829 $610 $827 $830 reversed $713 $-1 #
loop $-1 $-1 $614 $810 #
vertex $-1 $711 $831 #
straight-curve $-1 -75.519882808923612 43.963878919188829 0 0 0 -1 I I #
point $-1 -75.519882808923612 43.963878919188829 6.2955703310889009 #
coedge $-1 $614 $816 $618 $722 reversed $713 $-1 #
vertex $-1 $722 $832 #
straight-curve $-1 -75.519882808923612 9.1301947932032057 49.311588966465543 0 0.62932038083071107 -0.77714596973225614 I I #
straight-curve $-1 -32.963920647781016 31.429823681759633 21.773839919802363 -1 0 0 I I #
coedge $-1 $619 $618 $815 $833 forward $397 $-1 #
edge $-1 $718 $834 $717 $835 forward #
coedge $-1 $823 $620 $619 $724 reversed $726 $-1 #
edge $-1 $836 $622 $723 $837 forward #
coedge $-1 $620 $822 $813 $838 reversed $726 $-1 #
loop $-1 $-1 $822 $839 #
vertex $-1 $838 $840 #
straight-curve $-1 75.519882808923612 43.963878919188829 0 0 0 -1 I I #
point $-1 75.519882808923612 43.963878919188829 21.773839919802363 #
loop $-1 $-1 $737 $517 #
coedge $-1 $732 $626 $841 $842 forward $518 $-1 #
coedge $-1 $626 $731 $633 $742 reversed $518 $-1 #
edge $-1 $843 $843 $627 $-1 forward #
vertex $-1 $628 $844 #
ellipse-curve $-1 -65.927841295562033 35.239237160344643 12.044568488522525 0 0.77714596973225614 0.62932038083071107 1 0 0 1 I I #
point $-1 -64.927841295562033 37.696851300474229 14.034705125445624 #
coedge $-1 $845 $841 $631 $738 reversed $730 $-1 #
edge $-1 $760 $739 $631 $846 forward #
vertex $-1 $738 $847 #
straight-curve $-1 -56.335799782200461 43.963878919188829 84.840337890991407 0 0 1 I I #
coedge $-1 $635 $633 $848 $849 forward $316 $-1 #
edge $-1 $634 $850 $633 $851 forward #
point $-1 -56.335799782200461 43.963878919188829 21.773839919802363 #
coedge $-1 $758 $852 $635 $745 reversed $759 $-1 #
edge $-1 $853 $749 $744 $854 forward #
coedge $-1 $855 $636 $852 $856 forward $748 $-1 #
coedge $-1 $636 $855 $638 $752 reversed $748 $-1 #
loop $-1 $-1 $746 $641 #
vertex $-1 $745 $857 #
straight-curve $-1 0 -61.973456702570417 21.773839919802359 1 0 0 I I #
coedge $-1 $651 $638 $756 $858 reversed $541 $-1 #
edge $-1 $639 $859 $638 $860 forward #
point $-1 75.519882808923612 -61.973456702570417 21.773839919802359 #
face $-1 $861 $648 $33 $-1 $862 reversed single #
plane-surface $-1 0 -61.973456702570417 18.845033515599077 0 1 0 0 0 1 forward_v I I I I #
coedge $-1 $863 $864 $751 $858 forward $642 $-1 #
coedge $-1 $865 $644 $647 $763 reversed $759 $-1 #
coedge $-1 $644 $744 $845 $866 forward $759 $-1 #
loop $-1 $-1 $758 $867 #
vertex $-1 $645 $868 #
straight-curve $-1 -75.519882808923612 43.963878919188829 0 0 0 -1 I I #
coedge $-1 $647 $646 $869 $870 forward $648 $-1 #
edge $-1 $871 $649 $757 $872 forward #
point $-1 -75.519882808923612 43.963878919188829 -21.773839919802363 #
coedge $-1 $873 $869 $651 $766 reversed $874 $-1 #
edge $-1 $875 $767 $651 $876 forward #
vertex $-1 $766 $877 #
straight-curve $-1 75.519882808923612 0 -21.773839919802363 0 -1 0 I I #
plane-surface $-1 75.519882808923612 0 0 -1 0 0 0 0 1 forward_v I I I I #
face $-1 $671 $878 $35 $-1 $879 forward single #
loop $-1 $-1 $880 $655 #
plane-surface $-1 -56.335799782200461 106.00909398996504 169.68067578198281 -1 0 0 0 0.77714596973225614 0.62932038083071107 forward_v I I I I #
loop $-1 $-1 $881 $545 #
coedge $-1 $774 $774 $775 $882 forward $656 $-1 #
coedge $-1 $775 $775 $774 $882 reversed $658 $-1 #
coedge $-1 $776 $776 $659 $777 forward $878 $-1 #
edge $-1 $883 $883 $776 $884 forward #
coedge $-1 $660 $885 $880 $886 forward $434 $-1 #
coedge $-1 $887 $661 $660 $780 forward $559 $-1 #
edge $-1 $664 $888 $660 $676 forward #
vertex $-1 $668 $889 #
straight-curve $-1 5.3290705182007514e-015 53.004546994982519 21.773839919802356 0 1 0 I I #
straight-curve $-1 5.3290705182007514e-015 -11.370851129249516 74.628272962777856 0 0.62932038083071107 -0.77714596973225614 I I #
point $-1 5.3290705182007514e-015 43.963878919188829 21.773839919802363 #
point $-1 5.3290705182007514e-015 43.963878919188822 6.2955703310888964 #
straight-curve $-1 4.7960207566807895 31.429823681759633 21.773839919802363 -1 0 0 I I #
coedge $-1 $670 $890 $891 $892 forward $559 $-1 #
coedge $-1 $893 $673 $670 $789 reversed $796 $-1 #
edge $-1 $894 $675 $788 $895 forward #
face $-1 $896 $897 $35 $-1 $898 reversed single #
plane-surface $-1 0 0 21.773839919802363 0 0 1 1 0 0 forward_v I I I I #
coedge $-1 $885 $672 $899 $900 reversed $434 $-1 #
coedge $-1 $901 $902 $672 $794 forward $903 $-1 #
edge $-1 $904 $797 $672 $905 forward #
coedge $-1 $673 $906 $901 $907 reversed $796 $-1 #
loop $-1 $-1 $906 $908 #
vertex $-1 $907 $909 #
straight-curve $-1 75.519882808923612 43.963878919188829 0 0 0 -1 I I #
point $-1 75.519882808923612 43.963878919188829 21.773839919802363 #
coedge $-1 $686 $685 $679 $801 reversed $575 $-1 #
edge $-1 $700 $694 $800 $910 forward #
point $-1 -75.519882808923612 -61.973456702570417 15.916227111395795 #
straight-curve $-1 -75.519882808923612 -52.968667810879623 15.916227111395795 0 1 0 I I #
point $-1 -75.519882808923612 -43.963878919188829 15.916227111395795 #
straight-curve $-1 75.519882808923612 -43.963878919188829 0 0 0 -1 I I #
straight-curve $-1 75.519882808923612 -61.973456702570417 18.845033515599077 0 0 -1 I I #
straight-curve $-1 -75.519882808923612 -43.963878919188829 0 0 0 -1 I I #
point $-1 -75.519882808923612 -43.963878919188829 -21.773839919802363 #
point $-1 75.519882808923612 -43.963878919188829 -21.773839919802363 #
face $-1 $839 $713 $31 $-1 $911 reversed single #
loop $-1 $-1 $820 $702 #
plane-surface $-1 0 -43.963878919188829 0 0 1 0 0 0 1 forward_v I I I I #
coedge $-1 $912 $710 $725 $838 forward $703 $-1 #
coedge $-1 $913 $705 $706 $819 reversed $606 $-1 #
coedge $-1 $705 $913 $721 $833 reversed $606 $-1 #
coedge $-1 $717 $914 $705 $817 reversed $713 $-1 #
edge $-1 $834 $915 $816 $916 forward #
coedge $-1 $707 $706 $914 $917 forward $501 $-1 #
edge $-1 $825 $915 $814 $918 forward #
coedge $-1 $919 $920 $707 $821 forward $811 $-1 #
edge $-1 $824 $921 $820 $922 forward #
coedge $-1 $725 $708 $920 $923 forward $726 $-1 #
coedge $-1 $708 $723 $913 $924 forward $726 $-1 #
vertex $-1 $923 $925 #
vertex $-1 $924 $926 #
straight-curve $-1 75.519882808923612 -52.968667810879623 15.916227111395795 0 -1 0 I I #
coedge $-1 $710 $912 $712 $830 forward $703 $-1 #
straight-curve $-1 0 43.963878919188829 -21.773839919802363 1 0 0 I I #
coedge $-1 $914 $712 $919 $927 reversed $713 $-1 #
edge $-1 $928 $714 $712 $929 forward #
point $-1 -75.519882808923612 43.963878919188829 -21.773839919802363 #
point $-1 -75.519882808923612 31.429823681759643 21.773839919802356 #
edge $-1 $834 $836 $815 $930 forward #
vertex $-1 $722 $931 #
straight-curve $-1 -75.519882808923612 0 21.773839919802363 0 -1 0 I I #
vertex $-1 $724 $932 #
straight-curve $-1 75.519882808923612 0 21.773839919802363 0 1 0 I I #
edge $-1 $727 $933 $725 $934 forward #
face $-1 $-1 $726 $31 $-1 $935 reversed single #
point $-1 75.519882808923612 43.963878919188829 -21.773839919802363 #
coedge $-1 $737 $848 $731 $842 reversed $730 $-1 #
edge $-1 $739 $850 $731 $936 forward #
vertex $-1 $733 $937 #
point $-1 -64.927841295562033 35.239237160344643 12.044568488522525 #
coedge $-1 $848 $737 $758 $866 reversed $730 $-1 #
straight-curve $-1 -32.963920647781016 43.963878919188829 6.2955703310888964 1 0 0 I I #
point $-1 -56.335799782200461 43.963878919188822 6.2955703310888964 #
coedge $-1 $841 $845 $741 $849 reversed $730 $-1 #
edge $-1 $850 $853 $741 $938 forward #
vertex $-1 $849 $939 #
straight-curve $-1 -56.335799782200461 53.004546994982519 21.773839919802356 0 -1 0 I I #
coedge $-1 $744 $940 $746 $856 reversed $759 $-1 #
vertex $-1 $745 $941 #
straight-curve $-1 -75.519882808923612 0 21.773839919802363 0 -1 0 I I #
coedge $-1 $747 $746 $863 $942 reversed $748 $-1 #
edge $-1 $749 $943 $852 $944 forward #
point $-1 -75.519882808923612 -61.973456702570417 21.773839919802359 #
edge $-1 $875 $859 $751 $945 forward #
vertex $-1 $752 $946 #
straight-curve $-1 75.519882808923612 -61.973456702570417 18.845033515599077 0 0 -1 I I #
face $-1 $867 $874 $33 $-1 $947 reversed single #
plane-surface $-1 0 0 -21.773839919802363 0 0 1 1 0 0 forward_v I I I I #
coedge $-1 $948 $756 $855 $942 forward $642 $-1 #
coedge $-1 $756 $948 $873 $949 reversed $642 $-1 #
coedge $-1 $940 $757 $950 $951 reversed $759 $-1 #
edge $-1 $853 $760 $758 $952 forward #
face $-1 $653 $759 $33 $-1 $953 reversed single #
point $-1 -75.519882808923612 43.963878919188829 6.2955703310889009 #
coedge $-1 $765 $950 $762 $870 reversed $874 $-1 #
edge $-1 $767 $871 $869 $954 forward #
vertex $-1 $763 $955 #
straight-curve $-1 -75.519882808923612 0 -21.773839919802363 0 1 0 I I #
coedge $-1 $950 $765 $864 $949 forward $874 $-1 #
loop $-1 $-1 $873 $861 #
vertex $-1 $766 $956 #
straight-curve $-1 75.519882808923612 -43.963878919188829 0 0 0 -1 I I #
point $-1 75.519882808923612 -43.963878919188829 -21.773839919802363 #
loop $-1 $957 $776 $770 #
plane-surface $-1 -65.927841295562033 -11.370851129249516 74.628272962777856 0 0.77714596973225614 0.62932038083071107 1 0 0 forward_v I I I I #
coedge $-1 $958 $959 $778 $886 reversed $771 $-1 #
coedge $-1 $881 $881 $-1 $960 forward $773 $-1 #
edge $-1 $961 $961 $774 $962 forward #
vertex $-1 $777 $963 #
ellipse-curve $-1 -65.927841295562033 37.696851300474236 14.034705125445628 0 -0.77714596973225614 -0.62932038083071107 1 0 0 1 I I #
coedge $-1 $778 $792 $964 $965 forward $434 $-1 #
edge $-1 $966 $888 $778 $967 forward #
coedge $-1 $968 $779 $959 $969 forward $559 $-1 #
vertex $-1 $969 $970 #
point $-1 5.3290705182007514e-015 31.429823681759643 21.773839919802356 #
coedge $-1 $787 $968 $971 $972 forward $559 $-1 #
coedge $-1 $973 $974 $787 $892 reversed $975 $-1 #
edge $-1 $976 $894 $891 $977 forward #
coedge $-1 $978 $788 $974 $979 forward $796 $-1 #
vertex $-1 $789 $980 #
straight-curve $-1 75.519882808923612 0 21.773839919802363 0 1 0 I I #
face $-1 $981 $975 $35 $-1 $982 reversed single #
loop $-1 $-1 $983 $790 #
plane-surface $-1 0 -52.968667810879623 15.916227111395795 0 0 1 1 0 0 forward_v I I I I #
coedge $-1 $984 $985 $792 $900 forward $986 $-1 #
edge $-1 $987 $904 $792 $988 forward #
coedge $-1 $989 $793 $795 $907 forward $903 $-1 #
coedge $-1 $793 $989 $984 $990 forward $903 $-1 #
loop $-1 $-1 $901 $981 #
vertex $-1 $794 $991 #
straight-curve $-1 0 43.963878919188829 -21.773839919802363 1 0 0 I I #
coedge $-1 $795 $978 $992 $993 forward $796 $-1 #
edge $-1 $797 $994 $795 $995 forward #
face $-1 $-1 $796 $35 $-1 $996 reversed single #
point $-1 75.519882808923612 43.963878919188829 -21.773839919802363 #
straight-curve $-1 0 -43.963878919188829 -21.773839919802363 -1 0 0 I I #
plane-surface $-1 -75.519882808923612 0 0 1 0 0 0 0 -1 forward_v I I I I #
coedge $-1 $827 $813 $997 $998 forward $703 $-1 #
coedge $-1 $815 $814 $823 $924 reversed $606 $-1 #
coedge $-1 $816 $829 $818 $917 reversed $713 $-1 #
vertex $-1 $917 $999 #
straight-curve $-1 -75.519882808923612 -61.973456702570417 18.845033515599077 0 0 -1 I I #
edge $-1 $915 $921 $914 $1000 forward #
straight-curve $-1 0 -61.973456702570417 15.916227111395795 -1 0 0 I I #
coedge $-1 $997 $820 $829 $927 forward $811 $-1 #
coedge $-1 $820 $997 $822 $923 reversed $811 $-1 #
vertex $-1 $927 $1001 #
straight-curve $-1 0 -43.963878919188829 15.916227111395795 -1 0 0 I I #
edge $-1 $824 $933 $822 $1002 forward #
edge $-1 $836 $825 $823 $1003 forward #
point $-1 75.519882808923612 -43.963878919188829 15.916227111395795 #
point $-1 75.519882808923612 -61.973456702570417 15.916227111395795 #
edge $-1 $921 $928 $829 $1004 forward #
vertex $-1 $830 $1005 #
straight-curve $-1 -75.519882808923612 0 -21.773839919802363 0 1 0 I I #
straight-curve $-1 0 -61.973456702570417 21.773839919802359 1 0 0 I I #
point $-1 -75.519882808923612 -61.973456702570417 21.773839919802359 #
point $-1 75.519882808923612 -61.973456702570417 21.773839919802359 #
vertex $-1 $923 $1006 #
straight-curve $-1 75.519882808923612 0 -21.773839919802363 0 -1 0 I I #
plane-surface $-1 75.519882808923612 0 0 -1 0 0 0 0 1 forward_v I I I I #
straight-curve $-1 -56.335799782200461 -11.370851129249516 74.628272962777856 0 -0.62932038083071107 0.77714596973225614 I I #
point $-1 -65.927841295562033 34.462091190612384 11.415248107691813 #
straight-curve $-1 -32.963920647781016 31.429823681759633 21.773839919802363 -1 0 0 I I #
point $-1 -56.335799782200461 31.429823681759643 21.773839919802356 #
coedge $-1 $852 $865 $948 $1007 reversed $759 $-1 #
point $-1 -75.519882808923612 31.429823681759643 21.773839919802356 #
edge $-1 $859 $943 $855 $1008 forward #
vertex $-1 $1007 $1009 #
straight-curve $-1 -75.519882808923612 -61.973456702570417 18.845033515599077 0 0 -1 I I #
straight-curve $-1 75.519882808923612 -52.968667810879623 15.916227111395795 0 -1 0 I I #
point $-1 75.519882808923612 -61.973456702570417 15.916227111395795 #
plane-surface $-1 0 -43.963878919188829 0 0 1 0 0 0 1 forward_v I I I I #
coedge $-1 $864 $863 $940 $1007 forward $642 $-1 #
edge $-1 $875 $1010 $873 $1011 forward #
coedge $-1 $869 $873 $865 $951 forward $874 $-1 #
edge $-1 $1010 $871 $865 $1012 forward #
straight-curve $-1 -75.519882808923612 9.1301947932032057 49.311588966465543 0 0.62932038083071107 -0.77714596973225614 I I #
plane-surface $-1 -75.519882808923612 0 0 1 0 0 0 0 -1 forward_v I I I I #
straight-curve $-1 0 -43.963878919188829 -21.773839919802363 -1 0 0 I I #
point $-1 -75.519882808923612 -43.963878919188829 -21.773839919802363 #
point $-1 75.519882808923612 -43.963878919188829 15.916227111395795 #
loop $-1 $-1 $964 $770 #
coedge $-1 $959 $880 $1013 $1014 forward $771 $-1 #
coedge $-1 $880 $958 $887 $969 reversed $771 $-1 #
edge $-1 $1015 $1015 $881 $-1 forward #
vertex $-1 $882 $1016 #
ellipse-curve $-1 -65.927841295562033 35.239237160344643 12.044568488522525 0 0.77714596973225614 0.62932038083071107 1 0 0 1 I I #
point $-1 -64.927841295562033 37.696851300474229 14.034705125445624 #
coedge $-1 $1017 $1013 $885 $965 reversed $957 $-1 #
edge $-1 $987 $966 $885 $1018 forward #
vertex $-1 $965 $1019 #
straight-curve $-1 -56.335799782200461 43.963878919188829 84.840337890991407 0 0 1 I I #
coedge $-1 $890 $887 $1020 $1021 forward $559 $-1 #
edge $-1 $888 $1022 $887 $1023 forward #
point $-1 -56.335799782200461 43.963878919188829 21.773839919802363 #
coedge $-1 $985 $1024 $890 $972 reversed $986 $-1 #
edge $-1 $1025 $976 $971 $1026 forward #
coedge $-1 $1027 $891 $1024 $1028 forward $975 $-1 #
coedge $-1 $891 $1027 $893 $979 reversed $975 $-1 #
loop $-1 $-1 $973 $896 #
vertex $-1 $972 $1029 #
straight-curve $-1 0 -61.973456702570417 21.773839919802359 1 0 0 I I #
coedge $-1 $906 $893 $983 $1030 reversed $796 $-1 #
edge $-1 $894 $1031 $893 $1032 forward #
point $-1 75.519882808923612 -61.973456702570417 21.773839919802359 #
face $-1 $1033 $903 $35 $-1 $1034 reversed single #
plane-surface $-1 0 -61.973456702570417 18.845033515599077 0 1 0 0 0 1 forward_v I I I I #
coedge $-1 $1035 $1036 $978 $1030 forward $897 $-1 #
coedge $-1 $1037 $899 $902 $990 reversed $986 $-1 #
coedge $-1 $899 $971 $1017 $1038 forward $986 $-1 #
loop $-1 $-1 $985 $1039 #
vertex $-1 $900 $1040 #
straight-curve $-1 -75.519882808923612 43.963878919188829 0 0 0 -1 I I #
coedge $-1 $902 $901 $1041 $1042 forward $903 $-1 #
edge $-1 $1043 $904 $984 $1044 forward #
point $-1 -75.519882808923612 43.963878919188829 -21.773839919802363 #
coedge $-1 $1045 $1041 $906 $993 reversed $1046 $-1 #
edge $-1 $1047 $994 $906 $1048 forward #
vertex $-1 $993 $1049 #
straight-curve $-1 75.519882808923612 0 -21.773839919802363 0 -1 0 I I #
plane-surface $-1 75.519882808923612 0 0 -1 0 0 0 0 1 forward_v I I I I #
coedge $-1 $920 $919 $912 $998 reversed $811 $-1 #
edge $-1 $933 $928 $997 $1050 forward #
point $-1 -75.519882808923612 -61.973456702570417 15.916227111395795 #
straight-curve $-1 -75.519882808923612 -52.968667810879623 15.916227111395795 0 1 0 I I #
point $-1 -75.519882808923612 -43.963878919188829 15.916227111395795 #
straight-curve $-1 75.519882808923612 -43.963878919188829 0 0 0 -1 I I #
straight-curve $-1 75.519882808923612 -61.973456702570417 18.845033515599077 0 0 -1 I I #
straight-curve $-1 -75.519882808923612 -43.963878919188829 0 0 0 -1 I I #
point $-1 -75.519882808923612 -43.963878919188829 -21.773839919802363 #
point $-1 75.519882808923612 -43.963878919188829 -21.773839919802363 #
edge $-1 $943 $1010 $940 $1051 forward #
straight-curve $-1 0 -61.973456702570417 15.916227111395795 -1 0 0 I I #
point $-1 -75.519882808923612 -61.973456702570417 15.916227111395795 #
vertex $-1 $951 $1052 #
straight-curve $-1 0 -43.963878919188829 15.916227111395795 -1 0 0 I I #
straight-curve $-1 -75.519882808923612 -43.963878919188829 0 0 0 -1 I I #
coedge $-1 $964 $1020 $958 $1014 reversed $957 $-1 #
edge $-1 $966 $1022 $958 $1053 forward #
vertex $-1 $960 $1054 #
point $-1 -64.927841295562033 35.239237160344643 12.044568488522525 #
coedge $-1 $1020 $964 $985 $1038 reversed $957 $-1 #
straight-curve $-1 -32.963920647781016 43.963878919188829 6.2955703310888964 1 0 0 I I #
point $-1 -56.335799782200461 43.963878919188822 6.2955703310888964 #
coedge $-1 $1013 $1017 $968 $1021 reversed $957 $-1 #
edge $-1 $1022 $1025 $968 $1055 forward #
vertex $-1 $1021 $1056 #
straight-curve $-1 -56.335799782200461 53.004546994982519 21.773839919802356 0 -1 0 I I #
coedge $-1 $971 $1057 $973 $1028 reversed $986 $-1 #
vertex $-1 $972 $1058 #
straight-curve $-1 -75.519882808923612 0 21.773839919802363 0 -1 0 I I #
coedge $-1 $974 $973 $1035 $1059 reversed $975 $-1 #
edge $-1 $976 $1060 $1024 $1061 forward #
point $-1 -75.519882808923612 -61.973456702570417 21.773839919802359 #
edge $-1 $1047 $1031 $978 $1062 forward #
vertex $-1 $979 $1063 #
straight-curve $-1 75.519882808923612 -61.973456702570417 18.845033515599077 0 0 -1 I I #
face $-1 $1039 $1046 $35 $-1 $1064 reversed single #
plane-surface $-1 0 0 -21.773839919802363 0 0 1 1 0 0 forward_v I I I I #
coedge $-1 $1065 $983 $1027 $1059 forward $897 $-1 #
coedge $-1 $983 $1065 $1045 $1066 reversed $897 $-1 #
coedge $-1 $1057 $984 $1067 $1068 reversed $986 $-1 #
edge $-1 $1025 $987 $985 $1069 forward #
face $-1 $908 $986 $35 $-1 $1070 reversed single #
point $-1 -75.519882808923612 43.963878919188829 6.2955703310889009 #
coedge $-1 $992 $1067 $989 $1042 reversed $1046 $-1 #
edge $-1 $994 $1043 $1041 $1071 forward #
vertex $-1 $990 $1072 #
straight-curve $-1 -75.519882808923612 0 -21.773839919802363 0 1 0 I I #
coedge $-1 $1067 $992 $1036 $1066 forward $1046 $-1 #
loop $-1 $-1 $1045 $1033 #
vertex $-1 $993 $1073 #
straight-curve $-1 75.519882808923612 -43.963878919188829 0 0 0 -1 I I #
point $-1 75.519882808923612 -43.963878919188829 -21.773839919802363 #
straight-curve $-1 0 -43.963878919188829 -21.773839919802363 -1 0 0 I I #
straight-curve $-1 -75.519882808923612 -52.968667810879623 15.916227111395795 0 1 0 I I #
point $-1 -75.519882808923612 -43.963878919188829 15.916227111395795 #
straight-curve $-1 -56.335799782200461 -11.370851129249516 74.628272962777856 0 -0.62932038083071107 0.77714596973225614 I I #
point $-1 -65.927841295562033 34.462091190612384 11.415248107691813 #
straight-curve $-1 -32.963920647781016 31.429823681759633 21.773839919802363 -1 0 0 I I #
point $-1 -56.335799782200461 31.429823681759643 21.773839919802356 #
coedge $-1 $1024 $1037 $1065 $1074 reversed $986 $-1 #
point $-1 -75.519882808923612 31.429823681759643 21.773839919802356 #
edge $-1 $1031 $1060 $1027 $1075 forward #
vertex $-1 $1074 $1076 #
straight-curve $-1 -75.519882808923612 -61.973456702570417 18.845033515599077 0 0 -1 I I #
straight-curve $-1 75.519882808923612 -52.968667810879623 15.916227111395795 0 -1 0 I I #
point $-1 75.519882808923612 -61.973456702570417 15.916227111395795 #
plane-surface $-1 0 -43.963878919188829 0 0 1 0 0 0 1 forward_v I I I I #
coedge $-1 $1036 $1035 $1057 $1074 forward $897 $-1 #
edge $-1 $1047 $1077 $1045 $1078 forward #
coedge $-1 $1041 $1045 $1037 $1068 forward $1046 $-1 #
edge $-1 $1077 $1043 $1037 $1079 forward #
straight-curve $-1 -75.519882808923612 9.1301947932032057 49.311588966465543 0 0.62932038083071107 -0.77714596973225614 I I #
plane-surface $-1 -75.519882808923612 0 0 1 0 0 0 0 -1 forward_v I I I I #
straight-curve $-1 0 -43.963878919188829 -21.773839919802363 -1 0 0 I I #
point $-1 -75.519882808923612 -43.963878919188829 -21.773839919802363 #
point $-1 75.519882808923612 -43.963878919188829 15.916227111395795 #
edge $-1 $1060 $1077 $1057 $1080 forward #
straight-curve $-1 0 -61.973456702570417 15.916227111395795 -1 0 0 I I #
point $-1 -75.519882808923612 -61.973456702570417 15.916227111395795 #
vertex $-1 $1068 $1081 #
straight-curve $-1 0 -43.963878919188829 15.916227111395795 -1 0 0 I I #
straight-curve $-1 -75.519882808923612 -43.963878919188829 0 0 0 -1 I I #
straight-curve $-1 -75.519882808923612 -52.968667810879623 15.916227111395795 0 1 0 I I #
point $-1 -75.519882808923612 -43.963878919188829 15.916227111395795 #
End-of-ACIS-data 