600 0 5 0           
93 GICL ACIS Healer - Source: /gicl/data5/repository/Drexel/SM99-DATA/part111.smdg.des.sat - 6 0 18 ACIS 6.0.3 Solaris 24 Sat Apr 13 20:44:03 2002 
1 9.999999999999999547e-07 1.000000000000000036e-10 
body $-1 $5 $-1 $-1 #
body $-1 $6 $-1 $-1 #
body $-1 $7 $-1 $-1 #
body $-1 $8 $-1 $-1 #
body $-1 $9 $-1 $-1 #
lump $-1 $-1 $10 $0 #
lump $-1 $-1 $11 $1 #
lump $-1 $-1 $12 $2 #
lump $-1 $-1 $13 $3 #
lump $-1 $-1 $14 $4 #
shell $-1 $-1 $-1 $15 $-1 $5 #
shell $-1 $-1 $-1 $16 $-1 $6 #
shell $-1 $-1 $-1 $17 $-1 $7 #
shell $-1 $-1 $-1 $18 $-1 $8 #
shell $-1 $-1 $-1 $19 $-1 $9 #
face $-1 $20 $21 $10 $-1 $22 forward single #
face $-1 $23 $24 $11 $-1 $25 forward single #
face $-1 $26 $27 $12 $-1 $28 reversed single #
face $-1 $29 $30 $13 $-1 $31 reversed single #
face $-1 $32 $33 $14 $-1 $34 reversed single #
face $-1 $35 $36 $10 $-1 $37 reversed single #
loop $-1 $-1 $38 $15 #
plane-surface $-1 79.3115024262215087 53.36286624468802131 29.33027805617942718 0 0 1 1 0 0 forward_v I I I I #
face $-1 $39 $40 $11 $-1 $41 forward single #
loop $-1 $-1 $42 $16 #
plane-surface $-1 118.8942269251116386 -86.39228142593007931 148.0300903424995624 -1 0 0 0 -0.5446390421508873203 0.8386705633113421543 forward_v I I I I #
face $-1 $43 $44 $12 $-1 $45 reversed single #
loop $-1 $46 $47 $17 #
cone-surface $-1 95.84787810889035597 12.44034682128080505 20.00016255085606076 0 0.5446390421508873203 -0.8386705633113421543 1.5 0 0 1 I I 0 1 1.5 forward I I I I #
face $-1 $48 $49 $13 $-1 $50 reversed single #
loop $-1 $51 $52 $18 #
cone-surface $-1 104.4902589149733387 12.44034682128080505 20.00016255085606076 0 0.5446390421508873203 -0.8386705633113421543 1.5 0 0 1 I I 0 1 1.5 forward I I I I #
face $-1 $53 $54 $14 $-1 $55 reversed single #
loop $-1 $56 $57 $19 #
cone-surface $-1 113.1326397210563215 12.44034682128080505 20.00016255085606076 0 0.5446390421508873203 -0.8386705633113421543 1.5 0 0 1 I I 0 1 1.5 forward I I I I #
face $-1 $58 $59 $10 $-1 $60 reversed single #
loop $-1 $-1 $61 $20 #
plane-surface $-1 79.3115024262215087 53.36286624468802131 0 0 0 1 1 0 0 forward_v I I I I #
coedge $-1 $62 $63 $64 $65 forward $21 $-1 #
face $-1 $66 $67 $11 $-1 $68 forward single #
loop $-1 $-1 $69 $23 #
plane-surface $-1 104.4902589149733387 4.263256414560601115e-14 14.99764550876339975 0 -0.5446390421508873203 0.8386705633113421543 1 0 0 forward_v I I I I #
coedge $-1 $70 $71 $72 $73 reversed $24 $-1 #
face $-1 $74 $75 $12 $-1 $76 forward single #
loop $-1 $77 $78 $26 #
cone-surface $-1 95.84787810889035597 14.25401378023507704 17.20736039675718132 0 0.5446390421508873203 -0.8386705633113421543 0.75 0 0 1 I I -0.7071067811865475727 0.7071067811865475727 0.75 forward I I I I #
loop $-1 $-1 $79 $17 #
coedge $-1 $47 $47 $80 $81 reversed $27 $-1 #
face $-1 $82 $83 $13 $-1 $84 reversed single #
loop $-1 $85 $86 $29 #
cone-surface $-1 104.4902589149733387 14.25401378023507704 17.20736039675718132 0 0.5446390421508873203 -0.8386705633113421543 0.75 0 0 1 I I -0.7071067811865475727 0.7071067811865475727 0.75 forward I I I I #
loop $-1 $-1 $87 $18 #
coedge $-1 $52 $52 $88 $89 reversed $30 $-1 #
face $-1 $90 $91 $14 $-1 $92 reversed single #
loop $-1 $93 $94 $32 #
cone-surface $-1 113.1326397210563215 14.25401378023507704 17.20736039675718132 0 0.5446390421508873203 -0.8386705633113421543 0.75 0 0 1 I I -0.7071067811865475727 0.7071067811865475727 0.75 forward I I I I #
loop $-1 $-1 $95 $19 #
coedge $-1 $57 $57 $96 $97 reversed $33 $-1 #
face $-1 $98 $99 $10 $-1 $100 reversed single #
loop $-1 $-1 $101 $35 #
plane-surface $-1 79.3115024262215087 0 14.66513902808971359 0 1 0 0 0 1 forward_v I I I I #
coedge $-1 $102 $103 $104 $105 forward $36 $-1 #
coedge $-1 $106 $38 $107 $108 forward $21 $-1 #
coedge $-1 $38 $106 $109 $110 forward $21 $-1 #
coedge $-1 $111 $112 $38 $65 reversed $113 $-1 #
edge $-1 $114 -53.36286624468802131 $115 53.36286624468802131 $64 $116 forward 7 unknown #
face $-1 $117 $118 $11 $-1 $119 forward single #
loop $-1 $-1 $120 $39 #
plane-surface $-1 90.08629090483503887 -86.39228142593007931 148.0300903424995624 1 0 0 0 0.5446390421508873203 -0.8386705633113421543 forward_v I I I I #
coedge $-1 $121 $122 $123 $124 reversed $40 $-1 #
coedge $-1 $71 $42 $122 $125 forward $24 $-1 #
coedge $-1 $42 $70 $126 $127 reversed $24 $-1 #
coedge $-1 $128 $123 $42 $73 forward $118 $-1 #
edge $-1 $129 -38.58502587850052379 $130 -16.514707590621029 $72 $131 forward 7 unknown #
face $-1 $132 $133 $12 $-1 $134 forward single #
loop $-1 $-1 $135 $43 #
plane-surface $-1 118.8942269251116386 -86.39228142593007931 148.0300903424995624 -1 0 0 0 -0.5446390421508873203 0.8386705633113421543 forward_v I I I I #
loop $-1 $-1 $136 $26 #
coedge $-1 $78 $78 $79 $137 forward $44 $-1 #
coedge $-1 $79 $79 $78 $137 reversed $46 $-1 #
coedge $-1 $80 $80 $47 $81 forward $133 $-1 #
edge $-1 $138 4.113947717127302211e-16 $138 6.283185307179586232 $80 $139 forward 7 unknown #
face $-1 $140 $141 $13 $-1 $142 reversed single #
loop $-1 $143 $144 $48 #
cone-surface $-1 95.84787810889035597 12.44034682128080505 20.00016255085606076 0 0.5446390421508873203 -0.8386705633113421543 1.5 0 0 1 I I 0 1 1.5 forward I I I I #
loop $-1 $-1 $145 $29 #
coedge $-1 $86 $86 $87 $146 forward $49 $-1 #
coedge $-1 $87 $87 $86 $146 reversed $51 $-1 #
coedge $-1 $88 $88 $52 $89 forward $147 $-1 #
edge $-1 $148 4.113947717127302211e-16 $148 6.283185307179586232 $88 $149 forward 7 unknown #
face $-1 $150 $151 $14 $-1 $152 reversed single #
loop $-1 $153 $154 $53 #
cone-surface $-1 104.4902589149733387 12.44034682128080505 20.00016255085606076 0 0.5446390421508873203 -0.8386705633113421543 1.5 0 0 1 I I 0 1 1.5 forward I I I I #
loop $-1 $-1 $155 $32 #
coedge $-1 $94 $94 $95 $156 forward $54 $-1 #
coedge $-1 $95 $95 $94 $156 reversed $56 $-1 #
coedge $-1 $96 $96 $57 $97 forward $157 $-1 #
edge $-1 $158 4.113947717127302211e-16 $158 6.283185307179586232 $96 $159 forward 7 unknown #
face $-1 $160 $161 $10 $-1 $162 reversed single #
loop $-1 $-1 $163 $58 #
plane-surface $-1 0 53.36286624468802131 14.66513902808971359 1 0 0 0 0 -1 forward_v I I I I #
coedge $-1 $164 $109 $165 $166 forward $59 $-1 #
coedge $-1 $167 $61 $164 $168 forward $36 $-1 #
coedge $-1 $61 $167 $169 $170 forward $36 $-1 #
coedge $-1 $112 $111 $61 $105 reversed $113 $-1 #
edge $-1 $171 -53.36286624468802131 $172 53.36286624468802131 $104 $173 forward 7 unknown #
coedge $-1 $63 $62 $174 $175 forward $21 $-1 #
coedge $-1 $176 $177 $62 $108 reversed $161 $-1 #
edge $-1 $115 -79.3115024262215087 $178 79.3115024262215087 $107 $179 forward 7 unknown #
coedge $-1 $101 $180 $63 $110 reversed $59 $-1 #
edge $-1 $181 -79.3115024262215087 $114 79.3115024262215087 $109 $182 forward 7 unknown #
coedge $-1 $104 $64 $180 $183 forward $113 $-1 #
coedge $-1 $64 $104 $176 $184 reversed $113 $-1 #
loop $-1 $-1 $111 $160 #
vertex $-1 $65 $185 #
vertex $-1 $65 $186 #
straight-curve $-1 158.6230048524430174 53.36286624468802131 29.33027805617942718 0 1 0 I I #
face $-1 $187 $188 $11 $-1 $189 reversed single #
loop $-1 $-1 $190 $66 #
plane-surface $-1 79.3115024262215087 53.36286624468802131 29.33027805617942718 0 0 1 1 0 0 forward_v I I I I #
coedge $-1 $191 $192 $190 $193 reversed $67 $-1 #
coedge $-1 $194 $69 $192 $195 reversed $40 $-1 #
coedge $-1 $69 $194 $70 $125 reversed $40 $-1 #
coedge $-1 $72 $190 $69 $124 forward $118 $-1 #
edge $-1 $196 -1.814589765762377738 $129 26.99334625451422198 $123 $197 forward 7 unknown #
edge $-1 $129 -26.3158375330817762 $198 5.123424918786840315e-14 $70 $199 forward 7 unknown #
coedge $-1 $200 $201 $71 $127 forward $202 $-1 #
edge $-1 $130 52.01733662911520639 $198 66.34996917653126047 $126 $203 forward 7 unknown #
coedge $-1 $204 $72 $201 $205 forward $118 $-1 #
vertex $-1 $124 $206 #
vertex $-1 $205 $207 #
straight-curve $-1 118.8942269251116386 -16.514707590621029 29.33027805617942363 0 -1 0 I I #
face $-1 $208 $209 $12 $-1 $210 forward single #
loop $-1 $211 $80 $74 #
plane-surface $-1 104.4902589149733387 4.263256414560601115e-14 14.99764550876339975 0 -0.5446390421508873203 0.8386705633113421543 1 0 0 forward_v I I I I #
coedge $-1 $212 $213 $214 $215 reversed $75 $-1 #
coedge $-1 $136 $136 $-1 $216 forward $77 $-1 #
edge $-1 $217 0 $217 6.283185307179586232 $78 $218 forward 7 unknown #
vertex $-1 $81 $219 #
ellipse-curve $-1 95.84787810889035597 11.03515914393972963 22.16396178247138593 0 0.5446390421508873203 -0.8386705633113421543 1.5 0 0 1 I I #
face $-1 $220 $221 $13 $-1 $222 forward single #
loop $-1 $223 $224 $82 #
cone-surface $-1 95.84787810889035597 14.25401378023507704 17.20736039675718132 0 0.5446390421508873203 -0.8386705633113421543 0.75 0 0 1 I I -0.7071067811865475727 0.7071067811865475727 0.75 forward I I I I #
loop $-1 $-1 $225 $48 #
coedge $-1 $144 $144 $226 $227 reversed $83 $-1 #
coedge $-1 $145 $145 $-1 $228 forward $85 $-1 #
edge $-1 $229 0 $229 6.283185307179586232 $86 $230 forward 7 unknown #
loop $-1 $231 $88 $220 #
vertex $-1 $89 $232 #
ellipse-curve $-1 104.4902589149733387 11.03515914393972963 22.16396178247138593 0 0.5446390421508873203 -0.8386705633113421543 1.5 0 0 1 I I #
face $-1 $233 $234 $14 $-1 $235 reversed single #
loop $-1 $236 $237 $90 #
cone-surface $-1 104.4902589149733387 14.25401378023507704 17.20736039675718132 0 0.5446390421508873203 -0.8386705633113421543 0.75 0 0 1 I I -0.7071067811865475727 0.7071067811865475727 0.75 forward I I I I #
loop $-1 $-1 $238 $53 #
coedge $-1 $154 $154 $239 $240 reversed $91 $-1 #
coedge $-1 $155 $155 $-1 $241 forward $93 $-1 #
edge $-1 $242 0 $242 6.283185307179586232 $94 $243 forward 7 unknown #
loop $-1 $244 $96 $245 #
vertex $-1 $97 $246 #
ellipse-curve $-1 113.1326397210563215 11.03515914393972963 22.16396178247138593 0 0.5446390421508873203 -0.8386705633113421543 1.5 0 0 1 I I #
face $-1 $-1 $113 $10 $-1 $247 reversed single #
loop $-1 $-1 $176 $98 #
plane-surface $-1 79.3115024262215087 106.7257324893760426 14.66513902808971359 0 -1 0 0 0 -1 forward_v I I I I #
coedge $-1 $248 $174 $177 $249 forward $99 $-1 #
coedge $-1 $180 $101 $102 $168 reversed $59 $-1 #
coedge $-1 $174 $248 $101 $166 reversed $99 $-1 #
edge $-1 $181 -14.66513902808971359 $250 14.66513902808971359 $165 $251 forward 7 unknown #
coedge $-1 $103 $102 $248 $252 forward $36 $-1 #
edge $-1 $172 -79.3115024262215087 $250 79.3115024262215087 $164 $253 forward 7 unknown #
coedge $-1 $177 $176 $103 $170 reversed $161 $-1 #
edge $-1 $254 -79.3115024262215087 $171 79.3115024262215087 $169 $255 forward 7 unknown #
vertex $-1 $105 $256 #
vertex $-1 $183 $257 #
straight-curve $-1 158.6230048524430174 53.36286624468802131 0 0 -1 0 I I #
coedge $-1 $163 $165 $106 $175 reversed $99 $-1 #
edge $-1 $178 -53.36286624468802131 $181 53.36286624468802131 $174 $258 forward 7 unknown #
coedge $-1 $169 $107 $112 $184 forward $161 $-1 #
coedge $-1 $107 $169 $163 $249 reversed $161 $-1 #
vertex $-1 $108 $259 #
straight-curve $-1 79.3115024262215087 106.7257324893760426 29.33027805617942718 -1 0 0 I I #
coedge $-1 $109 $164 $111 $183 reversed $59 $-1 #
vertex $-1 $175 $260 #
straight-curve $-1 79.3115024262215087 0 29.33027805617942718 1 0 0 I I #
edge $-1 $114 -14.66513902808971359 $172 14.66513902808971359 $111 $261 forward 7 unknown #
edge $-1 $115 -14.66513902808971359 $171 14.66513902808971359 $112 $262 forward 7 unknown #
point $-1 158.6230048524430174 0 29.33027805617942718 #
point $-1 158.6230048524430174 106.7257324893760426 29.33027805617942718 #
face $-1 $263 $202 $11 $-1 $264 reversed single #
loop $-1 $-1 $265 $117 #
plane-surface $-1 79.3115024262215087 53.36286624468802131 0 0 0 1 1 0 0 forward_v I I I I #
coedge $-1 $123 $266 $120 $193 forward $118 $-1 #
coedge $-1 $192 $120 $267 $268 reversed $67 $-1 #
coedge $-1 $120 $191 $121 $195 forward $67 $-1 #
edge $-1 $269 16.514707590621029 $196 38.58502587850052379 $190 $270 forward 7 unknown #
coedge $-1 $122 $121 $200 $271 reversed $40 $-1 #
edge $-1 $272 -5.123424918786840315e-14 $196 26.3158375330817762 $192 $273 forward 7 unknown #
vertex $-1 $124 $274 #
straight-curve $-1 91.90088067059741661 22.07031828787949834 29.33027805617942718 1 0 0 I I #
vertex $-1 $271 $275 #
straight-curve $-1 118.8942269251116386 4.263256414560601115e-14 14.99764550876339975 0 -0.8386705633113421543 -0.5446390421508873203 I I #
coedge $-1 $267 $126 $194 $271 forward $202 $-1 #
coedge $-1 $126 $276 $128 $205 reversed $202 $-1 #
loop $-1 $-1 $267 $187 #
straight-curve $-1 118.8942269251116386 0 81.34761468529463002 0 0 -1 I I #
coedge $-1 $277 $128 $278 $279 forward $118 $-1 #
edge $-1 $130 39.58272449889012989 $280 79.3115024262215087 $201 $281 forward 7 unknown #
point $-1 118.8942269251116386 22.07031828787949479 29.33027805617942718 #
point $-1 118.8942269251116386 0 29.33027805617942718 #
face $-1 $282 $283 $12 $-1 $284 forward single #
loop $-1 $-1 $285 $132 #
plane-surface $-1 90.08629090483503887 -86.39228142593007931 148.0300903424995624 1 0 0 0 0.5446390421508873203 -0.8386705633113421543 forward_v I I I I #
loop $-1 $-1 $286 $74 #
coedge $-1 $213 $135 $287 $288 forward $75 $-1 #
coedge $-1 $135 $212 $289 $290 reversed $75 $-1 #
coedge $-1 $291 $292 $135 $215 forward $283 $-1 #
edge $-1 $293 -38.58502587850052379 $294 -16.514707590621029 $214 $295 forward 7 unknown #
edge $-1 $296 1 $296 0 $136 $-1 forward 7 unknown #
vertex $-1 $137 $297 #
ellipse-curve $-1 95.84787810889035597 13.84553449862190888 17.83636331924068941 0 -0.5446390421508873203 0.8386705633113421543 1.5 0 0 1 I I #
point $-1 97.34787810889035597 11.03515914393970121 22.16396178247142856 #
face $-1 $298 $147 $13 $-1 $299 forward single #
loop $-1 $-1 $300 $140 #
plane-surface $-1 118.8942269251116386 -86.39228142593007931 148.0300903424995624 -1 0 0 0 -0.5446390421508873203 0.8386705633113421543 forward_v I I I I #
loop $-1 $-1 $301 $82 #
coedge $-1 $224 $224 $225 $302 forward $141 $-1 #
coedge $-1 $225 $225 $224 $302 reversed $143 $-1 #
coedge $-1 $226 $226 $144 $227 forward $231 $-1 #
edge $-1 $303 4.113947717127302211e-16 $303 6.283185307179586232 $226 $304 forward 7 unknown #
edge $-1 $305 1 $305 0 $145 $-1 forward 7 unknown #
vertex $-1 $146 $306 #
ellipse-curve $-1 104.4902589149733387 13.84553449862190888 17.83636331924068941 0 -0.5446390421508873203 0.8386705633113421543 1.5 0 0 1 I I #
loop $-1 $307 $226 $220 #
point $-1 105.9902589149733387 11.03515914393970121 22.16396178247142856 #
face $-1 $308 $309 $14 $-1 $310 reversed single #
loop $-1 $311 $312 $150 #
cone-surface $-1 95.84787810889035597 12.44034682128080505 20.00016255085606076 0 0.5446390421508873203 -0.8386705633113421543 1.5 0 0 1 I I 0 1 1.5 forward I I I I #
loop $-1 $-1 $313 $90 #
coedge $-1 $237 $237 $238 $314 forward $151 $-1 #
coedge $-1 $238 $238 $237 $314 reversed $153 $-1 #
coedge $-1 $239 $239 $154 $240 forward $244 $-1 #
edge $-1 $315 4.113947717127302211e-16 $315 6.283185307179586232 $239 $316 forward 7 unknown #
edge $-1 $317 1 $317 0 $155 $-1 forward 7 unknown #
vertex $-1 $156 $318 #
ellipse-curve $-1 113.1326397210563215 13.84553449862190888 17.83636331924068941 0 -0.5446390421508873203 0.8386705633113421543 1.5 0 0 1 I I #
loop $-1 $319 $239 $245 #
face $-1 $320 $157 $14 $-1 $321 forward single #
point $-1 114.6326397210563215 11.03515914393970121 22.16396178247142856 #
plane-surface $-1 158.6230048524430174 53.36286624468802131 14.66513902808971359 -1 0 0 0 0 1 forward_v I I I I #
coedge $-1 $165 $163 $167 $252 reversed $99 $-1 #
edge $-1 $178 -14.66513902808971359 $254 14.66513902808971359 $177 $322 forward 7 unknown #
vertex $-1 $252 $323 #
straight-curve $-1 0 0 14.66513902808971359 0 0 -1 I I #
edge $-1 $250 -53.36286624468802131 $254 53.36286624468802131 $248 $324 forward 7 unknown #
straight-curve $-1 79.3115024262215087 0 0 -1 0 0 I I #
vertex $-1 $170 $325 #
straight-curve $-1 79.3115024262215087 106.7257324893760426 0 1 0 0 I I #
point $-1 158.6230048524430174 106.7257324893760426 0 #
point $-1 158.6230048524430174 0 0 #
straight-curve $-1 0 53.36286624468802131 29.33027805617942718 0 -1 0 I I #
point $-1 0 106.7257324893760426 29.33027805617942718 #
point $-1 0 0 29.33027805617942718 #
straight-curve $-1 158.6230048524430174 0 14.66513902808971359 0 0 -1 I I #
straight-curve $-1 158.6230048524430174 106.7257324893760426 14.66513902808971359 0 0 -1 I I #
face $-1 $326 $327 $11 $-1 $328 reversed single #
plane-surface $-1 79.3115024262215087 0 14.66513902808971359 0 1 0 0 0 1 forward_v I I I I #
coedge $-1 $329 $330 $331 $332 forward $188 $-1 #
coedge $-1 $190 $333 $334 $335 forward $118 $-1 #
coedge $-1 $334 $200 $191 $268 forward $202 $-1 #
edge $-1 $272 -66.34996917653126047 $269 -52.01733662911520639 $267 $336 forward 7 unknown #
vertex $-1 $268 $337 #
straight-curve $-1 90.08629090483503887 -16.514707590621029 29.33027805617942363 0 1 0 I I #
edge $-1 $198 -26.99334625451422198 $272 1.814589765762377738 $200 $338 forward 7 unknown #
vertex $-1 $271 $339 #
straight-curve $-1 90.08629090483503887 4.263256414560601115e-14 14.99764550876339975 0 0.8386705633113421543 0.5446390421508873203 I I #
point $-1 90.08629090483503887 22.07031828787949479 29.33027805617942718 #
point $-1 118.8942269251116386 0 14.99764550876337132 #
coedge $-1 $201 $340 $341 $342 reversed $202 $-1 #
coedge $-1 $333 $204 $343 $344 forward $118 $-1 #
coedge $-1 $341 $345 $204 $279 reversed $346 $-1 #
edge $-1 $280 -53.36286624468802131 $347 53.36286624468802131 $278 $348 forward 7 unknown #
vertex $-1 $279 $349 #
straight-curve $-1 79.3115024262215087 0 29.33027805617942718 1 0 0 I I #
face $-1 $350 $351 $12 $-1 $352 reversed single #
loop $-1 $-1 $353 $208 #
plane-surface $-1 79.3115024262215087 53.36286624468802131 29.33027805617942718 0 0 1 1 0 0 forward_v I I I I #
coedge $-1 $354 $355 $353 $356 reversed $209 $-1 #
coedge $-1 $357 $287 $292 $358 reversed $211 $-1 #
coedge $-1 $286 $359 $212 $288 reversed $211 $-1 #
edge $-1 $293 -26.3158375330817762 $360 5.123424918786840315e-14 $212 $361 forward 7 unknown #
coedge $-1 $362 $363 $213 $290 forward $364 $-1 #
edge $-1 $294 52.01733662911520639 $360 66.34996917653126047 $289 $365 forward 7 unknown #
coedge $-1 $366 $214 $363 $367 forward $283 $-1 #
coedge $-1 $214 $353 $286 $358 forward $283 $-1 #
vertex $-1 $358 $368 #
vertex $-1 $367 $369 #
straight-curve $-1 118.8942269251116386 -16.514707590621029 29.33027805617942363 0 -1 0 I I #
vertex $-1 $216 $370 #
point $-1 97.34787810889035597 13.84553449862190888 17.83636331924068941 #
face $-1 $371 $372 $13 $-1 $373 forward single #
plane-surface $-1 104.4902589149733387 4.263256414560601115e-14 14.99764550876339975 0 -0.5446390421508873203 0.8386705633113421543 1 0 0 forward_v I I I I #
coedge $-1 $374 $375 $376 $377 reversed $221 $-1 #
coedge $-1 $301 $301 $-1 $378 forward $223 $-1 #
edge $-1 $379 0 $379 6.283185307179586232 $224 $380 forward 7 unknown #
vertex $-1 $227 $381 #
ellipse-curve $-1 95.84787810889035597 11.03515914393972963 22.16396178247138593 0 0.5446390421508873203 -0.8386705633113421543 1.5 0 0 1 I I #
vertex $-1 $228 $382 #
point $-1 105.9902589149733387 13.84553449862190888 17.83636331924068941 #
loop $-1 $-1 $383 $220 #
face $-1 $245 $384 $14 $-1 $385 forward single #
loop $-1 $386 $387 $233 #
cone-surface $-1 95.84787810889035597 14.25401378023507704 17.20736039675718132 0 0.5446390421508873203 -0.8386705633113421543 0.75 0 0 1 I I -0.7071067811865475727 0.7071067811865475727 0.75 forward I I I I #
loop $-1 $-1 $388 $150 #
coedge $-1 $312 $312 $389 $390 reversed $234 $-1 #
coedge $-1 $313 $313 $-1 $391 forward $236 $-1 #
edge $-1 $392 0 $392 6.283185307179586232 $237 $393 forward 7 unknown #
vertex $-1 $240 $394 #
ellipse-curve $-1 104.4902589149733387 11.03515914393972963 22.16396178247138593 0 0.5446390421508873203 -0.8386705633113421543 1.5 0 0 1 I I #
vertex $-1 $241 $395 #
point $-1 114.6326397210563215 13.84553449862190888 17.83636331924068941 #
loop $-1 $396 $389 $245 #
face $-1 $397 $398 $14 $-1 $399 forward single #
plane-surface $-1 104.4902589149733387 4.263256414560601115e-14 14.99764550876339975 0 -0.5446390421508873203 0.8386705633113421543 1 0 0 forward_v I I I I #
straight-curve $-1 0 106.7257324893760426 14.66513902808971359 0 0 -1 I I #
point $-1 0 0 0 #
straight-curve $-1 0 53.36286624468802131 0 0 1 0 I I #
point $-1 0 106.7257324893760426 0 #
face $-1 $400 $401 $11 $-1 $402 reversed single #
loop $-1 $-1 $403 $263 #
plane-surface $-1 0 53.36286624468802131 14.66513902808971359 1 0 0 0 0 -1 forward_v I I I I #
coedge $-1 $404 $265 $340 $405 forward $188 $-1 #
coedge $-1 $265 $404 $406 $407 forward $188 $-1 #
coedge $-1 $345 $341 $265 $332 reversed $346 $-1 #
edge $-1 $408 -53.36286624468802131 $409 53.36286624468802131 $331 $410 forward 7 unknown #
coedge $-1 $266 $277 $411 $412 forward $118 $-1 #
coedge $-1 $413 $267 $266 $335 reversed $202 $-1 #
edge $-1 $414 -79.3115024262215087 $269 10.77478847861353017 $334 $281 forward 7 unknown #
straight-curve $-1 90.08629090483503887 0 81.34761468529463002 0 0 1 I I #
point $-1 90.08629090483503887 0 29.33027805617942718 #
straight-curve $-1 91.90088067059741661 0 14.9976455087633731 -1 0 0 I I #
point $-1 90.08629090483503887 0 14.99764550876337132 #
coedge $-1 $276 $413 $329 $405 reversed $202 $-1 #
coedge $-1 $331 $278 $276 $342 forward $346 $-1 #
edge $-1 $280 -14.66513902808971359 $409 14.66513902808971359 $341 $415 forward 7 unknown #
coedge $-1 $416 $417 $277 $344 reversed $401 $-1 #
edge $-1 $347 -79.3115024262215087 $418 79.3115024262215087 $343 $419 forward 7 unknown #
coedge $-1 $278 $331 $416 $420 reversed $346 $-1 #
loop $-1 $-1 $341 $400 #
vertex $-1 $279 $421 #
straight-curve $-1 158.6230048524430174 53.36286624468802131 29.33027805617942718 0 1 0 I I #
point $-1 158.6230048524430174 0 29.33027805617942718 #
face $-1 $422 $364 $12 $-1 $423 reversed single #
loop $-1 $-1 $424 $282 #
plane-surface $-1 79.3115024262215087 53.36286624468802131 0 0 0 1 1 0 0 forward_v I I I I #
coedge $-1 $292 $425 $285 $356 forward $283 $-1 #
coedge $-1 $355 $285 $426 $427 reversed $209 $-1 #
coedge $-1 $285 $354 $357 $428 forward $209 $-1 #
edge $-1 $429 16.514707590621029 $430 38.58502587850052379 $353 $431 forward 7 unknown #
coedge $-1 $359 $286 $355 $428 reversed $211 $-1 #
edge $-1 $430 -1.814589765762377738 $293 26.99334625451422198 $292 $432 forward 7 unknown #
coedge $-1 $287 $357 $362 $433 reversed $211 $-1 #
vertex $-1 $433 $434 #
straight-curve $-1 118.8942269251116386 4.263256414560601115e-14 14.99764550876339975 0 -0.8386705633113421543 -0.5446390421508873203 I I #
coedge $-1 $426 $289 $359 $433 forward $364 $-1 #
coedge $-1 $289 $435 $291 $367 reversed $364 $-1 #
loop $-1 $-1 $426 $350 #
straight-curve $-1 118.8942269251116386 0 81.34761468529463002 0 0 -1 I I #
coedge $-1 $436 $291 $437 $438 forward $283 $-1 #
edge $-1 $294 39.58272449889012989 $439 79.3115024262215087 $363 $440 forward 7 unknown #
point $-1 118.8942269251116386 22.07031828787949479 29.33027805617942718 #
point $-1 118.8942269251116386 0 29.33027805617942718 #
point $-1 95.84787810889035597 14.66249306184824519 16.57835747427367323 #
face $-1 $441 $442 $13 $-1 $443 forward single #
loop $-1 $-1 $444 $298 #
plane-surface $-1 90.08629090483503887 -86.39228142593007931 148.0300903424995624 1 0 0 0 0.5446390421508873203 -0.8386705633113421543 forward_v I I I I #
coedge $-1 $375 $300 $445 $446 forward $221 $-1 #
coedge $-1 $300 $374 $447 $448 reversed $221 $-1 #
coedge $-1 $449 $450 $300 $377 forward $442 $-1 #
edge $-1 $451 -38.58502587850052379 $452 -16.514707590621029 $376 $453 forward 7 unknown #
edge $-1 $454 1 $454 0 $301 $-1 forward 7 unknown #
vertex $-1 $302 $455 #
ellipse-curve $-1 95.84787810889035597 13.84553449862190888 17.83636331924068941 0 -0.5446390421508873203 0.8386705633113421543 1.5 0 0 1 I I #
point $-1 97.34787810889035597 11.03515914393970121 22.16396178247142856 #
point $-1 104.4902589149733387 14.66249306184824519 16.57835747427367323 #
coedge $-1 $456 $445 $450 $457 reversed $307 $-1 #
loop $-1 $-1 $458 $308 #
plane-surface $-1 118.8942269251116386 -86.39228142593007931 148.0300903424995624 -1 0 0 0 -0.5446390421508873203 0.8386705633113421543 forward_v I I I I #
loop $-1 $-1 $459 $233 #
coedge $-1 $387 $387 $388 $460 forward $309 $-1 #
coedge $-1 $388 $388 $387 $460 reversed $311 $-1 #
coedge $-1 $389 $389 $312 $390 forward $319 $-1 #
edge $-1 $461 4.113947717127302211e-16 $461 6.283185307179586232 $389 $462 forward 7 unknown #
edge $-1 $463 1 $463 0 $313 $-1 forward 7 unknown #
vertex $-1 $314 $464 #
ellipse-curve $-1 104.4902589149733387 13.84553449862190888 17.83636331924068941 0 -0.5446390421508873203 0.8386705633113421543 1.5 0 0 1 I I #
point $-1 105.9902589149733387 11.03515914393970121 22.16396178247142856 #
point $-1 113.1326397210563215 14.66249306184824519 16.57835747427367323 #
loop $-1 $-1 $465 $245 #
face $-1 $466 $467 $14 $-1 $468 forward single #
loop $-1 $-1 $469 $320 #
plane-surface $-1 90.08629090483503887 -86.39228142593007931 148.0300903424995624 1 0 0 0 0.5446390421508873203 -0.8386705633113421543 forward_v I I I I #
face $-1 $-1 $346 $11 $-1 $470 reversed single #
loop $-1 $-1 $416 $326 #
plane-surface $-1 79.3115024262215087 106.7257324893760426 14.66513902808971359 0 -1 0 0 0 -1 forward_v I I I I #
coedge $-1 $471 $411 $417 $472 forward $327 $-1 #
coedge $-1 $330 $329 $471 $473 forward $188 $-1 #
edge $-1 $409 -79.3115024262215087 $474 79.3115024262215087 $340 $475 forward 7 unknown #
coedge $-1 $417 $416 $330 $407 reversed $401 $-1 #
edge $-1 $476 -79.3115024262215087 $408 79.3115024262215087 $406 $477 forward 7 unknown #
vertex $-1 $332 $478 #
vertex $-1 $342 $479 #
straight-curve $-1 158.6230048524430174 53.36286624468802131 0 0 -1 0 I I #
coedge $-1 $403 $480 $333 $412 reversed $327 $-1 #
edge $-1 $418 -53.36286624468802131 $414 53.36286624468802131 $411 $481 forward 7 unknown #
coedge $-1 $340 $334 $480 $482 forward $202 $-1 #
vertex $-1 $412 $483 #
straight-curve $-1 158.6230048524430174 0 14.66513902808971359 0 0 -1 I I #
coedge $-1 $406 $343 $345 $420 forward $401 $-1 #
coedge $-1 $343 $406 $403 $472 reversed $401 $-1 #
vertex $-1 $344 $484 #
straight-curve $-1 79.3115024262215087 106.7257324893760426 29.33027805617942718 -1 0 0 I I #
edge $-1 $347 -14.66513902808971359 $408 14.66513902808971359 $345 $485 forward 7 unknown #
point $-1 158.6230048524430174 106.7257324893760426 29.33027805617942718 #
face $-1 $486 $487 $12 $-1 $488 reversed single #
plane-surface $-1 79.3115024262215087 0 14.66513902808971359 0 1 0 0 0 1 forward_v I I I I #
coedge $-1 $489 $490 $491 $492 forward $351 $-1 #
coedge $-1 $353 $493 $494 $495 forward $283 $-1 #
coedge $-1 $494 $362 $354 $427 forward $364 $-1 #
edge $-1 $496 -66.34996917653126047 $429 -52.01733662911520639 $426 $497 forward 7 unknown #
edge $-1 $496 -5.123424918786840315e-14 $430 26.3158375330817762 $355 $498 forward 7 unknown #
vertex $-1 $427 $499 #
vertex $-1 $358 $500 #
straight-curve $-1 90.08629090483503887 -16.514707590621029 29.33027805617942363 0 1 0 I I #
straight-curve $-1 91.90088067059741661 22.07031828787949834 29.33027805617942718 1 0 0 I I #
edge $-1 $360 -26.99334625451422198 $496 1.814589765762377738 $362 $501 forward 7 unknown #
point $-1 118.8942269251116386 0 14.99764550876337132 #
coedge $-1 $363 $502 $503 $504 reversed $364 $-1 #
coedge $-1 $493 $366 $505 $506 forward $283 $-1 #
coedge $-1 $503 $507 $366 $438 reversed $508 $-1 #
edge $-1 $439 -53.36286624468802131 $509 53.36286624468802131 $437 $510 forward 7 unknown #
vertex $-1 $438 $511 #
straight-curve $-1 79.3115024262215087 0 29.33027805617942718 1 0 0 I I #
face $-1 $512 $513 $13 $-1 $514 reversed single #
loop $-1 $-1 $515 $371 #
plane-surface $-1 79.3115024262215087 53.36286624468802131 29.33027805617942718 0 0 1 1 0 0 forward_v I I I I #
coedge $-1 $516 $517 $515 $518 reversed $372 $-1 #
coedge $-1 $383 $519 $374 $446 reversed $307 $-1 #
edge $-1 $451 -26.3158375330817762 $520 5.123424918786840315e-14 $374 $521 forward 7 unknown #
coedge $-1 $522 $523 $375 $448 forward $524 $-1 #
edge $-1 $452 52.01733662911520639 $520 66.34996917653126047 $447 $525 forward 7 unknown #
coedge $-1 $526 $376 $523 $527 forward $442 $-1 #
coedge $-1 $376 $515 $383 $457 forward $442 $-1 #
vertex $-1 $457 $528 #
vertex $-1 $527 $529 #
straight-curve $-1 118.8942269251116386 -16.514707590621029 29.33027805617942363 0 -1 0 I I #
vertex $-1 $378 $530 #
point $-1 97.34787810889035597 13.84553449862190888 17.83636331924068941 #
coedge $-1 $519 $383 $517 $531 reversed $307 $-1 #
edge $-1 $532 -1.814589765762377738 $451 26.99334625451422198 $450 $533 forward 7 unknown #
coedge $-1 $534 $535 $536 $537 reversed $384 $-1 #
coedge $-1 $459 $459 $-1 $538 forward $386 $-1 #
edge $-1 $539 0 $539 6.283185307179586232 $387 $540 forward 7 unknown #
vertex $-1 $390 $541 #
ellipse-curve $-1 95.84787810889035597 11.03515914393972963 22.16396178247138593 0 0.5446390421508873203 -0.8386705633113421543 1.5 0 0 1 I I #
vertex $-1 $391 $542 #
point $-1 105.9902589149733387 13.84553449862190888 17.83636331924068941 #
coedge $-1 $543 $544 $545 $546 reversed $396 $-1 #
face $-1 $547 $548 $14 $-1 $549 reversed single #
loop $-1 $-1 $550 $397 #
plane-surface $-1 79.3115024262215087 53.36286624468802131 29.33027805617942718 0 0 1 1 0 0 forward_v I I I I #
coedge $-1 $551 $552 $550 $553 reversed $398 $-1 #
plane-surface $-1 158.6230048524430174 53.36286624468802131 14.66513902808971359 -1 0 0 0 0 1 forward_v I I I I #
coedge $-1 $480 $403 $404 $473 reversed $327 $-1 #
edge $-1 $418 -14.66513902808971359 $476 14.66513902808971359 $417 $554 forward 7 unknown #
edge $-1 $474 -53.36286624468802131 $476 53.36286624468802131 $471 $555 forward 7 unknown #
vertex $-1 $473 $556 #
straight-curve $-1 79.3115024262215087 0 0 -1 0 0 I I #
vertex $-1 $407 $557 #
straight-curve $-1 79.3115024262215087 106.7257324893760426 0 1 0 0 I I #
point $-1 158.6230048524430174 106.7257324893760426 0 #
point $-1 158.6230048524430174 0 0 #
coedge $-1 $411 $471 $413 $482 reversed $327 $-1 #
straight-curve $-1 0 53.36286624468802131 29.33027805617942718 0 -1 0 I I #
edge $-1 $414 -14.66513902808971359 $474 14.66513902808971359 $480 $558 forward 7 unknown #
point $-1 0 0 29.33027805617942718 #
point $-1 0 106.7257324893760426 29.33027805617942718 #
straight-curve $-1 158.6230048524430174 106.7257324893760426 14.66513902808971359 0 0 -1 I I #
face $-1 $559 $560 $12 $-1 $561 reversed single #
loop $-1 $-1 $562 $422 #
plane-surface $-1 0 53.36286624468802131 14.66513902808971359 1 0 0 0 0 -1 forward_v I I I I #
coedge $-1 $563 $424 $502 $564 forward $351 $-1 #
coedge $-1 $424 $563 $565 $566 forward $351 $-1 #
coedge $-1 $507 $503 $424 $492 reversed $508 $-1 #
edge $-1 $567 -53.36286624468802131 $568 53.36286624468802131 $491 $569 forward 7 unknown #
coedge $-1 $425 $436 $570 $571 forward $283 $-1 #
coedge $-1 $572 $426 $425 $495 reversed $364 $-1 #
edge $-1 $573 -79.3115024262215087 $429 10.77478847861353017 $494 $440 forward 7 unknown #
vertex $-1 $433 $574 #
straight-curve $-1 90.08629090483503887 0 81.34761468529463002 0 0 1 I I #
straight-curve $-1 90.08629090483503887 4.263256414560601115e-14 14.99764550876339975 0 0.8386705633113421543 0.5446390421508873203 I I #
point $-1 90.08629090483503887 0 29.33027805617942718 #
point $-1 90.08629090483503887 22.07031828787949479 29.33027805617942718 #
straight-curve $-1 91.90088067059741661 0 14.9976455087633731 -1 0 0 I I #
coedge $-1 $435 $572 $489 $564 reversed $364 $-1 #
coedge $-1 $491 $437 $435 $504 forward $508 $-1 #
edge $-1 $439 -14.66513902808971359 $568 14.66513902808971359 $503 $575 forward 7 unknown #
coedge $-1 $576 $577 $436 $506 reversed $560 $-1 #
edge $-1 $509 -79.3115024262215087 $578 79.3115024262215087 $505 $579 forward 7 unknown #
coedge $-1 $437 $491 $576 $580 reversed $508 $-1 #
loop $-1 $-1 $503 $559 #
vertex $-1 $438 $581 #
straight-curve $-1 158.6230048524430174 53.36286624468802131 29.33027805617942718 0 1 0 I I #
point $-1 158.6230048524430174 0 29.33027805617942718 #
face $-1 $582 $524 $13 $-1 $583 reversed single #
loop $-1 $-1 $584 $441 #
plane-surface $-1 79.3115024262215087 53.36286624468802131 0 0 0 1 1 0 0 forward_v I I I I #
coedge $-1 $450 $585 $444 $518 forward $442 $-1 #
coedge $-1 $517 $444 $586 $587 reversed $372 $-1 #
coedge $-1 $444 $516 $456 $531 forward $372 $-1 #
edge $-1 $588 16.514707590621029 $532 38.58502587850052379 $515 $589 forward 7 unknown #
coedge $-1 $445 $456 $522 $590 reversed $307 $-1 #
vertex $-1 $590 $591 #
straight-curve $-1 118.8942269251116386 4.263256414560601115e-14 14.99764550876339975 0 -0.8386705633113421543 -0.5446390421508873203 I I #
coedge $-1 $586 $447 $519 $590 forward $524 $-1 #
coedge $-1 $447 $592 $449 $527 reversed $524 $-1 #
loop $-1 $-1 $586 $512 #
straight-curve $-1 118.8942269251116386 0 81.34761468529463002 0 0 -1 I I #
coedge $-1 $593 $449 $594 $595 forward $442 $-1 #
edge $-1 $452 39.58272449889012989 $596 79.3115024262215087 $523 $597 forward 7 unknown #
point $-1 118.8942269251116386 22.07031828787949479 29.33027805617942718 #
point $-1 118.8942269251116386 0 29.33027805617942718 #
point $-1 95.84787810889035597 14.66249306184824519 16.57835747427367323 #
edge $-1 $598 -5.123424918786840315e-14 $532 26.3158375330817762 $517 $599 forward 7 unknown #
vertex $-1 $457 $600 #
straight-curve $-1 91.90088067059741661 22.07031828787949834 29.33027805617942718 1 0 0 I I #
coedge $-1 $535 $458 $544 $601 forward $384 $-1 #
coedge $-1 $458 $534 $602 $603 reversed $384 $-1 #
coedge $-1 $604 $545 $458 $537 forward $467 $-1 #
edge $-1 $605 -38.58502587850052379 $606 -16.514707590621029 $536 $607 forward 7 unknown #
edge $-1 $608 1 $608 0 $459 $-1 forward 7 unknown #
vertex $-1 $460 $609 #
ellipse-curve $-1 95.84787810889035597 13.84553449862190888 17.83636331924068941 0 -0.5446390421508873203 0.8386705633113421543 1.5 0 0 1 I I #
point $-1 97.34787810889035597 11.03515914393970121 22.16396178247142856 #
point $-1 104.4902589149733387 14.66249306184824519 16.57835747427367323 #
coedge $-1 $610 $465 $552 $611 reversed $396 $-1 #
coedge $-1 $465 $610 $534 $601 reversed $396 $-1 #
coedge $-1 $536 $550 $465 $546 forward $467 $-1 #
edge $-1 $612 -1.814589765762377738 $605 26.99334625451422198 $545 $613 forward 7 unknown #
face $-1 $614 $615 $14 $-1 $616 reversed single #
loop $-1 $-1 $617 $466 #
plane-surface $-1 79.3115024262215087 53.36286624468802131 0 0 0 1 1 0 0 forward_v I I I I #
coedge $-1 $545 $618 $469 $553 forward $467 $-1 #
coedge $-1 $552 $469 $619 $620 reversed $398 $-1 #
coedge $-1 $469 $551 $543 $611 forward $398 $-1 #
edge $-1 $621 16.514707590621029 $612 38.58502587850052379 $550 $622 forward 7 unknown #
straight-curve $-1 0 106.7257324893760426 14.66513902808971359 0 0 -1 I I #
straight-curve $-1 0 53.36286624468802131 0 0 1 0 I I #
point $-1 0 0 0 #
point $-1 0 106.7257324893760426 0 #
straight-curve $-1 0 0 14.66513902808971359 0 0 -1 I I #
face $-1 $-1 $508 $12 $-1 $623 reversed single #
loop $-1 $-1 $576 $486 #
plane-surface $-1 79.3115024262215087 106.7257324893760426 14.66513902808971359 0 -1 0 0 0 -1 forward_v I I I I #
coedge $-1 $624 $570 $577 $625 forward $487 $-1 #
coedge $-1 $490 $489 $624 $626 forward $351 $-1 #
edge $-1 $568 -79.3115024262215087 $627 79.3115024262215087 $502 $628 forward 7 unknown #
coedge $-1 $577 $576 $490 $566 reversed $560 $-1 #
edge $-1 $629 -79.3115024262215087 $567 79.3115024262215087 $565 $630 forward 7 unknown #
vertex $-1 $492 $631 #
vertex $-1 $504 $632 #
straight-curve $-1 158.6230048524430174 53.36286624468802131 0 0 -1 0 I I #
coedge $-1 $562 $633 $493 $571 reversed $487 $-1 #
edge $-1 $578 -53.36286624468802131 $573 53.36286624468802131 $570 $634 forward 7 unknown #
coedge $-1 $502 $494 $633 $635 forward $364 $-1 #
vertex $-1 $571 $636 #
point $-1 90.08629090483503887 0 14.99764550876337132 #
straight-curve $-1 158.6230048524430174 0 14.66513902808971359 0 0 -1 I I #
coedge $-1 $565 $505 $507 $580 forward $560 $-1 #
coedge $-1 $505 $565 $562 $625 reversed $560 $-1 #
vertex $-1 $506 $637 #
straight-curve $-1 79.3115024262215087 106.7257324893760426 29.33027805617942718 -1 0 0 I I #
edge $-1 $509 -14.66513902808971359 $567 14.66513902808971359 $507 $638 forward 7 unknown #
point $-1 158.6230048524430174 106.7257324893760426 29.33027805617942718 #
face $-1 $639 $640 $13 $-1 $641 reversed single #
plane-surface $-1 79.3115024262215087 0 14.66513902808971359 0 1 0 0 0 1 forward_v I I I I #
coedge $-1 $642 $643 $644 $645 forward $513 $-1 #
coedge $-1 $515 $646 $647 $648 forward $442 $-1 #
coedge $-1 $647 $522 $516 $587 forward $524 $-1 #
edge $-1 $598 -66.34996917653126047 $588 -52.01733662911520639 $586 $649 forward 7 unknown #
vertex $-1 $587 $650 #
straight-curve $-1 90.08629090483503887 -16.514707590621029 29.33027805617942363 0 1 0 I I #
edge $-1 $520 -26.99334625451422198 $598 1.814589765762377738 $522 $651 forward 7 unknown #
point $-1 118.8942269251116386 0 14.99764550876337132 #
coedge $-1 $523 $652 $653 $654 reversed $524 $-1 #
coedge $-1 $646 $526 $655 $656 forward $442 $-1 #
coedge $-1 $653 $657 $526 $595 reversed $658 $-1 #
edge $-1 $596 -53.36286624468802131 $659 53.36286624468802131 $594 $660 forward 7 unknown #
vertex $-1 $595 $661 #
straight-curve $-1 79.3115024262215087 0 29.33027805617942718 1 0 0 I I #
vertex $-1 $590 $662 #
straight-curve $-1 90.08629090483503887 4.263256414560601115e-14 14.99764550876339975 0 0.8386705633113421543 0.5446390421508873203 I I #
point $-1 90.08629090483503887 22.07031828787949479 29.33027805617942718 #
edge $-1 $605 -26.3158375330817762 $663 5.123424918786840315e-14 $534 $664 forward 7 unknown #
coedge $-1 $665 $666 $535 $603 forward $615 $-1 #
edge $-1 $606 52.01733662911520639 $663 66.34996917653126047 $602 $667 forward 7 unknown #
coedge $-1 $668 $536 $666 $669 forward $467 $-1 #
vertex $-1 $546 $670 #
vertex $-1 $669 $671 #
straight-curve $-1 118.8942269251116386 -16.514707590621029 29.33027805617942363 0 -1 0 I I #
vertex $-1 $538 $672 #
point $-1 97.34787810889035597 13.84553449862190888 17.83636331924068941 #
coedge $-1 $544 $543 $665 $673 reversed $396 $-1 #
edge $-1 $674 -5.123424918786840315e-14 $612 26.3158375330817762 $552 $675 forward 7 unknown #
vertex $-1 $546 $676 #
straight-curve $-1 91.90088067059741661 22.07031828787949834 29.33027805617942718 1 0 0 I I #
face $-1 $677 $678 $14 $-1 $679 reversed single #
loop $-1 $-1 $619 $547 #
plane-surface $-1 79.3115024262215087 0 14.66513902808971359 0 1 0 0 0 1 forward_v I I I I #
coedge $-1 $680 $681 $682 $683 forward $548 $-1 #
coedge $-1 $550 $684 $685 $686 forward $467 $-1 #
coedge $-1 $685 $665 $551 $620 forward $615 $-1 #
edge $-1 $674 -66.34996917653126047 $621 -52.01733662911520639 $619 $687 forward 7 unknown #
vertex $-1 $620 $688 #
straight-curve $-1 90.08629090483503887 -16.514707590621029 29.33027805617942363 0 1 0 I I #
plane-surface $-1 158.6230048524430174 53.36286624468802131 14.66513902808971359 -1 0 0 0 0 1 forward_v I I I I #
coedge $-1 $633 $562 $563 $626 reversed $487 $-1 #
edge $-1 $578 -14.66513902808971359 $629 14.66513902808971359 $577 $689 forward 7 unknown #
edge $-1 $627 -53.36286624468802131 $629 53.36286624468802131 $624 $690 forward 7 unknown #
vertex $-1 $626 $691 #
straight-curve $-1 79.3115024262215087 0 0 -1 0 0 I I #
vertex $-1 $566 $692 #
straight-curve $-1 79.3115024262215087 106.7257324893760426 0 1 0 0 I I #
point $-1 158.6230048524430174 106.7257324893760426 0 #
point $-1 158.6230048524430174 0 0 #
coedge $-1 $570 $624 $572 $635 reversed $487 $-1 #
straight-curve $-1 0 53.36286624468802131 29.33027805617942718 0 -1 0 I I #
edge $-1 $573 -14.66513902808971359 $627 14.66513902808971359 $633 $693 forward 7 unknown #
point $-1 0 0 29.33027805617942718 #
point $-1 0 106.7257324893760426 29.33027805617942718 #
straight-curve $-1 158.6230048524430174 106.7257324893760426 14.66513902808971359 0 0 -1 I I #
face $-1 $694 $695 $13 $-1 $696 reversed single #
loop $-1 $-1 $697 $582 #
plane-surface $-1 0 53.36286624468802131 14.66513902808971359 1 0 0 0 0 -1 forward_v I I I I #
coedge $-1 $698 $584 $652 $699 forward $513 $-1 #
coedge $-1 $584 $698 $700 $701 forward $513 $-1 #
coedge $-1 $657 $653 $584 $645 reversed $658 $-1 #
edge $-1 $702 -53.36286624468802131 $703 53.36286624468802131 $644 $704 forward 7 unknown #
coedge $-1 $585 $593 $705 $706 forward $442 $-1 #
coedge $-1 $707 $586 $585 $648 reversed $524 $-1 #
edge $-1 $708 -79.3115024262215087 $588 10.77478847861353017 $647 $597 forward 7 unknown #
straight-curve $-1 90.08629090483503887 0 81.34761468529463002 0 0 1 I I #
point $-1 90.08629090483503887 0 29.33027805617942718 #
straight-curve $-1 91.90088067059741661 0 14.9976455087633731 -1 0 0 I I #
coedge $-1 $592 $707 $642 $699 reversed $524 $-1 #
coedge $-1 $644 $594 $592 $654 forward $658 $-1 #
edge $-1 $596 -14.66513902808971359 $703 14.66513902808971359 $653 $709 forward 7 unknown #
coedge $-1 $710 $711 $593 $656 reversed $695 $-1 #
edge $-1 $659 -79.3115024262215087 $712 79.3115024262215087 $655 $713 forward 7 unknown #
coedge $-1 $594 $644 $710 $714 reversed $658 $-1 #
loop $-1 $-1 $653 $694 #
vertex $-1 $595 $715 #
straight-curve $-1 158.6230048524430174 53.36286624468802131 29.33027805617942718 0 1 0 I I #
point $-1 158.6230048524430174 0 29.33027805617942718 #
point $-1 90.08629090483503887 0 14.99764550876337132 #
vertex $-1 $673 $716 #
straight-curve $-1 118.8942269251116386 4.263256414560601115e-14 14.99764550876339975 0 -0.8386705633113421543 -0.5446390421508873203 I I #
coedge $-1 $619 $602 $610 $673 forward $615 $-1 #
coedge $-1 $602 $717 $604 $669 reversed $615 $-1 #
straight-curve $-1 118.8942269251116386 0 81.34761468529463002 0 0 -1 I I #
coedge $-1 $718 $604 $719 $720 forward $467 $-1 #
edge $-1 $606 39.58272449889012989 $721 79.3115024262215087 $666 $722 forward 7 unknown #
point $-1 118.8942269251116386 22.07031828787949479 29.33027805617942718 #
point $-1 118.8942269251116386 0 29.33027805617942718 #
point $-1 95.84787810889035597 14.66249306184824519 16.57835747427367323 #
edge $-1 $663 -26.99334625451422198 $674 1.814589765762377738 $665 $723 forward 7 unknown #
vertex $-1 $673 $724 #
straight-curve $-1 90.08629090483503887 4.263256414560601115e-14 14.99764550876339975 0 0.8386705633113421543 0.5446390421508873203 I I #
point $-1 90.08629090483503887 22.07031828787949479 29.33027805617942718 #
face $-1 $725 $726 $14 $-1 $727 reversed single #
loop $-1 $-1 $728 $614 #
plane-surface $-1 0 53.36286624468802131 14.66513902808971359 1 0 0 0 0 -1 forward_v I I I I #
coedge $-1 $729 $617 $730 $731 forward $548 $-1 #
coedge $-1 $617 $729 $732 $733 forward $548 $-1 #
coedge $-1 $734 $735 $617 $683 reversed $736 $-1 #
edge $-1 $737 -53.36286624468802131 $738 53.36286624468802131 $682 $739 forward 7 unknown #
coedge $-1 $618 $718 $740 $741 forward $467 $-1 #
coedge $-1 $742 $619 $618 $686 reversed $615 $-1 #
edge $-1 $743 -79.3115024262215087 $621 10.77478847861353017 $685 $722 forward 7 unknown #
straight-curve $-1 90.08629090483503887 0 81.34761468529463002 0 0 1 I I #
point $-1 90.08629090483503887 0 29.33027805617942718 #
straight-curve $-1 0 106.7257324893760426 14.66513902808971359 0 0 -1 I I #
straight-curve $-1 0 53.36286624468802131 0 0 1 0 I I #
point $-1 0 0 0 #
point $-1 0 106.7257324893760426 0 #
straight-curve $-1 0 0 14.66513902808971359 0 0 -1 I I #
face $-1 $-1 $658 $13 $-1 $744 reversed single #
loop $-1 $-1 $710 $639 #
plane-surface $-1 79.3115024262215087 106.7257324893760426 14.66513902808971359 0 -1 0 0 0 -1 forward_v I I I I #
coedge $-1 $745 $705 $711 $746 forward $640 $-1 #
coedge $-1 $643 $642 $745 $747 forward $513 $-1 #
edge $-1 $703 -79.3115024262215087 $748 79.3115024262215087 $652 $749 forward 7 unknown #
coedge $-1 $711 $710 $643 $701 reversed $695 $-1 #
edge $-1 $750 -79.3115024262215087 $702 79.3115024262215087 $700 $751 forward 7 unknown #
vertex $-1 $645 $752 #
vertex $-1 $654 $753 #
straight-curve $-1 158.6230048524430174 53.36286624468802131 0 0 -1 0 I I #
coedge $-1 $697 $754 $646 $706 reversed $640 $-1 #
edge $-1 $712 -53.36286624468802131 $708 53.36286624468802131 $705 $755 forward 7 unknown #
coedge $-1 $652 $647 $754 $756 forward $524 $-1 #
vertex $-1 $706 $757 #
straight-curve $-1 158.6230048524430174 0 14.66513902808971359 0 0 -1 I I #
coedge $-1 $700 $655 $657 $714 forward $695 $-1 #
coedge $-1 $655 $700 $697 $746 reversed $695 $-1 #
vertex $-1 $656 $758 #
straight-curve $-1 79.3115024262215087 106.7257324893760426 29.33027805617942718 -1 0 0 I I #
edge $-1 $659 -14.66513902808971359 $702 14.66513902808971359 $657 $759 forward 7 unknown #
point $-1 158.6230048524430174 106.7257324893760426 29.33027805617942718 #
point $-1 118.8942269251116386 0 14.99764550876337132 #
coedge $-1 $666 $730 $735 $760 reversed $615 $-1 #
coedge $-1 $684 $668 $761 $762 forward $467 $-1 #
coedge $-1 $735 $734 $668 $720 reversed $736 $-1 #
edge $-1 $721 -53.36286624468802131 $763 53.36286624468802131 $719 $764 forward 7 unknown #
vertex $-1 $720 $765 #
straight-curve $-1 79.3115024262215087 0 29.33027805617942718 1 0 0 I I #
straight-curve $-1 91.90088067059741661 0 14.9976455087633731 -1 0 0 I I #
point $-1 90.08629090483503887 0 14.99764550876337132 #
face $-1 $-1 $736 $14 $-1 $766 reversed single #
loop $-1 $-1 $767 $677 #
plane-surface $-1 79.3115024262215087 106.7257324893760426 14.66513902808971359 0 -1 0 0 0 -1 forward_v I I I I #
coedge $-1 $768 $740 $769 $770 forward $678 $-1 #
coedge $-1 $681 $680 $768 $771 forward $548 $-1 #
coedge $-1 $717 $742 $680 $731 reversed $615 $-1 #
edge $-1 $738 -79.3115024262215087 $772 79.3115024262215087 $730 $773 forward 7 unknown #
coedge $-1 $769 $767 $681 $733 reversed $726 $-1 #
edge $-1 $774 -79.3115024262215087 $737 79.3115024262215087 $732 $775 forward 7 unknown #
coedge $-1 $719 $682 $767 $776 reversed $736 $-1 #
coedge $-1 $682 $719 $717 $760 forward $736 $-1 #
loop $-1 $-1 $735 $725 #
vertex $-1 $683 $777 #
vertex $-1 $760 $778 #
straight-curve $-1 158.6230048524430174 53.36286624468802131 0 0 -1 0 I I #
coedge $-1 $728 $779 $684 $741 reversed $678 $-1 #
edge $-1 $780 -53.36286624468802131 $743 53.36286624468802131 $740 $781 forward 7 unknown #
coedge $-1 $730 $685 $779 $782 forward $615 $-1 #
vertex $-1 $741 $783 #
plane-surface $-1 158.6230048524430174 53.36286624468802131 14.66513902808971359 -1 0 0 0 0 1 forward_v I I I I #
coedge $-1 $754 $697 $698 $747 reversed $640 $-1 #
edge $-1 $712 -14.66513902808971359 $750 14.66513902808971359 $711 $784 forward 7 unknown #
edge $-1 $748 -53.36286624468802131 $750 53.36286624468802131 $745 $785 forward 7 unknown #
vertex $-1 $747 $786 #
straight-curve $-1 79.3115024262215087 0 0 -1 0 0 I I #
vertex $-1 $701 $787 #
straight-curve $-1 79.3115024262215087 106.7257324893760426 0 1 0 0 I I #
point $-1 158.6230048524430174 106.7257324893760426 0 #
point $-1 158.6230048524430174 0 0 #
coedge $-1 $705 $745 $707 $756 reversed $640 $-1 #
straight-curve $-1 0 53.36286624468802131 29.33027805617942718 0 -1 0 I I #
edge $-1 $708 -14.66513902808971359 $748 14.66513902808971359 $754 $788 forward 7 unknown #
point $-1 0 0 29.33027805617942718 #
point $-1 0 106.7257324893760426 29.33027805617942718 #
straight-curve $-1 158.6230048524430174 106.7257324893760426 14.66513902808971359 0 0 -1 I I #
edge $-1 $721 -14.66513902808971359 $738 14.66513902808971359 $735 $789 forward 7 unknown #
coedge $-1 $767 $769 $718 $762 reversed $726 $-1 #
edge $-1 $763 -79.3115024262215087 $780 79.3115024262215087 $761 $790 forward 7 unknown #
vertex $-1 $720 $791 #
straight-curve $-1 158.6230048524430174 53.36286624468802131 29.33027805617942718 0 1 0 I I #
point $-1 158.6230048524430174 0 29.33027805617942718 #
plane-surface $-1 158.6230048524430174 53.36286624468802131 14.66513902808971359 -1 0 0 0 0 1 forward_v I I I I #
coedge $-1 $732 $761 $734 $776 forward $726 $-1 #
coedge $-1 $779 $728 $729 $771 reversed $678 $-1 #
coedge $-1 $761 $732 $728 $770 reversed $726 $-1 #
edge $-1 $780 -14.66513902808971359 $774 14.66513902808971359 $769 $792 forward 7 unknown #
edge $-1 $772 -53.36286624468802131 $774 53.36286624468802131 $768 $793 forward 7 unknown #
vertex $-1 $771 $794 #
straight-curve $-1 79.3115024262215087 0 0 -1 0 0 I I #
vertex $-1 $733 $795 #
straight-curve $-1 79.3115024262215087 106.7257324893760426 0 1 0 0 I I #
edge $-1 $763 -14.66513902808971359 $737 14.66513902808971359 $734 $796 forward 7 unknown #
point $-1 158.6230048524430174 106.7257324893760426 0 #
point $-1 158.6230048524430174 0 0 #
coedge $-1 $740 $768 $742 $782 reversed $678 $-1 #
vertex $-1 $762 $797 #
straight-curve $-1 0 53.36286624468802131 29.33027805617942718 0 -1 0 I I #
edge $-1 $743 -14.66513902808971359 $772 14.66513902808971359 $779 $798 forward 7 unknown #
point $-1 0 0 29.33027805617942718 #
straight-curve $-1 0 106.7257324893760426 14.66513902808971359 0 0 -1 I I #
straight-curve $-1 0 53.36286624468802131 0 0 1 0 I I #
point $-1 0 0 0 #
point $-1 0 106.7257324893760426 0 #
straight-curve $-1 0 0 14.66513902808971359 0 0 -1 I I #
straight-curve $-1 158.6230048524430174 0 14.66513902808971359 0 0 -1 I I #
straight-curve $-1 79.3115024262215087 106.7257324893760426 29.33027805617942718 -1 0 0 I I #
point $-1 158.6230048524430174 106.7257324893760426 29.33027805617942718 #
straight-curve $-1 0 106.7257324893760426 14.66513902808971359 0 0 -1 I I #
straight-curve $-1 0 53.36286624468802131 0 0 1 0 I I #
point $-1 0 0 0 #
point $-1 0 106.7257324893760426 0 #
straight-curve $-1 158.6230048524430174 106.7257324893760426 14.66513902808971359 0 0 -1 I I #
point $-1 0 106.7257324893760426 29.33027805617942718 #
straight-curve $-1 0 0 14.66513902808971359 0 0 -1 I I #
End-of-ACIS-data 