600 0 9 0           
95 GICL ACIS Healer - Source: /gicl/data5/repository/Drexel/SM99-DATA/part104.smdg.delta.sat - 6 0 18 ACIS 6.0.3 Solaris 24 Sat Apr 13 20:43:19 2002 
1 9.999999999999999547e-07 1.000000000000000036e-10 
body $-1 $9 $-1 $-1 #
body $-1 $10 $-1 $-1 #
body $-1 $11 $-1 $-1 #
body $-1 $12 $-1 $-1 #
body $-1 $13 $-1 $-1 #
body $-1 $14 $-1 $-1 #
body $-1 $15 $-1 $-1 #
body $-1 $16 $-1 $-1 #
body $-1 $17 $-1 $-1 #
lump $-1 $-1 $18 $0 #
lump $-1 $-1 $19 $1 #
lump $-1 $-1 $20 $2 #
lump $-1 $-1 $21 $3 #
lump $-1 $-1 $22 $4 #
lump $-1 $-1 $23 $5 #
lump $-1 $-1 $24 $6 #
lump $-1 $-1 $25 $7 #
lump $-1 $-1 $26 $8 #
shell $-1 $-1 $-1 $27 $-1 $9 #
shell $-1 $-1 $-1 $28 $-1 $10 #
shell $-1 $-1 $-1 $29 $-1 $11 #
shell $-1 $-1 $-1 $30 $-1 $12 #
shell $-1 $-1 $-1 $31 $-1 $13 #
shell $-1 $-1 $-1 $32 $-1 $14 #
shell $-1 $-1 $-1 $33 $-1 $15 #
shell $-1 $-1 $-1 $34 $-1 $16 #
shell $-1 $-1 $-1 $35 $-1 $17 #
face $-1 $36 $37 $18 $-1 $38 forward single #
face $-1 $39 $40 $19 $-1 $41 forward single #
face $-1 $42 $43 $20 $-1 $44 reversed single #
face $-1 $45 $46 $21 $-1 $47 forward single #
face $-1 $48 $49 $22 $-1 $50 forward single #
face $-1 $51 $52 $23 $-1 $53 forward single #
face $-1 $54 $55 $24 $-1 $56 reversed single #
face $-1 $57 $58 $25 $-1 $59 forward single #
face $-1 $60 $61 $26 $-1 $62 forward single #
face $-1 $63 $64 $18 $-1 $65 reversed single #
loop $-1 $-1 $66 $27 #
plane-surface $-1 68.35901974547562077 44.05669664555663445 42.90065710040909153 0 0 1 1 0 0 forward_v I I I I #
face $-1 $67 $68 $19 $-1 $69 reversed single #
loop $-1 $-1 $70 $28 #
plane-surface $-1 68.35901974547562077 11.01378500188531007 5.904650210795464815 0 0 1 1 0 0 forward_v I I I I #
face $-1 $71 $72 $20 $-1 $73 reversed single #
loop $-1 $-1 $74 $29 #
plane-surface $-1 113.1547859369361078 32.0066967179477686 220.7412665031465053 0 -1 0 -0.6156614830463592591 0 -0.788010747574649173 forward_v I I I I #
face $-1 $75 $76 $21 $-1 $77 forward single #
loop $-1 $78 $79 $30 #
cone-surface $-1 127.4079275770028232 24.0233953466060477 35.47329869879315112 -0.6156614830463592591 0 -0.788010747574649173 0.1970026868936622932 0 -0.1539153707615898148 1 I I 0 1 0.25 forward I I I I #
face $-1 $80 $81 $22 $-1 $82 forward single #
loop $-1 $83 $84 $31 #
cone-surface $-1 127.4079275770028232 27.01713336085919437 35.47329869879315112 -0.6156614830463592591 0 -0.788010747574649173 0.1970026868936622932 0 -0.1539153707615898148 1 I I 0 1 0.25 forward I I I I #
face $-1 $85 $86 $23 $-1 $87 forward single #
loop $-1 $88 $89 $32 #
cone-surface $-1 127.4079275770028232 30.01087137511234104 35.47329869879315112 -0.6156614830463592591 0 -0.788010747574649173 0.1970026868936622932 0 -0.1539153707615898148 1 I I 0 1 0.25 forward I I I I #
face $-1 $90 $91 $24 $-1 $92 reversed single #
loop $-1 $-1 $93 $33 #
plane-surface $-1 -109.1878823258826401 70.84863078350991827 118.653077423192542 0 1 0 -0.7986355182712320255 0 0.6018150122385121925 forward_v I I I I #
face $-1 $94 $95 $25 $-1 $96 forward single #
loop $-1 $97 $98 $34 #
cone-surface $-1 4.268066290369887383 75.78142007139658176 38.27419398856406474 0.7986355182712320255 0 -0.6018150122385121925 0.9027225183577682888 0 1.197953277406847983 1 I I 0 1 1.5 forward I I I I #
face $-1 $99 $100 $26 $-1 $101 forward single #
loop $-1 $102 $103 $35 #
cone-surface $-1 4.268066290369887383 83.1806040032265912 38.27419398856406474 0.7986355182712320255 0 -0.6018150122385121925 0.9027225183577682888 0 1.197953277406847983 1 I I 0 1 1.5 forward I I I I #
face $-1 $104 $105 $18 $-1 $106 reversed single #
loop $-1 $-1 $107 $36 #
plane-surface $-1 68.35901974547562077 44.05669664555663445 0 0 0 1 1 0 0 forward_v I I I I #
coedge $-1 $108 $109 $110 $111 forward $37 $-1 #
face $-1 $112 $113 $19 $-1 $114 reversed single #
loop $-1 $-1 $115 $39 #
plane-surface $-1 68.35901974547562077 22.02757000377062013 2.952325105397733296 0 -1 0 0 0 -1 forward_v I I I I #
coedge $-1 $116 $117 $118 $119 reversed $40 $-1 #
face $-1 $120 $121 $20 $-1 $122 reversed single #
loop $-1 $-1 $123 $42 #
plane-surface $-1 28.98275498474635015 27.01713336085919082 113.0059819969416139 0.6156614830463592591 0 0.788010747574649173 0.788010747574649173 0 -0.6156614830463592591 forward_v I I I I #
coedge $-1 $124 $125 $126 $127 reversed $43 $-1 #
face $-1 $-1 $128 $21 $-1 $129 forward single #
loop $-1 $130 $131 $45 #
cone-surface $-1 127.0231391500988423 24.0233953466060477 34.98079198155899405 -0.6156614830463592591 0 -0.788010747574649173 0.09850134344683114662 0 -0.07695768538079490739 1 I I -0.7071067811865474617 0.7071067811865474617 0.125 forward I I I I #
loop $-1 $-1 $132 $30 #
coedge $-1 $79 $79 $133 $134 reversed $46 $-1 #
face $-1 $-1 $135 $22 $-1 $136 forward single #
loop $-1 $137 $138 $48 #
cone-surface $-1 127.0231391500988423 27.01713336085919437 34.98079198155899405 -0.6156614830463592591 0 -0.788010747574649173 0.09850134344683114662 0 -0.07695768538079490739 1 I I -0.7071067811865474617 0.7071067811865474617 0.125 forward I I I I #
loop $-1 $-1 $139 $31 #
coedge $-1 $84 $84 $140 $141 reversed $49 $-1 #
face $-1 $-1 $142 $23 $-1 $143 forward single #
loop $-1 $144 $145 $51 #
cone-surface $-1 127.0231391500988423 30.01087137511234104 34.98079198155899405 -0.6156614830463592591 0 -0.788010747574649173 0.09850134344683114662 0 -0.07695768538079490739 1 I I -0.7071067811865474617 0.7071067811865474617 0.125 forward I I I I #
loop $-1 $-1 $146 $32 #
coedge $-1 $89 $89 $147 $148 reversed $52 $-1 #
face $-1 $149 $150 $24 $-1 $151 reversed single #
loop $-1 $-1 $152 $54 #
plane-surface $-1 -2.842170943040400743e-14 79.48101203731158648 36.37410881372032634 -0.7986355182712320255 0 0.6018150122385121925 0.6018150122385121925 0 0.7986355182712320255 forward_v I I I I #
coedge $-1 $153 $154 $155 $156 reversed $55 $-1 #
face $-1 $-1 $157 $25 $-1 $158 forward single #
loop $-1 $159 $160 $57 #
cone-surface $-1 6.676055842045755639 75.78142007139658176 36.45964376088453207 0.7986355182712320255 0 -0.6018150122385121925 0.4513612591788841444 0 0.5989766387034239914 1 I I -0.7071067811865475727 0.7071067811865475727 0.75 forward I I I I #
loop $-1 $-1 $161 $34 #
coedge $-1 $98 $98 $162 $163 reversed $58 $-1 #
face $-1 $-1 $164 $26 $-1 $165 forward single #
loop $-1 $166 $167 $60 #
cone-surface $-1 6.676055842045755639 83.1806040032265912 36.45964376088453207 0.7986355182712320255 0 -0.6018150122385121925 0.4513612591788841444 0 0.5989766387034239914 1 I I -0.7071067811865475727 0.7071067811865475727 0.75 forward I I I I #
loop $-1 $-1 $168 $35 #
coedge $-1 $103 $103 $169 $170 reversed $61 $-1 #
face $-1 $171 $172 $18 $-1 $173 reversed single #
loop $-1 $-1 $174 $63 #
plane-surface $-1 68.35901974547562077 0 21.45032855020454576 0 1 0 0 0 1 forward_v I I I I #
coedge $-1 $175 $176 $177 $178 forward $64 $-1 #
coedge $-1 $179 $66 $180 $181 forward $37 $-1 #
coedge $-1 $66 $179 $182 $183 forward $37 $-1 #
coedge $-1 $184 $185 $66 $111 reversed $186 $-1 #
edge $-1 $187 -44.05669664555663445 $188 44.05669664555663445 $110 $189 forward 7 unknown #
face $-1 $190 $191 $19 $-1 $192 reversed single #
loop $-1 $-1 $193 $67 #
plane-surface $-1 68.35901974547562077 44.05669664555663445 0 0 0 1 1 0 0 forward_v I I I I #
coedge $-1 $194 $195 $196 $197 reversed $68 $-1 #
coedge $-1 $198 $70 $195 $199 forward $40 $-1 #
coedge $-1 $70 $198 $200 $201 reversed $40 $-1 #
coedge $-1 $202 $196 $70 $119 forward $191 $-1 #
edge $-1 $203 5.507670819950352126 $204 27.53524082372097226 $118 $205 forward 7 unknown #
face $-1 $206 $207 $20 $-1 $208 reversed single #
loop $-1 $-1 $209 $71 #
plane-surface $-1 113.1547859369361078 22.02757000377061303 220.7412665031465053 0 1 0 0.6156614830463592591 0 0.788010747574649173 forward_v I I I I #
coedge $-1 $210 $211 $212 $213 reversed $72 $-1 #
coedge $-1 $125 $74 $214 $215 reversed $43 $-1 #
coedge $-1 $74 $124 $210 $216 reversed $43 $-1 #
coedge $-1 $212 $217 $74 $127 forward $218 $-1 #
edge $-1 $219 -45.96113664974538437 $220 -27.95657430489488604 $126 $221 forward 7 unknown #
loop $-1 $-1 $133 $75 #
plane-surface $-1 28.98275498474635015 27.01713336085919082 113.0059819969416139 0.6156614830463592591 0 0.788010747574649173 0.788010747574649173 0 -0.6156614830463592591 forward_v I I I I #
loop $-1 $-1 $222 $45 #
coedge $-1 $131 $131 $132 $223 reversed $76 $-1 #
coedge $-1 $132 $132 $131 $223 forward $78 $-1 #
coedge $-1 $133 $133 $79 $134 forward $128 $-1 #
edge $-1 $224 0 $224 6.283185307179586232 $133 $225 forward 7 unknown #
loop $-1 $-1 $140 $80 #
plane-surface $-1 28.98275498474635015 27.01713336085919082 113.0059819969416139 0.6156614830463592591 0 0.788010747574649173 0.788010747574649173 0 -0.6156614830463592591 forward_v I I I I #
loop $-1 $-1 $226 $48 #
coedge $-1 $138 $138 $139 $227 reversed $81 $-1 #
coedge $-1 $139 $139 $138 $227 forward $83 $-1 #
coedge $-1 $140 $140 $84 $141 forward $135 $-1 #
edge $-1 $228 0 $228 6.283185307179586232 $140 $229 forward 7 unknown #
loop $-1 $-1 $147 $85 #
plane-surface $-1 28.98275498474635015 27.01713336085919082 113.0059819969416139 0.6156614830463592591 0 0.788010747574649173 0.788010747574649173 0 -0.6156614830463592591 forward_v I I I I #
loop $-1 $-1 $230 $51 #
coedge $-1 $145 $145 $146 $231 reversed $86 $-1 #
coedge $-1 $146 $146 $145 $231 forward $88 $-1 #
coedge $-1 $147 $147 $89 $148 forward $142 $-1 #
edge $-1 $232 0 $232 6.283185307179586232 $147 $233 forward 7 unknown #
face $-1 $234 $235 $24 $-1 $236 reversed single #
loop $-1 $-1 $237 $90 #
plane-surface $-1 68.35901974547562077 88.1133932911132689 21.45032855020454576 0 -1 0 0 0 -1 forward_v I I I I #
coedge $-1 $238 $239 $240 $241 reversed $91 $-1 #
coedge $-1 $154 $93 $242 $243 reversed $55 $-1 #
coedge $-1 $93 $153 $238 $244 reversed $55 $-1 #
coedge $-1 $240 $245 $93 $156 forward $246 $-1 #
edge $-1 $247 20.41443129020350966 $248 25.33253804499834416 $155 $249 forward 7 unknown #
loop $-1 $-1 $162 $94 #
plane-surface $-1 -2.842170943040400743e-14 79.48101203731158648 36.37410881372032634 -0.7986355182712320255 0 0.6018150122385121925 0.6018150122385121925 0 0.7986355182712320255 forward_v I I I I #
loop $-1 $-1 $250 $57 #
coedge $-1 $160 $160 $161 $251 reversed $95 $-1 #
coedge $-1 $161 $161 $160 $251 forward $97 $-1 #
coedge $-1 $162 $162 $98 $163 forward $157 $-1 #
edge $-1 $252 0 $252 6.283185307179586232 $162 $253 forward 7 unknown #
loop $-1 $-1 $169 $99 #
plane-surface $-1 -2.842170943040400743e-14 79.48101203731158648 36.37410881372032634 -0.7986355182712320255 0 0.6018150122385121925 0.6018150122385121925 0 0.7986355182712320255 forward_v I I I I #
loop $-1 $-1 $254 $60 #
coedge $-1 $167 $167 $168 $255 reversed $100 $-1 #
coedge $-1 $168 $168 $167 $255 forward $102 $-1 #
coedge $-1 $169 $169 $103 $170 forward $164 $-1 #
edge $-1 $256 0 $256 6.283185307179586232 $169 $257 forward 7 unknown #
face $-1 $258 $259 $18 $-1 $260 reversed single #
loop $-1 $-1 $261 $104 #
plane-surface $-1 0 44.05669664555663445 21.45032855020454576 1 0 0 0 0 -1 forward_v I I I I #
coedge $-1 $262 $182 $263 $264 forward $105 $-1 #
coedge $-1 $265 $107 $262 $266 forward $64 $-1 #
coedge $-1 $107 $265 $267 $268 forward $64 $-1 #
coedge $-1 $185 $184 $107 $178 reversed $186 $-1 #
edge $-1 $269 -44.05669664555663445 $270 44.05669664555663445 $177 $271 forward 7 unknown #
coedge $-1 $109 $108 $272 $273 forward $37 $-1 #
coedge $-1 $274 $275 $108 $181 reversed $259 $-1 #
edge $-1 $188 -68.35901974547562077 $276 68.35901974547562077 $180 $277 forward 7 unknown #
coedge $-1 $174 $278 $109 $183 reversed $105 $-1 #
edge $-1 $279 -68.35901974547562077 $187 68.35901974547562077 $182 $280 forward 7 unknown #
coedge $-1 $177 $110 $278 $281 forward $186 $-1 #
coedge $-1 $110 $177 $274 $282 reversed $186 $-1 #
loop $-1 $-1 $184 $258 #
vertex $-1 $111 $283 #
vertex $-1 $111 $284 #
straight-curve $-1 136.7180394909512415 44.05669664555663445 42.90065710040909153 0 1 0 I I #
face $-1 $285 $286 $19 $-1 $287 reversed single #
loop $-1 $-1 $196 $112 #
plane-surface $-1 136.7180394909512415 44.05669664555663445 21.45032855020454576 -1 0 0 0 0 1 forward_v I I I I #
coedge $-1 $288 $289 $194 $290 forward $113 $-1 #
coedge $-1 $291 $115 $193 $290 reversed $68 $-1 #
coedge $-1 $115 $291 $116 $199 reversed $68 $-1 #
coedge $-1 $118 $292 $115 $197 forward $191 $-1 #
edge $-1 $293 -12.20132682780113953 $203 -6.296676617005674714 $196 $294 forward 7 unknown #
coedge $-1 $117 $116 $295 $296 reversed $40 $-1 #
edge $-1 $203 -68.35901974547562077 $297 68.35901974547562077 $195 $298 forward 7 unknown #
coedge $-1 $299 $300 $117 $201 forward $286 $-1 #
edge $-1 $204 -68.35901974547562077 $301 68.35901974547562077 $200 $302 forward 7 unknown #
coedge $-1 $292 $118 $300 $303 forward $191 $-1 #
vertex $-1 $119 $304 #
vertex $-1 $303 $305 #
straight-curve $-1 136.7180394909512415 27.53524082372097226 5.904650210795464815 0 -1 0 I I #
face $-1 $-1 $218 $20 $-1 $306 forward single #
loop $-1 $-1 $307 $120 #
plane-surface $-1 136.7180394909512415 44.05669664555663445 21.45032855020454576 -1 0 0 0 0 1 forward_v I I I I #
coedge $-1 $308 $309 $310 $311 reversed $121 $-1 #
coedge $-1 $312 $123 $125 $216 forward $72 $-1 #
coedge $-1 $123 $312 $308 $313 forward $72 $-1 #
coedge $-1 $310 $126 $123 $213 forward $218 $-1 #
edge $-1 $220 3.530218285260140476 $314 13.50934499943729605 $212 $315 forward 7 unknown #
coedge $-1 $316 $317 $124 $215 forward $207 $-1 #
edge $-1 $318 -92.26184648192366922 $219 -78.19514042626643402 $214 $319 forward 7 unknown #
edge $-1 $220 113.8699217460280835 $318 136.7180394909512415 $125 $320 forward 7 unknown #
coedge $-1 $126 $310 $316 $321 forward $218 $-1 #
loop $-1 $-1 $310 $206 #
vertex $-1 $215 $322 #
vertex $-1 $127 $323 #
straight-curve $-1 90.75690284120585716 32.0066967179477686 42.90065710040909153 -1 0 0 I I #
coedge $-1 $222 $222 $-1 $324 reversed $130 $-1 #
edge $-1 $325 0 $325 6.283185307179586232 $131 $326 forward 7 unknown #
vertex $-1 $134 $327 #
ellipse-curve $-1 127.7157583185259853 24.0233953466060477 35.86730407258047393 0.6156614830463592591 0 0.788010747574649173 0.1970026868936622932 0 -0.1539153707615898148 1 I I #
coedge $-1 $226 $226 $-1 $328 reversed $137 $-1 #
edge $-1 $329 0 $329 6.283185307179586232 $138 $330 forward 7 unknown #
vertex $-1 $141 $331 #
ellipse-curve $-1 127.7157583185259853 27.01713336085919437 35.86730407258047393 0.6156614830463592591 0 0.788010747574649173 0.1970026868936622932 0 -0.1539153707615898148 1 I I #
coedge $-1 $230 $230 $-1 $332 reversed $144 $-1 #
edge $-1 $333 0 $333 6.283185307179586232 $145 $334 forward 7 unknown #
vertex $-1 $148 $335 #
ellipse-curve $-1 127.7157583185259853 30.01087137511234104 35.86730407258047393 0.6156614830463592591 0 0.788010747574649173 0.1970026868936622932 0 -0.1539153707615898148 1 I I #
face $-1 $-1 $246 $24 $-1 $336 forward single #
loop $-1 $-1 $337 $149 #
plane-surface $-1 0 44.05669664555663445 21.45032855020454576 1 0 0 0 0 -1 forward_v I I I I #
coedge $-1 $338 $339 $239 $340 forward $150 $-1 #
coedge $-1 $341 $152 $154 $244 forward $91 $-1 #
coedge $-1 $152 $341 $237 $340 reversed $91 $-1 #
coedge $-1 $342 $155 $152 $241 forward $246 $-1 #
edge $-1 $248 9.07977644207581136 $343 26.34453894967914778 $240 $344 forward 7 unknown #
coedge $-1 $345 $337 $153 $243 forward $235 $-1 #
edge $-1 $346 -33.67759417297818203 $247 -27.15104588628945237 $242 $347 forward 7 unknown #
edge $-1 $248 -8.172123750289083333 $346 -4.547784471007935682e-14 $154 $348 forward 7 unknown #
coedge $-1 $155 $342 $345 $349 forward $246 $-1 #
loop $-1 $-1 $240 $234 #
vertex $-1 $243 $350 #
vertex $-1 $156 $351 #
straight-curve $-1 -20.41443129020350966 70.84863078350991827 42.90065710040909153 1 0 0 I I #
coedge $-1 $250 $250 $-1 $352 reversed $159 $-1 #
edge $-1 $353 0 $353 6.283185307179586232 $160 $354 forward 7 unknown #
vertex $-1 $163 $355 #
ellipse-curve $-1 2.459053377397410145 75.78142007139658176 39.63738295706473025 -0.7986355182712320255 0 0.6018150122385121925 0.9027225183577682888 0 1.197953277406847983 1 I I #
coedge $-1 $254 $254 $-1 $356 reversed $166 $-1 #
edge $-1 $357 0 $357 6.283185307179586232 $167 $358 forward 7 unknown #
vertex $-1 $170 $359 #
ellipse-curve $-1 2.459053377397410145 83.1806040032265912 39.63738295706473025 -0.7986355182712320255 0 0.6018150122385121925 0.9027225183577682888 0 1.197953277406847983 1 I I #
face $-1 $-1 $186 $18 $-1 $360 reversed single #
loop $-1 $-1 $274 $171 #
plane-surface $-1 68.35901974547562077 88.1133932911132689 21.45032855020454576 0 -1 0 0 0 -1 forward_v I I I I #
coedge $-1 $361 $272 $275 $362 forward $172 $-1 #
coedge $-1 $278 $174 $175 $266 reversed $105 $-1 #
coedge $-1 $272 $361 $174 $264 reversed $172 $-1 #
edge $-1 $279 -21.45032855020454576 $363 21.45032855020454576 $263 $364 forward 7 unknown #
coedge $-1 $176 $175 $361 $365 forward $64 $-1 #
edge $-1 $270 -68.35901974547562077 $363 68.35901974547562077 $262 $366 forward 7 unknown #
coedge $-1 $275 $274 $176 $268 reversed $259 $-1 #
edge $-1 $367 -68.35901974547562077 $269 68.35901974547562077 $267 $368 forward 7 unknown #
vertex $-1 $178 $369 #
vertex $-1 $281 $370 #
straight-curve $-1 136.7180394909512415 44.05669664555663445 0 0 -1 0 I I #
coedge $-1 $261 $263 $179 $273 reversed $172 $-1 #
edge $-1 $276 -44.05669664555663445 $279 44.05669664555663445 $272 $371 forward 7 unknown #
coedge $-1 $267 $180 $185 $282 forward $259 $-1 #
coedge $-1 $180 $267 $261 $362 reversed $259 $-1 #
vertex $-1 $181 $372 #
straight-curve $-1 68.35901974547562077 88.1133932911132689 42.90065710040909153 -1 0 0 I I #
coedge $-1 $182 $262 $184 $281 reversed $105 $-1 #
vertex $-1 $273 $373 #
straight-curve $-1 68.35901974547562077 0 42.90065710040909153 1 0 0 I I #
edge $-1 $187 -21.45032855020454576 $270 21.45032855020454576 $184 $374 forward 7 unknown #
edge $-1 $188 -21.45032855020454576 $269 21.45032855020454576 $185 $375 forward 7 unknown #
point $-1 136.7180394909512415 0 42.90065710040909153 #
point $-1 136.7180394909512415 88.1133932911132689 42.90065710040909153 #
face $-1 $-1 $376 $19 $-1 $377 reversed single #
loop $-1 $-1 $200 $190 #
plane-surface $-1 68.35901974547562077 0 21.45032855020454576 0 1 0 0 0 1 forward_v I I I I #
coedge $-1 $378 $193 $292 $379 forward $113 $-1 #
coedge $-1 $193 $378 $380 $381 forward $113 $-1 #
edge $-1 $382 -68.35901974547562077 $293 68.35901974547562077 $193 $383 forward 7 unknown #
coedge $-1 $195 $194 $384 $385 reversed $68 $-1 #
coedge $-1 $196 $202 $288 $379 reversed $191 $-1 #
vertex $-1 $379 $386 #
straight-curve $-1 136.7180394909512415 22.02757000377062013 12.20132682780113953 0 0 1 I I #
coedge $-1 $384 $387 $198 $296 forward $376 $-1 #
edge $-1 $301 -27.53524082372097226 $297 -5.507670819950352126 $295 $388 forward 7 unknown #
vertex $-1 $296 $389 #
straight-curve $-1 68.35901974547562077 22.02757000377062013 5.904650210795464815 -1 0 0 I I #
coedge $-1 $390 $200 $387 $391 forward $286 $-1 #
coedge $-1 $200 $390 $202 $303 reversed $286 $-1 #
vertex $-1 $391 $392 #
straight-curve $-1 68.35901974547562077 0 5.904650210795464815 -1 0 0 I I #
edge $-1 $204 15.54567833940908095 $393 21.45032855020454576 $202 $394 forward 7 unknown #
point $-1 136.7180394909512415 22.02757000377062013 5.904650210795464815 #
point $-1 136.7180394909512415 0 5.904650210795464815 #
plane-surface $-1 68.35901974547562077 44.05669664555663445 42.90065710040909153 0 0 1 1 0 0 forward_v I I I I #
coedge $-1 $317 $316 $309 $395 forward $207 $-1 #
coedge $-1 $309 $209 $211 $313 reversed $121 $-1 #
coedge $-1 $209 $308 $307 $395 reversed $121 $-1 #
coedge $-1 $217 $212 $209 $311 forward $218 $-1 #
edge $-1 $314 27.95657430489488604 $396 45.96113664974538437 $310 $397 forward 7 unknown #
coedge $-1 $211 $210 $317 $398 reversed $72 $-1 #
edge $-1 $399 -136.7180394909512415 $314 -113.8699217460280835 $308 $400 forward 7 unknown #
vertex $-1 $213 $401 #
straight-curve $-1 118.7134771461007432 35.53691500320790908 42.90065710040908442 0 -1 0 I I #
coedge $-1 $307 $214 $217 $321 reversed $207 $-1 #
coedge $-1 $214 $307 $312 $398 forward $207 $-1 #
vertex $-1 $215 $402 #
straight-curve $-1 136.7180394909512415 32.0066967179477686 121.0957975266755255 0 0 1 I I #
straight-curve $-1 28.98275498474635015 32.0066967179477686 113.0059819969416139 0.788010747574649173 0 -0.6156614830463592591 I I #
edge $-1 $396 -22.02912664178602142 $219 -12.04999992760886585 $316 $403 forward 7 unknown #
point $-1 136.7180394909512415 32.0066967179477686 42.90065710040909153 #
point $-1 118.7134771461007432 32.0066967179477686 42.90065710040909153 #
edge $-1 $404 1 $404 0 $222 $-1 forward 7 unknown #
vertex $-1 $223 $405 #
ellipse-curve $-1 127.1000968354796328 24.0233953466060477 35.0792933250058212 0.6156614830463592591 0 0.788010747574649173 0.1970026868936622932 0 -0.1539153707615898148 1 I I #
point $-1 127.912761005419668 24.0233953466060477 35.71338870181888581 #
edge $-1 $406 1 $406 0 $226 $-1 forward 7 unknown #
vertex $-1 $227 $407 #
ellipse-curve $-1 127.1000968354796328 27.01713336085919437 35.0792933250058212 0.6156614830463592591 0 0.788010747574649173 0.1970026868936622932 0 -0.1539153707615898148 1 I I #
point $-1 127.912761005419668 27.01713336085919437 35.71338870181888581 #
edge $-1 $408 1 $408 0 $230 $-1 forward 7 unknown #
vertex $-1 $231 $409 #
ellipse-curve $-1 127.1000968354796328 30.01087137511234104 35.0792933250058212 0.6156614830463592591 0 0.788010747574649173 0.1970026868936622932 0 -0.1539153707615898148 1 I I #
point $-1 127.912761005419668 30.01087137511234104 35.71338870181888581 #
plane-surface $-1 68.35901974547562077 44.05669664555663445 42.90065710040909153 0 0 1 1 0 0 forward_v I I I I #
coedge $-1 $242 $410 $341 $411 forward $235 $-1 #
coedge $-1 $339 $237 $410 $412 reversed $150 $-1 #
coedge $-1 $237 $338 $342 $413 reversed $150 $-1 #
edge $-1 $343 6.438287909419521782 $414 14.61041165970856071 $237 $415 forward 7 unknown #
coedge $-1 $239 $238 $337 $411 reversed $91 $-1 #
coedge $-1 $245 $240 $339 $413 forward $246 $-1 #
vertex $-1 $413 $416 #
straight-curve $-1 4.918106754794834501 61.76885434143410691 42.90065710040909153 0 1 0 I I #
coedge $-1 $410 $242 $245 $349 reversed $235 $-1 #
vertex $-1 $243 $417 #
straight-curve $-1 0 70.84863078350991827 70.0517029866985439 0 0 1 I I #
straight-curve $-1 -2.842170943040400743e-14 70.84863078350991827 36.37410881372032634 -0.6018150122385121925 0 -0.7986355182712320255 I I #
edge $-1 $418 -44.05669664555663445 $247 -26.79193413795328382 $345 $419 forward 7 unknown #
point $-1 0 70.84863078350991827 42.90065710040909153 #
point $-1 4.918106754794834501 70.84863078350991827 42.90065710040909153 #
edge $-1 $420 1 $420 0 $250 $-1 forward 7 unknown #
vertex $-1 $251 $421 #
ellipse-curve $-1 6.077079203342329095 75.78142007139658176 36.91100502006341344 -0.7986355182712320255 0 0.6018150122385121925 0.9027225183577682888 0 1.197953277406847983 1 I I #
point $-1 3.361775895755201304 75.78142007139658176 40.83533623447155492 #
edge $-1 $422 1 $422 0 $254 $-1 forward 7 unknown #
vertex $-1 $255 $423 #
ellipse-curve $-1 6.077079203342329095 83.1806040032265912 36.91100502006341344 -0.7986355182712320255 0 0.6018150122385121925 0.9027225183577682888 0 1.197953277406847983 1 I I #
point $-1 3.361775895755201304 83.1806040032265912 40.83533623447155492 #
plane-surface $-1 136.7180394909512415 44.05669664555663445 21.45032855020454576 -1 0 0 0 0 1 forward_v I I I I #
coedge $-1 $263 $261 $265 $365 reversed $172 $-1 #
edge $-1 $276 -21.45032855020454576 $367 21.45032855020454576 $275 $424 forward 7 unknown #
vertex $-1 $365 $425 #
straight-curve $-1 0 0 21.45032855020454576 0 0 -1 I I #
edge $-1 $363 -44.05669664555663445 $367 44.05669664555663445 $361 $426 forward 7 unknown #
straight-curve $-1 68.35901974547562077 0 0 -1 0 0 I I #
vertex $-1 $268 $427 #
straight-curve $-1 68.35901974547562077 88.1133932911132689 0 1 0 0 I I #
point $-1 136.7180394909512415 88.1133932911132689 0 #
point $-1 136.7180394909512415 0 0 #
straight-curve $-1 0 44.05669664555663445 42.90065710040909153 0 -1 0 I I #
point $-1 0 88.1133932911132689 42.90065710040909153 #
point $-1 0 0 42.90065710040909153 #
straight-curve $-1 136.7180394909512415 0 21.45032855020454576 0 0 -1 I I #
straight-curve $-1 136.7180394909512415 88.1133932911132689 21.45032855020454576 0 0 -1 I I #
loop $-1 $-1 $384 $285 #
plane-surface $-1 0 44.05669664555663445 21.45032855020454576 1 0 0 0 0 -1 forward_v I I I I #
coedge $-1 $289 $288 $390 $428 forward $113 $-1 #
edge $-1 $293 22.02912664178601432 $393 44.05669664555663445 $292 $429 forward 7 unknown #
coedge $-1 $387 $384 $289 $381 reversed $376 $-1 #
edge $-1 $430 -44.05669664555663445 $382 -22.02912664178601432 $380 $431 forward 7 unknown #
vertex $-1 $385 $432 #
straight-curve $-1 68.35901974547562077 22.02757000377062013 0 1 0 0 I I #
coedge $-1 $380 $295 $291 $385 forward $376 $-1 #
edge $-1 $297 6.296676617005674714 $382 12.20132682780113953 $384 $433 forward 7 unknown #
point $-1 136.7180394909512415 22.02757000377062013 0 #
coedge $-1 $295 $380 $299 $391 reversed $376 $-1 #
straight-curve $-1 0 27.53524082372097226 5.904650210795464815 0 1 0 I I #
point $-1 0 22.02757000377062013 5.904650210795464815 #
coedge $-1 $300 $299 $378 $428 reversed $286 $-1 #
edge $-1 $301 15.54567833940908095 $430 21.45032855020454576 $387 $434 forward 7 unknown #
point $-1 0 0 5.904650210795464815 #
vertex $-1 $303 $435 #
straight-curve $-1 136.7180394909512415 0 21.45032855020454576 0 0 -1 I I #
edge $-1 $396 78.19514042626643402 $399 92.26184648192366922 $307 $436 forward 7 unknown #
vertex $-1 $321 $437 #
straight-curve $-1 90.75690284120585716 22.02757000377061303 42.90065710040909153 1 0 0 I I #
edge $-1 $399 -13.50934499943729605 $318 -3.530218285260140476 $317 $438 forward 7 unknown #
vertex $-1 $398 $439 #
straight-curve $-1 28.98275498474635015 22.02757000377061303 113.0059819969416139 -0.788010747574649173 0 0.6156614830463592591 I I #
point $-1 118.7134771461007432 22.02757000377061303 42.90065710040909153 #
point $-1 136.7180394909512415 32.0066967179477686 28.83395104475185633 #
straight-curve $-1 136.7180394909512415 44.05669664555663445 42.90065710040909153 0 1 0 I I #
vertex $-1 $324 $440 #
point $-1 127.2970995223733013 24.0233953466060477 34.92537795424423308 #
vertex $-1 $328 $441 #
point $-1 127.2970995223733013 27.01713336085919437 34.92537795424423308 #
vertex $-1 $332 $442 #
point $-1 127.2970995223733013 30.01087137511234104 34.92537795424423308 #
coedge $-1 $337 $345 $338 $412 forward $235 $-1 #
edge $-1 $414 -26.34453894967914778 $346 -9.07977644207581136 $337 $443 forward 7 unknown #
edge $-1 $418 -21.45032855020454576 $414 -14.9237802635158161 $338 $444 forward 7 unknown #
edge $-1 $343 63.44091299068078627 $418 68.35901974547562077 $339 $445 forward 7 unknown #
vertex $-1 $340 $446 #
straight-curve $-1 8.792765071797205678 88.1133932911132689 48.04250250172776049 -0.6018150122385121925 0 -0.7986355182712320255 I I #
point $-1 4.918106754794834501 88.11339329111325469 42.90065710040909153 #
point $-1 0 70.84863078350991827 36.37410881372036187 #
vertex $-1 $413 $447 #
straight-curve $-1 0 44.05669664555663445 42.90065710040909153 0 -1 0 I I #
vertex $-1 $352 $448 #
point $-1 6.979801721700098938 75.78142007139658176 38.10895829747026653 #
vertex $-1 $356 $449 #
point $-1 6.979801721700098938 83.1806040032265912 38.10895829747026653 #
straight-curve $-1 0 88.1133932911132689 21.45032855020454576 0 0 -1 I I #
point $-1 0 0 0 #
straight-curve $-1 0 44.05669664555663445 0 0 1 0 I I #
point $-1 0 88.1133932911132689 0 #
edge $-1 $393 -68.35901974547562077 $430 68.35901974547562077 $390 $450 forward 7 unknown #
straight-curve $-1 136.7180394909512415 44.05669664555663445 0 0 -1 0 I I #
vertex $-1 $381 $451 #
straight-curve $-1 0 44.05669664555663445 0 0 1 0 I I #
point $-1 0 22.02757000377062013 0 #
straight-curve $-1 0 22.02757000377062013 12.20132682780113953 0 0 -1 I I #
straight-curve $-1 0 0 21.45032855020454576 0 0 -1 I I #
point $-1 136.7180394909512415 0 0 #
straight-curve $-1 136.7180394909512415 22.02757000377061303 121.0957975266755255 0 0 -1 I I #
point $-1 136.7180394909512415 22.02757000377061303 42.90065710040909153 #
straight-curve $-1 136.7180394909512415 35.53691500320790908 28.83395104475186344 0 1 0 I I #
point $-1 136.7180394909512415 22.02757000377061303 28.83395104475185633 #
point $-1 126.9461814647180518 24.0233953466060477 34.8822906381121669 #
point $-1 126.9461814647180518 27.01713336085919437 34.8822906381121669 #
point $-1 126.9461814647180518 30.01087137511234104 34.8822906381121669 #
straight-curve $-1 0 61.76885434143410691 36.37410881372036897 0 -1 0 I I #
straight-curve $-1 0 88.1133932911132689 21.45032855020454576 0 0 -1 I I #
straight-curve $-1 68.35901974547562077 88.1133932911132689 42.90065710040909153 -1 0 0 I I #
point $-1 0 88.11339329111325469 36.37410881372036187 #
point $-1 0 88.1133932911132689 42.90065710040909153 #
point $-1 7.275032480749182184 75.78142007139658176 36.0082825017056507 #
point $-1 7.275032480749182184 83.1806040032265912 36.0082825017056507 #
straight-curve $-1 68.35901974547562077 0 0 -1 0 0 I I #
point $-1 0 0 0 #
End-of-ACIS-data 