600 0 10 0           
95 GICL ACIS Healer - Source: /gicl/data5/repository/Drexel/SM99-DATA/part95.smdg.deltas.sat - 6 0 18 ACIS 6.0.3 Solaris 24 Sat Apr 13 20:47:08 2002 
1 9.999999999999999547e-07 1.000000000000000036e-10 
body $-1 $10 $-1 $-1 #
body $-1 $11 $-1 $-1 #
body $-1 $12 $-1 $-1 #
body $-1 $13 $-1 $-1 #
body $-1 $14 $-1 $-1 #
body $-1 $15 $-1 $-1 #
body $-1 $16 $-1 $-1 #
body $-1 $17 $-1 $-1 #
body $-1 $18 $-1 $-1 #
body $-1 $19 $-1 $-1 #
lump $-1 $-1 $20 $0 #
lump $-1 $-1 $21 $1 #
lump $-1 $-1 $22 $2 #
lump $-1 $-1 $23 $3 #
lump $-1 $-1 $24 $4 #
lump $-1 $-1 $25 $5 #
lump $-1 $-1 $26 $6 #
lump $-1 $-1 $27 $7 #
lump $-1 $-1 $28 $8 #
lump $-1 $-1 $29 $9 #
shell $-1 $-1 $-1 $30 $-1 $10 #
shell $-1 $-1 $-1 $31 $-1 $11 #
shell $-1 $-1 $-1 $32 $-1 $12 #
shell $-1 $-1 $-1 $33 $-1 $13 #
shell $-1 $-1 $-1 $34 $-1 $14 #
shell $-1 $-1 $-1 $35 $-1 $15 #
shell $-1 $-1 $-1 $36 $-1 $16 #
shell $-1 $-1 $-1 $37 $-1 $17 #
shell $-1 $-1 $-1 $38 $-1 $18 #
shell $-1 $-1 $-1 $39 $-1 $19 #
face $-1 $40 $41 $20 $-1 $42 forward single #
face $-1 $43 $44 $21 $-1 $45 forward single #
face $-1 $46 $47 $22 $-1 $48 reversed single #
face $-1 $49 $50 $23 $-1 $51 forward single #
face $-1 $52 $53 $24 $-1 $54 forward single #
face $-1 $55 $56 $25 $-1 $57 forward single #
face $-1 $58 $59 $26 $-1 $60 reversed single #
face $-1 $61 $62 $27 $-1 $63 forward single #
face $-1 $64 $65 $28 $-1 $66 forward single #
face $-1 $67 $68 $29 $-1 $69 forward single #
face $-1 $70 $71 $20 $-1 $72 reversed single #
loop $-1 $-1 $73 $30 #
plane-surface $-1 70.26215399639880843 39.61908897105205085 26.9473162657564842 0 0 1 1 0 0 forward_v I I I I #
face $-1 $74 $75 $21 $-1 $76 reversed single #
loop $-1 $-1 $77 $31 #
plane-surface $-1 70.26215399639880843 5.492105989536348432 9.988283151969774565 0 0 1 1 0 0 forward_v I I I I #
face $-1 $78 $79 $22 $-1 $80 reversed single #
loop $-1 $-1 $81 $32 #
plane-surface $-1 -107.6478664254968294 10.98421197907270397 113.5515722516182535 0 1 0 -0.7660444514056184984 0 0.6427875998109056077 forward_v I I I I #
face $-1 $82 $83 $23 $-1 $84 forward single #
loop $-1 $85 $86 $33 #
cone-surface $-1 2.055726386864563437 13.39162915556471845 24.67151321180916668 0.7660444514056186094 0 -0.6427875998109057187 0.6427875998109056077 0 0.7660444514056184984 1 I I 0 1 0.999999999999999889 forward I I I I #
face $-1 $87 $88 $24 $-1 $89 forward single #
loop $-1 $90 $91 $34 #
cone-surface $-1 2.055726386864563437 17.00275492030274549 24.67151321180916668 0.7660444514056186094 0 -0.6427875998109057187 0.6427875998109056077 0 0.7660444514056184984 1 I I 0 1 0.999999999999999889 forward I I I I #
face $-1 $92 $93 $25 $-1 $94 forward single #
loop $-1 $95 $96 $35 #
cone-surface $-1 2.055726386864563437 20.61388068504077253 24.67151321180916668 0.7660444514056186094 0 -0.6427875998109057187 0.6427875998109056077 0 0.7660444514056184984 1 I I 0 1 0.999999999999999889 forward I I I I #
face $-1 $97 $98 $26 $-1 $99 reversed single #
loop $-1 $-1 $100 $36 #
plane-surface $-1 157.8448917685155948 23.02129786153278701 221.1994386771150971 0 -1 0 -0.7660444514056184984 0 -0.6427875998109056077 forward_v I I I I #
face $-1 $101 $102 $27 $-1 $103 forward single #
loop $-1 $104 $105 $37 #
cone-surface $-1 138.4685816059330818 13.39162915556471845 24.67151321180914891 -0.7660444514056186094 0 -0.6427875998109057187 0.6427875998109056077 0 -0.7660444514056184984 1 I I 0 1 0.999999999999999889 forward I I I I #
face $-1 $106 $107 $28 $-1 $108 forward single #
loop $-1 $109 $110 $38 #
cone-surface $-1 138.4685816059330818 17.00275492030274549 24.67151321180914891 -0.7660444514056186094 0 -0.6427875998109057187 0.6427875998109056077 0 -0.7660444514056184984 1 I I 0 1 0.999999999999999889 forward I I I I #
face $-1 $111 $112 $29 $-1 $113 forward single #
loop $-1 $114 $115 $39 #
cone-surface $-1 138.4685816059330818 20.61388068504077253 24.67151321180914891 -0.7660444514056186094 0 -0.6427875998109057187 0.6427875998109056077 0 -0.7660444514056184984 1 I I 0 1 0.999999999999999889 forward I I I I #
face $-1 $116 $117 $20 $-1 $118 reversed single #
loop $-1 $-1 $119 $40 #
plane-surface $-1 70.26215399639880843 39.61908897105205085 0 0 0 1 1 0 0 forward_v I I I I #
coedge $-1 $120 $121 $122 $123 forward $41 $-1 #
face $-1 $124 $125 $21 $-1 $126 reversed single #
loop $-1 $-1 $127 $43 #
plane-surface $-1 70.26215399639880843 5.492105989536348432 6.785642271396774561 0 0 1 1 0 0 forward_v I I I I #
coedge $-1 $128 $129 $130 $131 reversed $44 $-1 #
face $-1 $132 $133 $22 $-1 $134 reversed single #
loop $-1 $-1 $135 $46 #
plane-surface $-1 -1.421085471520200372e-14 17.00275492030274549 23.22428960183941626 -0.7660444514056186094 0 0.6427875998109057187 0.6427875998109056077 0 0.7660444514056184984 forward_v I I I I #
coedge $-1 $136 $137 $138 $139 reversed $47 $-1 #
face $-1 $-1 $140 $23 $-1 $141 forward single #
loop $-1 $142 $143 $49 #
cone-surface $-1 2.932479890048838911 13.39162915556471845 23.93582968991492876 0.7660444514056186094 0 -0.6427875998109057187 0.3213937999054528039 0 0.3830222257028092492 1 I I -0.7071067811865474617 0.7071067811865474617 0.4999999999999999445 forward I I I I #
loop $-1 $-1 $144 $33 #
coedge $-1 $86 $86 $145 $146 reversed $50 $-1 #
face $-1 $-1 $147 $24 $-1 $148 forward single #
loop $-1 $149 $150 $52 #
cone-surface $-1 2.932479890048838911 17.00275492030274549 23.93582968991492876 0.7660444514056186094 0 -0.6427875998109057187 0.3213937999054528039 0 0.3830222257028092492 1 I I -0.7071067811865474617 0.7071067811865474617 0.4999999999999999445 forward I I I I #
loop $-1 $-1 $151 $34 #
coedge $-1 $91 $91 $152 $153 reversed $53 $-1 #
face $-1 $-1 $154 $25 $-1 $155 forward single #
loop $-1 $156 $157 $55 #
cone-surface $-1 2.932479890048838911 20.61388068504077253 23.93582968991492876 0.7660444514056186094 0 -0.6427875998109057187 0.3213937999054528039 0 0.3830222257028092492 1 I I -0.7071067811865474617 0.7071067811865474617 0.4999999999999999445 forward I I I I #
loop $-1 $-1 $158 $35 #
coedge $-1 $96 $96 $159 $160 reversed $56 $-1 #
face $-1 $161 $162 $26 $-1 $163 reversed single #
loop $-1 $-1 $164 $58 #
plane-surface $-1 50.19702534301877961 17.00275492030274549 130.8721560273362456 0.7660444514056186094 0 0.6427875998109057187 0.6427875998109056077 0 -0.7660444514056184984 forward_v I I I I #
coedge $-1 $165 $166 $167 $168 reversed $59 $-1 #
face $-1 $-1 $169 $27 $-1 $170 forward single #
loop $-1 $171 $172 $61 #
cone-surface $-1 137.5918281027487922 13.39162915556471845 23.935829689914911 -0.7660444514056186094 0 -0.6427875998109057187 0.3213937999054528039 0 -0.3830222257028092492 1 I I -0.7071067811865474617 0.7071067811865474617 0.4999999999999999445 forward I I I I #
loop $-1 $-1 $173 $37 #
coedge $-1 $105 $105 $174 $175 reversed $62 $-1 #
face $-1 $-1 $176 $28 $-1 $177 forward single #
loop $-1 $178 $179 $64 #
cone-surface $-1 137.5918281027487922 17.00275492030274549 23.935829689914911 -0.7660444514056186094 0 -0.6427875998109057187 0.3213937999054528039 0 -0.3830222257028092492 1 I I -0.7071067811865474617 0.7071067811865474617 0.4999999999999999445 forward I I I I #
loop $-1 $-1 $180 $38 #
coedge $-1 $110 $110 $181 $182 reversed $65 $-1 #
face $-1 $-1 $183 $29 $-1 $184 forward single #
loop $-1 $185 $186 $67 #
cone-surface $-1 137.5918281027487922 20.61388068504077253 23.935829689914911 -0.7660444514056186094 0 -0.6427875998109057187 0.3213937999054528039 0 -0.3830222257028092492 1 I I -0.7071067811865474617 0.7071067811865474617 0.4999999999999999445 forward I I I I #
loop $-1 $-1 $187 $39 #
coedge $-1 $115 $115 $188 $189 reversed $68 $-1 #
face $-1 $190 $191 $20 $-1 $192 reversed single #
loop $-1 $-1 $193 $70 #
plane-surface $-1 70.26215399639880843 0 13.4736581328782421 0 1 0 0 0 1 forward_v I I I I #
coedge $-1 $194 $195 $196 $197 forward $71 $-1 #
coedge $-1 $198 $73 $199 $200 forward $41 $-1 #
coedge $-1 $73 $198 $201 $202 forward $41 $-1 #
coedge $-1 $203 $204 $73 $123 reversed $205 $-1 #
edge $-1 $206 -39.61908897105205085 $207 39.61908897105205085 $122 $208 forward 7 unknown #
face $-1 $209 $210 $21 $-1 $211 reversed single #
loop $-1 $-1 $212 $74 #
plane-surface $-1 70.26215399639880843 10.98421197907270042 8.386962711683274563 0 -1 0 0 0 -1 forward_v I I I I #
coedge $-1 $213 $214 $215 $216 reversed $75 $-1 #
coedge $-1 $217 $77 $218 $219 forward $44 $-1 #
coedge $-1 $77 $217 $220 $221 reversed $44 $-1 #
coedge $-1 $222 $223 $77 $131 forward $224 $-1 #
edge $-1 $225 11.57138550122149923 $226 22.55559748029419964 $130 $227 forward 7 unknown #
face $-1 $228 $229 $22 $-1 $230 reversed single #
loop $-1 $-1 $231 $78 #
plane-surface $-1 -107.6478664254968294 23.02129786153278701 113.5515722516182535 0 -1 0 0.7660444514056184984 0 -0.6427875998109056077 forward_v I I I I #
coedge $-1 $232 $233 $234 $235 reversed $79 $-1 #
coedge $-1 $137 $81 $236 $237 reversed $47 $-1 #
coedge $-1 $81 $136 $232 $238 reversed $47 $-1 #
coedge $-1 $234 $239 $81 $139 forward $240 $-1 #
edge $-1 $241 18.69285621454901047 $242 21.81684643331517748 $138 $243 forward 7 unknown #
loop $-1 $-1 $145 $82 #
plane-surface $-1 -1.421085471520200372e-14 17.00275492030274549 23.22428960183941626 -0.7660444514056186094 0 0.6427875998109057187 0.6427875998109056077 0 0.7660444514056184984 forward_v I I I I #
loop $-1 $-1 $244 $49 #
coedge $-1 $143 $143 $144 $245 reversed $83 $-1 #
coedge $-1 $144 $144 $143 $245 forward $85 $-1 #
coedge $-1 $145 $145 $86 $146 forward $140 $-1 #
edge $-1 $246 0 $246 6.283185307179586232 $145 $247 forward 7 unknown #
loop $-1 $-1 $152 $87 #
plane-surface $-1 -1.421085471520200372e-14 17.00275492030274549 23.22428960183941626 -0.7660444514056186094 0 0.6427875998109057187 0.6427875998109056077 0 0.7660444514056184984 forward_v I I I I #
loop $-1 $-1 $248 $52 #
coedge $-1 $150 $150 $151 $249 reversed $88 $-1 #
coedge $-1 $151 $151 $150 $249 forward $90 $-1 #
coedge $-1 $152 $152 $91 $153 forward $147 $-1 #
edge $-1 $250 0 $250 6.283185307179586232 $152 $251 forward 7 unknown #
loop $-1 $-1 $159 $92 #
plane-surface $-1 -1.421085471520200372e-14 17.00275492030274549 23.22428960183941626 -0.7660444514056186094 0 0.6427875998109057187 0.6427875998109056077 0 0.7660444514056184984 forward_v I I I I #
loop $-1 $-1 $252 $55 #
coedge $-1 $157 $157 $158 $253 reversed $93 $-1 #
coedge $-1 $158 $158 $157 $253 forward $95 $-1 #
coedge $-1 $159 $159 $96 $160 forward $154 $-1 #
edge $-1 $254 0 $254 6.283185307179586232 $159 $255 forward 7 unknown #
face $-1 $256 $257 $26 $-1 $258 forward single #
loop $-1 $-1 $259 $97 #
plane-surface $-1 157.8448917685155948 10.98421197907270397 221.1994386771150971 0 1 0 0.7660444514056184984 0 0.6427875998109056077 forward_v I I I I #
coedge $-1 $260 $261 $262 $263 reversed $98 $-1 #
coedge $-1 $166 $100 $264 $265 reversed $59 $-1 #
coedge $-1 $100 $165 $260 $266 reversed $59 $-1 #
coedge $-1 $262 $267 $100 $168 forward $257 $-1 #
edge $-1 $268 -26.47078511034041526 $269 -23.34679489157426246 $167 $270 forward 7 unknown #
loop $-1 $-1 $174 $101 #
plane-surface $-1 50.19702534301877961 17.00275492030274549 130.8721560273362456 0.7660444514056186094 0 0.6427875998109057187 0.6427875998109056077 0 -0.7660444514056184984 forward_v I I I I #
loop $-1 $-1 $271 $61 #
coedge $-1 $172 $172 $173 $272 reversed $102 $-1 #
coedge $-1 $173 $173 $172 $272 forward $104 $-1 #
coedge $-1 $174 $174 $105 $175 forward $169 $-1 #
edge $-1 $273 0 $273 6.283185307179586232 $174 $274 forward 7 unknown #
loop $-1 $-1 $181 $106 #
plane-surface $-1 50.19702534301877961 17.00275492030274549 130.8721560273362456 0.7660444514056186094 0 0.6427875998109057187 0.6427875998109056077 0 -0.7660444514056184984 forward_v I I I I #
loop $-1 $-1 $275 $64 #
coedge $-1 $179 $179 $180 $276 reversed $107 $-1 #
coedge $-1 $180 $180 $179 $276 forward $109 $-1 #
coedge $-1 $181 $181 $110 $182 forward $176 $-1 #
edge $-1 $277 0 $277 6.283185307179586232 $181 $278 forward 7 unknown #
loop $-1 $-1 $188 $111 #
plane-surface $-1 50.19702534301877961 17.00275492030274549 130.8721560273362456 0.7660444514056186094 0 0.6427875998109057187 0.6427875998109056077 0 -0.7660444514056184984 forward_v I I I I #
loop $-1 $-1 $279 $67 #
coedge $-1 $186 $186 $187 $280 reversed $112 $-1 #
coedge $-1 $187 $187 $186 $280 forward $114 $-1 #
coedge $-1 $188 $188 $115 $189 forward $183 $-1 #
edge $-1 $281 0 $281 6.283185307179586232 $188 $282 forward 7 unknown #
face $-1 $283 $284 $20 $-1 $285 reversed single #
loop $-1 $-1 $286 $116 #
plane-surface $-1 0 39.61908897105205085 13.4736581328782421 1 0 0 0 0 -1 forward_v I I I I #
coedge $-1 $287 $201 $288 $289 forward $117 $-1 #
coedge $-1 $290 $119 $287 $291 forward $71 $-1 #
coedge $-1 $119 $290 $292 $293 forward $71 $-1 #
coedge $-1 $204 $203 $119 $197 reversed $205 $-1 #
edge $-1 $294 -39.61908897105205085 $295 39.61908897105205085 $196 $296 forward 7 unknown #
coedge $-1 $121 $120 $297 $298 forward $41 $-1 #
coedge $-1 $299 $300 $120 $200 reversed $284 $-1 #
edge $-1 $207 -70.26215399639880843 $301 70.26215399639880843 $199 $302 forward 7 unknown #
coedge $-1 $193 $303 $121 $202 reversed $117 $-1 #
edge $-1 $304 -70.26215399639880843 $206 70.26215399639880843 $201 $305 forward 7 unknown #
coedge $-1 $196 $122 $303 $306 forward $205 $-1 #
coedge $-1 $122 $196 $299 $307 reversed $205 $-1 #
loop $-1 $-1 $203 $283 #
vertex $-1 $123 $308 #
vertex $-1 $123 $309 #
straight-curve $-1 140.5243079927976169 39.61908897105205085 26.9473162657564842 0 1 0 I I #
face $-1 $310 $311 $21 $-1 $312 reversed single #
loop $-1 $-1 $313 $124 #
plane-surface $-1 0 39.61908897105205085 13.4736581328782421 1 0 0 0 0 -1 forward_v I I I I #
coedge $-1 $314 $218 $223 $315 reversed $125 $-1 #
coedge $-1 $316 $127 $317 $318 reversed $75 $-1 #
coedge $-1 $127 $316 $314 $319 forward $75 $-1 #
coedge $-1 $223 $222 $127 $216 forward $224 $-1 #
edge $-1 $320 -22.55559748029419964 $321 -11.57138550122149923 $215 $322 forward 7 unknown #
coedge $-1 $129 $128 $313 $323 reversed $44 $-1 #
coedge $-1 $212 $324 $128 $219 reversed $125 $-1 #
edge $-1 $225 -70.26215399639880843 $325 70.26215399639880843 $218 $326 forward 7 unknown #
coedge $-1 $327 $328 $129 $221 forward $311 $-1 #
edge $-1 $226 -70.26215399639880843 $329 70.26215399639880843 $220 $330 forward 7 unknown #
coedge $-1 $215 $130 $328 $331 forward $224 $-1 #
coedge $-1 $130 $215 $212 $315 forward $224 $-1 #
loop $-1 $-1 $130 $310 #
vertex $-1 $131 $332 #
vertex $-1 $331 $333 #
straight-curve $-1 140.5243079927976169 22.55559748029419964 9.988283151969774565 0 -1 0 I I #
face $-1 $-1 $240 $22 $-1 $334 forward single #
loop $-1 $-1 $335 $132 #
plane-surface $-1 0 39.61908897105205085 13.4736581328782421 1 0 0 0 0 -1 forward_v I I I I #
coedge $-1 $336 $337 $338 $339 reversed $133 $-1 #
coedge $-1 $340 $135 $137 $238 forward $79 $-1 #
coedge $-1 $135 $340 $336 $341 forward $79 $-1 #
coedge $-1 $338 $138 $135 $235 forward $240 $-1 #
edge $-1 $242 -17.32670996660469598 $342 -5.289624084144612937 $234 $343 forward 7 unknown #
coedge $-1 $344 $345 $136 $237 forward $229 $-1 #
edge $-1 $346 -40.28832559040881733 $241 -36.56529892649176361 $236 $347 forward 7 unknown #
edge $-1 $242 -4.860066092882301625 $346 -2.274224419903602713e-14 $137 $348 forward 7 unknown #
coedge $-1 $138 $338 $344 $349 forward $240 $-1 #
loop $-1 $-1 $338 $228 #
vertex $-1 $237 $350 #
vertex $-1 $139 $351 #
straight-curve $-1 -18.69285621454901047 10.98421197907270397 26.9473162657564842 1 0 0 I I #
coedge $-1 $244 $244 $-1 $352 reversed $142 $-1 #
edge $-1 $353 0 $353 6.283185307179586232 $143 $354 forward 7 unknown #
vertex $-1 $146 $355 #
ellipse-curve $-1 1.561995109383090607 13.39162915556471845 25.08580293379796089 -0.7660444514056186094 0 0.6427875998109057187 0.6427875998109056077 0 0.7660444514056184984 1 I I #
coedge $-1 $248 $248 $-1 $356 reversed $149 $-1 #
edge $-1 $357 0 $357 6.283185307179586232 $150 $358 forward 7 unknown #
vertex $-1 $153 $359 #
ellipse-curve $-1 1.561995109383090607 17.00275492030274549 25.08580293379796089 -0.7660444514056186094 0 0.6427875998109057187 0.6427875998109056077 0 0.7660444514056184984 1 I I #
coedge $-1 $252 $252 $-1 $360 reversed $156 $-1 #
edge $-1 $361 0 $361 6.283185307179586232 $157 $362 forward 7 unknown #
vertex $-1 $160 $363 #
ellipse-curve $-1 1.561995109383090607 20.61388068504077253 25.08580293379796089 -0.7660444514056186094 0 0.6427875998109057187 0.6427875998109056077 0 0.7660444514056184984 1 I I #
face $-1 $-1 $364 $26 $-1 $365 reversed single #
loop $-1 $-1 $167 $161 #
plane-surface $-1 70.26215399639880843 39.61908897105205085 26.9473162657564842 0 0 1 1 0 0 forward_v I I I I #
coedge $-1 $366 $367 $368 $369 reversed $162 $-1 #
coedge $-1 $370 $164 $166 $266 forward $98 $-1 #
coedge $-1 $164 $370 $366 $371 forward $98 $-1 #
coedge $-1 $368 $167 $164 $263 forward $257 $-1 #
edge $-1 $269 5.289624084144612937 $372 17.32670996660469598 $262 $373 forward 7 unknown #
coedge $-1 $374 $375 $165 $265 forward $364 $-1 #
edge $-1 $376 -94.11225880315723202 $268 -90.3892321392401783 $264 $377 forward 7 unknown #
edge $-1 $269 135.6642418999153676 $376 140.5243079927976453 $166 $378 forward 7 unknown #
coedge $-1 $167 $368 $374 $379 forward $257 $-1 #
vertex $-1 $265 $380 #
vertex $-1 $168 $381 #
straight-curve $-1 114.0535228824572016 23.02129786153278701 26.9473162657564842 -1 0 0 I I #
coedge $-1 $271 $271 $-1 $382 reversed $171 $-1 #
edge $-1 $383 0 $383 6.283185307179586232 $172 $384 forward 7 unknown #
vertex $-1 $175 $385 #
ellipse-curve $-1 138.9623128834145405 13.39162915556471845 25.08580293379792892 0.7660444514056186094 0 0.6427875998109057187 0.6427875998109056077 0 -0.7660444514056184984 1 I I #
coedge $-1 $275 $275 $-1 $386 reversed $178 $-1 #
edge $-1 $387 0 $387 6.283185307179586232 $179 $388 forward 7 unknown #
vertex $-1 $182 $389 #
ellipse-curve $-1 138.9623128834145405 17.00275492030274549 25.08580293379792892 0.7660444514056186094 0 0.6427875998109057187 0.6427875998109056077 0 -0.7660444514056184984 1 I I #
coedge $-1 $279 $279 $-1 $390 reversed $185 $-1 #
edge $-1 $391 0 $391 6.283185307179586232 $186 $392 forward 7 unknown #
vertex $-1 $189 $393 #
ellipse-curve $-1 138.9623128834145405 20.61388068504077253 25.08580293379792892 0.7660444514056186094 0 0.6427875998109057187 0.6427875998109056077 0 -0.7660444514056184984 1 I I #
face $-1 $-1 $205 $20 $-1 $394 reversed single #
loop $-1 $-1 $299 $190 #
plane-surface $-1 70.26215399639880843 79.2381779421041017 13.4736581328782421 0 -1 0 0 0 -1 forward_v I I I I #
coedge $-1 $395 $297 $300 $396 forward $191 $-1 #
coedge $-1 $303 $193 $194 $291 reversed $117 $-1 #
coedge $-1 $297 $395 $193 $289 reversed $191 $-1 #
edge $-1 $304 -13.4736581328782421 $397 13.4736581328782421 $288 $398 forward 7 unknown #
coedge $-1 $195 $194 $395 $399 forward $71 $-1 #
edge $-1 $295 -70.26215399639880843 $397 70.26215399639880843 $287 $400 forward 7 unknown #
coedge $-1 $300 $299 $195 $293 reversed $284 $-1 #
edge $-1 $401 -70.26215399639880843 $294 70.26215399639880843 $292 $402 forward 7 unknown #
vertex $-1 $197 $403 #
vertex $-1 $306 $404 #
straight-curve $-1 140.5243079927976169 39.61908897105205085 0 0 -1 0 I I #
coedge $-1 $286 $288 $198 $298 reversed $191 $-1 #
edge $-1 $301 -39.61908897105205085 $304 39.61908897105205085 $297 $405 forward 7 unknown #
coedge $-1 $292 $199 $204 $307 forward $284 $-1 #
coedge $-1 $199 $292 $286 $396 reversed $284 $-1 #
vertex $-1 $200 $406 #
straight-curve $-1 70.26215399639880843 79.2381779421041017 26.9473162657564842 -1 0 0 I I #
coedge $-1 $201 $287 $203 $306 reversed $117 $-1 #
vertex $-1 $298 $407 #
straight-curve $-1 70.26215399639880843 0 26.9473162657564842 1 0 0 I I #
edge $-1 $206 -13.4736581328782421 $295 13.4736581328782421 $203 $408 forward 7 unknown #
edge $-1 $207 -13.4736581328782421 $294 13.4736581328782421 $204 $409 forward 7 unknown #
point $-1 140.5243079927976169 0 26.9473162657564842 #
point $-1 140.5243079927976169 79.2381779421041017 26.9473162657564842 #
face $-1 $-1 $224 $21 $-1 $410 reversed single #
loop $-1 $-1 $220 $209 #
plane-surface $-1 70.26215399639880843 0 13.4736581328782421 0 1 0 0 0 1 forward_v I I I I #
coedge $-1 $411 $412 $217 $323 forward $210 $-1 #
coedge $-1 $324 $212 $214 $319 reversed $125 $-1 #
edge $-1 $321 -4.14466815088398377 $225 -0.9420272703109837664 $223 $413 forward 7 unknown #
coedge $-1 $214 $213 $414 $415 reversed $75 $-1 #
coedge $-1 $328 $327 $213 $318 forward $311 $-1 #
edge $-1 $416 -70.26215399639880843 $320 70.26215399639880843 $317 $417 forward 7 unknown #
edge $-1 $418 -70.26215399639880843 $321 70.26215399639880843 $314 $419 forward 7 unknown #
vertex $-1 $318 $420 #
vertex $-1 $216 $421 #
straight-curve $-1 140.5243079927976169 22.55559748029419964 6.785642271396774561 0 1 0 I I #
edge $-1 $329 -22.55559748029419964 $325 -11.57138550122149923 $313 $422 forward 7 unknown #
coedge $-1 $218 $314 $411 $423 reversed $125 $-1 #
vertex $-1 $323 $424 #
straight-curve $-1 70.26215399639880843 10.98421197907270042 9.988283151969774565 -1 0 0 I I #
coedge $-1 $317 $220 $412 $425 forward $311 $-1 #
coedge $-1 $220 $317 $222 $331 reversed $311 $-1 #
vertex $-1 $425 $426 #
straight-curve $-1 70.26215399639880843 0 9.988283151969774565 -1 0 0 I I #
edge $-1 $226 3.485374980908467535 $320 6.688015861481467539 $222 $427 forward 7 unknown #
point $-1 140.5243079927976169 10.98421197907270042 9.988283151969774565 #
point $-1 140.5243079927976169 0 9.988283151969774565 #
plane-surface $-1 70.26215399639880843 39.61908897105205085 26.9473162657564842 0 0 1 1 0 0 forward_v I I I I #
coedge $-1 $345 $344 $337 $428 forward $229 $-1 #
coedge $-1 $337 $231 $233 $341 reversed $133 $-1 #
coedge $-1 $231 $336 $335 $428 reversed $133 $-1 #
coedge $-1 $239 $234 $231 $339 forward $240 $-1 #
edge $-1 $342 -21.81684643331517748 $429 -18.69285621454901047 $338 $430 forward 7 unknown #
coedge $-1 $233 $232 $345 $431 reversed $79 $-1 #
edge $-1 $432 2.274224419903602713e-14 $342 4.860066092882301625 $336 $433 forward 7 unknown #
vertex $-1 $235 $434 #
straight-curve $-1 3.123990218766167004 28.31092194567739995 26.9473162657564842 0 1 0 I I #
coedge $-1 $335 $236 $239 $349 reversed $229 $-1 #
coedge $-1 $236 $335 $340 $431 forward $229 $-1 #
vertex $-1 $237 $435 #
straight-curve $-1 0 10.98421197907270397 63.51261519224824781 0 0 1 I I #
straight-curve $-1 -1.421085471520200372e-14 10.98421197907270397 23.22428960183941626 -0.6427875998109056077 0 -0.7660444514056184984 I I #
edge $-1 $429 16.59779110951926384 $241 28.63487699197934688 $344 $436 forward 7 unknown #
point $-1 0 10.98421197907270397 26.9473162657564842 #
point $-1 3.123990218766167004 10.98421197907270397 26.9473162657564842 #
edge $-1 $437 1 $437 0 $244 $-1 forward 7 unknown #
vertex $-1 $245 $438 #
ellipse-curve $-1 2.549457664346036267 13.39162915556471845 24.25722348982038312 -0.7660444514056186094 0 0.6427875998109057187 0.6427875998109056077 0 0.7660444514056184984 1 I I #
point $-1 2.204782709194006429 13.39162915556471845 25.85184738520356973 #
edge $-1 $439 1 $439 0 $248 $-1 forward 7 unknown #
vertex $-1 $249 $440 #
ellipse-curve $-1 2.549457664346036267 17.00275492030274549 24.25722348982038312 -0.7660444514056186094 0 0.6427875998109057187 0.6427875998109056077 0 0.7660444514056184984 1 I I #
point $-1 2.204782709194006429 17.00275492030274549 25.85184738520356973 #
edge $-1 $441 1 $441 0 $252 $-1 forward 7 unknown #
vertex $-1 $253 $442 #
ellipse-curve $-1 2.549457664346036267 20.61388068504077253 24.25722348982038312 -0.7660444514056186094 0 0.6427875998109057187 0.6427875998109056077 0 0.7660444514056184984 1 I I #
point $-1 2.204782709194006429 20.61388068504077253 25.85184738520356973 #
loop $-1 $-1 $264 $256 #
plane-surface $-1 140.5243079927976169 39.61908897105205085 13.4736581328782421 -1 0 0 0 0 1 forward_v I I I I #
coedge $-1 $367 $259 $261 $371 reversed $162 $-1 #
coedge $-1 $259 $366 $443 $444 reversed $162 $-1 #
coedge $-1 $267 $262 $259 $369 forward $257 $-1 #
edge $-1 $372 23.34679489157426246 $445 26.47078511034041526 $368 $446 forward 7 unknown #
coedge $-1 $261 $260 $375 $447 reversed $98 $-1 #
edge $-1 $448 -140.5243079927976453 $372 -135.6642418999153676 $366 $449 forward 7 unknown #
vertex $-1 $263 $450 #
straight-curve $-1 137.4003177740314641 28.31092194567739995 26.9473162657564842 0 -1 0 I I #
coedge $-1 $443 $264 $267 $379 reversed $364 $-1 #
coedge $-1 $264 $443 $370 $447 forward $364 $-1 #
vertex $-1 $265 $451 #
straight-curve $-1 140.5243079927976169 23.02129786153278701 117.3365484049966625 0 0 1 I I #
straight-curve $-1 50.19702534301877961 23.02129786153278701 130.8721560273362456 0.6427875998109056077 0 -0.7660444514056184984 I I #
edge $-1 $445 -28.63487699197934688 $268 -16.59779110951926384 $374 $452 forward 7 unknown #
point $-1 140.5243079927976169 23.02129786153278701 26.9473162657564842 #
point $-1 137.4003177740314641 23.02129786153278701 26.9473162657564842 #
edge $-1 $453 1 $453 0 $271 $-1 forward 7 unknown #
vertex $-1 $272 $454 #
ellipse-curve $-1 137.9748503284515948 13.39162915556471845 24.25722348982036181 0.7660444514056186094 0 0.6427875998109057187 0.6427875998109056077 0 -0.7660444514056184984 1 I I #
point $-1 139.6051004832254421 13.39162915556471845 24.31975848239231652 #
edge $-1 $455 1 $455 0 $275 $-1 forward 7 unknown #
vertex $-1 $276 $456 #
ellipse-curve $-1 137.9748503284515948 17.00275492030274549 24.25722348982036181 0.7660444514056186094 0 0.6427875998109057187 0.6427875998109056077 0 -0.7660444514056184984 1 I I #
point $-1 139.6051004832254421 17.00275492030274549 24.31975848239231652 #
edge $-1 $457 1 $457 0 $279 $-1 forward 7 unknown #
vertex $-1 $280 $458 #
ellipse-curve $-1 137.9748503284515948 20.61388068504077253 24.25722348982036181 0.7660444514056186094 0 0.6427875998109057187 0.6427875998109056077 0 -0.7660444514056184984 1 I I #
point $-1 139.6051004832254421 20.61388068504077253 24.31975848239231652 #
plane-surface $-1 140.5243079927976169 39.61908897105205085 13.4736581328782421 -1 0 0 0 0 1 forward_v I I I I #
coedge $-1 $288 $286 $290 $399 reversed $191 $-1 #
edge $-1 $301 -13.4736581328782421 $401 13.4736581328782421 $300 $459 forward 7 unknown #
vertex $-1 $399 $460 #
straight-curve $-1 0 0 13.4736581328782421 0 0 -1 I I #
edge $-1 $397 -39.61908897105205085 $401 39.61908897105205085 $395 $461 forward 7 unknown #
straight-curve $-1 70.26215399639880843 0 0 -1 0 0 I I #
vertex $-1 $293 $462 #
straight-curve $-1 70.26215399639880843 79.2381779421041017 0 1 0 0 I I #
point $-1 140.5243079927976169 79.2381779421041017 0 #
point $-1 140.5243079927976169 0 0 #
straight-curve $-1 0 39.61908897105205085 26.9473162657564842 0 -1 0 I I #
point $-1 0 79.2381779421041017 26.9473162657564842 #
point $-1 0 0 26.9473162657564842 #
straight-curve $-1 140.5243079927976169 0 13.4736581328782421 0 0 -1 I I #
straight-curve $-1 140.5243079927976169 79.2381779421041017 13.4736581328782421 0 0 -1 I I #
plane-surface $-1 140.5243079927976169 39.61908897105205085 13.4736581328782421 -1 0 0 0 0 1 forward_v I I I I #
coedge $-1 $414 $313 $324 $423 forward $210 $-1 #
coedge $-1 $313 $414 $327 $425 reversed $210 $-1 #
straight-curve $-1 140.5243079927976169 10.98421197907270042 10.93031042228075833 0 0 1 I I #
coedge $-1 $412 $411 $316 $415 forward $210 $-1 #
edge $-1 $418 11.57138550122149923 $416 22.55559748029419964 $414 $463 forward 7 unknown #
vertex $-1 $318 $464 #
straight-curve $-1 70.26215399639880843 0 6.785642271396774561 1 0 0 I I #
vertex $-1 $415 $465 #
straight-curve $-1 70.26215399639880843 10.98421197907270042 6.785642271396774561 1 0 0 I I #
point $-1 140.5243079927976169 0 6.785642271396774561 #
point $-1 140.5243079927976169 10.98421197907270042 6.785642271396774561 #
straight-curve $-1 0 22.55559748029419964 9.988283151969774565 0 1 0 I I #
edge $-1 $325 0.9420272703109837664 $418 4.14466815088398377 $411 $466 forward 7 unknown #
point $-1 0 10.98421197907270042 9.988283151969774565 #
edge $-1 $329 3.485374980908467535 $416 6.688015861481467539 $412 $467 forward 7 unknown #
point $-1 0 0 9.988283151969774565 #
straight-curve $-1 140.5243079927976169 0 13.4736581328782421 0 0 -1 I I #
edge $-1 $429 36.56529892649176361 $432 40.28832559040881733 $335 $468 forward 7 unknown #
vertex $-1 $349 $469 #
straight-curve $-1 -18.69285621454901047 23.02129786153278701 26.9473162657564842 -1 0 0 I I #
edge $-1 $432 5.289624084144612937 $346 17.32670996660469598 $345 $470 forward 7 unknown #
vertex $-1 $431 $471 #
straight-curve $-1 -1.421085471520200372e-14 23.02129786153278701 23.22428960183941626 0.6427875998109056077 0 0.7660444514056184984 I I #
point $-1 3.123990218766167004 23.02129786153278701 26.9473162657564842 #
point $-1 0 10.98421197907270397 23.22428960183943403 #
straight-curve $-1 0 39.61908897105205085 26.9473162657564842 0 -1 0 I I #
vertex $-1 $352 $472 #
point $-1 3.192245264156937878 13.39162915556471845 25.02326794122599907 #
vertex $-1 $356 $473 #
point $-1 3.192245264156937878 17.00275492030274549 25.02326794122599907 #
vertex $-1 $360 $474 #
point $-1 3.192245264156937878 20.61388068504077253 25.02326794122599907 #
coedge $-1 $375 $374 $367 $444 forward $364 $-1 #
edge $-1 $445 90.3892321392401783 $448 94.11225880315723202 $443 $475 forward 7 unknown #
vertex $-1 $379 $476 #
straight-curve $-1 114.0535228824572016 10.98421197907270397 26.9473162657564842 1 0 0 I I #
edge $-1 $448 -17.32670996660469598 $376 -5.289624084144612937 $375 $477 forward 7 unknown #
vertex $-1 $447 $478 #
straight-curve $-1 50.19702534301877961 10.98421197907270397 130.8721560273362456 -0.6427875998109056077 0 0.7660444514056184984 I I #
point $-1 137.4003177740314641 10.98421197907270397 26.9473162657564842 #
point $-1 140.5243079927976169 23.02129786153278701 23.22428960183943047 #
straight-curve $-1 140.5243079927976169 39.61908897105205085 26.9473162657564842 0 1 0 I I #
vertex $-1 $382 $479 #
point $-1 138.6176379282625248 13.39162915556471845 23.49117903841474586 #
vertex $-1 $386 $480 #
point $-1 138.6176379282625248 17.00275492030274549 23.49117903841474586 #
vertex $-1 $390 $481 #
point $-1 138.6176379282625248 20.61388068504077253 23.49117903841474586 #
straight-curve $-1 0 79.2381779421041017 13.4736581328782421 0 0 -1 I I #
point $-1 0 0 0 #
straight-curve $-1 0 39.61908897105205085 0 0 1 0 I I #
point $-1 0 79.2381779421041017 0 #
straight-curve $-1 0 22.55559748029419964 6.785642271396774561 0 -1 0 I I #
point $-1 0 0 6.785642271396774561 #
point $-1 0 10.98421197907270042 6.785642271396774561 #
straight-curve $-1 0 10.98421197907270042 10.93031042228075833 0 0 -1 I I #
straight-curve $-1 0 0 13.4736581328782421 0 0 -1 I I #
straight-curve $-1 0 23.02129786153278701 63.51261519224824781 0 0 -1 I I #
point $-1 0 23.02129786153278701 26.9473162657564842 #
straight-curve $-1 0 28.31092194567739995 23.22428960183942692 0 -1 0 I I #
point $-1 0 23.02129786153278701 23.22428960183943403 #
point $-1 3.315502115751641554 13.39162915556471845 23.61443589000947441 #
point $-1 3.315502115751641554 17.00275492030274549 23.61443589000947441 #
point $-1 3.315502115751641554 20.61388068504077253 23.61443589000947441 #
straight-curve $-1 140.5243079927976169 10.98421197907270397 117.3365484049966625 0 0 -1 I I #
point $-1 140.5243079927976169 10.98421197907270397 26.9473162657564842 #
straight-curve $-1 140.5243079927976169 28.31092194567739995 23.22428960183942337 0 1 0 I I #
point $-1 140.5243079927976169 10.98421197907270397 23.22428960183943047 #
point $-1 137.2088058770459895 13.39162915556471845 23.61443589000946019 #
point $-1 137.2088058770459895 17.00275492030274549 23.61443589000946019 #
point $-1 137.2088058770459895 20.61388068504077253 23.61443589000946019 #
End-of-ACIS-data 