600 0 5 0           
95 GICL ACIS Healer - Source: /gicl/data5/repository/Drexel/SM99-DATA/part91.smdg.deltas.sat - 6 0 18 ACIS 6.0.3 Solaris 24 Sat Apr 13 20:46:47 2002 
1 9.999999999999999547e-07 1.000000000000000036e-10 
body $-1 $5 $-1 $-1 #
body $-1 $6 $-1 $-1 #
body $-1 $7 $-1 $-1 #
body $-1 $8 $-1 $-1 #
body $-1 $9 $-1 $-1 #
lump $-1 $-1 $10 $0 #
lump $-1 $-1 $11 $1 #
lump $-1 $-1 $12 $2 #
lump $-1 $-1 $13 $3 #
lump $-1 $-1 $14 $4 #
shell $-1 $-1 $-1 $15 $-1 $5 #
shell $-1 $-1 $-1 $16 $-1 $6 #
shell $-1 $-1 $-1 $17 $-1 $7 #
shell $-1 $-1 $-1 $18 $-1 $8 #
shell $-1 $-1 $-1 $19 $-1 $9 #
face $-1 $20 $21 $10 $-1 $22 reversed single #
face $-1 $23 $24 $11 $-1 $25 forward single #
face $-1 $26 $27 $12 $-1 $28 reversed single #
face $-1 $29 $30 $13 $-1 $31 forward single #
face $-1 $32 $33 $14 $-1 $34 forward single #
face $-1 $35 $36 $10 $-1 $37 forward single #
loop $-1 $-1 $38 $15 #
plane-surface $-1 77.1153904843287421 0 18.95298926997380917 0 1 0 0 0 1 forward_v I I I I #
face $-1 $39 $40 $11 $-1 $41 reversed single #
loop $-1 $-1 $42 $16 #
plane-surface $-1 77.1153904843287421 0 18.95298926997380917 0 1 0 0 0 1 forward_v I I I I #
face $-1 $43 $44 $12 $-1 $45 reversed single #
loop $-1 $-1 $46 $17 #
plane-surface $-1 19.7082339852249504 117.1234124781335169 217.5248731866206526 -1 0 0 0 0.6156614830463592591 0.788010747574649173 forward_v I I I I #
face $-1 $47 $48 $13 $-1 $49 forward single #
loop $-1 $50 $51 $18 #
cone-surface $-1 5.630923995778559288 98.74685110536407251 32.45309032994651233 0 -0.6156614830463592591 -0.788010747574649173 1.5 0 0 1 I I 0 1 1.5 forward I I I I #
face $-1 $52 $53 $14 $-1 $54 forward single #
loop $-1 $55 $56 $19 #
cone-surface $-1 14.07730998944639111 98.74685110536407251 32.45309032994651233 0 -0.6156614830463592591 -0.788010747574649173 1.5 0 0 1 I I 0 1 1.5 forward I I I I #
face $-1 $57 $58 $10 $-1 $59 reversed single #
loop $-1 $-1 $60 $20 #
plane-surface $-1 77.1153904843287421 52.28911579698673506 37.90597853994761834 0 0 1 1 0 0 forward_v I I I I #
coedge $-1 $61 $62 $63 $64 reversed $21 $-1 #
face $-1 $65 $66 $11 $-1 $67 reversed single #
loop $-1 $-1 $68 $23 #
plane-surface $-1 77.1153904843287421 52.28911579698673506 0 0 0 1 1 0 0 forward_v I I I I #
coedge $-1 $69 $70 $71 $72 forward $24 $-1 #
face $-1 $73 $74 $12 $-1 $75 reversed single #
loop $-1 $-1 $76 $26 #
plane-surface $-1 9.854116992612475201 22.16946113557165177 95.98936017648689756 0 0.6156614830463592591 0.788010747574649173 1 0 0 forward_v I I I I #
coedge $-1 $77 $78 $79 $80 reversed $27 $-1 #
face $-1 $-1 $81 $13 $-1 $82 forward single #
loop $-1 $83 $84 $29 #
cone-surface $-1 5.630923995778559288 96.48644133678132562 29.5598978197504465 0 -0.6156614830463592591 -0.788010747574649173 0.75 0 0 1 I I -0.7071067811865475727 0.7071067811865475727 0.75 forward I I I I #
loop $-1 $-1 $85 $18 #
coedge $-1 $51 $51 $86 $87 reversed $30 $-1 #
face $-1 $-1 $88 $14 $-1 $89 forward single #
loop $-1 $90 $91 $32 #
cone-surface $-1 14.07730998944639111 96.48644133678132562 29.5598978197504465 0 -0.6156614830463592591 -0.788010747574649173 0.75 0 0 1 I I -0.7071067811865475727 0.7071067811865475727 0.75 forward I I I I #
loop $-1 $-1 $92 $19 #
coedge $-1 $56 $56 $93 $94 reversed $33 $-1 #
face $-1 $95 $96 $10 $-1 $97 reversed single #
loop $-1 $-1 $98 $35 #
plane-surface $-1 77.1153904843287421 52.28911579698673506 0 0 0 1 1 0 0 forward_v I I I I #
coedge $-1 $99 $100 $101 $102 forward $36 $-1 #
coedge $-1 $103 $38 $104 $105 reversed $21 $-1 #
coedge $-1 $38 $103 $106 $107 forward $21 $-1 #
coedge $-1 $108 $98 $38 $64 forward $58 $-1 #
edge $-1 $109 -77.1153904843287421 $110 77.1153904843287421 $38 $111 forward 7 unknown #
face $-1 $112 $113 $11 $-1 $114 reversed single #
loop $-1 $-1 $115 $39 #
plane-surface $-1 34.80618408831284682 -14.93197322677690408 18.95298926997380917 0 1 0 0 0 1 forward_v I I I I #
coedge $-1 $116 $117 $70 $118 forward $40 $-1 #
coedge $-1 $119 $42 $120 $121 reversed $24 $-1 #
coedge $-1 $42 $119 $68 $118 reversed $24 $-1 #
coedge $-1 $122 $123 $42 $72 reversed $113 $-1 #
edge $-1 $124 -18.95298926997380917 $125 18.95298926997380917 $71 $126 forward 7 unknown #
face $-1 $127 $128 $12 $-1 $129 forward single #
loop $-1 $-1 $130 $43 #
plane-surface $-1 0 52.28911579698673506 18.95298926997380917 1 0 0 0 0 -1 forward_v I I I I #
coedge $-1 $131 $132 $133 $134 reversed $44 $-1 #
coedge $-1 $78 $46 $135 $136 reversed $27 $-1 #
coedge $-1 $46 $77 $131 $137 reversed $27 $-1 #
coedge $-1 $133 $138 $46 $80 forward $139 $-1 #
edge $-1 $140 80.33295268834962144 $141 86.63436020932165604 $79 $142 forward 7 unknown #
loop $-1 $-1 $86 $47 #
plane-surface $-1 9.854116992612475201 22.16946113557165177 95.98936017648689756 0 0.6156614830463592591 0.788010747574649173 1 0 0 forward_v I I I I #
loop $-1 $-1 $143 $29 #
coedge $-1 $84 $84 $85 $144 reversed $48 $-1 #
coedge $-1 $85 $85 $84 $144 forward $50 $-1 #
coedge $-1 $86 $86 $51 $87 forward $81 $-1 #
edge $-1 $145 1.283538390783573803e-15 $145 6.28318530717958712 $86 $146 forward 7 unknown #
loop $-1 $-1 $93 $52 #
plane-surface $-1 9.854116992612475201 22.16946113557165177 95.98936017648689756 0 0.6156614830463592591 0.788010747574649173 1 0 0 forward_v I I I I #
loop $-1 $-1 $147 $32 #
coedge $-1 $91 $91 $92 $148 reversed $53 $-1 #
coedge $-1 $92 $92 $91 $148 forward $55 $-1 #
coedge $-1 $93 $93 $56 $94 forward $88 $-1 #
edge $-1 $149 1.283538390783573803e-15 $149 6.28318530717958712 $93 $150 forward 7 unknown #
face $-1 $151 $152 $10 $-1 $153 reversed single #
loop $-1 $-1 $154 $57 #
plane-surface $-1 0 52.28911579698673506 18.95298926997380917 1 0 0 0 0 -1 forward_v I I I I #
coedge $-1 $63 $155 $156 $157 forward $58 $-1 #
coedge $-1 $158 $60 $159 $160 forward $36 $-1 #
coedge $-1 $60 $158 $103 $161 forward $36 $-1 #
coedge $-1 $104 $162 $60 $102 reversed $163 $-1 #
edge $-1 $164 -52.28911579698673506 $165 52.28911579698673506 $101 $166 forward 7 unknown #
coedge $-1 $62 $61 $100 $161 reversed $21 $-1 #
coedge $-1 $156 $101 $61 $105 forward $163 $-1 #
edge $-1 $164 -18.95298926997380917 $109 18.95298926997380917 $104 $167 forward 7 unknown #
coedge $-1 $168 $169 $62 $107 reversed $96 $-1 #
edge $-1 $170 -18.95298926997380917 $110 18.95298926997380917 $106 $171 forward 7 unknown #
coedge $-1 $155 $63 $169 $172 forward $58 $-1 #
vertex $-1 $105 $173 #
vertex $-1 $172 $174 #
straight-curve $-1 77.1153904843287421 0 0 -1 0 0 I I #
face $-1 $175 $176 $11 $-1 $177 reversed single #
loop $-1 $-1 $71 $65 #
plane-surface $-1 31.7063896366780682 -7.465986613388452042 18.95298926997380917 1 0 0 0 0 -1 forward_v I I I I #
coedge $-1 $178 $179 $180 $181 forward $66 $-1 #
coedge $-1 $182 $68 $183 $184 forward $40 $-1 #
coedge $-1 $68 $182 $122 $185 forward $40 $-1 #
edge $-1 $124 -45.4090008476506739 $186 -39.20941194438111665 $68 $187 forward 7 unknown #
coedge $-1 $70 $69 $188 $189 forward $24 $-1 #
coedge $-1 $190 $191 $69 $121 forward $192 $-1 #
edge $-1 $193 39.20941194438111665 $125 45.4090008476506739 $120 $194 forward 7 unknown #
coedge $-1 $180 $71 $117 $185 reversed $113 $-1 #
coedge $-1 $71 $180 $190 $195 reversed $113 $-1 #
vertex $-1 $118 $196 #
vertex $-1 $195 $197 #
straight-curve $-1 31.7063896366780682 0 18.95298926997380917 0 0 1 I I #
face $-1 $-1 $139 $12 $-1 $198 reversed single #
loop $-1 $-1 $135 $73 #
plane-surface $-1 77.1153904843287421 52.28911579698673506 37.90597853994761834 0 0 1 1 0 0 forward_v I I I I #
coedge $-1 $199 $200 $132 $201 forward $74 $-1 #
coedge $-1 $202 $76 $78 $137 forward $44 $-1 #
coedge $-1 $76 $202 $130 $201 reversed $44 $-1 #
coedge $-1 $203 $79 $76 $134 forward $139 $-1 #
edge $-1 $141 23.77651975324565825 $204 43.48475373847060865 $133 $205 forward 7 unknown #
coedge $-1 $206 $207 $77 $136 forward $128 $-1 #
edge $-1 $208 11.80653379179054241 $140 19.87196745641334417 $135 $209 forward 7 unknown #
edge $-1 $141 -104.5782315939734417 $208 -94.3430492827591678 $78 $210 forward 7 unknown #
coedge $-1 $79 $203 $206 $211 reversed $139 $-1 #
loop $-1 $-1 $133 $127 #
vertex $-1 $211 $212 #
vertex $-1 $80 $213 #
straight-curve $-1 19.7082339852249504 104.5782315939734701 118.2389312282972327 0 0 -1 I I #
coedge $-1 $143 $143 $-1 $214 reversed $83 $-1 #
edge $-1 $215 0 $215 6.283185307179586232 $84 $216 forward 7 unknown #
vertex $-1 $87 $217 #
ellipse-curve $-1 5.630923995778559288 100.5455147616620621 34.75527477946160815 0 0.6156614830463592591 0.788010747574649173 1.5 0 0 1 I I #
coedge $-1 $147 $147 $-1 $218 reversed $90 $-1 #
edge $-1 $219 0 $219 6.283185307179586232 $91 $220 forward 7 unknown #
vertex $-1 $94 $221 #
ellipse-curve $-1 14.07730998944639111 100.5455147616620621 34.75527477946160815 0 0.6156614830463592591 0.788010747574649173 1.5 0 0 1 I I #
face $-1 $-1 $163 $10 $-1 $222 reversed single #
loop $-1 $-1 $223 $95 #
plane-surface $-1 77.1153904843287421 104.5782315939734701 18.95298926997380917 0 -1 0 0 0 -1 forward_v I I I I #
coedge $-1 $169 $168 $224 $225 forward $96 $-1 #
coedge $-1 $98 $108 $226 $227 forward $58 $-1 #
coedge $-1 $162 $104 $98 $157 reversed $163 $-1 #
edge $-1 $228 -52.28911579698673506 $109 52.28911579698673506 $156 $229 forward 7 unknown #
coedge $-1 $100 $99 $168 $230 forward $36 $-1 #
coedge $-1 $223 $224 $99 $160 reversed $152 $-1 #
edge $-1 $165 -77.1153904843287421 $231 77.1153904843287421 $159 $232 forward 7 unknown #
edge $-1 $170 -77.1153904843287421 $164 77.1153904843287421 $103 $233 forward 7 unknown #
coedge $-1 $101 $156 $223 $234 reversed $163 $-1 #
loop $-1 $-1 $104 $151 #
vertex $-1 $102 $235 #
vertex $-1 $102 $236 #
straight-curve $-1 154.2307809686574842 52.28911579698673506 37.90597853994761834 0 1 0 I I #
straight-curve $-1 154.2307809686574842 0 18.95298926997380917 0 0 -1 I I #
coedge $-1 $154 $106 $158 $230 reversed $96 $-1 #
coedge $-1 $106 $154 $108 $172 reversed $96 $-1 #
vertex $-1 $230 $237 #
straight-curve $-1 0 0 18.95298926997380917 0 0 -1 I I #
edge $-1 $110 -52.28911579698673506 $238 52.28911579698673506 $169 $239 forward 7 unknown #
point $-1 154.2307809686574842 0 0 #
point $-1 0 0 0 #
face $-1 $-1 $192 $11 $-1 $240 forward single #
loop $-1 $-1 $241 $112 #
plane-surface $-1 37.90597853994762545 -7.465986613388452042 18.95298926997380917 -1 0 0 0 0 1 forward_v I I I I #
coedge $-1 $242 $115 $182 $243 reversed $66 $-1 #
coedge $-1 $115 $242 $244 $245 reversed $66 $-1 #
coedge $-1 $123 $122 $115 $181 reversed $113 $-1 #
edge $-1 $246 -18.95298926997380917 $247 18.95298926997380917 $180 $248 forward 7 unknown #
coedge $-1 $117 $116 $178 $243 forward $40 $-1 #
coedge $-1 $188 $241 $116 $184 reversed $176 $-1 #
edge $-1 $186 -7.465986613388452042 $249 7.465986613388452042 $183 $250 forward 7 unknown #
edge $-1 $247 -7.465986613388452042 $124 7.465986613388452042 $122 $251 forward 7 unknown #
vertex $-1 $184 $252 #
straight-curve $-1 77.1153904843287421 0 0 1 0 0 I I #
coedge $-1 $253 $183 $119 $189 reversed $176 $-1 #
edge $-1 $193 -18.95298926997380917 $186 18.95298926997380917 $188 $254 forward 7 unknown #
coedge $-1 $244 $120 $123 $195 forward $192 $-1 #
coedge $-1 $120 $244 $253 $255 forward $192 $-1 #
loop $-1 $-1 $120 $175 #
vertex $-1 $121 $256 #
straight-curve $-1 77.1153904843287421 0 37.90597853994761834 -1 0 0 I I #
edge $-1 $125 -7.465986613388452042 $246 7.465986613388452042 $123 $257 forward 7 unknown #
point $-1 31.7063896366780682 0 0 #
point $-1 31.7063896366780682 0 37.90597853994761834 #
plane-surface $-1 77.1153904843287421 104.5782315939734701 18.95298926997380917 0 -1 0 0 0 -1 forward_v I I I I #
coedge $-1 $200 $130 $258 $259 reversed $74 $-1 #
coedge $-1 $130 $199 $203 $260 forward $74 $-1 #
edge $-1 $204 -68.99676262035083596 $261 -58.76158030913654784 $130 $262 forward 7 unknown #
coedge $-1 $132 $131 $207 $263 reversed $44 $-1 #
coedge $-1 $138 $133 $200 $260 reversed $139 $-1 #
vertex $-1 $201 $264 #
straight-curve $-1 43.48475373847060865 104.5782315939734701 31.60457101897556953 -1 0 0 I I #
coedge $-1 $258 $135 $138 $211 forward $128 $-1 #
coedge $-1 $135 $258 $202 $263 forward $128 $-1 #
vertex $-1 $136 $265 #
straight-curve $-1 19.7082339852249504 84.70626413756012596 37.90597853994762545 0 1 0 I I #
straight-curve $-1 19.7082339852249504 22.16946113557165177 95.98936017648689756 0 -0.788010747574649173 0.6156614830463592591 I I #
edge $-1 $140 57.4071564991037917 $266 77.1153904843287421 $138 $267 forward 7 unknown #
point $-1 19.7082339852249504 104.5782315939734701 37.90597853994761834 #
point $-1 19.7082339852249504 104.5782315939734701 31.60457101897557308 #
edge $-1 $268 1 $268 0 $143 $-1 forward 7 unknown #
vertex $-1 $144 $269 #
ellipse-curve $-1 5.630923995778559288 96.94818744906609709 30.15090588043143427 0 0.6156614830463592591 0.788010747574649173 1.5 0 0 1 I I #
point $-1 7.130923995778559288 100.5455147616620479 34.75527477946158683 #
edge $-1 $270 1 $270 0 $147 $-1 forward 7 unknown #
vertex $-1 $148 $271 #
ellipse-curve $-1 14.07730998944639111 96.94818744906609709 30.15090588043143427 0 0.6156614830463592591 0.788010747574649173 1.5 0 0 1 I I #
point $-1 15.57730998944639111 100.5455147616620479 34.75527477946158683 #
plane-surface $-1 154.2307809686574842 52.28911579698673506 18.95298926997380917 -1 0 0 0 0 1 forward_v I I I I #
coedge $-1 $226 $159 $162 $234 forward $152 $-1 #
coedge $-1 $159 $226 $154 $225 reversed $152 $-1 #
edge $-1 $231 -18.95298926997380917 $238 18.95298926997380917 $224 $272 forward 7 unknown #
coedge $-1 $224 $223 $155 $227 reversed $152 $-1 #
edge $-1 $238 -77.1153904843287421 $228 77.1153904843287421 $226 $273 forward 7 unknown #
vertex $-1 $157 $274 #
straight-curve $-1 154.2307809686574842 52.28911579698673506 0 0 -1 0 I I #
edge $-1 $231 -52.28911579698673506 $170 52.28911579698673506 $168 $275 forward 7 unknown #
vertex $-1 $160 $276 #
straight-curve $-1 77.1153904843287421 104.5782315939734701 37.90597853994761834 -1 0 0 I I #
straight-curve $-1 77.1153904843287421 0 37.90597853994761834 1 0 0 I I #
edge $-1 $165 -18.95298926997380917 $228 18.95298926997380917 $162 $277 forward 7 unknown #
point $-1 154.2307809686574842 0 37.90597853994761834 #
point $-1 154.2307809686574842 104.5782315939734701 37.90597853994761834 #
point $-1 0 0 37.90597853994761834 #
vertex $-1 $227 $278 #
straight-curve $-1 0 52.28911579698673506 0 0 1 0 I I #
plane-surface $-1 77.1153904843287421 52.28911579698673506 37.90597853994761834 0 0 1 1 0 0 forward_v I I I I #
coedge $-1 $183 $253 $242 $279 forward $176 $-1 #
coedge $-1 $179 $178 $241 $279 reversed $66 $-1 #
edge $-1 $249 -3.099794451634778625 $247 3.099794451634778625 $178 $280 forward 7 unknown #
coedge $-1 $191 $190 $179 $245 forward $192 $-1 #
edge $-1 $246 -3.099794451634778625 $281 3.099794451634778625 $179 $282 forward 7 unknown #
vertex $-1 $195 $283 #
vertex $-1 $185 $284 #
straight-curve $-1 31.7063896366780682 -14.93197322677690408 18.95298926997380917 0 0 -1 I I #
vertex $-1 $279 $285 #
straight-curve $-1 37.90597853994762545 -7.465986613388452042 0 0 -1 0 I I #
straight-curve $-1 31.7063896366780682 -7.465986613388452042 0 0 1 0 I I #
point $-1 37.90597853994762545 0 0 #
coedge $-1 $241 $188 $191 $255 reversed $176 $-1 #
straight-curve $-1 37.90597853994762545 0 18.95298926997380917 0 0 -1 I I #
edge $-1 $281 -7.465986613388452042 $193 7.465986613388452042 $253 $286 forward 7 unknown #
point $-1 37.90597853994762545 0 37.90597853994761834 #
straight-curve $-1 31.7063896366780682 -7.465986613388452042 37.90597853994761834 0 -1 0 I I #
coedge $-1 $207 $206 $199 $259 forward $128 $-1 #
edge $-1 $266 -52.28911579698673506 $261 -44.22368213236393331 $199 $287 forward 7 unknown #
edge $-1 $266 -18.95298926997380917 $204 -12.65158174900176746 $203 $288 forward 7 unknown #
vertex $-1 $201 $289 #
straight-curve $-1 0 50.20804110128018749 74.08322021921837575 0 -0.788010747574649173 0.6156614830463592591 I I #
edge $-1 $261 -43.48475373847060865 $208 -23.77651975324565825 $207 $290 forward 7 unknown #
point $-1 0 104.5782315939734701 31.60457101897557664 #
point $-1 19.7082339852249504 96.51279792935066837 37.90597853994762545 #
vertex $-1 $211 $291 #
straight-curve $-1 77.1153904843287421 104.5782315939734701 37.90597853994761834 -1 0 0 I I #
vertex $-1 $214 $292 #
point $-1 7.130923995778559288 96.94818744906609709 30.15090588043143427 #
vertex $-1 $218 $293 #
point $-1 15.57730998944639111 96.94818744906609709 30.15090588043143427 #
straight-curve $-1 0 104.5782315939734701 18.95298926997380917 0 0 -1 I I #
straight-curve $-1 77.1153904843287421 104.5782315939734701 0 1 0 0 I I #
point $-1 154.2307809686574842 104.5782315939734701 0 #
straight-curve $-1 0 52.28911579698673506 37.90597853994761834 0 -1 0 I I #
point $-1 0 104.5782315939734701 37.90597853994761834 #
straight-curve $-1 154.2307809686574842 104.5782315939734701 18.95298926997380917 0 0 -1 I I #
point $-1 0 104.5782315939734701 0 #
edge $-1 $281 -18.95298926997380917 $249 18.95298926997380917 $241 $294 forward 7 unknown #
straight-curve $-1 34.80618408831284682 -14.93197322677690408 0 -1 0 0 I I #
vertex $-1 $255 $295 #
straight-curve $-1 34.80618408831284682 -14.93197322677690408 37.90597853994761834 1 0 0 I I #
point $-1 31.7063896366780682 -14.93197322677690408 37.90597853994761834 #
point $-1 31.7063896366780682 -14.93197322677690408 0 #
point $-1 37.90597853994762545 -14.93197322677690408 0 #
straight-curve $-1 37.90597853994762545 -7.465986613388452042 37.90597853994761834 0 1 0 I I #
straight-curve $-1 0 52.28911579698673506 37.90597853994761834 0 -1 0 I I #
straight-curve $-1 0 104.5782315939734701 18.95298926997380917 0 0 -1 I I #
point $-1 0 96.51279792935066837 37.90597853994762545 #
straight-curve $-1 43.48475373847060865 96.51279792935068258 37.90597853994761124 1 0 0 I I #
point $-1 0 104.5782315939734701 37.90597853994761834 #
point $-1 5.630923995778559288 96.02469522449655415 28.96888975906945873 #
point $-1 14.07730998944639111 96.02469522449655415 28.96888975906945873 #
straight-curve $-1 37.90597853994762545 -14.93197322677690408 18.95298926997380917 0 0 -1 I I #
point $-1 37.90597853994762545 -14.93197322677690408 37.90597853994761834 #
End-of-ACIS-data 