600 0 9 0           
96 GICL ACIS Healer - Source: /gicl/data5/repository/Drexel/SM99-DATA/part105.smdg.deltas.sat - 6 0 18 ACIS 6.0.3 Solaris 24 Sat Apr 13 20:43:26 2002 
1 9.999999999999999547e-07 1.000000000000000036e-10 
body $-1 $9 $-1 $-1 #
body $-1 $10 $-1 $-1 #
body $-1 $11 $-1 $-1 #
body $-1 $12 $-1 $-1 #
body $-1 $13 $-1 $-1 #
body $-1 $14 $-1 $-1 #
body $-1 $15 $-1 $-1 #
body $-1 $16 $-1 $-1 #
body $-1 $17 $-1 $-1 #
lump $-1 $-1 $18 $0 #
lump $-1 $-1 $19 $1 #
lump $-1 $-1 $20 $2 #
lump $-1 $-1 $21 $3 #
lump $-1 $-1 $22 $4 #
lump $-1 $-1 $23 $5 #
lump $-1 $-1 $24 $6 #
lump $-1 $-1 $25 $7 #
lump $-1 $-1 $26 $8 #
shell $-1 $-1 $-1 $27 $-1 $9 #
shell $-1 $-1 $-1 $28 $-1 $10 #
shell $-1 $-1 $-1 $29 $-1 $11 #
shell $-1 $-1 $-1 $30 $-1 $12 #
shell $-1 $-1 $-1 $31 $-1 $13 #
shell $-1 $-1 $-1 $32 $-1 $14 #
shell $-1 $-1 $-1 $33 $-1 $15 #
shell $-1 $-1 $-1 $34 $-1 $16 #
shell $-1 $-1 $-1 $35 $-1 $17 #
face $-1 $36 $37 $18 $-1 $38 forward single #
face $-1 $39 $40 $19 $-1 $41 reversed single #
face $-1 $42 $43 $20 $-1 $44 forward single #
face $-1 $45 $46 $21 $-1 $47 forward single #
face $-1 $48 $49 $22 $-1 $50 forward single #
face $-1 $51 $52 $23 $-1 $53 reversed single #
face $-1 $54 $55 $24 $-1 $56 forward single #
face $-1 $57 $58 $25 $-1 $59 forward single #
face $-1 $60 $61 $26 $-1 $62 forward single #
face $-1 $63 $64 $18 $-1 $65 reversed single #
loop $-1 $-1 $66 $27 #
plane-surface $-1 53.50871303445539695 25.6362371955109829 19.8970123176951823 0 0 1 1 0 0 forward_v I I I I #
face $-1 $67 $68 $19 $-1 $69 reversed single #
loop $-1 $-1 $70 $28 #
plane-surface $-1 31.85353959005136204 -64.40469556268749329 96.99943554803709844 -1 0 0 0 -0.6018150307709319025 0.7986355043060522352 forward_v I I I I #
face $-1 $71 $72 $20 $-1 $73 forward single #
loop $-1 $74 $75 $29 #
cone-surface $-1 20.97275418714302475 6.305839582213376815 14.71215103979740846 0 0.6018150307709319025 -0.7986355043060522352 1 0 0 1 I I 0 1 1 forward I I I I #
face $-1 $76 $77 $21 $-1 $78 forward single #
loop $-1 $79 $80 $30 #
cone-surface $-1 25.05304871323365035 6.305839582213376815 14.71215103979740846 0 0.6018150307709319025 -0.7986355043060522352 1 0 0 1 I I 0 1 1 forward I I I I #
face $-1 $81 $82 $22 $-1 $83 forward single #
loop $-1 $84 $85 $31 #
cone-surface $-1 29.13334323932427949 6.305839582213376815 14.71215103979740846 0 0.6018150307709319025 -0.7986355043060522352 1 0 0 1 I I 0 1 1 forward I I I I #
face $-1 $86 $87 $23 $-1 $88 reversed single #
loop $-1 $-1 $89 $32 #
plane-surface $-1 88.76486823249487657 -64.40469556268749329 96.99943554803709844 -1 0 0 0 -0.6018150307709319025 0.7986355043060522352 forward_v I I I I #
face $-1 $90 $91 $24 $-1 $92 forward single #
loop $-1 $93 $94 $33 #
cone-surface $-1 77.88408282958651796 6.305839582213376815 14.71215103979740846 0 0.6018150307709319025 -0.7986355043060522352 1 0 0 1 I I 0 1 1 forward I I I I #
face $-1 $95 $96 $25 $-1 $97 forward single #
loop $-1 $98 $99 $34 #
cone-surface $-1 81.96437735567715777 6.305839582213376815 14.71215103979740846 0 0.6018150307709319025 -0.7986355043060522352 1 0 0 1 I I 0 1 1 forward I I I I #
face $-1 $100 $101 $26 $-1 $102 forward single #
loop $-1 $103 $104 $35 #
cone-surface $-1 86.04467188176778336 6.305839582213376815 14.71215103979740846 0 0.6018150307709319025 -0.7986355043060522352 1 0 0 1 I I 0 1 1 forward I I I I #
face $-1 $105 $106 $18 $-1 $107 reversed single #
loop $-1 $-1 $108 $36 #
plane-surface $-1 53.50871303445539695 25.6362371955109829 0 0 0 1 1 0 0 forward_v I I I I #
coedge $-1 $109 $110 $111 $112 forward $37 $-1 #
face $-1 $113 $114 $19 $-1 $115 reversed single #
loop $-1 $-1 $116 $39 #
plane-surface $-1 25.05304871323365035 -1.776356839400250465e-14 11.5315195099568637 0 -0.6018150307709319025 0.7986355043060522352 1 0 0 forward_v I I I I #
coedge $-1 $117 $118 $119 $120 reversed $40 $-1 #
face $-1 $-1 $121 $20 $-1 $122 forward single #
loop $-1 $123 $124 $42 #
cone-surface $-1 20.97275418714302475 7.361894834580020586 13.31071841361577235 0 0.6018150307709319025 -0.7986355043060522352 0.5 0 0 1 I I -0.7071067811865474617 0.7071067811865474617 0.5 forward I I I I #
loop $-1 $-1 $125 $29 #
coedge $-1 $75 $75 $126 $127 reversed $43 $-1 #
face $-1 $-1 $128 $21 $-1 $129 forward single #
loop $-1 $130 $131 $45 #
cone-surface $-1 25.05304871323365035 7.361894834580020586 13.31071841361577235 0 0.6018150307709319025 -0.7986355043060522352 0.5 0 0 1 I I -0.7071067811865474617 0.7071067811865474617 0.5 forward I I I I #
loop $-1 $-1 $132 $30 #
coedge $-1 $80 $80 $133 $134 reversed $46 $-1 #
face $-1 $-1 $135 $22 $-1 $136 forward single #
loop $-1 $137 $138 $48 #
cone-surface $-1 29.13334323932427949 7.361894834580020586 13.31071841361577235 0 0.6018150307709319025 -0.7986355043060522352 0.5 0 0 1 I I -0.7071067811865474617 0.7071067811865474617 0.5 forward I I I I #
loop $-1 $-1 $139 $31 #
coedge $-1 $85 $85 $140 $141 reversed $49 $-1 #
face $-1 $142 $143 $23 $-1 $144 reversed single #
loop $-1 $-1 $145 $51 #
plane-surface $-1 81.96437735567715777 -1.776356839400250465e-14 11.5315195099568637 0 -0.6018150307709319025 0.7986355043060522352 1 0 0 forward_v I I I I #
coedge $-1 $146 $147 $148 $149 reversed $52 $-1 #
face $-1 $-1 $150 $24 $-1 $151 forward single #
loop $-1 $152 $153 $54 #
cone-surface $-1 77.88408282958651796 7.361894834580020586 13.31071841361577235 0 0.6018150307709319025 -0.7986355043060522352 0.5 0 0 1 I I -0.7071067811865474617 0.7071067811865474617 0.5 forward I I I I #
loop $-1 $-1 $154 $33 #
coedge $-1 $94 $94 $155 $156 reversed $55 $-1 #
face $-1 $-1 $157 $25 $-1 $158 forward single #
loop $-1 $159 $160 $57 #
cone-surface $-1 81.96437735567715777 7.361894834580020586 13.31071841361577235 0 0.6018150307709319025 -0.7986355043060522352 0.5 0 0 1 I I -0.7071067811865474617 0.7071067811865474617 0.5 forward I I I I #
loop $-1 $-1 $161 $34 #
coedge $-1 $99 $99 $162 $163 reversed $58 $-1 #
face $-1 $-1 $164 $26 $-1 $165 forward single #
loop $-1 $166 $167 $60 #
cone-surface $-1 86.04467188176778336 7.361894834580020586 13.31071841361577235 0 0.6018150307709319025 -0.7986355043060522352 0.5 0 0 1 I I -0.7071067811865474617 0.7071067811865474617 0.5 forward I I I I #
loop $-1 $-1 $168 $35 #
coedge $-1 $104 $104 $169 $170 reversed $61 $-1 #
face $-1 $171 $172 $18 $-1 $173 reversed single #
loop $-1 $-1 $174 $63 #
plane-surface $-1 53.50871303445539695 0 9.948506158847591152 0 1 0 0 0 1 forward_v I I I I #
coedge $-1 $175 $176 $177 $178 forward $64 $-1 #
coedge $-1 $179 $66 $180 $181 forward $37 $-1 #
coedge $-1 $66 $179 $182 $183 forward $37 $-1 #
coedge $-1 $184 $185 $66 $112 reversed $186 $-1 #
edge $-1 $187 -25.6362371955109829 $188 25.6362371955109829 $111 $189 forward 7 unknown #
face $-1 $190 $191 $19 $-1 $192 reversed single #
loop $-1 $-1 $193 $67 #
plane-surface $-1 18.25255783641593865 -64.40469556268749329 96.99943554803709844 1 0 0 0 0.6018150307709319025 -0.7986355043060522352 forward_v I I I I #
coedge $-1 $194 $195 $196 $197 reversed $68 $-1 #
coedge $-1 $118 $70 $198 $199 reversed $40 $-1 #
coedge $-1 $70 $117 $194 $200 reversed $40 $-1 #
coedge $-1 $196 $201 $70 $120 forward $202 $-1 #
edge $-1 $203 19.38422918358825697 $204 30.48561287405262377 $119 $205 forward 7 unknown #
loop $-1 $-1 $126 $71 #
plane-surface $-1 25.05304871323365035 -1.776356839400250465e-14 11.5315195099568637 0 -0.6018150307709319025 0.7986355043060522352 1 0 0 forward_v I I I I #
loop $-1 $-1 $206 $42 #
coedge $-1 $124 $124 $125 $207 reversed $72 $-1 #
coedge $-1 $125 $125 $124 $207 forward $74 $-1 #
coedge $-1 $126 $126 $75 $127 forward $121 $-1 #
edge $-1 $208 -1.808621160699022645e-15 $208 6.283185307179584456 $126 $209 forward 7 unknown #
loop $-1 $-1 $133 $76 #
plane-surface $-1 25.05304871323365035 -1.776356839400250465e-14 11.5315195099568637 0 -0.6018150307709319025 0.7986355043060522352 1 0 0 forward_v I I I I #
loop $-1 $-1 $210 $45 #
coedge $-1 $131 $131 $132 $211 reversed $77 $-1 #
coedge $-1 $132 $132 $131 $211 forward $79 $-1 #
coedge $-1 $133 $133 $80 $134 forward $128 $-1 #
edge $-1 $212 -1.808621160699022645e-15 $212 6.283185307179584456 $133 $213 forward 7 unknown #
loop $-1 $-1 $140 $81 #
plane-surface $-1 25.05304871323365035 -1.776356839400250465e-14 11.5315195099568637 0 -0.6018150307709319025 0.7986355043060522352 1 0 0 forward_v I I I I #
loop $-1 $-1 $214 $48 #
coedge $-1 $138 $138 $139 $215 reversed $82 $-1 #
coedge $-1 $139 $139 $138 $215 forward $84 $-1 #
coedge $-1 $140 $140 $85 $141 forward $135 $-1 #
edge $-1 $216 -1.808621160699022645e-15 $216 6.283185307179584456 $140 $217 forward 7 unknown #
face $-1 $218 $219 $23 $-1 $220 reversed single #
loop $-1 $-1 $221 $86 #
plane-surface $-1 75.16388647885943897 -64.40469556268749329 96.99943554803709844 1 0 0 0 0.6018150307709319025 -0.7986355043060522352 forward_v I I I I #
coedge $-1 $222 $223 $224 $225 reversed $87 $-1 #
coedge $-1 $147 $89 $226 $227 reversed $52 $-1 #
coedge $-1 $89 $146 $222 $228 reversed $52 $-1 #
coedge $-1 $224 $229 $89 $149 forward $230 $-1 #
edge $-1 $231 19.38422918358825697 $232 30.48561287405262377 $148 $233 forward 7 unknown #
loop $-1 $-1 $155 $90 #
plane-surface $-1 81.96437735567715777 -1.776356839400250465e-14 11.5315195099568637 0 -0.6018150307709319025 0.7986355043060522352 1 0 0 forward_v I I I I #
loop $-1 $-1 $234 $54 #
coedge $-1 $153 $153 $154 $235 reversed $91 $-1 #
coedge $-1 $154 $154 $153 $235 forward $93 $-1 #
coedge $-1 $155 $155 $94 $156 forward $150 $-1 #
edge $-1 $236 -1.808621160699022645e-15 $236 6.283185307179584456 $155 $237 forward 7 unknown #
loop $-1 $-1 $162 $95 #
plane-surface $-1 81.96437735567715777 -1.776356839400250465e-14 11.5315195099568637 0 -0.6018150307709319025 0.7986355043060522352 1 0 0 forward_v I I I I #
loop $-1 $-1 $238 $57 #
coedge $-1 $160 $160 $161 $239 reversed $96 $-1 #
coedge $-1 $161 $161 $160 $239 forward $98 $-1 #
coedge $-1 $162 $162 $99 $163 forward $157 $-1 #
edge $-1 $240 -1.808621160699022645e-15 $240 6.283185307179584456 $162 $241 forward 7 unknown #
loop $-1 $-1 $169 $100 #
plane-surface $-1 81.96437735567715777 -1.776356839400250465e-14 11.5315195099568637 0 -0.6018150307709319025 0.7986355043060522352 1 0 0 forward_v I I I I #
loop $-1 $-1 $242 $60 #
coedge $-1 $167 $167 $168 $243 reversed $101 $-1 #
coedge $-1 $168 $168 $167 $243 forward $103 $-1 #
coedge $-1 $169 $169 $104 $170 forward $164 $-1 #
edge $-1 $244 -1.808621160699022645e-15 $244 6.283185307179584456 $169 $245 forward 7 unknown #
face $-1 $246 $247 $18 $-1 $248 reversed single #
loop $-1 $-1 $249 $105 #
plane-surface $-1 0 25.6362371955109829 9.948506158847591152 1 0 0 0 0 -1 forward_v I I I I #
coedge $-1 $250 $182 $251 $252 forward $106 $-1 #
coedge $-1 $253 $108 $250 $254 forward $64 $-1 #
coedge $-1 $108 $253 $255 $256 forward $64 $-1 #
coedge $-1 $185 $184 $108 $178 reversed $186 $-1 #
edge $-1 $257 -25.6362371955109829 $258 25.6362371955109829 $177 $259 forward 7 unknown #
coedge $-1 $110 $109 $260 $261 forward $37 $-1 #
coedge $-1 $262 $263 $109 $181 reversed $247 $-1 #
edge $-1 $188 -53.50871303445539695 $264 53.50871303445539695 $180 $265 forward 7 unknown #
coedge $-1 $174 $266 $110 $183 reversed $106 $-1 #
edge $-1 $267 -53.50871303445539695 $187 53.50871303445539695 $182 $268 forward 7 unknown #
coedge $-1 $177 $111 $266 $269 forward $186 $-1 #
coedge $-1 $111 $177 $262 $270 reversed $186 $-1 #
loop $-1 $-1 $184 $246 #
vertex $-1 $112 $271 #
vertex $-1 $112 $272 #
straight-curve $-1 107.0174260689107939 25.6362371955109829 19.8970123176951823 0 1 0 I I #
face $-1 $-1 $202 $19 $-1 $273 forward single #
loop $-1 $-1 $274 $113 #
plane-surface $-1 53.50871303445539695 0 9.948506158847591152 0 1 0 0 0 1 forward_v I I I I #
coedge $-1 $275 $276 $277 $278 reversed $114 $-1 #
coedge $-1 $279 $116 $118 $200 forward $68 $-1 #
coedge $-1 $116 $279 $275 $280 forward $68 $-1 #
coedge $-1 $277 $119 $116 $197 forward $202 $-1 #
edge $-1 $204 7.427341283793161608 $281 21.028323037428585 $196 $282 forward 7 unknown #
coedge $-1 $283 $284 $117 $199 forward $191 $-1 #
edge $-1 $285 -41.9424513434854731 $203 -33.57695853574716693 $198 $286 forward 7 unknown #
edge $-1 $204 -13.90043847363205387 $285 -2.166988412436595961e-14 $118 $287 forward 7 unknown #
coedge $-1 $119 $277 $283 $288 forward $202 $-1 #
loop $-1 $-1 $277 $190 #
vertex $-1 $199 $289 #
vertex $-1 $120 $290 #
straight-curve $-1 31.85353959005136204 -19.38422918358825697 19.89701231769518586 0 1 0 I I #
coedge $-1 $206 $206 $-1 $291 reversed $123 $-1 #
edge $-1 $292 0 $292 6.283185307179586232 $124 $293 forward 7 unknown #
vertex $-1 $127 $294 #
ellipse-curve $-1 20.97275418714302475 5.550691845232190502 15.71426591382603277 0 -0.6018150307709319025 0.7986355043060522352 1 0 0 1 I I #
coedge $-1 $210 $210 $-1 $295 reversed $130 $-1 #
edge $-1 $296 0 $296 6.283185307179586232 $131 $297 forward 7 unknown #
vertex $-1 $134 $298 #
ellipse-curve $-1 25.05304871323365035 5.550691845232190502 15.71426591382603277 0 -0.6018150307709319025 0.7986355043060522352 1 0 0 1 I I #
coedge $-1 $214 $214 $-1 $299 reversed $137 $-1 #
edge $-1 $300 0 $300 6.283185307179586232 $138 $301 forward 7 unknown #
vertex $-1 $141 $302 #
ellipse-curve $-1 29.13334323932427949 5.550691845232190502 15.71426591382603277 0 -0.6018150307709319025 0.7986355043060522352 1 0 0 1 I I #
face $-1 $-1 $230 $23 $-1 $303 forward single #
loop $-1 $-1 $304 $142 #
plane-surface $-1 53.50871303445539695 0 9.948506158847591152 0 1 0 0 0 1 forward_v I I I I #
coedge $-1 $305 $306 $307 $308 reversed $143 $-1 #
coedge $-1 $309 $145 $147 $228 forward $87 $-1 #
coedge $-1 $145 $309 $305 $310 forward $87 $-1 #
coedge $-1 $307 $148 $145 $225 forward $230 $-1 #
edge $-1 $232 -21.02832303742860631 $311 -7.427341283793168714 $224 $312 forward 7 unknown #
coedge $-1 $313 $314 $146 $227 forward $219 $-1 #
edge $-1 $315 -41.9424513434854731 $231 -33.57695853574716693 $226 $316 forward 7 unknown #
edge $-1 $232 -13.90043847363205387 $315 -2.166988412436595961e-14 $147 $317 forward 7 unknown #
coedge $-1 $148 $307 $313 $318 forward $230 $-1 #
loop $-1 $-1 $307 $218 #
vertex $-1 $227 $319 #
vertex $-1 $149 $320 #
straight-curve $-1 88.76486823249487657 -19.38422918358825697 19.89701231769518586 0 1 0 I I #
coedge $-1 $234 $234 $-1 $321 reversed $152 $-1 #
edge $-1 $322 0 $322 6.283185307179586232 $153 $323 forward 7 unknown #
vertex $-1 $156 $324 #
ellipse-curve $-1 77.88408282958651796 5.550691845232190502 15.71426591382603277 0 -0.6018150307709319025 0.7986355043060522352 1 0 0 1 I I #
coedge $-1 $238 $238 $-1 $325 reversed $159 $-1 #
edge $-1 $326 0 $326 6.283185307179586232 $160 $327 forward 7 unknown #
vertex $-1 $163 $328 #
ellipse-curve $-1 81.96437735567715777 5.550691845232190502 15.71426591382603277 0 -0.6018150307709319025 0.7986355043060522352 1 0 0 1 I I #
coedge $-1 $242 $242 $-1 $329 reversed $166 $-1 #
edge $-1 $330 0 $330 6.283185307179586232 $167 $331 forward 7 unknown #
vertex $-1 $170 $332 #
ellipse-curve $-1 86.04467188176778336 5.550691845232190502 15.71426591382603277 0 -0.6018150307709319025 0.7986355043060522352 1 0 0 1 I I #
face $-1 $-1 $186 $18 $-1 $333 reversed single #
loop $-1 $-1 $262 $171 #
plane-surface $-1 53.50871303445539695 51.2724743910219658 9.948506158847591152 0 -1 0 0 0 -1 forward_v I I I I #
coedge $-1 $334 $260 $263 $335 forward $172 $-1 #
coedge $-1 $266 $174 $175 $254 reversed $106 $-1 #
coedge $-1 $260 $334 $174 $252 reversed $172 $-1 #
edge $-1 $267 -9.948506158847591152 $336 9.948506158847591152 $251 $337 forward 7 unknown #
coedge $-1 $176 $175 $334 $338 forward $64 $-1 #
edge $-1 $258 -53.50871303445539695 $336 53.50871303445539695 $250 $339 forward 7 unknown #
coedge $-1 $263 $262 $176 $256 reversed $247 $-1 #
edge $-1 $340 -53.50871303445539695 $257 53.50871303445539695 $255 $341 forward 7 unknown #
vertex $-1 $178 $342 #
vertex $-1 $269 $343 #
straight-curve $-1 107.0174260689107939 25.6362371955109829 0 0 -1 0 I I #
coedge $-1 $249 $251 $179 $261 reversed $172 $-1 #
edge $-1 $264 -25.6362371955109829 $267 25.6362371955109829 $260 $344 forward 7 unknown #
coedge $-1 $255 $180 $185 $270 forward $247 $-1 #
coedge $-1 $180 $255 $249 $335 reversed $247 $-1 #
vertex $-1 $181 $345 #
straight-curve $-1 53.50871303445539695 51.2724743910219658 19.8970123176951823 -1 0 0 I I #
coedge $-1 $182 $250 $184 $269 reversed $106 $-1 #
vertex $-1 $261 $346 #
straight-curve $-1 53.50871303445539695 0 19.8970123176951823 1 0 0 I I #
edge $-1 $187 -9.948506158847591152 $258 9.948506158847591152 $184 $347 forward 7 unknown #
edge $-1 $188 -9.948506158847591152 $257 9.948506158847591152 $185 $348 forward 7 unknown #
point $-1 107.0174260689107939 0 19.8970123176951823 #
point $-1 107.0174260689107939 51.2724743910219658 19.8970123176951823 #
plane-surface $-1 53.50871303445539695 25.6362371955109829 19.8970123176951823 0 0 1 1 0 0 forward_v I I I I #
coedge $-1 $284 $283 $276 $349 forward $191 $-1 #
coedge $-1 $276 $193 $195 $280 reversed $114 $-1 #
coedge $-1 $193 $275 $274 $349 reversed $114 $-1 #
coedge $-1 $201 $196 $193 $278 forward $202 $-1 #
edge $-1 $281 -30.48561287405262377 $350 -19.38422918358825697 $277 $351 forward 7 unknown #
coedge $-1 $195 $194 $284 $352 reversed $68 $-1 #
edge $-1 $353 2.166988412436595961e-14 $281 13.90043847363205387 $275 $354 forward 7 unknown #
vertex $-1 $197 $355 #
straight-curve $-1 39.28088087384452365 11.10138369046436679 19.8970123176951823 -1 0 0 I I #
coedge $-1 $274 $198 $201 $288 reversed $191 $-1 #
coedge $-1 $198 $274 $279 $352 forward $191 $-1 #
vertex $-1 $199 $356 #
straight-curve $-1 31.85353959005136204 -3.552713678800500929e-15 53.47397085344234569 0 0 1 I I #
straight-curve $-1 31.85353959005136204 -1.776356839400250465e-14 11.5315195099568637 0 -0.7986355043060522352 -0.6018150307709319025 I I #
edge $-1 $350 -35.2561551980394583 $203 -21.65517344440403491 $283 $357 forward 7 unknown #
point $-1 31.85353959005136204 0 19.8970123176951823 #
point $-1 31.85353959005136204 11.10138369046436679 19.8970123176951823 #
edge $-1 $358 1 $358 0 $206 $-1 forward 7 unknown #
vertex $-1 $207 $359 #
ellipse-curve $-1 20.97275418714302475 7.060987319194556022 13.71003616576879836 0 -0.6018150307709319025 0.7986355043060522352 1 0 0 1 I I #
point $-1 21.97275418714302475 5.550691845232197608 15.71426591382602034 #
edge $-1 $360 1 $360 0 $210 $-1 forward 7 unknown #
vertex $-1 $211 $361 #
ellipse-curve $-1 25.05304871323365035 7.060987319194556022 13.71003616576879836 0 -0.6018150307709319025 0.7986355043060522352 1 0 0 1 I I #
point $-1 26.05304871323365035 5.550691845232197608 15.71426591382602034 #
edge $-1 $362 1 $362 0 $214 $-1 forward 7 unknown #
vertex $-1 $215 $363 #
ellipse-curve $-1 29.13334323932427949 7.060987319194556022 13.71003616576879836 0 -0.6018150307709319025 0.7986355043060522352 1 0 0 1 I I #
point $-1 30.13334323932427949 5.550691845232197608 15.71426591382602034 #
plane-surface $-1 53.50871303445539695 25.6362371955109829 19.8970123176951823 0 0 1 1 0 0 forward_v I I I I #
coedge $-1 $314 $313 $306 $364 forward $219 $-1 #
coedge $-1 $306 $221 $223 $310 reversed $143 $-1 #
coedge $-1 $221 $305 $304 $364 reversed $143 $-1 #
coedge $-1 $229 $224 $221 $308 forward $230 $-1 #
edge $-1 $311 -30.48561287405262377 $365 -19.38422918358825697 $307 $366 forward 7 unknown #
coedge $-1 $223 $222 $314 $367 reversed $87 $-1 #
edge $-1 $368 2.166988412436595961e-14 $311 13.90043847363205387 $305 $369 forward 7 unknown #
vertex $-1 $225 $370 #
straight-curve $-1 67.73654519506627025 11.10138369046436679 19.8970123176951823 -1 0 0 I I #
coedge $-1 $304 $226 $229 $318 reversed $219 $-1 #
coedge $-1 $226 $304 $309 $367 forward $219 $-1 #
vertex $-1 $227 $371 #
straight-curve $-1 88.76486823249487657 -3.552713678800500929e-15 53.47397085344234569 0 0 1 I I #
straight-curve $-1 88.76486823249487657 -1.776356839400250465e-14 11.5315195099568637 0 -0.7986355043060522352 -0.6018150307709319025 I I #
edge $-1 $365 21.65517344440404202 $231 35.25615519803947961 $313 $372 forward 7 unknown #
point $-1 88.76486823249487657 0 19.8970123176951823 #
point $-1 88.76486823249487657 11.10138369046436679 19.8970123176951823 #
edge $-1 $373 1 $373 0 $234 $-1 forward 7 unknown #
vertex $-1 $235 $374 #
ellipse-curve $-1 77.88408282958651796 7.060987319194556022 13.71003616576879836 0 -0.6018150307709319025 0.7986355043060522352 1 0 0 1 I I #
point $-1 78.88408282958651796 5.550691845232197608 15.71426591382602034 #
edge $-1 $375 1 $375 0 $238 $-1 forward 7 unknown #
vertex $-1 $239 $376 #
ellipse-curve $-1 81.96437735567715777 7.060987319194556022 13.71003616576879836 0 -0.6018150307709319025 0.7986355043060522352 1 0 0 1 I I #
point $-1 82.96437735567715777 5.550691845232197608 15.71426591382602034 #
edge $-1 $377 1 $377 0 $242 $-1 forward 7 unknown #
vertex $-1 $243 $378 #
ellipse-curve $-1 86.04467188176778336 7.060987319194556022 13.71003616576879836 0 -0.6018150307709319025 0.7986355043060522352 1 0 0 1 I I #
point $-1 87.04467188176778336 5.550691845232197608 15.71426591382602034 #
plane-surface $-1 107.0174260689107939 25.6362371955109829 9.948506158847591152 -1 0 0 0 0 1 forward_v I I I I #
coedge $-1 $251 $249 $253 $338 reversed $172 $-1 #
edge $-1 $264 -9.948506158847591152 $340 9.948506158847591152 $263 $379 forward 7 unknown #
vertex $-1 $338 $380 #
straight-curve $-1 0 0 9.948506158847591152 0 0 -1 I I #
edge $-1 $336 -25.6362371955109829 $340 25.6362371955109829 $334 $381 forward 7 unknown #
straight-curve $-1 53.50871303445539695 0 0 -1 0 0 I I #
vertex $-1 $256 $382 #
straight-curve $-1 53.50871303445539695 51.2724743910219658 0 1 0 0 I I #
point $-1 107.0174260689107939 51.2724743910219658 0 #
point $-1 107.0174260689107939 0 0 #
straight-curve $-1 0 25.6362371955109829 19.8970123176951823 0 -1 0 I I #
point $-1 0 51.2724743910219658 19.8970123176951823 #
point $-1 0 0 19.8970123176951823 #
straight-curve $-1 107.0174260689107939 0 9.948506158847591152 0 0 -1 I I #
straight-curve $-1 107.0174260689107939 51.2724743910219658 9.948506158847591152 0 0 -1 I I #
edge $-1 $350 33.57695853574716693 $353 41.9424513434854731 $274 $383 forward 7 unknown #
vertex $-1 $288 $384 #
straight-curve $-1 18.25255783641593865 -19.38422918358825697 19.89701231769518586 0 -1 0 I I #
edge $-1 $353 -21.028323037428585 $285 -7.427341283793161608 $284 $385 forward 7 unknown #
vertex $-1 $352 $386 #
straight-curve $-1 18.25255783641593865 -1.776356839400250465e-14 11.5315195099568637 0 0.7986355043060522352 0.6018150307709319025 I I #
point $-1 18.25255783641593865 11.10138369046436679 19.8970123176951823 #
point $-1 31.85353959005136204 0 11.53151950995687613 #
straight-curve $-1 53.50871303445539695 0 19.8970123176951823 1 0 0 I I #
vertex $-1 $291 $387 #
point $-1 21.97275418714302475 7.060987319194556022 13.71003616576879836 #
vertex $-1 $295 $388 #
point $-1 26.05304871323365035 7.060987319194556022 13.71003616576879836 #
vertex $-1 $299 $389 #
point $-1 30.13334323932427949 7.060987319194556022 13.71003616576879836 #
edge $-1 $365 33.57695853574716693 $368 41.9424513434854731 $304 $390 forward 7 unknown #
vertex $-1 $318 $391 #
straight-curve $-1 75.16388647885943897 -19.38422918358825697 19.89701231769518586 0 -1 0 I I #
edge $-1 $368 7.427341283793168714 $315 21.02832303742860631 $314 $392 forward 7 unknown #
vertex $-1 $367 $393 #
straight-curve $-1 75.16388647885943897 -1.776356839400250465e-14 11.5315195099568637 0 0.7986355043060522352 0.6018150307709319025 I I #
point $-1 75.16388647885943897 11.10138369046436679 19.8970123176951823 #
point $-1 88.76486823249487657 0 11.53151950995687613 #
straight-curve $-1 53.50871303445539695 0 19.8970123176951823 1 0 0 I I #
vertex $-1 $321 $394 #
point $-1 78.88408282958651796 7.060987319194556022 13.71003616576879836 #
vertex $-1 $325 $395 #
point $-1 82.96437735567715777 7.060987319194556022 13.71003616576879836 #
vertex $-1 $329 $396 #
point $-1 87.04467188176778336 7.060987319194556022 13.71003616576879836 #
straight-curve $-1 0 51.2724743910219658 9.948506158847591152 0 0 -1 I I #
point $-1 0 0 0 #
straight-curve $-1 0 25.6362371955109829 0 0 1 0 I I #
point $-1 0 51.2724743910219658 0 #
straight-curve $-1 18.25255783641593865 -3.552713678800500929e-15 53.47397085344234569 0 0 -1 I I #
point $-1 18.25255783641593865 0 19.8970123176951823 #
straight-curve $-1 39.28088087384452365 0 11.53151950995687791 1 0 0 I I #
point $-1 18.25255783641593865 0 11.53151950995687613 #
point $-1 20.97275418714302475 7.662802349965485149 12.91140066146274634 #
point $-1 25.05304871323365035 7.662802349965485149 12.91140066146274634 #
point $-1 29.13334323932427949 7.662802349965485149 12.91140066146274634 #
straight-curve $-1 75.16388647885943897 -3.552713678800500929e-15 53.47397085344234569 0 0 -1 I I #
point $-1 75.16388647885943897 0 19.8970123176951823 #
straight-curve $-1 67.73654519506627025 0 11.53151950995687791 1 0 0 I I #
point $-1 75.16388647885943897 0 11.53151950995687613 #
point $-1 77.88408282958651796 7.662802349965485149 12.91140066146274634 #
point $-1 81.96437735567715777 7.662802349965485149 12.91140066146274634 #
point $-1 86.04467188176778336 7.662802349965485149 12.91140066146274634 #
End-of-ACIS-data 