600 0 5 0           
96 GICL ACIS Healer - Source: /gicl/data5/repository/Drexel/SM99-DATA/part121.smdg.deltas.sat - 6 0 18 ACIS 6.0.3 Solaris 24 Sat Apr 13 20:45:01 2002 
1 9.999999999999999547e-07 1.000000000000000036e-10 
body $-1 $5 $-1 $-1 #
body $-1 $6 $-1 $-1 #
body $-1 $7 $-1 $-1 #
body $-1 $8 $-1 $-1 #
body $-1 $9 $-1 $-1 #
lump $-1 $-1 $10 $0 #
lump $-1 $-1 $11 $1 #
lump $-1 $-1 $12 $2 #
lump $-1 $-1 $13 $3 #
lump $-1 $-1 $14 $4 #
shell $-1 $-1 $-1 $15 $-1 $5 #
shell $-1 $-1 $-1 $16 $-1 $6 #
shell $-1 $-1 $-1 $17 $-1 $7 #
shell $-1 $-1 $-1 $18 $-1 $8 #
shell $-1 $-1 $-1 $19 $-1 $9 #
face $-1 $20 $21 $10 $-1 $22 forward single #
face $-1 $23 $24 $11 $-1 $25 forward single #
face $-1 $26 $27 $12 $-1 $28 reversed single #
face $-1 $29 $30 $13 $-1 $31 forward single #
face $-1 $32 $33 $14 $-1 $34 forward single #
face $-1 $35 $36 $10 $-1 $37 reversed single #
loop $-1 $-1 $38 $15 #
plane-surface $-1 78.64131595812860098 38.25913101448773546 32.55091116819031072 0 0 1 1 0 0 forward_v I I I I #
face $-1 $39 $40 $11 $-1 $41 reversed single #
loop $-1 $-1 $42 $16 #
plane-surface $-1 10.0355044247247065 38.25913101448773546 5.580427627557845938 0 0 1 1 0 0 forward_v I I I I #
face $-1 $43 $44 $12 $-1 $45 reversed single #
loop $-1 $-1 $46 $17 #
plane-surface $-1 104.5057039628281075 -125.6114962555035106 111.9251408080195205 1 0 0 0 0.7986355182712320255 -0.6018150122385121925 forward_v I I I I #
face $-1 $47 $48 $13 $-1 $49 forward single #
loop $-1 $50 $51 $18 #
cone-surface $-1 114.1834816731996227 7.575882469521189932 23.54022302590902171 0 0.7986355182712320255 -0.6018150122385121925 2.5 0 0 1 I I 0 1 2.5 forward I I I I #
face $-1 $52 $53 $14 $-1 $54 forward single #
loop $-1 $55 $56 $19 #
cone-surface $-1 128.7001482387568956 7.575882469521189932 23.54022302590902171 0 0.7986355182712320255 -0.6018150122385121925 2.5 0 0 1 I I 0 1 2.5 forward I I I I #
face $-1 $57 $58 $10 $-1 $59 reversed single #
loop $-1 $-1 $60 $20 #
plane-surface $-1 78.64131595812860098 38.25913101448773546 0 0 0 1 1 0 0 forward_v I I I I #
coedge $-1 $61 $62 $63 $64 forward $21 $-1 #
face $-1 $65 $66 $11 $-1 $67 reversed single #
loop $-1 $-1 $68 $23 #
plane-surface $-1 10.0355044247247065 38.25913101448773546 1.770022953104046337 0 0 1 1 0 0 forward_v I I I I #
coedge $-1 $69 $70 $71 $72 forward $24 $-1 #
face $-1 $73 $74 $12 $-1 $75 reversed single #
loop $-1 $-1 $76 $26 #
plane-surface $-1 121.4418149559782449 -1.421085471520200372e-14 17.27009175643178196 0 -0.7986355182712320255 0.6018150122385121925 1 0 0 forward_v I I I I #
coedge $-1 $77 $78 $79 $80 reversed $27 $-1 #
face $-1 $-1 $81 $13 $-1 $82 forward single #
loop $-1 $83 $84 $29 #
cone-surface $-1 114.1834816731996227 10.39259782226671902 21.4176758242088674 0 0.7986355182712320255 -0.6018150122385121925 1.25 0 0 1 I I -0.7071067811865474617 0.7071067811865474617 1.25 forward I I I I #
loop $-1 $-1 $85 $18 #
coedge $-1 $51 $51 $86 $87 reversed $30 $-1 #
face $-1 $-1 $88 $14 $-1 $89 forward single #
loop $-1 $90 $91 $32 #
cone-surface $-1 128.7001482387568956 10.39259782226671902 21.4176758242088674 0 0.7986355182712320255 -0.6018150122385121925 1.25 0 0 1 I I -0.7071067811865474617 0.7071067811865474617 1.25 forward I I I I #
loop $-1 $-1 $92 $19 #
coedge $-1 $56 $56 $93 $94 reversed $33 $-1 #
face $-1 $95 $96 $10 $-1 $97 reversed single #
loop $-1 $-1 $98 $35 #
plane-surface $-1 78.64131595812860098 0 16.27545558409515536 0 1 0 0 0 1 forward_v I I I I #
coedge $-1 $99 $100 $101 $102 forward $36 $-1 #
coedge $-1 $103 $38 $104 $105 forward $21 $-1 #
coedge $-1 $38 $103 $106 $107 forward $21 $-1 #
coedge $-1 $108 $109 $38 $64 reversed $110 $-1 #
edge $-1 $111 -38.25913101448773546 $112 38.25913101448773546 $63 $113 forward 7 unknown #
face $-1 $114 $115 $11 $-1 $116 reversed single #
loop $-1 $-1 $117 $39 #
plane-surface $-1 20.07100884944941299 38.25913101448773546 3.675225290330946137 -1 0 0 0 0 1 forward_v I I I I #
coedge $-1 $118 $119 $120 $121 forward $40 $-1 #
coedge $-1 $122 $42 $123 $124 reversed $24 $-1 #
coedge $-1 $42 $122 $125 $126 reversed $24 $-1 #
coedge $-1 $117 $127 $42 $72 reversed $66 $-1 #
edge $-1 $128 -38.25913101448773546 $129 38.25913101448773546 $71 $130 forward 7 unknown #
face $-1 $131 $132 $12 $-1 $133 forward single #
loop $-1 $-1 $134 $43 #
plane-surface $-1 138.3779259491283824 -125.6114962555035106 111.9251408080195205 -1 0 0 0 -0.7986355182712320255 0.6018150122385121925 forward_v I I I I #
coedge $-1 $135 $136 $137 $138 reversed $44 $-1 #
coedge $-1 $78 $46 $139 $140 reversed $27 $-1 #
coedge $-1 $46 $77 $135 $141 reversed $27 $-1 #
coedge $-1 $137 $142 $46 $80 forward $143 $-1 #
edge $-1 $144 31.5493870278670272 $145 46.83020643962554175 $79 $146 forward 7 unknown #
loop $-1 $-1 $86 $47 #
plane-surface $-1 121.4418149559782449 -1.421085471520200372e-14 17.27009175643178196 0 -0.7986355182712320255 0.6018150122385121925 1 0 0 forward_v I I I I #
loop $-1 $-1 $147 $29 #
coedge $-1 $84 $84 $85 $148 reversed $48 $-1 #
coedge $-1 $85 $85 $84 $148 forward $50 $-1 #
coedge $-1 $86 $86 $51 $87 forward $81 $-1 #
edge $-1 $149 -2.253724378536661706e-15 $149 6.283185307179583567 $86 $150 forward 7 unknown #
loop $-1 $-1 $93 $52 #
plane-surface $-1 121.4418149559782449 -1.421085471520200372e-14 17.27009175643178196 0 -0.7986355182712320255 0.6018150122385121925 1 0 0 forward_v I I I I #
loop $-1 $-1 $151 $32 #
coedge $-1 $91 $91 $92 $152 reversed $53 $-1 #
coedge $-1 $92 $92 $91 $152 forward $55 $-1 #
coedge $-1 $93 $93 $56 $94 forward $88 $-1 #
edge $-1 $153 -2.253724378536661706e-15 $153 6.283185307179583567 $93 $154 forward 7 unknown #
face $-1 $155 $156 $10 $-1 $157 reversed single #
loop $-1 $-1 $158 $57 #
plane-surface $-1 0 38.25913101448773546 16.27545558409515536 1 0 0 0 0 -1 forward_v I I I I #
coedge $-1 $159 $106 $160 $161 forward $58 $-1 #
coedge $-1 $162 $60 $159 $163 forward $36 $-1 #
coedge $-1 $60 $162 $164 $165 forward $36 $-1 #
coedge $-1 $109 $108 $60 $102 reversed $110 $-1 #
edge $-1 $166 -38.25913101448773546 $167 38.25913101448773546 $101 $168 forward 7 unknown #
coedge $-1 $62 $61 $169 $170 forward $21 $-1 #
coedge $-1 $171 $172 $61 $105 reversed $156 $-1 #
edge $-1 $112 -78.64131595812860098 $173 78.64131595812860098 $104 $174 forward 7 unknown #
coedge $-1 $98 $175 $62 $107 reversed $58 $-1 #
edge $-1 $176 -78.64131595812860098 $111 78.64131595812860098 $106 $177 forward 7 unknown #
coedge $-1 $101 $63 $175 $178 forward $110 $-1 #
coedge $-1 $63 $101 $171 $179 reversed $110 $-1 #
loop $-1 $-1 $108 $155 #
vertex $-1 $64 $180 #
vertex $-1 $64 $181 #
straight-curve $-1 157.282631916257202 38.25913101448773546 32.55091116819031072 0 1 0 I I #
face $-1 $182 $183 $11 $-1 $184 reversed single #
loop $-1 $-1 $185 $65 #
plane-surface $-1 78.64131595812860098 0 16.27545558409515536 0 1 0 0 0 1 forward_v I I I I #
coedge $-1 $120 $71 $186 $187 reversed $66 $-1 #
coedge $-1 $188 $68 $185 $189 reversed $40 $-1 #
coedge $-1 $68 $188 $190 $191 reversed $40 $-1 #
coedge $-1 $127 $117 $68 $121 reversed $66 $-1 #
edge $-1 $192 -38.25913101448773546 $193 38.25913101448773546 $120 $194 forward 7 unknown #
coedge $-1 $70 $69 $195 $196 reversed $24 $-1 #
coedge $-1 $197 $198 $69 $124 forward $199 $-1 #
edge $-1 $200 -44.33841019142665374 $129 -24.26740134197724075 $123 $201 forward 7 unknown #
coedge $-1 $202 $186 $70 $126 forward $115 $-1 #
edge $-1 $128 24.26740134197724075 $203 44.33841019142665374 $125 $204 forward 7 unknown #
coedge $-1 $71 $120 $197 $205 reversed $66 $-1 #
vertex $-1 $126 $206 #
vertex $-1 $124 $207 #
straight-curve $-1 20.07100884944941299 38.25913101448773546 5.580427627557845938 0 1 0 I I #
face $-1 $-1 $143 $12 $-1 $208 reversed single #
loop $-1 $-1 $209 $73 #
plane-surface $-1 78.64131595812860098 38.25913101448773546 32.55091116819031072 0 0 1 1 0 0 forward_v I I I I #
coedge $-1 $210 $211 $212 $213 reversed $74 $-1 #
coedge $-1 $214 $76 $78 $141 forward $44 $-1 #
coedge $-1 $76 $214 $210 $215 forward $44 $-1 #
coedge $-1 $212 $79 $76 $138 forward $143 $-1 #
edge $-1 $145 4.464138505774684518 $216 38.33636049207495944 $137 $217 forward 7 unknown #
coedge $-1 $218 $219 $77 $140 forward $132 $-1 #
edge $-1 $220 -55.19110564973725985 $144 -43.67618262050788758 $139 $221 forward 7 unknown #
edge $-1 $145 2.273892235503967841e-14 $220 19.13365867428008471 $78 $222 forward 7 unknown #
coedge $-1 $79 $212 $218 $223 reversed $143 $-1 #
loop $-1 $-1 $212 $131 #
vertex $-1 $223 $224 #
vertex $-1 $80 $225 #
straight-curve $-1 104.5057039628281075 0 64.10029819605733792 0 0 -1 I I #
coedge $-1 $147 $147 $-1 $226 reversed $83 $-1 #
edge $-1 $227 0 $227 6.283185307179586232 $84 $228 forward 7 unknown #
vertex $-1 $87 $229 #
ellipse-curve $-1 114.1834816731996227 5.757461514614682585 24.91050146231105344 0 -0.7986355182712320255 0.6018150122385121925 2.5 0 0 1 I I #
coedge $-1 $151 $151 $-1 $230 reversed $90 $-1 #
edge $-1 $231 0 $231 6.283185307179586232 $91 $232 forward 7 unknown #
vertex $-1 $94 $233 #
ellipse-curve $-1 128.7001482387568956 5.757461514614682585 24.91050146231105344 0 -0.7986355182712320255 0.6018150122385121925 2.5 0 0 1 I I #
face $-1 $-1 $110 $10 $-1 $234 reversed single #
loop $-1 $-1 $171 $95 #
plane-surface $-1 78.64131595812860098 76.51826202897547091 16.27545558409515536 0 -1 0 0 0 -1 forward_v I I I I #
coedge $-1 $235 $169 $172 $236 forward $96 $-1 #
coedge $-1 $175 $98 $99 $163 reversed $58 $-1 #
coedge $-1 $169 $235 $98 $161 reversed $96 $-1 #
edge $-1 $176 -16.27545558409515536 $237 16.27545558409515536 $160 $238 forward 7 unknown #
coedge $-1 $100 $99 $235 $239 forward $36 $-1 #
edge $-1 $167 -78.64131595812860098 $237 78.64131595812860098 $159 $240 forward 7 unknown #
coedge $-1 $172 $171 $100 $165 reversed $156 $-1 #
edge $-1 $241 -78.64131595812860098 $166 78.64131595812860098 $164 $242 forward 7 unknown #
vertex $-1 $102 $243 #
vertex $-1 $178 $244 #
straight-curve $-1 157.282631916257202 38.25913101448773546 0 0 -1 0 I I #
coedge $-1 $158 $160 $103 $170 reversed $96 $-1 #
edge $-1 $173 -38.25913101448773546 $176 38.25913101448773546 $169 $245 forward 7 unknown #
coedge $-1 $164 $104 $109 $179 forward $156 $-1 #
coedge $-1 $104 $164 $158 $236 reversed $156 $-1 #
vertex $-1 $105 $246 #
straight-curve $-1 78.64131595812860098 76.51826202897547091 32.55091116819031072 -1 0 0 I I #
coedge $-1 $106 $159 $108 $178 reversed $58 $-1 #
vertex $-1 $170 $247 #
straight-curve $-1 78.64131595812860098 0 32.55091116819031072 1 0 0 I I #
edge $-1 $111 -16.27545558409515536 $167 16.27545558409515536 $108 $248 forward 7 unknown #
edge $-1 $112 -16.27545558409515536 $166 16.27545558409515536 $109 $249 forward 7 unknown #
point $-1 157.282631916257202 0 32.55091116819031072 #
point $-1 157.282631916257202 76.51826202897547091 32.55091116819031072 #
face $-1 $-1 $199 $11 $-1 $250 reversed single #
loop $-1 $-1 $251 $114 #
plane-surface $-1 0 38.25913101448773546 16.27545558409515536 1 0 0 0 0 -1 forward_v I I I I #
coedge $-1 $186 $202 $118 $189 forward $115 $-1 #
coedge $-1 $125 $185 $117 $187 forward $115 $-1 #
edge $-1 $193 -8.205317484109004411 $128 -4.394912809655204811 $186 $252 forward 7 unknown #
coedge $-1 $119 $118 $251 $253 reversed $40 $-1 #
edge $-1 $254 -44.33841019142665374 $193 -24.26740134197724075 $185 $255 forward 7 unknown #
coedge $-1 $198 $197 $119 $191 forward $199 $-1 #
edge $-1 $192 24.26740134197724075 $256 44.33841019142665374 $190 $257 forward 7 unknown #
vertex $-1 $191 $258 #
vertex $-1 $189 $259 #
straight-curve $-1 20.07100884944941299 38.25913101448773546 1.770022953104046337 0 -1 0 I I #
coedge $-1 $260 $261 $122 $196 forward $183 $-1 #
edge $-1 $203 -38.25913101448773546 $200 38.25913101448773546 $195 $262 forward 7 unknown #
coedge $-1 $190 $123 $127 $205 forward $199 $-1 #
coedge $-1 $123 $190 $260 $263 reversed $199 $-1 #
loop $-1 $-1 $190 $182 #
vertex $-1 $263 $264 #
straight-curve $-1 44.33841019142665374 76.51826202897547091 5.580427627557845938 1 0 0 I I #
coedge $-1 $185 $125 $261 $265 forward $115 $-1 #
vertex $-1 $265 $266 #
straight-curve $-1 44.33841019142665374 0 5.580427627557845938 -1 0 0 I I #
edge $-1 $129 4.394912809655204811 $192 8.205317484109004411 $197 $267 forward 7 unknown #
point $-1 20.07100884944941299 0 5.580427627557845938 #
point $-1 20.07100884944941299 76.51826202897547091 5.580427627557845938 #
plane-surface $-1 78.64131595812860098 0 16.27545558409515536 0 1 0 0 0 1 forward_v I I I I #
coedge $-1 $219 $218 $211 $268 forward $132 $-1 #
coedge $-1 $211 $134 $136 $215 reversed $74 $-1 #
coedge $-1 $134 $210 $209 $268 reversed $74 $-1 #
coedge $-1 $142 $137 $134 $213 forward $143 $-1 #
edge $-1 $216 -46.83020643962554175 $269 -31.5493870278670272 $212 $270 forward 7 unknown #
coedge $-1 $136 $135 $219 $271 reversed $44 $-1 #
edge $-1 $272 -19.13365867428008471 $216 -2.273892235503967841e-14 $210 $273 forward 7 unknown #
vertex $-1 $138 $274 #
straight-curve $-1 100.041565457053423 0 17.27009175643179617 1 0 0 I I #
coedge $-1 $209 $139 $142 $223 forward $132 $-1 #
coedge $-1 $139 $209 $214 $271 forward $132 $-1 #
vertex $-1 $140 $275 #
straight-curve $-1 104.5057039628281075 -43.67618262050788758 32.55091116819031072 0 -1 0 I I #
straight-curve $-1 104.5057039628281075 -1.421085471520200372e-14 17.27009175643178196 0 0.6018150122385121925 0.7986355182712320255 I I #
edge $-1 $144 25.8643880046995065 $269 59.73660999099978142 $142 $276 forward 7 unknown #
point $-1 104.5057039628281075 0 32.55091116819031072 #
point $-1 104.5057039628281075 0 17.27009175643179972 #
edge $-1 $277 1 $277 0 $147 $-1 forward 7 unknown #
vertex $-1 $148 $278 #
ellipse-curve $-1 114.1834816731996227 9.394303424427679516 22.16994458950700775 0 -0.7986355182712320255 0.6018150122385121925 2.5 0 0 1 I I #
point $-1 116.6834816731996227 5.757461514614696796 24.91050146231103568 #
edge $-1 $279 1 $279 0 $151 $-1 forward 7 unknown #
vertex $-1 $152 $280 #
ellipse-curve $-1 128.7001482387568956 9.394303424427679516 22.16994458950700775 0 -0.7986355182712320255 0.6018150122385121925 2.5 0 0 1 I I #
point $-1 131.2001482387568956 5.757461514614696796 24.91050146231103568 #
plane-surface $-1 157.282631916257202 38.25913101448773546 16.27545558409515536 -1 0 0 0 0 1 forward_v I I I I #
coedge $-1 $160 $158 $162 $239 reversed $96 $-1 #
edge $-1 $173 -16.27545558409515536 $241 16.27545558409515536 $172 $281 forward 7 unknown #
vertex $-1 $239 $282 #
straight-curve $-1 0 0 16.27545558409515536 0 0 -1 I I #
edge $-1 $237 -38.25913101448773546 $241 38.25913101448773546 $235 $283 forward 7 unknown #
straight-curve $-1 78.64131595812860098 0 0 -1 0 0 I I #
vertex $-1 $165 $284 #
straight-curve $-1 78.64131595812860098 76.51826202897547091 0 1 0 0 I I #
point $-1 157.282631916257202 76.51826202897547091 0 #
point $-1 157.282631916257202 0 0 #
straight-curve $-1 0 38.25913101448773546 32.55091116819031072 0 -1 0 I I #
point $-1 0 76.51826202897547091 32.55091116819031072 #
point $-1 0 0 32.55091116819031072 #
straight-curve $-1 157.282631916257202 0 16.27545558409515536 0 0 -1 I I #
straight-curve $-1 157.282631916257202 76.51826202897547091 16.27545558409515536 0 0 -1 I I #
plane-surface $-1 78.64131595812860098 76.51826202897547091 16.27545558409515536 0 -1 0 0 0 -1 forward_v I I I I #
coedge $-1 $261 $260 $188 $253 forward $183 $-1 #
straight-curve $-1 20.07100884944941299 0 9.975340437213050748 0 0 1 I I #
edge $-1 $256 -38.25913101448773546 $254 38.25913101448773546 $251 $285 forward 7 unknown #
vertex $-1 $189 $286 #
straight-curve $-1 44.33841019142665374 0 1.770022953104046337 1 0 0 I I #
vertex $-1 $191 $287 #
straight-curve $-1 44.33841019142665374 76.51826202897547091 1.770022953104046337 -1 0 0 I I #
point $-1 20.07100884944941299 76.51826202897547091 1.770022953104046337 #
point $-1 20.07100884944941299 0 1.770022953104046337 #
coedge $-1 $251 $195 $198 $263 forward $183 $-1 #
coedge $-1 $195 $251 $202 $265 reversed $183 $-1 #
straight-curve $-1 0 38.25913101448773546 5.580427627557845938 0 1 0 I I #
edge $-1 $200 10.69502795653730942 $256 14.50543263099110902 $198 $288 forward 7 unknown #
point $-1 0 76.51826202897547091 5.580427627557845938 #
edge $-1 $203 10.69502795653730942 $254 14.50543263099110902 $261 $289 forward 7 unknown #
point $-1 0 0 5.580427627557845938 #
straight-curve $-1 20.07100884944941299 76.51826202897547091 9.975340437213050748 0 0 -1 I I #
edge $-1 $269 43.67618262050788758 $272 55.19110564973725985 $209 $290 forward 7 unknown #
vertex $-1 $268 $291 #
straight-curve $-1 138.3779259491283824 0 64.10029819605733792 0 0 1 I I #
edge $-1 $272 -38.33636049207495944 $220 -4.464138505774684518 $219 $292 forward 7 unknown #
vertex $-1 $271 $293 #
straight-curve $-1 138.3779259491283824 -1.421085471520200372e-14 17.27009175643178196 0 -0.6018150122385121925 -0.7986355182712320255 I I #
point $-1 138.3779259491283824 0 17.27009175643179972 #
point $-1 104.5057039628281075 11.51492302922937228 32.55091116819031072 #
straight-curve $-1 78.64131595812860098 0 32.55091116819031072 1 0 0 I I #
vertex $-1 $226 $294 #
point $-1 116.6834816731996227 9.394303424427679516 22.16994458950700775 #
vertex $-1 $230 $295 #
point $-1 131.2001482387568956 9.394303424427679516 22.16994458950700775 #
straight-curve $-1 0 76.51826202897547091 16.27545558409515536 0 0 -1 I I #
point $-1 0 0 0 #
straight-curve $-1 0 38.25913101448773546 0 0 1 0 I I #
point $-1 0 76.51826202897547091 0 #
straight-curve $-1 0 38.25913101448773546 1.770022953104046337 0 -1 0 I I #
point $-1 0 0 1.770022953104046337 #
point $-1 0 76.51826202897547091 1.770022953104046337 #
straight-curve $-1 0 76.51826202897547091 16.27545558409515536 0 0 -1 I I #
straight-curve $-1 0 0 16.27545558409515536 0 0 -1 I I #
straight-curve $-1 138.3779259491283824 -43.67618262050788758 32.55091116819031072 0 1 0 I I #
point $-1 138.3779259491283824 0 32.55091116819031072 #
straight-curve $-1 100.041565457053423 11.51492302922936872 32.55091116819031072 -1 0 0 I I #
point $-1 138.3779259491283824 11.51492302922937228 32.55091116819031072 #
point $-1 114.1834816731996227 11.39089222010575853 20.66540705891072705 #
point $-1 128.7001482387568956 11.39089222010575853 20.66540705891072705 #
End-of-ACIS-data 