600 0 6 0           
94 GICL ACIS Healer - Source: /gicl/data5/repository/Drexel/SM99-DATA/part109.smdg.feat.sat - 6 0 18 ACIS 6.0.3 Solaris 24 Sat Apr 13 20:43:54 2002 
1 9.999999999999999547e-07 1.000000000000000036e-10 
body $-1 $6 $-1 $-1 #
body $-1 $7 $-1 $-1 #
body $-1 $8 $-1 $-1 #
body $-1 $9 $-1 $-1 #
body $-1 $10 $-1 $-1 #
body $-1 $11 $-1 $-1 #
lump $-1 $-1 $12 $0 #
lump $-1 $-1 $13 $1 #
lump $-1 $-1 $14 $2 #
lump $-1 $-1 $15 $3 #
lump $-1 $-1 $16 $4 #
lump $-1 $-1 $17 $5 #
shell $-1 $-1 $-1 $18 $-1 $6 #
shell $-1 $-1 $-1 $19 $-1 $7 #
shell $-1 $-1 $-1 $20 $-1 $8 #
shell $-1 $-1 $-1 $21 $-1 $9 #
shell $-1 $-1 $-1 $22 $-1 $10 #
shell $-1 $-1 $-1 $23 $-1 $11 #
face $-1 $24 $25 $12 $-1 $26 forward single #
face $-1 $27 $28 $13 $-1 $29 forward single #
face $-1 $30 $31 $14 $-1 $32 forward single #
face $-1 $33 $34 $15 $-1 $35 forward single #
face $-1 $36 $37 $16 $-1 $38 forward single #
face $-1 $39 $40 $17 $-1 $41 forward single #
face $-1 $42 $43 $12 $-1 $44 reversed single #
loop $-1 $-1 $45 $18 #
plane-surface $-1 73.15408795434430544 50.46710024160736197 23.7409610267718314 0 0 1 1 0 0 forward_v I I I I #
face $-1 $46 $47 $13 $-1 $48 reversed single #
loop $-1 $-1 $49 $19 #
plane-surface $-1 73.15408795434430544 -5.525788921647048824 5.141544289507154808 0 0 1 1 0 0 forward_v I I I I #
face $-1 $50 $51 $14 $-1 $52 reversed single #
loop $-1 $-1 $53 $20 #
plane-surface $-1 -210.4905905029783071 91.95320739095018325 223.7329578190679342 -0.7193398085775676298 0 0.6946583619273494214 0.6946583619273494214 0 0.7193398085775676298 forward_v I I I I #
face $-1 $54 $55 $15 $-1 $56 forward single #
loop $-1 $57 $58 $21 #
cone-surface $-1 2.294349448228482302 91.95320739095018325 21.41484482790516708 0.7193398085775676298 0 -0.6946583619273494214 0.3473291809636747107 0 0.3596699042887838149 1 I I 0 1 0.5 forward I I I I #
face $-1 $59 $60 $16 $-1 $61 reversed single #
loop $-1 $-1 $62 $22 #
plane-surface $-1 255.1645685983587839 91.95320739095018325 328.9782530705570593 0.7193398085775676298 0 0.6946583619273494214 0.6946583619273494214 0 -0.7193398085775676298 forward_v I I I I #
face $-1 $63 $64 $17 $-1 $65 forward single #
loop $-1 $66 $67 $23 #
cone-surface $-1 144.0138264604601375 91.95320739095018325 21.41484482790516708 -0.7193398085775676298 0 -0.6946583619273494214 0.3473291809636747107 0 -0.3596699042887838149 1 I I 0 1 0.5 forward I I I I #
face $-1 $68 $69 $12 $-1 $70 reversed single #
loop $-1 $-1 $71 $24 #
plane-surface $-1 73.15408795434430544 50.46710024160736197 0 0 0 1 1 0 0 forward_v I I I I #
coedge $-1 $72 $73 $74 $75 forward $25 $-1 #
face $-1 $76 $77 $13 $-1 $78 reversed single #
loop $-1 $-1 $79 $27 #
plane-surface $-1 73.15408795434430544 -5.525788921647048824 0 0 0 1 1 0 0 forward_v I I I I #
coedge $-1 $80 $81 $82 $83 forward $28 $-1 #
face $-1 $84 $85 $14 $-1 $86 reversed single #
loop $-1 $-1 $87 $30 #
plane-surface $-1 1.421085471520200372e-14 91.95320739095018325 20.4645621924516945 -0.7193398085775676298 0 0.6946583619273494214 0.6946583619273494214 0 0.7193398085775676298 forward_v I I I I #
coedge $-1 $88 $89 $90 $91 forward $31 $-1 #
face $-1 $-1 $92 $15 $-1 $93 forward single #
loop $-1 $-1 $94 $33 #
plane-surface $-1 1.581990750498037279 91.95320739095018325 22.10276160961177894 -0.7193398085775676298 0 0.6946583619273494214 -0.6946583619273494214 0 -0.7193398085775676298 forward_v I I I I #
loop $-1 $-1 $95 $21 #
coedge $-1 $58 $58 $94 $96 reversed $34 $-1 #
face $-1 $97 $98 $16 $-1 $99 reversed single #
loop $-1 $-1 $100 $36 #
plane-surface $-1 44.67397809538047682 91.95320739095018325 125.7098574439408338 0.7193398085775676298 0 0.6946583619273494214 0.6946583619273494214 0 -0.7193398085775676298 forward_v I I I I #
coedge $-1 $101 $102 $103 $104 forward $37 $-1 #
face $-1 $-1 $105 $17 $-1 $106 forward single #
loop $-1 $-1 $107 $39 #
plane-surface $-1 144.7261851581905887 91.95320739095018325 22.10276160961177894 0.7193398085775676298 0 0.6946583619273494214 -0.6946583619273494214 0 0.7193398085775676298 forward_v I I I I #
loop $-1 $-1 $108 $23 #
coedge $-1 $67 $67 $107 $109 reversed $40 $-1 #
face $-1 $110 $111 $12 $-1 $112 reversed single #
loop $-1 $-1 $113 $42 #
plane-surface $-1 73.15408795434430544 0 11.8704805133859157 0 1 0 0 0 1 forward_v I I I I #
coedge $-1 $114 $115 $116 $117 forward $43 $-1 #
coedge $-1 $118 $45 $119 $120 forward $25 $-1 #
coedge $-1 $45 $118 $121 $122 forward $25 $-1 #
coedge $-1 $123 $124 $45 $75 reversed $125 $-1 #
edge $-1 $126 -50.46710024160736197 $127 50.46710024160736197 $74 $128 forward 7 unknown #
face $-1 $129 $130 $13 $-1 $131 reversed single #
loop $-1 $-1 $132 $46 #
plane-surface $-1 73.15408795434430544 -11.05157784329409765 2.570772144753577404 0 1 0 0 0 1 forward_v I I I I #
coedge $-1 $133 $134 $135 $136 forward $47 $-1 #
coedge $-1 $137 $49 $138 $139 forward $28 $-1 #
coedge $-1 $49 $137 $140 $141 forward $28 $-1 #
coedge $-1 $142 $143 $49 $83 reversed $144 $-1 #
edge $-1 $145 -5.525788921647048824 $146 5.525788921647048824 $82 $147 forward 7 unknown #
face $-1 $148 $149 $14 $-1 $150 reversed single #
loop $-1 $-1 $151 $50 #
plane-surface $-1 -105.2452952514891393 82.97221429868564258 122.0987600057598144 0 1 0 -0.7193398085775676298 0 0.6946583619273494214 forward_v I I I I #
coedge $-1 $152 $153 $154 $155 forward $51 $-1 #
coedge $-1 $156 $53 $157 $158 forward $31 $-1 #
coedge $-1 $53 $156 $159 $160 forward $31 $-1 #
coedge $-1 $161 $162 $53 $91 reversed $163 $-1 #
edge $-1 $164 -8.980993092264540678 $165 8.980993092264540678 $90 $166 forward 7 unknown #
loop $-1 $167 $168 $54 #
cone-surface $-1 3.186543098103319593 91.95320739095018325 20.55326345571671709 0.7193398085775676298 0 -0.6946583619273494214 0.1736645904818373554 0 0.1798349521443919075 1 I I -0.7071067811865474617 0.7071067811865474617 0.25 forward I I I I #
coedge $-1 $94 $94 $58 $96 forward $55 $-1 #
coedge $-1 $95 $95 $168 $169 forward $57 $-1 #
edge $-1 $170 0 $170 6.283185307179586232 $94 $171 forward 7 unknown #
face $-1 $172 $173 $16 $-1 $174 reversed single #
loop $-1 $-1 $175 $59 #
plane-surface $-1 149.9192733468696304 82.97221429868564258 227.3440552572489537 0 1 0 0.7193398085775676298 0 0.6946583619273494214 forward_v I I I I #
coedge $-1 $176 $177 $178 $179 forward $60 $-1 #
coedge $-1 $180 $62 $181 $182 forward $37 $-1 #
coedge $-1 $62 $180 $183 $184 forward $37 $-1 #
coedge $-1 $185 $186 $62 $104 reversed $187 $-1 #
edge $-1 $188 -8.980993092264540678 $189 8.980993092264540678 $103 $190 forward 7 unknown #
loop $-1 $191 $192 $63 #
cone-surface $-1 143.1216328105853108 91.95320739095018325 20.55326345571671709 -0.7193398085775676298 0 -0.6946583619273494214 0.1736645904818373554 0 -0.1798349521443919075 1 I I -0.7071067811865474617 0.7071067811865474617 0.25 forward I I I I #
coedge $-1 $107 $107 $67 $109 forward $64 $-1 #
coedge $-1 $108 $108 $192 $193 forward $66 $-1 #
edge $-1 $194 0 $194 6.283185307179586232 $107 $195 forward 7 unknown #
face $-1 $196 $197 $12 $-1 $198 reversed single #
loop $-1 $-1 $199 $68 #
plane-surface $-1 0 50.46710024160736197 11.8704805133859157 1 0 0 0 0 -1 forward_v I I I I #
coedge $-1 $200 $121 $201 $202 forward $69 $-1 #
coedge $-1 $203 $71 $200 $204 forward $43 $-1 #
coedge $-1 $71 $203 $205 $206 forward $43 $-1 #
coedge $-1 $124 $123 $71 $117 reversed $125 $-1 #
edge $-1 $207 -50.46710024160736197 $208 50.46710024160736197 $116 $209 forward 7 unknown #
coedge $-1 $73 $72 $210 $211 forward $25 $-1 #
coedge $-1 $212 $213 $72 $120 reversed $197 $-1 #
edge $-1 $127 -73.15408795434430544 $214 73.15408795434430544 $119 $215 forward 7 unknown #
coedge $-1 $113 $216 $73 $122 reversed $69 $-1 #
edge $-1 $217 -73.15408795434430544 $126 73.15408795434430544 $121 $218 forward 7 unknown #
coedge $-1 $116 $74 $216 $219 forward $125 $-1 #
coedge $-1 $74 $116 $212 $220 reversed $125 $-1 #
loop $-1 $-1 $123 $196 #
vertex $-1 $75 $221 #
vertex $-1 $75 $222 #
straight-curve $-1 146.3081759086886109 50.46710024160736197 23.7409610267718314 0 1 0 I I #
face $-1 $223 $224 $13 $-1 $225 reversed single #
loop $-1 $-1 $226 $76 #
plane-surface $-1 0 -5.525788921647048824 2.570772144753577404 1 0 0 0 0 -1 forward_v I I I I #
coedge $-1 $227 $140 $228 $229 forward $77 $-1 #
coedge $-1 $230 $79 $227 $231 forward $47 $-1 #
coedge $-1 $79 $230 $232 $233 forward $47 $-1 #
coedge $-1 $143 $142 $79 $136 reversed $144 $-1 #
edge $-1 $234 -5.525788921647048824 $235 5.525788921647048824 $135 $236 forward 7 unknown #
coedge $-1 $81 $80 $237 $238 forward $28 $-1 #
coedge $-1 $239 $240 $80 $139 reversed $224 $-1 #
edge $-1 $146 -73.15408795434430544 $241 73.15408795434430544 $138 $242 forward 7 unknown #
coedge $-1 $132 $243 $81 $141 reversed $77 $-1 #
edge $-1 $244 -73.15408795434430544 $145 73.15408795434430544 $140 $245 forward 7 unknown #
coedge $-1 $135 $82 $243 $246 forward $144 $-1 #
coedge $-1 $82 $135 $239 $247 reversed $144 $-1 #
loop $-1 $-1 $142 $223 #
vertex $-1 $83 $248 #
vertex $-1 $83 $249 #
straight-curve $-1 146.3081759086886109 -5.525788921647048824 5.141544289507154808 0 1 0 I I #
face $-1 $250 $251 $14 $-1 $252 reversed single #
loop $-1 $-1 $253 $84 #
plane-surface $-1 -308.5136908781053648 91.95320739095018325 -88.39183049721849272 0.6946583619273494214 0 0.7193398085775676298 0.7193398085775676298 0 -0.6946583619273494214 forward_v I I I I #
coedge $-1 $254 $159 $255 $256 forward $85 $-1 #
coedge $-1 $257 $87 $254 $258 forward $51 $-1 #
coedge $-1 $87 $257 $259 $260 forward $51 $-1 #
coedge $-1 $162 $161 $87 $155 reversed $163 $-1 #
edge $-1 $261 -8.980993092264540678 $262 8.980993092264540678 $154 $263 forward 7 unknown #
coedge $-1 $89 $88 $264 $265 forward $31 $-1 #
coedge $-1 $266 $267 $88 $158 reversed $251 $-1 #
edge $-1 $165 -292.6163518173772218 $268 292.6163518173772218 $157 $269 forward 7 unknown #
coedge $-1 $151 $270 $89 $160 reversed $85 $-1 #
edge $-1 $271 -292.6163518173772218 $164 292.6163518173772218 $159 $272 forward 7 unknown #
coedge $-1 $154 $90 $270 $273 forward $163 $-1 #
coedge $-1 $90 $154 $266 $274 reversed $163 $-1 #
loop $-1 $-1 $161 $250 #
vertex $-1 $91 $275 #
vertex $-1 $91 $276 #
straight-curve $-1 -7.222194876362053151 91.95320739095018325 434.2235483220462129 0 1 0 I I #
loop $-1 $-1 $277 $54 #
coedge $-1 $168 $168 $95 $169 reversed $92 $-1 #
edge $-1 $278 0 $278 6.283185307179586232 $168 $279 forward 7 unknown #
vertex $-1 $96 $280 #
ellipse-curve $-1 1.581990750498037279 91.95320739095018325 22.10276160961177894 -0.7193398085775676298 0 0.6946583619273494214 0.3473291809636747107 0 0.3596699042887838149 1 I I #
face $-1 $281 $282 $16 $-1 $283 reversed single #
loop $-1 $-1 $284 $97 #
plane-surface $-1 -53.34912227974660937 91.95320739095018325 437.8346457602272608 0.6946583619273494214 0 -0.7193398085775676298 -0.7193398085775676298 0 -0.6946583619273494214 forward_v I I I I #
coedge $-1 $285 $183 $286 $287 forward $98 $-1 #
coedge $-1 $288 $100 $285 $289 forward $60 $-1 #
coedge $-1 $100 $288 $290 $291 forward $60 $-1 #
coedge $-1 $186 $185 $100 $179 reversed $187 $-1 #
edge $-1 $292 -8.980993092264540678 $293 8.980993092264540678 $178 $294 forward 7 unknown #
coedge $-1 $102 $101 $295 $296 forward $37 $-1 #
coedge $-1 $297 $298 $101 $182 reversed $282 $-1 #
edge $-1 $189 -292.6163518173772786 $299 292.6163518173772218 $181 $300 forward 7 unknown #
coedge $-1 $175 $301 $102 $184 reversed $98 $-1 #
edge $-1 $302 -292.6163518173772218 $188 292.6163518173772786 $183 $303 forward 7 unknown #
coedge $-1 $178 $103 $301 $304 forward $187 $-1 #
coedge $-1 $103 $178 $297 $305 reversed $187 $-1 #
loop $-1 $-1 $185 $281 #
vertex $-1 $104 $306 #
vertex $-1 $104 $307 #
straight-curve $-1 458.4329642249750805 91.95320739095018325 118.4876625675787665 0 1 0 I I #
loop $-1 $-1 $308 $63 #
coedge $-1 $192 $192 $108 $193 reversed $105 $-1 #
edge $-1 $309 0 $309 6.283185307179586232 $192 $310 forward 7 unknown #
vertex $-1 $109 $311 #
ellipse-curve $-1 144.7261851581905887 91.95320739095018325 22.10276160961177894 0.7193398085775676298 0 0.6946583619273494214 0.3473291809636747107 0 -0.3596699042887838149 1 I I #
face $-1 $-1 $125 $12 $-1 $312 reversed single #
loop $-1 $-1 $212 $110 #
plane-surface $-1 73.15408795434430544 100.9342004832147239 11.8704805133859157 0 -1 0 0 0 -1 forward_v I I I I #
coedge $-1 $313 $210 $213 $314 forward $111 $-1 #
coedge $-1 $216 $113 $114 $204 reversed $69 $-1 #
coedge $-1 $210 $313 $113 $202 reversed $111 $-1 #
edge $-1 $217 -11.8704805133859157 $315 11.8704805133859157 $201 $316 forward 7 unknown #
coedge $-1 $115 $114 $313 $317 forward $43 $-1 #
edge $-1 $208 -73.15408795434430544 $315 73.15408795434430544 $200 $318 forward 7 unknown #
coedge $-1 $213 $212 $115 $206 reversed $197 $-1 #
edge $-1 $319 -73.15408795434430544 $207 73.15408795434430544 $205 $320 forward 7 unknown #
vertex $-1 $117 $321 #
vertex $-1 $219 $322 #
straight-curve $-1 146.3081759086886109 50.46710024160736197 0 0 -1 0 I I #
coedge $-1 $199 $201 $118 $211 reversed $111 $-1 #
edge $-1 $214 -50.46710024160736197 $217 50.46710024160736197 $210 $323 forward 7 unknown #
coedge $-1 $205 $119 $124 $220 forward $197 $-1 #
coedge $-1 $119 $205 $199 $314 reversed $197 $-1 #
vertex $-1 $120 $324 #
straight-curve $-1 73.15408795434430544 100.9342004832147239 23.7409610267718314 -1 0 0 I I #
coedge $-1 $121 $200 $123 $219 reversed $69 $-1 #
vertex $-1 $211 $325 #
straight-curve $-1 73.15408795434430544 0 23.7409610267718314 1 0 0 I I #
edge $-1 $126 -11.8704805133859157 $208 11.8704805133859157 $123 $326 forward 7 unknown #
edge $-1 $127 -11.8704805133859157 $207 11.8704805133859157 $124 $327 forward 7 unknown #
point $-1 146.3081759086886109 0 23.7409610267718314 #
point $-1 146.3081759086886109 100.9342004832147239 23.7409610267718314 #
face $-1 $-1 $144 $13 $-1 $328 reversed single #
loop $-1 $-1 $239 $129 #
plane-surface $-1 73.15408795434430544 0 2.570772144753577404 0 -1 0 0 0 -1 forward_v I I I I #
coedge $-1 $329 $237 $240 $330 forward $130 $-1 #
coedge $-1 $243 $132 $133 $231 reversed $77 $-1 #
coedge $-1 $237 $329 $132 $229 reversed $130 $-1 #
edge $-1 $244 -2.570772144753577404 $331 2.570772144753577404 $228 $332 forward 7 unknown #
coedge $-1 $134 $133 $329 $333 forward $47 $-1 #
edge $-1 $235 -73.15408795434430544 $331 73.15408795434430544 $227 $334 forward 7 unknown #
coedge $-1 $240 $239 $134 $233 reversed $224 $-1 #
edge $-1 $335 -73.15408795434430544 $234 73.15408795434430544 $232 $336 forward 7 unknown #
vertex $-1 $136 $337 #
vertex $-1 $246 $338 #
straight-curve $-1 146.3081759086886109 -5.525788921647048824 0 0 -1 0 I I #
coedge $-1 $226 $228 $137 $238 reversed $130 $-1 #
edge $-1 $241 -5.525788921647048824 $244 5.525788921647048824 $237 $339 forward 7 unknown #
coedge $-1 $232 $138 $143 $247 forward $224 $-1 #
coedge $-1 $138 $232 $226 $330 reversed $224 $-1 #
vertex $-1 $139 $340 #
straight-curve $-1 73.15408795434430544 0 5.141544289507154808 -1 0 0 I I #
coedge $-1 $140 $227 $142 $246 reversed $77 $-1 #
vertex $-1 $238 $341 #
straight-curve $-1 73.15408795434430544 -11.05157784329409765 5.141544289507154808 1 0 0 I I #
edge $-1 $145 -2.570772144753577404 $235 2.570772144753577404 $142 $342 forward 7 unknown #
edge $-1 $146 -2.570772144753577404 $234 2.570772144753577404 $143 $343 forward 7 unknown #
point $-1 146.3081759086886109 -11.05157784329409765 5.141544289507154808 #
point $-1 146.3081759086886109 0 5.141544289507154808 #
face $-1 $-1 $163 $14 $-1 $344 reversed single #
loop $-1 $-1 $266 $148 #
plane-surface $-1 -105.2452952514891393 100.9342004832147239 122.0987600057598144 0 -1 0 0.7193398085775676298 0 -0.6946583619273494214 forward_v I I I I #
coedge $-1 $345 $264 $267 $346 forward $149 $-1 #
coedge $-1 $270 $151 $152 $258 reversed $85 $-1 #
coedge $-1 $264 $345 $151 $256 reversed $149 $-1 #
edge $-1 $271 -146.3081759086886677 $347 146.3081759086886109 $255 $348 forward 7 unknown #
coedge $-1 $153 $152 $345 $349 forward $51 $-1 #
edge $-1 $262 -292.6163518173772218 $347 292.6163518173772218 $254 $350 forward 7 unknown #
coedge $-1 $267 $266 $153 $260 reversed $251 $-1 #
edge $-1 $351 -292.6163518173772218 $261 292.6163518173772218 $259 $352 forward 7 unknown #
vertex $-1 $155 $353 #
vertex $-1 $273 $354 #
straight-curve $-1 203.2683956266162681 91.95320739095018325 230.9551526954300016 0 -1 0 I I #
coedge $-1 $253 $255 $156 $265 reversed $149 $-1 #
edge $-1 $268 -8.980993092264540678 $271 8.980993092264540678 $264 $355 forward 7 unknown #
coedge $-1 $259 $157 $162 $274 forward $251 $-1 #
coedge $-1 $157 $259 $253 $346 reversed $251 $-1 #
vertex $-1 $158 $356 #
straight-curve $-1 -210.4905905029783071 100.9342004832147239 223.7329578190679342 -0.6946583619273494214 0 -0.7193398085775676298 I I #
coedge $-1 $159 $254 $161 $273 reversed $85 $-1 #
vertex $-1 $265 $357 #
straight-curve $-1 -210.4905905029783071 82.97221429868564258 223.7329578190679342 0.6946583619273494214 0 0.7193398085775676298 I I #
edge $-1 $164 -146.3081759086886109 $262 146.3081759086886109 $161 $358 forward 7 unknown #
edge $-1 $165 -146.3081759086886109 $261 146.3081759086886109 $162 $359 forward 7 unknown #
point $-1 -7.222194876362053151 82.97221429868564258 434.2235483220462129 #
point $-1 -7.222194876362053151 100.9342004832147239 434.2235483220462129 #
coedge $-1 $277 $277 $-1 $360 reversed $167 $-1 #
vertex $-1 $169 $361 #
ellipse-curve $-1 3.006708145958927769 91.95320739095018325 20.72692804619855522 -0.7193398085775676298 0 0.6946583619273494214 0.3473291809636747107 0 0.3596699042887838149 1 I I #
point $-1 1.92931993146171199 91.95320739095018325 22.4624315139005617 #
face $-1 $-1 $187 $16 $-1 $362 reversed single #
loop $-1 $-1 $297 $172 #
plane-surface $-1 149.9192733468696304 100.9342004832147239 227.3440552572489537 0 -1 0 -0.7193398085775676298 0 -0.6946583619273494214 forward_v I I I I #
coedge $-1 $363 $295 $298 $364 forward $173 $-1 #
coedge $-1 $301 $175 $176 $289 reversed $98 $-1 #
coedge $-1 $295 $363 $175 $287 reversed $173 $-1 #
edge $-1 $302 -146.3081759086886677 $365 146.3081759086886109 $286 $366 forward 7 unknown #
coedge $-1 $177 $176 $363 $367 forward $60 $-1 #
edge $-1 $293 -292.6163518173772218 $365 292.6163518173772218 $285 $368 forward 7 unknown #
coedge $-1 $298 $297 $177 $291 reversed $282 $-1 #
edge $-1 $369 -292.6163518173772218 $292 292.6163518173772218 $290 $370 forward 7 unknown #
vertex $-1 $179 $371 #
vertex $-1 $304 $372 #
straight-curve $-1 247.9423737219967165 91.95320739095018325 -84.78073305903745904 0 -1 0 I I #
coedge $-1 $284 $286 $180 $296 reversed $173 $-1 #
edge $-1 $299 -8.980993092264540678 $302 8.980993092264540678 $295 $373 forward 7 unknown #
coedge $-1 $290 $181 $186 $305 forward $282 $-1 #
coedge $-1 $181 $290 $284 $364 reversed $282 $-1 #
vertex $-1 $182 $374 #
straight-curve $-1 255.1645685983587839 100.9342004832147239 328.9782530705570593 -0.6946583619273494214 0 0.7193398085775676298 I I #
coedge $-1 $183 $285 $185 $304 reversed $98 $-1 #
vertex $-1 $296 $375 #
straight-curve $-1 255.1645685983587839 82.97221429868564258 328.9782530705570593 0.6946583619273494214 0 -0.7193398085775676298 I I #
edge $-1 $188 -146.3081759086886677 $293 146.3081759086886109 $185 $376 forward 7 unknown #
edge $-1 $189 -146.3081759086886677 $292 146.3081759086886109 $186 $377 forward 7 unknown #
point $-1 458.4329642249750805 82.97221429868564258 118.4876625675787665 #
point $-1 458.4329642249750805 100.9342004832147239 118.4876625675787665 #
coedge $-1 $308 $308 $-1 $378 reversed $191 $-1 #
vertex $-1 $193 $379 #
ellipse-curve $-1 143.3014677627297147 91.95320739095018325 20.72692804619855522 0.7193398085775676298 0 0.6946583619273494214 0.3473291809636747107 0 -0.3596699042887838149 1 I I #
point $-1 145.0735143391542579 91.95320739095018325 21.74309170532299618 #
plane-surface $-1 146.3081759086886109 50.46710024160736197 11.8704805133859157 -1 0 0 0 0 1 forward_v I I I I #
coedge $-1 $201 $199 $203 $317 reversed $111 $-1 #
edge $-1 $214 -11.8704805133859157 $319 11.8704805133859157 $213 $380 forward 7 unknown #
vertex $-1 $317 $381 #
straight-curve $-1 0 0 11.8704805133859157 0 0 -1 I I #
edge $-1 $315 -50.46710024160736197 $319 50.46710024160736197 $313 $382 forward 7 unknown #
straight-curve $-1 73.15408795434430544 0 0 -1 0 0 I I #
vertex $-1 $206 $383 #
straight-curve $-1 73.15408795434430544 100.9342004832147239 0 1 0 0 I I #
point $-1 146.3081759086886109 100.9342004832147239 0 #
point $-1 146.3081759086886109 0 0 #
straight-curve $-1 0 50.46710024160736197 23.7409610267718314 0 -1 0 I I #
point $-1 0 100.9342004832147239 23.7409610267718314 #
point $-1 0 0 23.7409610267718314 #
straight-curve $-1 146.3081759086886109 0 11.8704805133859157 0 0 -1 I I #
straight-curve $-1 146.3081759086886109 100.9342004832147239 11.8704805133859157 0 0 -1 I I #
plane-surface $-1 146.3081759086886109 -5.525788921647048824 2.570772144753577404 -1 0 0 0 0 1 forward_v I I I I #
coedge $-1 $228 $226 $230 $333 reversed $130 $-1 #
edge $-1 $241 -2.570772144753577404 $335 2.570772144753577404 $240 $384 forward 7 unknown #
vertex $-1 $333 $385 #
straight-curve $-1 0 -11.05157784329409765 2.570772144753577404 0 0 -1 I I #
edge $-1 $331 -5.525788921647048824 $335 5.525788921647048824 $329 $386 forward 7 unknown #
straight-curve $-1 73.15408795434430544 -11.05157784329409765 0 -1 0 0 I I #
vertex $-1 $233 $387 #
straight-curve $-1 73.15408795434430544 0 0 1 0 0 I I #
point $-1 146.3081759086886109 0 0 #
point $-1 146.3081759086886109 -11.05157784329409765 0 #
straight-curve $-1 0 -5.525788921647048824 5.141544289507154808 0 -1 0 I I #
point $-1 0 0 5.141544289507154808 #
point $-1 0 -11.05157784329409765 5.141544289507154808 #
straight-curve $-1 146.3081759086886109 -11.05157784329409765 2.570772144753577404 0 0 -1 I I #
straight-curve $-1 146.3081759086886109 0 2.570772144753577404 0 0 -1 I I #
plane-surface $-1 98.02310037512710039 91.95320739095018325 332.5893505087381072 -0.6946583619273494214 0 -0.7193398085775676298 -0.7193398085775676298 0 0.6946583619273494214 forward_v I I I I #
coedge $-1 $255 $253 $257 $349 reversed $149 $-1 #
edge $-1 $268 -146.3081759086886677 $351 146.3081759086886109 $267 $388 forward 7 unknown #
vertex $-1 $349 $389 #
straight-curve $-1 -308.5136908781053648 82.97221429868564258 -88.39183049721849272 0.7193398085775676298 0 -0.6946583619273494214 I I #
edge $-1 $347 -8.980993092264540678 $351 8.980993092264540678 $345 $390 forward 7 unknown #
straight-curve $-1 1.421085471520200372e-14 82.97221429868564258 20.4645621924516945 -0.6946583619273494214 0 -0.7193398085775676298 I I #
vertex $-1 $260 $391 #
straight-curve $-1 1.421085471520200372e-14 100.9342004832147239 20.4645621924516945 0.6946583619273494214 0 0.7193398085775676298 I I #
point $-1 203.2683956266162681 100.9342004832147239 230.9551526954300016 #
point $-1 203.2683956266162681 82.97221429868564258 230.9551526954300016 #
straight-curve $-1 -413.7589861295945752 91.95320739095018325 13.24236731608962714 0 -1 0 I I #
point $-1 -413.7589861295945752 100.9342004832147239 13.24236731608962714 #
point $-1 -413.7589861295945752 82.97221429868564258 13.24236731608962714 #
straight-curve $-1 98.02310037512710039 82.97221429868564258 332.5893505087381072 0.7193398085775676298 0 -0.6946583619273494214 I I #
straight-curve $-1 98.02310037512710039 100.9342004832147239 332.5893505087381072 0.7193398085775676298 0 -0.6946583619273494214 I I #
edge $-1 $392 1 $392 0 $277 $-1 forward 7 unknown #
point $-1 3.354037326922602258 91.95320739095018325 21.08659795048733798 #
plane-surface $-1 353.1876689734858701 91.95320739095018325 16.85346475427064661 -0.6946583619273494214 0 0.7193398085775676298 0.7193398085775676298 0 0.6946583619273494214 forward_v I I I I #
coedge $-1 $286 $284 $288 $367 reversed $173 $-1 #
edge $-1 $299 -146.3081759086886677 $369 146.3081759086886109 $298 $393 forward 7 unknown #
vertex $-1 $367 $394 #
straight-curve $-1 -53.34912227974660937 82.97221429868564258 437.8346457602272608 -0.7193398085775676298 0 -0.6946583619273494214 I I #
edge $-1 $365 -8.980993092264540678 $369 8.980993092264540678 $363 $395 forward 7 unknown #
straight-curve $-1 44.67397809538047682 82.97221429868564258 125.7098574439408338 -0.6946583619273494214 0 0.7193398085775676298 I I #
vertex $-1 $291 $396 #
straight-curve $-1 44.67397809538047682 100.9342004832147239 125.7098574439408338 0.6946583619273494214 0 -0.7193398085775676298 I I #
point $-1 247.9423737219967165 100.9342004832147239 -84.78073305903745904 #
point $-1 247.9423737219967165 82.97221429868564258 -84.78073305903745904 #
straight-curve $-1 51.89617297174254418 91.95320739095018325 539.4688435735354233 0 -1 0 I I #
point $-1 51.89617297174254418 100.9342004832147239 539.4688435735354233 #
point $-1 51.89617297174254418 82.97221429868564258 539.4688435735354233 #
straight-curve $-1 353.1876689734858701 82.97221429868564258 16.85346475427064661 -0.7193398085775676298 0 -0.6946583619273494214 I I #
straight-curve $-1 353.1876689734858701 100.9342004832147239 16.85346475427064661 -0.7193398085775676298 0 -0.6946583619273494214 I I #
edge $-1 $397 1 $397 0 $308 $-1 forward 7 unknown #
point $-1 143.6487969436933838 91.95320739095018325 20.36725814190976891 #
straight-curve $-1 0 100.9342004832147239 11.8704805133859157 0 0 -1 I I #
point $-1 0 0 0 #
straight-curve $-1 0 50.46710024160736197 0 0 1 0 I I #
point $-1 0 100.9342004832147239 0 #
straight-curve $-1 0 0 2.570772144753577404 0 0 -1 I I #
point $-1 0 -11.05157784329409765 0 #
straight-curve $-1 0 -5.525788921647048824 0 0 1 0 I I #
point $-1 0 0 0 #
straight-curve $-1 -308.5136908781053648 100.9342004832147239 -88.39183049721849272 0.7193398085775676298 0 -0.6946583619273494214 I I #
point $-1 -203.2683956266162113 82.97221429868564258 -190.0260283105266126 #
straight-curve $-1 -203.2683956266162113 91.95320739095018325 -190.0260283105266126 0 1 0 I I #
point $-1 -203.2683956266162113 100.9342004832147239 -190.0260283105266126 #
vertex $-1 $360 $398 #
straight-curve $-1 -53.34912227974660937 100.9342004832147239 437.8346457602272608 -0.7193398085775676298 0 -0.6946583619273494214 I I #
point $-1 -158.5944175312357913 82.97221429868564258 336.2004479469191551 #
straight-curve $-1 -158.5944175312357913 91.95320739095018325 336.2004479469191551 0 1 0 I I #
point $-1 -158.5944175312357913 100.9342004832147239 336.2004479469191551 #
vertex $-1 $378 $399 #
point $-1 3.366378050247711418 91.95320739095018325 20.37959886523487896 #
point $-1 142.941797858440907 91.95320739095018325 20.37959886523487896 #
End-of-ACIS-data 