300 0 6 0           
7 Unknown 11 ACIS 3.0 NT 24 Fri Oct 30 17:58:55 1998 
-1 9.9999999999999995e-007 1e-010 
body $6 $7 $-1 $8 #
body $9 $10 $-1 $11 #
body $12 $13 $-1 $14 #
body $15 $16 $-1 $17 #
body $18 $19 $-1 $20 #
body $21 $22 $-1 $23 #
display_attribute-st-attrib $-1 $24 $-1 $0 2 #
lump $-1 $-1 $25 $0 #
transform $-1 1 0 0 0 1 0 0 0 1 73.154087954344305 50.467100241607362 11.870480513385916 1 rotate no_reflect no_shear #
display_attribute-st-attrib $-1 $26 $-1 $1 1 #
lump $-1 $-1 $27 $1 #
transform $-1 1 0 0 0 1 0 0 0 1 73.154087954344305 50.467100241607362 11.870480513385916 1 rotate no_reflect no_shear #
display_attribute-st-attrib $-1 $28 $-1 $2 4 #
lump $-1 $-1 $29 $2 #
transform $-1 1 0 0 0 1 0 0 0 1 73.154087954344305 50.467100241607362 11.870480513385916 1 rotate no_reflect no_shear #
display_attribute-st-attrib $-1 $30 $-1 $3 3 #
lump $-1 $-1 $31 $3 #
transform $-1 1 0 0 0 1 0 0 0 1 73.154087954344305 50.467100241607362 11.870480513385916 1 rotate no_reflect no_shear #
display_attribute-st-attrib $-1 $32 $-1 $4 2 #
lump $-1 $-1 $33 $4 #
transform $-1 1 0 0 0 1 0 0 0 1 73.154087954344305 50.467100241607362 11.870480513385916 1 rotate no_reflect no_shear #
display_attribute-st-attrib $-1 $34 $-1 $5 1 #
lump $-1 $-1 $35 $5 #
transform $-1 1 0 0 0 1 0 0 0 1 73.154087954344305 50.467100241607362 11.870480513385916 1 rotate no_reflect no_shear #
id_attribute-st-attrib $-1 $-1 $6 $0 1518 #
shell $-1 $-1 $-1 $36 $-1 $7 #
id_attribute-st-attrib $-1 $-1 $9 $1 1526 #
shell $-1 $-1 $-1 $37 $-1 $10 #
id_attribute-st-attrib $-1 $-1 $12 $2 1537 #
shell $-1 $-1 $-1 $38 $-1 $13 #
id_attribute-st-attrib $-1 $-1 $15 $3 1544 #
shell $-1 $-1 $-1 $39 $-1 $16 #
id_attribute-st-attrib $-1 $-1 $18 $4 1555 #
shell $-1 $-1 $-1 $40 $-1 $19 #
id_attribute-st-attrib $-1 $-1 $21 $5 1564 #
shell $-1 $-1 $-1 $41 $-1 $22 #
face $-1 $42 $43 $25 $-1 $44 forward single #
face $-1 $45 $46 $27 $-1 $47 forward single #
face $-1 $48 $49 $29 $-1 $50 reversed single #
face $-1 $51 $52 $31 $-1 $53 forward single #
face $-1 $54 $55 $33 $-1 $56 reversed single #
face $-1 $57 $58 $35 $-1 $59 forward single #
face $-1 $60 $61 $25 $-1 $62 reversed single #
loop $-1 $-1 $63 $36 #
plane-surface $-1 0 0 11.870480513385916 0 0 1 1 0 0 forward_v I I I I #
face $-1 $64 $65 $27 $-1 $66 reversed single #
loop $-1 $-1 $67 $37 #
plane-surface $-1 0 -50.467100241607362 0 0 1 0 0 0 1 forward_v I I I I #
face $-1 $68 $69 $29 $-1 $70 reversed single #
loop $-1 $-1 $71 $38 #
plane-surface $-1 -178.39938320583343 32.505114057078281 110.2282794923739 0 1 0 -0.71933980857756763 0 0.69465836192734942 forward_v I I I I #
face $-1 $72 $73 $31 $-1 $74 forward single #
loop $-1 $75 $76 $39 #
cone-surface $-1 -70.859738506115832 41.486107149342821 9.5443643145192514 0.71933980857756763 0 -0.69465836192734942 0.34732918096367471 0 0.35966990428878381 1 I I 0 1 forward I I I I #
face $-1 $77 $78 $33 $-1 $79 reversed single #
loop $-1 $-1 $80 $40 #
plane-surface $-1 76.765185392525325 32.505114057078281 215.47357474386303 0 1 0 0.71933980857756763 0 0.69465836192734942 forward_v I I I I #
face $-1 $81 $82 $35 $-1 $83 forward single #
loop $-1 $84 $85 $41 #
cone-surface $-1 70.859738506115846 41.486107149342821 9.5443643145192514 -0.71933980857756763 0 -0.69465836192734942 0.34732918096367471 0 -0.35966990428878381 1 I I 0 1 forward I I I I #
face $-1 $86 $87 $25 $-1 $88 reversed single #
loop $-1 $-1 $89 $42 #
plane-surface $-1 0 0 -11.870480513385916 0 0 1 1 0 0 forward_v I I I I #
coedge $-1 $90 $91 $92 $93 forward $43 $-1 #
face $-1 $94 $95 $27 $-1 $96 reversed single #
loop $-1 $-1 $97 $45 #
plane-surface $-1 0 0 -11.870480513385916 0 0 1 1 0 0 forward_v I I I I #
coedge $-1 $98 $99 $100 $101 forward $46 $-1 #
face $-1 $102 $103 $29 $-1 $104 reversed single #
loop $-1 $-1 $105 $48 #
plane-surface $-1 -73.154087954344277 41.486107149342821 8.5940816790657806 -0.71933980857756763 0 0.69465836192734942 0.69465836192734942 0 0.71933980857756763 forward_v I I I I #
coedge $-1 $106 $107 $108 $109 reversed $49 $-1 #
face $-1 $-1 $110 $31 $-1 $111 forward single #
loop $-1 $112 $113 $51 #
cone-surface $-1 -69.967544856240991 41.486107149342821 8.6827829423308014 0.71933980857756763 0 -0.69465836192734942 0.17366459048183736 0 0.17983495214439191 1 I I -0.70710678118654746 0.70710678118654746 forward I I I I #
loop $-1 $-1 $114 $39 #
coedge $-1 $76 $76 $115 $116 reversed $52 $-1 #
face $-1 $117 $118 $33 $-1 $119 forward single #
loop $-1 $-1 $120 $54 #
plane-surface $-1 -28.480109858963829 41.486107149342821 113.83937693055491 0.71933980857756763 0 0.69465836192734942 0.69465836192734942 0 -0.71933980857756763 forward_v I I I I #
coedge $-1 $121 $122 $123 $124 reversed $55 $-1 #
face $-1 $-1 $125 $35 $-1 $126 forward single #
loop $-1 $127 $128 $57 #
cone-surface $-1 69.967544856241005 41.486107149342821 8.6827829423308014 -0.71933980857756763 0 -0.69465836192734942 0.17366459048183736 0 -0.17983495214439191 1 I I -0.70710678118654746 0.70710678118654746 forward I I I I #
loop $-1 $-1 $129 $41 #
coedge $-1 $85 $85 $130 $131 reversed $58 $-1 #
face $-1 $132 $133 $25 $-1 $134 reversed single #
loop $-1 $-1 $135 $60 #
plane-surface $-1 0 -50.467100241607362 0 0 1 0 0 0 1 forward_v I I I I #
coedge $-1 $136 $137 $138 $139 forward $61 $-1 #
coedge $-1 $140 $63 $141 $142 forward $43 $-1 #
coedge $-1 $63 $140 $143 $144 forward $43 $-1 #
coedge $-1 $145 $146 $63 $93 reversed $147 $-1 #
edge $-1 $148 $149 $92 $150 forward #
face $-1 $151 $152 $27 $-1 $153 forward single #
loop $-1 $-1 $154 $64 #
plane-surface $-1 73.154087954344305 0 0 -1 0 0 0 0 1 forward_v I I I I #
coedge $-1 $155 $156 $157 $158 forward $65 $-1 #
coedge $-1 $157 $67 $154 $159 reversed $46 $-1 #
coedge $-1 $67 $157 $160 $161 reversed $46 $-1 #
coedge $-1 $162 $163 $67 $101 reversed $152 $-1 #
edge $-1 $164 $165 $100 $166 forward #
face $-1 $167 $168 $29 $-1 $169 reversed single #
loop $-1 $-1 $170 $68 #
plane-surface $-1 0 50.467100241607362 0 0 -1 0 0 0 -1 forward_v I I I I #
coedge $-1 $171 $172 $173 $174 reversed $69 $-1 #
coedge $-1 $107 $71 $175 $176 reversed $49 $-1 #
coedge $-1 $71 $106 $171 $177 reversed $49 $-1 #
coedge $-1 $173 $178 $71 $109 forward $179 $-1 #
edge $-1 $180 $181 $108 $182 forward #
loop $-1 $-1 $115 $72 #
plane-surface $-1 -73.154087954344277 41.486107149342821 8.5940816790657806 -0.71933980857756763 0 0.69465836192734942 0.69465836192734942 0 0.71933980857756763 forward_v I I I I #
loop $-1 $-1 $183 $51 #
coedge $-1 $113 $113 $114 $184 reversed $73 $-1 #
coedge $-1 $114 $114 $113 $184 forward $75 $-1 #
coedge $-1 $115 $115 $76 $116 forward $110 $-1 #
edge $-1 $185 $185 $115 $186 forward #
face $-1 $187 $188 $33 $-1 $189 reversed single #
loop $-1 $-1 $190 $77 #
plane-surface $-1 0 0 11.870480513385916 0 0 1 1 0 0 forward_v I I I I #
coedge $-1 $191 $192 $193 $194 reversed $78 $-1 #
coedge $-1 $122 $80 $195 $196 reversed $55 $-1 #
coedge $-1 $80 $121 $191 $197 reversed $55 $-1 #
coedge $-1 $193 $198 $80 $124 forward $199 $-1 #
edge $-1 $200 $201 $123 $202 forward #
loop $-1 $-1 $130 $81 #
plane-surface $-1 -28.480109858963829 41.486107149342821 113.83937693055491 0.71933980857756763 0 0.69465836192734942 0.69465836192734942 0 -0.71933980857756763 forward_v I I I I #
loop $-1 $-1 $203 $57 #
coedge $-1 $128 $128 $129 $204 reversed $82 $-1 #
coedge $-1 $129 $129 $128 $204 forward $84 $-1 #
coedge $-1 $130 $130 $85 $131 forward $125 $-1 #
edge $-1 $205 $205 $130 $206 forward #
face $-1 $207 $208 $25 $-1 $209 reversed single #
loop $-1 $-1 $210 $86 #
plane-surface $-1 -73.154087954344305 0 0 1 0 0 0 0 -1 forward_v I I I I #
coedge $-1 $143 $211 $145 $212 reversed $87 $-1 #
coedge $-1 $213 $89 $211 $214 forward $61 $-1 #
coedge $-1 $89 $213 $215 $216 forward $61 $-1 #
coedge $-1 $146 $145 $89 $139 reversed $147 $-1 #
edge $-1 $217 $218 $138 $219 forward #
coedge $-1 $91 $90 $220 $221 forward $43 $-1 #
coedge $-1 $222 $223 $90 $142 reversed $208 $-1 #
edge $-1 $149 $224 $141 $225 forward #
coedge $-1 $226 $135 $91 $144 reversed $87 $-1 #
edge $-1 $227 $148 $143 $228 forward #
coedge $-1 $138 $92 $135 $212 forward $147 $-1 #
coedge $-1 $92 $138 $222 $229 reversed $147 $-1 #
loop $-1 $-1 $145 $207 #
vertex $-1 $93 $230 #
vertex $-1 $93 $231 #
straight-curve $-1 73.154087954344305 0 11.870480513385916 0 1 0 I I #
face $-1 $232 $233 $27 $-1 $234 reversed single #
loop $-1 $-1 $163 $94 #
plane-surface $-1 0 -55.992889163254411 -6.72893622387876 0 0 1 1 0 0 forward_v I I I I #
coedge $-1 $235 $236 $98 $159 forward $95 $-1 #
coedge $-1 $237 $97 $236 $238 forward $65 $-1 #
coedge $-1 $97 $237 $239 $240 forward $65 $-1 #
coedge $-1 $99 $98 $97 $158 reversed $46 $-1 #
edge $-1 $241 $242 $97 $243 forward #
edge $-1 $242 $165 $154 $244 forward #
coedge $-1 $239 $245 $99 $161 forward $246 $-1 #
edge $-1 $164 $241 $160 $247 forward #
coedge $-1 $248 $100 $245 $249 forward $152 $-1 #
coedge $-1 $100 $248 $235 $250 forward $152 $-1 #
vertex $-1 $161 $251 #
vertex $-1 $250 $252 #
straight-curve $-1 0 -50.467100241607362 -6.72893622387876 1 0 0 I I #
face $-1 $-1 $179 $29 $-1 $253 forward single #
loop $-1 $-1 $254 $102 #
plane-surface $-1 -73.154087954344305 0 0 1 0 0 0 0 -1 forward_v I I I I #
coedge $-1 $255 $256 $172 $257 forward $103 $-1 #
coedge $-1 $258 $105 $107 $177 forward $69 $-1 #
coedge $-1 $105 $258 $170 $257 reversed $69 $-1 #
coedge $-1 $259 $108 $105 $174 forward $179 $-1 #
edge $-1 $181 $260 $173 $261 forward #
coedge $-1 $262 $254 $106 $176 forward $168 $-1 #
edge $-1 $263 $180 $175 $264 forward #
edge $-1 $181 $263 $107 $265 forward #
coedge $-1 $108 $259 $262 $266 forward $179 $-1 #
loop $-1 $-1 $173 $167 #
vertex $-1 $176 $267 #
vertex $-1 $109 $268 #
straight-curve $-1 -89.199691602916715 32.505114057078281 11.870480513385914 1 0 0 I I #
coedge $-1 $183 $183 $-1 $269 reversed $112 $-1 #
edge $-1 $270 $270 $113 $271 forward #
vertex $-1 $116 $272 #
ellipse-curve $-1 -71.572097203846241 41.486107149342821 10.232281096225829 -0.71933980857756763 0 0.69465836192734942 0.34732918096367471 0 0.35966990428878381 1 I I #
face $-1 $-1 $199 $33 $-1 $273 reversed single #
loop $-1 $-1 $274 $117 #
plane-surface $-1 0 50.467100241607362 0 0 -1 0 0 0 -1 forward_v I I I I #
coedge $-1 $195 $275 $276 $277 forward $118 $-1 #
coedge $-1 $276 $120 $122 $197 forward $78 $-1 #
coedge $-1 $120 $276 $274 $278 reversed $78 $-1 #
coedge $-1 $279 $123 $120 $194 forward $199 $-1 #
edge $-1 $201 $280 $193 $281 forward #
coedge $-1 $282 $190 $121 $196 forward $118 $-1 #
edge $-1 $283 $200 $195 $284 forward #
edge $-1 $201 $283 $122 $285 forward #
coedge $-1 $123 $279 $282 $286 reversed $199 $-1 #
loop $-1 $-1 $193 $187 #
vertex $-1 $286 $287 #
vertex $-1 $124 $288 #
straight-curve $-1 73.154087954344305 32.505114057078281 107.73678737193151 0 0 -1 I I #
coedge $-1 $203 $203 $-1 $289 reversed $127 $-1 #
edge $-1 $290 $290 $128 $291 forward #
vertex $-1 $131 $292 #
ellipse-curve $-1 71.572097203846241 41.486107149342821 10.232281096225815 0.71933980857756763 0 0.69465836192734942 0.34732918096367471 0 -0.35966990428878381 1 I I #
face $-1 $-1 $147 $25 $-1 $293 reversed single #
loop $-1 $-1 $222 $132 #
plane-surface $-1 0 50.467100241607362 0 0 -1 0 0 0 -1 forward_v I I I I #
coedge $-1 $294 $220 $223 $295 forward $133 $-1 #
coedge $-1 $135 $226 $136 $214 reversed $87 $-1 #
edge $-1 $148 $218 $145 $296 forward #
coedge $-1 $137 $136 $294 $297 forward $61 $-1 #
edge $-1 $218 $298 $211 $299 forward #
coedge $-1 $223 $222 $137 $216 reversed $208 $-1 #
edge $-1 $300 $217 $215 $301 forward #
vertex $-1 $139 $302 #
vertex $-1 $212 $303 #
straight-curve $-1 73.154087954344305 0 -11.870480513385916 0 -1 0 I I #
coedge $-1 $210 $304 $140 $221 reversed $133 $-1 #
edge $-1 $224 $227 $220 $305 forward #
coedge $-1 $215 $141 $146 $229 forward $208 $-1 #
coedge $-1 $141 $215 $210 $295 reversed $208 $-1 #
vertex $-1 $142 $306 #
straight-curve $-1 0 50.467100241607362 11.870480513385916 -1 0 0 I I #
coedge $-1 $211 $143 $304 $307 forward $87 $-1 #
vertex $-1 $221 $308 #
straight-curve $-1 0 -50.467100241607362 11.870480513385916 1 0 0 I I #
edge $-1 $149 $217 $146 $309 forward #
point $-1 73.154087954344305 -50.467100241607362 11.870480513385916 #
point $-1 73.154087954344305 50.467100241607362 11.870480513385916 #
face $-1 $-1 $246 $27 $-1 $310 reversed single #
loop $-1 $-1 $311 $151 #
plane-surface $-1 0 -61.51867808490146 -9.2997083686323379 0 1 0 0 0 1 forward_v I I I I #
coedge $-1 $312 $154 $163 $250 reversed $95 $-1 #
coedge $-1 $154 $312 $155 $238 reversed $95 $-1 #
coedge $-1 $156 $155 $313 $314 forward $65 $-1 #
edge $-1 $242 $315 $236 $316 forward #
coedge $-1 $317 $160 $156 $240 reversed $246 $-1 #
edge $-1 $318 $241 $239 $319 forward #
vertex $-1 $161 $320 #
vertex $-1 $238 $321 #
straight-curve $-1 0 -50.467100241607362 -11.870480513385916 1 0 0 I I #
straight-curve $-1 73.154087954344305 -50.467100241607362 0 0 0 1 I I #
coedge $-1 $160 $317 $162 $249 reversed $246 $-1 #
loop $-1 $-1 $160 $232 #
straight-curve $-1 -73.154087954344305 -50.467100241607362 0 0 0 -1 I I #
coedge $-1 $163 $162 $322 $323 forward $152 $-1 #
edge $-1 $164 $324 $245 $325 forward #
edge $-1 $326 $165 $235 $327 forward #
point $-1 -73.154087954344305 -50.467100241607362 -6.72893622387876 #
point $-1 73.154087954344305 -50.467100241607362 -6.72893622387876 #
plane-surface $-1 0 0 11.870480513385916 0 0 1 1 0 0 forward_v I I I I #
coedge $-1 $175 $328 $258 $329 forward $168 $-1 #
coedge $-1 $256 $170 $328 $330 reversed $103 $-1 #
coedge $-1 $170 $255 $259 $331 reversed $103 $-1 #
edge $-1 $260 $332 $170 $333 forward #
coedge $-1 $172 $171 $254 $329 reversed $69 $-1 #
coedge $-1 $178 $173 $256 $331 forward $179 $-1 #
vertex $-1 $331 $334 #
straight-curve $-1 -69.990106453348176 20.743053574671411 11.870480513385916 0 1 0 I I #
coedge $-1 $328 $175 $178 $266 reversed $168 $-1 #
vertex $-1 $176 $335 #
straight-curve $-1 -73.154087954344305 32.505114057078281 55.11413974618695 0 0 1 I I #
straight-curve $-1 -73.154087954344277 32.505114057078281 8.5940816790657806 -0.69465836192734942 0 -0.71933980857756763 I I #
edge $-1 $336 $180 $262 $337 forward #
point $-1 -73.154087954344305 32.505114057078281 11.870480513385916 #
point $-1 -69.990106453348176 32.505114057078281 11.870480513385916 #
edge $-1 $338 $338 $183 $-1 forward #
vertex $-1 $184 $339 #
ellipse-curve $-1 -70.147379808385381 41.486107149342821 8.8564475328126395 -0.71933980857756763 0 0.69465836192734942 0.34732918096367471 0 0.35966990428878381 1 I I #
point $-1 -71.2247680228826 41.486107149342821 10.591951000514648 #
plane-surface $-1 73.154087954344305 0 0 -1 0 0 0 0 1 forward_v I I I I #
coedge $-1 $340 $341 $192 $278 forward $188 $-1 #
coedge $-1 $190 $282 $340 $342 forward $118 $-1 #
coedge $-1 $192 $191 $190 $277 reversed $78 $-1 #
edge $-1 $343 $283 $190 $344 forward #
edge $-1 $280 $343 $274 $345 forward #
coedge $-1 $198 $193 $341 $346 reversed $199 $-1 #
vertex $-1 $194 $347 #
straight-curve $-1 73.154087954344305 20.743053574671411 8.5940816790657308 0 1 0 I I #
coedge $-1 $275 $195 $198 $286 forward $118 $-1 #
vertex $-1 $196 $348 #
straight-curve $-1 38.382592696262662 32.505114057078281 11.870480513385914 1 0 0 I I #
straight-curve $-1 -28.480109858963829 32.505114057078281 113.83937693055491 -0.69465836192734942 0 0.71933980857756763 I I #
edge $-1 $200 $349 $198 $350 forward #
point $-1 73.154087954344305 32.505114057078281 11.870480513385916 #
point $-1 73.154087954344305 32.505114057078281 8.5940816790657237 #
edge $-1 $351 $351 $203 $-1 forward #
vertex $-1 $204 $352 #
ellipse-curve $-1 70.147379808385395 41.486107149342821 8.8564475328126395 0.71933980857756763 0 0.69465836192734942 0.34732918096367471 0 -0.35966990428878381 1 I I #
point $-1 71.919426384809967 41.486107149342821 9.8726111919370787 #
plane-surface $-1 73.154087954344305 0 0 -1 0 0 0 0 1 forward_v I I I I #
coedge $-1 $304 $210 $213 $297 reversed $133 $-1 #
edge $-1 $224 $300 $223 $353 forward #
straight-curve $-1 73.154087954344305 -50.467100241607362 0 0 0 -1 I I #
edge $-1 $298 $300 $294 $354 forward #
vertex $-1 $297 $355 #
straight-curve $-1 0 -50.467100241607362 -11.870480513385916 -1 0 0 I I #
vertex $-1 $216 $356 #
straight-curve $-1 0 50.467100241607362 -11.870480513385916 1 0 0 I I #
point $-1 73.154087954344305 50.467100241607362 -11.870480513385916 #
point $-1 73.154087954344305 -50.467100241607362 -11.870480513385916 #
coedge $-1 $220 $294 $226 $307 reversed $133 $-1 #
straight-curve $-1 -73.154087954344305 0 11.870480513385916 0 -1 0 I I #
point $-1 -73.154087954344305 50.467100241607362 11.870480513385916 #
edge $-1 $227 $298 $304 $357 forward #
point $-1 -73.154087954344305 -50.467100241607362 11.870480513385916 #
straight-curve $-1 73.154087954344305 50.467100241607362 0 0 0 -1 I I #
plane-surface $-1 -73.154087954344305 0 0 1 0 0 0 0 -1 forward_v I I I I #
coedge $-1 $313 $322 $317 $358 forward $233 $-1 #
coedge $-1 $236 $235 $359 $360 forward $95 $-1 #
coedge $-1 $359 $311 $237 $314 reversed $233 $-1 #
edge $-1 $315 $318 $313 $361 forward #
vertex $-1 $360 $362 #
straight-curve $-1 73.154087954344305 0 -11.870480513385916 0 -1 0 I I #
coedge $-1 $245 $239 $311 $358 reversed $246 $-1 #
vertex $-1 $240 $363 #
straight-curve $-1 -73.154087954344305 0 -11.870480513385916 0 1 0 I I #
point $-1 -73.154087954344305 -50.467100241607362 -11.870480513385916 #
point $-1 73.154087954344305 -50.467100241607362 -11.870480513385916 #
coedge $-1 $311 $359 $248 $323 reversed $233 $-1 #
edge $-1 $324 $326 $322 $364 forward #
vertex $-1 $249 $365 #
straight-curve $-1 -73.154087954344305 -55.992889163254411 -6.72893622387876 0 -1 0 I I #
vertex $-1 $250 $366 #
straight-curve $-1 73.154087954344305 -55.992889163254411 -6.72893622387876 0 1 0 I I #
coedge $-1 $254 $262 $255 $330 forward $168 $-1 #
edge $-1 $332 $263 $254 $367 forward #
edge $-1 $336 $332 $255 $368 forward #
edge $-1 $260 $336 $256 $369 forward #
vertex $-1 $257 $370 #
straight-curve $-1 -57.651038209545248 50.467100241607362 24.647960027050843 -0.69465836192734942 0 -0.71933980857756763 I I #
point $-1 -69.990106453348176 50.467100241607362 11.870480513385916 #
point $-1 -73.154087954344305 32.505114057078281 8.5940816790657504 #
vertex $-1 $331 $371 #
straight-curve $-1 -73.154087954344305 0 11.870480513385916 0 -1 0 I I #
vertex $-1 $269 $372 #
point $-1 -69.800050627421712 41.486107149342821 9.2161174371014223 #
coedge $-1 $341 $274 $275 $342 reversed $188 $-1 #
coedge $-1 $274 $340 $279 $346 forward $188 $-1 #
edge $-1 $349 $343 $340 $373 forward #
vertex $-1 $278 $374 #
straight-curve $-1 69.990106453348147 20.743053574671411 11.870480513385914 0 -1 0 I I #
straight-curve $-1 6.8339393028911886 50.467100241607362 77.270607652795405 -0.69465836192734942 0 0.71933980857756763 I I #
edge $-1 $349 $280 $279 $375 forward #
point $-1 73.154087954344305 50.467100241607362 8.5940816790657344 #
point $-1 69.990106453348147 32.505114057078281 11.870480513385914 #
vertex $-1 $286 $376 #
straight-curve $-1 73.154087954344305 0 11.870480513385916 0 1 0 I I #
vertex $-1 $289 $377 #
point $-1 70.494708989349078 41.486107149342821 8.496777628523855 #
straight-curve $-1 -73.154087954344305 50.467100241607362 0 0 0 -1 I I #
straight-curve $-1 -73.154087954344305 0 -11.870480513385916 0 1 0 I I #
point $-1 -73.154087954344305 -50.467100241607362 -11.870480513385916 #
point $-1 -73.154087954344305 50.467100241607362 -11.870480513385916 #
straight-curve $-1 -73.154087954344305 -50.467100241607362 0 0 0 -1 I I #
edge $-1 $324 $318 $317 $378 forward #
coedge $-1 $322 $313 $312 $360 reversed $233 $-1 #
edge $-1 $326 $315 $312 $379 forward #
straight-curve $-1 0 -61.51867808490146 -11.870480513385916 -1 0 0 I I #
point $-1 73.154087954344305 -61.51867808490146 -11.870480513385916 #
point $-1 -73.154087954344305 -61.51867808490146 -11.870480513385916 #
straight-curve $-1 0 -61.51867808490146 -6.72893622387876 1 0 0 I I #
point $-1 -73.154087954344305 -61.51867808490146 -6.72893622387876 #
point $-1 73.154087954344305 -61.51867808490146 -6.72893622387876 #
straight-curve $-1 -73.154087954344305 20.743053574671411 8.5940816790657575 0 -1 0 I I #
straight-curve $-1 -73.154087954344305 50.467100241607362 0 0 0 -1 I I #
straight-curve $-1 0 50.467100241607362 11.870480513385916 -1 0 0 I I #
point $-1 -73.154087954344305 50.467100241607362 8.5940816790657504 #
point $-1 -73.154087954344305 50.467100241607362 11.870480513385916 #
point $-1 -69.787709904096602 41.486107149342821 8.5091183518489633 #
straight-curve $-1 0 50.467100241607362 11.870480513385916 -1 0 0 I I #
point $-1 69.990106453348147 50.467100241607362 11.870480513385914 #
straight-curve $-1 73.154087954344305 50.467100241607362 0 0 0 -1 I I #
point $-1 73.154087954344305 50.467100241607362 11.870480513385916 #
point $-1 69.787709904096616 41.486107149342821 8.5091183518489633 #
straight-curve $-1 -73.154087954344305 -61.51867808490146 -9.2997083686323379 0 0 -1 I I #
straight-curve $-1 73.154087954344305 -61.51867808490146 -9.2997083686323379 0 0 -1 I I #
End-of-ACIS-data 