600 0 4 0           
94 GICL ACIS Healer - Source: /gicl/data5/repository/Drexel/SM99-DATA/part117.smdg.feat.sat - 6 0 18 ACIS 6.0.3 Solaris 24 Sat Apr 13 20:44:42 2002 
1 9.999999999999999547e-07 1.000000000000000036e-10 
body $-1 $4 $-1 $-1 #
body $-1 $5 $-1 $-1 #
body $-1 $6 $-1 $-1 #
body $-1 $7 $-1 $-1 #
lump $-1 $-1 $8 $0 #
lump $-1 $-1 $9 $1 #
lump $-1 $-1 $10 $2 #
lump $-1 $-1 $11 $3 #
shell $-1 $-1 $-1 $12 $-1 $4 #
shell $-1 $-1 $-1 $13 $-1 $5 #
shell $-1 $-1 $-1 $14 $-1 $6 #
shell $-1 $-1 $-1 $15 $-1 $7 #
face $-1 $16 $17 $8 $-1 $18 forward single #
face $-1 $19 $20 $9 $-1 $21 forward single #
face $-1 $22 $23 $10 $-1 $24 forward single #
face $-1 $25 $26 $11 $-1 $27 forward single #
face $-1 $28 $29 $8 $-1 $30 reversed single #
loop $-1 $-1 $31 $12 #
plane-surface $-1 52.08410901211584587 20.90564928550825385 8.839618239409066547 0 0 1 1 0 0 forward_v I I I I #
face $-1 $32 $33 $9 $-1 $34 reversed single #
loop $-1 $-1 $35 $13 #
plane-surface $-1 7.339618239409066547 1.623010237143467815 8.839618239409066547 0 0 1 1 0 0 forward_v I I I I #
face $-1 $36 $37 $10 $-1 $38 reversed single #
loop $-1 $-1 $39 $14 #
plane-surface $-1 90.3868393949416884 180.241046943230117 165.9839044089004858 0 0.7880107618611372766 0.6156614647604883306 1 0 0 forward_v I I I I #
face $-1 $40 $41 $11 $-1 $42 forward single #
loop $-1 $43 $44 $15 #
cone-surface $-1 90.3868393949416884 39.45935101131041733 6.209608163992095697 0 -0.7880107618611372766 -0.6156614647604883306 0.5 0 0 1 I I 0 1 0.5 forward I I I I #
face $-1 $45 $46 $8 $-1 $47 reversed single #
loop $-1 $-1 $48 $16 #
plane-surface $-1 52.08410901211584587 20.90564928550825385 0 0 0 1 1 0 0 forward_v I I I I #
coedge $-1 $49 $50 $51 $52 forward $17 $-1 #
face $-1 $53 $54 $9 $-1 $55 reversed single #
loop $-1 $-1 $56 $19 #
plane-surface $-1 7.339618239409066547 1.623010237143467815 0 0 0 1 1 0 0 forward_v I I I I #
coedge $-1 $57 $58 $59 $60 forward $20 $-1 #
face $-1 $61 $62 $10 $-1 $63 reversed single #
loop $-1 $-1 $64 $22 #
plane-surface $-1 90.3868393949416884 16.06969324924637021 37.71918902832371145 0 0.7880107618611372766 0.6156614647604883306 1 0 0 forward_v I I I I #
coedge $-1 $65 $66 $67 $68 forward $23 $-1 #
face $-1 $-1 $69 $11 $-1 $70 forward single #
loop $-1 $-1 $71 $25 #
plane-surface $-1 90.3868393949416884 40.22209237688792882 6.805527013191285057 0 0.7880107618611372766 0.6156614647604883306 -1 -0 0 forward_v I I I I #
loop $-1 $-1 $72 $15 #
coedge $-1 $44 $44 $71 $73 reversed $26 $-1 #
face $-1 $74 $75 $8 $-1 $76 reversed single #
loop $-1 $-1 $77 $28 #
plane-surface $-1 52.08410901211584587 0 4.419809119704533273 0 1 0 0 0 1 forward_v I I I I #
coedge $-1 $78 $79 $80 $81 forward $29 $-1 #
coedge $-1 $82 $31 $83 $84 forward $17 $-1 #
coedge $-1 $31 $82 $85 $86 forward $17 $-1 #
coedge $-1 $87 $88 $31 $52 reversed $89 $-1 #
edge $-1 $90 -20.90564928550825385 $91 20.90564928550825385 $51 $92 forward 7 unknown #
face $-1 $93 $94 $9 $-1 $95 reversed single #
loop $-1 $-1 $96 $32 #
plane-surface $-1 7.339618239409066547 0 4.419809119704533273 0 1 0 0 0 1 forward_v I I I I #
coedge $-1 $97 $98 $99 $100 forward $33 $-1 #
coedge $-1 $101 $35 $102 $103 forward $20 $-1 #
coedge $-1 $35 $101 $104 $105 forward $20 $-1 #
coedge $-1 $106 $107 $35 $60 reversed $108 $-1 #
edge $-1 $109 -1.623010237143467815 $110 1.623010237143467815 $59 $111 forward 7 unknown #
face $-1 $112 $113 $10 $-1 $114 reversed single #
loop $-1 $-1 $115 $36 #
plane-surface $-1 90.3868393949416884 -30.10934528433853075 266.0229004125958454 0 0.6156614647604883306 -0.7880107618611372766 0 0.7880107618611372766 0.6156614647604883306 forward_v I I I I #
coedge $-1 $116 $117 $118 $119 forward $37 $-1 #
coedge $-1 $120 $39 $121 $122 forward $23 $-1 #
coedge $-1 $39 $120 $123 $124 forward $23 $-1 #
coedge $-1 $125 $126 $39 $68 reversed $127 $-1 #
edge $-1 $128 -208.3364360484633835 $129 208.3364360484633835 $67 $130 forward 7 unknown #
loop $-1 $131 $132 $40 #
cone-surface $-1 90.3868393949416884 38.49960695526762322 5.459773948602784088 0 -0.7880107618611372766 -0.6156614647604883306 0.25 0 0 1 I I -0.7071067811865474617 0.7071067811865474617 0.25 forward I I I I #
coedge $-1 $71 $71 $44 $73 forward $41 $-1 #
coedge $-1 $72 $72 $132 $133 forward $43 $-1 #
edge $-1 $134 0 $134 6.283185307179586232 $71 $135 forward 7 unknown #
face $-1 $136 $137 $8 $-1 $138 reversed single #
loop $-1 $-1 $139 $45 #
plane-surface $-1 0 20.90564928550825385 4.419809119704533273 1 0 0 0 0 -1 forward_v I I I I #
coedge $-1 $140 $85 $141 $142 forward $46 $-1 #
coedge $-1 $143 $48 $140 $144 forward $29 $-1 #
coedge $-1 $48 $143 $145 $146 forward $29 $-1 #
coedge $-1 $88 $87 $48 $81 reversed $89 $-1 #
edge $-1 $147 -20.90564928550825385 $148 20.90564928550825385 $80 $149 forward 7 unknown #
coedge $-1 $50 $49 $150 $151 forward $17 $-1 #
coedge $-1 $152 $153 $49 $84 reversed $137 $-1 #
edge $-1 $91 -52.08410901211584587 $154 52.08410901211584587 $83 $155 forward 7 unknown #
coedge $-1 $77 $156 $50 $86 reversed $46 $-1 #
edge $-1 $157 -52.08410901211584587 $90 52.08410901211584587 $85 $158 forward 7 unknown #
coedge $-1 $80 $51 $156 $159 forward $89 $-1 #
coedge $-1 $51 $80 $152 $160 reversed $89 $-1 #
loop $-1 $-1 $87 $136 #
vertex $-1 $52 $161 #
vertex $-1 $52 $162 #
straight-curve $-1 104.1682180242316917 20.90564928550825385 8.839618239409066547 0 1 0 I I #
face $-1 $163 $164 $9 $-1 $165 reversed single #
loop $-1 $-1 $166 $53 #
plane-surface $-1 5.839618239409066547 1.623010237143467815 4.419809119704533273 1 0 0 0 0 -1 forward_v I I I I #
coedge $-1 $167 $104 $168 $169 forward $54 $-1 #
coedge $-1 $170 $56 $167 $171 forward $33 $-1 #
coedge $-1 $56 $170 $172 $173 forward $33 $-1 #
coedge $-1 $107 $106 $56 $100 reversed $108 $-1 #
edge $-1 $174 -1.623010237143467815 $175 1.623010237143467815 $99 $176 forward 7 unknown #
coedge $-1 $58 $57 $177 $178 forward $20 $-1 #
coedge $-1 $179 $180 $57 $103 reversed $164 $-1 #
edge $-1 $110 -1.5 $181 1.5 $102 $182 forward 7 unknown #
coedge $-1 $96 $183 $58 $105 reversed $54 $-1 #
edge $-1 $184 -1.5 $109 1.5 $104 $185 forward 7 unknown #
coedge $-1 $99 $59 $183 $186 forward $108 $-1 #
coedge $-1 $59 $99 $179 $187 reversed $108 $-1 #
loop $-1 $-1 $106 $163 #
vertex $-1 $60 $188 #
vertex $-1 $60 $189 #
straight-curve $-1 8.839618239409066547 1.623010237143467815 8.839618239409066547 0 1 0 I I #
face $-1 $190 $191 $10 $-1 $192 reversed single #
loop $-1 $-1 $193 $61 #
plane-surface $-1 76.60546076565168505 98.1553700962382436 101.8515467186120986 1 0 0 0 -0.7880107618611372766 -0.6156614647604883306 forward_v I I I I #
coedge $-1 $194 $123 $195 $196 forward $62 $-1 #
coedge $-1 $197 $64 $194 $198 forward $37 $-1 #
coedge $-1 $64 $197 $199 $200 forward $37 $-1 #
coedge $-1 $126 $125 $64 $119 reversed $127 $-1 #
edge $-1 $201 -208.3364360484633835 $202 208.3364360484633835 $118 $203 forward 7 unknown #
coedge $-1 $66 $65 $204 $205 forward $23 $-1 #
coedge $-1 $206 $207 $65 $122 reversed $191 $-1 #
edge $-1 $129 -13.78137862929000335 $208 13.78137862929000335 $121 $209 forward 7 unknown #
coedge $-1 $115 $210 $66 $124 reversed $62 $-1 #
edge $-1 $211 -13.78137862929000335 $128 13.78137862929000335 $123 $212 forward 7 unknown #
coedge $-1 $118 $67 $210 $213 forward $127 $-1 #
coedge $-1 $67 $118 $206 $214 reversed $127 $-1 #
loop $-1 $-1 $125 $190 #
vertex $-1 $68 $215 #
vertex $-1 $68 $216 #
straight-curve $-1 104.1682180242316917 180.241046943230117 165.9839044089004858 0 0.6156614647604883306 -0.7880107618611372766 I I #
loop $-1 $-1 $217 $40 #
coedge $-1 $132 $132 $72 $133 reversed $69 $-1 #
edge $-1 $218 0 $218 6.283185307179586232 $132 $219 forward 7 unknown #
vertex $-1 $73 $220 #
ellipse-curve $-1 90.3868393949416884 40.22209237688792882 6.805527013191285057 0 0.7880107618611372766 0.6156614647604883306 0.5 0 0 1 I I #
face $-1 $-1 $89 $8 $-1 $221 reversed single #
loop $-1 $-1 $152 $74 #
plane-surface $-1 52.08410901211584587 41.81129857101650771 4.419809119704533273 0 -1 0 0 0 -1 forward_v I I I I #
coedge $-1 $222 $150 $153 $223 forward $75 $-1 #
coedge $-1 $156 $77 $78 $144 reversed $46 $-1 #
coedge $-1 $150 $222 $77 $142 reversed $75 $-1 #
edge $-1 $157 -4.419809119704533273 $224 4.419809119704533273 $141 $225 forward 7 unknown #
coedge $-1 $79 $78 $222 $226 forward $29 $-1 #
edge $-1 $148 -52.08410901211584587 $224 52.08410901211584587 $140 $227 forward 7 unknown #
coedge $-1 $153 $152 $79 $146 reversed $137 $-1 #
edge $-1 $228 -52.08410901211584587 $147 52.08410901211584587 $145 $229 forward 7 unknown #
vertex $-1 $81 $230 #
vertex $-1 $159 $231 #
straight-curve $-1 104.1682180242316917 20.90564928550825385 0 0 -1 0 I I #
coedge $-1 $139 $141 $82 $151 reversed $75 $-1 #
edge $-1 $154 -20.90564928550825385 $157 20.90564928550825385 $150 $232 forward 7 unknown #
coedge $-1 $145 $83 $88 $160 forward $137 $-1 #
coedge $-1 $83 $145 $139 $223 reversed $137 $-1 #
vertex $-1 $84 $233 #
straight-curve $-1 52.08410901211584587 41.81129857101650771 8.839618239409066547 -1 0 0 I I #
coedge $-1 $85 $140 $87 $159 reversed $46 $-1 #
vertex $-1 $151 $234 #
straight-curve $-1 52.08410901211584587 0 8.839618239409066547 1 0 0 I I #
edge $-1 $90 -4.419809119704533273 $148 4.419809119704533273 $87 $235 forward 7 unknown #
edge $-1 $91 -4.419809119704533273 $147 4.419809119704533273 $88 $236 forward 7 unknown #
point $-1 104.1682180242316917 0 8.839618239409066547 #
point $-1 104.1682180242316917 41.81129857101650771 8.839618239409066547 #
face $-1 $-1 $108 $9 $-1 $237 reversed single #
loop $-1 $-1 $179 $93 #
plane-surface $-1 7.339618239409066547 3.246020474286935631 4.419809119704533273 0 -1 0 0 0 -1 forward_v I I I I #
coedge $-1 $238 $177 $180 $239 forward $94 $-1 #
coedge $-1 $183 $96 $97 $171 reversed $54 $-1 #
coedge $-1 $177 $238 $96 $169 reversed $94 $-1 #
edge $-1 $184 -4.419809119704533273 $240 4.419809119704533273 $168 $241 forward 7 unknown #
coedge $-1 $98 $97 $238 $242 forward $33 $-1 #
edge $-1 $175 -1.5 $240 1.5 $167 $243 forward 7 unknown #
coedge $-1 $180 $179 $98 $173 reversed $164 $-1 #
edge $-1 $244 -1.5 $174 1.5 $172 $245 forward 7 unknown #
vertex $-1 $100 $246 #
vertex $-1 $186 $247 #
straight-curve $-1 8.839618239409066547 1.623010237143467815 0 0 -1 0 I I #
coedge $-1 $166 $168 $101 $178 reversed $94 $-1 #
edge $-1 $181 -1.623010237143467815 $184 1.623010237143467815 $177 $248 forward 7 unknown #
coedge $-1 $172 $102 $107 $187 forward $164 $-1 #
coedge $-1 $102 $172 $166 $239 reversed $164 $-1 #
vertex $-1 $103 $249 #
straight-curve $-1 7.339618239409066547 3.246020474286935631 8.839618239409066547 -1 0 0 I I #
coedge $-1 $104 $167 $106 $186 reversed $54 $-1 #
vertex $-1 $178 $250 #
straight-curve $-1 7.339618239409066547 0 8.839618239409066547 1 0 0 I I #
edge $-1 $109 -4.419809119704533273 $175 4.419809119704533273 $106 $251 forward 7 unknown #
edge $-1 $110 -4.419809119704533273 $174 4.419809119704533273 $107 $252 forward 7 unknown #
point $-1 8.839618239409066547 0 8.839618239409066547 #
point $-1 8.839618239409066547 3.246020474286935631 8.839618239409066547 #
face $-1 $-1 $127 $10 $-1 $253 reversed single #
loop $-1 $-1 $206 $112 #
plane-surface $-1 90.3868393949416884 226.420085476815018 -62.31980697537164815 0 -0.6156614647604883306 0.7880107618611372766 0 -0.7880107618611372766 -0.6156614647604883306 forward_v I I I I #
coedge $-1 $254 $204 $207 $255 forward $113 $-1 #
coedge $-1 $210 $115 $116 $198 reversed $62 $-1 #
coedge $-1 $204 $254 $115 $196 reversed $113 $-1 #
edge $-1 $211 -104.1682180242316917 $256 104.1682180242316917 $195 $257 forward 7 unknown #
coedge $-1 $117 $116 $254 $258 forward $37 $-1 #
edge $-1 $202 -13.78137862929000335 $256 13.78137862929000335 $194 $259 forward 7 unknown #
coedge $-1 $207 $206 $117 $200 reversed $191 $-1 #
edge $-1 $260 -13.78137862929000335 $201 13.78137862929000335 $199 $261 forward 7 unknown #
vertex $-1 $119 $262 #
vertex $-1 $213 $263 #
straight-curve $-1 104.1682180242316917 16.06969324924637021 37.71918902832371145 0 -0.6156614647604883306 0.7880107618611372766 I I #
coedge $-1 $193 $195 $120 $205 reversed $113 $-1 #
edge $-1 $208 -208.3364360484633835 $211 208.3364360484633835 $204 $264 forward 7 unknown #
coedge $-1 $199 $121 $126 $214 forward $191 $-1 #
coedge $-1 $121 $199 $193 $255 reversed $191 $-1 #
vertex $-1 $122 $265 #
straight-curve $-1 90.3868393949416884 308.5057623238068913 1.812550714916739025 -1 0 0 I I #
coedge $-1 $123 $194 $125 $213 reversed $62 $-1 #
vertex $-1 $205 $266 #
straight-curve $-1 90.3868393949416884 51.97633156265334264 330.1552581028842042 1 0 0 I I #
edge $-1 $128 -104.1682180242316917 $202 104.1682180242316917 $125 $267 forward 7 unknown #
edge $-1 $129 -104.1682180242316917 $201 104.1682180242316917 $126 $268 forward 7 unknown #
point $-1 104.1682180242316917 51.97633156265334264 330.1552581028842042 #
point $-1 104.1682180242316917 308.5057623238068913 1.812550714916739025 #
coedge $-1 $217 $217 $-1 $269 reversed $131 $-1 #
vertex $-1 $133 $270 #
ellipse-curve $-1 90.3868393949416884 38.69660964573290585 5.613689314792906337 0 0.7880107618611372766 0.6156614647604883306 0.5 0 0 1 I I #
point $-1 90.8868393949416884 40.22209237688792882 6.805527013191285057 #
plane-surface $-1 104.1682180242316917 20.90564928550825385 4.419809119704533273 -1 0 0 0 0 1 forward_v I I I I #
coedge $-1 $141 $139 $143 $226 reversed $75 $-1 #
edge $-1 $154 -4.419809119704533273 $228 4.419809119704533273 $153 $271 forward 7 unknown #
vertex $-1 $226 $272 #
straight-curve $-1 0 0 4.419809119704533273 0 0 -1 I I #
edge $-1 $224 -20.90564928550825385 $228 20.90564928550825385 $222 $273 forward 7 unknown #
straight-curve $-1 52.08410901211584587 0 0 -1 0 0 I I #
vertex $-1 $146 $274 #
straight-curve $-1 52.08410901211584587 41.81129857101650771 0 1 0 0 I I #
point $-1 104.1682180242316917 41.81129857101650771 0 #
point $-1 104.1682180242316917 0 0 #
straight-curve $-1 0 20.90564928550825385 8.839618239409066547 0 -1 0 I I #
point $-1 0 41.81129857101650771 8.839618239409066547 #
point $-1 0 0 8.839618239409066547 #
straight-curve $-1 104.1682180242316917 0 4.419809119704533273 0 0 -1 I I #
straight-curve $-1 104.1682180242316917 41.81129857101650771 4.419809119704533273 0 0 -1 I I #
plane-surface $-1 8.839618239409066547 1.623010237143467815 4.419809119704533273 -1 0 0 0 0 1 forward_v I I I I #
coedge $-1 $168 $166 $170 $242 reversed $94 $-1 #
edge $-1 $181 -4.419809119704533273 $244 4.419809119704533273 $180 $275 forward 7 unknown #
vertex $-1 $242 $276 #
straight-curve $-1 5.839618239409066547 0 4.419809119704533273 0 0 -1 I I #
edge $-1 $240 -1.623010237143467815 $244 1.623010237143467815 $238 $277 forward 7 unknown #
straight-curve $-1 7.339618239409066547 0 0 -1 0 0 I I #
vertex $-1 $173 $278 #
straight-curve $-1 7.339618239409066547 3.246020474286935631 0 1 0 0 I I #
point $-1 8.839618239409066547 3.246020474286935631 0 #
point $-1 8.839618239409066547 0 0 #
straight-curve $-1 5.839618239409066547 1.623010237143467815 8.839618239409066547 0 -1 0 I I #
point $-1 5.839618239409066547 3.246020474286935631 8.839618239409066547 #
point $-1 5.839618239409066547 0 8.839618239409066547 #
straight-curve $-1 8.839618239409066547 0 4.419809119704533273 0 0 -1 I I #
straight-curve $-1 8.839618239409066547 3.246020474286935631 4.419809119704533273 0 0 -1 I I #
plane-surface $-1 104.1682180242316917 98.1553700962382436 101.8515467186120986 -1 0 0 0 0.7880107618611372766 0.6156614647604883306 forward_v I I I I #
coedge $-1 $195 $193 $197 $258 reversed $113 $-1 #
edge $-1 $208 -104.1682180242316917 $260 104.1682180242316917 $207 $279 forward 7 unknown #
vertex $-1 $258 $280 #
straight-curve $-1 76.60546076565168505 -30.10934528433853075 266.0229004125958454 0 -0.7880107618611372766 -0.6156614647604883306 I I #
edge $-1 $256 -208.3364360484633835 $260 208.3364360484633835 $254 $281 forward 7 unknown #
straight-curve $-1 90.3868393949416884 -112.1950221313304041 201.8905427223074582 -1 0 0 I I #
vertex $-1 $200 $282 #
straight-curve $-1 90.3868393949416884 144.3344086298231446 -126.4521646656600353 1 0 0 I I #
point $-1 104.1682180242316917 144.3344086298231446 -126.4521646656600353 #
point $-1 104.1682180242316917 -112.1950221313304041 201.8905427223074582 #
straight-curve $-1 76.60546076565168505 180.241046943230117 165.9839044089004858 0 -0.6156614647604883306 0.7880107618611372766 I I #
point $-1 76.60546076565168505 308.5057623238068913 1.812550714916739025 #
point $-1 76.60546076565168505 51.97633156265334264 330.1552581028842042 #
straight-curve $-1 104.1682180242316917 -30.10934528433853075 266.0229004125958454 0 -0.7880107618611372766 -0.6156614647604883306 I I #
straight-curve $-1 104.1682180242316917 226.420085476815018 -62.31980697537164815 0 -0.7880107618611372766 -0.6156614647604883306 I I #
edge $-1 $283 1 $283 0 $217 $-1 forward 7 unknown #
point $-1 90.8868393949416884 38.69660964573290585 5.613689314792906337 #
straight-curve $-1 0 41.81129857101650771 4.419809119704533273 0 0 -1 I I #
point $-1 0 0 0 #
straight-curve $-1 0 20.90564928550825385 0 0 1 0 I I #
point $-1 0 41.81129857101650771 0 #
straight-curve $-1 5.839618239409066547 3.246020474286935631 4.419809119704533273 0 0 -1 I I #
point $-1 5.839618239409066547 0 0 #
straight-curve $-1 5.839618239409066547 1.623010237143467815 0 0 1 0 I I #
point $-1 5.839618239409066547 3.246020474286935631 0 #
straight-curve $-1 76.60546076565168505 226.420085476815018 -62.31980697537164815 0 -0.7880107618611372766 -0.6156614647604883306 I I #
point $-1 76.60546076565168505 -112.1950221313304041 201.8905427223074582 #
straight-curve $-1 76.60546076565168505 16.06969324924637021 37.71918902832371145 0 0.6156614647604883306 -0.7880107618611372766 I I #
point $-1 76.60546076565168505 144.3344086298231446 -126.4521646656600353 #
vertex $-1 $269 $284 #
point $-1 90.3868393949416884 38.30260426480234059 5.305858582412661839 #
End-of-ACIS-data 