600 0 5 0           
94 GICL ACIS Healer - Source: /gicl/data5/repository/Drexel/SM99-DATA/part92.smdg.delta.sat - 6 0 18 ACIS 6.0.3 Solaris 24 Sat Apr 13 20:46:50 2002 
1 9.999999999999999547e-07 1.000000000000000036e-10 
body $-1 $5 $-1 $-1 #
body $-1 $6 $-1 $-1 #
body $-1 $7 $-1 $-1 #
body $-1 $8 $-1 $-1 #
body $-1 $9 $-1 $-1 #
lump $-1 $-1 $10 $0 #
lump $-1 $-1 $11 $1 #
lump $-1 $-1 $12 $2 #
lump $-1 $-1 $13 $3 #
lump $-1 $-1 $14 $4 #
shell $-1 $-1 $-1 $15 $-1 $5 #
shell $-1 $-1 $-1 $16 $-1 $6 #
shell $-1 $-1 $-1 $17 $-1 $7 #
shell $-1 $-1 $-1 $18 $-1 $8 #
shell $-1 $-1 $-1 $19 $-1 $9 #
face $-1 $20 $21 $10 $-1 $22 forward single #
face $-1 $23 $24 $11 $-1 $25 reversed single #
face $-1 $26 $27 $12 $-1 $28 forward single #
face $-1 $29 $30 $13 $-1 $31 reversed single #
face $-1 $32 $33 $14 $-1 $34 forward single #
face $-1 $35 $36 $10 $-1 $37 reversed single #
loop $-1 $-1 $38 $15 #
plane-surface $-1 77.73186437574389629 46.012367364480383 31.10788214439326538 0 0 1 1 0 0 forward_v I I I I #
face $-1 $39 $40 $11 $-1 $41 reversed single #
loop $-1 $-1 $42 $16 #
plane-surface $-1 125.4737595533819245 -99.93015982536761044 136.2981116382108553 -1 0 0 0 -0.6427876175870461672 0.7660444364896655811 forward_v I I I I #
face $-1 $43 $44 $12 $-1 $45 forward single #
loop $-1 $46 $47 $17 #
cone-surface $-1 108.495727382271923 9.358519630557033508 22.87615333078366575 0 0.6427876175870461672 -0.7660444364896655811 3 0 0 1 I I 0 1 3 forward I I I I #
face $-1 $48 $49 $13 $-1 $50 reversed single #
loop $-1 $-1 $51 $18 #
plane-surface $-1 31.0808844470998622 108.9544491264081358 201.1686493505746398 -1 0 0 0 0.5877852598018022956 0.8090169889191003438 forward_v I I I I #
face $-1 $52 $53 $14 $-1 $54 forward single #
loop $-1 $55 $56 $19 #
cone-surface $-1 15.5404422235499311 83.48684708039834845 23.74043911658475281 0 -0.5877852598018022956 -0.8090169889191003438 2 0 0 1 I I 0 1 2 forward I I I I #
face $-1 $57 $58 $10 $-1 $59 reversed single #
loop $-1 $-1 $60 $20 #
plane-surface $-1 77.73186437574389629 46.012367364480383 0 0 0 1 1 0 0 forward_v I I I I #
coedge $-1 $61 $62 $63 $64 forward $21 $-1 #
face $-1 $65 $66 $11 $-1 $67 reversed single #
loop $-1 $-1 $68 $23 #
plane-surface $-1 108.495727382271923 0 17.20598715219515995 0 -0.6427876175870461672 0.7660444364896655811 1 0 0 forward_v I I I I #
coedge $-1 $69 $70 $71 $72 reversed $24 $-1 #
face $-1 $-1 $73 $12 $-1 $74 forward single #
loop $-1 $75 $76 $26 #
cone-surface $-1 108.495727382271923 11.39740421058906605 20.44630535853861986 0 0.6427876175870461672 -0.7660444364896655811 1.5 0 0 1 I I -0.7071067811865475727 0.7071067811865475727 1.5 forward I I I I #
loop $-1 $-1 $77 $17 #
coedge $-1 $47 $47 $78 $79 reversed $27 $-1 #
face $-1 $80 $81 $13 $-1 $82 reversed single #
loop $-1 $-1 $83 $29 #
plane-surface $-1 15.5404422235499311 17.57516093245796185 75.39585162991022571 0 0.5877852598018022956 0.8090169889191003438 1 0 0 forward_v I I I I #
coedge $-1 $84 $85 $86 $87 reversed $30 $-1 #
face $-1 $-1 $88 $14 $-1 $89 forward single #
loop $-1 $90 $91 $32 #
cone-surface $-1 15.5404422235499311 81.10738141808779744 20.46538566252573332 0 -0.5877852598018022956 -0.8090169889191003438 1 0 0 1 I I -0.7071067811865474617 0.7071067811865474617 1 forward I I I I #
loop $-1 $-1 $92 $19 #
coedge $-1 $56 $56 $93 $94 reversed $33 $-1 #
face $-1 $95 $96 $10 $-1 $97 reversed single #
loop $-1 $-1 $98 $35 #
plane-surface $-1 77.73186437574389629 0 15.55394107219663269 0 1 0 0 0 1 forward_v I I I I #
coedge $-1 $99 $100 $101 $102 forward $36 $-1 #
coedge $-1 $103 $38 $104 $105 forward $21 $-1 #
coedge $-1 $38 $103 $106 $107 forward $21 $-1 #
coedge $-1 $108 $109 $38 $64 reversed $110 $-1 #
edge $-1 $111 -46.012367364480383 $112 46.012367364480383 $63 $113 forward 7 unknown #
face $-1 $114 $115 $11 $-1 $116 reversed single #
loop $-1 $-1 $117 $39 #
plane-surface $-1 91.51769521116192152 -99.93015982536761044 136.2981116382108553 1 0 0 0 0.6427876175870461672 -0.7660444364896655811 forward_v I I I I #
coedge $-1 $118 $119 $120 $121 reversed $40 $-1 #
coedge $-1 $70 $42 $122 $123 reversed $24 $-1 #
coedge $-1 $42 $69 $118 $124 reversed $24 $-1 #
coedge $-1 $120 $125 $42 $72 forward $126 $-1 #
edge $-1 $127 26.95889623044361372 $128 43.52652918425475548 $71 $129 forward 7 unknown #
loop $-1 $-1 $78 $43 #
plane-surface $-1 108.495727382271923 0 17.20598715219515995 0 -0.6427876175870461672 0.7660444364896655811 1 0 0 forward_v I I I I #
loop $-1 $-1 $130 $26 #
coedge $-1 $76 $76 $77 $131 reversed $44 $-1 #
coedge $-1 $77 $77 $76 $131 forward $46 $-1 #
coedge $-1 $78 $78 $47 $79 forward $73 $-1 #
edge $-1 $132 0 $132 6.283185307179586232 $78 $133 forward 7 unknown #
face $-1 $134 $135 $13 $-1 $136 forward single #
loop $-1 $-1 $86 $48 #
plane-surface $-1 77.73186437574389629 92.02473472896076601 15.55394107219663269 0 -1 0 0 0 -1 forward_v I I I I #
coedge $-1 $137 $138 $139 $140 reversed $49 $-1 #
coedge $-1 $85 $51 $141 $142 reversed $30 $-1 #
coedge $-1 $51 $84 $137 $143 reversed $30 $-1 #
coedge $-1 $139 $144 $51 $87 forward $81 $-1 #
edge $-1 $145 77.25341306699237975 $146 87.05622619232956083 $86 $147 forward 7 unknown #
loop $-1 $-1 $93 $52 #
plane-surface $-1 15.5404422235499311 17.57516093245796185 75.39585162991022571 0 0.5877852598018022956 0.8090169889191003438 1 0 0 forward_v I I I I #
loop $-1 $-1 $148 $32 #
coedge $-1 $91 $91 $92 $149 reversed $53 $-1 #
coedge $-1 $92 $92 $91 $149 forward $55 $-1 #
coedge $-1 $93 $93 $56 $94 forward $88 $-1 #
edge $-1 $150 -2.088232732695169231e-15 $150 6.283185307179584456 $93 $151 forward 7 unknown #
face $-1 $152 $153 $10 $-1 $154 reversed single #
loop $-1 $-1 $155 $57 #
plane-surface $-1 0 46.012367364480383 15.55394107219663269 1 0 0 0 0 -1 forward_v I I I I #
coedge $-1 $156 $106 $157 $158 forward $58 $-1 #
coedge $-1 $159 $60 $156 $160 forward $36 $-1 #
coedge $-1 $60 $159 $161 $162 forward $36 $-1 #
coedge $-1 $109 $108 $60 $102 reversed $110 $-1 #
edge $-1 $163 -46.012367364480383 $164 46.012367364480383 $101 $165 forward 7 unknown #
coedge $-1 $62 $61 $166 $167 forward $21 $-1 #
coedge $-1 $168 $169 $61 $105 reversed $153 $-1 #
edge $-1 $112 -77.73186437574389629 $170 77.73186437574389629 $104 $171 forward 7 unknown #
coedge $-1 $98 $172 $62 $107 reversed $58 $-1 #
edge $-1 $173 -77.73186437574389629 $111 77.73186437574389629 $106 $174 forward 7 unknown #
coedge $-1 $101 $63 $172 $175 forward $110 $-1 #
coedge $-1 $63 $101 $168 $176 reversed $110 $-1 #
loop $-1 $-1 $108 $152 #
vertex $-1 $64 $177 #
vertex $-1 $64 $178 #
straight-curve $-1 155.4637287514877926 46.012367364480383 31.10788214439326538 0 1 0 I I #
face $-1 $-1 $126 $11 $-1 $179 forward single #
loop $-1 $-1 $180 $65 #
plane-surface $-1 77.73186437574389629 0 15.55394107219663269 0 1 0 0 0 1 forward_v I I I I #
coedge $-1 $181 $182 $183 $184 reversed $66 $-1 #
coedge $-1 $185 $68 $70 $124 forward $40 $-1 #
coedge $-1 $68 $185 $181 $186 forward $40 $-1 #
coedge $-1 $183 $71 $68 $121 forward $126 $-1 #
edge $-1 $128 -32.35996367437401489 $187 1.596100667845988141 $120 $188 forward 7 unknown #
coedge $-1 $189 $190 $69 $123 forward $115 $-1 #
edge $-1 $191 -58.72003920300858226 $127 -44.81814421081048039 $122 $192 forward 7 unknown #
edge $-1 $128 -21.62750901205018295 $191 0 $70 $193 forward 7 unknown #
coedge $-1 $71 $183 $189 $194 forward $126 $-1 #
loop $-1 $-1 $183 $114 #
vertex $-1 $123 $195 #
vertex $-1 $72 $196 #
straight-curve $-1 125.4737595533819245 -26.95889623044361372 31.10788214439326893 0 1 0 I I #
coedge $-1 $130 $130 $-1 $197 reversed $75 $-1 #
edge $-1 $198 0 $198 6.283185307179586232 $76 $199 forward 7 unknown #
vertex $-1 $79 $200 #
ellipse-curve $-1 108.495727382271923 8.28381647690557088 24.15693464829421089 0 -0.6427876175870461672 0.7660444364896655811 3 0 0 1 I I #
face $-1 $-1 $201 $13 $-1 $202 reversed single #
loop $-1 $-1 $141 $80 #
plane-surface $-1 77.73186437574389629 46.012367364480383 31.10788214439326538 0 0 1 1 0 0 forward_v I I I I #
coedge $-1 $203 $83 $85 $143 forward $49 $-1 #
coedge $-1 $83 $203 $204 $205 reversed $49 $-1 #
coedge $-1 $206 $86 $83 $140 forward $81 $-1 #
edge $-1 $146 15.55526885254705149 $207 46.63615329964691369 $139 $208 forward 7 unknown #
coedge $-1 $209 $210 $84 $142 forward $135 $-1 #
edge $-1 $211 1.04891199140914182 $145 14.54132648351651369 $141 $212 forward 7 unknown #
edge $-1 $146 -92.02473472896076601 $211 -75.34719312364279631 $85 $213 forward 7 unknown #
coedge $-1 $86 $206 $209 $214 reversed $81 $-1 #
vertex $-1 $214 $215 #
vertex $-1 $87 $216 #
straight-curve $-1 31.0808844470998622 92.02473472896076601 108.361295211385638 0 0 -1 I I #
coedge $-1 $148 $148 $-1 $217 reversed $90 $-1 #
edge $-1 $218 0 $218 6.283185307179586232 $91 $219 forward 7 unknown #
vertex $-1 $94 $220 #
ellipse-curve $-1 15.5404422235499311 85.27852748290709428 26.20647558172466773 0 0.5877852598018022956 0.8090169889191003438 2 0 0 1 I I #
face $-1 $-1 $110 $10 $-1 $221 reversed single #
loop $-1 $-1 $168 $95 #
plane-surface $-1 77.73186437574389629 92.02473472896076601 15.55394107219663269 0 -1 0 0 0 -1 forward_v I I I I #
coedge $-1 $222 $166 $169 $223 forward $96 $-1 #
coedge $-1 $172 $98 $99 $160 reversed $58 $-1 #
coedge $-1 $166 $222 $98 $158 reversed $96 $-1 #
edge $-1 $173 -15.55394107219663269 $224 15.55394107219663269 $157 $225 forward 7 unknown #
coedge $-1 $100 $99 $222 $226 forward $36 $-1 #
edge $-1 $164 -77.73186437574389629 $224 77.73186437574389629 $156 $227 forward 7 unknown #
coedge $-1 $169 $168 $100 $162 reversed $153 $-1 #
edge $-1 $228 -77.73186437574389629 $163 77.73186437574389629 $161 $229 forward 7 unknown #
vertex $-1 $102 $230 #
vertex $-1 $175 $231 #
straight-curve $-1 155.4637287514877926 46.012367364480383 0 0 -1 0 I I #
coedge $-1 $155 $157 $103 $167 reversed $96 $-1 #
edge $-1 $170 -46.012367364480383 $173 46.012367364480383 $166 $232 forward 7 unknown #
coedge $-1 $161 $104 $109 $176 forward $153 $-1 #
coedge $-1 $104 $161 $155 $223 reversed $153 $-1 #
vertex $-1 $105 $233 #
straight-curve $-1 77.73186437574389629 92.02473472896076601 31.10788214439326538 -1 0 0 I I #
coedge $-1 $106 $156 $108 $175 reversed $58 $-1 #
vertex $-1 $167 $234 #
straight-curve $-1 77.73186437574389629 0 31.10788214439326538 1 0 0 I I #
edge $-1 $111 -15.55394107219663269 $164 15.55394107219663269 $108 $235 forward 7 unknown #
edge $-1 $112 -15.55394107219663269 $163 15.55394107219663269 $109 $236 forward 7 unknown #
point $-1 155.4637287514877926 0 31.10788214439326538 #
point $-1 155.4637287514877926 92.02473472896076601 31.10788214439326538 #
plane-surface $-1 77.73186437574389629 46.012367364480383 31.10788214439326538 0 0 1 1 0 0 forward_v I I I I #
coedge $-1 $190 $189 $182 $237 forward $115 $-1 #
coedge $-1 $182 $117 $119 $186 reversed $66 $-1 #
coedge $-1 $117 $181 $180 $237 reversed $66 $-1 #
coedge $-1 $125 $120 $117 $184 forward $126 $-1 #
edge $-1 $187 -43.52652918425475548 $238 -26.95889623044361372 $183 $239 forward 7 unknown #
coedge $-1 $119 $118 $190 $240 reversed $40 $-1 #
edge $-1 $241 0 $187 21.62750901205018295 $181 $242 forward 7 unknown #
vertex $-1 $121 $243 #
straight-curve $-1 93.11379587900790966 16.56763295381114176 31.10788214439326538 -1 0 0 I I #
coedge $-1 $180 $122 $125 $194 reversed $115 $-1 #
coedge $-1 $122 $180 $185 $240 forward $115 $-1 #
vertex $-1 $123 $244 #
straight-curve $-1 125.4737595533819245 0 75.92602635520374577 0 0 1 I I #
straight-curve $-1 125.4737595533819245 0 17.20598715219515995 0 -0.7660444364896655811 -0.6427876175870461672 I I #
edge $-1 $238 13.78583083541802523 $127 47.74189517763802826 $189 $245 forward 7 unknown #
point $-1 125.4737595533819245 0 31.10788214439326538 #
point $-1 125.4737595533819245 16.56763295381114531 31.10788214439326538 #
edge $-1 $246 1 $246 0 $130 $-1 forward 7 unknown #
vertex $-1 $131 $247 #
ellipse-curve $-1 108.495727382271923 10.43322278420849614 21.59537201327311706 0 -0.6427876175870461672 0.7660444364896655811 3 0 0 1 I I #
point $-1 111.495727382271923 8.28381647690557088 24.15693464829421089 #
loop $-1 $-1 $204 $134 #
plane-surface $-1 0 46.012367364480383 15.55394107219663269 1 0 0 0 0 -1 forward_v I I I I #
coedge $-1 $138 $137 $210 $248 reversed $49 $-1 #
coedge $-1 $249 $250 $138 $205 forward $201 $-1 #
edge $-1 $207 -62.93454669640698995 $251 -46.25700509108901315 $204 $252 forward 7 unknown #
coedge $-1 $144 $139 $250 $253 reversed $81 $-1 #
vertex $-1 $140 $254 #
straight-curve $-1 46.63615329964691369 92.02473472896076601 21.3050690190560772 -1 0 0 I I #
coedge $-1 $255 $141 $144 $214 forward $135 $-1 #
coedge $-1 $141 $255 $203 $248 forward $135 $-1 #
vertex $-1 $142 $256 #
straight-curve $-1 31.0808844470998622 77.48340824544425232 31.10788214439326893 0 1 0 I I #
straight-curve $-1 31.0808844470998622 17.57516093245796185 75.39585162991022571 0 -0.8090169889191003438 0.5877852598018022956 I I #
edge $-1 $145 46.65097992864403409 $257 77.73186437574389629 $144 $258 forward 7 unknown #
point $-1 31.0808844470998622 92.02473472896076601 31.10788214439326538 #
point $-1 31.0808844470998622 92.02473472896076601 21.30506901905608075 #
edge $-1 $259 1 $259 0 $148 $-1 forward 7 unknown #
vertex $-1 $149 $260 #
ellipse-curve $-1 15.5404422235499311 81.69516667788960262 21.27440265144483433 0 0.5877852598018022956 0.8090169889191003438 2 0 0 1 I I #
point $-1 17.5404422235499311 85.27852748290709428 26.20647558172467484 #
plane-surface $-1 155.4637287514877926 46.012367364480383 15.55394107219663269 -1 0 0 0 0 1 forward_v I I I I #
coedge $-1 $157 $155 $159 $226 reversed $96 $-1 #
edge $-1 $170 -15.55394107219663269 $228 15.55394107219663269 $169 $261 forward 7 unknown #
vertex $-1 $226 $262 #
straight-curve $-1 0 0 15.55394107219663269 0 0 -1 I I #
edge $-1 $224 -46.012367364480383 $228 46.012367364480383 $222 $263 forward 7 unknown #
straight-curve $-1 77.73186437574389629 0 0 -1 0 0 I I #
vertex $-1 $162 $264 #
straight-curve $-1 77.73186437574389629 92.02473472896076601 0 1 0 0 I I #
point $-1 155.4637287514877926 92.02473472896076601 0 #
point $-1 155.4637287514877926 0 0 #
straight-curve $-1 0 46.012367364480383 31.10788214439326538 0 -1 0 I I #
point $-1 0 92.02473472896076601 31.10788214439326538 #
point $-1 0 0 31.10788214439326538 #
straight-curve $-1 155.4637287514877926 0 15.55394107219663269 0 0 -1 I I #
straight-curve $-1 155.4637287514877926 92.02473472896076601 15.55394107219663269 0 0 -1 I I #
edge $-1 $238 44.81814421081048039 $241 58.72003920300858226 $180 $265 forward 7 unknown #
vertex $-1 $194 $266 #
straight-curve $-1 91.51769521116192152 -26.95889623044361372 31.10788214439326893 0 -1 0 I I #
edge $-1 $241 -1.596100667845988141 $191 32.35996367437401489 $190 $267 forward 7 unknown #
vertex $-1 $240 $268 #
straight-curve $-1 91.51769521116192152 0 17.20598715219515995 0 0.7660444364896655811 0.6427876175870461672 I I #
point $-1 91.51769521116192152 16.56763295381114531 31.10788214439326538 #
point $-1 125.4737595533819245 0 17.20598715219515995 #
straight-curve $-1 77.73186437574389629 0 31.10788214439326538 1 0 0 I I #
vertex $-1 $197 $269 #
point $-1 111.495727382271923 10.43322278420849614 21.59537201327311706 #
edge $-1 $251 -46.63615329964691369 $211 -15.55526885254705149 $210 $270 forward 7 unknown #
coedge $-1 $250 $204 $255 $271 reversed $201 $-1 #
coedge $-1 $204 $249 $206 $253 forward $201 $-1 #
vertex $-1 $205 $272 #
straight-curve $-1 0 41.10961726164507013 58.29706789951232793 0 -0.8090169889191003438 0.5877852598018022956 I I #
edge $-1 $257 -15.55394107219663269 $207 -5.751127946859451612 $206 $273 forward 7 unknown #
point $-1 0 92.02473472896076601 21.3050690190560843 #
coedge $-1 $210 $209 $249 $271 forward $135 $-1 #
point $-1 31.0808844470998622 78.53232023685339414 31.10788214439326893 #
vertex $-1 $214 $274 #
straight-curve $-1 77.73186437574389629 92.02473472896076601 31.10788214439326538 -1 0 0 I I #
vertex $-1 $217 $275 #
point $-1 17.5404422235499311 81.69516667788960262 21.27440265144483433 #
straight-curve $-1 0 92.02473472896076601 15.55394107219663269 0 0 -1 I I #
point $-1 0 0 0 #
straight-curve $-1 0 46.012367364480383 0 0 1 0 I I #
point $-1 0 92.02473472896076601 0 #
straight-curve $-1 91.51769521116192152 0 75.92602635520374577 0 0 -1 I I #
point $-1 91.51769521116192152 0 31.10788214439326538 #
straight-curve $-1 93.11379587900790966 0 17.20598715219515995 1 0 0 I I #
point $-1 91.51769521116192152 0 17.20598715219515995 #
point $-1 108.495727382271923 12.36158563696963597 19.29723870380412265 #
straight-curve $-1 46.63615329964691369 78.53232023685339414 31.10788214439326893 1 0 0 I I #
edge $-1 $257 -46.012367364480383 $251 -32.51995287237301113 $249 $276 forward 7 unknown #
point $-1 0 78.53232023685339414 31.10788214439326893 #
straight-curve $-1 0 92.02473472896076601 15.55394107219663269 0 0 -1 I I #
point $-1 0 92.02473472896076601 31.10788214439326538 #
point $-1 15.5404422235499311 80.51959615828599226 19.65636867360663231 #
straight-curve $-1 0 46.012367364480383 31.10788214439326538 0 -1 0 I I #
End-of-ACIS-data 