600 0 5 0           
93 GICL ACIS Healer - Source: /gicl/data5/repository/Drexel/SM99-DATA/part91.smdg.feat.sat - 6 0 18 ACIS 6.0.3 Solaris 24 Sat Apr 13 20:46:49 2002 
1 9.999999999999999547e-07 1.000000000000000036e-10 
body $-1 $5 $-1 $-1 #
body $-1 $6 $-1 $-1 #
body $-1 $7 $-1 $-1 #
body $-1 $8 $-1 $-1 #
body $-1 $9 $-1 $-1 #
lump $-1 $-1 $10 $0 #
lump $-1 $-1 $11 $1 #
lump $-1 $-1 $12 $2 #
lump $-1 $-1 $13 $3 #
lump $-1 $-1 $14 $4 #
shell $-1 $-1 $-1 $15 $-1 $5 #
shell $-1 $-1 $-1 $16 $-1 $6 #
shell $-1 $-1 $-1 $17 $-1 $7 #
shell $-1 $-1 $-1 $18 $-1 $8 #
shell $-1 $-1 $-1 $19 $-1 $9 #
face $-1 $20 $21 $10 $-1 $22 forward single #
face $-1 $23 $24 $11 $-1 $25 forward single #
face $-1 $26 $27 $12 $-1 $28 forward single #
face $-1 $29 $30 $13 $-1 $31 forward single #
face $-1 $32 $33 $14 $-1 $34 forward single #
face $-1 $35 $36 $10 $-1 $37 reversed single #
loop $-1 $-1 $38 $15 #
plane-surface $-1 77.1153904843287421 52.28911579698673506 37.90597853994761834 0 0 1 1 0 0 forward_v I I I I #
face $-1 $39 $40 $11 $-1 $41 reversed single #
loop $-1 $-1 $42 $16 #
plane-surface $-1 34.80618408831284682 -7.465986613388450266 37.90597853994761834 0 0 1 1 0 0 forward_v I I I I #
face $-1 $43 $44 $12 $-1 $45 reversed single #
loop $-1 $-1 $46 $17 #
plane-surface $-1 9.854116992612471648 212.0773638206953819 339.0603861967543935 0 0.6156614830463592591 0.788010747574649173 1 0 0 forward_v I I I I #
face $-1 $47 $48 $13 $-1 $49 forward single #
loop $-1 $50 $51 $18 #
cone-surface $-1 5.630923995778554847 98.74685110536407251 32.45309032994651233 0 -0.6156614830463592591 -0.788010747574649173 1.5 0 0 1 I I 0 1 1.5 forward I I I I #
face $-1 $52 $53 $14 $-1 $54 forward single #
loop $-1 $55 $56 $19 #
cone-surface $-1 14.07730998944638756 98.74685110536407251 32.45309032994651233 0 -0.6156614830463592591 -0.788010747574649173 1.5 0 0 1 I I 0 1 1.5 forward I I I I #
face $-1 $57 $58 $10 $-1 $59 reversed single #
loop $-1 $-1 $60 $20 #
plane-surface $-1 77.1153904843287421 52.28911579698673506 0 0 0 1 1 0 0 forward_v I I I I #
coedge $-1 $61 $62 $63 $64 forward $21 $-1 #
face $-1 $65 $66 $11 $-1 $67 reversed single #
loop $-1 $-1 $68 $23 #
plane-surface $-1 34.80618408831284682 -7.465986613388450266 0 0 0 1 1 0 0 forward_v I I I I #
coedge $-1 $69 $70 $71 $72 forward $24 $-1 #
face $-1 $73 $74 $12 $-1 $75 reversed single #
loop $-1 $-1 $76 $26 #
plane-surface $-1 9.854116992612471648 22.16946113557165177 95.98936017648689756 0 0.6156614830463592591 0.788010747574649173 1 0 0 forward_v I I I I #
coedge $-1 $77 $78 $79 $80 forward $27 $-1 #
face $-1 $-1 $81 $13 $-1 $82 forward single #
loop $-1 $-1 $83 $29 #
plane-surface $-1 5.630923995778554847 100.5455147616620479 34.75527477946158683 0 0.6156614830463592591 0.788010747574649173 -1 -0 0 forward_v I I I I #
loop $-1 $-1 $84 $18 #
coedge $-1 $51 $51 $83 $85 reversed $30 $-1 #
face $-1 $-1 $86 $14 $-1 $87 forward single #
loop $-1 $-1 $88 $32 #
plane-surface $-1 14.07730998944638756 100.5455147616620479 34.75527477946158683 0 0.6156614830463592591 0.788010747574649173 -1 -0 0 forward_v I I I I #
loop $-1 $-1 $89 $19 #
coedge $-1 $56 $56 $88 $90 reversed $33 $-1 #
face $-1 $91 $92 $10 $-1 $93 reversed single #
loop $-1 $-1 $94 $35 #
plane-surface $-1 77.1153904843287421 0 18.95298926997380917 0 1 0 0 0 1 forward_v I I I I #
coedge $-1 $95 $96 $97 $98 forward $36 $-1 #
coedge $-1 $99 $38 $100 $101 forward $21 $-1 #
coedge $-1 $38 $99 $102 $103 forward $21 $-1 #
coedge $-1 $104 $105 $38 $64 reversed $106 $-1 #
edge $-1 $107 -52.28911579698673506 $108 52.28911579698673506 $63 $109 forward 7 unknown #
face $-1 $110 $111 $11 $-1 $112 reversed single #
loop $-1 $-1 $113 $39 #
plane-surface $-1 34.80618408831284682 -14.93197322677690053 18.95298926997380917 0 1 0 0 0 1 forward_v I I I I #
coedge $-1 $114 $115 $116 $117 forward $40 $-1 #
coedge $-1 $118 $42 $119 $120 forward $24 $-1 #
coedge $-1 $42 $118 $121 $122 forward $24 $-1 #
coedge $-1 $123 $124 $42 $72 reversed $125 $-1 #
edge $-1 $126 -7.465986613388450266 $127 7.465986613388450266 $71 $128 forward 7 unknown #
face $-1 $129 $130 $12 $-1 $131 reversed single #
loop $-1 $-1 $132 $43 #
plane-surface $-1 9.854116992612471648 -125.9476135421339933 407.4327758717444112 0 0.788010747574649173 -0.6156614830463592591 0 0.6156614830463592591 0.788010747574649173 forward_v I I I I #
coedge $-1 $133 $134 $135 $136 forward $44 $-1 #
coedge $-1 $137 $46 $138 $139 forward $27 $-1 #
coedge $-1 $46 $137 $140 $141 forward $27 $-1 #
coedge $-1 $142 $143 $46 $80 reversed $144 $-1 #
edge $-1 $145 -308.4615619373149684 $146 308.4615619373149116 $79 $147 forward 7 unknown #
loop $-1 $148 $149 $47 #
cone-surface $-1 5.630923995778554847 96.48644133678132562 29.5598978197504465 0 -0.6156614830463592591 -0.788010747574649173 0.75 0 0 1 I I -0.7071067811865475727 0.7071067811865475727 0.75 forward I I I I #
coedge $-1 $83 $83 $51 $85 forward $48 $-1 #
coedge $-1 $84 $84 $149 $150 forward $50 $-1 #
edge $-1 $151 0 $151 6.283185307179586232 $83 $152 forward 7 unknown #
loop $-1 $153 $154 $52 #
cone-surface $-1 14.07730998944638756 96.48644133678132562 29.5598978197504465 0 -0.6156614830463592591 -0.788010747574649173 0.75 0 0 1 I I -0.7071067811865475727 0.7071067811865475727 0.75 forward I I I I #
coedge $-1 $88 $88 $56 $90 forward $53 $-1 #
coedge $-1 $89 $89 $154 $155 forward $55 $-1 #
edge $-1 $156 0 $156 6.283185307179586232 $88 $157 forward 7 unknown #
face $-1 $158 $159 $10 $-1 $160 reversed single #
loop $-1 $-1 $161 $57 #
plane-surface $-1 0 52.28911579698673506 18.95298926997380917 1 0 0 0 0 -1 forward_v I I I I #
coedge $-1 $162 $102 $163 $164 forward $58 $-1 #
coedge $-1 $165 $60 $162 $166 forward $36 $-1 #
coedge $-1 $60 $165 $167 $168 forward $36 $-1 #
coedge $-1 $105 $104 $60 $98 reversed $106 $-1 #
edge $-1 $169 -52.28911579698673506 $170 52.28911579698673506 $97 $171 forward 7 unknown #
coedge $-1 $62 $61 $172 $173 forward $21 $-1 #
coedge $-1 $174 $175 $61 $101 reversed $159 $-1 #
edge $-1 $108 -77.1153904843287421 $176 77.1153904843287421 $100 $177 forward 7 unknown #
coedge $-1 $94 $178 $62 $103 reversed $58 $-1 #
edge $-1 $179 -77.1153904843287421 $107 77.1153904843287421 $102 $180 forward 7 unknown #
coedge $-1 $97 $63 $178 $181 forward $106 $-1 #
coedge $-1 $63 $97 $174 $182 reversed $106 $-1 #
loop $-1 $-1 $104 $158 #
vertex $-1 $64 $183 #
vertex $-1 $64 $184 #
straight-curve $-1 154.2307809686574842 52.28911579698673506 37.90597853994761834 0 1 0 I I #
face $-1 $185 $186 $11 $-1 $187 reversed single #
loop $-1 $-1 $188 $65 #
plane-surface $-1 31.70638963667807175 -7.465986613388450266 18.95298926997380917 1 0 0 0 0 -1 forward_v I I I I #
coedge $-1 $189 $121 $190 $191 forward $66 $-1 #
coedge $-1 $192 $68 $189 $193 forward $40 $-1 #
coedge $-1 $68 $192 $194 $195 forward $40 $-1 #
coedge $-1 $124 $123 $68 $117 reversed $125 $-1 #
edge $-1 $196 -7.465986613388450266 $197 7.465986613388450266 $116 $198 forward 7 unknown #
coedge $-1 $70 $69 $199 $200 forward $24 $-1 #
coedge $-1 $201 $202 $69 $120 reversed $186 $-1 #
edge $-1 $127 -3.099794451634778625 $203 3.099794451634775072 $119 $204 forward 7 unknown #
coedge $-1 $113 $205 $70 $122 reversed $66 $-1 #
edge $-1 $206 -3.099794451634775072 $126 3.099794451634778625 $121 $207 forward 7 unknown #
coedge $-1 $116 $71 $205 $208 forward $125 $-1 #
coedge $-1 $71 $116 $201 $209 reversed $125 $-1 #
loop $-1 $-1 $123 $185 #
vertex $-1 $72 $210 #
vertex $-1 $72 $211 #
straight-curve $-1 37.90597853994762545 -7.465986613388450266 37.90597853994761834 0 1 0 I I #
face $-1 $212 $213 $12 $-1 $214 reversed single #
loop $-1 $-1 $215 $73 #
plane-surface $-1 0 117.1234124781335169 217.5248731866206526 1 0 0 0 -0.6156614830463592591 -0.788010747574649173 forward_v I I I I #
coedge $-1 $216 $140 $217 $218 forward $74 $-1 #
coedge $-1 $219 $76 $216 $220 forward $44 $-1 #
coedge $-1 $76 $219 $221 $222 forward $44 $-1 #
coedge $-1 $143 $142 $76 $136 reversed $144 $-1 #
edge $-1 $223 -308.4615619373149684 $224 308.4615619373149684 $135 $225 forward 7 unknown #
coedge $-1 $78 $77 $226 $227 forward $27 $-1 #
coedge $-1 $228 $229 $77 $139 reversed $213 $-1 #
edge $-1 $146 -9.854116992612471648 $230 9.854116992612471648 $138 $231 forward 7 unknown #
coedge $-1 $132 $232 $78 $141 reversed $74 $-1 #
edge $-1 $233 -9.854116992612471648 $145 9.854116992612471648 $140 $234 forward 7 unknown #
coedge $-1 $135 $79 $232 $235 forward $144 $-1 #
coedge $-1 $79 $135 $228 $236 reversed $144 $-1 #
loop $-1 $-1 $142 $212 #
vertex $-1 $80 $237 #
vertex $-1 $80 $238 #
straight-curve $-1 19.7082339852249433 212.0773638206953819 339.0603861967543935 0 0.788010747574649173 -0.6156614830463592591 I I #
loop $-1 $-1 $239 $47 #
coedge $-1 $149 $149 $84 $150 reversed $81 $-1 #
edge $-1 $240 0 $240 6.283185307179586232 $149 $241 forward 7 unknown #
vertex $-1 $85 $242 #
ellipse-curve $-1 5.630923995778554847 100.5455147616620479 34.75527477946158683 0 0.6156614830463592591 0.788010747574649173 1.5 0 0 1 I I #
loop $-1 $-1 $243 $52 #
coedge $-1 $154 $154 $89 $155 reversed $86 $-1 #
edge $-1 $244 0 $244 6.283185307179586232 $154 $245 forward 7 unknown #
vertex $-1 $90 $246 #
ellipse-curve $-1 14.07730998944638756 100.5455147616620479 34.75527477946158683 0 0.6156614830463592591 0.788010747574649173 1.5 0 0 1 I I #
face $-1 $-1 $106 $10 $-1 $247 reversed single #
loop $-1 $-1 $174 $91 #
plane-surface $-1 77.1153904843287421 104.5782315939734701 18.95298926997380917 0 -1 0 0 0 -1 forward_v I I I I #
coedge $-1 $248 $172 $175 $249 forward $92 $-1 #
coedge $-1 $178 $94 $95 $166 reversed $58 $-1 #
coedge $-1 $172 $248 $94 $164 reversed $92 $-1 #
edge $-1 $179 -18.95298926997380917 $250 18.95298926997380917 $163 $251 forward 7 unknown #
coedge $-1 $96 $95 $248 $252 forward $36 $-1 #
edge $-1 $170 -77.1153904843287421 $250 77.1153904843287421 $162 $253 forward 7 unknown #
coedge $-1 $175 $174 $96 $168 reversed $159 $-1 #
edge $-1 $254 -77.1153904843287421 $169 77.1153904843287421 $167 $255 forward 7 unknown #
vertex $-1 $98 $256 #
vertex $-1 $181 $257 #
straight-curve $-1 154.2307809686574842 52.28911579698673506 0 0 -1 0 I I #
coedge $-1 $161 $163 $99 $173 reversed $92 $-1 #
edge $-1 $176 -52.28911579698673506 $179 52.28911579698673506 $172 $258 forward 7 unknown #
coedge $-1 $167 $100 $105 $182 forward $159 $-1 #
coedge $-1 $100 $167 $161 $249 reversed $159 $-1 #
vertex $-1 $101 $259 #
straight-curve $-1 77.1153904843287421 104.5782315939734701 37.90597853994761834 -1 0 0 I I #
coedge $-1 $102 $162 $104 $181 reversed $58 $-1 #
vertex $-1 $173 $260 #
straight-curve $-1 77.1153904843287421 0 37.90597853994761834 1 0 0 I I #
edge $-1 $107 -18.95298926997380917 $170 18.95298926997380917 $104 $261 forward 7 unknown #
edge $-1 $108 -18.95298926997380917 $169 18.95298926997380917 $105 $262 forward 7 unknown #
point $-1 154.2307809686574842 0 37.90597853994761834 #
point $-1 154.2307809686574842 104.5782315939734701 37.90597853994761834 #
face $-1 $-1 $125 $11 $-1 $263 reversed single #
loop $-1 $-1 $201 $110 #
plane-surface $-1 34.80618408831284682 0 18.95298926997380917 0 -1 0 0 0 -1 forward_v I I I I #
coedge $-1 $264 $199 $202 $265 forward $111 $-1 #
coedge $-1 $205 $113 $114 $193 reversed $66 $-1 #
coedge $-1 $199 $264 $113 $191 reversed $111 $-1 #
edge $-1 $206 -18.95298926997380917 $266 18.95298926997380917 $190 $267 forward 7 unknown #
coedge $-1 $115 $114 $264 $268 forward $40 $-1 #
edge $-1 $197 -3.099794451634778625 $266 3.099794451634775072 $189 $269 forward 7 unknown #
coedge $-1 $202 $201 $115 $195 reversed $186 $-1 #
edge $-1 $270 -3.099794451634775072 $196 3.099794451634778625 $194 $271 forward 7 unknown #
vertex $-1 $117 $272 #
vertex $-1 $208 $273 #
straight-curve $-1 37.90597853994762545 -7.465986613388450266 0 0 -1 0 I I #
coedge $-1 $188 $190 $118 $200 reversed $111 $-1 #
edge $-1 $203 -7.465986613388450266 $206 7.465986613388450266 $199 $274 forward 7 unknown #
coedge $-1 $194 $119 $124 $209 forward $186 $-1 #
coedge $-1 $119 $194 $188 $265 reversed $186 $-1 #
vertex $-1 $120 $275 #
straight-curve $-1 34.80618408831284682 0 37.90597853994761834 -1 0 0 I I #
coedge $-1 $121 $189 $123 $208 reversed $66 $-1 #
vertex $-1 $200 $276 #
straight-curve $-1 34.80618408831284682 -14.93197322677690053 37.90597853994761834 1 0 0 I I #
edge $-1 $126 -18.95298926997380917 $197 18.95298926997380917 $123 $277 forward 7 unknown #
edge $-1 $127 -18.95298926997380917 $196 18.95298926997380917 $124 $278 forward 7 unknown #
point $-1 37.90597853994762545 -14.93197322677690053 37.90597853994761834 #
point $-1 37.90597853994762545 0 37.90597853994761834 #
face $-1 $-1 $144 $12 $-1 $279 reversed single #
loop $-1 $-1 $228 $129 #
plane-surface $-1 9.854116992612471648 360.1944384984010412 27.61697050149692245 0 -0.788010747574649173 0.6156614830463592591 0 -0.6156614830463592591 -0.788010747574649173 forward_v I I I I #
coedge $-1 $280 $226 $229 $281 forward $130 $-1 #
coedge $-1 $232 $132 $133 $220 reversed $74 $-1 #
coedge $-1 $226 $280 $132 $218 reversed $130 $-1 #
edge $-1 $233 -154.2307809686574558 $282 154.2307809686575126 $217 $283 forward 7 unknown #
coedge $-1 $134 $133 $280 $284 forward $44 $-1 #
edge $-1 $224 -9.854116992612471648 $282 9.854116992612471648 $216 $285 forward 7 unknown #
coedge $-1 $229 $228 $134 $222 reversed $213 $-1 #
edge $-1 $286 -9.854116992612471648 $223 9.854116992612471648 $221 $287 forward 7 unknown #
vertex $-1 $136 $288 #
vertex $-1 $235 $289 #
straight-curve $-1 19.7082339852249433 22.16946113557165177 95.98936017648689756 0 -0.788010747574649173 0.6156614830463592591 I I #
coedge $-1 $215 $217 $137 $227 reversed $130 $-1 #
edge $-1 $230 -308.4615619373149116 $233 308.4615619373149684 $226 $290 forward 7 unknown #
coedge $-1 $221 $138 $143 $236 forward $213 $-1 #
coedge $-1 $138 $221 $215 $281 reversed $213 $-1 #
vertex $-1 $139 $291 #
straight-curve $-1 9.854116992612471648 455.1483898409628637 149.1524835116306917 -1 0 0 I I #
coedge $-1 $140 $216 $142 $235 reversed $74 $-1 #
vertex $-1 $227 $292 #
straight-curve $-1 9.854116992612471648 -30.99366219957214241 528.9682888818781521 1 0 0 I I #
edge $-1 $145 -154.2307809686574558 $224 154.2307809686575126 $142 $293 forward 7 unknown #
edge $-1 $146 -154.2307809686574558 $223 154.2307809686574842 $143 $294 forward 7 unknown #
point $-1 19.7082339852249433 -30.99366219957214241 528.9682888818781521 #
point $-1 19.7082339852249433 455.1483898409628637 149.1524835116306917 #
coedge $-1 $239 $239 $-1 $295 reversed $148 $-1 #
vertex $-1 $150 $296 #
ellipse-curve $-1 5.630923995778554847 96.94818744906609709 30.15090588043143427 0 0.6156614830463592591 0.788010747574649173 1.5 0 0 1 I I #
point $-1 7.130923995778554847 100.5455147616620479 34.75527477946158683 #
coedge $-1 $243 $243 $-1 $297 reversed $153 $-1 #
vertex $-1 $155 $298 #
ellipse-curve $-1 14.07730998944638756 96.94818744906609709 30.15090588043143427 0 0.6156614830463592591 0.788010747574649173 1.5 0 0 1 I I #
point $-1 15.57730998944638756 100.5455147616620479 34.75527477946158683 #
plane-surface $-1 154.2307809686574842 52.28911579698673506 18.95298926997380917 -1 0 0 0 0 1 forward_v I I I I #
coedge $-1 $163 $161 $165 $252 reversed $92 $-1 #
edge $-1 $176 -18.95298926997380917 $254 18.95298926997380917 $175 $299 forward 7 unknown #
vertex $-1 $252 $300 #
straight-curve $-1 0 0 18.95298926997380917 0 0 -1 I I #
edge $-1 $250 -52.28911579698673506 $254 52.28911579698673506 $248 $301 forward 7 unknown #
straight-curve $-1 77.1153904843287421 0 0 -1 0 0 I I #
vertex $-1 $168 $302 #
straight-curve $-1 77.1153904843287421 104.5782315939734701 0 1 0 0 I I #
point $-1 154.2307809686574842 104.5782315939734701 0 #
point $-1 154.2307809686574842 0 0 #
straight-curve $-1 0 52.28911579698673506 37.90597853994761834 0 -1 0 I I #
point $-1 0 104.5782315939734701 37.90597853994761834 #
point $-1 0 0 37.90597853994761834 #
straight-curve $-1 154.2307809686574842 0 18.95298926997380917 0 0 -1 I I #
straight-curve $-1 154.2307809686574842 104.5782315939734701 18.95298926997380917 0 0 -1 I I #
plane-surface $-1 37.90597853994762545 -7.465986613388450266 18.95298926997380917 -1 0 0 0 0 1 forward_v I I I I #
coedge $-1 $190 $188 $192 $268 reversed $111 $-1 #
edge $-1 $203 -18.95298926997380917 $270 18.95298926997380917 $202 $303 forward 7 unknown #
vertex $-1 $268 $304 #
straight-curve $-1 31.70638963667807175 -14.93197322677690053 18.95298926997380917 0 0 -1 I I #
edge $-1 $266 -7.465986613388450266 $270 7.465986613388450266 $264 $305 forward 7 unknown #
straight-curve $-1 34.80618408831284682 -14.93197322677690053 0 -1 0 0 I I #
vertex $-1 $195 $306 #
straight-curve $-1 34.80618408831284682 0 0 1 0 0 I I #
point $-1 37.90597853994762545 0 0 #
point $-1 37.90597853994762545 -14.93197322677690053 0 #
straight-curve $-1 31.70638963667807175 -7.465986613388450266 37.90597853994761834 0 -1 0 I I #
point $-1 31.70638963667807175 0 37.90597853994761834 #
point $-1 31.70638963667807175 -14.93197322677690053 37.90597853994761834 #
straight-curve $-1 37.90597853994762545 -14.93197322677690053 18.95298926997380917 0 0 -1 I I #
straight-curve $-1 37.90597853994762545 0 18.95298926997380917 0 0 -1 I I #
plane-surface $-1 19.7082339852249433 117.1234124781335169 217.5248731866206526 -1 0 0 0 0.6156614830463592591 0.788010747574649173 forward_v I I I I #
coedge $-1 $217 $215 $219 $284 reversed $130 $-1 #
edge $-1 $230 -154.2307809686574558 $286 154.2307809686574842 $229 $307 forward 7 unknown #
vertex $-1 $284 $308 #
straight-curve $-1 0 -125.9476135421339933 407.4327758717444112 0 -0.6156614830463592591 -0.788010747574649173 I I #
edge $-1 $282 -308.4615619373149684 $286 308.4615619373149684 $280 $309 forward 7 unknown #
straight-curve $-1 9.854116992612471648 -220.9015648846958584 285.8972628616106135 -1 0 0 I I #
vertex $-1 $222 $310 #
straight-curve $-1 9.854116992612471648 265.2404871558391619 -93.91854250863684683 1 0 0 I I #
point $-1 19.7082339852249433 265.2404871558391619 -93.91854250863684683 #
point $-1 19.7082339852249433 -220.9015648846958584 285.8972628616106135 #
straight-curve $-1 0 212.0773638206953819 339.0603861967543935 0 -0.788010747574649173 0.6156614830463592591 I I #
point $-1 0 455.1483898409628637 149.1524835116306917 #
point $-1 0 -30.99366219957214241 528.9682888818781521 #
straight-curve $-1 19.7082339852249433 -125.9476135421339933 407.4327758717444112 0 -0.6156614830463592591 -0.788010747574649173 I I #
straight-curve $-1 19.7082339852249433 360.1944384984010412 27.61697050149692245 0 -0.6156614830463592591 -0.788010747574649173 I I #
edge $-1 $311 1 $311 0 $239 $-1 forward 7 unknown #
point $-1 7.130923995778554847 96.94818744906609709 30.15090588043143427 #
edge $-1 $312 1 $312 0 $243 $-1 forward 7 unknown #
point $-1 15.57730998944638756 96.94818744906609709 30.15090588043143427 #
straight-curve $-1 0 104.5782315939734701 18.95298926997380917 0 0 -1 I I #
point $-1 0 0 0 #
straight-curve $-1 0 52.28911579698673506 0 0 1 0 I I #
point $-1 0 104.5782315939734701 0 #
straight-curve $-1 31.70638963667807175 0 18.95298926997380917 0 0 -1 I I #
point $-1 31.70638963667807175 -14.93197322677690053 0 #
straight-curve $-1 31.70638963667807175 -7.465986613388450266 0 0 1 0 I I #
point $-1 31.70638963667807175 0 0 #
straight-curve $-1 0 360.1944384984010412 27.61697050149692245 0 -0.6156614830463592591 -0.788010747574649173 I I #
point $-1 0 -220.9015648846958584 285.8972628616106135 #
straight-curve $-1 0 22.16946113557165177 95.98936017648689756 0 0.788010747574649173 -0.6156614830463592591 I I #
point $-1 0 265.2404871558391619 -93.91854250863684683 #
vertex $-1 $295 $313 #
vertex $-1 $297 $314 #
point $-1 5.630923995778554847 96.02469522449655415 28.96888975906945873 #
point $-1 14.07730998944638756 96.02469522449655415 28.96888975906945873 #
End-of-ACIS-data 