600 0 10 0           
94 GICL ACIS Healer - Source: /gicl/data5/repository/Drexel/SM99-DATA/part84.smdg.delta.sat - 6 0 18 ACIS 6.0.3 Solaris 24 Sat Apr 13 20:46:03 2002 
1 9.999999999999999547e-07 1.000000000000000036e-10 
body $-1 $10 $-1 $-1 #
body $-1 $11 $-1 $-1 #
body $-1 $12 $-1 $-1 #
body $-1 $13 $-1 $-1 #
body $-1 $14 $-1 $-1 #
body $-1 $15 $-1 $-1 #
body $-1 $16 $-1 $-1 #
body $-1 $17 $-1 $-1 #
body $-1 $18 $-1 $-1 #
body $-1 $19 $-1 $-1 #
lump $-1 $-1 $20 $0 #
lump $-1 $-1 $21 $1 #
lump $-1 $-1 $22 $2 #
lump $-1 $-1 $23 $3 #
lump $-1 $-1 $24 $4 #
lump $-1 $-1 $25 $5 #
lump $-1 $-1 $26 $6 #
lump $-1 $-1 $27 $7 #
lump $-1 $-1 $28 $8 #
lump $-1 $-1 $29 $9 #
shell $-1 $-1 $-1 $30 $-1 $10 #
shell $-1 $-1 $-1 $31 $-1 $11 #
shell $-1 $-1 $-1 $32 $-1 $12 #
shell $-1 $-1 $-1 $33 $-1 $13 #
shell $-1 $-1 $-1 $34 $-1 $14 #
shell $-1 $-1 $-1 $35 $-1 $15 #
shell $-1 $-1 $-1 $36 $-1 $16 #
shell $-1 $-1 $-1 $37 $-1 $17 #
shell $-1 $-1 $-1 $38 $-1 $18 #
shell $-1 $-1 $-1 $39 $-1 $19 #
face $-1 $40 $41 $20 $-1 $42 forward single #
face $-1 $43 $44 $21 $-1 $45 reversed single #
face $-1 $46 $47 $22 $-1 $48 reversed single #
face $-1 $49 $50 $23 $-1 $51 forward single #
face $-1 $52 $53 $24 $-1 $54 forward single #
face $-1 $55 $56 $25 $-1 $57 forward single #
face $-1 $58 $59 $26 $-1 $60 reversed single #
face $-1 $61 $62 $27 $-1 $63 forward single #
face $-1 $64 $65 $28 $-1 $66 forward single #
face $-1 $67 $68 $29 $-1 $69 forward single #
face $-1 $70 $71 $20 $-1 $72 reversed single #
loop $-1 $-1 $73 $30 #
plane-surface $-1 75.50645466475417322 51.24723800992870082 43.24649425054910523 0 0 1 1 0 0 forward_v I I I I #
face $-1 $74 $75 $21 $-1 $76 reversed single #
loop $-1 $-1 $77 $31 #
plane-surface $-1 75.50645466475417322 12.02221392447612658 33.09458198742466095 0 0 1 1 0 0 forward_v I I I I #
face $-1 $78 $79 $22 $-1 $80 reversed single #
loop $-1 $-1 $81 $32 #
plane-surface $-1 117.6040622795074597 84.60338855253880297 235.5826287337314113 0 -1 0 -0.5877852598018022956 0 -0.8090169889191003438 forward_v I I I I #
face $-1 $82 $83 $23 $-1 $84 forward single #
loop $-1 $85 $86 $33 #
cone-surface $-1 137.7674889228644304 66.63306751115244708 33.33347888628616573 -0.5877852598018022956 0 -0.8090169889191003438 0.8090169889191003438 0 -0.5877852598018022956 1 I I 0 1 1 forward I I I I #
face $-1 $87 $88 $24 $-1 $89 forward single #
loop $-1 $90 $91 $34 #
cone-surface $-1 137.7674889228644304 73.37193790167232521 33.33347888628616573 -0.5877852598018022956 0 -0.8090169889191003438 0.8090169889191003438 0 -0.5877852598018022956 1 I I 0 1 1 forward I I I I #
face $-1 $92 $93 $25 $-1 $94 forward single #
loop $-1 $95 $96 $35 #
cone-surface $-1 137.7674889228644304 80.11080829219220334 33.33347888628616573 -0.5877852598018022956 0 -0.8090169889191003438 0.8090169889191003438 0 -0.5877852598018022956 1 I I 0 1 1 forward I I I I #
face $-1 $97 $98 $26 $-1 $99 reversed single #
loop $-1 $-1 $100 $36 #
plane-surface $-1 -117.3590738629700212 69.54807900538044407 121.7153919940548974 0 1 0 -0.7771459697322561366 0 0.629320380830711068 forward_v I I I I #
face $-1 $101 $102 $27 $-1 $103 forward single #
loop $-1 $104 $105 $37 #
cone-surface $-1 7.45294347778533961 72.43148398643296559 34.35969429611920134 0.7771459697322561366 0 -0.629320380830711068 0.629320380830711068 0 0.7771459697322561366 1 I I 0 1 1 forward I I I I #
face $-1 $106 $107 $28 $-1 $108 forward single #
loop $-1 $109 $110 $38 #
cone-surface $-1 7.45294347778533961 76.75659145801174077 34.35969429611920134 0.7771459697322561366 0 -0.629320380830711068 0.629320380830711068 0 0.7771459697322561366 1 I I 0 1 1 forward I I I I #
face $-1 $111 $112 $29 $-1 $113 forward single #
loop $-1 $114 $115 $39 #
cone-surface $-1 7.45294347778533961 81.08169892959051595 34.35969429611920134 0.7771459697322561366 0 -0.629320380830711068 0.629320380830711068 0 0.7771459697322561366 1 I I 0 1 1 forward I I I I #
face $-1 $116 $117 $20 $-1 $118 reversed single #
loop $-1 $-1 $119 $40 #
plane-surface $-1 75.50645466475417322 51.24723800992870082 0 0 0 1 1 0 0 forward_v I I I I #
coedge $-1 $120 $121 $122 $123 forward $41 $-1 #
face $-1 $124 $125 $21 $-1 $126 reversed single #
loop $-1 $-1 $127 $43 #
plane-surface $-1 75.50645466475417322 24.04442784895225316 38.17053811898688309 0 -1 0 0 0 -1 forward_v I I I I #
coedge $-1 $128 $129 $130 $131 reversed $44 $-1 #
face $-1 $132 $133 $22 $-1 $134 reversed single #
loop $-1 $-1 $135 $46 #
plane-surface $-1 28.84090013583637813 73.37193790167233942 113.4106195400594572 0.5877852598018022956 0 0.8090169889191003438 0.8090169889191003438 0 -0.5877852598018022956 forward_v I I I I #
coedge $-1 $136 $137 $138 $139 reversed $47 $-1 #
face $-1 $-1 $140 $23 $-1 $141 forward single #
loop $-1 $142 $143 $49 #
cone-surface $-1 137.0278646685989088 66.63306751115244708 32.3154734546440281 -0.5877852598018022956 0 -0.8090169889191003438 0.4045084944595501719 0 -0.2938926299009011478 1 I I -0.7071067811865474617 0.7071067811865474617 0.5 forward I I I I #
loop $-1 $-1 $144 $33 #
coedge $-1 $86 $86 $145 $146 reversed $50 $-1 #
face $-1 $-1 $147 $24 $-1 $148 forward single #
loop $-1 $149 $150 $52 #
cone-surface $-1 137.0278646685989088 73.37193790167232521 32.3154734546440281 -0.5877852598018022956 0 -0.8090169889191003438 0.4045084944595501719 0 -0.2938926299009011478 1 I I -0.7071067811865474617 0.7071067811865474617 0.5 forward I I I I #
loop $-1 $-1 $151 $34 #
coedge $-1 $91 $91 $152 $153 reversed $53 $-1 #
face $-1 $-1 $154 $25 $-1 $155 forward single #
loop $-1 $156 $157 $55 #
cone-surface $-1 137.0278646685989088 80.11080829219220334 32.3154734546440281 -0.5877852598018022956 0 -0.8090169889191003438 0.4045084944595501719 0 -0.2938926299009011478 1 I I -0.7071067811865474617 0.7071067811865474617 0.5 forward I I I I #
loop $-1 $-1 $158 $35 #
coedge $-1 $96 $96 $159 $160 reversed $56 $-1 #
face $-1 $161 $162 $26 $-1 $163 reversed single #
loop $-1 $-1 $164 $58 #
plane-surface $-1 1.421085471520200372e-14 76.75659145801174077 26.67989038445505656 -0.7771459697322561366 0 0.629320380830711068 0.629320380830711068 0 0.7771459697322561366 forward_v I I I I #
coedge $-1 $165 $166 $167 $168 reversed $59 $-1 #
face $-1 $-1 $169 $27 $-1 $170 forward single #
loop $-1 $171 $172 $61 #
cone-surface $-1 8.586774473269215946 72.43148398643296559 33.44153608432095837 0.7771459697322561366 0 -0.629320380830711068 0.314660190415355534 0 0.3885729848661280683 1 I I -0.7071067811865474617 0.7071067811865474617 0.5 forward I I I I #
loop $-1 $-1 $173 $37 #
coedge $-1 $105 $105 $174 $175 reversed $62 $-1 #
face $-1 $-1 $176 $28 $-1 $177 forward single #
loop $-1 $178 $179 $64 #
cone-surface $-1 8.586774473269215946 76.75659145801174077 33.44153608432095837 0.7771459697322561366 0 -0.629320380830711068 0.314660190415355534 0 0.3885729848661280683 1 I I -0.7071067811865474617 0.7071067811865474617 0.5 forward I I I I #
loop $-1 $-1 $180 $38 #
coedge $-1 $110 $110 $181 $182 reversed $65 $-1 #
face $-1 $-1 $183 $29 $-1 $184 forward single #
loop $-1 $185 $186 $67 #
cone-surface $-1 8.586774473269215946 81.08169892959051595 33.44153608432095837 0.7771459697322561366 0 -0.629320380830711068 0.314660190415355534 0 0.3885729848661280683 1 I I -0.7071067811865474617 0.7071067811865474617 0.5 forward I I I I #
loop $-1 $-1 $187 $39 #
coedge $-1 $115 $115 $188 $189 reversed $68 $-1 #
face $-1 $190 $191 $20 $-1 $192 reversed single #
loop $-1 $-1 $193 $70 #
plane-surface $-1 75.50645466475417322 0 21.62324712527455262 0 1 0 0 0 1 forward_v I I I I #
coedge $-1 $194 $195 $196 $197 forward $71 $-1 #
coedge $-1 $198 $73 $199 $200 forward $41 $-1 #
coedge $-1 $73 $198 $201 $202 forward $41 $-1 #
coedge $-1 $203 $204 $73 $123 reversed $205 $-1 #
edge $-1 $206 -51.24723800992870082 $207 51.24723800992870082 $122 $208 forward 7 unknown #
face $-1 $209 $210 $21 $-1 $211 reversed single #
loop $-1 $-1 $212 $74 #
plane-surface $-1 0 51.24723800992870082 21.62324712527455262 1 0 0 0 0 -1 forward_v I I I I #
coedge $-1 $213 $214 $215 $216 reversed $75 $-1 #
coedge $-1 $217 $77 $218 $219 reversed $44 $-1 #
coedge $-1 $77 $217 $213 $220 forward $44 $-1 #
coedge $-1 $215 $221 $77 $131 forward $222 $-1 #
edge $-1 $223 -31.6347259672024137 $224 -7.590298118250160542 $130 $225 forward 7 unknown #
face $-1 $226 $227 $22 $-1 $228 reversed single #
loop $-1 $-1 $229 $78 #
plane-surface $-1 117.6040622795074597 62.14048725080586877 235.5826287337314113 0 1 0 0.5877852598018022956 0 0.8090169889191003438 forward_v I I I I #
coedge $-1 $230 $231 $232 $233 reversed $79 $-1 #
coedge $-1 $137 $81 $234 $235 reversed $47 $-1 #
coedge $-1 $81 $136 $230 $236 reversed $47 $-1 #
coedge $-1 $232 $237 $81 $139 forward $238 $-1 #
edge $-1 $239 -54.45765085737752997 $240 -28.85827329281892162 $138 $241 forward 7 unknown #
loop $-1 $-1 $145 $82 #
plane-surface $-1 28.84090013583637813 73.37193790167233942 113.4106195400594572 0.5877852598018022956 0 0.8090169889191003438 0.8090169889191003438 0 -0.5877852598018022956 forward_v I I I I #
loop $-1 $-1 $242 $49 #
coedge $-1 $143 $143 $144 $243 reversed $83 $-1 #
coedge $-1 $144 $144 $143 $243 forward $85 $-1 #
coedge $-1 $145 $145 $86 $146 forward $140 $-1 #
edge $-1 $244 0 $244 6.283185307179586232 $145 $245 forward 7 unknown #
loop $-1 $-1 $152 $87 #
plane-surface $-1 28.84090013583637813 73.37193790167233942 113.4106195400594572 0.5877852598018022956 0 0.8090169889191003438 0.8090169889191003438 0 -0.5877852598018022956 forward_v I I I I #
loop $-1 $-1 $246 $52 #
coedge $-1 $150 $150 $151 $247 reversed $88 $-1 #
coedge $-1 $151 $151 $150 $247 forward $90 $-1 #
coedge $-1 $152 $152 $91 $153 forward $147 $-1 #
edge $-1 $248 0 $248 6.283185307179586232 $152 $249 forward 7 unknown #
loop $-1 $-1 $159 $92 #
plane-surface $-1 28.84090013583637813 73.37193790167233942 113.4106195400594572 0.5877852598018022956 0 0.8090169889191003438 0.8090169889191003438 0 -0.5877852598018022956 forward_v I I I I #
loop $-1 $-1 $250 $55 #
coedge $-1 $157 $157 $158 $251 reversed $93 $-1 #
coedge $-1 $158 $158 $157 $251 forward $95 $-1 #
coedge $-1 $159 $159 $96 $160 forward $154 $-1 #
edge $-1 $252 0 $252 6.283185307179586232 $159 $253 forward 7 unknown #
face $-1 $254 $255 $26 $-1 $256 forward single #
loop $-1 $-1 $257 $97 #
plane-surface $-1 -117.3590738629700212 83.96510391064303747 121.7153919940548974 0 -1 0 0.7771459697322561366 0 -0.629320380830711068 forward_v I I I I #
coedge $-1 $258 $259 $260 $261 reversed $98 $-1 #
coedge $-1 $166 $100 $262 $263 reversed $59 $-1 #
coedge $-1 $100 $165 $258 $264 reversed $59 $-1 #
coedge $-1 $260 $265 $100 $168 forward $255 $-1 #
edge $-1 $266 20.92630959910792399 $267 34.34168053344311744 $167 $268 forward 7 unknown #
loop $-1 $-1 $174 $101 #
plane-surface $-1 1.421085471520200372e-14 76.75659145801174077 26.67989038445505656 -0.7771459697322561366 0 0.629320380830711068 0.629320380830711068 0 0.7771459697322561366 forward_v I I I I #
loop $-1 $-1 $269 $61 #
coedge $-1 $172 $172 $173 $270 reversed $102 $-1 #
coedge $-1 $173 $173 $172 $270 forward $104 $-1 #
coedge $-1 $174 $174 $105 $175 forward $169 $-1 #
edge $-1 $271 0 $271 6.283185307179586232 $174 $272 forward 7 unknown #
loop $-1 $-1 $181 $106 #
plane-surface $-1 1.421085471520200372e-14 76.75659145801174077 26.67989038445505656 -0.7771459697322561366 0 0.629320380830711068 0.629320380830711068 0 0.7771459697322561366 forward_v I I I I #
loop $-1 $-1 $273 $64 #
coedge $-1 $179 $179 $180 $274 reversed $107 $-1 #
coedge $-1 $180 $180 $179 $274 forward $109 $-1 #
coedge $-1 $181 $181 $110 $182 forward $176 $-1 #
edge $-1 $275 0 $275 6.283185307179586232 $181 $276 forward 7 unknown #
loop $-1 $-1 $188 $111 #
plane-surface $-1 1.421085471520200372e-14 76.75659145801174077 26.67989038445505656 -0.7771459697322561366 0 0.629320380830711068 0.629320380830711068 0 0.7771459697322561366 forward_v I I I I #
loop $-1 $-1 $277 $67 #
coedge $-1 $186 $186 $187 $278 reversed $112 $-1 #
coedge $-1 $187 $187 $186 $278 forward $114 $-1 #
coedge $-1 $188 $188 $115 $189 forward $183 $-1 #
edge $-1 $279 0 $279 6.283185307179586232 $188 $280 forward 7 unknown #
face $-1 $281 $282 $20 $-1 $283 reversed single #
loop $-1 $-1 $284 $116 #
plane-surface $-1 0 51.24723800992870082 21.62324712527455262 1 0 0 0 0 -1 forward_v I I I I #
coedge $-1 $285 $201 $286 $287 forward $117 $-1 #
coedge $-1 $288 $119 $285 $289 forward $71 $-1 #
coedge $-1 $119 $288 $290 $291 forward $71 $-1 #
coedge $-1 $204 $203 $119 $197 reversed $205 $-1 #
edge $-1 $292 -51.24723800992870082 $293 51.24723800992870082 $196 $294 forward 7 unknown #
coedge $-1 $121 $120 $295 $296 forward $41 $-1 #
coedge $-1 $297 $298 $120 $200 reversed $282 $-1 #
edge $-1 $207 -75.50645466475417322 $299 75.50645466475417322 $199 $300 forward 7 unknown #
coedge $-1 $193 $301 $121 $202 reversed $117 $-1 #
edge $-1 $302 -75.50645466475417322 $206 75.50645466475417322 $201 $303 forward 7 unknown #
coedge $-1 $196 $122 $301 $304 forward $205 $-1 #
coedge $-1 $122 $196 $297 $305 reversed $205 $-1 #
loop $-1 $-1 $203 $281 #
vertex $-1 $123 $306 #
vertex $-1 $123 $307 #
straight-curve $-1 151.0129093295083464 51.24723800992870082 43.24649425054910523 0 1 0 I I #
face $-1 $308 $309 $21 $-1 $310 forward single #
loop $-1 $-1 $218 $124 #
plane-surface $-1 75.50645466475417322 0 21.62324712527455262 0 1 0 0 0 1 forward_v I I I I #
coedge $-1 $311 $312 $313 $314 forward $125 $-1 #
coedge $-1 $313 $127 $129 $220 reversed $75 $-1 #
coedge $-1 $127 $313 $315 $316 reversed $75 $-1 #
coedge $-1 $317 $130 $127 $216 forward $222 $-1 #
edge $-1 $224 3.197689365293943098 $318 13.34960162841838738 $215 $319 forward 7 unknown #
coedge $-1 $129 $128 $311 $320 reversed $44 $-1 #
coedge $-1 $321 $322 $128 $219 forward $210 $-1 #
edge $-1 $323 -75.50645466475417322 $223 75.50645466475417322 $218 $324 forward 7 unknown #
edge $-1 $325 -75.50645466475417322 $224 75.50645466475417322 $213 $326 forward 7 unknown #
coedge $-1 $130 $317 $321 $327 forward $222 $-1 #
loop $-1 $-1 $215 $308 #
vertex $-1 $219 $328 #
vertex $-1 $131 $329 #
straight-curve $-1 151.0129093295083464 31.6347259672024137 33.09458198742466095 0 1 0 I I #
face $-1 $-1 $238 $22 $-1 $330 forward single #
loop $-1 $-1 $331 $132 #
plane-surface $-1 151.0129093295083464 51.24723800992870082 21.62324712527455262 -1 0 0 0 0 1 forward_v I I I I #
coedge $-1 $332 $333 $334 $335 reversed $133 $-1 #
coedge $-1 $336 $135 $137 $236 forward $79 $-1 #
coedge $-1 $135 $336 $332 $337 forward $79 $-1 #
coedge $-1 $334 $138 $135 $233 forward $238 $-1 #
edge $-1 $240 -22.2938005967382793 $338 0.1691007049946549046 $232 $339 forward 7 unknown #
coedge $-1 $340 $341 $136 $235 forward $227 $-1 #
edge $-1 $342 -103.9554805331146099 $239 -85.35644367895388029 $234 $343 forward 7 unknown #
edge $-1 $240 119.3703382646397984 $342 151.012909329508318 $137 $344 forward 7 unknown #
coedge $-1 $138 $334 $340 $345 forward $238 $-1 #
loop $-1 $-1 $334 $226 #
vertex $-1 $235 $346 #
vertex $-1 $139 $347 #
straight-curve $-1 96.55525847213081647 84.60338855253880297 43.24649425054909813 -1 0 0 I I #
coedge $-1 $242 $242 $-1 $348 reversed $142 $-1 #
edge $-1 $349 0 $349 6.283185307179586232 $143 $350 forward 7 unknown #
vertex $-1 $146 $351 #
ellipse-curve $-1 138.2132205472290138 66.63306751115244708 33.94697582346874754 0.5877852598018022956 0 0.8090169889191003438 0.8090169889191003438 0 -0.5877852598018022956 1 I I #
coedge $-1 $246 $246 $-1 $352 reversed $149 $-1 #
edge $-1 $353 0 $353 6.283185307179586232 $150 $354 forward 7 unknown #
vertex $-1 $153 $355 #
ellipse-curve $-1 138.2132205472290138 73.37193790167232521 33.94697582346874754 0.5877852598018022956 0 0.8090169889191003438 0.8090169889191003438 0 -0.5877852598018022956 1 I I #
coedge $-1 $250 $250 $-1 $356 reversed $156 $-1 #
edge $-1 $357 0 $357 6.283185307179586232 $157 $358 forward 7 unknown #
vertex $-1 $160 $359 #
ellipse-curve $-1 138.2132205472290138 80.11080829219220334 33.94697582346874754 0.5877852598018022956 0 0.8090169889191003438 0.8090169889191003438 0 -0.5877852598018022956 1 I I #
face $-1 $-1 $360 $26 $-1 $361 reversed single #
loop $-1 $-1 $167 $161 #
plane-surface $-1 75.50645466475417322 51.24723800992870082 43.24649425054910523 0 0 1 1 0 0 forward_v I I I I #
coedge $-1 $362 $363 $364 $365 reversed $162 $-1 #
coedge $-1 $366 $164 $166 $264 forward $98 $-1 #
coedge $-1 $164 $366 $362 $367 forward $98 $-1 #
coedge $-1 $364 $167 $164 $261 forward $255 $-1 #
edge $-1 $267 5.546164271410219726 $368 19.96318917667281312 $260 $369 forward 7 unknown #
coedge $-1 $370 $371 $165 $263 forward $360 $-1 #
edge $-1 $372 -44.98942917520969331 $266 -28.42282530911562333 $262 $373 forward 7 unknown #
edge $-1 $267 -21.31723577206686926 $372 2.27480660867631621e-14 $166 $374 forward 7 unknown #
coedge $-1 $167 $364 $370 $375 forward $255 $-1 #
vertex $-1 $263 $376 #
vertex $-1 $168 $377 #
straight-curve $-1 -20.92630959910792399 69.54807900538044407 43.24649425054910523 1 0 0 I I #
coedge $-1 $269 $269 $-1 $378 reversed $171 $-1 #
edge $-1 $379 0 $379 6.283185307179586232 $172 $380 forward 7 unknown #
vertex $-1 $175 $381 #
ellipse-curve $-1 6.707685467167607385 72.43148398643296559 34.96319231750207734 -0.7771459697322561366 0 0.629320380830711068 0.629320380830711068 0 0.7771459697322561366 1 I I #
coedge $-1 $273 $273 $-1 $382 reversed $178 $-1 #
edge $-1 $383 0 $383 6.283185307179586232 $179 $384 forward 7 unknown #
vertex $-1 $182 $385 #
ellipse-curve $-1 6.707685467167607385 76.75659145801174077 34.96319231750207734 -0.7771459697322561366 0 0.629320380830711068 0.629320380830711068 0 0.7771459697322561366 1 I I #
coedge $-1 $277 $277 $-1 $386 reversed $185 $-1 #
edge $-1 $387 0 $387 6.283185307179586232 $186 $388 forward 7 unknown #
vertex $-1 $189 $389 #
ellipse-curve $-1 6.707685467167607385 81.08169892959051595 34.96319231750207734 -0.7771459697322561366 0 0.629320380830711068 0.629320380830711068 0 0.7771459697322561366 1 I I #
face $-1 $-1 $205 $20 $-1 $390 reversed single #
loop $-1 $-1 $297 $190 #
plane-surface $-1 75.50645466475417322 102.4944760198574016 21.62324712527455262 0 -1 0 0 0 -1 forward_v I I I I #
coedge $-1 $391 $295 $298 $392 forward $191 $-1 #
coedge $-1 $301 $193 $194 $289 reversed $117 $-1 #
coedge $-1 $295 $391 $193 $287 reversed $191 $-1 #
edge $-1 $302 -21.62324712527455262 $393 21.62324712527455262 $286 $394 forward 7 unknown #
coedge $-1 $195 $194 $391 $395 forward $71 $-1 #
edge $-1 $293 -75.50645466475417322 $393 75.50645466475417322 $285 $396 forward 7 unknown #
coedge $-1 $298 $297 $195 $291 reversed $282 $-1 #
edge $-1 $397 -75.50645466475417322 $292 75.50645466475417322 $290 $398 forward 7 unknown #
vertex $-1 $197 $399 #
vertex $-1 $304 $400 #
straight-curve $-1 151.0129093295083464 51.24723800992870082 0 0 -1 0 I I #
coedge $-1 $284 $286 $198 $296 reversed $191 $-1 #
edge $-1 $299 -51.24723800992870082 $302 51.24723800992870082 $295 $401 forward 7 unknown #
coedge $-1 $290 $199 $204 $305 forward $282 $-1 #
coedge $-1 $199 $290 $284 $392 reversed $282 $-1 #
vertex $-1 $200 $402 #
straight-curve $-1 75.50645466475417322 102.4944760198574016 43.24649425054910523 -1 0 0 I I #
coedge $-1 $201 $285 $203 $304 reversed $117 $-1 #
vertex $-1 $296 $403 #
straight-curve $-1 75.50645466475417322 0 43.24649425054910523 1 0 0 I I #
edge $-1 $206 -21.62324712527455262 $293 21.62324712527455262 $203 $404 forward 7 unknown #
edge $-1 $207 -21.62324712527455262 $292 21.62324712527455262 $204 $405 forward 7 unknown #
point $-1 151.0129093295083464 0 43.24649425054910523 #
point $-1 151.0129093295083464 102.4944760198574016 43.24649425054910523 #
face $-1 $-1 $222 $21 $-1 $406 reversed single #
loop $-1 $-1 $315 $209 #
plane-surface $-1 75.50645466475417322 51.24723800992870082 43.24649425054910523 0 0 1 1 0 0 forward_v I I I I #
coedge $-1 $407 $212 $217 $320 forward $125 $-1 #
coedge $-1 $212 $407 $408 $409 reversed $125 $-1 #
coedge $-1 $214 $213 $212 $314 reversed $75 $-1 #
edge $-1 $410 -13.34960162841838738 $325 -3.197689365293943098 $212 $411 forward 7 unknown #
coedge $-1 $408 $412 $214 $316 forward $309 $-1 #
edge $-1 $318 -75.50645466475417322 $410 75.50645466475417322 $315 $413 forward 7 unknown #
coedge $-1 $221 $215 $412 $414 reversed $222 $-1 #
vertex $-1 $216 $415 #
straight-curve $-1 151.0129093295083464 24.04442784895225316 29.89689262213071785 0 0 1 I I #
edge $-1 $325 7.590298118250160542 $323 31.6347259672024137 $311 $416 forward 7 unknown #
coedge $-1 $417 $218 $221 $327 reversed $210 $-1 #
coedge $-1 $218 $417 $407 $418 forward $210 $-1 #
vertex $-1 $219 $419 #
straight-curve $-1 75.50645466475417322 0 33.09458198742466095 1 0 0 I I #
vertex $-1 $320 $420 #
straight-curve $-1 75.50645466475417322 24.04442784895225316 33.09458198742466095 1 0 0 I I #
edge $-1 $421 -21.62324712527455262 $223 -11.47133486215010834 $221 $422 forward 7 unknown #
point $-1 151.0129093295083464 0 33.09458198742466095 #
point $-1 151.0129093295083464 24.04442784895225316 33.09458198742466095 #
plane-surface $-1 75.50645466475417322 51.24723800992870082 43.24649425054910523 0 0 1 1 0 0 forward_v I I I I #
coedge $-1 $341 $340 $333 $423 forward $227 $-1 #
coedge $-1 $333 $229 $231 $337 reversed $133 $-1 #
coedge $-1 $229 $332 $331 $423 reversed $133 $-1 #
coedge $-1 $237 $232 $229 $335 forward $238 $-1 #
edge $-1 $338 28.85827329281892162 $424 54.45765085737752997 $334 $425 forward 7 unknown #
coedge $-1 $231 $230 $341 $426 reversed $79 $-1 #
edge $-1 $427 -151.012909329508318 $338 -119.3703382646397984 $332 $428 forward 7 unknown #
vertex $-1 $233 $429 #
straight-curve $-1 125.4135317649497665 62.30958795580052367 43.24649425054909813 0 -1 0 I I #
coedge $-1 $331 $234 $237 $345 reversed $227 $-1 #
coedge $-1 $234 $331 $336 $426 forward $227 $-1 #
vertex $-1 $235 $430 #
straight-curve $-1 151.0129093295083464 84.60338855253880297 128.6029379295029855 0 0 1 I I #
straight-curve $-1 28.84090013583637813 84.60338855253880297 113.4106195400594572 0.8090169889191003438 0 -0.5877852598018022956 I I #
edge $-1 $424 10.89324924087716795 $239 33.35615054261010215 $340 $431 forward 7 unknown #
point $-1 151.0129093295083464 84.60338855253880297 43.24649425054910523 #
point $-1 125.4135317649497381 84.60338855253880297 43.24649425054911234 #
edge $-1 $432 1 $432 0 $242 $-1 forward 7 unknown #
vertex $-1 $243 $433 #
ellipse-curve $-1 137.3217572984998185 66.63306751115244708 32.71998194910357682 0.5877852598018022956 0 0.8090169889191003438 0.8090169889191003438 0 -0.5877852598018022956 1 I I #
point $-1 139.0222375361481397 66.63306751115244708 33.35919056366694946 #
edge $-1 $434 1 $434 0 $246 $-1 forward 7 unknown #
vertex $-1 $247 $435 #
ellipse-curve $-1 137.3217572984998185 73.37193790167232521 32.71998194910357682 0.5877852598018022956 0 0.8090169889191003438 0.8090169889191003438 0 -0.5877852598018022956 1 I I #
point $-1 139.0222375361481397 73.37193790167232521 33.35919056366694946 #
edge $-1 $436 1 $436 0 $250 $-1 forward 7 unknown #
vertex $-1 $251 $437 #
ellipse-curve $-1 137.3217572984998185 80.11080829219220334 32.71998194910357682 0.5877852598018022956 0 0.8090169889191003438 0.8090169889191003438 0 -0.5877852598018022956 1 I I #
point $-1 139.0222375361481397 80.11080829219220334 33.35919056366694946 #
loop $-1 $-1 $262 $254 #
plane-surface $-1 0 51.24723800992870082 21.62324712527455262 1 0 0 0 0 -1 forward_v I I I I #
coedge $-1 $363 $257 $259 $367 reversed $162 $-1 #
coedge $-1 $257 $362 $438 $439 reversed $162 $-1 #
coedge $-1 $265 $260 $257 $365 forward $255 $-1 #
edge $-1 $368 -34.34168053344311744 $440 -20.92630959910792399 $364 $441 forward 7 unknown #
coedge $-1 $259 $258 $371 $442 reversed $98 $-1 #
edge $-1 $443 -2.27480660867631621e-14 $368 21.31723577206686926 $362 $444 forward 7 unknown #
vertex $-1 $261 $445 #
straight-curve $-1 13.41537093433520056 64.00191473397022435 43.24649425054910523 0 1 0 I I #
coedge $-1 $438 $262 $265 $375 reversed $360 $-1 #
coedge $-1 $262 $438 $366 $442 forward $360 $-1 #
vertex $-1 $263 $446 #
straight-curve $-1 0 69.54807900538044407 71.66931955966472856 0 0 1 I I #
straight-curve $-1 1.421085471520200372e-14 69.54807900538044407 26.67989038445505656 -0.629320380830711068 0 -0.7771459697322561366 I I #
edge $-1 $440 -32.71786590071433665 $266 -18.30084099545174325 $370 $447 forward 7 unknown #
point $-1 0 69.54807900538044407 43.24649425054910523 #
point $-1 13.41537093433519345 69.54807900538044407 43.24649425054910523 #
edge $-1 $448 1 $448 0 $269 $-1 forward 7 unknown #
vertex $-1 $270 $449 #
ellipse-curve $-1 8.198201488403086046 72.43148398643296559 33.75619627473631112 -0.7771459697322561366 0 0.629320380830711068 0.629320380830711068 0 0.7771459697322561366 1 I I #
point $-1 7.337005847998298691 72.43148398643296559 35.74033828723434425 #
edge $-1 $450 1 $450 0 $273 $-1 forward 7 unknown #
vertex $-1 $274 $451 #
ellipse-curve $-1 8.198201488403086046 76.75659145801174077 33.75619627473631112 -0.7771459697322561366 0 0.629320380830711068 0.629320380830711068 0 0.7771459697322561366 1 I I #
point $-1 7.337005847998298691 76.75659145801174077 35.74033828723434425 #
edge $-1 $452 1 $452 0 $277 $-1 forward 7 unknown #
vertex $-1 $278 $453 #
ellipse-curve $-1 8.198201488403086046 81.08169892959051595 33.75619627473631112 -0.7771459697322561366 0 0.629320380830711068 0.629320380830711068 0 0.7771459697322561366 1 I I #
point $-1 7.337005847998298691 81.08169892959051595 35.74033828723434425 #
plane-surface $-1 151.0129093295083464 51.24723800992870082 21.62324712527455262 -1 0 0 0 0 1 forward_v I I I I #
coedge $-1 $286 $284 $288 $395 reversed $191 $-1 #
edge $-1 $299 -21.62324712527455262 $397 21.62324712527455262 $298 $454 forward 7 unknown #
vertex $-1 $395 $455 #
straight-curve $-1 0 0 21.62324712527455262 0 0 -1 I I #
edge $-1 $393 -51.24723800992870082 $397 51.24723800992870082 $391 $456 forward 7 unknown #
straight-curve $-1 75.50645466475417322 0 0 -1 0 0 I I #
vertex $-1 $291 $457 #
straight-curve $-1 75.50645466475417322 102.4944760198574016 0 1 0 0 I I #
point $-1 151.0129093295083464 102.4944760198574016 0 #
point $-1 151.0129093295083464 0 0 #
straight-curve $-1 0 51.24723800992870082 43.24649425054910523 0 -1 0 I I #
point $-1 0 102.4944760198574016 43.24649425054910523 #
point $-1 0 0 43.24649425054910523 #
straight-curve $-1 151.0129093295083464 0 21.62324712527455262 0 0 -1 I I #
straight-curve $-1 151.0129093295083464 102.4944760198574016 21.62324712527455262 0 0 -1 I I #
plane-surface $-1 151.0129093295083464 51.24723800992870082 21.62324712527455262 -1 0 0 0 0 1 forward_v I I I I #
coedge $-1 $312 $311 $322 $418 reversed $125 $-1 #
coedge $-1 $458 $315 $312 $409 forward $309 $-1 #
edge $-1 $410 27.20281016097644766 $459 51.24723800992870082 $312 $460 forward 7 unknown #
vertex $-1 $409 $461 #
straight-curve $-1 0 24.04442784895225316 29.89689262213071785 0 0 -1 I I #
coedge $-1 $315 $458 $317 $414 forward $309 $-1 #
straight-curve $-1 75.50645466475417322 24.04442784895225316 43.24649425054910523 -1 0 0 I I #
edge $-1 $421 -51.24723800992870082 $318 -27.20281016097644766 $317 $462 forward 7 unknown #
point $-1 151.0129093295083464 24.04442784895225316 43.24649425054910523 #
straight-curve $-1 0 31.6347259672024137 33.09458198742466095 0 -1 0 I I #
coedge $-1 $322 $321 $458 $463 reversed $210 $-1 #
edge $-1 $459 -21.62324712527455262 $323 -11.47133486215010834 $407 $464 forward 7 unknown #
point $-1 0 0 33.09458198742466095 #
point $-1 0 24.04442784895225316 33.09458198742466095 #
vertex $-1 $414 $465 #
straight-curve $-1 151.0129093295083464 0 21.62324712527455262 0 0 -1 I I #
edge $-1 $424 85.35644367895388029 $427 103.9554805331146099 $331 $466 forward 7 unknown #
vertex $-1 $345 $467 #
straight-curve $-1 96.55525847213081647 62.14048725080586877 43.24649425054909813 1 0 0 I I #
edge $-1 $427 -0.1691007049946549046 $342 22.2938005967382793 $341 $468 forward 7 unknown #
vertex $-1 $426 $469 #
straight-curve $-1 28.84090013583637813 62.14048725080586877 113.4106195400594572 -0.8090169889191003438 0 0.5877852598018022956 I I #
point $-1 125.4135317649497381 62.14048725080586877 43.24649425054911234 #
point $-1 151.012909329508318 84.60338855253880297 24.64745739638836852 #
straight-curve $-1 151.0129093295083464 51.24723800992870082 43.24649425054910523 0 1 0 I I #
vertex $-1 $348 $470 #
point $-1 138.1307742874189159 66.63306751115244708 32.13219668930177875 #
vertex $-1 $352 $471 #
point $-1 138.1307742874189159 73.37193790167232521 32.13219668930177875 #
vertex $-1 $356 $472 #
point $-1 138.1307742874189159 80.11080829219220334 32.13219668930177875 #
coedge $-1 $371 $370 $363 $439 forward $360 $-1 #
edge $-1 $440 28.42282530911562333 $443 44.98942917520969331 $438 $473 forward 7 unknown #
vertex $-1 $375 $474 #
straight-curve $-1 -20.92630959910792399 83.96510391064303747 43.24649425054910523 -1 0 0 I I #
edge $-1 $443 -19.96318917667281312 $372 -5.546164271410219726 $371 $475 forward 7 unknown #
vertex $-1 $442 $476 #
straight-curve $-1 1.421085471520200372e-14 83.96510391064303747 26.67989038445505656 0.629320380830711068 0 0.7771459697322561366 I I #
point $-1 13.41537093433519345 83.96510391064303747 43.24649425054910523 #
point $-1 0 69.54807900538044407 26.6798903844550388 #
straight-curve $-1 0 51.24723800992870082 43.24649425054910523 0 -1 0 I I #
vertex $-1 $378 $477 #
point $-1 8.827521869233805774 72.43148398643296559 34.53334224446857093 #
vertex $-1 $382 $478 #
point $-1 8.827521869233805774 76.75659145801174077 34.53334224446857093 #
vertex $-1 $386 $479 #
point $-1 8.827521869233805774 81.08169892959051595 34.53334224446857093 #
straight-curve $-1 0 102.4944760198574016 21.62324712527455262 0 0 -1 I I #
point $-1 0 0 0 #
straight-curve $-1 0 51.24723800992870082 0 0 1 0 I I #
point $-1 0 102.4944760198574016 0 #
coedge $-1 $412 $408 $417 $463 forward $309 $-1 #
vertex $-1 $409 $480 #
straight-curve $-1 0 51.24723800992870082 43.24649425054910523 0 -1 0 I I #
point $-1 0 24.04442784895225316 43.24649425054910523 #
straight-curve $-1 151.0129093295083464 51.24723800992870082 43.24649425054910523 0 1 0 I I #
edge $-1 $459 -75.50645466475417322 $421 75.50645466475417322 $417 $481 forward 7 unknown #
straight-curve $-1 0 0 21.62324712527455262 0 0 -1 I I #
point $-1 151.0129093295083464 0 43.24649425054910523 #
straight-curve $-1 151.0129093295083464 62.14048725080586877 128.6029379295029855 0 0 -1 I I #
point $-1 151.0129093295083464 62.14048725080586877 43.24649425054910523 #
straight-curve $-1 151.0129093295083749 62.30958795580052367 24.64745739638836142 0 1 0 I I #
point $-1 151.012909329508318 62.14048725080586877 24.64745739638836852 #
point $-1 136.7339720386979991 66.63306751115244708 31.91096496018447937 #
point $-1 136.7339720386979991 73.37193790167232521 31.91096496018447937 #
point $-1 136.7339720386979991 80.11080829219220334 31.91096496018447937 #
straight-curve $-1 0 83.96510391064303747 71.66931955966472856 0 0 -1 I I #
point $-1 0 83.96510391064303747 43.24649425054910523 #
straight-curve $-1 0 64.00191473397022435 26.67989038445502459 0 -1 0 I I #
point $-1 0 83.96510391064303747 26.6798903844550388 #
point $-1 8.975347458135345846 72.43148398643296559 33.12687589390560561 #
point $-1 8.975347458135345846 76.75659145801174077 33.12687589390560561 #
point $-1 8.975347458135345846 81.08169892959051595 33.12687589390560561 #
point $-1 0 0 43.24649425054910523 #
straight-curve $-1 75.50645466475417322 0 43.24649425054910523 1 0 0 I I #
End-of-ACIS-data 