300 0 5 0           
7 Unknown 11 ACIS 3.0 NT 24 Fri Oct 30 14:26:59 1998 
-1 9.9999999999999995e-007 1e-010 
body $5 $6 $-1 $7 #
body $8 $9 $-1 $10 #
body $11 $12 $-1 $13 #
body $14 $15 $-1 $16 #
body $17 $18 $-1 $19 #
display_attribute-st-attrib $-1 $20 $-1 $0 1 #
lump $-1 $-1 $21 $0 #
transform $-1 1 0 0 0 1 0 0 0 1 46.954557939390241 23.327962128443726 8.9111434177466489 1 rotate no_reflect no_shear #
display_attribute-st-attrib $-1 $22 $-1 $1 1 #
lump $-1 $-1 $23 $1 #
transform $-1 1 0 0 0 1 0 0 0 1 46.954557939390241 23.327962128443726 8.9111434177466489 1 rotate no_reflect no_shear #
display_attribute-st-attrib $-1 $24 $-1 $2 1 #
lump $-1 $-1 $25 $2 #
transform $-1 1 0 0 0 1 0 0 0 1 46.954557939390241 23.327962128443726 8.9111434177466489 1 rotate no_reflect no_shear #
display_attribute-st-attrib $-1 $26 $-1 $3 1 #
lump $-1 $-1 $27 $3 #
transform $-1 1 0 0 0 1 0 0 0 1 46.954557939390241 23.327962128443726 8.9111434177466489 1 rotate no_reflect no_shear #
display_attribute-st-attrib $-1 $28 $-1 $4 1 #
lump $-1 $-1 $29 $4 #
transform $-1 1 0 0 0 1 0 0 0 1 46.954557939390241 23.327962128443726 8.9111434177466489 1 rotate no_reflect no_shear #
id_attribute-st-attrib $-1 $-1 $5 $0 1656 #
shell $-1 $-1 $-1 $30 $-1 $6 #
id_attribute-st-attrib $-1 $-1 $8 $1 1667 #
shell $-1 $-1 $-1 $31 $-1 $9 #
id_attribute-st-attrib $-1 $-1 $11 $2 1674 #
shell $-1 $-1 $-1 $32 $-1 $12 #
id_attribute-st-attrib $-1 $-1 $14 $3 1682 #
shell $-1 $-1 $-1 $33 $-1 $15 #
id_attribute-st-attrib $-1 $-1 $17 $4 1691 #
shell $-1 $-1 $-1 $34 $-1 $18 #
face $-1 $35 $36 $21 $-1 $37 forward single #
face $-1 $38 $39 $23 $-1 $40 forward single #
face $-1 $41 $42 $25 $-1 $43 reversed single #
face $-1 $44 $45 $27 $-1 $46 reversed single #
face $-1 $47 $48 $29 $-1 $49 reversed single #
face $-1 $50 $51 $21 $-1 $52 reversed single #
loop $-1 $-1 $53 $30 #
plane-surface $-1 0 0 8.9111434177466489 0 0 1 1 0 0 forward_v I I I I #
face $-1 $54 $55 $23 $-1 $56 forward single #
loop $-1 $-1 $57 $31 #
plane-surface $-1 -108.56448206540536 -14.996555123596966 71.241942917661291 0 -1 0 0.6560590369687036 0 -0.75470957328743171 forward_v I I I I #
face $-1 $58 $59 $25 $-1 $60 reversed single #
loop $-1 $61 $62 $32 #
cone-surface $-1 -41.712551985569739 -21.661680727474376 4.2621339947230528 0.6560590369687036 0 -0.75470957328743171 0.18867739332185793 0 0.1640147592421759 1 I I 0 1 forward I I I I #
face $-1 $63 $64 $27 $-1 $65 reversed single #
loop $-1 $66 $67 $33 #
cone-surface $-1 -41.712551985569739 -19.162258626020346 4.2621339947230528 0.6560590369687036 0 -0.75470957328743171 0.18867739332185793 0 0.1640147592421759 1 I I 0 1 forward I I I I #
face $-1 $68 $69 $29 $-1 $70 reversed single #
loop $-1 $71 $72 $34 #
cone-surface $-1 -41.712551985569739 -16.66283652456632 4.2621339947230528 0.6560590369687036 0 -0.75470957328743171 0.18867739332185793 0 0.1640147592421759 1 I I 0 1 forward I I I I #
face $-1 $73 $74 $21 $-1 $75 reversed single #
loop $-1 $-1 $76 $35 #
plane-surface $-1 0 0 -8.9111434177466489 0 0 1 1 0 0 forward_v I I I I #
coedge $-1 $77 $78 $79 $80 forward $36 $-1 #
face $-1 $81 $82 $23 $-1 $83 reversed single #
loop $-1 $-1 $84 $38 #
plane-surface $-1 -46.954557939390241 -19.162258626020346 0.36783414498690092 -0.6560590369687036 0 0.75470957328743171 0.75470957328743171 0 0.6560590369687036 forward_v I I I I #
coedge $-1 $85 $86 $87 $88 reversed $39 $-1 #
face $-1 $89 $90 $25 $-1 $91 forward single #
loop $-1 $92 $93 $41 #
cone-surface $-1 -41.3025150874643 -21.661680727474376 3.7904405114184083 0.6560590369687036 0 -0.75470957328743171 0.094338696660928964 0 0.08200737962108795 1 I I -0.70710678118654746 0.70710678118654746 forward I I I I #
loop $-1 $-1 $94 $32 #
coedge $-1 $62 $62 $95 $96 reversed $42 $-1 #
face $-1 $97 $98 $27 $-1 $99 reversed single #
loop $-1 $100 $101 $44 #
cone-surface $-1 -41.3025150874643 -19.162258626020346 3.7904405114184083 0.6560590369687036 0 -0.75470957328743171 0.094338696660928964 0 0.08200737962108795 1 I I -0.70710678118654746 0.70710678118654746 forward I I I I #
loop $-1 $-1 $102 $33 #
coedge $-1 $67 $67 $103 $104 reversed $45 $-1 #
face $-1 $105 $106 $29 $-1 $107 reversed single #
loop $-1 $108 $109 $47 #
cone-surface $-1 -41.3025150874643 -16.66283652456632 3.7904405114184083 0.6560590369687036 0 -0.75470957328743171 0.094338696660928964 0 0.08200737962108795 1 I I -0.70710678118654746 0.70710678118654746 forward I I I I #
loop $-1 $-1 $110 $34 #
coedge $-1 $72 $72 $111 $112 reversed $48 $-1 #
face $-1 $113 $114 $21 $-1 $115 reversed single #
loop $-1 $-1 $116 $50 #
plane-surface $-1 0 -23.327962128443726 0 0 1 0 0 0 1 forward_v I I I I #
coedge $-1 $117 $118 $119 $120 forward $51 $-1 #
coedge $-1 $121 $53 $122 $123 forward $36 $-1 #
coedge $-1 $53 $121 $124 $125 forward $36 $-1 #
coedge $-1 $126 $127 $53 $80 reversed $128 $-1 #
edge $-1 $129 $130 $79 $131 forward #
face $-1 $132 $133 $23 $-1 $134 forward single #
loop $-1 $-1 $135 $54 #
plane-surface $-1 -46.954557939390241 0 0 1 0 0 0 0 -1 forward_v I I I I #
coedge $-1 $136 $137 $135 $138 reversed $55 $-1 #
coedge $-1 $86 $57 $137 $139 forward $39 $-1 #
coedge $-1 $57 $85 $140 $141 reversed $39 $-1 #
coedge $-1 $142 $135 $57 $88 forward $82 $-1 #
edge $-1 $143 $144 $87 $145 forward #
face $-1 $146 $147 $25 $-1 $148 forward single #
loop $-1 $-1 $149 $58 #
plane-surface $-1 -108.56448206540536 -14.996555123596966 71.241942917661291 0 -1 0 0.6560590369687036 0 -0.75470957328743171 forward_v I I I I #
loop $-1 $-1 $150 $41 #
coedge $-1 $93 $93 $94 $151 forward $59 $-1 #
coedge $-1 $94 $94 $93 $151 reversed $61 $-1 #
coedge $-1 $95 $95 $62 $96 forward $147 $-1 #
edge $-1 $152 $152 $95 $153 forward #
face $-1 $154 $155 $27 $-1 $156 reversed single #
loop $-1 $157 $158 $63 #
cone-surface $-1 -41.712551985569739 -21.661680727474376 4.2621339947230528 0.6560590369687036 0 -0.75470957328743171 0.18867739332185793 0 0.1640147592421759 1 I I 0 1 forward I I I I #
loop $-1 $-1 $159 $44 #
coedge $-1 $101 $101 $102 $160 forward $64 $-1 #
coedge $-1 $102 $102 $101 $160 reversed $66 $-1 #
coedge $-1 $103 $103 $67 $104 forward $161 $-1 #
edge $-1 $162 $162 $103 $163 forward #
face $-1 $164 $165 $29 $-1 $166 reversed single #
loop $-1 $167 $168 $68 #
cone-surface $-1 -41.712551985569739 -19.162258626020346 4.2621339947230528 0.6560590369687036 0 -0.75470957328743171 0.18867739332185793 0 0.1640147592421759 1 I I 0 1 forward I I I I #
loop $-1 $-1 $169 $47 #
coedge $-1 $109 $109 $110 $170 forward $69 $-1 #
coedge $-1 $110 $110 $109 $170 reversed $71 $-1 #
coedge $-1 $111 $111 $72 $112 forward $171 $-1 #
edge $-1 $172 $172 $111 $173 forward #
face $-1 $174 $175 $21 $-1 $176 reversed single #
loop $-1 $-1 $177 $73 #
plane-surface $-1 -46.954557939390241 0 0 1 0 0 0 0 -1 forward_v I I I I #
coedge $-1 $178 $124 $179 $180 forward $74 $-1 #
coedge $-1 $181 $76 $178 $182 forward $51 $-1 #
coedge $-1 $76 $181 $183 $184 forward $51 $-1 #
coedge $-1 $127 $126 $76 $120 reversed $128 $-1 #
edge $-1 $185 $186 $119 $187 forward #
coedge $-1 $78 $77 $188 $189 forward $36 $-1 #
coedge $-1 $190 $191 $77 $123 reversed $175 $-1 #
edge $-1 $130 $192 $122 $193 forward #
coedge $-1 $116 $194 $78 $125 reversed $74 $-1 #
edge $-1 $195 $129 $124 $196 forward #
coedge $-1 $119 $79 $194 $197 forward $128 $-1 #
coedge $-1 $79 $119 $190 $198 reversed $128 $-1 #
loop $-1 $-1 $126 $174 #
vertex $-1 $80 $199 #
vertex $-1 $80 $200 #
straight-curve $-1 46.954557939390241 0 8.9111434177466489 0 1 0 I I #
face $-1 $201 $202 $23 $-1 $203 reversed single #
loop $-1 $-1 $140 $81 #
plane-surface $-1 0 0 8.9111434177466489 0 0 1 1 0 0 forward_v I I I I #
coedge $-1 $87 $204 $84 $138 forward $82 $-1 #
coedge $-1 $205 $84 $206 $207 reversed $55 $-1 #
coedge $-1 $84 $205 $85 $139 reversed $55 $-1 #
edge $-1 $208 $143 $135 $209 forward #
edge $-1 $143 $210 $85 $211 forward #
coedge $-1 $212 $213 $86 $141 forward $133 $-1 #
edge $-1 $144 $210 $140 $214 forward #
coedge $-1 $215 $87 $213 $216 reversed $82 $-1 #
vertex $-1 $138 $217 #
vertex $-1 $141 $218 #
straight-curve $-1 -46.954557939390241 -14.996555123596966 35.620971458830645 0 0 1 I I #
face $-1 $219 $220 $25 $-1 $221 reversed single #
loop $-1 $222 $95 $89 #
plane-surface $-1 -46.954557939390241 -19.162258626020346 0.36783414498690092 -0.6560590369687036 0 0.75470957328743171 0.75470957328743171 0 0.6560590369687036 forward_v I I I I #
coedge $-1 $223 $224 $225 $226 reversed $90 $-1 #
coedge $-1 $150 $150 $-1 $227 forward $92 $-1 #
edge $-1 $228 $228 $93 $229 forward #
vertex $-1 $96 $230 #
ellipse-curve $-1 -42.040581504054096 -21.661680727474376 4.6394887813667758 0.6560590369687036 0 -0.75470957328743171 0.18867739332185793 0 0.1640147592421759 1 I I #
face $-1 $231 $232 $27 $-1 $233 forward single #
loop $-1 $234 $235 $97 #
cone-surface $-1 -41.3025150874643 -21.661680727474376 3.7904405114184083 0.6560590369687036 0 -0.75470957328743171 0.094338696660928964 0 0.08200737962108795 1 I I -0.70710678118654746 0.70710678118654746 forward I I I I #
loop $-1 $-1 $236 $63 #
coedge $-1 $158 $158 $237 $238 reversed $98 $-1 #
coedge $-1 $159 $159 $-1 $239 forward $100 $-1 #
edge $-1 $240 $240 $101 $241 forward #
loop $-1 $242 $103 $231 #
vertex $-1 $104 $243 #
ellipse-curve $-1 -42.040581504054096 -19.162258626020346 4.6394887813667758 0.6560590369687036 0 -0.75470957328743171 0.18867739332185793 0 0.1640147592421759 1 I I #
face $-1 $244 $245 $29 $-1 $246 reversed single #
loop $-1 $247 $248 $105 #
cone-surface $-1 -41.3025150874643 -19.162258626020346 3.7904405114184083 0.6560590369687036 0 -0.75470957328743171 0.094338696660928964 0 0.08200737962108795 1 I I -0.70710678118654746 0.70710678118654746 forward I I I I #
loop $-1 $-1 $249 $68 #
coedge $-1 $168 $168 $250 $251 reversed $106 $-1 #
coedge $-1 $169 $169 $-1 $252 forward $108 $-1 #
edge $-1 $253 $253 $109 $254 forward #
loop $-1 $255 $111 $256 #
vertex $-1 $112 $257 #
ellipse-curve $-1 -42.040581504054096 -16.66283652456632 4.6394887813667758 0.6560590369687036 0 -0.75470957328743171 0.18867739332185793 0 0.1640147592421759 1 I I #
face $-1 $-1 $128 $21 $-1 $258 reversed single #
loop $-1 $-1 $190 $113 #
plane-surface $-1 0 23.327962128443726 0 0 -1 0 0 0 -1 forward_v I I I I #
coedge $-1 $259 $188 $191 $260 forward $114 $-1 #
coedge $-1 $194 $116 $117 $182 reversed $74 $-1 #
coedge $-1 $188 $259 $116 $180 reversed $114 $-1 #
edge $-1 $195 $261 $179 $262 forward #
coedge $-1 $118 $117 $259 $263 forward $51 $-1 #
edge $-1 $186 $261 $178 $264 forward #
coedge $-1 $191 $190 $118 $184 reversed $175 $-1 #
edge $-1 $265 $185 $183 $266 forward #
vertex $-1 $120 $267 #
vertex $-1 $197 $268 #
straight-curve $-1 46.954557939390241 0 -8.9111434177466489 0 -1 0 I I #
coedge $-1 $177 $179 $121 $189 reversed $114 $-1 #
edge $-1 $192 $195 $188 $269 forward #
coedge $-1 $183 $122 $127 $198 forward $175 $-1 #
coedge $-1 $122 $183 $177 $260 reversed $175 $-1 #
vertex $-1 $123 $270 #
straight-curve $-1 0 23.327962128443726 8.9111434177466489 -1 0 0 I I #
coedge $-1 $124 $178 $126 $197 reversed $74 $-1 #
vertex $-1 $189 $271 #
straight-curve $-1 0 -23.327962128443726 8.9111434177466489 1 0 0 I I #
edge $-1 $129 $186 $126 $272 forward #
edge $-1 $130 $185 $127 $273 forward #
point $-1 46.954557939390241 -23.327962128443726 8.9111434177466489 #
point $-1 46.954557939390241 23.327962128443726 8.9111434177466489 #
face $-1 $274 $275 $23 $-1 $276 reversed single #
loop $-1 $-1 $277 $132 #
plane-surface $-1 0 0 -8.9111434177466489 0 0 1 1 0 0 forward_v I I I I #
coedge $-1 $135 $278 $279 $280 reversed $82 $-1 #
coedge $-1 $137 $136 $212 $281 reversed $55 $-1 #
coedge $-1 $279 $282 $136 $207 forward $275 $-1 #
edge $-1 $283 $208 $206 $284 forward #
vertex $-1 $280 $285 #
straight-curve $-1 -46.954557939390241 -9.5811293130101731 0.36783414498690181 0 1 0 I I #
vertex $-1 $281 $286 #
straight-curve $-1 -46.954557939390241 -14.996555123596966 0.36783414498690092 0.75470957328743171 0 0.6560590369687036 I I #
coedge $-1 $287 $140 $205 $281 forward $133 $-1 #
coedge $-1 $140 $288 $142 $216 forward $133 $-1 #
straight-curve $-1 -54.282241032702679 -14.996555123596966 8.9111434177466506 1 0 0 I I #
coedge $-1 $278 $142 $289 $290 forward $82 $-1 #
edge $-1 $291 $144 $142 $292 forward #
point $-1 -46.954557939390241 -14.996555123596966 0.36783414498690092 #
point $-1 -46.954557939390241 -14.996555123596966 8.9111434177466489 #
face $-1 $293 $294 $25 $-1 $295 forward single #
loop $-1 $-1 $296 $146 #
plane-surface $-1 -46.954557939390241 0 0 1 0 0 0 0 -1 forward_v I I I I #
loop $-1 $-1 $297 $89 #
coedge $-1 $224 $149 $298 $299 forward $90 $-1 #
coedge $-1 $149 $223 $300 $301 reversed $90 $-1 #
coedge $-1 $302 $296 $149 $226 forward $220 $-1 #
edge $-1 $303 $304 $225 $305 forward #
edge $-1 $306 $306 $150 $-1 forward #
vertex $-1 $151 $307 #
ellipse-curve $-1 -41.38452246708539 -21.661680727474376 3.8847792080793373 -0.6560590369687036 0 0.75470957328743171 0.18867739332185793 0 0.1640147592421759 1 I I #
point $-1 -41.851904110732235 -21.661680727474376 4.8035035406089452 #
face $-1 $308 $161 $27 $-1 $309 forward single #
loop $-1 $-1 $310 $154 #
plane-surface $-1 -108.56448206540536 -14.996555123596966 71.241942917661291 0 -1 0 0.6560590369687036 0 -0.75470957328743171 forward_v I I I I #
loop $-1 $-1 $311 $97 #
coedge $-1 $235 $235 $236 $312 forward $155 $-1 #
coedge $-1 $236 $236 $235 $312 reversed $157 $-1 #
coedge $-1 $237 $237 $158 $238 forward $242 $-1 #
edge $-1 $313 $313 $237 $314 forward #
edge $-1 $315 $315 $159 $-1 forward #
vertex $-1 $160 $316 #
ellipse-curve $-1 -41.38452246708539 -19.162258626020346 3.8847792080793373 -0.6560590369687036 0 0.75470957328743171 0.18867739332185793 0 0.1640147592421759 1 I I #
loop $-1 $317 $237 $231 #
point $-1 -41.851904110732235 -19.162258626020346 4.8035035406089452 #
face $-1 $318 $319 $29 $-1 $320 reversed single #
loop $-1 $321 $322 $164 #
cone-surface $-1 -41.712551985569739 -21.661680727474376 4.2621339947230528 0.6560590369687036 0 -0.75470957328743171 0.18867739332185793 0 0.1640147592421759 1 I I 0 1 forward I I I I #
loop $-1 $-1 $323 $105 #
coedge $-1 $248 $248 $249 $324 forward $165 $-1 #
coedge $-1 $249 $249 $248 $324 reversed $167 $-1 #
coedge $-1 $250 $250 $168 $251 forward $255 $-1 #
edge $-1 $325 $325 $250 $326 forward #
edge $-1 $327 $327 $169 $-1 forward #
vertex $-1 $170 $328 #
ellipse-curve $-1 -41.38452246708539 -16.66283652456632 3.8847792080793373 -0.6560590369687036 0 0.75470957328743171 0.18867739332185793 0 0.1640147592421759 1 I I #
loop $-1 $329 $250 $256 #
face $-1 $330 $171 $29 $-1 $331 forward single #
point $-1 -41.851904110732235 -16.66283652456632 4.8035035406089452 #
plane-surface $-1 46.954557939390241 0 0 -1 0 0 0 0 1 forward_v I I I I #
coedge $-1 $179 $177 $181 $263 reversed $114 $-1 #
edge $-1 $192 $265 $191 $332 forward #
vertex $-1 $263 $333 #
straight-curve $-1 -46.954557939390241 -23.327962128443726 0 0 0 -1 I I #
edge $-1 $261 $265 $259 $334 forward #
straight-curve $-1 0 -23.327962128443726 -8.9111434177466489 -1 0 0 I I #
vertex $-1 $184 $335 #
straight-curve $-1 0 23.327962128443726 -8.9111434177466489 1 0 0 I I #
point $-1 46.954557939390241 23.327962128443726 -8.9111434177466489 #
point $-1 46.954557939390241 -23.327962128443726 -8.9111434177466489 #
straight-curve $-1 -46.954557939390241 0 8.9111434177466489 0 -1 0 I I #
point $-1 -46.954557939390241 23.327962128443726 8.9111434177466489 #
point $-1 -46.954557939390241 -23.327962128443726 8.9111434177466489 #
straight-curve $-1 46.954557939390241 -23.327962128443726 0 0 0 -1 I I #
straight-curve $-1 46.954557939390241 23.327962128443726 0 0 0 -1 I I #
face $-1 $336 $337 $23 $-1 $338 reversed single #
loop $-1 $-1 $206 $201 #
plane-surface $-1 0 -23.327962128443726 0 0 1 0 0 0 1 forward_v I I I I #
coedge $-1 $339 $340 $341 $342 forward $202 $-1 #
coedge $-1 $204 $215 $343 $344 reversed $82 $-1 #
coedge $-1 $345 $206 $204 $280 forward $275 $-1 #
edge $-1 $208 $346 $204 $347 forward #
edge $-1 $210 $283 $212 $348 forward #
coedge $-1 $206 $349 $287 $350 reversed $275 $-1 #
vertex $-1 $350 $351 #
straight-curve $-1 -33.67327944451614 -23.327962128443726 11.913073648318052 -0.75470957328743171 0 -0.6560590369687036 I I #
point $-1 -46.954557939390241 -23.327962128443726 0.36783414498690092 #
point $-1 -37.12660506871795 -14.996555123596966 8.9111434177466489 #
coedge $-1 $352 $212 $282 $350 forward $133 $-1 #
coedge $-1 $213 $352 $353 $354 forward $133 $-1 #
coedge $-1 $353 $355 $215 $290 reversed $337 $-1 #
edge $-1 $291 $356 $289 $357 forward #
vertex $-1 $354 $358 #
straight-curve $-1 -46.954557939390241 0 8.9111434177466489 0 -1 0 I I #
face $-1 $359 $360 $25 $-1 $361 reversed single #
loop $-1 $-1 $300 $219 #
plane-surface $-1 0 0 8.9111434177466489 0 0 1 1 0 0 forward_v I I I I #
coedge $-1 $225 $362 $297 $363 forward $220 $-1 #
coedge $-1 $364 $298 $296 $363 reversed $222 $-1 #
coedge $-1 $297 $365 $223 $299 reversed $222 $-1 #
edge $-1 $303 $366 $223 $367 forward #
coedge $-1 $368 $369 $224 $301 forward $294 $-1 #
edge $-1 $304 $366 $300 $370 forward #
coedge $-1 $371 $225 $369 $372 reversed $220 $-1 #
vertex $-1 $363 $373 #
vertex $-1 $301 $374 #
straight-curve $-1 -46.954557939390241 -14.996555123596966 35.620971458830645 0 0 1 I I #
vertex $-1 $227 $375 #
point $-1 -41.195845073763529 -21.661680727474376 4.0487939673215134 #
face $-1 $376 $377 $27 $-1 $378 reversed single #
plane-surface $-1 -46.954557939390241 -19.162258626020346 0.36783414498690092 -0.6560590369687036 0 0.75470957328743171 0.75470957328743171 0 0.6560590369687036 forward_v I I I I #
coedge $-1 $379 $380 $381 $382 reversed $232 $-1 #
coedge $-1 $311 $311 $-1 $383 forward $234 $-1 #
edge $-1 $384 $384 $235 $385 forward #
vertex $-1 $238 $386 #
ellipse-curve $-1 -42.040581504054096 -21.661680727474376 4.6394887813667758 0.6560590369687036 0 -0.75470957328743171 0.18867739332185793 0 0.1640147592421759 1 I I #
vertex $-1 $239 $387 #
point $-1 -41.195845073763529 -19.162258626020346 4.0487939673215134 #
loop $-1 $-1 $388 $231 #
face $-1 $256 $389 $29 $-1 $390 forward single #
loop $-1 $391 $392 $244 #
cone-surface $-1 -41.3025150874643 -21.661680727474376 3.7904405114184083 0.6560590369687036 0 -0.75470957328743171 0.094338696660928964 0 0.08200737962108795 1 I I -0.70710678118654746 0.70710678118654746 forward I I I I #
loop $-1 $-1 $393 $164 #
coedge $-1 $322 $322 $394 $395 reversed $245 $-1 #
coedge $-1 $323 $323 $-1 $396 forward $247 $-1 #
edge $-1 $397 $397 $248 $398 forward #
vertex $-1 $251 $399 #
ellipse-curve $-1 -42.040581504054096 -19.162258626020346 4.6394887813667758 0.6560590369687036 0 -0.75470957328743171 0.18867739332185793 0 0.1640147592421759 1 I I #
vertex $-1 $252 $400 #
point $-1 -41.195845073763529 -16.66283652456632 4.0487939673215134 #
loop $-1 $401 $394 $256 #
face $-1 $402 $403 $29 $-1 $404 reversed single #
plane-surface $-1 -46.954557939390241 -19.162258626020346 0.36783414498690092 -0.6560590369687036 0 0.75470957328743171 0.75470957328743171 0 0.6560590369687036 forward_v I I I I #
straight-curve $-1 -46.954557939390241 23.327962128443726 0 0 0 -1 I I #
point $-1 -46.954557939390241 -23.327962128443726 -8.9111434177466489 #
straight-curve $-1 -46.954557939390241 0 -8.9111434177466489 0 1 0 I I #
point $-1 -46.954557939390241 23.327962128443726 -8.9111434177466489 #
face $-1 $-1 $405 $23 $-1 $406 reversed single #
loop $-1 $-1 $407 $274 #
plane-surface $-1 0 23.327962128443726 0 0 -1 0 0 0 -1 forward_v I I I I #
coedge $-1 $343 $277 $345 $408 forward $202 $-1 #
coedge $-1 $277 $343 $355 $409 forward $202 $-1 #
coedge $-1 $410 $411 $277 $342 reversed $405 $-1 #
edge $-1 $412 $413 $341 $414 forward #
coedge $-1 $340 $339 $278 $344 forward $202 $-1 #
edge $-1 $346 $356 $278 $415 forward #
coedge $-1 $349 $279 $339 $408 reversed $275 $-1 #
vertex $-1 $344 $416 #
straight-curve $-1 -46.954557939390241 -23.327962128443726 0 0 0 -1 I I #
straight-curve $-1 -37.12660506871795 -9.5811293130101731 8.9111434177466506 0 -1 0 I I #
coedge $-1 $282 $345 $411 $417 reversed $275 $-1 #
edge $-1 $283 $418 $282 $419 forward #
point $-1 -37.12660506871795 -23.327962128443726 8.9111434177466489 #
coedge $-1 $288 $287 $420 $421 forward $133 $-1 #
coedge $-1 $407 $289 $288 $354 reversed $337 $-1 #
edge $-1 $422 $291 $353 $423 forward #
coedge $-1 $289 $407 $340 $409 reversed $337 $-1 #
vertex $-1 $409 $424 #
straight-curve $-1 -46.954557939390241 23.327962128443726 0 0 0 -1 I I #
point $-1 -46.954557939390241 23.327962128443726 8.9111434177466489 #
face $-1 $425 $426 $25 $-1 $427 reversed single #
loop $-1 $-1 $428 $293 #
plane-surface $-1 0 0 -8.9111434177466489 0 0 1 1 0 0 forward_v I I I I #
coedge $-1 $296 $429 $430 $431 reversed $220 $-1 #
edge $-1 $432 $303 $296 $433 forward #
coedge $-1 $365 $297 $434 $435 reversed $222 $-1 #
coedge $-1 $298 $364 $368 $436 reversed $222 $-1 #
vertex $-1 $436 $437 #
straight-curve $-1 -46.954557939390241 -14.996555123596966 0.36783414498690092 0.75470957328743171 0 0.6560590369687036 I I #
coedge $-1 $438 $300 $365 $436 forward $294 $-1 #
coedge $-1 $300 $439 $302 $372 forward $294 $-1 #
straight-curve $-1 -54.282241032702679 -14.996555123596966 8.9111434177466506 1 0 0 I I #
coedge $-1 $429 $302 $440 $441 forward $220 $-1 #
edge $-1 $442 $304 $302 $443 forward #
point $-1 -46.954557939390241 -14.996555123596966 0.36783414498690092 #
point $-1 -46.954557939390241 -14.996555123596966 8.9111434177466489 #
point $-1 -41.220507707843211 -21.661680727474376 3.6961018147574793 #
face $-1 $444 $445 $27 $-1 $446 forward single #
loop $-1 $-1 $447 $308 #
plane-surface $-1 -46.954557939390241 0 0 1 0 0 0 0 -1 forward_v I I I I #
coedge $-1 $380 $310 $448 $449 forward $232 $-1 #
coedge $-1 $310 $379 $450 $451 reversed $232 $-1 #
coedge $-1 $452 $447 $310 $382 forward $377 $-1 #
edge $-1 $453 $454 $381 $455 forward #
edge $-1 $456 $456 $311 $-1 forward #
vertex $-1 $312 $457 #
ellipse-curve $-1 -41.38452246708539 -21.661680727474376 3.8847792080793373 -0.6560590369687036 0 0.75470957328743171 0.18867739332185793 0 0.1640147592421759 1 I I #
point $-1 -41.851904110732235 -21.661680727474376 4.8035035406089452 #
point $-1 -41.220507707843211 -19.162258626020346 3.6961018147574793 #
coedge $-1 $458 $448 $447 $459 reversed $317 $-1 #
loop $-1 $-1 $460 $318 #
plane-surface $-1 -108.56448206540536 -14.996555123596966 71.241942917661291 0 -1 0 0.6560590369687036 0 -0.75470957328743171 forward_v I I I I #
loop $-1 $-1 $461 $244 #
coedge $-1 $392 $392 $393 $462 forward $319 $-1 #
coedge $-1 $393 $393 $392 $462 reversed $321 $-1 #
coedge $-1 $394 $394 $322 $395 forward $329 $-1 #
edge $-1 $463 $463 $394 $464 forward #
edge $-1 $465 $465 $323 $-1 forward #
vertex $-1 $324 $466 #
ellipse-curve $-1 -41.38452246708539 -19.162258626020346 3.8847792080793373 -0.6560590369687036 0 0.75470957328743171 0.18867739332185793 0 0.1640147592421759 1 I I #
point $-1 -41.851904110732235 -19.162258626020346 4.8035035406089452 #
point $-1 -41.220507707843211 -16.66283652456632 3.6961018147574793 #
loop $-1 $-1 $467 $256 #
face $-1 $468 $469 $29 $-1 $470 forward single #
loop $-1 $-1 $471 $330 #
plane-surface $-1 -46.954557939390241 0 0 1 0 0 0 0 -1 forward_v I I I I #
loop $-1 $-1 $411 $336 #
plane-surface $-1 46.954557939390241 0 0 -1 0 0 0 0 1 forward_v I I I I #
coedge $-1 $355 $353 $410 $472 forward $337 $-1 #
edge $-1 $413 $346 $345 $473 forward #
edge $-1 $356 $412 $355 $474 forward #
coedge $-1 $420 $341 $407 $472 reversed $405 $-1 #
coedge $-1 $341 $420 $349 $417 forward $405 $-1 #
vertex $-1 $342 $475 #
vertex $-1 $417 $476 #
straight-curve $-1 46.954557939390241 0 -8.9111434177466489 0 -1 0 I I #
straight-curve $-1 -46.954557939390241 0 -8.9111434177466489 0 1 0 I I #
point $-1 -46.954557939390241 -23.327962128443726 -8.9111434177466489 #
edge $-1 $418 $413 $411 $477 forward #
vertex $-1 $421 $478 #
straight-curve $-1 0 -23.327962128443726 8.9111434177466489 1 0 0 I I #
coedge $-1 $411 $410 $352 $421 reversed $405 $-1 #
edge $-1 $418 $422 $420 $479 forward #
vertex $-1 $421 $480 #
straight-curve $-1 0 23.327962128443726 8.9111434177466489 -1 0 0 I I #
point $-1 -46.954557939390241 23.327962128443726 -8.9111434177466489 #
face $-1 $481 $482 $25 $-1 $483 reversed single #
loop $-1 $-1 $434 $359 #
plane-surface $-1 0 -23.327962128443726 0 0 1 0 0 0 1 forward_v I I I I #
coedge $-1 $484 $485 $486 $487 forward $360 $-1 #
coedge $-1 $362 $371 $488 $489 reversed $220 $-1 #
coedge $-1 $490 $434 $362 $431 forward $426 $-1 #
edge $-1 $432 $491 $362 $492 forward #
vertex $-1 $431 $493 #
straight-curve $-1 -46.954557939390241 -9.5811293130101731 0.36783414498690181 0 1 0 I I #
coedge $-1 $430 $494 $364 $435 forward $426 $-1 #
edge $-1 $495 $432 $434 $496 forward #
edge $-1 $366 $495 $368 $497 forward #
point $-1 -37.12660506871795 -14.996555123596966 8.9111434177466489 #
coedge $-1 $498 $368 $494 $499 forward $294 $-1 #
coedge $-1 $369 $498 $500 $501 forward $294 $-1 #
coedge $-1 $500 $502 $371 $441 reversed $482 $-1 #
edge $-1 $442 $503 $440 $504 forward #
vertex $-1 $501 $505 #
straight-curve $-1 -46.954557939390241 0 8.9111434177466489 0 -1 0 I I #
face $-1 $506 $507 $27 $-1 $508 reversed single #
loop $-1 $-1 $450 $376 #
plane-surface $-1 0 0 8.9111434177466489 0 0 1 1 0 0 forward_v I I I I #
coedge $-1 $381 $509 $388 $459 forward $377 $-1 #
coedge $-1 $388 $510 $379 $449 reversed $317 $-1 #
edge $-1 $453 $511 $379 $512 forward #
coedge $-1 $513 $514 $380 $451 forward $445 $-1 #
edge $-1 $454 $511 $450 $515 forward #
coedge $-1 $516 $381 $514 $517 reversed $377 $-1 #
vertex $-1 $459 $518 #
vertex $-1 $451 $519 #
straight-curve $-1 -46.954557939390241 -14.996555123596966 35.620971458830645 0 0 1 I I #
vertex $-1 $383 $520 #
point $-1 -41.195845073763529 -21.661680727474376 4.0487939673215134 #
coedge $-1 $510 $388 $521 $522 reversed $317 $-1 #
edge $-1 $523 $453 $447 $524 forward #
coedge $-1 $525 $526 $527 $528 reversed $389 $-1 #
coedge $-1 $461 $461 $-1 $529 forward $391 $-1 #
edge $-1 $530 $530 $392 $531 forward #
vertex $-1 $395 $532 #
ellipse-curve $-1 -42.040581504054096 -21.661680727474376 4.6394887813667758 0.6560590369687036 0 -0.75470957328743171 0.18867739332185793 0 0.1640147592421759 1 I I #
vertex $-1 $396 $533 #
point $-1 -41.195845073763529 -19.162258626020346 4.0487939673215134 #
coedge $-1 $534 $535 $471 $536 reversed $401 $-1 #
face $-1 $537 $538 $29 $-1 $539 reversed single #
loop $-1 $-1 $540 $402 #
plane-surface $-1 0 0 8.9111434177466489 0 0 1 1 0 0 forward_v I I I I #
coedge $-1 $527 $541 $467 $536 forward $403 $-1 #
edge $-1 $422 $412 $410 $542 forward #
straight-curve $-1 0 -23.327962128443726 -8.9111434177466489 -1 0 0 I I #
straight-curve $-1 0 23.327962128443726 -8.9111434177466489 1 0 0 I I #
point $-1 46.954557939390241 23.327962128443726 -8.9111434177466489 #
point $-1 46.954557939390241 -23.327962128443726 -8.9111434177466489 #
straight-curve $-1 46.954557939390241 -23.327962128443726 0 0 0 -1 I I #
point $-1 46.954557939390241 -23.327962128443726 8.9111434177466489 #
straight-curve $-1 46.954557939390241 0 8.9111434177466489 0 1 0 I I #
point $-1 46.954557939390241 23.327962128443726 8.9111434177466489 #
face $-1 $-1 $543 $25 $-1 $544 reversed single #
loop $-1 $-1 $545 $425 #
plane-surface $-1 0 23.327962128443726 0 0 -1 0 0 0 -1 forward_v I I I I #
coedge $-1 $488 $428 $490 $546 forward $360 $-1 #
coedge $-1 $428 $488 $502 $547 forward $360 $-1 #
coedge $-1 $548 $549 $428 $487 reversed $543 $-1 #
edge $-1 $550 $551 $486 $552 forward #
coedge $-1 $485 $484 $429 $489 forward $360 $-1 #
edge $-1 $491 $503 $429 $553 forward #
coedge $-1 $554 $430 $484 $546 reversed $426 $-1 #
vertex $-1 $489 $555 #
straight-curve $-1 -46.954557939390241 -23.327962128443726 0 0 0 -1 I I #
point $-1 -46.954557939390241 -23.327962128443726 0.36783414498690092 #
coedge $-1 $434 $554 $438 $499 reversed $426 $-1 #
vertex $-1 $499 $556 #
straight-curve $-1 -33.67327944451614 -23.327962128443726 11.913073648318052 -0.75470957328743171 0 -0.6560590369687036 I I #
straight-curve $-1 -37.12660506871795 -9.5811293130101731 8.9111434177466506 0 -1 0 I I #
coedge $-1 $439 $438 $557 $558 forward $294 $-1 #
edge $-1 $495 $559 $494 $560 forward #
coedge $-1 $545 $440 $439 $501 reversed $482 $-1 #
edge $-1 $561 $442 $500 $562 forward #
coedge $-1 $440 $545 $485 $547 reversed $482 $-1 #
vertex $-1 $547 $563 #
straight-curve $-1 -46.954557939390241 23.327962128443726 0 0 0 -1 I I #
point $-1 -46.954557939390241 23.327962128443726 8.9111434177466489 #
face $-1 $564 $565 $27 $-1 $566 reversed single #
loop $-1 $-1 $567 $444 #
plane-surface $-1 0 0 -8.9111434177466489 0 0 1 1 0 0 forward_v I I I I #
coedge $-1 $447 $568 $569 $570 reversed $377 $-1 #
coedge $-1 $448 $458 $513 $571 reversed $317 $-1 #
vertex $-1 $571 $572 #
straight-curve $-1 -46.954557939390241 -14.996555123596966 0.36783414498690092 0.75470957328743171 0 0.6560590369687036 I I #
coedge $-1 $573 $450 $510 $571 forward $445 $-1 #
coedge $-1 $450 $574 $452 $517 forward $445 $-1 #
straight-curve $-1 -54.282241032702679 -14.996555123596966 8.9111434177466506 1 0 0 I I #
coedge $-1 $568 $452 $575 $576 forward $377 $-1 #
edge $-1 $577 $454 $452 $578 forward #
point $-1 -46.954557939390241 -14.996555123596966 0.36783414498690092 #
point $-1 -46.954557939390241 -14.996555123596966 8.9111434177466489 #
point $-1 -41.220507707843211 -21.661680727474376 3.6961018147574793 #
coedge $-1 $569 $579 $458 $522 forward $565 $-1 #
edge $-1 $580 $523 $521 $581 forward #
vertex $-1 $570 $582 #
straight-curve $-1 -46.954557939390241 -9.5811293130101731 0.36783414498690181 0 1 0 I I #
coedge $-1 $526 $460 $535 $583 forward $389 $-1 #
coedge $-1 $460 $525 $540 $584 reversed $389 $-1 #
coedge $-1 $585 $471 $460 $528 forward $403 $-1 #
edge $-1 $586 $587 $527 $588 forward #
edge $-1 $589 $589 $461 $-1 forward #
vertex $-1 $462 $590 #
ellipse-curve $-1 -41.38452246708539 -21.661680727474376 3.8847792080793373 -0.6560590369687036 0 0.75470957328743171 0.18867739332185793 0 0.1640147592421759 1 I I #
point $-1 -41.851904110732235 -21.661680727474376 4.8035035406089452 #
point $-1 -41.220507707843211 -19.162258626020346 3.6961018147574793 #
coedge $-1 $591 $467 $592 $593 reversed $401 $-1 #
coedge $-1 $467 $591 $525 $583 reversed $401 $-1 #
edge $-1 $594 $586 $471 $595 forward #
face $-1 $596 $597 $29 $-1 $598 reversed single #
loop $-1 $-1 $599 $468 #
plane-surface $-1 0 0 -8.9111434177466489 0 0 1 1 0 0 forward_v I I I I #
coedge $-1 $600 $601 $526 $584 forward $469 $-1 #
coedge $-1 $471 $602 $603 $604 reversed $403 $-1 #
straight-curve $-1 46.954557939390241 23.327962128443726 0 0 0 -1 I I #
loop $-1 $-1 $549 $481 #
plane-surface $-1 46.954557939390241 0 0 -1 0 0 0 0 1 forward_v I I I I #
coedge $-1 $502 $500 $548 $605 forward $482 $-1 #
edge $-1 $551 $491 $490 $606 forward #
edge $-1 $503 $550 $502 $607 forward #
coedge $-1 $557 $486 $545 $605 reversed $543 $-1 #
coedge $-1 $486 $557 $554 $608 forward $543 $-1 #
vertex $-1 $487 $609 #
vertex $-1 $608 $610 #
straight-curve $-1 46.954557939390241 0 -8.9111434177466489 0 -1 0 I I #
straight-curve $-1 -46.954557939390241 0 -8.9111434177466489 0 1 0 I I #
coedge $-1 $494 $490 $549 $608 reversed $426 $-1 #
point $-1 -46.954557939390241 -23.327962128443726 -8.9111434177466489 #
point $-1 -37.12660506871795 -23.327962128443726 8.9111434177466489 #
coedge $-1 $549 $548 $498 $558 reversed $543 $-1 #
edge $-1 $559 $561 $557 $611 forward #
vertex $-1 $558 $612 #
straight-curve $-1 0 -23.327962128443726 8.9111434177466489 1 0 0 I I #
vertex $-1 $558 $613 #
straight-curve $-1 0 23.327962128443726 8.9111434177466489 -1 0 0 I I #
point $-1 -46.954557939390241 23.327962128443726 -8.9111434177466489 #
face $-1 $614 $615 $27 $-1 $616 reversed single #
loop $-1 $-1 $521 $506 #
plane-surface $-1 0 -23.327962128443726 0 0 1 0 0 0 1 forward_v I I I I #
coedge $-1 $617 $618 $619 $620 forward $507 $-1 #
coedge $-1 $509 $516 $621 $622 reversed $377 $-1 #
coedge $-1 $623 $521 $509 $570 forward $565 $-1 #
edge $-1 $523 $624 $509 $625 forward #
edge $-1 $511 $580 $513 $626 forward #
point $-1 -37.12660506871795 -14.996555123596966 8.9111434177466489 #
coedge $-1 $627 $513 $579 $628 forward $445 $-1 #
coedge $-1 $514 $627 $629 $630 forward $445 $-1 #
coedge $-1 $629 $631 $516 $576 reversed $615 $-1 #
edge $-1 $577 $632 $575 $633 forward #
vertex $-1 $630 $634 #
straight-curve $-1 -46.954557939390241 0 8.9111434177466489 0 -1 0 I I #
coedge $-1 $521 $635 $573 $628 reversed $565 $-1 #
vertex $-1 $628 $636 #
straight-curve $-1 -33.67327944451614 -23.327962128443726 11.913073648318052 -0.75470957328743171 0 -0.6560590369687036 I I #
point $-1 -46.954557939390241 -23.327962128443726 0.36783414498690092 #
edge $-1 $586 $637 $525 $638 forward #
edge $-1 $587 $637 $540 $639 forward #
coedge $-1 $640 $527 $601 $641 reversed $403 $-1 #
vertex $-1 $536 $642 #
vertex $-1 $584 $643 #
straight-curve $-1 -46.954557939390241 -14.996555123596966 35.620971458830645 0 0 1 I I #
vertex $-1 $529 $644 #
point $-1 -41.195845073763529 -21.661680727474376 4.0487939673215134 #
coedge $-1 $535 $534 $600 $645 reversed $401 $-1 #
coedge $-1 $603 $646 $534 $593 forward $597 $-1 #
edge $-1 $647 $594 $592 $648 forward #
vertex $-1 $604 $649 #
straight-curve $-1 -46.954557939390241 -9.5811293130101731 0.36783414498690181 0 1 0 I I #
face $-1 $650 $651 $29 $-1 $652 reversed single #
loop $-1 $-1 $592 $537 #
plane-surface $-1 0 -23.327962128443726 0 0 1 0 0 0 1 forward_v I I I I #
coedge $-1 $653 $654 $655 $656 forward $538 $-1 #
coedge $-1 $657 $540 $591 $645 forward $469 $-1 #
coedge $-1 $540 $658 $585 $641 forward $469 $-1 #
coedge $-1 $541 $640 $659 $660 reversed $403 $-1 #
coedge $-1 $661 $592 $541 $604 forward $597 $-1 #
edge $-1 $594 $662 $541 $663 forward #
edge $-1 $561 $550 $548 $664 forward #
straight-curve $-1 0 -23.327962128443726 -8.9111434177466489 -1 0 0 I I #
straight-curve $-1 0 23.327962128443726 -8.9111434177466489 1 0 0 I I #
edge $-1 $559 $551 $549 $665 forward #
point $-1 46.954557939390241 23.327962128443726 -8.9111434177466489 #
point $-1 46.954557939390241 -23.327962128443726 -8.9111434177466489 #
straight-curve $-1 46.954557939390241 0 8.9111434177466489 0 1 0 I I #
point $-1 46.954557939390241 -23.327962128443726 8.9111434177466489 #
point $-1 46.954557939390241 23.327962128443726 8.9111434177466489 #
face $-1 $-1 $666 $27 $-1 $667 reversed single #
loop $-1 $-1 $668 $564 #
plane-surface $-1 0 23.327962128443726 0 0 -1 0 0 0 -1 forward_v I I I I #
coedge $-1 $621 $567 $623 $669 forward $507 $-1 #
coedge $-1 $567 $621 $631 $670 forward $507 $-1 #
coedge $-1 $671 $672 $567 $620 reversed $666 $-1 #
edge $-1 $673 $674 $619 $675 forward #
coedge $-1 $618 $617 $568 $622 forward $507 $-1 #
edge $-1 $624 $632 $568 $676 forward #
coedge $-1 $635 $569 $617 $669 reversed $565 $-1 #
vertex $-1 $622 $677 #
straight-curve $-1 -46.954557939390241 -23.327962128443726 0 0 0 -1 I I #
straight-curve $-1 -37.12660506871795 -9.5811293130101731 8.9111434177466506 0 -1 0 I I #
coedge $-1 $574 $573 $678 $679 forward $445 $-1 #
edge $-1 $580 $680 $579 $681 forward #
coedge $-1 $668 $575 $574 $630 reversed $615 $-1 #
edge $-1 $682 $577 $629 $683 forward #
coedge $-1 $575 $668 $618 $670 reversed $615 $-1 #
vertex $-1 $670 $684 #
straight-curve $-1 -46.954557939390241 23.327962128443726 0 0 0 -1 I I #
point $-1 -46.954557939390241 23.327962128443726 8.9111434177466489 #
coedge $-1 $579 $623 $672 $685 reversed $565 $-1 #
point $-1 -37.12660506871795 -23.327962128443726 8.9111434177466489 #
vertex $-1 $645 $686 #
straight-curve $-1 -46.954557939390241 -14.996555123596966 0.36783414498690092 0.75470957328743171 0 0.6560590369687036 I I #
straight-curve $-1 -54.282241032702679 -14.996555123596966 8.9111434177466506 1 0 0 I I #
coedge $-1 $602 $585 $687 $688 forward $403 $-1 #
edge $-1 $689 $587 $585 $690 forward #
point $-1 -46.954557939390241 -14.996555123596966 0.36783414498690092 #
point $-1 -46.954557939390241 -14.996555123596966 8.9111434177466489 #
point $-1 -41.220507707843211 -21.661680727474376 3.6961018147574793 #
edge $-1 $637 $647 $600 $691 forward #
coedge $-1 $592 $692 $657 $693 reversed $597 $-1 #
vertex $-1 $693 $694 #
straight-curve $-1 -33.67327944451614 -23.327962128443726 11.913073648318052 -0.75470957328743171 0 -0.6560590369687036 I I #
point $-1 -46.954557939390241 -23.327962128443726 0.36783414498690092 #
face $-1 $-1 $695 $29 $-1 $696 reversed single #
loop $-1 $-1 $697 $596 #
plane-surface $-1 0 23.327962128443726 0 0 -1 0 0 0 -1 forward_v I I I I #
coedge $-1 $659 $599 $661 $698 forward $538 $-1 #
coedge $-1 $599 $659 $699 $700 forward $538 $-1 #
coedge $-1 $701 $702 $599 $656 reversed $695 $-1 #
edge $-1 $703 $704 $655 $705 forward #
coedge $-1 $706 $600 $646 $693 forward $469 $-1 #
coedge $-1 $601 $706 $707 $708 forward $469 $-1 #
coedge $-1 $654 $653 $602 $660 forward $538 $-1 #
edge $-1 $662 $709 $602 $710 forward #
coedge $-1 $692 $603 $653 $698 reversed $597 $-1 #
vertex $-1 $660 $711 #
straight-curve $-1 -46.954557939390241 -23.327962128443726 0 0 0 -1 I I #
straight-curve $-1 46.954557939390241 23.327962128443726 0 0 0 -1 I I #
straight-curve $-1 46.954557939390241 -23.327962128443726 0 0 0 -1 I I #
loop $-1 $-1 $672 $614 #
plane-surface $-1 46.954557939390241 0 0 -1 0 0 0 0 1 forward_v I I I I #
coedge $-1 $631 $629 $671 $712 forward $615 $-1 #
edge $-1 $674 $624 $623 $713 forward #
edge $-1 $632 $673 $631 $714 forward #
coedge $-1 $678 $619 $668 $712 reversed $666 $-1 #
coedge $-1 $619 $678 $635 $685 forward $666 $-1 #
vertex $-1 $620 $715 #
vertex $-1 $685 $716 #
straight-curve $-1 46.954557939390241 0 -8.9111434177466489 0 -1 0 I I #
straight-curve $-1 -46.954557939390241 0 -8.9111434177466489 0 1 0 I I #
point $-1 -46.954557939390241 -23.327962128443726 -8.9111434177466489 #
coedge $-1 $672 $671 $627 $679 reversed $666 $-1 #
edge $-1 $680 $682 $678 $717 forward #
vertex $-1 $679 $718 #
straight-curve $-1 0 -23.327962128443726 8.9111434177466489 1 0 0 I I #
vertex $-1 $679 $719 #
straight-curve $-1 0 23.327962128443726 8.9111434177466489 -1 0 0 I I #
point $-1 -46.954557939390241 23.327962128443726 -8.9111434177466489 #
edge $-1 $680 $674 $672 $720 forward #
point $-1 -37.12660506871795 -14.996555123596966 8.9111434177466489 #
coedge $-1 $707 $699 $640 $688 reversed $651 $-1 #
edge $-1 $689 $709 $687 $721 forward #
vertex $-1 $708 $722 #
straight-curve $-1 -46.954557939390241 0 8.9111434177466489 0 -1 0 I I #
straight-curve $-1 -37.12660506871795 -9.5811293130101731 8.9111434177466506 0 -1 0 I I #
coedge $-1 $646 $661 $702 $723 reversed $597 $-1 #
edge $-1 $647 $724 $646 $725 forward #
point $-1 -37.12660506871795 -23.327962128443726 8.9111434177466489 #
loop $-1 $-1 $702 $650 #
plane-surface $-1 46.954557939390241 0 0 -1 0 0 0 0 1 forward_v I I I I #
coedge $-1 $699 $707 $701 $726 forward $651 $-1 #
edge $-1 $704 $662 $661 $727 forward #
coedge $-1 $687 $697 $654 $700 reversed $651 $-1 #
edge $-1 $709 $703 $699 $728 forward #
coedge $-1 $729 $655 $697 $726 reversed $695 $-1 #
coedge $-1 $655 $729 $692 $723 forward $695 $-1 #
vertex $-1 $656 $730 #
vertex $-1 $723 $731 #
straight-curve $-1 46.954557939390241 0 -8.9111434177466489 0 -1 0 I I #
coedge $-1 $658 $657 $729 $732 forward $469 $-1 #
coedge $-1 $697 $687 $658 $708 reversed $651 $-1 #
edge $-1 $733 $689 $707 $734 forward #
vertex $-1 $700 $735 #
straight-curve $-1 -46.954557939390241 0 -8.9111434177466489 0 1 0 I I #
point $-1 -46.954557939390241 -23.327962128443726 -8.9111434177466489 #
edge $-1 $682 $673 $671 $736 forward #
straight-curve $-1 0 -23.327962128443726 -8.9111434177466489 -1 0 0 I I #
straight-curve $-1 0 23.327962128443726 -8.9111434177466489 1 0 0 I I #
point $-1 46.954557939390241 23.327962128443726 -8.9111434177466489 #
point $-1 46.954557939390241 -23.327962128443726 -8.9111434177466489 #
straight-curve $-1 46.954557939390241 0 8.9111434177466489 0 1 0 I I #
point $-1 46.954557939390241 -23.327962128443726 8.9111434177466489 #
point $-1 46.954557939390241 23.327962128443726 8.9111434177466489 #
straight-curve $-1 46.954557939390241 -23.327962128443726 0 0 0 -1 I I #
straight-curve $-1 -46.954557939390241 23.327962128443726 0 0 0 -1 I I #
point $-1 -46.954557939390241 23.327962128443726 8.9111434177466489 #
edge $-1 $724 $704 $702 $737 forward #
vertex $-1 $732 $738 #
straight-curve $-1 0 -23.327962128443726 8.9111434177466489 1 0 0 I I #
edge $-1 $733 $703 $701 $739 forward #
straight-curve $-1 0 -23.327962128443726 -8.9111434177466489 -1 0 0 I I #
straight-curve $-1 0 23.327962128443726 -8.9111434177466489 1 0 0 I I #
coedge $-1 $702 $701 $706 $732 reversed $695 $-1 #
point $-1 46.954557939390241 23.327962128443726 -8.9111434177466489 #
point $-1 46.954557939390241 -23.327962128443726 -8.9111434177466489 #
edge $-1 $724 $733 $729 $740 forward #
vertex $-1 $732 $741 #
straight-curve $-1 0 23.327962128443726 8.9111434177466489 -1 0 0 I I #
point $-1 -46.954557939390241 23.327962128443726 -8.9111434177466489 #
straight-curve $-1 46.954557939390241 23.327962128443726 0 0 0 -1 I I #
straight-curve $-1 46.954557939390241 -23.327962128443726 0 0 0 -1 I I #
point $-1 46.954557939390241 -23.327962128443726 8.9111434177466489 #
straight-curve $-1 46.954557939390241 23.327962128443726 0 0 0 -1 I I #
straight-curve $-1 46.954557939390241 0 8.9111434177466489 0 1 0 I I #
point $-1 46.954557939390241 23.327962128443726 8.9111434177466489 #
End-of-ACIS-data 