300 0 6 0           
7 Unknown 11 ACIS 3.0 NT 24 Fri Oct 30 17:58:55 1998 
-1 9.9999999999999995e-007 1e-010 
body $6 $7 $-1 $8 #
body $9 $10 $-1 $11 #
body $12 $13 $-1 $14 #
body $15 $16 $-1 $17 #
body $18 $19 $-1 $20 #
body $21 $22 $-1 $23 #
display_attribute-st-attrib $-1 $24 $-1 $0 1 #
lump $-1 $-1 $25 $0 #
transform $-1 1 0 0 0 1 0 0 0 1 73.154087954344305 50.467100241607362 11.870480513385916 1 rotate no_reflect no_shear #
display_attribute-st-attrib $-1 $26 $-1 $1 3 #
lump $-1 $-1 $27 $1 #
transform $-1 1 0 0 0 1 0 0 0 1 73.154087954344305 50.467100241607362 11.870480513385916 1 rotate no_reflect no_shear #
display_attribute-st-attrib $-1 $28 $-1 $2 3 #
lump $-1 $-1 $29 $2 #
transform $-1 1 0 0 0 1 0 0 0 1 73.154087954344305 50.467100241607362 11.870480513385916 1 rotate no_reflect no_shear #
display_attribute-st-attrib $-1 $30 $-1 $3 3 #
lump $-1 $-1 $31 $3 #
transform $-1 1 0 0 0 1 0 0 0 1 73.154087954344305 50.467100241607362 11.870480513385916 1 rotate no_reflect no_shear #
display_attribute-st-attrib $-1 $32 $-1 $4 3 #
lump $-1 $-1 $33 $4 #
transform $-1 1 0 0 0 1 0 0 0 1 73.154087954344305 50.467100241607362 11.870480513385916 1 rotate no_reflect no_shear #
display_attribute-st-attrib $-1 $34 $-1 $5 3 #
lump $-1 $-1 $35 $5 #
transform $-1 1 0 0 0 1 0 0 0 1 73.154087954344305 50.467100241607362 11.870480513385916 1 rotate no_reflect no_shear #
id_attribute-st-attrib $-1 $-1 $6 $0 1517 #
shell $-1 $-1 $-1 $36 $-1 $7 #
id_attribute-st-attrib $-1 $-1 $9 $1 1522 #
shell $-1 $-1 $-1 $37 $-1 $10 #
id_attribute-st-attrib $-1 $-1 $12 $2 1533 #
shell $-1 $-1 $-1 $38 $-1 $13 #
id_attribute-st-attrib $-1 $-1 $15 $3 1540 #
shell $-1 $-1 $-1 $39 $-1 $16 #
id_attribute-st-attrib $-1 $-1 $18 $4 1551 #
shell $-1 $-1 $-1 $40 $-1 $19 #
id_attribute-st-attrib $-1 $-1 $21 $5 1560 #
shell $-1 $-1 $-1 $41 $-1 $22 #
face $-1 $42 $43 $25 $-1 $44 forward single #
face $-1 $45 $46 $27 $-1 $47 forward single #
face $-1 $48 $49 $29 $-1 $50 reversed single #
face $-1 $51 $52 $31 $-1 $53 forward single #
face $-1 $54 $55 $33 $-1 $56 reversed single #
face $-1 $57 $58 $35 $-1 $59 forward single #
face $-1 $60 $61 $25 $-1 $62 reversed single #
loop $-1 $-1 $63 $36 #
plane-surface $-1 0 0 11.870480513385916 0 0 1 1 0 0 forward_v I I I I #
face $-1 $64 $65 $27 $-1 $66 reversed single #
loop $-1 $-1 $67 $37 #
plane-surface $-1 0 -50.467100241607362 0 0 1 0 0 0 1 forward_v I I I I #
face $-1 $68 $69 $29 $-1 $70 reversed single #
loop $-1 $-1 $71 $38 #
plane-surface $-1 -178.39938320583343 32.505114057078281 110.2282794923739 0 1 0 -0.71933980857756763 0 0.69465836192734942 forward_v I I I I #
face $-1 $72 $73 $31 $-1 $74 forward single #
loop $-1 $75 $76 $39 #
cone-surface $-1 -70.859738506115832 41.486107149342821 9.5443643145192514 0.71933980857756763 0 -0.69465836192734942 0.34732918096367471 0 0.35966990428878381 1 I I 0 1 forward I I I I #
face $-1 $77 $78 $33 $-1 $79 reversed single #
loop $-1 $-1 $80 $40 #
plane-surface $-1 76.765185392525325 32.505114057078281 215.47357474386303 0 1 0 0.71933980857756763 0 0.69465836192734942 forward_v I I I I #
face $-1 $81 $82 $35 $-1 $83 forward single #
loop $-1 $84 $85 $41 #
cone-surface $-1 70.859738506115846 41.486107149342821 9.5443643145192514 -0.71933980857756763 0 -0.69465836192734942 0.34732918096367471 0 -0.35966990428878381 1 I I 0 1 forward I I I I #
face $-1 $86 $87 $25 $-1 $88 reversed single #
loop $-1 $-1 $89 $42 #
plane-surface $-1 0 0 -11.870480513385916 0 0 1 1 0 0 forward_v I I I I #
coedge $-1 $90 $91 $92 $93 forward $43 $-1 #
face $-1 $94 $95 $27 $-1 $96 reversed single #
loop $-1 $-1 $97 $45 #
plane-surface $-1 0 0 -11.870480513385916 0 0 1 1 0 0 forward_v I I I I #
coedge $-1 $98 $99 $100 $101 forward $46 $-1 #
face $-1 $102 $103 $29 $-1 $104 reversed single #
loop $-1 $-1 $105 $48 #
plane-surface $-1 -73.154087954344277 41.486107149342821 8.5940816790657806 -0.71933980857756763 0 0.69465836192734942 0.69465836192734942 0 0.71933980857756763 forward_v I I I I #
coedge $-1 $106 $107 $108 $109 reversed $49 $-1 #
face $-1 $-1 $110 $31 $-1 $111 forward single #
loop $-1 $112 $113 $51 #
cone-surface $-1 -69.967544856240991 41.486107149342821 8.6827829423308014 0.71933980857756763 0 -0.69465836192734942 0.17366459048183736 0 0.17983495214439191 1 I I -0.70710678118654746 0.70710678118654746 forward I I I I #
loop $-1 $-1 $114 $39 #
coedge $-1 $76 $76 $115 $116 reversed $52 $-1 #
face $-1 $117 $118 $33 $-1 $119 forward single #
loop $-1 $-1 $120 $54 #
plane-surface $-1 -28.480109858963829 41.486107149342821 113.83937693055491 0.71933980857756763 0 0.69465836192734942 0.69465836192734942 0 -0.71933980857756763 forward_v I I I I #
coedge $-1 $121 $122 $123 $124 reversed $55 $-1 #
face $-1 $-1 $125 $35 $-1 $126 forward single #
loop $-1 $127 $128 $57 #
cone-surface $-1 69.967544856241005 41.486107149342821 8.6827829423308014 -0.71933980857756763 0 -0.69465836192734942 0.17366459048183736 0 -0.17983495214439191 1 I I -0.70710678118654746 0.70710678118654746 forward I I I I #
loop $-1 $-1 $129 $41 #
coedge $-1 $85 $85 $130 $131 reversed $58 $-1 #
face $-1 $132 $133 $25 $-1 $134 reversed single #
loop $-1 $-1 $135 $60 #
plane-surface $-1 0 -50.467100241607362 0 0 1 0 0 0 1 forward_v I I I I #
coedge $-1 $136 $137 $138 $139 forward $61 $-1 #
coedge $-1 $140 $63 $141 $142 forward $43 $-1 #
coedge $-1 $63 $140 $143 $144 forward $43 $-1 #
coedge $-1 $145 $146 $63 $93 reversed $147 $-1 #
edge $-1 $148 $149 $92 $150 forward #
face $-1 $151 $152 $27 $-1 $153 forward single #
loop $-1 $-1 $154 $64 #
plane-surface $-1 73.154087954344305 0 0 -1 0 0 0 0 1 forward_v I I I I #
coedge $-1 $155 $156 $157 $158 forward $65 $-1 #
coedge $-1 $157 $67 $154 $159 reversed $46 $-1 #
coedge $-1 $67 $157 $160 $161 reversed $46 $-1 #
coedge $-1 $162 $163 $67 $101 reversed $152 $-1 #
edge $-1 $164 $165 $100 $166 forward #
face $-1 $167 $168 $29 $-1 $169 reversed single #
loop $-1 $-1 $170 $68 #
plane-surface $-1 0 50.467100241607362 0 0 -1 0 0 0 -1 forward_v I I I I #
coedge $-1 $171 $172 $173 $174 reversed $69 $-1 #
coedge $-1 $107 $71 $175 $176 reversed $49 $-1 #
coedge $-1 $71 $106 $171 $177 reversed $49 $-1 #
coedge $-1 $173 $178 $71 $109 forward $179 $-1 #
edge $-1 $180 $181 $108 $182 forward #
loop $-1 $-1 $115 $72 #
plane-surface $-1 -73.154087954344277 41.486107149342821 8.5940816790657806 -0.71933980857756763 0 0.69465836192734942 0.69465836192734942 0 0.71933980857756763 forward_v I I I I #
loop $-1 $-1 $183 $51 #
coedge $-1 $113 $113 $114 $184 reversed $73 $-1 #
coedge $-1 $114 $114 $113 $184 forward $75 $-1 #
coedge $-1 $115 $115 $76 $116 forward $110 $-1 #
edge $-1 $185 $185 $115 $186 forward #
face $-1 $187 $188 $33 $-1 $189 reversed single #
loop $-1 $-1 $190 $77 #
plane-surface $-1 0 0 11.870480513385916 0 0 1 1 0 0 forward_v I I I I #
coedge $-1 $191 $192 $193 $194 reversed $78 $-1 #
coedge $-1 $122 $80 $195 $196 reversed $55 $-1 #
coedge $-1 $80 $121 $191 $197 reversed $55 $-1 #
coedge $-1 $193 $198 $80 $124 forward $199 $-1 #
edge $-1 $200 $201 $123 $202 forward #
loop $-1 $-1 $130 $81 #
plane-surface $-1 -28.480109858963829 41.486107149342821 113.83937693055491 0.71933980857756763 0 0.69465836192734942 0.69465836192734942 0 -0.71933980857756763 forward_v I I I I #
loop $-1 $-1 $203 $57 #
coedge $-1 $128 $128 $129 $204 reversed $82 $-1 #
coedge $-1 $129 $129 $128 $204 forward $84 $-1 #
coedge $-1 $130 $130 $85 $131 forward $125 $-1 #
edge $-1 $205 $205 $130 $206 forward #
face $-1 $207 $208 $25 $-1 $209 reversed single #
loop $-1 $-1 $210 $86 #
plane-surface $-1 -73.154087954344305 0 0 1 0 0 0 0 -1 forward_v I I I I #
coedge $-1 $211 $143 $212 $213 forward $87 $-1 #
coedge $-1 $214 $89 $211 $215 forward $61 $-1 #
coedge $-1 $89 $214 $216 $217 forward $61 $-1 #
coedge $-1 $146 $145 $89 $139 reversed $147 $-1 #
edge $-1 $218 $219 $138 $220 forward #
coedge $-1 $91 $90 $221 $222 forward $43 $-1 #
coedge $-1 $223 $224 $90 $142 reversed $208 $-1 #
edge $-1 $149 $225 $141 $226 forward #
coedge $-1 $135 $227 $91 $144 reversed $87 $-1 #
edge $-1 $228 $148 $143 $229 forward #
coedge $-1 $138 $92 $227 $230 forward $147 $-1 #
coedge $-1 $92 $138 $223 $231 reversed $147 $-1 #
loop $-1 $-1 $145 $207 #
vertex $-1 $93 $232 #
vertex $-1 $93 $233 #
straight-curve $-1 73.154087954344305 0 11.870480513385916 0 1 0 I I #
face $-1 $234 $235 $27 $-1 $236 reversed single #
loop $-1 $-1 $163 $94 #
plane-surface $-1 0 -55.992889163254411 -6.72893622387876 0 0 1 1 0 0 forward_v I I I I #
coedge $-1 $237 $238 $98 $159 forward $95 $-1 #
coedge $-1 $239 $97 $238 $240 forward $65 $-1 #
coedge $-1 $97 $239 $241 $242 forward $65 $-1 #
coedge $-1 $99 $98 $97 $158 reversed $46 $-1 #
edge $-1 $243 $244 $97 $245 forward #
edge $-1 $244 $165 $154 $246 forward #
coedge $-1 $241 $247 $99 $161 forward $248 $-1 #
edge $-1 $164 $243 $160 $249 forward #
coedge $-1 $250 $100 $247 $251 forward $152 $-1 #
coedge $-1 $100 $250 $237 $252 forward $152 $-1 #
vertex $-1 $161 $253 #
vertex $-1 $252 $254 #
straight-curve $-1 0 -50.467100241607362 -6.72893622387876 1 0 0 I I #
face $-1 $-1 $179 $29 $-1 $255 forward single #
loop $-1 $-1 $256 $102 #
plane-surface $-1 -73.154087954344305 0 0 1 0 0 0 0 -1 forward_v I I I I #
coedge $-1 $257 $258 $172 $259 forward $103 $-1 #
coedge $-1 $260 $105 $107 $177 forward $69 $-1 #
coedge $-1 $105 $260 $170 $259 reversed $69 $-1 #
coedge $-1 $261 $108 $105 $174 forward $179 $-1 #
edge $-1 $181 $262 $173 $263 forward #
coedge $-1 $264 $256 $106 $176 forward $168 $-1 #
edge $-1 $265 $180 $175 $266 forward #
edge $-1 $181 $265 $107 $267 forward #
coedge $-1 $108 $261 $264 $268 forward $179 $-1 #
loop $-1 $-1 $173 $167 #
vertex $-1 $176 $269 #
vertex $-1 $109 $270 #
straight-curve $-1 -89.199691602916715 32.505114057078281 11.870480513385914 1 0 0 I I #
coedge $-1 $183 $183 $-1 $271 reversed $112 $-1 #
edge $-1 $272 $272 $113 $273 forward #
vertex $-1 $116 $274 #
ellipse-curve $-1 -71.572097203846241 41.486107149342821 10.232281096225829 -0.71933980857756763 0 0.69465836192734942 0.34732918096367471 0 0.35966990428878381 1 I I #
face $-1 $-1 $199 $33 $-1 $275 reversed single #
loop $-1 $-1 $276 $117 #
plane-surface $-1 0 50.467100241607362 0 0 -1 0 0 0 -1 forward_v I I I I #
coedge $-1 $195 $277 $278 $279 forward $118 $-1 #
coedge $-1 $278 $120 $122 $197 forward $78 $-1 #
coedge $-1 $120 $278 $276 $280 reversed $78 $-1 #
coedge $-1 $281 $123 $120 $194 forward $199 $-1 #
edge $-1 $201 $282 $193 $283 forward #
coedge $-1 $284 $190 $121 $196 forward $118 $-1 #
edge $-1 $285 $200 $195 $286 forward #
edge $-1 $201 $285 $122 $287 forward #
coedge $-1 $123 $281 $284 $288 reversed $199 $-1 #
loop $-1 $-1 $193 $187 #
vertex $-1 $288 $289 #
vertex $-1 $124 $290 #
straight-curve $-1 73.154087954344305 32.505114057078281 107.73678737193151 0 0 -1 I I #
coedge $-1 $203 $203 $-1 $291 reversed $127 $-1 #
edge $-1 $292 $292 $128 $293 forward #
vertex $-1 $131 $294 #
ellipse-curve $-1 71.572097203846241 41.486107149342821 10.232281096225815 0.71933980857756763 0 0.69465836192734942 0.34732918096367471 0 -0.35966990428878381 1 I I #
face $-1 $-1 $147 $25 $-1 $295 reversed single #
loop $-1 $-1 $223 $132 #
plane-surface $-1 0 50.467100241607362 0 0 -1 0 0 0 -1 forward_v I I I I #
coedge $-1 $296 $221 $224 $297 forward $133 $-1 #
coedge $-1 $227 $135 $136 $215 reversed $87 $-1 #
coedge $-1 $221 $296 $135 $213 reversed $133 $-1 #
edge $-1 $228 $298 $212 $299 forward #
coedge $-1 $137 $136 $296 $300 forward $61 $-1 #
edge $-1 $219 $298 $211 $301 forward #
coedge $-1 $224 $223 $137 $217 reversed $208 $-1 #
edge $-1 $302 $218 $216 $303 forward #
vertex $-1 $139 $304 #
vertex $-1 $230 $305 #
straight-curve $-1 73.154087954344305 0 -11.870480513385916 0 -1 0 I I #
coedge $-1 $210 $212 $140 $222 reversed $133 $-1 #
edge $-1 $225 $228 $221 $306 forward #
coedge $-1 $216 $141 $146 $231 forward $208 $-1 #
coedge $-1 $141 $216 $210 $297 reversed $208 $-1 #
vertex $-1 $142 $307 #
straight-curve $-1 0 50.467100241607362 11.870480513385916 -1 0 0 I I #
coedge $-1 $143 $211 $145 $230 reversed $87 $-1 #
vertex $-1 $222 $308 #
straight-curve $-1 0 -50.467100241607362 11.870480513385916 1 0 0 I I #
edge $-1 $148 $219 $145 $309 forward #
edge $-1 $149 $218 $146 $310 forward #
point $-1 73.154087954344305 -50.467100241607362 11.870480513385916 #
point $-1 73.154087954344305 50.467100241607362 11.870480513385916 #
face $-1 $-1 $248 $27 $-1 $311 reversed single #
loop $-1 $-1 $312 $151 #
plane-surface $-1 0 -61.51867808490146 -9.2997083686323379 0 1 0 0 0 1 forward_v I I I I #
coedge $-1 $313 $154 $163 $252 reversed $95 $-1 #
coedge $-1 $154 $313 $155 $240 reversed $95 $-1 #
coedge $-1 $156 $155 $314 $315 forward $65 $-1 #
edge $-1 $244 $316 $238 $317 forward #
coedge $-1 $318 $160 $156 $242 reversed $248 $-1 #
edge $-1 $319 $243 $241 $320 forward #
vertex $-1 $161 $321 #
vertex $-1 $240 $322 #
straight-curve $-1 0 -50.467100241607362 -11.870480513385916 1 0 0 I I #
straight-curve $-1 73.154087954344305 -50.467100241607362 0 0 0 1 I I #
coedge $-1 $160 $318 $162 $251 reversed $248 $-1 #
loop $-1 $-1 $160 $234 #
straight-curve $-1 -73.154087954344305 -50.467100241607362 0 0 0 -1 I I #
coedge $-1 $163 $162 $323 $324 forward $152 $-1 #
edge $-1 $164 $325 $247 $326 forward #
edge $-1 $327 $165 $237 $328 forward #
point $-1 -73.154087954344305 -50.467100241607362 -6.72893622387876 #
point $-1 73.154087954344305 -50.467100241607362 -6.72893622387876 #
plane-surface $-1 0 0 11.870480513385916 0 0 1 1 0 0 forward_v I I I I #
coedge $-1 $175 $329 $260 $330 forward $168 $-1 #
coedge $-1 $258 $170 $329 $331 reversed $103 $-1 #
coedge $-1 $170 $257 $261 $332 reversed $103 $-1 #
edge $-1 $262 $333 $170 $334 forward #
coedge $-1 $172 $171 $256 $330 reversed $69 $-1 #
coedge $-1 $178 $173 $258 $332 forward $179 $-1 #
vertex $-1 $332 $335 #
straight-curve $-1 -69.990106453348176 20.743053574671411 11.870480513385916 0 1 0 I I #
coedge $-1 $329 $175 $178 $268 reversed $168 $-1 #
vertex $-1 $176 $336 #
straight-curve $-1 -73.154087954344305 32.505114057078281 55.11413974618695 0 0 1 I I #
straight-curve $-1 -73.154087954344277 32.505114057078281 8.5940816790657806 -0.69465836192734942 0 -0.71933980857756763 I I #
edge $-1 $337 $180 $264 $338 forward #
point $-1 -73.154087954344305 32.505114057078281 11.870480513385916 #
point $-1 -69.990106453348176 32.505114057078281 11.870480513385916 #
edge $-1 $339 $339 $183 $-1 forward #
vertex $-1 $184 $340 #
ellipse-curve $-1 -70.147379808385381 41.486107149342821 8.8564475328126395 -0.71933980857756763 0 0.69465836192734942 0.34732918096367471 0 0.35966990428878381 1 I I #
point $-1 -71.2247680228826 41.486107149342821 10.591951000514648 #
plane-surface $-1 73.154087954344305 0 0 -1 0 0 0 0 1 forward_v I I I I #
coedge $-1 $341 $342 $192 $280 forward $188 $-1 #
coedge $-1 $190 $284 $341 $343 forward $118 $-1 #
coedge $-1 $192 $191 $190 $279 reversed $78 $-1 #
edge $-1 $344 $285 $190 $345 forward #
edge $-1 $282 $344 $276 $346 forward #
coedge $-1 $198 $193 $342 $347 reversed $199 $-1 #
vertex $-1 $194 $348 #
straight-curve $-1 73.154087954344305 20.743053574671411 8.5940816790657308 0 1 0 I I #
coedge $-1 $277 $195 $198 $288 forward $118 $-1 #
vertex $-1 $196 $349 #
straight-curve $-1 38.382592696262662 32.505114057078281 11.870480513385914 1 0 0 I I #
straight-curve $-1 -28.480109858963829 32.505114057078281 113.83937693055491 -0.69465836192734942 0 0.71933980857756763 I I #
edge $-1 $200 $350 $198 $351 forward #
point $-1 73.154087954344305 32.505114057078281 11.870480513385916 #
point $-1 73.154087954344305 32.505114057078281 8.5940816790657237 #
edge $-1 $352 $352 $203 $-1 forward #
vertex $-1 $204 $353 #
ellipse-curve $-1 70.147379808385395 41.486107149342821 8.8564475328126395 0.71933980857756763 0 0.69465836192734942 0.34732918096367471 0 -0.35966990428878381 1 I I #
point $-1 71.919426384809967 41.486107149342821 9.8726111919370787 #
plane-surface $-1 73.154087954344305 0 0 -1 0 0 0 0 1 forward_v I I I I #
coedge $-1 $212 $210 $214 $300 reversed $133 $-1 #
edge $-1 $225 $302 $224 $354 forward #
vertex $-1 $300 $355 #
straight-curve $-1 -73.154087954344305 -50.467100241607362 0 0 0 -1 I I #
edge $-1 $298 $302 $296 $356 forward #
straight-curve $-1 0 -50.467100241607362 -11.870480513385916 -1 0 0 I I #
vertex $-1 $217 $357 #
straight-curve $-1 0 50.467100241607362 -11.870480513385916 1 0 0 I I #
point $-1 73.154087954344305 50.467100241607362 -11.870480513385916 #
point $-1 73.154087954344305 -50.467100241607362 -11.870480513385916 #
straight-curve $-1 -73.154087954344305 0 11.870480513385916 0 -1 0 I I #
point $-1 -73.154087954344305 50.467100241607362 11.870480513385916 #
point $-1 -73.154087954344305 -50.467100241607362 11.870480513385916 #
straight-curve $-1 73.154087954344305 -50.467100241607362 0 0 0 -1 I I #
straight-curve $-1 73.154087954344305 50.467100241607362 0 0 0 -1 I I #
plane-surface $-1 -73.154087954344305 0 0 1 0 0 0 0 -1 forward_v I I I I #
coedge $-1 $314 $323 $318 $358 forward $235 $-1 #
coedge $-1 $238 $237 $359 $360 forward $95 $-1 #
coedge $-1 $359 $312 $239 $315 reversed $235 $-1 #
edge $-1 $316 $319 $314 $361 forward #
vertex $-1 $360 $362 #
straight-curve $-1 73.154087954344305 0 -11.870480513385916 0 -1 0 I I #
coedge $-1 $247 $241 $312 $358 reversed $248 $-1 #
vertex $-1 $242 $363 #
straight-curve $-1 -73.154087954344305 0 -11.870480513385916 0 1 0 I I #
point $-1 -73.154087954344305 -50.467100241607362 -11.870480513385916 #
point $-1 73.154087954344305 -50.467100241607362 -11.870480513385916 #
coedge $-1 $312 $359 $250 $324 reversed $235 $-1 #
edge $-1 $325 $327 $323 $364 forward #
vertex $-1 $251 $365 #
straight-curve $-1 -73.154087954344305 -55.992889163254411 -6.72893622387876 0 -1 0 I I #
vertex $-1 $252 $366 #
straight-curve $-1 73.154087954344305 -55.992889163254411 -6.72893622387876 0 1 0 I I #
coedge $-1 $256 $264 $257 $331 forward $168 $-1 #
edge $-1 $333 $265 $256 $367 forward #
edge $-1 $337 $333 $257 $368 forward #
edge $-1 $262 $337 $258 $369 forward #
vertex $-1 $259 $370 #
straight-curve $-1 -57.651038209545248 50.467100241607362 24.647960027050843 -0.69465836192734942 0 -0.71933980857756763 I I #
point $-1 -69.990106453348176 50.467100241607362 11.870480513385916 #
point $-1 -73.154087954344305 32.505114057078281 8.5940816790657504 #
vertex $-1 $332 $371 #
straight-curve $-1 -73.154087954344305 0 11.870480513385916 0 -1 0 I I #
vertex $-1 $271 $372 #
point $-1 -69.800050627421712 41.486107149342821 9.2161174371014223 #
coedge $-1 $342 $276 $277 $343 reversed $188 $-1 #
coedge $-1 $276 $341 $281 $347 forward $188 $-1 #
edge $-1 $350 $344 $341 $373 forward #
vertex $-1 $280 $374 #
straight-curve $-1 69.990106453348147 20.743053574671411 11.870480513385914 0 -1 0 I I #
straight-curve $-1 6.8339393028911886 50.467100241607362 77.270607652795405 -0.69465836192734942 0 0.71933980857756763 I I #
edge $-1 $350 $282 $281 $375 forward #
point $-1 73.154087954344305 50.467100241607362 8.5940816790657344 #
point $-1 69.990106453348147 32.505114057078281 11.870480513385914 #
vertex $-1 $288 $376 #
straight-curve $-1 73.154087954344305 0 11.870480513385916 0 1 0 I I #
vertex $-1 $291 $377 #
point $-1 70.494708989349078 41.486107149342821 8.496777628523855 #
straight-curve $-1 -73.154087954344305 50.467100241607362 0 0 0 -1 I I #
point $-1 -73.154087954344305 -50.467100241607362 -11.870480513385916 #
straight-curve $-1 -73.154087954344305 0 -11.870480513385916 0 1 0 I I #
point $-1 -73.154087954344305 50.467100241607362 -11.870480513385916 #
edge $-1 $325 $319 $318 $378 forward #
coedge $-1 $323 $314 $313 $360 reversed $235 $-1 #
edge $-1 $327 $316 $313 $379 forward #
straight-curve $-1 0 -61.51867808490146 -11.870480513385916 -1 0 0 I I #
point $-1 73.154087954344305 -61.51867808490146 -11.870480513385916 #
point $-1 -73.154087954344305 -61.51867808490146 -11.870480513385916 #
straight-curve $-1 0 -61.51867808490146 -6.72893622387876 1 0 0 I I #
point $-1 -73.154087954344305 -61.51867808490146 -6.72893622387876 #
point $-1 73.154087954344305 -61.51867808490146 -6.72893622387876 #
straight-curve $-1 -73.154087954344305 20.743053574671411 8.5940816790657575 0 -1 0 I I #
straight-curve $-1 -73.154087954344305 50.467100241607362 0 0 0 -1 I I #
straight-curve $-1 0 50.467100241607362 11.870480513385916 -1 0 0 I I #
point $-1 -73.154087954344305 50.467100241607362 8.5940816790657504 #
point $-1 -73.154087954344305 50.467100241607362 11.870480513385916 #
point $-1 -69.787709904096602 41.486107149342821 8.5091183518489633 #
straight-curve $-1 0 50.467100241607362 11.870480513385916 -1 0 0 I I #
point $-1 69.990106453348147 50.467100241607362 11.870480513385914 #
straight-curve $-1 73.154087954344305 50.467100241607362 0 0 0 -1 I I #
point $-1 73.154087954344305 50.467100241607362 11.870480513385916 #
point $-1 69.787709904096616 41.486107149342821 8.5091183518489633 #
straight-curve $-1 -73.154087954344305 -61.51867808490146 -9.2997083686323379 0 0 -1 I I #
straight-curve $-1 73.154087954344305 -61.51867808490146 -9.2997083686323379 0 0 -1 I I #
End-of-ACIS-data 