600 0 6 0           
96 GICL ACIS Healer - Source: /gicl/data5/repository/Drexel/SM99-DATA/part109.smdg.deltas.sat - 6 0 18 ACIS 6.0.3 Solaris 24 Sat Apr 13 20:43:51 2002 
1 9.999999999999999547e-07 1.000000000000000036e-10 
body $-1 $6 $-1 $-1 #
body $-1 $7 $-1 $-1 #
body $-1 $8 $-1 $-1 #
body $-1 $9 $-1 $-1 #
body $-1 $10 $-1 $-1 #
body $-1 $11 $-1 $-1 #
lump $-1 $-1 $12 $0 #
lump $-1 $-1 $13 $1 #
lump $-1 $-1 $14 $2 #
lump $-1 $-1 $15 $3 #
lump $-1 $-1 $16 $4 #
lump $-1 $-1 $17 $5 #
shell $-1 $-1 $-1 $18 $-1 $6 #
shell $-1 $-1 $-1 $19 $-1 $7 #
shell $-1 $-1 $-1 $20 $-1 $8 #
shell $-1 $-1 $-1 $21 $-1 $9 #
shell $-1 $-1 $-1 $22 $-1 $10 #
shell $-1 $-1 $-1 $23 $-1 $11 #
face $-1 $24 $25 $12 $-1 $26 forward single #
face $-1 $27 $28 $13 $-1 $29 forward single #
face $-1 $30 $31 $14 $-1 $32 reversed single #
face $-1 $33 $34 $15 $-1 $35 forward single #
face $-1 $36 $37 $16 $-1 $38 reversed single #
face $-1 $39 $40 $17 $-1 $41 forward single #
face $-1 $42 $43 $12 $-1 $44 reversed single #
loop $-1 $-1 $45 $18 #
plane-surface $-1 73.15408795434430544 50.46710024160736197 23.7409610267718314 0 0 1 1 0 0 forward_v I I I I #
face $-1 $46 $47 $13 $-1 $48 reversed single #
loop $-1 $-1 $49 $19 #
plane-surface $-1 73.15408795434430544 0 11.8704805133859157 0 1 0 0 0 1 forward_v I I I I #
face $-1 $50 $51 $14 $-1 $52 reversed single #
loop $-1 $-1 $53 $20 #
plane-surface $-1 -105.2452952514891251 82.97221429868564258 122.0987600057598144 0 1 0 -0.7193398085775676298 0 0.6946583619273494214 forward_v I I I I #
face $-1 $54 $55 $15 $-1 $56 forward single #
loop $-1 $57 $58 $21 #
cone-surface $-1 2.29434944822847342 91.95320739095018325 21.41484482790516708 0.7193398085775676298 0 -0.6946583619273494214 0.3473291809636747107 0 0.3596699042887838149 1 I I 0 1 0.5 forward I I I I #
face $-1 $59 $60 $16 $-1 $61 reversed single #
loop $-1 $-1 $62 $22 #
plane-surface $-1 149.9192733468696304 82.97221429868564258 227.3440552572489537 0 1 0 0.7193398085775676298 0 0.6946583619273494214 forward_v I I I I #
face $-1 $63 $64 $17 $-1 $65 forward single #
loop $-1 $66 $67 $23 #
cone-surface $-1 144.0138264604601659 91.95320739095018325 21.41484482790516708 -0.7193398085775676298 0 -0.6946583619273494214 0.3473291809636747107 0 -0.3596699042887838149 1 I I 0 1 0.5 forward I I I I #
face $-1 $68 $69 $12 $-1 $70 reversed single #
loop $-1 $-1 $71 $24 #
plane-surface $-1 73.15408795434430544 50.46710024160736197 0 0 0 1 1 0 0 forward_v I I I I #
coedge $-1 $72 $73 $74 $75 forward $25 $-1 #
face $-1 $76 $77 $13 $-1 $78 reversed single #
loop $-1 $-1 $79 $27 #
plane-surface $-1 73.15408795434430544 50.46710024160736197 0 0 0 1 1 0 0 forward_v I I I I #
coedge $-1 $80 $81 $82 $83 forward $28 $-1 #
face $-1 $84 $85 $14 $-1 $86 reversed single #
loop $-1 $-1 $87 $30 #
plane-surface $-1 2.842170943040400743e-14 91.95320739095018325 20.4645621924516945 -0.7193398085775676298 0 0.6946583619273494214 0.6946583619273494214 0 0.7193398085775676298 forward_v I I I I #
coedge $-1 $88 $89 $90 $91 reversed $31 $-1 #
face $-1 $-1 $92 $15 $-1 $93 forward single #
loop $-1 $94 $95 $33 #
cone-surface $-1 3.186543098103314264 91.95320739095018325 20.55326345571671709 0.7193398085775676298 0 -0.6946583619273494214 0.1736645904818373554 0 0.1798349521443919075 1 I I -0.7071067811865474617 0.7071067811865474617 0.25 forward I I I I #
loop $-1 $-1 $96 $21 #
coedge $-1 $58 $58 $97 $98 reversed $34 $-1 #
face $-1 $99 $100 $16 $-1 $101 forward single #
loop $-1 $-1 $102 $36 #
plane-surface $-1 44.67397809538047682 91.95320739095018325 125.7098574439408196 0.7193398085775676298 0 0.6946583619273494214 0.6946583619273494214 0 -0.7193398085775676298 forward_v I I I I #
coedge $-1 $103 $104 $105 $106 reversed $37 $-1 #
face $-1 $-1 $107 $17 $-1 $108 forward single #
loop $-1 $109 $110 $39 #
cone-surface $-1 143.1216328105853108 91.95320739095018325 20.55326345571671709 -0.7193398085775676298 0 -0.6946583619273494214 0.1736645904818373554 0 -0.1798349521443919075 1 I I -0.7071067811865474617 0.7071067811865474617 0.25 forward I I I I #
loop $-1 $-1 $111 $23 #
coedge $-1 $67 $67 $112 $113 reversed $40 $-1 #
face $-1 $114 $115 $12 $-1 $116 reversed single #
loop $-1 $-1 $117 $42 #
plane-surface $-1 73.15408795434430544 0 11.8704805133859157 0 1 0 0 0 1 forward_v I I I I #
coedge $-1 $118 $119 $120 $121 forward $43 $-1 #
coedge $-1 $122 $45 $123 $124 forward $25 $-1 #
coedge $-1 $45 $122 $125 $126 forward $25 $-1 #
coedge $-1 $127 $128 $45 $75 reversed $129 $-1 #
edge $-1 $130 -50.46710024160736197 $131 50.46710024160736197 $74 $132 forward 7 unknown #
face $-1 $133 $134 $13 $-1 $135 forward single #
loop $-1 $-1 $136 $46 #
plane-surface $-1 146.3081759086886109 50.46710024160736197 11.8704805133859157 -1 0 0 0 0 1 forward_v I I I I #
coedge $-1 $137 $138 $139 $140 forward $47 $-1 #
coedge $-1 $139 $49 $136 $141 reversed $28 $-1 #
coedge $-1 $49 $139 $142 $143 reversed $28 $-1 #
coedge $-1 $144 $145 $49 $83 reversed $134 $-1 #
edge $-1 $146 -73.15408795434430544 $147 73.15408795434430544 $82 $148 forward 7 unknown #
face $-1 $149 $150 $14 $-1 $151 reversed single #
loop $-1 $-1 $152 $50 #
plane-surface $-1 73.15408795434430544 100.9342004832147239 11.8704805133859157 0 -1 0 0 0 -1 forward_v I I I I #
coedge $-1 $153 $154 $155 $156 reversed $51 $-1 #
coedge $-1 $89 $53 $157 $158 reversed $31 $-1 #
coedge $-1 $53 $88 $153 $159 reversed $31 $-1 #
coedge $-1 $155 $160 $53 $91 forward $161 $-1 #
edge $-1 $162 16.04560364857240984 $163 19.20958514956853946 $90 $164 forward 7 unknown #
loop $-1 $-1 $97 $54 #
plane-surface $-1 2.842170943040400743e-14 91.95320739095018325 20.4645621924516945 -0.7193398085775676298 0 0.6946583619273494214 0.6946583619273494214 0 0.7193398085775676298 forward_v I I I I #
loop $-1 $-1 $165 $33 #
coedge $-1 $95 $95 $96 $166 reversed $55 $-1 #
coedge $-1 $96 $96 $95 $166 forward $57 $-1 #
coedge $-1 $97 $97 $58 $98 forward $92 $-1 #
edge $-1 $167 0 $167 6.283185307179586232 $97 $168 forward 7 unknown #
face $-1 $169 $170 $16 $-1 $171 reversed single #
loop $-1 $-1 $172 $59 #
plane-surface $-1 73.15408795434430544 50.46710024160736197 23.7409610267718314 0 0 1 1 0 0 forward_v I I I I #
coedge $-1 $173 $174 $175 $176 reversed $60 $-1 #
coedge $-1 $104 $62 $177 $178 reversed $37 $-1 #
coedge $-1 $62 $103 $173 $179 reversed $37 $-1 #
coedge $-1 $175 $180 $62 $106 forward $181 $-1 #
edge $-1 $182 95.86630685854559886 $183 99.14270569286578905 $105 $184 forward 7 unknown #
loop $-1 $-1 $112 $63 #
plane-surface $-1 44.67397809538047682 91.95320739095018325 125.7098574439408196 0.7193398085775676298 0 0.6946583619273494214 0.6946583619273494214 0 -0.7193398085775676298 forward_v I I I I #
loop $-1 $-1 $185 $39 #
coedge $-1 $110 $110 $111 $186 reversed $64 $-1 #
coedge $-1 $111 $111 $110 $186 forward $66 $-1 #
coedge $-1 $112 $112 $67 $113 forward $107 $-1 #
edge $-1 $187 0 $187 6.283185307179586232 $112 $188 forward 7 unknown #
face $-1 $189 $190 $12 $-1 $191 reversed single #
loop $-1 $-1 $192 $68 #
plane-surface $-1 0 50.46710024160736197 11.8704805133859157 1 0 0 0 0 -1 forward_v I I I I #
coedge $-1 $125 $193 $127 $194 reversed $69 $-1 #
coedge $-1 $195 $71 $193 $196 forward $43 $-1 #
coedge $-1 $71 $195 $197 $198 forward $43 $-1 #
coedge $-1 $128 $127 $71 $121 reversed $129 $-1 #
edge $-1 $199 -50.46710024160736197 $200 50.46710024160736197 $120 $201 forward 7 unknown #
coedge $-1 $73 $72 $202 $203 forward $25 $-1 #
coedge $-1 $204 $205 $72 $124 reversed $190 $-1 #
edge $-1 $131 -73.15408795434430544 $206 73.15408795434430544 $123 $207 forward 7 unknown #
coedge $-1 $208 $117 $73 $126 reversed $69 $-1 #
edge $-1 $209 -73.15408795434430544 $130 73.15408795434430544 $125 $210 forward 7 unknown #
coedge $-1 $120 $74 $117 $194 forward $129 $-1 #
coedge $-1 $74 $120 $204 $211 reversed $129 $-1 #
loop $-1 $-1 $127 $189 #
vertex $-1 $75 $212 #
vertex $-1 $75 $213 #
straight-curve $-1 146.3081759086886109 50.46710024160736197 23.7409610267718314 0 1 0 I I #
face $-1 $214 $215 $13 $-1 $216 reversed single #
loop $-1 $-1 $145 $76 #
plane-surface $-1 73.15408795434430544 -5.525788921647048824 5.141544289507155696 0 0 1 1 0 0 forward_v I I I I #
coedge $-1 $217 $218 $80 $141 forward $77 $-1 #
coedge $-1 $219 $79 $218 $220 forward $47 $-1 #
coedge $-1 $79 $219 $221 $222 forward $47 $-1 #
coedge $-1 $81 $80 $79 $140 reversed $28 $-1 #
edge $-1 $223 -73.15408795434430544 $224 73.15408795434430544 $79 $225 forward 7 unknown #
edge $-1 $224 -11.8704805133859157 $147 -6.728936223878760003 $136 $226 forward 7 unknown #
coedge $-1 $221 $227 $81 $143 forward $228 $-1 #
edge $-1 $146 6.728936223878760003 $223 11.8704805133859157 $142 $229 forward 7 unknown #
coedge $-1 $230 $82 $227 $231 forward $134 $-1 #
coedge $-1 $82 $230 $217 $232 forward $134 $-1 #
vertex $-1 $143 $233 #
vertex $-1 $232 $234 #
straight-curve $-1 73.15408795434430544 0 5.141544289507155696 1 0 0 I I #
face $-1 $-1 $161 $14 $-1 $235 forward single #
loop $-1 $-1 $236 $84 #
plane-surface $-1 0 50.46710024160736197 11.8704805133859157 1 0 0 0 0 -1 forward_v I I I I #
coedge $-1 $237 $238 $154 $239 forward $85 $-1 #
coedge $-1 $240 $87 $89 $159 forward $51 $-1 #
coedge $-1 $87 $240 $152 $239 reversed $51 $-1 #
coedge $-1 $241 $90 $87 $156 forward $161 $-1 #
edge $-1 $163 11.76206048240686641 $242 29.72404666693594777 $155 $243 forward 7 unknown #
coedge $-1 $244 $236 $88 $158 forward $150 $-1 #
edge $-1 $245 -46.52005806712119806 $162 -43.2436592328010363 $157 $246 forward 7 unknown #
edge $-1 $163 -4.55473031695400099 $245 4.018824513721361775e-14 $89 $247 forward 7 unknown #
coedge $-1 $90 $241 $244 $248 forward $161 $-1 #
loop $-1 $-1 $155 $149 #
vertex $-1 $158 $249 #
vertex $-1 $91 $250 #
straight-curve $-1 -16.04560364857240984 82.97221429868564258 23.74096102677182785 1 0 0 I I #
coedge $-1 $165 $165 $-1 $251 reversed $94 $-1 #
edge $-1 $252 0 $252 6.283185307179586232 $95 $253 forward 7 unknown #
vertex $-1 $98 $254 #
ellipse-curve $-1 1.581990750498064813 91.95320739095018325 22.10276160961174696 -0.7193398085775676298 0 0.6946583619273494214 0.3473291809636747107 0 0.3596699042887838149 1 I I #
face $-1 $-1 $181 $16 $-1 $255 reversed single #
loop $-1 $-1 $256 $99 #
plane-surface $-1 73.15408795434430544 100.9342004832147239 11.8704805133859157 0 -1 0 0 0 -1 forward_v I I I I #
coedge $-1 $177 $257 $258 $259 forward $100 $-1 #
coedge $-1 $258 $102 $104 $179 forward $60 $-1 #
coedge $-1 $102 $258 $256 $260 reversed $60 $-1 #
coedge $-1 $261 $105 $102 $176 forward $181 $-1 #
edge $-1 $183 11.76206048240686641 $262 29.72404666693594777 $175 $263 forward 7 unknown #
coedge $-1 $264 $172 $103 $178 forward $100 $-1 #
edge $-1 $265 31.60751375708548494 $182 34.77149525808164299 $177 $266 forward 7 unknown #
edge $-1 $183 -146.3081759086886393 $265 -141.753445591734561 $104 $267 forward 7 unknown #
coedge $-1 $105 $261 $264 $268 reversed $181 $-1 #
loop $-1 $-1 $175 $169 #
vertex $-1 $268 $269 #
vertex $-1 $106 $270 #
straight-curve $-1 146.3081759086886109 82.97221429868564258 119.6072678853174267 0 0 -1 I I #
coedge $-1 $185 $185 $-1 $271 reversed $109 $-1 #
edge $-1 $272 0 $272 6.283185307179586232 $110 $273 forward 7 unknown #
vertex $-1 $113 $274 #
ellipse-curve $-1 144.7261851581905603 91.95320739095018325 22.10276160961173275 0.7193398085775676298 0 0.6946583619273494214 0.3473291809636747107 0 -0.3596699042887838149 1 I I #
face $-1 $-1 $129 $12 $-1 $275 reversed single #
loop $-1 $-1 $204 $114 #
plane-surface $-1 73.15408795434430544 100.9342004832147239 11.8704805133859157 0 -1 0 0 0 -1 forward_v I I I I #
coedge $-1 $276 $202 $205 $277 forward $115 $-1 #
coedge $-1 $117 $208 $118 $196 reversed $69 $-1 #
edge $-1 $130 -11.8704805133859157 $200 11.8704805133859157 $127 $278 forward 7 unknown #
coedge $-1 $119 $118 $276 $279 forward $43 $-1 #
edge $-1 $200 -73.15408795434430544 $280 73.15408795434430544 $193 $281 forward 7 unknown #
coedge $-1 $205 $204 $119 $198 reversed $190 $-1 #
edge $-1 $282 -73.15408795434430544 $199 73.15408795434430544 $197 $283 forward 7 unknown #
vertex $-1 $121 $284 #
vertex $-1 $194 $285 #
straight-curve $-1 146.3081759086886109 50.46710024160736197 0 0 -1 0 I I #
coedge $-1 $192 $286 $122 $203 reversed $115 $-1 #
edge $-1 $206 -50.46710024160736197 $209 50.46710024160736197 $202 $287 forward 7 unknown #
coedge $-1 $197 $123 $128 $211 forward $190 $-1 #
coedge $-1 $123 $197 $192 $277 reversed $190 $-1 #
vertex $-1 $124 $288 #
straight-curve $-1 73.15408795434430544 100.9342004832147239 23.7409610267718314 -1 0 0 I I #
coedge $-1 $193 $125 $286 $289 forward $69 $-1 #
vertex $-1 $203 $290 #
straight-curve $-1 73.15408795434430544 0 23.7409610267718314 1 0 0 I I #
edge $-1 $131 -11.8704805133859157 $199 11.8704805133859157 $128 $291 forward 7 unknown #
point $-1 146.3081759086886109 0 23.7409610267718314 #
point $-1 146.3081759086886109 100.9342004832147239 23.7409610267718314 #
face $-1 $-1 $228 $13 $-1 $292 reversed single #
loop $-1 $-1 $293 $133 #
plane-surface $-1 73.15408795434430544 -11.05157784329409765 2.570772144753577848 0 1 0 0 0 1 forward_v I I I I #
coedge $-1 $294 $136 $145 $232 reversed $77 $-1 #
coedge $-1 $136 $294 $137 $220 reversed $77 $-1 #
coedge $-1 $138 $137 $295 $296 forward $47 $-1 #
edge $-1 $224 50.46710024160736197 $297 61.51867808490145961 $218 $298 forward 7 unknown #
coedge $-1 $299 $142 $138 $222 reversed $228 $-1 #
edge $-1 $300 -61.51867808490145961 $223 -50.46710024160736197 $221 $301 forward 7 unknown #
vertex $-1 $143 $302 #
vertex $-1 $220 $303 #
straight-curve $-1 73.15408795434430544 0 0 1 0 0 I I #
straight-curve $-1 146.3081759086886109 0 11.8704805133859157 0 0 1 I I #
coedge $-1 $142 $299 $144 $231 reversed $228 $-1 #
loop $-1 $-1 $142 $214 #
straight-curve $-1 0 0 11.8704805133859157 0 0 -1 I I #
coedge $-1 $145 $144 $304 $305 forward $134 $-1 #
edge $-1 $146 -5.525788921647048824 $306 5.525788921647048824 $227 $307 forward 7 unknown #
edge $-1 $308 -5.525788921647048824 $147 5.525788921647048824 $217 $309 forward 7 unknown #
point $-1 0 0 5.141544289507155696 #
point $-1 146.3081759086886109 0 5.141544289507155696 #
plane-surface $-1 73.15408795434430544 50.46710024160736197 23.7409610267718314 0 0 1 1 0 0 forward_v I I I I #
coedge $-1 $157 $310 $240 $311 forward $150 $-1 #
coedge $-1 $238 $152 $310 $312 reversed $85 $-1 #
coedge $-1 $152 $237 $241 $313 reversed $85 $-1 #
edge $-1 $242 17.76278660141343835 $314 22.31751691836748108 $152 $315 forward 7 unknown #
coedge $-1 $154 $153 $236 $311 reversed $51 $-1 #
coedge $-1 $160 $155 $238 $313 forward $161 $-1 #
vertex $-1 $313 $316 #
straight-curve $-1 3.163981500996129625 71.21015381627877616 23.7409610267718314 0 1 0 I I #
coedge $-1 $310 $157 $160 $248 reversed $150 $-1 #
vertex $-1 $158 $317 #
straight-curve $-1 0 82.97221429868564258 66.98462025957286414 0 0 1 I I #
straight-curve $-1 2.842170943040400743e-14 82.97221429868564258 20.4645621924516945 -0.6946583619273494214 0 -0.7193398085775676298 I I #
edge $-1 $318 -50.46710024160736197 $162 -32.50511405707828061 $244 $319 forward 7 unknown #
point $-1 0 82.97221429868564258 23.7409610267718314 #
point $-1 3.163981500996129625 82.97221429868564258 23.7409610267718314 #
edge $-1 $320 1 $320 0 $165 $-1 forward 7 unknown #
vertex $-1 $166 $321 #
ellipse-curve $-1 3.006708145958924661 91.95320739095018325 20.72692804619855522 -0.7193398085775676298 0 0.6946583619273494214 0.3473291809636747107 0 0.3596699042887838149 1 I I #
point $-1 1.929319931461705551 91.95320739095018325 22.4624315139005617 #
plane-surface $-1 146.3081759086886109 50.46710024160736197 11.8704805133859157 -1 0 0 0 0 1 forward_v I I I I #
coedge $-1 $322 $323 $174 $260 forward $170 $-1 #
coedge $-1 $172 $264 $322 $324 forward $100 $-1 #
coedge $-1 $174 $173 $172 $259 reversed $60 $-1 #
edge $-1 $325 -29.72404666693594777 $265 -11.76206048240686641 $172 $326 forward 7 unknown #
edge $-1 $262 -95.47160487271177942 $325 -90.91687455575771537 $256 $327 forward 7 unknown #
coedge $-1 $180 $175 $323 $328 reversed $181 $-1 #
vertex $-1 $176 $329 #
straight-curve $-1 146.3081759086886109 71.21015381627877616 20.46456219245164476 0 1 0 I I #
coedge $-1 $257 $177 $180 $268 forward $100 $-1 #
vertex $-1 $178 $330 #
straight-curve $-1 111.5366806506069679 82.97221429868564258 23.74096102677182785 1 0 0 I I #
straight-curve $-1 44.67397809538047682 82.97221429868564258 125.7098574439408196 -0.6946583619273494214 0 0.7193398085775676298 I I #
edge $-1 $182 32.50511405707828061 $331 50.46710024160736197 $180 $332 forward 7 unknown #
point $-1 146.3081759086886109 82.97221429868564258 23.7409610267718314 #
point $-1 146.3081759086886109 82.97221429868564258 20.46456219245163766 #
edge $-1 $333 1 $333 0 $185 $-1 forward 7 unknown #
vertex $-1 $186 $334 #
ellipse-curve $-1 143.3014677627297147 91.95320739095018325 20.72692804619855522 0.7193398085775676298 0 0.6946583619273494214 0.3473291809636747107 0 -0.3596699042887838149 1 I I #
point $-1 145.0735143391542579 91.95320739095018325 21.74309170532299618 #
plane-surface $-1 146.3081759086886109 50.46710024160736197 11.8704805133859157 -1 0 0 0 0 1 forward_v I I I I #
coedge $-1 $286 $192 $195 $279 reversed $115 $-1 #
edge $-1 $206 -11.8704805133859157 $282 11.8704805133859157 $205 $335 forward 7 unknown #
straight-curve $-1 146.3081759086886109 0 11.8704805133859157 0 0 -1 I I #
edge $-1 $280 -50.46710024160736197 $282 50.46710024160736197 $276 $336 forward 7 unknown #
vertex $-1 $279 $337 #
straight-curve $-1 73.15408795434430544 0 0 -1 0 0 I I #
vertex $-1 $198 $338 #
straight-curve $-1 73.15408795434430544 100.9342004832147239 0 1 0 0 I I #
point $-1 146.3081759086886109 100.9342004832147239 0 #
point $-1 146.3081759086886109 0 0 #
coedge $-1 $202 $276 $208 $289 reversed $115 $-1 #
straight-curve $-1 0 50.46710024160736197 23.7409610267718314 0 -1 0 I I #
point $-1 0 100.9342004832147239 23.7409610267718314 #
edge $-1 $209 -11.8704805133859157 $280 11.8704805133859157 $286 $339 forward 7 unknown #
point $-1 0 0 23.7409610267718314 #
straight-curve $-1 146.3081759086886109 100.9342004832147239 11.8704805133859157 0 0 -1 I I #
plane-surface $-1 0 50.46710024160736197 11.8704805133859157 1 0 0 0 0 -1 forward_v I I I I #
coedge $-1 $295 $304 $299 $340 forward $215 $-1 #
coedge $-1 $218 $217 $341 $342 forward $77 $-1 #
coedge $-1 $341 $293 $219 $296 reversed $215 $-1 #
edge $-1 $297 -73.15408795434430544 $300 73.15408795434430544 $295 $343 forward 7 unknown #
vertex $-1 $342 $344 #
straight-curve $-1 146.3081759086886109 50.46710024160736197 0 0 -1 0 I I #
coedge $-1 $227 $221 $293 $340 reversed $228 $-1 #
vertex $-1 $222 $345 #
straight-curve $-1 0 50.46710024160736197 0 0 1 0 I I #
point $-1 0 0 0 #
point $-1 146.3081759086886109 0 0 #
coedge $-1 $293 $341 $230 $305 reversed $215 $-1 #
edge $-1 $306 -73.15408795434430544 $308 73.15408795434430544 $304 $346 forward 7 unknown #
vertex $-1 $231 $347 #
straight-curve $-1 0 -5.525788921647048824 5.141544289507155696 0 -1 0 I I #
vertex $-1 $232 $348 #
straight-curve $-1 146.3081759086886109 -5.525788921647048824 5.141544289507155696 0 1 0 I I #
coedge $-1 $236 $244 $237 $312 forward $150 $-1 #
edge $-1 $314 -29.72404666693594777 $245 -11.76206048240686641 $236 $349 forward 7 unknown #
edge $-1 $318 -11.8704805133859157 $314 -8.594081679065750379 $237 $350 forward 7 unknown #
edge $-1 $242 69.99010645334817582 $318 73.15408795434430544 $238 $351 forward 7 unknown #
vertex $-1 $239 $352 #
straight-curve $-1 15.50304974479905695 100.9342004832147239 36.51844054043675669 -0.6946583619273494214 0 -0.7193398085775676298 I I #
point $-1 3.163981500996129625 100.9342004832147239 23.7409610267718314 #
point $-1 0 82.97221429868564258 20.46456219245166608 #
vertex $-1 $313 $353 #
straight-curve $-1 0 50.46710024160736197 23.7409610267718314 0 -1 0 I I #
vertex $-1 $251 $354 #
point $-1 3.35403732692259382 91.95320739095018325 21.08659795048733798 #
coedge $-1 $323 $256 $257 $324 reversed $170 $-1 #
coedge $-1 $256 $322 $261 $328 forward $170 $-1 #
edge $-1 $331 -73.15408795434430544 $325 -69.9901064533481474 $322 $355 forward 7 unknown #
vertex $-1 $260 $356 #
straight-curve $-1 143.1441944076924528 71.21015381627877616 23.74096102677182785 0 -1 0 I I #
straight-curve $-1 79.98802725723550111 100.9342004832147239 89.14108816618131925 -0.6946583619273494214 0 0.7193398085775676298 I I #
edge $-1 $331 -11.8704805133859157 $262 -8.594081679065736168 $261 $357 forward 7 unknown #
point $-1 146.3081759086886109 100.9342004832147239 20.46456219245165187 #
point $-1 143.1441944076924528 82.97221429868564258 23.74096102677182785 #
vertex $-1 $268 $358 #
straight-curve $-1 146.3081759086886109 50.46710024160736197 23.7409610267718314 0 1 0 I I #
vertex $-1 $271 $359 #
point $-1 143.6487969436933838 91.95320739095018325 20.36725814190977246 #
straight-curve $-1 0 100.9342004832147239 11.8704805133859157 0 0 -1 I I #
straight-curve $-1 0 50.46710024160736197 0 0 1 0 I I #
point $-1 0 0 0 #
point $-1 0 100.9342004832147239 0 #
straight-curve $-1 0 0 11.8704805133859157 0 0 -1 I I #
edge $-1 $306 -2.570772144753577848 $300 2.570772144753577848 $299 $360 forward 7 unknown #
coedge $-1 $304 $295 $294 $342 reversed $215 $-1 #
edge $-1 $308 -2.570772144753577848 $297 2.570772144753577848 $294 $361 forward 7 unknown #
straight-curve $-1 73.15408795434430544 -11.05157784329409765 0 -1 0 0 I I #
point $-1 146.3081759086886109 -11.05157784329409765 0 #
point $-1 0 -11.05157784329409765 0 #
straight-curve $-1 73.15408795434430544 -11.05157784329409765 5.141544289507155696 1 0 0 I I #
point $-1 0 -11.05157784329409765 5.141544289507155696 #
point $-1 146.3081759086886109 -11.05157784329409765 5.141544289507155696 #
straight-curve $-1 0 71.21015381627877616 20.46456219245167318 0 -1 0 I I #
straight-curve $-1 0 100.9342004832147239 11.8704805133859157 0 0 -1 I I #
straight-curve $-1 73.15408795434430544 100.9342004832147239 23.7409610267718314 -1 0 0 I I #
point $-1 0 100.9342004832147239 20.46456219245166608 #
point $-1 0 100.9342004832147239 23.7409610267718314 #
point $-1 3.366378050247703868 91.95320739095018325 20.37959886523487896 #
straight-curve $-1 73.15408795434430544 100.9342004832147239 23.7409610267718314 -1 0 0 I I #
point $-1 143.1441944076924528 100.9342004832147239 23.74096102677182785 #
straight-curve $-1 146.3081759086886109 100.9342004832147239 11.8704805133859157 0 0 -1 I I #
point $-1 146.3081759086886109 100.9342004832147239 23.7409610267718314 #
point $-1 142.941797858440907 91.95320739095018325 20.37959886523487896 #
straight-curve $-1 0 -11.05157784329409765 2.570772144753577848 0 0 -1 I I #
straight-curve $-1 146.3081759086886109 -11.05157784329409765 2.570772144753577848 0 0 -1 I I #
End-of-ACIS-data 