300 0 5 0           
7 Unknown 11 ACIS 3.0 NT 24 Fri Oct 30 18:00:13 1998 
-1 9.9999999999999995e-007 1e-010 
body $5 $6 $-1 $7 #
body $8 $9 $-1 $10 #
body $11 $12 $-1 $13 #
body $14 $15 $-1 $16 #
body $17 $18 $-1 $19 #
display_attribute-st-attrib $-1 $20 $-1 $0 1 #
lump $-1 $-1 $21 $0 #
transform $-1 1 0 0 0 1 0 0 0 1 53.895687734611045 35.5020387341347 7.8054212239319991 1 rotate no_reflect no_shear #
display_attribute-st-attrib $-1 $22 $-1 $1 3 #
lump $-1 $-1 $23 $1 #
transform $-1 1 0 0 0 1 0 0 0 1 53.895687734611045 35.5020387341347 7.8054212239319991 1 rotate no_reflect no_shear #
display_attribute-st-attrib $-1 $24 $-1 $2 3 #
lump $-1 $-1 $25 $2 #
transform $-1 1 0 0 0 1 0 0 0 1 53.895687734611045 35.5020387341347 7.8054212239319991 1 rotate no_reflect no_shear #
display_attribute-st-attrib $-1 $26 $-1 $3 3 #
lump $-1 $-1 $27 $3 #
transform $-1 1 0 0 0 1 0 0 0 1 53.895687734611045 35.5020387341347 7.8054212239319991 1 rotate no_reflect no_shear #
display_attribute-st-attrib $-1 $28 $-1 $4 3 #
lump $-1 $-1 $29 $4 #
transform $-1 1 0 0 0 1 0 0 0 1 53.895687734611045 35.5020387341347 7.8054212239319991 1 rotate no_reflect no_shear #
id_attribute-st-attrib $-1 $-1 $5 $0 1601 #
shell $-1 $-1 $-1 $30 $-1 $6 #
id_attribute-st-attrib $-1 $-1 $8 $1 1606 #
shell $-1 $-1 $-1 $31 $-1 $9 #
id_attribute-st-attrib $-1 $-1 $11 $2 1615 #
shell $-1 $-1 $-1 $32 $-1 $12 #
id_attribute-st-attrib $-1 $-1 $14 $3 1627 #
shell $-1 $-1 $-1 $33 $-1 $15 #
id_attribute-st-attrib $-1 $-1 $17 $4 1634 #
shell $-1 $-1 $-1 $34 $-1 $18 #
face $-1 $35 $36 $21 $-1 $37 forward single #
face $-1 $38 $39 $23 $-1 $40 forward single #
face $-1 $41 $42 $25 $-1 $43 forward single #
face $-1 $44 $45 $27 $-1 $46 reversed single #
face $-1 $47 $48 $29 $-1 $49 forward single #
face $-1 $50 $51 $21 $-1 $52 reversed single #
loop $-1 $-1 $53 $30 #
plane-surface $-1 0 0 7.8054212239319991 0 0 1 1 0 0 forward_v I I I I #
face $-1 $54 $55 $23 $-1 $56 reversed single #
loop $-1 $-1 $57 $31 #
plane-surface $-1 0 -35.5020387341347 0 0 1 0 0 0 1 forward_v I I I I #
face $-1 $58 $59 $25 $-1 $60 reversed single #
loop $-1 $-1 $61 $32 #
plane-surface $-1 0 35.5020387341347 0 0 -1 0 0 0 -1 forward_v I I I I #
face $-1 $62 $63 $27 $-1 $64 reversed single #
loop $-1 $-1 $65 $33 #
plane-surface $-1 61.873784101699059 19.012643969685371 156.82549693635849 0 -1 0 -0.74314483375859142 0 -0.66913059716165679 forward_v I I I I #
face $-1 $66 $67 $29 $-1 $68 forward single #
loop $-1 $69 $70 $34 #
cone-surface $-1 51.727895606364982 15.605720337433745 5.5496519557432773 -0.74314483375859142 0 -0.66913059716165679 0.66913059716165679 0 -0.74314483375859142 1 I I 0 1 forward I I I I #
face $-1 $71 $72 $21 $-1 $73 reversed single #
loop $-1 $-1 $74 $35 #
plane-surface $-1 0 0 -7.8054212239319991 0 0 1 1 0 0 forward_v I I I I #
coedge $-1 $75 $76 $77 $78 forward $36 $-1 #
face $-1 $79 $80 $23 $-1 $81 reversed single #
loop $-1 $-1 $82 $38 #
plane-surface $-1 0 0 -7.8054212239319991 0 0 1 1 0 0 forward_v I I I I #
coedge $-1 $83 $84 $85 $86 forward $39 $-1 #
face $-1 $87 $88 $25 $-1 $89 reversed single #
loop $-1 $-1 $90 $41 #
plane-surface $-1 0 0 -7.8054212239319991 0 0 1 1 0 0 forward_v I I I I #
coedge $-1 $91 $92 $93 $94 forward $42 $-1 #
face $-1 $95 $96 $27 $-1 $97 reversed single #
loop $-1 $-1 $98 $44 #
plane-surface $-1 -18.230819701985894 15.605720337433745 84.698989499761552 0.74314483375859142 0 0.66913059716165679 0.66913059716165679 0 -0.74314483375859142 forward_v I I I I #
coedge $-1 $99 $100 $101 $102 reversed $45 $-1 #
face $-1 $-1 $103 $29 $-1 $104 forward single #
loop $-1 $105 $106 $47 #
cone-surface $-1 50.634145713093034 15.605720337433745 4.5648351529014537 -0.74314483375859142 0 -0.66913059716165679 0.3345652985808284 0 -0.37157241687929571 1 I I -0.70710678118654746 0.70710678118654746 forward I I I I #
loop $-1 $-1 $107 $34 #
coedge $-1 $70 $70 $108 $109 reversed $48 $-1 #
face $-1 $110 $111 $21 $-1 $112 reversed single #
loop $-1 $-1 $113 $50 #
plane-surface $-1 0 -35.5020387341347 0 0 1 0 0 0 1 forward_v I I I I #
coedge $-1 $114 $115 $116 $117 forward $51 $-1 #
coedge $-1 $118 $53 $119 $120 forward $36 $-1 #
coedge $-1 $53 $118 $121 $122 forward $36 $-1 #
coedge $-1 $123 $124 $53 $78 reversed $125 $-1 #
edge $-1 $126 $127 $77 $128 forward #
face $-1 $129 $130 $23 $-1 $131 reversed single #
loop $-1 $-1 $132 $54 #
plane-surface $-1 -40.023276743704756 -44.50609843091604 0 0 1 0 0 0 1 forward_v I I I I #
coedge $-1 $133 $134 $84 $135 forward $55 $-1 #
coedge $-1 $136 $57 $137 $138 reversed $39 $-1 #
coedge $-1 $57 $136 $82 $135 reversed $39 $-1 #
coedge $-1 $139 $140 $57 $86 reversed $130 $-1 #
edge $-1 $141 $142 $85 $143 forward #
face $-1 $144 $145 $25 $-1 $146 reversed single #
loop $-1 $-1 $147 $58 #
plane-surface $-1 -41.761708200662468 40.004068582525363 0 1 0 0 0 0 -1 forward_v I I I I #
coedge $-1 $148 $149 $92 $150 forward $59 $-1 #
coedge $-1 $151 $61 $152 $153 reversed $42 $-1 #
coedge $-1 $61 $151 $90 $150 reversed $42 $-1 #
coedge $-1 $154 $155 $61 $94 reversed $156 $-1 #
edge $-1 $157 $158 $93 $159 forward #
face $-1 $160 $161 $27 $-1 $162 forward single #
loop $-1 $-1 $163 $62 #
plane-surface $-1 61.873784101699059 12.198796705182119 156.82549693635849 0 1 0 0.74314483375859142 0 0.66913059716165679 forward_v I I I I #
coedge $-1 $164 $165 $166 $167 reversed $63 $-1 #
coedge $-1 $100 $65 $168 $169 reversed $45 $-1 #
coedge $-1 $65 $99 $164 $170 reversed $45 $-1 #
coedge $-1 $166 $171 $65 $102 forward $161 $-1 #
edge $-1 $172 $173 $101 $174 forward #
loop $-1 $-1 $108 $66 #
plane-surface $-1 -18.230819701985894 15.605720337433745 84.698989499761552 0.74314483375859142 0 0.66913059716165679 0.66913059716165679 0 -0.74314483375859142 forward_v I I I I #
loop $-1 $-1 $175 $47 #
coedge $-1 $106 $106 $107 $176 reversed $67 $-1 #
coedge $-1 $107 $107 $106 $176 forward $69 $-1 #
coedge $-1 $108 $108 $70 $109 forward $103 $-1 #
edge $-1 $177 $177 $108 $178 forward #
face $-1 $179 $180 $21 $-1 $181 reversed single #
loop $-1 $-1 $182 $71 #
plane-surface $-1 -53.895687734611045 0 0 1 0 0 0 0 -1 forward_v I I I I #
coedge $-1 $183 $121 $184 $185 forward $72 $-1 #
coedge $-1 $186 $74 $183 $187 forward $51 $-1 #
coedge $-1 $74 $186 $188 $189 forward $51 $-1 #
coedge $-1 $124 $123 $74 $117 reversed $125 $-1 #
edge $-1 $190 $191 $116 $192 forward #
coedge $-1 $76 $75 $193 $194 forward $36 $-1 #
coedge $-1 $195 $196 $75 $120 reversed $180 $-1 #
edge $-1 $127 $197 $119 $198 forward #
coedge $-1 $113 $199 $76 $122 reversed $72 $-1 #
edge $-1 $200 $126 $121 $201 forward #
coedge $-1 $116 $77 $199 $202 forward $125 $-1 #
coedge $-1 $77 $116 $195 $203 reversed $125 $-1 #
loop $-1 $-1 $123 $179 #
vertex $-1 $78 $204 #
vertex $-1 $78 $205 #
straight-curve $-1 53.895687734611045 0 7.8054212239319991 0 1 0 I I #
face $-1 $206 $207 $23 $-1 $208 reversed single #
loop $-1 $-1 $85 $79 #
plane-surface $-1 -41.761708200662468 -40.00406858252537 0 1 0 0 0 0 -1 forward_v I I I I #
coedge $-1 $209 $210 $211 $212 forward $80 $-1 #
coedge $-1 $213 $82 $214 $215 forward $55 $-1 #
coedge $-1 $82 $213 $139 $216 forward $55 $-1 #
edge $-1 $141 $217 $82 $218 forward #
coedge $-1 $84 $83 $219 $220 forward $39 $-1 #
coedge $-1 $221 $222 $83 $138 forward $223 $-1 #
edge $-1 $224 $142 $137 $225 forward #
coedge $-1 $211 $85 $134 $216 reversed $130 $-1 #
coedge $-1 $85 $211 $221 $226 reversed $130 $-1 #
vertex $-1 $135 $227 #
vertex $-1 $226 $228 #
straight-curve $-1 -41.761708200662468 -35.5020387341347 0 0 0 1 I I #
face $-1 $229 $156 $25 $-1 $230 reversed single #
loop $-1 $-1 $231 $87 #
plane-surface $-1 -40.023276743704756 44.506098430916033 0 0 -1 0 0 0 -1 forward_v I I I I #
coedge $-1 $232 $233 $234 $235 forward $88 $-1 #
coedge $-1 $236 $90 $232 $237 forward $59 $-1 #
coedge $-1 $90 $236 $154 $238 forward $59 $-1 #
edge $-1 $157 $239 $90 $240 forward #
coedge $-1 $92 $91 $241 $242 forward $42 $-1 #
coedge $-1 $243 $244 $91 $153 forward $245 $-1 #
edge $-1 $246 $158 $152 $247 forward #
coedge $-1 $248 $93 $149 $238 reversed $156 $-1 #
coedge $-1 $93 $248 $243 $249 reversed $156 $-1 #
loop $-1 $-1 $93 $144 #
vertex $-1 $150 $250 #
vertex $-1 $249 $251 #
straight-curve $-1 -38.284845286747043 35.5020387341347 0 0 0 1 I I #
face $-1 $-1 $252 $27 $-1 $253 reversed single #
loop $-1 $-1 $101 $95 #
plane-surface $-1 0 0 7.8054212239319991 0 0 1 1 0 0 forward_v I I I I #
coedge $-1 $254 $255 $256 $257 reversed $96 $-1 #
coedge $-1 $258 $98 $100 $170 forward $63 $-1 #
coedge $-1 $98 $258 $254 $259 forward $63 $-1 #
coedge $-1 $256 $101 $98 $167 forward $161 $-1 #
edge $-1 $173 $260 $166 $261 forward #
coedge $-1 $262 $263 $99 $169 forward $252 $-1 #
edge $-1 $264 $172 $168 $265 forward #
edge $-1 $173 $264 $100 $266 forward #
coedge $-1 $101 $256 $262 $267 forward $161 $-1 #
vertex $-1 $102 $268 #
vertex $-1 $102 $269 #
straight-curve $-1 30.936892050849529 19.012643969685371 7.8054212239320009 -1 0 0 I I #
coedge $-1 $175 $175 $-1 $270 reversed $105 $-1 #
edge $-1 $271 $271 $106 $272 forward #
vertex $-1 $109 $273 #
ellipse-curve $-1 52.450073082757648 15.605720337433745 6.1999034600042879 0.74314483375859142 0 0.66913059716165679 0.66913059716165679 0 -0.74314483375859142 1 I I #
face $-1 $-1 $125 $21 $-1 $274 reversed single #
loop $-1 $-1 $195 $110 #
plane-surface $-1 0 35.5020387341347 0 0 -1 0 0 0 -1 forward_v I I I I #
coedge $-1 $275 $193 $196 $276 forward $111 $-1 #
coedge $-1 $199 $113 $114 $187 reversed $72 $-1 #
coedge $-1 $193 $275 $113 $185 reversed $111 $-1 #
edge $-1 $200 $277 $184 $278 forward #
coedge $-1 $115 $114 $275 $279 forward $51 $-1 #
edge $-1 $191 $277 $183 $280 forward #
coedge $-1 $196 $195 $115 $189 reversed $180 $-1 #
edge $-1 $281 $190 $188 $282 forward #
vertex $-1 $117 $283 #
vertex $-1 $202 $284 #
straight-curve $-1 53.895687734611045 0 -7.8054212239319991 0 -1 0 I I #
coedge $-1 $182 $184 $118 $194 reversed $111 $-1 #
edge $-1 $197 $200 $193 $285 forward #
coedge $-1 $188 $119 $124 $203 forward $180 $-1 #
coedge $-1 $119 $188 $182 $276 reversed $180 $-1 #
vertex $-1 $120 $286 #
straight-curve $-1 0 35.5020387341347 7.8054212239319991 -1 0 0 I I #
coedge $-1 $121 $183 $123 $202 reversed $72 $-1 #
vertex $-1 $194 $287 #
straight-curve $-1 0 -35.5020387341347 7.8054212239319991 1 0 0 I I #
edge $-1 $126 $191 $123 $288 forward #
edge $-1 $127 $190 $124 $289 forward #
point $-1 53.895687734611045 -35.5020387341347 7.8054212239319991 #
point $-1 53.895687734611045 35.5020387341347 7.8054212239319991 #
face $-1 $-1 $223 $23 $-1 $290 forward single #
loop $-1 $-1 $291 $129 #
plane-surface $-1 -38.284845286747043 -40.00406858252537 0 -1 0 0 0 0 1 forward_v I I I I #
coedge $-1 $292 $132 $213 $293 reversed $80 $-1 #
coedge $-1 $132 $292 $294 $295 reversed $80 $-1 #
coedge $-1 $140 $139 $132 $212 reversed $130 $-1 #
edge $-1 $296 $297 $211 $298 forward #
coedge $-1 $134 $133 $209 $293 forward $55 $-1 #
coedge $-1 $219 $291 $133 $215 reversed $207 $-1 #
edge $-1 $217 $299 $214 $300 forward #
edge $-1 $297 $141 $139 $301 forward #
vertex $-1 $215 $302 #
straight-curve $-1 0 -35.5020387341347 -7.8054212239319991 1 0 0 I I #
coedge $-1 $303 $214 $136 $220 reversed $207 $-1 #
edge $-1 $224 $217 $219 $304 forward #
coedge $-1 $294 $137 $140 $226 forward $223 $-1 #
coedge $-1 $137 $294 $303 $305 forward $223 $-1 #
loop $-1 $-1 $137 $206 #
vertex $-1 $138 $306 #
straight-curve $-1 0 -35.5020387341347 7.8054212239319991 -1 0 0 I I #
edge $-1 $142 $296 $140 $307 forward #
point $-1 -41.761708200662468 -35.5020387341347 -7.8054212239319991 #
point $-1 -41.761708200662468 -35.5020387341347 7.8054212239319991 #
face $-1 $-1 $245 $25 $-1 $308 forward single #
plane-surface $-1 -38.284845286747043 40.004068582525363 0 -1 0 0 0 0 1 forward_v I I I I #
coedge $-1 $309 $310 $248 $311 forward $145 $-1 #
coedge $-1 $241 $147 $148 $237 reversed $88 $-1 #
coedge $-1 $147 $241 $244 $312 reversed $88 $-1 #
coedge $-1 $310 $309 $147 $235 reversed $145 $-1 #
edge $-1 $313 $314 $234 $315 forward #
coedge $-1 $149 $148 $309 $316 forward $59 $-1 #
edge $-1 $239 $314 $232 $317 forward #
edge $-1 $318 $157 $154 $319 forward #
vertex $-1 $237 $320 #
straight-curve $-1 0 35.5020387341347 -7.8054212239319991 -1 0 0 I I #
coedge $-1 $233 $232 $151 $242 reversed $88 $-1 #
edge $-1 $246 $239 $241 $321 forward #
coedge $-1 $322 $152 $155 $249 forward $245 $-1 #
coedge $-1 $152 $322 $233 $312 forward $245 $-1 #
loop $-1 $-1 $152 $229 #
vertex $-1 $153 $323 #
straight-curve $-1 0 35.5020387341347 7.8054212239319991 1 0 0 I I #
coedge $-1 $155 $154 $231 $311 reversed $156 $-1 #
edge $-1 $158 $324 $155 $325 forward #
point $-1 -38.284845286747043 35.502038734134693 -7.8054212239319991 #
point $-1 -38.284845286747043 35.502038734134693 7.8054212239319991 #
loop $-1 $-1 $168 $160 #
plane-surface $-1 53.895687734611045 0 0 -1 0 0 0 0 1 forward_v I I I I #
coedge $-1 $255 $163 $165 $259 reversed $96 $-1 #
coedge $-1 $163 $254 $326 $327 reversed $96 $-1 #
coedge $-1 $171 $166 $163 $257 forward $161 $-1 #
edge $-1 $260 $328 $256 $329 forward #
coedge $-1 $165 $164 $263 $330 reversed $63 $-1 #
edge $-1 $331 $260 $254 $332 forward #
vertex $-1 $167 $333 #
straight-curve $-1 51.004458430904208 7.8028601687168724 7.805421223932008 0 -1 0 I I #
coedge $-1 $326 $168 $171 $267 reversed $252 $-1 #
coedge $-1 $168 $326 $258 $330 forward $252 $-1 #
vertex $-1 $169 $334 #
straight-curve $-1 53.895687734611045 19.012643969685371 78.412748468179245 0 0 1 I I #
straight-curve $-1 -18.230819701985894 19.012643969685371 84.698989499761552 0.66913059716165679 0 -0.74314483375859142 I I #
edge $-1 $328 $172 $262 $335 forward #
point $-1 53.895687734611045 19.012643969685371 7.8054212239319991 #
point $-1 51.004458430904208 19.012643969685371 7.8054212239320009 #
edge $-1 $336 $336 $175 $-1 forward #
vertex $-1 $176 $337 #
ellipse-curve $-1 51.00571812997233 15.605720337433745 4.8994004514822818 0.74314483375859142 0 0.66913059716165679 0.66913059716165679 0 -0.74314483375859142 1 I I #
point $-1 53.119203679919281 15.605720337433745 5.4567586262456818 #
plane-surface $-1 53.895687734611045 0 0 -1 0 0 0 0 1 forward_v I I I I #
coedge $-1 $184 $182 $186 $279 reversed $111 $-1 #
edge $-1 $197 $281 $196 $338 forward #
vertex $-1 $279 $339 #
straight-curve $-1 -53.895687734611045 -35.5020387341347 0 0 0 -1 I I #
edge $-1 $277 $281 $275 $340 forward #
straight-curve $-1 0 -35.5020387341347 -7.8054212239319991 -1 0 0 I I #
vertex $-1 $189 $341 #
straight-curve $-1 0 35.5020387341347 -7.8054212239319991 1 0 0 I I #
point $-1 53.895687734611045 35.5020387341347 -7.8054212239319991 #
point $-1 53.895687734611045 -35.5020387341347 -7.8054212239319991 #
straight-curve $-1 -53.895687734611045 0 7.8054212239319991 0 -1 0 I I #
point $-1 -53.895687734611045 35.5020387341347 7.8054212239319991 #
point $-1 -53.895687734611045 -35.5020387341347 7.8054212239319991 #
straight-curve $-1 53.895687734611045 -35.5020387341347 0 0 0 -1 I I #
straight-curve $-1 53.895687734611045 35.5020387341347 0 0 0 -1 I I #
plane-surface $-1 0 0 7.8054212239319991 0 0 1 1 0 0 forward_v I I I I #
coedge $-1 $214 $303 $292 $342 forward $207 $-1 #
coedge $-1 $210 $209 $291 $342 reversed $80 $-1 #
edge $-1 $299 $297 $209 $343 forward #
coedge $-1 $222 $221 $210 $295 forward $223 $-1 #
edge $-1 $296 $344 $210 $345 forward #
vertex $-1 $226 $346 #
vertex $-1 $216 $347 #
straight-curve $-1 -41.761708200662468 -44.50609843091604 0 0 0 -1 I I #
vertex $-1 $342 $348 #
straight-curve $-1 -38.284845286747043 -40.00406858252537 -7.8054212239319991 0 -1 0 I I #
straight-curve $-1 -41.761708200662468 -40.00406858252537 -7.8054212239319991 0 1 0 I I #
point $-1 -38.284845286747043 -35.5020387341347 -7.8054212239319991 #
coedge $-1 $291 $219 $222 $305 reversed $207 $-1 #
straight-curve $-1 -38.284845286747043 -35.5020387341347 0 0 0 -1 I I #
edge $-1 $344 $224 $303 $349 forward #
point $-1 -38.284845286747043 -35.5020387341347 7.8054212239319991 #
straight-curve $-1 -41.761708200662468 -40.00406858252537 7.8054212239319991 0 -1 0 I I #
plane-surface $-1 0 0 7.8054212239319991 0 0 1 1 0 0 forward_v I I I I #
coedge $-1 $234 $231 $236 $316 reversed $145 $-1 #
coedge $-1 $231 $234 $322 $350 reversed $145 $-1 #
edge $-1 $324 $318 $248 $351 forward #
edge $-1 $313 $246 $233 $352 forward #
vertex $-1 $350 $353 #
vertex $-1 $316 $354 #
straight-curve $-1 -41.761708200662468 44.506098430916033 0 0 0 -1 I I #
edge $-1 $314 $318 $309 $355 forward #
straight-curve $-1 -41.761708200662468 40.004068582525363 -7.8054212239319991 0 1 0 I I #
vertex $-1 $238 $356 #
straight-curve $-1 -38.284845286747043 40.004068582525363 -7.8054212239319991 0 -1 0 I I #
point $-1 -41.761708200662468 35.502038734134693 -7.8054212239319991 #
straight-curve $-1 -41.761708200662468 35.5020387341347 0 0 0 -1 I I #
coedge $-1 $244 $243 $310 $350 forward $245 $-1 #
point $-1 -41.761708200662468 35.502038734134693 7.8054212239319991 #
vertex $-1 $249 $357 #
straight-curve $-1 -38.284845286747043 40.004068582525363 7.8054212239319991 0 1 0 I I #
coedge $-1 $263 $262 $255 $327 forward $252 $-1 #
edge $-1 $328 $331 $326 $358 forward #
vertex $-1 $267 $359 #
straight-curve $-1 30.936892050849529 12.198796705182119 7.8054212239320009 1 0 0 I I #
edge $-1 $331 $264 $263 $360 forward #
vertex $-1 $330 $361 #
straight-curve $-1 -18.230819701985894 12.198796705182119 84.698989499761552 -0.66913059716165679 0 0.74314483375859142 I I #
point $-1 51.004458430904208 12.198796705182119 7.8054212239320009 #
point $-1 53.895687734611045 19.012643969685371 4.5943856960765999 #
straight-curve $-1 53.895687734611045 0 7.8054212239319991 0 1 0 I I #
vertex $-1 $270 $362 #
point $-1 51.674848727133984 15.605720337433745 4.1562556177236907 #
straight-curve $-1 -53.895687734611045 35.5020387341347 0 0 0 -1 I I #
point $-1 -53.895687734611045 -35.5020387341347 -7.8054212239319991 #
straight-curve $-1 -53.895687734611045 0 -7.8054212239319991 0 1 0 I I #
point $-1 -53.895687734611045 35.5020387341347 -7.8054212239319991 #
edge $-1 $344 $299 $291 $363 forward #
straight-curve $-1 -40.023276743704756 -44.50609843091604 -7.8054212239319991 -1 0 0 I I #
vertex $-1 $305 $364 #
straight-curve $-1 -40.023276743704756 -44.50609843091604 7.8054212239319991 1 0 0 I I #
point $-1 -41.761708200662468 -44.50609843091604 7.8054212239319991 #
point $-1 -41.761708200662468 -44.50609843091604 -7.8054212239319991 #
point $-1 -38.284845286747043 -44.50609843091604 -7.8054212239319991 #
straight-curve $-1 -38.284845286747043 -40.00406858252537 7.8054212239319991 0 1 0 I I #
edge $-1 $324 $313 $310 $365 forward #
straight-curve $-1 -38.284845286747043 44.506098430916033 0 0 0 -1 I I #
straight-curve $-1 -41.761708200662468 40.004068582525363 7.8054212239319991 0 -1 0 I I #
point $-1 -41.761708200662468 44.506098430916033 7.8054212239319991 #
point $-1 -41.761708200662468 44.506098430916033 -7.8054212239319991 #
straight-curve $-1 -40.023276743704756 44.506098430916033 -7.8054212239319991 1 0 0 I I #
point $-1 -38.284845286747043 44.506098430916033 -7.8054212239319991 #
point $-1 -38.284845286747043 44.506098430916033 7.8054212239319991 #
straight-curve $-1 53.895687734611045 12.198796705182119 78.412748468179245 0 0 -1 I I #
point $-1 53.895687734611045 12.198796705182119 7.8054212239319991 #
straight-curve $-1 53.895687734611059 7.8028601687168724 4.5943856960765856 0 1 0 I I #
point $-1 53.895687734611045 12.198796705182119 4.5943856960765999 #
point $-1 50.262573296213738 15.605720337433745 4.2302698543206256 #
straight-curve $-1 -38.284845286747043 -44.50609843091604 0 0 0 -1 I I #
point $-1 -38.284845286747043 -44.50609843091604 7.8054212239319991 #
straight-curve $-1 -40.023276743704756 44.506098430916033 7.8054212239319991 -1 0 0 I I #
End-of-ACIS-data 