600 0 3 0           
93 GICL ACIS Healer - Source: /gicl/data5/repository/Drexel/SM99-DATA/part98.smdg.feat.sat - 6 0 18 ACIS 6.0.3 Solaris 24 Sat Apr 13 20:47:25 2002 
1 9.999999999999999547e-07 1.000000000000000036e-10 
body $-1 $3 $-1 $-1 #
body $-1 $4 $-1 $-1 #
body $-1 $5 $-1 $-1 #
lump $-1 $-1 $6 $0 #
lump $-1 $-1 $7 $1 #
lump $-1 $-1 $8 $2 #
shell $-1 $-1 $-1 $9 $-1 $3 #
shell $-1 $-1 $-1 $10 $-1 $4 #
shell $-1 $-1 $-1 $11 $-1 $5 #
face $-1 $12 $13 $6 $-1 $14 forward single #
face $-1 $15 $16 $7 $-1 $17 forward single #
face $-1 $18 $19 $8 $-1 $20 forward single #
face $-1 $21 $22 $6 $-1 $23 reversed single #
loop $-1 $-1 $24 $9 #
plane-surface $-1 55.26535843989379515 27.06631344449854026 16.17568863973623294 0 0 1 1 0 0 forward_v I I I I #
face $-1 $25 $26 $7 $-1 $27 reversed single #
loop $-1 $-1 $28 $10 #
plane-surface $-1 55.26535843989379515 2.682265554966119403 15.67568863973623294 0 0 1 1 0 0 forward_v I I I I #
face $-1 $29 $30 $8 $-1 $31 reversed single #
loop $-1 $-1 $32 $11 #
plane-surface $-1 55.26535843989379515 51.45036133403095846 15.67568863973623294 0 0 1 1 0 0 forward_v I I I I #
face $-1 $33 $34 $6 $-1 $35 reversed single #
loop $-1 $-1 $36 $12 #
plane-surface $-1 55.26535843989379515 27.06631344449854026 0 0 0 1 1 0 0 forward_v I I I I #
coedge $-1 $37 $38 $39 $40 forward $13 $-1 #
face $-1 $41 $42 $7 $-1 $43 reversed single #
loop $-1 $-1 $44 $15 #
plane-surface $-1 55.26535843989379515 2.682265554966119403 11.50274898579921157 0 0 1 1 0 0 forward_v I I I I #
coedge $-1 $45 $46 $47 $48 forward $16 $-1 #
face $-1 $49 $50 $8 $-1 $51 reversed single #
loop $-1 $-1 $52 $18 #
plane-surface $-1 55.26535843989379515 51.45036133403095846 11.50274898579921157 0 0 1 1 0 0 forward_v I I I I #
coedge $-1 $53 $54 $55 $56 forward $19 $-1 #
face $-1 $57 $58 $6 $-1 $59 reversed single #
loop $-1 $-1 $60 $21 #
plane-surface $-1 55.26535843989379515 0 8.087844319868116472 0 1 0 0 0 1 forward_v I I I I #
coedge $-1 $61 $62 $63 $64 forward $22 $-1 #
coedge $-1 $65 $24 $66 $67 forward $13 $-1 #
coedge $-1 $24 $65 $68 $69 forward $13 $-1 #
coedge $-1 $70 $71 $24 $40 reversed $72 $-1 #
edge $-1 $73 -27.06631344449854026 $74 27.06631344449854026 $39 $75 forward 7 unknown #
face $-1 $76 $77 $7 $-1 $78 reversed single #
loop $-1 $-1 $79 $25 #
plane-surface $-1 55.26535843989379515 0 13.58921881276772226 0 1 0 0 0 1 forward_v I I I I #
coedge $-1 $80 $81 $82 $83 forward $26 $-1 #
coedge $-1 $84 $28 $85 $86 forward $16 $-1 #
coedge $-1 $28 $84 $87 $88 forward $16 $-1 #
coedge $-1 $89 $90 $28 $48 reversed $91 $-1 #
edge $-1 $92 -2.682265554966119403 $93 2.682265554966119403 $47 $94 forward 7 unknown #
face $-1 $95 $96 $8 $-1 $97 reversed single #
loop $-1 $-1 $98 $29 #
plane-surface $-1 55.26535843989379515 48.76809577906483639 13.58921881276772226 0 1 0 0 0 1 forward_v I I I I #
coedge $-1 $99 $100 $101 $102 forward $30 $-1 #
coedge $-1 $103 $32 $104 $105 forward $19 $-1 #
coedge $-1 $32 $103 $106 $107 forward $19 $-1 #
coedge $-1 $108 $109 $32 $56 reversed $110 $-1 #
edge $-1 $111 -2.682265554966122068 $112 2.682265554966122068 $55 $113 forward 7 unknown #
face $-1 $114 $115 $6 $-1 $116 reversed single #
loop $-1 $-1 $117 $33 #
plane-surface $-1 0 27.06631344449854026 8.087844319868116472 1 0 0 0 0 -1 forward_v I I I I #
coedge $-1 $118 $68 $119 $120 forward $34 $-1 #
coedge $-1 $121 $36 $118 $122 forward $22 $-1 #
coedge $-1 $36 $121 $123 $124 forward $22 $-1 #
coedge $-1 $71 $70 $36 $64 reversed $72 $-1 #
edge $-1 $125 -27.06631344449854026 $126 27.06631344449854026 $63 $127 forward 7 unknown #
coedge $-1 $38 $37 $128 $129 forward $13 $-1 #
coedge $-1 $130 $131 $37 $67 reversed $115 $-1 #
edge $-1 $74 -55.26535843989379515 $132 55.26535843989379515 $66 $133 forward 7 unknown #
coedge $-1 $60 $134 $38 $69 reversed $34 $-1 #
edge $-1 $135 -55.26535843989379515 $73 55.26535843989379515 $68 $136 forward 7 unknown #
coedge $-1 $63 $39 $134 $137 forward $72 $-1 #
coedge $-1 $39 $63 $130 $138 reversed $72 $-1 #
loop $-1 $-1 $70 $114 #
vertex $-1 $40 $139 #
vertex $-1 $40 $140 #
straight-curve $-1 110.5307168797875903 27.06631344449854026 16.17568863973623294 0 1 0 I I #
face $-1 $141 $142 $7 $-1 $143 reversed single #
loop $-1 $-1 $144 $41 #
plane-surface $-1 0 2.682265554966119403 13.58921881276772226 1 0 0 0 0 -1 forward_v I I I I #
coedge $-1 $145 $87 $146 $147 forward $42 $-1 #
coedge $-1 $148 $44 $145 $149 forward $26 $-1 #
coedge $-1 $44 $148 $150 $151 forward $26 $-1 #
coedge $-1 $90 $89 $44 $83 reversed $91 $-1 #
edge $-1 $152 -2.682265554966119403 $153 2.682265554966119403 $82 $154 forward 7 unknown #
coedge $-1 $46 $45 $155 $156 forward $16 $-1 #
coedge $-1 $157 $158 $45 $86 reversed $142 $-1 #
edge $-1 $93 -55.26535843989379515 $159 55.26535843989379515 $85 $160 forward 7 unknown #
coedge $-1 $79 $161 $46 $88 reversed $42 $-1 #
edge $-1 $162 -55.26535843989379515 $92 55.26535843989379515 $87 $163 forward 7 unknown #
coedge $-1 $82 $47 $161 $164 forward $91 $-1 #
coedge $-1 $47 $82 $157 $165 reversed $91 $-1 #
loop $-1 $-1 $89 $141 #
vertex $-1 $48 $166 #
vertex $-1 $48 $167 #
straight-curve $-1 110.5307168797875903 2.682265554966119403 15.67568863973623294 0 1 0 I I #
face $-1 $168 $169 $8 $-1 $170 reversed single #
loop $-1 $-1 $171 $49 #
plane-surface $-1 0 51.45036133403095846 13.58921881276772226 1 0 0 0 0 -1 forward_v I I I I #
coedge $-1 $172 $106 $173 $174 forward $50 $-1 #
coedge $-1 $175 $52 $172 $176 forward $30 $-1 #
coedge $-1 $52 $175 $177 $178 forward $30 $-1 #
coedge $-1 $109 $108 $52 $102 reversed $110 $-1 #
edge $-1 $179 -2.682265554966122068 $180 2.682265554966122068 $101 $181 forward 7 unknown #
coedge $-1 $54 $53 $182 $183 forward $19 $-1 #
coedge $-1 $184 $185 $53 $105 reversed $169 $-1 #
edge $-1 $112 -55.26535843989379515 $186 55.26535843989379515 $104 $187 forward 7 unknown #
coedge $-1 $98 $188 $54 $107 reversed $50 $-1 #
edge $-1 $189 -55.26535843989379515 $111 55.26535843989379515 $106 $190 forward 7 unknown #
coedge $-1 $101 $55 $188 $191 forward $110 $-1 #
coedge $-1 $55 $101 $184 $192 reversed $110 $-1 #
loop $-1 $-1 $108 $168 #
vertex $-1 $56 $193 #
vertex $-1 $56 $194 #
straight-curve $-1 110.5307168797875903 51.45036133403095846 15.67568863973623294 0 1 0 I I #
face $-1 $-1 $72 $6 $-1 $195 reversed single #
loop $-1 $-1 $130 $57 #
plane-surface $-1 55.26535843989379515 54.13262688899708053 8.087844319868116472 0 -1 0 0 0 -1 forward_v I I I I #
coedge $-1 $196 $128 $131 $197 forward $58 $-1 #
coedge $-1 $134 $60 $61 $122 reversed $34 $-1 #
coedge $-1 $128 $196 $60 $120 reversed $58 $-1 #
edge $-1 $135 -8.087844319868116472 $198 8.087844319868116472 $119 $199 forward 7 unknown #
coedge $-1 $62 $61 $196 $200 forward $22 $-1 #
edge $-1 $126 -55.26535843989379515 $198 55.26535843989379515 $118 $201 forward 7 unknown #
coedge $-1 $131 $130 $62 $124 reversed $115 $-1 #
edge $-1 $202 -55.26535843989379515 $125 55.26535843989379515 $123 $203 forward 7 unknown #
vertex $-1 $64 $204 #
vertex $-1 $137 $205 #
straight-curve $-1 110.5307168797875903 27.06631344449854026 0 0 -1 0 I I #
coedge $-1 $117 $119 $65 $129 reversed $58 $-1 #
edge $-1 $132 -27.06631344449854026 $135 27.06631344449854026 $128 $206 forward 7 unknown #
coedge $-1 $123 $66 $71 $138 forward $115 $-1 #
coedge $-1 $66 $123 $117 $197 reversed $115 $-1 #
vertex $-1 $67 $207 #
straight-curve $-1 55.26535843989379515 54.13262688899708053 16.17568863973623294 -1 0 0 I I #
coedge $-1 $68 $118 $70 $137 reversed $34 $-1 #
vertex $-1 $129 $208 #
straight-curve $-1 55.26535843989379515 0 16.17568863973623294 1 0 0 I I #
edge $-1 $73 -8.087844319868116472 $126 8.087844319868116472 $70 $209 forward 7 unknown #
edge $-1 $74 -8.087844319868116472 $125 8.087844319868116472 $71 $210 forward 7 unknown #
point $-1 110.5307168797875903 0 16.17568863973623294 #
point $-1 110.5307168797875903 54.13262688899708053 16.17568863973623294 #
face $-1 $-1 $91 $7 $-1 $211 reversed single #
loop $-1 $-1 $157 $76 #
plane-surface $-1 55.26535843989379515 5.364531109932238806 13.58921881276772226 0 -1 0 0 0 -1 forward_v I I I I #
coedge $-1 $212 $155 $158 $213 forward $77 $-1 #
coedge $-1 $161 $79 $80 $149 reversed $42 $-1 #
coedge $-1 $155 $212 $79 $147 reversed $77 $-1 #
edge $-1 $162 -2.086469826968510688 $214 2.086469826968510688 $146 $215 forward 7 unknown #
coedge $-1 $81 $80 $212 $216 forward $26 $-1 #
edge $-1 $153 -55.26535843989379515 $214 55.26535843989379515 $145 $217 forward 7 unknown #
coedge $-1 $158 $157 $81 $151 reversed $142 $-1 #
edge $-1 $218 -55.26535843989379515 $152 55.26535843989379515 $150 $219 forward 7 unknown #
vertex $-1 $83 $220 #
vertex $-1 $164 $221 #
straight-curve $-1 110.5307168797875903 2.682265554966119403 11.50274898579921157 0 -1 0 I I #
coedge $-1 $144 $146 $84 $156 reversed $77 $-1 #
edge $-1 $159 -2.682265554966119403 $162 2.682265554966119403 $155 $222 forward 7 unknown #
coedge $-1 $150 $85 $90 $165 forward $142 $-1 #
coedge $-1 $85 $150 $144 $213 reversed $142 $-1 #
vertex $-1 $86 $223 #
straight-curve $-1 55.26535843989379515 5.364531109932238806 15.67568863973623294 -1 0 0 I I #
coedge $-1 $87 $145 $89 $164 reversed $42 $-1 #
vertex $-1 $156 $224 #
straight-curve $-1 55.26535843989379515 0 15.67568863973623294 1 0 0 I I #
edge $-1 $92 -2.086469826968510688 $153 2.086469826968510688 $89 $225 forward 7 unknown #
edge $-1 $93 -2.086469826968510688 $152 2.086469826968510688 $90 $226 forward 7 unknown #
point $-1 110.5307168797875903 0 15.67568863973623294 #
point $-1 110.5307168797875903 5.364531109932238806 15.67568863973623294 #
face $-1 $-1 $110 $8 $-1 $227 reversed single #
loop $-1 $-1 $184 $95 #
plane-surface $-1 55.26535843989379515 54.13262688899708053 13.58921881276772226 0 -1 0 0 0 -1 forward_v I I I I #
coedge $-1 $228 $182 $185 $229 forward $96 $-1 #
coedge $-1 $188 $98 $99 $176 reversed $50 $-1 #
coedge $-1 $182 $228 $98 $174 reversed $96 $-1 #
edge $-1 $189 -2.086469826968510688 $230 2.086469826968510688 $173 $231 forward 7 unknown #
coedge $-1 $100 $99 $228 $232 forward $30 $-1 #
edge $-1 $180 -55.26535843989379515 $230 55.26535843989379515 $172 $233 forward 7 unknown #
coedge $-1 $185 $184 $100 $178 reversed $169 $-1 #
edge $-1 $234 -55.26535843989379515 $179 55.26535843989379515 $177 $235 forward 7 unknown #
vertex $-1 $102 $236 #
vertex $-1 $191 $237 #
straight-curve $-1 110.5307168797875903 51.45036133403095846 11.50274898579921157 0 -1 0 I I #
coedge $-1 $171 $173 $103 $183 reversed $96 $-1 #
edge $-1 $186 -2.682265554966122068 $189 2.682265554966122068 $182 $238 forward 7 unknown #
coedge $-1 $177 $104 $109 $192 forward $169 $-1 #
coedge $-1 $104 $177 $171 $229 reversed $169 $-1 #
vertex $-1 $105 $239 #
straight-curve $-1 55.26535843989379515 54.13262688899708053 15.67568863973623294 -1 0 0 I I #
coedge $-1 $106 $172 $108 $191 reversed $50 $-1 #
vertex $-1 $183 $240 #
straight-curve $-1 55.26535843989379515 48.76809577906483639 15.67568863973623294 1 0 0 I I #
edge $-1 $111 -2.086469826968510688 $180 2.086469826968510688 $108 $241 forward 7 unknown #
edge $-1 $112 -2.086469826968510688 $179 2.086469826968510688 $109 $242 forward 7 unknown #
point $-1 110.5307168797875903 48.76809577906483639 15.67568863973623294 #
point $-1 110.5307168797875903 54.13262688899708053 15.67568863973623294 #
plane-surface $-1 110.5307168797875903 27.06631344449854026 8.087844319868116472 -1 0 0 0 0 1 forward_v I I I I #
coedge $-1 $119 $117 $121 $200 reversed $58 $-1 #
edge $-1 $132 -8.087844319868116472 $202 8.087844319868116472 $131 $243 forward 7 unknown #
vertex $-1 $200 $244 #
straight-curve $-1 0 0 8.087844319868116472 0 0 -1 I I #
edge $-1 $198 -27.06631344449854026 $202 27.06631344449854026 $196 $245 forward 7 unknown #
straight-curve $-1 55.26535843989379515 0 0 -1 0 0 I I #
vertex $-1 $124 $246 #
straight-curve $-1 55.26535843989379515 54.13262688899708053 0 1 0 0 I I #
point $-1 110.5307168797875903 54.13262688899708053 0 #
point $-1 110.5307168797875903 0 0 #
straight-curve $-1 0 27.06631344449854026 16.17568863973623294 0 -1 0 I I #
point $-1 0 54.13262688899708053 16.17568863973623294 #
point $-1 0 0 16.17568863973623294 #
straight-curve $-1 110.5307168797875903 0 8.087844319868116472 0 0 -1 I I #
straight-curve $-1 110.5307168797875903 54.13262688899708053 8.087844319868116472 0 0 -1 I I #
plane-surface $-1 110.5307168797875903 2.682265554966119403 13.58921881276772226 -1 0 0 0 0 1 forward_v I I I I #
coedge $-1 $146 $144 $148 $216 reversed $77 $-1 #
edge $-1 $159 -2.086469826968510688 $218 2.086469826968510688 $158 $247 forward 7 unknown #
vertex $-1 $216 $248 #
straight-curve $-1 0 0 13.58921881276772226 0 0 -1 I I #
edge $-1 $214 -2.682265554966119403 $218 2.682265554966119403 $212 $249 forward 7 unknown #
straight-curve $-1 55.26535843989379515 0 11.50274898579921157 -1 0 0 I I #
vertex $-1 $151 $250 #
straight-curve $-1 55.26535843989379515 5.364531109932238806 11.50274898579921157 1 0 0 I I #
point $-1 110.5307168797875903 5.364531109932238806 11.50274898579921157 #
point $-1 110.5307168797875903 0 11.50274898579921157 #
straight-curve $-1 0 2.682265554966119403 15.67568863973623294 0 -1 0 I I #
point $-1 0 5.364531109932238806 15.67568863973623294 #
point $-1 0 0 15.67568863973623294 #
straight-curve $-1 110.5307168797875903 0 13.58921881276772226 0 0 -1 I I #
straight-curve $-1 110.5307168797875903 5.364531109932238806 13.58921881276772226 0 0 -1 I I #
plane-surface $-1 110.5307168797875903 51.45036133403095846 13.58921881276772226 -1 0 0 0 0 1 forward_v I I I I #
coedge $-1 $173 $171 $175 $232 reversed $96 $-1 #
edge $-1 $186 -2.086469826968510688 $234 2.086469826968510688 $185 $251 forward 7 unknown #
vertex $-1 $232 $252 #
straight-curve $-1 0 48.76809577906483639 13.58921881276772226 0 0 -1 I I #
edge $-1 $230 -2.682265554966122068 $234 2.682265554966122068 $228 $253 forward 7 unknown #
straight-curve $-1 55.26535843989379515 48.76809577906483639 11.50274898579921157 -1 0 0 I I #
vertex $-1 $178 $254 #
straight-curve $-1 55.26535843989379515 54.13262688899708053 11.50274898579921157 1 0 0 I I #
point $-1 110.5307168797875903 54.13262688899708053 11.50274898579921157 #
point $-1 110.5307168797875903 48.76809577906483639 11.50274898579921157 #
straight-curve $-1 0 51.45036133403095846 15.67568863973623294 0 -1 0 I I #
point $-1 0 54.13262688899708053 15.67568863973623294 #
point $-1 0 48.76809577906483639 15.67568863973623294 #
straight-curve $-1 110.5307168797875903 48.76809577906483639 13.58921881276772226 0 0 -1 I I #
straight-curve $-1 110.5307168797875903 54.13262688899708053 13.58921881276772226 0 0 -1 I I #
straight-curve $-1 0 54.13262688899708053 8.087844319868116472 0 0 -1 I I #
point $-1 0 0 0 #
straight-curve $-1 0 27.06631344449854026 0 0 1 0 I I #
point $-1 0 54.13262688899708053 0 #
straight-curve $-1 0 5.364531109932238806 13.58921881276772226 0 0 -1 I I #
point $-1 0 0 11.50274898579921157 #
straight-curve $-1 0 2.682265554966119403 11.50274898579921157 0 1 0 I I #
point $-1 0 5.364531109932238806 11.50274898579921157 #
straight-curve $-1 0 54.13262688899708053 13.58921881276772226 0 0 -1 I I #
point $-1 0 48.76809577906483639 11.50274898579921157 #
straight-curve $-1 0 51.45036133403095846 11.50274898579921157 0 1 0 I I #
point $-1 0 54.13262688899708053 11.50274898579921157 #
End-of-ACIS-data 