300 0 5 0           
7 Unknown 11 ACIS 3.0 NT 24 Fri Oct 30 18:00:13 1998 
-1 9.9999999999999995e-007 1e-010 
body $5 $6 $-1 $7 #
body $8 $9 $-1 $10 #
body $11 $12 $-1 $13 #
body $14 $15 $-1 $16 #
body $17 $18 $-1 $19 #
display_attribute-st-attrib $-1 $20 $-1 $0 3 #
lump $-1 $-1 $21 $0 #
transform $-1 1 0 0 0 1 0 0 0 1 53.895687734611045 35.5020387341347 7.8054212239319991 1 rotate no_reflect no_shear #
display_attribute-st-attrib $-1 $22 $-1 $1 2 #
lump $-1 $-1 $23 $1 #
transform $-1 1 0 0 0 1 0 0 0 1 53.895687734611045 35.5020387341347 7.8054212239319991 1 rotate no_reflect no_shear #
display_attribute-st-attrib $-1 $24 $-1 $2 1 #
lump $-1 $-1 $25 $2 #
transform $-1 1 0 0 0 1 0 0 0 1 53.895687734611045 35.5020387341347 7.8054212239319991 1 rotate no_reflect no_shear #
display_attribute-st-attrib $-1 $26 $-1 $3 2 #
lump $-1 $-1 $27 $3 #
transform $-1 1 0 0 0 1 0 0 0 1 53.895687734611045 35.5020387341347 7.8054212239319991 1 rotate no_reflect no_shear #
display_attribute-st-attrib $-1 $28 $-1 $4 1 #
lump $-1 $-1 $29 $4 #
transform $-1 1 0 0 0 1 0 0 0 1 53.895687734611045 35.5020387341347 7.8054212239319991 1 rotate no_reflect no_shear #
id_attribute-st-attrib $-1 $-1 $5 $0 1602 #
shell $-1 $-1 $-1 $30 $-1 $6 #
id_attribute-st-attrib $-1 $-1 $8 $1 1610 #
shell $-1 $-1 $-1 $31 $-1 $9 #
id_attribute-st-attrib $-1 $-1 $11 $2 1619 #
shell $-1 $-1 $-1 $32 $-1 $12 #
id_attribute-st-attrib $-1 $-1 $14 $3 1631 #
shell $-1 $-1 $-1 $33 $-1 $15 #
id_attribute-st-attrib $-1 $-1 $17 $4 1638 #
shell $-1 $-1 $-1 $34 $-1 $18 #
face $-1 $35 $36 $21 $-1 $37 reversed single #
face $-1 $38 $39 $23 $-1 $40 forward single #
face $-1 $41 $42 $25 $-1 $43 forward single #
face $-1 $44 $45 $27 $-1 $46 reversed single #
face $-1 $47 $48 $29 $-1 $49 forward single #
face $-1 $50 $51 $21 $-1 $52 reversed single #
loop $-1 $-1 $53 $30 #
plane-surface $-1 0 35.5020387341347 0 0 -1 0 0 0 -1 forward_v I I I I #
face $-1 $54 $55 $23 $-1 $56 reversed single #
loop $-1 $-1 $57 $31 #
plane-surface $-1 0 -35.5020387341347 0 0 1 0 0 0 1 forward_v I I I I #
face $-1 $58 $59 $25 $-1 $60 reversed single #
loop $-1 $-1 $61 $32 #
plane-surface $-1 0 35.5020387341347 0 0 -1 0 0 0 -1 forward_v I I I I #
face $-1 $62 $63 $27 $-1 $64 reversed single #
loop $-1 $-1 $65 $33 #
plane-surface $-1 61.873784101699059 19.012643969685371 156.82549693635849 0 -1 0 -0.74314483375859142 0 -0.66913059716165679 forward_v I I I I #
face $-1 $66 $67 $29 $-1 $68 forward single #
loop $-1 $69 $70 $34 #
cone-surface $-1 51.727895606364982 15.605720337433745 5.5496519557432773 -0.74314483375859142 0 -0.66913059716165679 0.66913059716165679 0 -0.74314483375859142 1 I I 0 1 forward I I I I #
face $-1 $71 $72 $21 $-1 $73 forward single #
loop $-1 $-1 $74 $35 #
plane-surface $-1 0 -35.5020387341347 0 0 1 0 0 0 1 forward_v I I I I #
coedge $-1 $75 $76 $77 $78 reversed $36 $-1 #
face $-1 $79 $80 $23 $-1 $81 reversed single #
loop $-1 $-1 $82 $38 #
plane-surface $-1 0 0 -7.8054212239319991 0 0 1 1 0 0 forward_v I I I I #
coedge $-1 $83 $84 $85 $86 forward $39 $-1 #
face $-1 $87 $88 $25 $-1 $89 reversed single #
loop $-1 $-1 $90 $41 #
plane-surface $-1 0 0 -7.8054212239319991 0 0 1 1 0 0 forward_v I I I I #
coedge $-1 $91 $92 $93 $94 forward $42 $-1 #
face $-1 $95 $96 $27 $-1 $97 reversed single #
loop $-1 $-1 $98 $44 #
plane-surface $-1 -18.230819701985894 15.605720337433745 84.698989499761552 0.74314483375859142 0 0.66913059716165679 0.66913059716165679 0 -0.74314483375859142 forward_v I I I I #
coedge $-1 $99 $100 $101 $102 reversed $45 $-1 #
face $-1 $-1 $103 $29 $-1 $104 forward single #
loop $-1 $105 $106 $47 #
cone-surface $-1 50.634145713093034 15.605720337433745 4.5648351529014537 -0.74314483375859142 0 -0.66913059716165679 0.3345652985808284 0 -0.37157241687929571 1 I I -0.70710678118654746 0.70710678118654746 forward I I I I #
loop $-1 $-1 $107 $34 #
coedge $-1 $70 $70 $108 $109 reversed $48 $-1 #
face $-1 $110 $111 $21 $-1 $112 reversed single #
loop $-1 $-1 $113 $50 #
plane-surface $-1 0 0 7.8054212239319991 0 0 1 1 0 0 forward_v I I I I #
coedge $-1 $114 $115 $116 $117 reversed $51 $-1 #
coedge $-1 $118 $53 $119 $120 reversed $36 $-1 #
coedge $-1 $53 $118 $121 $122 forward $36 $-1 #
coedge $-1 $123 $124 $53 $78 forward $111 $-1 #
edge $-1 $125 $126 $53 $127 forward #
face $-1 $128 $129 $23 $-1 $130 reversed single #
loop $-1 $-1 $131 $54 #
plane-surface $-1 -40.023276743704756 -44.50609843091604 0 0 1 0 0 0 1 forward_v I I I I #
coedge $-1 $132 $133 $84 $134 forward $55 $-1 #
coedge $-1 $135 $57 $136 $137 reversed $39 $-1 #
coedge $-1 $57 $135 $82 $134 reversed $39 $-1 #
coedge $-1 $138 $139 $57 $86 reversed $129 $-1 #
edge $-1 $140 $141 $85 $142 forward #
face $-1 $143 $144 $25 $-1 $145 reversed single #
loop $-1 $-1 $146 $58 #
plane-surface $-1 -41.761708200662468 40.004068582525363 0 1 0 0 0 0 -1 forward_v I I I I #
coedge $-1 $147 $148 $92 $149 forward $59 $-1 #
coedge $-1 $150 $61 $151 $152 reversed $42 $-1 #
coedge $-1 $61 $150 $90 $149 reversed $42 $-1 #
coedge $-1 $153 $154 $61 $94 reversed $155 $-1 #
edge $-1 $156 $157 $93 $158 forward #
face $-1 $159 $160 $27 $-1 $161 forward single #
loop $-1 $-1 $162 $62 #
plane-surface $-1 61.873784101699059 12.198796705182119 156.82549693635849 0 1 0 0.74314483375859142 0 0.66913059716165679 forward_v I I I I #
coedge $-1 $163 $164 $165 $166 reversed $63 $-1 #
coedge $-1 $100 $65 $167 $168 reversed $45 $-1 #
coedge $-1 $65 $99 $163 $169 reversed $45 $-1 #
coedge $-1 $165 $170 $65 $102 forward $160 $-1 #
edge $-1 $171 $172 $101 $173 forward #
loop $-1 $-1 $108 $66 #
plane-surface $-1 -18.230819701985894 15.605720337433745 84.698989499761552 0.74314483375859142 0 0.66913059716165679 0.66913059716165679 0 -0.74314483375859142 forward_v I I I I #
loop $-1 $-1 $174 $47 #
coedge $-1 $106 $106 $107 $175 reversed $67 $-1 #
coedge $-1 $107 $107 $106 $175 forward $69 $-1 #
coedge $-1 $108 $108 $70 $109 forward $103 $-1 #
edge $-1 $176 $176 $108 $177 forward #
face $-1 $178 $179 $21 $-1 $180 reversed single #
loop $-1 $-1 $123 $71 #
plane-surface $-1 0 0 -7.8054212239319991 0 0 1 1 0 0 forward_v I I I I #
coedge $-1 $181 $182 $183 $184 forward $72 $-1 #
coedge $-1 $185 $74 $186 $187 reversed $51 $-1 #
coedge $-1 $74 $185 $188 $189 forward $51 $-1 #
coedge $-1 $124 $123 $74 $117 forward $111 $-1 #
edge $-1 $190 $191 $74 $192 forward #
coedge $-1 $76 $75 $181 $193 reversed $36 $-1 #
coedge $-1 $194 $195 $75 $120 forward $179 $-1 #
edge $-1 $196 $125 $75 $197 forward #
coedge $-1 $183 $198 $76 $122 reversed $199 $-1 #
edge $-1 $200 $126 $121 $201 forward #
coedge $-1 $116 $77 $198 $202 forward $111 $-1 #
coedge $-1 $77 $116 $194 $203 forward $111 $-1 #
vertex $-1 $78 $204 #
vertex $-1 $202 $205 #
straight-curve $-1 0 35.5020387341347 -7.8054212239319991 1 0 0 I I #
face $-1 $206 $207 $23 $-1 $208 reversed single #
loop $-1 $-1 $85 $79 #
plane-surface $-1 -41.761708200662468 -40.00406858252537 0 1 0 0 0 0 -1 forward_v I I I I #
coedge $-1 $209 $210 $211 $212 forward $80 $-1 #
coedge $-1 $213 $82 $214 $215 forward $55 $-1 #
coedge $-1 $82 $213 $138 $216 forward $55 $-1 #
edge $-1 $140 $217 $82 $218 forward #
coedge $-1 $84 $83 $219 $220 forward $39 $-1 #
coedge $-1 $221 $222 $83 $137 forward $223 $-1 #
edge $-1 $224 $141 $136 $225 forward #
coedge $-1 $211 $85 $133 $216 reversed $129 $-1 #
coedge $-1 $85 $211 $221 $226 reversed $129 $-1 #
vertex $-1 $134 $227 #
vertex $-1 $226 $228 #
straight-curve $-1 -41.761708200662468 -35.5020387341347 0 0 0 1 I I #
face $-1 $229 $155 $25 $-1 $230 reversed single #
loop $-1 $-1 $231 $87 #
plane-surface $-1 -40.023276743704756 44.506098430916033 0 0 -1 0 0 0 -1 forward_v I I I I #
coedge $-1 $232 $233 $234 $235 forward $88 $-1 #
coedge $-1 $236 $90 $232 $237 forward $59 $-1 #
coedge $-1 $90 $236 $153 $238 forward $59 $-1 #
edge $-1 $156 $239 $90 $240 forward #
coedge $-1 $92 $91 $241 $242 forward $42 $-1 #
coedge $-1 $243 $244 $91 $152 forward $245 $-1 #
edge $-1 $246 $157 $151 $247 forward #
coedge $-1 $248 $93 $148 $238 reversed $155 $-1 #
coedge $-1 $93 $248 $243 $249 reversed $155 $-1 #
loop $-1 $-1 $93 $143 #
vertex $-1 $149 $250 #
vertex $-1 $249 $251 #
straight-curve $-1 -38.284845286747043 35.5020387341347 0 0 0 1 I I #
face $-1 $-1 $252 $27 $-1 $253 reversed single #
loop $-1 $-1 $101 $95 #
plane-surface $-1 0 0 7.8054212239319991 0 0 1 1 0 0 forward_v I I I I #
coedge $-1 $254 $255 $256 $257 reversed $96 $-1 #
coedge $-1 $258 $98 $100 $169 forward $63 $-1 #
coedge $-1 $98 $258 $254 $259 forward $63 $-1 #
coedge $-1 $256 $101 $98 $166 forward $160 $-1 #
edge $-1 $172 $260 $165 $261 forward #
coedge $-1 $262 $263 $99 $168 forward $252 $-1 #
edge $-1 $264 $171 $167 $265 forward #
edge $-1 $172 $264 $100 $266 forward #
coedge $-1 $101 $256 $262 $267 forward $160 $-1 #
vertex $-1 $102 $268 #
vertex $-1 $102 $269 #
straight-curve $-1 30.936892050849529 19.012643969685371 7.8054212239320009 -1 0 0 I I #
coedge $-1 $174 $174 $-1 $270 reversed $105 $-1 #
edge $-1 $271 $271 $106 $272 forward #
vertex $-1 $109 $273 #
ellipse-curve $-1 52.450073082757648 15.605720337433745 6.1999034600042879 0.74314483375859142 0 0.66913059716165679 0.66913059716165679 0 -0.74314483375859142 1 I I #
face $-1 $-1 $199 $21 $-1 $274 reversed single #
loop $-1 $-1 $119 $110 #
plane-surface $-1 -53.895687734611045 0 0 1 0 0 0 0 -1 forward_v I I I I #
coedge $-1 $275 $113 $118 $193 forward $72 $-1 #
coedge $-1 $113 $275 $185 $276 forward $72 $-1 #
coedge $-1 $186 $121 $113 $184 reversed $199 $-1 #
edge $-1 $277 $200 $183 $278 forward #
coedge $-1 $115 $114 $182 $276 reversed $51 $-1 #
coedge $-1 $198 $183 $114 $187 forward $199 $-1 #
edge $-1 $277 $190 $186 $279 forward #
coedge $-1 $195 $194 $115 $189 reversed $179 $-1 #
edge $-1 $280 $191 $188 $281 forward #
vertex $-1 $187 $282 #
vertex $-1 $203 $283 #
straight-curve $-1 0 -35.5020387341347 -7.8054212239319991 -1 0 0 I I #
edge $-1 $200 $196 $118 $284 forward #
coedge $-1 $188 $119 $124 $203 reversed $179 $-1 #
coedge $-1 $119 $188 $275 $285 reversed $179 $-1 #
vertex $-1 $193 $286 #
straight-curve $-1 -53.895687734611045 35.5020387341347 0 0 0 -1 I I #
coedge $-1 $121 $186 $123 $202 reversed $199 $-1 #
loop $-1 $-1 $186 $178 #
vertex $-1 $184 $287 #
straight-curve $-1 53.895687734611045 35.5020387341347 0 0 0 -1 I I #
edge $-1 $126 $190 $198 $288 forward #
edge $-1 $191 $125 $194 $289 forward #
point $-1 -53.895687734611045 35.5020387341347 -7.8054212239319991 #
point $-1 53.895687734611045 35.5020387341347 -7.8054212239319991 #
face $-1 $-1 $223 $23 $-1 $290 forward single #
loop $-1 $-1 $291 $128 #
plane-surface $-1 -38.284845286747043 -40.00406858252537 0 -1 0 0 0 0 1 forward_v I I I I #
coedge $-1 $292 $131 $213 $293 reversed $80 $-1 #
coedge $-1 $131 $292 $294 $295 reversed $80 $-1 #
coedge $-1 $139 $138 $131 $212 reversed $129 $-1 #
edge $-1 $296 $297 $211 $298 forward #
coedge $-1 $133 $132 $209 $293 forward $55 $-1 #
coedge $-1 $219 $291 $132 $215 reversed $207 $-1 #
edge $-1 $217 $299 $214 $300 forward #
edge $-1 $297 $140 $138 $301 forward #
vertex $-1 $215 $302 #
straight-curve $-1 0 -35.5020387341347 -7.8054212239319991 1 0 0 I I #
coedge $-1 $303 $214 $135 $220 reversed $207 $-1 #
edge $-1 $224 $217 $219 $304 forward #
coedge $-1 $294 $136 $139 $226 forward $223 $-1 #
coedge $-1 $136 $294 $303 $305 forward $223 $-1 #
loop $-1 $-1 $136 $206 #
vertex $-1 $137 $306 #
straight-curve $-1 0 -35.5020387341347 7.8054212239319991 -1 0 0 I I #
edge $-1 $141 $296 $139 $307 forward #
point $-1 -41.761708200662468 -35.5020387341347 -7.8054212239319991 #
point $-1 -41.761708200662468 -35.5020387341347 7.8054212239319991 #
face $-1 $-1 $245 $25 $-1 $308 forward single #
plane-surface $-1 -38.284845286747043 40.004068582525363 0 -1 0 0 0 0 1 forward_v I I I I #
coedge $-1 $309 $310 $248 $311 forward $144 $-1 #
coedge $-1 $241 $146 $147 $237 reversed $88 $-1 #
coedge $-1 $146 $241 $244 $312 reversed $88 $-1 #
coedge $-1 $310 $309 $146 $235 reversed $144 $-1 #
edge $-1 $313 $314 $234 $315 forward #
coedge $-1 $148 $147 $309 $316 forward $59 $-1 #
edge $-1 $239 $314 $232 $317 forward #
edge $-1 $318 $156 $153 $319 forward #
vertex $-1 $237 $320 #
straight-curve $-1 0 35.5020387341347 -7.8054212239319991 -1 0 0 I I #
coedge $-1 $233 $232 $150 $242 reversed $88 $-1 #
edge $-1 $246 $239 $241 $321 forward #
coedge $-1 $322 $151 $154 $249 forward $245 $-1 #
coedge $-1 $151 $322 $233 $312 forward $245 $-1 #
loop $-1 $-1 $151 $229 #
vertex $-1 $152 $323 #
straight-curve $-1 0 35.5020387341347 7.8054212239319991 1 0 0 I I #
coedge $-1 $154 $153 $231 $311 reversed $155 $-1 #
edge $-1 $157 $324 $154 $325 forward #
point $-1 -38.284845286747043 35.502038734134693 -7.8054212239319991 #
point $-1 -38.284845286747043 35.502038734134693 7.8054212239319991 #
loop $-1 $-1 $167 $159 #
plane-surface $-1 53.895687734611045 0 0 -1 0 0 0 0 1 forward_v I I I I #
coedge $-1 $255 $162 $164 $259 reversed $96 $-1 #
coedge $-1 $162 $254 $326 $327 reversed $96 $-1 #
coedge $-1 $170 $165 $162 $257 forward $160 $-1 #
edge $-1 $260 $328 $256 $329 forward #
coedge $-1 $164 $163 $263 $330 reversed $63 $-1 #
edge $-1 $331 $260 $254 $332 forward #
vertex $-1 $166 $333 #
straight-curve $-1 51.004458430904208 7.8028601687168724 7.805421223932008 0 -1 0 I I #
coedge $-1 $326 $167 $170 $267 reversed $252 $-1 #
coedge $-1 $167 $326 $258 $330 forward $252 $-1 #
vertex $-1 $168 $334 #
straight-curve $-1 53.895687734611045 19.012643969685371 78.412748468179245 0 0 1 I I #
straight-curve $-1 -18.230819701985894 19.012643969685371 84.698989499761552 0.66913059716165679 0 -0.74314483375859142 I I #
edge $-1 $328 $171 $262 $335 forward #
point $-1 53.895687734611045 19.012643969685371 7.8054212239319991 #
point $-1 51.004458430904208 19.012643969685371 7.8054212239320009 #
edge $-1 $336 $336 $174 $-1 forward #
vertex $-1 $175 $337 #
ellipse-curve $-1 51.00571812997233 15.605720337433745 4.8994004514822818 0.74314483375859142 0 0.66913059716165679 0.66913059716165679 0 -0.74314483375859142 1 I I #
point $-1 53.119203679919281 15.605720337433745 5.4567586262456818 #
plane-surface $-1 53.895687734611045 0 0 -1 0 0 0 0 1 forward_v I I I I #
coedge $-1 $182 $181 $195 $285 forward $72 $-1 #
edge $-1 $280 $277 $185 $338 forward #
vertex $-1 $184 $339 #
straight-curve $-1 53.895687734611045 0 7.8054212239319991 0 1 0 I I #
straight-curve $-1 53.895687734611045 -35.5020387341347 0 0 0 -1 I I #
vertex $-1 $285 $340 #
straight-curve $-1 -53.895687734611045 -35.5020387341347 0 0 0 -1 I I #
point $-1 53.895687734611045 -35.5020387341347 -7.8054212239319991 #
point $-1 -53.895687734611045 -35.5020387341347 -7.8054212239319991 #
straight-curve $-1 0 35.5020387341347 7.8054212239319991 -1 0 0 I I #
edge $-1 $196 $280 $195 $341 forward #
point $-1 -53.895687734611045 35.5020387341347 7.8054212239319991 #
point $-1 53.895687734611045 35.5020387341347 7.8054212239319991 #
straight-curve $-1 53.895687734611045 0 -7.8054212239319991 0 -1 0 I I #
straight-curve $-1 -53.895687734611045 0 -7.8054212239319991 0 1 0 I I #
plane-surface $-1 0 0 7.8054212239319991 0 0 1 1 0 0 forward_v I I I I #
coedge $-1 $214 $303 $292 $342 forward $207 $-1 #
coedge $-1 $210 $209 $291 $342 reversed $80 $-1 #
edge $-1 $299 $297 $209 $343 forward #
coedge $-1 $222 $221 $210 $295 forward $223 $-1 #
edge $-1 $296 $344 $210 $345 forward #
vertex $-1 $226 $346 #
vertex $-1 $216 $347 #
straight-curve $-1 -41.761708200662468 -44.50609843091604 0 0 0 -1 I I #
vertex $-1 $342 $348 #
straight-curve $-1 -38.284845286747043 -40.00406858252537 -7.8054212239319991 0 -1 0 I I #
straight-curve $-1 -41.761708200662468 -40.00406858252537 -7.8054212239319991 0 1 0 I I #
point $-1 -38.284845286747043 -35.5020387341347 -7.8054212239319991 #
coedge $-1 $291 $219 $222 $305 reversed $207 $-1 #
straight-curve $-1 -38.284845286747043 -35.5020387341347 0 0 0 -1 I I #
edge $-1 $344 $224 $303 $349 forward #
point $-1 -38.284845286747043 -35.5020387341347 7.8054212239319991 #
straight-curve $-1 -41.761708200662468 -40.00406858252537 7.8054212239319991 0 -1 0 I I #
plane-surface $-1 0 0 7.8054212239319991 0 0 1 1 0 0 forward_v I I I I #
coedge $-1 $234 $231 $236 $316 reversed $144 $-1 #
coedge $-1 $231 $234 $322 $350 reversed $144 $-1 #
edge $-1 $324 $318 $248 $351 forward #
edge $-1 $313 $246 $233 $352 forward #
vertex $-1 $350 $353 #
vertex $-1 $316 $354 #
straight-curve $-1 -41.761708200662468 44.506098430916033 0 0 0 -1 I I #
edge $-1 $314 $318 $309 $355 forward #
straight-curve $-1 -41.761708200662468 40.004068582525363 -7.8054212239319991 0 1 0 I I #
vertex $-1 $238 $356 #
straight-curve $-1 -38.284845286747043 40.004068582525363 -7.8054212239319991 0 -1 0 I I #
point $-1 -41.761708200662468 35.502038734134693 -7.8054212239319991 #
straight-curve $-1 -41.761708200662468 35.5020387341347 0 0 0 -1 I I #
coedge $-1 $244 $243 $310 $350 forward $245 $-1 #
point $-1 -41.761708200662468 35.502038734134693 7.8054212239319991 #
vertex $-1 $249 $357 #
straight-curve $-1 -38.284845286747043 40.004068582525363 7.8054212239319991 0 1 0 I I #
coedge $-1 $263 $262 $255 $327 forward $252 $-1 #
edge $-1 $328 $331 $326 $358 forward #
vertex $-1 $267 $359 #
straight-curve $-1 30.936892050849529 12.198796705182119 7.8054212239320009 1 0 0 I I #
edge $-1 $331 $264 $263 $360 forward #
vertex $-1 $330 $361 #
straight-curve $-1 -18.230819701985894 12.198796705182119 84.698989499761552 -0.66913059716165679 0 0.74314483375859142 I I #
point $-1 51.004458430904208 12.198796705182119 7.8054212239320009 #
point $-1 53.895687734611045 19.012643969685371 4.5943856960765999 #
straight-curve $-1 53.895687734611045 0 7.8054212239319991 0 1 0 I I #
vertex $-1 $270 $362 #
point $-1 51.674848727133984 15.605720337433745 4.1562556177236907 #
straight-curve $-1 0 -35.5020387341347 7.8054212239319991 1 0 0 I I #
point $-1 53.895687734611045 -35.5020387341347 7.8054212239319991 #
point $-1 -53.895687734611045 -35.5020387341347 7.8054212239319991 #
straight-curve $-1 -53.895687734611045 0 7.8054212239319991 0 -1 0 I I #
edge $-1 $344 $299 $291 $363 forward #
straight-curve $-1 -40.023276743704756 -44.50609843091604 -7.8054212239319991 -1 0 0 I I #
vertex $-1 $305 $364 #
straight-curve $-1 -40.023276743704756 -44.50609843091604 7.8054212239319991 1 0 0 I I #
point $-1 -41.761708200662468 -44.50609843091604 7.8054212239319991 #
point $-1 -41.761708200662468 -44.50609843091604 -7.8054212239319991 #
point $-1 -38.284845286747043 -44.50609843091604 -7.8054212239319991 #
straight-curve $-1 -38.284845286747043 -40.00406858252537 7.8054212239319991 0 1 0 I I #
edge $-1 $324 $313 $310 $365 forward #
straight-curve $-1 -38.284845286747043 44.506098430916033 0 0 0 -1 I I #
straight-curve $-1 -41.761708200662468 40.004068582525363 7.8054212239319991 0 -1 0 I I #
point $-1 -41.761708200662468 44.506098430916033 7.8054212239319991 #
point $-1 -41.761708200662468 44.506098430916033 -7.8054212239319991 #
straight-curve $-1 -40.023276743704756 44.506098430916033 -7.8054212239319991 1 0 0 I I #
point $-1 -38.284845286747043 44.506098430916033 -7.8054212239319991 #
point $-1 -38.284845286747043 44.506098430916033 7.8054212239319991 #
straight-curve $-1 53.895687734611045 12.198796705182119 78.412748468179245 0 0 -1 I I #
point $-1 53.895687734611045 12.198796705182119 7.8054212239319991 #
straight-curve $-1 53.895687734611059 7.8028601687168724 4.5943856960765856 0 1 0 I I #
point $-1 53.895687734611045 12.198796705182119 4.5943856960765999 #
point $-1 50.262573296213738 15.605720337433745 4.2302698543206256 #
straight-curve $-1 -38.284845286747043 -44.50609843091604 0 0 0 -1 I I #
point $-1 -38.284845286747043 -44.50609843091604 7.8054212239319991 #
straight-curve $-1 -40.023276743704756 44.506098430916033 7.8054212239319991 -1 0 0 I I #
End-of-ACIS-data 