300 0 4 0           
7 Unknown 11 ACIS 3.0 NT 24 Fri Oct 30 19:13:30 1998 
-1 9.9999999999999995e-007 1e-010 
body $4 $5 $-1 $6 #
body $7 $8 $-1 $9 #
body $10 $11 $-1 $12 #
body $13 $14 $-1 $15 #
display_attribute-st-attrib $-1 $16 $-1 $0 1 #
lump $-1 $-1 $17 $0 #
transform $-1 1 0 0 0 1 0 0 0 1 61.533860286263618 40.425832605864684 8.1780668536788621 1 rotate no_reflect no_shear #
display_attribute-st-attrib $-1 $18 $-1 $1 1 #
lump $-1 $-1 $19 $1 #
transform $-1 1 0 0 0 1 0 0 0 1 61.533860286263618 3.3700139554781563 1.5057057259303326 1 rotate no_reflect no_shear #
display_attribute-st-attrib $-1 $20 $-1 $2 1 #
lump $-1 $-1 $21 $2 #
transform $-1 0.66913059716165679 0 -0.74314483375859142 0 1 0 0.74314483375859142 0 0.66913059716165679 132.17648396042773 19.216602868025841 184.09498213258018 1 rotate no_reflect no_shear #
display_attribute-st-attrib $-1 $22 $-1 $3 1 #
lump $-1 $-1 $23 $3 #
transform $-1 0.66913059716165679 0 -0.74314483375859142 0 -1 0 -0.74314483375859142 0 -0.66913059716165679 117.53474898264575 19.216602868025841 10.800096671104498 1 rotate no_reflect no_shear #
id_attribute-st-attrib $-1 $-1 $4 $0 3486 #
shell $-1 $-1 $-1 $24 $-1 $5 #
id_attribute-st-attrib $-1 $-1 $7 $1 3491 #
shell $-1 $-1 $-1 $25 $-1 $8 #
id_attribute-st-attrib $-1 $-1 $10 $2 3501 #
shell $-1 $-1 $-1 $26 $-1 $11 #
id_attribute-st-attrib $-1 $-1 $13 $3 3509 #
shell $-1 $-1 $-1 $27 $-1 $14 #
face $-1 $28 $29 $17 $-1 $30 forward single #
face $-1 $31 $32 $19 $-1 $33 forward single #
face $-1 $34 $35 $21 $-1 $36 forward single #
face $-1 $37 $38 $23 $-1 $39 forward single #
face $-1 $40 $41 $17 $-1 $42 reversed single #
loop $-1 $-1 $43 $24 #
plane-surface $-1 0 0 8.1780668536788621 0 0 1 1 0 0 forward_v I I I I #
face $-1 $44 $45 $19 $-1 $46 reversed single #
loop $-1 $-1 $47 $25 #
plane-surface $-1 0 0 1.5057057259303326 0 0 1 1 0 0 forward_v I I I I #
face $-1 $48 $49 $21 $-1 $50 reversed single #
loop $-1 $-1 $51 $26 #
plane-surface $-1 0 0 123.06772057252724 0 0 1 1 0 0 forward_v I I I I #
face $-1 $52 $53 $23 $-1 $54 forward single #
loop $-1 $55 $56 $27 #
cone-surface $-1 0 0 -2.1350596636860262 0 0 1 1 0 0 1 I I 0 1 forward I I I I #
face $-1 $57 $58 $17 $-1 $59 reversed single #
loop $-1 $-1 $60 $28 #
plane-surface $-1 0 0 -8.1780668536788621 0 0 1 1 0 0 forward_v I I I I #
coedge $-1 $61 $62 $63 $64 forward $29 $-1 #
face $-1 $65 $66 $19 $-1 $67 reversed single #
loop $-1 $-1 $68 $31 #
plane-surface $-1 0 0 -1.5057057259303326 0 0 1 1 0 0 forward_v I I I I #
coedge $-1 $69 $70 $71 $72 forward $32 $-1 #
face $-1 $73 $74 $21 $-1 $75 reversed single #
loop $-1 $-1 $76 $34 #
plane-surface $-1 0 0 -123.06772057252724 0 0 1 1 0 0 forward_v I I I I #
coedge $-1 $77 $78 $79 $80 forward $35 $-1 #
face $-1 $-1 $81 $23 $-1 $82 forward single #
loop $-1 $-1 $83 $37 #
plane-surface $-1 0 0 -3.7701193273720519 0 0 -1 -1 0 0 forward_v I I I I #
loop $-1 $-1 $84 $27 #
coedge $-1 $56 $56 $83 $85 reversed $38 $-1 #
face $-1 $86 $87 $17 $-1 $88 reversed single #
loop $-1 $-1 $89 $40 #
plane-surface $-1 0 -40.425832605864684 0 0 1 0 0 0 1 forward_v I I I I #
coedge $-1 $90 $91 $92 $93 forward $41 $-1 #
coedge $-1 $94 $43 $95 $96 forward $29 $-1 #
coedge $-1 $43 $94 $97 $98 forward $29 $-1 #
coedge $-1 $99 $100 $43 $64 reversed $101 $-1 #
edge $-1 $102 $103 $63 $104 forward #
face $-1 $105 $106 $19 $-1 $107 reversed single #
loop $-1 $-1 $108 $44 #
plane-surface $-1 0 -3.3700139554781563 0 0 1 0 0 0 1 forward_v I I I I #
coedge $-1 $109 $110 $111 $112 forward $45 $-1 #
coedge $-1 $113 $47 $114 $115 forward $32 $-1 #
coedge $-1 $47 $113 $116 $117 forward $32 $-1 #
coedge $-1 $118 $119 $47 $72 reversed $120 $-1 #
edge $-1 $121 $122 $71 $123 forward #
face $-1 $124 $125 $21 $-1 $126 reversed single #
loop $-1 $-1 $127 $48 #
plane-surface $-1 0 -9.5712735724218376 0 0 1 0 0 0 1 forward_v I I I I #
coedge $-1 $128 $129 $130 $131 forward $49 $-1 #
coedge $-1 $132 $51 $133 $134 forward $35 $-1 #
coedge $-1 $51 $132 $135 $136 forward $35 $-1 #
coedge $-1 $137 $138 $51 $80 reversed $139 $-1 #
edge $-1 $140 $141 $79 $142 forward #
loop $-1 $143 $144 $52 #
cone-surface $-1 0 0 0 0 0 1 0.5 0 0 1 I I -0.70710678118654746 0.70710678118654746 forward I I I I #
coedge $-1 $83 $83 $56 $85 forward $53 $-1 #
coedge $-1 $84 $84 $144 $145 forward $55 $-1 #
edge $-1 $146 $146 $83 $147 forward #
face $-1 $148 $149 $17 $-1 $150 reversed single #
loop $-1 $-1 $151 $57 #
plane-surface $-1 -61.533860286263618 0 0 1 0 0 0 0 -1 forward_v I I I I #
coedge $-1 $152 $97 $153 $154 forward $58 $-1 #
coedge $-1 $155 $60 $152 $156 forward $41 $-1 #
coedge $-1 $60 $155 $157 $158 forward $41 $-1 #
coedge $-1 $100 $99 $60 $93 reversed $101 $-1 #
edge $-1 $159 $160 $92 $161 forward #
coedge $-1 $62 $61 $162 $163 forward $29 $-1 #
coedge $-1 $164 $165 $61 $96 reversed $149 $-1 #
edge $-1 $103 $166 $95 $167 forward #
coedge $-1 $89 $168 $62 $98 reversed $58 $-1 #
edge $-1 $169 $102 $97 $170 forward #
coedge $-1 $92 $63 $168 $171 forward $101 $-1 #
coedge $-1 $63 $92 $164 $172 reversed $101 $-1 #
loop $-1 $-1 $99 $148 #
vertex $-1 $64 $173 #
vertex $-1 $64 $174 #
straight-curve $-1 61.533860286263618 0 8.1780668536788621 0 1 0 I I #
face $-1 $175 $176 $19 $-1 $177 reversed single #
loop $-1 $-1 $178 $65 #
plane-surface $-1 -61.533860286263618 0 0 1 0 0 0 0 -1 forward_v I I I I #
coedge $-1 $179 $116 $180 $181 forward $66 $-1 #
coedge $-1 $182 $68 $179 $183 forward $45 $-1 #
coedge $-1 $68 $182 $184 $185 forward $45 $-1 #
coedge $-1 $119 $118 $68 $112 reversed $120 $-1 #
edge $-1 $186 $187 $111 $188 forward #
coedge $-1 $70 $69 $189 $190 forward $32 $-1 #
coedge $-1 $191 $192 $69 $115 reversed $176 $-1 #
edge $-1 $122 $193 $114 $194 forward #
coedge $-1 $108 $195 $70 $117 reversed $66 $-1 #
edge $-1 $196 $121 $116 $197 forward #
coedge $-1 $111 $71 $195 $198 forward $120 $-1 #
coedge $-1 $71 $111 $191 $199 reversed $120 $-1 #
loop $-1 $-1 $118 $175 #
vertex $-1 $72 $200 #
vertex $-1 $72 $201 #
straight-curve $-1 61.533860286263618 0 1.5057057259303326 0 1 0 I I #
face $-1 $202 $203 $21 $-1 $204 reversed single #
loop $-1 $-1 $205 $73 #
plane-surface $-1 -246.13544114505447 0 0 1 0 0 0 0 -1 forward_v I I I I #
coedge $-1 $206 $135 $207 $208 forward $74 $-1 #
coedge $-1 $209 $76 $206 $210 forward $49 $-1 #
coedge $-1 $76 $209 $211 $212 forward $49 $-1 #
coedge $-1 $138 $137 $76 $131 reversed $139 $-1 #
edge $-1 $213 $214 $130 $215 forward #
coedge $-1 $78 $77 $216 $217 forward $35 $-1 #
coedge $-1 $218 $219 $77 $134 reversed $203 $-1 #
edge $-1 $141 $220 $133 $221 forward #
coedge $-1 $127 $222 $78 $136 reversed $74 $-1 #
edge $-1 $223 $140 $135 $224 forward #
coedge $-1 $130 $79 $222 $225 forward $139 $-1 #
coedge $-1 $79 $130 $218 $226 reversed $139 $-1 #
loop $-1 $-1 $137 $202 #
vertex $-1 $80 $227 #
vertex $-1 $80 $228 #
straight-curve $-1 246.13544114505447 0 123.06772057252724 0 1 0 I I #
loop $-1 $-1 $229 $52 #
coedge $-1 $144 $144 $84 $145 reversed $81 $-1 #
edge $-1 $230 $230 $144 $231 forward #
vertex $-1 $85 $232 #
ellipse-curve $-1 0 0 -3.7701193273720519 0 0 -1 1 0 0 1 I I #
face $-1 $-1 $101 $17 $-1 $233 reversed single #
loop $-1 $-1 $164 $86 #
plane-surface $-1 0 40.425832605864684 0 0 -1 0 0 0 -1 forward_v I I I I #
coedge $-1 $234 $162 $165 $235 forward $87 $-1 #
coedge $-1 $168 $89 $90 $156 reversed $58 $-1 #
coedge $-1 $162 $234 $89 $154 reversed $87 $-1 #
edge $-1 $169 $236 $153 $237 forward #
coedge $-1 $91 $90 $234 $238 forward $41 $-1 #
edge $-1 $160 $236 $152 $239 forward #
coedge $-1 $165 $164 $91 $158 reversed $149 $-1 #
edge $-1 $240 $159 $157 $241 forward #
vertex $-1 $93 $242 #
vertex $-1 $171 $243 #
straight-curve $-1 61.533860286263618 0 -8.1780668536788621 0 -1 0 I I #
coedge $-1 $151 $153 $94 $163 reversed $87 $-1 #
edge $-1 $166 $169 $162 $244 forward #
coedge $-1 $157 $95 $100 $172 forward $149 $-1 #
coedge $-1 $95 $157 $151 $235 reversed $149 $-1 #
vertex $-1 $96 $245 #
straight-curve $-1 0 40.425832605864684 8.1780668536788621 -1 0 0 I I #
coedge $-1 $97 $152 $99 $171 reversed $58 $-1 #
vertex $-1 $163 $246 #
straight-curve $-1 0 -40.425832605864684 8.1780668536788621 1 0 0 I I #
edge $-1 $102 $160 $99 $247 forward #
edge $-1 $103 $159 $100 $248 forward #
point $-1 61.533860286263618 -40.425832605864684 8.1780668536788621 #
point $-1 61.533860286263618 40.425832605864684 8.1780668536788621 #
face $-1 $-1 $120 $19 $-1 $249 reversed single #
loop $-1 $-1 $191 $105 #
plane-surface $-1 0 3.3700139554781563 0 0 -1 0 0 0 -1 forward_v I I I I #
coedge $-1 $250 $189 $192 $251 forward $106 $-1 #
coedge $-1 $195 $108 $109 $183 reversed $66 $-1 #
coedge $-1 $189 $250 $108 $181 reversed $106 $-1 #
edge $-1 $196 $252 $180 $253 forward #
coedge $-1 $110 $109 $250 $254 forward $45 $-1 #
edge $-1 $187 $252 $179 $255 forward #
coedge $-1 $192 $191 $110 $185 reversed $176 $-1 #
edge $-1 $256 $186 $184 $257 forward #
vertex $-1 $112 $258 #
vertex $-1 $198 $259 #
straight-curve $-1 61.533860286263618 0 -1.5057057259303326 0 -1 0 I I #
coedge $-1 $178 $180 $113 $190 reversed $106 $-1 #
edge $-1 $193 $196 $189 $260 forward #
coedge $-1 $184 $114 $119 $199 forward $176 $-1 #
coedge $-1 $114 $184 $178 $251 reversed $176 $-1 #
vertex $-1 $115 $261 #
straight-curve $-1 0 3.3700139554781563 1.5057057259303326 -1 0 0 I I #
coedge $-1 $116 $179 $118 $198 reversed $66 $-1 #
vertex $-1 $190 $262 #
straight-curve $-1 0 -3.3700139554781563 1.5057057259303326 1 0 0 I I #
edge $-1 $121 $187 $118 $263 forward #
edge $-1 $122 $186 $119 $264 forward #
point $-1 61.533860286263618 -3.3700139554781563 1.5057057259303326 #
point $-1 61.533860286263618 3.3700139554781563 1.5057057259303326 #
face $-1 $-1 $139 $21 $-1 $265 reversed single #
loop $-1 $-1 $218 $124 #
plane-surface $-1 0 9.5712735724218376 0 0 -1 0 0 0 -1 forward_v I I I I #
coedge $-1 $266 $216 $219 $267 forward $125 $-1 #
coedge $-1 $222 $127 $128 $210 reversed $74 $-1 #
coedge $-1 $216 $266 $127 $208 reversed $125 $-1 #
edge $-1 $223 $268 $207 $269 forward #
coedge $-1 $129 $128 $266 $270 forward $49 $-1 #
edge $-1 $214 $268 $206 $271 forward #
coedge $-1 $219 $218 $129 $212 reversed $203 $-1 #
edge $-1 $272 $213 $211 $273 forward #
vertex $-1 $131 $274 #
vertex $-1 $225 $275 #
straight-curve $-1 246.13544114505447 0 -123.06772057252724 0 -1 0 I I #
coedge $-1 $205 $207 $132 $217 reversed $125 $-1 #
edge $-1 $220 $223 $216 $276 forward #
coedge $-1 $211 $133 $138 $226 forward $203 $-1 #
coedge $-1 $133 $211 $205 $267 reversed $203 $-1 #
vertex $-1 $134 $277 #
straight-curve $-1 0 9.5712735724218376 123.06772057252724 -1 0 0 I I #
coedge $-1 $135 $206 $137 $225 reversed $74 $-1 #
vertex $-1 $217 $278 #
straight-curve $-1 0 -9.5712735724218376 123.06772057252724 1 0 0 I I #
edge $-1 $140 $214 $137 $279 forward #
edge $-1 $141 $213 $138 $280 forward #
point $-1 246.13544114505447 -9.5712735724218376 123.06772057252724 #
point $-1 246.13544114505447 9.5712735724218376 123.06772057252724 #
coedge $-1 $229 $229 $-1 $281 reversed $143 $-1 #
vertex $-1 $145 $282 #
ellipse-curve $-1 0 0 -0.5 0 0 -1 1 0 0 1 I I #
point $-1 1 0 -3.7701193273720519 #
plane-surface $-1 61.533860286263618 0 0 -1 0 0 0 0 1 forward_v I I I I #
coedge $-1 $153 $151 $155 $238 reversed $87 $-1 #
edge $-1 $166 $240 $165 $283 forward #
vertex $-1 $238 $284 #
straight-curve $-1 -61.533860286263618 -40.425832605864684 0 0 0 -1 I I #
edge $-1 $236 $240 $234 $285 forward #
straight-curve $-1 0 -40.425832605864684 -8.1780668536788621 -1 0 0 I I #
vertex $-1 $158 $286 #
straight-curve $-1 0 40.425832605864684 -8.1780668536788621 1 0 0 I I #
point $-1 61.533860286263618 40.425832605864684 -8.1780668536788621 #
point $-1 61.533860286263618 -40.425832605864684 -8.1780668536788621 #
straight-curve $-1 -61.533860286263618 0 8.1780668536788621 0 -1 0 I I #
point $-1 -61.533860286263618 40.425832605864684 8.1780668536788621 #
point $-1 -61.533860286263618 -40.425832605864684 8.1780668536788621 #
straight-curve $-1 61.533860286263618 -40.425832605864684 0 0 0 -1 I I #
straight-curve $-1 61.533860286263618 40.425832605864684 0 0 0 -1 I I #
plane-surface $-1 61.533860286263618 0 0 -1 0 0 0 0 1 forward_v I I I I #
coedge $-1 $180 $178 $182 $254 reversed $106 $-1 #
edge $-1 $193 $256 $192 $287 forward #
vertex $-1 $254 $288 #
straight-curve $-1 -61.533860286263618 -3.3700139554781563 0 0 0 -1 I I #
edge $-1 $252 $256 $250 $289 forward #
straight-curve $-1 0 -3.3700139554781563 -1.5057057259303326 -1 0 0 I I #
vertex $-1 $185 $290 #
straight-curve $-1 0 3.3700139554781563 -1.5057057259303326 1 0 0 I I #
point $-1 61.533860286263618 3.3700139554781563 -1.5057057259303326 #
point $-1 61.533860286263618 -3.3700139554781563 -1.5057057259303326 #
straight-curve $-1 -61.533860286263618 0 1.5057057259303326 0 -1 0 I I #
point $-1 -61.533860286263618 3.3700139554781563 1.5057057259303326 #
point $-1 -61.533860286263618 -3.3700139554781563 1.5057057259303326 #
straight-curve $-1 61.533860286263618 -3.3700139554781563 0 0 0 -1 I I #
straight-curve $-1 61.533860286263618 3.3700139554781563 0 0 0 -1 I I #
plane-surface $-1 246.13544114505447 0 0 -1 0 0 0 0 1 forward_v I I I I #
coedge $-1 $207 $205 $209 $270 reversed $125 $-1 #
edge $-1 $220 $272 $219 $291 forward #
vertex $-1 $270 $292 #
straight-curve $-1 -246.13544114505447 -9.5712735724218376 0 0 0 -1 I I #
edge $-1 $268 $272 $266 $293 forward #
straight-curve $-1 0 -9.5712735724218376 -123.06772057252724 -1 0 0 I I #
vertex $-1 $212 $294 #
straight-curve $-1 0 9.5712735724218376 -123.06772057252724 1 0 0 I I #
point $-1 246.13544114505447 9.5712735724218376 -123.06772057252724 #
point $-1 246.13544114505447 -9.5712735724218376 -123.06772057252724 #
straight-curve $-1 -246.13544114505447 0 123.06772057252724 0 -1 0 I I #
point $-1 -246.13544114505447 9.5712735724218376 123.06772057252724 #
point $-1 -246.13544114505447 -9.5712735724218376 123.06772057252724 #
straight-curve $-1 246.13544114505447 -9.5712735724218376 0 0 0 -1 I I #
straight-curve $-1 246.13544114505447 9.5712735724218376 0 0 0 -1 I I #
edge $-1 $295 $295 $229 $-1 forward #
point $-1 1 0 -0.5 #
straight-curve $-1 -61.533860286263618 40.425832605864684 0 0 0 -1 I I #
point $-1 -61.533860286263618 -40.425832605864684 -8.1780668536788621 #
straight-curve $-1 -61.533860286263618 0 -8.1780668536788621 0 1 0 I I #
point $-1 -61.533860286263618 40.425832605864684 -8.1780668536788621 #
straight-curve $-1 -61.533860286263618 3.3700139554781563 0 0 0 -1 I I #
point $-1 -61.533860286263618 -3.3700139554781563 -1.5057057259303326 #
straight-curve $-1 -61.533860286263618 0 -1.5057057259303326 0 1 0 I I #
point $-1 -61.533860286263618 3.3700139554781563 -1.5057057259303326 #
straight-curve $-1 -246.13544114505447 9.5712735724218376 0 0 0 -1 I I #
point $-1 -246.13544114505447 -9.5712735724218376 -123.06772057252724 #
straight-curve $-1 -246.13544114505447 0 -123.06772057252724 0 1 0 I I #
point $-1 -246.13544114505447 9.5712735724218376 -123.06772057252724 #
vertex $-1 $281 $296 #
point $-1 0 0 0.5 #
End-of-ACIS-data 