600 0 7 0           
94 GICL ACIS Healer - Source: /gicl/data5/repository/Drexel/SM99-DATA/part129.smdg.feat.sat - 6 0 18 ACIS 6.0.3 Solaris 24 Sat Apr 13 20:45:52 2002 
1 9.999999999999999547e-07 1.000000000000000036e-10 
body $-1 $7 $-1 $-1 #
body $-1 $8 $-1 $-1 #
body $-1 $9 $-1 $-1 #
body $-1 $10 $-1 $-1 #
body $-1 $11 $-1 $-1 #
body $-1 $12 $-1 $-1 #
body $-1 $13 $-1 $-1 #
lump $-1 $-1 $14 $0 #
lump $-1 $-1 $15 $1 #
lump $-1 $-1 $16 $2 #
lump $-1 $-1 $17 $3 #
lump $-1 $-1 $18 $4 #
lump $-1 $-1 $19 $5 #
lump $-1 $-1 $20 $6 #
shell $-1 $-1 $-1 $21 $-1 $7 #
shell $-1 $-1 $-1 $22 $-1 $8 #
shell $-1 $-1 $-1 $23 $-1 $9 #
shell $-1 $-1 $-1 $24 $-1 $10 #
shell $-1 $-1 $-1 $25 $-1 $11 #
shell $-1 $-1 $-1 $26 $-1 $12 #
shell $-1 $-1 $-1 $27 $-1 $13 #
face $-1 $28 $29 $14 $-1 $30 forward single #
face $-1 $31 $32 $15 $-1 $33 forward single #
face $-1 $34 $35 $16 $-1 $36 forward single #
face $-1 $37 $38 $17 $-1 $39 forward single #
face $-1 $40 $41 $18 $-1 $42 forward single #
face $-1 $43 $44 $19 $-1 $45 forward single #
face $-1 $46 $47 $20 $-1 $48 forward single #
face $-1 $49 $50 $14 $-1 $51 reversed single #
loop $-1 $-1 $52 $21 #
plane-surface $-1 42.2217474898525964 17.37113016938385712 9.635948856616561642 0 0 1 1 0 0 forward_v I I I I #
face $-1 $53 $54 $15 $-1 $55 reversed single #
loop $-1 $-1 $56 $22 #
plane-surface $-1 1.82502230552645206 17.37113016938385712 9.635948856616561642 0 0 1 1 0 0 forward_v I I I I #
face $-1 $57 $58 $16 $-1 $59 reversed single #
loop $-1 $-1 $60 $23 #
plane-surface $-1 82.61847267417874718 17.37113016938385712 9.635948856616561642 0 0 1 1 0 0 forward_v I I I I #
face $-1 $61 $62 $17 $-1 $63 reversed single #
loop $-1 $-1 $64 $24 #
plane-surface $-1 28.4641659669734608 124.514031457705812 153.2917518924103319 0 0.6819983681709311796 0.7313536940579346002 1 0 0 forward_v I I I I #
face $-1 $65 $66 $18 $-1 $67 forward single #
loop $-1 $68 $69 $25 #
cone-surface $-1 28.4641659669734608 32.18475893034257496 7.15990572332180264 0 -0.6819983681709311796 -0.7313536940579346002 1 0 0 1 I I 0 1 1 forward I I I I #
face $-1 $70 $71 $19 $-1 $72 reversed single #
loop $-1 $-1 $73 $26 #
plane-surface $-1 28.4641659669734608 -115.180651557618333 129.5975870348011085 0 -0.6819983681709311796 0.7313536940579346002 1 0 0 forward_v I I I I #
face $-1 $74 $75 $20 $-1 $76 forward single #
loop $-1 $77 $78 $27 #
cone-surface $-1 28.4641659669734608 2.557501408425139733 7.159905723321804416 0 0.6819983681709311796 -0.7313536940579346002 1 0 0 1 I I 0 1 1 forward I I I I #
face $-1 $79 $80 $14 $-1 $81 reversed single #
loop $-1 $-1 $82 $28 #
plane-surface $-1 42.2217474898525964 17.37113016938385712 0 0 0 1 1 0 0 forward_v I I I I #
coedge $-1 $83 $84 $85 $86 forward $29 $-1 #
face $-1 $87 $88 $15 $-1 $89 reversed single #
loop $-1 $-1 $90 $31 #
plane-surface $-1 1.82502230552645206 17.37113016938385712 6.635948856616561642 0 0 1 1 0 0 forward_v I I I I #
coedge $-1 $91 $92 $93 $94 forward $32 $-1 #
face $-1 $95 $96 $16 $-1 $97 reversed single #
loop $-1 $-1 $98 $34 #
plane-surface $-1 82.61847267417874718 17.37113016938385712 6.635948856616561642 0 0 1 1 0 0 forward_v I I I I #
coedge $-1 $99 $100 $101 $102 forward $35 $-1 #
face $-1 $103 $104 $17 $-1 $105 reversed single #
loop $-1 $-1 $106 $37 #
plane-surface $-1 28.4641659669734608 9.333379900087493297 29.77562790727024833 0 0.6819983681709311796 0.7313536940579346002 1 0 0 forward_v I I I I #
coedge $-1 $107 $108 $109 $110 forward $38 $-1 #
face $-1 $-1 $111 $18 $-1 $112 forward single #
loop $-1 $-1 $113 $40 #
plane-surface $-1 28.4641659669734608 32.83640070132800304 7.858705953138779066 0 0.6819983681709311796 0.7313536940579346002 -1 -0 0 forward_v I I I I #
loop $-1 $-1 $114 $25 #
coedge $-1 $69 $69 $113 $115 reversed $41 $-1 #
face $-1 $116 $117 $19 $-1 $118 reversed single #
loop $-1 $-1 $119 $43 #
plane-surface $-1 28.4641659669734608 -1.421085471520200372e-14 6.0814630496610107 0 -0.6819983681709311796 0.7313536940579346002 1 0 0 forward_v I I I I #
coedge $-1 $120 $121 $122 $123 forward $44 $-1 #
face $-1 $-1 $124 $20 $-1 $125 forward single #
loop $-1 $-1 $126 $46 #
plane-surface $-1 28.4641659669734608 1.905859637439709431 7.858705953138780842 0 -0.6819983681709311796 0.7313536940579346002 -1 0 -0 forward_v I I I I #
loop $-1 $-1 $127 $27 #
coedge $-1 $78 $78 $126 $128 reversed $47 $-1 #
face $-1 $129 $130 $14 $-1 $131 reversed single #
loop $-1 $-1 $132 $49 #
plane-surface $-1 42.2217474898525964 0 4.817974428308280821 0 1 0 0 0 1 forward_v I I I I #
coedge $-1 $133 $134 $135 $136 forward $50 $-1 #
coedge $-1 $137 $52 $138 $139 forward $29 $-1 #
coedge $-1 $52 $137 $140 $141 forward $29 $-1 #
coedge $-1 $142 $143 $52 $86 reversed $144 $-1 #
edge $-1 $145 -17.37113016938385712 $146 17.37113016938385712 $85 $147 forward 7 unknown #
face $-1 $148 $149 $15 $-1 $150 reversed single #
loop $-1 $-1 $151 $53 #
plane-surface $-1 1.82502230552645206 0 8.135948856616561642 0 1 0 0 0 1 forward_v I I I I #
coedge $-1 $152 $153 $154 $155 forward $54 $-1 #
coedge $-1 $156 $56 $157 $158 forward $32 $-1 #
coedge $-1 $56 $156 $159 $160 forward $32 $-1 #
coedge $-1 $161 $162 $56 $94 reversed $163 $-1 #
edge $-1 $164 -17.37113016938385712 $165 17.37113016938385712 $93 $166 forward 7 unknown #
face $-1 $167 $168 $16 $-1 $169 reversed single #
loop $-1 $-1 $170 $57 #
plane-surface $-1 82.61847267417874718 0 8.135948856616561642 0 1 0 0 0 1 forward_v I I I I #
coedge $-1 $171 $172 $173 $174 forward $58 $-1 #
coedge $-1 $175 $60 $176 $177 forward $35 $-1 #
coedge $-1 $60 $175 $178 $179 forward $35 $-1 #
coedge $-1 $180 $181 $60 $102 reversed $182 $-1 #
edge $-1 $183 -17.37113016938385712 $184 17.37113016938385712 $101 $185 forward 7 unknown #
face $-1 $186 $187 $17 $-1 $188 reversed single #
loop $-1 $-1 $189 $61 #
plane-surface $-1 28.4641659669734608 -56.59241830624344516 206.7143414574586018 0 0.7313536940579346002 -0.6819983681709311796 0 0.6819983681709311796 0.7313536940579346002 forward_v I I I I #
coedge $-1 $190 $191 $192 $193 forward $62 $-1 #
coedge $-1 $194 $64 $195 $196 forward $38 $-1 #
coedge $-1 $64 $194 $197 $198 forward $38 $-1 #
coedge $-1 $199 $200 $64 $110 reversed $201 $-1 #
edge $-1 $202 -168.8869899594103856 $203 168.8869899594103572 $109 $204 forward 7 unknown #
loop $-1 $205 $206 $65 #
cone-surface $-1 28.4641659669734608 31.19211797527167818 6.09542864647585958 0 -0.6819983681709311796 -0.7313536940579346002 0.5 0 0 1 I I -0.7071067811865474617 0.7071067811865474617 0.5 forward I I I I #
coedge $-1 $113 $113 $69 $115 forward $66 $-1 #
coedge $-1 $114 $114 $206 $207 forward $68 $-1 #
edge $-1 $208 0 $208 6.283185307179586232 $113 $209 forward 7 unknown #
face $-1 $210 $211 $19 $-1 $212 reversed single #
loop $-1 $-1 $213 $70 #
plane-surface $-1 28.4641659669734608 -181.1064497639492856 -47.34112651538725913 0 0.7313536940579346002 0.6819983681709311796 0 -0.6819983681709311796 0.7313536940579346002 forward_v I I I I #
coedge $-1 $214 $215 $216 $217 forward $71 $-1 #
coedge $-1 $218 $73 $219 $220 forward $44 $-1 #
coedge $-1 $73 $218 $221 $222 forward $44 $-1 #
coedge $-1 $223 $224 $73 $123 reversed $225 $-1 #
edge $-1 $226 -168.8869899594103572 $227 168.8869899594103856 $122 $228 forward 7 unknown #
loop $-1 $229 $230 $74 #
cone-surface $-1 28.4641659669734608 3.550142363496036069 6.095428646475861356 0 0.6819983681709311796 -0.7313536940579346002 0.5 0 0 1 I I -0.7071067811865474617 0.7071067811865474617 0.5 forward I I I I #
coedge $-1 $126 $126 $78 $128 forward $75 $-1 #
coedge $-1 $127 $127 $230 $231 forward $77 $-1 #
edge $-1 $232 0 $232 6.283185307179586232 $126 $233 forward 7 unknown #
face $-1 $234 $235 $14 $-1 $236 reversed single #
loop $-1 $-1 $237 $79 #
plane-surface $-1 0 17.37113016938385712 4.817974428308280821 1 0 0 0 0 -1 forward_v I I I I #
coedge $-1 $238 $140 $239 $240 forward $80 $-1 #
coedge $-1 $241 $82 $238 $242 forward $50 $-1 #
coedge $-1 $82 $241 $243 $244 forward $50 $-1 #
coedge $-1 $143 $142 $82 $136 reversed $144 $-1 #
edge $-1 $245 -17.37113016938385712 $246 17.37113016938385712 $135 $247 forward 7 unknown #
coedge $-1 $84 $83 $248 $249 forward $29 $-1 #
coedge $-1 $250 $251 $83 $139 reversed $235 $-1 #
edge $-1 $146 -42.2217474898525964 $252 42.2217474898525964 $138 $253 forward 7 unknown #
coedge $-1 $132 $254 $84 $141 reversed $80 $-1 #
edge $-1 $255 -42.2217474898525964 $145 42.2217474898525964 $140 $256 forward 7 unknown #
coedge $-1 $135 $85 $254 $257 forward $144 $-1 #
coedge $-1 $85 $135 $250 $258 reversed $144 $-1 #
loop $-1 $-1 $142 $234 #
vertex $-1 $86 $259 #
vertex $-1 $86 $260 #
straight-curve $-1 84.4434949797051928 17.37113016938385712 9.635948856616561642 0 1 0 I I #
face $-1 $261 $262 $15 $-1 $263 reversed single #
loop $-1 $-1 $264 $87 #
plane-surface $-1 0 17.37113016938385712 8.135948856616561642 1 0 0 0 0 -1 forward_v I I I I #
coedge $-1 $265 $159 $266 $267 forward $88 $-1 #
coedge $-1 $268 $90 $265 $269 forward $54 $-1 #
coedge $-1 $90 $268 $270 $271 forward $54 $-1 #
coedge $-1 $162 $161 $90 $155 reversed $163 $-1 #
edge $-1 $272 -17.37113016938385712 $273 17.37113016938385712 $154 $274 forward 7 unknown #
coedge $-1 $92 $91 $275 $276 forward $32 $-1 #
coedge $-1 $277 $278 $91 $158 reversed $262 $-1 #
edge $-1 $165 -1.82502230552645206 $279 1.82502230552645206 $157 $280 forward 7 unknown #
coedge $-1 $151 $281 $92 $160 reversed $88 $-1 #
edge $-1 $282 -1.82502230552645206 $164 1.82502230552645206 $159 $283 forward 7 unknown #
coedge $-1 $154 $93 $281 $284 forward $163 $-1 #
coedge $-1 $93 $154 $277 $285 reversed $163 $-1 #
loop $-1 $-1 $161 $261 #
vertex $-1 $94 $286 #
vertex $-1 $94 $287 #
straight-curve $-1 3.65004461105290412 17.37113016938385712 9.635948856616561642 0 1 0 I I #
face $-1 $288 $289 $16 $-1 $290 reversed single #
loop $-1 $-1 $291 $95 #
plane-surface $-1 80.79345036865228735 17.37113016938385712 8.135948856616561642 1 0 0 0 0 -1 forward_v I I I I #
coedge $-1 $292 $178 $293 $294 forward $96 $-1 #
coedge $-1 $295 $98 $292 $296 forward $58 $-1 #
coedge $-1 $98 $295 $297 $298 forward $58 $-1 #
coedge $-1 $181 $180 $98 $174 reversed $182 $-1 #
edge $-1 $299 -17.37113016938385712 $300 17.37113016938385712 $173 $301 forward 7 unknown #
coedge $-1 $100 $99 $302 $303 forward $35 $-1 #
coedge $-1 $304 $305 $99 $177 reversed $289 $-1 #
edge $-1 $184 -1.825022305526459832 $306 1.825022305526459832 $176 $307 forward 7 unknown #
coedge $-1 $170 $308 $100 $179 reversed $96 $-1 #
edge $-1 $309 -1.825022305526459832 $183 1.825022305526459832 $178 $310 forward 7 unknown #
coedge $-1 $173 $101 $308 $311 forward $182 $-1 #
coedge $-1 $101 $173 $304 $312 reversed $182 $-1 #
loop $-1 $-1 $180 $288 #
vertex $-1 $102 $313 #
vertex $-1 $102 $314 #
straight-curve $-1 84.44349497970520702 17.37113016938385712 9.635948856616561642 0 1 0 I I #
face $-1 $315 $316 $17 $-1 $317 reversed single #
loop $-1 $-1 $318 $103 #
plane-surface $-1 20.10768958627608072 66.92370567889665267 91.53368989984029724 1 0 0 0 -0.6819983681709311796 -0.7313536940579346002 forward_v I I I I #
coedge $-1 $319 $197 $320 $321 forward $104 $-1 #
coedge $-1 $322 $106 $319 $323 forward $62 $-1 #
coedge $-1 $106 $322 $324 $325 forward $62 $-1 #
coedge $-1 $200 $199 $106 $193 reversed $201 $-1 #
edge $-1 $326 -168.8869899594103856 $327 168.8869899594103572 $192 $328 forward 7 unknown #
coedge $-1 $108 $107 $329 $330 forward $38 $-1 #
coedge $-1 $331 $332 $107 $196 reversed $316 $-1 #
edge $-1 $203 -8.35647638069738008 $333 8.35647638069738008 $195 $334 forward 7 unknown #
coedge $-1 $189 $335 $108 $198 reversed $104 $-1 #
edge $-1 $336 -8.35647638069738008 $202 8.35647638069738008 $197 $337 forward 7 unknown #
coedge $-1 $192 $109 $335 $338 forward $201 $-1 #
coedge $-1 $109 $192 $331 $339 reversed $201 $-1 #
loop $-1 $-1 $199 $315 #
vertex $-1 $110 $340 #
vertex $-1 $110 $341 #
straight-curve $-1 36.82064234767084088 124.514031457705812 153.2917518924103319 0 0.7313536940579346002 -0.6819983681709311796 I I #
loop $-1 $-1 $342 $65 #
coedge $-1 $206 $206 $114 $207 reversed $111 $-1 #
edge $-1 $343 0 $343 6.283185307179586232 $206 $344 forward 7 unknown #
vertex $-1 $115 $345 #
ellipse-curve $-1 28.4641659669734608 32.83640070132800304 7.858705953138779066 0 0.6819983681709311796 0.7313536940579346002 1 0 0 1 I I #
face $-1 $346 $347 $19 $-1 $348 reversed single #
loop $-1 $-1 $349 $116 #
plane-surface $-1 20.10768958627608072 -57.59032577880917358 67.83952504223105962 1 0 0 0 0.6819983681709311796 -0.7313536940579346002 forward_v I I I I #
coedge $-1 $350 $221 $351 $352 forward $117 $-1 #
coedge $-1 $353 $119 $350 $354 forward $71 $-1 #
coedge $-1 $119 $353 $355 $356 forward $71 $-1 #
coedge $-1 $224 $223 $119 $217 reversed $225 $-1 #
edge $-1 $357 -168.8869899594103856 $358 168.8869899594103856 $216 $359 forward 7 unknown #
coedge $-1 $121 $120 $360 $361 forward $44 $-1 #
coedge $-1 $362 $363 $120 $220 reversed $347 $-1 #
edge $-1 $227 -8.35647638069738008 $364 8.35647638069738008 $219 $365 forward 7 unknown #
coedge $-1 $213 $366 $121 $222 reversed $117 $-1 #
edge $-1 $367 -8.35647638069738008 $226 8.35647638069738008 $221 $368 forward 7 unknown #
coedge $-1 $216 $122 $366 $369 forward $225 $-1 #
coedge $-1 $122 $216 $362 $370 reversed $225 $-1 #
loop $-1 $-1 $223 $346 #
vertex $-1 $123 $371 #
vertex $-1 $123 $372 #
straight-curve $-1 36.82064234767084088 -115.180651557618333 129.5975870348011085 0 0.7313536940579346002 0.6819983681709311796 I I #
loop $-1 $-1 $373 $74 #
coedge $-1 $230 $230 $127 $231 reversed $124 $-1 #
edge $-1 $374 0 $374 6.283185307179586232 $230 $375 forward 7 unknown #
vertex $-1 $128 $376 #
ellipse-curve $-1 28.4641659669734608 1.905859637439709431 7.858705953138780842 0 -0.6819983681709311796 0.7313536940579346002 1 0 0 1 I I #
face $-1 $-1 $144 $14 $-1 $377 reversed single #
loop $-1 $-1 $250 $129 #
plane-surface $-1 42.2217474898525964 34.74226033876771425 4.817974428308280821 0 -1 0 0 0 -1 forward_v I I I I #
coedge $-1 $378 $248 $251 $379 forward $130 $-1 #
coedge $-1 $254 $132 $133 $242 reversed $80 $-1 #
coedge $-1 $248 $378 $132 $240 reversed $130 $-1 #
edge $-1 $255 -4.817974428308280821 $380 4.817974428308280821 $239 $381 forward 7 unknown #
coedge $-1 $134 $133 $378 $382 forward $50 $-1 #
edge $-1 $246 -42.2217474898525964 $380 42.2217474898525964 $238 $383 forward 7 unknown #
coedge $-1 $251 $250 $134 $244 reversed $235 $-1 #
edge $-1 $384 -42.2217474898525964 $245 42.2217474898525964 $243 $385 forward 7 unknown #
vertex $-1 $136 $386 #
vertex $-1 $257 $387 #
straight-curve $-1 84.4434949797051928 17.37113016938385712 0 0 -1 0 I I #
coedge $-1 $237 $239 $137 $249 reversed $130 $-1 #
edge $-1 $252 -17.37113016938385712 $255 17.37113016938385712 $248 $388 forward 7 unknown #
coedge $-1 $243 $138 $143 $258 forward $235 $-1 #
coedge $-1 $138 $243 $237 $379 reversed $235 $-1 #
vertex $-1 $139 $389 #
straight-curve $-1 42.2217474898525964 34.74226033876771425 9.635948856616561642 -1 0 0 I I #
coedge $-1 $140 $238 $142 $257 reversed $80 $-1 #
vertex $-1 $249 $390 #
straight-curve $-1 42.2217474898525964 0 9.635948856616561642 1 0 0 I I #
edge $-1 $145 -4.817974428308280821 $246 4.817974428308280821 $142 $391 forward 7 unknown #
edge $-1 $146 -4.817974428308280821 $245 4.817974428308280821 $143 $392 forward 7 unknown #
point $-1 84.4434949797051928 0 9.635948856616561642 #
point $-1 84.4434949797051928 34.74226033876771425 9.635948856616561642 #
face $-1 $-1 $163 $15 $-1 $393 reversed single #
loop $-1 $-1 $277 $148 #
plane-surface $-1 1.82502230552645206 34.74226033876771425 8.135948856616561642 0 -1 0 0 0 -1 forward_v I I I I #
coedge $-1 $394 $275 $278 $395 forward $149 $-1 #
coedge $-1 $281 $151 $152 $269 reversed $88 $-1 #
coedge $-1 $275 $394 $151 $267 reversed $149 $-1 #
edge $-1 $282 -1.5 $396 1.5 $266 $397 forward 7 unknown #
coedge $-1 $153 $152 $394 $398 forward $54 $-1 #
edge $-1 $273 -1.82502230552645206 $396 1.82502230552645206 $265 $399 forward 7 unknown #
coedge $-1 $278 $277 $153 $271 reversed $262 $-1 #
edge $-1 $400 -1.82502230552645206 $272 1.82502230552645206 $270 $401 forward 7 unknown #
vertex $-1 $155 $402 #
vertex $-1 $284 $403 #
straight-curve $-1 3.65004461105290412 17.37113016938385712 6.635948856616561642 0 -1 0 I I #
coedge $-1 $264 $266 $156 $276 reversed $149 $-1 #
edge $-1 $279 -17.37113016938385712 $282 17.37113016938385712 $275 $404 forward 7 unknown #
coedge $-1 $270 $157 $162 $285 forward $262 $-1 #
coedge $-1 $157 $270 $264 $395 reversed $262 $-1 #
vertex $-1 $158 $405 #
straight-curve $-1 1.82502230552645206 34.74226033876771425 9.635948856616561642 -1 0 0 I I #
coedge $-1 $159 $265 $161 $284 reversed $88 $-1 #
vertex $-1 $276 $406 #
straight-curve $-1 1.82502230552645206 0 9.635948856616561642 1 0 0 I I #
edge $-1 $164 -1.5 $273 1.5 $161 $407 forward 7 unknown #
edge $-1 $165 -1.5 $272 1.5 $162 $408 forward 7 unknown #
point $-1 3.65004461105290412 0 9.635948856616561642 #
point $-1 3.65004461105290412 34.74226033876771425 9.635948856616561642 #
face $-1 $-1 $182 $16 $-1 $409 reversed single #
loop $-1 $-1 $304 $167 #
plane-surface $-1 82.61847267417874718 34.74226033876771425 8.135948856616561642 0 -1 0 0 0 -1 forward_v I I I I #
coedge $-1 $410 $302 $305 $411 forward $168 $-1 #
coedge $-1 $308 $170 $171 $296 reversed $96 $-1 #
coedge $-1 $302 $410 $170 $294 reversed $168 $-1 #
edge $-1 $309 -1.5 $412 1.5 $293 $413 forward 7 unknown #
coedge $-1 $172 $171 $410 $414 forward $58 $-1 #
edge $-1 $300 -1.825022305526459832 $412 1.825022305526459832 $292 $415 forward 7 unknown #
coedge $-1 $305 $304 $172 $298 reversed $289 $-1 #
edge $-1 $416 -1.825022305526459832 $299 1.825022305526459832 $297 $417 forward 7 unknown #
vertex $-1 $174 $418 #
vertex $-1 $311 $419 #
straight-curve $-1 84.44349497970520702 17.37113016938385712 6.635948856616561642 0 -1 0 I I #
coedge $-1 $291 $293 $175 $303 reversed $168 $-1 #
edge $-1 $306 -17.37113016938385712 $309 17.37113016938385712 $302 $420 forward 7 unknown #
coedge $-1 $297 $176 $181 $312 forward $289 $-1 #
coedge $-1 $176 $297 $291 $411 reversed $289 $-1 #
vertex $-1 $177 $421 #
straight-curve $-1 82.61847267417874718 34.74226033876771425 9.635948856616561642 -1 0 0 I I #
coedge $-1 $178 $292 $180 $311 reversed $96 $-1 #
vertex $-1 $303 $422 #
straight-curve $-1 82.61847267417874718 0 9.635948856616561642 1 0 0 I I #
edge $-1 $183 -1.5 $300 1.5 $180 $423 forward 7 unknown #
edge $-1 $184 -1.5 $299 1.5 $181 $424 forward 7 unknown #
point $-1 84.44349497970520702 0 9.635948856616561642 #
point $-1 84.44349497970520702 34.74226033876771425 9.635948856616561642 #
face $-1 $-1 $201 $17 $-1 $425 reversed single #
loop $-1 $-1 $331 $186 #
plane-surface $-1 28.4641659669734608 190.4398296640367505 -23.6469616577780215 0 -0.7313536940579346002 0.6819983681709311796 0 -0.6819983681709311796 -0.7313536940579346002 forward_v I I I I #
coedge $-1 $426 $329 $332 $427 forward $187 $-1 #
coedge $-1 $335 $189 $190 $323 reversed $104 $-1 #
coedge $-1 $329 $426 $189 $321 reversed $187 $-1 #
edge $-1 $336 -84.4434949797051928 $428 84.4434949797051928 $320 $429 forward 7 unknown #
coedge $-1 $191 $190 $426 $430 forward $62 $-1 #
edge $-1 $327 -8.35647638069738008 $428 8.35647638069738008 $319 $431 forward 7 unknown #
coedge $-1 $332 $331 $191 $325 reversed $316 $-1 #
edge $-1 $432 -8.35647638069738008 $326 8.35647638069738008 $324 $433 forward 7 unknown #
vertex $-1 $193 $434 #
vertex $-1 $338 $435 #
straight-curve $-1 36.82064234767084088 9.333379900087493297 29.77562790727024833 0 -0.7313536940579346002 0.6819983681709311796 I I #
coedge $-1 $318 $320 $194 $330 reversed $187 $-1 #
edge $-1 $333 -168.8869899594103572 $336 168.8869899594103856 $329 $436 forward 7 unknown #
coedge $-1 $324 $195 $200 $339 forward $316 $-1 #
coedge $-1 $195 $324 $318 $427 reversed $316 $-1 #
vertex $-1 $196 $437 #
straight-curve $-1 28.4641659669734608 248.0301554428459099 38.11110033479202741 -1 0 0 I I #
coedge $-1 $197 $319 $199 $338 reversed $104 $-1 #
vertex $-1 $330 $438 #
straight-curve $-1 28.4641659669734608 0.9979074725657142153 268.4724034500286507 1 0 0 I I #
edge $-1 $202 -84.4434949797051928 $327 84.4434949797051928 $199 $439 forward 7 unknown #
edge $-1 $203 -84.4434949797051928 $326 84.4434949797051928 $200 $440 forward 7 unknown #
point $-1 36.82064234767084088 0.9979074725657142153 268.4724034500286507 #
point $-1 36.82064234767084088 248.0301554428459099 38.11110033479202741 #
coedge $-1 $342 $342 $-1 $441 reversed $205 $-1 #
vertex $-1 $207 $442 #
ellipse-curve $-1 28.4641659669734608 31.53311715935714332 6.461105493504827102 0 0.6819983681709311796 0.7313536940579346002 1 0 0 1 I I #
point $-1 29.4641659669734608 32.83640070132800304 7.858705953138779066 #
face $-1 $-1 $225 $19 $-1 $443 reversed single #
loop $-1 $-1 $362 $210 #
plane-surface $-1 28.4641659669734608 65.92579820633092424 183.0201765998493784 0 -0.7313536940579346002 -0.6819983681709311796 0 0.6819983681709311796 -0.7313536940579346002 forward_v I I I I #
coedge $-1 $444 $360 $363 $445 forward $211 $-1 #
coedge $-1 $366 $213 $214 $354 reversed $117 $-1 #
coedge $-1 $360 $444 $213 $352 reversed $211 $-1 #
edge $-1 $367 -84.44349497970517859 $446 84.44349497970520702 $351 $447 forward 7 unknown #
coedge $-1 $215 $214 $444 $448 forward $71 $-1 #
edge $-1 $358 -8.35647638069738008 $446 8.35647638069738008 $350 $449 forward 7 unknown #
coedge $-1 $363 $362 $215 $356 reversed $347 $-1 #
edge $-1 $450 -8.35647638069738008 $357 8.35647638069738008 $355 $451 forward 7 unknown #
vertex $-1 $217 $452 #
vertex $-1 $369 $453 #
straight-curve $-1 36.82064234767084088 -1.421085471520200372e-14 6.0814630496610107 0 -0.7313536940579346002 -0.6819983681709311796 I I #
coedge $-1 $349 $351 $218 $361 reversed $211 $-1 #
edge $-1 $364 -168.8869899594103856 $367 168.8869899594103572 $360 $454 forward 7 unknown #
coedge $-1 $355 $219 $224 $370 forward $347 $-1 #
coedge $-1 $219 $355 $349 $445 reversed $347 $-1 #
vertex $-1 $220 $455 #
straight-curve $-1 28.4641659669734608 8.335472427521764871 244.7782385924194273 -1 0 0 I I #
coedge $-1 $221 $350 $223 $369 reversed $117 $-1 #
vertex $-1 $361 $456 #
straight-curve $-1 28.4641659669734608 -238.6967755427584166 14.41693547718278978 1 0 0 I I #
edge $-1 $226 -84.44349497970517859 $358 84.44349497970520702 $223 $457 forward 7 unknown #
edge $-1 $227 -84.4434949797051928 $357 84.4434949797051928 $224 $458 forward 7 unknown #
point $-1 36.82064234767084088 -238.6967755427584166 14.41693547718278978 #
point $-1 36.82064234767084088 8.335472427521764871 244.7782385924194273 #
coedge $-1 $373 $373 $-1 $459 reversed $229 $-1 #
vertex $-1 $231 $460 #
ellipse-curve $-1 28.4641659669734608 3.209143179410570479 6.461105493504828878 0 -0.6819983681709311796 0.7313536940579346002 1 0 0 1 I I #
point $-1 29.4641659669734608 1.905859637439709431 7.858705953138780842 #
plane-surface $-1 84.4434949797051928 17.37113016938385712 4.817974428308280821 -1 0 0 0 0 1 forward_v I I I I #
coedge $-1 $239 $237 $241 $382 reversed $130 $-1 #
edge $-1 $252 -4.817974428308280821 $384 4.817974428308280821 $251 $461 forward 7 unknown #
vertex $-1 $382 $462 #
straight-curve $-1 0 0 4.817974428308280821 0 0 -1 I I #
edge $-1 $380 -17.37113016938385712 $384 17.37113016938385712 $378 $463 forward 7 unknown #
straight-curve $-1 42.2217474898525964 0 0 -1 0 0 I I #
vertex $-1 $244 $464 #
straight-curve $-1 42.2217474898525964 34.74226033876771425 0 1 0 0 I I #
point $-1 84.4434949797051928 34.74226033876771425 0 #
point $-1 84.4434949797051928 0 0 #
straight-curve $-1 0 17.37113016938385712 9.635948856616561642 0 -1 0 I I #
point $-1 0 34.74226033876771425 9.635948856616561642 #
point $-1 0 0 9.635948856616561642 #
straight-curve $-1 84.4434949797051928 0 4.817974428308280821 0 0 -1 I I #
straight-curve $-1 84.4434949797051928 34.74226033876771425 4.817974428308280821 0 0 -1 I I #
plane-surface $-1 3.65004461105290412 17.37113016938385712 8.135948856616561642 -1 0 0 0 0 1 forward_v I I I I #
coedge $-1 $266 $264 $268 $398 reversed $149 $-1 #
edge $-1 $279 -1.5 $400 1.5 $278 $465 forward 7 unknown #
vertex $-1 $398 $466 #
straight-curve $-1 0 0 8.135948856616561642 0 0 -1 I I #
edge $-1 $396 -17.37113016938385712 $400 17.37113016938385712 $394 $467 forward 7 unknown #
straight-curve $-1 1.82502230552645206 0 6.635948856616561642 -1 0 0 I I #
vertex $-1 $271 $468 #
straight-curve $-1 1.82502230552645206 34.74226033876771425 6.635948856616561642 1 0 0 I I #
point $-1 3.65004461105290412 34.74226033876771425 6.635948856616561642 #
point $-1 3.65004461105290412 0 6.635948856616561642 #
straight-curve $-1 0 17.37113016938385712 9.635948856616561642 0 -1 0 I I #
point $-1 0 34.74226033876771425 9.635948856616561642 #
point $-1 0 0 9.635948856616561642 #
straight-curve $-1 3.65004461105290412 0 8.135948856616561642 0 0 -1 I I #
straight-curve $-1 3.65004461105290412 34.74226033876771425 8.135948856616561642 0 0 -1 I I #
plane-surface $-1 84.44349497970520702 17.37113016938385712 8.135948856616561642 -1 0 0 0 0 1 forward_v I I I I #
coedge $-1 $293 $291 $295 $414 reversed $168 $-1 #
edge $-1 $306 -1.5 $416 1.5 $305 $469 forward 7 unknown #
vertex $-1 $414 $470 #
straight-curve $-1 80.79345036865228735 0 8.135948856616561642 0 0 -1 I I #
edge $-1 $412 -17.37113016938385712 $416 17.37113016938385712 $410 $471 forward 7 unknown #
straight-curve $-1 82.61847267417874718 0 6.635948856616561642 -1 0 0 I I #
vertex $-1 $298 $472 #
straight-curve $-1 82.61847267417874718 34.74226033876771425 6.635948856616561642 1 0 0 I I #
point $-1 84.44349497970520702 34.74226033876771425 6.635948856616561642 #
point $-1 84.44349497970520702 0 6.635948856616561642 #
straight-curve $-1 80.79345036865228735 17.37113016938385712 9.635948856616561642 0 -1 0 I I #
point $-1 80.79345036865228735 34.74226033876771425 9.635948856616561642 #
point $-1 80.79345036865228735 0 9.635948856616561642 #
straight-curve $-1 84.44349497970520702 0 8.135948856616561642 0 0 -1 I I #
straight-curve $-1 84.44349497970520702 34.74226033876771425 8.135948856616561642 0 0 -1 I I #
plane-surface $-1 36.82064234767084088 66.92370567889665267 91.53368989984029724 -1 0 0 0 0.6819983681709311796 0.7313536940579346002 forward_v I I I I #
coedge $-1 $320 $318 $322 $430 reversed $187 $-1 #
edge $-1 $333 -84.4434949797051928 $432 84.4434949797051928 $332 $473 forward 7 unknown #
vertex $-1 $430 $474 #
straight-curve $-1 20.10768958627608072 -56.59241830624344516 206.7143414574586018 0 -0.6819983681709311796 -0.7313536940579346002 I I #
edge $-1 $428 -168.8869899594103572 $432 168.8869899594103856 $426 $475 forward 7 unknown #
straight-curve $-1 28.4641659669734608 -114.1827440850526045 144.9562794648885529 -1 0 0 I I #
vertex $-1 $325 $476 #
straight-curve $-1 28.4641659669734608 132.8495038852275911 -85.40502365034807042 1 0 0 I I #
point $-1 36.82064234767084088 132.8495038852275911 -85.40502365034807042 #
point $-1 36.82064234767084088 -114.1827440850526045 144.9562794648885529 #
straight-curve $-1 20.10768958627608072 124.514031457705812 153.2917518924103319 0 -0.7313536940579346002 0.6819983681709311796 I I #
point $-1 20.10768958627608072 248.0301554428459099 38.11110033479202741 #
point $-1 20.10768958627608072 0.9979074725657142153 268.4724034500286507 #
straight-curve $-1 36.82064234767084088 -56.59241830624344516 206.7143414574586018 0 -0.6819983681709311796 -0.7313536940579346002 I I #
straight-curve $-1 36.82064234767084088 190.4398296640367505 -23.6469616577780215 0 -0.6819983681709311796 -0.7313536940579346002 I I #
edge $-1 $477 1 $477 0 $342 $-1 forward 7 unknown #
point $-1 29.4641659669734608 31.53311715935714332 6.461105493504827102 #
plane-surface $-1 36.82064234767084088 -57.59032577880917358 67.83952504223105962 -1 0 0 0 -0.6819983681709311796 0.7313536940579346002 forward_v I I I I #
coedge $-1 $351 $349 $353 $448 reversed $211 $-1 #
edge $-1 $364 -84.4434949797051928 $450 84.4434949797051928 $363 $478 forward 7 unknown #
vertex $-1 $448 $479 #
straight-curve $-1 20.10768958627608072 -181.1064497639492856 -47.34112651538725913 0 0.6819983681709311796 -0.7313536940579346002 I I #
edge $-1 $446 -168.8869899594103856 $450 168.8869899594103856 $444 $480 forward 7 unknown #
straight-curve $-1 28.4641659669734608 -123.516123985140112 -109.099188507957308 -1 0 0 I I #
vertex $-1 $356 $481 #
straight-curve $-1 28.4641659669734608 123.5161239851400836 121.2621146072793294 1 0 0 I I #
point $-1 36.82064234767084088 123.5161239851400836 121.2621146072793294 #
point $-1 36.82064234767084088 -123.516123985140112 -109.099188507957308 #
straight-curve $-1 20.10768958627608072 -115.180651557618333 129.5975870348011085 0 -0.7313536940579346002 -0.6819983681709311796 I I #
point $-1 20.10768958627608072 8.335472427521764871 244.7782385924194273 #
point $-1 20.10768958627608072 -238.6967755427584166 14.41693547718278978 #
straight-curve $-1 36.82064234767084088 -181.1064497639492856 -47.34112651538725913 0 0.6819983681709311796 -0.7313536940579346002 I I #
straight-curve $-1 36.82064234767084088 65.92579820633092424 183.0201765998493784 0 0.6819983681709311796 -0.7313536940579346002 I I #
edge $-1 $482 1 $482 0 $373 $-1 forward 7 unknown #
point $-1 29.4641659669734608 3.209143179410570479 6.461105493504828878 #
straight-curve $-1 0 34.74226033876771425 4.817974428308280821 0 0 -1 I I #
point $-1 0 0 0 #
straight-curve $-1 0 17.37113016938385712 0 0 1 0 I I #
point $-1 0 34.74226033876771425 0 #
straight-curve $-1 0 34.74226033876771425 8.135948856616561642 0 0 -1 I I #
point $-1 0 0 6.635948856616561642 #
straight-curve $-1 0 17.37113016938385712 6.635948856616561642 0 1 0 I I #
point $-1 0 34.74226033876771425 6.635948856616561642 #
straight-curve $-1 80.79345036865228735 34.74226033876771425 8.135948856616561642 0 0 -1 I I #
point $-1 80.79345036865228735 0 6.635948856616561642 #
straight-curve $-1 80.79345036865228735 17.37113016938385712 6.635948856616561642 0 1 0 I I #
point $-1 80.79345036865228735 34.74226033876771425 6.635948856616561642 #
straight-curve $-1 20.10768958627608072 190.4398296640367505 -23.6469616577780215 0 -0.6819983681709311796 -0.7313536940579346002 I I #
point $-1 20.10768958627608072 -114.1827440850526045 144.9562794648885529 #
straight-curve $-1 20.10768958627608072 9.333379900087493297 29.77562790727024833 0 0.7313536940579346002 -0.6819983681709311796 I I #
point $-1 20.10768958627608072 132.8495038852275911 -85.40502365034807042 #
vertex $-1 $441 $483 #
straight-curve $-1 20.10768958627608072 65.92579820633092424 183.0201765998493784 0 0.6819983681709311796 -0.7313536940579346002 I I #
point $-1 20.10768958627608072 -123.516123985140112 -109.099188507957308 #
straight-curve $-1 20.10768958627608072 -1.421085471520200372e-14 6.0814630496610107 0 0.7313536940579346002 0.6819983681709311796 I I #
point $-1 20.10768958627608072 123.5161239851400836 121.2621146072793294 #
vertex $-1 $459 $484 #
point $-1 28.4641659669734608 30.85111879118621303 5.729751799446892058 #
point $-1 28.4641659669734608 3.891141547581501658 5.729751799446893834 #
End-of-ACIS-data 