600 0 6 0           
94 GICL ACIS Healer - Source: /gicl/data5/repository/Drexel/SM99-DATA/part127.smdg.feat.sat - 6 0 18 ACIS 6.0.3 Solaris 24 Sat Apr 13 20:45:41 2002 
1 9.999999999999999547e-07 1.000000000000000036e-10 
body $-1 $6 $-1 $-1 #
body $-1 $7 $-1 $-1 #
body $-1 $8 $-1 $-1 #
body $-1 $9 $-1 $-1 #
body $-1 $10 $-1 $-1 #
body $-1 $11 $-1 $-1 #
lump $-1 $-1 $12 $0 #
lump $-1 $-1 $13 $1 #
lump $-1 $-1 $14 $2 #
lump $-1 $-1 $15 $3 #
lump $-1 $-1 $16 $4 #
lump $-1 $-1 $17 $5 #
shell $-1 $-1 $-1 $18 $-1 $6 #
shell $-1 $-1 $-1 $19 $-1 $7 #
shell $-1 $-1 $-1 $20 $-1 $8 #
shell $-1 $-1 $-1 $21 $-1 $9 #
shell $-1 $-1 $-1 $22 $-1 $10 #
shell $-1 $-1 $-1 $23 $-1 $11 #
face $-1 $24 $25 $12 $-1 $26 forward single #
face $-1 $27 $28 $13 $-1 $29 forward single #
face $-1 $30 $31 $14 $-1 $32 forward single #
face $-1 $33 $34 $15 $-1 $35 forward single #
face $-1 $36 $37 $16 $-1 $38 forward single #
face $-1 $39 $40 $17 $-1 $41 forward single #
face $-1 $42 $43 $12 $-1 $44 reversed single #
loop $-1 $-1 $45 $18 #
plane-surface $-1 75.51988280892361161 43.96387891918882929 43.54767983960472577 0 0 1 1 0 0 forward_v I I I I #
face $-1 $46 $47 $13 $-1 $48 reversed single #
loop $-1 $-1 $49 $19 #
plane-surface $-1 75.51988280892361161 -9.004788891690793662 43.54767983960472577 0 0 1 1 0 0 forward_v I I I I #
face $-1 $50 $51 $14 $-1 $52 reversed single #
loop $-1 $-1 $53 $20 #
plane-surface $-1 9.592041513361573735 267.3529180283684354 286.5069185209900979 0 0.7771459697322561366 0.629320380830711068 1 0 0 forward_v I I I I #
face $-1 $54 $55 $15 $-1 $56 forward single #
loop $-1 $57 $58 $21 #
cone-surface $-1 9.592041513361573735 80.43192314959826206 34.81347672678644045 0 -0.7771459697322561366 -0.629320380830711068 1 0 0 1 I I 0 1 1 forward I I I I #
face $-1 $59 $60 $16 $-1 $61 reversed single #
loop $-1 $-1 $62 $22 #
plane-surface $-1 85.11192432228519067 267.3529180283684354 286.5069185209900979 0 0.7771459697322561366 0.629320380830711068 1 0 0 forward_v I I I I #
face $-1 $63 $64 $17 $-1 $65 forward single #
loop $-1 $66 $67 $23 #
cone-surface $-1 85.11192432228519067 80.43192314959826206 34.81347672678644045 0 -0.7771459697322561366 -0.629320380830711068 1 0 0 1 I I 0 1 1 forward I I I I #
face $-1 $68 $69 $12 $-1 $70 reversed single #
loop $-1 $-1 $71 $24 #
plane-surface $-1 75.51988280892361161 43.96387891918882929 0 0 0 1 1 0 0 forward_v I I I I #
coedge $-1 $72 $73 $74 $75 forward $25 $-1 #
face $-1 $76 $77 $13 $-1 $78 reversed single #
loop $-1 $-1 $79 $27 #
plane-surface $-1 75.51988280892361161 -9.004788891690793662 37.69006703119815427 0 0 1 1 0 0 forward_v I I I I #
coedge $-1 $80 $81 $82 $83 forward $28 $-1 #
face $-1 $84 $85 $14 $-1 $86 reversed single #
loop $-1 $-1 $87 $30 #
plane-surface $-1 9.592041513361573735 32.59302778993931327 96.40211288258021227 0 0.7771459697322561366 0.629320380830711068 1 0 0 forward_v I I I I #
coedge $-1 $88 $89 $90 $91 forward $31 $-1 #
face $-1 $-1 $92 $15 $-1 $93 forward single #
loop $-1 $-1 $94 $33 #
plane-surface $-1 9.592041513361573735 81.66073021966306555 35.80854504524798898 0 0.7771459697322561366 0.629320380830711068 -1 -0 0 forward_v I I I I #
loop $-1 $-1 $95 $21 #
coedge $-1 $58 $58 $94 $96 reversed $34 $-1 #
face $-1 $97 $98 $16 $-1 $99 reversed single #
loop $-1 $-1 $100 $36 #
plane-surface $-1 85.11192432228519067 32.59302778993931327 96.40211288258021227 0 0.7771459697322561366 0.629320380830711068 1 0 0 forward_v I I I I #
coedge $-1 $101 $102 $103 $104 forward $37 $-1 #
face $-1 $-1 $105 $17 $-1 $106 forward single #
loop $-1 $-1 $107 $39 #
plane-surface $-1 85.11192432228519067 81.66073021966306555 35.80854504524798898 0 0.7771459697322561366 0.629320380830711068 -1 -0 0 forward_v I I I I #
loop $-1 $-1 $108 $23 #
coedge $-1 $67 $67 $107 $109 reversed $40 $-1 #
face $-1 $110 $111 $12 $-1 $112 reversed single #
loop $-1 $-1 $113 $42 #
plane-surface $-1 75.51988280892361161 0 21.77383991980236289 0 1 0 0 0 1 forward_v I I I I #
coedge $-1 $114 $115 $116 $117 forward $43 $-1 #
coedge $-1 $118 $45 $119 $120 forward $25 $-1 #
coedge $-1 $45 $118 $121 $122 forward $25 $-1 #
coedge $-1 $123 $124 $45 $75 reversed $125 $-1 #
edge $-1 $126 -43.96387891918882929 $127 43.96387891918882929 $74 $128 forward 7 unknown #
face $-1 $129 $130 $13 $-1 $131 reversed single #
loop $-1 $-1 $132 $46 #
plane-surface $-1 75.51988280892361161 -18.00957778338158732 40.61887343540144002 0 1 0 0 0 1 forward_v I I I I #
coedge $-1 $133 $134 $135 $136 forward $47 $-1 #
coedge $-1 $137 $49 $138 $139 forward $28 $-1 #
coedge $-1 $49 $137 $140 $141 forward $28 $-1 #
coedge $-1 $142 $143 $49 $83 reversed $144 $-1 #
edge $-1 $145 -9.004788891690793662 $146 9.004788891690793662 $82 $147 forward 7 unknown #
face $-1 $148 $149 $14 $-1 $150 reversed single #
loop $-1 $-1 $151 $50 #
plane-surface $-1 9.592041513361573735 -40.13183272925604683 426.2144059402143057 0 0.629320380830711068 -0.7771459697322561366 0 0.7771459697322561366 0.629320380830711068 forward_v I I I I #
coedge $-1 $152 $153 $154 $155 forward $51 $-1 #
coedge $-1 $156 $53 $157 $158 forward $31 $-1 #
coedge $-1 $53 $156 $159 $160 forward $31 $-1 #
coedge $-1 $161 $162 $53 $91 reversed $163 $-1 #
edge $-1 $164 -302.0795312356945033 $165 302.0795312356943896 $90 $166 forward 7 unknown #
loop $-1 $167 $168 $54 #
cone-surface $-1 9.592041513361573735 78.81454309466734287 33.50374821790953206 0 -0.7771459697322561366 -0.629320380830711068 0.5 0 0 1 I I -0.7071067811865462405 0.707106781186548794 0.5 forward I I I I #
coedge $-1 $94 $94 $58 $96 forward $55 $-1 #
coedge $-1 $95 $95 $168 $169 forward $57 $-1 #
edge $-1 $170 0 $170 6.283185307179586232 $94 $171 forward 7 unknown #
face $-1 $172 $173 $16 $-1 $174 reversed single #
loop $-1 $-1 $175 $59 #
plane-surface $-1 85.11192432228519067 -40.13183272925604683 426.2144059402143057 0 0.629320380830711068 -0.7771459697322561366 0 0.7771459697322561366 0.629320380830711068 forward_v I I I I #
coedge $-1 $176 $177 $178 $179 forward $60 $-1 #
coedge $-1 $180 $62 $181 $182 forward $37 $-1 #
coedge $-1 $62 $180 $183 $184 forward $37 $-1 #
coedge $-1 $185 $186 $62 $104 reversed $187 $-1 #
edge $-1 $188 -302.0795312356945033 $189 302.0795312356943896 $103 $190 forward 7 unknown #
loop $-1 $191 $192 $63 #
cone-surface $-1 85.11192432228519067 78.81454309466734287 33.50374821790953206 0 -0.7771459697322561366 -0.629320380830711068 0.5 0 0 1 I I -0.7071067811865462405 0.707106781186548794 0.5 forward I I I I #
coedge $-1 $107 $107 $67 $109 forward $64 $-1 #
coedge $-1 $108 $108 $192 $193 forward $66 $-1 #
edge $-1 $194 0 $194 6.283185307179586232 $107 $195 forward 7 unknown #
face $-1 $196 $197 $12 $-1 $198 reversed single #
loop $-1 $-1 $199 $68 #
plane-surface $-1 0 43.96387891918882929 21.77383991980236289 1 0 0 0 0 -1 forward_v I I I I #
coedge $-1 $200 $121 $201 $202 forward $69 $-1 #
coedge $-1 $203 $71 $200 $204 forward $43 $-1 #
coedge $-1 $71 $203 $205 $206 forward $43 $-1 #
coedge $-1 $124 $123 $71 $117 reversed $125 $-1 #
edge $-1 $207 -43.96387891918882929 $208 43.96387891918882929 $116 $209 forward 7 unknown #
coedge $-1 $73 $72 $210 $211 forward $25 $-1 #
coedge $-1 $212 $213 $72 $120 reversed $197 $-1 #
edge $-1 $127 -75.51988280892361161 $214 75.51988280892361161 $119 $215 forward 7 unknown #
coedge $-1 $113 $216 $73 $122 reversed $69 $-1 #
edge $-1 $217 -75.51988280892361161 $126 75.51988280892361161 $121 $218 forward 7 unknown #
coedge $-1 $116 $74 $216 $219 forward $125 $-1 #
coedge $-1 $74 $116 $212 $220 reversed $125 $-1 #
loop $-1 $-1 $123 $196 #
vertex $-1 $75 $221 #
vertex $-1 $75 $222 #
straight-curve $-1 151.0397656178472232 43.96387891918882929 43.54767983960472577 0 1 0 I I #
face $-1 $223 $224 $13 $-1 $225 reversed single #
loop $-1 $-1 $226 $76 #
plane-surface $-1 0 -9.004788891690793662 40.61887343540144002 1 0 0 0 0 -1 forward_v I I I I #
coedge $-1 $227 $140 $228 $229 forward $77 $-1 #
coedge $-1 $230 $79 $227 $231 forward $47 $-1 #
coedge $-1 $79 $230 $232 $233 forward $47 $-1 #
coedge $-1 $143 $142 $79 $136 reversed $144 $-1 #
edge $-1 $234 -9.004788891690793662 $235 9.004788891690793662 $135 $236 forward 7 unknown #
coedge $-1 $81 $80 $237 $238 forward $28 $-1 #
coedge $-1 $239 $240 $80 $139 reversed $224 $-1 #
edge $-1 $146 -75.51988280892361161 $241 75.51988280892361161 $138 $242 forward 7 unknown #
coedge $-1 $132 $243 $81 $141 reversed $77 $-1 #
edge $-1 $244 -75.51988280892361161 $145 75.51988280892361161 $140 $245 forward 7 unknown #
coedge $-1 $135 $82 $243 $246 forward $144 $-1 #
coedge $-1 $82 $135 $239 $247 reversed $144 $-1 #
loop $-1 $-1 $142 $223 #
vertex $-1 $83 $248 #
vertex $-1 $83 $249 #
straight-curve $-1 151.0397656178472232 -9.004788891690793662 43.54767983960472577 0 1 0 I I #
face $-1 $250 $251 $14 $-1 $252 reversed single #
loop $-1 $-1 $253 $84 #
plane-surface $-1 0 149.9729729091538672 191.4545157017851693 1 0 0 0 -0.7771459697322561366 -0.629320380830711068 forward_v I I I I #
coedge $-1 $254 $159 $255 $256 forward $85 $-1 #
coedge $-1 $257 $87 $254 $258 forward $51 $-1 #
coedge $-1 $87 $257 $259 $260 forward $51 $-1 #
coedge $-1 $162 $161 $87 $155 reversed $163 $-1 #
edge $-1 $261 -302.0795312356944464 $262 302.0795312356944464 $154 $263 forward 7 unknown #
coedge $-1 $89 $88 $264 $265 forward $31 $-1 #
coedge $-1 $266 $267 $88 $158 reversed $251 $-1 #
edge $-1 $165 -9.592041513361573735 $268 9.592041513361573735 $157 $269 forward 7 unknown #
coedge $-1 $151 $270 $89 $160 reversed $85 $-1 #
edge $-1 $271 -9.592041513361573735 $164 9.592041513361573735 $159 $272 forward 7 unknown #
coedge $-1 $154 $90 $270 $273 forward $163 $-1 #
coedge $-1 $90 $154 $266 $274 reversed $163 $-1 #
loop $-1 $-1 $161 $250 #
vertex $-1 $91 $275 #
vertex $-1 $91 $276 #
straight-curve $-1 19.18408302672314747 267.3529180283684354 286.5069185209900979 0 0.629320380830711068 -0.7771459697322561366 I I #
loop $-1 $-1 $277 $54 #
coedge $-1 $168 $168 $95 $169 reversed $92 $-1 #
edge $-1 $278 0 $278 6.283185307179586232 $168 $279 forward 7 unknown #
vertex $-1 $96 $280 #
ellipse-curve $-1 9.592041513361573735 81.66073021966306555 35.80854504524798898 0 0.7771459697322561366 0.629320380830711068 1 0 0 1 I I #
face $-1 $281 $282 $16 $-1 $283 reversed single #
loop $-1 $-1 $284 $97 #
plane-surface $-1 75.51988280892361161 149.9729729091538672 191.4545157017851693 1 0 0 0 -0.7771459697322561366 -0.629320380830711068 forward_v I I I I #
coedge $-1 $285 $183 $286 $287 forward $98 $-1 #
coedge $-1 $288 $100 $285 $289 forward $60 $-1 #
coedge $-1 $100 $288 $290 $291 forward $60 $-1 #
coedge $-1 $186 $185 $100 $179 reversed $187 $-1 #
edge $-1 $292 -302.0795312356944464 $293 302.0795312356944464 $178 $294 forward 7 unknown #
coedge $-1 $102 $101 $295 $296 forward $37 $-1 #
coedge $-1 $297 $298 $101 $182 reversed $282 $-1 #
edge $-1 $189 -9.592041513361579064 $299 9.592041513361579064 $181 $300 forward 7 unknown #
coedge $-1 $175 $301 $102 $184 reversed $98 $-1 #
edge $-1 $302 -9.592041513361579064 $188 9.592041513361579064 $183 $303 forward 7 unknown #
coedge $-1 $178 $103 $301 $304 forward $187 $-1 #
coedge $-1 $103 $178 $297 $305 reversed $187 $-1 #
loop $-1 $-1 $185 $281 #
vertex $-1 $104 $306 #
vertex $-1 $104 $307 #
straight-curve $-1 94.70396583564676973 267.3529180283684354 286.5069185209900979 0 0.629320380830711068 -0.7771459697322561366 I I #
loop $-1 $-1 $308 $63 #
coedge $-1 $192 $192 $108 $193 reversed $105 $-1 #
edge $-1 $309 0 $309 6.283185307179586232 $192 $310 forward 7 unknown #
vertex $-1 $109 $311 #
ellipse-curve $-1 85.11192432228519067 81.66073021966306555 35.80854504524798898 0 0.7771459697322561366 0.629320380830711068 1 0 0 1 I I #
face $-1 $-1 $125 $12 $-1 $312 reversed single #
loop $-1 $-1 $212 $110 #
plane-surface $-1 75.51988280892361161 87.92775783837765857 21.77383991980236289 0 -1 0 0 0 -1 forward_v I I I I #
coedge $-1 $313 $210 $213 $314 forward $111 $-1 #
coedge $-1 $216 $113 $114 $204 reversed $69 $-1 #
coedge $-1 $210 $313 $113 $202 reversed $111 $-1 #
edge $-1 $217 -21.77383991980236289 $315 21.77383991980236289 $201 $316 forward 7 unknown #
coedge $-1 $115 $114 $313 $317 forward $43 $-1 #
edge $-1 $208 -75.51988280892361161 $315 75.51988280892361161 $200 $318 forward 7 unknown #
coedge $-1 $213 $212 $115 $206 reversed $197 $-1 #
edge $-1 $319 -75.51988280892361161 $207 75.51988280892361161 $205 $320 forward 7 unknown #
vertex $-1 $117 $321 #
vertex $-1 $219 $322 #
straight-curve $-1 151.0397656178472232 43.96387891918882929 0 0 -1 0 I I #
coedge $-1 $199 $201 $118 $211 reversed $111 $-1 #
edge $-1 $214 -43.96387891918882929 $217 43.96387891918882929 $210 $323 forward 7 unknown #
coedge $-1 $205 $119 $124 $220 forward $197 $-1 #
coedge $-1 $119 $205 $199 $314 reversed $197 $-1 #
vertex $-1 $120 $324 #
straight-curve $-1 75.51988280892361161 87.92775783837765857 43.54767983960472577 -1 0 0 I I #
coedge $-1 $121 $200 $123 $219 reversed $69 $-1 #
vertex $-1 $211 $325 #
straight-curve $-1 75.51988280892361161 0 43.54767983960472577 1 0 0 I I #
edge $-1 $126 -21.77383991980236289 $208 21.77383991980236289 $123 $326 forward 7 unknown #
edge $-1 $127 -21.77383991980236289 $207 21.77383991980236289 $124 $327 forward 7 unknown #
point $-1 151.0397656178472232 0 43.54767983960472577 #
point $-1 151.0397656178472232 87.92775783837765857 43.54767983960472577 #
face $-1 $-1 $144 $13 $-1 $328 reversed single #
loop $-1 $-1 $239 $129 #
plane-surface $-1 75.51988280892361161 0 40.61887343540144002 0 -1 0 0 0 -1 forward_v I I I I #
coedge $-1 $329 $237 $240 $330 forward $130 $-1 #
coedge $-1 $243 $132 $133 $231 reversed $77 $-1 #
coedge $-1 $237 $329 $132 $229 reversed $130 $-1 #
edge $-1 $244 -2.928806404203285751 $331 2.928806404203285751 $228 $332 forward 7 unknown #
coedge $-1 $134 $133 $329 $333 forward $47 $-1 #
edge $-1 $235 -75.51988280892361161 $331 75.51988280892361161 $227 $334 forward 7 unknown #
coedge $-1 $240 $239 $134 $233 reversed $224 $-1 #
edge $-1 $335 -75.51988280892361161 $234 75.51988280892361161 $232 $336 forward 7 unknown #
vertex $-1 $136 $337 #
vertex $-1 $246 $338 #
straight-curve $-1 151.0397656178472232 -9.004788891690793662 37.69006703119815427 0 -1 0 I I #
coedge $-1 $226 $228 $137 $238 reversed $130 $-1 #
edge $-1 $241 -9.004788891690793662 $244 9.004788891690793662 $237 $339 forward 7 unknown #
coedge $-1 $232 $138 $143 $247 forward $224 $-1 #
coedge $-1 $138 $232 $226 $330 reversed $224 $-1 #
vertex $-1 $139 $340 #
straight-curve $-1 75.51988280892361161 0 43.54767983960472577 -1 0 0 I I #
coedge $-1 $140 $227 $142 $246 reversed $77 $-1 #
vertex $-1 $238 $341 #
straight-curve $-1 75.51988280892361161 -18.00957778338158732 43.54767983960472577 1 0 0 I I #
edge $-1 $145 -2.928806404203285751 $235 2.928806404203285751 $142 $342 forward 7 unknown #
edge $-1 $146 -2.928806404203285751 $234 2.928806404203285751 $143 $343 forward 7 unknown #
point $-1 151.0397656178472232 -18.00957778338158732 43.54767983960472577 #
point $-1 151.0397656178472232 0 43.54767983960472577 #
face $-1 $-1 $163 $14 $-1 $344 reversed single #
loop $-1 $-1 $266 $148 #
plane-surface $-1 9.592041513361573735 340.0777785475637529 -43.30537453664393865 0 -0.629320380830711068 0.7771459697322561366 0 -0.7771459697322561366 -0.629320380830711068 forward_v I I I I #
coedge $-1 $345 $264 $267 $346 forward $149 $-1 #
coedge $-1 $270 $151 $152 $258 reversed $85 $-1 #
coedge $-1 $264 $345 $151 $256 reversed $149 $-1 #
edge $-1 $271 -151.0397656178472232 $347 151.0397656178472232 $255 $348 forward 7 unknown #
coedge $-1 $153 $152 $345 $349 forward $51 $-1 #
edge $-1 $262 -9.592041513361573735 $347 9.592041513361573735 $254 $350 forward 7 unknown #
coedge $-1 $267 $266 $153 $260 reversed $251 $-1 #
edge $-1 $351 -9.592041513361573735 $261 9.592041513361573735 $259 $352 forward 7 unknown #
vertex $-1 $155 $353 #
vertex $-1 $273 $354 #
straight-curve $-1 19.18408302672314747 32.59302778993931327 96.40211288258021227 0 -0.629320380830711068 0.7771459697322561366 I I #
coedge $-1 $253 $255 $156 $265 reversed $149 $-1 #
edge $-1 $268 -302.0795312356943896 $271 302.0795312356945033 $264 $355 forward 7 unknown #
coedge $-1 $259 $157 $162 $274 forward $251 $-1 #
coedge $-1 $157 $259 $253 $346 reversed $251 $-1 #
vertex $-1 $158 $356 #
straight-curve $-1 9.592041513361573735 457.4577236667782927 51.74702828256101839 -1 0 0 I I #
coedge $-1 $159 $254 $161 $273 reversed $85 $-1 #
vertex $-1 $265 $357 #
straight-curve $-1 9.592041513361573735 77.24811238995850715 521.2668087594192912 1 0 0 I I #
edge $-1 $164 -151.0397656178472232 $262 151.0397656178472232 $161 $358 forward 7 unknown #
edge $-1 $165 -151.0397656178471948 $261 151.0397656178471948 $162 $359 forward 7 unknown #
point $-1 19.18408302672314747 77.24811238995850715 521.2668087594192912 #
point $-1 19.18408302672314747 457.4577236667782927 51.74702828256101839 #
coedge $-1 $277 $277 $-1 $360 reversed $167 $-1 #
vertex $-1 $169 $361 #
ellipse-curve $-1 9.592041513361573735 79.20311607953347277 33.81840840832489192 0 0.7771459697322561366 0.629320380830711068 1 0 0 1 I I #
point $-1 10.59204151336157373 81.66073021966306555 35.80854504524798898 #
face $-1 $-1 $187 $16 $-1 $362 reversed single #
loop $-1 $-1 $297 $172 #
plane-surface $-1 85.11192432228519067 340.0777785475637529 -43.30537453664393865 0 -0.629320380830711068 0.7771459697322561366 0 -0.7771459697322561366 -0.629320380830711068 forward_v I I I I #
coedge $-1 $363 $295 $298 $364 forward $173 $-1 #
coedge $-1 $301 $175 $176 $289 reversed $98 $-1 #
coedge $-1 $295 $363 $175 $287 reversed $173 $-1 #
edge $-1 $302 -151.0397656178472232 $365 151.0397656178472232 $286 $366 forward 7 unknown #
coedge $-1 $177 $176 $363 $367 forward $60 $-1 #
edge $-1 $293 -9.592041513361579064 $365 9.592041513361579064 $285 $368 forward 7 unknown #
coedge $-1 $298 $297 $177 $291 reversed $282 $-1 #
edge $-1 $369 -9.592041513361579064 $292 9.592041513361579064 $290 $370 forward 7 unknown #
vertex $-1 $179 $371 #
vertex $-1 $304 $372 #
straight-curve $-1 94.70396583564676973 32.59302778993931327 96.40211288258021227 0 -0.629320380830711068 0.7771459697322561366 I I #
coedge $-1 $284 $286 $180 $296 reversed $173 $-1 #
edge $-1 $299 -302.0795312356943896 $302 302.0795312356945033 $295 $373 forward 7 unknown #
coedge $-1 $290 $181 $186 $305 forward $282 $-1 #
coedge $-1 $181 $290 $284 $364 reversed $282 $-1 #
vertex $-1 $182 $374 #
straight-curve $-1 85.11192432228519067 457.4577236667782927 51.74702828256101839 -1 0 0 I I #
coedge $-1 $183 $285 $185 $304 reversed $98 $-1 #
vertex $-1 $296 $375 #
straight-curve $-1 85.11192432228519067 77.24811238995850715 521.2668087594192912 1 0 0 I I #
edge $-1 $188 -151.0397656178472232 $293 151.0397656178472232 $185 $376 forward 7 unknown #
edge $-1 $189 -151.0397656178471948 $292 151.0397656178471948 $186 $377 forward 7 unknown #
point $-1 94.70396583564676973 77.24811238995850715 521.2668087594192912 #
point $-1 94.70396583564676973 457.4577236667782927 51.74702828256101839 #
coedge $-1 $308 $308 $-1 $378 reversed $191 $-1 #
vertex $-1 $193 $379 #
ellipse-curve $-1 85.11192432228519067 79.20311607953347277 33.81840840832489192 0 0.7771459697322561366 0.629320380830711068 1 0 0 1 I I #
point $-1 86.11192432228519067 81.66073021966306555 35.80854504524798898 #
plane-surface $-1 151.0397656178472232 43.96387891918882929 21.77383991980236289 -1 0 0 0 0 1 forward_v I I I I #
coedge $-1 $201 $199 $203 $317 reversed $111 $-1 #
edge $-1 $214 -21.77383991980236289 $319 21.77383991980236289 $213 $380 forward 7 unknown #
vertex $-1 $317 $381 #
straight-curve $-1 0 0 21.77383991980236289 0 0 -1 I I #
edge $-1 $315 -43.96387891918882929 $319 43.96387891918882929 $313 $382 forward 7 unknown #
straight-curve $-1 75.51988280892361161 0 0 -1 0 0 I I #
vertex $-1 $206 $383 #
straight-curve $-1 75.51988280892361161 87.92775783837765857 0 1 0 0 I I #
point $-1 151.0397656178472232 87.92775783837765857 0 #
point $-1 151.0397656178472232 0 0 #
straight-curve $-1 0 43.96387891918882929 43.54767983960472577 0 -1 0 I I #
point $-1 0 87.92775783837765857 43.54767983960472577 #
point $-1 0 0 43.54767983960472577 #
straight-curve $-1 151.0397656178472232 0 21.77383991980236289 0 0 -1 I I #
straight-curve $-1 151.0397656178472232 87.92775783837765857 21.77383991980236289 0 0 -1 I I #
plane-surface $-1 151.0397656178472232 -9.004788891690793662 40.61887343540144002 -1 0 0 0 0 1 forward_v I I I I #
coedge $-1 $228 $226 $230 $333 reversed $130 $-1 #
edge $-1 $241 -2.928806404203285751 $335 2.928806404203285751 $240 $384 forward 7 unknown #
vertex $-1 $333 $385 #
straight-curve $-1 0 -18.00957778338158732 40.61887343540144002 0 0 -1 I I #
edge $-1 $331 -9.004788891690793662 $335 9.004788891690793662 $329 $386 forward 7 unknown #
straight-curve $-1 75.51988280892361161 -18.00957778338158732 37.69006703119815427 -1 0 0 I I #
vertex $-1 $233 $387 #
straight-curve $-1 75.51988280892361161 0 37.69006703119815427 1 0 0 I I #
point $-1 151.0397656178472232 0 37.69006703119815427 #
point $-1 151.0397656178472232 -18.00957778338158732 37.69006703119815427 #
straight-curve $-1 0 -9.004788891690793662 43.54767983960472577 0 -1 0 I I #
point $-1 0 0 43.54767983960472577 #
point $-1 0 -18.00957778338158732 43.54767983960472577 #
straight-curve $-1 151.0397656178472232 -18.00957778338158732 40.61887343540144002 0 0 -1 I I #
straight-curve $-1 151.0397656178472232 0 40.61887343540144002 0 0 -1 I I #
plane-surface $-1 19.18408302672314747 149.9729729091538672 191.4545157017851693 -1 0 0 0 0.7771459697322561366 0.629320380830711068 forward_v I I I I #
coedge $-1 $255 $253 $257 $349 reversed $149 $-1 #
edge $-1 $268 -151.0397656178471948 $351 151.0397656178471948 $267 $388 forward 7 unknown #
vertex $-1 $349 $389 #
straight-curve $-1 0 -40.13183272925604683 426.2144059402143057 0 -0.7771459697322561366 -0.629320380830711068 I I #
edge $-1 $347 -302.0795312356944464 $351 302.0795312356944464 $345 $390 forward 7 unknown #
straight-curve $-1 9.592041513361573735 -157.5117778484705866 331.1620031210093202 -1 0 0 I I #
vertex $-1 $260 $391 #
straight-curve $-1 9.592041513361573735 222.6978334283492131 -138.3577773558488957 1 0 0 I I #
point $-1 19.18408302672314747 222.6978334283492131 -138.3577773558488957 #
point $-1 19.18408302672314747 -157.5117778484705866 331.1620031210093202 #
straight-curve $-1 0 267.3529180283684354 286.5069185209900979 0 -0.629320380830711068 0.7771459697322561366 I I #
point $-1 0 457.4577236667782927 51.74702828256101839 #
point $-1 0 77.24811238995850715 521.2668087594192912 #
straight-curve $-1 19.18408302672314747 -40.13183272925604683 426.2144059402143057 0 -0.7771459697322561366 -0.629320380830711068 I I #
straight-curve $-1 19.18408302672314747 340.0777785475637529 -43.30537453664393865 0 -0.7771459697322561366 -0.629320380830711068 I I #
edge $-1 $392 1 $392 0 $277 $-1 forward 7 unknown #
point $-1 10.59204151336157373 79.20311607953347277 33.81840840832489192 #
plane-surface $-1 94.70396583564676973 149.9729729091538672 191.4545157017851693 -1 0 0 0 0.7771459697322561366 0.629320380830711068 forward_v I I I I #
coedge $-1 $286 $284 $288 $367 reversed $173 $-1 #
edge $-1 $299 -151.0397656178471948 $369 151.0397656178471948 $298 $393 forward 7 unknown #
vertex $-1 $367 $394 #
straight-curve $-1 75.51988280892361161 -40.13183272925604683 426.2144059402143057 0 -0.7771459697322561366 -0.629320380830711068 I I #
edge $-1 $365 -302.0795312356944464 $369 302.0795312356944464 $363 $395 forward 7 unknown #
straight-curve $-1 85.11192432228519067 -157.5117778484705866 331.1620031210093202 -1 0 0 I I #
vertex $-1 $291 $396 #
straight-curve $-1 85.11192432228519067 222.6978334283492131 -138.3577773558488957 1 0 0 I I #
point $-1 94.70396583564676973 222.6978334283492131 -138.3577773558488957 #
point $-1 94.70396583564676973 -157.5117778484705866 331.1620031210093202 #
straight-curve $-1 75.51988280892361161 267.3529180283684354 286.5069185209900979 0 -0.629320380830711068 0.7771459697322561366 I I #
point $-1 75.51988280892361161 457.4577236667782927 51.74702828256101839 #
point $-1 75.51988280892361161 77.24811238995850715 521.2668087594192912 #
straight-curve $-1 94.70396583564676973 -40.13183272925604683 426.2144059402143057 0 -0.7771459697322561366 -0.629320380830711068 I I #
straight-curve $-1 94.70396583564676973 340.0777785475637529 -43.30537453664393865 0 -0.7771459697322561366 -0.629320380830711068 I I #
edge $-1 $397 1 $397 0 $308 $-1 forward 7 unknown #
point $-1 86.11192432228519067 79.20311607953347277 33.81840840832489192 #
straight-curve $-1 0 87.92775783837765857 21.77383991980236289 0 0 -1 I I #
point $-1 0 0 0 #
straight-curve $-1 0 43.96387891918882929 0 0 1 0 I I #
point $-1 0 87.92775783837765857 0 #
straight-curve $-1 0 0 40.61887343540144002 0 0 -1 I I #
point $-1 0 -18.00957778338158732 37.69006703119815427 #
straight-curve $-1 0 -9.004788891690793662 37.69006703119815427 0 1 0 I I #
point $-1 0 0 37.69006703119815427 #
straight-curve $-1 0 340.0777785475637529 -43.30537453664393865 0 -0.7771459697322561366 -0.629320380830711068 I I #
point $-1 0 -157.5117778484705866 331.1620031210093202 #
straight-curve $-1 0 32.59302778993931327 96.40211288258021227 0 0.629320380830711068 -0.7771459697322561366 I I #
point $-1 0 222.6978334283492131 -138.3577773558488957 #
vertex $-1 $360 $398 #
straight-curve $-1 75.51988280892361161 340.0777785475637529 -43.30537453664393865 0 -0.7771459697322561366 -0.629320380830711068 I I #
point $-1 75.51988280892361161 -157.5117778484705866 331.1620031210093202 #
straight-curve $-1 75.51988280892361161 32.59302778993931327 96.40211288258021227 0 0.629320380830711068 -0.7771459697322561366 I I #
point $-1 75.51988280892361161 222.6978334283492131 -138.3577773558488957 #
vertex $-1 $378 $399 #
point $-1 9.592041513361573735 78.42597010980121297 33.1890880274941722 #
point $-1 85.11192432228519067 78.42597010980121297 33.1890880274941722 #
End-of-ACIS-data 