300 0 4 0           
7 Unknown 11 ACIS 3.0 NT 24 Fri Oct 30 19:13:30 1998 
-1 9.9999999999999995e-007 1e-010 
body $4 $5 $-1 $6 #
body $7 $8 $-1 $9 #
body $10 $11 $-1 $12 #
body $13 $14 $-1 $15 #
display_attribute-st-attrib $-1 $16 $-1 $0 1 #
lump $-1 $-1 $17 $0 #
transform $-1 1 0 0 0 1 0 0 0 1 61.533860286263618 40.425832605864684 8.1780668536788621 1 rotate no_reflect no_shear #
display_attribute-st-attrib $-1 $18 $-1 $1 3 #
lump $-1 $-1 $19 $1 #
transform $-1 1 0 0 0 1 0 0 0 1 61.533860286263618 40.425832605864684 8.1780668536788621 1 rotate no_reflect no_shear #
display_attribute-st-attrib $-1 $20 $-1 $2 2 #
lump $-1 $-1 $21 $2 #
transform $-1 1 0 0 0 1 0 0 0 1 61.533860286263618 40.425832605864684 8.1780668536788621 1 rotate no_reflect no_shear #
display_attribute-st-attrib $-1 $22 $-1 $3 1 #
lump $-1 $-1 $23 $3 #
transform $-1 1 0 0 0 1 0 0 0 1 61.533860286263618 40.425832605864684 8.1780668536788621 1 rotate no_reflect no_shear #
id_attribute-st-attrib $-1 $-1 $4 $0 3489 #
shell $-1 $-1 $-1 $24 $-1 $5 #
id_attribute-st-attrib $-1 $-1 $7 $1 3497 #
shell $-1 $-1 $-1 $25 $-1 $8 #
id_attribute-st-attrib $-1 $-1 $10 $2 3507 #
shell $-1 $-1 $-1 $26 $-1 $11 #
id_attribute-st-attrib $-1 $-1 $13 $3 3515 #
shell $-1 $-1 $-1 $27 $-1 $14 #
face $-1 $28 $29 $17 $-1 $30 forward single #
face $-1 $31 $32 $19 $-1 $33 forward single #
face $-1 $34 $35 $21 $-1 $36 reversed single #
face $-1 $37 $38 $23 $-1 $39 forward single #
face $-1 $40 $41 $17 $-1 $42 reversed single #
loop $-1 $-1 $43 $24 #
plane-surface $-1 0 0 8.1780668536788621 0 0 1 1 0 0 forward_v I I I I #
face $-1 $44 $45 $19 $-1 $46 reversed single #
loop $-1 $-1 $47 $25 #
plane-surface $-1 0 -37.055818650386527 -5.1666554018181969 0 0 1 1 0 0 forward_v I I I I #
face $-1 $48 $49 $21 $-1 $50 reversed single #
loop $-1 $-1 $51 $26 #
plane-surface $-1 70.642623674164113 -11.637956165417005 175.91691527890131 0 -1 0 -0.74314483375859142 0 -0.66913059716165679 forward_v I I I I #
face $-1 $52 $53 $23 $-1 $54 forward single #
loop $-1 $55 $56 $27 #
cone-surface $-1 57.587547255216762 -21.209229737838843 4.0506635651636334 -0.74314483375859142 0 -0.66913059716165679 0.66913059716165679 0 -0.74314483375859142 1 I I 0 1 forward I I I I #
face $-1 $57 $58 $17 $-1 $59 reversed single #
loop $-1 $-1 $60 $28 #
plane-surface $-1 0 0 -8.1780668536788621 0 0 1 1 0 0 forward_v I I I I #
coedge $-1 $61 $62 $63 $64 forward $29 $-1 #
face $-1 $65 $66 $19 $-1 $67 reversed single #
loop $-1 $-1 $68 $31 #
plane-surface $-1 0 -33.68580469490837 -6.6723611277485295 0 -1 0 0 0 -1 forward_v I I I I #
coedge $-1 $69 $70 $71 $72 reversed $32 $-1 #
face $-1 $73 $74 $21 $-1 $75 reversed single #
loop $-1 $-1 $76 $34 #
plane-surface $-1 -20.814517071755418 -21.209229737838843 93.56853792088225 0.74314483375859142 0 0.66913059716165679 0.66913059716165679 0 -0.74314483375859142 forward_v I I I I #
coedge $-1 $77 $78 $79 $80 reversed $35 $-1 #
face $-1 $-1 $81 $23 $-1 $82 forward single #
loop $-1 $83 $84 $37 #
cone-surface $-1 56.000888696382134 -21.209229737838843 2.622029817425636 -0.74314483375859142 0 -0.66913059716165679 0.3345652985808284 0 -0.37157241687929571 1 I I -0.70710678118654746 0.70710678118654746 forward I I I I #
loop $-1 $-1 $85 $27 #
coedge $-1 $56 $56 $86 $87 reversed $38 $-1 #
face $-1 $88 $89 $17 $-1 $90 reversed single #
loop $-1 $-1 $91 $40 #
plane-surface $-1 0 -40.425832605864684 0 0 1 0 0 0 1 forward_v I I I I #
coedge $-1 $92 $93 $94 $95 forward $41 $-1 #
coedge $-1 $96 $43 $97 $98 forward $29 $-1 #
coedge $-1 $43 $96 $99 $100 forward $29 $-1 #
coedge $-1 $101 $102 $43 $64 reversed $103 $-1 #
edge $-1 $104 $105 $63 $106 forward #
face $-1 $107 $108 $19 $-1 $109 reversed single #
loop $-1 $-1 $110 $44 #
plane-surface $-1 0 0 -8.1780668536788621 0 0 1 1 0 0 forward_v I I I I #
coedge $-1 $111 $112 $113 $114 reversed $45 $-1 #
coedge $-1 $115 $47 $112 $116 forward $32 $-1 #
coedge $-1 $47 $115 $117 $118 reversed $32 $-1 #
coedge $-1 $119 $113 $47 $72 forward $108 $-1 #
edge $-1 $120 $121 $71 $122 forward #
face $-1 $123 $124 $21 $-1 $125 reversed single #
loop $-1 $-1 $126 $48 #
plane-surface $-1 70.642623674164113 -30.780503310260681 175.91691527890131 0 1 0 0.74314483375859142 0 0.66913059716165679 forward_v I I I I #
coedge $-1 $127 $128 $129 $130 reversed $49 $-1 #
coedge $-1 $78 $51 $131 $132 reversed $35 $-1 #
coedge $-1 $51 $77 $127 $133 reversed $35 $-1 #
coedge $-1 $129 $134 $51 $80 forward $135 $-1 #
edge $-1 $136 $137 $79 $138 forward #
loop $-1 $-1 $86 $52 #
plane-surface $-1 -20.814517071755418 -21.209229737838843 93.56853792088225 0.74314483375859142 0 0.66913059716165679 0.66913059716165679 0 -0.74314483375859142 forward_v I I I I #
loop $-1 $-1 $139 $37 #
coedge $-1 $84 $84 $85 $140 reversed $53 $-1 #
coedge $-1 $85 $85 $84 $140 forward $55 $-1 #
coedge $-1 $86 $86 $56 $87 forward $81 $-1 #
edge $-1 $141 $141 $86 $142 forward #
face $-1 $143 $144 $17 $-1 $145 reversed single #
loop $-1 $-1 $146 $57 #
plane-surface $-1 -61.533860286263618 0 0 1 0 0 0 0 -1 forward_v I I I I #
coedge $-1 $147 $99 $148 $149 forward $58 $-1 #
coedge $-1 $150 $60 $147 $151 forward $41 $-1 #
coedge $-1 $60 $150 $152 $153 forward $41 $-1 #
coedge $-1 $102 $101 $60 $95 reversed $103 $-1 #
edge $-1 $154 $155 $94 $156 forward #
coedge $-1 $62 $61 $157 $158 forward $29 $-1 #
coedge $-1 $159 $160 $61 $98 reversed $144 $-1 #
edge $-1 $105 $161 $97 $162 forward #
coedge $-1 $91 $163 $62 $100 reversed $58 $-1 #
edge $-1 $164 $104 $99 $165 forward #
coedge $-1 $94 $63 $163 $166 forward $103 $-1 #
coedge $-1 $63 $94 $159 $167 reversed $103 $-1 #
loop $-1 $-1 $101 $143 #
vertex $-1 $64 $168 #
vertex $-1 $64 $169 #
straight-curve $-1 61.533860286263618 0 8.1780668536788621 0 1 0 I I #
face $-1 $170 $171 $19 $-1 $172 reversed single #
loop $-1 $-1 $113 $65 #
plane-surface $-1 61.533860286263618 0 0 -1 0 0 0 0 1 forward_v I I I I #
coedge $-1 $173 $174 $111 $175 forward $66 $-1 #
coedge $-1 $176 $68 $110 $175 reversed $45 $-1 #
coedge $-1 $68 $176 $69 $116 reversed $45 $-1 #
coedge $-1 $71 $177 $68 $114 forward $108 $-1 #
edge $-1 $178 $120 $113 $179 forward #
coedge $-1 $70 $69 $180 $181 reversed $32 $-1 #
edge $-1 $120 $182 $112 $183 forward #
coedge $-1 $184 $185 $70 $118 forward $171 $-1 #
edge $-1 $121 $186 $117 $187 forward #
coedge $-1 $177 $71 $185 $188 forward $108 $-1 #
vertex $-1 $72 $189 #
vertex $-1 $188 $190 #
straight-curve $-1 61.533860286263618 -18.527909325193264 -5.1666554018181969 0 -1 0 I I #
face $-1 $-1 $135 $21 $-1 $191 forward single #
loop $-1 $-1 $192 $73 #
plane-surface $-1 61.533860286263618 0 0 -1 0 0 0 0 1 forward_v I I I I #
coedge $-1 $193 $194 $195 $196 reversed $74 $-1 #
coedge $-1 $197 $76 $78 $133 forward $49 $-1 #
coedge $-1 $76 $197 $193 $198 forward $49 $-1 #
coedge $-1 $195 $79 $76 $130 forward $135 $-1 #
edge $-1 $137 $199 $129 $200 forward #
coedge $-1 $201 $202 $77 $132 forward $124 $-1 #
edge $-1 $203 $136 $131 $204 forward #
edge $-1 $137 $203 $78 $205 forward #
coedge $-1 $79 $195 $201 $206 forward $135 $-1 #
loop $-1 $-1 $195 $123 #
vertex $-1 $132 $207 #
vertex $-1 $80 $208 #
straight-curve $-1 35.321311837082057 -11.637956165417005 8.1780668536788568 -1 0 0 I I #
coedge $-1 $139 $139 $-1 $209 reversed $83 $-1 #
edge $-1 $210 $210 $84 $211 forward #
vertex $-1 $87 $212 #
ellipse-curve $-1 58.802633397172094 -21.209229737838843 5.1447320143208035 0.74314483375859142 0 0.66913059716165679 0.66913059716165679 0 -0.74314483375859142 1 I I #
face $-1 $-1 $103 $17 $-1 $213 reversed single #
loop $-1 $-1 $159 $88 #
plane-surface $-1 0 40.425832605864684 0 0 -1 0 0 0 -1 forward_v I I I I #
coedge $-1 $214 $157 $160 $215 forward $89 $-1 #
coedge $-1 $163 $91 $92 $151 reversed $58 $-1 #
coedge $-1 $157 $214 $91 $149 reversed $89 $-1 #
edge $-1 $164 $216 $148 $217 forward #
coedge $-1 $93 $92 $214 $218 forward $41 $-1 #
edge $-1 $155 $216 $147 $219 forward #
coedge $-1 $160 $159 $93 $153 reversed $144 $-1 #
edge $-1 $220 $154 $152 $221 forward #
vertex $-1 $95 $222 #
vertex $-1 $166 $223 #
straight-curve $-1 61.533860286263618 0 -8.1780668536788621 0 -1 0 I I #
coedge $-1 $146 $148 $96 $158 reversed $89 $-1 #
edge $-1 $161 $164 $157 $224 forward #
coedge $-1 $152 $97 $102 $167 forward $144 $-1 #
coedge $-1 $97 $152 $146 $215 reversed $144 $-1 #
vertex $-1 $98 $225 #
straight-curve $-1 0 40.425832605864684 8.1780668536788621 -1 0 0 I I #
coedge $-1 $99 $147 $101 $166 reversed $58 $-1 #
vertex $-1 $158 $226 #
straight-curve $-1 0 -40.425832605864684 8.1780668536788621 1 0 0 I I #
edge $-1 $104 $155 $101 $227 forward #
edge $-1 $105 $154 $102 $228 forward #
point $-1 61.533860286263618 -40.425832605864684 8.1780668536788621 #
point $-1 61.533860286263618 40.425832605864684 8.1780668536788621 #
face $-1 $-1 $229 $19 $-1 $230 reversed single #
loop $-1 $-1 $117 $107 #
plane-surface $-1 0 -40.425832605864684 0 0 1 0 0 0 1 forward_v I I I I #
coedge $-1 $231 $110 $177 $232 forward $66 $-1 #
coedge $-1 $110 $231 $233 $234 forward $66 $-1 #
edge $-1 $235 $178 $110 $236 forward #
coedge $-1 $112 $111 $237 $238 reversed $45 $-1 #
coedge $-1 $113 $119 $173 $232 reversed $108 $-1 #
vertex $-1 $232 $239 #
straight-curve $-1 61.533860286263618 -33.68580469490837 -3.3361805638742648 0 0 1 I I #
coedge $-1 $237 $240 $115 $181 forward $229 $-1 #
edge $-1 $186 $182 $180 $241 forward #
vertex $-1 $181 $242 #
straight-curve $-1 0 -33.68580469490837 -5.1666554018181969 -1 0 0 I I #
coedge $-1 $243 $117 $240 $244 forward $171 $-1 #
coedge $-1 $117 $243 $119 $188 reversed $171 $-1 #
vertex $-1 $244 $245 #
straight-curve $-1 0 -40.425832605864684 -5.1666554018181969 -1 0 0 I I #
edge $-1 $121 $246 $119 $247 forward #
point $-1 61.533860286263618 -33.68580469490837 -5.1666554018181969 #
point $-1 61.533860286263618 -40.425832605864684 -5.1666554018181969 #
plane-surface $-1 0 0 8.1780668536788621 0 0 1 1 0 0 forward_v I I I I #
coedge $-1 $202 $201 $194 $248 forward $124 $-1 #
coedge $-1 $194 $126 $128 $198 reversed $74 $-1 #
coedge $-1 $126 $193 $192 $248 reversed $74 $-1 #
coedge $-1 $134 $129 $126 $196 forward $135 $-1 #
edge $-1 $199 $249 $195 $250 forward #
coedge $-1 $128 $127 $202 $251 reversed $49 $-1 #
edge $-1 $252 $199 $193 $253 forward #
vertex $-1 $130 $254 #
straight-curve $-1 56.071406508080564 -10.604614868919422 8.178066853678871 0 -1 0 I I #
coedge $-1 $192 $131 $134 $206 reversed $124 $-1 #
coedge $-1 $131 $192 $197 $251 forward $124 $-1 #
vertex $-1 $132 $255 #
straight-curve $-1 61.533860286263618 -11.637956165417005 87.958457639450657 0 0 1 I I #
straight-curve $-1 -20.814517071755418 -11.637956165417005 93.56853792088225 0.66913059716165679 0 -0.74314483375859142 I I #
edge $-1 $249 $136 $201 $256 forward #
point $-1 61.533860286263618 -11.637956165417005 8.1780668536788621 #
point $-1 56.071406508080571 -11.637956165417005 8.1780668536788568 #
edge $-1 $257 $257 $139 $-1 forward #
vertex $-1 $140 $258 #
ellipse-curve $-1 56.37246111326143 -21.209229737838843 2.9565951160064645 0.74314483375859142 0 0.66913059716165679 0.66913059716165679 0 -0.74314483375859142 1 I I #
point $-1 59.471763994333749 -21.209229737838843 4.4015871805622098 #
plane-surface $-1 61.533860286263618 0 0 -1 0 0 0 0 1 forward_v I I I I #
coedge $-1 $148 $146 $150 $218 reversed $89 $-1 #
edge $-1 $161 $220 $160 $259 forward #
vertex $-1 $218 $260 #
straight-curve $-1 -61.533860286263618 -40.425832605864684 0 0 0 -1 I I #
edge $-1 $216 $220 $214 $261 forward #
straight-curve $-1 0 -40.425832605864684 -8.1780668536788621 -1 0 0 I I #
vertex $-1 $153 $262 #
straight-curve $-1 0 40.425832605864684 -8.1780668536788621 1 0 0 I I #
point $-1 61.533860286263618 40.425832605864684 -8.1780668536788621 #
point $-1 61.533860286263618 -40.425832605864684 -8.1780668536788621 #
straight-curve $-1 -61.533860286263618 0 8.1780668536788621 0 -1 0 I I #
point $-1 -61.533860286263618 40.425832605864684 8.1780668536788621 #
point $-1 -61.533860286263618 -40.425832605864684 8.1780668536788621 #
straight-curve $-1 61.533860286263618 -40.425832605864684 0 0 0 -1 I I #
straight-curve $-1 61.533860286263618 40.425832605864684 0 0 0 -1 I I #
loop $-1 $-1 $237 $170 #
plane-surface $-1 -61.533860286263618 0 0 1 0 0 0 0 -1 forward_v I I I I #
coedge $-1 $174 $173 $243 $263 forward $66 $-1 #
edge $-1 $178 $246 $177 $264 forward #
coedge $-1 $240 $237 $174 $234 reversed $229 $-1 #
edge $-1 $265 $235 $233 $266 forward #
vertex $-1 $238 $267 #
straight-curve $-1 0 -33.68580469490837 -8.1780668536788621 1 0 0 I I #
coedge $-1 $233 $180 $176 $238 forward $229 $-1 #
edge $-1 $182 $235 $237 $268 forward #
point $-1 61.533860286263618 -33.68580469490837 -8.1780668536788621 #
coedge $-1 $180 $233 $184 $244 reversed $229 $-1 #
straight-curve $-1 -61.533860286263618 -18.527909325193264 -5.1666554018181969 0 1 0 I I #
point $-1 -61.533860286263618 -33.68580469490837 -5.1666554018181969 #
coedge $-1 $185 $184 $231 $263 reversed $171 $-1 #
edge $-1 $186 $265 $240 $269 forward #
point $-1 -61.533860286263618 -40.425832605864684 -5.1666554018181969 #
vertex $-1 $188 $270 #
straight-curve $-1 61.533860286263618 -40.425832605864684 0 0 0 -1 I I #
edge $-1 $249 $252 $192 $271 forward #
vertex $-1 $206 $272 #
straight-curve $-1 35.321311837082057 -30.780503310260681 8.1780668536788568 1 0 0 I I #
edge $-1 $252 $203 $202 $273 forward #
vertex $-1 $251 $274 #
straight-curve $-1 -20.814517071755418 -30.780503310260681 93.56853792088225 -0.66913059716165679 0 0.74314483375859142 I I #
point $-1 56.071406508080571 -30.780503310260681 8.1780668536788568 #
point $-1 61.533860286263618 -11.637956165417005 2.1113971749627467 #
straight-curve $-1 61.533860286263618 0 8.1780668536788621 0 1 0 I I #
vertex $-1 $209 $275 #
point $-1 57.041591710423084 -21.209229737838843 2.213450282247873 #
straight-curve $-1 -61.533860286263618 40.425832605864684 0 0 0 -1 I I #
point $-1 -61.533860286263618 -40.425832605864684 -8.1780668536788621 #
straight-curve $-1 -61.533860286263618 0 -8.1780668536788621 0 1 0 I I #
point $-1 -61.533860286263618 40.425832605864684 -8.1780668536788621 #
edge $-1 $246 $265 $243 $276 forward #
straight-curve $-1 61.533860286263618 0 -8.1780668536788621 0 -1 0 I I #
vertex $-1 $234 $277 #
straight-curve $-1 -61.533860286263618 0 -8.1780668536788621 0 1 0 I I #
point $-1 -61.533860286263618 -33.68580469490837 -8.1780668536788621 #
straight-curve $-1 -61.533860286263618 -33.68580469490837 -3.3361805638742648 0 0 -1 I I #
straight-curve $-1 -61.533860286263618 -40.425832605864684 0 0 0 -1 I I #
point $-1 61.533860286263618 -40.425832605864684 -8.1780668536788621 #
straight-curve $-1 61.533860286263618 -30.780503310260681 87.958457639450657 0 0 -1 I I #
point $-1 61.533860286263618 -30.780503310260681 8.1780668536788621 #
straight-curve $-1 61.533860286263618 -10.604614868919422 2.1113971749627467 0 1 0 I I #
point $-1 61.533860286263618 -30.780503310260681 2.1113971749627467 #
point $-1 55.629316279502838 -21.209229737838843 2.2874645188448075 #
straight-curve $-1 0 -40.425832605864684 -8.1780668536788621 -1 0 0 I I #
point $-1 -61.533860286263618 -40.425832605864684 -8.1780668536788621 #
End-of-ACIS-data 