300 0 3 0           
7 Unknown 11 ACIS 3.0 NT 24 Fri Oct 30 14:42:24 1998 
-1 9.9999999999999995e-007 1e-010 
body $3 $4 $-1 $5 #
body $6 $7 $-1 $8 #
body $9 $10 $-1 $11 #
display_attribute-st-attrib $-1 $12 $-1 $0 1 #
lump $-1 $-1 $13 $0 #
transform $-1 1 0 0 0 1 0 0 0 1 55.265358439893795 27.06631344449854 8.0878443198681165 1 rotate no_reflect no_shear #
display_attribute-st-attrib $-1 $14 $-1 $1 2 #
lump $-1 $-1 $15 $1 #
transform $-1 1 0 0 0 1 0 0 0 1 55.265358439893795 27.06631344449854 8.0878443198681165 1 rotate no_reflect no_shear #
display_attribute-st-attrib $-1 $16 $-1 $2 1 #
lump $-1 $-1 $17 $2 #
transform $-1 1 0 0 0 1 0 0 0 1 55.265358439893795 27.06631344449854 8.0878443198681165 1 rotate no_reflect no_shear #
id_attribute-st-attrib $-1 $-1 $3 $0 2245 #
shell $-1 $-1 $-1 $18 $-1 $4 #
id_attribute-st-attrib $-1 $-1 $6 $1 2253 #
shell $-1 $-1 $-1 $19 $-1 $7 #
id_attribute-st-attrib $-1 $-1 $9 $2 2261 #
shell $-1 $-1 $-1 $20 $-1 $10 #
face $-1 $21 $22 $13 $-1 $23 forward single #
face $-1 $24 $25 $15 $-1 $26 forward single #
face $-1 $27 $28 $17 $-1 $29 forward single #
face $-1 $30 $31 $13 $-1 $32 reversed single #
loop $-1 $-1 $33 $18 #
plane-surface $-1 0 0 8.0878443198681165 0 0 1 1 0 0 forward_v I I I I #
face $-1 $34 $35 $15 $-1 $36 reversed single #
loop $-1 $-1 $37 $19 #
plane-surface $-1 0 -24.384047889532422 7.5878443198681165 0 0 1 1 0 0 forward_v I I I I #
face $-1 $38 $39 $17 $-1 $40 reversed single #
loop $-1 $-1 $41 $20 #
plane-surface $-1 0 24.384047889532418 7.5878443198681165 0 0 1 1 0 0 forward_v I I I I #
face $-1 $42 $43 $13 $-1 $44 reversed single #
loop $-1 $-1 $45 $21 #
plane-surface $-1 0 0 -8.0878443198681165 0 0 1 1 0 0 forward_v I I I I #
coedge $-1 $46 $47 $48 $49 forward $22 $-1 #
face $-1 $50 $51 $15 $-1 $52 reversed single #
loop $-1 $-1 $53 $24 #
plane-surface $-1 0 -24.384047889532422 3.4149046659310951 0 0 1 1 0 0 forward_v I I I I #
coedge $-1 $54 $55 $56 $57 reversed $25 $-1 #
face $-1 $58 $59 $17 $-1 $60 reversed single #
loop $-1 $-1 $61 $27 #
plane-surface $-1 0 24.384047889532418 3.4149046659310951 0 0 1 1 0 0 forward_v I I I I #
coedge $-1 $62 $63 $64 $65 reversed $28 $-1 #
face $-1 $66 $67 $13 $-1 $68 reversed single #
loop $-1 $-1 $69 $30 #
plane-surface $-1 0 -27.06631344449854 0 0 1 0 0 0 1 forward_v I I I I #
coedge $-1 $70 $71 $72 $73 forward $31 $-1 #
coedge $-1 $74 $33 $75 $76 forward $22 $-1 #
coedge $-1 $33 $74 $77 $78 forward $22 $-1 #
coedge $-1 $79 $80 $33 $49 reversed $81 $-1 #
edge $-1 $82 $83 $48 $84 forward #
face $-1 $85 $86 $15 $-1 $87 reversed single #
loop $-1 $-1 $88 $34 #
plane-surface $-1 0 -21.701782334566303 5.5013744928996058 0 -1 0 0 0 -1 forward_v I I I I #
coedge $-1 $89 $90 $91 $92 reversed $35 $-1 #
coedge $-1 $93 $37 $94 $95 forward $25 $-1 #
coedge $-1 $37 $93 $96 $97 reversed $25 $-1 #
coedge $-1 $98 $99 $37 $57 forward $100 $-1 #
edge $-1 $101 $102 $56 $103 forward #
face $-1 $104 $105 $17 $-1 $106 reversed single #
loop $-1 $-1 $107 $38 #
plane-surface $-1 0 21.7017823345663 5.5013744928996058 0 1 0 0 0 1 forward_v I I I I #
coedge $-1 $108 $109 $110 $111 reversed $39 $-1 #
coedge $-1 $112 $41 $113 $114 reversed $28 $-1 #
coedge $-1 $41 $112 $115 $116 forward $28 $-1 #
coedge $-1 $117 $118 $41 $65 forward $105 $-1 #
edge $-1 $119 $120 $64 $121 forward #
face $-1 $122 $123 $13 $-1 $124 reversed single #
loop $-1 $-1 $125 $42 #
plane-surface $-1 -55.265358439893795 0 0 1 0 0 0 0 -1 forward_v I I I I #
coedge $-1 $126 $77 $127 $128 forward $43 $-1 #
coedge $-1 $129 $45 $126 $130 forward $31 $-1 #
coedge $-1 $45 $129 $131 $132 forward $31 $-1 #
coedge $-1 $80 $79 $45 $73 reversed $81 $-1 #
edge $-1 $133 $134 $72 $135 forward #
coedge $-1 $47 $46 $136 $137 forward $22 $-1 #
coedge $-1 $138 $139 $46 $76 reversed $123 $-1 #
edge $-1 $83 $140 $75 $141 forward #
coedge $-1 $69 $142 $47 $78 reversed $43 $-1 #
edge $-1 $143 $82 $77 $144 forward #
coedge $-1 $72 $48 $142 $145 forward $81 $-1 #
coedge $-1 $48 $72 $138 $146 reversed $81 $-1 #
loop $-1 $-1 $79 $122 #
vertex $-1 $49 $147 #
vertex $-1 $49 $148 #
straight-curve $-1 55.265358439893795 0 8.0878443198681165 0 1 0 I I #
face $-1 $149 $150 $15 $-1 $151 reversed single #
loop $-1 $-1 $152 $50 #
plane-surface $-1 -55.265358439893795 0 0 1 0 0 0 0 -1 forward_v I I I I #
coedge $-1 $153 $94 $99 $154 reversed $51 $-1 #
coedge $-1 $155 $53 $156 $157 reversed $35 $-1 #
coedge $-1 $53 $155 $153 $158 forward $35 $-1 #
coedge $-1 $99 $98 $53 $92 forward $100 $-1 #
edge $-1 $159 $160 $91 $161 forward #
coedge $-1 $55 $54 $152 $162 reversed $25 $-1 #
coedge $-1 $88 $163 $54 $95 reversed $51 $-1 #
edge $-1 $101 $164 $94 $165 forward #
coedge $-1 $166 $167 $55 $97 forward $150 $-1 #
edge $-1 $102 $168 $96 $169 forward #
coedge $-1 $91 $56 $167 $170 forward $100 $-1 #
coedge $-1 $56 $91 $88 $154 forward $100 $-1 #
loop $-1 $-1 $56 $149 #
vertex $-1 $57 $171 #
vertex $-1 $170 $172 #
straight-curve $-1 55.265358439893795 -12.192023944766211 7.5878443198681165 0 -1 0 I I #
face $-1 $173 $174 $17 $-1 $175 reversed single #
loop $-1 $-1 $64 $58 #
plane-surface $-1 55.265358439893795 0 0 -1 0 0 0 0 1 forward_v I I I I #
coedge $-1 $176 $115 $177 $178 reversed $59 $-1 #
coedge $-1 $179 $61 $176 $180 forward $39 $-1 #
coedge $-1 $61 $179 $181 $182 reversed $39 $-1 #
coedge $-1 $118 $117 $61 $111 forward $105 $-1 #
edge $-1 $183 $184 $110 $185 forward #
coedge $-1 $63 $62 $186 $187 reversed $28 $-1 #
coedge $-1 $188 $189 $62 $114 forward $190 $-1 #
edge $-1 $191 $119 $113 $192 forward #
coedge $-1 $107 $193 $63 $116 reversed $59 $-1 #
edge $-1 $194 $120 $115 $195 forward #
coedge $-1 $110 $64 $193 $196 forward $105 $-1 #
coedge $-1 $64 $110 $188 $197 reversed $105 $-1 #
vertex $-1 $197 $198 #
vertex $-1 $65 $199 #
straight-curve $-1 55.265358439893795 12.192023944766209 7.5878443198681165 0 -1 0 I I #
face $-1 $-1 $81 $13 $-1 $200 reversed single #
loop $-1 $-1 $138 $66 #
plane-surface $-1 0 27.06631344449854 0 0 -1 0 0 0 -1 forward_v I I I I #
coedge $-1 $201 $136 $139 $202 forward $67 $-1 #
coedge $-1 $142 $69 $70 $130 reversed $43 $-1 #
coedge $-1 $136 $201 $69 $128 reversed $67 $-1 #
edge $-1 $143 $203 $127 $204 forward #
coedge $-1 $71 $70 $201 $205 forward $31 $-1 #
edge $-1 $134 $203 $126 $206 forward #
coedge $-1 $139 $138 $71 $132 reversed $123 $-1 #
edge $-1 $207 $133 $131 $208 forward #
vertex $-1 $73 $209 #
vertex $-1 $145 $210 #
straight-curve $-1 55.265358439893795 0 -8.0878443198681165 0 -1 0 I I #
coedge $-1 $125 $127 $74 $137 reversed $67 $-1 #
edge $-1 $140 $143 $136 $211 forward #
coedge $-1 $131 $75 $80 $146 forward $123 $-1 #
coedge $-1 $75 $131 $125 $202 reversed $123 $-1 #
vertex $-1 $76 $212 #
straight-curve $-1 0 27.06631344449854 8.0878443198681165 -1 0 0 I I #
coedge $-1 $77 $126 $79 $145 reversed $43 $-1 #
vertex $-1 $137 $213 #
straight-curve $-1 0 -27.06631344449854 8.0878443198681165 1 0 0 I I #
edge $-1 $82 $134 $79 $214 forward #
edge $-1 $83 $133 $80 $215 forward #
point $-1 55.265358439893795 -27.06631344449854 8.0878443198681165 #
point $-1 55.265358439893795 27.06631344449854 8.0878443198681165 #
face $-1 $-1 $100 $15 $-1 $216 reversed single #
loop $-1 $-1 $96 $85 #
plane-surface $-1 0 -27.06631344449854 0 0 1 0 0 0 1 forward_v I I I I #
coedge $-1 $217 $218 $93 $162 forward $86 $-1 #
coedge $-1 $163 $88 $90 $158 reversed $51 $-1 #
edge $-1 $160 $101 $99 $219 forward #
coedge $-1 $90 $89 $220 $221 reversed $35 $-1 #
coedge $-1 $167 $166 $89 $157 forward $150 $-1 #
edge $-1 $222 $159 $156 $223 forward #
edge $-1 $224 $160 $153 $225 forward #
vertex $-1 $157 $226 #
vertex $-1 $92 $227 #
straight-curve $-1 55.265358439893795 -12.192023944766211 3.4149046659310951 0 1 0 I I #
edge $-1 $168 $164 $152 $228 forward #
coedge $-1 $94 $153 $217 $229 reversed $51 $-1 #
vertex $-1 $162 $230 #
straight-curve $-1 0 -21.701782334566303 7.5878443198681165 -1 0 0 I I #
coedge $-1 $156 $96 $218 $231 forward $150 $-1 #
coedge $-1 $96 $156 $98 $170 reversed $150 $-1 #
vertex $-1 $231 $232 #
straight-curve $-1 0 -27.06631344449854 7.5878443198681165 -1 0 0 I I #
edge $-1 $102 $159 $98 $233 forward #
point $-1 55.265358439893795 -21.701782334566303 7.5878443198681165 #
point $-1 55.265358439893795 -27.06631344449854 7.5878443198681165 #
face $-1 $-1 $190 $17 $-1 $234 reversed single #
loop $-1 $-1 $186 $104 #
plane-surface $-1 -55.265358439893795 0 0 1 0 0 0 0 -1 forward_v I I I I #
coedge $-1 $193 $107 $108 $180 reversed $59 $-1 #
coedge $-1 $186 $235 $107 $178 forward $174 $-1 #
edge $-1 $236 $194 $177 $237 forward #
coedge $-1 $109 $108 $235 $238 reversed $39 $-1 #
edge $-1 $183 $236 $176 $239 forward #
coedge $-1 $189 $188 $109 $182 forward $190 $-1 #
edge $-1 $184 $240 $181 $241 forward #
vertex $-1 $111 $242 #
vertex $-1 $182 $243 #
straight-curve $-1 55.265358439893795 12.192023944766209 3.4149046659310951 0 1 0 I I #
coedge $-1 $244 $177 $112 $187 forward $174 $-1 #
edge $-1 $194 $191 $186 $245 forward #
coedge $-1 $181 $113 $118 $197 forward $190 $-1 #
coedge $-1 $113 $181 $244 $246 reversed $190 $-1 #
loop $-1 $-1 $113 $173 #
vertex $-1 $246 $247 #
straight-curve $-1 0 27.06631344449854 7.5878443198681165 1 0 0 I I #
coedge $-1 $115 $176 $117 $196 reversed $59 $-1 #
vertex $-1 $187 $248 #
straight-curve $-1 0 21.7017823345663 7.5878443198681165 1 0 0 I I #
edge $-1 $120 $183 $117 $249 forward #
edge $-1 $119 $184 $118 $250 forward #
point $-1 55.265358439893795 27.066313444498537 7.5878443198681165 #
point $-1 55.265358439893795 21.7017823345663 7.5878443198681165 #
plane-surface $-1 55.265358439893795 0 0 -1 0 0 0 0 1 forward_v I I I I #
coedge $-1 $127 $125 $129 $205 reversed $67 $-1 #
edge $-1 $140 $207 $139 $251 forward #
vertex $-1 $205 $252 #
straight-curve $-1 -55.265358439893795 -27.06631344449854 0 0 0 -1 I I #
edge $-1 $203 $207 $201 $253 forward #
straight-curve $-1 0 -27.06631344449854 -8.0878443198681165 -1 0 0 I I #
vertex $-1 $132 $254 #
straight-curve $-1 0 27.06631344449854 -8.0878443198681165 1 0 0 I I #
point $-1 55.265358439893795 27.06631344449854 -8.0878443198681165 #
point $-1 55.265358439893795 -27.06631344449854 -8.0878443198681165 #
straight-curve $-1 -55.265358439893795 0 8.0878443198681165 0 -1 0 I I #
point $-1 -55.265358439893795 27.06631344449854 8.0878443198681165 #
point $-1 -55.265358439893795 -27.06631344449854 8.0878443198681165 #
straight-curve $-1 55.265358439893795 -27.06631344449854 0 0 0 -1 I I #
straight-curve $-1 55.265358439893795 27.06631344449854 0 0 0 -1 I I #
plane-surface $-1 55.265358439893795 0 0 -1 0 0 0 0 1 forward_v I I I I #
coedge $-1 $220 $152 $163 $229 forward $86 $-1 #
coedge $-1 $152 $220 $166 $231 reversed $86 $-1 #
straight-curve $-1 55.265358439893795 -21.701782334566303 2.7506872464498029 0 0 1 I I #
coedge $-1 $218 $217 $155 $221 forward $86 $-1 #
edge $-1 $224 $222 $220 $255 forward #
vertex $-1 $157 $256 #
straight-curve $-1 0 -27.06631344449854 3.4149046659310951 1 0 0 I I #
vertex $-1 $221 $257 #
straight-curve $-1 0 -21.701782334566303 3.4149046659310951 1 0 0 I I #
point $-1 55.265358439893795 -27.06631344449854 3.4149046659310951 #
point $-1 55.265358439893795 -21.701782334566303 3.4149046659310951 #
straight-curve $-1 -55.265358439893795 -12.192023944766211 7.5878443198681165 0 1 0 I I #
edge $-1 $164 $224 $217 $258 forward #
point $-1 -55.265358439893795 -21.701782334566303 7.5878443198681165 #
edge $-1 $168 $222 $218 $259 forward #
point $-1 -55.265358439893795 -27.06631344449854 7.5878443198681165 #
straight-curve $-1 55.265358439893795 -27.06631344449854 0 0 0 -1 I I #
plane-surface $-1 0 27.06631344449854 0 0 -1 0 0 0 -1 forward_v I I I I #
coedge $-1 $177 $244 $179 $238 forward $174 $-1 #
vertex $-1 $238 $260 #
straight-curve $-1 -55.265358439893795 21.7017823345663 2.7506872464498029 0 0 1 I I #
edge $-1 $240 $236 $235 $261 forward #
straight-curve $-1 0 21.7017823345663 3.4149046659310951 -1 0 0 I I #
vertex $-1 $182 $262 #
straight-curve $-1 0 27.06631344449854 3.4149046659310951 -1 0 0 I I #
point $-1 55.265358439893795 21.7017823345663 3.4149046659310951 #
point $-1 55.265358439893795 27.066313444498537 3.4149046659310951 #
coedge $-1 $235 $186 $189 $246 forward $174 $-1 #
straight-curve $-1 -55.265358439893795 12.192023944766209 7.5878443198681165 0 1 0 I I #
edge $-1 $191 $240 $189 $263 forward #
point $-1 -55.265358439893795 27.066313444498537 7.5878443198681165 #
point $-1 -55.265358439893795 21.7017823345663 7.5878443198681165 #
straight-curve $-1 55.265358439893795 21.7017823345663 2.7506872464498029 0 0 -1 I I #
straight-curve $-1 55.265358439893795 27.06631344449854 0 0 0 -1 I I #
straight-curve $-1 -55.265358439893795 27.06631344449854 0 0 0 -1 I I #
point $-1 -55.265358439893795 -27.06631344449854 -8.0878443198681165 #
straight-curve $-1 -55.265358439893795 0 -8.0878443198681165 0 1 0 I I #
point $-1 -55.265358439893795 27.06631344449854 -8.0878443198681165 #
straight-curve $-1 -55.265358439893795 -12.192023944766211 3.4149046659310951 0 -1 0 I I #
point $-1 -55.265358439893795 -27.06631344449854 3.4149046659310951 #
point $-1 -55.265358439893795 -21.701782334566303 3.4149046659310951 #
straight-curve $-1 -55.265358439893795 -21.701782334566303 2.7506872464498029 0 0 -1 I I #
straight-curve $-1 -55.265358439893795 -27.06631344449854 0 0 0 -1 I I #
point $-1 -55.265358439893795 21.7017823345663 3.4149046659310951 #
straight-curve $-1 -55.265358439893795 12.192023944766209 3.4149046659310951 0 -1 0 I I #
point $-1 -55.265358439893795 27.066313444498537 3.4149046659310951 #
straight-curve $-1 -55.265358439893795 27.06631344449854 0 0 0 -1 I I #
End-of-ACIS-data 