300 0 10 0           
7 Unknown 11 ACIS 3.0 NT 24 Fri Oct 30 14:32:24 1998 
-1 9.9999999999999995e-007 1e-010 
body $10 $11 $-1 $12 #
body $13 $14 $-1 $15 #
body $16 $17 $-1 $18 #
body $19 $20 $-1 $21 #
body $22 $23 $-1 $24 #
body $25 $26 $-1 $27 #
body $28 $29 $-1 $30 #
body $31 $32 $-1 $33 #
body $34 $35 $-1 $36 #
body $37 $38 $-1 $39 #
display_attribute-st-attrib $-1 $40 $-1 $0 1 #
lump $-1 $-1 $41 $0 #
transform $-1 1 0 0 0 1 0 0 0 1 70.262153996398808 39.619088971052051 13.473658132878242 1 rotate no_reflect no_shear #
display_attribute-st-attrib $-1 $42 $-1 $1 3 #
lump $-1 $-1 $43 $1 #
transform $-1 1 0 0 0 1 0 0 0 1 70.262153996398808 39.619088971052051 13.473658132878242 1 rotate no_reflect no_shear #
display_attribute-st-attrib $-1 $44 $-1 $2 3 #
lump $-1 $-1 $45 $2 #
transform $-1 1 0 0 0 1 0 0 0 1 70.262153996398808 39.619088971052051 13.473658132878242 1 rotate no_reflect no_shear #
display_attribute-st-attrib $-1 $46 $-1 $3 3 #
lump $-1 $-1 $47 $3 #
transform $-1 1 0 0 0 1 0 0 0 1 70.262153996398808 39.619088971052051 13.473658132878242 1 rotate no_reflect no_shear #
display_attribute-st-attrib $-1 $48 $-1 $4 3 #
lump $-1 $-1 $49 $4 #
transform $-1 1 0 0 0 1 0 0 0 1 70.262153996398808 39.619088971052051 13.473658132878242 1 rotate no_reflect no_shear #
display_attribute-st-attrib $-1 $50 $-1 $5 3 #
lump $-1 $-1 $51 $5 #
transform $-1 1 0 0 0 1 0 0 0 1 70.262153996398808 39.619088971052051 13.473658132878242 1 rotate no_reflect no_shear #
display_attribute-st-attrib $-1 $52 $-1 $6 3 #
lump $-1 $-1 $53 $6 #
transform $-1 1 0 0 0 1 0 0 0 1 70.262153996398808 39.619088971052051 13.473658132878242 1 rotate no_reflect no_shear #
display_attribute-st-attrib $-1 $54 $-1 $7 3 #
lump $-1 $-1 $55 $7 #
transform $-1 1 0 0 0 1 0 0 0 1 70.262153996398808 39.619088971052051 13.473658132878242 1 rotate no_reflect no_shear #
display_attribute-st-attrib $-1 $56 $-1 $8 3 #
lump $-1 $-1 $57 $8 #
transform $-1 1 0 0 0 1 0 0 0 1 70.262153996398808 39.619088971052051 13.473658132878242 1 rotate no_reflect no_shear #
display_attribute-st-attrib $-1 $58 $-1 $9 3 #
lump $-1 $-1 $59 $9 #
transform $-1 1 0 0 0 1 0 0 0 1 70.262153996398808 39.619088971052051 13.473658132878242 1 rotate no_reflect no_shear #
id_attribute-st-attrib $-1 $-1 $10 $0 1723 #
shell $-1 $-1 $-1 $60 $-1 $11 #
id_attribute-st-attrib $-1 $-1 $13 $1 1728 #
shell $-1 $-1 $-1 $61 $-1 $14 #
id_attribute-st-attrib $-1 $-1 $16 $2 1742 #
shell $-1 $-1 $-1 $62 $-1 $17 #
id_attribute-st-attrib $-1 $-1 $19 $3 1750 #
shell $-1 $-1 $-1 $63 $-1 $20 #
id_attribute-st-attrib $-1 $-1 $22 $4 1759 #
shell $-1 $-1 $-1 $64 $-1 $23 #
id_attribute-st-attrib $-1 $-1 $25 $5 1769 #
shell $-1 $-1 $-1 $65 $-1 $26 #
id_attribute-st-attrib $-1 $-1 $28 $6 1787 #
shell $-1 $-1 $-1 $66 $-1 $29 #
id_attribute-st-attrib $-1 $-1 $31 $7 1799 #
shell $-1 $-1 $-1 $67 $-1 $32 #
id_attribute-st-attrib $-1 $-1 $34 $8 1812 #
shell $-1 $-1 $-1 $68 $-1 $35 #
id_attribute-st-attrib $-1 $-1 $37 $9 1826 #
shell $-1 $-1 $-1 $69 $-1 $38 #
face $-1 $70 $71 $41 $-1 $72 forward single #
face $-1 $73 $74 $43 $-1 $75 forward single #
face $-1 $76 $77 $45 $-1 $78 reversed single #
face $-1 $79 $80 $47 $-1 $81 forward single #
face $-1 $82 $83 $49 $-1 $84 forward single #
face $-1 $85 $86 $51 $-1 $87 forward single #
face $-1 $88 $89 $53 $-1 $90 reversed single #
face $-1 $91 $92 $55 $-1 $93 forward single #
face $-1 $94 $95 $57 $-1 $96 forward single #
face $-1 $97 $98 $59 $-1 $99 forward single #
face $-1 $100 $101 $41 $-1 $102 reversed single #
loop $-1 $-1 $103 $60 #
plane-surface $-1 0 0 13.473658132878242 0 0 1 1 0 0 forward_v I I I I #
face $-1 $104 $105 $43 $-1 $106 reversed single #
loop $-1 $-1 $107 $61 #
plane-surface $-1 0 -34.126982981515702 -3.485374980908468 0 0 1 1 0 0 forward_v I I I I #
face $-1 $108 $109 $45 $-1 $110 reversed single #
loop $-1 $-1 $111 $62 #
plane-surface $-1 -177.91002042189564 -28.634876991979347 100.07791411874001 0 1 0 -0.7660444514056185 0 0.64278759981090561 forward_v I I I I #
face $-1 $112 $113 $47 $-1 $114 forward single #
loop $-1 $115 $116 $63 #
cone-surface $-1 -68.206427609534245 -26.227459815487332 11.197855078930925 0.7660444514056185 0 -0.64278759981090561 0.64278759981090561 0 0.7660444514056185 1 I I 0 1 forward I I I I #
face $-1 $117 $118 $49 $-1 $119 forward single #
loop $-1 $120 $121 $64 #
cone-surface $-1 -68.206427609534245 -22.616334050749305 11.197855078930925 0.7660444514056185 0 -0.64278759981090561 0.64278759981090561 0 0.7660444514056185 1 I I 0 1 forward I I I I #
face $-1 $122 $123 $51 $-1 $124 forward single #
loop $-1 $125 $126 $65 #
cone-surface $-1 -68.206427609534245 -19.005208286011278 11.197855078930925 0.7660444514056185 0 -0.64278759981090561 0.64278759981090561 0 0.7660444514056185 1 I I 0 1 forward I I I I #
face $-1 $127 $128 $53 $-1 $129 reversed single #
loop $-1 $-1 $130 $66 #
plane-surface $-1 87.582737772116786 -16.597791109519264 207.72578054423684 0 -1 0 -0.7660444514056185 0 -0.64278759981090561 forward_v I I I I #
face $-1 $131 $132 $55 $-1 $133 forward single #
loop $-1 $134 $135 $67 #
cone-surface $-1 68.206427609534259 -26.227459815487332 11.197855078930907 -0.7660444514056185 0 -0.64278759981090561 0.64278759981090561 0 -0.7660444514056185 1 I I 0 1 forward I I I I #
face $-1 $136 $137 $57 $-1 $138 forward single #
loop $-1 $139 $140 $68 #
cone-surface $-1 68.206427609534259 -22.616334050749305 11.197855078930907 -0.7660444514056185 0 -0.64278759981090561 0.64278759981090561 0 -0.7660444514056185 1 I I 0 1 forward I I I I #
face $-1 $141 $142 $59 $-1 $143 forward single #
loop $-1 $144 $145 $69 #
cone-surface $-1 68.206427609534259 -19.005208286011278 11.197855078930907 -0.7660444514056185 0 -0.64278759981090561 0.64278759981090561 0 -0.7660444514056185 1 I I 0 1 forward I I I I #
face $-1 $146 $147 $41 $-1 $148 reversed single #
loop $-1 $-1 $149 $70 #
plane-surface $-1 0 0 -13.473658132878242 0 0 1 1 0 0 forward_v I I I I #
coedge $-1 $150 $151 $152 $153 forward $71 $-1 #
face $-1 $154 $155 $43 $-1 $156 reversed single #
loop $-1 $-1 $157 $73 #
plane-surface $-1 0 -34.126982981515702 -6.6880158614814675 0 0 1 1 0 0 forward_v I I I I #
coedge $-1 $158 $159 $160 $161 reversed $74 $-1 #
face $-1 $162 $163 $45 $-1 $164 reversed single #
loop $-1 $-1 $165 $76 #
plane-surface $-1 -70.262153996398823 -22.616334050749305 9.7506314689611742 -0.7660444514056185 0 0.64278759981090561 0.64278759981090561 0 0.7660444514056185 forward_v I I I I #
coedge $-1 $166 $167 $168 $169 reversed $77 $-1 #
face $-1 $-1 $170 $47 $-1 $171 forward single #
loop $-1 $172 $173 $79 #
cone-surface $-1 -67.32967410634997 -26.227459815487332 10.462171557036687 0.7660444514056185 0 -0.64278759981090561 0.3213937999054528 0 0.38302222570280925 1 I I -0.70710678118654746 0.70710678118654746 forward I I I I #
loop $-1 $-1 $174 $63 #
coedge $-1 $116 $116 $175 $176 reversed $80 $-1 #
face $-1 $-1 $177 $49 $-1 $178 forward single #
loop $-1 $179 $180 $82 #
cone-surface $-1 -67.32967410634997 -22.616334050749305 10.462171557036687 0.7660444514056185 0 -0.64278759981090561 0.3213937999054528 0 0.38302222570280925 1 I I -0.70710678118654746 0.70710678118654746 forward I I I I #
loop $-1 $-1 $181 $64 #
coedge $-1 $121 $121 $182 $183 reversed $83 $-1 #
face $-1 $-1 $184 $51 $-1 $185 forward single #
loop $-1 $186 $187 $85 #
cone-surface $-1 -67.32967410634997 -19.005208286011278 10.462171557036687 0.7660444514056185 0 -0.64278759981090561 0.3213937999054528 0 0.38302222570280925 1 I I -0.70710678118654746 0.70710678118654746 forward I I I I #
loop $-1 $-1 $188 $65 #
coedge $-1 $126 $126 $189 $190 reversed $86 $-1 #
face $-1 $191 $192 $53 $-1 $193 reversed single #
loop $-1 $-1 $194 $88 #
plane-surface $-1 -20.065128653380029 -22.616334050749305 117.398497894458 0.7660444514056185 0 0.64278759981090561 0.64278759981090561 0 -0.7660444514056185 forward_v I I I I #
coedge $-1 $195 $196 $197 $198 reversed $89 $-1 #
face $-1 $-1 $199 $55 $-1 $200 forward single #
loop $-1 $201 $202 $91 #
cone-surface $-1 67.329674106349984 -26.227459815487332 10.462171557036669 -0.7660444514056185 0 -0.64278759981090561 0.3213937999054528 0 -0.38302222570280925 1 I I -0.70710678118654746 0.70710678118654746 forward I I I I #
loop $-1 $-1 $203 $67 #
coedge $-1 $135 $135 $204 $205 reversed $92 $-1 #
face $-1 $-1 $206 $57 $-1 $207 forward single #
loop $-1 $208 $209 $94 #
cone-surface $-1 67.329674106349984 -22.616334050749305 10.462171557036669 -0.7660444514056185 0 -0.64278759981090561 0.3213937999054528 0 -0.38302222570280925 1 I I -0.70710678118654746 0.70710678118654746 forward I I I I #
loop $-1 $-1 $210 $68 #
coedge $-1 $140 $140 $211 $212 reversed $95 $-1 #
face $-1 $-1 $213 $59 $-1 $214 forward single #
loop $-1 $215 $216 $97 #
cone-surface $-1 67.329674106349984 -19.005208286011278 10.462171557036669 -0.7660444514056185 0 -0.64278759981090561 0.3213937999054528 0 -0.38302222570280925 1 I I -0.70710678118654746 0.70710678118654746 forward I I I I #
loop $-1 $-1 $217 $69 #
coedge $-1 $145 $145 $218 $219 reversed $98 $-1 #
face $-1 $220 $221 $41 $-1 $222 reversed single #
loop $-1 $-1 $223 $100 #
plane-surface $-1 0 -39.619088971052051 0 0 1 0 0 0 1 forward_v I I I I #
coedge $-1 $224 $225 $226 $227 forward $101 $-1 #
coedge $-1 $228 $103 $229 $230 forward $71 $-1 #
coedge $-1 $103 $228 $231 $232 forward $71 $-1 #
coedge $-1 $233 $234 $103 $153 reversed $235 $-1 #
edge $-1 $236 $237 $152 $238 forward #
face $-1 $239 $240 $43 $-1 $241 reversed single #
loop $-1 $-1 $242 $104 #
plane-surface $-1 0 -28.63487699197935 -5.0866954211949675 0 -1 0 0 0 -1 forward_v I I I I #
coedge $-1 $243 $244 $245 $246 reversed $105 $-1 #
coedge $-1 $247 $107 $248 $249 forward $74 $-1 #
coedge $-1 $107 $247 $250 $251 reversed $74 $-1 #
coedge $-1 $252 $253 $107 $161 forward $254 $-1 #
edge $-1 $255 $256 $160 $257 forward #
face $-1 $258 $259 $45 $-1 $260 reversed single #
loop $-1 $-1 $261 $108 #
plane-surface $-1 -177.91002042189564 -16.597791109519264 100.07791411874001 0 -1 0 0.7660444514056185 0 -0.64278759981090561 forward_v I I I I #
coedge $-1 $262 $263 $264 $265 reversed $109 $-1 #
coedge $-1 $167 $111 $266 $267 reversed $77 $-1 #
coedge $-1 $111 $166 $262 $268 reversed $77 $-1 #
coedge $-1 $264 $269 $111 $169 forward $270 $-1 #
edge $-1 $271 $272 $168 $273 forward #
loop $-1 $-1 $175 $112 #
plane-surface $-1 -70.262153996398823 -22.616334050749305 9.7506314689611742 -0.7660444514056185 0 0.64278759981090561 0.64278759981090561 0 0.7660444514056185 forward_v I I I I #
loop $-1 $-1 $274 $79 #
coedge $-1 $173 $173 $174 $275 reversed $113 $-1 #
coedge $-1 $174 $174 $173 $275 forward $115 $-1 #
coedge $-1 $175 $175 $116 $176 forward $170 $-1 #
edge $-1 $276 $276 $175 $277 forward #
loop $-1 $-1 $182 $117 #
plane-surface $-1 -70.262153996398823 -22.616334050749305 9.7506314689611742 -0.7660444514056185 0 0.64278759981090561 0.64278759981090561 0 0.7660444514056185 forward_v I I I I #
loop $-1 $-1 $278 $82 #
coedge $-1 $180 $180 $181 $279 reversed $118 $-1 #
coedge $-1 $181 $181 $180 $279 forward $120 $-1 #
coedge $-1 $182 $182 $121 $183 forward $177 $-1 #
edge $-1 $280 $280 $182 $281 forward #
loop $-1 $-1 $189 $122 #
plane-surface $-1 -70.262153996398823 -22.616334050749305 9.7506314689611742 -0.7660444514056185 0 0.64278759981090561 0.64278759981090561 0 0.7660444514056185 forward_v I I I I #
loop $-1 $-1 $282 $85 #
coedge $-1 $187 $187 $188 $283 reversed $123 $-1 #
coedge $-1 $188 $188 $187 $283 forward $125 $-1 #
coedge $-1 $189 $189 $126 $190 forward $184 $-1 #
edge $-1 $284 $284 $189 $285 forward #
face $-1 $286 $287 $53 $-1 $288 forward single #
loop $-1 $-1 $289 $127 #
plane-surface $-1 87.582737772116786 -28.634876991979347 207.72578054423684 0 1 0 0.7660444514056185 0 0.64278759981090561 forward_v I I I I #
coedge $-1 $290 $291 $292 $293 reversed $128 $-1 #
coedge $-1 $196 $130 $294 $295 reversed $89 $-1 #
coedge $-1 $130 $195 $290 $296 reversed $89 $-1 #
coedge $-1 $292 $297 $130 $198 forward $287 $-1 #
edge $-1 $298 $299 $197 $300 forward #
loop $-1 $-1 $204 $131 #
plane-surface $-1 -20.065128653380029 -22.616334050749305 117.398497894458 0.7660444514056185 0 0.64278759981090561 0.64278759981090561 0 -0.7660444514056185 forward_v I I I I #
loop $-1 $-1 $301 $91 #
coedge $-1 $202 $202 $203 $302 reversed $132 $-1 #
coedge $-1 $203 $203 $202 $302 forward $134 $-1 #
coedge $-1 $204 $204 $135 $205 forward $199 $-1 #
edge $-1 $303 $303 $204 $304 forward #
loop $-1 $-1 $211 $136 #
plane-surface $-1 -20.065128653380029 -22.616334050749305 117.398497894458 0.7660444514056185 0 0.64278759981090561 0.64278759981090561 0 -0.7660444514056185 forward_v I I I I #
loop $-1 $-1 $305 $94 #
coedge $-1 $209 $209 $210 $306 reversed $137 $-1 #
coedge $-1 $210 $210 $209 $306 forward $139 $-1 #
coedge $-1 $211 $211 $140 $212 forward $206 $-1 #
edge $-1 $307 $307 $211 $308 forward #
loop $-1 $-1 $218 $141 #
plane-surface $-1 -20.065128653380029 -22.616334050749305 117.398497894458 0.7660444514056185 0 0.64278759981090561 0.64278759981090561 0 -0.7660444514056185 forward_v I I I I #
loop $-1 $-1 $309 $97 #
coedge $-1 $216 $216 $217 $310 reversed $142 $-1 #
coedge $-1 $217 $217 $216 $310 forward $144 $-1 #
coedge $-1 $218 $218 $145 $219 forward $213 $-1 #
edge $-1 $311 $311 $218 $312 forward #
face $-1 $313 $314 $41 $-1 $315 reversed single #
loop $-1 $-1 $316 $146 #
plane-surface $-1 -70.262153996398808 0 0 1 0 0 0 0 -1 forward_v I I I I #
coedge $-1 $317 $231 $318 $319 forward $147 $-1 #
coedge $-1 $320 $149 $317 $321 forward $101 $-1 #
coedge $-1 $149 $320 $322 $323 forward $101 $-1 #
coedge $-1 $234 $233 $149 $227 reversed $235 $-1 #
edge $-1 $324 $325 $226 $326 forward #
coedge $-1 $151 $150 $327 $328 forward $71 $-1 #
coedge $-1 $329 $330 $150 $230 reversed $314 $-1 #
edge $-1 $237 $331 $229 $332 forward #
coedge $-1 $223 $333 $151 $232 reversed $147 $-1 #
edge $-1 $334 $236 $231 $335 forward #
coedge $-1 $226 $152 $333 $336 forward $235 $-1 #
coedge $-1 $152 $226 $329 $337 reversed $235 $-1 #
loop $-1 $-1 $233 $313 #
vertex $-1 $153 $338 #
vertex $-1 $153 $339 #
straight-curve $-1 70.262153996398808 0 13.473658132878242 0 1 0 I I #
face $-1 $340 $341 $43 $-1 $342 reversed single #
loop $-1 $-1 $343 $154 #
plane-surface $-1 -70.262153996398808 0 0 1 0 0 0 0 -1 forward_v I I I I #
coedge $-1 $344 $248 $253 $345 reversed $155 $-1 #
coedge $-1 $346 $157 $347 $348 reversed $105 $-1 #
coedge $-1 $157 $346 $344 $349 forward $105 $-1 #
coedge $-1 $253 $252 $157 $246 forward $254 $-1 #
edge $-1 $350 $351 $245 $352 forward #
coedge $-1 $159 $158 $343 $353 reversed $74 $-1 #
coedge $-1 $242 $354 $158 $249 reversed $155 $-1 #
edge $-1 $255 $355 $248 $356 forward #
coedge $-1 $357 $358 $159 $251 forward $341 $-1 #
edge $-1 $256 $359 $250 $360 forward #
coedge $-1 $245 $160 $358 $361 forward $254 $-1 #
coedge $-1 $160 $245 $242 $345 forward $254 $-1 #
loop $-1 $-1 $160 $340 #
vertex $-1 $161 $362 #
vertex $-1 $361 $363 #
straight-curve $-1 70.262153996398808 -17.063491490757851 -3.485374980908468 0 -1 0 I I #
face $-1 $-1 $270 $45 $-1 $364 forward single #
loop $-1 $-1 $365 $162 #
plane-surface $-1 -70.262153996398808 0 0 1 0 0 0 0 -1 forward_v I I I I #
coedge $-1 $366 $367 $368 $369 reversed $163 $-1 #
coedge $-1 $370 $165 $167 $268 forward $109 $-1 #
coedge $-1 $165 $370 $366 $371 forward $109 $-1 #
coedge $-1 $368 $168 $165 $265 forward $270 $-1 #
edge $-1 $272 $372 $264 $373 forward #
coedge $-1 $374 $375 $166 $267 forward $259 $-1 #
edge $-1 $376 $271 $266 $377 forward #
edge $-1 $272 $376 $167 $378 forward #
coedge $-1 $168 $368 $374 $379 forward $270 $-1 #
loop $-1 $-1 $368 $258 #
vertex $-1 $267 $380 #
vertex $-1 $169 $381 #
straight-curve $-1 -88.955010210947819 -28.634876991979347 13.473658132878242 1 0 0 I I #
coedge $-1 $274 $274 $-1 $382 reversed $172 $-1 #
edge $-1 $383 $383 $173 $384 forward #
vertex $-1 $176 $385 #
ellipse-curve $-1 -68.700158887015718 -26.227459815487332 11.612144800919719 -0.7660444514056185 0 0.64278759981090561 0.64278759981090561 0 0.7660444514056185 1 I I #
coedge $-1 $278 $278 $-1 $386 reversed $179 $-1 #
edge $-1 $387 $387 $180 $388 forward #
vertex $-1 $183 $389 #
ellipse-curve $-1 -68.700158887015718 -22.616334050749305 11.612144800919719 -0.7660444514056185 0 0.64278759981090561 0.64278759981090561 0 0.7660444514056185 1 I I #
coedge $-1 $282 $282 $-1 $390 reversed $186 $-1 #
edge $-1 $391 $391 $187 $392 forward #
vertex $-1 $190 $393 #
ellipse-curve $-1 -68.700158887015718 -19.005208286011278 11.612144800919719 -0.7660444514056185 0 0.64278759981090561 0.64278759981090561 0 0.7660444514056185 1 I I #
face $-1 $-1 $394 $53 $-1 $395 reversed single #
loop $-1 $-1 $197 $191 #
plane-surface $-1 0 0 13.473658132878242 0 0 1 1 0 0 forward_v I I I I #
coedge $-1 $396 $397 $398 $399 reversed $192 $-1 #
coedge $-1 $400 $194 $196 $296 forward $128 $-1 #
coedge $-1 $194 $400 $396 $401 forward $128 $-1 #
coedge $-1 $398 $197 $194 $293 forward $287 $-1 #
edge $-1 $299 $402 $292 $403 forward #
coedge $-1 $404 $405 $195 $295 forward $394 $-1 #
edge $-1 $406 $298 $294 $407 forward #
edge $-1 $299 $406 $196 $408 forward #
coedge $-1 $197 $398 $404 $409 forward $287 $-1 #
vertex $-1 $295 $410 #
vertex $-1 $198 $411 #
straight-curve $-1 43.791368886058393 -16.597791109519264 13.473658132878242 -1 0 0 I I #
coedge $-1 $301 $301 $-1 $412 reversed $201 $-1 #
edge $-1 $413 $413 $202 $414 forward #
vertex $-1 $205 $415 #
ellipse-curve $-1 68.700158887015718 -26.227459815487332 11.612144800919689 0.7660444514056185 0 0.64278759981090561 0.64278759981090561 0 -0.7660444514056185 1 I I #
coedge $-1 $305 $305 $-1 $416 reversed $208 $-1 #
edge $-1 $417 $417 $209 $418 forward #
vertex $-1 $212 $419 #
ellipse-curve $-1 68.700158887015718 -22.616334050749305 11.612144800919689 0.7660444514056185 0 0.64278759981090561 0.64278759981090561 0 -0.7660444514056185 1 I I #
coedge $-1 $309 $309 $-1 $420 reversed $215 $-1 #
edge $-1 $421 $421 $216 $422 forward #
vertex $-1 $219 $423 #
ellipse-curve $-1 68.700158887015718 -19.005208286011278 11.612144800919689 0.7660444514056185 0 0.64278759981090561 0.64278759981090561 0 -0.7660444514056185 1 I I #
face $-1 $-1 $235 $41 $-1 $424 reversed single #
loop $-1 $-1 $329 $220 #
plane-surface $-1 0 39.619088971052051 0 0 -1 0 0 0 -1 forward_v I I I I #
coedge $-1 $425 $327 $330 $426 forward $221 $-1 #
coedge $-1 $333 $223 $224 $321 reversed $147 $-1 #
coedge $-1 $327 $425 $223 $319 reversed $221 $-1 #
edge $-1 $334 $427 $318 $428 forward #
coedge $-1 $225 $224 $425 $429 forward $101 $-1 #
edge $-1 $325 $427 $317 $430 forward #
coedge $-1 $330 $329 $225 $323 reversed $314 $-1 #
edge $-1 $431 $324 $322 $432 forward #
vertex $-1 $227 $433 #
vertex $-1 $336 $434 #
straight-curve $-1 70.262153996398808 0 -13.473658132878242 0 -1 0 I I #
coedge $-1 $316 $318 $228 $328 reversed $221 $-1 #
edge $-1 $331 $334 $327 $435 forward #
coedge $-1 $322 $229 $234 $337 forward $314 $-1 #
coedge $-1 $229 $322 $316 $426 reversed $314 $-1 #
vertex $-1 $230 $436 #
straight-curve $-1 0 39.619088971052051 13.473658132878242 -1 0 0 I I #
coedge $-1 $231 $317 $233 $336 reversed $147 $-1 #
vertex $-1 $328 $437 #
straight-curve $-1 0 -39.619088971052051 13.473658132878242 1 0 0 I I #
edge $-1 $236 $325 $233 $438 forward #
edge $-1 $237 $324 $234 $439 forward #
point $-1 70.262153996398808 -39.619088971052051 13.473658132878242 #
point $-1 70.262153996398808 39.619088971052051 13.473658132878242 #
face $-1 $-1 $254 $43 $-1 $440 reversed single #
loop $-1 $-1 $250 $239 #
plane-surface $-1 0 -39.619088971052051 0 0 1 0 0 0 1 forward_v I I I I #
coedge $-1 $441 $442 $247 $353 forward $240 $-1 #
coedge $-1 $354 $242 $244 $349 reversed $155 $-1 #
edge $-1 $351 $255 $253 $443 forward #
coedge $-1 $244 $243 $444 $445 reversed $105 $-1 #
coedge $-1 $358 $357 $243 $348 forward $341 $-1 #
edge $-1 $446 $350 $347 $447 forward #
edge $-1 $448 $351 $344 $449 forward #
vertex $-1 $348 $450 #
vertex $-1 $246 $451 #
straight-curve $-1 70.262153996398808 -17.063491490757851 -6.6880158614814675 0 1 0 I I #
edge $-1 $359 $355 $343 $452 forward #
coedge $-1 $248 $344 $441 $453 reversed $155 $-1 #
vertex $-1 $353 $454 #
straight-curve $-1 0 -28.63487699197935 -3.485374980908468 -1 0 0 I I #
coedge $-1 $347 $250 $442 $455 forward $341 $-1 #
coedge $-1 $250 $347 $252 $361 reversed $341 $-1 #
vertex $-1 $455 $456 #
straight-curve $-1 0 -39.619088971052051 -3.485374980908468 -1 0 0 I I #
edge $-1 $256 $350 $252 $457 forward #
point $-1 70.262153996398808 -28.63487699197935 -3.485374980908468 #
point $-1 70.262153996398808 -39.619088971052051 -3.485374980908468 #
plane-surface $-1 0 0 13.473658132878242 0 0 1 1 0 0 forward_v I I I I #
coedge $-1 $375 $374 $367 $458 forward $259 $-1 #
coedge $-1 $367 $261 $263 $371 reversed $163 $-1 #
coedge $-1 $261 $366 $365 $458 reversed $163 $-1 #
coedge $-1 $269 $264 $261 $369 forward $270 $-1 #
edge $-1 $372 $459 $368 $460 forward #
coedge $-1 $263 $262 $375 $461 reversed $109 $-1 #
edge $-1 $462 $372 $366 $463 forward #
vertex $-1 $265 $464 #
straight-curve $-1 -67.138163777632641 -11.308167025374653 13.473658132878242 0 1 0 I I #
coedge $-1 $365 $266 $269 $379 reversed $259 $-1 #
coedge $-1 $266 $365 $370 $461 forward $259 $-1 #
vertex $-1 $267 $465 #
straight-curve $-1 -70.262153996398808 -28.634876991979347 50.038957059370006 0 0 1 I I #
straight-curve $-1 -70.262153996398823 -28.634876991979347 9.7506314689611742 -0.64278759981090561 0 -0.7660444514056185 I I #
edge $-1 $459 $271 $374 $466 forward #
point $-1 -70.262153996398808 -28.634876991979347 13.473658132878242 #
point $-1 -67.138163777632641 -28.634876991979347 13.473658132878242 #
edge $-1 $467 $467 $274 $-1 forward #
vertex $-1 $275 $468 #
ellipse-curve $-1 -67.712696332052772 -26.227459815487332 10.783565356942139 -0.7660444514056185 0 0.64278759981090561 0.64278759981090561 0 0.7660444514056185 1 I I #
point $-1 -68.057371287204802 -26.227459815487332 12.378189252325328 #
edge $-1 $469 $469 $278 $-1 forward #
vertex $-1 $279 $470 #
ellipse-curve $-1 -67.712696332052772 -22.616334050749305 10.783565356942139 -0.7660444514056185 0 0.64278759981090561 0.64278759981090561 0 0.7660444514056185 1 I I #
point $-1 -68.057371287204802 -22.616334050749305 12.378189252325328 #
edge $-1 $471 $471 $282 $-1 forward #
vertex $-1 $283 $472 #
ellipse-curve $-1 -67.712696332052772 -19.005208286011278 10.783565356942139 -0.7660444514056185 0 0.64278759981090561 0.64278759981090561 0 0.7660444514056185 1 I I #
point $-1 -68.057371287204802 -19.005208286011278 12.378189252325328 #
loop $-1 $-1 $294 $286 #
plane-surface $-1 70.262153996398808 0 0 -1 0 0 0 0 1 forward_v I I I I #
coedge $-1 $397 $289 $291 $401 reversed $192 $-1 #
coedge $-1 $289 $396 $473 $474 reversed $192 $-1 #
coedge $-1 $297 $292 $289 $399 forward $287 $-1 #
edge $-1 $402 $475 $398 $476 forward #
coedge $-1 $291 $290 $405 $477 reversed $128 $-1 #
edge $-1 $478 $402 $396 $479 forward #
vertex $-1 $293 $480 #
straight-curve $-1 67.138163777632641 -11.308167025374653 13.473658132878242 0 -1 0 I I #
coedge $-1 $473 $294 $297 $409 reversed $394 $-1 #
coedge $-1 $294 $473 $400 $477 forward $394 $-1 #
vertex $-1 $295 $481 #
straight-curve $-1 70.262153996398808 -16.597791109519264 103.86289027211842 0 0 1 I I #
straight-curve $-1 -20.065128653380029 -16.597791109519264 117.398497894458 0.64278759981090561 0 -0.7660444514056185 I I #
edge $-1 $475 $298 $404 $482 forward #
point $-1 70.262153996398808 -16.597791109519264 13.473658132878242 #
point $-1 67.138163777632641 -16.597791109519264 13.473658132878242 #
edge $-1 $483 $483 $301 $-1 forward #
vertex $-1 $302 $484 #
ellipse-curve $-1 67.712696332052786 -26.227459815487332 10.783565356942121 0.7660444514056185 0 0.64278759981090561 0.64278759981090561 0 -0.7660444514056185 1 I I #
point $-1 69.342946486826634 -26.227459815487332 10.846100349514073 #
edge $-1 $485 $485 $305 $-1 forward #
vertex $-1 $306 $486 #
ellipse-curve $-1 67.712696332052786 -22.616334050749305 10.783565356942121 0.7660444514056185 0 0.64278759981090561 0.64278759981090561 0 -0.7660444514056185 1 I I #
point $-1 69.342946486826634 -22.616334050749305 10.846100349514073 #
edge $-1 $487 $487 $309 $-1 forward #
vertex $-1 $310 $488 #
ellipse-curve $-1 67.712696332052786 -19.005208286011278 10.783565356942121 0.7660444514056185 0 0.64278759981090561 0.64278759981090561 0 -0.7660444514056185 1 I I #
point $-1 69.342946486826634 -19.005208286011278 10.846100349514073 #
plane-surface $-1 70.262153996398808 0 0 -1 0 0 0 0 1 forward_v I I I I #
coedge $-1 $318 $316 $320 $429 reversed $221 $-1 #
edge $-1 $331 $431 $330 $489 forward #
vertex $-1 $429 $490 #
straight-curve $-1 -70.262153996398808 -39.619088971052051 0 0 0 -1 I I #
edge $-1 $427 $431 $425 $491 forward #
straight-curve $-1 0 -39.619088971052051 -13.473658132878242 -1 0 0 I I #
vertex $-1 $323 $492 #
straight-curve $-1 0 39.619088971052051 -13.473658132878242 1 0 0 I I #
point $-1 70.262153996398808 39.619088971052051 -13.473658132878242 #
point $-1 70.262153996398808 -39.619088971052051 -13.473658132878242 #
straight-curve $-1 -70.262153996398808 0 13.473658132878242 0 -1 0 I I #
point $-1 -70.262153996398808 39.619088971052051 13.473658132878242 #
point $-1 -70.262153996398808 -39.619088971052051 13.473658132878242 #
straight-curve $-1 70.262153996398808 -39.619088971052051 0 0 0 -1 I I #
straight-curve $-1 70.262153996398808 39.619088971052051 0 0 0 -1 I I #
plane-surface $-1 70.262153996398808 0 0 -1 0 0 0 0 1 forward_v I I I I #
coedge $-1 $444 $343 $354 $453 forward $240 $-1 #
coedge $-1 $343 $444 $357 $455 reversed $240 $-1 #
straight-curve $-1 70.262153996398808 -28.63487699197935 -2.5433477105974838 0 0 1 I I #
coedge $-1 $442 $441 $346 $445 forward $240 $-1 #
edge $-1 $448 $446 $444 $493 forward #
vertex $-1 $348 $494 #
straight-curve $-1 0 -39.619088971052051 -6.6880158614814675 1 0 0 I I #
vertex $-1 $445 $495 #
straight-curve $-1 0 -28.63487699197935 -6.6880158614814675 1 0 0 I I #
point $-1 70.262153996398808 -39.619088971052051 -6.6880158614814675 #
point $-1 70.262153996398808 -28.63487699197935 -6.6880158614814675 #
straight-curve $-1 -70.262153996398808 -17.063491490757851 -3.485374980908468 0 1 0 I I #
edge $-1 $355 $448 $441 $496 forward #
point $-1 -70.262153996398808 -28.63487699197935 -3.485374980908468 #
edge $-1 $359 $446 $442 $497 forward #
point $-1 -70.262153996398808 -39.619088971052051 -3.485374980908468 #
straight-curve $-1 70.262153996398808 -39.619088971052051 0 0 0 -1 I I #
edge $-1 $459 $462 $365 $498 forward #
vertex $-1 $379 $499 #
straight-curve $-1 -88.955010210947819 -16.597791109519264 13.473658132878242 -1 0 0 I I #
edge $-1 $462 $376 $375 $500 forward #
vertex $-1 $461 $501 #
straight-curve $-1 -70.262153996398823 -16.597791109519264 9.7506314689611742 0.64278759981090561 0 0.7660444514056185 I I #
point $-1 -67.138163777632641 -16.597791109519264 13.473658132878242 #
point $-1 -70.262153996398808 -28.634876991979347 9.7506314689611919 #
straight-curve $-1 -70.262153996398808 0 13.473658132878242 0 -1 0 I I #
vertex $-1 $382 $502 #
point $-1 -67.069908732241871 -26.227459815487332 11.549609808347757 #
vertex $-1 $386 $503 #
point $-1 -67.069908732241871 -22.616334050749305 11.549609808347757 #
vertex $-1 $390 $504 #
point $-1 -67.069908732241871 -19.005208286011278 11.549609808347757 #
coedge $-1 $405 $404 $397 $474 forward $394 $-1 #
edge $-1 $475 $478 $473 $505 forward #
vertex $-1 $409 $506 #
straight-curve $-1 43.791368886058393 -28.634876991979347 13.473658132878242 1 0 0 I I #
edge $-1 $478 $406 $405 $507 forward #
vertex $-1 $477 $508 #
straight-curve $-1 -20.065128653380029 -28.634876991979347 117.398497894458 -0.64278759981090561 0 0.7660444514056185 I I #
point $-1 67.138163777632641 -28.634876991979347 13.473658132878242 #
point $-1 70.262153996398808 -16.597791109519264 9.7506314689611884 #
straight-curve $-1 70.262153996398808 0 13.473658132878242 0 1 0 I I #
vertex $-1 $412 $509 #
point $-1 68.355483931863702 -26.227459815487332 10.017520905536504 #
vertex $-1 $416 $510 #
point $-1 68.355483931863702 -22.616334050749305 10.017520905536504 #
vertex $-1 $420 $511 #
point $-1 68.355483931863702 -19.005208286011278 10.017520905536504 #
straight-curve $-1 -70.262153996398808 39.619088971052051 0 0 0 -1 I I #
point $-1 -70.262153996398808 -39.619088971052051 -13.473658132878242 #
straight-curve $-1 -70.262153996398808 0 -13.473658132878242 0 1 0 I I #
point $-1 -70.262153996398808 39.619088971052051 -13.473658132878242 #
straight-curve $-1 -70.262153996398808 -17.063491490757851 -6.6880158614814675 0 -1 0 I I #
point $-1 -70.262153996398808 -39.619088971052051 -6.6880158614814675 #
point $-1 -70.262153996398808 -28.63487699197935 -6.6880158614814675 #
straight-curve $-1 -70.262153996398808 -28.63487699197935 -2.5433477105974838 0 0 -1 I I #
straight-curve $-1 -70.262153996398808 -39.619088971052051 0 0 0 -1 I I #
straight-curve $-1 -70.262153996398808 -16.597791109519264 50.038957059370006 0 0 -1 I I #
point $-1 -70.262153996398808 -16.597791109519264 13.473658132878242 #
straight-curve $-1 -70.262153996398808 -11.308167025374653 9.7506314689611848 0 -1 0 I I #
point $-1 -70.262153996398808 -16.597791109519264 9.7506314689611919 #
point $-1 -66.946651880647167 -26.227459815487332 10.140777757131234 #
point $-1 -66.946651880647167 -22.616334050749305 10.140777757131234 #
point $-1 -66.946651880647167 -19.005208286011278 10.140777757131234 #
straight-curve $-1 70.262153996398808 -28.634876991979347 103.86289027211842 0 0 -1 I I #
point $-1 70.262153996398808 -28.634876991979347 13.473658132878242 #
straight-curve $-1 70.262153996398808 -11.308167025374653 9.7506314689611813 0 1 0 I I #
point $-1 70.262153996398808 -28.634876991979347 9.7506314689611884 #
point $-1 66.946651880647181 -26.227459815487332 10.140777757131216 #
point $-1 66.946651880647181 -22.616334050749305 10.140777757131216 #
point $-1 66.946651880647181 -19.005208286011278 10.140777757131216 #
End-of-ACIS-data 