300 0 10 0           
7 Unknown 11 ACIS 3.0 NT 24 Fri Oct 30 15:47:11 1998 
-1 9.9999999999999995e-007 1e-010 
body $10 $11 $-1 $12 #
body $13 $14 $-1 $15 #
body $16 $17 $-1 $18 #
body $19 $20 $-1 $21 #
body $22 $23 $-1 $24 #
body $25 $26 $-1 $27 #
body $28 $29 $-1 $30 #
body $31 $32 $-1 $33 #
body $34 $35 $-1 $36 #
body $37 $38 $-1 $39 #
display_attribute-st-attrib $-1 $40 $-1 $0 1 #
lump $-1 $-1 $41 $0 #
transform $-1 1 0 0 0 1 0 0 0 1 57.94976653340251 35.403527980862393 12.855239587496648 1 rotate no_reflect no_shear #
display_attribute-st-attrib $-1 $42 $-1 $1 9 #
lump $-1 $-1 $43 $1 #
transform $-1 1 0 0 0 1 0 0 0 1 57.94976653340251 35.403527980862393 12.855239587496648 1 rotate no_reflect no_shear #
display_attribute-st-attrib $-1 $44 $-1 $2 8 #
lump $-1 $-1 $45 $2 #
transform $-1 1 0 0 0 1 0 0 0 1 57.94976653340251 35.403527980862393 12.855239587496648 1 rotate no_reflect no_shear #
display_attribute-st-attrib $-1 $46 $-1 $3 7 #
lump $-1 $-1 $47 $3 #
transform $-1 1 0 0 0 1 0 0 0 1 57.94976653340251 35.403527980862393 12.855239587496648 1 rotate no_reflect no_shear #
display_attribute-st-attrib $-1 $48 $-1 $4 6 #
lump $-1 $-1 $49 $4 #
transform $-1 1 0 0 0 1 0 0 0 1 57.94976653340251 35.403527980862393 12.855239587496648 1 rotate no_reflect no_shear #
display_attribute-st-attrib $-1 $50 $-1 $5 5 #
lump $-1 $-1 $51 $5 #
transform $-1 1 0 0 0 1 0 0 0 1 57.94976653340251 35.403527980862393 12.855239587496648 1 rotate no_reflect no_shear #
display_attribute-st-attrib $-1 $52 $-1 $6 4 #
lump $-1 $-1 $53 $6 #
transform $-1 1 0 0 0 1 0 0 0 1 57.94976653340251 35.403527980862393 12.855239587496648 1 rotate no_reflect no_shear #
display_attribute-st-attrib $-1 $54 $-1 $7 3 #
lump $-1 $-1 $55 $7 #
transform $-1 1 0 0 0 1 0 0 0 1 57.94976653340251 35.403527980862393 12.855239587496648 1 rotate no_reflect no_shear #
display_attribute-st-attrib $-1 $56 $-1 $8 2 #
lump $-1 $-1 $57 $8 #
transform $-1 1 0 0 0 1 0 0 0 1 57.94976653340251 35.403527980862393 12.855239587496648 1 rotate no_reflect no_shear #
display_attribute-st-attrib $-1 $58 $-1 $9 1 #
lump $-1 $-1 $59 $9 #
transform $-1 1 0 0 0 1 0 0 0 1 57.94976653340251 35.403527980862393 12.855239587496648 1 rotate no_reflect no_shear #
id_attribute-st-attrib $-1 $-1 $10 $0 3175 #
shell $-1 $-1 $-1 $60 $-1 $11 #
id_attribute-st-attrib $-1 $-1 $13 $1 3183 #
shell $-1 $-1 $-1 $61 $-1 $14 #
id_attribute-st-attrib $-1 $-1 $16 $2 3197 #
shell $-1 $-1 $-1 $62 $-1 $17 #
id_attribute-st-attrib $-1 $-1 $19 $3 3205 #
shell $-1 $-1 $-1 $63 $-1 $20 #
id_attribute-st-attrib $-1 $-1 $22 $4 3214 #
shell $-1 $-1 $-1 $64 $-1 $23 #
id_attribute-st-attrib $-1 $-1 $25 $5 3224 #
shell $-1 $-1 $-1 $65 $-1 $26 #
id_attribute-st-attrib $-1 $-1 $28 $6 3242 #
shell $-1 $-1 $-1 $66 $-1 $29 #
id_attribute-st-attrib $-1 $-1 $31 $7 3254 #
shell $-1 $-1 $-1 $67 $-1 $32 #
id_attribute-st-attrib $-1 $-1 $34 $8 3267 #
shell $-1 $-1 $-1 $68 $-1 $35 #
id_attribute-st-attrib $-1 $-1 $37 $9 3281 #
shell $-1 $-1 $-1 $69 $-1 $38 #
face $-1 $70 $71 $41 $-1 $72 forward single #
face $-1 $73 $74 $43 $-1 $75 reversed single #
face $-1 $76 $77 $45 $-1 $78 reversed single #
face $-1 $79 $80 $47 $-1 $81 forward single #
face $-1 $82 $83 $49 $-1 $84 forward single #
face $-1 $85 $86 $51 $-1 $87 forward single #
face $-1 $88 $89 $53 $-1 $90 reversed single #
face $-1 $91 $92 $55 $-1 $93 forward single #
face $-1 $94 $95 $57 $-1 $96 forward single #
face $-1 $97 $98 $59 $-1 $99 forward single #
face $-1 $100 $101 $41 $-1 $102 reversed single #
loop $-1 $-1 $103 $60 #
plane-surface $-1 0 0 12.855239587496648 0 0 1 1 0 0 forward_v I I I I #
face $-1 $104 $105 $43 $-1 $106 reversed single #
loop $-1 $-1 $107 $61 #
plane-surface $-1 -54.761163373290842 -23.890330367648559 0 0 -1 0 0 0 -1 forward_v I I I I #
face $-1 $108 $109 $45 $-1 $110 reversed single #
loop $-1 $-1 $111 $62 #
plane-surface $-1 -145.42025544290846 -8.9964178999961586 78.817526993393045 0 -1 0 0.75470958851134928 0 -0.65605901945558964 forward_v I I I I #
face $-1 $112 $113 $47 $-1 $114 forward single #
loop $-1 $115 $116 $63 #
cone-surface $-1 -53.14813622861022 -20.911547874118078 7.4504235206871865 0.75470958851134928 0 -0.65605901945558964 0.65605901945558964 0 0.75470958851134928 1 I I 0 1 forward I I I I #
face $-1 $117 $118 $49 $-1 $119 forward single #
loop $-1 $120 $121 $64 #
cone-surface $-1 -53.14813622861022 -16.44337413382236 7.4504235206871865 0.75470958851134928 0 -0.65605901945558964 0.65605901945558964 0 0.75470958851134928 1 I I 0 1 forward I I I I #
face $-1 $122 $123 $51 $-1 $124 forward single #
loop $-1 $125 $126 $65 #
cone-surface $-1 -53.14813622861022 -11.975200393526642 7.4504235206871865 0.75470958851134928 0 -0.65605901945558964 0.65605901945558964 0 0.75470958851134928 1 I I 0 1 forward I I I I #
face $-1 $127 $128 $53 $-1 $129 reversed single #
loop $-1 $-1 $130 $66 #
plane-surface $-1 49.371554869780951 -17.58777473358596 171.0499578598791 0 -1 0 -0.66913061440640931 0 -0.74314481823134659 forward_v I I I I #
face $-1 $131 $132 $55 $-1 $133 forward single #
loop $-1 $134 $135 $67 #
cone-surface $-1 54.379712850877191 -22.629819240836039 9.5308314356997013 -0.66913061440640931 0 -0.74314481823134659 0.3715724091156733 0 -0.33456530720320465 1 I I 0 1 forward I I I I #
face $-1 $136 $137 $57 $-1 $138 forward single #
loop $-1 $139 $140 $68 #
cone-surface $-1 54.379712850877191 -20.739052550617259 9.5308314356997013 -0.66913061440640931 0 -0.74314481823134659 0.3715724091156733 0 -0.33456530720320465 1 I I 0 1 forward I I I I #
face $-1 $141 $142 $59 $-1 $143 forward single #
loop $-1 $144 $145 $69 #
cone-surface $-1 54.379712850877191 -18.848285860398477 9.5308314356997013 -0.66913061440640931 0 -0.74314481823134659 0.3715724091156733 0 -0.33456530720320465 1 I I 0 1 forward I I I I #
face $-1 $146 $147 $41 $-1 $148 reversed single #
loop $-1 $-1 $149 $70 #
plane-surface $-1 0 0 -12.855239587496648 0 0 1 1 0 0 forward_v I I I I #
coedge $-1 $150 $151 $152 $153 forward $71 $-1 #
face $-1 $154 $155 $43 $-1 $156 forward single #
loop $-1 $-1 $157 $73 #
plane-surface $-1 -51.572560213179173 -29.646929174255476 0 -1 0 0 0 0 1 forward_v I I I I #
coedge $-1 $158 $159 $160 $161 forward $74 $-1 #
face $-1 $162 $163 $45 $-1 $164 forward single #
loop $-1 $-1 $165 $76 #
plane-surface $-1 -57.949766533402524 -16.44337413382236 2.7805929742242483 -0.75470958851134928 0 0.65605901945558964 0.65605901945558964 0 0.75470958851134928 forward_v I I I I #
coedge $-1 $166 $167 $168 $169 reversed $77 $-1 #
face $-1 $-1 $170 $47 $-1 $171 forward single #
loop $-1 $172 $173 $79 #
cone-surface $-1 -52.34802936238178 -20.911547874118078 6.7549012507861192 0.75470958851134928 0 -0.65605901945558964 0.32802950972779482 0 0.37735479425567464 1 I I -0.70710678118654746 0.70710678118654746 forward I I I I #
loop $-1 $-1 $174 $63 #
coedge $-1 $116 $116 $175 $176 reversed $80 $-1 #
face $-1 $-1 $177 $49 $-1 $178 forward single #
loop $-1 $179 $180 $82 #
cone-surface $-1 -52.34802936238178 -16.44337413382236 6.7549012507861192 0.75470958851134928 0 -0.65605901945558964 0.32802950972779482 0 0.37735479425567464 1 I I -0.70710678118654746 0.70710678118654746 forward I I I I #
loop $-1 $-1 $181 $64 #
coedge $-1 $121 $121 $182 $183 reversed $83 $-1 #
face $-1 $-1 $184 $51 $-1 $185 forward single #
loop $-1 $186 $187 $85 #
cone-surface $-1 -52.34802936238178 -11.975200393526642 6.7549012507861192 0.75470958851134928 0 -0.65605901945558964 0.32802950972779482 0 0.37735479425567464 1 I I -0.70710678118654746 0.70710678118654746 forward I I I I #
loop $-1 $-1 $188 $65 #
coedge $-1 $126 $126 $189 $190 reversed $86 $-1 #
face $-1 $191 $192 $53 $-1 $193 reversed single #
loop $-1 $-1 $194 $88 #
plane-surface $-1 -28.180370900626244 -20.739052550617259 84.919820425850347 0.66913061440640931 0 0.74314481823134659 0.74314481823134659 0 -0.66913061440640931 forward_v I I I I #
coedge $-1 $195 $196 $197 $198 reversed $89 $-1 #
face $-1 $-1 $199 $55 $-1 $200 forward single #
loop $-1 $201 $202 $91 #
cone-surface $-1 53.6895334257527 -22.629819240836039 8.7643095453716739 -0.66913061440640931 0 -0.74314481823134659 0.18578620455783665 0 -0.16728265360160233 1 I I -0.70710678118654746 0.70710678118654746 forward I I I I #
loop $-1 $-1 $203 $67 #
coedge $-1 $135 $135 $204 $205 reversed $92 $-1 #
face $-1 $-1 $206 $57 $-1 $207 forward single #
loop $-1 $208 $209 $94 #
cone-surface $-1 53.6895334257527 -20.739052550617259 8.7643095453716739 -0.66913061440640931 0 -0.74314481823134659 0.18578620455783665 0 -0.16728265360160233 1 I I -0.70710678118654746 0.70710678118654746 forward I I I I #
loop $-1 $-1 $210 $68 #
coedge $-1 $140 $140 $211 $212 reversed $95 $-1 #
face $-1 $-1 $213 $59 $-1 $214 forward single #
loop $-1 $215 $216 $97 #
cone-surface $-1 53.6895334257527 -18.848285860398477 8.7643095453716739 -0.66913061440640931 0 -0.74314481823134659 0.18578620455783665 0 -0.16728265360160233 1 I I -0.70710678118654746 0.70710678118654746 forward I I I I #
loop $-1 $-1 $217 $69 #
coedge $-1 $145 $145 $218 $219 reversed $98 $-1 #
face $-1 $220 $221 $41 $-1 $222 reversed single #
loop $-1 $-1 $223 $100 #
plane-surface $-1 0 -35.403527980862393 0 0 1 0 0 0 1 forward_v I I I I #
coedge $-1 $224 $225 $226 $227 forward $101 $-1 #
coedge $-1 $228 $103 $229 $230 forward $71 $-1 #
coedge $-1 $103 $228 $231 $232 forward $71 $-1 #
coedge $-1 $233 $234 $103 $153 reversed $235 $-1 #
edge $-1 $236 $237 $152 $238 forward #
face $-1 $239 $240 $43 $-1 $241 reversed single #
loop $-1 $-1 $242 $104 #
plane-surface $-1 0 0 12.855239587496648 0 0 1 1 0 0 forward_v I I I I #
coedge $-1 $243 $244 $245 $246 reversed $105 $-1 #
coedge $-1 $247 $107 $248 $249 reversed $74 $-1 #
coedge $-1 $107 $247 $250 $251 reversed $74 $-1 #
coedge $-1 $244 $243 $107 $161 reversed $105 $-1 #
edge $-1 $252 $253 $160 $254 forward #
face $-1 $255 $256 $45 $-1 $257 forward single #
loop $-1 $-1 $258 $108 #
plane-surface $-1 0 0 12.855239587496648 0 0 1 1 0 0 forward_v I I I I #
coedge $-1 $259 $260 $261 $262 reversed $109 $-1 #
coedge $-1 $167 $111 $263 $264 reversed $77 $-1 #
coedge $-1 $111 $166 $259 $265 reversed $77 $-1 #
coedge $-1 $261 $266 $111 $169 forward $267 $-1 #
edge $-1 $268 $269 $168 $270 forward #
loop $-1 $-1 $175 $112 #
plane-surface $-1 -57.949766533402524 -16.44337413382236 2.7805929742242483 -0.75470958851134928 0 0.65605901945558964 0.65605901945558964 0 0.75470958851134928 forward_v I I I I #
loop $-1 $-1 $271 $79 #
coedge $-1 $173 $173 $174 $272 reversed $113 $-1 #
coedge $-1 $174 $174 $173 $272 forward $115 $-1 #
coedge $-1 $175 $175 $116 $176 forward $170 $-1 #
edge $-1 $273 $273 $175 $274 forward #
loop $-1 $-1 $182 $117 #
plane-surface $-1 -57.949766533402524 -16.44337413382236 2.7805929742242483 -0.75470958851134928 0 0.65605901945558964 0.65605901945558964 0 0.75470958851134928 forward_v I I I I #
loop $-1 $-1 $275 $82 #
coedge $-1 $180 $180 $181 $276 reversed $118 $-1 #
coedge $-1 $181 $181 $180 $276 forward $120 $-1 #
coedge $-1 $182 $182 $121 $183 forward $177 $-1 #
edge $-1 $277 $277 $182 $278 forward #
loop $-1 $-1 $189 $122 #
plane-surface $-1 -57.949766533402524 -16.44337413382236 2.7805929742242483 -0.75470958851134928 0 0.65605901945558964 0.65605901945558964 0 0.75470958851134928 forward_v I I I I #
loop $-1 $-1 $279 $85 #
coedge $-1 $187 $187 $188 $280 reversed $123 $-1 #
coedge $-1 $188 $188 $187 $280 forward $125 $-1 #
coedge $-1 $189 $189 $126 $190 forward $184 $-1 #
edge $-1 $281 $281 $189 $282 forward #
face $-1 $283 $284 $53 $-1 $285 reversed single #
loop $-1 $-1 $286 $127 #
plane-surface $-1 49.371554869780951 -23.890330367648559 171.0499578598791 0 1 0 0.66913061440640931 0 0.74314481823134659 forward_v I I I I #
coedge $-1 $287 $288 $289 $290 reversed $128 $-1 #
coedge $-1 $196 $130 $291 $292 reversed $89 $-1 #
coedge $-1 $130 $195 $287 $293 reversed $89 $-1 #
coedge $-1 $289 $294 $130 $198 forward $295 $-1 #
edge $-1 $296 $297 $197 $298 forward #
loop $-1 $-1 $204 $131 #
plane-surface $-1 -28.180370900626244 -20.739052550617259 84.919820425850347 0.66913061440640931 0 0.74314481823134659 0.74314481823134659 0 -0.66913061440640931 forward_v I I I I #
loop $-1 $-1 $299 $91 #
coedge $-1 $202 $202 $203 $300 reversed $132 $-1 #
coedge $-1 $203 $203 $202 $300 forward $134 $-1 #
coedge $-1 $204 $204 $135 $205 forward $199 $-1 #
edge $-1 $301 $301 $204 $302 forward #
loop $-1 $-1 $211 $136 #
plane-surface $-1 -28.180370900626244 -20.739052550617259 84.919820425850347 0.66913061440640931 0 0.74314481823134659 0.74314481823134659 0 -0.66913061440640931 forward_v I I I I #
loop $-1 $-1 $303 $94 #
coedge $-1 $209 $209 $210 $304 reversed $137 $-1 #
coedge $-1 $210 $210 $209 $304 forward $139 $-1 #
coedge $-1 $211 $211 $140 $212 forward $206 $-1 #
edge $-1 $305 $305 $211 $306 forward #
loop $-1 $-1 $218 $141 #
plane-surface $-1 -28.180370900626244 -20.739052550617259 84.919820425850347 0.66913061440640931 0 0.74314481823134659 0.74314481823134659 0 -0.66913061440640931 forward_v I I I I #
loop $-1 $-1 $307 $97 #
coedge $-1 $216 $216 $217 $308 reversed $142 $-1 #
coedge $-1 $217 $217 $216 $308 forward $144 $-1 #
coedge $-1 $218 $218 $145 $219 forward $213 $-1 #
edge $-1 $309 $309 $218 $310 forward #
face $-1 $311 $312 $41 $-1 $313 reversed single #
loop $-1 $-1 $314 $146 #
plane-surface $-1 -57.94976653340251 0 0 1 0 0 0 0 -1 forward_v I I I I #
coedge $-1 $315 $231 $316 $317 forward $147 $-1 #
coedge $-1 $318 $149 $315 $319 forward $101 $-1 #
coedge $-1 $149 $318 $320 $321 forward $101 $-1 #
coedge $-1 $234 $233 $149 $227 reversed $235 $-1 #
edge $-1 $322 $323 $226 $324 forward #
coedge $-1 $151 $150 $325 $326 forward $71 $-1 #
coedge $-1 $327 $328 $150 $230 reversed $312 $-1 #
edge $-1 $237 $329 $229 $330 forward #
coedge $-1 $223 $331 $151 $232 reversed $147 $-1 #
edge $-1 $332 $236 $231 $333 forward #
coedge $-1 $226 $152 $331 $334 forward $235 $-1 #
coedge $-1 $152 $226 $327 $335 reversed $235 $-1 #
loop $-1 $-1 $233 $311 #
vertex $-1 $153 $336 #
vertex $-1 $153 $337 #
straight-curve $-1 57.94976653340251 0 12.855239587496648 0 1 0 I I #
face $-1 $338 $339 $43 $-1 $340 reversed single #
loop $-1 $-1 $341 $154 #
plane-surface $-1 -57.94976653340251 0 0 1 0 0 0 0 -1 forward_v I I I I #
coedge $-1 $250 $342 $244 $343 forward $155 $-1 #
coedge $-1 $160 $157 $344 $345 reversed $105 $-1 #
coedge $-1 $157 $160 $242 $343 reversed $105 $-1 #
coedge $-1 $346 $347 $157 $246 forward $348 $-1 #
edge $-1 $349 $350 $245 $351 forward #
coedge $-1 $159 $158 $341 $352 reversed $74 $-1 #
coedge $-1 $344 $353 $158 $249 forward $339 $-1 #
edge $-1 $354 $253 $248 $355 forward #
coedge $-1 $356 $242 $159 $251 forward $155 $-1 #
edge $-1 $252 $357 $250 $358 forward #
vertex $-1 $251 $359 #
vertex $-1 $249 $360 #
straight-curve $-1 -51.572560213179173 -23.890330367648559 0 0 0 -1 I I #
face $-1 $-1 $267 $45 $-1 $361 reversed single #
loop $-1 $-1 $362 $162 #
plane-surface $-1 -54.761163373290842 -23.890330367648559 0 0 -1 0 0 0 -1 forward_v I I I I #
coedge $-1 $363 $364 $365 $366 forward $163 $-1 #
coedge $-1 $367 $165 $167 $265 forward $109 $-1 #
coedge $-1 $165 $367 $362 $368 reversed $109 $-1 #
coedge $-1 $369 $168 $165 $262 forward $267 $-1 #
edge $-1 $269 $370 $261 $371 forward #
coedge $-1 $364 $363 $166 $264 forward $163 $-1 #
edge $-1 $372 $268 $263 $373 forward #
edge $-1 $269 $372 $167 $374 forward #
coedge $-1 $168 $369 $364 $375 reversed $267 $-1 #
loop $-1 $-1 $261 $255 #
vertex $-1 $375 $376 #
vertex $-1 $169 $377 #
straight-curve $-1 -57.94976653340251 -8.9964178999961586 39.408763496696523 0 0 -1 I I #
coedge $-1 $271 $271 $-1 $378 reversed $172 $-1 #
edge $-1 $379 $379 $173 $380 forward #
vertex $-1 $176 $381 #
ellipse-curve $-1 -53.570888300582986 -20.911547874118078 7.8179162808604579 -0.75470958851134928 0 0.65605901945558964 0.65605901945558964 0 0.75470958851134928 1 I I #
coedge $-1 $275 $275 $-1 $382 reversed $179 $-1 #
edge $-1 $383 $383 $180 $384 forward #
vertex $-1 $183 $385 #
ellipse-curve $-1 -53.570888300582986 -16.44337413382236 7.8179162808604579 -0.75470958851134928 0 0.65605901945558964 0.65605901945558964 0 0.75470958851134928 1 I I #
coedge $-1 $279 $279 $-1 $386 reversed $186 $-1 #
edge $-1 $387 $387 $187 $388 forward #
vertex $-1 $190 $389 #
ellipse-curve $-1 -53.570888300582986 -11.975200393526642 7.8179162808604579 -0.75470958851134928 0 0.65605901945558964 0.65605901945558964 0 0.75470958851134928 1 I I #
face $-1 $-1 $295 $53 $-1 $390 forward single #
loop $-1 $-1 $391 $191 #
plane-surface $-1 57.94976653340251 0 0 -1 0 0 0 0 1 forward_v I I I I #
coedge $-1 $392 $393 $394 $395 reversed $192 $-1 #
coedge $-1 $396 $194 $196 $293 forward $128 $-1 #
coedge $-1 $194 $396 $392 $397 forward $128 $-1 #
coedge $-1 $394 $197 $194 $290 forward $295 $-1 #
edge $-1 $297 $398 $289 $399 forward #
coedge $-1 $400 $401 $195 $292 forward $284 $-1 #
edge $-1 $402 $296 $291 $403 forward #
edge $-1 $297 $402 $196 $404 forward #
coedge $-1 $197 $394 $400 $405 forward $295 $-1 #
loop $-1 $-1 $394 $283 #
vertex $-1 $292 $406 #
vertex $-1 $198 $407 #
straight-curve $-1 24.685777434890475 -17.58777473358596 12.855239587496655 -1 0 0 I I #
coedge $-1 $299 $299 $-1 $408 reversed $201 $-1 #
edge $-1 $409 $409 $202 $410 forward #
vertex $-1 $205 $411 #
ellipse-curve $-1 54.902609622400085 -22.629819240836039 10.111567121469896 0.66913061440640931 0 0.74314481823134659 0.3715724091156733 0 -0.33456530720320465 1 I I #
coedge $-1 $303 $303 $-1 $412 reversed $208 $-1 #
edge $-1 $413 $413 $209 $414 forward #
vertex $-1 $212 $415 #
ellipse-curve $-1 54.902609622400085 -20.739052550617259 10.111567121469896 0.66913061440640931 0 0.74314481823134659 0.3715724091156733 0 -0.33456530720320465 1 I I #
coedge $-1 $307 $307 $-1 $416 reversed $215 $-1 #
edge $-1 $417 $417 $216 $418 forward #
vertex $-1 $219 $419 #
ellipse-curve $-1 54.902609622400085 -18.848285860398477 10.111567121469896 0.66913061440640931 0 0.74314481823134659 0.3715724091156733 0 -0.33456530720320465 1 I I #
face $-1 $-1 $235 $41 $-1 $420 reversed single #
loop $-1 $-1 $327 $220 #
plane-surface $-1 0 35.403527980862393 0 0 -1 0 0 0 -1 forward_v I I I I #
coedge $-1 $421 $325 $328 $422 forward $221 $-1 #
coedge $-1 $331 $223 $224 $319 reversed $147 $-1 #
coedge $-1 $325 $421 $223 $317 reversed $221 $-1 #
edge $-1 $332 $423 $316 $424 forward #
coedge $-1 $225 $224 $421 $425 forward $101 $-1 #
edge $-1 $323 $423 $315 $426 forward #
coedge $-1 $328 $327 $225 $321 reversed $312 $-1 #
edge $-1 $427 $322 $320 $428 forward #
vertex $-1 $227 $429 #
vertex $-1 $334 $430 #
straight-curve $-1 57.94976653340251 0 -12.855239587496648 0 -1 0 I I #
coedge $-1 $314 $316 $228 $326 reversed $221 $-1 #
edge $-1 $329 $332 $325 $431 forward #
coedge $-1 $320 $229 $234 $335 forward $312 $-1 #
coedge $-1 $229 $320 $314 $422 reversed $312 $-1 #
vertex $-1 $230 $432 #
straight-curve $-1 0 35.403527980862393 12.855239587496648 -1 0 0 I I #
coedge $-1 $231 $315 $233 $334 reversed $147 $-1 #
vertex $-1 $326 $433 #
straight-curve $-1 0 -35.403527980862393 12.855239587496648 1 0 0 I I #
edge $-1 $236 $323 $233 $434 forward #
edge $-1 $237 $322 $234 $435 forward #
point $-1 57.94976653340251 -35.403527980862393 12.855239587496648 #
point $-1 57.94976653340251 35.403527980862393 12.855239587496648 #
face $-1 $-1 $348 $43 $-1 $436 reversed single #
loop $-1 $-1 $344 $239 #
plane-surface $-1 0 0 -12.855239587496648 0 0 1 1 0 0 forward_v I I I I #
coedge $-1 $437 $438 $247 $352 forward $240 $-1 #
coedge $-1 $242 $356 $346 $439 forward $155 $-1 #
edge $-1 $350 $252 $242 $440 forward #
coedge $-1 $441 $248 $243 $345 forward $339 $-1 #
edge $-1 $253 $349 $344 $442 forward #
coedge $-1 $443 $245 $342 $439 reversed $348 $-1 #
coedge $-1 $245 $443 $441 $444 reversed $348 $-1 #
loop $-1 $-1 $245 $338 #
vertex $-1 $444 $445 #
vertex $-1 $246 $446 #
straight-curve $-1 -51.572560213179173 -35.403527980862393 0 0 0 1 I I #
edge $-1 $357 $354 $341 $447 forward #
coedge $-1 $248 $441 $437 $448 forward $339 $-1 #
vertex $-1 $249 $449 #
straight-curve $-1 -27.380581686645421 -23.890330367648559 -12.855239587496648 1 0 0 I I #
coedge $-1 $342 $250 $438 $450 forward $155 $-1 #
vertex $-1 $450 $451 #
straight-curve $-1 -27.380581686645421 -23.890330367648559 12.855239587496648 -1 0 0 I I #
point $-1 -51.572560213179173 -23.890330367648559 12.855239587496648 #
point $-1 -51.572560213179173 -23.890330367648559 -12.855239587496648 #
plane-surface $-1 -57.94976653340251 0 0 1 0 0 0 0 -1 forward_v I I I I #
coedge $-1 $365 $452 $260 $368 forward $256 $-1 #
coedge $-1 $263 $258 $367 $453 forward $163 $-1 #
coedge $-1 $258 $263 $266 $375 forward $163 $-1 #
coedge $-1 $452 $362 $258 $366 reversed $256 $-1 #
edge $-1 $454 $455 $258 $456 forward #
coedge $-1 $260 $259 $363 $453 reversed $109 $-1 #
edge $-1 $370 $455 $362 $457 forward #
coedge $-1 $266 $261 $452 $458 forward $267 $-1 #
vertex $-1 $458 $459 #
straight-curve $-1 -57.94976653340251 -8.2216870669111799 2.7805929742242652 0 -1 0 I I #
vertex $-1 $264 $460 #
straight-curve $-1 -72.710127721454228 -8.9964178999961586 12.855239587496648 -1 0 0 I I #
straight-curve $-1 -57.949766533402524 -8.9964178999961586 2.7805929742242483 0.65605901945558964 0 0.75470958851134928 I I #
edge $-1 $268 $454 $266 $461 forward #
point $-1 -57.94976653340251 -8.9964178999961586 12.855239587496648 #
point $-1 -57.94976653340251 -8.9964178999961586 2.7805929742242648 #
edge $-1 $462 $462 $271 $-1 forward #
vertex $-1 $272 $463 #
ellipse-curve $-1 -52.725384156637453 -20.911547874118078 7.0829307605139142 -0.75470958851134928 0 0.65605901945558964 0.65605901945558964 0 0.75470958851134928 1 I I #
point $-1 -52.914829281127396 -20.911547874118078 8.5726258693718087 #
edge $-1 $464 $464 $275 $-1 forward #
vertex $-1 $276 $465 #
ellipse-curve $-1 -52.725384156637453 -16.44337413382236 7.0829307605139142 -0.75470958851134928 0 0.65605901945558964 0.65605901945558964 0 0.75470958851134928 1 I I #
point $-1 -52.914829281127396 -16.44337413382236 8.5726258693718087 #
edge $-1 $466 $466 $279 $-1 forward #
vertex $-1 $280 $467 #
ellipse-curve $-1 -52.725384156637453 -11.975200393526642 7.0829307605139142 -0.75470958851134928 0 0.65605901945558964 0.65605901945558964 0 0.75470958851134928 1 I I #
point $-1 -52.914829281127396 -11.975200393526642 8.5726258693718087 #
plane-surface $-1 0 0 12.855239587496648 0 0 1 1 0 0 forward_v I I I I #
coedge $-1 $401 $400 $393 $468 forward $284 $-1 #
coedge $-1 $393 $286 $288 $397 reversed $192 $-1 #
coedge $-1 $286 $392 $391 $468 reversed $192 $-1 #
coedge $-1 $294 $289 $286 $395 forward $295 $-1 #
edge $-1 $398 $469 $394 $470 forward #
coedge $-1 $288 $287 $401 $471 reversed $128 $-1 #
edge $-1 $472 $398 $392 $473 forward #
vertex $-1 $290 $474 #
straight-curve $-1 51.855452711397653 -10.36952627530863 12.855239587496634 0 -1 0 I I #
coedge $-1 $391 $291 $294 $405 reversed $284 $-1 #
coedge $-1 $291 $391 $396 $471 forward $284 $-1 #
vertex $-1 $292 $475 #
straight-curve $-1 57.94976653340251 -17.58777473358596 85.52497892993955 0 0 1 I I #
straight-curve $-1 -28.180370900626244 -17.58777473358596 84.919820425850347 0.74314481823134659 0 -0.66913061440640931 I I #
edge $-1 $469 $296 $400 $476 forward #
point $-1 57.94976653340251 -17.58777473358596 12.855239587496648 #
point $-1 51.855452711397632 -17.58777473358596 12.855239587496655 #
edge $-1 $477 $477 $299 $-1 forward #
vertex $-1 $300 $478 #
ellipse-curve $-1 53.856816079354303 -22.629819240836039 8.9500957499295097 0.66913061440640931 0 0.74314481823134659 0.3715724091156733 0 -0.33456530720320465 1 I I #
point $-1 55.274182031515757 -22.629819240836039 9.7770018142666881 #
edge $-1 $479 $479 $303 $-1 forward #
vertex $-1 $304 $480 #
ellipse-curve $-1 53.856816079354303 -20.739052550617259 8.9500957499295097 0.66913061440640931 0 0.74314481823134659 0.3715724091156733 0 -0.33456530720320465 1 I I #
point $-1 55.274182031515757 -20.739052550617259 9.7770018142666881 #
edge $-1 $481 $481 $307 $-1 forward #
vertex $-1 $308 $482 #
ellipse-curve $-1 53.856816079354303 -18.848285860398477 8.9500957499295097 0.66913061440640931 0 0.74314481823134659 0.3715724091156733 0 -0.33456530720320465 1 I I #
point $-1 55.274182031515757 -18.848285860398477 9.7770018142666881 #
plane-surface $-1 57.94976653340251 0 0 -1 0 0 0 0 1 forward_v I I I I #
coedge $-1 $316 $314 $318 $425 reversed $221 $-1 #
edge $-1 $329 $427 $328 $483 forward #
vertex $-1 $425 $484 #
straight-curve $-1 -57.94976653340251 -35.403527980862393 0 0 0 -1 I I #
edge $-1 $423 $427 $421 $485 forward #
straight-curve $-1 0 -35.403527980862393 -12.855239587496648 -1 0 0 I I #
vertex $-1 $321 $486 #
straight-curve $-1 0 35.403527980862393 -12.855239587496648 1 0 0 I I #
point $-1 57.94976653340251 35.403527980862393 -12.855239587496648 #
point $-1 57.94976653340251 -35.403527980862393 -12.855239587496648 #
straight-curve $-1 -57.94976653340251 0 12.855239587496648 0 -1 0 I I #
point $-1 -57.94976653340251 35.403527980862393 12.855239587496648 #
point $-1 -57.94976653340251 -35.403527980862393 12.855239587496648 #
straight-curve $-1 57.94976653340251 -35.403527980862393 0 0 0 -1 I I #
straight-curve $-1 57.94976653340251 35.403527980862393 0 0 0 -1 I I #
plane-surface $-1 0 -35.403527980862393 0 0 1 0 0 0 1 forward_v I I I I #
coedge $-1 $487 $341 $353 $448 reversed $240 $-1 #
coedge $-1 $341 $487 $356 $450 reversed $240 $-1 #
edge $-1 $488 $350 $346 $489 forward #
straight-curve $-1 -51.572560213179173 -14.823464587127738 12.855239587496648 0 1 0 I I #
coedge $-1 $353 $344 $347 $444 forward $339 $-1 #
straight-curve $-1 -51.572560213179173 -14.823464587127738 -12.855239587496648 0 -1 0 I I #
coedge $-1 $347 $346 $487 $490 forward $348 $-1 #
edge $-1 $349 $491 $347 $492 forward #
point $-1 -51.572560213179173 -35.403527980862393 -12.855239587496648 #
point $-1 -51.572560213179173 -35.403527980862393 12.855239587496648 #
straight-curve $-1 -57.94976653340251 -23.890330367648559 0 0 0 -1 I I #
edge $-1 $491 $354 $437 $493 forward #
point $-1 -57.94976653340251 -23.890330367648559 -12.855239587496648 #
edge $-1 $357 $488 $438 $494 forward #
point $-1 -57.94976653340251 -23.890330367648559 12.855239587496648 #
coedge $-1 $362 $365 $369 $458 reversed $256 $-1 #
edge $-1 $455 $372 $363 $495 forward #
vertex $-1 $458 $496 #
vertex $-1 $366 $497 #
straight-curve $-1 -27.380581686645421 -23.890330367648559 12.855239587496648 1 0 0 I I #
straight-curve $-1 -57.951940816892566 -23.890330367648559 2.778091747125143 0.65605901945558975 0 0.75470958851134939 I I #
edge $-1 $370 $454 $369 $498 forward #
point $-1 -57.94976653340251 -23.890330367648559 2.7805929742242648 #
point $-1 -49.192010067763462 -8.9964178999961586 12.855239587496648 #
straight-curve $-1 -57.94976653340251 0 12.855239587496648 0 -1 0 I I #
vertex $-1 $378 $499 #
point $-1 -52.069325137181863 -20.911547874118078 7.8376403490252633 #
vertex $-1 $382 $500 #
point $-1 -52.069325137181863 -16.44337413382236 7.8376403490252633 #
vertex $-1 $386 $501 #
point $-1 -52.069325137181863 -11.975200393526642 7.8376403490252633 #
edge $-1 $469 $472 $391 $502 forward #
vertex $-1 $405 $503 #
straight-curve $-1 24.685777434890475 -23.890330367648559 12.855239587496655 1 0 0 I I #
edge $-1 $472 $402 $401 $504 forward #
vertex $-1 $471 $505 #
straight-curve $-1 -28.180370900626244 -23.890330367648559 84.919820425850347 -0.74314481823134659 0 0.66913061440640931 I I #
point $-1 51.855452711397632 -23.890330367648559 12.855239587496655 #
point $-1 57.94976653340251 -17.58777473358596 7.3678946554431661 #
straight-curve $-1 57.94976653340251 0 12.855239587496648 0 1 0 I I #
vertex $-1 $408 $506 #
point $-1 54.228388488469975 -22.629819240836039 8.6155304427263051 #
vertex $-1 $412 $507 #
point $-1 54.228388488469975 -20.739052550617259 8.6155304427263051 #
vertex $-1 $416 $508 #
point $-1 54.228388488469975 -18.848285860398477 8.6155304427263051 #
straight-curve $-1 -57.94976653340251 35.403527980862393 0 0 0 -1 I I #
point $-1 -57.94976653340251 -35.403527980862393 -12.855239587496648 #
straight-curve $-1 -57.94976653340251 0 -12.855239587496648 0 1 0 I I #
point $-1 -57.94976653340251 35.403527980862393 -12.855239587496648 #
coedge $-1 $438 $437 $443 $490 reversed $240 $-1 #
vertex $-1 $450 $509 #
straight-curve $-1 0 -35.403527980862393 12.855239587496648 1 0 0 I I #
edge $-1 $488 $491 $487 $510 forward #
vertex $-1 $448 $511 #
straight-curve $-1 0 -35.403527980862393 -12.855239587496648 -1 0 0 I I #
straight-curve $-1 -57.94976653340251 0 -12.855239587496648 0 1 0 I I #
straight-curve $-1 -57.94976653340251 0 12.855239587496648 0 -1 0 I I #
straight-curve $-1 -49.192010067763462 -8.2216870669111799 12.855239587496648 0 1 0 I I #
point $-1 -57.94976653340251 -23.890330367648559 12.855239587496648 #
point $-1 -49.192010067763462 -23.890330367648559 12.855239587496648 #
straight-curve $-1 -57.94976653340251 -23.890330367648559 0 0 0 1 I I #
point $-1 -51.970674568126107 -20.911547874118078 6.4268717410583243 #
point $-1 -51.970674568126107 -16.44337413382236 6.4268717410583243 #
point $-1 -51.970674568126107 -11.975200393526642 6.4268717410583243 #
straight-curve $-1 57.94976653340251 -23.890330367648559 85.52497892993955 0 0 -1 I I #
point $-1 57.94976653340251 -23.890330367648559 12.855239587496648 #
straight-curve $-1 57.949766533402503 -10.36952627530863 7.367894655443159 0 1 0 I I #
point $-1 57.94976653340251 -23.890330367648559 7.3678946554431661 #
point $-1 53.522250772151096 -22.629819240836039 8.5785233408138382 #
point $-1 53.522250772151096 -20.739052550617259 8.5785233408138382 #
point $-1 53.522250772151096 -18.848285860398477 8.5785233408138382 #
point $-1 -57.94976653340251 -35.403527980862393 12.855239587496648 #
straight-curve $-1 -57.94976653340251 -35.403527980862393 0 0 0 -1 I I #
point $-1 -57.94976653340251 -35.403527980862393 -12.855239587496648 #
End-of-ACIS-data 