600 0 5 0           
94 GICL ACIS Healer - Source: /gicl/data5/repository/Drexel/SM99-DATA/part91.smdg.delta.sat - 6 0 18 ACIS 6.0.3 Solaris 24 Sat Apr 13 20:46:45 2002 
1 9.999999999999999547e-07 1.000000000000000036e-10 
body $-1 $5 $-1 $-1 #
body $-1 $6 $-1 $-1 #
body $-1 $7 $-1 $-1 #
body $-1 $8 $-1 $-1 #
body $-1 $9 $-1 $-1 #
lump $-1 $-1 $10 $0 #
lump $-1 $-1 $11 $1 #
lump $-1 $-1 $12 $2 #
lump $-1 $-1 $13 $3 #
lump $-1 $-1 $14 $4 #
shell $-1 $-1 $-1 $15 $-1 $5 #
shell $-1 $-1 $-1 $16 $-1 $6 #
shell $-1 $-1 $-1 $17 $-1 $7 #
shell $-1 $-1 $-1 $18 $-1 $8 #
shell $-1 $-1 $-1 $19 $-1 $9 #
face $-1 $20 $21 $10 $-1 $22 forward single #
face $-1 $23 $24 $11 $-1 $25 forward single #
face $-1 $26 $27 $12 $-1 $28 reversed single #
face $-1 $29 $30 $13 $-1 $31 forward single #
face $-1 $32 $33 $14 $-1 $34 forward single #
face $-1 $35 $36 $10 $-1 $37 reversed single #
loop $-1 $-1 $38 $15 #
plane-surface $-1 77.1153904843287421 52.28911579698673506 37.90597853994761834 0 0 1 1 0 0 forward_v I I I I #
face $-1 $39 $40 $11 $-1 $41 reversed single #
loop $-1 $-1 $42 $16 #
plane-surface $-1 77.1153904843287421 0 18.95298926997380917 0 1 0 0 0 1 forward_v I I I I #
face $-1 $43 $44 $12 $-1 $45 reversed single #
loop $-1 $-1 $46 $17 #
plane-surface $-1 19.7082339852249504 117.1234124781335169 217.5248731866206526 -1 0 0 0 0.6156614830463592591 0.788010747574649173 forward_v I I I I #
face $-1 $47 $48 $13 $-1 $49 forward single #
loop $-1 $50 $51 $18 #
cone-surface $-1 5.630923995778559288 98.74685110536407251 32.45309032994651233 0 -0.6156614830463592591 -0.788010747574649173 1.5 0 0 1 I I 0 1 1.5 forward I I I I #
face $-1 $52 $53 $14 $-1 $54 forward single #
loop $-1 $55 $56 $19 #
cone-surface $-1 14.07730998944639111 98.74685110536407251 32.45309032994651233 0 -0.6156614830463592591 -0.788010747574649173 1.5 0 0 1 I I 0 1 1.5 forward I I I I #
face $-1 $57 $58 $10 $-1 $59 reversed single #
loop $-1 $-1 $60 $20 #
plane-surface $-1 77.1153904843287421 52.28911579698673506 0 0 0 1 1 0 0 forward_v I I I I #
coedge $-1 $61 $62 $63 $64 forward $21 $-1 #
face $-1 $65 $66 $11 $-1 $67 reversed single #
loop $-1 $-1 $68 $23 #
plane-surface $-1 77.1153904843287421 52.28911579698673506 0 0 0 1 1 0 0 forward_v I I I I #
coedge $-1 $69 $70 $71 $72 forward $24 $-1 #
face $-1 $73 $74 $12 $-1 $75 reversed single #
loop $-1 $-1 $76 $26 #
plane-surface $-1 9.854116992612475201 22.16946113557165177 95.98936017648689756 0 0.6156614830463592591 0.788010747574649173 1 0 0 forward_v I I I I #
coedge $-1 $77 $78 $79 $80 reversed $27 $-1 #
face $-1 $-1 $81 $13 $-1 $82 forward single #
loop $-1 $83 $84 $29 #
cone-surface $-1 5.630923995778559288 96.48644133678132562 29.5598978197504465 0 -0.6156614830463592591 -0.788010747574649173 0.75 0 0 1 I I -0.7071067811865475727 0.7071067811865475727 0.75 forward I I I I #
loop $-1 $-1 $85 $18 #
coedge $-1 $51 $51 $86 $87 reversed $30 $-1 #
face $-1 $-1 $88 $14 $-1 $89 forward single #
loop $-1 $90 $91 $32 #
cone-surface $-1 14.07730998944639111 96.48644133678132562 29.5598978197504465 0 -0.6156614830463592591 -0.788010747574649173 0.75 0 0 1 I I -0.7071067811865475727 0.7071067811865475727 0.75 forward I I I I #
loop $-1 $-1 $92 $19 #
coedge $-1 $56 $56 $93 $94 reversed $33 $-1 #
face $-1 $95 $96 $10 $-1 $97 reversed single #
loop $-1 $-1 $98 $35 #
plane-surface $-1 77.1153904843287421 0 18.95298926997380917 0 1 0 0 0 1 forward_v I I I I #
coedge $-1 $99 $100 $101 $102 forward $36 $-1 #
coedge $-1 $103 $38 $104 $105 forward $21 $-1 #
coedge $-1 $38 $103 $106 $107 forward $21 $-1 #
coedge $-1 $108 $109 $38 $64 reversed $110 $-1 #
edge $-1 $111 -52.28911579698673506 $112 52.28911579698673506 $63 $113 forward 7 unknown #
face $-1 $114 $115 $11 $-1 $116 reversed single #
loop $-1 $-1 $117 $39 #
plane-surface $-1 34.80618408831284682 -14.93197322677690408 18.95298926997380917 0 1 0 0 0 1 forward_v I I I I #
coedge $-1 $118 $119 $70 $120 forward $40 $-1 #
coedge $-1 $121 $42 $122 $123 reversed $24 $-1 #
coedge $-1 $42 $121 $68 $120 reversed $24 $-1 #
coedge $-1 $124 $125 $42 $72 reversed $115 $-1 #
edge $-1 $126 -18.95298926997380917 $127 18.95298926997380917 $71 $128 forward 7 unknown #
face $-1 $129 $130 $12 $-1 $131 forward single #
loop $-1 $-1 $132 $43 #
plane-surface $-1 0 52.28911579698673506 18.95298926997380917 1 0 0 0 0 -1 forward_v I I I I #
coedge $-1 $133 $134 $135 $136 reversed $44 $-1 #
coedge $-1 $78 $46 $137 $138 reversed $27 $-1 #
coedge $-1 $46 $77 $133 $139 reversed $27 $-1 #
coedge $-1 $135 $140 $46 $80 forward $141 $-1 #
edge $-1 $142 80.33295268834962144 $143 86.63436020932165604 $79 $144 forward 7 unknown #
loop $-1 $-1 $86 $47 #
plane-surface $-1 9.854116992612475201 22.16946113557165177 95.98936017648689756 0 0.6156614830463592591 0.788010747574649173 1 0 0 forward_v I I I I #
loop $-1 $-1 $145 $29 #
coedge $-1 $84 $84 $85 $146 reversed $48 $-1 #
coedge $-1 $85 $85 $84 $146 forward $50 $-1 #
coedge $-1 $86 $86 $51 $87 forward $81 $-1 #
edge $-1 $147 1.283538390783573803e-15 $147 6.28318530717958712 $86 $148 forward 7 unknown #
loop $-1 $-1 $93 $52 #
plane-surface $-1 9.854116992612475201 22.16946113557165177 95.98936017648689756 0 0.6156614830463592591 0.788010747574649173 1 0 0 forward_v I I I I #
loop $-1 $-1 $149 $32 #
coedge $-1 $91 $91 $92 $150 reversed $53 $-1 #
coedge $-1 $92 $92 $91 $150 forward $55 $-1 #
coedge $-1 $93 $93 $56 $94 forward $88 $-1 #
edge $-1 $151 1.283538390783573803e-15 $151 6.28318530717958712 $93 $152 forward 7 unknown #
face $-1 $153 $154 $10 $-1 $155 reversed single #
loop $-1 $-1 $156 $57 #
plane-surface $-1 0 52.28911579698673506 18.95298926997380917 1 0 0 0 0 -1 forward_v I I I I #
coedge $-1 $157 $106 $158 $159 forward $58 $-1 #
coedge $-1 $160 $60 $157 $161 forward $36 $-1 #
coedge $-1 $60 $160 $162 $163 forward $36 $-1 #
coedge $-1 $109 $108 $60 $102 reversed $110 $-1 #
edge $-1 $164 -52.28911579698673506 $165 52.28911579698673506 $101 $166 forward 7 unknown #
coedge $-1 $62 $61 $167 $168 forward $21 $-1 #
coedge $-1 $169 $170 $61 $105 reversed $154 $-1 #
edge $-1 $112 -77.1153904843287421 $171 77.1153904843287421 $104 $172 forward 7 unknown #
coedge $-1 $98 $173 $62 $107 reversed $58 $-1 #
edge $-1 $174 -77.1153904843287421 $111 77.1153904843287421 $106 $175 forward 7 unknown #
coedge $-1 $101 $63 $173 $176 forward $110 $-1 #
coedge $-1 $63 $101 $169 $177 reversed $110 $-1 #
loop $-1 $-1 $108 $153 #
vertex $-1 $64 $178 #
vertex $-1 $64 $179 #
straight-curve $-1 154.2307809686574842 52.28911579698673506 37.90597853994761834 0 1 0 I I #
face $-1 $180 $181 $11 $-1 $182 reversed single #
loop $-1 $-1 $71 $65 #
plane-surface $-1 31.7063896366780682 -7.465986613388452042 18.95298926997380917 1 0 0 0 0 -1 forward_v I I I I #
coedge $-1 $183 $184 $185 $186 forward $66 $-1 #
coedge $-1 $187 $68 $188 $189 forward $40 $-1 #
coedge $-1 $68 $187 $124 $190 forward $40 $-1 #
edge $-1 $126 -45.4090008476506739 $191 -39.20941194438111665 $68 $192 forward 7 unknown #
coedge $-1 $70 $69 $193 $194 forward $24 $-1 #
coedge $-1 $195 $196 $69 $123 forward $197 $-1 #
edge $-1 $198 39.20941194438111665 $127 45.4090008476506739 $122 $199 forward 7 unknown #
coedge $-1 $185 $71 $119 $190 reversed $115 $-1 #
coedge $-1 $71 $185 $195 $200 reversed $115 $-1 #
vertex $-1 $120 $201 #
vertex $-1 $200 $202 #
straight-curve $-1 31.7063896366780682 0 18.95298926997380917 0 0 1 I I #
face $-1 $-1 $141 $12 $-1 $203 reversed single #
loop $-1 $-1 $137 $73 #
plane-surface $-1 77.1153904843287421 52.28911579698673506 37.90597853994761834 0 0 1 1 0 0 forward_v I I I I #
coedge $-1 $204 $205 $134 $206 forward $74 $-1 #
coedge $-1 $207 $76 $78 $139 forward $44 $-1 #
coedge $-1 $76 $207 $132 $206 reversed $44 $-1 #
coedge $-1 $208 $79 $76 $136 forward $141 $-1 #
edge $-1 $143 23.77651975324565825 $209 43.48475373847060865 $135 $210 forward 7 unknown #
coedge $-1 $211 $212 $77 $138 forward $130 $-1 #
edge $-1 $213 11.80653379179054241 $142 19.87196745641334417 $137 $214 forward 7 unknown #
edge $-1 $143 -104.5782315939734417 $213 -94.3430492827591678 $78 $215 forward 7 unknown #
coedge $-1 $79 $208 $211 $216 reversed $141 $-1 #
loop $-1 $-1 $135 $129 #
vertex $-1 $216 $217 #
vertex $-1 $80 $218 #
straight-curve $-1 19.7082339852249504 104.5782315939734701 118.2389312282972327 0 0 -1 I I #
coedge $-1 $145 $145 $-1 $219 reversed $83 $-1 #
edge $-1 $220 0 $220 6.283185307179586232 $84 $221 forward 7 unknown #
vertex $-1 $87 $222 #
ellipse-curve $-1 5.630923995778559288 100.5455147616620621 34.75527477946160815 0 0.6156614830463592591 0.788010747574649173 1.5 0 0 1 I I #
coedge $-1 $149 $149 $-1 $223 reversed $90 $-1 #
edge $-1 $224 0 $224 6.283185307179586232 $91 $225 forward 7 unknown #
vertex $-1 $94 $226 #
ellipse-curve $-1 14.07730998944639111 100.5455147616620621 34.75527477946160815 0 0.6156614830463592591 0.788010747574649173 1.5 0 0 1 I I #
face $-1 $-1 $110 $10 $-1 $227 reversed single #
loop $-1 $-1 $169 $95 #
plane-surface $-1 77.1153904843287421 104.5782315939734701 18.95298926997380917 0 -1 0 0 0 -1 forward_v I I I I #
coedge $-1 $228 $167 $170 $229 forward $96 $-1 #
coedge $-1 $173 $98 $99 $161 reversed $58 $-1 #
coedge $-1 $167 $228 $98 $159 reversed $96 $-1 #
edge $-1 $174 -18.95298926997380917 $230 18.95298926997380917 $158 $231 forward 7 unknown #
coedge $-1 $100 $99 $228 $232 forward $36 $-1 #
edge $-1 $165 -77.1153904843287421 $230 77.1153904843287421 $157 $233 forward 7 unknown #
coedge $-1 $170 $169 $100 $163 reversed $154 $-1 #
edge $-1 $234 -77.1153904843287421 $164 77.1153904843287421 $162 $235 forward 7 unknown #
vertex $-1 $102 $236 #
vertex $-1 $176 $237 #
straight-curve $-1 154.2307809686574842 52.28911579698673506 0 0 -1 0 I I #
coedge $-1 $156 $158 $103 $168 reversed $96 $-1 #
edge $-1 $171 -52.28911579698673506 $174 52.28911579698673506 $167 $238 forward 7 unknown #
coedge $-1 $162 $104 $109 $177 forward $154 $-1 #
coedge $-1 $104 $162 $156 $229 reversed $154 $-1 #
vertex $-1 $105 $239 #
straight-curve $-1 77.1153904843287421 104.5782315939734701 37.90597853994761834 -1 0 0 I I #
coedge $-1 $106 $157 $108 $176 reversed $58 $-1 #
vertex $-1 $168 $240 #
straight-curve $-1 77.1153904843287421 0 37.90597853994761834 1 0 0 I I #
edge $-1 $111 -18.95298926997380917 $165 18.95298926997380917 $108 $241 forward 7 unknown #
edge $-1 $112 -18.95298926997380917 $164 18.95298926997380917 $109 $242 forward 7 unknown #
point $-1 154.2307809686574842 0 37.90597853994761834 #
point $-1 154.2307809686574842 104.5782315939734701 37.90597853994761834 #
face $-1 $-1 $197 $11 $-1 $243 forward single #
loop $-1 $-1 $244 $114 #
plane-surface $-1 37.90597853994762545 -7.465986613388452042 18.95298926997380917 -1 0 0 0 0 1 forward_v I I I I #
coedge $-1 $245 $117 $187 $246 reversed $66 $-1 #
coedge $-1 $117 $245 $247 $248 reversed $66 $-1 #
coedge $-1 $125 $124 $117 $186 reversed $115 $-1 #
edge $-1 $249 -18.95298926997380917 $250 18.95298926997380917 $185 $251 forward 7 unknown #
coedge $-1 $119 $118 $183 $246 forward $40 $-1 #
coedge $-1 $193 $244 $118 $189 reversed $181 $-1 #
edge $-1 $191 -7.465986613388452042 $252 7.465986613388452042 $188 $253 forward 7 unknown #
edge $-1 $250 -7.465986613388452042 $126 7.465986613388452042 $124 $254 forward 7 unknown #
vertex $-1 $189 $255 #
straight-curve $-1 77.1153904843287421 0 0 1 0 0 I I #
coedge $-1 $256 $188 $121 $194 reversed $181 $-1 #
edge $-1 $198 -18.95298926997380917 $191 18.95298926997380917 $193 $257 forward 7 unknown #
coedge $-1 $247 $122 $125 $200 forward $197 $-1 #
coedge $-1 $122 $247 $256 $258 forward $197 $-1 #
loop $-1 $-1 $122 $180 #
vertex $-1 $123 $259 #
straight-curve $-1 77.1153904843287421 0 37.90597853994761834 -1 0 0 I I #
edge $-1 $127 -7.465986613388452042 $249 7.465986613388452042 $125 $260 forward 7 unknown #
point $-1 31.7063896366780682 0 0 #
point $-1 31.7063896366780682 0 37.90597853994761834 #
plane-surface $-1 77.1153904843287421 104.5782315939734701 18.95298926997380917 0 -1 0 0 0 -1 forward_v I I I I #
coedge $-1 $205 $132 $261 $262 reversed $74 $-1 #
coedge $-1 $132 $204 $208 $263 forward $74 $-1 #
edge $-1 $209 -68.99676262035083596 $264 -58.76158030913654784 $132 $265 forward 7 unknown #
coedge $-1 $134 $133 $212 $266 reversed $44 $-1 #
coedge $-1 $140 $135 $205 $263 reversed $141 $-1 #
vertex $-1 $206 $267 #
straight-curve $-1 43.48475373847060865 104.5782315939734701 31.60457101897556953 -1 0 0 I I #
coedge $-1 $261 $137 $140 $216 forward $130 $-1 #
coedge $-1 $137 $261 $207 $266 forward $130 $-1 #
vertex $-1 $138 $268 #
straight-curve $-1 19.7082339852249504 84.70626413756012596 37.90597853994762545 0 1 0 I I #
straight-curve $-1 19.7082339852249504 22.16946113557165177 95.98936017648689756 0 -0.788010747574649173 0.6156614830463592591 I I #
edge $-1 $142 57.4071564991037917 $269 77.1153904843287421 $140 $270 forward 7 unknown #
point $-1 19.7082339852249504 104.5782315939734701 37.90597853994761834 #
point $-1 19.7082339852249504 104.5782315939734701 31.60457101897557308 #
edge $-1 $271 1 $271 0 $145 $-1 forward 7 unknown #
vertex $-1 $146 $272 #
ellipse-curve $-1 5.630923995778559288 96.94818744906609709 30.15090588043143427 0 0.6156614830463592591 0.788010747574649173 1.5 0 0 1 I I #
point $-1 7.130923995778559288 100.5455147616620479 34.75527477946158683 #
edge $-1 $273 1 $273 0 $149 $-1 forward 7 unknown #
vertex $-1 $150 $274 #
ellipse-curve $-1 14.07730998944639111 96.94818744906609709 30.15090588043143427 0 0.6156614830463592591 0.788010747574649173 1.5 0 0 1 I I #
point $-1 15.57730998944639111 100.5455147616620479 34.75527477946158683 #
plane-surface $-1 154.2307809686574842 52.28911579698673506 18.95298926997380917 -1 0 0 0 0 1 forward_v I I I I #
coedge $-1 $158 $156 $160 $232 reversed $96 $-1 #
edge $-1 $171 -18.95298926997380917 $234 18.95298926997380917 $170 $275 forward 7 unknown #
vertex $-1 $232 $276 #
straight-curve $-1 0 0 18.95298926997380917 0 0 -1 I I #
edge $-1 $230 -52.28911579698673506 $234 52.28911579698673506 $228 $277 forward 7 unknown #
straight-curve $-1 77.1153904843287421 0 0 -1 0 0 I I #
vertex $-1 $163 $278 #
straight-curve $-1 77.1153904843287421 104.5782315939734701 0 1 0 0 I I #
point $-1 154.2307809686574842 104.5782315939734701 0 #
point $-1 154.2307809686574842 0 0 #
straight-curve $-1 0 52.28911579698673506 37.90597853994761834 0 -1 0 I I #
point $-1 0 104.5782315939734701 37.90597853994761834 #
point $-1 0 0 37.90597853994761834 #
straight-curve $-1 154.2307809686574842 0 18.95298926997380917 0 0 -1 I I #
straight-curve $-1 154.2307809686574842 104.5782315939734701 18.95298926997380917 0 0 -1 I I #
plane-surface $-1 77.1153904843287421 52.28911579698673506 37.90597853994761834 0 0 1 1 0 0 forward_v I I I I #
coedge $-1 $188 $256 $245 $279 forward $181 $-1 #
coedge $-1 $184 $183 $244 $279 reversed $66 $-1 #
edge $-1 $252 -3.099794451634778625 $250 3.099794451634778625 $183 $280 forward 7 unknown #
coedge $-1 $196 $195 $184 $248 forward $197 $-1 #
edge $-1 $249 -3.099794451634778625 $281 3.099794451634778625 $184 $282 forward 7 unknown #
vertex $-1 $200 $283 #
vertex $-1 $190 $284 #
straight-curve $-1 31.7063896366780682 -14.93197322677690408 18.95298926997380917 0 0 -1 I I #
vertex $-1 $279 $285 #
straight-curve $-1 37.90597853994762545 -7.465986613388452042 0 0 -1 0 I I #
straight-curve $-1 31.7063896366780682 -7.465986613388452042 0 0 1 0 I I #
point $-1 37.90597853994762545 0 0 #
coedge $-1 $244 $193 $196 $258 reversed $181 $-1 #
straight-curve $-1 37.90597853994762545 0 18.95298926997380917 0 0 -1 I I #
edge $-1 $281 -7.465986613388452042 $198 7.465986613388452042 $256 $286 forward 7 unknown #
point $-1 37.90597853994762545 0 37.90597853994761834 #
straight-curve $-1 31.7063896366780682 -7.465986613388452042 37.90597853994761834 0 -1 0 I I #
coedge $-1 $212 $211 $204 $262 forward $130 $-1 #
edge $-1 $269 -52.28911579698673506 $264 -44.22368213236393331 $204 $287 forward 7 unknown #
edge $-1 $269 -18.95298926997380917 $209 -12.65158174900176746 $208 $288 forward 7 unknown #
vertex $-1 $206 $289 #
straight-curve $-1 0 50.20804110128018749 74.08322021921837575 0 -0.788010747574649173 0.6156614830463592591 I I #
edge $-1 $264 -43.48475373847060865 $213 -23.77651975324565825 $212 $290 forward 7 unknown #
point $-1 0 104.5782315939734701 31.60457101897557664 #
point $-1 19.7082339852249504 96.51279792935066837 37.90597853994762545 #
vertex $-1 $216 $291 #
straight-curve $-1 77.1153904843287421 104.5782315939734701 37.90597853994761834 -1 0 0 I I #
vertex $-1 $219 $292 #
point $-1 7.130923995778559288 96.94818744906609709 30.15090588043143427 #
vertex $-1 $223 $293 #
point $-1 15.57730998944639111 96.94818744906609709 30.15090588043143427 #
straight-curve $-1 0 104.5782315939734701 18.95298926997380917 0 0 -1 I I #
point $-1 0 0 0 #
straight-curve $-1 0 52.28911579698673506 0 0 1 0 I I #
point $-1 0 104.5782315939734701 0 #
edge $-1 $281 -18.95298926997380917 $252 18.95298926997380917 $244 $294 forward 7 unknown #
straight-curve $-1 34.80618408831284682 -14.93197322677690408 0 -1 0 0 I I #
vertex $-1 $258 $295 #
straight-curve $-1 34.80618408831284682 -14.93197322677690408 37.90597853994761834 1 0 0 I I #
point $-1 31.7063896366780682 -14.93197322677690408 37.90597853994761834 #
point $-1 31.7063896366780682 -14.93197322677690408 0 #
point $-1 37.90597853994762545 -14.93197322677690408 0 #
straight-curve $-1 37.90597853994762545 -7.465986613388452042 37.90597853994761834 0 1 0 I I #
straight-curve $-1 0 52.28911579698673506 37.90597853994761834 0 -1 0 I I #
straight-curve $-1 0 104.5782315939734701 18.95298926997380917 0 0 -1 I I #
point $-1 0 96.51279792935066837 37.90597853994762545 #
straight-curve $-1 43.48475373847060865 96.51279792935068258 37.90597853994761124 1 0 0 I I #
point $-1 0 104.5782315939734701 37.90597853994761834 #
point $-1 5.630923995778559288 96.02469522449655415 28.96888975906945873 #
point $-1 14.07730998944639111 96.02469522449655415 28.96888975906945873 #
straight-curve $-1 37.90597853994762545 -14.93197322677690408 18.95298926997380917 0 0 -1 I I #
point $-1 37.90597853994762545 -14.93197322677690408 37.90597853994761834 #
End-of-ACIS-data 