600 0 8 0           
96 GICL ACIS Healer - Source: /gicl/data5/repository/Drexel/SM99-DATA/part118.smdg.deltas.sat - 6 0 18 ACIS 6.0.3 Solaris 24 Sat Apr 13 20:44:45 2002 
1 9.999999999999999547e-07 1.000000000000000036e-10 
body $-1 $8 $-1 $-1 #
body $-1 $9 $-1 $-1 #
body $-1 $10 $-1 $-1 #
body $-1 $11 $-1 $-1 #
body $-1 $12 $-1 $-1 #
body $-1 $13 $-1 $-1 #
body $-1 $14 $-1 $-1 #
body $-1 $15 $-1 $-1 #
lump $-1 $-1 $16 $0 #
lump $-1 $-1 $17 $1 #
lump $-1 $-1 $18 $2 #
lump $-1 $-1 $19 $3 #
lump $-1 $-1 $20 $4 #
lump $-1 $-1 $21 $5 #
lump $-1 $-1 $22 $6 #
lump $-1 $-1 $23 $7 #
shell $-1 $-1 $-1 $24 $-1 $8 #
shell $-1 $-1 $-1 $25 $-1 $9 #
shell $-1 $-1 $-1 $26 $-1 $10 #
shell $-1 $-1 $-1 $27 $-1 $11 #
shell $-1 $-1 $-1 $28 $-1 $12 #
shell $-1 $-1 $-1 $29 $-1 $13 #
shell $-1 $-1 $-1 $30 $-1 $14 #
shell $-1 $-1 $-1 $31 $-1 $15 #
face $-1 $32 $33 $16 $-1 $34 forward single #
face $-1 $35 $36 $17 $-1 $37 forward single #
face $-1 $38 $39 $18 $-1 $40 reversed single #
face $-1 $41 $42 $19 $-1 $43 forward single #
face $-1 $44 $45 $20 $-1 $46 forward single #
face $-1 $47 $48 $21 $-1 $49 reversed single #
face $-1 $50 $51 $22 $-1 $52 forward single #
face $-1 $53 $54 $23 $-1 $55 forward single #
face $-1 $56 $57 $16 $-1 $58 reversed single #
loop $-1 $-1 $59 $24 #
plane-surface $-1 76.25476851710561732 43.35214028741579995 31.32250680405450893 0 0 1 1 0 0 forward_v I I I I #
face $-1 $60 $61 $17 $-1 $62 reversed single #
loop $-1 $-1 $63 $25 #
plane-surface $-1 0 43.35214028741579995 15.66125340202725447 1 0 0 0 0 -1 forward_v I I I I #
face $-1 $64 $65 $18 $-1 $66 reversed single #
loop $-1 $-1 $67 $26 #
plane-surface $-1 21.09153755429629484 87.87094085423090917 197.7687228949071709 1 0 0 0 -0.5000000066987363434 -0.8660253999169214012 forward_v I I I I #
face $-1 $68 $69 $19 $-1 $70 forward single #
loop $-1 $71 $72 $27 #
cone-surface $-1 25.23687766085318174 78.04585259943608833 25.3087270020552495 0 -0.5000000066987363434 -0.8660253999169214012 1 0 0 1 I I 0 1 1 forward I I I I #
face $-1 $73 $74 $20 $-1 $75 forward single #
loop $-1 $76 $77 $28 #
cone-surface $-1 31.45488782068850497 78.04585259943608833 25.3087270020552495 0 -0.5000000066987363434 -0.8660253999169214012 1 0 0 1 I I 0 1 1 forward I I I I #
face $-1 $78 $79 $21 $-1 $80 reversed single #
loop $-1 $-1 $81 $29 #
plane-surface $-1 134.9960852091020911 87.87094085423090917 197.7687228949071709 1 0 0 0 -0.5000000066987363434 -0.8660253999169214012 forward_v I I I I #
face $-1 $82 $83 $22 $-1 $84 forward single #
loop $-1 $85 $86 $30 #
cone-surface $-1 139.141425315658978 78.04585259943608833 25.3087270020552495 0 -0.5000000066987363434 -0.8660253999169214012 1 0 0 1 I I 0 1 1 forward I I I I #
face $-1 $87 $88 $23 $-1 $89 forward single #
loop $-1 $90 $91 $31 #
cone-surface $-1 145.3594354754943083 78.04585259943608833 25.3087270020552495 0 -0.5000000066987363434 -0.8660253999169214012 1 0 0 1 I I 0 1 1 forward I I I I #
face $-1 $92 $93 $16 $-1 $94 reversed single #
loop $-1 $-1 $95 $32 #
plane-surface $-1 76.25476851710561732 43.35214028741579995 0 0 0 1 1 0 0 forward_v I I I I #
coedge $-1 $96 $97 $98 $99 forward $33 $-1 #
face $-1 $100 $101 $17 $-1 $102 forward single #
loop $-1 $-1 $103 $35 #
plane-surface $-1 76.25476851710561732 86.70428057483159989 15.66125340202725447 0 -1 0 0 0 -1 forward_v I I I I #
coedge $-1 $104 $105 $106 $107 forward $36 $-1 #
face $-1 $108 $109 $18 $-1 $110 reversed single #
loop $-1 $-1 $111 $38 #
plane-surface $-1 28.3458827407708398 11.61617131550411841 65.69159009370986269 0 0.5000000066987363434 0.8660253999169214012 1 0 0 forward_v I I I I #
coedge $-1 $112 $113 $114 $115 reversed $39 $-1 #
face $-1 $-1 $116 $19 $-1 $117 forward single #
loop $-1 $118 $119 $41 #
cone-surface $-1 25.23687766085318174 76.91698054842228771 23.35346328938231864 0 -0.5000000066987363434 -0.8660253999169214012 0.5 0 0 1 I I -0.7071067811865474617 0.7071067811865474617 0.5 forward I I I I #
loop $-1 $-1 $120 $27 #
coedge $-1 $72 $72 $121 $122 reversed $42 $-1 #
face $-1 $-1 $123 $20 $-1 $124 forward single #
loop $-1 $125 $126 $44 #
cone-surface $-1 31.45488782068850497 76.91698054842228771 23.35346328938231864 0 -0.5000000066987363434 -0.8660253999169214012 0.5 0 0 1 I I -0.7071067811865474617 0.7071067811865474617 0.5 forward I I I I #
loop $-1 $-1 $127 $28 #
coedge $-1 $77 $77 $128 $129 reversed $45 $-1 #
face $-1 $130 $131 $21 $-1 $132 reversed single #
loop $-1 $-1 $133 $47 #
plane-surface $-1 142.2504303955766431 11.61617131550411841 65.69159009370986269 0 0.5000000066987363434 0.8660253999169214012 1 0 0 forward_v I I I I #
coedge $-1 $134 $135 $136 $137 reversed $48 $-1 #
face $-1 $-1 $138 $22 $-1 $139 forward single #
loop $-1 $140 $141 $50 #
cone-surface $-1 139.141425315658978 76.91698054842228771 23.35346328938231864 0 -0.5000000066987363434 -0.8660253999169214012 0.5 0 0 1 I I -0.7071067811865474617 0.7071067811865474617 0.5 forward I I I I #
loop $-1 $-1 $142 $30 #
coedge $-1 $86 $86 $143 $144 reversed $51 $-1 #
face $-1 $-1 $145 $23 $-1 $146 forward single #
loop $-1 $147 $148 $53 #
cone-surface $-1 145.3594354754943083 76.91698054842228771 23.35346328938231864 0 -0.5000000066987363434 -0.8660253999169214012 0.5 0 0 1 I I -0.7071067811865474617 0.7071067811865474617 0.5 forward I I I I #
loop $-1 $-1 $149 $31 #
coedge $-1 $91 $91 $150 $151 reversed $54 $-1 #
face $-1 $152 $153 $16 $-1 $154 reversed single #
loop $-1 $-1 $155 $56 #
plane-surface $-1 76.25476851710561732 0 15.66125340202725447 0 1 0 0 0 1 forward_v I I I I #
coedge $-1 $156 $157 $158 $159 forward $57 $-1 #
coedge $-1 $160 $59 $161 $162 forward $33 $-1 #
coedge $-1 $59 $160 $163 $164 forward $33 $-1 #
coedge $-1 $165 $166 $59 $99 reversed $167 $-1 #
edge $-1 $168 -43.35214028741579995 $169 43.35214028741579995 $98 $170 forward 7 unknown #
face $-1 $171 $172 $17 $-1 $173 reversed single #
loop $-1 $-1 $106 $60 #
plane-surface $-1 -9.043388051068134814 43.35214028741579995 3.629709481663727644 0 0 1 1 0 0 forward_v I I I I #
coedge $-1 $174 $175 $105 $176 forward $61 $-1 #
coedge $-1 $177 $63 $178 $179 reversed $36 $-1 #
coedge $-1 $63 $177 $103 $176 reversed $36 $-1 #
coedge $-1 $180 $181 $63 $107 reversed $101 $-1 #
edge $-1 $182 -43.35214028741579995 $183 43.35214028741579995 $106 $184 forward 7 unknown #
face $-1 $185 $186 $18 $-1 $187 forward single #
loop $-1 $-1 $188 $64 #
plane-surface $-1 35.60022792724538476 87.87094085423090917 197.7687228949071709 -1 0 0 0 0.5000000066987363434 0.8660253999169214012 forward_v I I I I #
coedge $-1 $189 $190 $191 $192 reversed $65 $-1 #
coedge $-1 $113 $67 $193 $194 reversed $39 $-1 #
coedge $-1 $67 $112 $189 $195 reversed $39 $-1 #
coedge $-1 $191 $196 $67 $115 forward $186 $-1 #
edge $-1 $197 -21.09274000400824889 $198 -5.533628148546156922 $114 $199 forward 7 unknown #
loop $-1 $-1 $121 $68 #
plane-surface $-1 28.3458827407708398 11.61617131550411841 65.69159009370986269 0 0.5000000066987363434 0.8660253999169214012 1 0 0 forward_v I I I I #
loop $-1 $-1 $200 $41 #
coedge $-1 $119 $119 $120 $201 reversed $69 $-1 #
coedge $-1 $120 $120 $119 $201 forward $71 $-1 #
coedge $-1 $121 $121 $72 $122 forward $116 $-1 #
edge $-1 $202 1.903893767697458957e-15 $202 6.283185307179588008 $121 $203 forward 7 unknown #
loop $-1 $-1 $128 $73 #
plane-surface $-1 28.3458827407708398 11.61617131550411841 65.69159009370986269 0 0.5000000066987363434 0.8660253999169214012 1 0 0 forward_v I I I I #
loop $-1 $-1 $204 $44 #
coedge $-1 $126 $126 $127 $205 reversed $74 $-1 #
coedge $-1 $127 $127 $126 $205 forward $76 $-1 #
coedge $-1 $128 $128 $77 $129 forward $123 $-1 #
edge $-1 $206 1.903893767697458957e-15 $206 6.283185307179588008 $128 $207 forward 7 unknown #
face $-1 $208 $209 $21 $-1 $210 forward single #
loop $-1 $-1 $211 $78 #
plane-surface $-1 149.5047755820511952 87.87094085423090917 197.7687228949071709 -1 0 0 0 0.5000000066987363434 0.8660253999169214012 forward_v I I I I #
coedge $-1 $212 $213 $214 $215 reversed $79 $-1 #
coedge $-1 $135 $81 $216 $217 reversed $48 $-1 #
coedge $-1 $81 $134 $212 $218 reversed $48 $-1 #
coedge $-1 $214 $219 $81 $137 forward $209 $-1 #
edge $-1 $220 -21.09274000400824889 $221 -5.533628148546156922 $136 $222 forward 7 unknown #
loop $-1 $-1 $143 $82 #
plane-surface $-1 142.2504303955766431 11.61617131550411841 65.69159009370986269 0 0.5000000066987363434 0.8660253999169214012 1 0 0 forward_v I I I I #
loop $-1 $-1 $223 $50 #
coedge $-1 $141 $141 $142 $224 reversed $83 $-1 #
coedge $-1 $142 $142 $141 $224 forward $85 $-1 #
coedge $-1 $143 $143 $86 $144 forward $138 $-1 #
edge $-1 $225 1.903893767697458957e-15 $225 6.283185307179588008 $143 $226 forward 7 unknown #
loop $-1 $-1 $150 $87 #
plane-surface $-1 142.2504303955766431 11.61617131550411841 65.69159009370986269 0 0.5000000066987363434 0.8660253999169214012 1 0 0 forward_v I I I I #
loop $-1 $-1 $227 $53 #
coedge $-1 $148 $148 $149 $228 reversed $88 $-1 #
coedge $-1 $149 $149 $148 $228 forward $90 $-1 #
coedge $-1 $150 $150 $91 $151 forward $145 $-1 #
edge $-1 $229 1.903893767697458957e-15 $229 6.283185307179588008 $150 $230 forward 7 unknown #
face $-1 $231 $232 $16 $-1 $233 reversed single #
loop $-1 $-1 $234 $92 #
plane-surface $-1 0 43.35214028741579995 15.66125340202725447 1 0 0 0 0 -1 forward_v I I I I #
coedge $-1 $235 $163 $234 $236 forward $93 $-1 #
coedge $-1 $237 $95 $235 $238 forward $57 $-1 #
coedge $-1 $95 $237 $239 $240 forward $57 $-1 #
coedge $-1 $166 $165 $95 $159 reversed $167 $-1 #
edge $-1 $241 -43.35214028741579995 $242 43.35214028741579995 $158 $243 forward 7 unknown #
coedge $-1 $97 $96 $244 $245 forward $33 $-1 #
coedge $-1 $246 $247 $96 $162 reversed $232 $-1 #
edge $-1 $169 -76.25476851710561732 $248 76.25476851710561732 $161 $249 forward 7 unknown #
coedge $-1 $155 $250 $97 $164 reversed $93 $-1 #
edge $-1 $251 -76.25476851710561732 $168 76.25476851710561732 $163 $252 forward 7 unknown #
coedge $-1 $158 $98 $250 $253 forward $167 $-1 #
coedge $-1 $98 $158 $246 $254 reversed $167 $-1 #
loop $-1 $-1 $165 $231 #
vertex $-1 $99 $255 #
vertex $-1 $99 $256 #
straight-curve $-1 152.5095370342112346 43.35214028741579995 31.32250680405450893 0 1 0 I I #
face $-1 $257 $258 $17 $-1 $259 reversed single #
loop $-1 $-1 $260 $100 #
plane-surface $-1 -18.08677610213626963 43.35214028741579995 1.814854740831863822 1 0 0 0 0 -1 forward_v I I I I #
coedge $-1 $261 $103 $262 $263 reversed $61 $-1 #
coedge $-1 $103 $261 $180 $264 reversed $61 $-1 #
edge $-1 $182 12.03154392036352682 $265 15.66125340202725447 $103 $266 forward 7 unknown #
coedge $-1 $105 $104 $267 $268 reversed $36 $-1 #
coedge $-1 $269 $270 $104 $179 forward $271 $-1 #
edge $-1 $272 -15.66125340202725447 $183 -12.03154392036352682 $178 $273 forward 7 unknown #
coedge $-1 $274 $106 $175 $264 forward $101 $-1 #
coedge $-1 $106 $274 $269 $275 forward $101 $-1 #
vertex $-1 $176 $276 #
vertex $-1 $275 $277 #
straight-curve $-1 0 43.35214028741579995 3.629709481663727644 0 -1 0 I I #
face $-1 $-1 $278 $18 $-1 $279 reversed single #
loop $-1 $-1 $114 $108 #
plane-surface $-1 76.25476851710561732 43.35214028741579995 31.32250680405450893 0 0 1 1 0 0 forward_v I I I I #
coedge $-1 $280 $281 $282 $283 reversed $109 $-1 #
coedge $-1 $284 $111 $113 $195 forward $65 $-1 #
coedge $-1 $111 $284 $280 $285 forward $65 $-1 #
coedge $-1 $282 $114 $111 $192 forward $186 $-1 #
edge $-1 $198 -31.20878807464193017 $286 -16.70009770169284025 $191 $287 forward 7 unknown #
coedge $-1 $288 $289 $112 $194 forward $278 $-1 #
edge $-1 $290 -84.37553892298225833 $197 -75.39248134441270111 $193 $291 forward 7 unknown #
edge $-1 $198 68.73816565839300097 $290 86.70428057483158568 $113 $292 forward 7 unknown #
coedge $-1 $114 $282 $288 $293 forward $186 $-1 #
vertex $-1 $194 $294 #
vertex $-1 $115 $295 #
straight-curve $-1 21.09153755429629484 65.611540570823351 31.32250680405451249 0 -1 0 I I #
coedge $-1 $200 $200 $-1 $296 reversed $118 $-1 #
edge $-1 $297 0 $297 6.283185307179586232 $119 $298 forward 7 unknown #
vertex $-1 $122 $299 #
ellipse-curve $-1 25.23687766085318174 78.92472464710053259 26.83097801476974809 0 0.5000000066987363434 0.8660253999169214012 1 0 0 1 I I #
coedge $-1 $204 $204 $-1 $300 reversed $125 $-1 #
edge $-1 $301 0 $301 6.283185307179586232 $126 $302 forward 7 unknown #
vertex $-1 $129 $303 #
ellipse-curve $-1 31.45488782068850497 78.92472464710053259 26.83097801476974809 0 0.5000000066987363434 0.8660253999169214012 1 0 0 1 I I #
face $-1 $-1 $304 $21 $-1 $305 reversed single #
loop $-1 $-1 $136 $130 #
plane-surface $-1 76.25476851710561732 43.35214028741579995 31.32250680405450893 0 0 1 1 0 0 forward_v I I I I #
coedge $-1 $306 $307 $308 $309 reversed $131 $-1 #
coedge $-1 $310 $133 $135 $218 forward $79 $-1 #
coedge $-1 $133 $310 $306 $311 forward $79 $-1 #
coedge $-1 $308 $136 $133 $215 forward $209 $-1 #
edge $-1 $221 25.74348575276096085 $312 40.25217612571006498 $214 $313 forward 7 unknown #
coedge $-1 $314 $315 $134 $217 forward $304 $-1 #
edge $-1 $316 -84.37553892298225833 $220 -75.39248134441270111 $216 $317 forward 7 unknown #
edge $-1 $221 68.73816565839300097 $316 86.70428057483158568 $135 $318 forward 7 unknown #
coedge $-1 $136 $308 $314 $319 forward $209 $-1 #
vertex $-1 $137 $320 #
vertex $-1 $137 $321 #
straight-curve $-1 134.9960852091020911 65.611540570823351 31.32250680405451249 0 -1 0 I I #
coedge $-1 $223 $223 $-1 $322 reversed $140 $-1 #
edge $-1 $323 0 $323 6.283185307179586232 $141 $324 forward 7 unknown #
vertex $-1 $144 $325 #
ellipse-curve $-1 139.141425315658978 78.92472464710053259 26.83097801476974809 0 0.5000000066987363434 0.8660253999169214012 1 0 0 1 I I #
coedge $-1 $227 $227 $-1 $326 reversed $147 $-1 #
edge $-1 $327 0 $327 6.283185307179586232 $148 $328 forward 7 unknown #
vertex $-1 $151 $329 #
ellipse-curve $-1 145.3594354754943083 78.92472464710053259 26.83097801476974809 0 0.5000000066987363434 0.8660253999169214012 1 0 0 1 I I #
face $-1 $-1 $167 $16 $-1 $330 reversed single #
loop $-1 $-1 $246 $152 #
plane-surface $-1 76.25476851710561732 86.70428057483159989 15.66125340202725447 0 -1 0 0 0 -1 forward_v I I I I #
coedge $-1 $244 $331 $155 $236 reversed $153 $-1 #
coedge $-1 $250 $155 $156 $238 reversed $93 $-1 #
edge $-1 $251 -15.66125340202725447 $332 15.66125340202725447 $234 $333 forward 7 unknown #
coedge $-1 $157 $156 $331 $334 forward $57 $-1 #
edge $-1 $242 -76.25476851710561732 $332 76.25476851710561732 $235 $335 forward 7 unknown #
coedge $-1 $247 $246 $157 $240 reversed $232 $-1 #
edge $-1 $336 -76.25476851710561732 $241 76.25476851710561732 $239 $337 forward 7 unknown #
vertex $-1 $159 $338 #
vertex $-1 $253 $339 #
straight-curve $-1 152.5095370342112346 43.35214028741579995 0 0 -1 0 I I #
coedge $-1 $340 $234 $160 $245 reversed $153 $-1 #
edge $-1 $248 -43.35214028741579995 $251 43.35214028741579995 $244 $341 forward 7 unknown #
coedge $-1 $239 $161 $166 $254 forward $232 $-1 #
coedge $-1 $161 $239 $340 $342 reversed $232 $-1 #
vertex $-1 $162 $343 #
straight-curve $-1 76.25476851710561732 86.70428057483159989 31.32250680405450893 -1 0 0 I I #
coedge $-1 $163 $235 $165 $253 reversed $93 $-1 #
vertex $-1 $245 $344 #
straight-curve $-1 76.25476851710561732 0 31.32250680405450893 1 0 0 I I #
edge $-1 $168 -15.66125340202725447 $242 15.66125340202725447 $165 $345 forward 7 unknown #
edge $-1 $169 -15.66125340202725447 $241 15.66125340202725447 $166 $346 forward 7 unknown #
point $-1 152.5095370342112346 0 31.32250680405450893 #
point $-1 152.5095370342112346 86.70428057483159989 31.32250680405450893 #
face $-1 $-1 $271 $17 $-1 $347 reversed single #
loop $-1 $-1 $267 $171 #
plane-surface $-1 76.25476851710561732 43.35214028741579995 0 0 0 1 1 0 0 forward_v I I I I #
coedge $-1 $348 $349 $261 $350 forward $172 $-1 #
coedge $-1 $175 $174 $260 $350 reversed $61 $-1 #
coedge $-1 $267 $351 $174 $263 forward $258 $-1 #
edge $-1 $352 -94.34154461924188695 $265 -76.25476851710561732 $174 $353 forward 7 unknown #
edge $-1 $182 -9.043388051068134814 $354 9.043388051068134814 $175 $355 forward 7 unknown #
vertex $-1 $176 $356 #
straight-curve $-1 0 86.70428057483159989 15.66125340202725447 0 0 -1 I I #
coedge $-1 $357 $262 $177 $268 forward $258 $-1 #
edge $-1 $265 -43.35214028741579995 $272 43.35214028741579995 $267 $358 forward 7 unknown #
coedge $-1 $359 $178 $181 $275 reversed $271 $-1 #
coedge $-1 $178 $359 $357 $360 reversed $271 $-1 #
loop $-1 $-1 $178 $257 #
vertex $-1 $360 $361 #
straight-curve $-1 0 0 15.66125340202725447 0 0 1 I I #
coedge $-1 $181 $180 $349 $362 forward $101 $-1 #
edge $-1 $363 -9.043388051068134814 $183 9.043388051068134814 $269 $364 forward 7 unknown #
point $-1 0 86.70428057483159989 3.629709481663727644 #
point $-1 0 0 3.629709481663727644 #
loop $-1 $-1 $193 $185 #
plane-surface $-1 76.25476851710561732 86.70428057483159989 15.66125340202725447 0 -1 0 0 0 -1 forward_v I I I I #
coedge $-1 $281 $188 $190 $285 reversed $109 $-1 #
coedge $-1 $188 $280 $365 $366 reversed $109 $-1 #
coedge $-1 $196 $191 $188 $283 forward $186 $-1 #
edge $-1 $286 5.533628148546156922 $367 21.09274000400824889 $282 $368 forward 7 unknown #
coedge $-1 $190 $189 $289 $369 reversed $65 $-1 #
edge $-1 $370 -86.70428057483158568 $286 -68.73816565839300097 $280 $371 forward 7 unknown #
vertex $-1 $192 $372 #
straight-curve $-1 52.30032562893822501 71.14516871936950793 31.32250680405451249 1 0 0 I I #
coedge $-1 $365 $193 $196 $293 reversed $278 $-1 #
coedge $-1 $193 $365 $284 $369 forward $278 $-1 #
vertex $-1 $194 $373 #
straight-curve $-1 21.09153755429629484 86.70428057483159989 106.7149881484672136 0 0 1 I I #
straight-curve $-1 21.09153755429629484 11.61617131550411841 65.69159009370986269 0 0.8660253999169214012 -0.5000000066987363434 I I #
edge $-1 $367 40.65454058986023256 $197 55.16323096280932248 $288 $374 forward 7 unknown #
point $-1 21.09153755429629484 86.70428057483159989 31.32250680405450893 #
point $-1 21.09153755429629484 71.14516871936950793 31.32250680405451249 #
edge $-1 $375 1 $375 0 $200 $-1 forward 7 unknown #
vertex $-1 $201 $376 #
ellipse-curve $-1 25.23687766085318174 77.16698055177165827 23.78647598934077934 0 0.5000000066987363434 0.8660253999169214012 1 0 0 1 I I #
point $-1 26.23687766085318174 78.92472464710051838 26.83097801476971966 #
edge $-1 $377 1 $377 0 $204 $-1 forward 7 unknown #
vertex $-1 $205 $378 #
ellipse-curve $-1 31.45488782068850497 77.16698055177165827 23.78647598934077934 0 0.5000000066987363434 0.8660253999169214012 1 0 0 1 I I #
point $-1 32.45488782068850497 78.92472464710051838 26.83097801476971966 #
loop $-1 $-1 $216 $208 #
plane-surface $-1 76.25476851710561732 86.70428057483159989 15.66125340202725447 0 -1 0 0 0 -1 forward_v I I I I #
coedge $-1 $307 $211 $213 $311 reversed $131 $-1 #
coedge $-1 $211 $306 $379 $380 reversed $131 $-1 #
coedge $-1 $219 $214 $211 $309 forward $209 $-1 #
edge $-1 $312 5.533628148546156922 $381 21.09274000400824889 $308 $382 forward 7 unknown #
coedge $-1 $213 $212 $315 $383 reversed $79 $-1 #
edge $-1 $384 -86.70428057483158568 $312 -68.73816565839300097 $306 $385 forward 7 unknown #
vertex $-1 $215 $386 #
straight-curve $-1 109.2525994563411302 71.14516871936950793 31.32250680405451249 1 0 0 I I #
coedge $-1 $379 $216 $219 $319 reversed $304 $-1 #
coedge $-1 $216 $379 $310 $383 forward $304 $-1 #
vertex $-1 $217 $387 #
straight-curve $-1 134.9960852091020911 86.70428057483159989 106.7149881484672136 0 0 1 I I #
straight-curve $-1 134.9960852091020911 11.61617131550411841 65.69159009370986269 0 0.8660253999169214012 -0.5000000066987363434 I I #
edge $-1 $381 -73.25000706494557789 $220 -58.74131669199647376 $314 $388 forward 7 unknown #
point $-1 134.9960852091020911 86.70428057483159989 31.32250680405450893 #
point $-1 134.9960852091020911 71.14516871936950793 31.32250680405451249 #
edge $-1 $389 1 $389 0 $223 $-1 forward 7 unknown #
vertex $-1 $224 $390 #
ellipse-curve $-1 139.141425315658978 77.16698055177165827 23.78647598934077934 0 0.5000000066987363434 0.8660253999169214012 1 0 0 1 I I #
point $-1 140.141425315658978 78.92472464710051838 26.83097801476971966 #
edge $-1 $391 1 $391 0 $227 $-1 forward 7 unknown #
vertex $-1 $228 $392 #
ellipse-curve $-1 145.3594354754943083 77.16698055177165827 23.78647598934077934 0 0.5000000066987363434 0.8660253999169214012 1 0 0 1 I I #
point $-1 146.3594354754943083 78.92472464710051838 26.83097801476971966 #
plane-surface $-1 152.5095370342112346 43.35214028741579995 15.66125340202725447 -1 0 0 0 0 1 forward_v I I I I #
coedge $-1 $234 $340 $237 $334 reversed $153 $-1 #
vertex $-1 $334 $393 #
straight-curve $-1 0 0 15.66125340202725447 0 0 -1 I I #
edge $-1 $332 -43.35214028741579995 $336 43.35214028741579995 $331 $394 forward 7 unknown #
straight-curve $-1 76.25476851710561732 0 0 -1 0 0 I I #
vertex $-1 $240 $395 #
straight-curve $-1 76.25476851710561732 86.70428057483159989 0 1 0 0 I I #
point $-1 152.5095370342112346 86.70428057483159989 0 #
point $-1 152.5095370342112346 0 0 #
coedge $-1 $331 $244 $247 $342 forward $153 $-1 #
straight-curve $-1 0 43.35214028741579995 31.32250680405450893 0 -1 0 I I #
edge $-1 $248 -15.66125340202725447 $336 15.66125340202725447 $247 $396 forward 7 unknown #
point $-1 0 86.70428057483159989 31.32250680405450893 #
point $-1 0 0 31.32250680405450893 #
straight-curve $-1 152.5095370342112346 0 15.66125340202725447 0 0 -1 I I #
straight-curve $-1 152.5095370342112346 86.70428057483159989 15.66125340202725447 0 0 -1 I I #
plane-surface $-1 76.25476851710561732 0 15.66125340202725447 0 1 0 0 0 1 forward_v I I I I #
coedge $-1 $397 $260 $351 $398 reversed $172 $-1 #
coedge $-1 $260 $397 $274 $362 reversed $172 $-1 #
edge $-1 $354 -1.814854740831863822 $352 1.814854740831863822 $261 $399 forward 7 unknown #
coedge $-1 $262 $357 $348 $398 forward $258 $-1 #
vertex $-1 $263 $400 #
straight-curve $-1 76.25476851710561732 86.70428057483159989 0 1 0 0 I I #
vertex $-1 $264 $401 #
straight-curve $-1 -9.043388051068134814 86.70428057483159989 3.629709481663727644 -1 0 0 I I #
point $-1 0 86.70428057483159989 0 #
coedge $-1 $351 $267 $270 $360 forward $258 $-1 #
straight-curve $-1 0 43.35214028741579995 0 0 -1 0 I I #
coedge $-1 $270 $269 $397 $402 forward $271 $-1 #
edge $-1 $272 -9.043388051068134814 $403 9.043388051068134814 $270 $404 forward 7 unknown #
point $-1 0 0 0 #
edge $-1 $354 -43.35214028741579995 $363 43.35214028741579995 $349 $405 forward 7 unknown #
vertex $-1 $362 $406 #
straight-curve $-1 -9.043388051068134814 0 3.629709481663727644 1 0 0 I I #
coedge $-1 $289 $288 $281 $366 forward $278 $-1 #
edge $-1 $367 75.39248134441270111 $370 84.37553892298225833 $365 $407 forward 7 unknown #
vertex $-1 $293 $408 #
straight-curve $-1 35.60022792724538476 65.611540570823351 31.32250680405451249 0 1 0 I I #
edge $-1 $370 16.70009770169284025 $290 31.20878807464193017 $289 $409 forward 7 unknown #
vertex $-1 $369 $410 #
straight-curve $-1 35.60022792724538476 11.61617131550411841 65.69159009370986269 0 -0.8660253999169214012 0.5000000066987363434 I I #
point $-1 35.60022792724538476 71.14516871936950793 31.32250680405451249 #
point $-1 21.09153755429629484 86.70428057483159989 22.33944922548495526 #
straight-curve $-1 76.25476851710561732 86.70428057483159989 31.32250680405450893 -1 0 0 I I #
vertex $-1 $296 $411 #
point $-1 26.23687766085318174 77.16698055177165827 23.78647598934077934 #
vertex $-1 $300 $412 #
point $-1 32.45488782068850497 77.16698055177165827 23.78647598934077934 #
coedge $-1 $315 $314 $307 $380 forward $304 $-1 #
edge $-1 $381 75.39248134441270111 $384 84.37553892298225833 $379 $413 forward 7 unknown #
vertex $-1 $319 $414 #
straight-curve $-1 149.5047755820511952 65.611540570823351 31.32250680405451249 0 1 0 I I #
edge $-1 $384 -40.25217612571006498 $316 -25.74348575276096085 $315 $415 forward 7 unknown #
vertex $-1 $383 $416 #
straight-curve $-1 149.5047755820511952 11.61617131550411841 65.69159009370986269 0 -0.8660253999169214012 0.5000000066987363434 I I #
point $-1 149.5047755820511952 71.14516871936950793 31.32250680405451249 #
point $-1 134.9960852091020911 86.70428057483159989 22.33944922548495526 #
straight-curve $-1 76.25476851710561732 86.70428057483159989 31.32250680405450893 -1 0 0 I I #
vertex $-1 $322 $417 #
point $-1 140.141425315658978 77.16698055177165827 23.78647598934077934 #
vertex $-1 $326 $418 #
point $-1 146.3594354754943083 77.16698055177165827 23.78647598934077934 #
point $-1 0 0 0 #
straight-curve $-1 0 43.35214028741579995 0 0 1 0 I I #
point $-1 0 86.70428057483159989 0 #
straight-curve $-1 0 86.70428057483159989 15.66125340202725447 0 0 -1 I I #
coedge $-1 $349 $348 $359 $402 reversed $172 $-1 #
edge $-1 $403 -43.35214028741579995 $352 43.35214028741579995 $348 $419 forward 7 unknown #
straight-curve $-1 -18.08677610213626963 86.70428057483159989 1.814854740831863822 0 0 -1 I I #
point $-1 -18.08677610213626963 86.70428057483159989 0 #
point $-1 -18.08677610213626963 86.70428057483159989 3.629709481663727644 #
edge $-1 $363 -1.814854740831863822 $403 1.814854740831863822 $397 $420 forward 7 unknown #
vertex $-1 $398 $421 #
straight-curve $-1 -9.043388051068134814 0 0 -1 0 0 I I #
straight-curve $-1 -18.08677610213626963 43.35214028741579995 3.629709481663727644 0 -1 0 I I #
point $-1 -18.08677610213626963 0 3.629709481663727644 #
straight-curve $-1 35.60022792724538476 86.70428057483159989 106.7149881484672136 0 0 -1 I I #
point $-1 35.60022792724538476 86.70428057483159989 31.32250680405450893 #
straight-curve $-1 52.30032562893822501 86.70428057483158568 22.33944922548495526 -1 0 0 I I #
point $-1 35.60022792724538476 86.70428057483159989 22.33944922548495526 #
point $-1 25.23687766085318174 76.66698054507291715 22.92045058942385793 #
point $-1 31.45488782068850497 76.66698054507291715 22.92045058942385793 #
straight-curve $-1 149.5047755820511952 86.70428057483159989 106.7149881484672136 0 0 -1 I I #
point $-1 149.5047755820511952 86.70428057483159989 31.32250680405450893 #
straight-curve $-1 109.2525994563411302 86.70428057483158568 22.33944922548495526 -1 0 0 I I #
point $-1 149.5047755820511952 86.70428057483159989 22.33944922548495526 #
point $-1 139.141425315658978 76.66698054507291715 22.92045058942385793 #
point $-1 145.3594354754943083 76.66698054507291715 22.92045058942385793 #
straight-curve $-1 -18.08677610213626963 43.35214028741579995 0 0 1 0 I I #
straight-curve $-1 -18.08677610213626963 0 1.814854740831863822 0 0 -1 I I #
point $-1 -18.08677610213626963 0 0 #
End-of-ACIS-data 