300 0 8 0           
7 Unknown 11 ACIS 3.0 NT 24 Fri Oct 30 19:04:58 1998 
-1 9.9999999999999995e-007 1e-010 
body $8 $9 $-1 $10 #
body $11 $12 $-1 $13 #
body $14 $15 $-1 $16 #
body $17 $18 $-1 $19 #
body $20 $21 $-1 $22 #
body $23 $24 $-1 $25 #
body $26 $27 $-1 $28 #
body $29 $30 $-1 $31 #
display_attribute-st-attrib $-1 $32 $-1 $0 2 #
lump $-1 $-1 $33 $0 #
transform $-1 1 0 0 0 1 0 0 0 1 76.254768517105617 43.3521402874158 15.661253402027254 1 rotate no_reflect no_shear #
display_attribute-st-attrib $-1 $34 $-1 $1 1 #
lump $-1 $-1 $35 $1 #
transform $-1 1 0 0 0 1 0 0 0 1 76.254768517105617 43.3521402874158 15.661253402027254 1 rotate no_reflect no_shear #
display_attribute-st-attrib $-1 $36 $-1 $2 6 #
lump $-1 $-1 $37 $2 #
transform $-1 1 0 0 0 1 0 0 0 1 76.254768517105617 43.3521402874158 15.661253402027254 1 rotate no_reflect no_shear #
display_attribute-st-attrib $-1 $38 $-1 $3 5 #
lump $-1 $-1 $39 $3 #
transform $-1 1 0 0 0 1 0 0 0 1 76.254768517105617 43.3521402874158 15.661253402027254 1 rotate no_reflect no_shear #
display_attribute-st-attrib $-1 $40 $-1 $4 4 #
lump $-1 $-1 $41 $4 #
transform $-1 1 0 0 0 1 0 0 0 1 76.254768517105617 43.3521402874158 15.661253402027254 1 rotate no_reflect no_shear #
display_attribute-st-attrib $-1 $42 $-1 $5 3 #
lump $-1 $-1 $43 $5 #
transform $-1 1 0 0 0 1 0 0 0 1 76.254768517105617 43.3521402874158 15.661253402027254 1 rotate no_reflect no_shear #
display_attribute-st-attrib $-1 $44 $-1 $6 2 #
lump $-1 $-1 $45 $6 #
transform $-1 1 0 0 0 1 0 0 0 1 76.254768517105617 43.3521402874158 15.661253402027254 1 rotate no_reflect no_shear #
display_attribute-st-attrib $-1 $46 $-1 $7 1 #
lump $-1 $-1 $47 $7 #
transform $-1 1 0 0 0 1 0 0 0 1 76.254768517105617 43.3521402874158 15.661253402027254 1 rotate no_reflect no_shear #
id_attribute-st-attrib $-1 $-1 $8 $0 3212 #
shell $-1 $-1 $-1 $48 $-1 $9 #
id_attribute-st-attrib $-1 $-1 $11 $1 3220 #
shell $-1 $-1 $-1 $49 $-1 $12 #
id_attribute-st-attrib $-1 $-1 $14 $2 3236 #
shell $-1 $-1 $-1 $50 $-1 $15 #
id_attribute-st-attrib $-1 $-1 $17 $3 3243 #
shell $-1 $-1 $-1 $51 $-1 $18 #
id_attribute-st-attrib $-1 $-1 $20 $4 3251 #
shell $-1 $-1 $-1 $52 $-1 $21 #
id_attribute-st-attrib $-1 $-1 $23 $5 3260 #
shell $-1 $-1 $-1 $53 $-1 $24 #
id_attribute-st-attrib $-1 $-1 $26 $6 3270 #
shell $-1 $-1 $-1 $54 $-1 $27 #
id_attribute-st-attrib $-1 $-1 $29 $7 3281 #
shell $-1 $-1 $-1 $55 $-1 $30 #
face $-1 $56 $57 $33 $-1 $58 forward single #
face $-1 $59 $60 $35 $-1 $61 forward single #
face $-1 $62 $63 $37 $-1 $64 reversed single #
face $-1 $65 $66 $39 $-1 $67 forward single #
face $-1 $68 $69 $41 $-1 $70 forward single #
face $-1 $71 $72 $43 $-1 $73 reversed single #
face $-1 $74 $75 $45 $-1 $76 forward single #
face $-1 $77 $78 $47 $-1 $79 forward single #
face $-1 $80 $81 $33 $-1 $82 reversed single #
loop $-1 $-1 $83 $48 #
plane-surface $-1 0 0 15.661253402027254 0 0 1 1 0 0 forward_v I I I I #
face $-1 $84 $85 $35 $-1 $86 reversed single #
loop $-1 $-1 $87 $49 #
plane-surface $-1 -76.254768517105617 0 0 1 0 0 0 0 -1 forward_v I I I I #
face $-1 $88 $89 $37 $-1 $90 reversed single #
loop $-1 $-1 $91 $50 #
plane-surface $-1 -55.163230962809322 44.518800566815109 182.10746949287991 1 0 0 0 -0.50000000669873634 -0.8660253999169214 forward_v I I I I #
face $-1 $92 $93 $39 $-1 $94 forward single #
loop $-1 $95 $96 $51 #
cone-surface $-1 -51.017890856252436 34.693712312020288 9.6474736000279933 0 -0.50000000669873634 -0.8660253999169214 1 0 0 1 I I 0 1 forward I I I I #
face $-1 $97 $98 $41 $-1 $99 forward single #
loop $-1 $100 $101 $52 #
cone-surface $-1 -44.799880696417112 34.693712312020288 9.6474736000279933 0 -0.50000000669873634 -0.8660253999169214 1 0 0 1 I I 0 1 forward I I I I #
face $-1 $102 $103 $43 $-1 $104 reversed single #
loop $-1 $-1 $105 $53 #
plane-surface $-1 58.741316691996481 44.518800566815109 182.10746949287991 1 0 0 0 -0.50000000669873634 -0.8660253999169214 forward_v I I I I #
face $-1 $106 $107 $45 $-1 $108 forward single #
loop $-1 $109 $110 $54 #
cone-surface $-1 62.886656798553361 34.693712312020288 9.6474736000279933 0 -0.50000000669873634 -0.8660253999169214 1 0 0 1 I I 0 1 forward I I I I #
face $-1 $111 $112 $47 $-1 $113 forward single #
loop $-1 $114 $115 $55 #
cone-surface $-1 69.104666958388691 34.693712312020288 9.6474736000279933 0 -0.50000000669873634 -0.8660253999169214 1 0 0 1 I I 0 1 forward I I I I #
face $-1 $116 $117 $33 $-1 $118 reversed single #
loop $-1 $-1 $119 $56 #
plane-surface $-1 0 0 -15.661253402027254 0 0 1 1 0 0 forward_v I I I I #
coedge $-1 $120 $121 $122 $123 forward $57 $-1 #
face $-1 $124 $125 $35 $-1 $126 forward single #
loop $-1 $-1 $127 $59 #
plane-surface $-1 0 43.3521402874158 0 0 -1 0 0 0 -1 forward_v I I I I #
coedge $-1 $128 $129 $130 $131 forward $60 $-1 #
face $-1 $132 $133 $37 $-1 $134 reversed single #
loop $-1 $-1 $135 $62 #
plane-surface $-1 -47.908885776334778 -31.735968971911682 50.030336691682606 0 0.50000000669873634 0.8660253999169214 1 0 0 forward_v I I I I #
coedge $-1 $136 $137 $138 $139 reversed $63 $-1 #
face $-1 $-1 $140 $39 $-1 $141 forward single #
loop $-1 $142 $143 $65 #
cone-surface $-1 -51.017890856252436 33.564840261006488 7.6922098873550642 0 -0.50000000669873634 -0.8660253999169214 0.5 0 0 1 I I -0.70710678118654746 0.70710678118654746 forward I I I I #
loop $-1 $-1 $144 $51 #
coedge $-1 $96 $96 $145 $146 reversed $66 $-1 #
face $-1 $-1 $147 $41 $-1 $148 forward single #
loop $-1 $149 $150 $68 #
cone-surface $-1 -44.799880696417112 33.564840261006488 7.6922098873550642 0 -0.50000000669873634 -0.8660253999169214 0.5 0 0 1 I I -0.70710678118654746 0.70710678118654746 forward I I I I #
loop $-1 $-1 $151 $52 #
coedge $-1 $101 $101 $152 $153 reversed $69 $-1 #
face $-1 $154 $155 $43 $-1 $156 reversed single #
loop $-1 $-1 $157 $71 #
plane-surface $-1 65.995661878471026 -31.735968971911682 50.030336691682606 0 0.50000000669873634 0.8660253999169214 1 0 0 forward_v I I I I #
coedge $-1 $158 $159 $160 $161 reversed $72 $-1 #
face $-1 $-1 $162 $45 $-1 $163 forward single #
loop $-1 $164 $165 $74 #
cone-surface $-1 62.886656798553361 33.564840261006488 7.6922098873550642 0 -0.50000000669873634 -0.8660253999169214 0.5 0 0 1 I I -0.70710678118654746 0.70710678118654746 forward I I I I #
loop $-1 $-1 $166 $54 #
coedge $-1 $110 $110 $167 $168 reversed $75 $-1 #
face $-1 $-1 $169 $47 $-1 $170 forward single #
loop $-1 $171 $172 $77 #
cone-surface $-1 69.104666958388691 33.564840261006488 7.6922098873550642 0 -0.50000000669873634 -0.8660253999169214 0.5 0 0 1 I I -0.70710678118654746 0.70710678118654746 forward I I I I #
loop $-1 $-1 $173 $55 #
coedge $-1 $115 $115 $174 $175 reversed $78 $-1 #
face $-1 $176 $177 $33 $-1 $178 reversed single #
loop $-1 $-1 $179 $80 #
plane-surface $-1 0 -43.3521402874158 0 0 1 0 0 0 1 forward_v I I I I #
coedge $-1 $180 $181 $182 $183 forward $81 $-1 #
coedge $-1 $184 $83 $185 $186 forward $57 $-1 #
coedge $-1 $83 $184 $187 $188 forward $57 $-1 #
coedge $-1 $189 $190 $83 $123 reversed $191 $-1 #
edge $-1 $192 $193 $122 $194 forward #
face $-1 $195 $196 $35 $-1 $197 reversed single #
loop $-1 $-1 $130 $84 #
plane-surface $-1 -85.298156568173752 0 -12.031543920363527 0 0 1 1 0 0 forward_v I I I I #
coedge $-1 $198 $199 $129 $200 forward $85 $-1 #
coedge $-1 $201 $87 $202 $203 reversed $60 $-1 #
coedge $-1 $87 $201 $127 $200 reversed $60 $-1 #
coedge $-1 $204 $205 $87 $131 reversed $125 $-1 #
edge $-1 $206 $207 $130 $208 forward #
face $-1 $209 $210 $37 $-1 $211 forward single #
loop $-1 $-1 $212 $88 #
plane-surface $-1 -40.654540589860233 44.518800566815109 182.10746949287991 -1 0 0 0 0.50000000669873634 0.8660253999169214 forward_v I I I I #
coedge $-1 $213 $214 $215 $216 reversed $89 $-1 #
coedge $-1 $137 $91 $217 $218 reversed $63 $-1 #
coedge $-1 $91 $136 $213 $219 reversed $63 $-1 #
coedge $-1 $215 $220 $91 $139 forward $210 $-1 #
edge $-1 $221 $222 $138 $223 forward #
loop $-1 $-1 $145 $92 #
plane-surface $-1 -47.908885776334778 -31.735968971911682 50.030336691682606 0 0.50000000669873634 0.8660253999169214 1 0 0 forward_v I I I I #
loop $-1 $-1 $224 $65 #
coedge $-1 $143 $143 $144 $225 reversed $93 $-1 #
coedge $-1 $144 $144 $143 $225 forward $95 $-1 #
coedge $-1 $145 $145 $96 $146 forward $140 $-1 #
edge $-1 $226 $226 $145 $227 forward #
loop $-1 $-1 $152 $97 #
plane-surface $-1 -47.908885776334778 -31.735968971911682 50.030336691682606 0 0.50000000669873634 0.8660253999169214 1 0 0 forward_v I I I I #
loop $-1 $-1 $228 $68 #
coedge $-1 $150 $150 $151 $229 reversed $98 $-1 #
coedge $-1 $151 $151 $150 $229 forward $100 $-1 #
coedge $-1 $152 $152 $101 $153 forward $147 $-1 #
edge $-1 $230 $230 $152 $231 forward #
face $-1 $232 $233 $43 $-1 $234 forward single #
loop $-1 $-1 $235 $102 #
plane-surface $-1 73.250007064945578 44.518800566815109 182.10746949287991 -1 0 0 0 0.50000000669873634 0.8660253999169214 forward_v I I I I #
coedge $-1 $236 $237 $238 $239 reversed $103 $-1 #
coedge $-1 $159 $105 $240 $241 reversed $72 $-1 #
coedge $-1 $105 $158 $236 $242 reversed $72 $-1 #
coedge $-1 $238 $243 $105 $161 forward $233 $-1 #
edge $-1 $244 $245 $160 $246 forward #
loop $-1 $-1 $167 $106 #
plane-surface $-1 65.995661878471026 -31.735968971911682 50.030336691682606 0 0.50000000669873634 0.8660253999169214 1 0 0 forward_v I I I I #
loop $-1 $-1 $247 $74 #
coedge $-1 $165 $165 $166 $248 reversed $107 $-1 #
coedge $-1 $166 $166 $165 $248 forward $109 $-1 #
coedge $-1 $167 $167 $110 $168 forward $162 $-1 #
edge $-1 $249 $249 $167 $250 forward #
loop $-1 $-1 $174 $111 #
plane-surface $-1 65.995661878471026 -31.735968971911682 50.030336691682606 0 0.50000000669873634 0.8660253999169214 1 0 0 forward_v I I I I #
loop $-1 $-1 $251 $77 #
coedge $-1 $172 $172 $173 $252 reversed $112 $-1 #
coedge $-1 $173 $173 $172 $252 forward $114 $-1 #
coedge $-1 $174 $174 $115 $175 forward $169 $-1 #
edge $-1 $253 $253 $174 $254 forward #
face $-1 $255 $256 $33 $-1 $257 reversed single #
loop $-1 $-1 $258 $116 #
plane-surface $-1 -76.254768517105617 0 0 1 0 0 0 0 -1 forward_v I I I I #
coedge $-1 $259 $187 $258 $260 forward $117 $-1 #
coedge $-1 $261 $119 $259 $262 forward $81 $-1 #
coedge $-1 $119 $261 $263 $264 forward $81 $-1 #
coedge $-1 $190 $189 $119 $183 reversed $191 $-1 #
edge $-1 $265 $266 $182 $267 forward #
coedge $-1 $121 $120 $268 $269 forward $57 $-1 #
coedge $-1 $270 $271 $120 $186 reversed $256 $-1 #
edge $-1 $193 $272 $185 $273 forward #
coedge $-1 $179 $274 $121 $188 reversed $117 $-1 #
edge $-1 $275 $192 $187 $276 forward #
coedge $-1 $182 $122 $274 $277 forward $191 $-1 #
coedge $-1 $122 $182 $270 $278 reversed $191 $-1 #
loop $-1 $-1 $189 $255 #
vertex $-1 $123 $279 #
vertex $-1 $123 $280 #
straight-curve $-1 76.254768517105617 0 15.661253402027254 0 1 0 I I #
face $-1 $281 $282 $35 $-1 $283 reversed single #
loop $-1 $-1 $284 $124 #
plane-surface $-1 -94.341544619241887 0 -13.846398661195391 1 0 0 0 0 -1 forward_v I I I I #
coedge $-1 $285 $127 $286 $287 reversed $85 $-1 #
coedge $-1 $127 $285 $204 $288 reversed $85 $-1 #
edge $-1 $206 $289 $127 $290 forward #
coedge $-1 $129 $128 $291 $292 reversed $60 $-1 #
coedge $-1 $293 $294 $128 $203 forward $295 $-1 #
edge $-1 $296 $207 $202 $297 forward #
coedge $-1 $298 $130 $199 $288 forward $125 $-1 #
coedge $-1 $130 $298 $293 $299 forward $125 $-1 #
vertex $-1 $200 $300 #
vertex $-1 $299 $301 #
straight-curve $-1 -76.254768517105617 0 -12.031543920363527 0 -1 0 I I #
face $-1 $-1 $302 $37 $-1 $303 reversed single #
loop $-1 $-1 $138 $132 #
plane-surface $-1 0 0 15.661253402027254 0 0 1 1 0 0 forward_v I I I I #
coedge $-1 $304 $305 $306 $307 reversed $133 $-1 #
coedge $-1 $308 $135 $137 $219 forward $89 $-1 #
coedge $-1 $135 $308 $304 $309 forward $89 $-1 #
coedge $-1 $306 $138 $135 $216 forward $210 $-1 #
edge $-1 $222 $310 $215 $311 forward #
coedge $-1 $312 $313 $136 $218 forward $302 $-1 #
edge $-1 $314 $221 $217 $315 forward #
edge $-1 $222 $314 $137 $316 forward #
coedge $-1 $138 $306 $312 $317 forward $210 $-1 #
vertex $-1 $218 $318 #
vertex $-1 $139 $319 #
straight-curve $-1 -55.163230962809322 22.259400283407555 15.661253402027256 0 -1 0 I I #
coedge $-1 $224 $224 $-1 $320 reversed $142 $-1 #
edge $-1 $321 $321 $143 $322 forward #
vertex $-1 $146 $323 #
ellipse-curve $-1 -51.017890856252436 35.57258435968474 11.169724612742492 0 0.50000000669873634 0.8660253999169214 1 0 0 1 I I #
coedge $-1 $228 $228 $-1 $324 reversed $149 $-1 #
edge $-1 $325 $325 $150 $326 forward #
vertex $-1 $153 $327 #
ellipse-curve $-1 -44.799880696417112 35.57258435968474 11.169724612742492 0 0.50000000669873634 0.8660253999169214 1 0 0 1 I I #
face $-1 $-1 $328 $43 $-1 $329 reversed single #
loop $-1 $-1 $160 $154 #
plane-surface $-1 0 0 15.661253402027254 0 0 1 1 0 0 forward_v I I I I #
coedge $-1 $330 $331 $332 $333 reversed $155 $-1 #
coedge $-1 $334 $157 $159 $242 forward $103 $-1 #
coedge $-1 $157 $334 $330 $335 forward $103 $-1 #
coedge $-1 $332 $160 $157 $239 forward $233 $-1 #
edge $-1 $245 $336 $238 $337 forward #
coedge $-1 $338 $339 $158 $241 forward $328 $-1 #
edge $-1 $340 $244 $240 $341 forward #
edge $-1 $245 $340 $159 $342 forward #
coedge $-1 $160 $332 $338 $343 forward $233 $-1 #
vertex $-1 $161 $344 #
vertex $-1 $161 $345 #
straight-curve $-1 58.741316691996481 22.259400283407555 15.661253402027256 0 -1 0 I I #
coedge $-1 $247 $247 $-1 $346 reversed $164 $-1 #
edge $-1 $347 $347 $165 $348 forward #
vertex $-1 $168 $349 #
ellipse-curve $-1 62.886656798553361 35.57258435968474 11.169724612742492 0 0.50000000669873634 0.8660253999169214 1 0 0 1 I I #
coedge $-1 $251 $251 $-1 $350 reversed $171 $-1 #
edge $-1 $351 $351 $172 $352 forward #
vertex $-1 $175 $353 #
ellipse-curve $-1 69.104666958388691 35.57258435968474 11.169724612742492 0 0.50000000669873634 0.8660253999169214 1 0 0 1 I I #
face $-1 $-1 $191 $33 $-1 $354 reversed single #
loop $-1 $-1 $270 $176 #
plane-surface $-1 0 43.3521402874158 0 0 -1 0 0 0 -1 forward_v I I I I #
coedge $-1 $268 $355 $179 $260 reversed $177 $-1 #
coedge $-1 $274 $179 $180 $262 reversed $117 $-1 #
edge $-1 $275 $356 $258 $357 forward #
coedge $-1 $181 $180 $355 $358 forward $81 $-1 #
edge $-1 $266 $356 $259 $359 forward #
coedge $-1 $271 $270 $181 $264 reversed $256 $-1 #
edge $-1 $360 $265 $263 $361 forward #
vertex $-1 $183 $362 #
vertex $-1 $277 $363 #
straight-curve $-1 76.254768517105617 0 -15.661253402027254 0 -1 0 I I #
coedge $-1 $364 $258 $184 $269 reversed $177 $-1 #
edge $-1 $272 $275 $268 $365 forward #
coedge $-1 $263 $185 $190 $278 forward $256 $-1 #
coedge $-1 $185 $263 $364 $366 reversed $256 $-1 #
vertex $-1 $186 $367 #
straight-curve $-1 0 43.3521402874158 15.661253402027254 -1 0 0 I I #
coedge $-1 $187 $259 $189 $277 reversed $117 $-1 #
vertex $-1 $269 $368 #
straight-curve $-1 0 -43.3521402874158 15.661253402027254 1 0 0 I I #
edge $-1 $192 $266 $189 $369 forward #
edge $-1 $193 $265 $190 $370 forward #
point $-1 76.254768517105617 -43.3521402874158 15.661253402027254 #
point $-1 76.254768517105617 43.3521402874158 15.661253402027254 #
face $-1 $-1 $295 $35 $-1 $371 reversed single #
loop $-1 $-1 $291 $195 #
plane-surface $-1 0 0 -15.661253402027254 0 0 1 1 0 0 forward_v I I I I #
coedge $-1 $372 $373 $285 $374 forward $196 $-1 #
coedge $-1 $199 $198 $284 $374 reversed $85 $-1 #
coedge $-1 $291 $375 $198 $287 forward $282 $-1 #
edge $-1 $376 $289 $198 $377 forward #
edge $-1 $206 $378 $199 $379 forward #
vertex $-1 $200 $380 #
straight-curve $-1 -76.254768517105617 43.3521402874158 0 0 0 -1 I I #
coedge $-1 $381 $286 $201 $292 forward $282 $-1 #
edge $-1 $289 $296 $291 $382 forward #
coedge $-1 $383 $202 $205 $299 reversed $295 $-1 #
coedge $-1 $202 $383 $381 $384 reversed $295 $-1 #
loop $-1 $-1 $202 $281 #
vertex $-1 $384 $385 #
straight-curve $-1 -76.254768517105617 -43.3521402874158 0 0 0 1 I I #
coedge $-1 $205 $204 $373 $386 forward $125 $-1 #
edge $-1 $387 $207 $293 $388 forward #
point $-1 -76.254768517105617 43.3521402874158 -12.031543920363527 #
point $-1 -76.254768517105617 -43.3521402874158 -12.031543920363527 #
loop $-1 $-1 $217 $209 #
plane-surface $-1 0 43.3521402874158 0 0 -1 0 0 0 -1 forward_v I I I I #
coedge $-1 $305 $212 $214 $309 reversed $133 $-1 #
coedge $-1 $212 $304 $389 $390 reversed $133 $-1 #
coedge $-1 $220 $215 $212 $307 forward $210 $-1 #
edge $-1 $310 $391 $306 $392 forward #
coedge $-1 $214 $213 $313 $393 reversed $89 $-1 #
edge $-1 $394 $310 $304 $395 forward #
vertex $-1 $216 $396 #
straight-curve $-1 -23.954442888167389 27.793028431953701 15.66125340202726 1 0 0 I I #
coedge $-1 $389 $217 $220 $317 reversed $302 $-1 #
coedge $-1 $217 $389 $308 $393 forward $302 $-1 #
vertex $-1 $218 $397 #
straight-curve $-1 -55.163230962809322 43.3521402874158 91.053734746439957 0 0 1 I I #
straight-curve $-1 -55.163230962809322 -31.735968971911682 50.030336691682606 0 0.8660253999169214 -0.50000000669873634 I I #
edge $-1 $391 $221 $312 $398 forward #
point $-1 -55.163230962809322 43.3521402874158 15.661253402027254 #
point $-1 -55.163230962809322 27.793028431953708 15.661253402027256 #
edge $-1 $399 $399 $224 $-1 forward #
vertex $-1 $225 $400 #
ellipse-curve $-1 -51.017890856252436 33.814840264355858 8.1252225873135249 0 0.50000000669873634 0.8660253999169214 1 0 0 1 I I #
point $-1 -50.017890856252436 35.572584359684718 11.169724612742463 #
edge $-1 $401 $401 $228 $-1 forward #
vertex $-1 $229 $402 #
ellipse-curve $-1 -44.799880696417112 33.814840264355858 8.1252225873135249 0 0.50000000669873634 0.8660253999169214 1 0 0 1 I I #
point $-1 -43.799880696417112 35.572584359684718 11.169724612742463 #
loop $-1 $-1 $240 $232 #
plane-surface $-1 0 43.3521402874158 0 0 -1 0 0 0 -1 forward_v I I I I #
coedge $-1 $331 $235 $237 $335 reversed $155 $-1 #
coedge $-1 $235 $330 $403 $404 reversed $155 $-1 #
coedge $-1 $243 $238 $235 $333 forward $233 $-1 #
edge $-1 $336 $405 $332 $406 forward #
coedge $-1 $237 $236 $339 $407 reversed $103 $-1 #
edge $-1 $408 $336 $330 $409 forward #
vertex $-1 $239 $410 #
straight-curve $-1 32.997830939235513 27.793028431953701 15.66125340202726 1 0 0 I I #
coedge $-1 $403 $240 $243 $343 reversed $328 $-1 #
coedge $-1 $240 $403 $334 $407 forward $328 $-1 #
vertex $-1 $241 $411 #
straight-curve $-1 58.741316691996481 43.3521402874158 91.053734746439957 0 0 1 I I #
straight-curve $-1 58.741316691996481 -31.735968971911682 50.030336691682606 0 0.8660253999169214 -0.50000000669873634 I I #
edge $-1 $405 $244 $338 $412 forward #
point $-1 58.741316691996481 43.3521402874158 15.661253402027254 #
point $-1 58.741316691996481 27.793028431953708 15.661253402027256 #
edge $-1 $413 $413 $247 $-1 forward #
vertex $-1 $248 $414 #
ellipse-curve $-1 62.886656798553361 33.814840264355858 8.1252225873135249 0 0.50000000669873634 0.8660253999169214 1 0 0 1 I I #
point $-1 63.886656798553361 35.572584359684718 11.169724612742463 #
edge $-1 $415 $415 $251 $-1 forward #
vertex $-1 $252 $416 #
ellipse-curve $-1 69.104666958388691 33.814840264355858 8.1252225873135249 0 0.50000000669873634 0.8660253999169214 1 0 0 1 I I #
point $-1 70.104666958388691 35.572584359684718 11.169724612742463 #
plane-surface $-1 76.254768517105617 0 0 -1 0 0 0 0 1 forward_v I I I I #
coedge $-1 $258 $364 $261 $358 reversed $177 $-1 #
vertex $-1 $358 $417 #
straight-curve $-1 -76.254768517105617 -43.3521402874158 0 0 0 -1 I I #
edge $-1 $356 $360 $355 $418 forward #
straight-curve $-1 0 -43.3521402874158 -15.661253402027254 -1 0 0 I I #
vertex $-1 $264 $419 #
straight-curve $-1 0 43.3521402874158 -15.661253402027254 1 0 0 I I #
point $-1 76.254768517105617 43.3521402874158 -15.661253402027254 #
point $-1 76.254768517105617 -43.3521402874158 -15.661253402027254 #
coedge $-1 $355 $268 $271 $366 forward $177 $-1 #
straight-curve $-1 -76.254768517105617 0 15.661253402027254 0 -1 0 I I #
edge $-1 $272 $360 $271 $420 forward #
point $-1 -76.254768517105617 43.3521402874158 15.661253402027254 #
point $-1 -76.254768517105617 -43.3521402874158 15.661253402027254 #
straight-curve $-1 76.254768517105617 -43.3521402874158 0 0 0 -1 I I #
straight-curve $-1 76.254768517105617 43.3521402874158 0 0 0 -1 I I #
plane-surface $-1 0 -43.3521402874158 0 0 1 0 0 0 1 forward_v I I I I #
coedge $-1 $421 $284 $375 $422 reversed $196 $-1 #
coedge $-1 $284 $421 $298 $386 reversed $196 $-1 #
edge $-1 $378 $376 $285 $423 forward #
coedge $-1 $286 $381 $372 $422 forward $282 $-1 #
vertex $-1 $287 $424 #
straight-curve $-1 0 43.3521402874158 -15.661253402027254 1 0 0 I I #
vertex $-1 $288 $425 #
straight-curve $-1 -85.298156568173752 43.3521402874158 -12.031543920363527 -1 0 0 I I #
point $-1 -76.254768517105617 43.3521402874158 -15.661253402027254 #
coedge $-1 $375 $291 $294 $384 forward $282 $-1 #
straight-curve $-1 -76.254768517105617 0 -15.661253402027254 0 -1 0 I I #
coedge $-1 $294 $293 $421 $426 forward $295 $-1 #
edge $-1 $296 $427 $294 $428 forward #
point $-1 -76.254768517105617 -43.3521402874158 -15.661253402027254 #
edge $-1 $378 $387 $373 $429 forward #
vertex $-1 $386 $430 #
straight-curve $-1 -85.298156568173752 -43.3521402874158 -12.031543920363527 1 0 0 I I #
coedge $-1 $313 $312 $305 $390 forward $302 $-1 #
edge $-1 $391 $394 $389 $431 forward #
vertex $-1 $317 $432 #
straight-curve $-1 -40.654540589860233 22.259400283407555 15.661253402027256 0 1 0 I I #
edge $-1 $394 $314 $313 $433 forward #
vertex $-1 $393 $434 #
straight-curve $-1 -40.654540589860233 -31.735968971911682 50.030336691682606 0 -0.8660253999169214 0.50000000669873634 I I #
point $-1 -40.654540589860233 27.793028431953708 15.661253402027256 #
point $-1 -55.163230962809322 43.3521402874158 6.678195823457699 #
straight-curve $-1 0 43.3521402874158 15.661253402027254 -1 0 0 I I #
vertex $-1 $320 $435 #
point $-1 -50.017890856252436 33.814840264355858 8.1252225873135249 #
vertex $-1 $324 $436 #
point $-1 -43.799880696417112 33.814840264355858 8.1252225873135249 #
coedge $-1 $339 $338 $331 $404 forward $328 $-1 #
edge $-1 $405 $408 $403 $437 forward #
vertex $-1 $343 $438 #
straight-curve $-1 73.250007064945578 22.259400283407555 15.661253402027256 0 1 0 I I #
edge $-1 $408 $340 $339 $439 forward #
vertex $-1 $407 $440 #
straight-curve $-1 73.250007064945578 -31.735968971911682 50.030336691682606 0 -0.8660253999169214 0.50000000669873634 I I #
point $-1 73.250007064945578 27.793028431953708 15.661253402027256 #
point $-1 58.741316691996481 43.3521402874158 6.678195823457699 #
straight-curve $-1 0 43.3521402874158 15.661253402027254 -1 0 0 I I #
vertex $-1 $346 $441 #
point $-1 63.886656798553361 33.814840264355858 8.1252225873135249 #
vertex $-1 $350 $442 #
point $-1 70.104666958388691 33.814840264355858 8.1252225873135249 #
point $-1 -76.254768517105617 -43.3521402874158 -15.661253402027254 #
straight-curve $-1 -76.254768517105617 0 -15.661253402027254 0 1 0 I I #
point $-1 -76.254768517105617 43.3521402874158 -15.661253402027254 #
straight-curve $-1 -76.254768517105617 43.3521402874158 0 0 0 -1 I I #
coedge $-1 $373 $372 $383 $426 reversed $196 $-1 #
edge $-1 $427 $376 $372 $443 forward #
straight-curve $-1 -94.341544619241887 43.3521402874158 -13.846398661195391 0 0 -1 I I #
point $-1 -94.341544619241887 43.3521402874158 -15.661253402027254 #
point $-1 -94.341544619241887 43.3521402874158 -12.031543920363527 #
edge $-1 $387 $427 $421 $444 forward #
vertex $-1 $422 $445 #
straight-curve $-1 -85.298156568173752 -43.3521402874158 -15.661253402027254 -1 0 0 I I #
straight-curve $-1 -94.341544619241887 0 -12.031543920363527 0 -1 0 I I #
point $-1 -94.341544619241887 -43.3521402874158 -12.031543920363527 #
straight-curve $-1 -40.654540589860233 43.3521402874158 91.053734746439957 0 0 -1 I I #
point $-1 -40.654540589860233 43.3521402874158 15.661253402027254 #
straight-curve $-1 -23.954442888167389 43.352140287415793 6.6781958234577026 -1 0 0 I I #
point $-1 -40.654540589860233 43.3521402874158 6.678195823457699 #
point $-1 -51.017890856252436 33.314840257657117 7.2591971873966035 #
point $-1 -44.799880696417112 33.314840257657117 7.2591971873966035 #
straight-curve $-1 73.250007064945578 43.3521402874158 91.053734746439957 0 0 -1 I I #
point $-1 73.250007064945578 43.3521402874158 15.661253402027254 #
straight-curve $-1 32.997830939235513 43.352140287415793 6.6781958234577026 -1 0 0 I I #
point $-1 73.250007064945578 43.3521402874158 6.678195823457699 #
point $-1 62.886656798553361 33.314840257657117 7.2591971873966035 #
point $-1 69.104666958388691 33.314840257657117 7.2591971873966035 #
straight-curve $-1 -94.341544619241887 0 -15.661253402027254 0 1 0 I I #
straight-curve $-1 -94.341544619241887 -43.3521402874158 -13.846398661195391 0 0 -1 I I #
point $-1 -94.341544619241887 -43.3521402874158 -15.661253402027254 #
End-of-ACIS-data 