600 0 10 0           
34 FBMach with ACIS3D/Toolkit - 6.0.3 13 ACIS 6.0.3 NT 24 Mon Apr 16 11:11:59 2001 
1 9.9999999999999995e-007 1e-010 
body $10 $11 $-1 $12 #
body $-1 $13 $-1 $14 #
body $-1 $15 $-1 $16 #
body $-1 $17 $-1 $18 #
body $-1 $19 $-1 $20 #
body $-1 $21 $-1 $22 #
body $-1 $23 $-1 $24 #
body $-1 $25 $-1 $26 #
body $-1 $27 $-1 $28 #
bdycol-kcp $-1 1 1 $29 #
model_id-kcp-attrib $-1 $-1 $-1 $0 1 987433917 218 -1076232191 1 #
lump $-1 $-1 $30 $0 #
transform $-1 1 0 0 0 1 0 0 0 1 50.328684347056488 29.855460302523266 8.9417864411420886 1 rotate no_reflect no_shear #
lump $-1 $-1 $31 $1 #
transform $-1 1 0 0 0 1 0 0 0 1 50.328684347056488 29.855460302523266 8.9417864411420886 1 rotate no_reflect no_shear #
lump $-1 $-1 $32 $2 #
transform $-1 1 0 0 0 1 0 0 0 1 50.328684347056488 29.855460302523266 8.9417864411420886 1 rotate no_reflect no_shear #
lump $-1 $-1 $33 $3 #
transform $-1 1 0 0 0 1 0 0 0 1 50.328684347056488 29.855460302523266 8.9417864411420886 1 rotate no_reflect no_shear #
lump $-1 $-1 $34 $4 #
transform $-1 1 0 0 0 1 0 0 0 1 50.328684347056488 29.855460302523266 8.9417864411420886 1 rotate no_reflect no_shear #
lump $-1 $-1 $35 $5 #
transform $-1 1 0 0 0 1 0 0 0 1 50.328684347056488 29.855460302523266 8.9417864411420886 1 rotate no_reflect no_shear #
lump $-1 $-1 $36 $6 #
transform $-1 1 0 0 0 1 0 0 0 1 50.328684347056488 29.855460302523266 8.9417864411420886 1 rotate no_reflect no_shear #
lump $-1 $-1 $37 $7 #
transform $-1 1 0 0 0 1 0 0 0 1 50.328684347056488 29.855460302523266 8.9417864411420886 1 rotate no_reflect no_shear #
lump $-1 $-1 $38 $8 #
transform $-1 1 0 0 0 1 0 0 0 1 50.328684347056488 29.855460302523266 8.9417864411420886 1 rotate no_reflect no_shear #
body $39 $40 $-1 $41 #
shell $-1 $-1 $-1 $42 $-1 $11 #
shell $-1 $-1 $-1 $43 $-1 $13 #
shell $-1 $-1 $-1 $44 $-1 $15 #
shell $-1 $-1 $-1 $45 $-1 $17 #
shell $-1 $-1 $-1 $46 $-1 $19 #
shell $-1 $-1 $-1 $47 $-1 $21 #
shell $-1 $-1 $-1 $48 $-1 $23 #
shell $-1 $-1 $-1 $49 $-1 $25 #
shell $-1 $-1 $-1 $50 $-1 $27 #
model_id-kcp-attrib $-1 $-1 $-1 $29 1 987433917 234 -1075183614 1 #
lump $-1 $-1 $51 $29 #
transform $-1 1 0 0 0 1 0 0 0 1 50.328684347056488 29.855460302523266 8.9417864411420886 1 no_rotate no_reflect no_shear #
face $52 $53 $54 $30 $-1 $55 reversed single #
face $-1 $56 $57 $31 $-1 $58 reversed single #
face $-1 $59 $60 $32 $-1 $61 forward single #
face $-1 $62 $63 $33 $-1 $64 reversed single #
face $-1 $65 $66 $34 $-1 $67 forward single #
face $-1 $68 $69 $35 $-1 $70 forward single #
face $-1 $71 $72 $36 $-1 $73 reversed single #
face $-1 $74 $75 $37 $-1 $76 forward single #
face $-1 $77 $78 $38 $-1 $79 forward single #
shell $-1 $-1 $-1 $80 $-1 $40 #
model_id-kcp-attrib $-1 $-1 $-1 $42 1 987433917 218 -1076232191 2 #
face $81 $82 $83 $30 $-1 $84 forward single #
loop $-1 $-1 $85 $42 #
plane-surface $-1 50.328684347056488 0 0 -1 0 0 0 0 1 forward_v I I I I #
face $-1 $86 $87 $31 $-1 $88 reversed single #
loop $-1 $-1 $89 $43 #
plane-surface $-1 -47.228675843731224 -16.1313312903882 0 0 1 0 0 0 1 forward_v I I I I #
face $-1 $90 $91 $32 $-1 $92 reversed single #
loop $-1 $-1 $93 $44 #
plane-surface $-1 50.328684347056488 0 0 -1 0 0 0 0 1 forward_v I I I I #
face $-1 $94 $95 $33 $-1 $96 reversed single #
loop $-1 $-1 $97 $45 #
plane-surface $-1 19.261294845906392 28.472971427463971 117.26919885780352 1 0 0 0 -0.50000000669873634 -0.8660253999169214 forward_v I I I I #
face $-1 $98 $99 $34 $-1 $100 forward single #
loop $-1 $101 $102 $46 #
cone-surface $-1 25.873227283490912 20.799065390294636 1.9555363974877178 0 -0.50000000669873634 -0.8660253999169214 2.5 0 0 1 I I 0 1 2.5 forward I I I I #
face $-1 $103 $104 $35 $-1 $105 forward single #
loop $-1 $106 $107 $47 #
cone-surface $-1 35.791125939867705 20.799065390294636 1.9555363974877178 0 -0.50000000669873634 -0.8660253999169214 2.5 0 0 1 I I 0 1 2.5 forward I I I I #
face $-1 $108 $109 $36 $-1 $110 reversed single #
loop $-1 $-1 $111 $48 #
plane-surface $-1 42.403058377452254 -86.142347289852481 88.774170700372977 -1 0 0 0 -0.55919291073839883 0.82903756765294845 forward_v I I I I #
face $-1 $112 $113 $37 $-1 $114 forward single #
loop $-1 $115 $116 $49 #
cone-surface $-1 26.17352616290102 -26.496098886861386 6.1275019642835318 0 0.55919291073839883 -0.82903756765294845 1 0 0 1 I I 0 1 1 forward I I I I #
face $-1 $117 $118 $38 $-1 $119 forward single #
loop $-1 $120 $121 $50 #
cone-surface $-1 35.911245491631753 -26.496098886861386 6.1275019642835318 0 0.55919291073839883 -0.82903756765294845 1 0 0 1 I I 0 1 1 forward I I I I #
face $122 $123 $124 $51 $-1 $125 forward single #
model_id-kcp-attrib $-1 $-1 $-1 $53 1 987433917 218 -1076232191 3 #
face $126 $127 $128 $30 $-1 $129 reversed single #
loop $-1 $-1 $130 $53 #
plane-surface $-1 0 0 8.9417864411420886 0 0 1 1 0 0 forward_v I I I I #
coedge $-1 $131 $132 $133 $134 reversed $54 $-1 #
face $-1 $135 $136 $31 $-1 $137 reversed single #
loop $-1 $-1 $138 $56 #
plane-surface $-1 -47.228675843731224 -11.971887420239089 0 0 -1 0 0 0 -1 forward_v I I I I #
coedge $-1 $139 $140 $141 $142 reversed $57 $-1 #
face $-1 $143 $144 $32 $-1 $145 forward single #
loop $-1 $-1 $146 $59 #
plane-surface $-1 0 -29.855460302523266 0 0 1 0 0 0 1 forward_v I I I I #
coedge $-1 $147 $148 $149 $150 forward $60 $-1 #
face $-1 $151 $152 $33 $-1 $153 reversed single #
loop $-1 $-1 $154 $62 #
plane-surface $-1 30.832176611679323 -21.855713593869691 30.097360879899327 0 0.50000000669873634 0.8660253999169214 1 0 0 forward_v I I I I #
coedge $-1 $155 $156 $157 $158 reversed $63 $-1 #
face $-1 $-1 $159 $34 $-1 $160 forward single #
loop $-1 $161 $162 $65 #
cone-surface $-1 25.873227283490912 18.651992849550776 -1.7633022641859277 0 -0.50000000669873634 -0.8660253999169214 1.25 0 0 1 I I -0.70710678118654746 0.70710678118654768 1.25 forward I I I I #
loop $-1 $-1 $163 $46 #
coedge $-1 $102 $102 $164 $165 reversed $66 $-1 #
face $-1 $-1 $166 $35 $-1 $167 forward single #
loop $-1 $168 $169 $68 #
cone-surface $-1 35.791125939867705 18.651992849550776 -1.7633022641859277 0 -0.50000000669873634 -0.8660253999169214 1.25 0 0 1 I I -0.70710678118654746 0.70710678118654768 1.25 forward I I I I #
loop $-1 $-1 $170 $47 #
coedge $-1 $107 $107 $171 $172 reversed $69 $-1 #
face $-1 $173 $174 $36 $-1 $175 reversed single #
loop $-1 $-1 $176 $71 #
plane-surface $-1 31.042385827266394 -29.855460302523262 5.3254305918595151 0 -0.55919291073839883 0.82903756765294845 1 0 0 forward_v I I I I #
coedge $-1 $177 $178 $179 $180 reversed $72 $-1 #
face $-1 $-1 $181 $37 $-1 $182 forward single #
loop $-1 $183 $184 $74 #
cone-surface $-1 26.17352616290102 -25.537874980338046 4.7068766282397867 0 0.55919291073839883 -0.82903756765294845 0.5 0 0 1 I I -0.70710678118654746 0.70710678118654746 0.5 forward I I I I #
loop $-1 $-1 $185 $49 #
coedge $-1 $116 $116 $186 $187 reversed $75 $-1 #
face $-1 $-1 $188 $38 $-1 $189 forward single #
loop $-1 $190 $191 $77 #
cone-surface $-1 35.911245491631753 -25.537874980338046 4.7068766282397867 0 0.55919291073839883 -0.82903756765294845 0.5 0 0 1 I I -0.70710678118654746 0.70710678118654746 0.5 forward I I I I #
loop $-1 $-1 $192 $50 #
coedge $-1 $121 $121 $193 $194 reversed $78 $-1 #
model_id-kcp-attrib $-1 $-1 $-1 $80 1 987433917 234 -1075183614 3 #
face $195 $196 $197 $51 $-1 $198 reversed single #
loop $-1 $-1 $199 $80 #
plane-surface $-1 0 0 8.9417864411420886 0 0 1 1 0 0 forward_v I I I I #
model_id-kcp-attrib $-1 $-1 $-1 $82 1 987433917 218 -1076232191 4 #
face $200 $201 $202 $30 $-1 $203 reversed single #
loop $-1 $-1 $204 $82 #
plane-surface $-1 0 0 -8.9417864411420886 0 0 1 1 0 0 forward_v I I I I #
coedge $-1 $205 $206 $131 $207 forward $83 $-1 #
coedge $-1 $208 $85 $130 $207 reversed $54 $-1 #
coedge $-1 $85 $208 $204 $209 reversed $54 $-1 #
coedge $-1 $210 $211 $85 $134 forward $212 $-1 #
edge $213 $214 -8.9417864411420886 $215 8.9417864411420886 $85 $216 forward 7 unknown #
face $-1 $217 $218 $31 $-1 $219 reversed single #
loop $-1 $-1 $220 $86 #
plane-surface $-1 -44.128667340405961 -14.051609355313644 0 -1 0 0 0 0 1 forward_v I I I I #
coedge $-1 $221 $222 $223 $224 forward $87 $-1 #
coedge $-1 $225 $89 $226 $227 reversed $57 $-1 #
coedge $-1 $89 $225 $228 $229 reversed $57 $-1 #
coedge $-1 $230 $231 $89 $142 forward $232 $-1 #
edge $-1 $233 -8.9417864411420886 $234 8.9417864411420886 $141 $235 forward 7 unknown #
face $-1 $236 $237 $32 $-1 $238 reversed single #
loop $-1 $-1 $239 $90 #
plane-surface $-1 54.291497331858601 0 -4.113987213922278 0 0 1 1 0 0 forward_v I I I I #
coedge $-1 $240 $241 $148 $242 forward $91 $-1 #
coedge $-1 $243 $93 $244 $245 reversed $60 $-1 #
coedge $-1 $93 $243 $146 $242 reversed $60 $-1 #
coedge $-1 $246 $247 $93 $150 reversed $144 $-1 #
edge $-1 $248 -29.855460302523266 $249 29.855460302523266 $149 $250 forward 7 unknown #
face $-1 $251 $252 $33 $-1 $253 reversed single #
loop $-1 $-1 $254 $94 #
plane-surface $-1 42.403058377452254 28.472971427463971 117.26919885780352 -1 0 0 0 0.50000000669873634 0.8660253999169214 forward_v I I I I #
coedge $-1 $255 $256 $257 $258 reversed $95 $-1 #
coedge $-1 $156 $97 $259 $260 reversed $63 $-1 #
coedge $-1 $97 $155 $255 $261 reversed $63 $-1 #
coedge $-1 $257 $262 $97 $158 forward $263 $-1 #
edge $-1 $264 -15.61897458879128 $265 -0.55032982907491679 $157 $266 forward 7 unknown #
loop $-1 $-1 $164 $98 #
plane-surface $-1 30.832176611679323 -21.855713593869691 30.097360879899327 0 0.50000000669873634 0.8660253999169214 1 0 0 forward_v I I I I #
loop $-1 $-1 $267 $65 #
coedge $-1 $162 $162 $163 $268 reversed $99 $-1 #
coedge $-1 $163 $163 $162 $268 forward $101 $-1 #
coedge $-1 $164 $164 $102 $165 forward $159 $-1 #
edge $-1 $269 1.9038937676974588e-016 $269 6.2831853071795862 $164 $270 forward 7 unknown #
loop $-1 $-1 $171 $103 #
plane-surface $-1 30.832176611679323 -21.855713593869691 30.097360879899327 0 0.50000000669873634 0.8660253999169214 1 0 0 forward_v I I I I #
loop $-1 $-1 $271 $68 #
coedge $-1 $169 $169 $170 $272 reversed $104 $-1 #
coedge $-1 $170 $170 $169 $272 forward $106 $-1 #
coedge $-1 $171 $171 $107 $172 forward $166 $-1 #
edge $-1 $273 1.9038937676974588e-016 $273 6.2831853071795862 $171 $274 forward 7 unknown #
face $-1 $275 $276 $36 $-1 $277 forward single #
loop $-1 $-1 $278 $108 #
plane-surface $-1 19.681713277080533 -86.142347289852481 88.774170700372977 1 0 0 0 0.55919291073839883 -0.82903756765294845 forward_v I I I I #
coedge $-1 $279 $280 $281 $282 reversed $109 $-1 #
coedge $-1 $178 $111 $283 $284 reversed $72 $-1 #
coedge $-1 $111 $177 $279 $285 reversed $72 $-1 #
coedge $-1 $281 $286 $111 $180 forward $276 $-1 #
edge $-1 $287 13.215713342402974 $288 18.57718127141845 $179 $289 forward 7 unknown #
loop $-1 $-1 $186 $112 #
plane-surface $-1 31.042385827266394 -29.855460302523262 5.3254305918595151 0 -0.55919291073839883 0.82903756765294845 1 0 0 forward_v I I I I #
loop $-1 $-1 $290 $74 #
coedge $-1 $184 $184 $185 $291 reversed $113 $-1 #
coedge $-1 $185 $185 $184 $291 forward $115 $-1 #
coedge $-1 $186 $186 $116 $187 forward $181 $-1 #
edge $-1 $292 -1.9520069553058371e-015 $292 6.2831853071795845 $186 $293 forward 7 unknown #
loop $-1 $-1 $193 $117 #
plane-surface $-1 31.042385827266394 -29.855460302523262 5.3254305918595151 0 -0.55919291073839883 0.82903756765294845 1 0 0 forward_v I I I I #
loop $-1 $-1 $294 $77 #
coedge $-1 $191 $191 $192 $295 reversed $118 $-1 #
coedge $-1 $192 $192 $191 $295 forward $120 $-1 #
coedge $-1 $193 $193 $121 $194 forward $188 $-1 #
edge $-1 $296 -1.9520069553058371e-015 $296 6.2831853071795845 $193 $297 forward 7 unknown #
model_id-kcp-attrib $-1 $-1 $-1 $123 1 987433917 234 -1075183614 4 #
face $298 $299 $300 $51 $-1 $301 reversed single #
loop $-1 $-1 $302 $123 #
plane-surface $-1 0 0 -8.9417864411420886 0 0 1 1 0 0 forward_v I I I I #
coedge $-1 $303 $304 $305 $306 forward $124 $-1 #
model_id-kcp-attrib $-1 $-1 $-1 $127 1 987433917 218 -1076232191 5 #
face $307 $308 $309 $30 $-1 $310 reversed single #
loop $-1 $-1 $311 $127 #
plane-surface $-1 0 -29.855460302523266 0 0 1 0 0 0 1 forward_v I I I I #
coedge $-1 $312 $313 $132 $209 forward $128 $-1 #
coedge $-1 $314 $130 $211 $315 forward $83 $-1 #
coedge $-1 $130 $314 $316 $317 forward $83 $-1 #
edge $318 $319 -29.855460302523266 $214 29.855460302523266 $131 $320 forward 7 unknown #
coedge $-1 $132 $131 $321 $322 forward $54 $-1 #
edge $323 $215 -29.855460302523266 $324 29.855460302523266 $132 $325 forward 7 unknown #
coedge $-1 $326 $133 $313 $327 reversed $212 $-1 #
coedge $-1 $133 $326 $205 $315 reversed $212 $-1 #
loop $-1 $-1 $133 $308 #
attrib_edge_convexity-kcp-attrib $-1 $328 $-1 $134 1 #
vertex $-1 $207 $329 #
vertex $-1 $209 $330 #
straight-curve $-1 50.328684347056488 29.855460302523266 0 0 0 -1 I I #
face $-1 $331 $332 $31 $-1 $333 forward single #
loop $-1 $-1 $334 $135 #
plane-surface $-1 0 0 -8.9417864411420886 0 0 1 1 0 0 forward_v I I I I #
coedge $-1 $335 $336 $225 $337 forward $136 $-1 #
coedge $-1 $338 $138 $334 $339 reversed $87 $-1 #
coedge $-1 $138 $338 $340 $341 reversed $87 $-1 #
coedge $-1 $336 $335 $138 $224 reversed $136 $-1 #
edge $-1 $342 -8.9417864411420886 $343 8.9417864411420886 $223 $344 forward 7 unknown #
coedge $-1 $140 $139 $220 $337 reversed $57 $-1 #
coedge $-1 $345 $346 $139 $227 forward $218 $-1 #
edge $-1 $347 20.514329418540349 $233 26.714346425190875 $226 $348 forward 7 unknown #
coedge $-1 $349 $350 $140 $229 forward $332 $-1 #
edge $-1 $234 -26.714346425190875 $351 -20.514329418540349 $228 $352 forward 7 unknown #
coedge $-1 $353 $141 $350 $354 reversed $232 $-1 #
coedge $-1 $141 $353 $345 $355 reversed $232 $-1 #
loop $-1 $-1 $353 $331 #
vertex $-1 $355 $356 #
vertex $-1 $142 $357 #
straight-curve $-1 -50.328684347056488 -16.1313312903882 0 0 0 1 I I #
face $-1 $358 $359 $32 $-1 $360 reversed single #
loop $-1 $-1 $361 $143 #
plane-surface $-1 54.291497331858601 0 -7.113987213922278 0 0 1 1 0 0 forward_v I I I I #
coedge $-1 $247 $246 $362 $363 forward $144 $-1 #
coedge $-1 $364 $146 $365 $366 reversed $91 $-1 #
coedge $-1 $146 $364 $246 $367 reversed $91 $-1 #
edge $-1 $248 4.113987213922278 $368 7.113987213922278 $146 $369 forward 7 unknown #
coedge $-1 $148 $147 $370 $371 forward $60 $-1 #
coedge $-1 $372 $373 $147 $245 forward $374 $-1 #
edge $-1 $375 -7.113987213922278 $249 -4.113987213922278 $244 $376 forward 7 unknown #
coedge $-1 $239 $149 $241 $367 forward $144 $-1 #
coedge $-1 $149 $239 $372 $377 forward $144 $-1 #
vertex $-1 $242 $378 #
vertex $-1 $377 $379 #
straight-curve $-1 50.328684347056488 0 -4.113987213922278 0 1 0 I I #
face $-1 $-1 $263 $33 $-1 $380 forward single #
loop $-1 $-1 $381 $151 #
plane-surface $-1 0 29.855460302523266 0 0 -1 0 0 0 -1 forward_v I I I I #
coedge $-1 $382 $383 $384 $385 reversed $152 $-1 #
coedge $-1 $386 $154 $156 $261 forward $95 $-1 #
coedge $-1 $154 $386 $382 $387 forward $95 $-1 #
coedge $-1 $384 $157 $154 $258 forward $263 $-1 #
edge $-1 $265 3.8452065400667301 $388 26.986970071612593 $257 $389 forward 7 unknown #
coedge $-1 $390 $391 $155 $260 forward $252 $-1 #
edge $-1 $392 -58.392699251513406 $264 -49.692812987759666 $259 $393 forward 7 unknown #
edge $-1 $265 42.31114831065203 $392 59.710920605046525 $156 $394 forward 7 unknown #
coedge $-1 $157 $384 $390 $395 forward $263 $-1 #
loop $-1 $-1 $384 $251 #
vertex $-1 $260 $396 #
vertex $-1 $158 $397 #
straight-curve $-1 19.261294845906392 14.236485713731986 8.9417864411420922 0 -1 0 I I #
coedge $-1 $267 $267 $-1 $398 reversed $161 $-1 #
edge $-1 $399 0 $399 6.2831853071795862 $162 $400 forward 7 unknown #
vertex $-1 $165 $401 #
ellipse-curve $-1 25.873227283490912 22.321137922665081 4.5918433092652187 0 0.50000000669873634 0.8660253999169214 2.5 0 0 1 I I #
coedge $-1 $271 $271 $-1 $402 reversed $168 $-1 #
edge $-1 $403 0 $403 6.2831853071795862 $169 $404 forward 7 unknown #
vertex $-1 $172 $405 #
ellipse-curve $-1 35.791125939867705 22.321137922665081 4.5918433092652187 0 0.50000000669873634 0.8660253999169214 2.5 0 0 1 I I #
face $-1 $-1 $406 $36 $-1 $407 reversed single #
loop $-1 $-1 $179 $173 #
plane-surface $-1 0 0 8.9417864411420886 0 0 1 1 0 0 forward_v I I I I #
coedge $-1 $408 $409 $410 $411 reversed $174 $-1 #
coedge $-1 $412 $176 $178 $285 forward $109 $-1 #
coedge $-1 $176 $412 $408 $413 forward $109 $-1 #
coedge $-1 $410 $179 $176 $282 forward $276 $-1 #
edge $-1 $288 -26.881865463819057 $414 -4.1605203634473362 $281 $415 forward 7 unknown #
coedge $-1 $416 $417 $177 $284 forward $406 $-1 #
edge $-1 $418 -39.061654758326974 $287 -35.445298909044396 $283 $419 forward 7 unknown #
edge $-1 $288 -6.4670988845464343 $418 4.4353223341415584e-015 $178 $420 forward 7 unknown #
coedge $-1 $179 $410 $416 $421 forward $276 $-1 #
vertex $-1 $180 $422 #
vertex $-1 $180 $423 #
straight-curve $-1 42.403058377452254 -43.07117364492624 8.9417864411420922 0 1 0 I I #
coedge $-1 $290 $290 $-1 $424 reversed $183 $-1 #
edge $-1 $425 0 $425 6.2831853071795862 $184 $426 forward 7 unknown #
vertex $-1 $187 $427 #
ellipse-curve $-1 26.17352616290102 -27.174726338015528 7.133608516500801 0 -0.55919291073839883 0.82903756765294845 1 0 0 1 I I #
coedge $-1 $294 $294 $-1 $428 reversed $190 $-1 #
edge $-1 $429 0 $429 6.2831853071795862 $191 $430 forward 7 unknown #
vertex $-1 $194 $431 #
ellipse-curve $-1 35.911245491631753 -27.174726338015528 7.133608516500801 0 -0.55919291073839883 0.82903756765294845 1 0 0 1 I I #
model_id-kcp-attrib $-1 $-1 $-1 $196 1 987433917 234 -1075183614 5 #
face $432 $433 $434 $51 $-1 $435 reversed single #
loop $-1 $-1 $436 $196 #
plane-surface $-1 0 -29.855460302523266 0 0 1 0 0 0 1 forward_v I I I I #
coedge $-1 $437 $438 $439 $440 forward $197 $-1 #
coedge $-1 $441 $199 $442 $443 forward $124 $-1 #
coedge $-1 $199 $441 $444 $445 forward $124 $-1 #
coedge $-1 $446 $447 $199 $306 reversed $448 $-1 #
edge $-1 $449 -29.855460302523266 $450 29.855460302523266 $305 $451 forward 7 unknown #
model_id-kcp-attrib $-1 $-1 $-1 $201 1 987433917 218 -1076232191 6 #
face $452 $-1 $212 $30 $-1 $453 reversed single #
loop $-1 $-1 $454 $201 #
plane-surface $-1 -50.328684347056488 0 0 1 0 0 0 0 -1 forward_v I I I I #
coedge $-1 $455 $316 $456 $457 forward $202 $-1 #
coedge $-1 $458 $204 $455 $459 forward $128 $-1 #
coedge $-1 $204 $458 $210 $327 forward $128 $-1 #
coedge $-1 $206 $205 $460 $461 forward $83 $-1 #
edge $462 $214 -50.328684347056488 $463 50.328684347056488 $211 $464 forward 7 unknown #
coedge $-1 $311 $321 $206 $317 reversed $202 $-1 #
edge $465 $466 -50.328684347056488 $319 50.328684347056488 $316 $467 forward 7 unknown #
attrib_edge_convexity-kcp-attrib $-1 $468 $-1 $207 1 #
vertex $-1 $207 $469 #
straight-curve $-1 50.328684347056488 0 8.9417864411420886 0 1 0 I I #
coedge $-1 $316 $455 $208 $322 reversed $202 $-1 #
edge $470 $319 -8.9417864411420886 $324 8.9417864411420886 $208 $471 forward 7 unknown #
attrib_edge_convexity-kcp-attrib $-1 $472 $-1 $209 1 #
vertex $-1 $322 $473 #
straight-curve $-1 50.328684347056488 0 -8.9417864411420886 0 -1 0 I I #
coedge $-1 $211 $210 $454 $474 reversed $212 $-1 #
edge $-1 $475 -50.328684347056488 $215 50.328684347056488 $210 $476 forward 7 unknown #
convexity-sys-attrib $-1 $-1 $213 $134 #
point $-1 50.328684347056488 29.855460302523266 8.9417864411420886 #
point $-1 50.328684347056488 29.855460302523266 -8.9417864411420886 #
face $-1 $-1 $232 $31 $-1 $477 reversed single #
loop $-1 $-1 $340 $217 #
plane-surface $-1 0 0 8.9417864411420886 0 0 1 1 0 0 forward_v I I I I #
coedge $-1 $346 $345 $221 $339 forward $218 $-1 #
coedge $-1 $223 $220 $346 $478 reversed $136 $-1 #
coedge $-1 $220 $223 $349 $479 reversed $136 $-1 #
edge $-1 $351 -8.9417864411420886 $347 8.9417864411420886 $220 $480 forward 7 unknown #
coedge $-1 $222 $221 $353 $481 reversed $87 $-1 #
edge $-1 $482 -26.714346425190875 $343 -20.514329418540349 $334 $483 forward 7 unknown #
coedge $-1 $350 $349 $222 $341 forward $332 $-1 #
edge $-1 $342 20.514329418540349 $484 26.714346425190875 $340 $485 forward 7 unknown #
vertex $-1 $341 $486 #
vertex $-1 $339 $487 #
straight-curve $-1 -44.128667340405961 -11.971887420239089 0 0 0 -1 I I #
coedge $-1 $334 $226 $231 $355 forward $218 $-1 #
coedge $-1 $226 $334 $335 $478 forward $218 $-1 #
vertex $-1 $227 $488 #
straight-curve $-1 -23.614337921865612 -16.1313312903882 -8.9417864411420886 -1 0 0 I I #
coedge $-1 $340 $228 $336 $479 forward $332 $-1 #
coedge $-1 $228 $340 $230 $354 forward $332 $-1 #
vertex $-1 $229 $489 #
straight-curve $-1 -23.614337921865612 -16.1313312903882 8.9417864411420886 1 0 0 I I #
coedge $-1 $231 $230 $338 $481 forward $232 $-1 #
edge $-1 $484 11.971887420239089 $234 16.1313312903882 $230 $490 forward 7 unknown #
edge $-1 $233 -16.1313312903882 $482 -11.971887420239089 $231 $491 forward 7 unknown #
point $-1 -50.328684347056488 -16.1313312903882 -8.9417864411420886 #
point $-1 -50.328684347056488 -16.1313312903882 8.9417864411420886 #
face $-1 $-1 $374 $32 $-1 $492 reversed single #
loop $-1 $-1 $493 $236 #
plane-surface $-1 58.254310316660721 0 -5.613987213922278 -1 0 0 0 0 1 forward_v I I I I #
coedge $-1 $365 $494 $495 $496 forward $237 $-1 #
coedge $-1 $493 $497 $239 $363 reversed $359 $-1 #
edge $-1 $498 -29.855460302523266 $499 29.855460302523266 $362 $500 forward 7 unknown #
coedge $-1 $241 $240 $493 $501 reversed $91 $-1 #
coedge $-1 $370 $361 $240 $366 forward $237 $-1 #
edge $-1 $502 -3.9628129848021203 $368 3.9628129848021203 $240 $503 forward 7 unknown #
edge $-1 $248 -3.9628129848021203 $498 3.9628129848021203 $241 $504 forward 7 unknown #
vertex $-1 $242 $505 #
straight-curve $-1 50.328684347056488 -29.855460302523266 0 0 0 -1 I I #
coedge $-1 $494 $365 $243 $371 reversed $237 $-1 #
edge $-1 $375 -29.855460302523266 $368 29.855460302523266 $370 $506 forward 7 unknown #
coedge $-1 $507 $244 $247 $377 reversed $374 $-1 #
coedge $-1 $244 $507 $494 $508 reversed $374 $-1 #
loop $-1 $-1 $244 $358 #
vertex $-1 $245 $509 #
straight-curve $-1 50.328684347056488 29.855460302523266 0 0 0 1 I I #
edge $-1 $499 -3.9628129848021203 $249 3.9628129848021203 $372 $510 forward 7 unknown #
point $-1 50.32868434705648 -29.855460302523266 -4.113987213922278 #
point $-1 50.32868434705648 29.855460302523266 -4.113987213922278 #
plane-surface $-1 0 0 8.9417864411420886 0 0 1 1 0 0 forward_v I I I I #
coedge $-1 $391 $390 $383 $511 forward $252 $-1 #
coedge $-1 $383 $254 $256 $387 reversed $152 $-1 #
coedge $-1 $254 $382 $381 $511 reversed $152 $-1 #
coedge $-1 $262 $257 $254 $385 forward $263 $-1 #
edge $-1 $388 0.55032982907491679 $512 15.61897458879128 $384 $513 forward 7 unknown #
coedge $-1 $256 $255 $391 $514 reversed $95 $-1 #
edge $-1 $515 -59.710920605046525 $388 -42.31114831065203 $382 $516 forward 7 unknown #
vertex $-1 $258 $517 #
straight-curve $-1 15.416088305839661 14.786815542806893 8.9417864411420886 1 0 0 I I #
coedge $-1 $381 $259 $262 $395 reversed $252 $-1 #
coedge $-1 $259 $381 $386 $514 forward $252 $-1 #
vertex $-1 $260 $518 #
straight-curve $-1 19.261294845906392 29.855460302523266 58.634599428901758 0 0 1 I I #
straight-curve $-1 19.261294845906392 -21.855713593869691 30.097360879899327 0 0.8660253999169214 -0.50000000669873634 I I #
edge $-1 $512 -42.403058377452254 $264 -19.261294845906392 $390 $519 forward 7 unknown #
point $-1 19.261294845906392 29.855460302523266 8.9417864411420886 #
point $-1 19.261294845906392 14.786815542806902 8.9417864411420886 #
edge $-1 $520 1 $520 0 $267 $-1 forward 7 unknown #
vertex $-1 $268 $521 #
ellipse-curve $-1 25.873227283490912 19.276992857924196 -0.68077051428977553 0 0.50000000669873634 0.8660253999169214 2.5 0 0 1 I I #
point $-1 28.373227283490912 22.321137922665077 4.5918433092652116 #
edge $-1 $522 1 $522 0 $271 $-1 forward 7 unknown #
vertex $-1 $272 $523 #
ellipse-curve $-1 35.791125939867705 19.276992857924196 -0.68077051428977553 0 0.50000000669873634 0.8660253999169214 2.5 0 0 1 I I #
point $-1 38.291125939867705 22.321137922665077 4.5918433092652116 #
loop $-1 $-1 $283 $275 #
plane-surface $-1 0 -29.855460302523266 0 0 1 0 0 0 1 forward_v I I I I #
coedge $-1 $409 $278 $280 $413 reversed $174 $-1 #
coedge $-1 $278 $408 $524 $525 reversed $174 $-1 #
coedge $-1 $286 $281 $278 $411 forward $276 $-1 #
edge $-1 $414 -18.57718127141845 $526 -13.215713342402974 $410 $527 forward 7 unknown #
coedge $-1 $280 $279 $417 $528 reversed $109 $-1 #
edge $-1 $529 -4.4353223341415584e-015 $414 6.4670988845464343 $408 $530 forward 7 unknown #
vertex $-1 $282 $531 #
straight-curve $-1 15.521192913633197 -24.493992373507787 8.9417864411420886 -1 0 0 I I #
coedge $-1 $524 $283 $286 $421 reversed $406 $-1 #
coedge $-1 $283 $524 $412 $528 forward $406 $-1 #
vertex $-1 $284 $532 #
straight-curve $-1 42.403058377452254 -29.855460302523266 44.387085350186489 0 0 1 I I #
straight-curve $-1 42.403058377452254 -29.855460302523262 5.3254305918595151 0 -0.82903756765294845 -0.55919291073839883 I I #
edge $-1 $526 19.681713277080533 $287 42.403058377452254 $416 $533 forward 7 unknown #
point $-1 42.403058377452254 -29.855460302523266 8.9417864411420886 #
point $-1 42.403058377452254 -24.49399237350779 8.9417864411420886 #
edge $-1 $534 1 $534 0 $290 $-1 forward 7 unknown #
vertex $-1 $291 $535 #
ellipse-curve $-1 26.17352616290102 -25.817471435707244 5.1213954120662608 0 -0.55919291073839883 0.82903756765294845 1 0 0 1 I I #
point $-1 27.17352616290102 -27.174726338015532 7.1336085165008027 #
edge $-1 $536 1 $536 0 $294 $-1 forward 7 unknown #
vertex $-1 $295 $537 #
ellipse-curve $-1 35.911245491631753 -25.817471435707244 5.1213954120662608 0 -0.55919291073839883 0.82903756765294845 1 0 0 1 I I #
point $-1 36.911245491631753 -27.174726338015532 7.1336085165008027 #
model_id-kcp-attrib $-1 $-1 $-1 $299 1 987433917 234 -1075183614 6 #
face $538 $539 $540 $51 $-1 $541 reversed single #
loop $-1 $-1 $542 $299 #
plane-surface $-1 -50.328684347056488 0 0 1 0 0 0 0 -1 forward_v I I I I #
coedge $-1 $543 $444 $544 $545 forward $300 $-1 #
coedge $-1 $546 $302 $543 $547 forward $197 $-1 #
coedge $-1 $302 $546 $548 $549 forward $197 $-1 #
coedge $-1 $447 $446 $302 $440 reversed $448 $-1 #
edge $-1 $550 -29.855460302523266 $551 29.855460302523266 $439 $552 forward 7 unknown #
coedge $-1 $304 $303 $553 $554 forward $124 $-1 #
coedge $-1 $555 $556 $303 $443 reversed $540 $-1 #
edge $-1 $450 -50.328684347056488 $557 50.328684347056488 $442 $558 forward 7 unknown #
coedge $-1 $436 $559 $304 $445 reversed $300 $-1 #
edge $-1 $560 -50.328684347056488 $449 50.328684347056488 $444 $561 forward 7 unknown #
coedge $-1 $439 $305 $559 $562 forward $448 $-1 #
coedge $-1 $305 $439 $555 $563 reversed $448 $-1 #
loop $-1 $-1 $446 $539 #
vertex $-1 $306 $564 #
vertex $-1 $306 $565 #
straight-curve $-1 50.328684347056488 0 8.9417864411420886 0 1 0 I I #
model_id-kcp-attrib $-1 $-1 $-1 $308 1 987433917 218 -1076232191 7 #
plane-surface $-1 0 29.855460302523266 0 0 -1 0 0 0 -1 forward_v I I I I #
coedge $-1 $566 $460 $326 $474 forward $309 $-1 #
coedge $-1 $321 $311 $312 $459 reversed $202 $-1 #
coedge $-1 $460 $566 $311 $457 reversed $309 $-1 #
edge $567 $466 -8.9417864411420886 $568 8.9417864411420886 $456 $569 forward 7 unknown #
coedge $-1 $313 $312 $566 $570 forward $128 $-1 #
edge $571 $324 -50.328684347056488 $568 50.328684347056488 $455 $572 forward 7 unknown #
coedge $-1 $454 $456 $314 $461 reversed $309 $-1 #
edge $573 $463 -29.855460302523266 $466 29.855460302523266 $460 $574 forward 7 unknown #
attrib_edge_convexity-kcp-attrib $-1 $575 $-1 $315 1 #
vertex $-1 $315 $576 #
straight-curve $-1 0 29.855460302523266 8.9417864411420886 -1 0 0 I I #
attrib_edge_convexity-kcp-attrib $-1 $577 $-1 $317 1 #
vertex $-1 $461 $578 #
straight-curve $-1 0 -29.855460302523266 8.9417864411420886 1 0 0 I I #
convexity-sys-attrib $-1 $-1 $318 $207 #
point $-1 50.328684347056488 -29.855460302523266 8.9417864411420886 #
attrib_edge_convexity-kcp-attrib $-1 $579 $-1 $322 1 #
straight-curve $-1 50.328684347056488 -29.855460302523266 0 0 0 -1 I I #
convexity-sys-attrib $-1 $-1 $323 $209 #
point $-1 50.328684347056488 -29.855460302523266 -8.9417864411420886 #
edge $-1 $463 -8.9417864411420886 $475 8.9417864411420886 $326 $580 forward 7 unknown #
vertex $-1 $327 $581 #
straight-curve $-1 0 29.855460302523266 -8.9417864411420886 1 0 0 I I #
plane-surface $-1 -50.328684347056488 0 0 1 0 0 0 0 -1 forward_v I I I I #
edge $-1 $343 4.9460827425822664 $347 9.1055266127313779 $346 $582 forward 7 unknown #
edge $-1 $351 -9.1055266127313779 $342 -4.9460827425822664 $349 $583 forward 7 unknown #
straight-curve $-1 -44.128667340405961 -16.1313312903882 0 0 0 -1 I I #
edge $-1 $484 -8.9417864411420886 $482 8.9417864411420886 $353 $584 forward 7 unknown #
vertex $-1 $481 $585 #
straight-curve $-1 -23.614337921865612 -11.971887420239089 -8.9417864411420886 1 0 0 I I #
vertex $-1 $354 $586 #
straight-curve $-1 -23.614337921865612 -11.971887420239089 8.9417864411420886 -1 0 0 I I #
point $-1 -44.128667340405961 -11.971887420239089 8.9417864411420886 #
point $-1 -44.128667340405961 -11.971887420239089 -8.9417864411420886 #
point $-1 -44.128667340405961 -16.1313312903882 -8.9417864411420886 #
point $-1 -44.128667340405961 -16.1313312903882 8.9417864411420886 #
straight-curve $-1 -50.328684347056488 0 8.9417864411420886 0 -1 0 I I #
straight-curve $-1 -50.328684347056488 0 -8.9417864411420886 0 1 0 I I #
plane-surface $-1 0 29.855460302523266 0 0 -1 0 0 0 -1 forward_v I I I I #
coedge $-1 $495 $362 $364 $501 forward $359 $-1 #
coedge $-1 $361 $370 $373 $508 forward $237 $-1 #
coedge $-1 $497 $493 $361 $496 reversed $359 $-1 #
edge $-1 $587 -29.855460302523266 $502 29.855460302523266 $495 $588 forward 7 unknown #
coedge $-1 $362 $495 $507 $589 reversed $359 $-1 #
vertex $-1 $363 $590 #
vertex $-1 $363 $591 #
straight-curve $-1 58.254310316660721 0 -4.113987213922278 0 1 0 I I #
edge $-1 $498 -1.5 $502 1.5 $493 $592 forward 7 unknown #
vertex $-1 $501 $593 #
straight-curve $-1 54.291497331858601 -29.855460302523266 -7.113987213922278 -1 0 0 I I #
straight-curve $-1 54.291497331858601 -29.855460302523266 -4.113987213922278 1 0 0 I I #
point $-1 50.32868434705648 -29.855460302523266 -7.113987213922278 #
straight-curve $-1 50.328684347056488 0 -7.113987213922278 0 -1 0 I I #
coedge $-1 $373 $372 $497 $589 forward $374 $-1 #
edge $-1 $375 -3.9628129848021203 $587 3.9628129848021203 $373 $594 forward 7 unknown #
point $-1 50.32868434705648 29.855460302523266 -7.113987213922278 #
straight-curve $-1 54.291497331858601 29.855460302523266 -4.113987213922278 -1 0 0 I I #
edge $-1 $512 49.692812987759666 $515 58.392699251513406 $381 $595 forward 7 unknown #
vertex $-1 $395 $596 #
straight-curve $-1 42.403058377452254 14.236485713731986 8.9417864411420922 0 1 0 I I #
edge $-1 $515 -26.986970071612593 $392 -3.8452065400667301 $391 $597 forward 7 unknown #
vertex $-1 $514 $598 #
straight-curve $-1 42.403058377452254 -21.855713593869691 30.097360879899327 0 -0.8660253999169214 0.50000000669873634 I I #
point $-1 42.403058377452254 14.786815542806902 8.9417864411420886 #
point $-1 19.261294845906392 29.855460302523266 0.24190017738835223 #
straight-curve $-1 0 29.855460302523266 8.9417864411420886 -1 0 0 I I #
vertex $-1 $398 $599 #
point $-1 28.373227283490912 19.276992857924196 -0.68077051428977553 #
vertex $-1 $402 $600 #
point $-1 38.291125939867705 19.276992857924196 -0.68077051428977553 #
coedge $-1 $417 $416 $409 $525 forward $406 $-1 #
edge $-1 $526 35.445298909044396 $529 39.061654758326974 $524 $601 forward 7 unknown #
vertex $-1 $421 $602 #
straight-curve $-1 19.681713277080533 -43.07117364492624 8.9417864411420922 0 -1 0 I I #
edge $-1 $529 4.1605203634473362 $418 26.881865463819057 $417 $603 forward 7 unknown #
vertex $-1 $528 $604 #
straight-curve $-1 19.681713277080533 -29.855460302523262 5.3254305918595151 0 0.82903756765294845 0.55919291073839883 I I #
point $-1 19.681713277080533 -24.49399237350779 8.9417864411420886 #
point $-1 42.403058377452254 -29.855460302523266 5.3254305918595124 #
straight-curve $-1 0 -29.855460302523266 8.9417864411420886 1 0 0 I I #
vertex $-1 $424 $605 #
point $-1 27.17352616290102 -25.817471435707244 5.1213954120662608 #
vertex $-1 $428 $606 #
point $-1 36.911245491631753 -25.817471435707244 5.1213954120662608 #
model_id-kcp-attrib $-1 $-1 $-1 $433 1 987433917 234 -1075183614 7 #
face $607 $-1 $448 $51 $-1 $608 reversed single #
loop $-1 $-1 $555 $433 #
plane-surface $-1 0 29.855460302523266 0 0 -1 0 0 0 -1 forward_v I I I I #
coedge $-1 $609 $553 $556 $610 forward $434 $-1 #
coedge $-1 $559 $436 $437 $547 reversed $300 $-1 #
coedge $-1 $553 $609 $436 $545 reversed $434 $-1 #
edge $-1 $560 -8.9417864411420886 $611 8.9417864411420886 $544 $612 forward 7 unknown #
coedge $-1 $438 $437 $609 $613 forward $197 $-1 #
edge $-1 $551 -50.328684347056488 $611 50.328684347056488 $543 $614 forward 7 unknown #
coedge $-1 $556 $555 $438 $549 reversed $540 $-1 #
edge $-1 $615 -50.328684347056488 $550 50.328684347056488 $548 $616 forward 7 unknown #
vertex $-1 $440 $617 #
vertex $-1 $562 $618 #
straight-curve $-1 50.328684347056488 0 -8.9417864411420886 0 -1 0 I I #
coedge $-1 $542 $544 $441 $554 reversed $434 $-1 #
edge $-1 $557 -29.855460302523266 $560 29.855460302523266 $553 $619 forward 7 unknown #
coedge $-1 $548 $442 $447 $563 forward $540 $-1 #
coedge $-1 $442 $548 $542 $610 reversed $540 $-1 #
vertex $-1 $443 $620 #
straight-curve $-1 0 29.855460302523266 8.9417864411420886 -1 0 0 I I #
coedge $-1 $444 $543 $446 $562 reversed $300 $-1 #
vertex $-1 $554 $621 #
straight-curve $-1 0 -29.855460302523266 8.9417864411420886 1 0 0 I I #
edge $-1 $449 -8.9417864411420886 $551 8.9417864411420886 $446 $622 forward 7 unknown #
edge $-1 $450 -8.9417864411420886 $550 8.9417864411420886 $447 $623 forward 7 unknown #
point $-1 50.328684347056488 -29.855460302523266 8.9417864411420886 #
point $-1 50.328684347056488 29.855460302523266 8.9417864411420886 #
coedge $-1 $456 $454 $458 $570 reversed $309 $-1 #
attrib_edge_convexity-kcp-attrib $-1 $624 $-1 $457 1 #
vertex $-1 $570 $625 #
straight-curve $-1 -50.328684347056488 -29.855460302523266 0 0 0 -1 I I #
edge $-1 $568 -29.855460302523266 $475 29.855460302523266 $566 $626 forward 7 unknown #
attrib_edge_convexity-kcp-attrib $-1 $627 $-1 $459 1 #
straight-curve $-1 0 -29.855460302523266 -8.9417864411420886 -1 0 0 I I #
attrib_edge_convexity-kcp-attrib $-1 $628 $-1 $461 1 #
straight-curve $-1 -50.328684347056488 0 8.9417864411420886 0 -1 0 I I #
convexity-sys-attrib $-1 $-1 $462 $315 #
point $-1 -50.328684347056488 29.855460302523266 8.9417864411420886 #
convexity-sys-attrib $-1 $-1 $465 $317 #
point $-1 -50.328684347056488 -29.855460302523266 8.9417864411420886 #
convexity-sys-attrib $-1 $-1 $470 $322 #
straight-curve $-1 -50.328684347056488 29.855460302523266 0 0 0 -1 I I #
point $-1 -50.328684347056488 29.855460302523266 -8.9417864411420886 #
straight-curve $-1 -44.128667340405961 -7.0258046776568222 -8.9417864411420886 0 -1 0 I I #
straight-curve $-1 -44.128667340405961 -7.0258046776568222 8.9417864411420886 0 1 0 I I #
straight-curve $-1 -50.328684347056488 -11.971887420239089 0 0 0 -1 I I #
point $-1 -50.328684347056488 -11.971887420239089 -8.9417864411420886 #
point $-1 -50.328684347056488 -11.971887420239089 8.9417864411420886 #
vertex $-1 $496 $629 #
straight-curve $-1 58.254310316660721 0 -7.113987213922278 0 -1 0 I I #
edge $-1 $499 -1.5 $587 1.5 $497 $630 forward 7 unknown #
point $-1 58.254310316660721 -29.855460302523266 -4.113987213922278 #
point $-1 58.254310316660721 29.855460302523266 -4.113987213922278 #
straight-curve $-1 58.254310316660721 -29.855460302523266 -5.613987213922278 0 0 -1 I I #
point $-1 58.254310316660721 -29.855460302523266 -7.113987213922278 #
straight-curve $-1 54.291497331858601 29.855460302523266 -7.113987213922278 1 0 0 I I #
straight-curve $-1 42.403058377452254 29.855460302523266 58.634599428901758 0 0 -1 I I #
point $-1 42.403058377452254 29.855460302523266 8.9417864411420886 #
straight-curve $-1 15.416088305839661 29.855460302523262 0.24190017738835046 -1 0 0 I I #
point $-1 42.403058377452254 29.855460302523266 0.24190017738835223 #
point $-1 25.873227283490912 18.026992841177357 -2.8458340140820799 #
point $-1 35.791125939867705 18.026992841177357 -2.8458340140820799 #
straight-curve $-1 19.681713277080533 -29.855460302523266 44.387085350186489 0 0 -1 I I #
point $-1 19.681713277080533 -29.855460302523266 8.9417864411420886 #
straight-curve $-1 15.521192913633197 -29.855460302523266 5.3254305918595124 1 0 0 I I #
point $-1 19.681713277080533 -29.855460302523266 5.3254305918595124 #
point $-1 26.17352616290102 -25.258278524968848 4.2923578444133126 #
point $-1 35.911245491631753 -25.258278524968848 4.2923578444133126 #
model_id-kcp-attrib $-1 $-1 $-1 $539 1 987433917 234 -1075183614 2 #
plane-surface $-1 50.328684347056488 0 0 -1 0 0 0 0 1 forward_v I I I I #
coedge $-1 $544 $542 $546 $613 reversed $434 $-1 #
edge $-1 $557 -8.9417864411420886 $615 8.9417864411420886 $556 $631 forward 7 unknown #
vertex $-1 $613 $632 #
straight-curve $-1 -50.328684347056488 -29.855460302523266 0 0 0 -1 I I #
edge $-1 $611 -29.855460302523266 $615 29.855460302523266 $609 $633 forward 7 unknown #
straight-curve $-1 0 -29.855460302523266 -8.9417864411420886 -1 0 0 I I #
vertex $-1 $549 $634 #
straight-curve $-1 0 29.855460302523266 -8.9417864411420886 1 0 0 I I #
point $-1 50.328684347056488 29.855460302523266 -8.9417864411420886 #
point $-1 50.328684347056488 -29.855460302523266 -8.9417864411420886 #
straight-curve $-1 -50.328684347056488 0 8.9417864411420886 0 -1 0 I I #
point $-1 -50.328684347056488 29.855460302523266 8.9417864411420886 #
point $-1 -50.328684347056488 -29.855460302523266 8.9417864411420886 #
straight-curve $-1 50.328684347056488 -29.855460302523266 0 0 0 -1 I I #
straight-curve $-1 50.328684347056488 29.855460302523266 0 0 0 -1 I I #
convexity-sys-attrib $-1 $-1 $567 $457 #
point $-1 -50.328684347056488 -29.855460302523266 -8.9417864411420886 #
straight-curve $-1 -50.328684347056488 0 -8.9417864411420886 0 1 0 I I #
convexity-sys-attrib $-1 $-1 $571 $459 #
convexity-sys-attrib $-1 $-1 $573 $461 #
point $-1 58.254310316660721 29.855460302523266 -7.113987213922278 #
straight-curve $-1 58.254310316660721 29.855460302523266 -5.613987213922278 0 0 -1 I I #
straight-curve $-1 -50.328684347056488 29.855460302523266 0 0 0 -1 I I #
point $-1 -50.328684347056488 -29.855460302523266 -8.9417864411420886 #
straight-curve $-1 -50.328684347056488 0 -8.9417864411420886 0 1 0 I I #
point $-1 -50.328684347056488 29.855460302523266 -8.9417864411420886 #
End-of-ACIS-data 