300 0 11 0           
7 Unknown 11 ACIS 3.0 NT 24 Fri Oct 30 14:06:38 1998 
-1 9.9999999999999995e-007 1e-010 
body $11 $12 $-1 $13 #
body $14 $15 $-1 $16 #
body $17 $18 $-1 $19 #
body $20 $21 $-1 $22 #
body $23 $24 $-1 $25 #
body $26 $27 $-1 $28 #
body $29 $30 $-1 $31 #
body $32 $33 $-1 $34 #
body $35 $36 $-1 $37 #
body $38 $39 $-1 $40 #
body $41 $42 $-1 $43 #
display_attribute-st-attrib $-1 $44 $-1 $0 1 #
lump $-1 $-1 $45 $0 #
transform $-1 1 0 0 0 1 0 0 0 1 45.254066591387677 26.615197244055 9.7391949069305301 1 rotate no_reflect no_shear #
display_attribute-st-attrib $-1 $46 $-1 $1 1 #
lump $-1 $-1 $47 $1 #
transform $-1 1 0 0 0 1 0 0 0 1 45.254066591387677 4.8801935501000528 4.6179545532376647 1 rotate no_reflect no_shear #
display_attribute-st-attrib $-1 $48 $-1 $2 1 #
lump $-1 $-1 $49 $2 #
transform $-1 1 0 0 0 1 0 0 0 1 45.254066591387677 48.350200938009948 4.6179545532376647 1 rotate no_reflect no_shear #
display_attribute-st-attrib $-1 $50 $-1 $3 1 #
lump $-1 $-1 $51 $3 #
transform $-1 0.70710677298230451 0 0.70710678939079041 0 1 0 -0.70710678939079041 0 0.70710677298230451 -63.998915468626336 17.938686140400296 77.219899429089651 1 rotate no_reflect no_shear #
display_attribute-st-attrib $-1 $52 $-1 $4 1 #
lump $-1 $-1 $53 $4 #
transform $-1 0.70710677298230451 0 0.70710678939079041 0 -1 0 0.70710678939079041 0 -0.70710677298230451 4.1060263282283991 15.486738194738578 15.372363435709712 1 rotate no_reflect no_shear #
display_attribute-st-attrib $-1 $54 $-1 $5 1 #
lump $-1 $-1 $55 $5 #
transform $-1 0.70710677298230451 0 0.70710678939079041 0 -1 0 0.70710678939079041 0 -0.70710677298230451 4.1060263282283991 17.938686140400296 15.372363435709712 1 rotate no_reflect no_shear #
display_attribute-st-attrib $-1 $56 $-1 $6 1 #
lump $-1 $-1 $57 $6 #
transform $-1 0.70710677298230451 0 0.70710678939079041 0 -1 0 0.70710678939079041 0 -0.70710677298230451 4.1060263282283991 20.390634086062015 15.372363435709712 1 rotate no_reflect no_shear #
display_attribute-st-attrib $-1 $58 $-1 $7 1 #
lump $-1 $-1 $59 $7 #
transform $-1 0.70710677298230451 0 0.70710678939079041 0 1 0 -0.70710678939079041 0 0.70710677298230451 -63.998915468626336 34.793496284255191 77.219899429089651 1 rotate no_reflect no_shear #
display_attribute-st-attrib $-1 $60 $-1 $8 1 #
lump $-1 $-1 $61 $8 #
transform $-1 0.70710677298230451 0 0.70710678939079041 0 -1 0 0.70710678939079041 0 -0.70710677298230451 4.1060263282283991 32.341548338593469 15.372363435709712 1 rotate no_reflect no_shear #
display_attribute-st-attrib $-1 $62 $-1 $9 1 #
lump $-1 $-1 $63 $9 #
transform $-1 0.70710677298230451 0 0.70710678939079041 0 -1 0 0.70710678939079041 0 -0.70710677298230451 4.1060263282283991 34.793496284255191 15.372363435709712 1 rotate no_reflect no_shear #
display_attribute-st-attrib $-1 $64 $-1 $10 1 #
lump $-1 $-1 $65 $10 #
transform $-1 0.70710677298230451 0 0.70710678939079041 0 -1 0 0.70710678939079041 0 -0.70710677298230451 4.1060263282283991 37.245444229916913 15.372363435709712 1 rotate no_reflect no_shear #
id_attribute-st-attrib $-1 $-1 $11 $0 542 #
shell $-1 $-1 $-1 $66 $-1 $12 #
id_attribute-st-attrib $-1 $-1 $14 $1 547 #
shell $-1 $-1 $-1 $67 $-1 $15 #
id_attribute-st-attrib $-1 $-1 $17 $2 555 #
shell $-1 $-1 $-1 $68 $-1 $18 #
id_attribute-st-attrib $-1 $-1 $20 $3 574 #
shell $-1 $-1 $-1 $69 $-1 $21 #
id_attribute-st-attrib $-1 $-1 $23 $4 583 #
shell $-1 $-1 $-1 $70 $-1 $24 #
id_attribute-st-attrib $-1 $-1 $26 $5 593 #
shell $-1 $-1 $-1 $71 $-1 $27 #
id_attribute-st-attrib $-1 $-1 $29 $6 604 #
shell $-1 $-1 $-1 $72 $-1 $30 #
id_attribute-st-attrib $-1 $-1 $32 $7 616 #
shell $-1 $-1 $-1 $73 $-1 $33 #
id_attribute-st-attrib $-1 $-1 $35 $8 629 #
shell $-1 $-1 $-1 $74 $-1 $36 #
id_attribute-st-attrib $-1 $-1 $38 $9 643 #
shell $-1 $-1 $-1 $75 $-1 $39 #
id_attribute-st-attrib $-1 $-1 $41 $10 658 #
shell $-1 $-1 $-1 $76 $-1 $42 #
face $-1 $77 $78 $45 $-1 $79 forward single #
face $-1 $80 $81 $47 $-1 $82 forward single #
face $-1 $83 $84 $49 $-1 $85 forward single #
face $-1 $86 $87 $51 $-1 $88 forward single #
face $-1 $89 $90 $53 $-1 $91 forward single #
face $-1 $92 $93 $55 $-1 $94 forward single #
face $-1 $95 $96 $57 $-1 $97 forward single #
face $-1 $98 $99 $59 $-1 $100 forward single #
face $-1 $101 $102 $61 $-1 $103 forward single #
face $-1 $104 $105 $63 $-1 $106 forward single #
face $-1 $107 $108 $65 $-1 $109 forward single #
face $-1 $110 $111 $45 $-1 $112 reversed single #
loop $-1 $-1 $113 $66 #
plane-surface $-1 0 0 9.7391949069305301 0 0 1 1 0 0 forward_v I I I I #
face $-1 $114 $115 $47 $-1 $116 reversed single #
loop $-1 $-1 $117 $67 #
plane-surface $-1 0 0 1.4999999999999998 0 0 1 1 0 0 forward_v I I I I #
face $-1 $118 $119 $49 $-1 $120 reversed single #
loop $-1 $-1 $121 $68 #
plane-surface $-1 0 0 1.4999999999999998 0 0 1 1 0 0 forward_v I I I I #
face $-1 $122 $123 $51 $-1 $124 reversed single #
loop $-1 $-1 $125 $69 #
plane-surface $-1 0 0 90.508133182775353 0 0 1 1 0 0 forward_v I I I I #
face $-1 $126 $127 $53 $-1 $128 forward single #
loop $-1 $129 $130 $70 #
cone-surface $-1 0 0 -0.81607257301553382 0 0 1 0.5 0 0 1 I I 0 1 forward I I I I #
face $-1 $131 $132 $55 $-1 $133 forward single #
loop $-1 $134 $135 $71 #
cone-surface $-1 0 0 -0.81607257301553382 0 0 1 0.5 0 0 1 I I 0 1 forward I I I I #
face $-1 $136 $137 $57 $-1 $138 forward single #
loop $-1 $139 $140 $72 #
cone-surface $-1 0 0 -0.81607257301553382 0 0 1 0.5 0 0 1 I I 0 1 forward I I I I #
face $-1 $141 $142 $59 $-1 $143 reversed single #
loop $-1 $-1 $144 $73 #
plane-surface $-1 0 0 90.508133182775353 0 0 1 1 0 0 forward_v I I I I #
face $-1 $145 $146 $61 $-1 $147 forward single #
loop $-1 $148 $149 $74 #
cone-surface $-1 0 0 -0.81607257301553382 0 0 1 0.5 0 0 1 I I 0 1 forward I I I I #
face $-1 $150 $151 $63 $-1 $152 forward single #
loop $-1 $153 $154 $75 #
cone-surface $-1 0 0 -0.81607257301553382 0 0 1 0.5 0 0 1 I I 0 1 forward I I I I #
face $-1 $155 $156 $65 $-1 $157 forward single #
loop $-1 $158 $159 $76 #
cone-surface $-1 0 0 -0.81607257301553382 0 0 1 0.5 0 0 1 I I 0 1 forward I I I I #
face $-1 $160 $161 $45 $-1 $162 reversed single #
loop $-1 $-1 $163 $77 #
plane-surface $-1 0 0 -9.7391949069305301 0 0 1 1 0 0 forward_v I I I I #
coedge $-1 $164 $165 $166 $167 forward $78 $-1 #
face $-1 $168 $169 $47 $-1 $170 reversed single #
loop $-1 $-1 $171 $80 #
plane-surface $-1 0 0 -1.4999999999999998 0 0 1 1 0 0 forward_v I I I I #
coedge $-1 $172 $173 $174 $175 forward $81 $-1 #
face $-1 $176 $177 $49 $-1 $178 reversed single #
loop $-1 $-1 $179 $83 #
plane-surface $-1 0 0 -1.4999999999999998 0 0 1 1 0 0 forward_v I I I I #
coedge $-1 $180 $181 $182 $183 forward $84 $-1 #
face $-1 $184 $185 $51 $-1 $186 reversed single #
loop $-1 $-1 $187 $86 #
plane-surface $-1 0 0 -90.508133182775353 0 0 1 1 0 0 forward_v I I I I #
coedge $-1 $188 $189 $190 $191 forward $87 $-1 #
face $-1 $-1 $192 $53 $-1 $193 forward single #
loop $-1 $-1 $194 $89 #
plane-surface $-1 0 0 -1.3821451460310676 0 0 -1 -1 0 0 forward_v I I I I #
loop $-1 $-1 $195 $70 #
coedge $-1 $130 $130 $194 $196 reversed $90 $-1 #
face $-1 $-1 $197 $55 $-1 $198 forward single #
loop $-1 $-1 $199 $92 #
plane-surface $-1 0 0 -1.3821451460310676 0 0 -1 -1 0 0 forward_v I I I I #
loop $-1 $-1 $200 $71 #
coedge $-1 $135 $135 $199 $201 reversed $93 $-1 #
face $-1 $-1 $202 $57 $-1 $203 forward single #
loop $-1 $-1 $204 $95 #
plane-surface $-1 0 0 -1.3821451460310676 0 0 -1 -1 0 0 forward_v I I I I #
loop $-1 $-1 $205 $72 #
coedge $-1 $140 $140 $204 $206 reversed $96 $-1 #
face $-1 $207 $208 $59 $-1 $209 reversed single #
loop $-1 $-1 $210 $98 #
plane-surface $-1 0 0 -90.508133182775353 0 0 1 1 0 0 forward_v I I I I #
coedge $-1 $211 $212 $213 $214 forward $99 $-1 #
face $-1 $-1 $215 $61 $-1 $216 forward single #
loop $-1 $-1 $217 $101 #
plane-surface $-1 0 0 -1.3821451460310676 0 0 -1 -1 0 0 forward_v I I I I #
loop $-1 $-1 $218 $74 #
coedge $-1 $149 $149 $217 $219 reversed $102 $-1 #
face $-1 $-1 $220 $63 $-1 $221 forward single #
loop $-1 $-1 $222 $104 #
plane-surface $-1 0 0 -1.3821451460310676 0 0 -1 -1 0 0 forward_v I I I I #
loop $-1 $-1 $223 $75 #
coedge $-1 $154 $154 $222 $224 reversed $105 $-1 #
face $-1 $-1 $225 $65 $-1 $226 forward single #
loop $-1 $-1 $227 $107 #
plane-surface $-1 0 0 -1.3821451460310676 0 0 -1 -1 0 0 forward_v I I I I #
loop $-1 $-1 $228 $76 #
coedge $-1 $159 $159 $227 $229 reversed $108 $-1 #
face $-1 $230 $231 $45 $-1 $232 reversed single #
loop $-1 $-1 $233 $110 #
plane-surface $-1 0 -26.615197244055 0 0 1 0 0 0 1 forward_v I I I I #
coedge $-1 $234 $235 $236 $237 forward $111 $-1 #
coedge $-1 $238 $113 $239 $240 forward $78 $-1 #
coedge $-1 $113 $238 $241 $242 forward $78 $-1 #
coedge $-1 $243 $244 $113 $167 reversed $245 $-1 #
edge $-1 $246 $247 $166 $248 forward #
face $-1 $249 $250 $47 $-1 $251 reversed single #
loop $-1 $-1 $252 $114 #
plane-surface $-1 0 -4.8801935501000528 0 0 1 0 0 0 1 forward_v I I I I #
coedge $-1 $253 $254 $255 $256 forward $115 $-1 #
coedge $-1 $257 $117 $258 $259 forward $81 $-1 #
coedge $-1 $117 $257 $260 $261 forward $81 $-1 #
coedge $-1 $262 $263 $117 $175 reversed $264 $-1 #
edge $-1 $265 $266 $174 $267 forward #
face $-1 $268 $269 $49 $-1 $270 reversed single #
loop $-1 $-1 $271 $118 #
plane-surface $-1 0 -4.8801935501000528 0 0 1 0 0 0 1 forward_v I I I I #
coedge $-1 $272 $273 $274 $275 forward $119 $-1 #
coedge $-1 $276 $121 $277 $278 forward $84 $-1 #
coedge $-1 $121 $276 $279 $280 forward $84 $-1 #
coedge $-1 $281 $282 $121 $183 reversed $283 $-1 #
edge $-1 $284 $285 $182 $286 forward #
face $-1 $287 $288 $51 $-1 $289 reversed single #
loop $-1 $-1 $290 $122 #
plane-surface $-1 0 -4.0865799094361961 0 0 1 0 0 0 1 forward_v I I I I #
coedge $-1 $291 $292 $293 $294 forward $123 $-1 #
coedge $-1 $295 $125 $296 $297 forward $87 $-1 #
coedge $-1 $125 $295 $298 $299 forward $87 $-1 #
coedge $-1 $300 $301 $125 $191 reversed $302 $-1 #
edge $-1 $303 $304 $190 $305 forward #
loop $-1 $306 $307 $126 #
cone-surface $-1 0 0 0 0 0 1 0.25 0 0 1 I I -0.70710678118654746 0.70710678118654746 forward I I I I #
coedge $-1 $194 $194 $130 $196 forward $127 $-1 #
coedge $-1 $195 $195 $307 $308 forward $129 $-1 #
edge $-1 $309 $309 $194 $310 forward #
loop $-1 $311 $312 $131 #
cone-surface $-1 0 0 0 0 0 1 0.25 0 0 1 I I -0.70710678118654746 0.70710678118654746 forward I I I I #
coedge $-1 $199 $199 $135 $201 forward $132 $-1 #
coedge $-1 $200 $200 $312 $313 forward $134 $-1 #
edge $-1 $314 $314 $199 $315 forward #
loop $-1 $316 $317 $136 #
cone-surface $-1 0 0 0 0 0 1 0.25 0 0 1 I I -0.70710678118654746 0.70710678118654746 forward I I I I #
coedge $-1 $204 $204 $140 $206 forward $137 $-1 #
coedge $-1 $205 $205 $317 $318 forward $139 $-1 #
edge $-1 $319 $319 $204 $320 forward #
face $-1 $321 $322 $59 $-1 $323 reversed single #
loop $-1 $-1 $324 $141 #
plane-surface $-1 0 -4.0865799094361961 0 0 1 0 0 0 1 forward_v I I I I #
coedge $-1 $325 $326 $327 $328 forward $142 $-1 #
coedge $-1 $329 $144 $330 $331 forward $99 $-1 #
coedge $-1 $144 $329 $332 $333 forward $99 $-1 #
coedge $-1 $334 $335 $144 $214 reversed $336 $-1 #
edge $-1 $337 $338 $213 $339 forward #
loop $-1 $340 $341 $145 #
cone-surface $-1 0 0 0 0 0 1 0.25 0 0 1 I I -0.70710678118654746 0.70710678118654746 forward I I I I #
coedge $-1 $217 $217 $149 $219 forward $146 $-1 #
coedge $-1 $218 $218 $341 $342 forward $148 $-1 #
edge $-1 $343 $343 $217 $344 forward #
loop $-1 $345 $346 $150 #
cone-surface $-1 0 0 0 0 0 1 0.25 0 0 1 I I -0.70710678118654746 0.70710678118654746 forward I I I I #
coedge $-1 $222 $222 $154 $224 forward $151 $-1 #
coedge $-1 $223 $223 $346 $347 forward $153 $-1 #
edge $-1 $348 $348 $222 $349 forward #
loop $-1 $350 $351 $155 #
cone-surface $-1 0 0 0 0 0 1 0.25 0 0 1 I I -0.70710678118654746 0.70710678118654746 forward I I I I #
coedge $-1 $227 $227 $159 $229 forward $156 $-1 #
coedge $-1 $228 $228 $351 $352 forward $158 $-1 #
edge $-1 $353 $353 $227 $354 forward #
face $-1 $355 $356 $45 $-1 $357 reversed single #
loop $-1 $-1 $358 $160 #
plane-surface $-1 -45.254066591387677 0 0 1 0 0 0 0 -1 forward_v I I I I #
coedge $-1 $359 $241 $360 $361 forward $161 $-1 #
coedge $-1 $362 $163 $359 $363 forward $111 $-1 #
coedge $-1 $163 $362 $364 $365 forward $111 $-1 #
coedge $-1 $244 $243 $163 $237 reversed $245 $-1 #
edge $-1 $366 $367 $236 $368 forward #
coedge $-1 $165 $164 $369 $370 forward $78 $-1 #
coedge $-1 $371 $372 $164 $240 reversed $356 $-1 #
edge $-1 $247 $373 $239 $374 forward #
coedge $-1 $233 $375 $165 $242 reversed $161 $-1 #
edge $-1 $376 $246 $241 $377 forward #
coedge $-1 $236 $166 $375 $378 forward $245 $-1 #
coedge $-1 $166 $236 $371 $379 reversed $245 $-1 #
loop $-1 $-1 $243 $355 #
vertex $-1 $167 $380 #
vertex $-1 $167 $381 #
straight-curve $-1 45.254066591387677 0 9.7391949069305301 0 1 0 I I #
face $-1 $382 $383 $47 $-1 $384 reversed single #
loop $-1 $-1 $385 $168 #
plane-surface $-1 -45.254066591387677 0 0 1 0 0 0 0 -1 forward_v I I I I #
coedge $-1 $386 $260 $387 $388 forward $169 $-1 #
coedge $-1 $389 $171 $386 $390 forward $115 $-1 #
coedge $-1 $171 $389 $391 $392 forward $115 $-1 #
coedge $-1 $263 $262 $171 $256 reversed $264 $-1 #
edge $-1 $393 $394 $255 $395 forward #
coedge $-1 $173 $172 $396 $397 forward $81 $-1 #
coedge $-1 $398 $399 $172 $259 reversed $383 $-1 #
edge $-1 $266 $400 $258 $401 forward #
coedge $-1 $252 $402 $173 $261 reversed $169 $-1 #
edge $-1 $403 $265 $260 $404 forward #
coedge $-1 $255 $174 $402 $405 forward $264 $-1 #
coedge $-1 $174 $255 $398 $406 reversed $264 $-1 #
loop $-1 $-1 $262 $382 #
vertex $-1 $175 $407 #
vertex $-1 $175 $408 #
straight-curve $-1 45.254066591387677 0 1.4999999999999998 0 1 0 I I #
face $-1 $409 $410 $49 $-1 $411 reversed single #
loop $-1 $-1 $412 $176 #
plane-surface $-1 -45.254066591387677 0 0 1 0 0 0 0 -1 forward_v I I I I #
coedge $-1 $413 $279 $414 $415 forward $177 $-1 #
coedge $-1 $416 $179 $413 $417 forward $119 $-1 #
coedge $-1 $179 $416 $418 $419 forward $119 $-1 #
coedge $-1 $282 $281 $179 $275 reversed $283 $-1 #
edge $-1 $420 $421 $274 $422 forward #
coedge $-1 $181 $180 $423 $424 forward $84 $-1 #
coedge $-1 $425 $426 $180 $278 reversed $410 $-1 #
edge $-1 $285 $427 $277 $428 forward #
coedge $-1 $271 $429 $181 $280 reversed $177 $-1 #
edge $-1 $430 $284 $279 $431 forward #
coedge $-1 $274 $182 $429 $432 forward $283 $-1 #
coedge $-1 $182 $274 $425 $433 reversed $283 $-1 #
loop $-1 $-1 $281 $409 #
vertex $-1 $183 $434 #
vertex $-1 $183 $435 #
straight-curve $-1 45.254066591387677 0 1.4999999999999998 0 1 0 I I #
face $-1 $436 $437 $51 $-1 $438 reversed single #
loop $-1 $-1 $439 $184 #
plane-surface $-1 -181.01626636555071 0 0 1 0 0 0 0 -1 forward_v I I I I #
coedge $-1 $440 $298 $441 $442 forward $185 $-1 #
coedge $-1 $443 $187 $440 $444 forward $123 $-1 #
coedge $-1 $187 $443 $445 $446 forward $123 $-1 #
coedge $-1 $301 $300 $187 $294 reversed $302 $-1 #
edge $-1 $447 $448 $293 $449 forward #
coedge $-1 $189 $188 $450 $451 forward $87 $-1 #
coedge $-1 $452 $453 $188 $297 reversed $437 $-1 #
edge $-1 $304 $454 $296 $455 forward #
coedge $-1 $290 $456 $189 $299 reversed $185 $-1 #
edge $-1 $457 $303 $298 $458 forward #
coedge $-1 $293 $190 $456 $459 forward $302 $-1 #
coedge $-1 $190 $293 $452 $460 reversed $302 $-1 #
loop $-1 $-1 $300 $436 #
vertex $-1 $191 $461 #
vertex $-1 $191 $462 #
straight-curve $-1 181.01626636555071 0 90.508133182775353 0 1 0 I I #
loop $-1 $-1 $463 $126 #
coedge $-1 $307 $307 $195 $308 reversed $192 $-1 #
edge $-1 $464 $464 $307 $465 forward #
vertex $-1 $196 $466 #
ellipse-curve $-1 0 0 -1.3821451460310676 0 0 -1 0.5 0 0 1 I I #
loop $-1 $-1 $467 $131 #
coedge $-1 $312 $312 $200 $313 reversed $197 $-1 #
edge $-1 $468 $468 $312 $469 forward #
vertex $-1 $201 $470 #
ellipse-curve $-1 0 0 -1.3821451460310676 0 0 -1 0.5 0 0 1 I I #
loop $-1 $-1 $471 $136 #
coedge $-1 $317 $317 $205 $318 reversed $202 $-1 #
edge $-1 $472 $472 $317 $473 forward #
vertex $-1 $206 $474 #
ellipse-curve $-1 0 0 -1.3821451460310676 0 0 -1 0.5 0 0 1 I I #
face $-1 $475 $476 $59 $-1 $477 reversed single #
loop $-1 $-1 $478 $207 #
plane-surface $-1 -181.01626636555071 0 0 1 0 0 0 0 -1 forward_v I I I I #
coedge $-1 $479 $332 $480 $481 forward $208 $-1 #
coedge $-1 $482 $210 $479 $483 forward $142 $-1 #
coedge $-1 $210 $482 $484 $485 forward $142 $-1 #
coedge $-1 $335 $334 $210 $328 reversed $336 $-1 #
edge $-1 $486 $487 $327 $488 forward #
coedge $-1 $212 $211 $489 $490 forward $99 $-1 #
coedge $-1 $491 $492 $211 $331 reversed $476 $-1 #
edge $-1 $338 $493 $330 $494 forward #
coedge $-1 $324 $495 $212 $333 reversed $208 $-1 #
edge $-1 $496 $337 $332 $497 forward #
coedge $-1 $327 $213 $495 $498 forward $336 $-1 #
coedge $-1 $213 $327 $491 $499 reversed $336 $-1 #
loop $-1 $-1 $334 $475 #
vertex $-1 $214 $500 #
vertex $-1 $214 $501 #
straight-curve $-1 181.01626636555071 0 90.508133182775353 0 1 0 I I #
loop $-1 $-1 $502 $145 #
coedge $-1 $341 $341 $218 $342 reversed $215 $-1 #
edge $-1 $503 $503 $341 $504 forward #
vertex $-1 $219 $505 #
ellipse-curve $-1 0 0 -1.3821451460310676 0 0 -1 0.5 0 0 1 I I #
loop $-1 $-1 $506 $150 #
coedge $-1 $346 $346 $223 $347 reversed $220 $-1 #
edge $-1 $507 $507 $346 $508 forward #
vertex $-1 $224 $509 #
ellipse-curve $-1 0 0 -1.3821451460310676 0 0 -1 0.5 0 0 1 I I #
loop $-1 $-1 $510 $155 #
coedge $-1 $351 $351 $228 $352 reversed $225 $-1 #
edge $-1 $511 $511 $351 $512 forward #
vertex $-1 $229 $513 #
ellipse-curve $-1 0 0 -1.3821451460310676 0 0 -1 0.5 0 0 1 I I #
face $-1 $-1 $245 $45 $-1 $514 reversed single #
loop $-1 $-1 $371 $230 #
plane-surface $-1 0 26.615197244055 0 0 -1 0 0 0 -1 forward_v I I I I #
coedge $-1 $515 $369 $372 $516 forward $231 $-1 #
coedge $-1 $375 $233 $234 $363 reversed $161 $-1 #
coedge $-1 $369 $515 $233 $361 reversed $231 $-1 #
edge $-1 $376 $517 $360 $518 forward #
coedge $-1 $235 $234 $515 $519 forward $111 $-1 #
edge $-1 $367 $517 $359 $520 forward #
coedge $-1 $372 $371 $235 $365 reversed $356 $-1 #
edge $-1 $521 $366 $364 $522 forward #
vertex $-1 $237 $523 #
vertex $-1 $378 $524 #
straight-curve $-1 45.254066591387677 0 -9.7391949069305301 0 -1 0 I I #
coedge $-1 $358 $360 $238 $370 reversed $231 $-1 #
edge $-1 $373 $376 $369 $525 forward #
coedge $-1 $364 $239 $244 $379 forward $356 $-1 #
coedge $-1 $239 $364 $358 $516 reversed $356 $-1 #
vertex $-1 $240 $526 #
straight-curve $-1 0 26.615197244055 9.7391949069305301 -1 0 0 I I #
coedge $-1 $241 $359 $243 $378 reversed $161 $-1 #
vertex $-1 $370 $527 #
straight-curve $-1 0 -26.615197244055 9.7391949069305301 1 0 0 I I #
edge $-1 $246 $367 $243 $528 forward #
edge $-1 $247 $366 $244 $529 forward #
point $-1 45.254066591387677 -26.615197244055 9.7391949069305301 #
point $-1 45.254066591387677 26.615197244055 9.7391949069305301 #
face $-1 $-1 $264 $47 $-1 $530 reversed single #
loop $-1 $-1 $398 $249 #
plane-surface $-1 0 4.8801935501000528 0 0 -1 0 0 0 -1 forward_v I I I I #
coedge $-1 $531 $396 $399 $532 forward $250 $-1 #
coedge $-1 $402 $252 $253 $390 reversed $169 $-1 #
coedge $-1 $396 $531 $252 $388 reversed $250 $-1 #
edge $-1 $403 $533 $387 $534 forward #
coedge $-1 $254 $253 $531 $535 forward $115 $-1 #
edge $-1 $394 $533 $386 $536 forward #
coedge $-1 $399 $398 $254 $392 reversed $383 $-1 #
edge $-1 $537 $393 $391 $538 forward #
vertex $-1 $256 $539 #
vertex $-1 $405 $540 #
straight-curve $-1 45.254066591387677 0 -1.4999999999999998 0 -1 0 I I #
coedge $-1 $385 $387 $257 $397 reversed $250 $-1 #
edge $-1 $400 $403 $396 $541 forward #
coedge $-1 $391 $258 $263 $406 forward $383 $-1 #
coedge $-1 $258 $391 $385 $532 reversed $383 $-1 #
vertex $-1 $259 $542 #
straight-curve $-1 0 4.8801935501000528 1.4999999999999998 -1 0 0 I I #
coedge $-1 $260 $386 $262 $405 reversed $169 $-1 #
vertex $-1 $397 $543 #
straight-curve $-1 0 -4.8801935501000528 1.4999999999999998 1 0 0 I I #
edge $-1 $265 $394 $262 $544 forward #
edge $-1 $266 $393 $263 $545 forward #
point $-1 45.254066591387677 -4.8801935501000528 1.4999999999999998 #
point $-1 45.254066591387677 4.8801935501000528 1.4999999999999998 #
face $-1 $-1 $283 $49 $-1 $546 reversed single #
loop $-1 $-1 $425 $268 #
plane-surface $-1 0 4.8801935501000528 0 0 -1 0 0 0 -1 forward_v I I I I #
coedge $-1 $547 $423 $426 $548 forward $269 $-1 #
coedge $-1 $429 $271 $272 $417 reversed $177 $-1 #
coedge $-1 $423 $547 $271 $415 reversed $269 $-1 #
edge $-1 $430 $549 $414 $550 forward #
coedge $-1 $273 $272 $547 $551 forward $119 $-1 #
edge $-1 $421 $549 $413 $552 forward #
coedge $-1 $426 $425 $273 $419 reversed $410 $-1 #
edge $-1 $553 $420 $418 $554 forward #
vertex $-1 $275 $555 #
vertex $-1 $432 $556 #
straight-curve $-1 45.254066591387677 0 -1.4999999999999998 0 -1 0 I I #
coedge $-1 $412 $414 $276 $424 reversed $269 $-1 #
edge $-1 $427 $430 $423 $557 forward #
coedge $-1 $418 $277 $282 $433 forward $410 $-1 #
coedge $-1 $277 $418 $412 $548 reversed $410 $-1 #
vertex $-1 $278 $558 #
straight-curve $-1 0 4.8801935501000528 1.4999999999999998 -1 0 0 I I #
coedge $-1 $279 $413 $281 $432 reversed $177 $-1 #
vertex $-1 $424 $559 #
straight-curve $-1 0 -4.8801935501000528 1.4999999999999998 1 0 0 I I #
edge $-1 $284 $421 $281 $560 forward #
edge $-1 $285 $420 $282 $561 forward #
point $-1 45.254066591387677 -4.8801935501000528 1.4999999999999998 #
point $-1 45.254066591387677 4.8801935501000528 1.4999999999999998 #
face $-1 $-1 $302 $51 $-1 $562 reversed single #
loop $-1 $-1 $452 $287 #
plane-surface $-1 0 4.0865799094361961 0 0 -1 0 0 0 -1 forward_v I I I I #
coedge $-1 $563 $450 $453 $564 forward $288 $-1 #
coedge $-1 $456 $290 $291 $444 reversed $185 $-1 #
coedge $-1 $450 $563 $290 $442 reversed $288 $-1 #
edge $-1 $457 $565 $441 $566 forward #
coedge $-1 $292 $291 $563 $567 forward $123 $-1 #
edge $-1 $448 $565 $440 $568 forward #
coedge $-1 $453 $452 $292 $446 reversed $437 $-1 #
edge $-1 $569 $447 $445 $570 forward #
vertex $-1 $294 $571 #
vertex $-1 $459 $572 #
straight-curve $-1 181.01626636555071 0 -90.508133182775353 0 -1 0 I I #
coedge $-1 $439 $441 $295 $451 reversed $288 $-1 #
edge $-1 $454 $457 $450 $573 forward #
coedge $-1 $445 $296 $301 $460 forward $437 $-1 #
coedge $-1 $296 $445 $439 $564 reversed $437 $-1 #
vertex $-1 $297 $574 #
straight-curve $-1 0 4.0865799094361961 90.508133182775353 -1 0 0 I I #
coedge $-1 $298 $440 $300 $459 reversed $185 $-1 #
vertex $-1 $451 $575 #
straight-curve $-1 0 -4.0865799094361961 90.508133182775353 1 0 0 I I #
edge $-1 $303 $448 $300 $576 forward #
edge $-1 $304 $447 $301 $577 forward #
point $-1 181.01626636555071 -4.0865799094361961 90.508133182775353 #
point $-1 181.01626636555071 4.0865799094361961 90.508133182775353 #
coedge $-1 $463 $463 $-1 $578 reversed $306 $-1 #
vertex $-1 $308 $579 #
ellipse-curve $-1 0 0 -0.25 0 0 -1 0.5 0 0 1 I I #
point $-1 0.5 0 -1.3821451460310676 #
coedge $-1 $467 $467 $-1 $580 reversed $311 $-1 #
vertex $-1 $313 $581 #
ellipse-curve $-1 0 0 -0.25 0 0 -1 0.5 0 0 1 I I #
point $-1 0.5 0 -1.3821451460310676 #
coedge $-1 $471 $471 $-1 $582 reversed $316 $-1 #
vertex $-1 $318 $583 #
ellipse-curve $-1 0 0 -0.25 0 0 -1 0.5 0 0 1 I I #
point $-1 0.5 0 -1.3821451460310676 #
face $-1 $-1 $336 $59 $-1 $584 reversed single #
loop $-1 $-1 $491 $321 #
plane-surface $-1 0 4.0865799094361961 0 0 -1 0 0 0 -1 forward_v I I I I #
coedge $-1 $585 $489 $492 $586 forward $322 $-1 #
coedge $-1 $495 $324 $325 $483 reversed $208 $-1 #
coedge $-1 $489 $585 $324 $481 reversed $322 $-1 #
edge $-1 $496 $587 $480 $588 forward #
coedge $-1 $326 $325 $585 $589 forward $142 $-1 #
edge $-1 $487 $587 $479 $590 forward #
coedge $-1 $492 $491 $326 $485 reversed $476 $-1 #
edge $-1 $591 $486 $484 $592 forward #
vertex $-1 $328 $593 #
vertex $-1 $498 $594 #
straight-curve $-1 181.01626636555071 0 -90.508133182775353 0 -1 0 I I #
coedge $-1 $478 $480 $329 $490 reversed $322 $-1 #
edge $-1 $493 $496 $489 $595 forward #
coedge $-1 $484 $330 $335 $499 forward $476 $-1 #
coedge $-1 $330 $484 $478 $586 reversed $476 $-1 #
vertex $-1 $331 $596 #
straight-curve $-1 0 4.0865799094361961 90.508133182775353 -1 0 0 I I #
coedge $-1 $332 $479 $334 $498 reversed $208 $-1 #
vertex $-1 $490 $597 #
straight-curve $-1 0 -4.0865799094361961 90.508133182775353 1 0 0 I I #
edge $-1 $337 $487 $334 $598 forward #
edge $-1 $338 $486 $335 $599 forward #
point $-1 181.01626636555071 -4.0865799094361961 90.508133182775353 #
point $-1 181.01626636555071 4.0865799094361961 90.508133182775353 #
coedge $-1 $502 $502 $-1 $600 reversed $340 $-1 #
vertex $-1 $342 $601 #
ellipse-curve $-1 0 0 -0.25 0 0 -1 0.5 0 0 1 I I #
point $-1 0.5 0 -1.3821451460310676 #
coedge $-1 $506 $506 $-1 $602 reversed $345 $-1 #
vertex $-1 $347 $603 #
ellipse-curve $-1 0 0 -0.25 0 0 -1 0.5 0 0 1 I I #
point $-1 0.5 0 -1.3821451460310676 #
coedge $-1 $510 $510 $-1 $604 reversed $350 $-1 #
vertex $-1 $352 $605 #
ellipse-curve $-1 0 0 -0.25 0 0 -1 0.5 0 0 1 I I #
point $-1 0.5 0 -1.3821451460310676 #
plane-surface $-1 45.254066591387677 0 0 -1 0 0 0 0 1 forward_v I I I I #
coedge $-1 $360 $358 $362 $519 reversed $231 $-1 #
edge $-1 $373 $521 $372 $606 forward #
vertex $-1 $519 $607 #
straight-curve $-1 -45.254066591387677 -26.615197244055 0 0 0 -1 I I #
edge $-1 $517 $521 $515 $608 forward #
straight-curve $-1 0 -26.615197244055 -9.7391949069305301 -1 0 0 I I #
vertex $-1 $365 $609 #
straight-curve $-1 0 26.615197244055 -9.7391949069305301 1 0 0 I I #
point $-1 45.254066591387677 26.615197244055 -9.7391949069305301 #
point $-1 45.254066591387677 -26.615197244055 -9.7391949069305301 #
straight-curve $-1 -45.254066591387677 0 9.7391949069305301 0 -1 0 I I #
point $-1 -45.254066591387677 26.615197244055 9.7391949069305301 #
point $-1 -45.254066591387677 -26.615197244055 9.7391949069305301 #
straight-curve $-1 45.254066591387677 -26.615197244055 0 0 0 -1 I I #
straight-curve $-1 45.254066591387677 26.615197244055 0 0 0 -1 I I #
plane-surface $-1 45.254066591387677 0 0 -1 0 0 0 0 1 forward_v I I I I #
coedge $-1 $387 $385 $389 $535 reversed $250 $-1 #
edge $-1 $400 $537 $399 $610 forward #
vertex $-1 $535 $611 #
straight-curve $-1 -45.254066591387677 -4.8801935501000528 0 0 0 -1 I I #
edge $-1 $533 $537 $531 $612 forward #
straight-curve $-1 0 -4.8801935501000528 -1.4999999999999998 -1 0 0 I I #
vertex $-1 $392 $613 #
straight-curve $-1 0 4.8801935501000528 -1.4999999999999998 1 0 0 I I #
point $-1 45.254066591387677 4.8801935501000528 -1.4999999999999998 #
point $-1 45.254066591387677 -4.8801935501000528 -1.4999999999999998 #
straight-curve $-1 -45.254066591387677 0 1.4999999999999998 0 -1 0 I I #
point $-1 -45.254066591387677 4.8801935501000528 1.4999999999999998 #
point $-1 -45.254066591387677 -4.8801935501000528 1.4999999999999998 #
straight-curve $-1 45.254066591387677 -4.8801935501000528 0 0 0 -1 I I #
straight-curve $-1 45.254066591387677 4.8801935501000528 0 0 0 -1 I I #
plane-surface $-1 45.254066591387677 0 0 -1 0 0 0 0 1 forward_v I I I I #
coedge $-1 $414 $412 $416 $551 reversed $269 $-1 #
edge $-1 $427 $553 $426 $614 forward #
vertex $-1 $551 $615 #
straight-curve $-1 -45.254066591387677 -4.8801935501000528 0 0 0 -1 I I #
edge $-1 $549 $553 $547 $616 forward #
straight-curve $-1 0 -4.8801935501000528 -1.4999999999999998 -1 0 0 I I #
vertex $-1 $419 $617 #
straight-curve $-1 0 4.8801935501000528 -1.4999999999999998 1 0 0 I I #
point $-1 45.254066591387677 4.8801935501000528 -1.4999999999999998 #
point $-1 45.254066591387677 -4.8801935501000528 -1.4999999999999998 #
straight-curve $-1 -45.254066591387677 0 1.4999999999999998 0 -1 0 I I #
point $-1 -45.254066591387677 4.8801935501000528 1.4999999999999998 #
point $-1 -45.254066591387677 -4.8801935501000528 1.4999999999999998 #
straight-curve $-1 45.254066591387677 -4.8801935501000528 0 0 0 -1 I I #
straight-curve $-1 45.254066591387677 4.8801935501000528 0 0 0 -1 I I #
plane-surface $-1 181.01626636555071 0 0 -1 0 0 0 0 1 forward_v I I I I #
coedge $-1 $441 $439 $443 $567 reversed $288 $-1 #
edge $-1 $454 $569 $453 $618 forward #
vertex $-1 $567 $619 #
straight-curve $-1 -181.01626636555071 -4.0865799094361961 0 0 0 -1 I I #
edge $-1 $565 $569 $563 $620 forward #
straight-curve $-1 0 -4.0865799094361961 -90.508133182775353 -1 0 0 I I #
vertex $-1 $446 $621 #
straight-curve $-1 0 4.0865799094361961 -90.508133182775353 1 0 0 I I #
point $-1 181.01626636555071 4.0865799094361961 -90.508133182775353 #
point $-1 181.01626636555071 -4.0865799094361961 -90.508133182775353 #
straight-curve $-1 -181.01626636555071 0 90.508133182775353 0 -1 0 I I #
point $-1 -181.01626636555071 4.0865799094361961 90.508133182775353 #
point $-1 -181.01626636555071 -4.0865799094361961 90.508133182775353 #
straight-curve $-1 181.01626636555071 -4.0865799094361961 0 0 0 -1 I I #
straight-curve $-1 181.01626636555071 4.0865799094361961 0 0 0 -1 I I #
edge $-1 $622 $622 $463 $-1 forward #
point $-1 0.5 0 -0.25 #
edge $-1 $623 $623 $467 $-1 forward #
point $-1 0.5 0 -0.25 #
edge $-1 $624 $624 $471 $-1 forward #
point $-1 0.5 0 -0.25 #
plane-surface $-1 181.01626636555071 0 0 -1 0 0 0 0 1 forward_v I I I I #
coedge $-1 $480 $478 $482 $589 reversed $322 $-1 #
edge $-1 $493 $591 $492 $625 forward #
vertex $-1 $589 $626 #
straight-curve $-1 -181.01626636555071 -4.0865799094361961 0 0 0 -1 I I #
edge $-1 $587 $591 $585 $627 forward #
straight-curve $-1 0 -4.0865799094361961 -90.508133182775353 -1 0 0 I I #
vertex $-1 $485 $628 #
straight-curve $-1 0 4.0865799094361961 -90.508133182775353 1 0 0 I I #
point $-1 181.01626636555071 4.0865799094361961 -90.508133182775353 #
point $-1 181.01626636555071 -4.0865799094361961 -90.508133182775353 #
straight-curve $-1 -181.01626636555071 0 90.508133182775353 0 -1 0 I I #
point $-1 -181.01626636555071 4.0865799094361961 90.508133182775353 #
point $-1 -181.01626636555071 -4.0865799094361961 90.508133182775353 #
straight-curve $-1 181.01626636555071 -4.0865799094361961 0 0 0 -1 I I #
straight-curve $-1 181.01626636555071 4.0865799094361961 0 0 0 -1 I I #
edge $-1 $629 $629 $502 $-1 forward #
point $-1 0.5 0 -0.25 #
edge $-1 $630 $630 $506 $-1 forward #
point $-1 0.5 0 -0.25 #
edge $-1 $631 $631 $510 $-1 forward #
point $-1 0.5 0 -0.25 #
straight-curve $-1 -45.254066591387677 26.615197244055 0 0 0 -1 I I #
point $-1 -45.254066591387677 -26.615197244055 -9.7391949069305301 #
straight-curve $-1 -45.254066591387677 0 -9.7391949069305301 0 1 0 I I #
point $-1 -45.254066591387677 26.615197244055 -9.7391949069305301 #
straight-curve $-1 -45.254066591387677 4.8801935501000528 0 0 0 -1 I I #
point $-1 -45.254066591387677 -4.8801935501000528 -1.4999999999999998 #
straight-curve $-1 -45.254066591387677 0 -1.4999999999999998 0 1 0 I I #
point $-1 -45.254066591387677 4.8801935501000528 -1.4999999999999998 #
straight-curve $-1 -45.254066591387677 4.8801935501000528 0 0 0 -1 I I #
point $-1 -45.254066591387677 -4.8801935501000528 -1.4999999999999998 #
straight-curve $-1 -45.254066591387677 0 -1.4999999999999998 0 1 0 I I #
point $-1 -45.254066591387677 4.8801935501000528 -1.4999999999999998 #
straight-curve $-1 -181.01626636555071 4.0865799094361961 0 0 0 -1 I I #
point $-1 -181.01626636555071 -4.0865799094361961 -90.508133182775353 #
straight-curve $-1 -181.01626636555071 0 -90.508133182775353 0 1 0 I I #
point $-1 -181.01626636555071 4.0865799094361961 -90.508133182775353 #
vertex $-1 $578 $632 #
vertex $-1 $580 $633 #
vertex $-1 $582 $634 #
straight-curve $-1 -181.01626636555071 4.0865799094361961 0 0 0 -1 I I #
point $-1 -181.01626636555071 -4.0865799094361961 -90.508133182775353 #
straight-curve $-1 -181.01626636555071 0 -90.508133182775353 0 1 0 I I #
point $-1 -181.01626636555071 4.0865799094361961 -90.508133182775353 #
vertex $-1 $600 $635 #
vertex $-1 $602 $636 #
vertex $-1 $604 $637 #
point $-1 0 0 0.25 #
point $-1 0 0 0.25 #
point $-1 0 0 0.25 #
point $-1 0 0 0.25 #
point $-1 0 0 0.25 #
point $-1 0 0 0.25 #
End-of-ACIS-data 