600 0 15 0           
96 GICL ACIS Healer - Source: /gicl/data5/repository/Drexel/SM99-DATA/part124.smdg.deltas.sat - 6 0 18 ACIS 6.0.3 Solaris 24 Sat Apr 13 20:45:17 2002 
1 9.999999999999999547e-07 1.000000000000000036e-10 
body $-1 $15 $-1 $-1 #
body $-1 $16 $-1 $-1 #
body $-1 $17 $-1 $-1 #
body $-1 $18 $-1 $-1 #
body $-1 $19 $-1 $-1 #
body $-1 $20 $-1 $-1 #
body $-1 $21 $-1 $-1 #
body $-1 $22 $-1 $-1 #
body $-1 $23 $-1 $-1 #
body $-1 $24 $-1 $-1 #
body $-1 $25 $-1 $-1 #
body $-1 $26 $-1 $-1 #
body $-1 $27 $-1 $-1 #
body $-1 $28 $-1 $-1 #
body $-1 $29 $-1 $-1 #
lump $-1 $-1 $30 $0 #
lump $-1 $-1 $31 $1 #
lump $-1 $-1 $32 $2 #
lump $-1 $-1 $33 $3 #
lump $-1 $-1 $34 $4 #
lump $-1 $-1 $35 $5 #
lump $-1 $-1 $36 $6 #
lump $-1 $-1 $37 $7 #
lump $-1 $-1 $38 $8 #
lump $-1 $-1 $39 $9 #
lump $-1 $-1 $40 $10 #
lump $-1 $-1 $41 $11 #
lump $-1 $-1 $42 $12 #
lump $-1 $-1 $43 $13 #
lump $-1 $-1 $44 $14 #
shell $-1 $-1 $-1 $45 $-1 $15 #
shell $-1 $-1 $-1 $46 $-1 $16 #
shell $-1 $-1 $-1 $47 $-1 $17 #
shell $-1 $-1 $-1 $48 $-1 $18 #
shell $-1 $-1 $-1 $49 $-1 $19 #
shell $-1 $-1 $-1 $50 $-1 $20 #
shell $-1 $-1 $-1 $51 $-1 $21 #
shell $-1 $-1 $-1 $52 $-1 $22 #
shell $-1 $-1 $-1 $53 $-1 $23 #
shell $-1 $-1 $-1 $54 $-1 $24 #
shell $-1 $-1 $-1 $55 $-1 $25 #
shell $-1 $-1 $-1 $56 $-1 $26 #
shell $-1 $-1 $-1 $57 $-1 $27 #
shell $-1 $-1 $-1 $58 $-1 $28 #
shell $-1 $-1 $-1 $59 $-1 $29 #
face $-1 $60 $61 $30 $-1 $62 forward single #
face $-1 $63 $64 $31 $-1 $65 reversed single #
face $-1 $66 $67 $32 $-1 $68 reversed single #
face $-1 $69 $70 $33 $-1 $71 reversed single #
face $-1 $72 $73 $34 $-1 $74 forward single #
face $-1 $75 $76 $35 $-1 $77 forward single #
face $-1 $78 $79 $36 $-1 $80 forward single #
face $-1 $81 $82 $37 $-1 $83 reversed single #
face $-1 $84 $85 $38 $-1 $86 forward single #
face $-1 $87 $88 $39 $-1 $89 reversed single #
face $-1 $90 $91 $40 $-1 $92 forward single #
face $-1 $93 $94 $41 $-1 $95 reversed single #
face $-1 $96 $97 $42 $-1 $98 forward single #
face $-1 $99 $100 $43 $-1 $101 reversed single #
face $-1 $102 $103 $44 $-1 $104 forward single #
face $-1 $105 $106 $30 $-1 $107 reversed single #
loop $-1 $-1 $108 $45 #
plane-surface $-1 49.25443281350138847 30.83621815178224423 22.72339520665805068 0 0 1 1 0 0 forward_v I I I I #
face $-1 $109 $110 $31 $-1 $111 reversed single #
loop $-1 $-1 $112 $46 #
plane-surface $-1 4.158347568466219002 4.843834234796016602 11.36169760332902534 1 0 0 0 0 -1 forward_v I I I I #
face $-1 $113 $114 $32 $-1 $115 reversed single #
loop $-1 $-1 $116 $47 #
plane-surface $-1 6.982665799869643308 51.98476783397245526 11.36169760332902534 0 1 0 0 0 1 forward_v I I I I #
face $-1 $117 $118 $33 $-1 $119 reversed single #
loop $-1 $-1 $120 $48 #
plane-surface $-1 -83.54025673015468101 26.01172574745555011 63.90386080196544327 0 1 0 -0.8480481040810504689 0 0.529919251551154491 forward_v I I I I #
face $-1 $121 $122 $34 $-1 $123 forward single #
loop $-1 $124 $125 $49 #
cone-surface $-1 3.867453591975767324 28.05985522851199221 16.94779620642888673 0.8480481040810504689 0 -0.529919251551154491 0.2649596257755772455 0 0.4240240520405252345 1 I I 0 1 0.5 forward I I I I #
face $-1 $126 $127 $35 $-1 $128 forward single #
loop $-1 $129 $130 $50 #
cone-surface $-1 3.867453591975767324 31.13204945009665536 16.94779620642888673 0.8480481040810504689 0 -0.529919251551154491 0.2649596257755772455 0 0.4240240520405252345 1 I I 0 1 0.5 forward I I I I #
face $-1 $131 $132 $36 $-1 $133 forward single #
loop $-1 $134 $135 $51 #
cone-surface $-1 3.867453591975767324 34.20424367168131852 16.94779620642888673 0.8480481040810504689 0 -0.529919251551154491 0.2649596257755772455 0 0.4240240520405252345 1 I I 0 1 0.5 forward I I I I #
face $-1 $136 $137 $37 $-1 $138 reversed single #
loop $-1 $-1 $139 $52 #
plane-surface $-1 71.92677457884275327 18.10430592334714817 151.2001678048298459 0 -1 0 -0.5591929107383988296 0 -0.8290375676529484483 forward_v I I I I #
face $-1 $140 $141 $38 $-1 $142 forward single #
loop $-1 $143 $144 $53 #
cone-surface $-1 91.57420362474151432 14.92583854132036691 17.39974814923046509 -0.5591929107383988296 0 -0.8290375676529484483 1.243556351479422784 0 -0.8387893661075982443 1 I I 0 1 1.5 forward I I I I #
face $-1 $145 $146 $39 $-1 $147 reversed single #
loop $-1 $-1 $148 $54 #
plane-surface $-1 71.92677457884275327 28.71122566365506401 151.2001678048298459 0 -1 0 -0.5591929107383988296 0 -0.8290375676529484483 forward_v I I I I #
face $-1 $149 $150 $40 $-1 $151 forward single #
loop $-1 $152 $153 $55 #
cone-surface $-1 91.57420362474151432 25.53275828162828276 17.39974814923046509 -0.5591929107383988296 0 -0.8290375676529484483 1.243556351479422784 0 -0.8387893661075982443 1 I I 0 1 1.5 forward I I I I #
face $-1 $154 $155 $41 $-1 $156 reversed single #
loop $-1 $-1 $157 $56 #
plane-surface $-1 71.92677457884275327 39.31814540396297986 151.2001678048298459 0 -1 0 -0.5591929107383988296 0 -0.8290375676529484483 forward_v I I I I #
face $-1 $158 $159 $42 $-1 $160 forward single #
loop $-1 $161 $162 $57 #
cone-surface $-1 91.57420362474151432 36.1396780219361986 17.39974814923046509 -0.5591929107383988296 0 -0.8290375676529484483 1.243556351479422784 0 -0.8387893661075982443 1 I I 0 1 1.5 forward I I I I #
face $-1 $163 $164 $43 $-1 $165 reversed single #
loop $-1 $-1 $166 $58 #
plane-surface $-1 71.92677457884275327 49.9250651442708886 151.2001678048298459 0 -1 0 -0.5591929107383988296 0 -0.8290375676529484483 forward_v I I I I #
face $-1 $167 $168 $44 $-1 $169 forward single #
loop $-1 $170 $171 $59 #
cone-surface $-1 91.57420362474151432 46.74659776224411445 17.39974814923046509 -0.5591929107383988296 0 -0.8290375676529484483 1.243556351479422784 0 -0.8387893661075982443 1 I I 0 1 1.5 forward I I I I #
face $-1 $172 $173 $30 $-1 $174 reversed single #
loop $-1 $-1 $175 $60 #
plane-surface $-1 49.25443281350138847 30.83621815178224423 0 0 0 1 1 0 0 forward_v I I I I #
coedge $-1 $176 $177 $178 $179 forward $61 $-1 #
face $-1 $180 $181 $31 $-1 $182 reversed single #
loop $-1 $-1 $183 $63 #
plane-surface $-1 6.982665799869643308 9.687668469592033205 11.36169760332902534 0 -1 0 0 0 -1 forward_v I I I I #
coedge $-1 $184 $185 $186 $187 forward $64 $-1 #
face $-1 $188 $189 $32 $-1 $190 reversed single #
loop $-1 $-1 $191 $66 #
plane-surface $-1 4.158347568466219002 56.82860206876847542 11.36169760332902534 1 0 0 0 0 -1 forward_v I I I I #
coedge $-1 $192 $193 $194 $195 forward $67 $-1 #
face $-1 $196 $197 $33 $-1 $198 reversed single #
loop $-1 $-1 $199 $69 #
plane-surface $-1 -7.105427357601001859e-15 31.13204945009665536 11.70211645775088094 -0.8480481040810504689 0 0.529919251551154491 0.529919251551154491 0 0.8480481040810504689 forward_v I I I I #
coedge $-1 $200 $201 $202 $203 reversed $70 $-1 #
face $-1 $-1 $204 $34 $-1 $205 forward single #
loop $-1 $206 $207 $72 #
cone-surface $-1 4.503489670036557868 28.05985522851199221 16.55035676776552123 0.8480481040810504689 0 -0.529919251551154491 0.1324798128877886227 0 0.2120120260202626172 1 I I -0.7071067811865474617 0.7071067811865474617 0.25 forward I I I I #
loop $-1 $-1 $208 $49 #
coedge $-1 $125 $125 $209 $210 reversed $73 $-1 #
face $-1 $-1 $211 $35 $-1 $212 forward single #
loop $-1 $213 $214 $75 #
cone-surface $-1 4.503489670036557868 31.13204945009665536 16.55035676776552123 0.8480481040810504689 0 -0.529919251551154491 0.1324798128877886227 0 0.2120120260202626172 1 I I -0.7071067811865474617 0.7071067811865474617 0.25 forward I I I I #
loop $-1 $-1 $215 $50 #
coedge $-1 $130 $130 $216 $217 reversed $76 $-1 #
face $-1 $-1 $218 $36 $-1 $219 forward single #
loop $-1 $220 $221 $78 #
cone-surface $-1 4.503489670036557868 34.20424367168131852 16.55035676776552123 0.8480481040810504689 0 -0.529919251551154491 0.1324798128877886227 0 0.2120120260202626172 1 I I -0.7071067811865474617 0.7071067811865474617 0.25 forward I I I I #
loop $-1 $-1 $222 $51 #
coedge $-1 $135 $135 $223 $224 reversed $79 $-1 #
face $-1 $225 $226 $37 $-1 $227 reversed single #
loop $-1 $-1 $228 $81 #
plane-surface $-1 16.84131527534126604 14.92583854132036869 69.53261745316832787 0.5591929107383988296 0 0.8290375676529484483 0.8290375676529484483 0 -0.5591929107383988296 forward_v I I I I #
coedge $-1 $229 $230 $231 $232 reversed $82 $-1 #
face $-1 $-1 $233 $38 $-1 $234 forward single #
loop $-1 $235 $236 $84 #
cone-surface $-1 90.35515983684231855 14.92583854132036691 15.5924414445587729 -0.5591929107383988296 0 -0.8290375676529484483 0.6217781757397113918 0 -0.4193946830537991222 1 I I -0.7071067811865475727 0.7071067811865475727 0.75 forward I I I I #
loop $-1 $-1 $237 $53 #
coedge $-1 $144 $144 $238 $239 reversed $85 $-1 #
face $-1 $240 $241 $39 $-1 $242 reversed single #
loop $-1 $-1 $243 $87 #
plane-surface $-1 16.84131527534126604 25.53275828162828276 69.53261745316832787 0.5591929107383988296 0 0.8290375676529484483 0.8290375676529484483 0 -0.5591929107383988296 forward_v I I I I #
coedge $-1 $244 $245 $246 $247 reversed $88 $-1 #
face $-1 $-1 $248 $40 $-1 $249 forward single #
loop $-1 $250 $251 $90 #
cone-surface $-1 90.35515983684231855 25.53275828162828276 15.5924414445587729 -0.5591929107383988296 0 -0.8290375676529484483 0.6217781757397113918 0 -0.4193946830537991222 1 I I -0.7071067811865475727 0.7071067811865475727 0.75 forward I I I I #
loop $-1 $-1 $252 $55 #
coedge $-1 $153 $153 $253 $254 reversed $91 $-1 #
face $-1 $255 $256 $41 $-1 $257 reversed single #
loop $-1 $-1 $258 $93 #
plane-surface $-1 16.84131527534126604 36.1396780219361986 69.53261745316832787 0.5591929107383988296 0 0.8290375676529484483 0.8290375676529484483 0 -0.5591929107383988296 forward_v I I I I #
coedge $-1 $259 $260 $261 $262 reversed $94 $-1 #
face $-1 $-1 $263 $42 $-1 $264 forward single #
loop $-1 $265 $266 $96 #
cone-surface $-1 90.35515983684231855 36.1396780219361986 15.5924414445587729 -0.5591929107383988296 0 -0.8290375676529484483 0.6217781757397113918 0 -0.4193946830537991222 1 I I -0.7071067811865475727 0.7071067811865475727 0.75 forward I I I I #
loop $-1 $-1 $267 $57 #
coedge $-1 $162 $162 $268 $269 reversed $97 $-1 #
face $-1 $270 $271 $43 $-1 $272 reversed single #
loop $-1 $-1 $273 $99 #
plane-surface $-1 16.84131527534126604 46.74659776224411445 69.53261745316832787 0.5591929107383988296 0 0.8290375676529484483 0.8290375676529484483 0 -0.5591929107383988296 forward_v I I I I #
coedge $-1 $274 $275 $276 $277 reversed $100 $-1 #
face $-1 $-1 $278 $44 $-1 $279 forward single #
loop $-1 $280 $281 $102 #
cone-surface $-1 90.35515983684231855 46.74659776224411445 15.5924414445587729 -0.5591929107383988296 0 -0.8290375676529484483 0.6217781757397113918 0 -0.4193946830537991222 1 I I -0.7071067811865475727 0.7071067811865475727 0.75 forward I I I I #
loop $-1 $-1 $282 $59 #
coedge $-1 $171 $171 $283 $284 reversed $103 $-1 #
face $-1 $285 $286 $30 $-1 $287 reversed single #
loop $-1 $-1 $288 $105 #
plane-surface $-1 49.25443281350138847 0 11.36169760332902534 0 1 0 0 0 1 forward_v I I I I #
coedge $-1 $289 $290 $291 $292 forward $106 $-1 #
coedge $-1 $293 $108 $294 $295 forward $61 $-1 #
coedge $-1 $108 $293 $296 $297 forward $61 $-1 #
coedge $-1 $298 $299 $108 $179 reversed $300 $-1 #
edge $-1 $301 -30.83621815178224423 $302 30.83621815178224423 $178 $303 forward 7 unknown #
face $-1 $304 $305 $31 $-1 $306 forward single #
loop $-1 $-1 $307 $109 #
plane-surface $-1 9.806984031273067615 4.843834234796016602 11.36169760332902534 -1 0 0 0 0 1 forward_v I I I I #
coedge $-1 $308 $309 $310 $311 forward $110 $-1 #
coedge $-1 $312 $112 $313 $314 reversed $64 $-1 #
coedge $-1 $112 $312 $315 $316 reversed $64 $-1 #
coedge $-1 $309 $308 $112 $187 reversed $110 $-1 #
edge $-1 $317 -11.36169760332902534 $318 11.36169760332902534 $186 $319 forward 7 unknown #
face $-1 $320 $321 $32 $-1 $322 reversed single #
loop $-1 $-1 $323 $113 #
plane-surface $-1 9.806984031273067615 56.82860206876847542 11.36169760332902534 -1 0 0 0 0 1 forward_v I I I I #
coedge $-1 $324 $325 $326 $327 reversed $114 $-1 #
coedge $-1 $328 $116 $329 $330 reversed $67 $-1 #
coedge $-1 $116 $328 $331 $332 reversed $67 $-1 #
coedge $-1 $325 $324 $116 $195 reversed $114 $-1 #
edge $-1 $333 -11.36169760332902534 $334 11.36169760332902534 $194 $335 forward 7 unknown #
face $-1 $336 $337 $33 $-1 $338 reversed single #
loop $-1 $-1 $339 $117 #
plane-surface $-1 -83.54025673015468101 36.25237315273776062 63.90386080196544327 0 -1 0 0.8480481040810504689 0 -0.529919251551154491 forward_v I I I I #
coedge $-1 $340 $341 $342 $343 reversed $118 $-1 #
coedge $-1 $201 $120 $344 $345 reversed $70 $-1 #
coedge $-1 $120 $200 $340 $346 reversed $70 $-1 #
coedge $-1 $342 $347 $120 $203 forward $348 $-1 #
edge $-1 $349 17.14291195832664272 $350 24.02977103819711857 $202 $351 forward 7 unknown #
loop $-1 $-1 $209 $121 #
plane-surface $-1 -7.105427357601001859e-15 31.13204945009665536 11.70211645775088094 -0.8480481040810504689 0 0.529919251551154491 0.529919251551154491 0 0.8480481040810504689 forward_v I I I I #
loop $-1 $-1 $352 $72 #
coedge $-1 $207 $207 $208 $353 reversed $122 $-1 #
coedge $-1 $208 $208 $207 $353 forward $124 $-1 #
coedge $-1 $209 $209 $125 $210 forward $204 $-1 #
edge $-1 $354 0 $354 6.283185307179586232 $209 $355 forward 7 unknown #
loop $-1 $-1 $216 $126 #
plane-surface $-1 -7.105427357601001859e-15 31.13204945009665536 11.70211645775088094 -0.8480481040810504689 0 0.529919251551154491 0.529919251551154491 0 0.8480481040810504689 forward_v I I I I #
loop $-1 $-1 $356 $75 #
coedge $-1 $214 $214 $215 $357 reversed $127 $-1 #
coedge $-1 $215 $215 $214 $357 forward $129 $-1 #
coedge $-1 $216 $216 $130 $217 forward $211 $-1 #
edge $-1 $358 0 $358 6.283185307179586232 $216 $359 forward 7 unknown #
loop $-1 $-1 $223 $131 #
plane-surface $-1 -7.105427357601001859e-15 31.13204945009665536 11.70211645775088094 -0.8480481040810504689 0 0.529919251551154491 0.529919251551154491 0 0.8480481040810504689 forward_v I I I I #
loop $-1 $-1 $360 $78 #
coedge $-1 $221 $221 $222 $361 reversed $132 $-1 #
coedge $-1 $222 $222 $221 $361 forward $134 $-1 #
coedge $-1 $223 $223 $135 $224 forward $218 $-1 #
edge $-1 $362 0 $362 6.283185307179586232 $223 $363 forward 7 unknown #
face $-1 $364 $365 $37 $-1 $366 forward single #
loop $-1 $-1 $367 $136 #
plane-surface $-1 71.92677457884275327 11.74737115929358922 151.2001678048298459 0 1 0 0.5591929107383988296 0 0.8290375676529484483 forward_v I I I I #
coedge $-1 $368 $369 $370 $371 reversed $137 $-1 #
coedge $-1 $230 $139 $372 $373 reversed $82 $-1 #
coedge $-1 $139 $229 $368 $374 reversed $82 $-1 #
coedge $-1 $370 $375 $139 $232 forward $365 $-1 #
edge $-1 $376 -37.91826193083070962 $377 -25.64823613599899943 $231 $378 forward 7 unknown #
loop $-1 $-1 $238 $140 #
plane-surface $-1 16.84131527534126604 14.92583854132036869 69.53261745316832787 0.5591929107383988296 0 0.8290375676529484483 0.8290375676529484483 0 -0.5591929107383988296 forward_v I I I I #
loop $-1 $-1 $379 $84 #
coedge $-1 $236 $236 $237 $380 reversed $141 $-1 #
coedge $-1 $237 $237 $236 $380 forward $143 $-1 #
coedge $-1 $238 $238 $144 $239 forward $233 $-1 #
edge $-1 $381 0 $381 6.283185307179586232 $238 $382 forward 7 unknown #
face $-1 $383 $384 $39 $-1 $385 reversed single #
loop $-1 $-1 $386 $145 #
plane-surface $-1 71.92677457884275327 22.35429089960150151 151.2001678048298459 0 1 0 0.5591929107383988296 0 0.8290375676529484483 forward_v I I I I #
coedge $-1 $387 $388 $389 $390 reversed $146 $-1 #
coedge $-1 $245 $148 $391 $392 reversed $88 $-1 #
coedge $-1 $148 $244 $387 $393 reversed $88 $-1 #
coedge $-1 $389 $394 $148 $247 forward $395 $-1 #
edge $-1 $396 -37.91826193083070962 $397 -25.64823613599899943 $246 $398 forward 7 unknown #
loop $-1 $-1 $253 $149 #
plane-surface $-1 16.84131527534126604 25.53275828162828276 69.53261745316832787 0.5591929107383988296 0 0.8290375676529484483 0.8290375676529484483 0 -0.5591929107383988296 forward_v I I I I #
loop $-1 $-1 $399 $90 #
coedge $-1 $251 $251 $252 $400 reversed $150 $-1 #
coedge $-1 $252 $252 $251 $400 forward $152 $-1 #
coedge $-1 $253 $253 $153 $254 forward $248 $-1 #
edge $-1 $401 0 $401 6.283185307179586232 $253 $402 forward 7 unknown #
face $-1 $403 $404 $41 $-1 $405 reversed single #
loop $-1 $-1 $406 $154 #
plane-surface $-1 71.92677457884275327 32.96121063990941735 151.2001678048298459 0 1 0 0.5591929107383988296 0 0.8290375676529484483 forward_v I I I I #
coedge $-1 $407 $408 $409 $410 reversed $155 $-1 #
coedge $-1 $260 $157 $411 $412 reversed $94 $-1 #
coedge $-1 $157 $259 $407 $413 reversed $94 $-1 #
coedge $-1 $409 $414 $157 $262 forward $415 $-1 #
edge $-1 $416 -37.91826193083070962 $417 -25.64823613599899943 $261 $418 forward 7 unknown #
loop $-1 $-1 $268 $158 #
plane-surface $-1 16.84131527534126604 36.1396780219361986 69.53261745316832787 0.5591929107383988296 0 0.8290375676529484483 0.8290375676529484483 0 -0.5591929107383988296 forward_v I I I I #
loop $-1 $-1 $419 $96 #
coedge $-1 $266 $266 $267 $420 reversed $159 $-1 #
coedge $-1 $267 $267 $266 $420 forward $161 $-1 #
coedge $-1 $268 $268 $162 $269 forward $263 $-1 #
edge $-1 $421 0 $421 6.283185307179586232 $268 $422 forward 7 unknown #
face $-1 $423 $424 $43 $-1 $425 reversed single #
loop $-1 $-1 $426 $163 #
plane-surface $-1 71.92677457884275327 43.5681303802173332 151.2001678048298459 0 1 0 0.5591929107383988296 0 0.8290375676529484483 forward_v I I I I #
coedge $-1 $427 $428 $429 $430 reversed $164 $-1 #
coedge $-1 $275 $166 $431 $432 reversed $100 $-1 #
coedge $-1 $166 $274 $427 $433 reversed $100 $-1 #
coedge $-1 $429 $434 $166 $277 forward $435 $-1 #
edge $-1 $436 -37.91826193083070962 $437 -25.64823613599899943 $276 $438 forward 7 unknown #
loop $-1 $-1 $283 $167 #
plane-surface $-1 16.84131527534126604 46.74659776224411445 69.53261745316832787 0.5591929107383988296 0 0.8290375676529484483 0.8290375676529484483 0 -0.5591929107383988296 forward_v I I I I #
loop $-1 $-1 $439 $102 #
coedge $-1 $281 $281 $282 $440 reversed $168 $-1 #
coedge $-1 $282 $282 $281 $440 forward $170 $-1 #
coedge $-1 $283 $283 $171 $284 forward $278 $-1 #
edge $-1 $441 0 $441 6.283185307179586232 $283 $442 forward 7 unknown #
face $-1 $443 $444 $30 $-1 $445 reversed single #
loop $-1 $-1 $446 $172 #
plane-surface $-1 0 30.83621815178224423 11.36169760332902534 1 0 0 0 0 -1 forward_v I I I I #
coedge $-1 $447 $296 $448 $449 forward $173 $-1 #
coedge $-1 $450 $175 $447 $451 forward $106 $-1 #
coedge $-1 $175 $450 $452 $453 forward $106 $-1 #
coedge $-1 $299 $298 $175 $292 reversed $300 $-1 #
edge $-1 $454 -30.83621815178224423 $455 30.83621815178224423 $291 $456 forward 7 unknown #
coedge $-1 $177 $176 $457 $458 forward $61 $-1 #
coedge $-1 $459 $460 $176 $295 reversed $444 $-1 #
edge $-1 $302 -49.25443281350138847 $461 49.25443281350138847 $294 $462 forward 7 unknown #
coedge $-1 $288 $463 $177 $297 reversed $173 $-1 #
edge $-1 $464 -49.25443281350138847 $301 49.25443281350138847 $296 $465 forward 7 unknown #
coedge $-1 $291 $178 $463 $466 forward $300 $-1 #
coedge $-1 $178 $291 $459 $467 reversed $300 $-1 #
loop $-1 $-1 $298 $443 #
vertex $-1 $179 $468 #
vertex $-1 $179 $469 #
straight-curve $-1 98.50886562700277693 30.83621815178224423 22.72339520665805068 0 1 0 I I #
face $-1 $470 $471 $31 $-1 $472 reversed single #
loop $-1 $-1 $473 $180 #
plane-surface $-1 49.25443281350138847 30.83621815178224423 22.72339520665805068 0 0 1 1 0 0 forward_v I I I I #
coedge $-1 $474 $475 $476 $477 reversed $181 $-1 #
coedge $-1 $186 $183 $478 $479 reversed $110 $-1 #
coedge $-1 $183 $186 $480 $481 reversed $110 $-1 #
coedge $-1 $475 $474 $183 $311 reversed $181 $-1 #
edge $-1 $482 -11.36169760332902534 $483 11.36169760332902534 $310 $484 forward 7 unknown #
coedge $-1 $185 $184 $485 $486 reversed $64 $-1 #
coedge $-1 $478 $487 $184 $314 forward $471 $-1 #
edge $-1 $488 -17.84002619328913042 $318 -8.152357723697097214 $313 $489 forward 7 unknown #
coedge $-1 $490 $480 $185 $316 forward $305 $-1 #
edge $-1 $317 8.152357723697097214 $491 17.84002619328913042 $315 $492 forward 7 unknown #
vertex $-1 $316 $493 #
vertex $-1 $314 $494 #
straight-curve $-1 4.158347568466219002 9.687668469592033205 11.36169760332902534 0 0 -1 I I #
face $-1 $495 $496 $32 $-1 $497 forward single #
loop $-1 $-1 $498 $188 #
plane-surface $-1 49.25443281350138847 30.83621815178224423 0 0 0 1 1 0 0 forward_v I I I I #
coedge $-1 $499 $500 $328 $501 forward $189 $-1 #
coedge $-1 $194 $191 $502 $503 reversed $114 $-1 #
coedge $-1 $191 $194 $504 $505 reversed $114 $-1 #
coedge $-1 $506 $507 $191 $327 forward $508 $-1 #
edge $-1 $509 -11.36169760332902534 $510 11.36169760332902534 $326 $511 forward 7 unknown #
coedge $-1 $193 $192 $323 $501 reversed $67 $-1 #
coedge $-1 $502 $498 $192 $330 forward $321 $-1 #
edge $-1 $512 18.31156527541244827 $334 23.96020173821929689 $329 $513 forward 7 unknown #
coedge $-1 $514 $504 $193 $332 forward $496 $-1 #
edge $-1 $333 -23.96020173821929689 $515 -18.31156527541244827 $331 $516 forward 7 unknown #
vertex $-1 $332 $517 #
vertex $-1 $330 $518 #
straight-curve $-1 4.158347568466219002 51.98476783397245526 11.36169760332902534 0 0 -1 I I #
face $-1 $-1 $348 $33 $-1 $519 forward single #
loop $-1 $-1 $520 $196 #
plane-surface $-1 0 30.83621815178224423 11.36169760332902534 1 0 0 0 0 -1 forward_v I I I I #
coedge $-1 $521 $522 $523 $524 reversed $197 $-1 #
coedge $-1 $525 $199 $201 $346 forward $118 $-1 #
coedge $-1 $199 $525 $521 $526 forward $118 $-1 #
coedge $-1 $523 $202 $199 $343 forward $348 $-1 #
edge $-1 $350 -4.972408053483899693 $527 5.268239351798310821 $342 $528 forward 7 unknown #
coedge $-1 $529 $530 $200 $345 forward $337 $-1 #
edge $-1 $531 -25.93066274489634537 $349 -14.90938399598918451 $344 $532 forward 7 unknown #
edge $-1 $350 -12.99605375670273588 $531 -1.280391904623975819e-14 $201 $533 forward 7 unknown #
coedge $-1 $202 $523 $529 $534 forward $348 $-1 #
loop $-1 $-1 $523 $336 #
vertex $-1 $345 $535 #
vertex $-1 $203 $536 #
straight-curve $-1 -17.14291195832664272 26.01172574745555011 22.72339520665804713 1 0 0 I I #
coedge $-1 $352 $352 $-1 $537 reversed $206 $-1 #
edge $-1 $538 0 $538 6.283185307179586232 $207 $539 forward 7 unknown #
vertex $-1 $210 $540 #
ellipse-curve $-1 3.443429539935237926 28.05985522851199221 17.21275583220446848 -0.8480481040810504689 0 0.529919251551154491 0.2649596257755772455 0 0.4240240520405252345 1 I I #
coedge $-1 $356 $356 $-1 $541 reversed $213 $-1 #
edge $-1 $542 0 $542 6.283185307179586232 $214 $543 forward 7 unknown #
vertex $-1 $217 $544 #
ellipse-curve $-1 3.443429539935237926 31.13204945009665536 17.21275583220446848 -0.8480481040810504689 0 0.529919251551154491 0.2649596257755772455 0 0.4240240520405252345 1 I I #
coedge $-1 $360 $360 $-1 $545 reversed $220 $-1 #
edge $-1 $546 0 $546 6.283185307179586232 $221 $547 forward 7 unknown #
vertex $-1 $224 $548 #
ellipse-curve $-1 3.443429539935237926 34.20424367168131852 17.21275583220446848 -0.8480481040810504689 0 0.529919251551154491 0.2649596257755772455 0 0.4240240520405252345 1 I I #
face $-1 $-1 $549 $37 $-1 $550 reversed single #
loop $-1 $-1 $231 $225 #
plane-surface $-1 49.25443281350138847 30.83621815178224423 22.72339520665805068 0 0 1 1 0 0 forward_v I I I I #
coedge $-1 $551 $552 $553 $554 reversed $226 $-1 #
coedge $-1 $555 $228 $230 $374 forward $137 $-1 #
coedge $-1 $228 $555 $551 $556 forward $137 $-1 #
coedge $-1 $553 $231 $228 $371 forward $365 $-1 #
edge $-1 $377 4.776722423204159185 $557 11.13365718725771814 $370 $558 forward 7 unknown #
coedge $-1 $559 $560 $229 $373 forward $549 $-1 #
edge $-1 $561 -66.83377455441257098 $376 -58.5575374974213787 $372 $562 forward 7 unknown #
edge $-1 $377 83.70854019715663696 $561 98.50886562700274851 $230 $563 forward 7 unknown #
coedge $-1 $231 $553 $559 $564 forward $365 $-1 #
vertex $-1 $232 $565 #
vertex $-1 $232 $566 #
straight-curve $-1 60.59060369617206732 18.10430592334714817 22.72339520665804713 -1 0 0 I I #
coedge $-1 $379 $379 $-1 $567 reversed $235 $-1 #
edge $-1 $568 0 $568 6.283185307179586232 $236 $569 forward 7 unknown #
vertex $-1 $239 $570 #
ellipse-curve $-1 92.37385272958691473 14.92583854132036691 18.58527667816245099 0.5591929107383988296 0 0.8290375676529484483 1.243556351479422784 0 -0.8387893661075982443 1 I I #
face $-1 $-1 $395 $39 $-1 $571 forward single #
loop $-1 $-1 $572 $240 #
plane-surface $-1 98.50886562700277693 30.83621815178224423 11.36169760332902534 -1 0 0 0 0 1 forward_v I I I I #
coedge $-1 $573 $574 $575 $576 reversed $241 $-1 #
coedge $-1 $577 $243 $245 $393 forward $146 $-1 #
coedge $-1 $243 $577 $573 $578 forward $146 $-1 #
coedge $-1 $575 $246 $243 $390 forward $395 $-1 #
edge $-1 $397 -0.5267374469498022904 $579 5.830197317103760213 $389 $580 forward 7 unknown #
coedge $-1 $581 $582 $244 $392 forward $384 $-1 #
edge $-1 $583 -66.83377455441257098 $396 -58.5575374974213787 $391 $584 forward 7 unknown #
edge $-1 $397 83.70854019715663696 $583 98.50886562700274851 $245 $585 forward 7 unknown #
coedge $-1 $246 $575 $581 $586 forward $395 $-1 #
loop $-1 $-1 $575 $383 #
vertex $-1 $392 $587 #
vertex $-1 $247 $588 #
straight-curve $-1 60.59060369617206732 28.71122566365506401 22.72339520665804713 -1 0 0 I I #
coedge $-1 $399 $399 $-1 $589 reversed $250 $-1 #
edge $-1 $590 0 $590 6.283185307179586232 $251 $591 forward 7 unknown #
vertex $-1 $254 $592 #
ellipse-curve $-1 92.37385272958691473 25.53275828162828276 18.58527667816245099 0.5591929107383988296 0 0.8290375676529484483 1.243556351479422784 0 -0.8387893661075982443 1 I I #
face $-1 $-1 $415 $41 $-1 $593 forward single #
loop $-1 $-1 $594 $255 #
plane-surface $-1 98.50886562700277693 30.83621815178224423 11.36169760332902534 -1 0 0 0 0 1 forward_v I I I I #
coedge $-1 $595 $596 $597 $598 reversed $256 $-1 #
coedge $-1 $599 $258 $260 $413 forward $155 $-1 #
coedge $-1 $258 $599 $595 $600 forward $155 $-1 #
coedge $-1 $597 $261 $258 $410 forward $415 $-1 #
edge $-1 $417 -5.830197317103760213 $601 0.5267374469498022904 $409 $602 forward 7 unknown #
coedge $-1 $603 $604 $259 $412 forward $404 $-1 #
edge $-1 $605 -66.83377455441257098 $416 -58.5575374974213787 $411 $606 forward 7 unknown #
edge $-1 $417 83.70854019715663696 $605 98.50886562700274851 $260 $607 forward 7 unknown #
coedge $-1 $261 $597 $603 $608 forward $415 $-1 #
loop $-1 $-1 $597 $403 #
vertex $-1 $412 $609 #
vertex $-1 $262 $610 #
straight-curve $-1 60.59060369617206732 39.31814540396297986 22.72339520665804713 -1 0 0 I I #
coedge $-1 $419 $419 $-1 $611 reversed $265 $-1 #
edge $-1 $612 0 $612 6.283185307179586232 $266 $613 forward 7 unknown #
vertex $-1 $269 $614 #
ellipse-curve $-1 92.37385272958691473 36.1396780219361986 18.58527667816245099 0.5591929107383988296 0 0.8290375676529484483 1.243556351479422784 0 -0.8387893661075982443 1 I I #
face $-1 $-1 $435 $43 $-1 $615 forward single #
loop $-1 $-1 $616 $270 #
plane-surface $-1 98.50886562700277693 30.83621815178224423 11.36169760332902534 -1 0 0 0 0 1 forward_v I I I I #
coedge $-1 $617 $618 $619 $620 reversed $271 $-1 #
coedge $-1 $621 $273 $275 $433 forward $164 $-1 #
coedge $-1 $273 $621 $617 $622 forward $164 $-1 #
coedge $-1 $619 $276 $273 $430 forward $435 $-1 #
edge $-1 $437 -11.13365718725771103 $623 -4.776722423204155632 $429 $624 forward 7 unknown #
coedge $-1 $625 $626 $274 $432 forward $424 $-1 #
edge $-1 $627 -66.83377455441257098 $436 -58.5575374974213787 $431 $628 forward 7 unknown #
edge $-1 $437 83.70854019715663696 $627 98.50886562700274851 $275 $629 forward 7 unknown #
coedge $-1 $276 $619 $625 $630 forward $435 $-1 #
loop $-1 $-1 $619 $423 #
vertex $-1 $432 $631 #
vertex $-1 $277 $632 #
straight-curve $-1 60.59060369617206732 49.9250651442708886 22.72339520665804713 -1 0 0 I I #
coedge $-1 $439 $439 $-1 $633 reversed $280 $-1 #
edge $-1 $634 0 $634 6.283185307179586232 $281 $635 forward 7 unknown #
vertex $-1 $284 $636 #
ellipse-curve $-1 92.37385272958691473 46.74659776224411445 18.58527667816245099 0.5591929107383988296 0 0.8290375676529484483 1.243556351479422784 0 -0.8387893661075982443 1 I I #
face $-1 $-1 $300 $30 $-1 $637 reversed single #
loop $-1 $-1 $459 $285 #
plane-surface $-1 49.25443281350138847 61.67243630356448847 11.36169760332902534 0 -1 0 0 0 -1 forward_v I I I I #
coedge $-1 $638 $457 $460 $639 forward $286 $-1 #
coedge $-1 $463 $288 $289 $451 reversed $173 $-1 #
coedge $-1 $457 $638 $288 $449 reversed $286 $-1 #
edge $-1 $464 -11.36169760332902534 $640 11.36169760332902534 $448 $641 forward 7 unknown #
coedge $-1 $290 $289 $638 $642 forward $106 $-1 #
edge $-1 $455 -49.25443281350138847 $640 49.25443281350138847 $447 $643 forward 7 unknown #
coedge $-1 $460 $459 $290 $453 reversed $444 $-1 #
edge $-1 $644 -49.25443281350138847 $454 49.25443281350138847 $452 $645 forward 7 unknown #
vertex $-1 $292 $646 #
vertex $-1 $466 $647 #
straight-curve $-1 98.50886562700277693 30.83621815178224423 0 0 -1 0 I I #
coedge $-1 $446 $448 $293 $458 reversed $286 $-1 #
edge $-1 $461 -30.83621815178224423 $464 30.83621815178224423 $457 $648 forward 7 unknown #
coedge $-1 $452 $294 $299 $467 forward $444 $-1 #
coedge $-1 $294 $452 $446 $639 reversed $444 $-1 #
vertex $-1 $295 $649 #
straight-curve $-1 49.25443281350138847 61.67243630356448847 22.72339520665805068 -1 0 0 I I #
coedge $-1 $296 $447 $298 $466 reversed $173 $-1 #
vertex $-1 $458 $650 #
straight-curve $-1 49.25443281350138847 0 22.72339520665805068 1 0 0 I I #
edge $-1 $301 -11.36169760332902534 $455 11.36169760332902534 $298 $651 forward 7 unknown #
edge $-1 $302 -11.36169760332902534 $454 11.36169760332902534 $299 $652 forward 7 unknown #
point $-1 98.50886562700277693 0 22.72339520665805068 #
point $-1 98.50886562700277693 61.67243630356448847 22.72339520665805068 #
face $-1 $-1 $653 $31 $-1 $654 reversed single #
loop $-1 $-1 $655 $304 #
plane-surface $-1 49.25443281350138847 30.83621815178224423 0 0 0 1 1 0 0 forward_v I I I I #
coedge $-1 $480 $490 $475 $656 forward $305 $-1 #
coedge $-1 $310 $307 $655 $657 reversed $181 $-1 #
coedge $-1 $307 $310 $473 $656 reversed $181 $-1 #
coedge $-1 $658 $659 $307 $477 forward $653 $-1 #
edge $-1 $660 -11.36169760332902534 $661 11.36169760332902534 $476 $662 forward 7 unknown #
coedge $-1 $655 $313 $308 $479 forward $471 $-1 #
edge $-1 $318 -23.96020173821929689 $483 -18.31156527541244827 $478 $663 forward 7 unknown #
coedge $-1 $315 $473 $309 $481 forward $305 $-1 #
edge $-1 $482 18.31156527541244827 $317 23.96020173821929689 $480 $664 forward 7 unknown #
vertex $-1 $481 $665 #
vertex $-1 $479 $666 #
straight-curve $-1 9.806984031273067615 9.687668469592033205 11.36169760332902534 0 0 -1 I I #
coedge $-1 $659 $658 $312 $486 forward $653 $-1 #
edge $-1 $491 -11.36169760332902534 $488 11.36169760332902534 $485 $667 forward 7 unknown #
coedge $-1 $313 $655 $659 $668 forward $471 $-1 #
vertex $-1 $314 $669 #
straight-curve $-1 4.158347568466219002 17.84002619328913042 0 0 1 0 I I #
coedge $-1 $473 $315 $658 $670 forward $305 $-1 #
vertex $-1 $670 $671 #
straight-curve $-1 4.158347568466219002 17.84002619328913042 22.72339520665805068 0 -1 0 I I #
point $-1 4.158347568466219002 9.687668469592033205 22.72339520665805068 #
point $-1 4.158347568466219002 9.687668469592033205 0 #
face $-1 $-1 $508 $32 $-1 $672 reversed single #
loop $-1 $-1 $514 $320 #
plane-surface $-1 49.25443281350138847 30.83621815178224423 22.72339520665805068 0 0 1 1 0 0 forward_v I I I I #
coedge $-1 $329 $673 $499 $674 forward $321 $-1 #
coedge $-1 $675 $323 $498 $674 reversed $189 $-1 #
coedge $-1 $323 $675 $514 $676 reversed $189 $-1 #
edge $-1 $515 -11.36169760332902534 $512 11.36169760332902534 $323 $677 forward 7 unknown #
coedge $-1 $673 $329 $324 $503 forward $321 $-1 #
edge $-1 $334 8.152357723697093661 $509 17.84002619328913397 $502 $678 forward 7 unknown #
coedge $-1 $331 $679 $325 $505 forward $496 $-1 #
edge $-1 $510 -17.84002619328913397 $333 -8.152357723697093661 $504 $680 forward 7 unknown #
coedge $-1 $681 $326 $679 $682 reversed $508 $-1 #
coedge $-1 $326 $681 $673 $683 reversed $508 $-1 #
loop $-1 $-1 $681 $495 #
vertex $-1 $683 $684 #
vertex $-1 $327 $685 #
straight-curve $-1 4.158347568466219002 61.67243630356448847 11.36169760332902534 0 0 1 I I #
vertex $-1 $330 $686 #
straight-curve $-1 28.11854930668551589 51.98476783397245526 0 -1 0 0 I I #
coedge $-1 $679 $331 $500 $676 forward $496 $-1 #
vertex $-1 $332 $687 #
straight-curve $-1 28.11854930668551589 51.98476783397245526 22.72339520665805068 1 0 0 I I #
point $-1 4.158347568466219002 51.98476783397245526 22.72339520665805068 #
point $-1 4.158347568466219002 51.98476783397245526 0 #
plane-surface $-1 49.25443281350138847 30.83621815178224423 22.72339520665805068 0 0 1 1 0 0 forward_v I I I I #
coedge $-1 $530 $529 $522 $688 forward $337 $-1 #
coedge $-1 $522 $339 $341 $526 reversed $197 $-1 #
coedge $-1 $339 $521 $520 $688 reversed $197 $-1 #
coedge $-1 $347 $342 $339 $524 forward $348 $-1 #
edge $-1 $527 -24.02977103819711857 $689 -17.14291195832664272 $523 $690 forward 7 unknown #
coedge $-1 $341 $340 $530 $691 reversed $118 $-1 #
edge $-1 $692 1.280391904623975819e-14 $527 12.99605375670273588 $521 $693 forward 7 unknown #
vertex $-1 $343 $694 #
straight-curve $-1 6.886859079870475853 30.9841338009394498 22.72339520665805068 0 1 0 I I #
coedge $-1 $520 $344 $347 $534 reversed $337 $-1 #
coedge $-1 $344 $520 $525 $691 forward $337 $-1 #
vertex $-1 $345 $695 #
straight-curve $-1 0 26.01172574745555011 37.63277920264723519 0 0 1 I I #
straight-curve $-1 -7.105427357601001859e-15 26.01172574745555011 11.70211645775088094 -0.529919251551154491 0 -0.8480481040810504689 I I #
edge $-1 $689 -5.416155000955516385 $349 4.824492404326694128 $529 $696 forward 7 unknown #
point $-1 0 26.01172574745555011 22.72339520665805068 #
point $-1 6.886859079870475853 26.01172574745555011 22.72339520665805068 #
edge $-1 $697 1 $697 0 $352 $-1 forward 7 unknown #
vertex $-1 $353 $698 #
ellipse-curve $-1 4.291477644016296722 28.05985522851199221 16.68283658065330854 -0.8480481040810504689 0 0.529919251551154491 0.2649596257755772455 0 0.4240240520405252345 1 I I #
point $-1 3.708389165710819668 28.05985522851199221 17.63677988424499077 #
edge $-1 $699 1 $699 0 $356 $-1 forward 7 unknown #
vertex $-1 $357 $700 #
ellipse-curve $-1 4.291477644016296722 31.13204945009665536 16.68283658065330854 -0.8480481040810504689 0 0.529919251551154491 0.2649596257755772455 0 0.4240240520405252345 1 I I #
point $-1 3.708389165710819668 31.13204945009665536 17.63677988424499077 #
edge $-1 $701 1 $701 0 $360 $-1 forward 7 unknown #
vertex $-1 $361 $702 #
ellipse-curve $-1 4.291477644016296722 34.20424367168131852 16.68283658065330854 -0.8480481040810504689 0 0.529919251551154491 0.2649596257755772455 0 0.4240240520405252345 1 I I #
point $-1 3.708389165710819668 34.20424367168131852 17.63677988424499077 #
loop $-1 $-1 $372 $364 #
plane-surface $-1 98.50886562700277693 30.83621815178224423 11.36169760332902534 -1 0 0 0 0 1 forward_v I I I I #
coedge $-1 $552 $367 $369 $556 reversed $226 $-1 #
coedge $-1 $367 $551 $703 $704 reversed $226 $-1 #
coedge $-1 $375 $370 $367 $554 forward $365 $-1 #
edge $-1 $557 25.64823613599899943 $705 37.91826193083070962 $553 $706 forward 7 unknown #
coedge $-1 $369 $368 $560 $707 reversed $137 $-1 #
edge $-1 $708 -98.50886562700274851 $557 -83.70854019715663696 $551 $709 forward 7 unknown #
vertex $-1 $371 $710 #
straight-curve $-1 86.23883983217106675 22.88102834655130735 22.72339520665805424 0 -1 0 I I #
coedge $-1 $703 $372 $375 $564 reversed $549 $-1 #
coedge $-1 $372 $703 $555 $707 forward $549 $-1 #
vertex $-1 $373 $711 #
straight-curve $-1 98.50886562700277693 18.10430592334714817 81.28093270407943294 0 0 1 I I #
straight-curve $-1 16.84131527534126604 18.10430592334714817 69.53261745316832787 0.8290375676529484483 0 -0.5591929107383988296 I I #
edge $-1 $705 -19.08884699248865502 $376 -12.73191222843509607 $559 $712 forward 7 unknown #
point $-1 98.50886562700277693 18.10430592334714817 22.72339520665805068 #
point $-1 86.23883983217106675 18.10430592334714817 22.72339520665805424 #
edge $-1 $713 1 $713 0 $379 $-1 forward 7 unknown #
vertex $-1 $380 $714 #
ellipse-curve $-1 90.77455451989612811 14.92583854132036691 16.21421962029848629 0.5591929107383988296 0 0.8290375676529484483 1.243556351479422784 0 -0.8387893661075982443 1 I I #
point $-1 93.61740908106634151 14.92583854132036691 17.74648731205484609 #
plane-surface $-1 49.25443281350138847 30.83621815178224423 22.72339520665805068 0 0 1 1 0 0 forward_v I I I I #
coedge $-1 $582 $581 $574 $715 forward $384 $-1 #
coedge $-1 $574 $386 $388 $578 reversed $241 $-1 #
coedge $-1 $386 $573 $572 $715 reversed $241 $-1 #
coedge $-1 $394 $389 $386 $576 forward $395 $-1 #
edge $-1 $579 25.64823613599899943 $716 37.91826193083070962 $575 $717 forward 7 unknown #
coedge $-1 $388 $387 $582 $718 reversed $146 $-1 #
edge $-1 $719 -98.50886562700274851 $579 -83.70854019715663696 $573 $720 forward 7 unknown #
vertex $-1 $390 $721 #
straight-curve $-1 86.23883983217106675 28.18448821670526172 22.72339520665805424 0 -1 0 I I #
coedge $-1 $572 $391 $394 $586 reversed $384 $-1 #
coedge $-1 $391 $572 $577 $718 forward $384 $-1 #
vertex $-1 $392 $722 #
straight-curve $-1 98.50886562700277693 28.71122566365506401 81.28093270407943294 0 0 1 I I #
straight-curve $-1 16.84131527534126604 28.71122566365506401 69.53261745316832787 0.8290375676529484483 0 -0.5591929107383988296 I I #
edge $-1 $716 -8.481927252180742727 $396 -2.124992488127180224 $581 $723 forward 7 unknown #
point $-1 98.50886562700277693 28.71122566365506401 22.72339520665805068 #
point $-1 86.23883983217106675 28.71122566365506401 22.72339520665805424 #
edge $-1 $724 1 $724 0 $399 $-1 forward 7 unknown #
vertex $-1 $400 $725 #
ellipse-curve $-1 90.77455451989612811 25.53275828162828276 16.21421962029848629 0.5591929107383988296 0 0.8290375676529484483 1.243556351479422784 0 -0.8387893661075982443 1 I I #
point $-1 93.61740908106634151 25.53275828162828276 17.74648731205484609 #
plane-surface $-1 49.25443281350138847 30.83621815178224423 22.72339520665805068 0 0 1 1 0 0 forward_v I I I I #
coedge $-1 $604 $603 $596 $726 forward $404 $-1 #
coedge $-1 $596 $406 $408 $600 reversed $256 $-1 #
coedge $-1 $406 $595 $594 $726 reversed $256 $-1 #
coedge $-1 $414 $409 $406 $598 forward $415 $-1 #
edge $-1 $601 25.64823613599899943 $727 37.91826193083070962 $597 $728 forward 7 unknown #
coedge $-1 $408 $407 $604 $729 reversed $155 $-1 #
edge $-1 $730 -98.50886562700274851 $601 -83.70854019715663696 $595 $731 forward 7 unknown #
vertex $-1 $410 $732 #
straight-curve $-1 86.23883983217106675 33.48794808685921964 22.72339520665805424 0 -1 0 I I #
coedge $-1 $594 $411 $414 $608 reversed $404 $-1 #
coedge $-1 $411 $594 $599 $729 forward $404 $-1 #
vertex $-1 $412 $733 #
straight-curve $-1 98.50886562700277693 39.31814540396297986 81.28093270407943294 0 0 1 I I #
straight-curve $-1 16.84131527534126604 39.31814540396297986 69.53261745316832787 0.8290375676529484483 0 -0.5591929107383988296 I I #
edge $-1 $727 2.124992488127173118 $416 8.481927252180735621 $603 $734 forward 7 unknown #
point $-1 98.50886562700277693 39.31814540396297986 22.72339520665805068 #
point $-1 86.23883983217106675 39.31814540396297986 22.72339520665805424 #
edge $-1 $735 1 $735 0 $419 $-1 forward 7 unknown #
vertex $-1 $420 $736 #
ellipse-curve $-1 90.77455451989612811 36.1396780219361986 16.21421962029848629 0.5591929107383988296 0 0.8290375676529484483 1.243556351479422784 0 -0.8387893661075982443 1 I I #
point $-1 93.61740908106634151 36.1396780219361986 17.74648731205484609 #
plane-surface $-1 49.25443281350138847 30.83621815178224423 22.72339520665805068 0 0 1 1 0 0 forward_v I I I I #
coedge $-1 $626 $625 $618 $737 forward $424 $-1 #
coedge $-1 $618 $426 $428 $622 reversed $271 $-1 #
coedge $-1 $426 $617 $616 $737 reversed $271 $-1 #
coedge $-1 $434 $429 $426 $620 forward $435 $-1 #
edge $-1 $623 25.64823613599899943 $738 37.91826193083070962 $619 $739 forward 7 unknown #
coedge $-1 $428 $427 $626 $740 reversed $164 $-1 #
edge $-1 $741 -98.50886562700274851 $623 -83.70854019715663696 $617 $742 forward 7 unknown #
vertex $-1 $430 $743 #
straight-curve $-1 86.23883983217106675 38.79140795701317757 22.72339520665805424 0 -1 0 I I #
coedge $-1 $616 $431 $434 $630 reversed $424 $-1 #
coedge $-1 $431 $616 $621 $740 forward $424 $-1 #
vertex $-1 $432 $744 #
straight-curve $-1 98.50886562700277693 49.9250651442708886 81.28093270407943294 0 0 1 I I #
straight-curve $-1 16.84131527534126604 49.9250651442708886 69.53261745316832787 0.8290375676529484483 0 -0.5591929107383988296 I I #
edge $-1 $738 12.73191222843508896 $436 19.08884699248864436 $625 $745 forward 7 unknown #
point $-1 98.50886562700277693 49.9250651442708886 22.72339520665805068 #
point $-1 86.23883983217106675 49.9250651442708886 22.72339520665805424 #
edge $-1 $746 1 $746 0 $439 $-1 forward 7 unknown #
vertex $-1 $440 $747 #
ellipse-curve $-1 90.77455451989612811 46.74659776224411445 16.21421962029848629 0.5591929107383988296 0 0.8290375676529484483 1.243556351479422784 0 -0.8387893661075982443 1 I I #
point $-1 93.61740908106634151 46.74659776224411445 17.74648731205484609 #
plane-surface $-1 98.50886562700277693 30.83621815178224423 11.36169760332902534 -1 0 0 0 0 1 forward_v I I I I #
coedge $-1 $448 $446 $450 $642 reversed $286 $-1 #
edge $-1 $461 -11.36169760332902534 $644 11.36169760332902534 $460 $748 forward 7 unknown #
vertex $-1 $642 $749 #
straight-curve $-1 0 0 11.36169760332902534 0 0 -1 I I #
edge $-1 $640 -30.83621815178224423 $644 30.83621815178224423 $638 $750 forward 7 unknown #
straight-curve $-1 49.25443281350138847 0 0 -1 0 0 I I #
vertex $-1 $453 $751 #
straight-curve $-1 49.25443281350138847 61.67243630356448847 0 1 0 0 I I #
point $-1 98.50886562700277693 61.67243630356448847 0 #
point $-1 98.50886562700277693 0 0 #
straight-curve $-1 0 30.83621815178224423 22.72339520665805068 0 -1 0 I I #
point $-1 0 61.67243630356448847 22.72339520665805068 #
point $-1 0 0 22.72339520665805068 #
straight-curve $-1 98.50886562700277693 0 11.36169760332902534 0 0 -1 I I #
straight-curve $-1 98.50886562700277693 61.67243630356448847 11.36169760332902534 0 0 -1 I I #
loop $-1 $-1 $476 $470 #
plane-surface $-1 49.25443281350138847 0 11.36169760332902534 0 1 0 0 0 1 forward_v I I I I #
coedge $-1 $487 $478 $474 $657 forward $471 $-1 #
edge $-1 $661 -17.84002619328913042 $482 -8.152357723697097214 $473 $752 forward 7 unknown #
edge $-1 $483 8.152357723697097214 $660 17.84002619328913042 $655 $753 forward 7 unknown #
coedge $-1 $485 $476 $490 $670 reversed $653 $-1 #
coedge $-1 $476 $485 $487 $668 reversed $653 $-1 #
vertex $-1 $668 $754 #
vertex $-1 $477 $755 #
straight-curve $-1 9.806984031273067615 0 11.36169760332902534 0 0 1 I I #
straight-curve $-1 28.11854930668551589 9.687668469592033205 0 1 0 0 I I #
straight-curve $-1 28.11854930668551589 9.687668469592033205 22.72339520665805068 -1 0 0 I I #
point $-1 9.806984031273067615 9.687668469592033205 22.72339520665805068 #
point $-1 9.806984031273067615 9.687668469592033205 0 #
straight-curve $-1 4.158347568466219002 0 11.36169760332902534 0 0 -1 I I #
edge $-1 $660 39.44744878222832085 $488 45.09608524503516946 $659 $756 forward 7 unknown #
point $-1 4.158347568466219002 0 0 #
edge $-1 $491 -45.09608524503516946 $661 -39.44744878222832085 $658 $757 forward 7 unknown #
point $-1 4.158347568466219002 0 22.72339520665805068 #
plane-surface $-1 49.25443281350138847 61.67243630356448847 11.36169760332902534 0 -1 0 0 0 -1 forward_v I I I I #
coedge $-1 $498 $502 $507 $683 forward $321 $-1 #
edge $-1 $758 -17.84002619328913397 $512 -8.152357723697093661 $498 $759 forward 7 unknown #
coedge $-1 $500 $499 $681 $760 reversed $189 $-1 #
edge $-1 $515 8.152357723697093661 $761 17.84002619328913397 $514 $762 forward 7 unknown #
straight-curve $-1 9.806984031273067615 51.98476783397245526 11.36169760332902534 0 0 -1 I I #
straight-curve $-1 4.158347568466219002 43.8324101102753616 0 0 1 0 I I #
coedge $-1 $504 $514 $506 $682 forward $496 $-1 #
straight-curve $-1 4.158347568466219002 43.8324101102753616 22.72339520665805068 0 -1 0 I I #
coedge $-1 $507 $506 $675 $760 forward $508 $-1 #
edge $-1 $761 39.44744878222832085 $510 45.09608524503516946 $506 $763 forward 7 unknown #
edge $-1 $509 -45.09608524503516946 $758 -39.44744878222832085 $507 $764 forward 7 unknown #
point $-1 4.158347568466219002 61.67243630356449557 0 #
point $-1 4.158347568466219002 61.67243630356449557 22.72339520665805068 #
point $-1 9.806984031273067615 51.98476783397245526 0 #
point $-1 9.806984031273067615 51.98476783397245526 22.72339520665805068 #
edge $-1 $689 14.90938399598918451 $692 25.93066274489634537 $520 $765 forward 7 unknown #
vertex $-1 $534 $766 #
straight-curve $-1 -17.14291195832664272 36.25237315273776062 22.72339520665804713 -1 0 0 I I #
edge $-1 $692 -5.268239351798310821 $531 4.972408053483899693 $530 $767 forward 7 unknown #
vertex $-1 $691 $768 #
straight-curve $-1 -7.105427357601001859e-15 36.25237315273776062 11.70211645775088094 0.529919251551154491 0 0.8480481040810504689 I I #
point $-1 6.886859079870475853 36.25237315273776062 22.72339520665805068 #
point $-1 0 26.01172574745555011 11.7021164577508916 #
straight-curve $-1 0 30.83621815178224423 22.72339520665805068 0 -1 0 I I #
vertex $-1 $537 $769 #
point $-1 4.556437269791871358 28.05985522851199221 17.10686063269383439 #
vertex $-1 $541 $770 #
point $-1 4.556437269791871358 31.13204945009665536 17.10686063269383439 #
vertex $-1 $545 $771 #
point $-1 4.556437269791871358 34.20424367168131852 17.10686063269383439 #
coedge $-1 $560 $559 $552 $704 forward $549 $-1 #
edge $-1 $705 58.5575374974213787 $708 66.83377455441257098 $703 $772 forward 7 unknown #
vertex $-1 $564 $773 #
straight-curve $-1 60.59060369617206732 11.74737115929358922 22.72339520665804713 1 0 0 I I #
edge $-1 $708 -11.13365718725771814 $561 -4.776722423204159185 $560 $774 forward 7 unknown #
vertex $-1 $707 $775 #
straight-curve $-1 16.84131527534126604 11.74737115929358922 69.53261745316832787 -0.8290375676529484483 0 0.5591929107383988296 I I #
point $-1 86.23883983217106675 11.74737115929358922 22.72339520665805424 #
point $-1 98.50886562700276272 18.10430592334714817 14.44715814966686018 #
straight-curve $-1 98.50886562700277693 30.83621815178224423 22.72339520665805068 0 1 0 I I #
vertex $-1 $567 $776 #
point $-1 92.01811087137554068 14.92583854132036691 15.37543025419088494 #
edge $-1 $716 58.5575374974213787 $719 66.83377455441257098 $572 $777 forward 7 unknown #
vertex $-1 $586 $778 #
straight-curve $-1 60.59060369617206732 22.35429089960150151 22.72339520665804713 1 0 0 I I #
edge $-1 $719 -5.830197317103760213 $583 0.5267374469498022904 $582 $779 forward 7 unknown #
vertex $-1 $718 $780 #
straight-curve $-1 16.84131527534126604 22.35429089960150151 69.53261745316832787 -0.8290375676529484483 0 0.5591929107383988296 I I #
point $-1 86.23883983217106675 22.35429089960150151 22.72339520665805424 #
point $-1 98.50886562700276272 28.71122566365506401 14.44715814966686018 #
straight-curve $-1 98.50886562700277693 30.83621815178224423 22.72339520665805068 0 1 0 I I #
vertex $-1 $589 $781 #
point $-1 92.01811087137554068 25.53275828162828276 15.37543025419088494 #
edge $-1 $727 58.5575374974213787 $730 66.83377455441257098 $594 $782 forward 7 unknown #
vertex $-1 $608 $783 #
straight-curve $-1 60.59060369617206732 32.96121063990941735 22.72339520665804713 1 0 0 I I #
edge $-1 $730 -0.5267374469498022904 $605 5.830197317103760213 $604 $784 forward 7 unknown #
vertex $-1 $729 $785 #
straight-curve $-1 16.84131527534126604 32.96121063990941735 69.53261745316832787 -0.8290375676529484483 0 0.5591929107383988296 I I #
point $-1 86.23883983217106675 32.96121063990941735 22.72339520665805424 #
point $-1 98.50886562700276272 39.31814540396297986 14.44715814966686018 #
straight-curve $-1 98.50886562700277693 30.83621815178224423 22.72339520665805068 0 1 0 I I #
vertex $-1 $611 $786 #
point $-1 92.01811087137554068 36.1396780219361986 15.37543025419088494 #
edge $-1 $738 58.5575374974213787 $741 66.83377455441257098 $616 $787 forward 7 unknown #
vertex $-1 $630 $788 #
straight-curve $-1 60.59060369617206732 43.5681303802173332 22.72339520665804713 1 0 0 I I #
edge $-1 $741 4.776722423204155632 $627 11.13365718725771103 $626 $789 forward 7 unknown #
vertex $-1 $740 $790 #
straight-curve $-1 16.84131527534126604 43.5681303802173332 69.53261745316832787 -0.8290375676529484483 0 0.5591929107383988296 I I #
point $-1 86.23883983217106675 43.5681303802173332 22.72339520665805424 #
point $-1 98.50886562700276272 49.9250651442708886 14.44715814966686018 #
straight-curve $-1 98.50886562700277693 30.83621815178224423 22.72339520665805068 0 1 0 I I #
vertex $-1 $633 $791 #
point $-1 92.01811087137554068 46.74659776224411445 15.37543025419088494 #
straight-curve $-1 0 61.67243630356448847 11.36169760332902534 0 0 -1 I I #
point $-1 0 0 0 #
straight-curve $-1 0 30.83621815178224423 0 0 1 0 I I #
point $-1 0 61.67243630356448847 0 #
straight-curve $-1 9.806984031273067615 17.84002619328913042 22.72339520665805068 0 1 0 I I #
straight-curve $-1 9.806984031273067615 17.84002619328913042 0 0 -1 0 I I #
point $-1 9.806984031273067615 0 0 #
point $-1 9.806984031273067615 0 22.72339520665805068 #
straight-curve $-1 49.25443281350138847 0 0 -1 0 0 I I #
straight-curve $-1 49.25443281350138847 0 22.72339520665805068 1 0 0 I I #
vertex $-1 $760 $792 #
straight-curve $-1 9.806984031273067615 43.8324101102753616 0 0 -1 0 I I #
edge $-1 $761 -11.36169760332902534 $758 11.36169760332902534 $681 $793 forward 7 unknown #
vertex $-1 $682 $794 #
straight-curve $-1 9.806984031273067615 43.8324101102753616 22.72339520665805068 0 1 0 I I #
straight-curve $-1 49.25443281350138847 61.67243630356448847 22.72339520665805068 -1 0 0 I I #
straight-curve $-1 49.25443281350138847 61.67243630356448847 0 1 0 0 I I #
straight-curve $-1 0 36.25237315273776062 37.63277920264723519 0 0 -1 I I #
point $-1 0 36.25237315273776062 22.72339520665805068 #
straight-curve $-1 0 30.9841338009394498 11.70211645775090226 0 -1 0 I I #
point $-1 0 36.25237315273776062 11.7021164577508916 #
point $-1 4.715501696056819014 28.05985522851199221 16.41787695487773391 #
point $-1 4.715501696056819014 31.13204945009665536 16.41787695487773391 #
point $-1 4.715501696056819014 34.20424367168131852 16.41787695487773391 #
straight-curve $-1 98.50886562700277693 11.74737115929358922 81.28093270407943294 0 0 -1 I I #
point $-1 98.50886562700277693 11.74737115929358922 22.72339520665805068 #
straight-curve $-1 98.50886562700279114 22.88102834655130735 14.44715814966685663 0 1 0 I I #
point $-1 98.50886562700276272 11.74737115929358922 14.44715814966686018 #
point $-1 89.935765153788509 14.92583854132036691 14.97066326881906129 #
straight-curve $-1 98.50886562700277693 22.35429089960150151 81.28093270407943294 0 0 -1 I I #
point $-1 98.50886562700277693 22.35429089960150151 22.72339520665805068 #
straight-curve $-1 98.50886562700279114 28.18448821670526172 14.44715814966685663 0 1 0 I I #
point $-1 98.50886562700276272 22.35429089960150151 14.44715814966686018 #
point $-1 89.935765153788509 25.53275828162828276 14.97066326881906129 #
straight-curve $-1 98.50886562700277693 32.96121063990941735 81.28093270407943294 0 0 -1 I I #
point $-1 98.50886562700277693 32.96121063990941735 22.72339520665805068 #
straight-curve $-1 98.50886562700279114 33.48794808685921964 14.44715814966685663 0 1 0 I I #
point $-1 98.50886562700276272 32.96121063990941735 14.44715814966686018 #
point $-1 89.935765153788509 36.1396780219361986 14.97066326881906129 #
straight-curve $-1 98.50886562700277693 43.5681303802173332 81.28093270407943294 0 0 -1 I I #
point $-1 98.50886562700277693 43.5681303802173332 22.72339520665805068 #
straight-curve $-1 98.50886562700279114 38.79140795701317757 14.44715814966685663 0 1 0 I I #
point $-1 98.50886562700276272 43.5681303802173332 14.44715814966686018 #
point $-1 89.935765153788509 46.74659776224411445 14.97066326881906129 #
point $-1 9.806984031273067615 61.67243630356449557 0 #
straight-curve $-1 9.806984031273067615 61.67243630356448847 11.36169760332902534 0 0 -1 I I #
point $-1 9.806984031273067615 61.67243630356449557 22.72339520665805068 #
End-of-ACIS-data 