300 0 7 0           
7 Unknown 11 ACIS 3.0 NT 24 Fri Oct 30 17:53:29 1998 
-1 9.9999999999999995e-007 1e-010 
body $7 $8 $-1 $9 #
body $10 $11 $-1 $12 #
body $13 $14 $-1 $15 #
body $16 $17 $-1 $18 #
body $19 $20 $-1 $21 #
body $22 $23 $-1 $24 #
body $25 $26 $-1 $27 #
display_attribute-st-attrib $-1 $28 $-1 $0 1 #
lump $-1 $-1 $29 $0 #
transform $-1 1 0 0 0 1 0 0 0 1 79.058809167760245 31.76611760679387 15.125430063820245 1 rotate no_reflect no_shear #
display_attribute-st-attrib $-1 $30 $-1 $1 1 #
lump $-1 $-1 $31 $1 #
transform $-1 0.74314481823134659 0 0.66913061440640931 0 1 0 -0.66913061440640931 0 0.74314481823134659 -105.80133910532494 6.0089702066771578 132.91798779168829 1 rotate no_reflect no_shear #
display_attribute-st-attrib $-1 $32 $-1 $2 1 #
lump $-1 $-1 $33 $2 #
transform $-1 0.74314481823134659 0 0.66913061440640931 0 -1 0 0.66913061440640931 0 -0.74314481823134659 10.278263449055963 3.4336972609583758 20.567634945353287 1 rotate no_reflect no_shear #
display_attribute-st-attrib $-1 $34 $-1 $3 1 #
lump $-1 $-1 $35 $3 #
transform $-1 0.74314481823134659 0 0.66913061440640931 0 -1 0 0.66913061440640931 0 -0.74314481823134659 10.278263449055963 8.5842431523959402 20.567634945353287 1 rotate no_reflect no_shear #
display_attribute-st-attrib $-1 $36 $-1 $4 1 #
lump $-1 $-1 $37 $4 #
transform $-1 0.75470957328743171 0 -0.6560590369687036 0 1 0 0.6560590369687036 0 0.75470957328743171 142.51923048528141 55.622317224087922 247.32637813098103 1 rotate no_reflect no_shear #
display_attribute-st-attrib $-1 $38 $-1 $5 1 #
lump $-1 $-1 $39 $5 #
transform $-1 0.75470957328743171 0 -0.6560590369687036 0 -1 0 -0.6560590369687036 0 -0.75470957328743171 151.85354011366292 53.419314829869393 24.013587956939062 1 rotate no_reflect no_shear #
display_attribute-st-attrib $-1 $40 $-1 $6 1 #
lump $-1 $-1 $41 $6 #
transform $-1 0.75470957328743171 0 -0.6560590369687036 0 -1 0 -0.6560590369687036 0 -0.75470957328743171 151.85354011366292 57.825319618306445 24.013587956939062 1 rotate no_reflect no_shear #
id_attribute-st-attrib $-1 $-1 $7 $0 1192 #
shell $-1 $-1 $-1 $42 $-1 $8 #
id_attribute-st-attrib $-1 $-1 $10 $1 1201 #
shell $-1 $-1 $-1 $43 $-1 $11 #
id_attribute-st-attrib $-1 $-1 $13 $2 1208 #
shell $-1 $-1 $-1 $44 $-1 $14 #
id_attribute-st-attrib $-1 $-1 $16 $3 1216 #
shell $-1 $-1 $-1 $45 $-1 $17 #
id_attribute-st-attrib $-1 $-1 $19 $4 1230 #
shell $-1 $-1 $-1 $46 $-1 $20 #
id_attribute-st-attrib $-1 $-1 $22 $5 1240 #
shell $-1 $-1 $-1 $47 $-1 $23 #
id_attribute-st-attrib $-1 $-1 $25 $6 1251 #
shell $-1 $-1 $-1 $48 $-1 $26 #
face $-1 $49 $50 $29 $-1 $51 forward single #
face $-1 $52 $53 $31 $-1 $54 forward single #
face $-1 $55 $56 $33 $-1 $57 forward single #
face $-1 $58 $59 $35 $-1 $60 forward single #
face $-1 $61 $62 $37 $-1 $63 forward single #
face $-1 $64 $65 $39 $-1 $66 forward single #
face $-1 $67 $68 $41 $-1 $69 forward single #
face $-1 $70 $71 $29 $-1 $72 reversed single #
loop $-1 $-1 $73 $42 #
plane-surface $-1 0 0 15.125430063820245 0 0 1 1 0 0 forward_v I I I I #
face $-1 $74 $75 $31 $-1 $76 reversed single #
loop $-1 $-1 $77 $43 #
plane-surface $-1 0 0 158.11761833552049 0 0 1 1 0 0 forward_v I I I I #
face $-1 $78 $79 $33 $-1 $80 forward single #
loop $-1 $81 $82 $44 #
cone-surface $-1 0 0 -1.7736899929807439 0 0 1 1 0 0 1 I I 0 1 forward I I I I #
face $-1 $83 $84 $35 $-1 $85 forward single #
loop $-1 $86 $87 $45 #
cone-surface $-1 0 0 -1.7736899929807439 0 0 1 1 0 0 1 I I 0 1 forward I I I I #
face $-1 $88 $89 $37 $-1 $90 reversed single #
loop $-1 $-1 $91 $46 #
plane-surface $-1 0 0 158.11761833552049 0 0 1 1 0 0 forward_v I I I I #
face $-1 $92 $93 $39 $-1 $94 forward single #
loop $-1 $95 $96 $47 #
cone-surface $-1 0 0 -2.3974120303964348 0 0 1 1 0 0 1 I I 0 1 forward I I I I #
face $-1 $97 $98 $41 $-1 $99 forward single #
loop $-1 $100 $101 $48 #
cone-surface $-1 0 0 -2.3974120303964348 0 0 1 1 0 0 1 I I 0 1 forward I I I I #
face $-1 $102 $103 $29 $-1 $104 reversed single #
loop $-1 $-1 $105 $49 #
plane-surface $-1 0 0 -15.125430063820245 0 0 1 1 0 0 forward_v I I I I #
coedge $-1 $106 $107 $108 $109 forward $50 $-1 #
face $-1 $110 $111 $31 $-1 $112 reversed single #
loop $-1 $-1 $113 $52 #
plane-surface $-1 0 0 -158.11761833552049 0 0 1 1 0 0 forward_v I I I I #
coedge $-1 $114 $115 $116 $117 forward $53 $-1 #
face $-1 $-1 $118 $33 $-1 $119 forward single #
loop $-1 $-1 $120 $55 #
plane-surface $-1 0 0 -3.047379985961487 0 0 -1 -1 0 0 forward_v I I I I #
loop $-1 $-1 $121 $44 #
coedge $-1 $82 $82 $120 $122 reversed $56 $-1 #
face $-1 $-1 $123 $35 $-1 $124 forward single #
loop $-1 $-1 $125 $58 #
plane-surface $-1 0 0 -3.047379985961487 0 0 -1 -1 0 0 forward_v I I I I #
loop $-1 $-1 $126 $45 #
coedge $-1 $87 $87 $125 $127 reversed $59 $-1 #
face $-1 $128 $129 $37 $-1 $130 reversed single #
loop $-1 $-1 $131 $61 #
plane-surface $-1 0 0 -158.11761833552049 0 0 1 1 0 0 forward_v I I I I #
coedge $-1 $132 $133 $134 $135 forward $62 $-1 #
face $-1 $-1 $136 $39 $-1 $137 forward single #
loop $-1 $-1 $138 $64 #
plane-surface $-1 0 0 -4.2948240607928696 0 0 -1 -1 0 0 forward_v I I I I #
loop $-1 $-1 $139 $47 #
coedge $-1 $96 $96 $138 $140 reversed $65 $-1 #
face $-1 $-1 $141 $41 $-1 $142 forward single #
loop $-1 $-1 $143 $67 #
plane-surface $-1 0 0 -4.2948240607928696 0 0 -1 -1 0 0 forward_v I I I I #
loop $-1 $-1 $144 $48 #
coedge $-1 $101 $101 $143 $145 reversed $68 $-1 #
face $-1 $146 $147 $29 $-1 $148 reversed single #
loop $-1 $-1 $149 $70 #
plane-surface $-1 0 -31.76611760679387 0 0 1 0 0 0 1 forward_v I I I I #
coedge $-1 $150 $151 $152 $153 forward $71 $-1 #
coedge $-1 $154 $73 $155 $156 forward $50 $-1 #
coedge $-1 $73 $154 $157 $158 forward $50 $-1 #
coedge $-1 $159 $160 $73 $109 reversed $161 $-1 #
edge $-1 $162 $163 $108 $164 forward #
face $-1 $165 $166 $31 $-1 $167 reversed single #
loop $-1 $-1 $168 $74 #
plane-surface $-1 0 -6.0089702066771578 0 0 1 0 0 0 1 forward_v I I I I #
coedge $-1 $169 $170 $171 $172 forward $75 $-1 #
coedge $-1 $173 $77 $174 $175 forward $53 $-1 #
coedge $-1 $77 $173 $176 $177 forward $53 $-1 #
coedge $-1 $178 $179 $77 $117 reversed $180 $-1 #
edge $-1 $181 $182 $116 $183 forward #
loop $-1 $184 $185 $78 #
cone-surface $-1 0 0 0 0 0 1 0.5 0 0 1 I I -0.70710678118654746 0.70710678118654746 forward I I I I #
coedge $-1 $120 $120 $82 $122 forward $79 $-1 #
coedge $-1 $121 $121 $185 $186 forward $81 $-1 #
edge $-1 $187 $187 $120 $188 forward #
loop $-1 $189 $190 $83 #
cone-surface $-1 0 0 0 0 0 1 0.5 0 0 1 I I -0.70710678118654746 0.70710678118654746 forward I I I I #
coedge $-1 $125 $125 $87 $127 forward $84 $-1 #
coedge $-1 $126 $126 $190 $191 forward $86 $-1 #
edge $-1 $192 $192 $125 $193 forward #
face $-1 $194 $195 $37 $-1 $196 reversed single #
loop $-1 $-1 $197 $88 #
plane-surface $-1 0 -5.1403389198432308 0 0 1 0 0 0 1 forward_v I I I I #
coedge $-1 $198 $199 $200 $201 forward $89 $-1 #
coedge $-1 $202 $91 $203 $204 forward $62 $-1 #
coedge $-1 $91 $202 $205 $206 forward $62 $-1 #
coedge $-1 $207 $208 $91 $135 reversed $209 $-1 #
edge $-1 $210 $211 $134 $212 forward #
loop $-1 $213 $214 $92 #
cone-surface $-1 0 0 0 0 0 1 0.5 0 0 1 I I -0.70710678118654746 0.70710678118654746 forward I I I I #
coedge $-1 $138 $138 $96 $140 forward $93 $-1 #
coedge $-1 $139 $139 $214 $215 forward $95 $-1 #
edge $-1 $216 $216 $138 $217 forward #
loop $-1 $218 $219 $97 #
cone-surface $-1 0 0 0 0 0 1 0.5 0 0 1 I I -0.70710678118654746 0.70710678118654746 forward I I I I #
coedge $-1 $143 $143 $101 $145 forward $98 $-1 #
coedge $-1 $144 $144 $219 $220 forward $100 $-1 #
edge $-1 $221 $221 $143 $222 forward #
face $-1 $223 $224 $29 $-1 $225 reversed single #
loop $-1 $-1 $226 $102 #
plane-surface $-1 -79.058809167760245 0 0 1 0 0 0 0 -1 forward_v I I I I #
coedge $-1 $227 $157 $228 $229 forward $103 $-1 #
coedge $-1 $230 $105 $227 $231 forward $71 $-1 #
coedge $-1 $105 $230 $232 $233 forward $71 $-1 #
coedge $-1 $160 $159 $105 $153 reversed $161 $-1 #
edge $-1 $234 $235 $152 $236 forward #
coedge $-1 $107 $106 $237 $238 forward $50 $-1 #
coedge $-1 $239 $240 $106 $156 reversed $224 $-1 #
edge $-1 $163 $241 $155 $242 forward #
coedge $-1 $149 $243 $107 $158 reversed $103 $-1 #
edge $-1 $244 $162 $157 $245 forward #
coedge $-1 $152 $108 $243 $246 forward $161 $-1 #
coedge $-1 $108 $152 $239 $247 reversed $161 $-1 #
loop $-1 $-1 $159 $223 #
vertex $-1 $109 $248 #
vertex $-1 $109 $249 #
straight-curve $-1 79.058809167760245 0 15.125430063820245 0 1 0 I I #
face $-1 $250 $251 $31 $-1 $252 reversed single #
loop $-1 $-1 $253 $110 #
plane-surface $-1 -316.23523667104098 0 0 1 0 0 0 0 -1 forward_v I I I I #
coedge $-1 $254 $176 $255 $256 forward $111 $-1 #
coedge $-1 $257 $113 $254 $258 forward $75 $-1 #
coedge $-1 $113 $257 $259 $260 forward $75 $-1 #
coedge $-1 $179 $178 $113 $172 reversed $180 $-1 #
edge $-1 $261 $262 $171 $263 forward #
coedge $-1 $115 $114 $264 $265 forward $53 $-1 #
coedge $-1 $266 $267 $114 $175 reversed $251 $-1 #
edge $-1 $182 $268 $174 $269 forward #
coedge $-1 $168 $270 $115 $177 reversed $111 $-1 #
edge $-1 $271 $181 $176 $272 forward #
coedge $-1 $171 $116 $270 $273 forward $180 $-1 #
coedge $-1 $116 $171 $266 $274 reversed $180 $-1 #
loop $-1 $-1 $178 $250 #
vertex $-1 $117 $275 #
vertex $-1 $117 $276 #
straight-curve $-1 316.23523667104098 0 158.11761833552049 0 1 0 I I #
loop $-1 $-1 $277 $78 #
coedge $-1 $185 $185 $121 $186 reversed $118 $-1 #
edge $-1 $278 $278 $185 $279 forward #
vertex $-1 $122 $280 #
ellipse-curve $-1 0 0 -3.047379985961487 0 0 -1 1 0 0 1 I I #
loop $-1 $-1 $281 $83 #
coedge $-1 $190 $190 $126 $191 reversed $123 $-1 #
edge $-1 $282 $282 $190 $283 forward #
vertex $-1 $127 $284 #
ellipse-curve $-1 0 0 -3.047379985961487 0 0 -1 1 0 0 1 I I #
face $-1 $285 $286 $37 $-1 $287 reversed single #
loop $-1 $-1 $288 $128 #
plane-surface $-1 -316.23523667104098 0 0 1 0 0 0 0 -1 forward_v I I I I #
coedge $-1 $289 $205 $290 $291 forward $129 $-1 #
coedge $-1 $292 $131 $289 $293 forward $89 $-1 #
coedge $-1 $131 $292 $294 $295 forward $89 $-1 #
coedge $-1 $208 $207 $131 $201 reversed $209 $-1 #
edge $-1 $296 $297 $200 $298 forward #
coedge $-1 $133 $132 $299 $300 forward $62 $-1 #
coedge $-1 $301 $302 $132 $204 reversed $286 $-1 #
edge $-1 $211 $303 $203 $304 forward #
coedge $-1 $197 $305 $133 $206 reversed $129 $-1 #
edge $-1 $306 $210 $205 $307 forward #
coedge $-1 $200 $134 $305 $308 forward $209 $-1 #
coedge $-1 $134 $200 $301 $309 reversed $209 $-1 #
loop $-1 $-1 $207 $285 #
vertex $-1 $135 $310 #
vertex $-1 $135 $311 #
straight-curve $-1 316.23523667104098 0 158.11761833552049 0 1 0 I I #
loop $-1 $-1 $312 $92 #
coedge $-1 $214 $214 $139 $215 reversed $136 $-1 #
edge $-1 $313 $313 $214 $314 forward #
vertex $-1 $140 $315 #
ellipse-curve $-1 0 0 -4.2948240607928696 0 0 -1 1 0 0 1 I I #
loop $-1 $-1 $316 $97 #
coedge $-1 $219 $219 $144 $220 reversed $141 $-1 #
edge $-1 $317 $317 $219 $318 forward #
vertex $-1 $145 $319 #
ellipse-curve $-1 0 0 -4.2948240607928696 0 0 -1 1 0 0 1 I I #
face $-1 $-1 $161 $29 $-1 $320 reversed single #
loop $-1 $-1 $239 $146 #
plane-surface $-1 0 31.76611760679387 0 0 -1 0 0 0 -1 forward_v I I I I #
coedge $-1 $321 $237 $240 $322 forward $147 $-1 #
coedge $-1 $243 $149 $150 $231 reversed $103 $-1 #
coedge $-1 $237 $321 $149 $229 reversed $147 $-1 #
edge $-1 $244 $323 $228 $324 forward #
coedge $-1 $151 $150 $321 $325 forward $71 $-1 #
edge $-1 $235 $323 $227 $326 forward #
coedge $-1 $240 $239 $151 $233 reversed $224 $-1 #
edge $-1 $327 $234 $232 $328 forward #
vertex $-1 $153 $329 #
vertex $-1 $246 $330 #
straight-curve $-1 79.058809167760245 0 -15.125430063820245 0 -1 0 I I #
coedge $-1 $226 $228 $154 $238 reversed $147 $-1 #
edge $-1 $241 $244 $237 $331 forward #
coedge $-1 $232 $155 $160 $247 forward $224 $-1 #
coedge $-1 $155 $232 $226 $322 reversed $224 $-1 #
vertex $-1 $156 $332 #
straight-curve $-1 0 31.76611760679387 15.125430063820245 -1 0 0 I I #
coedge $-1 $157 $227 $159 $246 reversed $103 $-1 #
vertex $-1 $238 $333 #
straight-curve $-1 0 -31.76611760679387 15.125430063820245 1 0 0 I I #
edge $-1 $162 $235 $159 $334 forward #
edge $-1 $163 $234 $160 $335 forward #
point $-1 79.058809167760245 -31.76611760679387 15.125430063820245 #
point $-1 79.058809167760245 31.76611760679387 15.125430063820245 #
face $-1 $-1 $180 $31 $-1 $336 reversed single #
loop $-1 $-1 $266 $165 #
plane-surface $-1 0 6.0089702066771578 0 0 -1 0 0 0 -1 forward_v I I I I #
coedge $-1 $337 $264 $267 $338 forward $166 $-1 #
coedge $-1 $270 $168 $169 $258 reversed $111 $-1 #
coedge $-1 $264 $337 $168 $256 reversed $166 $-1 #
edge $-1 $271 $339 $255 $340 forward #
coedge $-1 $170 $169 $337 $341 forward $75 $-1 #
edge $-1 $262 $339 $254 $342 forward #
coedge $-1 $267 $266 $170 $260 reversed $251 $-1 #
edge $-1 $343 $261 $259 $344 forward #
vertex $-1 $172 $345 #
vertex $-1 $273 $346 #
straight-curve $-1 316.23523667104098 0 -158.11761833552049 0 -1 0 I I #
coedge $-1 $253 $255 $173 $265 reversed $166 $-1 #
edge $-1 $268 $271 $264 $347 forward #
coedge $-1 $259 $174 $179 $274 forward $251 $-1 #
coedge $-1 $174 $259 $253 $338 reversed $251 $-1 #
vertex $-1 $175 $348 #
straight-curve $-1 0 6.0089702066771578 158.11761833552049 -1 0 0 I I #
coedge $-1 $176 $254 $178 $273 reversed $111 $-1 #
vertex $-1 $265 $349 #
straight-curve $-1 0 -6.0089702066771578 158.11761833552049 1 0 0 I I #
edge $-1 $181 $262 $178 $350 forward #
edge $-1 $182 $261 $179 $351 forward #
point $-1 316.23523667104098 -6.0089702066771578 158.11761833552049 #
point $-1 316.23523667104098 6.0089702066771578 158.11761833552049 #
coedge $-1 $277 $277 $-1 $352 reversed $184 $-1 #
vertex $-1 $186 $353 #
ellipse-curve $-1 0 0 -0.5 0 0 -1 1 0 0 1 I I #
point $-1 1 0 -3.047379985961487 #
coedge $-1 $281 $281 $-1 $354 reversed $189 $-1 #
vertex $-1 $191 $355 #
ellipse-curve $-1 0 0 -0.5 0 0 -1 1 0 0 1 I I #
point $-1 1 0 -3.047379985961487 #
face $-1 $-1 $209 $37 $-1 $356 reversed single #
loop $-1 $-1 $301 $194 #
plane-surface $-1 0 5.1403389198432308 0 0 -1 0 0 0 -1 forward_v I I I I #
coedge $-1 $357 $299 $302 $358 forward $195 $-1 #
coedge $-1 $305 $197 $198 $293 reversed $129 $-1 #
coedge $-1 $299 $357 $197 $291 reversed $195 $-1 #
edge $-1 $306 $359 $290 $360 forward #
coedge $-1 $199 $198 $357 $361 forward $89 $-1 #
edge $-1 $297 $359 $289 $362 forward #
coedge $-1 $302 $301 $199 $295 reversed $286 $-1 #
edge $-1 $363 $296 $294 $364 forward #
vertex $-1 $201 $365 #
vertex $-1 $308 $366 #
straight-curve $-1 316.23523667104098 0 -158.11761833552049 0 -1 0 I I #
coedge $-1 $288 $290 $202 $300 reversed $195 $-1 #
edge $-1 $303 $306 $299 $367 forward #
coedge $-1 $294 $203 $208 $309 forward $286 $-1 #
coedge $-1 $203 $294 $288 $358 reversed $286 $-1 #
vertex $-1 $204 $368 #
straight-curve $-1 0 5.1403389198432308 158.11761833552049 -1 0 0 I I #
coedge $-1 $205 $289 $207 $308 reversed $129 $-1 #
vertex $-1 $300 $369 #
straight-curve $-1 0 -5.1403389198432308 158.11761833552049 1 0 0 I I #
edge $-1 $210 $297 $207 $370 forward #
edge $-1 $211 $296 $208 $371 forward #
point $-1 316.23523667104098 -5.1403389198432308 158.11761833552049 #
point $-1 316.23523667104098 5.1403389198432308 158.11761833552049 #
coedge $-1 $312 $312 $-1 $372 reversed $213 $-1 #
vertex $-1 $215 $373 #
ellipse-curve $-1 0 0 -0.5 0 0 -1 1 0 0 1 I I #
point $-1 1 0 -4.2948240607928696 #
coedge $-1 $316 $316 $-1 $374 reversed $218 $-1 #
vertex $-1 $220 $375 #
ellipse-curve $-1 0 0 -0.5 0 0 -1 1 0 0 1 I I #
point $-1 1 0 -4.2948240607928696 #
plane-surface $-1 79.058809167760245 0 0 -1 0 0 0 0 1 forward_v I I I I #
coedge $-1 $228 $226 $230 $325 reversed $147 $-1 #
edge $-1 $241 $327 $240 $376 forward #
vertex $-1 $325 $377 #
straight-curve $-1 -79.058809167760245 -31.76611760679387 0 0 0 -1 I I #
edge $-1 $323 $327 $321 $378 forward #
straight-curve $-1 0 -31.76611760679387 -15.125430063820245 -1 0 0 I I #
vertex $-1 $233 $379 #
straight-curve $-1 0 31.76611760679387 -15.125430063820245 1 0 0 I I #
point $-1 79.058809167760245 31.76611760679387 -15.125430063820245 #
point $-1 79.058809167760245 -31.76611760679387 -15.125430063820245 #
straight-curve $-1 -79.058809167760245 0 15.125430063820245 0 -1 0 I I #
point $-1 -79.058809167760245 31.76611760679387 15.125430063820245 #
point $-1 -79.058809167760245 -31.76611760679387 15.125430063820245 #
straight-curve $-1 79.058809167760245 -31.76611760679387 0 0 0 -1 I I #
straight-curve $-1 79.058809167760245 31.76611760679387 0 0 0 -1 I I #
plane-surface $-1 316.23523667104098 0 0 -1 0 0 0 0 1 forward_v I I I I #
coedge $-1 $255 $253 $257 $341 reversed $166 $-1 #
edge $-1 $268 $343 $267 $380 forward #
vertex $-1 $341 $381 #
straight-curve $-1 -316.23523667104098 -6.0089702066771578 0 0 0 -1 I I #
edge $-1 $339 $343 $337 $382 forward #
straight-curve $-1 0 -6.0089702066771578 -158.11761833552049 -1 0 0 I I #
vertex $-1 $260 $383 #
straight-curve $-1 0 6.0089702066771578 -158.11761833552049 1 0 0 I I #
point $-1 316.23523667104098 6.0089702066771578 -158.11761833552049 #
point $-1 316.23523667104098 -6.0089702066771578 -158.11761833552049 #
straight-curve $-1 -316.23523667104098 0 158.11761833552049 0 -1 0 I I #
point $-1 -316.23523667104098 6.0089702066771578 158.11761833552049 #
point $-1 -316.23523667104098 -6.0089702066771578 158.11761833552049 #
straight-curve $-1 316.23523667104098 -6.0089702066771578 0 0 0 -1 I I #
straight-curve $-1 316.23523667104098 6.0089702066771578 0 0 0 -1 I I #
edge $-1 $384 $384 $277 $-1 forward #
point $-1 1 0 -0.5 #
edge $-1 $385 $385 $281 $-1 forward #
point $-1 1 0 -0.5 #
plane-surface $-1 316.23523667104098 0 0 -1 0 0 0 0 1 forward_v I I I I #
coedge $-1 $290 $288 $292 $361 reversed $195 $-1 #
edge $-1 $303 $363 $302 $386 forward #
vertex $-1 $361 $387 #
straight-curve $-1 -316.23523667104098 -5.1403389198432308 0 0 0 -1 I I #
edge $-1 $359 $363 $357 $388 forward #
straight-curve $-1 0 -5.1403389198432308 -158.11761833552049 -1 0 0 I I #
vertex $-1 $295 $389 #
straight-curve $-1 0 5.1403389198432308 -158.11761833552049 1 0 0 I I #
point $-1 316.23523667104098 5.1403389198432308 -158.11761833552049 #
point $-1 316.23523667104098 -5.1403389198432308 -158.11761833552049 #
straight-curve $-1 -316.23523667104098 0 158.11761833552049 0 -1 0 I I #
point $-1 -316.23523667104098 5.1403389198432308 158.11761833552049 #
point $-1 -316.23523667104098 -5.1403389198432308 158.11761833552049 #
straight-curve $-1 316.23523667104098 -5.1403389198432308 0 0 0 -1 I I #
straight-curve $-1 316.23523667104098 5.1403389198432308 0 0 0 -1 I I #
edge $-1 $390 $390 $312 $-1 forward #
point $-1 1 0 -0.5 #
edge $-1 $391 $391 $316 $-1 forward #
point $-1 1 0 -0.5 #
straight-curve $-1 -79.058809167760245 31.76611760679387 0 0 0 -1 I I #
point $-1 -79.058809167760245 -31.76611760679387 -15.125430063820245 #
straight-curve $-1 -79.058809167760245 0 -15.125430063820245 0 1 0 I I #
point $-1 -79.058809167760245 31.76611760679387 -15.125430063820245 #
straight-curve $-1 -316.23523667104098 6.0089702066771578 0 0 0 -1 I I #
point $-1 -316.23523667104098 -6.0089702066771578 -158.11761833552049 #
straight-curve $-1 -316.23523667104098 0 -158.11761833552049 0 1 0 I I #
point $-1 -316.23523667104098 6.0089702066771578 -158.11761833552049 #
vertex $-1 $352 $392 #
vertex $-1 $354 $393 #
straight-curve $-1 -316.23523667104098 5.1403389198432308 0 0 0 -1 I I #
point $-1 -316.23523667104098 -5.1403389198432308 -158.11761833552049 #
straight-curve $-1 -316.23523667104098 0 -158.11761833552049 0 1 0 I I #
point $-1 -316.23523667104098 5.1403389198432308 -158.11761833552049 #
vertex $-1 $372 $394 #
vertex $-1 $374 $395 #
point $-1 0 0 0.5 #
point $-1 0 0 0.5 #
point $-1 0 0 0.5 #
point $-1 0 0 0.5 #
End-of-ACIS-data 