600 0 10 0           
95 GICL ACIS Healer - Source: /gicl/data5/repository/Drexel/SM99-DATA/part112.smdg.delta.sat - 6 0 18 ACIS 6.0.3 Solaris 24 Sat Apr 13 20:44:05 2002 
1 9.999999999999999547e-07 1.000000000000000036e-10 
body $-1 $10 $-1 $-1 #
body $-1 $11 $-1 $-1 #
body $-1 $12 $-1 $-1 #
body $-1 $13 $-1 $-1 #
body $-1 $14 $-1 $-1 #
body $-1 $15 $-1 $-1 #
body $-1 $16 $-1 $-1 #
body $-1 $17 $-1 $-1 #
body $-1 $18 $-1 $-1 #
body $-1 $19 $-1 $-1 #
lump $-1 $-1 $20 $0 #
lump $-1 $-1 $21 $1 #
lump $-1 $-1 $22 $2 #
lump $-1 $-1 $23 $3 #
lump $-1 $-1 $24 $4 #
lump $-1 $-1 $25 $5 #
lump $-1 $-1 $26 $6 #
lump $-1 $-1 $27 $7 #
lump $-1 $-1 $28 $8 #
lump $-1 $-1 $29 $9 #
shell $-1 $-1 $-1 $30 $-1 $10 #
shell $-1 $-1 $-1 $31 $-1 $11 #
shell $-1 $-1 $-1 $32 $-1 $12 #
shell $-1 $-1 $-1 $33 $-1 $13 #
shell $-1 $-1 $-1 $34 $-1 $14 #
shell $-1 $-1 $-1 $35 $-1 $15 #
shell $-1 $-1 $-1 $36 $-1 $16 #
shell $-1 $-1 $-1 $37 $-1 $17 #
shell $-1 $-1 $-1 $38 $-1 $18 #
shell $-1 $-1 $-1 $39 $-1 $19 #
face $-1 $40 $41 $20 $-1 $42 forward single #
face $-1 $43 $44 $21 $-1 $45 forward single #
face $-1 $46 $47 $22 $-1 $48 reversed single #
face $-1 $49 $50 $23 $-1 $51 forward single #
face $-1 $52 $53 $24 $-1 $54 forward single #
face $-1 $55 $56 $25 $-1 $57 forward single #
face $-1 $58 $59 $26 $-1 $60 reversed single #
face $-1 $61 $62 $27 $-1 $63 forward single #
face $-1 $64 $65 $28 $-1 $66 forward single #
face $-1 $67 $68 $29 $-1 $69 forward single #
face $-1 $70 $71 $20 $-1 $72 reversed single #
loop $-1 $-1 $73 $30 #
plane-surface $-1 68.41639454329050807 40.25265116011144784 22.02637061162237231 0 0 1 1 0 0 forward_v I I I I #
face $-1 $74 $75 $21 $-1 $76 reversed single #
loop $-1 $-1 $77 $31 #
plane-surface $-1 68.41639454329050807 5.374939932660034003 3.192939779904937048 0 0 1 1 0 0 forward_v I I I I #
face $-1 $78 $79 $22 $-1 $80 reversed single #
loop $-1 $-1 $81 $32 #
plane-surface $-1 126.7052191451921459 26.67417829329362888 212.2135094551708789 0 -1 0 -0.6691306144064093075 0 -0.7431448182313465933 forward_v I I I I #
face $-1 $82 $83 $23 $-1 $84 forward single #
loop $-1 $85 $86 $33 #
cone-surface $-1 134.3908902138464327 13.93473955091478089 19.67137996628261476 -0.6691306144064093075 0 -0.7431448182313465933 0.7431448182313465933 0 -0.6691306144064093075 1 I I 0 1 1 forward I I I I #
face $-1 $87 $88 $24 $-1 $89 forward single #
loop $-1 $90 $91 $34 #
cone-surface $-1 134.3908902138464327 18.71202907930684844 19.67137996628261476 -0.6691306144064093075 0 -0.7431448182313465933 0.7431448182313465933 0 -0.6691306144064093075 1 I I 0 1 1 forward I I I I #
face $-1 $92 $93 $25 $-1 $94 forward single #
loop $-1 $95 $96 $35 #
cone-surface $-1 134.3908902138464327 23.489318607698916 19.67137996628261476 -0.6691306144064093075 0 -0.7431448182313465933 0.7431448182313465933 0 -0.6691306144064093075 1 I I 0 1 1 forward I I I I #
face $-1 $97 $98 $26 $-1 $99 reversed single #
loop $-1 $-1 $100 $36 #
plane-surface $-1 126.7052191451921459 64.5810038922493419 212.2135094551708789 0 1 0 0.6691306144064093075 0 0.7431448182313465933 forward_v I I I I #
face $-1 $101 $102 $27 $-1 $103 forward single #
loop $-1 $104 $105 $37 #
cone-surface $-1 134.3908902138464327 67.76586357784405834 19.67137996628261476 -0.6691306144064093075 0 -0.7431448182313465933 0.7431448182313465933 0 -0.6691306144064093075 1 I I 0 1 1 forward I I I I #
face $-1 $106 $107 $28 $-1 $108 forward single #
loop $-1 $109 $110 $38 #
cone-surface $-1 134.3908902138464327 72.54315310623611879 19.67137996628261476 -0.6691306144064093075 0 -0.7431448182313465933 0.7431448182313465933 0 -0.6691306144064093075 1 I I 0 1 1 forward I I I I #
face $-1 $111 $112 $29 $-1 $113 forward single #
loop $-1 $114 $115 $39 #
cone-surface $-1 134.3908902138464327 77.32044263462819345 19.67137996628261476 -0.6691306144064093075 0 -0.7431448182313465933 0.7431448182313465933 0 -0.6691306144064093075 1 I I 0 1 1 forward I I I I #
face $-1 $116 $117 $20 $-1 $118 reversed single #
loop $-1 $-1 $119 $40 #
plane-surface $-1 68.41639454329050807 40.25265116011144784 0 0 0 1 1 0 0 forward_v I I I I #
coedge $-1 $120 $121 $122 $123 forward $41 $-1 #
face $-1 $124 $125 $21 $-1 $126 reversed single #
loop $-1 $-1 $127 $43 #
plane-surface $-1 68.41639454329050807 10.74987986532006801 1.59646988995246808 0 -1 0 0 0 -1 forward_v I I I I #
coedge $-1 $128 $129 $130 $131 reversed $44 $-1 #
face $-1 $132 $133 $22 $-1 $134 reversed single #
loop $-1 $-1 $135 $46 #
plane-surface $-1 35.1462109127455733 18.71202907930684844 110.5269312813354503 0.6691306144064093075 0 0.7431448182313465933 0.7431448182313465933 0 -0.6691306144064093075 forward_v I I I I #
coedge $-1 $136 $137 $138 $139 reversed $47 $-1 #
face $-1 $-1 $140 $23 $-1 $141 forward single #
loop $-1 $142 $143 $49 #
cone-surface $-1 133.3128010664827627 13.93473955091478089 18.47404069319394182 -0.6691306144064093075 0 -0.7431448182313465933 0.3715724091156732967 0 -0.3345653072032046538 1 I I -0.7071067811865474617 0.7071067811865474617 0.5 forward I I I I #
loop $-1 $-1 $144 $33 #
coedge $-1 $86 $86 $145 $146 reversed $50 $-1 #
face $-1 $-1 $147 $24 $-1 $148 forward single #
loop $-1 $149 $150 $52 #
cone-surface $-1 133.3128010664827627 18.71202907930684844 18.47404069319394182 -0.6691306144064093075 0 -0.7431448182313465933 0.3715724091156732967 0 -0.3345653072032046538 1 I I -0.7071067811865474617 0.7071067811865474617 0.5 forward I I I I #
loop $-1 $-1 $151 $34 #
coedge $-1 $91 $91 $152 $153 reversed $53 $-1 #
face $-1 $-1 $154 $25 $-1 $155 forward single #
loop $-1 $156 $157 $55 #
cone-surface $-1 133.3128010664827627 23.489318607698916 18.47404069319394182 -0.6691306144064093075 0 -0.7431448182313465933 0.3715724091156732967 0 -0.3345653072032046538 1 I I -0.7071067811865474617 0.7071067811865474617 0.5 forward I I I I #
loop $-1 $-1 $158 $35 #
coedge $-1 $96 $96 $159 $160 reversed $56 $-1 #
face $-1 $161 $162 $26 $-1 $163 reversed single #
loop $-1 $-1 $164 $58 #
plane-surface $-1 35.1462109127455733 72.54315310623611879 110.5269312813354503 0.6691306144064093075 0 0.7431448182313465933 0.7431448182313465933 0 -0.6691306144064093075 forward_v I I I I #
coedge $-1 $165 $166 $167 $168 reversed $59 $-1 #
face $-1 $-1 $169 $27 $-1 $170 forward single #
loop $-1 $171 $172 $61 #
cone-surface $-1 133.3128010664827627 67.76586357784405834 18.47404069319394182 -0.6691306144064093075 0 -0.7431448182313465933 0.3715724091156732967 0 -0.3345653072032046538 1 I I -0.7071067811865474617 0.7071067811865474617 0.5 forward I I I I #
loop $-1 $-1 $173 $37 #
coedge $-1 $105 $105 $174 $175 reversed $62 $-1 #
face $-1 $-1 $176 $28 $-1 $177 forward single #
loop $-1 $178 $179 $64 #
cone-surface $-1 133.3128010664827627 72.54315310623611879 18.47404069319394182 -0.6691306144064093075 0 -0.7431448182313465933 0.3715724091156732967 0 -0.3345653072032046538 1 I I -0.7071067811865474617 0.7071067811865474617 0.5 forward I I I I #
loop $-1 $-1 $180 $38 #
coedge $-1 $110 $110 $181 $182 reversed $65 $-1 #
face $-1 $-1 $183 $29 $-1 $184 forward single #
loop $-1 $185 $186 $67 #
cone-surface $-1 133.3128010664827627 77.32044263462819345 18.47404069319394182 -0.6691306144064093075 0 -0.7431448182313465933 0.3715724091156732967 0 -0.3345653072032046538 1 I I -0.7071067811865474617 0.7071067811865474617 0.5 forward I I I I #
loop $-1 $-1 $187 $39 #
coedge $-1 $115 $115 $188 $189 reversed $68 $-1 #
face $-1 $190 $191 $20 $-1 $192 reversed single #
loop $-1 $-1 $193 $70 #
plane-surface $-1 68.41639454329050807 0 11.01318530581118615 0 1 0 0 0 1 forward_v I I I I #
coedge $-1 $194 $195 $196 $197 forward $71 $-1 #
coedge $-1 $198 $73 $199 $200 forward $41 $-1 #
coedge $-1 $73 $198 $201 $202 forward $41 $-1 #
coedge $-1 $203 $204 $73 $123 reversed $205 $-1 #
edge $-1 $206 -40.25265116011144784 $207 40.25265116011144784 $122 $208 forward 7 unknown #
face $-1 $209 $210 $21 $-1 $211 reversed single #
loop $-1 $-1 $212 $74 #
plane-surface $-1 68.41639454329050807 40.25265116011144784 0 0 0 1 1 0 0 forward_v I I I I #
coedge $-1 $213 $214 $215 $216 reversed $75 $-1 #
coedge $-1 $217 $77 $214 $218 forward $44 $-1 #
coedge $-1 $77 $217 $219 $220 reversed $44 $-1 #
coedge $-1 $221 $215 $77 $131 forward $210 $-1 #
edge $-1 $222 12.06391568106567291 $223 22.81379554638574092 $130 $224 forward 7 unknown #
face $-1 $225 $226 $22 $-1 $227 reversed single #
loop $-1 $-1 $228 $78 #
plane-surface $-1 126.7052191451921459 10.74987986532006801 212.2135094551708789 0 1 0 0.6691306144064093075 0 0.7431448182313465933 forward_v I I I I #
coedge $-1 $229 $230 $231 $232 reversed $79 $-1 #
coedge $-1 $137 $81 $233 $234 reversed $47 $-1 #
coedge $-1 $81 $136 $229 $235 reversed $47 $-1 #
coedge $-1 $231 $236 $81 $139 forward $237 $-1 #
edge $-1 $238 -39.27198224233968915 $239 -35.87523217719136426 $138 $240 forward 7 unknown #
loop $-1 $-1 $145 $82 #
plane-surface $-1 35.1462109127455733 18.71202907930684844 110.5269312813354503 0.6691306144064093075 0 0.7431448182313465933 0.7431448182313465933 0 -0.6691306144064093075 forward_v I I I I #
loop $-1 $-1 $241 $49 #
coedge $-1 $143 $143 $144 $242 reversed $83 $-1 #
coedge $-1 $144 $144 $143 $242 forward $85 $-1 #
coedge $-1 $145 $145 $86 $146 forward $140 $-1 #
edge $-1 $243 0 $243 6.283185307179586232 $145 $244 forward 7 unknown #
loop $-1 $-1 $152 $87 #
plane-surface $-1 35.1462109127455733 18.71202907930684844 110.5269312813354503 0.6691306144064093075 0 0.7431448182313465933 0.7431448182313465933 0 -0.6691306144064093075 forward_v I I I I #
loop $-1 $-1 $245 $52 #
coedge $-1 $150 $150 $151 $246 reversed $88 $-1 #
coedge $-1 $151 $151 $150 $246 forward $90 $-1 #
coedge $-1 $152 $152 $91 $153 forward $147 $-1 #
edge $-1 $247 0 $247 6.283185307179586232 $152 $248 forward 7 unknown #
loop $-1 $-1 $159 $92 #
plane-surface $-1 35.1462109127455733 18.71202907930684844 110.5269312813354503 0.6691306144064093075 0 0.7431448182313465933 0.7431448182313465933 0 -0.6691306144064093075 forward_v I I I I #
loop $-1 $-1 $249 $55 #
coedge $-1 $157 $157 $158 $250 reversed $93 $-1 #
coedge $-1 $158 $158 $157 $250 forward $95 $-1 #
coedge $-1 $159 $159 $96 $160 forward $154 $-1 #
edge $-1 $251 0 $251 6.283185307179586232 $159 $252 forward 7 unknown #
face $-1 $253 $254 $26 $-1 $255 forward single #
loop $-1 $-1 $167 $97 #
plane-surface $-1 136.8327890865810161 40.25265116011144784 11.01318530581118615 -1 0 0 0 0 1 forward_v I I I I #
coedge $-1 $256 $257 $258 $259 reversed $98 $-1 #
coedge $-1 $166 $100 $260 $261 reversed $59 $-1 #
coedge $-1 $100 $165 $256 $262 reversed $59 $-1 #
coedge $-1 $258 $263 $100 $168 forward $162 $-1 #
edge $-1 $264 89.58697676886866645 $265 92.64542433160215751 $167 $266 forward 7 unknown #
loop $-1 $-1 $174 $101 #
plane-surface $-1 35.1462109127455733 72.54315310623611879 110.5269312813354503 0.6691306144064093075 0 0.7431448182313465933 0.7431448182313465933 0 -0.6691306144064093075 forward_v I I I I #
loop $-1 $-1 $267 $61 #
coedge $-1 $172 $172 $173 $268 reversed $102 $-1 #
coedge $-1 $173 $173 $172 $268 forward $104 $-1 #
coedge $-1 $174 $174 $105 $175 forward $169 $-1 #
edge $-1 $269 0 $269 6.283185307179586232 $174 $270 forward 7 unknown #
loop $-1 $-1 $181 $106 #
plane-surface $-1 35.1462109127455733 72.54315310623611879 110.5269312813354503 0.6691306144064093075 0 0.7431448182313465933 0.7431448182313465933 0 -0.6691306144064093075 forward_v I I I I #
loop $-1 $-1 $271 $64 #
coedge $-1 $179 $179 $180 $272 reversed $107 $-1 #
coedge $-1 $180 $180 $179 $272 forward $109 $-1 #
coedge $-1 $181 $181 $110 $182 forward $176 $-1 #
edge $-1 $273 0 $273 6.283185307179586232 $181 $274 forward 7 unknown #
loop $-1 $-1 $188 $111 #
plane-surface $-1 35.1462109127455733 72.54315310623611879 110.5269312813354503 0.6691306144064093075 0 0.7431448182313465933 0.7431448182313465933 0 -0.6691306144064093075 forward_v I I I I #
loop $-1 $-1 $275 $67 #
coedge $-1 $186 $186 $187 $276 reversed $112 $-1 #
coedge $-1 $187 $187 $186 $276 forward $114 $-1 #
coedge $-1 $188 $188 $115 $189 forward $183 $-1 #
edge $-1 $277 0 $277 6.283185307179586232 $188 $278 forward 7 unknown #
face $-1 $279 $280 $20 $-1 $281 reversed single #
loop $-1 $-1 $282 $116 #
plane-surface $-1 0 40.25265116011144784 11.01318530581118615 1 0 0 0 0 -1 forward_v I I I I #
coedge $-1 $283 $201 $284 $285 forward $117 $-1 #
coedge $-1 $286 $119 $283 $287 forward $71 $-1 #
coedge $-1 $119 $286 $288 $289 forward $71 $-1 #
coedge $-1 $204 $203 $119 $197 reversed $205 $-1 #
edge $-1 $290 -40.25265116011144784 $291 40.25265116011144784 $196 $292 forward 7 unknown #
coedge $-1 $121 $120 $293 $294 forward $41 $-1 #
coedge $-1 $295 $296 $120 $200 reversed $280 $-1 #
edge $-1 $207 -68.41639454329050807 $297 68.41639454329050807 $199 $298 forward 7 unknown #
coedge $-1 $193 $299 $121 $202 reversed $117 $-1 #
edge $-1 $300 -68.41639454329050807 $206 68.41639454329050807 $201 $301 forward 7 unknown #
coedge $-1 $196 $122 $299 $302 forward $205 $-1 #
coedge $-1 $122 $196 $295 $303 reversed $205 $-1 #
loop $-1 $-1 $203 $279 #
vertex $-1 $123 $304 #
vertex $-1 $123 $305 #
straight-curve $-1 136.8327890865810161 40.25265116011144784 22.02637061162237231 0 1 0 I I #
face $-1 $306 $307 $21 $-1 $308 reversed single #
loop $-1 $-1 $215 $124 #
plane-surface $-1 136.8327890865810161 40.25265116011144784 11.01318530581118615 -1 0 0 0 0 1 forward_v I I I I #
coedge $-1 $309 $310 $213 $311 forward $125 $-1 #
coedge $-1 $312 $127 $212 $311 reversed $75 $-1 #
coedge $-1 $127 $312 $128 $218 reversed $75 $-1 #
coedge $-1 $130 $313 $127 $216 forward $210 $-1 #
edge $-1 $314 -6.304827597881828893 $222 -3.111887817976890069 $215 $315 forward 7 unknown #
coedge $-1 $129 $128 $316 $317 reversed $44 $-1 #
edge $-1 $222 -68.41639454329050807 $318 68.41639454329050807 $214 $319 forward 7 unknown #
coedge $-1 $320 $321 $129 $220 forward $307 $-1 #
edge $-1 $223 -68.41639454329050807 $322 68.41639454329050807 $219 $323 forward 7 unknown #
coedge $-1 $313 $130 $321 $324 forward $210 $-1 #
vertex $-1 $131 $325 #
vertex $-1 $324 $326 #
straight-curve $-1 136.8327890865810161 22.81379554638574092 3.192939779904937048 0 -1 0 I I #
face $-1 $-1 $237 $22 $-1 $327 forward single #
loop $-1 $-1 $328 $132 #
plane-surface $-1 136.8327890865810161 40.25265116011144784 11.01318530581118615 -1 0 0 0 0 1 forward_v I I I I #
coedge $-1 $329 $330 $331 $332 reversed $133 $-1 #
coedge $-1 $333 $135 $137 $235 forward $79 $-1 #
coedge $-1 $135 $333 $329 $334 forward $79 $-1 #
coedge $-1 $331 $138 $135 $232 forward $237 $-1 #
edge $-1 $239 2.808161826415521034 $335 18.73246025438908191 $231 $336 forward 7 unknown #
coedge $-1 $337 $338 $136 $234 forward $226 $-1 #
edge $-1 $339 -92.64542433160215751 $238 -89.58697676886866645 $233 $340 forward 7 unknown #
edge $-1 $239 132.2620109800573687 $339 136.8327890865810161 $137 $341 forward 7 unknown #
coedge $-1 $138 $331 $337 $342 forward $237 $-1 #
loop $-1 $-1 $331 $225 #
vertex $-1 $234 $343 #
vertex $-1 $139 $344 #
straight-curve $-1 97.56080684424132698 26.67417829329362888 22.02637061162237586 -1 0 0 I I #
coedge $-1 $241 $241 $-1 $345 reversed $142 $-1 #
edge $-1 $346 0 $346 6.283185307179586232 $143 $347 forward 7 unknown #
vertex $-1 $146 $348 #
ellipse-curve $-1 135.1344140540068679 13.93473955091478089 20.49714683025561612 0.6691306144064093075 0 0.7431448182313465933 0.7431448182313465933 0 -0.6691306144064093075 1 I I #
coedge $-1 $245 $245 $-1 $349 reversed $149 $-1 #
edge $-1 $350 0 $350 6.283185307179586232 $150 $351 forward 7 unknown #
vertex $-1 $153 $352 #
ellipse-curve $-1 135.1344140540068679 18.71202907930684844 20.49714683025561612 0.6691306144064093075 0 0.7431448182313465933 0.7431448182313465933 0 -0.6691306144064093075 1 I I #
coedge $-1 $249 $249 $-1 $353 reversed $156 $-1 #
edge $-1 $354 0 $354 6.283185307179586232 $157 $355 forward 7 unknown #
vertex $-1 $160 $356 #
ellipse-curve $-1 135.1344140540068679 23.489318607698916 20.49714683025561612 0.6691306144064093075 0 0.7431448182313465933 0.7431448182313465933 0 -0.6691306144064093075 1 I I #
face $-1 $-1 $357 $26 $-1 $358 reversed single #
loop $-1 $-1 $260 $161 #
plane-surface $-1 68.41639454329050807 40.25265116011144784 22.02637061162237231 0 0 1 1 0 0 forward_v I I I I #
coedge $-1 $359 $164 $166 $262 forward $98 $-1 #
coedge $-1 $164 $359 $360 $361 reversed $98 $-1 #
coedge $-1 $362 $167 $164 $259 forward $162 $-1 #
edge $-1 $265 8.183101759075555037 $363 24.10740018704910881 $258 $364 forward 7 unknown #
coedge $-1 $365 $366 $165 $261 forward $254 $-1 #
edge $-1 $367 35.87523217719136426 $264 39.27198224233968915 $260 $368 forward 7 unknown #
edge $-1 $265 -136.8327890865810161 $367 -132.2620109800573687 $166 $369 forward 7 unknown #
coedge $-1 $167 $362 $365 $370 reversed $162 $-1 #
vertex $-1 $370 $371 #
vertex $-1 $168 $372 #
straight-curve $-1 136.8327890865810161 64.5810038922493419 111.6133473804910352 0 0 -1 I I #
coedge $-1 $267 $267 $-1 $373 reversed $171 $-1 #
edge $-1 $374 0 $374 6.283185307179586232 $172 $375 forward 7 unknown #
vertex $-1 $175 $376 #
ellipse-curve $-1 135.1344140540068679 67.76586357784405834 20.49714683025561612 0.6691306144064093075 0 0.7431448182313465933 0.7431448182313465933 0 -0.6691306144064093075 1 I I #
coedge $-1 $271 $271 $-1 $377 reversed $178 $-1 #
edge $-1 $378 0 $378 6.283185307179586232 $179 $379 forward 7 unknown #
vertex $-1 $182 $380 #
ellipse-curve $-1 135.1344140540068679 72.54315310623611879 20.49714683025561612 0.6691306144064093075 0 0.7431448182313465933 0.7431448182313465933 0 -0.6691306144064093075 1 I I #
coedge $-1 $275 $275 $-1 $381 reversed $185 $-1 #
edge $-1 $382 0 $382 6.283185307179586232 $186 $383 forward 7 unknown #
vertex $-1 $189 $384 #
ellipse-curve $-1 135.1344140540068679 77.32044263462819345 20.49714683025561612 0.6691306144064093075 0 0.7431448182313465933 0.7431448182313465933 0 -0.6691306144064093075 1 I I #
face $-1 $-1 $205 $20 $-1 $385 reversed single #
loop $-1 $-1 $295 $190 #
plane-surface $-1 68.41639454329050807 80.50530232022289567 11.01318530581118615 0 -1 0 0 0 -1 forward_v I I I I #
coedge $-1 $386 $293 $296 $387 forward $191 $-1 #
coedge $-1 $299 $193 $194 $287 reversed $117 $-1 #
coedge $-1 $293 $386 $193 $285 reversed $191 $-1 #
edge $-1 $300 -11.01318530581118615 $388 11.01318530581118615 $284 $389 forward 7 unknown #
coedge $-1 $195 $194 $386 $390 forward $71 $-1 #
edge $-1 $291 -68.41639454329050807 $388 68.41639454329050807 $283 $391 forward 7 unknown #
coedge $-1 $296 $295 $195 $289 reversed $280 $-1 #
edge $-1 $392 -68.41639454329050807 $290 68.41639454329050807 $288 $393 forward 7 unknown #
vertex $-1 $197 $394 #
vertex $-1 $302 $395 #
straight-curve $-1 136.8327890865810161 40.25265116011144784 0 0 -1 0 I I #
coedge $-1 $282 $284 $198 $294 reversed $191 $-1 #
edge $-1 $297 -40.25265116011144784 $300 40.25265116011144784 $293 $396 forward 7 unknown #
coedge $-1 $288 $199 $204 $303 forward $280 $-1 #
coedge $-1 $199 $288 $282 $387 reversed $280 $-1 #
vertex $-1 $200 $397 #
straight-curve $-1 68.41639454329050807 80.50530232022289567 22.02637061162237231 -1 0 0 I I #
coedge $-1 $201 $283 $203 $302 reversed $117 $-1 #
vertex $-1 $294 $398 #
straight-curve $-1 68.41639454329050807 0 22.02637061162237231 1 0 0 I I #
edge $-1 $206 -11.01318530581118615 $291 11.01318530581118615 $203 $399 forward 7 unknown #
edge $-1 $207 -11.01318530581118615 $290 11.01318530581118615 $204 $400 forward 7 unknown #
point $-1 136.8327890865810161 0 22.02637061162237231 #
point $-1 136.8327890865810161 80.50530232022289567 22.02637061162237231 #
face $-1 $-1 $401 $21 $-1 $402 reversed single #
loop $-1 $-1 $219 $209 #
plane-surface $-1 68.41639454329050807 0 11.01318530581118615 0 1 0 0 0 1 forward_v I I I I #
coedge $-1 $403 $212 $313 $404 forward $125 $-1 #
coedge $-1 $212 $403 $405 $406 forward $125 $-1 #
edge $-1 $407 -68.41639454329050807 $314 68.41639454329050807 $212 $408 forward 7 unknown #
coedge $-1 $214 $213 $409 $410 reversed $75 $-1 #
coedge $-1 $215 $221 $309 $404 reversed $210 $-1 #
vertex $-1 $404 $411 #
straight-curve $-1 136.8327890865810161 10.74987986532006801 6.304827597881827117 0 0 1 I I #
coedge $-1 $409 $412 $217 $317 forward $401 $-1 #
edge $-1 $322 -22.81379554638574092 $318 -12.06391568106567291 $316 $413 forward 7 unknown #
vertex $-1 $317 $414 #
straight-curve $-1 68.41639454329050807 10.74987986532006801 3.192939779904937048 -1 0 0 I I #
coedge $-1 $415 $219 $412 $416 forward $307 $-1 #
coedge $-1 $219 $415 $221 $324 reversed $307 $-1 #
vertex $-1 $416 $417 #
straight-curve $-1 68.41639454329050807 0 3.192939779904937048 -1 0 0 I I #
edge $-1 $223 7.820245525906249107 $418 11.01318530581118615 $221 $419 forward 7 unknown #
point $-1 136.8327890865810161 10.74987986532006801 3.192939779904937048 #
point $-1 136.8327890865810161 0 3.192939779904937048 #
plane-surface $-1 68.41639454329050807 40.25265116011144784 22.02637061162237231 0 0 1 1 0 0 forward_v I I I I #
coedge $-1 $338 $337 $330 $420 forward $226 $-1 #
coedge $-1 $330 $228 $230 $334 reversed $133 $-1 #
coedge $-1 $228 $329 $328 $420 reversed $133 $-1 #
coedge $-1 $236 $231 $228 $332 forward $237 $-1 #
edge $-1 $335 35.87523217719136426 $421 39.27198224233968915 $331 $422 forward 7 unknown #
coedge $-1 $230 $229 $338 $423 reversed $79 $-1 #
edge $-1 $424 -136.8327890865810161 $335 -132.2620109800573687 $329 $425 forward 7 unknown #
vertex $-1 $232 $426 #
straight-curve $-1 133.4360390214327481 29.48234011970914992 22.02637061162236876 0 -1 0 I I #
coedge $-1 $328 $233 $236 $342 reversed $226 $-1 #
coedge $-1 $233 $328 $333 $423 forward $226 $-1 #
vertex $-1 $234 $427 #
straight-curve $-1 136.8327890865810161 26.67417829329362888 111.6133473804910352 0 0 1 I I #
straight-curve $-1 35.1462109127455733 26.67417829329362888 110.5269312813354503 0.7431448182313465933 0 -0.6691306144064093075 I I #
edge $-1 $421 -29.50277129479137983 $238 -13.57847286681781895 $337 $428 forward 7 unknown #
point $-1 136.8327890865810161 26.67417829329362888 22.02637061162237231 #
point $-1 133.4360390214326912 26.67417829329362888 22.02637061162239007 #
edge $-1 $429 1 $429 0 $241 $-1 forward 7 unknown #
vertex $-1 $242 $430 #
ellipse-curve $-1 133.6473663736859692 13.93473955091478089 18.8456131023096134 0.6691306144064093075 0 0.7431448182313465933 0.7431448182313465933 0 -0.6691306144064093075 1 I I #
point $-1 135.8775588722382111 13.93473955091478089 19.82801621584921037 #
edge $-1 $431 1 $431 0 $245 $-1 forward 7 unknown #
vertex $-1 $246 $432 #
ellipse-curve $-1 133.6473663736859692 18.71202907930684844 18.8456131023096134 0.6691306144064093075 0 0.7431448182313465933 0.7431448182313465933 0 -0.6691306144064093075 1 I I #
point $-1 135.8775588722382111 18.71202907930684844 19.82801621584921037 #
edge $-1 $433 1 $433 0 $249 $-1 forward 7 unknown #
vertex $-1 $250 $434 #
ellipse-curve $-1 133.6473663736859692 23.489318607698916 18.8456131023096134 0.6691306144064093075 0 0.7431448182313465933 0.7431448182313465933 0 -0.6691306144064093075 1 I I #
point $-1 135.8775588722382111 23.489318607698916 19.82801621584921037 #
loop $-1 $-1 $360 $253 #
plane-surface $-1 68.41639454329050807 80.50530232022289567 11.01318530581118615 0 -1 0 0 0 -1 forward_v I I I I #
coedge $-1 $257 $256 $366 $435 reversed $98 $-1 #
coedge $-1 $436 $437 $257 $361 forward $357 $-1 #
edge $-1 $363 -91.17665981001566422 $438 -86.60588170349203097 $360 $439 forward 7 unknown #
coedge $-1 $263 $258 $437 $440 reversed $162 $-1 #
vertex $-1 $259 $441 #
straight-curve $-1 136.8327890865809877 56.39790213317378686 18.9679230488888706 0 1 0 I I #
coedge $-1 $442 $260 $263 $370 forward $254 $-1 #
coedge $-1 $260 $442 $359 $435 forward $254 $-1 #
vertex $-1 $261 $443 #
straight-curve $-1 97.56080684424132698 64.5810038922493419 22.02637061162237586 1 0 0 I I #
straight-curve $-1 35.1462109127455733 64.5810038922493419 110.5269312813354503 -0.7431448182313465933 0 0.6691306144064093075 I I #
edge $-1 $264 24.32835273213789407 $444 40.25265116011144784 $263 $445 forward 7 unknown #
point $-1 136.8327890865810161 64.5810038922493419 22.02637061162237231 #
point $-1 136.8327890865809877 64.5810038922493419 18.9679230488888706 #
edge $-1 $446 1 $446 0 $267 $-1 forward 7 unknown #
vertex $-1 $268 $447 #
ellipse-curve $-1 133.6473663736859692 67.76586357784405834 18.8456131023096134 0.6691306144064093075 0 0.7431448182313465933 0.7431448182313465933 0 -0.6691306144064093075 1 I I #
point $-1 135.8775588722382111 67.76586357784405834 19.82801621584921037 #
edge $-1 $448 1 $448 0 $271 $-1 forward 7 unknown #
vertex $-1 $272 $449 #
ellipse-curve $-1 133.6473663736859692 72.54315310623611879 18.8456131023096134 0.6691306144064093075 0 0.7431448182313465933 0.7431448182313465933 0 -0.6691306144064093075 1 I I #
point $-1 135.8775588722382111 72.54315310623611879 19.82801621584921037 #
edge $-1 $450 1 $450 0 $275 $-1 forward 7 unknown #
vertex $-1 $276 $451 #
ellipse-curve $-1 133.6473663736859692 77.32044263462819345 18.8456131023096134 0.6691306144064093075 0 0.7431448182313465933 0.7431448182313465933 0 -0.6691306144064093075 1 I I #
point $-1 135.8775588722382111 77.32044263462819345 19.82801621584921037 #
plane-surface $-1 136.8327890865810161 40.25265116011144784 11.01318530581118615 -1 0 0 0 0 1 forward_v I I I I #
coedge $-1 $284 $282 $286 $390 reversed $191 $-1 #
edge $-1 $297 -11.01318530581118615 $392 11.01318530581118615 $296 $452 forward 7 unknown #
vertex $-1 $390 $453 #
straight-curve $-1 0 0 11.01318530581118615 0 0 -1 I I #
edge $-1 $388 -40.25265116011144784 $392 40.25265116011144784 $386 $454 forward 7 unknown #
straight-curve $-1 68.41639454329050807 0 0 -1 0 0 I I #
vertex $-1 $289 $455 #
straight-curve $-1 68.41639454329050807 80.50530232022289567 0 1 0 0 I I #
point $-1 136.8327890865810161 80.50530232022289567 0 #
point $-1 136.8327890865810161 0 0 #
straight-curve $-1 0 40.25265116011144784 22.02637061162237231 0 -1 0 I I #
point $-1 0 80.50530232022289567 22.02637061162237231 #
point $-1 0 0 22.02637061162237231 #
straight-curve $-1 136.8327890865810161 0 11.01318530581118615 0 0 -1 I I #
straight-curve $-1 136.8327890865810161 80.50530232022289567 11.01318530581118615 0 0 -1 I I #
loop $-1 $-1 $409 $306 #
plane-surface $-1 0 40.25265116011144784 11.01318530581118615 1 0 0 0 0 -1 forward_v I I I I #
coedge $-1 $310 $309 $415 $456 forward $125 $-1 #
edge $-1 $314 29.50277129479137983 $418 40.25265116011144784 $313 $457 forward 7 unknown #
coedge $-1 $412 $409 $310 $406 reversed $401 $-1 #
edge $-1 $458 -40.25265116011144784 $407 -29.50277129479137983 $405 $459 forward 7 unknown #
vertex $-1 $410 $460 #
straight-curve $-1 68.41639454329050807 10.74987986532006801 0 1 0 0 I I #
coedge $-1 $405 $316 $312 $410 forward $401 $-1 #
edge $-1 $318 3.111887817976890069 $407 6.304827597881828893 $409 $461 forward 7 unknown #
point $-1 136.8327890865810161 10.74987986532006801 -1.776356839400250465e-15 #
coedge $-1 $316 $405 $320 $416 reversed $401 $-1 #
straight-curve $-1 0 22.81379554638574092 3.192939779904937048 0 1 0 I I #
point $-1 0 10.74987986532006801 3.192939779904937048 #
coedge $-1 $321 $320 $403 $456 reversed $307 $-1 #
edge $-1 $322 7.820245525906249107 $458 11.01318530581118615 $412 $462 forward 7 unknown #
point $-1 0 0 3.192939779904937048 #
vertex $-1 $324 $463 #
straight-curve $-1 136.8327890865810161 0 11.01318530581118615 0 0 -1 I I #
edge $-1 $421 89.58697676886866645 $424 92.64542433160215751 $328 $464 forward 7 unknown #
vertex $-1 $342 $465 #
straight-curve $-1 97.56080684424132698 10.74987986532006801 22.02637061162237586 1 0 0 I I #
edge $-1 $424 -18.73246025438908191 $339 -2.808161826415521034 $338 $466 forward 7 unknown #
vertex $-1 $423 $467 #
straight-curve $-1 35.1462109127455733 10.74987986532006801 110.5269312813354503 -0.7431448182313465933 0 0.6691306144064093075 I I #
point $-1 133.4360390214326912 10.74987986532006801 22.02637061162239007 #
point $-1 136.8327890865809877 26.67417829329362888 18.9679230488888706 #
straight-curve $-1 136.8327890865810161 40.25265116011144784 22.02637061162237231 0 1 0 I I #
vertex $-1 $345 $468 #
point $-1 134.3905111919173123 13.93473955091478089 18.17648248790320764 #
vertex $-1 $349 $469 #
point $-1 134.3905111919173123 18.71202907930684844 18.17648248790320764 #
vertex $-1 $353 $470 #
point $-1 134.3905111919173123 23.489318607698916 18.17648248790320764 #
edge $-1 $438 -24.10740018704912302 $367 -8.183101759075555037 $366 $471 forward 7 unknown #
coedge $-1 $437 $360 $442 $472 reversed $357 $-1 #
coedge $-1 $360 $436 $362 $440 forward $357 $-1 #
vertex $-1 $361 $473 #
straight-curve $-1 69.07532680512559864 80.50530232022289567 79.97701744708881222 -0.7431448182313465933 0 0.6691306144064093075 I I #
edge $-1 $444 -11.01318530581118615 $363 -7.954737743077677337 $362 $474 forward 7 unknown #
point $-1 136.8327890865810161 80.50530232022289567 18.96792304888886349 #
coedge $-1 $366 $365 $436 $472 forward $254 $-1 #
point $-1 133.4360390214326912 64.5810038922493419 22.02637061162239007 #
vertex $-1 $370 $475 #
straight-curve $-1 136.8327890865810161 40.25265116011144784 22.02637061162237231 0 1 0 I I #
vertex $-1 $373 $476 #
point $-1 134.3905111919173123 67.76586357784405834 18.17648248790320764 #
vertex $-1 $377 $477 #
point $-1 134.3905111919173123 72.54315310623611879 18.17648248790320764 #
vertex $-1 $381 $478 #
point $-1 134.3905111919173123 77.32044263462819345 18.17648248790320764 #
straight-curve $-1 0 80.50530232022289567 11.01318530581118615 0 0 -1 I I #
point $-1 0 0 0 #
straight-curve $-1 0 40.25265116011144784 0 0 1 0 I I #
point $-1 0 80.50530232022289567 0 #
edge $-1 $418 -68.41639454329050807 $458 68.41639454329050807 $415 $479 forward 7 unknown #
straight-curve $-1 136.8327890865810161 40.25265116011144784 0 0 -1 0 I I #
vertex $-1 $406 $480 #
straight-curve $-1 0 40.25265116011144784 0 0 1 0 I I #
point $-1 0 10.74987986532006801 -1.776356839400250465e-15 #
straight-curve $-1 0 10.74987986532006801 6.304827597881827117 0 0 -1 I I #
straight-curve $-1 0 0 11.01318530581118615 0 0 -1 I I #
point $-1 136.8327890865810161 0 0 #
straight-curve $-1 136.8327890865810161 10.74987986532006801 111.6133473804910352 0 0 -1 I I #
point $-1 136.8327890865810161 10.74987986532006801 22.02637061162237231 #
straight-curve $-1 136.8327890865809877 29.48234011970914992 18.9679230488888706 0 1 0 I I #
point $-1 136.8327890865809877 10.74987986532006801 18.9679230488888706 #
point $-1 132.9782357592795563 13.93473955091478089 18.10246828407827024 #
point $-1 132.9782357592795563 18.71202907930684844 18.10246828407827024 #
point $-1 132.9782357592795563 23.489318607698916 18.10246828407827024 #
straight-curve $-1 133.4360390214327481 56.39790213317378686 22.02637061162236876 0 -1 0 I I #
edge $-1 $444 -68.41639454329050807 $438 -65.01964447814218317 $436 $481 forward 7 unknown #
point $-1 133.4360390214326912 80.50530232022290988 22.02637061162239007 #
straight-curve $-1 136.8327890865810161 80.50530232022289567 11.01318530581118615 0 0 -1 I I #
point $-1 136.8327890865810161 80.50530232022289567 22.02637061162237231 #
point $-1 132.9782357592795563 67.76586357784405834 18.10246828407827024 #
point $-1 132.9782357592795563 72.54315310623611879 18.10246828407827024 #
point $-1 132.9782357592795563 77.32044263462819345 18.10246828407827024 #
straight-curve $-1 68.41639454329050807 0 0 -1 0 0 I I #
point $-1 0 0 0 #
straight-curve $-1 68.41639454329050807 80.50530232022289567 22.02637061162237231 -1 0 0 I I #
End-of-ACIS-data 