300 0 8 0           
7 Unknown 11 ACIS 3.0 NT 24 Fri Oct 30 19:11:23 1998 
-1 9.9999999999999995e-007 1e-010 
body $8 $9 $-1 $10 #
body $11 $12 $-1 $13 #
body $14 $15 $-1 $16 #
body $17 $18 $-1 $19 #
body $20 $21 $-1 $22 #
body $23 $24 $-1 $25 #
body $26 $27 $-1 $28 #
body $29 $30 $-1 $31 #
display_attribute-st-attrib $-1 $32 $-1 $0 1 #
lump $-1 $-1 $33 $0 #
transform $-1 1 0 0 0 1 0 0 0 1 72.627948850978129 49.226397864505699 23.304831675555622 1 rotate no_reflect no_shear #
display_attribute-st-attrib $-1 $34 $-1 $1 1 #
lump $-1 $-1 $35 $1 #
transform $-1 1 0 0 0 1 0 0 0 1 42.154170995035983 9.2105471393921832 23.304831675555622 1 rotate no_reflect no_shear #
display_attribute-st-attrib $-1 $36 $-1 $2 1 #
lump $-1 $-1 $37 $2 #
transform $-1 0.75470957328743171 0 0.6560590369687036 0 1 0 -0.6560590369687036 0 0.75470957328743171 -95.296444360369946 88.267908694422516 149.2530402803408 1 rotate no_reflect no_shear #
display_attribute-st-attrib $-1 $38 $-1 $3 1 #
lump $-1 $-1 $39 $3 #
transform $-1 0.75470957328743171 0 0.6560590369687036 0 -1 0 0.6560590369687036 0 -0.75470957328743171 6.6903596862246708 83.902957108170128 40.042194341535527 1 rotate no_reflect no_shear #
display_attribute-st-attrib $-1 $40 $-1 $4 1 #
lump $-1 $-1 $41 $4 #
transform $-1 0.75470957328743171 0 0.6560590369687036 0 -1 0 0.6560590369687036 0 -0.75470957328743171 6.6903596862246708 92.63286028067489 40.042194341535527 1 rotate no_reflect no_shear #
display_attribute-st-attrib $-1 $42 $-1 $5 1 #
lump $-1 $-1 $43 $5 #
transform $-1 0.7313536940579346 0 -0.68199836817093118 0 1 0 0.68199836817093118 0 0.7313536940579346 138.08674553386697 89.95759438622423 242.51979459513367 1 rotate no_reflect no_shear #
display_attribute-st-attrib $-1 $44 $-1 $6 1 #
lump $-1 $-1 $45 $6 #
transform $-1 0.7313536940579346 0 -0.68199836817093118 0 -1 0 -0.68199836817093118 0 -0.7313536940579346 137.79028969160885 86.316793810744016 39.307729220200088 1 rotate no_reflect no_shear #
display_attribute-st-attrib $-1 $46 $-1 $7 1 #
lump $-1 $-1 $47 $7 #
transform $-1 0.7313536940579346 0 -0.68199836817093118 0 -1 0 -0.68199836817093118 0 -0.7313536940579346 137.79028969160885 93.598394961704443 39.307729220200088 1 rotate no_reflect no_shear #
id_attribute-st-attrib $-1 $-1 $8 $0 3344 #
shell $-1 $-1 $-1 $48 $-1 $9 #
id_attribute-st-attrib $-1 $-1 $11 $1 3349 #
shell $-1 $-1 $-1 $49 $-1 $12 #
id_attribute-st-attrib $-1 $-1 $14 $2 3361 #
shell $-1 $-1 $-1 $50 $-1 $15 #
id_attribute-st-attrib $-1 $-1 $17 $3 3369 #
shell $-1 $-1 $-1 $51 $-1 $18 #
id_attribute-st-attrib $-1 $-1 $20 $4 3378 #
shell $-1 $-1 $-1 $52 $-1 $21 #
id_attribute-st-attrib $-1 $-1 $23 $5 3393 #
shell $-1 $-1 $-1 $53 $-1 $24 #
id_attribute-st-attrib $-1 $-1 $26 $6 3404 #
shell $-1 $-1 $-1 $54 $-1 $27 #
id_attribute-st-attrib $-1 $-1 $29 $7 3416 #
shell $-1 $-1 $-1 $55 $-1 $30 #
face $-1 $56 $57 $33 $-1 $58 forward single #
face $-1 $59 $60 $35 $-1 $61 forward single #
face $-1 $62 $63 $37 $-1 $64 forward single #
face $-1 $65 $66 $39 $-1 $67 forward single #
face $-1 $68 $69 $41 $-1 $70 forward single #
face $-1 $71 $72 $43 $-1 $73 forward single #
face $-1 $74 $75 $45 $-1 $76 forward single #
face $-1 $77 $78 $47 $-1 $79 forward single #
face $-1 $80 $81 $33 $-1 $82 reversed single #
loop $-1 $-1 $83 $48 #
plane-surface $-1 0 0 23.304831675555622 0 0 1 1 0 0 forward_v I I I I #
face $-1 $84 $85 $35 $-1 $86 reversed single #
loop $-1 $-1 $87 $49 #
plane-surface $-1 0 0 23.304831675555622 0 0 1 1 0 0 forward_v I I I I #
face $-1 $88 $89 $37 $-1 $90 reversed single #
loop $-1 $-1 $91 $50 #
plane-surface $-1 0 0 145.25589770195626 0 0 1 1 0 0 forward_v I I I I #
face $-1 $92 $93 $39 $-1 $94 forward single #
loop $-1 $95 $96 $51 #
cone-surface $-1 0 0 -2.6629688406018275 0 0 1 2.5 0 0 1 I I 0 1 forward I I I I #
face $-1 $97 $98 $41 $-1 $99 forward single #
loop $-1 $100 $101 $52 #
cone-surface $-1 0 0 -2.6629688406018275 0 0 1 2.5 0 0 1 I I 0 1 forward I I I I #
face $-1 $102 $103 $43 $-1 $104 reversed single #
loop $-1 $-1 $105 $53 #
plane-surface $-1 0 0 145.25589770195626 0 0 1 1 0 0 forward_v I I I I #
face $-1 $106 $107 $45 $-1 $108 forward single #
loop $-1 $109 $110 $54 #
cone-surface $-1 0 0 -2.283089693899349 0 0 1 2 0 0 1 I I 0 1 forward I I I I #
face $-1 $111 $112 $47 $-1 $113 forward single #
loop $-1 $114 $115 $55 #
cone-surface $-1 0 0 -2.283089693899349 0 0 1 2 0 0 1 I I 0 1 forward I I I I #
face $-1 $116 $117 $33 $-1 $118 reversed single #
loop $-1 $-1 $119 $56 #
plane-surface $-1 0 0 -23.304831675555622 0 0 1 1 0 0 forward_v I I I I #
coedge $-1 $120 $121 $122 $123 forward $57 $-1 #
face $-1 $124 $125 $35 $-1 $126 reversed single #
loop $-1 $-1 $127 $59 #
plane-surface $-1 0 0 -23.304831675555622 0 0 1 1 0 0 forward_v I I I I #
coedge $-1 $128 $129 $130 $131 forward $60 $-1 #
face $-1 $132 $133 $37 $-1 $134 reversed single #
loop $-1 $-1 $135 $62 #
plane-surface $-1 0 0 -145.25589770195626 0 0 1 1 0 0 forward_v I I I I #
coedge $-1 $136 $137 $138 $139 forward $63 $-1 #
face $-1 $-1 $140 $39 $-1 $141 forward single #
loop $-1 $-1 $142 $65 #
plane-surface $-1 0 0 -4.0759376812036514 0 0 -1 -1 0 0 forward_v I I I I #
loop $-1 $-1 $143 $51 #
coedge $-1 $96 $96 $142 $144 reversed $66 $-1 #
face $-1 $-1 $145 $41 $-1 $146 forward single #
loop $-1 $-1 $147 $68 #
plane-surface $-1 0 0 -4.0759376812036514 0 0 -1 -1 0 0 forward_v I I I I #
loop $-1 $-1 $148 $52 #
coedge $-1 $101 $101 $147 $149 reversed $69 $-1 #
face $-1 $150 $151 $43 $-1 $152 reversed single #
loop $-1 $-1 $153 $71 #
plane-surface $-1 0 0 -145.25589770195626 0 0 1 1 0 0 forward_v I I I I #
coedge $-1 $154 $155 $156 $157 forward $72 $-1 #
face $-1 $-1 $158 $45 $-1 $159 forward single #
loop $-1 $-1 $160 $74 #
plane-surface $-1 0 0 -3.566179387798698 0 0 -1 -1 0 0 forward_v I I I I #
loop $-1 $-1 $161 $54 #
coedge $-1 $110 $110 $160 $162 reversed $75 $-1 #
face $-1 $-1 $163 $47 $-1 $164 forward single #
loop $-1 $-1 $165 $77 #
plane-surface $-1 0 0 -3.566179387798698 0 0 -1 -1 0 0 forward_v I I I I #
loop $-1 $-1 $166 $55 #
coedge $-1 $115 $115 $165 $167 reversed $78 $-1 #
face $-1 $168 $169 $33 $-1 $170 reversed single #
loop $-1 $-1 $171 $80 #
plane-surface $-1 0 -49.226397864505699 0 0 1 0 0 0 1 forward_v I I I I #
coedge $-1 $172 $173 $174 $175 forward $81 $-1 #
coedge $-1 $176 $83 $177 $178 forward $57 $-1 #
coedge $-1 $83 $176 $179 $180 forward $57 $-1 #
coedge $-1 $181 $182 $83 $123 reversed $183 $-1 #
edge $-1 $184 $185 $122 $186 forward #
face $-1 $187 $188 $35 $-1 $189 reversed single #
loop $-1 $-1 $190 $84 #
plane-surface $-1 0 -9.2105471393921832 0 0 1 0 0 0 1 forward_v I I I I #
coedge $-1 $191 $192 $193 $194 forward $85 $-1 #
coedge $-1 $195 $87 $196 $197 forward $60 $-1 #
coedge $-1 $87 $195 $198 $199 forward $60 $-1 #
coedge $-1 $200 $201 $87 $131 reversed $202 $-1 #
edge $-1 $203 $204 $130 $205 forward #
face $-1 $206 $207 $37 $-1 $208 reversed single #
loop $-1 $-1 $209 $88 #
plane-surface $-1 0 -10.18488703458889 0 0 1 0 0 0 1 forward_v I I I I #
coedge $-1 $210 $211 $212 $213 forward $89 $-1 #
coedge $-1 $214 $91 $215 $216 forward $63 $-1 #
coedge $-1 $91 $214 $217 $218 forward $63 $-1 #
coedge $-1 $219 $220 $91 $139 reversed $221 $-1 #
edge $-1 $222 $223 $138 $224 forward #
loop $-1 $225 $226 $92 #
cone-surface $-1 0 0 0 0 0 1 1.25 0 0 1 I I -0.70710678118654746 0.70710678118654746 forward I I I I #
coedge $-1 $142 $142 $96 $144 forward $93 $-1 #
coedge $-1 $143 $143 $226 $227 forward $95 $-1 #
edge $-1 $228 $228 $142 $229 forward #
loop $-1 $230 $231 $97 #
cone-surface $-1 0 0 0 0 0 1 1.25 0 0 1 I I -0.70710678118654746 0.70710678118654746 forward I I I I #
coedge $-1 $147 $147 $101 $149 forward $98 $-1 #
coedge $-1 $148 $148 $231 $232 forward $100 $-1 #
edge $-1 $233 $233 $147 $234 forward #
face $-1 $235 $236 $43 $-1 $237 reversed single #
loop $-1 $-1 $238 $102 #
plane-surface $-1 0 -8.4952013427871691 0 0 1 0 0 0 1 forward_v I I I I #
coedge $-1 $239 $240 $241 $242 forward $103 $-1 #
coedge $-1 $243 $105 $244 $245 forward $72 $-1 #
coedge $-1 $105 $243 $246 $247 forward $72 $-1 #
coedge $-1 $248 $249 $105 $157 reversed $250 $-1 #
edge $-1 $251 $252 $156 $253 forward #
loop $-1 $254 $255 $106 #
cone-surface $-1 0 0 0 0 0 1 1 0 0 1 I I -0.70710678118654746 0.70710678118654746 forward I I I I #
coedge $-1 $160 $160 $110 $162 forward $107 $-1 #
coedge $-1 $161 $161 $255 $256 forward $109 $-1 #
edge $-1 $257 $257 $160 $258 forward #
loop $-1 $259 $260 $111 #
cone-surface $-1 0 0 0 0 0 1 1 0 0 1 I I -0.70710678118654746 0.70710678118654746 forward I I I I #
coedge $-1 $165 $165 $115 $167 forward $112 $-1 #
coedge $-1 $166 $166 $260 $261 forward $114 $-1 #
edge $-1 $262 $262 $165 $263 forward #
face $-1 $264 $265 $33 $-1 $266 reversed single #
loop $-1 $-1 $267 $116 #
plane-surface $-1 -72.627948850978129 0 0 1 0 0 0 0 -1 forward_v I I I I #
coedge $-1 $268 $179 $269 $270 forward $117 $-1 #
coedge $-1 $271 $119 $268 $272 forward $81 $-1 #
coedge $-1 $119 $271 $273 $274 forward $81 $-1 #
coedge $-1 $182 $181 $119 $175 reversed $183 $-1 #
edge $-1 $275 $276 $174 $277 forward #
coedge $-1 $121 $120 $278 $279 forward $57 $-1 #
coedge $-1 $280 $281 $120 $178 reversed $265 $-1 #
edge $-1 $185 $282 $177 $283 forward #
coedge $-1 $171 $284 $121 $180 reversed $117 $-1 #
edge $-1 $285 $184 $179 $286 forward #
coedge $-1 $174 $122 $284 $287 forward $183 $-1 #
coedge $-1 $122 $174 $280 $288 reversed $183 $-1 #
loop $-1 $-1 $181 $264 #
vertex $-1 $123 $289 #
vertex $-1 $123 $290 #
straight-curve $-1 72.627948850978129 0 23.304831675555622 0 1 0 I I #
face $-1 $291 $292 $35 $-1 $293 reversed single #
loop $-1 $-1 $294 $124 #
plane-surface $-1 -4.4554923560752648 0 0 1 0 0 0 0 -1 forward_v I I I I #
coedge $-1 $295 $198 $296 $297 forward $125 $-1 #
coedge $-1 $298 $127 $295 $299 forward $85 $-1 #
coedge $-1 $127 $298 $300 $301 forward $85 $-1 #
coedge $-1 $201 $200 $127 $194 reversed $202 $-1 #
edge $-1 $302 $303 $193 $304 forward #
coedge $-1 $129 $128 $305 $306 forward $60 $-1 #
coedge $-1 $307 $308 $128 $197 reversed $292 $-1 #
edge $-1 $204 $309 $196 $310 forward #
coedge $-1 $190 $311 $129 $199 reversed $125 $-1 #
edge $-1 $312 $203 $198 $313 forward #
coedge $-1 $193 $130 $311 $314 forward $202 $-1 #
coedge $-1 $130 $193 $307 $315 reversed $202 $-1 #
loop $-1 $-1 $200 $291 #
vertex $-1 $131 $316 #
vertex $-1 $131 $317 #
straight-curve $-1 4.4554923560752648 0 23.304831675555622 0 1 0 I I #
face $-1 $318 $319 $37 $-1 $320 reversed single #
loop $-1 $-1 $321 $132 #
plane-surface $-1 -290.51179540391252 0 0 1 0 0 0 0 -1 forward_v I I I I #
coedge $-1 $322 $217 $323 $324 forward $133 $-1 #
coedge $-1 $325 $135 $322 $326 forward $89 $-1 #
coedge $-1 $135 $325 $327 $328 forward $89 $-1 #
coedge $-1 $220 $219 $135 $213 reversed $221 $-1 #
edge $-1 $329 $330 $212 $331 forward #
coedge $-1 $137 $136 $332 $333 forward $63 $-1 #
coedge $-1 $334 $335 $136 $216 reversed $319 $-1 #
edge $-1 $223 $336 $215 $337 forward #
coedge $-1 $209 $338 $137 $218 reversed $133 $-1 #
edge $-1 $339 $222 $217 $340 forward #
coedge $-1 $212 $138 $338 $341 forward $221 $-1 #
coedge $-1 $138 $212 $334 $342 reversed $221 $-1 #
loop $-1 $-1 $219 $318 #
vertex $-1 $139 $343 #
vertex $-1 $139 $344 #
straight-curve $-1 290.51179540391252 0 145.25589770195626 0 1 0 I I #
loop $-1 $-1 $345 $92 #
coedge $-1 $226 $226 $143 $227 reversed $140 $-1 #
edge $-1 $346 $346 $226 $347 forward #
vertex $-1 $144 $348 #
ellipse-curve $-1 0 0 -4.0759376812036514 0 0 -1 2.5 0 0 1 I I #
loop $-1 $-1 $349 $97 #
coedge $-1 $231 $231 $148 $232 reversed $145 $-1 #
edge $-1 $350 $350 $231 $351 forward #
vertex $-1 $149 $352 #
ellipse-curve $-1 0 0 -4.0759376812036514 0 0 -1 2.5 0 0 1 I I #
face $-1 $353 $354 $43 $-1 $355 reversed single #
loop $-1 $-1 $356 $150 #
plane-surface $-1 -290.51179540391252 0 0 1 0 0 0 0 -1 forward_v I I I I #
coedge $-1 $357 $246 $358 $359 forward $151 $-1 #
coedge $-1 $360 $153 $357 $361 forward $103 $-1 #
coedge $-1 $153 $360 $362 $363 forward $103 $-1 #
coedge $-1 $249 $248 $153 $242 reversed $250 $-1 #
edge $-1 $364 $365 $241 $366 forward #
coedge $-1 $155 $154 $367 $368 forward $72 $-1 #
coedge $-1 $369 $370 $154 $245 reversed $354 $-1 #
edge $-1 $252 $371 $244 $372 forward #
coedge $-1 $238 $373 $155 $247 reversed $151 $-1 #
edge $-1 $374 $251 $246 $375 forward #
coedge $-1 $241 $156 $373 $376 forward $250 $-1 #
coedge $-1 $156 $241 $369 $377 reversed $250 $-1 #
loop $-1 $-1 $248 $353 #
vertex $-1 $157 $378 #
vertex $-1 $157 $379 #
straight-curve $-1 290.51179540391252 0 145.25589770195626 0 1 0 I I #
loop $-1 $-1 $380 $106 #
coedge $-1 $255 $255 $161 $256 reversed $158 $-1 #
edge $-1 $381 $381 $255 $382 forward #
vertex $-1 $162 $383 #
ellipse-curve $-1 0 0 -3.566179387798698 0 0 -1 2 0 0 1 I I #
loop $-1 $-1 $384 $111 #
coedge $-1 $260 $260 $166 $261 reversed $163 $-1 #
edge $-1 $385 $385 $260 $386 forward #
vertex $-1 $167 $387 #
ellipse-curve $-1 0 0 -3.566179387798698 0 0 -1 2 0 0 1 I I #
face $-1 $-1 $183 $33 $-1 $388 reversed single #
loop $-1 $-1 $280 $168 #
plane-surface $-1 0 49.226397864505699 0 0 -1 0 0 0 -1 forward_v I I I I #
coedge $-1 $389 $278 $281 $390 forward $169 $-1 #
coedge $-1 $284 $171 $172 $272 reversed $117 $-1 #
coedge $-1 $278 $389 $171 $270 reversed $169 $-1 #
edge $-1 $285 $391 $269 $392 forward #
coedge $-1 $173 $172 $389 $393 forward $81 $-1 #
edge $-1 $276 $391 $268 $394 forward #
coedge $-1 $281 $280 $173 $274 reversed $265 $-1 #
edge $-1 $395 $275 $273 $396 forward #
vertex $-1 $175 $397 #
vertex $-1 $287 $398 #
straight-curve $-1 72.627948850978129 0 -23.304831675555622 0 -1 0 I I #
coedge $-1 $267 $269 $176 $279 reversed $169 $-1 #
edge $-1 $282 $285 $278 $399 forward #
coedge $-1 $273 $177 $182 $288 forward $265 $-1 #
coedge $-1 $177 $273 $267 $390 reversed $265 $-1 #
vertex $-1 $178 $400 #
straight-curve $-1 0 49.226397864505699 23.304831675555622 -1 0 0 I I #
coedge $-1 $179 $268 $181 $287 reversed $117 $-1 #
vertex $-1 $279 $401 #
straight-curve $-1 0 -49.226397864505699 23.304831675555622 1 0 0 I I #
edge $-1 $184 $276 $181 $402 forward #
edge $-1 $185 $275 $182 $403 forward #
point $-1 72.627948850978129 -49.226397864505699 23.304831675555622 #
point $-1 72.627948850978129 49.226397864505699 23.304831675555622 #
face $-1 $-1 $202 $35 $-1 $404 reversed single #
loop $-1 $-1 $307 $187 #
plane-surface $-1 0 9.2105471393921832 0 0 -1 0 0 0 -1 forward_v I I I I #
coedge $-1 $405 $305 $308 $406 forward $188 $-1 #
coedge $-1 $311 $190 $191 $299 reversed $125 $-1 #
coedge $-1 $305 $405 $190 $297 reversed $188 $-1 #
edge $-1 $312 $407 $296 $408 forward #
coedge $-1 $192 $191 $405 $409 forward $85 $-1 #
edge $-1 $303 $407 $295 $410 forward #
coedge $-1 $308 $307 $192 $301 reversed $292 $-1 #
edge $-1 $411 $302 $300 $412 forward #
vertex $-1 $194 $413 #
vertex $-1 $314 $414 #
straight-curve $-1 4.4554923560752648 0 -23.304831675555622 0 -1 0 I I #
coedge $-1 $294 $296 $195 $306 reversed $188 $-1 #
edge $-1 $309 $312 $305 $415 forward #
coedge $-1 $300 $196 $201 $315 forward $292 $-1 #
coedge $-1 $196 $300 $294 $406 reversed $292 $-1 #
vertex $-1 $197 $416 #
straight-curve $-1 0 9.2105471393921832 23.304831675555622 -1 0 0 I I #
coedge $-1 $198 $295 $200 $314 reversed $125 $-1 #
vertex $-1 $306 $417 #
straight-curve $-1 0 -9.2105471393921832 23.304831675555622 1 0 0 I I #
edge $-1 $203 $303 $200 $418 forward #
edge $-1 $204 $302 $201 $419 forward #
point $-1 4.4554923560752648 -9.2105471393921832 23.304831675555622 #
point $-1 4.4554923560752648 9.2105471393921832 23.304831675555622 #
face $-1 $-1 $221 $37 $-1 $420 reversed single #
loop $-1 $-1 $334 $206 #
plane-surface $-1 0 10.18488703458889 0 0 -1 0 0 0 -1 forward_v I I I I #
coedge $-1 $421 $332 $335 $422 forward $207 $-1 #
coedge $-1 $338 $209 $210 $326 reversed $133 $-1 #
coedge $-1 $332 $421 $209 $324 reversed $207 $-1 #
edge $-1 $339 $423 $323 $424 forward #
coedge $-1 $211 $210 $421 $425 forward $89 $-1 #
edge $-1 $330 $423 $322 $426 forward #
coedge $-1 $335 $334 $211 $328 reversed $319 $-1 #
edge $-1 $427 $329 $327 $428 forward #
vertex $-1 $213 $429 #
vertex $-1 $341 $430 #
straight-curve $-1 290.51179540391252 0 -145.25589770195626 0 -1 0 I I #
coedge $-1 $321 $323 $214 $333 reversed $207 $-1 #
edge $-1 $336 $339 $332 $431 forward #
coedge $-1 $327 $215 $220 $342 forward $319 $-1 #
coedge $-1 $215 $327 $321 $422 reversed $319 $-1 #
vertex $-1 $216 $432 #
straight-curve $-1 0 10.18488703458889 145.25589770195626 -1 0 0 I I #
coedge $-1 $217 $322 $219 $341 reversed $133 $-1 #
vertex $-1 $333 $433 #
straight-curve $-1 0 -10.18488703458889 145.25589770195626 1 0 0 I I #
edge $-1 $222 $330 $219 $434 forward #
edge $-1 $223 $329 $220 $435 forward #
point $-1 290.51179540391252 -10.18488703458889 145.25589770195626 #
point $-1 290.51179540391252 10.18488703458889 145.25589770195626 #
coedge $-1 $345 $345 $-1 $436 reversed $225 $-1 #
vertex $-1 $227 $437 #
ellipse-curve $-1 0 0 -1.25 0 0 -1 2.5 0 0 1 I I #
point $-1 2.5 0 -4.0759376812036514 #
coedge $-1 $349 $349 $-1 $438 reversed $230 $-1 #
vertex $-1 $232 $439 #
ellipse-curve $-1 0 0 -1.25 0 0 -1 2.5 0 0 1 I I #
point $-1 2.5 0 -4.0759376812036514 #
face $-1 $-1 $250 $43 $-1 $440 reversed single #
loop $-1 $-1 $369 $235 #
plane-surface $-1 0 8.4952013427871691 0 0 -1 0 0 0 -1 forward_v I I I I #
coedge $-1 $441 $367 $370 $442 forward $236 $-1 #
coedge $-1 $373 $238 $239 $361 reversed $151 $-1 #
coedge $-1 $367 $441 $238 $359 reversed $236 $-1 #
edge $-1 $374 $443 $358 $444 forward #
coedge $-1 $240 $239 $441 $445 forward $103 $-1 #
edge $-1 $365 $443 $357 $446 forward #
coedge $-1 $370 $369 $240 $363 reversed $354 $-1 #
edge $-1 $447 $364 $362 $448 forward #
vertex $-1 $242 $449 #
vertex $-1 $376 $450 #
straight-curve $-1 290.51179540391252 0 -145.25589770195626 0 -1 0 I I #
coedge $-1 $356 $358 $243 $368 reversed $236 $-1 #
edge $-1 $371 $374 $367 $451 forward #
coedge $-1 $362 $244 $249 $377 forward $354 $-1 #
coedge $-1 $244 $362 $356 $442 reversed $354 $-1 #
vertex $-1 $245 $452 #
straight-curve $-1 0 8.4952013427871691 145.25589770195626 -1 0 0 I I #
coedge $-1 $246 $357 $248 $376 reversed $151 $-1 #
vertex $-1 $368 $453 #
straight-curve $-1 0 -8.4952013427871691 145.25589770195626 1 0 0 I I #
edge $-1 $251 $365 $248 $454 forward #
edge $-1 $252 $364 $249 $455 forward #
point $-1 290.51179540391252 -8.4952013427871691 145.25589770195626 #
point $-1 290.51179540391252 8.4952013427871691 145.25589770195626 #
coedge $-1 $380 $380 $-1 $456 reversed $254 $-1 #
vertex $-1 $256 $457 #
ellipse-curve $-1 0 0 -1 0 0 -1 2 0 0 1 I I #
point $-1 2 0 -3.566179387798698 #
coedge $-1 $384 $384 $-1 $458 reversed $259 $-1 #
vertex $-1 $261 $459 #
ellipse-curve $-1 0 0 -1 0 0 -1 2 0 0 1 I I #
point $-1 2 0 -3.566179387798698 #
plane-surface $-1 72.627948850978129 0 0 -1 0 0 0 0 1 forward_v I I I I #
coedge $-1 $269 $267 $271 $393 reversed $169 $-1 #
edge $-1 $282 $395 $281 $460 forward #
vertex $-1 $393 $461 #
straight-curve $-1 -72.627948850978129 -49.226397864505699 0 0 0 -1 I I #
edge $-1 $391 $395 $389 $462 forward #
straight-curve $-1 0 -49.226397864505699 -23.304831675555622 -1 0 0 I I #
vertex $-1 $274 $463 #
straight-curve $-1 0 49.226397864505699 -23.304831675555622 1 0 0 I I #
point $-1 72.627948850978129 49.226397864505699 -23.304831675555622 #
point $-1 72.627948850978129 -49.226397864505699 -23.304831675555622 #
straight-curve $-1 -72.627948850978129 0 23.304831675555622 0 -1 0 I I #
point $-1 -72.627948850978129 49.226397864505699 23.304831675555622 #
point $-1 -72.627948850978129 -49.226397864505699 23.304831675555622 #
straight-curve $-1 72.627948850978129 -49.226397864505699 0 0 0 -1 I I #
straight-curve $-1 72.627948850978129 49.226397864505699 0 0 0 -1 I I #
plane-surface $-1 4.4554923560752648 0 0 -1 0 0 0 0 1 forward_v I I I I #
coedge $-1 $296 $294 $298 $409 reversed $188 $-1 #
edge $-1 $309 $411 $308 $464 forward #
vertex $-1 $409 $465 #
straight-curve $-1 -4.4554923560752648 -9.2105471393921832 0 0 0 -1 I I #
edge $-1 $407 $411 $405 $466 forward #
straight-curve $-1 0 -9.2105471393921832 -23.304831675555622 -1 0 0 I I #
vertex $-1 $301 $467 #
straight-curve $-1 0 9.2105471393921832 -23.304831675555622 1 0 0 I I #
point $-1 4.4554923560752648 9.2105471393921832 -23.304831675555622 #
point $-1 4.4554923560752648 -9.2105471393921832 -23.304831675555622 #
straight-curve $-1 -4.4554923560752648 0 23.304831675555622 0 -1 0 I I #
point $-1 -4.4554923560752648 9.2105471393921832 23.304831675555622 #
point $-1 -4.4554923560752648 -9.2105471393921832 23.304831675555622 #
straight-curve $-1 4.4554923560752648 -9.2105471393921832 0 0 0 -1 I I #
straight-curve $-1 4.4554923560752648 9.2105471393921832 0 0 0 -1 I I #
plane-surface $-1 290.51179540391252 0 0 -1 0 0 0 0 1 forward_v I I I I #
coedge $-1 $323 $321 $325 $425 reversed $207 $-1 #
edge $-1 $336 $427 $335 $468 forward #
vertex $-1 $425 $469 #
straight-curve $-1 -290.51179540391252 -10.18488703458889 0 0 0 -1 I I #
edge $-1 $423 $427 $421 $470 forward #
straight-curve $-1 0 -10.18488703458889 -145.25589770195626 -1 0 0 I I #
vertex $-1 $328 $471 #
straight-curve $-1 0 10.18488703458889 -145.25589770195626 1 0 0 I I #
point $-1 290.51179540391252 10.18488703458889 -145.25589770195626 #
point $-1 290.51179540391252 -10.18488703458889 -145.25589770195626 #
straight-curve $-1 -290.51179540391252 0 145.25589770195626 0 -1 0 I I #
point $-1 -290.51179540391252 10.18488703458889 145.25589770195626 #
point $-1 -290.51179540391252 -10.18488703458889 145.25589770195626 #
straight-curve $-1 290.51179540391252 -10.18488703458889 0 0 0 -1 I I #
straight-curve $-1 290.51179540391252 10.18488703458889 0 0 0 -1 I I #
edge $-1 $472 $472 $345 $-1 forward #
point $-1 2.5 0 -1.25 #
edge $-1 $473 $473 $349 $-1 forward #
point $-1 2.5 0 -1.25 #
plane-surface $-1 290.51179540391252 0 0 -1 0 0 0 0 1 forward_v I I I I #
coedge $-1 $358 $356 $360 $445 reversed $236 $-1 #
edge $-1 $371 $447 $370 $474 forward #
vertex $-1 $445 $475 #
straight-curve $-1 -290.51179540391252 -8.4952013427871691 0 0 0 -1 I I #
edge $-1 $443 $447 $441 $476 forward #
straight-curve $-1 0 -8.4952013427871691 -145.25589770195626 -1 0 0 I I #
vertex $-1 $363 $477 #
straight-curve $-1 0 8.4952013427871691 -145.25589770195626 1 0 0 I I #
point $-1 290.51179540391252 8.4952013427871691 -145.25589770195626 #
point $-1 290.51179540391252 -8.4952013427871691 -145.25589770195626 #
straight-curve $-1 -290.51179540391252 0 145.25589770195626 0 -1 0 I I #
point $-1 -290.51179540391252 8.4952013427871691 145.25589770195626 #
point $-1 -290.51179540391252 -8.4952013427871691 145.25589770195626 #
straight-curve $-1 290.51179540391252 -8.4952013427871691 0 0 0 -1 I I #
straight-curve $-1 290.51179540391252 8.4952013427871691 0 0 0 -1 I I #
edge $-1 $478 $478 $380 $-1 forward #
point $-1 2 0 -1 #
edge $-1 $479 $479 $384 $-1 forward #
point $-1 2 0 -1 #
straight-curve $-1 -72.627948850978129 49.226397864505699 0 0 0 -1 I I #
point $-1 -72.627948850978129 -49.226397864505699 -23.304831675555622 #
straight-curve $-1 -72.627948850978129 0 -23.304831675555622 0 1 0 I I #
point $-1 -72.627948850978129 49.226397864505699 -23.304831675555622 #
straight-curve $-1 -4.4554923560752648 9.2105471393921832 0 0 0 -1 I I #
point $-1 -4.4554923560752648 -9.2105471393921832 -23.304831675555622 #
straight-curve $-1 -4.4554923560752648 0 -23.304831675555622 0 1 0 I I #
point $-1 -4.4554923560752648 9.2105471393921832 -23.304831675555622 #
straight-curve $-1 -290.51179540391252 10.18488703458889 0 0 0 -1 I I #
point $-1 -290.51179540391252 -10.18488703458889 -145.25589770195626 #
straight-curve $-1 -290.51179540391252 0 -145.25589770195626 0 1 0 I I #
point $-1 -290.51179540391252 10.18488703458889 -145.25589770195626 #
vertex $-1 $436 $480 #
vertex $-1 $438 $481 #
straight-curve $-1 -290.51179540391252 8.4952013427871691 0 0 0 -1 I I #
point $-1 -290.51179540391252 -8.4952013427871691 -145.25589770195626 #
straight-curve $-1 -290.51179540391252 0 -145.25589770195626 0 1 0 I I #
point $-1 -290.51179540391252 8.4952013427871691 -145.25589770195626 #
vertex $-1 $456 $482 #
vertex $-1 $458 $483 #
point $-1 0 0 1.25 #
point $-1 0 0 1.25 #
point $-1 0 0 1 #
point $-1 0 0 1 #
End-of-ACIS-data 