600 0 5 0           
92 GICL ACIS Healer - Source: /gicl/data5/repository/Drexel/SM99-DATA/part91.smdg.des.sat - 6 0 18 ACIS 6.0.3 Solaris 24 Sat Apr 13 20:46:48 2002 
1 9.999999999999999547e-07 1.000000000000000036e-10 
body $-1 $5 $-1 $-1 #
body $-1 $6 $-1 $-1 #
body $-1 $7 $-1 $-1 #
body $-1 $8 $-1 $-1 #
body $-1 $9 $-1 $-1 #
lump $-1 $-1 $10 $0 #
lump $-1 $-1 $11 $1 #
lump $-1 $-1 $12 $2 #
lump $-1 $-1 $13 $3 #
lump $-1 $-1 $14 $4 #
shell $-1 $-1 $-1 $15 $-1 $5 #
shell $-1 $-1 $-1 $16 $-1 $6 #
shell $-1 $-1 $-1 $17 $-1 $7 #
shell $-1 $-1 $-1 $18 $-1 $8 #
shell $-1 $-1 $-1 $19 $-1 $9 #
face $-1 $20 $21 $10 $-1 $22 forward single #
face $-1 $23 $24 $11 $-1 $25 reversed single #
face $-1 $26 $27 $12 $-1 $28 forward single #
face $-1 $29 $30 $13 $-1 $31 reversed single #
face $-1 $32 $33 $14 $-1 $34 reversed single #
face $-1 $35 $36 $10 $-1 $37 reversed single #
loop $-1 $-1 $38 $15 #
plane-surface $-1 77.1153904843287421 52.28911579698673506 37.90597853994761834 0 0 1 1 0 0 forward_v I I I I #
face $-1 $39 $40 $11 $-1 $41 reversed single #
loop $-1 $-1 $42 $16 #
plane-surface $-1 34.80618408831284682 -14.93197322677690408 18.95298926997380917 0 1 0 0 0 1 forward_v I I I I #
face $-1 $43 $44 $12 $-1 $45 forward single #
loop $-1 $-1 $46 $17 #
plane-surface $-1 19.7082339852249504 117.1234124781335169 217.5248731866206526 -1 0 0 0 0.6156614830463592591 0.788010747574649173 forward_v I I I I #
face $-1 $47 $48 $13 $-1 $49 reversed single #
loop $-1 $50 $51 $18 #
cone-surface $-1 5.630923995778559288 98.74685110536407251 32.45309032994651233 0 -0.6156614830463592591 -0.788010747574649173 1.5 0 0 1 I I 0 1 1.5 forward I I I I #
face $-1 $52 $53 $14 $-1 $54 reversed single #
loop $-1 $55 $56 $19 #
cone-surface $-1 14.07730998944639111 98.74685110536407251 32.45309032994651233 0 -0.6156614830463592591 -0.788010747574649173 1.5 0 0 1 I I 0 1 1.5 forward I I I I #
face $-1 $57 $58 $10 $-1 $59 reversed single #
loop $-1 $-1 $60 $20 #
plane-surface $-1 77.1153904843287421 52.28911579698673506 0 0 0 1 1 0 0 forward_v I I I I #
coedge $-1 $61 $62 $63 $64 forward $21 $-1 #
face $-1 $65 $66 $11 $-1 $67 reversed single #
loop $-1 $-1 $68 $23 #
plane-surface $-1 31.7063896366780682 -7.465986613388452042 18.95298926997380917 1 0 0 0 0 -1 forward_v I I I I #
coedge $-1 $69 $70 $71 $72 forward $24 $-1 #
face $-1 $73 $74 $12 $-1 $75 reversed single #
loop $-1 $-1 $76 $26 #
plane-surface $-1 9.854116992612475201 22.16946113557165177 95.98936017648689756 0 0.6156614830463592591 0.788010747574649173 1 0 0 forward_v I I I I #
coedge $-1 $77 $78 $79 $80 reversed $27 $-1 #
face $-1 $81 $82 $13 $-1 $83 forward single #
loop $-1 $84 $85 $29 #
cone-surface $-1 5.630923995778559288 96.48644133678132562 29.5598978197504465 0 -0.6156614830463592591 -0.788010747574649173 0.75 0 0 1 I I -0.7071067811865475727 0.7071067811865475727 0.75 forward I I I I #
loop $-1 $-1 $86 $18 #
coedge $-1 $51 $51 $87 $88 reversed $30 $-1 #
face $-1 $89 $90 $14 $-1 $91 reversed single #
loop $-1 $92 $93 $32 #
cone-surface $-1 14.07730998944639111 96.48644133678132562 29.5598978197504465 0 -0.6156614830463592591 -0.788010747574649173 0.75 0 0 1 I I -0.7071067811865475727 0.7071067811865475727 0.75 forward I I I I #
loop $-1 $-1 $94 $19 #
coedge $-1 $56 $56 $95 $96 reversed $33 $-1 #
face $-1 $97 $98 $10 $-1 $99 reversed single #
loop $-1 $-1 $100 $35 #
plane-surface $-1 77.1153904843287421 0 18.95298926997380917 0 1 0 0 0 1 forward_v I I I I #
coedge $-1 $101 $102 $103 $104 forward $36 $-1 #
coedge $-1 $105 $38 $106 $107 forward $21 $-1 #
coedge $-1 $38 $105 $108 $109 forward $21 $-1 #
coedge $-1 $110 $111 $38 $64 reversed $112 $-1 #
edge $-1 $113 -52.28911579698673506 $114 52.28911579698673506 $63 $115 forward 7 unknown #
face $-1 $116 $117 $11 $-1 $118 reversed single #
loop $-1 $-1 $119 $39 #
plane-surface $-1 37.90597853994762545 -7.465986613388452042 18.95298926997380917 -1 0 0 0 0 1 forward_v I I I I #
coedge $-1 $120 $121 $122 $123 reversed $40 $-1 #
coedge $-1 $124 $42 $125 $126 reversed $24 $-1 #
coedge $-1 $42 $124 $127 $128 reversed $24 $-1 #
coedge $-1 $121 $120 $42 $72 reversed $40 $-1 #
edge $-1 $129 -18.95298926997380917 $130 18.95298926997380917 $71 $131 forward 7 unknown #
face $-1 $132 $133 $12 $-1 $134 forward single #
loop $-1 $-1 $135 $43 #
plane-surface $-1 77.1153904843287421 104.5782315939734701 18.95298926997380917 0 -1 0 0 0 -1 forward_v I I I I #
coedge $-1 $136 $137 $135 $138 reversed $44 $-1 #
coedge $-1 $78 $46 $137 $139 forward $27 $-1 #
coedge $-1 $46 $77 $140 $141 reversed $27 $-1 #
coedge $-1 $142 $135 $46 $80 forward $74 $-1 #
edge $-1 $143 -86.63436020932165604 $144 -80.33295268834962144 $79 $145 forward 7 unknown #
face $-1 $146 $147 $13 $-1 $148 forward single #
loop $-1 $-1 $149 $47 #
plane-surface $-1 19.7082339852249504 117.1234124781335169 217.5248731866206526 -1 0 0 0 0.6156614830463592591 0.788010747574649173 forward_v I I I I #
loop $-1 $-1 $150 $29 #
coedge $-1 $85 $85 $86 $151 forward $48 $-1 #
coedge $-1 $86 $86 $85 $151 reversed $50 $-1 #
coedge $-1 $87 $87 $51 $88 forward $147 $-1 #
edge $-1 $152 -1.283538390783573803e-15 $152 6.283185307179585344 $87 $153 forward 7 unknown #
face $-1 $154 $155 $14 $-1 $156 reversed single #
loop $-1 $157 $158 $52 #
cone-surface $-1 5.630923995778559288 98.74685110536407251 32.45309032994651233 0 -0.6156614830463592591 -0.788010747574649173 1.5 0 0 1 I I 0 1 1.5 forward I I I I #
loop $-1 $-1 $159 $32 #
coedge $-1 $93 $93 $94 $160 forward $53 $-1 #
coedge $-1 $94 $94 $93 $160 reversed $55 $-1 #
coedge $-1 $95 $95 $56 $96 forward $161 $-1 #
edge $-1 $162 -1.283538390783573803e-15 $162 6.283185307179585344 $95 $163 forward 7 unknown #
face $-1 $164 $165 $10 $-1 $166 reversed single #
loop $-1 $-1 $167 $57 #
plane-surface $-1 0 52.28911579698673506 18.95298926997380917 1 0 0 0 0 -1 forward_v I I I I #
coedge $-1 $168 $108 $169 $170 forward $58 $-1 #
coedge $-1 $171 $60 $168 $172 forward $36 $-1 #
coedge $-1 $60 $171 $173 $174 forward $36 $-1 #
coedge $-1 $111 $110 $60 $104 reversed $112 $-1 #
edge $-1 $175 -52.28911579698673506 $176 52.28911579698673506 $103 $177 forward 7 unknown #
coedge $-1 $62 $61 $178 $179 forward $21 $-1 #
coedge $-1 $180 $181 $61 $107 reversed $165 $-1 #
edge $-1 $114 -77.1153904843287421 $182 77.1153904843287421 $106 $183 forward 7 unknown #
coedge $-1 $100 $184 $62 $109 reversed $58 $-1 #
edge $-1 $185 -77.1153904843287421 $113 77.1153904843287421 $108 $186 forward 7 unknown #
coedge $-1 $103 $63 $184 $187 forward $112 $-1 #
coedge $-1 $63 $103 $180 $188 reversed $112 $-1 #
loop $-1 $-1 $110 $164 #
vertex $-1 $64 $189 #
vertex $-1 $64 $190 #
straight-curve $-1 154.2307809686574842 52.28911579698673506 37.90597853994761834 0 1 0 I I #
face $-1 $191 $192 $11 $-1 $118 reversed single #
loop $-1 $-1 $122 $65 #
plane-surface $-1 77.1153904843287421 0 18.95298926997380917 0 1 0 0 0 1 forward_v I I I I #
coedge $-1 $193 $194 $124 $195 forward $66 $-1 #
coedge $-1 $71 $68 $196 $197 reversed $40 $-1 #
coedge $-1 $68 $71 $198 $199 reversed $40 $-1 #
coedge $-1 $200 $201 $68 $123 forward $117 $-1 #
edge $-1 $202 -18.95298926997380917 $203 18.95298926997380917 $122 $204 forward 7 unknown #
coedge $-1 $70 $69 $119 $195 reversed $24 $-1 #
coedge $-1 $196 $205 $69 $126 forward $206 $-1 #
edge $-1 $207 -3.099794451634778625 $130 3.099794451634778625 $69 $208 forward 7 unknown #
coedge $-1 $209 $198 $70 $128 forward $210 $-1 #
edge $-1 $129 -3.099794451634778625 $211 3.099794451634778625 $70 $212 forward 7 unknown #
vertex $-1 $199 $213 #
vertex $-1 $197 $214 #
straight-curve $-1 31.7063896366780682 -14.93197322677690408 18.95298926997380917 0 0 -1 I I #
face $-1 $215 $216 $12 $-1 $217 reversed single #
loop $-1 $-1 $140 $73 #
plane-surface $-1 77.1153904843287421 52.28911579698673506 37.90597853994761834 0 0 1 1 0 0 forward_v I I I I #
coedge $-1 $79 $218 $76 $138 forward $74 $-1 #
coedge $-1 $219 $76 $220 $221 reversed $44 $-1 #
coedge $-1 $76 $219 $77 $139 reversed $44 $-1 #
edge $-1 $222 -43.48475373847060865 $143 -23.77651975324565825 $135 $223 forward 7 unknown #
edge $-1 $143 -104.5782315939734417 $224 -94.3430492827591678 $77 $225 forward 7 unknown #
coedge $-1 $226 $227 $78 $141 forward $133 $-1 #
edge $-1 $144 -19.87196745641334417 $224 -11.80653379179054241 $140 $228 forward 7 unknown #
coedge $-1 $229 $79 $227 $230 reversed $74 $-1 #
vertex $-1 $138 $231 #
vertex $-1 $141 $232 #
straight-curve $-1 19.7082339852249504 104.5782315939734701 118.2389312282972327 0 0 1 I I #
face $-1 $233 $234 $13 $-1 $235 reversed single #
loop $-1 $236 $87 $81 #
plane-surface $-1 9.854116992612475201 22.16946113557165177 95.98936017648689756 0 0.6156614830463592591 0.788010747574649173 1 0 0 forward_v I I I I #
coedge $-1 $237 $238 $239 $240 reversed $82 $-1 #
coedge $-1 $150 $150 $-1 $241 forward $84 $-1 #
edge $-1 $242 0 $242 6.283185307179586232 $85 $243 forward 7 unknown #
vertex $-1 $88 $244 #
ellipse-curve $-1 5.630923995778559288 100.5455147616620621 34.75527477946160815 0 -0.6156614830463592591 -0.788010747574649173 1.5 0 0 1 I I #
face $-1 $245 $246 $14 $-1 $247 forward single #
loop $-1 $248 $249 $89 #
cone-surface $-1 5.630923995778559288 96.48644133678132562 29.5598978197504465 0 -0.6156614830463592591 -0.788010747574649173 0.75 0 0 1 I I -0.7071067811865475727 0.7071067811865475727 0.75 forward I I I I #
loop $-1 $-1 $250 $52 #
coedge $-1 $158 $158 $251 $252 reversed $90 $-1 #
coedge $-1 $159 $159 $-1 $253 forward $92 $-1 #
edge $-1 $254 0 $254 6.283185307179586232 $93 $255 forward 7 unknown #
loop $-1 $256 $95 $245 #
vertex $-1 $96 $257 #
ellipse-curve $-1 14.07730998944639111 100.5455147616620621 34.75527477946160815 0 -0.6156614830463592591 -0.788010747574649173 1.5 0 0 1 I I #
face $-1 $-1 $112 $10 $-1 $258 reversed single #
loop $-1 $-1 $180 $97 #
plane-surface $-1 77.1153904843287421 104.5782315939734701 18.95298926997380917 0 -1 0 0 0 -1 forward_v I I I I #
coedge $-1 $259 $178 $181 $260 forward $98 $-1 #
coedge $-1 $184 $100 $101 $172 reversed $58 $-1 #
coedge $-1 $178 $259 $100 $170 reversed $98 $-1 #
edge $-1 $185 -18.95298926997380917 $261 18.95298926997380917 $169 $262 forward 7 unknown #
coedge $-1 $102 $101 $259 $263 forward $36 $-1 #
edge $-1 $176 -77.1153904843287421 $261 77.1153904843287421 $168 $264 forward 7 unknown #
coedge $-1 $181 $180 $102 $174 reversed $165 $-1 #
edge $-1 $265 -77.1153904843287421 $175 77.1153904843287421 $173 $266 forward 7 unknown #
vertex $-1 $104 $267 #
vertex $-1 $187 $268 #
straight-curve $-1 154.2307809686574842 52.28911579698673506 0 0 -1 0 I I #
coedge $-1 $167 $169 $105 $179 reversed $98 $-1 #
edge $-1 $182 -52.28911579698673506 $185 52.28911579698673506 $178 $269 forward 7 unknown #
coedge $-1 $173 $106 $111 $188 forward $165 $-1 #
coedge $-1 $106 $173 $167 $260 reversed $165 $-1 #
vertex $-1 $107 $270 #
straight-curve $-1 77.1153904843287421 104.5782315939734701 37.90597853994761834 -1 0 0 I I #
coedge $-1 $108 $168 $110 $187 reversed $58 $-1 #
vertex $-1 $179 $271 #
straight-curve $-1 77.1153904843287421 0 37.90597853994761834 1 0 0 I I #
edge $-1 $113 -18.95298926997380917 $176 18.95298926997380917 $110 $272 forward 7 unknown #
edge $-1 $114 -18.95298926997380917 $175 18.95298926997380917 $111 $273 forward 7 unknown #
point $-1 154.2307809686574842 0 37.90597853994761834 #
point $-1 154.2307809686574842 104.5782315939734701 37.90597853994761834 #
face $-1 $274 $210 $11 $-1 $275 forward single #
loop $-1 $-1 $276 $116 #
coedge $-1 $277 $119 $205 $278 reversed $66 $-1 #
coedge $-1 $119 $277 $209 $279 reversed $66 $-1 #
edge $-1 $211 -18.95298926997380917 $207 18.95298926997380917 $119 $280 forward 7 unknown #
coedge $-1 $281 $125 $120 $197 forward $206 $-1 #
edge $-1 $130 -7.465986613388452042 $202 7.465986613388452042 $120 $282 forward 7 unknown #
coedge $-1 $127 $283 $121 $199 forward $210 $-1 #
edge $-1 $203 -7.465986613388452042 $129 7.465986613388452042 $121 $284 forward 7 unknown #
coedge $-1 $285 $122 $283 $286 reversed $117 $-1 #
coedge $-1 $122 $285 $281 $287 reversed $117 $-1 #
vertex $-1 $287 $288 #
vertex $-1 $199 $289 #
straight-curve $-1 31.7063896366780682 0 18.95298926997380917 0 0 1 I I #
coedge $-1 $125 $290 $193 $278 forward $206 $-1 #
loop $-1 $-1 $291 $274 #
vertex $-1 $195 $292 #
straight-curve $-1 34.80618408831284682 -14.93197322677690408 0 -1 0 0 I I #
coedge $-1 $293 $127 $194 $279 forward $210 $-1 #
loop $-1 $-1 $294 $191 #
vertex $-1 $279 $295 #
straight-curve $-1 34.80618408831284682 -14.93197322677690408 37.90597853994761834 1 0 0 I I #
point $-1 31.7063896366780682 -14.93197322677690408 37.90597853994761834 #
point $-1 31.7063896366780682 -14.93197322677690408 0 #
face $-1 $296 $297 $12 $-1 $298 reversed single #
loop $-1 $-1 $299 $132 #
plane-surface $-1 34.80618408831284682 -14.93197322677690408 18.95298926997380917 0 1 0 0 0 1 forward_v I I I I #
coedge $-1 $135 $300 $301 $302 reversed $74 $-1 #
coedge $-1 $137 $136 $226 $303 reversed $44 $-1 #
coedge $-1 $301 $304 $136 $221 forward $305 $-1 #
edge $-1 $306 58.76158030913654784 $222 68.99676262035083596 $220 $307 forward 7 unknown #
vertex $-1 $302 $308 #
straight-curve $-1 43.48475373847060865 104.5782315939734701 31.60457101897556953 1 0 0 I I #
vertex $-1 $303 $309 #
straight-curve $-1 19.7082339852249504 22.16946113557165177 95.98936017648689756 0 -0.788010747574649173 0.6156614830463592591 I I #
coedge $-1 $310 $140 $219 $303 forward $133 $-1 #
coedge $-1 $140 $311 $142 $230 forward $133 $-1 #
straight-curve $-1 19.7082339852249504 84.70626413756012596 37.90597853994762545 0 -1 0 I I #
coedge $-1 $300 $142 $312 $313 forward $74 $-1 #
edge $-1 $314 -77.1153904843287421 $144 57.4071564991037917 $142 $315 forward 7 unknown #
point $-1 19.7082339852249504 104.5782315939734701 31.60457101897557308 #
point $-1 19.7082339852249504 104.5782315939734701 37.90597853994761834 #
face $-1 $316 $317 $13 $-1 $318 forward single #
loop $-1 $-1 $319 $146 #
plane-surface $-1 77.1153904843287421 104.5782315939734701 18.95298926997380917 0 -1 0 0 0 -1 forward_v I I I I #
loop $-1 $-1 $320 $81 #
coedge $-1 $238 $149 $321 $322 forward $82 $-1 #
coedge $-1 $149 $237 $323 $324 reversed $82 $-1 #
coedge $-1 $325 $319 $149 $240 forward $234 $-1 #
edge $-1 $326 -86.63436020932165604 $327 -80.33295268834962144 $239 $328 forward 7 unknown #
edge $-1 $329 1 $329 0 $150 $-1 forward 7 unknown #
vertex $-1 $151 $330 #
ellipse-curve $-1 5.630923995778559288 96.94818744906609709 30.15090588043143427 0 0.6156614830463592591 0.788010747574649173 1.5 0 0 1 I I #
point $-1 7.130923995778559288 100.5455147616620479 34.75527477946158683 #
face $-1 $331 $161 $14 $-1 $332 forward single #
loop $-1 $-1 $333 $154 #
plane-surface $-1 19.7082339852249504 117.1234124781335169 217.5248731866206526 -1 0 0 0 0.6156614830463592591 0.788010747574649173 forward_v I I I I #
loop $-1 $-1 $334 $89 #
coedge $-1 $249 $249 $250 $335 forward $155 $-1 #
coedge $-1 $250 $250 $249 $335 reversed $157 $-1 #
coedge $-1 $251 $251 $158 $252 forward $256 $-1 #
edge $-1 $336 -1.283538390783573803e-15 $336 6.283185307179585344 $251 $337 forward 7 unknown #
edge $-1 $338 1 $338 0 $159 $-1 forward 7 unknown #
vertex $-1 $160 $339 #
ellipse-curve $-1 14.07730998944639111 96.94818744906609709 30.15090588043143427 0 0.6156614830463592591 0.788010747574649173 1.5 0 0 1 I I #
loop $-1 $340 $251 $245 #
point $-1 15.57730998944639111 100.5455147616620479 34.75527477946158683 #
plane-surface $-1 154.2307809686574842 52.28911579698673506 18.95298926997380917 -1 0 0 0 0 1 forward_v I I I I #
coedge $-1 $169 $167 $171 $263 reversed $98 $-1 #
edge $-1 $182 -18.95298926997380917 $265 18.95298926997380917 $181 $341 forward 7 unknown #
vertex $-1 $263 $342 #
straight-curve $-1 0 0 18.95298926997380917 0 0 -1 I I #
edge $-1 $261 -52.28911579698673506 $265 52.28911579698673506 $259 $343 forward 7 unknown #
straight-curve $-1 77.1153904843287421 0 0 -1 0 0 I I #
vertex $-1 $174 $344 #
straight-curve $-1 77.1153904843287421 104.5782315939734701 0 1 0 0 I I #
point $-1 154.2307809686574842 104.5782315939734701 0 #
point $-1 154.2307809686574842 0 0 #
straight-curve $-1 0 52.28911579698673506 37.90597853994761834 0 -1 0 I I #
point $-1 0 104.5782315939734701 37.90597853994761834 #
point $-1 0 0 37.90597853994761834 #
straight-curve $-1 154.2307809686574842 0 18.95298926997380917 0 0 -1 I I #
straight-curve $-1 154.2307809686574842 104.5782315939734701 18.95298926997380917 0 0 -1 I I #
face $-1 $345 $206 $11 $-1 $346 reversed single #
plane-surface $-1 77.1153904843287421 52.28911579698673506 37.90597853994761834 0 0 1 1 0 0 forward_v I I I I #
coedge $-1 $347 $348 $277 $349 forward $192 $-1 #
coedge $-1 $194 $193 $276 $349 reversed $66 $-1 #
edge $-1 $350 -7.465986613388452042 $207 7.465986613388452042 $193 $351 forward 7 unknown #
edge $-1 $211 -7.465986613388452042 $352 7.465986613388452042 $194 $353 forward 7 unknown #
straight-curve $-1 37.90597853994762545 -14.93197322677690408 18.95298926997380917 0 0 -1 I I #
coedge $-1 $354 $196 $201 $287 forward $206 $-1 #
straight-curve $-1 31.7063896366780682 -7.465986613388452042 0 0 1 0 I I #
coedge $-1 $198 $355 $200 $286 forward $210 $-1 #
straight-curve $-1 31.7063896366780682 -7.465986613388452042 37.90597853994761834 0 -1 0 I I #
coedge $-1 $201 $200 $356 $357 forward $117 $-1 #
edge $-1 $358 -77.1153904843287421 $203 -45.4090008476506739 $200 $359 forward 7 unknown #
edge $-1 $202 45.4090008476506739 $360 77.1153904843287421 $201 $361 forward 7 unknown #
point $-1 31.7063896366780682 0 0 #
point $-1 31.7063896366780682 0 37.90597853994761834 #
coedge $-1 $205 $291 $347 $362 forward $206 $-1 #
coedge $-1 $290 $363 $364 $365 forward $206 $-1 #
point $-1 37.90597853994762545 -14.93197322677690408 0 #
coedge $-1 $294 $209 $348 $366 forward $210 $-1 #
coedge $-1 $367 $293 $368 $369 forward $210 $-1 #
point $-1 37.90597853994762545 -14.93197322677690408 37.90597853994761834 #
face $-1 $370 $371 $12 $-1 $372 reversed single #
loop $-1 $-1 $373 $215 #
plane-surface $-1 31.7063896366780682 -7.465986613388452042 18.95298926997380917 1 0 0 0 0 -1 forward_v I I I I #
coedge $-1 $374 $375 $376 $377 forward $216 $-1 #
coedge $-1 $218 $229 $378 $379 reversed $74 $-1 #
coedge $-1 $380 $220 $218 $302 forward $305 $-1 #
edge $-1 $222 -12.65158174900176746 $381 18.95298926997380917 $218 $382 forward 7 unknown #
edge $-1 $224 23.77651975324565825 $306 43.48475373847060865 $226 $383 forward 7 unknown #
coedge $-1 $220 $384 $310 $385 reversed $305 $-1 #
loop $-1 $-1 $220 $386 #
vertex $-1 $385 $387 #
straight-curve $-1 0 50.20804110128018749 74.08322021921837575 0 0.788010747574649173 -0.6156614830463592591 I I #
point $-1 0 104.5782315939734701 31.60457101897557664 #
point $-1 19.7082339852249504 96.51279792935066837 37.90597853994762545 #
coedge $-1 $388 $226 $304 $385 forward $133 $-1 #
coedge $-1 $227 $389 $390 $391 forward $133 $-1 #
coedge $-1 $390 $392 $229 $313 reversed $393 $-1 #
edge $-1 $314 -18.95298926997380917 $394 18.95298926997380917 $312 $395 forward 7 unknown #
vertex $-1 $391 $396 #
straight-curve $-1 77.1153904843287421 104.5782315939734701 37.90597853994761834 -1 0 0 I I #
face $-1 $397 $398 $13 $-1 $399 reversed single #
loop $-1 $-1 $323 $233 #
plane-surface $-1 77.1153904843287421 52.28911579698673506 37.90597853994761834 0 0 1 1 0 0 forward_v I I I I #
coedge $-1 $239 $400 $320 $401 forward $234 $-1 #
coedge $-1 $402 $321 $319 $401 reversed $236 $-1 #
coedge $-1 $320 $403 $237 $322 reversed $236 $-1 #
edge $-1 $326 -104.5782315939734417 $404 -94.3430492827591678 $237 $405 forward 7 unknown #
coedge $-1 $406 $407 $238 $324 forward $317 $-1 #
edge $-1 $327 -19.87196745641334417 $404 -11.80653379179054241 $323 $408 forward 7 unknown #
coedge $-1 $409 $239 $407 $410 reversed $234 $-1 #
vertex $-1 $401 $411 #
vertex $-1 $324 $412 #
straight-curve $-1 19.7082339852249504 104.5782315939734701 118.2389312282972327 0 0 1 I I #
vertex $-1 $241 $413 #
point $-1 7.130923995778559288 96.94818744906609709 30.15090588043143427 #
face $-1 $414 $415 $14 $-1 $416 reversed single #
plane-surface $-1 9.854116992612475201 22.16946113557165177 95.98936017648689756 0 0.6156614830463592591 0.788010747574649173 1 0 0 forward_v I I I I #
coedge $-1 $417 $418 $419 $420 reversed $246 $-1 #
coedge $-1 $334 $334 $-1 $421 forward $248 $-1 #
edge $-1 $422 0 $422 6.283185307179586232 $249 $423 forward 7 unknown #
vertex $-1 $252 $424 #
ellipse-curve $-1 5.630923995778559288 100.5455147616620621 34.75527477946160815 0 -0.6156614830463592591 -0.788010747574649173 1.5 0 0 1 I I #
vertex $-1 $253 $425 #
point $-1 15.57730998944639111 96.94818744906609709 30.15090588043143427 #
loop $-1 $-1 $426 $245 #
straight-curve $-1 0 104.5782315939734701 18.95298926997380917 0 0 -1 I I #
point $-1 0 0 0 #
straight-curve $-1 0 52.28911579698673506 0 0 1 0 I I #
point $-1 0 104.5782315939734701 0 #
face $-1 $427 $428 $11 $-1 $429 reversed single #
plane-surface $-1 77.1153904843287421 52.28911579698673506 0 0 0 1 1 0 0 forward_v I I I I #
coedge $-1 $430 $276 $290 $362 reversed $192 $-1 #
coedge $-1 $276 $430 $293 $366 reversed $192 $-1 #
edge $-1 $352 -18.95298926997380917 $350 18.95298926997380917 $276 $431 forward 7 unknown #
vertex $-1 $278 $432 #
straight-curve $-1 37.90597853994762545 -7.465986613388452042 0 0 -1 0 I I #
vertex $-1 $366 $433 #
straight-curve $-1 37.90597853994762545 -7.465986613388452042 37.90597853994761834 0 1 0 I I #
coedge $-1 $363 $281 $434 $435 forward $206 $-1 #
coedge $-1 $283 $367 $436 $437 forward $210 $-1 #
coedge $-1 $436 $434 $285 $357 reversed $428 $-1 #
edge $-1 $358 -18.95298926997380917 $360 18.95298926997380917 $356 $438 forward 7 unknown #
vertex $-1 $437 $439 #
straight-curve $-1 77.1153904843287421 0 37.90597853994761834 1 0 0 I I #
vertex $-1 $435 $440 #
straight-curve $-1 77.1153904843287421 0 0 -1 0 0 I I #
edge $-1 $441 -77.1153904843287421 $350 39.20941194438111665 $347 $361 forward 7 unknown #
coedge $-1 $291 $354 $442 $443 forward $206 $-1 #
coedge $-1 $444 $445 $291 $365 reversed $446 $-1 #
edge $-1 $447 -52.28911579698673506 $441 52.28911579698673506 $364 $448 forward 7 unknown #
edge $-1 $352 -39.20941194438111665 $449 77.1153904843287421 $348 $359 forward 7 unknown #
coedge $-1 $355 $294 $450 $451 forward $210 $-1 #
coedge $-1 $445 $444 $294 $369 reversed $446 $-1 #
edge $-1 $449 -52.28911579698673506 $452 52.28911579698673506 $368 $453 forward 7 unknown #
face $-1 $454 $455 $12 $-1 $456 reversed single #
loop $-1 $-1 $457 $296 #
plane-surface $-1 37.90597853994762545 -7.465986613388452042 18.95298926997380917 -1 0 0 0 0 1 forward_v I I I I #
coedge $-1 $458 $459 $460 $461 reversed $297 $-1 #
coedge $-1 $462 $299 $463 $464 reversed $216 $-1 #
coedge $-1 $299 $462 $465 $466 reversed $216 $-1 #
coedge $-1 $459 $458 $299 $377 reversed $297 $-1 #
edge $-1 $467 -18.95298926997380917 $468 18.95298926997380917 $376 $469 forward 7 unknown #
coedge $-1 $470 $471 $300 $379 forward $472 $-1 #
edge $-1 $381 -77.1153904843287421 $394 77.1153904843287421 $300 $473 forward 7 unknown #
coedge $-1 $384 $301 $471 $474 reversed $305 $-1 #
vertex $-1 $379 $475 #
straight-curve $-1 0 104.5782315939734701 18.95298926997380917 0 0 -1 I I #
straight-curve $-1 43.48475373847060865 96.51279792935068258 37.90597853994761124 -1 0 0 I I #
coedge $-1 $304 $380 $476 $477 reversed $305 $-1 #
edge $-1 $306 -44.22368213236393331 $478 52.28911579698673506 $304 $479 forward 7 unknown #
face $-1 $480 $305 $12 $-1 $481 reversed single #
point $-1 0 96.51279792935066837 37.90597853994762545 #
coedge $-1 $482 $310 $483 $484 forward $133 $-1 #
coedge $-1 $311 $485 $486 $487 forward $133 $-1 #
coedge $-1 $488 $312 $311 $391 reversed $393 $-1 #
edge $-1 $489 -52.28911579698673506 $314 52.28911579698673506 $390 $490 forward 7 unknown #
coedge $-1 $312 $488 $470 $491 reversed $393 $-1 #
loop $-1 $-1 $488 $480 #
vertex $-1 $491 $492 #
straight-curve $-1 154.2307809686574842 104.5782315939734701 18.95298926997380917 0 0 -1 I I #
point $-1 154.2307809686574842 104.5782315939734701 37.90597853994761834 #
face $-1 $493 $494 $13 $-1 $495 reversed single #
loop $-1 $-1 $496 $316 #
plane-surface $-1 34.80618408831284682 -14.93197322677690408 18.95298926997380917 0 1 0 0 0 1 forward_v I I I I #
coedge $-1 $319 $497 $498 $499 reversed $234 $-1 #
edge $-1 $500 -43.48475373847060865 $326 -23.77651975324565825 $319 $501 forward 7 unknown #
coedge $-1 $403 $320 $502 $503 reversed $236 $-1 #
coedge $-1 $321 $402 $406 $504 reversed $236 $-1 #
vertex $-1 $504 $505 #
straight-curve $-1 19.7082339852249504 22.16946113557165177 95.98936017648689756 0 -0.788010747574649173 0.6156614830463592591 I I #
coedge $-1 $506 $323 $403 $504 forward $317 $-1 #
coedge $-1 $323 $507 $325 $410 forward $317 $-1 #
straight-curve $-1 19.7082339852249504 84.70626413756012596 37.90597853994762545 0 -1 0 I I #
coedge $-1 $497 $325 $508 $509 forward $234 $-1 #
edge $-1 $510 -77.1153904843287421 $327 57.4071564991037917 $325 $511 forward 7 unknown #
point $-1 19.7082339852249504 104.5782315939734701 31.60457101897557308 #
point $-1 19.7082339852249504 104.5782315939734701 37.90597853994761834 #
point $-1 5.630923995778559288 96.02469522449655415 28.96888975906945873 #
face $-1 $512 $513 $14 $-1 $514 forward single #
loop $-1 $-1 $515 $331 #
plane-surface $-1 77.1153904843287421 104.5782315939734701 18.95298926997380917 0 -1 0 0 0 -1 forward_v I I I I #
coedge $-1 $418 $333 $516 $517 forward $246 $-1 #
coedge $-1 $333 $417 $518 $519 reversed $246 $-1 #
coedge $-1 $520 $515 $333 $420 forward $415 $-1 #
edge $-1 $521 -86.63436020932165604 $522 -80.33295268834962144 $419 $523 forward 7 unknown #
edge $-1 $524 1 $524 0 $334 $-1 forward 7 unknown #
vertex $-1 $335 $525 #
ellipse-curve $-1 5.630923995778559288 96.94818744906609709 30.15090588043143427 0 0.6156614830463592591 0.788010747574649173 1.5 0 0 1 I I #
point $-1 7.130923995778559288 100.5455147616620479 34.75527477946158683 #
point $-1 14.07730998944639111 96.02469522449655415 28.96888975906945873 #
coedge $-1 $526 $516 $515 $527 reversed $340 $-1 #
face $-1 $528 $529 $11 $-1 $530 reversed single #
loop $-1 $-1 $531 $345 #
plane-surface $-1 0 52.28911579698673506 18.95298926997380917 1 0 0 0 0 -1 forward_v I I I I #
coedge $-1 $348 $347 $445 $532 reversed $192 $-1 #
straight-curve $-1 37.90597853994762545 0 18.95298926997380917 0 0 -1 I I #
point $-1 37.90597853994762545 0 0 #
point $-1 37.90597853994762545 0 37.90597853994761834 #
coedge $-1 $356 $531 $354 $435 reversed $428 $-1 #
edge $-1 $360 -52.28911579698673506 $533 52.28911579698673506 $434 $534 forward 7 unknown #
coedge $-1 $531 $356 $355 $437 reversed $428 $-1 #
edge $-1 $535 -52.28911579698673506 $358 52.28911579698673506 $436 $536 forward 7 unknown #
straight-curve $-1 0 0 18.95298926997380917 0 0 -1 I I #
point $-1 0 0 37.90597853994761834 #
point $-1 0 0 0 #
vertex $-1 $532 $537 #
coedge $-1 $538 $539 $363 $443 reversed $529 $-1 #
edge $-1 $533 -77.1153904843287421 $447 77.1153904843287421 $442 $540 forward 7 unknown #
coedge $-1 $368 $364 $539 $541 reversed $446 $-1 #
coedge $-1 $364 $368 $430 $532 forward $446 $-1 #
loop $-1 $-1 $445 $528 #
vertex $-1 $365 $542 #
straight-curve $-1 154.2307809686574842 52.28911579698673506 0 0 -1 0 I I #
vertex $-1 $369 $543 #
coedge $-1 $539 $538 $367 $451 reversed $529 $-1 #
edge $-1 $452 -77.1153904843287421 $535 77.1153904843287421 $450 $544 forward 7 unknown #
vertex $-1 $369 $545 #
straight-curve $-1 154.2307809686574842 52.28911579698673506 37.90597853994761834 0 1 0 I I #
face $-1 $546 $547 $12 $-1 $456 reversed single #
loop $-1 $-1 $460 $370 #
plane-surface $-1 77.1153904843287421 0 18.95298926997380917 0 1 0 0 0 1 forward_v I I I I #
coedge $-1 $548 $549 $462 $550 forward $371 $-1 #
coedge $-1 $376 $373 $551 $552 reversed $297 $-1 #
coedge $-1 $373 $376 $482 $553 reversed $297 $-1 #
coedge $-1 $483 $554 $373 $461 forward $455 $-1 #
edge $-1 $555 -18.95298926997380917 $556 18.95298926997380917 $460 $557 forward 7 unknown #
coedge $-1 $375 $374 $457 $550 reversed $216 $-1 #
coedge $-1 $551 $558 $374 $464 forward $472 $-1 #
edge $-1 $559 -3.099794451634778625 $468 3.099794451634778625 $374 $560 forward 7 unknown #
coedge $-1 $485 $482 $375 $466 forward $133 $-1 #
edge $-1 $467 -3.099794451634778625 $561 3.099794451634778625 $375 $562 forward 7 unknown #
vertex $-1 $553 $563 #
vertex $-1 $552 $564 #
straight-curve $-1 31.7063896366780682 -14.93197322677690408 18.95298926997380917 0 0 -1 I I #
coedge $-1 $565 $378 $392 $491 forward $472 $-1 #
coedge $-1 $378 $566 $380 $474 forward $472 $-1 #
loop $-1 $-1 $470 $546 #
straight-curve $-1 77.1153904843287421 104.5782315939734701 0 1 0 0 I I #
edge $-1 $567 -52.28911579698673506 $381 52.28911579698673506 $380 $568 forward 7 unknown #
point $-1 0 104.5782315939734701 0 #
coedge $-1 $554 $483 $384 $477 forward $455 $-1 #
edge $-1 $478 -18.95298926997380917 $567 18.95298926997380917 $384 $569 forward 7 unknown #
vertex $-1 $385 $570 #
straight-curve $-1 0 52.28911579698673506 37.90597853994761834 0 -1 0 I I #
face $-1 $-1 $393 $12 $-1 $571 reversed single #
plane-surface $-1 0 52.28911579698673506 18.95298926997380917 1 0 0 0 0 -1 forward_v I I I I #
coedge $-1 $465 $388 $459 $553 forward $133 $-1 #
coedge $-1 $476 $460 $388 $484 reversed $455 $-1 #
edge $-1 $478 -77.1153904843287421 $556 -45.4090008476506739 $483 $572 forward 7 unknown #
coedge $-1 $389 $465 $549 $573 forward $133 $-1 #
coedge $-1 $574 $575 $389 $487 reversed $547 $-1 #
edge $-1 $576 -39.20941194438111665 $489 77.1153904843287421 $486 $572 forward 7 unknown #
coedge $-1 $392 $390 $575 $577 forward $393 $-1 #
vertex $-1 $391 $578 #
straight-curve $-1 154.2307809686574842 52.28911579698673506 37.90597853994761834 0 1 0 I I #
edge $-1 $394 -52.28911579698673506 $579 52.28911579698673506 $392 $580 forward 7 unknown #
point $-1 154.2307809686574842 104.5782315939734701 0 #
face $-1 $581 $582 $13 $-1 $583 reversed single #
loop $-1 $-1 $584 $397 #
plane-surface $-1 31.7063896366780682 -7.465986613388452042 18.95298926997380917 1 0 0 0 0 -1 forward_v I I I I #
coedge $-1 $585 $586 $587 $588 forward $398 $-1 #
coedge $-1 $400 $409 $589 $590 reversed $234 $-1 #
coedge $-1 $591 $502 $400 $499 forward $592 $-1 #
edge $-1 $500 -12.65158174900176746 $593 18.95298926997380917 $400 $594 forward 7 unknown #
vertex $-1 $499 $595 #
straight-curve $-1 43.48475373847060865 104.5782315939734701 31.60457101897556953 1 0 0 I I #
coedge $-1 $498 $596 $402 $503 forward $592 $-1 #
edge $-1 $597 58.76158030913654784 $500 68.99676262035083596 $502 $598 forward 7 unknown #
edge $-1 $404 23.77651975324565825 $597 43.48475373847060865 $406 $599 forward 7 unknown #
point $-1 19.7082339852249504 96.51279792935066837 37.90597853994762545 #
coedge $-1 $600 $406 $596 $601 forward $317 $-1 #
coedge $-1 $407 $602 $603 $604 forward $317 $-1 #
coedge $-1 $603 $605 $409 $509 reversed $606 $-1 #
edge $-1 $510 -18.95298926997380917 $607 18.95298926997380917 $508 $608 forward 7 unknown #
vertex $-1 $604 $609 #
straight-curve $-1 77.1153904843287421 104.5782315939734701 37.90597853994761834 -1 0 0 I I #
face $-1 $610 $611 $14 $-1 $612 reversed single #
loop $-1 $-1 $518 $414 #
plane-surface $-1 77.1153904843287421 52.28911579698673506 37.90597853994761834 0 0 1 1 0 0 forward_v I I I I #
coedge $-1 $419 $613 $426 $527 forward $415 $-1 #
coedge $-1 $426 $614 $417 $517 reversed $340 $-1 #
edge $-1 $521 -104.5782315939734417 $615 -94.3430492827591678 $417 $616 forward 7 unknown #
coedge $-1 $617 $618 $418 $519 forward $513 $-1 #
edge $-1 $522 -19.87196745641334417 $615 -11.80653379179054241 $518 $619 forward 7 unknown #
coedge $-1 $620 $419 $618 $621 reversed $415 $-1 #
vertex $-1 $527 $622 #
vertex $-1 $519 $623 #
straight-curve $-1 19.7082339852249504 104.5782315939734701 118.2389312282972327 0 0 1 I I #
vertex $-1 $421 $624 #
point $-1 7.130923995778559288 96.94818744906609709 30.15090588043143427 #
coedge $-1 $614 $426 $625 $626 reversed $340 $-1 #
edge $-1 $627 -43.48475373847060865 $521 -23.77651975324565825 $515 $628 forward 7 unknown #
face $-1 $-1 $446 $11 $-1 $629 reversed single #
loop $-1 $-1 $539 $427 #
plane-surface $-1 77.1153904843287421 104.5782315939734701 18.95298926997380917 0 -1 0 0 0 -1 forward_v I I I I #
coedge $-1 $434 $436 $538 $630 forward $428 $-1 #
edge $-1 $449 -18.95298926997380917 $441 18.95298926997380917 $445 $631 forward 7 unknown #
vertex $-1 $443 $632 #
straight-curve $-1 0 52.28911579698673506 0 0 1 0 I I #
vertex $-1 $451 $633 #
straight-curve $-1 0 52.28911579698673506 37.90597853994761834 0 -1 0 I I #
point $-1 154.2307809686574842 0 0 #
coedge $-1 $450 $442 $531 $630 reversed $529 $-1 #
coedge $-1 $442 $450 $444 $541 forward $529 $-1 #
straight-curve $-1 77.1153904843287421 104.5782315939734701 0 1 0 0 I I #
edge $-1 $452 -18.95298926997380917 $447 18.95298926997380917 $444 $634 forward 7 unknown #
point $-1 154.2307809686574842 104.5782315939734701 0 #
point $-1 154.2307809686574842 0 37.90597853994761834 #
straight-curve $-1 77.1153904843287421 104.5782315939734701 37.90597853994761834 -1 0 0 I I #
point $-1 154.2307809686574842 104.5782315939734701 37.90597853994761834 #
face $-1 $386 $472 $12 $-1 $635 reversed single #
loop $-1 $-1 $574 $454 #
coedge $-1 $636 $457 $558 $637 reversed $371 $-1 #
coedge $-1 $457 $636 $485 $573 reversed $371 $-1 #
edge $-1 $561 -18.95298926997380917 $559 18.95298926997380917 $457 $638 forward 7 unknown #
coedge $-1 $566 $463 $458 $552 forward $472 $-1 #
edge $-1 $468 -7.465986613388452042 $555 7.465986613388452042 $458 $639 forward 7 unknown #
edge $-1 $556 -7.465986613388452042 $467 7.465986613388452042 $459 $640 forward 7 unknown #
coedge $-1 $460 $476 $566 $641 reversed $455 $-1 #
vertex $-1 $641 $642 #
vertex $-1 $553 $643 #
straight-curve $-1 31.7063896366780682 0 18.95298926997380917 0 0 1 I I #
coedge $-1 $463 $565 $548 $637 forward $472 $-1 #
vertex $-1 $550 $644 #
straight-curve $-1 34.80618408831284682 -14.93197322677690408 0 -1 0 0 I I #
vertex $-1 $573 $645 #
straight-curve $-1 34.80618408831284682 -14.93197322677690408 37.90597853994761834 1 0 0 I I #
point $-1 31.7063896366780682 -14.93197322677690408 37.90597853994761834 #
point $-1 31.7063896366780682 -14.93197322677690408 0 #
coedge $-1 $558 $470 $646 $647 forward $472 $-1 #
coedge $-1 $471 $551 $554 $641 forward $472 $-1 #
vertex $-1 $474 $648 #
straight-curve $-1 0 52.28911579698673506 0 0 1 0 I I #
straight-curve $-1 0 0 18.95298926997380917 0 0 -1 I I #
point $-1 0 0 37.90597853994761834 #
plane-surface $-1 154.2307809686574842 52.28911579698673506 18.95298926997380917 -1 0 0 0 0 1 forward_v I I I I #
straight-curve $-1 77.1153904843287421 0 37.90597853994761834 1 0 0 I I #
edge $-1 $561 -7.465986613388452042 $576 7.465986613388452042 $549 $649 forward 7 unknown #
coedge $-1 $646 $486 $636 $650 forward $547 $-1 #
coedge $-1 $486 $646 $488 $577 reversed $547 $-1 #
vertex $-1 $487 $651 #
edge $-1 $489 -18.95298926997380917 $579 18.95298926997380917 $488 $652 forward 7 unknown #
point $-1 154.2307809686574842 0 37.90597853994761834 #
vertex $-1 $577 $653 #
straight-curve $-1 154.2307809686574842 52.28911579698673506 0 0 -1 0 I I #
face $-1 $654 $655 $13 $-1 $656 reversed single #
loop $-1 $-1 $657 $493 #
plane-surface $-1 37.90597853994762545 -7.465986613388452042 18.95298926997380917 -1 0 0 0 0 1 forward_v I I I I #
coedge $-1 $658 $659 $660 $661 reversed $494 $-1 #
coedge $-1 $662 $496 $663 $664 reversed $398 $-1 #
coedge $-1 $496 $662 $665 $666 reversed $398 $-1 #
coedge $-1 $659 $658 $496 $588 reversed $494 $-1 #
edge $-1 $667 -18.95298926997380917 $668 18.95298926997380917 $587 $669 forward 7 unknown #
coedge $-1 $670 $671 $497 $590 forward $672 $-1 #
edge $-1 $593 -77.1153904843287421 $607 77.1153904843287421 $497 $673 forward 7 unknown #
coedge $-1 $674 $498 $671 $675 reversed $592 $-1 #
loop $-1 $-1 $502 $676 #
vertex $-1 $590 $677 #
straight-curve $-1 0 104.5782315939734701 18.95298926997380917 0 0 -1 I I #
point $-1 0 104.5782315939734701 31.60457101897557664 #
coedge $-1 $502 $674 $506 $601 reversed $592 $-1 #
vertex $-1 $601 $678 #
straight-curve $-1 0 50.20804110128018749 74.08322021921837575 0 0.788010747574649173 -0.6156614830463592591 I I #
straight-curve $-1 43.48475373847060865 96.51279792935068258 37.90597853994761124 -1 0 0 I I #
coedge $-1 $679 $506 $680 $681 forward $317 $-1 #
edge $-1 $597 -44.22368213236393331 $682 52.28911579698673506 $596 $683 forward 7 unknown #
coedge $-1 $507 $684 $685 $686 forward $317 $-1 #
coedge $-1 $687 $508 $507 $604 reversed $606 $-1 #
edge $-1 $688 -52.28911579698673506 $510 52.28911579698673506 $603 $689 forward 7 unknown #
coedge $-1 $508 $687 $670 $690 reversed $606 $-1 #
loop $-1 $-1 $687 $691 #
vertex $-1 $690 $692 #
straight-curve $-1 154.2307809686574842 104.5782315939734701 18.95298926997380917 0 0 -1 I I #
point $-1 154.2307809686574842 104.5782315939734701 37.90597853994761834 #
face $-1 $693 $694 $14 $-1 $695 reversed single #
loop $-1 $-1 $696 $512 #
plane-surface $-1 34.80618408831284682 -14.93197322677690408 18.95298926997380917 0 1 0 0 0 1 forward_v I I I I #
coedge $-1 $515 $697 $698 $699 reversed $415 $-1 #
coedge $-1 $516 $526 $617 $700 reversed $340 $-1 #
vertex $-1 $700 $701 #
straight-curve $-1 19.7082339852249504 22.16946113557165177 95.98936017648689756 0 -0.788010747574649173 0.6156614830463592591 I I #
coedge $-1 $702 $518 $614 $700 forward $513 $-1 #
coedge $-1 $518 $703 $520 $621 forward $513 $-1 #
straight-curve $-1 19.7082339852249504 84.70626413756012596 37.90597853994762545 0 -1 0 I I #
coedge $-1 $697 $520 $704 $705 forward $415 $-1 #
edge $-1 $706 -77.1153904843287421 $522 57.4071564991037917 $520 $707 forward 7 unknown #
point $-1 19.7082339852249504 104.5782315939734701 31.60457101897557308 #
point $-1 19.7082339852249504 104.5782315939734701 37.90597853994761834 #
point $-1 5.630923995778559288 96.02469522449655415 28.96888975906945873 #
coedge $-1 $698 $708 $526 $626 forward $709 $-1 #
edge $-1 $710 58.76158030913654784 $627 68.99676262035083596 $625 $711 forward 7 unknown #
vertex $-1 $699 $712 #
straight-curve $-1 43.48475373847060865 104.5782315939734701 31.60457101897556953 1 0 0 I I #
plane-surface $-1 154.2307809686574842 52.28911579698673506 18.95298926997380917 -1 0 0 0 0 1 forward_v I I I I #
edge $-1 $535 -18.95298926997380917 $533 18.95298926997380917 $538 $713 forward 7 unknown #
straight-curve $-1 154.2307809686574842 0 18.95298926997380917 0 0 -1 I I #
point $-1 0 104.5782315939734701 0 #
point $-1 0 104.5782315939734701 37.90597853994761834 #
straight-curve $-1 154.2307809686574842 104.5782315939734701 18.95298926997380917 0 0 -1 I I #
plane-surface $-1 77.1153904843287421 52.28911579698673506 0 0 0 1 1 0 0 forward_v I I I I #
coedge $-1 $549 $548 $574 $650 reversed $371 $-1 #
edge $-1 $714 -7.465986613388452042 $559 7.465986613388452042 $548 $715 forward 7 unknown #
straight-curve $-1 37.90597853994762545 -14.93197322677690408 18.95298926997380917 0 0 -1 I I #
straight-curve $-1 31.7063896366780682 -7.465986613388452042 0 0 1 0 I I #
straight-curve $-1 31.7063896366780682 -7.465986613388452042 37.90597853994761834 0 -1 0 I I #
edge $-1 $555 45.4090008476506739 $567 77.1153904843287421 $554 $716 forward 7 unknown #
point $-1 31.7063896366780682 0 0 #
point $-1 31.7063896366780682 0 37.90597853994761834 #
point $-1 37.90597853994762545 -14.93197322677690408 0 #
point $-1 37.90597853994762545 -14.93197322677690408 37.90597853994761834 #
coedge $-1 $575 $574 $565 $647 reversed $547 $-1 #
edge $-1 $579 -77.1153904843287421 $714 39.20941194438111665 $646 $716 forward 7 unknown #
point $-1 0 0 0 #
straight-curve $-1 37.90597853994762545 -7.465986613388452042 37.90597853994761834 0 1 0 I I #
edge $-1 $576 -18.95298926997380917 $714 18.95298926997380917 $574 $717 forward 7 unknown #
point $-1 37.90597853994762545 0 37.90597853994761834 #
straight-curve $-1 154.2307809686574842 0 18.95298926997380917 0 0 -1 I I #
point $-1 154.2307809686574842 0 0 #
face $-1 $718 $719 $13 $-1 $656 reversed single #
loop $-1 $-1 $660 $581 #
plane-surface $-1 77.1153904843287421 0 18.95298926997380917 0 1 0 0 0 1 forward_v I I I I #
coedge $-1 $720 $721 $662 $722 forward $582 $-1 #
coedge $-1 $587 $584 $723 $724 reversed $494 $-1 #
coedge $-1 $584 $587 $679 $725 reversed $494 $-1 #
coedge $-1 $680 $726 $584 $661 forward $655 $-1 #
edge $-1 $727 -18.95298926997380917 $728 18.95298926997380917 $660 $729 forward 7 unknown #
coedge $-1 $586 $585 $657 $722 reversed $398 $-1 #
coedge $-1 $723 $730 $585 $664 forward $672 $-1 #
edge $-1 $731 -3.099794451634778625 $668 3.099794451634778625 $585 $732 forward 7 unknown #
coedge $-1 $684 $679 $586 $666 forward $317 $-1 #
edge $-1 $667 -3.099794451634778625 $733 3.099794451634778625 $586 $734 forward 7 unknown #
vertex $-1 $725 $735 #
vertex $-1 $724 $736 #
straight-curve $-1 31.7063896366780682 -14.93197322677690408 18.95298926997380917 0 0 -1 I I #
coedge $-1 $737 $589 $605 $690 forward $672 $-1 #
coedge $-1 $589 $738 $591 $675 forward $672 $-1 #
loop $-1 $-1 $670 $718 #
straight-curve $-1 77.1153904843287421 104.5782315939734701 0 1 0 0 I I #
coedge $-1 $596 $591 $739 $740 reversed $592 $-1 #
edge $-1 $741 -52.28911579698673506 $593 52.28911579698673506 $591 $742 forward 7 unknown #
face $-1 $691 $592 $13 $-1 $743 reversed single #
point $-1 0 104.5782315939734701 0 #
point $-1 0 96.51279792935066837 37.90597853994762545 #
coedge $-1 $665 $600 $659 $725 forward $317 $-1 #
coedge $-1 $739 $660 $600 $681 reversed $655 $-1 #
edge $-1 $682 -77.1153904843287421 $728 -45.4090008476506739 $680 $744 forward 7 unknown #
vertex $-1 $601 $745 #
straight-curve $-1 0 52.28911579698673506 37.90597853994761834 0 -1 0 I I #
coedge $-1 $602 $665 $721 $746 forward $317 $-1 #
coedge $-1 $747 $748 $602 $686 reversed $719 $-1 #
edge $-1 $749 -39.20941194438111665 $688 77.1153904843287421 $685 $744 forward 7 unknown #
coedge $-1 $605 $603 $748 $750 forward $606 $-1 #
vertex $-1 $604 $751 #
straight-curve $-1 154.2307809686574842 52.28911579698673506 37.90597853994761834 0 1 0 I I #
edge $-1 $607 -52.28911579698673506 $752 52.28911579698673506 $605 $753 forward 7 unknown #
face $-1 $-1 $606 $13 $-1 $754 reversed single #
point $-1 154.2307809686574842 104.5782315939734701 0 #
face $-1 $755 $756 $14 $-1 $757 reversed single #
loop $-1 $-1 $758 $610 #
plane-surface $-1 31.7063896366780682 -7.465986613388452042 18.95298926997380917 1 0 0 0 0 -1 forward_v I I I I #
coedge $-1 $759 $760 $761 $762 forward $611 $-1 #
coedge $-1 $613 $620 $763 $764 reversed $415 $-1 #
coedge $-1 $765 $625 $613 $699 forward $709 $-1 #
edge $-1 $627 -12.65158174900176746 $766 18.95298926997380917 $613 $767 forward 7 unknown #
edge $-1 $615 23.77651975324565825 $710 43.48475373847060865 $617 $768 forward 7 unknown #
point $-1 19.7082339852249504 96.51279792935066837 37.90597853994762545 #
coedge $-1 $769 $617 $708 $770 forward $513 $-1 #
coedge $-1 $618 $771 $772 $773 forward $513 $-1 #
coedge $-1 $772 $774 $620 $705 reversed $775 $-1 #
edge $-1 $706 -18.95298926997380917 $776 18.95298926997380917 $704 $777 forward 7 unknown #
vertex $-1 $773 $778 #
straight-curve $-1 77.1153904843287421 104.5782315939734701 37.90597853994761834 -1 0 0 I I #
coedge $-1 $625 $779 $702 $770 reversed $709 $-1 #
loop $-1 $-1 $625 $780 #
vertex $-1 $770 $781 #
straight-curve $-1 0 50.20804110128018749 74.08322021921837575 0 0.788010747574649173 -0.6156614830463592591 I I #
point $-1 0 104.5782315939734701 31.60457101897557664 #
straight-curve $-1 0 104.5782315939734701 18.95298926997380917 0 0 -1 I I #
vertex $-1 $637 $782 #
straight-curve $-1 37.90597853994762545 -7.465986613388452042 0 0 -1 0 I I #
straight-curve $-1 77.1153904843287421 0 0 -1 0 0 I I #
straight-curve $-1 37.90597853994762545 0 18.95298926997380917 0 0 -1 I I #
face $-1 $676 $672 $13 $-1 $783 reversed single #
loop $-1 $-1 $747 $654 #
coedge $-1 $784 $657 $730 $785 reversed $582 $-1 #
coedge $-1 $657 $784 $684 $746 reversed $582 $-1 #
edge $-1 $733 -18.95298926997380917 $731 18.95298926997380917 $657 $786 forward 7 unknown #
coedge $-1 $738 $663 $658 $724 forward $672 $-1 #
edge $-1 $668 -7.465986613388452042 $727 7.465986613388452042 $658 $787 forward 7 unknown #
edge $-1 $728 -7.465986613388452042 $667 7.465986613388452042 $659 $788 forward 7 unknown #
coedge $-1 $660 $739 $738 $789 reversed $655 $-1 #
vertex $-1 $789 $790 #
vertex $-1 $725 $791 #
straight-curve $-1 31.7063896366780682 0 18.95298926997380917 0 0 1 I I #
coedge $-1 $663 $737 $720 $785 forward $672 $-1 #
vertex $-1 $722 $792 #
straight-curve $-1 34.80618408831284682 -14.93197322677690408 0 -1 0 0 I I #
vertex $-1 $746 $793 #
straight-curve $-1 34.80618408831284682 -14.93197322677690408 37.90597853994761834 1 0 0 I I #
point $-1 31.7063896366780682 -14.93197322677690408 37.90597853994761834 #
point $-1 31.7063896366780682 -14.93197322677690408 0 #
coedge $-1 $730 $670 $794 $795 forward $672 $-1 #
coedge $-1 $671 $723 $726 $789 forward $672 $-1 #
coedge $-1 $726 $680 $674 $740 forward $655 $-1 #
edge $-1 $682 -18.95298926997380917 $741 18.95298926997380917 $674 $796 forward 7 unknown #
vertex $-1 $675 $797 #
straight-curve $-1 0 52.28911579698673506 0 0 1 0 I I #
plane-surface $-1 0 52.28911579698673506 18.95298926997380917 1 0 0 0 0 -1 forward_v I I I I #
straight-curve $-1 77.1153904843287421 0 37.90597853994761834 1 0 0 I I #
point $-1 0 0 37.90597853994761834 #
edge $-1 $733 -7.465986613388452042 $749 7.465986613388452042 $721 $798 forward 7 unknown #
coedge $-1 $794 $685 $784 $799 forward $719 $-1 #
coedge $-1 $685 $794 $687 $750 reversed $719 $-1 #
vertex $-1 $686 $800 #
edge $-1 $688 -18.95298926997380917 $752 18.95298926997380917 $687 $801 forward 7 unknown #
point $-1 154.2307809686574842 0 37.90597853994761834 #
vertex $-1 $750 $802 #
straight-curve $-1 154.2307809686574842 52.28911579698673506 0 0 -1 0 I I #
plane-surface $-1 154.2307809686574842 52.28911579698673506 18.95298926997380917 -1 0 0 0 0 1 forward_v I I I I #
face $-1 $803 $804 $14 $-1 $805 reversed single #
loop $-1 $-1 $806 $693 #
plane-surface $-1 37.90597853994762545 -7.465986613388452042 18.95298926997380917 -1 0 0 0 0 1 forward_v I I I I #
coedge $-1 $807 $808 $809 $810 reversed $694 $-1 #
coedge $-1 $811 $696 $812 $813 reversed $611 $-1 #
coedge $-1 $696 $811 $814 $815 reversed $611 $-1 #
coedge $-1 $808 $807 $696 $762 reversed $694 $-1 #
edge $-1 $816 -18.95298926997380917 $817 18.95298926997380917 $761 $818 forward 7 unknown #
coedge $-1 $819 $820 $697 $764 forward $821 $-1 #
edge $-1 $766 -77.1153904843287421 $776 77.1153904843287421 $697 $822 forward 7 unknown #
coedge $-1 $779 $698 $820 $823 reversed $709 $-1 #
vertex $-1 $764 $824 #
straight-curve $-1 0 104.5782315939734701 18.95298926997380917 0 0 -1 I I #
straight-curve $-1 43.48475373847060865 96.51279792935068258 37.90597853994761124 -1 0 0 I I #
coedge $-1 $825 $702 $826 $827 forward $513 $-1 #
edge $-1 $710 -44.22368213236393331 $828 52.28911579698673506 $708 $829 forward 7 unknown #
coedge $-1 $703 $830 $831 $832 forward $513 $-1 #
coedge $-1 $833 $704 $703 $773 reversed $775 $-1 #
edge $-1 $834 -52.28911579698673506 $706 52.28911579698673506 $772 $835 forward 7 unknown #
coedge $-1 $704 $833 $819 $836 reversed $775 $-1 #
loop $-1 $-1 $833 $837 #
vertex $-1 $836 $838 #
straight-curve $-1 154.2307809686574842 104.5782315939734701 18.95298926997380917 0 0 -1 I I #
point $-1 154.2307809686574842 104.5782315939734701 37.90597853994761834 #
coedge $-1 $708 $765 $839 $840 reversed $709 $-1 #
face $-1 $837 $709 $14 $-1 $841 reversed single #
point $-1 0 96.51279792935066837 37.90597853994762545 #
point $-1 37.90597853994762545 0 0 #
plane-surface $-1 77.1153904843287421 52.28911579698673506 0 0 0 1 1 0 0 forward_v I I I I #
coedge $-1 $721 $720 $747 $799 reversed $582 $-1 #
edge $-1 $842 -7.465986613388452042 $731 7.465986613388452042 $720 $843 forward 7 unknown #
straight-curve $-1 37.90597853994762545 -14.93197322677690408 18.95298926997380917 0 0 -1 I I #
straight-curve $-1 31.7063896366780682 -7.465986613388452042 0 0 1 0 I I #
straight-curve $-1 31.7063896366780682 -7.465986613388452042 37.90597853994761834 0 -1 0 I I #
edge $-1 $727 45.4090008476506739 $741 77.1153904843287421 $726 $844 forward 7 unknown #
point $-1 31.7063896366780682 0 0 #
point $-1 31.7063896366780682 0 37.90597853994761834 #
point $-1 37.90597853994762545 -14.93197322677690408 0 #
point $-1 37.90597853994762545 -14.93197322677690408 37.90597853994761834 #
coedge $-1 $748 $747 $737 $795 reversed $719 $-1 #
edge $-1 $752 -77.1153904843287421 $842 39.20941194438111665 $794 $844 forward 7 unknown #
straight-curve $-1 0 0 18.95298926997380917 0 0 -1 I I #
point $-1 0 0 0 #
straight-curve $-1 37.90597853994762545 -7.465986613388452042 37.90597853994761834 0 1 0 I I #
edge $-1 $749 -18.95298926997380917 $842 18.95298926997380917 $747 $845 forward 7 unknown #
point $-1 37.90597853994762545 0 37.90597853994761834 #
straight-curve $-1 154.2307809686574842 0 18.95298926997380917 0 0 -1 I I #
point $-1 154.2307809686574842 0 0 #
face $-1 $846 $847 $14 $-1 $805 reversed single #
loop $-1 $-1 $809 $755 #
plane-surface $-1 77.1153904843287421 0 18.95298926997380917 0 1 0 0 0 1 forward_v I I I I #
coedge $-1 $848 $849 $811 $850 forward $756 $-1 #
coedge $-1 $761 $758 $851 $852 reversed $694 $-1 #
coedge $-1 $758 $761 $825 $853 reversed $694 $-1 #
coedge $-1 $826 $854 $758 $810 forward $804 $-1 #
edge $-1 $855 -18.95298926997380917 $856 18.95298926997380917 $809 $857 forward 7 unknown #
coedge $-1 $760 $759 $806 $850 reversed $611 $-1 #
coedge $-1 $851 $858 $759 $813 forward $821 $-1 #
edge $-1 $859 -3.099794451634778625 $817 3.099794451634778625 $759 $860 forward 7 unknown #
coedge $-1 $830 $825 $760 $815 forward $513 $-1 #
edge $-1 $816 -3.099794451634778625 $861 3.099794451634778625 $760 $862 forward 7 unknown #
vertex $-1 $853 $863 #
vertex $-1 $852 $864 #
straight-curve $-1 31.7063896366780682 -14.93197322677690408 18.95298926997380917 0 0 -1 I I #
coedge $-1 $865 $763 $774 $836 forward $821 $-1 #
coedge $-1 $763 $866 $765 $823 forward $821 $-1 #
loop $-1 $-1 $819 $846 #
straight-curve $-1 77.1153904843287421 104.5782315939734701 0 1 0 0 I I #
edge $-1 $867 -52.28911579698673506 $766 52.28911579698673506 $765 $868 forward 7 unknown #
point $-1 0 104.5782315939734701 0 #
coedge $-1 $814 $769 $808 $853 forward $513 $-1 #
coedge $-1 $839 $809 $769 $827 reversed $804 $-1 #
edge $-1 $828 -77.1153904843287421 $856 -45.4090008476506739 $826 $869 forward 7 unknown #
vertex $-1 $770 $870 #
straight-curve $-1 0 52.28911579698673506 37.90597853994761834 0 -1 0 I I #
coedge $-1 $771 $814 $849 $871 forward $513 $-1 #
coedge $-1 $872 $873 $771 $832 reversed $847 $-1 #
edge $-1 $874 -39.20941194438111665 $834 77.1153904843287421 $831 $869 forward 7 unknown #
coedge $-1 $774 $772 $873 $875 forward $775 $-1 #
vertex $-1 $773 $876 #
straight-curve $-1 154.2307809686574842 52.28911579698673506 37.90597853994761834 0 1 0 I I #
edge $-1 $776 -52.28911579698673506 $877 52.28911579698673506 $774 $878 forward 7 unknown #
face $-1 $-1 $775 $14 $-1 $879 reversed single #
point $-1 154.2307809686574842 104.5782315939734701 0 #
coedge $-1 $854 $826 $779 $840 forward $804 $-1 #
edge $-1 $828 -18.95298926997380917 $867 18.95298926997380917 $779 $880 forward 7 unknown #
plane-surface $-1 0 52.28911579698673506 18.95298926997380917 1 0 0 0 0 -1 forward_v I I I I #
vertex $-1 $785 $881 #
straight-curve $-1 37.90597853994762545 -7.465986613388452042 0 0 -1 0 I I #
straight-curve $-1 77.1153904843287421 0 0 -1 0 0 I I #
straight-curve $-1 37.90597853994762545 0 18.95298926997380917 0 0 -1 I I #
face $-1 $780 $821 $14 $-1 $882 reversed single #
loop $-1 $-1 $872 $803 #
coedge $-1 $883 $806 $858 $884 reversed $756 $-1 #
coedge $-1 $806 $883 $830 $871 reversed $756 $-1 #
edge $-1 $861 -18.95298926997380917 $859 18.95298926997380917 $806 $885 forward 7 unknown #
coedge $-1 $866 $812 $807 $852 forward $821 $-1 #
edge $-1 $817 -7.465986613388452042 $855 7.465986613388452042 $807 $886 forward 7 unknown #
edge $-1 $856 -7.465986613388452042 $816 7.465986613388452042 $808 $887 forward 7 unknown #
coedge $-1 $809 $839 $866 $888 reversed $804 $-1 #
vertex $-1 $888 $889 #
vertex $-1 $853 $890 #
straight-curve $-1 31.7063896366780682 0 18.95298926997380917 0 0 1 I I #
coedge $-1 $812 $865 $848 $884 forward $821 $-1 #
vertex $-1 $850 $891 #
straight-curve $-1 34.80618408831284682 -14.93197322677690408 0 -1 0 0 I I #
vertex $-1 $871 $892 #
straight-curve $-1 34.80618408831284682 -14.93197322677690408 37.90597853994761834 1 0 0 I I #
point $-1 31.7063896366780682 -14.93197322677690408 37.90597853994761834 #
point $-1 31.7063896366780682 -14.93197322677690408 0 #
coedge $-1 $858 $819 $893 $894 forward $821 $-1 #
coedge $-1 $820 $851 $854 $888 forward $821 $-1 #
vertex $-1 $823 $895 #
straight-curve $-1 0 52.28911579698673506 0 0 1 0 I I #
straight-curve $-1 77.1153904843287421 0 37.90597853994761834 1 0 0 I I #
point $-1 0 0 37.90597853994761834 #
edge $-1 $861 -7.465986613388452042 $874 7.465986613388452042 $849 $896 forward 7 unknown #
coedge $-1 $893 $831 $883 $897 forward $847 $-1 #
coedge $-1 $831 $893 $833 $875 reversed $847 $-1 #
vertex $-1 $832 $898 #
edge $-1 $834 -18.95298926997380917 $877 18.95298926997380917 $833 $899 forward 7 unknown #
point $-1 154.2307809686574842 0 37.90597853994761834 #
vertex $-1 $875 $900 #
straight-curve $-1 154.2307809686574842 52.28911579698673506 0 0 -1 0 I I #
plane-surface $-1 154.2307809686574842 52.28911579698673506 18.95298926997380917 -1 0 0 0 0 1 forward_v I I I I #
straight-curve $-1 0 0 18.95298926997380917 0 0 -1 I I #
point $-1 37.90597853994762545 0 0 #
plane-surface $-1 77.1153904843287421 52.28911579698673506 0 0 0 1 1 0 0 forward_v I I I I #
coedge $-1 $849 $848 $872 $897 reversed $756 $-1 #
edge $-1 $901 -7.465986613388452042 $859 7.465986613388452042 $848 $902 forward 7 unknown #
straight-curve $-1 37.90597853994762545 -14.93197322677690408 18.95298926997380917 0 0 -1 I I #
straight-curve $-1 31.7063896366780682 -7.465986613388452042 0 0 1 0 I I #
straight-curve $-1 31.7063896366780682 -7.465986613388452042 37.90597853994761834 0 -1 0 I I #
edge $-1 $855 45.4090008476506739 $867 77.1153904843287421 $854 $903 forward 7 unknown #
point $-1 31.7063896366780682 0 0 #
point $-1 31.7063896366780682 0 37.90597853994761834 #
point $-1 37.90597853994762545 -14.93197322677690408 0 #
point $-1 37.90597853994762545 -14.93197322677690408 37.90597853994761834 #
coedge $-1 $873 $872 $865 $894 reversed $847 $-1 #
edge $-1 $877 -77.1153904843287421 $901 39.20941194438111665 $893 $903 forward 7 unknown #
point $-1 0 0 0 #
straight-curve $-1 37.90597853994762545 -7.465986613388452042 37.90597853994761834 0 1 0 I I #
edge $-1 $874 -18.95298926997380917 $901 18.95298926997380917 $872 $904 forward 7 unknown #
point $-1 37.90597853994762545 0 37.90597853994761834 #
straight-curve $-1 154.2307809686574842 0 18.95298926997380917 0 0 -1 I I #
point $-1 154.2307809686574842 0 0 #
vertex $-1 $884 $905 #
straight-curve $-1 37.90597853994762545 -7.465986613388452042 0 0 -1 0 I I #
straight-curve $-1 77.1153904843287421 0 0 -1 0 0 I I #
straight-curve $-1 37.90597853994762545 0 18.95298926997380917 0 0 -1 I I #
point $-1 37.90597853994762545 0 0 #
End-of-ACIS-data 