600 0 14 0           
96 GICL ACIS Healer - Source: /gicl/data5/repository/Drexel/SM99-DATA/part101.smdg.deltas.sat - 6 0 18 ACIS 6.0.3 Solaris 24 Sat Apr 13 20:42:59 2002 
1 9.999999999999999547e-07 1.000000000000000036e-10 
body $-1 $14 $-1 $-1 #
body $-1 $15 $-1 $-1 #
body $-1 $16 $-1 $-1 #
body $-1 $17 $-1 $-1 #
body $-1 $18 $-1 $-1 #
body $-1 $19 $-1 $-1 #
body $-1 $20 $-1 $-1 #
body $-1 $21 $-1 $-1 #
body $-1 $22 $-1 $-1 #
body $-1 $23 $-1 $-1 #
body $-1 $24 $-1 $-1 #
body $-1 $25 $-1 $-1 #
body $-1 $26 $-1 $-1 #
body $-1 $27 $-1 $-1 #
lump $-1 $-1 $28 $0 #
lump $-1 $-1 $29 $1 #
lump $-1 $-1 $30 $2 #
lump $-1 $-1 $31 $3 #
lump $-1 $-1 $32 $4 #
lump $-1 $-1 $33 $5 #
lump $-1 $-1 $34 $6 #
lump $-1 $-1 $35 $7 #
lump $-1 $-1 $36 $8 #
lump $-1 $-1 $37 $9 #
lump $-1 $-1 $38 $10 #
lump $-1 $-1 $39 $11 #
lump $-1 $-1 $40 $12 #
lump $-1 $-1 $41 $13 #
shell $-1 $-1 $-1 $42 $-1 $14 #
shell $-1 $-1 $-1 $43 $-1 $15 #
shell $-1 $-1 $-1 $44 $-1 $16 #
shell $-1 $-1 $-1 $45 $-1 $17 #
shell $-1 $-1 $-1 $46 $-1 $18 #
shell $-1 $-1 $-1 $47 $-1 $19 #
shell $-1 $-1 $-1 $48 $-1 $20 #
shell $-1 $-1 $-1 $49 $-1 $21 #
shell $-1 $-1 $-1 $50 $-1 $22 #
shell $-1 $-1 $-1 $51 $-1 $23 #
shell $-1 $-1 $-1 $52 $-1 $24 #
shell $-1 $-1 $-1 $53 $-1 $25 #
shell $-1 $-1 $-1 $54 $-1 $26 #
shell $-1 $-1 $-1 $55 $-1 $27 #
face $-1 $56 $57 $28 $-1 $58 forward single #
face $-1 $59 $60 $29 $-1 $61 forward single #
face $-1 $62 $63 $30 $-1 $64 reversed single #
face $-1 $65 $66 $31 $-1 $67 forward single #
face $-1 $68 $69 $32 $-1 $70 forward single #
face $-1 $71 $72 $33 $-1 $73 reversed single #
face $-1 $74 $75 $34 $-1 $76 forward single #
face $-1 $77 $78 $35 $-1 $79 forward single #
face $-1 $80 $81 $36 $-1 $82 reversed single #
face $-1 $83 $84 $37 $-1 $85 forward single #
face $-1 $86 $87 $38 $-1 $88 forward single #
face $-1 $89 $90 $39 $-1 $91 reversed single #
face $-1 $92 $93 $40 $-1 $94 forward single #
face $-1 $95 $96 $41 $-1 $97 forward single #
face $-1 $98 $99 $28 $-1 $100 reversed single #
loop $-1 $-1 $101 $42 #
plane-surface $-1 66.47297585985900525 27.16553155436219313 16.1922054746619466 0 0 1 1 0 0 forward_v I I I I #
face $-1 $102 $103 $29 $-1 $104 reversed single #
loop $-1 $-1 $105 $43 #
plane-surface $-1 0 27.16553155436219313 8.096102737330973298 1 0 0 0 0 -1 forward_v I I I I #
face $-1 $106 $107 $30 $-1 $108 reversed single #
loop $-1 $-1 $109 $44 #
plane-surface $-1 40.5823745997420815 144.2679921549645314 123.5036870220102969 1 0 0 0 -0.8746197147644345637 -0.484809606490402778 forward_v I I I I #
face $-1 $110 $111 $31 $-1 $112 forward single #
loop $-1 $113 $114 $45 #
cone-surface $-1 46.37987564777121463 52.60193275410880176 13.61929471672612735 0 -0.8746197147644345637 -0.484809606490402778 0.5 0 0 1 I I 0 1 0.5 forward I I I I #
face $-1 $115 $116 $32 $-1 $117 forward single #
loop $-1 $118 $119 $46 #
cone-surface $-1 55.07612721981491433 52.60193275410880176 13.61929471672612735 0 -0.8746197147644345637 -0.484809606490402778 0.5 0 0 1 I I 0 1 0.5 forward I I I I #
face $-1 $120 $121 $33 $-1 $122 reversed single #
loop $-1 $-1 $123 $47 #
plane-surface $-1 81.07805484692411824 144.2679921549645314 123.5036870220102969 1 0 0 0 -0.8746197147644345637 -0.484809606490402778 forward_v I I I I #
face $-1 $124 $125 $34 $-1 $126 forward single #
loop $-1 $127 $128 $48 #
cone-surface $-1 86.87555589495326558 52.60193275410880176 13.61929471672612735 0 -0.8746197147644345637 -0.484809606490402778 0.5 0 0 1 I I 0 1 0.5 forward I I I I #
face $-1 $129 $130 $35 $-1 $131 forward single #
loop $-1 $132 $133 $49 #
cone-surface $-1 95.57180746699695817 52.60193275410880176 13.61929471672612735 0 -0.8746197147644345637 -0.484809606490402778 0.5 0 0 1 I I 0 1 0.5 forward I I I I #
face $-1 $134 $135 $36 $-1 $136 reversed single #
loop $-1 $-1 $137 $50 #
plane-surface $-1 60.87362826784404035 -116.2771503721860711 75.98466810300928387 -1 0 0 0 -0.8746197147644345637 0.484809606490402778 forward_v I I I I #
face $-1 $138 $139 $37 $-1 $140 forward single #
loop $-1 $141 $142 $51 #
cone-surface $-1 46.37987564777121463 1.729130354615580956 13.6192947167261309 0 0.8746197147644345637 -0.484809606490402778 0.5 0 0 1 I I 0 1 0.5 forward I I I I #
face $-1 $143 $144 $38 $-1 $145 forward single #
loop $-1 $146 $147 $52 #
cone-surface $-1 55.07612721981491433 1.729130354615580956 13.6192947167261309 0 0.8746197147644345637 -0.484809606490402778 0.5 0 0 1 I I 0 1 0.5 forward I I I I #
face $-1 $148 $149 $39 $-1 $150 reversed single #
loop $-1 $-1 $151 $53 #
plane-surface $-1 101.3693085150260913 -116.2771503721860711 75.98466810300928387 -1 0 0 0 -0.8746197147644345637 0.484809606490402778 forward_v I I I I #
face $-1 $152 $153 $40 $-1 $154 forward single #
loop $-1 $155 $156 $54 #
cone-surface $-1 86.87555589495326558 1.729130354615580956 13.6192947167261309 0 0.8746197147644345637 -0.484809606490402778 0.5 0 0 1 I I 0 1 0.5 forward I I I I #
face $-1 $157 $158 $41 $-1 $159 forward single #
loop $-1 $160 $161 $55 #
cone-surface $-1 95.57180746699695817 1.729130354615580956 13.6192947167261309 0 0.8746197147644345637 -0.484809606490402778 0.5 0 0 1 I I 0 1 0.5 forward I I I I #
face $-1 $162 $163 $28 $-1 $164 reversed single #
loop $-1 $-1 $165 $56 #
plane-surface $-1 66.47297585985900525 27.16553155436219313 0 0 0 1 1 0 0 forward_v I I I I #
coedge $-1 $166 $167 $168 $169 forward $57 $-1 #
face $-1 $170 $171 $29 $-1 $172 forward single #
loop $-1 $-1 $173 $59 #
plane-surface $-1 66.47297585985900525 54.33106310872438627 8.096102737330973298 0 -1 0 0 0 -1 forward_v I I I I #
coedge $-1 $174 $175 $176 $177 forward $60 $-1 #
face $-1 $178 $179 $30 $-1 $180 reversed single #
loop $-1 $-1 $181 $62 #
plane-surface $-1 50.72800143379306093 27.99084178277847812 59.05021248428172242 0 0.8746197147644345637 0.484809606490402778 1 0 0 forward_v I I I I #
coedge $-1 $182 $183 $184 $185 reversed $63 $-1 #
face $-1 $-1 $186 $31 $-1 $187 forward single #
loop $-1 $188 $189 $65 #
cone-surface $-1 46.37987564777121463 51.94596796803547534 13.25568751185832639 0 -0.8746197147644345637 -0.484809606490402778 0.25 0 0 1 I I -0.7071067811865474617 0.7071067811865474617 0.25 forward I I I I #
loop $-1 $-1 $190 $45 #
coedge $-1 $114 $114 $191 $192 reversed $66 $-1 #
face $-1 $-1 $193 $32 $-1 $194 forward single #
loop $-1 $195 $196 $68 #
cone-surface $-1 55.07612721981491433 51.94596796803547534 13.25568751185832639 0 -0.8746197147644345637 -0.484809606490402778 0.25 0 0 1 I I -0.7071067811865474617 0.7071067811865474617 0.25 forward I I I I #
loop $-1 $-1 $197 $46 #
coedge $-1 $119 $119 $198 $199 reversed $69 $-1 #
face $-1 $200 $201 $33 $-1 $202 reversed single #
loop $-1 $-1 $203 $71 #
plane-surface $-1 91.22368168097510477 27.99084178277847812 59.05021248428172242 0 0.8746197147644345637 0.484809606490402778 1 0 0 forward_v I I I I #
coedge $-1 $204 $205 $206 $207 reversed $72 $-1 #
face $-1 $-1 $208 $34 $-1 $209 forward single #
loop $-1 $210 $211 $74 #
cone-surface $-1 86.87555589495326558 51.94596796803547534 13.25568751185832639 0 -0.8746197147644345637 -0.484809606490402778 0.25 0 0 1 I I -0.7071067811865474617 0.7071067811865474617 0.25 forward I I I I #
loop $-1 $-1 $212 $48 #
coedge $-1 $128 $128 $213 $214 reversed $75 $-1 #
face $-1 $-1 $215 $35 $-1 $216 forward single #
loop $-1 $217 $218 $77 #
cone-surface $-1 95.57180746699695817 51.94596796803547534 13.25568751185832639 0 -0.8746197147644345637 -0.484809606490402778 0.25 0 0 1 I I -0.7071067811865474617 0.7071067811865474617 0.25 forward I I I I #
loop $-1 $-1 $219 $49 #
coedge $-1 $133 $133 $220 $221 reversed $78 $-1 #
face $-1 $222 $223 $36 $-1 $224 reversed single #
loop $-1 $-1 $225 $80 #
plane-surface $-1 50.72800143379306093 -1.065814103640150279e-14 11.53119356528070938 0 -0.8746197147644345637 0.484809606490402778 1 0 0 forward_v I I I I #
coedge $-1 $226 $227 $228 $229 reversed $81 $-1 #
face $-1 $-1 $230 $37 $-1 $231 forward single #
loop $-1 $232 $233 $83 #
cone-surface $-1 46.37987564777121463 2.385095140688907378 13.25568751185832816 0 0.8746197147644345637 -0.484809606490402778 0.25 0 0 1 I I -0.7071067811865474617 0.7071067811865474617 0.25 forward I I I I #
loop $-1 $-1 $234 $51 #
coedge $-1 $142 $142 $235 $236 reversed $84 $-1 #
face $-1 $-1 $237 $38 $-1 $238 forward single #
loop $-1 $239 $240 $86 #
cone-surface $-1 55.07612721981491433 2.385095140688907378 13.25568751185832816 0 0.8746197147644345637 -0.484809606490402778 0.25 0 0 1 I I -0.7071067811865474617 0.7071067811865474617 0.25 forward I I I I #
loop $-1 $-1 $241 $52 #
coedge $-1 $147 $147 $242 $243 reversed $87 $-1 #
face $-1 $244 $245 $39 $-1 $246 reversed single #
loop $-1 $-1 $247 $89 #
plane-surface $-1 91.22368168097510477 -1.065814103640150279e-14 11.53119356528070938 0 -0.8746197147644345637 0.484809606490402778 1 0 0 forward_v I I I I #
coedge $-1 $248 $249 $250 $251 reversed $90 $-1 #
face $-1 $-1 $252 $40 $-1 $253 forward single #
loop $-1 $254 $255 $92 #
cone-surface $-1 86.87555589495326558 2.385095140688907378 13.25568751185832816 0 0.8746197147644345637 -0.484809606490402778 0.25 0 0 1 I I -0.7071067811865474617 0.7071067811865474617 0.25 forward I I I I #
loop $-1 $-1 $256 $54 #
coedge $-1 $156 $156 $257 $258 reversed $93 $-1 #
face $-1 $-1 $259 $41 $-1 $260 forward single #
loop $-1 $261 $262 $95 #
cone-surface $-1 95.57180746699695817 2.385095140688907378 13.25568751185832816 0 0.8746197147644345637 -0.484809606490402778 0.25 0 0 1 I I -0.7071067811865474617 0.7071067811865474617 0.25 forward I I I I #
loop $-1 $-1 $263 $55 #
coedge $-1 $161 $161 $264 $265 reversed $96 $-1 #
face $-1 $266 $267 $28 $-1 $268 reversed single #
loop $-1 $-1 $269 $98 #
plane-surface $-1 66.47297585985900525 0 8.096102737330973298 0 1 0 0 0 1 forward_v I I I I #
coedge $-1 $270 $271 $272 $273 forward $99 $-1 #
coedge $-1 $274 $101 $275 $276 forward $57 $-1 #
coedge $-1 $101 $274 $277 $278 forward $57 $-1 #
coedge $-1 $279 $280 $101 $169 reversed $281 $-1 #
edge $-1 $282 -27.16553155436219313 $283 27.16553155436219313 $168 $284 forward 7 unknown #
face $-1 $285 $286 $29 $-1 $287 reversed single #
loop $-1 $-1 $176 $102 #
plane-surface $-1 -4.502865697525066935 27.16553155436219313 3 0 0 1 1 0 0 forward_v I I I I #
coedge $-1 $288 $289 $175 $290 forward $103 $-1 #
coedge $-1 $291 $105 $292 $293 reversed $60 $-1 #
coedge $-1 $105 $291 $173 $290 reversed $60 $-1 #
coedge $-1 $294 $295 $105 $177 reversed $171 $-1 #
edge $-1 $296 -27.16553155436219313 $297 27.16553155436219313 $176 $298 forward 7 unknown #
face $-1 $299 $300 $30 $-1 $301 forward single #
loop $-1 $-1 $302 $106 #
plane-surface $-1 60.87362826784404035 144.2679921549645314 123.5036870220102969 -1 0 0 0 0.8746197147644345637 0.484809606490402778 forward_v I I I I #
coedge $-1 $303 $304 $305 $306 reversed $107 $-1 #
coedge $-1 $183 $109 $307 $308 reversed $63 $-1 #
coedge $-1 $109 $182 $303 $309 reversed $63 $-1 #
coedge $-1 $305 $310 $109 $185 forward $300 $-1 #
edge $-1 $311 31.38569874593897424 $312 33.96933974040571513 $184 $313 forward 7 unknown #
loop $-1 $-1 $191 $110 #
plane-surface $-1 50.72800143379306093 27.99084178277847812 59.05021248428172242 0 0.8746197147644345637 0.484809606490402778 1 0 0 forward_v I I I I #
loop $-1 $-1 $314 $65 #
coedge $-1 $189 $189 $190 $315 reversed $111 $-1 #
coedge $-1 $190 $190 $189 $315 forward $113 $-1 #
coedge $-1 $191 $191 $114 $192 forward $186 $-1 #
edge $-1 $316 -3.107273424392199117e-15 $316 6.283185307179583567 $191 $317 forward 7 unknown #
loop $-1 $-1 $198 $115 #
plane-surface $-1 50.72800143379306093 27.99084178277847812 59.05021248428172242 0 0.8746197147644345637 0.484809606490402778 1 0 0 forward_v I I I I #
loop $-1 $-1 $318 $68 #
coedge $-1 $196 $196 $197 $319 reversed $116 $-1 #
coedge $-1 $197 $197 $196 $319 forward $118 $-1 #
coedge $-1 $198 $198 $119 $199 forward $193 $-1 #
edge $-1 $320 -3.107273424392199117e-15 $320 6.283185307179583567 $198 $321 forward 7 unknown #
face $-1 $322 $323 $33 $-1 $324 forward single #
loop $-1 $-1 $325 $120 #
plane-surface $-1 101.3693085150260913 144.2679921549645314 123.5036870220102969 -1 0 0 0 0.8746197147644345637 0.484809606490402778 forward_v I I I I #
coedge $-1 $326 $327 $328 $329 reversed $121 $-1 #
coedge $-1 $205 $123 $330 $331 reversed $72 $-1 #
coedge $-1 $123 $204 $326 $332 reversed $72 $-1 #
coedge $-1 $328 $333 $123 $207 forward $323 $-1 #
edge $-1 $334 31.38569874593897424 $335 33.96933974040571513 $206 $336 forward 7 unknown #
loop $-1 $-1 $213 $124 #
plane-surface $-1 91.22368168097510477 27.99084178277847812 59.05021248428172242 0 0.8746197147644345637 0.484809606490402778 1 0 0 forward_v I I I I #
loop $-1 $-1 $337 $74 #
coedge $-1 $211 $211 $212 $338 reversed $125 $-1 #
coedge $-1 $212 $212 $211 $338 forward $127 $-1 #
coedge $-1 $213 $213 $128 $214 forward $208 $-1 #
edge $-1 $339 -3.107273424392199117e-15 $339 6.283185307179583567 $213 $340 forward 7 unknown #
loop $-1 $-1 $220 $129 #
plane-surface $-1 91.22368168097510477 27.99084178277847812 59.05021248428172242 0 0.8746197147644345637 0.484809606490402778 1 0 0 forward_v I I I I #
loop $-1 $-1 $341 $77 #
coedge $-1 $218 $218 $219 $342 reversed $130 $-1 #
coedge $-1 $219 $219 $218 $342 forward $132 $-1 #
coedge $-1 $220 $220 $133 $221 forward $215 $-1 #
edge $-1 $343 -3.107273424392199117e-15 $343 6.283185307179583567 $220 $344 forward 7 unknown #
face $-1 $345 $346 $36 $-1 $347 reversed single #
loop $-1 $-1 $348 $134 #
plane-surface $-1 40.5823745997420815 -116.2771503721860711 75.98466810300928387 1 0 0 0 0.8746197147644345637 -0.484809606490402778 forward_v I I I I #
coedge $-1 $349 $350 $351 $352 reversed $135 $-1 #
coedge $-1 $227 $137 $353 $354 reversed $81 $-1 #
coedge $-1 $137 $226 $349 $355 reversed $81 $-1 #
coedge $-1 $351 $356 $137 $229 forward $357 $-1 #
edge $-1 $358 44.55580940891194075 $359 47.13945040337866743 $228 $360 forward 7 unknown #
loop $-1 $-1 $235 $138 #
plane-surface $-1 50.72800143379306093 -1.065814103640150279e-14 11.53119356528070938 0 -0.8746197147644345637 0.484809606490402778 1 0 0 forward_v I I I I #
loop $-1 $-1 $361 $83 #
coedge $-1 $233 $233 $234 $362 reversed $139 $-1 #
coedge $-1 $234 $234 $233 $362 forward $141 $-1 #
coedge $-1 $235 $235 $142 $236 forward $230 $-1 #
edge $-1 $363 3.375060167924852608e-16 $363 6.283185307179586232 $235 $364 forward 7 unknown #
loop $-1 $-1 $242 $143 #
plane-surface $-1 50.72800143379306093 -1.065814103640150279e-14 11.53119356528070938 0 -0.8746197147644345637 0.484809606490402778 1 0 0 forward_v I I I I #
loop $-1 $-1 $365 $86 #
coedge $-1 $240 $240 $241 $366 reversed $144 $-1 #
coedge $-1 $241 $241 $240 $366 forward $146 $-1 #
coedge $-1 $242 $242 $147 $243 forward $237 $-1 #
edge $-1 $367 3.375060167924852608e-16 $367 6.283185307179586232 $242 $368 forward 7 unknown #
face $-1 $369 $370 $39 $-1 $371 reversed single #
loop $-1 $-1 $372 $148 #
plane-surface $-1 81.07805484692411824 -116.2771503721860711 75.98466810300928387 1 0 0 0 0.8746197147644345637 -0.484809606490402778 forward_v I I I I #
coedge $-1 $373 $374 $375 $376 reversed $149 $-1 #
coedge $-1 $249 $151 $377 $378 reversed $90 $-1 #
coedge $-1 $151 $248 $373 $379 reversed $90 $-1 #
coedge $-1 $375 $380 $151 $251 forward $381 $-1 #
edge $-1 $382 44.55580940891194075 $383 47.13945040337866743 $250 $384 forward 7 unknown #
loop $-1 $-1 $257 $152 #
plane-surface $-1 91.22368168097510477 -1.065814103640150279e-14 11.53119356528070938 0 -0.8746197147644345637 0.484809606490402778 1 0 0 forward_v I I I I #
loop $-1 $-1 $385 $92 #
coedge $-1 $255 $255 $256 $386 reversed $153 $-1 #
coedge $-1 $256 $256 $255 $386 forward $155 $-1 #
coedge $-1 $257 $257 $156 $258 forward $252 $-1 #
edge $-1 $387 3.375060167924852608e-16 $387 6.283185307179586232 $257 $388 forward 7 unknown #
loop $-1 $-1 $264 $157 #
plane-surface $-1 91.22368168097510477 -1.065814103640150279e-14 11.53119356528070938 0 -0.8746197147644345637 0.484809606490402778 1 0 0 forward_v I I I I #
loop $-1 $-1 $389 $95 #
coedge $-1 $262 $262 $263 $390 reversed $158 $-1 #
coedge $-1 $263 $263 $262 $390 forward $160 $-1 #
coedge $-1 $264 $264 $161 $265 forward $259 $-1 #
edge $-1 $391 3.375060167924852608e-16 $391 6.283185307179586232 $264 $392 forward 7 unknown #
face $-1 $393 $394 $28 $-1 $395 reversed single #
loop $-1 $-1 $396 $162 #
plane-surface $-1 0 27.16553155436219313 8.096102737330973298 1 0 0 0 0 -1 forward_v I I I I #
coedge $-1 $397 $277 $396 $398 forward $163 $-1 #
coedge $-1 $399 $165 $397 $400 forward $99 $-1 #
coedge $-1 $165 $399 $401 $402 forward $99 $-1 #
coedge $-1 $280 $279 $165 $273 reversed $281 $-1 #
edge $-1 $403 -27.16553155436219313 $404 27.16553155436219313 $272 $405 forward 7 unknown #
coedge $-1 $167 $166 $406 $407 forward $57 $-1 #
coedge $-1 $408 $409 $166 $276 reversed $394 $-1 #
edge $-1 $283 -66.47297585985900525 $410 66.47297585985900525 $275 $411 forward 7 unknown #
coedge $-1 $269 $412 $167 $278 reversed $163 $-1 #
edge $-1 $413 -66.47297585985900525 $282 66.47297585985900525 $277 $414 forward 7 unknown #
coedge $-1 $272 $168 $412 $415 forward $281 $-1 #
coedge $-1 $168 $272 $408 $416 reversed $281 $-1 #
loop $-1 $-1 $279 $393 #
vertex $-1 $169 $417 #
vertex $-1 $169 $418 #
straight-curve $-1 132.9459517197180105 27.16553155436219313 16.1922054746619466 0 1 0 I I #
face $-1 $419 $420 $29 $-1 $421 reversed single #
loop $-1 $-1 $422 $170 #
plane-surface $-1 -9.00573139505013387 27.16553155436219313 1.5 1 0 0 0 0 -1 forward_v I I I I #
coedge $-1 $423 $173 $424 $425 reversed $103 $-1 #
coedge $-1 $173 $423 $294 $426 reversed $103 $-1 #
edge $-1 $296 5.096102737330973298 $427 8.096102737330973298 $173 $428 forward 7 unknown #
coedge $-1 $175 $174 $429 $430 reversed $60 $-1 #
coedge $-1 $431 $432 $174 $293 forward $433 $-1 #
edge $-1 $434 -8.096102737330973298 $297 -5.096102737330973298 $292 $435 forward 7 unknown #
coedge $-1 $436 $176 $289 $426 forward $171 $-1 #
coedge $-1 $176 $436 $431 $437 forward $171 $-1 #
vertex $-1 $290 $438 #
vertex $-1 $437 $439 #
straight-curve $-1 0 27.16553155436219313 3 0 -1 0 I I #
face $-1 $-1 $440 $30 $-1 $441 reversed single #
loop $-1 $-1 $184 $178 #
plane-surface $-1 66.47297585985900525 27.16553155436219313 16.1922054746619466 0 0 1 1 0 0 forward_v I I I I #
coedge $-1 $442 $443 $444 $445 reversed $179 $-1 #
coedge $-1 $446 $181 $183 $309 forward $107 $-1 #
coedge $-1 $181 $446 $442 $447 forward $107 $-1 #
coedge $-1 $444 $184 $181 $306 forward $300 $-1 #
edge $-1 $312 -18.01811404708395514 $448 2.273139621018003709 $305 $449 forward 7 unknown #
coedge $-1 $450 $451 $182 $308 forward $440 $-1 #
edge $-1 $452 -54.26870131438992217 $311 -49.60768940500868496 $307 $453 forward 7 unknown #
edge $-1 $312 49.00187622818784661 $452 54.33106310872438627 $183 $454 forward 7 unknown #
coedge $-1 $184 $444 $450 $455 forward $300 $-1 #
vertex $-1 $308 $456 #
vertex $-1 $185 $457 #
straight-curve $-1 40.5823745997420815 85.71676185466336051 16.1922054746619466 0 -1 0 I I #
coedge $-1 $314 $314 $-1 $458 reversed $188 $-1 #
edge $-1 $459 0 $459 6.283185307179586232 $189 $460 forward 7 unknown #
vertex $-1 $192 $461 #
ellipse-curve $-1 46.37987564777121463 53.03924261149101937 13.86169951997132799 0 0.8746197147644345637 0.484809606490402778 0.5 0 0 1 I I #
coedge $-1 $318 $318 $-1 $462 reversed $195 $-1 #
edge $-1 $463 0 $463 6.283185307179586232 $196 $464 forward 7 unknown #
vertex $-1 $199 $465 #
ellipse-curve $-1 55.07612721981491433 53.03924261149101937 13.86169951997132799 0 0.8746197147644345637 0.484809606490402778 0.5 0 0 1 I I #
face $-1 $-1 $466 $33 $-1 $467 reversed single #
loop $-1 $-1 $206 $200 #
plane-surface $-1 66.47297585985900525 27.16553155436219313 16.1922054746619466 0 0 1 1 0 0 forward_v I I I I #
coedge $-1 $468 $469 $470 $471 reversed $201 $-1 #
coedge $-1 $472 $203 $205 $332 forward $121 $-1 #
coedge $-1 $203 $472 $468 $473 forward $121 $-1 #
coedge $-1 $470 $206 $203 $329 forward $323 $-1 #
edge $-1 $335 2.229726076507063226 $474 22.52097974460903629 $328 $475 forward 7 unknown #
coedge $-1 $476 $477 $204 $331 forward $466 $-1 #
edge $-1 $478 -54.26870131438992217 $334 -49.60768940500868496 $330 $479 forward 7 unknown #
edge $-1 $335 49.00187622818784661 $478 54.33106310872438627 $205 $480 forward 7 unknown #
coedge $-1 $206 $470 $476 $481 forward $323 $-1 #
vertex $-1 $207 $482 #
vertex $-1 $207 $483 #
straight-curve $-1 81.07805484692411824 85.71676185466336051 16.1922054746619466 0 -1 0 I I #
coedge $-1 $337 $337 $-1 $484 reversed $210 $-1 #
edge $-1 $485 0 $485 6.283185307179586232 $211 $486 forward 7 unknown #
vertex $-1 $214 $487 #
ellipse-curve $-1 86.87555589495326558 53.03924261149101937 13.86169951997132799 0 0.8746197147644345637 0.484809606490402778 0.5 0 0 1 I I #
coedge $-1 $341 $341 $-1 $488 reversed $217 $-1 #
edge $-1 $489 0 $489 6.283185307179586232 $218 $490 forward 7 unknown #
vertex $-1 $221 $491 #
ellipse-curve $-1 95.57180746699695817 53.03924261149101937 13.86169951997132799 0 0.8746197147644345637 0.484809606490402778 0.5 0 0 1 I I #
face $-1 $-1 $357 $36 $-1 $492 forward single #
loop $-1 $-1 $493 $222 #
plane-surface $-1 66.47297585985900525 0 8.096102737330973298 0 1 0 0 0 1 forward_v I I I I #
coedge $-1 $494 $495 $496 $497 reversed $223 $-1 #
coedge $-1 $498 $225 $227 $355 forward $135 $-1 #
coedge $-1 $225 $498 $494 $499 forward $135 $-1 #
coedge $-1 $496 $228 $225 $352 forward $357 $-1 #
edge $-1 $359 -2.273139621018003709 $500 18.01811404708395514 $351 $501 forward 7 unknown #
coedge $-1 $502 $503 $226 $354 forward $346 $-1 #
edge $-1 $504 -30.50919185488940144 $358 -25.84817994550818554 $353 $505 forward 7 unknown #
edge $-1 $359 -5.329186880536541437 $504 -2.225717299593412154e-14 $227 $506 forward 7 unknown #
coedge $-1 $228 $496 $502 $507 forward $357 $-1 #
loop $-1 $-1 $496 $345 #
vertex $-1 $354 $508 #
vertex $-1 $229 $509 #
straight-curve $-1 60.87362826784404035 -44.55580940891194075 16.1922054746619466 0 1 0 I I #
coedge $-1 $361 $361 $-1 $510 reversed $232 $-1 #
edge $-1 $511 0 $511 6.283185307179586232 $233 $512 forward 7 unknown #
vertex $-1 $236 $513 #
ellipse-curve $-1 46.37987564777121463 1.291820497233359788 13.86169951997133332 0 -0.8746197147644345637 0.484809606490402778 0.5 0 0 1 I I #
coedge $-1 $365 $365 $-1 $514 reversed $239 $-1 #
edge $-1 $515 0 $515 6.283185307179586232 $240 $516 forward 7 unknown #
vertex $-1 $243 $517 #
ellipse-curve $-1 55.07612721981491433 1.291820497233359788 13.86169951997133332 0 -0.8746197147644345637 0.484809606490402778 0.5 0 0 1 I I #
face $-1 $-1 $381 $39 $-1 $518 forward single #
loop $-1 $-1 $519 $244 #
plane-surface $-1 66.47297585985900525 0 8.096102737330973298 0 1 0 0 0 1 forward_v I I I I #
coedge $-1 $520 $521 $522 $523 reversed $245 $-1 #
coedge $-1 $524 $247 $249 $379 forward $149 $-1 #
coedge $-1 $247 $524 $520 $525 forward $149 $-1 #
coedge $-1 $522 $250 $247 $376 forward $381 $-1 #
edge $-1 $383 -22.52097974460903629 $526 -2.229726076507063226 $375 $527 forward 7 unknown #
coedge $-1 $528 $529 $248 $378 forward $370 $-1 #
edge $-1 $530 -30.50919185488940144 $382 -25.84817994550818554 $377 $531 forward 7 unknown #
edge $-1 $383 -5.329186880536541437 $530 -2.225717299593412154e-14 $249 $532 forward 7 unknown #
coedge $-1 $250 $522 $528 $533 forward $381 $-1 #
loop $-1 $-1 $522 $369 #
vertex $-1 $378 $534 #
vertex $-1 $251 $535 #
straight-curve $-1 101.3693085150260913 -44.55580940891194075 16.1922054746619466 0 1 0 I I #
coedge $-1 $385 $385 $-1 $536 reversed $254 $-1 #
edge $-1 $537 0 $537 6.283185307179586232 $255 $538 forward 7 unknown #
vertex $-1 $258 $539 #
ellipse-curve $-1 86.87555589495326558 1.291820497233359788 13.86169951997133332 0 -0.8746197147644345637 0.484809606490402778 0.5 0 0 1 I I #
coedge $-1 $389 $389 $-1 $540 reversed $261 $-1 #
edge $-1 $541 0 $541 6.283185307179586232 $262 $542 forward 7 unknown #
vertex $-1 $265 $543 #
ellipse-curve $-1 95.57180746699695817 1.291820497233359788 13.86169951997133332 0 -0.8746197147644345637 0.484809606490402778 0.5 0 0 1 I I #
face $-1 $-1 $281 $28 $-1 $544 reversed single #
loop $-1 $-1 $408 $266 #
plane-surface $-1 66.47297585985900525 54.33106310872438627 8.096102737330973298 0 -1 0 0 0 -1 forward_v I I I I #
coedge $-1 $406 $545 $269 $398 reversed $267 $-1 #
coedge $-1 $412 $269 $270 $400 reversed $163 $-1 #
edge $-1 $413 -8.096102737330973298 $546 8.096102737330973298 $396 $547 forward 7 unknown #
coedge $-1 $271 $270 $545 $548 forward $99 $-1 #
edge $-1 $404 -66.47297585985900525 $546 66.47297585985900525 $397 $549 forward 7 unknown #
coedge $-1 $409 $408 $271 $402 reversed $394 $-1 #
edge $-1 $550 -66.47297585985900525 $403 66.47297585985900525 $401 $551 forward 7 unknown #
vertex $-1 $273 $552 #
vertex $-1 $415 $553 #
straight-curve $-1 132.9459517197180105 27.16553155436219313 0 0 -1 0 I I #
coedge $-1 $554 $396 $274 $407 reversed $267 $-1 #
edge $-1 $410 -27.16553155436219313 $413 27.16553155436219313 $406 $555 forward 7 unknown #
coedge $-1 $401 $275 $280 $416 forward $394 $-1 #
coedge $-1 $275 $401 $554 $556 reversed $394 $-1 #
vertex $-1 $276 $557 #
straight-curve $-1 66.47297585985900525 54.33106310872438627 16.1922054746619466 -1 0 0 I I #
coedge $-1 $277 $397 $279 $415 reversed $163 $-1 #
vertex $-1 $407 $558 #
straight-curve $-1 66.47297585985900525 0 16.1922054746619466 1 0 0 I I #
edge $-1 $282 -8.096102737330973298 $404 8.096102737330973298 $279 $559 forward 7 unknown #
edge $-1 $283 -8.096102737330973298 $403 8.096102737330973298 $280 $560 forward 7 unknown #
point $-1 132.9459517197180105 0 16.1922054746619466 #
point $-1 132.9459517197180105 54.33106310872438627 16.1922054746619466 #
face $-1 $-1 $433 $29 $-1 $561 reversed single #
loop $-1 $-1 $429 $285 #
plane-surface $-1 66.47297585985900525 27.16553155436219313 0 0 0 1 1 0 0 forward_v I I I I #
coedge $-1 $562 $563 $423 $564 forward $286 $-1 #
coedge $-1 $289 $288 $422 $564 reversed $103 $-1 #
coedge $-1 $429 $565 $288 $425 forward $420 $-1 #
edge $-1 $566 -75.47870725490913912 $427 -66.47297585985900525 $288 $567 forward 7 unknown #
edge $-1 $296 -4.502865697525066935 $568 4.502865697525066935 $289 $569 forward 7 unknown #
vertex $-1 $290 $570 #
straight-curve $-1 0 54.33106310872438627 8.096102737330973298 0 0 -1 I I #
coedge $-1 $571 $424 $291 $430 forward $420 $-1 #
edge $-1 $427 -27.16553155436219313 $434 27.16553155436219313 $429 $572 forward 7 unknown #
coedge $-1 $573 $292 $295 $437 reversed $433 $-1 #
coedge $-1 $292 $573 $571 $574 reversed $433 $-1 #
loop $-1 $-1 $292 $419 #
vertex $-1 $574 $575 #
straight-curve $-1 0 0 8.096102737330973298 0 0 1 I I #
coedge $-1 $295 $294 $563 $576 forward $171 $-1 #
edge $-1 $577 -4.502865697525066935 $297 4.502865697525066935 $431 $578 forward 7 unknown #
point $-1 0 54.33106310872438627 3 #
point $-1 0 0 3 #
loop $-1 $-1 $307 $299 #
plane-surface $-1 66.47297585985900525 54.33106310872438627 8.096102737330973298 0 -1 0 0 0 -1 forward_v I I I I #
coedge $-1 $443 $302 $304 $447 reversed $179 $-1 #
coedge $-1 $302 $442 $579 $580 reversed $179 $-1 #
coedge $-1 $310 $305 $302 $445 forward $300 $-1 #
edge $-1 $448 -33.96933974040571513 $581 -31.38569874593897424 $444 $582 forward 7 unknown #
coedge $-1 $304 $303 $451 $583 reversed $107 $-1 #
edge $-1 $584 -54.33106310872438627 $448 -49.00187622818784661 $442 $585 forward 7 unknown #
vertex $-1 $306 $586 #
straight-curve $-1 58.60048864682603664 51.74742211425764538 16.19220547466195015 1 0 0 I I #
coedge $-1 $579 $307 $310 $455 reversed $440 $-1 #
coedge $-1 $307 $579 $446 $583 forward $440 $-1 #
vertex $-1 $308 $587 #
straight-curve $-1 40.5823745997420815 54.33106310872437916 65.79989487967063155 0 0 1 I I #
straight-curve $-1 40.5823745997420815 27.99084178277847812 59.05021248428172242 0 0.484809606490402778 -0.8746197147644345637 I I #
edge $-1 $581 5.599347592014964903 $311 25.89060126011692375 $450 $588 forward 7 unknown #
point $-1 40.5823745997420815 54.33106310872438627 16.1922054746619466 #
point $-1 40.5823745997420815 51.74742211425764538 16.1922054746619466 #
edge $-1 $589 1 $589 0 $314 $-1 forward 7 unknown #
vertex $-1 $315 $590 #
ellipse-curve $-1 46.37987564777121463 52.16462289672658414 13.37688991348092671 0 0.8746197147644345637 0.484809606490402778 0.5 0 0 1 I I #
point $-1 46.87987564777121463 53.03924261149101937 13.86169951997132976 #
edge $-1 $591 1 $591 0 $318 $-1 forward 7 unknown #
vertex $-1 $319 $592 #
ellipse-curve $-1 55.07612721981491433 52.16462289672658414 13.37688991348092671 0 0.8746197147644345637 0.484809606490402778 0.5 0 0 1 I I #
point $-1 55.57612721981491433 53.03924261149101937 13.86169951997132976 #
loop $-1 $-1 $330 $322 #
plane-surface $-1 66.47297585985900525 54.33106310872438627 8.096102737330973298 0 -1 0 0 0 -1 forward_v I I I I #
coedge $-1 $469 $325 $327 $473 reversed $201 $-1 #
coedge $-1 $325 $468 $593 $594 reversed $201 $-1 #
coedge $-1 $333 $328 $325 $471 forward $323 $-1 #
edge $-1 $474 -33.96933974040571513 $595 -31.38569874593897424 $470 $596 forward 7 unknown #
coedge $-1 $327 $326 $477 $597 reversed $121 $-1 #
edge $-1 $598 -54.33106310872438627 $474 -49.00187622818784661 $468 $599 forward 7 unknown #
vertex $-1 $329 $600 #
straight-curve $-1 78.84832877041705501 51.74742211425764538 16.19220547466195015 1 0 0 I I #
coedge $-1 $593 $330 $333 $481 reversed $466 $-1 #
coedge $-1 $330 $593 $472 $597 forward $466 $-1 #
vertex $-1 $331 $601 #
straight-curve $-1 81.07805484692411824 54.33106310872437916 65.79989487967063155 0 0 1 I I #
straight-curve $-1 81.07805484692411824 27.99084178277847812 59.05021248428172242 0 0.484809606490402778 -0.8746197147644345637 I I #
edge $-1 $595 -34.89633265516708605 $334 -14.60507898706511298 $476 $602 forward 7 unknown #
point $-1 81.07805484692411824 54.33106310872438627 16.1922054746619466 #
point $-1 81.07805484692411824 51.74742211425764538 16.1922054746619466 #
edge $-1 $603 1 $603 0 $337 $-1 forward 7 unknown #
vertex $-1 $338 $604 #
ellipse-curve $-1 86.87555589495326558 52.16462289672658414 13.37688991348092671 0 0.8746197147644345637 0.484809606490402778 0.5 0 0 1 I I #
point $-1 87.37555589495326558 53.03924261149101937 13.86169951997132976 #
edge $-1 $605 1 $605 0 $341 $-1 forward 7 unknown #
vertex $-1 $342 $606 #
ellipse-curve $-1 95.57180746699695817 52.16462289672658414 13.37688991348092671 0 0.8746197147644345637 0.484809606490402778 0.5 0 0 1 I I #
point $-1 96.07180746699695817 53.03924261149101937 13.86169951997132976 #
plane-surface $-1 66.47297585985900525 27.16553155436219313 16.1922054746619466 0 0 1 1 0 0 forward_v I I I I #
coedge $-1 $503 $502 $495 $607 forward $346 $-1 #
coedge $-1 $495 $348 $350 $499 reversed $223 $-1 #
coedge $-1 $348 $494 $493 $607 reversed $223 $-1 #
coedge $-1 $356 $351 $348 $497 forward $357 $-1 #
edge $-1 $500 -47.13945040337866743 $608 -44.55580940891194075 $496 $609 forward 7 unknown #
coedge $-1 $350 $349 $503 $610 reversed $135 $-1 #
edge $-1 $611 2.225717299593412154e-14 $500 5.329186880536541437 $494 $612 forward 7 unknown #
vertex $-1 $352 $613 #
straight-curve $-1 58.60048864682603664 2.583640994466726681 16.1922054746619466 -1 0 0 I I #
coedge $-1 $493 $353 $356 $507 reversed $346 $-1 #
coedge $-1 $353 $493 $498 $610 forward $346 $-1 #
vertex $-1 $354 $614 #
straight-curve $-1 60.87362826784404035 3.552713678800500929e-15 42.04038542017013214 0 0 1 I I #
straight-curve $-1 60.87362826784404035 -1.065814103640150279e-14 11.53119356528070938 0 -0.484809606490402778 -0.8746197147644345637 I I #
edge $-1 $608 -25.89060126011692375 $358 -5.599347592014964903 $502 $615 forward 7 unknown #
point $-1 60.87362826784404035 0 16.1922054746619466 #
point $-1 60.87362826784404035 2.583640994466726681 16.1922054746619466 #
edge $-1 $616 1 $616 0 $361 $-1 forward 7 unknown #
vertex $-1 $362 $617 #
ellipse-curve $-1 46.37987564777121463 2.166440211997798571 13.37688991348092848 0 -0.8746197147644345637 0.484809606490402778 0.5 0 0 1 I I #
point $-1 46.87987564777121463 1.291820497233363341 13.86169951997133154 #
edge $-1 $618 1 $618 0 $365 $-1 forward 7 unknown #
vertex $-1 $366 $619 #
ellipse-curve $-1 55.07612721981491433 2.166440211997798571 13.37688991348092848 0 -0.8746197147644345637 0.484809606490402778 0.5 0 0 1 I I #
point $-1 55.57612721981491433 1.291820497233363341 13.86169951997133154 #
plane-surface $-1 66.47297585985900525 27.16553155436219313 16.1922054746619466 0 0 1 1 0 0 forward_v I I I I #
coedge $-1 $529 $528 $521 $620 forward $370 $-1 #
coedge $-1 $521 $372 $374 $525 reversed $245 $-1 #
coedge $-1 $372 $520 $519 $620 reversed $245 $-1 #
coedge $-1 $380 $375 $372 $523 forward $381 $-1 #
edge $-1 $526 -47.13945040337866743 $621 -44.55580940891194075 $522 $622 forward 7 unknown #
coedge $-1 $374 $373 $529 $623 reversed $149 $-1 #
edge $-1 $624 2.225717299593412154e-14 $526 5.329186880536541437 $520 $625 forward 7 unknown #
vertex $-1 $376 $626 #
straight-curve $-1 78.84832877041705501 2.583640994466726681 16.1922054746619466 -1 0 0 I I #
coedge $-1 $519 $377 $380 $533 reversed $370 $-1 #
coedge $-1 $377 $519 $524 $623 forward $370 $-1 #
vertex $-1 $378 $627 #
straight-curve $-1 101.3693085150260913 3.552713678800500929e-15 42.04038542017013214 0 0 1 I I #
straight-curve $-1 101.3693085150260913 -1.065814103640150279e-14 11.53119356528070938 0 -0.484809606490402778 -0.8746197147644345637 I I #
edge $-1 $621 14.60507898706511298 $382 34.89633265516708605 $528 $628 forward 7 unknown #
point $-1 101.3693085150260913 0 16.1922054746619466 #
point $-1 101.3693085150260913 2.583640994466726681 16.1922054746619466 #
edge $-1 $629 1 $629 0 $385 $-1 forward 7 unknown #
vertex $-1 $386 $630 #
ellipse-curve $-1 86.87555589495326558 2.166440211997798571 13.37688991348092848 0 -0.8746197147644345637 0.484809606490402778 0.5 0 0 1 I I #
point $-1 87.37555589495326558 1.291820497233363341 13.86169951997133154 #
edge $-1 $631 1 $631 0 $389 $-1 forward 7 unknown #
vertex $-1 $390 $632 #
ellipse-curve $-1 95.57180746699695817 2.166440211997798571 13.37688991348092848 0 -0.8746197147644345637 0.484809606490402778 0.5 0 0 1 I I #
point $-1 96.07180746699695817 1.291820497233363341 13.86169951997133154 #
plane-surface $-1 132.9459517197180105 27.16553155436219313 8.096102737330973298 -1 0 0 0 0 1 forward_v I I I I #
coedge $-1 $396 $554 $399 $548 reversed $267 $-1 #
vertex $-1 $548 $633 #
straight-curve $-1 0 0 8.096102737330973298 0 0 -1 I I #
edge $-1 $546 -27.16553155436219313 $550 27.16553155436219313 $545 $634 forward 7 unknown #
straight-curve $-1 66.47297585985900525 0 0 -1 0 0 I I #
vertex $-1 $402 $635 #
straight-curve $-1 66.47297585985900525 54.33106310872438627 0 1 0 0 I I #
point $-1 132.9459517197180105 54.33106310872438627 0 #
point $-1 132.9459517197180105 0 0 #
coedge $-1 $545 $406 $409 $556 forward $267 $-1 #
straight-curve $-1 0 27.16553155436219313 16.1922054746619466 0 -1 0 I I #
edge $-1 $410 -8.096102737330973298 $550 8.096102737330973298 $409 $636 forward 7 unknown #
point $-1 0 54.33106310872438627 16.1922054746619466 #
point $-1 0 0 16.1922054746619466 #
straight-curve $-1 132.9459517197180105 0 8.096102737330973298 0 0 -1 I I #
straight-curve $-1 132.9459517197180105 54.33106310872438627 8.096102737330973298 0 0 -1 I I #
plane-surface $-1 66.47297585985900525 0 8.096102737330973298 0 1 0 0 0 1 forward_v I I I I #
coedge $-1 $637 $422 $565 $638 reversed $286 $-1 #
coedge $-1 $422 $637 $436 $576 reversed $286 $-1 #
edge $-1 $568 -1.5 $566 1.5 $423 $639 forward 7 unknown #
coedge $-1 $424 $571 $562 $638 forward $420 $-1 #
vertex $-1 $425 $640 #
straight-curve $-1 66.47297585985900525 54.33106310872438627 0 1 0 0 I I #
vertex $-1 $426 $641 #
straight-curve $-1 -4.502865697525066935 54.33106310872438627 3 -1 0 0 I I #
point $-1 0 54.33106310872438627 0 #
coedge $-1 $565 $429 $432 $574 forward $420 $-1 #
straight-curve $-1 0 27.16553155436219313 0 0 -1 0 I I #
coedge $-1 $432 $431 $637 $642 forward $433 $-1 #
edge $-1 $434 -4.502865697525066935 $643 4.502865697525066935 $432 $644 forward 7 unknown #
point $-1 0 0 0 #
edge $-1 $568 -27.16553155436219313 $577 27.16553155436219313 $563 $645 forward 7 unknown #
vertex $-1 $576 $646 #
straight-curve $-1 -4.502865697525066935 0 3 1 0 0 I I #
coedge $-1 $451 $450 $443 $580 forward $440 $-1 #
edge $-1 $581 49.60768940500868496 $584 54.26870131438992217 $579 $647 forward 7 unknown #
vertex $-1 $455 $648 #
straight-curve $-1 60.87362826784404035 85.71676185466336051 16.1922054746619466 0 1 0 I I #
edge $-1 $584 -2.273139621018003709 $452 18.01811404708395514 $451 $649 forward 7 unknown #
vertex $-1 $583 $650 #
straight-curve $-1 60.87362826784404035 27.99084178277847812 59.05021248428172242 0 -0.484809606490402778 0.8746197147644345637 I I #
point $-1 60.87362826784404035 51.74742211425764538 16.1922054746619466 #
point $-1 40.5823745997420815 54.33106310872438627 11.53119356528070938 #
straight-curve $-1 66.47297585985900525 54.33106310872438627 16.1922054746619466 -1 0 0 I I #
vertex $-1 $458 $651 #
point $-1 46.87987564777121463 52.16462289672658414 13.37688991348092671 #
vertex $-1 $462 $652 #
point $-1 55.57612721981491433 52.16462289672658414 13.37688991348092671 #
coedge $-1 $477 $476 $469 $594 forward $466 $-1 #
edge $-1 $595 49.60768940500868496 $598 54.26870131438992217 $593 $653 forward 7 unknown #
vertex $-1 $481 $654 #
straight-curve $-1 101.3693085150260913 85.71676185466336051 16.1922054746619466 0 1 0 I I #
edge $-1 $598 -22.52097974460903629 $478 -2.229726076507063226 $477 $655 forward 7 unknown #
vertex $-1 $597 $656 #
straight-curve $-1 101.3693085150260913 27.99084178277847812 59.05021248428172242 0 -0.484809606490402778 0.8746197147644345637 I I #
point $-1 101.3693085150260913 51.74742211425764538 16.1922054746619466 #
point $-1 81.07805484692411824 54.33106310872438627 11.53119356528070938 #
straight-curve $-1 66.47297585985900525 54.33106310872438627 16.1922054746619466 -1 0 0 I I #
vertex $-1 $484 $657 #
point $-1 87.37555589495326558 52.16462289672658414 13.37688991348092671 #
vertex $-1 $488 $658 #
point $-1 96.07180746699695817 52.16462289672658414 13.37688991348092671 #
edge $-1 $608 25.84817994550818554 $611 30.50919185488940144 $493 $659 forward 7 unknown #
vertex $-1 $507 $660 #
straight-curve $-1 40.5823745997420815 -44.55580940891194075 16.1922054746619466 0 -1 0 I I #
edge $-1 $611 -18.01811404708395514 $504 2.273139621018003709 $503 $661 forward 7 unknown #
vertex $-1 $610 $662 #
straight-curve $-1 40.5823745997420815 -1.065814103640150279e-14 11.53119356528070938 0 0.484809606490402778 0.8746197147644345637 I I #
point $-1 40.5823745997420815 2.583640994466726681 16.1922054746619466 #
point $-1 60.87362826784404035 0 11.53119356528072892 #
straight-curve $-1 66.47297585985900525 0 16.1922054746619466 1 0 0 I I #
vertex $-1 $510 $663 #
point $-1 46.87987564777121463 2.166440211997798571 13.37688991348092848 #
vertex $-1 $514 $664 #
point $-1 55.57612721981491433 2.166440211997798571 13.37688991348092848 #
edge $-1 $621 25.84817994550818554 $624 30.50919185488940144 $519 $665 forward 7 unknown #
vertex $-1 $533 $666 #
straight-curve $-1 81.07805484692411824 -44.55580940891194075 16.1922054746619466 0 -1 0 I I #
edge $-1 $624 2.229726076507063226 $530 22.52097974460903629 $529 $667 forward 7 unknown #
vertex $-1 $623 $668 #
straight-curve $-1 81.07805484692411824 -1.065814103640150279e-14 11.53119356528070938 0 0.484809606490402778 0.8746197147644345637 I I #
point $-1 81.07805484692411824 2.583640994466726681 16.1922054746619466 #
point $-1 101.3693085150260913 0 11.53119356528072892 #
straight-curve $-1 66.47297585985900525 0 16.1922054746619466 1 0 0 I I #
vertex $-1 $536 $669 #
point $-1 87.37555589495326558 2.166440211997798571 13.37688991348092848 #
vertex $-1 $540 $670 #
point $-1 96.07180746699695817 2.166440211997798571 13.37688991348092848 #
point $-1 0 0 0 #
straight-curve $-1 0 27.16553155436219313 0 0 1 0 I I #
point $-1 0 54.33106310872438627 0 #
straight-curve $-1 0 54.33106310872438627 8.096102737330973298 0 0 -1 I I #
coedge $-1 $563 $562 $573 $642 reversed $286 $-1 #
edge $-1 $643 -27.16553155436219313 $566 27.16553155436219313 $562 $671 forward 7 unknown #
straight-curve $-1 -9.00573139505013387 54.33106310872438627 1.5 0 0 -1 I I #
point $-1 -9.00573139505013387 54.33106310872438627 0 #
point $-1 -9.00573139505013387 54.33106310872438627 3 #
edge $-1 $577 -1.5 $643 1.5 $637 $672 forward 7 unknown #
vertex $-1 $638 $673 #
straight-curve $-1 -4.502865697525066935 0 0 -1 0 0 I I #
straight-curve $-1 -9.00573139505013387 27.16553155436219313 3 0 -1 0 I I #
point $-1 -9.00573139505013387 0 3 #
straight-curve $-1 60.87362826784404035 54.33106310872437916 65.79989487967063155 0 0 -1 I I #
point $-1 60.87362826784404035 54.33106310872438627 16.1922054746619466 #
straight-curve $-1 58.60048864682603664 54.33106310872437916 11.53119356528070938 -1 0 0 I I #
point $-1 60.87362826784404035 54.33106310872438627 11.53119356528070938 #
point $-1 46.37987564777121463 51.72731303934436653 13.13448511023572607 #
point $-1 55.07612721981491433 51.72731303934436653 13.13448511023572607 #
straight-curve $-1 101.3693085150260913 54.33106310872437916 65.79989487967063155 0 0 -1 I I #
point $-1 101.3693085150260913 54.33106310872438627 16.1922054746619466 #
straight-curve $-1 78.84832877041705501 54.33106310872437916 11.53119356528070938 -1 0 0 I I #
point $-1 101.3693085150260913 54.33106310872438627 11.53119356528070938 #
point $-1 86.87555589495326558 51.72731303934436653 13.13448511023572607 #
point $-1 95.57180746699695817 51.72731303934436653 13.13448511023572607 #
straight-curve $-1 40.5823745997420815 3.552713678800500929e-15 42.04038542017013214 0 0 -1 I I #
point $-1 40.5823745997420815 0 16.1922054746619466 #
straight-curve $-1 58.60048864682603664 0 11.53119356528072359 1 0 0 I I #
point $-1 40.5823745997420815 0 11.53119356528072892 #
point $-1 46.37987564777121463 2.603750069380016186 13.13448511023572784 #
point $-1 55.07612721981491433 2.603750069380016186 13.13448511023572784 #
straight-curve $-1 81.07805484692411824 3.552713678800500929e-15 42.04038542017013214 0 0 -1 I I #
point $-1 81.07805484692411824 0 16.1922054746619466 #
straight-curve $-1 78.84832877041705501 0 11.53119356528072359 1 0 0 I I #
point $-1 81.07805484692411824 0 11.53119356528072892 #
point $-1 86.87555589495326558 2.603750069380016186 13.13448511023572784 #
point $-1 95.57180746699695817 2.603750069380016186 13.13448511023572784 #
straight-curve $-1 -9.00573139505013387 27.16553155436219313 0 0 1 0 I I #
straight-curve $-1 -9.00573139505013387 0 1.5 0 0 -1 I I #
point $-1 -9.00573139505013387 0 0 #
End-of-ACIS-data 