300 0 5 0           
7 Unknown 11 ACIS 3.0 NT 24 Fri Oct 30 19:16:40 1998 
-1 9.9999999999999995e-007 1e-010 
body $5 $6 $-1 $7 #
body $8 $9 $-1 $10 #
body $11 $12 $-1 $13 #
body $14 $15 $-1 $16 #
body $17 $18 $-1 $19 #
display_attribute-st-attrib $-1 $20 $-1 $0 1 #
lump $-1 $-1 $21 $0 #
transform $-1 1 0 0 0 1 0 0 0 1 78.641315958128601 38.259131014487735 16.275455584095155 1 rotate no_reflect no_shear #
display_attribute-st-attrib $-1 $22 $-1 $1 3 #
lump $-1 $-1 $23 $1 #
transform $-1 1 0 0 0 1 0 0 0 1 78.641315958128601 38.259131014487735 16.275455584095155 1 rotate no_reflect no_shear #
display_attribute-st-attrib $-1 $24 $-1 $2 3 #
lump $-1 $-1 $25 $2 #
transform $-1 1 0 0 0 1 0 0 0 1 78.641315958128601 38.259131014487735 16.275455584095155 1 rotate no_reflect no_shear #
display_attribute-st-attrib $-1 $26 $-1 $3 3 #
lump $-1 $-1 $27 $3 #
transform $-1 1 0 0 0 1 0 0 0 1 78.641315958128601 38.259131014487735 16.275455584095155 1 rotate no_reflect no_shear #
display_attribute-st-attrib $-1 $28 $-1 $4 3 #
lump $-1 $-1 $29 $4 #
transform $-1 1 0 0 0 1 0 0 0 1 78.641315958128601 38.259131014487735 16.275455584095155 1 rotate no_reflect no_shear #
id_attribute-st-attrib $-1 $-1 $5 $0 3533 #
shell $-1 $-1 $-1 $30 $-1 $6 #
id_attribute-st-attrib $-1 $-1 $8 $1 3538 #
shell $-1 $-1 $-1 $31 $-1 $9 #
id_attribute-st-attrib $-1 $-1 $11 $2 3550 #
shell $-1 $-1 $-1 $32 $-1 $12 #
id_attribute-st-attrib $-1 $-1 $14 $3 3558 #
shell $-1 $-1 $-1 $33 $-1 $15 #
id_attribute-st-attrib $-1 $-1 $17 $4 3567 #
shell $-1 $-1 $-1 $34 $-1 $18 #
face $-1 $35 $36 $21 $-1 $37 forward single #
face $-1 $38 $39 $23 $-1 $40 forward single #
face $-1 $41 $42 $25 $-1 $43 reversed single #
face $-1 $44 $45 $27 $-1 $46 forward single #
face $-1 $47 $48 $29 $-1 $49 forward single #
face $-1 $50 $51 $21 $-1 $52 reversed single #
loop $-1 $-1 $53 $30 #
plane-surface $-1 0 0 16.275455584095155 0 0 1 1 0 0 forward_v I I I I #
face $-1 $54 $55 $23 $-1 $56 reversed single #
loop $-1 $-1 $57 $31 #
plane-surface $-1 -68.605811533403894 0 -10.695027956537309 0 0 1 1 0 0 forward_v I I I I #
face $-1 $58 $59 $25 $-1 $60 reversed single #
loop $-1 $-1 $61 $32 #
plane-surface $-1 25.864388004699506 -163.87062726999125 95.649685223924365 1 0 0 0 0.79863551827123203 -0.60181501223851219 forward_v I I I I #
face $-1 $62 $63 $27 $-1 $64 forward single #
loop $-1 $65 $66 $33 #
cone-surface $-1 35.542165715071022 -30.683248544966546 7.2647674418138672 0 0.79863551827123203 -0.60181501223851219 2.5 0 0 1 I I 0 1 forward I I I I #
face $-1 $67 $68 $29 $-1 $69 forward single #
loop $-1 $70 $71 $34 #
cone-surface $-1 50.058832280628295 -30.683248544966546 7.2647674418138672 0 0.79863551827123203 -0.60181501223851219 2.5 0 0 1 I I 0 1 forward I I I I #
face $-1 $72 $73 $21 $-1 $74 reversed single #
loop $-1 $-1 $75 $35 #
plane-surface $-1 0 0 -16.275455584095155 0 0 1 1 0 0 forward_v I I I I #
coedge $-1 $76 $77 $78 $79 forward $36 $-1 #
face $-1 $80 $81 $23 $-1 $82 reversed single #
loop $-1 $-1 $83 $38 #
plane-surface $-1 -68.605811533403894 0 -14.505432630991109 0 0 1 1 0 0 forward_v I I I I #
coedge $-1 $84 $85 $86 $87 forward $39 $-1 #
face $-1 $88 $89 $25 $-1 $90 reversed single #
loop $-1 $-1 $91 $41 #
plane-surface $-1 42.800498997849644 -38.25913101448775 0.9946361723366266 0 -0.79863551827123203 0.60181501223851219 1 0 0 forward_v I I I I #
coedge $-1 $92 $93 $94 $95 reversed $42 $-1 #
face $-1 $-1 $96 $27 $-1 $97 forward single #
loop $-1 $98 $99 $44 #
cone-surface $-1 35.542165715071022 -27.866533192221016 5.142220240113712 0 0.79863551827123203 -0.60181501223851219 1.25 0 0 1 I I -0.70710678118654746 0.70710678118654746 forward I I I I #
loop $-1 $-1 $100 $33 #
coedge $-1 $66 $66 $101 $102 reversed $45 $-1 #
face $-1 $-1 $103 $29 $-1 $104 forward single #
loop $-1 $105 $106 $47 #
cone-surface $-1 50.058832280628295 -27.866533192221016 5.142220240113712 0 0.79863551827123203 -0.60181501223851219 1.25 0 0 1 I I -0.70710678118654746 0.70710678118654746 forward I I I I #
loop $-1 $-1 $107 $34 #
coedge $-1 $71 $71 $108 $109 reversed $48 $-1 #
face $-1 $110 $111 $21 $-1 $112 reversed single #
loop $-1 $-1 $113 $50 #
plane-surface $-1 0 -38.259131014487735 0 0 1 0 0 0 1 forward_v I I I I #
coedge $-1 $114 $115 $116 $117 forward $51 $-1 #
coedge $-1 $118 $53 $119 $120 forward $36 $-1 #
coedge $-1 $53 $118 $121 $122 forward $36 $-1 #
coedge $-1 $123 $124 $53 $79 reversed $125 $-1 #
edge $-1 $126 $127 $78 $128 forward #
face $-1 $129 $130 $23 $-1 $131 reversed single #
loop $-1 $-1 $132 $54 #
plane-surface $-1 -58.570307108679188 0 -12.600230293764209 -1 0 0 0 0 1 forward_v I I I I #
coedge $-1 $133 $134 $135 $136 forward $55 $-1 #
coedge $-1 $137 $57 $138 $139 reversed $39 $-1 #
coedge $-1 $57 $137 $140 $141 reversed $39 $-1 #
coedge $-1 $132 $142 $57 $87 reversed $81 $-1 #
edge $-1 $143 $144 $86 $145 forward #
face $-1 $146 $147 $25 $-1 $148 forward single #
loop $-1 $-1 $149 $58 #
plane-surface $-1 59.736609990999781 -163.87062726999125 95.649685223924365 -1 0 0 0 -0.79863551827123203 0.60181501223851219 forward_v I I I I #
coedge $-1 $150 $151 $152 $153 reversed $59 $-1 #
coedge $-1 $93 $61 $154 $155 reversed $42 $-1 #
coedge $-1 $61 $92 $150 $156 reversed $42 $-1 #
coedge $-1 $152 $157 $61 $95 forward $158 $-1 #
edge $-1 $159 $160 $94 $161 forward #
loop $-1 $-1 $101 $62 #
plane-surface $-1 42.800498997849644 -38.25913101448775 0.9946361723366266 0 -0.79863551827123203 0.60181501223851219 1 0 0 forward_v I I I I #
loop $-1 $-1 $162 $44 #
coedge $-1 $99 $99 $100 $163 reversed $63 $-1 #
coedge $-1 $100 $100 $99 $163 forward $65 $-1 #
coedge $-1 $101 $101 $66 $102 forward $96 $-1 #
edge $-1 $164 $164 $101 $165 forward #
loop $-1 $-1 $108 $67 #
plane-surface $-1 42.800498997849644 -38.25913101448775 0.9946361723366266 0 -0.79863551827123203 0.60181501223851219 1 0 0 forward_v I I I I #
loop $-1 $-1 $166 $47 #
coedge $-1 $106 $106 $107 $167 reversed $68 $-1 #
coedge $-1 $107 $107 $106 $167 forward $70 $-1 #
coedge $-1 $108 $108 $71 $109 forward $103 $-1 #
edge $-1 $168 $168 $108 $169 forward #
face $-1 $170 $171 $21 $-1 $172 reversed single #
loop $-1 $-1 $173 $72 #
plane-surface $-1 -78.641315958128601 0 0 1 0 0 0 0 -1 forward_v I I I I #
coedge $-1 $174 $121 $175 $176 forward $73 $-1 #
coedge $-1 $177 $75 $174 $178 forward $51 $-1 #
coedge $-1 $75 $177 $179 $180 forward $51 $-1 #
coedge $-1 $124 $123 $75 $117 reversed $125 $-1 #
edge $-1 $181 $182 $116 $183 forward #
coedge $-1 $77 $76 $184 $185 forward $36 $-1 #
coedge $-1 $186 $187 $76 $120 reversed $171 $-1 #
edge $-1 $127 $188 $119 $189 forward #
coedge $-1 $113 $190 $77 $122 reversed $73 $-1 #
edge $-1 $191 $126 $121 $192 forward #
coedge $-1 $116 $78 $190 $193 forward $125 $-1 #
coedge $-1 $78 $116 $186 $194 reversed $125 $-1 #
loop $-1 $-1 $123 $170 #
vertex $-1 $79 $195 #
vertex $-1 $79 $196 #
straight-curve $-1 78.641315958128601 0 16.275455584095155 0 1 0 I I #
face $-1 $197 $198 $23 $-1 $199 reversed single #
loop $-1 $-1 $200 $80 #
plane-surface $-1 0 -38.259131014487735 0 0 1 0 0 0 1 forward_v I I I I #
coedge $-1 $135 $86 $201 $202 reversed $81 $-1 #
coedge $-1 $203 $83 $200 $204 reversed $55 $-1 #
coedge $-1 $83 $203 $205 $206 reversed $55 $-1 #
coedge $-1 $142 $132 $83 $136 reversed $81 $-1 #
edge $-1 $207 $208 $135 $209 forward #
coedge $-1 $85 $84 $210 $211 reversed $39 $-1 #
coedge $-1 $212 $213 $84 $139 forward $214 $-1 #
edge $-1 $215 $144 $138 $216 forward #
coedge $-1 $217 $201 $85 $141 forward $130 $-1 #
edge $-1 $143 $218 $140 $219 forward #
coedge $-1 $86 $135 $212 $220 reversed $81 $-1 #
vertex $-1 $141 $221 #
vertex $-1 $139 $222 #
straight-curve $-1 -58.570307108679188 0 -10.695027956537309 0 1 0 I I #
face $-1 $-1 $158 $25 $-1 $223 reversed single #
loop $-1 $-1 $224 $88 #
plane-surface $-1 0 0 16.275455584095155 0 0 1 1 0 0 forward_v I I I I #
coedge $-1 $225 $226 $227 $228 reversed $89 $-1 #
coedge $-1 $229 $91 $93 $156 forward $59 $-1 #
coedge $-1 $91 $229 $225 $230 forward $59 $-1 #
coedge $-1 $227 $94 $91 $153 forward $158 $-1 #
edge $-1 $160 $231 $152 $232 forward #
coedge $-1 $233 $234 $92 $155 forward $147 $-1 #
edge $-1 $235 $159 $154 $236 forward #
edge $-1 $160 $235 $93 $237 forward #
coedge $-1 $94 $227 $233 $238 reversed $158 $-1 #
loop $-1 $-1 $227 $146 #
vertex $-1 $238 $239 #
vertex $-1 $95 $240 #
straight-curve $-1 25.864388004699506 -38.259131014487735 47.824842611962183 0 0 -1 I I #
coedge $-1 $162 $162 $-1 $241 reversed $98 $-1 #
edge $-1 $242 $242 $99 $243 forward #
vertex $-1 $102 $244 #
ellipse-curve $-1 35.542165715071022 -32.501669499873053 8.6350458782158963 0 -0.79863551827123203 0.60181501223851219 2.5 0 0 1 I I #
coedge $-1 $166 $166 $-1 $245 reversed $105 $-1 #
edge $-1 $246 $246 $106 $247 forward #
vertex $-1 $109 $248 #
ellipse-curve $-1 50.058832280628295 -32.501669499873053 8.6350458782158963 0 -0.79863551827123203 0.60181501223851219 2.5 0 0 1 I I #
face $-1 $-1 $125 $21 $-1 $249 reversed single #
loop $-1 $-1 $186 $110 #
plane-surface $-1 0 38.259131014487735 0 0 -1 0 0 0 -1 forward_v I I I I #
coedge $-1 $250 $184 $187 $251 forward $111 $-1 #
coedge $-1 $190 $113 $114 $178 reversed $73 $-1 #
coedge $-1 $184 $250 $113 $176 reversed $111 $-1 #
edge $-1 $191 $252 $175 $253 forward #
coedge $-1 $115 $114 $250 $254 forward $51 $-1 #
edge $-1 $182 $252 $174 $255 forward #
coedge $-1 $187 $186 $115 $180 reversed $171 $-1 #
edge $-1 $256 $181 $179 $257 forward #
vertex $-1 $117 $258 #
vertex $-1 $193 $259 #
straight-curve $-1 78.641315958128601 0 -16.275455584095155 0 -1 0 I I #
coedge $-1 $173 $175 $118 $185 reversed $111 $-1 #
edge $-1 $188 $191 $184 $260 forward #
coedge $-1 $179 $119 $124 $194 forward $171 $-1 #
coedge $-1 $119 $179 $173 $251 reversed $171 $-1 #
vertex $-1 $120 $261 #
straight-curve $-1 0 38.259131014487735 16.275455584095155 -1 0 0 I I #
coedge $-1 $121 $174 $123 $193 reversed $73 $-1 #
vertex $-1 $185 $262 #
straight-curve $-1 0 -38.259131014487735 16.275455584095155 1 0 0 I I #
edge $-1 $126 $182 $123 $263 forward #
edge $-1 $127 $181 $124 $264 forward #
point $-1 78.641315958128601 -38.259131014487735 16.275455584095155 #
point $-1 78.641315958128601 38.259131014487735 16.275455584095155 #
face $-1 $-1 $214 $23 $-1 $265 reversed single #
loop $-1 $-1 $266 $129 #
plane-surface $-1 -78.641315958128601 0 0 1 0 0 0 0 -1 forward_v I I I I #
coedge $-1 $201 $217 $133 $204 forward $130 $-1 #
coedge $-1 $140 $200 $132 $202 forward $130 $-1 #
edge $-1 $208 $143 $201 $267 forward #
coedge $-1 $134 $133 $266 $268 reversed $55 $-1 #
edge $-1 $269 $208 $200 $270 forward #
coedge $-1 $213 $212 $134 $206 forward $214 $-1 #
edge $-1 $207 $271 $205 $272 forward #
vertex $-1 $206 $273 #
vertex $-1 $204 $274 #
straight-curve $-1 -58.570307108679188 0 -14.505432630991109 0 -1 0 I I #
coedge $-1 $275 $276 $137 $211 forward $198 $-1 #
edge $-1 $218 $215 $210 $277 forward #
coedge $-1 $205 $138 $142 $220 forward $214 $-1 #
coedge $-1 $138 $205 $275 $278 reversed $214 $-1 #
loop $-1 $-1 $205 $197 #
vertex $-1 $278 $279 #
straight-curve $-1 -34.302905766701947 38.259131014487735 -10.695027956537309 1 0 0 I I #
coedge $-1 $200 $140 $276 $280 forward $130 $-1 #
vertex $-1 $280 $281 #
straight-curve $-1 -34.302905766701947 -38.259131014487735 -10.695027956537309 -1 0 0 I I #
edge $-1 $144 $207 $212 $282 forward #
point $-1 -58.570307108679188 -38.259131014487735 -10.695027956537309 #
point $-1 -58.570307108679188 38.259131014487735 -10.695027956537309 #
plane-surface $-1 0 -38.259131014487735 0 0 1 0 0 0 1 forward_v I I I I #
coedge $-1 $234 $233 $226 $283 forward $147 $-1 #
coedge $-1 $226 $149 $151 $230 reversed $89 $-1 #
coedge $-1 $149 $225 $224 $283 reversed $89 $-1 #
coedge $-1 $157 $152 $149 $228 forward $158 $-1 #
edge $-1 $231 $284 $227 $285 forward #
coedge $-1 $151 $150 $234 $286 reversed $59 $-1 #
edge $-1 $287 $231 $225 $288 forward #
vertex $-1 $153 $289 #
straight-curve $-1 21.400249498924822 -38.259131014487735 0.99463617233664237 1 0 0 I I #
coedge $-1 $224 $154 $157 $238 forward $147 $-1 #
coedge $-1 $154 $224 $229 $286 forward $147 $-1 #
vertex $-1 $155 $290 #
straight-curve $-1 25.864388004699506 -81.935313634995623 16.275455584095155 0 -1 0 I I #
straight-curve $-1 25.864388004699506 -38.25913101448775 0.9946361723366266 0 0.60181501223851219 0.79863551827123203 I I #
edge $-1 $159 $284 $157 $291 forward #
point $-1 25.864388004699506 -38.259131014487735 16.275455584095155 #
point $-1 25.864388004699506 -38.259131014487735 0.99463617233664547 #
edge $-1 $292 $292 $162 $-1 forward #
vertex $-1 $163 $293 #
ellipse-curve $-1 35.542165715071022 -28.864827590060056 5.8944890054118524 0 -0.79863551827123203 0.60181501223851219 2.5 0 0 1 I I #
point $-1 38.042165715071022 -32.501669499873039 8.6350458782158803 #
edge $-1 $294 $294 $166 $-1 forward #
vertex $-1 $167 $295 #
ellipse-curve $-1 50.058832280628295 -28.864827590060056 5.8944890054118524 0 -0.79863551827123203 0.60181501223851219 2.5 0 0 1 I I #
point $-1 52.558832280628295 -32.501669499873039 8.6350458782158803 #
plane-surface $-1 78.641315958128601 0 0 -1 0 0 0 0 1 forward_v I I I I #
coedge $-1 $175 $173 $177 $254 reversed $111 $-1 #
edge $-1 $188 $256 $187 $296 forward #
vertex $-1 $254 $297 #
straight-curve $-1 -78.641315958128601 -38.259131014487735 0 0 0 -1 I I #
edge $-1 $252 $256 $250 $298 forward #
straight-curve $-1 0 -38.259131014487735 -16.275455584095155 -1 0 0 I I #
vertex $-1 $180 $299 #
straight-curve $-1 0 38.259131014487735 -16.275455584095155 1 0 0 I I #
point $-1 78.641315958128601 38.259131014487735 -16.275455584095155 #
point $-1 78.641315958128601 -38.259131014487735 -16.275455584095155 #
straight-curve $-1 -78.641315958128601 0 16.275455584095155 0 -1 0 I I #
point $-1 -78.641315958128601 38.259131014487735 16.275455584095155 #
point $-1 -78.641315958128601 -38.259131014487735 16.275455584095155 #
straight-curve $-1 78.641315958128601 -38.259131014487735 0 0 0 -1 I I #
straight-curve $-1 78.641315958128601 38.259131014487735 0 0 0 -1 I I #
plane-surface $-1 0 38.259131014487735 0 0 -1 0 0 0 -1 forward_v I I I I #
coedge $-1 $276 $275 $203 $268 forward $198 $-1 #
straight-curve $-1 -58.570307108679188 -38.259131014487735 -6.3001151468821046 0 0 1 I I #
edge $-1 $271 $269 $266 $300 forward #
vertex $-1 $204 $301 #
straight-curve $-1 -34.302905766701947 -38.259131014487735 -14.505432630991109 1 0 0 I I #
vertex $-1 $206 $302 #
straight-curve $-1 -34.302905766701947 38.259131014487735 -14.505432630991109 -1 0 0 I I #
point $-1 -58.570307108679188 38.259131014487735 -14.505432630991109 #
point $-1 -58.570307108679188 -38.259131014487735 -14.505432630991109 #
coedge $-1 $266 $210 $213 $278 forward $198 $-1 #
coedge $-1 $210 $266 $217 $280 reversed $198 $-1 #
straight-curve $-1 -78.641315958128601 0 -10.695027956537309 0 1 0 I I #
edge $-1 $215 $271 $213 $303 forward #
point $-1 -78.641315958128601 38.259131014487735 -10.695027956537309 #
edge $-1 $218 $269 $276 $304 forward #
point $-1 -78.641315958128601 -38.259131014487735 -10.695027956537309 #
straight-curve $-1 -58.570307108679188 38.259131014487735 -6.3001151468821046 0 0 -1 I I #
edge $-1 $284 $287 $224 $305 forward #
vertex $-1 $283 $306 #
straight-curve $-1 59.736609990999781 -38.259131014487735 47.824842611962183 0 0 1 I I #
edge $-1 $287 $235 $234 $307 forward #
vertex $-1 $286 $308 #
straight-curve $-1 59.736609990999781 -38.25913101448775 0.9946361723366266 0 -0.60181501223851219 -0.79863551827123203 I I #
point $-1 59.736609990999781 -38.259131014487735 0.99463617233664547 #
point $-1 25.864388004699506 -26.744207985258363 16.275455584095155 #
straight-curve $-1 0 -38.259131014487735 16.275455584095155 1 0 0 I I #
vertex $-1 $241 $309 #
point $-1 38.042165715071022 -28.864827590060056 5.8944890054118524 #
vertex $-1 $245 $310 #
point $-1 52.558832280628295 -28.864827590060056 5.8944890054118524 #
straight-curve $-1 -78.641315958128601 38.259131014487735 0 0 0 -1 I I #
point $-1 -78.641315958128601 -38.259131014487735 -16.275455584095155 #
straight-curve $-1 -78.641315958128601 0 -16.275455584095155 0 1 0 I I #
point $-1 -78.641315958128601 38.259131014487735 -16.275455584095155 #
straight-curve $-1 -78.641315958128601 0 -14.505432630991109 0 -1 0 I I #
point $-1 -78.641315958128601 -38.259131014487735 -14.505432630991109 #
point $-1 -78.641315958128601 38.259131014487735 -14.505432630991109 #
straight-curve $-1 -78.641315958128601 38.259131014487735 0 0 0 -1 I I #
straight-curve $-1 -78.641315958128601 -38.259131014487735 0 0 0 -1 I I #
straight-curve $-1 59.736609990999781 -81.935313634995623 16.275455584095155 0 1 0 I I #
point $-1 59.736609990999781 -38.259131014487735 16.275455584095155 #
straight-curve $-1 21.400249498924822 -26.744207985258367 16.275455584095155 -1 0 0 I I #
point $-1 59.736609990999781 -26.744207985258363 16.275455584095155 #
point $-1 35.542165715071022 -26.868238794381977 4.3899514748155717 #
point $-1 50.058832280628295 -26.868238794381977 4.3899514748155717 #
End-of-ACIS-data 