300 0 11 0           
7 Unknown 11 ACIS 3.0 NT 24 Fri Oct 30 18:31:35 1998 
-1 9.9999999999999995e-007 1e-010 
body $11 $12 $-1 $13 #
body $14 $15 $-1 $16 #
body $17 $18 $-1 $19 #
body $20 $21 $-1 $22 #
body $23 $24 $-1 $25 #
body $26 $27 $-1 $28 #
body $29 $30 $-1 $31 #
body $32 $33 $-1 $34 #
body $35 $36 $-1 $37 #
body $38 $39 $-1 $40 #
body $41 $42 $-1 $43 #
display_attribute-st-attrib $-1 $44 $-1 $0 1 #
lump $-1 $-1 $45 $0 #
transform $-1 1 0 0 0 1 0 0 0 1 43.17758720664083 22.059481617182289 9.355032520651978 1 rotate no_reflect no_shear #
display_attribute-st-attrib $-1 $46 $-1 $1 1 #
lump $-1 $-1 $47 $1 #
transform $-1 0.57357642473473569 0 -0.81915205242281985 0 1 0 0.81915205242281985 0 0.57357642473473569 107.56190057393729 5.2604489316865104 131.55488275642546 1 rotate no_reflect no_shear #
display_attribute-st-attrib $-1 $48 $-1 $2 1 #
lump $-1 $-1 $49 $2 #
transform $-1 0.57357642473473569 0 -0.81915205242281985 0 -1 0 -0.81915205242281985 0 -0.57357642473473569 80.237098887841455 5.2604489316865104 12.533975550303524 1 rotate no_reflect no_shear #
display_attribute-st-attrib $-1 $50 $-1 $3 1 #
lump $-1 $-1 $51 $3 #
transform $-1 0.71933979245794832 0 0.69465837861970381 0 1 0 -0.69465837861970381 0 0.71933979245794832 -59.98734544335197 5.496246460109572 71.992357686191511 1 rotate no_reflect no_shear #
display_attribute-st-attrib $-1 $52 $-1 $4 1 #
lump $-1 $-1 $53 $4 #
transform $-1 0.71933979245794832 0 0.69465837861970381 0 -1 0 0.69465837861970381 0 -0.71933979245794832 6.6565740354121194 5.4962464601095711 12.136519142357734 1 rotate no_reflect no_shear #
display_attribute-st-attrib $-1 $54 $-1 $5 1 #
lump $-1 $-1 $55 $5 #
transform $-1 0.71933979245794832 0 0.69465837861970381 0 1 0 -0.69465837861970381 0 0.71933979245794832 -59.98734544335197 16.525987268700717 71.992357686191511 1 rotate no_reflect no_shear #
display_attribute-st-attrib $-1 $56 $-1 $6 1 #
lump $-1 $-1 $57 $6 #
transform $-1 0.71933979245794832 0 0.69465837861970381 0 -1 0 0.69465837861970381 0 -0.71933979245794832 6.6565740354121194 16.525987268700717 12.136519142357734 1 rotate no_reflect no_shear #
display_attribute-st-attrib $-1 $58 $-1 $7 1 #
lump $-1 $-1 $59 $7 #
transform $-1 0.71933979245794832 0 0.69465837861970381 0 1 0 -0.69465837861970381 0 0.71933979245794832 -59.98734544335197 27.55572807729186 71.992357686191511 1 rotate no_reflect no_shear #
display_attribute-st-attrib $-1 $60 $-1 $8 1 #
lump $-1 $-1 $61 $8 #
transform $-1 0.71933979245794832 0 0.69465837861970381 0 -1 0 0.69465837861970381 0 -0.71933979245794832 6.6565740354121194 27.55572807729186 12.136519142357734 1 rotate no_reflect no_shear #
display_attribute-st-attrib $-1 $62 $-1 $9 1 #
lump $-1 $-1 $63 $9 #
transform $-1 0.71933979245794832 0 0.69465837861970381 0 1 0 -0.69465837861970381 0 0.71933979245794832 -59.98734544335197 38.585468885883003 71.992357686191511 1 rotate no_reflect no_shear #
display_attribute-st-attrib $-1 $64 $-1 $10 1 #
lump $-1 $-1 $65 $10 #
transform $-1 0.71933979245794832 0 0.69465837861970381 0 -1 0 0.69465837861970381 0 -0.71933979245794832 6.6565740354121194 38.585468885883003 12.136519142357734 1 rotate no_reflect no_shear #
id_attribute-st-attrib $-1 $-1 $11 $0 2547 #
shell $-1 $-1 $-1 $66 $-1 $12 #
id_attribute-st-attrib $-1 $-1 $14 $1 2554 #
shell $-1 $-1 $-1 $67 $-1 $15 #
id_attribute-st-attrib $-1 $-1 $17 $2 2561 #
shell $-1 $-1 $-1 $68 $-1 $18 #
id_attribute-st-attrib $-1 $-1 $20 $3 2574 #
shell $-1 $-1 $-1 $69 $-1 $21 #
id_attribute-st-attrib $-1 $-1 $23 $4 2583 #
shell $-1 $-1 $-1 $70 $-1 $24 #
id_attribute-st-attrib $-1 $-1 $26 $5 2595 #
shell $-1 $-1 $-1 $71 $-1 $27 #
id_attribute-st-attrib $-1 $-1 $29 $6 2606 #
shell $-1 $-1 $-1 $72 $-1 $30 #
id_attribute-st-attrib $-1 $-1 $32 $7 2620 #
shell $-1 $-1 $-1 $73 $-1 $33 #
id_attribute-st-attrib $-1 $-1 $35 $8 2633 #
shell $-1 $-1 $-1 $74 $-1 $36 #
id_attribute-st-attrib $-1 $-1 $38 $9 2647 #
shell $-1 $-1 $-1 $75 $-1 $39 #
id_attribute-st-attrib $-1 $-1 $41 $10 2662 #
shell $-1 $-1 $-1 $76 $-1 $42 #
face $-1 $77 $78 $45 $-1 $79 forward single #
face $-1 $80 $81 $47 $-1 $82 forward single #
face $-1 $83 $84 $49 $-1 $85 forward single #
face $-1 $86 $87 $51 $-1 $88 forward single #
face $-1 $89 $90 $53 $-1 $91 forward single #
face $-1 $92 $93 $55 $-1 $94 forward single #
face $-1 $95 $96 $57 $-1 $97 forward single #
face $-1 $98 $99 $59 $-1 $100 forward single #
face $-1 $101 $102 $61 $-1 $103 forward single #
face $-1 $104 $105 $63 $-1 $106 forward single #
face $-1 $107 $108 $65 $-1 $109 forward single #
face $-1 $110 $111 $45 $-1 $112 reversed single #
loop $-1 $-1 $113 $66 #
plane-surface $-1 0 0 9.355032520651978 0 0 1 1 0 0 forward_v I I I I #
face $-1 $114 $115 $47 $-1 $116 reversed single #
loop $-1 $-1 $117 $67 #
plane-surface $-1 0 0 86.355174413281659 0 0 1 1 0 0 forward_v I I I I #
face $-1 $118 $119 $49 $-1 $120 forward single #
loop $-1 $121 $122 $68 #
cone-surface $-1 0 0 -2.522789696951202 0 0 1 1.5 0 0 1 I I 0 1 forward I I I I #
face $-1 $123 $124 $51 $-1 $125 reversed single #
loop $-1 $-1 $126 $69 #
plane-surface $-1 0 0 86.355174413281659 0 0 1 1 0 0 forward_v I I I I #
face $-1 $127 $128 $53 $-1 $129 forward single #
loop $-1 $130 $131 $70 #
cone-surface $-1 0 0 -1.8731345561082797 0 0 1 1.5 0 0 1 I I 0 1 forward I I I I #
face $-1 $132 $133 $55 $-1 $134 reversed single #
loop $-1 $-1 $135 $71 #
plane-surface $-1 0 0 86.355174413281659 0 0 1 1 0 0 forward_v I I I I #
face $-1 $136 $137 $57 $-1 $138 forward single #
loop $-1 $139 $140 $72 #
cone-surface $-1 0 0 -1.8731345561082797 0 0 1 1.5 0 0 1 I I 0 1 forward I I I I #
face $-1 $141 $142 $59 $-1 $143 reversed single #
loop $-1 $-1 $144 $73 #
plane-surface $-1 0 0 86.355174413281659 0 0 1 1 0 0 forward_v I I I I #
face $-1 $145 $146 $61 $-1 $147 forward single #
loop $-1 $148 $149 $74 #
cone-surface $-1 0 0 -1.8731345561082797 0 0 1 1.5 0 0 1 I I 0 1 forward I I I I #
face $-1 $150 $151 $63 $-1 $152 reversed single #
loop $-1 $-1 $153 $75 #
plane-surface $-1 0 0 86.355174413281659 0 0 1 1 0 0 forward_v I I I I #
face $-1 $154 $155 $65 $-1 $156 forward single #
loop $-1 $157 $158 $76 #
cone-surface $-1 0 0 -1.8731345561082797 0 0 1 1.5 0 0 1 I I 0 1 forward I I I I #
face $-1 $159 $160 $45 $-1 $161 reversed single #
loop $-1 $-1 $162 $77 #
plane-surface $-1 0 0 -9.355032520651978 0 0 1 1 0 0 forward_v I I I I #
coedge $-1 $163 $164 $165 $166 forward $78 $-1 #
face $-1 $167 $168 $47 $-1 $169 reversed single #
loop $-1 $-1 $170 $80 #
plane-surface $-1 0 0 -86.355174413281659 0 0 1 1 0 0 forward_v I I I I #
coedge $-1 $171 $172 $173 $174 forward $81 $-1 #
face $-1 $-1 $175 $49 $-1 $176 forward single #
loop $-1 $-1 $177 $83 #
plane-surface $-1 0 0 -4.2955793939024032 0 0 -1 -1 0 0 forward_v I I I I #
loop $-1 $-1 $178 $68 #
coedge $-1 $122 $122 $177 $179 reversed $84 $-1 #
face $-1 $180 $181 $51 $-1 $182 reversed single #
loop $-1 $-1 $183 $86 #
plane-surface $-1 0 0 -86.355174413281659 0 0 1 1 0 0 forward_v I I I I #
coedge $-1 $184 $185 $186 $187 forward $87 $-1 #
face $-1 $-1 $188 $53 $-1 $189 forward single #
loop $-1 $-1 $190 $89 #
plane-surface $-1 0 0 -2.9962691122165594 0 0 -1 -1 0 0 forward_v I I I I #
loop $-1 $-1 $191 $70 #
coedge $-1 $131 $131 $190 $192 reversed $90 $-1 #
face $-1 $193 $194 $55 $-1 $195 reversed single #
loop $-1 $-1 $196 $92 #
plane-surface $-1 0 0 -86.355174413281659 0 0 1 1 0 0 forward_v I I I I #
coedge $-1 $197 $198 $199 $200 forward $93 $-1 #
face $-1 $-1 $201 $57 $-1 $202 forward single #
loop $-1 $-1 $203 $95 #
plane-surface $-1 0 0 -2.9962691122165594 0 0 -1 -1 0 0 forward_v I I I I #
loop $-1 $-1 $204 $72 #
coedge $-1 $140 $140 $203 $205 reversed $96 $-1 #
face $-1 $206 $207 $59 $-1 $208 reversed single #
loop $-1 $-1 $209 $98 #
plane-surface $-1 0 0 -86.355174413281659 0 0 1 1 0 0 forward_v I I I I #
coedge $-1 $210 $211 $212 $213 forward $99 $-1 #
face $-1 $-1 $214 $61 $-1 $215 forward single #
loop $-1 $-1 $216 $101 #
plane-surface $-1 0 0 -2.9962691122165594 0 0 -1 -1 0 0 forward_v I I I I #
loop $-1 $-1 $217 $74 #
coedge $-1 $149 $149 $216 $218 reversed $102 $-1 #
face $-1 $219 $220 $63 $-1 $221 reversed single #
loop $-1 $-1 $222 $104 #
plane-surface $-1 0 0 -86.355174413281659 0 0 1 1 0 0 forward_v I I I I #
coedge $-1 $223 $224 $225 $226 forward $105 $-1 #
face $-1 $-1 $227 $65 $-1 $228 forward single #
loop $-1 $-1 $229 $107 #
plane-surface $-1 0 0 -2.9962691122165594 0 0 -1 -1 0 0 forward_v I I I I #
loop $-1 $-1 $230 $76 #
coedge $-1 $158 $158 $229 $231 reversed $108 $-1 #
face $-1 $232 $233 $45 $-1 $234 reversed single #
loop $-1 $-1 $235 $110 #
plane-surface $-1 0 -22.059481617182289 0 0 1 0 0 0 1 forward_v I I I I #
coedge $-1 $236 $237 $238 $239 forward $111 $-1 #
coedge $-1 $240 $113 $241 $242 forward $78 $-1 #
coedge $-1 $113 $240 $243 $244 forward $78 $-1 #
coedge $-1 $245 $246 $113 $166 reversed $247 $-1 #
edge $-1 $248 $249 $165 $250 forward #
face $-1 $251 $252 $47 $-1 $253 reversed single #
loop $-1 $-1 $254 $114 #
plane-surface $-1 0 -5.2604489316865104 0 0 1 0 0 0 1 forward_v I I I I #
coedge $-1 $255 $256 $257 $258 forward $115 $-1 #
coedge $-1 $259 $117 $260 $261 forward $81 $-1 #
coedge $-1 $117 $259 $262 $263 forward $81 $-1 #
coedge $-1 $264 $265 $117 $174 reversed $266 $-1 #
edge $-1 $267 $268 $173 $269 forward #
loop $-1 $270 $271 $118 #
cone-surface $-1 0 0 0 0 0 1 0.75 0 0 1 I I -0.70710678118654757 0.70710678118654757 forward I I I I #
coedge $-1 $177 $177 $122 $179 forward $119 $-1 #
coedge $-1 $178 $178 $271 $272 forward $121 $-1 #
edge $-1 $273 $273 $177 $274 forward #
face $-1 $275 $276 $51 $-1 $277 reversed single #
loop $-1 $-1 $278 $123 #
plane-surface $-1 0 -3.487168248993803 0 0 1 0 0 0 1 forward_v I I I I #
coedge $-1 $279 $280 $281 $282 forward $124 $-1 #
coedge $-1 $283 $126 $284 $285 forward $87 $-1 #
coedge $-1 $126 $283 $286 $287 forward $87 $-1 #
coedge $-1 $288 $289 $126 $187 reversed $290 $-1 #
edge $-1 $291 $292 $186 $293 forward #
loop $-1 $294 $295 $127 #
cone-surface $-1 0 0 0 0 0 1 0.75 0 0 1 I I -0.70710678118654757 0.70710678118654757 forward I I I I #
coedge $-1 $190 $190 $131 $192 forward $128 $-1 #
coedge $-1 $191 $191 $295 $296 forward $130 $-1 #
edge $-1 $297 $297 $190 $298 forward #
face $-1 $299 $300 $55 $-1 $301 reversed single #
loop $-1 $-1 $302 $132 #
plane-surface $-1 0 -3.487168248993803 0 0 1 0 0 0 1 forward_v I I I I #
coedge $-1 $303 $304 $305 $306 forward $133 $-1 #
coedge $-1 $307 $135 $308 $309 forward $93 $-1 #
coedge $-1 $135 $307 $310 $311 forward $93 $-1 #
coedge $-1 $312 $313 $135 $200 reversed $314 $-1 #
edge $-1 $315 $316 $199 $317 forward #
loop $-1 $318 $319 $136 #
cone-surface $-1 0 0 0 0 0 1 0.75 0 0 1 I I -0.70710678118654757 0.70710678118654757 forward I I I I #
coedge $-1 $203 $203 $140 $205 forward $137 $-1 #
coedge $-1 $204 $204 $319 $320 forward $139 $-1 #
edge $-1 $321 $321 $203 $322 forward #
face $-1 $323 $324 $59 $-1 $325 reversed single #
loop $-1 $-1 $326 $141 #
plane-surface $-1 0 -3.487168248993803 0 0 1 0 0 0 1 forward_v I I I I #
coedge $-1 $327 $328 $329 $330 forward $142 $-1 #
coedge $-1 $331 $144 $332 $333 forward $99 $-1 #
coedge $-1 $144 $331 $334 $335 forward $99 $-1 #
coedge $-1 $336 $337 $144 $213 reversed $338 $-1 #
edge $-1 $339 $340 $212 $341 forward #
loop $-1 $342 $343 $145 #
cone-surface $-1 0 0 0 0 0 1 0.75 0 0 1 I I -0.70710678118654757 0.70710678118654757 forward I I I I #
coedge $-1 $216 $216 $149 $218 forward $146 $-1 #
coedge $-1 $217 $217 $343 $344 forward $148 $-1 #
edge $-1 $345 $345 $216 $346 forward #
face $-1 $347 $348 $63 $-1 $349 reversed single #
loop $-1 $-1 $350 $150 #
plane-surface $-1 0 -3.487168248993803 0 0 1 0 0 0 1 forward_v I I I I #
coedge $-1 $351 $352 $353 $354 forward $151 $-1 #
coedge $-1 $355 $153 $356 $357 forward $105 $-1 #
coedge $-1 $153 $355 $358 $359 forward $105 $-1 #
coedge $-1 $360 $361 $153 $226 reversed $362 $-1 #
edge $-1 $363 $364 $225 $365 forward #
loop $-1 $366 $367 $154 #
cone-surface $-1 0 0 0 0 0 1 0.75 0 0 1 I I -0.70710678118654757 0.70710678118654757 forward I I I I #
coedge $-1 $229 $229 $158 $231 forward $155 $-1 #
coedge $-1 $230 $230 $367 $368 forward $157 $-1 #
edge $-1 $369 $369 $229 $370 forward #
face $-1 $371 $372 $45 $-1 $373 reversed single #
loop $-1 $-1 $374 $159 #
plane-surface $-1 -43.17758720664083 0 0 1 0 0 0 0 -1 forward_v I I I I #
coedge $-1 $375 $243 $376 $377 forward $160 $-1 #
coedge $-1 $378 $162 $375 $379 forward $111 $-1 #
coedge $-1 $162 $378 $380 $381 forward $111 $-1 #
coedge $-1 $246 $245 $162 $239 reversed $247 $-1 #
edge $-1 $382 $383 $238 $384 forward #
coedge $-1 $164 $163 $385 $386 forward $78 $-1 #
coedge $-1 $387 $388 $163 $242 reversed $372 $-1 #
edge $-1 $249 $389 $241 $390 forward #
coedge $-1 $235 $391 $164 $244 reversed $160 $-1 #
edge $-1 $392 $248 $243 $393 forward #
coedge $-1 $238 $165 $391 $394 forward $247 $-1 #
coedge $-1 $165 $238 $387 $395 reversed $247 $-1 #
loop $-1 $-1 $245 $371 #
vertex $-1 $166 $396 #
vertex $-1 $166 $397 #
straight-curve $-1 43.17758720664083 0 9.355032520651978 0 1 0 I I #
face $-1 $398 $399 $47 $-1 $400 reversed single #
loop $-1 $-1 $401 $167 #
plane-surface $-1 -172.71034882656332 0 0 1 0 0 0 0 -1 forward_v I I I I #
coedge $-1 $402 $262 $403 $404 forward $168 $-1 #
coedge $-1 $405 $170 $402 $406 forward $115 $-1 #
coedge $-1 $170 $405 $407 $408 forward $115 $-1 #
coedge $-1 $265 $264 $170 $258 reversed $266 $-1 #
edge $-1 $409 $410 $257 $411 forward #
coedge $-1 $172 $171 $412 $413 forward $81 $-1 #
coedge $-1 $414 $415 $171 $261 reversed $399 $-1 #
edge $-1 $268 $416 $260 $417 forward #
coedge $-1 $254 $418 $172 $263 reversed $168 $-1 #
edge $-1 $419 $267 $262 $420 forward #
coedge $-1 $257 $173 $418 $421 forward $266 $-1 #
coedge $-1 $173 $257 $414 $422 reversed $266 $-1 #
loop $-1 $-1 $264 $398 #
vertex $-1 $174 $423 #
vertex $-1 $174 $424 #
straight-curve $-1 172.71034882656332 0 86.355174413281659 0 1 0 I I #
loop $-1 $-1 $425 $118 #
coedge $-1 $271 $271 $178 $272 reversed $175 $-1 #
edge $-1 $426 $426 $271 $427 forward #
vertex $-1 $179 $428 #
ellipse-curve $-1 0 0 -4.2955793939024032 0 0 -1 1.5 0 0 1 I I #
face $-1 $429 $430 $51 $-1 $431 reversed single #
loop $-1 $-1 $432 $180 #
plane-surface $-1 -172.71034882656332 0 0 1 0 0 0 0 -1 forward_v I I I I #
coedge $-1 $433 $286 $434 $435 forward $181 $-1 #
coedge $-1 $436 $183 $433 $437 forward $124 $-1 #
coedge $-1 $183 $436 $438 $439 forward $124 $-1 #
coedge $-1 $289 $288 $183 $282 reversed $290 $-1 #
edge $-1 $440 $441 $281 $442 forward #
coedge $-1 $185 $184 $443 $444 forward $87 $-1 #
coedge $-1 $445 $446 $184 $285 reversed $430 $-1 #
edge $-1 $292 $447 $284 $448 forward #
coedge $-1 $278 $449 $185 $287 reversed $181 $-1 #
edge $-1 $450 $291 $286 $451 forward #
coedge $-1 $281 $186 $449 $452 forward $290 $-1 #
coedge $-1 $186 $281 $445 $453 reversed $290 $-1 #
loop $-1 $-1 $288 $429 #
vertex $-1 $187 $454 #
vertex $-1 $187 $455 #
straight-curve $-1 172.71034882656332 0 86.355174413281659 0 1 0 I I #
loop $-1 $-1 $456 $127 #
coedge $-1 $295 $295 $191 $296 reversed $188 $-1 #
edge $-1 $457 $457 $295 $458 forward #
vertex $-1 $192 $459 #
ellipse-curve $-1 0 0 -2.9962691122165594 0 0 -1 1.5 0 0 1 I I #
face $-1 $460 $461 $55 $-1 $462 reversed single #
loop $-1 $-1 $463 $193 #
plane-surface $-1 -172.71034882656332 0 0 1 0 0 0 0 -1 forward_v I I I I #
coedge $-1 $464 $310 $465 $466 forward $194 $-1 #
coedge $-1 $467 $196 $464 $468 forward $133 $-1 #
coedge $-1 $196 $467 $469 $470 forward $133 $-1 #
coedge $-1 $313 $312 $196 $306 reversed $314 $-1 #
edge $-1 $471 $472 $305 $473 forward #
coedge $-1 $198 $197 $474 $475 forward $93 $-1 #
coedge $-1 $476 $477 $197 $309 reversed $461 $-1 #
edge $-1 $316 $478 $308 $479 forward #
coedge $-1 $302 $480 $198 $311 reversed $194 $-1 #
edge $-1 $481 $315 $310 $482 forward #
coedge $-1 $305 $199 $480 $483 forward $314 $-1 #
coedge $-1 $199 $305 $476 $484 reversed $314 $-1 #
loop $-1 $-1 $312 $460 #
vertex $-1 $200 $485 #
vertex $-1 $200 $486 #
straight-curve $-1 172.71034882656332 0 86.355174413281659 0 1 0 I I #
loop $-1 $-1 $487 $136 #
coedge $-1 $319 $319 $204 $320 reversed $201 $-1 #
edge $-1 $488 $488 $319 $489 forward #
vertex $-1 $205 $490 #
ellipse-curve $-1 0 0 -2.9962691122165594 0 0 -1 1.5 0 0 1 I I #
face $-1 $491 $492 $59 $-1 $493 reversed single #
loop $-1 $-1 $494 $206 #
plane-surface $-1 -172.71034882656332 0 0 1 0 0 0 0 -1 forward_v I I I I #
coedge $-1 $495 $334 $496 $497 forward $207 $-1 #
coedge $-1 $498 $209 $495 $499 forward $142 $-1 #
coedge $-1 $209 $498 $500 $501 forward $142 $-1 #
coedge $-1 $337 $336 $209 $330 reversed $338 $-1 #
edge $-1 $502 $503 $329 $504 forward #
coedge $-1 $211 $210 $505 $506 forward $99 $-1 #
coedge $-1 $507 $508 $210 $333 reversed $492 $-1 #
edge $-1 $340 $509 $332 $510 forward #
coedge $-1 $326 $511 $211 $335 reversed $207 $-1 #
edge $-1 $512 $339 $334 $513 forward #
coedge $-1 $329 $212 $511 $514 forward $338 $-1 #
coedge $-1 $212 $329 $507 $515 reversed $338 $-1 #
loop $-1 $-1 $336 $491 #
vertex $-1 $213 $516 #
vertex $-1 $213 $517 #
straight-curve $-1 172.71034882656332 0 86.355174413281659 0 1 0 I I #
loop $-1 $-1 $518 $145 #
coedge $-1 $343 $343 $217 $344 reversed $214 $-1 #
edge $-1 $519 $519 $343 $520 forward #
vertex $-1 $218 $521 #
ellipse-curve $-1 0 0 -2.9962691122165594 0 0 -1 1.5 0 0 1 I I #
face $-1 $522 $523 $63 $-1 $524 reversed single #
loop $-1 $-1 $525 $219 #
plane-surface $-1 -172.71034882656332 0 0 1 0 0 0 0 -1 forward_v I I I I #
coedge $-1 $526 $358 $527 $528 forward $220 $-1 #
coedge $-1 $529 $222 $526 $530 forward $151 $-1 #
coedge $-1 $222 $529 $531 $532 forward $151 $-1 #
coedge $-1 $361 $360 $222 $354 reversed $362 $-1 #
edge $-1 $533 $534 $353 $535 forward #
coedge $-1 $224 $223 $536 $537 forward $105 $-1 #
coedge $-1 $538 $539 $223 $357 reversed $523 $-1 #
edge $-1 $364 $540 $356 $541 forward #
coedge $-1 $350 $542 $224 $359 reversed $220 $-1 #
edge $-1 $543 $363 $358 $544 forward #
coedge $-1 $353 $225 $542 $545 forward $362 $-1 #
coedge $-1 $225 $353 $538 $546 reversed $362 $-1 #
loop $-1 $-1 $360 $522 #
vertex $-1 $226 $547 #
vertex $-1 $226 $548 #
straight-curve $-1 172.71034882656332 0 86.355174413281659 0 1 0 I I #
loop $-1 $-1 $549 $154 #
coedge $-1 $367 $367 $230 $368 reversed $227 $-1 #
edge $-1 $550 $550 $367 $551 forward #
vertex $-1 $231 $552 #
ellipse-curve $-1 0 0 -2.9962691122165594 0 0 -1 1.5 0 0 1 I I #
face $-1 $-1 $247 $45 $-1 $553 reversed single #
loop $-1 $-1 $387 $232 #
plane-surface $-1 0 22.059481617182289 0 0 -1 0 0 0 -1 forward_v I I I I #
coedge $-1 $554 $385 $388 $555 forward $233 $-1 #
coedge $-1 $391 $235 $236 $379 reversed $160 $-1 #
coedge $-1 $385 $554 $235 $377 reversed $233 $-1 #
edge $-1 $392 $556 $376 $557 forward #
coedge $-1 $237 $236 $554 $558 forward $111 $-1 #
edge $-1 $383 $556 $375 $559 forward #
coedge $-1 $388 $387 $237 $381 reversed $372 $-1 #
edge $-1 $560 $382 $380 $561 forward #
vertex $-1 $239 $562 #
vertex $-1 $394 $563 #
straight-curve $-1 43.17758720664083 0 -9.355032520651978 0 -1 0 I I #
coedge $-1 $374 $376 $240 $386 reversed $233 $-1 #
edge $-1 $389 $392 $385 $564 forward #
coedge $-1 $380 $241 $246 $395 forward $372 $-1 #
coedge $-1 $241 $380 $374 $555 reversed $372 $-1 #
vertex $-1 $242 $565 #
straight-curve $-1 0 22.059481617182289 9.355032520651978 -1 0 0 I I #
coedge $-1 $243 $375 $245 $394 reversed $160 $-1 #
vertex $-1 $386 $566 #
straight-curve $-1 0 -22.059481617182289 9.355032520651978 1 0 0 I I #
edge $-1 $248 $383 $245 $567 forward #
edge $-1 $249 $382 $246 $568 forward #
point $-1 43.17758720664083 -22.059481617182289 9.355032520651978 #
point $-1 43.17758720664083 22.059481617182289 9.355032520651978 #
face $-1 $-1 $266 $47 $-1 $569 reversed single #
loop $-1 $-1 $414 $251 #
plane-surface $-1 0 5.2604489316865104 0 0 -1 0 0 0 -1 forward_v I I I I #
coedge $-1 $570 $412 $415 $571 forward $252 $-1 #
coedge $-1 $418 $254 $255 $406 reversed $168 $-1 #
coedge $-1 $412 $570 $254 $404 reversed $252 $-1 #
edge $-1 $419 $572 $403 $573 forward #
coedge $-1 $256 $255 $570 $574 forward $115 $-1 #
edge $-1 $410 $572 $402 $575 forward #
coedge $-1 $415 $414 $256 $408 reversed $399 $-1 #
edge $-1 $576 $409 $407 $577 forward #
vertex $-1 $258 $578 #
vertex $-1 $421 $579 #
straight-curve $-1 172.71034882656332 0 -86.355174413281659 0 -1 0 I I #
coedge $-1 $401 $403 $259 $413 reversed $252 $-1 #
edge $-1 $416 $419 $412 $580 forward #
coedge $-1 $407 $260 $265 $422 forward $399 $-1 #
coedge $-1 $260 $407 $401 $571 reversed $399 $-1 #
vertex $-1 $261 $581 #
straight-curve $-1 0 5.2604489316865104 86.355174413281659 -1 0 0 I I #
coedge $-1 $262 $402 $264 $421 reversed $168 $-1 #
vertex $-1 $413 $582 #
straight-curve $-1 0 -5.2604489316865104 86.355174413281659 1 0 0 I I #
edge $-1 $267 $410 $264 $583 forward #
edge $-1 $268 $409 $265 $584 forward #
point $-1 172.71034882656332 -5.2604489316865104 86.355174413281659 #
point $-1 172.71034882656332 5.2604489316865104 86.355174413281659 #
coedge $-1 $425 $425 $-1 $585 reversed $270 $-1 #
vertex $-1 $272 $586 #
ellipse-curve $-1 0 0 -0.75 0 0 -1 1.5 0 0 1 I I #
point $-1 1.5 0 -4.2955793939024032 #
face $-1 $-1 $290 $51 $-1 $587 reversed single #
loop $-1 $-1 $445 $275 #
plane-surface $-1 0 3.487168248993803 0 0 -1 0 0 0 -1 forward_v I I I I #
coedge $-1 $588 $443 $446 $589 forward $276 $-1 #
coedge $-1 $449 $278 $279 $437 reversed $181 $-1 #
coedge $-1 $443 $588 $278 $435 reversed $276 $-1 #
edge $-1 $450 $590 $434 $591 forward #
coedge $-1 $280 $279 $588 $592 forward $124 $-1 #
edge $-1 $441 $590 $433 $593 forward #
coedge $-1 $446 $445 $280 $439 reversed $430 $-1 #
edge $-1 $594 $440 $438 $595 forward #
vertex $-1 $282 $596 #
vertex $-1 $452 $597 #
straight-curve $-1 172.71034882656332 0 -86.355174413281659 0 -1 0 I I #
coedge $-1 $432 $434 $283 $444 reversed $276 $-1 #
edge $-1 $447 $450 $443 $598 forward #
coedge $-1 $438 $284 $289 $453 forward $430 $-1 #
coedge $-1 $284 $438 $432 $589 reversed $430 $-1 #
vertex $-1 $285 $599 #
straight-curve $-1 0 3.487168248993803 86.355174413281659 -1 0 0 I I #
coedge $-1 $286 $433 $288 $452 reversed $181 $-1 #
vertex $-1 $444 $600 #
straight-curve $-1 0 -3.487168248993803 86.355174413281659 1 0 0 I I #
edge $-1 $291 $441 $288 $601 forward #
edge $-1 $292 $440 $289 $602 forward #
point $-1 172.71034882656332 -3.487168248993803 86.355174413281659 #
point $-1 172.71034882656332 3.487168248993803 86.355174413281659 #
coedge $-1 $456 $456 $-1 $603 reversed $294 $-1 #
vertex $-1 $296 $604 #
ellipse-curve $-1 0 0 -0.75 0 0 -1 1.5 0 0 1 I I #
point $-1 1.5 0 -2.9962691122165594 #
face $-1 $-1 $314 $55 $-1 $605 reversed single #
loop $-1 $-1 $476 $299 #
plane-surface $-1 0 3.487168248993803 0 0 -1 0 0 0 -1 forward_v I I I I #
coedge $-1 $606 $474 $477 $607 forward $300 $-1 #
coedge $-1 $480 $302 $303 $468 reversed $194 $-1 #
coedge $-1 $474 $606 $302 $466 reversed $300 $-1 #
edge $-1 $481 $608 $465 $609 forward #
coedge $-1 $304 $303 $606 $610 forward $133 $-1 #
edge $-1 $472 $608 $464 $611 forward #
coedge $-1 $477 $476 $304 $470 reversed $461 $-1 #
edge $-1 $612 $471 $469 $613 forward #
vertex $-1 $306 $614 #
vertex $-1 $483 $615 #
straight-curve $-1 172.71034882656332 0 -86.355174413281659 0 -1 0 I I #
coedge $-1 $463 $465 $307 $475 reversed $300 $-1 #
edge $-1 $478 $481 $474 $616 forward #
coedge $-1 $469 $308 $313 $484 forward $461 $-1 #
coedge $-1 $308 $469 $463 $607 reversed $461 $-1 #
vertex $-1 $309 $617 #
straight-curve $-1 0 3.487168248993803 86.355174413281659 -1 0 0 I I #
coedge $-1 $310 $464 $312 $483 reversed $194 $-1 #
vertex $-1 $475 $618 #
straight-curve $-1 0 -3.487168248993803 86.355174413281659 1 0 0 I I #
edge $-1 $315 $472 $312 $619 forward #
edge $-1 $316 $471 $313 $620 forward #
point $-1 172.71034882656332 -3.487168248993803 86.355174413281659 #
point $-1 172.71034882656332 3.487168248993803 86.355174413281659 #
coedge $-1 $487 $487 $-1 $621 reversed $318 $-1 #
vertex $-1 $320 $622 #
ellipse-curve $-1 0 0 -0.75 0 0 -1 1.5 0 0 1 I I #
point $-1 1.5 0 -2.9962691122165594 #
face $-1 $-1 $338 $59 $-1 $623 reversed single #
loop $-1 $-1 $507 $323 #
plane-surface $-1 0 3.487168248993803 0 0 -1 0 0 0 -1 forward_v I I I I #
coedge $-1 $624 $505 $508 $625 forward $324 $-1 #
coedge $-1 $511 $326 $327 $499 reversed $207 $-1 #
coedge $-1 $505 $624 $326 $497 reversed $324 $-1 #
edge $-1 $512 $626 $496 $627 forward #
coedge $-1 $328 $327 $624 $628 forward $142 $-1 #
edge $-1 $503 $626 $495 $629 forward #
coedge $-1 $508 $507 $328 $501 reversed $492 $-1 #
edge $-1 $630 $502 $500 $631 forward #
vertex $-1 $330 $632 #
vertex $-1 $514 $633 #
straight-curve $-1 172.71034882656332 0 -86.355174413281659 0 -1 0 I I #
coedge $-1 $494 $496 $331 $506 reversed $324 $-1 #
edge $-1 $509 $512 $505 $634 forward #
coedge $-1 $500 $332 $337 $515 forward $492 $-1 #
coedge $-1 $332 $500 $494 $625 reversed $492 $-1 #
vertex $-1 $333 $635 #
straight-curve $-1 0 3.487168248993803 86.355174413281659 -1 0 0 I I #
coedge $-1 $334 $495 $336 $514 reversed $207 $-1 #
vertex $-1 $506 $636 #
straight-curve $-1 0 -3.487168248993803 86.355174413281659 1 0 0 I I #
edge $-1 $339 $503 $336 $637 forward #
edge $-1 $340 $502 $337 $638 forward #
point $-1 172.71034882656332 -3.487168248993803 86.355174413281659 #
point $-1 172.71034882656332 3.487168248993803 86.355174413281659 #
coedge $-1 $518 $518 $-1 $639 reversed $342 $-1 #
vertex $-1 $344 $640 #
ellipse-curve $-1 0 0 -0.75 0 0 -1 1.5 0 0 1 I I #
point $-1 1.5 0 -2.9962691122165594 #
face $-1 $-1 $362 $63 $-1 $641 reversed single #
loop $-1 $-1 $538 $347 #
plane-surface $-1 0 3.487168248993803 0 0 -1 0 0 0 -1 forward_v I I I I #
coedge $-1 $642 $536 $539 $643 forward $348 $-1 #
coedge $-1 $542 $350 $351 $530 reversed $220 $-1 #
coedge $-1 $536 $642 $350 $528 reversed $348 $-1 #
edge $-1 $543 $644 $527 $645 forward #
coedge $-1 $352 $351 $642 $646 forward $151 $-1 #
edge $-1 $534 $644 $526 $647 forward #
coedge $-1 $539 $538 $352 $532 reversed $523 $-1 #
edge $-1 $648 $533 $531 $649 forward #
vertex $-1 $354 $650 #
vertex $-1 $545 $651 #
straight-curve $-1 172.71034882656332 0 -86.355174413281659 0 -1 0 I I #
coedge $-1 $525 $527 $355 $537 reversed $348 $-1 #
edge $-1 $540 $543 $536 $652 forward #
coedge $-1 $531 $356 $361 $546 forward $523 $-1 #
coedge $-1 $356 $531 $525 $643 reversed $523 $-1 #
vertex $-1 $357 $653 #
straight-curve $-1 0 3.487168248993803 86.355174413281659 -1 0 0 I I #
coedge $-1 $358 $526 $360 $545 reversed $220 $-1 #
vertex $-1 $537 $654 #
straight-curve $-1 0 -3.487168248993803 86.355174413281659 1 0 0 I I #
edge $-1 $363 $534 $360 $655 forward #
edge $-1 $364 $533 $361 $656 forward #
point $-1 172.71034882656332 -3.487168248993803 86.355174413281659 #
point $-1 172.71034882656332 3.487168248993803 86.355174413281659 #
coedge $-1 $549 $549 $-1 $657 reversed $366 $-1 #
vertex $-1 $368 $658 #
ellipse-curve $-1 0 0 -0.75 0 0 -1 1.5 0 0 1 I I #
point $-1 1.5 0 -2.9962691122165594 #
plane-surface $-1 43.17758720664083 0 0 -1 0 0 0 0 1 forward_v I I I I #
coedge $-1 $376 $374 $378 $558 reversed $233 $-1 #
edge $-1 $389 $560 $388 $659 forward #
vertex $-1 $558 $660 #
straight-curve $-1 -43.17758720664083 -22.059481617182289 0 0 0 -1 I I #
edge $-1 $556 $560 $554 $661 forward #
straight-curve $-1 0 -22.059481617182289 -9.355032520651978 -1 0 0 I I #
vertex $-1 $381 $662 #
straight-curve $-1 0 22.059481617182289 -9.355032520651978 1 0 0 I I #
point $-1 43.17758720664083 22.059481617182289 -9.355032520651978 #
point $-1 43.17758720664083 -22.059481617182289 -9.355032520651978 #
straight-curve $-1 -43.17758720664083 0 9.355032520651978 0 -1 0 I I #
point $-1 -43.17758720664083 22.059481617182289 9.355032520651978 #
point $-1 -43.17758720664083 -22.059481617182289 9.355032520651978 #
straight-curve $-1 43.17758720664083 -22.059481617182289 0 0 0 -1 I I #
straight-curve $-1 43.17758720664083 22.059481617182289 0 0 0 -1 I I #
plane-surface $-1 172.71034882656332 0 0 -1 0 0 0 0 1 forward_v I I I I #
coedge $-1 $403 $401 $405 $574 reversed $252 $-1 #
edge $-1 $416 $576 $415 $663 forward #
vertex $-1 $574 $664 #
straight-curve $-1 -172.71034882656332 -5.2604489316865104 0 0 0 -1 I I #
edge $-1 $572 $576 $570 $665 forward #
straight-curve $-1 0 -5.2604489316865104 -86.355174413281659 -1 0 0 I I #
vertex $-1 $408 $666 #
straight-curve $-1 0 5.2604489316865104 -86.355174413281659 1 0 0 I I #
point $-1 172.71034882656332 5.2604489316865104 -86.355174413281659 #
point $-1 172.71034882656332 -5.2604489316865104 -86.355174413281659 #
straight-curve $-1 -172.71034882656332 0 86.355174413281659 0 -1 0 I I #
point $-1 -172.71034882656332 5.2604489316865104 86.355174413281659 #
point $-1 -172.71034882656332 -5.2604489316865104 86.355174413281659 #
straight-curve $-1 172.71034882656332 -5.2604489316865104 0 0 0 -1 I I #
straight-curve $-1 172.71034882656332 5.2604489316865104 0 0 0 -1 I I #
edge $-1 $667 $667 $425 $-1 forward #
point $-1 1.5 0 -0.75 #
plane-surface $-1 172.71034882656332 0 0 -1 0 0 0 0 1 forward_v I I I I #
coedge $-1 $434 $432 $436 $592 reversed $276 $-1 #
edge $-1 $447 $594 $446 $668 forward #
vertex $-1 $592 $669 #
straight-curve $-1 -172.71034882656332 -3.487168248993803 0 0 0 -1 I I #
edge $-1 $590 $594 $588 $670 forward #
straight-curve $-1 0 -3.487168248993803 -86.355174413281659 -1 0 0 I I #
vertex $-1 $439 $671 #
straight-curve $-1 0 3.487168248993803 -86.355174413281659 1 0 0 I I #
point $-1 172.71034882656332 3.487168248993803 -86.355174413281659 #
point $-1 172.71034882656332 -3.487168248993803 -86.355174413281659 #
straight-curve $-1 -172.71034882656332 0 86.355174413281659 0 -1 0 I I #
point $-1 -172.71034882656332 3.487168248993803 86.355174413281659 #
point $-1 -172.71034882656332 -3.487168248993803 86.355174413281659 #
straight-curve $-1 172.71034882656332 -3.487168248993803 0 0 0 -1 I I #
straight-curve $-1 172.71034882656332 3.487168248993803 0 0 0 -1 I I #
edge $-1 $672 $672 $456 $-1 forward #
point $-1 1.5 0 -0.75 #
plane-surface $-1 172.71034882656332 0 0 -1 0 0 0 0 1 forward_v I I I I #
coedge $-1 $465 $463 $467 $610 reversed $300 $-1 #
edge $-1 $478 $612 $477 $673 forward #
vertex $-1 $610 $674 #
straight-curve $-1 -172.71034882656332 -3.487168248993803 0 0 0 -1 I I #
edge $-1 $608 $612 $606 $675 forward #
straight-curve $-1 0 -3.487168248993803 -86.355174413281659 -1 0 0 I I #
vertex $-1 $470 $676 #
straight-curve $-1 0 3.487168248993803 -86.355174413281659 1 0 0 I I #
point $-1 172.71034882656332 3.487168248993803 -86.355174413281659 #
point $-1 172.71034882656332 -3.487168248993803 -86.355174413281659 #
straight-curve $-1 -172.71034882656332 0 86.355174413281659 0 -1 0 I I #
point $-1 -172.71034882656332 3.487168248993803 86.355174413281659 #
point $-1 -172.71034882656332 -3.487168248993803 86.355174413281659 #
straight-curve $-1 172.71034882656332 -3.487168248993803 0 0 0 -1 I I #
straight-curve $-1 172.71034882656332 3.487168248993803 0 0 0 -1 I I #
edge $-1 $677 $677 $487 $-1 forward #
point $-1 1.5 0 -0.75 #
plane-surface $-1 172.71034882656332 0 0 -1 0 0 0 0 1 forward_v I I I I #
coedge $-1 $496 $494 $498 $628 reversed $324 $-1 #
edge $-1 $509 $630 $508 $678 forward #
vertex $-1 $628 $679 #
straight-curve $-1 -172.71034882656332 -3.487168248993803 0 0 0 -1 I I #
edge $-1 $626 $630 $624 $680 forward #
straight-curve $-1 0 -3.487168248993803 -86.355174413281659 -1 0 0 I I #
vertex $-1 $501 $681 #
straight-curve $-1 0 3.487168248993803 -86.355174413281659 1 0 0 I I #
point $-1 172.71034882656332 3.487168248993803 -86.355174413281659 #
point $-1 172.71034882656332 -3.487168248993803 -86.355174413281659 #
straight-curve $-1 -172.71034882656332 0 86.355174413281659 0 -1 0 I I #
point $-1 -172.71034882656332 3.487168248993803 86.355174413281659 #
point $-1 -172.71034882656332 -3.487168248993803 86.355174413281659 #
straight-curve $-1 172.71034882656332 -3.487168248993803 0 0 0 -1 I I #
straight-curve $-1 172.71034882656332 3.487168248993803 0 0 0 -1 I I #
edge $-1 $682 $682 $518 $-1 forward #
point $-1 1.5 0 -0.75 #
plane-surface $-1 172.71034882656332 0 0 -1 0 0 0 0 1 forward_v I I I I #
coedge $-1 $527 $525 $529 $646 reversed $348 $-1 #
edge $-1 $540 $648 $539 $683 forward #
vertex $-1 $646 $684 #
straight-curve $-1 -172.71034882656332 -3.487168248993803 0 0 0 -1 I I #
edge $-1 $644 $648 $642 $685 forward #
straight-curve $-1 0 -3.487168248993803 -86.355174413281659 -1 0 0 I I #
vertex $-1 $532 $686 #
straight-curve $-1 0 3.487168248993803 -86.355174413281659 1 0 0 I I #
point $-1 172.71034882656332 3.487168248993803 -86.355174413281659 #
point $-1 172.71034882656332 -3.487168248993803 -86.355174413281659 #
straight-curve $-1 -172.71034882656332 0 86.355174413281659 0 -1 0 I I #
point $-1 -172.71034882656332 3.487168248993803 86.355174413281659 #
point $-1 -172.71034882656332 -3.487168248993803 86.355174413281659 #
straight-curve $-1 172.71034882656332 -3.487168248993803 0 0 0 -1 I I #
straight-curve $-1 172.71034882656332 3.487168248993803 0 0 0 -1 I I #
edge $-1 $687 $687 $549 $-1 forward #
point $-1 1.5 0 -0.75 #
straight-curve $-1 -43.17758720664083 22.059481617182289 0 0 0 -1 I I #
point $-1 -43.17758720664083 -22.059481617182289 -9.355032520651978 #
straight-curve $-1 -43.17758720664083 0 -9.355032520651978 0 1 0 I I #
point $-1 -43.17758720664083 22.059481617182289 -9.355032520651978 #
straight-curve $-1 -172.71034882656332 5.2604489316865104 0 0 0 -1 I I #
point $-1 -172.71034882656332 -5.2604489316865104 -86.355174413281659 #
straight-curve $-1 -172.71034882656332 0 -86.355174413281659 0 1 0 I I #
point $-1 -172.71034882656332 5.2604489316865104 -86.355174413281659 #
vertex $-1 $585 $688 #
straight-curve $-1 -172.71034882656332 3.487168248993803 0 0 0 -1 I I #
point $-1 -172.71034882656332 -3.487168248993803 -86.355174413281659 #
straight-curve $-1 -172.71034882656332 0 -86.355174413281659 0 1 0 I I #
point $-1 -172.71034882656332 3.487168248993803 -86.355174413281659 #
vertex $-1 $603 $689 #
straight-curve $-1 -172.71034882656332 3.487168248993803 0 0 0 -1 I I #
point $-1 -172.71034882656332 -3.487168248993803 -86.355174413281659 #
straight-curve $-1 -172.71034882656332 0 -86.355174413281659 0 1 0 I I #
point $-1 -172.71034882656332 3.487168248993803 -86.355174413281659 #
vertex $-1 $621 $690 #
straight-curve $-1 -172.71034882656332 3.487168248993803 0 0 0 -1 I I #
point $-1 -172.71034882656332 -3.487168248993803 -86.355174413281659 #
straight-curve $-1 -172.71034882656332 0 -86.355174413281659 0 1 0 I I #
point $-1 -172.71034882656332 3.487168248993803 -86.355174413281659 #
vertex $-1 $639 $691 #
straight-curve $-1 -172.71034882656332 3.487168248993803 0 0 0 -1 I I #
point $-1 -172.71034882656332 -3.487168248993803 -86.355174413281659 #
straight-curve $-1 -172.71034882656332 0 -86.355174413281659 0 1 0 I I #
point $-1 -172.71034882656332 3.487168248993803 -86.355174413281659 #
vertex $-1 $657 $692 #
point $-1 0 0 0.75 #
point $-1 0 0 0.75 #
point $-1 0 0 0.75 #
point $-1 0 0 0.75 #
point $-1 0 0 0.75 #
End-of-ACIS-data 