300 0 8 0           
7 Unknown 11 ACIS 3.0 NT 24 Fri Oct 30 19:23:41 1998 
-1 9.9999999999999995e-007 1e-010 
body $8 $9 $-1 $10 #
body $11 $12 $-1 $13 #
body $14 $15 $-1 $16 #
body $17 $18 $-1 $19 #
body $20 $21 $-1 $22 #
body $23 $24 $-1 $25 #
body $26 $27 $-1 $28 #
body $29 $30 $-1 $31 #
display_attribute-st-attrib $-1 $32 $-1 $0 1 #
lump $-1 $-1 $33 $0 #
transform $-1 1 0 0 0 1 0 0 0 1 68.843653675954471 31.4629805147909 8.3398454927584567 1 rotate no_reflect no_shear #
display_attribute-st-attrib $-1 $34 $-1 $1 3 #
lump $-1 $-1 $35 $1 #
transform $-1 1 0 0 0 1 0 0 0 1 68.843653675954471 31.4629805147909 8.3398454927584567 1 rotate no_reflect no_shear #
display_attribute-st-attrib $-1 $36 $-1 $2 3 #
lump $-1 $-1 $37 $2 #
transform $-1 1 0 0 0 1 0 0 0 1 68.843653675954471 31.4629805147909 8.3398454927584567 1 rotate no_reflect no_shear #
display_attribute-st-attrib $-1 $38 $-1 $3 3 #
lump $-1 $-1 $39 $3 #
transform $-1 1 0 0 0 1 0 0 0 1 68.843653675954471 31.4629805147909 8.3398454927584567 1 rotate no_reflect no_shear #
display_attribute-st-attrib $-1 $40 $-1 $4 3 #
lump $-1 $-1 $41 $4 #
transform $-1 1 0 0 0 1 0 0 0 1 68.843653675954471 31.4629805147909 8.3398454927584567 1 rotate no_reflect no_shear #
display_attribute-st-attrib $-1 $42 $-1 $5 3 #
lump $-1 $-1 $43 $5 #
transform $-1 1 0 0 0 1 0 0 0 1 68.843653675954471 31.4629805147909 8.3398454927584567 1 rotate no_reflect no_shear #
display_attribute-st-attrib $-1 $44 $-1 $6 3 #
lump $-1 $-1 $45 $6 #
transform $-1 1 0 0 0 1 0 0 0 1 68.843653675954471 31.4629805147909 8.3398454927584567 1 rotate no_reflect no_shear #
display_attribute-st-attrib $-1 $46 $-1 $7 3 #
lump $-1 $-1 $47 $7 #
transform $-1 1 0 0 0 1 0 0 0 1 68.843653675954471 31.4629805147909 8.3398454927584567 1 rotate no_reflect no_shear #
id_attribute-st-attrib $-1 $-1 $8 $0 3598 #
shell $-1 $-1 $-1 $48 $-1 $9 #
id_attribute-st-attrib $-1 $-1 $11 $1 3603 #
shell $-1 $-1 $-1 $49 $-1 $12 #
id_attribute-st-attrib $-1 $-1 $14 $2 3615 #
shell $-1 $-1 $-1 $50 $-1 $15 #
id_attribute-st-attrib $-1 $-1 $17 $3 3623 #
shell $-1 $-1 $-1 $51 $-1 $18 #
id_attribute-st-attrib $-1 $-1 $20 $4 3632 #
shell $-1 $-1 $-1 $52 $-1 $21 #
id_attribute-st-attrib $-1 $-1 $23 $5 3647 #
shell $-1 $-1 $-1 $53 $-1 $24 #
id_attribute-st-attrib $-1 $-1 $26 $6 3658 #
shell $-1 $-1 $-1 $54 $-1 $27 #
id_attribute-st-attrib $-1 $-1 $29 $7 3670 #
shell $-1 $-1 $-1 $55 $-1 $30 #
face $-1 $56 $57 $33 $-1 $58 forward single #
face $-1 $59 $60 $35 $-1 $61 reversed single #
face $-1 $62 $63 $37 $-1 $64 reversed single #
face $-1 $65 $66 $39 $-1 $67 forward single #
face $-1 $68 $69 $41 $-1 $70 forward single #
face $-1 $71 $72 $43 $-1 $73 reversed single #
face $-1 $74 $75 $45 $-1 $76 forward single #
face $-1 $77 $78 $47 $-1 $79 forward single #
face $-1 $80 $81 $33 $-1 $82 reversed single #
loop $-1 $-1 $83 $48 #
plane-surface $-1 0 0 8.3398454927584567 0 0 1 1 0 0 forward_v I I I I #
face $-1 $84 $85 $35 $-1 $86 reversed single #
loop $-1 $-1 $87 $49 #
plane-surface $-1 0 -27.015799328851092 5.2189764030308154 0 0 1 1 0 0 forward_v I I I I #
face $-1 $88 $89 $37 $-1 $90 reversed single #
loop $-1 $-1 $91 $50 #
plane-surface $-1 75.639260116539901 12.98770484455326 194.9112492536342 0 -1 0 -0.73135370988377701 0 -0.68199835119979291 forward_v I I I I #
face $-1 $92 $93 $39 $-1 $94 forward single #
loop $-1 $95 $96 $51 #
cone-surface $-1 64.536894169052744 7.6085739842018825 3.8001583446730645 -0.73135370988377701 0 -0.68199835119979291 0.34099917559989645 0 -0.36567685494188851 1 I I 0 1 forward I I I I #
face $-1 $97 $98 $41 $-1 $99 forward single #
loop $-1 $100 $101 $52 #
cone-surface $-1 64.536894169052744 10.836052500412713 3.8001583446730645 -0.73135370988377701 0 -0.68199835119979291 0.34099917559989645 0 -0.36567685494188851 1 I I 0 1 forward I I I I #
face $-1 $102 $103 $43 $-1 $104 reversed single #
loop $-1 $-1 $105 $53 #
plane-surface $-1 -68.843653675954457 -19.344281911029704 0.042533636695750943 -0.87461971476443456 0 0.48480960649040278 0.48480960649040278 0 0.87461971476443456 forward_v I I I I #
face $-1 $106 $107 $45 $-1 $108 forward single #
loop $-1 $109 $110 $54 #
cone-surface $-1 -65.982554787740767 -20.726140296121812 3.8799664173494413 0.87461971476443456 0 -0.48480960649040278 0.24240480324520139 0 0.43730985738221728 1 I I 0 1 forward I I I I #
face $-1 $111 $112 $47 $-1 $113 forward single #
loop $-1 $114 $115 $55 #
cone-surface $-1 -65.982554787740767 -17.962423525937602 3.8799664173494413 0.87461971476443456 0 -0.48480960649040278 0.24240480324520139 0 0.43730985738221728 1 I I 0 1 forward I I I I #
face $-1 $116 $117 $33 $-1 $118 reversed single #
loop $-1 $-1 $119 $56 #
plane-surface $-1 0 0 -8.3398454927584567 0 0 1 1 0 0 forward_v I I I I #
coedge $-1 $120 $121 $122 $123 forward $57 $-1 #
face $-1 $124 $125 $35 $-1 $126 reversed single #
loop $-1 $-1 $127 $59 #
plane-surface $-1 0 -22.568618142911284 6.7794109478946361 0 -1 0 0 0 -1 forward_v I I I I #
coedge $-1 $128 $129 $130 $131 reversed $60 $-1 #
face $-1 $132 $133 $37 $-1 $134 reversed single #
loop $-1 $-1 $135 $62 #
plane-surface $-1 -25.058862919186552 9.222313242307294 101.00873265849317 0.73135370988377701 0 0.68199835119979291 0.68199835119979291 0 -0.73135370988377701 forward_v I I I I #
coedge $-1 $136 $137 $138 $139 reversed $63 $-1 #
face $-1 $-1 $140 $39 $-1 $141 forward single #
loop $-1 $142 $143 $65 #
cone-surface $-1 63.790987933187211 7.6085739842018825 3.1045895437835753 -0.73135370988377701 0 -0.68199835119979291 0.17049958779994823 0 -0.18283842747094425 1 I I -0.70710678118654746 0.70710678118654746 forward I I I I #
loop $-1 $-1 $144 $51 #
coedge $-1 $96 $96 $145 $146 reversed $66 $-1 #
face $-1 $-1 $147 $41 $-1 $148 forward single #
loop $-1 $149 $150 $68 #
cone-surface $-1 63.790987933187211 10.836052500412713 3.1045895437835753 -0.73135370988377701 0 -0.68199835119979291 0.17049958779994823 0 -0.18283842747094425 1 I I -0.70710678118654746 0.70710678118654746 forward I I I I #
loop $-1 $-1 $151 $52 #
coedge $-1 $101 $101 $152 $153 reversed $69 $-1 #
face $-1 $154 $155 $43 $-1 $156 forward single #
loop $-1 $-1 $157 $71 #
plane-surface $-1 -189.26768715876409 -16.119945679148124 66.794662932697861 0 -1 0 0.87461971476443456 0 -0.48480960649040278 forward_v I I I I #
coedge $-1 $158 $159 $160 $161 reversed $72 $-1 #
face $-1 $-1 $162 $45 $-1 $163 forward single #
loop $-1 $164 $165 $74 #
cone-surface $-1 -65.202438417808736 -20.726140296121812 3.4475408683491739 0.87461971476443456 0 -0.48480960649040278 0.12120240162260069 0 0.21865492869110864 1 I I -0.70710678118654746 0.70710678118654746 forward I I I I #
loop $-1 $-1 $166 $54 #
coedge $-1 $110 $110 $167 $168 reversed $75 $-1 #
face $-1 $-1 $169 $47 $-1 $170 forward single #
loop $-1 $171 $172 $77 #
cone-surface $-1 -65.202438417808736 -17.962423525937602 3.4475408683491739 0.87461971476443456 0 -0.48480960649040278 0.12120240162260069 0 0.21865492869110864 1 I I -0.70710678118654746 0.70710678118654746 forward I I I I #
loop $-1 $-1 $173 $55 #
coedge $-1 $115 $115 $174 $175 reversed $78 $-1 #
face $-1 $176 $177 $33 $-1 $178 reversed single #
loop $-1 $-1 $179 $80 #
plane-surface $-1 0 -31.4629805147909 0 0 1 0 0 0 1 forward_v I I I I #
coedge $-1 $180 $181 $182 $183 forward $81 $-1 #
coedge $-1 $184 $83 $185 $186 forward $57 $-1 #
coedge $-1 $83 $184 $187 $188 forward $57 $-1 #
coedge $-1 $189 $190 $83 $123 reversed $191 $-1 #
edge $-1 $192 $193 $122 $194 forward #
face $-1 $195 $196 $35 $-1 $197 reversed single #
loop $-1 $-1 $198 $84 #
plane-surface $-1 -68.843653675954471 0 0 1 0 0 0 0 -1 forward_v I I I I #
coedge $-1 $199 $200 $201 $202 reversed $85 $-1 #
coedge $-1 $203 $87 $204 $205 reversed $60 $-1 #
coedge $-1 $87 $203 $199 $206 forward $60 $-1 #
coedge $-1 $201 $207 $87 $131 forward $208 $-1 #
edge $-1 $209 $210 $130 $211 forward #
face $-1 $212 $213 $37 $-1 $214 reversed single #
loop $-1 $-1 $215 $88 #
plane-surface $-1 75.639260116539901 5.4569216400613278 194.9112492536342 0 1 0 0.73135370988377701 0 0.68199835119979291 forward_v I I I I #
coedge $-1 $216 $217 $218 $219 reversed $89 $-1 #
coedge $-1 $137 $91 $220 $221 reversed $63 $-1 #
coedge $-1 $91 $136 $216 $222 reversed $63 $-1 #
coedge $-1 $218 $223 $91 $139 forward $224 $-1 #
edge $-1 $225 $226 $138 $227 forward #
loop $-1 $-1 $145 $92 #
plane-surface $-1 -25.058862919186552 9.222313242307294 101.00873265849317 0.73135370988377701 0 0.68199835119979291 0.68199835119979291 0 -0.73135370988377701 forward_v I I I I #
loop $-1 $-1 $228 $65 #
coedge $-1 $143 $143 $144 $229 reversed $93 $-1 #
coedge $-1 $144 $144 $143 $229 forward $95 $-1 #
coedge $-1 $145 $145 $96 $146 forward $140 $-1 #
edge $-1 $230 $230 $145 $231 forward #
loop $-1 $-1 $152 $97 #
plane-surface $-1 -25.058862919186552 9.222313242307294 101.00873265849317 0.73135370988377701 0 0.68199835119979291 0.68199835119979291 0 -0.73135370988377701 forward_v I I I I #
loop $-1 $-1 $232 $68 #
coedge $-1 $150 $150 $151 $233 reversed $98 $-1 #
coedge $-1 $151 $151 $150 $233 forward $100 $-1 #
coedge $-1 $152 $152 $101 $153 forward $147 $-1 #
edge $-1 $234 $234 $152 $235 forward #
face $-1 $236 $237 $43 $-1 $238 reversed single #
loop $-1 $-1 $160 $102 #
plane-surface $-1 0 0 8.3398454927584567 0 0 1 1 0 0 forward_v I I I I #
coedge $-1 $239 $240 $241 $242 reversed $103 $-1 #
coedge $-1 $243 $105 $244 $245 reversed $72 $-1 #
coedge $-1 $105 $243 $239 $246 forward $72 $-1 #
coedge $-1 $241 $247 $105 $161 forward $155 $-1 #
edge $-1 $248 $249 $160 $250 forward #
loop $-1 $-1 $167 $106 #
plane-surface $-1 -68.843653675954457 -19.344281911029704 0.042533636695750943 -0.87461971476443456 0 0.48480960649040278 0.48480960649040278 0 0.87461971476443456 forward_v I I I I #
loop $-1 $-1 $251 $74 #
coedge $-1 $165 $165 $166 $252 reversed $107 $-1 #
coedge $-1 $166 $166 $165 $252 forward $109 $-1 #
coedge $-1 $167 $167 $110 $168 forward $162 $-1 #
edge $-1 $253 $253 $167 $254 forward #
loop $-1 $-1 $174 $111 #
plane-surface $-1 -68.843653675954457 -19.344281911029704 0.042533636695750943 -0.87461971476443456 0 0.48480960649040278 0.48480960649040278 0 0.87461971476443456 forward_v I I I I #
loop $-1 $-1 $255 $77 #
coedge $-1 $172 $172 $173 $256 reversed $112 $-1 #
coedge $-1 $173 $173 $172 $256 forward $114 $-1 #
coedge $-1 $174 $174 $115 $175 forward $169 $-1 #
edge $-1 $257 $257 $174 $258 forward #
face $-1 $259 $260 $33 $-1 $261 reversed single #
loop $-1 $-1 $262 $116 #
plane-surface $-1 -68.843653675954471 0 0 1 0 0 0 0 -1 forward_v I I I I #
coedge $-1 $263 $187 $264 $265 forward $117 $-1 #
coedge $-1 $266 $119 $263 $267 forward $81 $-1 #
coedge $-1 $119 $266 $268 $269 forward $81 $-1 #
coedge $-1 $190 $189 $119 $183 reversed $191 $-1 #
edge $-1 $270 $271 $182 $272 forward #
coedge $-1 $121 $120 $273 $274 forward $57 $-1 #
coedge $-1 $275 $276 $120 $186 reversed $260 $-1 #
edge $-1 $193 $277 $185 $278 forward #
coedge $-1 $179 $279 $121 $188 reversed $117 $-1 #
edge $-1 $280 $192 $187 $281 forward #
coedge $-1 $182 $122 $279 $282 forward $191 $-1 #
coedge $-1 $122 $182 $275 $283 reversed $191 $-1 #
loop $-1 $-1 $189 $259 #
vertex $-1 $123 $284 #
vertex $-1 $123 $285 #
straight-curve $-1 68.843653675954471 0 8.3398454927584567 0 1 0 I I #
face $-1 $286 $287 $35 $-1 $288 forward single #
loop $-1 $-1 $204 $124 #
plane-surface $-1 0 -31.4629805147909 0 0 1 0 0 0 1 forward_v I I I I #
coedge $-1 $289 $290 $291 $292 forward $125 $-1 #
coedge $-1 $291 $127 $129 $206 reversed $85 $-1 #
coedge $-1 $127 $291 $293 $294 reversed $85 $-1 #
coedge $-1 $295 $130 $127 $202 forward $208 $-1 #
edge $-1 $210 $296 $201 $297 forward #
coedge $-1 $129 $128 $289 $298 reversed $60 $-1 #
coedge $-1 $299 $300 $128 $205 forward $196 $-1 #
edge $-1 $301 $209 $204 $302 forward #
edge $-1 $303 $210 $199 $304 forward #
coedge $-1 $130 $295 $299 $305 forward $208 $-1 #
loop $-1 $-1 $201 $286 #
vertex $-1 $205 $306 #
vertex $-1 $131 $307 #
straight-curve $-1 68.843653675954471 -13.507899664425546 5.2189764030308154 0 1 0 I I #
face $-1 $-1 $224 $37 $-1 $308 forward single #
loop $-1 $-1 $309 $132 #
plane-surface $-1 68.843653675954471 0 0 -1 0 0 0 0 1 forward_v I I I I #
coedge $-1 $310 $311 $312 $313 reversed $133 $-1 #
coedge $-1 $314 $135 $137 $222 forward $89 $-1 #
coedge $-1 $135 $314 $310 $315 forward $89 $-1 #
coedge $-1 $312 $138 $135 $219 forward $224 $-1 #
edge $-1 $226 $316 $218 $317 forward #
coedge $-1 $318 $319 $136 $221 forward $213 $-1 #
edge $-1 $320 $225 $220 $321 forward #
edge $-1 $226 $320 $137 $322 forward #
coedge $-1 $138 $312 $318 $323 forward $224 $-1 #
loop $-1 $-1 $312 $212 #
vertex $-1 $221 $324 #
vertex $-1 $139 $325 #
straight-curve $-1 37.819630058269951 12.98770484455326 8.3398454927584567 -1 0 0 I I #
coedge $-1 $228 $228 $-1 $326 reversed $142 $-1 #
edge $-1 $327 $327 $143 $328 forward #
vertex $-1 $146 $329 #
ellipse-curve $-1 65.099961977447322 7.6085739842018825 4.3252275577625952 0.73135370988377701 0 0.68199835119979291 0.34099917559989645 0 -0.36567685494188851 1 I I #
coedge $-1 $232 $232 $-1 $330 reversed $149 $-1 #
edge $-1 $331 $331 $150 $332 forward #
vertex $-1 $153 $333 #
ellipse-curve $-1 65.099961977447322 10.836052500412713 4.3252275577625952 0.73135370988377701 0 0.68199835119979291 0.34099917559989645 0 -0.36567685494188851 1 I I #
face $-1 $-1 $334 $43 $-1 $335 forward single #
loop $-1 $-1 $336 $154 #
plane-surface $-1 -68.843653675954471 0 0 1 0 0 0 0 -1 forward_v I I I I #
coedge $-1 $240 $157 $159 $246 reversed $103 $-1 #
coedge $-1 $157 $239 $336 $337 reversed $103 $-1 #
coedge $-1 $338 $160 $157 $242 forward $155 $-1 #
edge $-1 $249 $339 $241 $340 forward #
coedge $-1 $159 $158 $341 $342 reversed $72 $-1 #
coedge $-1 $343 $344 $158 $245 forward $334 $-1 #
edge $-1 $345 $248 $244 $346 forward #
edge $-1 $347 $249 $239 $348 forward #
coedge $-1 $160 $338 $343 $349 forward $155 $-1 #
vertex $-1 $245 $350 #
vertex $-1 $161 $351 #
straight-curve $-1 -64.24437878200888 -9.6721409555148519 8.3398454927584567 0 1 0 I I #
coedge $-1 $251 $251 $-1 $352 reversed $164 $-1 #
edge $-1 $353 $353 $165 $354 forward #
vertex $-1 $168 $355 #
ellipse-curve $-1 -66.544016228981661 -20.726140296121812 4.1911895647270976 -0.87461971476443456 0 0.48480960649040278 0.24240480324520139 0 0.43730985738221728 1 I I #
coedge $-1 $255 $255 $-1 $356 reversed $171 $-1 #
edge $-1 $357 $357 $172 $358 forward #
vertex $-1 $175 $359 #
ellipse-curve $-1 -66.544016228981661 -17.962423525937602 4.1911895647270976 -0.87461971476443456 0 0.48480960649040278 0.24240480324520139 0 0.43730985738221728 1 I I #
face $-1 $-1 $191 $33 $-1 $360 reversed single #
loop $-1 $-1 $275 $176 #
plane-surface $-1 0 31.4629805147909 0 0 -1 0 0 0 -1 forward_v I I I I #
coedge $-1 $361 $273 $276 $362 forward $177 $-1 #
coedge $-1 $279 $179 $180 $267 reversed $117 $-1 #
coedge $-1 $273 $361 $179 $265 reversed $177 $-1 #
edge $-1 $280 $363 $264 $364 forward #
coedge $-1 $181 $180 $361 $365 forward $81 $-1 #
edge $-1 $271 $363 $263 $366 forward #
coedge $-1 $276 $275 $181 $269 reversed $260 $-1 #
edge $-1 $367 $270 $268 $368 forward #
vertex $-1 $183 $369 #
vertex $-1 $282 $370 #
straight-curve $-1 68.843653675954471 0 -8.3398454927584567 0 -1 0 I I #
coedge $-1 $262 $264 $184 $274 reversed $177 $-1 #
edge $-1 $277 $280 $273 $371 forward #
coedge $-1 $268 $185 $190 $283 forward $260 $-1 #
coedge $-1 $185 $268 $262 $362 reversed $260 $-1 #
vertex $-1 $186 $372 #
straight-curve $-1 0 31.4629805147909 8.3398454927584567 -1 0 0 I I #
coedge $-1 $187 $263 $189 $282 reversed $117 $-1 #
vertex $-1 $274 $373 #
straight-curve $-1 0 -31.4629805147909 8.3398454927584567 1 0 0 I I #
edge $-1 $192 $271 $189 $374 forward #
edge $-1 $193 $270 $190 $375 forward #
point $-1 68.843653675954471 -31.4629805147909 8.3398454927584567 #
point $-1 68.843653675954471 31.4629805147909 8.3398454927584567 #
face $-1 $-1 $208 $35 $-1 $376 reversed single #
loop $-1 $-1 $293 $195 #
plane-surface $-1 0 0 8.3398454927584567 0 0 1 1 0 0 forward_v I I I I #
coedge $-1 $377 $198 $203 $298 forward $125 $-1 #
coedge $-1 $198 $377 $378 $379 reversed $125 $-1 #
coedge $-1 $200 $199 $198 $292 reversed $85 $-1 #
edge $-1 $380 $303 $198 $381 forward #
coedge $-1 $378 $382 $200 $294 forward $287 $-1 #
edge $-1 $296 $380 $293 $383 forward #
coedge $-1 $207 $201 $382 $384 reversed $208 $-1 #
vertex $-1 $202 $385 #
straight-curve $-1 68.843653675954471 -22.568618142911284 3.389705473947318 0 0 1 I I #
edge $-1 $303 $301 $289 $386 forward #
coedge $-1 $387 $204 $207 $305 reversed $196 $-1 #
coedge $-1 $204 $387 $377 $388 forward $196 $-1 #
vertex $-1 $205 $389 #
straight-curve $-1 0 -31.4629805147909 5.2189764030308154 1 0 0 I I #
vertex $-1 $298 $390 #
straight-curve $-1 0 -22.568618142911284 5.2189764030308154 1 0 0 I I #
edge $-1 $391 $209 $207 $392 forward #
point $-1 68.843653675954471 -31.4629805147909 5.2189764030308154 #
point $-1 68.843653675954471 -22.568618142911284 5.2189764030308154 #
plane-surface $-1 0 0 8.3398454927584567 0 0 1 1 0 0 forward_v I I I I #
coedge $-1 $319 $318 $311 $393 forward $213 $-1 #
coedge $-1 $311 $215 $217 $315 reversed $133 $-1 #
coedge $-1 $215 $310 $309 $393 reversed $133 $-1 #
coedge $-1 $223 $218 $215 $313 forward $224 $-1 #
edge $-1 $316 $394 $312 $395 forward #
coedge $-1 $217 $216 $319 $396 reversed $89 $-1 #
edge $-1 $397 $316 $310 $398 forward #
vertex $-1 $219 $399 #
straight-curve $-1 61.356270278940187 4.611156621153647 8.3398454927584496 0 -1 0 I I #
coedge $-1 $309 $220 $223 $323 reversed $213 $-1 #
coedge $-1 $220 $309 $314 $396 forward $213 $-1 #
vertex $-1 $221 $400 #
straight-curve $-1 68.843653675954471 12.98770484455326 97.455624626817098 0 0 1 I I #
straight-curve $-1 -25.058862919186552 12.98770484455326 101.00873265849317 0.68199835119979291 0 -0.73135370988377701 I I #
edge $-1 $394 $225 $318 $401 forward #
point $-1 68.843653675954471 12.98770484455326 8.3398454927584567 #
point $-1 61.356270278940187 12.98770484455326 8.3398454927584567 #
edge $-1 $402 $402 $228 $-1 forward #
vertex $-1 $229 $403 #
ellipse-curve $-1 63.973826360658151 7.6085739842018825 3.2750891315835235 0.73135370988377701 0 0.68199835119979291 0.34099917559989645 0 -0.36567685494188851 1 I I #
point $-1 65.440961153047226 7.6085739842018825 3.9595507028207164 #
edge $-1 $404 $404 $232 $-1 forward #
vertex $-1 $233 $405 #
ellipse-curve $-1 63.973826360658151 10.836052500412713 3.2750891315835235 0.73135370988377701 0 0.68199835119979291 0.34099917559989645 0 -0.36567685494188851 1 I I #
point $-1 65.440961153047226 10.836052500412713 3.9595507028207164 #
loop $-1 $-1 $244 $236 #
plane-surface $-1 0 -22.568618142911284 6.7794109478946361 0 -1 0 0 0 -1 forward_v I I I I #
coedge $-1 $341 $406 $240 $337 forward $237 $-1 #
edge $-1 $339 $347 $336 $407 forward #
coedge $-1 $247 $241 $406 $408 forward $155 $-1 #
vertex $-1 $408 $409 #
straight-curve $-1 -94.633843579382045 -16.119945679148124 8.3398454927584567 -1 0 0 I I #
coedge $-1 $410 $336 $243 $342 forward $237 $-1 #
edge $-1 $347 $345 $341 $411 forward #
coedge $-1 $344 $244 $247 $349 reversed $334 $-1 #
coedge $-1 $244 $343 $410 $412 reversed $334 $-1 #
vertex $-1 $412 $413 #
straight-curve $-1 -59.324836325480547 -22.568618142911284 17.214935347615743 0.48480960649040278 0 0.87461971476443456 I I #
vertex $-1 $342 $414 #
straight-curve $-1 -68.843653675954457 -16.119945679148124 0.042533636695750943 0.48480960649040278 0 0.87461971476443456 I I #
edge $-1 $415 $248 $247 $416 forward #
point $-1 -64.244378782008866 -22.568618142911284 8.3398454927584567 #
point $-1 -64.244378782008866 -16.119945679148124 8.3398454927584567 #
edge $-1 $417 $417 $251 $-1 forward #
vertex $-1 $252 $418 #
ellipse-curve $-1 -65.421093346499845 -20.726140296121812 3.5687432699717747 -0.87461971476443456 0 0.48480960649040278 0.24240480324520139 0 0.43730985738221728 1 I I #
point $-1 -66.301611425736482 -20.726140296121812 4.628499422109325 #
edge $-1 $419 $419 $255 $-1 forward #
vertex $-1 $256 $420 #
ellipse-curve $-1 -65.421093346499845 -17.962423525937602 3.5687432699717747 -0.87461971476443456 0 0.48480960649040278 0.24240480324520139 0 0.43730985738221728 1 I I #
point $-1 -66.301611425736482 -17.962423525937602 4.628499422109325 #
plane-surface $-1 68.843653675954471 0 0 -1 0 0 0 0 1 forward_v I I I I #
coedge $-1 $264 $262 $266 $365 reversed $177 $-1 #
edge $-1 $277 $367 $276 $421 forward #
vertex $-1 $365 $422 #
straight-curve $-1 -68.843653675954471 -31.4629805147909 0 0 0 -1 I I #
edge $-1 $363 $367 $361 $423 forward #
straight-curve $-1 0 -31.4629805147909 -8.3398454927584567 -1 0 0 I I #
vertex $-1 $269 $424 #
straight-curve $-1 0 31.4629805147909 -8.3398454927584567 1 0 0 I I #
point $-1 68.843653675954471 31.4629805147909 -8.3398454927584567 #
point $-1 68.843653675954471 -31.4629805147909 -8.3398454927584567 #
straight-curve $-1 -68.843653675954471 0 8.3398454927584567 0 -1 0 I I #
point $-1 -68.843653675954471 31.4629805147909 8.3398454927584567 #
point $-1 -68.843653675954471 -31.4629805147909 8.3398454927584567 #
straight-curve $-1 68.843653675954471 -31.4629805147909 0 0 0 -1 I I #
straight-curve $-1 68.843653675954471 31.4629805147909 0 0 0 -1 I I #
plane-surface $-1 68.843653675954471 0 0 -1 0 0 0 0 1 forward_v I I I I #
coedge $-1 $290 $289 $300 $388 reversed $125 $-1 #
coedge $-1 $425 $293 $290 $379 forward $287 $-1 #
edge $-1 $380 $426 $290 $427 forward #
vertex $-1 $379 $428 #
straight-curve $-1 -68.843653675954471 -22.568618142911284 3.389705473947318 0 0 -1 I I #
coedge $-1 $293 $425 $295 $384 forward $287 $-1 #
straight-curve $-1 0 -22.568618142911284 8.3398454927584567 -1 0 0 I I #
edge $-1 $391 $296 $295 $429 forward #
point $-1 68.843653675954471 -22.568618142911284 8.3398454927584567 #
straight-curve $-1 -68.843653675954471 -13.507899664425546 5.2189764030308154 0 -1 0 I I #
coedge $-1 $300 $299 $425 $430 reversed $196 $-1 #
edge $-1 $426 $301 $377 $431 forward #
point $-1 -68.843653675954471 -31.4629805147909 5.2189764030308154 #
point $-1 -68.843653675954471 -22.568618142911284 5.2189764030308154 #
vertex $-1 $384 $432 #
straight-curve $-1 68.843653675954471 -31.4629805147909 0 0 0 -1 I I #
edge $-1 $394 $397 $309 $433 forward #
vertex $-1 $323 $434 #
straight-curve $-1 37.819630058269951 5.4569216400613278 8.3398454927584567 1 0 0 I I #
edge $-1 $397 $320 $319 $435 forward #
vertex $-1 $396 $436 #
straight-curve $-1 -25.058862919186552 5.4569216400613278 101.00873265849317 -0.68199835119979291 0 0.73135370988377701 I I #
point $-1 61.356270278940187 5.4569216400613278 8.3398454927584567 #
point $-1 68.843653675954471 12.98770484455326 0.31060962276671944 #
straight-curve $-1 68.843653675954471 0 8.3398454927584567 0 1 0 I I #
vertex $-1 $326 $437 #
point $-1 64.314825536258056 7.6085739842018825 2.909412276641635 #
vertex $-1 $330 $438 #
point $-1 64.314825536258056 10.836052500412713 2.909412276641635 #
coedge $-1 $336 $410 $338 $408 reversed $237 $-1 #
straight-curve $-1 -68.843653675954471 -16.119945679148124 33.39733146634893 0 0 -1 I I #
edge $-1 $339 $415 $406 $439 forward #
point $-1 -68.843653675954471 -16.119945679148124 8.3398454927584567 #
coedge $-1 $406 $341 $344 $412 forward $237 $-1 #
straight-curve $-1 -68.843653675954471 -9.6721409555148519 0.042533636695741062 0 -1 0 I I #
edge $-1 $345 $415 $410 $440 forward #
point $-1 -68.843653675954471 -22.568618142911284 0.042533636695725303 #
point $-1 -68.843653675954471 -16.119945679148124 0.042533636695725303 #
vertex $-1 $412 $441 #
straight-curve $-1 0 -22.568618142911284 8.3398454927584567 1 0 0 I I #
vertex $-1 $352 $442 #
point $-1 -65.178688543254637 -20.726140296121812 4.0060531273539919 #
vertex $-1 $356 $443 #
point $-1 -65.178688543254637 -17.962423525937602 4.0060531273539919 #
straight-curve $-1 -68.843653675954471 31.4629805147909 0 0 0 -1 I I #
point $-1 -68.843653675954471 -31.4629805147909 -8.3398454927584567 #
straight-curve $-1 -68.843653675954471 0 -8.3398454927584567 0 1 0 I I #
point $-1 -68.843653675954471 31.4629805147909 -8.3398454927584567 #
coedge $-1 $382 $378 $387 $430 forward $287 $-1 #
vertex $-1 $379 $444 #
straight-curve $-1 -68.843653675954471 0 8.3398454927584567 0 -1 0 I I #
point $-1 -68.843653675954471 -22.568618142911284 8.3398454927584567 #
straight-curve $-1 68.843653675954471 0 8.3398454927584567 0 1 0 I I #
edge $-1 $426 $391 $387 $445 forward #
straight-curve $-1 -68.843653675954471 -31.4629805147909 0 0 0 -1 I I #
point $-1 68.843653675954471 -31.4629805147909 8.3398454927584567 #
straight-curve $-1 68.843653675954471 5.4569216400613278 97.455624626817098 0 0 -1 I I #
point $-1 68.843653675954471 5.4569216400613278 8.3398454927584567 #
straight-curve $-1 68.843653675954471 4.611156621153647 0.31060962276672655 0 1 0 I I #
point $-1 68.843653675954471 5.4569216400613278 0.31060962276671944 #
point $-1 63.60814950571627 7.6085739842018825 2.9340899559836271 #
point $-1 63.60814950571627 10.836052500412713 2.9340899559836271 #
straight-curve $-1 -68.843653675954471 0 8.3398454927584567 0 -1 0 I I #
straight-curve $-1 -68.843653675954471 -22.568618142911284 33.39733146634893 0 0 1 I I #
point $-1 -68.843653675954471 -22.568618142911284 8.3398454927584567 #
point $-1 -64.983783489117627 -20.726140296121812 3.3263384667265732 #
point $-1 -64.983783489117627 -17.962423525937602 3.3263384667265732 #
point $-1 -68.843653675954471 -31.4629805147909 8.3398454927584567 #
straight-curve $-1 0 -31.4629805147909 8.3398454927584567 1 0 0 I I #
End-of-ACIS-data 