300 0 37 0           
7 Unknown 11 ACIS 3.0 NT 24 Wed Oct 28 12:27:25 1998 
-1 9.9999999999999995e-007 1e-010 
body $37 $38 $-1 $39 #
body $40 $41 $-1 $42 #
body $43 $44 $-1 $45 #
body $46 $47 $-1 $48 #
body $49 $50 $-1 $51 #
body $52 $53 $-1 $54 #
body $55 $56 $-1 $57 #
body $58 $59 $-1 $60 #
body $61 $62 $-1 $63 #
body $64 $65 $-1 $66 #
body $67 $-1 $-1 $68 #
body $69 $-1 $-1 $70 #
body $71 $-1 $-1 $72 #
body $73 $-1 $-1 $74 #
body $75 $-1 $-1 $76 #
body $77 $-1 $-1 $78 #
body $79 $80 $-1 $81 #
body $82 $83 $-1 $84 #
body $85 $-1 $-1 $86 #
body $87 $-1 $-1 $88 #
body $89 $-1 $-1 $90 #
body $91 $-1 $-1 $92 #
body $93 $-1 $-1 $94 #
body $95 $-1 $-1 $96 #
body $97 $-1 $-1 $98 #
body $99 $-1 $-1 $100 #
body $101 $-1 $-1 $102 #
body $103 $-1 $-1 $104 #
body $105 $-1 $-1 $106 #
body $107 $-1 $-1 $108 #
body $109 $-1 $-1 $110 #
body $111 $112 $-1 $113 #
body $114 $115 $-1 $116 #
body $117 $118 $-1 $119 #
body $120 $-1 $-1 $121 #
body $122 $-1 $-1 $123 #
body $124 $-1 $-1 $125 #
display_attribute-st-attrib $-1 $126 $-1 $0 9 #
lump $-1 $-1 $127 $0 #
transform $-1 1 0 0 0 1 0 0 0 1 43.512070070497757 25.446865674426753 12.328531528108302 1 rotate no_reflect no_shear #
display_attribute-st-attrib $-1 $128 $-1 $1 1 #
lump $-1 $-1 $129 $1 #
transform $-1 1 0 0 0 1 0 0 0 1 43.512070070497757 25.446865674426753 12.328531528108302 1 rotate no_reflect no_shear #
display_attribute-st-attrib $-1 $130 $-1 $2 1 #
lump $-1 $-1 $131 $2 #
transform $-1 1 0 0 0 1 0 0 0 1 43.512070070497757 25.446865674426753 12.328531528108302 1 rotate no_reflect no_shear #
display_attribute-st-attrib $-1 $132 $-1 $3 1 #
lump $-1 $-1 $133 $3 #
transform $-1 1 0 0 0 1 0 0 0 1 43.512070070497757 25.446865674426753 12.328531528108302 1 rotate no_reflect no_shear #
display_attribute-st-attrib $-1 $134 $-1 $4 1 #
lump $-1 $-1 $135 $4 #
transform $-1 1 0 0 0 1 0 0 0 1 43.512070070497757 25.446865674426753 12.328531528108302 1 rotate no_reflect no_shear #
display_attribute-st-attrib $-1 $136 $-1 $5 1 #
lump $-1 $-1 $137 $5 #
transform $-1 1 0 0 0 1 0 0 0 1 43.512070070497757 25.446865674426753 12.328531528108302 1 rotate no_reflect no_shear #
display_attribute-st-attrib $-1 $138 $-1 $6 1 #
lump $-1 $-1 $139 $6 #
transform $-1 1 0 0 0 1 0 0 0 1 43.512070070497757 25.446865674426753 12.328531528108302 1 rotate no_reflect no_shear #
display_attribute-st-attrib $-1 $140 $-1 $7 1 #
lump $-1 $-1 $141 $7 #
transform $-1 1 0 0 0 1 0 0 0 1 43.512070070497757 25.446865674426753 12.328531528108302 1 rotate no_reflect no_shear #
display_attribute-st-attrib $-1 $142 $-1 $8 1 #
lump $-1 $-1 $143 $8 #
transform $-1 1 0 0 0 1 0 0 0 1 43.512070070497757 25.446865674426753 12.328531528108302 1 rotate no_reflect no_shear #
display_attribute-st-attrib $-1 $144 $-1 $9 1 #
lump $-1 $-1 $145 $9 #
transform $-1 1 0 0 0 1 0 0 0 1 43.512070070497757 25.446865674426753 12.328531528108302 1 rotate no_reflect no_shear #
display_attribute-st-attrib $-1 $146 $-1 $10 1 #
transform $-1 1 0 0 0 1 0 0 0 1 43.512070070497757 25.446865674426753 12.328531528108302 1 rotate no_reflect no_shear #
display_attribute-st-attrib $-1 $147 $-1 $11 1 #
transform $-1 1 0 0 0 1 0 0 0 1 43.512070070497757 25.446865674426753 12.328531528108302 1 rotate no_reflect no_shear #
display_attribute-st-attrib $-1 $148 $-1 $12 1 #
transform $-1 1 0 0 0 1 0 0 0 1 43.512070070497757 25.446865674426753 12.328531528108302 1 rotate no_reflect no_shear #
display_attribute-st-attrib $-1 $149 $-1 $13 1 #
transform $-1 1 0 0 0 1 0 0 0 1 43.512070070497757 25.446865674426753 12.328531528108302 1 rotate no_reflect no_shear #
display_attribute-st-attrib $-1 $150 $-1 $14 1 #
transform $-1 1 0 0 0 1 0 0 0 1 43.512070070497757 25.446865674426753 12.328531528108302 1 rotate no_reflect no_shear #
display_attribute-st-attrib $-1 $151 $-1 $15 1 #
transform $-1 1 0 0 0 1 0 0 0 1 43.512070070497757 25.446865674426753 12.328531528108302 1 rotate no_reflect no_shear #
display_attribute-st-attrib $-1 $152 $-1 $16 1 #
lump $-1 $-1 $153 $16 #
transform $-1 1 0 0 0 1 0 0 0 1 43.512070070497757 25.446865674426753 12.328531528108302 1 rotate no_reflect no_shear #
display_attribute-st-attrib $-1 $154 $-1 $17 1 #
lump $-1 $-1 $155 $17 #
transform $-1 1 0 0 0 1 0 0 0 1 43.512070070497757 25.446865674426753 12.328531528108302 1 rotate no_reflect no_shear #
display_attribute-st-attrib $-1 $156 $-1 $18 1 #
transform $-1 1 0 0 0 1 0 0 0 1 43.512070070497757 25.446865674426753 12.328531528108302 1 rotate no_reflect no_shear #
display_attribute-st-attrib $-1 $157 $-1 $19 1 #
transform $-1 1 0 0 0 1 0 0 0 1 43.512070070497757 25.446865674426753 12.328531528108302 1 rotate no_reflect no_shear #
display_attribute-st-attrib $-1 $158 $-1 $20 1 #
transform $-1 1 0 0 0 1 0 0 0 1 43.512070070497757 25.446865674426753 12.328531528108302 1 rotate no_reflect no_shear #
display_attribute-st-attrib $-1 $159 $-1 $21 1 #
transform $-1 1 0 0 0 1 0 0 0 1 43.512070070497757 25.446865674426753 12.328531528108302 1 rotate no_reflect no_shear #
display_attribute-st-attrib $-1 $160 $-1 $22 1 #
transform $-1 1 0 0 0 1 0 0 0 1 43.512070070497757 25.446865674426753 12.328531528108302 1 rotate no_reflect no_shear #
display_attribute-st-attrib $-1 $161 $-1 $23 1 #
transform $-1 1 0 0 0 1 0 0 0 1 43.512070070497757 25.446865674426753 12.328531528108302 1 rotate no_reflect no_shear #
display_attribute-st-attrib $-1 $162 $-1 $24 1 #
transform $-1 1 0 0 0 1 0 0 0 1 43.512070070497757 25.446865674426753 12.328531528108302 1 rotate no_reflect no_shear #
display_attribute-st-attrib $-1 $163 $-1 $25 1 #
transform $-1 1 0 0 0 1 0 0 0 1 43.512070070497757 25.446865674426753 12.328531528108302 1 rotate no_reflect no_shear #
display_attribute-st-attrib $-1 $164 $-1 $26 1 #
transform $-1 1 0 0 0 1 0 0 0 1 43.512070070497757 25.446865674426753 12.328531528108302 1 rotate no_reflect no_shear #
display_attribute-st-attrib $-1 $165 $-1 $27 1 #
transform $-1 1 0 0 0 1 0 0 0 1 43.512070070497757 25.446865674426753 12.328531528108302 1 rotate no_reflect no_shear #
display_attribute-st-attrib $-1 $166 $-1 $28 1 #
transform $-1 1 0 0 0 1 0 0 0 1 43.512070070497757 25.446865674426753 12.328531528108302 1 rotate no_reflect no_shear #
display_attribute-st-attrib $-1 $167 $-1 $29 1 #
transform $-1 1 0 0 0 1 0 0 0 1 43.512070070497757 25.446865674426753 12.328531528108302 1 rotate no_reflect no_shear #
display_attribute-st-attrib $-1 $168 $-1 $30 1 #
transform $-1 1 0 0 0 1 0 0 0 1 43.512070070497757 25.446865674426753 12.328531528108302 1 rotate no_reflect no_shear #
display_attribute-st-attrib $-1 $169 $-1 $31 1 #
lump $-1 $-1 $170 $31 #
transform $-1 1 0 0 0 1 0 0 0 1 43.512070070497757 25.446865674426753 12.328531528108302 1 rotate no_reflect no_shear #
display_attribute-st-attrib $-1 $171 $-1 $32 1 #
lump $-1 $-1 $172 $32 #
transform $-1 1 0 0 0 1 0 0 0 1 43.512070070497757 25.446865674426753 12.328531528108302 1 rotate no_reflect no_shear #
display_attribute-st-attrib $-1 $173 $-1 $33 1 #
lump $-1 $-1 $174 $33 #
transform $-1 1 0 0 0 1 0 0 0 1 43.512070070497757 25.446865674426753 12.328531528108302 1 rotate no_reflect no_shear #
display_attribute-st-attrib $-1 $175 $-1 $34 1 #
transform $-1 1 0 0 0 1 0 0 0 1 43.512070070497757 25.446865674426753 12.328531528108302 1 rotate no_reflect no_shear #
display_attribute-st-attrib $-1 $176 $-1 $35 1 #
transform $-1 1 0 0 0 1 0 0 0 1 43.512070070497757 25.446865674426753 12.328531528108302 1 rotate no_reflect no_shear #
display_attribute-st-attrib $-1 $177 $-1 $36 1 #
transform $-1 1 0 0 0 1 0 0 0 1 43.512070070497757 25.446865674426753 12.328531528108302 1 rotate no_reflect no_shear #
id_attribute-st-attrib $-1 $-1 $37 $0 1 #
shell $-1 $-1 $-1 $178 $-1 $38 #
id_attribute-st-attrib $-1 $-1 $40 $1 104 #
shell $-1 $-1 $-1 $179 $-1 $41 #
id_attribute-st-attrib $-1 $-1 $43 $2 106 #
shell $-1 $-1 $-1 $180 $-1 $44 #
id_attribute-st-attrib $-1 $-1 $46 $3 108 #
shell $-1 $-1 $-1 $181 $-1 $47 #
id_attribute-st-attrib $-1 $-1 $49 $4 110 #
shell $-1 $-1 $-1 $182 $-1 $50 #
id_attribute-st-attrib $-1 $-1 $52 $5 112 #
shell $-1 $-1 $-1 $183 $-1 $53 #
id_attribute-st-attrib $-1 $-1 $55 $6 114 #
shell $-1 $-1 $-1 $184 $-1 $56 #
id_attribute-st-attrib $-1 $-1 $58 $7 116 #
shell $-1 $-1 $-1 $185 $-1 $59 #
id_attribute-st-attrib $-1 $-1 $61 $8 118 #
shell $-1 $-1 $-1 $186 $-1 $62 #
id_attribute-st-attrib $-1 $-1 $64 $9 120 #
shell $-1 $-1 $-1 $187 $-1 $65 #
id_attribute-st-attrib $-1 $-1 $67 $10 122 #
id_attribute-st-attrib $-1 $-1 $69 $11 124 #
id_attribute-st-attrib $-1 $-1 $71 $12 126 #
id_attribute-st-attrib $-1 $-1 $73 $13 128 #
id_attribute-st-attrib $-1 $-1 $75 $14 130 #
id_attribute-st-attrib $-1 $-1 $77 $15 132 #
id_attribute-st-attrib $-1 $-1 $79 $16 134 #
shell $-1 $-1 $-1 $188 $-1 $80 #
id_attribute-st-attrib $-1 $-1 $82 $17 136 #
shell $-1 $-1 $-1 $189 $-1 $83 #
id_attribute-st-attrib $-1 $-1 $85 $18 138 #
id_attribute-st-attrib $-1 $-1 $87 $19 140 #
id_attribute-st-attrib $-1 $-1 $89 $20 142 #
id_attribute-st-attrib $-1 $-1 $91 $21 144 #
id_attribute-st-attrib $-1 $-1 $93 $22 146 #
id_attribute-st-attrib $-1 $-1 $95 $23 148 #
id_attribute-st-attrib $-1 $-1 $97 $24 150 #
id_attribute-st-attrib $-1 $-1 $99 $25 152 #
id_attribute-st-attrib $-1 $-1 $101 $26 154 #
id_attribute-st-attrib $-1 $-1 $103 $27 156 #
id_attribute-st-attrib $-1 $-1 $105 $28 158 #
id_attribute-st-attrib $-1 $-1 $107 $29 160 #
id_attribute-st-attrib $-1 $-1 $109 $30 162 #
id_attribute-st-attrib $-1 $-1 $111 $31 164 #
shell $-1 $-1 $-1 $190 $-1 $112 #
id_attribute-st-attrib $-1 $-1 $114 $32 166 #
shell $-1 $-1 $-1 $191 $-1 $115 #
id_attribute-st-attrib $-1 $-1 $117 $33 168 #
shell $-1 $-1 $-1 $192 $-1 $118 #
id_attribute-st-attrib $-1 $-1 $120 $34 170 #
id_attribute-st-attrib $-1 $-1 $122 $35 172 #
id_attribute-st-attrib $-1 $-1 $124 $36 174 #
face $-1 $193 $194 $127 $-1 $195 reversed single #
face $-1 $196 $197 $129 $-1 $198 reversed single #
face $-1 $199 $200 $131 $-1 $201 reversed single #
face $-1 $202 $203 $133 $-1 $204 forward single #
face $-1 $205 $206 $135 $-1 $207 forward single #
face $-1 $208 $209 $137 $-1 $210 reversed single #
face $-1 $211 $212 $139 $-1 $213 forward single #
face $-1 $214 $215 $141 $-1 $216 forward single #
face $-1 $217 $218 $143 $-1 $219 forward single #
face $-1 $-1 $220 $145 $-1 $221 forward double out #
face $-1 $-1 $222 $153 $-1 $223 forward double out #
face $-1 $-1 $224 $155 $-1 $225 forward double out #
face $-1 $-1 $226 $170 $-1 $227 forward double out #
face $-1 $-1 $228 $172 $-1 $229 forward double out #
face $-1 $-1 $230 $174 $-1 $231 forward double out #
face $-1 $232 $233 $127 $-1 $234 reversed single #
loop $-1 $235 $236 $178 #
cone-surface $-1 2.0523895734577096 19.966055424834526 8.3387407871767305 0 -0.54463904215088732 -0.83867056331134215 1 0 0 1 I I 0 1 forward I I I I #
face $-1 $237 $238 $129 $-1 $239 reversed single #
loop $-1 $-1 $240 $179 #
plane-surface $-1 -36.736426983650276 0 7.1964280169628534 0 0 1 1 0 0 forward_v I I I I #
face $-1 $241 $242 $131 $-1 $243 reversed single #
loop $-1 $-1 $244 $180 #
plane-surface $-1 -11.894493674935148 -94.947434938039038 57.188583378379775 -1 0 0 0 -0.79863551827123203 0.60181501223851219 forward_v I I I I #
face $-1 $245 $246 $133 $-1 $247 forward single #
loop $-1 $248 $249 $181 #
cone-surface $-1 -24.798986690554898 -21.581999994777114 7.7928846985343858 0 0.79863551827123203 -0.60181501223851219 2 0 0 1 I I 0 1 forward I I I I #
face $-1 $250 $251 $135 $-1 $252 forward single #
loop $-1 $253 $254 $182 #
cone-surface $-1 -17.056290881183049 -21.581999994777114 7.7928846985343858 0 0.79863551827123203 -0.60181501223851219 2 0 0 1 I I 0 1 forward I I I I #
face $-1 $255 $256 $137 $-1 $257 reversed single #
loop $-1 $-1 $258 $183 #
plane-surface $-1 -10.405908545706062 30.160535665464046 106.54120987999816 1 0 0 0 -0.54463904215088732 -0.83867056331134215 forward_v I I I I #
face $-1 $259 $260 $139 $-1 $261 forward single #
loop $-1 $262 $263 $184 #
cone-surface $-1 -7.291334015915119 19.966055424834526 8.3387407871767305 0 -0.54463904215088732 -0.83867056331134215 1 0 0 1 I I 0 1 forward I I I I #
face $-1 $264 $265 $141 $-1 $266 forward single #
loop $-1 $267 $268 $185 #
cone-surface $-1 -2.6194722212287047 19.966055424834526 8.3387407871767305 0 -0.54463904215088732 -0.83867056331134215 1 0 0 1 I I 0 1 forward I I I I #
face $-1 $269 $270 $143 $-1 $271 forward single #
loop $-1 $272 $273 $186 #
cone-surface $-1 2.0523895734577096 19.966055424834526 8.3387407871767305 0 -0.54463904215088732 -0.83867056331134215 1 0 0 1 I I 0 1 forward I I I I #
loop $-1 $-1 $274 $187 #
plane-surface $-1 -29.960783896802795 0 9.7624797725355759 -1 0 0 0 0 1 forward_v I I I I #
loop $-1 $-1 $275 $188 #
plane-surface $-1 -20.927638785868972 -25.446865674426761 4.8161494143805612 0 -0.79863551827123203 0.60181501223851219 1 0 0 forward_v I I I I #
loop $-1 $-1 $276 $189 #
plane-surface $-1 -20.927638785868972 -25.446865674426761 4.8161494143805612 0 -0.79863551827123203 0.60181501223851219 1 0 0 forward_v I I I I #
loop $-1 $-1 $277 $190 #
plane-surface $-1 -2.6194722212287047 -17.236208664932335 33.556625246264275 0 0.54463904215088732 0.83867056331134215 1 0 0 forward_v I I I I #
loop $-1 $-1 $278 $191 #
plane-surface $-1 -2.6194722212287047 -17.236208664932335 33.556625246264275 0 0.54463904215088732 0.83867056331134215 1 0 0 forward_v I I I I #
loop $-1 $-1 $279 $192 #
plane-surface $-1 -2.6194722212287047 -17.236208664932335 33.556625246264275 0 0.54463904215088732 0.83867056331134215 1 0 0 forward_v I I I I #
face $-1 $280 $281 $127 $-1 $282 reversed single #
loop $-1 $283 $284 $193 #
cone-surface $-1 2.0523895734577096 19.210264245717674 7.1749244521735758 0 -0.54463904215088732 -0.83867056331134215 0.5 0 0 1 I I -0.70710678118654746 0.70710678118654746 forward I I I I #
loop $-1 $-1 $285 $178 #
coedge $-1 $236 $236 $286 $287 reversed $194 $-1 #
face $-1 $288 $289 $129 $-1 $290 reversed single #
loop $-1 $-1 $291 $196 #
plane-surface $-1 -29.960783896802795 0 9.7624797725355759 -1 0 0 0 0 1 forward_v I I I I #
coedge $-1 $292 $293 $291 $294 forward $197 $-1 #
face $-1 $295 $296 $131 $-1 $297 forward single #
loop $-1 $-1 $298 $199 #
plane-surface $-1 -20.927638785868972 -25.446865674426761 4.8161494143805612 0 -0.79863551827123203 0.60181501223851219 1 0 0 forward_v I I I I #
coedge $-1 $299 $300 $301 $302 reversed $200 $-1 #
face $-1 $-1 $303 $133 $-1 $304 forward single #
loop $-1 $305 $306 $202 #
cone-surface $-1 -24.798986690554898 -19.748991700239735 6.411613913585823 0 0.79863551827123203 -0.60181501223851219 1 0 0 1 I I -0.70710678118654746 0.70710678118654746 forward I I I I #
loop $-1 $-1 $307 $181 #
coedge $-1 $249 $249 $308 $309 reversed $203 $-1 #
face $-1 $-1 $310 $135 $-1 $311 forward single #
loop $-1 $312 $313 $205 #
cone-surface $-1 -17.056290881183049 -19.748991700239735 6.411613913585823 0 0.79863551827123203 -0.60181501223851219 1 0 0 1 I I -0.70710678118654746 0.70710678118654746 forward I I I I #
loop $-1 $-1 $314 $182 #
coedge $-1 $254 $254 $315 $316 reversed $206 $-1 #
face $-1 $317 $318 $137 $-1 $319 reversed single #
loop $-1 $-1 $320 $208 #
plane-surface $-1 -2.6194722212287047 -17.236208664932335 33.556625246264275 0 0.54463904215088732 0.83867056331134215 1 0 0 forward_v I I I I #
coedge $-1 $321 $322 $323 $324 reversed $209 $-1 #
face $-1 $-1 $325 $139 $-1 $326 forward single #
loop $-1 $327 $328 $211 #
cone-surface $-1 -7.291334015915119 19.210264245717674 7.1749244521735758 0 -0.54463904215088732 -0.83867056331134215 0.5 0 0 1 I I -0.70710678118654746 0.70710678118654746 forward I I I I #
loop $-1 $-1 $329 $184 #
coedge $-1 $263 $263 $330 $331 reversed $212 $-1 #
face $-1 $-1 $332 $141 $-1 $333 forward single #
loop $-1 $334 $335 $214 #
cone-surface $-1 -2.6194722212287047 19.210264245717674 7.1749244521735758 0 -0.54463904215088732 -0.83867056331134215 0.5 0 0 1 I I -0.70710678118654746 0.70710678118654746 forward I I I I #
loop $-1 $-1 $336 $185 #
coedge $-1 $268 $268 $337 $338 reversed $215 $-1 #
face $-1 $-1 $339 $143 $-1 $340 forward single #
loop $-1 $341 $342 $217 #
cone-surface $-1 2.0523895734577096 19.210264245717674 7.1749244521735758 0 -0.54463904215088732 -0.83867056331134215 0.5 0 0 1 I I -0.70710678118654746 0.70710678118654746 forward I I I I #
loop $-1 $-1 $343 $186 #
coedge $-1 $273 $273 $344 $345 reversed $218 $-1 #
coedge $-1 $346 $347 $-1 $348 reversed $220 $-1 #
coedge $-1 $275 $275 $-1 $349 forward $222 $-1 #
coedge $-1 $276 $276 $-1 $350 forward $224 $-1 #
coedge $-1 $277 $277 $-1 $351 forward $226 $-1 #
coedge $-1 $278 $278 $-1 $352 forward $228 $-1 #
coedge $-1 $279 $279 $-1 $353 forward $230 $-1 #
face $-1 $354 $355 $127 $-1 $356 reversed single #
loop $-1 $357 $358 $232 #
cone-surface $-1 -2.6194722212287047 19.966055424834526 8.3387407871767305 0 -0.54463904215088732 -0.83867056331134215 1 0 0 1 I I 0 1 forward I I I I #
loop $-1 $-1 $359 $193 #
coedge $-1 $284 $284 $285 $360 forward $233 $-1 #
coedge $-1 $285 $285 $284 $360 reversed $235 $-1 #
coedge $-1 $286 $286 $236 $287 forward $361 $-1 #
edge $-1 $362 $362 $286 $363 forward #
face $-1 $364 $365 $129 $-1 $366 reversed single #
loop $-1 $-1 $367 $237 #
plane-surface $-1 0 25.446865674426753 0 0 -1 0 0 0 -1 forward_v I I I I #
coedge $-1 $368 $369 $240 $294 reversed $238 $-1 #
coedge $-1 $370 $240 $371 $372 reversed $197 $-1 #
coedge $-1 $240 $370 $373 $374 reversed $197 $-1 #
edge $-1 $375 $376 $291 $377 forward #
face $-1 $378 $379 $131 $-1 $380 forward single #
loop $-1 $-1 $381 $241 #
plane-surface $-1 -29.960783896802795 0 9.7624797725355759 -1 0 0 0 0 1 forward_v I I I I #
coedge $-1 $382 $383 $384 $385 reversed $242 $-1 #
coedge $-1 $300 $244 $386 $387 reversed $200 $-1 #
coedge $-1 $244 $299 $382 $388 reversed $200 $-1 #
coedge $-1 $384 $389 $244 $302 forward $379 $-1 #
edge $-1 $390 $391 $301 $392 forward #
loop $-1 $-1 $308 $245 #
plane-surface $-1 -20.927638785868972 -25.446865674426761 4.8161494143805612 0 -0.79863551827123203 0.60181501223851219 1 0 0 forward_v I I I I #
loop $-1 $-1 $393 $202 #
coedge $-1 $306 $306 $307 $394 reversed $246 $-1 #
coedge $-1 $307 $307 $306 $394 forward $248 $-1 #
coedge $-1 $308 $308 $249 $309 forward $303 $-1 #
edge $-1 $395 $395 $308 $396 forward #
loop $-1 $-1 $315 $250 #
plane-surface $-1 -20.927638785868972 -25.446865674426761 4.8161494143805612 0 -0.79863551827123203 0.60181501223851219 1 0 0 forward_v I I I I #
loop $-1 $-1 $397 $205 #
coedge $-1 $313 $313 $314 $398 reversed $251 $-1 #
coedge $-1 $314 $314 $313 $398 forward $253 $-1 #
coedge $-1 $315 $315 $254 $316 forward $310 $-1 #
edge $-1 $399 $399 $315 $400 forward #
face $-1 $401 $402 $137 $-1 $403 forward single #
loop $-1 $-1 $404 $255 #
plane-surface $-1 5.1669641032486524 30.160535665464046 106.54120987999816 -1 0 0 0 0.54463904215088732 0.83867056331134215 forward_v I I I I #
coedge $-1 $405 $406 $407 $408 reversed $256 $-1 #
coedge $-1 $322 $258 $409 $410 reversed $209 $-1 #
coedge $-1 $258 $321 $405 $411 reversed $209 $-1 #
coedge $-1 $407 $412 $258 $324 forward $402 $-1 #
edge $-1 $413 $414 $323 $415 forward #
loop $-1 $-1 $330 $259 #
plane-surface $-1 -2.6194722212287047 -17.236208664932335 33.556625246264275 0 0.54463904215088732 0.83867056331134215 1 0 0 forward_v I I I I #
loop $-1 $-1 $416 $211 #
coedge $-1 $328 $328 $329 $417 reversed $260 $-1 #
coedge $-1 $329 $329 $328 $417 forward $262 $-1 #
coedge $-1 $330 $330 $263 $331 forward $325 $-1 #
edge $-1 $418 $418 $330 $419 forward #
loop $-1 $-1 $337 $264 #
plane-surface $-1 -2.6194722212287047 -17.236208664932335 33.556625246264275 0 0.54463904215088732 0.83867056331134215 1 0 0 forward_v I I I I #
loop $-1 $-1 $420 $214 #
coedge $-1 $335 $335 $336 $421 reversed $265 $-1 #
coedge $-1 $336 $336 $335 $421 forward $267 $-1 #
coedge $-1 $337 $337 $268 $338 forward $332 $-1 #
edge $-1 $422 $422 $337 $423 forward #
loop $-1 $-1 $344 $269 #
plane-surface $-1 -2.6194722212287047 -17.236208664932335 33.556625246264275 0 0.54463904215088732 0.83867056331134215 1 0 0 forward_v I I I I #
loop $-1 $-1 $424 $217 #
coedge $-1 $342 $342 $343 $425 reversed $270 $-1 #
coedge $-1 $343 $343 $342 $425 forward $272 $-1 #
coedge $-1 $344 $344 $273 $345 forward $339 $-1 #
edge $-1 $426 $426 $344 $427 forward #
coedge $-1 $428 $274 $-1 $429 reversed $220 $-1 #
coedge $-1 $274 $428 $-1 $430 reversed $220 $-1 #
edge $-1 $431 $432 $274 $433 forward #
edge $-1 $434 $434 $275 $435 forward #
edge $-1 $436 $436 $276 $437 forward #
edge $-1 $438 $438 $277 $439 forward #
edge $-1 $440 $440 $278 $441 forward #
edge $-1 $442 $442 $279 $443 forward #
face $-1 $444 $445 $127 $-1 $446 reversed single #
loop $-1 $447 $448 $280 #
cone-surface $-1 -2.6194722212287047 19.210264245717674 7.1749244521735758 0 -0.54463904215088732 -0.83867056331134215 0.5 0 0 1 I I -0.70710678118654746 0.70710678118654746 forward I I I I #
loop $-1 $-1 $449 $232 #
coedge $-1 $358 $358 $450 $451 reversed $281 $-1 #
coedge $-1 $359 $359 $-1 $452 forward $283 $-1 #
edge $-1 $453 $453 $284 $454 forward #
loop $-1 $455 $286 $456 #
vertex $-1 $287 $457 #
ellipse-curve $-1 2.0523895734577096 20.449527082875928 9.0832218405242031 0 -0.54463904215088732 -0.83867056331134215 1 0 0 1 I I #
face $-1 $458 $459 $129 $-1 $460 forward single #
loop $-1 $-1 $461 $288 #
plane-surface $-1 -43.512070070497757 0 0 1 0 0 0 0 -1 forward_v I I I I #
coedge $-1 $373 $462 $368 $463 forward $289 $-1 #
coedge $-1 $464 $291 $367 $463 reversed $238 $-1 #
coedge $-1 $291 $464 $465 $466 reversed $238 $-1 #
coedge $-1 $293 $292 $461 $467 reversed $197 $-1 #
coedge $-1 $465 $468 $292 $372 forward $469 $-1 #
edge $-1 $470 $376 $371 $471 forward #
coedge $-1 $472 $367 $293 $374 forward $289 $-1 #
edge $-1 $375 $473 $373 $474 forward #
vertex $-1 $374 $475 #
vertex $-1 $372 $476 #
straight-curve $-1 -29.960783896802795 0 7.1964280169628534 0 -1 0 I I #
face $-1 $-1 $477 $131 $-1 $478 reversed single #
loop $-1 $-1 $384 $295 #
plane-surface $-1 0 0 12.328531528108302 0 0 1 1 0 0 forward_v I I I I #
coedge $-1 $479 $480 $383 $481 reversed $296 $-1 #
coedge $-1 $482 $298 $300 $388 forward $242 $-1 #
coedge $-1 $298 $482 $381 $481 forward $242 $-1 #
coedge $-1 $483 $301 $298 $385 forward $379 $-1 #
edge $-1 $391 $484 $384 $485 forward #
coedge $-1 $486 $487 $299 $387 forward $477 $-1 #
edge $-1 $488 $390 $386 $489 forward #
edge $-1 $391 $488 $300 $490 forward #
coedge $-1 $301 $483 $486 $491 forward $379 $-1 #
vertex $-1 $387 $492 #
vertex $-1 $302 $493 #
straight-curve $-1 -11.894493674935148 -47.473717469019519 12.3285315281083 0 1 0 I I #
coedge $-1 $393 $393 $-1 $494 reversed $305 $-1 #
edge $-1 $495 $495 $306 $496 forward #
vertex $-1 $309 $497 #
ellipse-curve $-1 -24.798986690554898 -22.616372771043263 8.5723404712444378 0 -0.79863551827123203 0.60181501223851219 2 0 0 1 I I #
coedge $-1 $397 $397 $-1 $498 reversed $312 $-1 #
edge $-1 $499 $499 $313 $500 forward #
vertex $-1 $316 $501 #
ellipse-curve $-1 -17.056290881183049 -22.616372771043263 8.5723404712444378 0 -0.79863551827123203 0.60181501223851219 2 0 0 1 I I #
face $-1 $-1 $502 $137 $-1 $503 reversed single #
loop $-1 $-1 $323 $317 #
plane-surface $-1 0 0 12.328531528108302 0 0 1 1 0 0 forward_v I I I I #
coedge $-1 $504 $505 $506 $507 reversed $318 $-1 #
coedge $-1 $508 $320 $322 $411 forward $256 $-1 #
coedge $-1 $320 $508 $504 $509 forward $256 $-1 #
coedge $-1 $506 $323 $320 $408 forward $402 $-1 #
edge $-1 $414 $510 $407 $511 forward #
coedge $-1 $512 $513 $321 $410 forward $502 $-1 #
edge $-1 $514 $413 $409 $515 forward #
edge $-1 $414 $514 $322 $516 forward #
coedge $-1 $323 $506 $512 $517 forward $402 $-1 #
vertex $-1 $410 $518 #
vertex $-1 $324 $519 #
straight-curve $-1 -10.405908545706062 15.080267832732023 12.3285315281083 0 -1 0 I I #
coedge $-1 $416 $416 $-1 $520 reversed $327 $-1 #
edge $-1 $521 $521 $328 $522 forward #
vertex $-1 $331 $523 #
ellipse-curve $-1 -7.291334015915119 20.449527082875928 9.0832218405242031 0 0.54463904215088732 0.83867056331134215 1 0 0 1 I I #
coedge $-1 $420 $420 $-1 $524 reversed $334 $-1 #
edge $-1 $525 $525 $335 $526 forward #
vertex $-1 $338 $527 #
ellipse-curve $-1 -2.6194722212287047 20.449527082875928 9.0832218405242031 0 0.54463904215088732 0.83867056331134215 1 0 0 1 I I #
coedge $-1 $424 $424 $-1 $528 reversed $341 $-1 #
edge $-1 $529 $529 $342 $530 forward #
vertex $-1 $345 $531 #
ellipse-curve $-1 2.0523895734577096 20.449527082875928 9.0832218405242031 0 0.54463904215088732 0.83867056331134215 1 0 0 1 I I #
coedge $-1 $347 $346 $-1 $532 reversed $220 $-1 #
edge $-1 $533 $431 $346 $534 forward #
edge $-1 $432 $535 $347 $536 forward #
vertex $-1 $348 $537 #
vertex $-1 $430 $538 #
straight-curve $-1 -29.960783896802795 0 7.1964280169628534 0 1 0 I I #
vertex $-1 $349 $539 #
ellipse-curve $-1 -24.798986690554898 -22.616372771043263 8.5723404712444378 0 -0.79863551827123203 0.60181501223851219 2 0 0 1 I I #
vertex $-1 $350 $540 #
ellipse-curve $-1 -17.056290881183049 -22.616372771043263 8.5723404712444378 0 -0.79863551827123203 0.60181501223851219 2 0 0 1 I I #
vertex $-1 $351 $541 #
ellipse-curve $-1 -7.291334015915119 20.449527082875928 9.0832218405242031 0 0.54463904215088732 0.83867056331134215 1 0 0 1 I I #
vertex $-1 $352 $542 #
ellipse-curve $-1 -2.6194722212287047 20.449527082875928 9.0832218405242031 0 0.54463904215088732 0.83867056331134215 1 0 0 1 I I #
vertex $-1 $353 $543 #
ellipse-curve $-1 2.0523895734577096 20.449527082875928 9.0832218405242031 0 0.54463904215088732 0.83867056331134215 1 0 0 1 I I #
face $-1 $544 $545 $127 $-1 $546 reversed single #
loop $-1 $547 $548 $354 #
cone-surface $-1 -7.291334015915119 19.966055424834526 8.3387407871767305 0 -0.54463904215088732 -0.83867056331134215 1 0 0 1 I I 0 1 forward I I I I #
loop $-1 $-1 $549 $280 #
coedge $-1 $448 $448 $449 $550 forward $355 $-1 #
coedge $-1 $449 $449 $448 $550 reversed $357 $-1 #
coedge $-1 $450 $450 $358 $451 forward $455 $-1 #
edge $-1 $551 $551 $450 $552 forward #
edge $-1 $553 $553 $359 $-1 forward #
vertex $-1 $360 $554 #
ellipse-curve $-1 2.0523895734577096 19.48258376679312 7.5942597338292472 0 0.54463904215088732 0.83867056331134215 1 0 0 1 I I #
loop $-1 $555 $450 $456 #
face $-1 $556 $361 $127 $-1 $557 forward single #
point $-1 3.0523895734577096 20.449527082875935 9.0832218405242138 #
face $-1 $-1 $469 $129 $-1 $558 reversed single #
loop $-1 $-1 $559 $364 #
plane-surface $-1 0 0 12.328531528108302 0 0 1 1 0 0 forward_v I I I I #
coedge $-1 $560 $561 $370 $467 forward $365 $-1 #
coedge $-1 $367 $472 $562 $563 reversed $289 $-1 #
edge $-1 $564 $375 $367 $565 forward #
coedge $-1 $369 $368 $559 $566 reversed $238 $-1 #
coedge $-1 $567 $371 $369 $466 forward $469 $-1 #
edge $-1 $376 $568 $465 $569 forward #
edge $-1 $473 $470 $461 $570 forward #
coedge $-1 $371 $567 $560 $571 forward $469 $-1 #
loop $-1 $-1 $465 $458 #
vertex $-1 $467 $572 #
straight-curve $-1 -18.368213491825138 -25.446865674426753 7.1964280169628534 1 0 0 I I #
coedge $-1 $462 $373 $561 $573 reversed $289 $-1 #
vertex $-1 $467 $574 #
straight-curve $-1 -18.368213491825138 25.446865674426753 7.1964280169628534 -1 0 0 I I #
point $-1 -29.960783896802795 25.446865674426753 7.1964280169628534 #
point $-1 -29.960783896802795 -25.446865674426753 7.1964280169628534 #
loop $-1 $-1 $386 $378 #
plane-surface $-1 0 -25.446865674426753 0 0 1 0 0 0 1 forward_v I I I I #
coedge $-1 $480 $381 $575 $576 reversed $296 $-1 #
coedge $-1 $381 $479 $483 $577 reversed $296 $-1 #
edge $-1 $578 $484 $381 $579 forward #
coedge $-1 $383 $382 $487 $580 reversed $242 $-1 #
coedge $-1 $389 $384 $480 $577 forward $379 $-1 #
vertex $-1 $577 $581 #
straight-curve $-1 -10.463819392934486 -19.785879867659773 12.328531528108302 -1 0 0 I I #
coedge $-1 $575 $386 $389 $491 reversed $477 $-1 #
coedge $-1 $386 $575 $482 $580 forward $477 $-1 #
vertex $-1 $387 $582 #
straight-curve $-1 -11.894493674935148 -25.446865674426753 28.594291689189888 0 0 1 I I #
straight-curve $-1 -11.894493674935148 -25.446865674426761 4.8161494143805612 0 -0.60181501223851219 -0.79863551827123203 I I #
edge $-1 $583 $390 $486 $584 forward #
point $-1 -11.894493674935148 -25.446865674426753 12.328531528108302 #
point $-1 -11.894493674935148 -19.785879867659773 12.328531528108302 #
edge $-1 $585 $585 $393 $-1 forward #
vertex $-1 $394 $586 #
ellipse-curve $-1 -24.798986690554898 -20.547627218510968 7.0134289258243356 0 -0.79863551827123203 0.60181501223851219 2 0 0 1 I I #
point $-1 -22.798986690554898 -22.61637277104326 8.572340471244436 #
edge $-1 $587 $587 $397 $-1 forward #
vertex $-1 $398 $588 #
ellipse-curve $-1 -17.056290881183049 -20.547627218510968 7.0134289258243356 0 -0.79863551827123203 0.60181501223851219 2 0 0 1 I I #
point $-1 -15.056290881183049 -22.61637277104326 8.572340471244436 #
loop $-1 $-1 $409 $401 #
plane-surface $-1 0 25.446865674426753 0 0 -1 0 0 0 -1 forward_v I I I I #
coedge $-1 $505 $404 $406 $509 reversed $318 $-1 #
coedge $-1 $404 $504 $589 $590 reversed $318 $-1 #
coedge $-1 $412 $407 $404 $507 forward $402 $-1 #
edge $-1 $510 $591 $506 $592 forward #
coedge $-1 $406 $405 $513 $593 reversed $256 $-1 #
edge $-1 $594 $510 $504 $595 forward #
vertex $-1 $408 $596 #
straight-curve $-1 -1.3097361106143524 15.452188491325092 12.328531528108302 1 0 0 I I #
coedge $-1 $589 $409 $412 $517 reversed $502 $-1 #
coedge $-1 $409 $589 $508 $593 forward $502 $-1 #
vertex $-1 $410 $597 #
straight-curve $-1 -10.405908545706062 25.446865674426753 53.270604939999082 0 0 1 I I #
straight-curve $-1 -10.405908545706062 -17.236208664932335 33.556625246264275 0 0.83867056331134215 -0.54463904215088732 I I #
edge $-1 $591 $413 $512 $598 forward #
point $-1 -10.405908545706062 25.446865674426753 12.328531528108302 #
point $-1 -10.405908545706062 15.452188491325096 12.3285315281083 #
edge $-1 $599 $599 $416 $-1 forward #
vertex $-1 $417 $600 #
ellipse-curve $-1 -7.291334015915119 19.48258376679312 7.5942597338292472 0 0.54463904215088732 0.83867056331134215 1 0 0 1 I I #
point $-1 -6.291334015915119 20.449527082875935 9.0832218405242138 #
edge $-1 $601 $601 $420 $-1 forward #
vertex $-1 $421 $602 #
ellipse-curve $-1 -2.6194722212287047 19.48258376679312 7.5942597338292472 0 0.54463904215088732 0.83867056331134215 1 0 0 1 I I #
point $-1 -1.6194722212287047 20.449527082875935 9.0832218405242138 #
edge $-1 $603 $603 $424 $-1 forward #
vertex $-1 $425 $604 #
ellipse-curve $-1 2.0523895734577096 19.48258376679312 7.5942597338292472 0 0.54463904215088732 0.83867056331134215 1 0 0 1 I I #
point $-1 3.0523895734577096 20.449527082875935 9.0832218405242138 #
edge $-1 $535 $533 $428 $605 forward #
vertex $-1 $429 $606 #
straight-curve $-1 -29.960783896802795 -25.446865674426753 28.594291689189888 0 0 -1 I I #
vertex $-1 $532 $607 #
straight-curve $-1 -29.960783896802795 -25.446865674426761 4.8161494143805612 0 0.60181501223851219 0.79863551827123203 I I #
point $-1 -29.960783896802795 -25.446865674426753 7.1964280169628534 #
point $-1 -29.960783896802795 -23.653197144075182 7.1964280169628534 #
point $-1 -22.798986690554898 -22.61637277104326 8.572340471244436 #
point $-1 -15.056290881183049 -22.61637277104326 8.572340471244436 #
point $-1 -6.291334015915119 20.449527082875935 9.0832218405242138 #
point $-1 -1.6194722212287047 20.449527082875935 9.0832218405242138 #
point $-1 3.0523895734577096 20.449527082875935 9.0832218405242138 #
face $-1 $456 $608 $127 $-1 $609 forward single #
loop $-1 $610 $611 $444 #
cone-surface $-1 -7.291334015915119 19.210264245717674 7.1749244521735758 0 -0.54463904215088732 -0.83867056331134215 0.5 0 0 1 I I -0.70710678118654746 0.70710678118654746 forward I I I I #
loop $-1 $-1 $612 $354 #
coedge $-1 $548 $548 $613 $614 reversed $445 $-1 #
coedge $-1 $549 $549 $-1 $615 forward $447 $-1 #
edge $-1 $616 $616 $448 $617 forward #
vertex $-1 $451 $618 #
ellipse-curve $-1 -2.6194722212287047 20.449527082875928 9.0832218405242031 0 -0.54463904215088732 -0.83867056331134215 1 0 0 1 I I #
vertex $-1 $452 $619 #
point $-1 3.0523895734577096 19.48258376679312 7.5942597338292472 #
loop $-1 $620 $613 $456 #
face $-1 $621 $622 $127 $-1 $623 forward single #
plane-surface $-1 -2.6194722212287047 -17.236208664932335 33.556625246264275 0 0.54463904215088732 0.83867056331134215 1 0 0 forward_v I I I I #
plane-surface $-1 0 -25.446865674426753 0 0 1 0 0 0 1 forward_v I I I I #
coedge $-1 $562 $624 $464 $566 forward $459 $-1 #
coedge $-1 $625 $461 $468 $571 reversed $365 $-1 #
coedge $-1 $461 $625 $472 $573 forward $365 $-1 #
coedge $-1 $626 $559 $462 $563 forward $459 $-1 #
edge $-1 $564 $627 $462 $628 forward #
vertex $-1 $563 $629 #
straight-curve $-1 -29.960783896802795 25.446865674426753 4.8812398862677879 0 0 -1 I I #
edge $-1 $568 $564 $559 $630 forward #
coedge $-1 $468 $465 $624 $631 reversed $469 $-1 #
vertex $-1 $466 $632 #
straight-curve $-1 -29.960783896802795 -25.446865674426753 4.8812398862677879 0 0 1 I I #
straight-curve $-1 -43.512070070497757 0 7.1964280169628534 0 -1 0 I I #
edge $-1 $633 $470 $560 $634 forward #
point $-1 -43.512070070497757 -25.446865674426753 7.1964280169628534 #
edge $-1 $627 $473 $472 $635 forward #
point $-1 -43.512070070497757 25.446865674426753 7.1964280169628534 #
coedge $-1 $487 $486 $479 $576 forward $477 $-1 #
edge $-1 $583 $578 $575 $636 forward #
edge $-1 $484 $583 $483 $637 forward #
vertex $-1 $576 $638 #
straight-curve $-1 -29.960783896802795 -25.446865674426761 4.8161494143805612 0 0.60181501223851219 0.79863551827123203 I I #
edge $-1 $578 $488 $487 $639 forward #
point $-1 -29.960783896802795 -19.785879867659776 12.328531528108302 #
point $-1 -11.894493674935148 -25.446865674426753 4.816149414380571 #
vertex $-1 $491 $640 #
straight-curve $-1 0 -25.446865674426753 12.328531528108302 1 0 0 I I #
vertex $-1 $494 $641 #
point $-1 -22.798986690554898 -20.547627218510968 7.0134289258243356 #
vertex $-1 $498 $642 #
point $-1 -15.056290881183049 -20.547627218510968 7.0134289258243356 #
coedge $-1 $513 $512 $505 $590 forward $502 $-1 #
edge $-1 $591 $594 $589 $643 forward #
vertex $-1 $517 $644 #
straight-curve $-1 5.1669641032486524 15.080267832732023 12.3285315281083 0 1 0 I I #
edge $-1 $594 $514 $513 $645 forward #
vertex $-1 $593 $646 #
straight-curve $-1 5.1669641032486524 -17.236208664932335 33.556625246264275 0 -0.83867056331134215 0.54463904215088732 I I #
point $-1 5.1669641032486524 15.452188491325096 12.3285315281083 #
point $-1 -10.405908545706062 25.446865674426753 5.8379121529401097 #
straight-curve $-1 0 25.446865674426753 12.328531528108302 -1 0 0 I I #
vertex $-1 $520 $647 #
point $-1 -6.291334015915119 19.48258376679312 7.5942597338292472 #
vertex $-1 $524 $648 #
point $-1 -1.6194722212287047 19.48258376679312 7.5942597338292472 #
vertex $-1 $528 $649 #
point $-1 3.0523895734577096 19.48258376679312 7.5942597338292472 #
straight-curve $-1 -29.960783896802795 0 12.328531528108302 0 -1 0 I I #
point $-1 -29.960783896802795 -25.446865674426753 12.328531528108298 #
point $-1 -29.960783896802795 -19.785879867659776 12.328531528108302 #
loop $-1 $-1 $650 $544 #
plane-surface $-1 -10.405908545706062 30.160535665464046 106.54120987999816 1 0 0 0 -0.54463904215088732 -0.83867056331134215 forward_v I I I I #
loop $-1 $-1 $651 $444 #
coedge $-1 $611 $611 $612 $652 forward $545 $-1 #
coedge $-1 $612 $612 $611 $652 reversed $547 $-1 #
coedge $-1 $613 $613 $548 $614 forward $555 $-1 #
edge $-1 $653 $653 $613 $654 forward #
edge $-1 $655 $655 $549 $-1 forward #
vertex $-1 $550 $656 #
ellipse-curve $-1 -2.6194722212287047 19.48258376679312 7.5942597338292472 0 0.54463904215088732 0.83867056331134215 1 0 0 1 I I #
point $-1 -1.6194722212287047 20.449527082875935 9.0832218405242138 #
point $-1 2.0523895734577096 18.937944724642229 6.7555891705179043 #
loop $-1 $-1 $657 $456 #
face $-1 $658 $659 $127 $-1 $660 forward single #
loop $-1 $-1 $661 $556 #
plane-surface $-1 5.1669641032486524 30.160535665464046 106.54120987999816 -1 0 0 0 0.54463904215088732 0.83867056331134215 forward_v I I I I #
coedge $-1 $559 $626 $567 $631 forward $459 $-1 #
coedge $-1 $561 $560 $626 $662 reversed $365 $-1 #
coedge $-1 $624 $562 $625 $662 forward $459 $-1 #
vertex $-1 $563 $663 #
straight-curve $-1 0 25.446865674426753 12.328531528108302 -1 0 0 I I #
point $-1 -29.960783896802795 25.446865674426753 12.328531528108298 #
straight-curve $-1 -29.960783896802795 0 12.328531528108302 0 1 0 I I #
edge $-1 $633 $568 $567 $664 forward #
point $-1 -29.960783896802795 -25.446865674426753 12.328531528108298 #
vertex $-1 $662 $665 #
straight-curve $-1 -43.512070070497757 -25.446865674426753 0 0 0 -1 I I #
straight-curve $-1 -43.512070070497757 25.446865674426753 0 0 0 -1 I I #
straight-curve $-1 -29.960783896802795 -25.446865674426753 28.594291689189888 0 0 -1 I I #
straight-curve $-1 -29.960783896802795 0 12.328531528108302 0 -1 0 I I #
point $-1 -29.960783896802795 -25.446865674426753 4.816149414380571 #
straight-curve $-1 -10.463819392934486 -25.446865674426753 4.8161494143805728 1 0 0 I I #
point $-1 -29.960783896802795 -25.446865674426753 12.328531528108298 #
point $-1 -24.798986690554898 -18.950356181968502 5.8097989013473104 #
point $-1 -17.056290881183049 -18.950356181968502 5.8097989013473104 #
straight-curve $-1 5.1669641032486524 25.446865674426753 53.270604939999082 0 0 -1 I I #
point $-1 5.1669641032486524 25.446865674426753 12.328531528108302 #
straight-curve $-1 -1.3097361106143524 25.446865674426753 5.8379121529401115 -1 0 0 I I #
point $-1 5.1669641032486524 25.446865674426753 5.8379121529401097 #
point $-1 -7.291334015915119 18.937944724642229 6.7555891705179043 #
point $-1 -2.6194722212287047 18.937944724642229 6.7555891705179043 #
point $-1 2.0523895734577096 18.937944724642229 6.7555891705179043 #
coedge $-1 $666 $667 $668 $669 reversed $608 $-1 #
coedge $-1 $651 $651 $-1 $670 forward $610 $-1 #
edge $-1 $671 $671 $611 $672 forward #
vertex $-1 $614 $673 #
ellipse-curve $-1 -7.291334015915119 20.449527082875928 9.0832218405242031 0 -0.54463904215088732 -0.83867056331134215 1 0 0 1 I I #
vertex $-1 $615 $674 #
point $-1 -1.6194722212287047 19.48258376679312 7.5942597338292472 #
coedge $-1 $675 $676 $677 $678 reversed $620 $-1 #
face $-1 $679 $680 $127 $-1 $681 reversed single #
loop $-1 $-1 $682 $621 #
plane-surface $-1 0 0 12.328531528108302 0 0 1 1 0 0 forward_v I I I I #
coedge $-1 $683 $684 $682 $685 reversed $622 $-1 #
edge $-1 $627 $633 $625 $686 forward #
point $-1 -43.512070070497757 25.446865674426753 12.328531528108302 #
straight-curve $-1 0 -25.446865674426753 12.328531528108302 1 0 0 I I #
point $-1 -43.512070070497757 -25.446865674426753 12.328531528108302 #
coedge $-1 $667 $650 $676 $687 forward $608 $-1 #
coedge $-1 $650 $666 $688 $689 reversed $608 $-1 #
coedge $-1 $690 $677 $650 $669 forward $659 $-1 #
edge $-1 $691 $692 $668 $693 forward #
edge $-1 $694 $694 $651 $-1 forward #
vertex $-1 $652 $695 #
ellipse-curve $-1 -7.291334015915119 19.48258376679312 7.5942597338292472 0 0.54463904215088732 0.83867056331134215 1 0 0 1 I I #
point $-1 -6.291334015915119 20.449527082875935 9.0832218405242138 #
point $-1 -2.6194722212287047 18.937944724642229 6.7555891705179043 #
coedge $-1 $696 $657 $684 $697 reversed $620 $-1 #
coedge $-1 $657 $696 $666 $687 reversed $620 $-1 #
coedge $-1 $668 $682 $657 $678 forward $659 $-1 #
edge $-1 $698 $691 $677 $699 forward #
face $-1 $700 $701 $127 $-1 $702 reversed single #
loop $-1 $703 $704 $658 #
cone-surface $-1 -17.056290881183049 -21.581999994777114 7.7928846985343858 0 0.79863551827123203 -0.60181501223851219 2 0 0 1 I I 0 1 forward I I I I #
coedge $-1 $677 $705 $661 $685 forward $659 $-1 #
coedge $-1 $684 $661 $706 $707 reversed $622 $-1 #
coedge $-1 $661 $683 $675 $697 forward $622 $-1 #
edge $-1 $708 $698 $682 $709 forward #
straight-curve $-1 -43.512070070497757 0 12.328531528108302 0 -1 0 I I #
edge $-1 $691 $710 $666 $711 forward #
coedge $-1 $712 $713 $667 $689 forward $714 $-1 #
edge $-1 $692 $710 $688 $715 forward #
coedge $-1 $716 $668 $713 $717 forward $659 $-1 #
vertex $-1 $678 $718 #
vertex $-1 $717 $719 #
straight-curve $-1 -10.405908545706062 15.080267832732023 12.3285315281083 0 1 0 I I #
vertex $-1 $670 $720 #
point $-1 -6.291334015915119 19.48258376679312 7.5942597338292472 #
coedge $-1 $676 $675 $712 $721 reversed $620 $-1 #
edge $-1 $722 $698 $684 $723 forward #
vertex $-1 $678 $724 #
straight-curve $-1 -1.3097361106143524 15.452188491325092 12.328531528108302 -1 0 0 I I #
face $-1 $725 $726 $127 $-1 $727 reversed single #
loop $-1 $728 $729 $679 #
cone-surface $-1 -17.056290881183049 -19.748991700239735 6.411613913585823 0 0.79863551827123203 -0.60181501223851219 1 0 0 1 I I -0.70710678118654746 0.70710678118654746 forward I I I I #
loop $-1 $-1 $730 $658 #
coedge $-1 $704 $704 $731 $732 reversed $680 $-1 #
coedge $-1 $682 $733 $734 $735 forward $659 $-1 #
coedge $-1 $734 $712 $683 $707 forward $714 $-1 #
edge $-1 $722 $708 $706 $736 forward #
vertex $-1 $707 $737 #
straight-curve $-1 5.1669641032486524 15.080267832732023 12.3285315281083 0 -1 0 I I #
vertex $-1 $721 $738 #
straight-curve $-1 -10.405908545706062 -17.236208664932335 33.556625246264275 0 0.83867056331134215 -0.54463904215088732 I I #
coedge $-1 $706 $688 $696 $721 forward $714 $-1 #
coedge $-1 $688 $739 $690 $717 reversed $714 $-1 #
loop $-1 $-1 $706 $740 #
straight-curve $-1 -10.405908545706062 25.446865674426753 53.270604939999082 0 0 -1 I I #
coedge $-1 $741 $690 $742 $743 forward $659 $-1 #
edge $-1 $692 $744 $713 $745 forward #
point $-1 -10.405908545706062 15.452188491325096 12.3285315281083 #
point $-1 -10.405908545706062 25.446865674426753 12.328531528108302 #
point $-1 -7.291334015915119 18.937944724642229 6.7555891705179043 #
edge $-1 $710 $722 $712 $746 forward #
vertex $-1 $721 $747 #
straight-curve $-1 5.1669641032486524 -17.236208664932335 33.556625246264275 0 -0.83867056331134215 0.54463904215088732 I I #
point $-1 5.1669641032486524 15.452188491325096 12.3285315281083 #
face $-1 $748 $749 $127 $-1 $750 reversed single #
loop $-1 $751 $752 $700 #
cone-surface $-1 -24.798986690554898 -21.581999994777114 7.7928846985343858 0 0.79863551827123203 -0.60181501223851219 2 0 0 1 I I 0 1 forward I I I I #
loop $-1 $-1 $753 $679 #
coedge $-1 $729 $729 $730 $754 forward $701 $-1 #
coedge $-1 $730 $730 $729 $754 reversed $703 $-1 #
coedge $-1 $731 $731 $704 $732 forward $755 $-1 #
edge $-1 $756 $756 $731 $757 forward #
coedge $-1 $705 $758 $759 $760 forward $659 $-1 #
coedge $-1 $761 $706 $705 $735 reversed $714 $-1 #
edge $-1 $762 $708 $734 $745 forward #
straight-curve $-1 5.1669641032486524 25.446865674426753 53.270604939999082 0 0 1 I I #
point $-1 5.1669641032486524 25.446865674426753 12.328531528108302 #
point $-1 -10.405908545706062 25.446865674426753 5.8379121529401097 #
coedge $-1 $713 $763 $764 $765 forward $714 $-1 #
face $-1 $766 $714 $127 $-1 $767 reversed single #
coedge $-1 $768 $716 $769 $770 forward $659 $-1 #
coedge $-1 $764 $771 $716 $743 reversed $772 $-1 #
edge $-1 $744 $773 $716 $774 forward #
vertex $-1 $743 $775 #
straight-curve $-1 0 25.446865674426753 12.328531528108302 -1 0 0 I I #
straight-curve $-1 -1.3097361106143524 25.446865674426753 5.8379121529401115 1 0 0 I I #
point $-1 5.1669641032486524 25.446865674426753 5.8379121529401097 #
face $-1 $776 $777 $127 $-1 $778 forward single #
loop $-1 $779 $780 $725 #
cone-surface $-1 -24.798986690554898 -19.748991700239735 6.411613913585823 0 0.79863551827123203 -0.60181501223851219 1 0 0 1 I I -0.70710678118654746 0.70710678118654746 forward I I I I #
loop $-1 $-1 $781 $700 #
coedge $-1 $752 $752 $782 $783 reversed $726 $-1 #
coedge $-1 $753 $753 $-1 $784 forward $728 $-1 #
edge $-1 $785 $785 $729 $786 forward #
loop $-1 $787 $731 $788 #
vertex $-1 $732 $789 #
ellipse-curve $-1 -17.056290881183049 -22.616372771043263 8.5723404712444378 0 0.79863551827123203 -0.60181501223851219 2 0 0 1 I I #
coedge $-1 $733 $768 $790 $791 forward $659 $-1 #
coedge $-1 $792 $793 $733 $760 reversed $794 $-1 #
edge $-1 $795 $762 $759 $796 forward #
coedge $-1 $797 $734 $793 $798 forward $714 $-1 #
vertex $-1 $760 $799 #
coedge $-1 $739 $800 $801 $802 forward $714 $-1 #
coedge $-1 $803 $742 $739 $765 reversed $772 $-1 #
edge $-1 $804 $744 $739 $805 forward #
face $-1 $-1 $794 $127 $-1 $806 reversed single #
plane-surface $-1 0 25.446865674426753 0 0 -1 0 0 0 -1 forward_v I I I I #
coedge $-1 $758 $741 $807 $808 forward $659 $-1 #
coedge $-1 $809 $810 $741 $770 reversed $811 $-1 #
edge $-1 $773 $812 $741 $813 forward #
coedge $-1 $742 $803 $809 $814 forward $772 $-1 #
loop $-1 $-1 $771 $815 #
vertex $-1 $770 $816 #
straight-curve $-1 -29.960783896802795 0 12.328531528108302 0 -1 0 I I #
point $-1 -29.960783896802795 25.446865674426753 12.328531528108298 #
face $-1 $788 $817 $127 $-1 $818 forward single #
loop $-1 $-1 $819 $748 #
plane-surface $-1 -29.960783896802795 -94.947434938039038 57.188583378379775 1 0 0 0 0.79863551827123203 -0.60181501223851219 forward_v I I I I #
loop $-1 $-1 $820 $725 #
coedge $-1 $780 $780 $781 $821 forward $749 $-1 #
coedge $-1 $781 $781 $780 $821 reversed $751 $-1 #
coedge $-1 $782 $782 $752 $783 forward $787 $-1 #
edge $-1 $822 $822 $782 $823 forward #
edge $-1 $824 $824 $753 $-1 forward #
vertex $-1 $754 $825 #
ellipse-curve $-1 -17.056290881183049 -20.547627218510968 7.0134289258243356 0 -0.79863551827123203 0.60181501223851219 2 0 0 1 I I #
loop $-1 $811 $782 $788 #
face $-1 $826 $755 $127 $-1 $827 forward single #
point $-1 -15.056290881183049 -22.61637277104326 8.572340471244436 #
coedge $-1 $828 $829 $758 $791 reversed $830 $-1 #
edge $-1 $831 $795 $790 $832 forward #
coedge $-1 $833 $759 $829 $834 forward $794 $-1 #
coedge $-1 $759 $833 $761 $798 reversed $794 $-1 #
loop $-1 $-1 $792 $766 #
vertex $-1 $760 $835 #
straight-curve $-1 43.512070070497757 0 12.328531528108302 0 1 0 I I #
coedge $-1 $800 $761 $836 $837 reversed $714 $-1 #
edge $-1 $762 $838 $793 $839 forward #
point $-1 43.512070070497757 25.446865674426753 12.328531528108302 #
coedge $-1 $763 $797 $840 $841 reversed $714 $-1 #
coedge $-1 $842 $843 $763 $802 reversed $844 $-1 #
edge $-1 $845 $804 $763 $846 forward #
coedge $-1 $771 $764 $843 $847 forward $772 $-1 #
vertex $-1 $802 $848 #
straight-curve $-1 -29.960783896802795 25.446865674426753 4.8812398862677879 0 0 1 I I #
plane-surface $-1 43.512070070497757 0 0 -1 0 0 0 0 1 forward_v I I I I #
coedge $-1 $849 $850 $768 $808 reversed $817 $-1 #
edge $-1 $812 $831 $768 $851 forward #
coedge $-1 $852 $769 $771 $814 reversed $811 $-1 #
coedge $-1 $769 $853 $849 $854 reversed $811 $-1 #
loop $-1 $-1 $769 $788 #
vertex $-1 $770 $855 #
straight-curve $-1 -10.463819392934486 -19.785879867659773 12.328531528108302 1 0 0 I I #
edge $-1 $856 $773 $771 $857 forward #
face $-1 $858 $772 $127 $-1 $859 forward single #
point $-1 -29.960783896802795 -19.785879867659776 12.328531528108302 #
loop $-1 $-1 $807 $776 #
plane-surface $-1 -11.894493674935148 -94.947434938039038 57.188583378379775 -1 0 0 0 -0.79863551827123203 0.60181501223851219 forward_v I I I I #
coedge $-1 $860 $861 $862 $863 forward $777 $-1 #
coedge $-1 $820 $820 $-1 $864 forward $779 $-1 #
edge $-1 $865 $865 $780 $866 forward #
vertex $-1 $783 $867 #
ellipse-curve $-1 -24.798986690554898 -22.616372771043263 8.5723404712444378 0 0.79863551827123203 -0.60181501223851219 2 0 0 1 I I #
vertex $-1 $784 $868 #
point $-1 -15.056290881183049 -20.547627218510968 7.0134289258243356 #
face $-1 $815 $844 $127 $-1 $869 forward single #
plane-surface $-1 -20.927638785868972 -25.446865674426761 4.8161494143805612 0 -0.79863551827123203 0.60181501223851219 1 0 0 forward_v I I I I #
coedge $-1 $870 $790 $850 $871 forward $830 $-1 #
coedge $-1 $790 $872 $792 $834 reversed $830 $-1 #
loop $-1 $-1 $873 $858 #
vertex $-1 $791 $874 #
straight-curve $-1 0 -25.446865674426753 12.328531528108302 1 0 0 I I #
coedge $-1 $793 $792 $875 $876 reversed $794 $-1 #
edge $-1 $795 $877 $792 $878 forward #
point $-1 43.512070070497757 -25.446865674426753 12.328531528108302 #
coedge $-1 $875 $879 $797 $837 forward $880 $-1 #
edge $-1 $881 $838 $797 $882 forward #
vertex $-1 $876 $883 #
straight-curve $-1 43.512070070497757 25.446865674426753 0 0 0 -1 I I #
coedge $-1 $884 $885 $800 $841 forward $886 $-1 #
edge $-1 $845 $881 $800 $887 forward #
coedge $-1 $888 $801 $885 $889 reversed $844 $-1 #
coedge $-1 $801 $862 $803 $847 reversed $844 $-1 #
loop $-1 $-1 $843 $826 #
vertex $-1 $841 $890 #
straight-curve $-1 -18.368213491825138 25.446865674426753 7.1964280169628534 1 0 0 I I #
edge $-1 $804 $856 $803 $891 forward #
point $-1 -29.960783896802795 25.446865674426753 7.1964280169628534 #
coedge $-1 $850 $807 $810 $854 forward $817 $-1 #
coedge $-1 $807 $849 $828 $871 reversed $817 $-1 #
straight-curve $-1 -11.894493674935148 -47.473717469019519 12.3285315281083 0 -1 0 I I #
coedge $-1 $853 $809 $861 $892 reversed $811 $-1 #
coedge $-1 $810 $852 $870 $893 reversed $811 $-1 #
edge $-1 $812 $894 $849 $895 forward #
point $-1 -11.894493674935148 -19.785879867659773 12.328531528108302 #
vertex $-1 $863 $896 #
straight-curve $-1 -29.960783896802795 -19.649996647163359 12.508854657340095 0 0.60181501223851219 0.79863551827123203 I I #
face $-1 $897 $830 $127 $-1 $898 reversed single #
plane-surface $-1 -29.960783896802795 0 9.7624797725355759 -1 0 0 0 0 1 forward_v I I I I #
coedge $-1 $861 $819 $873 $899 reversed $777 $-1 #
coedge $-1 $819 $860 $852 $892 forward $777 $-1 #
coedge $-1 $843 $888 $819 $863 reversed $844 $-1 #
edge $-1 $856 $900 $862 $891 forward #
edge $-1 $901 $901 $820 $-1 forward #
vertex $-1 $821 $902 #
ellipse-curve $-1 -24.798986690554898 -20.547627218510968 7.0134289258243356 0 -0.79863551827123203 0.60181501223851219 2 0 0 1 I I #
point $-1 -22.798986690554898 -22.61637277104326 8.572340471244436 #
point $-1 -17.056290881183049 -18.950356181968502 5.8097989013473104 #
plane-surface $-1 -36.736426983650276 0 7.1964280169628534 0 0 1 1 0 0 forward_v I I I I #
coedge $-1 $873 $828 $853 $893 forward $830 $-1 #
edge $-1 $831 $894 $828 $903 forward #
coedge $-1 $829 $904 $905 $906 reversed $830 $-1 #
coedge $-1 $907 $870 $860 $899 forward $830 $-1 #
point $-1 -11.894493674935148 -25.446865674426753 12.328531528108302 #
coedge $-1 $905 $836 $833 $876 forward $880 $-1 #
edge $-1 $838 $877 $833 $908 forward #
vertex $-1 $834 $909 #
straight-curve $-1 43.512070070497757 -25.446865674426753 0 0 0 -1 I I #
coedge $-1 $836 $905 $884 $910 forward $880 $-1 #
loop $-1 $-1 $875 $897 #
vertex $-1 $837 $911 #
straight-curve $-1 0 25.446865674426753 -12.328531528108302 1 0 0 I I #
point $-1 43.512070070497757 25.446865674426753 -12.328531528108302 #
coedge $-1 $912 $840 $879 $910 reversed $886 $-1 #
coedge $-1 $840 $912 $842 $889 forward $886 $-1 #
loop $-1 $-1 $885 $913 #
straight-curve $-1 -43.512070070497757 25.446865674426753 0 0 0 -1 I I #
coedge $-1 $862 $842 $907 $914 reversed $844 $-1 #
edge $-1 $915 $845 $885 $916 forward #
point $-1 -43.512070070497757 25.446865674426753 7.1964280169628534 #
straight-curve $-1 -29.960783896802795 0 7.1964280169628534 0 -1 0 I I #
edge $-1 $917 $856 $861 $918 forward #
edge $-1 $894 $917 $870 $919 forward #
vertex $-1 $893 $920 #
straight-curve $-1 -11.894493674935148 -25.446865674426761 4.8161494143805612 0 -0.60181501223851219 -0.79863551827123203 I I #
point $-1 -29.960783896802795 -23.653197144075182 7.1964280169628534 #
face $-1 $913 $880 $127 $-1 $921 reversed single #
plane-surface $-1 0 -25.446865674426753 0 0 1 0 0 0 1 forward_v I I I I #
edge $-1 $917 $900 $873 $922 forward #
vertex $-1 $914 $923 #
vertex $-1 $864 $924 #
point $-1 -22.798986690554898 -20.547627218510968 7.0134289258243356 #
straight-curve $-1 -11.894493674935148 -25.446865674426753 28.594291689189888 0 0 -1 I I #
coedge $-1 $872 $907 $912 $925 forward $830 $-1 #
coedge $-1 $879 $875 $872 $906 forward $880 $-1 #
edge $-1 $877 $926 $872 $927 forward #
coedge $-1 $904 $873 $888 $914 forward $830 $-1 #
straight-curve $-1 43.512070070497757 0 -12.328531528108302 0 -1 0 I I #
point $-1 43.512070070497757 -25.446865674426753 -12.328531528108302 #
edge $-1 $926 $881 $884 $928 forward #
point $-1 -43.512070070497757 25.446865674426753 -12.328531528108302 #
coedge $-1 $885 $884 $904 $925 reversed $886 $-1 #
face $-1 $740 $886 $127 $-1 $929 reversed single #
edge $-1 $900 $915 $907 $930 forward #
vertex $-1 $925 $931 #
straight-curve $-1 -43.512070070497757 0 7.1964280169628534 0 1 0 I I #
vertex $-1 $893 $932 #
straight-curve $-1 -29.960783896802795 -25.446865674426761 4.8161494143805612 0 0.60181501223851219 0.79863551827123203 I I #
straight-curve $-1 -10.463819392934486 -25.446865674426753 4.8161494143805728 -1 0 0 I I #
point $-1 -11.894493674935148 -25.446865674426753 4.816149414380571 #
plane-surface $-1 0 0 -12.328531528108302 0 0 1 1 0 0 forward_v I I I I #
straight-curve $-1 -29.960783896802795 -25.446865674426753 28.594291689189888 0 0 1 I I #
point $-1 -29.960783896802795 -25.446865674426753 7.1964280169628534 #
point $-1 -24.798986690554898 -18.950356181968502 5.8097989013473104 #
edge $-1 $915 $926 $912 $933 forward #
vertex $-1 $910 $934 #
straight-curve $-1 0 -25.446865674426753 -12.328531528108302 -1 0 0 I I #
straight-curve $-1 -43.512070070497757 0 -12.328531528108302 0 1 0 I I #
plane-surface $-1 -43.512070070497757 0 0 1 0 0 0 0 -1 forward_v I I I I #
straight-curve $-1 -18.368213491825138 -25.446865674426753 7.1964280169628534 -1 0 0 I I #
point $-1 -43.512070070497757 -25.446865674426753 7.1964280169628534 #
point $-1 -29.960783896802795 -25.446865674426753 4.816149414380571 #
straight-curve $-1 -43.512070070497757 -25.446865674426753 0 0 0 -1 I I #
point $-1 -43.512070070497757 -25.446865674426753 -12.328531528108302 #
End-of-ACIS-data 