300 0 29 0           
7 Unknown 11 ACIS 3.0 NT 24 Wed Oct 28 12:20:52 1998 
-1 9.9999999999999995e-007 1e-010 
body $29 $30 $-1 $31 #
body $32 $33 $-1 $34 #
body $35 $36 $-1 $37 #
body $38 $39 $-1 $40 #
body $41 $42 $-1 $43 #
body $44 $45 $-1 $46 #
body $47 $48 $-1 $49 #
body $50 $51 $-1 $52 #
body $53 $-1 $-1 $54 #
body $55 $-1 $-1 $56 #
body $57 $-1 $-1 $58 #
body $59 $-1 $-1 $60 #
body $61 $-1 $-1 $62 #
body $63 $-1 $-1 $64 #
body $65 $66 $-1 $67 #
body $68 $69 $-1 $70 #
body $71 $-1 $-1 $72 #
body $73 $-1 $-1 $74 #
body $75 $-1 $-1 $76 #
body $77 $-1 $-1 $78 #
body $79 $-1 $-1 $80 #
body $81 $-1 $-1 $82 #
body $83 $-1 $-1 $84 #
body $85 $-1 $-1 $86 #
body $87 $-1 $-1 $88 #
body $89 $-1 $-1 $90 #
body $91 $92 $-1 $93 #
body $94 $95 $-1 $96 #
body $97 $-1 $-1 $98 #
display_attribute-st-attrib $-1 $99 $-1 $0 8 #
lump $-1 $-1 $100 $0 #
transform $-1 1 0 0 0 1 0 0 0 1 41.427045503097631 17.366563385102381 7.7648948694149436 1 rotate no_reflect no_shear #
display_attribute-st-attrib $-1 $101 $-1 $1 1 #
lump $-1 $-1 $102 $1 #
transform $-1 1 0 0 0 1 0 0 0 1 41.427045503097631 17.366563385102381 7.7648948694149436 1 rotate no_reflect no_shear #
display_attribute-st-attrib $-1 $103 $-1 $2 1 #
lump $-1 $-1 $104 $2 #
transform $-1 1 0 0 0 1 0 0 0 1 41.427045503097631 17.366563385102381 7.7648948694149436 1 rotate no_reflect no_shear #
display_attribute-st-attrib $-1 $105 $-1 $3 1 #
lump $-1 $-1 $106 $3 #
transform $-1 1 0 0 0 1 0 0 0 1 41.427045503097631 17.366563385102381 7.7648948694149436 1 rotate no_reflect no_shear #
display_attribute-st-attrib $-1 $107 $-1 $4 1 #
lump $-1 $-1 $108 $4 #
transform $-1 1 0 0 0 1 0 0 0 1 41.427045503097631 17.366563385102381 7.7648948694149436 1 rotate no_reflect no_shear #
display_attribute-st-attrib $-1 $109 $-1 $5 1 #
lump $-1 $-1 $110 $5 #
transform $-1 1 0 0 0 1 0 0 0 1 41.427045503097631 17.366563385102381 7.7648948694149436 1 rotate no_reflect no_shear #
display_attribute-st-attrib $-1 $111 $-1 $6 1 #
lump $-1 $-1 $112 $6 #
transform $-1 1 0 0 0 1 0 0 0 1 41.427045503097631 17.366563385102381 7.7648948694149436 1 rotate no_reflect no_shear #
display_attribute-st-attrib $-1 $113 $-1 $7 1 #
lump $-1 $-1 $114 $7 #
transform $-1 1 0 0 0 1 0 0 0 1 41.427045503097631 17.366563385102381 7.7648948694149436 1 rotate no_reflect no_shear #
display_attribute-st-attrib $-1 $115 $-1 $8 1 #
transform $-1 1 0 0 0 1 0 0 0 1 41.427045503097631 17.366563385102381 7.7648948694149436 1 rotate no_reflect no_shear #
display_attribute-st-attrib $-1 $116 $-1 $9 1 #
transform $-1 1 0 0 0 1 0 0 0 1 41.427045503097631 17.366563385102381 7.7648948694149436 1 rotate no_reflect no_shear #
display_attribute-st-attrib $-1 $117 $-1 $10 1 #
transform $-1 1 0 0 0 1 0 0 0 1 41.427045503097631 17.366563385102381 7.7648948694149436 1 rotate no_reflect no_shear #
display_attribute-st-attrib $-1 $118 $-1 $11 1 #
transform $-1 1 0 0 0 1 0 0 0 1 41.427045503097631 17.366563385102381 7.7648948694149436 1 rotate no_reflect no_shear #
display_attribute-st-attrib $-1 $119 $-1 $12 1 #
transform $-1 1 0 0 0 1 0 0 0 1 41.427045503097631 17.366563385102381 7.7648948694149436 1 rotate no_reflect no_shear #
display_attribute-st-attrib $-1 $120 $-1 $13 1 #
transform $-1 1 0 0 0 1 0 0 0 1 41.427045503097631 17.366563385102381 7.7648948694149436 1 rotate no_reflect no_shear #
display_attribute-st-attrib $-1 $121 $-1 $14 1 #
lump $-1 $-1 $122 $14 #
transform $-1 1 0 0 0 1 0 0 0 1 41.427045503097631 17.366563385102381 7.7648948694149436 1 rotate no_reflect no_shear #
display_attribute-st-attrib $-1 $123 $-1 $15 1 #
lump $-1 $-1 $124 $15 #
transform $-1 1 0 0 0 1 0 0 0 1 41.427045503097631 17.366563385102381 7.7648948694149436 1 rotate no_reflect no_shear #
display_attribute-st-attrib $-1 $125 $-1 $16 1 #
transform $-1 1 0 0 0 1 0 0 0 1 41.427045503097631 17.366563385102381 7.7648948694149436 1 rotate no_reflect no_shear #
display_attribute-st-attrib $-1 $126 $-1 $17 1 #
transform $-1 1 0 0 0 1 0 0 0 1 41.427045503097631 17.366563385102381 7.7648948694149436 1 rotate no_reflect no_shear #
display_attribute-st-attrib $-1 $127 $-1 $18 1 #
transform $-1 1 0 0 0 1 0 0 0 1 41.427045503097631 17.366563385102381 7.7648948694149436 1 rotate no_reflect no_shear #
display_attribute-st-attrib $-1 $128 $-1 $19 1 #
transform $-1 1 0 0 0 1 0 0 0 1 41.427045503097631 17.366563385102381 7.7648948694149436 1 rotate no_reflect no_shear #
display_attribute-st-attrib $-1 $129 $-1 $20 1 #
transform $-1 1 0 0 0 1 0 0 0 1 41.427045503097631 17.366563385102381 7.7648948694149436 1 rotate no_reflect no_shear #
display_attribute-st-attrib $-1 $130 $-1 $21 1 #
transform $-1 1 0 0 0 1 0 0 0 1 41.427045503097631 17.366563385102381 7.7648948694149436 1 rotate no_reflect no_shear #
display_attribute-st-attrib $-1 $131 $-1 $22 1 #
transform $-1 1 0 0 0 1 0 0 0 1 41.427045503097631 17.366563385102381 7.7648948694149436 1 rotate no_reflect no_shear #
display_attribute-st-attrib $-1 $132 $-1 $23 1 #
transform $-1 1 0 0 0 1 0 0 0 1 41.427045503097631 17.366563385102381 7.7648948694149436 1 rotate no_reflect no_shear #
display_attribute-st-attrib $-1 $133 $-1 $24 1 #
transform $-1 1 0 0 0 1 0 0 0 1 41.427045503097631 17.366563385102381 7.7648948694149436 1 rotate no_reflect no_shear #
display_attribute-st-attrib $-1 $134 $-1 $25 1 #
transform $-1 1 0 0 0 1 0 0 0 1 41.427045503097631 17.366563385102381 7.7648948694149436 1 rotate no_reflect no_shear #
display_attribute-st-attrib $-1 $135 $-1 $26 1 #
lump $-1 $-1 $136 $26 #
transform $-1 1 0 0 0 1 0 0 0 1 41.427045503097631 17.366563385102381 7.7648948694149436 1 rotate no_reflect no_shear #
display_attribute-st-attrib $-1 $137 $-1 $27 1 #
lump $-1 $-1 $138 $27 #
transform $-1 1 0 0 0 1 0 0 0 1 41.427045503097631 17.366563385102381 7.7648948694149436 1 rotate no_reflect no_shear #
display_attribute-st-attrib $-1 $139 $-1 $28 1 #
transform $-1 1 0 0 0 1 0 0 0 1 41.427045503097631 17.366563385102381 7.7648948694149436 1 rotate no_reflect no_shear #
id_attribute-st-attrib $-1 $-1 $29 $0 1 #
shell $-1 $-1 $-1 $140 $-1 $30 #
id_attribute-st-attrib $-1 $-1 $32 $1 83 #
shell $-1 $-1 $-1 $141 $-1 $33 #
id_attribute-st-attrib $-1 $-1 $35 $2 85 #
shell $-1 $-1 $-1 $142 $-1 $36 #
id_attribute-st-attrib $-1 $-1 $38 $3 87 #
shell $-1 $-1 $-1 $143 $-1 $39 #
id_attribute-st-attrib $-1 $-1 $41 $4 89 #
shell $-1 $-1 $-1 $144 $-1 $42 #
id_attribute-st-attrib $-1 $-1 $44 $5 91 #
shell $-1 $-1 $-1 $145 $-1 $45 #
id_attribute-st-attrib $-1 $-1 $47 $6 93 #
shell $-1 $-1 $-1 $146 $-1 $48 #
id_attribute-st-attrib $-1 $-1 $50 $7 95 #
shell $-1 $-1 $-1 $147 $-1 $51 #
id_attribute-st-attrib $-1 $-1 $53 $8 97 #
id_attribute-st-attrib $-1 $-1 $55 $9 99 #
id_attribute-st-attrib $-1 $-1 $57 $10 101 #
id_attribute-st-attrib $-1 $-1 $59 $11 103 #
id_attribute-st-attrib $-1 $-1 $61 $12 105 #
id_attribute-st-attrib $-1 $-1 $63 $13 107 #
id_attribute-st-attrib $-1 $-1 $65 $14 109 #
shell $-1 $-1 $-1 $148 $-1 $66 #
id_attribute-st-attrib $-1 $-1 $68 $15 111 #
shell $-1 $-1 $-1 $149 $-1 $69 #
id_attribute-st-attrib $-1 $-1 $71 $16 113 #
id_attribute-st-attrib $-1 $-1 $73 $17 115 #
id_attribute-st-attrib $-1 $-1 $75 $18 117 #
id_attribute-st-attrib $-1 $-1 $77 $19 119 #
id_attribute-st-attrib $-1 $-1 $79 $20 121 #
id_attribute-st-attrib $-1 $-1 $81 $21 123 #
id_attribute-st-attrib $-1 $-1 $83 $22 125 #
id_attribute-st-attrib $-1 $-1 $85 $23 127 #
id_attribute-st-attrib $-1 $-1 $87 $24 129 #
id_attribute-st-attrib $-1 $-1 $89 $25 131 #
id_attribute-st-attrib $-1 $-1 $91 $26 133 #
shell $-1 $-1 $-1 $150 $-1 $92 #
id_attribute-st-attrib $-1 $-1 $94 $27 135 #
shell $-1 $-1 $-1 $151 $-1 $95 #
id_attribute-st-attrib $-1 $-1 $97 $28 137 #
face $-1 $152 $153 $100 $-1 $154 reversed single #
face $-1 $-1 $155 $102 $-1 $156 forward double out #
face $-1 $157 $158 $104 $-1 $159 reversed single #
face $-1 $160 $161 $106 $-1 $162 forward single #
face $-1 $163 $164 $108 $-1 $165 forward single #
face $-1 $166 $167 $110 $-1 $168 reversed single #
face $-1 $169 $170 $112 $-1 $171 forward single #
face $-1 $172 $173 $114 $-1 $174 forward single #
face $-1 $-1 $175 $122 $-1 $176 forward double out #
face $-1 $-1 $177 $124 $-1 $178 forward double out #
face $-1 $-1 $179 $136 $-1 $180 forward double out #
face $-1 $-1 $181 $138 $-1 $182 forward double out #
face $-1 $183 $184 $100 $-1 $185 reversed single #
loop $-1 $186 $187 $140 #
cone-surface $-1 -37.661348540999185 5.0498197185768454 4.5069061645718635 0.62932039886446345 0 -0.77714595512881146 0.38857297756440573 0 0.31466019943223172 1 I I 0 1 forward I I I I #
loop $-1 $-1 $188 $141 #
plane-surface $-1 0 -17.366563385102381 0 0 1 0 0 0 1 forward_v I I I I #
face $-1 $189 $190 $104 $-1 $191 reversed single #
loop $-1 $-1 $192 $142 #
plane-surface $-1 29.179093411329902 7.0153256345722852 118.99224604356523 0 -1 0 -0.62932039886446345 0 -0.77714595512881146 forward_v I I I I #
face $-1 $193 $194 $106 $-1 $195 forward single #
loop $-1 $196 $197 $143 #
cone-surface $-1 37.661348540999178 2.1015608445836804 4.5069061645718564 -0.62932039886446345 0 -0.77714595512881146 0.38857297756440573 0 -0.31466019943223172 1 I I 0 1 forward I I I I #
face $-1 $198 $199 $108 $-1 $200 forward single #
loop $-1 $201 $202 $144 #
cone-surface $-1 37.661348540999178 5.0498197185768454 4.5069061645718564 -0.62932039886446345 0 -0.77714595512881146 0.38857297756440573 0 -0.31466019943223172 1 I I 0 1 forward I I I I #
face $-1 $203 $204 $110 $-1 $205 reversed single #
loop $-1 $-1 $206 $145 #
plane-surface $-1 -93.568815102668992 0.13605492858823709 66.85047644399387 0 1 0 -0.62932039886446345 0 0.77714595512881146 forward_v I I I I #
face $-1 $207 $208 $112 $-1 $209 forward single #
loop $-1 $210 $211 $146 #
cone-surface $-1 -37.661348540999185 2.1015608445836804 4.5069061645718635 0.62932039886446345 0 -0.77714595512881146 0.38857297756440573 0 0.31466019943223172 1 I I 0 1 forward I I I I #
face $-1 $212 $213 $114 $-1 $214 forward single #
loop $-1 $215 $216 $147 #
cone-surface $-1 -37.661348540999185 5.0498197185768454 4.5069061645718635 0.62932039886446345 0 -0.77714595512881146 0.38857297756440573 0 0.31466019943223172 1 I I 0 1 forward I I I I #
loop $-1 $-1 $217 $148 #
plane-surface $-1 -22.962676188241453 3.5756902815802611 54.602524352226141 0.62932039886446345 0 0.77714595512881146 0.77714595512881146 0 -0.62932039886446345 forward_v I I I I #
loop $-1 $-1 $218 $149 #
plane-surface $-1 -22.962676188241453 3.5756902815802611 54.602524352226141 0.62932039886446345 0 0.77714595512881146 0.77714595512881146 0 -0.62932039886446345 forward_v I I I I #
loop $-1 $-1 $219 $150 #
plane-surface $-1 -41.427045503097638 3.5756902815802611 2.4607547526547791 -0.62932039886446345 0 0.77714595512881146 0.77714595512881146 0 0.62932039886446345 forward_v I I I I #
loop $-1 $-1 $220 $151 #
plane-surface $-1 -41.427045503097638 3.5756902815802611 2.4607547526547791 -0.62932039886446345 0 0.77714595512881146 0.77714595512881146 0 0.62932039886446345 forward_v I I I I #
face $-1 $221 $222 $100 $-1 $223 reversed single #
loop $-1 $224 $225 $152 #
cone-surface $-1 -37.013355185873969 5.0498197185768454 3.7067010293266538 0.62932039886446345 0 -0.77714595512881146 0.19428648878220287 0 0.15733009971611586 1 I I -0.70710678118654746 0.70710678118654746 forward I I I I #
loop $-1 $-1 $226 $140 #
coedge $-1 $187 $187 $227 $228 reversed $153 $-1 #
coedge $-1 $229 $230 $-1 $231 forward $155 $-1 #
face $-1 $232 $233 $104 $-1 $234 reversed single #
loop $-1 $-1 $235 $157 #
plane-surface $-1 -22.962676188241453 3.5756902815802611 54.602524352226141 0.62932039886446345 0 0.77714595512881146 0.77714595512881146 0 -0.62932039886446345 forward_v I I I I #
coedge $-1 $236 $237 $238 $239 reversed $158 $-1 #
face $-1 $-1 $240 $106 $-1 $241 forward single #
loop $-1 $242 $243 $160 #
cone-surface $-1 37.013355185873962 2.1015608445836804 3.7067010293266467 -0.62932039886446345 0 -0.77714595512881146 0.19428648878220287 0 -0.15733009971611586 1 I I -0.70710678118654746 0.70710678118654746 forward I I I I #
loop $-1 $-1 $244 $143 #
coedge $-1 $197 $197 $245 $246 reversed $161 $-1 #
face $-1 $-1 $247 $108 $-1 $248 forward single #
loop $-1 $249 $250 $163 #
cone-surface $-1 37.013355185873962 5.0498197185768454 3.7067010293266467 -0.62932039886446345 0 -0.77714595512881146 0.19428648878220287 0 -0.15733009971611586 1 I I -0.70710678118654746 0.70710678118654746 forward I I I I #
loop $-1 $-1 $251 $144 #
coedge $-1 $202 $202 $252 $253 reversed $164 $-1 #
face $-1 $254 $255 $110 $-1 $256 reversed single #
loop $-1 $-1 $257 $166 #
plane-surface $-1 -41.427045503097638 3.5756902815802611 2.4607547526547791 -0.62932039886446345 0 0.77714595512881146 0.77714595512881146 0 0.62932039886446345 forward_v I I I I #
coedge $-1 $258 $259 $260 $261 reversed $167 $-1 #
face $-1 $-1 $262 $112 $-1 $263 forward single #
loop $-1 $264 $265 $169 #
cone-surface $-1 -37.013355185873969 2.1015608445836804 3.7067010293266538 0.62932039886446345 0 -0.77714595512881146 0.19428648878220287 0 0.15733009971611586 1 I I -0.70710678118654746 0.70710678118654746 forward I I I I #
loop $-1 $-1 $266 $146 #
coedge $-1 $211 $211 $267 $268 reversed $170 $-1 #
face $-1 $-1 $269 $114 $-1 $270 forward single #
loop $-1 $271 $272 $172 #
cone-surface $-1 -37.013355185873969 5.0498197185768454 3.7067010293266538 0.62932039886446345 0 -0.77714595512881146 0.19428648878220287 0 0.15733009971611586 1 I I -0.70710678118654746 0.70710678118654746 forward I I I I #
loop $-1 $-1 $273 $147 #
coedge $-1 $216 $216 $274 $275 reversed $173 $-1 #
coedge $-1 $217 $217 $-1 $276 forward $175 $-1 #
coedge $-1 $218 $218 $-1 $277 forward $177 $-1 #
coedge $-1 $219 $219 $-1 $278 forward $179 $-1 #
coedge $-1 $220 $220 $-1 $279 forward $181 $-1 #
face $-1 $280 $281 $100 $-1 $282 reversed single #
loop $-1 $283 $284 $183 #
cone-surface $-1 -37.661348540999185 2.1015608445836804 4.5069061645718635 0.62932039886446345 0 -0.77714595512881146 0.38857297756440573 0 0.31466019943223172 1 I I 0 1 forward I I I I #
loop $-1 $-1 $285 $152 #
coedge $-1 $225 $225 $226 $286 forward $184 $-1 #
coedge $-1 $226 $226 $225 $286 reversed $186 $-1 #
coedge $-1 $227 $227 $187 $228 forward $287 $-1 #
edge $-1 $288 $288 $227 $289 forward #
coedge $-1 $290 $188 $-1 $291 reversed $155 $-1 #
coedge $-1 $188 $290 $-1 $292 reversed $155 $-1 #
edge $-1 $293 $294 $188 $295 forward #
face $-1 $296 $297 $104 $-1 $298 forward single #
loop $-1 $-1 $299 $189 #
plane-surface $-1 29.179093411329902 0.13605492858823709 118.99224604356523 0 1 0 0.62932039886446345 0 0.77714595512881146 forward_v I I I I #
coedge $-1 $300 $301 $302 $303 reversed $190 $-1 #
coedge $-1 $237 $192 $304 $305 reversed $158 $-1 #
coedge $-1 $192 $236 $300 $306 reversed $158 $-1 #
coedge $-1 $302 $307 $192 $239 forward $297 $-1 #
edge $-1 $308 $309 $238 $310 forward #
loop $-1 $-1 $245 $193 #
plane-surface $-1 -22.962676188241453 3.5756902815802611 54.602524352226141 0.62932039886446345 0 0.77714595512881146 0.77714595512881146 0 -0.62932039886446345 forward_v I I I I #
loop $-1 $-1 $311 $160 #
coedge $-1 $243 $243 $244 $312 reversed $194 $-1 #
coedge $-1 $244 $244 $243 $312 forward $196 $-1 #
coedge $-1 $245 $245 $197 $246 forward $240 $-1 #
edge $-1 $313 $313 $245 $314 forward #
loop $-1 $-1 $252 $198 #
plane-surface $-1 -22.962676188241453 3.5756902815802611 54.602524352226141 0.62932039886446345 0 0.77714595512881146 0.77714595512881146 0 -0.62932039886446345 forward_v I I I I #
loop $-1 $-1 $315 $163 #
coedge $-1 $250 $250 $251 $316 reversed $199 $-1 #
coedge $-1 $251 $251 $250 $316 forward $201 $-1 #
coedge $-1 $252 $252 $202 $253 forward $247 $-1 #
edge $-1 $317 $317 $252 $318 forward #
face $-1 $319 $320 $110 $-1 $321 reversed single #
loop $-1 $-1 $322 $203 #
plane-surface $-1 -93.568815102668992 7.0153256345722852 66.85047644399387 0 -1 0 0.62932039886446345 0 -0.77714595512881146 forward_v I I I I #
coedge $-1 $323 $324 $325 $326 reversed $204 $-1 #
coedge $-1 $259 $206 $327 $328 reversed $167 $-1 #
coedge $-1 $206 $258 $323 $329 reversed $167 $-1 #
coedge $-1 $325 $330 $206 $261 forward $331 $-1 #
edge $-1 $332 $333 $260 $334 forward #
loop $-1 $-1 $267 $207 #
plane-surface $-1 -41.427045503097638 3.5756902815802611 2.4607547526547791 -0.62932039886446345 0 0.77714595512881146 0.77714595512881146 0 0.62932039886446345 forward_v I I I I #
loop $-1 $-1 $335 $169 #
coedge $-1 $265 $265 $266 $336 reversed $208 $-1 #
coedge $-1 $266 $266 $265 $336 forward $210 $-1 #
coedge $-1 $267 $267 $211 $268 forward $262 $-1 #
edge $-1 $337 $337 $267 $338 forward #
loop $-1 $-1 $274 $212 #
plane-surface $-1 -41.427045503097638 3.5756902815802611 2.4607547526547791 -0.62932039886446345 0 0.77714595512881146 0.77714595512881146 0 0.62932039886446345 forward_v I I I I #
loop $-1 $-1 $339 $172 #
coedge $-1 $272 $272 $273 $340 reversed $213 $-1 #
coedge $-1 $273 $273 $272 $340 forward $215 $-1 #
coedge $-1 $274 $274 $216 $275 forward $269 $-1 #
edge $-1 $341 $341 $274 $342 forward #
edge $-1 $343 $343 $217 $344 forward #
edge $-1 $345 $345 $218 $346 forward #
edge $-1 $347 $347 $219 $348 forward #
edge $-1 $349 $349 $220 $350 forward #
face $-1 $351 $352 $100 $-1 $353 forward single #
loop $-1 $354 $355 $221 #
cone-surface $-1 -37.013355185873969 2.1015608445836804 3.7067010293266538 0.62932039886446345 0 -0.77714595512881146 0.19428648878220287 0 0.15733009971611586 1 I I -0.70710678118654746 0.70710678118654746 forward I I I I #
loop $-1 $-1 $356 $183 #
coedge $-1 $284 $284 $357 $358 reversed $222 $-1 #
coedge $-1 $285 $285 $-1 $359 forward $224 $-1 #
edge $-1 $360 $360 $225 $361 forward #
loop $-1 $362 $227 $351 #
vertex $-1 $228 $363 #
ellipse-curve $-1 -38.152011796408274 5.0498197185768454 5.1128248110348613 0.62932039886446345 0 -0.77714595512881146 0.38857297756440573 0 0.31466019943223172 1 I I #
coedge $-1 $230 $229 $-1 $364 forward $155 $-1 #
edge $-1 $365 $294 $229 $366 forward #
edge $-1 $293 $367 $230 $368 forward #
vertex $-1 $292 $369 #
vertex $-1 $231 $370 #
straight-curve $-1 -40.058087488478932 -17.366563385102381 0 0 0 1 I I #
face $-1 $-1 $371 $104 $-1 $372 reversed single #
loop $-1 $-1 $238 $232 #
plane-surface $-1 0 0 7.7648948694149436 0 0 1 1 0 0 forward_v I I I I #
coedge $-1 $373 $374 $375 $376 reversed $233 $-1 #
coedge $-1 $377 $235 $237 $306 forward $190 $-1 #
coedge $-1 $235 $377 $373 $378 forward $190 $-1 #
coedge $-1 $375 $238 $235 $303 forward $297 $-1 #
edge $-1 $309 $379 $302 $380 forward #
coedge $-1 $381 $382 $236 $305 forward $371 $-1 #
edge $-1 $383 $308 $304 $384 forward #
edge $-1 $309 $383 $237 $385 forward #
coedge $-1 $238 $375 $381 $386 forward $297 $-1 #
vertex $-1 $239 $387 #
vertex $-1 $239 $388 #
straight-curve $-1 14.589546705664951 7.0153256345722852 7.7648948694149453 -1 0 0 I I #
coedge $-1 $311 $311 $-1 $389 reversed $242 $-1 #
edge $-1 $390 $390 $243 $391 forward #
vertex $-1 $246 $392 #
ellipse-curve $-1 38.152011796408274 2.1015608445836804 5.1128248110348613 0.62932039886446345 0 0.77714595512881146 0.38857297756440573 0 -0.31466019943223172 1 I I #
coedge $-1 $315 $315 $-1 $393 reversed $249 $-1 #
edge $-1 $394 $394 $250 $395 forward #
vertex $-1 $253 $396 #
ellipse-curve $-1 38.152011796408274 5.0498197185768454 5.1128248110348613 0.62932039886446345 0 0.77714595512881146 0.38857297756440573 0 -0.31466019943223172 1 I I #
face $-1 $-1 $331 $110 $-1 $397 forward single #
loop $-1 $-1 $398 $254 #
plane-surface $-1 -41.427045503097631 0 0 1 0 0 0 0 -1 forward_v I I I I #
coedge $-1 $399 $400 $401 $402 reversed $255 $-1 #
coedge $-1 $403 $257 $259 $329 forward $204 $-1 #
coedge $-1 $257 $403 $399 $404 forward $204 $-1 #
coedge $-1 $401 $260 $257 $326 forward $331 $-1 #
edge $-1 $333 $405 $325 $406 forward #
coedge $-1 $407 $408 $258 $328 forward $320 $-1 #
edge $-1 $409 $332 $327 $410 forward #
edge $-1 $333 $409 $259 $411 forward #
coedge $-1 $260 $401 $407 $412 forward $331 $-1 #
loop $-1 $-1 $401 $319 #
vertex $-1 $328 $413 #
vertex $-1 $261 $414 #
straight-curve $-1 -46.784407551334496 0.13605492858823709 7.7648948694149453 1 0 0 I I #
coedge $-1 $335 $335 $-1 $415 reversed $264 $-1 #
edge $-1 $416 $416 $265 $417 forward #
vertex $-1 $268 $418 #
ellipse-curve $-1 -38.152011796408274 2.1015608445836804 5.1128248110348613 -0.62932039886446345 0 0.77714595512881146 0.38857297756440573 0 0.31466019943223172 1 I I #
coedge $-1 $339 $339 $-1 $419 reversed $271 $-1 #
edge $-1 $420 $420 $272 $421 forward #
vertex $-1 $275 $422 #
ellipse-curve $-1 -38.152011796408274 5.0498197185768454 5.1128248110348613 -0.62932039886446345 0 0.77714595512881146 0.38857297756440573 0 0.31466019943223172 1 I I #
vertex $-1 $276 $423 #
ellipse-curve $-1 38.152011796408274 2.1015608445836804 5.1128248110348613 0.62932039886446345 0 0.77714595512881146 0.38857297756440573 0 -0.31466019943223172 1 I I #
vertex $-1 $277 $424 #
ellipse-curve $-1 38.152011796408274 5.0498197185768454 5.1128248110348613 0.62932039886446345 0 0.77714595512881146 0.38857297756440573 0 -0.31466019943223172 1 I I #
vertex $-1 $278 $425 #
ellipse-curve $-1 -38.152011796408274 2.1015608445836804 5.1128248110348613 -0.62932039886446345 0 0.77714595512881146 0.38857297756440573 0 0.31466019943223172 1 I I #
vertex $-1 $279 $426 #
ellipse-curve $-1 -38.152011796408274 5.0498197185768454 5.1128248110348613 -0.62932039886446345 0 0.77714595512881146 0.38857297756440573 0 0.31466019943223172 1 I I #
face $-1 $427 $287 $100 $-1 $428 forward single #
loop $-1 $-1 $429 $280 #
plane-surface $-1 -93.568815102668992 0.13605492858823709 66.85047644399387 0 1 0 -0.62932039886446345 0 0.77714595512881146 forward_v I I I I #
loop $-1 $-1 $430 $221 #
coedge $-1 $355 $355 $356 $431 forward $281 $-1 #
coedge $-1 $356 $356 $355 $431 reversed $283 $-1 #
coedge $-1 $357 $357 $284 $358 forward $362 $-1 #
edge $-1 $432 $432 $357 $433 forward #
edge $-1 $434 $434 $285 $-1 forward #
vertex $-1 $286 $435 #
ellipse-curve $-1 -37.170685285590082 5.0498197185768454 3.9009875181088565 -0.62932039886446345 0 0.77714595512881146 0.38857297756440573 0 0.31466019943223172 1 I I #
loop $-1 $436 $357 $351 #
point $-1 -37.763438818843873 5.0498197185768454 5.4274850104671009 #
edge $-1 $365 $367 $290 $437 forward #
vertex $-1 $291 $438 #
straight-curve $-1 0 -17.366563385102381 7.7648948694149436 -1 0 0 I I #
vertex $-1 $292 $439 #
straight-curve $-1 0 -17.366563385102381 -7.7648948694149436 1 0 0 I I #
point $-1 -40.058087488478932 -17.366563385102381 -7.7648948694149436 #
point $-1 -40.058087488478932 -17.366563385102381 7.7648948694149436 #
loop $-1 $-1 $304 $296 #
plane-surface $-1 41.427045503097631 0 0 -1 0 0 0 0 1 forward_v I I I I #
coedge $-1 $374 $299 $301 $378 reversed $233 $-1 #
coedge $-1 $299 $373 $440 $441 reversed $233 $-1 #
coedge $-1 $307 $302 $299 $376 forward $297 $-1 #
edge $-1 $379 $442 $375 $443 forward #
coedge $-1 $301 $300 $382 $444 reversed $190 $-1 #
edge $-1 $445 $379 $373 $446 forward #
vertex $-1 $303 $447 #
straight-curve $-1 34.876978089718918 1.7878451407901306 7.7648948694149453 0 -1 0 I I #
coedge $-1 $440 $304 $307 $386 reversed $371 $-1 #
coedge $-1 $304 $440 $377 $444 forward $371 $-1 #
vertex $-1 $305 $448 #
straight-curve $-1 41.427045503097631 7.0153256345722852 59.496123021782616 0 0 1 I I #
straight-curve $-1 -22.962676188241453 7.0153256345722852 54.602524352226141 0.77714595512881146 0 -0.62932039886446345 I I #
edge $-1 $442 $308 $381 $449 forward #
point $-1 41.427045503097631 7.0153256345722852 7.7648948694149436 #
point $-1 34.876978089718911 7.0153256345722852 7.7648948694149453 #
edge $-1 $450 $450 $311 $-1 forward #
vertex $-1 $312 $451 #
ellipse-curve $-1 37.170685285590075 2.1015608445836804 3.9009875181088494 0.62932039886446345 0 0.77714595512881146 0.38857297756440573 0 -0.31466019943223172 1 I I #
point $-1 38.540584773972675 2.1015608445836804 4.7981646116026297 #
edge $-1 $452 $452 $315 $-1 forward #
vertex $-1 $316 $453 #
ellipse-curve $-1 37.170685285590075 5.0498197185768454 3.9009875181088494 0.62932039886446345 0 0.77714595512881146 0.38857297756440573 0 -0.31466019943223172 1 I I #
point $-1 38.540584773972675 5.0498197185768454 4.7981646116026297 #
plane-surface $-1 0 0 7.7648948694149436 0 0 1 1 0 0 forward_v I I I I #
coedge $-1 $408 $407 $400 $454 forward $320 $-1 #
coedge $-1 $400 $322 $324 $404 reversed $255 $-1 #
coedge $-1 $322 $399 $398 $454 reversed $255 $-1 #
coedge $-1 $330 $325 $322 $402 forward $331 $-1 #
edge $-1 $405 $455 $401 $456 forward #
coedge $-1 $324 $323 $408 $457 reversed $204 $-1 #
edge $-1 $458 $405 $399 $459 forward #
vertex $-1 $326 $460 #
straight-curve $-1 -34.876978089718911 1.7878451407901306 7.7648948694149436 0 1 0 I I #
coedge $-1 $398 $327 $330 $412 reversed $320 $-1 #
coedge $-1 $327 $398 $403 $457 forward $320 $-1 #
vertex $-1 $328 $461 #
straight-curve $-1 -41.427045503097631 0.13605492858823709 33.425238221996935 0 0 1 I I #
straight-curve $-1 -41.427045503097638 0.13605492858823709 2.4607547526547791 -0.77714595512881146 0 -0.62932039886446345 I I #
edge $-1 $455 $332 $407 $462 forward #
point $-1 -41.427045503097631 0.13605492858823709 7.7648948694149436 #
point $-1 -34.876978089718911 0.13605492858823709 7.7648948694149436 #
edge $-1 $463 $463 $335 $-1 forward #
vertex $-1 $336 $464 #
ellipse-curve $-1 -37.170685285590082 2.1015608445836804 3.9009875181088565 -0.62932039886446345 0 0.77714595512881146 0.38857297756440573 0 0.31466019943223172 1 I I #
point $-1 -37.763438818843873 2.1015608445836804 5.4274850104671009 #
edge $-1 $465 $465 $339 $-1 forward #
vertex $-1 $340 $466 #
ellipse-curve $-1 -37.170685285590082 5.0498197185768454 3.9009875181088565 -0.62932039886446345 0 0.77714595512881146 0.38857297756440573 0 0.31466019943223172 1 I I #
point $-1 -37.763438818843873 5.0498197185768454 5.4274850104671009 #
point $-1 38.540584773972675 2.1015608445836804 4.7981646116026297 #
point $-1 38.540584773972675 5.0498197185768454 4.7981646116026297 #
point $-1 -37.763438818843873 2.1015608445836804 5.4274850104671009 #
point $-1 -37.763438818843873 5.0498197185768454 5.4274850104671009 #
face $-1 $467 $468 $100 $-1 $469 forward single #
plane-surface $-1 -41.427045503097638 3.5756902815802611 2.4607547526547791 -0.62932039886446345 0 0.77714595512881146 0.77714595512881146 0 0.62932039886446345 forward_v I I I I #
coedge $-1 $470 $471 $472 $473 reversed $352 $-1 #
coedge $-1 $430 $430 $-1 $474 forward $354 $-1 #
edge $-1 $475 $475 $355 $476 forward #
vertex $-1 $358 $477 #
ellipse-curve $-1 -38.152011796408274 2.1015608445836804 5.1128248110348613 0.62932039886446345 0 -0.77714595512881146 0.38857297756440573 0 0.31466019943223172 1 I I #
vertex $-1 $359 $478 #
point $-1 -36.782112308025681 5.0498197185768454 4.2156477175410885 #
loop $-1 $-1 $479 $351 #
straight-curve $-1 -37.058087488478932 -17.366563385102381 0 0 0 -1 I I #
point $-1 -37.058087488478932 -17.366563385102381 7.7648948694149436 #
point $-1 -37.058087488478932 -17.366563385102381 -7.7648948694149436 #
coedge $-1 $382 $381 $374 $441 forward $371 $-1 #
edge $-1 $442 $445 $440 $480 forward #
vertex $-1 $386 $481 #
straight-curve $-1 14.589546705664951 0.13605492858823709 7.7648948694149453 1 0 0 I I #
edge $-1 $445 $383 $382 $482 forward #
vertex $-1 $444 $483 #
straight-curve $-1 -22.962676188241453 0.13605492858823709 54.602524352226141 -0.77714595512881146 0 0.62932039886446345 I I #
point $-1 34.876978089718911 0.13605492858823709 7.7648948694149453 #
point $-1 41.427045503097624 7.0153256345722852 2.4607547526547933 #
straight-curve $-1 41.427045503097631 0 7.7648948694149436 0 1 0 I I #
vertex $-1 $389 $484 #
point $-1 37.559258263154483 2.1015608445836804 3.5863273186766178 #
vertex $-1 $393 $485 #
point $-1 37.559258263154483 5.0498197185768454 3.5863273186766178 #
edge $-1 $455 $458 $398 $486 forward #
vertex $-1 $412 $487 #
straight-curve $-1 -46.784407551334496 7.0153256345722852 7.7648948694149453 -1 0 0 I I #
edge $-1 $458 $409 $408 $488 forward #
vertex $-1 $457 $489 #
straight-curve $-1 -41.427045503097638 7.0153256345722852 2.4607547526547791 0.77714595512881146 0 0.62932039886446345 I I #
point $-1 -34.876978089718911 7.0153256345722852 7.7648948694149436 #
point $-1 -41.427045503097631 0.13605492858823709 2.4607547526547848 #
straight-curve $-1 -41.427045503097631 0 7.7648948694149436 0 -1 0 I I #
vertex $-1 $415 $490 #
point $-1 -36.782112308025681 2.1015608445836804 4.2156477175410885 #
vertex $-1 $419 $491 #
point $-1 -36.782112308025681 5.0498197185768454 4.2156477175410885 #
face $-1 $492 $493 $100 $-1 $494 forward single #
loop $-1 $-1 $495 $427 #
plane-surface $-1 -93.568815102668992 7.0153256345722852 66.85047644399387 0 -1 0 0.62932039886446345 0 -0.77714595512881146 forward_v I I I I #
coedge $-1 $471 $429 $496 $497 forward $352 $-1 #
coedge $-1 $429 $470 $498 $499 reversed $352 $-1 #
coedge $-1 $500 $501 $429 $473 forward $493 $-1 #
edge $-1 $502 $503 $472 $504 forward #
edge $-1 $505 $505 $430 $-1 forward #
vertex $-1 $431 $506 #
ellipse-curve $-1 -37.170685285590082 2.1015608445836804 3.9009875181088565 -0.62932039886446345 0 0.77714595512881146 0.38857297756440573 0 0.31466019943223172 1 I I #
point $-1 -37.763438818843873 2.1015608445836804 5.4274850104671009 #
point $-1 -36.856025086157857 5.0498197185768454 3.5124145405444511 #
coedge $-1 $507 $496 $501 $508 reversed $436 $-1 #
straight-curve $-1 41.427045503097631 0.13605492858823709 59.496123021782616 0 0 -1 I I #
point $-1 41.427045503097631 0.13605492858823709 7.7648948694149436 #
straight-curve $-1 41.427045503097631 1.7878451407901306 2.4607547526547897 0 1 0 I I #
point $-1 41.427045503097624 0.13605492858823709 2.4607547526547933 #
point $-1 36.85602508615785 2.1015608445836804 3.512414540544444 #
point $-1 36.85602508615785 5.0498197185768454 3.512414540544444 #
straight-curve $-1 -41.427045503097631 7.0153256345722852 33.425238221996935 0 0 -1 I I #
point $-1 -41.427045503097631 7.0153256345722852 7.7648948694149436 #
straight-curve $-1 -41.427045503097631 1.7878451407901306 2.4607547526547799 0 -1 0 I I #
point $-1 -41.427045503097631 7.0153256345722852 2.4607547526547848 #
point $-1 -36.856025086157857 2.1015608445836804 3.5124145405444511 #
point $-1 -36.856025086157857 5.0498197185768454 3.5124145405444511 #
face $-1 $509 $510 $100 $-1 $511 reversed single #
loop $-1 $-1 $512 $467 #
plane-surface $-1 0 0 7.7648948694149436 0 0 1 1 0 0 forward_v I I I I #
coedge $-1 $513 $514 $512 $515 reversed $468 $-1 #
coedge $-1 $479 $516 $470 $497 reversed $436 $-1 #
edge $-1 $502 $517 $470 $518 forward #
coedge $-1 $519 $520 $471 $499 forward $521 $-1 #
edge $-1 $503 $517 $498 $522 forward #
coedge $-1 $523 $472 $520 $524 forward $493 $-1 #
coedge $-1 $472 $512 $479 $508 forward $493 $-1 #
vertex $-1 $508 $525 #
vertex $-1 $524 $526 #
straight-curve $-1 -46.784407551334496 0.13605492858823709 7.7648948694149453 -1 0 0 I I #
vertex $-1 $474 $527 #
point $-1 -36.782112308025681 2.1015608445836804 4.2156477175410885 #
coedge $-1 $516 $479 $514 $528 reversed $436 $-1 #
edge $-1 $529 $502 $501 $530 forward #
face $-1 $531 $532 $100 $-1 $533 reversed single #
loop $-1 $534 $535 $492 #
cone-surface $-1 37.661348540999178 5.0498197185768454 4.5069061645718564 -0.62932039886446345 0 -0.77714595512881146 0.38857297756440573 0 -0.31466019943223172 1 I I 0 1 forward I I I I #
coedge $-1 $501 $536 $495 $515 forward $493 $-1 #
coedge $-1 $514 $495 $537 $538 reversed $468 $-1 #
coedge $-1 $495 $513 $507 $528 forward $468 $-1 #
edge $-1 $539 $529 $512 $540 forward #
coedge $-1 $496 $507 $519 $541 reversed $436 $-1 #
vertex $-1 $541 $542 #
straight-curve $-1 -41.427045503097638 0.13605492858823709 2.4607547526547791 -0.77714595512881146 0 -0.62932039886446345 I I #
coedge $-1 $537 $498 $516 $541 forward $521 $-1 #
coedge $-1 $498 $543 $500 $524 reversed $521 $-1 #
loop $-1 $-1 $537 $544 #
straight-curve $-1 -41.427045503097631 0.13605492858823709 33.425238221996935 0 0 -1 I I #
coedge $-1 $545 $500 $546 $547 forward $493 $-1 #
edge $-1 $503 $548 $520 $549 forward #
point $-1 -34.876978089718911 0.13605492858823709 7.7648948694149436 #
point $-1 -41.427045503097631 0.13605492858823709 7.7648948694149436 #
point $-1 -36.856025086157857 2.1015608445836804 3.5124145405444511 #
edge $-1 $550 $529 $514 $551 forward #
vertex $-1 $508 $552 #
straight-curve $-1 -34.876978089718911 1.7878451407901306 7.7648948694149436 0 -1 0 I I #
face $-1 $553 $554 $100 $-1 $555 reversed single #
loop $-1 $556 $557 $509 #
cone-surface $-1 37.013355185873962 5.0498197185768454 3.7067010293266467 -0.62932039886446345 0 -0.77714595512881146 0.19428648878220287 0 -0.15733009971611586 1 I I -0.70710678118654746 0.70710678118654746 forward I I I I #
loop $-1 $-1 $558 $492 #
coedge $-1 $535 $535 $559 $560 reversed $510 $-1 #
coedge $-1 $512 $561 $562 $563 forward $493 $-1 #
coedge $-1 $562 $519 $513 $538 forward $521 $-1 #
edge $-1 $550 $539 $537 $564 forward #
vertex $-1 $538 $565 #
straight-curve $-1 -46.784407551334496 7.0153256345722852 7.7648948694149453 1 0 0 I I #
edge $-1 $517 $550 $519 $566 forward #
point $-1 -41.427045503097631 0.13605492858823709 2.4607547526547848 #
coedge $-1 $520 $567 $568 $569 reversed $521 $-1 #
face $-1 $570 $521 $100 $-1 $571 reversed single #
coedge $-1 $572 $523 $573 $574 forward $493 $-1 #
coedge $-1 $568 $575 $523 $547 reversed $576 $-1 #
edge $-1 $548 $577 $546 $578 forward #
vertex $-1 $524 $579 #
straight-curve $-1 -41.427045503097631 0 7.7648948694149436 0 -1 0 I I #
vertex $-1 $541 $580 #
straight-curve $-1 -41.427045503097638 7.0153256345722852 2.4607547526547791 0.77714595512881146 0 0.62932039886446345 I I #
point $-1 -34.876978089718911 7.0153256345722852 7.7648948694149436 #
face $-1 $581 $582 $100 $-1 $583 reversed single #
loop $-1 $584 $585 $531 #
cone-surface $-1 37.661348540999178 2.1015608445836804 4.5069061645718564 -0.62932039886446345 0 -0.77714595512881146 0.38857297756440573 0 -0.31466019943223172 1 I I 0 1 forward I I I I #
loop $-1 $-1 $586 $509 #
coedge $-1 $557 $557 $558 $587 forward $532 $-1 #
coedge $-1 $558 $558 $557 $587 reversed $534 $-1 #
coedge $-1 $559 $559 $535 $560 forward $588 $-1 #
edge $-1 $589 $589 $559 $590 forward #
coedge $-1 $536 $591 $592 $593 forward $493 $-1 #
coedge $-1 $594 $537 $536 $563 reversed $521 $-1 #
edge $-1 $595 $539 $562 $549 forward #
straight-curve $-1 -41.427045503097631 7.0153256345722852 33.425238221996935 0 0 1 I I #
point $-1 -41.427045503097631 7.0153256345722852 7.7648948694149436 #
straight-curve $-1 -41.427045503097631 1.7878451407901306 2.4607547526547799 0 1 0 I I #
coedge $-1 $543 $594 $596 $597 reversed $521 $-1 #
coedge $-1 $598 $546 $543 $569 forward $576 $-1 #
edge $-1 $548 $599 $543 $600 forward #
face $-1 $601 $602 $100 $-1 $603 reversed single #
plane-surface $-1 -41.427045503097631 0 0 1 0 0 0 0 -1 forward_v I I I I #
coedge $-1 $604 $545 $605 $606 forward $493 $-1 #
coedge $-1 $607 $608 $545 $574 reversed $609 $-1 #
edge $-1 $577 $610 $573 $611 forward #
coedge $-1 $546 $598 $607 $612 forward $576 $-1 #
loop $-1 $-1 $575 $613 #
vertex $-1 $574 $614 #
straight-curve $-1 0 -17.366563385102381 7.7648948694149436 1 0 0 I I #
point $-1 -41.427045503097631 -17.366563385102381 7.7648948694149436 #
point $-1 -41.427045503097631 7.0153256345722852 2.4607547526547848 #
face $-1 $615 $616 $100 $-1 $617 forward single #
loop $-1 $618 $619 $553 #
cone-surface $-1 37.013355185873962 2.1015608445836804 3.7067010293266467 -0.62932039886446345 0 -0.77714595512881146 0.19428648878220287 0 -0.15733009971611586 1 I I -0.70710678118654746 0.70710678118654746 forward I I I I #
loop $-1 $-1 $620 $531 #
coedge $-1 $585 $585 $621 $622 reversed $554 $-1 #
coedge $-1 $586 $586 $-1 $623 forward $556 $-1 #
edge $-1 $624 $624 $557 $625 forward #
loop $-1 $626 $559 $615 #
vertex $-1 $560 $627 #
ellipse-curve $-1 38.152011796408274 5.0498197185768454 5.1128248110348613 -0.62932039886446345 0 -0.77714595512881146 0.38857297756440573 0 -0.31466019943223172 1 I I #
coedge $-1 $561 $628 $629 $630 forward $493 $-1 #
coedge $-1 $631 $632 $561 $593 reversed $602 $-1 #
edge $-1 $633 $595 $592 $634 forward #
coedge $-1 $567 $562 $632 $635 forward $521 $-1 #
vertex $-1 $593 $636 #
coedge $-1 $637 $638 $567 $597 forward $639 $-1 #
edge $-1 $599 $640 $567 $641 forward #
coedge $-1 $575 $568 $638 $642 reversed $576 $-1 #
vertex $-1 $597 $643 #
straight-curve $-1 -41.427045503097631 -17.366563385102381 0 0 0 -1 I I #
face $-1 $-1 $644 $100 $-1 $645 reversed single #
loop $-1 $-1 $631 $570 #
plane-surface $-1 0 17.366563385102381 0 0 -1 0 0 0 -1 forward_v I I I I #
coedge $-1 $646 $572 $647 $648 forward $493 $-1 #
coedge $-1 $649 $650 $572 $606 reversed $651 $-1 #
edge $-1 $610 $652 $605 $653 forward #
coedge $-1 $654 $573 $575 $612 reversed $609 $-1 #
coedge $-1 $573 $654 $649 $655 reversed $609 $-1 #
loop $-1 $-1 $607 $656 #
vertex $-1 $574 $657 #
straight-curve $-1 -40.058087488478932 -20.920021179403079 7.7648948694149436 0 -1 0 I I #
edge $-1 $658 $577 $575 $659 forward #
face $-1 $660 $576 $100 $-1 $661 reversed single #
point $-1 -40.058087488478932 -17.366563385102381 7.7648948694149436 #
face $-1 $662 $588 $100 $-1 $663 forward single #
loop $-1 $-1 $664 $581 #
plane-surface $-1 29.179093411329902 7.0153256345722852 118.99224604356523 0 -1 0 -0.62932039886446345 0 -0.77714595512881146 forward_v I I I I #
loop $-1 $-1 $665 $553 #
coedge $-1 $619 $619 $620 $666 forward $582 $-1 #
coedge $-1 $620 $620 $619 $666 reversed $584 $-1 #
coedge $-1 $621 $621 $585 $622 forward $626 $-1 #
edge $-1 $667 $667 $621 $668 forward #
edge $-1 $669 $669 $586 $-1 forward #
vertex $-1 $587 $670 #
ellipse-curve $-1 37.170685285590075 5.0498197185768454 3.9009875181088494 0.62932039886446345 0 0.77714595512881146 0.38857297756440573 0 -0.31466019943223172 1 I I #
loop $-1 $671 $621 $615 #
point $-1 38.540584773972675 5.0498197185768454 4.7981646116026297 #
coedge $-1 $591 $672 $664 $673 forward $493 $-1 #
coedge $-1 $674 $675 $591 $630 reversed $644 $-1 #
edge $-1 $676 $633 $629 $677 forward #
coedge $-1 $678 $592 $675 $679 forward $602 $-1 #
coedge $-1 $592 $678 $594 $635 reversed $602 $-1 #
vertex $-1 $630 $680 #
straight-curve $-1 0 17.366563385102381 7.7648948694149436 -1 0 0 I I #
edge $-1 $595 $640 $632 $681 forward #
point $-1 -41.427045503097631 17.366563385102381 7.7648948694149436 #
coedge $-1 $682 $596 $678 $683 forward $639 $-1 #
coedge $-1 $596 $684 $598 $642 forward $639 $-1 #
loop $-1 $-1 $682 $685 #
vertex $-1 $683 $686 #
straight-curve $-1 -41.427045503097631 0 -7.7648948694149436 0 1 0 I I #
edge $-1 $658 $599 $598 $687 forward #
point $-1 -41.427045503097631 -17.366563385102381 -7.7648948694149436 #
loop $-1 $-1 $688 $601 #
plane-surface $-1 41.427045503097631 0 0 -1 0 0 0 0 1 forward_v I I I I #
coedge $-1 $689 $604 $690 $691 forward $493 $-1 #
coedge $-1 $692 $693 $604 $648 reversed $694 $-1 #
edge $-1 $652 $695 $647 $696 forward #
coedge $-1 $697 $605 $608 $655 forward $651 $-1 #
coedge $-1 $605 $697 $692 $698 reversed $651 $-1 #
loop $-1 $-1 $649 $699 #
vertex $-1 $648 $700 #
straight-curve $-1 -38.558087488478932 -24.473478973703777 7.7648948694149436 1 0 0 I I #
coedge $-1 $608 $607 $684 $701 reversed $609 $-1 #
edge $-1 $610 $702 $608 $703 forward #
face $-1 $704 $609 $100 $-1 $705 reversed single #
point $-1 -40.058087488478932 -24.473478973703777 7.7648948694149436 #
vertex $-1 $642 $706 #
straight-curve $-1 -40.058087488478932 -17.366563385102381 0 0 0 1 I I #
face $-1 $685 $707 $100 $-1 $661 reversed single #
plane-surface $-1 0 -17.366563385102381 0 0 1 0 0 0 1 forward_v I I I I #
face $-1 $699 $708 $100 $-1 $709 forward single #
plane-surface $-1 -22.962676188241453 3.5756902815802611 54.602524352226141 0.62932039886446345 0 0.77714595512881146 0.77714595512881146 0 -0.62932039886446345 forward_v I I I I #
coedge $-1 $710 $711 $628 $673 reversed $616 $-1 #
coedge $-1 $665 $665 $-1 $712 forward $618 $-1 #
edge $-1 $713 $713 $619 $714 forward #
vertex $-1 $622 $715 #
ellipse-curve $-1 38.152011796408274 2.1015608445836804 5.1128248110348613 -0.62932039886446345 0 -0.77714595512881146 0.38857297756440573 0 -0.31466019943223172 1 I I #
vertex $-1 $623 $716 #
point $-1 37.559258263154483 5.0498197185768454 3.5863273186766178 #
loop $-1 $-1 $717 $615 #
coedge $-1 $628 $718 $717 $719 forward $493 $-1 #
edge $-1 $720 $676 $628 $721 forward #
coedge $-1 $722 $629 $711 $723 forward $644 $-1 #
coedge $-1 $629 $724 $631 $679 reversed $644 $-1 #
vertex $-1 $630 $725 #
straight-curve $-1 41.427045503097631 0 7.7648948694149436 0 1 0 I I #
coedge $-1 $632 $631 $637 $683 reversed $602 $-1 #
edge $-1 $633 $726 $675 $727 forward #
point $-1 41.427045503097631 17.366563385102381 7.7648948694149436 #
straight-curve $-1 -41.427045503097631 17.366563385102381 0 0 0 -1 I I #
coedge $-1 $728 $637 $724 $729 forward $639 $-1 #
edge $-1 $640 $726 $678 $730 forward #
coedge $-1 $638 $731 $654 $701 forward $639 $-1 #
face $-1 $544 $639 $100 $-1 $732 reversed single #
point $-1 -41.427045503097631 17.366563385102381 -7.7648948694149436 #
straight-curve $-1 0 -17.366563385102381 -7.7648948694149436 -1 0 0 I I #
coedge $-1 $733 $722 $734 $735 forward $644 $-1 #
coedge $-1 $718 $646 $733 $736 forward $493 $-1 #
coedge $-1 $737 $738 $646 $691 reversed $707 $-1 #
edge $-1 $695 $739 $690 $578 forward #
coedge $-1 $740 $647 $650 $698 forward $694 $-1 #
coedge $-1 $647 $740 $737 $741 reversed $694 $-1 #
loop $-1 $-1 $692 $704 #
vertex $-1 $691 $742 #
straight-curve $-1 -37.058087488478932 -20.920021179403079 7.7648948694149436 0 1 0 I I #
coedge $-1 $650 $649 $731 $743 reversed $651 $-1 #
edge $-1 $652 $744 $692 $745 forward #
face $-1 $656 $651 $100 $-1 $746 reversed single #
point $-1 -37.058087488478932 -24.473478973703777 7.7648948694149436 #
edge $-1 $702 $658 $654 $747 forward #
vertex $-1 $701 $748 #
straight-curve $-1 -40.058087488478932 -24.473478973703777 0 0 0 -1 I I #
face $-1 $613 $694 $100 $-1 $749 reversed single #
plane-surface $-1 -40.058087488478932 -20.920021179403079 0 1 0 0 0 0 -1 forward_v I I I I #
point $-1 -40.058087488478932 -17.366563385102381 -7.7648948694149436 #
loop $-1 $-1 $737 $660 #
loop $-1 $-1 $750 $662 #
plane-surface $-1 29.179093411329902 0.13605492858823709 118.99224604356523 0 1 0 0.62932039886446345 0 0.77714595512881146 forward_v I I I I #
coedge $-1 $711 $664 $751 $752 forward $616 $-1 #
coedge $-1 $664 $710 $674 $723 reversed $616 $-1 #
edge $-1 $753 $753 $665 $-1 forward #
vertex $-1 $666 $754 #
ellipse-curve $-1 37.170685285590075 2.1015608445836804 3.9009875181088494 0.62932039886446345 0 0.77714595512881146 0.38857297756440573 0 -0.31466019943223172 1 I I #
point $-1 38.540584773972675 2.1015608445836804 4.7981646116026297 #
point $-1 36.85602508615785 5.0498197185768454 3.512414540544444 #
coedge $-1 $755 $751 $672 $719 reversed $671 $-1 #
coedge $-1 $672 $689 $750 $756 forward $493 $-1 #
edge $-1 $757 $720 $672 $758 forward #
vertex $-1 $719 $759 #
straight-curve $-1 14.589546705664951 7.0153256345722852 7.7648948694149453 1 0 0 I I #
coedge $-1 $688 $674 $760 $761 forward $644 $-1 #
edge $-1 $676 $762 $674 $763 forward #
coedge $-1 $675 $764 $682 $729 reversed $644 $-1 #
point $-1 41.427045503097631 7.0153256345722852 7.7648948694149436 #
vertex $-1 $729 $765 #
straight-curve $-1 41.427045503097631 17.366563385102381 0 0 0 -1 I I #
coedge $-1 $766 $682 $767 $768 forward $639 $-1 #
edge $-1 $726 $769 $724 $770 forward #
straight-curve $-1 0 17.366563385102381 -7.7648948694149436 1 0 0 I I #
coedge $-1 $684 $766 $697 $743 forward $639 $-1 #
plane-surface $-1 0 0 -7.7648948694149436 0 0 1 1 0 0 forward_v I I I I #
coedge $-1 $764 $688 $689 $736 reversed $644 $-1 #
coedge $-1 $771 $750 $688 $735 reversed $708 $-1 #
edge $-1 $772 $773 $688 $774 forward #
edge $-1 $739 $773 $733 $677 forward #
coedge $-1 $767 $690 $693 $741 forward $707 $-1 #
coedge $-1 $690 $767 $764 $775 reversed $707 $-1 #
vertex $-1 $736 $776 #
coedge $-1 $693 $692 $766 $777 reversed $694 $-1 #
edge $-1 $695 $778 $737 $779 forward #
point $-1 -37.058087488478932 -17.366563385102381 7.7648948694149436 #
edge $-1 $744 $702 $697 $780 forward #
vertex $-1 $698 $781 #
straight-curve $-1 -37.058087488478932 -24.473478973703777 0 0 0 -1 I I #
plane-surface $-1 -38.558087488478932 -24.473478973703777 0 0 1 0 0 0 1 forward_v I I I I #
straight-curve $-1 -40.058087488478932 -20.920021179403079 -7.7648948694149436 0 1 0 I I #
point $-1 -40.058087488478932 -24.473478973703777 -7.7648948694149436 #
plane-surface $-1 -37.058087488478932 -20.920021179403079 0 -1 0 0 0 0 1 forward_v I I I I #
coedge $-1 $734 $771 $718 $756 reversed $708 $-1 #
coedge $-1 $717 $760 $710 $752 reversed $671 $-1 #
edge $-1 $720 $762 $710 $782 forward #
vertex $-1 $712 $783 #
point $-1 37.559258263154483 2.1015608445836804 3.5863273186766178 #
coedge $-1 $760 $717 $771 $784 reversed $671 $-1 #
edge $-1 $773 $757 $718 $785 forward #
vertex $-1 $719 $786 #
straight-curve $-1 34.876978089718918 1.7878451407901306 7.7648948694149453 0 1 0 I I #
point $-1 34.876978089718911 7.0153256345722852 7.7648948694149453 #
coedge $-1 $751 $755 $722 $761 reversed $671 $-1 #
edge $-1 $762 $772 $722 $787 forward #
vertex $-1 $761 $788 #
straight-curve $-1 41.427045503097631 7.0153256345722852 59.496123021782616 0 0 -1 I I #
coedge $-1 $724 $733 $738 $775 forward $644 $-1 #
point $-1 41.427045503097631 17.366563385102381 -7.7648948694149436 #
coedge $-1 $731 $728 $740 $777 forward $639 $-1 #
coedge $-1 $738 $737 $728 $768 reversed $707 $-1 #
edge $-1 $769 $778 $767 $687 forward #
vertex $-1 $775 $789 #
straight-curve $-1 41.427045503097631 0 -7.7648948694149436 0 -1 0 I I #
coedge $-1 $750 $734 $755 $784 forward $708 $-1 #
vertex $-1 $761 $790 #
vertex $-1 $735 $791 #
straight-curve $-1 41.427045503097631 0.13605492858823709 59.496123021782616 0 0 1 I I #
edge $-1 $739 $769 $764 $792 forward #
point $-1 41.427045503097631 -17.366563385102381 7.7648948694149436 #
edge $-1 $778 $744 $740 $793 forward #
vertex $-1 $777 $794 #
straight-curve $-1 -37.058087488478932 -17.366563385102381 0 0 0 -1 I I #
straight-curve $-1 -38.558087488478932 -24.473478973703777 -7.7648948694149436 -1 0 0 I I #
point $-1 -37.058087488478932 -24.473478973703777 -7.7648948694149436 #
straight-curve $-1 -22.962676188241453 7.0153256345722852 54.602524352226141 0.77714595512881146 0 -0.62932039886446345 I I #
point $-1 36.85602508615785 2.1015608445836804 3.512414540544444 #
edge $-1 $772 $757 $771 $795 forward #
straight-curve $-1 14.589546705664951 0.13605492858823709 7.7648948694149453 -1 0 0 I I #
point $-1 34.876978089718911 0.13605492858823709 7.7648948694149453 #
straight-curve $-1 41.427045503097631 1.7878451407901306 2.4607547526547897 0 -1 0 I I #
point $-1 41.427045503097624 7.0153256345722852 2.4607547526547933 #
point $-1 41.427045503097631 -17.366563385102381 -7.7648948694149436 #
point $-1 41.427045503097624 0.13605492858823709 2.4607547526547933 #
point $-1 41.427045503097631 0.13605492858823709 7.7648948694149436 #
straight-curve $-1 41.427045503097631 -17.366563385102381 0 0 0 -1 I I #
straight-curve $-1 -37.058087488478932 -20.920021179403079 -7.7648948694149436 0 -1 0 I I #
point $-1 -37.058087488478932 -17.366563385102381 -7.7648948694149436 #
straight-curve $-1 -22.962676188241453 0.13605492858823709 54.602524352226141 -0.77714595512881146 0 0.62932039886446345 I I #
End-of-ACIS-data 