600 0 29 0           
82 GICL ACIS Healer - Source: /gicl/data5/repository/Drexel/SM99-DATA/team1.sat - 6 0 18 ACIS 6.0.3 Solaris 24 Sat Apr 13 20:47:36 2002 
1 9.999999999999999547e-07 1.000000000000000036e-10 
body $-1 $29 $-1 $-1 #
body $-1 $30 $-1 $-1 #
body $-1 $31 $-1 $-1 #
body $-1 $32 $-1 $-1 #
body $-1 $33 $-1 $-1 #
body $-1 $34 $-1 $-1 #
body $-1 $35 $-1 $-1 #
body $-1 $36 $-1 $-1 #
body $-1 $-1 $-1 $-1 #
body $-1 $-1 $-1 $-1 #
body $-1 $-1 $-1 $-1 #
body $-1 $-1 $-1 $-1 #
body $-1 $-1 $-1 $-1 #
body $-1 $-1 $-1 $-1 #
body $-1 $37 $-1 $-1 #
body $-1 $38 $-1 $-1 #
body $-1 $-1 $-1 $-1 #
body $-1 $-1 $-1 $-1 #
body $-1 $-1 $-1 $-1 #
body $-1 $-1 $-1 $-1 #
body $-1 $-1 $-1 $-1 #
body $-1 $-1 $-1 $-1 #
body $-1 $-1 $-1 $-1 #
body $-1 $-1 $-1 $-1 #
body $-1 $-1 $-1 $-1 #
body $-1 $-1 $-1 $-1 #
body $-1 $39 $-1 $-1 #
body $-1 $40 $-1 $-1 #
body $-1 $-1 $-1 $-1 #
lump $-1 $-1 $41 $0 #
lump $-1 $-1 $42 $1 #
lump $-1 $-1 $43 $2 #
lump $-1 $-1 $44 $3 #
lump $-1 $-1 $45 $4 #
lump $-1 $-1 $46 $5 #
lump $-1 $-1 $47 $6 #
lump $-1 $-1 $48 $7 #
lump $-1 $-1 $49 $14 #
lump $-1 $-1 $50 $15 #
lump $-1 $-1 $51 $26 #
lump $-1 $-1 $52 $27 #
shell $-1 $-1 $-1 $53 $-1 $29 #
shell $-1 $-1 $-1 $54 $-1 $30 #
shell $-1 $-1 $-1 $55 $-1 $31 #
shell $-1 $-1 $-1 $56 $-1 $32 #
shell $-1 $-1 $-1 $57 $-1 $33 #
shell $-1 $-1 $-1 $58 $-1 $34 #
shell $-1 $-1 $-1 $59 $-1 $35 #
shell $-1 $-1 $-1 $60 $-1 $36 #
shell $-1 $-1 $-1 $61 $-1 $37 #
shell $-1 $-1 $-1 $62 $-1 $38 #
shell $-1 $-1 $-1 $63 $-1 $39 #
shell $-1 $-1 $-1 $64 $-1 $40 #
face $-1 $65 $66 $41 $-1 $67 reversed single #
face $-1 $-1 $68 $42 $-1 $69 forward double out #
face $-1 $70 $71 $43 $-1 $72 reversed single #
face $-1 $73 $74 $44 $-1 $75 forward single #
face $-1 $76 $77 $45 $-1 $78 forward single #
face $-1 $79 $80 $46 $-1 $81 reversed single #
face $-1 $82 $83 $47 $-1 $84 forward single #
face $-1 $85 $86 $48 $-1 $87 forward single #
face $-1 $-1 $88 $49 $-1 $89 forward double out #
face $-1 $-1 $90 $50 $-1 $91 forward double out #
face $-1 $-1 $92 $51 $-1 $93 forward double out #
face $-1 $-1 $94 $52 $-1 $95 forward double out #
face $-1 $96 $97 $41 $-1 $98 reversed single #
loop $-1 $99 $100 $53 #
cone-surface $-1 3.76569696209844551 22.41638310367922671 12.27180103398680799 0.6293203988644634483 0 -0.7771459551288114609 0.3885729775644057304 0 0.3146601994322317242 1 I I 0 1 0.5 forward I I I I #
loop $-1 $-1 $101 $54 #
plane-surface $-1 41.42704550309763079 0 7.764894869414943557 0 1 0 0 0 1 forward_v I I I I #
face $-1 $102 $103 $43 $-1 $104 reversed single #
loop $-1 $-1 $105 $55 #
plane-surface $-1 70.60613891442753243 24.38188901967466649 126.7571409129801765 0 -1 0 -0.6293203988644634483 0 -0.7771459551288114609 forward_v I I I I #
face $-1 $106 $107 $44 $-1 $108 forward single #
loop $-1 $109 $110 $56 #
cone-surface $-1 79.08839404409681606 19.46812422968606171 12.27180103398680089 -0.6293203988644634483 0 -0.7771459551288114609 0.3885729775644057304 0 -0.3146601994322317242 1 I I 0 1 0.5 forward I I I I #
face $-1 $111 $112 $45 $-1 $113 forward single #
loop $-1 $114 $115 $57 #
cone-surface $-1 79.08839404409681606 22.41638310367922671 12.27180103398680089 -0.6293203988644634483 0 -0.7771459551288114609 0.3885729775644057304 0 -0.3146601994322317242 1 I I 0 1 0.5 forward I I I I #
face $-1 $116 $117 $46 $-1 $118 reversed single #
loop $-1 $-1 $119 $58 #
plane-surface $-1 -52.14176959957136148 17.50261831369061838 74.61537131340881501 0 1 0 -0.6293203988644634483 0 0.7771459551288114609 forward_v I I I I #
face $-1 $120 $121 $47 $-1 $122 forward single #
loop $-1 $123 $124 $59 #
cone-surface $-1 3.76569696209844551 19.46812422968606171 12.27180103398680799 0.6293203988644634483 0 -0.7771459551288114609 0.3885729775644057304 0 0.3146601994322317242 1 I I 0 1 0.5 forward I I I I #
face $-1 $125 $126 $48 $-1 $127 forward single #
loop $-1 $128 $129 $60 #
cone-surface $-1 3.76569696209844551 22.41638310367922671 12.27180103398680799 0.6293203988644634483 0 -0.7771459551288114609 0.3885729775644057304 0 0.3146601994322317242 1 I I 0 1 0.5 forward I I I I #
loop $-1 $-1 $130 $61 #
plane-surface $-1 18.46436931485617805 20.94225366668264243 62.36741922164108587 0.6293203988644634483 0 0.7771459551288114609 0.7771459551288114609 0 -0.6293203988644634483 forward_v I I I I #
loop $-1 $-1 $131 $62 #
plane-surface $-1 18.46436931485617805 20.94225366668264243 62.36741922164108587 0.6293203988644634483 0 0.7771459551288114609 0.7771459551288114609 0 -0.6293203988644634483 forward_v I I I I #
loop $-1 $-1 $132 $63 #
plane-surface $-1 -7.105427357601001859e-15 20.94225366668264243 10.22564962206972261 -0.6293203988644634483 0 0.7771459551288114609 0.7771459551288114609 0 0.6293203988644634483 forward_v I I I I #
loop $-1 $-1 $133 $64 #
plane-surface $-1 -7.105427357601001859e-15 20.94225366668264243 10.22564962206972261 -0.6293203988644634483 0 0.7771459551288114609 0.7771459551288114609 0 0.6293203988644634483 forward_v I I I I #
face $-1 $134 $135 $41 $-1 $136 reversed single #
loop $-1 $137 $138 $65 #
cone-surface $-1 4.413690317223661452 22.41638310367922671 11.47159589874159735 0.6293203988644634483 0 -0.7771459551288114609 0.1942864887822028652 0 0.1573300997161158621 1 I I -0.7071067811865474617 0.7071067811865474617 0.25 forward I I I I #
loop $-1 $-1 $139 $53 #
coedge $-1 $100 $100 $140 $141 reversed $66 $-1 #
coedge $-1 $142 $143 $-1 $144 forward $68 $-1 #
face $-1 $145 $146 $43 $-1 $147 reversed single #
loop $-1 $-1 $148 $70 #
plane-surface $-1 18.46436931485617805 20.94225366668264243 62.36741922164108587 0.6293203988644634483 0 0.7771459551288114609 0.7771459551288114609 0 -0.6293203988644634483 forward_v I I I I #
coedge $-1 $149 $150 $151 $152 reversed $71 $-1 #
face $-1 $-1 $153 $44 $-1 $154 forward single #
loop $-1 $155 $156 $73 #
cone-surface $-1 78.44040068897159301 19.46812422968606171 11.47159589874159025 -0.6293203988644634483 0 -0.7771459551288114609 0.1942864887822028652 0 -0.1573300997161158621 1 I I -0.7071067811865474617 0.7071067811865474617 0.25 forward I I I I #
loop $-1 $-1 $157 $56 #
coedge $-1 $110 $110 $158 $159 reversed $74 $-1 #
face $-1 $-1 $160 $45 $-1 $161 forward single #
loop $-1 $162 $163 $76 #
cone-surface $-1 78.44040068897159301 22.41638310367922671 11.47159589874159025 -0.6293203988644634483 0 -0.7771459551288114609 0.1942864887822028652 0 -0.1573300997161158621 1 I I -0.7071067811865474617 0.7071067811865474617 0.25 forward I I I I #
loop $-1 $-1 $164 $57 #
coedge $-1 $115 $115 $165 $166 reversed $77 $-1 #
face $-1 $167 $168 $46 $-1 $169 reversed single #
loop $-1 $-1 $170 $79 #
plane-surface $-1 -7.105427357601001859e-15 20.94225366668264243 10.22564962206972261 -0.6293203988644634483 0 0.7771459551288114609 0.7771459551288114609 0 0.6293203988644634483 forward_v I I I I #
coedge $-1 $171 $172 $173 $174 reversed $80 $-1 #
face $-1 $-1 $175 $47 $-1 $176 forward single #
loop $-1 $177 $178 $82 #
cone-surface $-1 4.413690317223661452 19.46812422968606171 11.47159589874159735 0.6293203988644634483 0 -0.7771459551288114609 0.1942864887822028652 0 0.1573300997161158621 1 I I -0.7071067811865474617 0.7071067811865474617 0.25 forward I I I I #
loop $-1 $-1 $179 $59 #
coedge $-1 $124 $124 $180 $181 reversed $83 $-1 #
face $-1 $-1 $182 $48 $-1 $183 forward single #
loop $-1 $184 $185 $85 #
cone-surface $-1 4.413690317223661452 22.41638310367922671 11.47159589874159735 0.6293203988644634483 0 -0.7771459551288114609 0.1942864887822028652 0 0.1573300997161158621 1 I I -0.7071067811865474617 0.7071067811865474617 0.25 forward I I I I #
loop $-1 $-1 $186 $60 #
coedge $-1 $129 $129 $187 $188 reversed $86 $-1 #
coedge $-1 $130 $130 $-1 $189 forward $88 $-1 #
coedge $-1 $131 $131 $-1 $190 forward $90 $-1 #
coedge $-1 $132 $132 $-1 $191 forward $92 $-1 #
coedge $-1 $133 $133 $-1 $192 forward $94 $-1 #
face $-1 $193 $194 $41 $-1 $195 reversed single #
loop $-1 $196 $197 $96 #
cone-surface $-1 3.76569696209844551 19.46812422968606171 12.27180103398680799 0.6293203988644634483 0 -0.7771459551288114609 0.3885729775644057304 0 0.3146601994322317242 1 I I 0 1 0.5 forward I I I I #
loop $-1 $-1 $198 $65 #
coedge $-1 $138 $138 $139 $199 forward $97 $-1 #
coedge $-1 $139 $139 $138 $199 reversed $99 $-1 #
coedge $-1 $140 $140 $100 $141 forward $200 $-1 #
edge $-1 $201 0 $201 6.283185307179586232 $140 $202 forward 7 unknown #
coedge $-1 $203 $101 $-1 $204 reversed $68 $-1 #
coedge $-1 $101 $203 $-1 $205 reversed $68 $-1 #
edge $-1 $206 -7.764894869414943557 $207 7.764894869414943557 $101 $208 forward 7 unknown #
face $-1 $209 $210 $43 $-1 $211 forward single #
loop $-1 $-1 $212 $102 #
plane-surface $-1 70.60613891442753243 17.50261831369061838 126.7571409129801765 0 1 0 0.6293203988644634483 0 0.7771459551288114609 forward_v I I I I #
coedge $-1 $213 $214 $215 $216 reversed $103 $-1 #
coedge $-1 $150 $105 $217 $218 reversed $71 $-1 #
coedge $-1 $105 $149 $213 $219 reversed $71 $-1 #
coedge $-1 $215 $220 $105 $152 forward $210 $-1 #
edge $-1 $221 -26.83749879743267996 $222 -20.28743138405396707 $151 $223 forward 7 unknown #
loop $-1 $-1 $158 $106 #
plane-surface $-1 18.46436931485617805 20.94225366668264243 62.36741922164108587 0.6293203988644634483 0 0.7771459551288114609 0.7771459551288114609 0 -0.6293203988644634483 forward_v I I I I #
loop $-1 $-1 $224 $73 #
coedge $-1 $156 $156 $157 $225 reversed $107 $-1 #
coedge $-1 $157 $157 $156 $225 forward $109 $-1 #
coedge $-1 $158 $158 $110 $159 forward $153 $-1 #
edge $-1 $226 0 $226 6.283185307179586232 $158 $227 forward 7 unknown #
loop $-1 $-1 $165 $111 #
plane-surface $-1 18.46436931485617805 20.94225366668264243 62.36741922164108587 0.6293203988644634483 0 0.7771459551288114609 0.7771459551288114609 0 -0.6293203988644634483 forward_v I I I I #
loop $-1 $-1 $228 $76 #
coedge $-1 $163 $163 $164 $229 reversed $112 $-1 #
coedge $-1 $164 $164 $163 $229 forward $114 $-1 #
coedge $-1 $165 $165 $115 $166 forward $160 $-1 #
edge $-1 $230 0 $230 6.283185307179586232 $165 $231 forward 7 unknown #
face $-1 $232 $233 $46 $-1 $234 reversed single #
loop $-1 $-1 $235 $116 #
plane-surface $-1 -52.14176959957136148 24.38188901967466649 74.61537131340881501 0 -1 0 0.6293203988644634483 0 -0.7771459551288114609 forward_v I I I I #
coedge $-1 $236 $237 $238 $239 reversed $117 $-1 #
coedge $-1 $172 $119 $240 $241 reversed $80 $-1 #
coedge $-1 $119 $171 $236 $242 reversed $80 $-1 #
coedge $-1 $238 $243 $119 $174 forward $244 $-1 #
edge $-1 $245 5.357362048236865348 $246 11.90742946161558535 $173 $247 forward 7 unknown #
loop $-1 $-1 $180 $120 #
plane-surface $-1 -7.105427357601001859e-15 20.94225366668264243 10.22564962206972261 -0.6293203988644634483 0 0.7771459551288114609 0.7771459551288114609 0 0.6293203988644634483 forward_v I I I I #
loop $-1 $-1 $248 $82 #
coedge $-1 $178 $178 $179 $249 reversed $121 $-1 #
coedge $-1 $179 $179 $178 $249 forward $123 $-1 #
coedge $-1 $180 $180 $124 $181 forward $175 $-1 #
edge $-1 $250 0 $250 6.283185307179586232 $180 $251 forward 7 unknown #
loop $-1 $-1 $187 $125 #
plane-surface $-1 -7.105427357601001859e-15 20.94225366668264243 10.22564962206972261 -0.6293203988644634483 0 0.7771459551288114609 0.7771459551288114609 0 0.6293203988644634483 forward_v I I I I #
loop $-1 $-1 $252 $85 #
coedge $-1 $185 $185 $186 $253 reversed $126 $-1 #
coedge $-1 $186 $186 $185 $253 forward $128 $-1 #
coedge $-1 $187 $187 $129 $188 forward $182 $-1 #
edge $-1 $254 0 $254 6.283185307179586232 $187 $255 forward 7 unknown #
edge $-1 $256 0 $256 6.283185307179586232 $130 $257 forward 7 unknown #
edge $-1 $258 0 $258 6.283185307179586232 $131 $259 forward 7 unknown #
edge $-1 $260 0 $260 6.283185307179586232 $132 $261 forward 7 unknown #
edge $-1 $262 0 $262 6.283185307179586232 $133 $263 forward 7 unknown #
face $-1 $264 $265 $41 $-1 $266 forward single #
loop $-1 $267 $268 $134 #
cone-surface $-1 4.413690317223661452 19.46812422968606171 11.47159589874159735 0.6293203988644634483 0 -0.7771459551288114609 0.1942864887822028652 0 0.1573300997161158621 1 I I -0.7071067811865474617 0.7071067811865474617 0.25 forward I I I I #
loop $-1 $-1 $269 $96 #
coedge $-1 $197 $197 $270 $271 reversed $135 $-1 #
coedge $-1 $198 $198 $-1 $272 forward $137 $-1 #
edge $-1 $273 0 $273 6.283185307179586232 $138 $274 forward 7 unknown #
loop $-1 $275 $140 $264 #
vertex $-1 $141 $276 #
ellipse-curve $-1 3.27503370668935645 22.41638310367922671 12.87771968044980397 0.6293203988644634483 0 -0.7771459551288114609 0.3885729775644057304 0 0.3146601994322317242 1 I I #
coedge $-1 $143 $142 $-1 $277 forward $68 $-1 #
edge $-1 $278 37.05808748847893241 $207 40.05808748847893241 $142 $279 forward 7 unknown #
edge $-1 $206 -40.05808748847893241 $280 -37.05808748847893241 $143 $281 forward 7 unknown #
vertex $-1 $205 $282 #
vertex $-1 $144 $283 #
straight-curve $-1 1.368958014618698371 0 7.764894869414943557 0 0 1 I I #
face $-1 $-1 $284 $43 $-1 $285 reversed single #
loop $-1 $-1 $151 $145 #
plane-surface $-1 41.42704550309763079 17.36656338510238129 15.52978973882988711 0 0 1 1 0 0 forward_v I I I I #
coedge $-1 $286 $287 $288 $289 reversed $146 $-1 #
coedge $-1 $290 $148 $150 $219 forward $103 $-1 #
coedge $-1 $148 $290 $286 $291 forward $103 $-1 #
coedge $-1 $288 $151 $148 $216 forward $210 $-1 #
edge $-1 $222 -5.227480493782152848 $292 1.651790212201895258 $215 $293 forward 7 unknown #
coedge $-1 $294 $295 $149 $218 forward $284 $-1 #
edge $-1 $296 -57.03536826912781521 $221 -51.73122815236766314 $217 $297 forward 7 unknown #
edge $-1 $222 74.42572903615445057 $296 82.85409100619526157 $150 $298 forward 7 unknown #
coedge $-1 $151 $288 $294 $299 forward $210 $-1 #
vertex $-1 $152 $300 #
vertex $-1 $152 $301 #
straight-curve $-1 56.01659220876258161 24.38188901967466649 15.52978973882988889 -1 0 0 I I #
coedge $-1 $224 $224 $-1 $302 reversed $155 $-1 #
edge $-1 $303 0 $303 6.283185307179586232 $156 $304 forward 7 unknown #
vertex $-1 $159 $305 #
ellipse-curve $-1 79.57905729950590512 19.46812422968606171 12.87771968044980397 0.6293203988644634483 0 0.7771459551288114609 0.3885729775644057304 0 -0.3146601994322317242 1 I I #
coedge $-1 $228 $228 $-1 $306 reversed $162 $-1 #
edge $-1 $307 0 $307 6.283185307179586232 $163 $308 forward 7 unknown #
vertex $-1 $166 $309 #
ellipse-curve $-1 79.57905729950590512 22.41638310367922671 12.87771968044980397 0.6293203988644634483 0 0.7771459551288114609 0.3885729775644057304 0 -0.3146601994322317242 1 I I #
face $-1 $-1 $244 $46 $-1 $310 forward single #
loop $-1 $-1 $311 $167 #
plane-surface $-1 0 17.36656338510238129 7.764894869414943557 1 0 0 0 0 -1 forward_v I I I I #
coedge $-1 $312 $313 $314 $315 reversed $168 $-1 #
coedge $-1 $316 $170 $172 $242 forward $117 $-1 #
coedge $-1 $170 $316 $312 $317 forward $117 $-1 #
coedge $-1 $314 $173 $170 $239 forward $244 $-1 #
edge $-1 $246 -1.651790212201895258 $318 5.227480493782152848 $238 $319 forward 7 unknown #
coedge $-1 $320 $321 $171 $241 forward $233 $-1 #
edge $-1 $322 -30.96448346934215223 $245 -25.66034335258199306 $240 $323 forward 7 unknown #
edge $-1 $246 -8.42836197004082166 $322 -8.875646914512166378e-15 $172 $324 forward 7 unknown #
coedge $-1 $173 $314 $320 $325 forward $244 $-1 #
loop $-1 $-1 $314 $232 #
vertex $-1 $241 $326 #
vertex $-1 $174 $327 #
straight-curve $-1 -5.357362048236865348 17.50261831369061838 15.52978973882988889 1 0 0 I I #
coedge $-1 $248 $248 $-1 $328 reversed $177 $-1 #
edge $-1 $329 0 $329 6.283185307179586232 $178 $330 forward 7 unknown #
vertex $-1 $181 $331 #
ellipse-curve $-1 3.27503370668935645 19.46812422968606171 12.87771968044980397 -0.6293203988644634483 0 0.7771459551288114609 0.3885729775644057304 0 0.3146601994322317242 1 I I #
coedge $-1 $252 $252 $-1 $332 reversed $184 $-1 #
edge $-1 $333 0 $333 6.283185307179586232 $185 $334 forward 7 unknown #
vertex $-1 $188 $335 #
ellipse-curve $-1 3.27503370668935645 22.41638310367922671 12.87771968044980397 -0.6293203988644634483 0 0.7771459551288114609 0.3885729775644057304 0 0.3146601994322317242 1 I I #
vertex $-1 $189 $336 #
ellipse-curve $-1 79.57905729950590512 19.46812422968606171 12.87771968044980397 0.6293203988644634483 0 0.7771459551288114609 0.3885729775644057304 0 -0.3146601994322317242 1 I I #
vertex $-1 $190 $337 #
ellipse-curve $-1 79.57905729950590512 22.41638310367922671 12.87771968044980397 0.6293203988644634483 0 0.7771459551288114609 0.3885729775644057304 0 -0.3146601994322317242 1 I I #
vertex $-1 $191 $338 #
ellipse-curve $-1 3.27503370668935645 19.46812422968606171 12.87771968044980397 -0.6293203988644634483 0 0.7771459551288114609 0.3885729775644057304 0 0.3146601994322317242 1 I I #
vertex $-1 $192 $339 #
ellipse-curve $-1 3.27503370668935645 22.41638310367922671 12.87771968044980397 -0.6293203988644634483 0 0.7771459551288114609 0.3885729775644057304 0 0.3146601994322317242 1 I I #
face $-1 $340 $200 $41 $-1 $341 forward single #
loop $-1 $-1 $342 $193 #
plane-surface $-1 -52.14176959957136148 17.50261831369061838 74.61537131340881501 0 1 0 -0.6293203988644634483 0 0.7771459551288114609 forward_v I I I I #
loop $-1 $-1 $343 $134 #
coedge $-1 $268 $268 $269 $344 forward $194 $-1 #
coedge $-1 $269 $269 $268 $344 reversed $196 $-1 #
coedge $-1 $270 $270 $197 $271 forward $275 $-1 #
edge $-1 $345 0 $345 6.283185307179586232 $270 $346 forward 7 unknown #
edge $-1 $347 1 $347 0 $198 $-1 forward 7 unknown #
vertex $-1 $199 $348 #
ellipse-curve $-1 4.256360217507548782 22.41638310367922671 11.66588238752379958 -0.6293203988644634483 0 0.7771459551288114609 0.3885729775644057304 0 0.3146601994322317242 1 I I #
loop $-1 $349 $270 $264 #
point $-1 3.663606684253757351 22.41638310367922671 13.19237987988204353 #
edge $-1 $278 -7.764894869414943557 $280 7.764894869414943557 $203 $350 forward 7 unknown #
vertex $-1 $204 $351 #
straight-curve $-1 41.42704550309763079 0 15.52978973882988711 -1 0 0 I I #
vertex $-1 $205 $352 #
straight-curve $-1 41.42704550309763079 0 0 1 0 0 I I #
point $-1 1.368958014618698371 0 0 #
point $-1 1.368958014618698371 0 15.52978973882988711 #
loop $-1 $-1 $217 $209 #
plane-surface $-1 82.85409100619526157 17.36656338510238129 7.764894869414943557 -1 0 0 0 0 1 forward_v I I I I #
coedge $-1 $287 $212 $214 $291 reversed $146 $-1 #
coedge $-1 $212 $286 $353 $354 reversed $146 $-1 #
coedge $-1 $220 $215 $212 $289 forward $210 $-1 #
edge $-1 $292 20.28743138405396707 $355 26.83749879743267996 $288 $356 forward 7 unknown #
coedge $-1 $214 $213 $295 $357 reversed $103 $-1 #
edge $-1 $358 -82.85409100619526157 $292 -74.42572903615445057 $286 $359 forward 7 unknown #
vertex $-1 $216 $360 #
straight-curve $-1 76.30402359281654867 19.15440852589251364 15.52978973882988889 0 -1 0 I I #
coedge $-1 $353 $217 $220 $299 reversed $284 $-1 #
coedge $-1 $217 $353 $290 $357 forward $284 $-1 #
vertex $-1 $218 $361 #
straight-curve $-1 82.85409100619526157 24.38188901967466649 67.26101789119755381 0 0 1 I I #
straight-curve $-1 18.46436931485617805 24.38188901967466649 62.36741922164108587 0.7771459551288114609 0 -0.6293203988644634483 I I #
edge $-1 $355 0.1360549285882370896 $221 7.015325634572285196 $294 $362 forward 7 unknown #
point $-1 82.85409100619526157 24.38188901967466649 15.52978973882988711 #
point $-1 76.30402359281654867 24.38188901967466649 15.52978973882988889 #
edge $-1 $363 1 $363 0 $224 $-1 forward 7 unknown #
vertex $-1 $225 $364 #
ellipse-curve $-1 78.59773078868769858 19.46812422968606171 11.66588238752379247 0.6293203988644634483 0 0.7771459551288114609 0.3885729775644057304 0 -0.3146601994322317242 1 I I #
point $-1 79.96763027707029892 19.46812422968606171 12.5630594810175733 #
edge $-1 $365 1 $365 0 $228 $-1 forward 7 unknown #
vertex $-1 $229 $366 #
ellipse-curve $-1 78.59773078868769858 22.41638310367922671 11.66588238752379247 0.6293203988644634483 0 0.7771459551288114609 0.3885729775644057304 0 -0.3146601994322317242 1 I I #
point $-1 79.96763027707029892 22.41638310367922671 12.5630594810175733 #
plane-surface $-1 41.42704550309763079 17.36656338510238129 15.52978973882988711 0 0 1 1 0 0 forward_v I I I I #
coedge $-1 $321 $320 $313 $367 forward $233 $-1 #
coedge $-1 $313 $235 $237 $317 reversed $168 $-1 #
coedge $-1 $235 $312 $311 $367 reversed $168 $-1 #
coedge $-1 $243 $238 $235 $315 forward $244 $-1 #
edge $-1 $318 -11.90742946161558535 $368 -5.357362048236865348 $314 $369 forward 7 unknown #
coedge $-1 $237 $236 $321 $370 reversed $117 $-1 #
edge $-1 $371 8.875646914512166378e-15 $318 8.42836197004082166 $312 $372 forward 7 unknown #
vertex $-1 $239 $373 #
straight-curve $-1 6.550067413378720005 19.15440852589251364 15.52978973882988711 0 1 0 I I #
coedge $-1 $311 $240 $243 $325 reversed $233 $-1 #
coedge $-1 $240 $311 $316 $370 forward $233 $-1 #
vertex $-1 $241 $374 #
straight-curve $-1 0 17.50261831369061838 41.19013309141188017 0 0 1 I I #
straight-curve $-1 -7.105427357601001859e-15 17.50261831369061838 10.22564962206972261 -0.7771459551288114609 0 -0.6293203988644634483 I I #
edge $-1 $368 -7.015325634572285196 $245 -0.1360549285882370896 $320 $375 forward 7 unknown #
point $-1 0 17.50261831369061838 15.52978973882988711 #
point $-1 6.550067413378720005 17.50261831369061838 15.52978973882988711 #
edge $-1 $376 1 $376 0 $248 $-1 forward 7 unknown #
vertex $-1 $249 $377 #
ellipse-curve $-1 4.256360217507548782 19.46812422968606171 11.66588238752379958 -0.6293203988644634483 0 0.7771459551288114609 0.3885729775644057304 0 0.3146601994322317242 1 I I #
point $-1 3.663606684253757351 19.46812422968606171 13.19237987988204353 #
edge $-1 $378 1 $378 0 $252 $-1 forward 7 unknown #
vertex $-1 $253 $379 #
ellipse-curve $-1 4.256360217507548782 22.41638310367922671 11.66588238752379958 -0.6293203988644634483 0 0.7771459551288114609 0.3885729775644057304 0 0.3146601994322317242 1 I I #
point $-1 3.663606684253757351 22.41638310367922671 13.19237987988204353 #
point $-1 79.96763027707029892 19.46812422968606171 12.5630594810175733 #
point $-1 79.96763027707029892 22.41638310367922671 12.5630594810175733 #
point $-1 3.663606684253757351 19.46812422968606171 13.19237987988204353 #
point $-1 3.663606684253757351 22.41638310367922671 13.19237987988204353 #
face $-1 $380 $381 $41 $-1 $382 forward single #
plane-surface $-1 -7.105427357601001859e-15 20.94225366668264243 10.22564962206972261 -0.6293203988644634483 0 0.7771459551288114609 0.7771459551288114609 0 0.6293203988644634483 forward_v I I I I #
coedge $-1 $383 $384 $385 $386 reversed $265 $-1 #
coedge $-1 $343 $343 $-1 $387 forward $267 $-1 #
edge $-1 $388 0 $388 6.283185307179586232 $268 $389 forward 7 unknown #
vertex $-1 $271 $390 #
ellipse-curve $-1 3.27503370668935645 19.46812422968606171 12.87771968044980397 0.6293203988644634483 0 -0.7771459551288114609 0.3885729775644057304 0 0.3146601994322317242 1 I I #
vertex $-1 $272 $391 #
point $-1 4.644933195071949683 22.41638310367922671 11.98054258695603203 #
loop $-1 $-1 $392 $264 #
straight-curve $-1 4.368958014618698371 0 7.764894869414943557 0 0 -1 I I #
point $-1 4.368958014618698371 0 15.52978973882988711 #
point $-1 4.368958014618698371 0 0 #
coedge $-1 $295 $294 $287 $354 forward $284 $-1 #
edge $-1 $355 51.73122815236766314 $358 57.03536826912781521 $353 $393 forward 7 unknown #
vertex $-1 $299 $394 #
straight-curve $-1 56.01659220876258161 17.50261831369061838 15.52978973882988889 1 0 0 I I #
edge $-1 $358 -1.651790212201895258 $296 5.227480493782152848 $295 $395 forward 7 unknown #
vertex $-1 $357 $396 #
straight-curve $-1 18.46436931485617805 17.50261831369061838 62.36741922164108587 -0.7771459551288114609 0 0.6293203988644634483 I I #
point $-1 76.30402359281654867 17.50261831369061838 15.52978973882988889 #
point $-1 82.85409100619526157 24.38188901967466649 10.22564962206973682 #
straight-curve $-1 82.85409100619526157 17.36656338510238129 15.52978973882988711 0 1 0 I I #
vertex $-1 $302 $397 #
point $-1 78.98630376625212079 19.46812422968606171 11.3512221880915618 #
vertex $-1 $306 $398 #
point $-1 78.98630376625212079 22.41638310367922671 11.3512221880915618 #
edge $-1 $368 25.66034335258199306 $371 30.96448346934215223 $311 $399 forward 7 unknown #
vertex $-1 $325 $400 #
straight-curve $-1 -5.357362048236865348 24.38188901967466649 15.52978973882988889 -1 0 0 I I #
edge $-1 $371 -5.227480493782152848 $322 1.651790212201895258 $321 $401 forward 7 unknown #
vertex $-1 $370 $402 #
straight-curve $-1 -7.105427357601001859e-15 24.38188901967466649 10.22564962206972261 0.7771459551288114609 0 0.6293203988644634483 I I #
point $-1 6.550067413378720005 24.38188901967466649 15.52978973882988711 #
point $-1 0 17.50261831369061838 10.22564962206972794 #
straight-curve $-1 0 17.36656338510238129 15.52978973882988711 0 -1 0 I I #
vertex $-1 $328 $403 #
point $-1 4.644933195071949683 19.46812422968606171 11.98054258695603203 #
vertex $-1 $332 $404 #
point $-1 4.644933195071949683 22.41638310367922671 11.98054258695603203 #
face $-1 $405 $406 $41 $-1 $407 forward single #
loop $-1 $-1 $408 $340 #
plane-surface $-1 -52.14176959957136148 24.38188901967466649 74.61537131340881501 0 -1 0 0.6293203988644634483 0 -0.7771459551288114609 forward_v I I I I #
coedge $-1 $384 $342 $409 $410 forward $265 $-1 #
coedge $-1 $342 $383 $411 $412 reversed $265 $-1 #
coedge $-1 $413 $414 $342 $386 forward $406 $-1 #
edge $-1 $415 -11.90742946161558535 $416 -5.357362048236865348 $385 $417 forward 7 unknown #
edge $-1 $418 1 $418 0 $343 $-1 forward 7 unknown #
vertex $-1 $344 $419 #
ellipse-curve $-1 4.256360217507548782 19.46812422968606171 11.66588238752379958 -0.6293203988644634483 0 0.7771459551288114609 0.3885729775644057304 0 0.3146601994322317242 1 I I #
point $-1 3.663606684253757351 19.46812422968606171 13.19237987988204353 #
point $-1 4.571020416939774123 22.41638310367922671 11.27730940995939513 #
coedge $-1 $420 $409 $414 $421 reversed $349 $-1 #
straight-curve $-1 82.85409100619526157 17.50261831369061838 67.26101789119755381 0 0 -1 I I #
point $-1 82.85409100619526157 17.50261831369061838 15.52978973882988711 #
straight-curve $-1 82.85409100619526157 19.15440852589251364 10.22564962206973327 0 1 0 I I #
point $-1 82.85409100619526157 17.50261831369061838 10.22564962206973682 #
point $-1 78.28307058925548745 19.46812422968606171 11.27730940995938802 #
point $-1 78.28307058925548745 22.41638310367922671 11.27730940995938802 #
straight-curve $-1 0 24.38188901967466649 41.19013309141188017 0 0 -1 I I #
point $-1 0 24.38188901967466649 15.52978973882988711 #
straight-curve $-1 0 19.15440852589251364 10.22564962206972439 0 -1 0 I I #
point $-1 0 24.38188901967466649 10.22564962206972794 #
point $-1 4.571020416939774123 19.46812422968606171 11.27730940995939513 #
point $-1 4.571020416939774123 22.41638310367922671 11.27730940995939513 #
face $-1 $422 $423 $41 $-1 $424 reversed single #
loop $-1 $-1 $425 $380 #
plane-surface $-1 41.42704550309763079 17.36656338510238129 15.52978973882988711 0 0 1 1 0 0 forward_v I I I I #
coedge $-1 $426 $427 $425 $428 reversed $381 $-1 #
coedge $-1 $392 $429 $383 $410 reversed $349 $-1 #
edge $-1 $415 -8.42836197004082166 $430 -8.875646914512166378e-15 $383 $431 forward 7 unknown #
coedge $-1 $432 $433 $384 $412 forward $434 $-1 #
edge $-1 $416 25.66034335258199306 $430 30.96448346934215223 $411 $435 forward 7 unknown #
coedge $-1 $436 $385 $433 $437 forward $406 $-1 #
coedge $-1 $385 $425 $392 $421 forward $406 $-1 #
vertex $-1 $421 $438 #
vertex $-1 $437 $439 #
straight-curve $-1 -5.357362048236865348 17.50261831369061838 15.52978973882988889 -1 0 0 I I #
vertex $-1 $387 $440 #
point $-1 4.644933195071949683 19.46812422968606171 11.98054258695603203 #
coedge $-1 $429 $392 $427 $441 reversed $349 $-1 #
edge $-1 $442 -5.227480493782152848 $415 1.651790212201895258 $414 $443 forward 7 unknown #
face $-1 $444 $445 $41 $-1 $446 reversed single #
loop $-1 $447 $448 $405 #
cone-surface $-1 79.08839404409681606 22.41638310367922671 12.27180103398680089 -0.6293203988644634483 0 -0.7771459551288114609 0.3885729775644057304 0 -0.3146601994322317242 1 I I 0 1 0.5 forward I I I I #
coedge $-1 $414 $449 $408 $428 forward $406 $-1 #
coedge $-1 $427 $408 $450 $451 reversed $381 $-1 #
coedge $-1 $408 $426 $420 $441 forward $381 $-1 #
edge $-1 $452 5.357362048236865348 $442 11.90742946161558535 $425 $453 forward 7 unknown #
coedge $-1 $409 $420 $432 $454 reversed $349 $-1 #
vertex $-1 $454 $455 #
straight-curve $-1 -7.105427357601001859e-15 17.50261831369061838 10.22564962206972261 -0.7771459551288114609 0 -0.6293203988644634483 I I #
coedge $-1 $450 $411 $429 $454 forward $434 $-1 #
coedge $-1 $411 $456 $413 $437 reversed $434 $-1 #
loop $-1 $-1 $450 $457 #
straight-curve $-1 0 17.50261831369061838 41.19013309141188017 0 0 -1 I I #
coedge $-1 $458 $413 $459 $460 forward $406 $-1 #
edge $-1 $416 -0.1360549285882370896 $461 17.36656338510238129 $433 $462 forward 7 unknown #
point $-1 6.550067413378720005 17.50261831369061838 15.52978973882988711 #
point $-1 0 17.50261831369061838 15.52978973882988711 #
point $-1 4.571020416939774123 19.46812422968606171 11.27730940995939513 #
edge $-1 $463 8.875646914512166378e-15 $442 8.42836197004082166 $427 $464 forward 7 unknown #
vertex $-1 $421 $465 #
straight-curve $-1 6.550067413378720005 19.15440852589251364 15.52978973882988711 0 -1 0 I I #
face $-1 $466 $467 $41 $-1 $468 reversed single #
loop $-1 $469 $470 $422 #
cone-surface $-1 78.44040068897159301 22.41638310367922671 11.47159589874159025 -0.6293203988644634483 0 -0.7771459551288114609 0.1942864887822028652 0 -0.1573300997161158621 1 I I -0.7071067811865474617 0.7071067811865474617 0.25 forward I I I I #
loop $-1 $-1 $471 $405 #
coedge $-1 $448 $448 $472 $473 reversed $423 $-1 #
coedge $-1 $425 $474 $475 $476 forward $406 $-1 #
coedge $-1 $475 $432 $426 $451 forward $434 $-1 #
edge $-1 $463 -30.96448346934215223 $452 -25.66034335258199306 $450 $477 forward 7 unknown #
vertex $-1 $451 $478 #
straight-curve $-1 -5.357362048236865348 24.38188901967466649 15.52978973882988889 1 0 0 I I #
edge $-1 $430 -1.651790212201895258 $463 5.227480493782152848 $432 $479 forward 7 unknown #
point $-1 0 17.50261831369061838 10.22564962206972794 #
coedge $-1 $433 $480 $481 $482 reversed $434 $-1 #
face $-1 $483 $434 $41 $-1 $484 reversed single #
coedge $-1 $485 $436 $486 $487 forward $406 $-1 #
coedge $-1 $481 $488 $436 $460 reversed $489 $-1 #
edge $-1 $461 -41.42704550309763079 $490 -40.05808748847893241 $459 $491 forward 7 unknown #
vertex $-1 $437 $492 #
straight-curve $-1 0 17.36656338510238129 15.52978973882988711 0 -1 0 I I #
vertex $-1 $454 $493 #
straight-curve $-1 -7.105427357601001859e-15 24.38188901967466649 10.22564962206972261 0.7771459551288114609 0 0.6293203988644634483 I I #
point $-1 6.550067413378720005 24.38188901967466649 15.52978973882988711 #
face $-1 $494 $495 $41 $-1 $496 reversed single #
loop $-1 $497 $498 $444 #
cone-surface $-1 79.08839404409681606 19.46812422968606171 12.27180103398680089 -0.6293203988644634483 0 -0.7771459551288114609 0.3885729775644057304 0 -0.3146601994322317242 1 I I 0 1 0.5 forward I I I I #
loop $-1 $-1 $499 $422 #
coedge $-1 $470 $470 $471 $500 forward $445 $-1 #
coedge $-1 $471 $471 $470 $500 reversed $447 $-1 #
coedge $-1 $472 $472 $448 $473 forward $501 $-1 #
edge $-1 $502 0 $502 6.283185307179586232 $472 $503 forward 7 unknown #
coedge $-1 $449 $504 $505 $506 forward $406 $-1 #
coedge $-1 $507 $450 $449 $476 reversed $434 $-1 #
edge $-1 $508 -17.36656338510238129 $452 -7.015325634572285196 $475 $462 forward 7 unknown #
straight-curve $-1 0 24.38188901967466649 41.19013309141188017 0 0 1 I I #
point $-1 0 24.38188901967466649 15.52978973882988711 #
straight-curve $-1 0 19.15440852589251364 10.22564962206972439 0 1 0 I I #
coedge $-1 $456 $507 $509 $510 reversed $434 $-1 #
coedge $-1 $511 $459 $456 $482 forward $489 $-1 #
edge $-1 $461 -7.764894869414943557 $512 7.764894869414943557 $456 $513 forward 7 unknown #
face $-1 $514 $515 $41 $-1 $516 reversed single #
plane-surface $-1 0 17.36656338510238129 7.764894869414943557 1 0 0 0 0 -1 forward_v I I I I #
coedge $-1 $517 $458 $518 $519 forward $406 $-1 #
coedge $-1 $520 $521 $458 $487 reversed $522 $-1 #
edge $-1 $490 -3.553457794300697969 $523 3.553457794300697969 $486 $524 forward 7 unknown #
coedge $-1 $459 $511 $520 $525 forward $489 $-1 #
loop $-1 $-1 $488 $526 #
vertex $-1 $487 $527 #
straight-curve $-1 41.42704550309763079 0 15.52978973882988711 1 0 0 I I #
point $-1 0 0 15.52978973882988711 #
point $-1 0 24.38188901967466649 10.22564962206972794 #
face $-1 $528 $529 $41 $-1 $530 forward single #
loop $-1 $531 $532 $466 #
cone-surface $-1 78.44040068897159301 19.46812422968606171 11.47159589874159025 -0.6293203988644634483 0 -0.7771459551288114609 0.1942864887822028652 0 -0.1573300997161158621 1 I I -0.7071067811865474617 0.7071067811865474617 0.25 forward I I I I #
loop $-1 $-1 $533 $444 #
coedge $-1 $498 $498 $534 $535 reversed $467 $-1 #
coedge $-1 $499 $499 $-1 $536 forward $469 $-1 #
edge $-1 $537 0 $537 6.283185307179586232 $470 $538 forward 7 unknown #
loop $-1 $539 $472 $528 #
vertex $-1 $473 $540 #
ellipse-curve $-1 79.57905729950590512 22.41638310367922671 12.87771968044980397 -0.6293203988644634483 0 -0.7771459551288114609 0.3885729775644057304 0 -0.3146601994322317242 1 I I #
coedge $-1 $474 $541 $542 $543 forward $406 $-1 #
coedge $-1 $544 $545 $474 $506 reversed $515 $-1 #
edge $-1 $546 -41.42704550309763079 $508 41.42704550309763079 $505 $547 forward 7 unknown #
coedge $-1 $480 $475 $545 $548 forward $434 $-1 #
vertex $-1 $506 $549 #
coedge $-1 $550 $551 $480 $510 forward $552 $-1 #
edge $-1 $512 -17.36656338510238129 $553 17.36656338510238129 $480 $554 forward 7 unknown #
coedge $-1 $488 $481 $551 $555 reversed $489 $-1 #
vertex $-1 $510 $556 #
straight-curve $-1 0 0 7.764894869414943557 0 0 -1 I I #
face $-1 $-1 $557 $41 $-1 $558 reversed single #
loop $-1 $-1 $544 $483 #
plane-surface $-1 41.42704550309763079 34.73312677020476258 7.764894869414943557 0 -1 0 0 0 -1 forward_v I I I I #
coedge $-1 $559 $485 $560 $561 forward $406 $-1 #
coedge $-1 $562 $563 $485 $519 reversed $564 $-1 #
edge $-1 $523 -1.5 $565 1.5 $518 $566 forward 7 unknown #
coedge $-1 $567 $486 $488 $525 reversed $522 $-1 #
coedge $-1 $486 $567 $562 $568 reversed $522 $-1 #
loop $-1 $-1 $520 $569 #
vertex $-1 $487 $570 #
straight-curve $-1 1.368958014618698371 -3.553457794300697969 15.52978973882988711 0 -1 0 I I #
edge $-1 $571 -7.764894869414943557 $490 7.764894869414943557 $488 $572 forward 7 unknown #
face $-1 $573 $489 $41 $-1 $574 reversed single #
point $-1 1.368958014618698371 0 15.52978973882988711 #
face $-1 $575 $501 $41 $-1 $576 forward single #
loop $-1 $-1 $577 $494 #
plane-surface $-1 70.60613891442753243 24.38188901967466649 126.7571409129801765 0 -1 0 -0.6293203988644634483 0 -0.7771459551288114609 forward_v I I I I #
loop $-1 $-1 $578 $466 #
coedge $-1 $532 $532 $533 $579 forward $495 $-1 #
coedge $-1 $533 $533 $532 $579 reversed $497 $-1 #
coedge $-1 $534 $534 $498 $535 forward $539 $-1 #
edge $-1 $580 0 $580 6.283185307179586232 $534 $581 forward 7 unknown #
edge $-1 $582 1 $582 0 $499 $-1 forward 7 unknown #
vertex $-1 $500 $583 #
ellipse-curve $-1 78.59773078868769858 22.41638310367922671 11.66588238752379247 0.6293203988644634483 0 0.7771459551288114609 0.3885729775644057304 0 -0.3146601994322317242 1 I I #
loop $-1 $584 $534 $528 #
point $-1 79.96763027707029892 22.41638310367922671 12.5630594810175733 #
coedge $-1 $504 $585 $577 $586 forward $406 $-1 #
coedge $-1 $587 $588 $504 $543 reversed $557 $-1 #
edge $-1 $589 7.015325634572285196 $546 17.36656338510238129 $542 $590 forward 7 unknown #
coedge $-1 $591 $505 $588 $592 forward $515 $-1 #
coedge $-1 $505 $591 $507 $548 reversed $515 $-1 #
vertex $-1 $543 $593 #
straight-curve $-1 41.42704550309763079 34.73312677020476258 15.52978973882988711 -1 0 0 I I #
edge $-1 $508 -7.764894869414943557 $553 7.764894869414943557 $545 $594 forward 7 unknown #
point $-1 0 34.73312677020476258 15.52978973882988711 #
coedge $-1 $595 $509 $591 $596 forward $552 $-1 #
coedge $-1 $509 $597 $511 $555 forward $552 $-1 #
loop $-1 $-1 $595 $598 #
vertex $-1 $596 $599 #
straight-curve $-1 0 17.36656338510238129 0 0 1 0 I I #
edge $-1 $571 40.05808748847893241 $512 41.42704550309763079 $511 $600 forward 7 unknown #
point $-1 0 0 0 #
loop $-1 $-1 $601 $514 #
plane-surface $-1 82.85409100619526157 17.36656338510238129 7.764894869414943557 -1 0 0 0 0 1 forward_v I I I I #
coedge $-1 $602 $517 $603 $604 forward $406 $-1 #
coedge $-1 $605 $606 $517 $561 reversed $607 $-1 #
edge $-1 $565 -3.553457794300697969 $608 3.553457794300697969 $560 $609 forward 7 unknown #
coedge $-1 $610 $518 $521 $568 forward $564 $-1 #
coedge $-1 $518 $610 $605 $611 reversed $564 $-1 #
loop $-1 $-1 $562 $612 #
vertex $-1 $561 $613 #
straight-curve $-1 2.868958014618698371 -7.106915588601395939 15.52978973882988711 1 0 0 I I #
coedge $-1 $521 $520 $597 $614 reversed $522 $-1 #
edge $-1 $523 -7.764894869414943557 $615 7.764894869414943557 $521 $616 forward 7 unknown #
face $-1 $617 $522 $41 $-1 $618 reversed single #
point $-1 1.368958014618698371 -7.106915588601395939 15.52978973882988711 #
vertex $-1 $555 $619 #
straight-curve $-1 1.368958014618698371 0 7.764894869414943557 0 0 1 I I #
face $-1 $598 $620 $41 $-1 $574 reversed single #
plane-surface $-1 41.42704550309763079 0 7.764894869414943557 0 1 0 0 0 1 forward_v I I I I #
face $-1 $612 $621 $41 $-1 $622 forward single #
plane-surface $-1 18.46436931485617805 20.94225366668264243 62.36741922164108587 0.6293203988644634483 0 0.7771459551288114609 0.7771459551288114609 0 -0.6293203988644634483 forward_v I I I I #
coedge $-1 $623 $624 $541 $586 reversed $529 $-1 #
coedge $-1 $578 $578 $-1 $625 forward $531 $-1 #
edge $-1 $626 0 $626 6.283185307179586232 $532 $627 forward 7 unknown #
vertex $-1 $535 $628 #
ellipse-curve $-1 79.57905729950590512 19.46812422968606171 12.87771968044980397 -0.6293203988644634483 0 -0.7771459551288114609 0.3885729775644057304 0 -0.3146601994322317242 1 I I #
vertex $-1 $536 $629 #
point $-1 78.98630376625212079 22.41638310367922671 11.3512221880915618 #
loop $-1 $-1 $630 $528 #
coedge $-1 $541 $631 $630 $632 forward $406 $-1 #
edge $-1 $633 20.28743138405396707 $589 26.83749879743267996 $541 $634 forward 7 unknown #
coedge $-1 $635 $542 $624 $636 forward $557 $-1 #
coedge $-1 $542 $637 $544 $592 reversed $557 $-1 #
vertex $-1 $543 $638 #
straight-curve $-1 82.85409100619526157 17.36656338510238129 15.52978973882988711 0 1 0 I I #
coedge $-1 $545 $544 $550 $596 reversed $515 $-1 #
edge $-1 $546 -7.764894869414943557 $639 7.764894869414943557 $588 $640 forward 7 unknown #
point $-1 82.85409100619526157 34.73312677020476258 15.52978973882988711 #
straight-curve $-1 0 34.73312677020476258 7.764894869414943557 0 0 -1 I I #
coedge $-1 $641 $550 $637 $642 forward $552 $-1 #
edge $-1 $553 -41.42704550309763079 $639 41.42704550309763079 $591 $643 forward 7 unknown #
coedge $-1 $551 $644 $567 $614 forward $552 $-1 #
face $-1 $457 $552 $41 $-1 $645 reversed single #
point $-1 0 34.73312677020476258 0 #
straight-curve $-1 41.42704550309763079 0 0 -1 0 0 I I #
coedge $-1 $646 $635 $647 $648 forward $557 $-1 #
coedge $-1 $631 $559 $646 $649 forward $406 $-1 #
coedge $-1 $650 $651 $559 $604 reversed $620 $-1 #
edge $-1 $608 -37.05808748847893241 $652 41.42704550309763079 $603 $491 forward 7 unknown #
coedge $-1 $653 $560 $563 $611 forward $607 $-1 #
coedge $-1 $560 $653 $650 $654 reversed $607 $-1 #
loop $-1 $-1 $605 $617 #
vertex $-1 $604 $655 #
straight-curve $-1 4.368958014618698371 -3.553457794300697969 15.52978973882988711 0 1 0 I I #
coedge $-1 $563 $562 $644 $656 reversed $564 $-1 #
edge $-1 $565 -7.764894869414943557 $657 7.764894869414943557 $605 $658 forward 7 unknown #
face $-1 $569 $564 $41 $-1 $659 reversed single #
point $-1 4.368958014618698371 -7.106915588601395939 15.52978973882988711 #
edge $-1 $615 -3.553457794300697969 $571 3.553457794300697969 $567 $660 forward 7 unknown #
vertex $-1 $614 $661 #
straight-curve $-1 1.368958014618698371 -7.106915588601395939 7.764894869414943557 0 0 -1 I I #
face $-1 $526 $607 $41 $-1 $662 reversed single #
plane-surface $-1 1.368958014618698371 -3.553457794300697969 7.764894869414943557 1 0 0 0 0 -1 forward_v I I I I #
point $-1 1.368958014618698371 0 0 #
loop $-1 $-1 $650 $573 #
loop $-1 $-1 $663 $575 #
plane-surface $-1 70.60613891442753243 17.50261831369061838 126.7571409129801765 0 1 0 0.6293203988644634483 0 0.7771459551288114609 forward_v I I I I #
coedge $-1 $624 $577 $664 $665 forward $529 $-1 #
coedge $-1 $577 $623 $587 $636 reversed $529 $-1 #
edge $-1 $666 1 $666 0 $578 $-1 forward 7 unknown #
vertex $-1 $579 $667 #
ellipse-curve $-1 78.59773078868769858 19.46812422968606171 11.66588238752379247 0.6293203988644634483 0 0.7771459551288114609 0.3885729775644057304 0 -0.3146601994322317242 1 I I #
point $-1 79.96763027707029892 19.46812422968606171 12.5630594810175733 #
point $-1 78.28307058925548745 22.41638310367922671 11.27730940995938802 #
coedge $-1 $668 $664 $585 $632 reversed $584 $-1 #
coedge $-1 $585 $602 $663 $669 forward $406 $-1 #
edge $-1 $670 -1.651790212201895258 $633 5.227480493782152848 $585 $671 forward 7 unknown #
vertex $-1 $632 $672 #
straight-curve $-1 56.01659220876258161 24.38188901967466649 15.52978973882988889 1 0 0 I I #
coedge $-1 $601 $587 $673 $674 forward $557 $-1 #
edge $-1 $589 51.73122815236766314 $675 57.03536826912781521 $587 $676 forward 7 unknown #
coedge $-1 $588 $677 $595 $642 reversed $557 $-1 #
point $-1 82.85409100619526157 24.38188901967466649 15.52978973882988711 #
vertex $-1 $642 $678 #
straight-curve $-1 82.85409100619526157 34.73312677020476258 7.764894869414943557 0 0 -1 I I #
coedge $-1 $679 $595 $680 $681 forward $552 $-1 #
edge $-1 $639 -17.36656338510238129 $682 17.36656338510238129 $637 $683 forward 7 unknown #
straight-curve $-1 41.42704550309763079 34.73312677020476258 0 1 0 0 I I #
coedge $-1 $597 $679 $610 $656 forward $552 $-1 #
plane-surface $-1 41.42704550309763079 17.36656338510238129 0 0 0 1 1 0 0 forward_v I I I I #
coedge $-1 $677 $601 $602 $649 reversed $557 $-1 #
coedge $-1 $684 $663 $601 $648 reversed $621 $-1 #
edge $-1 $685 -57.03536826912781521 $686 -51.73122815236766314 $601 $687 forward 7 unknown #
edge $-1 $652 -17.36656338510238129 $686 0.1360549285882370896 $646 $590 forward 7 unknown #
coedge $-1 $680 $603 $606 $654 forward $620 $-1 #
coedge $-1 $603 $680 $677 $688 reversed $620 $-1 #
vertex $-1 $649 $689 #
coedge $-1 $606 $605 $679 $690 reversed $607 $-1 #
edge $-1 $608 -7.764894869414943557 $691 7.764894869414943557 $650 $692 forward 7 unknown #
point $-1 4.368958014618698371 0 15.52978973882988711 #
edge $-1 $657 -1.5 $615 1.5 $610 $693 forward 7 unknown #
vertex $-1 $611 $694 #
straight-curve $-1 4.368958014618698371 -7.106915588601395939 7.764894869414943557 0 0 -1 I I #
plane-surface $-1 2.868958014618698371 -7.106915588601395939 7.764894869414943557 0 1 0 0 0 1 forward_v I I I I #
straight-curve $-1 1.368958014618698371 -3.553457794300697969 0 0 1 0 I I #
point $-1 1.368958014618698371 -7.106915588601395939 0 #
plane-surface $-1 4.368958014618698371 -3.553457794300697969 7.764894869414943557 -1 0 0 0 0 1 forward_v I I I I #
coedge $-1 $647 $684 $631 $669 reversed $621 $-1 #
coedge $-1 $630 $673 $623 $665 reversed $584 $-1 #
edge $-1 $633 74.42572903615445057 $675 82.85409100619526157 $623 $695 forward 7 unknown #
vertex $-1 $625 $696 #
point $-1 78.98630376625212079 19.46812422968606171 11.3512221880915618 #
coedge $-1 $673 $630 $684 $697 reversed $584 $-1 #
edge $-1 $686 -26.83749879743267996 $670 -20.28743138405396707 $631 $698 forward 7 unknown #
vertex $-1 $632 $699 #
straight-curve $-1 76.30402359281654867 19.15440852589251364 15.52978973882988889 0 1 0 I I #
point $-1 76.30402359281654867 24.38188901967466649 15.52978973882988889 #
coedge $-1 $664 $668 $635 $674 reversed $584 $-1 #
edge $-1 $675 -5.227480493782152848 $685 1.651790212201895258 $635 $700 forward 7 unknown #
vertex $-1 $674 $701 #
straight-curve $-1 82.85409100619526157 24.38188901967466649 67.26101789119755381 0 0 -1 I I #
coedge $-1 $637 $646 $651 $688 forward $557 $-1 #
point $-1 82.85409100619526157 34.73312677020476258 0 #
coedge $-1 $644 $641 $653 $690 forward $552 $-1 #
coedge $-1 $651 $650 $641 $681 reversed $620 $-1 #
edge $-1 $682 -41.42704550309763079 $691 37.05808748847893241 $680 $600 forward 7 unknown #
vertex $-1 $688 $702 #
straight-curve $-1 82.85409100619526157 17.36656338510238129 0 0 -1 0 I I #
coedge $-1 $663 $647 $668 $697 forward $621 $-1 #
vertex $-1 $674 $703 #
vertex $-1 $648 $704 #
straight-curve $-1 82.85409100619526157 17.50261831369061838 67.26101789119755381 0 0 1 I I #
edge $-1 $652 -7.764894869414943557 $682 7.764894869414943557 $677 $705 forward 7 unknown #
point $-1 82.85409100619526157 0 15.52978973882988711 #
edge $-1 $691 -3.553457794300697969 $657 3.553457794300697969 $653 $706 forward 7 unknown #
vertex $-1 $690 $707 #
straight-curve $-1 4.368958014618698371 0 7.764894869414943557 0 0 -1 I I #
straight-curve $-1 2.868958014618698371 -7.106915588601395939 0 -1 0 0 I I #
point $-1 4.368958014618698371 -7.106915588601395939 0 #
straight-curve $-1 18.46436931485617805 24.38188901967466649 62.36741922164108587 0.7771459551288114609 0 -0.6293203988644634483 I I #
point $-1 78.28307058925548745 19.46812422968606171 11.27730940995938802 #
edge $-1 $685 -82.85409100619526157 $670 -74.42572903615445057 $684 $708 forward 7 unknown #
straight-curve $-1 56.01659220876258161 17.50261831369061838 15.52978973882988889 -1 0 0 I I #
point $-1 76.30402359281654867 17.50261831369061838 15.52978973882988889 #
straight-curve $-1 82.85409100619526157 19.15440852589251364 10.22564962206973327 0 -1 0 I I #
point $-1 82.85409100619526157 24.38188901967466649 10.22564962206973682 #
point $-1 82.85409100619526157 0 0 #
point $-1 82.85409100619526157 17.50261831369061838 10.22564962206973682 #
point $-1 82.85409100619526157 17.50261831369061838 15.52978973882988711 #
straight-curve $-1 82.85409100619526157 0 7.764894869414943557 0 0 -1 I I #
straight-curve $-1 4.368958014618698371 -3.553457794300697969 0 0 -1 0 I I #
point $-1 4.368958014618698371 0 0 #
straight-curve $-1 18.46436931485617805 17.50261831369061838 62.36741922164108587 -0.7771459551288114609 0 0.6293203988644634483 I I #
End-of-ACIS-data 