600 0 37 0           
82 GICL ACIS Healer - Source: /gicl/data5/repository/Drexel/SM99-DATA/team0.sat - 6 0 18 ACIS 6.0.3 Solaris 24 Sat Apr 13 20:47:35 2002 
1 9.999999999999999547e-07 1.000000000000000036e-10 
body $-1 $37 $-1 $-1 #
body $-1 $38 $-1 $-1 #
body $-1 $39 $-1 $-1 #
body $-1 $40 $-1 $-1 #
body $-1 $41 $-1 $-1 #
body $-1 $42 $-1 $-1 #
body $-1 $43 $-1 $-1 #
body $-1 $44 $-1 $-1 #
body $-1 $45 $-1 $-1 #
body $-1 $46 $-1 $-1 #
body $-1 $-1 $-1 $-1 #
body $-1 $-1 $-1 $-1 #
body $-1 $-1 $-1 $-1 #
body $-1 $-1 $-1 $-1 #
body $-1 $-1 $-1 $-1 #
body $-1 $-1 $-1 $-1 #
body $-1 $47 $-1 $-1 #
body $-1 $48 $-1 $-1 #
body $-1 $-1 $-1 $-1 #
body $-1 $-1 $-1 $-1 #
body $-1 $-1 $-1 $-1 #
body $-1 $-1 $-1 $-1 #
body $-1 $-1 $-1 $-1 #
body $-1 $-1 $-1 $-1 #
body $-1 $-1 $-1 $-1 #
body $-1 $-1 $-1 $-1 #
body $-1 $-1 $-1 $-1 #
body $-1 $-1 $-1 $-1 #
body $-1 $-1 $-1 $-1 #
body $-1 $-1 $-1 $-1 #
body $-1 $-1 $-1 $-1 #
body $-1 $49 $-1 $-1 #
body $-1 $50 $-1 $-1 #
body $-1 $51 $-1 $-1 #
body $-1 $-1 $-1 $-1 #
body $-1 $-1 $-1 $-1 #
body $-1 $-1 $-1 $-1 #
lump $-1 $-1 $52 $0 #
lump $-1 $-1 $53 $1 #
lump $-1 $-1 $54 $2 #
lump $-1 $-1 $55 $3 #
lump $-1 $-1 $56 $4 #
lump $-1 $-1 $57 $5 #
lump $-1 $-1 $58 $6 #
lump $-1 $-1 $59 $7 #
lump $-1 $-1 $60 $8 #
lump $-1 $-1 $61 $9 #
lump $-1 $-1 $62 $16 #
lump $-1 $-1 $63 $17 #
lump $-1 $-1 $64 $31 #
lump $-1 $-1 $65 $32 #
lump $-1 $-1 $66 $33 #
shell $-1 $-1 $-1 $67 $-1 $37 #
shell $-1 $-1 $-1 $68 $-1 $38 #
shell $-1 $-1 $-1 $69 $-1 $39 #
shell $-1 $-1 $-1 $70 $-1 $40 #
shell $-1 $-1 $-1 $71 $-1 $41 #
shell $-1 $-1 $-1 $72 $-1 $42 #
shell $-1 $-1 $-1 $73 $-1 $43 #
shell $-1 $-1 $-1 $74 $-1 $44 #
shell $-1 $-1 $-1 $75 $-1 $45 #
shell $-1 $-1 $-1 $76 $-1 $46 #
shell $-1 $-1 $-1 $77 $-1 $47 #
shell $-1 $-1 $-1 $78 $-1 $48 #
shell $-1 $-1 $-1 $79 $-1 $49 #
shell $-1 $-1 $-1 $80 $-1 $50 #
shell $-1 $-1 $-1 $81 $-1 $51 #
face $-1 $82 $83 $52 $-1 $84 reversed single #
face $-1 $85 $86 $53 $-1 $87 reversed single #
face $-1 $88 $89 $54 $-1 $90 reversed single #
face $-1 $91 $92 $55 $-1 $93 forward single #
face $-1 $94 $95 $56 $-1 $96 forward single #
face $-1 $97 $98 $57 $-1 $99 reversed single #
face $-1 $100 $101 $58 $-1 $102 forward single #
face $-1 $103 $104 $59 $-1 $105 forward single #
face $-1 $106 $107 $60 $-1 $108 forward single #
face $-1 $-1 $109 $61 $-1 $110 forward double out #
face $-1 $-1 $111 $62 $-1 $112 forward double out #
face $-1 $-1 $113 $63 $-1 $114 forward double out #
face $-1 $-1 $115 $64 $-1 $116 forward double out #
face $-1 $-1 $117 $65 $-1 $118 forward double out #
face $-1 $-1 $119 $66 $-1 $120 forward double out #
face $-1 $121 $122 $52 $-1 $123 reversed single #
loop $-1 $124 $125 $67 #
cone-surface $-1 45.56445964395546611 45.41292109926128262 20.66727231528503239 0 -0.5446390421508873203 -0.8386705633113421543 1 0 0 1 I I 0 1 1 forward I I I I #
face $-1 $126 $127 $53 $-1 $128 reversed single #
loop $-1 $-1 $129 $68 #
plane-surface $-1 6.775643086847480845 25.4468656744267534 19.52495954507115528 0 0 1 1 0 0 forward_v I I I I #
face $-1 $130 $131 $54 $-1 $132 reversed single #
loop $-1 $-1 $133 $69 #
plane-surface $-1 31.61757639556260813 -69.50056926361227738 69.51711490648807512 -1 0 0 0 -0.7986355182712320255 0.6018150122385121925 forward_v I I I I #
face $-1 $134 $135 $55 $-1 $136 forward single #
loop $-1 $137 $138 $70 #
cone-surface $-1 18.71308337994285864 3.864865679649639674 20.12141622664268681 0 0.7986355182712320255 -0.6018150122385121925 2 0 0 1 I I 0 1 2 forward I I I I #
face $-1 $139 $140 $56 $-1 $141 forward single #
loop $-1 $142 $143 $71 #
cone-surface $-1 26.45577918931470762 3.864865679649639674 20.12141622664268681 0 0.7986355182712320255 -0.6018150122385121925 2 0 0 1 I I 0 1 2 forward I I I I #
face $-1 $144 $145 $57 $-1 $146 reversed single #
loop $-1 $-1 $147 $72 #
plane-surface $-1 33.10616152479169472 55.60740133989079936 118.8697414081064636 1 0 0 0 -0.5446390421508873203 -0.8386705633113421543 forward_v I I I I #
face $-1 $148 $149 $58 $-1 $150 forward single #
loop $-1 $151 $152 $73 #
cone-surface $-1 36.22073605458263756 45.41292109926128262 20.66727231528503239 0 -0.5446390421508873203 -0.8386705633113421543 1 0 0 1 I I 0 1 1 forward I I I I #
face $-1 $153 $154 $59 $-1 $155 forward single #
loop $-1 $156 $157 $74 #
cone-surface $-1 40.89259784926905184 45.41292109926128262 20.66727231528503239 0 -0.5446390421508873203 -0.8386705633113421543 1 0 0 1 I I 0 1 1 forward I I I I #
face $-1 $158 $159 $60 $-1 $160 forward single #
loop $-1 $161 $162 $75 #
cone-surface $-1 45.56445964395546611 45.41292109926128262 20.66727231528503239 0 -0.5446390421508873203 -0.8386705633113421543 1 0 0 1 I I 0 1 1 forward I I I I #
loop $-1 $-1 $163 $76 #
plane-surface $-1 13.55128617369496169 25.4468656744267534 22.09101130064387775 -1 0 0 0 0 1 forward_v I I I I #
loop $-1 $-1 $164 $77 #
plane-surface $-1 22.58443128462878491 -7.105427357601001859e-15 17.14468094248886132 0 -0.7986355182712320255 0.6018150122385121925 1 0 0 forward_v I I I I #
loop $-1 $-1 $165 $78 #
plane-surface $-1 22.58443128462878491 -7.105427357601001859e-15 17.14468094248886132 0 -0.7986355182712320255 0.6018150122385121925 1 0 0 forward_v I I I I #
loop $-1 $-1 $166 $79 #
plane-surface $-1 40.89259784926905184 8.210657009494418901 45.88515677437257523 0 0.5446390421508873203 0.8386705633113421543 1 0 0 forward_v I I I I #
loop $-1 $-1 $167 $80 #
plane-surface $-1 40.89259784926905184 8.210657009494418901 45.88515677437257523 0 0.5446390421508873203 0.8386705633113421543 1 0 0 forward_v I I I I #
loop $-1 $-1 $168 $81 #
plane-surface $-1 40.89259784926905184 8.210657009494418901 45.88515677437257523 0 0.5446390421508873203 0.8386705633113421543 1 0 0 forward_v I I I I #
face $-1 $169 $170 $52 $-1 $171 reversed single #
loop $-1 $172 $173 $82 #
cone-surface $-1 45.56445964395546611 44.65712992014442762 19.50345598028187766 0 -0.5446390421508873203 -0.8386705633113421543 0.5 0 0 1 I I -0.7071067811865474617 0.7071067811865474617 0.5 forward I I I I #
loop $-1 $-1 $174 $67 #
coedge $-1 $125 $125 $175 $176 reversed $83 $-1 #
face $-1 $177 $178 $53 $-1 $179 reversed single #
loop $-1 $-1 $180 $85 #
plane-surface $-1 13.55128617369496169 25.4468656744267534 22.09101130064387775 -1 0 0 0 0 1 forward_v I I I I #
coedge $-1 $181 $182 $180 $183 forward $86 $-1 #
face $-1 $184 $185 $54 $-1 $186 forward single #
loop $-1 $-1 $187 $88 #
plane-surface $-1 22.58443128462878491 -7.105427357601001859e-15 17.14468094248886132 0 -0.7986355182712320255 0.6018150122385121925 1 0 0 forward_v I I I I #
coedge $-1 $188 $189 $190 $191 reversed $89 $-1 #
face $-1 $-1 $192 $55 $-1 $193 forward single #
loop $-1 $194 $195 $91 #
cone-surface $-1 18.71308337994285864 5.697873974187018575 18.74014544169412488 0 0.7986355182712320255 -0.6018150122385121925 1 0 0 1 I I -0.7071067811865474617 0.7071067811865474617 1 forward I I I I #
loop $-1 $-1 $196 $70 #
coedge $-1 $138 $138 $197 $198 reversed $92 $-1 #
face $-1 $-1 $199 $56 $-1 $200 forward single #
loop $-1 $201 $202 $94 #
cone-surface $-1 26.45577918931470762 5.697873974187018575 18.74014544169412488 0 0.7986355182712320255 -0.6018150122385121925 1 0 0 1 I I -0.7071067811865474617 0.7071067811865474617 1 forward I I I I #
loop $-1 $-1 $203 $71 #
coedge $-1 $143 $143 $204 $205 reversed $95 $-1 #
face $-1 $206 $207 $57 $-1 $208 reversed single #
loop $-1 $-1 $209 $97 #
plane-surface $-1 40.89259784926905184 8.210657009494418901 45.88515677437257523 0 0.5446390421508873203 0.8386705633113421543 1 0 0 forward_v I I I I #
coedge $-1 $210 $211 $212 $213 reversed $98 $-1 #
face $-1 $-1 $214 $58 $-1 $215 forward single #
loop $-1 $216 $217 $100 #
cone-surface $-1 36.22073605458263756 44.65712992014442762 19.50345598028187766 0 -0.5446390421508873203 -0.8386705633113421543 0.5 0 0 1 I I -0.7071067811865474617 0.7071067811865474617 0.5 forward I I I I #
loop $-1 $-1 $218 $73 #
coedge $-1 $152 $152 $219 $220 reversed $101 $-1 #
face $-1 $-1 $221 $59 $-1 $222 forward single #
loop $-1 $223 $224 $103 #
cone-surface $-1 40.89259784926905184 44.65712992014442762 19.50345598028187766 0 -0.5446390421508873203 -0.8386705633113421543 0.5 0 0 1 I I -0.7071067811865474617 0.7071067811865474617 0.5 forward I I I I #
loop $-1 $-1 $225 $74 #
coedge $-1 $157 $157 $226 $227 reversed $104 $-1 #
face $-1 $-1 $228 $60 $-1 $229 forward single #
loop $-1 $230 $231 $106 #
cone-surface $-1 45.56445964395546611 44.65712992014442762 19.50345598028187766 0 -0.5446390421508873203 -0.8386705633113421543 0.5 0 0 1 I I -0.7071067811865474617 0.7071067811865474617 0.5 forward I I I I #
loop $-1 $-1 $232 $75 #
coedge $-1 $162 $162 $233 $234 reversed $107 $-1 #
coedge $-1 $235 $236 $-1 $237 reversed $109 $-1 #
coedge $-1 $164 $164 $-1 $238 forward $111 $-1 #
coedge $-1 $165 $165 $-1 $239 forward $113 $-1 #
coedge $-1 $166 $166 $-1 $240 forward $115 $-1 #
coedge $-1 $167 $167 $-1 $241 forward $117 $-1 #
coedge $-1 $168 $168 $-1 $242 forward $119 $-1 #
face $-1 $243 $244 $52 $-1 $245 reversed single #
loop $-1 $246 $247 $121 #
cone-surface $-1 40.89259784926905184 45.41292109926128262 20.66727231528503239 0 -0.5446390421508873203 -0.8386705633113421543 1 0 0 1 I I 0 1 1 forward I I I I #
loop $-1 $-1 $248 $82 #
coedge $-1 $173 $173 $174 $249 forward $122 $-1 #
coedge $-1 $174 $174 $173 $249 reversed $124 $-1 #
coedge $-1 $175 $175 $125 $176 forward $250 $-1 #
edge $-1 $251 -4.17843922890106731e-15 $251 6.283185307179581791 $175 $252 forward 7 unknown #
face $-1 $253 $254 $53 $-1 $255 reversed single #
loop $-1 $-1 $256 $126 #
plane-surface $-1 43.51207007049775655 50.8937313488535068 12.32853152810830188 0 -1 0 0 0 -1 forward_v I I I I #
coedge $-1 $257 $258 $129 $183 reversed $127 $-1 #
coedge $-1 $259 $129 $260 $261 reversed $86 $-1 #
coedge $-1 $129 $259 $262 $263 reversed $86 $-1 #
edge $-1 $264 -25.4468656744267534 $265 25.4468656744267534 $180 $266 forward 7 unknown #
face $-1 $267 $268 $54 $-1 $269 forward single #
loop $-1 $-1 $270 $130 #
plane-surface $-1 13.55128617369496169 25.4468656744267534 22.09101130064387775 -1 0 0 0 0 1 forward_v I I I I #
coedge $-1 $271 $272 $273 $274 reversed $131 $-1 #
coedge $-1 $189 $133 $275 $276 reversed $89 $-1 #
coedge $-1 $133 $188 $271 $277 reversed $89 $-1 #
coedge $-1 $273 $278 $133 $191 forward $268 $-1 #
edge $-1 $279 22.02685179459276554 $280 27.68783760135974603 $190 $281 forward 7 unknown #
loop $-1 $-1 $197 $134 #
plane-surface $-1 22.58443128462878491 -7.105427357601001859e-15 17.14468094248886132 0 -0.7986355182712320255 0.6018150122385121925 1 0 0 forward_v I I I I #
loop $-1 $-1 $282 $91 #
coedge $-1 $195 $195 $196 $283 reversed $135 $-1 #
coedge $-1 $196 $196 $195 $283 forward $137 $-1 #
coedge $-1 $197 $197 $138 $198 forward $192 $-1 #
edge $-1 $284 1.069038213043626571e-15 $284 6.28318530717958712 $197 $285 forward 7 unknown #
loop $-1 $-1 $204 $139 #
plane-surface $-1 22.58443128462878491 -7.105427357601001859e-15 17.14468094248886132 0 -0.7986355182712320255 0.6018150122385121925 1 0 0 forward_v I I I I #
loop $-1 $-1 $286 $94 #
coedge $-1 $202 $202 $203 $287 reversed $140 $-1 #
coedge $-1 $203 $203 $202 $287 forward $142 $-1 #
coedge $-1 $204 $204 $143 $205 forward $199 $-1 #
edge $-1 $288 1.069038213043626571e-15 $288 6.28318530717958712 $204 $289 forward 7 unknown #
face $-1 $290 $291 $57 $-1 $292 forward single #
loop $-1 $-1 $293 $144 #
plane-surface $-1 48.67903417374640895 55.60740133989079936 118.8697414081064636 -1 0 0 0 0.5446390421508873203 0.8386705633113421543 forward_v I I I I #
coedge $-1 $294 $295 $296 $297 reversed $145 $-1 #
coedge $-1 $211 $147 $298 $299 reversed $98 $-1 #
coedge $-1 $147 $210 $294 $300 reversed $98 $-1 #
coedge $-1 $296 $301 $147 $213 forward $291 $-1 #
edge $-1 $302 -10.36659784169472687 $303 -0.3719206585930692199 $212 $304 forward 7 unknown #
loop $-1 $-1 $219 $148 #
plane-surface $-1 40.89259784926905184 8.210657009494418901 45.88515677437257523 0 0.5446390421508873203 0.8386705633113421543 1 0 0 forward_v I I I I #
loop $-1 $-1 $305 $100 #
coedge $-1 $217 $217 $218 $306 reversed $149 $-1 #
coedge $-1 $218 $218 $217 $306 forward $151 $-1 #
coedge $-1 $219 $219 $152 $220 forward $214 $-1 #
edge $-1 $307 4.17843922890106731e-15 $307 6.283185307179590673 $219 $308 forward 7 unknown #
loop $-1 $-1 $226 $153 #
plane-surface $-1 40.89259784926905184 8.210657009494418901 45.88515677437257523 0 0.5446390421508873203 0.8386705633113421543 1 0 0 forward_v I I I I #
loop $-1 $-1 $309 $103 #
coedge $-1 $224 $224 $225 $310 reversed $154 $-1 #
coedge $-1 $225 $225 $224 $310 forward $156 $-1 #
coedge $-1 $226 $226 $157 $227 forward $221 $-1 #
edge $-1 $311 4.17843922890106731e-15 $311 6.283185307179590673 $226 $312 forward 7 unknown #
loop $-1 $-1 $233 $158 #
plane-surface $-1 40.89259784926905184 8.210657009494418901 45.88515677437257523 0 0.5446390421508873203 0.8386705633113421543 1 0 0 forward_v I I I I #
loop $-1 $-1 $313 $106 #
coedge $-1 $231 $231 $232 $314 reversed $159 $-1 #
coedge $-1 $232 $232 $231 $314 forward $161 $-1 #
coedge $-1 $233 $233 $162 $234 forward $228 $-1 #
edge $-1 $315 4.17843922890106731e-15 $315 6.283185307179590673 $233 $316 forward 7 unknown #
coedge $-1 $317 $163 $-1 $318 reversed $109 $-1 #
coedge $-1 $163 $317 $-1 $319 reversed $109 $-1 #
edge $-1 $320 -25.4468656744267534 $321 -23.65319714407518248 $163 $322 forward 7 unknown #
edge $-1 $323 1.069038213043626571e-15 $323 6.28318530717958712 $164 $324 forward 7 unknown #
edge $-1 $325 1.069038213043626571e-15 $325 6.28318530717958712 $165 $326 forward 7 unknown #
edge $-1 $327 4.17843922890106731e-15 $327 6.283185307179590673 $166 $328 forward 7 unknown #
edge $-1 $329 4.17843922890106731e-15 $329 6.283185307179590673 $167 $330 forward 7 unknown #
edge $-1 $331 4.17843922890106731e-15 $331 6.283185307179590673 $168 $332 forward 7 unknown #
face $-1 $333 $334 $52 $-1 $335 reversed single #
loop $-1 $336 $337 $169 #
cone-surface $-1 40.89259784926905184 44.65712992014442762 19.50345598028187766 0 -0.5446390421508873203 -0.8386705633113421543 0.5 0 0 1 I I -0.7071067811865474617 0.7071067811865474617 0.5 forward I I I I #
loop $-1 $-1 $338 $121 #
coedge $-1 $247 $247 $339 $340 reversed $170 $-1 #
coedge $-1 $248 $248 $-1 $341 forward $172 $-1 #
edge $-1 $342 0 $342 6.283185307179586232 $173 $343 forward 7 unknown #
loop $-1 $344 $175 $345 #
vertex $-1 $176 $346 #
ellipse-curve $-1 45.56445964395546611 45.89639275730267798 21.41175336863250322 0 -0.5446390421508873203 -0.8386705633113421543 1 0 0 1 I I #
face $-1 $347 $348 $53 $-1 $349 forward single #
loop $-1 $-1 $350 $177 #
plane-surface $-1 0 25.4468656744267534 12.32853152810830188 1 0 0 0 0 -1 forward_v I I I I #
coedge $-1 $262 $351 $257 $352 forward $178 $-1 #
coedge $-1 $353 $180 $256 $352 reversed $127 $-1 #
coedge $-1 $180 $353 $354 $355 reversed $127 $-1 #
coedge $-1 $182 $181 $350 $356 reversed $86 $-1 #
coedge $-1 $354 $357 $181 $261 forward $358 $-1 #
edge $-1 $359 -25.1438565786726187 $265 -11.59257040497765701 $260 $360 forward 7 unknown #
coedge $-1 $361 $256 $182 $263 forward $178 $-1 #
edge $-1 $264 11.59257040497765701 $362 25.1438565786726187 $262 $363 forward 7 unknown #
vertex $-1 $263 $364 #
vertex $-1 $261 $365 #
straight-curve $-1 13.55128617369496169 25.4468656744267534 19.52495954507115528 0 -1 0 I I #
face $-1 $-1 $366 $54 $-1 $367 reversed single #
loop $-1 $-1 $273 $184 #
plane-surface $-1 43.51207007049775655 25.4468656744267534 24.65706305621660377 0 0 1 1 0 0 forward_v I I I I #
coedge $-1 $368 $369 $272 $370 reversed $185 $-1 #
coedge $-1 $371 $187 $189 $277 forward $131 $-1 #
coedge $-1 $187 $371 $270 $370 forward $131 $-1 #
coedge $-1 $372 $190 $187 $274 forward $268 $-1 #
edge $-1 $280 1.430674282000666153 $373 19.49696450386831259 $273 $374 forward 7 unknown #
coedge $-1 $375 $376 $188 $276 forward $366 $-1 #
edge $-1 $377 -23.77814227480931564 $279 -16.26576016108158385 $275 $378 forward 7 unknown #
edge $-1 $280 -9.406521425430007355 $377 -1.278812284258890611e-14 $189 $379 forward 7 unknown #
coedge $-1 $190 $372 $375 $380 forward $268 $-1 #
vertex $-1 $276 $381 #
vertex $-1 $191 $382 #
straight-curve $-1 31.61757639556260813 -22.02685179459276554 24.65706305621660022 0 1 0 I I #
coedge $-1 $282 $282 $-1 $383 reversed $194 $-1 #
edge $-1 $384 0 $384 6.283185307179586232 $195 $385 forward 7 unknown #
vertex $-1 $198 $386 #
ellipse-curve $-1 18.71308337994285864 2.830492903383490244 20.90087199935273787 0 -0.7986355182712320255 0.6018150122385121925 2 0 0 1 I I #
coedge $-1 $286 $286 $-1 $387 reversed $201 $-1 #
edge $-1 $388 0 $388 6.283185307179586232 $202 $389 forward 7 unknown #
vertex $-1 $205 $390 #
ellipse-curve $-1 26.45577918931470762 2.830492903383490244 20.90087199935273787 0 -0.7986355182712320255 0.6018150122385121925 2 0 0 1 I I #
face $-1 $-1 $391 $57 $-1 $392 reversed single #
loop $-1 $-1 $212 $206 #
plane-surface $-1 43.51207007049775655 25.4468656744267534 24.65706305621660377 0 0 1 1 0 0 forward_v I I I I #
coedge $-1 $393 $394 $395 $396 reversed $207 $-1 #
coedge $-1 $397 $209 $211 $300 forward $145 $-1 #
coedge $-1 $209 $397 $393 $398 forward $145 $-1 #
coedge $-1 $395 $212 $209 $297 forward $291 $-1 #
edge $-1 $303 -9.096172435091709474 $399 6.476700213863004763 $296 $400 forward 7 unknown #
coedge $-1 $401 $402 $210 $299 forward $391 $-1 #
edge $-1 $403 -47.43269278705897563 $302 -40.94207341189078875 $298 $404 forward 7 unknown #
edge $-1 $303 38.9764450861290328 $403 50.8937313488535068 $211 $405 forward 7 unknown #
coedge $-1 $212 $395 $401 $406 forward $291 $-1 #
vertex $-1 $299 $407 #
vertex $-1 $213 $408 #
straight-curve $-1 33.10616152479169472 40.52713350715877993 24.65706305621660022 0 -1 0 I I #
coedge $-1 $305 $305 $-1 $409 reversed $216 $-1 #
edge $-1 $410 0 $410 6.283185307179586232 $217 $411 forward 7 unknown #
vertex $-1 $220 $412 #
ellipse-curve $-1 36.22073605458263756 45.89639275730267798 21.41175336863250322 0 0.5446390421508873203 0.8386705633113421543 1 0 0 1 I I #
coedge $-1 $309 $309 $-1 $413 reversed $223 $-1 #
edge $-1 $414 0 $414 6.283185307179586232 $224 $415 forward 7 unknown #
vertex $-1 $227 $416 #
ellipse-curve $-1 40.89259784926905184 45.89639275730267798 21.41175336863250322 0 0.5446390421508873203 0.8386705633113421543 1 0 0 1 I I #
coedge $-1 $313 $313 $-1 $417 reversed $230 $-1 #
edge $-1 $418 0 $418 6.283185307179586232 $231 $419 forward 7 unknown #
vertex $-1 $234 $420 #
ellipse-curve $-1 45.56445964395546611 45.89639275730267798 21.41175336863250322 0 0.5446390421508873203 0.8386705633113421543 1 0 0 1 I I #
coedge $-1 $236 $235 $-1 $421 reversed $109 $-1 #
edge $-1 $422 16.2657601610815874 $320 21.39786367222703234 $235 $423 forward 7 unknown #
edge $-1 $321 2.980431683948603361 $424 9.406521425430005579 $236 $425 forward 7 unknown #
vertex $-1 $237 $426 #
vertex $-1 $319 $427 #
straight-curve $-1 13.55128617369496169 25.4468656744267534 19.52495954507115528 0 1 0 I I #
vertex $-1 $238 $428 #
ellipse-curve $-1 18.71308337994285864 2.830492903383490244 20.90087199935273787 0 -0.7986355182712320255 0.6018150122385121925 2 0 0 1 I I #
vertex $-1 $239 $429 #
ellipse-curve $-1 26.45577918931470762 2.830492903383490244 20.90087199935273787 0 -0.7986355182712320255 0.6018150122385121925 2 0 0 1 I I #
vertex $-1 $240 $430 #
ellipse-curve $-1 36.22073605458263756 45.89639275730267798 21.41175336863250322 0 0.5446390421508873203 0.8386705633113421543 1 0 0 1 I I #
vertex $-1 $241 $431 #
ellipse-curve $-1 40.89259784926905184 45.89639275730267798 21.41175336863250322 0 0.5446390421508873203 0.8386705633113421543 1 0 0 1 I I #
vertex $-1 $242 $432 #
ellipse-curve $-1 45.56445964395546611 45.89639275730267798 21.41175336863250322 0 0.5446390421508873203 0.8386705633113421543 1 0 0 1 I I #
face $-1 $433 $434 $52 $-1 $435 reversed single #
loop $-1 $436 $437 $243 #
cone-surface $-1 36.22073605458263756 45.41292109926128262 20.66727231528503239 0 -0.5446390421508873203 -0.8386705633113421543 1 0 0 1 I I 0 1 1 forward I I I I #
loop $-1 $-1 $438 $169 #
coedge $-1 $337 $337 $338 $439 forward $244 $-1 #
coedge $-1 $338 $338 $337 $439 reversed $246 $-1 #
coedge $-1 $339 $339 $247 $340 forward $344 $-1 #
edge $-1 $440 -4.17843922890106731e-15 $440 6.283185307179581791 $339 $441 forward 7 unknown #
edge $-1 $442 1 $442 0 $248 $-1 forward 7 unknown #
vertex $-1 $249 $443 #
ellipse-curve $-1 45.56445964395546611 44.92944944121987305 19.92279126193754735 0 0.5446390421508873203 0.8386705633113421543 1 0 0 1 I I #
loop $-1 $444 $339 $345 #
face $-1 $445 $250 $52 $-1 $446 forward single #
point $-1 46.56445964395546611 45.89639275730269219 21.41175336863251744 #
face $-1 $-1 $358 $53 $-1 $447 reversed single #
loop $-1 $-1 $448 $253 #
plane-surface $-1 43.51207007049775655 25.4468656744267534 24.65706305621660377 0 0 1 1 0 0 forward_v I I I I #
coedge $-1 $449 $450 $259 $356 forward $254 $-1 #
coedge $-1 $256 $361 $451 $452 reversed $178 $-1 #
edge $-1 $453 -7.447291641840511289 $264 -2.315188130695066349 $256 $454 forward 7 unknown #
coedge $-1 $258 $257 $448 $455 reversed $127 $-1 #
coedge $-1 $456 $260 $258 $355 forward $358 $-1 #
edge $-1 $265 2.315188130695066349 $457 7.447291641840511289 $354 $458 forward 7 unknown #
edge $-1 $362 -25.4468656744267534 $359 25.4468656744267534 $350 $459 forward 7 unknown #
coedge $-1 $260 $456 $449 $460 forward $358 $-1 #
loop $-1 $-1 $354 $347 #
vertex $-1 $356 $461 #
straight-curve $-1 25.1438565786726187 0 19.52495954507115528 1 0 0 I I #
coedge $-1 $351 $262 $450 $462 reversed $178 $-1 #
vertex $-1 $356 $463 #
straight-curve $-1 25.1438565786726187 50.8937313488535068 19.52495954507115528 -1 0 0 I I #
point $-1 13.55128617369496169 50.8937313488535068 19.52495954507115528 #
point $-1 13.55128617369496169 0 19.52495954507115528 #
loop $-1 $-1 $275 $267 #
plane-surface $-1 43.51207007049775655 0 12.32853152810830188 0 1 0 0 0 1 forward_v I I I I #
coedge $-1 $369 $270 $464 $465 reversed $185 $-1 #
coedge $-1 $270 $368 $372 $466 reversed $185 $-1 #
edge $-1 $467 1.278812284258890611e-14 $373 9.406521425430005579 $270 $468 forward 7 unknown #
coedge $-1 $272 $271 $376 $469 reversed $131 $-1 #
coedge $-1 $278 $273 $369 $466 forward $268 $-1 #
vertex $-1 $466 $470 #
straight-curve $-1 33.04825067756327428 5.660985806766980488 24.65706305621660377 -1 0 0 I I #
coedge $-1 $464 $275 $278 $380 reversed $366 $-1 #
coedge $-1 $275 $464 $371 $469 forward $366 $-1 #
vertex $-1 $276 $471 #
straight-curve $-1 31.61757639556260813 0 40.92282321729818761 0 0 1 I I #
straight-curve $-1 31.61757639556260813 -7.105427357601001859e-15 17.14468094248886132 0 -0.6018150122385121925 -0.7986355182712320255 I I #
edge $-1 $472 -29.96078389680279486 $279 -11.89449367493514842 $375 $473 forward 7 unknown #
point $-1 31.61757639556260813 0 24.65706305621660377 #
point $-1 31.61757639556260813 5.660985806766980488 24.65706305621660377 #
edge $-1 $474 1 $474 0 $282 $-1 forward 7 unknown #
vertex $-1 $283 $475 #
ellipse-curve $-1 18.71308337994285864 4.899238455915785551 19.34196045393263574 0 -0.7986355182712320255 0.6018150122385121925 2 0 0 1 I I #
point $-1 20.71308337994285864 2.830492903383493797 20.90087199935273787 #
edge $-1 $476 1 $476 0 $286 $-1 forward 7 unknown #
vertex $-1 $287 $477 #
ellipse-curve $-1 26.45577918931470762 4.899238455915785551 19.34196045393263574 0 -0.7986355182712320255 0.6018150122385121925 2 0 0 1 I I #
point $-1 28.45577918931470762 2.830492903383493797 20.90087199935273787 #
loop $-1 $-1 $298 $290 #
plane-surface $-1 43.51207007049775655 50.8937313488535068 12.32853152810830188 0 -1 0 0 0 -1 forward_v I I I I #
coedge $-1 $394 $293 $295 $398 reversed $207 $-1 #
coedge $-1 $293 $393 $478 $479 reversed $207 $-1 #
coedge $-1 $301 $296 $293 $396 forward $291 $-1 #
edge $-1 $399 0.3719206585930692199 $480 10.36659784169472687 $395 $481 forward 7 unknown #
coedge $-1 $295 $294 $402 $482 reversed $145 $-1 #
edge $-1 $483 -50.8937313488535068 $399 -38.9764450861290328 $393 $484 forward 7 unknown #
vertex $-1 $297 $485 #
straight-curve $-1 42.20233395988340419 40.89905416575184915 24.65706305621660377 1 0 0 I I #
coedge $-1 $478 $298 $301 $406 reversed $391 $-1 #
coedge $-1 $298 $478 $397 $482 forward $391 $-1 #
vertex $-1 $299 $486 #
straight-curve $-1 33.10616152479169472 50.8937313488535068 65.59913646810738896 0 0 1 I I #
straight-curve $-1 33.10616152479169472 8.210657009494418901 45.88515677437257523 0 0.8386705633113421543 -0.5446390421508873203 I I #
edge $-1 $480 -5.166964103248652407 $302 10.40590854570606183 $401 $487 forward 7 unknown #
point $-1 33.10616152479169472 50.8937313488535068 24.65706305621660377 #
point $-1 33.10616152479169472 40.89905416575184915 24.65706305621660022 #
edge $-1 $488 1 $488 0 $305 $-1 forward 7 unknown #
vertex $-1 $306 $489 #
ellipse-curve $-1 36.22073605458263756 44.92944944121987305 19.92279126193754735 0 0.5446390421508873203 0.8386705633113421543 1 0 0 1 I I #
point $-1 37.22073605458263756 45.89639275730269219 21.41175336863251744 #
edge $-1 $490 1 $490 0 $309 $-1 forward 7 unknown #
vertex $-1 $310 $491 #
ellipse-curve $-1 40.89259784926905184 44.92944944121987305 19.92279126193754735 0 0.5446390421508873203 0.8386705633113421543 1 0 0 1 I I #
point $-1 41.89259784926905184 45.89639275730269219 21.41175336863251744 #
edge $-1 $492 1 $492 0 $313 $-1 forward 7 unknown #
vertex $-1 $314 $493 #
ellipse-curve $-1 45.56445964395546611 44.92944944121987305 19.92279126193754735 0 0.5446390421508873203 0.8386705633113421543 1 0 0 1 I I #
point $-1 46.56445964395546611 45.89639275730269219 21.41175336863251744 #
edge $-1 $424 19.78587986765977647 $422 25.4468656744267534 $317 $494 forward 7 unknown #
vertex $-1 $318 $495 #
straight-curve $-1 13.55128617369496169 0 40.92282321729818761 0 0 -1 I I #
vertex $-1 $421 $496 #
straight-curve $-1 13.55128617369496169 -7.105427357601001859e-15 17.14468094248886132 0 0.6018150122385121925 0.7986355182712320255 I I #
point $-1 13.55128617369496169 0 19.52495954507115528 #
point $-1 13.55128617369496169 1.793668530351570922 19.52495954507115528 #
point $-1 20.71308337994285864 2.830492903383493797 20.90087199935273787 #
point $-1 28.45577918931470762 2.830492903383493797 20.90087199935273787 #
point $-1 37.22073605458263756 45.89639275730269219 21.41175336863251744 #
point $-1 41.89259784926905184 45.89639275730269219 21.41175336863251744 #
point $-1 46.56445964395546611 45.89639275730269219 21.41175336863251744 #
face $-1 $345 $497 $52 $-1 $498 forward single #
loop $-1 $499 $500 $333 #
cone-surface $-1 36.22073605458263756 44.65712992014442762 19.50345598028187766 0 -0.5446390421508873203 -0.8386705633113421543 0.5 0 0 1 I I -0.7071067811865474617 0.7071067811865474617 0.5 forward I I I I #
loop $-1 $-1 $501 $243 #
coedge $-1 $437 $437 $502 $503 reversed $334 $-1 #
coedge $-1 $438 $438 $-1 $504 forward $336 $-1 #
edge $-1 $505 0 $505 6.283185307179586232 $337 $506 forward 7 unknown #
vertex $-1 $340 $507 #
ellipse-curve $-1 40.89259784926905184 45.89639275730267798 21.41175336863250322 0 -0.5446390421508873203 -0.8386705633113421543 1 0 0 1 I I #
vertex $-1 $341 $508 #
point $-1 46.56445964395546611 44.92944944121987305 19.92279126193754735 #
loop $-1 $509 $502 $345 #
face $-1 $510 $511 $52 $-1 $512 forward single #
plane-surface $-1 40.89259784926905184 8.210657009494418901 45.88515677437257523 0 0.5446390421508873203 0.8386705633113421543 1 0 0 forward_v I I I I #
plane-surface $-1 43.51207007049775655 0 12.32853152810830188 0 1 0 0 0 1 forward_v I I I I #
coedge $-1 $451 $513 $353 $455 forward $348 $-1 #
coedge $-1 $514 $350 $357 $460 reversed $254 $-1 #
coedge $-1 $350 $514 $361 $462 forward $254 $-1 #
coedge $-1 $515 $448 $351 $452 forward $348 $-1 #
edge $-1 $453 29.96078389680279486 $516 43.51207007049775655 $351 $517 forward 7 unknown #
vertex $-1 $452 $518 #
straight-curve $-1 13.55128617369496169 50.8937313488535068 17.20977141437608893 0 0 -1 I I #
edge $-1 $457 -25.4468656744267534 $453 25.4468656744267534 $448 $519 forward 7 unknown #
coedge $-1 $357 $354 $513 $520 reversed $358 $-1 #
vertex $-1 $355 $521 #
straight-curve $-1 13.55128617369496169 0 17.20977141437608893 0 0 1 I I #
straight-curve $-1 0 25.4468656744267534 19.52495954507115528 0 -1 0 I I #
edge $-1 $522 -12.32853152810830188 $359 -7.196428016962853391 $449 $523 forward 7 unknown #
point $-1 0 0 19.52495954507115528 #
edge $-1 $516 -12.32853152810830188 $362 -7.196428016962853391 $361 $524 forward 7 unknown #
point $-1 0 50.8937313488535068 19.52495954507115528 #
coedge $-1 $376 $375 $368 $465 forward $366 $-1 #
edge $-1 $472 16.2657601610815874 $467 23.77814227480931564 $464 $525 forward 7 unknown #
edge $-1 $373 19.78587986765977647 $472 25.4468656744267534 $372 $526 forward 7 unknown #
vertex $-1 $465 $527 #
straight-curve $-1 13.55128617369496169 -7.105427357601001859e-15 17.14468094248886132 0 0.6018150122385121925 0.7986355182712320255 I I #
edge $-1 $467 -19.49696450386831259 $377 -1.430674282000666153 $376 $528 forward 7 unknown #
point $-1 13.55128617369496169 5.660985806766976935 24.65706305621660377 #
point $-1 31.61757639556260813 0 17.14468094248887198 #
vertex $-1 $380 $529 #
straight-curve $-1 43.51207007049775655 0 24.65706305621660377 1 0 0 I I #
vertex $-1 $383 $530 #
point $-1 20.71308337994285864 4.899238455915785551 19.34196045393263574 #
vertex $-1 $387 $531 #
point $-1 28.45577918931470762 4.899238455915785551 19.34196045393263574 #
coedge $-1 $402 $401 $394 $479 forward $391 $-1 #
edge $-1 $480 40.94207341189078875 $483 47.43269278705897563 $478 $532 forward 7 unknown #
vertex $-1 $406 $533 #
straight-curve $-1 48.67903417374640895 40.52713350715877993 24.65706305621660022 0 1 0 I I #
edge $-1 $483 -6.476700213863004763 $403 9.096172435091709474 $402 $534 forward 7 unknown #
vertex $-1 $482 $535 #
straight-curve $-1 48.67903417374640895 8.210657009494418901 45.88515677437257523 0 -0.8386705633113421543 0.5446390421508873203 I I #
point $-1 48.67903417374640895 40.89905416575184915 24.65706305621660022 #
point $-1 33.10616152479169472 50.8937313488535068 18.16644368104841334 #
straight-curve $-1 43.51207007049775655 50.8937313488535068 24.65706305621660377 -1 0 0 I I #
vertex $-1 $409 $536 #
point $-1 37.22073605458263756 44.92944944121987305 19.92279126193754735 #
vertex $-1 $413 $537 #
point $-1 41.89259784926905184 44.92944944121987305 19.92279126193754735 #
vertex $-1 $417 $538 #
point $-1 46.56445964395546611 44.92944944121987305 19.92279126193754735 #
straight-curve $-1 13.55128617369496169 25.4468656744267534 24.65706305621660377 0 -1 0 I I #
point $-1 13.55128617369496169 0 24.65706305621660022 #
point $-1 13.55128617369496169 5.660985806766976935 24.65706305621660377 #
loop $-1 $-1 $539 $433 #
plane-surface $-1 33.10616152479169472 55.60740133989079936 118.8697414081064636 1 0 0 0 -0.5446390421508873203 -0.8386705633113421543 forward_v I I I I #
loop $-1 $-1 $540 $333 #
coedge $-1 $500 $500 $501 $541 forward $434 $-1 #
coedge $-1 $501 $501 $500 $541 reversed $436 $-1 #
coedge $-1 $502 $502 $437 $503 forward $444 $-1 #
edge $-1 $542 -4.17843922890106731e-15 $542 6.283185307179581791 $502 $543 forward 7 unknown #
edge $-1 $544 1 $544 0 $438 $-1 forward 7 unknown #
vertex $-1 $439 $545 #
ellipse-curve $-1 40.89259784926905184 44.92944944121987305 19.92279126193754735 0 0.5446390421508873203 0.8386705633113421543 1 0 0 1 I I #
point $-1 41.89259784926905184 45.89639275730269219 21.41175336863251744 #
point $-1 45.56445964395546611 44.38481039906898218 19.08412069862620797 #
loop $-1 $-1 $546 $345 #
face $-1 $547 $548 $52 $-1 $549 forward single #
loop $-1 $-1 $550 $445 #
plane-surface $-1 48.67903417374640895 55.60740133989079936 118.8697414081064636 -1 0 0 0 0.5446390421508873203 0.8386705633113421543 forward_v I I I I #
coedge $-1 $448 $515 $456 $520 forward $348 $-1 #
coedge $-1 $450 $449 $515 $551 reversed $254 $-1 #
coedge $-1 $513 $451 $514 $551 forward $348 $-1 #
vertex $-1 $452 $552 #
straight-curve $-1 43.51207007049775655 50.8937313488535068 24.65706305621660377 -1 0 0 I I #
point $-1 13.55128617369496169 50.8937313488535068 24.65706305621660022 #
straight-curve $-1 13.55128617369496169 25.4468656744267534 24.65706305621660377 0 1 0 I I #
edge $-1 $522 -43.51207007049775655 $457 -29.96078389680279486 $456 $553 forward 7 unknown #
point $-1 13.55128617369496169 0 24.65706305621660022 #
vertex $-1 $551 $554 #
straight-curve $-1 0 0 12.32853152810830188 0 0 -1 I I #
straight-curve $-1 0 50.8937313488535068 12.32853152810830188 0 0 -1 I I #
straight-curve $-1 13.55128617369496169 0 40.92282321729818761 0 0 -1 I I #
straight-curve $-1 13.55128617369496169 25.4468656744267534 24.65706305621660377 0 -1 0 I I #
point $-1 13.55128617369496169 0 17.14468094248887198 #
straight-curve $-1 33.04825067756327428 0 17.14468094248887553 1 0 0 I I #
point $-1 13.55128617369496169 0 24.65706305621660022 #
point $-1 18.71308337994285864 6.4965094924582516 18.13833042945561402 #
point $-1 26.45577918931470762 6.4965094924582516 18.13833042945561402 #
straight-curve $-1 48.67903417374640895 50.8937313488535068 65.59913646810738896 0 0 -1 I I #
point $-1 48.67903417374640895 50.8937313488535068 24.65706305621660377 #
straight-curve $-1 42.20233395988340419 50.8937313488535068 18.16644368104841334 -1 0 0 I I #
point $-1 48.67903417374640895 50.8937313488535068 18.16644368104841334 #
point $-1 36.22073605458263756 44.38481039906898218 19.08412069862620797 #
point $-1 40.89259784926905184 44.38481039906898218 19.08412069862620797 #
point $-1 45.56445964395546611 44.38481039906898218 19.08412069862620797 #
coedge $-1 $555 $556 $557 $558 reversed $497 $-1 #
coedge $-1 $540 $540 $-1 $559 forward $499 $-1 #
edge $-1 $560 0 $560 6.283185307179586232 $500 $561 forward 7 unknown #
vertex $-1 $503 $562 #
ellipse-curve $-1 36.22073605458263756 45.89639275730267798 21.41175336863250322 0 -0.5446390421508873203 -0.8386705633113421543 1 0 0 1 I I #
vertex $-1 $504 $563 #
point $-1 41.89259784926905184 44.92944944121987305 19.92279126193754735 #
coedge $-1 $564 $565 $566 $567 reversed $509 $-1 #
face $-1 $568 $569 $52 $-1 $570 reversed single #
loop $-1 $-1 $571 $510 #
plane-surface $-1 43.51207007049775655 25.4468656744267534 24.65706305621660377 0 0 1 1 0 0 forward_v I I I I #
coedge $-1 $572 $573 $571 $574 reversed $511 $-1 #
edge $-1 $516 -25.4468656744267534 $522 25.4468656744267534 $514 $575 forward 7 unknown #
point $-1 0 50.8937313488535068 24.65706305621660377 #
straight-curve $-1 43.51207007049775655 0 24.65706305621660377 1 0 0 I I #
point $-1 0 0 24.65706305621660377 #
coedge $-1 $556 $539 $565 $576 forward $497 $-1 #
coedge $-1 $539 $555 $577 $578 reversed $497 $-1 #
coedge $-1 $579 $566 $539 $558 forward $548 $-1 #
edge $-1 $580 0.3719206585930692199 $581 10.36659784169472687 $557 $582 forward 7 unknown #
edge $-1 $583 1 $583 0 $540 $-1 forward 7 unknown #
vertex $-1 $541 $584 #
ellipse-curve $-1 36.22073605458263756 44.92944944121987305 19.92279126193754735 0 0.5446390421508873203 0.8386705633113421543 1 0 0 1 I I #
point $-1 37.22073605458263756 45.89639275730269219 21.41175336863251744 #
point $-1 40.89259784926905184 44.38481039906898218 19.08412069862620797 #
coedge $-1 $585 $546 $573 $586 reversed $509 $-1 #
coedge $-1 $546 $585 $555 $576 reversed $509 $-1 #
coedge $-1 $557 $571 $546 $567 forward $548 $-1 #
edge $-1 $587 -6.476700213863004763 $580 9.096172435091709474 $566 $588 forward 7 unknown #
face $-1 $589 $590 $52 $-1 $591 reversed single #
loop $-1 $592 $593 $547 #
cone-surface $-1 26.45577918931470762 3.864865679649639674 20.12141622664268681 0 0.7986355182712320255 -0.6018150122385121925 2 0 0 1 I I 0 1 2 forward I I I I #
coedge $-1 $566 $594 $550 $574 forward $548 $-1 #
coedge $-1 $573 $550 $595 $596 reversed $511 $-1 #
coedge $-1 $550 $572 $564 $586 forward $511 $-1 #
edge $-1 $597 -10.36659784169472687 $587 -0.3719206585930692199 $571 $598 forward 7 unknown #
straight-curve $-1 0 25.4468656744267534 24.65706305621660377 0 -1 0 I I #
edge $-1 $580 38.9764450861290328 $599 50.8937313488535068 $555 $600 forward 7 unknown #
coedge $-1 $601 $602 $556 $578 forward $603 $-1 #
edge $-1 $581 40.94207341189078875 $599 47.43269278705897563 $577 $604 forward 7 unknown #
coedge $-1 $605 $557 $602 $606 forward $548 $-1 #
vertex $-1 $567 $607 #
vertex $-1 $606 $608 #
straight-curve $-1 33.10616152479169472 40.52713350715877993 24.65706305621660022 0 1 0 I I #
vertex $-1 $559 $609 #
point $-1 37.22073605458263756 44.92944944121987305 19.92279126193754735 #
coedge $-1 $565 $564 $601 $610 reversed $509 $-1 #
edge $-1 $611 -50.8937313488535068 $587 -38.9764450861290328 $573 $612 forward 7 unknown #
vertex $-1 $567 $613 #
straight-curve $-1 42.20233395988340419 40.89905416575184915 24.65706305621660377 -1 0 0 I I #
face $-1 $614 $615 $52 $-1 $616 reversed single #
loop $-1 $617 $618 $568 #
cone-surface $-1 26.45577918931470762 5.697873974187018575 18.74014544169412488 0 0.7986355182712320255 -0.6018150122385121925 1 0 0 1 I I -0.7071067811865474617 0.7071067811865474617 1 forward I I I I #
loop $-1 $-1 $619 $547 #
coedge $-1 $593 $593 $620 $621 reversed $569 $-1 #
coedge $-1 $571 $622 $623 $624 forward $548 $-1 #
coedge $-1 $623 $601 $572 $596 forward $603 $-1 #
edge $-1 $611 -47.43269278705897563 $597 -40.94207341189078875 $595 $625 forward 7 unknown #
vertex $-1 $596 $626 #
straight-curve $-1 48.67903417374640895 40.52713350715877993 24.65706305621660022 0 -1 0 I I #
vertex $-1 $610 $627 #
straight-curve $-1 33.10616152479169472 8.210657009494418901 45.88515677437257523 0 0.8386705633113421543 -0.5446390421508873203 I I #
coedge $-1 $595 $577 $585 $610 forward $603 $-1 #
coedge $-1 $577 $628 $579 $606 reversed $603 $-1 #
loop $-1 $-1 $595 $629 #
straight-curve $-1 33.10616152479169472 50.8937313488535068 65.59913646810738896 0 0 -1 I I #
coedge $-1 $630 $579 $631 $632 forward $548 $-1 #
edge $-1 $581 10.40590854570606183 $633 29.96078389680279486 $602 $634 forward 7 unknown #
point $-1 33.10616152479169472 40.89905416575184915 24.65706305621660022 #
point $-1 33.10616152479169472 50.8937313488535068 24.65706305621660377 #
point $-1 36.22073605458263756 44.38481039906898218 19.08412069862620797 #
edge $-1 $599 -9.096172435091709474 $611 6.476700213863004763 $601 $635 forward 7 unknown #
vertex $-1 $610 $636 #
straight-curve $-1 48.67903417374640895 8.210657009494418901 45.88515677437257523 0 -0.8386705633113421543 0.5446390421508873203 I I #
point $-1 48.67903417374640895 40.89905416575184915 24.65706305621660022 #
face $-1 $637 $638 $52 $-1 $639 reversed single #
loop $-1 $640 $641 $589 #
cone-surface $-1 18.71308337994285864 3.864865679649639674 20.12141622664268681 0 0.7986355182712320255 -0.6018150122385121925 2 0 0 1 I I 0 1 2 forward I I I I #
loop $-1 $-1 $642 $568 #
coedge $-1 $618 $618 $619 $643 forward $590 $-1 #
coedge $-1 $619 $619 $618 $643 reversed $592 $-1 #
coedge $-1 $620 $620 $593 $621 forward $644 $-1 #
edge $-1 $645 -1.069038213043626571e-15 $645 6.283185307179585344 $620 $646 forward 7 unknown #
coedge $-1 $594 $647 $648 $649 forward $548 $-1 #
coedge $-1 $650 $595 $594 $624 reversed $603 $-1 #
edge $-1 $651 -43.51207007049775655 $597 -5.166964103248652407 $623 $634 forward 7 unknown #
straight-curve $-1 48.67903417374640895 50.8937313488535068 65.59913646810738896 0 0 1 I I #
point $-1 48.67903417374640895 50.8937313488535068 24.65706305621660377 #
point $-1 33.10616152479169472 50.8937313488535068 18.16644368104841334 #
coedge $-1 $602 $652 $653 $654 forward $603 $-1 #
face $-1 $655 $603 $52 $-1 $656 reversed single #
coedge $-1 $657 $605 $658 $659 forward $548 $-1 #
coedge $-1 $653 $660 $605 $632 reversed $661 $-1 #
edge $-1 $633 -25.4468656744267534 $662 19.78587986765977647 $605 $663 forward 7 unknown #
vertex $-1 $632 $664 #
straight-curve $-1 43.51207007049775655 50.8937313488535068 24.65706305621660377 -1 0 0 I I #
straight-curve $-1 42.20233395988340419 50.8937313488535068 18.16644368104841334 1 0 0 I I #
point $-1 48.67903417374640895 50.8937313488535068 18.16644368104841334 #
face $-1 $665 $666 $52 $-1 $667 forward single #
loop $-1 $668 $669 $614 #
cone-surface $-1 18.71308337994285864 5.697873974187018575 18.74014544169412488 0 0.7986355182712320255 -0.6018150122385121925 1 0 0 1 I I -0.7071067811865474617 0.7071067811865474617 1 forward I I I I #
loop $-1 $-1 $670 $589 #
coedge $-1 $641 $641 $671 $672 reversed $615 $-1 #
coedge $-1 $642 $642 $-1 $673 forward $617 $-1 #
edge $-1 $674 0 $674 6.283185307179586232 $618 $675 forward 7 unknown #
loop $-1 $676 $620 $677 #
vertex $-1 $621 $678 #
ellipse-curve $-1 26.45577918931470762 2.830492903383490244 20.90087199935273787 0 0.7986355182712320255 -0.6018150122385121925 2 0 0 1 I I #
coedge $-1 $622 $657 $679 $680 forward $548 $-1 #
coedge $-1 $681 $682 $622 $649 reversed $683 $-1 #
edge $-1 $684 -25.4468656744267534 $651 25.4468656744267534 $648 $685 forward 7 unknown #
coedge $-1 $686 $623 $682 $687 forward $603 $-1 #
vertex $-1 $649 $688 #
coedge $-1 $628 $689 $690 $691 forward $603 $-1 #
coedge $-1 $692 $631 $628 $654 reversed $661 $-1 #
edge $-1 $693 2.315188130695066349 $633 7.447291641840511289 $628 $694 forward 7 unknown #
face $-1 $-1 $683 $52 $-1 $695 reversed single #
plane-surface $-1 43.51207007049775655 50.8937313488535068 12.32853152810830188 0 -1 0 0 0 -1 forward_v I I I I #
coedge $-1 $647 $630 $696 $697 forward $548 $-1 #
coedge $-1 $698 $699 $630 $659 reversed $700 $-1 #
edge $-1 $662 -19.49696450386831259 $701 -1.430674282000666153 $630 $702 forward 7 unknown #
coedge $-1 $631 $692 $698 $703 forward $661 $-1 #
loop $-1 $-1 $660 $704 #
vertex $-1 $659 $705 #
straight-curve $-1 13.55128617369496169 25.4468656744267534 24.65706305621660377 0 -1 0 I I #
point $-1 13.55128617369496169 50.8937313488535068 24.65706305621660022 #
face $-1 $677 $706 $52 $-1 $707 forward single #
loop $-1 $-1 $708 $637 #
plane-surface $-1 13.55128617369496169 -69.50056926361227738 69.51711490648807512 1 0 0 0 0.7986355182712320255 -0.6018150122385121925 forward_v I I I I #
loop $-1 $-1 $709 $614 #
coedge $-1 $669 $669 $670 $710 forward $638 $-1 #
coedge $-1 $670 $670 $669 $710 reversed $640 $-1 #
coedge $-1 $671 $671 $641 $672 forward $676 $-1 #
edge $-1 $711 -1.069038213043626571e-15 $711 6.283185307179585344 $671 $712 forward 7 unknown #
edge $-1 $713 1 $713 0 $642 $-1 forward 7 unknown #
vertex $-1 $643 $714 #
ellipse-curve $-1 26.45577918931470762 4.899238455915785551 19.34196045393263574 0 -0.7986355182712320255 0.6018150122385121925 2 0 0 1 I I #
loop $-1 $700 $671 $677 #
face $-1 $715 $644 $52 $-1 $716 forward single #
point $-1 28.45577918931470762 2.830492903383493797 20.90087199935273787 #
coedge $-1 $717 $718 $647 $680 reversed $719 $-1 #
edge $-1 $720 -11.89449367493514842 $684 43.51207007049775655 $679 $721 forward 7 unknown #
coedge $-1 $722 $648 $718 $723 forward $683 $-1 #
coedge $-1 $648 $722 $650 $687 reversed $683 $-1 #
loop $-1 $-1 $681 $655 #
vertex $-1 $649 $724 #
straight-curve $-1 87.02414014099551309 25.4468656744267534 24.65706305621660377 0 1 0 I I #
coedge $-1 $689 $650 $725 $726 reversed $603 $-1 #
edge $-1 $651 -12.32853152810830188 $727 12.32853152810830188 $682 $728 forward 7 unknown #
point $-1 87.02414014099551309 50.8937313488535068 24.65706305621660377 #
coedge $-1 $652 $686 $729 $730 reversed $603 $-1 #
coedge $-1 $731 $732 $652 $691 reversed $733 $-1 #
edge $-1 $734 -25.1438565786726187 $693 -11.59257040497765701 $652 $735 forward 7 unknown #
coedge $-1 $660 $653 $732 $736 forward $661 $-1 #
vertex $-1 $691 $737 #
straight-curve $-1 13.55128617369496169 50.8937313488535068 17.20977141437608893 0 0 1 I I #
plane-surface $-1 87.02414014099551309 25.4468656744267534 12.32853152810830188 -1 0 0 0 0 1 forward_v I I I I #
coedge $-1 $738 $739 $657 $697 reversed $706 $-1 #
edge $-1 $701 -27.68783760135974603 $720 -22.02685179459276554 $657 $740 forward 7 unknown #
coedge $-1 $741 $658 $660 $703 reversed $700 $-1 #
coedge $-1 $658 $742 $738 $743 reversed $700 $-1 #
loop $-1 $-1 $658 $677 #
vertex $-1 $659 $744 #
straight-curve $-1 33.04825067756327428 5.660985806766980488 24.65706305621660377 1 0 0 I I #
edge $-1 $745 -6.651878759257783713 $662 -0.2257890177763816342 $660 $746 forward 7 unknown #
face $-1 $747 $661 $52 $-1 $748 forward single #
point $-1 13.55128617369496169 5.660985806766976935 24.65706305621660377 #
loop $-1 $-1 $696 $665 #
plane-surface $-1 31.61757639556260813 -69.50056926361227738 69.51711490648807512 -1 0 0 0 -0.7986355182712320255 0.6018150122385121925 forward_v I I I I #
coedge $-1 $749 $750 $751 $752 forward $666 $-1 #
coedge $-1 $709 $709 $-1 $753 forward $668 $-1 #
edge $-1 $754 0 $754 6.283185307179586232 $669 $755 forward 7 unknown #
vertex $-1 $672 $756 #
ellipse-curve $-1 18.71308337994285864 2.830492903383490244 20.90087199935273787 0 0.7986355182712320255 -0.6018150122385121925 2 0 0 1 I I #
vertex $-1 $673 $757 #
point $-1 28.45577918931470762 4.899238455915785551 19.34196045393263574 #
face $-1 $704 $733 $52 $-1 $758 forward single #
plane-surface $-1 22.58443128462878491 -7.105427357601001859e-15 17.14468094248886132 0 -0.7986355182712320255 0.6018150122385121925 1 0 0 forward_v I I I I #
coedge $-1 $759 $679 $739 $760 forward $719 $-1 #
coedge $-1 $679 $761 $681 $723 reversed $719 $-1 #
loop $-1 $-1 $762 $747 #
vertex $-1 $680 $763 #
straight-curve $-1 43.51207007049775655 0 24.65706305621660377 1 0 0 I I #
coedge $-1 $682 $681 $764 $765 reversed $683 $-1 #
edge $-1 $684 -12.32853152810830188 $766 12.32853152810830188 $681 $767 forward 7 unknown #
point $-1 87.02414014099551309 0 24.65706305621660377 #
coedge $-1 $764 $768 $686 $726 forward $769 $-1 #
edge $-1 $770 -43.51207007049775655 $727 43.51207007049775655 $686 $771 forward 7 unknown #
vertex $-1 $765 $772 #
straight-curve $-1 87.02414014099551309 50.8937313488535068 12.32853152810830188 0 0 -1 I I #
coedge $-1 $773 $774 $689 $730 forward $775 $-1 #
edge $-1 $734 -7.196428016962853391 $770 12.32853152810830188 $689 $776 forward 7 unknown #
coedge $-1 $777 $690 $774 $778 reversed $733 $-1 #
coedge $-1 $690 $751 $692 $736 reversed $733 $-1 #
loop $-1 $-1 $732 $715 #
vertex $-1 $730 $779 #
straight-curve $-1 25.1438565786726187 50.8937313488535068 19.52495954507115528 1 0 0 I I #
edge $-1 $693 -25.4468656744267534 $745 23.65319714407518248 $692 $780 forward 7 unknown #
point $-1 13.55128617369496169 50.8937313488535068 19.52495954507115528 #
coedge $-1 $739 $696 $699 $743 forward $706 $-1 #
coedge $-1 $696 $738 $717 $760 reversed $706 $-1 #
straight-curve $-1 31.61757639556260813 -22.02685179459276554 24.65706305621660022 0 -1 0 I I #
coedge $-1 $742 $698 $750 $781 reversed $700 $-1 #
coedge $-1 $699 $741 $759 $782 reversed $700 $-1 #
edge $-1 $701 -9.406521425430007355 $783 -1.278812284258890611e-14 $738 $784 forward 7 unknown #
point $-1 31.61757639556260813 5.660985806766980488 24.65706305621660377 #
vertex $-1 $752 $785 #
straight-curve $-1 13.55128617369496169 5.796869027263394258 24.83738618544839483 0 0.6018150122385121925 0.7986355182712320255 I I #
face $-1 $786 $719 $52 $-1 $787 reversed single #
plane-surface $-1 13.55128617369496169 25.4468656744267534 22.09101130064387775 -1 0 0 0 0 1 forward_v I I I I #
coedge $-1 $750 $708 $762 $788 reversed $666 $-1 #
coedge $-1 $708 $749 $741 $781 forward $666 $-1 #
coedge $-1 $732 $777 $708 $752 reversed $733 $-1 #
edge $-1 $745 23.65319714407518248 $789 25.4468656744267534 $751 $780 forward 7 unknown #
edge $-1 $790 1 $790 0 $709 $-1 forward 7 unknown #
vertex $-1 $710 $791 #
ellipse-curve $-1 18.71308337994285864 4.899238455915785551 19.34196045393263574 0 -0.7986355182712320255 0.6018150122385121925 2 0 0 1 I I #
point $-1 20.71308337994285864 2.830492903383493797 20.90087199935273787 #
point $-1 26.45577918931470762 6.4965094924582516 18.13833042945561402 #
plane-surface $-1 6.775643086847480845 25.4468656744267534 19.52495954507115528 0 0 1 1 0 0 forward_v I I I I #
coedge $-1 $762 $717 $742 $782 forward $719 $-1 #
edge $-1 $720 16.26576016108158385 $783 23.77814227480931564 $717 $792 forward 7 unknown #
coedge $-1 $718 $793 $794 $795 reversed $719 $-1 #
coedge $-1 $796 $759 $749 $788 forward $719 $-1 #
point $-1 31.61757639556260813 0 24.65706305621660377 #
coedge $-1 $794 $725 $722 $765 forward $769 $-1 #
edge $-1 $727 -25.4468656744267534 $766 25.4468656744267534 $722 $797 forward 7 unknown #
vertex $-1 $723 $798 #
straight-curve $-1 87.02414014099551309 0 12.32853152810830188 0 0 -1 I I #
coedge $-1 $725 $794 $773 $799 forward $769 $-1 #
loop $-1 $-1 $764 $786 #
vertex $-1 $726 $800 #
straight-curve $-1 43.51207007049775655 50.8937313488535068 0 1 0 0 I I #
point $-1 87.02414014099551309 50.8937313488535068 0 #
coedge $-1 $801 $729 $768 $799 reversed $775 $-1 #
coedge $-1 $729 $801 $731 $778 forward $775 $-1 #
loop $-1 $-1 $774 $802 #
straight-curve $-1 0 50.8937313488535068 12.32853152810830188 0 0 -1 I I #
coedge $-1 $751 $731 $796 $803 reversed $733 $-1 #
edge $-1 $804 -25.4468656744267534 $734 25.4468656744267534 $774 $805 forward 7 unknown #
point $-1 0 50.8937313488535068 19.52495954507115528 #
straight-curve $-1 13.55128617369496169 25.4468656744267534 19.52495954507115528 0 -1 0 I I #
edge $-1 $806 1.278812284258890611e-14 $745 2.980431683948603361 $750 $807 forward 7 unknown #
edge $-1 $783 1.430674282000666153 $806 19.49696450386831259 $759 $808 forward 7 unknown #
vertex $-1 $782 $809 #
straight-curve $-1 31.61757639556260813 -7.105427357601001859e-15 17.14468094248886132 0 -0.6018150122385121925 -0.7986355182712320255 I I #
point $-1 13.55128617369496169 1.793668530351570922 19.52495954507115528 #
face $-1 $802 $769 $52 $-1 $810 reversed single #
plane-surface $-1 43.51207007049775655 0 12.32853152810830188 0 1 0 0 0 1 forward_v I I I I #
edge $-1 $806 -23.77814227480931564 $789 -21.39786367222703234 $762 $811 forward 7 unknown #
vertex $-1 $803 $812 #
vertex $-1 $753 $813 #
point $-1 20.71308337994285864 4.899238455915785551 19.34196045393263574 #
straight-curve $-1 31.61757639556260813 0 40.92282321729818761 0 0 -1 I I #
coedge $-1 $761 $796 $801 $814 forward $719 $-1 #
coedge $-1 $768 $764 $761 $795 forward $769 $-1 #
edge $-1 $766 -43.51207007049775655 $815 43.51207007049775655 $761 $816 forward 7 unknown #
coedge $-1 $793 $762 $777 $803 forward $719 $-1 #
straight-curve $-1 87.02414014099551309 25.4468656744267534 0 0 -1 0 I I #
point $-1 87.02414014099551309 0 0 #
edge $-1 $815 -25.4468656744267534 $770 25.4468656744267534 $773 $817 forward 7 unknown #
point $-1 0 50.8937313488535068 0 #
coedge $-1 $774 $773 $793 $814 reversed $775 $-1 #
face $-1 $629 $775 $52 $-1 $818 reversed single #
edge $-1 $789 11.59257040497765701 $804 25.1438565786726187 $796 $819 forward 7 unknown #
vertex $-1 $814 $820 #
straight-curve $-1 0 25.4468656744267534 19.52495954507115528 0 1 0 I I #
vertex $-1 $782 $821 #
straight-curve $-1 13.55128617369496169 -7.105427357601001859e-15 17.14468094248886132 0 0.6018150122385121925 0.7986355182712320255 I I #
straight-curve $-1 33.04825067756327428 0 17.14468094248887553 -1 0 0 I I #
point $-1 31.61757639556260813 0 17.14468094248887198 #
plane-surface $-1 43.51207007049775655 25.4468656744267534 0 0 0 1 1 0 0 forward_v I I I I #
straight-curve $-1 13.55128617369496169 0 40.92282321729818761 0 0 1 I I #
point $-1 13.55128617369496169 0 19.52495954507115528 #
point $-1 18.71308337994285864 6.4965094924582516 18.13833042945561402 #
edge $-1 $804 -7.196428016962853391 $815 12.32853152810830188 $801 $822 forward 7 unknown #
vertex $-1 $799 $823 #
straight-curve $-1 43.51207007049775655 0 0 -1 0 0 I I #
straight-curve $-1 0 25.4468656744267534 0 0 1 0 I I #
plane-surface $-1 0 25.4468656744267534 12.32853152810830188 1 0 0 0 0 -1 forward_v I I I I #
straight-curve $-1 25.1438565786726187 0 19.52495954507115528 -1 0 0 I I #
point $-1 0 0 19.52495954507115528 #
point $-1 13.55128617369496169 0 17.14468094248887198 #
straight-curve $-1 0 0 12.32853152810830188 0 0 -1 I I #
point $-1 0 0 0 #
End-of-ACIS-data 