  0
SECTION
  2
HEADER
  9
$ACADVER
  1
AC1009
  9
$INSBASE
 10
0.0
 20
0.0
 30
0.0
  9
$EXTMIN
 10
-1.0
 20
-4.0
 30
-6.0
  9
$EXTMAX
 10
16.207107
 20
8.0
 30
6.0
  9
$LIMMIN
 10
0.0
 20
0.0
  9
$LIMMAX
 10
12.0
 20
9.0
  9
$ORTHOMODE
 70
     0
  9
$REGENMODE
 70
     1
  9
$FILLMODE
 70
     1
  9
$QTEXTMODE
 70
     0
  9
$MIRRTEXT
 70
     1
  9
$DRAGMODE
 70
     2
  9
$LTSCALE
 40
1.0
  9
$OSMODE
 70
     0
  9
$ATTMODE
 70
     1
  9
$TEXTSIZE
 40
0.2
  9
$TRACEWID
 40
0.05
  9
$TEXTSTYLE
  7
STANDARD
  9
$CLAYER
  8
0
  9
$CELTYPE
  6
BYLAYER
  9
$CECOLOR
 62
   256
  9
$DIMSCALE
 40
1.0
  9
$DIMASZ
 40
0.18
  9
$DIMEXO
 40
0.0625
  9
$DIMDLI
 40
0.38
  9
$DIMRND
 40
0.0
  9
$DIMDLE
 40
0.0
  9
$DIMEXE
 40
0.18
  9
$DIMTP
 40
0.0
  9
$DIMTM
 40
0.0
  9
$DIMTXT
 40
0.18
  9
$DIMCEN
 40
0.09
  9
$DIMTSZ
 40
0.0
  9
$DIMTOL
 70
     0
  9
$DIMLIM
 70
     0
  9
$DIMTIH
 70
     1
  9
$DIMTOH
 70
     1
  9
$DIMSE1
 70
     0
  9
$DIMSE2
 70
     0
  9
$DIMTAD
 70
     0
  9
$DIMZIN
 70
     0
  9
$DIMBLK
  1

  9
$DIMASO
 70
     1
  9
$DIMSHO
 70
     1
  9
$DIMPOST
  1

  9
$DIMAPOST
  1

  9
$DIMALT
 70
     0
  9
$DIMALTD
 70
     2
  9
$DIMALTF
 40
25.4
  9
$DIMLFAC
 40
1.0
  9
$DIMTOFL
 70
     0
  9
$DIMTVP
 40
0.0
  9
$DIMTIX
 70
     0
  9
$DIMSOXD
 70
     0
  9
$DIMSAH
 70
     0
  9
$DIMBLK1
  1

  9
$DIMBLK2
  1

  9
$DIMSTYLE
  2
*UNNAMED
  9
$DIMCLRD
 70
     0
  9
$DIMCLRE
 70
     0
  9
$DIMCLRT
 70
     0
  9
$DIMTFAC
 40
1.0
  9
$DIMGAP
 40
0.09
  9
$LUNITS
 70
     2
  9
$LUPREC
 70
     4
  9
$SKETCHINC
 40
0.1
  9
$FILLETRAD
 40
0.0
  9
$AUNITS
 70
     0
  9
$AUPREC
 70
     0
  9
$MENU
  1
acad
  9
$ELEVATION
 40
0.0
  9
$PELEVATION
 40
0.0
  9
$THICKNESS
 40
0.0
  9
$LIMCHECK
 70
     0
  9
$BLIPMODE
 70
     1
  9
$CHAMFERA
 40
0.0
  9
$CHAMFERB
 40
0.0
  9
$SKPOLY
 70
     0
  9
$TDCREATE
 40
2449366.492844768
  9
$TDUPDATE
 40
2449366.504590763
  9
$TDINDWG
 40
0.0117459954
  9
$TDUSRTIMER
 40
0.0117459954
  9
$USRTIMER
 70
     1
  9
$ANGBASE
 50
0.0
  9
$ANGDIR
 70
     0
  9
$PDMODE
 70
     0
  9
$PDSIZE
 40
0.0
  9
$PLINEWID
 40
0.0
  9
$COORDS
 70
     1
  9
$SPLFRAME
 70
     0
  9
$SPLINETYPE
 70
     6
  9
$SPLINESEGS
 70
     8
  9
$ATTDIA
 70
     0
  9
$ATTREQ
 70
     1
  9
$HANDLING
 70
     1
  9
$HANDSEED
  5
1D4
  9
$SURFTAB1
 70
     6
  9
$SURFTAB2
 70
     6
  9
$SURFTYPE
 70
     6
  9
$SURFU
 70
     6
  9
$SURFV
 70
     6
  9
$UCSNAME
  2

  9
$UCSORG
 10
0.0
 20
0.0
 30
0.0
  9
$UCSXDIR
 10
1.0
 20
0.0
 30
0.0
  9
$UCSYDIR
 10
0.0
 20
1.0
 30
0.0
  9
$PUCSNAME
  2

  9
$PUCSORG
 10
0.0
 20
0.0
 30
0.0
  9
$PUCSXDIR
 10
1.0
 20
0.0
 30
0.0
  9
$PUCSYDIR
 10
0.0
 20
1.0
 30
0.0
  9
$USERI1
 70
     0
  9
$USERI2
 70
     0
  9
$USERI3
 70
     0
  9
$USERI4
 70
     0
  9
$USERI5
 70
     0
  9
$USERR1
 40
0.0
  9
$USERR2
 40
0.0
  9
$USERR3
 40
0.0
  9
$USERR4
 40
0.0
  9
$USERR5
 40
0.0
  9
$WORLDVIEW
 70
     1
  9
$SHADEDGE
 70
     3
  9
$SHADEDIF
 70
    70
  9
$TILEMODE
 70
     1
  9
$MAXACTVP
 70
    16
  9
$PINSBASE
 10
0.0
 20
0.0
 30
0.0
  9
$PLIMCHECK
 70
     0
  9
$PEXTMIN
 10
1.000000E+20
 20
1.000000E+20
 30
1.000000E+20
  9
$PEXTMAX
 10
-1.000000E+20
 20
-1.000000E+20
 30
-1.000000E+20
  9
$PLIMMIN
 10
0.0
 20
0.0
  9
$PLIMMAX
 10
12.0
 20
9.0
  9
$UNITMODE
 70
     0
  9
$VISRETAIN
 70
     0
  9
$PLINEGEN
 70
     0
  9
$PSLTSCALE
 70
     1
  9
$TREEDEPTH
 70
  3020
  9
$DWGCODEPAGE
  3
ascii
  0
ENDSEC
  0
SECTION
  2
TABLES
  0
TABLE
  2
VPORT
 70
     2
  0
VPORT
  2
*ACTIVE
 70
     0
 10
0.0
 20
0.0
 11
1.0
 21
1.0
 12
9.963301
 22
2.874049
 13
0.0
 23
0.0
 14
1.0
 24
1.0
 15
0.0
 25
0.0
 16
0.0
 26
0.0
 36
1.0
 17
0.0
 27
0.0
 37
0.0
 40
13.748097
 41
1.594883
 42
50.0
 43
0.0
 44
0.0
 50
0.0
 51
0.0
 71
     0
 72
   100
 73
     1
 74
     1
 75
     0
 76
     0
 77
     0
 78
     0
  0
ENDTAB
  0
TABLE
  2
LTYPE
 70
     1
  0
LTYPE
  2
CONTINUOUS
 70
    64
  3
Solid line
 72
    65
 73
     0
 40
0.0
  0
ENDTAB
  0
TABLE
  2
LAYER
 70
     2
  0
LAYER
  2
0
 70
    64
 62
     7
  6
CONTINUOUS
  0
LAYER
  2
AME_FRZ
 70
    65
 62
     7
  6
CONTINUOUS
  0
ENDTAB
  0
TABLE
  2
STYLE
 70
     1
  0
STYLE
  2
STANDARD
 70
     0
 40
0.0
 41
1.0
 50
0.0
 71
     0
 42
0.2
  3
txt
  4

  0
ENDTAB
  0
TABLE
  2
VIEW
 70
     0
  0
ENDTAB
  0
TABLE
  2
UCS
 70
     0
  0
ENDTAB
  0
TABLE
  2
APPID
 70
     3
  0
APPID
  2
ACAD
 70
    64
  0
APPID
  2
AME_SOL
 70
    64
  0
APPID
  2
AVE_INVOKE
 70
    64
  0
ENDTAB
  0
TABLE
  2
DIMSTYLE
 70
     0
  0
ENDTAB
  0
ENDSEC
  0
SECTION
  2
BLOCKS
  0
BLOCK
  8
0
  5
1
  2
AME_NIL
 70
    64
 10
0.0
 20
0.0
 30
0.0
  1
AME_NIL
  3
AME_NIL
  0
ENDBLK
  8
0
  5
2
  0
BLOCK
  8
0
  5
4
  2
AME_SOL
 70
    64
 10
0.0
 20
0.0
 30
0.0
  1
AME_SOL
  3
AME_SOL
  0
ENDBLK
  8
0
  5
5
  0
BLOCK
  8
0
  5
168
  2
SOLAXES
 70
     0
 10
0.0
 20
0.0
 30
0.0
  1
SOLAXES
  3
SOLAXES
  0
LINE
  8
0
 62
     0
  5
169
 10
0.0
 20
0.0
 30
0.0
 11
2.532067
 21
0.0
 31
0.0
  0
LINE
  8
0
 62
     0
  5
16A
 10
0.0
 20
0.0
 30
0.0
 11
0.0
 21
2.532067
 31
0.0
  0
LINE
  8
0
 62
     0
  5
16B
 10
0.0
 20
0.0
 30
0.0
 11
0.0
 21
0.0
 31
2.532067
  0
CIRCLE
  8
0
 62
     0
  5
16C
 10
0.0
 20
0.0
 30
2.27886
 40
0.126603
210
1.0
220
0.0
230
0.0
  0
LINE
  8
0
 62
     0
  5
16D
 10
2.27886
 20
0.126603
 30
0.0
 11
2.532067
 21
0.0
 31
0.0
  0
LINE
  8
0
 62
     0
  5
16E
 10
2.27886
 20
0.0
 30
0.126603
 11
2.532067
 21
0.0
 31
0.0
  0
LINE
  8
0
 62
     0
  5
16F
 10
2.27886
 20
-0.126603
 30
0.0
 11
2.532067
 21
0.0
 31
0.0
  0
LINE
  8
0
 62
     0
  5
170
 10
2.27886
 20
0.0
 30
-0.126603
 11
2.532067
 21
0.0
 31
0.0
  0
CIRCLE
  8
0
 62
     0
  5
171
 10
0.0
 20
0.0
 30
2.27886
 40
0.126603
210
0.0
220
1.0
230
0.0
  0
LINE
  8
0
 62
     0
  5
172
 10
0.126603
 20
2.27886
 30
0.0
 11
0.0
 21
2.532067
 31
0.0
  0
LINE
  8
0
 62
     0
  5
173
 10
0.0
 20
2.27886
 30
0.126603
 11
0.0
 21
2.532067
 31
0.0
  0
LINE
  8
0
 62
     0
  5
174
 10
-0.126603
 20
2.27886
 30
0.0
 11
0.0
 21
2.532067
 31
0.0
  0
LINE
  8
0
 62
     0
  5
175
 10
0.0
 20
2.27886
 30
-0.126603
 11
0.0
 21
2.532067
 31
0.0
  0
CIRCLE
  8
0
 62
     0
  5
176
 10
0.0
 20
0.0
 30
2.025653
 40
0.126603
210
0.0
220
1.0
230
0.0
  0
LINE
  8
0
 62
     0
  5
177
 10
0.126603
 20
2.025653
 30
0.0
 11
0.0
 21
2.27886
 31
0.0
  0
LINE
  8
0
 62
     0
  5
178
 10
0.0
 20
2.025653
 30
0.126603
 11
0.0
 21
2.27886
 31
0.0
  0
LINE
  8
0
 62
     0
  5
179
 10
-0.126603
 20
2.025653
 30
0.0
 11
0.0
 21
2.27886
 31
0.0
  0
LINE
  8
0
 62
     0
  5
17A
 10
0.0
 20
2.025653
 30
-0.126603
 11
0.0
 21
2.27886
 31
0.0
  0
CIRCLE
  8
0
 62
     0
  5
17B
 10
0.0
 20
0.0
 30
2.27886
 40
0.126603
  0
LINE
  8
0
 62
     0
  5
17C
 10
0.126603
 20
0.0
 30
2.27886
 11
0.0
 21
0.0
 31
2.532067
  0
LINE
  8
0
 62
     0
  5
17D
 10
0.0
 20
0.126603
 30
2.27886
 11
0.0
 21
0.0
 31
2.532067
  0
LINE
  8
0
 62
     0
  5
17E
 10
-0.126603
 20
0.0
 30
2.27886
 11
0.0
 21
0.0
 31
2.532067
  0
LINE
  8
0
 62
     0
  5
17F
 10
0.0
 20
-0.126603
 30
2.27886
 11
0.0
 21
0.0
 31
2.532067
  0
CIRCLE
  8
0
 62
     0
  5
180
 10
0.0
 20
0.0
 30
2.025653
 40
0.126603
  0
LINE
  8
0
 62
     0
  5
181
 10
0.126603
 20
0.0
 30
2.025653
 11
0.0
 21
0.0
 31
2.27886
  0
LINE
  8
0
 62
     0
  5
182
 10
0.0
 20
0.126603
 30
2.025653
 11
0.0
 21
0.0
 31
2.27886
  0
LINE
  8
0
 62
     0
  5
183
 10
-0.126603
 20
0.0
 30
2.025653
 11
0.0
 21
0.0
 31
2.27886
  0
LINE
  8
0
 62
     0
  5
184
 10
0.0
 20
-0.126603
 30
2.025653
 11
0.0
 21
0.0
 31
2.27886
  0
CIRCLE
  8
0
 62
     0
  5
185
 10
0.0
 20
0.0
 30
1.772447
 40
0.126603
  0
LINE
  8
0
 62
     0
  5
186
 10
0.126603
 20
0.0
 30
1.772447
 11
0.0
 21
0.0
 31
2.025653
  0
LINE
  8
0
 62
     0
  5
187
 10
0.0
 20
0.126603
 30
1.772447
 11
0.0
 21
0.0
 31
2.025653
  0
LINE
  8
0
 62
     0
  5
188
 10
-0.126603
 20
0.0
 30
1.772447
 11
0.0
 21
0.0
 31
2.025653
  0
LINE
  8
0
 62
     0
  5
189
 10
0.0
 20
-0.126603
 30
1.772447
 11
0.0
 21
0.0
 31
2.025653
  0
ENDBLK
  8
0
  5
18A
  0
BLOCK
  8
0
  5
A7
  2
AME_JNK
 70
     0
 10
0.0
 20
0.0
 30
0.0
  1
AME_JNK
  3
AME_JNK
  0
ENDBLK
  8
0
  5
A8
  0
BLOCK
  8
0
  5
18D
  2
*U10
 70
    65
 10
0.0
 20
0.0
 30
0.0
  1
*U
  3
*U
  0
CIRCLE
  8
0
 62
     7
  5
18E
 10
4.0
 20
2.0
 30
-6.0
 40
1.0
210
0.0
220
-1.0
230
0.0000000000000001
1001
AME_SOL
1070
     1
1071
       30
  0
ARC
  8
0
 62
     7
  5
18F
 10
7.0
 20
3.0
 30
0.0
 40
1.0
 50
359.999998
 51
90.0
1001
AME_SOL
1070
     1
1071
       29
  0
ARC
  8
0
 62
     7
  5
190
 10
7.0
 20
3.0
 30
4.0
 40
1.0
 50
359.999998
 51
90.0
1001
AME_SOL
1070
     1
1071
       28
  0
LINE
  8
0
 62
     7
  5
191
 10
1.0
 20
4.0
 30
0.0
 11
7.0
 21
4.0
 31
0.0
1001
AME_SOL
1070
     1
1071
       27
  0
CIRCLE
  8
0
 62
     7
  5
192
 10
4.0
 20
2.0
 30
-4.0
 40
1.0
210
0.0
220
-1.0
230
0.0000000000000001
1001
AME_SOL
1070
     1
1071
       26
  0
LINE
  8
0
 62
     7
  5
193
 10
7.0
 20
4.0
 30
0.0
 11
7.0
 21
4.0
 31
4.0
1001
AME_SOL
1070
     1
1071
       25
  0
LINE
  8
0
 62
     7
  5
194
 10
7.0
 20
4.0
 30
4.0
 11
1.0
 21
4.0
 31
4.0
1001
AME_SOL
1070
     1
1071
       24
  0
LINE
  8
0
 62
     7
  5
195
 10
8.0
 20
0.0
 30
0.0
 11
0.0
 21
0.0
 31
0.0
1001
AME_SOL
1070
     1
1071
       23
  0
LINE
  8
0
 62
     7
  5
196
 10
0.0
 20
0.0
 30
4.0
 11
8.0
 21
0.0
 31
4.0
1001
AME_SOL
1070
     1
1071
       22
  0
LINE
  8
0
 62
     7
  5
197
 10
8.0
 20
3.0
 30
0.0
 11
8.0
 21
0.0
 31
0.0
1001
AME_SOL
1070
     1
1071
       21
  0
LINE
  8
0
 62
     7
  5
198
 10
8.0
 20
0.0
 30
0.0
 11
8.0
 21
0.0
 31
4.0
1001
AME_SOL
1070
     1
1071
       20
  0
LINE
  8
0
 62
     7
  5
199
 10
8.0
 20
3.0
 30
0.0
 11
8.0
 21
3.0
 31
4.0
1001
AME_SOL
1070
     1
1071
       19
  0
LINE
  8
0
 62
     7
  5
19A
 10
8.0
 20
0.0
 30
4.0
 11
8.0
 21
3.0
 31
4.0
1001
AME_SOL
1070
     1
1071
       18
  0
LINE
  8
0
 62
     7
  5
19B
 10
0.0
 20
0.0
 30
0.0
 11
0.0
 21
3.0
 31
0.0
1001
AME_SOL
1070
     1
1071
       17
  0
LINE
  8
0
 62
     7
  5
19C
 10
0.0
 20
0.0
 30
4.0
 11
0.0
 21
0.0
 31
0.0
1001
AME_SOL
1070
     1
1071
       16
  0
LINE
  8
0
 62
     7
  5
19D
 10
0.0
 20
3.0
 30
4.0
 11
0.0
 21
0.0
 31
4.0
1001
AME_SOL
1070
     1
1071
       15
  0
ARC
  8
0
 62
     7
  5
19E
 10
1.0
 20
3.0
 30
0.0
 40
1.0
 50
90.0
 51
180.0
1001
AME_SOL
1070
     1
1071
       14
  0
LINE
  8
0
 62
     7
  5
19F
 10
0.0
 20
3.0
 30
0.0
 11
0.0
 21
3.0
 31
4.0
1001
AME_SOL
1070
     1
1071
       13
  0
LINE
  8
0
 62
     7
  5
1A0
 10
1.0
 20
4.0
 30
0.0
 11
1.0
 21
4.0
 31
4.0
1001
AME_SOL
1070
     1
1071
       12
  0
ARC
  8
0
 62
     7
  5
1A1
 10
1.0
 20
3.0
 30
4.0
 40
1.0
 50
90.0
 51
180.0
1001
AME_SOL
1070
     1
1071
       11
  0
LINE
  8
0
 62
     7
  5
1A2
 10
3.0
 20
6.0
 30
2.0
 11
3.0
 21
4.0
 31
2.0
1001
AME_SOL
1070
     0
1071
        9
  0
LINE
  8
0
 62
     7
  5
1A3
 10
4.0
 20
6.0
 30
1.0
 11
4.0
 21
4.0
 31
1.0
1001
AME_SOL
1070
     0
1071
        9
  0
LINE
  8
0
 62
     7
  5
1A4
 10
5.0
 20
6.0
 30
2.0
 11
5.0
 21
4.0
 31
2.0
1001
AME_SOL
1070
     0
1071
        9
  0
LINE
  8
0
 62
     7
  5
1A5
 10
4.0
 20
6.0
 30
3.0
 11
4.0
 21
4.0
 31
3.0
1001
AME_SOL
1070
     0
1071
        9
  0
LINE
  8
0
 62
     7
  5
1A6
 10
7.0
 20
4.0
 30
0.0
 11
7.0
 21
4.0
 31
4.0
1001
AME_SOL
1070
     0
1071
        6
  0
LINE
  8
0
 62
     7
  5
1A7
 10
8.0
 20
3.0
 30
0.0
 11
8.0
 21
3.0
 31
4.0
1001
AME_SOL
1070
     0
1071
        6
  0
LINE
  8
0
 62
     7
  5
1A8
 10
1.0
 20
4.0
 30
0.0
 11
1.0
 21
4.0
 31
4.0
1001
AME_SOL
1070
     0
1071
        1
  0
LINE
  8
0
 62
     7
  5
1A9
 10
0.0
 20
3.0
 30
0.0
 11
0.0
 21
3.0
 31
4.0
1001
AME_SOL
1070
     0
1071
        1
  0
ENDBLK
  8
0
  5
1AA
  0
ENDSEC
  0
SECTION
  2
ENTITIES
  0
INSERT
  8
AME_FRZ
  5
3
  2
AME_NIL
 10
0.0
 20
0.0
 30
0.0
  0
INSERT
  8
AME_FRZ
  5
6
  2
AME_SOL
 10
0.0
 20
0.0
 30
0.0
1001
AME_SOL
1000
R2.1
1000
AME2
1000
sq cm
1070
     3
1070
     0
1070
     3
1000
wire
1040
45.0
1000
U
1040
1.0
1000
cm
1000
gm
1000
MILD_STEEL
1070
    25
1000
CSG
1070
     1
1070
     3
1070
     3
1070
     3
1070
     0
1000
cu cm
1070
     1
1070
     0
1005
3
  0
INSERT
  8
AME_FRZ
  5
10
  2
AME_NIL
 10
1.0
 20
3.0
 30
0.0
1001
AME_SOL
1002
{
1070
     1
1071
  2479888
1070
  1538
1070
     1
1010
1.0
1020
1.0
1030
4.0
1005
0
1005
0
1005
8A
1040
0.0
1040
1.0
1070
     0
1000
MILD_STEEL
1000
0
1010
1.0
1020
3.0
1030
0.0
1010
0.0
1020
0.0
1030
1.0
1040
0.0
1002
}
  0
INSERT
  8
AME_FRZ
  5
40
  2
AME_NIL
 10
7.0
 20
3.0
 30
0.0
1001
AME_SOL
1002
{
1070
     1
1071
  2473288
1070
  1538
1070
     1
1010
1.0
1020
1.0
1030
4.0
1005
0
1005
0
1005
89
1040
0.0
1040
1.0
1070
     0
1000
MILD_STEEL
1000
0
1010
7.0
1020
3.0
1030
0.0
1010
0.0
1020
0.0
1030
1.0
1040
0.0
1002
}
  0
INSERT
  8
AME_FRZ
  5
75
  2
AME_NIL
 10
0.0
 20
0.0
 30
0.0
1001
AME_SOL
1002
{
1070
     1
1071
  2388640
1070
  1536
1070
     1
1010
8.0
1020
3.0
1030
4.0
1005
0
1005
0
1005
8A
1040
0.0
1040
1.0
1070
     0
1000
MILD_STEEL
1000
0
1010
0.0
1020
0.0
1030
0.0
1010
0.0
1020
0.0
1030
1.0
1040
0.0
1002
}
1001
AVE_INVOKE
1000
SOLAVEMESH
  0
INSERT
  8
AME_FRZ
  5
86
  2
AME_NIL
 10
1.0
 20
0.0
 30
0.0
1001
AME_SOL
1002
{
1070
     1
1071
  2463840
1070
  1536
1070
     1
1010
6.0
1020
4.0
1030
4.0
1005
0
1005
0
1005
89
1040
0.0
1040
1.0
1070
     0
1000
MILD_STEEL
1000
0
1010
1.0
1020
0.0
1030
0.0
1010
0.0
1020
0.0
1030
1.0
1040
0.0
1002
}
1001
AVE_INVOKE
1000
SOLAVEMESH
  0
INSERT
  8
AME_FRZ
  5
89
  2
AME_NIL
 10
0.0
 20
0.0
 30
0.0
1001
AME_SOL
1002
{
1070
     1
1071
  2440112
1070
   775
1070
     0
1070
     2
1005
40
1005
86
1005
0
1005
0
1005
A4
1040
0.0
1040
1.0
1070
     0
1000
MILD_STEEL
1000
0
1010
0.0
1020
0.0
1030
0.0
1010
0.0
1020
0.0
1030
1.0
1040
0.0
1002
}
  0
INSERT
  8
AME_FRZ
  5
8A
  2
AME_NIL
 10
0.0
 20
0.0
 30
0.0
1001
AME_SOL
1002
{
1070
     1
1071
  2437304
1070
   775
1070
     0
1070
     2
1005
75
1005
10
1005
0
1005
0
1005
A4
1040
0.0
1040
1.0
1070
     0
1000
MILD_STEEL
1000
0
1010
0.0
1020
0.0
1030
0.0
1010
0.0
1020
0.0
1030
1.0
1040
0.0
1002
}
  0
INSERT
  8
AME_FRZ
  5
A4
  2
AME_NIL
 10
0.0
 20
0.0
 30
0.0
1001
AME_SOL
1002
{
1070
     1
1071
  2444456
1070
  1543
1070
     1
1070
     2
1005
89
1005
8A
1005
0
1005
0
1005
1AB
1040
0.0
1040
1.0
1070
     0
1000
MILD_STEEL
1000
0
1010
0.0
1020
0.0
1030
0.0
1010
0.0
1020
0.0
1030
1.0
1040
0.0
1002
}
1001
AVE_INVOKE
1000
SOLAVEMESH
  0
INSERT
  8
AME_FRZ
  5
A5
  2
AME_NIL
 10
1.0
 20
1.0
 30
1.0
1001
AME_SOL
1004
C7CF0100F30079017801760172016A015F01510140012C011F00F5002D01F300ED009600520141012E01E0005800CE000C006001FE00A0006B01020061015301050042012F01230118010B01A90052000C019500A200BE00FC0020005401430130011900B2003101D700240119010D0198005D002F00EF00
1004
7F0073016C013F0062018400BF006D01010063015501750080002800770174016E01640156014401FB002400080057015000450132010400D90033010F00F800650118005801460134012100440035015400EB0047013601E70065003701AF0067006F01FF00400075017001660159011400480138014800
1004
2D00A8005A010A0049015F003901060025011A015A000E015E00FD00F900670110005B014A014E0082004B017900BC00710168015C014C01E4003A01DF00EA004D013B01C0002601F2004D003C0127011B01030009001C016000170028011D015C009C001E01C6000F0111001B00F00069015D014E013D01
1004
29011F011001F70030001101E10091002001120168009400130101010001FA000201F600F4002A0121011401030127002E0004013800DA00150105018A0071000601D8006F002201160107016E00D00008016C006B00170109016A0093000A01C800BD0078004F015B0070005E01250050013E01EE00A400
1004
3F011C002B015300B000000071B9871B981A040346AA52B1A1780433711E184A48A2C4786129228B11E184A48A2D931A88CE1836B608943C1B2696C112878364D2CDD01CA4644786129228B1C962828E94411E184A48A2CF0C2524C2B608943C1B2696C112878364D2CD71B602188FA6E68ED36E36CFF749
1004
FFFFFFFBA4FFFDD21BE857FE33FBA4FDD27FFFFFB8DB3FDD27FFFFFFEE93FFF7486FA15FF8CFEE93F749FFFFFBA472DC7E04E7FBA4FFFFFFFDD27FBC1294A5287727ED2FFC57A6F706E6D7B79713D37B83736BDBCB37F8BBD37B83736BDBCB8BFFF696F4DEE0DCDAF6F2CC6FFFFB4B14769B6782CDFFFF69
1004
6E5B8CDC09CFF749FFFFFFFBA4FFFEB37D0AFFC57A6F706E6D7B79713D37B83736BDBCB379BFFFED2C5DE9BDC1B9B5EDE5C5FFFB4B7A6F706E6D7B7966FF72DC62E04E7FBA4FFFFFFFDD27FBC1294A5287721BF5FF8AF4DEE0DCDAF6F2E27A6F706E6D7B7966F37FFFDA58BBD37B83736BDBCB8BFFF696F4
1004
DEE0DCDAF6F2CDFEE5B8DCC70273FDD27FFFFFFEE93FFFDCFBE857FE2BD37B83736BDBCB89E9BDC1B9B5EDE59BFC5DE9BDC1B9B5EDE5C5FFFB4B7A6F706E6D7B796637FFFDA58AF0A6C769B37FFFDA5A03948C88F0C252451623C3094914588F0C252451623C309491443C309493042B608943C1B2696694
1004
D8894833735E14D94D9FFFFFEE93FFF749FFFFFFFE33FFFFFFFFFE5367FFFFFBA4FFFDD27FFFFFFF8CFFFFFFFFFEE9101CA464069E9D0100400B11E184A48A2C4786129228B64C6A233860DACF0C2524C10AD82250F06C9A59A5363FE0A833735E0CD94D9FF3BFBA5FF3BFCEFF3BFBA5FE36B37D0AFF6963
1004
3FFFFFFFFFE5367FCEFEE97FCEFF3BFCEFEE97F8DACDF42BFDA58CFFFFFFFFFEE9101CA4644786129228B11E184A48A2C4786129228B64C6A233860DAC47861292288C112878364D2CD29B109EFA6E28D11B29B3FDD27FFFFFFFFEE93FFFFFC67FFFFFFFFFC764594D9FEE93FFFFFFFFF749FBA4FFFF19FF
1004
FFFFFFFF29B3FDD27FFFFFFFFEE93F749FFFE33FFFFFFFFFBA440729197343C65CEA7877223598D4E26D1CB11E184A48A2D82250F06C9FCB608943C1B2696C112878364D2CD29B012387D37359E0B29B3FE77F9DFDD2FF74BFE77F9D37DFCBFDA5FED2C67FFFFFFFFFCA6CFF9DFE77F74BFDD2FF9DFE74DF
1004
7F2FF697FB4B19FFFFFFFFFDD2203948C80D3D3A0200B9B58E4B141474A208F0C2524516C98D44670C1B5B044A1E0D934B608943C1B26966B8DB127F9F4DCD2C5B8DB3FDD27FFFFFFEE93FCDF7F2CDF42BFF19FDD27EE93FFFFFDC6D9FEE93FFFFFFF749FE6FBF966FA15FF8CFEE93F749FFFFFBA472DC7E
1004
04E7FBA4FFFFFFFDD27FB3DA94A529CFD7FB4BFF15E9BDC1B9B5EDE5C4F4DEE0DCDAF6F2CDFE2EF4DEE0DCDAF6F2E2FFFDA5BD37B83736BDBCB31BFFFED2C56782CB166FFFFB4B72DC66E04E7FBA4FFFFFFFDD27FFE36B37D0AFFC57A6F706E6D7B79713D37B83736BDBCB37F8BBD37B83736BDBCB8BFFF6
1004
96F4DEE0DCDAF6F2CC6FFFFB4B14B16F066CDFFFF696E5B8C5C09CFF749FFFFFFFBA4FF67B5294A539FACDFAFFC57A6F706E6D7B79713D37B83736BDBCB379BFFFED2C5DE9BDC1B9B5EDE5C5FFFB4B7A6F706E6D7B7966FF72DC6E638139FEE93FFFFFFF749FE6FA4B73EFA15FF8AF4DEE0DCDAF6F2E27A6
1004
F706E6D7B7966F37FFFDA58BBD37B83736BDBCB8BFFF696F4DEE0DCDAF6F2CDFE80E533A23C309491458E4B141474A208F0C25245167861292615B044A1E0D934B11E184A48A21A53631A75F4DD197889B29B3FDD27FFFFF3BFBA5FF3BFBA437D0AFFC67FFFFFFFFFC09B29B3FFFDD27FFEE93FFFFFFFFFC
1004
67FFFFFFFFFD9E8594D9FFFEE93FFF749FFFFFBA4FFFF19FFFFFFFFFF1A4594D9FEE93FFFFF9DFDD2FF9D37DFCB37D0AFFC67FFFFFFFFFCA6CFF749FFFFFCEFEE97FCE9BEFE59BE857FE33FFFFFFFFFBA4407299D11E184A48A2C7258A0A3A5111ACC6A71368E59E184A49856C112878364D2D82250F06C9
1004
A59A536349F7D374658A6CA6CFF749FFFFFFFBA4FFFDD21BE857FB4B19FFFFFFFFFF78E9B29B3FDD2FF9DFE77F9DFDD2FF9DFC6D66FA15FED2C67FFFFFFFFFDE8594D9FEE97FCEFF3BFCEFEE97FCE9BEFE5FED2FF69633FFFFFFFFFEF1F165367FBA4FFFFFFFDD27F9BEFE59BE857FB4B19FFFFFFFFFF29B
1004
3FDD27FFFFFFEE93FCDF7F2CDF42BFDA58CFFFFFFFFFEE91FAFC11E184A48A2C7258A0A3A5111ACC6A71368E59E184A49856C112878364D2D82250F06C9A5A4C54CA690130CF90F62A65348098732B146A71EDE26F10EA51A08623EB49F7DC504311F5A4FBE9B9B8D4E7FBA4FFFFFFFDD27FFEE90DF42BFD
1004
A5A33FBA4FDD224C54CA690130CF90F62A65348098732B7EBF04786129228B1C962828E94411E184A48A2C47861292288786129260856C112878364D2FFFF69628138C6F08FA69AA502188FA89483C544A4182188FA6E6E04E7FBA4FFFFFFFDD27FFF9BE857FE2FFFED2DFAFC7343C65CEA7877223598D4E
1004
26D1CB11E184A48A2CF0C2524C2B608943C1B2696C112878364D2FFFF69628138F02F0F419AA51A08623E82470FB8A08623E82470FA6E6E04E7FBA4FFFFFFFDD27FFEE93F697FE2FFFED2DFAFC11E184A48A2C7258A0A3A5104786129228B3C3094930AD82250F06C9A588F0C2524511262A6534809867C8
1004
7B15329A404C39958A3538D3C51F7354A04311F58D3AFB8AC69D7D04311F4DCDC6A73FDD27FFFFFFEE93FFF7486FA15FFA33FBA4FDD224C54CA690130CF90F62A65348098732B7EBF04786129228B11E184A48A2D1ACC6A71368E588F0C2524510F0C2524C10AD82250F06C9A59BE8F2CDF479050271EDE1
1004
C83D4A3512906D27DF71512906D27DF4DCDC09CFFFFFF749FBA5FFFFFF9BE8F27ED2C537D1E59BE8F23F5F823C3094914588F0C252451623C3094914588F0C252451047861292288C112878364D2FF69C9FCE8A04E06F0083D4A351290684F7DC544A41A13DF4DCDC09CFFFF74BFFFDD2FFFFFFFFFFC5FDA
1004
727F3AFD7E08F0C252451623C3094914588F0C252451623C309491443C309493042B11E184A48A21BE8F2CDF479050271E328F41EA51A89483634EBEE2A2520D8D3AFA6E6E04E7FFFFFBA5FEE97FFFFFE6FA3C9FE29BE8F2CDF4791FAFC01A7A740401002C4786129228B46B31A9C4DA396C98D44670C1B5
1004
9E184A498215B044A1E0D934B37D0B93F9D1409CBC3507A946BFE0A83693EFB8AFF82A0DA4FBE9B9B8139FFFFFEE93F749FFFFF8DACDF42BFDA58A6FA1727F3AFD7E00D3D3A02008016392C5051D28823C30949145B2635119C306D6786129260856C112878364D2FFFF69628138F02808334D529FF0541A
1004
4FF3EE2A4FF3EBFE0A8337370273FDD27FFFFFFEE93FFF1B59BE857FE2FFFED2DFAFC01A7A740401002C4786129228B11E184A48A2D931A88CE1836B11E184A48A23044A1E0D934BFEE4FEB1409C7978E3EEA51AFF82A0D09EFB8AFF82A0D09EFA6E6E04E7FFFBA5FFFEE93FFFFF1B5FFFF58BFDC9FD6FD7
1004
E00D3D3A0200801623C3094914588F0C2524516C98D44670C1B59E184A49821588F0C2524513FCDF42B1409C6378DBEEA51AFF82A0D8D3AFB8AFF82A0D8D3AFA6E6E04E7FFFFFBA5FEE93FFFFF1B59BE857FE2FF9BE856FD7E08F0C252451623C30949145A3598D4E26D1CB64C6A233860DAC47861292288
1004
C112878364D2FF69C9FB4B1409C78B3C69F7528D427BEB49F7DC5427BEB49F7D37370273FFFFFDD27FFEE97FFFB4BFFFDA58BFB4E4FDA5BF5F823C3094914588F0C252451623C30949145B2635119C306D623C3094914411E184A48A27ED393F6962813885E30FBA946A13DF58D3AFB8A84F7D634EBE9B9B
1004
8139FFFFFEE97FFFBA5FFFED2FFFFC5FDA727ED2DFAFC7343C65CEA7877223598D4E26D1CB46B31A9C4DA396C112878364FE5B044A1E0D934B608943C1B2697FE6FA4B1409C7893C5DF7528D048E1F5A4FBEE282470FAD27DF4DCDC09CFFFFFF749FFFBA4FE74DF7F2FF697FB4B17FCDF496FD7E00D3D3A0
1004
200B9B5A3598D4E26D1CB11E184A48A2D82250F06C9FCB608943C1B2696C112878364D2FFFF69628138F08F6FA6A94682470FA93FCFB8A091C3EA4FF3E9B9B8139FEE93FFFFFFF749FE6FBF97FB4BFF17FFF696FD7E39A1E32E753C3B911ACC6A71368E588F0C2524516C112878364FE5B044A1E0D934B11
1004
E184A48A21BE9393F9D1409C1D878ABEEA51A091C3EB1A75F71412387D634EBE9B9B8139FFFFFEE97FFFBA4FF37DFCBFDA5FF8A6FA4E4FE75FAFC01A7A740401736B1C962828E94446B31A9C4DA396C98D44670C1B5B044A1E0D934B608943C1B2696E46400B9E6239C1A5262A6534809867C828D4E3C786
1004
8DF7528D49FE7D693EFB8A93FCFAD27DF4DCDC6A73FDD27FFFFFFEE93FCDF7F2CDF42BFDA5A33FBA4FDD23919002E7988E7069498A994D202619F23F5F8034F4E80802E6D6392C5051D28823C30949145B2635119C306D6C112878364D2C47861292288E46400B9E6239C1A5262A6534809867C828D4E23D
1004
11FCD52927F9F58D3AFB8AC69D7D49FE7D37371A9CFF749FFFFFFFBA4FF37DFCB37D0AFFD19FDD27EE91C8C80173CC473834A4C54CA690130CF90703578623
1005
A6
  0
INSERT
  8
AME_FRZ
  5
A6
  2
AME_NIL
 10
1.0
 20
1.0
 30
1.0
1001
AME_SOL
1004

1005
0
  0
INSERT
  8
AME_FRZ
  5
B3
  2
AME_NIL
 10
4.0
 20
2.0
 30
-6.0
210
0.0
220
-1.0
230
0.0000000000000001
1001
AME_SOL
1002
{
1070
     1
1071
  2437936
1070
  1538
1070
     1
1010
1.0
1020
1.0
1030
2.0
1005
0
1005
0
1005
1AB
1040
0.0
1040
1.0
1070
     0
1000
MILD_STEEL
1000
0
1010
4.0
1020
2.0
1030
-6.0
1010
0.0
1020
-1.0
1030
0.0
1040
0.0
1002
}
  0
INSERT
  8
AME_FRZ
  5
B4
  2
AME_NIL
 10
1.0
 20
1.0
 30
1.0
1001
AME_SOL
1004
C7CF0100930049014801460142013A012D011D0121005F001E017500DF002E011F014400100103000600200111014D00A800120196000601F500F3003B012F01210113010701EF00EE000801ED00AF00140109015200A4000A01010100010D000201F7001900BC00300122018000670023014E00EA004301
1004
3C013101240115010B010301A90078000401660065004A000500BF00FF003D013201250125001601C000A0004000330102007F00470144013E0134010C001400350150002601FB001701FE0084003F01360127011801FC001800190164000C011000F20028011A010D0172003D000E013400D0001B010F01
1004
B00005013C0004002D003F004501400137010A000100F000410138012901820028002A0179005B0039012B01580070002C01E4001C010900540000001E143C28804CCD40A52E241382ACF45229E830D25148A7A0C34939C99A7154548945229E830D5A2914F4186AD80D2AC2C8CD67A6539D45229E830D25
1004
148A7A0C34939C99A7154548945229E830D5A2914F4186AD80D2AC2C8CD663C7484C59ECC6F1E3BFDABFFFFFFFDABFFFFFFFF23FDABFDABFFFFFF1E3BFDABFFFFFFFDABFFFFFFFF23FDABFDABFFFFFDAB0C1FE1C0BFDABFFFFFFFDABFF67AAD502017F6AFFCEBB15F3A70F5E03762BE74E1EBC03FE77762B
1004
E74E1EBC07FFFCD762BE74E1EBC02CFFFFE69D1BC6F67FFFF34307B3C3817FB57FFFFFFFB57FFFB57FFFE75D8AF9D387AF01BB15F3A70F5E01FF3BBB15F3A70F5E03FFFE6BB15F3A70F5E0167FFFF34E8DE37B3FFFF9A183CEE1C0BFDABFFFFFFFDABFF67AAD502017F693FE75D8AF9D387AF01BB15F3A70
1004
F5E01FF3BBB15F3A70F5E03FE33F9AEC57CE9C3D78059FFC67F34E8DE37B3FF8CFE6860F0AE1C0BFDABFFFFFFFDABFFFDA4B3D56A82AB5FE75D8AF9D387AF01BB15F3A70F5E01FF3BBB15F3A70F5E03FFFE6BB15F3A70F5E0167FFFF34E8DE37B3FFFF9A994ECD148A7A0C34945229E830D24E72669C5515
1004
225148A7A0C3568A453D061AB39C99A71545496CD3C72B15462CF664174F1DFED5FFFFFF19FB49FE33FFFFFC8FFFFFFFFFFD3C77FB57FFFFFC67ED27F8CFFFFFF23FFFFFFFFFDAB4CA7668A453D061A4A2914F4186922211C607C3C55A2914F4186AD148A7A0C356C0695616466B34F1CA65498B3D9907D3
1004
C77FB57FFFFFFFB57FFFFFFFCD23FFFFFFFFFF4F1DFED5FFFFFFFED5FFFFFFFF348FFFFFFFFFF6AC4A2145229E830D25148A7A0C3491108E303E1E2AD148A7A0C3568A453D061AB6034AB0B2335CAB847F4C01F8C9CAB847F4C01F8D3AA008811239E52B39098A9952639D9098A995262CF67A802FF6AFFF
1004
FFFFF6AFFFFFFFF9AADFF6AFF6ADCAB847F4C01F8C9CAB847F4C01F8D12885148A7A0C34945229E830D24E72669C5515225148A7A0C3568A453D061AB39C99A71545496E55C23FA600FC64E55C23FA600FC69D50046426B9ECCA59098AB154639D562A8C64262CF67A802FF6AFFFFFFFF6AFFFFFFFFD5BFE
1004
D5FED5B95708FE9803F19395708FE9803F1A27A80998
1005
B5
  0
INSERT
  8
AME_FRZ
  5
B5
  2
AME_NIL
 10
1.0
 20
1.0
 30
1.0
1001
AME_SOL
1004

1005
0
  0
INSERT
  8
0
  5
1AB
  2
*U10
 10
0.0
 20
0.0
 30
0.0
1001
AME_SOL
1002
{
1070
     1
1071
  2670856
1070
  1543
1070
     1
1070
     2
1005
B3
1005
A4
1005
0
1005
1AC
1005
0
1040
0.0
1040
1.0
1070
     0
1000
MILD_STEEL
1000
0
1002
}
1001
AVE_INVOKE
1000
SOLAVEMESH
  0
INSERT
  8
AME_FRZ
  5
1AC
  2
AME_NIL
 10
1.0
 20
1.0
 30
1.0
1001
AME_SOL
1004
C7CF0100FF007F017E017C0178017001020065018400540150004301EA002D01880009007101660155010500820056017900E40067015701700044012E019100D9002F014D001E01B400ED005801450130011F013800DA002001150116001B001601230093005800BC00790172013F00680159014601EE00
1004
31010400A8005C005A0108008000730169015B01750047013201DD00F80024005C017F0048013301F50006003401FC002101BE001700FF007D017A01740101006A011000180075016B015D010A00490135019800220148002900FB005E014A0136010F0023019C00170107001500370124011801B200C600
1004
19010C010B0011000D01FD00F70025011A010E01E100D8000F01D0000101000119001B01100102011A0022000301FA008600110104013600370005014500470014006C0128005F014B017800380126011C01120106019000D6000701D1009200130108015200C8000901C200B0001F00E7004C0139011C00
1004
EB003A0127016000B10028013C00CB007B01760140006D0160014D01DF0027004E014E003B01AF00E80061014F013C01D70029011D0114010A01AD009D000B01A9006800E000C100960050013D010300C0003E01A400440077016E01620151013F012D00540040012A018700F2002B01CE00EF00FE00F000
1004
6F016301A00052015F004101200021006401BF0053014201A6002C01F900F3000C0000000E6E07371B24A689B8E73EBA4557514702CF1C9D309F01678E4E984F80B3C7274C27CAA853390DA21ECC54E18E69FD426C5618E69FD424C4753714A502CF1C9D309F2A87C0B8CD83900B3C7274C27CB3C7274D5D
1004
8AC31CD3FA8498AC31CD3FA849888735166C34D1D11CE8C39ABFDD27FFFFFFEE93FFF7488F9667F88FEE93F749FFFFFE1CD5FEE93FFFFFFF749FFFBA447CB33FC47F749FBA4FFFFFDD20D839B9DB4C7FBA4FFFFFFFDD27FFFAAAFCB33FC12A3C58A123171A0A8F162848C5C7AFF072A3C58A123171A3FFF4
1004
985478B142462E3D23FFFE930132A31CE8D1FFFF498360E076D31FEE93FFFFFFF749FEAB0739CE771C80FD9FE0951E2C50918B8D05478B142462E3D7A3FFFE9301CA8F162848C5C68FFFD26151E2C50918B8F5FE360E476D31FEE93FFFFFFF749FFFD88F9667F825478B142462E34151E2C50918B8F5E8FF
1004
FFA4C072A3C58A123171A3FFF4985478B142462E3D7F8D83BDB4C7FBA4FFFFFFFDD27FAAC1CE739DC727E933FC12A3C58A123171A0A8F162848C5C7AFF072A3C58A123171A3FFF4985478B142462E3D23FFFE93011CE8CDE068FFFFA4C53714A502CF1C9D309F01678E4E984F80B3C7274C27C059E393A61
1004
11678E4E9AB2CC5618E69FD424C4426A1D6B99D1D132A309ABFFFFFDD27FFEE93FFFFFFFC47FFFFFFFFFC26AFFFFFF749FFFBA4FFFFFFFF11FFFFFFFFFDD229B8A528DED6977ECD8BAB00B3C7274C27C059E393A613E5053390DA21ECC59E393A6ACB3158639A7F50931109AABF99D1D1362309ABFE5FF75
1004
F7F2FFCBFF2FFBAFBF7B311F2CCFD2608FFFFFFFFFF84D5FF2FFBAFBF97FE5FF97FDD7DFBD988F9667E93047FFFFFFFFF748A6E294A059E393A613E02CF1C9D309F01678E4E984F9414CE436887B300B3C7274C222B0C734FEA1262213524BE99D1C17E9184D5FEE93FFFFFFFFF749FFFFFE23FFFFFFFFFE
1004
D98309ABFDD27FFFFFFFFEE93F749FFFE23FFFFFFFFFE1357FBA4FFFFFFFFFDD27EE93FFFC47FFFFFFFFF748A6E288AF86845526B38E41ABD22BB5EAA18059E393A613E5618E69FD42F18AC31CD3FA8498AC31CD3FA8498884D41E7E34D1D1378184D5FF2FFCBFEEBEFDD7DFCBFF2E8FAF19FA4CFD2608FF
1004
FFFFFFFF84D5FEEBEFE5FF97FE5FEFC1A2FDFBA4FD2623E933FB047FFFFFFFFF748A6E294A50D6977ECD86FB1543E05C66C1C8059E393A613E554299C86D10F662B0C734FEA1262B0C734FEA126221CD4D76CDA68E88E66E61CD5FEE93FFFFFFF749FE0FAF188F9667F88FEE93F749FFFFFE1CD5FEE93FFF
1004
FFFF749FE0FAF188F9667F88FEE93F749FFFFFBA41B07373B698FF749FFFFFFFBA4FF47D362AAFCB33FC12A3C58A123171A0A8F162848C5C7AF47FFFD2603951E2C50918B8D1FFFA4C2A3C58A123171EBFC6C1C0EDA63FDD27FFFFFFEE93FD558E739CE39580FD9FE0951E2C50918B8D05478B142462E3D7
1004
A3FFFE9301CA8F162848C5C68FFFD26151E2C50918B8F5FE360E476D31FEE93FFFFFFF749FFFBD988F9667F825478B142462E34151E2C50918B8F5FE0E5478B142462E347FFE930A8F162848C5C7A47FFFD2602399B99B11A3FFFE9306C1DEDA63FDD27FFFFFFEE93FD558E739CE3959FA4CFF04A8F16284
1004
8C5C682A3C58A123171EBFC1CA8F162848C5C68FFFD26151E2C50918B8F48FFFFA4C04DE06399B9A3FFFE9314DC536C0B3C7274C27CAA1F02E3360E402CF1C9D309F2CF1C9D35762B0C734FEA12601678E4E98444426A521916A394ABA3461357FBA4FFFFFE5FF75F7F2FFBA447CB33FC47FFFFFFFFFD574
1004
8C26AFFFF749FFFBA4FFFFFFFFFF11FFFFFFFFFF5D30309ABFFFDD27FFEE93FFFFF749FFFE23FFFFFFFFFEAB96E61357FBA4FFFFFE5FF75F7F2E0FAF188F9667F88FFFFFFFFFF84D5FEE93FFFFF97FDD7DFCB83EBC623E599FE23FFFFFFFFFBA453714DB02CF1C9D309F2A87C0B8CD83906AF48AED7AA862
1004
CF1C9D35762B0C734FEA1262B0C734FEA126221355A16A394A34461357FBA4FFFFFFFDD27FFEE911F2CCFD2608FFFFFFFFFFAABA309ABFDD7DFCBFF2FFCBFEEBEFE5FF7B311F2CCFD2608FFFFFFFFFFBE061357FBAFBF97FE5FF97FDD7DFCBA3EBC67E933F49823FFFFFFFFFEF76E61357FBA4FFFFFFFDD2
1004
7F83EBC623E599FA4C11FFFFFFFFFF09ABFDD27FFFFFFEE93FC1F5E311F2CCFD2608FFFFFFFFFEE914DC504717A4576BD54CC1C5E915DAF550C5F0D08AA4D671C8AC31CD3FA856C54E18E69FD426C59E393A6ACB3110E6A1C1B2AD4745C46E61CD5FEE93FFFFF97FBF068BF7EE93F4988FA6CFEC11FDD27E
1004
E93FFFFFC39ABFDD27FFFFF2FF7E0D17EFDD27E9311F4D9FD823FBA4FDD27FFFFEE906C1DEDA63FDD27FFFFFFDF8345FBF748FD1CE739D50C47D3623E5980951E2C509183AD05478B142460EBD7A3A3F623E9B01CA8F162848C1D68FF47D36151E2C509183AF48FFE8FD80B88DCDC46E68FFE8FD8360E476
1004
D31FEE93FFFFFFEFC1A2FDFBA4FD5B11F4D9FD80951E2C509183AD05478B142460EBD7A3A3F623E9B01CA8F162848C1D68FF47D36151E2C509183AF48FFE8FD80B88DCDC46E68FFE8FD8360E076D31FEE93FFFFFFEFC1A2FDFBA47E8E739CEA8623E9B3F7480951E2C509183AD05478B142460EBD7A3A3F6
1004
23E9B01CA8F162848C1D68FE5D1F4D85478B142460EBD23FF2E8FD80B88DCDC46E68FFCBA3F60D839B9DB4C7FBA4FFFFFFFBF068BF7EE911F2CC47D3625FB012A3C58A123075A0A8F162848C1D7AF4747EC47D3603951E2C509183AD1FE8FA6C2A3C58A123075E91FFD1FB01711B9B88DCD1FFD1FB14DC54
1004
4717A4576BD54CC1BDAD2EFD9B0DF62F86845526B38E45618E69FD42B62A70C734FEA1362CF1C9D356598884D51C8A5D1D155DB7309ABFDD27FFFFFFDF8341FFBAFBF4988FA6CFEC11FFFFFFFFFF09ABFDD27FFFFFFDF8341FFBAFBF4988FA6CFEC11FFFFFFFFFDD2378A00B3C7274C27C373E05C66C1C83
1004
57A4576BD5431678E4E9ABB158639A7F5093158639A7F5093137037DC2A6F77E88B381BEE1537B87D809B8C2F8A52DCE744B361A7685B8259B0D3B42D47473718FF749FFFFFFFBA4FFFDD223E599FA4C297F749FBA44DC0DF70A9BDDFA22CE06FB854DEE1F6378A17C3422A9359C720D5E915DAF550C02CF
1004
1C9D309F2CF1C9D35762B0C734FEA1262B0C734FEA1267FFE93016D30A437D4BA273A259B0D30F3F1A78259B0D30F3F1A68E8EDA63FDD27FFFFFFEE93FFF749FA4CFF07FFF498DE2802CF1C9D309F0DCF81719B07201678E4E984F80B3C7274C222CF1C9D356598AC31CD3FA8499FFFA4C05B4C2E95352E8
1004
A273966C34C75AE67C11D6B99CB361A68E8EDA63FDD27FFFFFFEE93FFFD1F2CCFF07FFF498DE2802CF1C9D309F0DCF81719B07201678E4E984F9678E4E9ABB158639A7F509300B3C7274C2226E06FB854DEEFD1167037DC2A6F70FB013718529570A5F44E72CD869A90C8B70548645A59B0D347473718FF7
1004
49FFFFFFFBA4FFFDD223E599FE52FEE93F7489B81BEE1537BBF4459C0DF70A9BDC3EC6F1401678E4E984F80B3C7274C27C357A4576BD54300B3C7274C222CF1C9D356598AC31CD3FA84988F995F23E65202DA614A1CAA5F39D11D6B99ED0B70475AE67B42D47476D31FFFFFEE93F75F7FFFFFA3E6527E930
1004
147CCAF91F3291BC50059E393A613E02CF1C9D309F01678E4E984F80B3C7274C2201678E4E98445618E69FD424CFD26EFF2E0B6985C5E297CE74475AE67497D33E08EB5CCE92FA6747476D31FFFEEBEFFFDD7DFFFFFFFFFE0FE9377F976F1401678E4E984F80B3C7274C27C059E393A613E02CF1C9D3088B
1004
3C7274D596601678E4E984447CCAF91F329016D30381869E73A23AD733A90C8B70475AE67521916A3A3B698FFFFFF75F7EEBEFFFFFF47CCA4FF051F32BE47CCA46F141435A5DFB362EAC02CF1C9D309F0D5E915DAF550C5053390DA21ECC59E393A6ACB3158639A7F509311F2CDDFE5C16D30BA7711A79CE
1004
8D7F33DA16E0D7F33DA16A3A3B698FFFFFF749FBA4FFFFFDECC47CB33F4980A3E59BBFCBB78A0A1AD2EFD9B17560DCF81719B07201678E4E984F9414CE436887B31678E4E9AB2CC5618E69FD424CFFFD2602DA60CAD9069A289CF5FCCED76CDA782D76CDA75FCCE8E8EDA63FDD27FFFFFFEE93FFF7B311F2
1004
CCFF07FFF498DE28286B4BBF66C5D58059E393A613E02CF1C9D309F28299C86D10F6601678E4E98445618E69FD424CFEDDFEC05B4C3C6C8B4F39D1AFE67497D33E0D7F33A4BE99D1D1DB4C7FFFBAFBFFF749FFFFFBD99FFFD80FF6EFF6378A0A1AD2EFD9B175601678E4E984F80B3C7274C27CA0A6721B44
1004
3D98B3C7274D596601678E4E9844FF47CB3016D30D935234F39D1AFE67521916E0D7F33A90C8B51D1DB4C7FFFFFBAFBF749FFFFFBD988F9667F83FE8F966378A00B3C7274C27C059E393A613E1ABD22BB5EAA18A0A6721B443D98059E393A611158639A7F50933F49BBFA4C05B4C3C55969E73A292FA67B4
1004
2DC1497D33DA16A3A3B698FFFFFF749FFFBAFBFFF499FFFA4C07F49BBFA4C6F1401678E4E984F80B3C7274C27C059E393A613E5053390DA21ECC02CF1C9D3088059E393A6113F49BBFA4C05B4C3D9742D3CE74525F4CEA4322DC1497D33A90C8B51D1DB4C7FFFFFBAFBFFF75F7FFE933FFFC1FD26EFE931B
1004
C50BE1A11549ACE3906AF48AED7AA860D5E915DAF550C5618E69FD42F18AC31CD3FA8498AC31CD3FA8499FE8FA6C05B4C14D569A79CE8879F8D3B42DC10F3F1A7685A8E8EDA63FFFFFDD27FFEE93FC1F5E33F499FA4C07FD1F4D8DE281BDAD2EFD9B0DF60D5E915DAF550C02CF1C9D309F2B0C734FEA178C
1004
5618E69FD424C5618E69FD424CFFFD2602DA61565744D344E7443CFC69B5DB369E0879F8D36BB66D347476D31FEE93FFFFFFF749FE0FAF19FA4CFF07FFF498DE281C5E915DAF55330717A4576BD54317C3422A9359C722B0C734FEA15B158639A7F50931678E4E9AB2CC59C0DF70A9BDC3EDD59C0DF70A9B
1004
DC3EC04DC61AED4B744E70F3F1A6383655B82383655A1E7E34D1D1CDC63FDD27FFFFF2FF7E0D17EFDD27E9311F499FD852FEE93F748B381BEE1537B87DBAB381BEE1537B87D8DE285F0D08AA4D671C8357A4576BD54300B3C7274C27CAC31CD3FA85E3158639A7F509300B3C7274C2223E9B77F9705B4C2E
1004
8157EB739D10F3F1A6A4322DC10F3F1A6A4322D47476D31FFFFFEEBEFFFDD27F83EBC67E933FC147D36EFF2EDE281BDAD2EFD9B0DF60DCF81719B0720D5E915DAF550C5053390DA21ECC5618E69FD424C5618E69FD424C6EA85D6AA54A2A6F26E06FB854DEEFD101371862AF96E73A2D76CDA7685B82D76C
1004
DA7685A8E8E6E31FEE93FFFFFFF749FE0FAF188F9667E930A5FDD27EE91BAA175AA9528A9BC9B81BEE1537BBF446F140DED6977ECD86FB06E7C0B8CD83900B3C7274C27CA0A6721B443D98AC31CD3FA8498059E393A6111BAA175AA9528A9BC9B81BEE1537BBF4404DC61569578B744E76BB66D3521916E0
1004
A90C8B5AED9B4D1D1CDC63FDD27FFFFFFEE93FC1F5E311F2CCFF297F749FBA46EA85D6AA54A2A6F26E06FB854DEEFD11BC5038BD22BB5EAA660DED6977ECD86FB17C3422A9359C722B0C734FEA15B1538639A7F509B1678E4E9AB2CC59C0DF70A9BDC3EDD59C0DF70A9BDC3EC04DC61255EADD139C706CAB
1004
63914BE0C722971C1B2AD47473718FF749FFFFFCBFDF8345FBF749FA4C47D367F614BFBA4FDD22CE06FB854DEE1F6EACE06FB854DEE1F62ADCDCAB6D
1005
1AD
  0
INSERT
  8
AME_FRZ
  5
1AD
  2
AME_NIL
 10
1.0
 20
1.0
 30
1.0
1001
AME_SOL
1004

1005
0
  0
ENDSEC
  0
EOF
