600 0 1 0           
81 GICL ACIS Healer - Source: /gicl/data5/repository/Heriot_Watt/ex26/ex26.sat - 6 0 18 ACIS 6.0.3 Solaris 24 Sat Apr 13 23:38:45 2002 
1 9.999999999999999547e-07 1.000000000000000036e-10 
body $-1 $1 $-1 $-1 #
lump $-1 $-1 $2 $0 #
shell $-1 $-1 $-1 $3 $-1 $1 #
face $-1 $4 $5 $2 $-1 $6 forward single #
face $-1 $7 $8 $2 $-1 $9 forward single #
loop $-1 $-1 $10 $3 #
plane-surface $-1 20 0 0 0 0 1 1 0 0 forward_v I I I I #
face $-1 $11 $12 $2 $-1 $13 forward single #
loop $-1 $-1 $14 $4 #
plane-surface $-1 20 -20 10 0 1 0 0 0 1 forward_v I I I I #
coedge $-1 $15 $16 $17 $18 reversed $5 $-1 #
face $-1 $19 $20 $2 $-1 $21 forward single #
loop $-1 $-1 $22 $7 #
plane-surface $-1 0 0 10 1 0 0 0 0 -1 forward_v I I I I #
coedge $-1 $23 $24 $25 $26 reversed $8 $-1 #
coedge $-1 $27 $10 $28 $29 reversed $5 $-1 #
coedge $-1 $10 $27 $24 $30 reversed $5 $-1 #
coedge $-1 $31 $32 $10 $18 forward $33 $-1 #
edge $-1 $34 -20 $35 20 $17 $36 forward 7 unknown #
face $-1 $37 $38 $2 $-1 $39 forward single #
loop $-1 $-1 $40 $11 #
plane-surface $-1 20 20 10 0 -1 0 0 0 -1 forward_v I I I I #
coedge $-1 $41 $42 $43 $44 reversed $12 $-1 #
coedge $-1 $45 $14 $46 $47 reversed $8 $-1 #
coedge $-1 $14 $45 $16 $30 forward $8 $-1 #
coedge $-1 $42 $41 $14 $26 forward $12 $-1 #
edge $-1 $48 -10 $49 10 $25 $50 forward 7 unknown #
coedge $-1 $16 $15 $42 $51 reversed $5 $-1 #
coedge $-1 $40 $43 $15 $29 forward $20 $-1 #
edge $-1 $52 -20 $34 20 $28 $53 forward 7 unknown #
edge $-1 $35 -20 $49 20 $24 $54 forward 7 unknown #
coedge $-1 $55 $17 $45 $56 forward $33 $-1 #
coedge $-1 $17 $57 $40 $58 forward $33 $-1 #
loop $-1 $-1 $31 $59 #
vertex $-1 $18 $60 #
vertex $-1 $18 $61 #
straight-curve $-1 40 0 0 0 -1 0 I I #
face $-1 $62 $63 $2 $-1 $64 reversed single #
loop $-1 $-1 $46 $19 #
plane-surface $-1 0 0 20 0 0 1 1 0 0 forward_v I I I I #
coedge $-1 $65 $28 $32 $58 reversed $20 $-1 #
coedge $-1 $25 $22 $66 $67 reversed $12 $-1 #
coedge $-1 $22 $25 $27 $51 forward $12 $-1 #
coedge $-1 $28 $65 $22 $44 forward $20 $-1 #
edge $-1 $68 -10 $52 10 $43 $69 forward 7 unknown #
coedge $-1 $24 $23 $31 $56 reversed $8 $-1 #
coedge $-1 $66 $70 $23 $47 forward $38 $-1 #
edge $-1 $71 -30 $48 10 $46 $72 forward 7 unknown #
vertex $-1 $47 $73 #
vertex $-1 $51 $74 #
straight-curve $-1 0 -20 10 0 0 -1 I I #
edge $-1 $49 -20 $52 20 $42 $75 forward 7 unknown #
vertex $-1 $29 $76 #
straight-curve $-1 20 20 0 1 0 0 I I #
straight-curve $-1 20 -20 0 -1 0 0 I I #
coedge $-1 $77 $31 $70 $78 reversed $33 $-1 #
edge $-1 $35 -5 $71 15 $31 $79 forward 7 unknown #
coedge $-1 $32 $80 $81 $82 reversed $33 $-1 #
edge $-1 $83 -15 $34 5 $32 $84 forward 7 unknown #
face $-1 $-1 $33 $2 $-1 $85 reversed single #
point $-1 40 20 0 #
point $-1 40 -20 0 #
face $-1 $86 $87 $2 $-1 $88 reversed single #
loop $-1 $-1 $89 $37 #
plane-surface $-1 0 0 -20 0 0 1 1 0 0 forward_v I I I I #
coedge $-1 $43 $40 $90 $91 reversed $20 $-1 #
coedge $-1 $90 $46 $41 $67 forward $38 $-1 #
edge $-1 $48 -20 $68 20 $66 $92 forward 7 unknown #
vertex $-1 $67 $93 #
straight-curve $-1 0 20 10 0 0 -1 I I #
coedge $-1 $46 $94 $55 $78 forward $38 $-1 #
vertex $-1 $78 $95 #
straight-curve $-1 10 -20 20 -1 0 0 I I #
point $-1 0 -20 20 #
point $-1 0 -20 0 #
straight-curve $-1 0 0 0 0 1 0 I I #
point $-1 0 20 0 #
coedge $-1 $96 $55 $97 $98 forward $33 $-1 #
edge $-1 $99 -40 $71 -20 $55 $100 forward 7 unknown #
straight-curve $-1 40 -20 5 0 0 1 I I #
coedge $-1 $57 $96 $101 $102 reversed $33 $-1 #
coedge $-1 $103 $90 $57 $82 forward $38 $-1 #
edge $-1 $83 20 $104 40 $57 $100 forward 7 unknown #
vertex $-1 $58 $105 #
straight-curve $-1 40 20 5 0 0 -1 I I #
plane-surface $-1 40 0 0 -1 0 0 0 0 1 forward_v I I I I #
face $-1 $106 $107 $2 $-1 $108 reversed single #
loop $-1 $-1 $109 $62 #
plane-surface $-1 0 -40 0 0 1 0 0 0 1 forward_v I I I I #
coedge $-1 $110 $111 $96 $112 forward $63 $-1 #
coedge $-1 $81 $66 $65 $91 forward $38 $-1 #
edge $-1 $68 -10 $83 30 $90 $113 forward 7 unknown #
straight-curve $-1 0 0 20 0 1 0 I I #
point $-1 0 20 20 #
coedge $-1 $70 $114 $115 $116 forward $38 $-1 #
point $-1 40 -20 20 #
coedge $-1 $80 $77 $89 $112 reversed $33 $-1 #
coedge $-1 $115 $117 $77 $98 reversed $87 $-1 #
edge $-1 $99 -20 $118 20 $77 $119 forward 7 unknown #
vertex $-1 $78 $120 #
straight-curve $-1 40 0 20 0 1 0 I I #
coedge $-1 $121 $122 $80 $102 forward $123 $-1 #
edge $-1 $104 -20 $124 20 $80 $125 forward 7 unknown #
coedge $-1 $114 $81 $122 $126 forward $38 $-1 #
vertex $-1 $82 $127 #
point $-1 40 20 20 #
face $-1 $59 $123 $2 $-1 $128 reversed single #
loop $-1 $-1 $129 $86 #
plane-surface $-1 -40 0 0 1 0 0 0 0 -1 forward_v I I I I #
coedge $-1 $117 $115 $130 $131 forward $87 $-1 #
coedge $-1 $132 $89 $117 $133 forward $63 $-1 #
coedge $-1 $89 $132 $121 $134 forward $63 $-1 #
edge $-1 $124 -40 $118 40 $96 $135 forward 7 unknown #
straight-curve $-1 10 20 20 1 0 0 I I #
coedge $-1 $94 $103 $136 $137 forward $38 $-1 #
coedge $-1 $109 $97 $94 $116 reversed $87 $-1 #
edge $-1 $138 -40 $99 40 $115 $139 forward 7 unknown #
coedge $-1 $97 $109 $110 $133 reversed $87 $-1 #
vertex $-1 $98 $140 #
straight-curve $-1 40 -40 0 0 0 -1 I I #
point $-1 40 -40 20 #
coedge $-1 $141 $101 $111 $134 reversed $123 $-1 #
coedge $-1 $101 $141 $103 $126 reversed $123 $-1 #
loop $-1 $-1 $101 $106 #
vertex $-1 $112 $142 #
straight-curve $-1 40 40 0 0 0 -1 I I #
edge $-1 $104 -40 $143 40 $122 $144 forward 7 unknown #
point $-1 40 40 20 #
plane-surface $-1 0 40 0 0 -1 0 0 0 -1 forward_v I I I I #
coedge $-1 $145 $136 $141 $146 forward $107 $-1 #
coedge $-1 $136 $145 $109 $131 reversed $107 $-1 #
edge $-1 $138 -20 $147 20 $130 $148 forward 7 unknown #
coedge $-1 $111 $110 $145 $149 forward $63 $-1 #
edge $-1 $118 -40 $147 40 $117 $150 forward 7 unknown #
edge $-1 $151 -40 $124 40 $121 $152 forward 7 unknown #
straight-curve $-1 40 0 -20 0 -1 0 I I #
coedge $-1 $129 $130 $114 $137 reversed $107 $-1 #
edge $-1 $143 -40 $138 40 $136 $153 forward 7 unknown #
vertex $-1 $137 $154 #
straight-curve $-1 0 -40 20 1 0 0 I I #
point $-1 40 -40 -20 #
coedge $-1 $122 $121 $129 $146 reversed $123 $-1 #
point $-1 40 40 -20 #
vertex $-1 $126 $155 #
straight-curve $-1 0 40 20 -1 0 0 I I #
coedge $-1 $130 $129 $132 $149 reversed $107 $-1 #
edge $-1 $143 -20 $151 20 $141 $156 forward 7 unknown #
vertex $-1 $149 $157 #
straight-curve $-1 -40 -40 0 0 0 -1 I I #
edge $-1 $147 -40 $151 40 $145 $158 forward 7 unknown #
straight-curve $-1 0 -40 -20 -1 0 0 I I #
vertex $-1 $134 $159 #
straight-curve $-1 0 40 -20 1 0 0 I I #
straight-curve $-1 -40 0 20 0 -1 0 I I #
point $-1 -40 -40 20 #
point $-1 -40 40 20 #
straight-curve $-1 -40 40 0 0 0 -1 I I #
point $-1 -40 -40 -20 #
straight-curve $-1 -40 0 -20 0 1 0 I I #
point $-1 -40 40 -20 #
End-of-ACIS-data 