700 0 2 0           
24 FBMach with ACIS - 7.0.3 13 ACIS 7.0.3 NT 24 Tue May 14 09:19:59 2002 
1 9.9999999999999995e-007 1e-010 
body $2 -1 $-1 $3 $-1 $4 #
bdycol-kcp $-1 -1 1 2 $5 $6 #
model_id-kcp-attrib $-1 -1 $-1 $-1 $0 1 1021382398 1021382398 1957036033 1 #
lump $-1 -1 $-1 $-1 $7 $0 #
transform $-1 -1 1 0 0 0 1 0 0 0 1 0 0 0 1 rotate no_reflect no_shear #
body $8 -1 $-1 $9 $-1 $10 #
body $11 -1 $-1 $12 $-1 $13 #
shell $-1 -1 $-1 $-1 $-1 $14 $-1 $3 #
model_id-kcp-attrib $-1 -1 $-1 $-1 $5 1 1021382398 1021382398 1957036034 1 #
lump $-1 -1 $-1 $-1 $15 $5 #
transform $-1 -1 1 0 0 0 1 0 0 0 1 0 0 0 1 no_rotate no_reflect no_shear #
rgb_color-st-attrib $-1 -1 $16 $-1 $6 1 0 0 #
lump $-1 -1 $-1 $-1 $17 $6 #
transform $-1 -1 1 0 0 0 1 0 0 0 1 0 0 0 1 no_rotate no_reflect no_shear #
face $18 -1 $-1 $19 $20 $7 $-1 $21 forward single #
shell $-1 -1 $-1 $-1 $-1 $22 $-1 $9 #
model_id-kcp-attrib $-1 -1 $-1 $11 $6 1 1021382398 1021382399 1956904963 1 #
shell $-1 -1 $-1 $-1 $-1 $23 $-1 $12 #
model_id-kcp-attrib $-1 -1 $-1 $-1 $14 1 1021382398 1021382398 1957036033 2 #
face $24 -1 $-1 $25 $26 $7 $-1 $27 forward single #
loop $-1 -1 $-1 $-1 $28 $14 #
plane-surface $-1 -1 $-1 20 0 0 0 0 1 1 0 0 forward_v I I I I #
face $29 -1 $-1 $30 $31 $15 $-1 $32 forward single #
face $-1 -1 $-1 $33 $34 $17 $-1 $35 forward single #
model_id-kcp-attrib $-1 -1 $-1 $-1 $19 1 1021382398 1021382398 1957036033 3 #
face $36 -1 $-1 $37 $38 $7 $-1 $39 forward single #
loop $-1 -1 $-1 $-1 $40 $19 #
plane-surface $-1 -1 $-1 20 -20 10 0 1 0 0 0 1 forward_v I I I I #
coedge $-1 -1 $-1 $41 $42 $43 $44 reversed $20 $-1 #
model_id-kcp-attrib $-1 -1 $-1 $-1 $22 1 1021382398 1021382398 1957036034 2 #
face $45 -1 $-1 $46 $47 $15 $-1 $48 reversed single #
loop $-1 -1 $-1 $-1 $49 $22 #
plane-surface $-1 -1 $-1 0 0 20 0 0 1 1 0 0 forward_v I I I I #
face $-1 -1 $-1 $50 $51 $17 $-1 $52 forward single #
loop $-1 -1 $-1 $-1 $53 $23 #
plane-surface $-1 -1 $-1 0 -20 0 -1 0 0 0 0 1 forward_v I I I I #
model_id-kcp-attrib $-1 -1 $-1 $-1 $25 1 1021382398 1021382398 1957036033 4 #
face $54 -1 $-1 $55 $56 $7 $-1 $57 forward single #
loop $-1 -1 $-1 $-1 $58 $25 #
plane-surface $-1 -1 $-1 0 0 10 1 0 0 0 0 -1 forward_v I I I I #
coedge $-1 -1 $-1 $59 $60 $61 $62 reversed $26 $-1 #
coedge $-1 -1 $-1 $63 $28 $64 $65 reversed $20 $-1 #
coedge $-1 -1 $-1 $28 $63 $60 $66 reversed $20 $-1 #
coedge $-1 -1 $-1 $67 $68 $28 $44 forward $69 $-1 #
edge $70 -1 $-1 $71 -20 $72 20 $43 $73 forward @7 unknown #
model_id-kcp-attrib $-1 -1 $-1 $-1 $30 1 1021382398 1021382398 1957036034 3 #
face $74 -1 $-1 $75 $76 $15 $-1 $77 reversed single #
loop $-1 -1 $-1 $-1 $78 $30 #
plane-surface $-1 -1 $-1 0 0 -20 0 0 1 1 0 0 forward_v I I I I #
coedge $-1 -1 $-1 $79 $80 $81 $82 forward $31 $-1 #
face $-1 -1 $-1 $83 $84 $17 $-1 $85 forward single #
loop $-1 -1 $-1 $-1 $86 $33 #
plane-surface $-1 -1 $-1 0 20 0 0 1 0 0 0 1 forward_v I I I I #
coedge $-1 -1 $-1 $87 $88 $89 $90 forward $34 $-1 #
model_id-kcp-attrib $-1 -1 $-1 $-1 $37 1 1021382398 1021382398 1957036033 5 #
face $91 -1 $-1 $92 $93 $7 $-1 $94 forward single #
loop $-1 -1 $-1 $-1 $95 $37 #
plane-surface $-1 -1 $-1 20 20 10 0 -1 0 0 0 -1 forward_v I I I I #
coedge $-1 -1 $-1 $96 $97 $98 $99 reversed $38 $-1 #
coedge $-1 -1 $-1 $100 $40 $101 $102 reversed $26 $-1 #
coedge $-1 -1 $-1 $40 $100 $42 $66 forward $26 $-1 #
coedge $-1 -1 $-1 $97 $96 $40 $62 forward $38 $-1 #
edge $103 -1 $-1 $104 -10 $105 10 $61 $106 forward @7 unknown #
coedge $-1 -1 $-1 $42 $41 $97 $107 reversed $20 $-1 #
coedge $-1 -1 $-1 $95 $98 $41 $65 forward $56 $-1 #
edge $108 -1 $-1 $109 -20 $71 20 $64 $110 forward @7 unknown #
edge $111 -1 $-1 $72 -20 $105 20 $60 $112 forward @7 unknown #
coedge $-1 -1 $-1 $113 $43 $100 $114 forward $69 $-1 #
coedge $-1 -1 $-1 $43 $115 $95 $116 forward $69 $-1 #
loop $-1 -1 $-1 $-1 $67 $117 #
attrib_edge_convexity-kcp-attrib $-1 -1 $118 $-1 $44 1 #
vertex $-1 -1 $-1 $44 $119 #
vertex $-1 -1 $-1 $44 $120 #
straight-curve $-1 -1 $-1 40 0 0 0 -1 0 I I #
model_id-kcp-attrib $-1 -1 $-1 $-1 $46 1 1021382398 1021382398 1957036034 4 #
face $121 -1 $-1 $122 $123 $15 $-1 $124 reversed single #
loop $-1 -1 $-1 $-1 $125 $46 #
plane-surface $-1 -1 $-1 0 -40 0 0 1 0 0 0 1 forward_v I I I I #
coedge $-1 -1 $-1 $126 $127 $128 $129 forward $47 $-1 #
coedge $-1 -1 $-1 $130 $49 $131 $132 forward $31 $-1 #
coedge $-1 -1 $-1 $49 $130 $133 $134 forward $31 $-1 #
coedge $-1 -1 $-1 $135 $136 $49 $82 reversed $137 $-1 #
edge $-1 -1 $-1 $138 -40 $139 40 $81 $140 forward @7 unknown #
face $-1 -1 $-1 $141 $142 $17 $-1 $143 forward single #
loop $-1 -1 $-1 $-1 $144 $50 #
plane-surface $-1 -1 $-1 40 20 0 1 0 0 0 0 -1 forward_v I I I I #
coedge $-1 -1 $-1 $145 $146 $147 $148 forward $51 $-1 #
coedge $-1 -1 $-1 $149 $53 $146 $150 reversed $34 $-1 #
coedge $-1 -1 $-1 $53 $149 $151 $152 forward $34 $-1 #
coedge $-1 -1 $-1 $153 $147 $53 $90 reversed $154 $-1 #
edge $-1 -1 $-1 $155 -20 $156 20 $53 $157 forward @7 unknown #
model_id-kcp-attrib $-1 -1 $-1 $-1 $55 1 1021382398 1021382398 1957036033 6 #
face $158 -1 $-1 $159 $160 $7 $-1 $161 reversed single #
loop $-1 -1 $-1 $-1 $101 $55 #
plane-surface $-1 -1 $-1 0 0 20 0 0 1 1 0 0 forward_v I I I I #
coedge $-1 -1 $-1 $162 $64 $68 $116 reversed $56 $-1 #
coedge $-1 -1 $-1 $61 $58 $163 $164 reversed $38 $-1 #
coedge $-1 -1 $-1 $58 $61 $63 $107 forward $38 $-1 #
coedge $-1 -1 $-1 $64 $162 $58 $99 forward $56 $-1 #
edge $165 -1 $-1 $166 -10 $109 10 $98 $167 forward @7 unknown #
coedge $-1 -1 $-1 $60 $59 $67 $114 reversed $26 $-1 #
coedge $-1 -1 $-1 $163 $168 $59 $102 forward $93 $-1 #
edge $169 -1 $-1 $170 -30 $104 10 $101 $171 forward @7 unknown #
attrib_edge_convexity-kcp-attrib $-1 -1 $172 $-1 $62 2 #
vertex $-1 -1 $-1 $102 $173 #
vertex $-1 -1 $-1 $107 $174 #
straight-curve $-1 -1 $-1 0 -20 10 0 0 -1 I I #
edge $175 -1 $-1 $105 -20 $109 20 $97 $176 forward @7 unknown #
attrib_edge_convexity-kcp-attrib $-1 -1 $177 $-1 $65 2 #
vertex $-1 -1 $-1 $65 $178 #
straight-curve $-1 -1 $-1 20 20 0 1 0 0 I I #
attrib_edge_convexity-kcp-attrib $-1 -1 $179 $-1 $66 2 #
straight-curve $-1 -1 $-1 20 -20 0 -1 0 0 I I #
coedge $-1 -1 $-1 $180 $67 $168 $181 reversed $69 $-1 #
edge $-1 -1 $-1 $72 -5 $170 15 $67 $182 forward @7 unknown #
coedge $-1 -1 $-1 $68 $183 $184 $185 reversed $69 $-1 #
edge $-1 -1 $-1 $186 -15 $71 5 $68 $187 forward @7 unknown #
face $188 -1 $-1 $-1 $69 $7 $-1 $189 reversed single #
convexity-sys-attrib $-1 -1 $-1 $70 $44 #
point $-1 -1 $-1 40 20 0 #
point $-1 -1 $-1 40 -20 0 #
model_id-kcp-attrib $-1 -1 $-1 $-1 $75 1 1021382398 1021382398 1957036034 5 #
face $190 -1 $-1 $191 $192 $15 $-1 $193 reversed single #
loop $-1 -1 $-1 $-1 $194 $75 #
plane-surface $-1 -1 $-1 -40 0 0 1 0 0 0 0 -1 forward_v I I I I #
coedge $-1 -1 $-1 $195 $133 $196 $197 forward $76 $-1 #
coedge $-1 -1 $-1 $198 $78 $195 $199 forward $47 $-1 #
coedge $-1 -1 $-1 $78 $198 $200 $201 forward $47 $-1 #
coedge $-1 -1 $-1 $136 $135 $78 $129 reversed $137 $-1 #
edge $-1 -1 $-1 $202 -40 $203 40 $128 $204 forward @7 unknown #
coedge $-1 -1 $-1 $80 $79 $205 $206 forward $31 $-1 #
coedge $-1 -1 $-1 $207 $208 $79 $132 reversed $192 $-1 #
edge $-1 -1 $-1 $139 -40 $209 40 $131 $210 forward @7 unknown #
coedge $-1 -1 $-1 $125 $211 $80 $134 reversed $76 $-1 #
edge $-1 -1 $-1 $212 -40 $138 40 $133 $213 forward @7 unknown #
coedge $-1 -1 $-1 $128 $81 $211 $214 forward $137 $-1 #
coedge $-1 -1 $-1 $81 $128 $207 $215 reversed $137 $-1 #
loop $-1 -1 $-1 $-1 $135 $191 #
vertex $-1 -1 $-1 $82 $216 #
vertex $-1 -1 $-1 $82 $217 #
straight-curve $-1 -1 $-1 40 0 20 0 1 0 I I #
face $-1 -1 $-1 $218 $154 $17 $-1 $219 forward single #
loop $-1 -1 $-1 $-1 $220 $83 #
plane-surface $-1 -1 $-1 40 -20 0 0 -1 0 0 0 -1 forward_v I I I I #
coedge $-1 -1 $-1 $221 $222 $223 $224 forward $84 $-1 #
coedge $-1 -1 $-1 $225 $86 $222 $226 reversed $51 $-1 #
coedge $-1 -1 $-1 $86 $225 $87 $150 forward $51 $-1 #
coedge $-1 -1 $-1 $89 $223 $86 $148 reversed $154 $-1 #
edge $-1 -1 $-1 $156 -20 $227 20 $86 $228 forward @7 unknown #
coedge $-1 -1 $-1 $88 $87 $229 $230 reversed $34 $-1 #
edge $231 -1 $-1 $232 0 $156 20 $146 $233 forward @7 unknown #
coedge $-1 -1 $-1 $234 $220 $88 $152 reversed $142 $-1 #
edge $235 -1 $-1 $236 0 $155 20 $88 $237 forward @7 unknown #
coedge $-1 -1 $-1 $223 $89 $220 $238 reversed $154 $-1 #
loop $-1 -1 $-1 $-1 $89 $141 #
vertex $-1 -1 $-1 $152 $239 #
vertex $-1 -1 $-1 $150 $240 #
straight-curve $-1 -1 $-1 0 0 20 0 1 0 I I #
model_id-kcp-attrib $-1 -1 $-1 $-1 $92 1 1021382398 1021382398 1957036033 7 #
face $241 -1 $-1 $242 $243 $7 $-1 $244 reversed single #
loop $-1 -1 $-1 $-1 $245 $92 #
plane-surface $-1 -1 $-1 0 0 -20 0 0 1 1 0 0 forward_v I I I I #
coedge $-1 -1 $-1 $98 $95 $246 $247 reversed $56 $-1 #
coedge $-1 -1 $-1 $246 $101 $96 $164 forward $93 $-1 #
edge $248 -1 $-1 $104 -20 $166 20 $163 $249 forward @7 unknown #
attrib_edge_convexity-kcp-attrib $-1 -1 $250 $-1 $99 2 #
vertex $-1 -1 $-1 $164 $251 #
straight-curve $-1 -1 $-1 0 20 10 0 0 -1 I I #
coedge $-1 -1 $-1 $101 $252 $113 $181 forward $93 $-1 #
attrib_edge_convexity-kcp-attrib $-1 -1 $253 $-1 $102 1 #
vertex $-1 -1 $-1 $181 $254 #
straight-curve $-1 -1 $-1 10 -20 20 -1 0 0 I I #
convexity-sys-attrib $-1 -1 $-1 $103 $62 #
point $-1 -1 $-1 0 -20 20 #
point $-1 -1 $-1 0 -20 0 #
attrib_edge_convexity-kcp-attrib $-1 -1 $255 $-1 $107 2 #
straight-curve $-1 -1 $-1 0 0 0 0 1 0 I I #
convexity-sys-attrib $-1 -1 $-1 $108 $65 #
point $-1 -1 $-1 0 20 0 #
convexity-sys-attrib $-1 -1 $-1 $111 $66 #
coedge $-1 -1 $-1 $256 $113 $257 $258 forward $69 $-1 #
edge $259 -1 $-1 $260 -40 $170 -20 $113 $261 forward @7 unknown #
straight-curve $-1 -1 $-1 40 -20 5 0 0 1 I I #
coedge $-1 -1 $-1 $115 $256 $262 $263 reversed $69 $-1 #
coedge $-1 -1 $-1 $264 $246 $115 $185 forward $93 $-1 #
edge $265 -1 $-1 $186 20 $266 40 $115 $261 forward @7 unknown #
vertex $-1 -1 $-1 $116 $267 #
straight-curve $-1 -1 $-1 40 20 5 0 0 -1 I I #
model_id-kcp-attrib $-1 -1 $-1 $-1 $117 1 1021382398 1021382398 1957036033 11 #
plane-surface $-1 -1 $-1 40 0 0 -1 0 0 0 0 1 forward_v I I I I #
model_id-kcp-attrib $-1 -1 $-1 $-1 $122 1 1021382398 1021382398 1957036034 6 #
face $268 -1 $-1 $-1 $137 $15 $-1 $269 reversed single #
loop $-1 -1 $-1 $-1 $207 $122 #
plane-surface $-1 -1 $-1 0 40 0 0 -1 0 0 0 -1 forward_v I I I I #
coedge $-1 -1 $-1 $270 $205 $208 $271 forward $123 $-1 #
coedge $-1 -1 $-1 $211 $125 $126 $199 reversed $76 $-1 #
coedge $-1 -1 $-1 $205 $270 $125 $197 reversed $123 $-1 #
edge $-1 -1 $-1 $212 -20 $272 20 $196 $273 forward @7 unknown #
coedge $-1 -1 $-1 $127 $126 $270 $274 forward $47 $-1 #
edge $-1 -1 $-1 $203 -40 $272 40 $195 $275 forward @7 unknown #
coedge $-1 -1 $-1 $208 $207 $127 $201 reversed $192 $-1 #
edge $-1 -1 $-1 $276 -40 $202 40 $200 $277 forward @7 unknown #
vertex $-1 -1 $-1 $129 $278 #
vertex $-1 -1 $-1 $214 $279 #
straight-curve $-1 -1 $-1 40 0 -20 0 -1 0 I I #
coedge $-1 -1 $-1 $194 $196 $130 $206 reversed $123 $-1 #
edge $-1 -1 $-1 $209 -40 $212 40 $205 $280 forward @7 unknown #
coedge $-1 -1 $-1 $200 $131 $136 $215 forward $192 $-1 #
coedge $-1 -1 $-1 $131 $200 $194 $271 reversed $192 $-1 #
vertex $-1 -1 $-1 $132 $281 #
straight-curve $-1 -1 $-1 0 40 20 -1 0 0 I I #
coedge $-1 -1 $-1 $133 $195 $135 $214 reversed $76 $-1 #
vertex $-1 -1 $-1 $206 $282 #
straight-curve $-1 -1 $-1 0 -40 20 1 0 0 I I #
edge $-1 -1 $-1 $138 -20 $203 20 $135 $283 forward @7 unknown #
edge $-1 -1 $-1 $139 -20 $202 20 $136 $284 forward @7 unknown #
point $-1 -1 $-1 40 -40 20 #
point $-1 -1 $-1 40 40 20 #
face $-1 -1 $-1 $-1 $285 $17 $-1 $286 reversed single #
plane-surface $-1 -1 $-1 20 0 20 0 0 1 1 0 0 forward_v I I I I #
coedge $-1 -1 $-1 $151 $287 $153 $238 forward $142 $-1 #
coedge $-1 -1 $-1 $288 $144 $287 $289 reversed $84 $-1 #
coedge $-1 -1 $-1 $144 $288 $145 $226 forward $84 $-1 #
coedge $-1 -1 $-1 $147 $153 $144 $224 reversed $154 $-1 #
edge $-1 -1 $-1 $227 -20 $290 20 $144 $291 forward @7 unknown #
coedge $-1 -1 $-1 $146 $145 $292 $293 reversed $51 $-1 #
edge $-1 -1 $-1 $294 0 $227 20 $222 $295 forward @7 unknown #
vertex $-1 -1 $-1 $226 $296 #
straight-curve $-1 -1 $-1 20 20 20 1 0 0 I I #
coedge $-1 -1 $-1 $292 $297 $149 $230 forward $285 $-1 #
edge $298 -1 $-1 $236 -20 $232 20 $149 $299 forward @7 unknown #
convexity-sys-attrib $-1 -1 $-1 $-1 $150 #
vertex $-1 -1 $-1 $230 $300 #
straight-curve $-1 -1 $-1 0 20 0 0 0 1 I I #
coedge $-1 -1 $-1 $287 $151 $297 $301 reversed $142 $-1 #
convexity-sys-attrib $-1 -1 $-1 $-1 $152 #
vertex $-1 -1 $-1 $301 $302 #
straight-curve $-1 -1 $-1 0 -20 0 0 0 1 I I #
edge $-1 -1 $-1 $290 -20 $155 20 $220 $303 forward @7 unknown #
point $-1 -1 $-1 0 -20 20 #
point $-1 -1 $-1 0 20 20 #
model_id-kcp-attrib $-1 -1 $-1 $-1 $159 1 1021382398 1021382398 1957036033 8 #
face $304 -1 $-1 $305 $306 $7 $-1 $307 reversed single #
loop $-1 -1 $-1 $-1 $308 $159 #
plane-surface $-1 -1 $-1 0 -40 0 0 1 0 0 0 1 forward_v I I I I #
coedge $-1 -1 $-1 $309 $310 $256 $311 forward $160 $-1 #
coedge $-1 -1 $-1 $184 $163 $162 $247 forward $93 $-1 #
edge $312 -1 $-1 $166 -10 $186 30 $246 $313 forward @7 unknown #
attrib_edge_convexity-kcp-attrib $-1 -1 $314 $-1 $164 1 #
straight-curve $-1 -1 $-1 0 0 20 0 1 0 I I #
convexity-sys-attrib $-1 -1 $-1 $165 $99 #
point $-1 -1 $-1 0 20 20 #
coedge $-1 -1 $-1 $168 $315 $316 $317 forward $93 $-1 #
convexity-sys-attrib $-1 -1 $-1 $169 $102 #
point $-1 -1 $-1 40 -20 20 #
convexity-sys-attrib $-1 -1 $-1 $175 $107 #
coedge $-1 -1 $-1 $183 $180 $245 $311 reversed $69 $-1 #
coedge $-1 -1 $-1 $316 $318 $180 $258 reversed $243 $-1 #
edge $319 -1 $-1 $260 -20 $320 20 $180 $321 forward @7 unknown #
attrib_edge_convexity-kcp-attrib $-1 -1 $322 $-1 $181 1 #
vertex $-1 -1 $-1 $181 $323 #
straight-curve $-1 -1 $-1 40 0 20 0 1 0 I I #
coedge $-1 -1 $-1 $324 $325 $183 $263 forward $326 $-1 #
edge $-1 -1 $-1 $266 -20 $327 20 $183 $328 forward @7 unknown #
coedge $-1 -1 $-1 $315 $184 $325 $329 forward $93 $-1 #
attrib_edge_convexity-kcp-attrib $-1 -1 $330 $-1 $185 1 #
vertex $-1 -1 $-1 $185 $331 #
point $-1 -1 $-1 40 20 20 #
model_id-kcp-attrib $-1 -1 $-1 $-1 $191 1 1021382398 1021382398 1957036034 7 #
plane-surface $-1 -1 $-1 40 0 0 -1 0 0 0 0 1 forward_v I I I I #
coedge $-1 -1 $-1 $196 $194 $198 $274 reversed $123 $-1 #
edge $-1 -1 $-1 $209 -20 $276 20 $208 $332 forward @7 unknown #
vertex $-1 -1 $-1 $274 $333 #
straight-curve $-1 -1 $-1 -40 -40 0 0 0 -1 I I #
edge $-1 -1 $-1 $272 -40 $276 40 $270 $334 forward @7 unknown #
straight-curve $-1 -1 $-1 0 -40 -20 -1 0 0 I I #
vertex $-1 -1 $-1 $201 $335 #
straight-curve $-1 -1 $-1 0 40 -20 1 0 0 I I #
point $-1 -1 $-1 40 40 -20 #
point $-1 -1 $-1 40 -40 -20 #
straight-curve $-1 -1 $-1 -40 0 20 0 -1 0 I I #
point $-1 -1 $-1 -40 40 20 #
point $-1 -1 $-1 -40 -40 20 #
straight-curve $-1 -1 $-1 40 -40 0 0 0 -1 I I #
straight-curve $-1 -1 $-1 40 40 0 0 0 -1 I I #
loop $-1 -1 $-1 $-1 $297 $218 #
plane-surface $-1 -1 $-1 20 0 0 0 0 1 1 0 0 forward_v I I I I #
coedge $-1 -1 $-1 $220 $234 $221 $289 forward $142 $-1 #
coedge $-1 -1 $-1 $222 $221 $336 $337 reversed $84 $-1 #
edge $-1 -1 $-1 $338 0 $290 20 $287 $339 forward @7 unknown #
vertex $-1 -1 $-1 $289 $340 #
straight-curve $-1 -1 $-1 40 0 20 0 -1 0 I I #
coedge $-1 -1 $-1 $336 $229 $225 $293 forward $285 $-1 #
edge $341 -1 $-1 $232 -20 $294 20 $225 $342 forward @7 unknown #
vertex $-1 -1 $-1 $293 $343 #
straight-curve $-1 -1 $-1 40 20 0 0 0 1 I I #
point $-1 -1 $-1 40 20 20 #
coedge $-1 -1 $-1 $229 $336 $234 $301 forward $285 $-1 #
convexity-sys-attrib $-1 -1 $-1 $-1 $230 #
straight-curve $-1 -1 $-1 0 0 0 0 1 0 I I #
point $-1 -1 $-1 0 20 0 #
edge $344 -1 $-1 $338 -20 $236 20 $234 $345 forward @7 unknown #
point $-1 -1 $-1 0 -20 0 #
straight-curve $-1 -1 $-1 20 -20 20 -1 0 0 I I #
model_id-kcp-attrib $-1 -1 $-1 $-1 $242 1 1021382398 1021382398 1957036033 9 #
face $346 -1 $-1 $117 $326 $7 $-1 $347 reversed single #
loop $-1 -1 $-1 $-1 $348 $242 #
plane-surface $-1 -1 $-1 -40 0 0 1 0 0 0 0 -1 forward_v I I I I #
coedge $-1 -1 $-1 $318 $316 $349 $350 forward $243 $-1 #
coedge $-1 -1 $-1 $351 $245 $318 $352 forward $160 $-1 #
coedge $-1 -1 $-1 $245 $351 $324 $353 forward $160 $-1 #
edge $-1 -1 $-1 $327 -40 $320 40 $256 $354 forward @7 unknown #
attrib_edge_convexity-kcp-attrib $-1 -1 $355 $-1 $247 1 #
straight-curve $-1 -1 $-1 10 20 20 1 0 0 I I #
convexity-sys-attrib $-1 -1 $-1 $248 $164 #
coedge $-1 -1 $-1 $252 $264 $356 $357 forward $93 $-1 #
coedge $-1 -1 $-1 $308 $257 $252 $317 reversed $243 $-1 #
edge $358 -1 $-1 $359 -40 $260 40 $316 $360 forward @7 unknown #
coedge $-1 -1 $-1 $257 $308 $309 $352 reversed $243 $-1 #
attrib_edge_convexity-kcp-attrib $-1 -1 $361 $-1 $258 1 #
vertex $-1 -1 $-1 $258 $362 #
straight-curve $-1 -1 $-1 40 -40 0 0 0 -1 I I #
convexity-sys-attrib $-1 -1 $-1 $259 $181 #
point $-1 -1 $-1 40 -40 20 #
coedge $-1 -1 $-1 $363 $262 $310 $353 reversed $326 $-1 #
coedge $-1 -1 $-1 $262 $363 $264 $329 reversed $326 $-1 #
loop $-1 -1 $-1 $-1 $262 $305 #
vertex $-1 -1 $-1 $311 $364 #
straight-curve $-1 -1 $-1 40 40 0 0 0 -1 I I #
edge $365 -1 $-1 $266 -40 $366 40 $325 $367 forward @7 unknown #
convexity-sys-attrib $-1 -1 $-1 $265 $185 #
point $-1 -1 $-1 40 40 20 #
straight-curve $-1 -1 $-1 -40 40 0 0 0 -1 I I #
point $-1 -1 $-1 -40 -40 -20 #
straight-curve $-1 -1 $-1 -40 0 -20 0 1 0 I I #
point $-1 -1 $-1 -40 40 -20 #
coedge $-1 -1 $-1 $297 $292 $288 $337 forward $285 $-1 #
edge $368 -1 $-1 $294 -20 $338 20 $288 $369 forward @7 unknown #
vertex $-1 -1 $-1 $301 $370 #
straight-curve $-1 -1 $-1 40 -20 0 0 0 1 I I #
point $-1 -1 $-1 40 -20 20 #
convexity-sys-attrib $-1 -1 $-1 $-1 $293 #
straight-curve $-1 -1 $-1 20 20 0 1 0 0 I I #
point $-1 -1 $-1 40 20 0 #
convexity-sys-attrib $-1 -1 $-1 $-1 $301 #
straight-curve $-1 -1 $-1 20 -20 0 -1 0 0 I I #
model_id-kcp-attrib $-1 -1 $-1 $-1 $305 1 1021382398 1021382398 1957036033 10 #
plane-surface $-1 -1 $-1 0 40 0 0 -1 0 0 0 -1 forward_v I I I I #
coedge $-1 -1 $-1 $371 $356 $363 $372 forward $306 $-1 #
coedge $-1 -1 $-1 $356 $371 $308 $350 reversed $306 $-1 #
edge $373 -1 $-1 $359 -20 $374 20 $349 $375 forward @7 unknown #
coedge $-1 -1 $-1 $310 $309 $371 $376 forward $160 $-1 #
edge $377 -1 $-1 $320 -40 $374 40 $318 $378 forward @7 unknown #
edge $-1 -1 $-1 $379 -40 $327 40 $324 $380 forward @7 unknown #
straight-curve $-1 -1 $-1 40 0 -20 0 -1 0 I I #
convexity-sys-attrib $-1 -1 $-1 $312 $247 #
coedge $-1 -1 $-1 $348 $349 $315 $357 reversed $306 $-1 #
edge $381 -1 $-1 $366 -40 $359 40 $356 $382 forward @7 unknown #
attrib_edge_convexity-kcp-attrib $-1 -1 $383 $-1 $317 1 #
vertex $-1 -1 $-1 $357 $384 #
straight-curve $-1 -1 $-1 0 -40 20 1 0 0 I I #
convexity-sys-attrib $-1 -1 $-1 $319 $258 #
point $-1 -1 $-1 40 -40 -20 #
coedge $-1 -1 $-1 $325 $324 $348 $372 reversed $326 $-1 #
point $-1 -1 $-1 40 40 -20 #
attrib_edge_convexity-kcp-attrib $-1 -1 $385 $-1 $329 1 #
vertex $-1 -1 $-1 $329 $386 #
straight-curve $-1 -1 $-1 0 40 20 -1 0 0 I I #
convexity-sys-attrib $-1 -1 $-1 $-1 $337 #
straight-curve $-1 -1 $-1 40 0 0 0 -1 0 I I #
point $-1 -1 $-1 40 -20 0 #
coedge $-1 -1 $-1 $349 $348 $351 $376 reversed $306 $-1 #
edge $387 -1 $-1 $366 -20 $379 20 $363 $388 forward @7 unknown #
attrib_edge_convexity-kcp-attrib $-1 -1 $389 $-1 $350 1 #
vertex $-1 -1 $-1 $376 $390 #
straight-curve $-1 -1 $-1 -40 -40 0 0 0 -1 I I #
edge $391 -1 $-1 $374 -40 $379 40 $371 $392 forward @7 unknown #
attrib_edge_convexity-kcp-attrib $-1 -1 $393 $-1 $352 1 #
straight-curve $-1 -1 $-1 0 -40 -20 -1 0 0 I I #
vertex $-1 -1 $-1 $353 $394 #
straight-curve $-1 -1 $-1 0 40 -20 1 0 0 I I #
attrib_edge_convexity-kcp-attrib $-1 -1 $395 $-1 $357 1 #
straight-curve $-1 -1 $-1 -40 0 20 0 -1 0 I I #
convexity-sys-attrib $-1 -1 $-1 $358 $317 #
point $-1 -1 $-1 -40 -40 20 #
convexity-sys-attrib $-1 -1 $-1 $365 $329 #
point $-1 -1 $-1 -40 40 20 #
attrib_edge_convexity-kcp-attrib $-1 -1 $396 $-1 $372 1 #
straight-curve $-1 -1 $-1 -40 40 0 0 0 -1 I I #
convexity-sys-attrib $-1 -1 $-1 $373 $350 #
point $-1 -1 $-1 -40 -40 -20 #
attrib_edge_convexity-kcp-attrib $-1 -1 $397 $-1 $376 1 #
straight-curve $-1 -1 $-1 -40 0 -20 0 1 0 I I #
convexity-sys-attrib $-1 -1 $-1 $377 $352 #
point $-1 -1 $-1 -40 40 -20 #
convexity-sys-attrib $-1 -1 $-1 $381 $357 #
convexity-sys-attrib $-1 -1 $-1 $387 $372 #
convexity-sys-attrib $-1 -1 $-1 $391 $376 #
End-of-ACIS-data 