600 0 2 0           
24 FBMach with ACIS - 6.0.3 13 ACIS 6.0.3 NT 24 Wed May 23 20:18:49 2001 
1 9.9999999999999995e-007 1e-010 
body $2 $3 $-1 $4 #
bdycol-kcp $-1 1 2 $5 $6 #
model_id-kcp-attrib $-1 $-1 $-1 $0 1 990663529 70 927334401 1 #
lump $-1 $-1 $7 $0 #
transform $-1 1 0 0 0 1 0 0 0 1 0 0 0 1 no_rotate no_reflect no_shear #
body $8 $9 $-1 $10 #
body $11 $12 $-1 $13 #
shell $-1 $-1 $-1 $14 $-1 $3 #
model_id-kcp-attrib $-1 $-1 $-1 $5 1 990663529 70 927334402 1 #
lump $-1 $-1 $15 $5 #
transform $-1 1 0 0 0 1 0 0 0 1 0 0 0 1 no_rotate no_reflect no_shear #
rgb_color-st-attrib $-1 $16 $-1 $6 1 0 0 #
lump $-1 $-1 $17 $6 #
transform $-1 1 0 0 0 1 0 0 0 1 0 0 0 1 no_rotate no_reflect no_shear #
face $18 $19 $20 $7 $-1 $21 forward single #
shell $-1 $-1 $-1 $22 $-1 $9 #
model_id-kcp-attrib $-1 $-1 $11 $6 1 990663529 280 924319747 1 #
shell $-1 $-1 $-1 $23 $-1 $12 #
model_id-kcp-attrib $-1 $-1 $-1 $14 1 990663529 70 927334401 2 #
face $24 $25 $26 $7 $-1 $27 forward single #
loop $-1 $-1 $28 $14 #
plane-surface $-1 20 0 0 0 0 1 1 0 0 forward_v I I I I #
face $29 $30 $31 $15 $-1 $32 forward single #
face $-1 $33 $34 $17 $-1 $35 forward single #
model_id-kcp-attrib $-1 $-1 $-1 $19 1 990663529 70 927334401 3 #
face $36 $37 $38 $7 $-1 $39 forward single #
loop $-1 $-1 $40 $19 #
plane-surface $-1 20 -20 10 0 1 0 0 0 1 forward_v I I I I #
coedge $-1 $41 $42 $43 $44 reversed $20 $-1 #
model_id-kcp-attrib $-1 $-1 $-1 $22 1 990663529 70 927334402 2 #
face $45 $46 $47 $15 $-1 $48 reversed single #
loop $-1 $-1 $49 $22 #
plane-surface $-1 0 0 20 0 0 1 1 0 0 forward_v I I I I #
face $-1 $50 $51 $17 $-1 $52 forward single #
loop $-1 $-1 $53 $23 #
plane-surface $-1 0 -20 0 -1 0 0 0 0 1 forward_v I I I I #
model_id-kcp-attrib $-1 $-1 $-1 $25 1 990663529 70 927334401 4 #
face $54 $55 $56 $7 $-1 $57 forward single #
loop $-1 $-1 $58 $25 #
plane-surface $-1 0 0 10 1 0 0 0 0 -1 forward_v I I I I #
coedge $-1 $59 $60 $61 $62 reversed $26 $-1 #
coedge $-1 $63 $28 $64 $65 reversed $20 $-1 #
coedge $-1 $28 $63 $60 $66 reversed $20 $-1 #
coedge $-1 $67 $68 $28 $44 forward $69 $-1 #
edge $-1 $70 -20 $71 20 $43 $72 forward 7 unknown #
model_id-kcp-attrib $-1 $-1 $-1 $30 1 990663529 70 927334402 3 #
face $73 $74 $75 $15 $-1 $76 reversed single #
loop $-1 $-1 $77 $30 #
plane-surface $-1 0 0 -20 0 0 1 1 0 0 forward_v I I I I #
coedge $-1 $78 $79 $80 $81 forward $31 $-1 #
face $-1 $82 $83 $17 $-1 $84 forward single #
loop $-1 $-1 $85 $33 #
plane-surface $-1 0 20 0 0 1 0 0 0 1 forward_v I I I I #
coedge $-1 $86 $87 $88 $89 forward $34 $-1 #
model_id-kcp-attrib $-1 $-1 $-1 $37 1 990663529 70 927334401 5 #
face $90 $91 $92 $7 $-1 $93 forward single #
loop $-1 $-1 $94 $37 #
plane-surface $-1 20 20 10 0 -1 0 0 0 -1 forward_v I I I I #
coedge $-1 $95 $96 $97 $98 reversed $38 $-1 #
coedge $-1 $99 $40 $100 $101 reversed $26 $-1 #
coedge $-1 $40 $99 $42 $66 forward $26 $-1 #
coedge $-1 $96 $95 $40 $62 forward $38 $-1 #
edge $-1 $102 -10 $103 10 $61 $104 forward 7 unknown #
coedge $-1 $42 $41 $96 $105 reversed $20 $-1 #
coedge $-1 $94 $97 $41 $65 forward $56 $-1 #
edge $-1 $106 -20 $70 20 $64 $107 forward 7 unknown #
edge $-1 $71 -20 $103 20 $60 $108 forward 7 unknown #
coedge $-1 $109 $43 $99 $110 forward $69 $-1 #
coedge $-1 $43 $111 $94 $112 forward $69 $-1 #
loop $-1 $-1 $67 $113 #
vertex $-1 $44 $114 #
vertex $-1 $44 $115 #
straight-curve $-1 40 0 0 0 -1 0 I I #
model_id-kcp-attrib $-1 $-1 $-1 $46 1 990663529 70 927334402 4 #
face $116 $117 $118 $15 $-1 $119 reversed single #
loop $-1 $-1 $120 $46 #
plane-surface $-1 0 -40 0 0 1 0 0 0 1 forward_v I I I I #
coedge $-1 $121 $122 $123 $124 forward $47 $-1 #
coedge $-1 $125 $49 $126 $127 forward $31 $-1 #
coedge $-1 $49 $125 $128 $129 forward $31 $-1 #
coedge $-1 $130 $131 $49 $81 reversed $132 $-1 #
edge $-1 $133 -40 $134 40 $80 $135 forward 7 unknown #
face $-1 $136 $137 $17 $-1 $138 forward single #
loop $-1 $-1 $139 $50 #
plane-surface $-1 40 20 0 1 0 0 0 0 -1 forward_v I I I I #
coedge $-1 $140 $141 $142 $143 forward $51 $-1 #
coedge $-1 $144 $53 $141 $145 reversed $34 $-1 #
coedge $-1 $53 $144 $146 $147 forward $34 $-1 #
coedge $-1 $148 $142 $53 $89 reversed $149 $-1 #
edge $-1 $150 -20 $151 20 $53 $152 forward 7 unknown #
model_id-kcp-attrib $-1 $-1 $-1 $55 1 990663529 70 927334401 6 #
face $153 $154 $155 $7 $-1 $156 reversed single #
loop $-1 $-1 $100 $55 #
plane-surface $-1 0 0 20 0 0 1 1 0 0 forward_v I I I I #
coedge $-1 $157 $64 $68 $112 reversed $56 $-1 #
coedge $-1 $61 $58 $158 $159 reversed $38 $-1 #
coedge $-1 $58 $61 $63 $105 forward $38 $-1 #
coedge $-1 $64 $157 $58 $98 forward $56 $-1 #
edge $-1 $160 -10 $106 10 $97 $161 forward 7 unknown #
coedge $-1 $60 $59 $67 $110 reversed $26 $-1 #
coedge $-1 $158 $162 $59 $101 forward $92 $-1 #
edge $163 $164 -30 $102 10 $100 $165 forward 7 unknown #
vertex $-1 $101 $166 #
vertex $-1 $105 $167 #
straight-curve $-1 0 -20 10 0 0 -1 I I #
edge $-1 $103 -20 $106 20 $96 $168 forward 7 unknown #
vertex $-1 $65 $169 #
straight-curve $-1 20 20 0 1 0 0 I I #
straight-curve $-1 20 -20 0 -1 0 0 I I #
coedge $-1 $170 $67 $162 $171 reversed $69 $-1 #
edge $-1 $71 -5 $164 15 $67 $172 forward 7 unknown #
coedge $-1 $68 $173 $174 $175 reversed $69 $-1 #
edge $-1 $176 -15 $70 5 $68 $177 forward 7 unknown #
face $178 $-1 $69 $7 $-1 $179 reversed single #
point $-1 40 20 0 #
point $-1 40 -20 0 #
model_id-kcp-attrib $-1 $-1 $-1 $74 1 990663529 70 927334402 5 #
face $180 $181 $182 $15 $-1 $183 reversed single #
loop $-1 $-1 $184 $74 #
plane-surface $-1 -40 0 0 1 0 0 0 0 -1 forward_v I I I I #
coedge $-1 $185 $128 $186 $187 forward $75 $-1 #
coedge $-1 $188 $77 $185 $189 forward $47 $-1 #
coedge $-1 $77 $188 $190 $191 forward $47 $-1 #
coedge $-1 $131 $130 $77 $124 reversed $132 $-1 #
edge $-1 $192 -40 $193 40 $123 $194 forward 7 unknown #
coedge $-1 $79 $78 $195 $196 forward $31 $-1 #
coedge $-1 $197 $198 $78 $127 reversed $182 $-1 #
edge $-1 $134 -40 $199 40 $126 $200 forward 7 unknown #
coedge $-1 $120 $201 $79 $129 reversed $75 $-1 #
edge $-1 $202 -40 $133 40 $128 $203 forward 7 unknown #
coedge $-1 $123 $80 $201 $204 forward $132 $-1 #
coedge $-1 $80 $123 $197 $205 reversed $132 $-1 #
loop $-1 $-1 $130 $181 #
vertex $-1 $81 $206 #
vertex $-1 $81 $207 #
straight-curve $-1 40 0 20 0 1 0 I I #
face $-1 $208 $149 $17 $-1 $209 forward single #
loop $-1 $-1 $210 $82 #
plane-surface $-1 40 -20 0 0 -1 0 0 0 -1 forward_v I I I I #
coedge $-1 $211 $212 $213 $214 forward $83 $-1 #
coedge $-1 $215 $85 $212 $216 reversed $51 $-1 #
coedge $-1 $85 $215 $86 $145 forward $51 $-1 #
coedge $-1 $88 $213 $85 $143 reversed $149 $-1 #
edge $-1 $151 -20 $217 20 $85 $218 forward 7 unknown #
coedge $-1 $87 $86 $219 $220 reversed $34 $-1 #
edge $221 $222 0 $151 20 $141 $223 forward 7 unknown #
coedge $-1 $224 $210 $87 $147 reversed $137 $-1 #
edge $225 $226 0 $150 20 $87 $227 forward 7 unknown #
coedge $-1 $213 $88 $210 $228 reversed $149 $-1 #
loop $-1 $-1 $88 $136 #
vertex $-1 $147 $229 #
vertex $-1 $145 $230 #
straight-curve $-1 0 0 20 0 1 0 I I #
model_id-kcp-attrib $-1 $-1 $-1 $91 1 990663529 70 927334401 7 #
face $231 $232 $233 $7 $-1 $234 reversed single #
loop $-1 $-1 $235 $91 #
plane-surface $-1 0 0 -20 0 0 1 1 0 0 forward_v I I I I #
coedge $-1 $97 $94 $236 $237 reversed $56 $-1 #
coedge $-1 $236 $100 $95 $159 forward $92 $-1 #
edge $238 $102 -20 $160 20 $158 $239 forward 7 unknown #
vertex $-1 $159 $240 #
straight-curve $-1 0 20 10 0 0 -1 I I #
coedge $-1 $100 $241 $109 $171 forward $92 $-1 #
attrib_edge_convexity-kcp-attrib $-1 $242 $-1 $101 1 #
vertex $-1 $171 $243 #
straight-curve $-1 10 -20 20 -1 0 0 I I #
point $-1 0 -20 20 #
point $-1 0 -20 0 #
straight-curve $-1 0 0 0 0 1 0 I I #
point $-1 0 20 0 #
coedge $-1 $244 $109 $245 $246 forward $69 $-1 #
edge $247 $248 -40 $164 -20 $109 $249 forward 7 unknown #
straight-curve $-1 40 -20 5 0 0 1 I I #
coedge $-1 $111 $244 $250 $251 reversed $69 $-1 #
coedge $-1 $252 $236 $111 $175 forward $92 $-1 #
edge $253 $176 20 $254 40 $111 $249 forward 7 unknown #
vertex $-1 $112 $255 #
straight-curve $-1 40 20 5 0 0 -1 I I #
model_id-kcp-attrib $-1 $-1 $-1 $113 1 990663529 70 927334401 11 #
plane-surface $-1 40 0 0 -1 0 0 0 0 1 forward_v I I I I #
model_id-kcp-attrib $-1 $-1 $-1 $117 1 990663529 70 927334402 6 #
face $256 $-1 $132 $15 $-1 $257 reversed single #
loop $-1 $-1 $197 $117 #
plane-surface $-1 0 40 0 0 -1 0 0 0 -1 forward_v I I I I #
coedge $-1 $258 $195 $198 $259 forward $118 $-1 #
coedge $-1 $201 $120 $121 $189 reversed $75 $-1 #
coedge $-1 $195 $258 $120 $187 reversed $118 $-1 #
edge $-1 $202 -20 $260 20 $186 $261 forward 7 unknown #
coedge $-1 $122 $121 $258 $262 forward $47 $-1 #
edge $-1 $193 -40 $260 40 $185 $263 forward 7 unknown #
coedge $-1 $198 $197 $122 $191 reversed $182 $-1 #
edge $-1 $264 -40 $192 40 $190 $265 forward 7 unknown #
vertex $-1 $124 $266 #
vertex $-1 $204 $267 #
straight-curve $-1 40 0 -20 0 -1 0 I I #
coedge $-1 $184 $186 $125 $196 reversed $118 $-1 #
edge $-1 $199 -40 $202 40 $195 $268 forward 7 unknown #
coedge $-1 $190 $126 $131 $205 forward $182 $-1 #
coedge $-1 $126 $190 $184 $259 reversed $182 $-1 #
vertex $-1 $127 $269 #
straight-curve $-1 0 40 20 -1 0 0 I I #
coedge $-1 $128 $185 $130 $204 reversed $75 $-1 #
vertex $-1 $196 $270 #
straight-curve $-1 0 -40 20 1 0 0 I I #
edge $-1 $133 -20 $193 20 $130 $271 forward 7 unknown #
edge $-1 $134 -20 $192 20 $131 $272 forward 7 unknown #
point $-1 40 -40 20 #
point $-1 40 40 20 #
face $-1 $-1 $273 $17 $-1 $274 reversed single #
plane-surface $-1 20 0 20 0 0 1 1 0 0 forward_v I I I I #
coedge $-1 $146 $275 $148 $228 forward $137 $-1 #
coedge $-1 $276 $139 $275 $277 reversed $83 $-1 #
coedge $-1 $139 $276 $140 $216 forward $83 $-1 #
coedge $-1 $142 $148 $139 $214 reversed $149 $-1 #
edge $-1 $217 -20 $278 20 $139 $279 forward 7 unknown #
coedge $-1 $141 $140 $280 $281 reversed $51 $-1 #
edge $-1 $282 0 $217 20 $212 $283 forward 7 unknown #
vertex $-1 $216 $284 #
straight-curve $-1 20 20 20 1 0 0 I I #
coedge $-1 $280 $285 $144 $220 forward $273 $-1 #
edge $286 $226 -20 $222 20 $144 $287 forward 7 unknown #
convexity-sys-attrib $-1 $-1 $-1 $145 #
vertex $-1 $220 $288 #
straight-curve $-1 0 20 0 0 0 1 I I #
coedge $-1 $275 $146 $285 $289 reversed $137 $-1 #
convexity-sys-attrib $-1 $-1 $-1 $147 #
vertex $-1 $289 $290 #
straight-curve $-1 0 -20 0 0 0 1 I I #
edge $-1 $278 -20 $150 20 $210 $291 forward 7 unknown #
point $-1 0 -20 20 #
point $-1 0 20 20 #
model_id-kcp-attrib $-1 $-1 $-1 $154 1 990663529 70 927334401 8 #
face $292 $293 $294 $7 $-1 $295 reversed single #
loop $-1 $-1 $296 $154 #
plane-surface $-1 0 -40 0 0 1 0 0 0 1 forward_v I I I I #
coedge $-1 $297 $298 $244 $299 forward $155 $-1 #
coedge $-1 $174 $158 $157 $237 forward $92 $-1 #
edge $300 $160 -10 $176 30 $236 $301 forward 7 unknown #
attrib_edge_convexity-kcp-attrib $-1 $302 $-1 $159 1 #
straight-curve $-1 0 0 20 0 1 0 I I #
point $-1 0 20 20 #
coedge $-1 $162 $303 $304 $305 forward $92 $-1 #
convexity-sys-attrib $-1 $-1 $163 $101 #
point $-1 40 -20 20 #
coedge $-1 $173 $170 $235 $299 reversed $69 $-1 #
coedge $-1 $304 $306 $170 $246 reversed $233 $-1 #
edge $307 $248 -20 $308 20 $170 $309 forward 7 unknown #
attrib_edge_convexity-kcp-attrib $-1 $310 $-1 $171 1 #
vertex $-1 $171 $311 #
straight-curve $-1 40 0 20 0 1 0 I I #
coedge $-1 $312 $313 $173 $251 forward $314 $-1 #
edge $-1 $254 -20 $315 20 $173 $316 forward 7 unknown #
coedge $-1 $303 $174 $313 $317 forward $92 $-1 #
attrib_edge_convexity-kcp-attrib $-1 $318 $-1 $175 1 #
vertex $-1 $175 $319 #
point $-1 40 20 20 #
model_id-kcp-attrib $-1 $-1 $-1 $181 1 990663529 70 927334402 7 #
plane-surface $-1 40 0 0 -1 0 0 0 0 1 forward_v I I I I #
coedge $-1 $186 $184 $188 $262 reversed $118 $-1 #
edge $-1 $199 -20 $264 20 $198 $320 forward 7 unknown #
vertex $-1 $262 $321 #
straight-curve $-1 -40 -40 0 0 0 -1 I I #
edge $-1 $260 -40 $264 40 $258 $322 forward 7 unknown #
straight-curve $-1 0 -40 -20 -1 0 0 I I #
vertex $-1 $191 $323 #
straight-curve $-1 0 40 -20 1 0 0 I I #
point $-1 40 40 -20 #
point $-1 40 -40 -20 #
straight-curve $-1 -40 0 20 0 -1 0 I I #
point $-1 -40 40 20 #
point $-1 -40 -40 20 #
straight-curve $-1 40 -40 0 0 0 -1 I I #
straight-curve $-1 40 40 0 0 0 -1 I I #
loop $-1 $-1 $285 $208 #
plane-surface $-1 20 0 0 0 0 1 1 0 0 forward_v I I I I #
coedge $-1 $210 $224 $211 $277 forward $137 $-1 #
coedge $-1 $212 $211 $324 $325 reversed $83 $-1 #
edge $-1 $326 0 $278 20 $275 $327 forward 7 unknown #
vertex $-1 $277 $328 #
straight-curve $-1 40 0 20 0 -1 0 I I #
coedge $-1 $324 $219 $215 $281 forward $273 $-1 #
edge $329 $222 -20 $282 20 $215 $330 forward 7 unknown #
vertex $-1 $281 $331 #
straight-curve $-1 40 20 0 0 0 1 I I #
point $-1 40 20 20 #
coedge $-1 $219 $324 $224 $289 forward $273 $-1 #
convexity-sys-attrib $-1 $-1 $-1 $220 #
straight-curve $-1 0 0 0 0 1 0 I I #
point $-1 0 20 0 #
edge $332 $326 -20 $226 20 $224 $333 forward 7 unknown #
point $-1 0 -20 0 #
straight-curve $-1 20 -20 20 -1 0 0 I I #
model_id-kcp-attrib $-1 $-1 $-1 $232 1 990663529 70 927334401 9 #
face $334 $113 $314 $7 $-1 $335 reversed single #
loop $-1 $-1 $336 $232 #
plane-surface $-1 -40 0 0 1 0 0 0 0 -1 forward_v I I I I #
coedge $-1 $306 $304 $337 $338 forward $233 $-1 #
coedge $-1 $339 $235 $306 $340 forward $155 $-1 #
coedge $-1 $235 $339 $312 $341 forward $155 $-1 #
edge $-1 $315 -40 $308 40 $244 $342 forward 7 unknown #
attrib_edge_convexity-kcp-attrib $-1 $343 $-1 $237 1 #
straight-curve $-1 10 20 20 1 0 0 I I #
convexity-sys-attrib $-1 $-1 $238 $159 #
coedge $-1 $241 $252 $344 $345 forward $92 $-1 #
coedge $-1 $296 $245 $241 $305 reversed $233 $-1 #
edge $346 $347 -40 $248 40 $304 $348 forward 7 unknown #
coedge $-1 $245 $296 $297 $340 reversed $233 $-1 #
attrib_edge_convexity-kcp-attrib $-1 $349 $-1 $246 1 #
vertex $-1 $246 $350 #
straight-curve $-1 40 -40 0 0 0 -1 I I #
convexity-sys-attrib $-1 $-1 $247 $171 #
point $-1 40 -40 20 #
coedge $-1 $351 $250 $298 $341 reversed $314 $-1 #
coedge $-1 $250 $351 $252 $317 reversed $314 $-1 #
loop $-1 $-1 $250 $293 #
vertex $-1 $299 $352 #
straight-curve $-1 40 40 0 0 0 -1 I I #
edge $353 $254 -40 $354 40 $313 $355 forward 7 unknown #
convexity-sys-attrib $-1 $-1 $253 $175 #
point $-1 40 40 20 #
straight-curve $-1 -40 40 0 0 0 -1 I I #
point $-1 -40 -40 -20 #
straight-curve $-1 -40 0 -20 0 1 0 I I #
point $-1 -40 40 -20 #
coedge $-1 $285 $280 $276 $325 forward $273 $-1 #
edge $356 $282 -20 $326 20 $276 $357 forward 7 unknown #
vertex $-1 $289 $358 #
straight-curve $-1 40 -20 0 0 0 1 I I #
point $-1 40 -20 20 #
convexity-sys-attrib $-1 $-1 $-1 $281 #
straight-curve $-1 20 20 0 1 0 0 I I #
point $-1 40 20 0 #
convexity-sys-attrib $-1 $-1 $-1 $289 #
straight-curve $-1 20 -20 0 -1 0 0 I I #
model_id-kcp-attrib $-1 $-1 $-1 $293 1 990663529 70 927334401 10 #
plane-surface $-1 0 40 0 0 -1 0 0 0 -1 forward_v I I I I #
coedge $-1 $359 $344 $351 $360 forward $294 $-1 #
coedge $-1 $344 $359 $296 $338 reversed $294 $-1 #
edge $361 $347 -20 $362 20 $337 $363 forward 7 unknown #
coedge $-1 $298 $297 $359 $364 forward $155 $-1 #
edge $365 $308 -40 $362 40 $306 $366 forward 7 unknown #
edge $-1 $367 -40 $315 40 $312 $368 forward 7 unknown #
straight-curve $-1 40 0 -20 0 -1 0 I I #
convexity-sys-attrib $-1 $-1 $300 $237 #
coedge $-1 $336 $337 $303 $345 reversed $294 $-1 #
edge $369 $354 -40 $347 40 $344 $370 forward 7 unknown #
attrib_edge_convexity-kcp-attrib $-1 $371 $-1 $305 1 #
vertex $-1 $345 $372 #
straight-curve $-1 0 -40 20 1 0 0 I I #
convexity-sys-attrib $-1 $-1 $307 $246 #
point $-1 40 -40 -20 #
coedge $-1 $313 $312 $336 $360 reversed $314 $-1 #
point $-1 40 40 -20 #
attrib_edge_convexity-kcp-attrib $-1 $373 $-1 $317 1 #
vertex $-1 $317 $374 #
straight-curve $-1 0 40 20 -1 0 0 I I #
convexity-sys-attrib $-1 $-1 $-1 $325 #
straight-curve $-1 40 0 0 0 -1 0 I I #
point $-1 40 -20 0 #
coedge $-1 $337 $336 $339 $364 reversed $294 $-1 #
edge $375 $354 -20 $367 20 $351 $376 forward 7 unknown #
attrib_edge_convexity-kcp-attrib $-1 $377 $-1 $338 1 #
vertex $-1 $364 $378 #
straight-curve $-1 -40 -40 0 0 0 -1 I I #
edge $379 $362 -40 $367 40 $359 $380 forward 7 unknown #
attrib_edge_convexity-kcp-attrib $-1 $381 $-1 $340 1 #
straight-curve $-1 0 -40 -20 -1 0 0 I I #
vertex $-1 $341 $382 #
straight-curve $-1 0 40 -20 1 0 0 I I #
attrib_edge_convexity-kcp-attrib $-1 $383 $-1 $345 1 #
straight-curve $-1 -40 0 20 0 -1 0 I I #
convexity-sys-attrib $-1 $-1 $346 $305 #
point $-1 -40 -40 20 #
convexity-sys-attrib $-1 $-1 $353 $317 #
point $-1 -40 40 20 #
attrib_edge_convexity-kcp-attrib $-1 $384 $-1 $360 1 #
straight-curve $-1 -40 40 0 0 0 -1 I I #
convexity-sys-attrib $-1 $-1 $361 $338 #
point $-1 -40 -40 -20 #
attrib_edge_convexity-kcp-attrib $-1 $385 $-1 $364 1 #
straight-curve $-1 -40 0 -20 0 1 0 I I #
convexity-sys-attrib $-1 $-1 $365 $340 #
point $-1 -40 40 -20 #
convexity-sys-attrib $-1 $-1 $369 $345 #
convexity-sys-attrib $-1 $-1 $375 $360 #
convexity-sys-attrib $-1 $-1 $379 $364 #
End-of-ACIS-data 