600 0 1 0           
103 GICL ACIS Healer - Source: /gicl/data5/repository/UMD/tmp/chamfer1-feature1/chamfer1-feature1.sat - 6 0 18 ACIS 6.0.3 Solaris 24 Sun Apr 14 00:33:58 2002 
1 9.999999999999999547e-07 1.000000000000000036e-10 
body $-1 $1 $-1 $-1 #
lump $-1 $-1 $2 $0 #
shell $-1 $-1 $-1 $3 $-1 $1 #
face $-1 $4 $5 $2 $-1 $6 forward single #
face $-1 $7 $8 $2 $-1 $9 forward single #
loop $-1 $-1 $10 $3 #
plane-surface $-1 0 0 48 0 0 1 1 0 0 forward_v I I I I #
face $-1 $11 $12 $2 $-1 $13 reversed single #
loop $-1 $-1 $14 $4 #
cone-surface $-1 -50 50 36.5 0 0 -1 -4.949747468305830012 4.949747468305830012 0 1 I I 0 1 6.999999999999996447 forward I I I I #
coedge $-1 $15 $16 $17 $18 reversed $5 $-1 #
face $-1 $19 $20 $2 $-1 $21 forward single #
loop $-1 $-1 $22 $7 #
plane-surface $-1 -57 0 33 1 0 0 0 0 -1 forward_v I I I I #
coedge $-1 $17 $23 $22 $24 forward $8 $-1 #
coedge $-1 $25 $10 $26 $27 forward $5 $-1 #
coedge $-1 $10 $28 $29 $30 forward $5 $-1 #
coedge $-1 $31 $14 $10 $18 forward $8 $-1 #
edge $-1 $32 -2.356194490192344837 $33 0.785398163397448279 $10 $34 forward 7 unknown #
face $-1 $35 $36 $2 $-1 $37 forward single #
loop $-1 $-1 $38 $11 #
plane-surface $-1 -53.5 3.5 21.5 -0.7071067811865475727 0 -0.7071067811865475727 -0.7071067811865480168 0 0.7071067811865480168 forward_v I I I I #
coedge $-1 $39 $26 $14 $24 reversed $12 $-1 #
coedge $-1 $14 $40 $38 $41 forward $8 $-1 #
edge $-1 $42 -8 $32 15 $22 $43 forward 7 unknown #
coedge $-1 $44 $15 $45 $46 reversed $5 $-1 #
coedge $-1 $22 $47 $15 $27 reversed $12 $-1 #
edge $-1 $32 -50 $48 50 $26 $49 forward 7 unknown #
coedge $-1 $16 $50 $51 $52 forward $5 $-1 #
coedge $-1 $53 $54 $16 $30 reversed $55 $-1 #
edge $-1 $56 -43 $33 50 $16 $57 forward 7 unknown #
coedge $-1 $40 $17 $54 $58 forward $8 $-1 #
vertex $-1 $24 $59 #
vertex $-1 $30 $60 #
ellipse-curve $-1 -50 50 48 -0 -0 -1 4.949747468305830012 4.949747468305830012 0 1 I I #
face $-1 $61 $62 $2 $-1 $63 forward single #
loop $-1 $-1 $64 $19 #
cone-surface $-1 50 50 36.5 0 0 1 -4.949747468305830012 4.949747468305830012 0 1 I I 0 1 6.999999999999996447 forward I I I I #
coedge $-1 $65 $66 $23 $41 reversed $20 $-1 #
coedge $-1 $47 $22 $66 $67 reversed $12 $-1 #
coedge $-1 $23 $31 $68 $69 forward $8 $-1 #
edge $-1 $70 -1.570796326794896558 $42 1.268826313857320704e-16 $38 $71 forward 7 unknown #
vertex $-1 $67 $72 #
straight-curve $-1 -57 50 33 0 0 1 I I #
coedge $-1 $73 $25 $74 $75 forward $5 $-1 #
coedge $-1 $76 $77 $25 $46 forward $78 $-1 #
edge $-1 $79 -0.785398163397448279 $48 0.785398163397448279 $25 $80 forward 7 unknown #
coedge $-1 $26 $39 $76 $81 reversed $12 $-1 #
vertex $-1 $27 $82 #
straight-curve $-1 -57 0 48 0 -1 0 I I #
coedge $-1 $28 $83 $84 $85 forward $5 $-1 #
coedge $-1 $86 $87 $28 $52 reversed $88 $-1 #
edge $-1 $89 -43 $56 43 $28 $90 forward 7 unknown #
coedge $-1 $91 $29 $87 $92 forward $55 $-1 #
coedge $-1 $29 $91 $31 $58 reversed $55 $-1 #
loop $-1 $-1 $54 $61 #
vertex $-1 $52 $93 #
straight-curve $-1 -43 0 48 0 1 0 I I #
edge $-1 $33 -19 $94 4 $54 $95 forward 7 unknown #
point $-1 -57 50 48 #
point $-1 -43 50 48 #
face $-1 $96 $55 $2 $-1 $97 forward single #
loop $-1 $-1 $98 $35 #
plane-surface $-1 43 0 25 -1 0 0 0 0 1 forward_v I I I I #
coedge $-1 $99 $100 $101 $102 forward $36 $-1 #
coedge $-1 $103 $38 $104 $105 forward $20 $-1 #
coedge $-1 $38 $106 $39 $67 forward $20 $-1 #
edge $-1 $107 -50 $42 50 $39 $108 forward 7 unknown #
coedge $-1 $109 $104 $40 $69 reversed $110 $-1 #
edge $-1 $94 -1.268826313857320704e-16 $70 1.570796326794896558 $68 $111 forward 7 unknown #
vertex $-1 $41 $112 #
ellipse-curve $-1 -50 50 18 0.7071067811865475727 0 0.7071067811865475727 -7 8.881784197001250351e-16 7 0.7071067811865480168 I I #
point $-1 -57 50 25 #
coedge $-1 $113 $44 $114 $115 reversed $5 $-1 #
coedge $-1 $116 $117 $44 $75 reversed $118 $-1 #
edge $-1 $79 -50 $119 50 $74 $120 forward 7 unknown #
coedge $-1 $121 $45 $47 $81 forward $78 $-1 #
coedge $-1 $45 $122 $116 $123 forward $78 $-1 #
loop $-1 $-1 $124 $125 #
vertex $-1 $123 $126 #
ellipse-curve $-1 -50 -50 48 -0 -0 -1 -4.949747468305830012 -4.949747468305830012 0 1 I I #
edge $-1 $48 -15 $107 8 $47 $127 forward 7 unknown #
point $-1 -57 -50 48 #
coedge $-1 $50 $113 $128 $129 reversed $5 $-1 #
coedge $-1 $98 $130 $50 $85 reversed $62 $-1 #
edge $-1 $131 -35 $89 58 $50 $132 forward 7 unknown #
coedge $-1 $133 $51 $130 $134 forward $88 $-1 #
coedge $-1 $51 $133 $53 $92 reversed $88 $-1 #
loop $-1 $-1 $133 $96 #
vertex $-1 $52 $135 #
straight-curve $-1 0 -43 48 -1 0 0 I I #
coedge $-1 $54 $53 $109 $136 reversed $55 $-1 #
edge $-1 $56 -23 $137 0 $53 $138 forward 7 unknown #
point $-1 -43 -43 48 #
vertex $-1 $69 $139 #
straight-curve $-1 -43 50 29 0 0 -1 I I #
face $-1 $140 $88 $2 $-1 $141 forward single #
plane-surface $-1 -43 0 25 1 0 0 0 0 -1 forward_v I I I I #
coedge $-1 $142 $84 $99 $143 reversed $62 $-1 #
coedge $-1 $128 $64 $98 $143 forward $36 $-1 #
coedge $-1 $64 $144 $145 $146 forward $36 $-1 #
coedge $-1 $147 $148 $64 $102 reversed $149 $-1 #
edge $-1 $150 -1.570796326794896558 $151 1.268826313857320704e-16 $101 $152 forward 7 unknown #
coedge $-1 $106 $65 $153 $154 reversed $20 $-1 #
coedge $-1 $68 $155 $65 $105 reversed $110 $-1 #
edge $-1 $70 -55.25 $156 46.80025253169419841 $104 $157 forward 7 unknown #
coedge $-1 $66 $103 $121 $158 reversed $20 $-1 #
vertex $-1 $158 $159 #
straight-curve $-1 -57 0 25 0 1 0 I I #
coedge $-1 $160 $68 $91 $136 forward $110 $-1 #
loop $-1 $-1 $68 $161 #
ellipse-curve $-1 -50 50 18 -0.7071067811865475727 0 0.7071067811865475727 7 8.881784197001250351e-16 7 0.7071067811865480168 I I #
point $-1 -50 57 18 #
coedge $-1 $83 $73 $162 $163 forward $5 $-1 #
coedge $-1 $164 $165 $73 $115 forward $166 $-1 #
edge $-1 $167 -0.785398163397448279 $119 0.785398163397448279 $73 $168 forward 7 unknown #
coedge $-1 $169 $74 $77 $123 reversed $118 $-1 #
coedge $-1 $74 $169 $164 $170 reversed $118 $-1 #
loop $-1 $-1 $116 $171 #
vertex $-1 $75 $172 #
straight-curve $-1 0 -57 48 1 0 0 I I #
coedge $-1 $124 $76 $106 $158 forward $78 $-1 #
coedge $-1 $77 $124 $173 $174 forward $78 $-1 #
edge $-1 $175 -8 $79 15 $116 $176 forward 7 unknown #
coedge $-1 $122 $121 $177 $178 reversed $78 $-1 #
face $-1 $171 $78 $2 $-1 $179 forward single #
point $-1 -50 -57 48 #
straight-curve $-1 -57 -50 33 0 0 -1 I I #
coedge $-1 $144 $99 $83 $129 forward $36 $-1 #
edge $-1 $131 -2.356194490192344837 $180 0.785398163397448279 $83 $181 forward 7 unknown #
coedge $-1 $84 $142 $86 $134 reversed $62 $-1 #
vertex $-1 $143 $182 #
straight-curve $-1 43 15 48 0 -1 0 I I #
coedge $-1 $87 $86 $183 $184 reversed $88 $-1 #
edge $-1 $89 -23 $185 0 $130 $186 forward 7 unknown #
point $-1 43 -43 48 #
edge $-1 $94 -50 $137 43 $109 $187 reversed 7 unknown #
vertex $-1 $184 $188 #
straight-curve $-1 -43 -43 25 0 0 -1 I I #
point $-1 -43 50 25 #
face $-1 $189 $190 $2 $-1 $191 forward single #
plane-surface $-1 0 -43 25 0 1 0 0 0 1 forward_v I I I I #
coedge $-1 $130 $98 $148 $192 reversed $62 $-1 #
edge $-1 $151 -4 $131 19 $98 $193 forward 7 unknown #
coedge $-1 $100 $128 $194 $195 forward $36 $-1 #
coedge $-1 $196 $197 $100 $146 reversed $198 $-1 #
edge $-1 $199 -1.268826313857320704e-16 $150 1.570796326794896558 $145 $200 forward 7 unknown #
coedge $-1 $201 $101 $197 $202 reversed $149 $-1 #
coedge $-1 $101 $203 $142 $192 forward $149 $-1 #
loop $-1 $-1 $101 $189 #
vertex $-1 $202 $204 #
vertex $-1 $192 $205 #
ellipse-curve $-1 50 50 18 0.7071067811865475727 0 0.7071067811865475727 -7 8.881784197001250351e-16 7 0.7071067811865480168 I I #
coedge $-1 $206 $177 $103 $154 forward $207 $-1 #
edge $-1 $208 -34.68991476531807194 $156 -22.97868651298878717 $103 $209 forward 7 unknown #
coedge $-1 $104 $160 $206 $210 reversed $110 $-1 #
vertex $-1 $105 $211 #
straight-curve $-1 -50 1.75 18 0 -1 0 I I #
edge $-1 $107 -1.268826313857320704e-16 $208 0.261799387799143024 $106 $212 forward 7 unknown #
point $-1 -57 -50 25 #
coedge $-1 $155 $109 $213 $214 reversed $110 $-1 #
face $-1 $125 $110 $2 $-1 $215 reversed single #
coedge $-1 $216 $194 $113 $163 reversed $217 $-1 #
edge $-1 $167 -50 $180 50 $162 $218 forward 7 unknown #
coedge $-1 $219 $114 $117 $170 forward $166 $-1 #
coedge $-1 $114 $220 $216 $221 forward $166 $-1 #
loop $-1 $-1 $222 $223 #
vertex $-1 $115 $224 #
ellipse-curve $-1 50 -50 48 -0 -0 -1 4.949747468305830012 -4.949747468305830012 0 1 I I #
coedge $-1 $117 $116 $225 $226 reversed $118 $-1 #
edge $-1 $119 -15 $227 8 $117 $228 forward 7 unknown #
face $-1 $223 $118 $2 $-1 $229 reversed single #
point $-1 50 -57 48 #
coedge $-1 $230 $225 $122 $174 reversed $231 $-1 #
edge $-1 $232 -0.261799387799143024 $175 1.268826313857320704e-16 $173 $233 forward 7 unknown #
vertex $-1 $226 $234 #
straight-curve $-1 -50 -57 33 0 0 1 I I #
coedge $-1 $153 $235 $124 $178 forward $207 $-1 #
edge $-1 $232 -0.5235987755983038117 $208 0.523598775598305477 $124 $236 forward 7 unknown #
cone-surface $-1 -50 -50 36.5 -0 -0 -1 -4.949747468305830012 -4.949747468305830012 0 1 I I 0 1 6.999999999999996447 forward I I I I #
vertex $-1 $163 $237 #
ellipse-curve $-1 50 50 48 -0 -0 -1 4.949747468305830012 4.949747468305830012 0 1 I I #
point $-1 43 50 48 #
coedge $-1 $238 $213 $133 $184 forward $239 $-1 #
edge $-1 $137 -43 $185 43 $183 $240 reversed 7 unknown #
vertex $-1 $241 $242 #
straight-curve $-1 43 -43 25 0 0 -1 I I #
straight-curve $-1 -43 0 25 0 1 0 I I #
point $-1 -43 -43 25 #
face $-1 $243 $149 $2 $-1 $244 reversed single #
loop $-1 $-1 $245 $140 #
cone-surface $-1 49.17504208861569737 -49.17504208861569737 27.07453702522735028 -0.5773502691896258421 0.5773502691896258421 -0.5773502691896258421 2.857738033247040121 -2.857738033247049891 -5.715476066494080243 1 I I 0 1 7.000000000000001776 forward I I I I #
edge $-1 $185 -43 $151 50 $148 $246 reversed 7 unknown #
straight-curve $-1 43 50 29 0 0 1 I I #
coedge $-1 $162 $247 $144 $195 reversed $217 $-1 #
edge $-1 $180 -15 $199 8 $194 $248 forward 7 unknown #
coedge $-1 $249 $145 $247 $250 forward $198 $-1 #
coedge $-1 $145 $251 $147 $202 forward $198 $-1 #
loop $-1 $-1 $145 $252 #
vertex $-1 $146 $253 #
ellipse-curve $-1 50 50 18 -0.7071067811865475727 0 0.7071067811865475727 7 8.881784197001250351e-16 7 0.7071067811865480168 I I #
coedge $-1 $203 $147 $254 $255 reversed $149 $-1 #
edge $-1 $256 -46.80025253169419841 $150 55.25 $147 $257 forward 7 unknown #
coedge $-1 $148 $201 $238 $241 reversed $149 $-1 #
point $-1 50 57 18 #
point $-1 43 50 25 #
coedge $-1 $258 $153 $155 $210 forward $207 $-1 #
loop $-1 $-1 $153 $259 #
vertex $-1 $158 $260 #
straight-curve $-1 -36.73324915610189834 -31.7835016877961003 4.733249156101898336 0.5773502691896259531 0.5773502691896259531 -0.5773502691896259531 I I #
edge $-1 $156 -1.570796326794896558 $261 -1.047197551196597853 $155 $262 forward 7 unknown #
point $-1 -50 -45.05025253169419841 18 #
ellipse-curve $-1 -50 -50 18 0.7071067811865475727 0 0.7071067811865475727 -7 -8.881784197001250351e-16 7 0.7071067811865480168 I I #
coedge $-1 $183 $263 $160 $214 forward $239 $-1 #
edge $-1 $261 -32.77073541760805853 $137 -21.79497266190833926 $213 $264 forward 7 unknown #
plane-surface $-1 -46.5 3.5 21.5 -0.7071067811865475727 0 0.7071067811865475727 0.7071067811865480168 0 0.7071067811865480168 forward_v I I I I #
coedge $-1 $247 $162 $165 $221 reversed $217 $-1 #
loop $-1 $-1 $194 $265 #
straight-curve $-1 57 0 48 0 1 0 I I #
coedge $-1 $222 $164 $266 $267 forward $166 $-1 #
coedge $-1 $165 $222 $249 $268 forward $166 $-1 #
edge $-1 $269 -8 $167 15 $216 $270 forward 7 unknown #
coedge $-1 $220 $219 $271 $272 reversed $166 $-1 #
face $-1 $265 $166 $2 $-1 $273 forward single #
point $-1 57 -50 48 #
coedge $-1 $173 $266 $169 $226 forward $231 $-1 #
edge $-1 $227 -50 $175 50 $169 $274 forward 7 unknown #
vertex $-1 $267 $275 #
straight-curve $-1 50 -57 33 0 0 -1 I I #
plane-surface $-1 0 -57 33 0 1 0 0 0 1 forward_v I I I I #
coedge $-1 $276 $173 $235 $277 reversed $231 $-1 #
loop $-1 $-1 $278 $279 #
vertex $-1 $178 $280 #
ellipse-curve $-1 -50 -50 18 0 0.7071067811865475727 0.7071067811865475727 -8.881784197001250351e-16 -7 7 0.7071067811865480168 I I #
point $-1 -50 -57 25 #
coedge $-1 $177 $258 $230 $277 forward $207 $-1 #
ellipse-curve $-1 -50 -50 27.89949493661167068 0.3250575836718689327 0.3250575836718689327 -0.8880738339771148127 -4.949747468305820242 -4.949747468305830012 -3.623466631435300123 0.8880738339771160339 I I #
point $-1 57 50 48 #
coedge $-1 $281 $183 $203 $241 forward $239 $-1 #
loop $-1 $-1 $281 $243 #
straight-curve $-1 0 -43 25 -1 -0 -0 I I #
edge $-1 $185 21.79497266190833926 $282 32.77073541760805853 $238 $283 forward 7 unknown #
point $-1 43 -43 25 #
face $-1 $279 $239 $2 $-1 $284 reversed single #
plane-surface $-1 46.5 3.5 21.5 0.7071067811865475727 0 0.7071067811865475727 0.7071067811865480168 0 -0.7071067811865480168 forward_v I I I I #
coedge $-1 $271 $254 $251 $285 forward $190 $-1 #
straight-curve $-1 43 0 25 -0 -1 -0 I I #
coedge $-1 $194 $216 $196 $250 reversed $217 $-1 #
straight-curve $-1 57 50 33 0 0 -1 I I #
coedge $-1 $251 $196 $220 $268 reversed $198 $-1 #
edge $-1 $199 -50 $269 50 $247 $286 forward 7 unknown #
coedge $-1 $197 $249 $245 $285 reversed $198 $-1 #
face $-1 $-1 $198 $2 $-1 $287 forward single #
point $-1 57 50 25 #
coedge $-1 $245 $288 $201 $255 forward $190 $-1 #
edge $-1 $282 1.047197551196597853 $256 1.570796326794896558 $201 $289 forward 7 unknown #
vertex $-1 $285 $290 #
straight-curve $-1 50 1.75 18 0 1 0 I I #
coedge $-1 $235 $206 $263 $291 forward $207 $-1 #
face $-1 $161 $207 $2 $-1 $292 forward single #
point $-1 -56.76148078402349739 -51.81173331571760343 24.76148078402347963 #
vertex $-1 $291 $293 #
ellipse-curve $-1 -45.05025253169419841 -45.05025253169419841 22.94974746830580159 -0.7071067811865475727 0 0.7071067811865475727 0 -8.573214099741129246 0 0.8164965809277260345 I I #
coedge $-1 $213 $294 $258 $291 reversed $239 $-1 #
straight-curve $-1 -30.41666666666669983 -30.41666666666669983 37.58333333333334281 0.5773502691896259531 0.5773502691896259531 0.5773502691896259531 I I #
face $-1 $252 $217 $2 $-1 $295 reversed single #
coedge $-1 $225 $278 $219 $267 reversed $231 $-1 #
edge $-1 $227 -1.268826313857320704e-16 $296 0.261799387799143024 $266 $297 forward 7 unknown #
edge $-1 $298 -0.261799387799143024 $269 1.268826313857320704e-16 $249 $299 forward 7 unknown #
vertex $-1 $250 $300 #
straight-curve $-1 57 -50 33 0 0 1 I I #
coedge $-1 $301 $245 $222 $272 forward $190 $-1 #
edge $-1 $298 -0.523598775598305477 $296 0.5235987755983038117 $222 $302 forward 7 unknown #
cone-surface $-1 50 -50 36.5 0 0 -1 4.949747468305830012 -4.949747468305830012 0 1 I I 0 1 6.999999999999996447 forward I I I I #
straight-curve $-1 0 -57 25 -1 0 0 I I #
point $-1 50 -57 25 #
coedge $-1 $278 $230 $294 $303 forward $231 $-1 #
edge $-1 $304 22.97868651298878717 $232 34.68991476531807194 $230 $305 forward 7 unknown #
coedge $-1 $266 $276 $301 $306 reversed $231 $-1 #
face $-1 $259 $231 $2 $-1 $307 forward single #
point $-1 -51.81173331571760343 -56.76148078402349739 24.76148078402347963 #
coedge $-1 $294 $238 $288 $308 reversed $239 $-1 #
vertex $-1 $241 $309 #
straight-curve $-1 30.41666666666669983 -30.41666666666669983 37.58333333333334281 0.5773502691896259531 -0.5773502691896259531 -0.5773502691896259531 I I #
plane-surface $-1 0 -46.5 21.5 0 -0.7071067811865475727 0.7071067811865475727 1 0 0 forward_v I I I I #
edge $-1 $256 22.97868651298878717 $298 34.68991476531807194 $251 $310 forward 7 unknown #
straight-curve $-1 57 0 25 0 -1 0 I I #
plane-surface $-1 53.5 3.5 21.5 0.7071067811865475727 0 -0.7071067811865475727 -0.7071067811865480168 0 -0.7071067811865480168 forward_v I I I I #
coedge $-1 $254 $301 $281 $308 forward $190 $-1 #
ellipse-curve $-1 45.05025253169419841 -45.05025253169419841 22.94974746830580159 0.7071067811865475727 0 0.7071067811865475727 0 -8.573214099741129246 0 0.8164965809277260345 I I #
point $-1 50 -45.05025253169419841 18 #
edge $-1 $261 1.047197551196597853 $304 1.57079632679489678 $263 $311 forward 7 unknown #
cone-surface $-1 -49.17504208861569737 -49.17504208861569737 27.07453702522735028 -0.5773502691896258421 -0.5773502691896258421 0.5773502691896258421 -2.857738033247040121 -2.857738033247049891 -5.715476066494080243 1 I I 0 1 7.000000000000001776 forward I I I I #
point $-1 -49.33685958156470264 -49.33685958156470264 18.66314041843529736 #
coedge $-1 $263 $281 $276 $303 reversed $239 $-1 #
plane-surface $-1 57 0 33 -1 0 0 0 0 1 forward_v I I I I #
vertex $-1 $267 $312 #
ellipse-curve $-1 50 -50 18 0 0.7071067811865475727 0.7071067811865475727 8.881784197001250351e-16 -7 7 0.7071067811865480168 I I #
vertex $-1 $272 $313 #
ellipse-curve $-1 50 -50 18 -0.7071067811865475727 0 0.7071067811865475727 7 -8.881784197001250351e-16 7 0.7071067811865480168 I I #
point $-1 57 -50 25 #
coedge $-1 $288 $271 $278 $306 forward $190 $-1 #
ellipse-curve $-1 50 -50 27.89949493661167068 -0.3250575836718689327 0.3250575836718689327 -0.8880738339771148127 4.949747468305820242 -4.949747468305830012 -3.623466631435300123 0.8880738339771160339 I I #
edge $-1 $304 -45.05025253169419841 $314 45.05025253169419841 $294 $315 forward 7 unknown #
vertex $-1 $277 $316 #
straight-curve $-1 -31.7835016877961003 -36.73324915610189834 4.733249156101898336 -0.5773502691896259531 -0.5773502691896259531 0.5773502691896259531 I I #
edge $-1 $296 -34.68991476531807194 $314 -22.97868651298878717 $278 $317 forward 7 unknown #
plane-surface $-1 0 -53.5 21.5 0 -0.7071067811865475727 -0.7071067811865475727 -1 0 0 forward_v I I I I #
edge $-1 $314 -1.57079632679489678 $282 -1.047197551196597853 $281 $318 forward 7 unknown #
point $-1 49.33685958156470264 -49.33685958156470264 18.66314041843529736 #
straight-curve $-1 36.73324915610189834 -31.7835016877961003 4.733249156101898336 0.5773502691896259531 -0.5773502691896259531 0.5773502691896259531 I I #
ellipse-curve $-1 -45.05025253169419841 -45.05025253169419841 22.94974746830580159 0 -0.7071067811865475727 0.7071067811865475727 -8.573214099741120364 1.332267629550190018e-15 4.440892098500630106e-16 0.8164965809277260345 I I #
point $-1 51.81173331571760343 -56.76148078402349739 24.76148078402347963 #
point $-1 56.76148078402349739 -51.81173331571760343 24.76148078402347963 #
vertex $-1 $303 $319 #
straight-curve $-1 0 -50 18 1 0 0 I I #
point $-1 -45.05025253169419841 -50 18 #
straight-curve $-1 31.7835016877961003 -36.73324915610189834 4.733249156101898336 -0.5773502691896259531 0.5773502691896259531 -0.5773502691896259531 I I #
ellipse-curve $-1 45.05025253169419841 -45.05025253169419841 22.94974746830580159 0 -0.7071067811865475727 0.7071067811865475727 8.573214099741120364 1.332267629550190018e-15 4.440892098500630106e-16 0.8164965809277260345 I I #
point $-1 45.05025253169419841 -50 18 #
End-of-ACIS-data 