105 321 1 0                             
body $-1 $1 $-1 $2 #
lump $-1 $-1 $3 $0 #
transform $-1 1 0 0 0 1 0 0 0 1 0 0 33 1 0 0 0 #
shell $-1 $-1 $-1 $4 $1 #
face $-1 $5 $6 $3 $-1 $7 forward single #
face $-1 $8 $9 $3 $-1 $10 forward single #
loop $-1 $-1 $11 $4 #
plane-surface $-1 0 0 15 0 0 1 1 0 0 0 #
face $-1 $12 $13 $3 $-1 $14 reversed single #
loop $-1 $-1 $15 $5 #
cone-surface $-1 -50 50 3.5 0 0 -1 -4.94974746830583 4.94974746830583 0 1 0 1 0 #
coedge $-1 $16 $17 $18 $19 1 $6 $-1 #
face $-1 $20 $21 $3 $-1 $22 forward single #
loop $-1 $-1 $23 $8 #
plane-surface $-1 -57 0 0 1 0 0 0 0 -1 0 #
coedge $-1 $18 $24 $23 $25 0 $9 $-1 #
coedge $-1 $26 $11 $27 $28 0 $6 $-1 #
coedge $-1 $11 $29 $30 $31 0 $6 $-1 #
coedge $-1 $32 $15 $11 $19 0 $9 $-1 #
edge $-1 $33 $34 $11 $35 0 #
face $-1 $36 $37 $3 $-1 $38 forward single #
loop $-1 $-1 $39 $12 #
plane-surface $-1 -53.5 3.5 -11.5 -0.707106781186548 0 -0.707106781186548 -0.707106781186548 0 0.707106781186548 0 #
coedge $-1 $40 $27 $15 $25 1 $13 $-1 #
coedge $-1 $15 $41 $39 $42 0 $9 $-1 #
edge $-1 $43 $33 $23 $44 0 #
coedge $-1 $45 $16 $46 $47 1 $6 $-1 #
coedge $-1 $23 $48 $16 $28 1 $13 $-1 #
edge $-1 $33 $49 $27 $50 0 #
coedge $-1 $17 $51 $52 $53 0 $6 $-1 #
coedge $-1 $54 $55 $17 $31 1 $56 $-1 #
edge $-1 $57 $34 $17 $58 0 #
coedge $-1 $41 $18 $55 $59 0 $9 $-1 #
vertex $-1 $25 $60 #
vertex $-1 $31 $61 #
ellipse-curve $-1 -50 50 15 -0 -0 -1 4.94974746830583 4.94974746830583 0 1 #
face $-1 $62 $63 $3 $-1 $64 forward single #
loop $-1 $-1 $65 $20 #
cone-surface $-1 50 50 3.5 0 0 1 -4.94974746830583 4.94974746830583 0 1 0 1 0 #
coedge $-1 $66 $67 $24 $42 1 $21 $-1 #
coedge $-1 $48 $23 $67 $68 1 $13 $-1 #
coedge $-1 $24 $32 $69 $70 0 $9 $-1 #
edge $-1 $71 $43 $39 $72 0 #
vertex $-1 $68 $73 #
straight-curve $-1 -57 50 0 0 0 1 #
coedge $-1 $74 $26 $75 $76 0 $6 $-1 #
coedge $-1 $77 $78 $26 $47 0 $79 $-1 #
edge $-1 $80 $49 $26 $81 0 #
coedge $-1 $27 $40 $77 $82 1 $13 $-1 #
vertex $-1 $28 $83 #
straight-curve $-1 -57 0 15 0 -1 0 #
coedge $-1 $29 $84 $85 $86 0 $6 $-1 #
coedge $-1 $87 $88 $29 $53 1 $89 $-1 #
edge $-1 $90 $57 $29 $91 0 #
coedge $-1 $92 $30 $88 $93 0 $56 $-1 #
coedge $-1 $30 $92 $32 $59 1 $56 $-1 #
loop $-1 $-1 $55 $62 #
vertex $-1 $53 $94 #
straight-curve $-1 -43 0 15 0 1 0 #
edge $-1 $34 $95 $55 $96 0 #
point $-1 -57 50 15 #
point $-1 -43 50 15 #
face $-1 $97 $56 $3 $-1 $98 forward single #
loop $-1 $-1 $99 $36 #
plane-surface $-1 43 0 -8 -1 0 0 0 0 1 0 #
coedge $-1 $100 $101 $102 $103 0 $37 $-1 #
coedge $-1 $104 $39 $105 $106 0 $21 $-1 #
coedge $-1 $39 $107 $40 $68 0 $21 $-1 #
edge $-1 $108 $43 $40 $109 0 #
coedge $-1 $110 $105 $41 $70 1 $111 $-1 #
edge $-1 $95 $71 $69 $112 0 #
vertex $-1 $42 $113 #
ellipse-curve $-1 -50 50 -15 0.707106781186548 -0 0.707106781186548 -7 8.88178419700125e-16 7 0.707106781186548 #
point $-1 -57 50 -8 #
coedge $-1 $114 $45 $115 $116 1 $6 $-1 #
coedge $-1 $117 $118 $45 $76 1 $119 $-1 #
edge $-1 $80 $120 $75 $121 0 #
coedge $-1 $122 $46 $48 $82 0 $79 $-1 #
coedge $-1 $46 $123 $117 $124 0 $79 $-1 #
loop $-1 $-1 $125 $126 #
vertex $-1 $124 $127 #
ellipse-curve $-1 -50 -50 15 -0 -0 -1 -4.94974746830583 -4.94974746830583 0 1 #
edge $-1 $49 $108 $48 $128 0 #
point $-1 -57 -50 15 #
coedge $-1 $51 $114 $129 $130 1 $6 $-1 #
coedge $-1 $99 $131 $51 $86 1 $63 $-1 #
edge $-1 $132 $90 $51 $133 0 #
coedge $-1 $134 $52 $131 $135 0 $89 $-1 #
coedge $-1 $52 $134 $54 $93 1 $89 $-1 #
loop $-1 $-1 $134 $97 #
vertex $-1 $53 $136 #
straight-curve $-1 0 -43 15 -1 0 0 #
coedge $-1 $55 $54 $110 $137 1 $56 $-1 #
edge $-1 $57 $138 $54 $139 0 #
point $-1 -43 -43 15 #
vertex $-1 $70 $140 #
straight-curve $-1 -43 50 -4 0 0 -1 #
face $-1 $141 $89 $3 $-1 $142 forward single #
plane-surface $-1 -43 0 -8 1 0 0 0 0 -1 0 #
coedge $-1 $143 $85 $100 $144 1 $63 $-1 #
coedge $-1 $129 $65 $99 $144 0 $37 $-1 #
coedge $-1 $65 $145 $146 $147 0 $37 $-1 #
coedge $-1 $148 $149 $65 $103 1 $150 $-1 #
edge $-1 $151 $152 $102 $153 0 #
coedge $-1 $107 $66 $154 $155 1 $21 $-1 #
coedge $-1 $69 $156 $66 $106 1 $111 $-1 #
edge $-1 $71 $157 $105 $158 0 #
coedge $-1 $67 $104 $122 $159 1 $21 $-1 #
vertex $-1 $159 $160 #
straight-curve $-1 -57 0 -8 0 1 0 #
coedge $-1 $161 $69 $92 $137 0 $111 $-1 #
loop $-1 $-1 $69 $162 #
ellipse-curve $-1 -50 50 -15 -0.707106781186548 0 0.707106781186548 7 8.88178419700125e-16 7 0.707106781186548 #
point $-1 -50 57 -15 #
coedge $-1 $84 $74 $163 $164 0 $6 $-1 #
coedge $-1 $165 $166 $74 $116 0 $167 $-1 #
edge $-1 $168 $120 $74 $169 0 #
coedge $-1 $170 $75 $78 $124 1 $119 $-1 #
coedge $-1 $75 $170 $165 $171 1 $119 $-1 #
loop $-1 $-1 $117 $172 #
vertex $-1 $76 $173 #
straight-curve $-1 0 -57 15 1 0 0 #
coedge $-1 $125 $77 $107 $159 0 $79 $-1 #
coedge $-1 $78 $125 $174 $175 0 $79 $-1 #
edge $-1 $176 $80 $117 $177 0 #
coedge $-1 $123 $122 $178 $179 1 $79 $-1 #
face $-1 $172 $79 $3 $-1 $180 forward single #
point $-1 -50 -57 15 #
straight-curve $-1 -57 -50 0 0 0 -1 #
coedge $-1 $145 $100 $84 $130 0 $37 $-1 #
edge $-1 $132 $181 $84 $182 0 #
coedge $-1 $85 $143 $87 $135 1 $63 $-1 #
vertex $-1 $144 $183 #
straight-curve $-1 43 15 15 0 -1 0 #
coedge $-1 $88 $87 $184 $185 1 $89 $-1 #
edge $-1 $90 $186 $131 $187 0 #
point $-1 43 -43 15 #
edge $-1 $95 $138 $110 $188 1 #
vertex $-1 $185 $189 #
straight-curve $-1 -43 -43 -8 0 0 -1 #
point $-1 -43 50 -8 #
face $-1 $190 $191 $3 $-1 $192 forward single #
plane-surface $-1 0 -43 -8 0 1 0 0 0 1 0 #
coedge $-1 $131 $99 $149 $193 1 $63 $-1 #
edge $-1 $152 $132 $99 $194 0 #
coedge $-1 $101 $129 $195 $196 0 $37 $-1 #
coedge $-1 $197 $198 $101 $147 1 $199 $-1 #
edge $-1 $200 $151 $146 $201 0 #
coedge $-1 $202 $102 $198 $203 1 $150 $-1 #
coedge $-1 $102 $204 $143 $193 0 $150 $-1 #
loop $-1 $-1 $102 $190 #
vertex $-1 $203 $205 #
vertex $-1 $193 $206 #
ellipse-curve $-1 50 50 -15 0.707106781186548 0 0.707106781186548 -7 8.88178419700125e-16 7 0.707106781186548 #
coedge $-1 $207 $178 $104 $155 0 $208 $-1 #
edge $-1 $209 $157 $104 $210 0 #
coedge $-1 $105 $161 $207 $211 1 $111 $-1 #
vertex $-1 $106 $212 #
straight-curve $-1 -50 1.75 -15 0 -1 0 #
edge $-1 $108 $209 $107 $213 0 #
point $-1 -57 -50 -8 #
coedge $-1 $156 $110 $214 $215 1 $111 $-1 #
face $-1 $126 $111 $3 $-1 $216 reversed single #
coedge $-1 $217 $195 $114 $164 1 $218 $-1 #
edge $-1 $168 $181 $163 $219 0 #
coedge $-1 $220 $115 $118 $171 0 $167 $-1 #
coedge $-1 $115 $221 $217 $222 0 $167 $-1 #
loop $-1 $-1 $223 $224 #
vertex $-1 $116 $225 #
ellipse-curve $-1 50 -50 15 -0 -0 -1 4.94974746830583 -4.94974746830583 0 1 #
coedge $-1 $118 $117 $226 $227 1 $119 $-1 #
edge $-1 $120 $228 $118 $229 0 #
face $-1 $224 $119 $3 $-1 $230 reversed single #
point $-1 50 -57 15 #
coedge $-1 $231 $226 $123 $175 1 $232 $-1 #
edge $-1 $233 $176 $174 $234 0 #
vertex $-1 $227 $235 #
straight-curve $-1 -50 -57 0 0 0 1 #
coedge $-1 $154 $236 $125 $179 0 $208 $-1 #
edge $-1 $233 $209 $125 $237 0 #
cone-surface $-1 -50 -50 3.5 -0 -0 -1 -4.94974746830583 -4.94974746830583 0 1 0 1 0 #
vertex $-1 $164 $238 #
ellipse-curve $-1 50 50 15 -0 -0 -1 4.94974746830583 4.94974746830583 0 1 #
point $-1 43 50 15 #
coedge $-1 $239 $214 $134 $185 0 $240 $-1 #
edge $-1 $138 $186 $184 $241 1 #
vertex $-1 $242 $243 #
straight-curve $-1 43 -43 -8 0 0 -1 #
straight-curve $-1 -43 0 -8 0 1 0 #
point $-1 -43 -43 -8 #
face $-1 $244 $150 $3 $-1 $245 reversed single #
loop $-1 $-1 $246 $141 #
cone-surface $-1 49.1750420886157 -49.1750420886157 -5.92546297477265 -0.577350269189626 0.577350269189626 -0.577350269189626 2.85773803324704 -2.85773803324705 -5.71547606649408 1 0 1 0 #
edge $-1 $186 $152 $149 $247 1 #
straight-curve $-1 43 50 -4 0 0 1 #
coedge $-1 $163 $248 $145 $196 1 $218 $-1 #
edge $-1 $181 $200 $195 $249 0 #
coedge $-1 $250 $146 $248 $251 0 $199 $-1 #
coedge $-1 $146 $252 $148 $203 0 $199 $-1 #
loop $-1 $-1 $146 $253 #
vertex $-1 $147 $254 #
ellipse-curve $-1 50 50 -15 -0.707106781186548 -0 0.707106781186548 7 8.88178419700125e-16 7 0.707106781186548 #
coedge $-1 $204 $148 $255 $256 1 $150 $-1 #
edge $-1 $257 $151 $148 $258 0 #
coedge $-1 $149 $202 $239 $242 1 $150 $-1 #
point $-1 50 57 -15 #
point $-1 43 50 -8 #
coedge $-1 $259 $154 $156 $211 0 $208 $-1 #
loop $-1 $-1 $154 $260 #
vertex $-1 $159 $261 #
straight-curve $-1 -36.7332491561019 -31.7835016877961 -28.2667508438981 0.577350269189626 0.577350269189626 -0.577350269189626 #
edge $-1 $157 $262 $156 $263 0 #
point $-1 -50 -45.0502525316942 -15 #
ellipse-curve $-1 -50 -50 -15 0.707106781186548 -0 0.707106781186548 -7 -8.88178419700125e-16 7 0.707106781186548 #
coedge $-1 $184 $264 $161 $215 0 $240 $-1 #
edge $-1 $262 $138 $214 $265 0 #
plane-surface $-1 -46.5 3.5 -11.5 -0.707106781186548 0 0.707106781186548 0.707106781186548 0 0.707106781186548 0 #
coedge $-1 $248 $163 $166 $222 1 $218 $-1 #
loop $-1 $-1 $195 $266 #
straight-curve $-1 57 0 15 0 1 0 #
coedge $-1 $223 $165 $267 $268 0 $167 $-1 #
coedge $-1 $166 $223 $250 $269 0 $167 $-1 #
edge $-1 $270 $168 $217 $271 0 #
coedge $-1 $221 $220 $272 $273 1 $167 $-1 #
face $-1 $266 $167 $3 $-1 $274 forward single #
point $-1 57 -50 15 #
coedge $-1 $174 $267 $170 $227 0 $232 $-1 #
edge $-1 $228 $176 $170 $275 0 #
vertex $-1 $268 $276 #
straight-curve $-1 50 -57 0 0 0 -1 #
plane-surface $-1 0 -57 0 0 1 -0 -0 0 1 0 #
coedge $-1 $277 $174 $236 $278 1 $232 $-1 #
loop $-1 $-1 $279 $280 #
vertex $-1 $179 $281 #
ellipse-curve $-1 -50 -50 -15 -0 0.707106781186548 0.707106781186548 -8.88178419700125e-16 -7 7 0.707106781186548 #
point $-1 -50 -57 -8 #
coedge $-1 $178 $259 $231 $278 0 $208 $-1 #
ellipse-curve $-1 -50 -50 -5.10050506338833 0.325057583671869 0.325057583671869 -0.888073833977115 -4.94974746830582 -4.94974746830583 -3.6234666314353 0.888073833977116 #
point $-1 57 50 15 #
coedge $-1 $282 $184 $204 $242 0 $240 $-1 #
loop $-1 $-1 $282 $244 #
straight-curve $-1 0 -43 -8 -1 -0 -0 #
edge $-1 $186 $283 $239 $284 0 #
point $-1 43 -43 -8 #
face $-1 $280 $240 $3 $-1 $285 reversed single #
plane-surface $-1 46.5 3.5 -11.5 0.707106781186548 0 0.707106781186548 0.707106781186548 0 -0.707106781186548 0 #
coedge $-1 $272 $255 $252 $286 0 $191 $-1 #
straight-curve $-1 43 0 -8 -0 -1 -0 #
coedge $-1 $195 $217 $197 $251 1 $218 $-1 #
straight-curve $-1 57 50 0 0 0 -1 #
coedge $-1 $252 $197 $221 $269 1 $199 $-1 #
edge $-1 $200 $270 $248 $287 0 #
coedge $-1 $198 $250 $246 $286 1 $199 $-1 #
face $-1 $-1 $199 $3 $-1 $288 forward single #
point $-1 57 50 -8 #
coedge $-1 $246 $289 $202 $256 0 $191 $-1 #
edge $-1 $283 $257 $202 $290 0 #
vertex $-1 $286 $291 #
straight-curve $-1 50 1.75 -15 0 1 0 #
coedge $-1 $236 $207 $264 $292 0 $208 $-1 #
face $-1 $162 $208 $3 $-1 $293 forward single #
point $-1 -56.7614807840235 -51.8117333157176 -8.23851921597652 #
vertex $-1 $292 $294 #
ellipse-curve $-1 -45.0502525316942 -45.0502525316942 -10.0502525316942 -0.707106781186548 0 0.707106781186548 0 -8.57321409974113 0 0.816496580927726 #
coedge $-1 $214 $295 $259 $292 1 $240 $-1 #
straight-curve $-1 -30.4166666666667 -30.4166666666667 4.58333333333334 0.577350269189626 0.577350269189626 0.577350269189626 #
face $-1 $253 $218 $3 $-1 $296 reversed single #
coedge $-1 $226 $279 $220 $268 1 $232 $-1 #
edge $-1 $228 $297 $267 $298 0 #
edge $-1 $299 $270 $250 $300 0 #
vertex $-1 $251 $301 #
straight-curve $-1 57 -50 0 0 0 1 #
coedge $-1 $302 $246 $223 $273 0 $191 $-1 #
edge $-1 $299 $297 $223 $303 0 #
cone-surface $-1 50 -50 3.5 0 0 -1 4.94974746830583 -4.94974746830583 0 1 0 1 0 #
straight-curve $-1 0 -57 -8 -1 0 0 #
point $-1 50 -57 -8 #
coedge $-1 $279 $231 $295 $304 0 $232 $-1 #
edge $-1 $305 $233 $231 $306 0 #
coedge $-1 $267 $277 $302 $307 1 $232 $-1 #
face $-1 $260 $232 $3 $-1 $308 forward single #
point $-1 -51.8117333157176 -56.7614807840235 -8.23851921597652 #
coedge $-1 $295 $239 $289 $309 1 $240 $-1 #
vertex $-1 $242 $310 #
straight-curve $-1 30.4166666666667 -30.4166666666667 4.58333333333334 0.577350269189626 -0.577350269189626 -0.577350269189626 #
plane-surface $-1 0 -46.5 -11.5 0 -0.707106781186548 0.707106781186548 1 0 0 0 #
edge $-1 $257 $299 $252 $311 0 #
straight-curve $-1 57 0 -8 0 -1 0 #
plane-surface $-1 53.5 3.5 -11.5 0.707106781186548 0 -0.707106781186548 -0.707106781186548 0 -0.707106781186548 0 #
coedge $-1 $255 $302 $282 $309 0 $191 $-1 #
ellipse-curve $-1 45.0502525316942 -45.0502525316942 -10.0502525316942 0.707106781186548 0 0.707106781186548 0 -8.57321409974113 0 0.816496580927726 #
point $-1 50 -45.0502525316942 -15 #
edge $-1 $262 $305 $264 $312 0 #
cone-surface $-1 -49.1750420886157 -49.1750420886157 -5.92546297477265 -0.577350269189626 -0.577350269189626 0.577350269189626 -2.85773803324704 -2.85773803324705 -5.71547606649408 1 0 1 0 #
point $-1 -49.3368595815647 -49.3368595815647 -14.3368595815647 #
coedge $-1 $264 $282 $277 $304 1 $240 $-1 #
plane-surface $-1 57 0 0 -1 0 0 0 -0 1 0 #
vertex $-1 $268 $313 #
ellipse-curve $-1 50 -50 -15 -0 0.707106781186548 0.707106781186548 8.88178419700125e-16 -7 7 0.707106781186548 #
vertex $-1 $273 $314 #
ellipse-curve $-1 50 -50 -15 -0.707106781186548 -0 0.707106781186548 7 -8.88178419700125e-16 7 0.707106781186548 #
point $-1 57 -50 -8 #
coedge $-1 $289 $272 $279 $307 0 $191 $-1 #
ellipse-curve $-1 50 -50 -5.10050506338833 -0.325057583671869 0.325057583671869 -0.888073833977115 4.94974746830582 -4.94974746830583 -3.6234666314353 0.888073833977116 #
edge $-1 $305 $315 $295 $316 0 #
vertex $-1 $278 $317 #
straight-curve $-1 -31.7835016877961 -36.7332491561019 -28.2667508438981 -0.577350269189626 -0.577350269189626 0.577350269189626 #
edge $-1 $297 $315 $279 $318 0 #
plane-surface $-1 0 -53.5 -11.5 0 -0.707106781186548 -0.707106781186548 -1 0 0 0 #
edge $-1 $315 $283 $282 $319 0 #
point $-1 49.3368595815647 -49.3368595815647 -14.3368595815647 #
straight-curve $-1 36.7332491561019 -31.7835016877961 -28.2667508438981 0.577350269189626 -0.577350269189626 0.577350269189626 #
ellipse-curve $-1 -45.0502525316942 -45.0502525316942 -10.0502525316942 0 -0.707106781186548 0.707106781186548 -8.57321409974112 1.33226762955019e-15 4.44089209850063e-16 0.816496580927726 #
point $-1 51.8117333157176 -56.7614807840235 -8.23851921597652 #
point $-1 56.7614807840235 -51.8117333157176 -8.23851921597652 #
vertex $-1 $304 $320 #
straight-curve $-1 0 -50 -15 1 0 -0 #
point $-1 -45.0502525316942 -50 -15 #
straight-curve $-1 31.7835016877961 -36.7332491561019 -28.2667508438981 -0.577350269189626 0.577350269189626 -0.577350269189626 #
ellipse-curve $-1 45.0502525316942 -45.0502525316942 -10.0502525316942 0 -0.707106781186548 0.707106781186548 8.57321409974112 1.33226762955019e-15 4.44089209850063e-16 0.816496580927726 #
point $-1 45.0502525316942 -50 -15 #
