600 0 1 0           
97 GICL ACIS Healer - Source: /gicl/data5/repository/VDS/impeller_housing/impeller_housing.sat - 6 0 18 ACIS 6.0.3 Solaris 24 Sat Apr 13 20:04:00 2002 
1 9.999999999999999547e-07 1.000000000000000036e-10 
body $-1 $1 $-1 $-1 #
lump $-1 $-1 $2 $0 #
shell $-1 $-1 $-1 $3 $-1 $1 #
face $-1 $4 $5 $2 $-1 $6 reversed single #
face $-1 $7 $8 $2 $-1 $9 reversed single #
loop $-1 $10 $11 $3 #
cone-surface $-1 3.389764270885574859 -46.09008506129718796 50.0548379068433178 -1 -1.665334536937734811e-16 1.837587157091369328e-15 7.47088016705748973e-14 -4.281196172139284405e-15 40.65592284005073509 1 I I 0 1 40.65592284005073509 forward I I I I #
face $-1 $12 $13 $2 $-1 $14 reversed single #
loop $-1 $15 $16 $4 #
torus-surface $-1 65.55411884847924853 -46.09008506129718086 50.05483790684320411 -1 -1.665334536937734811e-16 1.837587157091369328e-15 50.82932033557291618 -36.1291711876844559 1.837587157091369328e-15 -1.053031360026543716e-16 1 forward_v I I I I #
loop $-1 $-1 $17 $3 #
coedge $-1 $11 $11 $18 $19 forward $5 $-1 #
face $-1 $20 $21 $2 $-1 $22 reversed single #
loop $-1 $23 $24 $7 #
plane-surface $-1 59.70152482610295408 -46.09008506129718086 65.0203070629593185 1 1.665334536937734811e-16 -1.837587157091369328e-15 -1.837587157091369328e-12 1.053031360026543657e-13 -1000 forward_v I I I I #
loop $-1 $-1 $25 $4 #
coedge $-1 $16 $16 $17 $26 forward $8 $-1 #
coedge $-1 $17 $17 $16 $26 reversed $10 $-1 #
coedge $-1 $18 $18 $11 $19 reversed $27 $-1 #
edge $-1 $28 -6.946666040696846743e-17 $28 6.283185307179586232 $18 $29 forward 7 unknown #
face $-1 $30 $31 $2 $-1 $32 forward single #
loop $-1 $33 $34 $12 #
cone-surface $-1 61.70152482610293276 -46.09008506129718086 50.05483790684321121 -1 -1.665334536937734811e-16 1.837587157091369328e-15 2.711103442982333211e-14 -1.553600837227869305e-15 14.75360465227462647 1 I I 0 1 14.75360465227462647 forward I I I I #
loop $-1 $-1 $35 $7 #
coedge $-1 $24 $24 $25 $36 forward $13 $-1 #
coedge $-1 $25 $25 $24 $36 reversed $15 $-1 #
edge $-1 $37 -6.946666040696849208e-17 $37 6.283185307179586232 $17 $38 forward 7 unknown #
loop $-1 $39 $18 $30 #
vertex $-1 $19 $40 #
ellipse-curve $-1 1.389764270885573083 -46.09008506129718796 50.0548379068433178 -1 -1.665334536937734811e-16 1.837587157091369328e-15 7.47088016705748973e-14 -4.281196172139284405e-15 40.65592284005073509 1 I I #
face $-1 $41 $27 $2 $-1 $42 forward single #
loop $-1 $43 $44 $20 #
cone-surface $-1 17.70668859176421961 -46.09008506129718796 50.05483790684328937 -1 -1.665334536937734811e-16 1.837587157091369328e-15 8.205915029894038723e-14 -4.702408716149902878e-15 44.65592284005073509 1 I I 0 1 44.65592284005073509 forward I I I I #
loop $-1 $-1 $45 $12 #
coedge $-1 $34 $34 $35 $46 forward $21 $-1 #
coedge $-1 $35 $35 $34 $46 reversed $23 $-1 #
edge $-1 $47 5.73463586105117115e-16 $47 6.28318530717958712 $25 $48 forward 7 unknown #
vertex $-1 $26 $49 #
ellipse-curve $-1 30.88685772062100199 -46.09008506129718086 50.05483790684326806 -1 -1.665334536937734811e-16 1.837587157091369328e-15 7.47088016705748973e-14 -4.281196172139284405e-15 40.65592284005073509 1 I I #
loop $-1 $-1 $50 $30 #
point $-1 1.38976427088564769 -46.09008506129719507 90.71076074689405289 #
face $-1 $51 $52 $2 $-1 $53 forward single #
plane-surface $-1 1.389764270885613939 -46.09008506129719507 72.38279932686869245 -1 -1.665334536937734811e-16 1.837587157091369328e-15 1.837587157091369328e-12 -1.053031360026543657e-13 1000 forward_v I I I I #
loop $-1 $-1 $54 $20 #
coedge $-1 $44 $44 $50 $55 reversed $31 $-1 #
coedge $-1 $45 $45 $56 $57 reversed $33 $-1 #
edge $-1 $58 5.869093281887469901e-16 $58 6.28318530717958712 $35 $59 forward 7 unknown #
vertex $-1 $36 $60 #
ellipse-curve $-1 59.70152482610293276 -46.09008506129718796 50.05483790684321121 -1 -1.665334536937734811e-16 1.837587157091369328e-15 2.788967341242861127e-14 -1.598220830552177995e-15 15.17733365995758987 1 I I #
point $-1 30.88685772062108015 -46.09008506129718796 90.71076074689399604 #
coedge $-1 $50 $50 $44 $55 forward $39 $-1 #
face $-1 $-1 $61 $2 $-1 $62 forward single #
loop $-1 $63 $56 $41 #
plane-surface $-1 63.70152482610295408 -46.09008506129718086 59.43164023298053422 1 1.665334536937734811e-16 -1.837587157091369328e-15 -1.837587157091369328e-12 1.053031360026543657e-13 -1000 forward_v I I I I #
coedge $-1 $54 $54 $64 $65 forward $43 $-1 #
edge $-1 $66 -5.381186836196998466e-17 $66 6.283185307179586232 $50 $67 forward 7 unknown #
coedge $-1 $56 $56 $45 $57 forward $52 $-1 #
edge $-1 $68 1.053031360026543716e-16 $68 6.283185307179586232 $45 $69 forward 7 unknown #
vertex $-1 $46 $70 #
ellipse-curve $-1 59.70152482610293276 -46.09008506129718796 50.05483790684321121 -1 -1.665334536937734811e-16 1.837587157091369328e-15 2.711103442982331948e-14 -1.553600837227868516e-15 14.75360465227461937 1 I I #
point $-1 59.70152482610295408 -46.09008506129718086 65.23217156680080109 #
loop $-1 $71 $64 $51 #
torus-surface $-1 65.55411884847924853 -46.09008506129717375 50.05483790684320411 -1 -1.665334536937734811e-16 1.837587157091369328e-15 50.82932033557291618 -32.1291711876844488 1.837587157091369328e-15 -1.053031360026543716e-16 1 forward_v I I I I #
loop $-1 $-1 $72 $41 #
coedge $-1 $64 $64 $54 $65 reversed $61 $-1 #
edge $-1 $73 -5.381186836196991071e-17 $73 6.283185307179586232 $54 $74 forward 7 unknown #
vertex $-1 $55 $75 #
ellipse-curve $-1 1.389764270885573083 -46.09008506129718796 50.0548379068433178 -1 -1.665334536937734811e-16 1.837587157091369328e-15 8.205915029894038723e-14 -4.702408716149902878e-15 44.65592284005073509 1 I I #
vertex $-1 $57 $76 #
ellipse-curve $-1 63.70152482610293276 -46.09008506129718086 50.05483790684320411 -1 -1.665334536937734811e-16 1.837587157091369328e-15 2.711103442982333211e-14 -1.553600837227869305e-15 14.75360465227462647 1 I I #
point $-1 59.70152482610295408 -46.09008506129718086 64.80844255911783591 #
loop $-1 $-1 $77 $51 #
coedge $-1 $72 $72 $77 $78 reversed $63 $-1 #
vertex $-1 $65 $79 #
ellipse-curve $-1 34.02361291264286791 -46.09008506129718086 50.05483790684326095 -1 -1.665334536937734811e-16 1.837587157091369328e-15 8.205915029894038723e-14 -4.702408716149902878e-15 44.65592284005073509 1 I I #
point $-1 1.389764270885653019 -46.09008506129719507 94.71076074689405289 #
point $-1 63.70152482610296119 -46.09008506129718086 64.80844255911783591 #
coedge $-1 $77 $77 $72 $78 forward $71 $-1 #
edge $-1 $80 -2.735801501361083575e-16 $80 6.283185307179586232 $77 $81 forward 7 unknown #
point $-1 34.02361291264294607 -46.09008506129718796 94.71076074689401025 #
vertex $-1 $78 $82 #
ellipse-curve $-1 63.70152482610292566 -46.09008506129717375 50.05483790684320411 -1 -1.665334536937734811e-16 1.837587157091369328e-15 3.446138305818881257e-14 -1.974813381238487186e-15 18.7536046522746318 1 I I #
point $-1 63.70152482610296119 -46.09008506129718086 68.80844255911783591 #
End-of-ACIS-data 