**ABCDEFGHIJKLMNOPQRSTUVWXYZabcdefghijklmnopqrstuvwxyz**************************
**PARASOLID !"#$%&'()*+,-./:;<=>?@[\]^_`{|}~0123456789**************************
**PART1;
MC=unknown;
MC_MODEL=unknown;
MC_ID=unknown;
OS=WindowsNT;
OS_RELEASE=4.0;
FRU=unknown;
APPL=IronCAD;
SITE=Visionary Design Systems Inc, Atlanta, GA;
USER=market;
FORMAT=text;
GUISE=transmit;
KEY=V:\ZData\nativeICS\ICS3\impeller_housing;
FILE=V:\ZData\nativeICS\ICS3\impeller_housing.X_T;
DATE=unknown;
**PART2;
SCH=SCH_1100129_11004;
USFLD_SIZE=0;
**PART3;
**END_OF_HEADER*****************************************************************
T51 : TRANSMIT FILE created by modeller version 110012917 SCH_1100129_110040 12
 1 177 0 0 0 0 0 0 1e3 1e-8 0 2 0 1 0 1 1 3 4 5 0 6 7 0 13 3 3 0 1 0 8 0 0 9 0 5
0 4 74 0 8 10 0 0 +.063701524826103 -.0460900850612972 .0500548379068432 1 16653
34536937735e-31 -183758715709137e-29 -1665334536937735e-31 1 1053031360026546e-3
1 31 5 77 0 7 11 0 0 +.0637015248261029 -.0460900850612972 .0500548379068432 1 1
665334536937735e-31 -183758715709137e-29 -1665334536937735e-31 1 105303136002654
6e-31 .01875360465227465 19 6 37 0 1 9 0 12 V16 7 60 0 ?13 0 14 5 0 0 1 17 13 0
 15 13 13 0 16 7 0 0 +16 14 54 0 ?17 7 18 11 0 0 1 17 17 0 19 17 17 0 20 14 0 0
 +16 18 48 0 ?21 14 22 23 0 0 1 31 11 76 0 14 23 5 0 +.03402361291264285 -.04609
00850612972 .0500548379068433 1 1665334536937735e-31 -183758715709137e-29 -16653
34536937735e-31 1 1053031360026546e-31 .04465592284005075 31 23 75 0 18 24 11 0
 +.001389764270885572 -.0460900850612972 .0500548379068433 1 1665334536937735e-3
1 -183758715709137e-29 -1665334536937735e-31 1 1053031360026546e-31 .04465592284
005075 31 24 148 0 22 25 23 0 +.001389764270885572 -.0460900850612972 .050054837
9068433 1 1665334536937735e-31 -183758715709137e-29 -1665334536937735e-31 1 1053
031360026546e-31 .04065592284005075 16 22 108 0 ?26 18 27 24 0 0 1 31 25 149 0 2
7 28 24 0 +.0637015248261029 -.0460900850612972 .0500548379068432 1 166533453693
7735e-31 -183758715709137e-29 -1665334536937735e-31 1 1053031360026546e-31 .0147
5360465227462 16 27 110 0 ?29 22 30 25 0 0 1 31 28 150 0 30 31 25 0 +.0597015248
261029 -.0460900850612972 .0500548379068432 1 1665334536937735e-31 -183758715709
137e-29 -1665334536937735e-31 1 1053031360026546e-31 .01475360465227462 16 30 11
2 0 ?32 27 33 28 0 0 1 31 31 151 0 33 34 28 0 +.0597015248261029 -.0460900850612
972 .0500548379068432 1 1665334536937735e-31 -183758715709137e-29 -1665334536937
735e-31 1 1053031360026546e-31 .0151773336599576 16 33 114 0 ?35 30 36 31 0 0 1
 31 34 152 0 36 0 31 0 +.030886857720621 -.0460900850612972 .0500548379068433 1
 1665334536937735e-31 -183758715709137e-29 -1665334536937735e-31 1 1053031360026
546e-31 .04065592284005075 16 36 116 0 ?37 33 0 34 0 0 1 17 37 0 38 37 37 0 39 3
6 0 0 +15 38 121 0 37 40 0 17 39 0 41 39 39 0 37 36 0 0 -15 41 138 0 39 42 43 14
 42 136 0 ?0 44 41 3 45 -0 0 0 44 12 15 43 139 0 35 42 0 17 35 0 43 35 35 0 46 3
3 0 0 +17 46 0 47 46 46 0 35 33 0 0 -15 47 134 0 46 44 48 14 44 132 0 ?42 49 47
 3 50 -0 0 42 49 12 15 48 135 0 32 44 0 17 32 0 48 32 32 0 51 30 0 0 +17 51 0 52
 51 51 0 32 30 0 0 -15 52 131 0 51 49 0 14 49 128 0 ?44 40 53 3 54 +0 0 44 40 12
 14 40 118 0 ?49 55 56 3 57 -0 0 49 55 12 15 53 130 0 29 49 52 51 54 145 0 49 50
 57 0 -.01388976427088556 -.0460900850612972 .0500548379068433 1 166533453693773
5e-31 -183758715709137e-29 .01475360465227462 -1665334536937735e-31 1 1053031360
026546e-31 13 12 36 0 0 0 0 0 0 6 8 14 8 105 0 ?58 0 15 3 4 +0 0 58 0 12 14 58 6
3 0 ?59 8 19 3 10 +0 0 59 8 12 15 15 81 0 13 8 60 15 60 102 0 61 8 0 17 61 0 60
 61 61 0 29 27 0 0 -17 29 0 53 29 29 0 61 27 0 0 +14 59 57 0 ?55 58 62 3 63 +0 0
 55 58 12 15 19 80 0 17 58 64 54 10 73 0 58 63 4 0 -.0655541188484793 -.04609008
50612972 .0500548379068432 1 1665334536937735e-31 -183758715709137e-29 .05082932
03355729 .03212917118768445 -1665334536937735e-31 1 1053031360026546e-31 51 63 7
2 0 59 65 10 0 +.01388976427088556 -.0460900850612972 .0500548379068433 1 166533
4536937735e-31 -183758715709137e-29 .04465592284005075 -1665334536937735e-31 1 1
053031360026546e-31 50 65 71 0 55 57 63 0 +.001389764270885654 -.046090085061297
2 .0947107607468941 -1 -1665334536937735e-31 183758715709137e-29 166533453693773
5e-31 -1 -1053031360026546e-31 14 55 51 0 ?40 59 66 3 65 +0 0 40 59 12 51 57 142
 0 40 54 65 0 +.01388976427088556 -.0460900850612972 .0500548379068433 1 1665334
536937735e-31 -183758715709137e-29 .04065592284005075 -1665334536937735e-31 1 10
53031360026546e-31 15 66 97 0 26 55 67 17 26 0 66 26 26 0 68 22 0 0 +15 67 50 0
 69 55 0 17 69 0 67 69 69 0 21 18 0 0 -17 21 0 62 21 21 0 69 18 0 0 +15 62 79 0
 21 59 70 15 70 56 0 20 59 0 17 20 0 70 20 20 0 17 14 0 0 -17 68 0 56 68 68 0 26
 22 0 0 -15 56 120 0 68 40 38 15 64 62 0 16 58 0 17 16 0 64 16 16 0 13 7 0 0 -50
 50 146 0 44 45 54 0 +.059701524826103 -.0460900850612972 .0500548379068432 1 16
65334536937735e-31 -183758715709137e-29 -1665334536937735e-31 1 1053031360026546
e-31 54 45 147 0 42 0 50 0 -.0655541188484793 -.0460900850612972 .05005483790684
32 1 1665334536937735e-31 -183758715709137e-29 .0508293203355729 .03612917118768
445 -1665334536937735e-31 1 1053031360026546e-31 19 9 1 0 1 0 6 3 S1 0 
