600 0 2 0           
24 FBMach with ACIS - 6.0.3 13 ACIS 6.0.3 NT 24 Wed May 23 17:46:38 2001 
1 9.9999999999999995e-007 1e-010 
body $2 $3 $-1 $4 #
bdycol-kcp $-1 1 3 $5 $6 $7 #
model_id-kcp-attrib $-1 $-1 $-1 $0 1 990654398 50 691142657 1 #
lump $-1 $-1 $8 $0 #
transform $-1 -1.6653345369377348e-016 1 0 1.8375871570913693e-015 3.0601973573374841e-031 1 1 1.6653345369377348e-016 -1.8375871570913693e-015 1.3897642708855729 -46.090085061297188 50.054837906843318 1 rotate no_reflect no_shear #
body $9 $10 $-1 $11 #
body $12 $13 $-1 $14 #
body $15 $16 $-1 $17 #
shell $-1 $-1 $-1 $18 $-1 $3 #
model_id-kcp-attrib $-1 $-1 $-1 $5 1 990654398 60 691798018 1 #
lump $-1 $-1 $19 $5 #
transform $-1 1 0 0 0 1 0 0 0 1 32.545644548494252 -46.090085061297174 50.054837906843261 1 no_rotate no_reflect no_shear #
rgb_color-st-attrib $-1 $20 $-1 $6 0.5 1 1 #
lump $-1 $-1 $21 $6 #
transform $-1 3.8285889215894375e-016 -4.6885143195523885e-032 -1 -1.2246063538223773e-016 -1 0 -1 1.2246063538223773e-016 -3.8285889215894375e-016 61.701524826102926 -46.090085061297181 50.054837906843211 1 rotate no_reflect no_shear #
rgb_color-st-attrib $-1 $22 $-1 $7 0.5 1 1 #
lump $-1 $-1 $23 $7 #
transform $-1 1 0 0 0 1 0 0 0 1 32.545644548494252 -46.090085061297174 50.054837906843261 1 no_rotate no_reflect no_shear #
face $24 $25 $26 $8 $-1 $27 reversed single #
shell $-1 $-1 $-1 $28 $-1 $10 #
model_id-kcp-attrib $-1 $-1 $12 $6 1 990654398 100 694419459 1 #
shell $-1 $-1 $-1 $29 $-1 $13 #
model_id-kcp-attrib $-1 $-1 $15 $7 1 990654398 160 698351620 1 #
shell $-1 $-1 $-1 $30 $-1 $16 #
model_id-kcp-attrib $-1 $-1 $-1 $18 1 990654398 50 691142657 2 #
face $31 $32 $33 $8 $-1 $34 reversed single #
loop $-1 $35 $36 $18 #
cone-surface $-1 -6.4291833575674776e-016 7.1054273576010019e-015 2.0000000000000018 0 6.447744471313573e-033 -1 -4.281196172139297e-015 40.655922840050735 -7.129623844869178e-031 1 I I 0 1 40.655922840050735 forward I I I I #
face $-1 $37 $38 $19 $-1 $39 forward single #
face $-1 $40 $41 $21 $-1 $42 forward single #
face $-1 $43 $44 $23 $-1 $45 reversed single #
model_id-kcp-attrib $-1 $-1 $-1 $25 1 990654398 50 691142657 3 #
face $46 $47 $48 $8 $-1 $49 reversed single #
loop $-1 $50 $51 $25 #
torus-surface $-1 -3.7754690598145561e-015 7.1054273576010011e-015 64.16435457759367 0 6.447744471313573e-033 -1 50.829320335572916 -36.129171187684456 -1.0530313600265468e-016 1 -1.7536494923307173e-032 forward_v I I I I #
loop $-1 $-1 $52 $18 #
coedge $-1 $36 $36 $53 $54 forward $26 $-1 #
face $-1 $55 $56 $19 $-1 $57 reversed single #
loop $-1 $-1 $58 $28 #
plane-surface $-1 0 0 44.655922840050806 0 0 1 1 0 0 forward_v I I I I #
face $-1 $59 $60 $21 $-1 $61 forward single #
loop $-1 $62 $63 $29 #
cone-surface $-1 0 0 -7.1054273576010019e-015 -2.2204460492503131e-015 2.8899408907601121e-016 1 1.6323971955563359e-030 14.753604652274626 -4.2637045370717067e-015 1 I I 0 1 14.753604652274626 forward I I I I #
face $-1 $64 $65 $23 $-1 $45 reversed single #
loop $-1 $-1 $66 $30 #
cone-surface $-1 -31.155880277608681 -1.4210854715202004e-014 6.3948846218409017e-014 -1 -1.6653345369377348e-016 1.8375871570913693e-015 -8.2059150298940375e-014 -7.6618396842289245e-016 -44.655922840050735 1 I I 0 1 44.655922840050735 forward I I I I #
model_id-kcp-attrib $-1 $-1 $-1 $32 1 990654398 50 691142657 4 #
face $67 $68 $69 $8 $-1 $70 reversed single #
loop $-1 $71 $72 $32 #
plane-surface $-1 1.2291578188953991e-015 14.965469156116109 58.311760555217361 0 -6.447744471313573e-033 1 1.0530313600265468e-013 -1000 1.7536494923307172e-029 forward_v I I I I #
loop $-1 $-1 $73 $25 #
coedge $-1 $51 $51 $52 $74 forward $33 $-1 #
coedge $-1 $52 $52 $51 $74 reversed $35 $-1 #
coedge $-1 $53 $53 $36 $54 reversed $75 $-1 #
edge $76 $77 0 $77 6.2831853071796004 $53 $78 forward 7 unknown #
face $-1 $79 $80 $19 $-1 $81 reversed single #
loop $-1 $-1 $82 $37 #
plane-surface $-1 0 0 -44.655922840050806 0 0 1 1 0 0 forward_v I I I I #
coedge $-1 $83 $84 $85 $86 forward $38 $-1 #
face $-1 $-1 $87 $21 $-1 $88 forward single #
loop $-1 $-1 $89 $40 #
plane-surface $-1 0 0 -2.0000000000000355 0 0 -1 -1 0 0 forward_v I I I I #
loop $-1 $-1 $90 $29 #
coedge $-1 $63 $63 $89 $91 reversed $41 $-1 #
face $-1 $92 $93 $23 $-1 $45 reversed single #
loop $-1 $-1 $94 $43 #
coedge $-1 $95 $96 $97 $98 reversed $44 $-1 #
model_id-kcp-attrib $-1 $-1 $-1 $47 1 990654398 50 691142657 5 #
face $99 $100 $101 $8 $-1 $102 forward single #
loop $103 $104 $105 $47 #
cone-surface $-1 -4.0113646157395639e-015 7.1054273576010011e-015 60.311760555217361 0 6.447744471313573e-033 -1 -1.5536008372278738e-015 14.753604652274626 -2.587265130850951e-031 1 I I 0 1 14.753604652274626 forward I I I I #
loop $106 $-1 $107 $32 #
coedge $-1 $72 $72 $73 $108 forward $48 $-1 #
coedge $-1 $73 $73 $72 $108 reversed $50 $-1 #
edge $-1 $109 0 $109 6.2831853071796004 $52 $110 forward 7 unknown #
loop $-1 $111 $53 $100 #
attrib_edge_convexity-kcp-attrib $-1 $112 $-1 $54 1 #
vertex $-1 $54 $113 #
ellipse-curve $-1 -7.6537897113898559e-016 7.1054273576010019e-015 0 0 6.447744471313573e-033 -1 -4.281196172139297e-015 40.655922840050735 -7.129623844869178e-031 1 I I #
face $114 $115 $116 $19 $-1 $117 reversed single #
loop $-1 $-1 $118 $55 #
plane-surface $-1 0 -44.655922840050749 0 0 1 0 0 0 1 forward_v I I I I #
coedge $-1 $119 $120 $121 $122 forward $56 $-1 #
coedge $-1 $123 $58 $124 $125 forward $38 $-1 #
coedge $-1 $58 $123 $126 $127 forward $38 $-1 #
coedge $-1 $128 $129 $58 $86 reversed $130 $-1 #
edge $-1 $131 -44.655922840050749 $132 44.655922840050749 $85 $133 forward 7 unknown #
loop $-1 $-1 $134 $59 #
plane-surface $-1 0 0 2.0000000000000355 0 0 1 1 0 0 forward_v I I I I #
coedge $-1 $89 $89 $63 $91 forward $60 $-1 #
coedge $-1 $90 $90 $134 $135 reversed $62 $-1 #
edge $-1 $136 0 $136 6.2831853071795862 $89 $137 forward 7 unknown #
face $-1 $138 $139 $23 $-1 $45 reversed single #
loop $-1 $-1 $140 $64 #
coedge $-1 $141 $142 $143 $144 reversed $65 $-1 #
coedge $-1 $145 $66 $146 $147 forward $44 $-1 #
coedge $-1 $66 $145 $148 $149 reversed $44 $-1 #
coedge $-1 $150 $151 $66 $98 forward $152 $-1 #
edge $-1 $153 -3.1415926535897931 $154 -1.5707963267948966 $97 $155 forward 7 unknown #
model_id-kcp-attrib $-1 $-1 $-1 $68 1 990654398 50 691142657 6 #
face $156 $157 $75 $8 $-1 $158 forward single #
loop $-1 $159 $160 $68 #
cone-surface $-1 2.3371148877035782e-016 7.1054273576010019e-015 16.316924320878645 0 6.447744471313573e-033 -1 -4.7024087161499163e-015 44.655922840050735 -7.8310836418014657e-031 1 I I 0 1 44.655922840050735 forward I I I I #
model_id-kcp-attrib $-1 $-1 $-1 $69 1 990654398 50 691142657 12 #
loop $161 $-1 $162 $47 #
coedge $-1 $105 $105 $107 $163 forward $69 $-1 #
model_id-kcp-attrib $-1 $-1 $-1 $71 1 990654398 50 691142657 14 #
coedge $-1 $107 $107 $105 $163 reversed $71 $-1 #
edge $164 $165 4.5718793955318614e-016 $165 6.2831853071796013 $73 $166 forward 7 unknown #
vertex $-1 $74 $167 #
ellipse-curve $-1 1.0407374317529362e-015 7.1054273576010019e-015 29.497093449735431 0 6.447744471313573e-033 -1 -4.281196172139297e-015 40.655922840050735 -7.129623844869178e-031 1 I I #
loop $-1 $-1 $168 $100 #
convexity-sys-attrib $-1 $-1 $76 $54 #
point $-1 -5.046575143278282e-015 40.655922840050742 0 #
model_id-kcp-attrib $-1 $-1 $-1 $79 1 990654398 60 691798018 2 #
face $-1 $169 $170 $19 $-1 $171 reversed single #
loop $-1 $-1 $172 $79 #
plane-surface $-1 -31.155880277608773 0 0 1 0 0 0 0 -1 forward_v I I I I #
coedge $-1 $173 $126 $174 $175 forward $80 $-1 #
coedge $-1 $176 $82 $173 $177 forward $56 $-1 #
coedge $-1 $82 $176 $178 $179 forward $56 $-1 #
coedge $-1 $129 $128 $82 $122 reversed $130 $-1 #
edge $-1 $180 -44.655922840050749 $181 44.655922840050749 $121 $182 forward 7 unknown #
coedge $-1 $84 $83 $183 $184 forward $38 $-1 #
coedge $-1 $185 $186 $83 $125 reversed $170 $-1 #
edge $-1 $132 -31.155880277608773 $187 31.155880277608773 $124 $188 forward 7 unknown #
coedge $-1 $118 $189 $84 $127 reversed $80 $-1 #
edge $-1 $190 -31.155880277608773 $131 31.155880277608773 $126 $191 forward 7 unknown #
coedge $-1 $121 $85 $189 $192 forward $130 $-1 #
coedge $-1 $85 $121 $185 $193 reversed $130 $-1 #
loop $-1 $-1 $128 $169 #
vertex $-1 $86 $194 #
vertex $-1 $86 $195 #
straight-curve $-1 31.155880277608773 0 44.655922840050806 0 1 0 I I #
coedge $-1 $134 $134 $90 $135 forward $87 $-1 #
edge $-1 $196 0 $196 6.2831853071795862 $134 $197 forward 7 unknown #
vertex $-1 $91 $198 #
ellipse-curve $-1 4.4408920985006419e-015 -5.7798817815202448e-016 -2.0000000000000142 2.2204460492503131e-015 -2.8899408907601121e-016 -1 1.6323971955563359e-030 14.753604652274626 -4.2637045370717067e-015 1 I I #
face $-1 $199 $200 $23 $-1 $201 reversed single #
loop $-1 $-1 $202 $92 #
coedge $-1 $203 $204 $202 $205 forward $93 $-1 #
coedge $-1 $206 $94 $207 $208 reversed $65 $-1 #
coedge $-1 $94 $206 $96 $149 forward $65 $-1 #
coedge $-1 $209 $210 $94 $144 forward $211 $-1 #
edge $-1 $212 1.7157499379583705e-017 $213 1.5707963267948966 $143 $214 forward 7 unknown #
coedge $-1 $96 $95 $215 $216 reversed $44 $-1 #
coedge $-1 $204 $203 $217 $147 reversed $93 $-1 #
edge $-1 $153 -62.311760555217369 $218 1.7763568394002505e-013 $217 $219 forward 7 unknown #
coedge $-1 $220 $221 $222 $149 forward $223 $-1 #
edge $-1 $154 -62.311760555217468 $213 8.5265128291212022e-014 $148 $224 forward 7 unknown #
coedge $-1 $151 $97 $221 $225 reversed $152 $-1 #
coedge $-1 $97 $150 $226 $227 reversed $152 $-1 #
loop $-1 $-1 $97 $228 #
vertex $-1 $227 $229 #
vertex $-1 $230 $231 #
ellipse-curve $-1 31.155880277608773 -3.8338620242021973e-015 -5.0554444713611152e-014 -1 0 0 -8.2059150298940375e-014 -7.6618396842289245e-016 -44.655922840050735 1 I I #
model_id-kcp-attrib $-1 $232 $-1 $100 1 990654398 50 691142657 10 #
face $233 $234 $235 $8 $-1 $236 forward single #
plane-surface $-1 -3.1165833292139439e-015 22.327961420025375 0 0 6.447744471313573e-033 -1 -1.0530313600265468e-013 1000 -1.7536494923307172e-029 forward_v I I I I #
loop $-1 $-1 $237 $68 #
coedge $-1 $160 $160 $168 $238 reversed $101 $-1 #
model_id-kcp-attrib $-1 $-1 $-1 $104 1 990654398 50 691142657 13 #
coedge $-1 $162 $162 $239 $240 reversed $104 $-1 #
edge $241 $242 4.7031854705673115e-016 $242 6.2831853071796013 $107 $243 forward 7 unknown #
attrib_edge_convexity-kcp-attrib $-1 $244 $-1 $108 2 #
vertex $-1 $108 $245 #
ellipse-curve $-1 -4.1338252511218017e-015 7.1054273576010011e-015 58.311760555217361 0 6.447744471313573e-033 -1 -1.5982208305521829e-015 15.17733365995759 -2.6615723467718536e-031 1 I I #
point $-1 -3.2404587403863604e-015 40.655922840050742 29.497093449735431 #
coedge $-1 $168 $168 $160 $238 forward $111 $-1 #
face $246 $-1 $130 $19 $-1 $247 reversed single #
loop $-1 $-1 $185 $115 #
plane-surface $-1 0 44.655922840050749 0 0 -1 0 0 0 -1 forward_v I I I I #
coedge $-1 $248 $183 $186 $249 forward $116 $-1 #
coedge $-1 $189 $118 $119 $177 reversed $80 $-1 #
coedge $-1 $183 $248 $118 $175 reversed $116 $-1 #
edge $-1 $190 -44.655922840050806 $250 44.655922840050806 $174 $251 forward 7 unknown #
coedge $-1 $120 $119 $248 $252 forward $56 $-1 #
edge $-1 $181 -31.155880277608773 $250 31.155880277608773 $173 $253 forward 7 unknown #
coedge $-1 $186 $185 $120 $179 reversed $170 $-1 #
edge $-1 $254 -31.155880277608773 $180 31.155880277608773 $178 $255 forward 7 unknown #
vertex $-1 $122 $256 #
vertex $-1 $192 $257 #
straight-curve $-1 31.155880277608773 0 -44.655922840050806 0 -1 0 I I #
coedge $-1 $172 $174 $123 $184 reversed $116 $-1 #
edge $-1 $187 -44.655922840050749 $190 44.655922840050749 $183 $258 forward 7 unknown #
coedge $-1 $178 $124 $129 $193 forward $170 $-1 #
coedge $-1 $124 $178 $172 $249 reversed $170 $-1 #
vertex $-1 $125 $259 #
straight-curve $-1 0 44.655922840050749 44.655922840050806 -1 0 0 I I #
coedge $-1 $126 $173 $128 $192 reversed $80 $-1 #
vertex $-1 $184 $260 #
straight-curve $-1 0 -44.655922840050749 44.655922840050806 1 0 0 I I #
edge $-1 $131 -44.655922840050806 $181 44.655922840050806 $128 $261 forward 7 unknown #
edge $-1 $132 -44.655922840050806 $180 44.655922840050806 $129 $262 forward 7 unknown #
point $-1 31.155880277608773 -44.655922840050749 44.655922840050806 #
point $-1 31.155880277608773 44.655922840050749 44.655922840050806 #
vertex $-1 $135 $263 #
ellipse-curve $-1 -4.4408920985006419e-015 5.7798817815202448e-016 2 -2.2204460492503131e-015 2.8899408907601121e-016 1 1.6323971955563359e-030 14.753604652274626 -4.2637045370717067e-015 1 I I #
point $-1 4.4408920985006435e-015 14.753604652274626 -2.0000000000000187 #
face $-1 $264 $265 $23 $-1 $266 forward single #
loop $-1 $-1 $222 $138 #
plane-surface $-1 0 44.655922840050749 0 0 -1 0 0 0 -1 forward_v I I I I #
coedge $-1 $267 $268 $269 $205 reversed $139 $-1 #
coedge $-1 $146 $140 $270 $271 reversed $93 $-1 #
coedge $-1 $140 $146 $272 $273 reversed $93 $-1 #
edge $-1 $274 -62.311760555217447 $275 9.9475983006414026e-014 $269 $276 forward 7 unknown #
coedge $-1 $142 $141 $277 $278 reversed $65 $-1 #
coedge $-1 $279 $280 $281 $208 forward $282 $-1 #
edge $-1 $283 -62.311760555217546 $212 7.1054273576010019e-015 $207 $284 forward 7 unknown #
coedge $-1 $210 $143 $285 $286 forward $211 $-1 #
coedge $-1 $143 $209 $279 $287 reversed $211 $-1 #
loop $-1 $-1 $143 $288 #
vertex $-1 $287 $289 #
vertex $-1 $286 $290 #
ellipse-curve $-1 -31.155880277608773 -1.4210854715202019e-014 6.3948846218409181e-014 1 0 0 -8.2059150298940375e-014 -7.6618396842289245e-016 -44.655922840050735 1 I I #
coedge $-1 $291 $292 $145 $216 forward $293 $-1 #
edge $-1 $213 1.5707963267948966 $218 3.1415926535897931 $215 $214 forward 7 unknown #
coedge $-1 $294 $295 $296 $147 forward $265 $-1 #
vertex $-1 $297 $298 #
straight-curve $-1 -31.155880277608595 -1.421085471520199e-014 44.655922840050806 -1 -1.6653345369377351e-016 1.8375871570913693e-015 I I #
coedge $-1 $299 $148 $292 $300 reversed $223 $-1 #
coedge $-1 $148 $299 $150 $225 forward $223 $-1 #
coedge $-1 $301 $285 $142 $149 reversed $200 $-1 #
loop $-1 $-1 $148 $302 #
straight-curve $-1 -31.155880277608688 44.655922840050749 6.3948846218409029e-014 -1 -1.6653345369377351e-016 1.8375871570913693e-015 I I #
edge $-1 $303 -44.655922840050806 $154 5.0554444713611152e-014 $150 $304 forward 7 unknown #
coedge $-1 $305 $296 $151 $227 forward $306 $-1 #
edge $-1 $153 -3.83386202420221e-015 $303 44.655922840050749 $151 $307 forward 7 unknown #
face $-1 $308 $152 $23 $-1 $309 reversed single #
point $-1 31.155880277608773 -3.83386202420221e-015 44.655922840050806 #
edge $-1 $154 5.0554444713611152e-014 $310 44.655922840050806 $311 $304 forward 7 unknown #
point $-1 31.15588027760878 44.655922840050742 -5.0554444713611152e-014 #
model_id-kcp-attrib $-1 $-1 $156 $100 1 990654398 50 691142657 7 #
model_id-kcp-attrib $-1 $312 $-1 $157 1 990654398 50 691142657 11 #
face $313 $-1 $314 $8 $-1 $315 forward single #
loop $316 $317 $239 $157 #
plane-surface $-1 2.0625832329306548e-015 9.3768023261373354 62.311760555217361 0 -6.447744471313573e-033 1 1.0530313600265468e-013 -1000 1.7536494923307172e-029 forward_v I I I I #
coedge $-1 $237 $237 $318 $319 forward $159 $-1 #
edge $320 $321 0 $321 6.2831853071796004 $168 $322 forward 7 unknown #
coedge $-1 $239 $239 $162 $240 forward $235 $-1 #
edge $323 $324 4.7031854705673096e-016 $324 6.2831853071796013 $162 $325 forward 7 unknown #
attrib_edge_convexity-kcp-attrib $-1 $326 $-1 $163 1 #
vertex $327 $163 $328 #
ellipse-curve $-1 -4.1338252511218017e-015 7.1054273576010011e-015 58.311760555217361 0 6.447744471313573e-033 -1 -1.5536008372278732e-015 14.753604652274619 -2.5872651308509496e-031 1 I I #
convexity-sys-attrib $-1 $-1 $164 $108 #
point $-1 1.2068478222332438e-015 15.177333659957597 58.311760555217361 #
model_id-kcp-attrib $-1 $-1 $-1 $169 1 990654398 60 691798018 3 #
plane-surface $-1 31.155880277608773 0 0 -1 0 0 0 0 1 forward_v I I I I #
coedge $-1 $174 $172 $176 $252 reversed $116 $-1 #
edge $-1 $187 -44.655922840050806 $254 44.655922840050806 $186 $329 forward 7 unknown #
vertex $-1 $252 $330 #
straight-curve $-1 -31.155880277608773 -44.655922840050749 0 0 0 -1 I I #
edge $-1 $250 -44.655922840050749 $254 44.655922840050749 $248 $331 forward 7 unknown #
straight-curve $-1 0 -44.655922840050749 -44.655922840050806 -1 0 0 I I #
vertex $-1 $179 $332 #
straight-curve $-1 0 44.655922840050749 -44.655922840050806 1 0 0 I I #
point $-1 31.155880277608773 44.655922840050749 -44.655922840050806 #
point $-1 31.155880277608773 -44.655922840050749 -44.655922840050806 #
straight-curve $-1 -31.155880277608773 0 44.655922840050806 0 -1 0 I I #
point $-1 -31.155880277608773 44.655922840050749 44.655922840050806 #
point $-1 -31.155880277608773 -44.655922840050749 44.655922840050806 #
straight-curve $-1 31.155880277608773 -44.655922840050749 0 0 0 -1 I I #
straight-curve $-1 31.155880277608773 44.655922840050749 0 0 0 -1 I I #
point $-1 -4.4408920985006404e-015 14.753604652274626 1.9999999999999956 #
face $-1 $288 $333 $23 $-1 $334 reversed single #
loop $-1 $-1 $217 $199 #
plane-surface $-1 0 0 44.655922840050806 0 0 1 1 0 0 forward_v I I I I #
coedge $-1 $335 $202 $336 $337 reversed $139 $-1 #
coedge $-1 $202 $335 $338 $339 reversed $139 $-1 #
coedge $-1 $340 $341 $342 $205 forward $343 $-1 #
coedge $-1 $344 $345 $203 $271 forward $346 $-1 #
edge $-1 $218 -3.1415926535897931 $275 -1.5707963267948966 $270 $214 forward 7 unknown #
coedge $-1 $347 $348 $204 $273 forward $349 $-1 #
edge $-1 $274 1.5707963267948966 $153 3.1415926535897931 $272 $155 forward 7 unknown #
vertex $-1 $350 $351 #
vertex $-1 $352 $353 #
straight-curve $-1 -31.155880277608674 -44.655922840050749 6.3948846218409004e-014 -1 -1.6653345369377351e-016 1.8375871570913693e-015 I I #
coedge $-1 $354 $311 $206 $278 forward $355 $-1 #
edge $-1 $154 -1.5707963267948966 $283 -1.7157499379583702e-017 $277 $155 forward 7 unknown #
coedge $-1 $356 $207 $210 $287 forward $282 $-1 #
coedge $-1 $207 $356 $354 $357 forward $282 $-1 #
coedge $-1 $358 $359 $335 $208 reversed $360 $-1 #
loop $-1 $-1 $207 $361 #
vertex $-1 $362 $363 #
straight-curve $-1 -31.155880277608766 -1.4210854715202016e-014 -44.655922840050806 -1 -1.6653345369377351e-016 1.8375871570913693e-015 I I #
coedge $-1 $222 $364 $209 $286 reversed $200 $-1 #
edge $-1 $213 -6.3948846218409168e-014 $365 44.655922840050806 $285 $366 forward 7 unknown #
edge $-1 $212 -1.4210854715202004e-014 $365 44.655922840050749 $210 $367 forward 7 unknown #
face $-1 $368 $211 $23 $-1 $334 reversed single #
point $-1 -31.155880277608773 -1.4210854715202004e-014 -44.655922840050806 #
point $-1 -31.155880277608773 44.655922840050749 6.3948846218409168e-014 #
coedge $-1 $292 $215 $369 $370 reversed $293 $-1 #
coedge $-1 $215 $291 $220 $300 forward $293 $-1 #
loop $-1 $-1 $215 $368 #
coedge $-1 $371 $217 $345 $297 forward $265 $-1 #
coedge $-1 $217 $371 $347 $372 forward $265 $-1 #
coedge $-1 $226 $369 $95 $147 reversed $306 $-1 #
edge $-1 $218 1.4210854715202032e-014 $373 44.655922840050749 $345 $374 forward 7 unknown #
point $-1 -31.155880277608773 -1.4210854715202032e-014 44.655922840050806 #
coedge $-1 $221 $220 $305 $375 reversed $223 $-1 #
edge $-1 $376 -44.655922840050806 $213 -6.3948846218409168e-014 $220 $366 forward 7 unknown #
coedge $-1 $364 $222 $311 $230 forward $200 $-1 #
face $-1 $-1 $223 $23 $-1 $201 reversed single #
vertex $-1 $227 $377 #
straight-curve $-1 31.155880277608773 44.655922840050749 0 0 0 -1 I I #
coedge $-1 $369 $226 $299 $375 forward $306 $-1 #
loop $-1 $-1 $296 $378 #
straight-curve $-1 31.155880277608773 0 44.655922840050806 0 1 0 I I #
face $-1 $379 $355 $23 $-1 $309 reversed single #
plane-surface $-1 31.155880277608773 0 0 -1 0 0 0 0 1 forward_v I I I I #
vertex $-1 $357 $380 #
coedge $-1 $277 $354 $301 $230 reversed $355 $-1 #
model_id-kcp-attrib $-1 $-1 $233 $157 1 990654398 50 691142657 8 #
model_id-kcp-attrib $-1 $-1 $-1 $234 1 990654398 50 691142657 9 #
loop $-1 $381 $318 $234 #
torus-surface $-1 3.1634248440926723e-015 7.1054273576010019e-015 64.16435457759367 0 6.447744471313573e-033 -1 50.829320335572916 -32.129171187684449 -1.0530313600265468e-016 1 -1.7536494923307173e-032 forward_v I I I I #
model_id-kcp-attrib $-1 $-1 $-1 $235 1 990654398 50 691142657 15 #
loop $-1 $-1 $382 $157 #
coedge $-1 $318 $318 $237 $319 reversed $314 $-1 #
edge $-1 $383 0 $383 6.2831853071796004 $237 $384 forward 7 unknown #
attrib_edge_convexity-kcp-attrib $-1 $385 $-1 $238 1 #
vertex $-1 $238 $386 #
ellipse-curve $-1 -7.6537897113898559e-016 7.1054273576010019e-015 0 0 6.447744471313573e-033 -1 -4.7024087161499163e-015 44.655922840050735 -7.8310836418014657e-031 1 I I #
attrib_edge_convexity-kcp-attrib $-1 $387 $-1 $240 1 #
vertex $388 $240 $389 #
ellipse-curve $-1 -3.8889039803573254e-015 7.1054273576010011e-015 62.311760555217361 0 6.447744471313573e-033 -1 -1.5536008372278738e-015 14.753604652274626 -2.587265130850951e-031 1 I I #
convexity-sys-attrib $-1 $-1 $241 $163 #
model_id-kcp-attrib $-1 $-1 $-1 $242 1 990654398 50 691142657 16 #
point $-1 1.2514678155575535e-015 14.753604652274626 58.311760555217361 #
straight-curve $-1 -31.155880277608773 44.655922840050749 0 0 0 -1 I I #
point $-1 -31.155880277608773 -44.655922840050749 -44.655922840050806 #
straight-curve $-1 -31.155880277608773 0 -44.655922840050806 0 1 0 I I #
point $-1 -31.155880277608773 44.655922840050749 -44.655922840050806 #
loop $-1 $-1 $338 $264 #
plane-surface $-1 -31.155880277608773 0 0 1 0 0 0 0 -1 forward_v I I I I #
coedge $-1 $268 $267 $141 $208 forward $139 $-1 #
coedge $-1 $390 $391 $267 $337 forward $392 $-1 #
edge $-1 $283 -1.7157499379583702e-017 $274 1.5707963267948966 $336 $155 forward 7 unknown #
coedge $-1 $393 $394 $268 $339 forward $333 $-1 #
edge $-1 $275 -1.5707963267948966 $212 1.7157499379583705e-017 $338 $214 forward 7 unknown #
coedge $-1 $395 $269 $394 $352 forward $343 $-1 #
coedge $-1 $269 $395 $390 $350 reversed $343 $-1 #
coedge $-1 $396 $397 $140 $205 reversed $398 $-1 #
loop $-1 $-1 $269 $399 #
coedge $-1 $345 $270 $397 $400 reversed $346 $-1 #
coedge $-1 $270 $344 $294 $297 reversed $346 $-1 #
loop $-1 $-1 $270 $401 #
coedge $-1 $348 $272 $295 $372 reversed $349 $-1 #
coedge $-1 $272 $347 $396 $402 forward $349 $-1 #
loop $-1 $-1 $272 $403 #
edge $-1 $274 5.0554444713611127e-014 $404 44.655922840050806 $390 $405 forward 7 unknown #
point $-1 31.155880277608773 -44.655922840050756 -5.0554444713611127e-014 #
edge $-1 $275 -6.3948846218409193e-014 $406 44.655922840050806 $394 $407 forward 7 unknown #
point $-1 -31.155880277608773 -44.655922840050749 6.3948846218409193e-014 #
coedge $-1 $311 $277 $280 $357 reversed $355 $-1 #
loop $-1 $-1 $277 $308 #
coedge $-1 $280 $279 $364 $408 forward $282 $-1 #
edge $-1 $310 -44.655922840050749 $283 3.8338620242021816e-015 $354 $409 forward 7 unknown #
coedge $-1 $410 $281 $391 $362 forward $360 $-1 #
coedge $-1 $281 $410 $393 $411 forward $360 $-1 #
loop $-1 $-1 $281 $412 #
face $-1 $399 $282 $23 $-1 $413 reversed single #
edge $-1 $283 3.8338620242021816e-015 $404 44.655922840050749 $391 $409 forward 7 unknown #
point $-1 31.15588027760878 -3.8338620242021816e-015 -44.655922840050806 #
coedge $-1 $285 $301 $356 $408 reversed $200 $-1 #
vertex $-1 $408 $414 #
straight-curve $-1 -31.155880277608773 44.655922840050749 0 0 0 -1 I I #
straight-curve $-1 -31.155880277608773 0 -44.655922840050806 0 1 0 I I #
face $-1 $401 $293 $23 $-1 $334 reversed single #
coedge $-1 $296 $305 $291 $370 forward $306 $-1 #
edge $-1 $376 -44.655922840050749 $218 1.4210854715202032e-014 $291 $374 forward 7 unknown #
coedge $-1 $295 $294 $415 $416 forward $265 $-1 #
edge $-1 $417 -44.655922840050749 $153 -3.83386202420221e-015 $347 $307 forward 7 unknown #
vertex $-1 $297 $418 #
straight-curve $-1 -31.155880277608773 0 44.655922840050806 0 -1 0 I I #
edge $-1 $303 -31.155880277608773 $376 31.155880277608773 $299 $419 forward 7 unknown #
vertex $-1 $375 $420 #
point $-1 31.155880277608773 44.655922840050749 44.655922840050806 #
face $-1 $361 $306 $23 $-1 $266 forward single #
face $-1 $421 $392 $23 $-1 $309 reversed single #
point $-1 31.155880277608773 44.655922840050749 -44.655922840050806 #
loop $-1 $-1 $422 $234 #
coedge $-1 $382 $382 $422 $423 reversed $317 $-1 #
vertex $-1 $319 $424 #
ellipse-curve $-1 1.2328019486797013e-015 7.1054273576010019e-015 32.633848641757297 0 6.447744471313573e-033 -1 -4.7024087161499163e-015 44.655922840050735 -7.8310836418014657e-031 1 I I #
convexity-sys-attrib $-1 $-1 $320 $238 #
point $-1 -5.4677876872889021e-015 44.655922840050742 0 #
convexity-sys-attrib $-1 $-1 $323 $240 #
model_id-kcp-attrib $-1 $-1 $-1 $324 1 990654398 50 691142657 17 #
point $-1 1.4963890863220287e-015 14.753604652274634 62.311760555217361 #
coedge $-1 $391 $336 $341 $350 forward $392 $-1 #
coedge $-1 $336 $390 $358 $362 reversed $392 $-1 #
loop $-1 $-1 $336 $379 #
coedge $-1 $394 $338 $359 $411 reversed $333 $-1 #
coedge $-1 $338 $393 $340 $352 reversed $333 $-1 #
coedge $-1 $341 $340 $410 $425 reversed $343 $-1 #
coedge $-1 $415 $342 $348 $402 reversed $398 $-1 #
coedge $-1 $342 $415 $344 $400 forward $398 $-1 #
loop $-1 $-1 $342 $421 #
face $-1 $302 $343 $23 $-1 $426 reversed single #
edge $-1 $373 -44.655922840050806 $275 -6.3948846218409193e-014 $344 $407 forward 7 unknown #
face $-1 $412 $346 $23 $-1 $334 reversed single #
edge $-1 $417 -44.655922840050806 $274 5.0554444713611127e-014 $348 $405 forward 7 unknown #
face $-1 $228 $349 $23 $-1 $309 reversed single #
vertex $-1 $350 $427 #
straight-curve $-1 31.155880277608773 -44.655922840050749 0 0 0 -1 I I #
vertex $-1 $411 $428 #
straight-curve $-1 -31.155880277608773 -44.655922840050749 0 0 0 -1 I I #
edge $-1 $365 -31.155880277608773 $310 31.155880277608773 $364 $429 forward 7 unknown #
straight-curve $-1 31.155880277608773 0 -44.655922840050806 0 -1 0 I I #
coedge $-1 $359 $358 $395 $425 forward $360 $-1 #
edge $-1 $406 -44.655922840050749 $212 -1.4210854715202004e-014 $393 $367 forward 7 unknown #
face $-1 $403 $360 $23 $-1 $413 reversed single #
plane-surface $-1 0 0 -44.655922840050806 0 0 1 1 0 0 forward_v I I I I #
point $-1 -31.155880277608773 44.655922840050749 -44.655922840050806 #
coedge $-1 $397 $396 $371 $416 reversed $398 $-1 #
edge $-1 $373 -31.155880277608773 $417 31.155880277608773 $415 $430 forward 7 unknown #
vertex $-1 $372 $431 #
point $-1 -31.155880277608773 -44.655922840050749 44.655922840050806 #
straight-curve $-1 0 44.655922840050749 44.655922840050806 -1 0 0 I I #
point $-1 -31.155880277608773 44.655922840050749 44.655922840050806 #
face $-1 $378 $398 $23 $-1 $426 reversed single #
coedge $-1 $422 $422 $382 $423 forward $381 $-1 #
edge $-1 $432 0 $432 6.2831853071796004 $422 $433 forward 7 unknown #
point $-1 -3.4696067674702152e-015 44.655922840050742 32.633848641757297 #
edge $-1 $404 -31.155880277608773 $406 31.155880277608773 $395 $434 forward 7 unknown #
plane-surface $-1 0 -44.655922840050749 0 0 1 0 0 0 1 forward_v I I I I #
point $-1 31.155880277608773 -44.655922840050749 -44.655922840050806 #
point $-1 -31.155880277608773 -44.655922840050749 -44.655922840050806 #
straight-curve $-1 0 44.655922840050749 -44.655922840050806 1 0 0 I I #
straight-curve $-1 0 -44.655922840050749 44.655922840050806 1 0 0 I I #
point $-1 31.155880277608773 -44.655922840050749 44.655922840050806 #
vertex $-1 $423 $435 #
ellipse-curve $-1 3.0499899235499018e-015 7.1054273576010019e-015 62.311760555217347 0 6.447744471313573e-033 -1 -1.9748133812384931e-015 18.753604652274632 -3.2887249277832382e-031 1 I I #
straight-curve $-1 0 -44.655922840050749 -44.655922840050806 -1 0 0 I I #
point $-1 1.0751765423114089e-015 18.753604652274639 62.311760555217347 #
End-of-ACIS-data 