600 0 2 0           
24 FBMach with ACIS - 6.0.3 13 ACIS 6.0.3 NT 24 Mon Apr 01 00:22:58 2002 
1 9.9999999999999995e-007 1e-010 
body $2 $3 $-1 $4 #
bdycol-kcp $-1 1 3 $5 $6 $7 #
model_id-kcp-attrib $-1 $8 $-1 $0 1 1017638578 60 -281280511 1 #
lump $-1 $-1 $9 $0 #
transform $-1 1 5.6233793620083087e-046 0 5.6233793620083087e-046 1 0 0 0 1 0 0 0 1 rotate no_reflect no_shear #
body $10 $11 $-1 $12 #
body $13 $14 $-1 $15 #
body $16 $17 $-1 $18 #
aggregate_advspl_attribute-aggregate_geombuild_base_attribute-aggregate_body_attribute-attrib_HH-attrib $-1 $19 $2 $0 F #
shell $-1 $-1 $-1 $20 $-1 $3 #
model_id-kcp-attrib $-1 $-1 $-1 $5 1 1017638578 60 -281280510 1 #
lump $-1 $-1 $21 $5 #
transform $-1 1 0 0 0 1 0 0 0 1 32.545644548494224 -46.090085061297188 50.054837906843289 1 no_rotate no_reflect no_shear #
rgb_color-st-attrib $-1 $22 $-1 $6 0.5 1 1 #
lump $-1 $-1 $23 $6 #
transform $-1 3.8285889215894375e-016 -4.6885143195523885e-032 -1 -1.2246063538223773e-016 -1 0 -1 1.2246063538223773e-016 -3.8285889215894375e-016 61.701524826102933 -46.090085061297181 50.054837906843211 1 rotate no_reflect no_shear #
rgb_color-st-attrib $-1 $24 $-1 $7 0.5 1 1 #
lump $-1 $-1 $25 $7 #
transform $-1 1 0 0 0 1 0 0 0 1 32.545644548494224 -46.090085061297188 50.054837906843289 1 no_rotate no_reflect no_shear #
aggregate_secndry_attribute-aggregate_geombuild_base_attribute-aggregate_body_attribute-attrib_HH-attrib $-1 $26 $8 $0 F #
face $27 $28 $29 $9 $-1 $30 reversed single #
shell $-1 $-1 $-1 $31 $-1 $11 #
model_id-kcp-attrib $-1 $-1 $13 $6 1 1017638578 100 -278659069 1 #
shell $-1 $-1 $-1 $32 $-1 $14 #
model_id-kcp-attrib $-1 $-1 $16 $7 1 1017638578 160 -274726908 1 #
shell $-1 $-1 $-1 $33 $-1 $17 #
aggregate_sharped_attribute-aggregate_geombuild_base_attribute-aggregate_body_attribute-attrib_HH-attrib $-1 $34 $19 $0 F #
model_id-kcp-attrib $-1 $35 $-1 $20 1 1017638578 60 -281280511 2 #
face $36 $37 $38 $9 $-1 $39 reversed single #
loop $-1 $40 $41 $20 #
cone-surface $-1 3.3897642708855749 -46.090085061297188 50.054837906843318 -1 -1.6653345369377348e-016 1.8375871570913693e-015 7.4708801670574897e-014 -4.2811961721392844e-015 40.655922840050735 1 I I 0 1 40.655922840050735 forward I I I I #
face $-1 $42 $43 $21 $-1 $44 forward single #
face $-1 $45 $46 $23 $-1 $47 forward single #
face $-1 $48 $49 $25 $-1 $50 reversed single #
aggregate_reblend_attribute-aggregate_geombuild_base_attribute-aggregate_body_attribute-attrib_HH-attrib $-1 $51 $26 $0 F #
attrib_hh_face_geombuild-attrib_entity_geombuild-individual_entity_attribute-attrib_HH-attrib $-1 $-1 $27 $20 F #
model_id-kcp-attrib $-1 $52 $-1 $28 1 1017638578 60 -281280511 3 #
face $53 $54 $55 $9 $-1 $56 reversed single #
loop $-1 $57 $58 $28 #
torus-surface $-1 65.554118848479249 -46.090085061297181 50.054837906843204 -1 -1.6653345369377348e-016 1.8375871570913693e-015 50.829320335572916 -36.129171187684456 1.8375871570913693e-015 -1.0530313600265437e-016 1 forward_v I I I I #
loop $-1 $-1 $59 $20 #
coedge $60 $41 $41 $61 $62 forward $29 $-1 #
face $-1 $63 $64 $21 $-1 $65 reversed single #
loop $-1 $-1 $66 $31 #
plane-surface $-1 0 0 44.655922840050764 0 0 1 1 0 0 forward_v I I I I #
face $-1 $67 $68 $23 $-1 $69 forward single #
loop $-1 $70 $71 $32 #
cone-surface $-1 0 0 0 0 0 1 14.753604652274626 0 0 1 I I 0 1 14.753604652274626 forward I I I I #
face $-1 $72 $73 $25 $-1 $50 reversed single #
loop $-1 $-1 $74 $33 #
cone-surface $-1 -31.155880277608652 0 3.5527136788005009e-014 -1 -1.6653345369377348e-016 1.8375871570913693e-015 -8.2059150298940375e-014 1.6368346730282027e-015 -44.655922840050735 1 I I 0 1 44.655922840050735 forward I I I I #
aggregate_isospline_attribute-aggregate_geombuild_base_attribute-aggregate_body_attribute-attrib_HH-attrib $-1 $75 $34 $0 F #
attrib_hh_face_geombuild-attrib_entity_geombuild-individual_entity_attribute-attrib_HH-attrib $-1 $-1 $36 $28 F #
model_id-kcp-attrib $-1 $76 $-1 $37 1 1017638578 60 -281280511 4 #
face $77 $78 $79 $9 $-1 $80 reversed single #
loop $-1 $81 $82 $37 #
plane-surface $-1 59.701524826102954 -46.090085061297181 65.020307062959319 1 1.6653345369377348e-016 -1.8375871570913693e-015 -1.8375871570913693e-012 1.0530313600265437e-013 -1000 forward_v I I I I #
loop $-1 $-1 $83 $28 #
coedge $84 $58 $58 $59 $85 forward $38 $-1 #
coedge $86 $59 $59 $58 $85 reversed $40 $-1 #
attrib_hh_coedge_geombuild-attrib_entity_geombuild-individual_entity_attribute-attrib_HH-attrib $-1 $-1 $-1 $41 F #
coedge $87 $61 $61 $41 $62 reversed $88 $-1 #
edge $89 $90 -6.9466660406968467e-017 $90 6.2831853071795862 $61 $91 forward 7 unknown #
face $-1 $92 $93 $21 $-1 $94 reversed single #
loop $-1 $-1 $95 $42 #
plane-surface $-1 0 0 -44.655922840050764 0 0 1 1 0 0 forward_v I I I I #
coedge $-1 $96 $97 $98 $99 forward $43 $-1 #
face $-1 $-1 $100 $23 $-1 $101 forward single #
loop $-1 $-1 $102 $45 #
plane-surface $-1 0 0 -2.0000000000000355 0 0 -1 -1 0 0 forward_v I I I I #
loop $-1 $-1 $103 $32 #
coedge $-1 $71 $71 $102 $104 reversed $46 $-1 #
face $-1 $105 $106 $25 $-1 $50 reversed single #
loop $-1 $-1 $107 $48 #
coedge $-1 $108 $109 $110 $111 reversed $49 $-1 #
aggregate_analytic_solver_attribute-aggregate_geombuild_base_attribute-aggregate_body_attribute-attrib_HH-attrib $-1 $112 $51 $0 F #
attrib_hh_face_geombuild-attrib_entity_geombuild-individual_entity_attribute-attrib_HH-attrib $-1 $-1 $53 $37 F #
model_id-kcp-attrib $-1 $113 $-1 $54 1 1017638578 60 -281280511 5 #
face $114 $115 $116 $9 $-1 $117 forward single #
loop $118 $119 $120 $54 #
cone-surface $-1 61.701524826102933 -46.090085061297181 50.054837906843211 -1 -1.6653345369377348e-016 1.8375871570913693e-015 2.7111034429823332e-014 -1.5536008372278693e-015 14.753604652274626 1 I I 0 1 14.753604652274626 forward I I I I #
loop $121 $-1 $122 $37 #
coedge $123 $82 $82 $83 $124 forward $55 $-1 #
coedge $125 $83 $83 $82 $124 reversed $57 $-1 #
attrib_hh_coedge_geombuild-attrib_entity_geombuild-individual_entity_attribute-attrib_HH-attrib $-1 $-1 $-1 $58 F #
edge $126 $127 -6.9466660406968492e-017 $127 6.2831853071795862 $59 $128 forward 7 unknown #
attrib_hh_coedge_geombuild-attrib_entity_geombuild-individual_entity_attribute-attrib_HH-attrib $-1 $-1 $-1 $59 F #
attrib_hh_coedge_geombuild-attrib_entity_geombuild-individual_entity_attribute-attrib_HH-attrib $-1 $-1 $-1 $61 F #
loop $-1 $129 $61 $115 #
attrib_edge_convexity-kcp-attrib $-1 $130 $-1 $62 1 #
vertex $131 $62 $132 #
ellipse-curve $-1 1.3897642708855731 -46.090085061297188 50.054837906843318 -1 -1.6653345369377348e-016 1.8375871570913693e-015 7.4708801670574897e-014 -4.2811961721392844e-015 40.655922840050735 1 I I #
face $133 $134 $135 $21 $-1 $136 reversed single #
loop $-1 $-1 $137 $63 #
plane-surface $-1 0 -44.655922840050735 0 0 1 0 0 0 1 forward_v I I I I #
coedge $-1 $138 $139 $140 $141 forward $64 $-1 #
coedge $-1 $142 $66 $143 $144 forward $43 $-1 #
coedge $-1 $66 $142 $145 $146 forward $43 $-1 #
coedge $-1 $147 $148 $66 $99 reversed $149 $-1 #
edge $-1 $150 -44.655922840050735 $151 44.655922840050735 $98 $152 forward 7 unknown #
loop $-1 $-1 $153 $67 #
plane-surface $-1 0 0 2.0000000000000355 0 0 1 1 0 0 forward_v I I I I #
coedge $-1 $102 $102 $71 $104 forward $68 $-1 #
coedge $-1 $103 $103 $153 $154 reversed $70 $-1 #
edge $-1 $155 0 $155 6.2831853071795862 $102 $156 forward 7 unknown #
face $-1 $157 $158 $25 $-1 $50 reversed single #
loop $-1 $-1 $159 $72 #
coedge $-1 $160 $161 $162 $163 reversed $73 $-1 #
coedge $-1 $164 $74 $165 $166 forward $49 $-1 #
coedge $-1 $74 $164 $167 $168 reversed $49 $-1 #
coedge $-1 $169 $170 $74 $111 forward $171 $-1 #
edge $-1 $172 -3.1415926535897931 $173 -1.5707963267948966 $110 $174 forward 7 unknown #
aggregate_geombuild_attribute-aggregate_geombuild_base_attribute-aggregate_body_attribute-attrib_HH-attrib $-1 $175 $75 $0 #
attrib_hh_face_geombuild-attrib_entity_geombuild-individual_entity_attribute-attrib_HH-attrib $-1 $-1 $77 $54 F #
model_id-kcp-attrib $-1 $176 $-1 $78 1 1017638578 60 -281280511 6 #
face $177 $178 $88 $9 $-1 $179 forward single #
loop $-1 $180 $181 $78 #
cone-surface $-1 17.70668859176422 -46.090085061297188 50.054837906843289 -1 -1.6653345369377348e-016 1.8375871570913693e-015 8.2059150298940387e-014 -4.7024087161499029e-015 44.655922840050735 1 I I 0 1 44.655922840050735 forward I I I I #
model_id-kcp-attrib $-1 $-1 $-1 $79 1 1017638578 60 -281280511 12 #
loop $182 $-1 $183 $54 #
coedge $184 $120 $120 $122 $185 forward $79 $-1 #
model_id-kcp-attrib $-1 $-1 $-1 $81 1 1017638578 60 -281280511 14 #
coedge $186 $122 $122 $120 $185 reversed $81 $-1 #
attrib_hh_coedge_geombuild-attrib_entity_geombuild-individual_entity_attribute-attrib_HH-attrib $-1 $-1 $-1 $82 F #
edge $187 $188 5.7346358610511712e-016 $188 6.2831853071795871 $83 $189 forward 7 unknown #
attrib_hh_coedge_geombuild-attrib_entity_geombuild-individual_entity_attribute-attrib_HH-attrib $-1 $-1 $-1 $83 F #
attrib_hh_edge_geombuild-attrib_entity_geombuild-individual_entity_attribute-attrib_HH-attrib $-1 $-1 $-1 $85 F #
vertex $190 $85 $191 #
ellipse-curve $-1 30.886857720621002 -46.090085061297181 50.054837906843268 -1 -1.6653345369377348e-016 1.8375871570913693e-015 7.4708801670574897e-014 -4.2811961721392844e-015 40.655922840050735 1 I I #
loop $-1 $-1 $192 $115 #
convexity-sys-attrib $-1 $193 $89 $62 #
attrib_hh_vertex_geombuild-attrib_entity_geombuild-individual_entity_attribute-attrib_HH-attrib $-1 $-1 $-1 $90 F #
point $-1 1.3897642708856477 -46.090085061297195 90.710760746894053 #
model_id-kcp-attrib $-1 $-1 $-1 $92 1 1017638578 60 -281280510 2 #
face $-1 $194 $195 $21 $-1 $196 reversed single #
loop $-1 $-1 $197 $92 #
plane-surface $-1 -31.155880277608734 0 0 1 0 0 0 0 -1 forward_v I I I I #
coedge $-1 $198 $145 $199 $200 forward $93 $-1 #
coedge $-1 $201 $95 $198 $202 forward $64 $-1 #
coedge $-1 $95 $201 $203 $204 forward $64 $-1 #
coedge $-1 $148 $147 $95 $141 reversed $149 $-1 #
edge $-1 $205 -44.655922840050735 $206 44.655922840050735 $140 $207 forward 7 unknown #
coedge $-1 $97 $96 $208 $209 forward $43 $-1 #
coedge $-1 $210 $211 $96 $144 reversed $195 $-1 #
edge $-1 $151 -31.155880277608734 $212 31.155880277608734 $143 $213 forward 7 unknown #
coedge $-1 $137 $214 $97 $146 reversed $93 $-1 #
edge $-1 $215 -31.155880277608734 $150 31.155880277608734 $145 $216 forward 7 unknown #
coedge $-1 $140 $98 $214 $217 forward $149 $-1 #
coedge $-1 $98 $140 $210 $218 reversed $149 $-1 #
loop $-1 $-1 $147 $194 #
vertex $-1 $99 $219 #
vertex $-1 $99 $220 #
straight-curve $-1 31.155880277608734 0 44.655922840050764 0 1 0 I I #
coedge $-1 $153 $153 $103 $154 forward $100 $-1 #
edge $-1 $221 0 $221 6.2831853071795862 $153 $222 forward 7 unknown #
vertex $-1 $104 $223 #
ellipse-curve $-1 0 0 -2.0000000000000355 0 0 -1 14.753604652274626 0 0 1 I I #
face $-1 $224 $225 $25 $-1 $226 reversed single #
loop $-1 $-1 $227 $105 #
coedge $-1 $228 $229 $227 $230 forward $106 $-1 #
coedge $-1 $231 $107 $232 $233 reversed $73 $-1 #
coedge $-1 $107 $231 $109 $168 forward $73 $-1 #
coedge $-1 $234 $235 $107 $163 forward $236 $-1 #
edge $-1 $237 -3.6654368982386242e-017 $238 1.5707963267948966 $162 $239 forward 7 unknown #
coedge $-1 $109 $108 $240 $241 reversed $49 $-1 #
coedge $-1 $229 $228 $242 $166 reversed $106 $-1 #
edge $-1 $172 -62.311760555217305 $243 1.6697754290362354e-013 $242 $244 forward 7 unknown #
coedge $-1 $245 $246 $247 $168 forward $248 $-1 #
edge $-1 $173 -62.31176055521739 $238 7.460698725481052e-014 $167 $249 forward 7 unknown #
coedge $-1 $170 $110 $246 $250 reversed $171 $-1 #
coedge $-1 $110 $169 $251 $252 reversed $171 $-1 #
loop $-1 $-1 $110 $253 #
vertex $-1 $252 $254 #
vertex $-1 $255 $256 #
ellipse-curve $-1 31.155880277608738 1.0376992690999795e-014 -7.8976154144015033e-014 -1 0 0 -8.2059150298940375e-014 1.6368346730282027e-015 -44.655922840050735 1 I I #
aggregate_stitch_attribute-aggregate_stitch_base_attribute-aggregate_body_attribute-attrib_HH-attrib $-1 $257 $112 $0 F #
attrib_hh_face_geombuild-attrib_entity_geombuild-individual_entity_attribute-attrib_HH-attrib $-1 $-1 $114 $78 F #
model_id-kcp-attrib $-1 $258 $-1 $115 1 1017638578 60 -281280511 10 #
face $259 $260 $261 $9 $-1 $262 forward single #
plane-surface $-1 1.3897642708856139 -46.090085061297195 72.382799326868692 -1 -1.6653345369377348e-016 1.8375871570913693e-015 1.8375871570913693e-012 -1.0530313600265437e-013 1000 forward_v I I I I #
loop $-1 $-1 $263 $78 #
coedge $264 $181 $181 $192 $265 reversed $116 $-1 #
model_id-kcp-attrib $-1 $-1 $-1 $119 1 1017638578 60 -281280511 13 #
coedge $266 $183 $183 $267 $268 reversed $119 $-1 #
attrib_hh_coedge_geombuild-attrib_entity_geombuild-individual_entity_attribute-attrib_HH-attrib $-1 $-1 $-1 $120 F #
edge $269 $270 5.8690932818874699e-016 $270 6.2831853071795871 $122 $271 forward 7 unknown #
attrib_hh_coedge_geombuild-attrib_entity_geombuild-individual_entity_attribute-attrib_HH-attrib $-1 $-1 $-1 $122 F #
attrib_edge_convexity-kcp-attrib $-1 $272 $-1 $124 2 #
vertex $273 $124 $274 #
ellipse-curve $-1 59.701524826102933 -46.090085061297188 50.054837906843211 -1 -1.6653345369377348e-016 1.8375871570913693e-015 2.7889673412428611e-014 -1.598220830552178e-015 15.17733365995759 1 I I #
attrib_hh_vertex_geombuild-attrib_entity_geombuild-individual_entity_attribute-attrib_HH-attrib $-1 $-1 $-1 $127 F #
point $-1 30.88685772062108 -46.090085061297188 90.710760746893996 #
coedge $275 $192 $192 $181 $265 forward $129 $-1 #
attrib_hh_edge_geombuild-attrib_entity_geombuild-individual_entity_attribute-attrib_HH-attrib $-1 $-1 $130 $62 F #
face $276 $-1 $149 $21 $-1 $277 reversed single #
loop $-1 $-1 $210 $134 #
plane-surface $-1 0 44.655922840050735 0 0 -1 0 0 0 -1 forward_v I I I I #
coedge $-1 $278 $208 $211 $279 forward $135 $-1 #
coedge $-1 $214 $137 $138 $202 reversed $93 $-1 #
coedge $-1 $208 $278 $137 $200 reversed $135 $-1 #
edge $-1 $215 -44.655922840050764 $280 44.655922840050764 $199 $281 forward 7 unknown #
coedge $-1 $139 $138 $278 $282 forward $64 $-1 #
edge $-1 $206 -31.155880277608734 $280 31.155880277608734 $198 $283 forward 7 unknown #
coedge $-1 $211 $210 $139 $204 reversed $195 $-1 #
edge $-1 $284 -31.155880277608734 $205 31.155880277608734 $203 $285 forward 7 unknown #
vertex $-1 $141 $286 #
vertex $-1 $217 $287 #
straight-curve $-1 31.155880277608734 0 -44.655922840050764 0 -1 0 I I #
coedge $-1 $197 $199 $142 $209 reversed $135 $-1 #
edge $-1 $212 -44.655922840050735 $215 44.655922840050735 $208 $288 forward 7 unknown #
coedge $-1 $203 $143 $148 $218 forward $195 $-1 #
coedge $-1 $143 $203 $197 $279 reversed $195 $-1 #
vertex $-1 $144 $289 #
straight-curve $-1 0 44.655922840050735 44.655922840050764 -1 0 0 I I #
coedge $-1 $145 $198 $147 $217 reversed $93 $-1 #
vertex $-1 $209 $290 #
straight-curve $-1 0 -44.655922840050735 44.655922840050764 1 0 0 I I #
edge $-1 $150 -44.655922840050764 $206 44.655922840050764 $147 $291 forward 7 unknown #
edge $-1 $151 -44.655922840050764 $205 44.655922840050764 $148 $292 forward 7 unknown #
point $-1 31.155880277608734 -44.655922840050735 44.655922840050764 #
point $-1 31.155880277608734 44.655922840050735 44.655922840050764 #
vertex $-1 $154 $293 #
ellipse-curve $-1 0 0 2.0000000000000355 0 0 1 14.753604652274626 0 0 1 I I #
point $-1 14.753604652274626 0 -2.0000000000000355 #
face $-1 $294 $295 $25 $-1 $296 forward single #
loop $-1 $-1 $247 $157 #
plane-surface $-1 0 44.655922840050735 0 0 -1 0 0 0 -1 forward_v I I I I #
coedge $-1 $297 $298 $299 $230 reversed $158 $-1 #
coedge $-1 $165 $159 $300 $301 reversed $106 $-1 #
coedge $-1 $159 $165 $302 $303 reversed $106 $-1 #
edge $-1 $304 -62.311760555217376 $305 8.8817841970012523e-014 $299 $306 forward 7 unknown #
coedge $-1 $161 $160 $307 $308 reversed $73 $-1 #
coedge $-1 $309 $310 $311 $233 forward $312 $-1 #
edge $-1 $313 -62.311760555217475 $237 -3.5527136788005009e-015 $232 $314 forward 7 unknown #
coedge $-1 $235 $162 $315 $316 forward $236 $-1 #
coedge $-1 $162 $234 $309 $317 reversed $236 $-1 #
loop $-1 $-1 $162 $318 #
vertex $-1 $317 $319 #
vertex $-1 $316 $320 #
ellipse-curve $-1 -31.155880277608734 -1.3607850615062442e-029 3.5527136788005161e-014 1 0 0 -8.2059150298940375e-014 1.6368346730282027e-015 -44.655922840050735 1 I I #
coedge $-1 $321 $322 $164 $241 forward $323 $-1 #
edge $-1 $238 1.5707963267948966 $243 3.1415926535897931 $240 $239 forward 7 unknown #
coedge $-1 $324 $325 $326 $166 forward $295 $-1 #
vertex $-1 $327 $328 #
straight-curve $-1 -31.155880277608567 1.4199496293978212e-029 44.655922840050764 -1 -1.6653345369377351e-016 1.8375871570913693e-015 I I #
coedge $-1 $329 $167 $322 $330 reversed $248 $-1 #
coedge $-1 $167 $329 $169 $250 forward $248 $-1 #
coedge $-1 $331 $315 $161 $168 reversed $225 $-1 #
loop $-1 $-1 $167 $332 #
straight-curve $-1 -31.155880277608659 44.655922840050735 3.5527136788005022e-014 -1 -1.6653345369377351e-016 1.8375871570913693e-015 I I #
edge $-1 $333 -44.655922840050764 $173 7.8976154144015033e-014 $169 $334 forward 7 unknown #
coedge $-1 $335 $326 $170 $252 forward $336 $-1 #
edge $-1 $172 1.0376992690999783e-014 $333 44.655922840050735 $170 $337 forward 7 unknown #
face $-1 $338 $171 $25 $-1 $339 reversed single #
point $-1 31.155880277608738 1.0376992690999783e-014 44.655922840050764 #
edge $-1 $173 7.8976154144015033e-014 $340 44.655922840050764 $341 $334 forward 7 unknown #
point $-1 31.155880277608734 44.655922840050728 -7.8976154144015033e-014 #
aggregate_simgeom_attribute-aggregate_simgeom_base_attribute-aggregate_body_attribute-attrib_HH-attrib $-1 $-1 $175 $0 F #
model_id-kcp-attrib $-1 $342 $177 $115 1 1017638578 60 -281280511 7 #
model_id-kcp-attrib $-1 $343 $-1 $178 1 1017638578 60 -281280511 11 #
face $344 $-1 $345 $9 $-1 $346 forward single #
loop $347 $348 $267 $178 #
plane-surface $-1 63.701524826102954 -46.090085061297181 59.431640232980534 1 1.6653345369377348e-016 -1.8375871570913693e-015 -1.8375871570913693e-012 1.0530313600265437e-013 -1000 forward_v I I I I #
coedge $349 $263 $263 $350 $351 forward $180 $-1 #
attrib_hh_coedge_geombuild-attrib_entity_geombuild-individual_entity_attribute-attrib_HH-attrib $-1 $-1 $-1 $181 F #
edge $352 $353 -5.3811868361969985e-017 $353 6.2831853071795862 $192 $354 forward 7 unknown #
attrib_hh_coedge_geombuild-attrib_entity_geombuild-individual_entity_attribute-attrib_HH-attrib $-1 $-1 $-1 $183 F #
coedge $355 $267 $267 $183 $268 forward $261 $-1 #
edge $356 $357 1.0530313600265437e-016 $357 6.2831853071795862 $183 $358 forward 7 unknown #
attrib_edge_convexity-kcp-attrib $-1 $359 $-1 $185 1 #
vertex $360 $185 $361 #
ellipse-curve $-1 59.701524826102933 -46.090085061297188 50.054837906843211 -1 -1.6653345369377348e-016 1.8375871570913693e-015 2.7111034429823319e-014 -1.5536008372278685e-015 14.753604652274619 1 I I #
convexity-sys-attrib $-1 $362 $187 $124 #
attrib_hh_vertex_geombuild-attrib_entity_geombuild-individual_entity_attribute-attrib_HH-attrib $-1 $-1 $-1 $188 F #
point $-1 59.701524826102954 -46.090085061297181 65.232171566800801 #
attrib_hh_coedge_geombuild-attrib_entity_geombuild-individual_entity_attribute-attrib_HH-attrib $-1 $-1 $-1 $192 F #
model_id-kcp-attrib $-1 $-1 $-1 $194 1 1017638578 60 -281280510 3 #
plane-surface $-1 31.155880277608734 0 0 -1 0 0 0 0 1 forward_v I I I I #
coedge $-1 $199 $197 $201 $282 reversed $135 $-1 #
edge $-1 $212 -44.655922840050764 $284 44.655922840050764 $211 $363 forward 7 unknown #
vertex $-1 $282 $364 #
straight-curve $-1 -31.155880277608734 -44.655922840050735 0 0 0 -1 I I #
edge $-1 $280 -44.655922840050735 $284 44.655922840050735 $278 $365 forward 7 unknown #
straight-curve $-1 0 -44.655922840050735 -44.655922840050764 -1 0 0 I I #
vertex $-1 $204 $366 #
straight-curve $-1 0 44.655922840050735 -44.655922840050764 1 0 0 I I #
point $-1 31.155880277608734 44.655922840050735 -44.655922840050764 #
point $-1 31.155880277608734 -44.655922840050735 -44.655922840050764 #
straight-curve $-1 -31.155880277608734 0 44.655922840050764 0 -1 0 I I #
point $-1 -31.155880277608734 44.655922840050735 44.655922840050764 #
point $-1 -31.155880277608734 -44.655922840050735 44.655922840050764 #
straight-curve $-1 31.155880277608734 -44.655922840050735 0 0 0 -1 I I #
straight-curve $-1 31.155880277608734 44.655922840050735 0 0 0 -1 I I #
point $-1 14.753604652274626 0 2.0000000000000355 #
face $-1 $318 $367 $25 $-1 $368 reversed single #
loop $-1 $-1 $242 $224 #
plane-surface $-1 0 0 44.655922840050764 0 0 1 1 0 0 forward_v I I I I #
coedge $-1 $369 $227 $370 $371 reversed $158 $-1 #
coedge $-1 $227 $369 $372 $373 reversed $158 $-1 #
coedge $-1 $374 $375 $376 $230 forward $377 $-1 #
coedge $-1 $378 $379 $228 $301 forward $380 $-1 #
edge $-1 $243 -3.1415926535897931 $305 -1.5707963267948966 $300 $239 forward 7 unknown #
coedge $-1 $381 $382 $229 $303 forward $383 $-1 #
edge $-1 $304 1.5707963267948966 $172 3.1415926535897931 $302 $174 forward 7 unknown #
vertex $-1 $384 $385 #
vertex $-1 $386 $387 #
straight-curve $-1 -31.155880277608645 -44.655922840050735 3.5527136788004997e-014 -1 -1.6653345369377351e-016 1.8375871570913693e-015 I I #
coedge $-1 $388 $341 $231 $308 forward $389 $-1 #
edge $-1 $173 -1.5707963267948966 $313 3.6654368982386193e-017 $307 $174 forward 7 unknown #
coedge $-1 $390 $232 $235 $317 forward $312 $-1 #
coedge $-1 $232 $390 $388 $391 forward $312 $-1 #
coedge $-1 $392 $393 $369 $233 reversed $394 $-1 #
loop $-1 $-1 $232 $395 #
vertex $-1 $396 $397 #
straight-curve $-1 -31.155880277608738 -1.4199496293978212e-029 -44.655922840050764 -1 -1.6653345369377351e-016 1.8375871570913693e-015 I I #
coedge $-1 $247 $398 $234 $316 reversed $225 $-1 #
edge $-1 $238 -3.5527136788005148e-014 $399 44.655922840050764 $315 $400 forward 7 unknown #
edge $-1 $237 5.7743091396549492e-032 $399 44.655922840050735 $235 $401 forward 7 unknown #
face $-1 $402 $236 $25 $-1 $368 reversed single #
point $-1 -31.155880277608734 5.7743091396549492e-032 -44.655922840050764 #
point $-1 -31.155880277608734 44.655922840050735 3.5527136788005148e-014 #
coedge $-1 $322 $240 $403 $404 reversed $323 $-1 #
coedge $-1 $240 $321 $245 $330 forward $323 $-1 #
loop $-1 $-1 $240 $402 #
coedge $-1 $405 $242 $379 $327 forward $295 $-1 #
coedge $-1 $242 $405 $381 $406 forward $295 $-1 #
coedge $-1 $251 $403 $108 $166 reversed $336 $-1 #
edge $-1 $243 2.7273444321521444e-029 $407 44.655922840050735 $379 $408 forward 7 unknown #
point $-1 -31.155880277608734 -2.7273444321521444e-029 44.655922840050764 #
coedge $-1 $246 $245 $335 $409 reversed $248 $-1 #
edge $-1 $410 -44.655922840050764 $238 -3.5527136788005148e-014 $245 $400 forward 7 unknown #
coedge $-1 $398 $247 $341 $255 forward $225 $-1 #
face $-1 $-1 $248 $25 $-1 $226 reversed single #
vertex $-1 $252 $411 #
straight-curve $-1 31.155880277608734 44.655922840050735 0 0 0 -1 I I #
coedge $-1 $403 $251 $329 $409 forward $336 $-1 #
loop $-1 $-1 $326 $412 #
straight-curve $-1 31.155880277608734 0 44.655922840050764 0 1 0 I I #
face $-1 $413 $389 $25 $-1 $339 reversed single #
plane-surface $-1 31.155880277608734 0 0 -1 0 0 0 0 1 forward_v I I I I #
vertex $-1 $391 $414 #
coedge $-1 $307 $388 $331 $255 reversed $389 $-1 #
attrib_hh_face_geombuild-attrib_entity_geombuild-individual_entity_attribute-attrib_HH-attrib $-1 $-1 $258 $115 F #
model_id-kcp-attrib $-1 $415 $259 $178 1 1017638578 60 -281280511 8 #
model_id-kcp-attrib $-1 $416 $-1 $260 1 1017638578 60 -281280511 9 #
loop $-1 $417 $350 $260 #
torus-surface $-1 65.554118848479249 -46.090085061297174 50.054837906843204 -1 -1.6653345369377348e-016 1.8375871570913693e-015 50.829320335572916 -32.129171187684449 1.8375871570913693e-015 -1.0530313600265437e-016 1 forward_v I I I I #
model_id-kcp-attrib $-1 $-1 $-1 $261 1 1017638578 60 -281280511 15 #
loop $-1 $-1 $418 $178 #
attrib_hh_coedge_geombuild-attrib_entity_geombuild-individual_entity_attribute-attrib_HH-attrib $-1 $-1 $-1 $263 F #
coedge $419 $350 $350 $263 $351 reversed $345 $-1 #
edge $420 $421 -5.3811868361969911e-017 $421 6.2831853071795862 $263 $422 forward 7 unknown #
attrib_edge_convexity-kcp-attrib $-1 $423 $-1 $265 1 #
vertex $424 $265 $425 #
ellipse-curve $-1 1.3897642708855731 -46.090085061297188 50.054837906843318 -1 -1.6653345369377348e-016 1.8375871570913693e-015 8.2059150298940387e-014 -4.7024087161499029e-015 44.655922840050735 1 I I #
attrib_hh_coedge_geombuild-attrib_entity_geombuild-individual_entity_attribute-attrib_HH-attrib $-1 $-1 $-1 $267 F #
attrib_edge_convexity-kcp-attrib $-1 $426 $-1 $268 1 #
vertex $427 $268 $428 #
ellipse-curve $-1 63.701524826102933 -46.090085061297181 50.054837906843204 -1 -1.6653345369377348e-016 1.8375871570913693e-015 2.7111034429823332e-014 -1.5536008372278693e-015 14.753604652274626 1 I I #
convexity-sys-attrib $-1 $429 $269 $185 #
model_id-kcp-attrib $-1 $430 $-1 $270 1 1017638578 60 -281280511 16 #
point $-1 59.701524826102954 -46.090085061297181 64.808442559117836 #
attrib_hh_edge_geombuild-attrib_entity_geombuild-individual_entity_attribute-attrib_HH-attrib $-1 $-1 $272 $124 F #
straight-curve $-1 -31.155880277608734 44.655922840050735 0 0 0 -1 I I #
point $-1 -31.155880277608734 -44.655922840050735 -44.655922840050764 #
straight-curve $-1 -31.155880277608734 0 -44.655922840050764 0 1 0 I I #
point $-1 -31.155880277608734 44.655922840050735 -44.655922840050764 #
loop $-1 $-1 $372 $294 #
plane-surface $-1 -31.155880277608734 0 0 1 0 0 0 0 -1 forward_v I I I I #
coedge $-1 $298 $297 $160 $233 forward $158 $-1 #
coedge $-1 $431 $432 $297 $371 forward $433 $-1 #
edge $-1 $313 3.6654368982386193e-017 $304 1.5707963267948966 $370 $174 forward 7 unknown #
coedge $-1 $434 $435 $298 $373 forward $367 $-1 #
edge $-1 $305 -1.5707963267948966 $237 -3.6654368982386242e-017 $372 $239 forward 7 unknown #
coedge $-1 $436 $299 $435 $386 forward $377 $-1 #
coedge $-1 $299 $436 $431 $384 reversed $377 $-1 #
coedge $-1 $437 $438 $159 $230 reversed $439 $-1 #
loop $-1 $-1 $299 $440 #
coedge $-1 $379 $300 $438 $441 reversed $380 $-1 #
coedge $-1 $300 $378 $324 $327 reversed $380 $-1 #
loop $-1 $-1 $300 $442 #
coedge $-1 $382 $302 $325 $406 reversed $383 $-1 #
coedge $-1 $302 $381 $437 $443 forward $383 $-1 #
loop $-1 $-1 $302 $444 #
edge $-1 $304 7.8976154144015033e-014 $445 44.655922840050764 $431 $446 forward 7 unknown #
point $-1 31.155880277608734 -44.655922840050742 -7.8976154144015033e-014 #
edge $-1 $305 -3.5527136788005173e-014 $447 44.655922840050764 $435 $448 forward 7 unknown #
point $-1 -31.155880277608734 -44.655922840050735 3.5527136788005173e-014 #
coedge $-1 $341 $307 $310 $391 reversed $389 $-1 #
loop $-1 $-1 $307 $338 #
coedge $-1 $310 $309 $398 $449 forward $312 $-1 #
edge $-1 $340 -44.655922840050735 $313 -1.0376992690999811e-014 $388 $450 forward 7 unknown #
coedge $-1 $451 $311 $432 $396 forward $394 $-1 #
coedge $-1 $311 $451 $434 $452 forward $394 $-1 #
loop $-1 $-1 $311 $453 #
face $-1 $440 $312 $25 $-1 $454 reversed single #
edge $-1 $313 -1.0376992690999811e-014 $445 44.655922840050735 $432 $450 forward 7 unknown #
point $-1 31.155880277608738 1.0376992690999811e-014 -44.655922840050764 #
coedge $-1 $315 $331 $390 $449 reversed $225 $-1 #
vertex $-1 $449 $455 #
straight-curve $-1 -31.155880277608734 44.655922840050735 0 0 0 -1 I I #
straight-curve $-1 -31.155880277608734 0 -44.655922840050764 0 1 0 I I #
face $-1 $442 $323 $25 $-1 $368 reversed single #
coedge $-1 $326 $335 $321 $404 forward $336 $-1 #
edge $-1 $410 -44.655922840050735 $243 2.7273444321521444e-029 $321 $408 forward 7 unknown #
coedge $-1 $325 $324 $456 $457 forward $295 $-1 #
edge $-1 $458 -44.655922840050735 $172 1.0376992690999783e-014 $381 $337 forward 7 unknown #
vertex $-1 $327 $459 #
straight-curve $-1 -31.155880277608734 0 44.655922840050764 0 -1 0 I I #
edge $-1 $333 -31.155880277608734 $410 31.155880277608734 $329 $460 forward 7 unknown #
vertex $-1 $409 $461 #
point $-1 31.155880277608734 44.655922840050735 44.655922840050764 #
face $-1 $395 $336 $25 $-1 $296 forward single #
face $-1 $462 $433 $25 $-1 $339 reversed single #
point $-1 31.155880277608734 44.655922840050735 -44.655922840050764 #
attrib_hh_face_geombuild-attrib_entity_geombuild-individual_entity_attribute-attrib_HH-attrib $-1 $-1 $343 $178 F #
attrib_hh_face_geombuild-attrib_entity_geombuild-individual_entity_attribute-attrib_HH-attrib $-1 $-1 $344 $260 F #
loop $-1 $-1 $463 $260 #
coedge $464 $418 $418 $463 $465 reversed $348 $-1 #
attrib_hh_coedge_geombuild-attrib_entity_geombuild-individual_entity_attribute-attrib_HH-attrib $-1 $-1 $-1 $350 F #
attrib_hh_edge_geombuild-attrib_entity_geombuild-individual_entity_attribute-attrib_HH-attrib $-1 $-1 $-1 $351 F #
vertex $466 $351 $467 #
ellipse-curve $-1 34.023612912642868 -46.090085061297181 50.054837906843261 -1 -1.6653345369377348e-016 1.8375871570913693e-015 8.2059150298940387e-014 -4.7024087161499029e-015 44.655922840050735 1 I I #
convexity-sys-attrib $-1 $468 $352 $265 #
attrib_hh_vertex_geombuild-attrib_entity_geombuild-individual_entity_attribute-attrib_HH-attrib $-1 $-1 $-1 $353 F #
point $-1 1.389764270885653 -46.090085061297195 94.710760746894053 #
convexity-sys-attrib $-1 $469 $356 $268 #
model_id-kcp-attrib $-1 $470 $-1 $357 1 1017638578 60 -281280511 17 #
point $-1 63.701524826102961 -46.090085061297181 64.808442559117836 #
attrib_hh_edge_geombuild-attrib_entity_geombuild-individual_entity_attribute-attrib_HH-attrib $-1 $-1 $359 $185 F #
attrib_hh_vertex_geombuild-attrib_entity_geombuild-individual_entity_attribute-attrib_HH-attrib $-1 $-1 $360 $270 F #
coedge $-1 $432 $370 $375 $384 forward $433 $-1 #
coedge $-1 $370 $431 $392 $396 reversed $433 $-1 #
loop $-1 $-1 $370 $413 #
coedge $-1 $435 $372 $393 $452 reversed $367 $-1 #
coedge $-1 $372 $434 $374 $386 reversed $367 $-1 #
coedge $-1 $375 $374 $451 $471 reversed $377 $-1 #
coedge $-1 $456 $376 $382 $443 reversed $439 $-1 #
coedge $-1 $376 $456 $378 $441 forward $439 $-1 #
loop $-1 $-1 $376 $462 #
face $-1 $332 $377 $25 $-1 $472 reversed single #
edge $-1 $407 -44.655922840050764 $305 -3.5527136788005173e-014 $378 $448 forward 7 unknown #
face $-1 $453 $380 $25 $-1 $368 reversed single #
edge $-1 $458 -44.655922840050764 $304 7.8976154144015033e-014 $382 $446 forward 7 unknown #
face $-1 $253 $383 $25 $-1 $339 reversed single #
vertex $-1 $384 $473 #
straight-curve $-1 31.155880277608734 -44.655922840050735 0 0 0 -1 I I #
vertex $-1 $452 $474 #
straight-curve $-1 -31.155880277608734 -44.655922840050735 0 0 0 -1 I I #
edge $-1 $399 -31.155880277608734 $340 31.155880277608734 $398 $475 forward 7 unknown #
straight-curve $-1 31.155880277608734 0 -44.655922840050764 0 -1 0 I I #
coedge $-1 $393 $392 $436 $471 forward $394 $-1 #
edge $-1 $447 -44.655922840050735 $237 5.7743091396549492e-032 $434 $401 forward 7 unknown #
face $-1 $444 $394 $25 $-1 $454 reversed single #
plane-surface $-1 0 0 -44.655922840050764 0 0 1 1 0 0 forward_v I I I I #
point $-1 -31.155880277608734 44.655922840050735 -44.655922840050764 #
coedge $-1 $438 $437 $405 $457 reversed $439 $-1 #
edge $-1 $407 -31.155880277608734 $458 31.155880277608734 $456 $476 forward 7 unknown #
vertex $-1 $406 $477 #
point $-1 -31.155880277608734 -44.655922840050735 44.655922840050764 #
straight-curve $-1 0 44.655922840050735 44.655922840050764 -1 0 0 I I #
point $-1 -31.155880277608734 44.655922840050735 44.655922840050764 #
face $-1 $412 $439 $25 $-1 $472 reversed single #
coedge $478 $463 $463 $418 $465 forward $417 $-1 #
attrib_hh_coedge_geombuild-attrib_entity_geombuild-individual_entity_attribute-attrib_HH-attrib $-1 $-1 $-1 $418 F #
edge $479 $480 -2.7358015013610836e-016 $480 6.2831853071795862 $463 $481 forward 7 unknown #
attrib_hh_vertex_geombuild-attrib_entity_geombuild-individual_entity_attribute-attrib_HH-attrib $-1 $-1 $-1 $421 F #
point $-1 34.023612912642946 -46.090085061297188 94.71076074689401 #
attrib_hh_edge_geombuild-attrib_entity_geombuild-individual_entity_attribute-attrib_HH-attrib $-1 $-1 $423 $265 F #
attrib_hh_edge_geombuild-attrib_entity_geombuild-individual_entity_attribute-attrib_HH-attrib $-1 $-1 $426 $268 F #
attrib_hh_vertex_geombuild-attrib_entity_geombuild-individual_entity_attribute-attrib_HH-attrib $-1 $-1 $427 $357 F #
edge $-1 $445 -31.155880277608734 $447 31.155880277608734 $436 $482 forward 7 unknown #
plane-surface $-1 0 -44.655922840050735 0 0 1 0 0 0 1 forward_v I I I I #
point $-1 31.155880277608734 -44.655922840050735 -44.655922840050764 #
point $-1 -31.155880277608734 -44.655922840050735 -44.655922840050764 #
straight-curve $-1 0 44.655922840050735 -44.655922840050764 1 0 0 I I #
straight-curve $-1 0 -44.655922840050735 44.655922840050764 1 0 0 I I #
point $-1 31.155880277608734 -44.655922840050735 44.655922840050764 #
attrib_hh_coedge_geombuild-attrib_entity_geombuild-individual_entity_attribute-attrib_HH-attrib $-1 $-1 $-1 $463 F #
attrib_hh_edge_geombuild-attrib_entity_geombuild-individual_entity_attribute-attrib_HH-attrib $-1 $-1 $-1 $465 F #
vertex $483 $465 $484 #
ellipse-curve $-1 63.701524826102926 -46.090085061297174 50.054837906843204 -1 -1.6653345369377348e-016 1.8375871570913693e-015 3.4461383058188813e-014 -1.9748133812384872e-015 18.753604652274632 1 I I #
straight-curve $-1 0 -44.655922840050735 -44.655922840050764 -1 0 0 I I #
attrib_hh_vertex_geombuild-attrib_entity_geombuild-individual_entity_attribute-attrib_HH-attrib $-1 $-1 $-1 $480 F #
point $-1 63.701524826102961 -46.090085061297181 68.808442559117836 #
End-of-ACIS-data 