600 0 1 0           
85 GICL ACIS Healer - Source: /gicl/data5/repository/CMU/seeker/counter_weight.sat - 6 0 18 ACIS 6.0.3 Solaris 24 Sat Apr 13 00:31:14 2002 
1 9.999999999999999547e-07 1.000000000000000036e-10 
body $1 $2 $-1 $3 #
rgb_color-st-attrib $-1 $-1 $-1 $0 0 1 0 #
lump $-1 $-1 $4 $0 #
transform $-1 1 0 0 0 1 0 0 0 1 0 0 0 1 no_rotate no_reflect no_shear #
shell $-1 $-1 $-1 $5 $-1 $2 #
face $-1 $6 $7 $4 $-1 $8 reversed single #
face $-1 $9 $10 $4 $-1 $11 reversed single #
loop $-1 $12 $13 $5 #
cone-surface $-1 -21 2.5 0 0 1 0 1 0 0 1 I I 0 1 1 forward I I I I #
face $-1 $14 $15 $4 $-1 $16 reversed single #
loop $-1 $-1 $17 $6 #
plane-surface $-1 -21 5 0 0 1 0 1 0 0 forward_v I I I I #
loop $-1 $-1 $18 $5 #
coedge $-1 $13 $13 $19 $20 reversed $7 $-1 #
face $-1 $21 $22 $4 $-1 $23 reversed single #
loop $-1 $24 $25 $9 #
cone-surface $-1 21 2.5 0 0 1 0 1 0 0 1 I I 0 1 1 forward I I I I #
coedge $-1 $17 $17 $18 $26 reversed $10 $-1 #
coedge $-1 $18 $18 $17 $26 forward $12 $-1 #
coedge $-1 $19 $19 $13 $20 forward $27 $-1 #
edge $-1 $28 0 $28 6.283185307179586232 $19 $29 forward 7 unknown #
face $-1 $30 $31 $4 $-1 $32 reversed single #
loop $-1 $-1 $33 $14 #
plane-surface $-1 21 5 0 0 1 0 1 0 0 forward_v I I I I #
loop $-1 $-1 $34 $9 #
coedge $-1 $25 $25 $35 $36 reversed $15 $-1 #
edge $-1 $37 0 $37 6.283185307179586232 $17 $38 forward 7 unknown #
loop $-1 $39 $19 $40 #
vertex $-1 $20 $41 #
ellipse-curve $-1 -21 0 0 -0 1 -0 1 0 0 1 I I #
face $-1 $40 $42 $4 $-1 $43 forward single #
loop $-1 $-1 $44 $21 #
cone-surface $-1 0 0 0 0 0 1 12 0 0 1 I I 0 1 12 forward I I I I #
coedge $-1 $33 $33 $34 $45 reversed $22 $-1 #
coedge $-1 $34 $34 $33 $45 forward $24 $-1 #
coedge $-1 $35 $35 $25 $36 forward $46 $-1 #
edge $-1 $47 0 $47 6.283185307179586232 $35 $48 forward 7 unknown #
vertex $-1 $26 $49 #
ellipse-curve $-1 -21 5 0 0 1 0 1 0 0 1 I I #
loop $-1 $-1 $50 $40 #
face $-1 $51 $27 $4 $-1 $52 forward single #
point $-1 -20 0 0 #
loop $-1 $-1 $53 $30 #
plane-surface $-1 0 0 -2.5 0 0 -1 -1 0 0 forward_v I I I I #
coedge $-1 $54 $55 $56 $57 reversed $31 $-1 #
edge $-1 $58 0 $58 6.283185307179586232 $33 $59 forward 7 unknown #
loop $-1 $60 $35 $51 #
vertex $-1 $36 $61 #
ellipse-curve $-1 21 0 0 -0 1 -0 1 0 0 1 I I #
point $-1 -20 5 0 #
coedge $-1 $62 $63 $64 $65 forward $39 $-1 #
face $-1 $66 $46 $4 $-1 $52 forward single #
plane-surface $-1 0 0 0 0 -1 0 0 0 -1 forward_v I I I I #
coedge $-1 $67 $68 $55 $69 forward $42 $-1 #
coedge $-1 $64 $44 $70 $71 reversed $31 $-1 #
coedge $-1 $44 $64 $53 $69 reversed $31 $-1 #
coedge $-1 $72 $73 $44 $57 forward $60 $-1 #
edge $-1 $74 -2.5 $75 2.5 $56 $76 forward 7 unknown #
vertex $-1 $45 $77 #
ellipse-curve $-1 21 5 0 0 1 0 1 0 0 1 I I #
loop $-1 $-1 $56 $51 #
point $-1 22 0 0 #
coedge $-1 $78 $50 $79 $80 reversed $39 $-1 #
coedge $-1 $50 $78 $67 $81 reversed $39 $-1 #
coedge $-1 $55 $54 $50 $65 reversed $31 $-1 #
edge $-1 $82 -2.5 $83 2.5 $50 $84 forward 7 unknown #
face $-1 $85 $86 $4 $-1 $87 forward single #
coedge $-1 $88 $53 $63 $81 forward $42 $-1 #
coedge $-1 $53 $88 $72 $89 forward $42 $-1 #
edge $-1 $75 0 $82 3.141592653589793116 $53 $90 forward 7 unknown #
coedge $-1 $91 $79 $54 $71 forward $92 $-1 #
edge $-1 $83 -3.141592653589793116 $74 0 $70 $93 forward 7 unknown #
coedge $-1 $94 $56 $68 $89 reversed $60 $-1 #
coedge $-1 $56 $94 $91 $95 reversed $60 $-1 #
vertex $-1 $95 $96 #
vertex $-1 $69 $97 #
straight-curve $-1 12 0 0 -0 -0 -1 I I #
point $-1 22 5 0 #
coedge $-1 $63 $62 $98 $99 reversed $39 $-1 #
coedge $-1 $70 $100 $62 $80 forward $92 $-1 #
edge $-1 $101 -25 $83 -12 $79 $102 forward 7 unknown #
edge $-1 $82 12 $103 25 $67 $104 forward 7 unknown #
vertex $-1 $81 $105 #
vertex $-1 $65 $106 #
straight-curve $-1 -12 0 0 0 0 1 I I #
face $-1 $-1 $92 $4 $-1 $107 forward single #
loop $-1 $-1 $108 $66 #
cone-surface $-1 0 0 0 0 0 1 25 0 0 1 I I 0 1 25 forward I I I I #
coedge $-1 $68 $67 $109 $110 forward $42 $-1 #
edge $-1 $111 -25 $75 -12 $68 $104 forward 7 unknown #
ellipse-curve $-1 0 0 -2.5 -0 -0 1 12 0 0 1 I I #
coedge $-1 $100 $70 $73 $95 forward $92 $-1 #
loop $-1 $-1 $70 $85 #
ellipse-curve $-1 0 0 2.5 -0 -0 -1 12 0 0 1 I I #
coedge $-1 $73 $72 $108 $112 reversed $60 $-1 #
edge $-1 $74 12 $113 25 $91 $102 forward 7 unknown #
point $-1 12 0 2.5 #
point $-1 12 0 -2.5 #
coedge $-1 $114 $109 $78 $99 forward $86 $-1 #
edge $-1 $103 -2.5 $101 2.5 $98 $115 forward 7 unknown #
coedge $-1 $79 $91 $114 $116 forward $92 $-1 #
vertex $-1 $99 $117 #
straight-curve $-1 0 0 2.5 1 0 -0 I I #
vertex $-1 $110 $118 #
straight-curve $-1 0 0 -2.5 -1 -0 -0 I I #
point $-1 -12 0 -2.5 #
point $-1 -12 0 2.5 #
plane-surface $-1 0 0 2.5 0 0 1 1 0 0 forward_v I I I I #
coedge $-1 $109 $114 $94 $112 forward $86 $-1 #
coedge $-1 $98 $108 $88 $110 reversed $86 $-1 #
edge $-1 $103 -3.141592653589793116 $111 0 $88 $119 forward 7 unknown #
vertex $-1 $110 $120 #
edge $-1 $113 -2.5 $111 2.5 $108 $121 forward 7 unknown #
vertex $-1 $95 $122 #
coedge $-1 $108 $98 $100 $116 reversed $86 $-1 #
straight-curve $-1 -25 0 0 0 0 1 I I #
edge $-1 $113 0 $101 3.141592653589793116 $100 $123 forward 7 unknown #
point $-1 -25 0 2.5 #
point $-1 -25 0 -2.5 #
ellipse-curve $-1 0 0 -2.5 0 0 -1 25 0 0 1 I I #
point $-1 25 0 -2.5 #
straight-curve $-1 25 0 0 -0 -0 -1 I I #
point $-1 25 0 2.5 #
ellipse-curve $-1 0 0 2.5 0 0 1 25 0 0 1 I I #
End-of-ACIS-data 