201 0 1 0           
7 Unknown 16 ACIS 2.1 Solaris 24 Thu Jan  9 17:19:56 1997 
-1 9.999999999999999547e-07 1.000000000000000036e-10 
body $1 $2 $-1 $3 #
display_attribute-st-attrib $-1 $4 $-1 $0 5 #
lump $-1 $-1 $5 $0 #
transform $-1 1 0 0 0 1 0 0 0 1 0 0 5 1 rotate no_reflect no_shear #
rgb_color-st-attrib $-1 $6 $1 $0 0 1 0 #
shell $-1 $-1 $-1 $7 $-1 $2 #
id_attribute-st-attrib $-1 $-1 $4 $0 911 #
face $-1 $8 $9 $5 $-1 $10 reversed single #
face $-1 $11 $12 $5 $-1 $13 reversed single #
loop $-1 $14 $15 $7 #
cone-surface $-1 -31.81980515339464688 -31.81980515339463622 65 -0.7071067811865476838 -0.7071067811865474617 0 0 0 -4 1 I I 0 1 forward I I I I #
face $-1 $16 $17 $5 $-1 $18 reversed single #
loop $-1 $-1 $19 $8 #
plane-surface $-1 -21.21320343559643362 -21.21320343559642652 65 0.7071067811865476838 0.7071067811865474617 0 0 -0 1 forward_v I I I I #
loop $-1 $-1 $20 $7 #
coedge $-1 $15 $15 $21 $22 1 $9 $-1 #
face $-1 $23 $24 $5 $-1 $25 reversed single #
loop $-1 $26 $27 $11 #
cone-surface $-1 -45 5.510910596163089556e-15 65 -1 1.224646799147353207e-16 0 0 0 -4 1 I I 0 1 forward I I I I #
coedge $-1 $19 $19 $20 $28 1 $12 $-1 #
coedge $-1 $20 $20 $19 $28 0 $14 $-1 #
coedge $-1 $21 $21 $15 $22 0 $29 $-1 #
edge $-1 $30 $30 $21 $31 forward #
face $-1 $32 $33 $5 $-1 $34 reversed single #
loop $-1 $-1 $35 $16 #
plane-surface $-1 -30 3.673940397442059178e-15 65 1 -1.224646799147353207e-16 0 -0 0 1 forward_v I I I I #
loop $-1 $-1 $36 $11 #
coedge $-1 $27 $27 $37 $38 1 $17 $-1 #
edge $-1 $39 $39 $19 $40 forward #
loop $-1 $41 $21 $42 #
vertex $-1 $22 $43 #
intcurve-curve $-1 forward { surfintcur nubs 3 periodic 33 
	0 3 0.7539156440605963017 2 1.507831288121192603 2 2.261746932181789127 2 3.015662576242385207 2 
	3.769575654156883449 2 4.523488732071381691 2 5.277401809985879488 2 6.031314887900377286 2 6.785227965814874196 2 
	7.539141043729371994 2 8.293054121643869792 2 9.046967199558366701 2 9.800882843618962781 2 10.55479848767955886 2 
	11.30871413174015672 2 12.0626297758007528 2 12.81654541986134888 2 13.57046106392194318 2 14.32437670798253748 2 
	15.07829235204313179 2 15.83220542995763047 2 16.58611850787212916 2 17.34003158578662607 2 18.09394466370112298 2 
	18.84785774161561989 2 19.60177081953012035 2 20.35568389744462081 2 21.10959697535911772 2 21.86351261941971202 2 
	22.61742826348030633 2 23.37134390754090063 2 24.12525955160149493 3 
	-25.31406743419439209 -30.97092168368676113 65 
	-25.31406743419439209 -30.97092168368676113 64.74869478531313405 
	-25.33281154570295257 -30.95563357464344989 64.48885972838031932 
	-25.41151157971528463 -30.89106132931357251 63.97209171957445761 
	-25.47144700486973079 -30.84178816942954171 63.71515427482877669 
	-25.62920344032033171 -30.71081960699613589 63.22244569039214923 
	-25.72713758888373903 -30.62900749634017927 62.98627895333697069 
	-25.9520784996043794 -30.4386486276617596 62.54957534454033663 
	-26.07908080201202239 -30.33007090031826891 62.34904967577683976 
	-26.34786265921660942 -30.09687341521978965 61.99409667881877795 
	-26.49885882976303009 -29.96428385920629722 61.8275165072595243 
	-26.8249133305017331 -29.67274593437223373 61.53385494252750476 
	-26.99994625371757451 -29.51378799845011258 61.40675483865179984 
	-27.36169092618151666 -29.17873625397076154 61.20259508286851968 
	-27.54868100165649736 -29.00236131952128105 61.12537292772412201 
	-27.92112233171138769 -28.64398217386509415 61.024064260227739 
	-28.10657223085572198 -28.46197026406808206 61 
	-28.46197026406809627 -28.10657223085570777 61 
	-28.64398217386510126 -27.92112233171138058 61.0240642602277461 
	-29.0023613195212846 -27.54868100165649025 61.1253729277241149 
	-29.17873625397076864 -27.361690926181506 61.20259508286851258 
	-29.51378799845011613 -26.99994625371756385 61.40675483865179984 
	-29.67274593437223729 -26.82491333050171889 61.53385494252750476 
	-29.96428385920630433 -26.49885882976301588 61.82751650725953141 
	-30.09687341521980386 -26.3478626592165952 61.99409667881877795 
	-30.33007090031828312 -26.07908080201200463 62.34904967577683976 
	-30.43864862766176316 -25.9520784996043723 62.54957534454033663 
	-30.62900749634017927 -25.72713758888373192 62.98627895333697069 
	-30.71081960699613944 -25.6292034403203246 63.22244569039214923 
	-30.84178816942954882 -25.47144700486971658 63.71515427482876959 
	-30.89106132931358673 -25.41151157971527397 63.97209171957447893 
	-30.95563357464346055 -25.33281154570294191 64.48885972838034775 
	-30.97092168368677534 -25.31406743419437788 64.74869478531313405 
	-30.97092168368677534 -25.31406743419437788 65.25130521468686595 
	-30.95563357464346055 -25.33281154570294191 65.51114027161965225 
	-30.89106132931359028 -25.41151157971527041 66.02790828042550686 
	-30.84178816942954882 -25.47144700486970237 66.28484572517119489 
	-30.71081960699614655 -25.62920344032030329 66.77755430960782235 
	-30.62900749634018993 -25.72713758888372482 67.013721046663008 
	-30.43864862766176671 -25.95207849960436519 67.45042465545965626 
	-30.33007090031828312 -26.07908080201200818 67.65095032422314603 
	-30.09687341521980386 -26.3478626592165952 68.00590332118122205 
	-29.96428385920629722 -26.49885882976301588 68.17248349274046859 
	-29.67274593437223373 -26.82491333050171889 68.46614505747248813 
	-29.51378799845012679 -26.9999462537175603 68.59324516134820726 
	-29.1787362539707793 -27.361690926181506 68.79740491713148742 
	-29.0023613195212917 -27.54868100165647959 68.87462707227589931 
	-28.64398217386510481 -27.92112233171136992 68.97593573977226811 
	-28.46197026406809627 -28.10657223085570777 69 
	-28.10657223085572198 -28.46197026406807851 69 
	-27.92112233171138769 -28.64398217386509415 68.97593573977226811 
	-27.54868100165649736 -29.00236131952128105 68.87462707227589931 
	-27.36169092618151666 -29.17873625397076154 68.79740491713148742 
	-26.99994625371757095 -29.51378799845011258 68.59324516134820726 
	-26.8249133305017331 -29.67274593437223018 68.46614505747248813 
	-26.49885882976303009 -29.96428385920629367 68.17248349274046859 
	-26.34786265921660942 -30.09687341521978965 68.00590332118122205 
	-26.07908080201202239 -30.33007090031826891 67.65095032422314603 
	-25.95207849960437585 -30.4386486276617596 67.45042465545965626 
	-25.72713758888373903 -30.62900749634017217 67.01372104666303642 
	-25.62920344032033526 -30.71081960699613234 66.77755430960786498 
	-25.47144700486972724 -30.84178816942953461 66.28484572517123752 
	-25.41151157971528463 -30.89106132931356541 66.0279082804255637 
	-25.33281154570294902 -30.95563357464344278 65.51114027161969489 
	-25.31406743419439209 -30.97092168368676113 65.25130521468686595 
	-25.31406743419439209 -30.97092168368676113 65 
	0.001000000000000000021 
	cone -31.81980515339464688 -31.81980515339463622 65 -0.7071067811865476838 -0.7071067811865474617 0 0 0 -4 1 I I 0 1 forward I I I I 
	cone 0 0 65 0 0 1 40 0 0 1 I I 0 1 forward I I I I 
	nullbs 
	nullbs 
	I I } I I #
face $-1 $44 $45 $5 $-1 $46 reversed single #
loop $-1 $47 $48 $23 #
cone-surface $-1 31.81980515339463977 31.81980515339463622 65 0.7071067811865475727 0.7071067811865474617 0 0 0 -4 1 I I 0 1 forward I I I I #
coedge $-1 $35 $35 $36 $49 1 $24 $-1 #
coedge $-1 $36 $36 $35 $49 0 $26 $-1 #
coedge $-1 $37 $37 $27 $38 0 $41 $-1 #
edge $-1 $50 $50 $37 $51 forward #
vertex $-1 $28 $52 #
ellipse-curve $-1 -21.21320343559643362 -21.21320343559642652 65 0.7071067811865476838 0.7071067811865474617 0 0 0 -4 1 I I #
loop $-1 $53 $37 $42 #
face $-1 $54 $29 $5 $-1 $55 forward single #
point $-1 -25.31406743419439209 -30.97092168368676113 65 #
face $-1 $56 $57 $5 $-1 $58 reversed single #
loop $-1 $-1 $59 $32 #
plane-surface $-1 21.21320343559642652 21.21320343559642652 65 -0.7071067811865475727 -0.7071067811865474617 0 0 0 1 forward_v I I I I #
loop $-1 $-1 $60 $23 #
coedge $-1 $48 $48 $61 $62 1 $33 $-1 #
edge $-1 $63 $63 $35 $64 forward #
vertex $-1 $38 $65 #
intcurve-curve $-1 forward { surfintcur nubs 3 periodic 33 
	0 3 0.7539156440605965237 2 1.507831288121193047 2 2.261746932181789571 2 3.015662576242386095 2 
	3.769575654156883004 2 4.523488732071379914 2 5.277401809985876824 2 6.031314887900373733 2 6.785227965814870643 2 
	7.539141043729367553 2 8.293054121643864462 2 9.046967199558361372 2 9.800882843618957452 2 10.55479848767955531 2 
	11.30871413174015139 2 12.06262977580074747 2 12.81654541986134177 2 13.57046106392193607 2 14.32437670798253038 2 
	15.07829235204312646 2 15.83220542995762514 2 16.58611850787212205 2 17.34003158578661896 2 18.09394466370111942 2 
	18.84785774161561989 2 19.6017708195301168 2 20.35568389744461371 2 21.10959697535911062 2 21.86351261941970492 2 
	22.61742826348029922 2 23.37134390754089353 2 24.12525955160148783 3 
	-39.79949748426479772 -3.999999999999995115 65 
	-39.79949748426479772 -3.999999999999995115 64.74869478531313405 
	-39.80194124704377856 -3.975935586068929606 64.48885972838031932 
	-39.81193110222431386 -3.874626785790000749 63.97209171957445761 
	-39.81947046229981879 -3.797404654745506036 63.71515427482877669 
	-39.83841234896384265 -3.593245250843651206 63.22244569039214923 
	-39.84981235129475863 -3.466145452056719201 62.98627895333697069 
	-39.87426554773009002 -3.172484161818365234 62.54957534454033663 
	-39.88729368969842426 -3.005903925269221233 62.34904967577683976 
	-39.91245564051892103 -2.650950928311156751 61.99409667881877795 
	-39.92547108247384102 -2.450425538012925397 61.8275165072595243 
	-39.94987798735935058 -2.013721745880973746 61.53385494252750476 
	-39.96124471988223092 -1.777554544530200342 61.40675483865179984 
	-39.98011947026986945 -1.284845073003110016 61.20259508286851968 
	-39.98762550847224162 -1.027907210439607866 61.12537292772412201 
	-39.99756897441886139 -0.5111390962343291822 61.024064260227739 
	-40 -0.2513043593048274182 61 
	-40 0.2513043593048371882 61 
	-39.99756897441886139 0.5111390962343389521 61.024064260227739 
	-39.98762550847224162 1.027907210439617636 61.12537292772412201 
	-39.98011947026986945 1.284845073003119786 61.20259508286851968 
	-39.96124471988223092 1.777554544530210112 61.40675483865179984 
	-39.94987798735935058 2.013721745880983516 61.53385494252750476 
	-39.92547108247384102 2.450425538012935167 61.8275165072595243 
	-39.91245564051892103 2.650950928311166521 61.99409667881877795 
	-39.88729368969842426 3.005903925269230559 62.34904967577684687 
	-39.87426554773009002 3.172484161818383885 62.54957534454034374 
	-39.84981235129475863 3.466145452056732967 62.98627895333697069 
	-39.83841234896384265 3.593245250843656979 63.22244569039214923 
	-39.81947046229981879 3.797404654745512698 63.71515427482876248 
	-39.81193110222431386 3.874626785790010963 63.97209171957445761 
	-39.80194124704377856 3.975935586068941596 64.48885972838033354 
	-39.79949748426479772 4.000000000000004441 64.74869478531313405 
	-39.79949748426479061 4.000000000000003553 65.25130521468686595 
	-39.80194124704377145 3.97593558606894204 65.51114027161966646 
	-39.81193110222430676 3.874626785790013184 66.02790828042553528 
	-39.81947046229981879 3.797404654745521135 66.2848457251712091 
	-39.83841234896384265 3.593245250843668082 66.77755430960783656 
	-39.84981235129475863 3.466145452056737852 67.01372104666303642 
	-39.87426554773009002 3.172484161818383441 67.45042465545965626 
	-39.88729368969842426 3.005903925269231003 67.65095032422314603 
	-39.91245564051892103 2.650950928311166521 68.00590332118120784 
	-39.92547108247384102 2.450425538012939164 68.17248349274045438 
	-39.94987798735935058 2.01372174588099373 68.46614505747247392 
	-39.96124471988221671 1.777554544530216996 68.59324516134820726 
	-39.98011947026984814 1.284845073003126448 68.79740491713148742 
	-39.98762550847223451 1.027907210439622077 68.87462707227589931 
	-39.99756897441885428 0.5111390962343409505 68.97593573977226811 
	-40 0.251304359304838687 69 
	-40 -0.2513043593048281399 69 
	-39.99756897441886139 -0.5111390962343294042 68.97593573977226811 
	-39.98762550847224162 -1.027907210439608754 68.87462707227589931 
	-39.98011947026986945 -1.284845073003112237 68.79740491713148742 
	-39.96124471988223092 -1.777554544530203007 68.59324516134820726 
	-39.94987798735935058 -2.013721745880982628 68.46614505747247392 
	-39.92547108247384102 -2.450425538012929838 68.17248349274045438 
	-39.91245564051892103 -2.650950928311156751 68.00590332118120784 
	-39.88729368969842426 -3.005903925269220345 67.65095032422314603 
	-39.87426554773009002 -3.172484161818372783 67.45042465545965626 
	-39.84981235129475863 -3.466145452056726306 67.01372104666303642 
	-39.83841234896384265 -3.59324525084365165 66.77755430960783656 
	-39.81947046229981879 -3.79740465474550648 66.28484572517123752 
	-39.81193110222431386 -3.874626785790000749 66.02790828042554949 
	-39.80194124704377856 -3.975935586068929606 65.51114027161968068 
	-39.79949748426479772 -3.999999999999995115 65.25130521468686595 
	-39.79949748426479772 -3.999999999999995115 65 
	0.001000000000000000021 
	cone -45 5.510910596163089556e-15 65 -1 1.224646799147353207e-16 0 0 0 -4 1 I I 0 1 forward I I I I 
	cone 0 0 65 0 0 1 40 0 0 1 I I 0 1 forward I I I I 
	nullbs 
	nullbs 
	I I } I I #
point $-1 -21.21320343559643362 -21.21320343559642652 61 #
loop $-1 $66 $61 $42 #
face $-1 $67 $68 $5 $-1 $69 forward single #
cone-surface $-1 0 0 65 0 0 1 40 0 0 1 I I 0 1 forward I I I I #
face $-1 $70 $71 $5 $-1 $72 reversed single #
loop $-1 $73 $74 $44 #
cone-surface $-1 45 0 65 1 0 0 0 0 -4 1 I I 0 1 forward I I I I #
coedge $-1 $59 $59 $60 $75 1 $45 $-1 #
coedge $-1 $60 $60 $59 $75 0 $47 $-1 #
coedge $-1 $61 $61 $48 $62 0 $53 $-1 #
edge $-1 $76 $76 $61 $77 forward #
vertex $-1 $49 $78 #
ellipse-curve $-1 -30 3.673940397442059178e-15 65 1 -1.224646799147353207e-16 0 0 0 -4 1 I I #
point $-1 -39.79949748426479772 -3.999999999999995115 65 #
loop $-1 $79 $80 $42 #
face $-1 $81 $82 $5 $-1 $83 forward single #
loop $-1 $84 $85 $54 #
plane-surface $-1 0 0 85 0 0 1 1 0 0 forward_v I I I I #
face $-1 $86 $87 $5 $-1 $88 forward single #
loop $-1 $-1 $89 $56 #
plane-surface $-1 30 0 65 -1 0 0 0 0 1 forward_v I I I I #
loop $-1 $-1 $90 $44 #
coedge $-1 $74 $74 $80 $91 1 $57 $-1 #
edge $-1 $92 $92 $59 $93 forward #
vertex $-1 $62 $94 #
intcurve-curve $-1 forward { surfintcur nubs 3 periodic 33 
	0 3 0.7539156440605968568 2 1.507831288121193714 2 2.261746932181790459 2 3.015662576242387427 2 
	3.769575654156883893 2 4.523488732071380802 2 5.277401809985876824 2 6.031314887900373733 2 6.785227965814870643 2 
	7.539141043729368441 2 8.293054121643866239 2 9.046967199558363149 2 9.800882843618961004 2 10.55479848767955708 2 
	11.30871413174015316 2 12.06262977580075102 2 12.81654541986134532 2 13.5704610639219414 2 14.32437670798253748 2 
	15.07829235204313179 2 15.83220542995763047 2 16.58611850787212916 2 17.34003158578662607 2 18.09394466370112298 2 
	18.84785774161561989 2 19.6017708195301168 2 20.35568389744461371 2 21.10959697535911062 2 21.86351261941970492 2 
	22.61742826348029922 2 23.37134390754089353 2 24.12525955160148783 3 
	25.31406743419438854 30.97092168368676113 65 
	25.31406743419438854 30.97092168368676113 64.74869478531313405 
	25.33281154570295257 30.955633574643457 64.48885972838031932 
	25.41151157971528463 30.89106132931357962 63.97209171957445761 
	25.47144700486971658 30.84178816942954171 63.71515427482877669 
	25.6292034403203175 30.71081960699613944 63.22244569039214923 
	25.72713758888373903 30.62900749634018638 62.98627895333697069 
	25.95207849960438296 30.43864862766176316 62.54957534454033663 
	26.07908080201201173 30.33007090031826891 62.34904967577683976 
	26.34786265921660231 30.09687341521978965 61.99409667881878505 
	26.49885882976301943 29.96428385920630078 61.82751650725953141 
	26.82491333050171889 29.67274593437223373 61.53385494252751187 
	26.99994625371757806 29.51378799845011258 61.40675483865180695 
	27.36169092618152021 29.17873625397076154 61.20259508286851258 
	27.54868100165649736 29.00236131952127749 61.12537292772410069 
	27.92112233171138413 28.64398217386509771 61.02406426022773189 
	28.10657223085571133 28.46197026406808561 61 
	28.46197026406808916 28.10657223085571133 61 
	28.64398217386510126 27.92112233171137703 61.024064260227739 
	29.00236131952128815 27.5486810016564867 61.12537292772412201 
	29.1787362539707722 27.36169092618150955 61.20259508286851258 
	29.51378799845011969 26.9999462537175674 61.40675483865179984 
	29.67274593437222663 26.82491333050172599 61.53385494252751187 
	29.96428385920629012 26.49885882976302298 61.82751650725953141 
	30.09687341521979675 26.34786265921660231 61.99409667881877795 
	30.33007090031827602 26.07908080201200818 62.34904967577683976 
	30.43864862766176316 25.9520784996043723 62.54957534454034374 
	30.62900749634018638 25.72713758888372482 62.9862789533369849 
	30.71081960699614299 25.6292034403203246 63.22244569039216344 
	30.84178816942954882 25.47144700486972013 63.7151542748287838 
	30.89106132931357962 25.41151157971527752 63.97209171957446472 
	30.955633574643457 25.33281154570294547 64.48885972838033354 
	30.97092168368677534 25.31406743419438143 64.74869478531313405 
	30.97092168368677534 25.31406743419438143 65.25130521468686595 
	30.955633574643457 25.33281154570294547 65.51114027161966646 
	30.89106132931357962 25.41151157971528107 66.02790828042554949 
	30.84178816942954526 25.47144700486972013 66.28484572517122331 
	30.71081960699613944 25.6292034403203246 66.77755430960783656 
	30.62900749634018283 25.72713758888373192 67.01372104666303642 
	30.43864862766176316 25.9520784996043723 67.45042465545967048 
	30.33007090031827602 26.07908080201200818 67.65095032422314603 
	30.09687341521979675 26.34786265921660231 68.00590332118122205 
	29.96428385920630078 26.49885882976301943 68.17248349274046859 
	29.67274593437223373 26.82491333050172244 68.46614505747248813 
	29.51378799845011969 26.9999462537175674 68.59324516134820726 
	29.1787362539707722 27.36169092618150955 68.79740491713148742 
	29.00236131952128815 27.54868100165649025 68.87462707227589931 
	28.64398217386510126 27.92112233171138058 68.97593573977226811 
	28.46197026406808916 28.10657223085571133 69 
	28.10657223085571488 28.46197026406808561 69 
	27.92112233171138413 28.64398217386509771 68.97593573977226811 
	27.54868100165649381 29.0023613195212846 68.87462707227589931 
	27.36169092618151666 29.17873625397076864 68.79740491713148742 
	26.99994625371757451 29.51378799845011258 68.59324516134820726 
	26.82491333050172599 29.67274593437223729 68.46614505747247392 
	26.49885882976302653 29.96428385920630078 68.17248349274045438 
	26.34786265921660231 30.09687341521978965 68.00590332118120784 
	26.07908080201201528 30.33007090031826891 67.65095032422314603 
	25.9520784996043723 30.43864862766176316 67.45042465545965626 
	25.72713758888373548 30.62900749634017572 67.01372104666303642 
	25.6292034403203246 30.71081960699613234 66.77755430960786498 
	25.47144700486971658 30.84178816942954171 66.28484572517123752 
	25.41151157971528463 30.89106132931357251 66.0279082804255637 
	25.33281154570294902 30.95563357464344989 65.51114027161969489 
	25.31406743419438854 30.97092168368676113 65.25130521468686595 
	25.31406743419438854 30.97092168368676113 65 
	0.001000000000000000021 
	cone 31.81980515339463977 31.81980515339463622 65 0.7071067811865475727 0.7071067811865474617 0 0 0 -4 1 I I 0 1 forward I I I I 
	cone 0 0 65 0 0 1 40 0 0 1 I I 0 1 forward I I I I 
	nullbs 
	nullbs 
	I I } I I #
point $-1 -30 3.673940397442059178e-15 61 #
loop $-1 $95 $96 $42 #
coedge $-1 $80 $80 $74 $91 0 $66 $-1 #
face $-1 $97 $98 $5 $-1 $99 forward single #
loop $-1 $100 $101 $67 #
plane-surface $-1 0 0 5 0 0 -1 -1 0 0 forward_v I I I I #
loop $-1 $-1 $102 $54 #
coedge $-1 $85 $85 $103 $104 0 $68 $-1 #
face $-1 $105 $106 $5 $-1 $107 forward single #
loop $-1 $108 $109 $70 #
cone-surface $-1 0 0 75 0 0 1 17.5 0 0 1 I I -0.2425356250363329691 0.9701425001453318764 forward I I I I #
coedge $-1 $89 $89 $90 $110 1 $71 $-1 #
coedge $-1 $90 $90 $89 $110 0 $73 $-1 #
edge $-1 $111 $111 $80 $112 forward #
vertex $-1 $75 $113 #
ellipse-curve $-1 21.21320343559642652 21.21320343559642652 65 -0.7071067811865475727 -0.7071067811865474617 0 0 0 -4 1 I I #
point $-1 25.31406743419439209 30.97092168368677179 65 #
loop $-1 $-1 $114 $42 #
coedge $-1 $96 $96 $115 $116 1 $79 $-1 #
face $-1 $117 $118 $5 $-1 $119 forward single #
loop $-1 $120 $121 $81 #
cone-surface $-1 0 0 25 0 0 1 30 0 0 1 I I 0 1 forward I I I I #
loop $-1 $-1 $122 $67 #
coedge $-1 $101 $101 $121 $123 0 $82 $-1 #
coedge $-1 $102 $102 $114 $124 0 $84 $-1 #
coedge $-1 $103 $103 $85 $104 1 $125 $-1 #
edge $-1 $126 $126 $85 $127 forward #
face $-1 $128 $129 $5 $-1 $130 reversed single #
loop $-1 $-1 $131 $86 #
plane-surface $-1 0 0 105 0 0 1 1 0 0 forward_v I I I I #
loop $-1 $-1 $132 $70 #
coedge $-1 $109 $109 $131 $133 1 $87 $-1 #
edge $-1 $134 $134 $89 $135 forward #
vertex $-1 $91 $136 #
intcurve-curve $-1 forward { surfintcur nubs 3 periodic 33 
	0 3 0.7539156440605965237 2 1.507831288121193047 2 2.261746932181789571 2 3.015662576242386095 2 
	3.769575654156883004 2 4.523488732071379914 2 5.277401809985876824 2 6.031314887900373733 2 6.785227965814870643 2 
	7.539141043729367553 2 8.293054121643864462 2 9.046967199558361372 2 9.800882843618957452 2 10.55479848767955531 2 
	11.30871413174015139 2 12.06262977580074747 2 12.81654541986134177 2 13.57046106392193607 2 14.32437670798253038 2 
	15.07829235204312468 2 15.83220542995762337 2 16.58611850787212205 2 17.34003158578661896 2 18.09394466370111587 2 
	18.84785774161561278 2 19.60177081953010969 2 20.3556838974446066 2 21.10959697535910706 2 21.86351261941970137 2 
	22.61742826348029922 2 23.37134390754089353 2 24.12525955160148783 3 
	39.79949748426479772 4 65 
	39.79949748426479772 4 64.74869478531313405 
	39.80194124704377856 3.975935586068934935 64.48885972838031932 
	39.81193110222431386 3.874626785790006078 63.97209171957445761 
	39.81947046229981879 3.797404654745511365 63.71515427482877669 
	39.83841234896384265 3.593245250843656535 63.22244569039214923 
	39.84981235129475863 3.466145452056723641 62.98627895333697069 
	39.87426554773009002 3.172484161818369675 62.54957534454033663 
	39.88729368969842426 3.005903925269225674 62.34904967577683976 
	39.91245564051892103 2.650950928311161636 61.99409667881877795 
	39.92547108247384102 2.450425538012930726 61.8275165072595243 
	39.94987798735935058 2.013721745880978631 61.53385494252750476 
	39.96124471988223092 1.777554544530205227 61.40675483865179984 
	39.98011947026986945 1.284845073003114901 61.20259508286851968 
	39.98762550847224162 1.027907210439612751 61.12537292772412201 
	39.99756897441886139 0.5111390962343340671 61.024064260227739 
	40 0.2513043593048323032 61 
	40 -0.2513043593048323032 61 
	39.99756897441886139 -0.5111390962343340671 61.024064260227739 
	39.98762550847224162 -1.027907210439612751 61.12537292772412201 
	39.98011947026986945 -1.284845073003114901 61.20259508286851968 
	39.96124471988223092 -1.777554544530205227 61.40675483865179984 
	39.94987798735935058 -2.013721745880978631 61.53385494252750476 
	39.92547108247384102 -2.450425538012930726 61.8275165072595243 
	39.91245564051892103 -2.650950928311161636 61.99409667881877795 
	39.88729368969842426 -3.005903925269225674 62.34904967577684687 
	39.87426554773009002 -3.172484161818379444 62.54957534454034374 
	39.84981235129475863 -3.466145452056728526 62.98627895333697069 
	39.83841234896384265 -3.593245250843652094 63.22244569039214923 
	39.81947046229981879 -3.797404654745507813 63.71515427482876248 
	39.81193110222431386 -3.874626785790006966 63.97209171957445761 
	39.80194124704377856 -3.975935586068937599 64.48885972838033354 
	39.79949748426479772 -4 64.74869478531313405 
	39.79949748426479772 -4 65.25130521468686595 
	39.80194124704377856 -3.975935586068934935 65.51114027161968068 
	39.81193110222431386 -3.874626785790006078 66.02790828042554949 
	39.81947046229981879 -3.797404654745510921 66.28484572517123752 
	39.83841234896384265 -3.593245250843656091 66.77755430960783656 
	39.84981235129475863 -3.466145452056731635 67.01372104666303642 
	39.87426554773009002 -3.172484161818378112 67.45042465545965626 
	39.88729368969842426 -3.005903925269225674 67.65095032422314603 
	39.91245564051892103 -2.65095092831116208 68.00590332118120784 
	39.92547108247384102 -2.450425538012934279 68.17248349274045438 
	39.94987798735935058 -2.013721745880986624 68.46614505747247392 
	39.96124471988223092 -1.777554544530205671 68.59324516134820726 
	39.98011947026986945 -1.284845073003114235 68.79740491713148742 
	39.98762550847224162 -1.027907210439611196 68.87462707227589931 
	39.99756897441886139 -0.5111390962343329569 68.97593573977226811 
	40 -0.2513043593048328028 69 
	40 0.2513043593048318591 69 
	39.99756897441886139 0.5111390962343319577 68.97593573977226811 
	39.98762550847224162 1.027907210439610086 68.87462707227589931 
	39.98011947026986945 1.284845073003113569 68.79740491713148742 
	39.96124471988223092 1.777554544530204339 68.59324516134820726 
	39.94987798735935058 2.01372174588098618 68.46614505747247392 
	39.92547108247384102 2.450425538012933391 68.17248349274045438 
	39.91245564051891392 2.650950928311160748 68.00590332118120784 
	39.88729368969842426 3.005903925269224786 67.65095032422314603 
	39.87426554773008291 3.172484161818377224 67.45042465545965626 
	39.84981235129475152 3.466145452056730747 67.01372104666303642 
	39.83841234896384265 3.593245250843655203 66.77755430960783656 
	39.81947046229981879 3.797404654745510477 66.28484572517123752 
	39.81193110222431386 3.874626785790005634 66.02790828042554949 
	39.80194124704377856 3.975935586068934491 65.51114027161968068 
	39.79949748426479772 4 65.25130521468686595 
	39.79949748426479772 4 65 
	0.001000000000000000021 
	cone 45 0 65 1 0 0 0 0 -4 1 I I 0 1 forward I I I I 
	cone 0 0 65 0 0 1 40 0 0 1 I I 0 1 forward I I I I 
	nullbs 
	nullbs 
	I I } I I #
point $-1 21.21320343559642652 21.21320343559642652 61 #
coedge $-1 $114 $114 $102 $124 1 $95 $-1 #
coedge $-1 $115 $115 $96 $116 0 $137 $-1 #
edge $-1 $138 $138 $115 $139 forward #
face $-1 $-1 $140 $5 $-1 $141 forward single #
loop $-1 $142 $143 $97 #
cone-surface $-1 0 0 0 0 0 1 10 0 0 1 I I 0 1 forward I I I I #
loop $-1 $-1 $144 $81 #
coedge $-1 $121 $121 $101 $123 1 $98 $-1 #
coedge $-1 $122 $122 $145 $146 0 $100 $-1 #
edge $-1 $147 $147 $101 $148 forward #
edge $-1 $149 $149 $102 $150 forward #
loop $-1 $-1 $103 $105 #
vertex $-1 $104 $151 #
ellipse-curve $-1 0 0 85 -0 -0 -1 30 0 0 1 I I #
face $-1 $42 $137 $5 $-1 $152 forward single #
loop $-1 $125 $153 $105 #
cone-surface $-1 0 0 65 0 0 1 22.5 0 0 1 I I 0.3511234415883917048 0.9363291775690445462 forward I I I I #
coedge $-1 $131 $131 $109 $133 0 $106 $-1 #
coedge $-1 $132 $132 $153 $154 1 $108 $-1 #
edge $-1 $155 $155 $131 $156 forward #
vertex $-1 $110 $157 #
ellipse-curve $-1 30 0 65 -1 0 0 0 0 -4 1 I I #
point $-1 39.79949748426479772 4 65 #
loop $-1 $158 $115 $128 #
vertex $-1 $116 $159 #
ellipse-curve $-1 0 0 45 0 0 -1 40 0 0 1 I I #
loop $-1 $-1 $160 $117 #
plane-surface $-1 0 0 -5 0 0 -1 -1 0 0 forward_v I I I I #
loop $-1 $-1 $145 $97 #
coedge $-1 $143 $143 $160 $161 1 $118 $-1 #
coedge $-1 $144 $144 $162 $163 1 $120 $-1 #
coedge $-1 $145 $145 $122 $146 1 $142 $-1 #
edge $-1 $164 $164 $145 $165 forward #
vertex $-1 $123 $166 #
ellipse-curve $-1 0 0 5 0 0 -1 30 0 0 1 I I #
vertex $-1 $124 $167 #
ellipse-curve $-1 0 0 85 0 0 1 40 0 0 1 I I #
point $-1 30 0 85 #
plane-surface $-1 0 0 45 0 0 -1 -1 0 0 forward_v I I I I #
coedge $-1 $153 $153 $132 $154 0 $129 $-1 #
edge $-1 $168 $168 $153 $169 forward #
vertex $-1 $133 $170 #
ellipse-curve $-1 0 0 105 0 0 1 10 0 0 1 I I #
point $-1 30 0 61 #
loop $-1 $-1 $162 $128 #
point $-1 40 0 45 #
coedge $-1 $160 $160 $143 $161 0 $140 $-1 #
edge $-1 $171 $171 $160 $172 forward #
coedge $-1 $162 $162 $144 $163 0 $158 $-1 #
edge $-1 $173 $173 $144 $174 forward #
vertex $-1 $146 $175 #
ellipse-curve $-1 0 0 5 0 0 1 10 0 0 1 I I #
point $-1 30 0 5 #
point $-1 40 0 85 #
vertex $-1 $154 $176 #
ellipse-curve $-1 0 0 61 -0 -0 -1 21 0 0 1 I I #
point $-1 10 0 105 #
vertex $-1 $161 $177 #
ellipse-curve $-1 0 0 -5 0 0 -1 10 0 0 1 I I #
vertex $-1 $163 $178 #
ellipse-curve $-1 0 0 45 0 0 1 30 0 0 1 I I #
point $-1 10 0 5 #
point $-1 -21 2.571758278209441661e-15 61 #
point $-1 10 0 -5 #
point $-1 30 0 45 #
End-of-ACIS-data 