700 0 2 0           
24 FBMach with ACIS - 7.0.3 13 ACIS 7.0.3 NT 24 Mon May 13 17:06:45 2002 
1 9.9999999999999995e-007 1e-010 
body $2 -1 $-1 $3 $-1 $4 #
bdycol-kcp $-1 -1 1 8 $5 $6 $7 $8 $9 $10 $11 $12 #
model_id-kcp-attrib $-1 -1 $13 $-1 $0 1 1021324003 1021324003 -1662189567 1 #
lump $-1 -1 $-1 $-1 $14 $0 #
transform $-1 -1 1 0 0 0 1 0 0 0 1 0 0 0 1 rotate no_reflect no_shear #
body $15 -1 $-1 $16 $-1 $17 #
body $18 -1 $-1 $19 $-1 $20 #
body $21 -1 $-1 $22 $-1 $23 #
body $24 -1 $-1 $25 $-1 $26 #
body $27 -1 $-1 $28 $-1 $29 #
body $30 -1 $-1 $31 $-1 $32 #
body $33 -1 $-1 $34 $-1 $35 #
body $36 -1 $-1 $37 $-1 $38 #
rgb_color-st-attrib $-1 -1 $-1 $2 $0 0 1 0 #
shell $-1 -1 $-1 $-1 $-1 $39 $-1 $3 #
model_id-kcp-attrib $-1 -1 $-1 $-1 $5 1 1021324003 1021324003 -1662189566 1 #
lump $-1 -1 $-1 $-1 $40 $5 #
transform $-1 -1 1 0 0 0 1 0 0 0 1 0 0 55 1 no_rotate no_reflect no_shear #
rgb_color-st-attrib $-1 -1 $41 $-1 $6 0.5 1 1 #
lump $-1 -1 $-1 $-1 $42 $6 #
transform $-1 -1 1 0 0 0 1 0 0 0 1 0 0 55 1 no_rotate no_reflect no_shear #
model_id-kcp-attrib $-1 -1 $43 $-1 $7 1 1021324003 1021324004 -1668677624 1 #
lump $-1 -1 $-1 $-1 $44 $7 #
transform $-1 -1 1 0 0 0 1 0 0 0 1 0 0 55 1 no_rotate no_reflect no_shear #
model_id-kcp-attrib $-1 -1 $45 $-1 $8 1 1021324003 1021324004 -1665400823 1 #
lump $-1 -1 $-1 $-1 $46 $8 #
transform $-1 -1 1 0 0 0 1 0 0 0 1 0 0 55 1 no_rotate no_reflect no_shear #
rgb_color-st-attrib $-1 -1 $47 $-1 $9 0.5 1 1 #
lump $-1 -1 $-1 $-1 $48 $9 #
transform $-1 -1 2.7072211888315839e-016 2.707221188831581e-016 -1 0.70710678118654713 -0.70710678118654791 0 -0.70710678118654791 -0.70710678118654713 -3.8285889215894375e-016 -24.749090894919757 -24.749090894919757 70.000000000000014 1 rotate no_reflect no_shear #
rgb_color-st-attrib $-1 -1 $49 $-1 $10 0.5 1 1 #
lump $-1 -1 $-1 $-1 $50 $10 #
transform $-1 -1 -2.7072211888315824e-016 -2.7072211888315819e-016 -1 -0.70710678118654746 0.70710678118654757 0 0.70710678118654757 0.70710678118654746 -3.8285889215894375e-016 24.749090894919757 24.749090894919753 70.000000000000014 1 rotate no_reflect no_shear #
rgb_color-st-attrib $-1 -1 $51 $-1 $11 0.5 1 1 #
lump $-1 -1 $-1 $-1 $52 $11 #
transform $-1 -1 3.8285889215894375e-016 -4.6885143195523885e-032 -1 -1.2246063538223773e-016 -1 0 -1 1.2246063538223773e-016 -3.8285889215894375e-016 -35.000500000000002 4.2863654726584032e-015 70 1 rotate no_reflect no_shear #
rgb_color-st-attrib $-1 -1 $53 $-1 $12 0.5 1 1 #
lump $-1 -1 $-1 $-1 $54 $12 #
transform $-1 -1 -3.8285889215894375e-016 0 -1 0 1 0 1 0 -3.8285889215894375e-016 35.000500000000002 0 70 1 rotate no_reflect no_shear #
face $55 -1 $-1 $56 $57 $14 $-1 $58 reversed single #
shell $-1 -1 $-1 $-1 $-1 $59 $-1 $16 #
model_id-kcp-attrib $-1 -1 $-1 $18 $6 1 1021324003 1021324004 -1669660665 1 #
shell $-1 -1 $-1 $-1 $-1 $60 $-1 $19 #
rgb_color-st-attrib $-1 -1 $-1 $21 $7 1 0.5 1 #
shell $-1 -1 $-1 $-1 $-1 $61 $-1 $22 #
rgb_color-st-attrib $-1 -1 $-1 $24 $8 1 0.5 1 #
shell $-1 -1 $-1 $-1 $-1 $62 $-1 $25 #
model_id-kcp-attrib $-1 -1 $-1 $27 $9 1 1021324003 1021324004 -1665335293 1 #
shell $-1 -1 $-1 $-1 $-1 $63 $-1 $28 #
model_id-kcp-attrib $-1 -1 $-1 $30 $10 1 1021324003 1021324004 -1664679932 1 #
shell $-1 -1 $-1 $-1 $-1 $64 $-1 $31 #
model_id-kcp-attrib $-1 -1 $-1 $33 $11 1 1021324003 1021324004 -1664679931 1 #
shell $-1 -1 $-1 $-1 $-1 $65 $-1 $34 #
model_id-kcp-attrib $-1 -1 $-1 $36 $12 1 1021324003 1021324004 -1664024570 1 #
shell $-1 -1 $-1 $-1 $-1 $66 $-1 $37 #
model_id-kcp-attrib $-1 -1 $-1 $-1 $39 1 1021324003 1021324003 -1662189567 2 #
face $67 -1 $-1 $68 $69 $14 $-1 $70 reversed single #
loop $-1 -1 $-1 $71 $72 $39 #
cone-surface $-1 -1 $-1 -31.819805153394647 -31.819805153394636 70 -0.70710678118654768 -0.70710678118654746 0 0 0 -4 1 I I 0 1 4 forward I I I I #
face $73 -1 $-1 $74 $75 $40 $-1 $76 forward single #
face $-1 -1 $-1 $77 $78 $42 $-1 $79 reversed single #
face $-1 -1 $-1 $80 $81 $44 $-1 $82 forward single #
face $-1 -1 $-1 $83 $84 $46 $-1 $85 forward single #
face $-1 -1 $-1 $86 $87 $48 $-1 $88 forward single #
face $-1 -1 $-1 $89 $90 $50 $-1 $91 forward single #
face $-1 -1 $-1 $92 $93 $52 $-1 $94 forward single #
face $-1 -1 $-1 $95 $96 $54 $-1 $97 forward single #
model_id-kcp-attrib $-1 -1 $-1 $-1 $56 1 1021324003 1021324003 -1662189567 3 #
face $98 -1 $-1 $99 $100 $14 $-1 $101 reversed single #
loop $-1 -1 $-1 $-1 $102 $56 #
plane-surface $-1 -1 $-1 -21.213203435596434 -21.213203435596427 70 0.70710678118654768 0.70710678118654746 0 0 0 1 forward_v I I I I #
loop $-1 -1 $-1 $-1 $103 $39 #
coedge $-1 -1 $-1 $72 $72 $104 $105 reversed $57 $-1 #
model_id-kcp-attrib $-1 -1 $-1 $-1 $59 1 1021324003 1021324003 -1662189566 2 #
face $106 -1 $-1 $107 $108 $40 $-1 $109 reversed single #
loop $-1 -1 $-1 $-1 $110 $59 #
plane-surface $-1 -1 $-1 0 0 55 0 0 1 1 0 0 forward_v I I I I #
face $-1 -1 $-1 $111 $112 $42 $-1 $79 reversed single #
loop $-1 -1 $-1 $-1 $113 $60 #
cone-surface $-1 -1 $-1 0 -4.8849813083506888e-015 55 0 0 1 39.799497484264798 4.0000000000000053 0 1 I I 0 1 40 forward I I I I #
face $-1 -1 $-1 $114 $115 $44 $-1 $116 forward single #
loop $-1 -1 $-1 $117 $118 $61 #
cone-surface $-1 -1 $-1 0 0 -5 0 0 -1 30 0 0 1 I I 0 -1 30 forward I I I I #
face $-1 -1 $-1 $119 $120 $46 $-1 $121 forward single #
loop $-1 -1 $-1 $122 $123 $62 #
cone-surface $-1 -1 $-1 0 0 -45 0 0 -1 10 0 0 1 I I 0 -1 10 forward I I I I #
face $-1 -1 $-1 $124 $125 $48 $-1 $126 forward single #
loop $-1 -1 $-1 $127 $128 $63 #
cone-surface $-1 -1 $-1 0 0 0 0 0 1 4 0 0 1 I I 0 1 4 forward I I I I #
face $-1 -1 $-1 $129 $130 $50 $-1 $131 forward single #
loop $-1 -1 $-1 $132 $133 $64 #
cone-surface $-1 -1 $-1 0 0 0 0 0 1 4 0 0 1 I I 0 1 4 forward I I I I #
face $-1 -1 $-1 $134 $135 $52 $-1 $136 forward single #
loop $-1 -1 $-1 $137 $138 $65 #
cone-surface $-1 -1 $-1 0 0 0 0 0 1 4 0 0 1 I I 0 1 4 forward I I I I #
face $-1 -1 $-1 $139 $140 $54 $-1 $141 forward single #
loop $-1 -1 $-1 $142 $143 $66 #
cone-surface $-1 -1 $-1 0 0 0 0 0 1 4 0 0 1 I I 0 1 4 forward I I I I #
model_id-kcp-attrib $-1 -1 $-1 $-1 $68 1 1021324003 1021324003 -1662189567 4 #
face $144 -1 $-1 $145 $146 $14 $-1 $147 reversed single #
loop $-1 -1 $-1 $148 $149 $68 #
cone-surface $-1 -1 $-1 -45 5.5109105961630896e-015 70 -1 1.2246467991473532e-016 0 0 0 -4 1 I I 0 1 4 forward I I I I #
coedge $-1 -1 $-1 $102 $102 $103 $150 reversed $69 $-1 #
coedge $-1 -1 $-1 $103 $103 $102 $150 forward $71 $-1 #
coedge $-1 -1 $-1 $104 $104 $72 $105 forward $151 $-1 #
edge $152 -1 $-1 $153 0 $153 24.125259551601495 $104 $154 forward @7 unknown #
model_id-kcp-attrib $-1 -1 $-1 $-1 $74 1 1021324003 1021324003 -1662189566 3 #
face $-1 -1 $-1 $155 $156 $40 $-1 $157 reversed single #
loop $-1 -1 $-1 $-1 $158 $74 #
plane-surface $-1 -1 $-1 0 0 -55 0 0 1 1 0 0 forward_v I I I I #
coedge $-1 -1 $-1 $159 $160 $161 $162 forward $75 $-1 #
face $-1 -1 $-1 $163 $164 $42 $-1 $165 reversed single #
loop $-1 -1 $-1 $-1 $166 $77 #
coedge $-1 -1 $-1 $167 $168 $169 $170 reversed $78 $-1 #
face $-1 -1 $-1 $171 $172 $44 $-1 $173 reversed single #
loop $-1 -1 $-1 $174 $175 $80 #
cone-surface $-1 -1 $-1 0 -4.8849813083506888e-015 -5 0 0 -1 39.799497484264798 4.0000000000000053 0 1 I I 0 1 40 forward I I I I #
loop $-1 -1 $-1 $-1 $176 $61 #
coedge $-1 -1 $-1 $118 $118 $177 $178 forward $81 $-1 #
face $-1 -1 $-1 $179 $180 $46 $-1 $181 reversed single #
loop $-1 -1 $-1 $182 $183 $83 #
cone-surface $-1 -1 $-1 0 -4.8849813083506888e-015 -45 0 0 -1 39.799497484264798 4.0000000000000053 0 1 I I 0 1 40 forward I I I I #
loop $-1 -1 $-1 $-1 $184 $62 #
coedge $-1 -1 $-1 $123 $123 $185 $186 forward $84 $-1 #
face $-1 -1 $-1 $-1 $187 $48 $-1 $188 forward single #
loop $-1 -1 $-1 $-1 $189 $86 #
plane-surface $-1 -1 $-1 0 0 -5.0004999999999988 0 0 -1 -1 0 0 forward_v I I I I #
loop $-1 -1 $-1 $-1 $190 $63 #
coedge $-1 -1 $-1 $128 $128 $189 $191 reversed $87 $-1 #
face $-1 -1 $-1 $-1 $192 $50 $-1 $193 forward single #
loop $-1 -1 $-1 $-1 $194 $89 #
plane-surface $-1 -1 $-1 0 0 -5.0004999999999971 0 0 -1 -1 0 0 forward_v I I I I #
loop $-1 -1 $-1 $-1 $195 $64 #
coedge $-1 -1 $-1 $133 $133 $194 $196 reversed $90 $-1 #
face $-1 -1 $-1 $-1 $197 $52 $-1 $198 forward single #
loop $-1 -1 $-1 $-1 $199 $92 #
plane-surface $-1 -1 $-1 0 0 -5.0004999999999988 0 0 -1 -1 0 0 forward_v I I I I #
loop $-1 -1 $-1 $-1 $200 $65 #
coedge $-1 -1 $-1 $138 $138 $199 $201 reversed $93 $-1 #
face $-1 -1 $-1 $-1 $202 $54 $-1 $203 forward single #
loop $-1 -1 $-1 $-1 $204 $95 #
plane-surface $-1 -1 $-1 0 0 -5.0004999999999988 0 0 -1 -1 0 0 forward_v I I I I #
loop $-1 -1 $-1 $-1 $205 $66 #
coedge $-1 -1 $-1 $143 $143 $204 $206 reversed $96 $-1 #
model_id-kcp-attrib $-1 -1 $-1 $-1 $99 1 1021324003 1021324003 -1662189567 5 #
face $207 -1 $-1 $208 $209 $14 $-1 $210 reversed single #
loop $-1 -1 $-1 $-1 $211 $99 #
plane-surface $-1 -1 $-1 -30 3.6739403974420592e-015 70 1 -1.2246467991473532e-016 0 0 0 1 forward_v I I I I #
loop $-1 -1 $-1 $-1 $212 $68 #
coedge $-1 -1 $-1 $149 $149 $213 $214 reversed $100 $-1 #
edge $215 -1 $-1 $216 0 $216 6.2831853071795862 $102 $217 forward @7 unknown #
loop $-1 -1 $-1 $218 $104 $219 #
attrib_edge_convexity-kcp-attrib $-1 -1 $220 $-1 $105 1 #
vertex $-1 -1 $-1 $105 $221 #
intcurve-curve $-1 -1 $-1 forward { surfintcur full nubs 3 periodic 33 
	0 3 0.7539156440605963 2 1.5078312881211926 2 2.2617469321817891 2 3.0156625762423852 2 
	3.7695756541568834 2 4.5234887320713817 2 5.2774018099858795 2 6.0313148879003773 2 6.7852279658148742 2 
	7.539141043729372 2 8.2930541216438698 2 9.0469671995583667 2 9.8008828436189628 2 10.554798487679559 2 
	11.308714131740157 2 12.062629775800753 2 12.816545419861349 2 13.570461063921943 2 14.324376707982537 2 
	15.078292352043132 2 15.83220542995763 2 16.586118507872129 2 17.340031585786626 2 18.093944663701123 2 
	18.84785774161562 2 19.60177081953012 2 20.355683897444621 2 21.109596975359118 2 21.863512619419712 2 
	22.617428263480306 2 23.371343907540901 2 24.125259551601495 3 
	-25.314067434194392 -30.970921683686761 70 
	-25.314067434194392 -30.970921683686761 69.748694785313134 
	-25.332811545702953 -30.95563357464345 69.488859728380319 
	-25.411511579715285 -30.891061329313573 68.972091719574451 
	-25.471447004869731 -30.841788169429542 68.715154274828777 
	-25.629203440320332 -30.710819606996136 68.222445690392149 
	-25.727137588883739 -30.629007496340179 67.986278953336978 
	-25.952078499604379 -30.43864862766176 67.54957534454033 
	-26.079080802012022 -30.330070900318269 67.34904967577684 
	-26.347862659216609 -30.09687341521979 66.994096678818778 
	-26.49885882976303 -29.964283859206297 66.827516507259531 
	-26.824913330501733 -29.672745934372234 66.533854942527512 
	-26.999946253717575 -29.513787998450113 66.406754838651807 
	-27.361690926181517 -29.178736253970762 66.202595082868527 
	-27.548681001656497 -29.002361319521281 66.125372927724129 
	-27.921122331711388 -28.643982173865094 66.024064260227732 
	-28.106572230855722 -28.461970264068082 66 
	-28.461970264068096 -28.106572230855708 66 
	-28.643982173865101 -27.921122331711381 66.024064260227746 
	-29.002361319521285 -27.54868100165649 66.125372927724115 
	-29.178736253970769 -27.361690926181506 66.202595082868513 
	-29.513787998450116 -26.999946253717564 66.406754838651807 
	-29.672745934372237 -26.824913330501719 66.533854942527512 
	-29.964283859206304 -26.498858829763016 66.827516507259531 
	-30.096873415219804 -26.347862659216595 66.994096678818778 
	-30.330070900318283 -26.079080802012005 67.34904967577684 
	-30.438648627661763 -25.952078499604372 67.54957534454033 
	-30.629007496340179 -25.727137588883732 67.986278953336978 
	-30.710819606996139 -25.629203440320325 68.222445690392149 
	-30.841788169429549 -25.471447004869717 68.715154274828762 
	-30.891061329313587 -25.411511579715274 68.972091719574479 
	-30.955633574643461 -25.332811545702942 69.488859728380348 
	-30.970921683686775 -25.314067434194378 69.748694785313134 
	-30.970921683686775 -25.314067434194378 70.251305214686866 
	-30.955633574643461 -25.332811545702942 70.511140271619652 
	-30.89106132931359 -25.41151157971527 71.027908280425507 
	-30.841788169429549 -25.471447004869702 71.284845725171195 
	-30.710819606996147 -25.629203440320303 71.777554309607822 
	-30.62900749634019 -25.727137588883725 72.013721046663008 
	-30.438648627661767 -25.952078499604365 72.450424655459656 
	-30.330070900318283 -26.079080802012008 72.650950324223146 
	-30.096873415219804 -26.347862659216595 73.005903321181222 
	-29.964283859206297 -26.498858829763016 73.172483492740469 
	-29.672745934372234 -26.824913330501719 73.466145057472488 
	-29.513787998450127 -26.99994625371756 73.593245161348207 
	-29.178736253970779 -27.361690926181506 73.797404917131487 
	-29.002361319521292 -27.54868100165648 73.874627072275899 
	-28.643982173865105 -27.92112233171137 73.975935739772268 
	-28.461970264068096 -28.106572230855708 74 
	-28.106572230855722 -28.461970264068079 74 
	-27.921122331711388 -28.643982173865094 73.975935739772268 
	-27.548681001656497 -29.002361319521281 73.874627072275899 
	-27.361690926181517 -29.178736253970762 73.797404917131487 
	-26.999946253717571 -29.513787998450113 73.593245161348207 
	-26.824913330501733 -29.67274593437223 73.466145057472488 
	-26.49885882976303 -29.964283859206294 73.172483492740469 
	-26.347862659216609 -30.09687341521979 73.005903321181222 
	-26.079080802012022 -30.330070900318269 72.650950324223146 
	-25.952078499604376 -30.43864862766176 72.450424655459656 
	-25.727137588883739 -30.629007496340172 72.013721046663036 
	-25.629203440320335 -30.710819606996132 71.777554309607865 
	-25.471447004869727 -30.841788169429535 71.284845725171238 
	-25.411511579715285 -30.891061329313565 71.027908280425564 
	-25.332811545702949 -30.955633574643443 70.511140271619695 
	-25.314067434194392 -30.970921683686761 70.251305214686866 
	-25.314067434194392 -30.970921683686761 70 
	0.001 
	cone -31.819805153394647 -31.819805153394636 70 -0.70710678118654768 -0.70710678118654746 0 0 0 -4 1 I I 0 1 4 forward I I I I 
	cone 0 0 70 0 0 1 40 0 0 1 I I 0 1 40 forward I I I I 
	nullbs 
	nullbs 
	I I 
	0 
	0 
	0 
	} I I #
face $-1 -1 $-1 $222 $223 $40 $-1 $224 reversed single #
loop $-1 -1 $-1 $-1 $225 $107 #
plane-surface $-1 -1 $-1 0 -40 0 0 1 0 0 0 1 forward_v I I I I #
coedge $-1 -1 $-1 $226 $227 $228 $229 forward $108 $-1 #
coedge $-1 -1 $-1 $230 $110 $231 $232 forward $75 $-1 #
coedge $-1 -1 $-1 $110 $230 $233 $234 forward $75 $-1 #
coedge $-1 -1 $-1 $235 $236 $110 $162 reversed $237 $-1 #
edge $-1 -1 $-1 $238 -40 $239 40 $161 $240 forward @7 unknown #
face $-1 -1 $-1 $241 $242 $42 $-1 $243 forward single #
loop $-1 -1 $-1 $-1 $244 $111 #
plane-surface $-1 -1 $-1 0 -40 0 0 1 0 0 0 1 forward_v I I I I #
coedge $-1 -1 $-1 $245 $246 $247 $248 reversed $112 $-1 #
coedge $-1 -1 $-1 $249 $113 $246 $250 forward $78 $-1 #
coedge $-1 -1 $-1 $113 $249 $251 $252 reversed $78 $-1 #
coedge $-1 -1 $-1 $253 $254 $113 $170 forward $255 $-1 #
edge $-1 -1 $-1 $256 1.4706289056333366 $257 4.6122215592231299 $169 $258 forward @7 unknown #
face $-1 -1 $-1 $-1 $259 $44 $-1 $260 forward single #
loop $-1 -1 $-1 $261 $262 $114 #
plane-surface $-1 -1 $-1 -0.89867519398778106 -0.20779220779220903 -45 0 0 1 1 0 0 forward_v I I I I #
loop $-1 -1 $-1 $-1 $263 $80 #
coedge $-1 -1 $-1 $175 $175 $262 $264 forward $115 $-1 #
coedge $-1 -1 $-1 $176 $176 $265 $266 reversed $117 $-1 #
coedge $-1 -1 $-1 $177 $177 $118 $178 reversed $261 $-1 #
edge $-1 -1 $-1 $267 0 $267 6.2831853071795862 $118 $268 forward @7 unknown #
face $-1 -1 $-1 $-1 $269 $46 $-1 $270 forward single #
loop $-1 -1 $-1 $271 $272 $119 #
plane-surface $-1 -1 $-1 -2.7126907261283479 -0.29090909090909345 -55 0 0 1 1 0 0 forward_v I I I I #
loop $-1 -1 $-1 $-1 $273 $83 #
coedge $-1 -1 $-1 $183 $183 $272 $274 forward $120 $-1 #
coedge $-1 -1 $-1 $184 $184 $275 $276 reversed $122 $-1 #
coedge $-1 -1 $-1 $185 $185 $123 $186 reversed $271 $-1 #
edge $-1 -1 $-1 $277 0 $277 6.2831853071795862 $123 $278 forward @7 unknown #
loop $-1 -1 $-1 $-1 $279 $124 #
plane-surface $-1 -1 $-1 0 0 5.0004999999999988 0 0 1 1 0 0 forward_v I I I I #
coedge $-1 -1 $-1 $189 $189 $128 $191 forward $125 $-1 #
coedge $-1 -1 $-1 $190 $190 $279 $280 reversed $127 $-1 #
edge $-1 -1 $-1 $281 0 $281 6.2831853071795862 $189 $282 forward @7 unknown #
loop $-1 -1 $-1 $-1 $283 $129 #
plane-surface $-1 -1 $-1 0 0 5.0004999999999971 0 0 1 1 0 0 forward_v I I I I #
coedge $-1 -1 $-1 $194 $194 $133 $196 forward $130 $-1 #
coedge $-1 -1 $-1 $195 $195 $283 $284 reversed $132 $-1 #
edge $-1 -1 $-1 $285 0 $285 6.2831853071795862 $194 $286 forward @7 unknown #
loop $-1 -1 $-1 $-1 $287 $134 #
plane-surface $-1 -1 $-1 0 0 5.0004999999999988 0 0 1 1 0 0 forward_v I I I I #
coedge $-1 -1 $-1 $199 $199 $138 $201 forward $135 $-1 #
coedge $-1 -1 $-1 $200 $200 $287 $288 reversed $137 $-1 #
edge $-1 -1 $-1 $289 0 $289 6.2831853071795862 $199 $290 forward @7 unknown #
loop $-1 -1 $-1 $-1 $291 $139 #
plane-surface $-1 -1 $-1 0 0 5.0004999999999988 0 0 1 1 0 0 forward_v I I I I #
coedge $-1 -1 $-1 $204 $204 $143 $206 forward $140 $-1 #
coedge $-1 -1 $-1 $205 $205 $291 $292 reversed $142 $-1 #
edge $-1 -1 $-1 $293 0 $293 6.2831853071795862 $204 $294 forward @7 unknown #
model_id-kcp-attrib $-1 -1 $-1 $-1 $145 1 1021324003 1021324003 -1662189567 6 #
face $295 -1 $-1 $296 $297 $14 $-1 $298 reversed single #
loop $-1 -1 $-1 $299 $300 $145 #
cone-surface $-1 -1 $-1 31.81980515339464 31.819805153394636 70 0.70710678118654757 0.70710678118654746 0 0 0 -4 1 I I 0 1 4 forward I I I I #
coedge $-1 -1 $-1 $211 $211 $212 $301 reversed $146 $-1 #
coedge $-1 -1 $-1 $212 $212 $211 $301 forward $148 $-1 #
coedge $-1 -1 $-1 $213 $213 $149 $214 forward $218 $-1 #
edge $302 -1 $-1 $303 0 $303 24.125259551601488 $213 $304 forward @7 unknown #
attrib_edge_convexity-kcp-attrib $-1 -1 $305 $-1 $150 2 #
vertex $-1 -1 $-1 $150 $306 #
ellipse-curve $-1 -1 $-1 -21.213203435596434 -21.213203435596427 70 0.70710678118654768 0.70710678118654746 0 0 0 -4 1 I I #
loop $-1 -1 $-1 $307 $213 $219 #
face $308 -1 $-1 $309 $151 $14 $-1 $310 forward single #
convexity-sys-attrib $-1 -1 $-1 $152 $105 #
point $-1 -1 $-1 -25.314067434194392 -30.970921683686761 70 #
face $-1 -1 $-1 $311 $312 $40 $-1 $313 reversed single #
loop $-1 -1 $-1 $-1 $314 $155 #
plane-surface $-1 -1 $-1 -40.000999999999998 0 0 1 0 0 0 0 -1 forward_v I I I I #
coedge $-1 -1 $-1 $315 $233 $316 $317 forward $156 $-1 #
coedge $-1 -1 $-1 $318 $158 $315 $319 forward $108 $-1 #
coedge $-1 -1 $-1 $158 $318 $320 $321 forward $108 $-1 #
coedge $-1 -1 $-1 $236 $235 $158 $229 reversed $237 $-1 #
edge $-1 -1 $-1 $322 -40 $323 40 $228 $324 forward @7 unknown #
coedge $-1 -1 $-1 $160 $159 $325 $326 forward $75 $-1 #
coedge $-1 -1 $-1 $327 $328 $159 $232 reversed $312 $-1 #
edge $-1 -1 $-1 $239 -40.000999999999998 $329 40.000999999999998 $231 $330 forward @7 unknown #
coedge $-1 -1 $-1 $225 $331 $160 $234 reversed $156 $-1 #
edge $-1 -1 $-1 $332 -40.000999999999998 $238 40.000999999999998 $233 $333 forward @7 unknown #
coedge $-1 -1 $-1 $228 $161 $331 $334 forward $237 $-1 #
coedge $-1 -1 $-1 $161 $228 $327 $335 reversed $237 $-1 #
loop $-1 -1 $-1 $-1 $235 $311 #
vertex $-1 -1 $-1 $162 $336 #
vertex $-1 -1 $-1 $162 $337 #
straight-curve $-1 -1 $-1 40.000999999999998 0 55 0 1 0 I I #
face $-1 -1 $-1 $338 $339 $42 $-1 $243 forward single #
loop $-1 -1 $-1 $-1 $340 $163 #
plane-surface $-1 -1 $-1 0 0 55 0 0 1 1 0 0 forward_v I I I I #
coedge $-1 -1 $-1 $341 $342 $245 $252 reversed $164 $-1 #
coedge $-1 -1 $-1 $343 $166 $168 $252 forward $112 $-1 #
coedge $-1 -1 $-1 $166 $343 $344 $250 reversed $112 $-1 #
coedge $-1 -1 $-1 $345 $346 $166 $248 forward $347 $-1 #
edge $-1 -1 $-1 $257 -1.6709637479564565 $256 1.4706289056333366 $247 $258 forward @7 unknown #
coedge $-1 -1 $-1 $168 $167 $348 $349 reversed $78 $-1 #
edge $-1 -1 $-1 $256 -110 $350 0 $344 $351 forward @7 unknown #
coedge $-1 -1 $-1 $352 $353 $244 $252 forward $354 $-1 #
edge $-1 -1 $-1 $257 -110 $355 0 $251 $356 forward @7 unknown #
coedge $-1 -1 $-1 $357 $169 $353 $358 forward $255 $-1 #
coedge $-1 -1 $-1 $169 $357 $359 $360 forward $255 $-1 #
loop $-1 -1 $-1 $-1 $169 $361 #
vertex $-1 -1 $-1 $362 $363 #
vertex $-1 -1 $-1 $358 $364 #
ellipse-curve $-1 -1 $-1 0 -4.8849813083506888e-015 -55 0 0 1 39.799497484264798 4.0000000000000053 0 1 I I #
loop $-1 -1 $-1 $365 $366 $171 #
plane-surface $-1 -1 $-1 -0.89867519398778106 -0.20779220779220903 -5 0 0 1 1 0 0 forward_v I I I I #
loop $-1 -1 $-1 $-1 $177 $114 #
coedge $-1 -1 $-1 $262 $262 $175 $264 reversed $172 $-1 #
coedge $-1 -1 $-1 $263 $263 $366 $367 reversed $174 $-1 #
edge $-1 -1 $-1 $368 -3.1415926535897931 $368 3.1415926535897931 $175 $369 forward @7 unknown #
coedge $-1 -1 $-1 $265 $265 $176 $266 forward $365 $-1 #
edge $370 -1 $-1 $371 0 $371 6.2831853071795862 $176 $372 forward @7 unknown #
vertex $-1 -1 $-1 $178 $373 #
ellipse-curve $-1 -1 $-1 0 0 -45 0 0 -1 30 0 0 1 I I #
loop $-1 -1 $-1 $374 $375 $179 #
plane-surface $-1 -1 $-1 -2.7126907261283479 -0.29090909090909345 -45 0 0 1 1 0 0 forward_v I I I I #
loop $-1 -1 $-1 $-1 $185 $119 #
coedge $-1 -1 $-1 $272 $272 $183 $274 reversed $180 $-1 #
coedge $-1 -1 $-1 $273 $273 $375 $376 reversed $182 $-1 #
edge $-1 -1 $-1 $377 -3.1415926535897931 $377 3.1415926535897931 $183 $378 forward @7 unknown #
coedge $-1 -1 $-1 $275 $275 $184 $276 forward $374 $-1 #
edge $379 -1 $-1 $380 0 $380 6.2831853071795862 $184 $381 forward @7 unknown #
vertex $-1 -1 $-1 $186 $382 #
ellipse-curve $-1 -1 $-1 0 0 -55 0 0 -1 10 0 0 1 I I #
coedge $-1 -1 $-1 $279 $279 $190 $280 forward $187 $-1 #
edge $-1 -1 $-1 $383 0 $383 6.2831853071795862 $279 $384 forward @7 unknown #
vertex $-1 -1 $-1 $191 $385 #
ellipse-curve $-1 -1 $-1 0 0 -5.0004999999999988 0 0 -1 4 0 0 1 I I #
coedge $-1 -1 $-1 $283 $283 $195 $284 forward $192 $-1 #
edge $-1 -1 $-1 $386 0 $386 6.2831853071795862 $283 $387 forward @7 unknown #
vertex $-1 -1 $-1 $196 $388 #
ellipse-curve $-1 -1 $-1 0 0 -5.0004999999999971 0 0 -1 4 0 0 1 I I #
coedge $-1 -1 $-1 $287 $287 $200 $288 forward $197 $-1 #
edge $-1 -1 $-1 $389 0 $389 6.2831853071795862 $287 $390 forward @7 unknown #
vertex $-1 -1 $-1 $201 $391 #
ellipse-curve $-1 -1 $-1 0 0 -5.0004999999999988 0 0 -1 4 0 0 1 I I #
coedge $-1 -1 $-1 $291 $291 $205 $292 forward $202 $-1 #
edge $-1 -1 $-1 $392 0 $392 6.2831853071795862 $291 $393 forward @7 unknown #
vertex $-1 -1 $-1 $206 $394 #
ellipse-curve $-1 -1 $-1 0 0 -5.0004999999999988 0 0 -1 4 0 0 1 I I #
model_id-kcp-attrib $-1 -1 $-1 $-1 $208 1 1021324003 1021324003 -1662189567 7 #
face $395 -1 $-1 $396 $397 $14 $-1 $398 reversed single #
loop $-1 -1 $-1 $-1 $399 $208 #
plane-surface $-1 -1 $-1 21.213203435596427 21.213203435596427 70 -0.70710678118654757 -0.70710678118654746 0 0 0 1 forward_v I I I I #
loop $-1 -1 $-1 $-1 $400 $145 #
coedge $-1 -1 $-1 $300 $300 $401 $402 reversed $209 $-1 #
edge $403 -1 $-1 $404 0 $404 6.2831853071795862 $211 $405 forward @7 unknown #
attrib_edge_convexity-kcp-attrib $-1 -1 $406 $-1 $214 1 #
vertex $-1 -1 $-1 $214 $407 #
intcurve-curve $-1 -1 $-1 forward { surfintcur full nubs 3 periodic 33 
	0 3 0.75391564406059652 2 1.507831288121193 2 2.2617469321817896 2 3.0156625762423861 2 
	3.769575654156883 2 4.5234887320713799 2 5.2774018099858768 2 6.0313148879003737 2 6.7852279658148706 2 
	7.5391410437293676 2 8.2930541216438645 2 9.0469671995583614 2 9.8008828436189575 2 10.554798487679555 2 
	11.308714131740151 2 12.062629775800747 2 12.816545419861342 2 13.570461063921936 2 14.32437670798253 2 
	15.078292352043126 2 15.832205429957625 2 16.586118507872122 2 17.340031585786619 2 18.093944663701119 2 
	18.84785774161562 2 19.601770819530117 2 20.355683897444614 2 21.109596975359111 2 21.863512619419705 2 
	22.617428263480299 2 23.371343907540894 2 24.125259551601488 3 
	-39.799497484264798 -3.9999999999999951 70 
	-39.799497484264798 -3.9999999999999951 69.748694785313134 
	-39.801941247043779 -3.9759355860689296 69.488859728380319 
	-39.811931102224314 -3.8746267857900007 68.972091719574451 
	-39.819470462299819 -3.797404654745506 68.715154274828777 
	-39.838412348963843 -3.5932452508436512 68.222445690392149 
	-39.849812351294759 -3.4661454520567192 67.986278953336978 
	-39.87426554773009 -3.1724841618183652 67.54957534454033 
	-39.887293689698424 -3.0059039252692212 67.34904967577684 
	-39.912455640518921 -2.6509509283111568 66.994096678818778 
	-39.925471082473841 -2.4504255380129254 66.827516507259531 
	-39.949877987359351 -2.0137217458809737 66.533854942527512 
	-39.961244719882231 -1.7775545445302003 66.406754838651807 
	-39.980119470269869 -1.28484507300311 66.202595082868527 
	-39.987625508472242 -1.0279072104396079 66.125372927724129 
	-39.997568974418861 -0.51113909623432918 66.024064260227732 
	-40 -0.25130435930482742 66 
	-40 0.25130435930483719 66 
	-39.997568974418861 0.51113909623433895 66.024064260227732 
	-39.987625508472242 1.0279072104396176 66.125372927724129 
	-39.980119470269869 1.2848450730031198 66.202595082868527 
	-39.961244719882231 1.7775545445302101 66.406754838651807 
	-39.949877987359351 2.0137217458809835 66.533854942527512 
	-39.925471082473841 2.4504255380129352 66.827516507259531 
	-39.912455640518921 2.6509509283111665 66.994096678818778 
	-39.887293689698424 3.0059039252692306 67.349049675776854 
	-39.87426554773009 3.1724841618183839 67.549575344540344 
	-39.849812351294759 3.466145452056733 67.986278953336978 
	-39.838412348963843 3.593245250843657 68.222445690392149 
	-39.819470462299819 3.7974046547455127 68.715154274828762 
	-39.811931102224314 3.874626785790011 68.972091719574451 
	-39.801941247043779 3.9759355860689416 69.488859728380334 
	-39.799497484264798 4.0000000000000044 69.748694785313134 
	-39.799497484264791 4.0000000000000036 70.251305214686866 
	-39.801941247043771 3.975935586068942 70.511140271619666 
	-39.811931102224307 3.8746267857900132 71.027908280425535 
	-39.819470462299819 3.7974046547455211 71.284845725171209 
	-39.838412348963843 3.5932452508436681 71.777554309607837 
	-39.849812351294759 3.4661454520567379 72.013721046663036 
	-39.87426554773009 3.1724841618183834 72.450424655459656 
	-39.887293689698424 3.005903925269231 72.650950324223146 
	-39.912455640518921 2.6509509283111665 73.005903321181208 
	-39.925471082473841 2.4504255380129392 73.172483492740454 
	-39.949877987359351 2.0137217458809937 73.466145057472474 
	-39.961244719882217 1.777554544530217 73.593245161348207 
	-39.980119470269848 1.2848450730031264 73.797404917131487 
	-39.987625508472235 1.0279072104396221 73.874627072275899 
	-39.997568974418854 0.51113909623434095 73.975935739772268 
	-40 0.25130435930483869 74 
	-40 -0.25130435930482814 74 
	-39.997568974418861 -0.5111390962343294 73.975935739772268 
	-39.987625508472242 -1.0279072104396088 73.874627072275899 
	-39.980119470269869 -1.2848450730031122 73.797404917131487 
	-39.961244719882231 -1.777554544530203 73.593245161348207 
	-39.949877987359351 -2.0137217458809826 73.466145057472474 
	-39.925471082473841 -2.4504255380129298 73.172483492740454 
	-39.912455640518921 -2.6509509283111568 73.005903321181208 
	-39.887293689698424 -3.0059039252692203 72.650950324223146 
	-39.87426554773009 -3.1724841618183728 72.450424655459656 
	-39.849812351294759 -3.4661454520567263 72.013721046663036 
	-39.838412348963843 -3.5932452508436517 71.777554309607837 
	-39.819470462299819 -3.7974046547455065 71.284845725171238 
	-39.811931102224314 -3.8746267857900007 71.027908280425549 
	-39.801941247043779 -3.9759355860689296 70.511140271619681 
	-39.799497484264798 -3.9999999999999951 70.251305214686866 
	-39.799497484264798 -3.9999999999999951 70 
	0.001 
	cone -45 5.5109105961630896e-015 70 -1 1.2246467991473532e-016 0 0 0 -4 1 I I 0 1 4 forward I I I I 
	cone 0 0 70 0 0 1 40 0 0 1 I I 0 1 40 forward I I I I 
	nullbs 
	nullbs 
	I I 
	0 
	0 
	0 
	} I I #
convexity-sys-attrib $-1 -1 $-1 $215 $150 #
point $-1 -1 $-1 -21.213203435596434 -21.213203435596427 66 #
loop $-1 -1 $-1 $408 $401 $219 #
model_id-kcp-attrib $-1 -1 $-1 $-1 $219 1 1021324003 1021324003 -1662189567 14 #
face $409 -1 $-1 $410 $411 $14 $-1 $412 forward single #
cone-surface $-1 -1 $-1 0 0 70 0 0 1 40 0 0 1 I I 0 1 40 forward I I I I #
face $-1 -1 $-1 $-1 $237 $40 $-1 $413 reversed single #
loop $-1 -1 $-1 $-1 $327 $222 #
plane-surface $-1 -1 $-1 0 40 0 0 -1 0 0 0 -1 forward_v I I I I #
coedge $-1 -1 $-1 $414 $325 $328 $415 forward $223 $-1 #
coedge $-1 -1 $-1 $331 $225 $226 $319 reversed $156 $-1 #
coedge $-1 -1 $-1 $325 $414 $225 $317 reversed $223 $-1 #
edge $-1 -1 $-1 $332 -55 $416 55 $316 $417 forward @7 unknown #
coedge $-1 -1 $-1 $227 $226 $414 $418 forward $108 $-1 #
edge $-1 -1 $-1 $323 -40.000999999999998 $416 40.000999999999998 $315 $419 forward @7 unknown #
coedge $-1 -1 $-1 $328 $327 $227 $321 reversed $312 $-1 #
edge $-1 -1 $-1 $420 -40.000999999999998 $322 40.000999999999998 $320 $421 forward @7 unknown #
vertex $-1 -1 $-1 $229 $422 #
vertex $-1 -1 $-1 $334 $423 #
straight-curve $-1 -1 $-1 40.000999999999998 0 -55 0 -1 0 I I #
coedge $-1 -1 $-1 $314 $316 $230 $326 reversed $223 $-1 #
edge $-1 -1 $-1 $329 -40 $332 40 $325 $424 forward @7 unknown #
coedge $-1 -1 $-1 $320 $231 $236 $335 forward $312 $-1 #
coedge $-1 -1 $-1 $231 $320 $314 $415 reversed $312 $-1 #
vertex $-1 -1 $-1 $232 $425 #
straight-curve $-1 -1 $-1 0 40 55 -1 0 0 I I #
coedge $-1 -1 $-1 $233 $315 $235 $334 reversed $156 $-1 #
vertex $-1 -1 $-1 $326 $426 #
straight-curve $-1 -1 $-1 0 -40 55 1 0 0 I I #
edge $-1 -1 $-1 $238 -55 $323 55 $235 $427 forward @7 unknown #
edge $-1 -1 $-1 $239 -55 $322 55 $236 $428 forward @7 unknown #
point $-1 -1 $-1 40.000999999999998 -40 55 #
point $-1 -1 $-1 40.000999999999998 40 55 #
face $-1 -1 $-1 $429 $430 $42 $-1 $431 reversed single #
loop $-1 -1 $-1 $-1 $348 $241 #
coedge $-1 -1 $-1 $432 $433 $343 $434 forward $242 $-1 #
coedge $-1 -1 $-1 $435 $244 $346 $436 reversed $164 $-1 #
coedge $-1 -1 $-1 $244 $435 $432 $437 reversed $164 $-1 #
coedge $-1 -1 $-1 $246 $245 $340 $434 reversed $112 $-1 #
coedge $-1 -1 $-1 $438 $439 $440 $250 forward $441 $-1 #
coedge $-1 -1 $-1 $442 $247 $439 $362 forward $347 $-1 #
coedge $-1 -1 $-1 $247 $442 $341 $436 forward $347 $-1 #
loop $-1 -1 $-1 $-1 $247 $429 #
coedge $-1 -1 $-1 $443 $444 $249 $349 forward $339 $-1 #
edge $-1 -1 $-1 $355 1.6709637479564565 $350 4.8125564015462494 $348 $445 forward @7 unknown #
vertex $-1 -1 $-1 $446 $447 #
straight-curve $-1 -1 $-1 0 40 55 0 0 1 I I #
coedge $-1 -1 $-1 $448 $251 $444 $449 reversed $354 $-1 #
coedge $-1 -1 $-1 $251 $448 $253 $358 reversed $354 $-1 #
loop $-1 -1 $-1 $-1 $251 $450 #
vertex $-1 -1 $-1 $437 $451 #
straight-curve $-1 -1 $-1 0 -40 55 0 0 1 I I #
coedge $-1 -1 $-1 $254 $253 $452 $453 forward $255 $-1 #
edge $-1 -1 $-1 $257 0 $454 40.000999999999998 $353 $455 forward @7 unknown #
coedge $-1 -1 $-1 $456 $440 $254 $360 reversed $430 $-1 #
edge $-1 -1 $-1 $457 -40.000999999999998 $256 0 $359 $458 forward @7 unknown #
face $-1 -1 $-1 $450 $255 $42 $-1 $459 reversed single #
edge $-1 -1 $-1 $256 0 $460 40.000999999999998 $439 $458 forward @7 unknown #
point $-1 -1 $-1 0 40 -55 #
point $-1 -1 $-1 0 -40 -55 #
loop $-1 -1 $-1 $-1 $265 $171 #
coedge $-1 -1 $-1 $366 $366 $263 $367 forward $259 $-1 #
edge $461 -1 $-1 $462 -3.1415926535897931 $462 3.1415926535897931 $263 $463 forward @7 unknown #
vertex $-1 -1 $-1 $264 $464 #
ellipse-curve $-1 -1 $-1 0 -4.8849813083506888e-015 -45 0 0 1 39.799497484264798 4.0000000000000053 0 1 I I #
convexity-sys-attrib $-1 -1 $-1 $-1 $266 #
vertex $-1 -1 $-1 $266 $465 #
ellipse-curve $-1 -1 $-1 0 0 -5 0 0 -1 30 0 0 1 I I #
point $-1 -1 $-1 30.000000000000007 0 -45 #
loop $-1 -1 $-1 $-1 $275 $179 #
coedge $-1 -1 $-1 $375 $375 $273 $376 forward $269 $-1 #
edge $466 -1 $-1 $467 -3.1415926535897931 $467 3.1415926535897931 $273 $468 forward @7 unknown #
vertex $-1 -1 $-1 $274 $469 #
ellipse-curve $-1 -1 $-1 0 -4.8849813083506888e-015 -55 0 0 1 39.799497484264798 4.0000000000000053 0 1 I I #
convexity-sys-attrib $-1 -1 $-1 $-1 $276 #
vertex $-1 -1 $-1 $276 $470 #
ellipse-curve $-1 -1 $-1 0 0 -45 0 0 -1 10 0 0 1 I I #
point $-1 -1 $-1 10 0 -55 #
vertex $-1 -1 $-1 $280 $471 #
ellipse-curve $-1 -1 $-1 0 0 5.0004999999999988 0 0 1 4 0 0 1 I I #
point $-1 -1 $-1 4 0 -5.0004999999999988 #
vertex $-1 -1 $-1 $284 $472 #
ellipse-curve $-1 -1 $-1 0 0 5.0004999999999971 0 0 1 4 0 0 1 I I #
point $-1 -1 $-1 4 0 -5.0004999999999971 #
vertex $-1 -1 $-1 $288 $473 #
ellipse-curve $-1 -1 $-1 0 0 5.0004999999999988 0 0 1 4 0 0 1 I I #
point $-1 -1 $-1 4 0 -5.0004999999999988 #
vertex $-1 -1 $-1 $292 $474 #
ellipse-curve $-1 -1 $-1 0 0 5.0004999999999988 0 0 1 4 0 0 1 I I #
point $-1 -1 $-1 4 0 -5.0004999999999988 #
model_id-kcp-attrib $-1 -1 $-1 $-1 $296 1 1021324003 1021324003 -1662189567 8 #
face $475 -1 $-1 $476 $477 $14 $-1 $478 reversed single #
loop $-1 -1 $-1 $479 $480 $296 #
cone-surface $-1 -1 $-1 45 0 70 1 0 0 0 0 -4 1 I I 0 1 4 forward I I I I #
coedge $-1 -1 $-1 $399 $399 $400 $481 reversed $297 $-1 #
coedge $-1 -1 $-1 $400 $400 $399 $481 forward $299 $-1 #
coedge $-1 -1 $-1 $401 $401 $300 $402 forward $307 $-1 #
edge $482 -1 $-1 $483 0 $483 24.125259551601488 $401 $484 forward @7 unknown #
attrib_edge_convexity-kcp-attrib $-1 -1 $485 $-1 $301 2 #
vertex $-1 -1 $-1 $301 $486 #
ellipse-curve $-1 -1 $-1 -30 3.6739403974420592e-015 70 1 -1.2246467991473532e-016 0 0 0 -4 1 I I #
convexity-sys-attrib $-1 -1 $-1 $302 $214 #
point $-1 -1 $-1 -39.799497484264798 -3.9999999999999951 70 #
loop $-1 -1 $-1 $487 $488 $219 #
model_id-kcp-attrib $-1 -1 $-1 $-1 $309 1 1021324003 1021324003 -1662189567 15 #
face $489 -1 $-1 $490 $491 $14 $-1 $492 forward single #
loop $-1 -1 $-1 $493 $494 $309 #
plane-surface $-1 -1 $-1 0 0 90 0 0 1 1 0 0 forward_v I I I I #
plane-surface $-1 -1 $-1 40.000999999999998 0 0 -1 0 0 0 0 1 forward_v I I I I #
coedge $-1 -1 $-1 $316 $314 $318 $418 reversed $223 $-1 #
edge $-1 -1 $-1 $329 -55 $420 55 $328 $495 forward @7 unknown #
vertex $-1 -1 $-1 $418 $496 #
straight-curve $-1 -1 $-1 -40.000999999999998 -40 0 0 0 -1 I I #
edge $-1 -1 $-1 $416 -40 $420 40 $414 $497 forward @7 unknown #
straight-curve $-1 -1 $-1 0 -40 -55 -1 0 0 I I #
vertex $-1 -1 $-1 $321 $498 #
straight-curve $-1 -1 $-1 0 40 -55 1 0 0 I I #
point $-1 -1 $-1 40.000999999999998 40 -55 #
point $-1 -1 $-1 40.000999999999998 -40 -55 #
straight-curve $-1 -1 $-1 -40.000999999999998 0 55 0 -1 0 I I #
point $-1 -1 $-1 -40.000999999999998 40 55 #
point $-1 -1 $-1 -40.000999999999998 -40 55 #
straight-curve $-1 -1 $-1 40.000999999999998 -40 0 0 0 -1 I I #
straight-curve $-1 -1 $-1 40.000999999999998 40 0 0 0 -1 I I #
face $-1 -1 $-1 $361 $347 $42 $-1 $459 reversed single #
loop $-1 -1 $-1 $-1 $440 $338 #
plane-surface $-1 -1 $-1 0 40 0 0 -1 0 0 0 -1 forward_v I I I I #
coedge $-1 -1 $-1 $499 $340 $342 $437 forward $242 $-1 #
coedge $-1 -1 $-1 $340 $499 $438 $500 forward $242 $-1 #
edge $-1 -1 $-1 $350 -1.4706289056333366 $355 1.6709637479564565 $340 $445 forward @7 unknown #
coedge $-1 -1 $-1 $342 $341 $501 $502 reversed $164 $-1 #
edge $-1 -1 $-1 $503 -40.000999999999998 $257 0 $341 $455 forward @7 unknown #
edge $-1 -1 $-1 $355 0 $504 40.000999999999998 $342 $505 forward @7 unknown #
coedge $-1 -1 $-1 $506 $344 $433 $500 reversed $441 $-1 #
coedge $-1 -1 $-1 $344 $506 $345 $362 reversed $441 $-1 #
coedge $-1 -1 $-1 $359 $507 $167 $250 reversed $430 $-1 #
loop $-1 -1 $-1 $-1 $344 $508 #
coedge $-1 -1 $-1 $346 $345 $509 $510 forward $347 $-1 #
coedge $-1 -1 $-1 $511 $348 $507 $446 forward $339 $-1 #
coedge $-1 -1 $-1 $348 $511 $352 $449 forward $339 $-1 #
ellipse-curve $-1 -1 $-1 0 -4.8849813083506888e-015 55 0 0 -1 39.799497484264798 4.0000000000000053 0 1 I I #
edge $-1 -1 $-1 $350 0 $512 40.000999999999998 $507 $513 forward @7 unknown #
point $-1 -1 $-1 0 40 55 #
coedge $-1 -1 $-1 $353 $352 $514 $515 forward $354 $-1 #
edge $-1 -1 $-1 $516 -40.000999999999998 $355 0 $352 $505 forward @7 unknown #
face $-1 -1 $-1 $517 $354 $42 $-1 $165 reversed single #
point $-1 -1 $-1 0 -40 55 #
coedge $-1 -1 $-1 $514 $518 $357 $453 reversed $519 $-1 #
edge $-1 -1 $-1 $454 -40 $457 40 $452 $520 forward @7 unknown #
vertex $-1 -1 $-1 $453 $521 #
straight-curve $-1 -1 $-1 0 -40 -55 -1 0 0 I I #
coedge $-1 -1 $-1 $507 $359 $518 $522 reversed $430 $-1 #
vertex $-1 -1 $-1 $360 $523 #
straight-curve $-1 -1 $-1 0 40 -55 1 0 0 I I #
plane-surface $-1 -1 $-1 0 0 -55 0 0 1 1 0 0 forward_v I I I I #
vertex $-1 -1 $-1 $510 $524 #
convexity-sys-attrib $-1 -1 $-1 $-1 $367 #
vertex $-1 -1 $-1 $367 $525 #
ellipse-curve $-1 -1 $-1 0 -4.8849813083506888e-015 -5 0 0 1 39.799497484264798 4.0000000000000053 0 1 I I #
point $-1 -1 $-1 -39.799497484264798 -4.0000000000000151 -45 #
point $-1 -1 $-1 30 0 -5 #
convexity-sys-attrib $-1 -1 $-1 $-1 $376 #
vertex $-1 -1 $-1 $376 $526 #
ellipse-curve $-1 -1 $-1 0 -4.8849813083506888e-015 -45 0 0 1 39.799497484264798 4.0000000000000053 0 1 I I #
point $-1 -1 $-1 -39.799497484264798 -4.0000000000000151 -55 #
point $-1 -1 $-1 10 0 -45 #
point $-1 -1 $-1 4 0 5.0004999999999988 #
point $-1 -1 $-1 4 0 5.0004999999999971 #
point $-1 -1 $-1 4 0 5.0004999999999988 #
point $-1 -1 $-1 4 0 5.0004999999999988 #
model_id-kcp-attrib $-1 -1 $-1 $-1 $396 1 1021324003 1021324003 -1662189567 9 #
face $527 -1 $-1 $528 $529 $14 $-1 $530 forward single #
loop $-1 -1 $-1 $-1 $531 $396 #
plane-surface $-1 -1 $-1 30 0 70 -1 0 0 0 0 1 forward_v I I I I #
loop $-1 -1 $-1 $-1 $532 $296 #
coedge $-1 -1 $-1 $480 $480 $488 $533 reversed $397 $-1 #
edge $534 -1 $-1 $535 0 $535 6.2831853071795862 $399 $536 forward @7 unknown #
attrib_edge_convexity-kcp-attrib $-1 -1 $537 $-1 $402 1 #
vertex $-1 -1 $-1 $402 $538 #
intcurve-curve $-1 -1 $-1 forward { surfintcur full nubs 3 periodic 33 
	0 3 0.75391564406059686 2 1.5078312881211937 2 2.2617469321817905 2 3.0156625762423874 2 
	3.7695756541568839 2 4.5234887320713808 2 5.2774018099858768 2 6.0313148879003737 2 6.7852279658148706 2 
	7.5391410437293684 2 8.2930541216438662 2 9.0469671995583631 2 9.800882843618961 2 10.554798487679557 2 
	11.308714131740153 2 12.062629775800751 2 12.816545419861345 2 13.570461063921941 2 14.324376707982537 2 
	15.078292352043132 2 15.83220542995763 2 16.586118507872129 2 17.340031585786626 2 18.093944663701123 2 
	18.84785774161562 2 19.601770819530117 2 20.355683897444614 2 21.109596975359111 2 21.863512619419705 2 
	22.617428263480299 2 23.371343907540894 2 24.125259551601488 3 
	25.314067434194389 30.970921683686761 70 
	25.314067434194389 30.970921683686761 69.748694785313134 
	25.332811545702953 30.955633574643457 69.488859728380319 
	25.411511579715285 30.89106132931358 68.972091719574451 
	25.471447004869717 30.841788169429542 68.715154274828777 
	25.629203440320317 30.710819606996139 68.222445690392149 
	25.727137588883739 30.629007496340186 67.986278953336978 
	25.952078499604383 30.438648627661763 67.54957534454033 
	26.079080802012012 30.330070900318269 67.34904967577684 
	26.347862659216602 30.09687341521979 66.994096678818778 
	26.498858829763019 29.964283859206301 66.827516507259531 
	26.824913330501719 29.672745934372234 66.533854942527512 
	26.999946253717578 29.513787998450113 66.406754838651807 
	27.36169092618152 29.178736253970762 66.202595082868513 
	27.548681001656497 29.002361319521277 66.125372927724101 
	27.921122331711384 28.643982173865098 66.024064260227732 
	28.106572230855711 28.461970264068086 66 
	28.461970264068089 28.106572230855711 66 
	28.643982173865101 27.921122331711377 66.024064260227732 
	29.002361319521288 27.548681001656487 66.125372927724129 
	29.178736253970772 27.36169092618151 66.202595082868513 
	29.51378799845012 26.999946253717567 66.406754838651807 
	29.672745934372227 26.824913330501726 66.533854942527512 
	29.96428385920629 26.498858829763023 66.827516507259531 
	30.096873415219797 26.347862659216602 66.994096678818778 
	30.330070900318276 26.079080802012008 67.34904967577684 
	30.438648627661763 25.952078499604372 67.549575344540344 
	30.629007496340186 25.727137588883725 67.986278953336978 
	30.710819606996143 25.629203440320325 68.222445690392163 
	30.841788169429549 25.47144700486972 68.715154274828791 
	30.89106132931358 25.411511579715278 68.972091719574465 
	30.955633574643457 25.332811545702945 69.488859728380334 
	30.970921683686775 25.314067434194381 69.748694785313134 
	30.970921683686775 25.314067434194381 70.251305214686866 
	30.955633574643457 25.332811545702945 70.511140271619666 
	30.89106132931358 25.411511579715281 71.027908280425549 
	30.841788169429545 25.47144700486972 71.284845725171223 
	30.710819606996139 25.629203440320325 71.777554309607837 
	30.629007496340183 25.727137588883732 72.013721046663036 
	30.438648627661763 25.952078499604372 72.45042465545967 
	30.330070900318276 26.079080802012008 72.650950324223146 
	30.096873415219797 26.347862659216602 73.005903321181222 
	29.964283859206301 26.498858829763019 73.172483492740469 
	29.672745934372234 26.824913330501722 73.466145057472488 
	29.51378799845012 26.999946253717567 73.593245161348207 
	29.178736253970772 27.36169092618151 73.797404917131487 
	29.002361319521288 27.54868100165649 73.874627072275899 
	28.643982173865101 27.921122331711381 73.975935739772268 
	28.461970264068089 28.106572230855711 74 
	28.106572230855715 28.461970264068086 74 
	27.921122331711384 28.643982173865098 73.975935739772268 
	27.548681001656494 29.002361319521285 73.874627072275899 
	27.361690926181517 29.178736253970769 73.797404917131487 
	26.999946253717575 29.513787998450113 73.593245161348207 
	26.824913330501726 29.672745934372237 73.466145057472474 
	26.498858829763027 29.964283859206301 73.172483492740454 
	26.347862659216602 30.09687341521979 73.005903321181208 
	26.079080802012015 30.330070900318269 72.650950324223146 
	25.952078499604372 30.438648627661763 72.450424655459656 
	25.727137588883735 30.629007496340176 72.013721046663036 
	25.629203440320325 30.710819606996132 71.777554309607865 
	25.471447004869717 30.841788169429542 71.284845725171238 
	25.411511579715285 30.891061329313573 71.027908280425564 
	25.332811545702949 30.95563357464345 70.511140271619695 
	25.314067434194389 30.970921683686761 70.251305214686866 
	25.314067434194389 30.970921683686761 70 
	0.001 
	cone 31.81980515339464 31.819805153394636 70 0.70710678118654757 0.70710678118654746 0 0 0 -4 1 I I 0 1 4 forward I I I I 
	cone 0 0 70 0 0 1 40 0 0 1 I I 0 1 40 forward I I I I 
	nullbs 
	nullbs 
	I I 
	0 
	0 
	0 
	} I I #
convexity-sys-attrib $-1 -1 $-1 $403 $301 #
point $-1 -1 $-1 -30 3.6739403974420592e-015 66 #
loop $-1 -1 $-1 $539 $540 $219 #
coedge $-1 -1 $-1 $488 $488 $480 $533 forward $408 $-1 #
model_id-kcp-attrib $-1 -1 $-1 $-1 $410 1 1021324003 1021324003 -1662189567 16 #
face $541 -1 $-1 $542 $543 $14 $-1 $544 forward single #
loop $-1 -1 $-1 $545 $546 $410 #
plane-surface $-1 -1 $-1 0 0 10 0 0 -1 -1 0 0 forward_v I I I I #
loop $-1 -1 $-1 $-1 $547 $309 #
coedge $-1 -1 $-1 $494 $494 $548 $549 forward $411 $-1 #
straight-curve $-1 -1 $-1 -40.000999999999998 40 0 0 0 -1 I I #
point $-1 -1 $-1 -40.000999999999998 -40 -55 #
straight-curve $-1 -1 $-1 -40.000999999999998 0 -55 0 1 0 I I #
point $-1 -1 $-1 -40.000999999999998 40 -55 #
coedge $-1 -1 $-1 $433 $432 $550 $551 forward $242 $-1 #
edge $-1 -1 $-1 $552 -40.000999999999998 $350 0 $438 $513 forward @7 unknown #
coedge $-1 -1 $-1 $509 $550 $435 $502 forward $553 $-1 #
edge $-1 -1 $-1 $504 -55 $503 55 $501 $554 forward @7 unknown #
vertex $-1 -1 $-1 $502 $555 #
vertex $-1 -1 $-1 $551 $556 #
straight-curve $-1 -1 $-1 0 -40 55 1 0 0 I I #
coedge $-1 -1 $-1 $439 $438 $557 $558 forward $441 $-1 #
coedge $-1 -1 $-1 $440 $456 $443 $446 reversed $430 $-1 #
face $-1 -1 $-1 $559 $441 $42 $-1 $431 reversed single #
coedge $-1 -1 $-1 $557 $501 $442 $510 reversed $553 $-1 #
edge $-1 -1 $-1 $460 -40 $503 40 $509 $560 forward @7 unknown #
coedge $-1 -1 $-1 $444 $443 $561 $562 forward $339 $-1 #
vertex $-1 -1 $-1 $446 $563 #
straight-curve $-1 -1 $-1 0 40 55 -1 0 0 I I #
coedge $-1 -1 $-1 $561 $452 $448 $515 reversed $519 $-1 #
edge $-1 -1 $-1 $516 -55 $454 55 $514 $564 forward @7 unknown #
vertex $-1 -1 $-1 $562 $565 #
face $-1 -1 $-1 $508 $519 $42 $-1 $566 reversed single #
coedge $-1 -1 $-1 $452 $561 $456 $522 forward $519 $-1 #
loop $-1 -1 $-1 $-1 $518 $517 #
straight-curve $-1 -1 $-1 -40.000999999999998 0 -55 0 1 0 I I #
point $-1 -1 $-1 -40.000999999999998 -40 -55 #
edge $-1 -1 $-1 $512 -55 $457 55 $456 $567 forward @7 unknown #
point $-1 -1 $-1 -40.000999999999998 40 -55 #
point $-1 -1 $-1 40.000999999999998 40 -55 #
point $-1 -1 $-1 -39.799497484264798 -4.0000000000000151 -5 #
point $-1 -1 $-1 -39.799497484264798 -4.0000000000000151 -45 #
model_id-kcp-attrib $-1 -1 $-1 $-1 $476 1 1021324003 1021324003 -1662189567 10 #
face $568 -1 $-1 $569 $570 $14 $-1 $571 forward single #
loop $-1 -1 $-1 $572 $573 $476 #
cone-surface $-1 -1 $-1 0 0 80 0 0 1 17.5 0 0 1 I I -0.24253562503633297 0.97014250014533188 17.5 forward I I I I #
coedge $-1 -1 $-1 $531 $531 $532 $574 reversed $477 $-1 #
coedge $-1 -1 $-1 $532 $532 $531 $574 forward $479 $-1 #
edge $575 -1 $-1 $576 0 $576 24.125259551601488 $488 $577 forward @7 unknown #
attrib_edge_convexity-kcp-attrib $-1 -1 $578 $-1 $481 2 #
vertex $-1 -1 $-1 $481 $579 #
ellipse-curve $-1 -1 $-1 21.213203435596427 21.213203435596427 70 -0.70710678118654757 -0.70710678118654746 0 0 0 -4 1 I I #
convexity-sys-attrib $-1 -1 $-1 $482 $402 #
point $-1 -1 $-1 25.314067434194392 30.970921683686772 70 #
loop $-1 -1 $-1 $-1 $580 $219 #
coedge $-1 -1 $-1 $540 $540 $581 $582 reversed $487 $-1 #
model_id-kcp-attrib $-1 -1 $-1 $-1 $490 1 1021324003 1021324003 -1662189567 17 #
face $583 -1 $-1 $584 $585 $14 $-1 $586 forward single #
loop $-1 -1 $-1 $587 $588 $490 #
cone-surface $-1 -1 $-1 0 0 30 0 0 1 30 0 0 1 I I 0 1 30 forward I I I I #
loop $-1 -1 $-1 $-1 $589 $410 #
coedge $-1 -1 $-1 $546 $546 $588 $590 forward $491 $-1 #
coedge $-1 -1 $-1 $547 $547 $580 $591 forward $493 $-1 #
coedge $-1 -1 $-1 $548 $548 $494 $549 reversed $592 $-1 #
edge $-1 -1 $-1 $593 0 $593 6.2831853071795862 $494 $594 forward @7 unknown #
coedge $-1 -1 $-1 $501 $557 $499 $551 reversed $553 $-1 #
edge $-1 -1 $-1 $504 -40 $552 40 $550 $595 forward @7 unknown #
vertex $-1 -1 $-1 $551 $596 #
loop $-1 -1 $-1 $-1 $501 $559 #
straight-curve $-1 -1 $-1 40.000999999999998 -40 0 0 0 -1 I I #
point $-1 -1 $-1 40.000999999999998 -40 -55 #
point $-1 -1 $-1 40.000999999999998 -40 55 #
coedge $-1 -1 $-1 $550 $509 $506 $558 reversed $553 $-1 #
edge $-1 -1 $-1 $552 -55 $460 55 $557 $597 forward @7 unknown #
face $-1 -1 $-1 $-1 $553 $42 $-1 $598 reversed single #
straight-curve $-1 -1 $-1 40.000999999999998 0 -55 0 -1 0 I I #
coedge $-1 -1 $-1 $518 $514 $511 $562 reversed $519 $-1 #
edge $-1 -1 $-1 $512 -40 $516 40 $561 $599 forward @7 unknown #
point $-1 -1 $-1 -40.000999999999998 40 55 #
straight-curve $-1 -1 $-1 -40.000999999999998 -40 0 0 0 -1 I I #
point $-1 -1 $-1 -40.000999999999998 -40 55 #
plane-surface $-1 -1 $-1 -40.000999999999998 0 0 1 0 0 0 0 -1 forward_v I I I I #
straight-curve $-1 -1 $-1 -40.000999999999998 40 0 0 0 -1 I I #
model_id-kcp-attrib $-1 -1 $-1 $-1 $528 1 1021324003 1021324003 -1662189567 11 #
face $600 -1 $-1 $601 $602 $14 $-1 $603 reversed single #
loop $-1 -1 $-1 $-1 $604 $528 #
plane-surface $-1 -1 $-1 0 0 110 0 0 1 1 0 0 forward_v I I I I #
loop $-1 -1 $-1 $-1 $605 $476 #
coedge $-1 -1 $-1 $573 $573 $604 $606 reversed $529 $-1 #
edge $607 -1 $-1 $608 0 $608 6.2831853071795862 $531 $609 forward @7 unknown #
attrib_edge_convexity-kcp-attrib $-1 -1 $610 $-1 $533 1 #
vertex $-1 -1 $-1 $533 $611 #
intcurve-curve $-1 -1 $-1 forward { surfintcur full nubs 3 periodic 33 
	0 3 0.75391564406059652 2 1.507831288121193 2 2.2617469321817896 2 3.0156625762423861 2 
	3.769575654156883 2 4.5234887320713799 2 5.2774018099858768 2 6.0313148879003737 2 6.7852279658148706 2 
	7.5391410437293676 2 8.2930541216438645 2 9.0469671995583614 2 9.8008828436189575 2 10.554798487679555 2 
	11.308714131740151 2 12.062629775800747 2 12.816545419861342 2 13.570461063921936 2 14.32437670798253 2 
	15.078292352043125 2 15.832205429957623 2 16.586118507872122 2 17.340031585786619 2 18.093944663701116 2 
	18.847857741615613 2 19.60177081953011 2 20.355683897444607 2 21.109596975359107 2 21.863512619419701 2 
	22.617428263480299 2 23.371343907540894 2 24.125259551601488 3 
	39.799497484264798 4 70 
	39.799497484264798 4 69.748694785313134 
	39.801941247043779 3.9759355860689349 69.488859728380319 
	39.811931102224314 3.8746267857900061 68.972091719574451 
	39.819470462299819 3.7974046547455114 68.715154274828777 
	39.838412348963843 3.5932452508436565 68.222445690392149 
	39.849812351294759 3.4661454520567236 67.986278953336978 
	39.87426554773009 3.1724841618183697 67.54957534454033 
	39.887293689698424 3.0059039252692257 67.34904967577684 
	39.912455640518921 2.6509509283111616 66.994096678818778 
	39.925471082473841 2.4504255380129307 66.827516507259531 
	39.949877987359351 2.0137217458809786 66.533854942527512 
	39.961244719882231 1.7775545445302052 66.406754838651807 
	39.980119470269869 1.2848450730031149 66.202595082868527 
	39.987625508472242 1.0279072104396128 66.125372927724129 
	39.997568974418861 0.51113909623433407 66.024064260227732 
	40 0.2513043593048323 66 
	40 -0.2513043593048323 66 
	39.997568974418861 -0.51113909623433407 66.024064260227732 
	39.987625508472242 -1.0279072104396128 66.125372927724129 
	39.980119470269869 -1.2848450730031149 66.202595082868527 
	39.961244719882231 -1.7775545445302052 66.406754838651807 
	39.949877987359351 -2.0137217458809786 66.533854942527512 
	39.925471082473841 -2.4504255380129307 66.827516507259531 
	39.912455640518921 -2.6509509283111616 66.994096678818778 
	39.887293689698424 -3.0059039252692257 67.349049675776854 
	39.87426554773009 -3.1724841618183794 67.549575344540344 
	39.849812351294759 -3.4661454520567285 67.986278953336978 
	39.838412348963843 -3.5932452508436521 68.222445690392149 
	39.819470462299819 -3.7974046547455078 68.715154274828762 
	39.811931102224314 -3.874626785790007 68.972091719574451 
	39.801941247043779 -3.9759355860689376 69.488859728380334 
	39.799497484264798 -4 69.748694785313134 
	39.799497484264798 -4 70.251305214686866 
	39.801941247043779 -3.9759355860689349 70.511140271619681 
	39.811931102224314 -3.8746267857900061 71.027908280425549 
	39.819470462299819 -3.7974046547455109 71.284845725171238 
	39.838412348963843 -3.5932452508436561 71.777554309607837 
	39.849812351294759 -3.4661454520567316 72.013721046663036 
	39.87426554773009 -3.1724841618183781 72.450424655459656 
	39.887293689698424 -3.0059039252692257 72.650950324223146 
	39.912455640518921 -2.6509509283111621 73.005903321181208 
	39.925471082473841 -2.4504255380129343 73.172483492740454 
	39.949877987359351 -2.0137217458809866 73.466145057472474 
	39.961244719882231 -1.7775545445302057 73.593245161348207 
	39.980119470269869 -1.2848450730031142 73.797404917131487 
	39.987625508472242 -1.0279072104396112 73.874627072275899 
	39.997568974418861 -0.51113909623433296 73.975935739772268 
	40 -0.2513043593048328 74 
	40 0.25130435930483186 74 
	39.997568974418861 0.51113909623433196 73.975935739772268 
	39.987625508472242 1.0279072104396101 73.874627072275899 
	39.980119470269869 1.2848450730031136 73.797404917131487 
	39.961244719882231 1.7775545445302043 73.593245161348207 
	39.949877987359351 2.0137217458809862 73.466145057472474 
	39.925471082473841 2.4504255380129334 73.172483492740454 
	39.912455640518914 2.6509509283111607 73.005903321181208 
	39.887293689698424 3.0059039252692248 72.650950324223146 
	39.874265547730083 3.1724841618183772 72.450424655459656 
	39.849812351294752 3.4661454520567307 72.013721046663036 
	39.838412348963843 3.5932452508436552 71.777554309607837 
	39.819470462299819 3.7974046547455105 71.284845725171238 
	39.811931102224314 3.8746267857900056 71.027908280425549 
	39.801941247043779 3.9759355860689345 70.511140271619681 
	39.799497484264798 4 70.251305214686866 
	39.799497484264798 4 70 
	0.001 
	cone 45 0 70 1 0 0 0 0 -4 1 I I 0 1 4 forward I I I I 
	cone 0 0 70 0 0 1 40 0 0 1 I I 0 1 40 forward I I I I 
	nullbs 
	nullbs 
	I I 
	0 
	0 
	0 
	} I I #
convexity-sys-attrib $-1 -1 $-1 $534 $481 #
point $-1 -1 $-1 21.213203435596427 21.213203435596427 66 #
coedge $-1 -1 $-1 $580 $580 $547 $591 reversed $539 $-1 #
coedge $-1 -1 $-1 $581 $581 $540 $582 forward $612 $-1 #
edge $613 -1 $-1 $614 0 $614 6.2831853071795862 $581 $615 forward @7 unknown #
model_id-kcp-attrib $-1 -1 $-1 $-1 $542 1 1021324003 1021324003 -1662189567 18 #
face $616 -1 $-1 $-1 $617 $14 $-1 $618 forward single #
loop $-1 -1 $-1 $619 $620 $542 #
cone-surface $-1 -1 $-1 0 0 5 0 0 1 10 0 0 1 I I 0 1 10 forward I I I I #
loop $-1 -1 $-1 $-1 $621 $490 #
coedge $-1 -1 $-1 $588 $588 $546 $590 reversed $543 $-1 #
coedge $-1 -1 $-1 $589 $589 $622 $623 forward $545 $-1 #
edge $624 -1 $-1 $625 0 $625 6.2831853071795862 $546 $626 forward @7 unknown #
edge $-1 -1 $-1 $627 0 $627 6.2831853071795862 $547 $628 forward @7 unknown #
loop $-1 -1 $-1 $-1 $548 $569 #
vertex $-1 -1 $-1 $549 $629 #
ellipse-curve $-1 -1 $-1 0 0 90 0 0 -1 30 0 0 1 I I #
straight-curve $-1 -1 $-1 40.000999999999998 0 55 0 1 0 I I #
point $-1 -1 $-1 40.000999999999998 40 55 #
straight-curve $-1 -1 $-1 40.000999999999998 40 0 0 0 -1 I I #
plane-surface $-1 -1 $-1 40.000999999999998 0 0 -1 0 0 0 0 1 forward_v I I I I #
straight-curve $-1 -1 $-1 -40.000999999999998 0 55 0 -1 0 I I #
model_id-kcp-attrib $-1 -1 $-1 $-1 $569 1 1021324003 1021324003 -1662189567 12 #
face $630 -1 $-1 $219 $612 $14 $-1 $631 forward single #
loop $-1 -1 $-1 $592 $632 $569 #
cone-surface $-1 -1 $-1 0 0 70 0 0 1 22.5 0 0 1 I I 0.3511234415883917 0.93632917756904455 22.5 forward I I I I #
coedge $-1 -1 $-1 $604 $604 $573 $606 forward $570 $-1 #
coedge $-1 -1 $-1 $605 $605 $632 $633 reversed $572 $-1 #
edge $634 -1 $-1 $635 0 $635 6.2831853071795862 $604 $636 forward @7 unknown #
attrib_edge_convexity-kcp-attrib $-1 -1 $637 $-1 $574 2 #
vertex $-1 -1 $-1 $574 $638 #
ellipse-curve $-1 -1 $-1 30 0 70 -1 0 0 0 0 -4 1 I I #
convexity-sys-attrib $-1 -1 $-1 $575 $533 #
point $-1 -1 $-1 39.799497484264798 4 70 #
loop $-1 -1 $-1 $639 $581 $601 #
attrib_edge_convexity-kcp-attrib $-1 -1 $640 $-1 $582 1 #
vertex $-1 -1 $-1 $582 $641 #
ellipse-curve $-1 -1 $-1 0 0 50 0 0 -1 40 0 0 1 I I #
model_id-kcp-attrib $-1 -1 $-1 $-1 $584 1 1021324003 1021324003 -1662189567 19 #
loop $-1 -1 $-1 $-1 $642 $584 #
plane-surface $-1 -1 $-1 0 0 0 0 0 -1 -1 0 0 forward_v I I I I #
loop $-1 -1 $-1 $-1 $622 $542 #
coedge $-1 -1 $-1 $620 $620 $642 $643 reversed $585 $-1 #
coedge $-1 -1 $-1 $621 $621 $644 $645 reversed $587 $-1 #
coedge $-1 -1 $-1 $622 $622 $589 $623 reversed $619 $-1 #
edge $646 -1 $-1 $647 0 $647 6.2831853071795862 $622 $648 forward @7 unknown #
attrib_edge_convexity-kcp-attrib $-1 -1 $649 $-1 $590 1 #
vertex $-1 -1 $-1 $590 $650 #
ellipse-curve $-1 -1 $-1 0 0 10 0 0 -1 30 0 0 1 I I #
vertex $-1 -1 $-1 $591 $651 #
ellipse-curve $-1 -1 $-1 0 0 90 0 0 1 40 0 0 1 I I #
point $-1 -1 $-1 30 0 90 #
model_id-kcp-attrib $-1 -1 $-1 $-1 $601 1 1021324003 1021324003 -1662189567 13 #
plane-surface $-1 -1 $-1 0 0 50 0 0 -1 -1 0 0 forward_v I I I I #
coedge $-1 -1 $-1 $632 $632 $605 $633 forward $602 $-1 #
edge $-1 -1 $-1 $652 -3.1415926535897931 $652 3.1415926535897931 $632 $653 forward @7 unknown #
attrib_edge_convexity-kcp-attrib $-1 -1 $654 $-1 $606 1 #
vertex $-1 -1 $-1 $606 $655 #
ellipse-curve $-1 -1 $-1 0 0 110 0 0 1 10 0 0 1 I I #
convexity-sys-attrib $-1 -1 $-1 $607 $574 #
point $-1 -1 $-1 30 0 66 #
loop $-1 -1 $-1 $-1 $644 $601 #
convexity-sys-attrib $-1 -1 $-1 $613 $582 #
point $-1 -1 $-1 40 0 50 #
coedge $-1 -1 $-1 $642 $642 $620 $643 forward $617 $-1 #
edge $-1 -1 $-1 $656 0 $656 6.2831853071795862 $642 $657 forward @7 unknown #
coedge $-1 -1 $-1 $644 $644 $621 $645 forward $639 $-1 #
edge $658 -1 $-1 $659 0 $659 6.2831853071795862 $621 $660 forward @7 unknown #
attrib_edge_convexity-kcp-attrib $-1 -1 $661 $-1 $623 2 #
vertex $-1 -1 $-1 $623 $662 #
ellipse-curve $-1 -1 $-1 0 0 10 0 0 1 10 0 0 1 I I #
convexity-sys-attrib $-1 -1 $-1 $624 $590 #
point $-1 -1 $-1 30 0 10 #
point $-1 -1 $-1 40 0 90 #
vertex $-1 -1 $-1 $633 $663 #
ellipse-curve $-1 -1 $-1 0 0 66 0 0 -1 21 0 0 1 I I #
convexity-sys-attrib $-1 -1 $-1 $634 $606 #
point $-1 -1 $-1 10 0 110 #
vertex $-1 -1 $-1 $643 $664 #
ellipse-curve $-1 -1 $-1 0 0 0 0 0 -1 10 0 0 1 I I #
attrib_edge_convexity-kcp-attrib $-1 -1 $665 $-1 $645 2 #
vertex $-1 -1 $-1 $645 $666 #
ellipse-curve $-1 -1 $-1 0 0 50 0 0 1 30 0 0 1 I I #
convexity-sys-attrib $-1 -1 $-1 $646 $623 #
point $-1 -1 $-1 10 0 10 #
point $-1 -1 $-1 -21 2.5717582782094417e-015 66 #
point $-1 -1 $-1 10 0 0 #
convexity-sys-attrib $-1 -1 $-1 $658 $645 #
point $-1 -1 $-1 30 0 50 #
End-of-ACIS-data 