700 0 2 0           
24 FBMach with ACIS - 7.0.3 13 ACIS 7.0.3 NT 24 Mon May 13 17:06:50 2002 
1 9.9999999999999995e-007 1e-010 
body $2 -1 $-1 $3 $-1 $4 #
bdycol-kcp $-1 -1 1 4 $5 $6 $7 $8 #
model_id-kcp-attrib $-1 -1 $9 $-1 $0 1 1021324010 1021324010 1822949377 1 #
lump $-1 -1 $-1 $-1 $10 $0 #
transform $-1 -1 1 0 0 0 1 0 0 0 1 0 0 0 1 rotate no_reflect no_shear #
body $11 -1 $-1 $12 $-1 $13 #
body $14 -1 $-1 $15 $-1 $16 #
body $17 -1 $-1 $18 $-1 $19 #
body $20 -1 $-1 $21 $-1 $22 #
rgb_color-st-attrib $-1 -1 $-1 $2 $0 0 1 0 #
shell $-1 -1 $-1 $-1 $-1 $23 $-1 $3 #
model_id-kcp-attrib $-1 -1 $24 $-1 $5 1 1021324010 1021324010 1821900804 1 #
lump $-1 -1 $-1 $-1 $25 $5 #
transform $-1 -1 1 0 0 0 1 0 0 0 1 0 0 3 1 no_rotate no_reflect no_shear #
model_id-kcp-attrib $-1 -1 $-1 $-1 $6 1 1021324010 1021324010 1822949378 1 #
lump $-1 -1 $-1 $-1 $26 $6 #
transform $-1 -1 1 0 0 0 1 0 0 0 1 0 0 3 1 no_rotate no_reflect no_shear #
model_id-kcp-attrib $-1 -1 $27 $-1 $7 1 1021324010 1021324010 1827143685 1 #
lump $-1 -1 $-1 $-1 $28 $7 #
transform $-1 -1 1 0 0 0 1 0 0 0 1 0 0 3 1 no_rotate no_reflect no_shear #
rgb_color-st-attrib $-1 -1 $29 $-1 $8 0.5 1 1 #
lump $-1 -1 $-1 $-1 $30 $8 #
transform $-1 -1 1 0 0 0 1 0 0 0 1 0 0 3 1 no_rotate no_reflect no_shear #
face $31 -1 $-1 $32 $33 $10 $-1 $34 forward single #
rgb_color-st-attrib $-1 -1 $-1 $11 $5 0 0 1 #
shell $-1 -1 $-1 $-1 $-1 $35 $-1 $12 #
shell $-1 -1 $-1 $-1 $-1 $36 $-1 $15 #
rgb_color-st-attrib $-1 -1 $-1 $17 $7 1 0.5 1 #
shell $-1 -1 $-1 $-1 $-1 $37 $-1 $18 #
model_id-kcp-attrib $-1 -1 $-1 $20 $8 1 1021324010 1021324010 1827536899 1 #
shell $-1 -1 $-1 $-1 $-1 $38 $-1 $21 #
model_id-kcp-attrib $-1 -1 $-1 $-1 $23 1 1021324010 1021324010 1822949377 2 #
face $39 -1 $-1 $40 $41 $10 $-1 $42 forward single #
loop $-1 -1 $-1 $-1 $43 $23 #
plane-surface $-1 -1 $-1 -0.74997799967732393 1.2989999999999999 -4 0.50000000000000011 -0.8660254037844386 0 0 0 -1 forward_v I I I I #
face $-1 -1 $-1 $44 $45 $25 $-1 $46 forward single #
face $47 -1 $-1 $48 $49 $26 $-1 $50 forward single #
face $-1 -1 $-1 $51 $52 $28 $-1 $53 forward single #
face $-1 -1 $-1 $54 $55 $30 $-1 $56 reversed single #
model_id-kcp-attrib $-1 -1 $-1 $-1 $32 1 1021324010 1021324010 1822949377 3 #
face $57 -1 $-1 $58 $59 $10 $-1 $60 forward single #
loop $-1 -1 $-1 $-1 $61 $32 #
plane-surface $-1 -1 $-1 -1.4999559993546476 -2.7755575615628914e-016 -4 1 2.564025461028075e-016 0 0 0 -1 forward_v I I I I #
coedge $-1 -1 $-1 $62 $63 $64 $65 reversed $33 $-1 #
face $-1 -1 $-1 $66 $67 $25 $-1 $68 forward single #
loop $-1 -1 $-1 $-1 $69 $35 #
plane-surface $-1 -1 $-1 -1.4999559993546479 0.86599999999999977 -4 -1 -2.564025461028075e-016 0 0 0 1 forward_v I I I I #
model_id-kcp-attrib $-1 -1 $-1 $-1 $36 1 1021324010 1021324010 1822949378 3 #
face $70 -1 $-1 $71 $72 $26 $-1 $73 reversed single #
loop $-1 -1 $-1 $-1 $74 $36 #
plane-surface $-1 -1 $-1 0 0 7 0 0 1 1 0 0 forward_v I I I I #
face $-1 -1 $-1 $75 $76 $28 $-1 $77 forward single #
loop $-1 -1 $-1 $78 $79 $37 #
cone-surface $-1 -1 $-1 0 0 -3 0 0 1 2 0 0 1 I I 0 -1 2 forward I I I I #
face $-1 -1 $-1 $80 $81 $30 $-1 $56 reversed single #
loop $-1 -1 $-1 $-1 $82 $38 #
cone-surface $-1 -1 $-1 -1.4996607218221374e-032 0 -7 0 0 -1 4 0 0 1 I I 0 1 4 forward I I I I #
model_id-kcp-attrib $-1 -1 $-1 $-1 $40 1 1021324010 1021324010 1822949377 4 #
face $83 -1 $-1 $84 $85 $10 $-1 $86 reversed single #
loop $-1 -1 $-1 $-1 $87 $40 #
plane-surface $-1 -1 $-1 -0.7499779996773237 -1.2990000000000002 -4 0.49999999999999994 0.86602540378443871 0 0 0 1 forward_v I I I I #
coedge $-1 -1 $-1 $88 $89 $90 $91 reversed $41 $-1 #
coedge $-1 -1 $-1 $92 $43 $93 $94 reversed $33 $-1 #
coedge $-1 -1 $-1 $43 $92 $88 $95 forward $33 $-1 #
coedge $-1 -1 $-1 $90 $96 $43 $65 forward $97 $-1 #
edge $98 -1 $-1 $99 -0.8660000000000001 $100 0.8660000000000001 $64 $101 forward @7 unknown #
face $-1 -1 $-1 $102 $103 $25 $-1 $104 forward single #
loop $-1 -1 $-1 $-1 $105 $44 #
plane-surface $-1 -1 $-1 -1.4999559993546474 -0.86600000000000033 -4 -0.49999999999999994 -0.86602540378443871 0 0 0 -1 forward_v I I I I #
coedge $-1 -1 $-1 $106 $107 $108 $109 forward $45 $-1 #
model_id-kcp-attrib $-1 -1 $-1 $-1 $48 1 1021324010 1021324010 1822949378 2 #
face $-1 -1 $-1 $110 $111 $26 $-1 $112 reversed single #
loop $-1 -1 $-1 $-1 $113 $48 #
plane-surface $-1 -1 $-1 0 0 -7 0 0 1 1 0 0 forward_v I I I I #
coedge $-1 -1 $-1 $114 $115 $116 $117 forward $49 $-1 #
face $-1 -1 $-1 $118 $119 $28 $-1 $120 forward single #
loop $-1 -1 $-1 $121 $122 $51 #
cone-surface $-1 -1 $-1 -1.4996607218221374e-032 0 -3 0 0 1 4 0 0 1 I I 0 1 4 forward I I I I #
loop $-1 -1 $-1 $-1 $123 $37 #
coedge $-1 -1 $-1 $79 $79 $124 $125 forward $52 $-1 #
face $-1 -1 $-1 $126 $127 $30 $-1 $56 reversed single #
loop $-1 -1 $-1 $-1 $128 $54 #
coedge $-1 -1 $-1 $129 $130 $131 $132 forward $55 $-1 #
model_id-kcp-attrib $-1 -1 $-1 $-1 $58 1 1021324010 1021324010 1822949377 5 #
face $133 -1 $-1 $134 $135 $10 $-1 $136 forward single #
loop $-1 -1 $-1 $-1 $137 $58 #
plane-surface $-1 -1 $-1 0 0 -1 0 0 1 1 0 0 forward_v I I I I #
coedge $-1 -1 $-1 $138 $139 $140 $141 reversed $59 $-1 #
coedge $-1 -1 $-1 $142 $61 $63 $95 reversed $41 $-1 #
coedge $-1 -1 $-1 $61 $142 $138 $143 forward $41 $-1 #
coedge $-1 -1 $-1 $140 $64 $61 $91 forward $97 $-1 #
edge $144 -1 $-1 $100 -0.8660000000000001 $145 0.86599999999999999 $90 $146 forward @7 unknown #
coedge $-1 -1 $-1 $63 $62 $147 $148 forward $33 $-1 #
coedge $-1 -1 $-1 $149 $150 $62 $94 forward $151 $-1 #
edge $-1 -1 $-1 $152 -3 $99 0 $93 $153 forward @7 unknown #
edge $-1 -1 $-1 $154 -3 $100 0 $63 $155 forward @7 unknown #
coedge $-1 -1 $-1 $64 $156 $149 $157 forward $97 $-1 #
loop $-1 -1 $-1 $158 $159 $160 #
attrib_edge_convexity-kcp-attrib $-1 -1 $161 $-1 $65 1 #
vertex $-1 -1 $-1 $65 $162 #
vertex $-1 -1 $-1 $91 $163 #
straight-curve $-1 -1 $-1 -0.74997799967732393 1.2989999999999999 -4 -0.8660254037844386 -0.50000000000000011 0 I I #
face $-1 -1 $-1 $164 $165 $25 $-1 $166 forward single #
loop $-1 -1 $-1 $-1 $167 $66 #
plane-surface $-1 -1 $-1 0 -1.732 -4 0.5 -0.86602540378443871 0 0 0 -1 forward_v I I I I #
coedge $-1 -1 $-1 $168 $169 $170 $171 forward $67 $-1 #
coedge $-1 -1 $-1 $172 $69 $169 $173 reversed $45 $-1 #
coedge $-1 -1 $-1 $69 $172 $174 $175 forward $45 $-1 #
coedge $-1 -1 $-1 $176 $170 $69 $109 reversed $177 $-1 #
edge $-1 -1 $-1 $178 -0.8660000000000001 $179 0.86599999999999999 $69 $180 forward @7 unknown #
face $-1 -1 $-1 $181 $182 $26 $-1 $183 reversed single #
loop $-1 -1 $-1 $-1 $184 $71 #
plane-surface $-1 -1 $-1 0 -4 0 0 1 0 0 0 1 forward_v I I I I #
coedge $-1 -1 $-1 $185 $186 $187 $188 forward $72 $-1 #
coedge $-1 -1 $-1 $189 $74 $190 $191 forward $49 $-1 #
coedge $-1 -1 $-1 $74 $189 $192 $193 forward $49 $-1 #
coedge $-1 -1 $-1 $194 $195 $74 $117 reversed $196 $-1 #
edge $-1 -1 $-1 $197 -4 $198 4 $116 $199 forward @7 unknown #
face $-1 -1 $-1 $-1 $200 $28 $-1 $201 reversed single #
loop $-1 -1 $-1 $202 $203 $75 #
plane-surface $-1 -1 $-1 -0.18181818181818177 -1.7616642572325077e-017 7 0 0 1 1 0 0 forward_v I I I I #
loop $-1 -1 $-1 $-1 $204 $51 #
coedge $-1 -1 $-1 $122 $122 $203 $205 forward $76 $-1 #
coedge $-1 -1 $-1 $123 $123 $206 $207 reversed $78 $-1 #
coedge $-1 -1 $-1 $124 $124 $79 $125 reversed $202 $-1 #
edge $-1 -1 $-1 $208 0 $208 6.2831853071795862 $79 $209 forward @7 unknown #
face $-1 -1 $-1 $210 $211 $30 $-1 $56 reversed single #
loop $-1 -1 $-1 $-1 $212 $80 #
coedge $-1 -1 $-1 $213 $131 $214 $215 reversed $81 $-1 #
coedge $-1 -1 $-1 $216 $82 $217 $218 reversed $55 $-1 #
coedge $-1 -1 $-1 $82 $216 $219 $220 reversed $55 $-1 #
coedge $-1 -1 $-1 $128 $221 $222 $132 reversed $81 $-1 #
edge $-1 -1 $-1 $223 -14 $224 0 $222 $225 forward @7 unknown #
model_id-kcp-attrib $-1 -1 $-1 $-1 $84 1 1021324010 1021324010 1822949377 6 #
face $226 -1 $-1 $227 $151 $10 $-1 $228 forward single #
loop $-1 -1 $-1 $-1 $229 $84 #
plane-surface $-1 -1 $-1 0.74997799967732381 -1.2989999999999999 -4 -0.5 0.86602540378443871 0 0 0 1 forward_v I I I I #
coedge $-1 -1 $-1 $230 $231 $232 $233 reversed $85 $-1 #
coedge $-1 -1 $-1 $234 $87 $89 $143 reversed $59 $-1 #
coedge $-1 -1 $-1 $87 $234 $235 $236 forward $59 $-1 #
coedge $-1 -1 $-1 $159 $90 $87 $141 forward $97 $-1 #
edge $237 -1 $-1 $145 -0.86599999999999977 $238 0.86599999999999977 $140 $239 forward @7 unknown #
coedge $-1 -1 $-1 $89 $88 $240 $241 forward $41 $-1 #
edge $-1 -1 $-1 $242 -3 $145 0 $89 $243 forward @7 unknown #
attrib_edge_convexity-kcp-attrib $-1 -1 $244 $-1 $91 1 #
vertex $-1 -1 $-1 $141 $245 #
straight-curve $-1 -1 $-1 -1.4999559993546476 -3.310741467165009e-016 -4 2.564025461028075e-016 -1 0 I I #
coedge $-1 -1 $-1 $231 $240 $92 $148 reversed $85 $-1 #
edge $246 -1 $-1 $152 -0.8660000000000001 $154 0.8660000000000001 $92 $247 forward @7 unknown #
coedge $-1 -1 $-1 $248 $93 $96 $157 reversed $151 $-1 #
coedge $-1 -1 $-1 $93 $248 $231 $249 forward $151 $-1 #
loop $-1 -1 $-1 $-1 $149 $134 #
vertex $-1 -1 $-1 $249 $250 #
straight-curve $-1 -1 $-1 0 1.732 -4 0 0 -1 I I #
vertex $-1 -1 $-1 $148 $251 #
straight-curve $-1 -1 $-1 -1.4999559993546479 0.86599999999999977 -4 0 0 -1 I I #
coedge $-1 -1 $-1 $96 $159 $252 $253 forward $97 $-1 #
edge $254 -1 $-1 $255 -0.86599999999999988 $99 0.8660000000000001 $96 $256 forward @7 unknown #
loop $-1 -1 $-1 $-1 $257 $160 #
coedge $-1 -1 $-1 $156 $140 $229 $258 forward $97 $-1 #
face $259 -1 $-1 $260 $97 $10 $-1 $261 forward single #
convexity-sys-attrib $-1 -1 $-1 $98 $65 #
point $-1 -1 $-1 0 1.732 -4 #
point $-1 -1 $-1 -1.4999559993546479 0.86599999999999977 -4 #
face $-1 -1 $-1 $262 $263 $25 $-1 $264 forward single #
loop $-1 -1 $-1 $-1 $265 $102 #
plane-surface $-1 -1 $-1 1.4999559993546476 -0.86599999999999988 -4 1 0 0 0 0 -1 forward_v I I I I #
coedge $-1 -1 $-1 $266 $267 $268 $269 forward $103 $-1 #
coedge $-1 -1 $-1 $270 $105 $267 $271 reversed $67 $-1 #
coedge $-1 -1 $-1 $105 $270 $106 $173 forward $67 $-1 #
coedge $-1 -1 $-1 $108 $268 $105 $171 reversed $177 $-1 #
edge $-1 -1 $-1 $179 -0.86599999999999977 $272 0.86599999999999977 $105 $273 forward @7 unknown #
coedge $-1 -1 $-1 $107 $106 $274 $275 reversed $45 $-1 #
edge $276 -1 $-1 $277 0 $179 3 $169 $278 forward @7 unknown #
coedge $-1 -1 $-1 $279 $280 $107 $175 reversed $281 $-1 #
edge $-1 -1 $-1 $282 0 $178 3 $107 $283 forward @7 unknown #
coedge $-1 -1 $-1 $284 $108 $280 $285 reversed $177 $-1 #
loop $-1 -1 $-1 $-1 $108 $286 #
vertex $-1 -1 $-1 $175 $287 #
vertex $-1 -1 $-1 $173 $288 #
straight-curve $-1 -1 $-1 -1.4999559993546476 -3.310741467165009e-016 -7 2.564025461028075e-016 -1 0 I I #
face $-1 -1 $-1 $289 $290 $26 $-1 $291 reversed single #
loop $-1 -1 $-1 $-1 $292 $110 #
plane-surface $-1 -1 $-1 -4 0 0 1 0 0 0 0 -1 forward_v I I I I #
coedge $-1 -1 $-1 $293 $192 $294 $295 forward $111 $-1 #
coedge $-1 -1 $-1 $296 $113 $293 $297 forward $72 $-1 #
coedge $-1 -1 $-1 $113 $296 $298 $299 forward $72 $-1 #
coedge $-1 -1 $-1 $195 $194 $113 $188 reversed $196 $-1 #
edge $-1 -1 $-1 $300 -4 $301 4 $187 $302 forward @7 unknown #
coedge $-1 -1 $-1 $115 $114 $303 $304 forward $49 $-1 #
coedge $-1 -1 $-1 $305 $306 $114 $191 reversed $290 $-1 #
edge $-1 -1 $-1 $198 -4 $307 4 $190 $308 forward @7 unknown #
coedge $-1 -1 $-1 $184 $309 $115 $193 reversed $111 $-1 #
edge $-1 -1 $-1 $310 -4 $197 4 $192 $311 forward @7 unknown #
coedge $-1 -1 $-1 $187 $116 $309 $312 forward $196 $-1 #
coedge $-1 -1 $-1 $116 $187 $305 $313 reversed $196 $-1 #
loop $-1 -1 $-1 $-1 $194 $289 #
vertex $-1 -1 $-1 $117 $314 #
vertex $-1 -1 $-1 $117 $315 #
straight-curve $-1 -1 $-1 4 0 7 0 1 0 I I #
loop $-1 -1 $-1 $316 $317 $118 #
plane-surface $-1 -1 $-1 -0.18181818181818177 -1.7616642572325077e-017 -3 0 0 1 1 0 0 forward_v I I I I #
loop $-1 -1 $-1 $-1 $124 $75 #
coedge $-1 -1 $-1 $203 $203 $122 $205 reversed $119 $-1 #
coedge $-1 -1 $-1 $204 $204 $317 $318 reversed $121 $-1 #
edge $-1 -1 $-1 $319 -3.1415926535897931 $319 3.1415926535897931 $122 $320 forward @7 unknown #
coedge $-1 -1 $-1 $206 $206 $123 $207 forward $316 $-1 #
edge $321 -1 $-1 $322 0 $322 6.2831853071795862 $123 $323 forward @7 unknown #
vertex $-1 -1 $-1 $125 $324 #
ellipse-curve $-1 -1 $-1 0 0 7 0 0 1 2 0 0 1 I I #
face $-1 -1 $-1 $325 $326 $30 $-1 $327 reversed single #
loop $-1 -1 $-1 $-1 $328 $126 #
coedge $-1 -1 $-1 $329 $330 $331 $332 reversed $127 $-1 #
coedge $-1 -1 $-1 $221 $128 $333 $334 forward $81 $-1 #
coedge $-1 -1 $-1 $335 $336 $128 $215 forward $337 $-1 #
edge $-1 -1 $-1 $338 -3.1415926535897931 $223 -1.5707963267948966 $214 $339 forward @7 unknown #
coedge $-1 -1 $-1 $130 $129 $340 $341 reversed $55 $-1 #
coedge $-1 -1 $-1 $342 $343 $129 $218 forward $344 $-1 #
edge $-1 -1 $-1 $345 0 $224 1.5707963267948966 $217 $346 forward @7 unknown #
coedge $-1 -1 $-1 $347 $348 $130 $220 forward $349 $-1 #
edge $-1 -1 $-1 $223 -1.5707963267948966 $350 0 $219 $339 forward @7 unknown #
coedge $-1 -1 $-1 $131 $213 $351 $352 reversed $81 $-1 #
coedge $-1 -1 $-1 $353 $354 $355 $132 forward $356 $-1 #
vertex $-1 -1 $-1 $357 $358 #
vertex $-1 -1 $-1 $359 $360 #
straight-curve $-1 -1 $-1 -1.4996607218221374e-032 4 -7 0 0 -1 I I #
model_id-kcp-attrib $-1 -1 $-1 $-1 $134 1 1021324010 1021324010 1822949377 7 #
face $361 -1 $-1 $362 $363 $10 $-1 $364 forward single #
plane-surface $-1 -1 $-1 0.74997799967732381 1.2989999999999999 -4 -0.5 -0.86602540378443871 0 0 0 1 forward_v I I I I #
coedge $-1 -1 $-1 $235 $365 $159 $258 reversed $135 $-1 #
coedge $-1 -1 $-1 $366 $137 $367 $368 reversed $85 $-1 #
coedge $-1 -1 $-1 $137 $147 $150 $249 reversed $85 $-1 #
coedge $-1 -1 $-1 $369 $370 $137 $233 forward $363 $-1 #
edge $371 -1 $-1 $372 -0.86599999999999999 $373 0.86599999999999999 $232 $374 forward @7 unknown #
coedge $-1 -1 $-1 $139 $138 $366 $375 forward $59 $-1 #
coedge $-1 -1 $-1 $367 $229 $139 $236 reversed $135 $-1 #
edge $-1 -1 $-1 $376 -3 $238 0 $139 $377 forward @7 unknown #
attrib_edge_convexity-kcp-attrib $-1 -1 $378 $-1 $141 1 #
vertex $-1 -1 $-1 $258 $379 #
straight-curve $-1 -1 $-1 -0.7499779996773237 -1.2990000000000002 -4 0.86602540378443871 -0.49999999999999994 0 I I #
coedge $-1 -1 $-1 $147 $366 $142 $241 reversed $85 $-1 #
edge $380 -1 $-1 $154 -0.8660000000000001 $242 0.8660000000000001 $142 $381 forward @7 unknown #
vertex $-1 -1 $-1 $241 $382 #
straight-curve $-1 -1 $-1 -1.4999559993546474 -0.86600000000000033 -4 0 0 -1 I I #
convexity-sys-attrib $-1 -1 $-1 $144 $91 #
point $-1 -1 $-1 -1.4999559993546474 -0.86600000000000033 -4 #
attrib_edge_convexity-kcp-attrib $-1 -1 $383 $-1 $148 2 #
straight-curve $-1 -1 $-1 -0.74997799967732393 1.2989999999999999 -1 -0.8660254037844386 -0.50000000000000011 0 I I #
coedge $-1 -1 $-1 $150 $149 $369 $384 reversed $151 $-1 #
edge $385 -1 $-1 $373 -0.8660000000000001 $152 0.86600000000000021 $150 $386 forward @7 unknown #
point $-1 -1 $-1 0 1.732 -1 #
point $-1 -1 $-1 -1.4999559993546479 0.86599999999999977 -1 #
coedge $-1 -1 $-1 $370 $369 $156 $253 reversed $363 $-1 #
edge $387 -1 $-1 $388 -0.86599999999999999 $255 0.86599999999999999 $156 $389 forward @7 unknown #
attrib_edge_convexity-kcp-attrib $-1 -1 $390 $-1 $157 1 #
vertex $-1 -1 $-1 $157 $391 #
straight-curve $-1 -1 $-1 0.74997799967732393 1.2989999999999999 -4 -0.86602540378443871 0.5 0 I I #
coedge $-1 -1 $-1 $257 $257 $392 $393 forward $158 $-1 #
edge $394 -1 $-1 $238 -0.8660000000000001 $388 0.86599999999999988 $159 $395 forward @7 unknown #
model_id-kcp-attrib $-1 -1 $-1 $-1 $160 1 1021324010 1021324010 1822949377 11 #
face $396 -1 $-1 $397 $398 $10 $-1 $399 forward single #
plane-surface $-1 -1 $-1 0 0 -4 0 0 -1 1 0 0 forward_v I I I I #
face $-1 -1 $-1 $286 $281 $25 $-1 $400 forward single #
loop $-1 -1 $-1 $-1 $401 $164 #
plane-surface $-1 -1 $-1 1.4999559993546476 0.86599999999999999 -4 0.5 0.86602540378443871 0 0 0 -1 forward_v I I I I #
coedge $-1 -1 $-1 $402 $403 $404 $405 forward $165 $-1 #
coedge $-1 -1 $-1 $406 $167 $403 $407 reversed $103 $-1 #
coedge $-1 -1 $-1 $167 $406 $168 $271 forward $103 $-1 #
coedge $-1 -1 $-1 $170 $404 $167 $269 reversed $177 $-1 #
edge $-1 -1 $-1 $272 -0.8660000000000001 $408 0.86599999999999988 $167 $409 forward @7 unknown #
coedge $-1 -1 $-1 $169 $168 $410 $411 reversed $67 $-1 #
edge $-1 -1 $-1 $412 0 $272 3 $267 $413 forward @7 unknown #
vertex $-1 -1 $-1 $271 $414 #
straight-curve $-1 -1 $-1 -0.7499779996773237 -1.2990000000000002 -7 0.86602540378443871 -0.49999999999999994 0 I I #
coedge $-1 -1 $-1 $410 $415 $172 $275 forward $416 $-1 #
edge $417 -1 $-1 $282 -0.8660000000000001 $277 0.86599999999999999 $172 $418 forward @7 unknown #
convexity-sys-attrib $-1 -1 $-1 $-1 $173 #
vertex $-1 -1 $-1 $275 $419 #
straight-curve $-1 -1 $-1 -1.4999559993546474 -0.86600000000000033 -4 0 0 -1 I I #
coedge $-1 -1 $-1 $420 $174 $415 $421 reversed $281 $-1 #
coedge $-1 -1 $-1 $174 $420 $176 $285 forward $281 $-1 #
loop $-1 -1 $-1 $-1 $280 $262 #
vertex $-1 -1 $-1 $421 $422 #
straight-curve $-1 -1 $-1 -1.4999559993546479 0.86599999999999977 -4 0 0 -1 I I #
coedge $-1 -1 $-1 $404 $176 $401 $423 reversed $177 $-1 #
edge $-1 -1 $-1 $424 -0.8660000000000001 $178 0.8660000000000001 $280 $425 forward @7 unknown #
face $-1 -1 $-1 $426 $177 $25 $-1 $427 reversed single #
point $-1 -1 $-1 -1.4999559993546479 0.86599999999999977 -7 #
point $-1 -1 $-1 -1.4999559993546474 -0.86600000000000033 -7 #
face $-1 -1 $-1 $-1 $196 $26 $-1 $428 reversed single #
loop $-1 -1 $-1 $-1 $305 $181 #
plane-surface $-1 -1 $-1 0 4 0 0 -1 0 0 0 -1 forward_v I I I I #
coedge $-1 -1 $-1 $429 $303 $306 $430 forward $182 $-1 #
coedge $-1 -1 $-1 $309 $184 $185 $297 reversed $111 $-1 #
coedge $-1 -1 $-1 $303 $429 $184 $295 reversed $182 $-1 #
edge $-1 -1 $-1 $310 -7 $431 7 $294 $432 forward @7 unknown #
coedge $-1 -1 $-1 $186 $185 $429 $433 forward $72 $-1 #
edge $-1 -1 $-1 $301 -4 $431 4 $293 $434 forward @7 unknown #
coedge $-1 -1 $-1 $306 $305 $186 $299 reversed $290 $-1 #
edge $-1 -1 $-1 $435 -4 $300 4 $298 $436 forward @7 unknown #
vertex $-1 -1 $-1 $188 $437 #
vertex $-1 -1 $-1 $312 $438 #
straight-curve $-1 -1 $-1 4 0 -7 0 -1 0 I I #
coedge $-1 -1 $-1 $292 $294 $189 $304 reversed $182 $-1 #
edge $-1 -1 $-1 $307 -4 $310 4 $303 $439 forward @7 unknown #
coedge $-1 -1 $-1 $298 $190 $195 $313 forward $290 $-1 #
coedge $-1 -1 $-1 $190 $298 $292 $430 reversed $290 $-1 #
vertex $-1 -1 $-1 $191 $440 #
straight-curve $-1 -1 $-1 0 4 7 -1 0 0 I I #
coedge $-1 -1 $-1 $192 $293 $194 $312 reversed $111 $-1 #
vertex $-1 -1 $-1 $304 $441 #
straight-curve $-1 -1 $-1 0 -4 7 1 0 0 I I #
edge $-1 -1 $-1 $197 -7 $301 7 $194 $442 forward @7 unknown #
edge $-1 -1 $-1 $198 -7 $300 7 $195 $443 forward @7 unknown #
point $-1 -1 $-1 4 -4 7 #
point $-1 -1 $-1 4 4 7 #
loop $-1 -1 $-1 $-1 $206 $118 #
coedge $-1 -1 $-1 $317 $317 $204 $318 forward $200 $-1 #
edge $444 -1 $-1 $445 -3.1415926535897931 $445 3.1415926535897931 $204 $446 forward @7 unknown #
vertex $-1 -1 $-1 $205 $447 #
ellipse-curve $-1 -1 $-1 -1.4996607218221374e-032 0 7 0 0 -1 4 0 0 1 I I #
convexity-sys-attrib $-1 -1 $-1 $-1 $207 #
vertex $-1 -1 $-1 $207 $448 #
ellipse-curve $-1 -1 $-1 0 0 -3 0 0 1 2 0 0 1 I I #
point $-1 -1 $-1 2 0 7 #
face $-1 -1 $-1 $449 $356 $30 $-1 $450 reversed single #
loop $-1 -1 $-1 $-1 $340 $210 #
plane-surface $-1 -1 $-1 4 0 0 -1 0 0 0 0 1 forward_v I I I I #
coedge $-1 -1 $-1 $333 $451 $452 $453 reversed $211 $-1 #
coedge $-1 -1 $-1 $454 $212 $455 $456 reversed $127 $-1 #
coedge $-1 -1 $-1 $212 $454 $216 $341 forward $127 $-1 #
coedge $-1 -1 $-1 $457 $458 $212 $332 forward $459 $-1 #
edge $-1 -1 $-1 $460 -1.5707963267948966 $345 0 $331 $346 forward @7 unknown #
coedge $-1 -1 $-1 $461 $328 $462 $334 reversed $211 $-1 #
edge $-1 -1 $-1 $338 -14 $463 0 $462 $464 forward @7 unknown #
coedge $-1 -1 $-1 $336 $214 $354 $357 forward $337 $-1 #
coedge $-1 -1 $-1 $214 $335 $465 $466 forward $337 $-1 #
loop $-1 -1 $-1 $-1 $214 $467 #
vertex $-1 -1 $-1 $468 $469 #
ellipse-curve $-1 -1 $-1 -1.4996607218221374e-032 0 7 0 0 -1 4 0 0 1 I I #
coedge $-1 -1 $-1 $470 $471 $472 $341 forward $326 $-1 #
edge $-1 -1 $-1 $350 -14 $345 0 $340 $473 forward @7 unknown #
coedge $-1 -1 $-1 $343 $217 $474 $359 forward $344 $-1 #
coedge $-1 -1 $-1 $217 $342 $470 $475 forward $344 $-1 #
loop $-1 -1 $-1 $-1 $217 $476 #
vertex $-1 -1 $-1 $477 $478 #
ellipse-curve $-1 -1 $-1 -1.4996607218221374e-032 0 -7 0 0 1 4 0 0 1 I I #
coedge $-1 -1 $-1 $348 $219 $471 $479 forward $349 $-1 #
coedge $-1 -1 $-1 $219 $347 $480 $481 forward $349 $-1 #
loop $-1 -1 $-1 $-1 $219 $482 #
vertex $-1 -1 $-1 $479 $483 #
coedge $-1 -1 $-1 $484 $485 $221 $352 forward $486 $-1 #
edge $-1 -1 $-1 $224 1.5707963267948966 $463 3.1415926535897931 $351 $346 forward @7 unknown #
coedge $-1 -1 $-1 $487 $222 $485 $488 reversed $356 $-1 #
coedge $-1 -1 $-1 $222 $487 $335 $357 reversed $356 $-1 #
coedge $-1 -1 $-1 $480 $474 $82 $132 reversed $489 $-1 #
loop $-1 -1 $-1 $-1 $222 $325 #
edge $-1 -1 $-1 $223 1.4996607218221374e-032 $490 4 $354 $491 forward @7 unknown #
point $-1 -1 $-1 -1.4996607218221374e-032 4 7 #
edge $-1 -1 $-1 $224 -1.4996607218221374e-032 $492 4 $474 $493 forward @7 unknown #
point $-1 -1 $-1 -1.4996607218221374e-032 4 -7 #
model_id-kcp-attrib $-1 -1 $-1 $-1 $227 1 1021324010 1021324010 1822949377 8 #
face $494 -1 $-1 $495 $496 $10 $-1 $497 forward single #
loop $-1 -1 $-1 $-1 $252 $227 #
plane-surface $-1 -1 $-1 1.4999559993546476 0 -4 -1 0 0 0 0 1 forward_v I I I I #
coedge $-1 -1 $-1 $229 $367 $370 $498 forward $135 $-1 #
coedge $-1 -1 $-1 $240 $230 $234 $375 reversed $85 $-1 #
coedge $-1 -1 $-1 $365 $235 $230 $368 forward $135 $-1 #
edge $499 -1 $-1 $376 -0.86600000000000021 $372 0.8660000000000001 $367 $500 forward @7 unknown #
coedge $-1 -1 $-1 $252 $232 $248 $384 forward $363 $-1 #
coedge $-1 -1 $-1 $232 $252 $365 $498 reversed $363 $-1 #
attrib_edge_convexity-kcp-attrib $-1 -1 $501 $-1 $233 2 #
vertex $-1 -1 $-1 $233 $502 #
vertex $-1 -1 $-1 $233 $503 #
straight-curve $-1 -1 $-1 1.4999559993546476 0 -1 0 1 0 I I #
edge $504 -1 $-1 $242 -0.86599999999999977 $376 0.86599999999999977 $234 $505 forward @7 unknown #
vertex $-1 -1 $-1 $375 $506 #
straight-curve $-1 -1 $-1 0 -1.732 -4 0 0 -1 I I #
convexity-sys-attrib $-1 -1 $-1 $237 $141 #
point $-1 -1 $-1 0 -1.732 -4 #
attrib_edge_convexity-kcp-attrib $-1 -1 $507 $-1 $241 2 #
straight-curve $-1 -1 $-1 -1.4999559993546476 -2.7755575615628914e-016 -1 2.564025461028075e-016 -1 0 I I #
point $-1 -1 $-1 -1.4999559993546474 -0.86600000000000033 -1 #
convexity-sys-attrib $-1 -1 $-1 $246 $148 #
edge $-1 -1 $-1 $373 -3 $255 0 $369 $508 forward @7 unknown #
attrib_edge_convexity-kcp-attrib $-1 -1 $509 $-1 $249 2 #
straight-curve $-1 -1 $-1 0.74997799967732381 1.2989999999999999 -1 -0.8660254037844386 0.5 0 I I #
attrib_edge_convexity-kcp-attrib $-1 -1 $510 $-1 $253 1 #
vertex $-1 -1 $-1 $258 $511 #
straight-curve $-1 -1 $-1 1.4999559993546476 0 -4 0 1 0 I I #
convexity-sys-attrib $-1 -1 $-1 $254 $157 #
point $-1 -1 $-1 1.4999559993546476 0.86599999999999999 -4 #
coedge $-1 -1 $-1 $392 $392 $257 $393 reversed $512 $-1 #
edge $513 -1 $-1 $514 0 $514 6.2831853071795862 $257 $515 forward @7 unknown #
attrib_edge_convexity-kcp-attrib $-1 -1 $516 $-1 $258 1 #
straight-curve $-1 -1 $-1 0.74997799967732393 -1.2989999999999999 -4 0.86602540378443871 0.5 0 I I #
model_id-kcp-attrib $-1 -1 $-1 $-1 $260 1 1021324010 1021324010 1822949377 12 #
face $517 -1 $-1 $-1 $518 $10 $-1 $519 forward single #
loop $-1 -1 $-1 $520 $521 $260 #
cone-surface $-1 -1 $-1 0 0 5 0 0 1 2 0 0 1 I I 0 1 2 forward I I I I #
plane-surface $-1 -1 $-1 0 1.732 -4 -0.50000000000000011 0.8660254037844386 0 0 0 1 forward_v I I I I #
coedge $-1 -1 $-1 $522 $523 $284 $423 forward $263 $-1 #
coedge $-1 -1 $-1 $524 $265 $523 $525 reversed $165 $-1 #
coedge $-1 -1 $-1 $265 $524 $266 $407 forward $165 $-1 #
coedge $-1 -1 $-1 $268 $284 $265 $405 reversed $177 $-1 #
edge $-1 -1 $-1 $408 -0.86599999999999988 $526 0.86599999999999999 $265 $527 forward @7 unknown #
coedge $-1 -1 $-1 $267 $266 $528 $529 reversed $103 $-1 #
edge $-1 -1 $-1 $530 0 $408 3 $403 $531 forward @7 unknown #
vertex $-1 -1 $-1 $407 $532 #
straight-curve $-1 -1 $-1 0.74997799967732393 -1.2989999999999999 -7 0.86602540378443871 0.5 0 I I #
coedge $-1 -1 $-1 $528 $274 $270 $411 forward $416 $-1 #
edge $533 -1 $-1 $277 -0.86599999999999977 $412 0.86599999999999977 $270 $534 forward @7 unknown #
vertex $-1 -1 $-1 $411 $535 #
straight-curve $-1 -1 $-1 0 -1.732 -4 0 0 -1 I I #
point $-1 -1 $-1 0 -1.732 -7 #
coedge $-1 -1 $-1 $274 $536 $279 $421 forward $416 $-1 #
loop $-1 -1 $-1 $-1 $415 $426 #
convexity-sys-attrib $-1 -1 $-1 $-1 $275 #
straight-curve $-1 -1 $-1 -1.4999559993546476 -3.310741467165009e-016 -4 2.564025461028075e-016 -1 0 I I #
point $-1 -1 $-1 -1.4999559993546474 -0.86600000000000033 -4 #
coedge $-1 -1 $-1 $280 $279 $522 $537 forward $281 $-1 #
edge $538 -1 $-1 $539 -0.8660000000000001 $282 0.8660000000000001 $279 $540 forward @7 unknown #
point $-1 -1 $-1 -1.4999559993546479 0.86599999999999977 -4 #
edge $-1 -1 $-1 $526 -0.86599999999999988 $424 0.8660000000000001 $401 $541 forward @7 unknown #
vertex $-1 -1 $-1 $537 $542 #
straight-curve $-1 -1 $-1 -0.74997799967732393 1.2989999999999999 -7 -0.8660254037844386 -0.50000000000000011 0 I I #
face $-1 -1 $-1 $-1 $416 $25 $-1 $543 forward single #
plane-surface $-1 -1 $-1 0 -8.9995351238554362e-017 -7 0 0 1 1 0 0 forward_v I I I I #
plane-surface $-1 -1 $-1 4 0 0 -1 0 0 0 0 1 forward_v I I I I #
coedge $-1 -1 $-1 $294 $292 $296 $433 reversed $182 $-1 #
edge $-1 -1 $-1 $307 -7 $435 7 $306 $544 forward @7 unknown #
vertex $-1 -1 $-1 $433 $545 #
straight-curve $-1 -1 $-1 -4 -4 0 0 0 -1 I I #
edge $-1 -1 $-1 $431 -4 $435 4 $429 $546 forward @7 unknown #
straight-curve $-1 -1 $-1 0 -4 -7 -1 0 0 I I #
vertex $-1 -1 $-1 $299 $547 #
straight-curve $-1 -1 $-1 0 4 -7 1 0 0 I I #
point $-1 -1 $-1 4 4 -7 #
point $-1 -1 $-1 4 -4 -7 #
straight-curve $-1 -1 $-1 -4 0 7 0 -1 0 I I #
point $-1 -1 $-1 -4 4 7 #
point $-1 -1 $-1 -4 -4 7 #
straight-curve $-1 -1 $-1 4 -4 0 0 0 -1 I I #
straight-curve $-1 -1 $-1 4 4 0 0 0 -1 I I #
convexity-sys-attrib $-1 -1 $-1 $-1 $318 #
vertex $-1 -1 $-1 $318 $548 #
ellipse-curve $-1 -1 $-1 -1.4996607218221374e-032 0 -3 0 0 -1 4 0 0 1 I I #
point $-1 -1 $-1 -4 4.898425415289509e-016 7 #
point $-1 -1 $-1 2 0 -3 #
face $-1 -1 $-1 $549 $550 $30 $-1 $551 reversed single #
plane-surface $-1 -1 $-1 0 4 0 0 -1 0 0 0 -1 forward_v I I I I #
coedge $-1 -1 $-1 $328 $461 $329 $456 forward $211 $-1 #
coedge $-1 -1 $-1 $552 $553 $328 $453 forward $554 $-1 #
edge $-1 -1 $-1 $463 -3.1415926535897931 $460 -1.5707963267948966 $452 $346 forward @7 unknown #
coedge $-1 -1 $-1 $330 $329 $555 $556 reversed $127 $-1 #
coedge $-1 -1 $-1 $557 $558 $559 $456 forward $560 $-1 #
edge $-1 -1 $-1 $561 -14 $460 0 $455 $562 forward @7 unknown #
coedge $-1 -1 $-1 $458 $331 $563 $477 forward $459 $-1 #
coedge $-1 -1 $-1 $331 $457 $557 $564 forward $459 $-1 #
loop $-1 -1 $-1 $-1 $331 $565 #
vertex $-1 -1 $-1 $566 $567 #
coedge $-1 -1 $-1 $451 $333 $568 $569 reversed $211 $-1 #
coedge $-1 -1 $-1 $570 $571 $572 $334 forward $550 $-1 #
vertex $-1 -1 $-1 $573 $574 #
straight-curve $-1 -1 $-1 -4 0 -7 0 0 -1 I I #
coedge $-1 -1 $-1 $575 $572 $336 $466 reversed $576 $-1 #
edge $-1 -1 $-1 $490 -4 $338 0 $465 $577 forward @7 unknown #
face $-1 -1 $-1 $482 $337 $30 $-1 $578 forward single #
edge $-1 -1 $-1 $338 0 $579 4 $571 $577 forward @7 unknown #
point $-1 -1 $-1 -4 0 7 #
coedge $-1 -1 $-1 $580 $340 $343 $475 reversed $326 $-1 #
coedge $-1 -1 $-1 $340 $580 $347 $479 reversed $326 $-1 #
coedge $-1 -1 $-1 $581 $563 $330 $341 reversed $582 $-1 #
straight-curve $-1 -1 $-1 4 0 -7 0 0 -1 I I #
coedge $-1 -1 $-1 $355 $583 $342 $359 reversed $489 $-1 #
edge $-1 -1 $-1 $492 -4 $345 0 $470 $584 forward @7 unknown #
face $-1 -1 $-1 $585 $344 $30 $-1 $586 reversed single #
edge $-1 -1 $-1 $345 0 $587 4 $563 $584 forward @7 unknown #
point $-1 -1 $-1 4 0 -7 #
edge $-1 -1 $-1 $350 0 $588 4 $471 $589 forward @7 unknown #
coedge $-1 -1 $-1 $583 $355 $348 $481 reversed $489 $-1 #
edge $-1 -1 $-1 $588 -4 $223 1.4996607218221374e-032 $480 $491 forward @7 unknown #
face $-1 -1 $-1 $590 $349 $30 $-1 $578 forward single #
point $-1 -1 $-1 4 0 7 #
coedge $-1 -1 $-1 $485 $351 $591 $573 forward $486 $-1 #
coedge $-1 -1 $-1 $351 $484 $353 $488 forward $486 $-1 #
loop $-1 -1 $-1 $-1 $351 $585 #
coedge $-1 -1 $-1 $354 $353 $575 $592 reversed $356 $-1 #
edge $-1 -1 $-1 $593 -4 $224 -1.4996607218221374e-032 $353 $493 forward @7 unknown #
loop $-1 -1 $-1 $-1 $355 $594 #
vertex $-1 -1 $-1 $357 $595 #
straight-curve $-1 -1 $-1 0 4 7 -1 0 0 I I #
vertex $-1 -1 $-1 $475 $596 #
straight-curve $-1 -1 $-1 0 4 -7 1 0 0 I I #
model_id-kcp-attrib $-1 -1 $-1 $-1 $362 1 1021324010 1021324010 1822949377 9 #
face $597 -1 $-1 $160 $598 $10 $-1 $599 forward single #
loop $-1 -1 $-1 $600 $601 $362 #
plane-surface $-1 -1 $-1 0 0 0 0 0 1 -1 0 0 forward_v I I I I #
edge $-1 -1 $-1 $372 -3 $388 0 $370 $602 forward @7 unknown #
attrib_edge_convexity-kcp-attrib $-1 -1 $603 $-1 $368 2 #
straight-curve $-1 -1 $-1 0.74997799967732381 -1.2989999999999999 -1 0.8660254037844386 0.5 0 I I #
convexity-sys-attrib $-1 -1 $-1 $371 $233 #
point $-1 -1 $-1 1.4999559993546476 -0.86599999999999999 -1 #
point $-1 -1 $-1 1.4999559993546476 0.86599999999999999 -1 #
attrib_edge_convexity-kcp-attrib $-1 -1 $604 $-1 $375 2 #
straight-curve $-1 -1 $-1 -0.7499779996773237 -1.2990000000000002 -1 0.86602540378443871 -0.49999999999999994 0 I I #
point $-1 -1 $-1 0 -1.732 -1 #
convexity-sys-attrib $-1 -1 $-1 $380 $241 #
straight-curve $-1 -1 $-1 1.4999559993546476 0.86599999999999999 -4 0 0 -1 I I #
convexity-sys-attrib $-1 -1 $-1 $385 $249 #
convexity-sys-attrib $-1 -1 $-1 $387 $253 #
point $-1 -1 $-1 1.4999559993546476 -0.86599999999999999 -4 #
loop $-1 -1 $-1 $-1 $392 $495 #
attrib_edge_convexity-kcp-attrib $-1 -1 $605 $-1 $393 1 #
vertex $-1 -1 $-1 $393 $606 #
ellipse-curve $-1 -1 $-1 0 0 -4 0 0 -1 4 0 0 1 I I #
convexity-sys-attrib $-1 -1 $-1 $394 $258 #
model_id-kcp-attrib $-1 -1 $-1 $-1 $397 1 1021324010 1021324010 1822949377 13 #
loop $-1 -1 $-1 $-1 $607 $397 #
plane-surface $-1 -1 $-1 0 0 10 0 0 1 1 0 0 forward_v I I I I #
loop $-1 -1 $-1 $-1 $608 $260 #
coedge $-1 -1 $-1 $521 $521 $609 $610 reversed $398 $-1 #
coedge $-1 -1 $-1 $611 $401 $420 $537 reversed $263 $-1 #
coedge $-1 -1 $-1 $401 $611 $402 $525 forward $263 $-1 #
coedge $-1 -1 $-1 $403 $402 $612 $613 reversed $165 $-1 #
edge $-1 -1 $-1 $614 0 $526 3 $523 $615 forward @7 unknown #
vertex $-1 -1 $-1 $525 $616 #
straight-curve $-1 -1 $-1 1.4999559993546476 0 -7 0 1 0 I I #
coedge $-1 -1 $-1 $612 $410 $406 $529 forward $416 $-1 #
edge $617 -1 $-1 $412 -0.8660000000000001 $530 0.86599999999999988 $406 $618 forward @7 unknown #
vertex $-1 -1 $-1 $529 $619 #
straight-curve $-1 -1 $-1 1.4999559993546476 -0.86599999999999988 -4 0 0 -1 I I #
point $-1 -1 $-1 1.4999559993546476 -0.86599999999999988 -7 #
convexity-sys-attrib $-1 -1 $-1 $-1 $411 #
straight-curve $-1 -1 $-1 -0.7499779996773237 -1.2990000000000002 -4 0.86602540378443871 -0.49999999999999994 0 I I #
point $-1 -1 $-1 0 -1.732 -4 #
coedge $-1 -1 $-1 $415 $612 $611 $620 forward $416 $-1 #
edge $-1 -1 $-1 $539 0 $424 3 $420 $621 forward @7 unknown #
convexity-sys-attrib $-1 -1 $-1 $-1 $421 #
vertex $-1 -1 $-1 $421 $622 #
straight-curve $-1 -1 $-1 -0.74997799967732393 1.2989999999999999 -4 -0.8660254037844386 -0.50000000000000011 0 I I #
straight-curve $-1 -1 $-1 0.74997799967732393 1.2989999999999999 -7 -0.86602540378443871 0.5 0 I I #
point $-1 -1 $-1 0 1.732 -7 #
plane-surface $-1 -1 $-1 0 -8.9995351238554362e-017 -4 0 0 1 1 0 0 forward_v I I I I #
straight-curve $-1 -1 $-1 -4 4 0 0 0 -1 I I #
point $-1 -1 $-1 -4 -4 -7 #
straight-curve $-1 -1 $-1 -4 0 -7 0 1 0 I I #
point $-1 -1 $-1 -4 4 -7 #
point $-1 -1 $-1 -4 4.898425415289509e-016 -3 #
face $-1 -1 $-1 $467 $623 $30 $-1 $578 forward single #
loop $-1 -1 $-1 $-1 $462 $449 #
plane-surface $-1 -1 $-1 -4 0 0 1 0 0 0 0 -1 forward_v I I I I #
coedge $-1 -1 $-1 $553 $452 $624 $566 forward $554 $-1 #
coedge $-1 -1 $-1 $452 $552 $570 $625 forward $554 $-1 #
loop $-1 -1 $-1 $-1 $452 $626 #
coedge $-1 -1 $-1 $627 $628 $454 $556 forward $629 $-1 #
edge $-1 -1 $-1 $350 0 $561 1.5707963267948966 $555 $339 forward @7 unknown #
coedge $-1 -1 $-1 $630 $455 $458 $564 reversed $560 $-1 #
coedge $-1 -1 $-1 $455 $630 $627 $631 reversed $560 $-1 #
coedge $-1 -1 $-1 $632 $624 $451 $456 reversed $633 $-1 #
loop $-1 -1 $-1 $-1 $455 $634 #
vertex $-1 -1 $-1 $631 $635 #
straight-curve $-1 -1 $-1 -1.4996607218221374e-032 -4 -7 0 0 -1 I I #
coedge $-1 -1 $-1 $472 $636 $457 $477 reversed $582 $-1 #
edge $-1 -1 $-1 $587 -4 $460 1.4996607218221374e-032 $557 $637 forward @7 unknown #
face $-1 -1 $-1 $476 $459 $30 $-1 $586 reversed single #
edge $-1 -1 $-1 $460 1.4996607218221374e-032 $638 4 $624 $637 forward @7 unknown #
point $-1 -1 $-1 -1.4996607218221374e-032 -4 -7 #
coedge $-1 -1 $-1 $639 $640 $461 $569 forward $623 $-1 #
edge $-1 -1 $-1 $561 1.5707963267948966 $338 3.1415926535897931 $568 $339 forward @7 unknown #
coedge $-1 -1 $-1 $641 $462 $553 $625 reversed $550 $-1 #
coedge $-1 -1 $-1 $462 $641 $639 $468 reversed $550 $-1 #
coedge $-1 -1 $-1 $465 $591 $213 $334 reversed $576 $-1 #
edge $-1 -1 $-1 $463 0 $593 4 $591 $642 forward @7 unknown #
point $-1 -1 $-1 -4 0 -7 #
coedge $-1 -1 $-1 $591 $465 $487 $592 forward $576 $-1 #
loop $-1 -1 $-1 $-1 $572 $643 #
straight-curve $-1 -1 $-1 -4 0 7 0 -1 0 I I #
plane-surface $-1 -1 $-1 0 0 7 0 0 1 1 0 0 forward_v I I I I #
vertex $-1 -1 $-1 $468 $644 #
coedge $-1 -1 $-1 $471 $470 $583 $645 reversed $326 $-1 #
coedge $-1 -1 $-1 $636 $472 $628 $646 reversed $582 $-1 #
loop $-1 -1 $-1 $-1 $472 $647 #
coedge $-1 -1 $-1 $474 $480 $580 $645 forward $489 $-1 #
straight-curve $-1 -1 $-1 4 0 -7 0 -1 0 I I #
face $-1 -1 $-1 $648 $486 $30 $-1 $586 reversed single #
plane-surface $-1 -1 $-1 0 0 -7 0 0 1 1 0 0 forward_v I I I I #
vertex $-1 -1 $-1 $649 $650 #
vertex $-1 -1 $-1 $479 $651 #
straight-curve $-1 -1 $-1 4 0 7 0 1 0 I I #
face $-1 -1 $-1 $634 $629 $30 $-1 $578 forward single #
coedge $-1 -1 $-1 $572 $575 $484 $573 reversed $576 $-1 #
edge $-1 -1 $-1 $490 -7 $593 7 $487 $652 forward @7 unknown #
vertex $-1 -1 $-1 $488 $653 #
face $-1 -1 $-1 $647 $489 $30 $-1 $450 reversed single #
point $-1 -1 $-1 -4 4 7 #
point $-1 -1 $-1 4 4 -7 #
model_id-kcp-attrib $-1 -1 $-1 $-1 $495 1 1021324010 1021324010 1822949377 10 #
loop $-1 -1 $-1 $512 $654 $495 #
cone-surface $-1 -1 $-1 0 0 -2 0 0 -1 4 0 0 1 I I 0 1 4 forward I I I I #
loop $-1 -1 $-1 $-1 $609 $362 #
coedge $-1 -1 $-1 $601 $601 $654 $655 forward $496 $-1 #
straight-curve $-1 -1 $-1 1.4999559993546476 -0.86599999999999999 -4 0 0 -1 I I #
convexity-sys-attrib $-1 -1 $-1 $499 $368 #
convexity-sys-attrib $-1 -1 $-1 $504 $375 #
convexity-sys-attrib $-1 -1 $-1 $513 $393 #
point $-1 -1 $-1 4 0 -4 #
coedge $-1 -1 $-1 $607 $607 $608 $656 forward $518 $-1 #
coedge $-1 -1 $-1 $608 $608 $607 $656 reversed $520 $-1 #
coedge $-1 -1 $-1 $609 $609 $521 $610 forward $600 $-1 #
edge $657 -1 $-1 $658 0 $658 6.2831853071795862 $521 $659 forward @7 unknown #
coedge $-1 -1 $-1 $523 $522 $536 $620 reversed $263 $-1 #
coedge $-1 -1 $-1 $536 $528 $524 $613 forward $416 $-1 #
edge $660 -1 $-1 $530 -0.86599999999999999 $614 0.86599999999999999 $524 $661 forward @7 unknown #
vertex $-1 -1 $-1 $613 $662 #
straight-curve $-1 -1 $-1 1.4999559993546476 0.86599999999999999 -4 0 0 -1 I I #
point $-1 -1 $-1 1.4999559993546476 0.86599999999999999 -7 #
convexity-sys-attrib $-1 -1 $-1 $-1 $529 #
straight-curve $-1 -1 $-1 0.74997799967732393 -1.2989999999999999 -4 0.86602540378443871 0.5 0 I I #
point $-1 -1 $-1 1.4999559993546476 -0.86599999999999999 -4 #
edge $663 -1 $-1 $614 -0.86599999999999988 $539 0.8660000000000001 $611 $664 forward @7 unknown #
straight-curve $-1 -1 $-1 0 1.732 -4 0 0 -1 I I #
point $-1 -1 $-1 0 1.732 -4 #
loop $-1 -1 $-1 $-1 $568 $549 #
coedge $-1 -1 $-1 $559 $665 $552 $566 reversed $633 $-1 #
edge $-1 -1 $-1 $638 -4 $463 0 $570 $642 forward @7 unknown #
face $-1 -1 $-1 $565 $554 $30 $-1 $586 reversed single #
coedge $-1 -1 $-1 $628 $555 $558 $631 forward $629 $-1 #
coedge $-1 -1 $-1 $555 $627 $581 $646 forward $629 $-1 #
loop $-1 -1 $-1 $-1 $555 $590 #
coedge $-1 -1 $-1 $558 $557 $636 $649 reversed $560 $-1 #
edge $-1 -1 $-1 $561 -1.4996607218221374e-032 $666 4 $558 $667 forward @7 unknown #
coedge $-1 -1 $-1 $665 $559 $640 $668 reversed $633 $-1 #
loop $-1 -1 $-1 $-1 $559 $648 #
face $-1 -1 $-1 $626 $560 $30 $-1 $669 reversed single #
point $-1 -1 $-1 -1.4996607218221374e-032 -4 7 #
coedge $-1 -1 $-1 $563 $581 $630 $649 forward $582 $-1 #
straight-curve $-1 -1 $-1 0 -4 -7 -1 0 0 I I #
vertex $-1 -1 $-1 $625 $670 #
coedge $-1 -1 $-1 $640 $568 $571 $468 forward $623 $-1 #
coedge $-1 -1 $-1 $568 $639 $632 $668 forward $623 $-1 #
coedge $-1 -1 $-1 $571 $570 $665 $671 reversed $550 $-1 #
straight-curve $-1 -1 $-1 -4 0 -7 0 1 0 I I #
face $-1 -1 $-1 $594 $576 $30 $-1 $551 reversed single #
point $-1 -1 $-1 -4 -4 7 #
edge $-1 -1 $-1 $588 -7 $492 7 $580 $672 forward @7 unknown #
edge $-1 -1 $-1 $666 -4 $350 0 $581 $589 forward @7 unknown #
face $-1 -1 $-1 $-1 $582 $30 $-1 $327 reversed single #
face $-1 -1 $-1 $643 $633 $30 $-1 $669 reversed single #
edge $-1 -1 $-1 $666 -7 $587 7 $636 $673 forward @7 unknown #
point $-1 -1 $-1 4 -4 -7 #
point $-1 -1 $-1 4 4 7 #
straight-curve $-1 -1 $-1 -4 4 0 0 0 -1 I I #
point $-1 -1 $-1 -4 4 -7 #
coedge $-1 -1 $-1 $654 $654 $601 $655 reversed $598 $-1 #
edge $674 -1 $-1 $675 0 $675 6.2831853071795862 $601 $676 forward @7 unknown #
edge $-1 -1 $-1 $677 0 $677 6.2831853071795862 $607 $678 forward @7 unknown #
attrib_edge_convexity-kcp-attrib $-1 -1 $679 $-1 $610 2 #
vertex $-1 -1 $-1 $610 $680 #
ellipse-curve $-1 -1 $-1 0 0 0 0 0 -1 2 0 0 1 I I #
convexity-sys-attrib $-1 -1 $-1 $-1 $613 #
straight-curve $-1 -1 $-1 1.4999559993546476 0 -4 0 1 0 I I #
point $-1 -1 $-1 1.4999559993546476 0.86599999999999999 -4 #
convexity-sys-attrib $-1 -1 $-1 $-1 $620 #
straight-curve $-1 -1 $-1 0.74997799967732393 1.2989999999999999 -4 -0.86602540378443871 0.5 0 I I #
coedge $-1 -1 $-1 $624 $632 $641 $671 forward $633 $-1 #
vertex $-1 -1 $-1 $646 $681 #
straight-curve $-1 -1 $-1 0 -4 7 1 0 0 I I #
edge $-1 -1 $-1 $579 -4 $561 -1.4996607218221374e-032 $632 $667 forward @7 unknown #
plane-surface $-1 -1 $-1 0 -4 0 0 1 0 0 0 1 forward_v I I I I #
point $-1 -1 $-1 -4 -4 -7 #
edge $-1 -1 $-1 $579 -7 $638 7 $641 $682 forward @7 unknown #
straight-curve $-1 -1 $-1 4 4 0 0 0 -1 I I #
straight-curve $-1 -1 $-1 4 -4 0 0 0 -1 I I #
attrib_edge_convexity-kcp-attrib $-1 -1 $683 $-1 $655 1 #
vertex $-1 -1 $-1 $655 $684 #
ellipse-curve $-1 -1 $-1 0 0 0 0 0 1 4 0 0 1 I I #
vertex $-1 -1 $-1 $656 $685 #
ellipse-curve $-1 -1 $-1 0 0 10 0 0 1 2 0 0 1 I I #
convexity-sys-attrib $-1 -1 $-1 $657 $610 #
point $-1 -1 $-1 2 0 0 #
point $-1 -1 $-1 4 -4 7 #
straight-curve $-1 -1 $-1 -4 -4 0 0 0 -1 I I #
convexity-sys-attrib $-1 -1 $-1 $674 $655 #
point $-1 -1 $-1 4 0 0 #
point $-1 -1 $-1 2 0 10 #
End-of-ACIS-data 