201 0 1 0           
7 Unknown 12 ACIS 2.1 SGI 24 Thu Feb  6 15:19:06 1997 
-1 9.9999999999999995e-07 1e-10 
body $1 $2 $-1 $3 #
display_attribute-st-attrib $-1 $4 $-1 $0 3 #
lump $-1 $-1 $5 $0 #
transform $-1 1 0 0 0 1 0 0 0 1 0 0 4 1 rotate no_reflect no_shear #
rgb_color-st-attrib $-1 $6 $1 $0 0 1 0 #
shell $-1 $-1 $-1 $7 $-1 $2 #
id_attribute-st-attrib $-1 $-1 $4 $0 462 #
face $-1 $8 $9 $5 $-1 $10 forward single #
face $-1 $11 $12 $5 $-1 $13 forward single #
loop $-1 $-1 $14 $7 #
plane-surface $-1 -1.5 0 -6.5 1 0 0 0 0 -1 forward_v I I I I #
face $-1 $15 $16 $5 $-1 $17 forward single #
loop $-1 $-1 $18 $8 #
plane-surface $-1 1.5 0 -6.5 -1 0 0 0 0 1 forward_v I I I I #
coedge $-1 $19 $20 $21 $22 1 $9 $-1 #
face $-1 $23 $24 $5 $-1 $17 forward single #
loop $-1 $-1 $25 $11 #
plane-surface $-1 0 -0.59999999999999998 -6.5 0 1 0 0 0 1 forward_v I I I I #
coedge $-1 $26 $27 $28 $29 1 $12 $-1 #
coedge $-1 $30 $14 $31 $32 1 $9 $-1 #
coedge $-1 $14 $30 $33 $34 0 $9 $-1 #
coedge $-1 $35 $36 $14 $22 0 $37 $-1 #
edge $-1 $38 $39 $21 $40 forward #
face $-1 $41 $42 $5 $-1 $43 forward single #
loop $-1 $-1 $44 $15 #
coedge $-1 $45 $46 $47 $48 1 $16 $-1 #
coedge $-1 $49 $18 $46 $50 1 $12 $-1 #
coedge $-1 $18 $49 $51 $52 0 $12 $-1 #
coedge $-1 $53 $47 $18 $29 0 $37 $-1 #
edge $-1 $54 $55 $28 $56 forward #
coedge $-1 $20 $19 $57 $58 0 $9 $-1 #
coedge $-1 $59 $60 $19 $32 0 $61 $-1 #
edge $-1 $62 $38 $31 $63 forward #
coedge $-1 $64 $44 $20 $34 1 $24 $-1 #
edge $-1 $65 $39 $20 $66 forward #
coedge $-1 $67 $21 $44 $68 0 $37 $-1 #
coedge $-1 $21 $69 $59 $70 0 $37 $-1 #
loop $-1 $-1 $36 $71 #
vertex $-1 $22 $72 #
vertex $-1 $68 $73 #
straight-curve $-1 -1.5 0 -7 0 -1 0 I I #
face $-1 $74 $61 $5 $-1 $43 forward single #
loop $-1 $-1 $75 $23 #
plane-surface $-1 0 0.59999999999999998 -6.5 0 -1 0 0 0 -1 forward_v I I I I #
coedge $-1 $33 $76 $35 $68 1 $24 $-1 #
coedge $-1 $77 $25 $78 $79 1 $16 $-1 #
coedge $-1 $25 $77 $26 $50 0 $16 $-1 #
coedge $-1 $28 $80 $25 $48 0 $37 $-1 #
edge $-1 $81 $54 $47 $82 forward #
coedge $-1 $27 $26 $83 $84 0 $12 $-1 #
edge $-1 $85 $54 $26 $86 forward #
coedge $-1 $87 $75 $27 $52 1 $42 $-1 #
edge $-1 $88 $55 $27 $89 forward #
coedge $-1 $90 $28 $75 $91 0 $37 $-1 #
vertex $-1 $48 $92 #
vertex $-1 $91 $93 #
straight-curve $-1 1.5 0 -7 0 1 0 I I #
coedge $-1 $94 $95 $30 $58 1 $96 $-1 #
edge $-1 $62 $65 $30 $97 forward #
coedge $-1 $98 $31 $36 $70 1 $61 $-1 #
coedge $-1 $31 $98 $94 $99 0 $61 $-1 #
loop $-1 $-1 $59 $41 #
vertex $-1 $99 $100 #
straight-curve $-1 -1.5 0.59999999999999998 -6.5 0 0 -1 I I #
coedge $-1 $76 $33 $95 $101 0 $24 $-1 #
vertex $-1 $58 $102 #
straight-curve $-1 -1.5 -0.59999999999999998 -6.5 0 0 -1 I I #
coedge $-1 $103 $35 $104 $105 0 $37 $-1 #
edge $-1 $39 $106 $35 $82 forward #
coedge $-1 $36 $107 $108 $109 0 $37 $-1 #
edge $-1 $110 $38 $36 $111 forward #
face $-1 $112 $113 $5 $-1 $114 forward single #
point $-1 -1.5 0.59999999999999998 -7 #
point $-1 -1.5 -0.59999999999999998 -7 #
face $-1 $71 $115 $5 $-1 $116 forward single #
coedge $-1 $51 $117 $53 $91 1 $42 $-1 #
coedge $-1 $44 $64 $118 $119 1 $24 $-1 #
coedge $-1 $46 $45 $120 $121 0 $16 $-1 #
coedge $-1 $122 $123 $45 $79 0 $124 $-1 #
edge $-1 $125 $81 $78 $126 forward #
coedge $-1 $47 $103 $122 $127 0 $37 $-1 #
vertex $-1 $79 $128 #
straight-curve $-1 0 -0.59999999999999998 -7 1 0 0 I I #
coedge $-1 $120 $129 $49 $84 1 $96 $-1 #
edge $-1 $85 $88 $49 $130 forward #
vertex $-1 $84 $131 #
straight-curve $-1 1.5 -0.59999999999999998 -6.5 0 0 -1 I I #
coedge $-1 $117 $51 $129 $132 0 $42 $-1 #
vertex $-1 $84 $133 #
straight-curve $-1 1.5 0.59999999999999998 -6.5 0 0 -1 I I #
coedge $-1 $107 $53 $134 $135 0 $37 $-1 #
edge $-1 $55 $136 $53 $111 forward #
point $-1 1.5 -0.59999999999999998 -7 #
point $-1 1.5 0.59999999999999998 -7 #
coedge $-1 $137 $57 $60 $99 1 $96 $-1 #
coedge $-1 $57 $138 $64 $101 1 $96 $-1 #
loop $-1 $-1 $137 $139 #
straight-curve $-1 -1.5 0 -5 0 -1 0 I I #
coedge $-1 $60 $59 $140 $141 1 $61 $-1 #
edge $-1 $142 $62 $60 $143 forward #
point $-1 -1.5 0.59999999999999998 -5 #
edge $-1 $65 $144 $64 $145 forward #
point $-1 -1.5 -0.59999999999999998 -5 #
coedge $-1 $80 $67 $146 $147 0 $37 $-1 #
coedge $-1 $118 $148 $67 $105 1 $115 $-1 #
edge $-1 $106 $149 $67 $150 forward #
vertex $-1 $105 $151 #
coedge $-1 $69 $90 $152 $153 0 $37 $-1 #
coedge $-1 $154 $140 $69 $109 1 $155 $-1 #
edge $-1 $156 $110 $69 $150 forward #
vertex $-1 $141 $157 #
straight-curve $-1 0 0.59999999999999998 -7 -1 0 0 I I #
face $-1 $158 $159 $5 $-1 $160 forward single #
loop $-1 $37 $161 $71 #
plane-surface $-1 0 0 -7 0 0 -1 1 0 0 forward_v I I I I #
loop $-1 $-1 $118 $74 #
plane-surface $-1 -0.59999999999999998 0 -6.5 1 0 0 0 0 -1 forward_v I I I I #
coedge $-1 $75 $87 $162 $163 1 $42 $-1 #
coedge $-1 $164 $104 $76 $119 0 $115 $-1 #
edge $-1 $106 $144 $118 $165 forward #
coedge $-1 $166 $83 $77 $121 1 $96 $-1 #
edge $-1 $125 $85 $77 $145 forward #
coedge $-1 $167 $78 $80 $127 1 $124 $-1 #
coedge $-1 $78 $167 $166 $168 0 $124 $-1 #
loop $-1 $-1 $78 $169 #
vertex $-1 $168 $170 #
straight-curve $-1 0.59999999999999998 -0.59999999999999998 -6.5 0 0 -1 I I #
edge $-1 $171 $81 $80 $172 forward #
point $-1 0.59999999999999998 -0.59999999999999998 -7 #
coedge $-1 $83 $173 $87 $132 1 $96 $-1 #
straight-curve $-1 1.5 0 -5 0 1 0 I I #
point $-1 1.5 -0.59999999999999998 -5 #
edge $-1 $88 $174 $87 $143 forward #
point $-1 1.5 0.59999999999999998 -5 #
coedge $-1 $162 $175 $90 $135 1 $159 $-1 #
edge $-1 $136 $176 $90 $172 forward #
vertex $-1 $135 $177 #
coedge $-1 $178 $94 $179 $180 1 $96 $-1 #
coedge $-1 $95 $181 $164 $182 1 $96 $-1 #
face $-1 $183 $96 $5 $-1 $184 reversed single #
coedge $-1 $108 $179 $98 $141 0 $155 $-1 #
edge $-1 $142 $110 $140 $185 forward #
vertex $-1 $180 $186 #
straight-curve $-1 0 0.59999999999999998 -5 -1 0 0 I I #
vertex $-1 $182 $187 #
straight-curve $-1 0 -0.59999999999999998 -5 1 0 0 I I #
coedge $-1 $188 $189 $103 $147 1 $190 $-1 #
edge $-1 $149 $171 $103 $191 forward #
coedge $-1 $104 $164 $188 $192 0 $115 $-1 #
vertex $-1 $147 $193 #
straight-curve $-1 -0.59999999999999998 0 -7 0 -1 0 I I #
point $-1 -0.59999999999999998 -0.59999999999999998 -7 #
coedge $-1 $194 $195 $107 $153 1 $196 $-1 #
edge $-1 $176 $156 $107 $197 forward #
coedge $-1 $179 $108 $195 $198 1 $155 $-1 #
loop $-1 $-1 $140 $199 #
vertex $-1 $109 $200 #
point $-1 -0.59999999999999998 0.59999999999999998 -7 #
face $-1 $199 $196 $5 $-1 $201 forward single #
loop $-1 $-1 $162 $112 #
plane-surface $-1 0.59999999999999998 0 -6.5 -1 0 0 0 0 1 forward_v I I I I #
coedge $-1 $161 $161 $202 $203 0 $113 $-1 #
coedge $-1 $204 $134 $117 $163 0 $159 $-1 #
edge $-1 $136 $174 $162 $205 forward #
coedge $-1 $148 $118 $138 $182 0 $115 $-1 #
straight-curve $-1 -0.59999999999999998 -0.59999999999999998 -6.5 0 0 1 I I #
coedge $-1 $181 $120 $123 $168 1 $96 $-1 #
coedge $-1 $123 $122 $189 $206 1 $124 $-1 #
edge $-1 $207 $125 $123 $208 forward #
face $-1 $209 $124 $5 $-1 $160 forward single #
point $-1 0.59999999999999998 -0.59999999999999998 -5 #
vertex $-1 $147 $210 #
straight-curve $-1 0.59999999999999998 0 -7 0 1 0 I I #
coedge $-1 $129 $178 $204 $211 1 $96 $-1 #
vertex $-1 $211 $212 #
coedge $-1 $134 $204 $194 $213 0 $159 $-1 #
vertex $-1 $153 $214 #
point $-1 0.59999999999999998 0.59999999999999998 -7 #
coedge $-1 $173 $137 $215 $216 1 $96 $-1 #
coedge $-1 $140 $154 $137 $180 0 $155 $-1 #
edge $-1 $217 $142 $179 $218 forward #
coedge $-1 $138 $166 $219 $220 1 $96 $-1 #
edge $-1 $144 $221 $164 $218 forward #
face $-1 $169 $190 $5 $-1 $222 forward single #
plane-surface $-1 0 0 -5 0 0 1 1 0 0 forward_v I I I I #
straight-curve $-1 -0.59999999999999998 0.59999999999999998 -6.5 0 0 -1 I I #
point $-1 -0.59999999999999998 0.59999999999999998 -5 #
point $-1 -0.59999999999999998 -0.59999999999999998 -5 #
coedge $-1 $219 $146 $148 $192 1 $190 $-1 #
coedge $-1 $146 $219 $167 $206 0 $190 $-1 #
loop $-1 $-1 $146 $183 #
straight-curve $-1 0 -1.5 -7 1 0 0 I I #
edge $-1 $221 $149 $148 $223 forward #
point $-1 -0.59999999999999998 -1.5 -7 #
coedge $-1 $215 $152 $175 $213 1 $196 $-1 #
coedge $-1 $152 $215 $154 $198 0 $196 $-1 #
loop $-1 $-1 $152 $158 #
straight-curve $-1 0 1.5 -7 -1 0 0 I I #
edge $-1 $217 $156 $195 $224 forward #
face $-1 $139 $155 $5 $-1 $116 forward single #
point $-1 -0.59999999999999998 1.5 -7 #
plane-surface $-1 0 1.5 -6.5 0 -1 0 0 0 -1 forward_v I I I I #
coedge $-1 $202 $202 $161 $203 1 $225 $-1 #
edge $-1 $226 $226 $161 $227 forward #
coedge $-1 $175 $162 $173 $211 0 $159 $-1 #
straight-curve $-1 0.59999999999999998 0.59999999999999998 -6.5 0 0 1 I I #
edge $-1 $207 $171 $167 $228 forward #
vertex $-1 $168 $229 #
straight-curve $-1 0.59999999999999998 0 -5 0 1 0 I I #
face $-1 $230 $231 $5 $-1 $232 forward single #
point $-1 0.59999999999999998 -1.5 -7 #
edge $-1 $174 $233 $204 $208 forward #
point $-1 0.59999999999999998 0.59999999999999998 -5 #
edge $-1 $233 $176 $175 $234 forward #
point $-1 0.59999999999999998 1.5 -7 #
coedge $-1 $195 $194 $178 $216 0 $196 $-1 #
edge $-1 $233 $217 $215 $235 forward #
vertex $-1 $216 $236 #
straight-curve $-1 -0.59999999999999998 0 -5 0 -1 0 I I #
coedge $-1 $189 $188 $181 $220 0 $190 $-1 #
edge $-1 $221 $207 $219 $237 forward #
vertex $-1 $182 $238 #
plane-surface $-1 0 -1.5 -6.5 0 1 0 0 0 1 forward_v I I I I #
straight-curve $-1 -0.59999999999999998 -1.5 -6.5 0 0 -1 I I #
straight-curve $-1 -0.59999999999999998 1.5 -6.5 0 0 -1 I I #
loop $-1 $-1 $202 $230 #
vertex $-1 $203 $239 #
ellipse-curve $-1 0 0 -7 0 0 -1 2 0 0 1 I I #
straight-curve $-1 0.59999999999999998 -1.5 -6.5 0 0 -1 I I #
point $-1 0.59999999999999998 -1.5 -5 #
face $-1 $240 $241 $5 $-1 $242 forward single #
loop $-1 $243 $244 $209 #
plane-surface $-1 0 0 -4 0 0 1 -1 0 0 forward_v I I I I #
vertex $-1 $211 $245 #
straight-curve $-1 0.59999999999999998 1.5 -6.5 0 0 -1 I I #
straight-curve $-1 0 1.5 -5 -1 0 0 I I #
point $-1 -0.59999999999999998 1.5 -5 #
straight-curve $-1 0 -1.5 -5 1 0 0 I I #
point $-1 -0.59999999999999998 -1.5 -5 #
point $-1 2 0 -7 #
face $-1 $246 $247 $5 $-1 $248 forward single #
loop $-1 $225 $249 $230 #
cone-surface $-1 0 0 -5.5 0 0 -1 2 0 0 1 I I 0 1 forward I I I I #
loop $-1 $-1 $250 $209 #
coedge $-1 $244 $244 $249 $251 0 $231 $-1 #
point $-1 0.59999999999999998 1.5 -5 #
face $-1 $-1 $252 $5 $-1 $253 forward single #
loop $-1 $254 $255 $240 #
cone-surface $-1 0 0 0 0 0 1 1 0 0 1 I I 0 1 forward I I I I #
coedge $-1 $249 $249 $244 $251 1 $241 $-1 #
coedge $-1 $250 $250 $255 $256 0 $243 $-1 #
edge $-1 $257 $257 $244 $258 forward #
loop $-1 $-1 $259 $246 #
plane-surface $-1 0 0 4 0 0 1 1 0 0 forward_v I I I I #
loop $-1 $-1 $260 $240 #
coedge $-1 $255 $255 $250 $256 1 $247 $-1 #
edge $-1 $261 $261 $255 $262 forward #
vertex $-1 $251 $263 #
ellipse-curve $-1 0 0 -4 0 0 1 2 0 0 1 I I #
coedge $-1 $259 $259 $260 $264 0 $252 $-1 #
coedge $-1 $260 $260 $259 $264 1 $254 $-1 #
vertex $-1 $256 $265 #
ellipse-curve $-1 0 0 -4 0 0 -1 1 0 0 1 I I #
point $-1 2 0 -4 #
edge $-1 $266 $266 $259 $267 forward #
point $-1 1 0 -4 #
vertex $-1 $264 $268 #
ellipse-curve $-1 0 0 4 0 0 1 1 0 0 1 I I #
point $-1 1 0 4 #
End-of-ACIS-data 