201 0 1 0           
7 Unknown 12 ACIS 2.1 SGI 24 Thu Feb  6 15:07:27 1997 
-1 9.9999999999999995e-07 1e-10 
body $1 $2 $-1 $3 #
display_attribute-st-attrib $-1 $4 $-1 $0 3 #
lump $-1 $-1 $5 $0 #
transform $-1 1 0 0 0 1 0 0 0 1 0 0 5 1 rotate no_reflect no_shear #
rgb_color-st-attrib $-1 $6 $1 $0 0 1 0 #
shell $-1 $-1 $-1 $7 $-1 $2 #
id_attribute-st-attrib $-1 $-1 $4 $0 451 #
face $-1 $8 $9 $5 $-1 $10 forward single #
face $-1 $11 $12 $5 $-1 $13 forward single #
loop $-1 $-1 $14 $7 #
plane-surface $-1 -0.74997799967732393 1.2989999999999999 -9 0.50000000000000011 -0.8660254037844386 0 0 0 -1 forward_v I I I I #
face $-1 $15 $16 $5 $-1 $17 forward single #
loop $-1 $-1 $18 $8 #
plane-surface $-1 -1.4999559993546476 -2.7755575615628914e-16 -9 1 2.564025461028075e-16 0 0 0 -1 forward_v I I I I #
coedge $-1 $19 $20 $21 $22 1 $9 $-1 #
face $-1 $23 $24 $5 $-1 $25 reversed single #
loop $-1 $-1 $26 $11 #
plane-surface $-1 -0.7499779996773237 -1.2990000000000002 -9 0.49999999999999994 0.86602540378443871 0 0 0 1 forward_v I I I I #
coedge $-1 $27 $28 $29 $30 1 $12 $-1 #
coedge $-1 $31 $14 $32 $33 1 $9 $-1 #
coedge $-1 $14 $31 $27 $34 0 $9 $-1 #
coedge $-1 $29 $35 $14 $22 0 $36 $-1 #
edge $-1 $37 $38 $21 $39 forward #
face $-1 $40 $41 $5 $-1 $42 forward single #
loop $-1 $-1 $43 $15 #
plane-surface $-1 0 0 -6 0 0 1 1 0 0 forward_v I I I I #
coedge $-1 $44 $45 $46 $47 1 $16 $-1 #
coedge $-1 $48 $18 $20 $34 1 $12 $-1 #
coedge $-1 $18 $48 $44 $49 0 $12 $-1 #
coedge $-1 $46 $21 $18 $30 0 $36 $-1 #
edge $-1 $38 $50 $29 $51 forward #
coedge $-1 $20 $19 $52 $53 0 $9 $-1 #
coedge $-1 $54 $55 $19 $33 0 $56 $-1 #
edge $-1 $57 $37 $32 $58 forward #
edge $-1 $59 $38 $20 $60 forward #
coedge $-1 $21 $61 $54 $62 0 $36 $-1 #
loop $-1 $63 $64 $65 #
vertex $-1 $22 $66 #
vertex $-1 $30 $67 #
straight-curve $-1 -0.74997799967732393 1.2989999999999999 -9 -0.8660254037844386 -0.50000000000000011 0 I I #
face $-1 $68 $56 $5 $-1 $69 forward single #
loop $-1 $-1 $70 $23 #
plane-surface $-1 0.74997799967732381 -1.2989999999999999 -9 -0.5 0.86602540378443871 0 0 0 1 forward_v I I I I #
coedge $-1 $71 $72 $73 $74 1 $24 $-1 #
coedge $-1 $75 $26 $28 $49 1 $16 $-1 #
coedge $-1 $26 $75 $76 $77 0 $16 $-1 #
coedge $-1 $64 $29 $26 $47 0 $36 $-1 #
edge $-1 $50 $78 $46 $79 forward #
coedge $-1 $28 $27 $80 $81 0 $12 $-1 #
edge $-1 $82 $50 $28 $83 forward #
vertex $-1 $47 $84 #
straight-curve $-1 -1.4999559993546476 -3.310741467165009e-16 -9 2.564025461028075e-16 -1 0 I I #
coedge $-1 $72 $80 $31 $53 1 $24 $-1 #
edge $-1 $57 $59 $31 $85 forward #
coedge $-1 $86 $32 $35 $62 1 $56 $-1 #
coedge $-1 $32 $86 $72 $87 0 $56 $-1 #
loop $-1 $-1 $54 $40 #
vertex $-1 $87 $88 #
straight-curve $-1 0 1.732 -9 0 0 -1 I I #
vertex $-1 $53 $89 #
straight-curve $-1 -1.4999559993546479 0.86599999999999977 -9 0 0 -1 I I #
coedge $-1 $35 $64 $90 $91 0 $36 $-1 #
edge $-1 $92 $37 $35 $93 forward #
loop $-1 $-1 $94 $65 #
coedge $-1 $61 $46 $70 $95 0 $36 $-1 #
face $-1 $96 $36 $5 $-1 $97 forward single #
point $-1 0 1.732 -9 #
point $-1 -1.4999559993546479 0.86599999999999977 -9 #
face $-1 $98 $99 $5 $-1 $100 forward single #
plane-surface $-1 0.74997799967732381 1.2989999999999999 -9 -0.5 -0.86602540378443871 0 0 0 1 forward_v I I I I #
coedge $-1 $76 $101 $64 $95 1 $41 $-1 #
coedge $-1 $102 $43 $103 $104 1 $24 $-1 #
coedge $-1 $43 $52 $55 $87 1 $24 $-1 #
coedge $-1 $105 $106 $43 $74 0 $99 $-1 #
edge $-1 $107 $108 $73 $109 forward #
coedge $-1 $45 $44 $102 $110 0 $16 $-1 #
coedge $-1 $103 $70 $45 $77 1 $41 $-1 #
edge $-1 $111 $78 $45 $112 forward #
vertex $-1 $95 $113 #
straight-curve $-1 -0.7499779996773237 -1.2990000000000002 -9 0.86602540378443871 -0.49999999999999994 0 I I #
coedge $-1 $52 $102 $48 $81 1 $24 $-1 #
edge $-1 $59 $82 $48 $114 forward #
vertex $-1 $81 $115 #
straight-curve $-1 -1.4999559993546474 -0.86600000000000033 -9 0 0 -1 I I #
point $-1 -1.4999559993546474 -0.86600000000000033 -9 #
straight-curve $-1 -0.74997799967732393 1.2989999999999999 -6 -0.8660254037844386 -0.50000000000000011 0 I I #
coedge $-1 $55 $54 $105 $116 1 $56 $-1 #
edge $-1 $108 $57 $55 $117 forward #
point $-1 0 1.732 -6 #
point $-1 -1.4999559993546479 0.86599999999999977 -6 #
coedge $-1 $106 $105 $61 $91 1 $99 $-1 #
edge $-1 $118 $92 $61 $119 forward #
vertex $-1 $62 $120 #
straight-curve $-1 0.74997799967732393 1.2989999999999999 -9 -0.86602540378443871 0.5 0 I I #
coedge $-1 $94 $94 $121 $122 0 $63 $-1 #
edge $-1 $78 $118 $64 $123 forward #
face $-1 $124 $125 $5 $-1 $126 forward single #
plane-surface $-1 0 0 -9 0 0 -1 1 0 0 forward_v I I I I #
face $-1 $127 $128 $5 $-1 $129 forward single #
loop $-1 $-1 $90 $68 #
plane-surface $-1 1.4999559993546476 0 -9 -1 0 0 0 0 1 forward_v I I I I #
coedge $-1 $70 $103 $106 $130 0 $41 $-1 #
coedge $-1 $80 $71 $75 $110 1 $24 $-1 #
coedge $-1 $101 $76 $71 $104 0 $41 $-1 #
edge $-1 $111 $107 $103 $131 forward #
coedge $-1 $90 $73 $86 $116 0 $99 $-1 #
coedge $-1 $73 $90 $101 $130 1 $99 $-1 #
vertex $-1 $74 $132 #
vertex $-1 $74 $133 #
straight-curve $-1 1.4999559993546476 0 -6 0 1 0 I I #
edge $-1 $82 $111 $75 $134 forward #
vertex $-1 $110 $135 #
straight-curve $-1 0 -1.732 -9 0 0 -1 I I #
point $-1 0 -1.732 -9 #
straight-curve $-1 -1.4999559993546476 -2.7755575615628914e-16 -6 2.564025461028075e-16 -1 0 I I #
point $-1 -1.4999559993546474 -0.86600000000000033 -6 #
edge $-1 $108 $92 $105 $136 forward #
straight-curve $-1 0.74997799967732381 1.2989999999999999 -6 -0.8660254037844386 0.5 0 I I #
vertex $-1 $95 $137 #
straight-curve $-1 1.4999559993546476 0 -9 0 1 0 I I #
point $-1 1.4999559993546476 0.86599999999999999 -9 #
coedge $-1 $121 $121 $94 $122 1 $138 $-1 #
edge $-1 $139 $139 $94 $140 forward #
straight-curve $-1 0.74997799967732393 -1.2989999999999999 -9 0.86602540378443871 0.5 0 I I #
face $-1 $-1 $141 $5 $-1 $142 forward single #
loop $-1 $143 $144 $96 #
cone-surface $-1 0 0 0 0 0 1 2 0 0 1 I I 0 1 forward I I I I #
face $-1 $65 $145 $5 $-1 $146 forward single #
loop $-1 $147 $148 $98 #
plane-surface $-1 0 0 -5 0 0 1 -1 0 0 forward_v I I I I #
edge $-1 $107 $118 $106 $149 forward #
straight-curve $-1 0.74997799967732381 -1.2989999999999999 -6 0.8660254037844386 0.5 0 I I #
point $-1 1.4999559993546476 -0.86599999999999999 -6 #
point $-1 1.4999559993546476 0.86599999999999999 -6 #
straight-curve $-1 -0.7499779996773237 -1.2990000000000002 -6 0.86602540378443871 -0.49999999999999994 0 I I #
point $-1 0 -1.732 -6 #
straight-curve $-1 1.4999559993546476 0.86599999999999999 -9 0 0 -1 I I #
point $-1 1.4999559993546476 -0.86599999999999999 -9 #
loop $-1 $-1 $121 $127 #
vertex $-1 $122 $150 #
ellipse-curve $-1 0 0 -9 0 0 -1 4 0 0 1 I I #
loop $-1 $-1 $151 $124 #
plane-surface $-1 0 0 5 0 0 1 1 0 0 forward_v I I I I #
loop $-1 $-1 $152 $96 #
coedge $-1 $144 $144 $153 $154 1 $125 $-1 #
loop $-1 $138 $155 $127 #
cone-surface $-1 0 0 -7 0 0 -1 4 0 0 1 I I 0 1 forward I I I I #
loop $-1 $-1 $153 $98 #
coedge $-1 $148 $148 $155 $156 0 $128 $-1 #
straight-curve $-1 1.4999559993546476 -0.86599999999999999 -9 0 0 -1 I I #
point $-1 4 0 -9 #
coedge $-1 $151 $151 $152 $157 0 $141 $-1 #
coedge $-1 $152 $152 $151 $157 1 $143 $-1 #
coedge $-1 $153 $153 $144 $154 0 $147 $-1 #
edge $-1 $158 $158 $144 $159 forward #
coedge $-1 $155 $155 $148 $156 1 $145 $-1 #
edge $-1 $160 $160 $148 $161 forward #
edge $-1 $162 $162 $151 $163 forward #
vertex $-1 $154 $164 #
ellipse-curve $-1 0 0 -5 0 0 -1 2 0 0 1 I I #
vertex $-1 $156 $165 #
ellipse-curve $-1 0 0 -5 0 0 1 4 0 0 1 I I #
vertex $-1 $157 $166 #
ellipse-curve $-1 0 0 5 0 0 1 2 0 0 1 I I #
point $-1 2 0 -5 #
point $-1 4 0 -5 #
point $-1 2 0 5 #
End-of-ACIS-data 