700 0 2 0           
24 FBMach with ACIS - 7.0.3 13 ACIS 7.0.3 NT 24 Mon May 13 17:06:52 2002 
1 9.9999999999999995e-007 1e-010 
body $2 -1 $-1 $3 $-1 $4 #
bdycol-kcp $-1 -1 1 4 $5 $6 $7 $8 #
model_id-kcp-attrib $-1 -1 $9 $-1 $0 1 1021324011 1021324011 -2134507519 1 #
lump $-1 -1 $-1 $-1 $10 $0 #
transform $-1 -1 1 0 0 0 1 0 0 0 1 0 0 0 1 rotate no_reflect no_shear #
body $11 -1 $-1 $12 $-1 $13 #
body $14 -1 $-1 $15 $-1 $16 #
body $17 -1 $-1 $18 $-1 $19 #
body $20 -1 $-1 $21 $-1 $22 #
rgb_color-st-attrib $-1 -1 $-1 $2 $0 0 1 0 #
shell $-1 -1 $-1 $-1 $-1 $23 $-1 $3 #
rgb_color-st-attrib $-1 -1 $24 $-1 $5 0.5 1 1 #
lump $-1 -1 $-1 $-1 $25 $5 #
transform $-1 -1 1 0 0 0 1 0 0 0 1 0 0 2.5 1 no_rotate no_reflect no_shear #
model_id-kcp-attrib $-1 -1 $-1 $-1 $6 1 1021324011 1021324011 -2134507518 1 #
lump $-1 -1 $-1 $-1 $26 $6 #
transform $-1 -1 1 0 0 0 1 0 0 0 1 0 0 2.5 1 no_rotate no_reflect no_shear #
model_id-kcp-attrib $-1 -1 $27 $-1 $7 1 1021324011 1021324012 -2143485948 1 #
lump $-1 -1 $-1 $-1 $28 $7 #
transform $-1 -1 1 0 0 0 1 0 0 0 1 0 0 2.5 1 no_rotate no_reflect no_shear #
model_id-kcp-attrib $-1 -1 $29 $-1 $8 1 1021324011 1021324012 -2136932347 1 #
lump $-1 -1 $-1 $-1 $30 $8 #
transform $-1 -1 1 0 0 0 1 0 0 0 1 0 0 2.5 1 no_rotate no_reflect no_shear #
face $31 -1 $-1 $32 $33 $10 $-1 $34 forward single #
model_id-kcp-attrib $-1 -1 $-1 $11 $5 1 1021324011 1021324011 -2146697213 1 #
shell $-1 -1 $-1 $-1 $-1 $35 $-1 $12 #
shell $-1 -1 $-1 $-1 $-1 $36 $-1 $15 #
rgb_color-st-attrib $-1 -1 $-1 $17 $7 0 0 1 #
shell $-1 -1 $-1 $-1 $-1 $37 $-1 $18 #
rgb_color-st-attrib $-1 -1 $-1 $20 $8 1 0.5 1 #
shell $-1 -1 $-1 $-1 $-1 $38 $-1 $21 #
model_id-kcp-attrib $-1 -1 $-1 $-1 $23 1 1021324011 1021324011 -2134507519 2 #
face $39 -1 $-1 $40 $41 $10 $-1 $42 forward single #
loop $-1 -1 $-1 $-1 $43 $23 #
plane-surface $-1 -1 $-1 -1.5 0 -2.5 1 0 0 0 0 -1 forward_v I I I I #
face $-1 -1 $-1 $44 $45 $25 $-1 $46 reversed single #
face $47 -1 $-1 $48 $49 $26 $-1 $50 forward single #
face $-1 -1 $-1 $51 $52 $28 $-1 $53 forward single #
face $-1 -1 $-1 $54 $55 $30 $-1 $56 forward single #
model_id-kcp-attrib $-1 -1 $-1 $-1 $32 1 1021324011 1021324011 -2134507519 3 #
face $57 -1 $-1 $58 $59 $10 $-1 $60 forward single #
loop $-1 -1 $-1 $-1 $61 $32 #
plane-surface $-1 -1 $-1 1.5 0 -2.5 -1 0 0 0 0 1 forward_v I I I I #
coedge $-1 -1 $-1 $62 $63 $64 $65 reversed $33 $-1 #
face $-1 -1 $-1 $66 $67 $25 $-1 $46 reversed single #
loop $-1 -1 $-1 $-1 $68 $35 #
cone-surface $-1 -1 $-1 -7.4983036091106872e-033 0 -5.5 0 0 -1 2 0 0 1 I I 0 1 2 forward I I I I #
model_id-kcp-attrib $-1 -1 $-1 $-1 $36 1 1021324011 1021324011 -2134507518 3 #
face $69 -1 $-1 $70 $71 $26 $-1 $72 reversed single #
loop $-1 -1 $-1 $-1 $73 $36 #
plane-surface $-1 -1 $-1 0 0 5.5 0 0 1 1 0 0 forward_v I I I I #
face $-1 -1 $-1 $74 $75 $28 $-1 $76 forward single #
loop $-1 -1 $-1 $-1 $77 $37 #
plane-surface $-1 -1 $-1 1.5 0.59999999999999998 -3.5 0 1 0 0 0 1 forward_v I I I I #
face $-1 -1 $-1 $78 $79 $30 $-1 $80 forward single #
loop $-1 -1 $-1 $81 $82 $38 #
cone-surface $-1 -1 $-1 0 0 -2.5 0 0 1 1 0 0 1 I I 0 -1 1 forward I I I I #
model_id-kcp-attrib $-1 -1 $-1 $-1 $40 1 1021324011 1021324011 -2134507519 4 #
face $83 -1 $-1 $84 $85 $10 $-1 $60 forward single #
loop $-1 -1 $-1 $-1 $86 $40 #
plane-surface $-1 -1 $-1 0 -0.59999999999999998 -2.5 0 1 0 0 0 1 forward_v I I I I #
coedge $-1 -1 $-1 $87 $88 $89 $90 reversed $41 $-1 #
coedge $-1 -1 $-1 $91 $43 $92 $93 reversed $33 $-1 #
coedge $-1 -1 $-1 $43 $91 $94 $95 forward $33 $-1 #
coedge $-1 -1 $-1 $96 $97 $43 $65 forward $98 $-1 #
edge $99 -1 $-1 $100 -0.59999999999999998 $101 0.59999999999999998 $64 $102 forward @7 unknown #
face $-1 -1 $-1 $103 $104 $25 $-1 $46 reversed single #
loop $-1 -1 $-1 $-1 $105 $44 #
coedge $-1 -1 $-1 $106 $107 $108 $109 forward $45 $-1 #
model_id-kcp-attrib $-1 -1 $-1 $-1 $48 1 1021324011 1021324011 -2134507518 2 #
face $-1 -1 $-1 $110 $111 $26 $-1 $112 reversed single #
loop $-1 -1 $-1 $-1 $113 $48 #
plane-surface $-1 -1 $-1 0 0 -5.5 0 0 1 1 0 0 forward_v I I I I #
coedge $-1 -1 $-1 $114 $115 $116 $117 forward $49 $-1 #
face $-1 -1 $-1 $118 $119 $28 $-1 $120 forward single #
loop $-1 -1 $-1 $-1 $121 $51 #
plane-surface $-1 -1 $-1 0.59999999999999998 0.59999999999999998 -3.5 1 0 0 0 0 -1 forward_v I I I I #
coedge $-1 -1 $-1 $122 $123 $124 $125 forward $52 $-1 #
face $-1 -1 $-1 $126 $127 $30 $-1 $128 forward single #
loop $-1 -1 $-1 $129 $130 $54 #
cone-surface $-1 -1 $-1 -7.4983036091106872e-033 0 -2.5 0 0 1 2 0 0 1 I I 0 1 2 forward I I I I #
loop $-1 -1 $-1 $-1 $131 $38 #
coedge $-1 -1 $-1 $82 $82 $132 $133 forward $55 $-1 #
model_id-kcp-attrib $-1 -1 $-1 $-1 $58 1 1021324011 1021324011 -2134507519 5 #
face $134 -1 $-1 $135 $136 $10 $-1 $137 forward single #
loop $-1 -1 $-1 $-1 $138 $58 #
coedge $-1 -1 $-1 $139 $140 $141 $142 reversed $59 $-1 #
coedge $-1 -1 $-1 $143 $61 $140 $144 reversed $41 $-1 #
coedge $-1 -1 $-1 $61 $143 $145 $146 forward $41 $-1 #
coedge $-1 -1 $-1 $147 $141 $61 $90 forward $98 $-1 #
edge $148 -1 $-1 $149 -0.59999999999999998 $150 0.59999999999999998 $89 $151 forward @7 unknown #
coedge $-1 -1 $-1 $63 $62 $152 $153 forward $33 $-1 #
coedge $-1 -1 $-1 $154 $155 $62 $93 forward $156 $-1 #
edge $-1 -1 $-1 $157 -1.5 $100 0.5 $92 $158 forward @7 unknown #
coedge $-1 -1 $-1 $159 $138 $63 $95 reversed $85 $-1 #
edge $-1 -1 $-1 $160 -1.5 $101 0.5 $63 $161 forward @7 unknown #
coedge $-1 -1 $-1 $162 $64 $138 $163 forward $98 $-1 #
coedge $-1 -1 $-1 $64 $164 $154 $165 forward $98 $-1 #
loop $-1 -1 $-1 $-1 $97 $166 #
attrib_edge_convexity-kcp-attrib $-1 -1 $167 $-1 $65 1 #
vertex $-1 -1 $-1 $65 $168 #
vertex $-1 -1 $-1 $163 $169 #
straight-curve $-1 -1 $-1 -1.5 0 -3 0 -1 0 I I #
face $-1 -1 $-1 $170 $171 $25 $-1 $46 reversed single #
loop $-1 -1 $-1 $-1 $172 $66 #
coedge $-1 -1 $-1 $173 $108 $174 $175 reversed $67 $-1 #
coedge $-1 -1 $-1 $176 $68 $177 $178 reversed $45 $-1 #
coedge $-1 -1 $-1 $68 $176 $179 $180 reversed $45 $-1 #
coedge $-1 -1 $-1 $105 $181 $182 $109 reversed $67 $-1 #
edge $-1 -1 $-1 $183 -11 $184 0 $182 $185 forward @7 unknown #
face $-1 -1 $-1 $186 $187 $26 $-1 $188 reversed single #
loop $-1 -1 $-1 $-1 $189 $70 #
plane-surface $-1 -1 $-1 0 -2 0 0 1 0 0 0 1 forward_v I I I I #
coedge $-1 -1 $-1 $190 $191 $192 $193 forward $71 $-1 #
coedge $-1 -1 $-1 $194 $73 $195 $196 forward $49 $-1 #
coedge $-1 -1 $-1 $73 $194 $197 $198 forward $49 $-1 #
coedge $-1 -1 $-1 $199 $200 $73 $117 reversed $201 $-1 #
edge $-1 -1 $-1 $202 -2 $203 2 $116 $204 forward @7 unknown #
face $-1 -1 $-1 $205 $206 $28 $-1 $207 forward single #
loop $-1 -1 $-1 $-1 $208 $74 #
plane-surface $-1 -1 $-1 0.59999999999999998 1.5 -3.5 0 1 0 0 0 1 forward_v I I I I #
coedge $-1 -1 $-1 $209 $210 $211 $212 forward $75 $-1 #
coedge $-1 -1 $-1 $213 $77 $210 $214 reversed $52 $-1 #
coedge $-1 -1 $-1 $77 $213 $215 $216 forward $52 $-1 #
coedge $-1 -1 $-1 $217 $211 $77 $125 reversed $218 $-1 #
edge $-1 -1 $-1 $219 -1.5 $220 -0.59999999999999998 $77 $221 forward @7 unknown #
face $-1 -1 $-1 $-1 $222 $30 $-1 $223 reversed single #
loop $-1 -1 $-1 $224 $225 $78 #
plane-surface $-1 -1 $-1 -0.090909090909090884 -8.8083212861625383e-018 5.5 0 0 1 1 0 0 forward_v I I I I #
loop $-1 -1 $-1 $-1 $226 $54 #
coedge $-1 -1 $-1 $130 $130 $225 $227 forward $79 $-1 #
coedge $-1 -1 $-1 $131 $131 $228 $229 reversed $81 $-1 #
coedge $-1 -1 $-1 $132 $132 $82 $133 reversed $224 $-1 #
edge $-1 -1 $-1 $230 0 $230 6.2831853071795862 $82 $231 forward @7 unknown #
model_id-kcp-attrib $-1 -1 $-1 $-1 $84 1 1021324011 1021324011 -2134507519 6 #
face $232 -1 $-1 $233 $156 $10 $-1 $137 forward single #
loop $-1 -1 $-1 $-1 $234 $84 #
plane-surface $-1 -1 $-1 0 0.59999999999999998 -2.5 0 -1 0 0 0 -1 forward_v I I I I #
coedge $-1 -1 $-1 $94 $235 $96 $163 reversed $85 $-1 #
coedge $-1 -1 $-1 $236 $86 $237 $238 reversed $59 $-1 #
coedge $-1 -1 $-1 $86 $236 $87 $144 forward $59 $-1 #
coedge $-1 -1 $-1 $89 $239 $86 $142 forward $98 $-1 #
edge $240 -1 $-1 $241 0.59999999999999998 $149 1.5 $141 $242 forward @7 unknown #
coedge $-1 -1 $-1 $88 $87 $243 $244 forward $41 $-1 #
edge $-1 -1 $-1 $245 -1.5 $149 0.5 $87 $246 forward @7 unknown #
coedge $-1 -1 $-1 $247 $234 $88 $146 reversed $136 $-1 #
edge $-1 -1 $-1 $248 -1.5 $150 0.5 $88 $249 forward @7 unknown #
coedge $-1 -1 $-1 $250 $89 $234 $251 forward $98 $-1 #
attrib_edge_convexity-kcp-attrib $-1 -1 $252 $-1 $90 1 #
vertex $-1 -1 $-1 $142 $253 #
vertex $-1 -1 $-1 $251 $254 #
straight-curve $-1 -1 $-1 1.5 0 -3 0 1 0 I I #
coedge $-1 -1 $-1 $255 $256 $91 $153 reversed $257 $-1 #
edge $258 -1 $-1 $157 -0.59999999999999998 $160 0.59999999999999998 $91 $259 forward @7 unknown #
coedge $-1 -1 $-1 $260 $92 $97 $165 reversed $156 $-1 #
coedge $-1 -1 $-1 $92 $260 $255 $261 forward $156 $-1 #
loop $-1 -1 $-1 $-1 $154 $135 #
vertex $-1 -1 $-1 $261 $262 #
straight-curve $-1 -1 $-1 -1.5 0.59999999999999998 -2.5 0 0 -1 I I #
coedge $-1 -1 $-1 $235 $94 $256 $263 forward $85 $-1 #
vertex $-1 -1 $-1 $153 $264 #
straight-curve $-1 -1 $-1 -1.5 -0.59999999999999998 -2.5 0 0 -1 I I #
coedge $-1 -1 $-1 $265 $96 $266 $267 forward $98 $-1 #
edge $268 -1 $-1 $101 -1.5 $269 -0.59999999999999998 $96 $242 forward @7 unknown #
coedge $-1 -1 $-1 $97 $270 $271 $272 forward $98 $-1 #
edge $273 -1 $-1 $274 0.59999999999999998 $100 1.5 $97 $275 forward @7 unknown #
face $276 -1 $-1 $277 $278 $10 $-1 $279 forward single #
convexity-sys-attrib $-1 -1 $-1 $99 $65 #
point $-1 -1 $-1 -1.5 0.59999999999999998 -3 #
point $-1 -1 $-1 -1.5 -0.59999999999999998 -3 #
face $-1 -1 $-1 $280 $281 $25 $-1 $282 reversed single #
loop $-1 -1 $-1 $-1 $283 $103 #
coedge $-1 -1 $-1 $284 $285 $286 $287 reversed $104 $-1 #
coedge $-1 -1 $-1 $181 $105 $288 $289 forward $67 $-1 #
coedge $-1 -1 $-1 $290 $291 $105 $175 forward $292 $-1 #
edge $-1 -1 $-1 $293 -3.1415926535897931 $183 -1.5707963267948966 $174 $294 forward @7 unknown #
coedge $-1 -1 $-1 $107 $106 $295 $296 reversed $45 $-1 #
coedge $-1 -1 $-1 $297 $298 $106 $178 forward $299 $-1 #
edge $-1 -1 $-1 $300 0 $184 1.5707963267948966 $177 $301 forward @7 unknown #
coedge $-1 -1 $-1 $302 $303 $107 $180 forward $304 $-1 #
edge $-1 -1 $-1 $183 -1.5707963267948966 $305 0 $179 $294 forward @7 unknown #
coedge $-1 -1 $-1 $108 $173 $306 $307 reversed $67 $-1 #
coedge $-1 -1 $-1 $308 $309 $310 $109 forward $311 $-1 #
vertex $-1 -1 $-1 $312 $313 #
vertex $-1 -1 $-1 $314 $315 #
straight-curve $-1 -1 $-1 -7.4983036091106872e-033 2 -5.5 0 0 -1 I I #
face $-1 -1 $-1 $316 $317 $26 $-1 $318 reversed single #
loop $-1 -1 $-1 $-1 $319 $110 #
plane-surface $-1 -1 $-1 -2 0 0 1 0 0 0 0 -1 forward_v I I I I #
coedge $-1 -1 $-1 $320 $197 $321 $322 forward $111 $-1 #
coedge $-1 -1 $-1 $323 $113 $320 $324 forward $71 $-1 #
coedge $-1 -1 $-1 $113 $323 $325 $326 forward $71 $-1 #
coedge $-1 -1 $-1 $200 $199 $113 $193 reversed $201 $-1 #
edge $-1 -1 $-1 $327 -2 $328 2 $192 $329 forward @7 unknown #
coedge $-1 -1 $-1 $115 $114 $330 $331 forward $49 $-1 #
coedge $-1 -1 $-1 $332 $333 $114 $196 reversed $317 $-1 #
edge $-1 -1 $-1 $203 -2 $334 2 $195 $335 forward @7 unknown #
coedge $-1 -1 $-1 $189 $336 $115 $198 reversed $111 $-1 #
edge $-1 -1 $-1 $337 -2 $202 2 $197 $338 forward @7 unknown #
coedge $-1 -1 $-1 $192 $116 $336 $339 forward $201 $-1 #
coedge $-1 -1 $-1 $116 $192 $332 $340 reversed $201 $-1 #
loop $-1 -1 $-1 $-1 $199 $316 #
vertex $-1 -1 $-1 $117 $341 #
vertex $-1 -1 $-1 $117 $342 #
straight-curve $-1 -1 $-1 2 0 5.5 0 1 0 I I #
face $-1 -1 $-1 $343 $344 $28 $-1 $345 forward single #
loop $-1 -1 $-1 $-1 $346 $118 #
plane-surface $-1 -1 $-1 -0.60000000000000009 1.5 -3.5 -1 0 0 0 0 1 forward_v I I I I #
coedge $-1 -1 $-1 $347 $348 $349 $350 forward $119 $-1 #
coedge $-1 -1 $-1 $351 $121 $348 $352 reversed $75 $-1 #
coedge $-1 -1 $-1 $121 $351 $122 $214 forward $75 $-1 #
coedge $-1 -1 $-1 $124 $349 $121 $212 reversed $218 $-1 #
edge $-1 -1 $-1 $220 0.59999999999999998 $353 1.5 $121 $354 forward @7 unknown #
coedge $-1 -1 $-1 $123 $122 $355 $356 reversed $52 $-1 #
edge $357 -1 $-1 $358 0 $220 2 $210 $359 forward @7 unknown #
coedge $-1 -1 $-1 $360 $361 $123 $216 reversed $362 $-1 #
edge $-1 -1 $-1 $363 0 $219 2 $123 $364 forward @7 unknown #
coedge $-1 -1 $-1 $365 $124 $361 $366 reversed $218 $-1 #
loop $-1 -1 $-1 $-1 $124 $367 #
vertex $-1 -1 $-1 $216 $368 #
vertex $-1 -1 $-1 $214 $369 #
straight-curve $-1 -1 $-1 0 0.59999999999999998 -5.5 -1 0 0 I I #
loop $-1 -1 $-1 $370 $371 $126 #
plane-surface $-1 -1 $-1 -0.090909090909090884 -8.8083212861625383e-018 -2.5 0 0 1 1 0 0 forward_v I I I I #
loop $-1 -1 $-1 $-1 $132 $78 #
coedge $-1 -1 $-1 $225 $225 $130 $227 reversed $127 $-1 #
coedge $-1 -1 $-1 $226 $226 $371 $372 reversed $129 $-1 #
edge $-1 -1 $-1 $373 -3.1415926535897931 $373 3.1415926535897931 $130 $374 forward @7 unknown #
coedge $-1 -1 $-1 $228 $228 $131 $229 forward $370 $-1 #
edge $375 -1 $-1 $376 0 $376 6.2831853071795862 $131 $377 forward @7 unknown #
vertex $-1 -1 $-1 $133 $378 #
ellipse-curve $-1 -1 $-1 0 0 5.5 0 0 1 1 0 0 1 I I #
model_id-kcp-attrib $-1 -1 $-1 $-1 $135 1 1021324011 1021324011 -2134507519 7 #
face $379 -1 $-1 $166 $380 $10 $-1 $381 forward single #
coedge $-1 -1 $-1 $145 $382 $147 $251 reversed $136 $-1 #
coedge $-1 -1 $-1 $138 $159 $383 $384 reversed $85 $-1 #
coedge $-1 -1 $-1 $140 $139 $385 $386 forward $59 $-1 #
coedge $-1 -1 $-1 $387 $388 $139 $238 forward $389 $-1 #
edge $-1 -1 $-1 $390 -1.5 $241 0.5 $237 $391 forward @7 unknown #
coedge $-1 -1 $-1 $141 $265 $387 $392 forward $98 $-1 #
attrib_edge_convexity-kcp-attrib $-1 -1 $393 $-1 $142 1 #
vertex $-1 -1 $-1 $238 $394 #
straight-curve $-1 -1 $-1 0 -0.59999999999999998 -3 1 0 0 I I #
coedge $-1 -1 $-1 $385 $395 $143 $244 reversed $257 $-1 #
edge $396 -1 $-1 $245 -0.59999999999999998 $248 0.59999999999999998 $143 $397 forward @7 unknown #
vertex $-1 -1 $-1 $244 $398 #
straight-curve $-1 -1 $-1 1.5 -0.59999999999999998 -2.5 0 0 -1 I I #
coedge $-1 -1 $-1 $382 $145 $395 $399 forward $136 $-1 #
vertex $-1 -1 $-1 $244 $400 #
straight-curve $-1 -1 $-1 1.5 0.59999999999999998 -2.5 0 0 -1 I I #
coedge $-1 -1 $-1 $270 $147 $401 $402 forward $98 $-1 #
edge $403 -1 $-1 $150 -1.5 $404 -0.59999999999999998 $147 $275 forward @7 unknown #
convexity-sys-attrib $-1 -1 $-1 $148 $90 #
point $-1 -1 $-1 1.5 -0.59999999999999998 -3 #
point $-1 -1 $-1 1.5 0.59999999999999998 -3 #
coedge $-1 -1 $-1 $405 $152 $155 $261 reversed $257 $-1 #
coedge $-1 -1 $-1 $152 $406 $159 $263 reversed $257 $-1 #
loop $-1 -1 $-1 $-1 $405 $407 #
attrib_edge_convexity-kcp-attrib $-1 -1 $408 $-1 $153 2 #
straight-curve $-1 -1 $-1 -1.5 0 -1 0 -1 0 I I #
coedge $-1 -1 $-1 $155 $154 $409 $410 reversed $156 $-1 #
edge $411 -1 $-1 $412 0.59999999999999998 $157 1.5 $155 $413 forward @7 unknown #
point $-1 -1 $-1 -1.5 0.59999999999999998 -1 #
edge $414 -1 $-1 $160 -1.5 $415 -0.59999999999999998 $159 $416 forward @7 unknown #
point $-1 -1 $-1 -1.5 -0.59999999999999998 -1 #
coedge $-1 -1 $-1 $239 $162 $417 $418 forward $98 $-1 #
coedge $-1 -1 $-1 $383 $419 $162 $267 reversed $380 $-1 #
edge $420 -1 $-1 $269 0.59999999999999998 $421 1.5 $162 $422 forward @7 unknown #
attrib_edge_convexity-kcp-attrib $-1 -1 $423 $-1 $163 1 #
vertex $-1 -1 $-1 $267 $424 #
coedge $-1 -1 $-1 $164 $250 $425 $426 forward $98 $-1 #
coedge $-1 -1 $-1 $427 $409 $164 $272 reversed $428 $-1 #
edge $429 -1 $-1 $430 -1.5 $274 -0.59999999999999998 $164 $422 forward @7 unknown #
attrib_edge_convexity-kcp-attrib $-1 -1 $431 $-1 $165 1 #
vertex $-1 -1 $-1 $410 $432 #
straight-curve $-1 -1 $-1 0 0.59999999999999998 -3 -1 0 0 I I #
model_id-kcp-attrib $-1 -1 $-1 $-1 $166 1 1021324011 1021324011 -2134507519 9 #
face $433 -1 $-1 $434 $435 $10 $-1 $436 forward single #
loop $-1 -1 $-1 $98 $437 $166 #
plane-surface $-1 -1 $-1 0 0 -3 0 0 -1 1 0 0 forward_v I I I I #
face $-1 -1 $-1 $438 $311 $25 $-1 $439 reversed single #
loop $-1 -1 $-1 $-1 $295 $170 #
plane-surface $-1 -1 $-1 2 0 0 -1 0 0 0 0 1 forward_v I I I I #
coedge $-1 -1 $-1 $288 $440 $441 $442 reversed $171 $-1 #
coedge $-1 -1 $-1 $443 $172 $444 $445 reversed $104 $-1 #
coedge $-1 -1 $-1 $172 $443 $176 $296 forward $104 $-1 #
coedge $-1 -1 $-1 $446 $447 $172 $287 forward $448 $-1 #
edge $-1 -1 $-1 $449 -1.5707963267948966 $300 0 $286 $301 forward @7 unknown #
coedge $-1 -1 $-1 $450 $283 $451 $289 reversed $171 $-1 #
edge $-1 -1 $-1 $293 -11 $452 0 $451 $453 forward @7 unknown #
coedge $-1 -1 $-1 $291 $174 $309 $312 forward $292 $-1 #
coedge $-1 -1 $-1 $174 $290 $454 $455 forward $292 $-1 #
loop $-1 -1 $-1 $-1 $174 $456 #
vertex $-1 -1 $-1 $457 $458 #
ellipse-curve $-1 -1 $-1 -7.4983036091106872e-033 0 5.5 0 0 -1 2 0 0 1 I I #
coedge $-1 -1 $-1 $459 $460 $461 $296 forward $281 $-1 #
edge $-1 -1 $-1 $305 -11 $300 0 $295 $462 forward @7 unknown #
coedge $-1 -1 $-1 $298 $177 $463 $314 forward $299 $-1 #
coedge $-1 -1 $-1 $177 $297 $459 $464 forward $299 $-1 #
loop $-1 -1 $-1 $-1 $177 $465 #
vertex $-1 -1 $-1 $466 $467 #
ellipse-curve $-1 -1 $-1 -7.4983036091106872e-033 0 -5.5 0 0 1 2 0 0 1 I I #
coedge $-1 -1 $-1 $303 $179 $460 $468 forward $304 $-1 #
coedge $-1 -1 $-1 $179 $302 $469 $470 forward $304 $-1 #
loop $-1 -1 $-1 $-1 $179 $471 #
vertex $-1 -1 $-1 $468 $472 #
coedge $-1 -1 $-1 $473 $474 $181 $307 forward $475 $-1 #
edge $-1 -1 $-1 $184 1.5707963267948966 $452 3.1415926535897931 $306 $301 forward @7 unknown #
coedge $-1 -1 $-1 $476 $182 $474 $477 reversed $311 $-1 #
coedge $-1 -1 $-1 $182 $476 $290 $312 reversed $311 $-1 #
coedge $-1 -1 $-1 $469 $463 $68 $109 reversed $478 $-1 #
loop $-1 -1 $-1 $-1 $182 $280 #
edge $-1 -1 $-1 $183 7.4983036091106872e-033 $479 2 $309 $480 forward @7 unknown #
point $-1 -1 $-1 -7.4983036091106872e-033 2 5.5 #
edge $-1 -1 $-1 $184 -7.4983036091106872e-033 $481 2 $463 $482 forward @7 unknown #
point $-1 -1 $-1 -7.4983036091106872e-033 2 -5.5 #
face $-1 -1 $-1 $-1 $201 $26 $-1 $483 reversed single #
loop $-1 -1 $-1 $-1 $332 $186 #
plane-surface $-1 -1 $-1 0 2 0 0 -1 0 0 0 -1 forward_v I I I I #
coedge $-1 -1 $-1 $484 $330 $333 $485 forward $187 $-1 #
coedge $-1 -1 $-1 $336 $189 $190 $324 reversed $111 $-1 #
coedge $-1 -1 $-1 $330 $484 $189 $322 reversed $187 $-1 #
edge $-1 -1 $-1 $337 -5.5 $486 5.5 $321 $487 forward @7 unknown #
coedge $-1 -1 $-1 $191 $190 $484 $488 forward $71 $-1 #
edge $-1 -1 $-1 $328 -2 $486 2 $320 $489 forward @7 unknown #
coedge $-1 -1 $-1 $333 $332 $191 $326 reversed $317 $-1 #
edge $-1 -1 $-1 $490 -2 $327 2 $325 $491 forward @7 unknown #
vertex $-1 -1 $-1 $193 $492 #
vertex $-1 -1 $-1 $339 $493 #
straight-curve $-1 -1 $-1 2 0 -5.5 0 -1 0 I I #
coedge $-1 -1 $-1 $319 $321 $194 $331 reversed $187 $-1 #
edge $-1 -1 $-1 $334 -2 $337 2 $330 $494 forward @7 unknown #
coedge $-1 -1 $-1 $325 $195 $200 $340 forward $317 $-1 #
coedge $-1 -1 $-1 $195 $325 $319 $485 reversed $317 $-1 #
vertex $-1 -1 $-1 $196 $495 #
straight-curve $-1 -1 $-1 0 2 5.5 -1 0 0 I I #
coedge $-1 -1 $-1 $197 $320 $199 $339 reversed $111 $-1 #
vertex $-1 -1 $-1 $331 $496 #
straight-curve $-1 -1 $-1 0 -2 5.5 1 0 0 I I #
edge $-1 -1 $-1 $202 -5.5 $328 5.5 $199 $497 forward @7 unknown #
edge $-1 -1 $-1 $203 -5.5 $327 5.5 $200 $498 forward @7 unknown #
point $-1 -1 $-1 2 -2 5.5 #
point $-1 -1 $-1 2 2 5.5 #
face $-1 -1 $-1 $499 $500 $28 $-1 $501 forward single #
loop $-1 -1 $-1 $-1 $502 $205 #
plane-surface $-1 -1 $-1 -0.60000000000000009 0.59999999999999998 -3.5 0 1 0 0 0 1 forward_v I I I I #
coedge $-1 -1 $-1 $503 $504 $505 $506 forward $206 $-1 #
coedge $-1 -1 $-1 $507 $208 $504 $508 reversed $119 $-1 #
coedge $-1 -1 $-1 $208 $507 $209 $352 forward $119 $-1 #
coedge $-1 -1 $-1 $211 $505 $208 $350 reversed $218 $-1 #
edge $-1 -1 $-1 $353 -0.59999999999999998 $509 0.60000000000000009 $208 $510 forward @7 unknown #
coedge $-1 -1 $-1 $210 $209 $511 $512 reversed $75 $-1 #
edge $-1 -1 $-1 $513 0 $353 2 $348 $514 forward @7 unknown #
vertex $-1 -1 $-1 $352 $515 #
straight-curve $-1 -1 $-1 0.59999999999999998 0 -5.5 0 1 0 I I #
coedge $-1 -1 $-1 $511 $516 $213 $356 forward $517 $-1 #
edge $518 -1 $-1 $363 -1.5 $358 -0.59999999999999998 $213 $519 forward @7 unknown #
convexity-sys-attrib $-1 -1 $-1 $-1 $214 #
vertex $-1 -1 $-1 $356 $520 #
straight-curve $-1 -1 $-1 0.59999999999999998 0.59999999999999998 -3.5 0 0 -1 I I #
coedge $-1 -1 $-1 $521 $215 $516 $522 reversed $362 $-1 #
coedge $-1 -1 $-1 $215 $521 $217 $366 forward $362 $-1 #
loop $-1 -1 $-1 $-1 $361 $523 #
vertex $-1 -1 $-1 $522 $524 #
straight-curve $-1 -1 $-1 1.5 0.59999999999999998 -3.5 0 0 -1 I I #
coedge $-1 -1 $-1 $525 $217 $526 $527 reversed $218 $-1 #
edge $-1 -1 $-1 $528 -0.59999999999999998 $219 0.59999999999999998 $361 $529 forward @7 unknown #
face $-1 -1 $-1 $530 $218 $28 $-1 $531 reversed single #
point $-1 -1 $-1 1.5 0.59999999999999998 -5.5 #
point $-1 -1 $-1 0.59999999999999998 0.59999999999999998 -5.5 #
loop $-1 -1 $-1 $-1 $228 $126 #
coedge $-1 -1 $-1 $371 $371 $226 $372 forward $222 $-1 #
edge $532 -1 $-1 $533 -3.1415926535897931 $533 3.1415926535897931 $226 $534 forward @7 unknown #
vertex $-1 -1 $-1 $227 $535 #
ellipse-curve $-1 -1 $-1 -7.4983036091106872e-033 0 5.5 0 0 -1 2 0 0 1 I I #
convexity-sys-attrib $-1 -1 $-1 $-1 $229 #
vertex $-1 -1 $-1 $229 $536 #
ellipse-curve $-1 -1 $-1 0 0 -2.5 0 0 1 1 0 0 1 I I #
point $-1 -1 $-1 1 0 5.5 #
model_id-kcp-attrib $-1 -1 $-1 $-1 $233 1 1021324011 1021324011 -2134507519 8 #
loop $-1 -1 $-1 $-1 $383 $233 #
plane-surface $-1 -1 $-1 -0.59999999999999998 0 -2.5 1 0 0 0 0 -1 forward_v I I I I #
coedge $-1 -1 $-1 $234 $247 $537 $538 reversed $136 $-1 #
coedge $-1 -1 $-1 $539 $266 $235 $384 forward $380 $-1 #
edge $-1 -1 $-1 $269 -0.5 $415 1.5 $383 $540 forward @7 unknown #
coedge $-1 -1 $-1 $541 $243 $236 $386 reversed $257 $-1 #
edge $542 -1 $-1 $390 0.59999999999999998 $245 1.5 $236 $416 forward @7 unknown #
coedge $-1 -1 $-1 $543 $237 $239 $392 reversed $389 $-1 #
coedge $-1 -1 $-1 $237 $543 $541 $544 forward $389 $-1 #
loop $-1 -1 $-1 $-1 $237 $545 #
vertex $-1 -1 $-1 $544 $546 #
straight-curve $-1 -1 $-1 0.59999999999999998 -0.59999999999999998 -2.5 0 0 -1 I I #
edge $547 -1 $-1 $548 -1.5 $241 -0.59999999999999998 $239 $549 forward @7 unknown #
convexity-sys-attrib $-1 -1 $-1 $240 $142 #
point $-1 -1 $-1 0.59999999999999998 -0.59999999999999998 -3 #
coedge $-1 -1 $-1 $243 $550 $247 $399 reversed $257 $-1 #
attrib_edge_convexity-kcp-attrib $-1 -1 $551 $-1 $244 2 #
straight-curve $-1 -1 $-1 1.5 0 -1 0 1 0 I I #
point $-1 -1 $-1 1.5 -0.59999999999999998 -1 #
edge $552 -1 $-1 $248 -1.5 $553 -0.59999999999999998 $247 $413 forward @7 unknown #
point $-1 -1 $-1 1.5 0.59999999999999998 -1 #
coedge $-1 -1 $-1 $537 $554 $250 $402 reversed $435 $-1 #
edge $555 -1 $-1 $404 0.59999999999999998 $556 1.5 $250 $549 forward @7 unknown #
attrib_edge_convexity-kcp-attrib $-1 -1 $557 $-1 $251 1 #
vertex $-1 -1 $-1 $402 $558 #
coedge $-1 -1 $-1 $559 $255 $560 $561 reversed $257 $-1 #
coedge $-1 -1 $-1 $256 $562 $539 $563 reversed $257 $-1 #
face $564 -1 $-1 $565 $257 $10 $-1 $566 reversed single #
convexity-sys-attrib $-1 -1 $-1 $258 $153 #
coedge $-1 -1 $-1 $271 $560 $260 $410 forward $428 $-1 #
edge $-1 -1 $-1 $412 -1.5 $274 0.5 $409 $567 forward @7 unknown #
attrib_edge_convexity-kcp-attrib $-1 -1 $568 $-1 $261 2 #
vertex $-1 -1 $-1 $561 $569 #
straight-curve $-1 -1 $-1 0 0.59999999999999998 -1 -1 0 0 I I #
attrib_edge_convexity-kcp-attrib $-1 -1 $570 $-1 $263 2 #
vertex $-1 -1 $-1 $563 $571 #
straight-curve $-1 -1 $-1 0 -0.59999999999999998 -1 1 0 0 I I #
coedge $-1 -1 $-1 $572 $573 $265 $418 reversed $574 $-1 #
edge $575 -1 $-1 $421 -0.59999999999999998 $548 0.59999999999999998 $265 $576 forward @7 unknown #
coedge $-1 -1 $-1 $266 $539 $572 $577 forward $380 $-1 #
attrib_edge_convexity-kcp-attrib $-1 -1 $578 $-1 $267 1 #
vertex $-1 -1 $-1 $418 $579 #
straight-curve $-1 -1 $-1 -0.59999999999999998 0 -3 0 -1 0 I I #
convexity-sys-attrib $-1 -1 $-1 $268 $163 #
point $-1 -1 $-1 -0.59999999999999998 -0.59999999999999998 -3 #
coedge $-1 -1 $-1 $580 $581 $270 $426 reversed $582 $-1 #
edge $583 -1 $-1 $556 -0.59999999999999998 $430 0.59999999999999998 $270 $584 forward @7 unknown #
coedge $-1 -1 $-1 $560 $271 $581 $585 reversed $428 $-1 #
loop $-1 -1 $-1 $-1 $409 $586 #
attrib_edge_convexity-kcp-attrib $-1 -1 $587 $-1 $272 1 #
vertex $-1 -1 $-1 $272 $588 #
convexity-sys-attrib $-1 -1 $-1 $273 $165 #
point $-1 -1 $-1 -0.59999999999999998 0.59999999999999998 -3 #
model_id-kcp-attrib $-1 -1 $-1 $-1 $277 1 1021324011 1021324011 -2134507519 10 #
face $589 -1 $-1 $586 $582 $10 $-1 $590 forward single #
loop $-1 -1 $-1 $-1 $537 $277 #
plane-surface $-1 -1 $-1 0.59999999999999998 0 -2.5 -1 0 0 0 0 1 forward_v I I I I #
coedge $-1 -1 $-1 $437 $437 $591 $592 forward $278 $-1 #
face $-1 -1 $-1 $593 $594 $25 $-1 $595 reversed single #
plane-surface $-1 -1 $-1 0 2 0 0 -1 0 0 0 -1 forward_v I I I I #
coedge $-1 -1 $-1 $283 $450 $284 $445 forward $171 $-1 #
coedge $-1 -1 $-1 $596 $597 $283 $442 forward $598 $-1 #
edge $-1 -1 $-1 $452 -3.1415926535897931 $449 -1.5707963267948966 $441 $301 forward @7 unknown #
coedge $-1 -1 $-1 $285 $284 $599 $600 reversed $104 $-1 #
coedge $-1 -1 $-1 $601 $602 $603 $445 forward $604 $-1 #
edge $-1 -1 $-1 $605 -11 $449 0 $444 $606 forward @7 unknown #
coedge $-1 -1 $-1 $447 $286 $607 $466 forward $448 $-1 #
coedge $-1 -1 $-1 $286 $446 $601 $608 forward $448 $-1 #
loop $-1 -1 $-1 $-1 $286 $609 #
vertex $-1 -1 $-1 $610 $611 #
coedge $-1 -1 $-1 $440 $288 $612 $613 reversed $171 $-1 #
coedge $-1 -1 $-1 $614 $615 $616 $289 forward $594 $-1 #
vertex $-1 -1 $-1 $617 $618 #
straight-curve $-1 -1 $-1 -2 0 -5.5 0 0 -1 I I #
coedge $-1 -1 $-1 $619 $616 $291 $455 reversed $620 $-1 #
edge $-1 -1 $-1 $479 -2 $293 0 $454 $621 forward @7 unknown #
face $-1 -1 $-1 $471 $292 $25 $-1 $622 forward single #
edge $-1 -1 $-1 $293 0 $623 2 $615 $621 forward @7 unknown #
point $-1 -1 $-1 -2 0 5.5 #
coedge $-1 -1 $-1 $624 $295 $298 $464 reversed $281 $-1 #
coedge $-1 -1 $-1 $295 $624 $302 $468 reversed $281 $-1 #
coedge $-1 -1 $-1 $625 $607 $285 $296 reversed $626 $-1 #
straight-curve $-1 -1 $-1 2 0 -5.5 0 0 -1 I I #
coedge $-1 -1 $-1 $310 $627 $297 $314 reversed $478 $-1 #
edge $-1 -1 $-1 $481 -2 $300 0 $459 $628 forward @7 unknown #
face $-1 -1 $-1 $629 $299 $25 $-1 $630 reversed single #
edge $-1 -1 $-1 $300 0 $631 2 $607 $628 forward @7 unknown #
point $-1 -1 $-1 2 0 -5.5 #
edge $-1 -1 $-1 $305 0 $632 2 $460 $633 forward @7 unknown #
coedge $-1 -1 $-1 $627 $310 $303 $470 reversed $478 $-1 #
edge $-1 -1 $-1 $632 -2 $183 7.4983036091106872e-033 $469 $480 forward @7 unknown #
face $-1 -1 $-1 $634 $304 $25 $-1 $622 forward single #
point $-1 -1 $-1 2 0 5.5 #
coedge $-1 -1 $-1 $474 $306 $635 $617 forward $475 $-1 #
coedge $-1 -1 $-1 $306 $473 $308 $477 forward $475 $-1 #
loop $-1 -1 $-1 $-1 $306 $629 #
coedge $-1 -1 $-1 $309 $308 $619 $636 reversed $311 $-1 #
edge $-1 -1 $-1 $637 -2 $184 -7.4983036091106872e-033 $308 $482 forward @7 unknown #
loop $-1 -1 $-1 $-1 $310 $638 #
vertex $-1 -1 $-1 $312 $639 #
straight-curve $-1 -1 $-1 0 2 5.5 -1 0 0 I I #
vertex $-1 -1 $-1 $464 $640 #
straight-curve $-1 -1 $-1 0 2 -5.5 1 0 0 I I #
plane-surface $-1 -1 $-1 2 0 0 -1 0 0 0 0 1 forward_v I I I I #
coedge $-1 -1 $-1 $321 $319 $323 $488 reversed $187 $-1 #
edge $-1 -1 $-1 $334 -5.5 $490 5.5 $333 $641 forward @7 unknown #
vertex $-1 -1 $-1 $488 $642 #
straight-curve $-1 -1 $-1 -2 -2 0 0 0 -1 I I #
edge $-1 -1 $-1 $486 -2 $490 2 $484 $643 forward @7 unknown #
straight-curve $-1 -1 $-1 0 -2 -5.5 -1 0 0 I I #
vertex $-1 -1 $-1 $326 $644 #
straight-curve $-1 -1 $-1 0 2 -5.5 1 0 0 I I #
point $-1 -1 $-1 2 2 -5.5 #
point $-1 -1 $-1 2 -2 -5.5 #
straight-curve $-1 -1 $-1 -2 0 5.5 0 -1 0 I I #
point $-1 -1 $-1 -2 2 5.5 #
point $-1 -1 $-1 -2 -2 5.5 #
straight-curve $-1 -1 $-1 2 -2 0 0 0 -1 I I #
straight-curve $-1 -1 $-1 2 2 0 0 0 -1 I I #
face $-1 -1 $-1 $645 $646 $28 $-1 $647 forward single #
loop $-1 -1 $-1 $-1 $648 $343 #
plane-surface $-1 -1 $-1 -1.5 0.59999999999999998 -3.5 -1 0 0 0 0 1 forward_v I I I I #
coedge $-1 -1 $-1 $649 $650 $651 $652 forward $344 $-1 #
coedge $-1 -1 $-1 $653 $346 $650 $654 reversed $206 $-1 #
coedge $-1 -1 $-1 $346 $653 $347 $508 forward $206 $-1 #
coedge $-1 -1 $-1 $349 $651 $346 $506 reversed $218 $-1 #
edge $-1 -1 $-1 $509 -1.5 $655 -0.59999999999999998 $346 $656 forward @7 unknown #
coedge $-1 -1 $-1 $348 $347 $657 $658 reversed $119 $-1 #
edge $-1 -1 $-1 $659 0 $509 2 $504 $660 forward @7 unknown #
vertex $-1 -1 $-1 $508 $661 #
straight-curve $-1 -1 $-1 0 1.5 -5.5 -1 0 0 I I #
coedge $-1 -1 $-1 $657 $355 $351 $512 forward $517 $-1 #
edge $662 -1 $-1 $358 0.59999999999999998 $513 1.5 $351 $663 forward @7 unknown #
vertex $-1 -1 $-1 $512 $664 #
straight-curve $-1 -1 $-1 0.59999999999999998 1.5 -3.5 0 0 -1 I I #
point $-1 -1 $-1 0.59999999999999998 1.5 -5.5 #
coedge $-1 -1 $-1 $355 $665 $360 $522 forward $517 $-1 #
loop $-1 -1 $-1 $-1 $516 $530 #
convexity-sys-attrib $-1 -1 $-1 $-1 $356 #
straight-curve $-1 -1 $-1 0 0.59999999999999998 -3.5 -1 0 0 I I #
point $-1 -1 $-1 0.59999999999999998 0.59999999999999998 -3.5 #
coedge $-1 -1 $-1 $361 $360 $666 $667 forward $362 $-1 #
edge $668 -1 $-1 $669 -0.59999999999999998 $363 0.59999999999999998 $360 $670 forward @7 unknown #
face $-1 -1 $-1 $367 $362 $28 $-1 $671 forward single #
point $-1 -1 $-1 1.5 0.59999999999999998 -3.5 #
coedge $-1 -1 $-1 $672 $365 $673 $674 reversed $218 $-1 #
coedge $-1 -1 $-1 $666 $675 $365 $527 forward $676 $-1 #
edge $-1 -1 $-1 $677 0.59999999999999998 $528 1.5 $526 $678 forward @7 unknown #
vertex $-1 -1 $-1 $667 $679 #
straight-curve $-1 -1 $-1 1.5 0 -5.5 0 1 0 I I #
face $-1 -1 $-1 $-1 $517 $28 $-1 $680 forward single #
plane-surface $-1 -1 $-1 -2.7755575615628914e-017 2.0816681711721685e-017 -5.5 0 0 1 1 0 0 forward_v I I I I #
convexity-sys-attrib $-1 -1 $-1 $-1 $372 #
vertex $-1 -1 $-1 $372 $681 #
ellipse-curve $-1 -1 $-1 -7.4983036091106872e-033 0 -2.5 0 0 -1 2 0 0 1 I I #
point $-1 -1 $-1 -2 2.4492127076447545e-016 5.5 #
point $-1 -1 $-1 1 0 -2.5 #
coedge $-1 -1 $-1 $682 $401 $382 $538 forward $435 $-1 #
edge $-1 -1 $-1 $404 -0.5 $553 1.5 $537 $683 forward @7 unknown #
coedge $-1 -1 $-1 $419 $383 $406 $563 forward $380 $-1 #
straight-curve $-1 -1 $-1 -0.59999999999999998 -0.59999999999999998 -2.5 0 0 1 I I #
coedge $-1 -1 $-1 $562 $385 $388 $544 reversed $257 $-1 #
attrib_edge_convexity-kcp-attrib $-1 -1 $684 $-1 $386 2 #
coedge $-1 -1 $-1 $388 $387 $573 $685 reversed $389 $-1 #
edge $686 -1 $-1 $687 -1.5 $390 -0.59999999999999998 $388 $688 forward @7 unknown #
face $689 -1 $-1 $690 $389 $10 $-1 $436 forward single #
point $-1 -1 $-1 0.59999999999999998 -0.59999999999999998 -1 #
attrib_edge_convexity-kcp-attrib $-1 -1 $691 $-1 $392 1 #
vertex $-1 -1 $-1 $418 $692 #
straight-curve $-1 -1 $-1 0.59999999999999998 0 -3 0 1 0 I I #
coedge $-1 -1 $-1 $395 $559 $682 $693 reversed $257 $-1 #
convexity-sys-attrib $-1 -1 $-1 $396 $244 #
attrib_edge_convexity-kcp-attrib $-1 -1 $694 $-1 $399 2 #
vertex $-1 -1 $-1 $693 $695 #
coedge $-1 -1 $-1 $401 $682 $580 $696 forward $435 $-1 #
attrib_edge_convexity-kcp-attrib $-1 -1 $697 $-1 $402 1 #
vertex $-1 -1 $-1 $426 $698 #
convexity-sys-attrib $-1 -1 $-1 $403 $251 #
point $-1 -1 $-1 0.59999999999999998 0.59999999999999998 -3 #
coedge $-1 -1 $-1 $550 $405 $699 $700 reversed $257 $-1 #
coedge $-1 -1 $-1 $409 $427 $405 $561 forward $428 $-1 #
edge $701 -1 $-1 $702 -1.5 $412 -0.59999999999999998 $560 $703 forward @7 unknown #
coedge $-1 -1 $-1 $406 $541 $704 $705 reversed $257 $-1 #
edge $706 -1 $-1 $415 0.59999999999999998 $707 1.5 $539 $703 forward @7 unknown #
model_id-kcp-attrib $-1 -1 $-1 $-1 $407 1 1021324011 1021324011 -2134507519 13 #
face $708 -1 $-1 $545 $574 $10 $-1 $709 forward single #
plane-surface $-1 -1 $-1 0 0 -1 0 0 1 1 0 0 forward_v I I I I #
straight-curve $-1 -1 $-1 -0.59999999999999998 0.59999999999999998 -2.5 0 0 -1 I I #
convexity-sys-attrib $-1 -1 $-1 $411 $261 #
point $-1 -1 $-1 -0.59999999999999998 0.59999999999999998 -1 #
convexity-sys-attrib $-1 -1 $-1 $414 $263 #
point $-1 -1 $-1 -0.59999999999999998 -0.59999999999999998 -1 #
coedge $-1 -1 $-1 $704 $417 $419 $577 reversed $574 $-1 #
coedge $-1 -1 $-1 $417 $704 $543 $685 forward $574 $-1 #
loop $-1 -1 $-1 $-1 $417 $565 #
attrib_edge_convexity-kcp-attrib $-1 -1 $710 $-1 $418 1 #
straight-curve $-1 -1 $-1 0 -1.5 -3 1 0 0 I I #
edge $-1 -1 $-1 $707 -1.5 $421 0.5 $419 $711 forward @7 unknown #
convexity-sys-attrib $-1 -1 $-1 $420 $267 #
point $-1 -1 $-1 -0.59999999999999998 -1.5 -3 #
coedge $-1 -1 $-1 $699 $425 $554 $696 reversed $582 $-1 #
coedge $-1 -1 $-1 $425 $699 $427 $585 forward $582 $-1 #
loop $-1 -1 $-1 $-1 $425 $434 #
attrib_edge_convexity-kcp-attrib $-1 -1 $712 $-1 $426 1 #
straight-curve $-1 -1 $-1 0 1.5 -3 -1 0 0 I I #
edge $-1 -1 $-1 $702 -1.5 $430 0.5 $581 $713 forward @7 unknown #
face $714 -1 $-1 $407 $428 $10 $-1 $381 forward single #
convexity-sys-attrib $-1 -1 $-1 $429 $272 #
point $-1 -1 $-1 -0.59999999999999998 1.5 -3 #
model_id-kcp-attrib $-1 -1 $-1 $-1 $434 1 1021324011 1021324011 -2134507519 11 #
plane-surface $-1 -1 $-1 0 1.5 -2.5 0 -1 0 0 0 -1 forward_v I I I I #
coedge $-1 -1 $-1 $591 $591 $437 $592 reversed $715 $-1 #
edge $716 -1 $-1 $717 0 $717 6.2831853071795862 $437 $718 forward @7 unknown #
face $-1 -1 $-1 $456 $719 $25 $-1 $622 forward single #
loop $-1 -1 $-1 $-1 $451 $438 #
plane-surface $-1 -1 $-1 -2 0 0 1 0 0 0 0 -1 forward_v I I I I #
coedge $-1 -1 $-1 $597 $441 $720 $610 forward $598 $-1 #
coedge $-1 -1 $-1 $441 $596 $614 $721 forward $598 $-1 #
loop $-1 -1 $-1 $-1 $441 $722 #
coedge $-1 -1 $-1 $723 $724 $443 $600 forward $725 $-1 #
edge $-1 -1 $-1 $305 0 $605 1.5707963267948966 $599 $294 forward @7 unknown #
coedge $-1 -1 $-1 $726 $444 $447 $608 reversed $604 $-1 #
coedge $-1 -1 $-1 $444 $726 $723 $727 reversed $604 $-1 #
coedge $-1 -1 $-1 $728 $720 $440 $445 reversed $729 $-1 #
loop $-1 -1 $-1 $-1 $444 $730 #
vertex $-1 -1 $-1 $727 $731 #
straight-curve $-1 -1 $-1 -7.4983036091106872e-033 -2 -5.5 0 0 -1 I I #
coedge $-1 -1 $-1 $461 $732 $446 $466 reversed $626 $-1 #
edge $-1 -1 $-1 $631 -2 $449 7.4983036091106872e-033 $601 $733 forward @7 unknown #
face $-1 -1 $-1 $465 $448 $25 $-1 $630 reversed single #
edge $-1 -1 $-1 $449 7.4983036091106872e-033 $734 2 $720 $733 forward @7 unknown #
point $-1 -1 $-1 -7.4983036091106872e-033 -2 -5.5 #
coedge $-1 -1 $-1 $735 $736 $450 $613 forward $719 $-1 #
edge $-1 -1 $-1 $605 1.5707963267948966 $293 3.1415926535897931 $612 $294 forward @7 unknown #
coedge $-1 -1 $-1 $737 $451 $597 $721 reversed $594 $-1 #
coedge $-1 -1 $-1 $451 $737 $735 $457 reversed $594 $-1 #
coedge $-1 -1 $-1 $454 $635 $173 $289 reversed $620 $-1 #
edge $-1 -1 $-1 $452 0 $637 2 $635 $738 forward @7 unknown #
point $-1 -1 $-1 -2 0 -5.5 #
coedge $-1 -1 $-1 $635 $454 $476 $636 forward $620 $-1 #
loop $-1 -1 $-1 $-1 $616 $739 #
straight-curve $-1 -1 $-1 -2 0 5.5 0 -1 0 I I #
plane-surface $-1 -1 $-1 0 0 5.5 0 0 1 1 0 0 forward_v I I I I #
vertex $-1 -1 $-1 $457 $740 #
coedge $-1 -1 $-1 $460 $459 $627 $741 reversed $281 $-1 #
coedge $-1 -1 $-1 $732 $461 $724 $742 reversed $626 $-1 #
loop $-1 -1 $-1 $-1 $461 $743 #
coedge $-1 -1 $-1 $463 $469 $624 $741 forward $478 $-1 #
straight-curve $-1 -1 $-1 2 0 -5.5 0 -1 0 I I #
face $-1 -1 $-1 $744 $475 $25 $-1 $630 reversed single #
plane-surface $-1 -1 $-1 0 0 -5.5 0 0 1 1 0 0 forward_v I I I I #
vertex $-1 -1 $-1 $745 $746 #
vertex $-1 -1 $-1 $468 $747 #
straight-curve $-1 -1 $-1 2 0 5.5 0 1 0 I I #
face $-1 -1 $-1 $730 $725 $25 $-1 $622 forward single #
coedge $-1 -1 $-1 $616 $619 $473 $617 reversed $620 $-1 #
edge $-1 -1 $-1 $479 -5.5 $637 5.5 $476 $748 forward @7 unknown #
vertex $-1 -1 $-1 $477 $749 #
face $-1 -1 $-1 $743 $478 $25 $-1 $439 reversed single #
point $-1 -1 $-1 -2 2 5.5 #
point $-1 -1 $-1 2 2 -5.5 #
straight-curve $-1 -1 $-1 -2 2 0 0 0 -1 I I #
point $-1 -1 $-1 -2 -2 -5.5 #
straight-curve $-1 -1 $-1 -2 0 -5.5 0 1 0 I I #
point $-1 -1 $-1 -2 2 -5.5 #
face $-1 -1 $-1 $750 $751 $28 $-1 $752 forward single #
loop $-1 -1 $-1 $-1 $753 $499 #
plane-surface $-1 -1 $-1 -1.5 -0.59999999999999998 -3.5 0 -1 0 0 0 -1 forward_v I I I I #
coedge $-1 -1 $-1 $754 $755 $756 $757 forward $500 $-1 #
coedge $-1 -1 $-1 $758 $502 $755 $759 reversed $344 $-1 #
coedge $-1 -1 $-1 $502 $758 $503 $654 forward $344 $-1 #
coedge $-1 -1 $-1 $505 $756 $502 $652 reversed $218 $-1 #
edge $-1 -1 $-1 $655 0.60000000000000009 $760 1.5 $502 $761 forward @7 unknown #
coedge $-1 -1 $-1 $504 $503 $762 $763 reversed $206 $-1 #
edge $-1 -1 $-1 $764 0 $655 2 $650 $765 forward @7 unknown #
vertex $-1 -1 $-1 $654 $766 #
straight-curve $-1 -1 $-1 -0.59999999999999998 0 -5.5 0 -1 0 I I #
coedge $-1 -1 $-1 $762 $511 $507 $658 forward $517 $-1 #
edge $767 -1 $-1 $513 -0.59999999999999998 $659 0.59999999999999998 $507 $768 forward @7 unknown #
vertex $-1 -1 $-1 $658 $769 #
straight-curve $-1 -1 $-1 -0.60000000000000009 1.5 -3.5 0 0 -1 I I #
point $-1 -1 $-1 -0.60000000000000009 1.5 -5.5 #
convexity-sys-attrib $-1 -1 $-1 $-1 $512 #
straight-curve $-1 -1 $-1 0.59999999999999998 0 -3.5 0 1 0 I I #
point $-1 -1 $-1 0.59999999999999998 1.5 -3.5 #
coedge $-1 -1 $-1 $516 $770 $771 $772 forward $517 $-1 #
coedge $-1 -1 $-1 $771 $526 $521 $667 reversed $676 $-1 #
edge $-1 -1 $-1 $669 0 $528 2 $521 $773 forward @7 unknown #
convexity-sys-attrib $-1 -1 $-1 $-1 $522 #
vertex $-1 -1 $-1 $522 $774 #
straight-curve $-1 -1 $-1 1.5 0 -3.5 0 1 0 I I #
plane-surface $-1 -1 $-1 1.5 -0.59999999999999998 -3.5 1 0 0 0 0 -1 forward_v I I I I #
coedge $-1 -1 $-1 $775 $525 $776 $777 reversed $218 $-1 #
coedge $-1 -1 $-1 $778 $779 $525 $674 forward $780 $-1 #
edge $-1 -1 $-1 $781 -1.5 $677 -0.59999999999999998 $673 $782 forward @7 unknown #
coedge $-1 -1 $-1 $526 $771 $778 $783 forward $676 $-1 #
loop $-1 -1 $-1 $-1 $526 $784 #
vertex $-1 -1 $-1 $783 $785 #
straight-curve $-1 -1 $-1 0 -0.59999999999999998 -5.5 1 0 0 I I #
point $-1 -1 $-1 1.5 -0.59999999999999998 -5.5 #
plane-surface $-1 -1 $-1 -2.7755575615628914e-017 2.0816681711721685e-017 -3.5000000000000004 0 0 1 1 0 0 forward_v I I I I #
point $-1 -1 $-1 -2 2.4492127076447545e-016 -2.5 #
coedge $-1 -1 $-1 $554 $537 $550 $693 forward $435 $-1 #
straight-curve $-1 -1 $-1 0.59999999999999998 0.59999999999999998 -2.5 0 0 1 I I #
convexity-sys-attrib $-1 -1 $-1 $542 $386 #
edge $-1 -1 $-1 $687 -1.5 $548 0.5 $543 $786 forward @7 unknown #
attrib_edge_convexity-kcp-attrib $-1 -1 $787 $-1 $544 2 #
vertex $-1 -1 $-1 $544 $788 #
straight-curve $-1 -1 $-1 0.59999999999999998 0 -1 0 1 0 I I #
model_id-kcp-attrib $-1 -1 $-1 $-1 $545 1 1021324011 1021324011 -2134507519 15 #
face $789 -1 $-1 $790 $791 $10 $-1 $792 forward single #
convexity-sys-attrib $-1 -1 $-1 $547 $392 #
point $-1 -1 $-1 0.59999999999999998 -1.5 -3 #
edge $793 -1 $-1 $553 0.59999999999999998 $794 1.5 $682 $688 forward @7 unknown #
convexity-sys-attrib $-1 -1 $-1 $552 $399 #
point $-1 -1 $-1 0.59999999999999998 0.59999999999999998 -1 #
edge $-1 -1 $-1 $794 -1.5 $556 0.5 $554 $795 forward @7 unknown #
convexity-sys-attrib $-1 -1 $-1 $555 $402 #
point $-1 -1 $-1 0.59999999999999998 1.5 -3 #
coedge $-1 -1 $-1 $581 $580 $559 $700 forward $582 $-1 #
edge $796 -1 $-1 $794 -0.59999999999999998 $702 0.59999999999999998 $699 $797 forward @7 unknown #
attrib_edge_convexity-kcp-attrib $-1 -1 $798 $-1 $561 2 #
vertex $-1 -1 $-1 $700 $799 #
straight-curve $-1 -1 $-1 -0.59999999999999998 0 -1 0 -1 0 I I #
coedge $-1 -1 $-1 $573 $572 $562 $705 forward $574 $-1 #
edge $800 -1 $-1 $707 -0.59999999999999998 $687 0.59999999999999998 $704 $801 forward @7 unknown #
attrib_edge_convexity-kcp-attrib $-1 -1 $802 $-1 $563 2 #
vertex $-1 -1 $-1 $563 $803 #
model_id-kcp-attrib $-1 -1 $-1 $-1 $565 1 1021324011 1021324011 -2134507519 14 #
plane-surface $-1 -1 $-1 0 -1.5 -2.5 0 1 0 0 0 1 forward_v I I I I #
convexity-sys-attrib $-1 -1 $-1 $575 $418 #
straight-curve $-1 -1 $-1 -0.59999999999999998 -1.5 -2.5 0 0 -1 I I #
convexity-sys-attrib $-1 -1 $-1 $583 $426 #
straight-curve $-1 -1 $-1 -0.59999999999999998 1.5 -2.5 0 0 -1 I I #
model_id-kcp-attrib $-1 -1 $-1 $-1 $586 1 1021324011 1021324011 -2134507519 12 #
loop $-1 -1 $-1 $-1 $591 $790 #
attrib_edge_convexity-kcp-attrib $-1 -1 $804 $-1 $592 1 #
vertex $-1 -1 $-1 $592 $805 #
ellipse-curve $-1 -1 $-1 0 0 -3 0 0 -1 2 0 0 1 I I #
loop $-1 -1 $-1 $-1 $612 $593 #
coedge $-1 -1 $-1 $603 $806 $596 $610 reversed $729 $-1 #
edge $-1 -1 $-1 $734 -2 $452 0 $614 $738 forward @7 unknown #
face $-1 -1 $-1 $609 $598 $25 $-1 $630 reversed single #
coedge $-1 -1 $-1 $724 $599 $602 $727 forward $725 $-1 #
coedge $-1 -1 $-1 $599 $723 $625 $742 forward $725 $-1 #
loop $-1 -1 $-1 $-1 $599 $634 #
coedge $-1 -1 $-1 $602 $601 $732 $745 reversed $604 $-1 #
edge $-1 -1 $-1 $605 -7.4983036091106872e-033 $807 2 $602 $808 forward @7 unknown #
coedge $-1 -1 $-1 $806 $603 $736 $809 reversed $729 $-1 #
loop $-1 -1 $-1 $-1 $603 $744 #
face $-1 -1 $-1 $722 $604 $25 $-1 $810 reversed single #
point $-1 -1 $-1 -7.4983036091106872e-033 -2 5.5 #
coedge $-1 -1 $-1 $607 $625 $726 $745 forward $626 $-1 #
straight-curve $-1 -1 $-1 0 -2 -5.5 -1 0 0 I I #
vertex $-1 -1 $-1 $721 $811 #
coedge $-1 -1 $-1 $736 $612 $615 $457 forward $719 $-1 #
coedge $-1 -1 $-1 $612 $735 $728 $809 forward $719 $-1 #
coedge $-1 -1 $-1 $615 $614 $806 $812 reversed $594 $-1 #
straight-curve $-1 -1 $-1 -2 0 -5.5 0 1 0 I I #
face $-1 -1 $-1 $638 $620 $25 $-1 $595 reversed single #
point $-1 -1 $-1 -2 -2 5.5 #
edge $-1 -1 $-1 $632 -5.5 $481 5.5 $624 $813 forward @7 unknown #
edge $-1 -1 $-1 $807 -2 $305 0 $625 $633 forward @7 unknown #
face $-1 -1 $-1 $-1 $626 $25 $-1 $282 reversed single #
face $-1 -1 $-1 $739 $729 $25 $-1 $810 reversed single #
edge $-1 -1 $-1 $807 -5.5 $631 5.5 $732 $814 forward @7 unknown #
point $-1 -1 $-1 2 -2 -5.5 #
point $-1 -1 $-1 2 2 5.5 #
straight-curve $-1 -1 $-1 -2 2 0 0 0 -1 I I #
point $-1 -1 $-1 -2 2 -5.5 #
face $-1 -1 $-1 $815 $816 $28 $-1 $817 forward single #
loop $-1 -1 $-1 $-1 $818 $645 #
plane-surface $-1 -1 $-1 -0.60000000000000009 -0.59999999999999998 -3.5 -1 0 0 0 0 1 forward_v I I I I #
coedge $-1 -1 $-1 $819 $820 $821 $822 forward $646 $-1 #
coedge $-1 -1 $-1 $823 $648 $820 $824 reversed $500 $-1 #
coedge $-1 -1 $-1 $648 $823 $649 $759 forward $500 $-1 #
coedge $-1 -1 $-1 $651 $821 $648 $757 reversed $218 $-1 #
edge $-1 -1 $-1 $760 -0.59999999999999998 $825 0.59999999999999998 $648 $826 forward @7 unknown #
coedge $-1 -1 $-1 $650 $649 $827 $828 reversed $344 $-1 #
edge $-1 -1 $-1 $829 0 $760 2 $755 $830 forward @7 unknown #
vertex $-1 -1 $-1 $759 $831 #
straight-curve $-1 -1 $-1 0 0.59999999999999998 -5.5 -1 0 0 I I #
coedge $-1 -1 $-1 $827 $657 $653 $763 forward $517 $-1 #
edge $832 -1 $-1 $659 -1.5 $764 -0.59999999999999998 $653 $833 forward @7 unknown #
vertex $-1 -1 $-1 $763 $834 #
straight-curve $-1 -1 $-1 -0.60000000000000009 0.59999999999999998 -3.5 0 0 -1 I I #
point $-1 -1 $-1 -0.60000000000000009 0.59999999999999998 -5.5 #
convexity-sys-attrib $-1 -1 $-1 $-1 $658 #
straight-curve $-1 -1 $-1 0 1.5 -3.5 -1 0 0 I I #
point $-1 -1 $-1 -0.59999999999999998 1.5 -3.5 #
coedge $-1 -1 $-1 $665 $835 $836 $837 forward $517 $-1 #
coedge $-1 -1 $-1 $675 $666 $665 $772 reversed $676 $-1 #
edge $838 -1 $-1 $839 0.59999999999999998 $669 1.5 $771 $840 forward @7 unknown #
straight-curve $-1 -1 $-1 1.5 -0.59999999999999998 -3.5 0 0 -1 I I #
point $-1 -1 $-1 1.5 -0.59999999999999998 -3.5 #
coedge $-1 -1 $-1 $821 $672 $818 $841 reversed $218 $-1 #
coedge $-1 -1 $-1 $842 $843 $672 $777 forward $816 $-1 #
edge $-1 -1 $-1 $844 -0.60000000000000009 $781 0.59999999999999998 $776 $845 forward @7 unknown #
coedge $-1 -1 $-1 $836 $673 $675 $783 reversed $780 $-1 #
coedge $-1 -1 $-1 $673 $836 $842 $846 forward $780 $-1 #
loop $-1 -1 $-1 $-1 $673 $815 #
vertex $-1 -1 $-1 $846 $847 #
straight-curve $-1 -1 $-1 0.59999999999999998 0 -5.5 0 1 0 I I #
edge $-1 -1 $-1 $839 0 $677 2 $675 $848 forward @7 unknown #
face $-1 -1 $-1 $523 $676 $28 $-1 $849 forward single #
point $-1 -1 $-1 0.59999999999999998 -0.59999999999999998 -5.5 #
straight-curve $-1 -1 $-1 0.59999999999999998 -1.5 -2.5 0 0 -1 I I #
convexity-sys-attrib $-1 -1 $-1 $686 $544 #
point $-1 -1 $-1 0.59999999999999998 -1.5 -1 #
model_id-kcp-attrib $-1 -1 $-1 $-1 $690 1 1021324011 1021324011 -2134507519 16 #
face $850 -1 $-1 $851 $852 $10 $-1 $853 forward single #
loop $-1 -1 $-1 $854 $855 $690 #
plane-surface $-1 -1 $-1 0 0 0 0 0 1 -1 0 0 forward_v I I I I #
attrib_edge_convexity-kcp-attrib $-1 -1 $856 $-1 $693 2 #
vertex $-1 -1 $-1 $693 $857 #
straight-curve $-1 -1 $-1 0.59999999999999998 1.5 -2.5 0 0 -1 I I #
attrib_edge_convexity-kcp-attrib $-1 -1 $858 $-1 $700 2 #
straight-curve $-1 -1 $-1 0 1.5 -1 -1 0 0 I I #
convexity-sys-attrib $-1 -1 $-1 $701 $561 #
point $-1 -1 $-1 -0.59999999999999998 1.5 -1 #
attrib_edge_convexity-kcp-attrib $-1 -1 $859 $-1 $705 2 #
straight-curve $-1 -1 $-1 0 -1.5 -1 1 0 0 I I #
convexity-sys-attrib $-1 -1 $-1 $706 $563 #
point $-1 -1 $-1 -0.59999999999999998 -1.5 -1 #
convexity-sys-attrib $-1 -1 $-1 $716 $592 #
point $-1 -1 $-1 2 0 -3 #
coedge $-1 -1 $-1 $720 $728 $737 $812 forward $729 $-1 #
vertex $-1 -1 $-1 $742 $860 #
straight-curve $-1 -1 $-1 0 -2 5.5 1 0 0 I I #
edge $-1 -1 $-1 $623 -2 $605 -7.4983036091106872e-033 $728 $808 forward @7 unknown #
plane-surface $-1 -1 $-1 0 -2 0 0 1 0 0 0 1 forward_v I I I I #
point $-1 -1 $-1 -2 -2 -5.5 #
edge $-1 -1 $-1 $623 -5.5 $734 5.5 $737 $861 forward @7 unknown #
straight-curve $-1 -1 $-1 2 2 0 0 0 -1 I I #
straight-curve $-1 -1 $-1 2 -2 0 0 0 -1 I I #
face $-1 -1 $-1 $784 $780 $28 $-1 $862 forward single #
loop $-1 -1 $-1 $-1 $776 $750 #
plane-surface $-1 -1 $-1 -0.60000000000000009 -1.5 -3.5 0 -1 0 0 0 -1 forward_v I I I I #
coedge $-1 -1 $-1 $863 $864 $775 $841 forward $751 $-1 #
coedge $-1 -1 $-1 $865 $753 $864 $866 reversed $646 $-1 #
coedge $-1 -1 $-1 $753 $865 $754 $824 forward $646 $-1 #
coedge $-1 -1 $-1 $756 $775 $753 $822 reversed $218 $-1 #
edge $-1 -1 $-1 $825 -1.5 $867 -0.60000000000000009 $753 $868 forward @7 unknown #
coedge $-1 -1 $-1 $755 $754 $869 $870 reversed $500 $-1 #
edge $-1 -1 $-1 $871 0 $825 2 $820 $872 forward @7 unknown #
vertex $-1 -1 $-1 $824 $873 #
straight-curve $-1 -1 $-1 -1.5 0 -5.5 0 -1 0 I I #
coedge $-1 -1 $-1 $869 $762 $758 $828 forward $517 $-1 #
edge $874 -1 $-1 $764 0.59999999999999998 $829 1.5 $758 $875 forward @7 unknown #
vertex $-1 -1 $-1 $828 $876 #
straight-curve $-1 -1 $-1 -1.5 0.59999999999999998 -3.5 0 0 -1 I I #
point $-1 -1 $-1 -1.5 0.59999999999999998 -5.5 #
convexity-sys-attrib $-1 -1 $-1 $-1 $763 #
straight-curve $-1 -1 $-1 -0.59999999999999998 0 -3.5 0 -1 0 I I #
point $-1 -1 $-1 -0.59999999999999998 0.59999999999999998 -3.5 #
coedge $-1 -1 $-1 $770 $877 $878 $879 forward $517 $-1 #
coedge $-1 -1 $-1 $779 $778 $770 $837 reversed $780 $-1 #
edge $880 -1 $-1 $881 -1.5 $839 -0.59999999999999998 $836 $882 forward @7 unknown #
convexity-sys-attrib $-1 -1 $-1 $-1 $772 #
vertex $-1 -1 $-1 $837 $883 #
straight-curve $-1 -1 $-1 0 -0.59999999999999998 -3.5 1 0 0 I I #
edge $-1 -1 $-1 $867 0.59999999999999998 $844 1.5 $818 $884 forward @7 unknown #
coedge $-1 -1 $-1 $878 $776 $779 $846 reversed $816 $-1 #
coedge $-1 -1 $-1 $776 $878 $863 $885 forward $816 $-1 #
vertex $-1 -1 $-1 $885 $886 #
straight-curve $-1 -1 $-1 0 -1.5 -5.5 1 0 0 I I #
edge $-1 -1 $-1 $881 0 $781 2 $779 $887 forward @7 unknown #
point $-1 -1 $-1 0.59999999999999998 -1.5 -5.5 #
straight-curve $-1 -1 $-1 0.59999999999999998 -0.59999999999999998 -3.5 0 0 -1 I I #
plane-surface $-1 -1 $-1 0.59999999999999998 -0.59999999999999998 -3.5 0 -1 0 0 0 -1 forward_v I I I I #
model_id-kcp-attrib $-1 -1 $-1 $-1 $790 1 1021324011 1021324011 -2134507519 17 #
face $888 -1 $-1 $889 $890 $10 $-1 $891 forward single #
loop $-1 -1 $-1 $715 $892 $790 #
cone-surface $-1 -1 $-1 0 0 -1.5 0 0 -1 2 0 0 1 I I 0 1 2 forward I I I I #
loop $-1 -1 $-1 $-1 $893 $690 #
coedge $-1 -1 $-1 $855 $855 $892 $894 forward $791 $-1 #
convexity-sys-attrib $-1 -1 $-1 $793 $693 #
point $-1 -1 $-1 0.59999999999999998 1.5 -1 #
convexity-sys-attrib $-1 -1 $-1 $796 $700 #
convexity-sys-attrib $-1 -1 $-1 $800 $705 #
point $-1 -1 $-1 2 -2 5.5 #
straight-curve $-1 -1 $-1 -2 -2 0 0 0 -1 I I #
plane-surface $-1 -1 $-1 0.59999999999999998 -1.5 -3.5 1 0 0 0 0 -1 forward_v I I I I #
coedge $-1 -1 $-1 $895 $818 $843 $885 reversed $751 $-1 #
coedge $-1 -1 $-1 $818 $895 $819 $866 forward $751 $-1 #
coedge $-1 -1 $-1 $820 $819 $896 $897 reversed $646 $-1 #
edge $-1 -1 $-1 $898 0 $867 2 $864 $899 forward @7 unknown #
vertex $-1 -1 $-1 $866 $900 #
straight-curve $-1 -1 $-1 0 -0.59999999999999998 -5.5 1 0 0 I I #
coedge $-1 -1 $-1 $896 $827 $823 $870 forward $517 $-1 #
edge $901 -1 $-1 $829 -0.59999999999999998 $871 0.59999999999999998 $823 $902 forward @7 unknown #
vertex $-1 -1 $-1 $870 $903 #
straight-curve $-1 -1 $-1 -1.5 -0.59999999999999998 -3.5 0 0 -1 I I #
point $-1 -1 $-1 -1.5 -0.59999999999999998 -5.5 #
convexity-sys-attrib $-1 -1 $-1 $-1 $828 #
straight-curve $-1 -1 $-1 0 0.59999999999999998 -3.5 -1 0 0 I I #
point $-1 -1 $-1 -1.5 0.59999999999999998 -3.5 #
coedge $-1 -1 $-1 $835 $896 $895 $904 forward $517 $-1 #
coedge $-1 -1 $-1 $843 $842 $835 $879 reversed $816 $-1 #
edge $905 -1 $-1 $906 -0.59999999999999998 $881 0.59999999999999998 $878 $907 forward @7 unknown #
convexity-sys-attrib $-1 -1 $-1 $-1 $837 #
vertex $-1 -1 $-1 $879 $908 #
straight-curve $-1 -1 $-1 0.59999999999999998 0 -3.5 0 1 0 I I #
point $-1 -1 $-1 0.59999999999999998 -0.59999999999999998 -3.5 #
straight-curve $-1 -1 $-1 -0.59999999999999998 0 -5.5 0 -1 0 I I #
edge $-1 -1 $-1 $906 0 $844 2 $843 $909 forward @7 unknown #
point $-1 -1 $-1 -0.60000000000000009 -1.5 -5.5 #
straight-curve $-1 -1 $-1 0.59999999999999998 -1.5 -3.5 0 0 -1 I I #
model_id-kcp-attrib $-1 -1 $-1 $-1 $851 1 1021324011 1021324011 -2134507519 18 #
face $910 -1 $-1 $-1 $911 $10 $-1 $912 forward single #
loop $-1 -1 $-1 $913 $914 $851 #
cone-surface $-1 -1 $-1 0 0 4 0 0 1 1 0 0 1 I I 0 1 1 forward I I I I #
coedge $-1 -1 $-1 $892 $892 $855 $894 reversed $852 $-1 #
coedge $-1 -1 $-1 $893 $893 $914 $915 forward $854 $-1 #
edge $916 -1 $-1 $917 0 $917 6.2831853071795862 $855 $918 forward @7 unknown #
coedge $-1 -1 $-1 $864 $863 $877 $904 reversed $751 $-1 #
coedge $-1 -1 $-1 $877 $869 $865 $897 forward $517 $-1 #
edge $919 -1 $-1 $871 -1.5 $898 -0.59999999999999998 $865 $920 forward @7 unknown #
vertex $-1 -1 $-1 $897 $921 #
straight-curve $-1 -1 $-1 -0.60000000000000009 -0.59999999999999998 -3.5 0 0 -1 I I #
point $-1 -1 $-1 -0.60000000000000009 -0.59999999999999998 -5.5 #
convexity-sys-attrib $-1 -1 $-1 $-1 $870 #
straight-curve $-1 -1 $-1 -1.5 0 -3.5 0 -1 0 I I #
point $-1 -1 $-1 -1.5 -0.59999999999999998 -3.5 #
edge $922 -1 $-1 $898 0.59999999999999998 $906 1.5 $895 $923 forward @7 unknown #
convexity-sys-attrib $-1 -1 $-1 $-1 $879 #
vertex $-1 -1 $-1 $904 $924 #
straight-curve $-1 -1 $-1 0 -1.5 -3.5 1 0 0 I I #
point $-1 -1 $-1 0.59999999999999998 -1.5 -3.5 #
straight-curve $-1 -1 $-1 -0.60000000000000009 -1.5 -3.5 0 0 -1 I I #
model_id-kcp-attrib $-1 -1 $-1 $-1 $889 1 1021324011 1021324011 -2134507519 19 #
loop $-1 -1 $-1 $-1 $925 $889 #
plane-surface $-1 -1 $-1 0 0 8 0 0 1 1 0 0 forward_v I I I I #
loop $-1 -1 $-1 $-1 $926 $851 #
coedge $-1 -1 $-1 $914 $914 $893 $915 reversed $890 $-1 #
edge $927 -1 $-1 $928 0 $928 6.2831853071795862 $914 $929 forward @7 unknown #
attrib_edge_convexity-kcp-attrib $-1 -1 $930 $-1 $894 1 #
vertex $-1 -1 $-1 $894 $931 #
ellipse-curve $-1 -1 $-1 0 0 0 0 0 1 2 0 0 1 I I #
convexity-sys-attrib $-1 -1 $-1 $-1 $897 #
straight-curve $-1 -1 $-1 0 -0.59999999999999998 -3.5 1 0 0 I I #
point $-1 -1 $-1 -0.59999999999999998 -0.59999999999999998 -3.5 #
convexity-sys-attrib $-1 -1 $-1 $-1 $904 #
straight-curve $-1 -1 $-1 -0.59999999999999998 0 -3.5 0 -1 0 I I #
point $-1 -1 $-1 -0.59999999999999998 -1.5 -3.5 #
coedge $-1 -1 $-1 $925 $925 $926 $932 forward $911 $-1 #
coedge $-1 -1 $-1 $926 $926 $925 $932 reversed $913 $-1 #
attrib_edge_convexity-kcp-attrib $-1 -1 $933 $-1 $915 2 #
vertex $-1 -1 $-1 $915 $934 #
ellipse-curve $-1 -1 $-1 0 0 0 0 0 -1 1 0 0 1 I I #
convexity-sys-attrib $-1 -1 $-1 $916 $894 #
point $-1 -1 $-1 2 0 0 #
edge $-1 -1 $-1 $935 0 $935 6.2831853071795862 $925 $936 forward @7 unknown #
convexity-sys-attrib $-1 -1 $-1 $927 $915 #
point $-1 -1 $-1 1 0 0 #
vertex $-1 -1 $-1 $932 $937 #
ellipse-curve $-1 -1 $-1 0 0 8 0 0 1 1 0 0 1 I I #
point $-1 -1 $-1 1 0 8 #
End-of-ACIS-data 