**ABCDEFGHIJKLMNOPQRSTUVWXYZabcdefghijklmnopqrstuvwxyz**************************
**PARASOLID !"#$%&'()*+,-./:;<=>?@[\]^_`{|}~0123456789**************************
**PART1;MC=sparc;MC_MODEL=sun4c;MC_ID=chaos;OS=SunOS;OS_RELEASE=4.1.2;FRU=sdl_pa
rasolid_test_sparc;APPL=unknown;SITE=sdl-cambridge-u.k.;USER=brown;FORMAT=text;G
UISE=transmit;KEY=inner_mallocta;FILE=inner_mallocta.xmt_txt;DATE=14-feb-1992;
**PART2;SCH=SCH_401021_4039;USFLD_SIZE=0;
**PART3;
**END_OF_HEADER*****************************************************************
T50 : TRANSMIT FILE created by modeller version 40102115 SCH_401021_40390 12 1 8
26 2 3 0 0 0 1e3 1e-8 4 2 0 5 6 1 7 1e-8 0 0 81 2 2 826 8 1 0 0 0 0 9 10 70 3 0
 1 0 0 4 1 20 4 11 11 1 102 14 4 inner_mallocta13 7 340 0 1 0 12 13 14 15 16 17
 14 12 616 0 18 0 19 7 20 -16 13 676 0 21 0 22 16 18 14 717 0 21 0 23 17 51 15 7
49 0 7 24 0 2 +0 0 8.2 0 1 0 .85 0 0 1 38 16 761 0 13 25 0 0 +1e-8 24 15 26 27 2
8 29 17 802 0 14 29 0 -.835816952170486 6.78874141667397 8.04537134009363 29 29
 803 0 23 30 17 0 6.84 7.35 18 23 718 0 31 14 32 29 29 30 804 0 32 33 29 -1 8.57
186677451301 7.69133928519604 18 32 719 0 34 23 35 30 29 33 805 0 35 36 30 -1 8.
62651146176715 7.63 18 35 720 0 37 32 38 33 29 36 806 0 38 39 33 -1 8.5718667745
1301 8.77 18 38 721 0 40 35 41 36 29 39 807 0 41 42 36 1 8.57186677451301 7.6913
3928519604 18 41 722 0 43 38 44 39 29 42 808 0 44 45 39 1 8.62651146176715 7.63
 18 44 723 0 46 41 47 42 29 45 810 0 47 48 42 0 8.38 8.77 18 47 725 0 49 44 50 4
5 29 48 811 0 50 51 45 0 8.38 7.63 18 50 726 0 52 47 53 48 29 51 813 0 53 54 48
 -1 8.38 7.63 18 53 728 0 55 50 56 51 29 54 814 0 56 57 51 1 8.38 7.63 18 56 729
 0 58 53 59 54 29 57 817 0 60 61 54 -1 8.38 8.77 18 60 732 0 62 59 63 57 29 61 8
18 0 59 64 57 1 8.38 8.77 18 59 731 0 65 56 60 61 29 64 585 0 63 66 61 .83581695
2170486 6.78874141667397 8.04537134009363 18 63 583 0 67 60 68 64 29 66 559 0 68
 69 64 1 8.57186677451301 8.77 18 68 557 0 70 63 71 66 29 69 319 0 71 72 66 -6.7
8874141667397 .835816952170486 8.04537134009363 18 71 317 0 73 68 74 69 29 72 29
0 0 74 75 69 -8.57186677451301 -1 8.77 18 74 288 0 76 71 77 72 29 75 527 0 77 78
 72 -6.78874141667397 -.835816952170486 8.04537134009363 18 77 442 0 79 74 80 75
 29 78 528 0 80 81 75 -6.84 0 7.35 18 80 443 0 82 77 83 78 29 81 529 0 83 84 78
 -8.57186677451301 1 7.69133928519604 18 83 444 0 85 80 86 81 29 84 530 0 86 87
 81 -8.62651146176715 1 7.63 18 86 445 0 88 83 89 84 29 87 531 0 89 90 84 -8.571
86677451301 -1 7.69133928519604 18 89 446 0 91 86 92 87 29 90 532 0 92 93 87 -8.
62651146176715 -1 7.63 18 92 447 0 94 89 95 90 29 93 534 0 95 96 90 -8.571866774
51301 1 8.77 18 95 449 0 97 92 98 93 29 96 535 0 98 99 93 -8.38 0 8.77 18 98 450
 0 100 95 101 96 29 99 536 0 101 102 96 -8.38 0 7.63 18 101 451 0 103 98 104 99
 29 102 539 0 104 105 99 -8.38 -1 7.63 18 104 454 0 106 101 107 102 29 105 540 0
 107 108 102 -8.38 1 7.63 18 107 455 0 109 104 110 105 29 108 543 0 110 111 105
 -8.38 -1 8.77 18 110 456 0 112 107 113 108 29 111 544 0 113 0 108 -8.38 1 8.77
 18 113 459 0 114 110 0 111 17 114 115 116 117 113 118 119 0 15 115 398 0 117 12
0 0 17 116 115 112 114 98 121 122 0 17 117 115 114 123 95 76 124 0 17 118 125 12
6 127 95 114 119 0 16 119 412 0 114 124 128 129 16 124 410 0 117 130 119 131 16
 128 414 0 100 119 132 133 30 129 497 0 119 134 131 0 +1e-8 -8.63 1 8.77 1 0 0 3
1 134 498 0 135 136 129 0 +1e-8 -7.39 0 8.2 -1 0 0 0 0 1 .05 31 131 495 0 124 12
9 137 0 -1e-8 0 0 8.77 0 0 1 1 0 0 8.63 30 137 494 0 130 131 138 0 +1e-8 -8.63 -
1 7.63 1 0 0 16 130 409 0 139 140 124 137 31 138 492 0 140 137 141 0 -1e-8 0 -1
 0 0 -1 0 0 0 -1 11.516666184274 16 140 407 0 142 143 130 138 30 141 490 0 143 1
38 144 0 +1e-8 -8.57186677451301 1 8.89 0 0 -1 16 143 405 0 126 145 140 141 31 1
44 489 0 145 141 146 0 -1e-8 0 1 0 0 1 0 0 0 1 11.516666184274 16 145 404 0 147
 148 143 144 31 146 488 0 148 144 149 0 -1e-8 0 0 7.63 0 0 -1 -1 0 0 8.684278899
25237 16 148 403 0 150 151 145 146 38 149 487 0 151 146 152 0 +1e-8 153 154 155
 156 157 16 151 402 0 73 158 148 149 38 152 486 0 158 149 159 0 +1e-8 160 154 16
1 162 163 53 153 0 0 7 164 160 1 +0 0 0 10.56 0 0 1 1 0 0 51 154 474 0 7 160 165
 2 +0 0 8.2 -1 0 0 .85 0 0 1 40 12 155 0 12 .1192826123213486 .3661646023154585
 ??-6.7887416582504 -.835816915169858 8.04537114009363 -6.23320651801125 -.80026
8985848236 8.48647783559891 -5.80587343766965 -.60190141423535 8.80017887961964
 -5.60786103198922 -.421751682524799 8.93798747840834 -5.49132664849573 -.235046
694764464 9.01685558777565 -5.44609941776937 -.0711329386022345 9.04701836169342
 -5.45090441767866 .102265509316824 9.0438256725202 -5.49850465849068 .251161450
435936 9.01204551954611 -5.6273389261311 .4442876480350895 8.92464369575913 -5.9
0362169203495 .664220869828873 8.73038725105698 -6.40306650757355 .8356366754102
58 8.35559995729206 -6.92316758301782 .806969406675059 7.93297869618605 41 1 156
 L-6.7887416582504 -.835816915169858 8.04537114009363 41 1 157 L-6.9231675830178
2 .806969406675059 7.93297869618605 51 160 0 0 7 153 154 1 +0 0 8.2 0 0 -1 6.84
 -1 0 0 50 165 63 0 166 154 167 0 +0 0 10.85 0 0 -1 -1 0 0 14 166 27 0 168 169 1
70 7 165 -51 167 56 0 169 165 171 0 +0 0 9.81 0 0 1 3.15 1 0 0 14 169 14 0 166 1
72 173 7 167 -53 171 3 0 174 167 175 0 +0 0 0 11.56 0 0 1 1 0 0 14 174 1 0 176 1
77 178 7 171 +50 175 137 0 177 171 179 0 +0 0 5.78 0 0 1 1 0 0 14 177 106 0 174
 180 181 7 175 -53 179 165 0 172 175 182 0 +0 0 0 11.56 0 0 1 1 0 0 14 172 164 0
 169 183 184 7 179 +51 182 191 0 183 179 185 0 +0 0 8.89 0 0 -1 8.63 -1 0 0 14 1
83 176 0 172 176 186 7 182 +50 185 190 0 176 182 187 0 +0 0 8.89 0 0 1 1 0 0 14
 176 173 0 183 174 188 7 185 +53 187 224 0 180 185 189 0 +0 0 0 10.56 0 0 1 1 0
 0 14 180 215 0 177 190 191 7 187 -50 189 271 0 192 187 193 0 +0 0 7.35 0 0 -1 -
1 0 0 14 192 252 0 190 194 195 7 189 +51 193 0 0 7 189 196 1 +0 0 8.2 -1 0 0 .85
 0 0 1 51 196 609 0 197 193 198 0 +0 0 8.2 0 0 -1 6.84 -1 0 0 14 197 608 0 194 1
99 200 7 196 -53 198 241 0 190 196 201 0 +0 0 0 10.56 0 0 1 1 0 0 14 190 240 0 1
80 192 202 7 198 -51 201 269 0 194 198 203 2 +0 0 8.2 0 0 -1 6.84 -1 0 0 14 194
 249 0 192 197 204 7 201 -51 203 0 0 7 201 205 1 +0 0 8.2 0 1 0 .85 0 0 1 50 205
 758 0 206 203 207 0 +0 8.63 8.77 0 0 1 1 0 0 14 206 670 0 199 208 209 7 205 -50
 207 757 0 199 205 210 0 +1 8.63 8.77 1 0 0 0 0 -1 14 199 672 0 197 206 211 7 20
7 -50 210 756 0 208 207 212 0 +-1 8.63 8.77 -1 0 0 0 0 1 14 208 668 0 206 213 21
4 7 210 -50 212 755 0 213 210 215 0 +0 8.63 7.63 0 0 -1 -1 0 0 14 213 666 0 208
 216 217 7 212 -50 215 754 0 216 212 218 0 +0 8.38 8.77 0 -1 0 0 0 -1 14 216 664
 0 213 219 220 7 215 -50 218 753 0 219 215 221 0 +0 8.38 8.77 0 -1 0 0 0 -1 14 2
19 662 0 216 222 223 7 218 -51 221 751 0 18 218 224 0 +0 8.38 8.2 0 -1 0 .57 0 0
 -1 14 18 631 0 225 12 226 7 221 -50 224 750 0 225 221 227 0 +0 8.16 8.2 0 -1 0
 0 0 -1 14 225 634 0 228 18 229 7 224 -50 227 747 0 228 224 230 0 +0 6.84 8.2 0
 1 0 0 0 1 14 228 643 0 231 225 232 7 227 -50 230 745 0 233 227 234 0 +0 7.39 8.
2 0 1 0 0 0 1 14 233 653 0 222 231 235 7 230 -51 234 744 0 231 230 236 0 +0 0 8.
2 0 1 0 .52 0 0 1 14 231 650 0 233 228 237 7 234 -51 236 740 0 222 234 20 0 +0 1
0 8.2 0 -1 0 .05 0 0 -1 14 222 656 0 219 233 238 7 236 -51 20 735 0 12 236 239 0
 +0 0 8.2 0 1 0 .85 0 0 1 53 239 0 0 7 20 24 1 +0 0 0 10.56 0 0 1 1 0 0 51 24 0
 0 7 239 15 1 +0 0 8.2 0 0 -1 6.84 -1 0 0 15 238 657 0 240 222 241 17 240 238 24
0 240 0 242 243 0 15 241 658 0 244 222 0 17 244 241 244 244 0 245 246 0 17 245 2
35 245 245 0 244 246 0 16 246 697 0 245 247 243 248 16 247 696 0 249 250 246 251
 16 243 698 0 240 246 252 253 31 248 773 0 246 251 254 0 +1e-8 0 7.39 8.2 0 1 0
 0 0 1 .05 31 251 776 0 247 255 248 0 +1e-8 0 7.39 8.2 0 -1 0 0 0 -1 .52 30 254
 772 0 256 248 257 0 +1e-8 1 8.63 8.77 0 -1 0 16 256 687 0 65 258 259 254 30 257
 770 0 258 254 260 0 +1e-8 1 8.57186677451301 8.89 0 0 -1 16 258 685 0 261 262 2
56 257 31 260 769 0 262 257 263 0 -1e-8 1 0 0 1 0 0 0 0 -1 11.516666184274 16 26
2 684 0 264 265 258 260 30 263 766 0 265 260 266 0 +1e-8 -1 8.63 7.63 0 -1 0 16
 265 681 0 267 268 262 263 30 266 765 0 268 263 269 0 -1e-8 -1 8.57186677451301
 8.89 0 0 -1 16 268 680 0 270 271 265 266 31 269 764 0 271 266 272 0 -1e-8 -1 0
 0 -1 0 0 0 0 1 11.516666184274 16 271 679 0 273 274 268 269 31 272 763 0 274 26
9 25 0 -1e-8 0 0 7.63 0 0 -1 -1 0 0 8.68427889925237 16 274 678 0 275 22 271 272
 38 25 762 0 22 272 16 0 +1e-8 239 15 276 277 278 16 22 677 0 67 13 274 25 40 12
 276 0 12 .1522607455448025 .39799054667578 ??-.826802269620917 6.8400002 8.0027
7422341463 -.815780529753834 6.29567951872993 8.43875118277101 -.565745041880869
 5.75737251500324 8.83437571484666 -.4046789218869165 5.59395508023689 8.9474857
6587146 -.1908268816105505 5.47420663745039 9.0283025421033 -.0296377637185 5.44
23870245571 9.0494831387154 .1353964197219296 5.45793807299455 9.0391470726437 .
2819458136784215 5.51364841888605 9.00187689712899 .480626818649563 5.6615869696
3565 8.90106908446657 .701465933472652 5.97313334792413 8.68004743950712 .846594
771535486 6.50419560903125 8.27600850484503 .767307145042636 7.03908040793283 7.
83429554943025 41 1 277 L-.826802269620917 6.8400002 8.00277422341463 41 1 278 L
.767307145042636 7.03908040793283 7.83429554943025 17 67 279 280 281 63 282 22 0
 15 279 238 0 281 190 0 17 280 279 73 67 77 283 284 0 17 281 279 67 73 14 285 28
6 0 17 282 19 287 288 14 67 22 0 15 19 617 0 282 12 0 17 287 19 31 282 23 21 13
 0 17 288 19 282 31 63 289 290 0 17 31 19 288 287 23 291 292 0 17 289 200 293 28
3 23 288 290 0 16 290 610 0 289 294 295 296 16 294 712 0 40 297 290 298 16 295 5
97 0 293 290 286 299 38 296 612 0 290 299 300 0 +1e-8 201 203 301 302 303 31 299
 599 0 295 304 296 0 +1e-8 0 0 7.35 0 0 -1 -1 0 0 6.84 30 300 797 0 297 296 298
 0 +1e-8 0 8.38 8.77 -1 0 0 40 10 301 0 10 .0484108775001822 .3397088914032935 ?
?.843332640268299 6.78781187555004 8.09374531606513 .760948172855108 6.797540575
69563 7.82124166249642 .593482163893229 6.81420420307028 7.59149451839724 .35837
5843080704 6.83060515291992 7.42924273918685 .082506694280235 6.83950236825743 7
.35401380306831 -.20093567583437 6.83704796342522 7.37409149769664 -.46101519313
537 6.8244461307639 7.48588166828014 -.670757691158453 6.80703196112313 7.677904
10866223 -.805966857007863 6.79234991924039 7.92996773265984 -.849914534848962 6
.78699088576465 8.21205335855568 41 1 302 L.843332640268299 6.78781187555004 8.0
9374531606513 41 1 303 L-.849914534848962 6.78699088576465 8.21205335855568 16 2
97 711 0 305 306 294 300 30 298 796 0 294 300 307 0 +1e-8 -1 8.63 8.77 0 1 0 30
 307 794 0 306 298 308 0 +1e-8 1 8.38 8.77 0 0 -1 16 306 709 0 58 309 297 307 30
 308 793 0 309 307 310 0 +1e-8 -1 8.38 8.77 0 0 -1 16 309 708 0 55 311 306 308 3
0 310 791 0 311 308 312 0 +1e-8 1 8.63 7.63 0 1 0 16 311 706 0 313 314 309 310 3
0 312 790 0 314 310 315 0 +1e-8 0 8.38 7.63 1 0 0 16 314 705 0 316 317 311 312 3
0 315 787 0 317 312 318 0 +1e-8 0 8.38 7.63 1 0 0 16 317 702 0 319 320 314 315 3
0 318 786 0 320 315 321 0 +1e-8 0 8.38 8.77 -1 0 0 16 320 701 0 62 252 317 318 3
1 321 785 0 252 318 322 0 -1e-8 0 8.38 8.2 0 -1 0 0 0 -1 .57 16 252 700 0 323 24
3 320 321 31 322 783 0 259 321 324 0 +1e-8 0 8.38 8.2 0 -1 0 0 0 -1 .57 16 259 6
89 0 49 256 325 322 31 324 782 0 325 322 253 0 +1e-8 0 8.16 8.2 0 1 0 0 0 1 .57
 16 325 690 0 326 259 292 324 31 253 781 0 243 324 327 0 -1e-8 0 8.16 8.2 0 -1 0
 0 0 -1 .05 31 327 779 0 292 253 255 0 +1e-8 0 6.84 8.2 0 -1 0 0 0 -1 .85 16 292
 692 0 291 325 250 327 31 255 777 0 250 327 251 0 -1e-8 0 6.84 8.2 0 1 0 0 0 1 .
52 16 250 695 0 328 292 247 255 17 328 237 328 328 0 329 250 0 15 237 651 0 328
 231 330 17 329 232 329 329 0 328 250 0 15 232 824 0 329 228 331 15 331 644 0 29
1 228 0 17 291 331 291 291 23 31 292 0 15 330 652 0 332 231 0 17 332 330 332 332
 0 249 247 0 17 249 333 249 249 0 332 247 0 15 333 655 0 249 233 0 17 326 229 32
6 326 0 334 325 0 15 229 635 0 326 225 335 17 334 226 334 334 0 326 325 0 15 226
 632 0 334 18 336 15 336 633 0 52 18 0 17 52 336 323 323 50 49 259 0 17 323 336
 52 52 47 337 252 0 17 49 220 338 339 47 52 259 0 15 220 665 0 338 216 0 17 338
 220 58 49 59 305 297 0 17 339 220 49 58 50 319 317 0 17 58 220 339 338 56 340 3
06 0 17 319 217 313 316 56 339 317 0 15 217 667 0 275 213 0 17 313 217 275 319 4
4 341 311 0 17 316 217 319 267 50 342 314 0 17 267 217 316 275 53 343 265 0 17 3
42 223 344 337 53 316 314 0 15 223 663 0 342 219 0 17 344 223 345 342 60 55 309
 0 17 337 223 342 345 50 323 252 0 17 345 223 337 344 47 62 320 0 17 62 209 40 3
05 60 345 320 0 15 209 671 0 346 206 0 17 40 209 346 62 38 347 294 0 17 305 209
 62 65 47 338 297 0 17 65 209 305 346 59 348 256 0 17 346 209 65 40 68 349 350 0
 17 348 211 261 340 68 65 256 0 15 211 673 0 264 199 0 17 261 211 264 348 41 70
 258 0 17 340 211 348 341 59 58 306 0 17 341 211 340 264 56 313 311 0 17 264 211
 341 261 44 43 262 0 17 43 178 351 46 41 264 262 0 15 178 579 0 37 174 352 17 35
1 178 94 43 89 353 354 0 17 46 178 43 37 44 275 274 0 17 37 178 46 355 35 273 27
1 0 17 275 217 267 313 35 46 274 0 17 355 178 37 85 32 356 357 0 17 273 214 270
 343 32 37 271 0 15 214 669 0 273 208 0 17 270 214 347 273 38 34 268 0 17 343 21
4 273 55 35 267 265 0 17 55 214 343 347 53 344 309 0 17 347 214 55 270 60 40 294
 0 17 34 186 356 349 32 270 268 0 15 186 566 0 34 183 358 17 356 186 97 34 83 35
5 357 0 17 349 186 34 70 38 346 350 0 17 70 186 349 353 68 261 258 0 16 350 562
 0 346 286 357 359 16 286 588 0 285 295 350 304 16 357 554 0 356 350 360 361 31
 359 564 0 350 361 304 0 -1e-8 0 0 8.77 0 0 1 1 0 0 8.63 31 361 556 0 357 362 35
9 0 -1e-8 0 0 7.69133928519604 0 0 -1 -1 0 0 8.63 31 304 590 0 286 359 299 0 -1e
-8 0 0 8.04537134009363 0 0 -1 -1 0 0 6.84 38 362 337 0 360 363 361 0 +1e-8 201
 193 364 365 366 16 360 335 0 367 357 368 362 30 363 296 0 368 369 362 0 -1e-8 -
8.57186677451301 -1 8.89 0 0 -1 40 10 364 0 10 .0483737759714924 .33973664944208
2 ??-6.78874141211852 .835816989171066 8.04537154009363 -6.80009761817548 .73774
8184195746 7.77782987230753 -6.81728021428768 .557037233837808 7.55796454917324
 -6.83285031656861 .312660441003147 7.40959285894438 -6.83992000350395 .03308089
57945231 7.35064397668973 -6.83548823585636 -.248396009366583 7.38710429787656 -
6.82158140613959 -.501624480473794 7.51379822166553 -6.80407773031457 -.70009016
5505379 7.71794838433768 -6.79062405547577 -.820380970765308 7.97757009462266 -6
.78725808124867 -.847778118687128 8.26141873879619 41 1 365 L-6.78874141211852 .
835816989171066 8.04537154009363 41 1 366 L-6.78725808124867 -.847778118687128 8
.26141873879619 16 368 295 0 370 360 284 363 31 369 273 0 284 371 363 0 -1e-8 0
 0 8.04537134009363 0 0 -1 -1 0 0 6.84 16 284 261 0 283 368 372 369 31 371 275 0
 372 373 369 0 +1e-8 0 0 7.35 0 0 -1 -1 0 0 6.84 16 372 263 0 374 284 375 371 31
 373 233 0 375 376 371 0 -1e-8 0 0 7.35 0 0 -1 -1 0 0 7.58228857271998 16 375 23
0 0 377 372 378 373 31 376 211 0 378 379 373 0 +1e-8 0 0 5.78 0 0 1 1 0 0 8.8377
1463671463 16 378 208 0 380 375 381 376 31 379 205 0 381 382 376 0 +1e-8 0 0 10.
07924104285634 0 0 -1 -1 0 0 3.15 16 381 202 0 383 378 384 379 31 382 195 0 385
 386 379 0 -1e-8 0 0 8.89 0 0 1 1 0 0 7.38928277981023 16 385 186 0 387 384 354
 382 31 386 196 0 354 388 382 0 -1e-8 0 0 7.69133928519604 0 0 -1 -1 0 0 8.63 16
 354 187 0 353 385 389 386 31 388 198 0 389 390 386 0 +1e-8 0 0 8.89 0 0 -1 -1 0
 0 8.63 16 389 189 0 391 354 392 388 31 390 91 0 384 393 388 0 -1e-8 0 0 5.78 0
 0 1 1 0 0 10.0112536677481 16 384 88 0 394 381 385 390 31 393 7 0 392 159 390 0
 -1e-8 0 0 10.85 0 0 -1 -1 0 0 3.98887202101045 16 392 4 0 395 389 396 393 31 15
9 65 0 396 152 393 0 +1e-8 0 0 10.85 0 0 -1 -1 0 0 3.15 16 396 33 0 397 392 158
 159 17 397 398 397 397 0 399 396 0 16 158 401 0 79 396 151 152 17 79 200 283 29
3 77 400 158 0 15 200 606 0 283 197 0 17 283 200 289 79 63 280 284 0 17 293 200
 79 289 80 401 295 0 17 400 402 82 403 80 79 158 0 15 402 342 0 403 168 0 17 82
 402 404 400 80 405 406 0 17 403 402 400 404 77 73 151 0 17 404 402 403 82 71 36
7 360 0 17 73 279 281 280 71 403 151 0 17 367 204 374 285 80 404 360 0 15 204 25
1 0 374 194 0 17 374 204 21 367 23 407 372 0 17 285 204 367 21 71 281 286 0 17 2
1 204 285 374 14 287 13 0 17 407 408 401 401 80 374 372 0 15 408 254 0 407 192 0
 17 401 408 407 407 23 293 295 0 17 405 409 405 405 80 82 406 0 16 406 417 0 405
 132 410 411 16 132 415 0 412 128 406 413 16 410 420 0 414 406 415 416 31 411 50
4 0 406 417 416 0 +1e-8 -6.84 0 8.2 1 0 0 0 0 -1 .85 31 417 506 0 418 413 411 0
 -1e-8 -8.16 0 8.2 1 0 0 0 0 -1 .05 31 416 502 0 410 411 136 0 -1e-8 -6.84 0 8.2
 -1 0 0 0 0 1 .52 31 136 501 0 415 416 134 0 +1e-8 -7.39 0 8.2 1 0 0 0 0 -1 .52
 16 415 421 0 419 410 135 136 17 419 420 419 419 0 421 415 0 16 135 422 0 422 41
5 418 134 17 422 423 422 422 0 424 135 0 16 418 423 0 425 135 426 417 17 425 427
 425 425 0 428 418 0 16 426 425 0 429 418 430 431 17 429 432 103 103 98 433 426
 0 16 430 426 0 434 426 435 436 31 431 510 0 426 436 133 0 -1e-8 -8.38 0 8.2 1 0
 0 0 0 -1 .57 30 436 511 0 430 437 431 0 +1e-8 -8.38 0 7.63 0 1 0 31 133 508 0 1
28 431 413 0 +1e-8 -8.38 0 8.2 1 0 0 0 0 -1 .57 31 413 507 0 132 133 417 0 +1e-8
 -8.16 0 8.2 -1 0 0 0 0 1 .57 30 437 512 0 435 438 436 0 +1e-8 -8.38 0 8.77 0 -1
 0 16 435 427 0 112 430 439 437 30 438 513 0 439 440 437 0 +1e-8 -8.63 1 7.63 -1
 0 0 16 439 428 0 441 435 442 438 30 440 516 0 442 443 438 0 +1e-8 -8.38 0 7.63
 0 1 0 16 442 431 0 444 439 445 440 30 443 519 0 445 446 440 0 +1e-8 -8.38 -1 8.
77 0 0 -1 16 445 434 0 106 442 447 443 30 446 520 0 447 448 443 0 +1e-8 -8.38 1
 8.77 0 0 -1 16 447 435 0 109 445 449 446 30 448 522 0 449 450 446 0 +1e-8 -8.63
 -1 8.77 -1 0 0 16 449 436 0 123 447 122 448 30 450 523 0 122 0 448 0 +1e-8 -8.3
8 0 8.77 0 -1 0 16 122 439 0 116 449 0 450 17 123 115 117 112 74 451 449 0 17 11
2 115 123 116 110 452 435 0 17 451 453 106 370 110 123 449 0 15 453 396 0 142 45
4 0 17 106 453 455 451 104 456 445 0 17 370 453 451 142 74 91 368 0 17 142 453 3
70 455 89 94 140 0 17 91 186 353 76 89 370 368 0 17 353 186 70 91 41 351 354 0 1
7 76 186 91 97 74 117 124 0 17 97 186 76 356 95 126 143 0 17 126 125 147 118 83
 97 143 0 15 125 394 0 147 457 0 17 147 125 458 126 86 85 145 0 17 458 125 127 1
47 107 441 439 0 17 85 178 355 88 83 147 145 0 17 88 178 85 94 86 150 148 0 17 9
4 178 88 351 92 142 140 0 17 150 459 139 441 92 88 148 0 15 459 392 0 150 460 0
 17 139 459 444 150 104 455 130 0 17 441 459 150 434 86 458 439 0 17 434 459 441
 444 107 461 430 0 17 444 459 434 139 101 462 442 0 17 461 463 100 109 101 434 4
30 0 15 463 390 0 121 464 0 17 100 463 121 461 98 103 128 0 17 109 463 461 121 1
07 127 447 0 17 121 463 109 100 113 116 122 0 17 127 125 118 458 113 109 447 0 1
7 103 432 429 429 101 100 128 0 15 432 358 0 103 465 0 14 465 356 0 466 168 467
 7 468 -14 466 359 0 469 465 470 7 471 -14 168 341 0 465 166 402 7 164 -15 467 3
57 0 472 465 432 51 468 476 0 465 473 471 0 +-8.38 0 8.2 1 0 0 .57 0 0 -1 50 473
 478 0 474 475 468 0 +-8.38 0 8.77 1 0 0 0 0 -1 50 471 475 0 466 468 476 0 +-8.1
6 0 8.2 1 0 0 0 0 -1 50 476 472 0 469 471 477 0 +-6.84 0 8.2 -1 0 0 0 0 1 14 469
 368 0 478 466 479 7 476 -50 477 470 0 480 476 481 0 +-7.39 0 8.2 -1 0 0 0 0 1 1
4 480 378 0 482 478 423 7 477 -51 481 469 0 478 477 483 0 +0 0 8.2 -1 0 0 .52 0
 0 1 14 478 375 0 480 469 484 7 481 -51 483 465 0 482 481 164 0 +-10 0 8.2 1 0 0
 .05 0 0 -1 14 482 381 0 474 480 427 7 483 -51 164 460 0 168 483 153 0 +0 0 8.2
 -1 0 0 .85 0 0 1 14 474 387 0 464 482 485 7 473 -15 427 382 0 425 482 486 15 48
6 383 0 424 482 0 17 424 486 424 424 0 422 135 0 14 464 389 0 460 474 463 7 475
 -15 485 388 0 462 474 0 17 462 485 456 433 104 444 442 0 17 456 485 452 462 110
 106 445 0 17 433 485 462 452 101 429 426 0 17 452 485 433 456 98 112 435 0 14 4
60 391 0 457 464 459 7 487 -50 475 479 0 464 487 473 0 +-8.38 0 8.77 1 0 0 0 0 -
1 50 487 480 0 460 488 475 0 +-8.63 0 7.63 0 0 -1 -1 0 0 50 488 481 0 457 489 48
7 0 +-8.63 1 8.77 0 1 0 0 0 1 14 457 393 0 454 460 125 7 488 -50 489 482 0 454 4
90 488 0 +-8.63 -1 8.77 0 -1 0 0 0 -1 14 454 395 0 120 457 453 7 489 -50 490 483
 0 120 0 489 0 +-8.63 0 8.77 0 0 1 1 0 0 14 120 397 0 0 454 115 7 490 -15 484 37
6 0 414 478 491 17 414 484 414 414 0 492 410 0 15 491 377 0 421 478 0 17 421 491
 421 421 0 419 415 0 17 492 479 492 492 0 414 410 0 15 479 825 0 492 469 409 15
 409 369 0 405 469 0 15 423 379 0 422 480 420 15 420 380 0 419 480 0 17 472 467
 472 472 0 412 132 0 17 412 470 412 412 0 472 132 0 15 470 360 0 412 466 493 15
 493 361 0 428 466 0 17 428 493 428 428 0 425 418 0 17 455 453 142 106 92 139 13
0 0 15 398 29 0 397 166 0 17 399 494 399 399 0 397 396 0 15 494 16 0 399 169 0 1
7 395 170 395 395 0 495 392 0 15 170 28 0 395 166 398 17 495 496 495 495 0 395 3
92 0 15 496 6 0 495 172 0 17 394 497 394 394 0 498 384 0 15 497 107 0 394 177 0
 17 498 352 498 498 0 394 384 0 15 352 90 0 498 174 0 17 391 358 391 391 0 499 3
89 0 15 358 177 0 391 183 0 17 499 188 499 499 0 391 389 0 15 188 174 0 499 176
 500 15 500 175 0 387 176 0 17 387 500 387 387 0 501 385 0 17 501 184 501 501 0
 387 385 0 15 184 168 0 501 172 496 17 383 173 383 383 0 502 381 0 15 173 203 0
 383 169 494 17 502 202 502 502 0 383 381 0 15 202 216 0 502 190 279 17 380 181
 380 380 0 503 378 0 15 181 209 0 380 177 497 17 503 504 503 503 0 380 378 0 15
 504 217 0 503 180 0 17 377 191 377 377 0 505 375 0 15 191 231 0 377 180 504 17
 505 195 505 505 0 377 375 0 15 195 253 0 505 192 408 15 335 636 0 242 225 0 17
 242 335 242 242 0 240 243 0 15 235 654 0 245 233 333 40 10 161 0 10 .0483737759
714924 .339736649442082 ??-6.78874141211852 .835816989171066 8.04537154009363 -6
.80009761817548 .737748184195746 7.77782987230753 -6.81728021428768 .55703723383
7808 7.55796454917324 -6.83285031656861 .312660441003147 7.40959285894438 -6.839
92000350395 .0330808957945231 7.35064397668973 -6.83548823585636 -.2483960093665
83 7.38710429787656 -6.82158140613959 -.501624480473794 7.51379822166553 -6.8040
7773031457 -.700090165505379 7.71794838433768 -6.79062405547577 -.82038097076530
8 7.97757009462266 -6.78725808124867 -.847778118687128 8.26141873879619 41 1 162
 L-6.78874141211852 .835816989171066 8.04537154009363 41 1 163 L-6.7872580812486
7 -.847778118687128 8.26141873879619 40 10 26 0 10 .0484108775001822 .3397088914
032935 ??.843332640268299 6.78781187555004 8.09374531606513 .760948172855108 6.7
9754057569563 7.82124166249642 .593482163893229 6.81420420307028 7.5914945183972
4 .358375843080704 6.83060515291992 7.42924273918685 .082506694280235 6.83950236
825743 7.35401380306831 -.20093567583437 6.83704796342522 7.37409149769664 -.461
01519313537 6.8244461307639 7.48588166828014 -.670757691158453 6.80703196112313
 7.67790410866223 -.805966857007863 6.79234991924039 7.92996773265984 -.84991453
4848962 6.78699088576465 8.21205335855568 41 1 27 L.843332640268299 6.7878118755
5004 8.09374531606513 41 1 28 L-.849914534848962 6.78699088576465 8.212053358555
68 74 20 11 1 0 2 0 0 0 0 0 0 0 0 0 0 0 0 0 0 0 0 0 0 0 80 2 8 506 8004 507 0 0
 0 0 3 5 0 0 FFTFFFFFFFFF2 3 83 1 9 .098 84 7 10 density79 16 507 SDL/TYSA_DENSI
TY1 0 
