  0
SECTION
  2
HEADER
  9
$ACADVER
  1
AC1009
  9
$INSBASE
 10
0.0
 20
0.0
 30
0.0
  9
$EXTMIN
 10
-2.0
 20
-2.0
 30
-0.148538
  9
$EXTMAX
 10
6.0
 20
6.0
 30
4.0
  9
$LIMMIN
 10
0.0
 20
0.0
  9
$LIMMAX
 10
12.0
 20
9.0
  9
$ORTHOMODE
 70
     0
  9
$REGENMODE
 70
     1
  9
$FILLMODE
 70
     1
  9
$QTEXTMODE
 70
     0
  9
$MIRRTEXT
 70
     1
  9
$DRAGMODE
 70
     2
  9
$LTSCALE
 40
1.0
  9
$OSMODE
 70
     0
  9
$ATTMODE
 70
     1
  9
$TEXTSIZE
 40
0.2
  9
$TRACEWID
 40
0.05
  9
$TEXTSTYLE
  7
STANDARD
  9
$CLAYER
  8
0
  9
$CELTYPE
  6
BYLAYER
  9
$CECOLOR
 62
   256
  9
$DIMSCALE
 40
1.0
  9
$DIMASZ
 40
0.18
  9
$DIMEXO
 40
0.0625
  9
$DIMDLI
 40
0.38
  9
$DIMRND
 40
0.0
  9
$DIMDLE
 40
0.0
  9
$DIMEXE
 40
0.18
  9
$DIMTP
 40
0.0
  9
$DIMTM
 40
0.0
  9
$DIMTXT
 40
0.18
  9
$DIMCEN
 40
0.09
  9
$DIMTSZ
 40
0.0
  9
$DIMTOL
 70
     0
  9
$DIMLIM
 70
     0
  9
$DIMTIH
 70
     1
  9
$DIMTOH
 70
     1
  9
$DIMSE1
 70
     0
  9
$DIMSE2
 70
     0
  9
$DIMTAD
 70
     0
  9
$DIMZIN
 70
     0
  9
$DIMBLK
  1

  9
$DIMASO
 70
     1
  9
$DIMSHO
 70
     1
  9
$DIMPOST
  1

  9
$DIMAPOST
  1

  9
$DIMALT
 70
     0
  9
$DIMALTD
 70
     2
  9
$DIMALTF
 40
25.4
  9
$DIMLFAC
 40
1.0
  9
$DIMTOFL
 70
     0
  9
$DIMTVP
 40
0.0
  9
$DIMTIX
 70
     0
  9
$DIMSOXD
 70
     0
  9
$DIMSAH
 70
     0
  9
$DIMBLK1
  1

  9
$DIMBLK2
  1

  9
$DIMSTYLE
  2
*UNNAMED
  9
$DIMCLRD
 70
     0
  9
$DIMCLRE
 70
     0
  9
$DIMCLRT
 70
     0
  9
$DIMTFAC
 40
1.0
  9
$DIMGAP
 40
0.09
  9
$LUNITS
 70
     2
  9
$LUPREC
 70
     4
  9
$SKETCHINC
 40
0.1
  9
$FILLETRAD
 40
0.0
  9
$AUNITS
 70
     0
  9
$AUPREC
 70
     0
  9
$MENU
  1
acad
  9
$ELEVATION
 40
0.0
  9
$PELEVATION
 40
0.0
  9
$THICKNESS
 40
0.0
  9
$LIMCHECK
 70
     0
  9
$BLIPMODE
 70
     1
  9
$CHAMFERA
 40
0.0
  9
$CHAMFERB
 40
0.0
  9
$SKPOLY
 70
     0
  9
$TDCREATE
 40
2449371.727222500
  9
$TDUPDATE
 40
2449371.727222500
  9
$TDINDWG
 40
0.0000000000
  9
$TDUSRTIMER
 40
0.0000000000
  9
$USRTIMER
 70
     1
  9
$ANGBASE
 50
0.0
  9
$ANGDIR
 70
     0
  9
$PDMODE
 70
     0
  9
$PDSIZE
 40
0.0
  9
$PLINEWID
 40
0.0
  9
$COORDS
 70
     1
  9
$SPLFRAME
 70
     0
  9
$SPLINETYPE
 70
     6
  9
$SPLINESEGS
 70
     8
  9
$ATTDIA
 70
     0
  9
$ATTREQ
 70
     1
  9
$HANDLING
 70
     1
  9
$HANDSEED
  5
7E
  9
$SURFTAB1
 70
     6
  9
$SURFTAB2
 70
     6
  9
$SURFTYPE
 70
     6
  9
$SURFU
 70
     6
  9
$SURFV
 70
     6
  9
$UCSNAME
  2

  9
$UCSORG
 10
0.0
 20
0.0
 30
0.0
  9
$UCSXDIR
 10
1.0
 20
0.0
 30
0.0
  9
$UCSYDIR
 10
0.0
 20
1.0
 30
0.0
  9
$PUCSNAME
  2

  9
$PUCSORG
 10
0.0
 20
0.0
 30
0.0
  9
$PUCSXDIR
 10
1.0
 20
0.0
 30
0.0
  9
$PUCSYDIR
 10
0.0
 20
1.0
 30
0.0
  9
$USERI1
 70
     0
  9
$USERI2
 70
     0
  9
$USERI3
 70
     0
  9
$USERI4
 70
     0
  9
$USERI5
 70
     0
  9
$USERR1
 40
0.0
  9
$USERR2
 40
0.0
  9
$USERR3
 40
0.0
  9
$USERR4
 40
0.0
  9
$USERR5
 40
0.0
  9
$WORLDVIEW
 70
     1
  9
$SHADEDGE
 70
     3
  9
$SHADEDIF
 70
    70
  9
$TILEMODE
 70
     1
  9
$MAXACTVP
 70
    16
  9
$PINSBASE
 10
0.0
 20
0.0
 30
0.0
  9
$PLIMCHECK
 70
     0
  9
$PEXTMIN
 10
1.000000E+20
 20
1.000000E+20
 30
1.000000E+20
  9
$PEXTMAX
 10
-1.000000E+20
 20
-1.000000E+20
 30
-1.000000E+20
  9
$PLIMMIN
 10
0.0
 20
0.0
  9
$PLIMMAX
 10
12.0
 20
9.0
  9
$UNITMODE
 70
     0
  9
$VISRETAIN
 70
     0
  9
$PLINEGEN
 70
     0
  9
$PSLTSCALE
 70
     1
  9
$TREEDEPTH
 70
  3020
  9
$DWGCODEPAGE
  3
ascii
  0
ENDSEC
  0
SECTION
  2
TABLES
  0
TABLE
  2
VPORT
 70
     2
  0
VPORT
  2
*ACTIVE
 70
     0
 10
0.0
 20
0.0
 11
1.0
 21
1.0
 12
0.577492
 22
0.865834
 13
0.0
 23
0.0
 14
1.0
 24
1.0
 15
0.0
 25
0.0
 16
1.0
 26
2.0
 36
1.0
 17
0.0
 27
0.0
 37
0.0
 40
8.57553
 41
1.594883
 42
50.0
 43
0.0
 44
0.0
 50
0.0
 51
0.0
 71
     0
 72
   100
 73
     1
 74
     1
 75
     0
 76
     0
 77
     0
 78
     0
  0
ENDTAB
  0
TABLE
  2
LTYPE
 70
     1
  0
LTYPE
  2
CONTINUOUS
 70
    64
  3
Solid line
 72
    65
 73
     0
 40
0.0
  0
ENDTAB
  0
TABLE
  2
LAYER
 70
     2
  0
LAYER
  2
0
 70
    64
 62
     7
  6
CONTINUOUS
  0
LAYER
  2
AME_FRZ
 70
    65
 62
     7
  6
CONTINUOUS
  0
ENDTAB
  0
TABLE
  2
STYLE
 70
     1
  0
STYLE
  2
STANDARD
 70
     0
 40
0.0
 41
1.0
 50
0.0
 71
     0
 42
0.2
  3
txt
  4

  0
ENDTAB
  0
TABLE
  2
VIEW
 70
     0
  0
ENDTAB
  0
TABLE
  2
UCS
 70
     0
  0
ENDTAB
  0
TABLE
  2
APPID
 70
     3
  0
APPID
  2
ACAD
 70
    64
  0
APPID
  2
AME_SOL
 70
    64
  0
APPID
  2
AVE_INVOKE
 70
    64
  0
ENDTAB
  0
TABLE
  2
DIMSTYLE
 70
     0
  0
ENDTAB
  0
ENDSEC
  0
SECTION
  2
BLOCKS
  0
BLOCK
  8
0
  5
1
  2
AME_NIL
 70
    64
 10
0.0
 20
0.0
 30
0.0
  1
AME_NIL
  3
AME_NIL
  0
ENDBLK
  8
0
  5
2
  0
BLOCK
  8
0
  5
4
  2
AME_SOL
 70
    64
 10
0.0
 20
0.0
 30
0.0
  1
AME_SOL
  3
AME_SOL
  0
ENDBLK
  8
0
  5
5
  0
BLOCK
  8
0
  5
35
  2
SOLAXES
 70
     0
 10
0.0
 20
0.0
 30
0.0
  1
SOLAXES
  3
SOLAXES
  0
LINE
  8
0
 62
     0
  5
36
 10
0.0
 20
0.0
 30
0.0
 11
2.970759
 21
0.0
 31
0.0
  0
LINE
  8
0
 62
     0
  5
37
 10
0.0
 20
0.0
 30
0.0
 11
0.0
 21
2.970759
 31
0.0
  0
LINE
  8
0
 62
     0
  5
38
 10
0.0
 20
0.0
 30
0.0
 11
0.0
 21
0.0
 31
2.970759
  0
CIRCLE
  8
0
 62
     0
  5
39
 10
0.0
 20
0.0
 30
2.673683
 40
0.148538
210
1.0
220
0.0
230
0.0
  0
LINE
  8
0
 62
     0
  5
3A
 10
2.673683
 20
0.148538
 30
0.0
 11
2.970759
 21
0.0
 31
0.0
  0
LINE
  8
0
 62
     0
  5
3B
 10
2.673683
 20
0.0
 30
0.148538
 11
2.970759
 21
0.0
 31
0.0
  0
LINE
  8
0
 62
     0
  5
3C
 10
2.673683
 20
-0.148538
 30
0.0
 11
2.970759
 21
0.0
 31
0.0
  0
LINE
  8
0
 62
     0
  5
3D
 10
2.673683
 20
0.0
 30
-0.148538
 11
2.970759
 21
0.0
 31
0.0
  0
CIRCLE
  8
0
 62
     0
  5
3E
 10
0.0
 20
0.0
 30
2.673683
 40
0.148538
210
0.0
220
1.0
230
0.0
  0
LINE
  8
0
 62
     0
  5
3F
 10
0.148538
 20
2.673683
 30
0.0
 11
0.0
 21
2.970759
 31
0.0
  0
LINE
  8
0
 62
     0
  5
40
 10
0.0
 20
2.673683
 30
0.148538
 11
0.0
 21
2.970759
 31
0.0
  0
LINE
  8
0
 62
     0
  5
41
 10
-0.148538
 20
2.673683
 30
0.0
 11
0.0
 21
2.970759
 31
0.0
  0
LINE
  8
0
 62
     0
  5
42
 10
0.0
 20
2.673683
 30
-0.148538
 11
0.0
 21
2.970759
 31
0.0
  0
CIRCLE
  8
0
 62
     0
  5
43
 10
0.0
 20
0.0
 30
2.376607
 40
0.148538
210
0.0
220
1.0
230
0.0
  0
LINE
  8
0
 62
     0
  5
44
 10
0.148538
 20
2.376607
 30
0.0
 11
0.0
 21
2.673683
 31
0.0
  0
LINE
  8
0
 62
     0
  5
45
 10
0.0
 20
2.376607
 30
0.148538
 11
0.0
 21
2.673683
 31
0.0
  0
LINE
  8
0
 62
     0
  5
46
 10
-0.148538
 20
2.376607
 30
0.0
 11
0.0
 21
2.673683
 31
0.0
  0
LINE
  8
0
 62
     0
  5
47
 10
0.0
 20
2.376607
 30
-0.148538
 11
0.0
 21
2.673683
 31
0.0
  0
CIRCLE
  8
0
 62
     0
  5
48
 10
0.0
 20
0.0
 30
2.673683
 40
0.148538
  0
LINE
  8
0
 62
     0
  5
49
 10
0.148538
 20
0.0
 30
2.673683
 11
0.0
 21
0.0
 31
2.970759
  0
LINE
  8
0
 62
     0
  5
4A
 10
0.0
 20
0.148538
 30
2.673683
 11
0.0
 21
0.0
 31
2.970759
  0
LINE
  8
0
 62
     0
  5
4B
 10
-0.148538
 20
0.0
 30
2.673683
 11
0.0
 21
0.0
 31
2.970759
  0
LINE
  8
0
 62
     0
  5
4C
 10
0.0
 20
-0.148538
 30
2.673683
 11
0.0
 21
0.0
 31
2.970759
  0
CIRCLE
  8
0
 62
     0
  5
4D
 10
0.0
 20
0.0
 30
2.376607
 40
0.148538
  0
LINE
  8
0
 62
     0
  5
4E
 10
0.148538
 20
0.0
 30
2.376607
 11
0.0
 21
0.0
 31
2.673683
  0
LINE
  8
0
 62
     0
  5
4F
 10
0.0
 20
0.148538
 30
2.376607
 11
0.0
 21
0.0
 31
2.673683
  0
LINE
  8
0
 62
     0
  5
50
 10
-0.148538
 20
0.0
 30
2.376607
 11
0.0
 21
0.0
 31
2.673683
  0
LINE
  8
0
 62
     0
  5
51
 10
0.0
 20
-0.148538
 30
2.376607
 11
0.0
 21
0.0
 31
2.673683
  0
CIRCLE
  8
0
 62
     0
  5
52
 10
0.0
 20
0.0
 30
2.079531
 40
0.148538
  0
LINE
  8
0
 62
     0
  5
53
 10
0.148538
 20
0.0
 30
2.079531
 11
0.0
 21
0.0
 31
2.376607
  0
LINE
  8
0
 62
     0
  5
54
 10
0.0
 20
0.148538
 30
2.079531
 11
0.0
 21
0.0
 31
2.376607
  0
LINE
  8
0
 62
     0
  5
55
 10
-0.148538
 20
0.0
 30
2.079531
 11
0.0
 21
0.0
 31
2.376607
  0
LINE
  8
0
 62
     0
  5
56
 10
0.0
 20
-0.148538
 30
2.079531
 11
0.0
 21
0.0
 31
2.376607
  0
ENDBLK
  8
0
  5
57
  0
BLOCK
  8
0
  5
5B
  2
*U6
 70
    65
 10
0.0
 20
0.0
 30
0.0
  1
*U
  3
*U
  0
LINE
  8
0
 62
     7
  5
5C
 10
6.0
 20
6.0
 30
0.0
 11
6.0
 21
6.0
 31
4.0
1001
AME_SOL
1070
     1
1071
       33
  0
LINE
  8
0
 62
     7
  5
5D
 10
6.0
 20
6.0
 30
4.0
 11
6.0
 21
0.0
 31
4.0
1001
AME_SOL
1070
     1
1071
       32
  0
LINE
  8
0
 62
     7
  5
5E
 10
4.0
 20
6.0
 30
4.0
 11
6.0
 21
6.0
 31
4.0
1001
AME_SOL
1070
     1
1071
       31
  0
LINE
  8
0
 62
     7
  5
5F
 10
0.0
 20
6.0
 30
4.0
 11
2.0
 21
6.0
 31
4.0
1001
AME_SOL
1070
     1
1071
       30
  0
LINE
  8
0
 62
     7
  5
60
 10
0.0
 20
6.0
 30
0.0
 11
0.0
 21
6.0
 31
4.0
1001
AME_SOL
1070
     1
1071
       29
  0
LINE
  8
0
 62
     7
  5
61
 10
0.0
 20
6.0
 30
4.0
 11
0.0
 21
0.0
 31
4.0
1001
AME_SOL
1070
     1
1071
       28
  0
LINE
  8
0
 62
     7
  5
62
 10
0.0
 20
0.0
 30
0.0
 11
0.0
 21
0.0
 31
4.0
1001
AME_SOL
1070
     1
1071
       27
  0
LINE
  8
0
 62
     7
  5
63
 10
6.0
 20
0.0
 30
4.0
 11
6.0
 21
0.0
 31
0.0
1001
AME_SOL
1070
     1
1071
       26
  0
LINE
  8
0
 62
     7
  5
64
 10
0.0
 20
0.0
 30
4.0
 11
6.0
 21
0.0
 31
4.0
1001
AME_SOL
1070
     1
1071
       25
  0
LINE
  8
0
 62
     7
  5
65
 10
0.0
 20
0.0
 30
0.0
 11
6.0
 21
0.0
 31
0.0
1001
AME_SOL
1070
     1
1071
       24
  0
LINE
  8
0
 62
     7
  5
66
 10
0.0
 20
6.0
 30
0.0
 11
0.0
 21
0.0
 31
0.0
1001
AME_SOL
1070
     1
1071
       23
  0
LINE
  8
0
 62
     7
  5
67
 10
6.0
 20
0.0
 30
0.0
 11
6.0
 21
6.0
 31
0.0
1001
AME_SOL
1070
     1
1071
       22
  0
LINE
  8
0
 62
     7
  5
68
 10
2.0
 20
6.0
 30
0.0
 11
0.0
 21
6.0
 31
0.0
1001
AME_SOL
1070
     1
1071
       21
  0
LINE
  8
0
 62
     7
  5
69
 10
6.0
 20
6.0
 30
0.0
 11
4.0
 21
6.0
 31
0.0
1001
AME_SOL
1070
     1
1071
       20
  0
LINE
  8
0
 62
     7
  5
6A
 10
4.0
 20
6.0
 30
0.0
 11
4.0
 21
4.732051
 31
0.0
1001
AME_SOL
1070
     1
1071
       19
  0
LINE
  8
0
 62
     7
  5
6B
 10
4.0
 20
6.0
 30
4.0
 11
4.0
 21
6.0
 31
0.0
1001
AME_SOL
1070
     1
1071
       18
  0
LINE
  8
0
 62
     7
  5
6C
 10
4.0
 20
4.732051
 30
4.0
 11
4.0
 21
6.0
 31
4.0
1001
AME_SOL
1070
     1
1071
       17
  0
LINE
  8
0
 62
     7
  5
6D
 10
2.0
 20
4.732051
 30
0.0
 11
2.0
 21
6.0
 31
0.0
1001
AME_SOL
1070
     1
1071
       16
  0
LINE
  8
0
 62
     7
  5
6E
 10
2.0
 20
6.0
 30
0.0
 11
2.0
 21
6.0
 31
4.0
1001
AME_SOL
1070
     1
1071
       15
  0
LINE
  8
0
 62
     7
  5
6F
 10
2.0
 20
6.0
 30
4.0
 11
2.0
 21
4.732051
 31
4.0
1001
AME_SOL
1070
     1
1071
       14
  0
ARC
  8
0
 62
     7
  5
70
 10
3.0
 20
3.0
 30
0.0
 40
2.0
 50
120.0
 51
60.0
1001
AME_SOL
1070
     1
1071
       13
  0
LINE
  8
0
 62
     7
  5
71
 10
2.0
 20
4.732051
 30
0.0
 11
2.0
 21
4.732051
 31
4.0
1001
AME_SOL
1070
     1
1071
       12
  0
ARC
  8
0
 62
     7
  5
72
 10
3.0
 20
3.0
 30
4.0
 40
2.0
 50
120.0
 51
60.0
1001
AME_SOL
1070
     1
1071
       11
  0
LINE
  8
0
 62
     7
  5
73
 10
4.0
 20
4.732051
 30
0.0
 11
4.0
 21
4.732051
 31
4.0
1001
AME_SOL
1070
     1
1071
       10
  0
LINE
  8
0
 62
     7
  5
74
 10
1.0
 20
3.0
 30
0.0
 11
1.0
 21
3.0
 31
4.0
1001
AME_SOL
1070
     0
1071
        1
  0
LINE
  8
0
 62
     7
  5
75
 10
3.0
 20
1.0
 30
0.0
 11
3.0
 21
1.0
 31
4.0
1001
AME_SOL
1070
     0
1071
        1
  0
LINE
  8
0
 62
     7
  5
76
 10
5.0
 20
3.0
 30
0.0
 11
5.0
 21
3.0
 31
4.0
1001
AME_SOL
1070
     0
1071
        1
  0
ENDBLK
  8
0
  5
77
  0
BLOCK
  8
0
  5
7B
  2
AME_JNK
 70
     0
 10
0.0
 20
0.0
 30
0.0
  1
AME_JNK
  3
AME_JNK
  0
ENDBLK
  8
0
  5
7C
  0
ENDSEC
  0
SECTION
  2
ENTITIES
  0
INSERT
  8
AME_FRZ
  5
3
  2
AME_NIL
 10
0.0
 20
0.0
 30
0.0
  0
INSERT
  8
AME_FRZ
  5
6
  2
AME_SOL
 10
0.0
 20
0.0
 30
0.0
1001
AME_SOL
1000
R2.1
1000
AME2
1000
sq cm
1070
     3
1070
     0
1070
     3
1000
wire
1040
45.0
1000
U
1040
1.0
1000
cm
1000
gm
1000
MILD_STEEL
1070
    25
1000
CSG
1070
     1
1070
     3
1070
     3
1070
     3
1070
     0
1000
cu cm
1070
     1
1070
     0
1005
3
  0
INSERT
  8
AME_FRZ
  5
15
  2
AME_NIL
 10
0.0
 20
0.0
 30
0.0
1001
AME_SOL
1002
{
1070
     1
1071
  2388864
1070
  1536
1070
     1
1010
6.0
1020
6.0
1030
4.0
1005
0
1005
0
1005
78
1040
0.0
1040
1.0
1070
     0
1000
MILD_STEEL
1000
0
1010
0.0
1020
0.0
1030
0.0
1010
0.0
1020
0.0
1030
1.0
1040
0.0
1002
}
1001
AVE_INVOKE
1000
SOLAVEMESH
  0
INSERT
  8
AME_FRZ
  5
26
  2
AME_NIL
 10
2.0
 20
3.0
 30
0.0
1001
AME_SOL
1002
{
1070
     1
1071
  2403536
1070
  1536
1070
     1
1010
2.0
1020
3.0
1030
4.0
1005
0
1005
0
1005
59
1040
0.0
1040
1.0
1070
     0
1000
MILD_STEEL
1000
0
1010
2.0
1020
3.0
1030
0.0
1010
0.0
1020
0.0
1030
1.0
1040
0.0
1002
}
1001
AVE_INVOKE
1000
SOLAVEMESH
  0
INSERT
  8
AME_FRZ
  5
32
  2
AME_NIL
 10
3.0
 20
3.0
 30
0.0
1001
AME_SOL
1002
{
1070
     1
1071
  2420512
1070
  1538
1070
     1
1010
2.0
1020
2.0
1030
4.0
1005
0
1005
0
1005
59
1040
0.0
1040
1.0
1070
     0
1000
MILD_STEEL
1000
0
1010
3.0
1020
3.0
1030
0.0
1010
0.0
1020
0.0
1030
1.0
1040
0.0
1002
}
  0
INSERT
  8
AME_FRZ
  5
59
  2
AME_NIL
 10
0.0
 20
0.0
 30
0.0
1001
AME_SOL
1002
{
1070
     1
1071
  2442832
1070
   775
1070
     0
1070
     2
1005
26
1005
32
1005
0
1005
0
1005
78
1040
0.0
1040
1.0
1070
     0
1000
MILD_STEEL
1000
0
1010
0.0
1020
0.0
1030
0.0
1010
0.0
1020
0.0
1030
1.0
1040
0.0
1002
}
  0
INSERT
  8
0
  5
78
  2
*U6
 10
0.0
 20
0.0
 30
0.0
1001
AME_SOL
1002
{
1070
     1
1071
  2429024
1070
  1543
1070
     1
1070
     0
1005
15
1005
59
1005
0
1005
79
1005
0
1040
0.0
1040
1.0
1070
     0
1000
MILD_STEEL
1000
0
1002
}
1001
AVE_INVOKE
1000
SOLAVEMESH
  0
INSERT
  8
AME_FRZ
  5
79
  2
AME_NIL
 10
1.0
 20
1.0
 30
1.0
1001
AME_SOL
1004
C7CF01001B018D018C018A0186017E0171017C006401080053013C01E00012003D01140088007201180010007F0173015F0002007401650154013E012A011E00C5002B01E100DA003F01DF00F60055014001A700D800F80025008701800175018900660156018300F200570141012C015200FC002D017A00
1004
1F00EE00760167015801A40084005901ED00C30068015A0142012E01280038002F01B5004C0043013001B600D10031011C0126002A001D012C00B80080008101F00077010F003F008B01880182017801690196005B014E00C800BF00790107006A0175005C0144018D007600450172006B0083017A012400
1004
6B015D0146016100A0004701E200320109001E010C01B700130073005E01C00048010400FE00FF00890184017B016C015F014901FB00DB004A011700580060014B013301EF00E8003401E3001F01C900F7004C0135012001C10021002101B300EB00360122014D000D01F900160023010E01740020000F01
1004
F4009E006D0161014D0137012401100185003D0011014200490025011201AB00D70013015500BA00380126011401560078001501CD00650027011601C20001010001FA0017010201910019000301F50027004E01390128011801040129002B0005012F00340019010601DC0048000701A2004B0029011A01
1004
0801D400CF00090159005A001B010A015B00A8000B015C00A900500062014F01DE007000500154009400400085017C0101006E016301510144003A01D600AF0052013B012D00EA0005007E007D016F01FD003C0070017F0003000000755FBAAFD95EC0724CAD6BC9862EAB5CEFDE99E3E1DDA2FDE99E3E1D
1004
DA2FDE99E3E1DDA2700B10848269C02C421209A700B1084836B9D804AAE904DABA5915B107904DABA5915B107BF7A678F877689C02C42120734E0162109039A700B1084836B9755086A3352B5EE5944E6EAA17F98FFFFFFFFCC7FFFE09BF826FFBAFFDBFDBFFFFFEEAA17F98FFFFFFFFCC7FFFE09BF826FF
1004
BAFFDBFDBFFFFF991638EAFA04DFE63FFFFFFFF31FFE65AD6B5A4D73E0E6FF8B742713EC1543393C32742713EC1543393C239FD8E3AAE7409BFCC7FFFFFFFE63FFDCF839BF826FF8B742713EC1543393C32742713EC1543393C27F8BDD09C4FB0550CE4F0CBFFF0DAE84E27D82A867278473FFFE1B4596AA
1004
F5ACB557AD6E7FFFC36B1C7545E8137F98FFFFFFFFCC7FF996B5AD6935CF98FFF16E84E27D82A86727864E84E27D82A8672784FF17BA1389F60AA19C9E197FFE1B5D09C4FB0550CE4F08E7FFFC368B2D55EB596AAF5ADCFFFF86D638EABFE8137F98FFFFFFFFCC7FFB9F31EC7BF04DFF16E84E27D82A8672
1004
7864E84E27D82A8672784FF17BA1389F60AA19C9E197FFE1B5D09C4FB0550CE4F08E7FFFC368B2D55EB596AAF5ADCFFFF86D6012ABA309C29718C6259EC524E34A8C935FBD33C7C3BB44601B57A20D3AD380588424134E016210906D72528486E9295AF72CF732942FFFFFF31FFFF98FFFFEDFC137FDD7FF
1004
FFFFFFFF2942FFFFFF31FFFF98FFFFEDFC137FDD7FFFFFFFFFCC8B00955D5524E34A8C7358A49C6951926BF7A678F877689C02C42120DA700B10848269C02C42120DAE4A508374D4AD7B964E3994A17FCBFE647F97FE5FF97FCC8FE1B7F09BF86D75FFFFFFFFFFCA50BFE5FF323FCBFF2FFCBFE647F0DBF8
1004
4DFC36BAFFFFFFFFFF991601282BF7A678F87768BF7A678F87768BF7A678F877689C02C421209A700B1084826BF7A678F87767B929426595A973B964DB994A17FFF98FFFFCC7FFFFFFFFFFBAFFFFFFFFFFE5285FFFE63FFFF31FFFFFFFFFFEEBFFFFFFFFFE63D804AAEBF7A678F87768BF7A678F87768BF7
1004
A678F877689C02C421209AFDE99E3E1DD9E700B1084836B929426190A5CEE58E9CCA50BFCC7FFFFFFFFFE63FFFFFFDD7FFFFFFFFFF2942FF31FFFFFFFFFF98FFFFFFF75FFFFFFFFFF31EC025575FBD33C7C3BB45FBD33C7C3BB45FBD33C7C3BB45FBD33C7C3BB3CE016210904D3805884241B5C94A103091
1004
4B9DC8DB994A17FFFFF98FFFFCC7FFFFFFFFBAFFFFFFFFFFE5285FFFFFE63FFFF31FFFFFFFFEEBFFFFFFFFFE63D804A0AFDE99E3E1DDA2FDE99E3E1DDA2AA49C69518E69C02C421209A700B10848269C02C42120DAE4A5090D9EA5CEE58BB994A17F991FE5FF97FE5FF323FCBFE137F09BF86D75FFFFFFFF
1004
FFCA50BFCC8FF2FFCBFF2FF991FE5FF09BF84DFC36BAFFFFFFFFFF98F601282BF7A678F8776892925529D1B6135FBD33C7C3BB44E016210904D380588424134E016210906D725284CD662973B919B994A17FCBFF2FF991FCC8FF2FFCBFE137F09BF86D75FFFFFFFFFFCA50BFE5FF97FCC8FE647F97FE5FF0
1004
9BF84DFC36BAFFFFFFFFFF98F6012ABA4A4954A746D84D7EF4CF1F0EED17EF4CF1F0EED1380588424134E016210904D3805884241B5C94A103C68A5CEE593CE65285FF2FF991FE5FF97FE5FF323F84DFC26FE1B5D7FFFFFFFFFF2942FF97FCC8FF2FFCBFF2FF991FC26FE137F0DAEBFFFFFFFFFE63CA09D5
1004
4938D2A31CD629271A54649AFDE99E3E1DDA2700B10848369C02C42120734E016210906DFFFC368B4098B7B2914EB5B91A8CD486E9A9C58D466A4374D4AD6B5AD6B5A04DFE63FFFFFFFF31FFEE7C3696D55D63B64763F2A06B7FC5FFFE1B4A09C826D5D2C8AD883C826D5D2C8AD883D54938D2A31CD38058
1004
84240E69C02C42120734E016210906D2C1D47433980C6556564CABDD42C49863168B2653324B29C7EE56B1A8CD4A1B3D4E2D0D9EA46A3352E75AD6B26536816B5AD6323D8B166C36249A2D18DA3FEC58B361B124D168C6CF40B5AD6B191FFCBFE09BF826FE1B55DFEDFED2C1D47433980C6556564CABDD42
1004
C498631694138C270A5C6318967B14938D2A324D7EF4CF1F0EED11806D5E8834EB4E0162109039A700B1084836FFFE1B45A04D55C53B95AC6A335286E929C5A1BA4A46A3352B5AD6B5AD68137F98FFFFFFFFCC7FFABD6B5AD6B3CB6AAEB1DB23B1F95035BFE2FFFF0DA504E4136AE96456C41E4136AE9645
1004
6C41EFDE99E3E1DDA2700B108481CD3805884240E6BF7A678F87767960EA3A19CC0632AB2B2655EEA1624C318B45932986D9463F5ADC8D466A59656A7163519A96595A95AD6B739329B40B5AD6B191EC58B361B124D168C6D1FF62C59B0D89268B46367A05AD6B58C8FFE5FF04DFC137FD5DFEDFED2C1D47
1004
433980C6556564CABDD42C498631694138C270A5C6318967B14938D2A324D5524E34A8C734601B57A20D3AD380588424134E016210906D57AD6B5AD8BA258B25B26321322B1A64A445A04C5D950A772B5A1BA4A50D9EA71686CF5286E92973AD6B5A04DFFFFFE63FF323FFFFFDAE7C1ADFC368B57AD6B5AD
1004
8BA258B25B26321322B1A64A44A09C613852E318C4B3C9492A94E8DB09AFDE99E3E1DDA2300DABD1069D69C02C421209A700B1084836FF56FED168130D95A9DCAD686E92966B314E2D9ACC5286E92973AD6B5A04DFFFE63FFFF323FFFFFDBF84DFED17FD5BFB4A09C613852E318C4B3D8A49C6951926BF7A
1004
678F877688C036AF441A75A700B1084826BF7A678F87767B2316C2DCC78C82C1559AE7C1AD16813160CA953B95AD0DD252CB2B538B6595A9437494B9D6B5AD026FFFFFF323F991FFFFFEDFC6CFFF16C8C5B0B731E320B05566B9F06B4A09D54938D2A31CD629271A54649AAA49C69518E69C02C42120DA70
1004
0B10848269C02C42120DAC90C6868C264064363E47F97168131763A53B95AC374D4A1B3D4E2D0D9EA4374D4B9D6B5AD026FFFFFF31FF98FFFFFFC36FE137F0DA2D9218D0D184C80C86C7C8FF2E504EAA49C69518E692925529D1B6135FBD33C7C3BB44E016210906D380588424134E016210906DFFFC368B
1004
40998F55C3F72B586E9A966B314E2D9ACC521BA6A5CEB5AD68137FFF98FFFFCC7FF2FFFF86DFC26FE1B45FFFE1B4A09D54938D2A31CD629271A54649AFDE99E3E1DDA2700B10848369C02C421209AFDE99E3E1DD9FF82566442CD86C49345A30111681306EB1FB95AC374D4B2CAD4E2D9656A4374D4B9D6B
1004
5AD026FFFFFF323F98FFFFFFC36FE09BFE2FF04ACC8859B0D89268B46022504EFDE99E3E1DDA24A4954A746D84D7EF4CF1F0EED1380588424134E016210904D7EF4CF1F0EECFFC12B2BD6B5AD6C4222D0262C066A75ADCB2CAD4B3598A716CB2B52CD662973B9D026FFFF31FFFFFFFF991FC137F09BFE2FF
1004
04ACAF5AD6B5B1089413BF7A678F8776892925529D1B6135FBD33C7C3BB44E016210904D380588424135FBD33C7C3BB3DCF98FFC1345A04C3565329D6B72CB2B52CD6629C5B2CAD4B3598A5CEE7409BFFFCC7FFFFFFFE647F04DFC26FF8B73E63FF04D28272524AA53A36C26BF7A678F87768BF7A678F877
1004
689C02C421209A700B1084826BF7A678F87767FE095BF04D16813218E3F5ADCB2CAD483C68A716CB2B520F1A2973B9D026FF31FFFFFFFFFF991FC26FE09BFE2FF04ADF8269413BF7A678F87768BF7A678F87768BF7A678F87768BF7A678F877679C02C421209AFDE99E3E1DD9FF84ADFCB8B4098B796C1FA
1004
D6E59656A41848A716CB2B520C2452E773A04DFE647FFFFFFFFF323FFFFFE2FF095BF9728277EF4CF1F0EED17EF4CF1F0EED17EF4CF1F0EED1380588424135FBD33C7C3BB3DFBD33C7C3BB3FFFF09A2D02662593E3F5ADCB2CAD4B0C8538B6595A96190A5CEE7409BFFFCC8FFFFFFFE647FFFFFC5FFFE134
1004
A09DFBD33C7C3BB45FBD33C7C3BB4554938D2A31CD380588424135FBD33C7C3BB3CE016210906DFC12B7E09A2D026099403F5ADCB0C85286CF538B6190A50D9EA5CEE7409BFFFFFCC7FFFE647FFF04DFFFC368BFC12B7E09A504E4A4954A746D84D7EF4CF1F0EED17EF4CF1F0EED1380588424135FBD33C7
1004
C3BB3CE016210906DFEADFDA2D02665296D1FAD6E586429078D14E2D86429078D14B9DCE8137F98FFFFFFFFCC8FFFE137FFFB45FF56FED28277EF4CF1F0EED17EF4CF1F0EED17EF4CF1F0EED17EF4CF1F0EECF7EF4CF1F0EECF3805884241B7FFF0DA2D0266496508FD6B72C3214830914E2D86429061229
1004
73B9D026FF323FFFFFFF991FFFFFFFF17FFF86D28277EF4CF1F0EED17EF4CF1F0EED15524E34A8C735FBD33C7C3BB3CE016210904D3805884241B7F04ADF8268B409995A5B87EB5B90612294367A9C5830914A1B3D4B9DCE8137FFFFF98FFCC8FFFFFFFE09BF86D17F8256FC134A09DFBD33C7C3BB449492
1004
A94E8DB09AFDE99E3E1DDA2FDE99E3E1DD9E700B10848269C02C42120DBFD5BFB45A04C357507EB5B906122966B314E2C1848A59ACC52E773A04DFFFE63FFFF323FFFFFFF84DFED17FD5BFB4A09DFBD33C7C3BB449492A94E8DB09AAA49C69518E69C02C421209A700B10848269C02C42120DBF84ACE7C35
1004
61681330D9543F5ADCA1B3D4B3598A71686CF52CD662973B9D026FFFF31FFFFFFFF98FFC26FE137F0DA2FF0959CF86AC504EFDE99E3E1DDA24A4954A746D84D5524E34A8C734E016210904D380588424134E016210906D73F56FE5C5A04C0F6558FD6B7286CF52CD6629C5A1B3D4B3598A5CEE7409BFFFCC
1004
7FFFFFFFE63FF09BF84DFC368B73F56FE5CA09C9492A94E8DB09AFDE99E3E1DDA2AA49C69518E69C02C421209A700B10848269C02C42120DBFFF84D1681316F6560FD6B7286CF520F1A29C5A1B3D483C68A5CEE7409BFCC7FFFFFF2FFFF98FFC26FE137F0DA2FFFF09A504E4A4954A746D84D2524AA53A36
1004
C26BF7A678F877689C02C421209A700B10848269C02C42120DBF86ADFCB8B4099896570FD6B72CD6629078D14E2D9ACC520F1A2973B9D026FF31FFFFFFFF98FFFFC26FE137F0DA2FF0D5BF9764E932C9A1
1005
7A
  0
INSERT
  8
AME_FRZ
  5
7A
  2
AME_NIL
 10
1.0
 20
1.0
 30
1.0
1001
AME_SOL
1004

1005
0
  0
ENDSEC
  0
EOF
