600 0 2 0           
24 FBMach with ACIS - 6.0.3 13 ACIS 6.0.3 NT 24 Wed May 23 20:14:31 2001 
1 9.9999999999999995e-007 1e-010 
body $2 $3 $-1 $4 #
bdycol-kcp $-1 1 6 $5 $6 $7 $8 $9 $10 #
model_id-kcp-attrib $-1 $-1 $-1 $0 1 990663270 60 1882980353 1 #
lump $-1 $-1 $11 $0 #
transform $-1 1 0 0 0 1 0 0 0 1 0 0 0 1 no_rotate no_reflect no_shear #
body $12 $13 $-1 $14 #
body $15 $16 $-1 $17 #
body $18 $19 $-1 $20 #
body $21 $22 $-1 $23 #
body $24 $25 $-1 $26 #
body $27 $28 $-1 $29 #
shell $-1 $-1 $-1 $30 $-1 $3 #
model_id-kcp-attrib $-1 $-1 $-1 $5 1 990663270 60 1882980354 1 #
lump $-1 $-1 $31 $5 #
transform $-1 1 0 0 0 1 0 0 0 1 0 0 0 1 no_rotate no_reflect no_shear #
rgb_color-st-attrib $-1 $32 $-1 $6 0.5 1 1 #
lump $-1 $-1 $33 $6 #
transform $-1 1 0 0 0 1 0 0 0 1 0 -35 -10 1 no_rotate no_reflect no_shear #
rgb_color-st-attrib $-1 $34 $-1 $7 0.5 1 1 #
lump $-1 $-1 $35 $7 #
transform $-1 1 0 0 0 1 0 0 0 1 0 35 -10 1 no_rotate no_reflect no_shear #
rgb_color-st-attrib $-1 $36 $-1 $8 0 0 1 #
lump $-1 $-1 $37 $8 #
transform $-1 1 0 0 0 1 0 0 0 1 0 0 0 1 no_rotate no_reflect no_shear #
rgb_color-st-attrib $-1 $38 $-1 $9 1 0 0 #
lump $-1 $-1 $39 $9 #
transform $-1 1 0 0 0 1 0 0 0 1 0 0 0 1 no_rotate no_reflect no_shear #
rgb_color-st-attrib $-1 $40 $-1 $10 1 0 0 #
lump $-1 $-1 $41 $10 #
transform $-1 1 0 0 0 1 0 0 0 1 0 0 0 1 no_rotate no_reflect no_shear #
face $42 $43 $44 $11 $-1 $45 reversed single #
shell $-1 $-1 $-1 $46 $-1 $13 #
model_id-kcp-attrib $-1 $-1 $15 $6 1 990663270 100 1885601795 1 #
shell $-1 $-1 $-1 $47 $-1 $16 #
model_id-kcp-attrib $-1 $-1 $18 $7 1 990663270 110 1886257156 1 #
shell $-1 $-1 $-1 $48 $-1 $19 #
model_id-kcp-attrib $-1 $-1 $21 $8 1 990663270 480 1893728261 1 #
shell $-1 $-1 $-1 $49 $-1 $22 #
model_id-kcp-attrib $-1 $-1 $24 $9 1 990663270 751 1894711302 1 #
shell $-1 $-1 $-1 $50 $-1 $25 #
model_id-kcp-attrib $-1 $-1 $27 $10 1 990663270 931 1889730567 1 #
shell $-1 $-1 $-1 $51 $-1 $28 #
model_id-kcp-attrib $-1 $-1 $-1 $30 1 990663270 60 1882980353 2 #
face $52 $53 $54 $11 $-1 $55 reversed single #
loop $56 $57 $58 $30 #
cone-surface $-1 0 -35 0 0 0 1 2 0 0 1 I I 0 1 2 forward I I I I #
face $59 $60 $61 $31 $-1 $62 forward single #
face $-1 $63 $64 $33 $-1 $65 forward single #
face $-1 $66 $67 $35 $-1 $68 forward single #
face $-1 $69 $70 $37 $-1 $71 forward single #
face $-1 $72 $73 $39 $-1 $74 forward single #
face $-1 $75 $76 $41 $-1 $77 forward single #
model_id-kcp-attrib $-1 $-1 $-1 $43 1 990663270 60 1882980353 3 #
face $78 $79 $80 $11 $-1 $81 forward single #
loop $82 $83 $84 $43 #
cone-surface $-1 0 35 0 0 0 1 2 0 0 1 I I 0 1 2 forward I I I I #
model_id-kcp-attrib $-1 $-1 $-1 $44 1 990663270 60 1882980353 28 #
loop $85 $-1 $86 $30 #
coedge $-1 $58 $58 $87 $88 reversed $44 $-1 #
model_id-kcp-attrib $-1 $-1 $-1 $46 1 990663270 60 1882980354 2 #
face $89 $90 $91 $31 $-1 $92 reversed single #
loop $-1 $-1 $93 $46 #
plane-surface $-1 0 0 50 0 0 1 1 0 0 forward_v I I I I #
face $-1 $94 $95 $33 $-1 $96 forward single #
loop $-1 $97 $98 $47 #
cone-surface $-1 0 0 0 0 0 1 2 0 0 1 I I 0 1 2 forward I I I I #
face $-1 $99 $100 $35 $-1 $101 forward single #
loop $-1 $102 $103 $48 #
cone-surface $-1 0 0 0 0 0 1 2 0 0 1 I I 0 1 2 forward I I I I #
face $-1 $104 $105 $37 $-1 $106 forward single #
loop $-1 $-1 $107 $49 #
cone-surface $-1 0 0 0 0 0 1 30 0 0 1 I I 0 1 30 forward I I I I #
face $-1 $108 $109 $39 $-1 $110 forward single #
loop $-1 $-1 $111 $50 #
plane-surface $-1 -15 25.98076211353316 30 -1 0 0 0 0 1 forward_v I I I I #
face $-1 $112 $113 $41 $-1 $114 forward single #
loop $-1 $-1 $115 $51 #
plane-surface $-1 15 -25.98076211353316 30 1 0 0 0 0 -1 forward_v I I I I #
model_id-kcp-attrib $-1 $-1 $-1 $53 1 990663270 60 1882980353 4 #
face $116 $117 $118 $11 $-1 $119 forward single #
loop $120 $121 $87 $53 #
plane-surface $-1 0 0 30 0 0 1 1 0 0 forward_v I I I I #
model_id-kcp-attrib $-1 $-1 $-1 $54 1 990663270 60 1882980353 35 #
loop $122 $-1 $123 $43 #
coedge $-1 $84 $84 $124 $125 reversed $54 $-1 #
model_id-kcp-attrib $-1 $-1 $-1 $57 1 990663270 60 1882980353 29 #
coedge $-1 $86 $86 $126 $127 reversed $57 $-1 #
coedge $-1 $87 $87 $58 $88 forward $80 $-1 #
edge $128 $129 -3.1415926535898002 $129 3.141592653589786 $87 $130 forward 7 unknown #
model_id-kcp-attrib $-1 $-1 $-1 $60 1 990663270 60 1882980354 3 #
face $131 $132 $133 $31 $-1 $134 reversed single #
loop $-1 $-1 $135 $60 #
plane-surface $-1 0 0 -50 0 0 1 1 0 0 forward_v I I I I #
coedge $-1 $136 $137 $138 $139 forward $61 $-1 #
face $-1 $-1 $140 $33 $-1 $141 forward single #
loop $-1 $-1 $142 $63 #
plane-surface $-1 0 0 -40 0 0 -1 -1 0 0 forward_v I I I I #
loop $-1 $-1 $143 $47 #
coedge $-1 $98 $98 $142 $144 reversed $64 $-1 #
face $-1 $-1 $145 $35 $-1 $146 forward single #
loop $-1 $-1 $147 $66 #
plane-surface $-1 0 0 -40 0 0 -1 -1 0 0 forward_v I I I I #
loop $-1 $-1 $148 $48 #
coedge $-1 $103 $103 $147 $149 reversed $67 $-1 #
face $-1 $150 $151 $37 $-1 $152 forward single #
loop $-1 $-1 $153 $69 #
plane-surface $-1 40 10 0 1 0 0 0 0 -1 forward_v I I I I #
coedge $-1 $154 $155 $156 $157 forward $70 $-1 #
face $-1 $158 $159 $39 $-1 $160 forward single #
loop $-1 $-1 $161 $72 #
plane-surface $-1 -15 40 30 0 1 0 0 0 1 forward_v I I I I #
coedge $-1 $162 $163 $164 $165 forward $73 $-1 #
face $-1 $166 $167 $41 $-1 $168 forward single #
loop $-1 $-1 $169 $75 #
plane-surface $-1 15 -40 30 0 -1 0 0 0 -1 forward_v I I I I #
coedge $-1 $170 $171 $172 $173 forward $76 $-1 #
model_id-kcp-attrib $-1 $-1 $-1 $79 1 990663270 60 1882980353 5 #
face $174 $175 $176 $11 $-1 $177 forward single #
loop $-1 $-1 $178 $79 #
plane-surface $-1 -15 0 40 1 0 0 0 0 -1 forward_v I I I I #
model_id-kcp-attrib $-1 $-1 $-1 $80 1 990663270 60 1882980353 30 #
loop $-1 $-1 $179 $53 #
model_id-kcp-attrib $-1 $-1 $-1 $83 1 990663270 60 1882980353 36 #
coedge $-1 $123 $123 $180 $181 reversed $83 $-1 #
coedge $-1 $124 $124 $84 $125 forward $182 $-1 #
edge $183 $184 -3.1415926535898002 $184 3.141592653589786 $124 $185 forward 7 unknown #
coedge $-1 $126 $126 $86 $127 forward $186 $-1 #
edge $187 $188 0 $188 6.2831853071795862 $126 $189 forward 7 unknown #
attrib_edge_convexity-kcp-attrib $-1 $190 $-1 $88 1 #
vertex $191 $88 $192 #
ellipse-curve $-1 0 -35 30 0 0 -1 2 0 0 1 I I #
model_id-kcp-attrib $-1 $-1 $-1 $90 1 990663270 60 1882980354 4 #
face $193 $194 $195 $31 $-1 $196 reversed single #
loop $-1 $-1 $197 $90 #
plane-surface $-1 0 -50 0 0 1 0 0 0 1 forward_v I I I I #
coedge $-1 $198 $199 $200 $201 forward $91 $-1 #
coedge $-1 $202 $93 $203 $204 forward $61 $-1 #
coedge $-1 $93 $202 $205 $206 forward $61 $-1 #
coedge $-1 $207 $208 $93 $139 reversed $209 $-1 #
edge $-1 $210 -50 $211 50 $138 $212 forward 7 unknown #
loop $-1 $-1 $213 $94 #
plane-surface $-1 0 0 40 0 0 1 1 0 0 forward_v I I I I #
coedge $-1 $142 $142 $98 $144 forward $95 $-1 #
coedge $-1 $143 $143 $213 $214 reversed $97 $-1 #
edge $-1 $215 0 $215 6.2831853071795862 $142 $216 forward 7 unknown #
loop $-1 $-1 $217 $99 #
plane-surface $-1 0 0 40 0 0 1 1 0 0 forward_v I I I I #
coedge $-1 $147 $147 $103 $149 forward $100 $-1 #
coedge $-1 $148 $148 $217 $218 reversed $102 $-1 #
edge $-1 $219 0 $219 6.2831853071795862 $147 $220 forward 7 unknown #
face $-1 $221 $222 $37 $-1 $223 forward single #
loop $-1 $-1 $224 $104 #
plane-surface $-1 40 -10 0 0 -1 0 0 0 -1 forward_v I I I I #
coedge $-1 $225 $226 $227 $228 forward $105 $-1 #
coedge $-1 $229 $107 $230 $231 reversed $70 $-1 #
coedge $-1 $107 $229 $232 $233 forward $70 $-1 #
coedge $-1 $234 $235 $107 $157 reversed $236 $-1 #
edge $-1 $237 -2.8017557441356713 $238 -0.33983690945412193 $107 $239 forward 7 unknown #
face $-1 $240 $241 $39 $-1 $242 forward single #
loop $-1 $-1 $243 $108 #
plane-surface $-1 15 40 30 1 0 0 0 0 -1 forward_v I I I I #
coedge $-1 $244 $245 $246 $247 forward $109 $-1 #
coedge $-1 $248 $111 $245 $249 reversed $73 $-1 #
coedge $-1 $111 $248 $250 $251 forward $73 $-1 #
coedge $-1 $252 $246 $111 $165 reversed $253 $-1 #
edge $-1 $254 9.4855715851498701 $255 23.50480947161671 $111 $256 forward 7 unknown #
face $-1 $257 $258 $41 $-1 $259 forward single #
loop $-1 $-1 $260 $112 #
plane-surface $-1 -15 -40 30 -1 0 0 0 0 1 forward_v I I I I #
coedge $-1 $261 $262 $263 $264 forward $113 $-1 #
coedge $-1 $265 $115 $262 $266 reversed $76 $-1 #
coedge $-1 $115 $265 $267 $268 forward $76 $-1 #
coedge $-1 $269 $263 $115 $173 reversed $270 $-1 #
edge $-1 $271 9.4855715851498701 $272 23.50480947161671 $115 $273 forward 7 unknown #
model_id-kcp-attrib $-1 $-1 $-1 $117 1 990663270 60 1882980353 6 #
face $274 $275 $276 $11 $-1 $177 forward single #
loop $-1 $-1 $277 $117 #
plane-surface $-1 15 0 40 -1 0 0 0 0 1 forward_v I I I I #
coedge $-1 $278 $279 $280 $281 reversed $118 $-1 #
coedge $-1 $282 $283 $284 $285 reversed $121 $-1 #
coedge $-1 $180 $180 $123 $181 forward $286 $-1 #
edge $287 $288 0 $288 6.2831853071795862 $180 $289 forward 7 unknown #
loop $290 $291 $124 $275 #
attrib_edge_convexity-kcp-attrib $-1 $292 $-1 $125 1 #
vertex $293 $125 $294 #
ellipse-curve $-1 0 35 30 0 0 -1 2 0 0 1 I I #
loop $295 $286 $126 $296 #
attrib_edge_convexity-kcp-attrib $-1 $297 $-1 $127 1 #
vertex $298 $127 $299 #
ellipse-curve $-1 0 -35 -50 0 0 1 2 0 0 1 I I #
convexity-sys-attrib $-1 $-1 $128 $88 #
model_id-kcp-attrib $-1 $-1 $-1 $129 1 990663270 60 1882980353 32 #
point $-1 -2 -35.000000000000014 30 #
model_id-kcp-attrib $-1 $-1 $-1 $132 1 990663270 60 1882980354 5 #
face $300 $301 $302 $31 $-1 $303 reversed single #
loop $-1 $-1 $304 $132 #
plane-surface $-1 -50 0 0 1 0 0 0 0 -1 forward_v I I I I #
coedge $-1 $305 $205 $306 $307 forward $133 $-1 #
coedge $-1 $308 $135 $305 $309 forward $91 $-1 #
coedge $-1 $135 $308 $310 $311 forward $91 $-1 #
coedge $-1 $208 $207 $135 $201 reversed $209 $-1 #
edge $-1 $312 -50 $313 50 $200 $314 forward 7 unknown #
coedge $-1 $137 $136 $315 $316 forward $61 $-1 #
coedge $-1 $317 $318 $136 $204 reversed $302 $-1 #
edge $-1 $211 -50 $319 50 $203 $320 forward 7 unknown #
coedge $-1 $197 $321 $137 $206 reversed $133 $-1 #
edge $-1 $322 -50 $210 50 $205 $323 forward 7 unknown #
coedge $-1 $200 $138 $321 $324 forward $209 $-1 #
coedge $-1 $138 $200 $317 $325 reversed $209 $-1 #
loop $-1 $-1 $207 $301 #
vertex $-1 $139 $326 #
vertex $-1 $139 $327 #
straight-curve $-1 50 0 50 0 1 0 I I #
coedge $-1 $213 $213 $143 $214 forward $140 $-1 #
edge $-1 $328 0 $328 6.2831853071795862 $213 $329 forward 7 unknown #
vertex $-1 $144 $330 #
ellipse-curve $-1 0 0 -40 0 0 -1 2 0 0 1 I I #
coedge $-1 $217 $217 $148 $218 forward $145 $-1 #
edge $-1 $331 0 $331 6.2831853071795862 $217 $332 forward 7 unknown #
vertex $-1 $149 $333 #
ellipse-curve $-1 0 0 -40 0 0 -1 2 0 0 1 I I #
face $-1 $334 $335 $37 $-1 $336 forward single #
loop $-1 $-1 $337 $150 #
cone-surface $-1 0 0 0 0 0 1 30 0 0 1 I I 0 1 30 forward I I I I #
coedge $-1 $338 $339 $340 $341 forward $151 $-1 #
coedge $-1 $342 $153 $339 $343 reversed $105 $-1 #
coedge $-1 $153 $342 $344 $345 forward $105 $-1 #
coedge $-1 $235 $340 $153 $228 reversed $236 $-1 #
edge $-1 $346 -10 $347 10 $153 $348 forward 7 unknown #
coedge $-1 $155 $154 $349 $350 reversed $70 $-1 #
coedge $-1 $351 $352 $154 $231 forward $353 $-1 #
edge $-1 $354 0 $238 50 $230 $355 forward 7 unknown #
coedge $-1 $356 $357 $155 $233 reversed $358 $-1 #
edge $-1 $359 0 $237 50 $155 $360 forward 7 unknown #
coedge $-1 $361 $156 $357 $362 reversed $236 $-1 #
coedge $-1 $156 $227 $351 $363 reversed $236 $-1 #
loop $-1 $-1 $227 $364 #
vertex $-1 $233 $365 #
vertex $-1 $231 $366 #
ellipse-curve $-1 0 0 50 0 0 -1 30 0 0 1 I I #
face $-1 $367 $253 $39 $-1 $368 forward single #
loop $-1 $-1 $369 $158 #
cone-surface $-1 0 0 30 0 0 1 30 0 0 1 I I 0 -1 30 forward I I I I #
coedge $-1 $370 $371 $372 $373 forward $159 $-1 #
coedge $-1 $374 $161 $371 $375 reversed $109 $-1 #
coedge $-1 $161 $374 $162 $249 forward $109 $-1 #
coedge $-1 $164 $372 $161 $247 reversed $253 $-1 #
edge $-1 $255 -15 $376 15 $161 $377 forward 7 unknown #
coedge $-1 $163 $162 $378 $379 reversed $73 $-1 #
edge $380 $381 0 $255 20 $245 $382 forward 7 unknown #
coedge $-1 $383 $369 $163 $251 reversed $241 $-1 #
edge $-1 $384 0 $254 20 $163 $385 forward 7 unknown #
coedge $-1 $372 $164 $369 $386 reversed $253 $-1 #
loop $-1 $-1 $164 $240 #
vertex $-1 $251 $387 #
vertex $-1 $249 $388 #
straight-curve $-1 -15 16.49519052838329 50 0 1 0 I I #
face $-1 $389 $270 $41 $-1 $390 forward single #
loop $-1 $-1 $391 $166 #
cone-surface $-1 0 0 30 0 0 1 30 0 0 1 I I 0 -1 30 forward I I I I #
coedge $-1 $392 $393 $394 $395 forward $167 $-1 #
coedge $-1 $396 $169 $393 $397 reversed $113 $-1 #
coedge $-1 $169 $396 $170 $266 forward $113 $-1 #
coedge $-1 $172 $394 $169 $264 reversed $270 $-1 #
edge $-1 $272 -15 $398 15 $169 $399 forward 7 unknown #
coedge $-1 $171 $170 $400 $401 reversed $76 $-1 #
edge $402 $403 0 $272 20 $262 $404 forward 7 unknown #
coedge $-1 $405 $391 $171 $268 reversed $258 $-1 #
edge $-1 $406 0 $271 20 $171 $407 forward 7 unknown #
coedge $-1 $394 $172 $391 $408 reversed $270 $-1 #
loop $-1 $-1 $172 $257 #
vertex $-1 $268 $409 #
vertex $-1 $266 $410 #
straight-curve $-1 15 -16.49519052838329 50 0 -1 0 I I #
model_id-kcp-attrib $-1 $-1 $-1 $175 1 990663270 60 1882980353 7 #
face $411 $412 $182 $11 $-1 $81 forward single #
loop $-1 $-1 $413 $175 #
coedge $-1 $414 $415 $416 $417 reversed $176 $-1 #
coedge $-1 $418 $178 $419 $420 reversed $118 $-1 #
coedge $-1 $178 $418 $282 $421 forward $118 $-1 #
coedge $-1 $284 $422 $178 $281 forward $423 $-1 #
edge $-1 $424 -25 $425 -5 $280 $426 forward 7 unknown #
coedge $-1 $427 $179 $279 $421 reversed $121 $-1 #
coedge $-1 $179 $427 $414 $428 reversed $121 $-1 #
coedge $-1 $416 $280 $179 $285 forward $423 $-1 #
edge $-1 $425 -2.0943951023931953 $429 -1.0471975511965979 $284 $430 forward 7 unknown #
loop $431 $432 $180 $296 #
attrib_edge_convexity-kcp-attrib $-1 $433 $-1 $181 1 #
vertex $434 $181 $435 #
ellipse-curve $-1 0 35 -50 0 0 1 2 0 0 1 I I #
model_id-kcp-attrib $-1 $-1 $-1 $182 1 990663270 60 1882980353 37 #
loop $-1 $-1 $436 $275 #
convexity-sys-attrib $-1 $-1 $183 $125 #
model_id-kcp-attrib $-1 $-1 $-1 $184 1 990663270 60 1882980353 39 #
point $-1 -2 34.999999999999986 30 #
model_id-kcp-attrib $-1 $-1 $-1 $186 1 990663270 60 1882980353 31 #
face $437 $438 $186 $11 $-1 $439 reversed single #
convexity-sys-attrib $-1 $-1 $187 $127 #
model_id-kcp-attrib $-1 $-1 $-1 $188 1 990663270 60 1882980353 33 #
point $-1 2 -35 -50 #
model_id-kcp-attrib $-1 $-1 $-1 $194 1 990663270 60 1882980354 6 #
face $440 $-1 $209 $31 $-1 $441 reversed single #
loop $-1 $-1 $317 $194 #
plane-surface $-1 0 50 0 0 -1 0 0 0 -1 forward_v I I I I #
coedge $-1 $442 $315 $318 $443 forward $195 $-1 #
coedge $-1 $321 $197 $198 $309 reversed $133 $-1 #
coedge $-1 $315 $442 $197 $307 reversed $195 $-1 #
edge $-1 $322 -50 $444 50 $306 $445 forward 7 unknown #
coedge $-1 $199 $198 $442 $446 forward $91 $-1 #
edge $-1 $313 -50 $444 50 $305 $447 forward 7 unknown #
coedge $-1 $318 $317 $199 $311 reversed $302 $-1 #
edge $-1 $448 -50 $312 50 $310 $449 forward 7 unknown #
vertex $-1 $201 $450 #
vertex $-1 $324 $451 #
straight-curve $-1 50 0 -50 0 -1 0 I I #
coedge $-1 $304 $306 $202 $316 reversed $195 $-1 #
edge $-1 $319 -50 $322 50 $315 $452 forward 7 unknown #
coedge $-1 $310 $203 $208 $325 forward $302 $-1 #
coedge $-1 $203 $310 $304 $443 reversed $302 $-1 #
vertex $-1 $204 $453 #
straight-curve $-1 0 50 50 -1 0 0 I I #
coedge $-1 $205 $305 $207 $324 reversed $133 $-1 #
vertex $-1 $316 $454 #
straight-curve $-1 0 -50 50 1 0 0 I I #
edge $-1 $210 -50 $313 50 $207 $455 forward 7 unknown #
edge $-1 $211 -50 $312 50 $208 $456 forward 7 unknown #
point $-1 50 -50 50 #
point $-1 50 50 50 #
vertex $-1 $214 $457 #
ellipse-curve $-1 0 0 40 0 0 1 2 0 0 1 I I #
point $-1 2 0 -40 #
vertex $-1 $218 $458 #
ellipse-curve $-1 0 0 40 0 0 1 2 0 0 1 I I #
point $-1 2 0 -40 #
face $-1 $459 $460 $37 $-1 $461 forward single #
loop $-1 $-1 $462 $221 #
plane-surface $-1 -28.284271247461902 -10 0 0 -1 0 0 0 -1 forward_v I I I I #
coedge $-1 $463 $464 $465 $466 forward $222 $-1 #
coedge $-1 $467 $224 $464 $468 reversed $151 $-1 #
coedge $-1 $224 $467 $225 $343 forward $151 $-1 #
coedge $-1 $227 $465 $224 $341 reversed $236 $-1 #
edge $-1 $347 -40 $469 -28.284271247461902 $224 $470 forward 7 unknown #
coedge $-1 $226 $225 $471 $472 reversed $105 $-1 #
edge $-1 $473 0 $347 50 $339 $474 forward 7 unknown #
coedge $-1 $352 $351 $226 $345 reversed $353 $-1 #
edge $-1 $475 0 $346 50 $226 $476 forward 7 unknown #
vertex $-1 $345 $477 #
vertex $-1 $343 $478 #
straight-curve $-1 40 0 50 0 -1 0 I I #
coedge $-1 $479 $480 $229 $350 forward $481 $-1 #
edge $482 $359 -2.8017557441356713 $354 -0.33983690945412193 $229 $483 forward 7 unknown #
coedge $-1 $344 $230 $235 $363 forward $353 $-1 #
coedge $-1 $230 $344 $479 $484 reversed $353 $-1 #
loop $-1 $-1 $351 $485 #
vertex $-1 $484 $486 #
straight-curve $-1 28.284271247461902 10 0 0 0 1 I I #
coedge $-1 $487 $232 $480 $488 reversed $358 $-1 #
coedge $-1 $232 $487 $234 $362 forward $358 $-1 #
loop $-1 $-1 $357 $459 #
vertex $-1 $488 $489 #
straight-curve $-1 -28.284271247461902 10 0 0 0 1 I I #
coedge $-1 $490 $234 $491 $492 reversed $236 $-1 #
edge $-1 $493 -40 $237 -28.284271247461902 $357 $494 forward 7 unknown #
edge $-1 $238 28.284271247461902 $346 40 $351 $495 forward 7 unknown #
face $-1 $496 $236 $37 $-1 $497 forward single #
point $-1 -28.284271247461902 10 50 #
point $-1 28.284271247461902 10 50 #
face $-1 $-1 $498 $39 $-1 $499 reversed single #
plane-surface $-1 4.4408920985006262e-016 33.722598211027616 50 0 0 1 1 0 0 forward_v I I I I #
coedge $-1 $250 $500 $252 $386 forward $241 $-1 #
coedge $-1 $501 $243 $500 $502 reversed $159 $-1 #
coedge $-1 $243 $501 $244 $375 forward $159 $-1 #
coedge $-1 $246 $252 $243 $373 reversed $253 $-1 #
edge $-1 $376 -23.50480947161671 $503 -9.4855715851498701 $243 $504 forward 7 unknown #
coedge $-1 $245 $244 $505 $506 reversed $109 $-1 #
edge $507 $508 0 $376 20 $371 $509 forward 7 unknown #
vertex $-1 $375 $510 #
straight-curve $-1 0 40 50 1 0 0 I I #
coedge $-1 $505 $511 $248 $379 forward $498 $-1 #
edge $512 $384 9.4855715851498701 $381 23.50480947161671 $248 $513 forward 7 unknown #
convexity-sys-attrib $-1 $-1 $-1 $249 #
vertex $-1 $379 $514 #
straight-curve $-1 -15 40 30 0 0 1 I I #
coedge $-1 $500 $250 $511 $515 reversed $241 $-1 #
vertex $-1 $515 $516 #
straight-curve $-1 -15 25.98076211353316 30 0 0 1 I I #
edge $-1 $503 1.0471975511965979 $254 2.0943951023931953 $369 $517 forward 7 unknown #
point $-1 -15 25.98076211353316 50 #
point $-1 -15 40 50 #
face $-1 $-1 $518 $41 $-1 $519 reversed single #
plane-surface $-1 4.4408920985006262e-016 -33.722598211027616 50 0 0 1 1 0 0 forward_v I I I I #
coedge $-1 $267 $520 $269 $408 forward $258 $-1 #
coedge $-1 $521 $260 $520 $522 reversed $167 $-1 #
coedge $-1 $260 $521 $261 $397 forward $167 $-1 #
coedge $-1 $263 $269 $260 $395 reversed $270 $-1 #
edge $-1 $398 -23.50480947161671 $523 -9.4855715851498701 $260 $524 forward 7 unknown #
coedge $-1 $262 $261 $525 $526 reversed $113 $-1 #
edge $527 $528 0 $398 20 $393 $529 forward 7 unknown #
vertex $-1 $397 $530 #
straight-curve $-1 0 -40 50 -1 0 0 I I #
coedge $-1 $525 $531 $265 $401 forward $518 $-1 #
edge $532 $406 9.4855715851498701 $403 23.50480947161671 $265 $533 forward 7 unknown #
convexity-sys-attrib $-1 $-1 $-1 $266 #
vertex $-1 $401 $534 #
straight-curve $-1 15 -40 30 0 0 1 I I #
coedge $-1 $520 $267 $531 $535 reversed $258 $-1 #
vertex $-1 $535 $536 #
straight-curve $-1 15 -25.98076211353316 30 0 0 1 I I #
edge $-1 $523 -2.0943951023931953 $271 -1.0471975511965979 $391 $537 forward 7 unknown #
point $-1 15 -25.98076211353316 50 #
point $-1 15 -40 50 #
model_id-kcp-attrib $-1 $-1 $-1 $275 1 990663270 60 1882980353 8 #
face $538 $539 $540 $11 $-1 $541 forward single #
coedge $-1 $542 $543 $544 $545 reversed $276 $-1 #
coedge $-1 $546 $277 $283 $428 forward $176 $-1 #
coedge $-1 $277 $546 $547 $548 reversed $176 $-1 #
coedge $-1 $549 $284 $277 $417 forward $423 $-1 #
edge $-1 $429 5 $550 25 $416 $551 forward 7 unknown #
coedge $-1 $279 $278 $552 $553 forward $118 $-1 #
coedge $-1 $554 $555 $278 $420 forward $556 $-1 #
edge $557 $558 -40 $424 -25.98076211353316 $419 $559 forward 7 unknown #
edge $-1 $560 -40 $425 -25.98076211353316 $279 $561 forward 7 unknown #
coedge $-1 $280 $562 $554 $563 reversed $423 $-1 #
loop $-1 $-1 $280 $564 #
vertex $-1 $420 $565 #
vertex $-1 $285 $566 #
straight-curve $-1 -15 -25.98076211353316 25 0 0 -1 I I #
coedge $-1 $283 $282 $567 $568 reversed $121 $-1 #
edge $-1 $429 25.98076211353316 $569 40 $414 $570 forward 7 unknown #
vertex $-1 $285 $571 #
ellipse-curve $-1 0 0 30 0 0 1 30 0 0 1 I I #
model_id-kcp-attrib $-1 $-1 $-1 $286 1 990663270 60 1882980353 38 #
loop $-1 $-1 $572 $296 #
convexity-sys-attrib $-1 $-1 $287 $181 #
model_id-kcp-attrib $-1 $-1 $-1 $288 1 990663270 60 1882980353 40 #
point $-1 2 35 -50 #
coedge $-1 $573 $574 $575 $576 reversed $291 $-1 #
model_id-kcp-attrib $-1 $577 $-1 $296 1 990663270 60 1882980353 34 #
face $578 $579 $580 $11 $-1 $581 reversed single #
plane-surface $-1 0 0 -50 0 0 1 1 0 0 forward_v I I I I #
model_id-kcp-attrib $-1 $-1 $-1 $301 1 990663270 60 1882980354 7 #
plane-surface $-1 50 0 0 -1 0 0 0 0 1 forward_v I I I I #
coedge $-1 $306 $304 $308 $446 reversed $195 $-1 #
edge $-1 $319 -50 $448 50 $318 $582 forward 7 unknown #
vertex $-1 $446 $583 #
straight-curve $-1 -50 -50 0 0 0 -1 I I #
edge $-1 $444 -50 $448 50 $442 $584 forward 7 unknown #
straight-curve $-1 0 -50 -50 -1 0 0 I I #
vertex $-1 $311 $585 #
straight-curve $-1 0 50 -50 1 0 0 I I #
point $-1 50 50 -50 #
point $-1 50 -50 -50 #
straight-curve $-1 -50 0 50 0 -1 0 I I #
point $-1 -50 50 50 #
point $-1 -50 -50 50 #
straight-curve $-1 50 -50 0 0 0 -1 I I #
straight-curve $-1 50 50 0 0 0 -1 I I #
point $-1 2 0 40 #
point $-1 2 0 40 #
face $-1 $485 $358 $37 $-1 $586 forward single #
loop $-1 $-1 $491 $334 #
plane-surface $-1 -40 -10 0 -1 0 0 0 0 1 forward_v I I I I #
coedge $-1 $587 $588 $490 $589 forward $335 $-1 #
coedge $-1 $590 $337 $588 $591 reversed $222 $-1 #
coedge $-1 $337 $590 $338 $468 forward $222 $-1 #
coedge $-1 $340 $490 $337 $466 reversed $236 $-1 #
edge $-1 $469 0.33983690945412193 $592 2.8017557441356713 $337 $593 forward 7 unknown #
coedge $-1 $339 $338 $594 $595 reversed $151 $-1 #
edge $-1 $596 0 $469 50 $464 $597 forward 7 unknown #
vertex $-1 $468 $598 #
straight-curve $-1 0 -10 50 -1 0 0 I I #
coedge $-1 $594 $479 $342 $472 forward $481 $-1 #
edge $599 $475 -10 $473 10 $342 $600 forward 7 unknown #
vertex $-1 $472 $601 #
straight-curve $-1 40 -10 0 0 0 1 I I #
vertex $-1 $484 $602 #
straight-curve $-1 40 10 0 0 0 1 I I #
point $-1 40 10 50 #
point $-1 40 -10 50 #
coedge $-1 $471 $349 $352 $484 forward $481 $-1 #
coedge $-1 $349 $603 $356 $488 forward $481 $-1 #
loop $-1 $-1 $479 $496 #
convexity-sys-attrib $-1 $-1 $-1 $350 #
ellipse-curve $-1 0 0 0 0 0 -1 30 0 0 1 I I #
edge $604 $354 28.284271247461902 $475 40 $352 $605 forward 7 unknown #
face $-1 $364 $353 $37 $-1 $606 forward single #
point $-1 28.284271247461902 10 0 #
coedge $-1 $357 $356 $607 $608 forward $358 $-1 #
edge $609 $610 -40 $359 -28.284271247461902 $356 $611 forward 7 unknown #
point $-1 -28.284271247461902 10 0 #
coedge $-1 $465 $361 $462 $589 reversed $236 $-1 #
coedge $-1 $607 $612 $361 $492 forward $460 $-1 #
edge $-1 $613 -10 $493 10 $491 $614 forward 7 unknown #
vertex $-1 $608 $615 #
straight-curve $-1 0 10 50 1 0 0 I I #
straight-curve $-1 0 10 50 1 0 0 I I #
face $-1 $-1 $481 $37 $-1 $616 reversed single #
plane-surface $-1 4.4408920985006262e-016 1.6653345369377348e-016 50 0 0 1 1 0 0 forward_v I I I I #
loop $-1 $-1 $511 $367 #
plane-surface $-1 4.4408920985006262e-016 33.722598211027616 30 0 0 1 1 0 0 forward_v I I I I #
coedge $-1 $369 $383 $370 $502 forward $241 $-1 #
coedge $-1 $371 $370 $617 $618 reversed $159 $-1 #
edge $-1 $619 0 $503 20 $500 $620 forward 7 unknown #
vertex $-1 $502 $621 #
straight-curve $-1 15 16.49519052838329 50 0 -1 0 I I #
coedge $-1 $617 $378 $374 $506 forward $498 $-1 #
edge $622 $381 -15 $508 15 $374 $623 forward 7 unknown #
convexity-sys-attrib $-1 $-1 $-1 $375 #
vertex $-1 $506 $624 #
straight-curve $-1 15 40 30 0 0 1 I I #
point $-1 15 40 50 #
coedge $-1 $378 $617 $383 $515 forward $498 $-1 #
convexity-sys-attrib $-1 $-1 $-1 $379 #
straight-curve $-1 -15 16.49519052838329 30 0 1 0 I I #
point $-1 -15 40 30 #
edge $625 $619 1.0471975511965979 $384 2.0943951023931953 $383 $626 forward 7 unknown #
point $-1 -15 25.98076211353316 30 #
ellipse-curve $-1 0 0 50 0 0 1 30 0 0 1 I I #
loop $-1 $-1 $531 $389 #
plane-surface $-1 4.4408920985006262e-016 -33.722598211027616 30 0 0 1 1 0 0 forward_v I I I I #
coedge $-1 $391 $405 $392 $522 forward $258 $-1 #
coedge $-1 $393 $392 $627 $628 reversed $167 $-1 #
edge $-1 $629 0 $523 20 $520 $630 forward 7 unknown #
vertex $-1 $522 $631 #
straight-curve $-1 -15 -16.49519052838329 50 0 1 0 I I #
coedge $-1 $627 $400 $396 $526 forward $518 $-1 #
edge $632 $403 -15 $528 15 $396 $633 forward 7 unknown #
convexity-sys-attrib $-1 $-1 $-1 $397 #
vertex $-1 $526 $634 #
straight-curve $-1 -15 -40 30 0 0 1 I I #
point $-1 -15 -40 50 #
coedge $-1 $400 $627 $405 $535 forward $518 $-1 #
convexity-sys-attrib $-1 $-1 $-1 $401 #
straight-curve $-1 15 -16.49519052838329 30 0 -1 0 I I #
point $-1 15 -40 30 #
edge $635 $629 -2.0943951023931953 $406 -1.0471975511965979 $405 $636 forward 7 unknown #
point $-1 15 -25.98076211353316 30 #
ellipse-curve $-1 0 0 50 0 0 1 30 0 0 1 I I #
model_id-kcp-attrib $-1 $-1 $-1 $412 1 990663270 60 1882980353 9 #
face $637 $638 $639 $11 $-1 $119 forward single #
loop $-1 $-1 $552 $412 #
plane-surface $-1 0 -40 40 0 1 0 0 0 1 forward_v I I I I #
coedge $-1 $640 $413 $641 $642 reversed $276 $-1 #
coedge $-1 $413 $640 $573 $643 forward $276 $-1 #
coedge $-1 $575 $644 $413 $545 forward $645 $-1 #
edge $-1 $646 -25 $647 -5 $544 $648 forward 7 unknown #
coedge $-1 $415 $414 $649 $650 reversed $176 $-1 #
coedge $-1 $555 $651 $415 $548 forward $556 $-1 #
edge $652 $550 25.98076211353316 $653 40 $547 $654 forward 7 unknown #
coedge $-1 $655 $416 $651 $656 reversed $423 $-1 #
vertex $-1 $656 $657 #
straight-curve $-1 15 -25.98076211353316 25 0 0 1 I I #
coedge $-1 $658 $567 $418 $553 reversed $540 $-1 #
edge $-1 $558 -10 $560 10 $418 $659 forward 7 unknown #
coedge $-1 $660 $419 $422 $563 forward $556 $-1 #
coedge $-1 $419 $547 $658 $661 forward $556 $-1 #
loop $-1 $-1 $662 $663 #
attrib_edge_convexity-kcp-attrib $-1 $664 $-1 $420 1 #
vertex $-1 $661 $665 #
straight-curve $-1 -15 0 50 0 1 0 I I #
vertex $-1 $421 $666 #
straight-curve $-1 -15 0 30 0 1 0 I I #
coedge $-1 $422 $667 $668 $669 forward $423 $-1 #
edge $670 $424 2.0943951023931953 $671 2.8017557441356713 $554 $672 forward 7 unknown #
face $673 $663 $423 $11 $-1 $674 reversed single #
point $-1 -15 -25.98076211353316 50 #
point $-1 -15 -25.98076211353316 30 #
coedge $-1 $552 $649 $427 $568 forward $540 $-1 #
edge $-1 $569 -15 $560 15 $567 $675 forward 7 unknown #
vertex $-1 $650 $676 #
straight-curve $-1 15 0 30 0 -1 0 I I #
point $-1 15 -25.98076211353316 30 #
coedge $-1 $677 $678 $679 $680 forward $432 $-1 #
coedge $-1 $681 $436 $543 $643 reversed $291 $-1 #
coedge $-1 $436 $681 $682 $683 reversed $291 $-1 #
coedge $-1 $684 $544 $436 $576 forward $645 $-1 #
edge $-1 $647 1.0471975511965979 $685 2.0943951023931953 $575 $686 forward 7 unknown #
model_id-kcp-attrib $-1 $687 $437 $296 1 990663270 60 1882980353 27 #
model_id-kcp-attrib $-1 $-1 $-1 $438 1 990663270 60 1882980353 23 #
face $688 $689 $690 $11 $-1 $691 reversed single #
loop $-1 $-1 $692 $438 #
plane-surface $-1 0 -50 0 0 1 0 0 0 1 forward_v I I I I #
straight-curve $-1 -50 50 0 0 0 -1 I I #
point $-1 -50 -50 -50 #
straight-curve $-1 -50 0 -50 0 1 0 I I #
point $-1 -50 50 -50 #
plane-surface $-1 -40 10 0 0 1 0 0 0 1 forward_v I I I I #
coedge $-1 $693 $462 $612 $694 reversed $335 $-1 #
coedge $-1 $462 $693 $463 $591 forward $335 $-1 #
edge $-1 $592 28.284271247461902 $613 40 $462 $695 forward 7 unknown #
coedge $-1 $464 $463 $696 $697 reversed $222 $-1 #
edge $-1 $698 0 $592 50 $588 $699 forward 7 unknown #
vertex $-1 $591 $700 #
ellipse-curve $-1 0 0 50 0 0 -1 30 0 0 1 I I #
coedge $-1 $696 $471 $467 $595 forward $481 $-1 #
edge $701 $473 -40 $596 -28.284271247461902 $467 $702 forward 7 unknown #
vertex $-1 $595 $703 #
straight-curve $-1 28.284271247461902 -10 0 0 0 1 I I #
point $-1 28.284271247461902 -10 50 #
convexity-sys-attrib $-1 $-1 $-1 $472 #
straight-curve $-1 40 0 0 0 -1 0 I I #
point $-1 40 -10 0 #
point $-1 40 10 0 #
coedge $-1 $480 $704 $705 $706 forward $481 $-1 #
convexity-sys-attrib $-1 $-1 $-1 $484 #
straight-curve $-1 0 10 0 1 0 0 I I #
plane-surface $-1 28.284271247461902 10 0 0 1 0 0 0 1 forward_v I I I I #
coedge $-1 $705 $491 $487 $608 reversed $460 $-1 #
edge $-1 $610 0 $493 50 $487 $707 forward 7 unknown #
convexity-sys-attrib $-1 $-1 $-1 $488 #
vertex $-1 $706 $708 #
straight-curve $-1 0 10 0 1 0 0 I I #
coedge $-1 $491 $705 $587 $694 forward $460 $-1 #
vertex $-1 $694 $709 #
straight-curve $-1 -40 0 50 0 1 0 I I #
point $-1 -40 10 50 #
plane-surface $-1 4.4408920985006262e-016 1.6653345369377348e-016 0 0 0 1 1 0 0 forward_v I I I I #
coedge $-1 $511 $505 $501 $618 forward $498 $-1 #
edge $710 $508 -23.50480947161671 $619 -9.4855715851498701 $501 $711 forward 7 unknown #
vertex $-1 $515 $712 #
straight-curve $-1 15 25.98076211353316 30 0 0 1 I I #
point $-1 15 25.98076211353316 50 #
convexity-sys-attrib $-1 $-1 $-1 $506 #
straight-curve $-1 0 40 30 1 0 0 I I #
point $-1 15 40 30 #
convexity-sys-attrib $-1 $-1 $-1 $515 #
ellipse-curve $-1 0 0 30 0 0 1 30 0 0 1 I I #
coedge $-1 $531 $525 $521 $628 forward $518 $-1 #
edge $713 $528 -23.50480947161671 $629 -9.4855715851498701 $521 $714 forward 7 unknown #
vertex $-1 $535 $715 #
straight-curve $-1 -15 -25.98076211353316 30 0 0 1 I I #
point $-1 -15 -25.98076211353316 50 #
convexity-sys-attrib $-1 $-1 $-1 $526 #
straight-curve $-1 0 -40 30 -1 0 0 I I #
point $-1 -15 -40 30 #
convexity-sys-attrib $-1 $-1 $-1 $535 #
ellipse-curve $-1 0 0 30 0 0 1 30 0 0 1 I I #
model_id-kcp-attrib $-1 $-1 $-1 $539 1 990663270 60 1882980353 10 #
face $716 $564 $717 $11 $-1 $718 forward single #
loop $-1 $-1 $719 $539 #
coedge $-1 $543 $542 $720 $721 forward $276 $-1 #
coedge $-1 $722 $723 $542 $642 forward $556 $-1 #
edge $724 $725 -40 $646 -25.98076211353316 $641 $654 forward 7 unknown #
edge $-1 $726 -40 $647 -25.98076211353316 $543 $570 forward 7 unknown #
coedge $-1 $544 $727 $722 $728 reversed $645 $-1 #
loop $-1 $-1 $684 $729 #
vertex $-1 $545 $730 #
vertex $-1 $576 $731 #
straight-curve $-1 15 25.98076211353316 25 0 0 -1 I I #
coedge $-1 $567 $658 $546 $650 forward $540 $-1 #
edge $-1 $653 -10 $569 10 $546 $732 forward 7 unknown #
coedge $-1 $547 $733 $549 $656 forward $556 $-1 #
attrib_edge_convexity-kcp-attrib $-1 $734 $-1 $548 1 #
vertex $-1 $661 $735 #
straight-curve $-1 15 0 50 0 -1 0 I I #
coedge $-1 $667 $549 $736 $737 forward $423 $-1 #
edge $738 $739 0.33983690945412193 $550 1.0471975511965979 $651 $672 forward 7 unknown #
point $-1 15 -25.98076211353316 50 #
coedge $-1 $649 $552 $555 $661 reversed $540 $-1 #
straight-curve $-1 -15 -40 40 0 0 -1 I I #
coedge $-1 $740 $554 $741 $742 forward $556 $-1 #
edge $743 $653 -15 $558 15 $555 $744 forward 7 unknown #
coedge $-1 $723 $745 $746 $747 forward $556 $-1 #
face $748 $749 $750 $11 $-1 $751 forward single #
convexity-sys-attrib $-1 $-1 $557 $420 #
point $-1 -15 -40 50 #
point $-1 -15 -40 30 #
coedge $-1 $562 $655 $752 $753 forward $423 $-1 #
coedge $-1 $754 $741 $562 $669 reversed $755 $-1 #
edge $-1 $756 -25 $671 25 $562 $757 forward 7 unknown #
attrib_edge_convexity-kcp-attrib $-1 $758 $-1 $563 1 #
vertex $-1 $563 $759 #
ellipse-curve $-1 0 0 50 0 0 -1 30 0 0 1 I I #
model_id-kcp-attrib $-1 $-1 $-1 $564 1 990663270 60 1882980353 12 #
cone-surface $-1 0 0 25 0 0 1 30 0 0 1 I I 0 1 30 forward I I I I #
straight-curve $-1 0 -40 30 -1 0 0 I I #
point $-1 15 -40 30 #
coedge $-1 $760 $572 $761 $762 forward $432 $-1 #
coedge $-1 $572 $760 $763 $764 forward $432 $-1 #
coedge $-1 $765 $766 $572 $680 reversed $767 $-1 #
edge $-1 $768 -50 $769 50 $679 $770 forward 7 unknown #
coedge $-1 $574 $573 $771 $772 reversed $291 $-1 #
coedge $-1 $773 $719 $574 $683 forward $639 $-1 #
edge $-1 $685 25.98076211353316 $774 40 $682 $561 forward 7 unknown #
coedge $-1 $775 $575 $719 $776 forward $645 $-1 #
vertex $-1 $576 $777 #
ellipse-curve $-1 0 0 30 0 0 1 30 0 0 1 I I #
model_id-kcp-attrib $-1 $-1 $577 $296 1 990663270 60 1882980353 22 #
model_id-kcp-attrib $-1 $-1 $-1 $579 1 990663270 60 1882980353 24 #
face $778 $779 $780 $11 $-1 $781 reversed single #
loop $-1 $-1 $782 $579 #
plane-surface $-1 -50 0 0 1 0 0 0 0 -1 forward_v I I I I #
coedge $-1 $761 $783 $784 $785 forward $580 $-1 #
coedge $-1 $588 $587 $704 $786 reversed $335 $-1 #
edge $-1 $787 0 $613 50 $612 $788 forward 7 unknown #
straight-curve $-1 0 -10 50 -1 0 0 I I #
coedge $-1 $704 $594 $590 $697 forward $481 $-1 #
edge $789 $596 0.33983690945412193 $698 2.8017557441356713 $590 $790 forward 7 unknown #
vertex $-1 $697 $791 #
straight-curve $-1 -28.284271247461902 -10 0 0 0 1 I I #
point $-1 -28.284271247461902 -10 50 #
convexity-sys-attrib $-1 $-1 $-1 $595 #
straight-curve $-1 0 -10 0 -1 0 0 I I #
point $-1 28.284271247461902 -10 0 #
coedge $-1 $603 $696 $693 $786 forward $481 $-1 #
coedge $-1 $612 $607 $603 $706 reversed $460 $-1 #
edge $792 $787 -10 $610 10 $705 $793 forward 7 unknown #
straight-curve $-1 -40 10 0 0 0 1 I I #
point $-1 -40 10 0 #
point $-1 -40 -10 50 #
convexity-sys-attrib $-1 $-1 $-1 $618 #
straight-curve $-1 15 16.49519052838329 30 0 -1 0 I I #
point $-1 15 25.98076211353316 30 #
convexity-sys-attrib $-1 $-1 $-1 $628 #
straight-curve $-1 -15 -16.49519052838329 30 0 1 0 I I #
point $-1 -15 -25.98076211353316 30 #
model_id-kcp-attrib $-1 $-1 $-1 $638 1 990663270 60 1882980353 11 #
loop $-1 $-1 $720 $638 #
plane-surface $-1 0 40 40 0 -1 0 0 0 -1 forward_v I I I I #
coedge $-1 $682 $746 $684 $776 reversed $639 $-1 #
coedge $-1 $794 $771 $640 $721 reversed $717 $-1 #
edge $-1 $725 -10 $726 10 $640 $795 forward 7 unknown #
coedge $-1 $796 $641 $644 $728 forward $556 $-1 #
coedge $-1 $641 $662 $794 $797 forward $556 $-1 #
attrib_edge_convexity-kcp-attrib $-1 $798 $-1 $642 1 #
vertex $-1 $797 $799 #
vertex $-1 $643 $800 #
coedge $-1 $644 $801 $802 $803 forward $645 $-1 #
edge $804 $646 -1.0471975511965979 $805 -0.33983690945412193 $722 $672 forward 7 unknown #
face $806 $807 $645 $11 $-1 $674 reversed single #
point $-1 15 25.98076211353316 50 #
point $-1 15 25.98076211353316 30 #
straight-curve $-1 15 -40 40 0 0 -1 I I #
coedge $-1 $651 $808 $809 $810 forward $556 $-1 #
convexity-sys-attrib $-1 $-1 $652 $548 #
point $-1 15 -40 50 #
coedge $-1 $809 $811 $655 $737 reversed $812 $-1 #
edge $-1 $739 -25 $813 25 $655 $814 forward 7 unknown #
attrib_edge_convexity-kcp-attrib $-1 $815 $-1 $656 1 #
vertex $-1 $737 $816 #
coedge $-1 $817 $660 $818 $819 forward $556 $-1 #
coedge $-1 $668 $820 $660 $742 reversed $755 $-1 #
edge $821 $671 28.284271247461902 $822 40 $660 $823 forward 7 unknown #
attrib_edge_convexity-kcp-attrib $-1 $824 $-1 $661 1 #
straight-curve $-1 0 -40 50 -1 0 0 I I #
coedge $-1 $662 $817 $775 $825 forward $556 $-1 #
coedge $-1 $719 $773 $662 $747 reversed $639 $-1 #
edge $826 $827 25.98076211353316 $828 40 $662 $559 forward 7 unknown #
model_id-kcp-attrib $-1 $-1 $-1 $663 1 990663270 60 1882980353 13 #
face $829 $830 $831 $11 $-1 $832 forward single #
loop $-1 $556 $833 $663 #
plane-surface $-1 0 0 50 0 0 1 1 0 0 forward_v I I I I #
coedge $-1 $834 $835 $667 $753 reversed $836 $-1 #
edge $-1 $813 0.33983690945412193 $756 2.8017557441356713 $752 $837 forward 7 unknown #
coedge $-1 $820 $668 $835 $838 forward $755 $-1 #
loop $-1 $-1 $668 $830 #
vertex $-1 $753 $839 #
straight-curve $-1 -28.284271247461902 -10 25 0 0 1 I I #
convexity-sys-attrib $-1 $-1 $670 $563 #
point $-1 -28.284271247461902 -10 50 #
coedge $-1 $678 $677 $840 $841 forward $432 $-1 #
coedge $-1 $842 $692 $677 $762 reversed $580 $-1 #
edge $843 $769 -50 $844 50 $761 $845 forward 7 unknown #
coedge $-1 $846 $847 $678 $764 reversed $780 $-1 #
edge $-1 $848 -50 $768 50 $763 $849 forward 7 unknown #
coedge $-1 $850 $679 $847 $851 reversed $767 $-1 #
coedge $-1 $679 $850 $842 $852 forward $767 $-1 #
loop $-1 $-1 $766 $779 #
vertex $-1 $680 $853 #
vertex $-1 $852 $854 #
straight-curve $-1 50 0 -50 0 -1 0 I I #
coedge $-1 $720 $855 $681 $772 forward $717 $-1 #
edge $-1 $774 -15 $726 15 $771 $856 forward 7 unknown #
coedge $-1 $746 $682 $855 $857 reversed $639 $-1 #
vertex $-1 $772 $858 #
coedge $-1 $859 $684 $745 $825 reversed $645 $-1 #
edge $-1 $685 5 $827 25 $684 $860 forward 7 unknown #
point $-1 -15 25.98076211353316 30 #
model_id-kcp-attrib $-1 $-1 $-1 $689 1 990663270 60 1882980353 25 #
face $861 $-1 $767 $11 $-1 $862 reversed single #
loop $-1 $-1 $847 $689 #
plane-surface $-1 0 50 0 0 -1 0 0 0 -1 forward_v I I I I #
coedge $-1 $840 $863 $846 $864 forward $690 $-1 #
coedge $-1 $692 $842 $865 $866 reversed $580 $-1 #
coedge $-1 $863 $840 $692 $785 reversed $690 $-1 #
edge $867 $868 -50 $844 50 $784 $869 forward 7 unknown #
edge $870 $698 28.284271247461902 $787 40 $693 $871 forward 7 unknown #
vertex $-1 $786 $872 #
straight-curve $-1 -40 -10 0 0 0 1 I I #
convexity-sys-attrib $-1 $-1 $-1 $697 #
ellipse-curve $-1 0 0 0 0 0 -1 30 0 0 1 I I #
point $-1 -28.284271247461902 -10 0 #
convexity-sys-attrib $-1 $-1 $-1 $706 #
straight-curve $-1 -40 0 0 0 1 0 I I #
coedge $-1 $855 $720 $723 $797 reversed $717 $-1 #
straight-curve $-1 15 40 40 0 0 -1 I I #
coedge $-1 $808 $722 $873 $874 forward $556 $-1 #
edge $875 $828 -15 $725 15 $723 $876 forward 7 unknown #
convexity-sys-attrib $-1 $-1 $724 $642 #
point $-1 15 40 50 #
point $-1 15 40 30 #
coedge $-1 $727 $859 $877 $878 forward $645 $-1 #
coedge $-1 $879 $873 $727 $803 reversed $880 $-1 #
edge $-1 $881 -25 $805 25 $727 $882 forward 7 unknown #
attrib_edge_convexity-kcp-attrib $-1 $883 $-1 $728 1 #
vertex $-1 $728 $884 #
model_id-kcp-attrib $-1 $-1 $-1 $729 1 990663270 60 1882980353 20 #
face $885 $296 $836 $11 $-1 $886 reversed single #
coedge $-1 $733 $796 $887 $888 forward $556 $-1 #
coedge $-1 $889 $736 $733 $810 reversed $812 $-1 #
edge $890 $891 -40 $739 -28.284271247461902 $733 $823 forward 7 unknown #
coedge $-1 $736 $889 $834 $892 forward $812 $-1 #
loop $-1 $-1 $736 $893 #
vertex $-1 $892 $894 #
straight-curve $-1 28.284271247461902 -10 25 0 0 -1 I I #
convexity-sys-attrib $-1 $-1 $738 $656 #
point $-1 28.284271247461902 -10 50 #
coedge $-1 $745 $740 $895 $896 forward $556 $-1 #
coedge $-1 $897 $898 $740 $819 reversed $899 $-1 #
edge $900 $822 -10 $901 10 $740 $902 forward 7 unknown #
coedge $-1 $741 $754 $897 $903 reversed $755 $-1 #
attrib_edge_convexity-kcp-attrib $-1 $904 $-1 $742 1 #
vertex $-1 $742 $905 #
straight-curve $-1 0 -10 50 -1 0 0 I I #
convexity-sys-attrib $-1 $-1 $743 $661 #
edge $906 $907 -2.8017557441356713 $827 -2.0943951023931953 $745 $672 forward 7 unknown #
attrib_edge_convexity-kcp-attrib $-1 $908 $-1 $747 1 #
vertex $-1 $825 $909 #
vertex $-1 $747 $910 #
model_id-kcp-attrib $-1 $-1 $-1 $749 1 990663270 60 1882980353 14 #
face $911 $893 $755 $11 $-1 $912 forward single #
loop $-1 $-1 $913 $749 #
plane-surface $-1 0 10 25 0 -1 0 0 0 -1 forward_v I I I I #
coedge $-1 $914 $865 $850 $915 forward $750 $-1 #
coedge $-1 $916 $752 $811 $892 reversed $836 $-1 #
coedge $-1 $752 $917 $754 $838 reversed $836 $-1 #
loop $-1 $-1 $752 $807 #
ellipse-curve $-1 0 0 0 0 0 -1 30 0 0 1 I I #
edge $-1 $756 28.284271247461902 $918 40 $754 $919 forward 7 unknown #
point $-1 -28.284271247461902 -10 0 #
coedge $-1 $784 $782 $760 $841 reversed $690 $-1 #
edge $920 $844 -50 $848 50 $840 $921 forward 7 unknown #
coedge $-1 $783 $761 $766 $852 reversed $580 $-1 #
attrib_edge_convexity-kcp-attrib $-1 $922 $-1 $762 1 #
vertex $-1 $841 $923 #
straight-curve $-1 0 -50 -50 -1 0 0 I I #
coedge $-1 $924 $763 $782 $864 reversed $780 $-1 #
coedge $-1 $763 $924 $765 $851 forward $780 $-1 #
vertex $-1 $764 $925 #
straight-curve $-1 0 50 -50 1 0 0 I I #
coedge $-1 $766 $765 $833 $915 reversed $767 $-1 #
edge $-1 $926 -50 $768 50 $765 $927 forward 7 unknown #
edge $928 $929 -50 $769 50 $766 $930 forward 7 unknown #
point $-1 50 50 -50 #
point $-1 50 -50 -50 #
coedge $-1 $771 $794 $773 $857 forward $717 $-1 #
straight-curve $-1 0 40 30 1 0 0 I I #
edge $-1 $828 -10 $774 10 $855 $931 forward 7 unknown #
point $-1 -15 40 30 #
coedge $-1 $801 $775 $913 $932 forward $645 $-1 #
straight-curve $-1 -15 25.98076211353316 25 0 0 1 I I #
model_id-kcp-attrib $-1 $-1 $-1 $779 1 990663270 60 1882980353 26 #
plane-surface $-1 50 0 0 -1 0 0 0 0 1 forward_v I I I I #
coedge $-1 $782 $784 $933 $934 reversed $690 $-1 #
edge $935 $936 -50 $848 50 $846 $937 forward 7 unknown #
coedge $-1 $833 $933 $783 $866 forward $750 $-1 #
edge $938 $868 -50 $929 50 $783 $939 forward 7 unknown #
attrib_edge_convexity-kcp-attrib $-1 $940 $-1 $785 1 #
vertex $-1 $934 $941 #
straight-curve $-1 -50 -50 0 0 0 -1 I I #
convexity-sys-attrib $-1 $-1 $-1 $786 #
straight-curve $-1 0 -10 0 -1 0 0 I I #
point $-1 -40 -10 0 #
coedge $-1 $802 $942 $796 $874 reversed $880 $-1 #
edge $943 $805 28.284271247461902 $944 40 $796 $945 forward 7 unknown #
attrib_edge_convexity-kcp-attrib $-1 $946 $-1 $797 1 #
straight-curve $-1 0 40 50 1 0 0 I I #
coedge $-1 $947 $948 $801 $878 reversed $836 $-1 #
edge $-1 $949 -2.8017557441356713 $881 -0.33983690945412193 $877 $837 forward 7 unknown #
coedge $-1 $942 $802 $948 $950 forward $880 $-1 #
loop $-1 $-1 $802 $951 #
vertex $-1 $878 $952 #
straight-curve $-1 28.284271247461902 10 25 0 0 1 I I #
convexity-sys-attrib $-1 $-1 $804 $728 #
point $-1 28.284271247461902 10 50 #
model_id-kcp-attrib $-1 $-1 $-1 $807 1 990663270 60 1882980353 21 #
plane-surface $-1 0 0 0 0 0 -1 -1 0 0 forward_v I I I I #
coedge $-1 $953 $954 $808 $888 reversed $955 $-1 #
edge $956 $944 -10 $891 10 $808 $957 forward 7 unknown #
coedge $-1 $811 $809 $954 $958 forward $812 $-1 #
attrib_edge_convexity-kcp-attrib $-1 $959 $-1 $810 1 #
vertex $-1 $810 $960 #
edge $-1 $961 -40 $813 -28.284271247461902 $811 $919 forward 7 unknown #
face $962 $963 $812 $11 $-1 $912 forward single #
point $-1 28.284271247461902 -10 0 #
coedge $-1 $964 $913 $817 $896 reversed $831 $-1 #
edge $965 $901 -40 $907 -28.284271247461902 $817 $945 forward 7 unknown #
coedge $-1 $966 $818 $820 $903 forward $899 $-1 #
coedge $-1 $818 $966 $964 $967 reversed $899 $-1 #
loop $-1 $-1 $898 $963 #
attrib_edge_convexity-kcp-attrib $-1 $968 $-1 $819 1 #
vertex $-1 $819 $969 #
straight-curve $-1 -40 0 50 0 1 0 I I #
edge $-1 $822 -25 $918 25 $897 $970 forward 7 unknown #
convexity-sys-attrib $-1 $-1 $821 $742 #
point $-1 -40 -10 50 #
attrib_edge_convexity-kcp-attrib $-1 $971 $-1 $825 1 #
vertex $-1 $932 $972 #
convexity-sys-attrib $-1 $-1 $826 $747 #
point $-1 -15 25.98076211353316 50 #
point $-1 -15 40 50 #
model_id-kcp-attrib $-1 $-1 $-1 $830 1 990663270 60 1882980353 15 #
plane-surface $-1 0 -10 25 0 1 0 0 0 1 forward_v I I I I #
coedge $-1 $895 $973 $859 $932 reversed $831 $-1 #
coedge $-1 $933 $833 $924 $974 forward $750 $-1 #
edge $975 $929 -50 $926 50 $850 $976 forward 7 unknown #
coedge $-1 $948 $834 $977 $978 reversed $836 $-1 #
coedge $-1 $835 $947 $966 $979 reversed $836 $-1 #
vertex $-1 $979 $980 #
straight-curve $-1 0 -10 0 -1 0 0 I I #
attrib_edge_convexity-kcp-attrib $-1 $981 $-1 $841 1 #
straight-curve $-1 -50 0 -50 0 1 0 I I #
convexity-sys-attrib $-1 $-1 $843 $762 #
point $-1 -50 -50 -50 #
coedge $-1 $847 $846 $914 $974 reversed $780 $-1 #
point $-1 -50 50 -50 #
vertex $-1 $915 $982 #
straight-curve $-1 50 50 0 0 0 -1 I I #
attrib_edge_convexity-kcp-attrib $-1 $983 $-1 $852 1 #
vertex $-1 $915 $984 #
straight-curve $-1 50 -50 0 0 0 -1 I I #
straight-curve $-1 -15 40 40 0 0 -1 I I #
edge $-1 $907 -25 $949 25 $859 $985 forward 7 unknown #
coedge $-1 $865 $914 $863 $934 forward $750 $-1 #
edge $986 $936 -50 $868 50 $863 $987 forward 7 unknown #
attrib_edge_convexity-kcp-attrib $-1 $988 $-1 $864 1 #
vertex $-1 $974 $989 #
straight-curve $-1 -50 50 0 0 0 -1 I I #
attrib_edge_convexity-kcp-attrib $-1 $990 $-1 $866 1 #
straight-curve $-1 0 -50 50 1 0 0 I I #
convexity-sys-attrib $-1 $-1 $867 $785 #
point $-1 -50 -50 50 #
coedge $-1 $873 $879 $953 $991 reversed $880 $-1 #
attrib_edge_convexity-kcp-attrib $-1 $992 $-1 $874 1 #
vertex $-1 $874 $993 #
straight-curve $-1 0 10 50 1 0 0 I I #
convexity-sys-attrib $-1 $-1 $875 $797 #
coedge $-1 $917 $877 $973 $994 reversed $836 $-1 #
coedge $-1 $877 $916 $879 $950 reversed $836 $-1 #
vertex $-1 $994 $995 #
edge $-1 $881 28.284271247461902 $996 40 $879 $997 forward 7 unknown #
face $998 $999 $880 $11 $-1 $832 forward single #
point $-1 28.284271247461902 10 0 #
coedge $-1 $977 $887 $942 $991 forward $955 $-1 #
coedge $-1 $887 $977 $889 $958 reversed $955 $-1 #
loop $-1 $-1 $954 $999 #
attrib_edge_convexity-kcp-attrib $-1 $1000 $-1 $888 1 #
straight-curve $-1 40 0 50 0 -1 0 I I #
edge $-1 $891 -25 $961 25 $954 $1001 forward 7 unknown #
convexity-sys-attrib $-1 $-1 $890 $810 #
point $-1 40 -10 50 #
vertex $-1 $958 $1002 #
model_id-kcp-attrib $-1 $-1 $-1 $893 1 990663270 60 1882980353 16 #
face $1003 $951 $899 $11 $-1 $1004 forward single #
coedge $-1 $973 $895 $898 $967 forward $831 $-1 #
attrib_edge_convexity-kcp-attrib $-1 $1005 $-1 $896 1 #
coedge $-1 $898 $897 $917 $979 forward $899 $-1 #
edge $-1 $901 -25 $1006 25 $964 $1007 forward 7 unknown #
convexity-sys-attrib $-1 $-1 $900 $819 #
point $-1 -40 10 50 #
straight-curve $-1 -40 -10 25 0 0 -1 I I #
convexity-sys-attrib $-1 $-1 $906 $825 #
point $-1 -28.284271247461902 10 50 #
coedge $-1 $913 $964 $947 $994 forward $831 $-1 #
edge $1008 $926 -50 $936 50 $924 $1009 forward 7 unknown #
attrib_edge_convexity-kcp-attrib $-1 $1010 $-1 $915 1 #
straight-curve $-1 50 0 50 0 1 0 I I #
coedge $-1 $954 $953 $916 $978 forward $955 $-1 #
edge $-1 $996 -10 $961 10 $977 $1011 forward 7 unknown #
edge $-1 $918 -10 $1006 10 $966 $1012 forward 7 unknown #
point $-1 -40 -10 0 #
convexity-sys-attrib $-1 $-1 $920 $841 #
point $-1 50 50 50 #
convexity-sys-attrib $-1 $-1 $928 $852 #
point $-1 50 -50 50 #
straight-curve $-1 -28.284271247461902 10 25 0 0 -1 I I #
attrib_edge_convexity-kcp-attrib $-1 $1013 $-1 $934 1 #
straight-curve $-1 -50 0 50 0 -1 0 I I #
convexity-sys-attrib $-1 $-1 $935 $864 #
point $-1 -50 50 50 #
convexity-sys-attrib $-1 $-1 $938 $866 #
edge $-1 $944 -25 $996 25 $953 $1014 forward 7 unknown #
convexity-sys-attrib $-1 $-1 $943 $874 #
point $-1 40 10 50 #
edge $-1 $1006 -40 $949 -28.284271247461902 $973 $997 forward 7 unknown #
point $-1 -28.284271247461902 10 0 #
vertex $-1 $978 $1015 #
straight-curve $-1 0 10 0 1 0 0 I I #
model_id-kcp-attrib $-1 $-1 $-1 $951 1 990663270 60 1882980353 18 #
face $1016 $729 $955 $11 $-1 $1017 forward single #
convexity-sys-attrib $-1 $-1 $956 $888 #
straight-curve $-1 40 -10 25 0 0 -1 I I #
point $-1 40 -10 0 #
model_id-kcp-attrib $-1 $-1 $-1 $963 1 990663270 60 1882980353 17 #
plane-surface $-1 -40 0 25 1 0 0 0 0 -1 forward_v I I I I #
convexity-sys-attrib $-1 $-1 $965 $896 #
vertex $-1 $994 $1018 #
straight-curve $-1 -40 10 25 0 0 -1 I I #
attrib_edge_convexity-kcp-attrib $-1 $1019 $-1 $974 1 #
straight-curve $-1 0 50 50 -1 0 0 I I #
convexity-sys-attrib $-1 $-1 $975 $915 #
straight-curve $-1 40 0 0 0 -1 0 I I #
straight-curve $-1 -40 0 0 0 1 0 I I #
convexity-sys-attrib $-1 $-1 $986 $934 #
straight-curve $-1 40 10 25 0 0 -1 I I #
point $-1 40 10 0 #
model_id-kcp-attrib $-1 $-1 $-1 $999 1 990663270 60 1882980353 19 #
plane-surface $-1 40 0 25 -1 0 0 0 0 1 forward_v I I I I #
point $-1 -40 10 0 #
convexity-sys-attrib $-1 $-1 $1008 $974 #
End-of-ACIS-data 