106 0 1 0           
body $-1 $1 $-1 $-1 #
lump $-1 $-1 $2 $0 #
shell $-1 $-1 $-1 $3 $1 #
face $-1 $4 $5 $2 $-1 $6 reversed single #
face $-1 $7 $8 $2 $-1 $9 reversed single #
loop $-1 $10 $11 $3 #
cone-surface $-1 0 -35 0 0 0 1 2 0 0 1 I I 0 1 0 I I I I #
face $-1 $12 $13 $2 $-1 $14 forward single #
loop $-1 $15 $16 $4 #
cone-surface $-1 0 35 0 0 0 1 2 0 0 1 I I 0 1 0 I I I I #
loop $-1 $-1 $17 $3 #
coedge $-1 $11 $11 $18 $19 1 $5 $-1 #
face $-1 $20 $21 $2 $-1 $22 forward single #
loop $-1 $23 $18 $7 #
plane-surface $-1 0 0 30 0 0 1 1 0 0 0 I I I I #
loop $-1 $-1 $24 $4 #
coedge $-1 $16 $16 $25 $26 1 $8 $-1 #
coedge $-1 $17 $17 $27 $28 1 $10 $-1 #
coedge $-1 $18 $18 $11 $19 0 $13 $-1 #
edge $-1 $29 $29 $18 $30 0 #
face $-1 $31 $32 $2 $-1 $33 forward single #
loop $-1 $-1 $34 $12 #
plane-surface $-1 -15 0 40 1 0 0 0 0 -1 0 I I I I #
loop $-1 $-1 $35 $7 #
coedge $-1 $24 $24 $36 $37 1 $15 $-1 #
coedge $-1 $25 $25 $16 $26 0 $38 $-1 #
edge $-1 $39 $39 $25 $40 0 #
coedge $-1 $27 $27 $17 $28 0 $41 $-1 #
edge $-1 $42 $42 $27 $43 0 #
vertex $-1 $19 $44 #
ellipse-curve $-1 0 -35 30 0 0 -1 2 0 0 1 I I #
face $-1 $45 $46 $2 $-1 $33 forward single #
loop $-1 $-1 $47 $20 #
plane-surface $-1 15 0 40 -1 0 0 0 0 1 0 I I I I #
coedge $-1 $48 $49 $50 $51 1 $21 $-1 #
coedge $-1 $52 $53 $54 $55 1 $23 $-1 #
coedge $-1 $36 $36 $24 $37 0 $56 $-1 #
edge $-1 $57 $57 $36 $58 0 #
loop $-1 $59 $25 $45 #
vertex $-1 $26 $60 #
ellipse-curve $-1 0 35 30 0 0 -1 2 0 0 1 I I #
loop $-1 $56 $27 $61 #
vertex $-1 $28 $62 #
ellipse-curve $-1 0 -35 -50 0 0 1 2 0 0 1 I I #
point $-1 -2 -35.000000000000014 30 #
face $-1 $63 $38 $2 $-1 $14 forward single #
loop $-1 $-1 $64 $31 #
coedge $-1 $65 $66 $67 $68 1 $32 $-1 #
coedge $-1 $69 $34 $70 $71 1 $21 $-1 #
coedge $-1 $34 $69 $52 $72 0 $21 $-1 #
coedge $-1 $54 $73 $34 $51 0 $74 $-1 #
edge $-1 $75 $76 $50 $77 0 #
coedge $-1 $78 $35 $49 $72 1 $23 $-1 #
coedge $-1 $35 $78 $65 $79 1 $23 $-1 #
coedge $-1 $67 $50 $35 $55 0 $74 $-1 #
edge $-1 $76 $80 $54 $81 0 #
loop $-1 $82 $36 $61 #
vertex $-1 $37 $83 #
ellipse-curve $-1 0 35 -50 0 0 1 2 0 0 1 I I #
loop $-1 $-1 $84 $45 #
point $-1 -2 34.999999999999986 30 #
face $-1 $85 $41 $2 $-1 $86 reversed single #
point $-1 2 -35 -50 #
face $-1 $87 $88 $2 $-1 $89 forward single #
coedge $-1 $90 $91 $92 $93 1 $46 $-1 #
coedge $-1 $94 $47 $53 $79 0 $32 $-1 #
coedge $-1 $47 $94 $95 $96 1 $32 $-1 #
coedge $-1 $97 $54 $47 $68 0 $74 $-1 #
edge $-1 $80 $98 $67 $99 0 #
coedge $-1 $49 $48 $100 $101 0 $21 $-1 #
coedge $-1 $102 $103 $48 $71 0 $104 $-1 #
edge $-1 $105 $75 $70 $106 0 #
edge $-1 $107 $76 $49 $108 0 #
coedge $-1 $50 $109 $102 $110 1 $74 $-1 #
loop $-1 $-1 $50 $111 #
vertex $-1 $71 $112 #
vertex $-1 $55 $113 #
straight-curve $-1 -15 -25.98076211353316 25 0 0 -1 I I #
coedge $-1 $53 $52 $114 $115 1 $23 $-1 #
edge $-1 $80 $116 $65 $117 0 #
vertex $-1 $55 $118 #
ellipse-curve $-1 0 0 30 0 0 1 30 0 0 1 I I #
loop $-1 $-1 $119 $61 #
point $-1 2 35 -50 #
coedge $-1 $120 $121 $122 $123 1 $59 $-1 #
face $-1 $124 $125 $2 $-1 $126 reversed single #
plane-surface $-1 0 0 -50 0 0 1 1 0 0 0 I I I I #
face $-1 $127 $128 $2 $-1 $22 forward single #
loop $-1 $-1 $100 $63 #
plane-surface $-1 0 -40 40 0 1 0 0 0 1 0 I I I I #
coedge $-1 $129 $64 $130 $131 1 $46 $-1 #
coedge $-1 $64 $129 $120 $132 0 $46 $-1 #
coedge $-1 $122 $133 $64 $93 0 $134 $-1 #
edge $-1 $135 $136 $92 $137 0 #
coedge $-1 $66 $65 $138 $139 1 $32 $-1 #
coedge $-1 $103 $140 $66 $96 0 $104 $-1 #
edge $-1 $98 $141 $95 $142 0 #
coedge $-1 $143 $67 $140 $144 1 $74 $-1 #
vertex $-1 $144 $145 #
straight-curve $-1 15 -25.98076211353316 25 0 0 1 I I #
coedge $-1 $146 $114 $69 $101 1 $88 $-1 #
edge $-1 $105 $107 $69 $147 0 #
coedge $-1 $148 $70 $73 $110 0 $104 $-1 #
coedge $-1 $70 $95 $146 $149 0 $104 $-1 #
loop $-1 $-1 $150 $151 #
vertex $-1 $149 $152 #
straight-curve $-1 -15 0 50 0 1 0 I I #
vertex $-1 $72 $153 #
straight-curve $-1 -15 0 30 0 1 0 I I #
coedge $-1 $73 $154 $155 $156 0 $74 $-1 #
edge $-1 $75 $157 $102 $158 0 #
face $-1 $151 $74 $2 $-1 $159 reversed single #
point $-1 -15 -25.98076211353316 50 #
point $-1 -15 -25.98076211353316 30 #
coedge $-1 $100 $138 $78 $115 0 $88 $-1 #
edge $-1 $116 $107 $114 $160 0 #
vertex $-1 $139 $161 #
straight-curve $-1 15 0 30 0 -1 0 I I #
point $-1 15 -25.98076211353316 30 #
coedge $-1 $162 $163 $164 $165 0 $82 $-1 #
coedge $-1 $166 $84 $91 $132 1 $59 $-1 #
coedge $-1 $84 $166 $167 $168 1 $59 $-1 #
coedge $-1 $169 $92 $84 $123 0 $134 $-1 #
edge $-1 $136 $170 $122 $171 0 #
face $-1 $172 $173 $2 $-1 $174 reversed single #
loop $-1 $-1 $175 $85 #
plane-surface $-1 0 -50 0 0 1 0 0 0 1 0 I I I I #
face $-1 $111 $176 $2 $-1 $177 forward single #
loop $-1 $-1 $178 $87 #
coedge $-1 $91 $90 $179 $180 0 $46 $-1 #
coedge $-1 $181 $182 $90 $131 0 $104 $-1 #
edge $-1 $183 $135 $130 $142 0 #
edge $-1 $184 $136 $91 $117 0 #
coedge $-1 $92 $185 $181 $186 1 $134 $-1 #
loop $-1 $-1 $169 $187 #
vertex $-1 $93 $188 #
vertex $-1 $123 $189 #
straight-curve $-1 15 25.98076211353316 25 0 0 -1 I I #
coedge $-1 $114 $146 $94 $139 0 $88 $-1 #
edge $-1 $141 $116 $94 $190 0 #
coedge $-1 $95 $191 $97 $144 0 $104 $-1 #
vertex $-1 $149 $192 #
straight-curve $-1 15 0 50 0 -1 0 I I #
coedge $-1 $154 $97 $193 $194 0 $74 $-1 #
edge $-1 $195 $98 $140 $158 0 #
point $-1 15 -25.98076211353316 50 #
coedge $-1 $138 $100 $103 $149 1 $88 $-1 #
straight-curve $-1 -15 -40 40 0 0 -1 I I #
coedge $-1 $196 $102 $197 $198 0 $104 $-1 #
edge $-1 $141 $105 $103 $199 0 #
coedge $-1 $182 $200 $201 $202 0 $104 $-1 #
face $-1 $203 $204 $2 $-1 $205 forward single #
point $-1 -15 -40 50 #
point $-1 -15 -40 30 #
coedge $-1 $109 $143 $206 $207 0 $74 $-1 #
coedge $-1 $208 $197 $109 $156 1 $209 $-1 #
edge $-1 $210 $157 $109 $211 0 #
vertex $-1 $110 $212 #
ellipse-curve $-1 0 0 50 0 0 -1 30 0 0 1 I I #
cone-surface $-1 0 0 25 0 0 1 30 0 0 1 I I 0 1 0 I I I I #
straight-curve $-1 0 -40 30 -1 0 0 I I #
point $-1 15 -40 30 #
coedge $-1 $213 $119 $214 $215 0 $82 $-1 #
coedge $-1 $119 $213 $216 $217 0 $82 $-1 #
coedge $-1 $218 $219 $119 $165 1 $220 $-1 #
edge $-1 $221 $222 $164 $223 0 #
coedge $-1 $121 $120 $224 $225 1 $59 $-1 #
coedge $-1 $226 $178 $121 $168 0 $128 $-1 #
edge $-1 $170 $227 $167 $108 0 #
coedge $-1 $228 $122 $178 $229 0 $134 $-1 #
vertex $-1 $123 $230 #
ellipse-curve $-1 0 0 30 0 0 1 30 0 0 1 I I #
face $-1 $231 $232 $2 $-1 $233 reversed single #
loop $-1 $-1 $234 $124 #
plane-surface $-1 -50 0 0 1 0 0 0 0 -1 0 I I I I #
coedge $-1 $214 $235 $236 $237 0 $125 $-1 #
loop $-1 $-1 $179 $127 #
plane-surface $-1 0 40 40 0 -1 0 0 0 -1 0 I I I I #
coedge $-1 $167 $201 $169 $229 1 $128 $-1 #
coedge $-1 $238 $224 $129 $180 1 $176 $-1 #
edge $-1 $183 $184 $129 $239 0 #
coedge $-1 $240 $130 $133 $186 0 $104 $-1 #
coedge $-1 $130 $150 $238 $241 0 $104 $-1 #
vertex $-1 $241 $242 #
vertex $-1 $132 $243 #
coedge $-1 $133 $244 $245 $246 0 $134 $-1 #
edge $-1 $135 $247 $181 $158 0 #
face $-1 $248 $134 $2 $-1 $159 reversed single #
point $-1 15 25.98076211353316 50 #
point $-1 15 25.98076211353316 30 #
straight-curve $-1 15 -40 40 0 0 -1 I I #
coedge $-1 $140 $249 $250 $251 0 $104 $-1 #
point $-1 15 -40 50 #
coedge $-1 $250 $252 $143 $194 1 $253 $-1 #
edge $-1 $195 $254 $143 $255 0 #
vertex $-1 $194 $256 #
coedge $-1 $257 $148 $258 $259 0 $104 $-1 #
coedge $-1 $155 $260 $148 $198 1 $209 $-1 #
edge $-1 $157 $261 $148 $262 0 #
straight-curve $-1 0 -40 50 -1 0 0 I I #
coedge $-1 $150 $257 $228 $263 0 $104 $-1 #
coedge $-1 $178 $226 $150 $202 1 $128 $-1 #
edge $-1 $264 $265 $150 $106 0 #
face $-1 $266 $267 $2 $-1 $268 forward single #
loop $-1 $104 $269 $151 #
plane-surface $-1 0 0 50 0 0 1 1 0 0 0 I I I I #
coedge $-1 $270 $271 $154 $207 1 $272 $-1 #
edge $-1 $254 $210 $206 $273 0 #
coedge $-1 $260 $155 $271 $274 0 $209 $-1 #
loop $-1 $-1 $155 $266 #
vertex $-1 $207 $275 #
straight-curve $-1 -28.284271247461902 -10 25 0 0 1 I I #
point $-1 -28.284271247461902 -10 50 #
coedge $-1 $163 $162 $276 $277 0 $82 $-1 #
coedge $-1 $278 $175 $162 $215 1 $125 $-1 #
edge $-1 $222 $279 $214 $280 0 #
coedge $-1 $281 $282 $163 $217 1 $232 $-1 #
edge $-1 $283 $221 $216 $284 0 #
coedge $-1 $285 $164 $282 $286 1 $220 $-1 #
coedge $-1 $164 $285 $278 $287 0 $220 $-1 #
loop $-1 $-1 $219 $231 #
vertex $-1 $165 $288 #
vertex $-1 $287 $289 #
straight-curve $-1 50 0 -50 0 -1 0 I I #
coedge $-1 $179 $290 $166 $225 0 $176 $-1 #
edge $-1 $227 $184 $224 $291 0 #
coedge $-1 $201 $167 $290 $292 1 $128 $-1 #
vertex $-1 $225 $293 #
coedge $-1 $294 $169 $200 $263 1 $134 $-1 #
edge $-1 $170 $264 $169 $295 0 #
point $-1 -15 25.98076211353316 30 #
face $-1 $-1 $220 $2 $-1 $296 reversed single #
loop $-1 $-1 $282 $172 #
plane-surface $-1 0 50 0 0 -1 0 0 0 -1 0 I I I I #
coedge $-1 $276 $297 $281 $298 0 $173 $-1 #
coedge $-1 $175 $278 $299 $300 1 $125 $-1 #
coedge $-1 $297 $276 $175 $237 1 $173 $-1 #
edge $-1 $301 $279 $236 $302 0 #
coedge $-1 $290 $179 $182 $241 1 $176 $-1 #
straight-curve $-1 15 40 40 0 0 -1 I I #
coedge $-1 $249 $181 $303 $304 0 $104 $-1 #
edge $-1 $265 $183 $182 $305 0 #
point $-1 15 40 50 #
point $-1 15 40 30 #
coedge $-1 $185 $294 $306 $307 0 $134 $-1 #
coedge $-1 $308 $303 $185 $246 1 $309 $-1 #
edge $-1 $310 $247 $185 $311 0 #
vertex $-1 $186 $312 #
face $-1 $61 $272 $2 $-1 $313 reversed single #
coedge $-1 $191 $240 $314 $315 0 $104 $-1 #
coedge $-1 $316 $193 $191 $251 1 $253 $-1 #
edge $-1 $317 $195 $191 $262 0 #
coedge $-1 $193 $316 $270 $318 0 $253 $-1 #
loop $-1 $-1 $193 $319 #
vertex $-1 $318 $320 #
straight-curve $-1 28.284271247461902 -10 25 0 0 -1 I I #
point $-1 28.284271247461902 -10 50 #
coedge $-1 $200 $196 $321 $322 0 $104 $-1 #
coedge $-1 $323 $324 $196 $259 1 $325 $-1 #
edge $-1 $261 $326 $196 $327 0 #
coedge $-1 $197 $208 $323 $328 1 $209 $-1 #
vertex $-1 $198 $329 #
straight-curve $-1 0 -10 50 -1 0 0 I I #
edge $-1 $330 $264 $200 $158 0 #
vertex $-1 $263 $331 #
vertex $-1 $202 $332 #
face $-1 $319 $209 $2 $-1 $333 forward single #
loop $-1 $-1 $334 $203 #
plane-surface $-1 0 10 25 0 -1 0 0 0 -1 0 I I I I #
coedge $-1 $335 $299 $285 $336 0 $204 $-1 #
coedge $-1 $337 $206 $252 $318 1 $272 $-1 #
coedge $-1 $206 $338 $208 $274 1 $272 $-1 #
loop $-1 $-1 $206 $248 #
ellipse-curve $-1 0 0 0 0 0 -1 30 0 0 1 I I #
edge $-1 $210 $339 $208 $340 0 #
point $-1 -28.284271247461902 -10 0 #
coedge $-1 $236 $234 $213 $277 1 $173 $-1 #
edge $-1 $279 $283 $276 $341 0 #
coedge $-1 $235 $214 $219 $287 1 $125 $-1 #
vertex $-1 $277 $342 #
straight-curve $-1 0 -50 -50 -1 0 0 I I #
coedge $-1 $343 $216 $234 $298 1 $232 $-1 #
coedge $-1 $216 $343 $218 $286 0 $232 $-1 #
vertex $-1 $217 $344 #
straight-curve $-1 0 50 -50 1 0 0 I I #
coedge $-1 $219 $218 $269 $336 1 $220 $-1 #
edge $-1 $345 $221 $218 $346 0 #
edge $-1 $347 $222 $219 $348 0 #
point $-1 50 50 -50 #
point $-1 50 -50 -50 #
coedge $-1 $224 $238 $226 $292 0 $176 $-1 #
straight-curve $-1 0 40 30 1 0 0 I I #
edge $-1 $265 $227 $290 $349 0 #
point $-1 -15 40 30 #
coedge $-1 $244 $228 $334 $350 0 $134 $-1 #
straight-curve $-1 -15 25.98076211353316 25 0 0 1 I I #
plane-surface $-1 50 0 0 -1 0 0 0 0 1 0 I I I I #
coedge $-1 $234 $236 $351 $352 1 $173 $-1 #
edge $-1 $353 $283 $281 $354 0 #
coedge $-1 $269 $351 $235 $300 0 $204 $-1 #
edge $-1 $301 $347 $235 $355 0 #
vertex $-1 $352 $356 #
straight-curve $-1 -50 -50 0 0 0 -1 I I #
coedge $-1 $245 $357 $240 $304 1 $309 $-1 #
edge $-1 $247 $358 $240 $359 0 #
straight-curve $-1 0 40 50 1 0 0 I I #
coedge $-1 $360 $361 $244 $307 1 $272 $-1 #
edge $-1 $362 $310 $306 $273 0 #
coedge $-1 $357 $245 $361 $363 0 $309 $-1 #
loop $-1 $-1 $245 $364 #
vertex $-1 $307 $365 #
straight-curve $-1 28.284271247461902 10 25 0 0 1 I I #
point $-1 28.284271247461902 10 50 #
plane-surface $-1 0 0 0 0 0 -1 -1 0 0 0 I I I I #
coedge $-1 $366 $367 $249 $315 1 $368 $-1 #
edge $-1 $358 $317 $249 $369 0 #
coedge $-1 $252 $250 $367 $370 0 $253 $-1 #
vertex $-1 $251 $371 #
edge $-1 $372 $254 $252 $340 0 #
face $-1 $373 $253 $2 $-1 $333 forward single #
point $-1 28.284271247461902 -10 0 #
coedge $-1 $374 $334 $257 $322 1 $267 $-1 #
edge $-1 $326 $330 $257 $359 0 #
coedge $-1 $375 $258 $260 $328 0 $325 $-1 #
coedge $-1 $258 $375 $374 $376 1 $325 $-1 #
loop $-1 $-1 $324 $373 #
vertex $-1 $259 $377 #
straight-curve $-1 -40 0 50 0 1 0 I I #
edge $-1 $261 $339 $323 $378 0 #
point $-1 -40 -10 50 #
vertex $-1 $350 $379 #
point $-1 -15 25.98076211353316 50 #
point $-1 -15 40 50 #
plane-surface $-1 0 -10 25 0 1 0 0 0 1 0 I I I I #
coedge $-1 $321 $380 $294 $350 1 $267 $-1 #
coedge $-1 $351 $269 $343 $381 0 $204 $-1 #
edge $-1 $347 $345 $285 $382 0 #
coedge $-1 $361 $270 $383 $384 1 $272 $-1 #
coedge $-1 $271 $360 $375 $385 1 $272 $-1 #
vertex $-1 $385 $386 #
straight-curve $-1 0 -10 0 -1 0 0 I I #
straight-curve $-1 -50 0 -50 0 1 0 I I #
point $-1 -50 -50 -50 #
coedge $-1 $282 $281 $335 $381 1 $232 $-1 #
point $-1 -50 50 -50 #
vertex $-1 $336 $387 #
straight-curve $-1 50 50 0 0 0 -1 I I #
vertex $-1 $336 $388 #
straight-curve $-1 50 -50 0 0 0 -1 I I #
straight-curve $-1 -15 40 40 0 0 -1 I I #
edge $-1 $330 $362 $294 $389 0 #
coedge $-1 $299 $335 $297 $352 0 $204 $-1 #
edge $-1 $353 $301 $297 $390 0 #
vertex $-1 $381 $391 #
straight-curve $-1 -50 50 0 0 0 -1 I I #
straight-curve $-1 0 -50 50 1 0 0 I I #
point $-1 -50 -50 50 #
coedge $-1 $303 $308 $366 $392 1 $309 $-1 #
vertex $-1 $304 $393 #
straight-curve $-1 0 10 50 1 0 0 I I #
coedge $-1 $338 $306 $380 $394 1 $272 $-1 #
coedge $-1 $306 $337 $308 $363 1 $272 $-1 #
vertex $-1 $394 $395 #
edge $-1 $310 $396 $308 $397 0 #
face $-1 $398 $309 $2 $-1 $268 forward single #
point $-1 28.284271247461902 10 0 #
coedge $-1 $383 $314 $357 $392 0 $368 $-1 #
coedge $-1 $314 $383 $316 $370 1 $368 $-1 #
loop $-1 $-1 $367 $398 #
straight-curve $-1 40 0 50 0 -1 0 I I #
edge $-1 $317 $372 $367 $399 0 #
point $-1 40 -10 50 #
vertex $-1 $370 $400 #
face $-1 $364 $325 $2 $-1 $401 forward single #
coedge $-1 $380 $321 $324 $376 0 $267 $-1 #
coedge $-1 $324 $323 $338 $385 0 $325 $-1 #
edge $-1 $326 $402 $374 $403 0 #
point $-1 -40 10 50 #
straight-curve $-1 -40 -10 25 0 0 -1 I I #
point $-1 -28.284271247461902 10 50 #
coedge $-1 $334 $374 $360 $394 0 $267 $-1 #
edge $-1 $345 $353 $343 $404 0 #
straight-curve $-1 50 0 50 0 1 0 I I #
coedge $-1 $367 $366 $337 $384 0 $368 $-1 #
edge $-1 $396 $372 $383 $405 0 #
edge $-1 $339 $402 $375 $406 0 #
point $-1 -40 -10 0 #
point $-1 50 50 50 #
point $-1 50 -50 50 #
straight-curve $-1 -28.284271247461902 10 25 0 0 -1 I I #
straight-curve $-1 -50 0 50 0 -1 0 I I #
point $-1 -50 50 50 #
edge $-1 $358 $396 $366 $407 0 #
point $-1 40 10 50 #
edge $-1 $402 $362 $380 $397 0 #
point $-1 -28.284271247461902 10 0 #
vertex $-1 $384 $408 #
straight-curve $-1 0 10 0 1 0 0 I I #
face $-1 $187 $368 $2 $-1 $409 forward single #
straight-curve $-1 40 -10 25 0 0 -1 I I #
point $-1 40 -10 0 #
plane-surface $-1 -40 0 25 1 0 0 0 0 -1 0 I I I I #
vertex $-1 $394 $410 #
straight-curve $-1 -40 10 25 0 0 -1 I I #
straight-curve $-1 0 50 50 -1 0 0 I I #
straight-curve $-1 40 0 0 0 -1 0 I I #
straight-curve $-1 -40 0 0 0 1 0 I I #
straight-curve $-1 40 10 25 0 0 -1 I I #
point $-1 40 10 0 #
plane-surface $-1 40 0 25 -1 0 0 0 0 1 0 I I I I #
point $-1 -40 10 0 #
End-of-ACIS-data 