106 0 1 0           
body $1 $2 $-1 $-1 #
f_body-lwd-attrib $-1 $3 $-1 $0 #
lump $4 $-1 $5 $0 #
ref_vt-lwd-attrib $-1 $-1 $1 $0 $6 $-1 #
ref_vt-lwd-attrib $-1 $-1 $-1 $2 $6 $-1 #
shell $7 $-1 $-1 $8 $2 #
refinement $-1 0 8 0 0 0.9354134202003479 25 0 4 1 #
ref_vt-lwd-attrib $-1 $-1 $-1 $5 $6 $-1 #
face $9 $10 $11 $5 $-1 $12 reversed single #
ref_vt-lwd-attrib $-1 $-1 $-1 $8 $6 $-1 #
face $13 $14 $15 $5 $-1 $16 reversed single #
loop $-1 $-1 $17 $8 #
plane-surface $-1 19.050000000000001 7.620000000000001 9.5249999999999986 -1 0 0 0 0 1 0 I I I I #
ref_vt-lwd-attrib $-1 $-1 $-1 $10 $6 $-1 #
face $18 $19 $20 $5 $-1 $21 reversed single #
loop $-1 $-1 $22 $10 #
cone-surface $-1 24.129999999999995 7.6199999999999957 9.5249999999999986 0 0 -1 -5.0799999999999947 5.3290705182007514e-15 0 1 I I 0 1 0 I I I I #
coedge $-1 $23 $24 $25 $26 1 $11 $-1 #
ref_vt-lwd-attrib $-1 $-1 $-1 $14 $6 $-1 #
face $27 $28 $29 $5 $-1 $30 reversed single #
loop $-1 $-1 $31 $14 #
plane-surface $-1 26.670000000000002 12.699999999999999 9.5249999999999986 0 1 0 0 0 1 0 I I I I #
coedge $-1 $32 $33 $34 $35 1 $15 $-1 #
coedge $-1 $36 $17 $37 $38 0 $11 $-1 #
coedge $-1 $17 $36 $32 $39 1 $11 $-1 #
coedge $-1 $34 $40 $17 $26 0 $41 $-1 #
edge $-1 $42 $43 $25 $44 0 #
ref_vt-lwd-attrib $-1 $-1 $-1 $19 $6 $-1 #
face $45 $46 $47 $5 $-1 $48 reversed single #
loop $-1 $-1 $49 $19 #
cone-surface $-1 26.669999999999998 7.6200000000000019 9.5249999999999986 0 0 -1 3.5527136788005009e-15 5.0799999999999974 0 1 I I 0 1 0 I I I I #
coedge $-1 $50 $51 $52 $53 1 $20 $-1 #
coedge $-1 $54 $22 $24 $39 0 $15 $-1 #
coedge $-1 $22 $54 $50 $55 1 $15 $-1 #
coedge $-1 $52 $25 $22 $35 0 $41 $-1 #
edge $-1 $43 $56 $34 $57 0 #
coedge $-1 $24 $23 $58 $59 1 $11 $-1 #
coedge $-1 $60 $61 $23 $38 1 $62 $-1 #
edge $-1 $42 $63 $37 $64 0 #
edge $-1 $43 $65 $24 $66 0 #
coedge $-1 $25 $67 $60 $68 0 $41 $-1 #
loop $-1 $69 $70 $71 #
vertex $-1 $26 $72 #
vertex $-1 $35 $73 #
straight-curve $-1 19.049999999999997 16.509999999999991 3.1749999999999989 0 1 0 I I #
ref_vt-lwd-attrib $-1 $-1 $-1 $28 $6 $-1 #
face $74 $75 $62 $5 $-1 $76 reversed single #
loop $-1 $-1 $77 $28 #
plane-surface $-1 31.75 -7.6199999999999992 9.5249999999999986 1 0 0 0 0 -1 0 I I I I #
coedge $-1 $78 $79 $80 $81 1 $29 $-1 #
coedge $-1 $82 $31 $33 $55 0 $20 $-1 #
coedge $-1 $31 $82 $78 $83 1 $20 $-1 #
coedge $-1 $80 $34 $31 $53 0 $41 $-1 #
edge $-1 $56 $84 $52 $85 0 #
coedge $-1 $33 $32 $86 $87 1 $15 $-1 #
edge $-1 $56 $88 $33 $89 0 #
vertex $-1 $53 $90 #
ellipse-curve $-1 24.129999999999995 7.6199999999999957 3.1749999999999989 0 0 -1 -5.0799999999999947 5.3290705182007514e-15 0 1 I I #
coedge $-1 $91 $86 $36 $59 0 $92 $-1 #
edge $-1 $65 $63 $58 $93 0 #
coedge $-1 $94 $37 $40 $68 1 $62 $-1 #
coedge $-1 $37 $94 $91 $95 1 $62 $-1 #
loop $-1 $-1 $60 $46 #
vertex $-1 $59 $96 #
straight-curve $-1 19.050000000000001 -7.6199999999999992 9.5249999999999986 0 0 -1 I I #
vertex $-1 $87 $97 #
straight-curve $-1 19.050000000000001 7.620000000000001 9.5249999999999986 0 0 -1 I I #
coedge $-1 $40 $98 $99 $100 0 $41 $-1 #
edge $-1 $101 $42 $40 $102 0 #
loop $-1 $-1 $103 $71 #
coedge $-1 $98 $80 $77 $104 0 $41 $-1 #
face $105 $106 $41 $5 $-1 $107 forward single #
point $-1 19.050000000000001 -7.6199999999999992 3.1749999999999989 #
point $-1 19.050000000000001 7.620000000000001 3.1749999999999989 #
ref_vt-lwd-attrib $-1 $-1 $-1 $46 $6 $-1 #
face $108 $109 $110 $5 $-1 $111 reversed single #
cone-surface $-1 24.13000000000001 -7.6199999999999921 9.5249999999999986 0 0 -1 -5.080000000000009 -7.1054273576010019e-15 0 1 I I 0 1 0 I I I I #
coedge $-1 $112 $113 $70 $104 1 $47 $-1 #
coedge $-1 $114 $49 $51 $83 0 $29 $-1 #
coedge $-1 $49 $114 $112 $115 1 $29 $-1 #
coedge $-1 $70 $52 $49 $81 0 $41 $-1 #
edge $-1 $84 $116 $80 $117 0 #
coedge $-1 $51 $50 $118 $119 1 $20 $-1 #
edge $-1 $84 $120 $51 $121 0 #
vertex $-1 $81 $122 #
straight-curve $-1 32.384999999999998 12.700000000000001 3.1749999999999989 1 0 0 I I #
coedge $-1 $58 $118 $54 $87 0 $92 $-1 #
edge $-1 $88 $65 $86 $123 0 #
vertex $-1 $119 $124 #
straight-curve $-1 24.130000000000003 12.699999999999999 9.5249999999999986 0 0 -1 I I #
point $-1 24.130000000000003 12.699999999999999 3.1749999999999989 #
coedge $-1 $125 $58 $61 $95 0 $92 $-1 #
loop $-1 $126 $127 $128 #
straight-curve $-1 19.050000000000001 3.8100000000000005 -9.5249999999999986 0 -1 0 I I #
coedge $-1 $61 $60 $129 $130 0 $62 $-1 #
edge $-1 $63 $131 $91 $132 0 #
point $-1 19.050000000000001 -7.6199999999999992 -9.5249999999999986 #
point $-1 19.050000000000001 7.620000000000001 -9.5249999999999986 #
coedge $-1 $67 $70 $133 $134 0 $41 $-1 #
coedge $-1 $135 $129 $67 $100 1 $110 $-1 #
edge $-1 $136 $101 $67 $137 0 #
vertex $-1 $68 $138 #
ellipse-curve $-1 24.13000000000001 -7.6199999999999921 3.1749999999999989 0 0 -1 -5.080000000000009 -7.1054273576010019e-15 0 1 I I #
coedge $-1 $139 $140 $141 $142 1 $69 $-1 #
edge $-1 $116 $143 $70 $144 0 #
ref_vt-lwd-attrib $-1 $-1 $-1 $71 $6 $-1 #
face $145 $146 $147 $5 $-1 $148 forward single #
plane-surface $-1 38.099999999999994 25.399999999999977 3.1749999999999989 0 0 1 1 0 0 0 I I I I #
ref_vt-lwd-attrib $-1 $-1 $-1 $75 $6 $-1 #
face $149 $150 $151 $5 $-1 $152 reversed single #
loop $-1 $-1 $99 $75 #
plane-surface $-1 24.130000000000003 -12.700000000000001 9.5249999999999986 0 -1 0 0 0 -1 0 I I I I #
coedge $-1 $153 $77 $79 $115 0 $47 $-1 #
coedge $-1 $77 $153 $154 $155 1 $47 $-1 #
coedge $-1 $79 $78 $156 $157 1 $29 $-1 #
edge $-1 $116 $158 $79 $159 0 #
vertex $-1 $104 $160 #
ellipse-curve $-1 26.669999999999998 7.6200000000000019 3.1749999999999989 0 0 -1 3.5527136788005009e-15 5.0799999999999974 0 1 I I #
coedge $-1 $86 $156 $82 $119 0 $92 $-1 #
edge $-1 $120 $88 $118 $161 0 #
vertex $-1 $157 $162 #
straight-curve $-1 26.670000000000002 12.699999999999999 9.5249999999999986 0 0 -1 I I #
point $-1 26.670000000000002 12.699999999999999 3.1749999999999989 #
ellipse-curve $-1 24.129999999999995 7.6199999999999957 -9.5249999999999986 0 0 1 -5.0799999999999947 5.3290705182007514e-15 0 1 I I #
point $-1 24.130000000000003 12.699999999999999 -9.5249999999999986 #
coedge $-1 $163 $91 $164 $165 0 $92 $-1 #
loop $-1 $-1 $166 $128 #
coedge $-1 $156 $163 $153 $167 0 $92 $-1 #
face $168 $-1 $92 $5 $-1 $169 reversed single #
coedge $-1 $99 $164 $94 $130 1 $110 $-1 #
edge $-1 $101 $131 $129 $170 0 #
vertex $-1 $95 $171 #
ellipse-curve $-1 24.13000000000001 -7.6199999999999921 -9.5249999999999986 0 0 1 -5.080000000000009 -7.1054273576010019e-15 0 1 I I #
coedge $-1 $154 $172 $98 $134 1 $151 $-1 #
edge $-1 $143 $136 $98 $173 0 #
coedge $-1 $164 $99 $172 $174 0 $110 $-1 #
vertex $-1 $100 $175 #
straight-curve $-1 31.114999999999998 -12.700000000000003 3.1749999999999989 -1 0 0 I I #
point $-1 24.130000000000003 -12.700000000000001 3.1749999999999989 #
coedge $-1 $176 $103 $177 $178 1 $69 $-1 #
coedge $-1 $103 $176 $179 $180 1 $69 $-1 #
coedge $-1 $181 $182 $103 $142 0 $183 $-1 #
edge $-1 $184 $185 $141 $186 0 #
vertex $-1 $104 $187 #
straight-curve $-1 31.75 8.8899999999999899 3.1749999999999989 0 -1 0 I I #
ref_vt-lwd-attrib $-1 $-1 $-1 $106 $6 $-1 #
face $188 $189 $190 $5 $-1 $191 reversed single #
loop $-1 $-1 $192 $106 #
plane-surface $-1 38.099999999999994 -25.399999999999977 -9.5249999999999986 0 -1 0 0 0 -1 0 I I I I #
ref_vt-lwd-attrib $-1 $-1 $-1 $109 $6 $-1 #
face $193 $194 $195 $5 $-1 $196 reversed single #
loop $-1 $-1 $133 $109 #
cone-surface $-1 26.670000000000002 -7.620000000000001 9.5249999999999986 0 0 -1 5.0799999999999983 1.7763568394002505e-15 0 1 I I 0 1 0 I I I I #
coedge $-1 $113 $112 $127 $167 1 $47 $-1 #
coedge $-1 $197 $133 $113 $155 0 $151 $-1 #
edge $-1 $143 $198 $113 $199 0 #
coedge $-1 $118 $127 $114 $157 0 $92 $-1 #
edge $-1 $158 $120 $156 $200 0 #
vertex $-1 $167 $201 #
straight-curve $-1 31.75 7.6199999999999992 9.5249999999999986 0 0 -1 I I #
point $-1 31.75 7.6199999999999992 3.1749999999999989 #
straight-curve $-1 13.335000000000001 12.699999999999999 -9.5249999999999986 -1 0 0 I I #
point $-1 26.670000000000002 12.699999999999999 -9.5249999999999986 #
coedge $-1 $127 $125 $197 $202 0 $92 $-1 #
coedge $-1 $129 $135 $125 $165 1 $110 $-1 #
edge $-1 $131 $203 $125 $204 0 #
coedge $-1 $205 $206 $207 $208 1 $126 $-1 #
edge $-1 $198 $158 $127 $209 0 #
ref_vt-lwd-attrib $-1 $-1 $-1 $128 $6 $-1 #
plane-surface $-1 0 0 -9.5249999999999986 0 0 1 1 0 0 0 I I I I #
straight-curve $-1 24.130000000000003 -12.700000000000001 9.5249999999999986 0 0 -1 I I #
point $-1 24.130000000000003 -12.700000000000001 -9.5249999999999986 #
coedge $-1 $133 $197 $135 $174 1 $151 $-1 #
ellipse-curve $-1 26.670000000000002 -7.620000000000001 3.1749999999999989 0 0 -1 5.0799999999999983 1.7763568394002505e-15 0 1 I I #
edge $-1 $136 $203 $172 $210 0 #
point $-1 26.670000000000002 -12.699999999999999 3.1749999999999989 #
coedge $-1 $140 $139 $192 $211 1 $69 $-1 #
coedge $-1 $212 $213 $139 $178 0 $190 $-1 #
edge $-1 $214 $184 $177 $215 0 #
coedge $-1 $216 $217 $140 $180 0 $218 $-1 #
edge $-1 $185 $219 $179 $220 0 #
coedge $-1 $221 $141 $217 $222 1 $183 $-1 #
coedge $-1 $141 $223 $212 $224 0 $183 $-1 #
loop $-1 $-1 $141 $225 #
vertex $-1 $224 $226 #
vertex $-1 $222 $227 #
straight-curve $-1 -1.4210854715202004e-14 25.399999999999999 3.1749999999999989 1 0 0 I I #
point $-1 31.75 -7.6199999999999992 3.1749999999999989 #
ref_vt-lwd-attrib $-1 $-1 $-1 $146 $6 $-1 #
face $228 $229 $230 $5 $-1 $231 reversed single #
loop $-1 $-1 $177 $146 #
plane-surface $-1 12.699999999999999 -25.399999999999977 9.5249999999999986 1 0 0 0 0 -1 0 I I I I #
coedge $-1 $232 $233 $176 $211 0 $147 $-1 #
ref_vt-lwd-attrib $-1 $-1 $-1 $150 $6 $-1 #
face $234 $235 $236 $5 $-1 $237 reversed single #
loop $-1 $-1 $238 $150 #
cone-surface $-1 -12.699999999999999 0 5.0799999999999983 0 0 -1 12.699999999999999 0 0 1 I I 0 1 0 I I I I #
coedge $-1 $172 $154 $163 $202 1 $151 $-1 #
vertex $-1 $167 $239 #
straight-curve $-1 31.75 -7.6199999999999992 9.5249999999999986 0 0 -1 I I #
ellipse-curve $-1 26.669999999999998 7.6200000000000019 -9.5249999999999986 0 0 1 3.5527136788005009e-15 5.0799999999999974 0 1 I I #
point $-1 31.75 7.6199999999999992 -9.5249999999999986 #
edge $-1 $203 $198 $163 $240 0 #
vertex $-1 $165 $241 #
straight-curve $-1 12.065000000000001 -12.700000000000001 -9.5249999999999986 1 0 0 I I #
coedge $-1 $242 $166 $243 $244 1 $126 $-1 #
coedge $-1 $166 $242 $221 $245 1 $126 $-1 #
coedge $-1 $217 $216 $166 $208 0 $218 $-1 #
edge $-1 $246 $247 $207 $248 0 #
straight-curve $-1 31.75 -3.8099999999999996 -9.5249999999999986 0 1 0 I I #
straight-curve $-1 26.670000000000002 -12.699999999999999 9.5249999999999986 0 0 -1 I I #
edge $-1 $219 $214 $192 $249 0 #
coedge $-1 $250 $177 $182 $224 1 $190 $-1 #
coedge $-1 $177 $250 $232 $251 1 $190 $-1 #
vertex $-1 $178 $252 #
straight-curve $-1 12.699999999999999 0 3.1749999999999972 0 1 0 I I #
coedge $-1 $207 $179 $233 $253 1 $218 $-1 #
coedge $-1 $179 $207 $181 $222 0 $218 $-1 #
loop $-1 $-1 $179 $254 #
vertex $-1 $253 $255 #
straight-curve $-1 38.099999999999994 25.399999999999977 3.1749999999999989 0 -1 0 I I #
coedge $-1 $256 $181 $206 $245 0 $183 $-1 #
edge $-1 $247 $185 $217 $257 0 #
coedge $-1 $182 $258 $259 $260 0 $183 $-1 #
edge $-1 $261 $184 $182 $262 0 #
face $263 $254 $183 $5 $-1 $264 forward single #
point $-1 12.700000000000045 25.399999999999999 3.1749999999999989 #
point $-1 38.099999999999994 25.399999999999977 3.1749999999999989 #
ref_vt-lwd-attrib $-1 $-1 $-1 $189 $6 $-1 #
face $265 $266 $267 $5 $-1 $268 forward single #
loop $-1 $-1 $269 $189 #
plane-surface $-1 -12.699999999999989 25.399999999999999 9.5249999999999986 -1 0 0 0 0 1 0 I I I I #
coedge $-1 $270 $192 $213 $251 0 $147 $-1 #
coedge $-1 $192 $243 $216 $253 0 $147 $-1 #
ref_vt-lwd-attrib $-1 $-1 $-1 $194 $6 $-1 #
face $271 $71 $272 $5 $-1 $273 forward single #
loop $-1 $-1 $274 $194 #
plane-surface $-1 -12.699999999999999 0 0.63499999999999801 0 0 -1 1 0 0 0 I I I I #
coedge $-1 $275 $276 $269 $277 1 $195 $-1 #
point $-1 31.75 -7.6199999999999992 -9.5249999999999986 #
ellipse-curve $-1 26.670000000000002 -7.620000000000001 -9.5249999999999986 0 0 1 5.0799999999999983 1.7763568394002505e-15 0 1 I I #
point $-1 26.670000000000002 -12.699999999999999 -9.5249999999999986 #
coedge $-1 $206 $205 $278 $279 1 $126 $-1 #
coedge $-1 $233 $280 $205 $244 0 $147 $-1 #
edge $-1 $281 $246 $243 $282 0 #
edge $-1 $247 $283 $221 $284 0 #
vertex $-1 $208 $285 #
vertex $-1 $208 $286 #
straight-curve $-1 38.099999999999994 -25.399999999999977 -9.5249999999999986 0 1 0 I I #
straight-curve $-1 38.099999999999994 -25.399999999999977 3.1749999999999989 -1 0 0 I I #
coedge $-1 $213 $212 $287 $288 1 $190 $-1 #
edge $-1 $214 $289 $232 $290 0 #
point $-1 12.699999999999999 -25.399999999999977 3.1749999999999989 #
edge $-1 $246 $219 $233 $291 0 #
face $292 $128 $218 $5 $-1 $293 forward single #
point $-1 38.099999999999994 -25.399999999999977 3.1749999999999989 #
coedge $-1 $294 $221 $295 $296 0 $183 $-1 #
straight-curve $-1 38.099999999999994 25.399999999999977 -9.5249999999999986 0 0 1 I I #
coedge $-1 $223 $294 $297 $298 0 $183 $-1 #
coedge $-1 $299 $287 $223 $260 1 $267 $-1 #
edge $-1 $300 $261 $223 $301 0 #
vertex $-1 $224 $302 #
straight-curve $-1 12.700000000000001 25.399999999999999 0 0 0 1 I I #
ref_vt-lwd-attrib $-1 $-1 $-1 $225 $6 $-1 #
plane-surface $-1 -38.100000000000023 25.399999999999999 -9.5249999999999986 0 1 0 0 0 1 0 I I I I #
ref_vt-lwd-attrib $-1 $-1 $-1 $229 $6 $-1 #
face $303 $225 $304 $5 $-1 $305 forward single #
loop $-1 $-1 $259 $229 #
plane-surface $-1 12.699999999999999 25.399999999999977 -3.1750000000000007 0 0 1 1 0 0 0 I I I I #
coedge $-1 $306 $307 $238 $277 0 $230 $-1 #
coedge $-1 $308 $232 $309 $310 0 $147 $-1 #
ref_vt-lwd-attrib $-1 $-1 $-1 $235 $6 $-1 #
loop $-1 $-1 $311 $235 #
plane-surface $-1 38.099999999999994 -25.399999999999977 9.5249999999999986 0 0 1 1 0 0 0 I I I I #
coedge $-1 $312 $312 $307 $313 1 $236 $-1 #
coedge $-1 $314 $238 $312 $315 0 $195 $-1 #
coedge $-1 $238 $314 $311 $316 1 $195 $-1 #
edge $-1 $317 $318 $269 $319 0 #
coedge $-1 $320 $295 $242 $279 0 $304 $-1 #
edge $-1 $283 $281 $278 $321 0 #
coedge $-1 $243 $322 $320 $323 1 $147 $-1 #
vertex $-1 $279 $324 #
straight-curve $-1 -38.100000000000023 -25.399999999999999 -9.5249999999999986 1 0 0 I I #
vertex $-1 $245 $325 #
straight-curve $-1 38.100000000000023 25.399999999999999 -9.5249999999999986 -1 0 0 I I #
point $-1 38.099999999999994 -25.399999999999977 -9.5249999999999986 #
point $-1 38.099999999999994 25.399999999999977 -9.5249999999999986 #
coedge $-1 $259 $309 $250 $288 0 $267 $-1 #
edge $-1 $289 $261 $250 $326 0 #
vertex $-1 $251 $327 #
straight-curve $-1 12.700000000000001 -25.399999999999977 0 0 0 -1 I I #
straight-curve $-1 38.099999999999994 -25.399999999999977 -9.5249999999999986 0 0 1 I I #
ref_vt-lwd-attrib $-1 $-1 $-1 $254 $6 $-1 #
plane-surface $-1 38.099999999999994 25.399999999999977 -9.5249999999999986 1 0 0 0 0 -1 0 I I I I #
coedge $-1 $258 $256 $328 $329 0 $183 $-1 #
coedge $-1 $278 $330 $256 $296 1 $304 $-1 #
edge $-1 $283 $331 $256 $332 0 #
coedge $-1 $333 $334 $258 $298 1 $230 $-1 #
edge $-1 $335 $300 $258 $336 0 #
coedge $-1 $309 $259 $334 $337 0 $267 $-1 #
vertex $-1 $298 $338 #
straight-curve $-1 -12.700000000000012 25.399999999999999 -3.1750000000000007 1 0 0 I I #
point $-1 12.699999999999999 25.399999999999977 -3.1750000000000007 #
ref_vt-lwd-attrib $-1 $-1 $-1 $266 $6 $-1 #
loop $-1 $-1 $330 $266 #
plane-surface $-1 -38.099999999999994 -25.399999999999977 -9.5249999999999986 -1 0 0 0 0 1 0 I I I I #
coedge $-1 $339 $269 $340 $341 1 $230 $-1 #
coedge $-1 $269 $342 $274 $313 0 $230 $-1 #
coedge $-1 $322 $270 $339 $343 0 $147 $-1 #
coedge $-1 $287 $299 $270 $310 1 $267 $-1 #
edge $-1 $289 $344 $270 $345 0 #
coedge $-1 $346 $340 $276 $316 0 $272 $-1 #
coedge $-1 $274 $274 $275 $315 1 $236 $-1 #
edge $-1 $347 $317 $307 $348 0 #
coedge $-1 $276 $275 $342 $349 1 $195 $-1 #
edge $-1 $317 $347 $312 $350 0 #
edge $-1 $318 $351 $311 $352 0 #
vertex $-1 $277 $353 #
vertex $-1 $341 $354 #
straight-curve $-1 -12.699999999999989 -12.699999999999999 5.0799999999999983 0 0 1 I I #
coedge $-1 $330 $278 $280 $323 0 $304 $-1 #
straight-curve $-1 -38.099999999999994 25.399999999999977 -9.5249999999999986 0 -1 0 I I #
coedge $-1 $280 $308 $355 $356 0 $147 $-1 #
edge $-1 $281 $357 $320 $358 0 #
point $-1 -38.099999999999994 -25.399999999999977 -9.5249999999999986 #
point $-1 -38.100000000000023 25.399999999999999 -9.5249999999999986 #
straight-curve $-1 12.699999999999999 -25.399999999999977 -3.1750000000000007 0 1 0 I I #
point $-1 12.699999999999999 -25.399999999999977 -3.1750000000000007 #
coedge $-1 $359 $346 $294 $329 1 $272 $-1 #
edge $-1 $331 $335 $294 $360 0 #
coedge $-1 $295 $320 $359 $361 0 $304 $-1 #
vertex $-1 $296 $362 #
straight-curve $-1 -38.100000000000023 25.399999999999999 -9.5249999999999986 0 0 1 I I #
coedge $-1 $342 $297 $346 $363 1 $230 $-1 #
coedge $-1 $297 $339 $299 $337 1 $230 $-1 #
vertex $-1 $329 $364 #
straight-curve $-1 -12.699999999999989 25.399999999999999 0 0 0 -1 I I #
edge $-1 $300 $344 $334 $365 0 #
point $-1 -12.699999999999989 25.399999999999999 -3.1750000000000007 #
coedge $-1 $334 $306 $308 $343 1 $230 $-1 #
coedge $-1 $311 $355 $306 $341 0 $272 $-1 #
edge $-1 $366 $318 $340 $367 0 #
coedge $-1 $307 $333 $314 $349 0 $230 $-1 #
edge $-1 $344 $366 $308 $368 0 #
vertex $-1 $343 $369 #
straight-curve $-1 25.399999999999999 -25.399999999999977 -3.1750000000000007 -1 0 0 I I #
coedge $-1 $328 $311 $333 $363 0 $272 $-1 #
vertex $-1 $349 $370 #
straight-curve $-1 -12.699999999999989 12.699999999999999 0.63499999999999801 0 -1 0 I I #
edge $-1 $351 $347 $342 $371 0 #
ellipse-curve $-1 -12.699999999999999 0 0.63499999999999801 0 0 -1 12.699999999999999 0 0 1 I I #
vertex $-1 $349 $372 #
ellipse-curve $-1 -12.699999999999999 0 9.5249999999999986 0 0 -1 12.699999999999999 0 0 1 I I #
point $-1 -12.699999999999989 -12.699999999999999 0.63499999999999801 #
point $-1 -12.699999999999989 -12.699999999999999 9.5249999999999986 #
coedge $-1 $340 $359 $322 $356 1 $272 $-1 #
edge $-1 $366 $357 $322 $373 0 #
vertex $-1 $323 $374 #
straight-curve $-1 -38.099999999999994 -25.399999999999977 -9.5249999999999986 0 0 1 I I #
coedge $-1 $355 $328 $330 $361 1 $272 $-1 #
straight-curve $-1 38.100000000000023 25.399999999999999 9.5249999999999986 1 0 0 I I #
edge $-1 $357 $331 $330 $375 0 #
point $-1 -38.100000000000023 25.399999999999999 9.5249999999999986 #
edge $-1 $351 $335 $346 $367 0 #
point $-1 -12.699999999999989 25.399999999999999 9.5249999999999986 #
straight-curve $-1 -12.699999999999999 25.399999999999977 -3.1750000000000007 0 -1 0 I I #
vertex $-1 $343 $376 #
straight-curve $-1 -12.699999999999989 1.0658141036401503e-14 9.5249999999999986 0 1 0 I I #
straight-curve $-1 -12.699999999999989 -25.399999999999977 0 0 0 1 I I #
point $-1 -12.699999999999999 -25.399999999999977 -3.1750000000000007 #
point $-1 -12.699999999999989 12.699999999999999 0.63499999999999801 #
straight-curve $-1 -12.699999999999989 12.699999999999999 5.0799999999999983 0 0 -1 I I #
point $-1 -12.699999999999989 12.699999999999999 9.5249999999999986 #
straight-curve $-1 -38.100000000000023 -25.399999999999999 9.5249999999999986 -1 0 0 I I #
point $-1 -38.099999999999994 -25.399999999999977 9.5249999999999986 #
straight-curve $-1 -38.099999999999994 25.399999999999977 9.5249999999999986 0 1 0 I I #
point $-1 -12.699999999999999 -25.399999999999977 9.5249999999999986 #
End-of-ACIS-data 
