700 0 2 0           
24 FBMach with ACIS - 7.0.3 13 ACIS 7.0.3 NT 24 Tue May 14 09:57:07 2002 
1 9.9999999999999995e-007 1e-010 
body $2 -1 $-1 $3 $-1 $4 #
bdycol-kcp $-1 -1 1 6 $5 $6 $7 $8 $9 $10 #
model_id-kcp-attrib $-1 -1 $-1 $-1 $0 1 1021384626 1021384626 172359681 1 #
lump $-1 -1 $-1 $-1 $11 $0 #
transform $-1 -1 1 0 0 0 1 0 0 0 1 0 0 0 1 rotate no_reflect no_shear #
body $12 -1 $-1 $13 $-1 $14 #
body $15 -1 $-1 $16 $-1 $17 #
body $18 -1 $-1 $19 $-1 $20 #
body $21 -1 $-1 $22 $-1 $23 #
body $24 -1 $-1 $25 $-1 $26 #
body $27 -1 $-1 $28 $-1 $29 #
shell $-1 -1 $-1 $-1 $-1 $30 $-1 $3 #
rgb_color-st-attrib $-1 -1 $31 $-1 $5 0 0 1 #
lump $-1 -1 $-1 $-1 $32 $5 #
transform $-1 -1 1 0 0 0 1 0 0 0 1 0 0 0 1 no_rotate no_reflect no_shear #
model_id-kcp-attrib $-1 -1 $-1 $-1 $6 1 1021384626 1021384626 172359682 1 #
lump $-1 -1 $-1 $-1 $33 $6 #
transform $-1 -1 1 0 0 0 1 0 0 0 1 0 0 0 1 no_rotate no_reflect no_shear #
rgb_color-st-attrib $-1 -1 $34 $-1 $7 0.5 1 1 #
lump $-1 -1 $-1 $-1 $35 $7 #
transform $-1 -1 1 0 0 0 1 0 0 0 1 0 -35 -10 1 no_rotate no_reflect no_shear #
rgb_color-st-attrib $-1 -1 $36 $-1 $8 0.5 1 1 #
lump $-1 -1 $-1 $-1 $37 $8 #
transform $-1 -1 1 0 0 0 1 0 0 0 1 0 35 -10 1 no_rotate no_reflect no_shear #
rgb_color-st-attrib $-1 -1 $38 $-1 $9 1 0 0 #
lump $-1 -1 $-1 $-1 $39 $9 #
transform $-1 -1 1 0 0 0 1 0 0 0 1 0 0 0 1 no_rotate no_reflect no_shear #
rgb_color-st-attrib $-1 -1 $40 $-1 $10 1 0 0 #
lump $-1 -1 $-1 $-1 $41 $10 #
transform $-1 -1 1 0 0 0 1 0 0 0 1 0 0 0 1 no_rotate no_reflect no_shear #
face $42 -1 $-1 $43 $44 $11 $-1 $45 reversed single #
model_id-kcp-attrib $-1 -1 $-1 $12 $5 1 1021384626 1021384626 168361989 1 #
shell $-1 -1 $-1 $-1 $-1 $46 $-1 $13 #
shell $-1 -1 $-1 $-1 $-1 $47 $-1 $16 #
model_id-kcp-attrib $-1 -1 $-1 $18 $7 1 1021384626 1021384626 175702019 1 #
shell $-1 -1 $-1 $-1 $-1 $48 $-1 $19 #
model_id-kcp-attrib $-1 -1 $-1 $21 $8 1 1021384626 1021384626 175702020 1 #
shell $-1 -1 $-1 $-1 $-1 $49 $-1 $22 #
model_id-kcp-attrib $-1 -1 $-1 $24 $9 1 1021384626 1021384627 168558599 1 #
shell $-1 -1 $-1 $-1 $-1 $50 $-1 $25 #
model_id-kcp-attrib $-1 -1 $-1 $27 $10 1 1021384626 1021384627 171573254 1 #
shell $-1 -1 $-1 $-1 $-1 $51 $-1 $28 #
model_id-kcp-attrib $-1 -1 $-1 $-1 $30 1 1021384626 1021384626 172359681 2 #
face $52 -1 $-1 $53 $54 $11 $-1 $55 reversed single #
loop $56 -1 $-1 $57 $58 $30 #
cone-surface $-1 -1 $-1 0 -35 0 0 0 1 2 0 0 1 I I 0 1 2 forward I I I I #
face $-1 -1 $-1 $59 $60 $32 $-1 $61 forward single #
face $62 -1 $-1 $63 $64 $33 $-1 $65 forward single #
face $-1 -1 $-1 $66 $67 $35 $-1 $68 forward single #
face $-1 -1 $-1 $69 $70 $37 $-1 $71 forward single #
face $-1 -1 $-1 $72 $73 $39 $-1 $74 forward single #
face $-1 -1 $-1 $75 $76 $41 $-1 $77 forward single #
model_id-kcp-attrib $-1 -1 $-1 $-1 $43 1 1021384626 1021384626 172359681 3 #
face $78 -1 $-1 $79 $80 $11 $-1 $81 forward single #
loop $82 -1 $-1 $83 $84 $43 #
cone-surface $-1 -1 $-1 0 35 0 0 0 1 2 0 0 1 I I 0 1 2 forward I I I I #
model_id-kcp-attrib $-1 -1 $-1 $-1 $44 1 1021384626 1021384626 172359681 28 #
loop $85 -1 $-1 $-1 $86 $30 #
coedge $-1 -1 $-1 $58 $58 $87 $88 reversed $44 $-1 #
face $-1 -1 $-1 $89 $90 $32 $-1 $91 forward single #
loop $-1 -1 $-1 $-1 $92 $46 #
cone-surface $-1 -1 $-1 0 0 0 0 0 1 30 0 0 1 I I 0 1 30 forward I I I I #
model_id-kcp-attrib $-1 -1 $-1 $-1 $47 1 1021384626 1021384626 172359682 2 #
face $93 -1 $-1 $94 $95 $33 $-1 $96 reversed single #
loop $-1 -1 $-1 $-1 $97 $47 #
plane-surface $-1 -1 $-1 0 0 50 0 0 1 1 0 0 forward_v I I I I #
face $-1 -1 $-1 $98 $99 $35 $-1 $100 forward single #
loop $-1 -1 $-1 $101 $102 $48 #
cone-surface $-1 -1 $-1 0 0 0 0 0 1 2 0 0 1 I I 0 1 2 forward I I I I #
face $-1 -1 $-1 $103 $104 $37 $-1 $105 forward single #
loop $-1 -1 $-1 $106 $107 $49 #
cone-surface $-1 -1 $-1 0 0 0 0 0 1 2 0 0 1 I I 0 1 2 forward I I I I #
face $-1 -1 $-1 $108 $109 $39 $-1 $110 forward single #
loop $-1 -1 $-1 $-1 $111 $50 #
plane-surface $-1 -1 $-1 15 -25.98076211353316 30 1 0 0 0 0 -1 forward_v I I I I #
face $-1 -1 $-1 $112 $113 $41 $-1 $114 forward single #
loop $-1 -1 $-1 $-1 $115 $51 #
plane-surface $-1 -1 $-1 -15 25.98076211353316 30 -1 0 0 0 0 1 forward_v I I I I #
model_id-kcp-attrib $-1 -1 $-1 $-1 $53 1 1021384626 1021384626 172359681 4 #
face $116 -1 $-1 $117 $118 $11 $-1 $119 forward single #
loop $120 -1 $-1 $121 $87 $53 #
plane-surface $-1 -1 $-1 0 0 30 0 0 1 1 0 0 forward_v I I I I #
model_id-kcp-attrib $-1 -1 $-1 $-1 $54 1 1021384626 1021384626 172359681 35 #
loop $122 -1 $-1 $-1 $123 $43 #
coedge $-1 -1 $-1 $84 $84 $124 $125 reversed $54 $-1 #
model_id-kcp-attrib $-1 -1 $-1 $-1 $57 1 1021384626 1021384626 172359681 29 #
coedge $-1 -1 $-1 $86 $86 $126 $127 reversed $57 $-1 #
coedge $-1 -1 $-1 $87 $87 $58 $88 forward $80 $-1 #
edge $128 -1 $-1 $129 -3.1415926535898002 $129 3.141592653589786 $87 $130 forward @7 unknown #
face $-1 -1 $-1 $131 $132 $32 $-1 $133 forward single #
loop $-1 -1 $-1 $-1 $134 $59 #
plane-surface $-1 -1 $-1 40 10 0 1 0 0 0 0 -1 forward_v I I I I #
coedge $-1 -1 $-1 $135 $136 $137 $138 forward $60 $-1 #
model_id-kcp-attrib $-1 -1 $-1 $-1 $63 1 1021384626 1021384626 172359682 3 #
face $139 -1 $-1 $140 $141 $33 $-1 $142 reversed single #
loop $-1 -1 $-1 $-1 $143 $63 #
plane-surface $-1 -1 $-1 0 0 -50 0 0 1 1 0 0 forward_v I I I I #
coedge $-1 -1 $-1 $144 $145 $146 $147 forward $64 $-1 #
face $-1 -1 $-1 $-1 $148 $35 $-1 $149 forward single #
loop $-1 -1 $-1 $-1 $150 $66 #
plane-surface $-1 -1 $-1 0 0 -40 0 0 -1 -1 0 0 forward_v I I I I #
loop $-1 -1 $-1 $-1 $151 $48 #
coedge $-1 -1 $-1 $102 $102 $150 $152 reversed $67 $-1 #
face $-1 -1 $-1 $-1 $153 $37 $-1 $154 forward single #
loop $-1 -1 $-1 $-1 $155 $69 #
plane-surface $-1 -1 $-1 0 0 -40 0 0 -1 -1 0 0 forward_v I I I I #
loop $-1 -1 $-1 $-1 $156 $49 #
coedge $-1 -1 $-1 $107 $107 $155 $157 reversed $70 $-1 #
face $-1 -1 $-1 $158 $159 $39 $-1 $160 forward single #
loop $-1 -1 $-1 $-1 $161 $72 #
plane-surface $-1 -1 $-1 15 -40 30 0 -1 0 0 0 -1 forward_v I I I I #
coedge $-1 -1 $-1 $162 $163 $164 $165 forward $73 $-1 #
face $-1 -1 $-1 $166 $167 $41 $-1 $168 forward single #
loop $-1 -1 $-1 $-1 $169 $75 #
plane-surface $-1 -1 $-1 -15 40 30 0 1 0 0 0 1 forward_v I I I I #
coedge $-1 -1 $-1 $170 $171 $172 $173 forward $76 $-1 #
model_id-kcp-attrib $-1 -1 $-1 $-1 $79 1 1021384626 1021384626 172359681 5 #
face $174 -1 $-1 $175 $176 $11 $-1 $177 forward single #
loop $-1 -1 $-1 $-1 $178 $79 #
plane-surface $-1 -1 $-1 -15 0 40 1 0 0 0 0 -1 forward_v I I I I #
model_id-kcp-attrib $-1 -1 $-1 $-1 $80 1 1021384626 1021384626 172359681 30 #
loop $-1 -1 $-1 $-1 $179 $53 #
model_id-kcp-attrib $-1 -1 $-1 $-1 $83 1 1021384626 1021384626 172359681 36 #
coedge $-1 -1 $-1 $123 $123 $180 $181 reversed $83 $-1 #
coedge $-1 -1 $-1 $124 $124 $84 $125 forward $182 $-1 #
edge $183 -1 $-1 $184 -3.1415926535898002 $184 3.141592653589786 $124 $185 forward @7 unknown #
coedge $-1 -1 $-1 $126 $126 $86 $127 forward $186 $-1 #
edge $187 -1 $-1 $188 0 $188 6.2831853071795862 $126 $189 forward @7 unknown #
attrib_edge_convexity-kcp-attrib $-1 -1 $190 $-1 $88 1 #
vertex $191 -1 $-1 $88 $192 #
ellipse-curve $-1 -1 $-1 0 -35 30 0 0 -1 2 0 0 1 I I #
face $-1 -1 $-1 $193 $194 $32 $-1 $195 forward single #
loop $-1 -1 $-1 $-1 $196 $89 #
plane-surface $-1 -1 $-1 40 -10 0 0 -1 0 0 0 -1 forward_v I I I I #
coedge $-1 -1 $-1 $197 $198 $199 $200 forward $90 $-1 #
coedge $-1 -1 $-1 $201 $92 $202 $203 reversed $60 $-1 #
coedge $-1 -1 $-1 $92 $201 $204 $205 forward $60 $-1 #
coedge $-1 -1 $-1 $206 $207 $92 $138 reversed $208 $-1 #
edge $-1 -1 $-1 $209 -2.8017557441356713 $210 -0.33983690945412193 $92 $211 forward @7 unknown #
model_id-kcp-attrib $-1 -1 $-1 $-1 $94 1 1021384626 1021384626 172359682 4 #
face $212 -1 $-1 $213 $214 $33 $-1 $215 reversed single #
loop $-1 -1 $-1 $-1 $216 $94 #
plane-surface $-1 -1 $-1 0 -50 0 0 1 0 0 0 1 forward_v I I I I #
coedge $-1 -1 $-1 $217 $218 $219 $220 forward $95 $-1 #
coedge $-1 -1 $-1 $221 $97 $222 $223 forward $64 $-1 #
coedge $-1 -1 $-1 $97 $221 $224 $225 forward $64 $-1 #
coedge $-1 -1 $-1 $226 $227 $97 $147 reversed $228 $-1 #
edge $-1 -1 $-1 $229 -50 $230 50 $146 $231 forward @7 unknown #
loop $-1 -1 $-1 $-1 $232 $98 #
plane-surface $-1 -1 $-1 0 0 40 0 0 1 1 0 0 forward_v I I I I #
coedge $-1 -1 $-1 $150 $150 $102 $152 forward $99 $-1 #
coedge $-1 -1 $-1 $151 $151 $232 $233 reversed $101 $-1 #
edge $-1 -1 $-1 $234 0 $234 6.2831853071795862 $150 $235 forward @7 unknown #
loop $-1 -1 $-1 $-1 $236 $103 #
plane-surface $-1 -1 $-1 0 0 40 0 0 1 1 0 0 forward_v I I I I #
coedge $-1 -1 $-1 $155 $155 $107 $157 forward $104 $-1 #
coedge $-1 -1 $-1 $156 $156 $236 $237 reversed $106 $-1 #
edge $-1 -1 $-1 $238 0 $238 6.2831853071795862 $155 $239 forward @7 unknown #
face $-1 -1 $-1 $240 $241 $39 $-1 $242 forward single #
loop $-1 -1 $-1 $-1 $243 $108 #
plane-surface $-1 -1 $-1 -15 -40 30 -1 0 0 0 0 1 forward_v I I I I #
coedge $-1 -1 $-1 $244 $245 $246 $247 forward $109 $-1 #
coedge $-1 -1 $-1 $248 $111 $245 $249 reversed $73 $-1 #
coedge $-1 -1 $-1 $111 $248 $250 $251 forward $73 $-1 #
coedge $-1 -1 $-1 $252 $246 $111 $165 reversed $253 $-1 #
edge $-1 -1 $-1 $254 9.4855715851498701 $255 23.50480947161671 $111 $256 forward @7 unknown #
face $-1 -1 $-1 $257 $258 $41 $-1 $259 forward single #
loop $-1 -1 $-1 $-1 $260 $112 #
plane-surface $-1 -1 $-1 15 40 30 1 0 0 0 0 -1 forward_v I I I I #
coedge $-1 -1 $-1 $261 $262 $263 $264 forward $113 $-1 #
coedge $-1 -1 $-1 $265 $115 $262 $266 reversed $76 $-1 #
coedge $-1 -1 $-1 $115 $265 $267 $268 forward $76 $-1 #
coedge $-1 -1 $-1 $269 $263 $115 $173 reversed $270 $-1 #
edge $-1 -1 $-1 $271 9.4855715851498701 $272 23.50480947161671 $115 $273 forward @7 unknown #
model_id-kcp-attrib $-1 -1 $-1 $-1 $117 1 1021384626 1021384626 172359681 6 #
face $274 -1 $-1 $275 $276 $11 $-1 $177 forward single #
loop $-1 -1 $-1 $-1 $277 $117 #
plane-surface $-1 -1 $-1 15 0 40 -1 0 0 0 0 1 forward_v I I I I #
coedge $-1 -1 $-1 $278 $279 $280 $281 reversed $118 $-1 #
coedge $-1 -1 $-1 $282 $283 $284 $285 reversed $121 $-1 #
coedge $-1 -1 $-1 $180 $180 $123 $181 forward $286 $-1 #
edge $287 -1 $-1 $288 0 $288 6.2831853071795862 $180 $289 forward @7 unknown #
loop $290 -1 $-1 $291 $124 $275 #
attrib_edge_convexity-kcp-attrib $-1 -1 $292 $-1 $125 1 #
vertex $293 -1 $-1 $125 $294 #
ellipse-curve $-1 -1 $-1 0 35 30 0 0 -1 2 0 0 1 I I #
loop $295 -1 $-1 $286 $126 $296 #
attrib_edge_convexity-kcp-attrib $-1 -1 $297 $-1 $127 1 #
vertex $298 -1 $-1 $127 $299 #
ellipse-curve $-1 -1 $-1 0 -35 -50 0 0 1 2 0 0 1 I I #
convexity-sys-attrib $-1 -1 $-1 $128 $88 #
model_id-kcp-attrib $-1 -1 $-1 $-1 $129 1 1021384626 1021384626 172359681 32 #
point $-1 -1 $-1 -2 -35.000000000000014 30 #
face $-1 -1 $-1 $300 $301 $32 $-1 $302 forward single #
loop $-1 -1 $-1 $-1 $303 $131 #
cone-surface $-1 -1 $-1 0 0 0 0 0 1 30 0 0 1 I I 0 1 30 forward I I I I #
coedge $-1 -1 $-1 $304 $305 $306 $307 forward $132 $-1 #
coedge $-1 -1 $-1 $308 $134 $305 $309 reversed $90 $-1 #
coedge $-1 -1 $-1 $134 $308 $310 $311 forward $90 $-1 #
coedge $-1 -1 $-1 $207 $306 $134 $200 reversed $208 $-1 #
edge $-1 -1 $-1 $312 -10 $313 10 $134 $314 forward @7 unknown #
coedge $-1 -1 $-1 $136 $135 $315 $316 reversed $60 $-1 #
coedge $-1 -1 $-1 $317 $318 $135 $203 forward $319 $-1 #
edge $-1 -1 $-1 $320 0 $210 50 $202 $321 forward @7 unknown #
coedge $-1 -1 $-1 $322 $323 $136 $205 reversed $324 $-1 #
edge $-1 -1 $-1 $325 0 $209 50 $136 $326 forward @7 unknown #
coedge $-1 -1 $-1 $327 $137 $323 $328 reversed $208 $-1 #
coedge $-1 -1 $-1 $137 $199 $317 $329 reversed $208 $-1 #
loop $-1 -1 $-1 $-1 $199 $330 #
vertex $-1 -1 $-1 $205 $331 #
vertex $-1 -1 $-1 $203 $332 #
ellipse-curve $-1 -1 $-1 0 0 50 0 0 -1 30 0 0 1 I I #
model_id-kcp-attrib $-1 -1 $-1 $-1 $140 1 1021384626 1021384626 172359682 5 #
face $333 -1 $-1 $334 $335 $33 $-1 $336 reversed single #
loop $-1 -1 $-1 $-1 $337 $140 #
plane-surface $-1 -1 $-1 -50 0 0 1 0 0 0 0 -1 forward_v I I I I #
coedge $-1 -1 $-1 $338 $224 $339 $340 forward $141 $-1 #
coedge $-1 -1 $-1 $341 $143 $338 $342 forward $95 $-1 #
coedge $-1 -1 $-1 $143 $341 $343 $344 forward $95 $-1 #
coedge $-1 -1 $-1 $227 $226 $143 $220 reversed $228 $-1 #
edge $-1 -1 $-1 $345 -50 $346 50 $219 $347 forward @7 unknown #
coedge $-1 -1 $-1 $145 $144 $348 $349 forward $64 $-1 #
coedge $-1 -1 $-1 $350 $351 $144 $223 reversed $335 $-1 #
edge $-1 -1 $-1 $230 -50 $352 50 $222 $353 forward @7 unknown #
coedge $-1 -1 $-1 $216 $354 $145 $225 reversed $141 $-1 #
edge $-1 -1 $-1 $355 -50 $229 50 $224 $356 forward @7 unknown #
coedge $-1 -1 $-1 $219 $146 $354 $357 forward $228 $-1 #
coedge $-1 -1 $-1 $146 $219 $350 $358 reversed $228 $-1 #
loop $-1 -1 $-1 $-1 $226 $334 #
vertex $-1 -1 $-1 $147 $359 #
vertex $-1 -1 $-1 $147 $360 #
straight-curve $-1 -1 $-1 50 0 50 0 1 0 I I #
coedge $-1 -1 $-1 $232 $232 $151 $233 forward $148 $-1 #
edge $-1 -1 $-1 $361 0 $361 6.2831853071795862 $232 $362 forward @7 unknown #
vertex $-1 -1 $-1 $152 $363 #
ellipse-curve $-1 -1 $-1 0 0 -40 0 0 -1 2 0 0 1 I I #
coedge $-1 -1 $-1 $236 $236 $156 $237 forward $153 $-1 #
edge $-1 -1 $-1 $364 0 $364 6.2831853071795862 $236 $365 forward @7 unknown #
vertex $-1 -1 $-1 $157 $366 #
ellipse-curve $-1 -1 $-1 0 0 -40 0 0 -1 2 0 0 1 I I #
face $-1 -1 $-1 $367 $253 $39 $-1 $368 forward single #
loop $-1 -1 $-1 $-1 $369 $158 #
cone-surface $-1 -1 $-1 0 0 30 0 0 1 30 0 0 1 I I 0 -1 30 forward I I I I #
coedge $-1 -1 $-1 $370 $371 $372 $373 forward $159 $-1 #
coedge $-1 -1 $-1 $374 $161 $371 $375 reversed $109 $-1 #
coedge $-1 -1 $-1 $161 $374 $162 $249 forward $109 $-1 #
coedge $-1 -1 $-1 $164 $372 $161 $247 reversed $253 $-1 #
edge $-1 -1 $-1 $255 -15.000000000000002 $376 14.999999999999998 $161 $377 forward @7 unknown #
coedge $-1 -1 $-1 $163 $162 $378 $379 reversed $73 $-1 #
edge $380 -1 $-1 $381 0 $255 20 $245 $382 forward @7 unknown #
coedge $-1 -1 $-1 $383 $369 $163 $251 reversed $241 $-1 #
edge $-1 -1 $-1 $384 0 $254 20 $163 $385 forward @7 unknown #
coedge $-1 -1 $-1 $372 $164 $369 $386 reversed $253 $-1 #
loop $-1 -1 $-1 $-1 $164 $240 #
vertex $-1 -1 $-1 $251 $387 #
vertex $-1 -1 $-1 $249 $388 #
straight-curve $-1 -1 $-1 15 -16.49519052838329 50 0 -1 0 I I #
face $-1 -1 $-1 $389 $270 $41 $-1 $390 forward single #
loop $-1 -1 $-1 $-1 $391 $166 #
cone-surface $-1 -1 $-1 0 0 30 0 0 1 30 0 0 1 I I 0 -1 30 forward I I I I #
coedge $-1 -1 $-1 $392 $393 $394 $395 forward $167 $-1 #
coedge $-1 -1 $-1 $396 $169 $393 $397 reversed $113 $-1 #
coedge $-1 -1 $-1 $169 $396 $170 $266 forward $113 $-1 #
coedge $-1 -1 $-1 $172 $394 $169 $264 reversed $270 $-1 #
edge $-1 -1 $-1 $272 -14.999999999999998 $398 15.000000000000002 $169 $399 forward @7 unknown #
coedge $-1 -1 $-1 $171 $170 $400 $401 reversed $76 $-1 #
edge $402 -1 $-1 $403 0 $272 20 $262 $404 forward @7 unknown #
coedge $-1 -1 $-1 $405 $391 $171 $268 reversed $258 $-1 #
edge $-1 -1 $-1 $406 0 $271 20 $171 $407 forward @7 unknown #
coedge $-1 -1 $-1 $394 $172 $391 $408 reversed $270 $-1 #
loop $-1 -1 $-1 $-1 $172 $257 #
vertex $-1 -1 $-1 $268 $409 #
vertex $-1 -1 $-1 $266 $410 #
straight-curve $-1 -1 $-1 -15 16.49519052838329 50 0 1 0 I I #
model_id-kcp-attrib $-1 -1 $-1 $-1 $175 1 1021384626 1021384626 172359681 7 #
face $411 -1 $-1 $412 $182 $11 $-1 $81 forward single #
loop $-1 -1 $-1 $-1 $413 $175 #
coedge $-1 -1 $-1 $414 $415 $416 $417 reversed $176 $-1 #
coedge $-1 -1 $-1 $418 $178 $419 $420 reversed $118 $-1 #
coedge $-1 -1 $-1 $178 $418 $282 $421 forward $118 $-1 #
coedge $-1 -1 $-1 $284 $422 $178 $281 forward $423 $-1 #
edge $-1 -1 $-1 $424 -25 $425 -5 $280 $426 forward @7 unknown #
coedge $-1 -1 $-1 $427 $179 $279 $421 reversed $121 $-1 #
coedge $-1 -1 $-1 $179 $427 $414 $428 reversed $121 $-1 #
coedge $-1 -1 $-1 $416 $280 $179 $285 forward $423 $-1 #
edge $429 -1 $-1 $425 -2.0943951023931957 $430 -1.0471975511965979 $284 $431 forward @7 unknown #
loop $432 -1 $-1 $433 $180 $296 #
attrib_edge_convexity-kcp-attrib $-1 -1 $434 $-1 $181 1 #
vertex $435 -1 $-1 $181 $436 #
ellipse-curve $-1 -1 $-1 0 35 -50 0 0 1 2 0 0 1 I I #
model_id-kcp-attrib $-1 -1 $-1 $-1 $182 1 1021384626 1021384626 172359681 37 #
loop $-1 -1 $-1 $-1 $437 $275 #
convexity-sys-attrib $-1 -1 $-1 $183 $125 #
model_id-kcp-attrib $-1 -1 $-1 $-1 $184 1 1021384626 1021384626 172359681 39 #
point $-1 -1 $-1 -2 34.999999999999986 30 #
model_id-kcp-attrib $-1 -1 $-1 $-1 $186 1 1021384626 1021384626 172359681 31 #
face $438 -1 $-1 $439 $186 $11 $-1 $440 reversed single #
convexity-sys-attrib $-1 -1 $-1 $187 $127 #
model_id-kcp-attrib $-1 -1 $-1 $-1 $188 1 1021384626 1021384626 172359681 33 #
point $-1 -1 $-1 2 -35 -50 #
face $-1 -1 $-1 $441 $442 $32 $-1 $443 forward single #
loop $-1 -1 $-1 $-1 $444 $193 #
plane-surface $-1 -1 $-1 -28.284271247461902 -10 0 0 -1 0 0 0 -1 forward_v I I I I #
coedge $-1 -1 $-1 $445 $446 $447 $448 forward $194 $-1 #
coedge $-1 -1 $-1 $449 $196 $446 $450 reversed $132 $-1 #
coedge $-1 -1 $-1 $196 $449 $197 $309 forward $132 $-1 #
coedge $-1 -1 $-1 $199 $447 $196 $307 reversed $208 $-1 #
edge $-1 -1 $-1 $313 -40 $451 -28.284271247461902 $196 $452 forward @7 unknown #
coedge $-1 -1 $-1 $198 $197 $453 $454 reversed $90 $-1 #
edge $-1 -1 $-1 $455 0 $313 50 $305 $456 forward @7 unknown #
coedge $-1 -1 $-1 $318 $317 $198 $311 reversed $319 $-1 #
edge $-1 -1 $-1 $457 0 $312 50 $198 $458 forward @7 unknown #
vertex $-1 -1 $-1 $311 $459 #
vertex $-1 -1 $-1 $309 $460 #
straight-curve $-1 -1 $-1 40 0 50 0 -1 0 I I #
coedge $-1 -1 $-1 $461 $462 $201 $316 forward $463 $-1 #
edge $464 -1 $-1 $325 -2.8017557441356713 $320 -0.33983690945412193 $201 $465 forward @7 unknown #
coedge $-1 -1 $-1 $310 $202 $207 $329 forward $319 $-1 #
coedge $-1 -1 $-1 $202 $310 $461 $466 reversed $319 $-1 #
loop $-1 -1 $-1 $-1 $317 $467 #
vertex $-1 -1 $-1 $466 $468 #
straight-curve $-1 -1 $-1 28.284271247461902 10 0 0 0 1 I I #
coedge $-1 -1 $-1 $469 $204 $462 $470 reversed $324 $-1 #
coedge $-1 -1 $-1 $204 $469 $206 $328 forward $324 $-1 #
loop $-1 -1 $-1 $-1 $323 $441 #
vertex $-1 -1 $-1 $470 $471 #
straight-curve $-1 -1 $-1 -28.284271247461902 10 0 0 0 1 I I #
coedge $-1 -1 $-1 $472 $206 $473 $474 reversed $208 $-1 #
edge $-1 -1 $-1 $475 -40 $209 -28.284271247461902 $323 $476 forward @7 unknown #
edge $-1 -1 $-1 $210 28.284271247461902 $312 40 $317 $477 forward @7 unknown #
face $-1 -1 $-1 $478 $208 $32 $-1 $479 forward single #
point $-1 -1 $-1 -28.284271247461902 10 50 #
point $-1 -1 $-1 28.284271247461902 10 50 #
model_id-kcp-attrib $-1 -1 $-1 $-1 $213 1 1021384626 1021384626 172359682 6 #
face $480 -1 $-1 $-1 $228 $33 $-1 $481 reversed single #
loop $-1 -1 $-1 $-1 $350 $213 #
plane-surface $-1 -1 $-1 0 50 0 0 -1 0 0 0 -1 forward_v I I I I #
coedge $-1 -1 $-1 $482 $348 $351 $483 forward $214 $-1 #
coedge $-1 -1 $-1 $354 $216 $217 $342 reversed $141 $-1 #
coedge $-1 -1 $-1 $348 $482 $216 $340 reversed $214 $-1 #
edge $-1 -1 $-1 $355 -50 $484 50 $339 $485 forward @7 unknown #
coedge $-1 -1 $-1 $218 $217 $482 $486 forward $95 $-1 #
edge $-1 -1 $-1 $346 -50 $484 50 $338 $487 forward @7 unknown #
coedge $-1 -1 $-1 $351 $350 $218 $344 reversed $335 $-1 #
edge $-1 -1 $-1 $488 -50 $345 50 $343 $489 forward @7 unknown #
vertex $-1 -1 $-1 $220 $490 #
vertex $-1 -1 $-1 $357 $491 #
straight-curve $-1 -1 $-1 50 0 -50 0 -1 0 I I #
coedge $-1 -1 $-1 $337 $339 $221 $349 reversed $214 $-1 #
edge $-1 -1 $-1 $352 -50 $355 50 $348 $492 forward @7 unknown #
coedge $-1 -1 $-1 $343 $222 $227 $358 forward $335 $-1 #
coedge $-1 -1 $-1 $222 $343 $337 $483 reversed $335 $-1 #
vertex $-1 -1 $-1 $223 $493 #
straight-curve $-1 -1 $-1 0 50 50 -1 0 0 I I #
coedge $-1 -1 $-1 $224 $338 $226 $357 reversed $141 $-1 #
vertex $-1 -1 $-1 $349 $494 #
straight-curve $-1 -1 $-1 0 -50 50 1 0 0 I I #
edge $-1 -1 $-1 $229 -50 $346 50 $226 $495 forward @7 unknown #
edge $-1 -1 $-1 $230 -50 $345 50 $227 $496 forward @7 unknown #
point $-1 -1 $-1 50 -50 50 #
point $-1 -1 $-1 50 50 50 #
vertex $-1 -1 $-1 $233 $497 #
ellipse-curve $-1 -1 $-1 0 0 40 0 0 1 2 0 0 1 I I #
point $-1 -1 $-1 2 0 -40 #
vertex $-1 -1 $-1 $237 $498 #
ellipse-curve $-1 -1 $-1 0 0 40 0 0 1 2 0 0 1 I I #
point $-1 -1 $-1 2 0 -40 #
face $-1 -1 $-1 $-1 $499 $39 $-1 $500 reversed single #
plane-surface $-1 -1 $-1 4.4408920985006262e-016 -33.722598211027616 50 0 0 1 1 0 0 forward_v I I I I #
coedge $-1 -1 $-1 $250 $501 $252 $386 forward $241 $-1 #
coedge $-1 -1 $-1 $502 $243 $501 $503 reversed $159 $-1 #
coedge $-1 -1 $-1 $243 $502 $244 $375 forward $159 $-1 #
coedge $-1 -1 $-1 $246 $252 $243 $373 reversed $253 $-1 #
edge $-1 -1 $-1 $376 -23.50480947161671 $504 -9.4855715851498701 $243 $505 forward @7 unknown #
coedge $-1 -1 $-1 $245 $244 $506 $507 reversed $109 $-1 #
edge $508 -1 $-1 $509 0 $376 20 $371 $510 forward @7 unknown #
vertex $-1 -1 $-1 $375 $511 #
straight-curve $-1 -1 $-1 -1.7763568394002505e-015 -40 50 -1 0 0 I I #
coedge $-1 -1 $-1 $506 $512 $248 $379 forward $499 $-1 #
edge $513 -1 $-1 $384 9.4855715851498701 $381 23.50480947161671 $248 $514 forward @7 unknown #
convexity-sys-attrib $-1 -1 $-1 $-1 $249 #
vertex $-1 -1 $-1 $379 $515 #
straight-curve $-1 -1 $-1 15 -40 30 0 0 1 I I #
coedge $-1 -1 $-1 $501 $250 $512 $516 reversed $241 $-1 #
vertex $-1 -1 $-1 $516 $517 #
straight-curve $-1 -1 $-1 15 -25.98076211353316 30 0 0 1 I I #
edge $-1 -1 $-1 $504 -2.0943951023931953 $254 -1.0471975511965979 $369 $518 forward @7 unknown #
point $-1 -1 $-1 15 -25.98076211353316 50 #
point $-1 -1 $-1 15 -40 50 #
face $-1 -1 $-1 $-1 $519 $41 $-1 $520 reversed single #
plane-surface $-1 -1 $-1 4.4408920985006262e-016 33.722598211027616 50 0 0 1 1 0 0 forward_v I I I I #
coedge $-1 -1 $-1 $267 $521 $269 $408 forward $258 $-1 #
coedge $-1 -1 $-1 $522 $260 $521 $523 reversed $167 $-1 #
coedge $-1 -1 $-1 $260 $522 $261 $397 forward $167 $-1 #
coedge $-1 -1 $-1 $263 $269 $260 $395 reversed $270 $-1 #
edge $-1 -1 $-1 $398 -23.50480947161671 $524 -9.4855715851498701 $260 $525 forward @7 unknown #
coedge $-1 -1 $-1 $262 $261 $526 $527 reversed $113 $-1 #
edge $528 -1 $-1 $529 0 $398 20 $393 $530 forward @7 unknown #
vertex $-1 -1 $-1 $397 $531 #
straight-curve $-1 -1 $-1 -1.7763568394002505e-015 40 50 1 0 0 I I #
coedge $-1 -1 $-1 $526 $532 $265 $401 forward $519 $-1 #
edge $533 -1 $-1 $406 9.4855715851498701 $403 23.50480947161671 $265 $534 forward @7 unknown #
convexity-sys-attrib $-1 -1 $-1 $-1 $266 #
vertex $-1 -1 $-1 $401 $535 #
straight-curve $-1 -1 $-1 -15 40 30 0 0 1 I I #
coedge $-1 -1 $-1 $521 $267 $532 $536 reversed $258 $-1 #
vertex $-1 -1 $-1 $536 $537 #
straight-curve $-1 -1 $-1 -15 25.98076211353316 30 0 0 1 I I #
edge $-1 -1 $-1 $524 1.0471975511965979 $271 2.0943951023931953 $391 $538 forward @7 unknown #
point $-1 -1 $-1 -15 25.98076211353316 50 #
point $-1 -1 $-1 -15 40 50 #
model_id-kcp-attrib $-1 -1 $-1 $-1 $275 1 1021384626 1021384626 172359681 8 #
face $539 -1 $-1 $540 $541 $11 $-1 $542 forward single #
coedge $-1 -1 $-1 $543 $544 $545 $546 reversed $276 $-1 #
coedge $-1 -1 $-1 $547 $277 $283 $428 forward $176 $-1 #
coedge $-1 -1 $-1 $277 $547 $548 $549 reversed $176 $-1 #
coedge $-1 -1 $-1 $550 $284 $277 $417 forward $423 $-1 #
edge $-1 -1 $-1 $430 5 $551 25 $416 $552 forward @7 unknown #
coedge $-1 -1 $-1 $279 $278 $553 $554 forward $118 $-1 #
coedge $-1 -1 $-1 $555 $556 $278 $420 forward $557 $-1 #
edge $558 -1 $-1 $559 -40 $424 -25.98076211353316 $419 $560 forward @7 unknown #
edge $561 -1 $-1 $562 -40 $425 -25.98076211353316 $279 $563 forward @7 unknown #
coedge $-1 -1 $-1 $280 $564 $555 $565 reversed $423 $-1 #
loop $-1 -1 $-1 $-1 $280 $566 #
vertex $-1 -1 $-1 $420 $567 #
vertex $-1 -1 $-1 $285 $568 #
straight-curve $-1 -1 $-1 -15 -25.98076211353316 25 0 0 -1 I I #
coedge $-1 -1 $-1 $283 $282 $569 $570 reversed $121 $-1 #
edge $571 -1 $-1 $430 25.98076211353316 $572 40 $414 $573 forward @7 unknown #
attrib_edge_convexity-kcp-attrib $-1 -1 $574 $-1 $285 1 #
vertex $-1 -1 $-1 $285 $575 #
ellipse-curve $-1 -1 $-1 0 0 30 0 0 1 30 0 0 1 I I #
model_id-kcp-attrib $-1 -1 $-1 $-1 $286 1 1021384626 1021384626 172359681 38 #
loop $-1 -1 $-1 $-1 $576 $296 #
convexity-sys-attrib $-1 -1 $-1 $287 $181 #
model_id-kcp-attrib $-1 -1 $-1 $-1 $288 1 1021384626 1021384626 172359681 40 #
point $-1 -1 $-1 2 35 -50 #
coedge $-1 -1 $-1 $577 $578 $579 $580 reversed $291 $-1 #
model_id-kcp-attrib $-1 -1 $-1 $-1 $296 1 1021384626 1021384626 172359681 22 #
face $581 -1 $-1 $582 $583 $11 $-1 $584 reversed single #
plane-surface $-1 -1 $-1 0 0 -50 0 0 1 1 0 0 forward_v I I I I #
face $-1 -1 $-1 $467 $324 $32 $-1 $585 forward single #
loop $-1 -1 $-1 $-1 $473 $300 #
plane-surface $-1 -1 $-1 -40 -10 0 -1 0 0 0 0 1 forward_v I I I I #
coedge $-1 -1 $-1 $586 $587 $472 $588 forward $301 $-1 #
coedge $-1 -1 $-1 $589 $303 $587 $590 reversed $194 $-1 #
coedge $-1 -1 $-1 $303 $589 $304 $450 forward $194 $-1 #
coedge $-1 -1 $-1 $306 $472 $303 $448 reversed $208 $-1 #
edge $-1 -1 $-1 $451 0.33983690945412193 $591 2.8017557441356713 $303 $592 forward @7 unknown #
coedge $-1 -1 $-1 $305 $304 $593 $594 reversed $132 $-1 #
edge $-1 -1 $-1 $595 0 $451 50 $446 $596 forward @7 unknown #
vertex $-1 -1 $-1 $450 $597 #
straight-curve $-1 -1 $-1 0 -10 50 -1 0 0 I I #
coedge $-1 -1 $-1 $593 $461 $308 $454 forward $463 $-1 #
edge $598 -1 $-1 $457 -10 $455 10 $308 $599 forward @7 unknown #
vertex $-1 -1 $-1 $454 $600 #
straight-curve $-1 -1 $-1 40 -10 0 0 0 1 I I #
vertex $-1 -1 $-1 $466 $601 #
straight-curve $-1 -1 $-1 40 10 0 0 0 1 I I #
point $-1 -1 $-1 40 10 50 #
point $-1 -1 $-1 40 -10 50 #
coedge $-1 -1 $-1 $453 $315 $318 $466 forward $463 $-1 #
coedge $-1 -1 $-1 $315 $602 $322 $470 forward $463 $-1 #
loop $-1 -1 $-1 $-1 $461 $478 #
convexity-sys-attrib $-1 -1 $-1 $-1 $316 #
ellipse-curve $-1 -1 $-1 0 0 0 0 0 -1 30 0 0 1 I I #
edge $603 -1 $-1 $320 28.284271247461902 $457 40 $318 $604 forward @7 unknown #
face $-1 -1 $-1 $330 $319 $32 $-1 $605 forward single #
point $-1 -1 $-1 28.284271247461902 10 0 #
coedge $-1 -1 $-1 $323 $322 $606 $607 forward $324 $-1 #
edge $608 -1 $-1 $609 -40 $325 -28.284271247461902 $322 $610 forward @7 unknown #
point $-1 -1 $-1 -28.284271247461902 10 0 #
coedge $-1 -1 $-1 $447 $327 $444 $588 reversed $208 $-1 #
coedge $-1 -1 $-1 $606 $611 $327 $474 forward $442 $-1 #
edge $-1 -1 $-1 $612 -10 $475 10 $473 $613 forward @7 unknown #
vertex $-1 -1 $-1 $607 $614 #
straight-curve $-1 -1 $-1 0 10 50 1 0 0 I I #
straight-curve $-1 -1 $-1 0 10 50 1 0 0 I I #
face $-1 -1 $-1 $-1 $463 $32 $-1 $615 reversed single #
plane-surface $-1 -1 $-1 4.4408920985006262e-016 1.6653345369377348e-016 50 0 0 1 1 0 0 forward_v I I I I #
model_id-kcp-attrib $-1 -1 $-1 $-1 $334 1 1021384626 1021384626 172359682 7 #
plane-surface $-1 -1 $-1 50 0 0 -1 0 0 0 0 1 forward_v I I I I #
coedge $-1 -1 $-1 $339 $337 $341 $486 reversed $214 $-1 #
edge $-1 -1 $-1 $352 -50 $488 50 $351 $616 forward @7 unknown #
vertex $-1 -1 $-1 $486 $617 #
straight-curve $-1 -1 $-1 -50 -50 0 0 0 -1 I I #
edge $-1 -1 $-1 $484 -50 $488 50 $482 $618 forward @7 unknown #
straight-curve $-1 -1 $-1 0 -50 -50 -1 0 0 I I #
vertex $-1 -1 $-1 $344 $619 #
straight-curve $-1 -1 $-1 0 50 -50 1 0 0 I I #
point $-1 -1 $-1 50 50 -50 #
point $-1 -1 $-1 50 -50 -50 #
straight-curve $-1 -1 $-1 -50 0 50 0 -1 0 I I #
point $-1 -1 $-1 -50 50 50 #
point $-1 -1 $-1 -50 -50 50 #
straight-curve $-1 -1 $-1 50 -50 0 0 0 -1 I I #
straight-curve $-1 -1 $-1 50 50 0 0 0 -1 I I #
point $-1 -1 $-1 2 0 40 #
point $-1 -1 $-1 2 0 40 #
loop $-1 -1 $-1 $-1 $512 $367 #
plane-surface $-1 -1 $-1 4.4408920985006262e-016 -33.722598211027616 30 0 0 1 1 0 0 forward_v I I I I #
coedge $-1 -1 $-1 $369 $383 $370 $503 forward $241 $-1 #
coedge $-1 -1 $-1 $371 $370 $620 $621 reversed $159 $-1 #
edge $-1 -1 $-1 $622 0 $504 20 $501 $623 forward @7 unknown #
vertex $-1 -1 $-1 $503 $624 #
straight-curve $-1 -1 $-1 -15 -16.49519052838329 50 0 1 0 I I #
coedge $-1 -1 $-1 $620 $378 $374 $507 forward $499 $-1 #
edge $625 -1 $-1 $381 -15.000000000000002 $509 14.999999999999998 $374 $626 forward @7 unknown #
convexity-sys-attrib $-1 -1 $-1 $-1 $375 #
vertex $-1 -1 $-1 $507 $627 #
straight-curve $-1 -1 $-1 -15 -40 30 0 0 1 I I #
point $-1 -1 $-1 -15 -40 50 #
coedge $-1 -1 $-1 $378 $620 $383 $516 forward $499 $-1 #
convexity-sys-attrib $-1 -1 $-1 $-1 $379 #
straight-curve $-1 -1 $-1 15 -16.49519052838329 30 0 -1 0 I I #
point $-1 -1 $-1 15 -40 30 #
edge $628 -1 $-1 $622 -2.0943951023931953 $384 -1.0471975511965979 $383 $629 forward @7 unknown #
point $-1 -1 $-1 15 -25.98076211353316 30 #
ellipse-curve $-1 -1 $-1 0 0 50 0 0 1 30 0 0 1 I I #
loop $-1 -1 $-1 $-1 $532 $389 #
plane-surface $-1 -1 $-1 4.4408920985006262e-016 33.722598211027616 30 0 0 1 1 0 0 forward_v I I I I #
coedge $-1 -1 $-1 $391 $405 $392 $523 forward $258 $-1 #
coedge $-1 -1 $-1 $393 $392 $630 $631 reversed $167 $-1 #
edge $-1 -1 $-1 $632 0 $524 20 $521 $633 forward @7 unknown #
vertex $-1 -1 $-1 $523 $634 #
straight-curve $-1 -1 $-1 15 16.49519052838329 50 0 -1 0 I I #
coedge $-1 -1 $-1 $630 $400 $396 $527 forward $519 $-1 #
edge $635 -1 $-1 $403 -14.999999999999998 $529 15.000000000000002 $396 $636 forward @7 unknown #
convexity-sys-attrib $-1 -1 $-1 $-1 $397 #
vertex $-1 -1 $-1 $527 $637 #
straight-curve $-1 -1 $-1 15 40 30 0 0 1 I I #
point $-1 -1 $-1 15 40 50 #
coedge $-1 -1 $-1 $400 $630 $405 $536 forward $519 $-1 #
convexity-sys-attrib $-1 -1 $-1 $-1 $401 #
straight-curve $-1 -1 $-1 -15 16.49519052838329 30 0 1 0 I I #
point $-1 -1 $-1 -15 40 30 #
edge $638 -1 $-1 $632 1.0471975511965979 $406 2.0943951023931953 $405 $639 forward @7 unknown #
point $-1 -1 $-1 -15 25.98076211353316 30 #
ellipse-curve $-1 -1 $-1 0 0 50 0 0 1 30 0 0 1 I I #
model_id-kcp-attrib $-1 -1 $-1 $-1 $412 1 1021384626 1021384626 172359681 9 #
face $640 -1 $-1 $641 $642 $11 $-1 $119 forward single #
loop $-1 -1 $-1 $-1 $553 $412 #
plane-surface $-1 -1 $-1 0 -40 40 0 1 0 0 0 1 forward_v I I I I #
coedge $-1 -1 $-1 $643 $413 $644 $645 reversed $276 $-1 #
coedge $-1 -1 $-1 $413 $643 $577 $646 forward $276 $-1 #
coedge $-1 -1 $-1 $579 $647 $413 $546 forward $648 $-1 #
edge $-1 -1 $-1 $649 -25 $650 -5 $545 $651 forward @7 unknown #
coedge $-1 -1 $-1 $415 $414 $652 $653 reversed $176 $-1 #
coedge $-1 -1 $-1 $556 $654 $415 $549 forward $557 $-1 #
edge $655 -1 $-1 $551 25.98076211353316 $656 40 $548 $657 forward @7 unknown #
coedge $-1 -1 $-1 $658 $416 $654 $659 reversed $423 $-1 #
vertex $-1 -1 $-1 $659 $660 #
straight-curve $-1 -1 $-1 15 -25.98076211353316 25 0 0 1 I I #
coedge $-1 -1 $-1 $661 $569 $418 $554 reversed $541 $-1 #
edge $-1 -1 $-1 $559 -10 $562 10 $418 $662 forward @7 unknown #
coedge $-1 -1 $-1 $663 $419 $422 $565 forward $557 $-1 #
coedge $-1 -1 $-1 $419 $548 $661 $664 forward $557 $-1 #
loop $-1 -1 $-1 $-1 $665 $666 #
attrib_edge_convexity-kcp-attrib $-1 -1 $667 $-1 $420 1 #
vertex $-1 -1 $-1 $664 $668 #
straight-curve $-1 -1 $-1 -15 0 50 0 1 0 I I #
attrib_edge_convexity-kcp-attrib $-1 -1 $669 $-1 $421 2 #
vertex $-1 -1 $-1 $421 $670 #
straight-curve $-1 -1 $-1 -15 0 30 0 1 0 I I #
coedge $-1 -1 $-1 $422 $671 $672 $673 forward $423 $-1 #
edge $674 -1 $-1 $424 2.0943951023931957 $675 2.8017557441356713 $555 $676 forward @7 unknown #
face $677 -1 $-1 $666 $423 $11 $-1 $678 reversed single #
point $-1 -1 $-1 -15 -25.98076211353316 50 #
point $-1 -1 $-1 -15 -25.98076211353316 30 #
coedge $-1 -1 $-1 $553 $652 $427 $570 forward $541 $-1 #
edge $679 -1 $-1 $572 -15 $562 15 $569 $680 forward @7 unknown #
attrib_edge_convexity-kcp-attrib $-1 -1 $681 $-1 $428 2 #
vertex $-1 -1 $-1 $653 $682 #
straight-curve $-1 -1 $-1 15 0 30 0 -1 0 I I #
convexity-sys-attrib $-1 -1 $-1 $429 $285 #
point $-1 -1 $-1 15 -25.98076211353316 30 #
coedge $-1 -1 $-1 $683 $684 $685 $686 forward $433 $-1 #
coedge $-1 -1 $-1 $687 $437 $544 $646 reversed $291 $-1 #
coedge $-1 -1 $-1 $437 $687 $688 $689 reversed $291 $-1 #
coedge $-1 -1 $-1 $690 $545 $437 $580 forward $648 $-1 #
edge $691 -1 $-1 $650 1.0471975511965979 $692 2.0943951023931957 $579 $693 forward @7 unknown #
model_id-kcp-attrib $-1 -1 $-1 $-1 $439 1 1021384626 1021384626 172359681 23 #
face $694 -1 $-1 $695 $696 $11 $-1 $697 reversed single #
loop $-1 -1 $-1 $-1 $698 $439 #
plane-surface $-1 -1 $-1 0 -50 0 0 1 0 0 0 1 forward_v I I I I #
plane-surface $-1 -1 $-1 -40 10 0 0 1 0 0 0 1 forward_v I I I I #
coedge $-1 -1 $-1 $699 $444 $611 $700 reversed $301 $-1 #
coedge $-1 -1 $-1 $444 $699 $445 $590 forward $301 $-1 #
edge $-1 -1 $-1 $591 28.284271247461902 $612 40 $444 $701 forward @7 unknown #
coedge $-1 -1 $-1 $446 $445 $702 $703 reversed $194 $-1 #
edge $-1 -1 $-1 $704 0 $591 50 $587 $705 forward @7 unknown #
vertex $-1 -1 $-1 $590 $706 #
ellipse-curve $-1 -1 $-1 0 0 50 0 0 -1 30 0 0 1 I I #
coedge $-1 -1 $-1 $702 $453 $449 $594 forward $463 $-1 #
edge $707 -1 $-1 $455 -40 $595 -28.284271247461902 $449 $708 forward @7 unknown #
vertex $-1 -1 $-1 $594 $709 #
straight-curve $-1 -1 $-1 28.284271247461902 -10 0 0 0 1 I I #
point $-1 -1 $-1 28.284271247461902 -10 50 #
convexity-sys-attrib $-1 -1 $-1 $-1 $454 #
straight-curve $-1 -1 $-1 40 0 0 0 -1 0 I I #
point $-1 -1 $-1 40 -10 0 #
point $-1 -1 $-1 40 10 0 #
coedge $-1 -1 $-1 $462 $710 $711 $712 forward $463 $-1 #
convexity-sys-attrib $-1 -1 $-1 $-1 $466 #
straight-curve $-1 -1 $-1 0 10 0 1 0 0 I I #
plane-surface $-1 -1 $-1 28.284271247461902 10 0 0 1 0 0 0 1 forward_v I I I I #
coedge $-1 -1 $-1 $711 $473 $469 $607 reversed $442 $-1 #
edge $-1 -1 $-1 $609 0 $475 50 $469 $713 forward @7 unknown #
convexity-sys-attrib $-1 -1 $-1 $-1 $470 #
vertex $-1 -1 $-1 $712 $714 #
straight-curve $-1 -1 $-1 0 10 0 1 0 0 I I #
coedge $-1 -1 $-1 $473 $711 $586 $700 forward $442 $-1 #
vertex $-1 -1 $-1 $700 $715 #
straight-curve $-1 -1 $-1 -40 0 50 0 1 0 I I #
point $-1 -1 $-1 -40 10 50 #
plane-surface $-1 -1 $-1 4.4408920985006262e-016 1.6653345369377348e-016 0 0 0 1 1 0 0 forward_v I I I I #
straight-curve $-1 -1 $-1 -50 50 0 0 0 -1 I I #
point $-1 -1 $-1 -50 -50 -50 #
straight-curve $-1 -1 $-1 -50 0 -50 0 1 0 I I #
point $-1 -1 $-1 -50 50 -50 #
coedge $-1 -1 $-1 $512 $506 $502 $621 forward $499 $-1 #
edge $716 -1 $-1 $509 -23.50480947161671 $622 -9.4855715851498701 $502 $717 forward @7 unknown #
vertex $-1 -1 $-1 $516 $718 #
straight-curve $-1 -1 $-1 -15 -25.98076211353316 30 0 0 1 I I #
point $-1 -1 $-1 -15 -25.98076211353316 50 #
convexity-sys-attrib $-1 -1 $-1 $-1 $507 #
straight-curve $-1 -1 $-1 -1.7763568394002505e-015 -40 30 -1 0 0 I I #
point $-1 -1 $-1 -15 -40 30 #
convexity-sys-attrib $-1 -1 $-1 $-1 $516 #
ellipse-curve $-1 -1 $-1 0 0 30 0 0 1 30 0 0 1 I I #
coedge $-1 -1 $-1 $532 $526 $522 $631 forward $519 $-1 #
edge $719 -1 $-1 $529 -23.50480947161671 $632 -9.4855715851498701 $522 $720 forward @7 unknown #
vertex $-1 -1 $-1 $536 $721 #
straight-curve $-1 -1 $-1 15 25.98076211353316 30 0 0 1 I I #
point $-1 -1 $-1 15 25.98076211353316 50 #
convexity-sys-attrib $-1 -1 $-1 $-1 $527 #
straight-curve $-1 -1 $-1 -1.7763568394002505e-015 40 30 1 0 0 I I #
point $-1 -1 $-1 15 40 30 #
convexity-sys-attrib $-1 -1 $-1 $-1 $536 #
ellipse-curve $-1 -1 $-1 0 0 30 0 0 1 30 0 0 1 I I #
model_id-kcp-attrib $-1 -1 $-1 $-1 $540 1 1021384626 1021384626 172359681 10 #
face $722 -1 $-1 $566 $723 $11 $-1 $724 forward single #
loop $-1 -1 $-1 $-1 $725 $540 #
coedge $-1 -1 $-1 $544 $543 $726 $727 forward $276 $-1 #
coedge $-1 -1 $-1 $728 $729 $543 $645 forward $557 $-1 #
edge $730 -1 $-1 $731 -40 $649 -25.98076211353316 $644 $657 forward @7 unknown #
edge $732 -1 $-1 $733 -40 $650 -25.98076211353316 $544 $573 forward @7 unknown #
coedge $-1 -1 $-1 $545 $734 $728 $735 reversed $648 $-1 #
loop $-1 -1 $-1 $-1 $690 $736 #
vertex $-1 -1 $-1 $546 $737 #
vertex $-1 -1 $-1 $580 $738 #
straight-curve $-1 -1 $-1 15 25.98076211353316 25 0 0 -1 I I #
coedge $-1 -1 $-1 $569 $661 $547 $653 forward $541 $-1 #
edge $-1 -1 $-1 $656 -10 $572 10 $547 $739 forward @7 unknown #
coedge $-1 -1 $-1 $548 $740 $550 $659 forward $557 $-1 #
attrib_edge_convexity-kcp-attrib $-1 -1 $741 $-1 $549 1 #
vertex $-1 -1 $-1 $664 $742 #
straight-curve $-1 -1 $-1 15 0 50 0 -1 0 I I #
coedge $-1 -1 $-1 $671 $550 $743 $744 forward $423 $-1 #
edge $745 -1 $-1 $746 0.33983690945412193 $551 1.0471975511965979 $654 $676 forward @7 unknown #
point $-1 -1 $-1 15 -25.98076211353316 50 #
coedge $-1 -1 $-1 $652 $553 $556 $664 reversed $541 $-1 #
straight-curve $-1 -1 $-1 -15 -40 40 0 0 -1 I I #
coedge $-1 -1 $-1 $747 $555 $748 $749 forward $557 $-1 #
edge $750 -1 $-1 $656 -15 $559 15 $556 $751 forward @7 unknown #
coedge $-1 -1 $-1 $729 $752 $753 $754 forward $557 $-1 #
face $755 -1 $-1 $756 $757 $11 $-1 $758 forward single #
convexity-sys-attrib $-1 -1 $-1 $558 $420 #
point $-1 -1 $-1 -15 -40 50 #
convexity-sys-attrib $-1 -1 $-1 $561 $421 #
point $-1 -1 $-1 -15 -40 30 #
coedge $-1 -1 $-1 $564 $658 $759 $760 forward $423 $-1 #
coedge $-1 -1 $-1 $761 $748 $564 $673 reversed $762 $-1 #
edge $-1 -1 $-1 $763 -25 $675 25 $564 $764 forward @7 unknown #
attrib_edge_convexity-kcp-attrib $-1 -1 $765 $-1 $565 1 #
vertex $-1 -1 $-1 $565 $766 #
ellipse-curve $-1 -1 $-1 0 0 50 0 0 -1 30 0 0 1 I I #
model_id-kcp-attrib $-1 -1 $-1 $-1 $566 1 1021384626 1021384626 172359681 12 #
cone-surface $-1 -1 $-1 0 0 25 0 0 1 30 0 0 1 I I 0 1 30 forward I I I I #
attrib_edge_convexity-kcp-attrib $-1 -1 $767 $-1 $570 2 #
straight-curve $-1 -1 $-1 0 -40 30 -1 0 0 I I #
convexity-sys-attrib $-1 -1 $-1 $571 $428 #
point $-1 -1 $-1 15 -40 30 #
coedge $-1 -1 $-1 $768 $576 $769 $770 forward $433 $-1 #
coedge $-1 -1 $-1 $576 $768 $771 $772 forward $433 $-1 #
coedge $-1 -1 $-1 $773 $774 $576 $686 reversed $775 $-1 #
edge $-1 -1 $-1 $776 -50 $777 50 $685 $778 forward @7 unknown #
coedge $-1 -1 $-1 $578 $577 $779 $780 reversed $291 $-1 #
coedge $-1 -1 $-1 $781 $725 $578 $689 forward $642 $-1 #
edge $782 -1 $-1 $692 25.98076211353316 $783 40 $688 $563 forward @7 unknown #
coedge $-1 -1 $-1 $784 $579 $725 $785 forward $648 $-1 #
attrib_edge_convexity-kcp-attrib $-1 -1 $786 $-1 $580 1 #
vertex $-1 -1 $-1 $580 $787 #
ellipse-curve $-1 -1 $-1 0 0 30 0 0 1 30 0 0 1 I I #
model_id-kcp-attrib $-1 -1 $-1 $-1 $582 1 1021384626 1021384626 172359681 24 #
face $788 -1 $-1 $789 $790 $11 $-1 $791 reversed single #
loop $-1 -1 $-1 $-1 $792 $582 #
plane-surface $-1 -1 $-1 -50 0 0 1 0 0 0 0 -1 forward_v I I I I #
coedge $-1 -1 $-1 $769 $793 $794 $795 forward $583 $-1 #
coedge $-1 -1 $-1 $587 $586 $710 $796 reversed $301 $-1 #
edge $-1 -1 $-1 $797 0 $612 50 $611 $798 forward @7 unknown #
straight-curve $-1 -1 $-1 0 -10 50 -1 0 0 I I #
coedge $-1 -1 $-1 $710 $593 $589 $703 forward $463 $-1 #
edge $799 -1 $-1 $595 0.33983690945412193 $704 2.8017557441356713 $589 $800 forward @7 unknown #
vertex $-1 -1 $-1 $703 $801 #
straight-curve $-1 -1 $-1 -28.284271247461902 -10 0 0 0 1 I I #
point $-1 -1 $-1 -28.284271247461902 -10 50 #
convexity-sys-attrib $-1 -1 $-1 $-1 $594 #
straight-curve $-1 -1 $-1 0 -10 0 -1 0 0 I I #
point $-1 -1 $-1 28.284271247461902 -10 0 #
coedge $-1 -1 $-1 $602 $702 $699 $796 forward $463 $-1 #
coedge $-1 -1 $-1 $611 $606 $602 $712 reversed $442 $-1 #
edge $802 -1 $-1 $797 -10 $609 10 $711 $803 forward @7 unknown #
straight-curve $-1 -1 $-1 -40 10 0 0 0 1 I I #
point $-1 -1 $-1 -40 10 0 #
point $-1 -1 $-1 -40 -10 50 #
convexity-sys-attrib $-1 -1 $-1 $-1 $621 #
straight-curve $-1 -1 $-1 -15 -16.49519052838329 30 0 1 0 I I #
point $-1 -1 $-1 -15 -25.98076211353316 30 #
convexity-sys-attrib $-1 -1 $-1 $-1 $631 #
straight-curve $-1 -1 $-1 15 16.49519052838329 30 0 -1 0 I I #
point $-1 -1 $-1 15 25.98076211353316 30 #
model_id-kcp-attrib $-1 -1 $-1 $-1 $641 1 1021384626 1021384626 172359681 11 #
loop $-1 -1 $-1 $-1 $726 $641 #
plane-surface $-1 -1 $-1 0 40 40 0 -1 0 0 0 -1 forward_v I I I I #
coedge $-1 -1 $-1 $688 $753 $690 $785 reversed $642 $-1 #
coedge $-1 -1 $-1 $804 $779 $643 $727 reversed $723 $-1 #
edge $-1 -1 $-1 $731 -10 $733 10 $643 $805 forward @7 unknown #
coedge $-1 -1 $-1 $806 $644 $647 $735 forward $557 $-1 #
coedge $-1 -1 $-1 $644 $665 $804 $807 forward $557 $-1 #
attrib_edge_convexity-kcp-attrib $-1 -1 $808 $-1 $645 1 #
vertex $-1 -1 $-1 $807 $809 #
attrib_edge_convexity-kcp-attrib $-1 -1 $810 $-1 $646 2 #
vertex $-1 -1 $-1 $646 $811 #
coedge $-1 -1 $-1 $647 $812 $813 $814 forward $648 $-1 #
edge $815 -1 $-1 $649 -1.0471975511965979 $816 -0.33983690945412193 $728 $676 forward @7 unknown #
face $817 -1 $-1 $818 $648 $11 $-1 $678 reversed single #
point $-1 -1 $-1 15 25.98076211353316 50 #
point $-1 -1 $-1 15 25.98076211353316 30 #
straight-curve $-1 -1 $-1 15 -40 40 0 0 -1 I I #
coedge $-1 -1 $-1 $654 $819 $820 $821 forward $557 $-1 #
convexity-sys-attrib $-1 -1 $-1 $655 $549 #
point $-1 -1 $-1 15 -40 50 #
coedge $-1 -1 $-1 $820 $822 $658 $744 reversed $823 $-1 #
edge $-1 -1 $-1 $746 -25 $824 25 $658 $825 forward @7 unknown #
attrib_edge_convexity-kcp-attrib $-1 -1 $826 $-1 $659 1 #
vertex $-1 -1 $-1 $744 $827 #
coedge $-1 -1 $-1 $828 $663 $829 $830 forward $557 $-1 #
coedge $-1 -1 $-1 $672 $831 $663 $749 reversed $762 $-1 #
edge $832 -1 $-1 $675 28.284271247461902 $833 40 $663 $834 forward @7 unknown #
attrib_edge_convexity-kcp-attrib $-1 -1 $835 $-1 $664 1 #
straight-curve $-1 -1 $-1 0 -40 50 -1 0 0 I I #
coedge $-1 -1 $-1 $665 $828 $784 $836 forward $557 $-1 #
coedge $-1 -1 $-1 $725 $781 $665 $754 reversed $642 $-1 #
edge $837 -1 $-1 $838 25.98076211353316 $839 40 $665 $560 forward @7 unknown #
model_id-kcp-attrib $-1 -1 $-1 $-1 $666 1 1021384626 1021384626 172359681 13 #
face $840 -1 $-1 $841 $842 $11 $-1 $843 forward single #
loop $-1 -1 $-1 $557 $844 $666 #
plane-surface $-1 -1 $-1 0 0 50 0 0 1 1 0 0 forward_v I I I I #
coedge $-1 -1 $-1 $845 $846 $671 $760 reversed $847 $-1 #
edge $848 -1 $-1 $824 0.33983690945412193 $763 2.8017557441356713 $759 $849 forward @7 unknown #
coedge $-1 -1 $-1 $831 $672 $846 $850 forward $762 $-1 #
loop $-1 -1 $-1 $-1 $672 $841 #
vertex $-1 -1 $-1 $760 $851 #
straight-curve $-1 -1 $-1 -28.284271247461902 -10 25 0 0 1 I I #
convexity-sys-attrib $-1 -1 $-1 $674 $565 #
point $-1 -1 $-1 -28.284271247461902 -10 50 #
convexity-sys-attrib $-1 -1 $-1 $679 $570 #
coedge $-1 -1 $-1 $684 $683 $852 $853 forward $433 $-1 #
coedge $-1 -1 $-1 $854 $698 $683 $770 reversed $583 $-1 #
edge $855 -1 $-1 $777 -50 $856 50 $769 $857 forward @7 unknown #
coedge $-1 -1 $-1 $858 $859 $684 $772 reversed $790 $-1 #
edge $-1 -1 $-1 $860 -50 $776 50 $771 $861 forward @7 unknown #
coedge $-1 -1 $-1 $862 $685 $859 $863 reversed $775 $-1 #
coedge $-1 -1 $-1 $685 $862 $854 $864 forward $775 $-1 #
loop $-1 -1 $-1 $-1 $774 $789 #
vertex $-1 -1 $-1 $686 $865 #
vertex $-1 -1 $-1 $864 $866 #
straight-curve $-1 -1 $-1 50 0 -50 0 -1 0 I I #
coedge $-1 -1 $-1 $726 $867 $687 $780 forward $723 $-1 #
edge $868 -1 $-1 $783 -15 $733 15 $779 $869 forward @7 unknown #
coedge $-1 -1 $-1 $753 $688 $867 $870 reversed $642 $-1 #
attrib_edge_convexity-kcp-attrib $-1 -1 $871 $-1 $689 2 #
vertex $-1 -1 $-1 $780 $872 #
coedge $-1 -1 $-1 $873 $690 $752 $836 reversed $648 $-1 #
edge $-1 -1 $-1 $692 5 $838 25 $690 $874 forward @7 unknown #
convexity-sys-attrib $-1 -1 $-1 $691 $580 #
point $-1 -1 $-1 -15 25.98076211353316 30 #
model_id-kcp-attrib $-1 -1 $-1 $-1 $695 1 1021384626 1021384626 172359681 25 #
face $875 -1 $-1 $-1 $775 $11 $-1 $876 reversed single #
loop $-1 -1 $-1 $-1 $859 $695 #
plane-surface $-1 -1 $-1 0 50 0 0 -1 0 0 0 -1 forward_v I I I I #
coedge $-1 -1 $-1 $852 $877 $858 $878 forward $696 $-1 #
coedge $-1 -1 $-1 $698 $854 $879 $880 reversed $583 $-1 #
coedge $-1 -1 $-1 $877 $852 $698 $795 reversed $696 $-1 #
edge $881 -1 $-1 $882 -50 $856 50 $794 $883 forward @7 unknown #
edge $884 -1 $-1 $704 28.284271247461902 $797 40 $699 $885 forward @7 unknown #
vertex $-1 -1 $-1 $796 $886 #
straight-curve $-1 -1 $-1 -40 -10 0 0 0 1 I I #
convexity-sys-attrib $-1 -1 $-1 $-1 $703 #
ellipse-curve $-1 -1 $-1 0 0 0 0 0 -1 30 0 0 1 I I #
point $-1 -1 $-1 -28.284271247461902 -10 0 #
convexity-sys-attrib $-1 -1 $-1 $-1 $712 #
straight-curve $-1 -1 $-1 -40 0 0 0 1 0 I I #
coedge $-1 -1 $-1 $867 $726 $729 $807 reversed $723 $-1 #
straight-curve $-1 -1 $-1 15 40 40 0 0 -1 I I #
coedge $-1 -1 $-1 $819 $728 $887 $888 forward $557 $-1 #
edge $889 -1 $-1 $839 -15 $731 15 $729 $890 forward @7 unknown #
convexity-sys-attrib $-1 -1 $-1 $730 $645 #
point $-1 -1 $-1 15 40 50 #
convexity-sys-attrib $-1 -1 $-1 $732 $646 #
point $-1 -1 $-1 15 40 30 #
coedge $-1 -1 $-1 $734 $873 $891 $892 forward $648 $-1 #
coedge $-1 -1 $-1 $893 $887 $734 $814 reversed $894 $-1 #
edge $-1 -1 $-1 $895 -25 $816 25 $734 $896 forward @7 unknown #
attrib_edge_convexity-kcp-attrib $-1 -1 $897 $-1 $735 1 #
vertex $-1 -1 $-1 $735 $898 #
model_id-kcp-attrib $-1 -1 $-1 $-1 $736 1 1021384626 1021384626 172359681 20 #
face $899 -1 $-1 $296 $847 $11 $-1 $900 reversed single #
coedge $-1 -1 $-1 $740 $806 $901 $902 forward $557 $-1 #
coedge $-1 -1 $-1 $903 $743 $740 $821 reversed $823 $-1 #
edge $904 -1 $-1 $905 -40 $746 -28.284271247461902 $740 $834 forward @7 unknown #
coedge $-1 -1 $-1 $743 $903 $845 $906 forward $823 $-1 #
loop $-1 -1 $-1 $-1 $743 $907 #
vertex $-1 -1 $-1 $906 $908 #
straight-curve $-1 -1 $-1 28.284271247461902 -10 25 0 0 -1 I I #
convexity-sys-attrib $-1 -1 $-1 $745 $659 #
point $-1 -1 $-1 28.284271247461902 -10 50 #
coedge $-1 -1 $-1 $752 $747 $909 $910 forward $557 $-1 #
coedge $-1 -1 $-1 $911 $912 $747 $830 reversed $913 $-1 #
edge $914 -1 $-1 $833 -10 $915 10 $747 $916 forward @7 unknown #
coedge $-1 -1 $-1 $748 $761 $911 $917 reversed $762 $-1 #
attrib_edge_convexity-kcp-attrib $-1 -1 $918 $-1 $749 1 #
vertex $-1 -1 $-1 $749 $919 #
straight-curve $-1 -1 $-1 0 -10 50 -1 0 0 I I #
convexity-sys-attrib $-1 -1 $-1 $750 $664 #
edge $920 -1 $-1 $921 -2.8017557441356713 $838 -2.0943951023931957 $752 $676 forward @7 unknown #
attrib_edge_convexity-kcp-attrib $-1 -1 $922 $-1 $754 1 #
vertex $-1 -1 $-1 $836 $923 #
vertex $-1 -1 $-1 $754 $924 #
model_id-kcp-attrib $-1 -1 $-1 $-1 $756 1 1021384626 1021384626 172359681 14 #
face $925 -1 $-1 $907 $762 $11 $-1 $926 forward single #
loop $-1 -1 $-1 $-1 $927 $756 #
plane-surface $-1 -1 $-1 0 10 25 0 -1 0 0 0 -1 forward_v I I I I #
coedge $-1 -1 $-1 $928 $879 $862 $929 forward $757 $-1 #
coedge $-1 -1 $-1 $930 $759 $822 $906 reversed $847 $-1 #
coedge $-1 -1 $-1 $759 $931 $761 $850 reversed $847 $-1 #
loop $-1 -1 $-1 $-1 $759 $818 #
attrib_edge_convexity-kcp-attrib $-1 -1 $932 $-1 $760 2 #
ellipse-curve $-1 -1 $-1 0 0 0 0 0 -1 30 0 0 1 I I #
edge $933 -1 $-1 $763 28.284271247461902 $934 40 $761 $935 forward @7 unknown #
point $-1 -1 $-1 -28.284271247461902 -10 0 #
coedge $-1 -1 $-1 $794 $792 $768 $853 reversed $696 $-1 #
edge $936 -1 $-1 $856 -50 $860 50 $852 $937 forward @7 unknown #
coedge $-1 -1 $-1 $793 $769 $774 $864 reversed $583 $-1 #
attrib_edge_convexity-kcp-attrib $-1 -1 $938 $-1 $770 1 #
vertex $-1 -1 $-1 $853 $939 #
straight-curve $-1 -1 $-1 0 -50 -50 -1 0 0 I I #
coedge $-1 -1 $-1 $940 $771 $792 $878 reversed $790 $-1 #
coedge $-1 -1 $-1 $771 $940 $773 $863 forward $790 $-1 #
vertex $-1 -1 $-1 $772 $941 #
straight-curve $-1 -1 $-1 0 50 -50 1 0 0 I I #
coedge $-1 -1 $-1 $774 $773 $844 $929 reversed $775 $-1 #
edge $-1 -1 $-1 $942 -50 $776 50 $773 $943 forward @7 unknown #
edge $944 -1 $-1 $945 -50 $777 50 $774 $946 forward @7 unknown #
point $-1 -1 $-1 50 50 -50 #
point $-1 -1 $-1 50 -50 -50 #
coedge $-1 -1 $-1 $779 $804 $781 $870 forward $723 $-1 #
attrib_edge_convexity-kcp-attrib $-1 -1 $947 $-1 $780 2 #
straight-curve $-1 -1 $-1 0 40 30 1 0 0 I I #
edge $-1 -1 $-1 $839 -10 $783 10 $867 $948 forward @7 unknown #
convexity-sys-attrib $-1 -1 $-1 $782 $689 #
point $-1 -1 $-1 -15 40 30 #
coedge $-1 -1 $-1 $812 $784 $927 $949 forward $648 $-1 #
straight-curve $-1 -1 $-1 -15 25.98076211353316 25 0 0 1 I I #
model_id-kcp-attrib $-1 -1 $-1 $-1 $789 1 1021384626 1021384626 172359681 26 #
plane-surface $-1 -1 $-1 50 0 0 -1 0 0 0 0 1 forward_v I I I I #
coedge $-1 -1 $-1 $792 $794 $950 $951 reversed $696 $-1 #
edge $952 -1 $-1 $953 -50 $860 50 $858 $954 forward @7 unknown #
coedge $-1 -1 $-1 $844 $950 $793 $880 forward $757 $-1 #
edge $955 -1 $-1 $882 -50 $945 50 $793 $956 forward @7 unknown #
attrib_edge_convexity-kcp-attrib $-1 -1 $957 $-1 $795 1 #
vertex $-1 -1 $-1 $951 $958 #
straight-curve $-1 -1 $-1 -50 -50 0 0 0 -1 I I #
convexity-sys-attrib $-1 -1 $-1 $-1 $796 #
straight-curve $-1 -1 $-1 0 -10 0 -1 0 0 I I #
point $-1 -1 $-1 -40 -10 0 #
coedge $-1 -1 $-1 $813 $959 $806 $888 reversed $894 $-1 #
edge $960 -1 $-1 $816 28.284271247461902 $961 40 $806 $962 forward @7 unknown #
attrib_edge_convexity-kcp-attrib $-1 -1 $963 $-1 $807 1 #
straight-curve $-1 -1 $-1 0 40 50 1 0 0 I I #
coedge $-1 -1 $-1 $964 $965 $812 $892 reversed $847 $-1 #
edge $966 -1 $-1 $967 -2.8017557441356713 $895 -0.33983690945412193 $891 $849 forward @7 unknown #
coedge $-1 -1 $-1 $959 $813 $965 $968 forward $894 $-1 #
loop $-1 -1 $-1 $-1 $813 $969 #
vertex $-1 -1 $-1 $892 $970 #
straight-curve $-1 -1 $-1 28.284271247461902 10 25 0 0 1 I I #
convexity-sys-attrib $-1 -1 $-1 $815 $735 #
point $-1 -1 $-1 28.284271247461902 10 50 #
model_id-kcp-attrib $-1 -1 $-1 $-1 $818 1 1021384626 1021384626 172359681 21 #
plane-surface $-1 -1 $-1 0 0 0 0 0 -1 -1 0 0 forward_v I I I I #
coedge $-1 -1 $-1 $971 $972 $819 $902 reversed $973 $-1 #
edge $974 -1 $-1 $961 -10 $905 10 $819 $975 forward @7 unknown #
coedge $-1 -1 $-1 $822 $820 $972 $976 forward $823 $-1 #
attrib_edge_convexity-kcp-attrib $-1 -1 $977 $-1 $821 1 #
vertex $-1 -1 $-1 $821 $978 #
edge $979 -1 $-1 $980 -40 $824 -28.284271247461902 $822 $935 forward @7 unknown #
face $981 -1 $-1 $982 $823 $11 $-1 $926 forward single #
point $-1 -1 $-1 28.284271247461902 -10 0 #
coedge $-1 -1 $-1 $983 $927 $828 $910 reversed $842 $-1 #
edge $984 -1 $-1 $915 -40 $921 -28.284271247461902 $828 $962 forward @7 unknown #
coedge $-1 -1 $-1 $985 $829 $831 $917 forward $913 $-1 #
coedge $-1 -1 $-1 $829 $985 $983 $986 reversed $913 $-1 #
loop $-1 -1 $-1 $-1 $912 $982 #
attrib_edge_convexity-kcp-attrib $-1 -1 $987 $-1 $830 1 #
vertex $-1 -1 $-1 $830 $988 #
straight-curve $-1 -1 $-1 -40 0 50 0 1 0 I I #
edge $-1 -1 $-1 $833 -25 $934 25 $911 $989 forward @7 unknown #
convexity-sys-attrib $-1 -1 $-1 $832 $749 #
point $-1 -1 $-1 -40 -10 50 #
attrib_edge_convexity-kcp-attrib $-1 -1 $990 $-1 $836 1 #
vertex $-1 -1 $-1 $949 $991 #
convexity-sys-attrib $-1 -1 $-1 $837 $754 #
point $-1 -1 $-1 -15 25.98076211353316 50 #
point $-1 -1 $-1 -15 40 50 #
model_id-kcp-attrib $-1 -1 $-1 $-1 $841 1 1021384626 1021384626 172359681 15 #
plane-surface $-1 -1 $-1 0 -10 25 0 1 0 0 0 1 forward_v I I I I #
coedge $-1 -1 $-1 $909 $992 $873 $949 reversed $842 $-1 #
coedge $-1 -1 $-1 $950 $844 $940 $993 forward $757 $-1 #
edge $994 -1 $-1 $945 -50 $942 50 $862 $995 forward @7 unknown #
coedge $-1 -1 $-1 $965 $845 $996 $997 reversed $847 $-1 #
coedge $-1 -1 $-1 $846 $964 $985 $998 reversed $847 $-1 #
convexity-sys-attrib $-1 -1 $-1 $848 $760 #
attrib_edge_convexity-kcp-attrib $-1 -1 $999 $-1 $850 2 #
vertex $-1 -1 $-1 $998 $1000 #
straight-curve $-1 -1 $-1 0 -10 0 -1 0 0 I I #
attrib_edge_convexity-kcp-attrib $-1 -1 $1001 $-1 $853 1 #
straight-curve $-1 -1 $-1 -50 0 -50 0 1 0 I I #
convexity-sys-attrib $-1 -1 $-1 $855 $770 #
point $-1 -1 $-1 -50 -50 -50 #
coedge $-1 -1 $-1 $859 $858 $928 $993 reversed $790 $-1 #
point $-1 -1 $-1 -50 50 -50 #
vertex $-1 -1 $-1 $929 $1002 #
straight-curve $-1 -1 $-1 50 50 0 0 0 -1 I I #
attrib_edge_convexity-kcp-attrib $-1 -1 $1003 $-1 $864 1 #
vertex $-1 -1 $-1 $929 $1004 #
straight-curve $-1 -1 $-1 50 -50 0 0 0 -1 I I #
convexity-sys-attrib $-1 -1 $-1 $868 $780 #
straight-curve $-1 -1 $-1 -15 40 40 0 0 -1 I I #
edge $-1 -1 $-1 $921 -25 $967 25 $873 $1005 forward @7 unknown #
coedge $-1 -1 $-1 $879 $928 $877 $951 forward $757 $-1 #
edge $1006 -1 $-1 $953 -50 $882 50 $877 $1007 forward @7 unknown #
attrib_edge_convexity-kcp-attrib $-1 -1 $1008 $-1 $878 1 #
vertex $-1 -1 $-1 $993 $1009 #
straight-curve $-1 -1 $-1 -50 50 0 0 0 -1 I I #
attrib_edge_convexity-kcp-attrib $-1 -1 $1010 $-1 $880 1 #
straight-curve $-1 -1 $-1 0 -50 50 1 0 0 I I #
convexity-sys-attrib $-1 -1 $-1 $881 $795 #
point $-1 -1 $-1 -50 -50 50 #
coedge $-1 -1 $-1 $887 $893 $971 $1011 reversed $894 $-1 #
attrib_edge_convexity-kcp-attrib $-1 -1 $1012 $-1 $888 1 #
vertex $-1 -1 $-1 $888 $1013 #
straight-curve $-1 -1 $-1 0 10 50 1 0 0 I I #
convexity-sys-attrib $-1 -1 $-1 $889 $807 #
coedge $-1 -1 $-1 $931 $891 $992 $1014 reversed $847 $-1 #
coedge $-1 -1 $-1 $891 $930 $893 $968 reversed $847 $-1 #
attrib_edge_convexity-kcp-attrib $-1 -1 $1015 $-1 $892 2 #
vertex $-1 -1 $-1 $1014 $1016 #
edge $1017 -1 $-1 $895 28.284271247461902 $1018 40 $893 $1019 forward @7 unknown #
face $1020 -1 $-1 $1021 $894 $11 $-1 $843 forward single #
point $-1 -1 $-1 28.284271247461902 10 0 #
coedge $-1 -1 $-1 $996 $901 $959 $1011 forward $973 $-1 #
coedge $-1 -1 $-1 $901 $996 $903 $976 reversed $973 $-1 #
loop $-1 -1 $-1 $-1 $972 $1021 #
attrib_edge_convexity-kcp-attrib $-1 -1 $1022 $-1 $902 1 #
straight-curve $-1 -1 $-1 40 0 50 0 -1 0 I I #
edge $-1 -1 $-1 $905 -25 $980 25 $972 $1023 forward @7 unknown #
convexity-sys-attrib $-1 -1 $-1 $904 $821 #
point $-1 -1 $-1 40 -10 50 #
attrib_edge_convexity-kcp-attrib $-1 -1 $1024 $-1 $906 2 #
vertex $-1 -1 $-1 $976 $1025 #
model_id-kcp-attrib $-1 -1 $-1 $-1 $907 1 1021384626 1021384626 172359681 16 #
face $1026 -1 $-1 $969 $913 $11 $-1 $1027 forward single #
coedge $-1 -1 $-1 $992 $909 $912 $986 forward $842 $-1 #
attrib_edge_convexity-kcp-attrib $-1 -1 $1028 $-1 $910 1 #
coedge $-1 -1 $-1 $912 $911 $931 $998 forward $913 $-1 #
edge $-1 -1 $-1 $915 -25 $1029 25 $983 $1030 forward @7 unknown #
convexity-sys-attrib $-1 -1 $-1 $914 $830 #
point $-1 -1 $-1 -40 10 50 #
straight-curve $-1 -1 $-1 -40 -10 25 0 0 -1 I I #
convexity-sys-attrib $-1 -1 $-1 $920 $836 #
point $-1 -1 $-1 -28.284271247461902 10 50 #
coedge $-1 -1 $-1 $927 $983 $964 $1014 forward $842 $-1 #
edge $1031 -1 $-1 $942 -50 $953 50 $940 $1032 forward @7 unknown #
attrib_edge_convexity-kcp-attrib $-1 -1 $1033 $-1 $929 1 #
straight-curve $-1 -1 $-1 50 0 50 0 1 0 I I #
coedge $-1 -1 $-1 $972 $971 $930 $997 forward $973 $-1 #
edge $1034 -1 $-1 $1018 -10 $980 10 $996 $1035 forward @7 unknown #
edge $1036 -1 $-1 $934 -10 $1029 10 $985 $1037 forward @7 unknown #
convexity-sys-attrib $-1 -1 $-1 $933 $850 #
point $-1 -1 $-1 -40 -10 0 #
convexity-sys-attrib $-1 -1 $-1 $936 $853 #
point $-1 -1 $-1 50 50 50 #
convexity-sys-attrib $-1 -1 $-1 $944 $864 #
point $-1 -1 $-1 50 -50 50 #
straight-curve $-1 -1 $-1 -28.284271247461902 10 25 0 0 -1 I I #
attrib_edge_convexity-kcp-attrib $-1 -1 $1038 $-1 $951 1 #
straight-curve $-1 -1 $-1 -50 0 50 0 -1 0 I I #
convexity-sys-attrib $-1 -1 $-1 $952 $878 #
point $-1 -1 $-1 -50 50 50 #
convexity-sys-attrib $-1 -1 $-1 $955 $880 #
edge $-1 -1 $-1 $961 -25 $1018 25 $971 $1039 forward @7 unknown #
convexity-sys-attrib $-1 -1 $-1 $960 $888 #
point $-1 -1 $-1 40 10 50 #
edge $1040 -1 $-1 $1029 -40 $967 -28.284271247461902 $992 $1019 forward @7 unknown #
convexity-sys-attrib $-1 -1 $-1 $966 $892 #
point $-1 -1 $-1 -28.284271247461902 10 0 #
attrib_edge_convexity-kcp-attrib $-1 -1 $1041 $-1 $968 2 #
vertex $-1 -1 $-1 $997 $1042 #
straight-curve $-1 -1 $-1 0 10 0 1 0 0 I I #
model_id-kcp-attrib $-1 -1 $-1 $-1 $969 1 1021384626 1021384626 172359681 18 #
face $1043 -1 $-1 $736 $973 $11 $-1 $1044 forward single #
convexity-sys-attrib $-1 -1 $-1 $974 $902 #
straight-curve $-1 -1 $-1 40 -10 25 0 0 -1 I I #
convexity-sys-attrib $-1 -1 $-1 $979 $906 #
point $-1 -1 $-1 40 -10 0 #
model_id-kcp-attrib $-1 -1 $-1 $-1 $982 1 1021384626 1021384626 172359681 17 #
plane-surface $-1 -1 $-1 -40 0 25 1 0 0 0 0 -1 forward_v I I I I #
convexity-sys-attrib $-1 -1 $-1 $984 $910 #
vertex $-1 -1 $-1 $1014 $1045 #
straight-curve $-1 -1 $-1 -40 10 25 0 0 -1 I I #
attrib_edge_convexity-kcp-attrib $-1 -1 $1046 $-1 $993 1 #
straight-curve $-1 -1 $-1 0 50 50 -1 0 0 I I #
convexity-sys-attrib $-1 -1 $-1 $994 $929 #
attrib_edge_convexity-kcp-attrib $-1 -1 $1047 $-1 $997 2 #
straight-curve $-1 -1 $-1 40 0 0 0 -1 0 I I #
attrib_edge_convexity-kcp-attrib $-1 -1 $1048 $-1 $998 2 #
straight-curve $-1 -1 $-1 -40 0 0 0 1 0 I I #
convexity-sys-attrib $-1 -1 $-1 $1006 $951 #
straight-curve $-1 -1 $-1 40 10 25 0 0 -1 I I #
attrib_edge_convexity-kcp-attrib $-1 -1 $1049 $-1 $1014 2 #
convexity-sys-attrib $-1 -1 $-1 $1017 $968 #
point $-1 -1 $-1 40 10 0 #
model_id-kcp-attrib $-1 -1 $-1 $-1 $1021 1 1021384626 1021384626 172359681 19 #
plane-surface $-1 -1 $-1 40 0 25 -1 0 0 0 0 1 forward_v I I I I #
point $-1 -1 $-1 -40 10 0 #
convexity-sys-attrib $-1 -1 $-1 $1031 $993 #
convexity-sys-attrib $-1 -1 $-1 $1034 $997 #
convexity-sys-attrib $-1 -1 $-1 $1036 $998 #
convexity-sys-attrib $-1 -1 $-1 $1040 $1014 #
End-of-ACIS-data 