600 0 1 0           
84 GICL ACIS Healer - Source: /gicl/data5/repository/STEP/STI/mycami2/mycami2.sat - 6 0 18 ACIS 6.0.3 Solaris 24 Sun Apr 14 00:10:51 2002 
1 9.999999999999999547e-07 1.000000000000000036e-10 
body $1 $2 $-1 $3 #
attrib_gssl_step_cc1_details-attrib_gssl_step-attrib $-1 $-1 $-1 $0 $4 $5 $6 $7 $8 $9 $10 $11 $12 $13 $14 $15 $16 $17 $18 $19 $20 $21 $22 $23 $24 $25 $26 $27 $28 $29 $30 $31 $32 $33 $34 $35 #
lump $-1 $-1 $36 $0 #
transform $-1 1 0 0 0 1 0 0 0 1 0 0 0 1 no_rotate no_reflect no_shear #
attrib_gssl_step_product_details-attrib_gssl_step-attrib $-1 $-1 $-1 $-1 7 Product 9 Test Part 1 1 6 detail 6 detail #
attrib_gssl_step_application_details-attrib_gssl_step-attrib $-1 $-1 $-1 $-1 70 configuration controlled 3d designs of mechanical parts and assemblies 22 International Standard 21 config_control_design 1994 #
attrib_gssl_step_mech_con_details-attrib_gssl_step-attrib $-1 $-1 $-1 $-1 19 3D Mechanical Parts 10 mechanical #
attrib_gssl_step_des_con_details-attrib_gssl_step-attrib $-1 $-1 $-1 $-1 19 3D Mechanical Parts 6 design #
attrib_gssl_step_person_details-attrib_gssl_step-attrib $-1 $-1 $-1 $-1 1 1 9 Last Name 10 First Name 0 0 0 #
attrib_gssl_step_person_details-attrib_gssl_step-attrib $-1 $-1 $-1 $-1 1 2 9 Last Name 10 First Name 0 0 0 #
attrib_gssl_step_person_details-attrib_gssl_step-attrib $-1 $-1 $-1 $-1 1 3 9 Last Name 10 First Name 0 0 0 #
attrib_gssl_step_person_details-attrib_gssl_step-attrib $-1 $-1 $-1 $-1 1 2 9 Last Name 10 First Name 0 0 0 #
attrib_gssl_step_person_details-attrib_gssl_step-attrib $-1 $-1 $-1 $-1 1 2 9 Last Name 10 First Name 0 0 0 #
attrib_gssl_step_person_details-attrib_gssl_step-attrib $-1 $-1 $-1 $-1 1 3 9 Last Name 10 First Name 0 0 0 #
attrib_gssl_step_person_details-attrib_gssl_step-attrib $-1 $-1 $-1 $-1 1 3 9 Last Name 10 First Name 0 0 0 #
attrib_gssl_step_person_details-attrib_gssl_step-attrib $-1 $-1 $-1 $-1 1 3 9 Last Name 10 First Name 0 0 0 #
attrib_gssl_step_org_details-attrib_gssl_step-attrib $-1 $-1 $-1 $-1 3 STI 3 R&D 3 R&D 12 design_owner #
attrib_gssl_step_org_details-attrib_gssl_step-attrib $-1 $-1 $-1 $-1 3 STI 3 R&D 3 R&D 7 creator #
attrib_gssl_step_org_details-attrib_gssl_step-attrib $-1 $-1 $-1 $-1 3 STI 3 R&D 3 R&D 0  #
attrib_gssl_step_org_details-attrib_gssl_step-attrib $-1 $-1 $-1 $-1 3 STI 3 R&D 3 R&D 7 creator #
attrib_gssl_step_org_details-attrib_gssl_step-attrib $-1 $-1 $-1 $-1 3 STI 3 R&D 3 R&D 15 design_supplier #
attrib_gssl_step_org_details-attrib_gssl_step-attrib $-1 $-1 $-1 $-1 3 STI 3 R&D 3 R&D 0  #
attrib_gssl_step_org_details-attrib_gssl_step-attrib $-1 $-1 $-1 $-1 3 STI 3 R&D 3 R&D 0  #
attrib_gssl_step_org_details-attrib_gssl_step-attrib $-1 $-1 $-1 $-1 3 STI 3 R&D 3 R&D 22 classification_officer #
attrib_gssl_step_datetime_details-attrib_gssl_step-attrib $-1 $-1 $-1 $-1 1997 1 1 0 0 0 5 0 1 13 creation_date #
attrib_gssl_step_datetime_details-attrib_gssl_step-attrib $-1 $-1 $-1 $-1 1997 1 1 0 0 0 5 0 1 0  #
attrib_gssl_step_datetime_details-attrib_gssl_step-attrib $-1 $-1 $-1 $-1 1997 1 1 0 0 0 5 0 1 0  #
attrib_gssl_step_datetime_details-attrib_gssl_step-attrib $-1 $-1 $-1 $-1 1997 1 1 0 0 0 5 0 1 19 classification_date #
attrib_gssl_step_datetime_details-attrib_gssl_step-attrib $-1 $-1 $-1 $-1 1997 1 1 0 0 0 5 0 1 0  #
attrib_gssl_step_security_details-attrib_gssl_step-attrib $-1 $-1 $-1 $-1 7 Version 20 Security for version 12 unclassified #
attrib_gssl_step_approval_details-attrib_gssl_step-attrib $-1 $-1 $-1 $-1 19 Definition approval 16 not_yet_approved 19 definition approval 0  #
attrib_gssl_step_approval_details-attrib_gssl_step-attrib $-1 $-1 $-1 $-1 16 Version approval 16 not_yet_approved 16 version approval 0  #
attrib_gssl_step_approval_details-attrib_gssl_step-attrib $-1 $-1 $-1 $-1 25 Version Security approval 16 not_yet_approved 25 version security approval 0  #
attrib_gssl_step_product_def_form_details-attrib_gssl_step-attrib $-1 $-1 $-1 $-1 9 Test Part 7 Version 0 #
attrib_gssl_step_product_def_details-attrib_gssl_step-attrib $-1 $-1 $-1 $-1 9 Test Part 7 Version #
attrib_gssl_step_product_def_spec_details-attrib_gssl_step-attrib $-1 $-1 $-1 $-1 9 Test Part 7 Version #
shell $-1 $-1 $-1 $37 $-1 $2 #
face $-1 $38 $39 $36 $-1 $40 forward single #
face $-1 $41 $42 $36 $-1 $43 forward single #
loop $-1 $-1 $44 $37 #
cone-surface $-1 9 -29.17766999999999911 3 0 1 0 -1.41421356237308804 0 1.41421356237308804 1 I I 0 1 1.999999999999990008 forward I I I I #
face $-1 $45 $46 $36 $-1 $47 forward single #
loop $-1 $-1 $48 $38 #
cone-surface $-1 47 -29.17766999999999911 3 0 -1 0 1.41421356237308804 0 1.41421356237308804 1 I I 0 1 1.999999999999990008 forward I I I I #
coedge $-1 $49 $50 $51 $52 forward $39 $-1 #
face $-1 $53 $54 $36 $-1 $55 forward single #
loop $-1 $-1 $56 $41 #
torus-surface $-1 28 -45.67767000000009858 3 0 0 -1 19 2 -1 0 0 forward_v I I I I #
coedge $-1 $57 $58 $59 $60 forward $42 $-1 #
coedge $-1 $61 $44 $62 $63 reversed $39 $-1 #
coedge $-1 $44 $61 $64 $65 reversed $39 $-1 #
coedge $-1 $66 $67 $44 $52 reversed $68 $-1 #
edge $-1 $69 22.67766999999999911 $70 53.67766999999999911 $44 $71 forward 7 unknown #
face $-1 $72 $73 $36 $-1 $74 forward single #
loop $-1 $75 $76 $45 #
plane-surface $-1 7 8 5 0 0 1 1 0 0 forward_v I I I I #
coedge $-1 $77 $62 $78 $79 forward $46 $-1 #
coedge $-1 $80 $48 $77 $81 reversed $42 $-1 #
coedge $-1 $48 $80 $82 $83 reversed $42 $-1 #
coedge $-1 $84 $85 $48 $60 reversed $75 $-1 #
edge $-1 $86 -33 $87 0 $48 $88 forward 7 unknown #
coedge $-1 $50 $49 $89 $90 forward $39 $-1 #
coedge $-1 $56 $91 $49 $63 forward $46 $-1 #
edge $-1 $92 -0.785398163397448279 $70 0.785398163397448279 $49 $93 forward 7 unknown #
coedge $-1 $94 $95 $50 $65 forward $96 $-1 #
edge $-1 $69 -1.570796326794896558 $97 1.110223024625154198e-16 $50 $98 forward 7 unknown #
coedge $-1 $99 $51 $95 $100 reversed $68 $-1 #
coedge $-1 $51 $99 $101 $102 forward $68 $-1 #
loop $-1 $-1 $51 $103 #
vertex $-1 $52 $104 #
vertex $-1 $52 $105 #
straight-curve $-1 7 8 3 0 -1 0 I I #
face $-1 $106 $107 $36 $-1 $108 forward single #
loop $-1 $-1 $109 $53 #
torus-surface $-1 28 -45.67766999999999911 3 0 0 -1 11 2 -1 0 0 forward_v I I I I #
loop $-1 $-1 $89 $45 #
coedge $-1 $110 $111 $109 $112 reversed $54 $-1 #
coedge $-1 $91 $56 $57 $81 forward $46 $-1 #
coedge $-1 $101 $113 $56 $79 reversed $114 $-1 #
edge $-1 $70 -1.570796326794901443 $115 1.570796326794901443 $56 $116 forward 7 unknown #
coedge $-1 $58 $57 $117 $118 forward $42 $-1 #
edge $-1 $115 -0.785398163397448279 $87 0.785398163397448279 $57 $119 forward 7 unknown #
coedge $-1 $120 $94 $58 $83 forward $96 $-1 #
edge $-1 $86 -1.110223024625154198e-16 $121 1.570796326794896558 $58 $122 forward 7 unknown #
coedge $-1 $89 $59 $94 $123 reversed $75 $-1 #
coedge $-1 $59 $89 $91 $124 reversed $75 $-1 #
vertex $-1 $60 $125 #
vertex $-1 $60 $126 #
straight-curve $-1 47 -45.67766999999999911 5 0 -1 0 I I #
coedge $-1 $85 $84 $61 $90 reversed $75 $-1 #
edge $-1 $92 -53.67766999999999911 $97 -20.67766999999999911 $61 $127 forward 7 unknown #
coedge $-1 $62 $77 $85 $124 forward $46 $-1 #
vertex $-1 $63 $128 #
ellipse-curve $-1 9 -45.67766999999999911 3 -5.045793573318350145e-15 -1 -3.944304526105058151e-31 -1.41421356237308804 7.135829704321775935e-15 1.41421356237308804 1 I I #
coedge $-1 $82 $64 $84 $123 forward $96 $-1 #
coedge $-1 $64 $129 $66 $100 forward $96 $-1 #
loop $-1 $-1 $120 $130 #
vertex $-1 $90 $131 #
ellipse-curve $-1 9 -14.67767000000000088 3 1.848892746611746693e-32 0.707106781186549016 -0.7071067811865461294 -2.22044604925030815e-16 1.999999999999988898 1.999999999999997113 0.7071067811865500152 I I #
coedge $-1 $67 $66 $132 $133 reversed $68 $-1 #
edge $-1 $134 -3.902705563388374266 $69 0.3399351237309097273 $66 $135 forward 7 unknown #
coedge $-1 $136 $78 $67 $102 reversed $114 $-1 #
edge $-1 $137 0 $70 3 $67 $138 forward 7 unknown #
face $-1 $139 $68 $36 $-1 $140 forward single #
point $-1 7 -14.67767000000000088 3 #
point $-1 7 -45.67766999999999911 3 #
face $-1 $141 $142 $36 $-1 $143 forward single #
loop $-1 $-1 $144 $72 #
cone-surface $-1 39 -36.67766999999999911 3 0 -1 0 -1.41421356237308804 0 1.41421356237308804 1 I I 0 1 1.999999999999990008 forward I I I I #
coedge $-1 $145 $146 $76 $112 forward $73 $-1 #
coedge $-1 $147 $76 $148 $149 reversed $54 $-1 #
coedge $-1 $76 $147 $144 $150 reversed $54 $-1 #
edge $-1 $151 -1.570796326794896558 $152 1.570796326794896558 $76 $153 forward 7 unknown #
coedge $-1 $78 $136 $154 $155 forward $114 $-1 #
loop $-1 $-1 $78 $156 #
vertex $-1 $81 $157 #
ellipse-curve $-1 28 -45.67767000000009858 3 0 0 1 0 -21 0 1 I I #
coedge $-1 $154 $158 $80 $118 reversed $159 $-1 #
edge $-1 $115 0 $121 31 $80 $160 forward 7 unknown #
ellipse-curve $-1 47 -45.67766999999999911 3 5.045793573318350145e-15 -1 -3.944304526105058151e-31 1.41421356237308804 7.135829704321775935e-15 1.41421356237308804 1 I I #
coedge $-1 $161 $82 $158 $162 forward $96 $-1 #
vertex $-1 $118 $163 #
ellipse-curve $-1 47 -14.67767000000000088 3 -1.848892746611746693e-32 0.707106781186549016 -0.7071067811865461294 2.22044604925030815e-16 1.999999999999988898 1.999999999999997113 0.7071067811865500152 I I #
edge $-1 $97 -8.5 $86 29.5 $84 $164 forward 7 unknown #
edge $-1 $87 -1.570796326794901887 $92 1.570796326794901887 $91 $165 forward 7 unknown #
point $-1 47 -12.67767000000000088 5 #
point $-1 47 -45.67766999999999911 5 #
straight-curve $-1 9 8 5 0 1 0 I I #
point $-1 9 -45.67766999999999911 5 #
coedge $-1 $95 $166 $167 $168 reversed $96 $-1 #
face $-1 $169 $96 $36 $-1 $170 forward single #
point $-1 9 -12.67767000000000088 5 #
coedge $-1 $167 $171 $99 $133 forward $172 $-1 #
edge $-1 $137 3.820621335889903492 $134 31.82062133588990349 $99 $173 forward 7 unknown #
vertex $-1 $100 $174 #
straight-curve $-1 7 -14.91804043115359946 2.759629568846369896 0 0.7071067811865460184 0.707106781186549016 I I #
coedge $-1 $113 $101 $171 $175 reversed $114 $-1 #
vertex $-1 $133 $176 #
straight-curve $-1 7 -45.67766999999999911 0 0 0 1 I I #
face $-1 $156 $159 $36 $-1 $177 forward single #
plane-surface $-1 7 -45.67766999999999911 0 -1 0 0 0 -0 1 forward_v I I I I #
face $-1 $178 $179 $36 $-1 $180 forward single #
loop $-1 $-1 $181 $106 #
cone-surface $-1 17 -36.67766999999999911 3 0 1 0 1.41421356237308804 0 1.41421356237308804 1 I I 0 1 1.999999999999990008 forward I I I I #
coedge $-1 $182 $183 $111 $150 forward $107 $-1 #
coedge $-1 $184 $109 $183 $185 reversed $73 $-1 #
coedge $-1 $109 $184 $186 $187 reversed $73 $-1 #
coedge $-1 $111 $110 $188 $189 reversed $54 $-1 #
coedge $-1 $186 $190 $110 $149 forward $142 $-1 #
edge $-1 $191 8.838834999999999553 $151 26.83883499999999955 $110 $192 forward 7 unknown #
edge $-1 $152 -35.83883500000000311 $193 -17.83883499999999955 $111 $194 forward 7 unknown #
vertex $-1 $112 $195 #
vertex $-1 $112 $196 #
ellipse-curve $-1 28 -45.67766999999999911 5 0 0 1 0 -11 0 1 I I #
coedge $-1 $197 $117 $113 $155 reversed $159 $-1 #
edge $-1 $198 0 $115 3 $154 $199 forward 7 unknown #
face $-1 $200 $114 $36 $-1 $201 forward single #
point $-1 49 -45.67766999999999911 3 #
coedge $-1 $117 $197 $120 $162 reversed $159 $-1 #
loop $-1 $-1 $117 $139 #
straight-curve $-1 49 -45.67766999999999911 3 0 1 0 I I #
coedge $-1 $202 $120 $203 $204 reversed $96 $-1 #
edge $-1 $121 18.63798710391590774 $205 22.88062779103519162 $158 $206 forward 7 unknown #
point $-1 49 -14.67767000000000088 3 #
straight-curve $-1 17.5 -12.67767000000000088 5 1 0 0 I I #
ellipse-curve $-1 28 -45.67767000000009858 5 0 0 -1 0 -19 0 1 I I #
coedge $-1 $129 $207 $208 $209 forward $96 $-1 #
coedge $-1 $210 $132 $129 $168 forward $172 $-1 #
edge $-1 $134 7 $211 14 $167 $212 forward 7 unknown #
face $-1 $213 $214 $36 $-1 $215 forward single #
plane-surface $-1 28 1.841589137692680067 19.51925913769269982 0 -0.707106781186549016 0.7071067811865460184 1 0 -0 forward_v I I I I #
coedge $-1 $132 $216 $136 $175 forward $172 $-1 #
loop $-1 $-1 $216 $200 #
straight-curve $-1 7 -49.4982913358899026 0 0 1 0 I I #
point $-1 7 -17.67766999999999911 0 #
edge $-1 $198 -1.570796326794901443 $137 1.570796326794901443 $136 $217 forward 7 unknown #
point $-1 7 -45.67766999999999911 0 #
plane-surface $-1 49 8 0 1 0 0 0 0 -1 forward_v I I I I #
face $-1 $218 $219 $36 $-1 $220 reversed single #
loop $-1 $-1 $188 $141 #
torus-surface $-1 28 -27.67766999999999911 3 0 0 -1 11 2 -1 0 0 forward_v I I I I #
coedge $-1 $190 $186 $221 $222 forward $142 $-1 #
coedge $-1 $223 $144 $224 $225 reversed $107 $-1 #
coedge $-1 $144 $223 $145 $185 forward $107 $-1 #
coedge $-1 $146 $145 $226 $227 forward $73 $-1 #
edge $-1 $228 -0.785398163397448279 $152 0.785398163397448279 $145 $229 forward 7 unknown #
coedge $-1 $181 $148 $146 $187 forward $142 $-1 #
edge $-1 $151 -0.785398163397448279 $230 0.785398163397448279 $146 $231 forward 7 unknown #
coedge $-1 $232 $224 $147 $189 forward $179 $-1 #
edge $-1 $193 -1.570796326794896558 $191 1.570796326794896558 $147 $233 forward 7 unknown #
coedge $-1 $148 $181 $232 $234 reversed $142 $-1 #
vertex $-1 $149 $235 #
straight-curve $-1 17 -18.83883499999999955 5 0 -1 0 I I #
vertex $-1 $189 $236 #
straight-curve $-1 39 -9.838834999999999553 5 0 1 0 I I #
point $-1 17 -45.67766999999999911 5 #
point $-1 39 -45.67766999999999911 5 #
coedge $-1 $158 $154 $216 $237 reversed $159 $-1 #
vertex $-1 $155 $238 #
straight-curve $-1 49 -45.67766999999999911 0 0 0 1 I I #
face $-1 $239 $172 $36 $-1 $240 forward single #
cone-surface $-1 28 -45.67767000000009858 0 0 0 1 0 -21 0 1 I I 0 1 21 forward I I I I #
coedge $-1 $207 $161 $241 $242 forward $96 $-1 #
coedge $-1 $216 $243 $161 $204 forward $172 $-1 #
edge $-1 $244 -42 $205 -35 $203 $212 forward 7 unknown #
vertex $-1 $237 $245 #
straight-curve $-1 49 -1.49862293115368006 16.1790470688464012 0 -0.7071067811865460184 -0.707106781186549016 I I #
coedge $-1 $166 $202 $246 $247 forward $96 $-1 #
coedge $-1 $248 $249 $166 $209 reversed $250 $-1 #
edge $-1 $251 -0 $211 56.29397674951740527 $166 $252 forward 7 unknown #
coedge $-1 $253 $167 $254 $255 forward $172 $-1 #
vertex $-1 $168 $256 #
straight-curve $-1 14 -17.67766999999999911 0 -1 0 0 I I #
face $-1 $257 $250 $36 $-1 $258 forward single #
loop $-1 $-1 $259 $169 #
plane-surface $-1 56 -17.67766999999999911 0 0.9807230753239211118 0.1381706364014989308 0.13817063640149993 0.1395087430775286963 0 -0.9902208393105691453 forward_v I I I I #
coedge $-1 $171 $203 $197 $237 forward $172 $-1 #
ellipse-curve $-1 28 -45.67767000000009858 0 0 0 -1 0 -21 0 1 I I #
face $-1 $260 $261 $36 $-1 $262 reversed single #
loop $-1 $-1 $221 $178 #
plane-surface $-1 19 -45.67766999999999911 -5 -1 0 0 0 -0 1 forward_v I I I I #
coedge $-1 $263 $264 $181 $222 reversed $219 $-1 #
edge $-1 $230 -26.83883499999999955 $265 -8.838834999999999553 $181 $266 forward 7 unknown #
coedge $-1 $183 $182 $267 $268 forward $107 $-1 #
coedge $-1 $188 $269 $182 $225 forward $179 $-1 #
edge $-1 $270 -0.785398163397448279 $193 0.785398163397448279 $182 $271 forward 7 unknown #
coedge $-1 $272 $273 $184 $227 reversed $261 $-1 #
edge $-1 $228 -1.570796326794896558 $230 1.570796326794896558 $184 $274 forward 7 unknown #
vertex $-1 $185 $275 #
ellipse-curve $-1 39 -45.67766999999999911 3 0 1 0 -1.41421356237308804 0 1.41421356237308804 1 I I #
vertex $-1 $227 $276 #
ellipse-curve $-1 17 -45.67766999999999911 3 0 1 0 1.41421356237308804 0 1.41421356237308804 1 I I #
coedge $-1 $269 $188 $190 $234 forward $179 $-1 #
ellipse-curve $-1 28 -27.67766999999999911 5 0 0 1 0 11 0 1 I I #
edge $-1 $191 -0.785398163397448279 $265 0.785398163397448279 $190 $277 forward 7 unknown #
point $-1 17 -27.67766999999999911 5 #
point $-1 39 -27.67766999999999911 5 #
edge $-1 $205 -4.981786335889900386 $198 23.01821366411009961 $197 $278 forward 7 unknown #
point $-1 49 -45.67766999999999911 0 #
face $-1 $279 $280 $36 $-1 $281 forward single #
plane-surface $-1 28 -53.31891267177979898 0 0 0 1 1 0 0 forward_v I I I I #
coedge $-1 $282 $283 $202 $242 reversed $214 $-1 #
edge $-1 $244 0 $284 56.29397674951740527 $202 $285 forward 7 unknown #
coedge $-1 $203 $286 $287 $288 forward $172 $-1 #
vertex $-1 $289 $290 #
point $-1 49 -17.67766999999999911 0 #
coedge $-1 $291 $292 $207 $247 reversed $293 $-1 #
edge $-1 $284 0.823033698123779911 $251 2.318558955466013316 $246 $294 forward 7 unknown #
coedge $-1 $295 $208 $292 $296 forward $250 $-1 #
coedge $-1 $208 $295 $297 $298 reversed $250 $-1 #
loop $-1 $-1 $295 $213 #
vertex $-1 $296 $299 #
straight-curve $-1 11 21.36084827538540054 39.03851827538549912 -0.1954027879207219931 -0.693475937027668965 -0.6934759370276709634 I I #
coedge $-1 $300 $210 $301 $302 forward $172 $-1 #
coedge $-1 $297 $303 $210 $255 reversed $304 $-1 #
edge $-1 $211 17.67766999999999911 $305 67.67767000000000621 $210 $306 forward 7 unknown #
point $-1 0 -17.67766999999999911 0 #
face $-1 $307 $308 $36 $-1 $309 reversed single #
plane-surface $-1 11 21.36084827538540054 39.03851827538549912 -0.9807230753239211118 0.1381706364014989308 0.13817063640149993 0.1395087430775286963 -0 0.9902208393105691453 forward_v I I I I #
coedge $-1 $283 $282 $310 $311 forward $214 $-1 #
face $-1 $312 $313 $36 $-1 $314 forward single #
loop $-1 $-1 $226 $218 #
cone-surface $-1 28 -45.67766999999999911 -5 0 0 1 0 -9 0 1 I I 0 1 9 forward I I I I #
coedge $-1 $315 $221 $273 $316 reversed $219 $-1 #
coedge $-1 $221 $315 $317 $318 forward $219 $-1 #
vertex $-1 $222 $319 #
straight-curve $-1 19 -18.83883499999999955 3 0 1 0 I I #
coedge $-1 $320 $321 $223 $268 reversed $322 $-1 #
edge $-1 $270 17.83883499999999955 $228 35.83883500000000311 $223 $323 forward 7 unknown #
coedge $-1 $224 $232 $324 $325 forward $179 $-1 #
vertex $-1 $225 $326 #
ellipse-curve $-1 39 -27.67766999999999911 3 -6.123233995736768501e-17 1 -6.162975822039153361e-33 -1.41421356237308804 -8.659560562354894648e-17 1.41421356237308804 1 I I #
coedge $-1 $327 $226 $321 $328 reversed $261 $-1 #
coedge $-1 $226 $327 $263 $316 forward $261 $-1 #
ellipse-curve $-1 28 -45.67766999999999911 3 0 0 -1 0 -9 0 1 I I #
point $-1 37 -45.67766999999999911 3 #
point $-1 19 -45.67766999999999911 3 #
ellipse-curve $-1 17 -27.67766999999999911 3 6.123233995736768501e-17 1 -6.162975822039153361e-33 1.41421356237308804 -8.659560562354894648e-17 1.41421356237308804 1 I I #
straight-curve $-1 49 -22.65945633588989949 0 0 -1 0 I I #
face $-1 $329 $330 $36 $-1 $331 forward single #
loop $-1 $332 $333 $239 #
cone-surface $-1 28 43.16116459272129902 43.16116506305780121 0 -0.707106781186549016 0.7071067811865460184 25 0 0 1 I I 0 1 25 forward I I I I #
coedge $-1 $259 $241 $334 $289 reversed $214 $-1 #
coedge $-1 $241 $259 $291 $335 forward $214 $-1 #
vertex $-1 $247 $336 #
straight-curve $-1 56 -17.67766999999999911 0 -0.1954027879207219931 0.693475937027668965 0.6934759370276709634 I I #
coedge $-1 $243 $300 $337 $338 forward $172 $-1 #
coedge $-1 $339 $334 $243 $288 reversed $340 $-1 #
edge $-1 $341 0 $244 50.00000000000000711 $287 $342 forward 7 unknown #
edge $-1 $343 -42.67767019481961199 $244 -17.67766952966368876 $334 $344 forward 7 unknown #
point $-1 56 -17.67766999999999911 0 #
coedge $-1 $345 $246 $283 $335 reversed $293 $-1 #
coedge $-1 $246 $345 $248 $296 reversed $293 $-1 #
loop $-1 $-1 $292 $239 #
ellipse-curve $-1 28 34.32232982788949727 51.99999982788960295 0 0.707106781186549016 -0.7071067811865460184 25 0 0 1 I I #
coedge $-1 $249 $248 $346 $347 forward $250 $-1 #
edge $-1 $251 0 $348 25.00000000000002132 $292 $349 forward 7 unknown #
coedge $-1 $350 $254 $249 $298 forward $304 $-1 #
edge $-1 $211 -6.250000166288997683 $351 18.75000049886692111 $249 $352 forward 7 unknown #
point $-1 11 21.36084827538540054 39.03851827538549912 #
coedge $-1 $286 $253 $353 $354 forward $172 $-1 #
coedge $-1 $355 $356 $253 $302 reversed $357 $-1 #
edge $-1 $305 -0.785398163397448279 $358 0.7853981633974499443 $253 $359 forward 7 unknown #
coedge $-1 $254 $360 $355 $361 reversed $304 $-1 #
loop $-1 $-1 $360 $307 #
vertex $-1 $255 $362 #
straight-curve $-1 0 0 0 0 -1 0 I I #
face $-1 $363 $304 $36 $-1 $364 forward single #
loop $-1 $-1 $365 $257 #
plane-surface $-1 56 -4.703362783686769795e-07 -17.67766952966369942 0 -0.707106781186549016 0.7071067811865460184 1 0 -0 forward_v I I I I #
coedge $-1 $366 $365 $259 $311 reversed $308 $-1 #
edge $-1 $343 5.420187080534668738e-14 $367 56.29397674951738395 $259 $368 forward 7 unknown #
face $-1 $369 $370 $36 $-1 $371 forward single #
loop $-1 $-1 $372 $260 #
cone-surface $-1 8.729274057836299505 -71.67767000000000621 -23 1 0 0 0 -1.41421356237308804 -1.41421356237308804 1 I I 0 1 1.999999999999990008 forward I I I I #
coedge $-1 $264 $263 $373 $374 reversed $219 $-1 #
edge $-1 $375 0 $230 8 $263 $376 forward 7 unknown #
coedge $-1 $377 $324 $264 $318 reversed $378 $-1 #
edge $-1 $379 0 $265 8 $264 $380 forward 7 unknown #
point $-1 19 -27.67766999999999911 3 #
coedge $-1 $381 $267 $382 $383 reversed $322 $-1 #
coedge $-1 $267 $381 $272 $328 forward $322 $-1 #
loop $-1 $-1 $267 $384 #
straight-curve $-1 37 -9.838834999999999553 3 0 -1 0 I I #
coedge $-1 $317 $382 $269 $325 reversed $378 $-1 #
edge $-1 $265 -1.570796326794896558 $270 1.570796326794896558 $269 $385 forward 7 unknown #
point $-1 37 -27.67766999999999911 3 #
coedge $-1 $273 $272 $386 $387 reversed $261 $-1 #
edge $-1 $388 0 $228 8 $272 $389 forward 7 unknown #
face $-1 $390 $391 $36 $-1 $331 forward single #
loop $-1 $-1 $392 $279 #
plane-surface $-1 28 35.73654339026249716 57.65685407738200041 0 -0.7071067811865460184 -0.707106781186549016 -1 0 -0 forward_v I I I I #
loop $-1 $293 $393 $239 #
coedge $-1 $333 $333 $394 $395 reversed $280 $-1 #
coedge $-1 $287 $396 $282 $289 forward $340 $-1 #
edge $-1 $367 -25.00000000000002132 $284 -0 $291 $397 reversed 7 unknown #
point $-1 45 21.36084827538540054 39.03851827538549912 #
coedge $-1 $398 $399 $286 $338 reversed $400 $-1 #
edge $-1 $401 -0.785398163397448279 $341 0.785398163397448279 $337 $402 forward 7 unknown #
coedge $-1 $403 $287 $399 $404 forward $340 $-1 #
loop $-1 $-1 $403 $405 #
vertex $-1 $404 $406 #
straight-curve $-1 56 -67.67767000000000621 0 0 1 0 I I #
vertex $-1 $407 $408 #
straight-curve $-1 56 -30.17766999999999911 12.5 0 -0.707106781186549016 0.7071067811865460184 I I #
coedge $-1 $292 $291 $365 $409 reversed $293 $-1 #
coedge $-1 $365 $366 $295 $347 reversed $308 $-1 #
edge $-1 $348 -0 $351 56.29397674951734132 $295 $410 forward 7 unknown #
vertex $-1 $296 $411 #
straight-curve $-1 11 21.36084827538540054 39.03851827538549912 0 0.707106781186549016 -0.7071067811865460184 I I #
coedge $-1 $360 $297 $412 $413 forward $304 $-1 #
vertex $-1 $413 $414 #
straight-curve $-1 0 -13.25825249999999933 -4.419417499999999777 0 0.707106781186549016 -0.7071067811865460184 I I #
coedge $-1 $415 $416 $300 $354 reversed $417 $-1 #
edge $-1 $358 0 $401 44 $353 $418 forward 7 unknown #
coedge $-1 $419 $301 $303 $361 forward $357 $-1 #
coedge $-1 $301 $419 $415 $420 reversed $357 $-1 #
loop $-1 $-1 $419 $421 #
vertex $-1 $354 $422 #
ellipse-curve $-1 5.99999999999999023 -67.67767000000000621 0 0 0 1 -4.242640687119278553 -4.242640687119278553 0 1 I I #
coedge $-1 $303 $350 $423 $424 reversed $304 $-1 #
edge $-1 $305 0 $425 23 $303 $426 forward 7 unknown #
point $-1 0 -67.67767000000000621 0 #
face $-1 $427 $428 $36 $-1 $429 reversed single #
plane-surface $-1 0 0 0 -1 0 0 0 -0 1 forward_v I I I I #
coedge $-1 $310 $346 $345 $409 forward $308 $-1 #
coedge $-1 $346 $310 $430 $407 reversed $308 $-1 #
vertex $-1 $335 $431 #
straight-curve $-1 56 -4.703362783686769795e-07 -17.67766952966369942 -0.1954027879207219931 0.693475937027668965 0.6934759370276709634 I I #
face $-1 $432 $433 $36 $-1 $434 forward single #
loop $-1 $-1 $435 $312 #
torus-surface $-1 5.99999999999999023 -67.67767000000000621 -23 0 0 1 3.999999999999989786 2 1 0 0 forward_v I I I I #
coedge $-1 $436 $437 $438 $439 forward $313 $-1 #
coedge $-1 $386 $440 $315 $374 forward $441 $-1 #
edge $-1 $379 0 $375 18 $315 $442 forward 7 unknown #
vertex $-1 $316 $443 #
straight-curve $-1 19 -45.67766999999999911 -5 0 0 1 I I #
coedge $-1 $382 $317 $440 $444 reversed $378 $-1 #
loop $-1 $-1 $324 $445 #
vertex $-1 $374 $446 #
straight-curve $-1 19 -27.67766999999999911 -5 0 0 1 I I #
coedge $-1 $321 $320 $447 $448 reversed $322 $-1 #
coedge $-1 $324 $377 $320 $383 forward $378 $-1 #
edge $-1 $449 0 $270 8 $382 $450 forward 7 unknown #
face $-1 $451 $322 $36 $-1 $452 reversed single #
ellipse-curve $-1 28 -27.67766999999999911 3 0 0 -1 0 9 0 1 I I #
coedge $-1 $447 $373 $327 $387 forward $441 $-1 #
edge $-1 $375 -1.570796326794896558 $388 1.570796326794896558 $327 $453 forward 7 unknown #
vertex $-1 $328 $454 #
straight-curve $-1 37 -45.67766999999999911 -5 0 0 1 I I #
face $-1 $455 $456 $36 $-1 $457 forward single #
loop $-1 $-1 $458 $329 #
coedge $-1 $459 $460 $461 $462 reversed $330 $-1 #
coedge $-1 $463 $464 $465 $466 forward $332 $-1 #
coedge $-1 $394 $394 $333 $395 forward $467 $-1 #
edge $-1 $468 0 $468 6.283185307179586232 $333 $469 forward 7 unknown #
coedge $-1 $334 $403 $470 $471 reversed $340 $-1 #
straight-curve $-1 45 21.36084827538540054 39.03851827538549912 0 0.707106781186549016 -0.7071067811865460184 I I #
coedge $-1 $472 $337 $416 $473 forward $400 $-1 #
coedge $-1 $337 $472 $339 $404 reversed $400 $-1 #
loop $-1 $-1 $472 $474 #
vertex $-1 $473 $475 #
ellipse-curve $-1 50 -67.67767000000000621 0 0 0 1 4.242640687119278553 -4.242640687119278553 0 1 I I #
coedge $-1 $396 $339 $476 $477 reversed $340 $-1 #
edge $-1 $341 0 $478 23 $399 $479 forward 7 unknown #
face $-1 $445 $340 $36 $-1 $480 forward single #
point $-1 56 -67.67767000000000621 0 #
edge $-1 $351 -28 $343 28 $430 $481 forward 7 unknown #
point $-1 56 0 -17.67766999999989963 #
edge $-1 $348 -2.31855895546601154 $367 -0.8230336981237817984 $345 $482 forward 7 unknown #
straight-curve $-1 11 39.03851780504910352 21.3608487457217997 -0.1954027879207219931 -0.693475937027668965 -0.6934759370276709634 I I #
point $-1 11 39.03851780504910352 21.3608487457217997 #
coedge $-1 $430 $483 $350 $413 reversed $484 $-1 #
edge $-1 $351 17.67766999999989963 $485 23 $412 $486 forward 7 unknown #
point $-1 0 0 -17.67766999999989963 #
coedge $-1 $438 $353 $356 $420 forward $417 $-1 #
coedge $-1 $353 $487 $398 $473 reversed $417 $-1 #
loop $-1 $-1 $438 $488 #
straight-curve $-1 6 -73.67767000000000621 0 1 0 0 I I #
coedge $-1 $356 $355 $435 $489 reversed $357 $-1 #
edge $-1 $358 0 $490 23 $415 $491 forward 7 unknown #
face $-1 $-1 $357 $36 $-1 $492 forward single #
point $-1 6 -73.67767000000000621 0 #
coedge $-1 $493 $494 $360 $424 forward $433 $-1 #
edge $-1 $425 -67.67767000000000621 $485 0 $423 $495 forward 7 unknown #
vertex $-1 $489 $496 #
straight-curve $-1 0 -67.67767000000000621 0 0 0 -1 I I #
face $-1 $497 $498 $36 $-1 $499 forward single #
loop $-1 $-1 $500 $363 #
plane-surface $-1 40.5 -80 -18 0.8660254037844380415 0 0.5000000000000009992 0.5000000000000009992 0 -0.8660254037844380415 forward_v I I I I #
coedge $-1 $470 $412 $366 $407 forward $484 $-1 #
point $-1 45 39.03851780504910352 21.3608487457217997 #
face $-1 $501 $502 $36 $-1 $503 reversed single #
loop $-1 $-1 $423 $369 #
cone-surface $-1 2 -33.83883500000000311 -23 0 -1 -0 -1.41421356237308804 0 -1.41421356237308804 1 I I 0 1 1.999999999999990008 forward I I I I #
coedge $-1 $504 $505 $419 $489 forward $370 $-1 #
coedge $-1 $506 $372 $505 $507 reversed $313 $-1 #
coedge $-1 $372 $506 $508 $509 forward $313 $-1 #
coedge $-1 $510 $415 $372 $439 reversed $417 $-1 #
edge $-1 $511 -6.613248654051899322 $490 0 $372 $512 forward 7 unknown #
coedge $-1 $373 $447 $377 $444 forward $441 $-1 #
loop $-1 $-1 $373 $451 #
straight-curve $-1 19 -27.67766999999999911 -5 0 -1 0 I I #
point $-1 19 -45.67766999999999911 -5 #
edge $-1 $449 -1.570796326794896558 $379 1.570796326794896558 $377 $513 forward 7 unknown #
face $-1 $384 $378 $36 $-1 $514 reversed single #
point $-1 19 -27.67766999999999911 -5 #
coedge $-1 $440 $386 $381 $448 forward $441 $-1 #
edge $-1 $388 0 $449 18 $381 $515 forward 7 unknown #
vertex $-1 $444 $516 #
straight-curve $-1 37 -27.67766999999999911 -5 0 0 1 I I #
face $-1 $103 $441 $36 $-1 $517 forward single #
plane-surface $-1 37 -27.67766999999999911 -5 1 0 0 0 0 -1 forward_v I I I I #
ellipse-curve $-1 28 -45.67766999999999911 -5 0 0 1 0 -9 0 1 I I #
point $-1 37 -45.67766999999999911 -5 #
face $-1 $518 $519 $36 $-1 $520 forward single #
loop $-1 $-1 $521 $390 #
plane-surface $-1 28 28.66547557839709981 50.58578626551649648 0 0.7071067811865460184 0.707106781186549016 1 0 0 forward_v I I I I #
coedge $-1 $522 $523 $524 $525 reversed $391 $-1 #
coedge $-1 $526 $392 $527 $528 reversed $330 $-1 #
coedge $-1 $392 $526 $529 $530 forward $330 $-1 #
coedge $-1 $531 $532 $392 $462 forward $533 $-1 #
edge $-1 $534 -16.50000000000002132 $535 -10.5 $392 $536 forward 7 unknown #
coedge $-1 $537 $393 $538 $539 reversed $332 $-1 #
coedge $-1 $393 $540 $541 $542 forward $332 $-1 #
coedge $-1 $543 $544 $393 $466 reversed $545 $-1 #
edge $-1 $546 10.5 $547 16.50000000000002132 $393 $548 forward 7 unknown #
loop $-1 $-1 $394 $549 #
vertex $-1 $395 $550 #
ellipse-curve $-1 28 54.82842648229939897 31.49390317347980073 0 0.707106781186549016 -0.7071067811865460184 25 0 0 1 I I #
coedge $-1 $551 $430 $396 $471 forward $484 $-1 #
edge $-1 $343 17.67766999999989963 $552 23 $470 $553 forward 7 unknown #
coedge $-1 $399 $398 $554 $555 reversed $400 $-1 #
edge $-1 $401 0 $556 23 $416 $557 forward 7 unknown #
face $-1 $405 $400 $36 $-1 $558 forward single #
point $-1 50 -73.67767000000000621 0 #
coedge $-1 $559 $560 $403 $477 forward $561 $-1 #
edge $-1 $552 -67.67767000000000621 $478 0 $476 $562 forward 7 unknown #
vertex $-1 $563 $564 #
straight-curve $-1 56 -67.67767000000000621 0 0 0 -1 I I #
plane-surface $-1 56 -67.67767000000000621 0 1 0 0 0 0 -1 forward_v I I I I #
straight-curve $-1 28 0 -17.67766999999989963 1 0 0 I I #
ellipse-curve $-1 28 51.99999935755320024 34.32233029822599946 0 -0.707106781186549016 0.7071067811865460184 25 0 0 1 I I #
coedge $-1 $412 $565 $493 $566 reversed $484 $-1 #
loop $-1 $-1 $483 $501 #
vertex $-1 $424 $567 #
straight-curve $-1 0 0 0 0 0 -1 I I #
coedge $-1 $416 $568 $569 $570 reversed $417 $-1 #
face $-1 $474 $417 $36 $-1 $571 forward single #
edge $-1 $490 -0.7853981633974499443 $425 0.785398163397448279 $435 $572 forward 7 unknown #
vertex $-1 $439 $573 #
straight-curve $-1 6 -73.67767000000000621 0 0 0 -1 I I #
cone-surface $-1 5.99999999999999023 -67.67767000000000621 0 -0 0 -1 -4.242640687119278553 -4.242640687119278553 0 1 I I 0 1 5.99999999999999023 forward I I I I #
coedge $-1 $574 $423 $483 $566 forward $433 $-1 #
coedge $-1 $423 $574 $504 $575 forward $433 $-1 #
straight-curve $-1 0 0 -23 0 1 0 I I #
point $-1 0 -67.67767000000000621 -23 #
face $-1 $576 $577 $36 $-1 $578 reversed single #
loop $-1 $-1 $579 $427 #
plane-surface $-1 28 -39.5 -18 0 0 -1 -1 0 0 forward_v I I I I #
coedge $-1 $580 $581 $582 $583 reversed $428 $-1 #
face $-1 $584 $484 $36 $-1 $585 forward single #
loop $-1 $-1 $586 $432 #
plane-surface $-1 0 -67.67767000000000621 -25 0 0 1 1 0 0 forward_v I I I I #
coedge $-1 $587 $435 $494 $575 reversed $370 $-1 #
coedge $-1 $435 $587 $436 $507 forward $370 $-1 #
coedge $-1 $437 $436 $586 $588 forward $313 $-1 #
edge $-1 $589 -0.785398163397448279 $490 0.785398163397448279 $436 $590 forward 7 unknown #
coedge $-1 $591 $592 $437 $509 reversed $577 $-1 #
edge $-1 $593 -1.110223024625153952e-16 $511 1.570796326794896558 $437 $594 forward 7 unknown #
coedge $-1 $595 $438 $592 $596 forward $417 $-1 #
vertex $-1 $439 $597 #
straight-curve $-1 6 -73.67767000000000621 -23 -1 0 0 I I #
ellipse-curve $-1 28 -27.67766999999999911 -5 0 0 1 0 9 0 1 I I #
cone-surface $-1 28 -27.67766999999999911 -5 0 0 1 0 9 0 1 I I 0 1 9 forward I I I I #
straight-curve $-1 37 -45.67766999999999911 -5 0 1 0 I I #
point $-1 37 -27.67766999999999911 -5 #
plane-surface $-1 28 -36.67766999999999911 -5 0 0 1 1 0 0 forward_v I I I I #
face $-1 $598 $599 $36 $-1 $520 forward single #
loop $-1 $-1 $600 $455 #
plane-surface $-1 28 35.73654339026259663 50.58578626551649648 0 -0.707106781186549016 0.7071067811865460184 1 0 -0 forward_v I I I I #
coedge $-1 $601 $602 $603 $604 reversed $456 $-1 #
coedge $-1 $605 $458 $606 $607 forward $391 $-1 #
coedge $-1 $458 $605 $608 $609 reversed $391 $-1 #
coedge $-1 $532 $610 $458 $525 forward $533 $-1 #
edge $-1 $611 10.5 $612 16.50000000000002132 $458 $613 forward 7 unknown #
coedge $-1 $460 $459 $614 $615 reversed $330 $-1 #
coedge $-1 $616 $617 $459 $528 forward $618 $-1 #
edge $-1 $619 -24.49489742783178059 $534 -15.19868415357069935 $459 $620 forward 7 unknown #
coedge $-1 $621 $600 $460 $530 reversed $519 $-1 #
edge $-1 $622 -24.49489742783178059 $535 -15.19868415357069935 $460 $623 forward 7 unknown #
coedge $-1 $603 $461 $600 $624 forward $533 $-1 #
coedge $-1 $461 $524 $616 $625 reversed $533 $-1 #
loop $-1 $626 $627 $628 #
vertex $-1 $462 $629 #
vertex $-1 $462 $630 #
straight-curve $-1 12.80131584642930065 46.69669849865410072 46.69669896899060291 0 0.707106781186549016 -0.7071067811865460184 I I #
coedge $-1 $631 $463 $632 $633 forward $332 $-1 #
coedge $-1 $634 $635 $463 $539 forward $636 $-1 #
edge $-1 $637 -2.940234732799461792 $547 -0.2013579207903312962 $463 $638 forward 7 unknown #
coedge $-1 $464 $639 $605 $640 forward $332 $-1 #
coedge $-1 $606 $641 $464 $542 reversed $599 $-1 #
edge $-1 $642 -0.2013579207903314072 $546 0.2013579207903310186 $464 $643 forward 7 unknown #
coedge $-1 $644 $465 $641 $645 forward $545 $-1 #
coedge $-1 $465 $644 $634 $646 reversed $545 $-1 #
loop $-1 $-1 $644 $598 #
vertex $-1 $466 $647 #
vertex $-1 $466 $648 #
straight-curve $-1 52.49489742783180191 39.62563068678859679 39.62563115712509898 0 -0.707106781186549016 0.7071067811865460184 I I #
face $-1 $649 $650 $36 $-1 $651 forward single #
point $-1 53 54.82842648229939897 31.49390317347980073 #
coedge $-1 $652 $470 $560 $653 reversed $484 $-1 #
vertex $-1 $471 $654 #
straight-curve $-1 56 0 0 0 0 -1 I I #
coedge $-1 $655 $656 $472 $555 forward $657 $-1 #
edge $-1 $478 -0.785398163397448279 $556 0.785398163397448279 $554 $658 forward 7 unknown #
vertex $-1 $659 $660 #
straight-curve $-1 50 -73.67767000000000621 0 0 0 -1 I I #
cone-surface $-1 50 -67.67767000000000621 0 0 0 -1 4.242640687119278553 -4.242640687119278553 0 1 I I 0 1 5.99999999999999023 forward I I I I #
coedge $-1 $661 $476 $656 $563 forward $561 $-1 #
coedge $-1 $476 $661 $551 $653 forward $561 $-1 #
loop $-1 $-1 $476 $662 #
straight-curve $-1 56 -67.67767000000000621 -23 0 -1 0 I I #
edge $-1 $478 -0.785398163397448279 $663 0.785398163397448279 $656 $664 forward 7 unknown #
point $-1 56 -67.67767000000000621 -23 #
coedge $-1 $483 $665 $666 $667 forward $484 $-1 #
edge $-1 $485 -0.785398163397448279 $668 0.785398163397448279 $493 $669 forward 7 unknown #
point $-1 0 0 -23 #
coedge $-1 $487 $595 $580 $670 forward $417 $-1 #
coedge $-1 $582 $671 $487 $570 forward $672 $-1 #
edge $-1 $556 -44 $673 -37.3867513459480989 $569 $674 forward 7 unknown #
plane-surface $-1 6 -73.67767000000000621 0 0 -1 0 0 0 -1 forward_v I I I I #
ellipse-curve $-1 5.99999999999999023 -67.67767000000000621 -23 -0 0 -1 -4.242640687119278553 -4.242640687119278553 0 1 I I #
point $-1 6 -73.67767000000000621 -23 #
coedge $-1 $494 $493 $675 $676 forward $433 $-1 #
edge $-1 $677 -0.785398163397448279 $425 0.785398163397448279 $504 $678 forward 7 unknown #
face $-1 $421 $679 $36 $-1 $503 reversed single #
loop $-1 $-1 $508 $497 #
plane-surface $-1 15.5 1 -18 -0.8660254037844380415 0 0.5000000000000009992 0.5000000000000009992 -0 0.8660254037844380415 forward_v I I I I #
coedge $-1 $680 $681 $595 $682 reversed $498 $-1 #
coedge $-1 $683 $500 $568 $670 reversed $428 $-1 #
coedge $-1 $500 $684 $685 $686 reversed $428 $-1 #
coedge $-1 $687 $569 $500 $583 forward $672 $-1 #
edge $-1 $673 -1.570796326794896558 $688 1.110223024625154198e-16 $582 $689 forward 7 unknown #
face $-1 $690 $672 $36 $-1 $691 forward single #
plane-surface $-1 56 0 0 0 1 0 0 0 1 forward_v I I I I #
coedge $-1 $692 $693 $506 $588 reversed $502 $-1 #
coedge $-1 $505 $504 $692 $694 forward $370 $-1 #
edge $-1 $589 0 $593 5.458548115672600787 $506 $695 forward 7 unknown #
vertex $-1 $507 $696 #
ellipse-curve $-1 6 -71.67767000000000621 -23 -1 -1.443289932012709813e-15 9.860761315262645378e-32 2.041120196288906312e-15 -1.41421356237308804 -1.41421356237308804 1 I I #
coedge $-1 $697 $508 $693 $698 reversed $577 $-1 #
coedge $-1 $508 $699 $510 $596 reversed $577 $-1 #
vertex $-1 $588 $700 #
ellipse-curve $-1 12.61324865405189932 -71.67767000000000621 -23 -0.8660254037844381525 0 0.5000000000000011102 -1.154700538379252572 -2.22044604925030815e-16 -1.999999999999996003 0.8660254037844398178 I I #
coedge $-1 $568 $510 $579 $682 forward $417 $-1 #
edge $-1 $511 -11.19273132595615472 $701 -5.419228634059909844 $510 $702 forward 7 unknown #
point $-1 12.61324865405189932 -73.67767000000000621 -23 #
face $-1 $703 $545 $36 $-1 $457 forward single #
loop $-1 $-1 $704 $518 #
coedge $-1 $529 $705 $531 $624 reversed $519 $-1 #
coedge $-1 $632 $521 $705 $706 forward $456 $-1 #
coedge $-1 $521 $632 $635 $707 reversed $456 $-1 #
coedge $-1 $708 $531 $521 $604 forward $533 $-1 #
edge $-1 $709 10.5 $710 16.50000000000002132 $521 $711 forward 7 unknown #
coedge $-1 $523 $522 $540 $640 reversed $391 $-1 #
coedge $-1 $704 $541 $522 $607 reversed $599 $-1 #
edge $-1 $611 15.1986841535707029 $642 24.49489742783180191 $522 $623 forward 7 unknown #
coedge $-1 $617 $616 $523 $609 forward $618 $-1 #
edge $-1 $612 15.1986841535707029 $712 24.49489742783180191 $523 $620 forward 7 unknown #
coedge $-1 $524 $627 $704 $713 forward $533 $-1 #
vertex $-1 $525 $714 #
vertex $-1 $525 $715 #
straight-curve $-1 43.1986841535707029 46.69669849865410072 46.69669896899060291 0 -0.707106781186549016 0.7071067811865460184 I I #
coedge $-1 $639 $631 $526 $615 forward $332 $-1 #
edge $-1 $622 10.5 $619 16.50000000000002132 $614 $716 forward 7 unknown #
coedge $-1 $608 $527 $532 $625 forward $618 $-1 #
coedge $-1 $527 $608 $639 $717 forward $618 $-1 #
loop $-1 $-1 $608 $703 #
vertex $-1 $615 $718 #
straight-curve $-1 28 35.02943660907600076 58.36396085856860338 1 0 0 I I #
coedge $-1 $705 $529 $631 $719 reversed $519 $-1 #
vertex $-1 $719 $720 #
straight-curve $-1 28 39.27207729619529886 54.12132017144929819 1 0 0 I I #
edge $-1 $535 2.823768949661912053 $709 3.459416357517673735 $600 $721 forward 7 unknown #
edge $-1 $534 -2.823768949661912053 $612 -0.3178237039278812293 $616 $722 forward 7 unknown #
loop $-1 $-1 $723 $628 #
coedge $-1 $610 $708 $644 $724 forward $533 $-1 #
face $-1 $549 $533 $36 $-1 $725 reversed single #
point $-1 12.80131584642930065 35.02943660907600076 58.36396085856860338 #
point $-1 12.80131584642930065 39.27207729619529886 54.12132017144929819 #
coedge $-1 $614 $537 $621 $719 forward $332 $-1 #
coedge $-1 $602 $601 $537 $633 reversed $456 $-1 #
edge $-1 $637 -16.50000000000002132 $726 -10.5 $537 $727 forward 7 unknown #
coedge $-1 $728 $538 $544 $646 forward $636 $-1 #
coedge $-1 $538 $728 $602 $707 forward $636 $-1 #
loop $-1 $-1 $634 $649 #
vertex $-1 $539 $729 #
ellipse-curve $-1 28 31.49390270314329854 54.82842695263580168 0 -0.707106781186549016 0.7071067811865460184 25 0 0 1 I I #
coedge $-1 $540 $614 $617 $717 reversed $332 $-1 #
edge $-1 $712 -16.50000000000002132 $642 -10.5 $540 $730 forward 7 unknown #
coedge $-1 $541 $704 $543 $645 reversed $599 $-1 #
vertex $-1 $640 $731 #
ellipse-curve $-1 28 35.73654339026259663 50.58578626551649648 0 0.707106781186549016 -0.7071067811865460184 25 0 0 1 I I #
coedge $-1 $544 $543 $627 $724 reversed $545 $-1 #
edge $-1 $546 -24.49489742783180191 $732 -15.1986841535707029 $641 $733 forward 7 unknown #
edge $-1 $547 -24.49489742783180191 $734 -15.1986841535707029 $544 $735 forward 7 unknown #
point $-1 52.49489742783180191 32.20100948432980204 47.05025235958380136 #
point $-1 52.49489742783180191 27.95836879721050039 51.29289304670309946 #
face $-1 $130 $636 $36 $-1 $736 forward single #
loop $-1 $467 $737 $549 #
plane-surface $-1 28 54.82842648229939897 31.49390317347980073 0 0.707106781186549016 -0.7071067811865460184 -1 0 0 forward_v I I I I #
coedge $-1 $738 $551 $739 $740 forward $484 $-1 #
edge $-1 $741 -0.785398163397448279 $552 0.785398163397448279 $551 $742 forward 7 unknown #
point $-1 56 0 -23 #
coedge $-1 $743 $554 $671 $659 forward $657 $-1 #
coedge $-1 $554 $743 $559 $563 reversed $657 $-1 #
loop $-1 $-1 $743 $690 #
ellipse-curve $-1 50 -67.67767000000000621 -23 0 0 -1 4.242640687119278553 -4.242640687119278553 0 1 I I #
edge $-1 $556 -0.785398163397448279 $744 0.785398163397448279 $671 $745 forward 7 unknown #
point $-1 50 -73.67767000000000621 -23 #
coedge $-1 $560 $559 $746 $747 forward $561 $-1 #
face $-1 $488 $561 $36 $-1 $748 forward single #
vertex $-1 $749 $750 #
ellipse-curve $-1 54 -67.67767000000000621 -23 0 1 0 1.41421356237308804 0 -1.41421356237308804 1 I I #
coedge $-1 $565 $751 $697 $752 forward $484 $-1 #
coedge $-1 $693 $675 $565 $667 reversed $502 $-1 #
edge $-1 $753 44.54145188432740099 $668 54 $666 $754 forward 7 unknown #
vertex $-1 $566 $755 #
ellipse-curve $-1 2 0 -23 0 -1 -0 -1.41421356237308804 0 -1.41421356237308804 1 I I #
edge $-1 $756 16.41922863405995869 $673 22.19273132595619913 $568 $757 forward 7 unknown #
coedge $-1 $569 $687 $655 $659 reversed $672 $-1 #
loop $-1 $-1 $687 $584 #
vertex $-1 $570 $758 #
straight-curve $-1 6 -73.67767000000000621 -23 -1 0 0 I I #
coedge $-1 $666 $692 $574 $676 reversed $502 $-1 #
edge $-1 $668 0 $677 67.67767000000000621 $574 $759 forward 7 unknown #
vertex $-1 $575 $760 #
ellipse-curve $-1 2 -67.67767000000000621 -23 0 1 0 -1.41421356237308804 0 -1.41421356237308804 1 I I #
loop $-1 $-1 $761 $576 #
coedge $-1 $762 $579 $699 $763 forward $498 $-1 #
coedge $-1 $579 $762 $683 $764 forward $498 $-1 #
edge $-1 $701 -1.5 $756 23.5 $595 $765 forward 7 unknown #
coedge $-1 $684 $580 $681 $764 reversed $428 $-1 #
coedge $-1 $581 $683 $738 $766 reversed $428 $-1 #
coedge $-1 $739 $761 $581 $686 forward $679 $-1 #
edge $-1 $688 2.161164999999996894 $767 73.83883500000000311 $581 $768 forward 7 unknown #
coedge $-1 $671 $582 $761 $769 forward $672 $-1 #
vertex $-1 $769 $770 #
ellipse-curve $-1 43.3867513459480989 -71.67767000000000621 -23 0.8660254037844381525 0 0.5000000000000011102 1.154700538379252572 -2.22044604925030815e-16 -1.999999999999996003 0.8660254037844398178 I I #
face $-1 $662 $657 $36 $-1 $771 forward single #
cone-surface $-1 47.27072594216370049 -71.67767000000000621 -23 1 0 0 0 -1.41421356237308804 -1.41421356237308804 1 I I 0 1 1.999999999999990008 forward I I I I #
coedge $-1 $675 $586 $587 $694 reversed $502 $-1 #
coedge $-1 $586 $666 $591 $698 forward $502 $-1 #
edge $-1 $677 -0.785398163397448279 $589 0.7853981633974508325 $587 $772 forward 7 unknown #
straight-curve $-1 6 -71.67767000000000621 -25 1 0 0 I I #
point $-1 6 -71.67767000000000621 -25 #
coedge $-1 $699 $591 $665 $752 reversed $577 $-1 #
edge $-1 $753 -33.33883500000000311 $593 38.33883500000000311 $693 $773 forward 7 unknown #
coedge $-1 $592 $697 $680 $763 reversed $577 $-1 #
point $-1 11.45854811567260079 -71.67767000000000621 -25 #
vertex $-1 $596 $774 #
straight-curve $-1 18.20961431702999889 -73.67767000000000621 -13.30681033398809987 0.5000000000000009992 0 0.8660254037844380415 I I #
face $-1 $628 $618 $36 $-1 $736 forward single #
coedge $-1 $641 $606 $610 $713 reversed $599 $-1 #
coedge $-1 $600 $621 $601 $706 reversed $519 $-1 #
edge $-1 $709 15.19868415357069935 $726 24.49489742783178059 $601 $733 forward 7 unknown #
edge $-1 $710 15.19868415357069935 $637 24.49489742783178059 $602 $735 forward 7 unknown #
coedge $-1 $627 $603 $728 $775 reversed $533 $-1 #
vertex $-1 $604 $776 #
vertex $-1 $604 $777 #
straight-curve $-1 12.80131584642930065 39.62563068678859679 39.62563115712509898 0 -0.707106781186549016 0.7071067811865460184 I I #
vertex $-1 $717 $778 #
edge $-1 $732 -0.3178237039278806186 $611 0.3178237039278812293 $704 $779 forward 7 unknown #
point $-1 43.1986841535707029 39.27207729619529886 54.12132017144929819 #
point $-1 43.1986841535707029 35.02943660907600076 58.36396085856860338 #
straight-curve $-1 3.505102572168219854 46.69669849865410072 46.69669896899060291 0 -0.707106781186549016 0.7071067811865460184 I I #
edge $-1 $712 0.2013579207903314072 $619 2.940234732799461792 $639 $638 forward 7 unknown #
point $-1 3.505102572168219854 35.02943660907600076 58.36396085856860338 #
edge $-1 $726 2.940234732799462236 $622 3.34295057438012444 $631 $780 forward 7 unknown #
point $-1 3.505102572168219854 39.27207729619529886 54.12132017144929819 #
ellipse-curve $-1 28 35.73654339026259663 50.58578626551649648 0 -0.707106781186549016 0.7071067811865460184 16 0 0 1 I I #
ellipse-curve $-1 28 31.49390270314329854 54.82842695263580168 0 0.707106781186549016 -0.7071067811865460184 16 0 0 1 I I #
coedge $-1 $723 $723 $737 $781 reversed $626 $-1 #
edge $-1 $734 -16.50000000000002132 $732 -10.5 $644 $782 forward 7 unknown #
cone-surface $-1 28 43.16116459272129902 43.16116506305780121 0 -0.707106781186549016 0.7071067811865460184 16 0 0 1 I I 0 1 16 forward I I I I #
vertex $-1 $633 $783 #
straight-curve $-1 3.505102572168219854 39.62563068678859679 39.62563115712509898 0 0.707106781186549016 -0.7071067811865460184 I I #
coedge $-1 $635 $634 $708 $775 forward $636 $-1 #
point $-1 3.505102572168219854 27.95836879721050039 51.29289304670309946 #
straight-curve $-1 52.49489742783180191 46.69669849865410072 46.69669896899060291 0 0.707106781186549016 -0.7071067811865460184 I I #
point $-1 52.49489742783180191 39.27207729619529886 54.12132017144929819 #
vertex $-1 $713 $784 #
straight-curve $-1 28 32.20100948432980204 47.05025235958380136 -1 0 0 I I #
vertex $-1 $724 $785 #
straight-curve $-1 28 27.95836879721050039 51.29289304670309946 -1 0 0 I I #
plane-surface $-1 28 31.49390270314329854 54.82842695263580168 0 -0.707106781186549016 0.7071067811865460184 1 0 -0 forward_v I I I I #
coedge $-1 $737 $737 $723 $781 forward $650 $-1 #
coedge $-1 $751 $652 $684 $766 forward $484 $-1 #
coedge $-1 $746 $685 $652 $740 reversed $679 $-1 #
edge $-1 $741 2 $767 11.45854811567259901 $652 $754 forward 7 unknown #
vertex $-1 $653 $786 #
ellipse-curve $-1 54 0 -23 0 -1 0 1.41421356237308804 0 -1.41421356237308804 1 I I #
coedge $-1 $656 $655 $787 $749 forward $657 $-1 #
vertex $-1 $769 $788 #
ellipse-curve $-1 50 -71.67767000000000621 -23 1 5.551115123125788865e-17 0 7.850462293418846251e-17 -1.41421356237308804 -1.41421356237308804 1 I I #
coedge $-1 $787 $739 $661 $747 reversed $679 $-1 #
edge $-1 $663 0 $741 67.67767000000000621 $661 $789 forward 7 unknown #
cone-surface $-1 54 -33.83883500000000311 -23 0 1 0 1.41421356237308804 0 -1.41421356237308804 1 I I 0 1 1.999999999999990008 forward I I I I #
edge $-1 $744 -0.785398163397448279 $663 0.785398163397448279 $743 $790 forward 7 unknown #
point $-1 54 -67.67767000000000621 -25 #
coedge $-1 $665 $738 $762 $791 forward $484 $-1 #
edge $-1 $792 17.91922863405995869 $753 26.0021324027147287 $665 $793 forward 7 unknown #
vertex $-1 $667 $794 #
straight-curve $-1 56 0 -25 -1 0 0 I I #
point $-1 2 0 -25 #
vertex $-1 $682 $795 #
straight-curve $-1 32.29038568296999756 -73.67767000000000621 -3.780530892359220019 0.5000000000000009992 0 -0.8660254037844380415 I I #
point $-1 43.3867513459480989 -73.67767000000000621 -23 #
straight-curve $-1 2 0 -25 0 -1 0 I I #
point $-1 2 -67.67767000000000621 -25 #
coedge $-1 $685 $787 $687 $769 reversed $679 $-1 #
coedge $-1 $681 $680 $751 $791 reversed $498 $-1 #
edge $-1 $701 6.322329999999993788 $792 80 $680 $796 forward 7 unknown #
edge $-1 $797 1 $756 74.67767000000000621 $683 $798 forward 7 unknown #
straight-curve $-1 17 -73.67767000000000621 -18 1 0 0 I I #
edge $-1 $767 -12.00213240271473225 $797 -3.919228634059962246 $738 $799 forward 7 unknown #
vertex $-1 $740 $800 #
straight-curve $-1 44.54145188432740099 -73.83883500000000311 -25 0 1 0 I I #
edge $-1 $688 38.54145188432740099 $744 44 $687 $801 forward 7 unknown #
point $-1 44.54145188432740099 -71.67767000000000621 -25 #
torus-surface $-1 50 -67.67767000000000621 -23 0 0 1 3.999999999999989786 2 1 0 0 forward_v I I I I #
ellipse-curve $-1 5.99999999999999023 -67.67767000000000621 -25 0 0 1 -2.828427124746190291 -2.828427124746190291 0 1 I I #
straight-curve $-1 11.45854811567260079 -33.33883500000000311 -25 0 -1 0 I I #
point $-1 15.5 -73.67767000000000621 -18 #
edge $-1 $734 0.3178237039278810072 $710 2.823768949661912053 $708 $722 forward 7 unknown #
point $-1 12.80131584642930065 32.20100948432980204 47.05025235958380136 #
point $-1 12.80131584642930065 27.95836879721050039 51.29289304670309946 #
point $-1 52.49489742783180191 35.02943660907600076 58.36396085856860338 #
ellipse-curve $-1 28 35.73654339026259663 50.58578626551649648 0 -0.707106781186549016 0.7071067811865460184 16 0 0 1 I I #
ellipse-curve $-1 28 35.73654339026259663 50.58578626551649648 0 0.707106781186549016 -0.7071067811865460184 25 0 0 1 I I #
edge $-1 $802 -3.141592653589801998 $802 3.141592653589784234 $723 $803 forward 7 unknown #
straight-curve $-1 43.1986841535707029 39.62563068678859679 39.62563115712509898 0 0.707106781186549016 -0.7071067811865460184 I I #
point $-1 3.505102572168219854 32.20100948432980204 47.05025235958380136 #
point $-1 43.1986841535707029 32.20100948432980204 47.05025235958380136 #
point $-1 43.1986841535707029 27.95836879721050039 51.29289304670309946 #
point $-1 54 0 -25 #
coedge $-1 $761 $746 $743 $749 reversed $679 $-1 #
point $-1 50 -71.67767000000000621 -25 #
straight-curve $-1 54 -67.67767000000000621 -25 0 1 0 I I #
ellipse-curve $-1 50 -67.67767000000000621 -25 0 0 1 2.828427124746190291 -2.828427124746190291 0 1 I I #
edge $-1 $797 1.5 $792 26.5 $751 $804 forward 7 unknown #
vertex $-1 $791 $805 #
straight-curve $-1 24.45961431702999889 0 -2.481492786682559792 -0.5000000000000009992 0 -0.8660254037844380415 I I #
point $-1 11.45854811567260079 0 -25 #
point $-1 40.5 -73.67767000000000621 -18 #
straight-curve $-1 15.5 -80 -18 0 1 0 I I #
vertex $-1 $766 $806 #
straight-curve $-1 40.5 1 -18 0 -1 0 I I #
straight-curve $-1 38.54038568296999756 0 -14.60584843966469926 -0.5000000000000009992 0 0.8660254037844380415 I I #
point $-1 44.54145188432740099 0 -25 #
straight-curve $-1 6 -71.67767000000000621 -25 1 0 0 I I #
vertex $-1 $781 $807 #
ellipse-curve $-1 28 54.82842648229939897 31.49390317347980073 0 -0.707106781186549016 0.7071067811865460184 16 0 0 1 I I #
straight-curve $-1 42 0 -18 -1 0 0 I I #
point $-1 15.5 0 -18 #
point $-1 40.5 0 -18 #
point $-1 12 54.82842648229949845 31.4939031734799002 #
End-of-ACIS-data 