600 0 1 0           
95 GICL ACIS Healer - Source: /gicl/data5/repository/UMD/tmp/funky_pocket1/funky_pocket1.sat - 6 0 18 ACIS 6.0.3 Solaris 24 Sun Apr 14 00:34:05 2002 
1 9.999999999999999547e-07 1.000000000000000036e-10 
body $-1 $1 $-1 $-1 #
lump $-1 $-1 $2 $0 #
shell $-1 $-1 $-1 $3 $-1 $1 #
face $-1 $4 $5 $2 $-1 $6 forward single #
face $-1 $7 $8 $2 $-1 $9 reversed single #
loop $-1 $-1 $10 $3 #
cone-surface $-1 0.8538130132624406343 10 25 0 -0 -1 -5.372996083468242645 -8.433914458128857206 0 1 I I 0 -1 10 forward I I I I #
face $-1 $11 $12 $2 $-1 $13 forward single #
loop $-1 $-1 $14 $4 #
plane-surface $-1 9.99999999999998046 -1.154631945610162802e-14 25 0 -1.000000000000000444 0 0 0 -1 forward_v I I I I #
coedge $-1 $15 $16 $17 $18 forward $5 $-1 #
face $-1 $19 $20 $2 $-1 $21 reversed single #
loop $-1 $-1 $22 $7 #
cone-surface $-1 9.976259818932282641 -45.00000000000002132 25 0 0 1 -4.328792278762071177 19.52592014239870366 0 1 I I 0 -1 20.00000000000003553 forward I I I I #
coedge $-1 $23 $24 $25 $26 reversed $8 $-1 #
coedge $-1 $25 $10 $27 $28 reversed $5 $-1 #
coedge $-1 $10 $25 $29 $30 reversed $5 $-1 #
coedge $-1 $31 $32 $10 $18 reversed $33 $-1 #
edge $-1 $34 -25 $35 25 $17 $36 forward 7 unknown #
face $-1 $37 $38 $2 $-1 $39 forward single #
loop $-1 $-1 $40 $11 #
plane-surface $-1 9.999999999999959144 -24.99999999999997513 25 0 1.000000000000000444 0 0 0 1 forward_v I I I I #
coedge $-1 $41 $42 $43 $44 forward $12 $-1 #
coedge $-1 $45 $14 $46 $47 reversed $8 $-1 #
coedge $-1 $14 $45 $48 $49 reversed $8 $-1 #
coedge $-1 $16 $15 $14 $26 forward $5 $-1 #
edge $-1 $50 -25 $51 25 $14 $52 forward 7 unknown #
coedge $-1 $53 $46 $15 $28 forward $54 $-1 #
edge $-1 $50 -0.5672320068981574481 $35 0.5672320068981558938 $27 $55 forward 7 unknown #
coedge $-1 $48 $56 $16 $30 forward $57 $-1 #
edge $-1 $34 -0.5672320068981558938 $51 0.5672320068981574481 $29 $58 forward 7 unknown #
coedge $-1 $59 $17 $56 $60 reversed $33 $-1 #
coedge $-1 $17 $59 $53 $61 reversed $33 $-1 #
loop $-1 $-1 $17 $62 #
vertex $-1 $60 $63 #
vertex $-1 $61 $64 #
straight-curve $-1 -8.209264857104058066 5.773817382592997483 25 0 0 1 I I #
face $-1 $65 $54 $2 $-1 $66 forward single #
loop $-1 $-1 $67 $19 #
cone-surface $-1 -16.54806405458862173 16.55782522088069442 25 0 0 -1 1.026060429977003974 2.819077862357723507 0 1 I I 0 1 2.999999999999996447 forward I I I I #
coedge $-1 $68 $69 $70 $71 reversed $20 $-1 #
coedge $-1 $70 $22 $72 $73 reversed $12 $-1 #
coedge $-1 $22 $70 $74 $75 reversed $12 $-1 #
coedge $-1 $76 $77 $22 $44 reversed $78 $-1 #
edge $-1 $79 -25 $80 25 $43 $81 forward 7 unknown #
coedge $-1 $24 $23 $82 $83 reversed $8 $-1 #
coedge $-1 $27 $84 $23 $47 forward $54 $-1 #
edge $-1 $85 -22 $50 9.146186986737534497 $23 $86 forward 7 unknown #
coedge $-1 $87 $29 $24 $49 forward $57 $-1 #
edge $-1 $51 -9.146186986737534497 $88 22 $24 $89 forward 7 unknown #
vertex $-1 $47 $90 #
vertex $-1 $49 $91 #
straight-curve $-1 0.8538130132624370816 -5.329070518200751394e-15 25 0 0 -1 I I #
coedge $-1 $92 $27 $32 $61 forward $54 $-1 #
loop $-1 $-1 $92 $37 #
ellipse-curve $-1 0.8538130132624406343 10 50 0 -0 -1 -5.372996083468242645 -8.433914458128857206 0 1 I I #
coedge $-1 $29 $93 $31 $60 forward $57 $-1 #
loop $-1 $-1 $93 $94 #
ellipse-curve $-1 0.8538130132624406343 10 0 0 0 1 -5.372996083468242645 -8.433914458128857206 0 1 I I #
coedge $-1 $32 $31 $95 $96 reversed $33 $-1 #
edge $-1 $97 -22.00000000000000711 $34 -8.702240898849929351 $31 $98 forward 7 unknown #
edge $-1 $35 8.702240898849929351 $99 22.00000000000000711 $32 $100 forward 7 unknown #
face $-1 $101 $33 $2 $-1 $102 reversed single #
point $-1 -8.209264857104058066 5.773817382592997483 0 #
point $-1 -8.209264857104058066 5.773817382592997483 50 #
face $-1 $103 $104 $2 $-1 $105 reversed single #
plane-surface $-1 -15.86038627314139937 -7.395819580462259957 50 0 0 1 0.9063077870366500477 0.4226182617406999964 0 forward_v I I I I #
coedge $-1 $106 $107 $108 $109 forward $38 $-1 #
coedge $-1 $110 $40 $111 $112 reversed $20 $-1 #
coedge $-1 $40 $110 $113 $114 reversed $20 $-1 #
coedge $-1 $42 $41 $40 $71 forward $12 $-1 #
edge $-1 $115 -25 $116 25 $40 $117 forward 7 unknown #
coedge $-1 $118 $111 $41 $73 forward $57 $-1 #
edge $-1 $115 -0.2181661564992920244 $80 0.2181661564992914415 $72 $119 forward 7 unknown #
coedge $-1 $113 $120 $42 $75 forward $54 $-1 #
edge $-1 $79 -0.2181661564992914415 $116 0.2181661564992920244 $74 $121 forward 7 unknown #
coedge $-1 $122 $43 $120 $123 reversed $78 $-1 #
coedge $-1 $43 $122 $118 $124 reversed $78 $-1 #
loop $-1 $-1 $43 $125 #
vertex $-1 $123 $126 #
vertex $-1 $124 $127 #
straight-curve $-1 1.523894584118282935 -26.87384425926702392 25 0 0 -1 I I #
coedge $-1 $128 $129 $45 $83 forward $130 $-1 #
edge $-1 $88 -25 $85 25 $45 $131 forward 7 unknown #
coedge $-1 $46 $132 $128 $133 reversed $54 $-1 #
vertex $-1 $133 $134 #
straight-curve $-1 9.99999999999998046 -1.154631945610162802e-14 50 -1.000000000000000666 0 0 I I #
coedge $-1 $135 $48 $129 $136 reversed $57 $-1 #
vertex $-1 $49 $137 #
straight-curve $-1 9.99999999999998046 -1.154631945610162802e-14 0 1.000000000000000666 0 0 I I #
point $-1 0.8538130132624406343 -6.217248937900876626e-15 50 #
point $-1 0.8538130132624406343 -6.217248937900876626e-15 0 #
coedge $-1 $138 $53 $106 $139 reversed $54 $-1 #
coedge $-1 $56 $140 $107 $141 reversed $57 $-1 #
face $-1 $142 $57 $2 $-1 $143 reversed single #
coedge $-1 $107 $106 $59 $96 forward $38 $-1 #
edge $-1 $99 -25 $97 25 $59 $144 forward 7 unknown #
vertex $-1 $141 $145 #
straight-curve $-1 -4.531538935183274219 -2.113091308703509696 0 0.4226182617406999964 -0.9063077870366500477 0 I I #
vertex $-1 $61 $146 #
straight-curve $-1 -4.531538935183274219 -2.113091308703509696 50 -0.4226182617406999964 0.9063077870366500477 0 I I #
face $-1 $-1 $147 $2 $-1 $148 reversed single #
plane-surface $-1 -4.531538935183274219 -2.113091308703509696 25 -0.9063077870366500477 -0.4226182617406999964 0 0 0 1 forward_v I I I I #
face $-1 $149 $150 $2 $-1 $151 forward single #
loop $-1 $-1 $108 $65 #
plane-surface $-1 -26.42584281665889989 15.26187509545399124 25 0.4226182617406999964 -0.9063077870366500477 0 0 0 -1 forward_v I I I I #
coedge $-1 $95 $67 $92 $139 forward $38 $-1 #
coedge $-1 $67 $95 $93 $141 forward $38 $-1 #
coedge $-1 $152 $153 $67 $109 reversed $104 $-1 #
edge $-1 $154 -25 $155 25 $108 $156 forward 7 unknown #
coedge $-1 $69 $68 $157 $158 reversed $20 $-1 #
coedge $-1 $72 $159 $68 $112 forward $57 $-1 #
edge $-1 $160 -22 $115 0.02374018106766582689 $68 $161 forward 7 unknown #
coedge $-1 $162 $74 $69 $114 forward $54 $-1 #
edge $-1 $116 -0.02374018106766582689 $163 22 $69 $164 forward 7 unknown #
vertex $-1 $112 $165 #
vertex $-1 $114 $166 #
straight-curve $-1 9.9762598189322933 -25.00000000000000711 25 0 0 1 I I #
coedge $-1 $167 $72 $77 $124 forward $57 $-1 #
ellipse-curve $-1 9.976259818932282641 -45.00000000000002132 0 0 0 1 -4.328792278762071177 19.52592014239870366 0 1 I I #
coedge $-1 $74 $168 $76 $123 forward $54 $-1 #
ellipse-curve $-1 9.976259818932282641 -45.00000000000002132 50 0 -0 -1 -4.328792278762071177 19.52592014239870366 0 1 I I #
coedge $-1 $77 $76 $169 $170 reversed $78 $-1 #
edge $-1 $171 -9.500000000000003553 $79 7.523740181067688937 $76 $172 forward 7 unknown #
edge $-1 $80 -7.523740181067688937 $173 9.500000000000003553 $77 $174 forward 7 unknown #
face $-1 $94 $78 $2 $-1 $175 reversed single #
point $-1 1.523894584118282935 -26.87384425926702392 50 #
point $-1 1.523894584118282935 -26.87384425926702392 0 #
coedge $-1 $176 $82 $84 $133 forward $130 $-1 #
coedge $-1 $82 $176 $87 $136 forward $130 $-1 #
loop $-1 $-1 $82 $142 #
straight-curve $-1 31.99999999999999289 -9.769962616701377556e-15 25 0 0 1 I I #
coedge $-1 $84 $162 $177 $178 forward $54 $-1 #
edge $-1 $85 -0.785398163397453053 $179 0.785398163397458271 $84 $180 forward 7 unknown #
point $-1 31.99999999999999289 -9.769962616701377556e-15 50 #
coedge $-1 $159 $87 $181 $182 forward $57 $-1 #
edge $-1 $183 -0.785398163397458271 $88 0.785398163397453053 $87 $184 forward 7 unknown #
point $-1 31.99999999999999289 -9.769962616701377556e-15 0 #
coedge $-1 $185 $92 $153 $186 forward $54 $-1 #
edge $-1 $155 -0.7853981633974492782 $99 0.785398163397448279 $92 $187 forward 7 unknown #
coedge $-1 $93 $188 $152 $189 forward $57 $-1 #
edge $-1 $97 -0.785398163397448279 $154 0.7853981633974492782 $93 $190 forward 7 unknown #
face $-1 $191 $130 $2 $-1 $192 forward single #
plane-surface $-1 -15.86038627314139937 -7.395819580462259957 0 0 0 1 0.9063077870366500477 0.4226182617406999964 0 forward_v I I I I #
straight-curve $-1 -13.82914069347867425 17.82568000610279313 25 0 0 -1 I I #
point $-1 -13.82914069347867425 17.82568000610279313 0 #
point $-1 -13.82914069347867425 17.82568000610279313 50 #
loop $-1 $-1 $193 $101 #
plane-surface $-1 -27.18923361109952452 -12.67854785222101022 25 0.9063077870366500477 0.4226182617406999964 0 0 0 -1 forward_v I I I I #
face $-1 $125 $194 $2 $-1 $195 forward single #
loop $-1 $-1 $196 $103 #
cone-surface $-1 -33.76791200828497352 8.528078247807393097 25 0 0 -1 -2.819077862357723507 1.026060429977003974 0 1 I I 0 1 2.999999999999996447 forward I I I I #
coedge $-1 $197 $108 $140 $189 reversed $104 $-1 #
coedge $-1 $108 $197 $138 $186 reversed $104 $-1 #
vertex $-1 $189 $198 #
vertex $-1 $109 $199 #
straight-curve $-1 -17.81591883981072399 19.2767485819906419 25 0 0 1 I I #
coedge $-1 $200 $201 $110 $158 forward $202 $-1 #
edge $-1 $163 -25 $160 25 $110 $203 forward 7 unknown #
coedge $-1 $111 $135 $200 $204 reversed $57 $-1 #
vertex $-1 $204 $205 #
straight-curve $-1 9.999999999999959144 -24.99999999999997513 0 -1.000000000000000666 0 0 I I #
coedge $-1 $132 $113 $201 $206 reversed $54 $-1 #
vertex $-1 $114 $207 #
straight-curve $-1 9.999999999999959144 -24.99999999999997513 50 1.000000000000000666 0 0 I I #
point $-1 9.9762598189322933 -25.00000000000000711 0 #
point $-1 9.9762598189322933 -25.00000000000000711 50 #
coedge $-1 $208 $118 $209 $210 reversed $57 $-1 #
coedge $-1 $120 $211 $212 $213 reversed $54 $-1 #
coedge $-1 $212 $209 $122 $170 forward $194 $-1 #
edge $-1 $173 -25 $171 25 $122 $214 forward 7 unknown #
vertex $-1 $170 $215 #
straight-curve $-1 -5.294929729623898851 -30.05351425637850937 50 0.9063077870366500477 0.4226182617406999964 0 I I #
vertex $-1 $124 $216 #
straight-curve $-1 -5.294929729623898851 -30.05351425637850937 0 -0.9063077870366500477 -0.4226182617406999964 0 I I #
plane-surface $-1 -5.294929729623898851 -30.05351425637850937 25 -0.4226182617406999964 0.9063077870366500477 0 0 0 1 forward_v I I I I #
coedge $-1 $129 $128 $217 $218 forward $130 $-1 #
coedge $-1 $219 $217 $132 $178 reversed $220 $-1 #
edge $-1 $221 -9.500000000000042633 $179 9.499999999999907629 $177 $222 forward 7 unknown #
vertex $-1 $178 $223 #
ellipse-curve $-1 32.00000000000001421 -3.000000000000055955 50 0 -0 -1 2.121320343559635724 2.121320343559645494 0 1 I I #
coedge $-1 $217 $219 $135 $182 reversed $220 $-1 #
edge $-1 $183 -9.499999999999907629 $224 9.500000000000042633 $181 $225 forward 7 unknown #
vertex $-1 $218 $226 #
ellipse-curve $-1 32.00000000000001421 -3.000000000000055955 0 0 0 1 2.121320343559635724 2.121320343559645494 0 1 I I #
coedge $-1 $211 $138 $227 $228 reversed $54 $-1 #
edge $-1 $155 -9.500000000000001776 $229 9.500000000000005329 $153 $230 forward 7 unknown #
ellipse-curve $-1 -16.54806405458862173 16.55782522088069442 50 0 -0 -1 1.026060429977003974 2.819077862357723507 0 1 I I #
coedge $-1 $140 $208 $231 $232 reversed $57 $-1 #
edge $-1 $233 -9.500000000000005329 $154 9.500000000000001776 $152 $234 forward 7 unknown #
ellipse-curve $-1 -16.54806405458862173 16.55782522088069442 0 0 0 1 1.026060429977003974 2.819077862357723507 0 1 I I #
face $-1 $235 $220 $2 $-1 $236 reversed single #
cone-surface $-1 32.00000000000001421 -3.000000000000055955 25 0 0 -1 2.121320343559635724 2.121320343559645494 0 1 I I 0 1 2.999999999999996447 forward I I I I #
coedge $-1 $237 $238 $196 $239 reversed $147 $-1 #
loop $-1 $-1 $169 $149 #
cone-surface $-1 -15.17270849169417524 -31.34946438180521255 25 0 -0 -1 -1.026060429977003974 -2.819077862357723507 0 1 I I 0 1 2.999999999999996447 forward I I I I #
coedge $-1 $227 $231 $193 $239 forward $150 $-1 #
coedge $-1 $153 $152 $240 $241 reversed $104 $-1 #
point $-1 -17.81591883981072399 19.2767485819906419 0 #
point $-1 -17.81591883981072399 19.2767485819906419 50 #
coedge $-1 $242 $157 $159 $204 forward $202 $-1 #
coedge $-1 $157 $242 $162 $206 forward $202 $-1 #
loop $-1 $-1 $242 $235 #
straight-curve $-1 32.00000000000001421 -25.0000000000000675 25 0 0 -1 I I #
edge $-1 $160 -0.7853981633974557175 $224 0.785398163397443283 $159 $243 forward 7 unknown #
point $-1 31.99999999999997158 -24.99999999999998224 0 #
edge $-1 $221 -0.785398163397443283 $163 0.7853981633974557175 $162 $244 forward 7 unknown #
point $-1 31.99999999999997158 -24.99999999999998224 50 #
coedge $-1 $188 $167 $237 $245 forward $57 $-1 #
coedge $-1 $169 $246 $167 $210 forward $194 $-1 #
edge $-1 $247 -0.7853981633974486121 $173 0.785398163397448279 $167 $248 forward 7 unknown #
coedge $-1 $168 $185 $238 $249 forward $54 $-1 #
coedge $-1 $246 $169 $168 $213 forward $194 $-1 #
edge $-1 $171 -0.785398163397448279 $250 0.7853981633974486121 $168 $251 forward 7 unknown #
straight-curve $-1 -13.90485370647207475 -34.06838774291516359 25 0 0 1 I I #
point $-1 -13.90485370647207475 -34.06838774291516359 50 #
point $-1 -13.90485370647207475 -34.06838774291516359 0 #
coedge $-1 $177 $181 $176 $218 reversed $220 $-1 #
edge $-1 $179 -25 $183 25 $217 $252 forward 7 unknown #
coedge $-1 $181 $177 $242 $253 reversed $220 $-1 #
loop $-1 $-1 $217 $191 #
vertex $-1 $253 $254 #
straight-curve $-1 34.99999999999998579 -12.49999999999999289 50 0 1.000000000000000666 0 I I #
point $-1 34.99999999999996447 -3.000000000000079048 50 #
vertex $-1 $182 $255 #
straight-curve $-1 34.99999999999998579 -12.49999999999999289 0 0 -1.000000000000000666 0 I I #
point $-1 34.99999999999996447 -3.000000000000079048 0 #
coedge $-1 $240 $196 $185 $228 forward $150 $-1 #
edge $-1 $256 -0.7853981633974479459 $229 0.7853981633974461696 $185 $257 forward 7 unknown #
vertex $-1 $186 $258 #
straight-curve $-1 -26.42584281665889989 15.26187509545399124 50 -0.9063077870366500477 -0.4226182617406999964 0 I I #
coedge $-1 $196 $240 $188 $232 forward $150 $-1 #
edge $-1 $233 -0.7853981633974461696 $259 0.7853981633974479459 $188 $260 forward 7 unknown #
vertex $-1 $241 $261 #
straight-curve $-1 -26.42584281665889989 15.26187509545399124 0 0.9063077870366500477 0.4226182617406999964 0 I I #
face $-1 $62 $202 $2 $-1 $262 forward single #
plane-surface $-1 34.99999999999998579 -12.49999999999999289 25 -1.000000000000000444 0 0 0 0 1 forward_v I I I I #
coedge $-1 $263 $193 $208 $245 reversed $147 $-1 #
coedge $-1 $193 $263 $211 $249 reversed $147 $-1 #
edge $-1 $259 -25 $256 25 $193 $264 forward 7 unknown #
coedge $-1 $231 $227 $197 $241 forward $150 $-1 #
edge $-1 $229 -25 $233 25 $197 $265 forward 7 unknown #
coedge $-1 $201 $200 $219 $253 forward $202 $-1 #
ellipse-curve $-1 32 -22.00000000000002132 0 0 0 1 2.121320343559640609 -2.121320343559649491 0 1 I I #
ellipse-curve $-1 32 -22.00000000000002132 50 0 -0 -1 2.121320343559640609 -2.121320343559649491 0 1 I I #
edge $-1 $247 -22.00000000000000711 $259 22.00000000000000711 $237 $266 forward 7 unknown #
coedge $-1 $209 $212 $263 $267 forward $194 $-1 #
vertex $-1 $210 $268 #
ellipse-curve $-1 -15.17270849169417524 -31.34946438180521255 0 0 0 1 -1.026060429977003974 -2.819077862357723507 0 1 I I #
edge $-1 $256 -22.00000000000000711 $250 22.00000000000000711 $238 $269 forward 7 unknown #
vertex $-1 $249 $270 #
ellipse-curve $-1 -15.17270849169417524 -31.34946438180521255 50 0 -0 -1 -1.026060429977003974 -2.819077862357723507 0 1 I I #
straight-curve $-1 34.99999999999996447 -3.000000000000079048 25 0 0 -1 I I #
edge $-1 $224 -25 $221 25 $219 $271 forward 7 unknown #
point $-1 34.99999999999995026 -22.00000000000004263 50 #
point $-1 34.99999999999995026 -22.00000000000004263 0 #
vertex $-1 $228 $272 #
ellipse-curve $-1 -33.76791200828497352 8.528078247807393097 50 0 -0 -1 -2.819077862357723507 1.026060429977003974 0 1 I I #
point $-1 -35.03576679350707934 11.24700160891734058 50 #
vertex $-1 $245 $273 #
ellipse-curve $-1 -33.76791200828497352 8.528078247807393097 0 0 0 1 -2.819077862357723507 1.026060429977003974 0 1 I I #
point $-1 -35.03576679350707934 11.24700160891734058 0 #
cone-surface $-1 32 -22.00000000000002132 25 0 0 -1 2.121320343559640609 -2.121320343559649491 0 1 I I 0 1 3.000000000000002665 forward I I I I #
coedge $-1 $238 $237 $246 $267 reversed $147 $-1 #
straight-curve $-1 -36.48683536939492456 7.260223462585293497 25 0 0 1 I I #
straight-curve $-1 -35.03576679350707934 11.24700160891734058 25 0 0 -1 I I #
straight-curve $-1 -27.18923361109952452 -12.67854785222101022 0 -0.4226182617406999964 0.9063077870366500477 0 I I #
edge $-1 $250 -25 $247 25 $263 $274 forward 7 unknown #
point $-1 -17.89163185280412449 -32.61731916702731127 0 #
straight-curve $-1 -27.18923361109952452 -12.67854785222101022 50 0.4226182617406999964 -0.9063077870366500477 0 I I #
point $-1 -17.89163185280412449 -32.61731916702731127 50 #
straight-curve $-1 34.99999999999995026 -22.00000000000004263 25 0 0 1 I I #
point $-1 -36.48683536939492456 7.260223462585293497 50 #
point $-1 -36.48683536939492456 7.260223462585293497 0 #
straight-curve $-1 -17.89163185280412449 -32.61731916702731127 25 0 0 -1 I I #
End-of-ACIS-data 