105 276 1 0                             
body $-1 $1 $-1 $2 #
lump $-1 $-1 $3 $0 #
transform $-1 0.90630778703665 0.4226182617407 0 -0.4226182617407 0.90630778703665 0 0 0 1 -15.8603862731414 -7.39581958046226 25 1 1 0 0 #
shell $-1 $-1 $-1 $4 $1 #
face $-1 $5 $6 $3 $-1 $7 forward single #
face $-1 $8 $9 $3 $-1 $10 reversed single #
loop $-1 $-1 $11 $4 #
cone-surface $-1 22.5 8.70224089884993 0 -0 -0 -1 -8.43391445812886 -5.37299608346823 0 1 0 -1 0 #
face $-1 $12 $13 $3 $-1 $14 forward single #
loop $-1 $-1 $15 $5 #
plane-surface $-1 26.5630778703665 -4.226182617407 0 -0.4226182617407 -0.90630778703665 0 0 0 -1 0 #
coedge $-1 $16 $17 $18 $19 0 $6 $-1 #
face $-1 $20 $21 $3 $-1 $22 reversed single #
loop $-1 $-1 $23 $8 #
cone-surface $-1 7.52374018106769 -45 0 0 0 1 4.32879227876207 19.5259201423987 0 1 0 -1 0 #
coedge $-1 $24 $25 $26 $27 1 $9 $-1 #
coedge $-1 $26 $11 $28 $29 1 $6 $-1 #
coedge $-1 $11 $26 $30 $31 1 $6 $-1 #
coedge $-1 $32 $33 $11 $19 1 $34 $-1 #
edge $-1 $35 $36 $18 $37 0 #
face $-1 $38 $39 $3 $-1 $40 forward single #
loop $-1 $-1 $41 $12 #
plane-surface $-1 15.997621326849 -26.8838772933232 0 0.4226182617407 0.90630778703665 0 0 0 1 0 #
coedge $-1 $42 $43 $44 $45 0 $13 $-1 #
coedge $-1 $46 $15 $47 $48 1 $9 $-1 #
coedge $-1 $15 $46 $49 $50 1 $9 $-1 #
coedge $-1 $17 $16 $15 $27 0 $6 $-1 #
edge $-1 $51 $52 $15 $53 0 #
coedge $-1 $54 $47 $16 $29 0 $55 $-1 #
edge $-1 $51 $36 $28 $56 0 #
coedge $-1 $49 $57 $17 $31 0 $58 $-1 #
edge $-1 $35 $52 $30 $59 0 #
coedge $-1 $60 $18 $57 $61 1 $34 $-1 #
coedge $-1 $18 $60 $54 $62 1 $34 $-1 #
loop $-1 $-1 $18 $63 #
vertex $-1 $61 $64 #
vertex $-1 $62 $65 #
straight-curve $-1 12.5 8.70224089884993 0 0 0 1 #
face $-1 $66 $55 $3 $-1 $67 forward single #
loop $-1 $-1 $68 $20 #
cone-surface $-1 9.5 22 0 0 0 -1 2.12132034355964 2.12132034355964 0 1 0 1 0 #
coedge $-1 $69 $70 $71 $72 1 $21 $-1 #
coedge $-1 $71 $23 $73 $74 1 $13 $-1 #
coedge $-1 $23 $71 $75 $76 1 $13 $-1 #
coedge $-1 $77 $78 $23 $45 1 $79 $-1 #
edge $-1 $80 $81 $44 $82 0 #
coedge $-1 $25 $24 $83 $84 1 $9 $-1 #
coedge $-1 $28 $85 $24 $48 0 $55 $-1 #
edge $-1 $86 $51 $24 $87 0 #
coedge $-1 $88 $30 $25 $50 0 $58 $-1 #
edge $-1 $52 $89 $25 $90 0 #
vertex $-1 $48 $91 #
vertex $-1 $50 $92 #
straight-curve $-1 18.273817382593 -0.360836971516567 0 0 0 -1 #
coedge $-1 $93 $28 $33 $62 0 $55 $-1 #
loop $-1 $-1 $93 $38 #
ellipse-curve $-1 22.5 8.70224089884993 25 -0 -0 -1 -8.43391445812886 -5.37299608346823 0 1 #
coedge $-1 $30 $94 $32 $61 0 $58 $-1 #
loop $-1 $-1 $94 $95 #
ellipse-curve $-1 22.5 8.70224089884993 -25 0 0 1 -8.43391445812886 -5.37299608346823 0 1 #
coedge $-1 $33 $32 $96 $97 1 $34 $-1 #
edge $-1 $98 $35 $32 $99 0 #
edge $-1 $36 $100 $33 $101 0 #
face $-1 $102 $34 $3 $-1 $103 reversed single #
point $-1 12.5 8.70224089884993 -25 #
point $-1 12.5 8.70224089884993 25 #
face $-1 $104 $105 $3 $-1 $106 reversed single #
plane-surface $-1 0 0 25 0 0 1 1 0 0 0 #
coedge $-1 $107 $108 $109 $110 0 $39 $-1 #
coedge $-1 $111 $41 $112 $113 1 $21 $-1 #
coedge $-1 $41 $111 $114 $115 1 $21 $-1 #
coedge $-1 $43 $42 $41 $72 0 $13 $-1 #
edge $-1 $116 $117 $41 $118 0 #
coedge $-1 $119 $112 $42 $74 0 $58 $-1 #
edge $-1 $116 $81 $73 $120 0 #
coedge $-1 $114 $121 $43 $76 0 $55 $-1 #
edge $-1 $80 $117 $75 $122 0 #
coedge $-1 $123 $44 $121 $124 1 $79 $-1 #
coedge $-1 $44 $123 $119 $125 1 $79 $-1 #
loop $-1 $-1 $44 $126 #
vertex $-1 $124 $127 #
vertex $-1 $125 $128 #
straight-curve $-1 7.52374018106769 -25 0 0 0 -1 #
coedge $-1 $129 $130 $46 $84 0 $131 $-1 #
edge $-1 $89 $86 $46 $132 0 #
coedge $-1 $47 $133 $129 $134 1 $55 $-1 #
vertex $-1 $134 $135 #
straight-curve $-1 26.5630778703665 -4.226182617407 25 -0.90630778703665 0.4226182617407 0 #
coedge $-1 $136 $49 $130 $137 1 $58 $-1 #
vertex $-1 $50 $138 #
straight-curve $-1 26.5630778703665 -4.226182617407 -25 0.90630778703665 -0.4226182617407 0 #
point $-1 18.273817382593 -0.360836971516568 25 #
point $-1 18.273817382593 -0.360836971516568 -25 #
coedge $-1 $139 $54 $107 $140 1 $55 $-1 #
coedge $-1 $57 $141 $108 $142 1 $58 $-1 #
face $-1 $143 $58 $3 $-1 $144 reversed single #
coedge $-1 $108 $107 $60 $97 0 $39 $-1 #
edge $-1 $100 $98 $60 $145 0 #
vertex $-1 $142 $146 #
straight-curve $-1 12.5 0 -25 0 -1 0 #
vertex $-1 $62 $147 #
straight-curve $-1 12.5 0 25 0 1 0 #
face $-1 $-1 $148 $3 $-1 $149 reversed single #
plane-surface $-1 12.5 0 0 -1 0 0 0 -0 1 0 #
face $-1 $150 $151 $3 $-1 $152 forward single #
loop $-1 $-1 $109 $66 #
plane-surface $-1 0 25 0 0 -1 0 0 0 -1 0 #
coedge $-1 $96 $68 $93 $140 0 $39 $-1 #
coedge $-1 $68 $96 $94 $142 0 $39 $-1 #
coedge $-1 $153 $154 $68 $110 1 $105 $-1 #
edge $-1 $155 $156 $109 $157 0 #
coedge $-1 $70 $69 $158 $159 1 $21 $-1 #
coedge $-1 $73 $160 $69 $113 0 $58 $-1 #
edge $-1 $161 $116 $69 $162 0 #
coedge $-1 $163 $75 $70 $115 0 $55 $-1 #
edge $-1 $117 $164 $70 $165 0 #
vertex $-1 $113 $166 #
vertex $-1 $115 $167 #
straight-curve $-1 15.9761054158817 -26.873844259267 0 0 0 1 #
coedge $-1 $168 $73 $78 $125 0 $58 $-1 #
ellipse-curve $-1 7.52374018106769 -45 -25 0 0 1 4.32879227876207 19.5259201423987 0 1 #
coedge $-1 $75 $169 $77 $124 0 $55 $-1 #
ellipse-curve $-1 7.52374018106769 -45 25 -0 -0 -1 4.32879227876207 19.5259201423987 0 1 #
coedge $-1 $78 $77 $170 $171 1 $79 $-1 #
edge $-1 $172 $80 $77 $173 0 #
edge $-1 $81 $174 $78 $175 0 #
face $-1 $95 $79 $3 $-1 $176 reversed single #
point $-1 7.52374018106769 -25 25 #
point $-1 7.52374018106769 -25 -25 #
coedge $-1 $177 $83 $85 $134 0 $131 $-1 #
coedge $-1 $83 $177 $88 $137 0 $131 $-1 #
loop $-1 $-1 $83 $143 #
straight-curve $-1 46.5018491851728 -13.5237843757024 0 0 0 1 #
coedge $-1 $85 $163 $178 $179 0 $55 $-1 #
edge $-1 $86 $180 $85 $181 0 #
point $-1 46.5018491851728 -13.5237843757024 25 #
coedge $-1 $160 $88 $182 $183 0 $58 $-1 #
edge $-1 $184 $89 $88 $185 0 #
point $-1 46.5018491851728 -13.5237843757024 -25 #
coedge $-1 $186 $93 $154 $187 0 $55 $-1 #
edge $-1 $156 $100 $93 $188 0 #
coedge $-1 $94 $189 $153 $190 0 $58 $-1 #
edge $-1 $98 $155 $94 $191 0 #
face $-1 $192 $131 $3 $-1 $193 forward single #
plane-surface $-1 0 0 -25 0 0 1 1 0 0 0 #
straight-curve $-1 12.5 22 0 0 0 -1 #
point $-1 12.5 22 -25 #
point $-1 12.5 22 25 #
loop $-1 $-1 $194 $102 #
plane-surface $-1 -12.5 0 0 1 0 0 0 0 -1 0 #
face $-1 $126 $195 $3 $-1 $196 forward single #
loop $-1 $-1 $197 $104 #
cone-surface $-1 -9.5 22 0 0 0 -1 -2.12132034355964 2.12132034355964 0 1 0 1 0 #
coedge $-1 $198 $109 $141 $190 1 $105 $-1 #
coedge $-1 $109 $198 $139 $187 1 $105 $-1 #
vertex $-1 $190 $199 #
vertex $-1 $110 $200 #
straight-curve $-1 9.5 25 0 0 0 1 #
coedge $-1 $201 $202 $111 $159 0 $203 $-1 #
edge $-1 $164 $161 $111 $204 0 #
coedge $-1 $112 $136 $201 $205 1 $58 $-1 #
vertex $-1 $205 $206 #
straight-curve $-1 15.997621326849 -26.8838772933232 -25 -0.90630778703665 0.4226182617407 0 #
coedge $-1 $133 $114 $202 $207 1 $55 $-1 #
vertex $-1 $115 $208 #
straight-curve $-1 15.997621326849 -26.8838772933232 25 0.90630778703665 -0.4226182617407 0 #
point $-1 15.9761054158817 -26.873844259267 -25 #
point $-1 15.9761054158817 -26.873844259267 25 #
coedge $-1 $209 $119 $210 $211 1 $58 $-1 #
coedge $-1 $121 $212 $213 $214 1 $55 $-1 #
coedge $-1 $213 $210 $123 $171 0 $195 $-1 #
edge $-1 $174 $172 $123 $215 0 #
vertex $-1 $171 $216 #
straight-curve $-1 0 -25 25 1 0 0 #
vertex $-1 $125 $217 #
straight-curve $-1 0 -25 -25 -1 0 0 #
plane-surface $-1 0 -25 0 0 1 -0 -0 0 1 0 #
coedge $-1 $130 $129 $218 $219 0 $131 $-1 #
coedge $-1 $220 $218 $133 $179 1 $221 $-1 #
edge $-1 $222 $180 $178 $223 0 #
vertex $-1 $179 $224 #
ellipse-curve $-1 45.2339943999507 -16.2427077368124 25 -0 -0 -1 2.81907786235772 1.02606042997701 0 1 #
coedge $-1 $218 $220 $136 $183 1 $221 $-1 #
edge $-1 $184 $225 $182 $226 0 #
vertex $-1 $219 $227 #
ellipse-curve $-1 45.2339943999507 -16.2427077368124 -25 0 0 1 2.81907786235772 1.02606042997701 0 1 #
coedge $-1 $212 $139 $228 $229 1 $55 $-1 #
edge $-1 $156 $230 $154 $231 0 #
ellipse-curve $-1 9.5 22 25 -0 -0 -1 2.12132034355964 2.12132034355964 0 1 #
coedge $-1 $141 $209 $232 $233 1 $58 $-1 #
edge $-1 $234 $155 $153 $235 0 #
ellipse-curve $-1 9.5 22 -25 0 0 1 2.12132034355964 2.12132034355964 0 1 #
face $-1 $236 $221 $3 $-1 $237 reversed single #
cone-surface $-1 45.2339943999507 -16.2427077368124 0 0 0 -1 2.81907786235772 1.02606042997701 0 1 0 1 0 #
coedge $-1 $238 $239 $197 $240 1 $148 $-1 #
loop $-1 $-1 $170 $150 #
cone-surface $-1 -9.5 -22 0 -0 -0 -1 -2.12132034355964 -2.12132034355964 0 1 0 1 0 #
coedge $-1 $228 $232 $194 $240 0 $151 $-1 #
coedge $-1 $154 $153 $241 $242 1 $105 $-1 #
point $-1 9.5 25 -25 #
point $-1 9.5 25 25 #
coedge $-1 $243 $158 $160 $205 0 $203 $-1 #
coedge $-1 $158 $243 $163 $207 0 $203 $-1 #
loop $-1 $-1 $243 $236 #
straight-curve $-1 35.9363926416553 -36.1814790516187 0 0 0 -1 #
edge $-1 $161 $225 $160 $244 0 #
point $-1 35.9363926416553 -36.1814790516186 -25 #
edge $-1 $222 $164 $163 $245 0 #
point $-1 35.9363926416553 -36.1814790516186 25 #
coedge $-1 $189 $168 $238 $246 0 $58 $-1 #
coedge $-1 $170 $247 $168 $211 0 $195 $-1 #
edge $-1 $248 $174 $168 $249 0 #
coedge $-1 $169 $186 $239 $250 0 $55 $-1 #
coedge $-1 $247 $170 $169 $214 0 $195 $-1 #
edge $-1 $172 $251 $169 $252 0 #
straight-curve $-1 -9.5 -25 0 0 0 1 #
point $-1 -9.5 -25 25 #
point $-1 -9.5 -25 -25 #
coedge $-1 $178 $182 $177 $219 1 $221 $-1 #
edge $-1 $180 $184 $218 $253 0 #
coedge $-1 $182 $178 $243 $254 1 $221 $-1 #
loop $-1 $-1 $218 $192 #
vertex $-1 $254 $255 #
straight-curve $-1 43.938044274524 -26.1204864988826 25 0.4226182617407 0.90630778703665 0 #
point $-1 47.9529177610606 -17.5105625220345 25 #
vertex $-1 $183 $256 #
straight-curve $-1 43.938044274524 -26.1204864988826 -25 -0.4226182617407 -0.90630778703665 0 #
point $-1 47.9529177610606 -17.5105625220345 -25 #
coedge $-1 $241 $197 $186 $229 0 $151 $-1 #
edge $-1 $257 $230 $186 $258 0 #
vertex $-1 $187 $259 #
straight-curve $-1 0 25 25 -1 0 0 #
coedge $-1 $197 $241 $189 $233 0 $151 $-1 #
edge $-1 $234 $260 $189 $261 0 #
vertex $-1 $242 $262 #
straight-curve $-1 0 25 -25 1 0 0 #
face $-1 $63 $203 $3 $-1 $263 forward single #
plane-surface $-1 43.938044274524 -26.1204864988826 0 -0.90630778703665 0.4226182617407 0 0 0 1 0 #
coedge $-1 $264 $194 $209 $246 1 $148 $-1 #
coedge $-1 $194 $264 $212 $250 1 $148 $-1 #
edge $-1 $260 $257 $194 $265 0 #
coedge $-1 $232 $228 $198 $242 0 $151 $-1 #
edge $-1 $230 $234 $198 $266 0 #
coedge $-1 $202 $201 $220 $254 0 $203 $-1 #
ellipse-curve $-1 37.2042474268774 -33.4625556905087 -25 0 0 1 1.026060429977 -2.81907786235773 0 1 #
ellipse-curve $-1 37.2042474268774 -33.4625556905087 25 -0 -0 -1 1.026060429977 -2.81907786235773 0 1 #
edge $-1 $248 $260 $238 $267 0 #
coedge $-1 $210 $213 $264 $268 0 $195 $-1 #
vertex $-1 $211 $269 #
ellipse-curve $-1 -9.5 -22 -25 0 0 1 -2.12132034355964 -2.12132034355964 0 1 #
edge $-1 $257 $251 $239 $270 0 #
vertex $-1 $250 $271 #
ellipse-curve $-1 -9.5 -22 25 -0 -0 -1 -2.12132034355964 -2.12132034355964 0 1 #
straight-curve $-1 47.9529177610606 -17.5105625220345 0 0 0 -1 #
edge $-1 $225 $222 $220 $272 0 #
point $-1 39.9231707879873 -34.7304104757308 25 #
point $-1 39.9231707879873 -34.7304104757308 -25 #
vertex $-1 $229 $273 #
ellipse-curve $-1 -9.5 22 25 -0 -0 -1 -2.12132034355964 2.12132034355964 0 1 #
point $-1 -9.5 25 25 #
vertex $-1 $246 $274 #
ellipse-curve $-1 -9.5 22 -25 0 0 1 -2.12132034355964 2.12132034355964 0 1 #
point $-1 -9.5 25 -25 #
cone-surface $-1 37.2042474268774 -33.4625556905087 0 0 0 -1 1.026060429977 -2.81907786235773 0 1 0 1 0 #
coedge $-1 $239 $238 $247 $268 1 $148 $-1 #
straight-curve $-1 -12.5 22 0 0 0 1 #
straight-curve $-1 -9.5 25 0 0 0 -1 #
straight-curve $-1 -12.5 0 -25 0 1 0 #
edge $-1 $251 $248 $264 $275 0 #
point $-1 -12.5 -22 -25 #
straight-curve $-1 -12.5 0 25 0 -1 0 #
point $-1 -12.5 -22 25 #
straight-curve $-1 39.9231707879873 -34.7304104757308 0 0 0 1 #
point $-1 -12.5 22 25 #
point $-1 -12.5 22 -25 #
straight-curve $-1 -12.5 -22 0 0 0 -1 #
