600 0 2 0           
24 FBMach with ACIS - 6.0.3 13 ACIS 6.0.3 NT 24 Tue May 22 12:24:45 2001 
1 9.9999999999999995e-007 1e-010 
body $2 $3 $-1 $4 #
bdycol-kcp $-1 1 5 $5 $6 $7 $8 $9 #
model_id-kcp-attrib $-1 $-1 $-1 $0 1 990548684 70 1598423041 1 #
lump $-1 $-1 $10 $0 #
transform $-1 0.90630778703665038 0.42261826174070011 0 -0.42261826174070011 0.90630778703665038 0 0 0 1 -15.860386273141398 -7.3958195804622653 25 1 rotate no_reflect no_shear #
body $11 $12 $-1 $13 #
body $14 $15 $-1 $16 #
body $17 $18 $-1 $19 #
body $20 $21 $-1 $22 #
body $23 $24 $-1 $25 #
shell $-1 $-1 $-1 $26 $-1 $3 #
model_id-kcp-attrib $-1 $-1 $-1 $5 1 990548684 70 1598423042 1 #
lump $-1 $-1 $27 $5 #
transform $-1 1 0 0 0 1 0 0 0 1 2.7547551006726607 -5.039202022107375 25 1 no_rotate no_reflect no_shear #
rgb_color-st-attrib $-1 $28 $-1 $6 0.5 1 1 #
lump $-1 $29 $30 $6 #
transform $-1 1 0 0 0 1 0 0 0 1 2.7547551006726607 -5.039202022107375 25 1 no_rotate no_reflect no_shear #
rgb_color-st-attrib $-1 $31 $-1 $7 0.5 0.5 1 #
lump $-1 $-1 $32 $7 #
transform $-1 1 0 0 0 1 0 0 0 1 2.7547551006726607 -5.039202022107375 25 1 no_rotate no_reflect no_shear #
rgb_color-st-attrib $-1 $33 $-1 $8 0.5 0.5 1 #
lump $-1 $-1 $34 $8 #
transform $-1 1 0 0 0 1 0 0 0 1 2.7547551006726607 -5.039202022107375 25 1 no_rotate no_reflect no_shear #
rgb_color-st-attrib $-1 $35 $-1 $9 1 0.5 1 #
lump $-1 $-1 $36 $9 #
transform $-1 1 0 0 0 1 0 0 0 1 2.7547551006726607 -5.039202022107375 25 1 no_rotate no_reflect no_shear #
face $37 $38 $39 $10 $-1 $40 forward single #
shell $-1 $-1 $-1 $41 $-1 $12 #
model_id-kcp-attrib $-1 $-1 $14 $6 1 990548684 260 1594097667 1 #
lump $-1 $-1 $42 $6 #
shell $-1 $-1 $-1 $43 $-1 $15 #
model_id-kcp-attrib $-1 $-1 $17 $7 1 990548684 310 1597374468 1 #
shell $-1 $-1 $-1 $44 $-1 $18 #
model_id-kcp-attrib $-1 $-1 $20 $8 1 990548684 330 1598685189 1 #
shell $-1 $-1 $-1 $45 $-1 $21 #
model_id-kcp-attrib $-1 $-1 $23 $9 1 990548684 550 1596325894 1 #
shell $-1 $-1 $-1 $46 $-1 $24 #
model_id-kcp-attrib $-1 $-1 $-1 $26 1 990548684 70 1598423041 2 #
face $47 $48 $49 $10 $-1 $50 reversed single #
loop $-1 $-1 $51 $26 #
cone-surface $-1 22.5 8.7022408988499294 0 0 0 -1 -8.4339144581288608 -5.3729960834682302 0 1 I I 0 -1 10 forward I I I I #
face $52 $53 $54 $27 $-1 $55 forward single #
shell $-1 $-1 $-1 $56 $-1 $29 #
face $-1 $57 $58 $30 $-1 $59 reversed single #
face $-1 $60 $61 $32 $-1 $62 reversed single #
face $-1 $63 $64 $34 $-1 $65 reversed single #
face $-1 $66 $67 $36 $-1 $68 forward single #
model_id-kcp-attrib $-1 $-1 $-1 $38 1 990548684 70 1598423041 3 #
face $69 $70 $71 $10 $-1 $72 forward single #
loop $-1 $-1 $73 $38 #
plane-surface $-1 26.563077870366499 -4.2261826174069999 0 -0.42261826174069989 -0.90630778703664983 0 0 0 -1 forward_v I I I I #
coedge $-1 $74 $75 $76 $77 forward $39 $-1 #
model_id-kcp-attrib $-1 $-1 $-1 $41 1 990548684 70 1598423042 2 #
face $78 $79 $80 $27 $-1 $81 reversed single #
loop $-1 $-1 $82 $41 #
plane-surface $-1 0 0 25 0 0 1 1 0 0 forward_v I I I I #
face $-1 $83 $84 $42 $-1 $85 reversed single #
face $-1 $86 $87 $30 $-1 $88 reversed single #
loop $-1 $-1 $89 $43 #
plane-surface $-1 -14.534246807225928 -40.685643987679214 25 0.42261826174069989 -0.90630778703664983 0 0.90630778703664983 0.42261826174069989 0 forward_v I I I I #
face $-1 $90 $91 $32 $-1 $92 forward single #
loop $-1 $-1 $93 $44 #
plane-surface $-1 32.245244899327332 -7.4607979778926907 0 1 0 0 0 1 0 forward_v I I I I #
face $-1 $94 $95 $34 $-1 $96 forward single #
loop $-1 $-1 $97 $45 #
plane-surface $-1 -29.943988711772178 -7.6393458301136334 0 -0.90630778703664983 -0.42261826174069989 0 0.42261826174069989 -0.90630778703664983 0 forward_v I I I I #
face $-1 $98 $99 $36 $-1 $100 reversed single #
loop $-1 $-1 $101 $46 #
plane-surface $-1 9.6552618111460902 22.864882028210168 0 2.3473048690891701e-016 1 -2.1210230918211934e-017 0 2.1210230918211934e-017 1 forward_v I I I I #
model_id-kcp-attrib $-1 $-1 $-1 $48 1 990548684 70 1598423041 4 #
face $102 $103 $104 $10 $-1 $105 reversed single #
loop $-1 $-1 $106 $48 #
cone-surface $-1 7.5237401810676898 -45 0 0 0 1 4.3287922787620703 19.5259201423987 0 1 I I 0 -1 20.000000000000036 forward I I I I #
coedge $-1 $107 $108 $109 $110 reversed $49 $-1 #
coedge $-1 $109 $51 $111 $112 reversed $39 $-1 #
coedge $-1 $51 $109 $113 $114 reversed $39 $-1 #
coedge $-1 $115 $116 $51 $77 reversed $117 $-1 #
edge $118 $119 -25 $120 25 $76 $121 forward 7 unknown #
model_id-kcp-attrib $-1 $-1 $-1 $53 1 990548684 70 1598423042 3 #
face $-1 $122 $123 $27 $-1 $124 reversed single #
loop $-1 $-1 $125 $53 #
plane-surface $-1 0 0 -25 0 0 1 1 0 0 forward_v I I I I #
coedge $-1 $126 $127 $128 $129 forward $54 $-1 #
face $-1 $130 $131 $42 $-1 $132 forward single #
loop $-1 $-1 $133 $56 #
plane-surface $-1 0 40.685643987679185 0 0 -1 0 0 0 -1 forward_v I I I I #
face $-1 $134 $135 $30 $-1 $136 reversed single #
loop $-1 $-1 $137 $57 #
plane-surface $-1 0 0 -25 0 0 1 1 0 0 forward_v I I I I #
coedge $-1 $138 $139 $140 $141 reversed $58 $-1 #
face $-1 $142 $143 $32 $-1 $144 forward single #
loop $-1 $-1 $145 $60 #
plane-surface $-1 0 0 25 0 0 1 1 0 0 forward_v I I I I #
coedge $-1 $146 $147 $148 $149 forward $61 $-1 #
face $-1 $150 $151 $34 $-1 $152 reversed single #
loop $-1 $-1 $153 $63 #
plane-surface $-1 0 0 25 0 0 1 1 0 0 forward_v I I I I #
coedge $-1 $154 $155 $156 $157 reversed $64 $-1 #
face $-1 $158 $159 $36 $-1 $160 reversed single #
loop $-1 $-1 $161 $66 #
plane-surface $-1 -12.934721277035145 15.039202022107382 -25 1 0 0 0 1 0 forward_v I I I I #
coedge $-1 $162 $163 $164 $165 forward $67 $-1 #
model_id-kcp-attrib $-1 $-1 $-1 $70 1 990548684 70 1598423041 5 #
face $166 $167 $168 $10 $-1 $169 forward single #
loop $-1 $-1 $170 $70 #
plane-surface $-1 15.997621326849 -26.883877293323199 0 0.42261826174069989 0.90630778703664983 0 0 0 1 forward_v I I I I #
coedge $-1 $171 $172 $173 $174 forward $71 $-1 #
coedge $-1 $175 $73 $176 $177 reversed $49 $-1 #
coedge $-1 $73 $175 $178 $179 reversed $49 $-1 #
coedge $-1 $75 $74 $73 $110 forward $39 $-1 #
edge $-1 $180 -25 $181 25 $73 $182 forward 7 unknown #
coedge $-1 $183 $176 $74 $112 forward $184 $-1 #
edge $185 $180 -0.56723200689815723 $120 0.56723200689815623 $111 $186 forward 7 unknown #
coedge $-1 $178 $187 $75 $114 forward $188 $-1 #
edge $189 $119 -0.56723200689815623 $181 0.56723200689815723 $113 $190 forward 7 unknown #
coedge $-1 $191 $76 $187 $192 reversed $117 $-1 #
coedge $-1 $76 $191 $183 $193 reversed $117 $-1 #
loop $-1 $-1 $76 $194 #
attrib_edge_convexity-kcp-attrib $-1 $195 $-1 $77 4 #
vertex $-1 $192 $196 #
vertex $-1 $193 $197 #
straight-curve $-1 12.5 8.7022408988499294 0 0 0 1 I I #
face $-1 $198 $199 $27 $-1 $200 reversed single #
loop $-1 $-1 $201 $79 #
plane-surface $-1 0 -40.685643987679185 0 0 1 0 0 0 1 forward_v I I I I #
coedge $-1 $202 $203 $204 $205 forward $80 $-1 #
coedge $-1 $206 $82 $207 $208 forward $54 $-1 #
coedge $-1 $82 $206 $209 $210 forward $54 $-1 #
coedge $-1 $211 $212 $82 $129 reversed $213 $-1 #
edge $-1 $214 -40.685643987679185 $215 40.685643987679185 $128 $216 forward 7 unknown #
face $-1 $217 $218 $42 $-1 $88 reversed single #
loop $-1 $-1 $219 $83 #
plane-surface $-1 0 0 25 0 0 1 1 0 0 forward_v I I I I #
coedge $-1 $220 $221 $222 $223 forward $84 $-1 #
face $-1 $224 $225 $30 $-1 $132 forward single #
loop $-1 $-1 $140 $86 #
plane-surface $-1 40.509445255289684 0 0 -1 0 0 0 0 1 forward_v I I I I #
coedge $-1 $226 $227 $138 $228 forward $87 $-1 #
coedge $-1 $229 $89 $137 $228 reversed $58 $-1 #
coedge $-1 $89 $229 $230 $231 reversed $58 $-1 #
coedge $-1 $232 $233 $89 $141 forward $135 $-1 #
edge $-1 $234 -37.5 $235 12.5 $140 $236 forward 7 unknown #
face $-1 $237 $238 $32 $-1 $239 reversed single #
loop $-1 $-1 $148 $90 #
plane-surface $-1 -14.534246807225928 -40.685643987679214 25 0.42261826174069989 -0.90630778703664983 0 0.90630778703664983 0.42261826174069989 0 forward_v I I I I #
coedge $-1 $240 $241 $146 $242 reversed $91 $-1 #
coedge $-1 $243 $93 $145 $242 forward $61 $-1 #
coedge $-1 $93 $243 $244 $245 forward $61 $-1 #
coedge $-1 $246 $247 $93 $149 reversed $143 $-1 #
edge $248 $249 -37.500000000000007 $250 12.5 $148 $251 forward 7 unknown #
face $-1 $252 $253 $34 $-1 $254 reversed single #
loop $-1 $-1 $156 $94 #
plane-surface $-1 -40.509445255289684 0 0 1 0 0 0 0 -1 forward_v I I I I #
coedge $-1 $255 $256 $154 $257 reversed $95 $-1 #
coedge $-1 $258 $97 $153 $257 forward $64 $-1 #
coedge $-1 $97 $258 $259 $260 forward $64 $-1 #
coedge $-1 $261 $262 $97 $157 forward $151 $-1 #
edge $263 $264 -37.5 $265 12.5 $156 $266 forward 7 unknown #
face $-1 $267 $268 $36 $-1 $269 forward single #
loop $-1 $-1 $270 $98 #
plane-surface $-1 0 0 -25 0 0 1 1 0 0 forward_v I I I I #
coedge $-1 $271 $272 $163 $273 reversed $99 $-1 #
coedge $-1 $274 $101 $275 $276 forward $67 $-1 #
coedge $-1 $101 $274 $161 $273 forward $67 $-1 #
coedge $-1 $277 $278 $101 $165 reversed $279 $-1 #
edge $-1 $280 -17.762352182608186 $281 27.417613993754284 $164 $282 forward 7 unknown #
model_id-kcp-attrib $-1 $-1 $-1 $103 1 990548684 70 1598423041 6 #
face $283 $284 $184 $10 $-1 $285 forward single #
loop $-1 $-1 $286 $103 #
cone-surface $-1 9.5 22 0 0 0 -1 2.1213203435596402 2.1213203435596402 0 1 I I 0 1 2.9999999999999964 forward I I I I #
coedge $-1 $287 $288 $289 $290 reversed $104 $-1 #
coedge $-1 $289 $106 $291 $292 reversed $71 $-1 #
coedge $-1 $106 $289 $293 $294 reversed $71 $-1 #
coedge $-1 $295 $296 $106 $174 reversed $297 $-1 #
edge $298 $299 -25 $300 25 $173 $301 forward 7 unknown #
coedge $-1 $108 $107 $302 $303 reversed $49 $-1 #
coedge $-1 $111 $304 $107 $177 forward $184 $-1 #
edge $305 $306 -22.000000000000007 $180 9.1461869867375363 $107 $307 forward 7 unknown #
coedge $-1 $308 $113 $108 $179 forward $188 $-1 #
edge $309 $181 -9.1461869867375363 $310 22.000000000000007 $108 $311 forward 7 unknown #
vertex $-1 $177 $312 #
vertex $-1 $179 $313 #
straight-curve $-1 18.273817382592998 -0.36083697151656702 0 0 0 -1 I I #
coedge $-1 $314 $111 $116 $193 forward $184 $-1 #
loop $-1 $-1 $314 $167 #
model_id-kcp-attrib $-1 $315 $-1 $112 1 990548684 70 1598423041 22 #
ellipse-curve $-1 22.5 8.7022408988499294 25 0 0 -1 -8.4339144581288608 -5.3729960834682302 0 1 I I #
coedge $-1 $113 $316 $115 $192 forward $188 $-1 #
loop $-1 $-1 $316 $317 #
model_id-kcp-attrib $-1 $-1 $-1 $114 1 990548684 70 1598423041 27 #
ellipse-curve $-1 22.5 8.7022408988499294 -25 0 0 1 -8.4339144581288608 -5.3729960834682302 0 1 I I #
coedge $-1 $116 $115 $318 $319 reversed $117 $-1 #
edge $320 $321 -22 $119 -8.7022408988499294 $115 $322 forward 7 unknown #
edge $323 $120 8.7022408988499294 $324 22 $116 $325 forward 7 unknown #
face $326 $327 $117 $10 $-1 $328 reversed single #
convexity-sys-attrib $-1 $-1 $118 $77 #
point $-1 12.5 8.7022408988499294 -25 #
point $-1 12.5 8.7022408988499294 25 #
face $-1 $329 $330 $27 $-1 $331 reversed single #
loop $-1 $-1 $332 $122 #
plane-surface $-1 -40.509445255289684 0 0 1 0 0 0 0 -1 forward_v I I I I #
coedge $-1 $333 $209 $334 $335 forward $123 $-1 #
coedge $-1 $336 $125 $333 $337 forward $80 $-1 #
coedge $-1 $125 $336 $338 $339 forward $80 $-1 #
coedge $-1 $212 $211 $125 $205 reversed $213 $-1 #
edge $-1 $340 -40.685643987679185 $341 40.685643987679185 $204 $342 forward 7 unknown #
coedge $-1 $127 $126 $343 $344 forward $54 $-1 #
coedge $-1 $345 $346 $126 $208 reversed $330 $-1 #
edge $-1 $215 -40.509445255289684 $347 40.509445255289684 $207 $348 forward 7 unknown #
coedge $-1 $201 $349 $127 $210 reversed $123 $-1 #
edge $-1 $350 -40.509445255289684 $214 40.509445255289684 $209 $351 forward 7 unknown #
coedge $-1 $204 $128 $349 $352 forward $213 $-1 #
coedge $-1 $128 $204 $345 $353 reversed $213 $-1 #
loop $-1 $-1 $211 $329 #
vertex $-1 $129 $354 #
vertex $-1 $129 $355 #
straight-curve $-1 40.509445255289684 0 25 0 1 0 I I #
face $-1 $356 $357 $42 $-1 $358 reversed single #
loop $-1 $-1 $359 $130 #
coedge $-1 $360 $361 $362 $363 forward $131 $-1 #
coedge $-1 $364 $133 $365 $366 reversed $84 $-1 #
coedge $-1 $133 $364 $360 $367 reversed $84 $-1 #
coedge $-1 $362 $368 $133 $223 reversed $369 $-1 #
edge $-1 $370 -37.5 $371 12.5 $133 $372 forward 7 unknown #
face $-1 $-1 $373 $30 $-1 $374 reversed single #
loop $-1 $-1 $230 $134 #
coedge $-1 $227 $137 $233 $375 forward $87 $-1 #
coedge $-1 $137 $226 $376 $377 forward $87 $-1 #
edge $-1 $378 -15.183498599987619 $234 45.550495799963031 $137 $379 forward 7 unknown #
coedge $-1 $139 $138 $380 $381 reversed $58 $-1 #
coedge $-1 $382 $383 $139 $231 forward $225 $-1 #
edge $-1 $235 -45.550495799963031 $384 15.183498599987619 $230 $385 forward 7 unknown #
coedge $-1 $386 $140 $383 $387 reversed $135 $-1 #
coedge $-1 $140 $386 $226 $375 reversed $135 $-1 #
vertex $-1 $375 $388 #
vertex $-1 $231 $389 #
straight-curve $-1 40.509445255289684 -15.018348845802647 12.5 0 0 1 I I #
face $-1 $390 $391 $32 $-1 $392 reversed single #
loop $-1 $-1 $393 $142 #
plane-surface $-1 40.509445255289684 0 0 -1 0 0 0 0 1 forward_v I I I I #
coedge $-1 $394 $145 $247 $395 forward $91 $-1 #
coedge $-1 $145 $394 $396 $397 forward $91 $-1 #
edge $398 $250 -15.141609771368817 $399 44.416042976625533 $145 $400 forward 7 unknown #
coedge $-1 $147 $146 $401 $402 forward $61 $-1 #
coedge $-1 $403 $404 $147 $245 reversed $391 $-1 #
edge $405 $406 -44.416042976625533 $249 15.141609771368817 $244 $407 forward 7 unknown #
coedge $-1 $408 $148 $404 $409 reversed $143 $-1 #
coedge $-1 $148 $408 $240 $395 reversed $143 $-1 #
convexity-sys-attrib $-1 $-1 $-1 $149 #
vertex $-1 $149 $410 #
vertex $-1 $395 $411 #
straight-curve $-1 32.245244899327332 -18.872008760315154 12.5 0 0 1 I I #
face $-1 $-1 $412 $34 $-1 $413 reversed single #
loop $-1 $-1 $259 $150 #
plane-surface $-1 0 0 -25 0 0 1 1 0 0 forward_v I I I I #
coedge $-1 $256 $153 $262 $414 forward $95 $-1 #
coedge $-1 $153 $255 $415 $416 forward $95 $-1 #
edge $417 $264 -27.865638922627191 $418 33.596916767881567 $153 $419 forward 7 unknown #
coedge $-1 $155 $154 $420 $421 reversed $64 $-1 #
coedge $-1 $422 $423 $155 $260 reversed $253 $-1 #
edge $424 $425 -33.596916767881567 $265 27.865638922627191 $259 $426 forward 7 unknown #
coedge $-1 $427 $156 $423 $428 reversed $151 $-1 #
coedge $-1 $156 $427 $255 $414 reversed $151 $-1 #
convexity-sys-attrib $-1 $-1 $-1 $157 #
vertex $-1 $414 $429 #
vertex $-1 $260 $430 #
straight-curve $-1 -40.509445255289684 15.018348845802624 -12.5 0 0 -1 I I #
face $-1 $431 $279 $36 $-1 $432 forward single #
loop $-1 $-1 $275 $158 #
plane-surface $-1 32.245244899327332 -7.4607979778926907 0 1 0 0 0 1 0 forward_v I I I I #
coedge $-1 $433 $434 $274 $435 reversed $159 $-1 #
coedge $-1 $436 $161 $434 $437 reversed $99 $-1 #
coedge $-1 $161 $436 $277 $438 reversed $99 $-1 #
edge $-1 $439 -12.5 $280 37.5 $161 $440 forward 7 unknown #
coedge $-1 $163 $162 $270 $435 forward $67 $-1 #
coedge $-1 $441 $442 $162 $276 reversed $268 $-1 #
edge $-1 $281 -25 $443 25 $275 $444 forward 7 unknown #
coedge $-1 $445 $164 $272 $438 forward $279 $-1 #
coedge $-1 $164 $446 $441 $447 forward $279 $-1 #
loop $-1 $-1 $164 $267 #
vertex $-1 $438 $448 #
vertex $-1 $276 $449 #
straight-curve $-1 4.8276309055730477 22.864882028210168 25 1 -2.3473048690891701e-016 0 I I #
model_id-kcp-attrib $-1 $-1 $-1 $167 1 990548684 70 1598423041 7 #
face $450 $451 $452 $10 $-1 $453 reversed single #
plane-surface $-1 0 0 25 0 0 1 1 0 0 forward_v I I I I #
coedge $-1 $454 $455 $456 $457 forward $168 $-1 #
coedge $-1 $458 $170 $459 $460 reversed $104 $-1 #
coedge $-1 $170 $458 $461 $462 reversed $104 $-1 #
coedge $-1 $172 $171 $170 $290 forward $71 $-1 #
edge $463 $464 -25 $465 25 $170 $466 forward 7 unknown #
coedge $-1 $467 $459 $171 $292 forward $188 $-1 #
edge $-1 $464 -0.21816615649929183 $300 0.21816615649929144 $291 $468 forward 7 unknown #
coedge $-1 $461 $469 $172 $294 forward $184 $-1 #
edge $470 $299 -0.21816615649929144 $465 0.21816615649929183 $293 $471 forward 7 unknown #
coedge $-1 $472 $173 $469 $473 reversed $297 $-1 #
coedge $-1 $173 $472 $467 $474 reversed $297 $-1 #
loop $-1 $-1 $173 $475 #
attrib_edge_convexity-kcp-attrib $-1 $476 $-1 $174 4 #
vertex $-1 $473 $477 #
vertex $-1 $474 $478 #
straight-curve $-1 7.5237401810676898 -25 0 0 0 -1 I I #
coedge $-1 $479 $480 $175 $303 forward $481 $-1 #
edge $-1 $310 -25 $306 25 $175 $482 forward 7 unknown #
coedge $-1 $176 $483 $479 $484 reversed $184 $-1 #
model_id-kcp-attrib $-1 $485 $-1 $177 1 990548684 70 1598423041 21 #
vertex $-1 $484 $486 #
straight-curve $-1 26.563077870366499 -4.2261826174069999 25 -0.90630778703665005 0.4226182617407 0 I I #
coedge $-1 $487 $178 $480 $488 reversed $188 $-1 #
model_id-kcp-attrib $-1 $-1 $-1 $179 1 990548684 70 1598423041 28 #
vertex $-1 $179 $489 #
straight-curve $-1 26.563077870366499 -4.2261826174069999 -25 0.90630778703665005 -0.4226182617407 0 I I #
point $-1 18.273817382592998 -0.36083697151656802 25 #
point $-1 18.273817382592998 -0.36083697151656802 -25 #
coedge $-1 $490 $183 $454 $491 reversed $184 $-1 #
attrib_edge_convexity-kcp-attrib $-1 $492 $185 $112 1 #
coedge $-1 $187 $493 $455 $494 reversed $188 $-1 #
face $495 $496 $188 $10 $-1 $497 reversed single #
coedge $-1 $455 $454 $191 $319 forward $168 $-1 #
edge $498 $324 -25 $321 25 $191 $499 forward 7 unknown #
attrib_edge_convexity-kcp-attrib $-1 $500 $-1 $192 1 #
vertex $-1 $494 $501 #
straight-curve $-1 12.5 0 -25 0 -1 0 I I #
model_id-kcp-attrib $-1 $502 $-1 $193 1 990548684 70 1598423041 23 #
vertex $-1 $193 $503 #
straight-curve $-1 12.5 0 25 0 1 0 I I #
model_id-kcp-attrib $-1 $-1 $-1 $194 1 990548684 70 1598423041 16 #
face $504 $-1 $505 $10 $-1 $506 reversed single #
plane-surface $-1 12.5 0 0 -1 0 0 0 0 1 forward_v I I I I #
face $-1 $-1 $213 $27 $-1 $507 reversed single #
loop $-1 $-1 $345 $198 #
plane-surface $-1 0 40.685643987679185 0 0 -1 0 0 0 -1 forward_v I I I I #
coedge $-1 $508 $343 $346 $509 forward $199 $-1 #
coedge $-1 $349 $201 $202 $337 reversed $123 $-1 #
coedge $-1 $343 $508 $201 $335 reversed $199 $-1 #
edge $-1 $350 -25 $510 25 $334 $511 forward 7 unknown #
coedge $-1 $203 $202 $508 $512 forward $80 $-1 #
edge $-1 $341 -40.509445255289684 $510 40.509445255289684 $333 $513 forward 7 unknown #
coedge $-1 $346 $345 $203 $339 reversed $330 $-1 #
edge $-1 $514 -40.509445255289684 $340 40.509445255289684 $338 $515 forward 7 unknown #
vertex $-1 $205 $516 #
vertex $-1 $352 $517 #
straight-curve $-1 40.509445255289684 0 -25 0 -1 0 I I #
coedge $-1 $332 $334 $206 $344 reversed $199 $-1 #
edge $-1 $347 -40.685643987679185 $350 40.685643987679185 $343 $518 forward 7 unknown #
coedge $-1 $338 $207 $212 $353 forward $330 $-1 #
coedge $-1 $207 $338 $332 $509 reversed $330 $-1 #
vertex $-1 $208 $519 #
straight-curve $-1 0 40.685643987679185 25 -1 0 0 I I #
coedge $-1 $209 $333 $211 $352 reversed $123 $-1 #
vertex $-1 $344 $520 #
straight-curve $-1 0 -40.685643987679185 25 1 0 0 I I #
edge $-1 $214 -25 $341 25 $211 $521 forward 7 unknown #
edge $-1 $215 -25 $340 25 $212 $522 forward 7 unknown #
point $-1 40.509445255289684 -40.685643987679185 25 #
point $-1 40.509445255289684 40.685643987679185 25 #
face $-1 $-1 $369 $42 $-1 $523 reversed single #
loop $-1 $-1 $524 $217 #
plane-surface $-1 -40.509445255289684 0 0 1 0 0 0 0 -1 forward_v I I I I #
coedge $-1 $525 $365 $368 $526 forward $218 $-1 #
coedge $-1 $361 $219 $221 $367 forward $131 $-1 #
coedge $-1 $219 $360 $527 $528 forward $131 $-1 #
coedge $-1 $529 $222 $219 $363 reversed $369 $-1 #
edge $-1 $530 -15.18349859998767 $370 45.550495799963031 $219 $531 forward 7 unknown #
coedge $-1 $221 $220 $532 $533 reversed $84 $-1 #
coedge $-1 $359 $525 $220 $366 forward $218 $-1 #
edge $-1 $534 -40.509445255289684 $371 14.534246807225905 $220 $535 forward 7 unknown #
edge $-1 $370 -14.534246807225909 $536 40.509445255289684 $221 $537 forward 7 unknown #
coedge $-1 $222 $529 $359 $526 reversed $369 $-1 #
loop $-1 $-1 $222 $356 #
vertex $-1 $367 $538 #
vertex $-1 $526 $539 #
straight-curve $-1 14.534246807225905 40.685643987679185 -12.5 0 0 -1 I I #
loop $-1 $-1 $380 $224 #
plane-surface $-1 0 -40.685643987679185 0 0 1 0 0 0 1 forward_v I I I I #
edge $-1 $234 15.018348845802645 $540 40.685643987679185 $233 $541 forward 7 unknown #
coedge $-1 $542 $380 $227 $377 reversed $373 $-1 #
edge $-1 $540 -40.509445255289684 $378 14.534246807225868 $376 $543 forward 7 unknown #
vertex $-1 $381 $544 #
straight-curve $-1 -0.77332379159701858 -34.268820202210073 -25.000000000000007 0.90630778703664983 0.42261826174069989 0 I I #
coedge $-1 $376 $545 $229 $381 forward $373 $-1 #
edge $-1 $384 -12.5 $378 37.5 $380 $546 forward 7 unknown #
coedge $-1 $383 $230 $545 $547 forward $225 $-1 #
coedge $-1 $230 $382 $232 $387 forward $225 $-1 #
vertex $-1 $547 $548 #
straight-curve $-1 -0.77332379159701858 -34.268820202210073 25 -0.90630778703664983 -0.42261826174069989 0 I I #
coedge $-1 $233 $232 $542 $549 forward $135 $-1 #
edge $-1 $550 -40.685643987679185 $235 -15.018348845802645 $232 $551 forward 7 unknown #
point $-1 40.509445255289684 -15.018348845802645 -25 #
point $-1 40.509445255289684 -15.018348845802645 25 #
face $-1 $-1 $552 $32 $-1 $553 reversed single #
loop $-1 $-1 $244 $237 #
plane-surface $-1 0 0 -25 0 0 1 1 0 0 forward_v I I I I #
coedge $-1 $554 $555 $408 $556 forward $238 $-1 #
coedge $-1 $241 $240 $555 $557 forward $91 $-1 #
edge $-1 $250 36.431959609312209 $558 45.550495799963031 $240 $559 forward 7 unknown #
coedge $-1 $560 $401 $241 $397 reversed $552 $-1 #
edge $-1 $561 -40.509445255289684 $399 -32.245244899327332 $396 $562 forward 7 unknown #
convexity-sys-attrib $-1 $-1 $-1 $242 #
vertex $-1 $242 $563 #
straight-curve $-1 32.245244899327332 -3.7303989889463454 25 0 1 0 I I #
coedge $-1 $396 $564 $243 $402 reversed $552 $-1 #
edge $565 $399 -25 $406 25 $401 $566 forward 7 unknown #
coedge $-1 $567 $244 $564 $568 forward $391 $-1 #
coedge $-1 $244 $567 $246 $409 forward $391 $-1 #
convexity-sys-attrib $-1 $-1 $-1 $245 #
vertex $-1 $568 $569 #
straight-curve $-1 32.245244899327332 -3.7303989889463454 -25 0 -1 0 I I #
coedge $-1 $247 $246 $393 $556 reversed $143 $-1 #
edge $-1 $570 -45.550495799963031 $249 -36.431959609312209 $404 $571 forward 7 unknown #
point $-1 32.245244899327332 -18.872008760315161 -25.000000000000007 #
point $-1 32.245244899327332 -18.872008760315161 25 #
loop $-1 $-1 $420 $252 #
plane-surface $-1 0 -40.685643987679185 0 0 1 0 0 0 1 forward_v I I I I #
edge $-1 $264 -15.018348845802622 $572 40.685643987679185 $262 $573 forward 7 unknown #
coedge $-1 $574 $420 $256 $416 reversed $412 $-1 #
edge $-1 $572 -40.509445255289684 $418 -14.534246807225868 $415 $575 forward 7 unknown #
convexity-sys-attrib $-1 $-1 $-1 $257 #
vertex $-1 $421 $576 #
straight-curve $-1 -28.73291737151499 -10.236496700525958 25.000000000000004 0.42261826174069989 -0.90630778703664983 0 I I #
coedge $-1 $415 $577 $258 $421 forward $412 $-1 #
edge $578 $425 -37.5 $418 12.5 $420 $579 forward 7 unknown #
coedge $-1 $423 $259 $577 $580 forward $253 $-1 #
coedge $-1 $259 $422 $261 $428 forward $253 $-1 #
convexity-sys-attrib $-1 $-1 $-1 $260 #
vertex $-1 $580 $581 #
straight-curve $-1 -28.73291737151499 -10.236496700525958 -25.000000000000004 -0.42261826174069989 0.90630778703664983 0 I I #
coedge $-1 $262 $261 $574 $582 reversed $151 $-1 #
edge $-1 $583 -40.685643987679185 $265 15.018348845802624 $261 $584 forward 7 unknown #
point $-1 -40.509445255289684 15.018348845802622 25 #
point $-1 -40.509445255289684 15.018348845802624 -25 #
face $-1 $585 $586 $36 $-1 $587 reversed single #
plane-surface $-1 0 0 25 0 0 1 1 0 0 forward_v I I I I #
coedge $-1 $588 $270 $442 $589 forward $159 $-1 #
coedge $-1 $270 $590 $271 $437 forward $159 $-1 #
edge $-1 $443 -27.417613993754284 $439 17.762352182608186 $270 $591 forward 7 unknown #
coedge $-1 $272 $271 $592 $593 reversed $99 $-1 #
edge $-1 $594 7.5196010110536768 $439 15.345281017156481 $434 $595 forward 7 unknown #
edge $-1 $280 -15.345281017156481 $596 -7.5196010110536768 $277 $597 forward 7 unknown #
vertex $-1 $435 $598 #
straight-curve $-1 -12.934721277035145 22.864882028210175 -12.5 0 2.1210230918211934e-017 1 I I #
coedge $-1 $599 $275 $278 $447 reversed $268 $-1 #
coedge $-1 $275 $599 $433 $589 reversed $268 $-1 #
vertex $-1 $589 $600 #
straight-curve $-1 32.245244899327332 22.864882028210161 -3.2160733784062205e-016 0 -2.1210230918211934e-017 -1 I I #
coedge $-1 $601 $277 $602 $603 forward $279 $-1 #
coedge $-1 $278 $601 $604 $605 reversed $279 $-1 #
edge $-1 $606 8.7696010110537053 $281 26.595281017156509 $278 $607 forward 7 unknown #
point $-1 -12.934721277035138 22.864882028210172 25 #
point $-1 32.245244899327332 22.864882028210165 25 #
model_id-kcp-attrib $-1 $-1 $-1 $284 1 990548684 70 1598423041 8 #
face $608 $609 $610 $10 $-1 $611 forward single #
loop $-1 $-1 $456 $284 #
plane-surface $-1 0 25 0 0 -1 0 0 0 -1 forward_v I I I I #
coedge $-1 $318 $286 $314 $491 forward $168 $-1 #
coedge $-1 $286 $318 $316 $494 forward $168 $-1 #
coedge $-1 $612 $613 $286 $457 reversed $452 $-1 #
edge $614 $615 -25 $616 25 $456 $617 forward 7 unknown #
coedge $-1 $288 $287 $618 $619 reversed $104 $-1 #
coedge $-1 $291 $620 $287 $460 forward $188 $-1 #
edge $621 $622 -22.000000000000007 $464 0.023740181067668151 $287 $623 forward 7 unknown #
coedge $-1 $624 $293 $288 $462 forward $184 $-1 #
edge $625 $465 -0.023740181067668151 $626 22.000000000000007 $288 $627 forward 7 unknown #
attrib_edge_convexity-kcp-attrib $-1 $628 $-1 $290 4 #
vertex $-1 $460 $629 #
vertex $-1 $462 $630 #
straight-curve $-1 15.976105415881699 -26.873844259266999 0 0 0 1 I I #
coedge $-1 $631 $291 $296 $474 forward $188 $-1 #
ellipse-curve $-1 7.5237401810676898 -45 -25 0 0 1 4.3287922787620703 19.5259201423987 0 1 I I #
coedge $-1 $293 $632 $295 $473 forward $184 $-1 #
attrib_edge_convexity-kcp-attrib $-1 $633 $-1 $294 1 #
ellipse-curve $-1 7.5237401810676898 -45 25 0 0 -1 4.3287922787620703 19.5259201423987 0 1 I I #
coedge $-1 $296 $295 $634 $635 reversed $297 $-1 #
edge $636 $637 -9.5 $299 7.5237401810676898 $295 $638 forward 7 unknown #
edge $639 $300 -7.5237401810676898 $640 9.5 $296 $641 forward 7 unknown #
face $642 $317 $297 $10 $-1 $643 reversed single #
convexity-sys-attrib $-1 $-1 $298 $174 #
point $-1 7.5237401810676898 -25 25 #
point $-1 7.5237401810676898 -25 -25 #
coedge $-1 $644 $302 $304 $484 forward $481 $-1 #
coedge $-1 $302 $644 $308 $488 forward $481 $-1 #
loop $-1 $-1 $302 $496 #
straight-curve $-1 46.501849185172802 -13.5237843757024 0 0 0 1 I I #
coedge $-1 $304 $624 $645 $646 forward $184 $-1 #
edge $647 $306 -0.78539816339745339 $648 0.78539816339745916 $304 $649 forward 7 unknown #
attrib_edge_convexity-kcp-attrib $-1 $650 $305 $177 1 #
point $-1 46.501849185172802 -13.5237843757024 25 #
coedge $-1 $620 $308 $651 $652 forward $188 $-1 #
edge $653 $654 -0.78539816339745916 $310 0.78539816339745339 $308 $655 forward 7 unknown #
point $-1 46.501849185172802 -13.5237843757024 -25 #
coedge $-1 $656 $314 $613 $657 forward $184 $-1 #
edge $658 $616 -0.78539816339744828 $324 0.78539816339744828 $314 $659 forward 7 unknown #
convexity-sys-attrib $-1 $-1 $315 $112 #
coedge $-1 $316 $660 $612 $661 forward $188 $-1 #
edge $662 $321 -0.78539816339744828 $615 0.78539816339744828 $316 $663 forward 7 unknown #
model_id-kcp-attrib $-1 $-1 $-1 $317 1 990548684 70 1598423041 12 #
face $664 $665 $481 $10 $-1 $666 forward single #
plane-surface $-1 0 0 -25 0 0 1 1 0 0 forward_v I I I I #
attrib_edge_convexity-kcp-attrib $-1 $667 $-1 $319 3 #
straight-curve $-1 12.5 22 0 0 0 -1 I I #
convexity-sys-attrib $-1 $668 $320 $192 #
point $-1 12.5 22 -25 #
attrib_edge_convexity-kcp-attrib $-1 $669 $323 $193 1 #
point $-1 12.5 22 25 #
model_id-kcp-attrib $-1 $-1 $-1 $327 1 990548684 70 1598423041 17 #
loop $-1 $-1 $670 $327 #
plane-surface $-1 -12.5 0 0 1 0 0 0 0 -1 forward_v I I I I #
plane-surface $-1 40.509445255289684 0 0 -1 0 0 0 0 1 forward_v I I I I #
coedge $-1 $334 $332 $336 $512 reversed $199 $-1 #
edge $-1 $347 -25 $514 25 $346 $671 forward 7 unknown #
vertex $-1 $512 $672 #
straight-curve $-1 -40.509445255289684 -40.685643987679185 0 0 0 -1 I I #
edge $-1 $510 -40.685643987679185 $514 40.685643987679185 $508 $673 forward 7 unknown #
straight-curve $-1 0 -40.685643987679185 -25 -1 0 0 I I #
vertex $-1 $339 $674 #
straight-curve $-1 0 40.685643987679185 -25 1 0 0 I I #
point $-1 40.509445255289684 40.685643987679185 -25 #
point $-1 40.509445255289684 -40.685643987679185 -25 #
straight-curve $-1 -40.509445255289684 0 25 0 -1 0 I I #
point $-1 -40.509445255289684 40.685643987679185 25 #
point $-1 -40.509445255289684 -40.685643987679185 25 #
straight-curve $-1 40.509445255289684 -40.685643987679185 0 0 0 -1 I I #
straight-curve $-1 40.509445255289684 40.685643987679185 0 0 0 -1 I I #
plane-surface $-1 -40.509445255289698 15.018348845802617 -25 -0.42261826174069989 0.90630778703664983 0 -0.90630778703664983 -0.42261826174069989 0 forward_v I I I I #
coedge $-1 $527 $675 $529 $676 forward $357 $-1 #
coedge $-1 $365 $359 $675 $677 forward $218 $-1 #
edge $-1 $371 -45.550495799963031 $678 15.183498599987669 $359 $679 forward 7 unknown #
coedge $-1 $532 $524 $361 $528 reversed $357 $-1 #
edge $-1 $536 -40.685643987679185 $530 -15.018348845802622 $527 $680 forward 7 unknown #
coedge $-1 $368 $362 $524 $676 reversed $369 $-1 #
vertex $-1 $676 $681 #
straight-curve $-1 -26.74852223966079 21.435172631271762 25.000000000000007 0.90630778703664983 0.42261826174069989 0 I I #
coedge $-1 $675 $527 $364 $533 forward $357 $-1 #
edge $-1 $536 -25 $534 25 $364 $682 forward 7 unknown #
vertex $-1 $366 $683 #
straight-curve $-1 0 40.685643987679185 -25 1 0 0 I I #
vertex $-1 $367 $684 #
straight-curve $-1 0 40.685643987679185 25 -1 0 0 I I #
point $-1 14.534246807225909 40.685643987679185 25 #
point $-1 14.534246807225905 40.685643987679185 -25 #
vertex $-1 $549 $685 #
straight-curve $-1 40.509445255289684 0 -25 0 -1 0 I I #
coedge $-1 $545 $376 $386 $549 reversed $373 $-1 #
straight-curve $-1 0 -40.685643987679185 -25 -1 0 0 I I #
point $-1 -14.534246807225868 -40.685643987679185 -25 #
coedge $-1 $380 $542 $382 $547 reversed $373 $-1 #
straight-curve $-1 -14.534246807225877 -40.685643987679185 12.5 0 0 -1 I I #
edge $-1 $384 -14.534246807225868 $550 40.509445255289684 $545 $686 forward 7 unknown #
point $-1 -14.534246807225868 -40.685643987679185 25 #
edge $-1 $550 -25 $540 25 $386 $687 forward 7 unknown #
vertex $-1 $387 $688 #
straight-curve $-1 40.509445255289684 0 25 0 1 0 I I #
loop $-1 $-1 $401 $390 #
plane-surface $-1 0 40.685643987679185 0 0 -1 0 0 0 -1 forward_v I I I I #
coedge $-1 $689 $393 $567 $690 reversed $238 $-1 #
coedge $-1 $393 $689 $394 $557 reversed $238 $-1 #
edge $-1 $558 -12.5 $570 37.5 $393 $691 forward 7 unknown #
edge $-1 $558 -15.018348845802645 $561 40.685643987679185 $555 $692 forward 7 unknown #
vertex $-1 $557 $693 #
straight-curve $-1 -0.77332379159701858 -34.268820202210073 25 0.90630778703664983 0.42261826174069989 0 I I #
coedge $-1 $564 $396 $689 $694 forward $552 $-1 #
vertex $-1 $557 $695 #
straight-curve $-1 0 40.685643987679185 25 -1 0 0 I I #
point $-1 32.245244899327332 40.685643987679185 25 #
coedge $-1 $401 $560 $403 $568 reversed $552 $-1 #
convexity-sys-attrib $-1 $-1 $-1 $402 #
straight-curve $-1 32.245244899327332 40.685643987679185 0 0 0 -1 I I #
coedge $-1 $404 $403 $554 $690 forward $391 $-1 #
edge $-1 $406 32.245244899327332 $696 40.509445255289684 $564 $697 forward 7 unknown #
point $-1 32.245244899327332 40.685643987679185 -25 #
vertex $-1 $409 $698 #
straight-curve $-1 -0.77332379159701858 -34.268820202210073 -25.000000000000007 -0.90630778703664983 -0.42261826174069989 0 I I #
vertex $-1 $414 $699 #
straight-curve $-1 -40.509445255289684 0 25 0 -1 0 I I #
coedge $-1 $577 $415 $427 $582 forward $412 $-1 #
straight-curve $-1 0 -40.685643987679185 25 1 0 0 I I #
point $-1 -14.534246807225868 -40.685643987679185 25 #
coedge $-1 $420 $574 $422 $580 reversed $412 $-1 #
convexity-sys-attrib $-1 $-1 $-1 $421 #
straight-curve $-1 -14.534246807225877 -40.685643987679185 12.5 0 0 1 I I #
edge $-1 $425 14.534246807225868 $583 40.509445255289684 $577 $700 forward 7 unknown #
point $-1 -14.534246807225868 -40.685643987679185 -25 #
edge $-1 $572 -25 $583 25 $427 $701 forward 7 unknown #
vertex $-1 $428 $702 #
straight-curve $-1 -40.509445255289684 0 -25 0 1 0 I I #
face $-1 $703 $704 $36 $-1 $705 reversed single #
loop $-1 $-1 $706 $431 #
plane-surface $-1 13.672151405958552 5.0392020221073608 0 0 1 0 -1 0 0 forward_v I I I I #
coedge $-1 $707 $433 $708 $709 reversed $159 $-1 #
edge $-1 $443 -26.595281017156509 $710 -8.7696010110537053 $433 $711 forward 7 unknown #
coedge $-1 $434 $707 $712 $713 forward $159 $-1 #
straight-curve $-1 4.8276309055730477 22.864882028210168 -25 -1 2.3473048690891701e-016 0 I I #
coedge $-1 $712 $602 $436 $593 forward $714 $-1 #
edge $-1 $596 -37.5 $594 12.5 $592 $715 forward 7 unknown #
vertex $-1 $437 $716 #
straight-curve $-1 -12.934721277035145 7.5196010110536911 -25 0 1 0 I I #
vertex $-1 $603 $717 #
straight-curve $-1 -12.934721277035145 7.5196010110536911 25 0 -1 0 I I #
point $-1 -12.934721277035138 22.864882028210172 -25 #
coedge $-1 $442 $441 $718 $719 reversed $268 $-1 #
point $-1 32.245244899327332 22.864882028210165 -25 #
coedge $-1 $446 $445 $720 $721 forward $279 $-1 #
coedge $-1 $592 $722 $445 $603 reversed $714 $-1 #
edge $-1 $596 -16.230956403027097 $723 -11.56787982147711 $445 $724 forward 7 unknown #
coedge $-1 $706 $718 $446 $605 forward $586 $-1 #
edge $725 $606 -25.409169196348056 $726 8.7370177903894977 $446 $727 forward 7 unknown #
vertex $-1 $447 $728 #
straight-curve $-1 32.245244899327332 -3.7303989889463454 25 0 1 0 I I #
model_id-kcp-attrib $-1 $-1 $-1 $451 1 990548684 70 1598423041 9 #
face $729 $475 $730 $10 $-1 $731 forward single #
loop $-1 $-1 $732 $451 #
cone-surface $-1 -9.5 22 0 0 0 -1 -2.1213203435596402 2.1213203435596402 0 1 I I 0 1 2.9999999999999964 forward I I I I #
coedge $-1 $733 $456 $493 $661 reversed $452 $-1 #
coedge $-1 $456 $733 $490 $657 reversed $452 $-1 #
attrib_edge_convexity-kcp-attrib $-1 $734 $-1 $457 3 #
vertex $-1 $661 $735 #
vertex $-1 $457 $736 #
straight-curve $-1 9.5 25 0 0 0 1 I I #
coedge $-1 $737 $738 $458 $619 forward $739 $-1 #
edge $740 $626 -25 $622 25 $458 $741 forward 7 unknown #
coedge $-1 $459 $487 $737 $742 reversed $188 $-1 #
attrib_edge_convexity-kcp-attrib $-1 $743 $-1 $460 1 #
vertex $-1 $742 $744 #
straight-curve $-1 15.997621326849 -26.883877293323199 -25 -0.90630778703665005 0.4226182617407 0 I I #
coedge $-1 $483 $461 $738 $745 reversed $184 $-1 #
attrib_edge_convexity-kcp-attrib $-1 $746 $-1 $462 1 #
vertex $-1 $462 $747 #
straight-curve $-1 15.997621326849 -26.883877293323199 25 0.90630778703665005 -0.4226182617407 0 I I #
convexity-sys-attrib $-1 $-1 $463 $290 #
point $-1 15.976105415881699 -26.873844259266999 -25 #
point $-1 15.976105415881699 -26.873844259266999 25 #
coedge $-1 $748 $467 $749 $750 reversed $188 $-1 #
coedge $-1 $469 $751 $752 $753 reversed $184 $-1 #
convexity-sys-attrib $-1 $-1 $470 $294 #
coedge $-1 $752 $749 $472 $635 forward $730 $-1 #
edge $754 $640 -25 $637 25 $472 $755 forward 7 unknown #
attrib_edge_convexity-kcp-attrib $-1 $756 $-1 $473 1 #
vertex $-1 $635 $757 #
straight-curve $-1 0 -25 25 1 0 0 I I #
attrib_edge_convexity-kcp-attrib $-1 $758 $-1 $474 1 #
vertex $-1 $474 $759 #
straight-curve $-1 0 -25 -25 -1 0 0 I I #
model_id-kcp-attrib $-1 $-1 $-1 $475 1 990548684 70 1598423041 11 #
plane-surface $-1 0 -25 0 0 1 0 0 0 1 forward_v I I I I #
coedge $-1 $480 $479 $760 $761 forward $481 $-1 #
coedge $-1 $762 $760 $483 $646 reversed $763 $-1 #
edge $764 $765 -9.5000000000000462 $648 9.4999999999999076 $645 $766 forward 7 unknown #
model_id-kcp-attrib $-1 $767 $-1 $484 1 990548684 70 1598423041 20 #
vertex $-1 $646 $768 #
ellipse-curve $-1 45.233994399950703 -16.242707736812399 25 0 0 -1 2.81907786235772 1.02606042997701 0 1 I I #
convexity-sys-attrib $-1 $-1 $485 $177 #
coedge $-1 $760 $762 $487 $652 reversed $763 $-1 #
edge $769 $654 -9.4999999999999076 $770 9.5000000000000462 $651 $771 forward 7 unknown #
model_id-kcp-attrib $-1 $-1 $-1 $488 1 990548684 70 1598423041 29 #
vertex $-1 $761 $772 #
ellipse-curve $-1 45.233994399950703 -16.242707736812399 -25 0 0 1 2.81907786235772 1.02606042997701 0 1 I I #
coedge $-1 $751 $490 $773 $774 reversed $184 $-1 #
edge $775 $616 -9.5 $776 9.5 $613 $777 forward 7 unknown #
model_id-kcp-attrib $-1 $778 $-1 $491 1 990548684 70 1598423041 24 #
ellipse-curve $-1 9.5 22 25 0 0 -1 2.1213203435596402 2.1213203435596402 0 1 I I #
coedge $-1 $493 $748 $779 $780 reversed $188 $-1 #
edge $781 $782 -9.5 $615 9.5 $612 $783 forward 7 unknown #
model_id-kcp-attrib $-1 $-1 $-1 $494 1 990548684 70 1598423041 25 #
ellipse-curve $-1 9.5 22 -25 0 0 1 2.1213203435596402 2.1213203435596402 0 1 I I #
model_id-kcp-attrib $-1 $-1 $-1 $496 1 990548684 70 1598423041 13 #
face $784 $785 $763 $10 $-1 $786 reversed single #
cone-surface $-1 45.233994399950703 -16.242707736812399 0 0 0 -1 2.81907786235772 1.02606042997701 0 1 I I 0 1 2.9999999999999964 forward I I I I #
convexity-sys-attrib $-1 $-1 $498 $319 #
model_id-kcp-attrib $-1 $-1 $500 $192 1 990548684 70 1598423041 26 #
convexity-sys-attrib $-1 $-1 $502 $193 #
coedge $-1 $787 $788 $732 $789 reversed $505 $-1 #
straight-curve $-1 -40.509445255289684 40.685643987679185 0 0 0 -1 I I #
point $-1 -40.509445255289684 -40.685643987679185 -25 #
straight-curve $-1 -40.509445255289684 0 -25 0 1 0 I I #
point $-1 -40.509445255289684 40.685643987679185 -25 #
coedge $-1 $524 $532 $525 $677 reversed $357 $-1 #
edge $-1 $678 -12.5 $530 37.5 $524 $790 forward 7 unknown #
edge $-1 $678 15.018348845802624 $534 40.685643987679185 $675 $791 forward 7 unknown #
vertex $-1 $677 $792 #
straight-curve $-1 -26.74852223966079 21.435172631271762 -25 -0.90630778703664983 -0.42261826174069989 0 I I #
straight-curve $-1 -40.509445255289684 0 25 0 -1 0 I I #
point $-1 -40.509445255289684 15.018348845802622 25 #
straight-curve $-1 -40.509445255289684 40.685643987679185 0 0 0 -1 I I #
point $-1 -40.509445255289684 40.685643987679185 -25 #
point $-1 -40.509445255289684 40.685643987679185 25 #
point $-1 40.509445255289684 -40.685643987679185 -25 #
straight-curve $-1 0 -40.685643987679185 25 1 0 0 I I #
straight-curve $-1 40.509445255289684 -40.685643987679185 0 0 0 -1 I I #
point $-1 40.509445255289684 -40.685643987679185 25 #
coedge $-1 $555 $554 $560 $694 reversed $238 $-1 #
edge $-1 $696 -40.685643987679185 $570 15.018348845802645 $554 $793 forward 7 unknown #
straight-curve $-1 40.509445255289684 -15.018348845802647 12.5 0 0 -1 I I #
straight-curve $-1 40.509445255289684 0 25 0 1 0 I I #
point $-1 40.509445255289684 -15.018348845802645 25 #
edge $-1 $561 -25 $696 25 $689 $794 forward 7 unknown #
point $-1 40.509445255289684 40.685643987679185 25 #
vertex $-1 $690 $795 #
straight-curve $-1 0 40.685643987679185 -25 1 0 0 I I #
point $-1 40.509445255289684 -15.018348845802645 -25 #
point $-1 -40.509445255289684 -40.685643987679185 25 #
straight-curve $-1 0 -40.685643987679185 -25 -1 0 0 I I #
straight-curve $-1 -40.509445255289684 -40.685643987679185 0 0 0 -1 I I #
point $-1 -40.509445255289684 -40.685643987679185 -25 #
face $-1 $-1 $714 $36 $-1 $796 forward single #
loop $-1 $-1 $797 $585 #
cone-surface $-1 -1.9009420874102219 15.039202022107375 0 0 0 -1 -5.3729960834682426 -8.4339144581288572 0 1 I I 0 -1 10 forward I I I I #
coedge $-1 $708 $604 $798 $799 reversed $586 $-1 #
coedge $-1 $590 $588 $800 $801 forward $159 $-1 #
coedge $-1 $718 $706 $588 $709 forward $586 $-1 #
edge $802 $803 -8.7370177903894977 $710 25.409169196348056 $588 $804 forward 7 unknown #
vertex $-1 $709 $805 #
straight-curve $-1 32.245244899327332 -3.7303989889463454 -25 0 -1 0 I I #
coedge $-1 $722 $592 $590 $713 reversed $714 $-1 #
edge $-1 $806 11.56787982147711 $594 16.230956403027097 $590 $807 forward 7 unknown #
loop $-1 $-1 $592 $703 #
straight-curve $-1 -12.934721277035145 15.039202022107375 -12.5 0 0 -1 I I #
point $-1 -12.934721277035138 15.039202022107368 -25 #
point $-1 -12.934721277035138 15.039202022107368 25 #
coedge $-1 $604 $708 $599 $719 forward $586 $-1 #
edge $808 $710 -25 $606 25 $599 $809 forward 7 unknown #
coedge $-1 $797 $798 $601 $721 reversed $704 $-1 #
edge $-1 $723 -0.56723200689815612 $726 0.56723200689815745 $601 $810 forward 7 unknown #
coedge $-1 $602 $712 $797 $811 forward $714 $-1 #
vertex $-1 $721 $812 #
straight-curve $-1 -6.0752226955987485 0.32895984299153835 25 0.42261826174069989 -0.90630778703664983 0 I I #
convexity-sys-attrib $-1 $-1 $-1 $605 #
vertex $-1 $799 $813 #
straight-curve $-1 6.8360757029792758 5.0392020221073608 25 -1 0 0 I I #
point $-1 32.245244899327332 5.0392020221073599 25 #
model_id-kcp-attrib $-1 $-1 $-1 $609 1 990548684 70 1598423041 10 #
loop $-1 $-1 $634 $609 #
cone-surface $-1 -9.5 -22 0 0 0 -1 -2.1213203435596402 -2.1213203435596402 0 1 I I 0 1 2.9999999999999964 forward I I I I #
coedge $-1 $773 $779 $670 $789 forward $610 $-1 #
coedge $-1 $613 $612 $814 $815 reversed $452 $-1 #
convexity-sys-attrib $-1 $-1 $614 $457 #
point $-1 9.5 25 -25 #
point $-1 9.5 25 25 #
coedge $-1 $816 $618 $620 $742 forward $739 $-1 #
coedge $-1 $618 $816 $624 $745 forward $739 $-1 #
loop $-1 $-1 $816 $785 #
attrib_edge_convexity-kcp-attrib $-1 $817 $-1 $619 3 #
straight-curve $-1 35.936392641655303 -36.181479051618702 0 0 0 -1 I I #
edge $818 $622 -0.78539816339745272 $770 0.78539816339744395 $620 $819 forward 7 unknown #
convexity-sys-attrib $-1 $-1 $621 $460 #
point $-1 35.936392641655303 -36.181479051618602 -25 #
edge $820 $765 -0.78539816339744395 $626 0.78539816339745272 $624 $821 forward 7 unknown #
convexity-sys-attrib $-1 $-1 $625 $462 #
point $-1 35.936392641655303 -36.181479051618602 25 #
coedge $-1 $660 $631 $787 $822 forward $188 $-1 #
coedge $-1 $634 $823 $631 $750 forward $730 $-1 #
edge $-1 $824 -0.78539816339744828 $640 0.78539816339744828 $631 $825 forward 7 unknown #
coedge $-1 $632 $656 $788 $826 forward $184 $-1 #
coedge $-1 $823 $634 $632 $753 forward $730 $-1 #
edge $827 $637 -0.78539816339744828 $828 0.78539816339744828 $632 $829 forward 7 unknown #
attrib_edge_convexity-kcp-attrib $-1 $830 $-1 $635 3 #
straight-curve $-1 -9.5 -25 0 0 0 1 I I #
convexity-sys-attrib $-1 $-1 $636 $473 #
point $-1 -9.5 -25 25 #
convexity-sys-attrib $-1 $-1 $639 $474 #
point $-1 -9.5 -25 -25 #
coedge $-1 $645 $651 $644 $761 reversed $763 $-1 #
edge $831 $648 -25 $654 25 $760 $832 forward 7 unknown #
coedge $-1 $651 $645 $816 $833 reversed $763 $-1 #
loop $-1 $-1 $760 $665 #
model_id-kcp-attrib $-1 $834 $-1 $646 1 990548684 70 1598423041 19 #
vertex $-1 $833 $835 #
straight-curve $-1 43.938044274524003 -26.120486498882599 25 0.4226182617407 0.90630778703665005 0 I I #
attrib_edge_convexity-kcp-attrib $-1 $836 $647 $484 1 #
point $-1 47.952917761060597 -17.510562522034501 25 #
model_id-kcp-attrib $-1 $837 $-1 $652 1 990548684 70 1598423041 30 #
vertex $-1 $652 $838 #
straight-curve $-1 43.938044274524003 -26.120486498882599 -25 -0.4226182617407 -0.90630778703665005 0 I I #
point $-1 47.952917761060597 -17.510562522034501 -25 #
coedge $-1 $814 $732 $656 $774 forward $610 $-1 #
edge $839 $840 -0.78539816339744828 $776 0.78539816339744828 $656 $841 forward 7 unknown #
attrib_edge_convexity-kcp-attrib $-1 $842 $-1 $657 1 #
vertex $-1 $657 $843 #
straight-curve $-1 0 25 25 -1 0 0 I I #
attrib_edge_convexity-kcp-attrib $-1 $844 $658 $491 1 #
coedge $-1 $732 $814 $660 $780 forward $610 $-1 #
edge $-1 $782 -0.78539816339744828 $845 0.78539816339744828 $660 $846 forward 7 unknown #
attrib_edge_convexity-kcp-attrib $-1 $847 $-1 $661 1 #
vertex $-1 $815 $848 #
straight-curve $-1 0 25 -25 1 0 0 I I #
model_id-kcp-attrib $-1 $-1 $-1 $665 1 990548684 70 1598423041 14 #
face $849 $194 $739 $10 $-1 $850 forward single #
plane-surface $-1 43.938044274524003 -26.120486498882599 0 -0.90630778703664983 0.42261826174069989 0 0 0 1 forward_v I I I I #
coedge $-1 $851 $670 $748 $822 reversed $505 $-1 #
coedge $-1 $670 $851 $751 $826 reversed $505 $-1 #
edge $852 $845 -25 $840 25 $670 $853 forward 7 unknown #
straight-curve $-1 -40.509445255289684 15.018348845802624 -12.5 0 0 1 I I #
straight-curve $-1 -40.509445255289684 0 -25 0 1 0 I I #
point $-1 -40.509445255289684 15.018348845802624 -25 #
straight-curve $-1 40.509445255289684 0 -25 0 -1 0 I I #
straight-curve $-1 40.509445255289684 40.685643987679185 0 0 0 -1 I I #
point $-1 40.509445255289684 40.685643987679185 -25 #
plane-surface $-1 -7.2862940358559367 2.9261107134038653 0 -0.90630778703665005 -0.4226182617407 0 0 0 1 forward_v I I I I #
coedge $-1 $800 $720 $722 $811 reversed $704 $-1 #
coedge $-1 $720 $800 $706 $799 forward $704 $-1 #
edge $854 $803 -25 $726 25 $706 $855 forward 7 unknown #
coedge $-1 $798 $797 $707 $801 reversed $704 $-1 #
edge $-1 $803 -0.56723200689815745 $806 0.56723200689815612 $707 $856 forward 7 unknown #
convexity-sys-attrib $-1 $-1 $-1 $709 #
vertex $-1 $709 $857 #
straight-curve $-1 6.8360757029792758 5.0392020221073608 -25 1 0 0 I I #
point $-1 32.245244899327332 5.0392020221073599 -25 #
vertex $-1 $801 $858 #
straight-curve $-1 -6.0752226955987485 0.32895984299153835 -25 -0.42261826174069989 0.90630778703664983 0 I I #
convexity-sys-attrib $-1 $-1 $-1 $719 #
straight-curve $-1 32.245244899327332 5.0392020221073608 0 0 0 1 I I #
ellipse-curve $-1 -1.9009420874102219 15.039202022107375 25 0 0 1 -5.3729960834682426 -8.4339144581288572 0 1 I I #
edge $859 $806 -25 $723 25 $722 $860 forward 7 unknown #
point $-1 -10.964019957776721 10.813019404700373 25 #
point $-1 -1.9009420874102219 5.0392020221073688 25 #
coedge $-1 $779 $773 $733 $815 forward $610 $-1 #
edge $861 $776 -25 $782 25 $733 $862 forward 7 unknown #
coedge $-1 $738 $737 $762 $833 forward $739 $-1 #
convexity-sys-attrib $-1 $-1 $740 $619 #
model_id-kcp-attrib $-1 $-1 $-1 $742 1 990548684 70 1598423041 31 #
ellipse-curve $-1 37.204247426877401 -33.462555690508701 -25 0 0 1 1.026060429977 -2.8190778623577302 0 1 I I #
model_id-kcp-attrib $-1 $863 $-1 $745 1 990548684 70 1598423041 18 #
ellipse-curve $-1 37.204247426877401 -33.462555690508701 25 0 0 -1 1.026060429977 -2.8190778623577302 0 1 I I #
edge $864 $824 -22 $845 22 $787 $865 forward 7 unknown #
coedge $-1 $749 $752 $851 $866 forward $730 $-1 #
vertex $-1 $750 $867 #
ellipse-curve $-1 -9.5 -22 -25 0 0 1 -2.1213203435596402 -2.1213203435596402 0 1 I I #
edge $868 $840 -22 $828 22 $788 $869 forward 7 unknown #
attrib_edge_convexity-kcp-attrib $-1 $870 $-1 $753 1 #
vertex $-1 $826 $871 #
ellipse-curve $-1 -9.5 -22 25 0 0 -1 -2.1213203435596402 -2.1213203435596402 0 1 I I #
convexity-sys-attrib $-1 $-1 $754 $635 #
attrib_edge_convexity-kcp-attrib $-1 $872 $-1 $761 3 #
straight-curve $-1 47.952917761060597 -17.510562522034501 0 0 0 -1 I I #
edge $873 $770 -25 $765 25 $762 $874 forward 7 unknown #
attrib_edge_convexity-kcp-attrib $-1 $875 $764 $646 1 #
point $-1 39.923170787987303 -34.7304104757308 25 #
convexity-sys-attrib $-1 $-1 $767 $484 #
attrib_edge_convexity-kcp-attrib $-1 $876 $769 $652 1 #
point $-1 39.923170787987303 -34.7304104757308 -25 #
attrib_edge_convexity-kcp-attrib $-1 $877 $-1 $774 1 #
vertex $-1 $774 $878 #
ellipse-curve $-1 -9.5 22 25 0 0 -1 -2.1213203435596402 2.1213203435596402 0 1 I I #
convexity-sys-attrib $-1 $-1 $775 $657 #
point $-1 -9.5 25 25 #
convexity-sys-attrib $-1 $-1 $778 $491 #
vertex $-1 $822 $879 #
ellipse-curve $-1 -9.5 22 -25 0 0 1 -2.1213203435596402 2.1213203435596402 0 1 I I #
convexity-sys-attrib $-1 $-1 $781 $661 #
point $-1 -9.5 25 -25 #
model_id-kcp-attrib $-1 $-1 $-1 $785 1 990548684 70 1598423041 15 #
cone-surface $-1 37.204247426877401 -33.462555690508701 0 0 0 -1 1.026060429977 -2.8190778623577302 0 1 I I 0 1 3.0000000000000027 forward I I I I #
coedge $-1 $788 $787 $823 $866 reversed $505 $-1 #
attrib_edge_convexity-kcp-attrib $-1 $880 $-1 $789 3 #
straight-curve $-1 -12.5 22 0 0 0 1 I I #
convexity-sys-attrib $-1 $-1 $-1 $799 #
straight-curve $-1 -1.9009420874102219 5.0392020221073608 0 0 0 1 I I #
ellipse-curve $-1 -1.9009420874102219 15.039202022107375 -25 0 0 -1 -5.3729960834682426 -8.4339144581288572 0 1 I I #
point $-1 -1.9009420874102219 5.0392020221073688 -25 #
point $-1 -10.964019957776721 10.813019404700373 -25 #
convexity-sys-attrib $-1 $-1 $-1 $811 #
straight-curve $-1 -10.964019957776721 10.813019404700373 0 0 0 1 I I #
attrib_edge_convexity-kcp-attrib $-1 $881 $-1 $815 3 #
straight-curve $-1 -9.5 25 0 0 0 -1 I I #
attrib_edge_convexity-kcp-attrib $-1 $882 $820 $745 1 #
attrib_edge_convexity-kcp-attrib $-1 $883 $-1 $822 1 #
straight-curve $-1 -12.5 0 -25 0 1 0 I I #
edge $884 $828 -25 $824 25 $851 $885 forward 7 unknown #
point $-1 -12.5 -22 -25 #
attrib_edge_convexity-kcp-attrib $-1 $886 $-1 $826 1 #
straight-curve $-1 -12.5 0 25 0 -1 0 I I #
convexity-sys-attrib $-1 $-1 $827 $753 #
point $-1 -12.5 -22 25 #
convexity-sys-attrib $-1 $-1 $831 $761 #
attrib_edge_convexity-kcp-attrib $-1 $887 $-1 $833 3 #
straight-curve $-1 39.923170787987303 -34.7304104757308 0 0 0 1 I I #
convexity-sys-attrib $-1 $-1 $834 $646 #
convexity-sys-attrib $-1 $-1 $837 $652 #
convexity-sys-attrib $-1 $-1 $839 $774 #
point $-1 -12.5 22 25 #
point $-1 -12.5 22 -25 #
convexity-sys-attrib $-1 $-1 $852 $789 #
convexity-sys-attrib $-1 $-1 $861 $815 #
convexity-sys-attrib $-1 $-1 $863 $745 #
convexity-sys-attrib $-1 $-1 $864 $822 #
attrib_edge_convexity-kcp-attrib $-1 $888 $-1 $866 3 #
straight-curve $-1 -12.5 -22 0 0 0 -1 I I #
convexity-sys-attrib $-1 $-1 $868 $826 #
convexity-sys-attrib $-1 $-1 $873 $833 #
convexity-sys-attrib $-1 $-1 $884 $866 #
End-of-ACIS-data 