600 0 2 0           
24 FBMach with ACIS - 6.0.3 13 ACIS 6.0.3 NT 24 Wed May 23 21:58:10 2001 
1 9.9999999999999995e-007 1e-010 
body $2 $3 $-1 $4 #
bdycol-kcp $-1 1 8 $5 $6 $7 $8 $9 $10 $11 $12 #
model_id-kcp-attrib $-1 $-1 $-1 $0 1 990669489 70 1850081281 1 #
lump $-1 $-1 $13 $0 #
transform $-1 1 0 0 0 1 0 0 0 1 0 0 0 1 no_rotate no_reflect no_shear #
body $14 $15 $-1 $16 #
body $17 $18 $-1 $19 #
body $20 $21 $-1 $22 #
body $23 $24 $-1 $25 #
body $26 $27 $-1 $28 #
body $29 $30 $-1 $31 #
body $32 $33 $-1 $34 #
body $35 $36 $-1 $37 #
shell $-1 $-1 $-1 $38 $-1 $3 #
model_id-kcp-attrib $-1 $-1 $-1 $5 1 990669489 80 1850736642 1 #
lump $-1 $-1 $39 $5 #
transform $-1 1 0 0 0 1 0 0 0 1 -1.6653345369377348e-016 0.37500000000000044 0 1 no_rotate no_reflect no_shear #
rgb_color-st-attrib $-1 $40 $-1 $6 1 1 0.5 #
lump $-1 $-1 $41 $6 #
transform $-1 1 0 0 0 0 1 0 -1 0 0 -1.2349999999999999 0 1 rotate no_reflect no_shear #
rgb_color-st-attrib $-1 $42 $-1 $7 0.5 1 1 #
lump $-1 $-1 $43 $7 #
transform $-1 1 0 0 0 -3.8285889215894375e-016 1 0 -1 -3.8285889215894375e-016 0 1.6000000000000001 -1.7228650147152459e-016 1 rotate no_reflect no_shear #
rgb_color-st-attrib $-1 $44 $-1 $8 0.5 1 1 #
lump $-1 $-1 $45 $8 #
transform $-1 1 0 0 0 -3.8285889215894375e-016 1 0 -1 -3.8285889215894375e-016 0 1.1600860619027551 -3.4071146445671396e-016 1 rotate no_reflect no_shear #
rgb_color-st-attrib $-1 $46 $-1 $9 0.5 1 1 #
lump $-1 $-1 $47 $9 #
transform $-1 1 0 0 0 1 0 0 0 1 -1.6653345369377348e-016 0.37500000000000044 0 1 no_rotate no_reflect no_shear #
rgb_color-st-attrib $-1 $48 $-1 $10 1 0 0 #
lump $-1 $-1 $49 $10 #
transform $-1 3.8285889215894375e-016 -4.6885143195523885e-032 -1 -1.2246063538223773e-016 -1 0 -1 1.2246063538223773e-016 -3.8285889215894375e-016 -4.5863024805656236 0.50000000000000144 -2.1999958966652327e-015 1 rotate no_reflect no_shear #
rgb_color-st-attrib $-1 $50 $-1 $11 1 0 0 #
lump $-1 $-1 $51 $11 #
transform $-1 -3.8285889215894375e-016 0 -1 0 1 0 1 0 -3.8285889215894375e-016 4.5863024805656227 0.500000000000001 -1.7559066868151699e-015 1 rotate no_reflect no_shear #
rgb_color-st-attrib $-1 $52 $-1 $12 0.59999999999999998 0.90000000000000002 1 #
lump $-1 $-1 $53 $12 #
transform $-1 1 0 0 0 1 0 0 0 1 -1.6653345369377348e-016 0.37500000000000044 0 1 no_rotate no_reflect no_shear #
face $54 $55 $56 $13 $-1 $57 forward single #
shell $-1 $-1 $-1 $58 $-1 $15 #
model_id-kcp-attrib $-1 $-1 $17 $6 1 990669489 90 1851392003 1 #
shell $-1 $-1 $-1 $59 $-1 $18 #
model_id-kcp-attrib $-1 $-1 $20 $7 1 990669489 140 1854668804 1 #
shell $-1 $-1 $-1 $60 $-1 $21 #
model_id-kcp-attrib $-1 $-1 $23 $8 1 990669489 140 1854668805 1 #
shell $-1 $-1 $-1 $61 $-1 $24 #
model_id-kcp-attrib $-1 $-1 $26 $9 1 990669489 210 1859256326 1 #
shell $-1 $-1 $-1 $62 $-1 $27 #
model_id-kcp-attrib $-1 $-1 $29 $10 1 990669489 340 1850998791 1 #
shell $-1 $-1 $-1 $63 $-1 $30 #
model_id-kcp-attrib $-1 $-1 $32 $11 1 990669489 430 1856897032 1 #
shell $-1 $-1 $-1 $64 $-1 $33 #
model_id-kcp-attrib $-1 $-1 $35 $12 1 990669489 540 1847328777 1 #
shell $-1 $-1 $-1 $65 $-1 $36 #
model_id-kcp-attrib $-1 $66 $-1 $38 1 990669489 70 1850081281 20 #
face $67 $68 $69 $13 $-1 $70 reversed single #
loop $71 $72 $73 $38 #
plane-surface $74 0 2 0 0 1 0 0 0 1 forward_v I I I I #
face $-1 $75 $76 $39 $-1 $77 forward single #
face $-1 $78 $79 $41 $-1 $80 reversed single #
face $-1 $81 $82 $43 $-1 $83 forward single #
face $-1 $84 $85 $45 $-1 $86 forward single #
face $-1 $87 $88 $47 $-1 $89 reversed single #
face $-1 $90 $91 $49 $-1 $92 forward single #
face $-1 $93 $94 $51 $-1 $95 forward single #
face $-1 $96 $97 $53 $-1 $98 reversed single #
model_id-kcp-attrib $-1 $99 $54 $38 1 990669489 70 1850081281 2 #
model_id-kcp-attrib $-1 $100 $-1 $55 1 990669489 70 1850081281 3 #
face $101 $102 $103 $13 $-1 $104 reversed single #
loop $105 $106 $107 $55 #
plane-surface $108 0 0 0 0 1 0 0 0 1 forward_v I I I I #
loop_type-twe-attrib $-1 $-1 $-1 $56 0 #
loop $109 $-1 $110 $38 #
coedge $-1 $73 $73 $111 $112 forward $56 $-1 #
surf-twe-attrib $-1 $-1 $-1 $57 4 #
face $-1 $113 $114 $39 $-1 $115 reversed single #
loop $-1 $-1 $116 $58 #
plane-surface $-1 0 0 0.78125 0 0 1 1 0 0 forward_v I I I I #
face $-1 $117 $118 $41 $-1 $119 forward single #
loop $-1 $120 $121 $59 #
cone-surface $-1 0 0 0.11000000000000032 0 0 1 0.125 0 0 1 I I -0.70710678118654724 0.70710678118654791 0.125 forward I I I I #
face $-1 $122 $123 $43 $-1 $124 forward single #
loop $-1 $125 $126 $60 #
cone-surface $-1 0 0 0 0 0 1 0.25 0 0 1 I I 0 1 0.25 forward I I I I #
face $-1 $127 $128 $45 $-1 $129 forward single #
loop $-1 $130 $131 $61 #
cone-surface $-1 0 3.7899735367260883e-016 0.1000000000000012 0 3.8285889215894375e-016 1 0.10000000000000001 0 0 1 I I -0.85716730070211233 0.51503807491005416 0.10000000000000001 forward I I I I #
face $-1 $132 $133 $47 $-1 $89 reversed single #
loop $-1 $-1 $134 $62 #
cone-surface $-1 -5.5511151231257827e-017 -1.6250000000000004 8.3266726846886741e-017 0 -1 0 0.65625000000000044 0 0.42389562394532898 1 I I 0 1 0.78125000000000033 forward I I I I #
face $-1 $135 $136 $49 $-1 $137 reversed single #
loop $-1 $-1 $138 $63 #
cone-surface $-1 -5.2735593669694916e-016 1.7500000000000009 -4.5863024805656236 4.6885143195523885e-032 1 -1.2246063538223773e-016 -0.4238956239453287 -8.0364791969593557e-017 -0.65625000000000056 1 I I 0 1 0.78125000000000033 forward I I I I #
face $-1 $139 $140 $51 $-1 $141 reversed single #
loop $-1 $-1 $142 $64 #
cone-surface $-1 -8.3266726846886654e-017 -1.7500000000000009 -4.5863024805656227 0 -1 0 -0.42389562394532926 0 0.65625000000000033 1 I I 0 1 0.78125000000000033 forward I I I I #
face $-1 $143 $144 $53 $-1 $145 forward single #
loop $-1 $146 $147 $65 #
plane-surface $-1 0 -1.6250000000000004 0 0 1 0 0 0 1 forward_v I I I I #
face_name-twe-attrib $-1 $-1 $66 $38 1 #
face_name-twe-attrib $-1 $-1 $67 $55 2 #
model_id-kcp-attrib $-1 $148 $-1 $68 1 990669489 70 1850081281 19 #
face $149 $150 $151 $13 $-1 $152 forward single #
loop $153 $-1 $154 $68 #
plane-surface $155 0 -1.25 0 0 1 0 0 0 1 forward_v I I I I #
loop_type-twe-attrib $-1 $-1 $-1 $69 1 #
loop $156 $-1 $157 $55 #
coedge $-1 $107 $107 $158 $159 forward $69 $-1 #
surf-twe-attrib $-1 $-1 $-1 $70 6 #
loop_type-twe-attrib $-1 $-1 $-1 $72 1 #
coedge $-1 $110 $110 $160 $161 reversed $72 $-1 #
coedge $-1 $111 $111 $73 $112 reversed $162 $-1 #
edge $163 $164 0 $164 6.2831853071795862 $111 $165 forward 7 unknown #
face $166 $167 $168 $39 $-1 $169 reversed single #
loop $-1 $-1 $170 $75 #
plane-surface $-1 0 0 -0.78125 0 0 1 1 0 0 forward_v I I I I #
coedge $-1 $171 $172 $173 $174 forward $76 $-1 #
face $-1 $-1 $175 $41 $-1 $176 forward single #
loop $-1 $177 $178 $78 #
cone-surface $-1 0 0 0 0 0 1 0.25 0 0 1 I I 0 1 0.25 forward I I I I #
loop $-1 $-1 $179 $59 #
coedge $-1 $121 $121 $180 $181 reversed $79 $-1 #
face $-1 $-1 $182 $43 $-1 $183 forward single #
loop $-1 $-1 $184 $81 #
plane-surface $-1 0 0 -0.40000000000000002 0 0 -1 -1 0 0 forward_v I I I I #
loop $-1 $-1 $185 $60 #
coedge $-1 $126 $126 $184 $186 reversed $82 $-1 #
face $-1 $-1 $187 $45 $-1 $188 forward single #
loop $-1 $189 $190 $84 #
cone-surface $-1 0 0 0 0 0 1 0.20000000000000001 0 0 1 I I 0 1 0.20000000000000001 forward I I I I #
loop $-1 $-1 $191 $61 #
coedge $-1 $131 $131 $192 $193 forward $85 $-1 #
face $-1 $194 $195 $47 $-1 $89 reversed single #
loop $-1 $-1 $196 $87 #
coedge $-1 $197 $198 $199 $200 reversed $88 $-1 #
face $-1 $201 $202 $49 $-1 $203 reversed single #
loop $-1 $-1 $204 $90 #
plane-surface $-1 0 0 -3.9300524805656236 0 0 1 1 0 0 forward_v I I I I #
coedge $-1 $205 $206 $207 $208 forward $91 $-1 #
face $-1 $209 $210 $51 $-1 $211 reversed single #
loop $-1 $-1 $212 $93 #
plane-surface $-1 0 0 -3.9300524805656227 0 0 1 1 0 0 forward_v I I I I #
coedge $-1 $213 $214 $215 $216 forward $94 $-1 #
face $-1 $217 $218 $53 $-1 $219 forward single #
loop $-1 $220 $221 $96 #
cone-surface $-1 -5.5511151231257827e-017 -0.375 8.3266726846886741e-017 0 -1 0 0.65625000000000044 0 0.42389562394532898 1 I I 0 1 0.78125000000000033 forward I I I I #
loop $-1 $-1 $222 $65 #
coedge $-1 $147 $147 $223 $224 forward $97 $-1 #
model_id-kcp-attrib $-1 $225 $101 $68 1 990669489 70 1850081281 4 #
model_id-kcp-attrib $-1 $226 $-1 $102 1 990669489 70 1850081281 5 #
face $227 $228 $229 $13 $-1 $230 reversed single #
loop $231 $232 $233 $102 #
cone-surface $234 0 -1.4125000000000001 0 0 1 0 0.78125 0 0 1 I I 0 1 0.78125 forward I I I I #
loop_type-twe-attrib $-1 $-1 $-1 $103 0 #
coedge $-1 $154 $154 $235 $236 forward $103 $-1 #
surf-twe-attrib $-1 $-1 $-1 $104 10 #
loop_type-twe-attrib $-1 $-1 $-1 $106 0 #
coedge $-1 $157 $157 $237 $238 forward $106 $-1 #
coedge $-1 $158 $158 $107 $159 reversed $229 $-1 #
edge $239 $240 0 $240 6.2831853071795862 $158 $241 forward 7 unknown #
coedge $-1 $160 $160 $110 $161 forward $242 $-1 #
edge $243 $244 0 $244 6.2831853071795862 $160 $245 forward 7 unknown #
loop $246 $247 $111 $102 #
edge_name-twe-attrib $-1 $-1 $-1 $112 3 8704 #
vertex $-1 $112 $248 #
ellipse-curve $249 0 2 0 -1.0000000000000001e-015 1 0 -0.78125 -7.8125000000000002e-016 0 1 I I #
model_id-kcp-attrib $-1 $-1 $-1 $113 1 990669489 80 1850736642 3 #
face $-1 $250 $251 $39 $-1 $252 reversed single #
loop $-1 $-1 $253 $113 #
plane-surface $-1 0 -1.6250000000000004 0 0 1 0 0 0 1 forward_v I I I I #
coedge $-1 $254 $255 $256 $257 forward $114 $-1 #
coedge $-1 $258 $116 $259 $260 forward $76 $-1 #
coedge $-1 $116 $258 $261 $262 forward $76 $-1 #
coedge $-1 $263 $264 $116 $174 reversed $265 $-1 #
edge $-1 $266 -1.6250000000000004 $267 1.6250000000000004 $173 $268 forward 7 unknown #
loop $-1 $269 $180 $117 #
plane-surface $-1 0 0 0.015000000000000013 0 0 1 1 0 0 forward_v I I I I #
loop $-1 $-1 $270 $78 #
coedge $-1 $178 $178 $179 $271 reversed $118 $-1 #
coedge $-1 $179 $179 $178 $271 forward $120 $-1 #
coedge $-1 $180 $180 $121 $181 forward $175 $-1 #
edge $-1 $272 -3.1415926535897931 $272 3.1415926535897931 $180 $273 forward 7 unknown #
loop $-1 $-1 $274 $122 #
plane-surface $-1 0 0 0.40000000000000002 0 0 1 1 0 0 forward_v I I I I #
coedge $-1 $184 $184 $126 $186 forward $123 $-1 #
coedge $-1 $185 $185 $274 $275 reversed $125 $-1 #
edge $-1 $276 0 $276 6.2831853071795862 $184 $277 forward 7 unknown #
loop $-1 $-1 $278 $127 #
plane-surface $-1 0 0 -0.039913938097245194 0 0 -1 -1 0 0 forward_v I I I I #
loop $-1 $-1 $192 $84 #
coedge $-1 $190 $190 $278 $279 reversed $128 $-1 #
coedge $-1 $191 $191 $-1 $280 reversed $130 $-1 #
coedge $-1 $192 $192 $131 $193 reversed $189 $-1 #
edge $-1 $281 0 $281 6.2831853071795862 $192 $282 forward 7 unknown #
face $-1 $283 $284 $47 $-1 $89 reversed single #
loop $-1 $-1 $285 $132 #
coedge $-1 $286 $287 $288 $289 reversed $133 $-1 #
coedge $-1 $290 $134 $291 $292 forward $88 $-1 #
coedge $-1 $134 $290 $293 $294 reversed $88 $-1 #
coedge $-1 $295 $296 $134 $200 forward $297 $-1 #
edge $-1 $298 -0.57351310442309622 $299 0.99728322237180045 $199 $300 forward 7 unknown #
face $-1 $-1 $301 $49 $-1 $302 reversed single #
loop $-1 $-1 $303 $135 #
plane-surface $-1 0 0.24999999999999997 0 0 -1 0 0 0 -1 forward_v I I I I #
coedge $-1 $304 $305 $206 $306 reversed $136 $-1 #
coedge $-1 $307 $138 $308 $309 forward $91 $-1 #
coedge $-1 $138 $307 $204 $306 forward $91 $-1 #
coedge $-1 $310 $310 $138 $208 reversed $301 $-1 #
edge $-1 $311 1.9945664447436005 $312 3.1415926535897936 $207 $313 forward 7 unknown #
face $-1 $-1 $314 $51 $-1 $315 reversed single #
loop $-1 $-1 $316 $139 #
plane-surface $-1 0 -0.25 0 0 1 0 0 0 1 forward_v I I I I #
coedge $-1 $317 $318 $214 $319 reversed $140 $-1 #
coedge $-1 $320 $142 $321 $322 forward $94 $-1 #
coedge $-1 $142 $320 $212 $319 forward $94 $-1 #
coedge $-1 $323 $323 $142 $216 reversed $314 $-1 #
edge $-1 $324 -1.1470262088461924 $325 1.8189894035458558e-016 $215 $326 forward 7 unknown #
face $-1 $-1 $327 $53 $-1 $328 forward single #
loop $-1 $329 $330 $143 #
cone-surface $-1 1.6653345369377348e-016 -0.375 0 0 -1 0 0 0 0.25 1 I I 0 -1 0.25 forward I I I I #
loop $-1 $-1 $331 $96 #
coedge $-1 $221 $221 $332 $333 reversed $144 $-1 #
coedge $-1 $222 $222 $331 $334 forward $146 $-1 #
coedge $-1 $223 $223 $147 $224 reversed $329 $-1 #
edge $-1 $335 1.5707963267948966 $335 7.8539816339744828 $223 $336 forward 7 unknown #
face_name-twe-attrib $-1 $-1 $148 $68 3 #
face_name-twe-attrib $-1 $-1 $149 $102 4 #
model_id-kcp-attrib $-1 $337 $-1 $150 1 990669489 70 1850081281 6 #
face $338 $339 $340 $13 $-1 $341 forward single #
loop $342 $343 $158 $150 #
torus-surface $344 0 -0.050000000000000003 0 0 1 0 0.25 0.050000000000000003 0 0 1 forward_v I I I I #
loop_type-twe-attrib $-1 $-1 $-1 $151 0 #
loop $345 $162 $346 $102 #
coedge $-1 $347 $348 $349 $350 forward $151 $-1 #
surf-twe-attrib $-1 $-1 $-1 $152 18 #
coedge $-1 $235 $235 $154 $236 reversed $351 $-1 #
edge $352 $353 -3.1415926535897931 $353 3.1415926535897931 $154 $354 forward 7 unknown #
coedge $-1 $237 $237 $157 $238 reversed $247 $-1 #
edge $355 $356 -3.1415926535897931 $356 3.1415926535897931 $157 $357 forward 7 unknown #
edge_name-twe-attrib $-1 $-1 $-1 $159 4 20480 #
vertex $-1 $159 $358 #
ellipse-curve $359 0 0 0 0 1 0 -0.25 0 0 1 I I #
loop $360 $361 $160 $362 #
attrib_edge_convexity-kcp-attrib $-1 $363 $-1 $161 1 #
vertex $-1 $161 $364 #
ellipse-curve $365 0 2 0 0 1 0 -0.25 0 0 1 I I #
loop_type-twe-attrib $-1 $-1 $-1 $162 1 #
loop $366 $-1 $237 $102 #
point $-1 -0.78125 2 0 #
cur-twe-attrib $-1 $-1 $-1 $165 28 #
face $367 $368 $369 $39 $-1 $370 reversed single #
loop $-1 $-1 $371 $167 #
plane-surface $-1 -0.78125000000000022 0 0 1 0 0 0 0 -1 forward_v I I I I #
coedge $-1 $372 $261 $373 $374 forward $168 $-1 #
coedge $-1 $375 $170 $372 $376 forward $114 $-1 #
coedge $-1 $170 $375 $377 $378 forward $114 $-1 #
coedge $-1 $264 $263 $170 $257 reversed $265 $-1 #
edge $-1 $379 -1.6250000000000004 $380 1.6250000000000004 $256 $381 forward 7 unknown #
coedge $-1 $172 $171 $382 $383 forward $76 $-1 #
coedge $-1 $384 $385 $171 $260 reversed $369 $-1 #
edge $-1 $267 -0.78125000000000022 $386 0.78125000000000022 $259 $387 forward 7 unknown #
coedge $-1 $253 $388 $172 $262 reversed $168 $-1 #
edge $-1 $389 -0.78125000000000022 $266 0.78125000000000022 $261 $390 forward 7 unknown #
coedge $-1 $256 $173 $388 $391 forward $265 $-1 #
coedge $-1 $173 $256 $384 $392 reversed $265 $-1 #
loop $-1 $-1 $263 $368 #
vertex $-1 $174 $393 #
vertex $-1 $174 $394 #
straight-curve $-1 0.78125000000000022 0 0.78125 0 1 0 I I #
loop $-1 $-1 $395 $117 #
coedge $-1 $270 $270 $395 $396 reversed $177 $-1 #
edge $-1 $397 0 $397 6.2831853071795862 $178 $398 forward 7 unknown #
vertex $-1 $181 $399 #
ellipse-curve $-1 0 0 0.015000000000000013 0 0 -1 0.22000000000000022 0 0 1 I I #
coedge $-1 $274 $274 $185 $275 forward $182 $-1 #
edge $-1 $400 0 $400 6.2831853071795862 $274 $401 forward 7 unknown #
vertex $-1 $186 $402 #
ellipse-curve $-1 0 0 -0.40000000000000002 0 0 -1 0.25 0 0 1 I I #
coedge $-1 $278 $278 $190 $279 forward $187 $-1 #
edge $-1 $403 0 $403 6.2831853071795862 $278 $404 forward 7 unknown #
edge $-1 $405 1 $405 0 $191 $-1 forward 7 unknown #
vertex $-1 $193 $406 #
ellipse-curve $-1 0 0 0.039913938097245194 0 0 1 0.20000000000000001 0 0 1 I I #
face $-1 $407 $408 $47 $-1 $409 forward single #
loop $-1 $-1 $410 $194 #
coedge $-1 $411 $412 $410 $413 forward $195 $-1 #
coedge $-1 $414 $196 $415 $416 reversed $133 $-1 #
coedge $-1 $196 $414 $198 $294 forward $133 $-1 #
coedge $-1 $417 $418 $196 $289 forward $419 $-1 #
edge $-1 $420 -2.568079549166697 $421 -0.99728322237180045 $288 $422 forward 7 unknown #
coedge $-1 $198 $197 $423 $424 reversed $88 $-1 #
coedge $-1 $412 $411 $425 $292 reversed $195 $-1 #
edge $-1 $298 -3.2500000000000009 $426 0 $425 $427 forward 7 unknown #
coedge $-1 $428 $429 $430 $294 forward $431 $-1 #
edge $-1 $299 -3.2500000000000009 $421 0 $293 $432 forward 7 unknown #
coedge $-1 $296 $199 $429 $433 reversed $297 $-1 #
coedge $-1 $199 $295 $434 $435 forward $297 $-1 #
loop $-1 $-1 $199 $436 #
vertex $-1 $437 $438 #
vertex $-1 $439 $440 #
ellipse-curve $-1 -5.5511151231257827e-017 1.6250000000000004 8.3266726846886741e-017 0 -1 0 0.65625000000000044 0 0.42389562394532898 1 I I #
loop $-1 $-1 $207 $201 #
plane-surface $-1 0 -0.24999999999999997 0 0 1 0 0 0 1 forward_v I I I I #
coedge $-1 $441 $441 $307 $442 reversed $202 $-1 #
coedge $-1 $308 $204 $441 $443 forward $136 $-1 #
coedge $-1 $204 $308 $310 $444 forward $136 $-1 #
edge $445 $446 1.5000000000000009 $311 2.0000000000000018 $204 $447 forward 7 unknown #
coedge $-1 $206 $205 $303 $442 forward $91 $-1 #
coedge $-1 $305 $304 $205 $309 reversed $136 $-1 #
edge $448 $312 -2.0000000000000018 $449 -1.5000000000000009 $308 $450 forward 7 unknown #
coedge $-1 $207 $207 $305 $444 reversed $301 $-1 #
vertex $-1 $306 $451 #
vertex $-1 $444 $452 #
ellipse-curve $-1 -5.2735593669694926e-016 -0.25000000000000044 -4.5863024805656236 0 1 0 -0.4238956239453287 -8.0364791969593557e-017 -0.65625000000000056 1 I I #
loop $-1 $-1 $215 $209 #
plane-surface $-1 0 0.25 0 0 -1 0 0 0 -1 forward_v I I I I #
coedge $-1 $453 $453 $320 $454 reversed $210 $-1 #
coedge $-1 $321 $212 $453 $455 forward $140 $-1 #
coedge $-1 $212 $321 $323 $456 forward $140 $-1 #
edge $457 $458 1.5000000000000009 $324 2.0000000000000009 $212 $459 forward 7 unknown #
coedge $-1 $214 $213 $316 $454 forward $94 $-1 #
coedge $-1 $318 $317 $213 $322 reversed $140 $-1 #
edge $460 $325 -2.0000000000000018 $461 -1.5000000000000009 $321 $462 forward 7 unknown #
coedge $-1 $215 $215 $318 $456 reversed $314 $-1 #
vertex $-1 $319 $463 #
vertex $-1 $456 $464 #
ellipse-curve $-1 -8.3266726846886654e-017 0.25 -4.5863024805656227 0 -1 0 -0.42389562394532926 0 0.65625000000000033 1 I I #
loop $-1 $465 $466 $217 #
plane-surface $-1 -0.050705922865013783 -0.375 -0.029193913494857272 0 1 0 0 0 1 forward_v I I I I #
loop $-1 $-1 $223 $143 #
coedge $-1 $330 $330 $466 $467 forward $218 $-1 #
coedge $-1 $331 $331 $222 $334 reversed $220 $-1 #
coedge $-1 $332 $332 $221 $333 forward $465 $-1 #
edge $468 $469 -3.1415926535897931 $469 3.1415926535897931 $221 $470 forward 7 unknown #
edge $-1 $471 2.568079549166697 $471 8.8512648563462832 $331 $472 forward 7 unknown #
vertex $-1 $224 $473 #
ellipse-curve $-1 1.6653345369377348e-016 -1.6250000000000004 0 0 1 0 0 0 0.25 1 I I #
face_name-twe-attrib $-1 $-1 $227 $150 5 #
model_id-kcp-attrib $-1 $474 $-1 $228 1 990669489 70 1850081281 7 #
face $475 $476 $477 $13 $-1 $478 forward single #
loop $479 $480 $481 $228 #
cone-surface $482 0 -1.4125000000000001 0 0 1 0 0.25 0 0 1 I I 0 1 0.25 forward I I I I #
loop_type-twe-attrib $-1 $-1 $-1 $229 0 #
loop $483 $-1 $484 $150 #
surf-twe-attrib $-1 $-1 $-1 $230 30 #
loop_type-twe-attrib $-1 $-1 $-1 $232 1 #
coedge $-1 $485 $486 $487 $488 forward $232 $-1 #
coedge $-1 $489 $233 $490 $491 reversed $151 $-1 #
coedge $-1 $233 $489 $492 $493 forward $151 $-1 #
coedge $-1 $494 $494 $233 $350 reversed $495 $-1 #
edge $496 $497 -0.57351310442309644 $498 0.57351310442309644 $349 $499 forward 7 unknown #
loop $500 $-1 $235 $339 #
attrib_edge_convexity-kcp-attrib $-1 $501 $-1 $236 1 #
vertex $-1 $236 $502 #
ellipse-curve $503 0 -1.25 0 0 -1 0 -0.22 0 0 1 I I #
edge_name-twe-attrib $-1 $-1 $-1 $238 1 8704 #
vertex $-1 $238 $504 #
ellipse-curve $505 0 0 0 0 -1 0 -0.78125 0 0 1 I I #
point $-1 -0.25 0 0 #
cur-twe-attrib $-1 $-1 $-1 $241 39 #
loop_type-twe-attrib $-1 $-1 $-1 $242 0 #
loop $506 $-1 $507 $362 #
face $508 $509 $242 $13 $-1 $510 reversed single #
convexity-sys-attrib $-1 $511 $243 $161 #
point $-1 -0.25 2 0 #
cur-twe-attrib $-1 $-1 $-1 $245 41 #
loop_type-twe-attrib $-1 $-1 $-1 $247 1 #
model_id-kcp-attrib $-1 $-1 $-1 $250 1 990669489 80 1850736642 2 #
face $-1 $-1 $265 $39 $-1 $512 reversed single #
loop $-1 $-1 $384 $250 #
plane-surface $-1 0 1.6250000000000004 0 0 -1 0 0 0 -1 forward_v I I I I #
coedge $-1 $513 $382 $385 $514 forward $251 $-1 #
coedge $-1 $388 $253 $254 $376 reversed $168 $-1 #
coedge $-1 $382 $513 $253 $374 reversed $251 $-1 #
edge $-1 $389 -0.78125 $515 0.78125 $373 $516 forward 7 unknown #
coedge $-1 $255 $254 $513 $517 forward $114 $-1 #
edge $-1 $380 -0.78125000000000022 $515 0.78125000000000022 $372 $518 forward 7 unknown #
coedge $-1 $385 $384 $255 $378 reversed $369 $-1 #
edge $-1 $519 -0.78125000000000022 $379 0.78125000000000022 $377 $520 forward 7 unknown #
vertex $-1 $257 $521 #
vertex $-1 $391 $522 #
straight-curve $-1 0.78125000000000022 0 -0.78125 0 -1 0 I I #
coedge $-1 $371 $373 $258 $383 reversed $251 $-1 #
edge $-1 $386 -1.6250000000000004 $389 1.6250000000000004 $382 $523 forward 7 unknown #
coedge $-1 $377 $259 $264 $392 forward $369 $-1 #
coedge $-1 $259 $377 $371 $514 reversed $369 $-1 #
vertex $-1 $260 $524 #
straight-curve $-1 0 1.6250000000000004 0.78125 -1 0 0 I I #
coedge $-1 $261 $372 $263 $391 reversed $168 $-1 #
vertex $-1 $383 $525 #
straight-curve $-1 0 -1.6250000000000004 0.78125 1 0 0 I I #
edge $-1 $266 -0.78125 $380 0.78125 $263 $526 forward 7 unknown #
edge $-1 $267 -0.78125 $379 0.78125 $264 $527 forward 7 unknown #
point $-1 0.78125000000000022 -1.6250000000000004 0.78125 #
point $-1 0.78125000000000022 1.6250000000000004 0.78125 #
coedge $-1 $395 $395 $270 $396 forward $269 $-1 #
edge $-1 $528 0 $528 6.2831853071795862 $395 $529 forward 7 unknown #
vertex $-1 $271 $530 #
ellipse-curve $-1 0 0 -0.015000000000000013 0 0 -1 0.25 0 0 1 I I #
point $-1 -0.22000000000000022 2.6941339784092328e-017 0.015000000000000013 #
vertex $-1 $275 $531 #
ellipse-curve $-1 0 0 0.40000000000000002 0 0 1 0.25 0 0 1 I I #
point $-1 0.25 0 -0.40000000000000002 #
vertex $-1 $279 $532 #
ellipse-curve $-1 0 0 -0.039913938097245194 0 0 -1 0.20000000000000001 0 0 1 I I #
vertex $-1 $280 $533 #
point $-1 0.20000000000000001 0 0.039913938097245194 #
face $-1 $534 $535 $47 $-1 $536 reversed single #
loop $-1 $-1 $430 $283 #
plane-surface $-1 0 0 0.78125 0 0 1 1 0 0 forward_v I I I I #
coedge $-1 $537 $538 $539 $413 reversed $284 $-1 #
coedge $-1 $291 $285 $540 $541 reversed $195 $-1 #
coedge $-1 $285 $291 $542 $543 reversed $195 $-1 #
edge $-1 $544 -3.2500000000000009 $545 0 $539 $546 forward 7 unknown #
coedge $-1 $287 $286 $547 $548 reversed $133 $-1 #
coedge $-1 $549 $550 $551 $416 forward $535 $-1 #
edge $-1 $552 -3.2500000000000009 $420 0 $415 $553 forward 7 unknown #
coedge $-1 $418 $288 $554 $555 reversed $419 $-1 #
coedge $-1 $288 $417 $549 $556 forward $419 $-1 #
loop $-1 $-1 $288 $557 #
vertex $-1 $558 $559 #
vertex $-1 $560 $561 #
ellipse-curve $-1 -5.5511151231257827e-017 -1.6250000000000004 8.3266726846886741e-017 0 1 0 0.65625000000000044 0 0.42389562394532898 1 I I #
coedge $-1 $562 $563 $290 $424 forward $564 $-1 #
edge $-1 $421 -0.99728322237180045 $426 0.57351310442309622 $423 $422 forward 7 unknown #
coedge $-1 $565 $566 $567 $292 forward $568 $-1 #
vertex $-1 $569 $570 #
straight-curve $-1 0.78125000000000022 -1.6250000000000004 8.3266726846886741e-017 0 -1 0 I I #
coedge $-1 $571 $293 $563 $560 forward $431 $-1 #
coedge $-1 $293 $571 $295 $433 forward $431 $-1 #
coedge $-1 $572 $554 $287 $294 reversed $408 $-1 #
loop $-1 $-1 $293 $573 #
straight-curve $-1 -5.5511151231257827e-017 -1.6250000000000004 0.78125 0 -1 0 I I #
edge $-1 $574 -0.78125000000000022 $299 5.5511151231257827e-017 $295 $575 forward 7 unknown #
coedge $-1 $576 $567 $296 $435 reversed $577 $-1 #
edge $-1 $574 -0.78125 $298 -8.3266726846886741e-017 $434 $578 forward 7 unknown #
face $-1 $579 $297 $47 $-1 $580 reversed single #
edge $-1 $298 -8.3266726846886741e-017 $581 0.78125 $566 $578 forward 7 unknown #
point $-1 0.78125000000000022 1.6250000000000004 8.3266726846886741e-017 #
edge $-1 $299 5.5511151231257827e-017 $582 0.78125000000000022 $583 $575 forward 7 unknown #
point $-1 -5.5511151231257827e-017 1.6250000000000004 0.78125 #
coedge $-1 $303 $303 $304 $443 reversed $202 $-1 #
edge $-1 $449 -3.1415926535897944 $446 -1.9945664447436005 $303 $584 forward 7 unknown #
edge $585 $446 -0.4238956239453297 $449 0.42389562394532926 $441 $586 forward 7 unknown #
edge $587 $312 -0.42389562394532826 $311 0.4238956239453297 $310 $588 forward 7 unknown #
convexity-sys-attrib $-1 $-1 $-1 $306 #
vertex $-1 $443 $589 #
straight-curve $-1 -0.42389562394533004 1.7500000000000009 -3.9300524805656236 -4.6885143195523885e-032 -1 1.2246063538223773e-016 I I #
convexity-sys-attrib $-1 $-1 $-1 $309 #
vertex $-1 $309 $590 #
straight-curve $-1 0.42389562394532904 1.7500000000000009 -3.9300524805656236 4.6885143195523885e-032 1 -1.2246063538223773e-016 I I #
point $-1 -0.4238956239453297 -0.25000000000000105 -3.9300524805656241 #
point $-1 0.42389562394532826 -0.25000000000000105 -3.9300524805656236 #
coedge $-1 $316 $316 $317 $455 reversed $210 $-1 #
edge $-1 $461 -1.8189894035458558e-016 $458 1.1470262088461924 $316 $591 forward 7 unknown #
edge $592 $458 -0.4238956239453287 $461 0.42389562394532926 $453 $593 forward 7 unknown #
edge $594 $325 -0.42389562394532926 $324 0.4238956239453287 $323 $595 forward 7 unknown #
convexity-sys-attrib $-1 $-1 $-1 $319 #
vertex $-1 $455 $596 #
straight-curve $-1 0.42389562394532987 -1.7500000000000009 -3.9300524805656227 0 1 0 I I #
convexity-sys-attrib $-1 $-1 $-1 $322 #
vertex $-1 $322 $597 #
straight-curve $-1 -0.42389562394532998 -1.7500000000000009 -3.9300524805656227 0 -1 0 I I #
point $-1 0.4238956239453287 0.25 -3.9300524805656223 #
point $-1 -0.42389562394532926 0.250000000000001 -3.9300524805656227 #
loop $-1 $-1 $332 $217 #
coedge $-1 $466 $466 $330 $467 reversed $327 $-1 #
edge $-1 $598 -1.5707963267948966 $598 4.7123889803846897 $330 $599 forward 7 unknown #
convexity-sys-attrib $-1 $-1 $-1 $333 #
vertex $-1 $333 $600 #
ellipse-curve $-1 -5.5511151231257827e-017 -0.375 8.3266726846886741e-017 0 1 0 0.65625000000000044 0 0.42389562394532898 1 I I #
vertex $-1 $334 $601 #
ellipse-curve $-1 -5.5511151231257827e-017 -1.6250000000000004 8.3266726846886741e-017 0 -1 0 0.65625000000000044 0 0.42389562394532898 1 I I #
point $-1 0.25000000000000017 -1.6250000000000004 0 #
face_name-twe-attrib $-1 $-1 $338 $228 6 #
model_id-kcp-attrib $-1 $602 $-1 $339 1 990669489 70 1850081281 8 #
face $603 $362 $604 $13 $-1 $605 reversed single #
loop $606 $351 $607 $339 #
cone-surface $608 0 -1.22 0 0 1 0 -0.25 5.0000000000000004e-016 0 1 I I 0.70710678118654702 0.70710678118654802 0.25 forward I I I I #
loop_type-twe-attrib $-1 $-1 $-1 $340 0 #
loop $609 $-1 $610 $228 #
coedge $-1 $481 $481 $484 $611 reversed $340 $-1 #
surf-twe-attrib $-1 $612 $-1 $341 93 #
loop_type-twe-attrib $-1 $-1 $-1 $343 1 #
coedge $-1 $484 $484 $481 $611 forward $343 $-1 #
coedge $-1 $613 $346 $614 $615 reversed $232 $-1 #
coedge $-1 $346 $613 $616 $617 forward $232 $-1 #
coedge $-1 $618 $618 $346 $488 reversed $619 $-1 #
edge $620 $621 -1.147026208846194 $622 0 $487 $623 forward 7 unknown #
coedge $-1 $348 $347 $624 $625 reversed $151 $-1 #
coedge $-1 $626 $627 $347 $491 forward $628 $-1 #
edge $629 $630 -0.500000000000001 $498 0 $490 $631 forward 7 unknown #
coedge $-1 $627 $626 $348 $493 reversed $628 $-1 #
edge $632 $633 -0.5 $497 0 $492 $634 forward 7 unknown #
coedge $-1 $349 $349 $626 $635 reversed $495 $-1 #
loop $636 $-1 $349 $637 #
edge_name-twe-attrib $-1 $-1 $-1 $350 14 8704 #
vertex $-1 $350 $638 #
vertex $-1 $635 $639 #
ellipse-curve $640 0 0.250000000000001 0 0 -1 0 0.78125 0 0 1 I I #
loop_type-twe-attrib $-1 $-1 $-1 $351 1 #
convexity-sys-attrib $-1 $641 $352 $236 #
point $-1 0.22 -1.25 -2.6942224933522202e-017 #
cur-twe-attrib $-1 $-1 $-1 $354 55 #
point $-1 0.78125 0 -9.56755146787009e-017 #
cur-twe-attrib $-1 $-1 $-1 $357 57 #
loop_type-twe-attrib $-1 $-1 $-1 $361 1 #
coedge $-1 $507 $507 $642 $643 reversed $361 $-1 #
model_id-kcp-attrib $-1 $644 $-1 $362 1 990669489 70 1850081281 10 #
face $645 $646 $647 $13 $-1 $648 reversed single #
cone-surface $649 0 2.0499999999999998 0 0 -1 0 -0.25 0 0 1 I I 0 1 0.25 forward I I I I #
edge_name-twe-attrib $-1 $-1 $363 $161 8 8704 #
plane-surface $-1 0.78125000000000022 0 0 -1 0 0 0 0 1 forward_v I I I I #
coedge $-1 $373 $371 $375 $517 reversed $251 $-1 #
edge $-1 $386 -0.78125 $519 0.78125 $385 $650 forward 7 unknown #
vertex $-1 $517 $651 #
straight-curve $-1 -0.78125000000000022 -1.6250000000000004 0 0 0 -1 I I #
edge $-1 $515 -1.6250000000000004 $519 1.6250000000000004 $513 $652 forward 7 unknown #
straight-curve $-1 0 -1.6250000000000004 -0.78125 -1 0 0 I I #
vertex $-1 $378 $653 #
straight-curve $-1 0 1.6250000000000004 -0.78125 1 0 0 I I #
point $-1 0.78125000000000022 1.6250000000000004 -0.78125 #
point $-1 0.78125000000000022 -1.6250000000000004 -0.78125 #
straight-curve $-1 -0.78125000000000022 0 0.78125 0 -1 0 I I #
point $-1 -0.78125000000000022 1.6250000000000004 0.78125 #
point $-1 -0.78125000000000022 -1.6250000000000004 0.78125 #
straight-curve $-1 0.78125000000000022 -1.6250000000000004 0 0 0 -1 I I #
straight-curve $-1 0.78125000000000022 1.6250000000000004 0 0 0 -1 I I #
vertex $-1 $396 $654 #
ellipse-curve $-1 0 0 0.015000000000000013 0 0 1 0.25 0 0 1 I I #
point $-1 0.25 0 -0.015000000000000013 #
point $-1 0.25 0 0.40000000000000002 #
point $-1 0.20000000000000001 0 -0.039913938097245194 #
point $-1 0 4.0200183676689173e-016 0.16008606190275723 #
face $-1 $655 $577 $47 $-1 $656 reversed single #
loop $-1 $-1 $415 $407 #
plane-surface $-1 -0.78125000000000022 0 0 1 0 0 0 0 -1 forward_v I I I I #
coedge $-1 $657 $410 $658 $659 reversed $284 $-1 #
coedge $-1 $410 $657 $660 $661 reversed $284 $-1 #
coedge $-1 $662 $663 $664 $413 forward $665 $-1 #
coedge $-1 $666 $667 $411 $541 forward $668 $-1 #
edge $-1 $426 0.57351310442309622 $545 2.1443094312179927 $540 $422 forward 7 unknown #
coedge $-1 $669 $670 $412 $543 forward $671 $-1 #
edge $-1 $544 -2.1443094312179927 $298 -0.57351310442309622 $542 $300 forward 7 unknown #
vertex $-1 $672 $673 #
vertex $-1 $674 $675 #
straight-curve $-1 -5.5511151231257827e-017 -1.6250000000000004 -0.78125 0 -1 0 I I #
coedge $-1 $676 $583 $414 $548 forward $677 $-1 #
edge $-1 $299 0.99728322237180045 $552 2.568079549166697 $547 $300 forward 7 unknown #
coedge $-1 $678 $415 $418 $556 reversed $535 $-1 #
coedge $-1 $415 $678 $676 $679 forward $535 $-1 #
coedge $-1 $680 $681 $657 $416 reversed $682 $-1 #
vertex $-1 $683 $684 #
straight-curve $-1 -0.78125000000000022 -1.6250000000000004 8.3266726846886741e-017 0 -1 0 I I #
coedge $-1 $430 $685 $417 $555 forward $408 $-1 #
edge $-1 $686 -0.78125000000000022 $421 -5.5511151231257827e-017 $417 $687 forward 7 unknown #
edge $-1 $686 -0.78125 $420 -8.3266726846886741e-017 $549 $688 forward 7 unknown #
face $-1 $689 $419 $47 $-1 $690 reversed single #
edge $-1 $420 -8.3266726846886741e-017 $691 0.78125 $681 $688 forward 7 unknown #
point $-1 -0.78125000000000022 -1.6250000000000004 8.3266726846886741e-017 #
edge $-1 $421 -5.5511151231257827e-017 $692 0.78125000000000022 $563 $687 forward 7 unknown #
point $-1 -5.5511151231257827e-017 -1.6250000000000004 0.78125 #
coedge $-1 $563 $423 $693 $694 reversed $564 $-1 #
coedge $-1 $423 $562 $428 $560 reversed $564 $-1 #
loop $-1 $-1 $423 $689 #
coedge $-1 $695 $425 $667 $569 forward $568 $-1 #
coedge $-1 $425 $695 $669 $437 reversed $568 $-1 #
coedge $-1 $434 $693 $197 $292 reversed $577 $-1 #
loop $-1 $-1 $425 $696 #
edge $-1 $426 -8.3266726846886741e-017 $697 0.78125 $565 $698 forward 7 unknown #
point $-1 0.78125000000000022 -1.6250000000000004 8.3266726846886741e-017 #
coedge $-1 $429 $428 $576 $699 forward $431 $-1 #
coedge $-1 $685 $430 $583 $439 forward $408 $-1 #
face $-1 $700 $431 $47 $-1 $409 forward single #
vertex $-1 $699 $701 #
straight-curve $-1 0 1.6250000000000004 0.78125 -1 0 0 I I #
coedge $-1 $693 $434 $571 $699 reversed $577 $-1 #
loop $-1 $-1 $567 $534 #
straight-curve $-1 0.78125000000000022 1.6250000000000004 0 0 0 -1 I I #
face $-1 $702 $677 $47 $-1 $580 reversed single #
plane-surface $-1 0 1.6250000000000004 0 0 -1 0 0 0 -1 forward_v I I I I #
vertex $-1 $703 $704 #
vertex $-1 $439 $705 #
coedge $-1 $547 $676 $572 $439 reversed $677 $-1 #
ellipse-curve $-1 -5.2735593669694926e-016 0.24999999999999933 -4.5863024805656236 0 -1 0 -0.4238956239453287 -8.0364791969593557e-017 -0.65625000000000056 1 I I #
convexity-sys-attrib $-1 $-1 $-1 $443 #
straight-curve $-1 0 0.24999999999999997 -3.9300524805656236 1 0 0 I I #
convexity-sys-attrib $-1 $-1 $-1 $444 #
straight-curve $-1 0 -0.24999999999999997 -3.9300524805656236 -1 0 0 I I #
point $-1 -0.4238956239453297 0.24999999999999997 -3.9300524805656241 #
point $-1 0.42389562394532926 0.24999999999999997 -3.9300524805656236 #
ellipse-curve $-1 -8.3266726846886654e-017 -0.25 -4.5863024805656227 0 1 0 -0.42389562394532926 0 0.65625000000000033 1 I I #
convexity-sys-attrib $-1 $-1 $-1 $455 #
straight-curve $-1 0 -0.25 -3.9300524805656227 -1 0 0 I I #
convexity-sys-attrib $-1 $-1 $-1 $456 #
straight-curve $-1 0 0.25 -3.9300524805656227 1 0 0 I I #
point $-1 0.4238956239453287 -0.25 -3.9300524805656223 #
point $-1 -0.42389562394532926 -0.25 -3.9300524805656227 #
vertex $-1 $467 $706 #
ellipse-curve $-1 1.6653345369377348e-016 -0.375 0 0 1 0 0 0 0.25 1 I I #
point $-1 -0.65625000000000044 -0.375 -0.42389562394532881 #
point $-1 -0.78125000000000022 -1.6250000000000004 8.3266726846886741e-017 #
face_name-twe-attrib $-1 $-1 $475 $339 7 #
model_id-kcp-attrib $-1 $707 $-1 $476 1 990669489 70 1850081281 9 #
loop $708 $709 $710 $476 #
plane-surface $711 0 1.2 0 0 -1 0 0 0 -1 forward_v I I I I #
loop_type-twe-attrib $-1 $-1 $-1 $477 0 #
coedge $-1 $607 $607 $610 $712 reversed $477 $-1 #
surf-twe-attrib $-1 $-1 $-1 $478 70 #
loop_type-twe-attrib $-1 $-1 $-1 $480 1 #
coedge $-1 $610 $610 $607 $712 forward $480 $-1 #
edge $713 $714 -3.1415926535897931 $714 3.1415926535897931 $481 $715 forward 7 unknown #
surf-twe-attrib $-1 $-1 $482 $341 47 #
coedge $-1 $486 $485 $716 $717 reversed $232 $-1 #
coedge $-1 $718 $719 $485 $615 forward $720 $-1 #
edge $721 $722 -0.500000000000001 $622 0 $614 $723 forward 7 unknown #
coedge $-1 $719 $718 $486 $617 reversed $720 $-1 #
edge $724 $725 -0.500000000000001 $621 0 $616 $726 forward 7 unknown #
coedge $-1 $487 $487 $718 $727 forward $619 $-1 #
loop $728 $-1 $487 $729 #
edge_name-twe-attrib $-1 $-1 $-1 $488 16 8704 #
vertex $-1 $727 $730 #
vertex $-1 $615 $731 #
ellipse-curve $732 0 0.250000000000001 0 0 -1 0 -0.65625 0 -0.42389562394532998 1 I I #
coedge $-1 $733 $733 $489 $625 forward $734 $-1 #
edge $735 $633 -0.57351310442309644 $630 0.57351310442309644 $624 $736 forward 7 unknown #
coedge $-1 $492 $490 $494 $635 forward $628 $-1 #
coedge $-1 $490 $492 $733 $737 reversed $628 $-1 #
loop $738 $-1 $490 $739 #
edge_name-twe-attrib $-1 $-1 $-1 $491 12 8448 #
vertex $-1 $625 $740 #
straight-curve $741 0.65625 0.250000000000001 0.42389562394532898 0 -1 0 I I #
edge_name-twe-attrib $-1 $-1 $-1 $493 13 8448 #
vertex $-1 $625 $742 #
straight-curve $743 0.65625 0.250000000000001 -0.42389562394532898 0 -1 0 I I #
edge $744 $498 -0.84779124789065796 $497 0 $494 $745 forward 7 unknown #
loop_type-twe-attrib $-1 $-1 $-1 $495 0 #
face $746 $729 $495 $13 $-1 $747 reversed single #
point $-1 0.65625 0.250000000000001 -0.42389562394532898 #
point $-1 0.65625 0.250000000000001 0.42389562394532898 #
cur-twe-attrib $-1 $-1 $-1 $499 81 #
edge_name-twe-attrib $-1 $-1 $501 $236 2 8448 #
coedge $-1 $642 $642 $507 $643 forward $709 $-1 #
edge $748 $749 -3.1415926535897931 $749 3.1415926535897931 $642 $750 forward 7 unknown #
face_name-twe-attrib $-1 $-1 $508 $362 9 #
model_id-kcp-attrib $-1 $751 $-1 $509 1 990669489 70 1850081281 11 #
face $752 $739 $753 $13 $-1 $754 reversed single #
loop $755 $756 $757 $509 #
cone-surface $758 0 2.0499999999999998 0 0 -1 0 -0.20000000000000001 0 0 1 I I 0 1 0.20000000000000001 forward I I I I #
surf-twe-attrib $-1 $759 $-1 $510 93 #
straight-curve $-1 -0.78125000000000022 1.6250000000000004 0 0 0 -1 I I #
point $-1 -0.78125000000000022 -1.6250000000000004 -0.78125 #
straight-curve $-1 -0.78125000000000022 0 -0.78125 0 1 0 I I #
point $-1 -0.78125000000000022 1.6250000000000004 -0.78125 #
point $-1 0.25 0 0.015000000000000013 #
face $-1 $557 $760 $47 $-1 $690 reversed single #
plane-surface $-1 0.78125000000000022 0 0 -1 0 0 0 0 1 forward_v I I I I #
coedge $-1 $538 $537 $286 $416 forward $284 $-1 #
coedge $-1 $761 $762 $537 $659 forward $763 $-1 #
edge $-1 $552 2.568079549166697 $544 4.1388758759615936 $658 $300 forward 7 unknown #
coedge $-1 $764 $765 $538 $661 forward $760 $-1 #
edge $-1 $545 2.1443094312179927 $420 3.7151057580128892 $660 $422 forward 7 unknown #
coedge $-1 $766 $539 $765 $674 forward $665 $-1 #
coedge $-1 $539 $766 $761 $767 forward $665 $-1 #
coedge $-1 $768 $769 $285 $413 reversed $770 $-1 #
loop $-1 $-1 $539 $700 #
coedge $-1 $667 $540 $769 $771 reversed $668 $-1 #
coedge $-1 $540 $666 $565 $569 reversed $668 $-1 #
loop $-1 $-1 $540 $772 #
coedge $-1 $670 $542 $566 $437 forward $671 $-1 #
coedge $-1 $542 $669 $768 $672 reversed $671 $-1 #
loop $-1 $-1 $542 $773 #
edge $-1 $544 -5.5511151231257827e-017 $581 0.78125000000000022 $670 $774 forward 7 unknown #
point $-1 -5.5511151231257827e-017 1.6250000000000004 -0.78125 #
edge $-1 $545 5.5511151231257827e-017 $691 0.78125000000000022 $765 $775 forward 7 unknown #
point $-1 -5.5511151231257827e-017 -1.6250000000000004 -0.78125 #
coedge $-1 $583 $547 $550 $679 reversed $677 $-1 #
loop $-1 $-1 $547 $579 #
coedge $-1 $550 $549 $685 $776 reversed $535 $-1 #
edge $-1 $582 -0.78125 $552 -8.3266726846886741e-017 $676 $777 forward 7 unknown #
coedge $-1 $778 $551 $762 $683 forward $682 $-1 #
coedge $-1 $551 $778 $764 $558 reversed $682 $-1 #
loop $-1 $-1 $551 $779 #
edge $-1 $552 -8.3266726846886741e-017 $780 0.78125 $762 $777 forward 7 unknown #
point $-1 -0.78125000000000022 1.6250000000000004 8.3266726846886741e-017 #
coedge $-1 $554 $572 $678 $776 forward $408 $-1 #
vertex $-1 $776 $781 #
straight-curve $-1 0 -1.6250000000000004 0.78125 1 0 0 I I #
straight-curve $-1 -0.78125000000000022 -1.6250000000000004 0 0 0 -1 I I #
face $-1 $772 $564 $47 $-1 $690 reversed single #
plane-surface $-1 0 -1.6250000000000004 0 0 1 0 0 0 1 forward_v I I I I #
vertex $-1 $782 $783 #
vertex $-1 $699 $784 #
coedge $-1 $567 $576 $562 $694 forward $577 $-1 #
edge $-1 $692 -0.78125 $426 -8.3266726846886741e-017 $693 $698 forward 7 unknown #
coedge $-1 $566 $565 $785 $703 reversed $568 $-1 #
face $-1 $-1 $568 $47 $-1 $656 reversed single #
vertex $-1 $569 $786 #
straight-curve $-1 0.78125000000000022 -1.6250000000000004 0 0 0 -1 I I #
edge $-1 $692 -1.6250000000000004 $574 1.6250000000000004 $576 $787 forward 7 unknown #
face $-1 $779 $665 $47 $-1 $788 reversed single #
point $-1 0.78125000000000022 1.6250000000000004 0.78125 #
face $-1 $789 $763 $47 $-1 $580 reversed single #
edge $-1 $581 -1.6250000000000004 $697 1.6250000000000004 $695 $790 forward 7 unknown #
point $-1 0.78125000000000022 1.6250000000000004 -0.78125 #
point $-1 -0.78125000000000022 1.6250000000000004 0.78125 #
point $-1 -0.24999999999999983 -0.37500000000000044 0 #
face_name-twe-attrib $-1 $-1 $603 $476 8 #
loop_type-twe-attrib $-1 $-1 $-1 $604 1 #
loop $791 $-1 $642 $476 #
coedge $-1 $710 $710 $757 $792 forward $604 $-1 #
surf-twe-attrib $-1 $-1 $-1 $605 98 #
edge $793 $794 -3.1415926535897931 $794 3.1415926535897931 $607 $795 forward 7 unknown #
edge_name-twe-attrib $-1 $-1 $-1 $611 5 8704 #
vertex $-1 $611 $796 #
ellipse-curve $797 0 -0.10000000000000001 0 0 1 0 -0.25 0 0 1 I I #
coedge $-1 $798 $798 $613 $717 forward $799 $-1 #
edge $800 $725 -0.57351310442309644 $722 0.57351310442309644 $716 $801 forward 7 unknown #
coedge $-1 $616 $614 $618 $727 reversed $720 $-1 #
coedge $-1 $614 $616 $798 $802 forward $720 $-1 #
loop $803 $-1 $616 $804 #
edge_name-twe-attrib $-1 $-1 $-1 $615 18 8448 #
vertex $-1 $802 $805 #
straight-curve $806 -0.65625 0.250000000000001 -0.42389562394532998 2.2204460492503101e-016 -1 -1.22124532708767e-015 I I #
edge_name-twe-attrib $-1 $-1 $-1 $617 17 8448 #
vertex $-1 $802 $807 #
straight-curve $808 -0.65625 0.250000000000001 0.42389562394532898 2.2204460492503101e-016 -1 8.8817841970012296e-016 I I #
edge $809 $621 -0.84779124789065896 $622 0 $718 $810 forward 7 unknown #
loop_type-twe-attrib $-1 $-1 $-1 $619 0 #
face $811 $804 $619 $13 $-1 $812 reversed single #
point $-1 -0.65625 0.250000000000001 0.42389562394532898 #
point $-1 -0.65625 0.250000000000001 -0.42389562394532998 #
cur-twe-attrib $-1 $-1 $-1 $623 110 #
coedge $-1 $624 $624 $627 $737 forward $734 $-1 #
loop $813 $-1 $624 $814 #
edge_name-twe-attrib $-1 $-1 $-1 $625 22 8704 #
ellipse-curve $815 0 0.750000000000002 0 0 -1 0 0.78125 0 0 1 I I #
edge $816 $630 -0.84779124789065796 $633 0 $733 $817 forward 7 unknown #
loop_type-twe-attrib $-1 $-1 $-1 $628 0 #
face $818 $637 $628 $13 $-1 $819 reversed single #
point $-1 0.65625 0.750000000000002 0.42389562394532898 #
cur-twe-attrib $-1 $-1 $-1 $631 113 #
point $-1 0.65625 0.750000000000001 -0.42389562394532898 #
cur-twe-attrib $-1 $-1 $-1 $634 115 #
edge_name-twe-attrib $-1 $-1 $-1 $635 15 4608 #
straight-curve $820 0.65625 0.250000000000001 -0.42389562394532898 0 0 -1 I I #
model_id-kcp-attrib $-1 $821 $-1 $637 1 990669489 70 1850081281 14 #
plane-surface $822 0.65625 0.250000000000001 -0.9375 0 -1 0 0 0 -1 forward_v I I I I #
attrib_edge_convexity-kcp-attrib $-1 $823 $-1 $643 2 #
vertex $-1 $643 $824 #
ellipse-curve $825 0 1.2 0 0 1 0 -0.25 0 0 1 I I #
face_name-twe-attrib $-1 $-1 $645 $509 10 #
model_id-kcp-attrib $-1 $826 $-1 $646 1 990669489 70 1850081281 12 #
loop $827 $828 $829 $646 #
cone-surface $830 0 1.12017212380551 0 0 1 0 -0.20000000000000001 -2e-016 0 1 I I 0.857167300702112 0.51503807491005404 0.20000000000000001 forward I I I I #
loop_type-twe-attrib $-1 $-1 $-1 $647 0 #
loop $831 $-1 $832 $509 #
coedge $-1 $757 $757 $710 $792 reversed $647 $-1 #
surf-twe-attrib $-1 $-1 $-1 $648 130 #
surf-twe-attrib $-1 $-1 $649 $510 47 #
loop $-1 $-1 $660 $655 #
coedge $-1 $762 $658 $663 $767 reversed $763 $-1 #
coedge $-1 $658 $761 $680 $683 reversed $763 $-1 #
loop $-1 $-1 $658 $702 #
coedge $-1 $765 $660 $681 $558 forward $760 $-1 #
coedge $-1 $660 $764 $662 $674 reversed $760 $-1 #
coedge $-1 $663 $662 $778 $782 forward $665 $-1 #
edge $-1 $780 -0.78125000000000022 $544 -5.5511151231257827e-017 $761 $774 forward 7 unknown #
coedge $-1 $785 $664 $670 $672 forward $770 $-1 #
coedge $-1 $664 $785 $666 $771 forward $770 $-1 #
loop $-1 $-1 $664 $789 #
edge $-1 $697 -0.78125000000000022 $545 5.5511151231257827e-017 $666 $775 forward 7 unknown #
face $-1 $773 $668 $47 $-1 $690 reversed single #
face $-1 $436 $671 $47 $-1 $580 reversed single #
straight-curve $-1 0 1.6250000000000004 -0.78125 1 0 0 I I #
straight-curve $-1 0 -1.6250000000000004 -0.78125 -1 0 0 I I #
edge $-1 $582 -1.6250000000000004 $686 1.6250000000000004 $678 $833 forward 7 unknown #
straight-curve $-1 -0.78125000000000022 1.6250000000000004 0 0 0 -1 I I #
coedge $-1 $681 $680 $766 $782 reversed $682 $-1 #
face $-1 $696 $682 $47 $-1 $536 reversed single #
vertex $-1 $767 $834 #
point $-1 -0.78125000000000022 -1.6250000000000004 0.78125 #
edge $-1 $691 -1.6250000000000004 $780 1.6250000000000004 $778 $835 forward 7 unknown #
point $-1 -0.78125000000000022 -1.6250000000000004 -0.78125 #
point $-1 0.78125000000000022 -1.6250000000000004 0.78125 #
coedge $-1 $769 $768 $695 $703 forward $770 $-1 #
point $-1 0.78125000000000022 -1.6250000000000004 -0.78125 #
straight-curve $-1 0.78125000000000022 0 0.78125 0 1 0 I I #
plane-surface $-1 0 0 -0.78125 0 0 1 1 0 0 forward_v I I I I #
face $-1 $573 $770 $47 $-1 $788 reversed single #
straight-curve $-1 0.78125000000000022 0 -0.78125 0 -1 0 I I #
loop_type-twe-attrib $-1 $-1 $-1 $709 0 #
edge $836 $837 0 $837 6.2831853071795862 $757 $838 forward 7 unknown #
attrib_edge_convexity-kcp-attrib $-1 $839 $-1 $712 1 #
vertex $-1 $712 $840 #
ellipse-curve $841 0 -1.22 0 2.0000000000000002e-015 1 0 -0.25 5.0000000000000004e-016 0 1 I I #
point $-1 0.25 -0.10000000000000001 3.0616164697184302e-017 #
cur-twe-attrib $-1 $-1 $-1 $715 140 #
coedge $-1 $716 $716 $719 $802 reversed $799 $-1 #
loop $842 $-1 $716 $843 #
edge_name-twe-attrib $-1 $-1 $-1 $717 20 8704 #
ellipse-curve $844 0 0.750000000000002 0 0 -1 0 -0.78125 0 0 1 I I #
edge $845 $725 -0.84779124789065796 $722 0 $798 $846 forward 7 unknown #
loop_type-twe-attrib $-1 $-1 $-1 $720 0 #
face $847 $843 $720 $13 $-1 $848 reversed single #
point $-1 -0.65625 0.750000000000002 -0.42389562394532898 #
cur-twe-attrib $-1 $-1 $-1 $723 144 #
point $-1 -0.65625 0.750000000000002 0.42389562394532898 #
cur-twe-attrib $-1 $-1 $-1 $726 146 #
edge_name-twe-attrib $-1 $-1 $-1 $727 19 4608 #
straight-curve $849 -0.65625 0.250000000000001 -0.42389562394532998 0 0 -1 I I #
model_id-kcp-attrib $-1 $850 $-1 $729 1 990669489 70 1850081281 15 #
plane-surface $851 -0.83125000000000004 0.250000000000001 -0.9375 0 -1 0 0 0 -1 forward_v I I I I #
loop_type-twe-attrib $-1 $-1 $-1 $734 0 #
face $852 $-1 $734 $13 $-1 $853 reversed single #
cur-twe-attrib $-1 $854 $-1 $736 154 #
edge_name-twe-attrib $-1 $-1 $-1 $737 23 4608 #
straight-curve $855 0.65625 0.750000000000001 -0.42389562394532898 0 -1.17859287253637e-015 -1 I I #
model_id-kcp-attrib $-1 $856 $-1 $739 1 990669489 70 1850081281 13 #
plane-surface $857 0.65625 0.750000000000001 -0.9375 -1 0 0 0 0 1 forward_v I I I I #
cur-twe-attrib $-1 $-1 $-1 $745 164 #
face_name-twe-attrib $-1 $-1 $746 $637 13 #
surf-twe-attrib $-1 $858 $-1 $747 198 #
convexity-sys-attrib $-1 $859 $748 $643 #
point $-1 0.25 1.2 3.0616164697184302e-017 #
cur-twe-attrib $-1 $-1 $-1 $750 171 #
face_name-twe-attrib $-1 $-1 $752 $646 11 #
loop_type-twe-attrib $-1 $-1 $-1 $753 0 #
loop $860 $-1 $861 $646 #
coedge $-1 $829 $829 $-1 $862 forward $753 $-1 #
surf-twe-attrib $-1 $-1 $-1 $754 173 #
loop_type-twe-attrib $-1 $-1 $-1 $756 1 #
coedge $-1 $832 $832 $861 $863 forward $756 $-1 #
straight-curve $-1 -0.78125000000000022 0 0.78125 0 -1 0 I I #
point $-1 -0.78125000000000022 1.6250000000000004 -0.78125 #
straight-curve $-1 -0.78125000000000022 0 -0.78125 0 1 0 I I #
attrib_edge_convexity-kcp-attrib $-1 $864 $-1 $792 1 #
vertex $-1 $792 $865 #
ellipse-curve $866 0 1.2 0 1.0000000000000001e-015 -1 0 -0.20000000000000001 -2e-016 0 1 I I #
convexity-sys-attrib $-1 $867 $793 $712 #
point $-1 0.25 -1.22 3.0616164697184302e-017 #
cur-twe-attrib $-1 $-1 $-1 $795 181 #
loop_type-twe-attrib $-1 $-1 $-1 $799 0 #
face $868 $814 $799 $13 $-1 $869 reversed single #
cur-twe-attrib $-1 $870 $-1 $801 154 #
edge_name-twe-attrib $-1 $-1 $-1 $802 21 4608 #
straight-curve $871 -0.65625 0.750000000000002 -0.42389562394532898 0 0 -1 I I #
model_id-kcp-attrib $-1 $872 $-1 $804 1 990669489 70 1850081281 16 #
plane-surface $873 -0.65625 0.250000000000001 -0.9375 1 0 0 0 0 -1 forward_v I I I I #
cur-twe-attrib $-1 $-1 $-1 $810 196 #
face_name-twe-attrib $-1 $-1 $811 $729 14 #
surf-twe-attrib $-1 $874 $-1 $812 198 #
model_id-kcp-attrib $-1 $875 $-1 $814 1 990669489 70 1850081281 18 #
plane-surface $876 0.88124999999999998 0.750000000000001 -0.9375 0 1 0 0 0 1 forward_v I I I I #
cur-twe-attrib $-1 $-1 $815 $736 186 #
cur-twe-attrib $-1 $-1 $-1 $817 206 #
face_name-twe-attrib $-1 $-1 $818 $739 12 #
surf-twe-attrib $-1 $-1 $-1 $819 208 #
surf-twe-attrib $-1 $-1 $822 $747 166 #
edge_name-twe-attrib $-1 $-1 $823 $643 7 4608 #
loop_type-twe-attrib $-1 $-1 $-1 $828 1 #
coedge $-1 $861 $861 $832 $863 reversed $828 $-1 #
edge $877 $878 1 $878 0 $829 $-1 forward 7 unknown #
edge $879 $880 -3.1415926535897931 $880 3.1415926535897931 $861 $881 forward 7 unknown #
convexity-sys-attrib $-1 $882 $836 $792 #
point $-1 -0.20000000000000001 1.2 0 #
cur-twe-attrib $-1 $-1 $-1 $838 229 #
edge_name-twe-attrib $-1 $-1 $839 $712 6 8448 #
model_id-kcp-attrib $-1 $883 $-1 $843 1 990669489 70 1850081281 17 #
plane-surface $884 -0.65625 0.750000000000001 -0.9375 0 1 0 0 0 1 forward_v I I I I #
cur-twe-attrib $-1 $-1 $844 $801 186 #
cur-twe-attrib $-1 $-1 $-1 $846 239 #
face_name-twe-attrib $-1 $-1 $847 $804 15 #
surf-twe-attrib $-1 $-1 $-1 $848 241 #
surf-twe-attrib $-1 $-1 $851 $812 166 #
face_name-twe-attrib $-1 $-1 $852 $814 17 #
surf-twe-attrib $-1 $885 $-1 $853 251 #
edge_name-twe-attrib $-1 $-1 $-1 $862 10 128 #
vertex $-1 $862 $886 #
attrib_edge_convexity-kcp-attrib $-1 $887 $-1 $863 2 #
vertex $-1 $863 $888 #
ellipse-curve $889 0 1.12017212380551 0 1.0000000000000001e-015 -1 0 -0.20000000000000001 -2e-016 0 1 I I #
edge_name-twe-attrib $-1 $-1 $864 $792 9 8704 #
face_name-twe-attrib $-1 $-1 $868 $843 16 #
surf-twe-attrib $-1 $890 $-1 $869 251 #
surf-twe-attrib $-1 $-1 $876 $853 273 #
point $-1 0 1 0 #
convexity-sys-attrib $-1 $891 $879 $863 #
point $-1 0.20000000000000001 1.12017212380551 -2.4492931757747401e-017 #
cur-twe-attrib $-1 $-1 $-1 $881 290 #
surf-twe-attrib $-1 $-1 $884 $869 273 #
edge_name-twe-attrib $-1 $-1 $887 $863 11 4352 #
End-of-ACIS-data 