104 311 0 0                             
body $-1 $1 $-1 $2 #
lump $-1 $-1 $3 $0 #
transform $-1 1 0 0 0 1 0 0 0 1 0 0 0 1 0 0 0 #
shell $-1 $-1 $-1 $4 $1 #
face $5 $6 $7 $3 $-1 $8 0 #
face_name-twe-attrib $-1 $-1 $-1 $4 1 #
face $9 $10 $11 $3 $-1 $12 1 #
loop $13 $14 $15 $4 #
plane-surface $16 0 2 0 0 1 0 0 0 1 0 #
face_name-twe-attrib $-1 $-1 $-1 $6 2 #
face $17 $18 $19 $3 $-1 $20 1 #
loop $21 $22 $23 $6 #
plane-surface $24 0 0 0 0 1 0 0 0 1 0 #
loop_type-twe-attrib $-1 $-1 $-1 $7 0 #
loop $25 $-1 $26 $4 #
coedge $-1 $15 $15 $27 $28 0 $7 $-1 #
surf-twe-attrib $-1 $-1 $-1 $8 4 #
face_name-twe-attrib $-1 $-1 $-1 $10 3 #
face $29 $30 $31 $3 $-1 $32 0 #
loop $33 $-1 $34 $10 #
plane-surface $35 0 -1.25 0 0 1 0 0 0 1 0 #
loop_type-twe-attrib $-1 $-1 $-1 $11 1 #
loop $36 $-1 $37 $6 #
coedge $-1 $23 $23 $38 $39 0 $11 $-1 #
surf-twe-attrib $-1 $-1 $-1 $12 6 #
loop_type-twe-attrib $-1 $-1 $-1 $14 1 #
coedge $-1 $26 $26 $40 $41 1 $14 $-1 #
coedge $-1 $27 $27 $15 $28 1 $42 $-1 #
edge $43 $44 $44 $27 $45 0 #
face_name-twe-attrib $-1 $-1 $-1 $18 4 #
face $46 $47 $48 $3 $-1 $49 1 #
loop $50 $51 $52 $18 #
cone-surface $53 0 -1.4125 0 0 1 0 0.78125 0 0 1 0 1 0 #
loop_type-twe-attrib $-1 $-1 $-1 $19 0 #
coedge $-1 $34 $34 $54 $55 0 $19 $-1 #
surf-twe-attrib $-1 $-1 $-1 $20 10 #
loop_type-twe-attrib $-1 $-1 $-1 $22 0 #
coedge $-1 $37 $37 $56 $57 0 $22 $-1 #
coedge $-1 $38 $38 $23 $39 1 $48 $-1 #
edge $58 $59 $59 $38 $60 0 #
coedge $-1 $40 $40 $26 $41 0 $61 $-1 #
edge $62 $63 $63 $40 $64 0 #
loop $65 $66 $27 $18 #
edge_name-twe-attrib $-1 $-1 $-1 $28 3 8704 #
vertex $-1 $28 $67 #
ellipse-curve $68 0 2 0 -1e-15 1 0 -0.78125 -7.8125e-16 0 1 #
face_name-twe-attrib $-1 $-1 $-1 $30 5 #
face $69 $70 $71 $3 $-1 $72 0 #
loop $73 $74 $38 $30 #
torus-surface $75 0 -0.05 0 0 1 0 0.25 0.05 0 0 1 0 #
loop_type-twe-attrib $-1 $-1 $-1 $31 0 #
loop $76 $42 $77 $18 #
coedge $-1 $78 $79 $80 $81 0 $31 $-1 #
surf-twe-attrib $-1 $-1 $-1 $32 18 #
coedge $-1 $54 $54 $34 $55 1 $82 $-1 #
edge $83 $84 $84 $34 $85 0 #
coedge $-1 $56 $56 $37 $57 1 $66 $-1 #
edge $86 $87 $87 $37 $88 0 #
edge_name-twe-attrib $-1 $-1 $-1 $39 4 20480 #
vertex $-1 $39 $89 #
ellipse-curve $90 0 0 0 0 1 0 -0.25 0 0 1 #
loop $91 $92 $40 $93 #
edge_name-twe-attrib $-1 $-1 $-1 $41 8 8704 #
vertex $-1 $41 $94 #
ellipse-curve $95 0 2 0 0 1 0 -0.25 0 0 1 #
loop_type-twe-attrib $-1 $-1 $-1 $42 1 #
loop $96 $-1 $56 $18 #
point $-1 -0.78125 2 0 #
cur-twe-attrib $-1 $-1 $-1 $45 28 #
face_name-twe-attrib $-1 $-1 $-1 $47 6 #
face $97 $98 $99 $3 $-1 $100 0 #
loop $101 $102 $103 $47 #
cone-surface $104 0 -1.4125 0 0 1 0 0.25 0 0 1 0 1 0 #
loop_type-twe-attrib $-1 $-1 $-1 $48 0 #
loop $105 $-1 $106 $30 #
surf-twe-attrib $-1 $-1 $-1 $49 30 #
loop_type-twe-attrib $-1 $-1 $-1 $51 1 #
coedge $-1 $107 $108 $109 $110 0 $51 $-1 #
coedge $-1 $111 $52 $112 $113 1 $31 $-1 #
coedge $-1 $52 $111 $114 $115 0 $31 $-1 #
coedge $-1 $116 $116 $52 $81 1 $117 $-1 #
edge $118 $119 $120 $80 $121 0 #
loop $122 $-1 $54 $70 #
edge_name-twe-attrib $-1 $-1 $-1 $55 2 8448 #
vertex $-1 $55 $123 #
ellipse-curve $124 0 -1.25 0 0 -1 0 -0.22 0 0 1 #
edge_name-twe-attrib $-1 $-1 $-1 $57 1 8704 #
vertex $-1 $57 $125 #
ellipse-curve $126 0 0 0 0 -1 0 -0.78125 0 0 1 #
point $-1 -0.25 0 0 #
cur-twe-attrib $-1 $-1 $-1 $60 39 #
loop_type-twe-attrib $-1 $-1 $-1 $61 0 #
loop $127 $-1 $128 $93 #
face $129 $130 $61 $3 $-1 $131 1 #
point $-1 -0.25 2 0 #
cur-twe-attrib $-1 $-1 $-1 $64 41 #
loop_type-twe-attrib $-1 $-1 $-1 $66 1 #
face_name-twe-attrib $-1 $-1 $-1 $70 7 #
face $132 $93 $133 $3 $-1 $134 1 #
loop $135 $82 $136 $70 #
cone-surface $137 0 -1.22 0 0 1 0 -0.25 5e-16 0 1 0.707106781186547 0.707106781186548 0 #
loop_type-twe-attrib $-1 $-1 $-1 $71 0 #
loop $138 $-1 $139 $47 #
coedge $-1 $103 $103 $106 $140 1 $71 $-1 #
surf-twe-attrib $-1 $141 $-1 $72 93 #
loop_type-twe-attrib $-1 $-1 $-1 $74 1 #
coedge $-1 $106 $106 $103 $140 0 $74 $-1 #
coedge $-1 $142 $77 $143 $144 1 $51 $-1 #
coedge $-1 $77 $142 $145 $146 0 $51 $-1 #
coedge $-1 $147 $147 $77 $110 1 $148 $-1 #
edge $149 $150 $151 $109 $152 0 #
coedge $-1 $79 $78 $153 $154 1 $31 $-1 #
coedge $-1 $155 $156 $78 $113 0 $157 $-1 #
edge $158 $159 $120 $112 $160 0 #
coedge $-1 $156 $155 $79 $115 1 $157 $-1 #
edge $161 $162 $119 $114 $163 0 #
coedge $-1 $80 $80 $155 $164 1 $117 $-1 #
loop $165 $-1 $80 $166 #
edge_name-twe-attrib $-1 $-1 $-1 $81 14 8704 #
vertex $-1 $81 $167 #
vertex $-1 $164 $168 #
ellipse-curve $169 0 0.250000000000001 0 0 -1 0 0.78125 0 0 1 #
loop_type-twe-attrib $-1 $-1 $-1 $82 1 #
point $-1 0.22 -1.25 -2.69422249335222e-17 #
cur-twe-attrib $-1 $-1 $-1 $85 55 #
point $-1 0.78125 0 -9.56755146787009e-17 #
cur-twe-attrib $-1 $-1 $-1 $88 57 #
loop_type-twe-attrib $-1 $-1 $-1 $92 1 #
coedge $-1 $128 $128 $170 $171 1 $92 $-1 #
face_name-twe-attrib $-1 $-1 $-1 $93 9 #
face $172 $173 $174 $3 $-1 $175 1 #
cone-surface $176 0 2.05 0 0 -1 0 -0.25 0 0 1 0 1 0 #
face_name-twe-attrib $-1 $-1 $-1 $98 8 #
loop $177 $178 $179 $98 #
plane-surface $180 0 1.2 0 0 -1 0 0 0 -1 0 #
loop_type-twe-attrib $-1 $-1 $-1 $99 0 #
coedge $-1 $136 $136 $139 $181 1 $99 $-1 #
surf-twe-attrib $-1 $-1 $-1 $100 70 #
loop_type-twe-attrib $-1 $-1 $-1 $102 1 #
coedge $-1 $139 $139 $136 $181 0 $102 $-1 #
edge $182 $183 $183 $103 $184 0 #
surf-twe-attrib $-1 $-1 $104 $72 47 #
coedge $-1 $108 $107 $185 $186 1 $51 $-1 #
coedge $-1 $187 $188 $107 $144 0 $189 $-1 #
edge $190 $191 $151 $143 $192 0 #
coedge $-1 $188 $187 $108 $146 1 $189 $-1 #
edge $193 $194 $150 $145 $195 0 #
coedge $-1 $109 $109 $187 $196 0 $148 $-1 #
loop $197 $-1 $109 $198 #
edge_name-twe-attrib $-1 $-1 $-1 $110 16 8704 #
vertex $-1 $196 $199 #
vertex $-1 $144 $200 #
ellipse-curve $201 0 0.250000000000001 0 0 -1 0 -0.65625 0 -0.42389562394533 1 #
coedge $-1 $202 $202 $111 $154 0 $203 $-1 #
edge $204 $162 $159 $153 $205 0 #
coedge $-1 $114 $112 $116 $164 0 $157 $-1 #
coedge $-1 $112 $114 $202 $206 1 $157 $-1 #
loop $207 $-1 $112 $208 #
edge_name-twe-attrib $-1 $-1 $-1 $113 12 8448 #
vertex $-1 $154 $209 #
straight-curve $210 0.65625 0.250000000000001 0.423895623945329 0 -1 0 #
edge_name-twe-attrib $-1 $-1 $-1 $115 13 8448 #
vertex $-1 $154 $211 #
straight-curve $212 0.65625 0.250000000000001 -0.423895623945329 0 -1 0 #
edge $213 $120 $119 $116 $214 0 #
loop_type-twe-attrib $-1 $-1 $-1 $117 0 #
face $215 $198 $117 $3 $-1 $216 1 #
point $-1 0.65625 0.250000000000001 -0.423895623945329 #
point $-1 0.65625 0.250000000000001 0.423895623945329 #
cur-twe-attrib $-1 $-1 $-1 $121 81 #
coedge $-1 $170 $170 $128 $171 0 $178 $-1 #
edge $217 $218 $218 $170 $219 0 #
face_name-twe-attrib $-1 $-1 $-1 $130 10 #
face $220 $208 $221 $3 $-1 $222 1 #
loop $223 $224 $225 $130 #
cone-surface $226 0 2.05 0 0 -1 0 -0.2 0 0 1 0 1 0 #
surf-twe-attrib $-1 $227 $-1 $131 93 #
loop_type-twe-attrib $-1 $-1 $-1 $133 1 #
loop $228 $-1 $170 $98 #
coedge $-1 $179 $179 $225 $229 0 $133 $-1 #
surf-twe-attrib $-1 $-1 $-1 $134 98 #
edge $230 $231 $231 $136 $232 0 #
edge_name-twe-attrib $-1 $-1 $-1 $140 5 8704 #
vertex $-1 $140 $233 #
ellipse-curve $234 0 -0.1 0 0 1 0 -0.25 0 0 1 #
coedge $-1 $235 $235 $142 $186 0 $236 $-1 #
edge $237 $194 $191 $185 $238 0 #
coedge $-1 $145 $143 $147 $196 1 $189 $-1 #
coedge $-1 $143 $145 $235 $239 0 $189 $-1 #
loop $240 $-1 $145 $241 #
edge_name-twe-attrib $-1 $-1 $-1 $144 18 8448 #
vertex $-1 $239 $242 #
straight-curve $243 -0.65625 0.250000000000001 -0.42389562394533 2.22044604925031e-16 -1 -1.22124532708767e-15 #
edge_name-twe-attrib $-1 $-1 $-1 $146 17 8448 #
vertex $-1 $239 $244 #
straight-curve $245 -0.65625 0.250000000000001 0.423895623945329 2.22044604925031e-16 -1 8.88178419700123e-16 #
edge $246 $150 $151 $187 $247 0 #
loop_type-twe-attrib $-1 $-1 $-1 $148 0 #
face $248 $241 $148 $3 $-1 $249 1 #
point $-1 -0.65625 0.250000000000001 0.423895623945329 #
point $-1 -0.65625 0.250000000000001 -0.42389562394533 #
cur-twe-attrib $-1 $-1 $-1 $152 110 #
coedge $-1 $153 $153 $156 $206 0 $203 $-1 #
loop $250 $-1 $153 $251 #
edge_name-twe-attrib $-1 $-1 $-1 $154 22 8704 #
ellipse-curve $252 0 0.750000000000002 0 0 -1 0 0.78125 0 0 1 #
edge $253 $159 $162 $202 $254 0 #
loop_type-twe-attrib $-1 $-1 $-1 $157 0 #
face $255 $166 $157 $3 $-1 $256 1 #
point $-1 0.65625 0.750000000000002 0.423895623945329 #
cur-twe-attrib $-1 $-1 $-1 $160 113 #
point $-1 0.65625 0.750000000000001 -0.423895623945329 #
cur-twe-attrib $-1 $-1 $-1 $163 115 #
edge_name-twe-attrib $-1 $-1 $-1 $164 15 4608 #
straight-curve $257 0.65625 0.250000000000001 -0.423895623945329 0 0 -1 #
face_name-twe-attrib $-1 $-1 $-1 $166 13 #
plane-surface $258 0.65625 0.250000000000001 -0.9375 0 -1 0 0 0 -1 0 #
edge_name-twe-attrib $-1 $-1 $-1 $171 7 4608 #
vertex $-1 $171 $259 #
ellipse-curve $260 0 1.2 0 0 1 0 -0.25 0 0 1 #
face_name-twe-attrib $-1 $-1 $-1 $173 11 #
loop $261 $262 $263 $173 #
cone-surface $264 0 1.12017212380551 0 0 1 0 -0.2 -2e-16 0 1 0.857167300702112 0.515038074910054 0 #
loop_type-twe-attrib $-1 $-1 $-1 $174 0 #
loop $265 $-1 $266 $130 #
coedge $-1 $225 $225 $179 $229 1 $174 $-1 #
surf-twe-attrib $-1 $-1 $-1 $175 130 #
surf-twe-attrib $-1 $-1 $176 $131 47 #
loop_type-twe-attrib $-1 $-1 $-1 $178 0 #
edge $267 $268 $268 $225 $269 0 #
edge_name-twe-attrib $-1 $-1 $-1 $181 6 8448 #
vertex $-1 $181 $270 #
ellipse-curve $271 0 -1.22 0 2e-15 1 0 -0.25 5e-16 0 1 #
point $-1 0.25 -0.1 3.06161646971843e-17 #
cur-twe-attrib $-1 $-1 $-1 $184 140 #
coedge $-1 $185 $185 $188 $239 1 $236 $-1 #
loop $272 $-1 $185 $273 #
edge_name-twe-attrib $-1 $-1 $-1 $186 20 8704 #
ellipse-curve $274 0 0.750000000000002 0 0 -1 0 -0.78125 0 0 1 #
edge $275 $194 $191 $235 $276 0 #
loop_type-twe-attrib $-1 $-1 $-1 $189 0 #
face $277 $273 $189 $3 $-1 $278 1 #
point $-1 -0.65625 0.750000000000002 -0.423895623945329 #
cur-twe-attrib $-1 $-1 $-1 $192 144 #
point $-1 -0.65625 0.750000000000002 0.423895623945329 #
cur-twe-attrib $-1 $-1 $-1 $195 146 #
edge_name-twe-attrib $-1 $-1 $-1 $196 19 4608 #
straight-curve $279 -0.65625 0.250000000000001 -0.42389562394533 0 0 -1 #
face_name-twe-attrib $-1 $-1 $-1 $198 14 #
plane-surface $280 -0.83125 0.250000000000001 -0.9375 0 -1 0 0 0 -1 0 #
loop_type-twe-attrib $-1 $-1 $-1 $203 0 #
face $281 $-1 $203 $3 $-1 $282 1 #
cur-twe-attrib $-1 $283 $-1 $205 154 #
edge_name-twe-attrib $-1 $-1 $-1 $206 23 4608 #
straight-curve $284 0.65625 0.750000000000001 -0.423895623945329 0 -1.17859287253637e-15 -1 #
face_name-twe-attrib $-1 $-1 $-1 $208 12 #
plane-surface $285 0.65625 0.750000000000001 -0.9375 -1 0 0 0 0 1 0 #
cur-twe-attrib $-1 $-1 $-1 $214 164 #
surf-twe-attrib $-1 $286 $-1 $216 198 #
point $-1 0.25 1.2 3.06161646971843e-17 #
cur-twe-attrib $-1 $-1 $-1 $219 171 #
loop_type-twe-attrib $-1 $-1 $-1 $221 0 #
loop $287 $-1 $288 $173 #
coedge $-1 $263 $263 $-1 $289 0 $221 $-1 #
surf-twe-attrib $-1 $-1 $-1 $222 173 #
loop_type-twe-attrib $-1 $-1 $-1 $224 1 #
coedge $-1 $266 $266 $288 $290 0 $224 $-1 #
edge_name-twe-attrib $-1 $-1 $-1 $229 9 8704 #
vertex $-1 $229 $291 #
ellipse-curve $292 0 1.2 0 1e-15 -1 0 -0.2 -2e-16 0 1 #
point $-1 0.25 -1.22 3.06161646971843e-17 #
cur-twe-attrib $-1 $-1 $-1 $232 181 #
loop_type-twe-attrib $-1 $-1 $-1 $236 0 #
face $293 $251 $236 $3 $-1 $294 1 #
cur-twe-attrib $-1 $295 $-1 $238 154 #
edge_name-twe-attrib $-1 $-1 $-1 $239 21 4608 #
straight-curve $296 -0.65625 0.750000000000002 -0.423895623945329 0 0 -1 #
face_name-twe-attrib $-1 $-1 $-1 $241 15 #
plane-surface $297 -0.65625 0.250000000000001 -0.9375 1 0 0 0 0 -1 0 #
cur-twe-attrib $-1 $-1 $-1 $247 196 #
surf-twe-attrib $-1 $298 $-1 $249 198 #
face_name-twe-attrib $-1 $-1 $-1 $251 17 #
plane-surface $299 0.88125 0.750000000000001 -0.9375 0 1 0 0 0 1 0 #
cur-twe-attrib $-1 $-1 $252 $205 186 #
cur-twe-attrib $-1 $-1 $-1 $254 206 #
surf-twe-attrib $-1 $-1 $-1 $256 208 #
surf-twe-attrib $-1 $-1 $258 $216 166 #
loop_type-twe-attrib $-1 $-1 $-1 $262 1 #
coedge $-1 $288 $288 $266 $290 1 $262 $-1 #
edge $300 $301 $301 $263 $-1 0 #
edge $302 $303 $303 $288 $304 0 #
point $-1 -0.2 1.2 0 #
cur-twe-attrib $-1 $-1 $-1 $269 229 #
face_name-twe-attrib $-1 $-1 $-1 $273 16 #
plane-surface $305 -0.65625 0.750000000000001 -0.9375 0 1 0 0 0 1 0 #
cur-twe-attrib $-1 $-1 $274 $238 186 #
cur-twe-attrib $-1 $-1 $-1 $276 239 #
surf-twe-attrib $-1 $-1 $-1 $278 241 #
surf-twe-attrib $-1 $-1 $280 $249 166 #
surf-twe-attrib $-1 $306 $-1 $282 251 #
edge_name-twe-attrib $-1 $-1 $-1 $289 10 128 #
vertex $-1 $289 $307 #
edge_name-twe-attrib $-1 $-1 $-1 $290 11 4352 #
vertex $-1 $290 $308 #
ellipse-curve $309 0 1.12017212380551 0 1e-15 -1 0 -0.2 -2e-16 0 1 #
surf-twe-attrib $-1 $310 $-1 $294 251 #
surf-twe-attrib $-1 $-1 $299 $282 273 #
point $-1 0 1 0 #
point $-1 0.2 1.12017212380551 -2.44929317577474e-17 #
cur-twe-attrib $-1 $-1 $-1 $304 290 #
surf-twe-attrib $-1 $-1 $305 $294 273 #
