700 0 2 0           
24 FBMach with ACIS - 7.0.3 13 ACIS 7.0.3 NT 24 Tue May 14 10:17:07 2002 
1 9.9999999999999995e-007 1e-010 
body $2 -1 $-1 $3 $-1 $4 #
bdycol-kcp $-1 -1 1 8 $5 $6 $7 $8 $9 $10 $11 $12 #
model_id-kcp-attrib $-1 -1 $-1 $-1 $0 1 1021385826 1021385826 -1158283263 1 #
lump $-1 -1 $-1 $-1 $13 $0 #
transform $-1 -1 1 0 0 0 1 0 0 0 1 0 0 0 1 rotate no_reflect no_shear #
body $14 -1 $-1 $15 $-1 $16 #
body $17 -1 $-1 $18 $-1 $19 #
body $20 -1 $-1 $21 $-1 $22 #
body $23 -1 $-1 $24 $-1 $25 #
body $26 -1 $-1 $27 $-1 $28 #
body $29 -1 $-1 $30 $-1 $31 #
body $32 -1 $-1 $33 $-1 $34 #
body $35 -1 $-1 $36 $-1 $37 #
shell $-1 -1 $-1 $-1 $-1 $38 $-1 $3 #
rgb_color-st-attrib $-1 -1 $39 $-1 $5 1 1 0.5 #
lump $-1 -1 $-1 $-1 $40 $5 #
transform $-1 -1 1 0 0 0 0 1 0 -1 0 0 -1.2349999999999999 0 1 rotate no_reflect no_shear #
rgb_color-st-attrib $-1 -1 $41 $-1 $6 1 0 0 #
lump $-1 -1 $-1 $-1 $42 $6 #
transform $-1 -1 3.8285889215894375e-016 -4.6885143195523885e-032 -1 -1.2246063538223773e-016 -1 0 -1 1.2246063538223773e-016 -3.8285889215894375e-016 -4.5863024805656236 0.50000000000000144 -2.1999958966652327e-015 1 rotate no_reflect no_shear #
rgb_color-st-attrib $-1 -1 $43 $-1 $7 0.5 1 1 #
lump $-1 -1 $-1 $-1 $44 $7 #
transform $-1 -1 1 0 0 0 -3.8285889215894375e-016 1 0 -1 -3.8285889215894375e-016 0 1.6000000000000001 -1.7228650147152459e-016 1 rotate no_reflect no_shear #
rgb_color-st-attrib $-1 -1 $45 $-1 $8 0.5 1 1 #
lump $-1 -1 $-1 $-1 $46 $8 #
transform $-1 -1 1 0 0 0 -3.8285889215894375e-016 1 0 -1 -3.8285889215894375e-016 0 1.1600860619027551 -3.4071146445671396e-016 1 rotate no_reflect no_shear #
rgb_color-st-attrib $-1 -1 $47 $-1 $9 0.5 1 1 #
lump $-1 -1 $-1 $-1 $48 $9 #
transform $-1 -1 1 0 0 0 1 0 0 0 1 -1.6653345369377348e-016 0.37500000000000044 0 1 no_rotate no_reflect no_shear #
rgb_color-st-attrib $-1 -1 $49 $-1 $10 1 0 0 #
lump $-1 -1 $-1 $-1 $50 $10 #
transform $-1 -1 -3.8285889215894375e-016 0 -1 0 1 0 1 0 -3.8285889215894375e-016 4.5863024805656227 0.500000000000001 -1.7559066868151699e-015 1 rotate no_reflect no_shear #
model_id-kcp-attrib $-1 -1 $-1 $-1 $11 1 1021385826 1021385826 -1158283262 1 #
lump $-1 -1 $-1 $-1 $51 $11 #
transform $-1 -1 1 0 0 0 1 0 0 0 1 -1.6653345369377348e-016 0.37500000000000044 0 1 no_rotate no_reflect no_shear #
rgb_color-st-attrib $-1 -1 $52 $-1 $12 1 0.5 1 #
lump $-1 -1 $-1 $-1 $53 $12 #
transform $-1 -1 1 0 0 0 1 0 0 0 1 -1.6653345369377348e-016 0.37500000000000044 0 1 no_rotate no_reflect no_shear #
face $54 -1 $-1 $55 $56 $13 $-1 $57 forward single #
model_id-kcp-attrib $-1 -1 $-1 $14 $5 1 1021385826 1021385826 -1174405117 1 #
shell $-1 -1 $-1 $-1 $-1 $58 $-1 $15 #
model_id-kcp-attrib $-1 -1 $-1 $17 $6 1 1021385826 1021385826 -1172111353 1 #
shell $-1 -1 $-1 $-1 $-1 $59 $-1 $18 #
model_id-kcp-attrib $-1 -1 $-1 $20 $7 1 1021385826 1021385826 -1170472956 1 #
shell $-1 -1 $-1 $-1 $-1 $60 $-1 $21 #
model_id-kcp-attrib $-1 -1 $-1 $23 $8 1 1021385826 1021385826 -1169817595 1 #
shell $-1 -1 $-1 $-1 $-1 $61 $-1 $24 #
model_id-kcp-attrib $-1 -1 $-1 $26 $9 1 1021385826 1021385826 -1165885434 1 #
shell $-1 -1 $-1 $-1 $-1 $62 $-1 $27 #
model_id-kcp-attrib $-1 -1 $-1 $29 $10 1 1021385826 1021385826 -1164902392 1 #
shell $-1 -1 $-1 $-1 $-1 $63 $-1 $30 #
shell $-1 -1 $-1 $-1 $-1 $64 $-1 $33 #
model_id-kcp-attrib $-1 -1 $-1 $35 $12 1 1021385826 1021385827 -1172897783 1 #
shell $-1 -1 $-1 $-1 $-1 $65 $-1 $36 #
model_id-kcp-attrib $-1 -1 $66 $-1 $38 1 1021385826 1021385826 -1158283263 2 #
face $67 -1 $-1 $68 $69 $13 $-1 $70 reversed single #
loop $71 -1 $-1 $72 $73 $38 #
plane-surface $74 -1 $-1 0 2 0 0 1 0 0 0 1 forward_v I I I I #
face $-1 -1 $-1 $75 $76 $40 $-1 $77 reversed single #
face $-1 -1 $-1 $78 $79 $42 $-1 $80 forward single #
face $-1 -1 $-1 $81 $82 $44 $-1 $83 forward single #
face $-1 -1 $-1 $84 $85 $46 $-1 $86 forward single #
face $-1 -1 $-1 $87 $88 $48 $-1 $89 reversed single #
face $-1 -1 $-1 $90 $91 $50 $-1 $92 forward single #
face $-1 -1 $-1 $93 $94 $51 $-1 $95 forward single #
face $96 -1 $-1 $97 $98 $53 $-1 $99 reversed single #
face_name-twe-attrib $-1 -1 $-1 $54 $38 1 #
model_id-kcp-attrib $-1 -1 $100 $-1 $55 1 1021385826 1021385826 -1158283263 3 #
face $101 -1 $-1 $102 $103 $13 $-1 $104 reversed single #
loop $105 -1 $-1 $106 $107 $55 #
plane-surface $108 -1 $-1 0 0 0 0 1 0 0 0 1 forward_v I I I I #
loop_type-twe-attrib $-1 -1 $-1 $-1 $56 0 #
loop $109 -1 $-1 $-1 $110 $38 #
coedge $-1 -1 $-1 $73 $73 $111 $112 forward $56 $-1 #
surf-twe-attrib $-1 -1 $-1 $-1 $57 4 #
face $-1 -1 $-1 $113 $114 $40 $-1 $115 forward single #
loop $-1 -1 $-1 $116 $117 $58 #
cone-surface $-1 -1 $-1 0 0 0.11000000000000032 0 0 1 0.125 0 0 1 I I -0.70710678118654724 0.70710678118654791 0.125 forward I I I I #
face $-1 -1 $-1 $118 $119 $42 $-1 $120 reversed single #
loop $-1 -1 $-1 $-1 $121 $59 #
cone-surface $-1 -1 $-1 -5.2735593669694916e-016 1.7500000000000009 -4.5863024805656236 4.6885143195523885e-032 1 -1.2246063538223773e-016 -0.4238956239453287 -8.0364791969593557e-017 -0.65625000000000056 1 I I 0 1 0.78125000000000033 forward I I I I #
face $-1 -1 $-1 $122 $123 $44 $-1 $124 forward single #
loop $-1 -1 $-1 $125 $126 $60 #
cone-surface $-1 -1 $-1 0 0 0 0 0 1 0.25 0 0 1 I I 0 1 0.25 forward I I I I #
face $-1 -1 $-1 $127 $128 $46 $-1 $129 forward single #
loop $-1 -1 $-1 $130 $131 $61 #
cone-surface $-1 -1 $-1 0 3.7899735367260883e-016 0.1000000000000012 0 3.8285889215894375e-016 1 0.10000000000000001 0 0 1 I I -0.85716730070211233 0.51503807491005416 0.10000000000000001 forward I I I I #
face $-1 -1 $-1 $132 $133 $48 $-1 $89 reversed single #
loop $-1 -1 $-1 $-1 $134 $62 #
cone-surface $-1 -1 $-1 -5.5511151231257827e-017 -1.6250000000000004 8.3266726846886741e-017 0 -1 0 0.65625000000000044 0 0.42389562394532898 1 I I 0 1 0.78125000000000033 forward I I I I #
face $-1 -1 $-1 $135 $136 $50 $-1 $137 reversed single #
loop $-1 -1 $-1 $-1 $138 $63 #
cone-surface $-1 -1 $-1 -8.3266726846886654e-017 -1.7500000000000009 -4.5863024805656227 0 -1 0 -0.42389562394532926 0 0.65625000000000033 1 I I 0 1 0.78125000000000033 forward I I I I #
face $-1 -1 $-1 $139 $140 $51 $-1 $141 reversed single #
loop $-1 -1 $-1 $-1 $142 $64 #
plane-surface $-1 -1 $-1 0 0 0.78125 0 0 1 1 0 0 forward_v I I I I #
face_name-twe-attrib $-1 -1 $-1 $-1 $65 6 #
face $-1 -1 $-1 $143 $144 $53 $-1 $145 forward single #
loop $146 -1 $-1 $147 $148 $65 #
cone-surface $149 -1 $-1 1.6653345369377348e-016 -1.7875000000000005 0 0 1 0 0.25 0 0 1 I I 0 1 0.25 forward I I I I #
face_name-twe-attrib $-1 -1 $-1 $67 $55 2 #
model_id-kcp-attrib $-1 -1 $150 $-1 $68 1 1021385826 1021385826 -1158283263 4 #
face $151 -1 $-1 $152 $153 $13 $-1 $154 forward single #
loop $155 -1 $-1 $-1 $156 $68 #
plane-surface $157 -1 $-1 0 -1.25 0 0 1 0 0 0 1 forward_v I I I I #
loop_type-twe-attrib $-1 -1 $-1 $-1 $69 1 #
loop $158 -1 $-1 $-1 $159 $55 #
coedge $-1 -1 $-1 $107 $107 $160 $161 forward $69 $-1 #
surf-twe-attrib $-1 -1 $-1 $-1 $70 6 #
loop_type-twe-attrib $-1 -1 $-1 $-1 $72 1 #
coedge $-1 -1 $-1 $110 $110 $162 $163 reversed $72 $-1 #
coedge $-1 -1 $-1 $111 $111 $73 $112 reversed $164 $-1 #
edge $165 -1 $-1 $166 0 $166 6.2831853071795862 $111 $167 forward @7 unknown #
face $-1 -1 $-1 $-1 $168 $40 $-1 $169 forward single #
loop $-1 -1 $-1 $170 $171 $75 #
cone-surface $-1 -1 $-1 0 0 0 0 0 1 0.25 0 0 1 I I 0 1 0.25 forward I I I I #
loop $-1 -1 $-1 $-1 $172 $58 #
coedge $-1 -1 $-1 $117 $117 $173 $174 reversed $76 $-1 #
face $-1 -1 $-1 $175 $176 $42 $-1 $177 reversed single #
loop $-1 -1 $-1 $-1 $178 $78 #
plane-surface $-1 -1 $-1 0 0 -3.9300524805656236 0 0 1 1 0 0 forward_v I I I I #
coedge $-1 -1 $-1 $179 $180 $181 $182 forward $79 $-1 #
face $-1 -1 $-1 $-1 $183 $44 $-1 $184 forward single #
loop $-1 -1 $-1 $-1 $185 $81 #
plane-surface $-1 -1 $-1 0 0 -0.40000000000000002 0 0 -1 -1 0 0 forward_v I I I I #
loop $-1 -1 $-1 $-1 $186 $60 #
coedge $-1 -1 $-1 $126 $126 $185 $187 reversed $82 $-1 #
face $-1 -1 $-1 $-1 $188 $46 $-1 $189 forward single #
loop $-1 -1 $-1 $190 $191 $84 #
cone-surface $-1 -1 $-1 0 0 0 0 0 1 0.20000000000000001 0 0 1 I I 0 1 0.20000000000000001 forward I I I I #
loop $-1 -1 $-1 $-1 $192 $61 #
coedge $-1 -1 $-1 $131 $131 $193 $194 forward $85 $-1 #
face $-1 -1 $-1 $195 $196 $48 $-1 $89 reversed single #
loop $-1 -1 $-1 $-1 $197 $87 #
coedge $-1 -1 $-1 $198 $199 $200 $201 reversed $88 $-1 #
face $-1 -1 $-1 $202 $203 $50 $-1 $204 reversed single #
loop $-1 -1 $-1 $-1 $205 $90 #
plane-surface $-1 -1 $-1 0 0 -3.9300524805656227 0 0 1 1 0 0 forward_v I I I I #
coedge $-1 -1 $-1 $206 $207 $208 $209 forward $91 $-1 #
face $210 -1 $-1 $211 $212 $51 $-1 $213 reversed single #
loop $-1 -1 $-1 $-1 $214 $93 #
plane-surface $-1 -1 $-1 0 0 -0.78125 0 0 1 1 0 0 forward_v I I I I #
coedge $-1 -1 $-1 $215 $216 $217 $218 forward $94 $-1 #
face $-1 -1 $-1 $219 $220 $53 $-1 $221 reversed single #
loop $222 -1 $-1 $223 $224 $97 #
torus-surface $225 -1 $-1 1.6653345369377348e-016 -0.42500000000000043 0 0 1 0 0.25 0.050000000000000003 0 0 1 forward_v I I I I #
loop_type-twe-attrib $-1 -1 $-1 $-1 $98 0 #
loop $-1 -1 $-1 $-1 $226 $65 #
coedge $-1 -1 $-1 $148 $148 $224 $227 forward $98 $-1 #
surf-twe-attrib $-1 -1 $228 $-1 $99 93 #
face_name-twe-attrib $-1 -1 $-1 $101 $68 3 #
model_id-kcp-attrib $-1 -1 $229 $-1 $102 1 1021385826 1021385826 -1158283263 5 #
face $230 -1 $-1 $231 $232 $13 $-1 $233 reversed single #
loop $234 -1 $-1 $235 $236 $102 #
cone-surface $237 -1 $-1 0 -1.4125000000000001 0 0 1 0 0.78125 0 0 1 I I 0 1 0.78125 forward I I I I #
loop_type-twe-attrib $-1 -1 $-1 $-1 $103 0 #
coedge $-1 -1 $-1 $156 $156 $238 $239 forward $103 $-1 #
surf-twe-attrib $-1 -1 $-1 $-1 $104 10 #
loop_type-twe-attrib $-1 -1 $-1 $-1 $106 0 #
coedge $-1 -1 $-1 $159 $159 $240 $241 forward $106 $-1 #
coedge $-1 -1 $-1 $160 $160 $107 $161 reversed $232 $-1 #
edge $242 -1 $-1 $243 0 $243 6.2831853071795862 $160 $244 forward @7 unknown #
coedge $-1 -1 $-1 $162 $162 $110 $163 forward $245 $-1 #
edge $246 -1 $-1 $247 0 $247 6.2831853071795862 $162 $248 forward @7 unknown #
loop $249 -1 $-1 $250 $111 $102 #
edge_name-twe-attrib $-1 -1 $-1 $-1 $112 3 8704 #
vertex $-1 -1 $-1 $112 $251 #
ellipse-curve $252 -1 $-1 0 2 0 -1.0000000000000001e-015 1 0 -0.78125 -7.8125000000000002e-016 0 1 I I #
loop $-1 -1 $-1 $253 $173 $113 #
plane-surface $-1 -1 $-1 0 0 0.015000000000000013 0 0 1 1 0 0 forward_v I I I I #
loop $-1 -1 $-1 $-1 $254 $75 #
coedge $-1 -1 $-1 $171 $171 $172 $255 reversed $114 $-1 #
coedge $-1 -1 $-1 $172 $172 $171 $255 forward $116 $-1 #
coedge $-1 -1 $-1 $173 $173 $117 $174 forward $168 $-1 #
edge $-1 -1 $-1 $256 -3.1415926535897931 $256 3.1415926535897931 $173 $257 forward @7 unknown #
face $-1 -1 $-1 $-1 $258 $42 $-1 $259 reversed single #
loop $-1 -1 $-1 $-1 $260 $118 #
plane-surface $-1 -1 $-1 0 0.24999999999999997 0 0 -1 0 0 0 -1 forward_v I I I I #
coedge $-1 -1 $-1 $261 $262 $180 $263 reversed $119 $-1 #
coedge $-1 -1 $-1 $264 $121 $265 $266 forward $79 $-1 #
coedge $-1 -1 $-1 $121 $264 $178 $263 forward $79 $-1 #
coedge $-1 -1 $-1 $267 $267 $121 $182 reversed $258 $-1 #
edge $-1 -1 $-1 $268 1.9945664447436005 $269 3.1415926535897936 $181 $270 forward @7 unknown #
loop $-1 -1 $-1 $-1 $271 $122 #
plane-surface $-1 -1 $-1 0 0 0.40000000000000002 0 0 1 1 0 0 forward_v I I I I #
coedge $-1 -1 $-1 $185 $185 $126 $187 forward $123 $-1 #
coedge $-1 -1 $-1 $186 $186 $271 $272 reversed $125 $-1 #
edge $-1 -1 $-1 $273 0 $273 6.2831853071795862 $185 $274 forward @7 unknown #
loop $-1 -1 $-1 $-1 $275 $127 #
plane-surface $-1 -1 $-1 0 0 -0.039913938097245194 0 0 -1 -1 0 0 forward_v I I I I #
loop $-1 -1 $-1 $-1 $193 $84 #
coedge $-1 -1 $-1 $191 $191 $275 $276 reversed $128 $-1 #
coedge $-1 -1 $-1 $192 $192 $-1 $277 reversed $130 $-1 #
coedge $-1 -1 $-1 $193 $193 $131 $194 reversed $190 $-1 #
edge $-1 -1 $-1 $278 0 $278 6.2831853071795862 $193 $279 forward @7 unknown #
face $-1 -1 $-1 $280 $281 $48 $-1 $89 reversed single #
loop $-1 -1 $-1 $-1 $282 $132 #
coedge $-1 -1 $-1 $283 $284 $285 $286 reversed $133 $-1 #
coedge $-1 -1 $-1 $287 $134 $288 $289 forward $88 $-1 #
coedge $-1 -1 $-1 $134 $287 $290 $291 reversed $88 $-1 #
coedge $-1 -1 $-1 $292 $293 $134 $201 forward $294 $-1 #
edge $-1 -1 $-1 $295 -0.57351310442309622 $296 0.99728322237180045 $200 $297 forward @7 unknown #
face $-1 -1 $-1 $-1 $298 $50 $-1 $299 reversed single #
loop $-1 -1 $-1 $-1 $300 $135 #
plane-surface $-1 -1 $-1 0 -0.25 0 0 1 0 0 0 1 forward_v I I I I #
coedge $-1 -1 $-1 $301 $302 $207 $303 reversed $136 $-1 #
coedge $-1 -1 $-1 $304 $138 $305 $306 forward $91 $-1 #
coedge $-1 -1 $-1 $138 $304 $205 $303 forward $91 $-1 #
coedge $-1 -1 $-1 $307 $307 $138 $209 reversed $298 $-1 #
edge $-1 -1 $-1 $308 -1.1470262088461924 $309 1.8189894035458558e-016 $208 $310 forward @7 unknown #
model_id-kcp-attrib $-1 -1 $-1 $-1 $139 1 1021385826 1021385826 -1158283262 3 #
face $-1 -1 $-1 $311 $312 $51 $-1 $313 reversed single #
loop $-1 -1 $-1 $-1 $314 $139 #
plane-surface $-1 -1 $-1 0 -1.6250000000000004 0 0 1 0 0 0 1 forward_v I I I I #
coedge $-1 -1 $-1 $315 $316 $317 $318 forward $140 $-1 #
coedge $-1 -1 $-1 $319 $142 $320 $321 forward $94 $-1 #
coedge $-1 -1 $-1 $142 $319 $322 $323 forward $94 $-1 #
coedge $-1 -1 $-1 $324 $325 $142 $218 reversed $326 $-1 #
edge $-1 -1 $-1 $327 -1.6250000000000004 $328 1.6250000000000004 $217 $329 forward @7 unknown #
face $-1 -1 $-1 $330 $331 $53 $-1 $332 forward single #
loop $-1 -1 $-1 $333 $334 $143 #
plane-surface $-1 -1 $-1 1.6653345369377348e-016 -0.375 0 0 -1 0 1 0 0 forward_v I I I I #
loop_type-twe-attrib $-1 -1 $-1 $-1 $144 1 #
loop $335 -1 $-1 $-1 $336 $97 #
coedge $-1 -1 $-1 $224 $224 $148 $227 reversed $144 $-1 #
surf-twe-attrib $-1 -1 $-1 $-1 $145 30 #
coedge $-1 -1 $-1 $226 $226 $337 $338 reversed $147 $-1 #
edge $339 -1 $-1 $340 -3.1415926535897931 $340 3.1415926535897931 $148 $341 forward @7 unknown #
surf-twe-attrib $-1 -1 $-1 $149 $99 47 #
face_name-twe-attrib $-1 -1 $-1 $151 $102 4 #
model_id-kcp-attrib $-1 -1 $342 $-1 $152 1 1021385826 1021385826 -1158283263 6 #
face $343 -1 $-1 $344 $345 $13 $-1 $346 forward single #
loop $347 -1 $-1 $348 $160 $152 #
torus-surface $349 -1 $-1 0 -0.050000000000000003 0 0 1 0 0.25 0.050000000000000003 0 0 1 forward_v I I I I #
loop_type-twe-attrib $-1 -1 $-1 $-1 $153 0 #
loop $350 -1 $-1 $164 $351 $102 #
coedge $-1 -1 $-1 $352 $353 $354 $355 forward $153 $-1 #
surf-twe-attrib $-1 -1 $-1 $-1 $154 18 #
coedge $-1 -1 $-1 $238 $238 $156 $239 reversed $356 $-1 #
edge $357 -1 $-1 $358 -3.1415926535897931 $358 3.1415926535897931 $156 $359 forward @7 unknown #
coedge $-1 -1 $-1 $240 $240 $159 $241 reversed $250 $-1 #
edge $360 -1 $-1 $361 -3.1415926535897931 $361 3.1415926535897931 $159 $362 forward @7 unknown #
attrib_edge_convexity-kcp-attrib $-1 -1 $363 $-1 $161 4 #
vertex $-1 -1 $-1 $161 $364 #
ellipse-curve $365 -1 $-1 0 0 0 0 1 0 -0.25 0 0 1 I I #
loop $366 -1 $-1 $367 $162 $368 #
attrib_edge_convexity-kcp-attrib $-1 -1 $369 $-1 $163 1 #
vertex $-1 -1 $-1 $163 $370 #
ellipse-curve $371 -1 $-1 0 2 0 0 1 0 -0.25 0 0 1 I I #
loop_type-twe-attrib $-1 -1 $-1 $-1 $164 1 #
loop $372 -1 $-1 $-1 $240 $102 #
point $-1 -1 $-1 -0.78125 2 0 #
cur-twe-attrib $-1 -1 $-1 $-1 $167 28 #
loop $-1 -1 $-1 $-1 $373 $113 #
coedge $-1 -1 $-1 $254 $254 $373 $374 reversed $170 $-1 #
edge $-1 -1 $-1 $375 0 $375 6.2831853071795862 $171 $376 forward @7 unknown #
vertex $-1 -1 $-1 $174 $377 #
ellipse-curve $-1 -1 $-1 0 0 0.015000000000000013 0 0 -1 0.22000000000000022 0 0 1 I I #
loop $-1 -1 $-1 $-1 $181 $175 #
plane-surface $-1 -1 $-1 0 -0.24999999999999997 0 0 1 0 0 0 1 forward_v I I I I #
coedge $-1 -1 $-1 $378 $378 $264 $379 reversed $176 $-1 #
coedge $-1 -1 $-1 $265 $178 $378 $380 forward $119 $-1 #
coedge $-1 -1 $-1 $178 $265 $267 $381 forward $119 $-1 #
edge $382 -1 $-1 $383 1.5000000000000009 $268 2.0000000000000018 $178 $384 forward @7 unknown #
coedge $-1 -1 $-1 $180 $179 $260 $379 forward $79 $-1 #
coedge $-1 -1 $-1 $262 $261 $179 $266 reversed $119 $-1 #
edge $385 -1 $-1 $269 -2.0000000000000018 $386 -1.5000000000000009 $265 $387 forward @7 unknown #
coedge $-1 -1 $-1 $181 $181 $262 $381 reversed $258 $-1 #
vertex $-1 -1 $-1 $263 $388 #
vertex $-1 -1 $-1 $381 $389 #
ellipse-curve $-1 -1 $-1 -5.2735593669694926e-016 -0.25000000000000044 -4.5863024805656236 0 1 0 -0.4238956239453287 -8.0364791969593557e-017 -0.65625000000000056 1 I I #
coedge $-1 -1 $-1 $271 $271 $186 $272 forward $183 $-1 #
edge $-1 -1 $-1 $390 0 $390 6.2831853071795862 $271 $391 forward @7 unknown #
vertex $-1 -1 $-1 $187 $392 #
ellipse-curve $-1 -1 $-1 0 0 -0.40000000000000002 0 0 -1 0.25 0 0 1 I I #
coedge $-1 -1 $-1 $275 $275 $191 $276 forward $188 $-1 #
edge $-1 -1 $-1 $393 0 $393 6.2831853071795862 $275 $394 forward @7 unknown #
edge $-1 -1 $-1 $395 1 $395 0 $192 $-1 forward @7 unknown #
vertex $-1 -1 $-1 $194 $396 #
ellipse-curve $-1 -1 $-1 0 0 0.039913938097245194 0 0 1 0.20000000000000001 0 0 1 I I #
face $-1 -1 $-1 $397 $398 $48 $-1 $399 forward single #
loop $-1 -1 $-1 $-1 $400 $195 #
coedge $-1 -1 $-1 $401 $402 $400 $403 forward $196 $-1 #
coedge $-1 -1 $-1 $404 $197 $405 $406 reversed $133 $-1 #
coedge $-1 -1 $-1 $197 $404 $199 $291 forward $133 $-1 #
coedge $-1 -1 $-1 $407 $408 $197 $286 forward $409 $-1 #
edge $-1 -1 $-1 $410 -2.568079549166697 $411 -0.99728322237180045 $285 $412 forward @7 unknown #
coedge $-1 -1 $-1 $199 $198 $413 $414 reversed $88 $-1 #
coedge $-1 -1 $-1 $402 $401 $415 $289 reversed $196 $-1 #
edge $-1 -1 $-1 $295 -3.2500000000000009 $416 0 $415 $417 forward @7 unknown #
coedge $-1 -1 $-1 $418 $419 $420 $291 forward $421 $-1 #
edge $-1 -1 $-1 $296 -3.2500000000000009 $411 0 $290 $422 forward @7 unknown #
coedge $-1 -1 $-1 $293 $200 $419 $423 reversed $294 $-1 #
coedge $-1 -1 $-1 $200 $292 $424 $425 forward $294 $-1 #
loop $-1 -1 $-1 $-1 $200 $426 #
vertex $-1 -1 $-1 $427 $428 #
vertex $-1 -1 $-1 $429 $430 #
ellipse-curve $-1 -1 $-1 -5.5511151231257827e-017 1.6250000000000004 8.3266726846886741e-017 0 -1 0 0.65625000000000044 0 0.42389562394532898 1 I I #
loop $-1 -1 $-1 $-1 $208 $202 #
plane-surface $-1 -1 $-1 0 0.25 0 0 -1 0 0 0 -1 forward_v I I I I #
coedge $-1 -1 $-1 $431 $431 $304 $432 reversed $203 $-1 #
coedge $-1 -1 $-1 $305 $205 $431 $433 forward $136 $-1 #
coedge $-1 -1 $-1 $205 $305 $307 $434 forward $136 $-1 #
edge $435 -1 $-1 $436 1.5000000000000009 $308 2.0000000000000009 $205 $437 forward @7 unknown #
coedge $-1 -1 $-1 $207 $206 $300 $432 forward $91 $-1 #
coedge $-1 -1 $-1 $302 $301 $206 $306 reversed $136 $-1 #
edge $438 -1 $-1 $309 -2.0000000000000018 $439 -1.5000000000000009 $305 $440 forward @7 unknown #
coedge $-1 -1 $-1 $208 $208 $302 $434 reversed $298 $-1 #
vertex $-1 -1 $-1 $303 $441 #
vertex $-1 -1 $-1 $434 $442 #
ellipse-curve $-1 -1 $-1 -8.3266726846886654e-017 0.25 -4.5863024805656227 0 -1 0 -0.42389562394532926 0 0.65625000000000033 1 I I #
face $443 -1 $-1 $444 $445 $51 $-1 $446 reversed single #
loop $-1 -1 $-1 $-1 $447 $211 #
plane-surface $-1 -1 $-1 -0.78125000000000022 0 0 1 0 0 0 0 -1 forward_v I I I I #
coedge $-1 -1 $-1 $448 $322 $449 $450 forward $212 $-1 #
coedge $-1 -1 $-1 $451 $214 $448 $452 forward $140 $-1 #
coedge $-1 -1 $-1 $214 $451 $453 $454 forward $140 $-1 #
coedge $-1 -1 $-1 $325 $324 $214 $318 reversed $326 $-1 #
edge $-1 -1 $-1 $455 -1.6250000000000004 $456 1.6250000000000004 $317 $457 forward @7 unknown #
coedge $-1 -1 $-1 $216 $215 $458 $459 forward $94 $-1 #
coedge $-1 -1 $-1 $460 $461 $215 $321 reversed $445 $-1 #
edge $-1 -1 $-1 $328 -0.78125000000000022 $462 0.78125000000000022 $320 $463 forward @7 unknown #
coedge $-1 -1 $-1 $314 $464 $216 $323 reversed $212 $-1 #
edge $-1 -1 $-1 $465 -0.78125000000000022 $327 0.78125000000000022 $322 $466 forward @7 unknown #
coedge $-1 -1 $-1 $317 $217 $464 $467 forward $326 $-1 #
coedge $-1 -1 $-1 $217 $317 $460 $468 reversed $326 $-1 #
loop $-1 -1 $-1 $-1 $324 $444 #
vertex $-1 -1 $-1 $218 $469 #
vertex $-1 -1 $-1 $218 $470 #
straight-curve $-1 -1 $-1 0.78125000000000022 0 0.78125 0 1 0 I I #
face $-1 -1 $-1 $-1 $471 $53 $-1 $472 reversed single #
loop $-1 -1 $-1 $473 $474 $219 #
cone-surface $-1 -1 $-1 -5.5511151231257827e-017 -1.6250000000000004 8.3266726846886741e-017 0 -1 0 0.65625000000000044 0 0.42389562394532898 1 I I 0 1 0.78125000000000033 forward I I I I #
loop $-1 -1 $-1 $-1 $475 $143 #
coedge $-1 -1 $-1 $334 $334 $476 $477 forward $220 $-1 #
loop_type-twe-attrib $-1 -1 $-1 $-1 $223 0 #
coedge $-1 -1 $-1 $336 $336 $475 $478 forward $223 $-1 #
coedge $-1 -1 $-1 $337 $337 $226 $338 forward $471 $-1 #
edge $-1 -1 $-1 $479 0 $479 6.2831853071795862 $337 $480 forward @7 unknown #
convexity-sys-attrib $-1 -1 $481 $-1 $227 #
vertex $-1 -1 $-1 $227 $482 #
ellipse-curve $483 -1 $-1 1.6653345369377348e-016 -0.47500000000000042 0 0 1 0 -0.25 0 0 1 I I #
face_name-twe-attrib $-1 -1 $-1 $230 $152 5 #
model_id-kcp-attrib $-1 -1 $484 $-1 $231 1 1021385826 1021385826 -1158283263 7 #
face $485 -1 $-1 $486 $487 $13 $-1 $488 forward single #
loop $489 -1 $-1 $490 $491 $231 #
cone-surface $492 -1 $-1 0 -1.4125000000000001 0 0 1 0 0.25 0 0 1 I I 0 1 0.25 forward I I I I #
loop_type-twe-attrib $-1 -1 $-1 $-1 $232 0 #
loop $493 -1 $-1 $-1 $494 $152 #
surf-twe-attrib $-1 -1 $-1 $-1 $233 30 #
loop_type-twe-attrib $-1 -1 $-1 $-1 $235 1 #
coedge $-1 -1 $-1 $495 $496 $497 $498 forward $235 $-1 #
coedge $-1 -1 $-1 $499 $236 $500 $501 reversed $153 $-1 #
coedge $-1 -1 $-1 $236 $499 $502 $503 forward $153 $-1 #
coedge $-1 -1 $-1 $504 $504 $236 $355 reversed $505 $-1 #
edge $506 -1 $-1 $507 -0.57351310442309644 $508 0.57351310442309644 $354 $509 forward @7 unknown #
loop $510 -1 $-1 $-1 $238 $344 #
attrib_edge_convexity-kcp-attrib $-1 -1 $511 $-1 $239 1 #
vertex $-1 -1 $-1 $239 $512 #
ellipse-curve $513 -1 $-1 0 -1.25 0 0 -1 0 -0.22 0 0 1 I I #
attrib_edge_convexity-kcp-attrib $-1 -1 $514 $-1 $241 1 #
vertex $-1 -1 $-1 $241 $515 #
ellipse-curve $516 -1 $-1 0 0 0 0 -1 0 -0.78125 0 0 1 I I #
convexity-sys-attrib $-1 -1 $517 $242 $161 #
point $-1 -1 $-1 -0.25 0 0 #
cur-twe-attrib $-1 -1 $-1 $-1 $244 39 #
loop_type-twe-attrib $-1 -1 $-1 $-1 $245 0 #
loop $518 -1 $-1 $-1 $519 $368 #
face $520 -1 $-1 $521 $245 $13 $-1 $522 reversed single #
convexity-sys-attrib $-1 -1 $523 $246 $163 #
point $-1 -1 $-1 -0.25 2 0 #
cur-twe-attrib $-1 -1 $-1 $-1 $248 41 #
loop_type-twe-attrib $-1 -1 $-1 $-1 $250 1 #
coedge $-1 -1 $-1 $373 $373 $254 $374 forward $253 $-1 #
edge $-1 -1 $-1 $524 0 $524 6.2831853071795862 $373 $525 forward @7 unknown #
vertex $-1 -1 $-1 $255 $526 #
ellipse-curve $-1 -1 $-1 0 0 -0.015000000000000013 0 0 -1 0.25 0 0 1 I I #
point $-1 -1 $-1 -0.22000000000000022 2.6941339784092328e-017 0.015000000000000013 #
coedge $-1 -1 $-1 $260 $260 $261 $380 reversed $176 $-1 #
edge $-1 -1 $-1 $386 -3.1415926535897944 $383 -1.9945664447436005 $260 $527 forward @7 unknown #
edge $528 -1 $-1 $383 -0.4238956239453297 $386 0.42389562394532926 $378 $529 forward @7 unknown #
edge $530 -1 $-1 $269 -0.42389562394532826 $268 0.4238956239453297 $267 $531 forward @7 unknown #
convexity-sys-attrib $-1 -1 $-1 $-1 $263 #
vertex $-1 -1 $-1 $380 $532 #
straight-curve $-1 -1 $-1 -0.42389562394533004 1.7500000000000009 -3.9300524805656236 -4.6885143195523885e-032 -1 1.2246063538223773e-016 I I #
convexity-sys-attrib $-1 -1 $-1 $-1 $266 #
vertex $-1 -1 $-1 $266 $533 #
straight-curve $-1 -1 $-1 0.42389562394532904 1.7500000000000009 -3.9300524805656236 4.6885143195523885e-032 1 -1.2246063538223773e-016 I I #
point $-1 -1 $-1 -0.4238956239453297 -0.25000000000000105 -3.9300524805656241 #
point $-1 -1 $-1 0.42389562394532826 -0.25000000000000105 -3.9300524805656236 #
vertex $-1 -1 $-1 $272 $534 #
ellipse-curve $-1 -1 $-1 0 0 0.40000000000000002 0 0 1 0.25 0 0 1 I I #
point $-1 -1 $-1 0.25 0 -0.40000000000000002 #
vertex $-1 -1 $-1 $276 $535 #
ellipse-curve $-1 -1 $-1 0 0 -0.039913938097245194 0 0 -1 0.20000000000000001 0 0 1 I I #
vertex $-1 -1 $-1 $277 $536 #
point $-1 -1 $-1 0.20000000000000001 0 0.039913938097245194 #
face $-1 -1 $-1 $537 $538 $48 $-1 $539 reversed single #
loop $-1 -1 $-1 $-1 $420 $280 #
plane-surface $-1 -1 $-1 0 0 0.78125 0 0 1 1 0 0 forward_v I I I I #
coedge $-1 -1 $-1 $540 $541 $542 $403 reversed $281 $-1 #
coedge $-1 -1 $-1 $288 $282 $543 $544 reversed $196 $-1 #
coedge $-1 -1 $-1 $282 $288 $545 $546 reversed $196 $-1 #
edge $-1 -1 $-1 $547 -3.2500000000000009 $548 0 $542 $549 forward @7 unknown #
coedge $-1 -1 $-1 $284 $283 $550 $551 reversed $133 $-1 #
coedge $-1 -1 $-1 $552 $553 $554 $406 forward $538 $-1 #
edge $-1 -1 $-1 $555 -3.2500000000000009 $410 0 $405 $556 forward @7 unknown #
coedge $-1 -1 $-1 $408 $285 $557 $558 reversed $409 $-1 #
coedge $-1 -1 $-1 $285 $407 $552 $559 forward $409 $-1 #
loop $-1 -1 $-1 $-1 $285 $560 #
vertex $-1 -1 $-1 $561 $562 #
vertex $-1 -1 $-1 $563 $564 #
ellipse-curve $-1 -1 $-1 -5.5511151231257827e-017 -1.6250000000000004 8.3266726846886741e-017 0 1 0 0.65625000000000044 0 0.42389562394532898 1 I I #
coedge $-1 -1 $-1 $565 $566 $287 $414 forward $567 $-1 #
edge $-1 -1 $-1 $411 -0.99728322237180045 $416 0.57351310442309622 $413 $412 forward @7 unknown #
coedge $-1 -1 $-1 $568 $569 $570 $289 forward $571 $-1 #
vertex $-1 -1 $-1 $572 $573 #
straight-curve $-1 -1 $-1 0.78125000000000022 -1.6250000000000004 8.3266726846886741e-017 0 -1 0 I I #
coedge $-1 -1 $-1 $574 $290 $566 $563 forward $421 $-1 #
coedge $-1 -1 $-1 $290 $574 $292 $423 forward $421 $-1 #
coedge $-1 -1 $-1 $575 $557 $284 $291 reversed $398 $-1 #
loop $-1 -1 $-1 $-1 $290 $576 #
straight-curve $-1 -1 $-1 -5.5511151231257827e-017 -1.6250000000000004 0.78125 0 -1 0 I I #
edge $-1 -1 $-1 $577 -0.78125000000000022 $296 5.5511151231257827e-017 $292 $578 forward @7 unknown #
coedge $-1 -1 $-1 $579 $570 $293 $425 reversed $580 $-1 #
edge $-1 -1 $-1 $577 -0.78125 $295 -8.3266726846886741e-017 $424 $581 forward @7 unknown #
face $-1 -1 $-1 $582 $294 $48 $-1 $583 reversed single #
edge $-1 -1 $-1 $295 -8.3266726846886741e-017 $584 0.78125 $569 $581 forward @7 unknown #
point $-1 -1 $-1 0.78125000000000022 1.6250000000000004 8.3266726846886741e-017 #
edge $-1 -1 $-1 $296 5.5511151231257827e-017 $585 0.78125000000000022 $586 $578 forward @7 unknown #
point $-1 -1 $-1 -5.5511151231257827e-017 1.6250000000000004 0.78125 #
coedge $-1 -1 $-1 $300 $300 $301 $433 reversed $203 $-1 #
edge $-1 -1 $-1 $439 -1.8189894035458558e-016 $436 1.1470262088461924 $300 $587 forward @7 unknown #
edge $588 -1 $-1 $436 -0.4238956239453287 $439 0.42389562394532926 $431 $589 forward @7 unknown #
edge $590 -1 $-1 $309 -0.42389562394532926 $308 0.4238956239453287 $307 $591 forward @7 unknown #
convexity-sys-attrib $-1 -1 $-1 $-1 $303 #
vertex $-1 -1 $-1 $433 $592 #
straight-curve $-1 -1 $-1 0.42389562394532987 -1.7500000000000009 -3.9300524805656227 0 1 0 I I #
convexity-sys-attrib $-1 -1 $-1 $-1 $306 #
vertex $-1 -1 $-1 $306 $593 #
straight-curve $-1 -1 $-1 -0.42389562394532998 -1.7500000000000009 -3.9300524805656227 0 -1 0 I I #
point $-1 -1 $-1 0.4238956239453287 0.25 -3.9300524805656223 #
point $-1 -1 $-1 -0.42389562394532926 0.250000000000001 -3.9300524805656227 #
model_id-kcp-attrib $-1 -1 $-1 $-1 $311 1 1021385826 1021385826 -1158283262 2 #
face $-1 -1 $-1 $-1 $326 $51 $-1 $594 reversed single #
loop $-1 -1 $-1 $-1 $460 $311 #
plane-surface $-1 -1 $-1 0 1.6250000000000004 0 0 -1 0 0 0 -1 forward_v I I I I #
coedge $-1 -1 $-1 $595 $458 $461 $596 forward $312 $-1 #
coedge $-1 -1 $-1 $464 $314 $315 $452 reversed $212 $-1 #
coedge $-1 -1 $-1 $458 $595 $314 $450 reversed $312 $-1 #
edge $-1 -1 $-1 $465 -0.78125 $597 0.78125 $449 $598 forward @7 unknown #
coedge $-1 -1 $-1 $316 $315 $595 $599 forward $140 $-1 #
edge $-1 -1 $-1 $456 -0.78125000000000022 $597 0.78125000000000022 $448 $600 forward @7 unknown #
coedge $-1 -1 $-1 $461 $460 $316 $454 reversed $445 $-1 #
edge $-1 -1 $-1 $601 -0.78125000000000022 $455 0.78125000000000022 $453 $602 forward @7 unknown #
vertex $-1 -1 $-1 $318 $603 #
vertex $-1 -1 $-1 $467 $604 #
straight-curve $-1 -1 $-1 0.78125000000000022 0 -0.78125 0 -1 0 I I #
coedge $-1 -1 $-1 $447 $449 $319 $459 reversed $312 $-1 #
edge $-1 -1 $-1 $462 -1.6250000000000004 $465 1.6250000000000004 $458 $605 forward @7 unknown #
coedge $-1 -1 $-1 $453 $320 $325 $468 forward $445 $-1 #
coedge $-1 -1 $-1 $320 $453 $447 $596 reversed $445 $-1 #
vertex $-1 -1 $-1 $321 $606 #
straight-curve $-1 -1 $-1 0 1.6250000000000004 0.78125 -1 0 0 I I #
coedge $-1 -1 $-1 $322 $448 $324 $467 reversed $212 $-1 #
vertex $-1 -1 $-1 $459 $607 #
straight-curve $-1 -1 $-1 0 -1.6250000000000004 0.78125 1 0 0 I I #
edge $-1 -1 $-1 $327 -0.78125 $456 0.78125 $324 $608 forward @7 unknown #
edge $-1 -1 $-1 $328 -0.78125 $455 0.78125 $325 $609 forward @7 unknown #
point $-1 -1 $-1 0.78125000000000022 -1.6250000000000004 0.78125 #
point $-1 -1 $-1 0.78125000000000022 1.6250000000000004 0.78125 #
loop $-1 -1 $-1 $610 $337 $330 #
plane-surface $-1 -1 $-1 0 -1.6250000000000004 0 0 1 0 0 0 1 forward_v I I I I #
loop $-1 -1 $-1 $-1 $476 $219 #
coedge $-1 -1 $-1 $474 $474 $611 $612 reversed $331 $-1 #
coedge $-1 -1 $-1 $475 $475 $336 $478 reversed $333 $-1 #
coedge $-1 -1 $-1 $476 $476 $334 $477 reversed $473 $-1 #
edge $613 -1 $-1 $614 -3.1415926535897931 $614 3.1415926535897931 $476 $615 forward @7 unknown #
edge $616 -1 $-1 $617 -1.5707963267948966 $617 4.7123889803846897 $475 $618 forward @7 unknown #
vertex $-1 -1 $-1 $338 $619 #
ellipse-curve $-1 -1 $-1 1.6653345369377348e-016 -1.6250000000000004 0 0 1 0 0.25 0 0 1 I I #
edge_name-twe-attrib $-1 -1 $-1 $339 $227 5 8704 #
point $-1 -1 $-1 0.25000000000000017 -0.47500000000000042 3.0616164697184302e-017 #
cur-twe-attrib $-1 -1 $-1 $-1 $341 140 #
face_name-twe-attrib $-1 -1 $-1 $343 $231 6 #
model_id-kcp-attrib $-1 -1 $620 $-1 $344 1 1021385826 1021385826 -1158283263 8 #
face $621 -1 $-1 $368 $622 $13 $-1 $623 reversed single #
loop $624 -1 $-1 $356 $625 $344 #
cone-surface $626 -1 $-1 0 -1.22 0 0 1 0 -0.25 5.0000000000000004e-016 0 1 I I 0.70710678118654702 0.70710678118654802 0.25 forward I I I I #
loop_type-twe-attrib $-1 -1 $-1 $-1 $345 0 #
loop $627 -1 $-1 $-1 $628 $231 #
coedge $-1 -1 $-1 $491 $491 $494 $629 reversed $345 $-1 #
surf-twe-attrib $-1 -1 $630 $-1 $346 93 #
loop_type-twe-attrib $-1 -1 $-1 $-1 $348 1 #
coedge $-1 -1 $-1 $494 $494 $491 $629 forward $348 $-1 #
coedge $-1 -1 $-1 $631 $351 $632 $633 reversed $235 $-1 #
coedge $-1 -1 $-1 $351 $631 $634 $635 forward $235 $-1 #
coedge $-1 -1 $-1 $636 $636 $351 $498 reversed $637 $-1 #
edge $638 -1 $-1 $639 -1.147026208846194 $640 0 $497 $641 forward @7 unknown #
coedge $-1 -1 $-1 $353 $352 $642 $643 reversed $153 $-1 #
coedge $-1 -1 $-1 $644 $645 $352 $501 forward $646 $-1 #
edge $647 -1 $-1 $648 -0.500000000000001 $508 0 $500 $649 forward @7 unknown #
coedge $-1 -1 $-1 $645 $644 $353 $503 reversed $646 $-1 #
edge $650 -1 $-1 $651 -0.5 $507 0 $502 $652 forward @7 unknown #
coedge $-1 -1 $-1 $354 $354 $644 $653 reversed $505 $-1 #
loop $654 -1 $-1 $-1 $354 $655 #
edge_name-twe-attrib $-1 -1 $-1 $-1 $355 14 8704 #
vertex $-1 -1 $-1 $355 $656 #
vertex $-1 -1 $-1 $653 $657 #
ellipse-curve $658 -1 $-1 0 0.250000000000001 0 0 -1 0 0.78125 0 0 1 I I #
loop_type-twe-attrib $-1 -1 $-1 $-1 $356 1 #
convexity-sys-attrib $-1 -1 $659 $357 $239 #
point $-1 -1 $-1 0.22 -1.25 -2.6942224933522202e-017 #
cur-twe-attrib $-1 -1 $-1 $-1 $359 55 #
convexity-sys-attrib $-1 -1 $660 $360 $241 #
point $-1 -1 $-1 0.78125 0 -9.56755146787009e-017 #
cur-twe-attrib $-1 -1 $-1 $-1 $362 57 #
edge_name-twe-attrib $-1 -1 $-1 $363 $161 4 20480 #
loop_type-twe-attrib $-1 -1 $-1 $-1 $367 1 #
coedge $-1 -1 $-1 $519 $519 $661 $662 reversed $367 $-1 #
model_id-kcp-attrib $-1 -1 $663 $-1 $368 1 1021385826 1021385826 -1158283263 10 #
face $664 -1 $-1 $665 $666 $13 $-1 $667 reversed single #
cone-surface $668 -1 $-1 0 2.0499999999999998 0 0 -1 0 -0.25 0 0 1 I I 0 1 0.25 forward I I I I #
edge_name-twe-attrib $-1 -1 $-1 $369 $163 8 8704 #
vertex $-1 -1 $-1 $374 $669 #
ellipse-curve $-1 -1 $-1 0 0 0.015000000000000013 0 0 1 0.25 0 0 1 I I #
point $-1 -1 $-1 0.25 0 -0.015000000000000013 #
ellipse-curve $-1 -1 $-1 -5.2735593669694926e-016 0.24999999999999933 -4.5863024805656236 0 -1 0 -0.4238956239453287 -8.0364791969593557e-017 -0.65625000000000056 1 I I #
convexity-sys-attrib $-1 -1 $-1 $-1 $380 #
straight-curve $-1 -1 $-1 0 0.24999999999999997 -3.9300524805656236 1 0 0 I I #
convexity-sys-attrib $-1 -1 $-1 $-1 $381 #
straight-curve $-1 -1 $-1 0 -0.24999999999999997 -3.9300524805656236 -1 0 0 I I #
point $-1 -1 $-1 -0.4238956239453297 0.24999999999999997 -3.9300524805656241 #
point $-1 -1 $-1 0.42389562394532926 0.24999999999999997 -3.9300524805656236 #
point $-1 -1 $-1 0.25 0 0.40000000000000002 #
point $-1 -1 $-1 0.20000000000000001 0 -0.039913938097245194 #
point $-1 -1 $-1 0 4.0200183676689173e-016 0.16008606190275723 #
face $-1 -1 $-1 $670 $580 $48 $-1 $671 reversed single #
loop $-1 -1 $-1 $-1 $405 $397 #
plane-surface $-1 -1 $-1 -0.78125000000000022 0 0 1 0 0 0 0 -1 forward_v I I I I #
coedge $-1 -1 $-1 $672 $400 $673 $674 reversed $281 $-1 #
coedge $-1 -1 $-1 $400 $672 $675 $676 reversed $281 $-1 #
coedge $-1 -1 $-1 $677 $678 $679 $403 forward $680 $-1 #
coedge $-1 -1 $-1 $681 $682 $401 $544 forward $683 $-1 #
edge $-1 -1 $-1 $416 0.57351310442309622 $548 2.1443094312179927 $543 $412 forward @7 unknown #
coedge $-1 -1 $-1 $684 $685 $402 $546 forward $686 $-1 #
edge $-1 -1 $-1 $547 -2.1443094312179927 $295 -0.57351310442309622 $545 $297 forward @7 unknown #
vertex $-1 -1 $-1 $687 $688 #
vertex $-1 -1 $-1 $689 $690 #
straight-curve $-1 -1 $-1 -5.5511151231257827e-017 -1.6250000000000004 -0.78125 0 -1 0 I I #
coedge $-1 -1 $-1 $691 $586 $404 $551 forward $692 $-1 #
edge $-1 -1 $-1 $296 0.99728322237180045 $555 2.568079549166697 $550 $297 forward @7 unknown #
coedge $-1 -1 $-1 $693 $405 $408 $559 reversed $538 $-1 #
coedge $-1 -1 $-1 $405 $693 $691 $694 forward $538 $-1 #
coedge $-1 -1 $-1 $695 $696 $672 $406 reversed $697 $-1 #
vertex $-1 -1 $-1 $698 $699 #
straight-curve $-1 -1 $-1 -0.78125000000000022 -1.6250000000000004 8.3266726846886741e-017 0 -1 0 I I #
coedge $-1 -1 $-1 $420 $700 $407 $558 forward $398 $-1 #
edge $-1 -1 $-1 $701 -0.78125000000000022 $411 -5.5511151231257827e-017 $407 $702 forward @7 unknown #
edge $-1 -1 $-1 $701 -0.78125 $410 -8.3266726846886741e-017 $552 $703 forward @7 unknown #
face $-1 -1 $-1 $704 $409 $48 $-1 $705 reversed single #
edge $-1 -1 $-1 $410 -8.3266726846886741e-017 $706 0.78125 $696 $703 forward @7 unknown #
point $-1 -1 $-1 -0.78125000000000022 -1.6250000000000004 8.3266726846886741e-017 #
edge $-1 -1 $-1 $411 -5.5511151231257827e-017 $707 0.78125000000000022 $566 $702 forward @7 unknown #
point $-1 -1 $-1 -5.5511151231257827e-017 -1.6250000000000004 0.78125 #
coedge $-1 -1 $-1 $566 $413 $708 $709 reversed $567 $-1 #
coedge $-1 -1 $-1 $413 $565 $418 $563 reversed $567 $-1 #
loop $-1 -1 $-1 $-1 $413 $704 #
coedge $-1 -1 $-1 $710 $415 $682 $572 forward $571 $-1 #
coedge $-1 -1 $-1 $415 $710 $684 $427 reversed $571 $-1 #
coedge $-1 -1 $-1 $424 $708 $198 $289 reversed $580 $-1 #
loop $-1 -1 $-1 $-1 $415 $711 #
edge $-1 -1 $-1 $416 -8.3266726846886741e-017 $712 0.78125 $568 $713 forward @7 unknown #
point $-1 -1 $-1 0.78125000000000022 -1.6250000000000004 8.3266726846886741e-017 #
coedge $-1 -1 $-1 $419 $418 $579 $714 forward $421 $-1 #
coedge $-1 -1 $-1 $700 $420 $586 $429 forward $398 $-1 #
face $-1 -1 $-1 $715 $421 $48 $-1 $399 forward single #
vertex $-1 -1 $-1 $714 $716 #
straight-curve $-1 -1 $-1 0 1.6250000000000004 0.78125 -1 0 0 I I #
coedge $-1 -1 $-1 $708 $424 $574 $714 reversed $580 $-1 #
loop $-1 -1 $-1 $-1 $570 $537 #
straight-curve $-1 -1 $-1 0.78125000000000022 1.6250000000000004 0 0 0 -1 I I #
face $-1 -1 $-1 $717 $692 $48 $-1 $583 reversed single #
plane-surface $-1 -1 $-1 0 1.6250000000000004 0 0 -1 0 0 0 -1 forward_v I I I I #
vertex $-1 -1 $-1 $718 $719 #
vertex $-1 -1 $-1 $429 $720 #
coedge $-1 -1 $-1 $550 $691 $575 $429 reversed $692 $-1 #
ellipse-curve $-1 -1 $-1 -8.3266726846886654e-017 -0.25 -4.5863024805656227 0 1 0 -0.42389562394532926 0 0.65625000000000033 1 I I #
convexity-sys-attrib $-1 -1 $-1 $-1 $433 #
straight-curve $-1 -1 $-1 0 -0.25 -3.9300524805656227 -1 0 0 I I #
convexity-sys-attrib $-1 -1 $-1 $-1 $434 #
straight-curve $-1 -1 $-1 0 0.25 -3.9300524805656227 1 0 0 I I #
point $-1 -1 $-1 0.4238956239453287 -0.25 -3.9300524805656223 #
point $-1 -1 $-1 -0.42389562394532926 -0.25 -3.9300524805656227 #
plane-surface $-1 -1 $-1 0.78125000000000022 0 0 -1 0 0 0 0 1 forward_v I I I I #
coedge $-1 -1 $-1 $449 $447 $451 $599 reversed $312 $-1 #
edge $-1 -1 $-1 $462 -0.78125 $601 0.78125 $461 $721 forward @7 unknown #
vertex $-1 -1 $-1 $599 $722 #
straight-curve $-1 -1 $-1 -0.78125000000000022 -1.6250000000000004 0 0 0 -1 I I #
edge $-1 -1 $-1 $597 -1.6250000000000004 $601 1.6250000000000004 $595 $723 forward @7 unknown #
straight-curve $-1 -1 $-1 0 -1.6250000000000004 -0.78125 -1 0 0 I I #
vertex $-1 -1 $-1 $454 $724 #
straight-curve $-1 -1 $-1 0 1.6250000000000004 -0.78125 1 0 0 I I #
point $-1 -1 $-1 0.78125000000000022 1.6250000000000004 -0.78125 #
point $-1 -1 $-1 0.78125000000000022 -1.6250000000000004 -0.78125 #
straight-curve $-1 -1 $-1 -0.78125000000000022 0 0.78125 0 -1 0 I I #
point $-1 -1 $-1 -0.78125000000000022 1.6250000000000004 0.78125 #
point $-1 -1 $-1 -0.78125000000000022 -1.6250000000000004 0.78125 #
straight-curve $-1 -1 $-1 0.78125000000000022 -1.6250000000000004 0 0 0 -1 I I #
straight-curve $-1 -1 $-1 0.78125000000000022 1.6250000000000004 0 0 0 -1 I I #
loop $-1 -1 $-1 $-1 $611 $330 #
coedge $-1 -1 $-1 $611 $611 $474 $612 forward $610 $-1 #
edge $-1 -1 $-1 $725 2.568079549166697 $725 8.8512648563462832 $611 $726 forward @7 unknown #
convexity-sys-attrib $-1 -1 $-1 $-1 $477 #
vertex $-1 -1 $-1 $477 $727 #
ellipse-curve $-1 -1 $-1 -5.5511151231257827e-017 -0.375 8.3266726846886741e-017 0 1 0 0.65625000000000044 0 0.42389562394532898 1 I I #
convexity-sys-attrib $-1 -1 $-1 $-1 $478 #
vertex $-1 -1 $-1 $478 $728 #
ellipse-curve $-1 -1 $-1 1.6653345369377348e-016 -0.375 0 0 1 0 0 0 0.25 1 I I #
point $-1 -1 $-1 0.25000000000000017 -1.6250000000000004 0 #
face_name-twe-attrib $-1 -1 $-1 $485 $344 7 #
model_id-kcp-attrib $-1 -1 $729 $-1 $486 1 1021385826 1021385826 -1158283263 9 #
loop $730 -1 $-1 $731 $732 $486 #
plane-surface $733 -1 $-1 0 1.2 0 0 -1 0 0 0 -1 forward_v I I I I #
loop_type-twe-attrib $-1 -1 $-1 $-1 $487 0 #
coedge $-1 -1 $-1 $625 $625 $628 $734 reversed $487 $-1 #
surf-twe-attrib $-1 -1 $-1 $-1 $488 70 #
loop_type-twe-attrib $-1 -1 $-1 $-1 $490 1 #
coedge $-1 -1 $-1 $628 $628 $625 $734 forward $490 $-1 #
edge $735 -1 $-1 $736 -3.1415926535897931 $736 3.1415926535897931 $491 $737 forward @7 unknown #
surf-twe-attrib $-1 -1 $-1 $492 $346 47 #
coedge $-1 -1 $-1 $496 $495 $738 $739 reversed $235 $-1 #
coedge $-1 -1 $-1 $740 $741 $495 $633 forward $742 $-1 #
edge $743 -1 $-1 $744 -0.500000000000001 $640 0 $632 $745 forward @7 unknown #
coedge $-1 -1 $-1 $741 $740 $496 $635 reversed $742 $-1 #
edge $746 -1 $-1 $747 -0.500000000000001 $639 0 $634 $748 forward @7 unknown #
coedge $-1 -1 $-1 $497 $497 $740 $749 forward $637 $-1 #
loop $750 -1 $-1 $-1 $497 $751 #
edge_name-twe-attrib $-1 -1 $-1 $-1 $498 16 8704 #
vertex $-1 -1 $-1 $749 $752 #
vertex $-1 -1 $-1 $633 $753 #
ellipse-curve $754 -1 $-1 0 0.250000000000001 0 0 -1 0 -0.65625 0 -0.42389562394532998 1 I I #
coedge $-1 -1 $-1 $755 $755 $499 $643 forward $756 $-1 #
edge $757 -1 $-1 $651 -0.57351310442309644 $648 0.57351310442309644 $642 $758 forward @7 unknown #
coedge $-1 -1 $-1 $502 $500 $504 $653 forward $646 $-1 #
coedge $-1 -1 $-1 $500 $502 $755 $759 reversed $646 $-1 #
loop $760 -1 $-1 $-1 $500 $761 #
attrib_edge_convexity-kcp-attrib $-1 -1 $762 $-1 $501 1 #
vertex $-1 -1 $-1 $643 $763 #
straight-curve $764 -1 $-1 0.65625 0.250000000000001 0.42389562394532898 0 -1 0 I I #
attrib_edge_convexity-kcp-attrib $-1 -1 $765 $-1 $503 1 #
vertex $-1 -1 $-1 $643 $766 #
straight-curve $767 -1 $-1 0.65625 0.250000000000001 -0.42389562394532898 0 -1 0 I I #
edge $768 -1 $-1 $508 -0.84779124789065796 $507 0 $504 $769 forward @7 unknown #
loop_type-twe-attrib $-1 -1 $-1 $-1 $505 0 #
face $770 -1 $-1 $751 $505 $13 $-1 $771 reversed single #
point $-1 -1 $-1 0.65625 0.250000000000001 -0.42389562394532898 #
point $-1 -1 $-1 0.65625 0.250000000000001 0.42389562394532898 #
cur-twe-attrib $-1 -1 $-1 $-1 $509 81 #
edge_name-twe-attrib $-1 -1 $-1 $511 $239 2 8448 #
edge_name-twe-attrib $-1 -1 $-1 $514 $241 1 8704 #
coedge $-1 -1 $-1 $661 $661 $519 $662 forward $731 $-1 #
edge $772 -1 $-1 $773 -3.1415926535897931 $773 3.1415926535897931 $661 $774 forward @7 unknown #
face_name-twe-attrib $-1 -1 $-1 $520 $368 9 #
model_id-kcp-attrib $-1 -1 $775 $-1 $521 1 1021385826 1021385826 -1158283263 11 #
face $776 -1 $-1 $761 $777 $13 $-1 $778 reversed single #
loop $779 -1 $-1 $780 $781 $521 #
cone-surface $782 -1 $-1 0 2.0499999999999998 0 0 -1 0 -0.20000000000000001 0 0 1 I I 0 1 0.20000000000000001 forward I I I I #
surf-twe-attrib $-1 -1 $783 $-1 $522 93 #
point $-1 -1 $-1 0.25 0 0.015000000000000013 #
face $-1 -1 $-1 $560 $784 $48 $-1 $705 reversed single #
plane-surface $-1 -1 $-1 0.78125000000000022 0 0 -1 0 0 0 0 1 forward_v I I I I #
coedge $-1 -1 $-1 $541 $540 $283 $406 forward $281 $-1 #
coedge $-1 -1 $-1 $785 $786 $540 $674 forward $787 $-1 #
edge $-1 -1 $-1 $555 2.568079549166697 $547 4.1388758759615936 $673 $297 forward @7 unknown #
coedge $-1 -1 $-1 $788 $789 $541 $676 forward $784 $-1 #
edge $-1 -1 $-1 $548 2.1443094312179927 $410 3.7151057580128892 $675 $412 forward @7 unknown #
coedge $-1 -1 $-1 $790 $542 $789 $689 forward $680 $-1 #
coedge $-1 -1 $-1 $542 $790 $785 $791 forward $680 $-1 #
coedge $-1 -1 $-1 $792 $793 $282 $403 reversed $794 $-1 #
loop $-1 -1 $-1 $-1 $542 $715 #
coedge $-1 -1 $-1 $682 $543 $793 $795 reversed $683 $-1 #
coedge $-1 -1 $-1 $543 $681 $568 $572 reversed $683 $-1 #
loop $-1 -1 $-1 $-1 $543 $796 #
coedge $-1 -1 $-1 $685 $545 $569 $427 forward $686 $-1 #
coedge $-1 -1 $-1 $545 $684 $792 $687 reversed $686 $-1 #
loop $-1 -1 $-1 $-1 $545 $797 #
edge $-1 -1 $-1 $547 -5.5511151231257827e-017 $584 0.78125000000000022 $685 $798 forward @7 unknown #
point $-1 -1 $-1 -5.5511151231257827e-017 1.6250000000000004 -0.78125 #
edge $-1 -1 $-1 $548 5.5511151231257827e-017 $706 0.78125000000000022 $789 $799 forward @7 unknown #
point $-1 -1 $-1 -5.5511151231257827e-017 -1.6250000000000004 -0.78125 #
coedge $-1 -1 $-1 $586 $550 $553 $694 reversed $692 $-1 #
loop $-1 -1 $-1 $-1 $550 $582 #
coedge $-1 -1 $-1 $553 $552 $700 $800 reversed $538 $-1 #
edge $-1 -1 $-1 $585 -0.78125 $555 -8.3266726846886741e-017 $691 $801 forward @7 unknown #
coedge $-1 -1 $-1 $802 $554 $786 $698 forward $697 $-1 #
coedge $-1 -1 $-1 $554 $802 $788 $561 reversed $697 $-1 #
loop $-1 -1 $-1 $-1 $554 $803 #
edge $-1 -1 $-1 $555 -8.3266726846886741e-017 $804 0.78125 $786 $801 forward @7 unknown #
point $-1 -1 $-1 -0.78125000000000022 1.6250000000000004 8.3266726846886741e-017 #
coedge $-1 -1 $-1 $557 $575 $693 $800 forward $398 $-1 #
vertex $-1 -1 $-1 $800 $805 #
straight-curve $-1 -1 $-1 0 -1.6250000000000004 0.78125 1 0 0 I I #
straight-curve $-1 -1 $-1 -0.78125000000000022 -1.6250000000000004 0 0 0 -1 I I #
face $-1 -1 $-1 $796 $567 $48 $-1 $705 reversed single #
plane-surface $-1 -1 $-1 0 -1.6250000000000004 0 0 1 0 0 0 1 forward_v I I I I #
vertex $-1 -1 $-1 $806 $807 #
vertex $-1 -1 $-1 $714 $808 #
coedge $-1 -1 $-1 $570 $579 $565 $709 forward $580 $-1 #
edge $-1 -1 $-1 $707 -0.78125 $416 -8.3266726846886741e-017 $708 $713 forward @7 unknown #
coedge $-1 -1 $-1 $569 $568 $809 $718 reversed $571 $-1 #
face $-1 -1 $-1 $-1 $571 $48 $-1 $671 reversed single #
vertex $-1 -1 $-1 $572 $810 #
straight-curve $-1 -1 $-1 0.78125000000000022 -1.6250000000000004 0 0 0 -1 I I #
edge $-1 -1 $-1 $707 -1.6250000000000004 $577 1.6250000000000004 $579 $811 forward @7 unknown #
face $-1 -1 $-1 $803 $680 $48 $-1 $812 reversed single #
point $-1 -1 $-1 0.78125000000000022 1.6250000000000004 0.78125 #
face $-1 -1 $-1 $813 $787 $48 $-1 $583 reversed single #
edge $-1 -1 $-1 $584 -1.6250000000000004 $712 1.6250000000000004 $710 $814 forward @7 unknown #
point $-1 -1 $-1 0.78125000000000022 1.6250000000000004 -0.78125 #
point $-1 -1 $-1 -0.78125000000000022 1.6250000000000004 0.78125 #
straight-curve $-1 -1 $-1 -0.78125000000000022 1.6250000000000004 0 0 0 -1 I I #
point $-1 -1 $-1 -0.78125000000000022 -1.6250000000000004 -0.78125 #
straight-curve $-1 -1 $-1 -0.78125000000000022 0 -0.78125 0 1 0 I I #
point $-1 -1 $-1 -0.78125000000000022 1.6250000000000004 -0.78125 #
vertex $-1 -1 $-1 $612 $815 #
ellipse-curve $-1 -1 $-1 -5.5511151231257827e-017 -1.6250000000000004 8.3266726846886741e-017 0 -1 0 0.65625000000000044 0 0.42389562394532898 1 I I #
point $-1 -1 $-1 -0.65625000000000044 -0.375 -0.42389562394532881 #
point $-1 -1 $-1 -0.24999999999999983 -0.37500000000000044 0 #
face_name-twe-attrib $-1 -1 $-1 $621 $486 8 #
loop_type-twe-attrib $-1 -1 $-1 $-1 $622 1 #
loop $816 -1 $-1 $-1 $661 $486 #
coedge $-1 -1 $-1 $732 $732 $781 $817 forward $622 $-1 #
surf-twe-attrib $-1 -1 $-1 $-1 $623 98 #
edge $818 -1 $-1 $819 -3.1415926535897931 $819 3.1415926535897931 $625 $820 forward @7 unknown #
attrib_edge_convexity-kcp-attrib $-1 -1 $821 $-1 $629 1 #
vertex $-1 -1 $-1 $629 $822 #
ellipse-curve $823 -1 $-1 0 -0.10000000000000001 0 0 1 0 -0.25 0 0 1 I I #
coedge $-1 -1 $-1 $824 $824 $631 $739 forward $825 $-1 #
edge $826 -1 $-1 $747 -0.57351310442309644 $744 0.57351310442309644 $738 $827 forward @7 unknown #
coedge $-1 -1 $-1 $634 $632 $636 $749 reversed $742 $-1 #
coedge $-1 -1 $-1 $632 $634 $824 $828 forward $742 $-1 #
loop $829 -1 $-1 $-1 $634 $830 #
attrib_edge_convexity-kcp-attrib $-1 -1 $831 $-1 $633 1 #
vertex $-1 -1 $-1 $828 $832 #
straight-curve $833 -1 $-1 -0.65625 0.250000000000001 -0.42389562394532998 2.2204460492503101e-016 -1 -1.22124532708767e-015 I I #
attrib_edge_convexity-kcp-attrib $-1 -1 $834 $-1 $635 1 #
vertex $-1 -1 $-1 $828 $835 #
straight-curve $836 -1 $-1 -0.65625 0.250000000000001 0.42389562394532898 2.2204460492503101e-016 -1 8.8817841970012296e-016 I I #
edge $837 -1 $-1 $639 -0.84779124789065896 $640 0 $740 $838 forward @7 unknown #
loop_type-twe-attrib $-1 -1 $-1 $-1 $637 0 #
face $839 -1 $-1 $830 $637 $13 $-1 $840 reversed single #
point $-1 -1 $-1 -0.65625 0.250000000000001 0.42389562394532898 #
point $-1 -1 $-1 -0.65625 0.250000000000001 -0.42389562394532998 #
cur-twe-attrib $-1 -1 $-1 $-1 $641 110 #
coedge $-1 -1 $-1 $642 $642 $645 $759 forward $756 $-1 #
loop $841 -1 $-1 $-1 $642 $842 #
edge_name-twe-attrib $-1 -1 $-1 $-1 $643 22 8704 #
ellipse-curve $843 -1 $-1 0 0.750000000000002 0 0 -1 0 0.78125 0 0 1 I I #
edge $844 -1 $-1 $648 -0.84779124789065796 $651 0 $755 $845 forward @7 unknown #
loop_type-twe-attrib $-1 -1 $-1 $-1 $646 0 #
face $846 -1 $-1 $655 $646 $13 $-1 $847 reversed single #
convexity-sys-attrib $-1 -1 $848 $647 $501 #
point $-1 -1 $-1 0.65625 0.750000000000002 0.42389562394532898 #
cur-twe-attrib $-1 -1 $-1 $-1 $649 113 #
convexity-sys-attrib $-1 -1 $849 $650 $503 #
point $-1 -1 $-1 0.65625 0.750000000000001 -0.42389562394532898 #
cur-twe-attrib $-1 -1 $-1 $-1 $652 115 #
attrib_edge_convexity-kcp-attrib $-1 -1 $850 $-1 $653 2 #
straight-curve $851 -1 $-1 0.65625 0.250000000000001 -0.42389562394532898 0 0 -1 I I #
model_id-kcp-attrib $-1 -1 $852 $-1 $655 1 1021385826 1021385826 -1158283263 14 #
plane-surface $853 -1 $-1 0.65625 0.250000000000001 -0.9375 0 -1 0 0 0 -1 forward_v I I I I #
attrib_edge_convexity-kcp-attrib $-1 -1 $854 $-1 $662 2 #
vertex $-1 -1 $-1 $662 $855 #
ellipse-curve $856 -1 $-1 0 1.2 0 0 1 0 -0.25 0 0 1 I I #
face_name-twe-attrib $-1 -1 $-1 $664 $521 10 #
model_id-kcp-attrib $-1 -1 $857 $-1 $665 1 1021385826 1021385826 -1158283263 12 #
loop $858 -1 $-1 $859 $860 $665 #
cone-surface $861 -1 $-1 0 1.12017212380551 0 0 1 0 -0.20000000000000001 -2e-016 0 1 I I 0.857167300702112 0.51503807491005404 0.20000000000000001 forward I I I I #
loop_type-twe-attrib $-1 -1 $-1 $-1 $666 0 #
loop $862 -1 $-1 $-1 $863 $521 #
coedge $-1 -1 $-1 $781 $781 $732 $817 reversed $666 $-1 #
surf-twe-attrib $-1 -1 $-1 $-1 $667 130 #
surf-twe-attrib $-1 -1 $-1 $668 $522 47 #
loop $-1 -1 $-1 $-1 $675 $670 #
coedge $-1 -1 $-1 $786 $673 $678 $791 reversed $787 $-1 #
coedge $-1 -1 $-1 $673 $785 $695 $698 reversed $787 $-1 #
loop $-1 -1 $-1 $-1 $673 $717 #
coedge $-1 -1 $-1 $789 $675 $696 $561 forward $784 $-1 #
coedge $-1 -1 $-1 $675 $788 $677 $689 reversed $784 $-1 #
coedge $-1 -1 $-1 $678 $677 $802 $806 forward $680 $-1 #
edge $-1 -1 $-1 $804 -0.78125000000000022 $547 -5.5511151231257827e-017 $785 $798 forward @7 unknown #
coedge $-1 -1 $-1 $809 $679 $685 $687 forward $794 $-1 #
coedge $-1 -1 $-1 $679 $809 $681 $795 forward $794 $-1 #
loop $-1 -1 $-1 $-1 $679 $813 #
edge $-1 -1 $-1 $712 -0.78125000000000022 $548 5.5511151231257827e-017 $681 $799 forward @7 unknown #
face $-1 -1 $-1 $797 $683 $48 $-1 $705 reversed single #
face $-1 -1 $-1 $426 $686 $48 $-1 $583 reversed single #
straight-curve $-1 -1 $-1 0 1.6250000000000004 -0.78125 1 0 0 I I #
straight-curve $-1 -1 $-1 0 -1.6250000000000004 -0.78125 -1 0 0 I I #
edge $-1 -1 $-1 $585 -1.6250000000000004 $701 1.6250000000000004 $693 $864 forward @7 unknown #
straight-curve $-1 -1 $-1 -0.78125000000000022 1.6250000000000004 0 0 0 -1 I I #
coedge $-1 -1 $-1 $696 $695 $790 $806 reversed $697 $-1 #
face $-1 -1 $-1 $711 $697 $48 $-1 $539 reversed single #
vertex $-1 -1 $-1 $791 $865 #
point $-1 -1 $-1 -0.78125000000000022 -1.6250000000000004 0.78125 #
edge $-1 -1 $-1 $706 -1.6250000000000004 $804 1.6250000000000004 $802 $866 forward @7 unknown #
point $-1 -1 $-1 -0.78125000000000022 -1.6250000000000004 -0.78125 #
point $-1 -1 $-1 0.78125000000000022 -1.6250000000000004 0.78125 #
coedge $-1 -1 $-1 $793 $792 $710 $718 forward $794 $-1 #
point $-1 -1 $-1 0.78125000000000022 -1.6250000000000004 -0.78125 #
straight-curve $-1 -1 $-1 0.78125000000000022 0 0.78125 0 1 0 I I #
plane-surface $-1 -1 $-1 0 0 -0.78125 0 0 1 1 0 0 forward_v I I I I #
face $-1 -1 $-1 $576 $794 $48 $-1 $812 reversed single #
straight-curve $-1 -1 $-1 0.78125000000000022 0 -0.78125 0 -1 0 I I #
point $-1 -1 $-1 -0.78125000000000022 -1.6250000000000004 8.3266726846886741e-017 #
loop_type-twe-attrib $-1 -1 $-1 $-1 $731 0 #
edge $867 -1 $-1 $868 0 $868 6.2831853071795862 $781 $869 forward @7 unknown #
attrib_edge_convexity-kcp-attrib $-1 -1 $870 $-1 $734 1 #
vertex $-1 -1 $-1 $734 $871 #
ellipse-curve $872 -1 $-1 0 -1.22 0 2.0000000000000002e-015 1 0 -0.25 5.0000000000000004e-016 0 1 I I #
convexity-sys-attrib $-1 -1 $873 $735 $629 #
point $-1 -1 $-1 0.25 -0.10000000000000001 3.0616164697184302e-017 #
cur-twe-attrib $-1 -1 $-1 $-1 $737 140 #
coedge $-1 -1 $-1 $738 $738 $741 $828 reversed $825 $-1 #
loop $874 -1 $-1 $-1 $738 $875 #
edge_name-twe-attrib $-1 -1 $-1 $-1 $739 20 8704 #
ellipse-curve $876 -1 $-1 0 0.750000000000002 0 0 -1 0 -0.78125 0 0 1 I I #
edge $877 -1 $-1 $747 -0.84779124789065796 $744 0 $824 $878 forward @7 unknown #
loop_type-twe-attrib $-1 -1 $-1 $-1 $742 0 #
face $879 -1 $-1 $875 $742 $13 $-1 $880 reversed single #
convexity-sys-attrib $-1 -1 $881 $743 $633 #
point $-1 -1 $-1 -0.65625 0.750000000000002 -0.42389562394532898 #
cur-twe-attrib $-1 -1 $-1 $-1 $745 144 #
convexity-sys-attrib $-1 -1 $882 $746 $635 #
point $-1 -1 $-1 -0.65625 0.750000000000002 0.42389562394532898 #
cur-twe-attrib $-1 -1 $-1 $-1 $748 146 #
attrib_edge_convexity-kcp-attrib $-1 -1 $883 $-1 $749 2 #
straight-curve $884 -1 $-1 -0.65625 0.250000000000001 -0.42389562394532998 0 0 -1 I I #
model_id-kcp-attrib $-1 -1 $885 $-1 $751 1 1021385826 1021385826 -1158283263 15 #
plane-surface $886 -1 $-1 -0.83125000000000004 0.250000000000001 -0.9375 0 -1 0 0 0 -1 forward_v I I I I #
loop_type-twe-attrib $-1 -1 $-1 $-1 $756 0 #
face $887 -1 $-1 $-1 $756 $13 $-1 $888 reversed single #
cur-twe-attrib $-1 -1 $889 $-1 $758 154 #
attrib_edge_convexity-kcp-attrib $-1 -1 $890 $-1 $759 2 #
straight-curve $891 -1 $-1 0.65625 0.750000000000001 -0.42389562394532898 0 -1.17859287253637e-015 -1 I I #
model_id-kcp-attrib $-1 -1 $892 $-1 $761 1 1021385826 1021385826 -1158283263 13 #
plane-surface $893 -1 $-1 0.65625 0.750000000000001 -0.9375 -1 0 0 0 0 1 forward_v I I I I #
edge_name-twe-attrib $-1 -1 $-1 $762 $501 12 8448 #
edge_name-twe-attrib $-1 -1 $-1 $765 $503 13 8448 #
convexity-sys-attrib $-1 -1 $894 $768 $653 #
cur-twe-attrib $-1 -1 $-1 $-1 $769 164 #
face_name-twe-attrib $-1 -1 $-1 $770 $655 13 #
surf-twe-attrib $-1 -1 $895 $-1 $771 198 #
convexity-sys-attrib $-1 -1 $896 $772 $662 #
point $-1 -1 $-1 0.25 1.2 3.0616164697184302e-017 #
cur-twe-attrib $-1 -1 $-1 $-1 $774 171 #
face_name-twe-attrib $-1 -1 $-1 $776 $665 11 #
loop_type-twe-attrib $-1 -1 $-1 $-1 $777 0 #
loop $897 -1 $-1 $-1 $898 $665 #
coedge $-1 -1 $-1 $860 $860 $-1 $899 forward $777 $-1 #
surf-twe-attrib $-1 -1 $-1 $-1 $778 173 #
loop_type-twe-attrib $-1 -1 $-1 $-1 $780 1 #
coedge $-1 -1 $-1 $863 $863 $898 $900 forward $780 $-1 #
straight-curve $-1 -1 $-1 -0.78125000000000022 0 0.78125 0 -1 0 I I #
point $-1 -1 $-1 -0.78125000000000022 1.6250000000000004 -0.78125 #
straight-curve $-1 -1 $-1 -0.78125000000000022 0 -0.78125 0 1 0 I I #
attrib_edge_convexity-kcp-attrib $-1 -1 $901 $-1 $817 1 #
vertex $-1 -1 $-1 $817 $902 #
ellipse-curve $903 -1 $-1 0 1.2 0 1.0000000000000001e-015 -1 0 -0.20000000000000001 -2e-016 0 1 I I #
convexity-sys-attrib $-1 -1 $904 $818 $734 #
point $-1 -1 $-1 0.25 -1.22 3.0616164697184302e-017 #
cur-twe-attrib $-1 -1 $-1 $-1 $820 181 #
edge_name-twe-attrib $-1 -1 $-1 $821 $629 5 8704 #
loop_type-twe-attrib $-1 -1 $-1 $-1 $825 0 #
face $905 -1 $-1 $842 $825 $13 $-1 $906 reversed single #
cur-twe-attrib $-1 -1 $907 $-1 $827 154 #
attrib_edge_convexity-kcp-attrib $-1 -1 $908 $-1 $828 2 #
straight-curve $909 -1 $-1 -0.65625 0.750000000000002 -0.42389562394532898 0 0 -1 I I #
model_id-kcp-attrib $-1 -1 $910 $-1 $830 1 1021385826 1021385826 -1158283263 16 #
plane-surface $911 -1 $-1 -0.65625 0.250000000000001 -0.9375 1 0 0 0 0 -1 forward_v I I I I #
edge_name-twe-attrib $-1 -1 $-1 $831 $633 18 8448 #
edge_name-twe-attrib $-1 -1 $-1 $834 $635 17 8448 #
convexity-sys-attrib $-1 -1 $912 $837 $749 #
cur-twe-attrib $-1 -1 $-1 $-1 $838 196 #
face_name-twe-attrib $-1 -1 $-1 $839 $751 14 #
surf-twe-attrib $-1 -1 $913 $-1 $840 198 #
model_id-kcp-attrib $-1 -1 $914 $-1 $842 1 1021385826 1021385826 -1158283263 18 #
plane-surface $915 -1 $-1 0.88124999999999998 0.750000000000001 -0.9375 0 1 0 0 0 1 forward_v I I I I #
cur-twe-attrib $-1 -1 $-1 $843 $758 186 #
convexity-sys-attrib $-1 -1 $916 $844 $759 #
cur-twe-attrib $-1 -1 $-1 $-1 $845 206 #
face_name-twe-attrib $-1 -1 $-1 $846 $761 12 #
surf-twe-attrib $-1 -1 $-1 $-1 $847 208 #
edge_name-twe-attrib $-1 -1 $-1 $850 $653 15 4608 #
surf-twe-attrib $-1 -1 $-1 $853 $771 166 #
edge_name-twe-attrib $-1 -1 $-1 $854 $662 7 4608 #
loop_type-twe-attrib $-1 -1 $-1 $-1 $859 1 #
coedge $-1 -1 $-1 $898 $898 $863 $900 reversed $859 $-1 #
edge $917 -1 $-1 $918 1 $918 0 $860 $-1 forward @7 unknown #
edge $919 -1 $-1 $920 -3.1415926535897931 $920 3.1415926535897931 $898 $921 forward @7 unknown #
convexity-sys-attrib $-1 -1 $922 $867 $817 #
point $-1 -1 $-1 -0.20000000000000001 1.2 0 #
cur-twe-attrib $-1 -1 $-1 $-1 $869 229 #
edge_name-twe-attrib $-1 -1 $-1 $870 $734 6 8448 #
model_id-kcp-attrib $-1 -1 $923 $-1 $875 1 1021385826 1021385826 -1158283263 17 #
plane-surface $924 -1 $-1 -0.65625 0.750000000000001 -0.9375 0 1 0 0 0 1 forward_v I I I I #
cur-twe-attrib $-1 -1 $-1 $876 $827 186 #
convexity-sys-attrib $-1 -1 $925 $877 $828 #
cur-twe-attrib $-1 -1 $-1 $-1 $878 239 #
face_name-twe-attrib $-1 -1 $-1 $879 $830 15 #
surf-twe-attrib $-1 -1 $-1 $-1 $880 241 #
edge_name-twe-attrib $-1 -1 $-1 $883 $749 19 4608 #
surf-twe-attrib $-1 -1 $-1 $886 $840 166 #
face_name-twe-attrib $-1 -1 $-1 $887 $842 17 #
surf-twe-attrib $-1 -1 $926 $-1 $888 251 #
edge_name-twe-attrib $-1 -1 $-1 $890 $759 23 4608 #
edge_name-twe-attrib $-1 -1 $-1 $-1 $899 10 128 #
vertex $-1 -1 $-1 $899 $927 #
attrib_edge_convexity-kcp-attrib $-1 -1 $928 $-1 $900 2 #
vertex $-1 -1 $-1 $900 $929 #
ellipse-curve $930 -1 $-1 0 1.12017212380551 0 1.0000000000000001e-015 -1 0 -0.20000000000000001 -2e-016 0 1 I I #
edge_name-twe-attrib $-1 -1 $-1 $901 $817 9 8704 #
face_name-twe-attrib $-1 -1 $-1 $905 $875 16 #
surf-twe-attrib $-1 -1 $931 $-1 $906 251 #
edge_name-twe-attrib $-1 -1 $-1 $908 $828 21 4608 #
surf-twe-attrib $-1 -1 $-1 $915 $888 273 #
point $-1 -1 $-1 0 1 0 #
convexity-sys-attrib $-1 -1 $932 $919 $900 #
point $-1 -1 $-1 0.20000000000000001 1.12017212380551 -2.4492931757747401e-017 #
cur-twe-attrib $-1 -1 $-1 $-1 $921 290 #
surf-twe-attrib $-1 -1 $-1 $924 $906 273 #
edge_name-twe-attrib $-1 -1 $-1 $928 $900 11 4352 #
End-of-ACIS-data 