105 794 1 0                             
body $-1 $1 $-1 $-1 #
lump $-1 $-1 $2 $0 #
shell $-1 $-1 $-1 $3 $1 #
face $-1 $4 $5 $2 $-1 $6 forward single #
face $-1 $7 $8 $2 $-1 $9 forward single #
loop $-1 $-1 $10 $3 #
plane-surface $-1 -50 37.5 37.5 0 1 0 -0.707106781186549 0 0.707106781186546 0 #
face $-1 $11 $12 $2 $-1 $13 reversed single #
loop $-1 $-1 $14 $4 #
plane-surface $-1 -41.1611652351681 50 28.6611652351682 -0.707106781186549 0 0.707106781186546 0.707106781186546 0 0.707106781186549 0 #
coedge $-1 $15 $16 $17 $18 1 $5 $-1 #
face $-1 $19 $20 $2 $-1 $21 forward single #
loop $-1 $22 $23 $7 #
plane-surface $-1 -50 0 0 1 0 0 0 0 -1 0 #
coedge $-1 $24 $25 $26 $27 1 $8 $-1 #
coedge $-1 $16 $10 $28 $29 0 $5 $-1 #
coedge $-1 $10 $15 $23 $30 1 $5 $-1 #
coedge $-1 $31 $32 $10 $18 0 $33 $-1 #
edge $-1 $34 $35 $17 $36 0 #
face $-1 $37 $38 $2 $-1 $39 forward single #
loop $-1 $-1 $40 $11 #
plane-surface $-1 50 37.5 37.5 0 1 0 0.707106781186549 0 0.707106781186546 0 #
loop $-1 $41 $42 $7 #
coedge $-1 $43 $44 $16 $30 0 $12 $-1 #
coedge $-1 $28 $14 $43 $45 1 $8 $-1 #
coedge $-1 $14 $28 $32 $46 1 $8 $-1 #
coedge $-1 $47 $48 $14 $27 0 $49 $-1 #
edge $-1 $50 $51 $26 $52 0 #
coedge $-1 $25 $24 $15 $29 1 $8 $-1 #
edge $-1 $34 $53 $15 $54 0 #
edge $-1 $35 $53 $23 $55 0 #
coedge $-1 $56 $17 $44 $57 0 $33 $-1 #
coedge $-1 $17 $58 $25 $46 0 $33 $-1 #
loop $-1 $-1 $17 $59 #
vertex $-1 $46 $60 #
vertex $-1 $30 $61 #
straight-curve $-1 -25 37.5 37.5 -1 0 0 #
face $-1 $62 $63 $2 $-1 $64 forward single #
loop $-1 $-1 $65 $19 #
plane-surface $-1 41.1611652351681 50 28.6611652351682 0.707106781186549 0 0.707106781186546 0.707106781186546 0 -0.707106781186549 0 #
coedge $-1 $66 $67 $68 $69 1 $20 $-1 #
loop $-1 $-1 $70 $7 #
coedge $-1 $42 $42 $71 $72 0 $22 $-1 #
coedge $-1 $73 $23 $24 $45 0 $12 $-1 #
coedge $-1 $23 $74 $31 $57 1 $12 $-1 #
edge $-1 $53 $50 $43 $75 0 #
edge $-1 $51 $34 $32 $76 0 #
coedge $-1 $77 $26 $58 $78 1 $49 $-1 #
coedge $-1 $26 $79 $73 $80 1 $49 $-1 #
loop $-1 $-1 $26 $81 #
vertex $-1 $27 $82 #
vertex $-1 $78 $83 #
straight-curve $-1 -38.0361652351682 50 31.7861652351681 0.707106781186546 0 0.707106781186549 #
vertex $-1 $45 $84 #
straight-curve $-1 -41.1611652351681 37.5 28.6611652351682 -0.707106781186546 0 -0.707106781186549 #
straight-curve $-1 -50 37.5 18.75 0 0 -1 #
coedge $-1 $85 $31 $86 $87 0 $33 $-1 #
edge $-1 $35 $88 $44 $89 0 #
coedge $-1 $32 $85 $47 $78 0 $33 $-1 #
face $-1 $90 $33 $2 $-1 $64 forward single #
point $-1 -32.3223304703363 37.5 37.5 #
point $-1 -50 37.5 37.5 #
face $-1 $91 $92 $2 $-1 $93 forward single #
loop $-1 $-1 $94 $37 #
plane-surface $-1 0 0 37.5 0 0 1 1 0 0 0 #
coedge $-1 $95 $96 $97 $98 1 $38 $-1 #
coedge $-1 $67 $40 $99 $100 0 $20 $-1 #
coedge $-1 $40 $66 $94 $101 1 $20 $-1 #
coedge $-1 $102 $103 $40 $69 0 $104 $-1 #
edge $-1 $105 $106 $68 $107 0 #
coedge $-1 $70 $70 $108 $109 0 $41 $-1 #
coedge $-1 $71 $71 $42 $72 1 $110 $-1 #
edge $-1 $111 $111 $42 $112 0 #
coedge $-1 $113 $43 $48 $80 0 $12 $-1 #
coedge $-1 $44 $114 $115 $116 0 $12 $-1 #
straight-curve $-1 -50 25 19.8223304703363 0 1 -0 #
straight-curve $-1 -32.3223304703363 25 37.5 0 -1 0 #
coedge $-1 $117 $47 $118 $119 0 $49 $-1 #
edge $-1 $120 $51 $47 $121 0 #
coedge $-1 $48 $122 $123 $124 1 $49 $-1 #
edge $-1 $50 $125 $48 $126 0 #
face $-1 $127 $49 $2 $-1 $128 reversed single #
point $-1 -50 50 19.8223304703363 #
point $-1 -32.3223304703363 50 37.5 #
point $-1 -50 37.5 19.8223304703363 #
coedge $-1 $58 $56 $129 $130 0 $33 $-1 #
coedge $-1 $115 $131 $56 $87 1 $132 $-1 #
edge $-1 $88 $133 $56 $134 0 #
vertex $-1 $57 $135 #
straight-curve $-1 -50 0 37.5 0 -1 0 #
face $-1 $136 $137 $2 $-1 $138 forward single #
face $-1 $139 $140 $2 $-1 $141 forward single #
loop $-1 $-1 $142 $62 #
plane-surface $-1 -30 -40 -25 1 0 0 0 0 -1 0 #
coedge $-1 $143 $144 $67 $101 0 $63 $-1 #
coedge $-1 $99 $65 $143 $145 1 $38 $-1 #
coedge $-1 $65 $99 $103 $146 1 $38 $-1 #
coedge $-1 $122 $147 $65 $98 0 $49 $-1 #
edge $-1 $148 $149 $97 $150 0 #
coedge $-1 $96 $95 $66 $100 1 $38 $-1 #
edge $-1 $105 $151 $66 $152 0 #
edge $-1 $106 $151 $94 $153 0 #
coedge $-1 $154 $68 $144 $155 1 $104 $-1 #
coedge $-1 $68 $156 $96 $146 0 $104 $-1 #
loop $-1 $157 $68 $136 #
vertex $-1 $146 $158 #
vertex $-1 $155 $159 #
straight-curve $-1 50 37.5 18.75 0 -0 1 #
coedge $-1 $108 $108 $70 $109 1 $160 $-1 #
edge $-1 $161 $161 $70 $162 0 #
loop $-1 $-1 $71 $163 #
vertex $-1 $72 $164 #
ellipse-curve $-1 -50 2.5 12.5000000000002 1 0 0 -2.61861100413235e-14 0 -7.5 1 #
coedge $-1 $165 $73 $166 $167 1 $12 $-1 #
coedge $-1 $74 $165 $168 $169 0 $12 $-1 #
coedge $-1 $170 $86 $74 $116 1 $132 $-1 #
edge $-1 $171 $88 $74 $172 0 #
coedge $-1 $173 $77 $174 $175 0 $49 $-1 #
coedge $-1 $129 $176 $77 $119 1 $177 $-1 #
edge $-1 $120 $178 $77 $179 0 #
vertex $-1 $119 $180 #
straight-curve $-1 0 50 37.5 -1 0 0 #
coedge $-1 $79 $97 $156 $181 0 $49 $-1 #
coedge $-1 $182 $166 $79 $124 0 $183 $-1 #
edge $-1 $125 $184 $79 $185 0 #
vertex $-1 $124 $186 #
straight-curve $-1 -50 50 0 0 0 -1 #
face $-1 $187 $188 $2 $-1 $189 forward single #
plane-surface $-1 0 50 0 0 -1 0 0 0 -1 0 #
coedge $-1 $190 $118 $85 $130 1 $177 $-1 #
edge $-1 $133 $120 $85 $191 0 #
coedge $-1 $86 $192 $190 $193 0 $132 $-1 #
loop $-1 $-1 $194 $195 #
vertex $-1 $87 $196 #
straight-curve $-1 0 -20 37.5 1 0 -0 #
point $-1 -50 -20 37.5 #
face $-1 $-1 $104 $2 $-1 $197 reversed single #
loop $-1 $-1 $198 $90 #
plane-surface $-1 0 -35 -12.5 0 0 1 1 0 0 0 #
face $-1 $199 $200 $2 $-1 $201 reversed single #
loop $-1 $-1 $202 $91 #
plane-surface $-1 -20 -40 -25 -1 0 0 0 0 1 0 #
coedge $-1 $203 $204 $205 $206 0 $92 $-1 #
coedge $-1 $207 $94 $95 $145 0 $63 $-1 #
coedge $-1 $94 $208 $102 $155 0 $63 $-1 #
edge $-1 $151 $148 $143 $209 0 #
edge $-1 $149 $105 $103 $210 0 #
coedge $-1 $97 $211 $207 $212 1 $49 $-1 #
vertex $-1 $98 $213 #
vertex $-1 $98 $214 #
straight-curve $-1 38.0361652351682 50 31.7861652351681 0.707106781186546 0 -0.707106781186549 #
vertex $-1 $145 $215 #
straight-curve $-1 41.1611652351681 37.5 28.6611652351682 -0.707106781186546 0 0.707106781186549 #
straight-curve $-1 25 37.5 37.5 -1 0 0 #
coedge $-1 $216 $102 $217 $218 0 $104 $-1 #
edge $-1 $219 $106 $102 $220 0 #
coedge $-1 $103 $221 $122 $181 1 $104 $-1 #
loop $-1 $222 $223 $136 #
point $-1 50 37.5 19.8223304703363 #
point $-1 50 37.5 37.5 #
loop $-1 $-1 $108 $224 #
vertex $-1 $109 $225 #
ellipse-curve $-1 -50 27.5 12.5000000000002 1 0 0 -2.61861100413235e-14 0 -7.5 1 #
face $-1 $226 $227 $2 $-1 $228 reversed single #
point $-1 -50 2.5 5.00000000000017 #
coedge $-1 $114 $113 $229 $230 1 $12 $-1 #
coedge $-1 $123 $231 $113 $167 0 $183 $-1 #
edge $-1 $232 $125 $113 $233 0 #
coedge $-1 $234 $235 $114 $169 1 $137 $-1 #
edge $-1 $236 $171 $114 $237 0 #
coedge $-1 $217 $115 $235 $238 0 $132 $-1 #
vertex $-1 $169 $239 #
straight-curve $-1 -50 -20 6.25 -0 0 1 #
coedge $-1 $240 $117 $241 $242 0 $49 $-1 #
coedge $-1 $243 $244 $117 $175 1 $245 $-1 #
edge $-1 $178 $246 $117 $247 0 #
coedge $-1 $118 $248 $243 $249 0 $177 $-1 #
loop $-1 $-1 $248 $250 #
vertex $-1 $175 $251 #
straight-curve $-1 -25 50 12.5 0 0 -1 #
point $-1 -25 50 37.5 #
edge $-1 $149 $184 $156 $252 0 #
coedge $-1 $253 $123 $221 $254 0 $183 $-1 #
loop $-1 $-1 $255 $199 #
vertex $-1 $254 $256 #
straight-curve $-1 0 50 -37.5 1 0 0 #
point $-1 -50 50 -37.5 #
face $-1 $59 $257 $2 $-1 $258 forward single #
loop $-1 $-1 $259 $127 #
plane-surface $-1 0 15 12.5 0 0 1 1 0 0 0 #
coedge $-1 $260 $129 $131 $193 1 $177 $-1 #
straight-curve $-1 -25 7.5 37.5 0 1 0 #
coedge $-1 $131 $194 $261 $262 0 $132 $-1 #
edge $-1 $263 $133 $131 $264 0 #
coedge $-1 $192 $265 $266 $267 0 $132 $-1 #
face $-1 $268 $132 $2 $-1 $269 forward single #
point $-1 -25 -20 37.5 #
plane-surface $-1 50 0 0 -1 0 0 0 -0 1 0 #
coedge $-1 $270 $271 $272 $273 0 $137 $-1 #
face $-1 $274 $183 $2 $-1 $275 reversed single #
loop $-1 $-1 $276 $139 #
cone-surface $-1 -25 -35 -25 0 0 1 10 0 0 1 0 1 0 #
coedge $-1 $277 $272 $276 $278 0 $140 $-1 #
coedge $-1 $279 $142 $280 $281 1 $92 $-1 #
coedge $-1 $142 $279 $282 $283 1 $92 $-1 #
coedge $-1 $284 $285 $142 $206 1 $200 $-1 #
edge $-1 $286 $287 $205 $288 0 #
coedge $-1 $289 $143 $147 $212 0 $63 $-1 #
coedge $-1 $144 $289 $290 $291 0 $63 $-1 #
straight-curve $-1 32.3223304703363 25 37.5 0 1 0 #
straight-curve $-1 50 25 19.8223304703363 0 -1 0 #
coedge $-1 $147 $292 $293 $294 0 $49 $-1 #
edge $-1 $148 $295 $147 $121 0 #
point $-1 32.3223304703363 50 37.5 #
point $-1 50 50 19.8223304703363 #
point $-1 32.3223304703363 37.5 37.5 #
coedge $-1 $296 $154 $297 $298 0 $104 $-1 #
coedge $-1 $290 $170 $154 $218 1 $132 $-1 #
edge $-1 $219 $299 $154 $300 0 #
vertex $-1 $218 $301 #
straight-curve $-1 50 0 37.5 0 1 0 #
coedge $-1 $156 $296 $182 $254 1 $104 $-1 #
loop $-1 $-1 $302 $136 #
coedge $-1 $223 $223 $303 $304 0 $157 $-1 #
face $-1 $305 $306 $2 $-1 $307 reversed single #
point $-1 -50 27.5 5.00000000000017 #
face $-1 $308 $309 $2 $-1 $228 reversed single #
loop $-1 $110 $310 $163 #
cone-surface $-1 0 2.5 12.5 1 0 -3.49148133884313e-15 -2.61861100413235e-14 0 -7.5 1 0 1 0 #
coedge $-1 $311 $312 $165 $230 0 $313 $-1 #
edge $-1 $236 $232 $165 $314 0 #
coedge $-1 $166 $282 $311 $315 0 $183 $-1 #
vertex $-1 $167 $316 #
straight-curve $-1 -50 0 -37.5 0 1 0 #
coedge $-1 $280 $168 $312 $317 1 $137 $-1 #
coedge $-1 $168 $297 $170 $238 1 $137 $-1 #
vertex $-1 $317 $318 #
straight-curve $-1 -50 -17.5 -12.5 0 1 0 #
edge $-1 $171 $299 $170 $319 0 #
point $-1 -50 -20 -12.5 #
coedge $-1 $320 $173 $321 $322 0 $49 $-1 #
coedge $-1 $323 $324 $173 $242 1 $325 $-1 #
edge $-1 $246 $326 $173 $327 0 #
coedge $-1 $328 $174 $176 $249 1 $245 $-1 #
coedge $-1 $174 $328 $323 $329 0 $245 $-1 #
loop $-1 $-1 $328 $330 #
vertex $-1 $175 $331 #
straight-curve $-1 0 50 12.5 1 0 -0 #
coedge $-1 $176 $332 $333 $334 0 $177 $-1 #
edge $-1 $335 $178 $176 $336 0 #
face $-1 $330 $177 $2 $-1 $337 forward single #
point $-1 -25 50 12.5 #
straight-curve $-1 50 50 0 0 0 -1 #
coedge $-1 $338 $182 $339 $340 0 $183 $-1 #
edge $-1 $184 $341 $221 $342 0 #
coedge $-1 $343 $344 $277 $345 0 $183 $-1 #
point $-1 50 50 -37.5 #
loop $-1 $-1 $346 $187 #
plane-surface $-1 25 15 25 -1 0 0 0 0 1 0 #
coedge $-1 $347 $348 $349 $350 0 $188 $-1 #
coedge $-1 $351 $190 $352 $353 0 $177 $-1 #
coedge $-1 $354 $352 $192 $262 1 $355 $-1 #
edge $-1 $356 $263 $192 $357 0 #
vertex $-1 $262 $358 #
straight-curve $-1 -25 -20 18.75 -0 0 1 #
coedge $-1 $194 $359 $360 $361 0 $132 $-1 #
coedge $-1 $362 $363 $194 $267 1 $364 $-1 #
edge $-1 $365 $356 $194 $366 0 #
face $-1 $367 $355 $2 $-1 $189 forward single #
plane-surface $-1 0 -20 12.5 0 -1 0 0 0 -1 0 #
coedge $-1 $368 $198 $369 $370 1 $137 $-1 #
coedge $-1 $198 $371 $372 $373 0 $137 $-1 #
coedge $-1 $202 $374 $198 $273 1 $140 $-1 #
edge $-1 $375 $376 $198 $377 0 #
face $-1 $378 $313 $2 $-1 $379 reversed single #
plane-surface $-1 0 0 -37.5 0 0 1 1 0 0 0 #
coedge $-1 $372 $380 $202 $278 1 $200 $-1 #
coedge $-1 $374 $202 $255 $345 1 $140 $-1 #
edge $-1 $375 $381 $276 $382 0 #
coedge $-1 $204 $203 $383 $384 1 $92 $-1 #
coedge $-1 $371 $234 $203 $281 0 $137 $-1 #
edge $-1 $385 $287 $280 $386 0 #
coedge $-1 $231 $387 $204 $283 0 $183 $-1 #
edge $-1 $286 $388 $282 $389 0 #
coedge $-1 $380 $205 $387 $390 1 $200 $-1 #
coedge $-1 $205 $372 $371 $391 1 $200 $-1 #
vertex $-1 $283 $392 #
vertex $-1 $281 $393 #
straight-curve $-1 -30 -43.6602540378444 -25 0 0 1 #
coedge $-1 $208 $207 $394 $395 0 $63 $-1 #
coedge $-1 $396 $217 $208 $291 1 $132 $-1 #
edge $-1 $397 $219 $208 $134 0 #
coedge $-1 $211 $320 $398 $399 0 $49 $-1 #
coedge $-1 $400 $394 $211 $294 1 $257 $-1 #
edge $-1 $401 $295 $211 $402 0 #
vertex $-1 $212 $403 #
coedge $-1 $221 $216 $404 $405 0 $104 $-1 #
coedge $-1 $235 $406 $216 $298 1 $137 $-1 #
edge $-1 $299 $407 $216 $408 0 #
vertex $-1 $298 $409 #
straight-curve $-1 50 -20 6.25 -0 -0 -1 #
point $-1 50 -20 37.5 #
coedge $-1 $302 $302 $410 $411 0 $222 $-1 #
coedge $-1 $303 $303 $223 $304 1 $412 $-1 #
edge $-1 $413 $413 $223 $414 0 #
face $-1 $250 $415 $2 $-1 $307 reversed single #
loop $-1 $160 $416 $224 #
cone-surface $-1 0 27.5 12.5 1 0 -3.49148133884313e-15 -2.61861100413235e-14 0 -7.5 1 0 1 0 #
face $-1 $417 $418 $2 $-1 $189 forward single #
loop $-1 $-1 $419 $226 #
coedge $-1 $420 $421 $422 $423 1 $227 $-1 #
coedge $-1 $383 $229 $231 $315 1 $313 $-1 #
coedge $-1 $229 $383 $234 $317 0 $313 $-1 #
loop $-1 $-1 $383 $274 #
straight-curve $-1 -50 -50 0 0 0 -1 #
edge $-1 $388 $232 $311 $424 0 #
point $-1 -50 -50 -37.5 #
edge $-1 $385 $236 $312 $425 0 #
point $-1 -50 -50 -12.5 #
straight-curve $-1 0 -20 -12.5 1 0 0 #
coedge $-1 $292 $240 $426 $427 0 $49 $-1 #
coedge $-1 $428 $429 $240 $322 1 $430 $-1 #
edge $-1 $326 $431 $240 $247 0 #
coedge $-1 $432 $241 $244 $329 1 $325 $-1 #
coedge $-1 $241 $433 $428 $434 1 $325 $-1 #
loop $-1 $-1 $432 $435 #
vertex $-1 $242 $436 #
ellipse-curve $-1 -12.5 50 12.5000000000001 0 -1 0 7.5 0 0 1 #
coedge $-1 $244 $243 $437 $438 0 $245 $-1 #
edge $-1 $439 $246 $244 $440 0 #
face $-1 $435 $245 $2 $-1 $189 forward single #
point $-1 -20 50 12.5 #
coedge $-1 $248 $351 $441 $442 0 $177 $-1 #
coedge $-1 $443 $437 $248 $334 1 $306 $-1 #
edge $-1 $444 $335 $248 $445 0 #
vertex $-1 $438 $446 #
straight-curve $-1 -25 15 12.5 0 1 0 #
plane-surface $-1 -25 15 25 1 0 0 0 0 -1 0 #
coedge $-1 $447 $253 $448 $449 0 $183 $-1 #
coedge $-1 $404 $450 $253 $340 1 $451 $-1 #
edge $-1 $341 $452 $339 $424 0 #
vertex $-1 $405 $453 #
straight-curve $-1 50 0 -37.5 0 -1 0 #
coedge $-1 $387 $255 $380 $454 0 $183 $-1 #
coedge $-1 $255 $455 $456 $457 0 $183 $-1 #
edge $-1 $458 $381 $255 $459 0 #
coedge $-1 $460 $400 $461 $462 0 $257 $-1 #
coedge $-1 $360 $259 $362 $463 0 $188 $-1 #
coedge $-1 $259 $360 $464 $465 0 $188 $-1 #
coedge $-1 $466 $467 $259 $350 1 $309 $-1 #
edge $-1 $468 $469 $259 $470 0 #
coedge $-1 $332 $260 $471 $472 0 $177 $-1 #
coedge $-1 $261 $473 $260 $353 1 $355 $-1 #
edge $-1 $263 $474 $260 $336 0 #
coedge $-1 $473 $261 $363 $475 0 $355 $-1 #
loop $-1 $-1 $473 $268 #
vertex $-1 $475 $476 #
straight-curve $-1 0 -20 12.5 -1 0 0 #
point $-1 -25 -20 12.5 #
coedge $-1 $265 $477 $478 $479 0 $132 $-1 #
coedge $-1 $348 $347 $265 $361 1 $188 $-1 #
edge $-1 $480 $365 $265 $357 0 #
coedge $-1 $481 $266 $347 $463 1 $364 $-1 #
coedge $-1 $266 $422 $354 $475 1 $364 $-1 #
loop $-1 $-1 $481 $417 #
vertex $-1 $361 $482 #
ellipse-curve $-1 -12.5 -20 12.4999999999998 -0 1 -0 7.5 0 0 1 #
face $-1 $81 $483 $2 $-1 $484 reversed single #
coedge $-1 $485 $270 $486 $487 0 $137 $-1 #
coedge $-1 $488 $489 $270 $370 0 $490 $-1 #
edge $-1 $491 $376 $369 $425 0 #
coedge $-1 $271 $280 $285 $391 0 $137 $-1 #
coedge $-1 $285 $276 $271 $373 1 $200 $-1 #
edge $-1 $492 $375 $271 $493 0 #
coedge $-1 $272 $277 $488 $494 1 $140 $-1 #
vertex $-1 $273 $495 #
vertex $-1 $370 $496 #
straight-curve $-1 -20 -37.5 -12.5 0 -1 0 #
face $-1 $497 $490 $2 $-1 $379 reversed single #
plane-surface $-1 0 -50 0 0 1 -0 -0 0 1 0 #
coedge $-1 $276 $284 $343 $454 1 $200 $-1 #
vertex $-1 $345 $498 #
straight-curve $-1 -20 -43.6602540378444 -25 -0 -0 -1 #
coedge $-1 $312 $311 $279 $384 0 $313 $-1 #
edge $-1 $388 $385 $383 $499 0 #
vertex $-1 $384 $500 #
straight-curve $-1 -30 -37.5 -12.5 0 1 0 #
coedge $-1 $282 $343 $284 $390 0 $183 $-1 #
vertex $-1 $384 $501 #
straight-curve $-1 -30 -20 -37.5 0 -1 0 #
edge $-1 $502 $286 $387 $503 0 #
edge $-1 $287 $492 $371 $493 0 #
point $-1 -30 -43.6602540378444 -37.5 #
point $-1 -30 -43.6602540378444 -12.5 #
coedge $-1 $293 $504 $289 $395 1 $257 $-1 #
edge $-1 $295 $397 $289 $505 0 #
coedge $-1 $477 $290 $504 $506 0 $132 $-1 #
vertex $-1 $395 $507 #
coedge $-1 $508 $509 $292 $399 1 $510 $-1 #
edge $-1 $511 $401 $292 $247 0 #
coedge $-1 $346 $293 $509 $512 0 $257 $-1 #
vertex $-1 $399 $513 #
straight-curve $-1 25 50 12.5 0 0 1 #
point $-1 25 50 37.5 #
coedge $-1 $514 $339 $296 $405 1 $451 $-1 #
edge $-1 $407 $341 $296 $515 0 #
coedge $-1 $297 $516 $514 $517 1 $137 $-1 #
vertex $-1 $517 $518 #
straight-curve $-1 50 -17.5 -12.5 0 -1 0 #
point $-1 50 -20 -12.5 #
coedge $-1 $410 $410 $302 $411 1 $519 $-1 #
edge $-1 $520 $520 $302 $521 0 #
loop $-1 $522 $303 $523 #
vertex $-1 $304 $524 #
ellipse-curve $-1 50 27.5 12.4999999999998 -1 0 0 -2.61861100413235e-14 0 -7.5 1 #
loop $-1 $-1 $525 $305 #
coedge $-1 $526 $443 $527 $528 1 $306 $-1 #
face $-1 $529 $364 $2 $-1 $530 reversed single #
loop $-1 $-1 $531 $308 #
coedge $-1 $532 $466 $533 $534 1 $309 $-1 #
coedge $-1 $535 $310 $536 $537 1 $227 $-1 #
coedge $-1 $310 $471 $473 $538 1 $227 $-1 #
coedge $-1 $363 $481 $310 $423 0 $364 $-1 #
edge $-1 $539 $540 $422 $541 0 #
straight-curve $-1 0 -50 -37.5 -1 0 0 #
straight-curve $-1 0 -50 -12.5 -1 0 0 #
coedge $-1 $542 $543 $320 $427 1 $544 $-1 #
edge $-1 $431 $511 $320 $545 0 #
coedge $-1 $546 $321 $324 $434 0 $430 $-1 #
coedge $-1 $321 $546 $542 $547 0 $430 $-1 #
loop $-1 $-1 $546 $548 #
vertex $-1 $322 $549 #
coedge $-1 $433 $323 $526 $550 0 $325 $-1 #
coedge $-1 $324 $432 $551 $552 0 $325 $-1 #
edge $-1 $326 $553 $428 $554 0 #
face $-1 $555 $325 $2 $-1 $530 reversed single #
point $-1 -5 50 12.5 #
coedge $-1 $333 $526 $328 $438 1 $306 $-1 #
edge $-1 $335 $439 $328 $556 0 #
vertex $-1 $550 $557 #
straight-curve $-1 -20 25 12.5 -0 1 3.49148133884313e-15 #
coedge $-1 $558 $531 $332 $442 1 $418 $-1 #
edge $-1 $559 $444 $332 $336 0 #
coedge $-1 $416 $333 $531 $560 1 $306 $-1 #
vertex $-1 $442 $561 #
ellipse-curve $-1 -25 27.5 12.5000000000001 -1 -0 -0 -2.61861100413235e-14 0 -7.5 1 #
point $-1 -25 35 12.5 #
coedge $-1 $562 $338 $563 $564 0 $183 $-1 #
coedge $-1 $565 $566 $338 $449 1 $567 $-1 #
edge $-1 $452 $568 $338 $569 0 #
coedge $-1 $339 $514 $565 $570 0 $451 $-1 #
loop $-1 $-1 $450 $571 #
vertex $-1 $340 $572 #
point $-1 50 -50 -37.5 #
edge $-1 $381 $502 $343 $503 0 #
coedge $-1 $344 $562 $573 $574 0 $183 $-1 #
coedge $-1 $489 $488 $344 $457 1 $490 $-1 #
edge $-1 $575 $458 $456 $424 0 #
vertex $-1 $457 $576 #
straight-curve $-1 -20 -20 -37.5 0 1 -0 #
coedge $-1 $577 $346 $578 $579 0 $257 $-1 #
coedge $-1 $580 $581 $346 $462 1 $522 $-1 #
edge $-1 $582 $583 $346 $584 0 #
edge $-1 $469 $365 $347 $554 0 #
coedge $-1 $478 $585 $348 $465 1 $483 $-1 #
edge $-1 $480 $468 $348 $586 0 #
coedge $-1 $419 $349 $585 $587 1 $309 $-1 #
coedge $-1 $349 $588 $481 $589 1 $309 $-1 #
vertex $-1 $465 $590 #
vertex $-1 $350 $591 #
straight-curve $-1 0 -5 12.5 -1 -0 3.49148133884313e-15 #
coedge $-1 $421 $535 $351 $472 1 $227 $-1 #
edge $-1 $474 $559 $351 $592 0 #
coedge $-1 $352 $354 $421 $538 0 $355 $-1 #
vertex $-1 $353 $593 #
edge $-1 $356 $540 $354 $440 0 #
point $-1 -20 -20 12.5 #
coedge $-1 $359 $396 $594 $595 0 $132 $-1 #
coedge $-1 $596 $464 $359 $479 1 $483 $-1 #
edge $-1 $597 $480 $359 $598 0 #
vertex $-1 $479 $599 #
coedge $-1 $422 $362 $467 $589 0 $364 $-1 #
point $-1 -5 -20 12.5 #
loop $-1 $-1 $585 $367 #
cone-surface $-1 12.5 25 12.5 0 -1 -3.49148133884313e-15 7.5 0 0 1 0 1 0 #
coedge $-1 $600 $368 $601 $602 0 $137 $-1 #
coedge $-1 $603 $604 $368 $487 1 $605 $-1 #
edge $-1 $491 $606 $368 $607 0 #
coedge $-1 $456 $369 $374 $494 0 $490 $-1 #
coedge $-1 $369 $456 $603 $608 0 $490 $-1 #
loop $-1 $-1 $488 $378 #
vertex $-1 $608 $609 #
vertex $-1 $391 $610 #
ellipse-curve $-1 -25 -35 -12.5 -0 -0 -1 10 0 0 1 #
edge $-1 $376 $458 $488 $611 0 #
point $-1 -20 -43.6602540378444 -12.5 #
point $-1 -20 -50 -12.5 #
face $-1 $612 $605 $2 $-1 $613 forward single #
point $-1 -20 -43.6602540378444 -37.5 #
straight-curve $-1 -30 -50 -12.5 -0 0 1 #
point $-1 -30 -50 -12.5 #
point $-1 -30 -50 -37.5 #
vertex $-1 $454 $614 #
ellipse-curve $-1 -25 -35 -37.5 0 0 1 10 0 0 1 #
coedge $-1 $394 $615 $396 $506 1 $257 $-1 #
straight-curve $-1 25 7.5 37.5 0 -1 0 #
edge $-1 $397 $616 $396 $617 0 #
point $-1 25 -20 37.5 #
coedge $-1 $618 $398 $543 $619 0 $510 $-1 #
coedge $-1 $398 $618 $400 $512 1 $510 $-1 #
loop $-1 $-1 $618 $620 #
vertex $-1 $619 $621 #
edge $-1 $401 $582 $400 $622 0 #
point $-1 25 50 12.5 #
coedge $-1 $450 $404 $406 $517 0 $451 $-1 #
straight-curve $-1 50 -50 0 0 0 -1 #
coedge $-1 $406 $600 $623 $624 0 $137 $-1 #
edge $-1 $407 $625 $514 $425 0 #
point $-1 50 -50 -12.5 #
loop $-1 $626 $410 $627 #
vertex $-1 $411 $628 #
ellipse-curve $-1 50 2.5 12.4999999999998 -1 0 0 -2.61861100413235e-14 0 -7.5 1 #
loop $-1 $-1 $629 $523 #
face $-1 $224 $412 $2 $-1 $307 reversed single #
point $-1 50 27.5 4.99999999999983 #
coedge $-1 $630 $631 $632 $633 1 $415 $-1 #
coedge $-1 $437 $416 $432 $550 1 $306 $-1 #
coedge $-1 $634 $635 $416 $528 0 $636 $-1 #
edge $-1 $637 $638 $527 $639 0 #
face $-1 $640 $641 $2 $-1 $189 forward single #
cone-surface $-1 -12.5 25 12.5 0 -1 -3.49148133884313e-15 7.5 0 0 1 0 1 0 #
coedge $-1 $441 $642 $443 $560 0 $418 $-1 #
coedge $-1 $588 $419 $643 $644 1 $309 $-1 #
coedge $-1 $645 $646 $419 $534 0 $647 $-1 #
edge $-1 $648 $649 $533 $650 0 #
coedge $-1 $471 $420 $558 $651 1 $227 $-1 #
coedge $-1 $652 $634 $420 $537 0 $636 $-1 #
edge $-1 $653 $539 $536 $654 0 #
edge $-1 $540 $474 $473 $655 0 #
vertex $-1 $537 $656 #
vertex $-1 $475 $657 #
ellipse-curve $-1 -12.5 2.5 12.5 -0.707106781186547 0.707106781186547 4.98242673555651e-15 7.5 7.5 -2.61861100413235e-14 0.707106781186547 #
coedge $-1 $632 $426 $429 $547 1 $544 $-1 #
coedge $-1 $426 $658 $508 $619 1 $544 $-1 #
loop $-1 $-1 $658 $659 #
ellipse-curve $-1 12.5 50 12.5000000000001 0 -1 0 7.5 0 0 1 #
coedge $-1 $429 $428 $630 $660 0 $430 $-1 #
edge $-1 $661 $431 $429 $586 0 #
face $-1 $627 $430 $2 $-1 $189 forward single #
point $-1 5 50 12.5 #
edge $-1 $439 $637 $432 $662 0 #
coedge $-1 $663 $630 $433 $552 1 $415 $-1 #
edge $-1 $637 $553 $433 $664 0 #
vertex $-1 $434 $665 #
straight-curve $-1 -5 25 12.5 0 -1 -3.49148133884313e-15 #
face $-1 $620 $636 $2 $-1 $530 reversed single #
straight-curve $-1 0 35 12.5 1 0 -3.49148133884313e-15 #
point $-1 -20 35 12.5 #
coedge $-1 $642 $441 $535 $651 0 $418 $-1 #
vertex $-1 $651 $666 #
edge $-1 $638 $444 $531 $667 0 #
point $-1 -25 20 12.5 #
coedge $-1 $455 $447 $668 $669 0 $183 $-1 #
coedge $-1 $670 $668 $447 $564 1 $671 $-1 #
edge $-1 $568 $672 $447 $673 0 #
coedge $-1 $623 $448 $450 $570 1 $567 $-1 #
coedge $-1 $448 $623 $670 $674 0 $567 $-1 #
loop $-1 $-1 $566 $612 #
vertex $-1 $449 $675 #
straight-curve $-1 30 -20 -37.5 0 1 -0 #
edge $-1 $625 $452 $450 $676 0 #
face $-1 $523 $451 $2 $-1 $379 reversed single #
point $-1 30 -50 -37.5 #
coedge $-1 $604 $603 $455 $574 1 $605 $-1 #
edge $-1 $677 $575 $455 $678 0 #
vertex $-1 $574 $679 #
point $-1 -20 -50 -37.5 #
coedge $-1 $615 $460 $680 $681 0 $257 $-1 #
coedge $-1 $682 $683 $460 $579 1 $684 $-1 #
edge $-1 $583 $685 $460 $622 0 #
coedge $-1 $629 $461 $618 $686 1 $522 $-1 #
coedge $-1 $461 $687 $682 $688 1 $522 $-1 #
vertex $-1 $512 $689 #
vertex $-1 $688 $690 #
ellipse-curve $-1 25 27.5 12.4999999999999 1 -0 -0 -2.61861100413235e-14 0 -7.5 1 #
coedge $-1 $464 $691 $466 $587 0 $483 $-1 #
straight-curve $-1 5 25 12.5 -0 1 3.49148133884313e-15 #
edge $-1 $649 $468 $585 $692 0 #
coedge $-1 $467 $532 $652 $693 1 $309 $-1 #
edge $-1 $469 $539 $481 $694 0 #
point $-1 5 -5 12.4999999999999 #
point $-1 -5 -5 12.4999999999999 #
ellipse-curve $-1 -25 2.5 12.5000000000001 -1 -0 -0 -2.61861100413235e-14 0 -7.5 1 #
point $-1 -25 -5 12.5 #
coedge $-1 $695 $696 $477 $595 1 $641 $-1 #
edge $-1 $616 $597 $477 $357 0 #
coedge $-1 $691 $478 $696 $697 1 $483 $-1 #
vertex $-1 $595 $698 #
ellipse-curve $-1 12.5 -20 12.4999999999998 -0 1 -0 7.5 0 0 1 #
point $-1 5 -20 12.5 #
coedge $-1 $516 $485 $699 $700 0 $137 $-1 #
coedge $-1 $701 $699 $485 $602 1 $671 $-1 #
edge $-1 $606 $702 $485 $703 0 #
coedge $-1 $573 $486 $489 $608 1 $605 $-1 #
coedge $-1 $486 $573 $701 $704 0 $605 $-1 #
loop $-1 $-1 $604 $497 #
vertex $-1 $487 $705 #
straight-curve $-1 20 -37.5 -12.5 0 1 0 #
edge $-1 $575 $491 $489 $706 0 #
point $-1 20 -50 -12.5 #
point $-1 -15 -35 -12.5 #
straight-curve $-1 -20 -50 -12.5 -0 0 -1 #
face $-1 $707 $567 $2 $-1 $708 forward single #
plane-surface $-1 20 -40 -25 1 0 0 0 0 -1 0 #
point $-1 -15 -35 -37.5 #
coedge $-1 $504 $577 $695 $709 0 $257 $-1 #
vertex $-1 $595 $710 #
straight-curve $-1 25 -20 18.75 -0 -0 -1 #
coedge $-1 $509 $508 $580 $686 0 $510 $-1 #
edge $-1 $511 $711 $508 $712 0 #
face $-1 $713 $510 $2 $-1 $189 forward single #
point $-1 20 50 12.5 #
straight-curve $-1 25 15 12.5 0 -1 0 #
coedge $-1 $566 $565 $516 $624 1 $567 $-1 #
edge $-1 $714 $625 $516 $715 0 #
vertex $-1 $517 $716 #
loop $-1 $-1 $717 $627 #
face $-1 $163 $519 $2 $-1 $228 reversed single #
point $-1 50 2.5 4.99999999999983 #
coedge $-1 $687 $580 $658 $718 1 $522 $-1 #
coedge $-1 $551 $525 $546 $660 1 $415 $-1 #
coedge $-1 $525 $719 $720 $721 1 $415 $-1 #
coedge $-1 $658 $542 $525 $633 0 $544 $-1 #
edge $-1 $661 $722 $632 $723 0 #
coedge $-1 $536 $527 $642 $724 1 $636 $-1 #
coedge $-1 $527 $725 $663 $726 0 $636 $-1 #
loop $-1 $-1 $635 $555 #
vertex $-1 $550 $727 #
vertex $-1 $724 $728 #
ellipse-curve $-1 -12.5 27.5 12.5 -0.707106781186547 0.707106781186547 4.85681933886181e-15 7.5 7.5 -2.61861100413235e-14 0.707106781186547 #
face $-1 $729 $647 $2 $-1 $484 reversed single #
loop $-1 $-1 $730 $529 #
coedge $-1 $531 $558 $634 $724 0 $418 $-1 #
coedge $-1 $731 $732 $532 $644 0 $733 $-1 #
edge $-1 $734 $648 $643 $735 0 #
coedge $-1 $736 $533 $717 $737 0 $647 $-1 #
coedge $-1 $533 $720 $731 $738 1 $647 $-1 #
loop $-1 $-1 $720 $640 #
vertex $-1 $534 $739 #
vertex $-1 $534 $740 #
ellipse-curve $-1 12.5 2.5 12.5 -0.707106781186547 -0.707106781186547 4.18691322315673e-17 -7.5 7.5 2.61861100413235e-14 0.707106781186547 #
edge $-1 $559 $653 $558 $741 0 #
coedge $-1 $725 $536 $588 $693 0 $636 $-1 #
vertex $-1 $537 $742 #
ellipse-curve $-1 -12.5 2.5 12.5 -0.707106781186547 -0.707106781186547 4.18691322315673e-17 -7.5 7.5 2.61861100413235e-14 0.707106781186547 #
straight-curve $-1 0 -5 12.5 -1 -0 3.49148133884313e-15 #
point $-1 -12.5 2.50000000000003 5.00000000000004 #
point $-1 -20 -5 12.4999999999999 #
coedge $-1 $543 $632 $629 $718 0 $544 $-1 #
face $-1 $548 $544 $2 $-1 $484 reversed single #
edge $-1 $553 $661 $546 $743 0 #
vertex $-1 $633 $744 #
ellipse-curve $-1 -12.5 27.5 12.5 -0.707106781186547 -0.707106781186547 1.67476528926269e-16 -7.5 7.5 2.61861100413235e-14 0.707106781186547 #
coedge $-1 $719 $551 $635 $726 1 $415 $-1 #
ellipse-curve $-1 -12.5 27.5 12.5 0.707106781186547 -0.707106781186547 -4.85681933886181e-15 7.5 7.5 -2.61861100413235e-14 0.707106781186547 #
point $-1 -5 35 12.5 #
point $-1 -25 10 12.5 #
straight-curve $-1 0 20 12.5 -1 -0 3.49148133884313e-15 #
coedge $-1 $563 $701 $562 $669 1 $671 $-1 #
edge $-1 $672 $677 $562 $673 0 #
coedge $-1 $699 $563 $566 $674 1 $671 $-1 #
loop $-1 $-1 $670 $707 #
vertex $-1 $564 $745 #
ellipse-curve $-1 25 -35 -37.5 0 0 1 10 0 0 1 #
edge $-1 $714 $568 $670 $746 0 #
point $-1 30 -43.6602540378444 -37.5 #
straight-curve $-1 30 -50 -12.5 -0 0 -1 #
vertex $-1 $574 $747 #
straight-curve $-1 20 -20 -37.5 0 -1 0 #
point $-1 20 -50 -37.5 #
coedge $-1 $748 $749 $577 $681 1 $626 $-1 #
edge $-1 $685 $750 $577 $751 0 #
coedge $-1 $752 $578 $581 $688 0 $684 $-1 #
coedge $-1 $578 $752 $748 $753 0 $684 $-1 #
loop $-1 $-1 $682 $713 #
vertex $-1 $579 $754 #
edge $-1 $711 $582 $618 $755 0 #
coedge $-1 $581 $629 $756 $757 1 $522 $-1 #
edge $-1 $583 $758 $682 $759 0 #
point $-1 25 35 12.5 #
point $-1 25 20 12.5 #
coedge $-1 $585 $596 $760 $761 0 $483 $-1 #
ellipse-curve $-1 12.5 2.5 12.5 -0.707106781186547 0.707106781186547 4.98242673555651e-15 7.5 7.5 -2.61861100413235e-14 0.707106781186547 #
edge $-1 $539 $734 $652 $762 0 #
ellipse-curve $-1 -12.5 2.5 12.5 0.707106781186547 0.707106781186547 -4.18691322315673e-17 -7.5 7.5 2.61861100413235e-14 0.707106781186547 #
coedge $-1 $730 $594 $615 $709 1 $641 $-1 #
coedge $-1 $594 $730 $596 $697 0 $641 $-1 #
edge $-1 $763 $597 $696 $712 0 #
point $-1 20 -20 12.5 #
coedge $-1 $601 $670 $600 $700 1 $671 $-1 #
edge $-1 $702 $714 $600 $703 0 #
coedge $-1 $668 $601 $604 $704 1 $671 $-1 #
vertex $-1 $602 $764 #
ellipse-curve $-1 25 -35 -12.5 -0 -0 -1 10 0 0 1 #
edge $-1 $677 $606 $701 $765 0 #
point $-1 20 -43.6602540378444 -12.5 #
straight-curve $-1 20 -50 -12.5 -0 0 1 #
face $-1 $571 $671 $2 $-1 $766 reversed single #
plane-surface $-1 30 -40 -25 -1 0 0 0 0 1 0 #
edge $-1 $750 $616 $615 $622 0 #
point $-1 25 -20 12.5 #
vertex $-1 $619 $767 #
straight-curve $-1 20 25 12.5 0 -1 -3.49148133884313e-15 #
face $-1 $659 $684 $2 $-1 $189 forward single #
vertex $-1 $624 $768 #
straight-curve $-1 30 -37.5 -12.5 0 -1 0 #
point $-1 30 -50 -12.5 #
coedge $-1 $760 $748 $645 $737 1 $626 $-1 #
edge $-1 $722 $711 $658 $769 0 #
coedge $-1 $631 $663 $770 $771 1 $415 $-1 #
coedge $-1 $646 $756 $631 $721 0 $647 $-1 #
edge $-1 $722 $772 $720 $773 0 #
vertex $-1 $633 $774 #
ellipse-curve $-1 12.5 27.5 12.5 -0.707106781186547 -0.707106781186547 1.67476528926269e-16 -7.5 7.5 2.61861100413235e-14 0.707106781186547 #
edge $-1 $653 $638 $642 $440 0 #
coedge $-1 $635 $652 $732 $775 1 $636 $-1 #
edge $-1 $776 $637 $635 $777 0 #
point $-1 -12.5 27.5 5.00000000000004 #
point $-1 -20 20 12.5 #
face $-1 $195 $733 $2 $-1 $189 forward single #
coedge $-1 $696 $695 $749 $778 0 $641 $-1 #
coedge $-1 $770 $643 $646 $738 0 $733 $-1 #
coedge $-1 $643 $770 $725 $775 0 $733 $-1 #
loop $-1 $-1 $770 $729 #
vertex $-1 $775 $779 #
straight-curve $-1 0 10 12.5 1 0 -3.49148133884313e-15 #
coedge $-1 $756 $645 $752 $780 1 $647 $-1 #
edge $-1 $649 $781 $645 $782 0 #
edge $-1 $648 $772 $731 $586 0 #
point $-1 5 10 12.4999999999999 #
point $-1 12.5 2.50000000000003 4.99999999999996 #
straight-curve $-1 0 10 12.5 1 0 -3.49148133884313e-15 #
point $-1 -20 10 12.4999999999999 #
straight-curve $-1 0 35 12.5 1 0 -3.49148133884313e-15 #
point $-1 5 35 12.5 #
point $-1 35 -35 -37.5 #
straight-curve $-1 30 -43.6602540378444 -25 -0 -0 -1 #
point $-1 20 -43.6602540378444 -37.5 #
coedge $-1 $717 $680 $683 $753 1 $626 $-1 #
coedge $-1 $680 $760 $730 $778 1 $626 $-1 #
vertex $-1 $778 $783 #
ellipse-curve $-1 25 2.5 12.4999999999999 1 -0 -0 -2.61861100413235e-14 0 -7.5 1 #
coedge $-1 $683 $682 $736 $780 0 $684 $-1 #
edge $-1 $781 $685 $683 $784 0 #
point $-1 25 10 12.5 #
straight-curve $-1 0 35 12.5 1 0 -3.49148133884313e-15 #
coedge $-1 $720 $736 $687 $757 0 $647 $-1 #
edge $-1 $758 $722 $756 $785 0 #
vertex $-1 $757 $786 #
straight-curve $-1 0 20 12.5 -1 -0 3.49148133884313e-15 #
coedge $-1 $749 $717 $691 $761 1 $626 $-1 #
edge $-1 $763 $649 $691 $787 0 #
ellipse-curve $-1 -12.5 2.5 12.5 0.707106781186547 -0.707106781186547 -4.98242673555651e-15 7.5 7.5 -2.61861100413235e-14 0.707106781186547 #
vertex $-1 $761 $788 #
point $-1 35 -35 -12.5 #
straight-curve $-1 20 -43.6602540378444 -25 0 0 1 #
cone-surface $-1 25 -35 -25 0 0 1 10 0 0 1 0 1 0 #
point $-1 20 35 12.5 #
point $-1 30 -43.6602540378444 -12.5 #
ellipse-curve $-1 12.5 27.5 12.5 0.707106781186547 -0.707106781186547 -4.85681933886181e-15 7.5 7.5 -2.61861100413235e-14 0.707106781186547 #
coedge $-1 $732 $731 $719 $771 0 $733 $-1 #
edge $-1 $772 $776 $770 $789 0 #
vertex $-1 $738 $790 #
ellipse-curve $-1 12.5 27.5 12.5 -0.707106781186547 0.707106781186547 4.85681933886181e-15 7.5 7.5 -2.61861100413235e-14 0.707106781186547 #
point $-1 12.5 27.5 4.99999999999996 #
edge $-1 $776 $734 $732 $554 0 #
vertex $-1 $771 $791 #
ellipse-curve $-1 -12.5 27.5 12.5 0.707106781186547 0.707106781186547 -1.67476528926269e-16 -7.5 7.5 2.61861100413235e-14 0.707106781186547 #
edge $-1 $750 $763 $730 $792 0 #
point $-1 -5 10 12.4999999999999 #
edge $-1 $758 $781 $752 $712 0 #
vertex $-1 $780 $793 #
ellipse-curve $-1 12.5 2.5 12.5 0.707106781186547 -0.707106781186547 -4.98242673555651e-15 7.5 7.5 -2.61861100413235e-14 0.707106781186547 #
point $-1 25 -5 12.5 #
straight-curve $-1 0 10 12.5 1 0 -3.49148133884313e-15 #
ellipse-curve $-1 12.5 27.5 12.5 0.707106781186547 0.707106781186547 -1.67476528926269e-16 -7.5 7.5 2.61861100413235e-14 0.707106781186547 #
point $-1 20 20 12.5 #
ellipse-curve $-1 12.5 2.5 12.5 0.707106781186547 0.707106781186547 -4.18691322315673e-17 -7.5 7.5 2.61861100413235e-14 0.707106781186547 #
point $-1 20 -5 12.4999999999999 #
straight-curve $-1 0 20 12.5 -1 -0 3.49148133884313e-15 #
point $-1 5 20 12.5 #
point $-1 -5 20 12.5 #
straight-curve $-1 0 -5 12.5 -1 -0 3.49148133884313e-15 #
point $-1 20 10 12.4999999999999 #
