600 0 1 0           
85 GICL ACIS Healer - Source: /gicl/data5/repository/UMD/base1-Part/base1-Part.sat - 6 0 18 ACIS 6.0.3 Solaris 24 Sun Apr 14 00:36:10 2002 
1 9.999999999999999547e-07 1.000000000000000036e-10 
body $-1 $1 $-1 $-1 #
lump $-1 $-1 $2 $0 #
shell $-1 $-1 $-1 $3 $-1 $1 #
face $-1 $4 $5 $2 $-1 $6 forward single #
face $-1 $7 $8 $2 $-1 $9 forward single #
loop $-1 $-1 $10 $3 #
plane-surface $-1 -50 37.5 37.5 0 1 0 -0.707106781186549016 0 0.7071067811865460184 forward_v I I I I #
face $-1 $11 $12 $2 $-1 $13 reversed single #
loop $-1 $-1 $14 $4 #
plane-surface $-1 -41.16116523516809877 50 28.66116523516819825 -0.707106781186549016 0 0.7071067811865460184 0.7071067811865460184 0 0.707106781186549016 forward_v I I I I #
coedge $-1 $15 $16 $17 $18 reversed $5 $-1 #
face $-1 $19 $20 $2 $-1 $21 forward single #
loop $-1 $22 $23 $7 #
plane-surface $-1 -50 0 0 1 0 0 0 0 -1 forward_v I I I I #
coedge $-1 $24 $25 $26 $27 reversed $8 $-1 #
coedge $-1 $16 $10 $28 $29 forward $5 $-1 #
coedge $-1 $10 $15 $23 $30 reversed $5 $-1 #
coedge $-1 $31 $32 $10 $18 forward $33 $-1 #
edge $-1 $34 7.322330470336297026 $35 25 $17 $36 forward 7 unknown #
face $-1 $37 $38 $2 $-1 $39 forward single #
loop $-1 $-1 $40 $11 #
plane-surface $-1 50 37.5 37.5 0 1 0 0.707106781186549016 0 0.7071067811865460184 forward_v I I I I #
loop $-1 $41 $42 $7 #
coedge $-1 $43 $44 $16 $30 forward $12 $-1 #
coedge $-1 $28 $14 $43 $45 reversed $8 $-1 #
coedge $-1 $14 $28 $32 $46 reversed $8 $-1 #
coedge $-1 $47 $48 $14 $27 forward $49 $-1 #
edge $-1 $50 -16.91941738241585824 $51 8.080582617584159522 $26 $52 forward 7 unknown #
coedge $-1 $25 $24 $15 $29 reversed $8 $-1 #
edge $-1 $34 -12.4999999999999396 $53 12.50000000000007816 $15 $54 forward 7 unknown #
edge $-1 $35 -18.75 $53 -1.072330470336300579 $23 $55 forward 7 unknown #
coedge $-1 $56 $17 $44 $57 forward $33 $-1 #
coedge $-1 $17 $58 $25 $46 forward $33 $-1 #
loop $-1 $-1 $17 $59 #
vertex $-1 $46 $60 #
vertex $-1 $30 $61 #
straight-curve $-1 -25 37.5 37.5 -1 0 0 I I #
face $-1 $62 $63 $2 $-1 $64 forward single #
loop $-1 $-1 $65 $19 #
plane-surface $-1 41.16116523516809877 50 28.66116523516819825 0.707106781186549016 0 0.7071067811865460184 0.7071067811865460184 0 -0.707106781186549016 forward_v I I I I #
coedge $-1 $66 $67 $68 $69 reversed $20 $-1 #
loop $-1 $-1 $70 $7 #
coedge $-1 $42 $42 $71 $72 forward $22 $-1 #
coedge $-1 $73 $23 $24 $45 forward $12 $-1 #
coedge $-1 $23 $74 $31 $57 reversed $12 $-1 #
edge $-1 $53 12.5 $50 25 $43 $75 forward 7 unknown #
edge $-1 $51 -25 $34 -12.5 $32 $76 forward 7 unknown #
coedge $-1 $77 $26 $58 $78 reversed $49 $-1 #
coedge $-1 $26 $79 $73 $80 reversed $49 $-1 #
loop $-1 $-1 $26 $81 #
vertex $-1 $27 $82 #
vertex $-1 $78 $83 #
straight-curve $-1 -38.03616523516819825 50 31.78616523516809877 0.7071067811865460184 0 0.707106781186549016 I I #
vertex $-1 $45 $84 #
straight-curve $-1 -41.16116523516809877 37.5 28.66116523516819825 -0.7071067811865460184 0 -0.707106781186549016 I I #
straight-curve $-1 -50 37.5 18.75 0 0 -1 I I #
coedge $-1 $85 $31 $86 $87 forward $33 $-1 #
edge $-1 $35 -37.5 $88 20 $44 $89 forward 7 unknown #
coedge $-1 $32 $85 $47 $78 forward $33 $-1 #
face $-1 $90 $33 $2 $-1 $64 forward single #
point $-1 -32.32233047033629703 37.5 37.5 #
point $-1 -50 37.5 37.5 #
face $-1 $91 $92 $2 $-1 $93 forward single #
loop $-1 $-1 $94 $37 #
plane-surface $-1 0 0 37.5 0 0 1 1 0 0 forward_v I I I I #
coedge $-1 $95 $96 $97 $98 reversed $38 $-1 #
coedge $-1 $67 $40 $99 $100 forward $20 $-1 #
coedge $-1 $40 $66 $94 $101 reversed $20 $-1 #
coedge $-1 $102 $103 $40 $69 forward $104 $-1 #
edge $-1 $105 1.072330470336300579 $106 18.75 $68 $107 forward 7 unknown #
coedge $-1 $70 $70 $108 $109 forward $41 $-1 #
coedge $-1 $71 $71 $42 $72 reversed $110 $-1 #
edge $-1 $111 0 $111 6.283185307179586232 $42 $112 forward 7 unknown #
coedge $-1 $113 $43 $48 $80 forward $12 $-1 #
coedge $-1 $44 $114 $115 $116 forward $12 $-1 #
straight-curve $-1 -50 25 19.82233047033630058 0 1 -0 I I #
straight-curve $-1 -32.32233047033629703 25 37.5 0 -1 0 I I #
coedge $-1 $117 $47 $118 $119 forward $49 $-1 #
edge $-1 $120 25 $51 32.32233047033629703 $47 $121 forward 7 unknown #
coedge $-1 $48 $122 $123 $124 reversed $49 $-1 #
edge $-1 $50 -19.82233047033630058 $125 37.5 $48 $126 forward 7 unknown #
face $-1 $127 $49 $2 $-1 $128 reversed single #
point $-1 -50 50 19.82233047033630058 #
point $-1 -32.32233047033629703 50 37.5 #
point $-1 -50 37.5 19.82233047033630058 #
coedge $-1 $58 $56 $129 $130 forward $33 $-1 #
coedge $-1 $115 $131 $56 $87 reversed $132 $-1 #
edge $-1 $88 -50 $133 -25 $56 $134 forward 7 unknown #
vertex $-1 $57 $135 #
straight-curve $-1 -50 0 37.5 0 -1 0 I I #
face $-1 $136 $137 $2 $-1 $138 forward single #
face $-1 $139 $140 $2 $-1 $141 forward single #
loop $-1 $-1 $142 $62 #
plane-surface $-1 -30 -40 -25 1 0 0 0 0 -1 forward_v I I I I #
coedge $-1 $143 $144 $67 $101 forward $63 $-1 #
coedge $-1 $99 $65 $143 $145 reversed $38 $-1 #
coedge $-1 $65 $99 $103 $146 reversed $38 $-1 #
coedge $-1 $122 $147 $65 $98 forward $49 $-1 #
edge $-1 $148 -8.080582617584159522 $149 16.91941738241585824 $97 $150 forward 7 unknown #
coedge $-1 $96 $95 $66 $100 reversed $38 $-1 #
edge $-1 $105 -12.50000000000007816 $151 12.4999999999999396 $66 $152 forward 7 unknown #
edge $-1 $106 -25 $151 -7.322330470336297026 $94 $153 forward 7 unknown #
coedge $-1 $154 $68 $144 $155 reversed $104 $-1 #
coedge $-1 $68 $156 $96 $146 forward $104 $-1 #
loop $-1 $157 $68 $136 #
vertex $-1 $146 $158 #
vertex $-1 $155 $159 #
straight-curve $-1 50 37.5 18.75 0 -0 1 I I #
coedge $-1 $108 $108 $70 $109 reversed $160 $-1 #
edge $-1 $161 0 $161 6.283185307179586232 $70 $162 forward 7 unknown #
loop $-1 $-1 $71 $163 #
vertex $-1 $72 $164 #
ellipse-curve $-1 -50 2.5 12.50000000000020073 1 0 0 -2.618611004132350016e-14 0 -7.5 1 I I #
coedge $-1 $165 $73 $166 $167 reversed $12 $-1 #
coedge $-1 $74 $165 $168 $169 forward $12 $-1 #
coedge $-1 $170 $86 $74 $116 reversed $132 $-1 #
edge $-1 $171 -18.75 $88 31.25 $74 $172 forward 7 unknown #
coedge $-1 $173 $77 $174 $175 forward $49 $-1 #
coedge $-1 $129 $176 $77 $119 reversed $177 $-1 #
edge $-1 $120 -25 $178 0 $77 $179 forward 7 unknown #
vertex $-1 $119 $180 #
straight-curve $-1 0 50 37.5 -1 0 0 I I #
coedge $-1 $79 $97 $156 $181 forward $49 $-1 #
coedge $-1 $182 $166 $79 $124 forward $183 $-1 #
edge $-1 $125 -50 $184 50 $79 $185 forward 7 unknown #
vertex $-1 $124 $186 #
straight-curve $-1 -50 50 0 0 0 -1 I I #
face $-1 $187 $188 $2 $-1 $189 forward single #
plane-surface $-1 0 50 0 0 -1 0 0 0 -1 forward_v I I I I #
coedge $-1 $190 $118 $85 $130 reversed $177 $-1 #
edge $-1 $133 -27.5 $120 42.5 $85 $191 forward 7 unknown #
coedge $-1 $86 $192 $190 $193 forward $132 $-1 #
loop $-1 $-1 $194 $195 #
vertex $-1 $87 $196 #
straight-curve $-1 0 -20 37.5 1 0 -0 I I #
point $-1 -50 -20 37.5 #
face $-1 $-1 $104 $2 $-1 $197 reversed single #
loop $-1 $-1 $198 $90 #
plane-surface $-1 0 -35 -12.5 0 0 1 1 0 0 forward_v I I I I #
face $-1 $199 $200 $2 $-1 $201 reversed single #
loop $-1 $-1 $202 $91 #
plane-surface $-1 -20 -40 -25 -1 0 0 0 0 1 forward_v I I I I #
coedge $-1 $203 $204 $205 $206 forward $92 $-1 #
coedge $-1 $207 $94 $95 $145 forward $63 $-1 #
coedge $-1 $94 $208 $102 $155 forward $63 $-1 #
edge $-1 $151 12.5 $148 25 $143 $209 forward 7 unknown #
edge $-1 $149 -25 $105 -12.5 $103 $210 forward 7 unknown #
coedge $-1 $97 $211 $207 $212 reversed $49 $-1 #
vertex $-1 $98 $213 #
vertex $-1 $98 $214 #
straight-curve $-1 38.03616523516819825 50 31.78616523516809877 0.7071067811865460184 0 -0.707106781186549016 I I #
vertex $-1 $145 $215 #
straight-curve $-1 41.16116523516809877 37.5 28.66116523516819825 -0.7071067811865460184 0 0.707106781186549016 I I #
straight-curve $-1 25 37.5 37.5 -1 0 0 I I #
coedge $-1 $216 $102 $217 $218 forward $104 $-1 #
edge $-1 $219 -20 $106 37.5 $102 $220 forward 7 unknown #
coedge $-1 $103 $221 $122 $181 reversed $104 $-1 #
loop $-1 $222 $223 $136 #
point $-1 50 37.5 19.82233047033630058 #
point $-1 50 37.5 37.5 #
loop $-1 $-1 $108 $224 #
vertex $-1 $109 $225 #
ellipse-curve $-1 -50 27.5 12.50000000000020073 1 0 0 -2.618611004132350016e-14 0 -7.5 1 I I #
face $-1 $226 $227 $2 $-1 $228 reversed single #
point $-1 -50 2.5 5.000000000000169642 #
coedge $-1 $114 $113 $229 $230 reversed $12 $-1 #
coedge $-1 $123 $231 $113 $167 forward $183 $-1 #
edge $-1 $232 -50 $125 50 $113 $233 forward 7 unknown #
coedge $-1 $234 $235 $114 $169 reversed $137 $-1 #
edge $-1 $236 -32.5 $171 -2.5 $114 $237 forward 7 unknown #
coedge $-1 $217 $115 $235 $238 forward $132 $-1 #
vertex $-1 $169 $239 #
straight-curve $-1 -50 -20 6.25 -0 0 1 I I #
coedge $-1 $240 $117 $241 $242 forward $49 $-1 #
coedge $-1 $243 $244 $117 $175 reversed $245 $-1 #
edge $-1 $178 -25 $246 -20 $117 $247 forward 7 unknown #
coedge $-1 $118 $248 $243 $249 forward $177 $-1 #
loop $-1 $-1 $248 $250 #
vertex $-1 $175 $251 #
straight-curve $-1 -25 50 12.5 0 0 -1 I I #
point $-1 -25 50 37.5 #
edge $-1 $149 -19.82233047033630058 $184 37.5 $156 $252 forward 7 unknown #
coedge $-1 $253 $123 $221 $254 forward $183 $-1 #
loop $-1 $-1 $255 $199 #
vertex $-1 $254 $256 #
straight-curve $-1 0 50 -37.5 1 0 0 I I #
point $-1 -50 50 -37.5 #
face $-1 $59 $257 $2 $-1 $258 forward single #
loop $-1 $-1 $259 $127 #
plane-surface $-1 0 15 12.5 0 0 1 1 0 0 forward_v I I I I #
coedge $-1 $260 $129 $131 $193 reversed $177 $-1 #
straight-curve $-1 -25 7.5 37.5 0 1 0 I I #
coedge $-1 $131 $194 $261 $262 forward $132 $-1 #
edge $-1 $263 -6.25 $133 18.75 $131 $264 forward 7 unknown #
coedge $-1 $192 $265 $266 $267 forward $132 $-1 #
face $-1 $268 $132 $2 $-1 $269 forward single #
point $-1 -25 -20 37.5 #
plane-surface $-1 50 0 0 -1 0 0 0 -0 1 forward_v I I I I #
coedge $-1 $270 $271 $272 $273 forward $137 $-1 #
face $-1 $274 $183 $2 $-1 $275 reversed single #
loop $-1 $-1 $276 $139 #
cone-surface $-1 -25 -35 -25 0 0 1 10 0 0 1 I I 0 1 10 forward I I I I #
coedge $-1 $277 $272 $276 $278 forward $140 $-1 #
coedge $-1 $279 $142 $280 $281 reversed $92 $-1 #
coedge $-1 $142 $279 $282 $283 reversed $92 $-1 #
coedge $-1 $284 $285 $142 $206 reversed $200 $-1 #
edge $-1 $286 -12.5 $287 12.5 $205 $288 forward 7 unknown #
coedge $-1 $289 $143 $147 $212 forward $63 $-1 #
coedge $-1 $144 $289 $290 $291 forward $63 $-1 #
straight-curve $-1 32.32233047033629703 25 37.5 0 1 0 I I #
straight-curve $-1 50 25 19.82233047033630058 0 -1 0 I I #
coedge $-1 $147 $292 $293 $294 forward $49 $-1 #
edge $-1 $148 -32.32233047033629703 $295 -25 $147 $121 forward 7 unknown #
point $-1 32.32233047033629703 50 37.5 #
point $-1 50 50 19.82233047033630058 #
point $-1 32.32233047033629703 37.5 37.5 #
coedge $-1 $296 $154 $297 $298 forward $104 $-1 #
coedge $-1 $290 $170 $154 $218 reversed $132 $-1 #
edge $-1 $219 -31.25 $299 18.75 $154 $300 forward 7 unknown #
vertex $-1 $218 $301 #
straight-curve $-1 50 0 37.5 0 1 0 I I #
coedge $-1 $156 $296 $182 $254 reversed $104 $-1 #
loop $-1 $-1 $302 $136 #
coedge $-1 $223 $223 $303 $304 forward $157 $-1 #
face $-1 $305 $306 $2 $-1 $307 reversed single #
point $-1 -50 27.5 5.000000000000169642 #
face $-1 $308 $309 $2 $-1 $228 reversed single #
loop $-1 $110 $310 $163 #
cone-surface $-1 0 2.5 12.5 1 0 -3.491481338843129805e-15 -2.618611004132350016e-14 0 -7.5 1 I I 0 1 7.5 forward I I I I #
coedge $-1 $311 $312 $165 $230 forward $313 $-1 #
edge $-1 $236 12.5 $232 37.5 $165 $314 forward 7 unknown #
coedge $-1 $166 $282 $311 $315 forward $183 $-1 #
vertex $-1 $167 $316 #
straight-curve $-1 -50 0 -37.5 0 1 0 I I #
coedge $-1 $280 $168 $312 $317 reversed $137 $-1 #
coedge $-1 $168 $297 $170 $238 reversed $137 $-1 #
vertex $-1 $317 $318 #
straight-curve $-1 -50 -17.5 -12.5 0 1 0 I I #
edge $-1 $171 -50 $299 50 $170 $319 forward 7 unknown #
point $-1 -50 -20 -12.5 #
coedge $-1 $320 $173 $321 $322 forward $49 $-1 #
coedge $-1 $323 $324 $173 $242 reversed $325 $-1 #
edge $-1 $246 -3.141592653589779793 $326 -1.326346440085520368e-14 $173 $327 forward 7 unknown #
coedge $-1 $328 $174 $176 $249 reversed $245 $-1 #
coedge $-1 $174 $328 $323 $329 forward $245 $-1 #
loop $-1 $-1 $328 $330 #
vertex $-1 $175 $331 #
straight-curve $-1 0 50 12.5 1 0 -0 I I #
coedge $-1 $176 $332 $333 $334 forward $177 $-1 #
edge $-1 $335 20 $178 35 $176 $336 forward 7 unknown #
face $-1 $330 $177 $2 $-1 $337 forward single #
point $-1 -25 50 12.5 #
straight-curve $-1 50 50 0 0 0 -1 I I #
coedge $-1 $338 $182 $339 $340 forward $183 $-1 #
edge $-1 $184 -50 $341 50 $221 $342 forward 7 unknown #
coedge $-1 $343 $344 $277 $345 forward $183 $-1 #
point $-1 50 50 -37.5 #
loop $-1 $-1 $346 $187 #
plane-surface $-1 25 15 25 -1 0 0 0 0 1 forward_v I I I I #
coedge $-1 $347 $348 $349 $350 forward $188 $-1 #
coedge $-1 $351 $190 $352 $353 forward $177 $-1 #
coedge $-1 $354 $352 $192 $262 reversed $355 $-1 #
edge $-1 $356 20 $263 25 $192 $357 forward 7 unknown #
vertex $-1 $262 $358 #
straight-curve $-1 -25 -20 18.75 -0 0 1 I I #
coedge $-1 $194 $359 $360 $361 forward $132 $-1 #
coedge $-1 $362 $363 $194 $267 reversed $364 $-1 #
edge $-1 $365 -2.676377638029710658e-14 $356 3.141592653589819761 $194 $366 forward 7 unknown #
face $-1 $367 $355 $2 $-1 $189 forward single #
plane-surface $-1 0 -20 12.5 0 -1 0 0 0 -1 forward_v I I I I #
coedge $-1 $368 $198 $369 $370 reversed $137 $-1 #
coedge $-1 $198 $371 $372 $373 forward $137 $-1 #
coedge $-1 $202 $374 $198 $273 reversed $140 $-1 #
edge $-1 $375 6.160254037844403285 $376 12.5 $198 $377 forward 7 unknown #
face $-1 $378 $313 $2 $-1 $379 reversed single #
plane-surface $-1 0 0 -37.5 0 0 1 1 0 0 forward_v I I I I #
coedge $-1 $372 $380 $202 $278 reversed $200 $-1 #
coedge $-1 $374 $202 $255 $345 reversed $140 $-1 #
edge $-1 $375 -12.5 $381 12.5 $276 $382 forward 7 unknown #
coedge $-1 $204 $203 $383 $384 reversed $92 $-1 #
coedge $-1 $371 $234 $203 $281 forward $137 $-1 #
edge $-1 $385 -12.5 $287 -6.160254037844403285 $280 $386 forward 7 unknown #
coedge $-1 $231 $387 $204 $283 forward $183 $-1 #
edge $-1 $286 23.66025403784440329 $388 30 $282 $389 forward 7 unknown #
coedge $-1 $380 $205 $387 $390 reversed $200 $-1 #
coedge $-1 $205 $372 $371 $391 reversed $200 $-1 #
vertex $-1 $283 $392 #
vertex $-1 $281 $393 #
straight-curve $-1 -30 -43.66025403784440329 -25 0 0 1 I I #
coedge $-1 $208 $207 $394 $395 forward $63 $-1 #
coedge $-1 $396 $217 $208 $291 reversed $132 $-1 #
edge $-1 $397 25 $219 50 $208 $134 forward 7 unknown #
coedge $-1 $211 $320 $398 $399 forward $49 $-1 #
coedge $-1 $400 $394 $211 $294 reversed $257 $-1 #
edge $-1 $401 0 $295 25 $211 $402 forward 7 unknown #
vertex $-1 $212 $403 #
coedge $-1 $221 $216 $404 $405 forward $104 $-1 #
coedge $-1 $235 $406 $216 $298 reversed $137 $-1 #
edge $-1 $299 2.5 $407 32.5 $216 $408 forward 7 unknown #
vertex $-1 $298 $409 #
straight-curve $-1 50 -20 6.25 -0 -0 -1 I I #
point $-1 50 -20 37.5 #
coedge $-1 $302 $302 $410 $411 forward $222 $-1 #
coedge $-1 $303 $303 $223 $304 reversed $412 $-1 #
edge $-1 $413 -0 $413 6.283185307179586232 $223 $414 forward 7 unknown #
face $-1 $250 $415 $2 $-1 $307 reversed single #
loop $-1 $160 $416 $224 #
cone-surface $-1 0 27.5 12.5 1 0 -3.491481338843129805e-15 -2.618611004132350016e-14 0 -7.5 1 I I 0 1 7.5 forward I I I I #
face $-1 $417 $418 $2 $-1 $189 forward single #
loop $-1 $-1 $419 $226 #
coedge $-1 $420 $421 $422 $423 reversed $227 $-1 #
coedge $-1 $383 $229 $231 $315 reversed $313 $-1 #
coedge $-1 $229 $383 $234 $317 forward $313 $-1 #
loop $-1 $-1 $383 $274 #
straight-curve $-1 -50 -50 0 0 0 -1 I I #
edge $-1 $388 30 $232 50 $311 $424 forward 7 unknown #
point $-1 -50 -50 -37.5 #
edge $-1 $385 30 $236 50 $312 $425 forward 7 unknown #
point $-1 -50 -50 -12.5 #
straight-curve $-1 0 -20 -12.5 1 0 0 I I #
coedge $-1 $292 $240 $426 $427 forward $49 $-1 #
coedge $-1 $428 $429 $240 $322 reversed $430 $-1 #
edge $-1 $326 -5 $431 5 $240 $247 forward 7 unknown #
coedge $-1 $432 $241 $244 $329 reversed $325 $-1 #
coedge $-1 $241 $433 $428 $434 reversed $325 $-1 #
loop $-1 $-1 $432 $435 #
vertex $-1 $242 $436 #
ellipse-curve $-1 -12.5 50 12.50000000000009948 0 -1 0 7.5 0 0 1 I I #
coedge $-1 $244 $243 $437 $438 forward $245 $-1 #
edge $-1 $439 10 $246 25 $244 $440 forward 7 unknown #
face $-1 $435 $245 $2 $-1 $189 forward single #
point $-1 -20 50 12.5 #
coedge $-1 $248 $351 $441 $442 forward $177 $-1 #
coedge $-1 $443 $437 $248 $334 reversed $306 $-1 #
edge $-1 $444 1.570796326794883457 $335 4.712388980384702997 $248 $445 forward 7 unknown #
vertex $-1 $438 $446 #
straight-curve $-1 -25 15 12.5 0 1 0 I I #
plane-surface $-1 -25 15 25 1 0 0 0 0 -1 forward_v I I I I #
coedge $-1 $447 $253 $448 $449 forward $183 $-1 #
coedge $-1 $404 $450 $253 $340 reversed $451 $-1 #
edge $-1 $341 -50 $452 -30 $339 $424 forward 7 unknown #
vertex $-1 $405 $453 #
straight-curve $-1 50 0 -37.5 0 -1 0 I I #
coedge $-1 $387 $255 $380 $454 forward $183 $-1 #
coedge $-1 $255 $455 $456 $457 forward $183 $-1 #
edge $-1 $458 -30 $381 -23.66025403784440329 $255 $459 forward 7 unknown #
coedge $-1 $460 $400 $461 $462 forward $257 $-1 #
coedge $-1 $360 $259 $362 $463 forward $188 $-1 #
coedge $-1 $259 $360 $464 $465 forward $188 $-1 #
coedge $-1 $466 $467 $259 $350 reversed $309 $-1 #
edge $-1 $468 -5 $469 5 $259 $470 forward 7 unknown #
coedge $-1 $332 $260 $471 $472 forward $177 $-1 #
coedge $-1 $261 $473 $260 $353 reversed $355 $-1 #
edge $-1 $263 -35 $474 -20 $260 $336 forward 7 unknown #
coedge $-1 $473 $261 $363 $475 forward $355 $-1 #
loop $-1 $-1 $473 $268 #
vertex $-1 $475 $476 #
straight-curve $-1 0 -20 12.5 -1 0 0 I I #
point $-1 -25 -20 12.5 #
coedge $-1 $265 $477 $478 $479 forward $132 $-1 #
coedge $-1 $348 $347 $265 $361 reversed $188 $-1 #
edge $-1 $480 -5 $365 5 $265 $357 forward 7 unknown #
coedge $-1 $481 $266 $347 $463 reversed $364 $-1 #
coedge $-1 $266 $422 $354 $475 reversed $364 $-1 #
loop $-1 $-1 $481 $417 #
vertex $-1 $361 $482 #
ellipse-curve $-1 -12.5 -20 12.49999999999979927 -0 1 -0 7.5 0 0 1 I I #
face $-1 $81 $483 $2 $-1 $484 reversed single #
coedge $-1 $485 $270 $486 $487 forward $137 $-1 #
coedge $-1 $488 $489 $270 $370 forward $490 $-1 #
edge $-1 $491 -20 $376 20 $369 $425 forward 7 unknown #
coedge $-1 $271 $280 $285 $391 forward $137 $-1 #
coedge $-1 $285 $276 $271 $373 reversed $200 $-1 #
edge $-1 $492 0 $375 1.047197551196598519 $271 $493 forward 7 unknown #
coedge $-1 $272 $277 $488 $494 reversed $140 $-1 #
vertex $-1 $273 $495 #
vertex $-1 $370 $496 #
straight-curve $-1 -20 -37.5 -12.5 0 -1 0 I I #
face $-1 $497 $490 $2 $-1 $379 reversed single #
plane-surface $-1 0 -50 0 0 1 -0 -0 0 1 forward_v I I I I #
coedge $-1 $276 $284 $343 $454 reversed $200 $-1 #
vertex $-1 $345 $498 #
straight-curve $-1 -20 -43.66025403784440329 -25 -0 -0 -1 I I #
coedge $-1 $312 $311 $279 $384 forward $313 $-1 #
edge $-1 $388 -25 $385 0 $383 $499 forward 7 unknown #
vertex $-1 $384 $500 #
straight-curve $-1 -30 -37.5 -12.5 0 1 0 I I #
coedge $-1 $282 $343 $284 $390 forward $183 $-1 #
vertex $-1 $384 $501 #
straight-curve $-1 -30 -20 -37.5 0 -1 0 I I #
edge $-1 $502 0 $286 4.188790204786391413 $387 $503 forward 7 unknown #
edge $-1 $287 2.094395102393194819 $492 6.283185307179586232 $371 $493 forward 7 unknown #
point $-1 -30 -43.66025403784440329 -37.5 #
point $-1 -30 -43.66025403784440329 -12.5 #
coedge $-1 $293 $504 $289 $395 reversed $257 $-1 #
edge $-1 $295 -42.5 $397 27.5 $289 $505 forward 7 unknown #
coedge $-1 $477 $290 $504 $506 forward $132 $-1 #
vertex $-1 $395 $507 #
coedge $-1 $508 $509 $292 $399 reversed $510 $-1 #
edge $-1 $511 20 $401 25 $292 $247 forward 7 unknown #
coedge $-1 $346 $293 $509 $512 forward $257 $-1 #
vertex $-1 $399 $513 #
straight-curve $-1 25 50 12.5 0 0 1 I I #
point $-1 25 50 37.5 #
coedge $-1 $514 $339 $296 $405 reversed $451 $-1 #
edge $-1 $407 12.5 $341 37.5 $296 $515 forward 7 unknown #
coedge $-1 $297 $516 $514 $517 reversed $137 $-1 #
vertex $-1 $517 $518 #
straight-curve $-1 50 -17.5 -12.5 0 -1 0 I I #
point $-1 50 -20 -12.5 #
coedge $-1 $410 $410 $302 $411 reversed $519 $-1 #
edge $-1 $520 -0 $520 6.283185307179586232 $302 $521 forward 7 unknown #
loop $-1 $522 $303 $523 #
vertex $-1 $304 $524 #
ellipse-curve $-1 50 27.5 12.49999999999979927 -1 0 0 -2.618611004132350016e-14 0 -7.5 1 I I #
loop $-1 $-1 $525 $305 #
coedge $-1 $526 $443 $527 $528 reversed $306 $-1 #
face $-1 $529 $364 $2 $-1 $530 reversed single #
loop $-1 $-1 $531 $308 #
coedge $-1 $532 $466 $533 $534 reversed $309 $-1 #
coedge $-1 $535 $310 $536 $537 reversed $227 $-1 #
coedge $-1 $310 $471 $473 $538 reversed $227 $-1 #
coedge $-1 $363 $481 $310 $423 forward $364 $-1 #
edge $-1 $539 1.570796326794892783 $540 3.141592653589776685 $422 $541 forward 7 unknown #
straight-curve $-1 0 -50 -37.5 -1 0 0 I I #
straight-curve $-1 0 -50 -12.5 -1 0 0 I I #
coedge $-1 $542 $543 $320 $427 reversed $544 $-1 #
edge $-1 $431 -3.141592653589779793 $511 -1.326346440085520368e-14 $320 $545 forward 7 unknown #
coedge $-1 $546 $321 $324 $434 forward $430 $-1 #
coedge $-1 $321 $546 $542 $547 forward $430 $-1 #
loop $-1 $-1 $546 $548 #
vertex $-1 $322 $549 #
coedge $-1 $433 $323 $526 $550 forward $325 $-1 #
coedge $-1 $324 $432 $551 $552 forward $325 $-1 #
edge $-1 $326 -25 $553 -10 $428 $554 forward 7 unknown #
face $-1 $555 $325 $2 $-1 $530 reversed single #
point $-1 -5 50 12.5 #
coedge $-1 $333 $526 $328 $438 reversed $306 $-1 #
edge $-1 $335 -25 $439 -20 $328 $556 forward 7 unknown #
vertex $-1 $550 $557 #
straight-curve $-1 -20 25 12.5 -0 1 3.491481338843129805e-15 I I #
coedge $-1 $558 $531 $332 $442 reversed $418 $-1 #
edge $-1 $559 -5 $444 5 $332 $336 forward 7 unknown #
coedge $-1 $416 $333 $531 $560 reversed $306 $-1 #
vertex $-1 $442 $561 #
ellipse-curve $-1 -25 27.5 12.50000000000009948 -1 -0 -0 -2.618611004132350016e-14 0 -7.5 1 I I #
point $-1 -25 35 12.5 #
coedge $-1 $562 $338 $563 $564 forward $183 $-1 #
coedge $-1 $565 $566 $338 $449 reversed $567 $-1 #
edge $-1 $452 -30 $568 -23.66025403784440329 $338 $569 forward 7 unknown #
coedge $-1 $339 $514 $565 $570 forward $451 $-1 #
loop $-1 $-1 $450 $571 #
vertex $-1 $340 $572 #
point $-1 50 -50 -37.5 #
edge $-1 $381 -1.047197551196598519 $502 0 $343 $503 forward 7 unknown #
coedge $-1 $344 $562 $573 $574 forward $183 $-1 #
coedge $-1 $489 $488 $344 $457 reversed $490 $-1 #
edge $-1 $575 -20 $458 20 $456 $424 forward 7 unknown #
vertex $-1 $457 $576 #
straight-curve $-1 -20 -20 -37.5 0 1 -0 I I #
coedge $-1 $577 $346 $578 $579 forward $257 $-1 #
coedge $-1 $580 $581 $346 $462 reversed $522 $-1 #
edge $-1 $582 1.570796326794909881 $583 4.712388980384676351 $346 $584 forward 7 unknown #
edge $-1 $469 30 $365 45 $347 $554 forward 7 unknown #
coedge $-1 $478 $585 $348 $465 reversed $483 $-1 #
edge $-1 $480 -45 $468 -30 $348 $586 forward 7 unknown #
coedge $-1 $419 $349 $585 $587 reversed $309 $-1 #
coedge $-1 $349 $588 $481 $589 reversed $309 $-1 #
vertex $-1 $465 $590 #
vertex $-1 $350 $591 #
straight-curve $-1 0 -5 12.5 -1 -0 3.491481338843129805e-15 I I #
coedge $-1 $421 $535 $351 $472 reversed $227 $-1 #
edge $-1 $474 1.570796326794883457 $559 4.712388980384702997 $351 $592 forward 7 unknown #
coedge $-1 $352 $354 $421 $538 forward $355 $-1 #
vertex $-1 $353 $593 #
edge $-1 $356 -45 $540 -30 $354 $440 forward 7 unknown #
point $-1 -20 -20 12.5 #
coedge $-1 $359 $396 $594 $595 forward $132 $-1 #
coedge $-1 $596 $464 $359 $479 reversed $483 $-1 #
edge $-1 $597 -2.676377638029710658e-14 $480 3.141592653589819761 $359 $598 forward 7 unknown #
vertex $-1 $479 $599 #
coedge $-1 $422 $362 $467 $589 forward $364 $-1 #
point $-1 -5 -20 12.5 #
loop $-1 $-1 $585 $367 #
cone-surface $-1 12.5 25 12.5 0 -1 -3.491481338843129805e-15 7.5 0 0 1 I I 0 1 7.5 forward I I I I #
coedge $-1 $600 $368 $601 $602 forward $137 $-1 #
coedge $-1 $603 $604 $368 $487 reversed $605 $-1 #
edge $-1 $491 -12.5 $606 -6.160254037844403285 $368 $607 forward 7 unknown #
coedge $-1 $456 $369 $374 $494 forward $490 $-1 #
coedge $-1 $369 $456 $603 $608 forward $490 $-1 #
loop $-1 $-1 $488 $378 #
vertex $-1 $608 $609 #
vertex $-1 $391 $610 #
ellipse-curve $-1 -25 -35 -12.5 -0 -0 -1 10 0 0 1 I I #
edge $-1 $376 0 $458 25 $488 $611 forward 7 unknown #
point $-1 -20 -43.66025403784440329 -12.5 #
point $-1 -20 -50 -12.5 #
face $-1 $612 $605 $2 $-1 $613 forward single #
point $-1 -20 -43.66025403784440329 -37.5 #
straight-curve $-1 -30 -50 -12.5 -0 0 1 I I #
point $-1 -30 -50 -12.5 #
point $-1 -30 -50 -37.5 #
vertex $-1 $454 $614 #
ellipse-curve $-1 -25 -35 -37.5 0 0 1 10 0 0 1 I I #
coedge $-1 $394 $615 $396 $506 reversed $257 $-1 #
straight-curve $-1 25 7.5 37.5 0 -1 0 I I #
edge $-1 $397 -18.75 $616 6.25 $396 $617 forward 7 unknown #
point $-1 25 -20 37.5 #
coedge $-1 $618 $398 $543 $619 forward $510 $-1 #
coedge $-1 $398 $618 $400 $512 reversed $510 $-1 #
loop $-1 $-1 $618 $620 #
vertex $-1 $619 $621 #
edge $-1 $401 -35 $582 -20 $400 $622 forward 7 unknown #
point $-1 25 50 12.5 #
coedge $-1 $450 $404 $406 $517 forward $451 $-1 #
straight-curve $-1 50 -50 0 0 0 -1 I I #
coedge $-1 $406 $600 $623 $624 forward $137 $-1 #
edge $-1 $407 -50 $625 -30 $514 $425 forward 7 unknown #
point $-1 50 -50 -12.5 #
loop $-1 $626 $410 $627 #
vertex $-1 $411 $628 #
ellipse-curve $-1 50 2.5 12.49999999999979927 -1 0 0 -2.618611004132350016e-14 0 -7.5 1 I I #
loop $-1 $-1 $629 $523 #
face $-1 $224 $412 $2 $-1 $307 reversed single #
point $-1 50 27.5 4.999999999999830358 #
coedge $-1 $630 $631 $632 $633 reversed $415 $-1 #
coedge $-1 $437 $416 $432 $550 reversed $306 $-1 #
coedge $-1 $634 $635 $416 $528 forward $636 $-1 #
edge $-1 $637 1.570796326794894782 $638 3.141592653589789563 $527 $639 forward 7 unknown #
face $-1 $640 $641 $2 $-1 $189 forward single #
cone-surface $-1 -12.5 25 12.5 0 -1 -3.491481338843129805e-15 7.5 0 0 1 I I 0 1 7.5 forward I I I I #
coedge $-1 $441 $642 $443 $560 forward $418 $-1 #
coedge $-1 $588 $419 $643 $644 reversed $309 $-1 #
coedge $-1 $645 $646 $419 $534 forward $647 $-1 #
edge $-1 $648 1.675494573969834966e-14 $649 1.570796326794896336 $533 $650 forward 7 unknown #
coedge $-1 $471 $420 $558 $651 reversed $227 $-1 #
coedge $-1 $652 $634 $420 $537 forward $636 $-1 #
edge $-1 $653 1.675494573969834966e-14 $539 1.570796326794896336 $536 $654 forward 7 unknown #
edge $-1 $540 20 $474 25 $473 $655 forward 7 unknown #
vertex $-1 $537 $656 #
vertex $-1 $475 $657 #
ellipse-curve $-1 -12.5 2.5 12.5 -0.7071067811865475727 0.7071067811865475727 4.982426735556514333e-15 7.5 7.5 -2.618611004132350016e-14 0.7071067811865470176 I I #
coedge $-1 $632 $426 $429 $547 reversed $544 $-1 #
coedge $-1 $426 $658 $508 $619 reversed $544 $-1 #
loop $-1 $-1 $658 $659 #
ellipse-curve $-1 12.5 50 12.50000000000009948 0 -1 0 7.5 0 0 1 I I #
coedge $-1 $429 $428 $630 $660 forward $430 $-1 #
edge $-1 $661 10 $431 25 $429 $586 forward 7 unknown #
face $-1 $627 $430 $2 $-1 $189 forward single #
point $-1 5 50 12.5 #
edge $-1 $439 3.491481338843136511e-15 $637 1.570796326794898556 $432 $662 forward 7 unknown #
coedge $-1 $663 $630 $433 $552 reversed $415 $-1 #
edge $-1 $637 -1.570796326794894782 $553 3.491481338843136511e-15 $433 $664 forward 7 unknown #
vertex $-1 $434 $665 #
straight-curve $-1 -5 25 12.5 0 -1 -3.491481338843129805e-15 I I #
face $-1 $620 $636 $2 $-1 $530 reversed single #
straight-curve $-1 0 35 12.5 1 0 -3.491481338843129805e-15 I I #
point $-1 -20 35 12.5 #
coedge $-1 $642 $441 $535 $651 forward $418 $-1 #
vertex $-1 $651 $666 #
edge $-1 $638 20 $444 25 $531 $667 forward 7 unknown #
point $-1 -25 20 12.5 #
coedge $-1 $455 $447 $668 $669 forward $183 $-1 #
coedge $-1 $670 $668 $447 $564 reversed $671 $-1 #
edge $-1 $568 -1.047197551196598519 $672 0 $447 $673 forward 7 unknown #
coedge $-1 $623 $448 $450 $570 reversed $567 $-1 #
coedge $-1 $448 $623 $670 $674 forward $567 $-1 #
loop $-1 $-1 $566 $612 #
vertex $-1 $449 $675 #
straight-curve $-1 30 -20 -37.5 0 1 -0 I I #
edge $-1 $625 0 $452 25 $450 $676 forward 7 unknown #
face $-1 $523 $451 $2 $-1 $379 reversed single #
point $-1 30 -50 -37.5 #
coedge $-1 $604 $603 $455 $574 reversed $605 $-1 #
edge $-1 $677 23.66025403784440329 $575 30 $455 $678 forward 7 unknown #
vertex $-1 $574 $679 #
point $-1 -20 -50 -37.5 #
coedge $-1 $615 $460 $680 $681 forward $257 $-1 #
coedge $-1 $682 $683 $460 $579 reversed $684 $-1 #
edge $-1 $583 -5 $685 5 $460 $622 forward 7 unknown #
coedge $-1 $629 $461 $618 $686 reversed $522 $-1 #
coedge $-1 $461 $687 $682 $688 reversed $522 $-1 #
vertex $-1 $512 $689 #
vertex $-1 $688 $690 #
ellipse-curve $-1 25 27.5 12.49999999999990052 1 -0 -0 -2.618611004132350016e-14 0 -7.5 1 I I #
coedge $-1 $464 $691 $466 $587 forward $483 $-1 #
straight-curve $-1 5 25 12.5 -0 1 3.491481338843129805e-15 I I #
edge $-1 $649 1.570796326794892783 $468 3.141592653589776685 $585 $692 forward 7 unknown #
coedge $-1 $467 $532 $652 $693 reversed $309 $-1 #
edge $-1 $469 -3.141592653589783346 $539 -1.570796326794896336 $481 $694 forward 7 unknown #
point $-1 5 -5 12.49999999999990052 #
point $-1 -5 -5 12.49999999999990052 #
ellipse-curve $-1 -25 2.5 12.50000000000009948 -1 -0 -0 -2.618611004132350016e-14 0 -7.5 1 I I #
point $-1 -25 -5 12.5 #
coedge $-1 $695 $696 $477 $595 reversed $641 $-1 #
edge $-1 $616 -25 $597 -20 $477 $357 forward 7 unknown #
coedge $-1 $691 $478 $696 $697 reversed $483 $-1 #
vertex $-1 $595 $698 #
ellipse-curve $-1 12.5 -20 12.49999999999979927 -0 1 -0 7.5 0 0 1 I I #
point $-1 5 -20 12.5 #
coedge $-1 $516 $485 $699 $700 forward $137 $-1 #
coedge $-1 $701 $699 $485 $602 reversed $671 $-1 #
edge $-1 $606 2.094395102393194819 $702 6.283185307179586232 $485 $703 forward 7 unknown #
coedge $-1 $573 $486 $489 $608 reversed $605 $-1 #
coedge $-1 $486 $573 $701 $704 forward $605 $-1 #
loop $-1 $-1 $604 $497 #
vertex $-1 $487 $705 #
straight-curve $-1 20 -37.5 -12.5 0 1 0 I I #
edge $-1 $575 -25 $491 0 $489 $706 forward 7 unknown #
point $-1 20 -50 -12.5 #
point $-1 -15 -35 -12.5 #
straight-curve $-1 -20 -50 -12.5 -0 0 -1 I I #
face $-1 $707 $567 $2 $-1 $708 forward single #
plane-surface $-1 20 -40 -25 1 0 0 0 0 -1 forward_v I I I I #
point $-1 -15 -35 -37.5 #
coedge $-1 $504 $577 $695 $709 forward $257 $-1 #
vertex $-1 $595 $710 #
straight-curve $-1 25 -20 18.75 -0 -0 -1 I I #
coedge $-1 $509 $508 $580 $686 forward $510 $-1 #
edge $-1 $511 -25 $711 -10 $508 $712 forward 7 unknown #
face $-1 $713 $510 $2 $-1 $189 forward single #
point $-1 20 50 12.5 #
straight-curve $-1 25 15 12.5 0 -1 0 I I #
coedge $-1 $566 $565 $516 $624 reversed $567 $-1 #
edge $-1 $714 6.160254037844403285 $625 12.5 $516 $715 forward 7 unknown #
vertex $-1 $517 $716 #
loop $-1 $-1 $717 $627 #
face $-1 $163 $519 $2 $-1 $228 reversed single #
point $-1 50 2.5 4.999999999999830358 #
coedge $-1 $687 $580 $658 $718 reversed $522 $-1 #
coedge $-1 $551 $525 $546 $660 reversed $415 $-1 #
coedge $-1 $525 $719 $720 $721 reversed $415 $-1 #
coedge $-1 $658 $542 $525 $633 forward $544 $-1 #
edge $-1 $661 3.491481338843136511e-15 $722 1.570796326794898556 $632 $723 forward 7 unknown #
coedge $-1 $536 $527 $642 $724 reversed $636 $-1 #
coedge $-1 $527 $725 $663 $726 forward $636 $-1 #
loop $-1 $-1 $635 $555 #
vertex $-1 $550 $727 #
vertex $-1 $724 $728 #
ellipse-curve $-1 -12.5 27.5 12.5 -0.7071067811865475727 0.7071067811865475727 4.856819338861814154e-15 7.5 7.5 -2.618611004132350016e-14 0.7071067811865470176 I I #
face $-1 $729 $647 $2 $-1 $484 reversed single #
loop $-1 $-1 $730 $529 #
coedge $-1 $531 $558 $634 $724 forward $418 $-1 #
coedge $-1 $731 $732 $532 $644 forward $733 $-1 #
edge $-1 $734 -5 $648 5 $643 $735 forward 7 unknown #
coedge $-1 $736 $533 $717 $737 forward $647 $-1 #
coedge $-1 $533 $720 $731 $738 reversed $647 $-1 #
loop $-1 $-1 $720 $640 #
vertex $-1 $534 $739 #
vertex $-1 $534 $740 #
ellipse-curve $-1 12.5 2.5 12.5 -0.7071067811865475727 -0.7071067811865475727 4.186913223156732833e-17 -7.5 7.5 2.618611004132350016e-14 0.7071067811865470176 I I #
edge $-1 $559 -25 $653 -20 $558 $741 forward 7 unknown #
coedge $-1 $725 $536 $588 $693 forward $636 $-1 #
vertex $-1 $537 $742 #
ellipse-curve $-1 -12.5 2.5 12.5 -0.7071067811865475727 -0.7071067811865475727 4.186913223156732833e-17 -7.5 7.5 2.618611004132350016e-14 0.7071067811865470176 I I #
straight-curve $-1 0 -5 12.5 -1 -0 3.491481338843129805e-15 I I #
point $-1 -12.5 2.500000000000030198 5.000000000000039968 #
point $-1 -20 -5 12.49999999999990052 #
coedge $-1 $543 $632 $629 $718 forward $544 $-1 #
face $-1 $548 $544 $2 $-1 $484 reversed single #
edge $-1 $553 -5 $661 5 $546 $743 forward 7 unknown #
vertex $-1 $633 $744 #
ellipse-curve $-1 -12.5 27.5 12.5 -0.7071067811865475727 -0.7071067811865475727 1.674765289262691161e-16 -7.5 7.5 2.618611004132350016e-14 0.7071067811865470176 I I #
coedge $-1 $719 $551 $635 $726 reversed $415 $-1 #
ellipse-curve $-1 -12.5 27.5 12.5 0.7071067811865475727 -0.7071067811865475727 -4.856819338861814154e-15 7.5 7.5 -2.618611004132350016e-14 0.7071067811865470176 I I #
point $-1 -5 35 12.5 #
point $-1 -25 10 12.5 #
straight-curve $-1 0 20 12.5 -1 -0 3.491481338843129805e-15 I I #
coedge $-1 $563 $701 $562 $669 reversed $671 $-1 #
edge $-1 $672 0 $677 4.188790204786391413 $562 $673 forward 7 unknown #
coedge $-1 $699 $563 $566 $674 reversed $671 $-1 #
loop $-1 $-1 $670 $707 #
vertex $-1 $564 $745 #
ellipse-curve $-1 25 -35 -37.5 0 0 1 10 0 0 1 I I #
edge $-1 $714 -12.5 $568 12.5 $670 $746 forward 7 unknown #
point $-1 30 -43.66025403784440329 -37.5 #
straight-curve $-1 30 -50 -12.5 -0 0 -1 I I #
vertex $-1 $574 $747 #
straight-curve $-1 20 -20 -37.5 0 -1 0 I I #
point $-1 20 -50 -37.5 #
coedge $-1 $748 $749 $577 $681 reversed $626 $-1 #
edge $-1 $685 1.570796326794909881 $750 4.712388980384676351 $577 $751 forward 7 unknown #
coedge $-1 $752 $578 $581 $688 forward $684 $-1 #
coedge $-1 $578 $752 $748 $753 forward $684 $-1 #
loop $-1 $-1 $682 $713 #
vertex $-1 $579 $754 #
edge $-1 $711 20 $582 25 $618 $755 forward 7 unknown #
coedge $-1 $581 $629 $756 $757 reversed $522 $-1 #
edge $-1 $583 -25 $758 -20 $682 $759 forward 7 unknown #
point $-1 25 35 12.5 #
point $-1 25 20 12.5 #
coedge $-1 $585 $596 $760 $761 forward $483 $-1 #
ellipse-curve $-1 12.5 2.5 12.5 -0.7071067811865475727 0.7071067811865475727 4.982426735556514333e-15 7.5 7.5 -2.618611004132350016e-14 0.7071067811865470176 I I #
edge $-1 $539 -1.570796326794892783 $734 -9.771983062012076636e-15 $652 $762 forward 7 unknown #
ellipse-curve $-1 -12.5 2.5 12.5 0.7071067811865475727 0.7071067811865475727 -4.186913223156732833e-17 -7.5 7.5 2.618611004132350016e-14 0.7071067811865470176 I I #
coedge $-1 $730 $594 $615 $709 reversed $641 $-1 #
coedge $-1 $594 $730 $596 $697 forward $641 $-1 #
edge $-1 $763 30 $597 45 $696 $712 forward 7 unknown #
point $-1 20 -20 12.5 #
coedge $-1 $601 $670 $600 $700 reversed $671 $-1 #
edge $-1 $702 0 $714 1.047197551196598519 $600 $703 forward 7 unknown #
coedge $-1 $668 $601 $604 $704 reversed $671 $-1 #
vertex $-1 $602 $764 #
ellipse-curve $-1 25 -35 -12.5 -0 -0 -1 10 0 0 1 I I #
edge $-1 $677 -12.5 $606 12.5 $701 $765 forward 7 unknown #
point $-1 20 -43.66025403784440329 -12.5 #
straight-curve $-1 20 -50 -12.5 -0 0 1 I I #
face $-1 $571 $671 $2 $-1 $766 reversed single #
plane-surface $-1 30 -40 -25 -1 0 0 0 0 1 forward_v I I I I #
edge $-1 $750 20 $616 35 $615 $622 forward 7 unknown #
point $-1 25 -20 12.5 #
vertex $-1 $619 $767 #
straight-curve $-1 20 25 12.5 0 -1 -3.491481338843129805e-15 I I #
face $-1 $659 $684 $2 $-1 $189 forward single #
vertex $-1 $624 $768 #
straight-curve $-1 30 -37.5 -12.5 0 -1 0 I I #
point $-1 30 -50 -12.5 #
coedge $-1 $760 $748 $645 $737 reversed $626 $-1 #
edge $-1 $722 -1.570796326794894782 $711 3.491481338843136511e-15 $658 $769 forward 7 unknown #
coedge $-1 $631 $663 $770 $771 reversed $415 $-1 #
coedge $-1 $646 $756 $631 $721 forward $647 $-1 #
edge $-1 $722 1.570796326794894782 $772 3.141592653589789563 $720 $773 forward 7 unknown #
vertex $-1 $633 $774 #
ellipse-curve $-1 12.5 27.5 12.5 -0.7071067811865475727 -0.7071067811865475727 1.674765289262691161e-16 -7.5 7.5 2.618611004132350016e-14 0.7071067811865470176 I I #
edge $-1 $653 -15 $638 -5 $642 $440 forward 7 unknown #
coedge $-1 $635 $652 $732 $775 reversed $636 $-1 #
edge $-1 $776 -3.141592653589796669 $637 -1.570796326794898556 $635 $777 forward 7 unknown #
point $-1 -12.5 27.5 5.000000000000039968 #
point $-1 -20 20 12.5 #
face $-1 $195 $733 $2 $-1 $189 forward single #
coedge $-1 $696 $695 $749 $778 forward $641 $-1 #
coedge $-1 $770 $643 $646 $738 forward $733 $-1 #
coedge $-1 $643 $770 $725 $775 forward $733 $-1 #
loop $-1 $-1 $770 $729 #
vertex $-1 $775 $779 #
straight-curve $-1 0 10 12.5 1 0 -3.491481338843129805e-15 I I #
coedge $-1 $756 $645 $752 $780 reversed $647 $-1 #
edge $-1 $649 -1.570796326794892783 $781 -9.771983062012076636e-15 $645 $782 forward 7 unknown #
edge $-1 $648 -15 $772 -5 $731 $586 forward 7 unknown #
point $-1 5 10 12.49999999999990052 #
point $-1 12.5 2.500000000000030198 4.999999999999960032 #
straight-curve $-1 0 10 12.5 1 0 -3.491481338843129805e-15 I I #
point $-1 -20 10 12.49999999999990052 #
straight-curve $-1 0 35 12.5 1 0 -3.491481338843129805e-15 I I #
point $-1 5 35 12.5 #
point $-1 35 -35 -37.5 #
straight-curve $-1 30 -43.66025403784440329 -25 -0 -0 -1 I I #
point $-1 20 -43.66025403784440329 -37.5 #
coedge $-1 $717 $680 $683 $753 reversed $626 $-1 #
coedge $-1 $680 $760 $730 $778 reversed $626 $-1 #
vertex $-1 $778 $783 #
ellipse-curve $-1 25 2.5 12.49999999999990052 1 -0 -0 -2.618611004132350016e-14 0 -7.5 1 I I #
coedge $-1 $683 $682 $736 $780 forward $684 $-1 #
edge $-1 $781 20 $685 25 $683 $784 forward 7 unknown #
point $-1 25 10 12.5 #
straight-curve $-1 0 35 12.5 1 0 -3.491481338843129805e-15 I I #
coedge $-1 $720 $736 $687 $757 forward $647 $-1 #
edge $-1 $758 -3.141592653589796669 $722 -1.570796326794898556 $756 $785 forward 7 unknown #
vertex $-1 $757 $786 #
straight-curve $-1 0 20 12.5 -1 -0 3.491481338843129805e-15 I I #
coedge $-1 $749 $717 $691 $761 reversed $626 $-1 #
edge $-1 $763 -3.141592653589783346 $649 -1.570796326794896336 $691 $787 forward 7 unknown #
ellipse-curve $-1 -12.5 2.5 12.5 0.7071067811865475727 -0.7071067811865475727 -4.982426735556514333e-15 7.5 7.5 -2.618611004132350016e-14 0.7071067811865470176 I I #
vertex $-1 $761 $788 #
point $-1 35 -35 -12.5 #
straight-curve $-1 20 -43.66025403784440329 -25 0 0 1 I I #
cone-surface $-1 25 -35 -25 0 0 1 10 0 0 1 I I 0 1 10 forward I I I I #
point $-1 20 35 12.5 #
point $-1 30 -43.66025403784440329 -12.5 #
ellipse-curve $-1 12.5 27.5 12.5 0.7071067811865475727 -0.7071067811865475727 -4.856819338861814154e-15 7.5 7.5 -2.618611004132350016e-14 0.7071067811865470176 I I #
coedge $-1 $732 $731 $719 $771 forward $733 $-1 #
edge $-1 $772 -5 $776 5 $770 $789 forward 7 unknown #
vertex $-1 $738 $790 #
ellipse-curve $-1 12.5 27.5 12.5 -0.7071067811865475727 0.7071067811865475727 4.856819338861814154e-15 7.5 7.5 -2.618611004132350016e-14 0.7071067811865470176 I I #
point $-1 12.5 27.5 4.999999999999960032 #
edge $-1 $776 5 $734 15 $732 $554 forward 7 unknown #
vertex $-1 $771 $791 #
ellipse-curve $-1 -12.5 27.5 12.5 0.7071067811865475727 0.7071067811865475727 -1.674765289262691161e-16 -7.5 7.5 2.618611004132350016e-14 0.7071067811865470176 I I #
edge $-1 $750 -25 $763 -20 $730 $792 forward 7 unknown #
point $-1 -5 10 12.49999999999990052 #
edge $-1 $758 5 $781 15 $752 $712 forward 7 unknown #
vertex $-1 $780 $793 #
ellipse-curve $-1 12.5 2.5 12.5 0.7071067811865475727 -0.7071067811865475727 -4.982426735556514333e-15 7.5 7.5 -2.618611004132350016e-14 0.7071067811865470176 I I #
point $-1 25 -5 12.5 #
straight-curve $-1 0 10 12.5 1 0 -3.491481338843129805e-15 I I #
ellipse-curve $-1 12.5 27.5 12.5 0.7071067811865475727 0.7071067811865475727 -1.674765289262691161e-16 -7.5 7.5 2.618611004132350016e-14 0.7071067811865470176 I I #
point $-1 20 20 12.5 #
ellipse-curve $-1 12.5 2.5 12.5 0.7071067811865475727 0.7071067811865475727 -4.186913223156732833e-17 -7.5 7.5 2.618611004132350016e-14 0.7071067811865470176 I I #
point $-1 20 -5 12.49999999999990052 #
straight-curve $-1 0 20 12.5 -1 -0 3.491481338843129805e-15 I I #
point $-1 5 20 12.5 #
point $-1 -5 20 12.5 #
straight-curve $-1 0 -5 12.5 -1 -0 3.491481338843129805e-15 I I #
point $-1 20 10 12.49999999999990052 #
End-of-ACIS-data 