600 0 1 0           
110 GICL Pro/E ACIS Translator - Source: f:/data5/repository/PTC/V18/pliers_18/gl_top_hole/ptc2_jawbot.prt.1 - 6 0 13 ACIS 6.0.3 NT 24 Thu Apr 04 13:31:22 2002 
1 9.9999999999999995e-007 1e-010 
body $-1 $1 $-1 $-1 #
lump $-1 $-1 $2 $0 #
shell $-1 $-1 $-1 $3 $-1 $1 #
face $-1 $4 $5 $2 $-1 $6 reversed single #
face $-1 $7 $8 $2 $-1 $9 reversed single #
loop $-1 $10 $11 $3 #
plane-surface $-1 0 0 -2.1999999999999997 0 0 1 1 0 0 forward_v I I I I #
face $-1 $12 $13 $2 $-1 $14 reversed single #
loop $-1 $-1 $15 $4 #
cone-surface $-1 0 0 -2.1999999999999997 0 0 1 2 0 0 1 I I 0 1 2 forward I I I I #
loop $-1 $16 $17 $3 #
coedge $-1 $18 $18 $19 $20 reversed $5 $-1 #
face $-1 $21 $22 $2 $-1 $23 forward single #
loop $-1 $-1 $24 $7 #
cone-surface $-1 0 0 -2.1999999999999997 0 0 1 2 0 0 1 I I 0 1 2 forward I I I I #
coedge $-1 $25 $19 $26 $27 forward $8 $-1 #
loop $-1 $-1 $28 $3 #
coedge $-1 $29 $29 $30 $31 reversed $10 $-1 #
coedge $-1 $11 $11 $32 $33 reversed $5 $-1 #
coedge $-1 $15 $34 $11 $20 forward $8 $-1 #
edge $-1 $35 0 $36 3.1415926535897931 $11 $37 forward 7 unknown #
face $-1 $38 $39 $2 $-1 $40 reversed single #
loop $-1 $41 $42 $12 #
plane-surface $-1 0 0 2.1999999999999997 0 0 1 1 0 0 forward_v I I I I #
coedge $-1 $43 $32 $34 $44 forward $13 $-1 #
coedge $-1 $34 $15 $42 $45 reversed $8 $-1 #
coedge $-1 $32 $43 $15 $27 reversed $13 $-1 #
edge $-1 $36 0 $46 4.3999999999999995 $26 $47 forward 7 unknown #
coedge $-1 $48 $49 $50 $51 forward $16 $-1 #
coedge $-1 $17 $17 $52 $53 reversed $10 $-1 #
coedge $-1 $54 $55 $17 $31 forward $39 $-1 #
edge $-1 $56 0 $57 3.1415926535897931 $17 $58 forward 7 unknown #
coedge $-1 $24 $26 $18 $33 forward $13 $-1 #
edge $-1 $36 0 $35 3.1415926535897931 $18 $59 forward 7 unknown #
coedge $-1 $19 $25 $24 $44 reversed $8 $-1 #
vertex $-1 $33 $60 #
vertex $-1 $33 $61 #
ellipse-curve $-1 0 0 -2.1999999999999997 0 0 -1 -2 0 0 1 I I #
face $-1 $62 $63 $2 $-1 $64 reversed single #
loop $-1 $-1 $54 $21 #
cone-surface $-1 0 -29 -2.1999999999999997 0 0 1 2 0 0 1 I I 0 1 2 forward I I I I #
loop $-1 $65 $66 $12 #
coedge $-1 $67 $67 $25 $45 forward $22 $-1 #
coedge $-1 $26 $24 $67 $68 reversed $13 $-1 #
edge $-1 $35 0 $69 4.3999999999999995 $24 $70 forward 7 unknown #
edge $-1 $69 0 $46 3.1415926535897931 $42 $71 forward 7 unknown #
vertex $-1 $68 $72 #
straight-curve $-1 2 0 -2.1999999999999997 0 -1.1132785034748886e-016 1 I I #
coedge $-1 $73 $28 $74 $75 forward $16 $-1 #
coedge $-1 $28 $76 $77 $78 forward $16 $-1 #
coedge $-1 $79 $80 $28 $51 reversed $81 $-1 #
edge $-1 $82 -2.0608039884341372e-014 $83 2.608456592460485 $28 $84 forward 7 unknown #
coedge $-1 $85 $86 $29 $53 forward $63 $-1 #
edge $-1 $57 0 $56 3.1415926535897931 $29 $87 forward 7 unknown #
coedge $-1 $88 $30 $86 $89 forward $39 $-1 #
coedge $-1 $30 $88 $85 $90 reversed $39 $-1 #
vertex $-1 $53 $91 #
vertex $-1 $53 $92 #
ellipse-curve $-1 0 -29 -2.1999999999999997 0 0 -1 -2 0 0 1 I I #
ellipse-curve $-1 0 0 -2.1999999999999997 0 0 -1 2 0 0 1 I I #
point $-1 -2 0 -2.1999999999999997 #
point $-1 2 0 -2.1999999999999997 #
face $-1 $93 $94 $2 $-1 $95 forward single #
loop $-1 $-1 $85 $38 #
cone-surface $-1 0 -29 -2.1999999999999997 0 0 1 2 0 0 1 I I 0 1 2 forward I I I I #
loop $-1 $-1 $96 $12 #
coedge $-1 $97 $97 $88 $98 forward $41 $-1 #
coedge $-1 $42 $42 $43 $68 forward $22 $-1 #
edge $-1 $46 0 $69 3.1415926535897931 $67 $99 forward 7 unknown #
vertex $-1 $68 $100 #
straight-curve $-1 -2 2.4492127076447545e-016 -2.1999999999999997 0 0 1 I I #
ellipse-curve $-1 0 -1.1102230246251565e-016 2.1999999999999997 0 0 -1 -2 1.1102230246251565e-016 0 1 I I #
point $-1 2 0 2.1999999999999997 #
coedge $-1 $101 $48 $102 $103 reversed $16 $-1 #
coedge $-1 $104 $105 $48 $75 reversed $106 $-1 #
edge $-1 $83 -2.3793265965345004e-014 $107 9.2026161107928672 $48 $108 forward 7 unknown #
coedge $-1 $49 $109 $110 $111 forward $16 $-1 #
coedge $-1 $112 $113 $49 $78 reversed $114 $-1 #
edge $-1 $115 0 $82 0.17252477298728872 $49 $116 forward 7 unknown #
coedge $-1 $117 $50 $113 $118 reversed $81 $-1 #
coedge $-1 $50 $117 $119 $120 forward $81 $-1 #
loop $-1 $-1 $80 $121 #
vertex $-1 $78 $122 #
vertex $-1 $75 $123 #
ellipse-curve $-1 28.130169561080471 -27.707840253854108 -2.1999999999999997 0 0 1 0.023209354971037044 -1.8982223510515617 0 1 I I #
coedge $-1 $124 $52 $55 $90 forward $63 $-1 #
coedge $-1 $52 $124 $54 $89 reversed $63 $-1 #
ellipse-curve $-1 0 -29 -2.1999999999999997 0 0 -1 2 0 0 1 I I #
coedge $-1 $55 $54 $66 $98 reversed $39 $-1 #
edge $-1 $57 0 $125 4.3999999999999995 $86 $126 forward 7 unknown #
edge $-1 $56 0 $127 4.3999999999999995 $85 $128 forward 7 unknown #
point $-1 -2 -29 -2.1999999999999997 #
point $-1 2 -29 -2.1999999999999997 #
face $-1 $129 $130 $2 $-1 $131 reversed single #
loop $-1 $-1 $132 $62 #
plane-surface $-1 35.799999999999997 -26 -2.1999999999999997 0.49766945737007984 0.86736676855928152 0 -0.86736676855928152 0.49766945737007984 0 forward_v I I I I #
coedge $-1 $133 $134 $135 $136 forward $65 $-1 #
coedge $-1 $66 $66 $124 $137 forward $41 $-1 #
edge $-1 $127 0 $125 3.1415926535897967 $66 $138 forward 7 unknown #
ellipse-curve $-1 0 -1.1102230246251565e-016 2.1999999999999997 0 0 -1 2 1.1102230246251565e-016 0 1 I I #
point $-1 -2 0 2.1999999999999997 #
coedge $-1 $139 $73 $140 $141 reversed $16 $-1 #
coedge $-1 $142 $143 $73 $103 forward $144 $-1 #
edge $-1 $145 0 $107 0.97590121454695389 $73 $146 forward 7 unknown #
coedge $-1 $147 $74 $148 $149 forward $106 $-1 #
coedge $-1 $74 $150 $142 $151 forward $106 $-1 #
loop $-1 $-1 $147 $152 #
vertex $-1 $103 $153 #
straight-curve $-1 29.074927459733289 -26.061262201916389 -2.1999999999999997 0.8673667685592813 -0.49766945737008023 0 I I #
coedge $-1 $76 $154 $155 $156 forward $16 $-1 #
coedge $-1 $157 $158 $76 $111 reversed $159 $-1 #
edge $-1 $160 -1.7714361833355295e-016 $115 0.19794287329256871 $76 $161 forward 7 unknown #
coedge $-1 $162 $77 $158 $163 reversed $114 $-1 #
coedge $-1 $77 $162 $79 $118 forward $114 $-1 #
loop $-1 $-1 $113 $164 #
vertex $-1 $78 $165 #
ellipse-curve $-1 26.967459274893223 67.386687611823362 -2.1999999999999997 0 0 1 -15.482449326617969 -95.75642935515495 0 1 I I #
coedge $-1 $80 $79 $166 $167 forward $81 $-1 #
edge $-1 $168 -1.1135133748044793e-014 $82 1.5707963267948921 $113 $169 forward 7 unknown #
coedge $-1 $170 $148 $80 $120 reversed $171 $-1 #
edge $-1 $172 -4.8495828719174539e-015 $83 1.5707963267948917 $119 $173 forward 7 unknown #
face $-1 $174 $81 $2 $-1 $175 reversed single #
point $-1 28.153378916051469 -29.606062604905674 -2.1999999999999997 #
point $-1 29.074927459733267 -26.061262201916378 -2.1999999999999997 #
coedge $-1 $86 $85 $97 $137 reversed $63 $-1 #
vertex $-1 $137 $176 #
straight-curve $-1 2 -29 -2.1999999999999997 0 0 1 I I #
vertex $-1 $137 $177 #
straight-curve $-1 -2 -29 -2.1999999999999997 0 0 1 I I #
face $-1 $178 $144 $2 $-1 $179 forward single #
loop $-1 $-1 $180 $93 #
plane-surface $-1 0 0 -6 0 0 1 -1 0 0 forward_v I I I I #
coedge $-1 $181 $182 $183 $184 forward $94 $-1 #
coedge $-1 $185 $96 $186 $187 forward $65 $-1 #
coedge $-1 $96 $188 $189 $190 reversed $65 $-1 #
coedge $-1 $191 $192 $96 $136 reversed $94 $-1 #
edge $-1 $193 0 $194 11.383811747264149 $96 $195 forward 7 unknown #
edge $-1 $125 0 $127 3.1415926535897967 $97 $196 forward 7 unknown #
ellipse-curve $-1 0 -28.999999999999996 2.1999999999999997 0 0 -1 -2 -3.5527136788005009e-015 0 1 I I #
coedge $-1 $197 $101 $198 $199 reversed $16 $-1 #
coedge $-1 $200 $201 $101 $141 forward $202 $-1 #
edge $-1 $203 0 $145 0.23428382410587989 $101 $204 forward 7 unknown #
coedge $-1 $205 $102 $105 $151 reversed $144 $-1 #
coedge $-1 $102 $206 $200 $207 reversed $144 $-1 #
loop $-1 $-1 $208 $129 #
vertex $-1 $141 $209 #
ellipse-curve $-1 34.107923844941723 -28.949047013101563 -2.1999999999999997 0 0 1 0.25132069915298416 -3.3906987342105666 0 1 I I #
coedge $-1 $150 $104 $210 $211 reversed $106 $-1 #
coedge $-1 $119 $212 $104 $149 reversed $171 $-1 #
edge $-1 $83 0 $213 12.413438011552838 $104 $214 forward 7 unknown #
coedge $-1 $105 $147 $215 $216 forward $106 $-1 #
edge $-1 $217 0 $107 3.8000000000000003 $142 $218 forward 7 unknown #
face $-1 $219 $106 $2 $-1 $220 forward single #
point $-1 37.056970858043279 -30.641123168159833 -2.1999999999999997 #
coedge $-1 $109 $221 $222 $223 forward $16 $-1 #
coedge $-1 $224 $225 $109 $156 reversed $226 $-1 #
edge $-1 $227 3.094746681142625e-015 $160 1.6891753033998436 $109 $228 forward 7 unknown #
coedge $-1 $229 $110 $225 $230 reversed $159 $-1 #
coedge $-1 $110 $229 $112 $163 forward $159 $-1 #
loop $-1 $-1 $158 $231 #
vertex $-1 $111 $232 #
ellipse-curve $-1 8.4523652348140335 -47.126155740732457 -2.1999999999999997 0 0 -1 -0.71507431465232596 18.986539145523697 0 1 I I #
coedge $-1 $113 $112 $233 $234 forward $114 $-1 #
edge $-1 $235 0 $115 1.5707963267948766 $158 $236 forward 7 unknown #
face $-1 $121 $114 $2 $-1 $237 reversed single #
point $-1 11.485009948275254 -28.369741743331595 -2.1999999999999997 #
coedge $-1 $233 $238 $117 $167 reversed $239 $-1 #
edge $-1 $168 -4.3352057531877937e-014 $172 2.6084565924604899 $166 $240 forward 7 unknown #
vertex $-1 $234 $241 #
ellipse-curve $-1 28.141152940369498 -28.606137344939391 -2.2000000000000011 0.99992525996627524 0.012225975682011505 3.2015468730785118e-014 -3.1974423109204508e-014 -3.5527136788005009e-015 1.0000000000000013 1 I I #
coedge $-1 $242 $119 $238 $243 forward $171 $-1 #
loop $-1 $-1 $242 $244 #
vertex $-1 $167 $245 #
ellipse-curve $-1 28.577258002363184 -26.928628970475657 -2.1999999999999997 -0.86736676855928141 0.49766945737008011 1.3134286944776409e-015 3.5527136788005009e-015 3.5527136788005009e-015 1 1 I I #
face $-1 $-1 $239 $2 $-1 $246 reversed single #
torus-surface $-1 28.130169561080468 -27.707840253854105 -2.1999999999999997 0 0 1 0.8983642348585007 1 1 0 0 forward_v I I I I #
point $-1 2 -29 2.1999999999999997 #
point $-1 -2 -29 2.1999999999999997 #
face $-1 $247 $248 $2 $-1 $249 forward single #
cone-surface $-1 34.107923844941723 -28.949047013101563 -2.1999999999999997 0 0 1 3.3999999999999999 0 0 1 I I 0 1 3.3999999999999999 forward I I I I #
coedge $-1 $215 $250 $205 $251 reversed $130 $-1 #
coedge $-1 $252 $132 $253 $254 forward $94 $-1 #
coedge $-1 $132 $255 $256 $257 reversed $94 $-1 #
coedge $-1 $250 $258 $132 $184 reversed $130 $-1 #
edge $-1 $259 1.7680770887199058e-015 $260 14.216054122345739 $132 $261 forward 7 unknown #
coedge $-1 $262 $133 $263 $264 forward $65 $-1 #
coedge $-1 $265 $266 $133 $187 reversed $267 $-1 #
edge $-1 $194 0 $268 0.72071744902055035 $133 $269 forward 7 unknown #
coedge $-1 $134 $270 $271 $272 reversed $65 $-1 #
coedge $-1 $273 $274 $134 $190 forward $275 $-1 #
edge $-1 $193 0 $276 3.399999999999999 $134 $277 forward 7 unknown #
coedge $-1 $255 $135 $274 $278 forward $94 $-1 #
coedge $-1 $135 $252 $265 $279 forward $94 $-1 #
vertex $-1 $190 $280 #
vertex $-1 $187 $281 #
straight-curve $-1 20 -16.934426229508194 2.1999999999999997 -0.86736676855928152 0.49766945737007989 0 I I #
ellipse-curve $-1 0 -29.000000000000004 2.1999999999999997 0 0 -1 2 3.5527136788005009e-015 0 1 I I #
coedge $-1 $282 $139 $283 $284 reversed $16 $-1 #
coedge $-1 $285 $286 $139 $199 forward $287 $-1 #
edge $-1 $288 0 $203 0.59663080570478699 $139 $289 forward 7 unknown #
coedge $-1 $290 $140 $143 $207 forward $202 $-1 #
coedge $-1 $140 $290 $285 $291 reversed $202 $-1 #
loop $-1 $-1 $200 $292 #
vertex $-1 $199 $293 #
ellipse-curve $-1 26.967459274893216 67.386687611822978 -2.1999999999999997 0 0 1 -15.961287965585376 -98.717968407375864 0 1 I I #
coedge $-1 $294 $142 $180 $251 forward $144 $-1 #
coedge $-1 $143 $295 $296 $297 reversed $144 $-1 #
edge $-1 $145 -3.4423021318735064e-029 $298 4.3999999999999995 $200 $299 forward 7 unknown #
coedge $-1 $295 $294 $300 $301 reversed $144 $-1 #
point $-1 34.359244544094707 -32.339745747312129 -2.1999999999999997 #
coedge $-1 $302 $303 $147 $211 forward $304 $-1 #
edge $-1 $305 0 $213 3.8000000000000003 $210 $306 forward 7 unknown #
coedge $-1 $148 $242 $307 $308 reversed $171 $-1 #
vertex $-1 $308 $309 #
straight-curve $-1 29.074927459733267 -26.061262201916378 -2.1999999999999997 -0.8673667685592813 0.49766945737008017 0 I I #
coedge $-1 $258 $180 $150 $216 reversed $130 $-1 #
edge $-1 $305 0 $217 21.61605412234573 $215 $310 forward 7 unknown #
vertex $-1 $251 $311 #
straight-curve $-1 37.056970858043279 -30.641123168159833 -6 0 0 1 I I #
face $-1 $244 $304 $2 $-1 $312 forward single #
plane-surface $-1 18.30792384494173 -19.88347324260975 -6 -0.49766945737008017 -0.86736676855928141 0 0.86736676855928141 -0.49766945737008017 0 forward_v I I I I #
coedge $-1 $154 $313 $314 $315 forward $16 $-1 #
coedge $-1 $316 $317 $154 $223 reversed $318 $-1 #
edge $-1 $319 1.0351298960084686e-016 $227 0.21364498103331075 $154 $320 forward 7 unknown #
coedge $-1 $321 $155 $317 $322 reversed $226 $-1 #
coedge $-1 $155 $321 $157 $230 forward $226 $-1 #
loop $-1 $-1 $225 $323 #
vertex $-1 $156 $324 #
ellipse-curve $-1 7.4362069982028558 -20.145284323409051 -2.1999999999999997 0 0 1 -7.9739418587135198 0.64517535124675618 0 1 I I #
coedge $-1 $158 $157 $325 $326 forward $159 $-1 #
edge $-1 $327 -3.5435112958123023e-014 $160 1.5707963267948934 $225 $328 forward 7 unknown #
face $-1 $164 $159 $2 $-1 $329 reversed single #
point $-1 7.7372909201617031 -28.139616595208732 -2.1999999999999997 #
coedge $-1 $325 $166 $162 $234 reversed $239 $-1 #
edge $-1 $235 0 $168 0.17252477298729341 $233 $330 forward 7 unknown #
vertex $-1 $234 $331 #
ellipse-curve $-1 11.644622827931176 -27.382562059257822 -2.2000000000000237 0.98717968407374823 -0.15961287965591883 1.5359105848624427e-013 -1.5099033134902129e-013 2.8421709430404007e-014 1.000000000000024 1 I I #
torus-surface $-1 26.967459274893216 67.386687611822978 -2.1999999999999997 0 0 1 96 1 1 0 0 forward_v I I I I #
coedge $-1 $166 $332 $170 $243 reversed $239 $-1 #
loop $-1 $-1 $325 $174 #
ellipse-curve $-1 28.130169561080471 -27.707840253854105 -1.2 -3.0218388430937196e-018 2.4714698191290061e-016 1 0.010983379288994399 -0.89829709108528988 2.2204460492503131e-016 1 I I #
point $-1 28.141152940369427 -28.606137344939384 -1.1999999999999997 #
coedge $-1 $212 $170 $333 $334 forward $171 $-1 #
edge $-1 $172 0 $335 23.797249758816989 $238 $336 forward 7 unknown #
face $-1 $337 $171 $2 $-1 $338 reversed single #
point $-1 28.577258002363184 -26.928628970475657 -1.1999999999999997 #
plane-surface $-1 0 0 -1.2 0 0 1 1 0 0 forward_v I I I I #
face $-1 $339 $275 $2 $-1 $340 forward single #
loop $-1 $-1 $341 $178 #
plane-surface $-1 0 0 6 0 0 1 -1 0 0 forward_v I I I I #
coedge $-1 $180 $183 $342 $343 reversed $130 $-1 #
edge $-1 $217 0 $344 1.5707963267949143 $205 $345 forward 7 unknown #
coedge $-1 $192 $181 $346 $347 forward $94 $-1 #
coedge $-1 $303 $302 $181 $254 reversed $304 $-1 #
edge $-1 $260 0 $348 3.8000000000000003 $181 $349 forward 7 unknown #
coedge $-1 $182 $191 $341 $350 reversed $94 $-1 #
coedge $-1 $351 $342 $182 $257 forward $352 $-1 #
edge $-1 $259 0 $353 12 $256 $354 forward 7 unknown #
coedge $-1 $183 $215 $303 $355 reversed $130 $-1 #
vertex $-1 $257 $356 #
vertex $-1 $254 $357 #
straight-curve $-1 32.330532925762874 -24.009322170519685 -6 -0.86736676855928152 0.49766945737007995 0 I I #
coedge $-1 $358 $185 $359 $360 forward $65 $-1 #
coedge $-1 $361 $362 $185 $264 reversed $363 $-1 #
edge $-1 $268 7.5852752200050512e-015 $364 8.7899416620356412 $185 $365 forward 7 unknown #
coedge $-1 $366 $186 $192 $279 reversed $267 $-1 #
coedge $-1 $186 $366 $361 $367 forward $267 $-1 #
loop $-1 $-1 $266 $368 #
vertex $-1 $264 $369 #
ellipse-curve $-1 14.00788175837493 -4.5035900196817078 2.1999999999999997 0 0 -1 -3.881821767486624 -6.7654607947623973 0 1 I I #
coedge $-1 $188 $370 $371 $372 reversed $65 $-1 #
coedge $-1 $373 $374 $188 $272 forward $375 $-1 #
edge $-1 $276 3.0815057831975481e-015 $376 11.383811747264167 $188 $377 forward 7 unknown #
coedge $-1 $378 $189 $379 $380 forward $275 $-1 #
coedge $-1 $189 $378 $191 $278 reversed $275 $-1 #
loop $-1 $-1 $273 $247 #
vertex $-1 $190 $381 #
straight-curve $-1 20 -16.934426229508194 2.1999999999999993 -0.49766945737007978 -0.86736676855928152 0 I I #
edge $-1 $193 8.8817841970012523e-016 $382 3.8000000000000012 $191 $383 forward 7 unknown #
edge $-1 $384 0 $194 4.3999999999999995 $265 $385 forward 7 unknown #
point $-1 20 -16.934426229508194 2.1999999999999997 #
point $-1 10.126059990888306 -11.269050814444105 2.1999999999999997 #
coedge $-1 $386 $197 $387 $388 reversed $16 $-1 #
coedge $-1 $389 $390 $197 $284 forward $391 $-1 #
edge $-1 $392 0 $288 2.2356755924555429 $197 $393 forward 7 unknown #
coedge $-1 $394 $198 $201 $291 forward $287 $-1 #
coedge $-1 $198 $394 $389 $395 reversed $287 $-1 #
loop $-1 $-1 $285 $396 #
vertex $-1 $284 $397 #
ellipse-curve $-1 8.4523652348139802 -47.126155740733005 -2.1999999999999997 0 0 -1 -6.7618921878511822 14.500924592586401 0 1 I I #
coedge $-1 $201 $200 $398 $399 reversed $202 $-1 #
edge $-1 $203 1.0470335651115249e-028 $400 4.3999999999999995 $285 $401 forward 7 unknown #
face $-1 $396 $202 $2 $-1 $402 forward single #
point $-1 11.00617130930784 -31.331280795552885 -2.1999999999999997 #
coedge $-1 $208 $205 $403 $404 forward $144 $-1 #
coedge $-1 $206 $208 $405 $406 reversed $144 $-1 #
coedge $-1 $407 $398 $206 $297 forward $65 $-1 #
edge $-1 $298 0 $408 0.97590121454698409 $296 $409 forward 7 unknown #
vertex $-1 $297 $410 #
straight-curve $-1 34.359244544094565 -32.339745747312136 -2.1999999999999997 0 -4.8446095620006835e-015 1 I I #
coedge $-1 $411 $412 $208 $301 forward $248 $-1 #
edge $-1 $413 0 $414 1.5707963267949168 $208 $415 forward 7 unknown #
coedge $-1 $253 $210 $416 $417 reversed $304 $-1 #
coedge $-1 $210 $253 $258 $355 forward $304 $-1 #
loop $-1 $-1 $253 $219 #
vertex $-1 $355 $418 #
straight-curve $-1 18.30792384494173 -19.88347324260975 -6 0 0 1 I I #
coedge $-1 $313 $416 $212 $308 forward $16 $-1 #
edge $-1 $213 0 $419 11.383811747264149 $307 $420 forward 7 unknown #
point $-1 18.30792384494173 -19.88347324260975 -2.1999999999999997 #
straight-curve $-1 18.30792384494173 -19.88347324260975 -6 0.86736676855928141 -0.49766945737008017 0 I I #
point $-1 37.056970858043279 -30.641123168159833 -6 #
plane-surface $-1 20 -16.934426229508194 -6 -0.86736676855928163 0.49766945737007984 0 -0.49766945737007978 -0.86736676855928152 0 forward_v I I I I #
coedge $-1 $221 $307 $421 $422 forward $16 $-1 #
coedge $-1 $423 $424 $221 $315 reversed $425 $-1 #
edge $-1 $426 2.4645698450861304e-016 $319 3.1575321377792118 $221 $427 forward 7 unknown #
coedge $-1 $428 $222 $424 $429 reversed $318 $-1 #
coedge $-1 $222 $428 $224 $322 forward $318 $-1 #
loop $-1 $-1 $317 $430 #
vertex $-1 $223 $431 #
ellipse-curve $-1 -62.335784265540511 -14.500000000000007 -2.1999999999999997 0 0 -1 61.453185392140242 8.2162038168030271 0 1 I I #
coedge $-1 $225 $224 $432 $433 forward $226 $-1 #
edge $-1 $434 -1.505370358110216e-014 $227 1.570796326794897 $317 $435 forward 7 unknown #
face $-1 $231 $226 $2 $-1 $436 reversed single #
point $-1 -0.53773486051066444 -19.50010897216232 -2.1999999999999997 #
coedge $-1 $432 $233 $229 $326 reversed $239 $-1 #
edge $-1 $327 1.554312234475243e-016 $235 0.19794287329256013 $325 $437 forward 7 unknown #
vertex $-1 $433 $438 #
ellipse-curve $-1 7.6996554299168496 -27.140325061233799 -2.2000000000000028 0.9992915339749604 0.037635490244857392 -1.7750983509311831e-015 1.7763568394002505e-015 0 1.0000000000000031 1 I I #
torus-surface $-1 8.4523652348139802 -47.126155740733005 -2.1999999999999997 0 0 1 20 1 1 0 0 forward_v I I I I #
ellipse-curve $-1 26.967459274893152 67.386687611821259 -1.2 3.6917894587637792e-019 2.2833116972935286e-018 1 -15.322836446962127 -94.769249671079052 2.2204460492503131e-016 1 I I #
point $-1 11.644622827931025 -27.382562059257793 -1.1999999999999997 #
coedge $-1 $238 $439 $440 $441 reversed $239 $-1 #
coedge $-1 $440 $421 $242 $334 reversed $442 $-1 #
edge $-1 $335 8.5878030023538307e-015 $419 1.5707963267949014 $242 $443 forward 7 unknown #
vertex $-1 $243 $444 #
straight-curve $-1 28.577258002363184 -26.928628970475657 -1.2 -0.86736676855928141 0.49766945737008011 0 I I #
face $-1 $445 $442 $2 $-1 $446 reversed single #
cone-surface $-1 28.577258002363184 -26.928628970475657 -2.1999999999999997 -0.86736676855928141 0.49766945737008011 0 0 0 1 1 I I 0 1 1 forward I I I I #
face $-1 $447 $448 $2 $-1 $449 forward single #
plane-surface $-1 20 -16.934426229508194 -6 -0.86736676855928163 0.49766945737007984 0 -0.49766945737007978 -0.86736676855928152 0 forward_v I I I I #
coedge $-1 $450 $411 $255 $350 forward $248 $-1 #
coedge $-1 $256 $403 $250 $343 forward $352 $-1 #
edge $-1 $344 0 $259 4.0000000000000053 $342 $451 forward 7 unknown #
vertex $-1 $343 $452 #
ellipse-curve $-1 34.107923844941773 -28.949047013101563 -6 0 0 1 2.9490470131015059 -1.6920761550582704 0 1 I I #
coedge $-1 $416 $453 $252 $347 reversed $16 $-1 #
edge $-1 $348 0 $384 11.383811747264149 $346 $454 forward 7 unknown #
vertex $-1 $417 $455 #
straight-curve $-1 20 -16.934426229508194 -6 0 0 1 I I #
edge $-1 $353 1.7680770887199058e-015 $382 14.216054122345739 $255 $456 forward 7 unknown #
coedge $-1 $403 $256 $411 $457 reversed $352 $-1 #
loop $-1 $-1 $351 $458 #
vertex $-1 $257 $459 #
straight-curve $-1 32.330532925762874 -24.009322170519681 -6 0 0 1 I I #
edge $-1 $260 0 $305 3.399999999999999 $258 $460 forward 7 unknown #
point $-1 32.330532925762874 -24.009322170519681 -6 #
point $-1 20 -16.934426229508194 -6 #
coedge $-1 $461 $262 $462 $463 forward $65 $-1 #
coedge $-1 $464 $465 $262 $360 reversed $466 $-1 #
edge $-1 $364 0 $467 3.0409705093257364 $262 $468 forward 7 unknown #
coedge $-1 $469 $263 $266 $367 reversed $363 $-1 #
coedge $-1 $263 $469 $464 $470 forward $363 $-1 #
loop $-1 $-1 $362 $471 #
vertex $-1 $360 $472 #
straight-curve $-1 6.6266538892532898 -7.0249934273303181 2.1999999999999997 -0.3232568471344362 0.94631126527200538 0 I I #
coedge $-1 $266 $265 $453 $473 forward $267 $-1 #
edge $-1 $474 2.1514388324209415e-030 $268 4.3999999999999995 $266 $475 forward 7 unknown #
face $-1 $152 $267 $2 $-1 $476 reversed single #
point $-1 6.6266538892532871 -7.024993427330311 2.1999999999999997 #
coedge $-1 $270 $477 $478 $479 reversed $65 $-1 #
coedge $-1 $480 $481 $270 $372 forward $482 $-1 #
edge $-1 $376 1.0762366055039787e-015 $483 0.93291564512136804 $270 $484 forward 7 unknown #
coedge $-1 $485 $271 $481 $486 reversed $375 $-1 #
coedge $-1 $271 $487 $488 $489 forward $375 $-1 #
loop $-1 $-1 $487 $447 #
vertex $-1 $272 $490 #
straight-curve $-1 18.307923844941733 -19.88347324260975 2.1999999999999997 -0.86736676855928141 0.49766945737008 0 I I #
coedge $-1 $274 $273 $450 $491 reversed $275 $-1 #
coedge $-1 $488 $492 $273 $380 reversed $448 $-1 #
edge $-1 $276 4.4408920985006262e-016 $493 3.8000000000000007 $273 $494 forward 7 unknown #
point $-1 18.30792384494173 -19.88347324260975 2.1999999999999997 #
vertex $-1 $350 $495 #
straight-curve $-1 20 -16.934426229508194 2.1999999999999988 0 0 1 I I #
vertex $-1 $347 $496 #
straight-curve $-1 10.126059990888308 -11.269050814444103 -2.1999999999999997 0 0 1 I I #
coedge $-1 $497 $282 $498 $499 reversed $16 $-1 #
coedge $-1 $500 $501 $282 $388 forward $502 $-1 #
edge $-1 $503 0 $392 0.45709390532412986 $282 $504 forward 7 unknown #
coedge $-1 $505 $283 $286 $395 forward $391 $-1 #
coedge $-1 $283 $505 $500 $506 reversed $391 $-1 #
loop $-1 $-1 $389 $507 #
vertex $-1 $388 $508 #
ellipse-curve $-1 0 -29 -2.1999999999999997 0 0 1 -3.8959865165962815 0.90625 0 1 I I #
coedge $-1 $286 $285 $509 $510 reversed $287 $-1 #
edge $-1 $288 1.0757194162104707e-030 $511 4.3999999999999995 $389 $512 forward 7 unknown #
face $-1 $507 $287 $2 $-1 $513 reversed single #
point $-1 1.690473046962798 -32.625231148146604 -2.1999999999999997 #
coedge $-1 $296 $509 $290 $399 forward $65 $-1 #
edge $-1 $400 -2.4328983272425699e-015 $298 0.23428382410587925 $398 $514 forward 7 unknown #
vertex $-1 $399 $515 #
straight-curve $-1 11.006171309307597 -31.331280795552857 -2.1999999999999997 8.0743492700011392e-016 3.2297397080004557e-015 1 I I #
cone-surface $-1 26.967459274893216 67.386687611822978 -2.1999999999999997 0 0 1 100 0 0 1 I I 0 1 100 forward I I I I #
coedge $-1 $342 $351 $294 $404 reversed $352 $-1 #
edge $-1 $344 0 $414 12 $403 $516 forward 7 unknown #
coedge $-1 $492 $517 $295 $406 forward $448 $-1 #
edge $-1 $408 4.4408920985006262e-016 $413 3.8000000000000007 $295 $518 forward 7 unknown #
coedge $-1 $519 $296 $517 $520 reversed $65 $-1 #
vertex $-1 $520 $521 #
ellipse-curve $-1 34.107923844941794 -28.949047013101648 2.1999999999999997 0 0 1 0.25132069915291311 -3.3906987342104813 0 1 I I #
point $-1 34.359244544094707 -32.339745747312129 2.1999999999999997 #
coedge $-1 $341 $300 $351 $457 forward $248 $-1 #
coedge $-1 $300 $450 $492 $522 forward $248 $-1 #
vertex $-1 $406 $523 #
vertex $-1 $404 $524 #
ellipse-curve $-1 34.107923844941773 -28.949047013101563 6 0 0 1 2.9490470131015059 -1.6920761550582704 0 1 I I #
coedge $-1 $307 $346 $302 $417 forward $16 $-1 #
edge $-1 $348 0 $213 3.399999999999999 $416 $525 forward 7 unknown #
point $-1 18.30792384494173 -19.88347324260975 -6 #
vertex $-1 $422 $526 #
straight-curve $-1 18.30792384494173 -19.88347324260975 -2.1999999999999997 -0.8673667685592813 0.49766945737008017 0 I I #
coedge $-1 $333 $527 $313 $422 reversed $442 $-1 #
edge $-1 $419 0 $426 0.93291564512136815 $313 $528 forward 7 unknown #
coedge $-1 $529 $314 $527 $530 reversed $425 $-1 #
coedge $-1 $314 $529 $316 $429 forward $425 $-1 #
loop $-1 $-1 $424 $445 #
vertex $-1 $315 $531 #
ellipse-curve $-1 0.99902256638309006 -6.0322260626788129 -2.1999999999999997 0 0 1 1.8853921439034058 0.22154735813640869 0 1 I I #
coedge $-1 $317 $316 $532 $533 forward $318 $-1 #
edge $-1 $534 4.0778363265877095e-015 $319 1.5707963267949039 $424 $535 forward 7 unknown #
face $-1 $323 $318 $2 $-1 $536 reversed single #
point $-1 -0.88259887340026222 -6.2837961831969853 -2.1999999999999997 #
coedge $-1 $532 $325 $321 $433 reversed $239 $-1 #
edge $-1 $434 2.8820483414759279e-015 $327 1.689175303399844 $432 $537 forward 7 unknown #
vertex $-1 $533 $538 #
ellipse-curve $-1 0.45900787182852565 -19.580755891068144 -2.2000000000000002 -0.080646918905848131 -0.99674273233918986 5.8198443052327753e-017 7.2164496600635175e-016 0 1.0000000000000004 1 I I #
torus-surface $-1 7.4362069982028558 -20.145284323409047 -2.1999999999999997 0 0 1 7 1 1 0 0 forward_v I I I I #
ellipse-curve $-1 8.4523652348139979 -47.126155740732834 -1.2 -4.1783787812896796e-019 1.1094364693320023e-017 -1 -0.75270980489714656 19.985830679499035 2.2204460492503131e-016 1 I I #
point $-1 7.6996554299168531 -27.140325061233764 -1.1999999999999997 #
coedge $-1 $332 $532 $529 $539 reversed $239 $-1 #
coedge $-1 $527 $333 $332 $441 forward $442 $-1 #
edge $-1 $335 2.864321697501081e-016 $540 0.93291564512136882 $332 $541 forward 7 unknown #
loop $-1 $-1 $527 $337 #
ellipse-curve $-1 7.9363143784599544 -15.085464596104941 -2.1999999999999988 -0.86736676855928141 0.49766945737008011 2.2732419712113293e-016 -1.7763568394002505e-015 -3.5527136788005009e-015 0.99999999999999911 1 I I #
point $-1 7.9363143784599544 -15.085464596104936 -1.1999999999999997 #
face $-1 $430 $425 $2 $-1 $542 reversed single #
torus-surface $-1 14.007881758374928 -4.5035900196817096 -2.1999999999999997 0 0 1 12.199999999999999 1 1 0 0 forward_v I I I I #
face $-1 $543 $375 $2 $-1 $544 reversed single #
loop $-1 $-1 $488 $339 #
plane-surface $-1 18.30792384494173 -19.88347324260975 -6 -0.49766945737008017 -0.86736676855928141 0 0.86736676855928141 -0.49766945737008017 0 forward_v I I I I #
coedge $-1 $412 $341 $378 $491 forward $248 $-1 #
straight-curve $-1 35.800000000000004 -26.000000000000004 -6 -0.86736676855928152 0.49766945737008006 0 I I #
point $-1 35.800000000000004 -26.000000000000004 -6 #
coedge $-1 $346 $497 $366 $473 reversed $16 $-1 #
straight-curve $-1 20 -16.934426229508194 -2.1999999999999997 -0.86736676855928152 0.49766945737007989 0 I I #
point $-1 20 -16.934426229508194 -2.1999999999999997 #
straight-curve $-1 32.330532925762874 -24.009322170519685 6 -0.86736676855928152 0.49766945737007995 0 I I #
edge $-1 $414 0 $353 3.9999999999999969 $351 $545 forward 7 unknown #
face $-1 $292 $352 $2 $-1 $546 forward single #
point $-1 32.330532925762874 -24.009322170519681 6 #
straight-curve $-1 20 -16.934426229508194 -6 -0.49766945737007978 -0.86736676855928152 0 I I #
coedge $-1 $509 $358 $505 $547 forward $65 $-1 #
coedge $-1 $501 $500 $358 $463 reversed $502 $-1 #
edge $-1 $467 8.8423096005702084e-016 $548 0.45709390532413174 $358 $549 forward 7 unknown #
coedge $-1 $498 $359 $362 $470 reversed $466 $-1 #
coedge $-1 $359 $498 $501 $550 forward $466 $-1 #
loop $-1 $-1 $465 $551 #
vertex $-1 $463 $552 #
ellipse-curve $-1 8.8817841970012523e-016 1.7763568394002505e-015 2.1999999999999997 0 0 1 3.7852450610880215 1.2930273885377412 0 1 I I #
coedge $-1 $362 $361 $497 $553 forward $363 $-1 #
edge $-1 $554 0 $364 4.3999999999999995 $362 $555 forward 7 unknown #
face $-1 $368 $363 $2 $-1 $556 forward single #
point $-1 3.7852450610880224 1.293027388537743 2.1999999999999997 #
edge $-1 $384 0 $474 0.72071744902054968 $453 $557 forward 7 unknown #
vertex $-1 $473 $558 #
straight-curve $-1 6.6266538892532862 -7.0249934273303101 -2.1999999999999997 2.0185873175002848e-016 -2.0185873175002848e-016 1 I I #
cone-surface $-1 14.007881758374928 -4.5035900196817096 -2.1999999999999997 0 0 1 7.7999999999999998 0 0 1 I I 0 1 7.7999999999999998 forward I I I I #
coedge $-1 $370 $559 $560 $561 reversed $65 $-1 #
coedge $-1 $562 $563 $370 $479 forward $564 $-1 #
edge $-1 $483 0 $565 3.1575321377792118 $370 $566 forward 7 unknown #
coedge $-1 $567 $371 $563 $568 reversed $482 $-1 #
coedge $-1 $371 $567 $373 $486 forward $482 $-1 #
loop $-1 $-1 $481 $569 #
vertex $-1 $372 $570 #
ellipse-curve $-1 14.007881758374932 -4.5035900196817096 2.1999999999999997 0 0 -1 -5.5738979225448979 -9.7145078078639528 0 1 I I #
coedge $-1 $487 $373 $571 $572 reversed $375 $-1 #
edge $-1 $573 6.6050308385750741e-015 $376 1.5707963267948974 $373 $574 forward 7 unknown #
coedge $-1 $374 $485 $575 $576 forward $375 $-1 #
coedge $-1 $517 $379 $374 $489 reversed $448 $-1 #
edge $-1 $577 4.8495828719174539e-015 $276 12.413438011552838 $488 $578 forward 7 unknown #
point $-1 8.433983835830027 -14.21809782754565 2.1999999999999997 #
edge $-1 $382 0 $493 3.399999999999999 $450 $579 forward 7 unknown #
coedge $-1 $379 $405 $412 $522 reversed $448 $-1 #
vertex $-1 $522 $580 #
straight-curve $-1 18.30792384494173 -19.88347324260975 2.1999999999999993 0 0 1 I I #
point $-1 20 -16.934426229508194 6 #
point $-1 10.126059990888306 -11.269050814444105 -2.1999999999999997 #
coedge $-1 $453 $386 $469 $553 reversed $16 $-1 #
coedge $-1 $465 $464 $386 $499 forward $466 $-1 #
edge $-1 $554 0 $503 3.0409705093257227 $386 $581 forward 7 unknown #
coedge $-1 $462 $387 $390 $506 forward $502 $-1 #
coedge $-1 $387 $462 $465 $550 reversed $502 $-1 #
loop $-1 $-1 $500 $582 #
vertex $-1 $499 $583 #
ellipse-curve $-1 -62.335784265540447 -14.5 -2.1999999999999997 0 0 -1 58.439797748944166 13.593750000000023 0 1 I I #
coedge $-1 $390 $389 $461 $547 reversed $391 $-1 #
edge $-1 $392 -3.1375149639472063e-031 $548 4.3999999999999995 $500 $584 forward 7 unknown #
face $-1 $582 $391 $2 $-1 $585 forward single #
point $-1 -3.8959865165962815 -28.09375 -2.1999999999999997 #
coedge $-1 $398 $461 $394 $510 forward $65 $-1 #
edge $-1 $511 -5.55111512312571e-017 $400 0.59663080570476801 $509 $586 forward 7 unknown #
vertex $-1 $510 $587 #
straight-curve $-1 1.6904730469627953 -32.625231148146604 -2.1999999999999997 4.0371746350005696e-016 0 1 I I #
cone-surface $-1 8.4523652348139802 -47.126155740733005 -2.1999999999999997 0 0 1 16 0 0 1 I I 0 1 16 forward I I I I #
ellipse-curve $-1 26.96745927489323 67.386687611823248 2.1999999999999997 0 0 1 -15.96128796558539 -98.717968407376134 0 1 I I #
point $-1 11.0061713093076 -31.331280795552843 2.1999999999999997 #
straight-curve $-1 35.800000000000004 -26.000000000000004 -6 -5.9211894646675012e-016 2.9605947323337506e-016 1 I I #
coedge $-1 $405 $488 $407 $520 forward $448 $-1 #
straight-curve $-1 37.056970858043279 -30.641123168159833 2.1999999999999993 0 0 1 I I #
coedge $-1 $588 $407 $589 $590 reversed $65 $-1 #
edge $-1 $577 0 $408 9.2026161107928957 $407 $591 forward 7 unknown #
point $-1 37.056970858043279 -30.641123168159833 2.1999999999999997 #
edge $-1 $493 0 $413 21.61605412234573 $412 $592 forward 7 unknown #
point $-1 37.056970858043279 -30.641123168159833 6 #
point $-1 35.799999999999997 -26 6 #
straight-curve $-1 20 -16.934426229508194 -2.1999999999999997 -0.49766945737007978 -0.86736676855928152 0 I I #
point $-1 8.4339838358300341 -14.218097827545662 -2.1999999999999997 #
coedge $-1 $421 $440 $423 $530 forward $442 $-1 #
ellipse-curve $-1 14.007881758374932 -4.5035900196817096 -2.1999999999999997 0 0 -1 -5.5738979225448979 -9.7145078078639528 0 1 I I #
coedge $-1 $424 $423 $439 $539 forward $425 $-1 #
edge $-1 $540 1.8678727438609531e-015 $426 1.5707963267948968 $527 $593 forward 7 unknown #
point $-1 2.8844147102864994 -5.8106787045424033 -2.1999999999999997 #
coedge $-1 $439 $432 $428 $533 reversed $239 $-1 #
edge $-1 $534 1.1457479236242454e-016 $434 0.21364498103331075 $532 $594 forward 7 unknown #
vertex $-1 $539 $595 #
ellipse-curve $-1 0.10858153615038196 -6.1512767667969319 -2.1999999999999997 0.1325194164000483 -0.99118040955064823 8.264393182474743e-016 7.049916206369744e-015 1.7763568394002505e-015 1 1 I I #
torus-surface $-1 -62.335784265540447 -14.5 -2.1999999999999997 0 0 1 63 1 1 0 0 forward_v I I I I #
ellipse-curve $-1 7.4362069982028505 -20.145284323409047 -1.2 3.161733517345027e-017 -2.5581733209812948e-018 1 -6.977199126374324 0.56452843234090366 2.2204460492503131e-016 1 I I #
point $-1 0.45900787182853975 -19.580755891068165 -1.1999999999999997 #
edge $-1 $540 7.566029179047439e-016 $534 3.15753213777921 $439 $596 forward 7 unknown #
vertex $-1 $441 $597 #
ellipse-curve $-1 14.007881758374921 -4.5035900196817149 -1.2 -9.0577719709011578e-018 -1.5786402577856301e-017 -1 -6.0715673799149688 -10.58187457642323 2.2204460492503131e-016 1 I I #
torus-surface $-1 0.99902256638309006 -6.0322260626788129 -2.1999999999999997 0 0 1 0.89836423485850136 1 1 0 0 forward_v I I I I #
face $-1 $598 $599 $2 $-1 $600 reversed single #
cone-surface $-1 28.577258002363184 -26.928628970475657 2.1999999999999997 0.86736676855928141 -0.49766945737008011 0 0 0 -1 1 I I 0 1 1 forward I I I I #
straight-curve $-1 35.799999999999997 -26 6 -0.86736676855928141 0.49766945737008011 0 I I #
plane-surface $-1 35.799999999999997 -26 -2.1999999999999997 0.49766945737007984 0.86736676855928152 0 -0.86736676855928152 0.49766945737007984 0 forward_v I I I I #
edge $-1 $548 0 $511 2.2356755924555407 $461 $601 forward 7 unknown #
vertex $-1 $547 $602 #
ellipse-curve $-1 -62.335784265540198 -14.499999999999986 2.1999999999999997 0 0 -1 58.439797748943917 13.593750000000009 0 1 I I #
edge $-1 $503 -1.9192066980359204e-029 $467 4.3999999999999995 $465 $603 forward 7 unknown #
face $-1 $471 $466 $2 $-1 $604 forward single #
point $-1 -3.8959865165962739 -0.90625000000002842 2.1999999999999997 #
edge $-1 $474 2.871097556451085e-016 $554 8.7899416620356412 $497 $605 forward 7 unknown #
vertex $-1 $553 $606 #
straight-curve $-1 3.7852450610880224 1.2930273885377437 -2.1999999999999997 0 0 1 I I #
plane-surface $-1 6.6266538892532871 -7.024993427330311 -2.1999999999999997 0.94631126527200538 0.32325684713443614 0 -0.32325684713443614 0.94631126527200538 0 forward_v I I I I #
ellipse-curve $-1 14.007881758374928 -4.5035900196817096 -2.1999999999999997 0 0 -1 -3.8818217674866222 -6.7654607947623955 0 1 I I #
point $-1 6.6266538892532889 -7.0249934273303181 -2.1999999999999997 #
coedge $-1 $477 $607 $608 $609 reversed $65 $-1 #
coedge $-1 $610 $611 $477 $561 forward $612 $-1 #
edge $-1 $565 1.0351298960084686e-016 $613 0.21364498103331075 $477 $614 forward 7 unknown #
coedge $-1 $615 $478 $611 $616 reversed $564 $-1 #
coedge $-1 $478 $615 $480 $568 forward $564 $-1 #
loop $-1 $-1 $563 $617 #
vertex $-1 $479 $618 #
ellipse-curve $-1 0.99902256638308995 -6.0322260626788129 2.1999999999999997 0 0 1 1.8853921439034056 0.22154735813640869 0 1 I I #
coedge $-1 $481 $480 $619 $620 reversed $482 $-1 #
edge $-1 $621 4.0731458207264868e-015 $483 1.5707963267948959 $480 $622 forward 7 unknown #
face $-1 $623 $482 $2 $-1 $624 reversed single #
point $-1 2.8844147102864954 -5.8106787045424042 2.1999999999999997 #
coedge $-1 $619 $625 $485 $572 forward $626 $-1 #
edge $-1 $627 0 $573 23.797249758816989 $571 $628 forward 7 unknown #
vertex $-1 $620 $629 #
ellipse-curve $-1 7.9363143784599544 -15.085464596104943 2.1999999999999993 0.86736676855928141 -0.49766945737008006 -7.7037644579938713e-016 -8.8817841970012523e-016 0 -0.99999999999999956 1 I I #
coedge $-1 $630 $589 $487 $576 reversed $599 $-1 #
edge $-1 $627 -4.8495828719174539e-015 $577 1.5707963267948917 $487 $631 forward 7 unknown #
vertex $-1 $590 $632 #
straight-curve $-1 29.074927459733267 -26.061262201916378 2.1999999999999993 -0.8673667685592813 0.49766945737008028 0 I I #
straight-curve $-1 20 -16.934426229508194 6 -0.49766945737007978 -0.86736676855928152 0 I I #
point $-1 18.30792384494173 -19.88347324260975 6 #
ellipse-curve $-1 0 0 -2.1999999999999997 0 0 1 3.7852450610880224 1.293027388537743 0 1 I I #
face $-1 $551 $502 $2 $-1 $633 reversed single #
point $-1 -3.895986516596281 -0.90624999999997646 -2.1999999999999997 #
straight-curve $-1 -3.895986516596281 -28.09375 -2.1999999999999997 7.0650556112509968e-016 0 1 I I #
cone-surface $-1 0 -29 -2.1999999999999997 0 0 1 4 0 0 1 I I 0 1 4 forward I I I I #
ellipse-curve $-1 8.452365234814021 -47.126155740733104 2.1999999999999997 0 0 -1 -6.761892187851223 14.5009245925865 0 1 I I #
point $-1 1.6904730469627971 -32.625231148146604 2.1999999999999997 #
coedge $-1 $607 $519 $634 $635 reversed $65 $-1 #
coedge $-1 $575 $636 $519 $590 forward $599 $-1 #
edge $-1 $637 -2.0608039884341372e-014 $577 2.6084565924604877 $519 $638 forward 7 unknown #
straight-curve $-1 29.074927459733264 -26.061262201916374 2.1999999999999993 0.8673667685592813 -0.49766945737008023 0 I I #
straight-curve $-1 18.30792384494173 -19.88347324260975 6 0.86736676855928141 -0.49766945737008017 0 I I #
ellipse-curve $-1 1.8912480095643147 -5.9273830514049646 -2.1999999999999997 -0.11670434686256073 0.99316670072218149 1.7642184614924288e-015 0 -1.7763568394002505e-015 1 1 I I #
ellipse-curve $-1 -62.335784265540518 -14.500000000000043 -1.2 3.4934327372714936e-018 4.6706700729277162e-019 -1 62.444365801690907 8.3487232332031134 2.2204460492503131e-016 1 I I #
point $-1 0.10858153615038585 -6.1512767667969372 -1.1999999999999997 #
ellipse-curve $-1 0.99902256638308984 -6.0322260626788138 -1.2 -2.4547649954173437e-016 -2.8845283000622947e-017 1 0.89222544318122488 0.10484301127384743 2.2204460492503131e-016 1 I I #
point $-1 1.8912480095643165 -5.9273830514049655 -1.1999999999999997 #
face $-1 $639 $640 $2 $-1 $641 reversed single #
loop $-1 $-1 $636 $543 #
torus-surface $-1 28.130169561080468 -27.707840253854105 2.1999999999999997 0 0 1 0.8983642348585007 1 1 0 0 forward_v I I I I #
ellipse-curve $-1 3.7192471324942744e-015 -28.999999999999996 2.1999999999999997 0 0 1 -3.895986516596285 0.90624999999999645 0 1 I I #
point $-1 -3.8959865165962815 -28.09375 2.1999999999999997 #
straight-curve $-1 -3.8959865165962717 -0.90625000000002631 -2.1999999999999997 -5.046468293750712e-016 -4.7941448790631761e-016 1 I I #
cone-surface $-1 0 0 -2.1999999999999997 0 0 1 4 0 0 1 I I 0 1 4 forward I I I I #
straight-curve $-1 6.6266538892532898 -7.0249934273303181 -2.1999999999999997 -0.3232568471344362 0.94631126527200538 0 I I #
point $-1 3.7852450610880224 1.293027388537743 -2.1999999999999997 #
coedge $-1 $559 $588 $642 $643 reversed $65 $-1 #
coedge $-1 $644 $645 $559 $609 forward $646 $-1 #
edge $-1 $613 3.094746681142625e-015 $647 1.6891753033998436 $559 $648 forward 7 unknown #
coedge $-1 $649 $560 $645 $650 reversed $612 $-1 #
coedge $-1 $560 $649 $562 $616 forward $612 $-1 #
loop $-1 $-1 $611 $651 #
vertex $-1 $561 $652 #
ellipse-curve $-1 -62.335784265540511 -14.500000000000007 2.1999999999999997 0 0 -1 61.453185392140242 8.2162038168030271 0 1 I I #
coedge $-1 $563 $562 $653 $654 reversed $564 $-1 #
edge $-1 $655 3.857750064139606e-015 $565 1.5707963267949046 $562 $656 forward 7 unknown #
face $-1 $569 $564 $2 $-1 $657 reversed single #
point $-1 -0.88259887340026189 -6.2837961831969853 2.1999999999999997 #
coedge $-1 $653 $571 $567 $620 forward $626 $-1 #
edge $-1 $573 2.86432169750108e-016 $621 0.9329156451213686 $619 $658 forward 7 unknown #
vertex $-1 $654 $659 #
ellipse-curve $-1 1.8912480095643138 -5.9273830514049646 2.2000000000000002 0.11670434686256088 -0.99316670072218149 1.8160456026766906e-015 4.4408920985006262e-016 -1.7763568394002505e-015 -1.0000000000000004 1 I I #
face $-1 $458 $626 $2 $-1 $660 forward single #
torus-surface $-1 14.007881758374928 -4.5035900196817096 2.1999999999999997 0 0 1 12.199999999999999 1 1 0 0 forward_v I I I I #
coedge $-1 $571 $661 $630 $662 forward $626 $-1 #
loop $-1 $-1 $625 $623 #
vertex $-1 $572 $663 #
straight-curve $-1 28.577258002363184 -26.928628970475657 1.2 -0.86736676855928141 0.49766945737008011 0 I I #
point $-1 7.9363143784599544 -15.085464596104936 1.1999999999999997 #
coedge $-1 $636 $575 $625 $662 reversed $599 $-1 #
ellipse-curve $-1 28.577258002363184 -26.928628970475657 2.1999999999999997 0.86736676855928141 -0.49766945737008011 1.3134286944776409e-015 3.5527136788005009e-015 3.5527136788005009e-015 -1 1 I I #
point $-1 29.074927459733264 -26.061262201916374 2.1999999999999997 #
cone-surface $-1 -62.335784265540447 -14.5 -2.1999999999999997 0 0 1 60 0 0 1 I I 0 1 60 forward I I I I #
coedge $-1 $664 $665 $588 $635 forward $640 $-1 #
edge $-1 $666 -1.6915886152647593e-016 $637 0.17252477298728872 $588 $667 forward 7 unknown #
coedge $-1 $589 $630 $664 $668 forward $599 $-1 #
vertex $-1 $635 $669 #
ellipse-curve $-1 28.130169561080471 -27.707840253854108 2.1999999999999997 0 0 1 0.023209354971037044 -1.8982223510515617 0 1 I I #
face $-1 $670 $671 $2 $-1 $672 reversed single #
loop $-1 $-1 $665 $598 #
torus-surface $-1 26.967459274893216 67.386687611822978 2.1999999999999997 0 0 1 96 1 1 0 0 forward_v I I I I #
coedge $-1 $673 $674 $607 $643 forward $671 $-1 #
edge $-1 $647 -1.7714361833355295e-016 $666 0.19794287329256788 $607 $675 forward 7 unknown #
coedge $-1 $676 $608 $674 $677 reversed $646 $-1 #
coedge $-1 $608 $676 $610 $650 forward $646 $-1 #
loop $-1 $-1 $645 $670 #
vertex $-1 $609 $678 #
ellipse-curve $-1 7.4362069982028558 -20.145284323409051 2.1999999999999997 0 0 1 -7.9739418587135198 0.64517535124675618 0 1 I I #
coedge $-1 $611 $610 $679 $680 reversed $612 $-1 #
edge $-1 $681 -1.505370358110216e-014 $613 1.570796326794897 $610 $682 forward 7 unknown #
face $-1 $617 $612 $2 $-1 $683 reversed single #
point $-1 -0.53773486051066444 -19.50010897216232 2.1999999999999997 #
coedge $-1 $679 $619 $615 $654 forward $626 $-1 #
edge $-1 $621 4.6427906325972856e-016 $655 3.1575321377792118 $653 $684 forward 7 unknown #
vertex $-1 $680 $685 #
ellipse-curve $-1 0.1085815361503818 -6.1512767667969319 2.1999999999999993 -0.13251941640004819 0.99118040955064823 8.0437040215289205e-016 7.2164496600635175e-015 1.7763568394002505e-015 -0.99999999999999956 1 I I #
torus-surface $-1 0.99902256638309006 -6.0322260626788129 2.1999999999999997 0 0 1 0.89836423485850114 1 1 0 0 forward_v I I I I #
ellipse-curve $-1 14.007881758374925 -4.5035900196817131 1.2 9.0577719709011594e-018 1.5786402577856298e-017 -1 -6.0715673799149714 -10.58187457642323 -2.2204460492503131e-016 1 I I #
point $-1 1.8912480095643183 -5.9273830514049655 1.1999999999999997 #
plane-surface $-1 0 0 1.2 0 0 1 1 0 0 forward_v I I I I #
coedge $-1 $625 $686 $687 $688 forward $626 $-1 #
edge $-1 $689 -4.3352057531877937e-014 $627 2.6084565924604899 $625 $690 forward 7 unknown #
point $-1 28.577258002363184 -26.928628970475657 1.1999999999999997 #
coedge $-1 $687 $634 $636 $668 reversed $640 $-1 #
coedge $-1 $634 $687 $673 $691 forward $640 $-1 #
vertex $-1 $643 $692 #
ellipse-curve $-1 26.967459274893223 67.386687611823362 2.1999999999999997 0 0 1 -15.482449326617969 -95.75642935515495 0 1 I I #
edge $-1 $689 -1.1135133748044787e-014 $637 1.5707963267948917 $664 $693 forward 7 unknown #
point $-1 28.153378916051469 -29.606062604905674 2.1999999999999997 #
face $-1 $651 $646 $2 $-1 $694 reversed single #
loop $-1 $-1 $674 $639 #
torus-surface $-1 8.4523652348139802 -47.126155740733005 2.1999999999999997 0 0 1 20 1 1 0 0 forward_v I I I I #
coedge $-1 $695 $642 $665 $691 reversed $671 $-1 #
coedge $-1 $642 $695 $644 $677 forward $671 $-1 #
ellipse-curve $-1 8.4523652348140335 -47.126155740732457 2.1999999999999997 0 0 -1 -0.71507431465232596 18.986539145523697 0 1 I I #
coedge $-1 $645 $644 $696 $697 reversed $646 $-1 #
edge $-1 $698 -3.5435112958123023e-014 $647 1.5707963267948934 $644 $699 forward 7 unknown #
point $-1 7.7372909201617031 -28.139616595208732 2.1999999999999997 #
coedge $-1 $696 $653 $649 $680 forward $626 $-1 #
edge $-1 $655 1.1457479236242454e-016 $681 0.21364498103331075 $679 $700 forward 7 unknown #
vertex $-1 $697 $701 #
ellipse-curve $-1 0.45900787182852565 -19.580755891068144 2.2000000000000002 0.080646918905848131 0.99674273233918986 5.8198443052327753e-017 7.2164496600635175e-016 0 -1.0000000000000004 1 I I #
torus-surface $-1 -62.335784265540447 -14.5 2.1999999999999997 0 0 1 63 1 1 0 0 forward_v I I I I #
ellipse-curve $-1 0.99902256638308973 -6.0322260626788129 1.2 2.4547649954173451e-016 2.8845283000622731e-017 1 0.89222544318122454 0.10484301127384654 -2.2204460492503131e-016 1 I I #
point $-1 0.10858153615038607 -6.1512767667969372 1.1999999999999997 #
coedge $-1 $661 $696 $695 $702 forward $626 $-1 #
coedge $-1 $665 $664 $661 $688 reversed $640 $-1 #
edge $-1 $703 0 $689 0.17252477298729341 $661 $704 forward 7 unknown #
vertex $-1 $688 $705 #
ellipse-curve $-1 28.130169561080471 -27.707840253854105 1.2 3.0218388430937196e-018 -2.4714698191290061e-016 1 0.010983379288994399 -0.89829709108528988 -2.2204460492503131e-016 1 I I #
edge $-1 $703 0 $666 1.5707963267948761 $673 $706 forward 7 unknown #
point $-1 11.485009948275238 -28.369741743331595 2.1999999999999997 #
ellipse-curve $-1 28.141152940369498 -28.606137344939391 2.2000000000000015 -0.99992525996627513 -0.012225975682011505 3.2015468730785099e-014 -3.1974423109204508e-014 -3.5527136788005009e-015 -1.0000000000000018 1 I I #
torus-surface $-1 7.4362069982028558 -20.145284323409047 2.1999999999999997 0 0 1 7 1 1 0 0 forward_v I I I I #
coedge $-1 $674 $673 $686 $702 reversed $671 $-1 #
coedge $-1 $686 $679 $676 $697 forward $626 $-1 #
edge $-1 $681 2.8820483414759279e-015 $698 1.689175303399844 $696 $707 forward 7 unknown #
vertex $-1 $702 $708 #
ellipse-curve $-1 7.6996554299168496 -27.140325061233799 2.2000000000000028 -0.9992915339749604 -0.037635490244857392 -1.7750983509311831e-015 1.7763568394002505e-015 0 -1.0000000000000031 1 I I #
ellipse-curve $-1 -62.335784265540518 -14.500000000000043 1.2 -3.4934327372714936e-018 -4.6706700729277162e-019 -1 62.444365801690907 8.3487232332031134 -2.2204460492503131e-016 1 I I #
point $-1 0.45900787182853975 -19.580755891068165 1.1999999999999997 #
edge $-1 $698 1.554312234475243e-016 $703 0.19794287329256013 $686 $709 forward 7 unknown #
vertex $-1 $688 $710 #
ellipse-curve $-1 26.967459274893152 67.386687611821259 1.2 -3.6917894587637792e-019 -2.2833116972935286e-018 1 -15.322836446962127 -94.769249671079052 -2.2204460492503131e-016 1 I I #
point $-1 28.141152940369427 -28.606137344939384 1.1999999999999997 #
ellipse-curve $-1 11.644622827931176 -27.382562059257822 2.2000000000000242 -0.98717968407374823 0.1596128796559188 1.535910584862442e-013 -1.5099033134902129e-013 2.8421709430404007e-014 -1.0000000000000244 1 I I #
ellipse-curve $-1 7.4362069982028505 -20.145284323409047 1.2 -3.161733517345027e-017 2.5581733209812948e-018 1 -6.977199126374324 0.56452843234090366 -2.2204460492503131e-016 1 I I #
point $-1 7.6996554299168531 -27.140325061233764 1.1999999999999997 #
ellipse-curve $-1 8.4523652348139979 -47.126155740732834 1.2 4.1783787812896796e-019 -1.1094364693320023e-017 -1 -0.75270980489714656 19.985830679499035 -2.2204460492503131e-016 1 I I #
point $-1 11.644622827931025 -27.382562059257793 1.1999999999999997 #
End-of-ACIS-data 