  0
SECTION
  2
HEADER
  9
$ACADVER
  1
AC1009
  9
$INSBASE
 10
0.0
 20
0.0
 30
0.0
  9
$EXTMIN
 10
0.0
 20
0.0
 30
0.0
  9
$EXTMAX
 10
14.0
 20
19.000004
 30
14.000001
  9
$LIMMIN
 10
0.0
 20
0.0
  9
$LIMMAX
 10
12.0
 20
9.0
  9
$ORTHOMODE
 70
     0
  9
$REGENMODE
 70
     1
  9
$FILLMODE
 70
     1
  9
$QTEXTMODE
 70
     0
  9
$MIRRTEXT
 70
     1
  9
$DRAGMODE
 70
     2
  9
$LTSCALE
 40
1.0
  9
$OSMODE
 70
     0
  9
$ATTMODE
 70
     1
  9
$TEXTSIZE
 40
0.2
  9
$TRACEWID
 40
0.05
  9
$TEXTSTYLE
  7
STANDARD
  9
$CLAYER
  8
0
  9
$CELTYPE
  6
BYLAYER
  9
$CECOLOR
 62
   256
  9
$DIMSCALE
 40
1.0
  9
$DIMASZ
 40
0.18
  9
$DIMEXO
 40
0.0625
  9
$DIMDLI
 40
0.38
  9
$DIMRND
 40
0.0
  9
$DIMDLE
 40
0.0
  9
$DIMEXE
 40
0.18
  9
$DIMTP
 40
0.0
  9
$DIMTM
 40
0.0
  9
$DIMTXT
 40
0.18
  9
$DIMCEN
 40
0.09
  9
$DIMTSZ
 40
0.0
  9
$DIMTOL
 70
     0
  9
$DIMLIM
 70
     0
  9
$DIMTIH
 70
     1
  9
$DIMTOH
 70
     1
  9
$DIMSE1
 70
     0
  9
$DIMSE2
 70
     0
  9
$DIMTAD
 70
     0
  9
$DIMZIN
 70
     0
  9
$DIMBLK
  1

  9
$DIMASO
 70
     1
  9
$DIMSHO
 70
     1
  9
$DIMPOST
  1

  9
$DIMAPOST
  1

  9
$DIMALT
 70
     0
  9
$DIMALTD
 70
     2
  9
$DIMALTF
 40
25.4
  9
$DIMLFAC
 40
1.0
  9
$DIMTOFL
 70
     0
  9
$DIMTVP
 40
0.0
  9
$DIMTIX
 70
     0
  9
$DIMSOXD
 70
     0
  9
$DIMSAH
 70
     0
  9
$DIMBLK1
  1

  9
$DIMBLK2
  1

  9
$DIMSTYLE
  2
*UNNAMED
  9
$DIMCLRD
 70
     0
  9
$DIMCLRE
 70
     0
  9
$DIMCLRT
 70
     0
  9
$DIMTFAC
 40
1.0
  9
$DIMGAP
 40
0.09
  9
$LUNITS
 70
     2
  9
$LUPREC
 70
     4
  9
$SKETCHINC
 40
0.1
  9
$FILLETRAD
 40
0.0
  9
$AUNITS
 70
     0
  9
$AUPREC
 70
     0
  9
$MENU
  1
acad
  9
$ELEVATION
 40
0.0
  9
$PELEVATION
 40
0.0
  9
$THICKNESS
 40
0.0
  9
$LIMCHECK
 70
     0
  9
$BLIPMODE
 70
     1
  9
$CHAMFERA
 40
0.0
  9
$CHAMFERB
 40
0.0
  9
$SKPOLY
 70
     0
  9
$TDCREATE
 40
2449201.855639028
  9
$TDUPDATE
 40
2449201.873616238
  9
$TDINDWG
 40
0.0179772106
  9
$TDUSRTIMER
 40
0.0179772106
  9
$USRTIMER
 70
     1
  9
$ANGBASE
 50
0.0
  9
$ANGDIR
 70
     0
  9
$PDMODE
 70
     0
  9
$PDSIZE
 40
0.0
  9
$PLINEWID
 40
0.0
  9
$COORDS
 70
     0
  9
$SPLFRAME
 70
     0
  9
$SPLINETYPE
 70
     6
  9
$SPLINESEGS
 70
     8
  9
$ATTDIA
 70
     0
  9
$ATTREQ
 70
     1
  9
$HANDLING
 70
     1
  9
$HANDSEED
  5
311
  9
$SURFTAB1
 70
     6
  9
$SURFTAB2
 70
     6
  9
$SURFTYPE
 70
     6
  9
$SURFU
 70
     6
  9
$SURFV
 70
     6
  9
$UCSNAME
  2

  9
$UCSORG
 10
0.0
 20
0.0
 30
0.0
  9
$UCSXDIR
 10
1.0
 20
0.0
 30
0.0
  9
$UCSYDIR
 10
0.0
 20
1.0
 30
0.0
  9
$PUCSNAME
  2

  9
$PUCSORG
 10
0.0
 20
0.0
 30
0.0
  9
$PUCSXDIR
 10
1.0
 20
0.0
 30
0.0
  9
$PUCSYDIR
 10
0.0
 20
1.0
 30
0.0
  9
$USERI1
 70
     0
  9
$USERI2
 70
     0
  9
$USERI3
 70
     0
  9
$USERI4
 70
     0
  9
$USERI5
 70
     0
  9
$USERR1
 40
0.0
  9
$USERR2
 40
0.0
  9
$USERR3
 40
0.0
  9
$USERR4
 40
0.0
  9
$USERR5
 40
0.0
  9
$WORLDVIEW
 70
     1
  9
$SHADEDGE
 70
     3
  9
$SHADEDIF
 70
    70
  9
$TILEMODE
 70
     1
  9
$MAXACTVP
 70
    16
  9
$PINSBASE
 10
0.0
 20
0.0
 30
0.0
  9
$PLIMCHECK
 70
     0
  9
$PEXTMIN
 10
1.000000E+20
 20
1.000000E+20
 30
1.000000E+20
  9
$PEXTMAX
 10
-1.000000E+20
 20
-1.000000E+20
 30
-1.000000E+20
  9
$PLIMMIN
 10
0.0
 20
0.0
  9
$PLIMMAX
 10
12.0
 20
9.0
  9
$UNITMODE
 70
     0
  9
$VISRETAIN
 70
     0
  9
$PLINEGEN
 70
     0
  9
$PSLTSCALE
 70
     0
  9
$TREEDEPTH
 70
  3020
  9
$DWGCODEPAGE
  3
undefined
  0
ENDSEC
  0
SECTION
  2
TABLES
  0
TABLE
  2
VPORT
 70
     2
  0
VPORT
  2
*ACTIVE
 70
     0
 10
0.0
 20
0.0
 11
1.0
 21
1.0
 12
9.959304
 22
-1.02062
 13
0.0
 23
0.0
 14
1.0
 24
1.0
 15
0.0
 25
0.0
 16
1.0
 26
1.0
 36
1.0
 17
0.0
 27
0.0
 37
0.0
 40
24.903146
 41
1.594883
 42
50.0
 43
0.0
 44
0.0
 50
0.0
 51
0.0
 71
     0
 72
   100
 73
     1
 74
     1
 75
     0
 76
     0
 77
     0
 78
     0
  0
ENDTAB
  0
TABLE
  2
LTYPE
 70
     1
  0
LTYPE
  2
CONTINUOUS
 70
    64
  3
Solid line
 72
    65
 73
     0
 40
0.0
  0
ENDTAB
  0
TABLE
  2
LAYER
 70
     2
  0
LAYER
  2
0
 70
    64
 62
     7
  6
CONTINUOUS
  0
LAYER
  2
AME_FRZ
 70
    65
 62
     7
  6
CONTINUOUS
  0
ENDTAB
  0
TABLE
  2
STYLE
 70
     1
  0
STYLE
  2
STANDARD
 70
     0
 40
0.0
 41
1.0
 50
0.0
 71
     0
 42
0.2
  3
txt
  4

  0
ENDTAB
  0
TABLE
  2
VIEW
 70
     0
  0
ENDTAB
  0
TABLE
  2
UCS
 70
     0
  0
ENDTAB
  0
TABLE
  2
APPID
 70
     2
  0
APPID
  2
ACAD
 70
    64
  0
APPID
  2
AME_SOL
 70
    64
  0
ENDTAB
  0
TABLE
  2
DIMSTYLE
 70
     0
  0
ENDTAB
  0
ENDSEC
  0
SECTION
  2
BLOCKS
  0
BLOCK
  8
0
  5
1
  2
AME_NIL
 70
    64
 10
0.0
 20
0.0
 30
0.0
  1
AME_NIL
  3
AME_NIL
  0
ENDBLK
  8
0
  5
2
  0
BLOCK
  8
0
  5
4
  2
AME_SOL
 70
    64
 10
0.0
 20
0.0
 30
0.0
  1
AME_SOL
  3
AME_SOL
  0
ENDBLK
  8
0
  5
5
  0
BLOCK
  8
0
  5
7
  2
*U2
 70
    65
 10
0.0
 20
0.0
 30
0.0
  1
*U
  3
*U
  0
LINE
  8
0
 62
     0
  5
8
 10
3.0
 20
13.999999
 30
0.0
 11
3.0
 21
13.999999
 31
6.0
1001
AME_SOL
1070
     1
1071
       18
  0
LINE
  8
0
 62
     0
  5
9
 10
3.0
 20
13.999999
 30
6.0
 11
3.0
 21
0.0
 31
6.0
1001
AME_SOL
1070
     1
1071
       17
  0
LINE
  8
0
 62
     0
  5
A
 10
0.0
 20
13.999999
 30
6.0
 11
3.0
 21
13.999999
 31
6.0
1001
AME_SOL
1070
     1
1071
       16
  0
LINE
  8
0
 62
     0
  5
B
 10
0.0
 20
13.999999
 30
0.0
 11
0.0
 21
13.999999
 31
6.0
1001
AME_SOL
1070
     1
1071
       15
  0
LINE
  8
0
 62
     0
  5
C
 10
0.0
 20
13.999999
 30
6.0
 11
0.0
 21
0.0
 31
6.0
1001
AME_SOL
1070
     1
1071
       14
  0
LINE
  8
0
 62
     0
  5
D
 10
0.0
 20
0.0
 30
0.0
 11
0.0
 21
0.0
 31
6.0
1001
AME_SOL
1070
     1
1071
       13
  0
LINE
  8
0
 62
     0
  5
E
 10
3.0
 20
0.0
 30
6.0
 11
3.0
 21
0.0
 31
0.0
1001
AME_SOL
1070
     1
1071
       12
  0
LINE
  8
0
 62
     0
  5
F
 10
0.0
 20
0.0
 30
6.0
 11
3.0
 21
0.0
 31
6.0
1001
AME_SOL
1070
     1
1071
       11
  0
LINE
  8
0
 62
     0
  5
10
 10
0.0
 20
0.0
 30
0.0
 11
3.0
 21
0.0
 31
0.0
1001
AME_SOL
1070
     1
1071
       10
  0
LINE
  8
0
 62
     0
  5
11
 10
0.0
 20
13.999999
 30
0.0
 11
0.0
 21
0.0
 31
0.0
1001
AME_SOL
1070
     1
1071
        9
  0
LINE
  8
0
 62
     0
  5
12
 10
3.0
 20
0.0
 30
0.0
 11
3.0
 21
13.999999
 31
0.0
1001
AME_SOL
1070
     1
1071
        8
  0
LINE
  8
0
 62
     0
  5
13
 10
3.0
 20
13.999999
 30
0.0
 11
0.0
 21
13.999999
 31
0.0
1001
AME_SOL
1070
     1
1071
        7
  0
ENDBLK
  8
0
  5
14
  0
BLOCK
  8
0
  5
18
  2
*U3
 70
    65
 10
0.0
 20
0.0
 30
0.0
  1
*U
  3
*U
  0
LINE
  8
0
 62
     0
  5
19
 10
4.0
 20
6.0
 30
0.0
 11
4.0
 21
6.0
 31
6.0
1001
AME_SOL
1070
     1
1071
       18
  0
LINE
  8
0
 62
     0
  5
1A
 10
4.0
 20
6.0
 30
6.0
 11
4.0
 21
0.0
 31
6.0
1001
AME_SOL
1070
     1
1071
       17
  0
LINE
  8
0
 62
     0
  5
1B
 10
0.0
 20
6.0
 30
6.0
 11
4.0
 21
6.0
 31
6.0
1001
AME_SOL
1070
     1
1071
       16
  0
LINE
  8
0
 62
     0
  5
1C
 10
0.0
 20
6.0
 30
0.0
 11
0.0
 21
6.0
 31
6.0
1001
AME_SOL
1070
     1
1071
       15
  0
LINE
  8
0
 62
     0
  5
1D
 10
0.0
 20
6.0
 30
6.0
 11
0.0
 21
0.0
 31
6.0
1001
AME_SOL
1070
     1
1071
       14
  0
LINE
  8
0
 62
     0
  5
1E
 10
0.0
 20
0.0
 30
0.0
 11
0.0
 21
0.0
 31
6.0
1001
AME_SOL
1070
     1
1071
       13
  0
LINE
  8
0
 62
     0
  5
1F
 10
4.0
 20
0.0
 30
6.0
 11
4.0
 21
0.0
 31
0.0
1001
AME_SOL
1070
     1
1071
       12
  0
LINE
  8
0
 62
     0
  5
20
 10
0.0
 20
0.0
 30
6.0
 11
4.0
 21
0.0
 31
6.0
1001
AME_SOL
1070
     1
1071
       11
  0
LINE
  8
0
 62
     0
  5
21
 10
0.0
 20
0.0
 30
0.0
 11
4.0
 21
0.0
 31
0.0
1001
AME_SOL
1070
     1
1071
       10
  0
LINE
  8
0
 62
     0
  5
22
 10
0.0
 20
6.0
 30
0.0
 11
0.0
 21
0.0
 31
0.0
1001
AME_SOL
1070
     1
1071
        9
  0
LINE
  8
0
 62
     0
  5
23
 10
4.0
 20
0.0
 30
0.0
 11
4.0
 21
6.0
 31
0.0
1001
AME_SOL
1070
     1
1071
        8
  0
LINE
  8
0
 62
     0
  5
24
 10
4.0
 20
6.0
 30
0.0
 11
0.0
 21
6.0
 31
0.0
1001
AME_SOL
1070
     1
1071
        7
  0
ENDBLK
  8
0
  5
25
  0
BLOCK
  8
0
  5
29
  2
*U4
 70
    65
 10
0.0
 20
0.0
 30
0.0
  1
*U
  3
*U
  0
LINE
  8
0
 62
     0
  5
2A
 10
3.0
 20
4.0
 30
0.0
 11
3.0
 21
4.0
 31
10.0
1001
AME_SOL
1070
     1
1071
       18
  0
LINE
  8
0
 62
     0
  5
2B
 10
3.0
 20
4.0
 30
10.0
 11
3.0
 21
0.0
 31
10.0
1001
AME_SOL
1070
     1
1071
       17
  0
LINE
  8
0
 62
     0
  5
2C
 10
0.0
 20
4.0
 30
10.0
 11
3.0
 21
4.0
 31
10.0
1001
AME_SOL
1070
     1
1071
       16
  0
LINE
  8
0
 62
     0
  5
2D
 10
0.0
 20
4.0
 30
0.0
 11
0.0
 21
4.0
 31
10.0
1001
AME_SOL
1070
     1
1071
       15
  0
LINE
  8
0
 62
     0
  5
2E
 10
0.0
 20
4.0
 30
10.0
 11
0.0
 21
0.0
 31
10.0
1001
AME_SOL
1070
     1
1071
       14
  0
LINE
  8
0
 62
     0
  5
2F
 10
0.0
 20
0.0
 30
0.0
 11
0.0
 21
0.0
 31
10.0
1001
AME_SOL
1070
     1
1071
       13
  0
LINE
  8
0
 62
     0
  5
30
 10
3.0
 20
0.0
 30
10.0
 11
3.0
 21
0.0
 31
0.0
1001
AME_SOL
1070
     1
1071
       12
  0
LINE
  8
0
 62
     0
  5
31
 10
0.0
 20
0.0
 30
10.0
 11
3.0
 21
0.0
 31
10.0
1001
AME_SOL
1070
     1
1071
       11
  0
LINE
  8
0
 62
     0
  5
32
 10
0.0
 20
0.0
 30
0.0
 11
3.0
 21
0.0
 31
0.0
1001
AME_SOL
1070
     1
1071
       10
  0
LINE
  8
0
 62
     0
  5
33
 10
0.0
 20
4.0
 30
0.0
 11
0.0
 21
0.0
 31
0.0
1001
AME_SOL
1070
     1
1071
        9
  0
LINE
  8
0
 62
     0
  5
34
 10
3.0
 20
0.0
 30
0.0
 11
3.0
 21
4.0
 31
0.0
1001
AME_SOL
1070
     1
1071
        8
  0
LINE
  8
0
 62
     0
  5
35
 10
3.0
 20
4.0
 30
0.0
 11
0.0
 21
4.0
 31
0.0
1001
AME_SOL
1070
     1
1071
        7
  0
ENDBLK
  8
0
  5
36
  0
BLOCK
  8
0
  5
3A
  2
*U5
 70
    65
 10
0.0
 20
0.0
 30
0.0
  1
*U
  3
*U
  0
LINE
  8
0
 62
     0
  5
3B
 10
8.0
 20
1.0
 30
0.0
 11
8.0
 21
1.0
 31
6.0
1001
AME_SOL
1070
     1
1071
       18
  0
LINE
  8
0
 62
     0
  5
3C
 10
8.0
 20
1.0
 30
6.0
 11
8.0
 21
0.0
 31
6.0
1001
AME_SOL
1070
     1
1071
       17
  0
LINE
  8
0
 62
     0
  5
3D
 10
0.0
 20
1.0
 30
6.0
 11
8.0
 21
1.0
 31
6.0
1001
AME_SOL
1070
     1
1071
       16
  0
LINE
  8
0
 62
     0
  5
3E
 10
0.0
 20
1.0
 30
0.0
 11
0.0
 21
1.0
 31
6.0
1001
AME_SOL
1070
     1
1071
       15
  0
LINE
  8
0
 62
     0
  5
3F
 10
0.0
 20
1.0
 30
6.0
 11
0.0
 21
0.0
 31
6.0
1001
AME_SOL
1070
     1
1071
       14
  0
LINE
  8
0
 62
     0
  5
40
 10
0.0
 20
0.0
 30
0.0
 11
0.0
 21
0.0
 31
6.0
1001
AME_SOL
1070
     1
1071
       13
  0
LINE
  8
0
 62
     0
  5
41
 10
8.0
 20
0.0
 30
6.0
 11
8.0
 21
0.0
 31
0.0
1001
AME_SOL
1070
     1
1071
       12
  0
LINE
  8
0
 62
     0
  5
42
 10
0.0
 20
0.0
 30
6.0
 11
8.0
 21
0.0
 31
6.0
1001
AME_SOL
1070
     1
1071
       11
  0
LINE
  8
0
 62
     0
  5
43
 10
0.0
 20
0.0
 30
0.0
 11
8.0
 21
0.0
 31
0.0
1001
AME_SOL
1070
     1
1071
       10
  0
LINE
  8
0
 62
     0
  5
44
 10
0.0
 20
1.0
 30
0.0
 11
0.0
 21
0.0
 31
0.0
1001
AME_SOL
1070
     1
1071
        9
  0
LINE
  8
0
 62
     0
  5
45
 10
8.0
 20
0.0
 30
0.0
 11
8.0
 21
1.0
 31
0.0
1001
AME_SOL
1070
     1
1071
        8
  0
LINE
  8
0
 62
     0
  5
46
 10
8.0
 20
1.0
 30
0.0
 11
0.0
 21
1.0
 31
0.0
1001
AME_SOL
1070
     1
1071
        7
  0
ENDBLK
  8
0
  5
47
  0
BLOCK
  8
0
  5
4E
  2
*U6
 70
    65
 10
0.0
 20
0.0
 30
0.0
  1
*U
  3
*U
  0
LINE
  8
0
 62
     7
  5
4F
 10
6.0
 20
17.000002
 30
4.0
 11
6.0
 21
17.000002
 31
10.0
1001
AME_SOL
1070
     1
1071
       49
  0
LINE
  8
0
 62
     7
  5
50
 10
2.0
 20
17.000002
 30
10.0
 11
6.0
 21
17.000002
 31
10.0
1001
AME_SOL
1070
     1
1071
       48
  0
LINE
  8
0
 62
     7
  5
51
 10
6.0
 20
8.000001
 30
10.0
 11
6.0
 21
7.0
 31
10.0
1001
AME_SOL
1070
     1
1071
       47
  0
LINE
  8
0
 62
     7
  5
52
 10
6.0
 20
17.000002
 30
10.0
 11
6.0
 21
9.000001
 31
10.0
1001
AME_SOL
1070
     1
1071
       46
  0
LINE
  8
0
 62
     7
  5
53
 10
2.0
 20
17.000002
 30
4.0
 11
2.0
 21
17.000002
 31
10.0
1001
AME_SOL
1070
     1
1071
       45
  0
LINE
  8
0
 62
     7
  5
54
 10
2.0
 20
17.0
 30
10.0
 11
2.0
 21
11.0
 31
10.0
1001
AME_SOL
1070
     1
1071
       44
  0
LINE
  8
0
 62
     7
  5
55
 10
2.0
 20
11.0
 30
4.0
 11
2.0
 21
11.0
 31
10.0
1001
AME_SOL
1070
     1
1071
       43
  0
LINE
  8
0
 62
     7
  5
56
 10
2.0
 20
11.0
 30
10.0
 11
3.0
 21
11.0
 31
10.0
1001
AME_SOL
1070
     1
1071
       42
  0
LINE
  8
0
 62
     7
  5
57
 10
2.0
 20
17.0
 30
4.0
 11
2.0
 21
11.0
 31
4.0
1001
AME_SOL
1070
     1
1071
       41
  0
LINE
  8
0
 62
     7
  5
58
 10
2.0
 20
11.0
 30
4.0
 11
3.0
 21
11.0
 31
4.0
1001
AME_SOL
1070
     1
1071
       40
  0
LINE
  8
0
 62
     7
  5
59
 10
6.0
 20
17.000002
 30
4.0
 11
2.0
 21
17.000002
 31
4.0
1001
AME_SOL
1070
     1
1071
       39
  0
LINE
  8
0
 62
     7
  5
5A
 10
6.0
 20
9.0
 30
4.0
 11
6.0
 21
17.0
 31
4.0
1001
AME_SOL
1070
     1
1071
       38
  0
LINE
  8
0
 62
     7
  5
5B
 10
6.0
 20
3.0
 30
4.0
 11
6.0
 21
8.0
 31
4.0
1001
AME_SOL
1070
     1
1071
       37
  0
LINE
  8
0
 62
     7
  5
5C
 10
3.0
 20
3.0
 30
4.0
 11
3.0
 21
11.0
 31
4.0
1001
AME_SOL
1070
     1
1071
       36
  0
LINE
  8
0
 62
     7
  5
5D
 10
3.0
 20
11.0
 30
10.0
 11
3.0
 21
11.0
 31
4.0
1001
AME_SOL
1070
     1
1071
       35
  0
LINE
  8
0
 62
     7
  5
5E
 10
3.0
 20
11.0
 30
10.0
 11
3.0
 21
7.0
 31
10.0
1001
AME_SOL
1070
     1
1071
       34
  0
LINE
  8
0
 62
     7
  5
5F
 10
6.0
 20
3.0
 30
4.0
 11
3.0
 21
3.0
 31
4.0
1001
AME_SOL
1070
     1
1071
       33
  0
LINE
  8
0
 62
     7
  5
60
 10
6.0
 20
3.0
 30
14.000001
 11
6.0
 21
3.0
 31
4.0
1001
AME_SOL
1070
     1
1071
       32
  0
LINE
  8
0
 62
     7
  5
61
 10
3.0
 20
3.0
 30
4.0
 11
3.0
 21
3.0
 31
14.000002
1001
AME_SOL
1070
     1
1071
       31
  0
LINE
  8
0
 62
     7
  5
62
 10
6.0
 20
7.0
 30
9.999999
 11
6.0
 21
7.0
 31
14.000001
1001
AME_SOL
1070
     1
1071
       30
  0
LINE
  8
0
 62
     7
  5
63
 10
3.0
 20
7.0
 30
14.000001
 11
3.0
 21
7.0
 31
9.999999
1001
AME_SOL
1070
     1
1071
       29
  0
LINE
  8
0
 62
     7
  5
64
 10
6.0
 20
7.0
 30
10.0
 11
3.0
 21
7.0
 31
10.0
1001
AME_SOL
1070
     1
1071
       28
  0
LINE
  8
0
 62
     7
  5
65
 10
6.0
 20
6.999999
 30
14.000001
 11
6.0
 21
3.0
 31
14.000001
1001
AME_SOL
1070
     1
1071
       27
  0
LINE
  8
0
 62
     7
  5
66
 10
3.0
 20
7.0
 30
14.000001
 11
6.0
 21
7.0
 31
14.000001
1001
AME_SOL
1070
     1
1071
       26
  0
LINE
  8
0
 62
     7
  5
67
 10
3.0
 20
3.0
 30
14.000001
 11
3.0
 21
7.0
 31
14.000001
1001
AME_SOL
1070
     1
1071
       25
  0
LINE
  8
0
 62
     7
  5
68
 10
6.0
 20
3.0
 30
14.000001
 11
3.0
 21
3.0
 31
14.000001
1001
AME_SOL
1070
     1
1071
       24
  0
LINE
  8
0
 62
     7
  5
69
 10
13.999999
 20
9.000001
 30
4.0
 11
13.999999
 21
8.0
 31
4.0
1001
AME_SOL
1070
     1
1071
       23
  0
LINE
  8
0
 62
     7
  5
6A
 10
13.999999
 20
8.0
 30
10.0
 11
13.999999
 21
9.0
 31
10.0
1001
AME_SOL
1070
     1
1071
       22
  0
LINE
  8
0
 62
     7
  5
6B
 10
6.0
 20
9.0
 30
4.0
 11
14.0
 21
9.0
 31
4.0
1001
AME_SOL
1070
     1
1071
       21
  0
LINE
  8
0
 62
     7
  5
6C
 10
6.0
 20
9.0
 30
4.0
 11
6.0
 21
9.0
 31
10.0
1001
AME_SOL
1070
     1
1071
       20
  0
LINE
  8
0
 62
     7
  5
6D
 10
13.999999
 20
9.0
 30
4.0
 11
13.999999
 21
9.0
 31
10.0
1001
AME_SOL
1070
     1
1071
       19
  0
LINE
  8
0
 62
     7
  5
6E
 10
14.0
 20
9.0
 30
10.0
 11
6.0
 21
9.0
 31
10.0
1001
AME_SOL
1070
     1
1071
       18
  0
LINE
  8
0
 62
     7
  5
6F
 10
14.0
 20
8.0
 30
4.0
 11
6.0
 21
8.0
 31
4.0
1001
AME_SOL
1070
     1
1071
       17
  0
LINE
  8
0
 62
     7
  5
70
 10
6.0
 20
8.0
 30
10.0
 11
6.0
 21
8.0
 31
4.0
1001
AME_SOL
1070
     1
1071
       16
  0
LINE
  8
0
 62
     7
  5
71
 10
13.999999
 20
8.0
 30
10.0
 11
13.999999
 21
8.0
 31
4.0
1001
AME_SOL
1070
     1
1071
       15
  0
LINE
  8
0
 62
     7
  5
72
 10
6.0
 20
8.0
 30
10.0
 11
13.999999
 21
8.0
 31
10.0
1001
AME_SOL
1070
     1
1071
       14
  0
ENDBLK
  8
0
  5
73
  0
BLOCK
  8
0
  5
77
  2
*U7
 70
    65
 10
0.0
 20
0.0
 30
0.0
  1
*U
  3
*U
  0
LINE
  8
0
 62
     0
  5
78
 10
14.0
 20
19.0
 30
0.0
 11
14.0
 21
19.0
 31
14.0
1001
AME_SOL
1070
     1
1071
       18
  0
LINE
  8
0
 62
     0
  5
79
 10
14.0
 20
19.0
 30
14.0
 11
14.0
 21
0.0
 31
14.0
1001
AME_SOL
1070
     1
1071
       17
  0
LINE
  8
0
 62
     0
  5
7A
 10
0.0
 20
19.0
 30
14.0
 11
14.0
 21
19.0
 31
14.0
1001
AME_SOL
1070
     1
1071
       16
  0
LINE
  8
0
 62
     0
  5
7B
 10
0.0
 20
19.0
 30
0.0
 11
0.0
 21
19.0
 31
14.0
1001
AME_SOL
1070
     1
1071
       15
  0
LINE
  8
0
 62
     0
  5
7C
 10
0.0
 20
19.0
 30
14.0
 11
0.0
 21
0.0
 31
14.0
1001
AME_SOL
1070
     1
1071
       14
  0
LINE
  8
0
 62
     0
  5
7D
 10
0.0
 20
0.0
 30
0.0
 11
0.0
 21
0.0
 31
14.0
1001
AME_SOL
1070
     1
1071
       13
  0
LINE
  8
0
 62
     0
  5
7E
 10
14.0
 20
0.0
 30
14.0
 11
14.0
 21
0.0
 31
0.0
1001
AME_SOL
1070
     1
1071
       12
  0
LINE
  8
0
 62
     0
  5
7F
 10
0.0
 20
0.0
 30
14.0
 11
14.0
 21
0.0
 31
14.0
1001
AME_SOL
1070
     1
1071
       11
  0
LINE
  8
0
 62
     0
  5
80
 10
0.0
 20
0.0
 30
0.0
 11
14.0
 21
0.0
 31
0.0
1001
AME_SOL
1070
     1
1071
       10
  0
LINE
  8
0
 62
     0
  5
81
 10
0.0
 20
19.0
 30
0.0
 11
0.0
 21
0.0
 31
0.0
1001
AME_SOL
1070
     1
1071
        9
  0
LINE
  8
0
 62
     0
  5
82
 10
14.0
 20
0.0
 30
0.0
 11
14.0
 21
19.0
 31
0.0
1001
AME_SOL
1070
     1
1071
        8
  0
LINE
  8
0
 62
     0
  5
83
 10
14.0
 20
19.0
 30
0.0
 11
0.0
 21
19.0
 31
0.0
1001
AME_SOL
1070
     1
1071
        7
  0
ENDBLK
  8
0
  5
84
  0
BLOCK
  8
0
  5
89
  2
*U8
 70
    65
 10
0.0
 20
0.0
 30
0.0
  1
*U
  3
*U
  0
LINE
  8
0
 62
     7
  5
8A
 10
14.0
 20
19.0
 30
0.0
 11
14.0
 21
19.0
 31
14.0
1001
AME_SOL
1070
     1
1071
       65
  0
LINE
  8
0
 62
     7
  5
8B
 10
14.0
 20
19.0
 30
14.0
 11
14.0
 21
0.0
 31
14.0
1001
AME_SOL
1070
     1
1071
       64
  0
LINE
  8
0
 62
     7
  5
8C
 10
0.0
 20
19.0
 30
14.0
 11
14.0
 21
19.0
 31
14.0
1001
AME_SOL
1070
     1
1071
       63
  0
LINE
  8
0
 62
     7
  5
8D
 10
0.0
 20
19.0
 30
0.0
 11
0.0
 21
19.0
 31
14.0
1001
AME_SOL
1070
     1
1071
       62
  0
LINE
  8
0
 62
     7
  5
8E
 10
0.0
 20
19.0
 30
14.0
 11
0.0
 21
0.0
 31
14.0
1001
AME_SOL
1070
     1
1071
       61
  0
LINE
  8
0
 62
     7
  5
8F
 10
0.0
 20
0.0
 30
0.0
 11
0.0
 21
0.0
 31
14.0
1001
AME_SOL
1070
     1
1071
       60
  0
LINE
  8
0
 62
     7
  5
90
 10
14.0
 20
0.0
 30
14.0
 11
14.0
 21
0.0
 31
0.0
1001
AME_SOL
1070
     1
1071
       59
  0
LINE
  8
0
 62
     7
  5
91
 10
0.0
 20
0.0
 30
14.0
 11
14.0
 21
0.0
 31
14.0
1001
AME_SOL
1070
     1
1071
       58
  0
LINE
  8
0
 62
     7
  5
92
 10
0.0
 20
0.0
 30
0.0
 11
14.0
 21
0.0
 31
0.0
1001
AME_SOL
1070
     1
1071
       57
  0
LINE
  8
0
 62
     7
  5
93
 10
0.0
 20
19.0
 30
0.0
 11
0.0
 21
0.0
 31
0.0
1001
AME_SOL
1070
     1
1071
       56
  0
LINE
  8
0
 62
     7
  5
94
 10
14.0
 20
0.0
 30
0.0
 11
14.0
 21
19.0
 31
0.0
1001
AME_SOL
1070
     1
1071
       55
  0
LINE
  8
0
 62
     7
  5
95
 10
14.0
 20
19.0
 30
0.0
 11
0.0
 21
19.0
 31
0.0
1001
AME_SOL
1070
     1
1071
       54
  0
LINE
  8
0
 62
     7
  5
96
 10
6.0
 20
3.000001
 30
14.0
 11
6.0
 21
7.000001
 31
14.0
1001
AME_SOL
1070
     1
1071
       53
  0
LINE
  8
0
 62
     7
  5
97
 10
6.0
 20
17.000002
 30
4.0
 11
6.0
 21
17.000002
 31
10.0
1001
AME_SOL
1070
     1
1071
       52
  0
LINE
  8
0
 62
     7
  5
98
 10
14.0
 20
9.000001
 30
10.0
 11
14.0
 21
8.000001
 31
10.0
1001
AME_SOL
1070
     1
1071
       51
  0
LINE
  8
0
 62
     7
  5
99
 10
1.999999
 20
17.000002
 30
10.0
 11
6.0
 21
17.000002
 31
10.0
1001
AME_SOL
1070
     1
1071
       50
  0
LINE
  8
0
 62
     7
  5
9A
 10
6.0
 20
8.000001
 30
10.0
 11
6.0
 21
7.000001
 31
10.0
1001
AME_SOL
1070
     1
1071
       49
  0
LINE
  8
0
 62
     7
  5
9B
 10
6.0
 20
17.000002
 30
10.0
 11
6.0
 21
9.000001
 31
10.0
1001
AME_SOL
1070
     1
1071
       48
  0
LINE
  8
0
 62
     7
  5
9C
 10
2.0
 20
17.000002
 30
4.0
 11
2.0
 21
17.000002
 31
9.999999
1001
AME_SOL
1070
     1
1071
       47
  0
LINE
  8
0
 62
     7
  5
9D
 10
2.0
 20
17.0
 30
10.0
 11
2.0
 21
11.0
 31
10.0
1001
AME_SOL
1070
     1
1071
       46
  0
LINE
  8
0
 62
     7
  5
9E
 10
2.0
 20
11.0
 30
4.0
 11
2.0
 21
11.0
 31
10.0
1001
AME_SOL
1070
     1
1071
       45
  0
LINE
  8
0
 62
     7
  5
9F
 10
2.0
 20
11.0
 30
10.0
 11
3.0
 21
11.0
 31
10.0
1001
AME_SOL
1070
     1
1071
       44
  0
LINE
  8
0
 62
     7
  5
A0
 10
2.0
 20
11.0
 30
4.0
 11
3.0
 21
11.0
 31
4.0
1001
AME_SOL
1070
     1
1071
       43
  0
LINE
  8
0
 62
     7
  5
A1
 10
14.0
 20
8.0
 30
4.0
 11
14.0
 21
9.0
 31
4.0
1001
AME_SOL
1070
     1
1071
       42
  0
LINE
  8
0
 62
     7
  5
A2
 10
2.0
 20
17.0
 30
4.0
 11
2.0
 21
11.0
 31
4.0
1001
AME_SOL
1070
     1
1071
       41
  0
LINE
  8
0
 62
     7
  5
A3
 10
6.0
 20
17.000002
 30
4.0
 11
2.0
 21
17.000002
 31
4.0
1001
AME_SOL
1070
     1
1071
       40
  0
LINE
  8
0
 62
     7
  5
A4
 10
6.0
 20
9.0
 30
4.0
 11
6.0
 21
17.0
 31
4.0
1001
AME_SOL
1070
     1
1071
       39
  0
LINE
  8
0
 62
     7
  5
A5
 10
6.0
 20
3.0
 30
4.0
 11
6.0
 21
8.0
 31
4.0
1001
AME_SOL
1070
     1
1071
       38
  0
LINE
  8
0
 62
     7
  5
A6
 10
3.0
 20
3.0
 30
4.0
 11
3.0
 21
11.0
 31
4.0
1001
AME_SOL
1070
     1
1071
       37
  0
LINE
  8
0
 62
     7
  5
A7
 10
3.0
 20
11.0
 30
10.0
 11
3.0
 21
11.0
 31
4.0
1001
AME_SOL
1070
     1
1071
       36
  0
LINE
  8
0
 62
     7
  5
A8
 10
3.0
 20
7.0
 30
14.000001
 11
3.0
 21
3.0
 31
14.000001
1001
AME_SOL
1070
     1
1071
       35
  0
LINE
  8
0
 62
     7
  5
A9
 10
3.0
 20
11.0
 30
10.0
 11
3.0
 21
7.0
 31
10.0
1001
AME_SOL
1070
     1
1071
       34
  0
LINE
  8
0
 62
     7
  5
AA
 10
6.0
 20
3.0
 30
4.0
 11
3.0
 21
3.0
 31
4.0
1001
AME_SOL
1070
     1
1071
       33
  0
LINE
  8
0
 62
     7
  5
AB
 10
3.0
 20
3.0
 30
4.0
 11
3.0
 21
3.0
 31
14.000001
1001
AME_SOL
1070
     1
1071
       32
  0
LINE
  8
0
 62
     7
  5
AC
 10
3.0
 20
3.0
 30
14.000001
 11
6.0
 21
3.0
 31
14.000001
1001
AME_SOL
1070
     1
1071
       31
  0
LINE
  8
0
 62
     7
  5
AD
 10
6.0
 20
3.0
 30
14.000001
 11
6.0
 21
3.0
 31
4.0
1001
AME_SOL
1070
     1
1071
       30
  0
LINE
  8
0
 62
     7
  5
AE
 10
3.0
 20
7.0
 30
14.0
 11
3.0
 21
7.0
 31
9.999999
1001
AME_SOL
1070
     1
1071
       29
  0
LINE
  8
0
 62
     7
  5
AF
 10
6.0
 20
7.0
 30
14.0
 11
3.0
 21
7.0
 31
14.0
1001
AME_SOL
1070
     1
1071
       28
  0
LINE
  8
0
 62
     7
  5
B0
 10
6.0
 20
7.0
 30
9.999998
 11
6.0
 21
7.0
 31
14.0
1001
AME_SOL
1070
     1
1071
       27
  0
LINE
  8
0
 62
     7
  5
B1
 10
6.0
 20
7.0
 30
10.0
 11
3.0
 21
7.0
 31
10.0
1001
AME_SOL
1070
     1
1071
       26
  0
LINE
  8
0
 62
     7
  5
B2
 10
6.0
 20
9.0
 30
4.0
 11
14.0
 21
9.0
 31
4.0
1001
AME_SOL
1070
     1
1071
       25
  0
LINE
  8
0
 62
     7
  5
B3
 10
6.0
 20
9.0
 30
4.0
 11
6.0
 21
9.0
 31
10.0
1001
AME_SOL
1070
     1
1071
       24
  0
LINE
  8
0
 62
     7
  5
B4
 10
14.0
 20
9.0
 30
4.0
 11
14.0
 21
9.0
 31
10.0
1001
AME_SOL
1070
     1
1071
       23
  0
LINE
  8
0
 62
     7
  5
B5
 10
14.0
 20
9.0
 30
10.0
 11
6.0
 21
9.0
 31
10.0
1001
AME_SOL
1070
     1
1071
       22
  0
LINE
  8
0
 62
     7
  5
B6
 10
14.0
 20
8.0
 30
4.0
 11
6.0
 21
8.0
 31
4.0
1001
AME_SOL
1070
     1
1071
       21
  0
LINE
  8
0
 62
     7
  5
B7
 10
6.0
 20
8.0
 30
9.999999
 11
6.0
 21
8.0
 31
4.0
1001
AME_SOL
1070
     1
1071
       20
  0
LINE
  8
0
 62
     7
  5
B8
 10
14.0
 20
8.0
 30
10.0
 11
14.0
 21
8.0
 31
4.0
1001
AME_SOL
1070
     1
1071
       19
  0
LINE
  8
0
 62
     7
  5
B9
 10
6.0
 20
8.0
 30
10.0
 11
13.999998
 21
8.0
 31
10.0
1001
AME_SOL
1070
     1
1071
       18
  0
ENDBLK
  8
0
  5
BA
  0
BLOCK
  8
0
  5
BE
  2
*U9
 70
    65
 10
0.0
 20
0.0
 30
0.0
  1
*U
  3
*U
  0
LINE
  8
0
 62
     0
  5
BF
 10
4.0
 20
2.0
 30
0.0
 11
4.0
 21
2.0
 31
13.999999
1001
AME_SOL
1070
     1
1071
       18
  0
LINE
  8
0
 62
     0
  5
C0
 10
4.0
 20
2.0
 30
13.999999
 11
4.0
 21
0.0
 31
13.999999
1001
AME_SOL
1070
     1
1071
       17
  0
LINE
  8
0
 62
     0
  5
C1
 10
0.0
 20
2.0
 30
13.999999
 11
4.0
 21
2.0
 31
13.999999
1001
AME_SOL
1070
     1
1071
       16
  0
LINE
  8
0
 62
     0
  5
C2
 10
0.0
 20
2.0
 30
0.0
 11
0.0
 21
2.0
 31
13.999999
1001
AME_SOL
1070
     1
1071
       15
  0
LINE
  8
0
 62
     0
  5
C3
 10
0.0
 20
2.0
 30
13.999999
 11
0.0
 21
0.0
 31
13.999999
1001
AME_SOL
1070
     1
1071
       14
  0
LINE
  8
0
 62
     0
  5
C4
 10
0.0
 20
0.0
 30
0.0
 11
0.0
 21
0.0
 31
13.999999
1001
AME_SOL
1070
     1
1071
       13
  0
LINE
  8
0
 62
     0
  5
C5
 10
4.0
 20
0.0
 30
13.999999
 11
4.0
 21
0.0
 31
0.0
1001
AME_SOL
1070
     1
1071
       12
  0
LINE
  8
0
 62
     0
  5
C6
 10
0.0
 20
0.0
 30
13.999999
 11
4.0
 21
0.0
 31
13.999999
1001
AME_SOL
1070
     1
1071
       11
  0
LINE
  8
0
 62
     0
  5
C7
 10
0.0
 20
0.0
 30
0.0
 11
4.0
 21
0.0
 31
0.0
1001
AME_SOL
1070
     1
1071
       10
  0
LINE
  8
0
 62
     0
  5
C8
 10
0.0
 20
2.0
 30
0.0
 11
0.0
 21
0.0
 31
0.0
1001
AME_SOL
1070
     1
1071
        9
  0
LINE
  8
0
 62
     0
  5
C9
 10
4.0
 20
0.0
 30
0.0
 11
4.0
 21
2.0
 31
0.0
1001
AME_SOL
1070
     1
1071
        8
  0
LINE
  8
0
 62
     0
  5
CA
 10
4.0
 20
2.0
 30
0.0
 11
0.0
 21
2.0
 31
0.0
1001
AME_SOL
1070
     1
1071
        7
  0
ENDBLK
  8
0
  5
CB
  0
BLOCK
  8
0
  5
CF
  2
*U10
 70
    65
 10
0.0
 20
0.0
 30
0.0
  1
*U
  3
*U
  0
LINE
  8
0
 62
     0
  5
D0
 10
2.0
 20
2.0
 30
0.0
 11
2.0
 21
2.0
 31
2.0
1001
AME_SOL
1070
     1
1071
       18
  0
LINE
  8
0
 62
     0
  5
D1
 10
2.0
 20
2.0
 30
2.0
 11
2.0
 21
0.0
 31
2.0
1001
AME_SOL
1070
     1
1071
       17
  0
LINE
  8
0
 62
     0
  5
D2
 10
0.0
 20
2.0
 30
2.0
 11
2.0
 21
2.0
 31
2.0
1001
AME_SOL
1070
     1
1071
       16
  0
LINE
  8
0
 62
     0
  5
D3
 10
0.0
 20
2.0
 30
0.0
 11
0.0
 21
2.0
 31
2.0
1001
AME_SOL
1070
     1
1071
       15
  0
LINE
  8
0
 62
     0
  5
D4
 10
0.0
 20
2.0
 30
2.0
 11
0.0
 21
0.0
 31
2.0
1001
AME_SOL
1070
     1
1071
       14
  0
LINE
  8
0
 62
     0
  5
D5
 10
0.0
 20
0.0
 30
0.0
 11
0.0
 21
0.0
 31
2.0
1001
AME_SOL
1070
     1
1071
       13
  0
LINE
  8
0
 62
     0
  5
D6
 10
2.0
 20
0.0
 30
2.0
 11
2.0
 21
0.0
 31
0.0
1001
AME_SOL
1070
     1
1071
       12
  0
LINE
  8
0
 62
     0
  5
D7
 10
0.0
 20
0.0
 30
2.0
 11
2.0
 21
0.0
 31
2.0
1001
AME_SOL
1070
     1
1071
       11
  0
LINE
  8
0
 62
     0
  5
D8
 10
0.0
 20
0.0
 30
0.0
 11
2.0
 21
0.0
 31
0.0
1001
AME_SOL
1070
     1
1071
       10
  0
LINE
  8
0
 62
     0
  5
D9
 10
0.0
 20
2.0
 30
0.0
 11
0.0
 21
0.0
 31
0.0
1001
AME_SOL
1070
     1
1071
        9
  0
LINE
  8
0
 62
     0
  5
DA
 10
2.0
 20
0.0
 30
0.0
 11
2.0
 21
2.0
 31
0.0
1001
AME_SOL
1070
     1
1071
        8
  0
LINE
  8
0
 62
     0
  5
DB
 10
2.0
 20
2.0
 30
0.0
 11
0.0
 21
2.0
 31
0.0
1001
AME_SOL
1070
     1
1071
        7
  0
ENDBLK
  8
0
  5
DC
  0
BLOCK
  8
0
  5
E1
  2
*U11
 70
    65
 10
0.0
 20
0.0
 30
0.0
  1
*U
  3
*U
  0
LINE
  8
0
 62
     7
  5
E2
 10
6.0
 20
19.000002
 30
0.0
 11
6.0
 21
19.000002
 31
13.999999
1001
AME_SOL
1070
     1
1071
       26
  0
LINE
  8
0
 62
     7
  5
E3
 10
6.0
 20
19.000002
 30
13.999999
 11
6.0
 21
17.000002
 31
13.999999
1001
AME_SOL
1070
     1
1071
       25
  0
LINE
  8
0
 62
     7
  5
E4
 10
2.0
 20
19.000002
 30
13.999999
 11
6.0
 21
19.000002
 31
13.999999
1001
AME_SOL
1070
     1
1071
       24
  0
LINE
  8
0
 62
     7
  5
E5
 10
2.0
 20
19.000002
 30
2.0
 11
2.0
 21
19.000002
 31
13.999999
1001
AME_SOL
1070
     1
1071
       23
  0
LINE
  8
0
 62
     7
  5
E6
 10
2.0
 20
19.000002
 30
13.999999
 11
2.0
 21
17.0
 31
13.999999
1001
AME_SOL
1070
     1
1071
       22
  0
LINE
  8
0
 62
     7
  5
E7
 10
2.0
 20
17.000002
 30
2.0
 11
2.0
 21
17.000002
 31
13.999999
1001
AME_SOL
1070
     1
1071
       21
  0
LINE
  8
0
 62
     7
  5
E8
 10
6.0
 20
17.000002
 30
13.999999
 11
6.0
 21
17.000002
 31
0.0
1001
AME_SOL
1070
     1
1071
       20
  0
LINE
  8
0
 62
     7
  5
E9
 10
2.0
 20
17.000002
 30
13.999999
 11
6.0
 21
17.000002
 31
13.999999
1001
AME_SOL
1070
     1
1071
       19
  0
LINE
  8
0
 62
     7
  5
EA
 10
4.0
 20
17.000002
 30
0.0
 11
6.0
 21
17.000002
 31
0.0
1001
AME_SOL
1070
     1
1071
       18
  0
LINE
  8
0
 62
     7
  5
EB
 10
6.0
 20
17.0
 30
0.0
 11
6.0
 21
19.000002
 31
0.0
1001
AME_SOL
1070
     1
1071
       17
  0
LINE
  8
0
 62
     7
  5
EC
 10
6.0
 20
19.000002
 30
0.0
 11
4.0
 21
19.000002
 31
0.0
1001
AME_SOL
1070
     1
1071
       16
  0
LINE
  8
0
 62
     7
  5
ED
 10
4.0
 20
17.000002
 30
0.0
 11
4.0
 21
17.000002
 31
2.0
1001
AME_SOL
1070
     1
1071
       15
  0
LINE
  8
0
 62
     7
  5
EE
 10
4.0
 20
19.000002
 30
2.0
 11
4.0
 21
19.000002
 31
0.0
1001
AME_SOL
1070
     1
1071
       14
  0
LINE
  8
0
 62
     7
  5
EF
 10
4.0
 20
19.000002
 30
0.0
 11
4.0
 21
17.0
 31
0.0
1001
AME_SOL
1070
     1
1071
       13
  0
LINE
  8
0
 62
     7
  5
F0
 10
4.0
 20
17.000002
 30
2.0
 11
2.0
 21
17.000002
 31
2.0
1001
AME_SOL
1070
     1
1071
       12
  0
LINE
  8
0
 62
     7
  5
F1
 10
2.0
 20
17.0
 30
2.0
 11
2.0
 21
19.000002
 31
2.0
1001
AME_SOL
1070
     1
1071
       11
  0
LINE
  8
0
 62
     7
  5
F2
 10
2.0
 20
19.000002
 30
2.0
 11
4.0
 21
19.000002
 31
2.0
1001
AME_SOL
1070
     1
1071
       10
  0
LINE
  8
0
 62
     7
  5
F3
 10
4.0
 20
19.000002
 30
2.0
 11
4.0
 21
17.000002
 31
2.0
1001
AME_SOL
1070
     1
1071
        9
  0
ENDBLK
  8
0
  5
F4
  0
BLOCK
  8
0
  5
F8
  2
*U12
 70
    65
 10
0.0
 20
0.0
 30
0.0
  1
*U
  3
*U
  0
LINE
  8
0
 62
     0
  5
F9
 10
2.0
 20
1.0
 30
0.0
 11
2.0
 21
1.0
 31
4.0
1001
AME_SOL
1070
     1
1071
       18
  0
LINE
  8
0
 62
     0
  5
FA
 10
2.0
 20
1.0
 30
4.0
 11
2.0
 21
0.0
 31
4.0
1001
AME_SOL
1070
     1
1071
       17
  0
LINE
  8
0
 62
     0
  5
FB
 10
0.0
 20
1.0
 30
4.0
 11
2.0
 21
1.0
 31
4.0
1001
AME_SOL
1070
     1
1071
       16
  0
LINE
  8
0
 62
     0
  5
FC
 10
0.0
 20
1.0
 30
0.0
 11
0.0
 21
1.0
 31
4.0
1001
AME_SOL
1070
     1
1071
       15
  0
LINE
  8
0
 62
     0
  5
FD
 10
0.0
 20
1.0
 30
4.0
 11
0.0
 21
0.0
 31
4.0
1001
AME_SOL
1070
     1
1071
       14
  0
LINE
  8
0
 62
     0
  5
FE
 10
0.0
 20
0.0
 30
0.0
 11
0.0
 21
0.0
 31
4.0
1001
AME_SOL
1070
     1
1071
       13
  0
LINE
  8
0
 62
     0
  5
FF
 10
2.0
 20
0.0
 30
4.0
 11
2.0
 21
0.0
 31
0.0
1001
AME_SOL
1070
     1
1071
       12
  0
LINE
  8
0
 62
     0
  5
100
 10
0.0
 20
0.0
 30
4.0
 11
2.0
 21
0.0
 31
4.0
1001
AME_SOL
1070
     1
1071
       11
  0
LINE
  8
0
 62
     0
  5
101
 10
0.0
 20
0.0
 30
0.0
 11
2.0
 21
0.0
 31
0.0
1001
AME_SOL
1070
     1
1071
       10
  0
LINE
  8
0
 62
     0
  5
102
 10
0.0
 20
1.0
 30
0.0
 11
0.0
 21
0.0
 31
0.0
1001
AME_SOL
1070
     1
1071
        9
  0
LINE
  8
0
 62
     0
  5
103
 10
2.0
 20
0.0
 30
0.0
 11
2.0
 21
1.0
 31
0.0
1001
AME_SOL
1070
     1
1071
        8
  0
LINE
  8
0
 62
     0
  5
104
 10
2.0
 20
1.0
 30
0.0
 11
0.0
 21
1.0
 31
0.0
1001
AME_SOL
1070
     1
1071
        7
  0
ENDBLK
  8
0
  5
105
  0
BLOCK
  8
0
  5
10A
  2
*U13
 70
    65
 10
0.0
 20
0.0
 30
0.0
  1
*U
  3
*U
  0
LINE
  8
0
 62
     7
  5
10B
 10
6.0
 20
19.000004
 30
0.0
 11
6.0
 21
19.000004
 31
13.999999
1001
AME_SOL
1070
     1
1071
       42
  0
LINE
  8
0
 62
     7
  5
10C
 10
6.0
 20
19.000002
 30
13.999999
 11
6.0
 21
17.000002
 31
13.999999
1001
AME_SOL
1070
     1
1071
       41
  0
LINE
  8
0
 62
     7
  5
10D
 10
2.0
 20
19.000004
 30
13.999999
 11
6.0
 21
19.000004
 31
13.999999
1001
AME_SOL
1070
     1
1071
       40
  0
LINE
  8
0
 62
     7
  5
10E
 10
2.0
 20
19.000002
 30
13.999999
 11
2.0
 21
17.0
 31
13.999999
1001
AME_SOL
1070
     1
1071
       39
  0
LINE
  8
0
 62
     7
  5
10F
 10
2.0
 20
19.000004
 30
9.0
 11
2.0
 21
19.000004
 31
13.999999
1001
AME_SOL
1070
     1
1071
       38
  0
LINE
  8
0
 62
     7
  5
110
 10
2.0
 20
19.000004
 30
2.0
 11
2.0
 21
19.000004
 31
5.0
1001
AME_SOL
1070
     1
1071
       37
  0
LINE
  8
0
 62
     7
  5
111
 10
2.0
 20
17.000002
 30
2.0
 11
2.0
 21
17.000002
 31
13.999999
1001
AME_SOL
1070
     1
1071
       36
  0
LINE
  8
0
 62
     7
  5
112
 10
6.0
 20
17.000002
 30
13.999999
 11
6.0
 21
17.000002
 31
0.0
1001
AME_SOL
1070
     1
1071
       35
  0
LINE
  8
0
 62
     7
  5
113
 10
2.0
 20
17.000002
 30
13.999999
 11
6.0
 21
17.000002
 31
13.999999
1001
AME_SOL
1070
     1
1071
       34
  0
LINE
  8
0
 62
     7
  5
114
 10
4.0
 20
17.000002
 30
0.0
 11
6.0
 21
17.000002
 31
0.0
1001
AME_SOL
1070
     1
1071
       33
  0
LINE
  8
0
 62
     7
  5
115
 10
6.0
 20
17.0
 30
0.0
 11
6.0
 21
19.000002
 31
0.0
1001
AME_SOL
1070
     1
1071
       32
  0
LINE
  8
0
 62
     7
  5
116
 10
6.0
 20
19.000004
 30
0.0
 11
4.0
 21
19.000004
 31
0.0
1001
AME_SOL
1070
     1
1071
       31
  0
LINE
  8
0
 62
     7
  5
117
 10
4.0
 20
17.000002
 30
0.0
 11
4.0
 21
17.000002
 31
2.0
1001
AME_SOL
1070
     1
1071
       30
  0
LINE
  8
0
 62
     7
  5
118
 10
4.0
 20
19.000002
 30
0.0
 11
4.0
 21
17.0
 31
0.0
1001
AME_SOL
1070
     1
1071
       29
  0
LINE
  8
0
 62
     7
  5
119
 10
4.0
 20
19.000004
 30
2.0
 11
4.0
 21
19.000004
 31
0.0
1001
AME_SOL
1070
     1
1071
       28
  0
LINE
  8
0
 62
     7
  5
11A
 10
4.0
 20
17.000002
 30
2.0
 11
2.0
 21
17.000002
 31
2.0
1001
AME_SOL
1070
     1
1071
       27
  0
LINE
  8
0
 62
     7
  5
11B
 10
2.0
 20
17.0
 30
2.0
 11
2.0
 21
19.000002
 31
2.0
1001
AME_SOL
1070
     1
1071
       26
  0
LINE
  8
0
 62
     7
  5
11C
 10
4.0
 20
19.000002
 30
2.0
 11
4.0
 21
17.000002
 31
2.0
1001
AME_SOL
1070
     1
1071
       25
  0
LINE
  8
0
 62
     7
  5
11D
 10
2.0
 20
19.000004
 30
2.0
 11
4.0
 21
19.000004
 31
2.0
1001
AME_SOL
1070
     1
1071
       24
  0
LINE
  8
0
 62
     7
  5
11E
 10
2.0
 20
18.0
 30
9.0
 11
2.0
 21
19.000004
 31
9.0
1001
AME_SOL
1070
     1
1071
       23
  0
LINE
  8
0
 62
     7
  5
11F
 10
0.0
 20
19.000004
 30
9.0
 11
2.0
 21
19.000004
 31
9.0
1001
AME_SOL
1070
     1
1071
       22
  0
LINE
  8
0
 62
     7
  5
120
 10
0.0
 20
19.000004
 30
5.0
 11
0.0
 21
19.000004
 31
9.0
1001
AME_SOL
1070
     1
1071
       21
  0
LINE
  8
0
 62
     7
  5
121
 10
0.0
 20
19.000004
 30
9.0
 11
0.0
 21
18.0
 31
9.0
1001
AME_SOL
1070
     1
1071
       20
  0
LINE
  8
0
 62
     7
  5
122
 10
2.0
 20
18.0
 30
5.0
 11
2.0
 21
18.0
 31
9.0
1001
AME_SOL
1070
     1
1071
       19
  0
LINE
  8
0
 62
     7
  5
123
 10
0.0
 20
18.0
 30
9.0
 11
2.0
 21
18.0
 31
9.0
1001
AME_SOL
1070
     1
1071
       18
  0
LINE
  8
0
 62
     7
  5
124
 10
0.0
 20
18.0
 30
5.0
 11
0.0
 21
18.0
 31
9.0
1001
AME_SOL
1070
     1
1071
       17
  0
LINE
  8
0
 62
     7
  5
125
 10
2.0
 20
19.000002
 30
5.0
 11
2.0
 21
18.0
 31
5.0
1001
AME_SOL
1070
     1
1071
       16
  0
LINE
  8
0
 62
     7
  5
126
 10
2.0
 20
19.000004
 30
5.0
 11
0.0
 21
19.000004
 31
5.0
1001
AME_SOL
1070
     1
1071
       15
  0
LINE
  8
0
 62
     7
  5
127
 10
0.0
 20
19.000004
 30
5.0
 11
0.0
 21
18.0
 31
5.0
1001
AME_SOL
1070
     1
1071
       14
  0
LINE
  8
0
 62
     7
  5
128
 10
0.0
 20
18.0
 30
5.0
 11
2.0
 21
18.0
 31
5.0
1001
AME_SOL
1070
     1
1071
       13
  0
ENDBLK
  8
0
  5
129
  0
BLOCK
  8
0
  5
12E
  2
*U14
 70
    65
 10
0.0
 20
0.0
 30
0.0
  1
*U
  3
*U
  0
LINE
  8
0
 62
     7
  5
12F
 10
14.0
 20
19.0
 30
0.0
 11
14.0
 21
19.0
 31
14.0
1001
AME_SOL
1070
     1
1071
      100
  0
LINE
  8
0
 62
     7
  5
130
 10
14.0
 20
19.0
 30
14.0
 11
14.0
 21
0.0
 31
14.0
1001
AME_SOL
1070
     1
1071
       99
  0
LINE
  8
0
 62
     7
  5
131
 10
6.0
 20
19.0
 30
14.0
 11
14.0
 21
19.0
 31
14.0
1001
AME_SOL
1070
     1
1071
       98
  0
LINE
  8
0
 62
     7
  5
132
 10
0.0
 20
19.0
 30
14.0
 11
2.000001
 21
19.0
 31
14.0
1001
AME_SOL
1070
     1
1071
       97
  0
LINE
  8
0
 62
     7
  5
133
 10
0.0
 20
19.0
 30
14.0
 11
0.0
 21
0.0
 31
14.0
1001
AME_SOL
1070
     1
1071
       96
  0
LINE
  8
0
 62
     7
  5
134
 10
0.0
 20
19.0
 30
9.000001
 11
0.0
 21
19.0
 31
14.0
1001
AME_SOL
1070
     1
1071
       95
  0
LINE
  8
0
 62
     7
  5
135
 10
0.0
 20
19.0
 30
0.0
 11
0.0
 21
19.0
 31
5.000001
1001
AME_SOL
1070
     1
1071
       94
  0
LINE
  8
0
 62
     7
  5
136
 10
0.0
 20
0.0
 30
0.0
 11
0.0
 21
0.0
 31
14.0
1001
AME_SOL
1070
     1
1071
       93
  0
LINE
  8
0
 62
     7
  5
137
 10
14.0
 20
0.0
 30
14.0
 11
14.0
 21
0.0
 31
0.0
1001
AME_SOL
1070
     1
1071
       92
  0
LINE
  8
0
 62
     7
  5
138
 10
0.0
 20
0.0
 30
14.0
 11
14.0
 21
0.0
 31
14.0
1001
AME_SOL
1070
     1
1071
       91
  0
LINE
  8
0
 62
     7
  5
139
 10
0.0
 20
0.0
 30
0.0
 11
14.0
 21
0.0
 31
0.0
1001
AME_SOL
1070
     1
1071
       90
  0
LINE
  8
0
 62
     7
  5
13A
 10
0.0
 20
19.0
 30
0.0
 11
0.0
 21
0.0
 31
0.0
1001
AME_SOL
1070
     1
1071
       89
  0
LINE
  8
0
 62
     7
  5
13B
 10
14.0
 20
0.0
 30
0.0
 11
14.0
 21
19.0
 31
0.0
1001
AME_SOL
1070
     1
1071
       88
  0
LINE
  8
0
 62
     7
  5
13C
 10
4.0
 20
19.0
 30
0.0
 11
0.0
 21
19.0
 31
0.0
1001
AME_SOL
1070
     1
1071
       87
  0
LINE
  8
0
 62
     7
  5
13D
 10
14.0
 20
19.0
 30
0.0
 11
6.0
 21
19.0
 31
0.0
1001
AME_SOL
1070
     1
1071
       86
  0
LINE
  8
0
 62
     7
  5
13E
 10
6.0
 20
19.0
 30
0.0
 11
6.0
 21
17.0
 31
0.0
1001
AME_SOL
1070
     1
1071
       85
  0
LINE
  8
0
 62
     7
  5
13F
 10
6.0
 20
17.0
 30
14.0
 11
6.0
 21
19.0
 31
14.0
1001
AME_SOL
1070
     1
1071
       84
  0
LINE
  8
0
 62
     7
  5
140
 10
6.0
 20
3.000001
 30
14.0
 11
6.0
 21
7.000001
 31
14.0
1001
AME_SOL
1070
     1
1071
       83
  0
LINE
  8
0
 62
     7
  5
141
 10
6.0
 20
19.0
 30
13.999999
 11
6.0
 21
19.0
 31
0.0
1001
AME_SOL
1070
     1
1071
       82
  0
LINE
  8
0
 62
     7
  5
142
 10
14.0
 20
9.000001
 30
10.0
 11
14.0
 21
8.000001
 31
10.0
1001
AME_SOL
1070
     1
1071
       81
  0
LINE
  8
0
 62
     7
  5
143
 10
6.0
 20
8.0
 30
10.0
 11
6.0
 21
7.0
 31
10.0
1001
AME_SOL
1070
     1
1071
       80
  0
LINE
  8
0
 62
     7
  5
144
 10
6.0
 20
17.0
 30
10.0
 11
6.0
 21
9.0
 31
10.0
1001
AME_SOL
1070
     1
1071
       79
  0
LINE
  8
0
 62
     7
  5
145
 10
2.0
 20
19.0
 30
14.000001
 11
2.0
 21
17.0
 31
14.000001
1001
AME_SOL
1070
     1
1071
       78
  0
LINE
  8
0
 62
     7
  5
146
 10
2.0
 20
17.0
 30
10.0
 11
2.0
 21
11.0
 31
10.0
1001
AME_SOL
1070
     1
1071
       77
  0
LINE
  8
0
 62
     7
  5
147
 10
2.0
 20
19.0
 30
9.000001
 11
2.0
 21
19.0
 31
14.0
1001
AME_SOL
1070
     1
1071
       76
  0
LINE
  8
0
 62
     7
  5
148
 10
2.0
 20
19.0
 30
2.0
 11
2.0
 21
19.0
 31
5.0
1001
AME_SOL
1070
     1
1071
       75
  0
LINE
  8
0
 62
     7
  5
149
 10
2.0
 20
11.0
 30
4.0
 11
2.0
 21
11.0
 31
10.0
1001
AME_SOL
1070
     1
1071
       74
  0
LINE
  8
0
 62
     7
  5
14A
 10
2.0
 20
11.0
 30
10.0
 11
3.0
 21
11.0
 31
10.0
1001
AME_SOL
1070
     1
1071
       73
  0
LINE
  8
0
 62
     7
  5
14B
 10
2.0
 20
11.0
 30
4.0
 11
3.0
 21
11.0
 31
4.0
1001
AME_SOL
1070
     1
1071
       72
  0
LINE
  8
0
 62
     7
  5
14C
 10
14.0
 20
8.0
 30
4.0
 11
14.0
 21
9.0
 31
4.0
1001
AME_SOL
1070
     1
1071
       71
  0
LINE
  8
0
 62
     7
  5
14D
 10
2.0
 20
17.0
 30
4.0
 11
2.0
 21
11.0
 31
4.0
1001
AME_SOL
1070
     1
1071
       70
  0
LINE
  8
0
 62
     7
  5
14E
 10
6.0
 20
9.0
 30
4.0
 11
6.0
 21
17.0
 31
4.0
1001
AME_SOL
1070
     1
1071
       69
  0
LINE
  8
0
 62
     7
  5
14F
 10
6.0
 20
3.0
 30
4.0
 11
6.0
 21
8.0
 31
4.0
1001
AME_SOL
1070
     1
1071
       68
  0
LINE
  8
0
 62
     7
  5
150
 10
3.0
 20
3.0
 30
4.0
 11
3.0
 21
11.0
 31
4.0
1001
AME_SOL
1070
     1
1071
       67
  0
LINE
  8
0
 62
     7
  5
151
 10
3.0
 20
11.0
 30
10.0
 11
3.0
 21
11.0
 31
4.0
1001
AME_SOL
1070
     1
1071
       66
  0
LINE
  8
0
 62
     7
  5
152
 10
3.0
 20
7.0
 30
14.000001
 11
3.0
 21
3.0
 31
14.000001
1001
AME_SOL
1070
     1
1071
       65
  0
LINE
  8
0
 62
     7
  5
153
 10
3.0
 20
11.0
 30
10.0
 11
3.0
 21
7.0
 31
10.0
1001
AME_SOL
1070
     1
1071
       64
  0
LINE
  8
0
 62
     7
  5
154
 10
6.0
 20
3.0
 30
4.0
 11
3.0
 21
3.0
 31
4.0
1001
AME_SOL
1070
     1
1071
       63
  0
LINE
  8
0
 62
     7
  5
155
 10
3.0
 20
3.0
 30
4.0
 11
3.0
 21
3.0
 31
14.000001
1001
AME_SOL
1070
     1
1071
       62
  0
LINE
  8
0
 62
     7
  5
156
 10
3.0
 20
3.0
 30
14.000001
 11
6.0
 21
3.0
 31
14.000001
1001
AME_SOL
1070
     1
1071
       61
  0
LINE
  8
0
 62
     7
  5
157
 10
6.0
 20
3.0
 30
14.0
 11
6.0
 21
3.0
 31
4.0
1001
AME_SOL
1070
     1
1071
       60
  0
LINE
  8
0
 62
     7
  5
158
 10
3.0
 20
7.0
 30
14.0
 11
3.0
 21
7.0
 31
9.999999
1001
AME_SOL
1070
     1
1071
       59
  0
LINE
  8
0
 62
     7
  5
159
 10
6.0
 20
7.0
 30
14.0
 11
3.0
 21
7.0
 31
14.0
1001
AME_SOL
1070
     1
1071
       58
  0
LINE
  8
0
 62
     7
  5
15A
 10
6.0
 20
7.0
 30
10.0
 11
3.0
 21
7.0
 31
10.0
1001
AME_SOL
1070
     1
1071
       57
  0
LINE
  8
0
 62
     7
  5
15B
 10
6.0
 20
7.0
 30
10.000001
 11
6.0
 21
7.0
 31
14.0
1001
AME_SOL
1070
     1
1071
       56
  0
LINE
  8
0
 62
     7
  5
15C
 10
6.0
 20
9.0
 30
4.0
 11
14.0
 21
9.0
 31
4.0
1001
AME_SOL
1070
     1
1071
       55
  0
LINE
  8
0
 62
     7
  5
15D
 10
6.0
 20
9.0
 30
4.0
 11
6.0
 21
9.0
 31
10.0
1001
AME_SOL
1070
     1
1071
       54
  0
LINE
  8
0
 62
     7
  5
15E
 10
14.0
 20
9.0
 30
4.0
 11
14.0
 21
9.0
 31
10.0
1001
AME_SOL
1070
     1
1071
       53
  0
LINE
  8
0
 62
     7
  5
15F
 10
14.0
 20
9.0
 30
10.0
 11
6.0
 21
9.0
 31
10.0
1001
AME_SOL
1070
     1
1071
       52
  0
LINE
  8
0
 62
     7
  5
160
 10
14.0
 20
8.0
 30
4.0
 11
6.0
 21
8.0
 31
4.0
1001
AME_SOL
1070
     1
1071
       51
  0
LINE
  8
0
 62
     7
  5
161
 10
6.0
 20
8.0
 30
10.0
 11
6.0
 21
8.0
 31
4.0
1001
AME_SOL
1070
     1
1071
       50
  0
LINE
  8
0
 62
     7
  5
162
 10
14.0
 20
8.0
 30
10.0
 11
14.0
 21
8.0
 31
4.0
1001
AME_SOL
1070
     1
1071
       49
  0
LINE
  8
0
 62
     7
  5
163
 10
6.0
 20
8.0
 30
10.0
 11
13.999998
 21
8.0
 31
10.0
1001
AME_SOL
1070
     1
1071
       48
  0
LINE
  8
0
 62
     7
  5
164
 10
6.0
 20
17.0
 30
4.0
 11
2.0
 21
17.0
 31
4.0
1001
AME_SOL
1070
     1
1071
       47
  0
LINE
  8
0
 62
     7
  5
165
 10
6.0
 20
17.0
 30
0.0
 11
4.0
 21
17.0
 31
0.0
1001
AME_SOL
1070
     1
1071
       46
  0
LINE
  8
0
 62
     7
  5
166
 10
2.0
 20
17.0
 30
10.0
 11
2.0
 21
17.0
 31
14.0
1001
AME_SOL
1070
     1
1071
       45
  0
LINE
  8
0
 62
     7
  5
167
 10
2.0
 20
17.0
 30
2.0
 11
2.0
 21
17.0
 31
4.0
1001
AME_SOL
1070
     1
1071
       44
  0
LINE
  8
0
 62
     7
  5
168
 10
2.0
 20
17.0
 30
14.0
 11
6.0
 21
17.0
 31
14.0
1001
AME_SOL
1070
     1
1071
       43
  0
LINE
  8
0
 62
     7
  5
169
 10
2.0
 20
17.0
 30
10.0
 11
6.0
 21
17.0
 31
10.0
1001
AME_SOL
1070
     1
1071
       42
  0
LINE
  8
0
 62
     7
  5
16A
 10
6.0
 20
17.0
 30
4.0
 11
6.0
 21
17.0
 31
0.0
1001
AME_SOL
1070
     1
1071
       41
  0
LINE
  8
0
 62
     7
  5
16B
 10
6.0
 20
17.0
 30
14.0
 11
6.0
 21
17.0
 31
10.0
1001
AME_SOL
1070
     1
1071
       40
  0
LINE
  8
0
 62
     7
  5
16C
 10
4.0
 20
17.000002
 30
0.0
 11
4.0
 21
17.000002
 31
2.0
1001
AME_SOL
1070
     1
1071
       39
  0
LINE
  8
0
 62
     7
  5
16D
 10
4.0
 20
19.0
 30
2.0
 11
4.0
 21
19.0
 31
0.0
1001
AME_SOL
1070
     1
1071
       38
  0
LINE
  8
0
 62
     7
  5
16E
 10
4.0
 20
19.0
 30
0.0
 11
4.0
 21
17.0
 31
0.0
1001
AME_SOL
1070
     1
1071
       37
  0
LINE
  8
0
 62
     7
  5
16F
 10
2.0
 20
17.0
 30
2.0
 11
2.0
 21
19.0
 31
2.0
1001
AME_SOL
1070
     1
1071
       36
  0
LINE
  8
0
 62
     7
  5
170
 10
4.0
 20
17.000002
 30
2.0
 11
2.0
 21
17.000002
 31
2.0
1001
AME_SOL
1070
     1
1071
       35
  0
LINE
  8
0
 62
     7
  5
171
 10
4.0
 20
19.000002
 30
2.0
 11
4.0
 21
17.000002
 31
2.0
1001
AME_SOL
1070
     1
1071
       34
  0
LINE
  8
0
 62
     7
  5
172
 10
2.0
 20
19.0
 30
2.0
 11
4.0
 21
19.0
 31
2.0
1001
AME_SOL
1070
     1
1071
       33
  0
LINE
  8
0
 62
     7
  5
173
 10
0.0
 20
18.0
 30
9.000001
 11
0.0
 21
19.0
 31
9.000001
1001
AME_SOL
1070
     1
1071
       32
  0
LINE
  8
0
 62
     7
  5
174
 10
2.0
 20
18.0
 30
9.000001
 11
2.0
 21
19.0
 31
9.000001
1001
AME_SOL
1070
     1
1071
       31
  0
LINE
  8
0
 62
     7
  5
175
 10
0.0
 20
19.0
 30
9.000001
 11
2.0
 21
19.0
 31
9.000001
1001
AME_SOL
1070
     1
1071
       30
  0
LINE
  8
0
 62
     7
  5
176
 10
0.0
 20
18.0
 30
5.0
 11
0.0
 21
18.0
 31
9.0
1001
AME_SOL
1070
     1
1071
       29
  0
LINE
  8
0
 62
     7
  5
177
 10
2.0
 20
18.0
 30
5.000001
 11
2.0
 21
18.0
 31
9.000001
1001
AME_SOL
1070
     1
1071
       28
  0
LINE
  8
0
 62
     7
  5
178
 10
0.0
 20
18.0
 30
9.0
 11
2.0
 21
18.0
 31
9.0
1001
AME_SOL
1070
     1
1071
       27
  0
LINE
  8
0
 62
     7
  5
179
 10
0.0
 20
19.0
 30
5.0
 11
0.0
 21
18.0
 31
5.0
1001
AME_SOL
1070
     1
1071
       26
  0
LINE
  8
0
 62
     7
  5
17A
 10
2.0
 20
19.0
 30
5.0
 11
2.0
 21
18.0
 31
5.0
1001
AME_SOL
1070
     1
1071
       25
  0
LINE
  8
0
 62
     7
  5
17B
 10
2.0
 20
19.0
 30
5.0
 11
0.0
 21
19.0
 31
5.0
1001
AME_SOL
1070
     1
1071
       24
  0
LINE
  8
0
 62
     7
  5
17C
 10
0.0
 20
18.0
 30
5.0
 11
2.0
 21
18.0
 31
5.0
1001
AME_SOL
1070
     1
1071
       23
  0
ENDBLK
  8
0
  5
17D
  0
BLOCK
  8
0
  5
182
  2
*U15
 70
    65
 10
0.0
 20
0.0
 30
0.0
  1
*U
  3
*U
  0
LINE
  8
0
 62
     0
  5
183
 10
1.0
 20
1.0
 30
0.0
 11
1.0
 21
1.0
 31
13.999999
1001
AME_SOL
1070
     1
1071
       18
  0
LINE
  8
0
 62
     0
  5
184
 10
1.0
 20
1.0
 30
13.999999
 11
1.0
 21
0.0
 31
13.999999
1001
AME_SOL
1070
     1
1071
       17
  0
LINE
  8
0
 62
     0
  5
185
 10
0.0
 20
1.0
 30
13.999999
 11
1.0
 21
1.0
 31
13.999999
1001
AME_SOL
1070
     1
1071
       16
  0
LINE
  8
0
 62
     0
  5
186
 10
0.0
 20
1.0
 30
0.0
 11
0.0
 21
1.0
 31
13.999999
1001
AME_SOL
1070
     1
1071
       15
  0
LINE
  8
0
 62
     0
  5
187
 10
0.0
 20
1.0
 30
13.999999
 11
0.0
 21
0.0
 31
13.999999
1001
AME_SOL
1070
     1
1071
       14
  0
LINE
  8
0
 62
     0
  5
188
 10
0.0
 20
0.0
 30
0.0
 11
0.0
 21
0.0
 31
13.999999
1001
AME_SOL
1070
     1
1071
       13
  0
LINE
  8
0
 62
     0
  5
189
 10
1.0
 20
0.0
 30
13.999999
 11
1.0
 21
0.0
 31
0.0
1001
AME_SOL
1070
     1
1071
       12
  0
LINE
  8
0
 62
     0
  5
18A
 10
0.0
 20
0.0
 30
13.999999
 11
1.0
 21
0.0
 31
13.999999
1001
AME_SOL
1070
     1
1071
       11
  0
LINE
  8
0
 62
     0
  5
18B
 10
0.0
 20
0.0
 30
0.0
 11
1.0
 21
0.0
 31
0.0
1001
AME_SOL
1070
     1
1071
       10
  0
LINE
  8
0
 62
     0
  5
18C
 10
0.0
 20
1.0
 30
0.0
 11
0.0
 21
0.0
 31
0.0
1001
AME_SOL
1070
     1
1071
        9
  0
LINE
  8
0
 62
     0
  5
18D
 10
1.0
 20
0.0
 30
0.0
 11
1.0
 21
1.0
 31
0.0
1001
AME_SOL
1070
     1
1071
        8
  0
LINE
  8
0
 62
     0
  5
18E
 10
1.0
 20
1.0
 30
0.0
 11
0.0
 21
1.0
 31
0.0
1001
AME_SOL
1070
     1
1071
        7
  0
ENDBLK
  8
0
  5
18F
  0
BLOCK
  8
0
  5
194
  2
*U16
 70
    65
 10
0.0
 20
0.0
 30
0.0
  1
*U
  3
*U
  0
LINE
  8
0
 62
     7
  5
195
 10
14.0
 20
19.0
 30
0.0
 11
14.0
 21
19.0
 31
14.0
1001
AME_SOL
1070
     1
1071
      108
  0
LINE
  8
0
 62
     7
  5
196
 10
14.0
 20
19.0
 30
14.0
 11
14.0
 21
0.0
 31
14.0
1001
AME_SOL
1070
     1
1071
      107
  0
LINE
  8
0
 62
     7
  5
197
 10
6.0
 20
19.0
 30
14.0
 11
14.0
 21
19.0
 31
14.0
1001
AME_SOL
1070
     1
1071
      106
  0
LINE
  8
0
 62
     7
  5
198
 10
0.0
 20
19.0
 30
14.0
 11
2.000001
 21
19.0
 31
14.0
1001
AME_SOL
1070
     1
1071
      105
  0
LINE
  8
0
 62
     7
  5
199
 10
0.0
 20
19.0
 30
14.0
 11
0.0
 21
1.0
 31
14.0
1001
AME_SOL
1070
     1
1071
      104
  0
LINE
  8
0
 62
     7
  5
19A
 10
0.0
 20
19.0
 30
9.000001
 11
0.0
 21
19.0
 31
14.0
1001
AME_SOL
1070
     1
1071
      103
  0
LINE
  8
0
 62
     7
  5
19B
 10
0.0
 20
19.0
 30
0.0
 11
0.0
 21
19.0
 31
5.000001
1001
AME_SOL
1070
     1
1071
      102
  0
LINE
  8
0
 62
     7
  5
19C
 10
14.0
 20
0.0
 30
14.0
 11
14.0
 21
0.0
 31
0.0
1001
AME_SOL
1070
     1
1071
      101
  0
LINE
  8
0
 62
     7
  5
19D
 10
1.0
 20
0.0
 30
14.0
 11
14.0
 21
0.0
 31
14.0
1001
AME_SOL
1070
     1
1071
      100
  0
LINE
  8
0
 62
     7
  5
19E
 10
1.0
 20
0.0
 30
0.0
 11
14.0
 21
0.0
 31
0.0
1001
AME_SOL
1070
     1
1071
       99
  0
LINE
  8
0
 62
     7
  5
19F
 10
0.0
 20
19.0
 30
0.0
 11
0.0
 21
1.0
 31
0.0
1001
AME_SOL
1070
     1
1071
       98
  0
LINE
  8
0
 62
     7
  5
1A0
 10
14.0
 20
0.0
 30
0.0
 11
14.0
 21
19.0
 31
0.0
1001
AME_SOL
1070
     1
1071
       97
  0
LINE
  8
0
 62
     7
  5
1A1
 10
4.0
 20
19.0
 30
0.0
 11
0.0
 21
19.0
 31
0.0
1001
AME_SOL
1070
     1
1071
       96
  0
LINE
  8
0
 62
     7
  5
1A2
 10
14.0
 20
19.0
 30
0.0
 11
6.0
 21
19.0
 31
0.0
1001
AME_SOL
1070
     1
1071
       95
  0
LINE
  8
0
 62
     7
  5
1A3
 10
6.0
 20
19.0
 30
0.0
 11
6.0
 21
17.0
 31
0.0
1001
AME_SOL
1070
     1
1071
       94
  0
LINE
  8
0
 62
     7
  5
1A4
 10
6.0
 20
17.0
 30
14.0
 11
6.0
 21
19.0
 31
14.0
1001
AME_SOL
1070
     1
1071
       93
  0
LINE
  8
0
 62
     7
  5
1A5
 10
6.0
 20
3.000001
 30
14.0
 11
6.0
 21
7.000001
 31
14.0
1001
AME_SOL
1070
     1
1071
       92
  0
LINE
  8
0
 62
     7
  5
1A6
 10
6.0
 20
19.0
 30
13.999999
 11
6.0
 21
19.0
 31
0.0
1001
AME_SOL
1070
     1
1071
       91
  0
LINE
  8
0
 62
     7
  5
1A7
 10
14.0
 20
9.000001
 30
10.0
 11
14.0
 21
8.000001
 31
10.0
1001
AME_SOL
1070
     1
1071
       90
  0
LINE
  8
0
 62
     7
  5
1A8
 10
6.0
 20
8.0
 30
10.0
 11
6.0
 21
7.0
 31
10.0
1001
AME_SOL
1070
     1
1071
       89
  0
LINE
  8
0
 62
     7
  5
1A9
 10
6.0
 20
17.0
 30
10.0
 11
6.0
 21
9.0
 31
10.0
1001
AME_SOL
1070
     1
1071
       88
  0
LINE
  8
0
 62
     7
  5
1AA
 10
2.0
 20
19.0
 30
14.000001
 11
2.0
 21
17.0
 31
14.000001
1001
AME_SOL
1070
     1
1071
       87
  0
LINE
  8
0
 62
     7
  5
1AB
 10
2.0
 20
17.0
 30
10.0
 11
2.0
 21
11.0
 31
10.0
1001
AME_SOL
1070
     1
1071
       86
  0
LINE
  8
0
 62
     7
  5
1AC
 10
2.0
 20
19.0
 30
9.000001
 11
2.0
 21
19.0
 31
14.0
1001
AME_SOL
1070
     1
1071
       85
  0
LINE
  8
0
 62
     7
  5
1AD
 10
2.0
 20
19.0
 30
2.0
 11
2.0
 21
19.0
 31
5.0
1001
AME_SOL
1070
     1
1071
       84
  0
LINE
  8
0
 62
     7
  5
1AE
 10
2.0
 20
11.0
 30
4.0
 11
2.0
 21
11.0
 31
10.0
1001
AME_SOL
1070
     1
1071
       83
  0
LINE
  8
0
 62
     7
  5
1AF
 10
2.0
 20
11.0
 30
10.0
 11
3.0
 21
11.0
 31
10.0
1001
AME_SOL
1070
     1
1071
       82
  0
LINE
  8
0
 62
     7
  5
1B0
 10
2.0
 20
11.0
 30
4.0
 11
3.0
 21
11.0
 31
4.0
1001
AME_SOL
1070
     1
1071
       81
  0
LINE
  8
0
 62
     7
  5
1B1
 10
14.0
 20
8.0
 30
4.0
 11
14.0
 21
9.0
 31
4.0
1001
AME_SOL
1070
     1
1071
       80
  0
LINE
  8
0
 62
     7
  5
1B2
 10
2.0
 20
17.0
 30
4.0
 11
2.0
 21
11.0
 31
4.0
1001
AME_SOL
1070
     1
1071
       79
  0
LINE
  8
0
 62
     7
  5
1B3
 10
6.0
 20
9.0
 30
4.0
 11
6.0
 21
17.0
 31
4.0
1001
AME_SOL
1070
     1
1071
       78
  0
LINE
  8
0
 62
     7
  5
1B4
 10
6.0
 20
3.0
 30
4.0
 11
6.0
 21
8.0
 31
4.0
1001
AME_SOL
1070
     1
1071
       77
  0
LINE
  8
0
 62
     7
  5
1B5
 10
3.0
 20
3.0
 30
4.0
 11
3.0
 21
11.0
 31
4.0
1001
AME_SOL
1070
     1
1071
       76
  0
LINE
  8
0
 62
     7
  5
1B6
 10
3.0
 20
11.0
 30
10.0
 11
3.0
 21
11.0
 31
4.0
1001
AME_SOL
1070
     1
1071
       75
  0
LINE
  8
0
 62
     7
  5
1B7
 10
3.0
 20
7.0
 30
14.000001
 11
3.0
 21
3.0
 31
14.000001
1001
AME_SOL
1070
     1
1071
       74
  0
LINE
  8
0
 62
     7
  5
1B8
 10
3.0
 20
11.0
 30
10.0
 11
3.0
 21
7.0
 31
10.0
1001
AME_SOL
1070
     1
1071
       73
  0
LINE
  8
0
 62
     7
  5
1B9
 10
6.0
 20
3.0
 30
4.0
 11
3.0
 21
3.0
 31
4.0
1001
AME_SOL
1070
     1
1071
       72
  0
LINE
  8
0
 62
     7
  5
1BA
 10
3.0
 20
3.0
 30
4.0
 11
3.0
 21
3.0
 31
14.000001
1001
AME_SOL
1070
     1
1071
       71
  0
LINE
  8
0
 62
     7
  5
1BB
 10
3.0
 20
3.0
 30
14.000001
 11
6.0
 21
3.0
 31
14.000001
1001
AME_SOL
1070
     1
1071
       70
  0
LINE
  8
0
 62
     7
  5
1BC
 10
6.0
 20
3.0
 30
14.0
 11
6.0
 21
3.0
 31
4.0
1001
AME_SOL
1070
     1
1071
       69
  0
LINE
  8
0
 62
     7
  5
1BD
 10
3.0
 20
7.0
 30
14.0
 11
3.0
 21
7.0
 31
9.999999
1001
AME_SOL
1070
     1
1071
       68
  0
LINE
  8
0
 62
     7
  5
1BE
 10
6.0
 20
7.0
 30
14.0
 11
3.0
 21
7.0
 31
14.0
1001
AME_SOL
1070
     1
1071
       67
  0
LINE
  8
0
 62
     7
  5
1BF
 10
6.0
 20
7.0
 30
10.0
 11
3.0
 21
7.0
 31
10.0
1001
AME_SOL
1070
     1
1071
       66
  0
LINE
  8
0
 62
     7
  5
1C0
 10
6.0
 20
7.0
 30
10.000001
 11
6.0
 21
7.0
 31
14.0
1001
AME_SOL
1070
     1
1071
       65
  0
LINE
  8
0
 62
     7
  5
1C1
 10
6.0
 20
9.0
 30
4.0
 11
14.0
 21
9.0
 31
4.0
1001
AME_SOL
1070
     1
1071
       64
  0
LINE
  8
0
 62
     7
  5
1C2
 10
6.0
 20
9.0
 30
4.0
 11
6.0
 21
9.0
 31
10.0
1001
AME_SOL
1070
     1
1071
       63
  0
LINE
  8
0
 62
     7
  5
1C3
 10
14.0
 20
9.0
 30
4.0
 11
14.0
 21
9.0
 31
10.0
1001
AME_SOL
1070
     1
1071
       62
  0
LINE
  8
0
 62
     7
  5
1C4
 10
14.0
 20
9.0
 30
10.0
 11
6.0
 21
9.0
 31
10.0
1001
AME_SOL
1070
     1
1071
       61
  0
LINE
  8
0
 62
     7
  5
1C5
 10
14.0
 20
8.0
 30
4.0
 11
6.0
 21
8.0
 31
4.0
1001
AME_SOL
1070
     1
1071
       60
  0
LINE
  8
0
 62
     7
  5
1C6
 10
6.0
 20
8.0
 30
10.0
 11
6.0
 21
8.0
 31
4.0
1001
AME_SOL
1070
     1
1071
       59
  0
LINE
  8
0
 62
     7
  5
1C7
 10
14.0
 20
8.0
 30
10.0
 11
14.0
 21
8.0
 31
4.0
1001
AME_SOL
1070
     1
1071
       58
  0
LINE
  8
0
 62
     7
  5
1C8
 10
6.0
 20
8.0
 30
10.0
 11
13.999998
 21
8.0
 31
10.0
1001
AME_SOL
1070
     1
1071
       57
  0
LINE
  8
0
 62
     7
  5
1C9
 10
6.0
 20
17.0
 30
4.0
 11
2.0
 21
17.0
 31
4.0
1001
AME_SOL
1070
     1
1071
       56
  0
LINE
  8
0
 62
     7
  5
1CA
 10
6.0
 20
17.0
 30
0.0
 11
4.0
 21
17.0
 31
0.0
1001
AME_SOL
1070
     1
1071
       55
  0
LINE
  8
0
 62
     7
  5
1CB
 10
2.0
 20
17.0
 30
10.0
 11
2.0
 21
17.0
 31
14.0
1001
AME_SOL
1070
     1
1071
       54
  0
LINE
  8
0
 62
     7
  5
1CC
 10
2.0
 20
17.0
 30
2.0
 11
2.0
 21
17.0
 31
4.0
1001
AME_SOL
1070
     1
1071
       53
  0
LINE
  8
0
 62
     7
  5
1CD
 10
2.0
 20
17.0
 30
14.0
 11
6.0
 21
17.0
 31
14.0
1001
AME_SOL
1070
     1
1071
       52
  0
LINE
  8
0
 62
     7
  5
1CE
 10
2.0
 20
17.0
 30
10.0
 11
6.0
 21
17.0
 31
10.0
1001
AME_SOL
1070
     1
1071
       51
  0
LINE
  8
0
 62
     7
  5
1CF
 10
6.0
 20
17.0
 30
4.0
 11
6.0
 21
17.0
 31
0.0
1001
AME_SOL
1070
     1
1071
       50
  0
LINE
  8
0
 62
     7
  5
1D0
 10
6.0
 20
17.0
 30
14.0
 11
6.0
 21
17.0
 31
10.0
1001
AME_SOL
1070
     1
1071
       49
  0
LINE
  8
0
 62
     7
  5
1D1
 10
4.0
 20
17.000002
 30
0.0
 11
4.0
 21
17.000002
 31
2.0
1001
AME_SOL
1070
     1
1071
       48
  0
LINE
  8
0
 62
     7
  5
1D2
 10
4.0
 20
19.0
 30
2.0
 11
4.0
 21
19.0
 31
0.0
1001
AME_SOL
1070
     1
1071
       47
  0
LINE
  8
0
 62
     7
  5
1D3
 10
4.0
 20
19.0
 30
0.0
 11
4.0
 21
17.0
 31
0.0
1001
AME_SOL
1070
     1
1071
       46
  0
LINE
  8
0
 62
     7
  5
1D4
 10
2.0
 20
17.0
 30
2.0
 11
2.0
 21
19.0
 31
2.0
1001
AME_SOL
1070
     1
1071
       45
  0
LINE
  8
0
 62
     7
  5
1D5
 10
4.0
 20
17.000002
 30
2.0
 11
2.0
 21
17.000002
 31
2.0
1001
AME_SOL
1070
     1
1071
       44
  0
LINE
  8
0
 62
     7
  5
1D6
 10
4.0
 20
19.000002
 30
2.0
 11
4.0
 21
17.000002
 31
2.0
1001
AME_SOL
1070
     1
1071
       43
  0
LINE
  8
0
 62
     7
  5
1D7
 10
2.0
 20
19.0
 30
2.0
 11
4.0
 21
19.0
 31
2.0
1001
AME_SOL
1070
     1
1071
       42
  0
LINE
  8
0
 62
     7
  5
1D8
 10
0.0
 20
18.0
 30
9.000001
 11
0.0
 21
19.0
 31
9.000001
1001
AME_SOL
1070
     1
1071
       41
  0
LINE
  8
0
 62
     7
  5
1D9
 10
2.0
 20
18.0
 30
9.000001
 11
2.0
 21
19.0
 31
9.000001
1001
AME_SOL
1070
     1
1071
       40
  0
LINE
  8
0
 62
     7
  5
1DA
 10
0.0
 20
19.0
 30
9.000001
 11
2.0
 21
19.0
 31
9.000001
1001
AME_SOL
1070
     1
1071
       39
  0
LINE
  8
0
 62
     7
  5
1DB
 10
0.0
 20
18.0
 30
5.0
 11
0.0
 21
18.0
 31
9.0
1001
AME_SOL
1070
     1
1071
       38
  0
LINE
  8
0
 62
     7
  5
1DC
 10
2.0
 20
18.0
 30
5.000001
 11
2.0
 21
18.0
 31
9.000001
1001
AME_SOL
1070
     1
1071
       37
  0
LINE
  8
0
 62
     7
  5
1DD
 10
0.0
 20
18.0
 30
9.0
 11
2.0
 21
18.0
 31
9.0
1001
AME_SOL
1070
     1
1071
       36
  0
LINE
  8
0
 62
     7
  5
1DE
 10
0.0
 20
19.0
 30
5.0
 11
0.0
 21
18.0
 31
5.0
1001
AME_SOL
1070
     1
1071
       35
  0
LINE
  8
0
 62
     7
  5
1DF
 10
2.0
 20
19.0
 30
5.0
 11
2.0
 21
18.0
 31
5.0
1001
AME_SOL
1070
     1
1071
       34
  0
LINE
  8
0
 62
     7
  5
1E0
 10
2.0
 20
19.0
 30
5.0
 11
0.0
 21
19.0
 31
5.0
1001
AME_SOL
1070
     1
1071
       33
  0
LINE
  8
0
 62
     7
  5
1E1
 10
0.0
 20
18.0
 30
5.0
 11
2.0
 21
18.0
 31
5.0
1001
AME_SOL
1070
     1
1071
       32
  0
LINE
  8
0
 62
     7
  5
1E2
 10
1.0
 20
1.0
 30
0.0
 11
1.0
 21
0.0
 31
0.0
1001
AME_SOL
1070
     1
1071
       31
  0
LINE
  8
0
 62
     7
  5
1E3
 10
1.0
 20
0.0
 30
14.0
 11
1.0
 21
1.0
 31
14.0
1001
AME_SOL
1070
     1
1071
       30
  0
LINE
  8
0
 62
     7
  5
1E4
 10
1.0
 20
0.0
 30
0.0
 11
1.0
 21
0.0
 31
14.0
1001
AME_SOL
1070
     1
1071
       29
  0
LINE
  8
0
 62
     7
  5
1E5
 10
0.0
 20
1.0
 30
0.0
 11
1.0
 21
1.0
 31
0.0
1001
AME_SOL
1070
     1
1071
       28
  0
LINE
  8
0
 62
     7
  5
1E6
 10
1.0
 20
1.0
 30
14.0
 11
0.0
 21
1.0
 31
14.0
1001
AME_SOL
1070
     1
1071
       27
  0
LINE
  8
0
 62
     7
  5
1E7
 10
0.0
 20
1.0
 30
14.0
 11
0.0
 21
1.0
 31
0.0
1001
AME_SOL
1070
     1
1071
       26
  0
LINE
  8
0
 62
     7
  5
1E8
 10
1.0
 20
1.0
 30
0.0
 11
1.0
 21
1.0
 31
14.0
1001
AME_SOL
1070
     1
1071
       25
  0
ENDBLK
  8
0
  5
1E9
  0
BLOCK
  8
0
  5
1EE
  2
*U17
 70
    65
 10
0.0
 20
0.0
 30
0.0
  1
*U
  3
*U
  0
LINE
  8
0
 62
     0
  5
1EF
 10
4.0
 20
2.0
 30
0.0
 11
4.0
 21
2.0
 31
13.999999
1001
AME_SOL
1070
     1
1071
       18
  0
LINE
  8
0
 62
     0
  5
1F0
 10
4.0
 20
2.0
 30
13.999999
 11
4.0
 21
0.0
 31
13.999999
1001
AME_SOL
1070
     1
1071
       17
  0
LINE
  8
0
 62
     0
  5
1F1
 10
0.0
 20
2.0
 30
13.999999
 11
4.0
 21
2.0
 31
13.999999
1001
AME_SOL
1070
     1
1071
       16
  0
LINE
  8
0
 62
     0
  5
1F2
 10
0.0
 20
2.0
 30
0.0
 11
0.0
 21
2.0
 31
13.999999
1001
AME_SOL
1070
     1
1071
       15
  0
LINE
  8
0
 62
     0
  5
1F3
 10
0.0
 20
2.0
 30
13.999999
 11
0.0
 21
0.0
 31
13.999999
1001
AME_SOL
1070
     1
1071
       14
  0
LINE
  8
0
 62
     0
  5
1F4
 10
0.0
 20
0.0
 30
0.0
 11
0.0
 21
0.0
 31
13.999999
1001
AME_SOL
1070
     1
1071
       13
  0
LINE
  8
0
 62
     0
  5
1F5
 10
4.0
 20
0.0
 30
13.999999
 11
4.0
 21
0.0
 31
0.0
1001
AME_SOL
1070
     1
1071
       12
  0
LINE
  8
0
 62
     0
  5
1F6
 10
0.0
 20
0.0
 30
13.999999
 11
4.0
 21
0.0
 31
13.999999
1001
AME_SOL
1070
     1
1071
       11
  0
LINE
  8
0
 62
     0
  5
1F7
 10
0.0
 20
0.0
 30
0.0
 11
4.0
 21
0.0
 31
0.0
1001
AME_SOL
1070
     1
1071
       10
  0
LINE
  8
0
 62
     0
  5
1F8
 10
0.0
 20
2.0
 30
0.0
 11
0.0
 21
0.0
 31
0.0
1001
AME_SOL
1070
     1
1071
        9
  0
LINE
  8
0
 62
     0
  5
1F9
 10
4.0
 20
0.0
 30
0.0
 11
4.0
 21
2.0
 31
0.0
1001
AME_SOL
1070
     1
1071
        8
  0
LINE
  8
0
 62
     0
  5
1FA
 10
4.0
 20
2.0
 30
0.0
 11
0.0
 21
2.0
 31
0.0
1001
AME_SOL
1070
     1
1071
        7
  0
ENDBLK
  8
0
  5
1FB
  0
BLOCK
  8
0
  5
1FF
  2
*U18
 70
    65
 10
0.0
 20
0.0
 30
0.0
  1
*U
  3
*U
  0
LINE
  8
0
 62
     0
  5
200
 10
2.0
 20
2.0
 30
0.0
 11
2.0
 21
2.0
 31
13.999999
1001
AME_SOL
1070
     1
1071
       18
  0
LINE
  8
0
 62
     0
  5
201
 10
2.0
 20
2.0
 30
13.999999
 11
2.0
 21
0.0
 31
13.999999
1001
AME_SOL
1070
     1
1071
       17
  0
LINE
  8
0
 62
     0
  5
202
 10
0.0
 20
2.0
 30
13.999999
 11
2.0
 21
2.0
 31
13.999999
1001
AME_SOL
1070
     1
1071
       16
  0
LINE
  8
0
 62
     0
  5
203
 10
0.0
 20
2.0
 30
0.0
 11
0.0
 21
2.0
 31
13.999999
1001
AME_SOL
1070
     1
1071
       15
  0
LINE
  8
0
 62
     0
  5
204
 10
0.0
 20
2.0
 30
13.999999
 11
0.0
 21
0.0
 31
13.999999
1001
AME_SOL
1070
     1
1071
       14
  0
LINE
  8
0
 62
     0
  5
205
 10
0.0
 20
0.0
 30
0.0
 11
0.0
 21
0.0
 31
13.999999
1001
AME_SOL
1070
     1
1071
       13
  0
LINE
  8
0
 62
     0
  5
206
 10
2.0
 20
0.0
 30
13.999999
 11
2.0
 21
0.0
 31
0.0
1001
AME_SOL
1070
     1
1071
       12
  0
LINE
  8
0
 62
     0
  5
207
 10
0.0
 20
0.0
 30
13.999999
 11
2.0
 21
0.0
 31
13.999999
1001
AME_SOL
1070
     1
1071
       11
  0
LINE
  8
0
 62
     0
  5
208
 10
0.0
 20
0.0
 30
0.0
 11
2.0
 21
0.0
 31
0.0
1001
AME_SOL
1070
     1
1071
       10
  0
LINE
  8
0
 62
     0
  5
209
 10
0.0
 20
2.0
 30
0.0
 11
0.0
 21
0.0
 31
0.0
1001
AME_SOL
1070
     1
1071
        9
  0
LINE
  8
0
 62
     0
  5
20A
 10
2.0
 20
0.0
 30
0.0
 11
2.0
 21
2.0
 31
0.0
1001
AME_SOL
1070
     1
1071
        8
  0
LINE
  8
0
 62
     0
  5
20B
 10
2.0
 20
2.0
 30
0.0
 11
0.0
 21
2.0
 31
0.0
1001
AME_SOL
1070
     1
1071
        7
  0
ENDBLK
  8
0
  5
20C
  0
BLOCK
  8
0
  5
212
  2
*U19
 70
    65
 10
0.0
 20
0.0
 30
0.0
  1
*U
  3
*U
  0
LINE
  8
0
 62
     7
  5
213
 10
14.0
 20
19.0
 30
0.0
 11
14.0
 21
19.0
 31
14.0
1001
AME_SOL
1070
     1
1071
      124
  0
LINE
  8
0
 62
     7
  5
214
 10
14.0
 20
19.0
 30
14.0
 11
14.0
 21
4.000001
 31
14.0
1001
AME_SOL
1070
     1
1071
      123
  0
LINE
  8
0
 62
     7
  5
215
 10
6.0
 20
19.0
 30
14.0
 11
14.0
 21
19.0
 31
14.0
1001
AME_SOL
1070
     1
1071
      122
  0
LINE
  8
0
 62
     7
  5
216
 10
0.0
 20
19.0
 30
14.0
 11
2.000001
 21
19.0
 31
14.0
1001
AME_SOL
1070
     1
1071
      121
  0
LINE
  8
0
 62
     7
  5
217
 10
0.0
 20
19.0
 30
14.0
 11
0.0
 21
1.0
 31
14.0
1001
AME_SOL
1070
     1
1071
      120
  0
LINE
  8
0
 62
     7
  5
218
 10
0.0
 20
19.0
 30
9.000001
 11
0.0
 21
19.0
 31
14.0
1001
AME_SOL
1070
     1
1071
      119
  0
LINE
  8
0
 62
     7
  5
219
 10
0.0
 20
19.0
 30
0.0
 11
0.0
 21
19.0
 31
5.000001
1001
AME_SOL
1070
     1
1071
      118
  0
LINE
  8
0
 62
     7
  5
21A
 10
1.0
 20
0.0
 30
14.0
 11
10.0
 21
0.0
 31
14.0
1001
AME_SOL
1070
     1
1071
      117
  0
LINE
  8
0
 62
     7
  5
21B
 10
1.0
 20
0.0
 30
0.0
 11
10.0
 21
0.0
 31
0.0
1001
AME_SOL
1070
     1
1071
      116
  0
LINE
  8
0
 62
     7
  5
21C
 10
0.0
 20
19.0
 30
0.0
 11
0.0
 21
1.0
 31
0.0
1001
AME_SOL
1070
     1
1071
      115
  0
LINE
  8
0
 62
     7
  5
21D
 10
14.0
 20
4.0
 30
0.0
 11
14.0
 21
19.0
 31
0.0
1001
AME_SOL
1070
     1
1071
      114
  0
LINE
  8
0
 62
     7
  5
21E
 10
4.0
 20
19.0
 30
0.0
 11
0.0
 21
19.0
 31
0.0
1001
AME_SOL
1070
     1
1071
      113
  0
LINE
  8
0
 62
     7
  5
21F
 10
14.0
 20
19.0
 30
0.0
 11
6.0
 21
19.0
 31
0.0
1001
AME_SOL
1070
     1
1071
      112
  0
LINE
  8
0
 62
     7
  5
220
 10
6.0
 20
19.0
 30
0.0
 11
6.0
 21
17.0
 31
0.0
1001
AME_SOL
1070
     1
1071
      111
  0
LINE
  8
0
 62
     7
  5
221
 10
6.0
 20
17.0
 30
14.0
 11
6.0
 21
19.0
 31
14.0
1001
AME_SOL
1070
     1
1071
      110
  0
LINE
  8
0
 62
     7
  5
222
 10
6.0
 20
3.000001
 30
14.0
 11
6.0
 21
7.000001
 31
14.0
1001
AME_SOL
1070
     1
1071
      109
  0
LINE
  8
0
 62
     7
  5
223
 10
6.0
 20
19.0
 30
13.999999
 11
6.0
 21
19.0
 31
0.0
1001
AME_SOL
1070
     1
1071
      108
  0
LINE
  8
0
 62
     7
  5
224
 10
14.0
 20
9.000001
 30
10.0
 11
14.0
 21
8.000001
 31
10.0
1001
AME_SOL
1070
     1
1071
      107
  0
LINE
  8
0
 62
     7
  5
225
 10
6.0
 20
8.0
 30
10.0
 11
6.0
 21
7.0
 31
10.0
1001
AME_SOL
1070
     1
1071
      106
  0
LINE
  8
0
 62
     7
  5
226
 10
6.0
 20
17.0
 30
10.0
 11
6.0
 21
9.0
 31
10.0
1001
AME_SOL
1070
     1
1071
      105
  0
LINE
  8
0
 62
     7
  5
227
 10
2.0
 20
17.0
 30
10.0
 11
2.0
 21
11.0
 31
10.0
1001
AME_SOL
1070
     1
1071
      104
  0
LINE
  8
0
 62
     7
  5
228
 10
2.0
 20
19.0
 30
14.000001
 11
2.0
 21
17.0
 31
14.000001
1001
AME_SOL
1070
     1
1071
      103
  0
LINE
  8
0
 62
     7
  5
229
 10
2.0
 20
19.0
 30
9.000001
 11
2.0
 21
19.0
 31
14.0
1001
AME_SOL
1070
     1
1071
      102
  0
LINE
  8
0
 62
     7
  5
22A
 10
2.0
 20
19.0
 30
2.0
 11
2.0
 21
19.0
 31
5.0
1001
AME_SOL
1070
     1
1071
      101
  0
LINE
  8
0
 62
     7
  5
22B
 10
2.0
 20
11.0
 30
4.0
 11
2.0
 21
11.0
 31
10.0
1001
AME_SOL
1070
     1
1071
      100
  0
LINE
  8
0
 62
     7
  5
22C
 10
2.0
 20
11.0
 30
10.0
 11
3.0
 21
11.0
 31
10.0
1001
AME_SOL
1070
     1
1071
       99
  0
LINE
  8
0
 62
     7
  5
22D
 10
14.0
 20
8.0
 30
4.0
 11
14.0
 21
9.0
 31
4.0
1001
AME_SOL
1070
     1
1071
       98
  0
LINE
  8
0
 62
     7
  5
22E
 10
2.0
 20
11.0
 30
4.0
 11
3.0
 21
11.0
 31
4.0
1001
AME_SOL
1070
     1
1071
       97
  0
LINE
  8
0
 62
     7
  5
22F
 10
2.0
 20
17.0
 30
4.0
 11
2.0
 21
11.0
 31
4.0
1001
AME_SOL
1070
     1
1071
       96
  0
LINE
  8
0
 62
     7
  5
230
 10
6.0
 20
9.0
 30
4.0
 11
6.0
 21
17.0
 31
4.0
1001
AME_SOL
1070
     1
1071
       95
  0
LINE
  8
0
 62
     7
  5
231
 10
6.0
 20
3.0
 30
4.0
 11
6.0
 21
8.0
 31
4.0
1001
AME_SOL
1070
     1
1071
       94
  0
LINE
  8
0
 62
     7
  5
232
 10
3.0
 20
3.0
 30
4.0
 11
3.0
 21
11.0
 31
4.0
1001
AME_SOL
1070
     1
1071
       93
  0
LINE
  8
0
 62
     7
  5
233
 10
3.0
 20
11.0
 30
10.0
 11
3.0
 21
11.0
 31
4.0
1001
AME_SOL
1070
     1
1071
       92
  0
LINE
  8
0
 62
     7
  5
234
 10
3.0
 20
11.0
 30
10.0
 11
3.0
 21
7.0
 31
10.0
1001
AME_SOL
1070
     1
1071
       91
  0
LINE
  8
0
 62
     7
  5
235
 10
3.0
 20
7.0
 30
14.000001
 11
3.0
 21
3.0
 31
14.000001
1001
AME_SOL
1070
     1
1071
       90
  0
LINE
  8
0
 62
     7
  5
236
 10
6.0
 20
3.0
 30
4.0
 11
3.0
 21
3.0
 31
4.0
1001
AME_SOL
1070
     1
1071
       89
  0
LINE
  8
0
 62
     7
  5
237
 10
3.0
 20
3.0
 30
4.0
 11
3.0
 21
3.0
 31
14.000001
1001
AME_SOL
1070
     1
1071
       88
  0
LINE
  8
0
 62
     7
  5
238
 10
3.0
 20
3.0
 30
14.000001
 11
6.0
 21
3.0
 31
14.000001
1001
AME_SOL
1070
     1
1071
       87
  0
LINE
  8
0
 62
     7
  5
239
 10
6.0
 20
3.0
 30
14.0
 11
6.0
 21
3.0
 31
4.0
1001
AME_SOL
1070
     1
1071
       86
  0
LINE
  8
0
 62
     7
  5
23A
 10
6.0
 20
7.0
 30
10.0
 11
3.0
 21
7.0
 31
10.0
1001
AME_SOL
1070
     1
1071
       85
  0
LINE
  8
0
 62
     7
  5
23B
 10
3.0
 20
7.0
 30
14.0
 11
3.0
 21
7.0
 31
9.999999
1001
AME_SOL
1070
     1
1071
       84
  0
LINE
  8
0
 62
     7
  5
23C
 10
6.0
 20
7.0
 30
14.0
 11
3.0
 21
7.0
 31
14.0
1001
AME_SOL
1070
     1
1071
       83
  0
LINE
  8
0
 62
     7
  5
23D
 10
6.0
 20
7.0
 30
10.000001
 11
6.0
 21
7.0
 31
14.0
1001
AME_SOL
1070
     1
1071
       82
  0
LINE
  8
0
 62
     7
  5
23E
 10
6.0
 20
9.0
 30
4.0
 11
14.0
 21
9.0
 31
4.0
1001
AME_SOL
1070
     1
1071
       81
  0
LINE
  8
0
 62
     7
  5
23F
 10
6.0
 20
9.0
 30
4.0
 11
6.0
 21
9.0
 31
10.0
1001
AME_SOL
1070
     1
1071
       80
  0
LINE
  8
0
 62
     7
  5
240
 10
14.0
 20
9.0
 30
4.0
 11
14.0
 21
9.0
 31
10.0
1001
AME_SOL
1070
     1
1071
       79
  0
LINE
  8
0
 62
     7
  5
241
 10
14.0
 20
9.0
 30
10.0
 11
6.0
 21
9.0
 31
10.0
1001
AME_SOL
1070
     1
1071
       78
  0
LINE
  8
0
 62
     7
  5
242
 10
14.0
 20
8.0
 30
4.0
 11
6.0
 21
8.0
 31
4.0
1001
AME_SOL
1070
     1
1071
       77
  0
LINE
  8
0
 62
     7
  5
243
 10
6.0
 20
8.0
 30
10.0
 11
6.0
 21
8.0
 31
4.0
1001
AME_SOL
1070
     1
1071
       76
  0
LINE
  8
0
 62
     7
  5
244
 10
14.0
 20
8.0
 30
10.0
 11
14.0
 21
8.0
 31
4.0
1001
AME_SOL
1070
     1
1071
       75
  0
LINE
  8
0
 62
     7
  5
245
 10
6.0
 20
8.0
 30
10.0
 11
13.999998
 21
8.0
 31
10.0
1001
AME_SOL
1070
     1
1071
       74
  0
LINE
  8
0
 62
     7
  5
246
 10
6.0
 20
17.0
 30
0.0
 11
4.0
 21
17.0
 31
0.0
1001
AME_SOL
1070
     1
1071
       73
  0
LINE
  8
0
 62
     7
  5
247
 10
6.0
 20
17.0
 30
4.0
 11
2.0
 21
17.0
 31
4.0
1001
AME_SOL
1070
     1
1071
       72
  0
LINE
  8
0
 62
     7
  5
248
 10
2.0
 20
17.0
 30
10.0
 11
6.0
 21
17.0
 31
10.0
1001
AME_SOL
1070
     1
1071
       71
  0
LINE
  8
0
 62
     7
  5
249
 10
2.0
 20
17.0
 30
10.0
 11
2.0
 21
17.0
 31
14.0
1001
AME_SOL
1070
     1
1071
       70
  0
LINE
  8
0
 62
     7
  5
24A
 10
2.0
 20
17.0
 30
2.0
 11
2.0
 21
17.0
 31
4.0
1001
AME_SOL
1070
     1
1071
       69
  0
LINE
  8
0
 62
     7
  5
24B
 10
2.0
 20
17.0
 30
14.0
 11
6.0
 21
17.0
 31
14.0
1001
AME_SOL
1070
     1
1071
       68
  0
LINE
  8
0
 62
     7
  5
24C
 10
6.0
 20
17.0
 30
4.0
 11
6.0
 21
17.0
 31
0.0
1001
AME_SOL
1070
     1
1071
       67
  0
LINE
  8
0
 62
     7
  5
24D
 10
6.0
 20
17.0
 30
14.0
 11
6.0
 21
17.0
 31
10.0
1001
AME_SOL
1070
     1
1071
       66
  0
LINE
  8
0
 62
     7
  5
24E
 10
4.0
 20
17.000002
 30
0.0
 11
4.0
 21
17.000002
 31
2.0
1001
AME_SOL
1070
     1
1071
       65
  0
LINE
  8
0
 62
     7
  5
24F
 10
4.0
 20
19.0
 30
2.0
 11
4.0
 21
19.0
 31
0.0
1001
AME_SOL
1070
     1
1071
       64
  0
LINE
  8
0
 62
     7
  5
250
 10
4.0
 20
19.0
 30
0.0
 11
4.0
 21
17.0
 31
0.0
1001
AME_SOL
1070
     1
1071
       63
  0
LINE
  8
0
 62
     7
  5
251
 10
2.0
 20
17.0
 30
2.0
 11
2.0
 21
19.0
 31
2.0
1001
AME_SOL
1070
     1
1071
       62
  0
LINE
  8
0
 62
     7
  5
252
 10
4.0
 20
17.000002
 30
2.0
 11
2.0
 21
17.000002
 31
2.0
1001
AME_SOL
1070
     1
1071
       61
  0
LINE
  8
0
 62
     7
  5
253
 10
4.0
 20
19.000002
 30
2.0
 11
4.0
 21
17.000002
 31
2.0
1001
AME_SOL
1070
     1
1071
       60
  0
LINE
  8
0
 62
     7
  5
254
 10
2.0
 20
19.0
 30
2.0
 11
4.0
 21
19.0
 31
2.0
1001
AME_SOL
1070
     1
1071
       59
  0
LINE
  8
0
 62
     7
  5
255
 10
0.0
 20
18.0
 30
9.000001
 11
0.0
 21
19.0
 31
9.000001
1001
AME_SOL
1070
     1
1071
       58
  0
LINE
  8
0
 62
     7
  5
256
 10
2.0
 20
18.0
 30
9.000001
 11
2.0
 21
19.0
 31
9.000001
1001
AME_SOL
1070
     1
1071
       57
  0
LINE
  8
0
 62
     7
  5
257
 10
0.0
 20
19.0
 30
9.000001
 11
2.0
 21
19.0
 31
9.000001
1001
AME_SOL
1070
     1
1071
       56
  0
LINE
  8
0
 62
     7
  5
258
 10
0.0
 20
18.0
 30
5.0
 11
0.0
 21
18.0
 31
9.0
1001
AME_SOL
1070
     1
1071
       55
  0
LINE
  8
0
 62
     7
  5
259
 10
2.0
 20
18.0
 30
5.000001
 11
2.0
 21
18.0
 31
9.000001
1001
AME_SOL
1070
     1
1071
       54
  0
LINE
  8
0
 62
     7
  5
25A
 10
0.0
 20
18.0
 30
9.0
 11
2.0
 21
18.0
 31
9.0
1001
AME_SOL
1070
     1
1071
       53
  0
LINE
  8
0
 62
     7
  5
25B
 10
0.0
 20
19.0
 30
5.0
 11
0.0
 21
18.0
 31
5.0
1001
AME_SOL
1070
     1
1071
       52
  0
LINE
  8
0
 62
     7
  5
25C
 10
2.0
 20
19.0
 30
5.0
 11
2.0
 21
18.0
 31
5.0
1001
AME_SOL
1070
     1
1071
       51
  0
LINE
  8
0
 62
     7
  5
25D
 10
2.0
 20
19.0
 30
5.0
 11
0.0
 21
19.0
 31
5.0
1001
AME_SOL
1070
     1
1071
       50
  0
LINE
  8
0
 62
     7
  5
25E
 10
0.0
 20
18.0
 30
5.0
 11
2.0
 21
18.0
 31
5.0
1001
AME_SOL
1070
     1
1071
       49
  0
LINE
  8
0
 62
     7
  5
25F
 10
1.0
 20
1.0
 30
0.0
 11
1.0
 21
0.0
 31
0.0
1001
AME_SOL
1070
     1
1071
       48
  0
LINE
  8
0
 62
     7
  5
260
 10
1.0
 20
0.0
 30
14.0
 11
1.0
 21
1.0
 31
14.0
1001
AME_SOL
1070
     1
1071
       47
  0
LINE
  8
0
 62
     7
  5
261
 10
1.0
 20
0.0
 30
0.0
 11
1.0
 21
0.0
 31
14.0
1001
AME_SOL
1070
     1
1071
       46
  0
LINE
  8
0
 62
     7
  5
262
 10
0.0
 20
1.0
 30
0.0
 11
1.0
 21
1.0
 31
0.0
1001
AME_SOL
1070
     1
1071
       45
  0
LINE
  8
0
 62
     7
  5
263
 10
1.0
 20
1.0
 30
14.0
 11
0.0
 21
1.0
 31
14.0
1001
AME_SOL
1070
     1
1071
       44
  0
LINE
  8
0
 62
     7
  5
264
 10
0.0
 20
1.0
 30
14.0
 11
0.0
 21
1.0
 31
0.0
1001
AME_SOL
1070
     1
1071
       43
  0
LINE
  8
0
 62
     7
  5
265
 10
1.0
 20
1.0
 30
0.0
 11
1.0
 21
1.0
 31
14.0
1001
AME_SOL
1070
     1
1071
       42
  0
LINE
  8
0
 62
     7
  5
266
 10
10.0
 20
2.0
 30
0.0
 11
12.0
 21
2.0
 31
0.0
1001
AME_SOL
1070
     1
1071
       41
  0
LINE
  8
0
 62
     7
  5
267
 10
12.0
 20
2.0
 30
14.0
 11
10.0
 21
2.0
 31
14.0
1001
AME_SOL
1070
     1
1071
       40
  0
LINE
  8
0
 62
     7
  5
268
 10
10.0
 20
0.0
 30
0.0
 11
10.0
 21
2.0
 31
0.0
1001
AME_SOL
1070
     1
1071
       39
  0
LINE
  8
0
 62
     7
  5
269
 10
10.0
 20
2.0
 30
14.0
 11
10.0
 21
0.0
 31
14.0
1001
AME_SOL
1070
     1
1071
       38
  0
LINE
  8
0
 62
     7
  5
26A
 10
10.0
 20
0.0
 30
14.0
 11
10.0
 21
0.0
 31
0.0
1001
AME_SOL
1070
     1
1071
       37
  0
LINE
  8
0
 62
     7
  5
26B
 10
10.0
 20
2.0
 30
0.0
 11
10.0
 21
2.0
 31
14.0
1001
AME_SOL
1070
     1
1071
       36
  0
LINE
  8
0
 62
     7
  5
26C
 10
12.0
 20
4.0
 30
0.0
 11
14.0
 21
4.0
 31
0.0
1001
AME_SOL
1070
     1
1071
       35
  0
LINE
  8
0
 62
     7
  5
26D
 10
14.0
 20
4.0
 30
0.0
 11
14.0
 21
4.0
 31
14.0
1001
AME_SOL
1070
     1
1071
       34
  0
LINE
  8
0
 62
     7
  5
26E
 10
14.0
 20
4.0
 30
14.0
 11
12.0
 21
4.0
 31
14.0
1001
AME_SOL
1070
     1
1071
       33
  0
LINE
  8
0
 62
     7
  5
26F
 10
11.999999
 20
2.0
 30
0.0
 11
11.999999
 21
4.0
 31
0.0
1001
AME_SOL
1070
     1
1071
       32
  0
LINE
  8
0
 62
     7
  5
270
 10
11.999999
 20
4.0
 30
14.0
 11
11.999999
 21
2.000001
 31
14.0
1001
AME_SOL
1070
     1
1071
       31
  0
LINE
  8
0
 62
     7
  5
271
 10
11.999999
 20
2.0
 30
0.0
 11
11.999999
 21
2.0
 31
14.0
1001
AME_SOL
1070
     1
1071
       30
  0
LINE
  8
0
 62
     7
  5
272
 10
11.999999
 20
4.0
 30
0.0
 11
11.999999
 21
4.0
 31
14.0
1001
AME_SOL
1070
     1
1071
       29
  0
ENDBLK
  8
0
  5
273
  0
BLOCK
  8
0
  5
278
  2
*U20
 70
    65
 10
0.0
 20
0.0
 30
0.0
  1
*U
  3
*U
  0
LINE
  8
0
 62
     0
  5
279
 10
3.0
 20
3.0
 30
0.0
 11
3.0
 21
3.0
 31
13.999999
1001
AME_SOL
1070
     1
1071
       18
  0
LINE
  8
0
 62
     0
  5
27A
 10
3.0
 20
3.0
 30
13.999999
 11
3.0
 21
0.0
 31
13.999999
1001
AME_SOL
1070
     1
1071
       17
  0
LINE
  8
0
 62
     0
  5
27B
 10
0.0
 20
3.0
 30
13.999999
 11
3.0
 21
3.0
 31
13.999999
1001
AME_SOL
1070
     1
1071
       16
  0
LINE
  8
0
 62
     0
  5
27C
 10
0.0
 20
3.0
 30
0.0
 11
0.0
 21
3.0
 31
13.999999
1001
AME_SOL
1070
     1
1071
       15
  0
LINE
  8
0
 62
     0
  5
27D
 10
0.0
 20
3.0
 30
13.999999
 11
0.0
 21
0.0
 31
13.999999
1001
AME_SOL
1070
     1
1071
       14
  0
LINE
  8
0
 62
     0
  5
27E
 10
0.0
 20
0.0
 30
0.0
 11
0.0
 21
0.0
 31
13.999999
1001
AME_SOL
1070
     1
1071
       13
  0
LINE
  8
0
 62
     0
  5
27F
 10
3.0
 20
0.0
 30
13.999999
 11
3.0
 21
0.0
 31
0.0
1001
AME_SOL
1070
     1
1071
       12
  0
LINE
  8
0
 62
     0
  5
280
 10
0.0
 20
0.0
 30
13.999999
 11
3.0
 21
0.0
 31
13.999999
1001
AME_SOL
1070
     1
1071
       11
  0
LINE
  8
0
 62
     0
  5
281
 10
0.0
 20
0.0
 30
0.0
 11
3.0
 21
0.0
 31
0.0
1001
AME_SOL
1070
     1
1071
       10
  0
LINE
  8
0
 62
     0
  5
282
 10
0.0
 20
3.0
 30
0.0
 11
0.0
 21
0.0
 31
0.0
1001
AME_SOL
1070
     1
1071
        9
  0
LINE
  8
0
 62
     0
  5
283
 10
3.0
 20
0.0
 30
0.0
 11
3.0
 21
3.0
 31
0.0
1001
AME_SOL
1070
     1
1071
        8
  0
LINE
  8
0
 62
     0
  5
284
 10
3.0
 20
3.0
 30
0.0
 11
0.0
 21
3.0
 31
0.0
1001
AME_SOL
1070
     1
1071
        7
  0
ENDBLK
  8
0
  5
285
  0
BLOCK
  8
0
  5
289
  2
*U21
 70
    65
 10
0.0
 20
0.0
 30
0.0
  1
*U
  3
*U
  0
LINE
  8
0
 62
     0
  5
28A
 10
1.0
 20
4.0
 30
0.0
 11
1.0
 21
4.0
 31
13.999999
1001
AME_SOL
1070
     1
1071
       18
  0
LINE
  8
0
 62
     0
  5
28B
 10
1.0
 20
4.0
 30
13.999999
 11
1.0
 21
0.0
 31
13.999999
1001
AME_SOL
1070
     1
1071
       17
  0
LINE
  8
0
 62
     0
  5
28C
 10
0.0
 20
4.0
 30
13.999999
 11
1.0
 21
4.0
 31
13.999999
1001
AME_SOL
1070
     1
1071
       16
  0
LINE
  8
0
 62
     0
  5
28D
 10
0.0
 20
4.0
 30
0.0
 11
0.0
 21
4.0
 31
13.999999
1001
AME_SOL
1070
     1
1071
       15
  0
LINE
  8
0
 62
     0
  5
28E
 10
0.0
 20
4.0
 30
13.999999
 11
0.0
 21
0.0
 31
13.999999
1001
AME_SOL
1070
     1
1071
       14
  0
LINE
  8
0
 62
     0
  5
28F
 10
0.0
 20
0.0
 30
0.0
 11
0.0
 21
0.0
 31
13.999999
1001
AME_SOL
1070
     1
1071
       13
  0
LINE
  8
0
 62
     0
  5
290
 10
1.0
 20
0.0
 30
13.999999
 11
1.0
 21
0.0
 31
0.0
1001
AME_SOL
1070
     1
1071
       12
  0
LINE
  8
0
 62
     0
  5
291
 10
0.0
 20
0.0
 30
13.999999
 11
1.0
 21
0.0
 31
13.999999
1001
AME_SOL
1070
     1
1071
       11
  0
LINE
  8
0
 62
     0
  5
292
 10
0.0
 20
0.0
 30
0.0
 11
1.0
 21
0.0
 31
0.0
1001
AME_SOL
1070
     1
1071
       10
  0
LINE
  8
0
 62
     0
  5
293
 10
0.0
 20
4.0
 30
0.0
 11
0.0
 21
0.0
 31
0.0
1001
AME_SOL
1070
     1
1071
        9
  0
LINE
  8
0
 62
     0
  5
294
 10
1.0
 20
0.0
 30
0.0
 11
1.0
 21
4.0
 31
0.0
1001
AME_SOL
1070
     1
1071
        8
  0
LINE
  8
0
 62
     0
  5
295
 10
1.0
 20
4.0
 30
0.0
 11
0.0
 21
4.0
 31
0.0
1001
AME_SOL
1070
     1
1071
        7
  0
ENDBLK
  8
0
  5
296
  0
BLOCK
  8
0
  5
29C
  2
*U22
 70
    65
 10
0.0
 20
0.0
 30
0.0
  1
*U
  3
*U
  0
LINE
  8
0
 62
     7
  5
29D
 10
14.0
 20
15.0
 30
14.0
 11
14.0
 21
4.000001
 31
14.0
1001
AME_SOL
1070
     1
1071
      140
  0
LINE
  8
0
 62
     7
  5
29E
 10
6.0
 20
19.0
 30
14.0
 11
11.0
 21
19.0
 31
14.0
1001
AME_SOL
1070
     1
1071
      139
  0
LINE
  8
0
 62
     7
  5
29F
 10
0.0
 20
19.0
 30
14.0
 11
2.000001
 21
19.0
 31
14.0
1001
AME_SOL
1070
     1
1071
      138
  0
LINE
  8
0
 62
     7
  5
2A0
 10
0.0
 20
19.0
 30
14.0
 11
0.0
 21
1.0
 31
14.0
1001
AME_SOL
1070
     1
1071
      137
  0
LINE
  8
0
 62
     7
  5
2A1
 10
0.0
 20
19.0
 30
9.000001
 11
0.0
 21
19.0
 31
14.0
1001
AME_SOL
1070
     1
1071
      136
  0
LINE
  8
0
 62
     7
  5
2A2
 10
0.0
 20
19.0
 30
0.0
 11
0.0
 21
19.0
 31
5.000001
1001
AME_SOL
1070
     1
1071
      135
  0
LINE
  8
0
 62
     7
  5
2A3
 10
1.0
 20
0.0
 30
14.0
 11
10.0
 21
0.0
 31
14.0
1001
AME_SOL
1070
     1
1071
      134
  0
LINE
  8
0
 62
     7
  5
2A4
 10
1.0
 20
0.0
 30
0.0
 11
10.0
 21
0.0
 31
0.0
1001
AME_SOL
1070
     1
1071
      133
  0
LINE
  8
0
 62
     7
  5
2A5
 10
0.0
 20
19.0
 30
0.0
 11
0.0
 21
1.0
 31
0.0
1001
AME_SOL
1070
     1
1071
      132
  0
LINE
  8
0
 62
     7
  5
2A6
 10
14.0
 20
4.0
 30
0.0
 11
14.0
 21
15.0
 31
0.0
1001
AME_SOL
1070
     1
1071
      131
  0
LINE
  8
0
 62
     7
  5
2A7
 10
4.0
 20
19.0
 30
0.0
 11
0.0
 21
19.0
 31
0.0
1001
AME_SOL
1070
     1
1071
      130
  0
LINE
  8
0
 62
     7
  5
2A8
 10
11.0
 20
19.0
 30
0.0
 11
6.0
 21
19.0
 31
0.0
1001
AME_SOL
1070
     1
1071
      129
  0
LINE
  8
0
 62
     7
  5
2A9
 10
6.0
 20
19.0
 30
0.0
 11
6.0
 21
17.0
 31
0.0
1001
AME_SOL
1070
     1
1071
      128
  0
LINE
  8
0
 62
     7
  5
2AA
 10
6.0
 20
17.0
 30
14.0
 11
6.0
 21
19.0
 31
14.0
1001
AME_SOL
1070
     1
1071
      127
  0
LINE
  8
0
 62
     7
  5
2AB
 10
6.0
 20
3.000001
 30
14.0
 11
6.0
 21
7.000001
 31
14.0
1001
AME_SOL
1070
     1
1071
      126
  0
LINE
  8
0
 62
     7
  5
2AC
 10
6.0
 20
19.0
 30
13.999999
 11
6.0
 21
19.0
 31
0.0
1001
AME_SOL
1070
     1
1071
      125
  0
LINE
  8
0
 62
     7
  5
2AD
 10
14.0
 20
9.000001
 30
10.0
 11
14.0
 21
8.000001
 31
10.0
1001
AME_SOL
1070
     1
1071
      124
  0
LINE
  8
0
 62
     7
  5
2AE
 10
6.0
 20
8.0
 30
10.0
 11
6.0
 21
7.0
 31
10.0
1001
AME_SOL
1070
     1
1071
      123
  0
LINE
  8
0
 62
     7
  5
2AF
 10
6.0
 20
17.0
 30
10.0
 11
6.0
 21
9.0
 31
10.0
1001
AME_SOL
1070
     1
1071
      122
  0
LINE
  8
0
 62
     7
  5
2B0
 10
2.0
 20
17.0
 30
10.0
 11
2.0
 21
11.0
 31
10.0
1001
AME_SOL
1070
     1
1071
      121
  0
LINE
  8
0
 62
     7
  5
2B1
 10
2.0
 20
19.0
 30
14.000001
 11
2.0
 21
17.0
 31
14.000001
1001
AME_SOL
1070
     1
1071
      120
  0
LINE
  8
0
 62
     7
  5
2B2
 10
2.0
 20
19.0
 30
9.000001
 11
2.0
 21
19.0
 31
14.0
1001
AME_SOL
1070
     1
1071
      119
  0
LINE
  8
0
 62
     7
  5
2B3
 10
2.0
 20
19.0
 30
2.0
 11
2.0
 21
19.0
 31
5.0
1001
AME_SOL
1070
     1
1071
      118
  0
LINE
  8
0
 62
     7
  5
2B4
 10
2.0
 20
11.0
 30
4.0
 11
2.0
 21
11.0
 31
10.0
1001
AME_SOL
1070
     1
1071
      117
  0
LINE
  8
0
 62
     7
  5
2B5
 10
2.0
 20
11.0
 30
10.0
 11
3.0
 21
11.0
 31
10.0
1001
AME_SOL
1070
     1
1071
      116
  0
LINE
  8
0
 62
     7
  5
2B6
 10
14.0
 20
8.0
 30
4.0
 11
14.0
 21
9.0
 31
4.0
1001
AME_SOL
1070
     1
1071
      115
  0
LINE
  8
0
 62
     7
  5
2B7
 10
2.0
 20
11.0
 30
4.0
 11
3.0
 21
11.0
 31
4.0
1001
AME_SOL
1070
     1
1071
      114
  0
LINE
  8
0
 62
     7
  5
2B8
 10
2.0
 20
17.0
 30
4.0
 11
2.0
 21
11.0
 31
4.0
1001
AME_SOL
1070
     1
1071
      113
  0
LINE
  8
0
 62
     7
  5
2B9
 10
6.0
 20
9.0
 30
4.0
 11
6.0
 21
17.0
 31
4.0
1001
AME_SOL
1070
     1
1071
      112
  0
LINE
  8
0
 62
     7
  5
2BA
 10
6.0
 20
3.0
 30
4.0
 11
6.0
 21
8.0
 31
4.0
1001
AME_SOL
1070
     1
1071
      111
  0
LINE
  8
0
 62
     7
  5
2BB
 10
3.0
 20
3.0
 30
4.0
 11
3.0
 21
11.0
 31
4.0
1001
AME_SOL
1070
     1
1071
      110
  0
LINE
  8
0
 62
     7
  5
2BC
 10
3.0
 20
11.0
 30
10.0
 11
3.0
 21
11.0
 31
4.0
1001
AME_SOL
1070
     1
1071
      109
  0
LINE
  8
0
 62
     7
  5
2BD
 10
3.0
 20
11.0
 30
10.0
 11
3.0
 21
7.0
 31
10.0
1001
AME_SOL
1070
     1
1071
      108
  0
LINE
  8
0
 62
     7
  5
2BE
 10
3.0
 20
7.0
 30
14.000001
 11
3.0
 21
3.0
 31
14.000001
1001
AME_SOL
1070
     1
1071
      107
  0
LINE
  8
0
 62
     7
  5
2BF
 10
6.0
 20
3.0
 30
4.0
 11
3.0
 21
3.0
 31
4.0
1001
AME_SOL
1070
     1
1071
      106
  0
LINE
  8
0
 62
     7
  5
2C0
 10
3.0
 20
3.0
 30
4.0
 11
3.0
 21
3.0
 31
14.000001
1001
AME_SOL
1070
     1
1071
      105
  0
LINE
  8
0
 62
     7
  5
2C1
 10
3.0
 20
3.0
 30
14.000001
 11
6.0
 21
3.0
 31
14.000001
1001
AME_SOL
1070
     1
1071
      104
  0
LINE
  8
0
 62
     7
  5
2C2
 10
6.0
 20
3.0
 30
14.0
 11
6.0
 21
3.0
 31
4.0
1001
AME_SOL
1070
     1
1071
      103
  0
LINE
  8
0
 62
     7
  5
2C3
 10
6.0
 20
7.0
 30
10.0
 11
3.0
 21
7.0
 31
10.0
1001
AME_SOL
1070
     1
1071
      102
  0
LINE
  8
0
 62
     7
  5
2C4
 10
3.0
 20
7.0
 30
14.0
 11
3.0
 21
7.0
 31
9.999999
1001
AME_SOL
1070
     1
1071
      101
  0
LINE
  8
0
 62
     7
  5
2C5
 10
6.0
 20
7.0
 30
14.0
 11
3.0
 21
7.0
 31
14.0
1001
AME_SOL
1070
     1
1071
      100
  0
LINE
  8
0
 62
     7
  5
2C6
 10
6.0
 20
7.0
 30
10.000001
 11
6.0
 21
7.0
 31
14.0
1001
AME_SOL
1070
     1
1071
       99
  0
LINE
  8
0
 62
     7
  5
2C7
 10
6.0
 20
9.0
 30
4.0
 11
14.0
 21
9.0
 31
4.0
1001
AME_SOL
1070
     1
1071
       98
  0
LINE
  8
0
 62
     7
  5
2C8
 10
6.0
 20
9.0
 30
4.0
 11
6.0
 21
9.0
 31
10.0
1001
AME_SOL
1070
     1
1071
       97
  0
LINE
  8
0
 62
     7
  5
2C9
 10
14.0
 20
9.0
 30
4.0
 11
14.0
 21
9.0
 31
10.0
1001
AME_SOL
1070
     1
1071
       96
  0
LINE
  8
0
 62
     7
  5
2CA
 10
14.0
 20
9.0
 30
10.0
 11
6.0
 21
9.0
 31
10.0
1001
AME_SOL
1070
     1
1071
       95
  0
LINE
  8
0
 62
     7
  5
2CB
 10
14.0
 20
8.0
 30
4.0
 11
6.0
 21
8.0
 31
4.0
1001
AME_SOL
1070
     1
1071
       94
  0
LINE
  8
0
 62
     7
  5
2CC
 10
6.0
 20
8.0
 30
10.0
 11
6.0
 21
8.0
 31
4.0
1001
AME_SOL
1070
     1
1071
       93
  0
LINE
  8
0
 62
     7
  5
2CD
 10
14.0
 20
8.0
 30
10.0
 11
14.0
 21
8.0
 31
4.0
1001
AME_SOL
1070
     1
1071
       92
  0
LINE
  8
0
 62
     7
  5
2CE
 10
6.0
 20
8.0
 30
10.0
 11
13.999998
 21
8.0
 31
10.0
1001
AME_SOL
1070
     1
1071
       91
  0
LINE
  8
0
 62
     7
  5
2CF
 10
6.0
 20
17.0
 30
0.0
 11
4.0
 21
17.0
 31
0.0
1001
AME_SOL
1070
     1
1071
       90
  0
LINE
  8
0
 62
     7
  5
2D0
 10
6.0
 20
17.0
 30
4.0
 11
2.0
 21
17.0
 31
4.0
1001
AME_SOL
1070
     1
1071
       89
  0
LINE
  8
0
 62
     7
  5
2D1
 10
2.0
 20
17.0
 30
10.0
 11
6.0
 21
17.0
 31
10.0
1001
AME_SOL
1070
     1
1071
       88
  0
LINE
  8
0
 62
     7
  5
2D2
 10
2.0
 20
17.0
 30
10.0
 11
2.0
 21
17.0
 31
14.0
1001
AME_SOL
1070
     1
1071
       87
  0
LINE
  8
0
 62
     7
  5
2D3
 10
2.0
 20
17.0
 30
2.0
 11
2.0
 21
17.0
 31
4.0
1001
AME_SOL
1070
     1
1071
       86
  0
LINE
  8
0
 62
     7
  5
2D4
 10
2.0
 20
17.0
 30
14.0
 11
6.0
 21
17.0
 31
14.0
1001
AME_SOL
1070
     1
1071
       85
  0
LINE
  8
0
 62
     7
  5
2D5
 10
6.0
 20
17.0
 30
4.0
 11
6.0
 21
17.0
 31
0.0
1001
AME_SOL
1070
     1
1071
       84
  0
LINE
  8
0
 62
     7
  5
2D6
 10
6.0
 20
17.0
 30
14.0
 11
6.0
 21
17.0
 31
10.0
1001
AME_SOL
1070
     1
1071
       83
  0
LINE
  8
0
 62
     7
  5
2D7
 10
4.0
 20
17.000002
 30
0.0
 11
4.0
 21
17.000002
 31
2.0
1001
AME_SOL
1070
     1
1071
       82
  0
LINE
  8
0
 62
     7
  5
2D8
 10
4.0
 20
19.0
 30
2.0
 11
4.0
 21
19.0
 31
0.0
1001
AME_SOL
1070
     1
1071
       81
  0
LINE
  8
0
 62
     7
  5
2D9
 10
4.0
 20
19.0
 30
0.0
 11
4.0
 21
17.0
 31
0.0
1001
AME_SOL
1070
     1
1071
       80
  0
LINE
  8
0
 62
     7
  5
2DA
 10
2.0
 20
17.0
 30
2.0
 11
2.0
 21
19.0
 31
2.0
1001
AME_SOL
1070
     1
1071
       79
  0
LINE
  8
0
 62
     7
  5
2DB
 10
4.0
 20
17.000002
 30
2.0
 11
2.0
 21
17.000002
 31
2.0
1001
AME_SOL
1070
     1
1071
       78
  0
LINE
  8
0
 62
     7
  5
2DC
 10
4.0
 20
19.000002
 30
2.0
 11
4.0
 21
17.000002
 31
2.0
1001
AME_SOL
1070
     1
1071
       77
  0
LINE
  8
0
 62
     7
  5
2DD
 10
2.0
 20
19.0
 30
2.0
 11
4.0
 21
19.0
 31
2.0
1001
AME_SOL
1070
     1
1071
       76
  0
LINE
  8
0
 62
     7
  5
2DE
 10
0.0
 20
18.0
 30
9.000001
 11
0.0
 21
19.0
 31
9.000001
1001
AME_SOL
1070
     1
1071
       75
  0
LINE
  8
0
 62
     7
  5
2DF
 10
2.0
 20
18.0
 30
9.000001
 11
2.0
 21
19.0
 31
9.000001
1001
AME_SOL
1070
     1
1071
       74
  0
LINE
  8
0
 62
     7
  5
2E0
 10
0.0
 20
19.0
 30
9.000001
 11
2.0
 21
19.0
 31
9.000001
1001
AME_SOL
1070
     1
1071
       73
  0
LINE
  8
0
 62
     7
  5
2E1
 10
0.0
 20
18.0
 30
5.0
 11
0.0
 21
18.0
 31
9.0
1001
AME_SOL
1070
     1
1071
       72
  0
LINE
  8
0
 62
     7
  5
2E2
 10
2.0
 20
18.0
 30
5.000001
 11
2.0
 21
18.0
 31
9.000001
1001
AME_SOL
1070
     1
1071
       71
  0
LINE
  8
0
 62
     7
  5
2E3
 10
0.0
 20
18.0
 30
9.0
 11
2.0
 21
18.0
 31
9.0
1001
AME_SOL
1070
     1
1071
       70
  0
LINE
  8
0
 62
     7
  5
2E4
 10
0.0
 20
19.0
 30
5.0
 11
0.0
 21
18.0
 31
5.0
1001
AME_SOL
1070
     1
1071
       69
  0
LINE
  8
0
 62
     7
  5
2E5
 10
2.0
 20
19.0
 30
5.0
 11
2.0
 21
18.0
 31
5.0
1001
AME_SOL
1070
     1
1071
       68
  0
LINE
  8
0
 62
     7
  5
2E6
 10
2.0
 20
19.0
 30
5.0
 11
0.0
 21
19.0
 31
5.0
1001
AME_SOL
1070
     1
1071
       67
  0
LINE
  8
0
 62
     7
  5
2E7
 10
0.0
 20
18.0
 30
5.0
 11
2.0
 21
18.0
 31
5.0
1001
AME_SOL
1070
     1
1071
       66
  0
LINE
  8
0
 62
     7
  5
2E8
 10
1.0
 20
1.0
 30
0.0
 11
1.0
 21
0.0
 31
0.0
1001
AME_SOL
1070
     1
1071
       65
  0
LINE
  8
0
 62
     7
  5
2E9
 10
1.0
 20
0.0
 30
14.0
 11
1.0
 21
1.0
 31
14.0
1001
AME_SOL
1070
     1
1071
       64
  0
LINE
  8
0
 62
     7
  5
2EA
 10
1.0
 20
0.0
 30
0.0
 11
1.0
 21
0.0
 31
14.0
1001
AME_SOL
1070
     1
1071
       63
  0
LINE
  8
0
 62
     7
  5
2EB
 10
0.0
 20
1.0
 30
0.0
 11
1.0
 21
1.0
 31
0.0
1001
AME_SOL
1070
     1
1071
       62
  0
LINE
  8
0
 62
     7
  5
2EC
 10
1.0
 20
1.0
 30
14.0
 11
0.0
 21
1.0
 31
14.0
1001
AME_SOL
1070
     1
1071
       61
  0
LINE
  8
0
 62
     7
  5
2ED
 10
0.0
 20
1.0
 30
14.0
 11
0.0
 21
1.0
 31
0.0
1001
AME_SOL
1070
     1
1071
       60
  0
LINE
  8
0
 62
     7
  5
2EE
 10
1.0
 20
1.0
 30
0.0
 11
1.0
 21
1.0
 31
14.0
1001
AME_SOL
1070
     1
1071
       59
  0
LINE
  8
0
 62
     7
  5
2EF
 10
10.0
 20
2.0
 30
0.0
 11
12.0
 21
2.0
 31
0.0
1001
AME_SOL
1070
     1
1071
       58
  0
LINE
  8
0
 62
     7
  5
2F0
 10
12.0
 20
2.0
 30
14.0
 11
10.0
 21
2.0
 31
14.0
1001
AME_SOL
1070
     1
1071
       57
  0
LINE
  8
0
 62
     7
  5
2F1
 10
10.0
 20
0.0
 30
0.0
 11
10.0
 21
2.0
 31
0.0
1001
AME_SOL
1070
     1
1071
       56
  0
LINE
  8
0
 62
     7
  5
2F2
 10
10.0
 20
2.0
 30
14.0
 11
10.0
 21
0.0
 31
14.0
1001
AME_SOL
1070
     1
1071
       55
  0
LINE
  8
0
 62
     7
  5
2F3
 10
10.0
 20
0.0
 30
14.0
 11
10.0
 21
0.0
 31
0.0
1001
AME_SOL
1070
     1
1071
       54
  0
LINE
  8
0
 62
     7
  5
2F4
 10
10.0
 20
2.0
 30
0.0
 11
10.0
 21
2.0
 31
14.0
1001
AME_SOL
1070
     1
1071
       53
  0
LINE
  8
0
 62
     7
  5
2F5
 10
12.0
 20
4.0
 30
0.0
 11
14.0
 21
4.0
 31
0.0
1001
AME_SOL
1070
     1
1071
       52
  0
LINE
  8
0
 62
     7
  5
2F6
 10
14.0
 20
4.0
 30
0.0
 11
14.0
 21
4.0
 31
14.0
1001
AME_SOL
1070
     1
1071
       51
  0
LINE
  8
0
 62
     7
  5
2F7
 10
14.0
 20
4.0
 30
14.0
 11
12.0
 21
4.0
 31
14.0
1001
AME_SOL
1070
     1
1071
       50
  0
LINE
  8
0
 62
     7
  5
2F8
 10
11.999999
 20
2.0
 30
0.0
 11
11.999999
 21
4.0
 31
0.0
1001
AME_SOL
1070
     1
1071
       49
  0
LINE
  8
0
 62
     7
  5
2F9
 10
11.999999
 20
4.0
 30
14.0
 11
11.999999
 21
2.000001
 31
14.0
1001
AME_SOL
1070
     1
1071
       48
  0
LINE
  8
0
 62
     7
  5
2FA
 10
11.999999
 20
2.0
 30
0.0
 11
11.999999
 21
2.0
 31
14.0
1001
AME_SOL
1070
     1
1071
       47
  0
LINE
  8
0
 62
     7
  5
2FB
 10
11.999999
 20
4.0
 30
0.0
 11
11.999999
 21
4.0
 31
14.0
1001
AME_SOL
1070
     1
1071
       46
  0
LINE
  8
0
 62
     7
  5
2FC
 10
13.0
 20
15.0
 30
0.0
 11
13.0
 21
16.0
 31
0.0
1001
AME_SOL
1070
     1
1071
       45
  0
LINE
  8
0
 62
     7
  5
2FD
 10
13.0
 20
15.999999
 30
14.0
 11
13.0
 21
15.0
 31
14.0
1001
AME_SOL
1070
     1
1071
       44
  0
LINE
  8
0
 62
     7
  5
2FE
 10
14.0
 20
15.0
 30
0.0
 11
13.0
 21
15.0
 31
0.0
1001
AME_SOL
1070
     1
1071
       43
  0
LINE
  8
0
 62
     7
  5
2FF
 10
14.0
 20
15.0
 30
14.0
 11
14.0
 21
15.0
 31
0.0
1001
AME_SOL
1070
     1
1071
       42
  0
LINE
  8
0
 62
     7
  5
300
 10
13.000001
 20
15.0
 30
14.0
 11
14.0
 21
15.0
 31
14.0
1001
AME_SOL
1070
     1
1071
       41
  0
LINE
  8
0
 62
     7
  5
301
 10
13.0
 20
15.0
 30
0.0
 11
13.0
 21
15.0
 31
14.0
1001
AME_SOL
1070
     1
1071
       40
  0
LINE
  8
0
 62
     7
  5
302
 10
11.0
 20
16.0
 30
0.0
 11
11.0
 21
19.0
 31
0.0
1001
AME_SOL
1070
     1
1071
       39
  0
LINE
  8
0
 62
     7
  5
303
 10
11.0
 20
19.0
 30
14.0
 11
11.0
 21
16.0
 31
14.0
1001
AME_SOL
1070
     1
1071
       38
  0
LINE
  8
0
 62
     7
  5
304
 10
11.0
 20
19.0
 30
0.0
 11
11.0
 21
19.0
 31
14.0
1001
AME_SOL
1070
     1
1071
       37
  0
LINE
  8
0
 62
     7
  5
305
 10
13.0
 20
16.0
 30
0.0
 11
11.0
 21
16.0
 31
0.0
1001
AME_SOL
1070
     1
1071
       36
  0
LINE
  8
0
 62
     7
  5
306
 10
11.0
 20
16.0
 30
14.0
 11
13.0
 21
16.0
 31
14.0
1001
AME_SOL
1070
     1
1071
       35
  0
LINE
  8
0
 62
     7
  5
307
 10
13.0
 20
16.0
 30
0.0
 11
13.0
 21
16.0
 31
14.0
1001
AME_SOL
1070
     1
1071
       34
  0
LINE
  8
0
 62
     7
  5
308
 10
11.0
 20
16.0
 30
0.0
 11
11.0
 21
16.0
 31
14.0
1001
AME_SOL
1070
     1
1071
       33
  0
ENDBLK
  8
0
  5
309
  0
BLOCK
  8
0
  5
30E
  2
AME_MAT
 70
    64
 10
0.0
 20
0.0
 30
0.0
  1
AME_MAT
  3
AME_MAT
  0
ENDBLK
  8
0
  5
30F
  0
ENDSEC
  0
SECTION
  2
ENTITIES
  0
INSERT
  8
AME_FRZ
  5
3
  2
AME_NIL
 10
0.0
 20
0.0
 30
0.0
  0
INSERT
  8
AME_FRZ
  5
6
  2
AME_SOL
 10
0.0
 20
0.0
 30
0.0
1001
AME_SOL
1000
1.0
1000
sq cm
1070
     3
1070
     0
1070
     3
1000
wire
1040
0.0
1000
NONE
1040
1.0
1000
cm
1000
gm
1000
MILD_STEEL
1070
    25
1000
CSG
1070
     3
1070
     2
1070
     3
1000
cu cm
1070
     4
1070
     0
1005
3
  0
INSERT
  8
AME_FRZ
  5
15
  2
*U2
 10
3.0
 20
3.0
 30
4.0
1001
AME_SOL
1002
{
1070
     0
1071
  1858984
1070
  1536
1010
3.0
1020
14.0
1030
6.0
1005
0
1005
0
1005
4B
1040
0.0
1040
1.0
1000
MILD_STEEL
1000
0
1010
3.0
1020
3.0
1030
4.0
1010
0.0
1020
0.0
1030
1.0
1040
0.0
1002
}
  0
INSERT
  8
AME_FRZ
  5
26
  2
*U3
 10
2.0
 20
11.0
 30
4.0
1001
AME_SOL
1002
{
1070
     0
1071
  1926320
1070
  1536
1010
4.0
1020
6.0
1030
6.0
1005
0
1005
0
1005
4B
1040
0.0
1040
1.0
1000
MILD_STEEL
1000
0
1010
2.0
1020
11.0
1030
4.0
1010
0.0
1020
0.0
1030
1.0
1040
0.0
1002
}
  0
INSERT
  8
AME_FRZ
  5
37
  2
*U4
 10
3.0
 20
3.0
 30
4.0
1001
AME_SOL
1002
{
1070
     0
1071
  1930232
1070
  1536
1010
3.0
1020
4.0
1030
10.0
1005
0
1005
0
1005
4C
1040
0.0
1040
1.0
1000
MILD_STEEL
1000
0
1010
3.0
1020
3.0
1030
4.0
1010
0.0
1020
0.0
1030
1.0
1040
0.0
1002
}
  0
INSERT
  8
AME_FRZ
  5
48
  2
*U5
 10
6.0
 20
8.0
 30
4.0
1001
AME_SOL
1002
{
1070
     0
1071
  1945968
1070
  1536
1010
8.0
1020
1.0
1030
6.0
1005
0
1005
0
1005
4C
1040
0.0
1040
1.0
1000
MILD_STEEL
1000
0
1010
6.0
1020
8.0
1030
4.0
1010
0.0
1020
0.0
1030
1.0
1040
0.0
1002
}
  0
INSERT
  8
AME_FRZ
  5
4B
  2
AME_NIL
 10
0.0
 20
0.0
 30
0.0
1001
AME_SOL
1002
{
1070
     0
1071
  1976568
1070
   775
1070
     2
1005
26
1005
15
1005
0
1005
0
1005
74
1040
0.0
1040
1.0
1000
MILD_STEEL
1000
0
1010
0.0
1020
0.0
1030
0.0
1010
0.0
1020
0.0
1030
1.0
1040
0.0
1002
}
  0
INSERT
  8
AME_FRZ
  5
4C
  2
AME_NIL
 10
0.0
 20
0.0
 30
0.0
1001
AME_SOL
1002
{
1070
     0
1071
  1990552
1070
   775
1070
     2
1005
37
1005
48
1005
0
1005
0
1005
74
1040
0.0
1040
1.0
1000
MILD_STEEL
1000
0
1010
0.0
1020
0.0
1030
0.0
1010
0.0
1020
0.0
1030
1.0
1040
0.0
1002
}
  0
INSERT
  8
AME_FRZ
  5
74
  2
*U6
 10
0.0
 20
0.0
 30
0.0
1001
AME_SOL
1002
{
1070
     0
1071
  2005056
1070
  1543
1070
     2
1005
4B
1005
4C
1005
0
1005
0
1005
BB
1040
0.0
1040
1.0
1000
MILD_STEEL
1000
0
1010
0.0
1020
0.0
1030
0.0
1010
0.0
1020
0.0
1030
1.0
1040
0.0
1002
}
  0
INSERT
  8
AME_FRZ
  5
85
  2
*U7
 10
0.0
 20
0.0
 30
0.0
1001
AME_SOL
1002
{
1070
     0
1071
  2003968
1070
  1536
1010
14.0
1020
19.0
1030
14.0
1005
0
1005
0
1005
BB
1040
0.0
1040
1.0
1000
MILD_STEEL
1000
0
1010
0.0
1020
0.0
1030
0.0
1010
0.0
1020
0.0
1030
1.0
1040
0.0
1002
}
  0
INSERT
  8
AME_FRZ
  5
BB
  2
*U8
 10
0.0
 20
0.0
 30
0.0
1001
AME_SOL
1002
{
1070
     0
1071
  1934320
1070
  1543
1070
     0
1005
85
1005
74
1005
0
1005
0
1005
17E
1040
0.0
1040
1.0
1000
MILD_STEEL
1000
0
1010
0.0
1020
0.0
1030
0.0
1010
0.0
1020
0.0
1030
1.0
1040
0.0
1002
}
  0
INSERT
  8
AME_FRZ
  5
CC
  2
*U9
 10
2.0
 20
17.0
 30
0.0
1001
AME_SOL
1002
{
1070
     0
1071
  1939448
1070
  1536
1010
4.0
1020
2.0
1030
14.0
1005
0
1005
0
1005
F5
1040
0.0
1040
1.0
1000
MILD_STEEL
1000
0
1010
2.0
1020
17.0
1030
0.0
1010
0.0
1020
0.0
1030
1.0
1040
0.0
1002
}
  0
INSERT
  8
AME_FRZ
  5
DD
  2
*U10
 10
2.0
 20
17.0
 30
0.0
1001
AME_SOL
1002
{
1070
     0
1071
  1935848
1070
  1536
1010
2.0
1020
2.0
1030
2.0
1005
0
1005
0
1005
F5
1040
0.0
1040
1.0
1000
MILD_STEEL
1000
0
1010
2.0
1020
17.0
1030
0.0
1010
0.0
1020
0.0
1030
1.0
1040
0.0
1002
}
  0
INSERT
  8
AME_FRZ
  5
F5
  2
*U11
 10
0.0
 20
0.0
 30
0.0
1001
AME_SOL
1002
{
1070
     0
1071
  1937224
1070
  1543
1070
     0
1005
CC
1005
DD
1005
0
1005
0
1005
12A
1040
0.0
1040
1.0
1000
MILD_STEEL
1000
0
1010
0.0
1020
0.0
1030
0.0
1010
0.0
1020
0.0
1030
1.0
1040
0.0
1002
}
  0
INSERT
  8
AME_FRZ
  5
106
  2
*U12
 10
0.0
 20
18.0
 30
5.0
1001
AME_SOL
1002
{
1070
     0
1071
  2007152
1070
  1536
1010
2.0
1020
1.0
1030
4.0
1005
0
1005
0
1005
12A
1040
0.0
1040
1.0
1000
MILD_STEEL
1000
0
1010
0.0
1020
18.0
1030
5.0
1010
0.0
1020
0.0
1030
1.0
1040
0.0
1002
}
  0
INSERT
  8
AME_FRZ
  5
12A
  2
*U13
 10
0.0
 20
0.0
 30
0.0
1001
AME_SOL
1002
{
1070
     0
1071
  1987088
1070
  1543
1070
     2
1005
F5
1005
106
1005
0
1005
0
1005
17E
1040
0.0
1040
1.0
1000
MILD_STEEL
1000
0
1010
0.0
1020
0.0
1030
0.0
1010
0.0
1020
0.0
1030
1.0
1040
0.0
1002
}
  0
INSERT
  8
AME_FRZ
  5
17E
  2
*U14
 10
0.0
 20
0.0
 30
0.0
1001
AME_SOL
1002
{
1070
     0
1071
  2062360
1070
  1543
1070
     0
1005
BB
1005
12A
1005
0
1005
0
1005
1EA
1040
0.0
1040
1.0
1000
MILD_STEEL
1000
0
1010
0.0
1020
0.0
1030
0.0
1010
0.0
1020
0.0
1030
1.0
1040
0.0
1002
}
  0
INSERT
  8
AME_FRZ
  5
190
  2
*U15
 10
0.0
 20
0.0
 30
0.0
1001
AME_SOL
1002
{
1070
     0
1071
  2086968
1070
  1536
1010
1.0
1020
1.0
1030
14.0
1005
0
1005
0
1005
1EA
1040
0.0
1040
1.0
1000
MILD_STEEL
1000
0
1010
0.0
1020
0.0
1030
0.0
1010
0.0
1020
0.0
1030
1.0
1040
0.0
1002
}
  0
INSERT
  8
AME_FRZ
  5
1EA
  2
*U16
 10
0.0
 20
0.0
 30
0.0
1001
AME_SOL
1002
{
1070
     0
1071
  2087560
1070
  1543
1070
     0
1005
17E
1005
190
1005
0
1005
0
1005
274
1040
0.0
1040
1.0
1000
MILD_STEEL
1000
0
1010
0.0
1020
0.0
1030
0.0
1010
0.0
1020
0.0
1030
1.0
1040
0.0
1002
}
  0
INSERT
  8
AME_FRZ
  5
1FC
  2
*U17
 10
10.0
 20
0.0
 30
0.0
1001
AME_SOL
1002
{
1070
     0
1071
  2005848
1070
  1536
1010
4.0
1020
2.0
1030
14.0
1005
0
1005
0
1005
210
1040
0.0
1040
1.0
1000
MILD_STEEL
1000
0
1010
10.0
1020
0.0
1030
0.0
1010
0.0
1020
0.0
1030
1.0
1040
0.0
1002
}
  0
INSERT
  8
AME_FRZ
  5
20D
  2
*U18
 10
12.0
 20
2.0
 30
0.0
1001
AME_SOL
1002
{
1070
     0
1071
  1860728
1070
  1536
1010
2.0
1020
2.0
1030
14.0
1005
0
1005
0
1005
210
1040
0.0
1040
1.0
1000
MILD_STEEL
1000
0
1010
12.0
1020
2.0
1030
0.0
1010
0.0
1020
0.0
1030
1.0
1040
0.0
1002
}
  0
INSERT
  8
AME_FRZ
  5
210
  2
AME_NIL
 10
0.0
 20
0.0
 30
0.0
1001
AME_SOL
1002
{
1070
     0
1071
  1983656
1070
   775
1070
     2
1005
1FC
1005
20D
1005
0
1005
0
1005
274
1040
0.0
1040
1.0
1000
MILD_STEEL
1000
0
1010
0.0
1020
0.0
1030
0.0
1010
0.0
1020
0.0
1030
1.0
1040
0.0
1002
}
  0
INSERT
  8
AME_FRZ
  5
274
  2
*U19
 10
0.0
 20
0.0
 30
0.0
1001
AME_SOL
1002
{
1070
     0
1071
  2164112
1070
  1543
1070
     0
1005
1EA
1005
210
1005
0
1005
0
1005
30A
1040
0.0
1040
1.0
1000
MILD_STEEL
1000
0
1010
0.0
1020
0.0
1030
0.0
1010
0.0
1020
0.0
1030
1.0
1040
0.0
1002
}
  0
INSERT
  8
AME_FRZ
  5
286
  2
*U20
 10
11.0
 20
16.0
 30
0.0
1001
AME_SOL
1002
{
1070
     0
1071
  2169560
1070
  1536
1010
3.0
1020
3.0
1030
14.0
1005
0
1005
0
1005
29A
1040
0.0
1040
1.0
1000
MILD_STEEL
1000
0
1010
11.0
1020
16.0
1030
0.0
1010
0.0
1020
0.0
1030
1.0
1040
0.0
1002
}
  0
INSERT
  8
AME_FRZ
  5
297
  2
*U21
 10
13.0
 20
15.0
 30
0.0
1001
AME_SOL
1002
{
1070
     0
1071
  2044040
1070
  1536
1010
1.0
1020
4.0
1030
14.0
1005
0
1005
0
1005
29A
1040
0.0
1040
1.0
1000
MILD_STEEL
1000
0
1010
13.0
1020
15.0
1030
0.0
1010
0.0
1020
0.0
1030
1.0
1040
0.0
1002
}
  0
INSERT
  8
AME_FRZ
  5
29A
  2
AME_NIL
 10
0.0
 20
0.0
 30
0.0
1001
AME_SOL
1002
{
1070
     0
1071
  2046232
1070
   775
1070
     2
1005
297
1005
286
1005
0
1005
0
1005
30A
1040
0.0
1040
1.0
1000
MILD_STEEL
1000
0
1010
0.0
1020
0.0
1030
0.0
1010
0.0
1020
0.0
1030
1.0
1040
0.0
1002
}
  0
INSERT
  8
0
  5
30A
  2
*U22
 10
0.0
 20
0.0
 30
0.0
1001
AME_SOL
1002
{
1070
     0
1071
  2108712
1070
  1543
1070
     0
1005
274
1005
29A
1005
0
1005
30B
1005
0
1040
0.0
1040
1.0
1000
MILD_STEEL
1000
0
1002
}
  0
INSERT
  8
AME_FRZ
  5
30B
  2
AME_NIL
 10
1.0
 20
1.0
 30
1.0
1001
AME_SOL
1004
E903A9FB0100F0FFFFFF000052F7200001000000DA865BBBDA865BBBDA865BBBB80D6041DC069841B80D604101000000FBF2040080F62F4180F67F41000018BB80096041C00480417F0960410100844EB0152000FFFF0000010031010000844E00000000803F000000000000000000000000000000000000
1004
803F00003041000080410000000005000000000000000000000000000000000000000000844E00000000803F000000000000000000000000000000000000803F000030410000804100000000050000000000000000000000000000000000FFFFFFFFFBF2040080F62F4180F67F41000018BB80093041C004
1004
98417F0960410100844E801F1F00FFFF0000010030010000844E000000000000000000000000803F000000000000803F0000000000003041000080410000000005000000000000000000000000000000000000000000844E000000000000000000000000803F000000000000803F00000000000030410000
1004
804100000000050000000000000000000000000000000000FFFFFFFFFBF2040080F64F4180F66F41000018BB80096041800970417F0960410100844E08092000FFFF0000010095010000844E00000000803F000000000000000000000000000000000000803F000050410000704100000000050000000000
1004
00000000000000000000000000000000844E00000000803F000000000000000000000000000000000000803F000050410000704100000000050000000000000000000000000000000000FFFFFFFFFBF2040080F64F4180F66F41000018BB80095041C00498417F0960410100844ED8092000FFFF00000100
1004
94010000844E000000000000000000000000803F000000000000803F0000000000005041000070410000000005000000000000000000000000000000000000000000844E000000000000000000000000803F000000000000803F000000000000504100007041000000000500000000000000000000000000
1004
00000000FFFFFFFFFBF204007FF63F4100B4FF3F000018BB7F094041001380407F0960410100844E30072000FFFF00000100C0020000844E000000000000000000000000803F000000000000803F00000000FFFF3F41000000400000000005000000000000000000000000000000000000000000844E0000
1004
00000000000000000000803F000000000000803F00000000FFFF3F410000004000000000050000000000000000000000000000000000FFFFFFFFFBF204007FF63F4100DA7F40000018BB80096041001380407F0960410100844E00082000FFFF00000100BE020000844E00000000008000000080000080BF
1004
000080BF0000008000000080FFFF5F4100008040FFFF5F4105000000000000000000000000000000000000000000844E00000000008000000080000080BF000080BF00000080000000800000604100008040FFFF5F41050000000000000000000000000000000000FFFFFFFFFBF2040080F61F41000018BB
1004
000018BB80092041002600407F0960410100844EF0FE1F00FFFF0000010024030000844E000000000000000000000000803F000000000000803F0000000000002041000000000000000005000000000000000000000000000000000000000000844E000000000000000000000000803F000000000000803F
1004
00000000000020410000000000000000050000000000000000000000000000000000FFFFFFFFFBF2040080F61F4100B4FF3F000018BB81096041002600407F0960410100844EC0FF1F00FFFF0000010022030000844E00000000008000000080000080BF000080BF00000080000000800000604100000040
1004
FFFF5F4105000000000000000000000000000000000000000000844E00000000008000000080000080BF000080BF00000080000000800100604100000040FFFF5F41050000000000000000000000000000000000FFFFFFFFFBF20400000018BB00687F3F000018BB004C803F004C803F7F0960410100844E
1004
90002000FFFF00000100EA030000844E00000000008000000080000080BF000080BF00000080000000800000803F0000803FFFFF5F4105000000000000000000000000000000000000000000844E00000000008000000080000080BF000080BF00000080000000800000803F0000803FFFFF5F4105000000
1004
0000000000000000000000000000FFFFFFFFFBF2040000687F3F000018BB000018BB004C803F004C803F7F0960410100844E60012000FFFF00000100E9030000844E000000000080000080BF000000800000008000000080000080BF0000803F0000803FFFFF5F4105000000000000000000000000000000
1004
000000000000844E000000000080000080BF000000800000008000000080000080BF0000803F0000803FFFFF5F41050000000000000000000000000000000000FFFFFFFFFBF20400000018BB40FB8F4101ED9F4000260040C00498410113A0400100844EB0022000FFFF000001001A050000844E00000000
1004
00000000803F000000000000803F000000000000000000000000000090410100A04005000000000000000000000000000000000000000000844E0000000000000000803F000000000000803F000000000000000000000000000090410100A040050000000000000000000000000000000000FFFFFFFFFBF2
1004
0400000018BB40FB8F4101ED9F4000260040C0049041810910410100844EA0032000FFFF0000010019050000844E00000000803F000000000000000000000000000000000000803F00000000000090410100A04005000000000000000000000000000000000000000000844E00000000803F000000000000
1004
000000000000000000000000803F00000000000090410100A040050000000000000000000000000000000000FFFFFFFFFBF20400000018BB40FB8F4181F60F4100260040C0049841810910410100844E90042000FFFF0000010017050000844E0000000080BF000000800000008000000080000080BF0000
1004
008000000040000098410000104105000000000000000000000000000000000000000000844E0000000080BF000000800000008000000080000080BF00000080000000400000984101001041050000000000000000000000000000000000FFFFFFFFFBF2040000B4FF3F41FB874100B4FF3F00138040C104
1004
9841002600400100844E90F91F00010000000100DF050000844E0000000080BF000000800000008000000080000080BF0000008000008040010098410000004005000000000000000000000000000000000000000000844E0000000080BF000000800000008000000080000080BF00000080000080400100
1004
98410000004005000000000000000000000000000000000001000000FBF2040000DA7F4041FB8741000018BB00138040C1049841002600400100844E80FA1F00010000000100DD050000844E000000000080000080BF000000800000008000000080000080BF000080400100984100000040050000000000
1004
00000000000000000000000000000000844E000000000080000080BF000000800000008000000080000080BF00008040010098410000004005000000000000000000000000000000000001000000FBF20A0000B4FF3F41FB8741000018BBFF12C040C10488417F0960410100844E70FB1F00FFFF00000100
1004
45060000844E00000000803F000000000000000000000000000000000000803F00000040010088410000000005000000000000000000000000000000000000000000844E000000000000000000000000803F000080BF0000008000000080FFFFBF4000008841000020410500000000000000000000000000
1004
00000000FFFFFFFFFBF20400FFECBF4000EDFF4000DA7F408009604180090041800920410100844E60FC1F00FFFF00000100D5070000844E00000000803F000000000000000000000000000000000000803FFFFFBF40000000410000804005000000000000000000000000000000000000000000844E0000
1004
0000803F000000000000000000000000000000000000803FFFFFBF400000004100008040050000000000000000000000000000000000FFFFFFFFFBF20400FFECBF4080F60F4100DA7F408009604180091041800920410100844E50FD1F00FFFF00000100D2070000844E00000000008000000080000080BF
1004
000080BF000000800000008000006041000010410000204105000000000000000000000000000000000000000000844E00000000008000000080000080BF000080BF0000008000000080000060410000104100002041050000000000000000000000000000000000FFFFFFFFFBF20400FFD93F4000EDDF40
1004
00DA7F40FF12C0400013E040810960410100844E480D2000FFFF0000010036080000844E00000000008000000080000080BF000080BF0000008000000080FFFFBF400000E0400100604105000000000000000000000000000000000000000000844E00000000008000000080000080BF000080BF00000080
1004
00000080FFFFBF400000E04001006041050000000000000000000000000000000000FFFFFFFFFBF20400FFD93F40FFD93F4000DA7F40FF12C040FF254040810960410100844E380E2000FFFF0000020039080000844E00000000803F000000000000000000000000000000000000803FFFFF3F40FFFF3F40
1004
000080400500000000000000000000000000000000000000000001090000844E00000000803F000000000000000000000000000000000000803FFFFF3F40FFFF3F400000804005000000000000000000000000000000000000000000844E00000000803F000000000000000000000000000000000000803F
1004
FFFF3F40FFFF3F4000008040050000000000000000000000000000000000FFFFFFFFFBF20600FFD93F40FFD93F4000DA7F40FF2540400013E040810960410100844E380F2000FFFF0000020038080000844E000000000000000000000000803F000000000000803F00000000FFFF3F40FFFF3F4000008040
1004
0500000000000000000000000000000000000000000000090000844E000000000000000000000000803F000000000000803F00000000FFFF3F40FFFF3F400000804005000000000000000000000000000000000000000000844E000000000000000000000000803F000000000000803F00000000FFFF3F40
1004
FFFF3F4000008040050000000000000000000000000000000000FFFFFFFFFBF20A00FFECBF4000EDFF4000DA7F408009604180091041001380400100844E58102000FFFF00000400D6070000844E0000000000000000803F000000000000803F0000000000000000FFFFBF40000000410000804005000000
1004
0000000000000000000000000000000000003A080000844E0000000000000000803F000000000000803F0000000000000000FFFF3F40FFFF3F40000080400500000000000000000000000000000000000000000002090000844E0000000000000000803F000000000000803F0000000000000000FFFF3F40
1004
FFFF3F40000080400500000000000000000000000000000000000000000066090000844E0000000000000000803F000000000000803F000000000000000000000040000030410000804005000000000000000000000000000000000000000000844E0000000000000000803F000000000000803F00000000
1004
00000000000000400000304100008040050000000000000000000000000000000000FFFFFFFFFBF2040000B4FF3F80F62F4100DA7F40FF12C04080093041800920410100844E48112000FFFF0000010065090000844E00000000803F000000000000000000000000000000000000803F0000004000003041
1004
0000804005000000000000000000000000000000000000000000844E00000000803F000000000000000000000000000000000000803F000000400000304100008040050000000000000000000000000000000000FFFFFFFFFBF20C0000B4FF3F41FB8741000018BB00260040C10498417F0960410100844E
1004
C0A61D00FFFF0000020044060000844E000000000000000000000000803F000000000000803F000000000000004001008841000000000500000000000000000000000000000000000000000064090000844E000000000000000000000000803F000000000000803F00000000000000400000304100008040
1004
05000000000000000000000000000000000000000000844E000000000000000000000000803F000000000000803F00000000000000400000304100008040050000000000000000000000000000000000FFFFFFFFFBF20A00FFECBF4000EDFF4080F61F418009604180091041800920410100844EF8B81D00
1004
FFFF00000300D3070000844E0000000080BF000000800000008000000080000080BF0000008000006041000010410000204105000000000000000000000000000000000000000000FF080000844E0000000080BF000000800000008000000080000080BF00000080FFFFBF40FFFF87410000204105000000
1004
00000000000000000000000000000000000063090000844E0000000080BF000000800000008000000080000080BF000000800000C040000088410000204105000000000000000000000000000000000000000000844E0000000080BF000000800000008000000080000080BF00000080FFFFBF4000008841
1004
00002041050000000000000000000000000000000000FFFFFFFFFBF20E00FFECBF4041FB8741000018BBFF12C040C10498417F0960410100844EF0E51D00FFFF0000040041060000844E000000000080000080BF000000800000008000000080000080BF0000C04001009841FFFF5F410500000000000000
1004
000000000000000000000000000035080000844E000000000080000080BF000000800000008000000080000080BFFFFFBF400000E0400100604105000000000000000000000000000000000000000000FD080000844E000000000080000080BF000000800000008000000080000080BFFFFFBF40FFFF8741
1004
000020410500000000000000000000000000000000000000000061090000844E000000000080000080BF000000800000008000000080000080BF0000C040000088410000204105000000000000000000000000000000000000000000844E000000000080000080BF000000800000008000000080000080BF
1004
FFFFBF400000884100002041050000000000000000000000000000000000FFFFFFFFFBF2120000B4FF3F41FB8741000018BB00138040C10498410000183B0100844E181A1E00010000000200E2050000844E0000000000000000803F000000000000803F0000000000000000000000400100884100000000
1004
05000000000000000000000000000000000000000000CA090000844E0000000000000000803F000000000000803F000000000000000000000000000000000000000005000000000000000000000000000000000000000000844E0000000000000000803F000000000000803F000000000000000000000000
1004
000000000000000005000000000000000000000000000000000001000000FBF20400DA865BBBDA865BBBDA865BBBB80D6041DA865B3BB80D60410100844EA80E1E00010000000100C9090000844E00000000803F000000000000000000000000000000000000803F00000000000000000000000005000000
1004
000000000000000000000000000000000000844E00000000803F000000000000000000000000000000000000803F00000000000000000000000005000000000000000000000000000000000001000000FBF20800DA865BBBDA865BBBDA865BBBDA865B3BDC069841B80D60410100844E381B1E0001000000
1004
0100C8090000844E000000000000000000000000803F000000000000803F0000000000000000000000000000000005000000000000000000000000000000000000000000844E000000000000000000000000803F000000000000803F00000000000000000000000000000000050000000000000000000000
1004
00000000000001000000FBF21600DA865BBBDA865BBB47F25F41B80D6041DC069841B80D60410100844E20341E00010000000100C7090000844E0000000080BF000000800000008000000080000080BF0000008000006041000098410000604105000000000000000000000000000000000000000000844E
1004
0000000080BF000000800000008000000080000080BF0000008000006041000098410000604105000000000000000000000000000000000001000000FBF20E0000B4FF3F41FB9741000018BB00138040C1049841002600400100844E70501E00010000000200DE050000844E000000000080000000800000
1004
80BF000080BF000000800000008000008040010098410000004005000000000000000000000000000000000000000000C6090000844E00000000008000000080000080BF000080BF000000800000008000006041000098410000604105000000000000000000000000000000000000000000844E00000000
1004
008000000080000080BF000080BF000000800000008000006041000098410000604105000000000000000000000000000000000001000000FBF2080047F25F41DA865BBBDA865BBBB80D6041DC069841B80D60410100844E006B1E00010000000100C5090000844E000000000080000080BF000000800000
1004
008000000080000080BF00006041000098410000604105000000000000000000000000000000000000000000844E000000000080000080BF000000800000008000000080000080BF00006041000098410000604105000000000000000000000000000000000001000000A4EE80F62F4180F67F41000018BB
1004
80093041C00480417F096041000000000000604102009675487A1E0000000100FFFFB0152000801F1F0000000200801F1F00B0152000FFFFFFFFFFFFFFFF96750000000080BF000000000000000000000000000080BF0000000000003041000080410000000002000000000000006041A4EE80F64F4180F6
1004
7F41000018BB80095041C00480417F09604100000000000060410200967500811E000000FFFF0100B0152000D809200000000200B0152000D8092000FFFFFFFFFFFFFFFF96750000000080BF000000000000000000000000000080BF0000000000005041000080410000000002000000000000006041A4EE
1004
80F62F4180F67F4147F25F4180096041C00480417F096041FFFFBFBF0600003F02009675B8791E0000000100FFFFB015200020341E000000020020341E00B015200001000000FFFFFFFF9675000000000000000000000000803F00000000000080BF000000000000484100008041000060410200FFFFBFBF
1004
0600003FA4EE80F62F4180F67F41000018BB80096041C0048041DA865B3B0000F0C00000B0C00200967530831E0000000100FFFFB0152000181A1E0000000200181A1E00B015200001000000FFFFFFFF967500000000000000000000000080BF00000000000080BF000000000000B0400000804100000000
1004
02000000F0C00000B0C0A4EE80F62F4124F99741000018BB80093041C00498417F0960410000E0C00000E04002009675805A1E0000000100FFFF801F1F0070501E000000020070501E00801F1F0001000000FFFFFFFF96750000000000000000803F00000000000080BF0000000000000000000030410000
1004
98410000E04002000000E0C00000E040A4EE80F62F4180F67F4147F25F4180093041C00498417F096041FFFFBFBFFFFFBF3F02009675001F1E0000000100FFFF801F1F0020341E000000020020341E00801F1F0001000000FFFFFFFF9675000000000000000000000000803F000080BF0000000000000000
1004
0000304100008C41000060410200FFFFBFBFFFFFBF3FA4EE80F62F4180F67F41000018BB80093041C0049841DA865B3B000000410000304102009675B0E31D0000000100FFFF801F1F00181A1E0000000200181A1E00801F1F0001000000FFFFFFFF967500000000000000000000000080BF000080BF0000
1004
00000000000000003041000000410000000002000000004100003041A4EE80F64F4180F66F41000018BB80095041800970417F096041000000000000604102009675800E1F0000000100FFFF08092000D809200000000200D809200008092000FFFFFFFFFFFFFFFF96750000000080BF0000000000000000
1004
00000000000080BF0000000000005041000070410000000002000000000000006041A4EE80F64F4180F66F4147F25F4180096041800970417F096041060000BFE6FFFF3E0200967520071F0000000100FFFF0809200020341E000000020020341E000809200001000000FFFFFFFF96750000000000000000
1004
00000000803F00000000000080BF000000000100584100007041000060410200060000BFE6FFFF3EA4EE47F25F4180F66F41000018BB80096041800970417F0960410000E0C00000E0400200967510081F0000000100FFFF08092000006B1E0000000200006B1E000809200001000000FFFFFFFF96750000
1004
0000803F000000000000000000000000000080BF0000000000006041000070410000E04002000000E0C00000E040A4EE80F64F4180F66F41000018BB8009604180097041DA865B3BFFFFEFC00000D0C00200967500091F0000000100FFFF08092000181A1E0000000200181A1E000809200001000000FFFF
1004
FFFF967500000000000000000000000080BF00000000000080BF000000000000D04000007041000000000200FFFFEFC00000D0C0A4EE80F64F4180F66F4147F25F4180095041C00498417F0960410600803F0100004002009675F0091F0000000100FFFFD809200020341E000000020020341E00D8092000
1004
01000000FFFFFFFF9675000000000000000000000000803F000080BF000000000000000000005041000088410000604102000600803F01000040A4EE80F64F4180F66F41000018BB80095041C0049841DA865B3B0000F0400000084102009675E00A1F0000000100FFFFD8092000181A1E0000000200181A
1004
1E00D809200001000000FFFFFFFF967500000000000000000000000080BF000080BF0000000000000000000050410000F0400000000002000000F04000000841A4EE7FF63F4100DA7F40000018BB7F094041001380407F096041FFFFDFC00100E0400200967518171F0000000100FFFF3007200000082000
1004
000002000008200030072000FFFFFFFFFFFFFFFF96750000000000000000803F00000000000080BF0000000000000000FFFF3F4100008040FFFFDF400200FFFFDFC00100E040A4EE7FF63F4100B4FF3F000018BB7F094041002600407F096041FFFFDFC00100E0400200967508181F000000FFFF01003007
1004
2000C0FF1F000000020030072000C0FF1F00FFFFFFFFFFFFFFFF96750000000000000000803F00000000000080BF0000000000000000FFFF3F4100000040FFFFDF400200FFFFDFC00100E040A4EE7FF63F4100B4FF3F47F25F417F094041001380407F0960410100D0400000084102009675F8181F000000
1004
0100FFFF3007200020341E000000020020341E003007200001000000FFFFFFFF9675000000000000000000000000803F000080BF0000000000000000FFFF3F41010028410000604102000100D04000000841A4EE7FF63F4100B4FF3F000018BB7F09404100138040DA865B3B0000803FFFFF3F4002009675
1004
E8191F0000000100FFFF30072000181A1E0000000200181A1E003007200001000000FFFFFFFF967500000000000000000000000080BF000080BF0000000000000000FFFF3F410000803F0000000002000000803FFFFF3F40A4EE7FF63F4100DA7F4047F25F4180096041001380407F096041000000000100
1004
004002009675D81A1F0000000100FFFF0008200020341E000000020020341E000008200001000000FFFFFFFF9675000000000000000000000000803F000000000000803F0000000000006041000080400000604102000000000001000040A4EE47F25F4100DA7F40000018BB80096041001380407F096041
1004
FFFF5FC10000983502009675C81B1F0000000100FFFF00082000006B1E0000000200006B1E000008200001000000FFFFFFFF967500000000803F0000000000000000000000000000803F000000000000604100008040FFFF5F410200FFFF5FC100009835A4EE7FF63F4100DA7F40000018BB800960410013
1004
8040DA865B3BFFFF9F400000E04002009675B81C1F0000000100FFFF00082000181A1E0000000200181A1E000008200001000000FFFFFFFF967500000000000000000000000080BF000000000000803F000000000000E04000008040000000000200FFFF9F400000E040A4EE80F61F4100B4FF3F000018BB
1004
80092041002600407F096041FFFFDFC00100E04002009675A81D1F0000000100FFFFF0FE1F00C0FF1F0000000200C0FF1F00F0FE1F00FFFFFFFFFFFFFFFF96750000000000000000803F00000000000080BF00000000000000000000204100000040FFFFDF400200FFFFDFC00100E040A4EE80F61F410000
1004
18BB000018BB80092041DA865B3B7F096041000060C10000008002009675981E1F0000000100FFFFF0FE1F00A80E1E0000000200A80E1E00F0FE1F0001000000FFFFFFFF9675000000000000000080BF00000000000080BF00000000000000000000204100000000000000000200000060C100000080A4EE
1004
80F61F41000018BB47F25F4180092041002600407F096041FFFFEF400000184102009675A08C200000000100FFFFF0FE1F0020341E000000020020341E00F0FE1F0001000000FFFFFFFF9675000000000000000000000000803F000080BF00000000000000000000204100001841000060410200FFFFEF40
1004
00001841A4EE80F61F41000018BB000018BB8009204100260040DA865B3B000000000000004002009675F08D200000000100FFFFF0FE1F00181A1E0000000200181A1E00F0FE1F0001000000FFFFFFFF967500000000000000000000000080BF000080BF0000000000000000000020410000000000000000
1004
02000000000000000040A4EE80F61F4100B4FF3F47F25F4181096041002600407F096041060000400100804002009675E08E200000000100FFFFC0FF1F0020341E000000020020341E00C0FF1F0001000000FFFFFFFF9675000000000000000000000000803F000000000000803F00000000010060410000
1004
00400000604102000600004001008040A4EE80F61F4100B4FF3F000018BB8109604100260040DA865B3BFFFF3F40FEFF9F4002009675D08F200000000100FFFFC0FF1F00181A1E0000000200181A1E00C0FF1F0001000000FFFFFFFF967500000000000000000000000080BF000000000000803F00000000
1004
0100E04000000040000000000200FFFF3F40FEFF9F40A4EE00687F3F00687F3F000018BB004C803F004C803F7F096041FFFF5FC10000983502009675808A200000000100FFFF9000200060012000000002006001200090002000FFFFFFFFFFFFFFFF967500000000803F0000000000000000000000000000
1004
803F000000000000803F0000803FFFFF5F410200FFFF5FC100009835A4EE000018BB00687F3F000018BBDA865B3B004C803F7F0960410100E0C0FFFFDF4002009675708B200000000100FFFF90002000381B1E0000000200381B1E009000200001000000FFFFFFFF96750000000080BF0000000000000000
1004
000000000000803F00000000000000000000803FFFFFDF4002000100E0C0FFFFDF40A4EE000018BB00687F3F47F25F41004C803F004C803F7F0960410000D0400000F04002009675108C200000000100FFFF9000200020341E000000020020341E009000200001000000FFFFFFFF96750000000000000000
1004
00000000803F000000000000803F000000000000F0400000803F0000604102000000D0400000F040A4EE000018BB00687F3F000018BB004C803F004C803FDA865B3B000000BF0000003F020096754889210000000100FFFF90002000181A1E0000000200181A1E009000200001000000FFFFFFFF96750000
1004
0000000000000000000080BF000000000000803F000000000000003F0000803F000000000200000000BF0000003FA4EE00687F3F000018BB000018BB004C803FDA865B3B7F096041FFFFDFC00100E04002009675688B210000000100FFFF60012000A80E1E0000000200A80E1E006001200001000000FFFF
1004
FFFF9675000000000000000080BF000000000000803F00000000000000000000803F00000000FFFFDF400200FFFFDFC00100E040A4EE00687F3F000018BB47F25F41004C803F004C803F7F096041000020C1000010C102009675F08D210000000100FFFF6001200020341E000000020020341E0060012000
1004
01000000FFFFFFFF9675000000000000000000000000803F0000803F00000000000000000000803F00002041000060410200000020C1000010C1A4EE00687F3F000018BB000018BB004C803F004C803FDA865B3B000000BF0000003F020096750891210000000100FFFF60012000181A1E0000000200181A
1004
1E006001200001000000FFFFFFFF967500000000000000000000000080BF0000803F00000000000000000000803F0000003F000000000200000000BF0000003FA4EEFFFFDFBA80FC8F4100F29F40001C004080039041010EA04000000000000000400200967560F8200000000100FFFFB0022000A0032000
1004
00000200A0032000B0022000FFFFFFFFFFFFFFFF9675000000000000000080BF000000000000000000000000000080BF00000000000090410100A04002000000000000000040A4EE000018BB24F9974101ED9F4000260040C00498410113A0400000A0400000E0400200967580F9200000000100FFFFB002
1004
200070501E000000020070501E00B002200001000000FFFFFFFF96750000000000000000803F000000000000000000000000000080BF0000E040000098410100A04002000000A0400000E040A4EE00B4FF3F40FB8F4101ED9F4000260040C00498410113A040000090C0010060C00200967558FA20000000
1004
FFFF0100B0022000C0A61D0000000200B0022000C0A61D00FFFFFFFFFFFFFFFF96750000000080BF00000000000000000000000000000000000080BF00000040000068410100A0400200000090C0010060C0A4EE000018BB40FB8F4101ED9F40DA865B3BC00498410113A040000020C1000010C102009675
1004
78FB200000000100FFFFB0022000381B1E0000000200381B1E00B002200001000000FFFFFFFF96750000000080BF00000000000000000000000000000000000080BF00000000000010410100A0400200000020C1000010C1A4EEFFFFDFBA80FC8F4100F90F41001C00408003904100071041000080BF0000
1004
803F02009675B8FD200000000100FFFFA0032000900420000000020090042000A0032000FFFFFFFFFFFFFFFF9675000000000000000000000000803F00000000000080BF000000000000803F00009041000010410200000080BF0000803FA4EE00B4FF3F40FB8F4101ED9F4000260040C004904181091041
1004
0600003F010090400200967590FE20000000FFFF0100A0032000C0A61D0000000200A0032000C0A61D00FFFFFFFFFFFFFFFF96750000000080BF000000000000000000000000000080BF0000000000000040000090410100904002000600003F01009040A4EE000018BB40FB8F4101ED9F40DA865B3BC004
1004
904181091041010020400000D0400200967568FF200000000100FFFFA0032000381B1E0000000200381B1E00A003200001000000FFFFFFFF96750000000080BF000000000000000000000000000080BF000000000000000000009041010020400200010020400000D040A4EE000018BB24F9974181F60F41
1004
00260040C004984181091041000000C1FFFFBFC002009675C87A210000000100FFFF9004200070501E000000020070501E009004200001000000FFFFFFFF96750000000000000000803F0000000000000000000000000000803F0000004100009841010010410200000000C1FFFFBFC0A4EE00B4FF3F40FB
1004
8F4181F60F4100260040C004984181091041040040400100804002009675787C21000000FFFF010090042000C0A61D000000020090042000C0A61D00FFFFFFFFFFFFFFFF96750000000080BF000000000000000000000000000000000000803F00000040FFFF6F410100104102000400404001008040A4EE
1004
000018BB40FB8F4181F60F41DA865B3BC004984181091041000008410000184102009675007F210000000100FFFF90042000381B1E0000000200381B1E009004200001000000FFFFFFFF96750000000080BF000000000000000000000000000000000000803F000000000000184101001041020000000841
1004
00001841A4EE00B4FF3F24F9974100B4FF3F00138040C1049841002600400100E0C00000A0C002009675B08021000000FFFF010090F91F0070501E000000020090F91F0070501E00010000000100000096750000000000000000803F0000000000000000000000000000803F000010410000984100000040
1004
02000100E0C00000A0C0A4EE00E47F4081FC8741FFC7FF3F000E804080039841001C0040000000000300004002009675608221000000FFFF010090F91F0080FA1F000000020090F91F0080FA1F000100000001000000967500000000803F000000000000000000000000000000000000803F000080400100
1004
98410000004002000000000003000040A4EEFFC7FF3F81FC8741FFC7FF3F000E8040AD038841001C0040FEFF7FBF0100803F02009675E88F21000000FFFF010090F91F0070FB1F000000020090F91F0070FB1F0001000000FFFFFFFF9675000000000000000080BF0000000000000000000000000000803F
1005
30C
  0
INSERT
  8
AME_FRZ
  5
30C
  2
AME_NIL
 10
1.0
 20
1.0
 30
1.0
1001
AME_SOL
1004
FFFF3F4001008841000000400200FEFF7FBF0100803FA4EE00B4FF3F41FB874100B4FF3F00260040C104984100260040EFFFFF3FF9FF7F4002009675608D21000000FFFF010090F91F00C0A61D000000020090F91F00C0A61D0001000000FFFFFFFF96750000000080BF0000000000000000000000000000
1004
00000000803F0000004002007041000000400200EFFFFF3FF9FF7F40A4EE00DA7F4041FB8741000018BB00138040C1049841DA865B3BFFFF17C1FDFFEFC002009675B08B21000000FFFF010080FA1F00181A1E000000020080FA1F00181A1E000100000001000000967500000000000000000000000080BF
1004
0000803F00000000000000000000804001001841000000000200FFFF17C1FDFFEFC0A4EE00DA7F4024F99741000018BB00138040C104984100260040FFFFBF400000004102009675008921000000FFFF010080FA1F0070501E000000020080FA1F0070501E00010000000100000096750000000000000000
1004
803F000000000000803F00000000000000000000804000009841000000410200FFFFBF4000000041A4EE00E47F4081FC8741FFFFDFBA000E8040AD038841001C0040000080BF0000803F02009675D08121000000FFFF010080FA1F0070FB1F000000020080FA1F0070FB1F0001000000FFFFFFFF96750000
1004
00000000000080BF000000000000803F000000000000000000008040010088410000803F0200000080BF0000803FA4EEFFECBF4041FB8741000018BBFF12C040C10488417F096041FEFF7FC00000000002009675707E210000000100FFFF70FB1F00F0E51D0000000200F0E51D0070FB1F00FFFFFFFFFFFF
1004
FFFF967500000000803F000000000000000000000000000080BF00000000FFFFBF4000008841000020410200FEFF7FC000000000A4EEFFECBF4041FB8741000018BBFF12C040C10488417F0960410100C0400000204102009675E87B210000000100FFFF70FB1F00F0E51D0000000200F0E51D0070FB1F00
1004
FFFFFFFFFFFFFFFF967500000000803F000000000000000000000000000080BF00000000FFFFBF40000088410000204102000100C04000002041A4EE00B4FF3F41FB874147F25F41FF12C040C10488417F096041000000C1010080C0020096755024210000000100FFFF70FB1F0020341E00000002002034
1004
1E0070FB1F0001000000FFFFFFFF9675000000000000000000000000803F00000000000080BF000000000000204100008841000060410200000000C1010080C0A4EE00B4FF3F41FB8741000018BB00260040C10488417F0960410000A0C0020040C00200967538F9200000000100FFFF70FB1F00C0A61D00
1004
00000200C0A61D0070FB1F00FFFFFFFFFFFFFFFF96750000000080BF000000000000000000000000000080BF0000000000000040000088410100E04002000000A0C0020040C0A4EE00B4FF3F41FB8741000018BB00260040C10488417F096041FFFF3F40FFFFDF40020096754060220000000100FFFF70FB
1004
1F00C0A61D0000000200C0A61D0070FB1F00FFFFFFFFFFFFFFFF96750000000080BF000000000000000000000000000080BF0000000000000040000088410100E0400200FFFF3F40FFFFDF40A4EE00B4FF3F41FB874180F61F41FF12C040C004884180092041FFFF7FC00000008002009675B81A22000000
1004
FFFF010070FB1F00F8B81D000000020070FB1F00F8B81D00FFFFFFFFFFFFFFFF9675000000000000000000000000803F00000000000080BF00000000FFFFBF4000008841000020410200FFFF7FC000000080A4EE00B4FF3F41FB874100DA7F40FF12C040C004884100138040FEFFFFBF0000004002009675
1004
58C020000000FFFF010070FB1F00581020000000020070FB1F0058102000FFFFFFFFFFFFFFFF967500000000000000000000000080BF00000000000080BF000000000000804000008841000080400200FEFFFFBF00000040A4EE00B4FF3F41FB8741000018BBFF12C040C1048841DA865B3BFFFF3FC00100
1004
80BF0200967528C1200000000100FFFF70FB1F00181A1E0000000200181A1E0070FB1F0001000000FFFFFFFF967500000000000000000000000080BF00000000000080BF00000000FFFF3F4000008841000000000200FFFF3FC0010080BFA4EE00F2BF4000F2FF403EF81F41FE0660410007004100072041
1004
00000000FEFFFF400200967510BB200000000100FFFF60FC1F00F8B81D0000000200F8B81D0060FC1F00FFFFFFFFFFFFFFFF9675000000000000000000000000803F00000000000080BF00000000FFFFBF400000004100002041020000000000FEFFFF40A4EE47F25F4100EDFF4000DA7F40800960418009
1004
004180092041010080BF0000A0400200967500BC200000000100FFFF60FC1F00006B1E0000000200006B1E0060FC1F0001000000FFFFFFFF967500000000803F000000000000000000000000000080BF000000000000604100000041000010410200010080BF0000A040A4EEFFECBF4000EDFF4000DA7F40
1004
FF12C0408009004180092041FFFF3FC00200404002009675F0BC20000000FFFF010060FC1F00F0E51D000000020060FC1F00F0E51D00FFFFFFFFFFFFFFFF967500000000803F000000000000000000000000000080BF00000000FFFFBF40000000410100E0400200FFFF3FC002004040A4EE00F2BF4000F2
1004
FF4000E47F40FE06604100070041860F8040000020C1010000C002009675E0BD200000000100FFFF60FC1F0058102000000002005810200060FC1F00FFFFFFFFFFFFFFFF967500000000000000000000000080BF00000000000080BF000000000000804000000041000080400200000020C1010000C0A4EE
1004
00F2BF4000F90F413EF81F41FE0660410007104100072041FEFF7FC0FEFF7F4002009675D0BE200000000100FFFF50FD1F00F8B81D0000000200F8B81D0050FD1F00FFFFFFFFFFFFFFFF9675000000000000000000000000803F000000000000803F000000000000204100001041000020410200FEFF7FC0
1004
FEFF7F40A4EE47F25F4180F60F4100DA7F40800960418009104180092041FFFFFFC0F9FFFFBF0200967580C8200000000100FFFF50FD1F00006B1E0000000200006B1E0050FD1F0001000000FFFFFFFF967500000000803F0000000000000000000000000000803F000000000000604100001041FFFF3F41
1004
0200FFFFFFC0F9FFFFBFA4EEFFECBF4080F60F4100DA7F40FF12C04080091041800920410100C0C0000000800200967570C920000000FFFF010050FD1F00F0E51D000000020050FD1F00F0E51D00FFFFFFFFFFFFFFFF967500000000803F0000000000000000000000000000803F00000000FFFFBF400000
1004
10410000204102000100C0C000000080A4EE00F2BF4000F90F4100E47F40FE06604100071041860F8040FEFFFFBFFFFFBF400200967560CA200000000100FFFF50FD1F0058102000000002005810200050FD1F00FFFFFFFFFFFFFFFF967500000000000000000000000080BF000000000000803F00000000
1004
0000004100001041000080400200FEFFFFBFFFFFBF40A4EEFFECBF4000EDDF4000DA7F40FF12C0400013E04081096041010000C0F9FFFF3F0200967550CB200000000100FFFF480D2000F0E51D0000000200F0E51D00480D2000FFFFFFFFFFFFFFFF967500000000803F0000000000000000000000000000
1004
803F00000000FFFFBF400000E040010040410200010000C0F9FFFF3FA4EEFFD93F4000EDDF4047F25F41FF12C0400013E04081096041010080400100E04002009675B0B5200000000100FFFF480D200020341E000000020020341E00480D200001000000FFFFFFFF9675000000000000000000000000803F
1004
000000000000803F00000000000020410000E040000060410200010080400100E040A4EE00E43F4000F2DF4000E47F400D1F4040FE0DE040010760410100A0C0F7FF7FBF02009675A0B6200000000100FFFF480D2000380F200000000200380F2000480D2000FFFFFFFFFFFFFFFF96750000000080BF0000
1004
000000000000000000000000803F00000000FFFF3F40FFFFDF400000104102000100A0C0F7FF7FBFA4EE00E43F4000F2DF403EF81F41000EC040FE0DE040C407204100000000FFFF3F400200967590B720000000FFFF0100480D2000F8B81D0000000200480D2000F8B81D00FFFFFFFFFFFFFFFF96750000
1004
00000000000000000000803F000000000000803F00000000FFFFBF40FFFFDF4000002041020000000000FFFF3F40A4EEFFECBF40FFD93F4000DA7F40FF12C040FF25404081096041FFFFDFC0020040400200967580B8200000000100FFFF380E2000F0E51D0000000200F0E51D00380E2000FFFFFFFFFFFF
1004
FFFF967500000000803F000000000000000000000000000080BF00000000FFFFBF40FFFF3F400100E0400200FFFFDFC002004040A4EEFFD93F40FFD93F4047F25F41FF12C040FF254040810960410000B0C0000020C00200967570B9200000000100FFFF380E200020341E000000020020341E00380E2000
1004
01000000FFFFFFFF9675000000000000000000000000803F00000000000080BF0000000000000841FFFF3F400100604102000000B0C0000020C0A4EEF3E03F40F3E03F40F4E07F400D1F40400D1F40400107604100000000010020410200967560BA200000000100FFFF380E2000380F200000000200380F
1004
2000380E2000FFFFFFFFFFFFFFFF96750000000080BF000000000000000000000000000080BF00000000FFFF3F40FFFF3F400000804002000000000001002041A4EEF3E03F40F3E03F40F4E07F40870FC0400D1F4040860F8040010060C0030000BF020096757083200000000100FFFF380E200058102000
1004
0000020058102000380E2000FFFFFFFFFFFFFFFF967500000000000000000000000080BF00000000000080BF0000000000002040FFFF3F40000080400200010060C0030000BFA4EEFFD93F40FFD93F4047F25F41FF2540400013E040810960410000804000000041020096756084200000000100FFFF380F
1004
200020341E000000020020341E00380F200001000000FFFFFFFF9675000000000000000000000000803F000080BF0000000000000000FFFF3F40000030410100604102000000804000000041A4EEF3E03F40F3E03F403EF81F410D1F4040E1038841C4072041F7FF7FBF0400404002009675508520000000
1004
0100FFFF380F2000F8B81D0000000200F8B81D00380F2000FFFFFFFFFFFFFFFF9675000000000000000000000000803F000080BF0000000000000000FFFF3F4001002041000020410200F7FF7FBF04004040A4EEF3E03F4000F92F4100E47F400D1F40400007304100072041FFFFBFC00000008002009675
1004
408620000000FFFF0100380F20004811200000000200380F200048112000FFFFFFFFFFFFFFFF9675000000000000000080BF00000000000080BF0000000000000000FFFF3F4000003041000080400200FFFFBFC000000080A4EEF3E03F40F3E03F40F4E07F400D1F4040E1038841860F8040FEFF7FC00100
1004
8040020096753087200000000100FFFF380F2000581020000000020058102000380F2000FFFFFFFFFFFFFFFF967500000000000000000000000080BF000080BF0000000000000000FFFF3F40FFFFDF40000080400200FEFF7FC001008040A4EEFFECBF40FFD93F4000DA7F40FF12C040C004884100138040
1004
000030C1FFFFBFC0020096752088200000000100FFFF58102000F0E51D0000000200F0E51D0058102000FFFFFFFFFFFFFFFF967500000000803F00000000000000000000000000000000000080BFFFFFBF4000006041000080400200000030C1FFFFBFC0A4EEFFECBF40FFD93F4000DA7F40FF12C040C004
1004
884100138040FFFF9FC0FFFF3F4002009675B863220000000100FFFF58102000F0E51D0000000200F0E51D0058102000FFFFFFFFFFFFFFFF967500000000803F00000000000000000000000000000000000080BFFFFFBF4000006041000080400200FFFF9FC0FFFF3F40A4EE00B4FF3F80F62F4100DA7F40
1004
00260040C004884100138040FFFFBFC00000008002009675A864220000000100FFFF58102000C0A61D0000000200C0A61D0058102000FFFFFFFFFFFFFFFF96750000000080BF00000000000000000000000000000000000080BF0000004000003041000080400200FFFFBFC000000080A4EEFFC7FF3F00F9
1004
2F4100E47F40000EC04000073041860F8040000000000100803F020096759865220000000100FFFF5810200048112000000002004811200058102000FFFFFFFFFFFFFFFF9675000000000000000080BF000000000000000000000000000080BF0000004000003041000080400200000000000100803FA4EE
1004
47F25F4100EDFF4000DA7F40800960418009104100138040FFFFDFC0FEFFBFC0020096758866220000000100FFFF58102000006B1E0000000200006B1E005810200001000000FFFFFFFF967500000000803F00000000000000000000000000000000000080BF00006041FFFF6F41FEFF7F400200FFFFDFC0
1004
FEFFBFC0A4EEFFC7FF3F00F92F413EF81F41000EC0400007304100072041020000C0030080BF020096757867220000000100FFFF48112000F8B81D0000000200F8B81D0048112000FFFFFFFFFFFFFFFF9675000000000000000000000000803F00000000000080BF00000000010080400000304100002041
1004
0200020000C0030080BFA4EE00B4FF3F80F62F4100DA7F40002600408009304180092041000000000100C040020096756868220000000100FFFF48112000C0A61D0000000200C0A61D0048112000FFFFFFFFFFFFFFFF96750000000080BF000000000000000000000000000080BF00000000000000400000
1004
3041000080400200000000000100C040A4EE00B4FF3F24F99741000018BB00260040C10498417F0960410100E0C0FEFF7FC0020096755869220000000100FFFFC0A61D0070501E000000020070501E00C0A61D0001000000FFFFFFFF96750000000000000000803F00000000000080BF0000000000000000
1004
00000040000098410000104102000100E0C0FEFF7FC0A4EE00B4FF3F24F99741000018BB00260040C10498417F09604100001835FFFF9F4002009675486A220000000100FFFFC0A61D0070501E000000020070501E00C0A61D0001000000FFFFFFFF96750000000000000000803F00000000000080BF0000
1004
000000000000000000400000984100001041020000001835FFFF9F40A4EE00B4FF3F41FB874147F25F4100260040C10498417F096041010080C0010000C002009675386B220000000100FFFFC0A61D0020341E000000020020341E00C0A61D0001000000FFFFFFFF9675000000000000000000000000803F
1004
000080BF000000000000000000000040FFFF6F41010060410200010080C0010000C0A4EE00B4FF3F80F62F4180F61F4100260040C004884180092041FFFF3FC0FFFF3F4002009675286C220000000100FFFFC0A61D00F8B81D0000000200F8B81D00C0A61D00FFFFFFFFFFFFFFFF96750000000000000000
1004
00000000803F000080BF00000000000000000000004000006041000020410200FFFF3FC0FFFF3F40A4EEFFECBF40FFD93F4080F61F41FF12C040C00488418009204100000000FFFFFF4002009675186D220000000100FFFFF8B81D00F0E51D0000000200F0E51D00F8B81D00FFFFFFFFFFFFFFFF96750000
1004
0000803F000000000000000000000000000000000000803FFFFFBF400000884100002041020000000000FFFFFF40A4EEFFECBF40FFD93F4080F61F41FF12C040C004884180092041000010410000204102009675086E220000000100FFFFF8B81D00F0E51D0000000200F0E51D00F8B81D00FFFFFFFFFFFF
1004
FFFF967500000000803F000000000000000000000000000000000000803FFFFFBF40000088410000204102000000104100002041A4EE47F25F4100EDFF4080F61F41800960418009104180092041FFFF0F41FFFF1F4102009675F86E220000000100FFFFF8B81D00006B1E0000000200006B1E00F8B81D00
1004
01000000FFFFFFFF967500000000803F000000000000000000000000000000000000803F0000604100009041000020410200FFFF0F41FFFF1F41A4EEFFECBF4024F99741000018BBFF12C040C10498417F096041010000C0FFFF3F4102009675C05F200000000100FFFFF0E51D0070501E00000002007050
1004
1E00F0E51D0001000000FFFFFFFF96750000000000000000803F000000000000803F0000000000000000FFFFBF4000009841FFFF3F410200010000C0FFFF3F41A4EEFFECBF40FFD93F4047F25F41FF12C040C104984181096041FFFF6FC1FFFF2FC102009675B060200000000100FFFFF0E51D0020341E00
1004
0000020020341E00F0E51D0001000000FFFFFFFF9675000000000000000000000000803F0000803F0000000000000000FFFFBF4000009041000060410200FFFF6FC1FFFF2FC1A4EEFFECBF40FFD93F4047F25F41FF12C040C104984181096041F9FF7FBF0600803F02009675A061200000000100FFFFF0E5
1004
1D0020341E000000020020341E00F0E51D0001000000FFFFFFFF9675000000000000000000000000803F0000803F0000000000000000FFFFBF4000009041000060410200F9FF7FBF0600803FA4EEFFECBF4041FB8741000018BBFF12C040C1049841DA865B3B010028C1000008C102009675906220000000
1004
0100FFFFF0E51D00181A1E0000000200181A1E00F0E51D0001000000FFFFFFFF967500000000000000000000000080BF0000803F0000000000000000FFFFBF4000000841000000000200010028C1000008C1A4EEDA865BBB24F99741DA865BBBB80D6041DC069841DA865B3B000080C00100803F02009675
1004
806320000000FFFF0100181A1E0070501E0000000200181A1E0070501E00010000000100000096750000000000000000803F000000000000000000000000000080BF0000E04000009841000000000200000080C00100803FA4EEDA865BBB24F99741DA865BBBB80D6041DC069841DA865B3BFFFF3F400000
1004
E04002009675706420000000FFFF0100181A1E0070501E0000000200181A1E0070501E00010000000100000096750000000000000000803F000000000000000000000000000080BF0000E04000009841000000000200FFFF3F400000E040A4EE47F25F41DA865BBBDA865BBBB80D6041DC069841DA865B3B
1004
0000B0C00100B04002009675606520000000FFFF0100181A1E00006B1E0000000200181A1E00006B1E000100000001000000967500000000803F00000000000000000000000000000000000080BF00006041000018410000000002000000B0C00100B040A4EEDA865BBBDA865BBBDA865BBBDA865B3BDC06
1004
9841DA865B3B000098C1000080BF02009675506620000000FFFF0100181A1E00381B1E0000000200181A1E00381B1E00010000000100000096750000000080BF00000000000000000000000000000000000080BF0000000000000000000000000200000098C1000080BFA4EEDA865BBBDA865BBBDA865BBB
1004
B80D6041DA865B3BDA865B3B0000803F0000204102009675406720000000FFFF0100181A1E00A80E1E0000000200181A1E00A80E1E0001000000010000009675000000000000000080BF000000000000000000000000000080BF00000000000000000000000002000000803F00002041A4EEDA865BBBDA86
1004
5BBB47F25F41B80D6041DA865B3BB80D6041FFFFBFC00200404002009675306820000000FFFF0100A80E1E0020341E0000000200A80E1E0020341E0001000000010000009675000000000000000000000000803F00000000000080BF000000000000E04000000000000060410200FFFFBFC002004040A4EE
1004
DA865BBB24F99741DA865BBBDA865B3BDC069841B80D60410000E0C0F9FFFFBF02009675206920000000FFFF0100381B1E0070501E0000000200381B1E0070501E00010000000100000096750000000000000000803F00000000000080BF000000000000000000000000000098410000E04002000000E0C0
1004
F9FFFFBFA4EEDA865BBB24F99741DA865BBBDA865B3BDC069841B80D6041040000400000E04002009675106A20000000FFFF0100381B1E0070501E0000000200381B1E0070501E00010000000100000096750000000000000000803F00000000000080BF000000000000000000000000000098410000E040
1004
0200040000400000E040A4EEDA865BBBDA865BBB47F25F41DA865B3BDC069841B80D6041000018C10000084102009675006B20000000FFFF0100381B1E0020341E0000000200381B1E0020341E0001000000010000009675000000000000000000000000803F000080BF0000000000000000000000000000
1004
1841000060410200000018C100000841A4EEDA865BBB24F9974147F25F41B80D6041DC069841B80D6041000060C1FFFF3FC102009675F06B20000000FFFF010020341E0070501E000000020020341E0070501E00010000000100000096750000000000000000803F0000000000000000000000000000803F
1004
0000604100009841000060410200000060C1FFFF3FC1A4EEDA865BBB24F9974147F25F41B80D6041DC069841B80D6041000000C1FFFF3FC002009675E06C20000000FFFF010020341E0070501E000000020020341E0070501E00010000000100000096750000000000000000803F00000000000000000000
1004
00000000803F0000604100009841000060410200000000C1FFFF3FC0A4EE47F25F41DA865BBB47F25F41B80D6041DC069841B80D6041FEFF7F40FFFF6F4102009675D06D20000000FFFF010020341E00006B1E000000020020341E00006B1E000100000001000000967500000000803F0000000000000000
1004
00000000000000000000803F0000604100009841000060410200FEFF7F40FFFF6F4119FC
1005
30D
  0
INSERT
  8
AME_FRZ
  5
30D
  2
AME_NIL
 10
1.0
 20
1.0
 30
1.0
1001
AME_SOL
1004

1005
0
  0
INSERT
  8
AME_FRZ
  5
310
  2
AME_MAT
 10
0.0
 20
0.0
 30
0.0
1001
AME_SOL
1000
MILD_STEEL
1040
7860.0
1040
220.0
1040
0.275
1040
207.0
1040
345.0
1040
56.0
1040
12.0
1040
0.46
  0
ENDSEC
  0
EOF
