  0
SECTION
  2
HEADER
  9
$ACADVER
  1
AC1009
  9
$INSBASE
 10
0.0
 20
0.0
 30
0.0
  9
$EXTMIN
 10
0.0
 20
0.0
 30
0.0
  9
$EXTMAX
 10
9.0
 20
7.0
 30
10.0
  9
$LIMMIN
 10
0.0
 20
0.0
  9
$LIMMAX
 10
12.0
 20
9.0
  9
$ORTHOMODE
 70
     0
  9
$REGENMODE
 70
     1
  9
$FILLMODE
 70
     1
  9
$QTEXTMODE
 70
     0
  9
$MIRRTEXT
 70
     1
  9
$DRAGMODE
 70
     2
  9
$LTSCALE
 40
1.0
  9
$OSMODE
 70
     0
  9
$ATTMODE
 70
     1
  9
$TEXTSIZE
 40
0.2
  9
$TRACEWID
 40
0.05
  9
$TEXTSTYLE
  7
STANDARD
  9
$CLAYER
  8
0
  9
$CELTYPE
  6
BYLAYER
  9
$CECOLOR
 62
   256
  9
$DIMSCALE
 40
1.0
  9
$DIMASZ
 40
0.18
  9
$DIMEXO
 40
0.0625
  9
$DIMDLI
 40
0.38
  9
$DIMRND
 40
0.0
  9
$DIMDLE
 40
0.0
  9
$DIMEXE
 40
0.18
  9
$DIMTP
 40
0.0
  9
$DIMTM
 40
0.0
  9
$DIMTXT
 40
0.18
  9
$DIMCEN
 40
0.09
  9
$DIMTSZ
 40
0.0
  9
$DIMTOL
 70
     0
  9
$DIMLIM
 70
     0
  9
$DIMTIH
 70
     1
  9
$DIMTOH
 70
     1
  9
$DIMSE1
 70
     0
  9
$DIMSE2
 70
     0
  9
$DIMTAD
 70
     0
  9
$DIMZIN
 70
     0
  9
$DIMBLK
  1

  9
$DIMASO
 70
     1
  9
$DIMSHO
 70
     1
  9
$DIMPOST
  1

  9
$DIMAPOST
  1

  9
$DIMALT
 70
     0
  9
$DIMALTD
 70
     2
  9
$DIMALTF
 40
25.4
  9
$DIMLFAC
 40
1.0
  9
$DIMTOFL
 70
     0
  9
$DIMTVP
 40
0.0
  9
$DIMTIX
 70
     0
  9
$DIMSOXD
 70
     0
  9
$DIMSAH
 70
     0
  9
$DIMBLK1
  1

  9
$DIMBLK2
  1

  9
$DIMSTYLE
  2
*UNNAMED
  9
$DIMCLRD
 70
     0
  9
$DIMCLRE
 70
     0
  9
$DIMCLRT
 70
     0
  9
$DIMTFAC
 40
1.0
  9
$DIMGAP
 40
0.09
  9
$LUNITS
 70
     2
  9
$LUPREC
 70
     4
  9
$SKETCHINC
 40
0.1
  9
$FILLETRAD
 40
0.0
  9
$AUNITS
 70
     0
  9
$AUPREC
 70
     0
  9
$MENU
  1
acad
  9
$ELEVATION
 40
0.0
  9
$PELEVATION
 40
0.0
  9
$THICKNESS
 40
0.0
  9
$LIMCHECK
 70
     0
  9
$BLIPMODE
 70
     1
  9
$CHAMFERA
 40
0.0
  9
$CHAMFERB
 40
0.0
  9
$SKPOLY
 70
     0
  9
$TDCREATE
 40
2449202.647933137
  9
$TDUPDATE
 40
2449202.664312395
  9
$TDINDWG
 40
0.0163792593
  9
$TDUSRTIMER
 40
0.0163792593
  9
$USRTIMER
 70
     1
  9
$ANGBASE
 50
0.0
  9
$ANGDIR
 70
     0
  9
$PDMODE
 70
     0
  9
$PDSIZE
 40
0.0
  9
$PLINEWID
 40
0.0
  9
$COORDS
 70
     0
  9
$SPLFRAME
 70
     0
  9
$SPLINETYPE
 70
     6
  9
$SPLINESEGS
 70
     8
  9
$ATTDIA
 70
     0
  9
$ATTREQ
 70
     1
  9
$HANDLING
 70
     1
  9
$HANDSEED
  5
64
  9
$SURFTAB1
 70
     6
  9
$SURFTAB2
 70
     6
  9
$SURFTYPE
 70
     6
  9
$SURFU
 70
     6
  9
$SURFV
 70
     6
  9
$UCSNAME
  2

  9
$UCSORG
 10
0.0
 20
0.0
 30
0.0
  9
$UCSXDIR
 10
1.0
 20
0.0
 30
0.0
  9
$UCSYDIR
 10
0.0
 20
1.0
 30
0.0
  9
$PUCSNAME
  2

  9
$PUCSORG
 10
0.0
 20
0.0
 30
0.0
  9
$PUCSXDIR
 10
1.0
 20
0.0
 30
0.0
  9
$PUCSYDIR
 10
0.0
 20
1.0
 30
0.0
  9
$USERI1
 70
     0
  9
$USERI2
 70
     0
  9
$USERI3
 70
     0
  9
$USERI4
 70
     0
  9
$USERI5
 70
     0
  9
$USERR1
 40
0.0
  9
$USERR2
 40
0.0
  9
$USERR3
 40
0.0
  9
$USERR4
 40
0.0
  9
$USERR5
 40
0.0
  9
$WORLDVIEW
 70
     1
  9
$SHADEDGE
 70
     3
  9
$SHADEDIF
 70
    70
  9
$TILEMODE
 70
     1
  9
$MAXACTVP
 70
    16
  9
$PINSBASE
 10
0.0
 20
0.0
 30
0.0
  9
$PLIMCHECK
 70
     0
  9
$PEXTMIN
 10
1.000000E+20
 20
1.000000E+20
 30
1.000000E+20
  9
$PEXTMAX
 10
-1.000000E+20
 20
-1.000000E+20
 30
-1.000000E+20
  9
$PLIMMIN
 10
0.0
 20
0.0
  9
$PLIMMAX
 10
12.0
 20
9.0
  9
$UNITMODE
 70
     0
  9
$VISRETAIN
 70
     0
  9
$PLINEGEN
 70
     0
  9
$PSLTSCALE
 70
     0
  9
$TREEDEPTH
 70
  3020
  9
$DWGCODEPAGE
  3
undefined
  0
ENDSEC
  0
SECTION
  2
TABLES
  0
TABLE
  2
VPORT
 70
     2
  0
VPORT
  2
*ACTIVE
 70
     0
 10
0.0
 20
0.0
 11
1.0
 21
1.0
 12
5.355986
 22
0.816497
 13
0.0
 23
0.0
 14
1.0
 24
1.0
 15
0.0
 25
0.0
 16
1.0
 26
1.0
 36
1.0
 17
0.0
 27
0.0
 37
0.0
 40
14.696938
 41
1.594883
 42
50.0
 43
0.0
 44
0.0
 50
0.0
 51
0.0
 71
     0
 72
   100
 73
     1
 74
     1
 75
     0
 76
     0
 77
     0
 78
     0
  0
ENDTAB
  0
TABLE
  2
LTYPE
 70
     1
  0
LTYPE
  2
CONTINUOUS
 70
    64
  3
Solid line
 72
    65
 73
     0
 40
0.0
  0
ENDTAB
  0
TABLE
  2
LAYER
 70
     2
  0
LAYER
  2
0
 70
    64
 62
     7
  6
CONTINUOUS
  0
LAYER
  2
AME_FRZ
 70
    65
 62
     7
  6
CONTINUOUS
  0
ENDTAB
  0
TABLE
  2
STYLE
 70
     1
  0
STYLE
  2
STANDARD
 70
     0
 40
0.0
 41
1.0
 50
0.0
 71
     0
 42
0.2
  3
txt
  4

  0
ENDTAB
  0
TABLE
  2
VIEW
 70
     0
  0
ENDTAB
  0
TABLE
  2
UCS
 70
     0
  0
ENDTAB
  0
TABLE
  2
APPID
 70
     2
  0
APPID
  2
ACAD
 70
    64
  0
APPID
  2
AME_SOL
 70
    64
  0
ENDTAB
  0
TABLE
  2
DIMSTYLE
 70
     0
  0
ENDTAB
  0
ENDSEC
  0
SECTION
  2
BLOCKS
  0
BLOCK
  8
0
  5
1
  2
AME_NIL
 70
    64
 10
0.0
 20
0.0
 30
0.0
  1
AME_NIL
  3
AME_NIL
  0
ENDBLK
  8
0
  5
2
  0
BLOCK
  8
0
  5
4
  2
AME_SOL
 70
    64
 10
0.0
 20
0.0
 30
0.0
  1
AME_SOL
  3
AME_SOL
  0
ENDBLK
  8
0
  5
5
  0
BLOCK
  8
0
  5
7
  2
*U2
 70
    65
 10
0.0
 20
0.0
 30
0.0
  1
*U
  3
*U
  0
LINE
  8
0
 62
     0
  5
8
 10
2.0
 20
7.0
 30
0.0
 11
2.0
 21
7.0
 31
10.0
1001
AME_SOL
1070
     1
1071
       18
  0
LINE
  8
0
 62
     0
  5
9
 10
2.0
 20
7.0
 30
10.0
 11
2.0
 21
0.0
 31
10.0
1001
AME_SOL
1070
     1
1071
       17
  0
LINE
  8
0
 62
     0
  5
A
 10
0.0
 20
7.0
 30
10.0
 11
2.0
 21
7.0
 31
10.0
1001
AME_SOL
1070
     1
1071
       16
  0
LINE
  8
0
 62
     0
  5
B
 10
0.0
 20
7.0
 30
0.0
 11
0.0
 21
7.0
 31
10.0
1001
AME_SOL
1070
     1
1071
       15
  0
LINE
  8
0
 62
     0
  5
C
 10
0.0
 20
7.0
 30
10.0
 11
0.0
 21
0.0
 31
10.0
1001
AME_SOL
1070
     1
1071
       14
  0
LINE
  8
0
 62
     0
  5
D
 10
0.0
 20
0.0
 30
0.0
 11
0.0
 21
0.0
 31
10.0
1001
AME_SOL
1070
     1
1071
       13
  0
LINE
  8
0
 62
     0
  5
E
 10
2.0
 20
0.0
 30
10.0
 11
2.0
 21
0.0
 31
0.0
1001
AME_SOL
1070
     1
1071
       12
  0
LINE
  8
0
 62
     0
  5
F
 10
0.0
 20
0.0
 30
10.0
 11
2.0
 21
0.0
 31
10.0
1001
AME_SOL
1070
     1
1071
       11
  0
LINE
  8
0
 62
     0
  5
10
 10
0.0
 20
0.0
 30
0.0
 11
2.0
 21
0.0
 31
0.0
1001
AME_SOL
1070
     1
1071
       10
  0
LINE
  8
0
 62
     0
  5
11
 10
0.0
 20
7.0
 30
0.0
 11
0.0
 21
0.0
 31
0.0
1001
AME_SOL
1070
     1
1071
        9
  0
LINE
  8
0
 62
     0
  5
12
 10
2.0
 20
0.0
 30
0.0
 11
2.0
 21
7.0
 31
0.0
1001
AME_SOL
1070
     1
1071
        8
  0
LINE
  8
0
 62
     0
  5
13
 10
2.0
 20
7.0
 30
0.0
 11
0.0
 21
7.0
 31
0.0
1001
AME_SOL
1070
     1
1071
        7
  0
ENDBLK
  8
0
  5
14
  0
BLOCK
  8
0
  5
18
  2
*U3
 70
    65
 10
0.0
 20
0.0
 30
0.0
  1
*U
  3
*U
  0
LINE
  8
0
 62
     0
  5
19
 10
5.0
 20
2.0
 30
0.0
 11
5.0
 21
2.0
 31
5.0
1001
AME_SOL
1070
     1
1071
       18
  0
LINE
  8
0
 62
     0
  5
1A
 10
5.0
 20
2.0
 30
5.0
 11
5.0
 21
0.0
 31
5.0
1001
AME_SOL
1070
     1
1071
       17
  0
LINE
  8
0
 62
     0
  5
1B
 10
0.0
 20
2.0
 30
5.0
 11
5.0
 21
2.0
 31
5.0
1001
AME_SOL
1070
     1
1071
       16
  0
LINE
  8
0
 62
     0
  5
1C
 10
0.0
 20
2.0
 30
0.0
 11
0.0
 21
2.0
 31
5.0
1001
AME_SOL
1070
     1
1071
       15
  0
LINE
  8
0
 62
     0
  5
1D
 10
0.0
 20
2.0
 30
5.0
 11
0.0
 21
0.0
 31
5.0
1001
AME_SOL
1070
     1
1071
       14
  0
LINE
  8
0
 62
     0
  5
1E
 10
0.0
 20
0.0
 30
0.0
 11
0.0
 21
0.0
 31
5.0
1001
AME_SOL
1070
     1
1071
       13
  0
LINE
  8
0
 62
     0
  5
1F
 10
5.0
 20
0.0
 30
5.0
 11
5.0
 21
0.0
 31
0.0
1001
AME_SOL
1070
     1
1071
       12
  0
LINE
  8
0
 62
     0
  5
20
 10
0.0
 20
0.0
 30
5.0
 11
5.0
 21
0.0
 31
5.0
1001
AME_SOL
1070
     1
1071
       11
  0
LINE
  8
0
 62
     0
  5
21
 10
0.0
 20
0.0
 30
0.0
 11
5.0
 21
0.0
 31
0.0
1001
AME_SOL
1070
     1
1071
       10
  0
LINE
  8
0
 62
     0
  5
22
 10
0.0
 20
2.0
 30
0.0
 11
0.0
 21
0.0
 31
0.0
1001
AME_SOL
1070
     1
1071
        9
  0
LINE
  8
0
 62
     0
  5
23
 10
5.0
 20
0.0
 30
0.0
 11
5.0
 21
2.0
 31
0.0
1001
AME_SOL
1070
     1
1071
        8
  0
LINE
  8
0
 62
     0
  5
24
 10
5.0
 20
2.0
 30
0.0
 11
0.0
 21
2.0
 31
0.0
1001
AME_SOL
1070
     1
1071
        7
  0
ENDBLK
  8
0
  5
25
  0
BLOCK
  8
0
  5
29
  2
*U4
 70
    65
 10
0.0
 20
0.0
 30
0.0
  1
*U
  3
*U
  0
LINE
  8
0
 62
     0
  5
2A
 10
2.0
 20
5.0
 30
0.0
 11
2.0
 21
5.0
 31
8.0
1001
AME_SOL
1070
     1
1071
       18
  0
LINE
  8
0
 62
     0
  5
2B
 10
2.0
 20
5.0
 30
8.0
 11
2.0
 21
0.0
 31
8.0
1001
AME_SOL
1070
     1
1071
       17
  0
LINE
  8
0
 62
     0
  5
2C
 10
0.0
 20
5.0
 30
8.0
 11
2.0
 21
5.0
 31
8.0
1001
AME_SOL
1070
     1
1071
       16
  0
LINE
  8
0
 62
     0
  5
2D
 10
0.0
 20
5.0
 30
0.0
 11
0.0
 21
5.0
 31
8.0
1001
AME_SOL
1070
     1
1071
       15
  0
LINE
  8
0
 62
     0
  5
2E
 10
0.0
 20
5.0
 30
8.0
 11
0.0
 21
0.0
 31
8.0
1001
AME_SOL
1070
     1
1071
       14
  0
LINE
  8
0
 62
     0
  5
2F
 10
0.0
 20
0.0
 30
0.0
 11
0.0
 21
0.0
 31
8.0
1001
AME_SOL
1070
     1
1071
       13
  0
LINE
  8
0
 62
     0
  5
30
 10
2.0
 20
0.0
 30
8.0
 11
2.0
 21
0.0
 31
0.0
1001
AME_SOL
1070
     1
1071
       12
  0
LINE
  8
0
 62
     0
  5
31
 10
0.0
 20
0.0
 30
8.0
 11
2.0
 21
0.0
 31
8.0
1001
AME_SOL
1070
     1
1071
       11
  0
LINE
  8
0
 62
     0
  5
32
 10
0.0
 20
0.0
 30
0.0
 11
2.0
 21
0.0
 31
0.0
1001
AME_SOL
1070
     1
1071
       10
  0
LINE
  8
0
 62
     0
  5
33
 10
0.0
 20
5.0
 30
0.0
 11
0.0
 21
0.0
 31
0.0
1001
AME_SOL
1070
     1
1071
        9
  0
LINE
  8
0
 62
     0
  5
34
 10
2.0
 20
0.0
 30
0.0
 11
2.0
 21
5.0
 31
0.0
1001
AME_SOL
1070
     1
1071
        8
  0
LINE
  8
0
 62
     0
  5
35
 10
2.0
 20
5.0
 30
0.0
 11
0.0
 21
5.0
 31
0.0
1001
AME_SOL
1070
     1
1071
        7
  0
ENDBLK
  8
0
  5
36
  0
BLOCK
  8
0
  5
3C
  2
*U5
 70
    65
 10
0.0
 20
0.0
 30
0.0
  1
*U
  3
*U
  0
LINE
  8
0
 62
     7
  5
3D
 10
2.0
 20
2.0
 30
5.0
 11
7.0
 21
2.0
 31
5.0
1001
AME_SOL
1070
     1
1071
       42
  0
LINE
  8
0
 62
     7
  5
3E
 10
2.0
 20
0.0
 30
5.0
 11
7.0
 21
0.0
 31
5.0
1001
AME_SOL
1070
     1
1071
       41
  0
LINE
  8
0
 62
     7
  5
3F
 10
7.0
 20
2.0
 30
0.0
 11
2.0
 21
2.0
 31
0.0
1001
AME_SOL
1070
     1
1071
       40
  0
LINE
  8
0
 62
     7
  5
40
 10
0.0
 20
0.0
 30
0.0
 11
9.0
 21
0.0
 31
0.0
1001
AME_SOL
1070
     1
1071
       39
  0
LINE
  8
0
 62
     7
  5
41
 10
2.0
 20
7.0
 30
0.0
 11
2.0
 21
2.0
 31
0.0
1001
AME_SOL
1070
     1
1071
       38
  0
LINE
  8
0
 62
     7
  5
42
 10
2.0
 20
2.0
 30
5.0
 11
2.0
 21
2.0
 31
0.0
1001
AME_SOL
1070
     1
1071
       37
  0
LINE
  8
0
 62
     7
  5
43
 10
2.0
 20
0.0
 30
5.0
 11
2.0
 21
2.0
 31
5.0
1001
AME_SOL
1070
     1
1071
       36
  0
LINE
  8
0
 62
     7
  5
44
 10
2.0
 20
0.0
 30
5.0
 11
2.0
 21
0.0
 31
10.0
1001
AME_SOL
1070
     1
1071
       35
  0
LINE
  8
0
 62
     7
  5
45
 10
0.0
 20
7.0
 30
0.0
 11
2.0
 21
7.0
 31
0.0
1001
AME_SOL
1070
     1
1071
       34
  0
LINE
  8
0
 62
     7
  5
46
 10
2.0
 20
7.0
 30
0.0
 11
2.0
 21
7.0
 31
10.0
1001
AME_SOL
1070
     1
1071
       33
  0
LINE
  8
0
 62
     7
  5
47
 10
2.0
 20
0.0
 30
10.0
 11
0.0
 21
0.0
 31
10.0
1001
AME_SOL
1070
     1
1071
       32
  0
LINE
  8
0
 62
     7
  5
48
 10
2.0
 20
7.0
 30
10.0
 11
2.0
 21
0.0
 31
10.0
1001
AME_SOL
1070
     1
1071
       31
  0
LINE
  8
0
 62
     7
  5
49
 10
0.0
 20
7.0
 30
10.0
 11
2.0
 21
7.0
 31
10.0
1001
AME_SOL
1070
     1
1071
       30
  0
LINE
  8
0
 62
     7
  5
4A
 10
0.0
 20
0.0
 30
0.0
 11
0.0
 21
7.0
 31
0.0
1001
AME_SOL
1070
     1
1071
       29
  0
LINE
  8
0
 62
     7
  5
4B
 10
0.0
 20
0.0
 30
10.0
 11
0.0
 21
0.0
 31
0.0
1001
AME_SOL
1070
     1
1071
       28
  0
LINE
  8
0
 62
     7
  5
4C
 10
0.0
 20
7.0
 30
0.0
 11
0.0
 21
7.0
 31
10.0
1001
AME_SOL
1070
     1
1071
       27
  0
LINE
  8
0
 62
     7
  5
4D
 10
0.0
 20
7.0
 30
10.0
 11
0.0
 21
0.0
 31
10.0
1001
AME_SOL
1070
     1
1071
       26
  0
LINE
  8
0
 62
     7
  5
4E
 10
9.0
 20
5.0
 30
0.0
 11
9.0
 21
0.0
 31
0.0
1001
AME_SOL
1070
     1
1071
       25
  0
LINE
  8
0
 62
     7
  5
4F
 10
9.0
 20
0.0
 30
0.0
 11
9.0
 21
0.0
 31
8.0
1001
AME_SOL
1070
     1
1071
       24
  0
LINE
  8
0
 62
     7
  5
50
 10
7.0
 20
5.0
 30
0.0
 11
9.0
 21
5.0
 31
0.0
1001
AME_SOL
1070
     1
1071
       23
  0
LINE
  8
0
 62
     7
  5
51
 10
9.0
 20
5.0
 30
0.0
 11
9.0
 21
5.0
 31
8.0
1001
AME_SOL
1070
     1
1071
       22
  0
LINE
  8
0
 62
     7
  5
52
 10
9.0
 20
0.0
 30
8.0
 11
7.0
 21
0.0
 31
8.0
1001
AME_SOL
1070
     1
1071
       21
  0
LINE
  8
0
 62
     7
  5
53
 10
9.0
 20
5.0
 30
8.0
 11
9.0
 21
0.0
 31
8.0
1001
AME_SOL
1070
     1
1071
       20
  0
LINE
  8
0
 62
     7
  5
54
 10
7.0
 20
5.0
 30
8.0
 11
9.0
 21
5.0
 31
8.0
1001
AME_SOL
1070
     1
1071
       19
  0
LINE
  8
0
 62
     7
  5
55
 10
7.0
 20
2.0
 30
0.0
 11
7.0
 21
5.0
 31
0.0
1001
AME_SOL
1070
     1
1071
       18
  0
LINE
  8
0
 62
     7
  5
56
 10
7.0
 20
2.0
 30
0.0
 11
7.0
 21
2.0
 31
5.0
1001
AME_SOL
1070
     1
1071
       17
  0
LINE
  8
0
 62
     7
  5
57
 10
7.0
 20
2.0
 30
5.0
 11
7.0
 21
0.0
 31
5.0
1001
AME_SOL
1070
     1
1071
       16
  0
LINE
  8
0
 62
     7
  5
58
 10
7.0
 20
0.0
 30
8.0
 11
7.0
 21
0.0
 31
5.0
1001
AME_SOL
1070
     1
1071
       15
  0
LINE
  8
0
 62
     7
  5
59
 10
7.0
 20
5.0
 30
0.0
 11
7.0
 21
5.0
 31
8.0
1001
AME_SOL
1070
     1
1071
       14
  0
LINE
  8
0
 62
     7
  5
5A
 10
7.0
 20
5.0
 30
8.0
 11
7.0
 21
0.0
 31
8.0
1001
AME_SOL
1070
     1
1071
       13
  0
ENDBLK
  8
0
  5
5B
  0
BLOCK
  8
0
  5
5F
  2
AME_MAT
 70
    64
 10
0.0
 20
0.0
 30
0.0
  1
AME_MAT
  3
AME_MAT
  0
ENDBLK
  8
0
  5
60
  0
ENDSEC
  0
SECTION
  2
ENTITIES
  0
INSERT
  8
AME_FRZ
  5
3
  2
AME_NIL
 10
0.0
 20
0.0
 30
0.0
  0
INSERT
  8
AME_FRZ
  5
6
  2
AME_SOL
 10
0.0
 20
0.0
 30
0.0
1001
AME_SOL
1000
1.0
1000
sq cm
1070
     3
1070
     0
1070
     3
1000
wire
1040
0.0
1000
NONE
1040
1.0
1000
cm
1000
gm
1000
MILD_STEEL
1070
    25
1000
CSG
1070
     3
1070
     2
1070
     3
1000
cu cm
1070
     4
1070
     0
1005
3
  0
INSERT
  8
AME_FRZ
  5
15
  2
*U2
 10
0.0
 20
0.0
 30
0.0
1001
AME_SOL
1002
{
1070
     0
1071
  2071008
1070
  1536
1010
2.0
1020
7.0
1030
10.0
1005
0
1005
0
1005
3A
1040
0.0
1040
1.0
1000
MILD_STEEL
1000
0
1010
0.0
1020
0.0
1030
0.0
1010
0.0
1020
0.0
1030
1.0
1040
0.0
1002
}
  0
INSERT
  8
AME_FRZ
  5
26
  2
*U3
 10
2.0
 20
0.0
 30
0.0
1001
AME_SOL
1002
{
1070
     0
1071
  2028448
1070
  1536
1010
5.0
1020
2.0
1030
5.0
1005
0
1005
0
1005
3A
1040
0.0
1040
1.0
1000
MILD_STEEL
1000
0
1010
2.0
1020
0.0
1030
0.0
1010
0.0
1020
0.0
1030
1.0
1040
0.0
1002
}
  0
INSERT
  8
AME_FRZ
  5
37
  2
*U4
 10
7.0
 20
0.0
 30
0.0
1001
AME_SOL
1002
{
1070
     0
1071
  2076296
1070
  1536
1010
2.0
1020
5.0
1030
8.0
1005
0
1005
0
1005
5C
1040
0.0
1040
1.0
1000
MILD_STEEL
1000
0
1010
7.0
1020
0.0
1030
0.0
1010
0.0
1020
0.0
1030
1.0
1040
0.0
1002
}
  0
INSERT
  8
AME_FRZ
  5
3A
  2
AME_NIL
 10
0.0
 20
0.0
 30
0.0
1001
AME_SOL
1002
{
1070
     0
1071
  2094416
1070
   775
1070
     2
1005
26
1005
15
1005
0
1005
0
1005
5C
1040
0.0
1040
1.0
1000
MILD_STEEL
1000
0
1010
0.0
1020
0.0
1030
0.0
1010
0.0
1020
0.0
1030
1.0
1040
0.0
1002
}
  0
INSERT
  8
0
  5
5C
  2
*U5
 10
0.0
 20
0.0
 30
0.0
1001
AME_SOL
1002
{
1070
     0
1071
  2042680
1070
  1543
1070
     2
1005
3A
1005
37
1005
0
1005
5D
1005
0
1040
0.0
1040
1.0
1000
MILD_STEEL
1000
0
1002
}
  0
INSERT
  8
AME_FRZ
  5
5D
  2
AME_NIL
 10
1.0
 20
1.0
 30
1.0
1001
AME_SOL
1004
E903A9FB0100F0FFFFFF000052F70C0001000000B9E8C5BAB9E8C5BAB9E8C5BA000510415E0CE0403006204101000000FBF2060000F6DF400000A0BA0000A0BA000AE040000AA040000500410100844ED8DA1E00010000000100CC000000844E000000000000000000000000803F000000000000803F0000
1004
00000000E040000000000000000005000000000000000000000000000000000000000000844E0000000000000000803F000000000000008000000080000080BF0000E040000000400000A04005000000000000000000000000000000000001000000FBF2040000F6DF400000A0BA00F6FF4000051041000A
1004
A040000500410100844E38DE1E00010000000100CB000000844E0000000080BF000000800000008000000080000080BF00000080000010410000A0400000004105000000000000000000000000000000000000000000844E0000000080BF000000800000008000000080000080BF00000080000010410000
1004
A0400000004105000000000000000000000000000000000001000000FBF2040000F6DF4000F69F400000A0BA00051041000AA040000500410100844E90E01E00010000000100CA000000844E00000000008000000080000080BF000080BF0000008000000080000010410000A04000000041050000000000
1004
00000000000000000000000000000000844E00000000008000000080000080BF000080BF0000008000000080000010410000A0400000004105000000000000000000000000000000000001000000FBF2040000FB0F410000A0BA0000A0BA00051041000AA040000500410100844ED0E21E00010000000100
1004
C9000000844E000000000080000080BF000000800000008000000080000080BF000010410000A0400000004105000000000000000000000000000000000000000000844E000000000080000080BF000000800000008000000080000080BF000010410000A040000000410500000000000000000000000000
1004
0000000001000000FBF20400B9E8C5BAB9E8C5BAB9E8C5BAB9E8C53A5E0CE040300620410100844E80C91E0001000000010094010000844E000000000000000000000000803F000000000000803F0000000000000000000000000000000005000000000000000000000000000000000000000000844E0000
1004
00000000000000000000803F000000000000803F0000000000000000000000000000000005000000000000000000000000000000000001000000FBF20400B9E8C5BAB9E8C5BAD1F91F41BD1800405E0CE040300620410100844E60721F0001000000010093010000844E0000000080BF0000008000000080
1004
00000080000080BF00000080000000400000E0400000204105000000000000000000000000000000000000000000844E0000000080BF000000800000008000000080000080BF00000080000000400000E0400000204105000000000000000000000000000000000001000000FBF20400B9E8C5BAA1F3DF40
1004
B9E8C5BABD1800405E0CE040300620410100844E10E71F0001000000010092010000844E00000000008000000080000080BF000080BF0000008000000080000000400000E0400000204105000000000000000000000000000000000000000000844E00000000008000000080000080BF000080BF00000080
1004
00000080000000400000E0400000204105000000000000000000000000000000000001000000FBF2060086CEFF3FB9E8C5BAB9E8C5BABD1800405E0CE040300620410100844EB8EF1F0001000000010091010000844E000000000080000080BF000000800000008000000080000080BF000000400000E040
1004
0000204105000000000000000000000000000000000000000000844E00000000008000000080000080BF000000000000803F0000000000000040000000000000000005000000000000000000000000000000000001000000FBF2080000F6DF400000A0BA0000A0BA00051041000AA0400000A03A0100844E
1004
08D21F00010000000300CE000000844E0000000000000000803F000000000000803F00000000000000000000E04000000000000000000500000000000000000000000000000000000000000096010000844E0000000000000000803F000000000000803F0000000000000000000000000000000000000000
1004
05000000000000000000000000000000000000000000FA010000844E0000000000000000803F000000000000803F000000000000000000000040000000000000000005000000000000000000000000000000000000000000844E0000000000000000803F000000000000803F000000000000000000000040
1004
000000000000000005000000000000000000000000000000000001000000FBF2080000F6DF400000A0BA0000A0BA000510410000A03A000500410100844E106C1F00010000000300CD000000844E00000000803F000000000000000000000000000000000000803F0000E040000000000000000005000000
1004
00000000000000000000000000000000000095010000844E00000000803F000000000000000000000000000000000000803F00000000000000000000000005000000000000000000000000000000000000000000F9010000844E00000000803F000000000000000000000000000000000000803F00000040
1004
000000000000000005000000000000000000000000000000000000000000844E00000000803F000000000000000000000000000000000000803F00000040000000000000000005000000000000000000000000000000000001000000FBF2040000D8FF3F0000A0BA00F69F40000AE04000140040000AA040
1004
0100844EF06C1F00010000000100F7010000844E0000000080BF000000800000008000000080000080BF000000800000E040000000400000A04005000000000000000000000000000000000000000000844E0000000080BF000000800000008000000080000080BF000000800000E040000000400000A040
1004
05000000000000000000000000000000000001000000FBF2040000D8FF3F00D8FF3F0000A0BA000AE04000140040000AA0400100844E905E1F00010000000100F6010000844E00000000008000000080000080BF000080BF00000080000000800000E040000000400000A040050000000000000000000000
1004
00000000000000000000844E00000000008000000080000080BF000080BF00000080000000800000E040000000400000A04005000000000000000000000000000000000001000000A4EE00F6DF400000A0BA00F6FF40000AE040000AA040000500410000C0BF0000604002009675A0F71E000000FFFF0100
1004
D8DA1E0038DE1E0000000200D8DA1E0038DE1E0001000000010000009675000000000000000000000000803F000080BF00000000000000000000E040000060400000004102000000C0BF00006040A4EE00F6DF4000F69F400000A0BA000AE040000AA04000050041FFFFCFC00300C03F02009675F8F81E00
1004
0000FFFF0100D8DA1E0090E01E0000000200D8DA1E0090E01E00010000000100000096750000000000000000803F00000000000080BF00000000000000000000E0400000A040FFFFCF400200FFFFCFC00300C03FA4EE00F6DF400000A0BA0000A0BA000AE0400000A03A000500410000B0C0000020C00200
1004
967568FA1E000000FFFF0100D8DA1E00106C1F0000000200D8DA1E00106C1F0001000000010000009675000000000000000080BF00000000000080BF00000000000000000000E040000000000000204002000000B0C0000020C0A4EE00F6DF400000A0BA00F69F40000AE04000140040000AA04000000000
1004
0000004002009675F0FA1E0000000100FFFFD8DA1E00F06C1F0000000200F06C1F00D8DA1E0001000000010000009675000000000000000000000000803F000080BF00000000000000000000E040000000400000A04002000000000000000040A4EE00F6DF4000D8FF3F0000A0BA000AE04000140040000A
1004
A0400000A0C0000000800200967530FD1E0000000100FFFFD8DA1E00905E1F0000000200905E1F00D8DA1E00010000000100000096750000000000000000803F00000000000080BF00000000000000000000E040000000400000A04002000000A0C000000080A4EE00F6DF400000A0BA0000A0BA000AE040
1004
000AA0400000A03A0000803F0000804002009675E0F61E000000FFFF0100D8DA1E0008D21F0000000200D8DA1E0008D21F000100000001000000967500000000000000000000000080BF000080BF00000000000000000000E0400000803F0000000002000000803F00008040A4EE00F6DF4000F69F4000F6
1004
FF4000051041000AA04000050041FFFFFFBF000000800200967508111F000000FFFF010038DE1E0090E01E000000020038DE1E0090E01E00010000000100000096750000000000000000803F0000000000000000000000000000803F000010410000A040000000410200FFFFFFBF00000080A4EE00FB0F41
1004
0000A0BA00F6FF4000051041000AA04000050041000000000000A04002009675584B1F000000FFFF010038DE1E00D0E21E000000020038DE1E00D0E21E000100000001000000967500000000803F000000000000000000000080000000000000803F000010410000A040000000410200000000000000A040
1004
A4EE00F6DF400000A0BA00F6FF40000510410000A03A00050041010060C00300C0BF02009675C0051F000000FFFF010038DE1E00106C1F000000020038DE1E00106C1F0001000000010000009675000000000000000080BF0000000000000000000000000000803FFFFFAF40000000000000004102000100
1004
60C00300C0BFA4EE00FB0F4100F69F400000A0BA00051041000AA04000050041000000C10000008002009675580C1F000000FFFF010090E01E00D0E21E000000020090E01E00D0E21E000100000001000000967500000000803F0000000000000000000000000000803F00000000000010410000A0400000
1004
00410200000000C100000080A4EE00F6DF4000F69F400000A0BA00051041000AA0400000A03AFEFFBF3FFEFF5F4002009675E0041F000000FFFF010090E01E0008D21F000000020090E01E0008D21F000100000001000000967500000000000000000000000080BF000000000000803F000000000000B040
1004
0000A040000000000200FEFFBF3FFEFF5F40A4EE00FB0F410000A0BA0000A0BA000510410000A03A00050041000080C00000804002009675804A1F000000FFFF0100D0E21E00106C1F0000000200D0E21E00106C1F0001000000010000009675000000000000000080BF000000000000803F000000000000
1004
00000000104100000000000080400200000080C000008040A4EE00FB0F410000A0BA0000A0BA00051041000AA0400000A03A000020C00000204002009675B80F1F000000FFFF0100D0E21E0008D21F0000000200D0E21E0008D21F000100000001000000967500000000000000000000000080BF0000803F
1004
00000000000000000000104100002040000000000200000020C000002040A4EEB9E8C5BAB9E8C5BAD1F91F41B9E8C53A5E0CE04030062041000060C0000060400200967598001F000000FFFF010080C91E0060721F000000020080C91E0060721F0001000000010000009675000000000000000000000000
1004
803F000080BF00000000000000000000000000006040000020410200000060C000006040A4EEB9E8C5BAA1F3DF40B9E8C5BAB9E8C53A5E0CE040300620410000A0C00000A0400200967588011F000000FFFF010080C91E0010E71F000000020080C91E0010E71F0001000000010000009675000000000000
1004
0000803F00000000000080BF0000000000000000000000000000E0400000A04002000000A0C00000A040A4EEB9E8C5BAB9E8C5BAB9E8C5BAB9E8C53AB9E8C53A30062041000020C1000000800200967578021F000000FFFF010080C91E00106C1F000000020080C91E00106C1F0001000000010000009675
1004
000000000000000080BF00000000000080BF00000000000000000000000000000000000000000200000020C100000080A4EEB9E8C5BAB9E8C5BAB9E8C5BAB9E8C53A5E0CE040B9E8C53A000000000000E0400200967568031F000000FFFF010080C91E0008D21F000000020080C91E0008D21F0001000000
1004
01000000967500000000000000000000000080BF000080BF00000000000000000000000000000000000000000200000000000000E040A4EEB9E8C5BAA1F3DF40D1F91F41BD1800405E0CE04030062041000000C00000008002009675284D1F000000FFFF010060721F0010E71F000000020060721F0010E7
1004
1F00010000000100000096750000000000000000803F0000000000000000000000000000803F000000400000E040000020410200000000C000000080A4EE86CEFF3FB9E8C5BAD1F91F41BD1800405E0CE04030062041000060C00000604002009675184E1F000000FFFF010060721F00B8EF1F0000000200
1004
60721F00B8EF1F000100000001000000967500000000803F000000000000000000000080000000000000803F0000004000006040000020410200000060C000006040A4EEB9E8C5BAB9E8C5BAD1F91F41BD180040B9E8C53A30062041000000000000004002009675084F1F000000FFFF010060721F00106C
1004
1F000000020060721F00106C1F0001000000010000009675000000000000000080BF0000000000000000000000000000803F00000040000000000000204102000000000000000040A4EE86CEFF3FA1F3DF40B9E8C5BABD1800405E0CE040300620410000A0C00000A04002009675F84F1F000000FFFF0100
1004
10E71F00B8EF1F000000020010E71F00B8EF1F000100000001000000967500000000803F0000000000000000000000000000803F00000000000000400000E0400000A04002000000A0C00000A040A4EEB9E8C5BAA1F3DF40B9E8C5BABD1800405E0CE040B9E8C53A000000C00000008002009675E8501F00
1004
0000FFFF010010E71F0008D21F000000020010E71F0008D21F000100000001000000967500000000000000000000000080BF000000000000803F00000000000000400000E040000000000200000000C000000080A4EE86CEFF3FB9E8C5BAB9E8C5BABD180040B9E8C53A300620410000A040000020410200
1004
9675D8511F000000FFFF0100B8EF1F00106C1F0000000200B8EF1F00106C1F0001000000010000009675000000000000000080BF000000000000803F000000000000000000000040000000000000000002000000A04000002041A4EE00D8FF3F0000A0BA00F69F40BD18004000140040000AA040000080BF
1004
0000803F02009675C8521F0000000100FFFFB8EF1F00F06C1F0000000200F06C1F00B8EF1F0001000000010000009675000000000000000000000000803F0000803F0000000000000000FFFFFF3F0000803F0000A0400200000080BF0000803FA4EE00D8FF3F00D8FF3F0000A0BABD18004000140040000A
1004
A040000020C0000020400200967518601F0000000100FFFFB8EF1F00905E1F0000000200905E1F00B8EF1F00010000000100000096750000000000000000803F000000000000803F00000080000000000000004000000040000020400200000020C000002040A4EE86CEFF3FB9E8C5BAB9E8C5BABD180040
1004
5E0CE040B9E8C53A0000E0C0000000C002009675E8601F000000FFFF0100B8EF1F0008D21F0000000200B8EF1F0008D21F000100000001000000967500000000000000000000000080BF0000803F000000000000000000000040000000000000000002000000E0C0000000C0A4EEB9E8C5BAB9E8C5BAB9E8
1004
C5BA00051041B9E8C53AB9E8C53A000000C00000E04002009675D8611F000000FFFF010008D21F00106C1F000000020008D21F00106C1F0001000000010000009675000000000000000080BF000000000000000000000000000080BF0000004000000000000000000200000000C00000E040A4EE00D8FF3F
1004
00D8FF3F0000A0BA000AE04000140040B9E8C53A000020C0FFFF1F4002009675C8621F000000FFFF010008D21F00905E1F000000020008D21F00905E1F00010000000100000096750000000000000000803F000000000000000000000000000080BF0000904000000040000000000200000020C0FFFF1F40
1004
A4EE00D8FF3F0000A0BA00F69F40000AE040B9E8C53A000AA040FFFF1FC00000204002009675B8631F000000FFFF0100106C1F00F06C1F0000000200106C1F00F06C1F0001000000010000009675000000000000000000000000803F00000000000080BF0000000000009040000000000000A0400200FFFF
1004
1FC000002040A4EE00D8FF3F00D8FF3F00F69F40000AE04000140040000AA0400000A0C00000000002009675A8641F000000FFFF0100F06C1F00905E1F0000000200F06C1F00905E1F00010000000100000096750000000000000000803F0000000000000000000000000000803F0000E040000000400000
1004
A04002000000A0C00000000019FC
1005
5E
  0
INSERT
  8
AME_FRZ
  5
5E
  2
AME_NIL
 10
1.0
 20
1.0
 30
1.0
1001
AME_SOL
1004

1005
0
  0
INSERT
  8
AME_FRZ
  5
63
  2
AME_MAT
 10
0.0
 20
0.0
 30
0.0
1001
AME_SOL
1000
MILD_STEEL
1040
7860.0
1040
220.0
1040
0.275
1040
207.0
1040
345.0
1040
56.0
1040
12.0
1040
0.46
  0
ENDSEC
  0
EOF
