600 0 1 0           
84 GICL ACIS Healer - Source: /gicl/data5/repository/CMU/scanner/motor_sleeve.sat - 6 0 18 ACIS 6.0.3 Solaris 24 Sat Apr 13 00:31:04 2002 
1 9.999999999999999547e-07 1.000000000000000036e-10 
body $-1 $1 $-1 $-1 #
lump $-1 $-1 $2 $0 #
shell $-1 $-1 $-1 $3 $-1 $1 #
face $-1 $4 $5 $2 $-1 $6 reversed single #
face $-1 $7 $8 $2 $-1 $9 forward single #
loop $-1 $10 $11 $3 #
cone-surface $-1 150.0000000029649527 60.00000000296493852 29.99999999999998934 0 0 -1 -10 0 0 1 I I 0 1 10 forward I I I I #
face $-1 $12 $13 $2 $-1 $14 forward single #
loop $-1 $15 $16 $4 #
cone-surface $-1 150.0000000000000853 60.00000000000006395 32.5 0 0 1 15 0 0 1 I I 0 1 15 forward I I I I #
loop $-1 $-1 $17 $3 #
coedge $-1 $11 $11 $18 $19 reversed $5 $-1 #
face $-1 $20 $21 $2 $-1 $22 reversed single #
loop $-1 $23 $24 $7 #
plane-surface $-1 150.0000000000000853 60.00000000000006395 49.99999999999999289 0 0 1 0.999999999999999889 0 0 forward_v I I I I #
loop $-1 $-1 $25 $4 #
coedge $-1 $16 $16 $26 $27 reversed $8 $-1 #
coedge $-1 $17 $17 $24 $28 reversed $10 $-1 #
coedge $-1 $18 $18 $11 $19 forward $29 $-1 #
edge $-1 $30 -3.141592653589800221 $30 3.141592653589786011 $18 $31 forward 7 unknown #
face $-1 $32 $33 $2 $-1 $34 forward single #
loop $-1 $35 $36 $12 #
plane-surface $-1 150.0000000000000568 60.00000000000002842 15.00000000000000711 0 0 -1 0 0.999999999999999889 0 forward_v I I I I #
loop $-1 $-1 $37 $7 #
coedge $-1 $24 $24 $17 $28 forward $13 $-1 #
coedge $-1 $25 $25 $37 $38 reversed $15 $-1 #
coedge $-1 $26 $26 $16 $27 forward $35 $-1 #
edge $-1 $39 0 $39 6.283185307179586232 $26 $40 forward 7 unknown #
edge $-1 $41 -3.141592653589800221 $41 3.141592653589786011 $24 $42 forward 7 unknown #
loop $-1 $-1 $18 $43 #
vertex $-1 $19 $44 #
ellipse-curve $-1 150.0000000029649527 60.00000000296493852 15.00000000000000711 0 0 1 -10 0 0 1 I I #
face $-1 $45 $46 $2 $-1 $47 reversed single #
loop $-1 $-1 $48 $20 #
plane-surface $-1 150.0000000000000568 80.00000000000002842 12.50000000000000711 0 1 0 0 0 0.999999999999999889 forward_v I I I I #
loop $-1 $-1 $26 $12 #
coedge $-1 $49 $50 $51 $52 forward $21 $-1 #
coedge $-1 $37 $37 $25 $38 forward $23 $-1 #
edge $-1 $53 0 $53 6.283185307179586232 $37 $54 forward 7 unknown #
vertex $-1 $27 $55 #
ellipse-curve $-1 150.0000000000000853 60.00000000000006395 15.00000000000000711 0 0 -1 15 0 0 1 I I #
vertex $-1 $28 $56 #
ellipse-curve $-1 150.0000000029649527 60.00000000296493852 49.99999999999999289 0 0 -1 -10 0 0 1 I I #
face $-1 $-1 $29 $2 $-1 $22 reversed single #
point $-1 160.0000000029649527 60.00000000296486746 15 #
face $-1 $57 $58 $2 $-1 $59 reversed single #
loop $-1 $-1 $60 $32 #
plane-surface $-1 150.0000000000000568 40.00000000000002842 12.50000000000000711 0 1 0 0 0 0.999999999999999889 forward_v I I I I #
coedge $-1 $61 $62 $50 $63 forward $33 $-1 #
coedge $-1 $64 $36 $60 $65 reversed $21 $-1 #
coedge $-1 $36 $64 $48 $63 reversed $21 $-1 #
coedge $-1 $66 $67 $36 $52 reversed $58 $-1 #
edge $-1 $68 -20.00000000000000355 $69 20.00000000000000355 $36 $70 forward 7 unknown #
vertex $-1 $38 $71 #
ellipse-curve $-1 150.0000000000000853 60.00000000000006395 49.99999999999999289 0 0 1 15 0 0 1 I I #
point $-1 165.0000000000000853 60.00000000000006395 15 #
point $-1 160.0000000029649527 60.00000000296500957 49.99999999999999289 #
face $-1 $72 $73 $2 $-1 $74 reversed single #
loop $-1 $-1 $75 $45 #
plane-surface $-1 130.0000000000000568 60.00000000000002842 12.50000000000000711 1 0 0 0 0.999999999999999889 0 forward_v I I I I #
coedge $-1 $76 $77 $49 $65 forward $46 $-1 #
coedge $-1 $78 $48 $79 $80 forward $33 $-1 #
coedge $-1 $48 $78 $66 $81 forward $33 $-1 #
edge $-1 $68 -20.00000000000000355 $82 20.00000000000000355 $50 $83 forward 7 unknown #
coedge $-1 $50 $49 $84 $85 reversed $21 $-1 #
edge $-1 $86 -20.00000000000000355 $69 20.00000000000000355 $49 $87 forward 7 unknown #
coedge $-1 $75 $51 $62 $81 reversed $58 $-1 #
coedge $-1 $51 $75 $76 $88 reversed $58 $-1 #
vertex $-1 $63 $89 #
vertex $-1 $52 $90 #
straight-curve $-1 130.0000000000000568 60.00000000000002842 15.00000000000000711 0 -0.999999999999999889 0 I I #
point $-1 165.0000000000000853 60.00000000000006395 49.99999999999999289 #
face $-1 $43 $91 $2 $-1 $92 reversed single #
loop $-1 $-1 $93 $57 #
plane-surface $-1 150.0000000000000568 60.00000000000002842 10.00000000000000711 0 0 1 0 -0.999999999999999889 0 forward_v I I I I #
coedge $-1 $67 $66 $94 $95 forward $58 $-1 #
coedge $-1 $96 $60 $67 $88 forward $46 $-1 #
coedge $-1 $60 $96 $97 $98 forward $46 $-1 #
coedge $-1 $62 $61 $99 $100 forward $33 $-1 #
coedge $-1 $84 $101 $61 $80 reversed $91 $-1 #
edge $-1 $82 -2.500000000000000444 $102 2.500000000000000444 $79 $103 forward 7 unknown #
edge $-1 $104 -2.500000000000000444 $68 2.500000000000000444 $66 $105 forward 7 unknown #
vertex $-1 $63 $106 #
straight-curve $-1 150.0000000000000568 80.00000000000002842 15.00000000000000711 0.999999999999999889 0 0 I I #
coedge $-1 $97 $79 $64 $85 forward $91 $-1 #
edge $-1 $82 -20.00000000000000355 $86 20.00000000000000355 $64 $107 forward 7 unknown #
vertex $-1 $65 $108 #
straight-curve $-1 150.0000000000000568 40.00000000000002842 15.00000000000000711 -0.999999999999999889 0 0 I I #
edge $-1 $69 -2.500000000000000444 $109 2.500000000000000444 $67 $110 forward 7 unknown #
point $-1 130.0000000000000568 80.00000000000002842 15.00000000000000711 #
point $-1 130.0000000000000568 40.00000000000002842 15.00000000000000711 #
loop $-1 $-1 $84 $72 #
plane-surface $-1 170.0000000000000568 60.00000000000002842 12.50000000000000711 -1 0 0 0 -0.999999999999999889 0 forward_v I I I I #
coedge $-1 $111 $99 $101 $112 forward $73 $-1 #
coedge $-1 $99 $111 $75 $95 reversed $73 $-1 #
edge $-1 $104 -20.00000000000000355 $109 20.00000000000000355 $94 $113 forward 7 unknown #
coedge $-1 $77 $76 $111 $114 forward $46 $-1 #
coedge $-1 $101 $84 $77 $98 reversed $91 $-1 #
edge $-1 $115 -2.500000000000000444 $86 2.500000000000000444 $97 $116 forward 7 unknown #
coedge $-1 $93 $94 $78 $100 reversed $73 $-1 #
edge $-1 $102 -20.00000000000000355 $104 20.00000000000000355 $99 $117 forward 7 unknown #
coedge $-1 $79 $97 $93 $112 reversed $91 $-1 #
vertex $-1 $80 $118 #
straight-curve $-1 170.0000000000000568 80.00000000000002842 12.50000000000000711 0 0 -0.999999999999999889 I I #
vertex $-1 $100 $119 #
straight-curve $-1 130.0000000000000568 80.00000000000002842 12.50000000000000711 0 0 0.999999999999999889 I I #
point $-1 170.0000000000000568 80.00000000000002842 15.00000000000000711 #
straight-curve $-1 170.0000000000000568 60.00000000000002842 15.00000000000000711 0 -0.999999999999999889 0 I I #
point $-1 170.0000000000000568 40.00000000000002842 15.00000000000000711 #
vertex $-1 $114 $120 #
straight-curve $-1 130.0000000000000568 40.00000000000002842 12.50000000000000711 0 0 -0.999999999999999889 I I #
coedge $-1 $94 $93 $96 $114 reversed $73 $-1 #
edge $-1 $102 -20.00000000000000355 $115 20.00000000000000355 $101 $121 forward 7 unknown #
straight-curve $-1 130.0000000000000568 60.00000000000002842 10.00000000000000711 0 -0.999999999999999889 0 I I #
edge $-1 $109 -20.00000000000000355 $115 20.00000000000000355 $111 $122 forward 7 unknown #
vertex $-1 $98 $123 #
straight-curve $-1 170.0000000000000568 40.00000000000002842 12.50000000000000711 0 0 0.999999999999999889 I I #
straight-curve $-1 150.0000000000000568 80.00000000000002842 10.00000000000000711 -0.999999999999999889 0 0 I I #
point $-1 170.0000000000000568 80.00000000000002842 10.00000000000000711 #
point $-1 130.0000000000000568 80.00000000000002842 10.00000000000000711 #
point $-1 130.0000000000000568 40.00000000000002842 10.00000000000000711 #
straight-curve $-1 170.0000000000000568 60.00000000000002842 10.00000000000000711 0 -0.999999999999999889 0 I I #
straight-curve $-1 150.0000000000000568 40.00000000000002842 10.00000000000000711 0.999999999999999889 0 0 I I #
point $-1 170.0000000000000568 40.00000000000002842 10.00000000000000711 #
End-of-ACIS-data 