106 0 1 0           
body $-1 $1 $-1 $2 #
lump $-1 $-1 $3 $0 #
transform $-1 0 0 1 1 0 0 0 1 0 150.00000000000006 60.000000000000028 12.500000000000007 0.99999999999999989 1 0 0 #
shell $-1 $-1 $-1 $4 $1 #
face $-1 $5 $6 $3 $-1 $7 reversed single #
face $-1 $8 $9 $3 $-1 $10 forward single #
loop $-1 $11 $12 $4 #
cone-surface $-1 17.499999999999986 2.9649100952156004e-009 2.9649100952156004e-009 -1 0 0 0 -10.000000000000002 0 1 I I 0 1 0 I I I I #
face $-1 $13 $14 $3 $-1 $15 forward single #
loop $-1 $16 $17 $5 #
cone-surface $-1 19.999999999999993 3.5527136788005009e-014 3.5527136788005009e-014 1 0 0 0 15.000000000000002 0 1 I I 0 1 0 I I I I #
loop $-1 $-1 $18 $4 #
coedge $-1 $12 $12 $19 $20 1 $6 $-1 #
face $-1 $21 $22 $3 $-1 $23 reversed single #
loop $-1 $24 $25 $8 #
plane-surface $-1 37.499999999999993 3.5527136788005009e-014 3.5527136788005009e-014 1 0 0 0 1 0 0 I I I I #
loop $-1 $-1 $26 $5 #
coedge $-1 $17 $17 $27 $28 1 $9 $-1 #
coedge $-1 $18 $18 $25 $29 1 $11 $-1 #
coedge $-1 $19 $19 $12 $20 0 $30 $-1 #
edge $-1 $31 $31 $19 $32 0 #
face $-1 $33 $34 $3 $-1 $35 forward single #
loop $-1 $36 $37 $13 #
plane-surface $-1 2.5 0 0 -1 0 0 0 0 1 0 I I I I #
loop $-1 $-1 $38 $8 #
coedge $-1 $25 $25 $18 $29 0 $14 $-1 #
coedge $-1 $26 $26 $38 $39 1 $16 $-1 #
coedge $-1 $27 $27 $17 $28 0 $36 $-1 #
edge $-1 $40 $40 $27 $41 0 #
edge $-1 $42 $42 $25 $43 0 #
loop $-1 $-1 $19 $44 #
vertex $-1 $20 $45 #
ellipse-curve $-1 2.5 2.9649100952156004e-009 2.9649100952156004e-009 1 0 0 0 -10.000000000000002 0 1 I I #
face $-1 $46 $47 $3 $-1 $48 reversed single #
loop $-1 $-1 $49 $21 #
plane-surface $-1 0 0 20 0 0 1 1 0 0 0 I I I I #
loop $-1 $-1 $27 $13 #
coedge $-1 $50 $51 $52 $53 0 $22 $-1 #
coedge $-1 $38 $38 $26 $39 0 $24 $-1 #
edge $-1 $54 $54 $38 $55 0 #
vertex $-1 $28 $56 #
ellipse-curve $-1 2.5 3.5527136788005009e-014 3.5527136788005009e-014 -1 0 0 0 15.000000000000002 0 1 I I #
vertex $-1 $29 $57 #
ellipse-curve $-1 37.499999999999993 2.9649100952156004e-009 2.9649100952156004e-009 -1 0 0 0 -10.000000000000002 0 1 I I #
face $-1 $-1 $30 $3 $-1 $23 reversed single #
point $-1 2.4999999999999929 10.000000002964912 2.9648402655483783e-009 #
face $-1 $58 $59 $3 $-1 $60 reversed single #
loop $-1 $-1 $61 $33 #
plane-surface $-1 0 0 -20 0 0 1 1 0 0 0 I I I I #
coedge $-1 $62 $63 $51 $64 0 $34 $-1 #
coedge $-1 $65 $37 $61 $66 1 $22 $-1 #
coedge $-1 $37 $65 $49 $64 1 $22 $-1 #
coedge $-1 $67 $68 $37 $53 1 $59 $-1 #
edge $-1 $69 $70 $37 $71 0 #
vertex $-1 $39 $72 #
ellipse-curve $-1 37.499999999999993 3.5527136788005009e-014 3.5527136788005009e-014 1 0 0 0 15.000000000000002 0 1 I I #
point $-1 2.4999999999999929 15.000000000000037 3.5527136788005009e-014 #
point $-1 37.499999999999993 10.000000002964912 2.9649799248828226e-009 #
face $-1 $73 $74 $3 $-1 $75 reversed single #
loop $-1 $-1 $76 $46 #
plane-surface $-1 0 -20 0 0 1 0 0 0 1 0 I I I I #
coedge $-1 $77 $78 $50 $66 0 $47 $-1 #
coedge $-1 $79 $49 $80 $81 0 $34 $-1 #
coedge $-1 $49 $79 $67 $82 0 $34 $-1 #
edge $-1 $69 $83 $51 $84 0 #
coedge $-1 $51 $50 $85 $86 1 $22 $-1 #
edge $-1 $87 $70 $50 $88 0 #
coedge $-1 $76 $52 $63 $82 1 $59 $-1 #
coedge $-1 $52 $76 $77 $89 1 $59 $-1 #
vertex $-1 $64 $90 #
vertex $-1 $53 $91 #
straight-curve $-1 2.5 -20 0 0 0 -1 I I #
point $-1 37.499999999999993 15.000000000000037 3.5527136788005009e-014 #
face $-1 $44 $92 $3 $-1 $93 reversed single #
loop $-1 $-1 $94 $58 #
plane-surface $-1 -2.5 0 0 1 0 0 0 0 -1 0 I I I I #
coedge $-1 $68 $67 $95 $96 0 $59 $-1 #
coedge $-1 $97 $61 $68 $89 0 $47 $-1 #
coedge $-1 $61 $97 $98 $99 0 $47 $-1 #
coedge $-1 $63 $62 $100 $101 0 $34 $-1 #
coedge $-1 $85 $102 $62 $81 1 $92 $-1 #
edge $-1 $83 $103 $80 $104 0 #
edge $-1 $105 $69 $67 $106 0 #
vertex $-1 $64 $107 #
straight-curve $-1 2.5 0 20 0 1 0 I I #
coedge $-1 $98 $80 $65 $86 0 $92 $-1 #
edge $-1 $83 $87 $65 $108 0 #
vertex $-1 $66 $109 #
straight-curve $-1 2.5 0 -20 0 -1 0 I I #
edge $-1 $70 $110 $68 $111 0 #
point $-1 2.5 -20 20 #
point $-1 2.5 -20 -20 #
loop $-1 $-1 $85 $73 #
plane-surface $-1 0 20 0 0 -1 0 0 0 -1 0 I I I I #
coedge $-1 $112 $100 $102 $113 0 $74 $-1 #
coedge $-1 $100 $112 $76 $96 1 $74 $-1 #
edge $-1 $105 $110 $95 $114 0 #
coedge $-1 $78 $77 $112 $115 0 $47 $-1 #
coedge $-1 $102 $85 $78 $99 1 $92 $-1 #
edge $-1 $116 $87 $98 $117 0 #
coedge $-1 $94 $95 $79 $101 1 $74 $-1 #
edge $-1 $103 $105 $100 $118 0 #
coedge $-1 $80 $98 $94 $113 1 $92 $-1 #
vertex $-1 $81 $119 #
straight-curve $-1 0 20 20 -1 0 0 I I #
vertex $-1 $101 $120 #
straight-curve $-1 0 -20 20 1 0 0 I I #
point $-1 2.5 20 20 #
straight-curve $-1 2.5 20 0 0 0 -1 I I #
point $-1 2.5 20 -20 #
vertex $-1 $115 $121 #
straight-curve $-1 0 -20 -20 -1 0 0 I I #
coedge $-1 $95 $94 $97 $115 1 $74 $-1 #
edge $-1 $103 $116 $102 $122 0 #
straight-curve $-1 -2.5 -20 0 0 0 -1 I I #
edge $-1 $110 $116 $112 $123 0 #
vertex $-1 $99 $124 #
straight-curve $-1 0 20 -20 1 0 0 I I #
straight-curve $-1 -2.5 0 20 0 -1 0 I I #
point $-1 -2.5 20 20 #
point $-1 -2.5 -20 20 #
point $-1 -2.5 -20 -20 #
straight-curve $-1 -2.5 20 0 0 0 -1 I I #
straight-curve $-1 -2.5 0 -20 0 1 0 I I #
point $-1 -2.5 20 -20 #
End-of-ACIS-data 