106 0 1 0           
body $-1 $1 $-1 $2 #
lump $-1 $-1 $3 $0 #
transform $-1 -1 0 0 0 1 0 0 0 -1 150 60.000000000000043 132.50000000000006 0.99999999999999989 1 0 0 #
shell $-1 $-1 $-1 $4 $1 #
face $-1 $5 $6 $3 $-1 $7 forward single #
face $-1 $8 $9 $3 $-1 $10 forward single #
loop $-1 $11 $12 $4 #
plane-surface $-1 -1.4210854715202004e-014 -1.4210854715202004e-014 -17.499999999999972 0 0 1 1 0 0 0 I I I I #
face $-1 $13 $14 $3 $-1 $15 forward single #
loop $-1 $16 $17 $5 #
cone-surface $-1 -1.4210854715202004e-014 -1.4210854715202004e-014 -34.999999999999972 0 0 1 10 0 0 1 I I 0 1 0 I I I I #
loop $-1 $-1 $18 $4 #
coedge $-1 $12 $12 $19 $20 0 $6 $-1 #
face $-1 $21 $22 $3 $-1 $23 reversed single #
loop $-1 $-1 $24 $8 #
plane-surface $-1 -1.4210854715202004e-014 -1.4210854715202004e-014 -52.499999999999972 0 0 -1 -1 0 0 0 I I I I #
loop $-1 $-1 $19 $5 #
coedge $-1 $17 $17 $24 $25 1 $9 $-1 #
coedge $-1 $18 $18 $26 $27 1 $11 $-1 #
coedge $-1 $19 $19 $12 $20 1 $16 $-1 #
edge $-1 $28 $28 $12 $29 0 #
face $-1 $30 $31 $3 $-1 $32 reversed single #
loop $-1 $-1 $33 $13 #
plane-surface $-1 7.4999999999999929 6.9999999999999574 2.5000000000000711 0 0 -1 -1 0 0 0 I I I I #
coedge $-1 $24 $24 $17 $25 0 $14 $-1 #
edge $-1 $34 $34 $24 $35 0 #
coedge $-1 $26 $26 $18 $27 0 $36 $-1 #
edge $-1 $37 $37 $26 $38 1 #
vertex $-1 $20 $39 #
ellipse-curve $-1 -1.4210854715202004e-014 -1.4210854715202004e-014 -17.499999999999972 0 0 1 10 0 0 1 I I #
face $-1 $40 $36 $3 $-1 $41 forward single #
loop $-1 $-1 $42 $21 #
plane-surface $-1 2.4999999999999929 6.9999999999999574 19.500000000000057 -1 0 0 0 0 1 0 I I I I #
coedge $-1 $43 $43 $44 $45 1 $22 $-1 #
vertex $-1 $25 $46 #
ellipse-curve $-1 -1.4210854715202004e-014 -1.4210854715202004e-014 -52.499999999999972 0 0 -1 10 0 0 1 I I #
loop $-1 $47 $26 $30 #
vertex $-1 $27 $48 #
ellipse-curve $-1 0 0 -17.5 0 0 -1 5 0 0 1 I I #
point $-1 9.9999999999999858 -1.4210854715202004e-014 -17.499999999999972 #
face $-1 $49 $50 $3 $-1 $51 reversed single #
cone-surface $-1 0 0 0 0 0 1 5 0 0 1 I I 0 1 0 I I I I #
coedge $-1 $52 $53 $54 $55 1 $31 $-1 #
coedge $-1 $33 $33 $53 $56 0 $22 $-1 #
coedge $-1 $57 $54 $33 $45 0 $47 $-1 #
edge $-1 $58 $59 $44 $60 0 #
point $-1 9.9999999999999858 -1.4210854715202004e-014 -52.499999999999972 #
loop $-1 $-1 $54 $30 #
point $-1 5 0 -17.5 #
face $-1 $61 $62 $3 $-1 $63 reversed single #
loop $-1 $-1 $64 $40 #
plane-surface $-1 -2.5000000000000071 -8.0000000000000373 19.500000000000043 1 0 0 0 0 -1 0 I I I I #
coedge $-1 $65 $42 $66 $67 1 $31 $-1 #
coedge $-1 $42 $65 $43 $56 1 $31 $-1 #
coedge $-1 $44 $68 $42 $55 0 $47 $-1 #
edge $-1 $69 $58 $54 $70 0 #
edge $-1 $58 $59 $53 $71 0 #
coedge $-1 $72 $44 $65 $73 0 $47 $-1 #
vertex $-1 $55 $74 #
vertex $-1 $73 $75 #
ellipse-curve $-1 0 0 2.5000000000000711 0 0 -1 5 0 0 1 I I #
face $-1 $-1 $76 $3 $-1 $77 forward single #
loop $-1 $-1 $78 $49 #
plane-surface $-1 -2.5000000000000071 6.9999999999999645 2.5000000000000426 0 0 -1 -1 0 0 0 I I I I #
coedge $-1 $79 $80 $81 $82 1 $50 $-1 #
coedge $-1 $53 $52 $57 $73 1 $31 $-1 #
coedge $-1 $83 $84 $52 $67 0 $76 $-1 #
edge $-1 $85 $69 $66 $86 0 #
coedge $-1 $54 $81 $83 $87 1 $47 $-1 #
vertex $-1 $87 $88 #
straight-curve $-1 2.4999999999999929 4.3301270189221972 0 0 0 -1 I I #
straight-curve $-1 2.4999999999999929 6.9999999999999574 2.5000000000000711 0 -1 0 I I #
coedge $-1 $89 $57 $84 $90 1 $47 $-1 #
edge $-1 $59 $85 $57 $91 0 #
point $-1 2.4999999999999929 4.3301270189221972 2.5000000000000711 #
point $-1 2.4999999999999929 -4.3301270189221972 2.5000000000000711 #
loop $-1 $-1 $66 $61 #
plane-surface $-1 0 0 17.5 0 0 1 1 0 0 0 I I I I #
coedge $-1 $92 $92 $93 $94 1 $62 $-1 #
coedge $-1 $95 $64 $92 $96 1 $50 $-1 #
coedge $-1 $64 $95 $97 $98 1 $50 $-1 #
coedge $-1 $68 $93 $64 $82 0 $47 $-1 #
edge $-1 $99 $100 $81 $101 0 #
coedge $-1 $97 $66 $68 $87 0 $76 $-1 #
coedge $-1 $66 $97 $72 $90 0 $76 $-1 #
vertex $-1 $67 $102 #
straight-curve $-1 2.4999999999999929 3.4999999999999787 17.5 0 1 0 I I #
edge $-1 $69 $100 $83 $103 0 #
point $-1 2.4999999999999929 4.3301270189221972 17.5 #
coedge $-1 $93 $72 $95 $104 0 $47 $-1 #
edge $-1 $105 $85 $84 $103 0 #
straight-curve $-1 2.4999999999999929 -4.3301270189221972 0 0 0 1 I I #
coedge $-1 $78 $78 $79 $96 0 $62 $-1 #
coedge $-1 $81 $89 $78 $94 0 $47 $-1 #
edge $-1 $106 $99 $93 $107 0 #
coedge $-1 $80 $79 $89 $104 1 $50 $-1 #
edge $-1 $106 $99 $79 $108 0 #
coedge $-1 $84 $83 $80 $98 0 $76 $-1 #
edge $-1 $100 $105 $97 $109 0 #
vertex $-1 $82 $110 #
vertex $-1 $98 $111 #
straight-curve $-1 -2.5000000000000071 4.3301270189221892 0 0 0 1 I I #
point $-1 2.4999999999999929 -4.3301270189221972 17.5 #
ellipse-curve $-1 0 0 17.5 0 0 1 5 0 0 1 I I #
edge $-1 $105 $106 $89 $112 0 #
vertex $-1 $90 $113 #
vertex $-1 $104 $114 #
ellipse-curve $-1 0 0 2.5000000000000426 0 0 -1 5 0 0 1 I I #
straight-curve $-1 -2.5000000000000071 -8.0000000000000373 2.5000000000000426 0 1 0 I I #
straight-curve $-1 -2.5000000000000071 -4.0000000000000187 17.5 0 -1 0 I I #
point $-1 -2.5000000000000071 4.3301270189221892 2.5000000000000426 #
point $-1 -2.5000000000000071 4.3301270189221892 17.5 #
straight-curve $-1 -2.5000000000000071 -4.3301270189221892 0 0 0 -1 I I #
point $-1 -2.5000000000000071 -4.3301270189221892 17.5 #
point $-1 -2.5000000000000071 -4.3301270189221892 2.5000000000000426 #
End-of-ACIS-data 