106 0 1 0           
body $-1 $1 $-1 $2 #
lump $-1 $-1 $3 $0 #
transform $-1 0 0 -1 -1 0 0 0 1 0 149.99998999999997 60.000000000000043 187.49999999999994 0.99999999999999989 1 0 0 #
shell $-1 $-1 $-1 $4 $1 #
face $-1 $5 $6 $3 $-1 $7 reversed single #
face $-1 $8 $9 $3 $-1 $10 reversed single #
loop $-1 $11 $12 $4 #
plane-surface $-1 0.20000000000000112 15.999999999999993 15.999999999999964 1 0 0 0 1.0000000000000002 0 0 I I I I #
face $-1 $13 $14 $3 $-1 $15 reversed single #
loop $-1 $16 $17 $5 #
cone-surface $-1 -1.1499999999999992 15.999999999999993 15.999999999999964 1 0 0 0 4.5500000000000016 0 1 I I 0 1 0 I I I I #
loop $-1 $-1 $18 $4 #
coedge $-1 $12 $12 $19 $20 1 $6 $-1 #
face $-1 $21 $22 $3 $-1 $23 reversed single #
loop $-1 $24 $25 $8 #
cone-surface $-1 0 15.999999999999993 15.999999999999964 1 0 0 0 2.5000000000000004 0 1 I I 0 1 0 I I I I #
loop $-1 $-1 $19 $5 #
coedge $-1 $17 $17 $26 $27 1 $9 $-1 #
coedge $-1 $18 $18 $28 $29 0 $11 $-1 #
coedge $-1 $19 $19 $12 $20 0 $16 $-1 #
edge $-1 $30 $30 $12 $31 0 #
face $-1 $32 $33 $3 $-1 $34 reversed single #
loop $-1 $35 $36 $13 #
plane-surface $-1 0.20000000000000112 -16.000000000000028 -16.000000000000036 1 0 0 0 1.0000000000000002 0 0 I I I I #
loop $-1 $-1 $28 $8 #
coedge $-1 $25 $25 $37 $38 1 $14 $-1 #
coedge $-1 $26 $26 $17 $27 0 $39 $-1 #
edge $-1 $40 $40 $26 $41 0 #
coedge $-1 $28 $28 $18 $29 1 $24 $-1 #
edge $-1 $42 $42 $28 $43 0 #
vertex $-1 $20 $44 #
ellipse-curve $-1 0.20000000000000112 15.999999999999993 15.999999999999964 1 0 0 0 4.5500000000000016 0 1 I I #
face $-1 $45 $46 $3 $-1 $47 reversed single #
loop $-1 $48 $49 $21 #
cone-surface $-1 -1.1499999999999992 -16.000000000000028 -16.000000000000036 1 0 0 0 4.5500000000000016 0 1 I I 0 1 0 I I I I #
loop $-1 $-1 $50 $13 #
coedge $-1 $36 $36 $51 $52 1 $22 $-1 #
coedge $-1 $37 $37 $25 $38 0 $53 $-1 #
edge $-1 $54 $54 $37 $55 0 #
loop $-1 $56 $26 $57 #
vertex $-1 $27 $58 #
ellipse-curve $-1 -2.5 15.999999999999993 15.999999999999964 1 0 0 0 4.5500000000000016 0 1 I I #
vertex $-1 $29 $59 #
ellipse-curve $-1 0.20000000000000112 15.999999999999993 15.999999999999964 1 0 0 0 2.5000000000000004 0 1 I I #
point $-1 0.20000000000000112 20.549999999999994 15.999999999999964 #
face $-1 $60 $61 $3 $-1 $62 reversed single #
loop $-1 $63 $64 $32 #
cone-surface $-1 0 -16.000000000000028 -16.000000000000036 1 0 0 0 2.5000000000000004 0 1 I I 0 1 0 I I I I #
loop $-1 $-1 $51 $21 #
coedge $-1 $49 $49 $65 $66 1 $33 $-1 #
coedge $-1 $50 $50 $67 $68 0 $35 $-1 #
coedge $-1 $51 $51 $36 $52 0 $48 $-1 #
edge $-1 $69 $69 $36 $70 0 #
loop $-1 $71 $37 $72 #
vertex $-1 $38 $73 #
ellipse-curve $-1 2.5 15.999999999999993 15.999999999999964 -1 0 0 0 2.5000000000000004 0 1 I I #
loop $-1 $74 $65 $57 #
face $-1 $75 $39 $3 $-1 $76 reversed single #
point $-1 -2.5 11.449999999999992 15.999999999999996 #
point $-1 0.20000000000000112 13.499999999999993 15.999999999999982 #
face $-1 $77 $78 $3 $-1 $79 forward single #
loop $-1 $80 $81 $45 #
cone-surface $-1 17.499999999999993 2.9649100952156004e-009 2.9649100952156004e-009 -1 0 0 0 -10.000000000000002 0 1 I I 0 1 0 I I I I #
loop $-1 $-1 $67 $32 #
coedge $-1 $64 $64 $82 $83 1 $46 $-1 #
coedge $-1 $65 $65 $49 $66 0 $56 $-1 #
edge $-1 $84 $84 $65 $85 0 #
coedge $-1 $67 $67 $50 $68 1 $63 $-1 #
edge $-1 $86 $86 $67 $87 0 #
vertex $-1 $52 $88 #
ellipse-curve $-1 0.20000000000000112 -16.000000000000028 -16.000000000000036 1 0 0 0 4.5500000000000016 0 1 I I #
loop $-1 $89 $82 $72 #
face $-1 $90 $53 $3 $-1 $91 reversed single #
point $-1 2.5 13.499999999999993 15.999999999999947 #
loop $-1 $-1 $92 $57 #
face $-1 $93 $94 $3 $-1 $95 reversed single #
plane-surface $-1 -2.5 0 0 1 0 0 0 0 -1 0 I I I I #
face $-1 $72 $96 $3 $-1 $97 forward single #
loop $-1 $98 $99 $60 #
cone-surface $-1 20 3.5527136788005009e-014 3.5527136788005009e-014 1 0 0 0 15.000000000000002 0 1 I I 0 1 0 I I I I #
loop $-1 $-1 $100 $45 #
coedge $-1 $81 $81 $101 $102 1 $61 $-1 #
coedge $-1 $82 $82 $64 $83 0 $71 $-1 #
edge $-1 $103 $103 $82 $104 0 #
vertex $-1 $66 $105 #
ellipse-curve $-1 -2.5 -16.000000000000028 -16.000000000000036 1 0 0 0 4.5500000000000016 0 1 I I #
vertex $-1 $68 $106 #
ellipse-curve $-1 0.20000000000000112 -16.000000000000028 -16.000000000000036 1 0 0 0 2.5000000000000004 0 1 I I #
point $-1 0.20000000000000112 -11.450000000000028 -16.000000000000036 #
loop $-1 $107 $108 $72 #
face $-1 $109 $110 $3 $-1 $111 forward single #
plane-surface $-1 2.5 0 0 -1 0 0 0 0 1 0 I I I I #
coedge $-1 $112 $113 $114 $115 0 $74 $-1 #
face $-1 $-1 $116 $3 $-1 $91 reversed single #
loop $-1 $-1 $117 $75 #
plane-surface $-1 0 25.000000000000004 0 0 -1 0 0 0 -1 0 I I I I #
loop $-1 $118 $119 $77 #
plane-surface $-1 37.5 3.5527136788005009e-014 3.5527136788005009e-014 1 0 0 0 1 0 0 I I I I #
loop $-1 $-1 $120 $60 #
coedge $-1 $99 $99 $121 $122 1 $78 $-1 #
coedge $-1 $100 $100 $119 $123 1 $80 $-1 #
coedge $-1 $101 $101 $81 $102 0 $116 $-1 #
edge $-1 $124 $124 $101 $125 0 #
vertex $-1 $83 $126 #
ellipse-curve $-1 2.5 -16.000000000000028 -16.000000000000036 -1 0 0 0 2.5000000000000004 0 1 I I #
point $-1 -2.5 -20.550000000000029 -16.000000000000004 #
point $-1 0.20000000000000112 -18.500000000000028 -16.000000000000018 #
loop $-1 $-1 $121 $72 #
coedge $-1 $127 $128 $129 $130 0 $89 $-1 #
face $-1 $131 $132 $3 $-1 $133 reversed single #
loop $-1 $-1 $134 $90 #
plane-surface $-1 0 0 25.000000000000004 0 0 1 1 0 0 0 I I I I #
coedge $-1 $135 $92 $136 $137 1 $74 $-1 #
coedge $-1 $92 $135 $138 $139 1 $74 $-1 #
coedge $-1 $140 $141 $92 $115 1 $94 $-1 #
edge $-1 $142 $143 $114 $144 0 #
loop $-1 $-1 $101 $93 #
coedge $-1 $141 $140 $145 $146 0 $94 $-1 #
loop $-1 $-1 $147 $77 #
coedge $-1 $119 $119 $100 $123 0 $96 $-1 #
coedge $-1 $120 $120 $147 $148 1 $98 $-1 #
coedge $-1 $121 $121 $99 $122 0 $107 $-1 #
edge $-1 $149 $149 $121 $150 0 #
edge $-1 $151 $151 $119 $152 0 #
vertex $-1 $102 $153 #
ellipse-curve $-1 2.5 2.9649100952156004e-009 2.9649100952156004e-009 1 0 0 0 -10.000000000000002 0 1 I I #
point $-1 2.5 -18.500000000000028 -16.000000000000053 #
coedge $-1 $145 $108 $154 $155 1 $89 $-1 #
coedge $-1 $108 $145 $134 $156 1 $89 $-1 #
coedge $-1 $157 $158 $108 $130 1 $159 $-1 #
edge $-1 $160 $161 $108 $162 0 #
face $-1 $57 $159 $3 $-1 $163 reversed single #
loop $-1 $-1 $154 $109 #
plane-surface $-1 0 0 -25.000000000000004 0 0 1 1 0 0 0 I I I I #
coedge $-1 $164 $165 $128 $156 0 $110 $-1 #
coedge $-1 $113 $112 $166 $167 1 $74 $-1 #
coedge $-1 $168 $169 $112 $137 0 $132 $-1 #
edge $-1 $170 $143 $112 $171 0 #
coedge $-1 $165 $164 $113 $139 0 $110 $-1 #
edge $-1 $142 $172 $113 $173 0 #
coedge $-1 $117 $114 $164 $174 1 $94 $-1 #
coedge $-1 $114 $117 $168 $175 1 $94 $-1 #
vertex $-1 $174 $176 #
vertex $-1 $175 $177 #
straight-curve $-1 -2.5 25.000000000000004 0 0 0 -1 I I #
coedge $-1 $128 $127 $117 $146 1 $89 $-1 #
edge $-1 $178 $179 $145 $180 0 #
coedge $-1 $147 $147 $120 $148 0 $118 $-1 #
edge $-1 $181 $181 $147 $182 0 #
vertex $-1 $122 $183 #
ellipse-curve $-1 2.5 3.5527136788005009e-014 3.5527136788005009e-014 -1 0 0 0 15.000000000000002 0 1 I I #
vertex $-1 $123 $184 #
ellipse-curve $-1 37.5 2.9649100952156004e-009 2.9649100952156004e-009 -1 0 0 0 -10.000000000000002 0 1 I I #
point $-1 2.5 10.000000002964912 2.9648402655483783e-009 #
coedge $-1 $169 $168 $127 $155 0 $132 $-1 #
edge $-1 $179 $161 $127 $185 0 #
edge $-1 $160 $178 $128 $186 0 #
coedge $-1 $166 $129 $165 $187 1 $159 $-1 #
coedge $-1 $129 $166 $169 $188 1 $159 $-1 #
loop $-1 $-1 $166 $131 #
vertex $-1 $156 $189 #
vertex $-1 $130 $190 #
straight-curve $-1 2.5 -25.000000000000004 0 0 0 -1 I I #
plane-surface $-1 0 -25.000000000000004 0 0 1 0 0 0 1 0 I I I I #
coedge $-1 $138 $134 $140 $174 0 $110 $-1 #
coedge $-1 $134 $138 $157 $187 0 $110 $-1 #
coedge $-1 $158 $157 $135 $167 0 $159 $-1 #
edge $-1 $172 $170 $135 $191 0 #
coedge $-1 $154 $136 $141 $175 0 $132 $-1 #
coedge $-1 $136 $154 $158 $188 0 $132 $-1 #
vertex $-1 $137 $192 #
straight-curve $-1 -2.5 0 -25.000000000000004 0 1 0 I I #
vertex $-1 $139 $193 #
straight-curve $-1 -2.5 0 25.000000000000004 0 -1 0 I I #
edge $-1 $178 $142 $140 $194 0 #
edge $-1 $143 $179 $141 $195 0 #
point $-1 -2.5 25.000000000000004 25.000000000000004 #
point $-1 -2.5 25.000000000000004 -25.000000000000004 #
vertex $-1 $156 $196 #
vertex $-1 $155 $197 #
straight-curve $-1 2.5 25.000000000000004 0 0 0 -1 I I #
vertex $-1 $148 $198 #
ellipse-curve $-1 37.5 3.5527136788005009e-014 3.5527136788005009e-014 1 0 0 0 15.000000000000002 0 1 I I #
point $-1 2.5 15.000000000000037 3.5527136788005009e-014 #
point $-1 37.5 10.000000002964912 2.9649799248828226e-009 #
straight-curve $-1 2.5 0 -25.000000000000004 0 -1 0 I I #
straight-curve $-1 2.5 0 25.000000000000004 0 1 0 I I #
edge $-1 $172 $160 $157 $199 0 #
edge $-1 $161 $170 $158 $200 0 #
point $-1 2.5 -25.000000000000004 25.000000000000004 #
point $-1 2.5 -25.000000000000004 -25.000000000000004 #
straight-curve $-1 -2.5 -25.000000000000004 0 0 0 -1 I I #
point $-1 -2.5 -25.000000000000004 -25.000000000000004 #
point $-1 -2.5 -25.000000000000004 25.000000000000004 #
straight-curve $-1 0 25.000000000000004 25.000000000000004 -1 0 0 I I #
straight-curve $-1 0 25.000000000000004 -25.000000000000004 1 0 0 I I #
point $-1 2.5 25.000000000000004 25.000000000000004 #
point $-1 2.5 25.000000000000004 -25.000000000000004 #
point $-1 37.5 15.000000000000037 3.5527136788005009e-014 #
straight-curve $-1 0 -25.000000000000004 25.000000000000004 1 0 0 I I #
straight-curve $-1 0 -25.000000000000004 -25.000000000000004 -1 0 0 I I #
End-of-ACIS-data 