700 0 2 0           
24 FBMach with ACIS - 7.0.3 13 ACIS 7.0.3 NT 24 Mon May 13 17:06:25 2002 
1 9.9999999999999995e-007 1e-010 
body $2 -1 $-1 $3 $-1 $4 #
bdycol-kcp $-1 -1 1 5 $5 $6 $7 $8 $9 #
model_id-kcp-attrib $-1 -1 $-1 $-1 $0 1 1021323984 1021323984 593428481 1 #
lump $-1 -1 $-1 $-1 $10 $0 #
transform $-1 -1 1 0 0 0 1 0 0 0 1 0 0 0 1 rotate no_reflect no_shear #
body $11 -1 $-1 $12 $-1 $13 #
body $14 -1 $-1 $15 $-1 $16 #
body $17 -1 $-1 $18 $-1 $19 #
body $20 -1 $-1 $21 $-1 $22 #
body $23 -1 $-1 $24 $-1 $25 #
shell $-1 -1 $-1 $-1 $-1 $26 $-1 $3 #
model_id-kcp-attrib $-1 -1 $-1 $-1 $5 1 1021323984 1021323984 594083842 1 #
lump $-1 -1 $-1 $-1 $27 $5 #
transform $-1 -1 1 0 0 0 1 0 0 0 1 150 60.000000000000028 100.00000000000003 1 no_rotate no_reflect no_shear #
rgb_color-st-attrib $-1 -1 $28 $-1 $6 1 0 0 #
lump $-1 -1 $-1 $-1 $29 $6 #
transform $-1 -1 1 0 0 0 1 0 0 0 1 150 60.000000000000028 100.00000000000003 1 no_rotate no_reflect no_shear #
rgb_color-st-attrib $-1 -1 $30 $-1 $7 0.5 1 1 #
lump $-1 -1 $-1 $-1 $31 $7 #
transform $-1 -1 1 0 0 0 -3.8285889215894375e-016 -1 0 1 -3.8285889215894375e-016 150.00000000383335 60.000000000000014 99.999999996166693 1 rotate no_reflect no_shear #
rgb_color-st-attrib $-1 -1 $32 $-1 $8 0.5 1 1 #
lump $-1 -1 $-1 $-1 $33 $8 #
transform $-1 -1 1 0 0 0 1 0 0 0 1 150 60.000000000000028 100.00000000000003 1 no_rotate no_reflect no_shear #
rgb_color-st-attrib $-1 -1 $34 $-1 $9 1 0 0 #
lump $-1 -1 $-1 $-1 $35 $9 #
transform $-1 -1 1 0 0 0 1 0 0 0 1 150 60.000000000000028 100.00000000000003 1 no_rotate no_reflect no_shear #
face $36 -1 $-1 $37 $38 $10 $-1 $39 reversed single #
shell $-1 -1 $-1 $-1 $-1 $40 $-1 $12 #
model_id-kcp-attrib $-1 -1 $-1 $14 $6 1 1021323984 1021323984 594608133 1 #
shell $-1 -1 $-1 $-1 $-1 $41 $-1 $15 #
model_id-kcp-attrib $-1 -1 $-1 $17 $7 1 1021323984 1021323984 595394563 1 #
shell $-1 -1 $-1 $-1 $-1 $42 $-1 $18 #
model_id-kcp-attrib $-1 -1 $-1 $20 $8 1 1021323984 1021323984 601292804 1 #
shell $-1 -1 $-1 $-1 $-1 $43 $-1 $21 #
model_id-kcp-attrib $-1 -1 $-1 $23 $9 1 1021323984 1021323985 601096198 1 #
shell $-1 -1 $-1 $-1 $-1 $44 $-1 $24 #
model_id-kcp-attrib $-1 -1 $-1 $-1 $26 1 1021323984 1021323984 593428481 2 #
face $45 -1 $-1 $46 $47 $10 $-1 $48 forward single #
loop $-1 -1 $-1 $49 $50 $26 #
cone-surface $-1 -1 $-1 150.00000000383335 60.000000000000014 99.999999996166693 0 1 0 -7.5000000000000018 0 0 1 I I 0 1 7.5000000000000018 forward I I I I #
face $-1 -1 $-1 $51 $52 $27 $-1 $53 forward single #
face $-1 -1 $-1 $54 $55 $29 $-1 $56 forward single #
face $-1 -1 $-1 $57 $58 $31 $-1 $59 forward single #
face $-1 -1 $-1 $60 $61 $33 $-1 $62 reversed single #
face $-1 -1 $-1 $63 $64 $35 $-1 $65 forward single #
model_id-kcp-attrib $-1 -1 $-1 $-1 $37 1 1021323984 1021323984 593428481 3 #
face $66 -1 $-1 $67 $68 $10 $-1 $69 forward single #
loop $-1 -1 $-1 $70 $71 $37 #
cone-surface $-1 -1 $-1 150 35.000000000000007 100.00000000000003 0 1 0 0 0 16.25 1 I I 0.50387102552408614 0.86377890089843334 16.25 forward I I I I #
loop $-1 -1 $-1 $-1 $72 $26 #
coedge $-1 -1 $-1 $50 $50 $71 $73 reversed $38 $-1 #
face $-1 -1 $-1 $74 $75 $27 $-1 $76 reversed single #
loop $-1 -1 $-1 $-1 $77 $40 #
plane-surface $-1 -1 $-1 0 0 25.001000000000005 0 0 1 1 0 0 forward_v I I I I #
face $-1 -1 $-1 $78 $79 $29 $-1 $80 forward single #
loop $-1 -1 $-1 $-1 $81 $41 #
cone-surface $-1 -1 $-1 0 -2.8421709430404007e-014 -15.000000000000014 0 0 -1 -4.9999999999999991 0 0 1 I I 0 1 4.9999999999999991 forward I I I I #
face $-1 -1 $-1 $82 $83 $31 $-1 $84 forward single #
loop $-1 -1 $-1 $85 $86 $42 #
cone-surface $-1 -1 $-1 0 0 0 0 0 1 7.5000000000000018 0 0 1 I I 0 1 7.5000000000000018 forward I I I I #
face $-1 -1 $-1 $87 $88 $33 $-1 $62 reversed single #
loop $-1 -1 $-1 $-1 $89 $43 #
cone-surface $-1 -1 $-1 0 40.000000000000014 0 0 1 0 -2.4999999999999973 0 24.874685927665496 1 I I 0 1 24.999999999999996 forward I I I I #
face $-1 -1 $-1 $90 $91 $35 $-1 $92 forward single #
loop $-1 -1 $-1 $-1 $93 $44 #
cone-surface $-1 -1 $-1 0 -1.4210854715202004e-014 15.000000000000014 0 0 1 4.9999999999999991 0 0 1 I I 0 1 4.9999999999999991 forward I I I I #
model_id-kcp-attrib $-1 -1 $-1 $-1 $46 1 1021323984 1021323984 593428481 4 #
face $94 -1 $-1 $95 $96 $10 $-1 $97 reversed single #
loop $-1 -1 $-1 $-1 $98 $46 #
plane-surface $-1 -1 $-1 152.5 52.000000000000014 73.000000000000014 -1 0 0 0 0 0.99999999999999989 forward_v I I I I #
loop $-1 -1 $-1 $-1 $99 $37 #
coedge $-1 -1 $-1 $71 $71 $50 $73 forward $47 $-1 #
coedge $-1 -1 $-1 $72 $72 $100 $101 reversed $49 $-1 #
edge $102 -1 $-1 $103 -6.2831853071795862 $103 0 $71 $104 reversed @7 unknown #
face $-1 -1 $-1 $105 $106 $27 $-1 $107 reversed single #
loop $-1 -1 $-1 $-1 $108 $51 #
plane-surface $-1 -1 $-1 0 0 -25.001000000000005 0 0 1 1 0 0 forward_v I I I I #
coedge $-1 -1 $-1 $109 $110 $111 $112 forward $52 $-1 #
face $-1 -1 $-1 $113 $114 $29 $-1 $115 forward single #
loop $-1 -1 $-1 $-1 $116 $54 #
plane-surface $-1 -1 $-1 -2.5 4.3301270189221697 -15.000000000000014 -1 0 0 0 0 1 forward_v I I I I #
coedge $-1 -1 $-1 $117 $118 $119 $120 forward $55 $-1 #
face $-1 -1 $-1 $-1 $121 $31 $-1 $122 forward single #
loop $-1 -1 $-1 $-1 $123 $57 #
plane-surface $-1 -1 $-1 0 0 -40.000000000000014 0 0 -1 -1 0 0 forward_v I I I I #
loop $-1 -1 $-1 $-1 $124 $42 #
coedge $-1 -1 $-1 $86 $86 $123 $125 reversed $58 $-1 #
face $-1 -1 $-1 $126 $127 $33 $-1 $128 reversed single #
loop $-1 -1 $-1 $-1 $129 $60 #
coedge $-1 -1 $-1 $130 $131 $132 $133 reversed $61 $-1 #
face $-1 -1 $-1 $134 $135 $35 $-1 $136 forward single #
loop $-1 -1 $-1 $-1 $137 $63 #
plane-surface $-1 -1 $-1 2.5 4.3301270189221839 15.000000000000014 1 0 0 0 0 -1 forward_v I I I I #
coedge $-1 -1 $-1 $138 $139 $140 $141 forward $64 $-1 #
model_id-kcp-attrib $-1 -1 $-1 $-1 $67 1 1021323984 1021323984 593428481 5 #
face $142 -1 $-1 $143 $144 $10 $-1 $145 forward single #
loop $-1 -1 $-1 $-1 $146 $67 #
cone-surface $-1 -1 $-1 150 60 73 0 0 1 -4.9999999999999991 0 0 1 I I 0 1 4.9999999999999991 forward I I I I #
coedge $-1 -1 $-1 $147 $148 $149 $150 reversed $68 $-1 #
coedge $-1 -1 $-1 $99 $99 $151 $152 forward $70 $-1 #
coedge $-1 -1 $-1 $100 $100 $72 $101 forward $153 $-1 #
edge $154 -1 $-1 $155 -3.1415926535898007 $155 3.1415926535897856 $100 $156 forward @7 unknown #
attrib_edge_convexity-kcp-attrib $-1 -1 $157 $-1 $73 1 #
vertex $-1 -1 $-1 $73 $158 #
ellipse-curve $-1 -1 $-1 150 20.000000000000007 100.00000000000003 0 -1 0 0 0 7.5 1 I I #
face $-1 -1 $-1 $159 $160 $27 $-1 $161 reversed single #
loop $-1 -1 $-1 $-1 $162 $74 #
plane-surface $-1 -1 $-1 0 -40.000000000000014 0 0 1 0 0 0 1 forward_v I I I I #
coedge $-1 -1 $-1 $163 $164 $165 $166 forward $75 $-1 #
coedge $-1 -1 $-1 $167 $77 $168 $169 forward $52 $-1 #
coedge $-1 -1 $-1 $77 $167 $170 $171 forward $52 $-1 #
coedge $-1 -1 $-1 $172 $173 $77 $112 reversed $174 $-1 #
edge $-1 -1 $-1 $175 -40.000000000000014 $176 40.000000000000014 $111 $177 forward @7 unknown #
face $-1 -1 $-1 $178 $179 $29 $-1 $180 forward single #
loop $-1 -1 $-1 $-1 $181 $78 #
cone-surface $-1 -1 $-1 0 -2.8421709430404007e-014 -15.000000000000014 0 0 -1 -4.9999999999999991 0 0 1 I I 0 1 4.9999999999999991 forward I I I I #
coedge $-1 -1 $-1 $182 $183 $184 $185 forward $79 $-1 #
coedge $-1 -1 $-1 $186 $81 $183 $187 reversed $55 $-1 #
coedge $-1 -1 $-1 $81 $186 $188 $189 forward $55 $-1 #
coedge $-1 -1 $-1 $190 $184 $81 $120 reversed $191 $-1 #
edge $-1 -1 $-1 $192 -2.0943951023931948 $193 -1.0471975511965983 $81 $194 forward @7 unknown #
loop $-1 -1 $-1 $-1 $195 $82 #
plane-surface $-1 -1 $-1 0 0 40.000000000000014 0 0 1 1 0 0 forward_v I I I I #
coedge $-1 -1 $-1 $123 $123 $86 $125 forward $83 $-1 #
coedge $-1 -1 $-1 $124 $124 $195 $196 reversed $85 $-1 #
edge $-1 -1 $-1 $197 0 $197 6.2831853071795862 $123 $198 forward @7 unknown #
face $-1 -1 $-1 $199 $200 $33 $-1 $128 reversed single #
loop $-1 -1 $-1 $-1 $201 $87 #
plane-surface $-1 -1 $-1 0 40.000000000000014 0 0 -1 0 0 0 -1 forward_v I I I I #
coedge $-1 -1 $-1 $202 $203 $204 $205 reversed $88 $-1 #
coedge $-1 -1 $-1 $206 $89 $203 $207 forward $61 $-1 #
coedge $-1 -1 $-1 $89 $206 $208 $209 reversed $61 $-1 #
coedge $-1 -1 $-1 $210 $211 $89 $133 forward $212 $-1 #
edge $-1 -1 $-1 $213 1.6709637479564563 $214 4.8125564015462494 $132 $215 forward @7 unknown #
face $-1 -1 $-1 $216 $217 $35 $-1 $218 forward single #
loop $-1 -1 $-1 $-1 $219 $90 #
cone-surface $-1 -1 $-1 0 -1.4210854715202004e-014 15.000000000000014 0 0 1 4.9999999999999991 0 0 1 I I 0 1 4.9999999999999991 forward I I I I #
coedge $-1 -1 $-1 $220 $221 $222 $223 forward $91 $-1 #
coedge $-1 -1 $-1 $224 $93 $221 $225 reversed $64 $-1 #
coedge $-1 -1 $-1 $93 $224 $226 $227 forward $64 $-1 #
coedge $-1 -1 $-1 $228 $222 $93 $141 reversed $229 $-1 #
edge $-1 -1 $-1 $230 -2.0943951023931948 $231 -1.0471975511965983 $93 $232 forward @7 unknown #
model_id-kcp-attrib $-1 -1 $-1 $-1 $95 1 1021323984 1021323984 593428481 6 #
face $233 -1 $-1 $234 $235 $10 $-1 $97 reversed single #
loop $-1 -1 $-1 $-1 $236 $95 #
plane-surface $-1 -1 $-1 147.5 67.000000000000014 73.000000000000014 1 0 0 0 0 -0.99999999999999989 forward_v I I I I #
coedge $-1 -1 $-1 $237 $238 $239 $240 reversed $96 $-1 #
coedge $-1 -1 $-1 $241 $98 $242 $243 forward $68 $-1 #
coedge $-1 -1 $-1 $98 $241 $237 $244 forward $68 $-1 #
coedge $-1 -1 $-1 $239 $245 $98 $150 forward $246 $-1 #
edge $-1 -1 $-1 $247 -19.33012701892223 $248 -10.669872981077846 $149 $249 forward @7 unknown #
coedge $-1 -1 $-1 $151 $151 $99 $152 reversed $250 $-1 #
edge $251 -1 $-1 $252 0 $252 6.2831853071795862 $151 $253 forward @7 unknown #
loop $-1 -1 $-1 $254 $100 $255 #
attrib_edge_convexity-kcp-attrib $-1 -1 $256 $-1 $101 1 #
vertex $-1 -1 $-1 $101 $257 #
ellipse-curve $-1 -1 $-1 150.00000000383335 100.00000000000004 99.999999996166693 0 -1 0 -7.5000000000000018 0 0 1 I I #
convexity-sys-attrib $-1 -1 $-1 $102 $73 #
point $-1 -1 $-1 150 20.000000000000007 107.50000000000003 #
face $258 -1 $-1 $259 $260 $27 $-1 $261 reversed single #
loop $-1 -1 $-1 $-1 $262 $105 #
plane-surface $-1 -1 $-1 -25 0 0 1 0 0 0 0 -1 forward_v I I I I #
coedge $-1 -1 $-1 $263 $170 $264 $265 forward $106 $-1 #
coedge $-1 -1 $-1 $266 $108 $263 $267 forward $75 $-1 #
coedge $-1 -1 $-1 $108 $266 $268 $269 forward $75 $-1 #
coedge $-1 -1 $-1 $173 $172 $108 $166 reversed $174 $-1 #
edge $-1 -1 $-1 $270 -40.000000000000014 $271 40.000000000000014 $165 $272 forward @7 unknown #
coedge $-1 -1 $-1 $110 $109 $273 $274 forward $52 $-1 #
coedge $-1 -1 $-1 $275 $276 $109 $169 reversed $260 $-1 #
edge $-1 -1 $-1 $176 -25 $277 25 $168 $278 forward @7 unknown #
coedge $-1 -1 $-1 $162 $279 $110 $171 reversed $106 $-1 #
edge $-1 -1 $-1 $280 -25 $175 25 $170 $281 forward @7 unknown #
coedge $-1 -1 $-1 $165 $111 $279 $282 forward $174 $-1 #
coedge $-1 -1 $-1 $111 $165 $275 $283 reversed $174 $-1 #
loop $-1 -1 $-1 $-1 $172 $259 #
vertex $-1 -1 $-1 $112 $284 #
vertex $-1 -1 $-1 $112 $285 #
straight-curve $-1 -1 $-1 25 0 25.001000000000005 0 1 0 I I #
face $-1 -1 $-1 $286 $191 $29 $-1 $287 reversed single #
loop $-1 -1 $-1 $-1 $288 $113 #
plane-surface $-1 -1 $-1 2.5 -4.3301270189222123 -15.000000000000014 1 0 0 0 0 -1 forward_v I I I I #
coedge $-1 -1 $-1 $289 $290 $291 $292 forward $114 $-1 #
coedge $-1 -1 $-1 $293 $116 $290 $294 reversed $79 $-1 #
coedge $-1 -1 $-1 $116 $293 $117 $187 forward $79 $-1 #
coedge $-1 -1 $-1 $119 $291 $116 $185 reversed $191 $-1 #
edge $-1 -1 $-1 $193 -0.83012701892219098 $295 7.8301270189221981 $116 $296 forward @7 unknown #
coedge $-1 -1 $-1 $118 $117 $297 $298 reversed $55 $-1 #
edge $299 -1 $-1 $300 0 $193 9.8746859276654817 $183 $301 forward @7 unknown #
coedge $-1 -1 $-1 $302 $288 $118 $189 reversed $179 $-1 #
edge $303 -1 $-1 $304 0 $192 9.8746859276654817 $118 $305 forward @7 unknown #
coedge $-1 -1 $-1 $291 $119 $288 $306 reversed $191 $-1 #
loop $-1 -1 $-1 $-1 $119 $178 #
vertex $-1 -1 $-1 $189 $307 #
vertex $-1 -1 $-1 $187 $308 #
ellipse-curve $-1 -1 $-1 0 -2.8421709430404007e-014 -24.874685927665496 0 0 1 -4.9999999999999991 0 0 1 I I #
coedge $-1 -1 $-1 $195 $195 $124 $196 forward $121 $-1 #
edge $-1 -1 $-1 $309 0 $309 6.2831853071795862 $195 $310 forward @7 unknown #
vertex $-1 -1 $-1 $125 $311 #
ellipse-curve $-1 -1 $-1 0 0 -40.000000000000014 0 0 -1 7.5000000000000018 0 0 1 I I #
face $-1 -1 $-1 $312 $313 $33 $-1 $314 reversed single #
loop $-1 -1 $-1 $-1 $315 $126 #
coedge $-1 -1 $-1 $316 $317 $318 $319 forward $127 $-1 #
coedge $-1 -1 $-1 $318 $129 $131 $209 forward $88 $-1 #
coedge $-1 -1 $-1 $129 $318 $320 $207 reversed $88 $-1 #
coedge $-1 -1 $-1 $321 $322 $129 $205 forward $323 $-1 #
edge $-1 -1 $-1 $214 -1.4706289056333368 $213 1.6709637479564563 $204 $215 forward @7 unknown #
coedge $-1 -1 $-1 $131 $130 $315 $324 reversed $61 $-1 #
edge $-1 -1 $-1 $213 -80.000000000000028 $325 0 $320 $326 forward @7 unknown #
coedge $-1 -1 $-1 $327 $328 $329 $209 forward $330 $-1 #
edge $-1 -1 $-1 $214 -80.000000000000028 $331 0 $208 $332 forward @7 unknown #
coedge $-1 -1 $-1 $333 $132 $328 $334 forward $212 $-1 #
coedge $-1 -1 $-1 $132 $333 $335 $336 reversed $212 $-1 #
loop $-1 -1 $-1 $-1 $132 $337 #
vertex $-1 -1 $-1 $336 $338 #
vertex $-1 -1 $-1 $334 $339 #
ellipse-curve $-1 -1 $-1 0 -40.000000000000014 0 0 1 0 -2.4999999999999973 0 24.874685927665496 1 I I #
face $-1 -1 $-1 $340 $229 $35 $-1 $341 forward single #
loop $-1 -1 $-1 $-1 $342 $134 #
plane-surface $-1 -1 $-1 -2.5 -4.3301270189221981 15.000000000000014 -1 0 0 0 0 1 forward_v I I I I #
coedge $-1 -1 $-1 $343 $344 $345 $346 forward $135 $-1 #
coedge $-1 -1 $-1 $347 $137 $344 $348 reversed $91 $-1 #
coedge $-1 -1 $-1 $137 $347 $138 $225 forward $91 $-1 #
coedge $-1 -1 $-1 $140 $345 $137 $223 reversed $229 $-1 #
edge $-1 -1 $-1 $231 -0.83012701892219098 $349 7.8301270189221981 $137 $350 forward @7 unknown #
coedge $-1 -1 $-1 $139 $138 $351 $352 reversed $64 $-1 #
edge $353 -1 $-1 $354 0 $231 9.8746859276654817 $221 $355 forward @7 unknown #
coedge $-1 -1 $-1 $356 $342 $139 $227 reversed $217 $-1 #
edge $357 -1 $-1 $358 0 $230 9.8746859276654817 $139 $359 forward @7 unknown #
coedge $-1 -1 $-1 $345 $140 $342 $360 reversed $229 $-1 #
loop $-1 -1 $-1 $-1 $140 $216 #
vertex $-1 -1 $-1 $227 $361 #
vertex $-1 -1 $-1 $225 $362 #
ellipse-curve $-1 -1 $-1 0 -1.4210854715202004e-014 24.874685927665496 0 0 -1 4.9999999999999991 0 0 1 I I #
model_id-kcp-attrib $-1 -1 $-1 $-1 $143 1 1021323984 1021323984 593428481 7 #
face $363 -1 $-1 $364 $365 $10 $-1 $366 forward single #
loop $-1 -1 $-1 $-1 $367 $143 #
coedge $-1 -1 $-1 $368 $369 $370 $371 reversed $144 $-1 #
coedge $-1 -1 $-1 $372 $146 $148 $244 reversed $96 $-1 #
coedge $-1 -1 $-1 $146 $372 $368 $373 reversed $96 $-1 #
coedge $-1 -1 $-1 $370 $149 $146 $240 forward $246 $-1 #
edge $-1 -1 $-1 $248 5.0498365572064294 $374 10.061550285881431 $239 $375 forward @7 unknown #
coedge $-1 -1 $-1 $148 $147 $376 $377 forward $68 $-1 #
coedge $-1 -1 $-1 $367 $378 $147 $243 reversed $235 $-1 #
edge $-1 -1 $-1 $247 2.125314072334533 $379 12.000000000000016 $242 $380 forward @7 unknown #
edge $-1 -1 $-1 $381 -12.000000000000016 $248 -2.125314072334533 $237 $382 forward @7 unknown #
coedge $-1 -1 $-1 $149 $370 $367 $383 forward $246 $-1 #
loop $-1 -1 $-1 $384 $370 $385 #
vertex $-1 -1 $-1 $383 $386 #
vertex $-1 -1 $-1 $240 $387 #
straight-curve $-1 -1 $-1 152.5 75.000000000000043 75.125314072334533 0 0.99999999999999989 0 I I #
loop $-1 -1 $-1 $388 $151 $385 #
attrib_edge_convexity-kcp-attrib $-1 -1 $389 $-1 $152 1 #
vertex $-1 -1 $-1 $152 $390 #
ellipse-curve $-1 -1 $-1 150 50.000000000000043 100.00000000000003 0 -1 0 0 0 25 1 I I #
loop $-1 -1 $-1 $-1 $391 $255 #
face $392 -1 $-1 $-1 $153 $10 $-1 $393 forward single #
convexity-sys-attrib $-1 -1 $-1 $154 $101 #
point $-1 -1 $-1 157.50000000383335 100.00000000000004 99.999999996166636 #
model_id-kcp-attrib $-1 -1 $-1 $-1 $159 1 1021323984 1021323984 594083842 2 #
face $-1 -1 $-1 $-1 $174 $27 $-1 $394 reversed single #
loop $-1 -1 $-1 $-1 $275 $159 #
plane-surface $-1 -1 $-1 0 40.000000000000014 0 0 -1 0 0 0 -1 forward_v I I I I #
coedge $-1 -1 $-1 $395 $273 $276 $396 forward $160 $-1 #
coedge $-1 -1 $-1 $279 $162 $163 $267 reversed $106 $-1 #
coedge $-1 -1 $-1 $273 $395 $162 $265 reversed $160 $-1 #
edge $-1 -1 $-1 $280 -25.001000000000005 $397 25.001000000000005 $264 $398 forward @7 unknown #
coedge $-1 -1 $-1 $164 $163 $395 $399 forward $75 $-1 #
edge $-1 -1 $-1 $271 -25 $397 25 $263 $400 forward @7 unknown #
coedge $-1 -1 $-1 $276 $275 $164 $269 reversed $260 $-1 #
edge $-1 -1 $-1 $401 -25 $270 25 $268 $402 forward @7 unknown #
vertex $-1 -1 $-1 $166 $403 #
vertex $-1 -1 $-1 $282 $404 #
straight-curve $-1 -1 $-1 25 0 -25.001000000000005 0 -1 0 I I #
coedge $-1 -1 $-1 $262 $264 $167 $274 reversed $160 $-1 #
edge $-1 -1 $-1 $277 -40.000000000000014 $280 40.000000000000014 $273 $405 forward @7 unknown #
coedge $-1 -1 $-1 $268 $168 $173 $283 forward $260 $-1 #
coedge $-1 -1 $-1 $168 $268 $262 $396 reversed $260 $-1 #
vertex $-1 -1 $-1 $169 $406 #
straight-curve $-1 -1 $-1 0 40.000000000000014 25.001000000000005 -1 0 0 I I #
coedge $-1 -1 $-1 $170 $263 $172 $282 reversed $106 $-1 #
vertex $-1 -1 $-1 $274 $407 #
straight-curve $-1 -1 $-1 0 -40.000000000000014 25.001000000000005 1 0 0 I I #
edge $-1 -1 $-1 $175 -25.001000000000005 $271 25.001000000000005 $172 $408 forward @7 unknown #
edge $-1 -1 $-1 $176 -25.001000000000005 $270 25.001000000000005 $173 $409 forward @7 unknown #
point $-1 -1 $-1 25 -40.000000000000014 25.001000000000005 #
point $-1 -1 $-1 25 40.000000000000014 25.001000000000005 #
face $-1 -1 $-1 $-1 $410 $29 $-1 $411 forward single #
plane-surface $-1 -1 $-1 -5.0493615615756767e-016 -2.7311486405778851e-014 -24.874685927665492 -2.8005575796791396e-031 -1.8386726304836761e-031 1 1 0 2.8005575796791396e-031 forward_v I I I I #
coedge $-1 -1 $-1 $188 $412 $190 $306 forward $179 $-1 #
coedge $-1 -1 $-1 $413 $181 $412 $414 reversed $114 $-1 #
coedge $-1 -1 $-1 $181 $413 $182 $294 forward $114 $-1 #
coedge $-1 -1 $-1 $184 $190 $181 $292 reversed $191 $-1 #
edge $-1 -1 $-1 $295 1.0471975511965974 $415 2.0943951023931966 $181 $416 forward @7 unknown #
coedge $-1 -1 $-1 $183 $182 $417 $418 reversed $79 $-1 #
edge $419 -1 $-1 $420 0 $295 9.8746859276654817 $290 $421 forward @7 unknown #
vertex $-1 -1 $-1 $294 $422 #
straight-curve $-1 -1 $-1 -2.5 3.4999999999999787 -24.874685927665496 0 -1 0 I I #
coedge $-1 -1 $-1 $417 $423 $186 $298 forward $410 $-1 #
edge $424 -1 $-1 $304 -2.0943951023931948 $300 -1.0471975511965983 $186 $425 forward @7 unknown #
convexity-sys-attrib $-1 -1 $-1 $-1 $187 #
vertex $-1 -1 $-1 $298 $426 #
straight-curve $-1 -1 $-1 -2.5 4.3301270189221697 -15.000000000000014 0 0 -1 I I #
coedge $-1 -1 $-1 $412 $188 $423 $427 reversed $179 $-1 #
convexity-sys-attrib $-1 -1 $-1 $-1 $189 #
vertex $-1 -1 $-1 $427 $428 #
straight-curve $-1 -1 $-1 2.5 4.3301270189221697 -15.000000000000014 0 0 -1 I I #
edge $-1 -1 $-1 $415 -0.33012701892219098 $192 8.330127018922191 $288 $429 forward @7 unknown #
point $-1 -1 $-1 2.5 4.3301270189221697 -24.874685927665496 #
point $-1 -1 $-1 -2.5 4.3301270189221697 -24.874685927665496 #
vertex $-1 -1 $-1 $196 $430 #
ellipse-curve $-1 -1 $-1 0 0 40.000000000000014 0 0 1 7.5000000000000018 0 0 1 I I #
point $-1 -1 $-1 7.5000000000000018 0 -40.000000000000014 #
face $-1 -1 $-1 $431 $432 $33 $-1 $433 reversed single #
loop $-1 -1 $-1 $-1 $329 $199 #
plane-surface $-1 -1 $-1 -25 0 0 1 0 0 0 0 -1 forward_v I I I I #
coedge $-1 -1 $-1 $434 $435 $206 $324 forward $200 $-1 #
coedge $-1 -1 $-1 $436 $201 $437 $438 reversed $127 $-1 #
coedge $-1 -1 $-1 $201 $436 $439 $440 forward $127 $-1 #
coedge $-1 -1 $-1 $203 $202 $201 $319 reversed $88 $-1 #
edge $-1 -1 $-1 $325 -1.6709637479564563 $331 1.4706289056333368 $201 $441 forward @7 unknown #
coedge $-1 -1 $-1 $439 $442 $443 $207 forward $444 $-1 #
coedge $-1 -1 $-1 $445 $204 $442 $446 reversed $323 $-1 #
coedge $-1 -1 $-1 $204 $445 $447 $448 forward $323 $-1 #
loop $-1 -1 $-1 $-1 $204 $431 #
edge $-1 -1 $-1 $331 1.4706289056333368 $325 4.6122215592231299 $315 $441 forward @7 unknown #
vertex $-1 -1 $-1 $449 $450 #
straight-curve $-1 -1 $-1 25 40.000000000000014 0 0 1 0 I I #
coedge $-1 -1 $-1 $451 $208 $435 $452 forward $330 $-1 #
coedge $-1 -1 $-1 $208 $451 $210 $334 reversed $330 $-1 #
coedge $-1 -1 $-1 $447 $437 $202 $209 reversed $313 $-1 #
loop $-1 -1 $-1 $-1 $208 $453 #
vertex $-1 -1 $-1 $452 $454 #
straight-curve $-1 -1 $-1 -25 40.000000000000014 0 0 1 0 I I #
coedge $-1 -1 $-1 $211 $210 $455 $456 reversed $212 $-1 #
edge $-1 -1 $-1 $214 0 $457 25.001000000000005 $328 $458 forward @7 unknown #
coedge $-1 -1 $-1 $459 $443 $211 $336 forward $432 $-1 #
edge $-1 -1 $-1 $213 0 $460 25.001000000000005 $335 $461 forward @7 unknown #
face $-1 -1 $-1 $462 $212 $33 $-1 $463 reversed single #
point $-1 -1 $-1 25 -40.000000000000014 0 #
point $-1 -1 $-1 -25 -40.000000000000014 0 #
face $-1 -1 $-1 $-1 $464 $35 $-1 $465 reversed single #
plane-surface $-1 -1 $-1 5.0493615615756767e-016 -1.3100631690576847e-014 24.874685927665492 -2.8005575796791396e-031 1.8386726304836761e-031 1 1 0 2.8005575796791396e-031 forward_v I I I I #
coedge $-1 -1 $-1 $226 $466 $228 $360 forward $217 $-1 #
coedge $-1 -1 $-1 $467 $219 $466 $468 reversed $135 $-1 #
coedge $-1 -1 $-1 $219 $467 $220 $348 forward $135 $-1 #
coedge $-1 -1 $-1 $222 $228 $219 $346 reversed $229 $-1 #
edge $-1 -1 $-1 $349 1.0471975511965974 $469 2.0943951023931966 $219 $470 forward @7 unknown #
coedge $-1 -1 $-1 $221 $220 $471 $472 reversed $91 $-1 #
edge $473 -1 $-1 $474 0 $349 9.8746859276654817 $344 $475 forward @7 unknown #
vertex $-1 -1 $-1 $348 $476 #
straight-curve $-1 -1 $-1 2.5 3.4999999999999929 24.874685927665496 0 -1 0 I I #
coedge $-1 -1 $-1 $471 $477 $224 $352 forward $464 $-1 #
edge $478 -1 $-1 $358 -2.0943951023931948 $354 -1.0471975511965983 $224 $479 forward @7 unknown #
convexity-sys-attrib $-1 -1 $-1 $-1 $225 #
vertex $-1 -1 $-1 $352 $480 #
straight-curve $-1 -1 $-1 2.5 4.3301270189221839 15.000000000000014 0 0 1 I I #
coedge $-1 -1 $-1 $466 $226 $477 $481 reversed $217 $-1 #
convexity-sys-attrib $-1 -1 $-1 $-1 $227 #
vertex $-1 -1 $-1 $481 $482 #
straight-curve $-1 -1 $-1 -2.5 4.3301270189221839 15.000000000000014 0 0 1 I I #
edge $-1 -1 $-1 $469 -0.33012701892219098 $230 8.330127018922191 $342 $483 forward @7 unknown #
point $-1 -1 $-1 -2.5 4.3301270189221839 24.874685927665496 #
point $-1 -1 $-1 2.5 4.3301270189221839 24.874685927665496 #
model_id-kcp-attrib $-1 -1 $-1 $-1 $234 1 1021323984 1021323984 593428481 8 #
face $484 -1 $-1 $485 $486 $10 $-1 $487 forward single #
loop $-1 -1 $-1 $-1 $488 $234 #
plane-surface $-1 -1 $-1 145 60 85.000000000000014 0 0 -1 -0.99999999999999989 0 0 forward_v I I I I #
coedge $-1 -1 $-1 $489 $242 $245 $383 reversed $235 $-1 #
coedge $-1 -1 $-1 $490 $236 $238 $373 forward $144 $-1 #
coedge $-1 -1 $-1 $236 $490 $489 $491 forward $144 $-1 #
coedge $-1 -1 $-1 $245 $239 $236 $371 forward $246 $-1 #
edge $-1 -1 $-1 $374 10.669872981077846 $492 19.330127018922237 $370 $493 forward @7 unknown #
coedge $-1 -1 $-1 $238 $237 $494 $495 reversed $96 $-1 #
edge $-1 -1 $-1 $374 2.125314072334533 $496 12.000000000000016 $238 $497 forward @7 unknown #
vertex $-1 -1 $-1 $371 $498 #
intcurve-curve $-1 -1 $-1 forward { surfintcur full nubs 3 open 7 
	5.0498365572064294 3 5.6668229902229612 2 6.6112582058834626 2 7.555693421543964 2 8.5001286372044653 2 
	9.4445638528649667 2 10.061550285881431 3 
	152.5 64.330127018922198 75.125314072334533 
	152.31254890851918 64.438351957048539 75.106474528789548 
	152.11688582517553 64.534997405961192 75.088968693864189 
	151.607918474304 64.746122460315334 75.049851086336176 
	151.28665737382769 64.842834797940654 75.031035764712982 
	150.64010726564081 64.969788603785005 75.006102247365547 
	150.31481173855346 65 75.000000000000028 
	149.68518826144646 65 75.000000000000028 
	149.35989273435914 64.969788603784991 75.006102247365547 
	148.71334262617225 64.842834797940625 75.031035764712982 
	148.39208152569594 64.74612246031532 75.04985108633619 
	147.88311417482444 64.534997405961164 75.088968693864189 
	147.6874510914808 64.438351957048525 75.106474528789548 
	147.5 64.330127018922198 75.125314072334533 
	0.0009999999999999998 
	cone 150 60 73 0 0 1 -4.9999999999999991 0 0 1 I I 0 1 4.9999999999999991 forward I I I I 
	cone 150 75.000000000000043 100.00000000000003 0 1 0 0 0 25 1 I I 0 1 25 forward I I I I 
	nullbs 
	nullbs 
	I I 
	0 
	0 
	0 
	} I I #
coedge $-1 -1 $-1 $499 $494 $241 $377 reversed $365 $-1 #
edge $500 -1 $-1 $379 -0.33012701892219104 $381 8.3301270189221928 $376 $501 forward @7 unknown #
coedge $-1 -1 $-1 $242 $489 $499 $502 reversed $235 $-1 #
vertex $-1 -1 $-1 $502 $503 #
straight-curve $-1 -1 $-1 152.5 55.669872981077816 73 0 0 0.99999999999999989 I I #
vertex $-1 -1 $-1 $244 $504 #
straight-curve $-1 -1 $-1 152.5 64.330127018922198 73 0 0 -0.99999999999999989 I I #
edge $-1 -1 $-1 $492 20.161223400294297 $247 25.172937128969291 $245 $505 forward @7 unknown #
loop $-1 -1 $-1 $250 $506 $385 #
face $507 -1 $-1 $255 $246 $10 $-1 $508 forward single #
point $-1 -1 $-1 152.5 55.669872981077816 75.125314072334533 #
point $-1 -1 $-1 152.5 64.330127018922198 75.125314072334533 #
loop $-1 -1 $-1 $-1 $509 $385 #
convexity-sys-attrib $-1 -1 $-1 $251 $152 #
point $-1 -1 $-1 150 50.000000000000043 125.00000000000003 #
coedge $-1 -1 $-1 $391 $391 $509 $510 forward $254 $-1 #
model_id-kcp-attrib $-1 -1 $-1 $-1 $255 1 1021323984 1021323984 593428481 15 #
plane-surface $-1 -1 $-1 150 100.00000000000004 100.00000000000003 0 1 0 0 0 0.99999999999999989 forward_v I I I I #
plane-surface $-1 -1 $-1 25 0 0 -1 0 0 0 0 1 forward_v I I I I #
coedge $-1 -1 $-1 $264 $262 $266 $399 reversed $160 $-1 #
edge $-1 -1 $-1 $277 -25.001000000000005 $401 25.001000000000005 $276 $511 forward @7 unknown #
vertex $-1 -1 $-1 $399 $512 #
straight-curve $-1 -1 $-1 -25 -40.000000000000014 0 0 0 -1 I I #
edge $-1 -1 $-1 $397 -40.000000000000014 $401 40.000000000000014 $395 $513 forward @7 unknown #
straight-curve $-1 -1 $-1 0 -40.000000000000014 -25.001000000000005 -1 0 0 I I #
vertex $-1 -1 $-1 $269 $514 #
straight-curve $-1 -1 $-1 0 40.000000000000014 -25.001000000000005 1 0 0 I I #
point $-1 -1 $-1 25 40.000000000000014 -25.001000000000005 #
point $-1 -1 $-1 25 -40.000000000000014 -25.001000000000005 #
straight-curve $-1 -1 $-1 -25 0 25.001000000000005 0 -1 0 I I #
point $-1 -1 $-1 -25 40.000000000000014 25.001000000000005 #
point $-1 -1 $-1 -25 -40.000000000000014 25.001000000000005 #
straight-curve $-1 -1 $-1 25 -40.000000000000014 0 0 0 -1 I I #
straight-curve $-1 -1 $-1 25 40.000000000000014 0 0 0 -1 I I #
loop $-1 -1 $-1 $-1 $423 $286 #
plane-surface $-1 -1 $-1 -5.0493615615756767e-016 -2.7311486405778851e-014 -15.000000000000011 -2.8005575796791396e-031 -1.8386726304836761e-031 1 1 0 2.8005575796791396e-031 forward_v I I I I #
coedge $-1 -1 $-1 $288 $302 $289 $414 forward $179 $-1 #
coedge $-1 -1 $-1 $290 $289 $515 $516 reversed $114 $-1 #
edge $517 -1 $-1 $518 0 $415 9.8746859276654817 $412 $519 forward @7 unknown #
vertex $-1 -1 $-1 $414 $520 #
ellipse-curve $-1 -1 $-1 0 -2.8421709430404007e-014 -24.874685927665496 0 0 1 -4.9999999999999991 0 0 1 I I #
coedge $-1 -1 $-1 $515 $297 $293 $418 forward $410 $-1 #
edge $521 -1 $-1 $300 -0.83012701892219098 $420 7.8301270189221981 $293 $522 forward @7 unknown #
convexity-sys-attrib $-1 -1 $-1 $-1 $294 #
vertex $-1 -1 $-1 $418 $523 #
straight-curve $-1 -1 $-1 -2.5 -4.3301270189222194 -15.000000000000014 0 0 -1 I I #
point $-1 -1 $-1 -2.5 -4.3301270189222194 -24.874685927665496 #
coedge $-1 -1 $-1 $297 $515 $302 $427 forward $410 $-1 #
convexity-sys-attrib $-1 -1 $-1 $-1 $298 #
ellipse-curve $-1 -1 $-1 0 -2.8421709430404007e-014 -15.000000000000014 0 0 1 -4.9999999999999991 0 0 1 I I #
point $-1 -1 $-1 -2.5 4.3301270189221697 -15.000000000000014 #
edge $524 -1 $-1 $518 -0.33012701892219098 $304 8.330127018922191 $302 $525 forward @7 unknown #
point $-1 -1 $-1 2.5 4.3301270189221697 -15.000000000000014 #
straight-curve $-1 -1 $-1 2.5 -4.0000000000000213 -24.874685927665496 0 1 0 I I #
point $-1 -1 $-1 7.5000000000000018 0 40.000000000000014 #
face $-1 -1 $-1 $337 $323 $33 $-1 $463 reversed single #
loop $-1 -1 $-1 $-1 $443 $312 #
plane-surface $-1 -1 $-1 25 0 0 -1 0 0 0 0 1 forward_v I I I I #
coedge $-1 -1 $-1 $526 $315 $527 $449 forward $200 $-1 #
coedge $-1 -1 $-1 $315 $526 $327 $452 reversed $200 $-1 #
coedge $-1 -1 $-1 $317 $316 $528 $529 reversed $127 $-1 #
coedge $-1 -1 $-1 $329 $530 $316 $438 forward $313 $-1 #
edge $-1 -1 $-1 $531 -25.001000000000005 $331 0 $316 $532 forward @7 unknown #
coedge $-1 -1 $-1 $533 $320 $317 $440 reversed $444 $-1 #
edge $-1 -1 $-1 $534 -25.001000000000005 $325 0 $439 $535 forward @7 unknown #
ellipse-curve $-1 -1 $-1 0 40.000000000000014 0 0 -1 0 -2.4999999999999973 0 24.874685927665496 1 I I #
coedge $-1 -1 $-1 $320 $533 $321 $446 forward $444 $-1 #
coedge $-1 -1 $-1 $335 $527 $130 $207 reversed $432 $-1 #
loop $-1 -1 $-1 $-1 $320 $536 #
coedge $-1 -1 $-1 $322 $321 $537 $538 reversed $323 $-1 #
edge $-1 -1 $-1 $539 -25.001000000000005 $213 0 $442 $461 forward @7 unknown #
coedge $-1 -1 $-1 $530 $329 $322 $448 reversed $313 $-1 #
edge $-1 -1 $-1 $540 -25.001000000000005 $214 0 $447 $458 forward @7 unknown #
edge $-1 -1 $-1 $325 0 $541 25.001000000000005 $527 $535 forward @7 unknown #
point $-1 -1 $-1 25 40.000000000000014 0 #
coedge $-1 -1 $-1 $328 $327 $542 $543 reversed $330 $-1 #
edge $-1 -1 $-1 $331 0 $544 25.001000000000005 $435 $532 forward @7 unknown #
face $-1 -1 $-1 $536 $330 $33 $-1 $314 reversed single #
point $-1 -1 $-1 -25 40.000000000000014 0 #
coedge $-1 -1 $-1 $542 $545 $333 $456 forward $546 $-1 #
edge $-1 -1 $-1 $460 -25 $457 25 $333 $547 forward @7 unknown #
vertex $-1 -1 $-1 $543 $548 #
straight-curve $-1 -1 $-1 -25 -40.000000000000014 0 0 0 -1 I I #
coedge $-1 -1 $-1 $527 $335 $545 $549 reversed $432 $-1 #
vertex $-1 -1 $-1 $336 $550 #
straight-curve $-1 -1 $-1 25 -40.000000000000014 0 0 0 -1 I I #
face $-1 -1 $-1 $551 $552 $33 $-1 $553 forward single #
plane-surface $-1 -1 $-1 0 -40.000000000000014 0 0 1 0 0 0 1 forward_v I I I I #
loop $-1 -1 $-1 $-1 $477 $340 #
plane-surface $-1 -1 $-1 5.0493615615756767e-016 -1.3100631690576847e-014 15.000000000000011 -2.8005575796791396e-031 1.8386726304836761e-031 1 1 0 2.8005575796791396e-031 forward_v I I I I #
coedge $-1 -1 $-1 $342 $356 $343 $468 forward $217 $-1 #
coedge $-1 -1 $-1 $344 $343 $554 $555 reversed $135 $-1 #
edge $556 -1 $-1 $557 0 $469 9.8746859276654817 $466 $558 forward @7 unknown #
vertex $-1 -1 $-1 $468 $559 #
ellipse-curve $-1 -1 $-1 0 -1.4210854715202004e-014 24.874685927665496 0 0 -1 4.9999999999999991 0 0 1 I I #
coedge $-1 -1 $-1 $554 $351 $347 $472 forward $464 $-1 #
edge $560 -1 $-1 $354 -0.83012701892219098 $474 7.8301270189221981 $347 $561 forward @7 unknown #
convexity-sys-attrib $-1 -1 $-1 $-1 $348 #
vertex $-1 -1 $-1 $472 $562 #
straight-curve $-1 -1 $-1 2.5 -4.3301270189222052 15.000000000000014 0 0 1 I I #
point $-1 -1 $-1 2.5 -4.3301270189222052 24.874685927665496 #
coedge $-1 -1 $-1 $351 $554 $356 $481 forward $464 $-1 #
convexity-sys-attrib $-1 -1 $-1 $-1 $352 #
ellipse-curve $-1 -1 $-1 0 -1.4210854715202004e-014 15.000000000000014 0 0 -1 4.9999999999999991 0 0 1 I I #
point $-1 -1 $-1 2.5 4.3301270189221839 15.000000000000014 #
edge $563 -1 $-1 $557 -0.33012701892219098 $358 8.330127018922191 $356 $564 forward @7 unknown #
point $-1 -1 $-1 -2.5 4.3301270189221839 15.000000000000014 #
straight-curve $-1 -1 $-1 -2.5 -4.0000000000000071 24.874685927665496 0 1 0 I I #
model_id-kcp-attrib $-1 -1 $-1 $-1 $364 1 1021323984 1021323984 593428481 9 #
face $565 -1 $-1 $566 $567 $10 $-1 $568 reversed single #
loop $-1 -1 $-1 $-1 $569 $364 #
plane-surface $-1 -1 $-1 147.5 52.000000000000028 127.00000000000004 1 0 0 0 0 -0.99999999999999989 forward_v I I I I #
coedge $-1 -1 $-1 $494 $499 $490 $570 reversed $365 $-1 #
coedge $-1 -1 $-1 $378 $367 $369 $491 reversed $235 $-1 #
coedge $-1 -1 $-1 $369 $368 $488 $570 forward $144 $-1 #
edge $-1 -1 $-1 $571 -12.000000000000016 $492 -2.125314072334533 $489 $572 forward @7 unknown #
vertex $-1 -1 $-1 $371 $573 #
straight-curve $-1 -1 $-1 147.5 75.000000000000043 75.125314072334533 0 -0.99999999999999989 0 I I #
coedge $-1 -1 $-1 $376 $488 $372 $495 forward $365 $-1 #
edge $574 -1 $-1 $496 1.0471975511965983 $381 2.0943951023931948 $372 $575 forward @7 unknown #
vertex $-1 -1 $-1 $495 $576 #
straight-curve $-1 -1 $-1 147.5 64.330127018922198 73 0 0 0.99999999999999989 I I #
point $-1 -1 $-1 147.5 64.330127018922198 75.125314072334533 #
coedge $-1 -1 $-1 $488 $376 $378 $502 forward $365 $-1 #
attrib_edge_convexity-kcp-attrib $-1 -1 $577 $-1 $377 2 #
straight-curve $-1 -1 $-1 152.5 56.000000000000007 85.000000000000014 0 0.99999999999999989 0 I I #
edge $578 -1 $-1 $379 -2.0943951023931966 $571 -1.0471975511965974 $378 $575 forward @7 unknown #
point $-1 -1 $-1 152.5 55.669872981077816 85.000000000000014 #
point $-1 -1 $-1 152.5 64.330127018922198 85.000000000000014 #
intcurve-curve $-1 -1 $-1 forward { surfintcur full nubs 3 open 7 
	20.161223400294297 3 20.778209833310864 2 21.722645048971359 2 22.667080264631856 2 23.611515480292354 2 
	24.555950695952848 2 25.172937128969291 3 
	147.5 55.669872981077809 75.125314072334533 
	147.68745109148082 55.561648042951461 75.106474528789548 
	147.8831141748245 55.465002594038808 75.088968693864189 
	148.39208152569603 55.253877539684652 75.049851086336176 
	148.71334262617233 55.157165202059346 75.031035764712982 
	149.35989273435922 55.030211396215009 75.006102247365547 
	149.68518826144657 55 75.000000000000028 
	150.31481173855357 55.000000000000007 75.000000000000028 
	150.64010726564092 55.030211396215023 75.006102247365547 
	151.28665737382778 55.157165202059389 75.031035764712982 
	151.60791847430409 55.253877539684702 75.04985108633619 
	152.11688582517559 55.46500259403885 75.088968693864189 
	152.3125489085192 55.561648042951489 75.106474528789548 
	152.5 55.669872981077816 75.125314072334533 
	0.0009999999999999998 
	cone 150 60 73 0 0 1 -4.9999999999999991 0 0 1 I I 0 1 4.9999999999999991 forward I I I I 
	cone 150 75.000000000000043 100.00000000000003 0 1 0 0 0 25 1 I I 0 1 25 forward I I I I 
	nullbs 
	nullbs 
	I I 
	0 
	0 
	0 
	} I I #
coedge $-1 -1 $-1 $579 $580 $581 $582 forward $384 $-1 #
model_id-kcp-attrib $-1 -1 $-1 $-1 $385 1 1021323984 1021323984 593428481 14 #
cone-surface $-1 -1 $-1 150 75.000000000000043 100.00000000000003 0 1 0 0 0 25 1 I I 0 1 25 forward I I I I #
coedge $-1 -1 $-1 $509 $509 $391 $510 reversed $388 $-1 #
edge $583 -1 $-1 $584 0 $584 6.2831853071795862 $391 $585 forward @7 unknown #
straight-curve $-1 -1 $-1 -25 40.000000000000014 0 0 0 -1 I I #
point $-1 -1 $-1 -25 -40.000000000000014 -25.001000000000005 #
straight-curve $-1 -1 $-1 -25 0 -25.001000000000005 0 1 0 I I #
point $-1 -1 $-1 -25 40.000000000000014 -25.001000000000005 #
coedge $-1 -1 $-1 $423 $417 $413 $516 forward $410 $-1 #
edge $586 -1 $-1 $420 1.0471975511965974 $518 2.0943951023931966 $413 $587 forward @7 unknown #
convexity-sys-attrib $-1 -1 $-1 $-1 $414 #
vertex $-1 -1 $-1 $427 $588 #
straight-curve $-1 -1 $-1 2.5 -4.3301270189222123 -15.000000000000014 0 0 -1 I I #
point $-1 -1 $-1 2.5 -4.3301270189222123 -24.874685927665496 #
convexity-sys-attrib $-1 -1 $-1 $-1 $418 #
straight-curve $-1 -1 $-1 -2.5 3.4999999999999787 -15.000000000000014 0 -1 0 I I #
point $-1 -1 $-1 -2.5 -4.3301270189222194 -15.000000000000014 #
convexity-sys-attrib $-1 -1 $-1 $-1 $427 #
straight-curve $-1 -1 $-1 2.5 -4.0000000000000213 -15.000000000000014 0 1 0 I I #
coedge $-1 -1 $-1 $435 $434 $589 $590 reversed $200 $-1 #
coedge $-1 -1 $-1 $443 $459 $434 $449 reversed $432 $-1 #
coedge $-1 -1 $-1 $591 $592 $436 $529 forward $552 $-1 #
edge $-1 -1 $-1 $534 -25 $531 25 $436 $593 forward @7 unknown #
coedge $-1 -1 $-1 $437 $447 $591 $594 reversed $313 $-1 #
vertex $-1 -1 $-1 $529 $595 #
straight-curve $-1 -1 $-1 -25 40.000000000000014 0 0 0 -1 I I #
coedge $-1 -1 $-1 $442 $439 $592 $596 reversed $444 $-1 #
vertex $-1 -1 $-1 $596 $597 #
straight-curve $-1 -1 $-1 25 40.000000000000014 0 0 0 -1 I I #
face $-1 -1 $-1 $-1 $444 $33 $-1 $433 reversed single #
coedge $-1 -1 $-1 $592 $591 $445 $538 forward $552 $-1 #
edge $-1 -1 $-1 $540 -25 $539 25 $445 $598 forward @7 unknown #
vertex $-1 -1 $-1 $596 $599 #
vertex $-1 -1 $-1 $594 $600 #
vertex $-1 -1 $-1 $549 $601 #
coedge $-1 -1 $-1 $589 $455 $451 $543 forward $546 $-1 #
edge $-1 -1 $-1 $457 -40.000000000000014 $544 40.000000000000014 $451 $602 forward @7 unknown #
vertex $-1 -1 $-1 $590 $603 #
coedge $-1 -1 $-1 $455 $589 $459 $549 forward $546 $-1 #
loop $-1 -1 $-1 $-1 $545 $551 #
straight-curve $-1 -1 $-1 0 -40.000000000000014 -25.001000000000005 -1 0 0 I I #
point $-1 -1 $-1 -25 -40.000000000000014 -25.001000000000005 #
edge $-1 -1 $-1 $541 -40.000000000000014 $460 40.000000000000014 $459 $604 forward @7 unknown #
point $-1 -1 $-1 25 -40.000000000000014 -25.001000000000005 #
face $-1 -1 $-1 $453 $546 $33 $-1 $605 reversed single #
loop $-1 -1 $-1 $-1 $592 $462 #
plane-surface $-1 -1 $-1 0 0 25.001000000000005 0 0 1 1 0 0 forward_v I I I I #
coedge $-1 -1 $-1 $477 $471 $467 $555 forward $464 $-1 #
edge $606 -1 $-1 $474 1.0471975511965974 $557 2.0943951023931966 $467 $607 forward @7 unknown #
convexity-sys-attrib $-1 -1 $-1 $-1 $468 #
vertex $-1 -1 $-1 $481 $608 #
straight-curve $-1 -1 $-1 -2.5 -4.3301270189221981 15.000000000000014 0 0 1 I I #
point $-1 -1 $-1 -2.5 -4.3301270189221981 24.874685927665496 #
convexity-sys-attrib $-1 -1 $-1 $-1 $472 #
straight-curve $-1 -1 $-1 2.5 3.4999999999999929 15.000000000000014 0 -1 0 I I #
point $-1 -1 $-1 2.5 -4.3301270189222052 15.000000000000014 #
convexity-sys-attrib $-1 -1 $-1 $-1 $481 #
straight-curve $-1 -1 $-1 -2.5 -4.0000000000000071 15.000000000000014 0 1 0 I I #
model_id-kcp-attrib $-1 -1 $-1 $-1 $485 1 1021323984 1021323984 593428481 10 #
face $609 -1 $-1 $610 $611 $10 $-1 $612 forward single #
loop $-1 -1 $-1 $-1 $613 $485 #
cone-surface $-1 -1 $-1 150 60.000000000000014 127.00000000000006 0 0 -1 4.9999999999999991 0 0 1 I I 0 1 4.9999999999999991 forward I I I I #
coedge $-1 -1 $-1 $614 $615 $616 $617 reversed $486 $-1 #
edge $618 -1 $-1 $496 -0.8301270189221911 $571 7.830127018922199 $488 $619 forward @7 unknown #
vertex $-1 -1 $-1 $570 $620 #
straight-curve $-1 -1 $-1 147.5 55.669872981077809 73 0 0 -0.99999999999999989 I I #
point $-1 -1 $-1 147.5 55.669872981077809 75.125314072334533 #
attrib_edge_convexity-kcp-attrib $-1 -1 $621 $-1 $495 2 #
ellipse-curve $-1 -1 $-1 150 60 85.000000000000014 0 0 -1 -4.9999999999999991 0 0 1 I I #
point $-1 -1 $-1 147.5 64.330127018922198 85.000000000000014 #
convexity-sys-attrib $-1 -1 $-1 $500 $377 #
attrib_edge_convexity-kcp-attrib $-1 -1 $622 $-1 $502 2 #
coedge $-1 -1 $-1 $616 $506 $623 $624 forward $384 $-1 #
coedge $-1 -1 $-1 $506 $616 $613 $625 forward $384 $-1 #
coedge $-1 -1 $-1 $626 $627 $506 $582 reversed $611 $-1 #
edge $-1 -1 $-1 $628 10.669872981077832 $629 19.330127018922223 $506 $630 forward @7 unknown #
attrib_edge_convexity-kcp-attrib $-1 -1 $631 $-1 $510 1 #
vertex $-1 -1 $-1 $510 $632 #
ellipse-curve $-1 -1 $-1 150 100.00000000000004 100.00000000000003 0 1 0 0 0 25 1 I I #
convexity-sys-attrib $-1 -1 $-1 $-1 $516 #
ellipse-curve $-1 -1 $-1 0 -2.8421709430404007e-014 -15.000000000000014 0 0 1 -4.9999999999999991 0 0 1 I I #
point $-1 -1 $-1 2.5 -4.3301270189222123 -15.000000000000014 #
coedge $-1 -1 $-1 $545 $542 $526 $590 forward $546 $-1 #
edge $-1 -1 $-1 $544 -25 $541 25 $526 $633 forward @7 unknown #
coedge $-1 -1 $-1 $537 $528 $530 $594 forward $552 $-1 #
coedge $-1 -1 $-1 $528 $537 $533 $596 forward $552 $-1 #
straight-curve $-1 -1 $-1 0 40.000000000000014 25.001000000000005 -1 0 0 I I #
edge $-1 -1 $-1 $531 -40.000000000000014 $540 40.000000000000014 $530 $634 forward @7 unknown #
point $-1 -1 $-1 -25 40.000000000000014 25.001000000000005 #
edge $-1 -1 $-1 $539 -40.000000000000014 $534 40.000000000000014 $533 $635 forward @7 unknown #
point $-1 -1 $-1 25 40.000000000000014 25.001000000000005 #
straight-curve $-1 -1 $-1 0 -40.000000000000014 25.001000000000005 1 0 0 I I #
point $-1 -1 $-1 25 -40.000000000000014 25.001000000000005 #
point $-1 -1 $-1 -25 -40.000000000000014 25.001000000000005 #
point $-1 -1 $-1 25 40.000000000000014 -25.001000000000005 #
straight-curve $-1 -1 $-1 -25 0 -25.001000000000005 0 1 0 I I #
point $-1 -1 $-1 -25 40.000000000000014 -25.001000000000005 #
straight-curve $-1 -1 $-1 25 0 -25.001000000000005 0 -1 0 I I #
plane-surface $-1 -1 $-1 0 0 -25.001000000000005 0 0 1 1 0 0 forward_v I I I I #
convexity-sys-attrib $-1 -1 $-1 $-1 $555 #
ellipse-curve $-1 -1 $-1 0 -1.4210854715202004e-014 15.000000000000014 0 0 -1 4.9999999999999991 0 0 1 I I #
point $-1 -1 $-1 -2.5 -4.3301270189221981 15.000000000000014 #
model_id-kcp-attrib $-1 -1 $-1 $-1 $566 1 1021323984 1021323984 593428481 11 #
face $636 -1 $-1 $637 $638 $10 $-1 $568 reversed single #
loop $-1 -1 $-1 $-1 $581 $566 #
plane-surface $-1 -1 $-1 152.5 67.000000000000028 127.00000000000004 -1 0 0 0 0 0.99999999999999989 forward_v I I I I #
coedge $-1 -1 $-1 $639 $640 $580 $625 reversed $567 $-1 #
coedge $-1 -1 $-1 $641 $569 $642 $643 forward $486 $-1 #
coedge $-1 -1 $-1 $569 $641 $639 $644 forward $486 $-1 #
coedge $-1 -1 $-1 $580 $579 $569 $617 forward $384 $-1 #
edge $-1 -1 $-1 $645 -19.330127018922216 $646 -10.669872981077832 $616 $647 forward @7 unknown #
attrib_edge_convexity-kcp-attrib $-1 -1 $648 $-1 $570 2 #
straight-curve $-1 -1 $-1 147.5 63.500000000000007 85.000000000000014 0 -0.99999999999999989 0 I I #
point $-1 -1 $-1 147.5 55.669872981077809 85.000000000000014 #
convexity-sys-attrib $-1 -1 $-1 $574 $495 #
convexity-sys-attrib $-1 -1 $-1 $578 $502 #
coedge $-1 -1 $-1 $649 $642 $579 $624 reversed $638 $-1 #
edge $-1 -1 $-1 $629 20.161223400294297 $645 25.172937128969298 $579 $650 forward @7 unknown #
edge $-1 -1 $-1 $646 5.0498365572064312 $628 10.061550285881431 $580 $651 forward @7 unknown #
coedge $-1 -1 $-1 $652 $581 $640 $653 forward $611 $-1 #
coedge $-1 -1 $-1 $581 $652 $649 $654 forward $611 $-1 #
vertex $-1 -1 $-1 $582 $655 #
vertex $-1 -1 $-1 $582 $656 #
straight-curve $-1 -1 $-1 152.5 75.000000000000043 124.87468592766552 0 -0.99999999999999989 0 I I #
convexity-sys-attrib $-1 -1 $-1 $583 $510 #
point $-1 -1 $-1 150 100.00000000000004 125.00000000000003 #
straight-curve $-1 -1 $-1 0 40.000000000000014 -25.001000000000005 1 0 0 I I #
straight-curve $-1 -1 $-1 -25 0 25.001000000000005 0 -1 0 I I #
straight-curve $-1 -1 $-1 25 0 25.001000000000005 0 1 0 I I #
model_id-kcp-attrib $-1 -1 $-1 $-1 $610 1 1021323984 1021323984 593428481 12 #
face $657 -1 $-1 $385 $658 $10 $-1 $659 forward single #
loop $-1 -1 $-1 $-1 $623 $610 #
coedge $-1 -1 $-1 $660 $613 $615 $644 reversed $567 $-1 #
coedge $-1 -1 $-1 $613 $660 $626 $653 reversed $567 $-1 #
coedge $-1 -1 $-1 $615 $614 $661 $662 forward $486 $-1 #
coedge $-1 -1 $-1 $623 $663 $614 $643 reversed $638 $-1 #
edge $-1 -1 $-1 $645 2.125314072334533 $664 12.000000000000016 $642 $665 forward @7 unknown #
edge $-1 -1 $-1 $666 -12.000000000000016 $646 -2.125314072334533 $639 $667 forward @7 unknown #
vertex $-1 -1 $-1 $624 $668 #
vertex $-1 -1 $-1 $625 $669 #
straight-curve $-1 -1 $-1 147.5 75.000000000000043 124.87468592766552 0 0.99999999999999989 0 I I #
convexity-sys-attrib $-1 -1 $-1 $618 $570 #
coedge $-1 -1 $-1 $663 $623 $627 $654 reversed $638 $-1 #
intcurve-curve $-1 -1 $-1 forward { surfintcur full nubs 3 open 7 
	20.161223400294297 3 20.778209833310868 2 21.722645048971366 2 22.667080264631863 2 23.611515480292361 2 
	24.555950695952856 2 25.172937128969298 3 
	152.5 55.669872981077823 124.87468592766552 
	152.31254890851918 55.561648042951475 124.89352547121051 
	152.1168858251755 55.465002594038815 124.91103130613587 
	151.60791847430397 55.253877539684666 124.95014891366388 
	151.28665737382767 55.15716520205936 124.96896423528707 
	150.64010726564078 55.030211396215009 124.99389775263451 
	150.31481173855343 55.000000000000014 125.00000000000003 
	149.68518826144643 55.000000000000021 125.00000000000003 
	149.35989273435908 55.030211396215037 124.99389775263451 
	148.71334262617222 55.157165202059403 124.96896423528707 
	148.39208152569591 55.253877539684716 124.95014891366387 
	147.88311417482441 55.465002594038864 124.91103130613587 
	147.6874510914808 55.561648042951504 124.89352547121051 
	147.5 55.66987298107783 124.87468592766552 
	0.0009999999999999998 
	cone 150 60.000000000000014 127.00000000000006 0 0 -1 4.9999999999999991 0 0 1 I I 0 1 4.9999999999999991 forward I I I I 
	cone 150 75.000000000000043 100.00000000000003 0 1 0 0 0 25 1 I I 0 1 25 forward I I I I 
	nullbs 
	nullbs 
	I I 
	0 
	0 
	0 
	} I I #
intcurve-curve $-1 -1 $-1 forward { surfintcur full nubs 3 open 7 
	5.0498365572064312 3 5.666822990222963 2 6.6112582058834644 2 7.5556934215439657 2 8.5001286372044653 2 
	9.4445638528649667 2 10.061550285881431 3 
	147.5 64.330127018922212 124.87468592766552 
	147.68745109148082 64.438351957048553 124.89352547121051 
	147.88311417482447 64.534997405961207 124.91103130613587 
	148.392081525696 64.746122460315348 124.95014891366388 
	148.71334262617231 64.842834797940668 124.96896423528707 
	149.35989273435919 64.96978860378502 124.99389775263451 
	149.68518826144654 65.000000000000014 125.00000000000003 
	150.31481173855354 65.000000000000014 125.00000000000003 
	150.64010726564086 64.969788603785005 124.99389775263451 
	151.28665737382775 64.84283479794064 124.96896423528707 
	151.60791847430406 64.746122460315334 124.95014891366387 
	152.11688582517556 64.534997405961178 124.91103130613587 
	152.3125489085192 64.438351957048539 124.89352547121051 
	152.5 64.330127018922212 124.87468592766552 
	0.0009999999999999998 
	cone 150 60.000000000000014 127.00000000000006 0 0 -1 4.9999999999999991 0 0 1 I I 0 1 4.9999999999999991 forward I I I I 
	cone 150 75.000000000000043 100.00000000000003 0 1 0 0 0 25 1 I I 0 1 25 forward I I I I 
	nullbs 
	nullbs 
	I I 
	0 
	0 
	0 
	} I I #
coedge $-1 -1 $-1 $627 $626 $670 $671 forward $611 $-1 #
edge $-1 -1 $-1 $628 2.125314072334533 $672 12.000000000000016 $640 $673 forward @7 unknown #
edge $-1 -1 $-1 $674 -12.000000000000016 $629 -2.125314072334533 $649 $675 forward @7 unknown #
point $-1 -1 $-1 152.5 64.330127018922212 124.87468592766552 #
point $-1 -1 $-1 152.5 55.669872981077823 124.87468592766552 #
model_id-kcp-attrib $-1 -1 $-1 $-1 $637 1 1021323984 1021323984 593428481 13 #
loop $-1 -1 $-1 $-1 $670 $637 #
plane-surface $-1 -1 $-1 155 60.000000000000014 115.00000000000004 0 0 1 0.99999999999999989 0 0 forward_v I I I I #
coedge $-1 -1 $-1 $640 $639 $676 $677 reversed $567 $-1 #
coedge $-1 -1 $-1 $678 $676 $641 $662 reversed $658 $-1 #
edge $679 -1 $-1 $664 -0.33012701892219104 $666 8.3301270189221928 $661 $680 forward @7 unknown #
coedge $-1 -1 $-1 $642 $649 $678 $681 reversed $638 $-1 #
vertex $-1 -1 $-1 $681 $682 #
straight-curve $-1 -1 $-1 147.5 55.66987298107783 127.00000000000006 0 0 -0.99999999999999989 I I #
vertex $-1 -1 $-1 $644 $683 #
straight-curve $-1 -1 $-1 147.5 64.330127018922212 127.00000000000006 0 0 0.99999999999999989 I I #
point $-1 -1 $-1 147.5 55.66987298107783 124.87468592766552 #
point $-1 -1 $-1 147.5 64.330127018922212 124.87468592766552 #
coedge $-1 -1 $-1 $676 $678 $652 $671 reversed $658 $-1 #
edge $684 -1 $-1 $672 -0.8301270189221911 $674 7.830127018922199 $670 $685 forward @7 unknown #
vertex $-1 -1 $-1 $677 $686 #
straight-curve $-1 -1 $-1 152.5 64.330127018922212 127.00000000000006 0 0 -0.99999999999999989 I I #
vertex $-1 -1 $-1 $671 $687 #
straight-curve $-1 -1 $-1 152.5 55.669872981077823 127.00000000000006 0 0 0.99999999999999989 I I #
coedge $-1 -1 $-1 $661 $670 $660 $677 forward $658 $-1 #
edge $688 -1 $-1 $672 1.0471975511965983 $666 2.0943951023931948 $660 $689 forward @7 unknown #
coedge $-1 -1 $-1 $670 $661 $663 $681 forward $658 $-1 #
attrib_edge_convexity-kcp-attrib $-1 -1 $690 $-1 $662 2 #
straight-curve $-1 -1 $-1 147.5 56.000000000000021 115.00000000000004 0 0.99999999999999989 0 I I #
edge $691 -1 $-1 $664 -2.0943951023931966 $674 -1.0471975511965974 $663 $689 forward @7 unknown #
point $-1 -1 $-1 147.5 55.66987298107783 115.00000000000004 #
point $-1 -1 $-1 147.5 64.330127018922212 115.00000000000004 #
attrib_edge_convexity-kcp-attrib $-1 -1 $692 $-1 $671 2 #
straight-curve $-1 -1 $-1 152.5 63.500000000000021 115.00000000000004 0 -0.99999999999999989 0 I I #
point $-1 -1 $-1 152.5 64.330127018922212 115.00000000000004 #
point $-1 -1 $-1 152.5 55.669872981077823 115.00000000000004 #
attrib_edge_convexity-kcp-attrib $-1 -1 $693 $-1 $677 2 #
ellipse-curve $-1 -1 $-1 150 60.000000000000014 115.00000000000004 0 0 1 4.9999999999999991 0 0 1 I I #
convexity-sys-attrib $-1 -1 $-1 $679 $662 #
attrib_edge_convexity-kcp-attrib $-1 -1 $694 $-1 $681 2 #
convexity-sys-attrib $-1 -1 $-1 $684 $671 #
convexity-sys-attrib $-1 -1 $-1 $688 $677 #
convexity-sys-attrib $-1 -1 $-1 $691 $681 #
End-of-ACIS-data 