600 0 1 0           
79 GICL ACIS Healer - Source: /gicl/data5/repository/CMU/scanner/scanner.sat - 6 0 18 ACIS 6.0.3 Solaris 24 Sat Apr 13 00:31:07 2002 
1 9.999999999999999547e-07 1.000000000000000036e-10 
body $-1 $1 $-1 $-1 #
lump $-1 $-1 $2 $0 #
shell $-1 $-1 $-1 $3 $-1 $1 #
face $-1 $4 $5 $2 $-1 $6 reversed single #
face $-1 $7 $8 $2 $-1 $9 forward single #
loop $-1 $10 $11 $3 #
cone-surface $-1 150.0000000038333496 60.00000000000001421 99.99999999616669299 0 1 0 -7.500000000000001776 0 0 1 I I 0 1 7.500000000000001776 forward I I I I #
face $-1 $12 $13 $2 $-1 $14 forward single #
loop $-1 $15 $16 $4 #
cone-surface $-1 150 35.00000000000000711 100.0000000000000284 0 1 0 0 0 16.25 1 I I 0.5038710255240861358 0.8637789008984333439 16.25 forward I I I I #
loop $-1 $-1 $17 $3 #
coedge $-1 $11 $11 $16 $18 reversed $5 $-1 #
face $-1 $19 $20 $2 $-1 $21 reversed single #
loop $-1 $-1 $22 $7 #
plane-surface $-1 152.5 52.00000000000001421 73.00000000000001421 -1 0 0 0 0 0.999999999999999889 forward_v I I I I #
loop $-1 $-1 $23 $4 #
coedge $-1 $16 $16 $11 $18 forward $8 $-1 #
coedge $-1 $17 $17 $24 $25 reversed $10 $-1 #
edge $-1 $26 -6.283185307179586232 $26 -0 $16 $27 reversed 7 unknown #
face $-1 $28 $29 $2 $-1 $30 forward single #
loop $-1 $-1 $31 $12 #
cone-surface $-1 150 60 73 0 0 1 -4.999999999999999112 0 0 1 I I 0 1 4.999999999999999112 forward I I I I #
coedge $-1 $32 $33 $34 $35 reversed $13 $-1 #
coedge $-1 $23 $23 $36 $37 forward $15 $-1 #
coedge $-1 $24 $24 $17 $25 forward $38 $-1 #
edge $-1 $39 -3.141592653589800666 $39 3.141592653589785566 $24 $40 forward 7 unknown #
vertex $-1 $18 $41 #
ellipse-curve $-1 150 20.00000000000000711 100.0000000000000284 0 -1 0 0 0 7.5 1 I I #
face $-1 $42 $43 $2 $-1 $21 reversed single #
loop $-1 $-1 $44 $19 #
plane-surface $-1 147.5 67.00000000000001421 73.00000000000001421 1 0 0 0 0 -0.999999999999999889 forward_v I I I I #
coedge $-1 $45 $46 $47 $48 reversed $20 $-1 #
coedge $-1 $49 $22 $50 $51 forward $13 $-1 #
coedge $-1 $22 $49 $45 $52 forward $13 $-1 #
coedge $-1 $47 $53 $22 $35 forward $54 $-1 #
edge $-1 $55 -19.33012701892223006 $56 -10.66987298107784632 $34 $57 forward 7 unknown #
coedge $-1 $36 $36 $23 $37 reversed $58 $-1 #
edge $-1 $59 0 $59 6.283185307179586232 $36 $60 forward 7 unknown #
loop $-1 $61 $24 $62 #
vertex $-1 $25 $63 #
ellipse-curve $-1 150.0000000038333496 100.0000000000000426 99.99999999616669299 0 -1 0 -7.500000000000001776 0 0 1 I I #
point $-1 150 20.00000000000000711 107.5000000000000284 #
face $-1 $64 $65 $2 $-1 $66 forward single #
loop $-1 $-1 $67 $28 #
coedge $-1 $68 $69 $70 $71 reversed $29 $-1 #
coedge $-1 $72 $31 $33 $52 reversed $20 $-1 #
coedge $-1 $31 $72 $68 $73 reversed $20 $-1 #
coedge $-1 $70 $34 $31 $48 forward $54 $-1 #
edge $-1 $56 5.049836557206429433 $74 10.06155028588143097 $47 $75 forward 7 unknown #
coedge $-1 $33 $32 $76 $77 forward $13 $-1 #
coedge $-1 $67 $78 $32 $51 reversed $43 $-1 #
edge $-1 $55 2.125314072334532955 $79 12.00000000000001599 $50 $80 forward 7 unknown #
edge $-1 $81 -12.00000000000001599 $56 -2.125314072334532955 $45 $82 forward 7 unknown #
coedge $-1 $34 $70 $67 $83 forward $54 $-1 #
loop $-1 $84 $70 $85 #
vertex $-1 $83 $86 #
vertex $-1 $48 $87 #
straight-curve $-1 152.5 75.00000000000004263 75.12531407233453251 0 0.999999999999999889 0 I I #
loop $-1 $88 $36 $85 #
vertex $-1 $37 $89 #
ellipse-curve $-1 150 50.00000000000004263 100.0000000000000284 0 -1 0 0 0 25 1 I I #
loop $-1 $-1 $90 $62 #
face $-1 $-1 $38 $2 $-1 $91 forward single #
point $-1 157.5000000038333496 100.0000000000000426 99.99999999616663615 #
face $-1 $92 $93 $2 $-1 $94 forward single #
loop $-1 $-1 $95 $42 #
plane-surface $-1 145 60 85.00000000000001421 0 0 -1 -0.999999999999999889 0 0 forward_v I I I I #
coedge $-1 $96 $50 $53 $83 reversed $43 $-1 #
coedge $-1 $97 $44 $46 $73 forward $29 $-1 #
coedge $-1 $44 $97 $96 $98 forward $29 $-1 #
coedge $-1 $53 $47 $44 $71 forward $54 $-1 #
edge $-1 $74 10.66987298107784632 $99 19.33012701892223717 $70 $100 forward 7 unknown #
coedge $-1 $46 $45 $101 $102 reversed $20 $-1 #
edge $-1 $74 2.125314072334532955 $103 12.00000000000001599 $46 $104 forward 7 unknown #
vertex $-1 $71 $105 #
intcurve-curve $-1 forward { surfintcur full nubs 3 open 7 
	5.049836557206429433 3 5.666822990222961209 2 6.61125820588346258 2 7.55569342154396395 2 8.500128637204465321 2 
	9.444563852864966691 2 10.06155028588143097 3 
	152.5 64.33012701892219809 75.12531407233453251 
	152.3125489085191759 64.43835195704853902 75.10647452878954766 
	152.1168858251755296 64.53499740596119238 75.08896869386418871 
	151.6079184743040003 64.74612246031533402 75.04985108633617585 
	151.2866573738276941 64.84283479794065386 75.03103576471298197 
	150.6401072656408076 64.96978860378500542 75.00610224736554699 
	150.314811738553459 65 75.00000000000002842 
	149.6851882614464557 65 75.00000000000002842 
	149.3598927343591356 64.96978860378499121 75.00610224736554699 
	148.7133426261722491 64.84283479794062544 75.03103576471298197 
	148.3920815256959429 64.74612246031531981 75.04985108633619006 
	147.883114174824442 64.53499740596116396 75.08896869386418871 
	147.6874510914807956 64.43835195704852481 75.10647452878954766 
	147.5 64.33012701892219809 75.12531407233453251 
	0.000999999999999999804 
	cone 150 60 73 0 0 1 -4.999999999999999112 0 0 1 I I 0 1 4.999999999999999112 forward I I I I 
	cone 150 75.00000000000004263 100.0000000000000284 0 1 0 0 0 25 1 I I 0 1 25 forward I I I I 
	nullbs 
	nullbs 
	I I 
	0 
	0 
	0 
	} I I #
coedge $-1 $106 $101 $49 $77 reversed $65 $-1 #
edge $-1 $79 -0.3301270189221910401 $81 8.330127018922192761 $76 $107 forward 7 unknown #
coedge $-1 $50 $96 $106 $108 reversed $43 $-1 #
vertex $-1 $108 $109 #
straight-curve $-1 152.5 55.66987298107781612 73 0 0 0.999999999999999889 I I #
vertex $-1 $52 $110 #
straight-curve $-1 152.5 64.33012701892219809 73 0 0 -0.999999999999999889 I I #
edge $-1 $99 20.16122340029429694 $55 25.17293712896929136 $53 $111 forward 7 unknown #
loop $-1 $58 $112 $85 #
face $-1 $62 $54 $2 $-1 $113 forward single #
point $-1 152.5 55.66987298107781612 75.12531407233453251 #
point $-1 152.5 64.33012701892219809 75.12531407233453251 #
loop $-1 $-1 $114 $85 #
point $-1 150 50.00000000000004263 125.0000000000000284 #
coedge $-1 $90 $90 $114 $115 forward $61 $-1 #
plane-surface $-1 150 100.0000000000000426 100.0000000000000284 0 1 0 0 0 0.999999999999999889 forward_v I I I I #
face $-1 $116 $117 $2 $-1 $118 reversed single #
loop $-1 $-1 $119 $64 #
plane-surface $-1 147.5 52.00000000000002842 127.0000000000000426 1 0 0 0 0 -0.999999999999999889 forward_v I I I I #
coedge $-1 $101 $106 $97 $120 reversed $65 $-1 #
coedge $-1 $78 $67 $69 $98 reversed $43 $-1 #
coedge $-1 $69 $68 $95 $120 forward $29 $-1 #
edge $-1 $121 -12.00000000000001599 $99 -2.125314072334532955 $96 $122 forward 7 unknown #
vertex $-1 $71 $123 #
straight-curve $-1 147.5 75.00000000000004263 75.12531407233453251 0 -0.999999999999999889 0 I I #
coedge $-1 $76 $95 $72 $102 forward $65 $-1 #
edge $-1 $103 1.047197551196598297 $81 2.094395102393194819 $72 $124 forward 7 unknown #
vertex $-1 $102 $125 #
straight-curve $-1 147.5 64.33012701892219809 73 0 0 0.999999999999999889 I I #
point $-1 147.5 64.33012701892219809 75.12531407233453251 #
coedge $-1 $95 $76 $78 $108 forward $65 $-1 #
straight-curve $-1 152.5 56.00000000000000711 85.00000000000001421 0 0.999999999999999889 0 I I #
edge $-1 $79 -2.094395102393196595 $121 -1.047197551196597409 $78 $124 forward 7 unknown #
point $-1 152.5 55.66987298107781612 85.00000000000001421 #
point $-1 152.5 64.33012701892219809 85.00000000000001421 #
intcurve-curve $-1 forward { surfintcur full nubs 3 open 7 
	20.16122340029429694 3 20.77820983331086424 2 21.72264504897135851 2 22.66708026463185632 2 23.61151548029235414 2 
	24.55595069595284841 2 25.17293712896929136 3 
	147.5 55.66987298107780902 75.12531407233453251 
	147.6874510914808241 55.56164804295146098 75.10647452878954766 
	147.8831141748244988 55.46500259403880762 75.08896869386418871 
	148.3920815256960282 55.25387753968465177 75.04985108633617585 
	148.7133426261723343 55.15716520205934614 75.03103576471298197 
	149.3598927343592209 55.03021139621500879 75.00610224736554699 
	149.6851882614465694 55 75.00000000000002842 
	150.3148117385535727 55.00000000000000711 75.00000000000002842 
	150.6401072656409212 55.030211396215023 75.00610224736554699 
	151.2866573738277793 55.15716520205938878 75.03103576471298197 
	151.6079184743040855 55.2538775396847015 75.04985108633619006 
	152.1168858251755864 55.46500259403885025 75.08896869386418871 
	152.3125489085192044 55.5616480429514894 75.10647452878954766 
	152.5 55.66987298107781612 75.12531407233453251 
	0.000999999999999999804 
	cone 150 60 73 0 0 1 -4.999999999999999112 0 0 1 I I 0 1 4.999999999999999112 forward I I I I 
	cone 150 75.00000000000004263 100.0000000000000284 0 1 0 0 0 25 1 I I 0 1 25 forward I I I I 
	nullbs 
	nullbs 
	I I 
	0 
	0 
	0 
	} I I #
coedge $-1 $126 $127 $128 $129 forward $84 $-1 #
cone-surface $-1 150 75.00000000000004263 100.0000000000000284 0 1 0 0 0 25 1 I I 0 1 25 forward I I I I #
coedge $-1 $114 $114 $90 $115 reversed $88 $-1 #
edge $-1 $130 0 $130 6.283185307179586232 $90 $131 forward 7 unknown #
face $-1 $132 $133 $2 $-1 $134 forward single #
loop $-1 $-1 $135 $92 #
cone-surface $-1 150 60.00000000000001421 127.0000000000000568 0 0 -1 4.999999999999999112 0 0 1 I I 0 1 4.999999999999999112 forward I I I I #
coedge $-1 $136 $137 $138 $139 reversed $93 $-1 #
edge $-1 $103 -0.8301270189221910956 $121 7.830127018922198978 $95 $140 forward 7 unknown #
vertex $-1 $120 $141 #
straight-curve $-1 147.5 55.66987298107780902 73 0 0 -0.999999999999999889 I I #
point $-1 147.5 55.66987298107780902 75.12531407233453251 #
ellipse-curve $-1 150 60 85.00000000000001421 0 0 -1 -4.999999999999999112 0 0 1 I I #
point $-1 147.5 64.33012701892219809 85.00000000000001421 #
coedge $-1 $138 $112 $142 $143 forward $84 $-1 #
coedge $-1 $112 $138 $135 $144 forward $84 $-1 #
coedge $-1 $145 $146 $112 $129 reversed $133 $-1 #
edge $-1 $147 10.66987298107783211 $148 19.33012701892222296 $112 $149 forward 7 unknown #
vertex $-1 $115 $150 #
ellipse-curve $-1 150 100.0000000000000426 100.0000000000000284 0 1 0 0 0 25 1 I I #
face $-1 $151 $152 $2 $-1 $118 reversed single #
loop $-1 $-1 $128 $116 #
plane-surface $-1 152.5 67.00000000000002842 127.0000000000000426 -1 0 0 0 0 0.999999999999999889 forward_v I I I I #
coedge $-1 $153 $154 $127 $144 reversed $117 $-1 #
coedge $-1 $155 $119 $156 $157 forward $93 $-1 #
coedge $-1 $119 $155 $153 $158 forward $93 $-1 #
coedge $-1 $127 $126 $119 $139 forward $84 $-1 #
edge $-1 $159 -19.33012701892221585 $160 -10.66987298107783211 $138 $161 forward 7 unknown #
straight-curve $-1 147.5 63.50000000000000711 85.00000000000001421 0 -0.999999999999999889 0 I I #
point $-1 147.5 55.66987298107780902 85.00000000000001421 #
coedge $-1 $162 $156 $126 $143 reversed $152 $-1 #
edge $-1 $148 20.16122340029429694 $159 25.17293712896929847 $126 $163 forward 7 unknown #
edge $-1 $160 5.049836557206431209 $147 10.06155028588143097 $127 $164 forward 7 unknown #
coedge $-1 $165 $128 $154 $166 forward $133 $-1 #
coedge $-1 $128 $165 $162 $167 forward $133 $-1 #
vertex $-1 $129 $168 #
vertex $-1 $129 $169 #
straight-curve $-1 152.5 75.00000000000004263 124.8746859276655243 0 -0.999999999999999889 0 I I #
point $-1 150 100.0000000000000426 125.0000000000000284 #
face $-1 $85 $170 $2 $-1 $171 forward single #
loop $-1 $-1 $142 $132 #
coedge $-1 $172 $135 $137 $158 reversed $117 $-1 #
coedge $-1 $135 $172 $145 $166 reversed $117 $-1 #
coedge $-1 $137 $136 $173 $174 forward $93 $-1 #
coedge $-1 $142 $175 $136 $157 reversed $152 $-1 #
edge $-1 $159 2.125314072334532955 $176 12.00000000000001599 $156 $177 forward 7 unknown #
edge $-1 $178 -12.00000000000001599 $160 -2.125314072334532955 $153 $179 forward 7 unknown #
vertex $-1 $143 $180 #
vertex $-1 $144 $181 #
straight-curve $-1 147.5 75.00000000000004263 124.8746859276655243 0 0.999999999999999889 0 I I #
coedge $-1 $175 $142 $146 $167 reversed $152 $-1 #
intcurve-curve $-1 forward { surfintcur full nubs 3 open 7 
	20.16122340029429694 3 20.77820983331086779 2 21.72264504897136561 2 22.66708026463186343 2 23.61151548029236125 2 
	24.55595069595285551 2 25.17293712896929847 3 
	152.5 55.66987298107782323 124.8746859276655243 
	152.3125489085191759 55.56164804295147519 124.8935254712105092 
	152.1168858251755012 55.46500259403881472 124.9110313061358681 
	151.6079184743039718 55.25387753968466598 124.950148913663881 
	151.2866573738276657 55.15716520205936035 124.9689642352870749 
	150.6401072656407791 55.03021139621500879 124.9938977526345099 
	150.3148117385534306 55.00000000000001421 125.0000000000000284 
	149.6851882614464273 55.00000000000002132 125.0000000000000284 
	149.3598927343590788 55.03021139621503721 124.9938977526345099 
	148.7133426261722207 55.15716520205940299 124.9689642352870749 
	148.3920815256959145 55.25387753968471571 124.9501489136638668 
	147.8831141748244136 55.46500259403886446 124.9110313061358681 
	147.6874510914807956 55.56164804295150361 124.8935254712105092 
	147.5 55.66987298107783033 124.8746859276655243 
	0.000999999999999999804 
	cone 150 60.00000000000001421 127.0000000000000568 0 0 -1 4.999999999999999112 0 0 1 I I 0 1 4.999999999999999112 forward I I I I 
	cone 150 75.00000000000004263 100.0000000000000284 0 1 0 0 0 25 1 I I 0 1 25 forward I I I I 
	nullbs 
	nullbs 
	I I 
	0 
	0 
	0 
	} I I #
intcurve-curve $-1 forward { surfintcur full nubs 3 open 7 
	5.049836557206431209 3 5.666822990222962986 2 6.611258205883464356 2 7.555693421543965727 2 8.500128637204465321 2 
	9.444563852864966691 2 10.06155028588143097 3 
	147.5 64.3301270189222123 124.8746859276655243 
	147.6874510914808241 64.43835195704855323 124.8935254712105092 
	147.8831141748244704 64.5349974059612066 124.9110313061358681 
	148.3920815256959997 64.74612246031534823 124.950148913663881 
	148.7133426261723059 64.84283479794066807 124.9689642352870749 
	149.3598927343591924 64.96978860378501963 124.9938977526345099 
	149.685188261446541 65.00000000000001421 125.0000000000000284 
	150.3148117385535443 65.00000000000001421 125.0000000000000284 
	150.6401072656408644 64.96978860378500542 124.9938977526345099 
	151.2866573738277509 64.84283479794063965 124.9689642352870749 
	151.6079184743040571 64.74612246031533402 124.9501489136638668 
	152.116885825175558 64.53499740596117817 124.9110313061358681 
	152.3125489085192044 64.43835195704853902 124.8935254712105092 
	152.5 64.3301270189222123 124.8746859276655243 
	0.000999999999999999804 
	cone 150 60.00000000000001421 127.0000000000000568 0 0 -1 4.999999999999999112 0 0 1 I I 0 1 4.999999999999999112 forward I I I I 
	cone 150 75.00000000000004263 100.0000000000000284 0 1 0 0 0 25 1 I I 0 1 25 forward I I I I 
	nullbs 
	nullbs 
	I I 
	0 
	0 
	0 
	} I I #
coedge $-1 $146 $145 $182 $183 forward $133 $-1 #
edge $-1 $147 2.125314072334532955 $184 12.00000000000001599 $154 $185 forward 7 unknown #
edge $-1 $186 -12.00000000000001599 $148 -2.125314072334532955 $162 $187 forward 7 unknown #
point $-1 152.5 64.3301270189222123 124.8746859276655243 #
point $-1 152.5 55.66987298107782323 124.8746859276655243 #
loop $-1 $-1 $182 $151 #
plane-surface $-1 155 60.00000000000001421 115.0000000000000426 0 0 1 0.999999999999999889 0 0 forward_v I I I I #
coedge $-1 $154 $153 $188 $189 reversed $117 $-1 #
coedge $-1 $190 $188 $155 $174 reversed $170 $-1 #
edge $-1 $176 -0.3301270189221910401 $178 8.330127018922192761 $173 $191 forward 7 unknown #
coedge $-1 $156 $162 $190 $192 reversed $152 $-1 #
vertex $-1 $192 $193 #
straight-curve $-1 147.5 55.66987298107783033 127.0000000000000568 0 0 -0.999999999999999889 I I #
vertex $-1 $158 $194 #
straight-curve $-1 147.5 64.3301270189222123 127.0000000000000568 0 0 0.999999999999999889 I I #
point $-1 147.5 55.66987298107783033 124.8746859276655243 #
point $-1 147.5 64.3301270189222123 124.8746859276655243 #
coedge $-1 $188 $190 $165 $183 reversed $170 $-1 #
edge $-1 $184 -0.8301270189221910956 $186 7.830127018922198978 $182 $195 forward 7 unknown #
vertex $-1 $189 $196 #
straight-curve $-1 152.5 64.3301270189222123 127.0000000000000568 0 0 -0.999999999999999889 I I #
vertex $-1 $183 $197 #
straight-curve $-1 152.5 55.66987298107782323 127.0000000000000568 0 0 0.999999999999999889 I I #
coedge $-1 $173 $182 $172 $189 forward $170 $-1 #
edge $-1 $184 1.047197551196598297 $178 2.094395102393194819 $172 $198 forward 7 unknown #
coedge $-1 $182 $173 $175 $192 forward $170 $-1 #
straight-curve $-1 147.5 56.00000000000002132 115.0000000000000426 0 0.999999999999999889 0 I I #
edge $-1 $176 -2.094395102393196595 $186 -1.047197551196597409 $175 $198 forward 7 unknown #
point $-1 147.5 55.66987298107783033 115.0000000000000426 #
point $-1 147.5 64.3301270189222123 115.0000000000000426 #
straight-curve $-1 152.5 63.50000000000002132 115.0000000000000426 0 -0.999999999999999889 0 I I #
point $-1 152.5 64.3301270189222123 115.0000000000000426 #
point $-1 152.5 55.66987298107782323 115.0000000000000426 #
ellipse-curve $-1 150 60.00000000000001421 115.0000000000000426 0 0 1 4.999999999999999112 0 0 1 I I #
End-of-ACIS-data 