106 0 1 0           
body $-1 $1 $-1 $2 #
lump $-1 $-1 $3 $0 #
transform $-1 1 0 0 0 1 0 0 0 1 0 0 0 0.99999999999999989 0 0 0 #
shell $-1 $-1 $-1 $4 $1 #
face $-1 $5 $6 $3 $-1 $7 reversed single #
face $-1 $8 $9 $3 $-1 $10 reversed single #
loop $-1 $-1 $11 $4 #
plane-surface $-1 166.75 43.25 192.00000000000009 0 -1 0 0 0 -1 0 I I I I #
face $-1 $12 $13 $3 $-1 $14 reversed single #
loop $-1 $-1 $15 $5 #
plane-surface $-1 166.75 40.75 192.00000000000009 1 0 0 0 0 -1 0 I I I I #
coedge $-1 $16 $17 $18 $19 1 $6 $-1 #
face $-1 $20 $21 $3 $-1 $22 reversed single #
loop $-1 $-1 $23 $8 #
plane-surface $-1 165.25 40.75 192.00000000000009 0 -1 0 0 0 -1 0 I I I I #
coedge $-1 $24 $25 $26 $27 1 $9 $-1 #
coedge $-1 $28 $11 $29 $30 0 $6 $-1 #
coedge $-1 $11 $28 $24 $31 1 $6 $-1 #
coedge $-1 $26 $32 $11 $19 0 $33 $-1 #
edge $-1 $34 $35 $18 $36 0 #
face $-1 $37 $38 $3 $-1 $39 reversed single #
loop $-1 $-1 $40 $12 #
plane-surface $-1 165.25 43.25 192.00000000000009 -1 0 0 0 0 1 0 I I I I #
coedge $-1 $41 $42 $43 $44 1 $13 $-1 #
coedge $-1 $45 $15 $17 $31 0 $9 $-1 #
coedge $-1 $15 $45 $41 $46 1 $9 $-1 #
coedge $-1 $43 $18 $15 $27 0 $33 $-1 #
edge $-1 $35 $47 $26 $48 0 #
coedge $-1 $17 $16 $49 $50 1 $6 $-1 #
coedge $-1 $51 $52 $16 $30 1 $53 $-1 #
edge $-1 $34 $54 $29 $55 0 #
edge $-1 $35 $56 $17 $57 0 #
coedge $-1 $18 $58 $51 $59 0 $33 $-1 #
loop $-1 $60 $61 $62 #
vertex $-1 $19 $63 #
vertex $-1 $27 $64 #
straight-curve $-1 166.375 43.25 189.99999 -1 0 0 I I #
face $-1 $65 $66 $3 $-1 $67 reversed single #
loop $-1 $-1 $68 $20 #
plane-surface $-1 162.75 43.25 192.00000000000009 0 -1 0 0 0 -1 0 I I I I #
coedge $-1 $69 $70 $71 $72 1 $21 $-1 #
coedge $-1 $73 $23 $25 $46 0 $13 $-1 #
coedge $-1 $23 $73 $69 $74 1 $13 $-1 #
coedge $-1 $71 $26 $23 $44 0 $33 $-1 #
edge $-1 $47 $75 $43 $76 0 #
coedge $-1 $25 $24 $77 $78 1 $9 $-1 #
edge $-1 $47 $79 $25 $80 0 #
vertex $-1 $44 $81 #
straight-curve $-1 166.75 42.375 189.99999 0 -1 0 I I #
coedge $-1 $82 $77 $28 $50 0 $83 $-1 #
edge $-1 $56 $54 $28 $84 0 #
coedge $-1 $85 $29 $32 $59 1 $53 $-1 #
coedge $-1 $29 $85 $82 $86 1 $53 $-1 #
loop $-1 $-1 $51 $87 #
vertex $-1 $30 $88 #
straight-curve $-1 169.25 43.25 192.00000000000009 0 0 -1 I I #
vertex $-1 $31 $89 #
straight-curve $-1 166.75 43.25 192.00000000000009 0 0 -1 I I #
coedge $-1 $32 $90 $91 $92 0 $33 $-1 #
edge $-1 $93 $34 $32 $94 0 #
loop $-1 $-1 $95 $62 #
coedge $-1 $96 $97 $98 $99 0 $33 $-1 #
face $-1 $100 $33 $3 $-1 $101 forward single #
point $-1 169.25 43.25 189.99999 #
point $-1 166.75 43.25 189.99999 #
face $-1 $87 $102 $3 $-1 $103 reversed single #
loop $-1 $-1 $104 $37 #
plane-surface $-1 162.75 44.75 192.00000000000009 -1 0 0 0 0 1 0 I I I I #
coedge $-1 $105 $106 $107 $108 1 $38 $-1 #
coedge $-1 $109 $40 $42 $74 0 $21 $-1 #
coedge $-1 $40 $109 $105 $110 1 $21 $-1 #
coedge $-1 $107 $43 $40 $72 0 $33 $-1 #
edge $-1 $75 $111 $71 $112 0 #
coedge $-1 $42 $41 $113 $114 1 $13 $-1 #
edge $-1 $75 $115 $42 $116 0 #
vertex $-1 $72 $117 #
straight-curve $-1 165.625 40.75 189.99999 -1 0 0 I I #
coedge $-1 $49 $113 $45 $78 0 $83 $-1 #
edge $-1 $79 $56 $45 $118 0 #
vertex $-1 $46 $119 #
straight-curve $-1 166.75 40.75 192.00000000000009 0 0 -1 I I #
point $-1 166.75 40.75 189.99999 #
coedge $-1 $120 $49 $52 $86 0 $83 $-1 #
loop $-1 $-1 $121 $122 #
straight-curve $-1 169.25 43.25 188.8000000000001 1 0 0 I I #
coedge $-1 $52 $51 $123 $124 0 $53 $-1 #
edge $-1 $54 $125 $52 $126 0 #
face $-1 $127 $53 $3 $-1 $128 reversed single #
point $-1 169.25 43.25 188.8000000000001 #
point $-1 166.75 43.25 188.8000000000001 #
coedge $-1 $58 $129 $130 $131 0 $33 $-1 #
coedge $-1 $132 $123 $58 $92 1 $133 $-1 #
edge $-1 $134 $93 $58 $135 0 #
vertex $-1 $59 $136 #
straight-curve $-1 169.25 43.625 189.99999 0 -1 0 I I #
coedge $-1 $95 $95 $137 $138 0 $60 $-1 #
coedge $-1 $129 $61 $139 $140 0 $33 $-1 #
coedge $-1 $61 $107 $104 $141 0 $33 $-1 #
coedge $-1 $142 $143 $61 $99 1 $102 $-1 #
edge $-1 $144 $145 $61 $146 0 #
face $-1 $147 $148 $3 $-1 $149 forward single #
plane-surface $-1 166.00000000000003 44 189.99999 0 0 1 1 0 0 0 I I I I #
loop $-1 $-1 $98 $65 #
plane-surface $-1 165.25 44.75 192.00000000000009 0 1 0 0 0 1 0 I I I I #
coedge $-1 $150 $151 $97 $141 1 $66 $-1 #
coedge $-1 $152 $68 $70 $110 0 $38 $-1 #
coedge $-1 $68 $152 $150 $153 1 $38 $-1 #
coedge $-1 $97 $71 $68 $108 0 $33 $-1 #
edge $-1 $111 $154 $107 $155 0 #
coedge $-1 $70 $69 $156 $157 1 $21 $-1 #
edge $-1 $111 $158 $70 $159 0 #
vertex $-1 $108 $160 #
straight-curve $-1 165.25 43.625 189.99999 0 1 0 I I #
coedge $-1 $77 $156 $73 $114 0 $83 $-1 #
edge $-1 $115 $79 $73 $161 0 #
vertex $-1 $74 $162 #
straight-curve $-1 165.25 40.75 192.00000000000009 0 0 -1 I I #
point $-1 165.25 40.75 189.99999 #
straight-curve $-1 166.75 43.25 188.8000000000001 0 1 0 I I #
point $-1 166.75 40.75 188.8000000000001 #
coedge $-1 $163 $82 $164 $165 0 $83 $-1 #
coedge $-1 $166 $167 $168 $169 0 $83 $-1 #
face $-1 $170 $83 $3 $-1 $171 forward single #
coedge $-1 $91 $164 $85 $124 1 $133 $-1 #
edge $-1 $93 $125 $123 $172 0 #
vertex $-1 $124 $173 #
straight-curve $-1 169.25 44.75 188.8000000000001 0 1 0 I I #
face $-1 $174 $133 $3 $-1 $175 reversed single #
plane-surface $-1 169.25 43.25 192.00000000000009 1 0 0 0 0 -1 0 I I I I #
coedge $-1 $90 $96 $176 $177 0 $33 $-1 #
coedge $-1 $178 $179 $90 $131 1 $180 $-1 #
edge $-1 $181 $134 $90 $182 0 #
coedge $-1 $164 $91 $179 $183 0 $133 $-1 #
loop $-1 $-1 $91 $127 #
vertex $-1 $92 $184 #
straight-curve $-1 167.625 44.75 189.99999 1 0 0 I I #
point $-1 169.25 44.75 189.99999 #
coedge $-1 $137 $137 $95 $138 1 $185 $-1 #
edge $-1 $186 $186 $95 $187 0 #
coedge $-1 $188 $189 $96 $140 1 $190 $-1 #
edge $-1 $145 $191 $96 $192 0 #
edge $-1 $154 $144 $97 $193 0 #
coedge $-1 $168 $98 $151 $194 0 $102 $-1 #
coedge $-1 $98 $168 $188 $195 1 $102 $-1 #
vertex $-1 $99 $196 #
vertex $-1 $99 $197 #
straight-curve $-1 165.625 44.75 189.99999 1 0 0 I I #
face $-1 $-1 $198 $3 $-1 $199 forward single #
loop $-1 $200 $201 $100 #
cone-surface $-1 166.00000000000003 44 183.29999000000001 0 0 1 2.1800000000000006 0 0 1 I I 0 1 0 I I I I #
coedge $-1 $202 $104 $106 $153 0 $66 $-1 #
coedge $-1 $104 $202 $142 $194 1 $66 $-1 #
coedge $-1 $106 $105 $203 $204 1 $38 $-1 #
edge $-1 $154 $205 $106 $206 0 #
vertex $-1 $141 $207 #
straight-curve $-1 164.375 43.25 189.99999 -1 0 0 I I #
coedge $-1 $113 $203 $109 $157 0 $83 $-1 #
edge $-1 $158 $115 $109 $208 0 #
vertex $-1 $110 $209 #
straight-curve $-1 165.25 43.25 192.00000000000009 0 0 -1 I I #
point $-1 165.25 43.25 189.99999 #
straight-curve $-1 166.75 40.75 188.8000000000001 1 0 0 I I #
point $-1 165.25 40.75 188.8000000000001 #
coedge $-1 $210 $120 $211 $212 0 $83 $-1 #
coedge $-1 $123 $132 $120 $165 1 $133 $-1 #
edge $-1 $125 $213 $164 $214 0 #
coedge $-1 $203 $121 $202 $215 0 $83 $-1 #
coedge $-1 $121 $210 $216 $217 0 $83 $-1 #
coedge $-1 $143 $142 $121 $169 1 $102 $-1 #
edge $-1 $218 $219 $168 $220 0 #
face $-1 $221 $222 $3 $-1 $223 forward single #
plane-surface $-1 165.25 44.75 188.8000000000001 0 0 1 1 0 0 0 I I I I #
straight-curve $-1 169.25 44.75 192.00000000000009 0 0 -1 I I #
point $-1 169.25 44.75 188.8000000000001 #
face $-1 $224 $180 $3 $-1 $225 reversed single #
plane-surface $-1 169.25 44.75 192.00000000000009 0 1 0 0 0 1 0 I I I I #
coedge $-1 $226 $227 $129 $177 1 $228 $-1 #
edge $-1 $191 $181 $129 $229 0 #
coedge $-1 $211 $130 $227 $230 0 $180 $-1 #
coedge $-1 $130 $211 $132 $183 1 $180 $-1 #
loop $-1 $-1 $130 $174 #
vertex $-1 $131 $231 #
straight-curve $-1 166.75 44.375 189.99999 0 -1 0 I I #
edge $-1 $134 $213 $179 $232 0 #
point $-1 166.75 44.75 189.99999 #
loop $-1 $-1 $137 $221 #
vertex $-1 $138 $233 #
ellipse-curve $-1 166.00000000000003 44 189.99999 0 0 1 4.5 0 0 1 I I #
coedge $-1 $216 $139 $143 $195 0 $190 $-1 #
coedge $-1 $139 $216 $226 $234 1 $190 $-1 #
loop $-1 $-1 $139 $235 #
vertex $-1 $177 $236 #
straight-curve $-1 165.25 45.625 189.99999 0 1 0 I I #
straight-curve $-1 162.75 44.375 189.99999 0 1 0 I I #
edge $-1 $144 $219 $151 $237 0 #
edge $-1 $145 $218 $143 $238 0 #
point $-1 162.75 44.75 189.99999 #
point $-1 165.25 44.75 189.99999 #
loop $-1 $-1 $239 $147 #
plane-surface $-1 166.00000000000003 44 179.29999000000001 0 0 -1 -1 0 0 0 I I I I #
loop $-1 $-1 $240 $100 #
coedge $-1 $201 $201 $239 $241 1 $148 $-1 #
coedge $-1 $151 $150 $166 $215 1 $66 $-1 #
coedge $-1 $156 $166 $152 $204 0 $83 $-1 #
edge $-1 $205 $158 $152 $242 0 #
vertex $-1 $153 $243 #
straight-curve $-1 162.75 43.25 192.00000000000009 0 0 -1 I I #
point $-1 162.75 43.25 189.99999 #
straight-curve $-1 165.25 40.75 188.8000000000001 0 -1 0 I I #
point $-1 165.25 43.25 188.8000000000001 #
coedge $-1 $167 $163 $244 $245 0 $83 $-1 #
coedge $-1 $179 $178 $163 $212 1 $180 $-1 #
edge $-1 $213 $246 $211 $247 0 #
vertex $-1 $183 $248 #
straight-curve $-1 166.75 44.75 188.8000000000001 -1 0 0 I I #
edge $-1 $219 $205 $202 $249 0 #
coedge $-1 $189 $188 $167 $217 1 $190 $-1 #
edge $-1 $250 $218 $216 $251 0 #
vertex $-1 $195 $252 #
vertex $-1 $194 $253 #
straight-curve $-1 162.75 44.75 188.8000000000001 -1 0 0 I I #
face $-1 $62 $254 $3 $-1 $255 forward single #
loop $-1 $256 $257 $170 #
plane-surface $-1 166.00000000000003 44 187.29999000000001 0 0 -1 -1 0 0 0 I I I I #
face $-1 $235 $228 $3 $-1 $258 reversed single #
plane-surface $-1 166.75 44.75 192.00000000000009 1 0 0 0 0 -1 0 I I I I #
coedge $-1 $244 $176 $189 $234 0 $228 $-1 #
coedge $-1 $176 $244 $178 $230 1 $228 $-1 #
loop $-1 $-1 $176 $224 #
straight-curve $-1 166.375 47.25 189.99999 1 0 0 I I #
edge $-1 $181 $246 $227 $259 0 #
point $-1 166.75 47.25 189.99999 #
straight-curve $-1 166.75 44.75 192.00000000000009 0 0 -1 I I #
point $-1 170.50000000000003 44 189.99999 #
edge $-1 $191 $250 $189 $260 0 #
face $-1 $122 $190 $3 $-1 $261 reversed single #
point $-1 165.25 47.25 189.99999 #
straight-curve $-1 162.75 44.75 192.00000000000009 0 0 -1 I I #
straight-curve $-1 165.25 44.75 192.00000000000009 0 0 -1 I I #
coedge $-1 $239 $239 $201 $241 0 $198 $-1 #
coedge $-1 $240 $240 $262 $263 0 $200 $-1 #
edge $-1 $264 $264 $239 $265 0 #
straight-curve $-1 165.25 43.25 188.8000000000001 1 0 0 I I #
point $-1 162.75 43.25 188.8000000000001 #
coedge $-1 $227 $226 $210 $245 1 $228 $-1 #
edge $-1 $246 $250 $244 $266 0 #
vertex $-1 $230 $267 #
straight-curve $-1 166.75 47.25 188.8000000000001 0 1 0 I I #
point $-1 166.75 44.75 188.8000000000001 #
straight-curve $-1 162.75 43.25 188.8000000000001 0 -1 0 I I #
vertex $-1 $234 $268 #
straight-curve $-1 165.25 44.75 188.8000000000001 0 -1 0 I I #
point $-1 165.25 44.75 188.8000000000001 #
point $-1 162.75 44.75 188.8000000000001 #
loop $-1 $185 $269 $221 #
cone-surface $-1 166.00000000000003 44 188.64999 0 0 1 4.5 0 0 1 I I 0 1 0 I I I I #
loop $-1 $-1 $262 $170 #
coedge $-1 $257 $257 $269 $270 0 $222 $-1 #
plane-surface $-1 166.75 47.25 192.00000000000009 0 1 0 0 0 1 0 I I I I #
straight-curve $-1 166.75 47.25 192.00000000000009 0 0 -1 I I #
straight-curve $-1 165.25 47.25 192.00000000000009 0 0 -1 I I #
plane-surface $-1 165.25 47.25 192.00000000000009 -1 0 0 0 0 1 0 I I I I #
coedge $-1 $262 $262 $240 $263 1 $256 $-1 #
edge $-1 $271 $271 $240 $272 1 #
vertex $-1 $241 $273 #
ellipse-curve $-1 166.00000000000003 44 179.29999000000001 0 0 -1 2.1800000000000006 0 0 1 I I #
straight-curve $-1 165.25 47.25 188.8000000000001 -1 0 0 I I #
point $-1 166.75 47.25 188.8000000000001 #
point $-1 165.25 47.25 188.8000000000001 #
coedge $-1 $269 $269 $257 $270 1 $254 $-1 #
edge $-1 $274 $274 $257 $275 0 #
vertex $-1 $263 $276 #
ellipse-curve $-1 166.00000000000003 44 187.29999000000001 0 0 1 2.1800000000000006 0 0 1 I I #
point $-1 168.18000000000004 44 179.29999000000001 #
vertex $-1 $270 $277 #
ellipse-curve $-1 166.00000000000003 44 187.29999000000001 0 0 -1 4.5 0 0 1 I I #
point $-1 168.18000000000004 44 187.29999000000001 #
point $-1 170.50000000000003 44 187.29999000000001 #
End-of-ACIS-data 