600 0 1 0           
96 GICL ACIS Healer - Source: /gicl/data5/repository/CMU/scanner/screw_frame_to_base_back.sat - 6 0 18 ACIS 6.0.3 Solaris 24 Sat Apr 13 00:31:09 2002 
1 9.999999999999999547e-07 1.000000000000000036e-10 
body $-1 $1 $-1 $-1 #
lump $-1 $-1 $2 $0 #
shell $-1 $-1 $-1 $3 $-1 $1 #
face $-1 $4 $5 $2 $-1 $6 reversed single #
face $-1 $7 $8 $2 $-1 $9 reversed single #
loop $-1 $-1 $10 $3 #
plane-surface $-1 151.4433799999999906 97.5 31.85001000000000104 0.8660262547301302849 -0.4999985261159312078 0 0 0 -0.999999999999999889 forward_v I I I I #
face $-1 $11 $12 $2 $-1 $13 reversed single #
loop $-1 $-1 $14 $4 #
plane-surface $-1 148.556619999999981 97.5 31.85001000000000104 0 -1 0 0 0 -0.999999999999999889 forward_v I I I I #
coedge $-1 $15 $16 $17 $18 reversed $5 $-1 #
face $-1 $19 $20 $2 $-1 $21 reversed single #
loop $-1 $-1 $22 $7 #
plane-surface $-1 147.1132499999999652 100 31.85001000000000104 -0.8660262547301302849 -0.4999985261159313188 0 0 0 0.999999999999999889 forward_v I I I I #
coedge $-1 $23 $24 $25 $26 reversed $8 $-1 #
coedge $-1 $27 $10 $28 $29 forward $5 $-1 #
coedge $-1 $10 $27 $23 $30 reversed $5 $-1 #
coedge $-1 $25 $31 $10 $18 forward $32 $-1 #
edge $-1 $33 -2.165059627365192529 $34 0.7216888821000791987 $17 $35 forward 7 unknown #
face $-1 $36 $37 $2 $-1 $38 reversed single #
loop $-1 $-1 $39 $11 #
plane-surface $-1 148.556619999999981 102.5 31.85001000000000104 -0.8660262547301302849 0.4999985261159313188 0 0 0 0.999999999999999889 forward_v I I I I #
coedge $-1 $40 $41 $42 $43 reversed $12 $-1 #
coedge $-1 $44 $14 $16 $30 forward $8 $-1 #
coedge $-1 $14 $44 $40 $45 reversed $8 $-1 #
coedge $-1 $42 $17 $14 $26 forward $32 $-1 #
edge $-1 $34 -2.165069999999986283 $46 0.7216900000000238125 $25 $47 forward 7 unknown #
coedge $-1 $16 $15 $48 $49 reversed $5 $-1 #
coedge $-1 $50 $51 $15 $29 reversed $37 $-1 #
edge $-1 $33 2.00000999999999296 $52 5.00001000000000051 $28 $53 forward 7 unknown #
edge $-1 $34 2.00000999999999296 $54 5.00001000000000051 $16 $55 forward 7 unknown #
coedge $-1 $17 $56 $50 $57 forward $32 $-1 #
loop $-1 $58 $59 $60 #
vertex $-1 $18 $61 #
vertex $-1 $26 $62 #
straight-curve $-1 151.8042233773642806 98.1250015196455081 29.85000000000000853 -0.4999985261159311523 -0.8660262547301301739 0 I I #
face $-1 $63 $64 $2 $-1 $65 reversed single #
loop $-1 $-1 $50 $19 #
plane-surface $-1 152.8867499999999779 100 31.85001000000000104 0.8660262547301302849 0.4999985261159312078 0 0 0 -0.999999999999999889 forward_v I I I I #
coedge $-1 $66 $67 $59 $68 reversed $20 $-1 #
coedge $-1 $69 $22 $24 $45 forward $12 $-1 #
coedge $-1 $22 $69 $66 $70 reversed $12 $-1 #
coedge $-1 $59 $25 $22 $43 forward $32 $-1 #
edge $-1 $46 -2.165063136832683366 $71 0.7216853726326024621 $42 $72 forward 7 unknown #
coedge $-1 $24 $23 $73 $74 reversed $8 $-1 #
edge $-1 $46 2.00000999999999296 $75 5.00001000000000051 $24 $76 forward 7 unknown #
vertex $-1 $43 $77 #
straight-curve $-1 149.2783100000000047 97.50000000000001421 29.85000000000000853 -0.999999999999999889 0 0 I I #
coedge $-1 $78 $73 $27 $49 forward $79 $-1 #
edge $-1 $54 -2.886748509465271173 $52 0 $27 $80 forward 7 unknown #
coedge $-1 $81 $28 $31 $57 reversed $37 $-1 #
coedge $-1 $28 $81 $78 $82 reversed $37 $-1 #
vertex $-1 $29 $83 #
straight-curve $-1 152.8867499999999779 100 31.85001000000000104 0 0 -0.999999999999999889 I I #
vertex $-1 $30 $84 #
straight-curve $-1 151.4433799999999906 97.5 31.85001000000000104 0 0 -0.999999999999999889 I I #
coedge $-1 $31 $59 $85 $86 forward $32 $-1 #
edge $-1 $87 -2.165063136832710011 $33 0.7216853726325617169 $31 $88 forward 7 unknown #
loop $-1 $-1 $89 $60 #
coedge $-1 $56 $42 $39 $68 forward $32 $-1 #
face $-1 $90 $32 $2 $-1 $91 forward single #
point $-1 152.8867499999999779 100 29.85000000000000853 #
point $-1 151.4433799999999906 97.5 29.85000000000000853 #
face $-1 $92 $79 $2 $-1 $93 forward single #
loop $-1 $-1 $85 $36 #
plane-surface $-1 151.4433799999999906 102.5 31.85001000000000104 0 1 0 0 0 0.999999999999999889 forward_v I I I I #
coedge $-1 $94 $39 $41 $70 forward $20 $-1 #
coedge $-1 $39 $94 $95 $96 reversed $20 $-1 #
edge $-1 $71 -2.165059627365256034 $97 0.7216888821000300158 $59 $98 forward 7 unknown #
coedge $-1 $41 $40 $99 $100 reversed $12 $-1 #
edge $-1 $71 2.00000999999999296 $101 5.00001000000000051 $41 $102 forward 7 unknown #
vertex $-1 $68 $103 #
straight-curve $-1 147.4740916226357115 99.37500151964547968 29.85000000000000853 -0.4999985261159312633 0.8660262547301301739 0 I I #
coedge $-1 $48 $99 $44 $74 forward $79 $-1 #
edge $-1 $75 -2.886760000000009985 $54 0 $44 $104 forward 7 unknown #
vertex $-1 $45 $105 #
straight-curve $-1 148.556619999999981 97.5 31.85001000000000104 0 0 -0.999999999999999889 I I #
point $-1 148.556619999999981 97.5 29.85000000000000853 #
coedge $-1 $106 $48 $51 $82 forward $79 $-1 #
loop $-1 $-1 $107 $63 #
straight-curve $-1 152.8867499999999779 100 26.85000000000000142 0.4999985261159311523 0.8660262547301301739 0 I I #
coedge $-1 $51 $50 $108 $109 forward $37 $-1 #
edge $-1 $52 -2.886748509465271173 $110 0 $51 $111 forward 7 unknown #
point $-1 152.8867499999999779 100 26.85000000000000142 #
point $-1 151.4433799999999906 97.5 26.85000000000000142 #
coedge $-1 $95 $108 $56 $86 reversed $64 $-1 #
edge $-1 $97 -2.165070000000043127 $87 0.721689999999966969 $56 $112 forward 7 unknown #
vertex $-1 $57 $113 #
straight-curve $-1 152.5259083773642885 100.6249984803545061 29.85000000000000853 0.4999985261159311523 -0.8660262547301301739 0 I I #
coedge $-1 $89 $89 $114 $115 forward $58 $-1 #
face $-1 $116 $117 $2 $-1 $118 forward single #
plane-surface $-1 150.0000000000000568 100.0000000000000142 29.85000000000000853 0 0 1 0.999999999999999889 0 0 forward_v I I I I #
face $-1 $119 $120 $2 $-1 $121 forward single #
plane-surface $-1 148.556619999999981 102.5 26.85000000000000142 0 0 1 0.999999999999999889 0 0 forward_v I I I I #
coedge $-1 $67 $66 $107 $122 reversed $20 $-1 #
coedge $-1 $123 $85 $67 $96 forward $64 $-1 #
edge $-1 $97 2.00000999999999296 $124 5.00001000000000051 $67 $125 forward 7 unknown #
vertex $-1 $68 $126 #
straight-curve $-1 148.195776622635691 101.8749984803545487 29.85000000000000853 0.4999985261159312633 0.8660262547301301739 0 I I #
coedge $-1 $73 $107 $69 $100 forward $79 $-1 #
edge $-1 $101 -2.886748509465285828 $75 0 $69 $127 forward 7 unknown #
vertex $-1 $70 $128 #
straight-curve $-1 147.1132499999999652 100 31.85001000000000104 0 0 -0.999999999999999889 I I #
point $-1 147.1132499999999652 100 29.85000000000000853 #
straight-curve $-1 151.4433799999999906 97.5 26.85000000000000142 0.999999999999999889 0 0 I I #
point $-1 148.556619999999981 97.5 26.85000000000000142 #
coedge $-1 $107 $78 $123 $129 forward $79 $-1 #
coedge $-1 $99 $106 $94 $122 forward $79 $-1 #
coedge $-1 $85 $123 $81 $109 reversed $64 $-1 #
edge $-1 $87 2.00000999999999296 $110 5.00001000000000051 $108 $130 forward 7 unknown #
vertex $-1 $109 $131 #
straight-curve $-1 151.4433799999999906 102.5 26.85000000000000142 -0.4999985261159311523 0.8660262547301301739 0 I I #
straight-curve $-1 150.7216900000000237 102.5000000000000142 29.85000000000000853 0.999999999999999889 0 0 I I #
point $-1 151.4433799999999906 102.5 29.85000000000000853 #
coedge $-1 $114 $114 $89 $115 reversed $132 $-1 #
edge $-1 $133 0 $133 6.283185307179586232 $89 $134 forward 7 unknown #
face $-1 $-1 $135 $2 $-1 $136 forward single #
loop $-1 $137 $138 $90 #
cone-surface $-1 150.0000000000000568 100.0000000000000142 11.00000000000000178 0 0 1 2.909999999999999698 0 0 1 I I 0 1 2.909999999999999698 forward I I I I #
face $-1 $60 $139 $2 $-1 $140 forward single #
loop $-1 $141 $142 $92 #
plane-surface $-1 150.0000000000000568 100.0000000000000142 24.00000000000000711 0 0 -1 -0.999999999999999889 0 0 forward_v I I I I #
edge $-1 $124 -2.886748509465285828 $101 0 $94 $143 forward 7 unknown #
coedge $-1 $108 $95 $106 $129 reversed $64 $-1 #
vertex $-1 $96 $144 #
straight-curve $-1 148.556619999999981 102.5 31.85001000000000104 0 0 -0.999999999999999889 I I #
point $-1 148.556619999999981 102.5 29.85000000000000853 #
straight-curve $-1 148.556619999999981 97.5 26.85000000000000142 0.4999985261159312633 -0.8660262547301301739 0 I I #
point $-1 147.1132499999999652 100 26.85000000000000142 #
edge $-1 $110 -2.886760000000009985 $124 0 $123 $145 forward 7 unknown #
straight-curve $-1 151.4433799999999906 102.5 31.85001000000000104 0 0 -0.999999999999999889 I I #
point $-1 151.4433799999999906 102.5 26.85000000000000142 #
loop $-1 $-1 $114 $119 #
vertex $-1 $115 $146 #
ellipse-curve $-1 150.0000000000000568 100.0000000000000142 29.85000000000000853 0 0 1 4.999999999999999112 0 0 1 I I #
loop $-1 $-1 $147 $116 #
plane-surface $-1 150.0000000000000568 100.0000000000000142 -1.999999999999998002 0 0 -1 -0.999999999999999889 0 0 forward_v I I I I #
loop $-1 $-1 $148 $90 #
coedge $-1 $138 $138 $147 $149 reversed $117 $-1 #
loop $-1 $132 $150 $119 #
cone-surface $-1 150.0000000000000568 100.0000000000000142 26.92500000000000782 0 0 1 4.999999999999999112 0 0 1 I I 0 1 4.999999999999999112 forward I I I I #
loop $-1 $-1 $151 $92 #
coedge $-1 $142 $142 $150 $152 forward $120 $-1 #
straight-curve $-1 147.1132499999999652 100 26.85000000000000142 -0.4999985261159312633 -0.8660262547301301739 0 I I #
point $-1 148.556619999999981 102.5 26.85000000000000142 #
straight-curve $-1 148.556619999999981 102.5 26.85000000000000142 -0.999999999999999889 0 0 I I #
point $-1 155.0000000000000568 100.0000000000000142 29.85000000000000853 #
coedge $-1 $147 $147 $138 $149 forward $135 $-1 #
coedge $-1 $148 $148 $151 $153 forward $137 $-1 #
edge $-1 $154 0 $154 6.283185307179586232 $147 $155 forward 7 unknown #
coedge $-1 $150 $150 $142 $152 reversed $139 $-1 #
coedge $-1 $151 $151 $148 $153 reversed $141 $-1 #
edge $-1 $156 0 $156 6.283185307179586232 $142 $157 forward 7 unknown #
edge $-1 $158 -6.283185307179586232 $158 -0 $148 $159 reversed 7 unknown #
vertex $-1 $149 $160 #
ellipse-curve $-1 150.0000000000000568 100.0000000000000142 -1.999999999999998002 0 0 -1 2.909999999999999698 0 0 1 I I #
vertex $-1 $152 $161 #
ellipse-curve $-1 150.0000000000000568 100.0000000000000142 24.00000000000000711 0 0 -1 4.999999999999999112 0 0 1 I I #
vertex $-1 $153 $162 #
ellipse-curve $-1 150.0000000000000568 100.0000000000000142 24.00000000000000355 0 0 1 2.909999999999999698 0 0 1 I I #
point $-1 152.9100000000000534 100.0000000000000142 -1.999999999999998002 #
point $-1 155.0000000000000568 100.0000000000000142 24.00000000000000711 #
point $-1 152.9100000000000534 100.0000000000000142 24.00000000000000355 #
End-of-ACIS-data 