700 0 2 0           
24 FBMach with ACIS - 7.0.3 13 ACIS 7.0.3 NT 24 Mon May 13 17:06:31 2002 
1 9.9999999999999995e-007 1e-010 
body $2 -1 $-1 $3 $-1 $4 #
bdycol-kcp $-1 -1 1 4 $5 $6 $7 $8 #
model_id-kcp-attrib $-1 -1 $-1 $-1 $0 1 1021323990 1021323990 -1223557119 1 #
lump $-1 -1 $-1 $-1 $9 $0 #
transform $-1 -1 1 0 0 0 1 0 0 0 1 0 0 0 1 rotate no_reflect no_shear #
body $10 -1 $-1 $11 $-1 $12 #
body $13 -1 $-1 $14 $-1 $15 #
body $16 -1 $-1 $17 $-1 $18 #
body $19 -1 $-1 $20 $-1 $21 #
shell $-1 -1 $-1 $-1 $-1 $22 $-1 $3 #
model_id-kcp-attrib $-1 -1 $-1 $-1 $5 1 1021323990 1021323990 -1223557118 1 #
lump $-1 -1 $-1 $-1 $23 $5 #
transform $-1 -1 1 0 0 0 1 0 0 0 1 166 43.999999999999993 184.64998999999997 1 no_rotate no_reflect no_shear #
rgb_color-st-attrib $-1 -1 $24 $-1 $6 0.5 1 1 #
lump $-1 -1 $-1 $-1 $25 $6 #
transform $-1 -1 1 0 0 0 1 0 0 0 1 166 43.999999999999993 184.64998999999997 1 no_rotate no_reflect no_shear #
rgb_color-st-attrib $-1 -1 $26 $-1 $7 0 0 1 #
lump $-1 -1 $-1 $-1 $27 $7 #
transform $-1 -1 1 0 0 0 1 0 0 0 1 166 43.999999999999993 184.64998999999997 1 no_rotate no_reflect no_shear #
rgb_color-st-attrib $-1 -1 $28 $-1 $8 1 0.5 1 #
lump $-1 -1 $-1 $-1 $29 $8 #
transform $-1 -1 1 0 0 0 1 0 0 0 1 166 43.999999999999993 184.64998999999997 1 no_rotate no_reflect no_shear #
face $30 -1 $-1 $31 $32 $9 $-1 $33 reversed single #
shell $-1 -1 $-1 $-1 $-1 $34 $-1 $11 #
model_id-kcp-attrib $-1 -1 $-1 $13 $6 1 1021323990 1021323990 -1218314237 1 #
shell $-1 -1 $-1 $-1 $-1 $35 $-1 $14 #
model_id-kcp-attrib $-1 -1 $-1 $16 $7 1 1021323990 1021323990 -1214119932 1 #
shell $-1 -1 $-1 $-1 $-1 $36 $-1 $17 #
model_id-kcp-attrib $-1 -1 $-1 $19 $8 1 1021323990 1021323991 -1221459963 1 #
shell $-1 -1 $-1 $-1 $-1 $37 $-1 $20 #
model_id-kcp-attrib $-1 -1 $-1 $-1 $22 1 1021323990 1021323990 -1223557119 2 #
face $38 -1 $-1 $39 $40 $9 $-1 $41 reversed single #
loop $-1 -1 $-1 $-1 $42 $22 #
plane-surface $-1 -1 $-1 166.74999999999997 43.249999999999993 192.00000000000006 0 -1 0 0 0 -0.99999999999999989 forward_v I I I I #
face $43 -1 $-1 $44 $45 $23 $-1 $46 forward single #
face $-1 -1 $-1 $47 $48 $25 $-1 $49 reversed single #
face $-1 -1 $-1 $50 $51 $27 $-1 $52 forward single #
face $-1 -1 $-1 $53 $54 $29 $-1 $55 forward single #
model_id-kcp-attrib $-1 -1 $-1 $-1 $31 1 1021323990 1021323990 -1223557119 3 #
face $56 -1 $-1 $57 $58 $9 $-1 $59 reversed single #
loop $-1 -1 $-1 $-1 $60 $31 #
plane-surface $-1 -1 $-1 166.74999999999997 40.749999999999993 192.00000000000006 1 0 0 0 0 -0.99999999999999989 forward_v I I I I #
coedge $-1 -1 $-1 $61 $62 $63 $64 reversed $32 $-1 #
model_id-kcp-attrib $-1 -1 $-1 $-1 $34 1 1021323990 1021323990 -1223557118 2 #
face $65 -1 $-1 $66 $67 $23 $-1 $68 reversed single #
loop $-1 -1 $-1 $-1 $69 $34 #
plane-surface $-1 -1 $-1 0 0 5.3499999999999943 0 0 1 1 0 0 forward_v I I I I #
face $-1 -1 $-1 $70 $71 $25 $-1 $49 reversed single #
loop $-1 -1 $-1 $-1 $72 $35 #
cone-surface $-1 -1 $-1 0 0 5.3499999999999943 0 0 1 4.4999999999999991 0 0 1 I I 0 1 4.4999999999999991 forward I I I I #
face $-1 -1 $-1 $73 $74 $27 $-1 $75 forward single #
loop $-1 -1 $-1 $-1 $76 $36 #
plane-surface $-1 -1 $-1 0.74999999999997158 -0.75 4.1500100000000941 1 0 0 0 0 -1 forward_v I I I I #
face $-1 -1 $-1 $77 $78 $29 $-1 $79 forward single #
loop $-1 -1 $-1 $80 $81 $37 #
cone-surface $-1 -1 $-1 0 0 2.6500000000000199 0 0 -1 2.1800000000000002 0 0 1 I I 0 -1 2.1800000000000002 forward I I I I #
model_id-kcp-attrib $-1 -1 $-1 $-1 $39 1 1021323990 1021323990 -1223557119 4 #
face $82 -1 $-1 $83 $84 $9 $-1 $85 reversed single #
loop $-1 -1 $-1 $-1 $86 $39 #
plane-surface $-1 -1 $-1 165.24999999999997 40.749999999999993 192.00000000000006 0 -1 0 0 0 -0.99999999999999989 forward_v I I I I #
coedge $-1 -1 $-1 $87 $88 $89 $90 reversed $40 $-1 #
coedge $-1 -1 $-1 $91 $42 $92 $93 forward $32 $-1 #
coedge $-1 -1 $-1 $42 $91 $87 $94 reversed $32 $-1 #
coedge $-1 -1 $-1 $89 $95 $42 $64 forward $96 $-1 #
edge $97 -1 $-1 $98 -2.8750000000000004 $99 -0.37500000000000006 $63 $100 forward @7 unknown #
model_id-kcp-attrib $-1 -1 $-1 $-1 $44 1 1021323990 1021323990 -1223557118 3 #
face $-1 -1 $-1 $101 $102 $23 $-1 $103 reversed single #
loop $-1 -1 $-1 $-1 $104 $44 #
plane-surface $-1 -1 $-1 0 0 -5.3499999999999943 0 0 1 1 0 0 forward_v I I I I #
coedge $-1 -1 $-1 $105 $106 $107 $108 forward $45 $-1 #
face $-1 -1 $-1 $109 $110 $25 $-1 $49 reversed single #
loop $-1 -1 $-1 $-1 $111 $47 #
coedge $-1 -1 $-1 $112 $113 $114 $115 reversed $48 $-1 #
face $-1 -1 $-1 $116 $117 $27 $-1 $118 forward single #
loop $-1 -1 $-1 $-1 $119 $50 #
plane-surface $-1 -1 $-1 0.74999999999997158 -3.25 4.1500100000000941 0 -1 0 0 0 -1 forward_v I I I I #
coedge $-1 -1 $-1 $120 $121 $122 $123 forward $51 $-1 #
face $-1 -1 $-1 $124 $125 $29 $-1 $126 reversed single #
loop $-1 -1 $-1 $127 $128 $53 #
cone-surface $-1 -1 $-1 0 0 2.6500000000000199 0 0 -1 4.4999999999999991 0 0 1 I I 0 1 4.4999999999999991 forward I I I I #
loop $-1 -1 $-1 $-1 $129 $37 #
coedge $-1 -1 $-1 $81 $81 $130 $131 forward $54 $-1 #
model_id-kcp-attrib $-1 -1 $-1 $-1 $57 1 1021323990 1021323990 -1223557119 5 #
face $132 -1 $-1 $133 $134 $9 $-1 $135 reversed single #
loop $-1 -1 $-1 $-1 $136 $57 #
plane-surface $-1 -1 $-1 165.24999999999997 43.249999999999993 192.00000000000006 -1 0 0 0 0 0.99999999999999989 forward_v I I I I #
coedge $-1 -1 $-1 $137 $138 $139 $140 reversed $58 $-1 #
coedge $-1 -1 $-1 $141 $60 $62 $94 forward $40 $-1 #
coedge $-1 -1 $-1 $60 $141 $137 $142 reversed $40 $-1 #
coedge $-1 -1 $-1 $139 $63 $60 $90 forward $96 $-1 #
edge $143 -1 $-1 $99 -0.87500000000000011 $144 1.6250000000000002 $89 $145 forward @7 unknown #
coedge $-1 -1 $-1 $62 $61 $146 $147 reversed $32 $-1 #
coedge $-1 -1 $-1 $148 $149 $61 $93 reversed $150 $-1 #
edge $-1 -1 $-1 $98 2.0000100000000889 $151 3.1999999999999891 $92 $152 forward @7 unknown #
edge $-1 -1 $-1 $99 2.0000100000000889 $153 3.1999999999999891 $62 $154 forward @7 unknown #
coedge $-1 -1 $-1 $63 $155 $148 $156 forward $96 $-1 #
loop $-1 -1 $-1 $157 $158 $159 #
attrib_edge_convexity-kcp-attrib $-1 -1 $160 $-1 $64 1 #
vertex $-1 -1 $-1 $64 $161 #
vertex $-1 -1 $-1 $90 $162 #
straight-curve $-1 -1 $-1 166.37499999999997 43.249999999999993 189.99998999999997 -0.99999999999999989 0 0 I I #
face $-1 -1 $-1 $163 $164 $23 $-1 $165 reversed single #
loop $-1 -1 $-1 $-1 $166 $66 #
plane-surface $-1 -1 $-1 0 -4.5 0 0 1 0 0 0 1 forward_v I I I I #
coedge $-1 -1 $-1 $167 $168 $169 $170 forward $67 $-1 #
coedge $-1 -1 $-1 $171 $69 $172 $173 forward $45 $-1 #
coedge $-1 -1 $-1 $69 $171 $174 $175 forward $45 $-1 #
coedge $-1 -1 $-1 $176 $177 $69 $108 reversed $178 $-1 #
edge $-1 -1 $-1 $179 -4.5 $180 4.5 $107 $181 forward @7 unknown #
face $-1 -1 $-1 $182 $183 $25 $-1 $49 reversed single #
loop $-1 -1 $-1 $-1 $184 $70 #
coedge $-1 -1 $-1 $185 $186 $187 $188 reversed $71 $-1 #
coedge $-1 -1 $-1 $189 $72 $190 $191 reversed $48 $-1 #
coedge $-1 -1 $-1 $72 $189 $192 $193 reversed $48 $-1 #
coedge $-1 -1 $-1 $194 $195 $196 $115 forward $197 $-1 #
edge $-1 -1 $-1 $198 -10.699999999999989 $199 0 $114 $200 forward @7 unknown #
face $-1 -1 $-1 $201 $202 $27 $-1 $203 forward single #
loop $-1 -1 $-1 $-1 $204 $73 #
plane-surface $-1 -1 $-1 -0.75000000000002842 -3.25 4.1500100000000941 -1 0 0 0 0 1 forward_v I I I I #
coedge $-1 -1 $-1 $205 $206 $207 $208 forward $74 $-1 #
coedge $-1 -1 $-1 $209 $76 $206 $210 reversed $51 $-1 #
coedge $-1 -1 $-1 $76 $209 $211 $212 forward $51 $-1 #
coedge $-1 -1 $-1 $213 $207 $76 $123 reversed $214 $-1 #
edge $-1 -1 $-1 $215 -0.875 $216 1.625 $76 $217 forward @7 unknown #
face $-1 -1 $-1 $-1 $218 $29 $-1 $219 forward single #
loop $-1 -1 $-1 $220 $221 $77 #
plane-surface $-1 -1 $-1 -0.21090909090909077 5.6176496358301244e-017 -5.3499999999999801 0 0 1 1 0 0 forward_v I I I I #
loop $-1 -1 $-1 $-1 $222 $53 #
coedge $-1 -1 $-1 $128 $128 $221 $223 forward $78 $-1 #
coedge $-1 -1 $-1 $129 $129 $224 $225 reversed $80 $-1 #
coedge $-1 -1 $-1 $130 $130 $81 $131 reversed $220 $-1 #
edge $-1 -1 $-1 $226 0 $226 6.2831853071795862 $81 $227 forward @7 unknown #
model_id-kcp-attrib $-1 -1 $-1 $-1 $83 1 1021323990 1021323990 -1223557119 6 #
face $228 -1 $-1 $229 $230 $9 $-1 $231 reversed single #
loop $-1 -1 $-1 $-1 $232 $83 #
plane-surface $-1 -1 $-1 162.74999999999997 43.249999999999993 192.00000000000006 0 -1 0 0 0 -0.99999999999999989 forward_v I I I I #
coedge $-1 -1 $-1 $233 $234 $235 $236 reversed $84 $-1 #
coedge $-1 -1 $-1 $237 $86 $88 $142 forward $58 $-1 #
coedge $-1 -1 $-1 $86 $237 $233 $238 reversed $58 $-1 #
coedge $-1 -1 $-1 $235 $89 $86 $140 forward $96 $-1 #
edge $239 -1 $-1 $144 -1.1250000000000002 $240 0.37500000000000006 $139 $241 forward @7 unknown #
coedge $-1 -1 $-1 $88 $87 $242 $243 reversed $40 $-1 #
edge $-1 -1 $-1 $144 2.0000100000000889 $244 3.1999999999999891 $88 $245 forward @7 unknown #
attrib_edge_convexity-kcp-attrib $-1 -1 $246 $-1 $90 1 #
vertex $-1 -1 $-1 $140 $247 #
straight-curve $-1 -1 $-1 166.74999999999997 42.374999999999993 189.99998999999997 0 -0.99999999999999989 0 I I #
coedge $-1 -1 $-1 $248 $242 $91 $147 forward $249 $-1 #
edge $250 -1 $-1 $153 -2.5000000000000004 $151 0 $91 $251 forward @7 unknown #
coedge $-1 -1 $-1 $252 $92 $95 $156 reversed $150 $-1 #
coedge $-1 -1 $-1 $92 $252 $248 $253 reversed $150 $-1 #
loop $-1 -1 $-1 $-1 $148 $254 #
vertex $-1 -1 $-1 $93 $255 #
straight-curve $-1 -1 $-1 169.24999999999997 43.249999999999993 192.00000000000006 0 0 -0.99999999999999989 I I #
vertex $-1 -1 $-1 $94 $256 #
straight-curve $-1 -1 $-1 166.74999999999997 43.249999999999993 192.00000000000006 0 0 -0.99999999999999989 I I #
coedge $-1 -1 $-1 $95 $257 $258 $259 forward $96 $-1 #
edge $260 -1 $-1 $261 -1.1250000000000002 $98 0.37500000000000006 $95 $262 forward @7 unknown #
loop $-1 -1 $-1 $-1 $263 $159 #
coedge $-1 -1 $-1 $264 $265 $266 $267 forward $96 $-1 #
face $268 -1 $-1 $269 $96 $9 $-1 $270 forward single #
convexity-sys-attrib $-1 -1 $-1 $97 $64 #
point $-1 -1 $-1 169.24999999999997 43.249999999999993 189.99998999999997 #
point $-1 -1 $-1 166.74999999999997 43.249999999999993 189.99998999999997 #
face $-1 -1 $-1 $271 $272 $23 $-1 $273 reversed single #
loop $-1 -1 $-1 $-1 $274 $101 #
plane-surface $-1 -1 $-1 -4.5 0 0 1 0 0 0 0 -1 forward_v I I I I #
coedge $-1 -1 $-1 $275 $174 $276 $277 forward $102 $-1 #
coedge $-1 -1 $-1 $278 $104 $275 $279 forward $67 $-1 #
coedge $-1 -1 $-1 $104 $278 $280 $281 forward $67 $-1 #
coedge $-1 -1 $-1 $177 $176 $104 $170 reversed $178 $-1 #
edge $-1 -1 $-1 $282 -4.5 $283 4.5 $169 $284 forward @7 unknown #
coedge $-1 -1 $-1 $106 $105 $285 $286 forward $45 $-1 #
coedge $-1 -1 $-1 $287 $288 $105 $173 reversed $272 $-1 #
edge $-1 -1 $-1 $180 -4.5 $289 4.5 $172 $290 forward @7 unknown #
coedge $-1 -1 $-1 $166 $291 $106 $175 reversed $102 $-1 #
edge $-1 -1 $-1 $292 -4.5 $179 4.5 $174 $293 forward @7 unknown #
coedge $-1 -1 $-1 $169 $107 $291 $294 forward $178 $-1 #
coedge $-1 -1 $-1 $107 $169 $287 $295 reversed $178 $-1 #
loop $-1 -1 $-1 $-1 $176 $271 #
vertex $-1 -1 $-1 $108 $296 #
vertex $-1 -1 $-1 $108 $297 #
straight-curve $-1 -1 $-1 4.5 0 5.3499999999999943 0 1 0 I I #
face $-1 -1 $-1 $298 $299 $25 $-1 $300 reversed single #
loop $-1 -1 $-1 $-1 $301 $109 #
coedge $-1 -1 $-1 $302 $303 $304 $305 reversed $110 $-1 #
coedge $-1 -1 $-1 $306 $111 $307 $308 reversed $71 $-1 #
coedge $-1 -1 $-1 $111 $306 $72 $115 forward $71 $-1 #
coedge $-1 -1 $-1 $309 $310 $111 $188 forward $311 $-1 #
edge $-1 -1 $-1 $312 -3.1415926535897931 $199 -1.5707963267948966 $187 $313 forward @7 unknown #
coedge $-1 -1 $-1 $113 $112 $303 $314 forward $48 $-1 #
coedge $-1 -1 $-1 $315 $316 $112 $191 forward $317 $-1 #
edge $-1 -1 $-1 $318 0 $198 1.5707963267948966 $190 $319 forward @7 unknown #
coedge $-1 -1 $-1 $320 $321 $113 $193 forward $322 $-1 #
edge $-1 -1 $-1 $199 -1.5707963267948966 $323 0 $192 $313 forward @7 unknown #
coedge $-1 -1 $-1 $324 $114 $321 $325 reversed $197 $-1 #
coedge $-1 -1 $-1 $114 $324 $315 $326 reversed $197 $-1 #
coedge $-1 -1 $-1 $327 $328 $186 $115 reversed $329 $-1 #
loop $-1 -1 $-1 $-1 $114 $330 #
vertex $-1 -1 $-1 $326 $331 #
vertex $-1 -1 $-1 $332 $333 #
straight-curve $-1 -1 $-1 0 4.5 5.3499999999999943 0 0 1 I I #
face $-1 -1 $-1 $334 $335 $27 $-1 $336 forward single #
loop $-1 -1 $-1 $-1 $337 $116 #
plane-surface $-1 -1 $-1 -0.75000000000002842 -0.75 4.1500100000000941 0 -1 0 0 0 -1 forward_v I I I I #
coedge $-1 -1 $-1 $338 $339 $340 $341 forward $117 $-1 #
coedge $-1 -1 $-1 $342 $119 $339 $343 reversed $74 $-1 #
coedge $-1 -1 $-1 $119 $342 $120 $210 forward $74 $-1 #
coedge $-1 -1 $-1 $122 $340 $119 $208 reversed $214 $-1 #
edge $-1 -1 $-1 $216 -1.125 $344 0.375 $119 $345 forward @7 unknown #
coedge $-1 -1 $-1 $121 $120 $346 $347 reversed $51 $-1 #
edge $348 -1 $-1 $349 0 $216 1.1999899999999002 $206 $350 forward @7 unknown #
coedge $-1 -1 $-1 $351 $352 $121 $212 reversed $353 $-1 #
edge $-1 -1 $-1 $354 0 $215 1.1999899999999002 $121 $355 forward @7 unknown #
coedge $-1 -1 $-1 $356 $122 $352 $357 reversed $214 $-1 #
loop $-1 -1 $-1 $-1 $122 $358 #
vertex $-1 -1 $-1 $212 $359 #
vertex $-1 -1 $-1 $210 $360 #
straight-curve $-1 -1 $-1 0.74999999999997158 -1.625 5.3499999999999801 0 -1 0 I I #
loop $-1 -1 $-1 $361 $362 $124 #
plane-surface $-1 -1 $-1 -0.21090909090909077 5.6176496358301244e-017 2.6500000000000199 0 0 1 1 0 0 forward_v I I I I #
loop $-1 -1 $-1 $-1 $130 $77 #
coedge $-1 -1 $-1 $221 $221 $128 $223 reversed $125 $-1 #
coedge $-1 -1 $-1 $222 $222 $362 $363 reversed $127 $-1 #
edge $-1 -1 $-1 $364 -3.1415926535897931 $364 3.1415926535897931 $128 $365 forward @7 unknown #
coedge $-1 -1 $-1 $224 $224 $129 $225 forward $361 $-1 #
edge $366 -1 $-1 $367 0 $367 6.2831853071795862 $129 $368 forward @7 unknown #
vertex $-1 -1 $-1 $131 $369 #
ellipse-curve $-1 -1 $-1 0 0 -5.3499999999999801 0 0 -1 2.1800000000000002 0 0 1 I I #
model_id-kcp-attrib $-1 -1 $-1 $-1 $133 1 1021323990 1021323990 -1223557119 7 #
face $370 -1 $-1 $254 $371 $9 $-1 $372 reversed single #
loop $-1 -1 $-1 $-1 $373 $133 #
plane-surface $-1 -1 $-1 162.74999999999997 44.749999999999993 192.00000000000006 -1 0 0 0 0 0.99999999999999989 forward_v I I I I #
coedge $-1 -1 $-1 $374 $375 $376 $377 reversed $134 $-1 #
coedge $-1 -1 $-1 $378 $136 $138 $238 forward $84 $-1 #
coedge $-1 -1 $-1 $136 $378 $374 $379 reversed $84 $-1 #
coedge $-1 -1 $-1 $376 $139 $136 $236 forward $96 $-1 #
edge $380 -1 $-1 $240 -2.8750000000000004 $381 -0.37500000000000006 $235 $382 forward @7 unknown #
coedge $-1 -1 $-1 $138 $137 $383 $384 reversed $58 $-1 #
edge $-1 -1 $-1 $240 2.0000100000000889 $385 3.1999999999999891 $138 $386 forward @7 unknown #
attrib_edge_convexity-kcp-attrib $-1 -1 $387 $-1 $140 1 #
vertex $-1 -1 $-1 $236 $388 #
straight-curve $-1 -1 $-1 165.62499999999997 40.749999999999993 189.99998999999997 -0.99999999999999989 0 0 I I #
coedge $-1 -1 $-1 $146 $383 $141 $243 forward $249 $-1 #
edge $389 -1 $-1 $244 -2.5000000000000004 $153 0 $141 $390 forward @7 unknown #
vertex $-1 -1 $-1 $142 $391 #
straight-curve $-1 -1 $-1 166.74999999999997 40.749999999999993 192.00000000000006 0 0 -0.99999999999999989 I I #
convexity-sys-attrib $-1 -1 $-1 $143 $90 #
point $-1 -1 $-1 166.74999999999997 40.749999999999993 189.99998999999997 #
coedge $-1 -1 $-1 $392 $146 $149 $253 forward $249 $-1 #
loop $-1 -1 $-1 $-1 $393 $394 #
attrib_edge_convexity-kcp-attrib $-1 -1 $395 $-1 $147 2 #
straight-curve $-1 -1 $-1 169.24999999999997 43.249999999999993 188.80000000000007 0.99999999999999989 0 0 I I #
coedge $-1 -1 $-1 $149 $148 $396 $397 forward $150 $-1 #
edge $398 -1 $-1 $151 -1.5000000000000002 $399 0 $149 $400 forward @7 unknown #
face $401 -1 $-1 $402 $150 $9 $-1 $403 reversed single #
point $-1 -1 $-1 169.24999999999997 43.249999999999993 188.80000000000007 #
point $-1 -1 $-1 166.74999999999997 43.249999999999993 188.80000000000007 #
coedge $-1 -1 $-1 $155 $404 $405 $406 forward $96 $-1 #
coedge $-1 -1 $-1 $407 $396 $155 $259 reversed $408 $-1 #
edge $409 -1 $-1 $410 -0.87500000000000011 $261 1.6250000000000002 $155 $411 forward @7 unknown #
attrib_edge_convexity-kcp-attrib $-1 -1 $412 $-1 $156 1 #
vertex $-1 -1 $-1 $156 $413 #
straight-curve $-1 -1 $-1 169.24999999999997 43.624999999999993 189.99998999999997 0 -0.99999999999999989 0 I I #
coedge $-1 -1 $-1 $263 $263 $414 $415 forward $157 $-1 #
coedge $-1 -1 $-1 $404 $158 $416 $417 forward $96 $-1 #
coedge $-1 -1 $-1 $158 $376 $373 $418 forward $96 $-1 #
coedge $-1 -1 $-1 $419 $420 $158 $267 reversed $371 $-1 #
edge $421 -1 $-1 $422 -2.8750000000000004 $423 -0.37500000000000006 $158 $424 forward @7 unknown #
model_id-kcp-attrib $-1 -1 $-1 $-1 $159 1 1021323990 1021323990 -1223557119 17 #
face $425 -1 $-1 $426 $427 $9 $-1 $428 forward single #
plane-surface $-1 -1 $-1 166 43.999999999999993 189.99998999999997 0 0 1 0.99999999999999989 0 0 forward_v I I I I #
face $-1 -1 $-1 $-1 $178 $23 $-1 $429 reversed single #
loop $-1 -1 $-1 $-1 $287 $163 #
plane-surface $-1 -1 $-1 0 4.5 0 0 -1 0 0 0 -1 forward_v I I I I #
coedge $-1 -1 $-1 $430 $285 $288 $431 forward $164 $-1 #
coedge $-1 -1 $-1 $291 $166 $167 $279 reversed $102 $-1 #
coedge $-1 -1 $-1 $285 $430 $166 $277 reversed $164 $-1 #
edge $-1 -1 $-1 $292 -5.3499999999999943 $432 5.3499999999999943 $276 $433 forward @7 unknown #
coedge $-1 -1 $-1 $168 $167 $430 $434 forward $67 $-1 #
edge $-1 -1 $-1 $283 -4.5 $432 4.5 $275 $435 forward @7 unknown #
coedge $-1 -1 $-1 $288 $287 $168 $281 reversed $272 $-1 #
edge $-1 -1 $-1 $436 -4.5 $282 4.5 $280 $437 forward @7 unknown #
vertex $-1 -1 $-1 $170 $438 #
vertex $-1 -1 $-1 $294 $439 #
straight-curve $-1 -1 $-1 4.5 0 -5.3499999999999943 0 -1 0 I I #
coedge $-1 -1 $-1 $274 $276 $171 $286 reversed $164 $-1 #
edge $-1 -1 $-1 $289 -4.5 $292 4.5 $285 $440 forward @7 unknown #
coedge $-1 -1 $-1 $280 $172 $177 $295 forward $272 $-1 #
coedge $-1 -1 $-1 $172 $280 $274 $431 reversed $272 $-1 #
vertex $-1 -1 $-1 $173 $441 #
straight-curve $-1 -1 $-1 0 4.5 5.3499999999999943 -1 0 0 I I #
coedge $-1 -1 $-1 $174 $275 $176 $294 reversed $102 $-1 #
vertex $-1 -1 $-1 $286 $442 #
straight-curve $-1 -1 $-1 0 -4.5 5.3499999999999943 1 0 0 I I #
edge $-1 -1 $-1 $179 -5.3499999999999943 $283 5.3499999999999943 $176 $443 forward @7 unknown #
edge $-1 -1 $-1 $180 -5.3499999999999943 $282 5.3499999999999943 $177 $444 forward @7 unknown #
point $-1 -1 $-1 4.5 -4.5 5.3499999999999943 #
point $-1 -1 $-1 4.5 4.5 5.3499999999999943 #
face $-1 -1 $-1 $445 $329 $25 $-1 $446 reversed single #
loop $-1 -1 $-1 $-1 $447 $182 #
plane-surface $-1 -1 $-1 4.5 0 0 -1 0 0 0 0 1 forward_v I I I I #
coedge $-1 -1 $-1 $448 $449 $450 $451 reversed $183 $-1 #
coedge $-1 -1 $-1 $452 $184 $449 $453 forward $110 $-1 #
coedge $-1 -1 $-1 $184 $452 $454 $314 reversed $110 $-1 #
coedge $-1 -1 $-1 $455 $456 $184 $305 forward $457 $-1 #
edge $-1 -1 $-1 $458 -1.5707963267948966 $318 0 $304 $319 forward @7 unknown #
coedge $-1 -1 $-1 $186 $185 $459 $460 reversed $71 $-1 #
coedge $-1 -1 $-1 $461 $462 $463 $308 forward $464 $-1 #
edge $-1 -1 $-1 $465 -10.699999999999989 $312 0 $307 $466 forward @7 unknown #
coedge $-1 -1 $-1 $310 $187 $328 $332 forward $311 $-1 #
coedge $-1 -1 $-1 $187 $309 $461 $467 forward $311 $-1 #
loop $-1 -1 $-1 $-1 $187 $468 #
vertex $-1 -1 $-1 $469 $470 #
ellipse-curve $-1 -1 $-1 0 0 5.3499999999999943 0 0 -1 4.4999999999999991 0 0 1 I I #
edge $-1 -1 $-1 $318 -10.699999999999989 $323 0 $454 $471 forward @7 unknown #
coedge $-1 -1 $-1 $316 $190 $195 $326 forward $317 $-1 #
coedge $-1 -1 $-1 $190 $315 $472 $473 forward $317 $-1 #
loop $-1 -1 $-1 $-1 $190 $474 #
vertex $-1 -1 $-1 $475 $476 #
ellipse-curve $-1 -1 $-1 0 0 -5.3499999999999943 0 0 1 4.4999999999999991 0 0 1 I I #
coedge $-1 -1 $-1 $321 $192 $477 $478 forward $322 $-1 #
coedge $-1 -1 $-1 $192 $320 $194 $325 forward $322 $-1 #
loop $-1 -1 $-1 $-1 $192 $479 #
vertex $-1 -1 $-1 $478 $480 #
coedge $-1 -1 $-1 $195 $194 $481 $482 forward $197 $-1 #
edge $-1 -1 $-1 $483 -4.5 $199 0 $194 $484 forward @7 unknown #
edge $-1 -1 $-1 $198 0 $485 4.5 $195 $486 forward @7 unknown #
coedge $-1 -1 $-1 $487 $196 $488 $489 reversed $329 $-1 #
coedge $-1 -1 $-1 $196 $487 $309 $332 reversed $329 $-1 #
loop $-1 -1 $-1 $-1 $196 $298 #
face $-1 -1 $-1 $490 $197 $25 $-1 $446 reversed single #
point $-1 -1 $-1 0 4.5 -5.3499999999999943 #
edge $-1 -1 $-1 $199 0 $491 4.5 $328 $484 forward @7 unknown #
point $-1 -1 $-1 0 4.5 5.3499999999999943 #
face $-1 -1 $-1 $492 $493 $27 $-1 $494 forward single #
loop $-1 -1 $-1 $-1 $495 $201 #
plane-surface $-1 -1 $-1 -3.2500000000000284 -0.75 4.1500100000000941 -1 0 0 0 0 1 forward_v I I I I #
coedge $-1 -1 $-1 $496 $497 $498 $499 forward $202 $-1 #
coedge $-1 -1 $-1 $500 $204 $497 $501 reversed $117 $-1 #
coedge $-1 -1 $-1 $204 $500 $205 $343 forward $117 $-1 #
coedge $-1 -1 $-1 $207 $498 $204 $341 reversed $214 $-1 #
edge $-1 -1 $-1 $344 -2.875 $502 -0.375 $204 $503 forward @7 unknown #
coedge $-1 -1 $-1 $206 $205 $504 $505 reversed $74 $-1 #
edge $-1 -1 $-1 $506 0 $344 1.1999899999999002 $339 $507 forward @7 unknown #
vertex $-1 -1 $-1 $343 $508 #
straight-curve $-1 -1 $-1 -0.37500000000002842 -3.25 5.3499999999999801 -1 0 0 I I #
coedge $-1 -1 $-1 $504 $509 $209 $347 forward $510 $-1 #
edge $511 -1 $-1 $354 -0.875 $349 1.625 $209 $512 forward @7 unknown #
convexity-sys-attrib $-1 -1 $-1 $-1 $210 #
vertex $-1 -1 $-1 $347 $513 #
straight-curve $-1 -1 $-1 0.74999999999997158 -3.25 4.1500100000000941 0 0 1 I I #
coedge $-1 -1 $-1 $514 $211 $509 $515 reversed $353 $-1 #
coedge $-1 -1 $-1 $211 $514 $213 $357 forward $353 $-1 #
loop $-1 -1 $-1 $-1 $352 $516 #
vertex $-1 -1 $-1 $515 $517 #
straight-curve $-1 -1 $-1 0.74999999999997158 -0.75 4.1500100000000941 0 0 1 I I #
coedge $-1 -1 $-1 $518 $213 $519 $520 reversed $214 $-1 #
edge $-1 -1 $-1 $521 -2.875 $215 -0.375 $352 $522 forward @7 unknown #
face $-1 -1 $-1 $523 $214 $27 $-1 $524 forward single #
point $-1 -1 $-1 0.74999999999997158 -0.75 5.3499999999999943 #
point $-1 -1 $-1 0.74999999999997158 -3.25 5.3499999999999943 #
loop $-1 -1 $-1 $-1 $224 $124 #
coedge $-1 -1 $-1 $362 $362 $222 $363 forward $218 $-1 #
edge $525 -1 $-1 $526 -3.1415926535897931 $526 3.1415926535897931 $222 $527 forward @7 unknown #
vertex $-1 -1 $-1 $223 $528 #
ellipse-curve $-1 -1 $-1 0 0 -5.3499999999999801 0 0 1 4.4999999999999991 0 0 1 I I #
convexity-sys-attrib $-1 -1 $-1 $-1 $225 #
vertex $-1 -1 $-1 $225 $529 #
ellipse-curve $-1 -1 $-1 0 0 2.6500000000000199 0 0 -1 2.1800000000000002 0 0 1 I I #
point $-1 -1 $-1 2.1800000000000068 0 -5.3499999999999943 #
model_id-kcp-attrib $-1 -1 $-1 $-1 $229 1 1021323990 1021323990 -1223557119 8 #
loop $-1 -1 $-1 $-1 $266 $229 #
plane-surface $-1 -1 $-1 165.24999999999997 44.749999999999993 192.00000000000006 0 1 0 0 0 0.99999999999999989 forward_v I I I I #
coedge $-1 -1 $-1 $530 $531 $265 $418 reversed $230 $-1 #
coedge $-1 -1 $-1 $532 $232 $234 $379 forward $134 $-1 #
coedge $-1 -1 $-1 $232 $532 $530 $533 reversed $134 $-1 #
coedge $-1 -1 $-1 $265 $235 $232 $377 forward $96 $-1 #
edge $534 -1 $-1 $381 -0.87500000000000011 $535 1.6250000000000002 $376 $536 forward @7 unknown #
coedge $-1 -1 $-1 $234 $233 $537 $538 reversed $84 $-1 #
edge $-1 -1 $-1 $381 2.0000100000000889 $539 3.1999999999999891 $234 $540 forward @7 unknown #
attrib_edge_convexity-kcp-attrib $-1 -1 $541 $-1 $236 1 #
vertex $-1 -1 $-1 $377 $542 #
straight-curve $-1 -1 $-1 165.24999999999997 43.624999999999993 189.99998999999997 0 0.99999999999999989 0 I I #
coedge $-1 -1 $-1 $242 $537 $237 $384 forward $249 $-1 #
edge $543 -1 $-1 $385 -1.5000000000000002 $244 0 $237 $544 forward @7 unknown #
vertex $-1 -1 $-1 $238 $545 #
straight-curve $-1 -1 $-1 165.24999999999997 40.749999999999993 192.00000000000006 0 0 -0.99999999999999989 I I #
convexity-sys-attrib $-1 -1 $-1 $239 $140 #
point $-1 -1 $-1 165.24999999999997 40.749999999999993 189.99998999999997 #
attrib_edge_convexity-kcp-attrib $-1 -1 $546 $-1 $243 2 #
straight-curve $-1 -1 $-1 166.74999999999997 43.249999999999993 188.80000000000007 0 0.99999999999999989 0 I I #
point $-1 -1 $-1 166.74999999999997 40.749999999999993 188.80000000000007 #
coedge $-1 -1 $-1 $547 $248 $548 $549 forward $249 $-1 #
coedge $-1 -1 $-1 $550 $551 $552 $553 forward $249 $-1 #
face $554 -1 $-1 $555 $249 $9 $-1 $556 forward single #
convexity-sys-attrib $-1 -1 $-1 $250 $147 #
coedge $-1 -1 $-1 $258 $548 $252 $397 reversed $408 $-1 #
edge $-1 -1 $-1 $261 2.0000100000000889 $399 3.1999999999999891 $396 $557 forward @7 unknown #
attrib_edge_convexity-kcp-attrib $-1 -1 $558 $-1 $253 2 #
vertex $-1 -1 $-1 $397 $559 #
straight-curve $-1 -1 $-1 169.24999999999997 44.749999999999993 188.80000000000007 0 0.99999999999999989 0 I I #
model_id-kcp-attrib $-1 -1 $-1 $-1 $254 1 1021323990 1021323990 -1223557119 9 #
face $560 -1 $-1 $561 $408 $9 $-1 $562 reversed single #
plane-surface $-1 -1 $-1 169.24999999999997 43.249999999999993 192.00000000000006 1 0 0 0 0 -0.99999999999999989 forward_v I I I I #
coedge $-1 -1 $-1 $257 $264 $563 $564 forward $96 $-1 #
coedge $-1 -1 $-1 $565 $566 $257 $406 reversed $567 $-1 #
edge $568 -1 $-1 $569 -2.8750000000000004 $410 -0.37500000000000006 $257 $570 forward @7 unknown #
coedge $-1 -1 $-1 $548 $258 $566 $571 forward $408 $-1 #
loop $-1 -1 $-1 $-1 $258 $402 #
attrib_edge_convexity-kcp-attrib $-1 -1 $572 $-1 $259 1 #
vertex $-1 -1 $-1 $259 $573 #
straight-curve $-1 -1 $-1 167.62499999999997 44.749999999999993 189.99998999999997 0.99999999999999989 0 0 I I #
convexity-sys-attrib $-1 -1 $-1 $260 $156 #
point $-1 -1 $-1 169.24999999999997 44.749999999999993 189.99998999999997 #
coedge $-1 -1 $-1 $414 $414 $263 $415 reversed $574 $-1 #
edge $575 -1 $-1 $576 0 $576 6.2831853071795862 $263 $577 forward @7 unknown #
coedge $-1 -1 $-1 $578 $579 $264 $417 reversed $580 $-1 #
edge $581 -1 $-1 $423 -0.87500000000000011 $582 1.6250000000000002 $264 $583 forward @7 unknown #
edge $584 -1 $-1 $535 -1.1250000000000002 $422 0.37500000000000006 $265 $585 forward @7 unknown #
coedge $-1 -1 $-1 $552 $266 $531 $586 forward $371 $-1 #
coedge $-1 -1 $-1 $266 $552 $578 $587 reversed $371 $-1 #
attrib_edge_convexity-kcp-attrib $-1 -1 $588 $-1 $267 1 #
vertex $-1 -1 $-1 $267 $589 #
vertex $-1 -1 $-1 $267 $590 #
straight-curve $-1 -1 $-1 165.62499999999997 44.749999999999993 189.99998999999997 0.99999999999999989 0 0 I I #
model_id-kcp-attrib $-1 -1 $-1 $-1 $269 1 1021323990 1021323990 -1223557119 18 #
face $591 -1 $-1 $-1 $592 $9 $-1 $593 forward single #
loop $-1 -1 $-1 $594 $595 $269 #
cone-surface $-1 -1 $-1 166 43.999999999999993 183.29998999999998 0 0 1 2.1800000000000002 0 0 1 I I 0 1 2.1800000000000002 forward I I I I #
plane-surface $-1 -1 $-1 4.5 0 0 -1 0 0 0 0 1 forward_v I I I I #
coedge $-1 -1 $-1 $276 $274 $278 $434 reversed $164 $-1 #
edge $-1 -1 $-1 $289 -5.3499999999999943 $436 5.3499999999999943 $288 $596 forward @7 unknown #
vertex $-1 -1 $-1 $434 $597 #
straight-curve $-1 -1 $-1 -4.5 -4.5 0 0 0 -1 I I #
edge $-1 -1 $-1 $432 -4.5 $436 4.5 $430 $598 forward @7 unknown #
straight-curve $-1 -1 $-1 0 -4.5 -5.3499999999999943 -1 0 0 I I #
vertex $-1 -1 $-1 $281 $599 #
straight-curve $-1 -1 $-1 0 4.5 -5.3499999999999943 1 0 0 I I #
point $-1 -1 $-1 4.5 4.5 -5.3499999999999943 #
point $-1 -1 $-1 4.5 -4.5 -5.3499999999999943 #
straight-curve $-1 -1 $-1 -4.5 0 5.3499999999999943 0 -1 0 I I #
point $-1 -1 $-1 -4.5 4.5 5.3499999999999943 #
point $-1 -1 $-1 -4.5 -4.5 5.3499999999999943 #
straight-curve $-1 -1 $-1 4.5 -4.5 0 0 0 -1 I I #
straight-curve $-1 -1 $-1 4.5 4.5 0 0 0 -1 I I #
face $-1 -1 $-1 $600 $601 $25 $-1 $602 reversed single #
plane-surface $-1 -1 $-1 0 4.5 0 0 -1 0 0 0 -1 forward_v I I I I #
coedge $-1 -1 $-1 $472 $477 $189 $314 reversed $299 $-1 #
coedge $-1 -1 $-1 $603 $301 $185 $308 forward $183 $-1 #
coedge $-1 -1 $-1 $301 $603 $604 $453 reversed $183 $-1 #
coedge $-1 -1 $-1 $605 $606 $301 $451 forward $607 $-1 #
edge $-1 -1 $-1 $465 -3.1415926535897931 $458 -1.5707963267948966 $450 $319 forward @7 unknown #
coedge $-1 -1 $-1 $303 $302 $608 $609 reversed $110 $-1 #
edge $-1 -1 $-1 $458 -10.699999999999989 $610 0 $604 $611 forward @7 unknown #
coedge $-1 -1 $-1 $612 $613 $447 $314 forward $614 $-1 #
coedge $-1 -1 $-1 $456 $304 $613 $475 forward $457 $-1 #
coedge $-1 -1 $-1 $304 $455 $615 $616 forward $457 $-1 #
loop $-1 -1 $-1 $-1 $304 $617 #
vertex $-1 -1 $-1 $618 $619 #
coedge $-1 -1 $-1 $620 $488 $306 $460 forward $621 $-1 #
edge $-1 -1 $-1 $198 1.5707963267948966 $465 3.1415926535897931 $459 $319 forward @7 unknown #
coedge $-1 -1 $-1 $622 $307 $310 $467 reversed $464 $-1 #
coedge $-1 -1 $-1 $307 $622 $620 $623 reversed $464 $-1 #
coedge $-1 -1 $-1 $624 $625 $448 $308 reversed $601 $-1 #
loop $-1 -1 $-1 $-1 $307 $626 #
vertex $-1 -1 $-1 $623 $627 #
straight-curve $-1 -1 $-1 -4.5 0 5.3499999999999943 0 0 1 I I #
edge $-1 -1 $-1 $491 -4.5 $312 0 $461 $628 forward @7 unknown #
face $-1 -1 $-1 $479 $311 $25 $-1 $629 forward single #
edge $-1 -1 $-1 $312 0 $630 4.5 $625 $628 forward @7 unknown #
point $-1 -1 $-1 -4.5 0 5.3499999999999943 #
straight-curve $-1 -1 $-1 4.5 0 5.3499999999999943 0 0 1 I I #
coedge $-1 -1 $-1 $481 $447 $316 $473 reversed $299 $-1 #
edge $-1 -1 $-1 $485 -4.5 $318 0 $472 $631 forward @7 unknown #
face $-1 -1 $-1 $632 $317 $25 $-1 $633 reversed single #
edge $-1 -1 $-1 $318 0 $634 4.5 $613 $631 forward @7 unknown #
point $-1 -1 $-1 4.5 0 -5.3499999999999943 #
coedge $-1 -1 $-1 $447 $481 $320 $478 reversed $299 $-1 #
edge $-1 -1 $-1 $323 0 $483 4.5 $477 $635 forward @7 unknown #
face $-1 -1 $-1 $636 $322 $25 $-1 $629 forward single #
point $-1 -1 $-1 4.5 0 5.3499999999999943 #
coedge $-1 -1 $-1 $477 $472 $324 $482 reversed $299 $-1 #
edge $-1 -1 $-1 $483 -5.3499999999999943 $485 5.3499999999999943 $481 $637 forward @7 unknown #
vertex $-1 -1 $-1 $478 $638 #
straight-curve $-1 -1 $-1 0 4.5 5.3499999999999943 -1 0 0 I I #
vertex $-1 -1 $-1 $473 $639 #
straight-curve $-1 -1 $-1 0 4.5 -5.3499999999999943 1 0 0 I I #
coedge $-1 -1 $-1 $328 $327 $622 $640 reversed $329 $-1 #
coedge $-1 -1 $-1 $459 $620 $327 $489 forward $621 $-1 #
edge $-1 -1 $-1 $641 -4.5 $198 0 $327 $486 forward @7 unknown #
face $-1 -1 $-1 $-1 $614 $25 $-1 $300 reversed single #
vertex $-1 -1 $-1 $332 $642 #
face $-1 -1 $-1 $643 $644 $27 $-1 $645 forward single #
loop $-1 -1 $-1 $-1 $646 $334 #
plane-surface $-1 -1 $-1 -3.2500000000000284 0.75 4.1500100000000941 0 1 0 0 0 1 forward_v I I I I #
coedge $-1 -1 $-1 $647 $648 $649 $650 forward $335 $-1 #
coedge $-1 -1 $-1 $651 $337 $648 $652 reversed $202 $-1 #
coedge $-1 -1 $-1 $337 $651 $338 $501 forward $202 $-1 #
coedge $-1 -1 $-1 $340 $649 $337 $499 reversed $214 $-1 #
edge $-1 -1 $-1 $502 -0.875 $653 1.625 $337 $654 forward @7 unknown #
coedge $-1 -1 $-1 $339 $338 $655 $656 reversed $117 $-1 #
edge $-1 -1 $-1 $657 0 $502 1.1999899999999002 $497 $658 forward @7 unknown #
vertex $-1 -1 $-1 $501 $659 #
straight-curve $-1 -1 $-1 -0.75000000000002842 -0.375 5.3499999999999801 0 1 0 I I #
coedge $-1 -1 $-1 $655 $346 $342 $505 forward $510 $-1 #
edge $660 -1 $-1 $349 -1.125 $506 0.375 $342 $661 forward @7 unknown #
vertex $-1 -1 $-1 $505 $662 #
straight-curve $-1 -1 $-1 -0.75000000000002842 -3.25 4.1500100000000941 0 0 1 I I #
point $-1 -1 $-1 -0.75000000000002842 -3.25 5.3499999999999943 #
coedge $-1 -1 $-1 $346 $663 $351 $515 forward $510 $-1 #
loop $-1 -1 $-1 $-1 $509 $523 #
convexity-sys-attrib $-1 -1 $-1 $-1 $347 #
straight-curve $-1 -1 $-1 0.74999999999997158 -1.625 4.1500100000000799 0 -1 0 I I #
point $-1 -1 $-1 0.74999999999997158 -3.25 4.1500100000000941 #
coedge $-1 -1 $-1 $352 $351 $664 $665 forward $353 $-1 #
edge $666 -1 $-1 $667 -2.875 $354 -0.375 $351 $668 forward @7 unknown #
face $-1 -1 $-1 $358 $353 $27 $-1 $669 forward single #
point $-1 -1 $-1 0.74999999999997158 -0.75 4.1500100000000941 #
coedge $-1 -1 $-1 $670 $356 $671 $672 reversed $214 $-1 #
coedge $-1 -1 $-1 $664 $673 $356 $520 forward $674 $-1 #
edge $-1 -1 $-1 $675 -1.125 $521 0.375 $519 $676 forward @7 unknown #
vertex $-1 -1 $-1 $665 $677 #
straight-curve $-1 -1 $-1 0.37499999999997158 -0.75 5.3499999999999801 -1 0 0 I I #
face $-1 -1 $-1 $-1 $510 $27 $-1 $678 reversed single #
plane-surface $-1 -1 $-1 -2.836619827917275e-014 -2.7755575615628914e-017 5.349999999999981 0 0 1 1 0 0 forward_v I I I I #
convexity-sys-attrib $-1 -1 $-1 $-1 $363 #
vertex $-1 -1 $-1 $363 $679 #
ellipse-curve $-1 -1 $-1 0 0 2.6500000000000199 0 0 1 4.4999999999999991 0 0 1 I I #
point $-1 -1 $-1 -4.4999999999999991 -5.5107285922006967e-016 -5.3499999999999801 #
point $-1 -1 $-1 2.1800000000000068 0 2.6500000000000057 #
coedge $-1 -1 $-1 $680 $373 $375 $533 forward $230 $-1 #
coedge $-1 -1 $-1 $373 $680 $419 $586 reversed $230 $-1 #
coedge $-1 -1 $-1 $375 $374 $681 $682 reversed $134 $-1 #
edge $-1 -1 $-1 $535 2.0000100000000889 $683 3.1999999999999891 $375 $684 forward @7 unknown #
attrib_edge_convexity-kcp-attrib $-1 -1 $685 $-1 $377 1 #
vertex $-1 -1 $-1 $418 $686 #
straight-curve $-1 -1 $-1 164.37499999999997 43.249999999999993 189.99998999999997 -0.99999999999999989 0 0 I I #
coedge $-1 -1 $-1 $383 $681 $378 $538 forward $249 $-1 #
edge $687 -1 $-1 $539 -2.5000000000000004 $385 0 $378 $688 forward @7 unknown #
vertex $-1 -1 $-1 $379 $689 #
straight-curve $-1 -1 $-1 165.24999999999997 43.249999999999993 192.00000000000006 0 0 -0.99999999999999989 I I #
convexity-sys-attrib $-1 -1 $-1 $380 $236 #
point $-1 -1 $-1 165.24999999999997 43.249999999999993 189.99998999999997 #
attrib_edge_convexity-kcp-attrib $-1 -1 $690 $-1 $384 2 #
straight-curve $-1 -1 $-1 166.74999999999997 40.749999999999993 188.80000000000007 0.99999999999999989 0 0 I I #
point $-1 -1 $-1 165.24999999999997 40.749999999999993 188.80000000000007 #
convexity-sys-attrib $-1 -1 $-1 $389 $243 #
coedge $-1 -1 $-1 $691 $392 $692 $693 forward $249 $-1 #
coedge $-1 -1 $-1 $396 $407 $392 $549 reversed $408 $-1 #
edge $694 -1 $-1 $399 -2.5000000000000004 $695 0 $548 $696 forward @7 unknown #
coedge $-1 -1 $-1 $681 $393 $680 $697 forward $249 $-1 #
coedge $-1 -1 $-1 $393 $691 $698 $699 forward $249 $-1 #
coedge $-1 -1 $-1 $420 $419 $393 $553 reversed $371 $-1 #
edge $700 -1 $-1 $701 -2.5000000000000004 $702 0 $552 $703 forward @7 unknown #
model_id-kcp-attrib $-1 -1 $-1 $-1 $394 1 1021323990 1021323990 -1223557119 14 #
face $704 -1 $-1 $705 $706 $9 $-1 $707 forward single #
plane-surface $-1 -1 $-1 165.24999999999997 44.749999999999993 188.80000000000007 0 0 1 0.99999999999999989 0 0 forward_v I I I I #
straight-curve $-1 -1 $-1 169.24999999999997 44.749999999999993 192.00000000000006 0 0 -0.99999999999999989 I I #
convexity-sys-attrib $-1 -1 $-1 $398 $253 #
point $-1 -1 $-1 169.24999999999997 44.749999999999993 188.80000000000007 #
model_id-kcp-attrib $-1 -1 $-1 $-1 $402 1 1021323990 1021323990 -1223557119 10 #
face $708 -1 $-1 $709 $567 $9 $-1 $710 reversed single #
plane-surface $-1 -1 $-1 169.24999999999997 44.749999999999993 192.00000000000006 0 1 0 0 0 0.99999999999999989 forward_v I I I I #
coedge $-1 -1 $-1 $711 $712 $404 $564 reversed $713 $-1 #
edge $714 -1 $-1 $582 -1.1250000000000002 $569 0.37500000000000006 $404 $715 forward @7 unknown #
coedge $-1 -1 $-1 $692 $405 $712 $716 forward $567 $-1 #
coedge $-1 -1 $-1 $405 $692 $407 $571 reversed $567 $-1 #
loop $-1 -1 $-1 $-1 $405 $561 #
attrib_edge_convexity-kcp-attrib $-1 -1 $717 $-1 $406 1 #
vertex $-1 -1 $-1 $406 $718 #
straight-curve $-1 -1 $-1 166.74999999999997 44.374999999999993 189.99998999999997 0 -0.99999999999999989 0 I I #
edge $-1 -1 $-1 $410 2.0000100000000889 $695 3.1999999999999891 $566 $719 forward @7 unknown #
convexity-sys-attrib $-1 -1 $-1 $409 $259 #
point $-1 -1 $-1 166.74999999999997 44.749999999999993 189.99998999999997 #
loop $-1 -1 $-1 $-1 $414 $705 #
attrib_edge_convexity-kcp-attrib $-1 -1 $720 $-1 $415 1 #
vertex $-1 -1 $-1 $415 $721 #
ellipse-curve $-1 -1 $-1 166 43.999999999999993 189.99998999999997 0 0 1 4.4999999999999991 0 0 1 I I #
coedge $-1 -1 $-1 $698 $416 $420 $587 forward $580 $-1 #
coedge $-1 -1 $-1 $416 $698 $711 $722 reversed $580 $-1 #
loop $-1 -1 $-1 $-1 $416 $723 #
attrib_edge_convexity-kcp-attrib $-1 -1 $724 $-1 $417 1 #
vertex $-1 -1 $-1 $564 $725 #
straight-curve $-1 -1 $-1 165.24999999999997 45.624999999999993 189.99998999999997 0 0.99999999999999989 0 I I #
attrib_edge_convexity-kcp-attrib $-1 -1 $726 $-1 $418 1 #
straight-curve $-1 -1 $-1 162.74999999999997 44.374999999999993 189.99998999999997 0 0.99999999999999989 0 I I #
edge $-1 -1 $-1 $422 2.0000100000000889 $702 3.1999999999999891 $531 $727 forward @7 unknown #
edge $-1 -1 $-1 $423 2.0000100000000889 $701 3.1999999999999891 $420 $728 forward @7 unknown #
convexity-sys-attrib $-1 -1 $-1 $421 $267 #
point $-1 -1 $-1 162.74999999999997 44.749999999999993 189.99998999999997 #
point $-1 -1 $-1 165.24999999999997 44.749999999999993 189.99998999999997 #
model_id-kcp-attrib $-1 -1 $-1 $-1 $426 1 1021323990 1021323990 -1223557119 19 #
loop $-1 -1 $-1 $-1 $729 $426 #
plane-surface $-1 -1 $-1 166 43.999999999999993 179.29998999999998 0 0 -1 -0.99999999999999989 0 0 forward_v I I I I #
loop $-1 -1 $-1 $-1 $730 $269 #
coedge $-1 -1 $-1 $595 $595 $729 $731 reversed $427 $-1 #
straight-curve $-1 -1 $-1 -4.5 4.5 0 0 0 -1 I I #
point $-1 -1 $-1 -4.5 -4.5 -5.3499999999999943 #
straight-curve $-1 -1 $-1 -4.5 0 -5.3499999999999943 0 1 0 I I #
point $-1 -1 $-1 -4.5 4.5 -5.3499999999999943 #
face $-1 -1 $-1 $468 $732 $25 $-1 $629 forward single #
loop $-1 -1 $-1 $-1 $463 $445 #
plane-surface $-1 -1 $-1 -4.5 0 0 1 0 0 0 0 -1 forward_v I I I I #
coedge $-1 -1 $-1 $449 $448 $733 $734 reversed $183 $-1 #
coedge $-1 -1 $-1 $735 $736 $737 $453 forward $738 $-1 #
coedge $-1 -1 $-1 $606 $450 $736 $618 forward $607 $-1 #
coedge $-1 -1 $-1 $450 $605 $624 $739 forward $607 $-1 #
loop $-1 -1 $-1 $-1 $450 $740 #
coedge $-1 -1 $-1 $741 $742 $452 $609 forward $743 $-1 #
edge $-1 -1 $-1 $323 0 $610 1.5707963267948966 $608 $313 forward @7 unknown #
vertex $-1 -1 $-1 $744 $745 #
straight-curve $-1 -1 $-1 0 -4.5 5.3499999999999943 0 0 1 I I #
coedge $-1 -1 $-1 $746 $454 $742 $747 reversed $614 $-1 #
coedge $-1 -1 $-1 $454 $746 $455 $475 reversed $614 $-1 #
loop $-1 -1 $-1 $-1 $454 $490 #
coedge $-1 -1 $-1 $748 $737 $456 $616 reversed $749 $-1 #
edge $-1 -1 $-1 $634 -4.5 $458 0 $615 $750 forward @7 unknown #
face $-1 -1 $-1 $474 $457 $25 $-1 $633 reversed single #
edge $-1 -1 $-1 $458 0 $751 4.5 $736 $750 forward @7 unknown #
point $-1 -1 $-1 0 -4.5 -5.3499999999999943 #
coedge $-1 -1 $-1 $488 $459 $462 $623 forward $621 $-1 #
loop $-1 -1 $-1 $-1 $459 $632 #
coedge $-1 -1 $-1 $462 $461 $487 $640 forward $464 $-1 #
edge $-1 -1 $-1 $465 0 $641 4.5 $462 $752 forward @7 unknown #
coedge $-1 -1 $-1 $753 $463 $606 $739 reversed $601 $-1 #
coedge $-1 -1 $-1 $463 $753 $754 $469 reversed $601 $-1 #
face $-1 -1 $-1 $330 $464 $25 $-1 $602 reversed single #
point $-1 -1 $-1 -4.5 0 -5.3499999999999943 #
straight-curve $-1 -1 $-1 -4.5 0 5.3499999999999943 0 -1 0 I I #
plane-surface $-1 -1 $-1 0 0 5.3499999999999943 0 0 1 1 0 0 forward_v I I I I #
vertex $-1 -1 $-1 $469 $755 #
straight-curve $-1 -1 $-1 4.5 0 -5.3499999999999943 0 -1 0 I I #
face $-1 -1 $-1 $756 $621 $25 $-1 $633 reversed single #
plane-surface $-1 -1 $-1 0 0 -5.3499999999999943 0 0 1 1 0 0 forward_v I I I I #
vertex $-1 -1 $-1 $757 $758 #
straight-curve $-1 -1 $-1 4.5 0 5.3499999999999943 0 1 0 I I #
face $-1 -1 $-1 $759 $743 $25 $-1 $629 forward single #
straight-curve $-1 -1 $-1 4.5 4.5 0 0 0 -1 I I #
point $-1 -1 $-1 4.5 4.5 5.3499999999999943 #
point $-1 -1 $-1 4.5 4.5 -5.3499999999999943 #
edge $-1 -1 $-1 $491 -5.3499999999999943 $641 5.3499999999999943 $487 $760 forward @7 unknown #
vertex $-1 -1 $-1 $489 $761 #
point $-1 -1 $-1 -4.5 4.5 5.3499999999999943 #
face $-1 -1 $-1 $762 $763 $27 $-1 $764 forward single #
loop $-1 -1 $-1 $-1 $765 $492 #
plane-surface $-1 -1 $-1 -0.75000000000002842 0.75 4.1500100000000941 -1 0 0 0 0 1 forward_v I I I I #
coedge $-1 -1 $-1 $766 $767 $768 $769 forward $493 $-1 #
coedge $-1 -1 $-1 $770 $495 $767 $771 reversed $335 $-1 #
coedge $-1 -1 $-1 $495 $770 $496 $652 forward $335 $-1 #
coedge $-1 -1 $-1 $498 $768 $495 $650 reversed $214 $-1 #
edge $-1 -1 $-1 $653 -1.125 $772 0.375 $495 $773 forward @7 unknown #
coedge $-1 -1 $-1 $497 $496 $774 $775 reversed $202 $-1 #
edge $-1 -1 $-1 $776 0 $653 1.1999899999999002 $648 $777 forward @7 unknown #
vertex $-1 -1 $-1 $652 $778 #
straight-curve $-1 -1 $-1 -1.6250000000000284 -0.75 5.3499999999999801 -1 0 0 I I #
coedge $-1 -1 $-1 $774 $504 $500 $656 forward $510 $-1 #
edge $779 -1 $-1 $506 -2.875 $657 -0.375 $500 $780 forward @7 unknown #
vertex $-1 -1 $-1 $656 $781 #
straight-curve $-1 -1 $-1 -0.75000000000002842 -0.75 4.1500100000000941 0 0 1 I I #
point $-1 -1 $-1 -0.75000000000002842 -0.75 5.3499999999999943 #
convexity-sys-attrib $-1 -1 $-1 $-1 $505 #
straight-curve $-1 -1 $-1 -0.37500000000002842 -3.25 4.1500100000000799 -1 0 0 I I #
point $-1 -1 $-1 -0.75000000000002842 -3.25 4.1500100000000941 #
coedge $-1 -1 $-1 $509 $782 $783 $784 forward $510 $-1 #
coedge $-1 -1 $-1 $783 $519 $514 $665 reversed $674 $-1 #
edge $-1 -1 $-1 $667 0 $521 1.1999899999999002 $514 $785 forward @7 unknown #
convexity-sys-attrib $-1 -1 $-1 $-1 $515 #
vertex $-1 -1 $-1 $515 $786 #
straight-curve $-1 -1 $-1 0.37499999999997158 -0.75 4.1500100000000799 -1 0 0 I I #
plane-surface $-1 -1 $-1 3.2499999999999716 -0.75 4.1500100000000941 0 -1 0 0 0 -1 forward_v I I I I #
coedge $-1 -1 $-1 $787 $518 $788 $789 reversed $214 $-1 #
coedge $-1 -1 $-1 $790 $791 $518 $672 forward $792 $-1 #
edge $-1 -1 $-1 $793 -0.875 $675 1.625 $671 $794 forward @7 unknown #
coedge $-1 -1 $-1 $519 $783 $790 $795 forward $674 $-1 #
loop $-1 -1 $-1 $-1 $519 $796 #
vertex $-1 -1 $-1 $795 $797 #
straight-curve $-1 -1 $-1 3.2499999999999716 -0.375 5.3499999999999801 0 -1 0 I I #
point $-1 -1 $-1 3.2499999999999716 -0.75 5.3499999999999943 #
plane-surface $-1 -1 $-1 -2.836619827917275e-014 -2.7755575615628914e-017 4.1500100000000808 0 0 1 1 0 0 forward_v I I I I #
point $-1 -1 $-1 -4.4999999999999991 -5.5107285922006967e-016 2.6500000000000199 #
coedge $-1 -1 $-1 $531 $530 $550 $697 reversed $230 $-1 #
coedge $-1 -1 $-1 $537 $550 $532 $682 forward $249 $-1 #
edge $798 -1 $-1 $683 -2.5000000000000004 $539 0 $532 $799 forward @7 unknown #
vertex $-1 -1 $-1 $533 $800 #
straight-curve $-1 -1 $-1 162.74999999999997 43.249999999999993 192.00000000000006 0 0 -0.99999999999999989 I I #
convexity-sys-attrib $-1 -1 $-1 $534 $377 #
point $-1 -1 $-1 162.74999999999997 43.249999999999993 189.99998999999997 #
attrib_edge_convexity-kcp-attrib $-1 -1 $801 $-1 $538 2 #
straight-curve $-1 -1 $-1 165.24999999999997 40.749999999999993 188.80000000000007 0 -0.99999999999999989 0 I I #
point $-1 -1 $-1 165.24999999999997 43.249999999999993 188.80000000000007 #
convexity-sys-attrib $-1 -1 $-1 $543 $384 #
coedge $-1 -1 $-1 $551 $547 $802 $803 forward $249 $-1 #
coedge $-1 -1 $-1 $566 $565 $547 $693 reversed $567 $-1 #
edge $804 -1 $-1 $695 -2.5000000000000004 $805 0 $692 $806 forward @7 unknown #
attrib_edge_convexity-kcp-attrib $-1 -1 $807 $-1 $549 2 #
vertex $-1 -1 $-1 $571 $808 #
straight-curve $-1 -1 $-1 166.74999999999997 44.749999999999993 188.80000000000007 -0.99999999999999989 0 0 I I #
edge $809 -1 $-1 $702 -1.5000000000000002 $683 0 $680 $810 forward @7 unknown #
coedge $-1 -1 $-1 $579 $578 $551 $699 reversed $580 $-1 #
edge $811 -1 $-1 $812 -2.5000000000000004 $701 0 $698 $813 forward @7 unknown #
attrib_edge_convexity-kcp-attrib $-1 -1 $814 $-1 $553 2 #
vertex $-1 -1 $-1 $587 $815 #
vertex $-1 -1 $-1 $586 $816 #
straight-curve $-1 -1 $-1 162.74999999999997 44.749999999999993 188.80000000000007 -0.99999999999999989 0 0 I I #
model_id-kcp-attrib $-1 -1 $-1 $-1 $555 1 1021323990 1021323990 -1223557119 15 #
face $817 -1 $-1 $159 $818 $9 $-1 $819 forward single #
loop $-1 -1 $-1 $820 $821 $555 #
plane-surface $-1 -1 $-1 166 43.999999999999993 187.29998999999998 0 0 -1 -0.99999999999999989 0 0 forward_v I I I I #
model_id-kcp-attrib $-1 -1 $-1 $-1 $561 1 1021323990 1021323990 -1223557119 11 #
face $822 -1 $-1 $723 $713 $9 $-1 $823 reversed single #
plane-surface $-1 -1 $-1 166.74999999999997 44.749999999999993 192.00000000000006 1 0 0 0 0 -0.99999999999999989 forward_v I I I I #
coedge $-1 -1 $-1 $802 $563 $579 $722 forward $713 $-1 #
coedge $-1 -1 $-1 $563 $802 $565 $716 reversed $713 $-1 #
loop $-1 -1 $-1 $-1 $563 $709 #
attrib_edge_convexity-kcp-attrib $-1 -1 $824 $-1 $564 1 #
straight-curve $-1 -1 $-1 166.37499999999997 47.249999999999993 189.99998999999997 0.99999999999999989 0 0 I I #
edge $-1 -1 $-1 $569 2.0000100000000889 $805 3.1999999999999891 $712 $825 forward @7 unknown #
convexity-sys-attrib $-1 -1 $-1 $568 $406 #
point $-1 -1 $-1 166.74999999999997 47.249999999999993 189.99998999999997 #
straight-curve $-1 -1 $-1 166.74999999999997 44.749999999999993 192.00000000000006 0 0 -0.99999999999999989 I I #
convexity-sys-attrib $-1 -1 $-1 $575 $415 #
point $-1 -1 $-1 170.5 43.999999999999993 189.99998999999997 #
edge $-1 -1 $-1 $582 2.0000100000000889 $812 3.1999999999999891 $579 $826 forward @7 unknown #
face $827 -1 $-1 $394 $580 $9 $-1 $828 reversed single #
convexity-sys-attrib $-1 -1 $-1 $581 $417 #
point $-1 -1 $-1 165.24999999999997 47.249999999999993 189.99998999999997 #
convexity-sys-attrib $-1 -1 $-1 $584 $418 #
straight-curve $-1 -1 $-1 162.74999999999997 44.749999999999993 192.00000000000006 0 0 -0.99999999999999989 I I #
straight-curve $-1 -1 $-1 165.24999999999997 44.749999999999993 192.00000000000006 0 0 -0.99999999999999989 I I #
coedge $-1 -1 $-1 $729 $729 $595 $731 forward $592 $-1 #
coedge $-1 -1 $-1 $730 $730 $829 $830 forward $594 $-1 #
edge $-1 -1 $-1 $831 0 $831 6.2831853071795862 $729 $832 forward @7 unknown #
loop $-1 -1 $-1 $-1 $733 $600 #
coedge $-1 -1 $-1 $754 $833 $603 $734 forward $732 $-1 #
edge $-1 -1 $-1 $610 1.5707963267948966 $312 3.1415926535897931 $733 $313 forward @7 unknown #
coedge $-1 -1 $-1 $834 $604 $833 $835 reversed $738 $-1 #
coedge $-1 -1 $-1 $604 $834 $605 $618 reversed $738 $-1 #
coedge $-1 -1 $-1 $615 $836 $302 $453 reversed $749 $-1 #
loop $-1 -1 $-1 $-1 $604 $756 #
edge $-1 -1 $-1 $751 -4.5 $465 0 $624 $752 forward @7 unknown #
face $-1 -1 $-1 $617 $607 $25 $-1 $633 reversed single #
coedge $-1 -1 $-1 $742 $608 $836 $744 forward $743 $-1 #
coedge $-1 -1 $-1 $608 $741 $612 $747 forward $743 $-1 #
loop $-1 -1 $-1 $-1 $608 $636 #
edge $-1 -1 $-1 $610 0 $837 4.5 $836 $838 forward @7 unknown #
point $-1 -1 $-1 0 -4.5 5.3499999999999943 #
coedge $-1 -1 $-1 $613 $612 $748 $757 forward $614 $-1 #
edge $-1 -1 $-1 $837 -4.5 $323 0 $612 $635 forward @7 unknown #
coedge $-1 -1 $-1 $836 $615 $746 $757 reversed $749 $-1 #
loop $-1 -1 $-1 $-1 $737 $759 #
straight-curve $-1 -1 $-1 0 -4.5 -5.3499999999999943 -1 0 0 I I #
vertex $-1 -1 $-1 $739 $839 #
straight-curve $-1 -1 $-1 -4.5 0 -5.3499999999999943 0 1 0 I I #
coedge $-1 -1 $-1 $625 $624 $834 $840 reversed $601 $-1 #
coedge $-1 -1 $-1 $833 $733 $625 $469 forward $732 $-1 #
point $-1 -1 $-1 -4.5 -4.5 5.3499999999999943 #
face $-1 -1 $-1 $626 $738 $25 $-1 $841 reversed single #
edge $-1 -1 $-1 $837 -5.3499999999999943 $634 5.3499999999999943 $746 $842 forward @7 unknown #
point $-1 -1 $-1 4.5 -4.5 -5.3499999999999943 #
face $-1 -1 $-1 $740 $749 $25 $-1 $841 reversed single #
straight-curve $-1 -1 $-1 -4.5 4.5 0 0 0 -1 I I #
point $-1 -1 $-1 -4.5 4.5 -5.3499999999999943 #
face $-1 -1 $-1 $843 $844 $27 $-1 $845 forward single #
loop $-1 -1 $-1 $-1 $846 $643 #
plane-surface $-1 -1 $-1 -0.75000000000002842 3.25 4.1500100000000941 0 1 0 0 0 1 forward_v I I I I #
coedge $-1 -1 $-1 $847 $848 $849 $850 forward $644 $-1 #
coedge $-1 -1 $-1 $851 $646 $848 $852 reversed $493 $-1 #
coedge $-1 -1 $-1 $646 $851 $647 $771 forward $493 $-1 #
coedge $-1 -1 $-1 $649 $849 $646 $769 reversed $214 $-1 #
edge $-1 -1 $-1 $772 -2.875 $853 -0.375 $646 $854 forward @7 unknown #
coedge $-1 -1 $-1 $648 $647 $855 $856 reversed $335 $-1 #
edge $-1 -1 $-1 $857 0 $772 1.1999899999999002 $767 $858 forward @7 unknown #
vertex $-1 -1 $-1 $771 $859 #
straight-curve $-1 -1 $-1 -3.2500000000000284 0.375 5.3499999999999801 0 1 0 I I #
coedge $-1 -1 $-1 $855 $655 $651 $775 forward $510 $-1 #
edge $860 -1 $-1 $657 -0.875 $776 1.625 $651 $861 forward @7 unknown #
vertex $-1 -1 $-1 $775 $862 #
straight-curve $-1 -1 $-1 -3.2500000000000284 -0.75 4.1500100000000941 0 0 1 I I #
point $-1 -1 $-1 -3.2500000000000284 -0.75 5.3499999999999943 #
convexity-sys-attrib $-1 -1 $-1 $-1 $656 #
straight-curve $-1 -1 $-1 -0.75000000000002842 -0.375 4.1500100000000799 0 1 0 I I #
point $-1 -1 $-1 -0.75000000000002842 -0.75 4.1500100000000941 #
coedge $-1 -1 $-1 $663 $863 $864 $865 forward $510 $-1 #
coedge $-1 -1 $-1 $673 $664 $663 $784 reversed $674 $-1 #
edge $866 -1 $-1 $867 -1.125 $667 0.375 $783 $868 forward @7 unknown #
straight-curve $-1 -1 $-1 3.2499999999999716 -0.75 4.1500100000000941 0 0 1 I I #
point $-1 -1 $-1 3.2499999999999716 -0.75 4.1500100000000941 #
coedge $-1 -1 $-1 $849 $670 $846 $869 reversed $214 $-1 #
coedge $-1 -1 $-1 $870 $871 $670 $789 forward $844 $-1 #
edge $-1 -1 $-1 $872 -2.875 $793 -0.375 $788 $873 forward @7 unknown #
coedge $-1 -1 $-1 $864 $671 $673 $795 reversed $792 $-1 #
coedge $-1 -1 $-1 $671 $864 $870 $874 forward $792 $-1 #
loop $-1 -1 $-1 $-1 $671 $843 #
vertex $-1 -1 $-1 $874 $875 #
straight-curve $-1 -1 $-1 1.6249999999999716 0.75 5.3499999999999801 1 0 0 I I #
edge $-1 -1 $-1 $867 0 $675 1.1999899999999002 $673 $876 forward @7 unknown #
face $-1 -1 $-1 $516 $674 $27 $-1 $877 forward single #
point $-1 -1 $-1 3.2499999999999716 0.75 5.3499999999999943 #
attrib_edge_convexity-kcp-attrib $-1 -1 $878 $-1 $682 2 #
straight-curve $-1 -1 $-1 165.24999999999997 43.249999999999993 188.80000000000007 0.99999999999999989 0 0 I I #
point $-1 -1 $-1 162.74999999999997 43.249999999999993 188.80000000000007 #
convexity-sys-attrib $-1 -1 $-1 $687 $538 #
coedge $-1 -1 $-1 $712 $711 $691 $803 reversed $713 $-1 #
edge $879 -1 $-1 $805 -1.5000000000000002 $812 0 $802 $880 forward @7 unknown #
attrib_edge_convexity-kcp-attrib $-1 -1 $881 $-1 $693 2 #
vertex $-1 -1 $-1 $716 $882 #
straight-curve $-1 -1 $-1 166.74999999999997 47.249999999999993 188.80000000000007 0 0.99999999999999989 0 I I #
convexity-sys-attrib $-1 -1 $-1 $694 $549 #
point $-1 -1 $-1 166.74999999999997 44.749999999999993 188.80000000000007 #
attrib_edge_convexity-kcp-attrib $-1 -1 $883 $-1 $697 2 #
straight-curve $-1 -1 $-1 162.74999999999997 43.249999999999993 188.80000000000007 0 -0.99999999999999989 0 I I #
attrib_edge_convexity-kcp-attrib $-1 -1 $884 $-1 $699 2 #
vertex $-1 -1 $-1 $722 $885 #
straight-curve $-1 -1 $-1 165.24999999999997 44.749999999999993 188.80000000000007 0 -0.99999999999999989 0 I I #
convexity-sys-attrib $-1 -1 $-1 $700 $553 #
point $-1 -1 $-1 165.24999999999997 44.749999999999993 188.80000000000007 #
point $-1 -1 $-1 162.74999999999997 44.749999999999993 188.80000000000007 #
model_id-kcp-attrib $-1 -1 $-1 $-1 $705 1 1021323990 1021323990 -1223557119 16 #
loop $-1 -1 $-1 $574 $886 $705 #
cone-surface $-1 -1 $-1 166 43.999999999999993 188.64998999999997 0 0 1 4.4999999999999991 0 0 1 I I 0 1 4.4999999999999991 forward I I I I #
loop $-1 -1 $-1 $-1 $829 $555 #
coedge $-1 -1 $-1 $821 $821 $886 $887 forward $706 $-1 #
model_id-kcp-attrib $-1 -1 $-1 $-1 $709 1 1021323990 1021323990 -1223557119 12 #
plane-surface $-1 -1 $-1 166.74999999999997 47.249999999999993 192.00000000000006 0 1 0 0 0 0.99999999999999989 forward_v I I I I #
convexity-sys-attrib $-1 -1 $-1 $714 $564 #
straight-curve $-1 -1 $-1 166.74999999999997 47.249999999999993 192.00000000000006 0 0 -0.99999999999999989 I I #
straight-curve $-1 -1 $-1 165.24999999999997 47.249999999999993 192.00000000000006 0 0 -0.99999999999999989 I I #
model_id-kcp-attrib $-1 -1 $-1 $-1 $723 1 1021323990 1021323990 -1223557119 13 #
plane-surface $-1 -1 $-1 165.24999999999997 47.249999999999993 192.00000000000006 -1 0 0 0 0 0.99999999999999989 forward_v I I I I #
coedge $-1 -1 $-1 $829 $829 $730 $830 reversed $820 $-1 #
edge $888 -1 $-1 $889 -6.2831853071795862 $889 0 $730 $890 reversed @7 unknown #
vertex $-1 -1 $-1 $731 $891 #
ellipse-curve $-1 -1 $-1 166 43.999999999999993 179.29998999999998 0 0 -1 2.1800000000000002 0 0 1 I I #
coedge $-1 -1 $-1 $733 $754 $735 $835 forward $732 $-1 #
coedge $-1 -1 $-1 $736 $735 $753 $840 forward $738 $-1 #
edge $-1 -1 $-1 $630 -4.5 $610 0 $735 $838 forward @7 unknown #
coedge $-1 -1 $-1 $737 $748 $741 $744 reversed $749 $-1 #
vertex $-1 -1 $-1 $747 $892 #
straight-curve $-1 -1 $-1 0 -4.5 5.3499999999999943 1 0 0 I I #
point $-1 -1 $-1 -4.5 -4.5 -5.3499999999999943 #
edge $-1 -1 $-1 $630 -5.3499999999999943 $751 5.3499999999999943 $753 $893 forward @7 unknown #
plane-surface $-1 -1 $-1 0 -4.5 0 0 1 0 0 0 1 forward_v I I I I #
straight-curve $-1 -1 $-1 4.5 -4.5 0 0 0 -1 I I #
face $-1 -1 $-1 $796 $792 $27 $-1 $894 forward single #
loop $-1 -1 $-1 $-1 $788 $762 #
plane-surface $-1 -1 $-1 0.74999999999997158 3.25 4.1500100000000941 1 0 0 0 0 -1 forward_v I I I I #
coedge $-1 -1 $-1 $895 $896 $787 $869 forward $763 $-1 #
coedge $-1 -1 $-1 $897 $765 $896 $898 reversed $644 $-1 #
coedge $-1 -1 $-1 $765 $897 $766 $852 forward $644 $-1 #
coedge $-1 -1 $-1 $768 $787 $765 $850 reversed $214 $-1 #
edge $-1 -1 $-1 $853 -0.875 $899 1.625 $765 $900 forward @7 unknown #
coedge $-1 -1 $-1 $767 $766 $901 $902 reversed $493 $-1 #
edge $-1 -1 $-1 $903 0 $853 1.1999899999999002 $848 $904 forward @7 unknown #
vertex $-1 -1 $-1 $852 $905 #
straight-curve $-1 -1 $-1 -0.37500000000002842 0.75 5.3499999999999801 1 0 0 I I #
coedge $-1 -1 $-1 $901 $774 $770 $856 forward $510 $-1 #
edge $906 -1 $-1 $776 -1.125 $857 0.375 $770 $907 forward @7 unknown #
vertex $-1 -1 $-1 $856 $908 #
straight-curve $-1 -1 $-1 -3.2500000000000284 0.75 4.1500100000000941 0 0 1 I I #
point $-1 -1 $-1 -3.2500000000000284 0.75 5.3499999999999943 #
convexity-sys-attrib $-1 -1 $-1 $-1 $775 #
straight-curve $-1 -1 $-1 -1.6250000000000284 -0.75 4.1500100000000799 -1 0 0 I I #
point $-1 -1 $-1 -3.2500000000000284 -0.75 4.1500100000000941 #
coedge $-1 -1 $-1 $782 $909 $910 $911 forward $510 $-1 #
coedge $-1 -1 $-1 $791 $790 $782 $865 reversed $792 $-1 #
edge $912 -1 $-1 $913 -0.875 $867 1.625 $864 $914 forward @7 unknown #
convexity-sys-attrib $-1 -1 $-1 $-1 $784 #
vertex $-1 -1 $-1 $865 $915 #
straight-curve $-1 -1 $-1 3.2499999999999716 -0.375 4.1500100000000799 0 -1 0 I I #
edge $-1 -1 $-1 $899 -1.125 $872 0.375 $846 $916 forward @7 unknown #
coedge $-1 -1 $-1 $910 $788 $791 $874 reversed $844 $-1 #
coedge $-1 -1 $-1 $788 $910 $895 $917 forward $844 $-1 #
vertex $-1 -1 $-1 $917 $918 #
straight-curve $-1 -1 $-1 0.74999999999997158 0.375 5.3499999999999801 0 -1 0 I I #
edge $-1 -1 $-1 $913 0 $793 1.1999899999999002 $791 $919 forward @7 unknown #
point $-1 -1 $-1 0.74999999999997158 0.75 5.3499999999999943 #
straight-curve $-1 -1 $-1 3.2499999999999716 0.75 4.1500100000000941 0 0 1 I I #
plane-surface $-1 -1 $-1 3.2499999999999716 0.75 4.1500100000000941 1 0 0 0 0 -1 forward_v I I I I #
convexity-sys-attrib $-1 -1 $-1 $798 $682 #
attrib_edge_convexity-kcp-attrib $-1 -1 $920 $-1 $803 2 #
straight-curve $-1 -1 $-1 165.24999999999997 47.249999999999993 188.80000000000007 -0.99999999999999989 0 0 I I #
convexity-sys-attrib $-1 -1 $-1 $804 $693 #
point $-1 -1 $-1 166.74999999999997 47.249999999999993 188.80000000000007 #
convexity-sys-attrib $-1 -1 $-1 $809 $697 #
convexity-sys-attrib $-1 -1 $-1 $811 $699 #
point $-1 -1 $-1 165.24999999999997 47.249999999999993 188.80000000000007 #
coedge $-1 -1 $-1 $886 $886 $821 $887 reversed $818 $-1 #
edge $921 -1 $-1 $922 0 $922 6.2831853071795862 $821 $923 forward @7 unknown #
attrib_edge_convexity-kcp-attrib $-1 -1 $924 $-1 $830 2 #
vertex $-1 -1 $-1 $830 $925 #
ellipse-curve $-1 -1 $-1 166 43.999999999999993 187.29998999999998 0 0 1 2.1800000000000002 0 0 1 I I #
point $-1 -1 $-1 168.18000000000001 43.999999999999993 179.29998999999998 #
point $-1 -1 $-1 4.5 -4.5 5.3499999999999943 #
straight-curve $-1 -1 $-1 -4.5 -4.5 0 0 0 -1 I I #
plane-surface $-1 -1 $-1 0.74999999999997158 0.75 4.1500100000000941 0 1 0 0 0 1 forward_v I I I I #
coedge $-1 -1 $-1 $926 $846 $871 $917 reversed $763 $-1 #
coedge $-1 -1 $-1 $846 $926 $847 $898 forward $763 $-1 #
coedge $-1 -1 $-1 $848 $847 $927 $928 reversed $644 $-1 #
edge $-1 -1 $-1 $929 0 $899 1.1999899999999002 $896 $930 forward @7 unknown #
vertex $-1 -1 $-1 $898 $931 #
straight-curve $-1 -1 $-1 -0.75000000000002842 1.625 5.3499999999999801 0 1 0 I I #
coedge $-1 -1 $-1 $927 $855 $851 $902 forward $510 $-1 #
edge $932 -1 $-1 $857 -2.875 $903 -0.375 $851 $933 forward @7 unknown #
vertex $-1 -1 $-1 $902 $934 #
straight-curve $-1 -1 $-1 -0.75000000000002842 0.75 4.1500100000000941 0 0 1 I I #
point $-1 -1 $-1 -0.75000000000002842 0.75 5.3499999999999943 #
convexity-sys-attrib $-1 -1 $-1 $-1 $856 #
straight-curve $-1 -1 $-1 -3.2500000000000284 0.375 4.1500100000000799 0 1 0 I I #
point $-1 -1 $-1 -3.2500000000000284 0.75 4.1500100000000941 #
coedge $-1 -1 $-1 $863 $927 $926 $935 forward $510 $-1 #
coedge $-1 -1 $-1 $871 $870 $863 $911 reversed $844 $-1 #
edge $936 -1 $-1 $937 -2.875 $913 -0.375 $910 $938 forward @7 unknown #
convexity-sys-attrib $-1 -1 $-1 $-1 $865 #
vertex $-1 -1 $-1 $911 $939 #
straight-curve $-1 -1 $-1 1.6249999999999716 0.75 4.1500100000000799 1 0 0 I I #
point $-1 -1 $-1 3.2499999999999716 0.75 4.1500100000000941 #
straight-curve $-1 -1 $-1 0.37499999999997158 3.25 5.3499999999999801 1 0 0 I I #
edge $-1 -1 $-1 $937 0 $872 1.1999899999999002 $871 $940 forward @7 unknown #
point $-1 -1 $-1 0.74999999999997158 3.25 5.3499999999999943 #
straight-curve $-1 -1 $-1 0.74999999999997158 0.75 4.1500100000000941 0 0 1 I I #
convexity-sys-attrib $-1 -1 $-1 $879 $803 #
attrib_edge_convexity-kcp-attrib $-1 -1 $941 $-1 $887 1 #
vertex $-1 -1 $-1 $887 $942 #
ellipse-curve $-1 -1 $-1 166 43.999999999999993 187.29998999999998 0 0 -1 4.4999999999999991 0 0 1 I I #
convexity-sys-attrib $-1 -1 $-1 $888 $830 #
point $-1 -1 $-1 168.18000000000001 43.999999999999993 187.29998999999998 #
coedge $-1 -1 $-1 $896 $895 $909 $935 reversed $763 $-1 #
coedge $-1 -1 $-1 $909 $901 $897 $928 forward $510 $-1 #
edge $943 -1 $-1 $903 -0.875 $929 1.625 $897 $944 forward @7 unknown #
vertex $-1 -1 $-1 $928 $945 #
straight-curve $-1 -1 $-1 -0.75000000000002842 3.25 4.1500100000000941 0 0 1 I I #
point $-1 -1 $-1 -0.75000000000002842 3.25 5.3499999999999943 #
convexity-sys-attrib $-1 -1 $-1 $-1 $902 #
straight-curve $-1 -1 $-1 -0.37500000000002842 0.75 4.1500100000000799 1 0 0 I I #
point $-1 -1 $-1 -0.75000000000002842 0.75 4.1500100000000941 #
edge $946 -1 $-1 $929 -1.125 $937 0.375 $926 $947 forward @7 unknown #
convexity-sys-attrib $-1 -1 $-1 $-1 $911 #
vertex $-1 -1 $-1 $935 $948 #
straight-curve $-1 -1 $-1 0.74999999999997158 0.375 4.1500100000000799 0 -1 0 I I #
point $-1 -1 $-1 0.74999999999997158 0.75 4.1500100000000941 #
straight-curve $-1 -1 $-1 0.74999999999997158 3.25 4.1500100000000941 0 0 1 I I #
convexity-sys-attrib $-1 -1 $-1 $921 $887 #
point $-1 -1 $-1 170.5 43.999999999999993 187.29998999999998 #
convexity-sys-attrib $-1 -1 $-1 $-1 $928 #
straight-curve $-1 -1 $-1 -0.75000000000002842 1.625 4.1500100000000799 0 1 0 I I #
point $-1 -1 $-1 -0.75000000000002842 3.25 4.1500100000000941 #
convexity-sys-attrib $-1 -1 $-1 $-1 $935 #
straight-curve $-1 -1 $-1 0.37499999999997158 3.25 4.1500100000000799 1 0 0 I I #
point $-1 -1 $-1 0.74999999999997158 3.25 4.1500100000000941 #
End-of-ACIS-data 