700 0 2 0           
24 FBMach with ACIS - 7.0.3 13 ACIS 7.0.3 NT 24 Mon May 13 17:06:29 2002 
1 9.9999999999999995e-007 1e-010 
body $2 -1 $-1 $3 $-1 $4 #
bdycol-kcp $-1 -1 1 4 $5 $6 $7 $8 #
model_id-kcp-attrib $-1 -1 $-1 $-1 $0 1 1021323988 1021323988 325255169 1 #
lump $-1 -1 $-1 $-1 $9 $0 #
transform $-1 -1 1 0 0 0 1 0 0 0 1 0 0 0 1 rotate no_reflect no_shear #
body $10 -1 $-1 $11 $-1 $12 #
body $13 -1 $-1 $14 $-1 $15 #
body $16 -1 $-1 $17 $-1 $18 #
body $19 -1 $-1 $20 $-1 $21 #
shell $-1 -1 $-1 $-1 $-1 $22 $-1 $3 #
model_id-kcp-attrib $-1 -1 $-1 $-1 $5 1 1021323988 1021323988 325255170 1 #
lump $-1 -1 $-1 $-1 $23 $5 #
transform $-1 -1 1 0 0 0 1 0 0 0 1 150.00000000000006 100.00000000000001 13.925000000000006 1 no_rotate no_reflect no_shear #
rgb_color-st-attrib $-1 -1 $24 $-1 $6 0.5 1 1 #
lump $-1 -1 $-1 $-1 $25 $6 #
transform $-1 -1 1 0 0 0 1 0 0 0 1 150.00000000000006 100.00000000000001 13.925000000000006 1 no_rotate no_reflect no_shear #
rgb_color-st-attrib $-1 -1 $26 $-1 $7 0 0 1 #
lump $-1 -1 $-1 $-1 $27 $7 #
transform $-1 -1 1 0 0 0 1 0 0 0 1 150.00000000000006 100.00000000000001 13.925000000000006 1 no_rotate no_reflect no_shear #
rgb_color-st-attrib $-1 -1 $28 $-1 $8 1 0.5 1 #
lump $-1 -1 $-1 $-1 $29 $8 #
transform $-1 -1 1 0 0 0 1 0 0 0 1 150.00000000000006 100.00000000000001 13.925000000000006 1 no_rotate no_reflect no_shear #
face $30 -1 $-1 $31 $32 $9 $-1 $33 reversed single #
shell $-1 -1 $-1 $-1 $-1 $34 $-1 $11 #
model_id-kcp-attrib $-1 -1 $-1 $13 $6 1 1021323988 1021323988 330498051 1 #
shell $-1 -1 $-1 $-1 $-1 $35 $-1 $14 #
model_id-kcp-attrib $-1 -1 $-1 $16 $7 1 1021323988 1021323989 328466436 1 #
shell $-1 -1 $-1 $-1 $-1 $36 $-1 $17 #
model_id-kcp-attrib $-1 -1 $-1 $19 $8 1 1021323988 1021323989 334364677 1 #
shell $-1 -1 $-1 $-1 $-1 $37 $-1 $20 #
model_id-kcp-attrib $-1 -1 $-1 $-1 $22 1 1021323988 1021323988 325255169 2 #
face $38 -1 $-1 $39 $40 $9 $-1 $41 reversed single #
loop $-1 -1 $-1 $-1 $42 $22 #
plane-surface $-1 -1 $-1 151.44337999999999 97.5 31.850010000000001 0.86602625473013028 -0.49999852611593121 0 0 0 -0.99999999999999989 forward_v I I I I #
face $43 -1 $-1 $44 $45 $23 $-1 $46 forward single #
face $-1 -1 $-1 $47 $48 $25 $-1 $49 reversed single #
face $-1 -1 $-1 $50 $51 $27 $-1 $52 forward single #
face $-1 -1 $-1 $53 $54 $29 $-1 $55 forward single #
model_id-kcp-attrib $-1 -1 $-1 $-1 $31 1 1021323988 1021323988 325255169 3 #
face $56 -1 $-1 $57 $58 $9 $-1 $59 reversed single #
loop $-1 -1 $-1 $-1 $60 $31 #
plane-surface $-1 -1 $-1 148.55661999999998 97.5 31.850010000000001 0 -1 0 0 0 -0.99999999999999989 forward_v I I I I #
coedge $-1 -1 $-1 $61 $62 $63 $64 reversed $32 $-1 #
model_id-kcp-attrib $-1 -1 $-1 $-1 $34 1 1021323988 1021323988 325255170 2 #
face $65 -1 $-1 $66 $67 $23 $-1 $68 reversed single #
loop $-1 -1 $-1 $-1 $69 $34 #
plane-surface $-1 -1 $-1 0 0 15.925000000000002 0 0 1 1 0 0 forward_v I I I I #
face $-1 -1 $-1 $70 $71 $25 $-1 $49 reversed single #
loop $-1 -1 $-1 $-1 $72 $35 #
cone-surface $-1 -1 $-1 0 0 15.925000000000002 0 0 1 4.9999999999999991 0 0 1 I I 0 1 4.9999999999999991 forward I I I I #
face $-1 -1 $-1 $73 $74 $27 $-1 $75 forward single #
loop $-1 -1 $-1 $-1 $76 $36 #
plane-surface $-1 -1 $-1 1.4433799999999337 -2.5000000000000142 12.924999999999995 0 -1 0 0 0 -1 forward_v I I I I #
face $-1 -1 $-1 $77 $78 $29 $-1 $79 forward single #
loop $-1 -1 $-1 $80 $81 $37 #
cone-surface $-1 -1 $-1 0 0 10.075000000000003 0 0 -1 2.9099999999999997 0 0 1 I I 0 -1 2.9099999999999997 forward I I I I #
model_id-kcp-attrib $-1 -1 $-1 $-1 $39 1 1021323988 1021323988 325255169 4 #
face $82 -1 $-1 $83 $84 $9 $-1 $85 reversed single #
loop $-1 -1 $-1 $-1 $86 $39 #
plane-surface $-1 -1 $-1 147.11324999999997 100 31.850010000000001 -0.86602625473013028 -0.49999852611593132 0 0 0 0.99999999999999989 forward_v I I I I #
coedge $-1 -1 $-1 $87 $88 $89 $90 reversed $40 $-1 #
coedge $-1 -1 $-1 $91 $42 $92 $93 forward $32 $-1 #
coedge $-1 -1 $-1 $42 $91 $87 $94 reversed $32 $-1 #
coedge $-1 -1 $-1 $89 $95 $42 $64 forward $96 $-1 #
edge $97 -1 $-1 $98 -2.1650596273651925 $99 0.7216888821000792 $63 $100 forward @7 unknown #
model_id-kcp-attrib $-1 -1 $-1 $-1 $44 1 1021323988 1021323988 325255170 3 #
face $-1 -1 $-1 $101 $102 $23 $-1 $103 reversed single #
loop $-1 -1 $-1 $-1 $104 $44 #
plane-surface $-1 -1 $-1 0 0 -15.925000000000002 0 0 1 1 0 0 forward_v I I I I #
coedge $-1 -1 $-1 $105 $106 $107 $108 forward $45 $-1 #
face $-1 -1 $-1 $109 $110 $25 $-1 $49 reversed single #
loop $-1 -1 $-1 $-1 $111 $47 #
coedge $-1 -1 $-1 $112 $113 $114 $115 reversed $48 $-1 #
face $-1 -1 $-1 $116 $117 $27 $-1 $118 forward single #
loop $-1 -1 $-1 $-1 $119 $50 #
plane-surface $-1 -1 $-1 -1.4433800000000758 -2.5000000000000142 12.924999999999995 -0.86602625473013028 -0.49999852611593132 0 0 0 1 forward_v I I I I #
coedge $-1 -1 $-1 $120 $121 $122 $123 forward $51 $-1 #
face $-1 -1 $-1 $124 $125 $29 $-1 $126 reversed single #
loop $-1 -1 $-1 $127 $128 $53 #
cone-surface $-1 -1 $-1 0 0 10.075000000000003 0 0 -1 4.9999999999999991 0 0 1 I I 0 1 4.9999999999999991 forward I I I I #
loop $-1 -1 $-1 $-1 $129 $37 #
coedge $-1 -1 $-1 $81 $81 $130 $131 forward $54 $-1 #
model_id-kcp-attrib $-1 -1 $-1 $-1 $57 1 1021323988 1021323988 325255169 5 #
face $132 -1 $-1 $133 $134 $9 $-1 $135 reversed single #
loop $-1 -1 $-1 $-1 $136 $57 #
plane-surface $-1 -1 $-1 148.55661999999998 102.5 31.850010000000001 -0.86602625473013028 0.49999852611593132 0 0 0 0.99999999999999989 forward_v I I I I #
coedge $-1 -1 $-1 $137 $138 $139 $140 reversed $58 $-1 #
coedge $-1 -1 $-1 $141 $60 $62 $94 forward $40 $-1 #
coedge $-1 -1 $-1 $60 $141 $137 $142 reversed $40 $-1 #
coedge $-1 -1 $-1 $139 $63 $60 $90 forward $96 $-1 #
edge $143 -1 $-1 $99 -2.1650699999999863 $144 0.72169000000002381 $89 $145 forward @7 unknown #
coedge $-1 -1 $-1 $62 $61 $146 $147 reversed $32 $-1 #
coedge $-1 -1 $-1 $148 $149 $61 $93 reversed $134 $-1 #
edge $-1 -1 $-1 $98 2.000009999999993 $150 5.0000100000000005 $92 $151 forward @7 unknown #
edge $-1 -1 $-1 $99 2.000009999999993 $152 5.0000100000000005 $62 $153 forward @7 unknown #
coedge $-1 -1 $-1 $63 $154 $148 $155 forward $96 $-1 #
loop $-1 -1 $-1 $156 $157 $158 #
attrib_edge_convexity-kcp-attrib $-1 -1 $159 $-1 $64 1 #
vertex $-1 -1 $-1 $64 $160 #
vertex $-1 -1 $-1 $90 $161 #
straight-curve $-1 -1 $-1 151.80422337736428 98.125001519645508 29.850000000000009 -0.49999852611593115 -0.86602625473013017 0 I I #
face $-1 -1 $-1 $162 $163 $23 $-1 $164 reversed single #
loop $-1 -1 $-1 $-1 $165 $66 #
plane-surface $-1 -1 $-1 0 -5 0 0 1 0 0 0 1 forward_v I I I I #
coedge $-1 -1 $-1 $166 $167 $168 $169 forward $67 $-1 #
coedge $-1 -1 $-1 $170 $69 $171 $172 forward $45 $-1 #
coedge $-1 -1 $-1 $69 $170 $173 $174 forward $45 $-1 #
coedge $-1 -1 $-1 $175 $176 $69 $108 reversed $177 $-1 #
edge $-1 -1 $-1 $178 -5 $179 5 $107 $180 forward @7 unknown #
face $-1 -1 $-1 $181 $182 $25 $-1 $49 reversed single #
loop $-1 -1 $-1 $-1 $183 $70 #
coedge $-1 -1 $-1 $184 $185 $186 $187 reversed $71 $-1 #
coedge $-1 -1 $-1 $188 $72 $189 $190 reversed $48 $-1 #
coedge $-1 -1 $-1 $72 $188 $191 $192 reversed $48 $-1 #
coedge $-1 -1 $-1 $193 $194 $195 $115 forward $196 $-1 #
edge $-1 -1 $-1 $197 -31.850000000000005 $198 0 $114 $199 forward @7 unknown #
face $-1 -1 $-1 $200 $201 $27 $-1 $202 forward single #
loop $-1 -1 $-1 $-1 $203 $73 #
plane-surface $-1 -1 $-1 -2.8867500000000916 -1.4210854715202004e-014 12.924999999999995 -0.86602625473013028 0.49999852611593132 0 0 0 1 forward_v I I I I #
coedge $-1 -1 $-1 $204 $205 $206 $207 forward $74 $-1 #
coedge $-1 -1 $-1 $208 $76 $205 $209 reversed $51 $-1 #
coedge $-1 -1 $-1 $76 $208 $210 $211 forward $51 $-1 #
coedge $-1 -1 $-1 $212 $206 $76 $123 reversed $213 $-1 #
edge $-1 -1 $-1 $214 -2.1650700000000143 $215 0.72168999999999528 $76 $216 forward @7 unknown #
face $-1 -1 $-1 $-1 $217 $29 $-1 $218 forward single #
loop $-1 -1 $-1 $219 $220 $77 #
plane-surface $-1 -1 $-1 -0.18999999999999997 8.872696125553341e-017 -15.925000000000001 -1.8856425198227848e-032 6.599748819379748e-032 1 1 0 1.8856425198227848e-032 forward_v I I I I #
loop $-1 -1 $-1 $-1 $221 $53 #
coedge $-1 -1 $-1 $128 $128 $220 $222 forward $78 $-1 #
coedge $-1 -1 $-1 $129 $129 $223 $224 reversed $80 $-1 #
coedge $-1 -1 $-1 $130 $130 $81 $131 reversed $219 $-1 #
edge $-1 -1 $-1 $225 0 $225 6.2831853071795862 $81 $226 forward @7 unknown #
model_id-kcp-attrib $-1 -1 $-1 $-1 $83 1 1021323988 1021323988 325255169 6 #
face $227 -1 $-1 $228 $229 $9 $-1 $230 reversed single #
loop $-1 -1 $-1 $-1 $148 $83 #
plane-surface $-1 -1 $-1 152.88674999999998 100 31.850010000000001 0.86602625473013028 0.49999852611593121 0 0 0 -0.99999999999999989 forward_v I I I I #
coedge $-1 -1 $-1 $231 $232 $157 $233 reversed $84 $-1 #
coedge $-1 -1 $-1 $234 $86 $88 $142 forward $58 $-1 #
coedge $-1 -1 $-1 $86 $234 $231 $235 reversed $58 $-1 #
coedge $-1 -1 $-1 $157 $89 $86 $140 forward $96 $-1 #
edge $236 -1 $-1 $144 -2.1650631368326834 $237 0.72168537263260246 $139 $238 forward @7 unknown #
coedge $-1 -1 $-1 $88 $87 $239 $240 reversed $40 $-1 #
edge $-1 -1 $-1 $144 2.000009999999993 $241 5.0000100000000005 $88 $242 forward @7 unknown #
attrib_edge_convexity-kcp-attrib $-1 -1 $243 $-1 $90 1 #
vertex $-1 -1 $-1 $140 $244 #
straight-curve $-1 -1 $-1 149.27831 97.500000000000014 29.850000000000009 -0.99999999999999989 0 0 I I #
coedge $-1 -1 $-1 $245 $239 $91 $147 forward $246 $-1 #
edge $247 -1 $-1 $152 -2.8867485094652712 $150 0 $91 $248 forward @7 unknown #
coedge $-1 -1 $-1 $249 $92 $95 $155 reversed $134 $-1 #
coedge $-1 -1 $-1 $92 $249 $245 $250 reversed $134 $-1 #
vertex $-1 -1 $-1 $93 $251 #
straight-curve $-1 -1 $-1 152.88674999999998 100 31.850010000000001 0 0 -0.99999999999999989 I I #
vertex $-1 -1 $-1 $94 $252 #
straight-curve $-1 -1 $-1 151.44337999999999 97.5 31.850010000000001 0 0 -0.99999999999999989 I I #
coedge $-1 -1 $-1 $95 $157 $253 $254 forward $96 $-1 #
edge $255 -1 $-1 $256 -2.16506313683271 $98 0.72168537263256172 $95 $257 forward @7 unknown #
loop $-1 -1 $-1 $-1 $258 $158 #
coedge $-1 -1 $-1 $154 $139 $136 $233 forward $96 $-1 #
face $259 -1 $-1 $260 $96 $9 $-1 $261 forward single #
convexity-sys-attrib $-1 -1 $-1 $97 $64 #
point $-1 -1 $-1 152.88674999999998 100 29.850000000000009 #
point $-1 -1 $-1 151.44337999999999 97.5 29.850000000000009 #
face $-1 -1 $-1 $262 $263 $23 $-1 $264 reversed single #
loop $-1 -1 $-1 $-1 $265 $101 #
plane-surface $-1 -1 $-1 -5 0 0 1 0 0 0 0 -1 forward_v I I I I #
coedge $-1 -1 $-1 $266 $173 $267 $268 forward $102 $-1 #
coedge $-1 -1 $-1 $269 $104 $266 $270 forward $67 $-1 #
coedge $-1 -1 $-1 $104 $269 $271 $272 forward $67 $-1 #
coedge $-1 -1 $-1 $176 $175 $104 $169 reversed $177 $-1 #
edge $-1 -1 $-1 $273 -5 $274 5 $168 $275 forward @7 unknown #
coedge $-1 -1 $-1 $106 $105 $276 $277 forward $45 $-1 #
coedge $-1 -1 $-1 $278 $279 $105 $172 reversed $263 $-1 #
edge $-1 -1 $-1 $179 -5 $280 5 $171 $281 forward @7 unknown #
coedge $-1 -1 $-1 $165 $282 $106 $174 reversed $102 $-1 #
edge $-1 -1 $-1 $283 -5 $178 5 $173 $284 forward @7 unknown #
coedge $-1 -1 $-1 $168 $107 $282 $285 forward $177 $-1 #
coedge $-1 -1 $-1 $107 $168 $278 $286 reversed $177 $-1 #
loop $-1 -1 $-1 $-1 $175 $262 #
vertex $-1 -1 $-1 $108 $287 #
vertex $-1 -1 $-1 $108 $288 #
straight-curve $-1 -1 $-1 5 0 15.925000000000002 0 1 0 I I #
face $-1 -1 $-1 $289 $290 $25 $-1 $291 reversed single #
loop $-1 -1 $-1 $-1 $292 $109 #
coedge $-1 -1 $-1 $293 $294 $295 $296 reversed $110 $-1 #
coedge $-1 -1 $-1 $297 $111 $298 $299 reversed $71 $-1 #
coedge $-1 -1 $-1 $111 $297 $72 $115 forward $71 $-1 #
coedge $-1 -1 $-1 $300 $301 $111 $187 forward $302 $-1 #
edge $-1 -1 $-1 $303 -3.1415926535897931 $198 -1.5707963267948966 $186 $304 forward @7 unknown #
coedge $-1 -1 $-1 $113 $112 $294 $305 forward $48 $-1 #
coedge $-1 -1 $-1 $306 $307 $112 $190 forward $308 $-1 #
edge $-1 -1 $-1 $309 0 $197 1.5707963267948966 $189 $310 forward @7 unknown #
coedge $-1 -1 $-1 $311 $312 $113 $192 forward $313 $-1 #
edge $-1 -1 $-1 $198 -1.5707963267948966 $314 0 $191 $304 forward @7 unknown #
coedge $-1 -1 $-1 $315 $114 $312 $316 reversed $196 $-1 #
coedge $-1 -1 $-1 $114 $315 $306 $317 reversed $196 $-1 #
coedge $-1 -1 $-1 $318 $319 $185 $115 reversed $320 $-1 #
loop $-1 -1 $-1 $-1 $114 $321 #
vertex $-1 -1 $-1 $317 $322 #
vertex $-1 -1 $-1 $323 $324 #
straight-curve $-1 -1 $-1 0 5 15.925000000000002 0 0 1 I I #
face $-1 -1 $-1 $325 $326 $27 $-1 $327 forward single #
loop $-1 -1 $-1 $-1 $328 $116 #
plane-surface $-1 -1 $-1 -1.4433800000000758 2.4999999999999858 12.924999999999995 0 1 0 0 0 1 forward_v I I I I #
coedge $-1 -1 $-1 $329 $330 $331 $332 forward $117 $-1 #
coedge $-1 -1 $-1 $333 $119 $330 $334 reversed $74 $-1 #
coedge $-1 -1 $-1 $119 $333 $120 $209 forward $74 $-1 #
coedge $-1 -1 $-1 $122 $331 $119 $207 reversed $213 $-1 #
edge $-1 -1 $-1 $215 -2.1650631368327016 $335 0.72168537263258403 $119 $336 forward @7 unknown #
coedge $-1 -1 $-1 $121 $120 $337 $338 reversed $51 $-1 #
edge $339 -1 $-1 $340 0 $215 3.0000000000000071 $205 $341 forward @7 unknown #
coedge $-1 -1 $-1 $342 $343 $121 $211 reversed $344 $-1 #
edge $-1 -1 $-1 $345 0 $214 3.0000000000000071 $121 $346 forward @7 unknown #
coedge $-1 -1 $-1 $347 $122 $343 $348 reversed $213 $-1 #
loop $-1 -1 $-1 $-1 $122 $349 #
vertex $-1 -1 $-1 $211 $350 #
vertex $-1 -1 $-1 $209 $351 #
straight-curve $-1 -1 $-1 -0.72169000000008054 -2.5000000000000142 15.925000000000004 -1 0 0 I I #
loop $-1 -1 $-1 $352 $353 $124 #
plane-surface $-1 -1 $-1 -0.18999999999999997 8.872696125553341e-017 10.075000000000003 -1.8856425198227848e-032 6.599748819379748e-032 1 1 0 1.8856425198227848e-032 forward_v I I I I #
loop $-1 -1 $-1 $-1 $130 $77 #
coedge $-1 -1 $-1 $220 $220 $128 $222 reversed $125 $-1 #
coedge $-1 -1 $-1 $221 $221 $353 $354 reversed $127 $-1 #
edge $-1 -1 $-1 $355 -3.1415926535897931 $355 3.1415926535897931 $128 $356 forward @7 unknown #
coedge $-1 -1 $-1 $223 $223 $129 $224 forward $352 $-1 #
edge $357 -1 $-1 $358 0 $358 6.2831853071795862 $129 $359 forward @7 unknown #
vertex $-1 -1 $-1 $131 $360 #
ellipse-curve $-1 -1 $-1 0 0 -15.925000000000001 0 0 -1 2.9099999999999997 0 0 1 I I #
model_id-kcp-attrib $-1 -1 $-1 $-1 $133 1 1021323988 1021323988 325255169 7 #
face $361 -1 $-1 $362 $246 $9 $-1 $363 forward single #
loop $-1 -1 $-1 $-1 $253 $133 #
plane-surface $-1 -1 $-1 151.44337999999999 102.5 31.850010000000001 0 1 0 0 0 0.99999999999999989 forward_v I I I I #
coedge $-1 -1 $-1 $364 $136 $138 $235 forward $84 $-1 #
coedge $-1 -1 $-1 $136 $364 $365 $366 reversed $84 $-1 #
edge $367 -1 $-1 $237 -2.165059627365256 $368 0.72168888210003002 $157 $369 forward @7 unknown #
coedge $-1 -1 $-1 $138 $137 $370 $371 reversed $58 $-1 #
edge $-1 -1 $-1 $237 2.000009999999993 $372 5.0000100000000005 $138 $373 forward @7 unknown #
attrib_edge_convexity-kcp-attrib $-1 -1 $374 $-1 $140 1 #
vertex $-1 -1 $-1 $233 $375 #
straight-curve $-1 -1 $-1 147.47409162263571 99.37500151964548 29.850000000000009 -0.49999852611593126 0.86602625473013017 0 I I #
coedge $-1 -1 $-1 $146 $370 $141 $240 forward $246 $-1 #
edge $376 -1 $-1 $241 -2.88676000000001 $152 0 $141 $377 forward @7 unknown #
vertex $-1 -1 $-1 $142 $378 #
straight-curve $-1 -1 $-1 148.55661999999998 97.5 31.850010000000001 0 0 -0.99999999999999989 I I #
convexity-sys-attrib $-1 -1 $-1 $143 $90 #
point $-1 -1 $-1 148.55661999999998 97.5 29.850000000000009 #
coedge $-1 -1 $-1 $379 $146 $149 $250 forward $246 $-1 #
loop $-1 -1 $-1 $-1 $380 $228 #
attrib_edge_convexity-kcp-attrib $-1 -1 $381 $-1 $147 2 #
straight-curve $-1 -1 $-1 152.88674999999998 100 26.850000000000001 0.49999852611593115 0.86602625473013017 0 I I #
coedge $-1 -1 $-1 $149 $148 $382 $383 forward $134 $-1 #
edge $384 -1 $-1 $150 -2.8867485094652712 $385 0 $149 $386 forward @7 unknown #
point $-1 -1 $-1 152.88674999999998 100 26.850000000000001 #
point $-1 -1 $-1 151.44337999999999 97.5 26.850000000000001 #
coedge $-1 -1 $-1 $365 $382 $154 $254 reversed $229 $-1 #
edge $387 -1 $-1 $368 -2.1650700000000431 $256 0.72168999999996697 $154 $388 forward @7 unknown #
attrib_edge_convexity-kcp-attrib $-1 -1 $389 $-1 $155 1 #
vertex $-1 -1 $-1 $155 $390 #
straight-curve $-1 -1 $-1 152.52590837736429 100.62499848035451 29.850000000000009 0.49999852611593115 -0.86602625473013017 0 I I #
coedge $-1 -1 $-1 $258 $258 $391 $392 forward $156 $-1 #
model_id-kcp-attrib $-1 -1 $-1 $-1 $158 1 1021323988 1021323988 325255169 11 #
face $393 -1 $-1 $394 $395 $9 $-1 $396 forward single #
plane-surface $-1 -1 $-1 150.00000000000006 100.00000000000001 29.850000000000009 0 0 1 0.99999999999999989 0 0 forward_v I I I I #
face $-1 -1 $-1 $-1 $177 $23 $-1 $397 reversed single #
loop $-1 -1 $-1 $-1 $278 $162 #
plane-surface $-1 -1 $-1 0 5 0 0 -1 0 0 0 -1 forward_v I I I I #
coedge $-1 -1 $-1 $398 $276 $279 $399 forward $163 $-1 #
coedge $-1 -1 $-1 $282 $165 $166 $270 reversed $102 $-1 #
coedge $-1 -1 $-1 $276 $398 $165 $268 reversed $163 $-1 #
edge $-1 -1 $-1 $283 -15.925000000000002 $400 15.925000000000002 $267 $401 forward @7 unknown #
coedge $-1 -1 $-1 $167 $166 $398 $402 forward $67 $-1 #
edge $-1 -1 $-1 $274 -5 $400 5 $266 $403 forward @7 unknown #
coedge $-1 -1 $-1 $279 $278 $167 $272 reversed $263 $-1 #
edge $-1 -1 $-1 $404 -5 $273 5 $271 $405 forward @7 unknown #
vertex $-1 -1 $-1 $169 $406 #
vertex $-1 -1 $-1 $285 $407 #
straight-curve $-1 -1 $-1 5 0 -15.925000000000002 0 -1 0 I I #
coedge $-1 -1 $-1 $265 $267 $170 $277 reversed $163 $-1 #
edge $-1 -1 $-1 $280 -5 $283 5 $276 $408 forward @7 unknown #
coedge $-1 -1 $-1 $271 $171 $176 $286 forward $263 $-1 #
coedge $-1 -1 $-1 $171 $271 $265 $399 reversed $263 $-1 #
vertex $-1 -1 $-1 $172 $409 #
straight-curve $-1 -1 $-1 0 5 15.925000000000002 -1 0 0 I I #
coedge $-1 -1 $-1 $173 $266 $175 $285 reversed $102 $-1 #
vertex $-1 -1 $-1 $277 $410 #
straight-curve $-1 -1 $-1 0 -5 15.925000000000002 1 0 0 I I #
edge $-1 -1 $-1 $178 -15.925000000000002 $274 15.925000000000002 $175 $411 forward @7 unknown #
edge $-1 -1 $-1 $179 -15.925000000000002 $273 15.925000000000002 $176 $412 forward @7 unknown #
point $-1 -1 $-1 5 -5 15.925000000000002 #
point $-1 -1 $-1 5 5 15.925000000000002 #
face $-1 -1 $-1 $413 $320 $25 $-1 $414 reversed single #
loop $-1 -1 $-1 $-1 $415 $181 #
plane-surface $-1 -1 $-1 5 0 0 -1 0 0 0 0 1 forward_v I I I I #
coedge $-1 -1 $-1 $416 $417 $418 $419 reversed $182 $-1 #
coedge $-1 -1 $-1 $420 $183 $417 $421 forward $110 $-1 #
coedge $-1 -1 $-1 $183 $420 $422 $305 reversed $110 $-1 #
coedge $-1 -1 $-1 $423 $424 $183 $296 forward $425 $-1 #
edge $-1 -1 $-1 $426 -1.5707963267948966 $309 0 $295 $310 forward @7 unknown #
coedge $-1 -1 $-1 $185 $184 $427 $428 reversed $71 $-1 #
coedge $-1 -1 $-1 $429 $430 $431 $299 forward $432 $-1 #
edge $-1 -1 $-1 $433 -31.850000000000005 $303 0 $298 $434 forward @7 unknown #
coedge $-1 -1 $-1 $301 $186 $319 $323 forward $302 $-1 #
coedge $-1 -1 $-1 $186 $300 $429 $435 forward $302 $-1 #
loop $-1 -1 $-1 $-1 $186 $436 #
vertex $-1 -1 $-1 $437 $438 #
ellipse-curve $-1 -1 $-1 0 0 15.925000000000002 0 0 -1 4.9999999999999991 0 0 1 I I #
edge $-1 -1 $-1 $309 -31.850000000000005 $314 0 $422 $439 forward @7 unknown #
coedge $-1 -1 $-1 $307 $189 $194 $317 forward $308 $-1 #
coedge $-1 -1 $-1 $189 $306 $440 $441 forward $308 $-1 #
loop $-1 -1 $-1 $-1 $189 $442 #
vertex $-1 -1 $-1 $443 $444 #
ellipse-curve $-1 -1 $-1 0 0 -15.925000000000002 0 0 1 4.9999999999999991 0 0 1 I I #
coedge $-1 -1 $-1 $312 $191 $445 $446 forward $313 $-1 #
coedge $-1 -1 $-1 $191 $311 $193 $316 forward $313 $-1 #
loop $-1 -1 $-1 $-1 $191 $447 #
vertex $-1 -1 $-1 $446 $448 #
coedge $-1 -1 $-1 $194 $193 $449 $450 forward $196 $-1 #
edge $-1 -1 $-1 $451 -5 $198 0 $193 $452 forward @7 unknown #
edge $-1 -1 $-1 $197 0 $453 5 $194 $454 forward @7 unknown #
coedge $-1 -1 $-1 $455 $195 $456 $457 reversed $320 $-1 #
coedge $-1 -1 $-1 $195 $455 $300 $323 reversed $320 $-1 #
loop $-1 -1 $-1 $-1 $195 $289 #
face $-1 -1 $-1 $458 $196 $25 $-1 $414 reversed single #
point $-1 -1 $-1 0 5 -15.925000000000002 #
edge $-1 -1 $-1 $198 0 $459 5 $319 $452 forward @7 unknown #
point $-1 -1 $-1 0 5 15.925000000000002 #
face $-1 -1 $-1 $349 $344 $27 $-1 $460 forward single #
loop $-1 -1 $-1 $-1 $461 $200 #
plane-surface $-1 -1 $-1 1.4433799999999337 2.4999999999999858 12.924999999999995 0.86602625473013028 0.49999852611593121 0 0 0 -1 forward_v I I I I #
coedge $-1 -1 $-1 $462 $463 $464 $465 forward $201 $-1 #
coedge $-1 -1 $-1 $466 $203 $463 $467 reversed $117 $-1 #
coedge $-1 -1 $-1 $203 $466 $204 $334 forward $117 $-1 #
coedge $-1 -1 $-1 $206 $464 $203 $332 reversed $213 $-1 #
edge $-1 -1 $-1 $335 -2.1650596273652267 $468 0.72168888210005866 $203 $469 forward @7 unknown #
coedge $-1 -1 $-1 $205 $204 $470 $471 reversed $74 $-1 #
edge $-1 -1 $-1 $472 0 $335 3.0000000000000071 $330 $473 forward @7 unknown #
vertex $-1 -1 $-1 $334 $474 #
straight-curve $-1 -1 $-1 -2.5259083773643729 -0.62499848035452932 15.925000000000004 -0.49999852611593132 0.86602625473013028 0 I I #
coedge $-1 -1 $-1 $470 $475 $208 $338 forward $476 $-1 #
edge $477 -1 $-1 $345 -2.1650700000000143 $340 0.72168999999999528 $208 $478 forward @7 unknown #
convexity-sys-attrib $-1 -1 $-1 $-1 $209 #
vertex $-1 -1 $-1 $338 $479 #
straight-curve $-1 -1 $-1 -1.4433800000000758 -2.5000000000000142 12.924999999999995 0 0 1 I I #
coedge $-1 -1 $-1 $480 $210 $475 $481 reversed $344 $-1 #
coedge $-1 -1 $-1 $210 $480 $212 $348 forward $344 $-1 #
loop $-1 -1 $-1 $-1 $343 $325 #
vertex $-1 -1 $-1 $481 $482 #
straight-curve $-1 -1 $-1 1.4433799999999337 -2.5000000000000142 12.924999999999995 0 0 1 I I #
coedge $-1 -1 $-1 $464 $212 $461 $483 reversed $213 $-1 #
edge $-1 -1 $-1 $484 -2.1650596273652196 $214 0.72168888210005178 $343 $485 forward @7 unknown #
face $-1 -1 $-1 $486 $213 $27 $-1 $487 forward single #
point $-1 -1 $-1 1.4433799999999337 -2.5000000000000142 15.925000000000002 #
point $-1 -1 $-1 -1.4433800000000758 -2.5000000000000142 15.925000000000002 #
loop $-1 -1 $-1 $-1 $223 $124 #
coedge $-1 -1 $-1 $353 $353 $221 $354 forward $217 $-1 #
edge $488 -1 $-1 $489 -3.1415926535897931 $489 3.1415926535897931 $221 $490 forward @7 unknown #
vertex $-1 -1 $-1 $222 $491 #
ellipse-curve $-1 -1 $-1 0 0 -15.925000000000001 0 0 1 4.9999999999999991 0 0 1 I I #
convexity-sys-attrib $-1 -1 $-1 $-1 $224 #
vertex $-1 -1 $-1 $224 $492 #
ellipse-curve $-1 -1 $-1 0 0 10.075000000000003 0 0 -1 2.9099999999999997 0 0 1 I I #
point $-1 -1 $-1 2.9099999999999966 0 -15.925000000000006 #
model_id-kcp-attrib $-1 -1 $-1 $-1 $228 1 1021323988 1021323988 325255169 8 #
face $493 -1 $-1 $494 $495 $9 $-1 $496 forward single #
plane-surface $-1 -1 $-1 148.55661999999998 102.5 26.850000000000001 0 0 1 0.99999999999999989 0 0 forward_v I I I I #
coedge $-1 -1 $-1 $232 $231 $380 $497 reversed $84 $-1 #
coedge $-1 -1 $-1 $498 $253 $232 $366 forward $229 $-1 #
edge $-1 -1 $-1 $368 2.000009999999993 $499 5.0000100000000005 $232 $500 forward @7 unknown #
attrib_edge_convexity-kcp-attrib $-1 -1 $501 $-1 $233 1 #
vertex $-1 -1 $-1 $233 $502 #
straight-curve $-1 -1 $-1 148.19577662263569 101.87499848035455 29.850000000000009 0.49999852611593126 0.86602625473013017 0 I I #
coedge $-1 -1 $-1 $239 $380 $234 $371 forward $246 $-1 #
edge $503 -1 $-1 $372 -2.8867485094652858 $241 0 $234 $504 forward @7 unknown #
vertex $-1 -1 $-1 $235 $505 #
straight-curve $-1 -1 $-1 147.11324999999997 100 31.850010000000001 0 0 -0.99999999999999989 I I #
convexity-sys-attrib $-1 -1 $-1 $236 $140 #
point $-1 -1 $-1 147.11324999999997 100 29.850000000000009 #
attrib_edge_convexity-kcp-attrib $-1 -1 $506 $-1 $240 2 #
straight-curve $-1 -1 $-1 151.44337999999999 97.5 26.850000000000001 0.99999999999999989 0 0 I I #
point $-1 -1 $-1 148.55661999999998 97.5 26.850000000000001 #
coedge $-1 -1 $-1 $380 $245 $498 $507 forward $246 $-1 #
coedge $-1 -1 $-1 $370 $379 $364 $497 forward $246 $-1 #
convexity-sys-attrib $-1 -1 $-1 $247 $147 #
coedge $-1 -1 $-1 $253 $498 $249 $383 reversed $229 $-1 #
edge $-1 -1 $-1 $256 2.000009999999993 $385 5.0000100000000005 $382 $508 forward @7 unknown #
attrib_edge_convexity-kcp-attrib $-1 -1 $509 $-1 $250 2 #
vertex $-1 -1 $-1 $383 $510 #
straight-curve $-1 -1 $-1 151.44337999999999 102.5 26.850000000000001 -0.49999852611593115 0.86602625473013017 0 I I #
attrib_edge_convexity-kcp-attrib $-1 -1 $511 $-1 $254 1 #
straight-curve $-1 -1 $-1 150.72169000000002 102.50000000000001 29.850000000000009 0.99999999999999989 0 0 I I #
convexity-sys-attrib $-1 -1 $-1 $255 $155 #
point $-1 -1 $-1 151.44337999999999 102.5 29.850000000000009 #
coedge $-1 -1 $-1 $391 $391 $258 $392 reversed $512 $-1 #
edge $513 -1 $-1 $514 0 $514 6.2831853071795862 $258 $515 forward @7 unknown #
model_id-kcp-attrib $-1 -1 $-1 $-1 $260 1 1021323988 1021323988 325255169 12 #
face $516 -1 $-1 $-1 $517 $9 $-1 $518 forward single #
loop $-1 -1 $-1 $519 $520 $260 #
cone-surface $-1 -1 $-1 150.00000000000006 100.00000000000001 11.000000000000002 0 0 1 2.9099999999999997 0 0 1 I I 0 1 2.9099999999999997 forward I I I I #
plane-surface $-1 -1 $-1 5 0 0 -1 0 0 0 0 1 forward_v I I I I #
coedge $-1 -1 $-1 $267 $265 $269 $402 reversed $163 $-1 #
edge $-1 -1 $-1 $280 -15.925000000000002 $404 15.925000000000002 $279 $521 forward @7 unknown #
vertex $-1 -1 $-1 $402 $522 #
straight-curve $-1 -1 $-1 -5 -5 0 0 0 -1 I I #
edge $-1 -1 $-1 $400 -5 $404 5 $398 $523 forward @7 unknown #
straight-curve $-1 -1 $-1 0 -5 -15.925000000000002 -1 0 0 I I #
vertex $-1 -1 $-1 $272 $524 #
straight-curve $-1 -1 $-1 0 5 -15.925000000000002 1 0 0 I I #
point $-1 -1 $-1 5 5 -15.925000000000002 #
point $-1 -1 $-1 5 -5 -15.925000000000002 #
straight-curve $-1 -1 $-1 -5 0 15.925000000000002 0 -1 0 I I #
point $-1 -1 $-1 -5 5 15.925000000000002 #
point $-1 -1 $-1 -5 -5 15.925000000000002 #
straight-curve $-1 -1 $-1 5 -5 0 0 0 -1 I I #
straight-curve $-1 -1 $-1 5 5 0 0 0 -1 I I #
face $-1 -1 $-1 $525 $526 $25 $-1 $527 reversed single #
plane-surface $-1 -1 $-1 0 5 0 0 -1 0 0 0 -1 forward_v I I I I #
coedge $-1 -1 $-1 $440 $445 $188 $305 reversed $290 $-1 #
coedge $-1 -1 $-1 $528 $292 $184 $299 forward $182 $-1 #
coedge $-1 -1 $-1 $292 $528 $529 $421 reversed $182 $-1 #
coedge $-1 -1 $-1 $530 $531 $292 $419 forward $532 $-1 #
edge $-1 -1 $-1 $433 -3.1415926535897931 $426 -1.5707963267948966 $418 $310 forward @7 unknown #
coedge $-1 -1 $-1 $294 $293 $533 $534 reversed $110 $-1 #
edge $-1 -1 $-1 $426 -31.850000000000005 $535 0 $529 $536 forward @7 unknown #
coedge $-1 -1 $-1 $537 $538 $415 $305 forward $539 $-1 #
coedge $-1 -1 $-1 $424 $295 $538 $443 forward $425 $-1 #
coedge $-1 -1 $-1 $295 $423 $540 $541 forward $425 $-1 #
loop $-1 -1 $-1 $-1 $295 $542 #
vertex $-1 -1 $-1 $543 $544 #
coedge $-1 -1 $-1 $545 $456 $297 $428 forward $546 $-1 #
edge $-1 -1 $-1 $197 1.5707963267948966 $433 3.1415926535897931 $427 $310 forward @7 unknown #
coedge $-1 -1 $-1 $547 $298 $301 $435 reversed $432 $-1 #
coedge $-1 -1 $-1 $298 $547 $545 $548 reversed $432 $-1 #
coedge $-1 -1 $-1 $549 $550 $416 $299 reversed $526 $-1 #
loop $-1 -1 $-1 $-1 $298 $551 #
vertex $-1 -1 $-1 $548 $552 #
straight-curve $-1 -1 $-1 -5 0 15.925000000000002 0 0 1 I I #
edge $-1 -1 $-1 $459 -5 $303 0 $429 $553 forward @7 unknown #
face $-1 -1 $-1 $447 $302 $25 $-1 $554 forward single #
edge $-1 -1 $-1 $303 0 $555 5 $550 $553 forward @7 unknown #
point $-1 -1 $-1 -5 0 15.925000000000002 #
straight-curve $-1 -1 $-1 5 0 15.925000000000002 0 0 1 I I #
coedge $-1 -1 $-1 $449 $415 $307 $441 reversed $290 $-1 #
edge $-1 -1 $-1 $453 -5 $309 0 $440 $556 forward @7 unknown #
face $-1 -1 $-1 $557 $308 $25 $-1 $558 reversed single #
edge $-1 -1 $-1 $309 0 $559 5 $538 $556 forward @7 unknown #
point $-1 -1 $-1 5 0 -15.925000000000002 #
coedge $-1 -1 $-1 $415 $449 $311 $446 reversed $290 $-1 #
edge $-1 -1 $-1 $314 0 $451 5 $445 $560 forward @7 unknown #
face $-1 -1 $-1 $561 $313 $25 $-1 $554 forward single #
point $-1 -1 $-1 5 0 15.925000000000002 #
coedge $-1 -1 $-1 $445 $440 $315 $450 reversed $290 $-1 #
edge $-1 -1 $-1 $451 -15.925000000000002 $453 15.925000000000002 $449 $562 forward @7 unknown #
vertex $-1 -1 $-1 $446 $563 #
straight-curve $-1 -1 $-1 0 5 15.925000000000002 -1 0 0 I I #
vertex $-1 -1 $-1 $441 $564 #
straight-curve $-1 -1 $-1 0 5 -15.925000000000002 1 0 0 I I #
coedge $-1 -1 $-1 $319 $318 $547 $565 reversed $320 $-1 #
coedge $-1 -1 $-1 $427 $545 $318 $457 forward $546 $-1 #
edge $-1 -1 $-1 $566 -5 $197 0 $318 $454 forward @7 unknown #
face $-1 -1 $-1 $-1 $539 $25 $-1 $291 reversed single #
vertex $-1 -1 $-1 $323 $567 #
plane-surface $-1 -1 $-1 2.8867499999999211 -1.4210854715202004e-014 12.924999999999995 0.86602625473013028 -0.49999852611593121 0 0 0 -1 forward_v I I I I #
coedge $-1 -1 $-1 $568 $569 $347 $483 forward $326 $-1 #
coedge $-1 -1 $-1 $570 $328 $569 $571 reversed $201 $-1 #
coedge $-1 -1 $-1 $328 $570 $329 $467 forward $201 $-1 #
coedge $-1 -1 $-1 $331 $347 $328 $465 reversed $213 $-1 #
edge $-1 -1 $-1 $468 -2.1650700000000001 $572 0.72169000000000949 $328 $573 forward @7 unknown #
coedge $-1 -1 $-1 $330 $329 $574 $575 reversed $117 $-1 #
edge $-1 -1 $-1 $576 0 $468 3.0000000000000071 $463 $577 forward @7 unknown #
vertex $-1 -1 $-1 $467 $578 #
straight-curve $-1 -1 $-1 -1.8042233773643594 1.8749984803544977 15.925000000000004 0.49999852611593132 0.86602625473013028 0 I I #
coedge $-1 -1 $-1 $574 $337 $333 $471 forward $476 $-1 #
edge $579 -1 $-1 $340 -2.1650631368327016 $472 0.72168537263258403 $333 $580 forward @7 unknown #
vertex $-1 -1 $-1 $471 $581 #
straight-curve $-1 -1 $-1 -2.8867500000000916 -1.4210854715202004e-014 12.924999999999995 0 0 1 I I #
point $-1 -1 $-1 -2.8867500000000916 -1.4210854715202004e-014 15.925000000000002 #
coedge $-1 -1 $-1 $337 $582 $342 $481 forward $476 $-1 #
loop $-1 -1 $-1 $-1 $475 $486 #
convexity-sys-attrib $-1 -1 $-1 $-1 $338 #
straight-curve $-1 -1 $-1 -0.72169000000008054 -2.5000000000000142 12.924999999999997 -1 0 0 I I #
point $-1 -1 $-1 -1.4433800000000758 -2.5000000000000142 12.924999999999995 #
coedge $-1 -1 $-1 $343 $342 $568 $583 forward $344 $-1 #
edge $584 -1 $-1 $585 -2.1650596273652196 $345 0.72168888210005178 $342 $586 forward @7 unknown #
point $-1 -1 $-1 1.4433799999999337 -2.5000000000000142 12.924999999999995 #
edge $-1 -1 $-1 $572 -2.1650631368326869 $484 0.72168537263258392 $461 $587 forward @7 unknown #
vertex $-1 -1 $-1 $583 $588 #
straight-curve $-1 -1 $-1 1.8042233773642136 -1.8749984803545319 15.925000000000004 -0.49999852611593121 -0.86602625473013028 0 I I #
face $-1 -1 $-1 $-1 $476 $27 $-1 $589 reversed single #
plane-surface $-1 -1 $-1 -7.9330512967276564e-014 -1.6264767310758543e-014 15.925000000000004 6.57540639581387e-031 -1.5115897585073288e-031 1 1 0 -6.57540639581387e-031 forward_v I I I I #
convexity-sys-attrib $-1 -1 $-1 $-1 $354 #
vertex $-1 -1 $-1 $354 $590 #
ellipse-curve $-1 -1 $-1 0 0 10.075000000000003 0 0 1 4.9999999999999991 0 0 1 I I #
point $-1 -1 $-1 -4.9999999999999991 -6.1230317691118853e-016 -15.925000000000001 #
point $-1 -1 $-1 2.9099999999999966 0 10.074999999999998 #
model_id-kcp-attrib $-1 -1 $-1 $-1 $362 1 1021323988 1021323988 325255169 9 #
face $591 -1 $-1 $158 $592 $9 $-1 $593 forward single #
loop $-1 -1 $-1 $594 $595 $362 #
plane-surface $-1 -1 $-1 150.00000000000006 100.00000000000001 24.000000000000007 0 0 -1 -0.99999999999999989 0 0 forward_v I I I I #
edge $596 -1 $-1 $499 -2.8867485094652858 $372 0 $364 $597 forward @7 unknown #
coedge $-1 -1 $-1 $382 $365 $379 $507 reversed $229 $-1 #
vertex $-1 -1 $-1 $366 $598 #
straight-curve $-1 -1 $-1 148.55661999999998 102.5 31.850010000000001 0 0 -0.99999999999999989 I I #
convexity-sys-attrib $-1 -1 $-1 $367 $233 #
point $-1 -1 $-1 148.55661999999998 102.5 29.850000000000009 #
attrib_edge_convexity-kcp-attrib $-1 -1 $599 $-1 $371 2 #
straight-curve $-1 -1 $-1 148.55661999999998 97.5 26.850000000000001 0.49999852611593126 -0.86602625473013017 0 I I #
point $-1 -1 $-1 147.11324999999997 100 26.850000000000001 #
convexity-sys-attrib $-1 -1 $-1 $376 $240 #
edge $600 -1 $-1 $385 -2.88676000000001 $499 0 $498 $601 forward @7 unknown #
straight-curve $-1 -1 $-1 151.44337999999999 102.5 31.850010000000001 0 0 -0.99999999999999989 I I #
convexity-sys-attrib $-1 -1 $-1 $384 $250 #
point $-1 -1 $-1 151.44337999999999 102.5 26.850000000000001 #
convexity-sys-attrib $-1 -1 $-1 $387 $254 #
loop $-1 -1 $-1 $-1 $391 $494 #
attrib_edge_convexity-kcp-attrib $-1 -1 $602 $-1 $392 1 #
vertex $-1 -1 $-1 $392 $603 #
ellipse-curve $-1 -1 $-1 150.00000000000006 100.00000000000001 29.850000000000009 0 0 1 4.9999999999999991 0 0 1 I I #
model_id-kcp-attrib $-1 -1 $-1 $-1 $394 1 1021323988 1021323988 325255169 13 #
loop $-1 -1 $-1 $-1 $604 $394 #
plane-surface $-1 -1 $-1 150.00000000000006 100.00000000000001 -1.999999999999998 0 0 -1 -0.99999999999999989 0 0 forward_v I I I I #
loop $-1 -1 $-1 $-1 $605 $260 #
coedge $-1 -1 $-1 $520 $520 $604 $606 reversed $395 $-1 #
straight-curve $-1 -1 $-1 -5 5 0 0 0 -1 I I #
point $-1 -1 $-1 -5 -5 -15.925000000000002 #
straight-curve $-1 -1 $-1 -5 0 -15.925000000000002 0 1 0 I I #
point $-1 -1 $-1 -5 5 -15.925000000000002 #
face $-1 -1 $-1 $436 $607 $25 $-1 $554 forward single #
loop $-1 -1 $-1 $-1 $431 $413 #
plane-surface $-1 -1 $-1 -5 0 0 1 0 0 0 0 -1 forward_v I I I I #
coedge $-1 -1 $-1 $417 $416 $608 $609 reversed $182 $-1 #
coedge $-1 -1 $-1 $610 $611 $612 $421 forward $613 $-1 #
coedge $-1 -1 $-1 $531 $418 $611 $543 forward $532 $-1 #
coedge $-1 -1 $-1 $418 $530 $549 $614 forward $532 $-1 #
loop $-1 -1 $-1 $-1 $418 $615 #
coedge $-1 -1 $-1 $616 $617 $420 $534 forward $618 $-1 #
edge $-1 -1 $-1 $314 0 $535 1.5707963267948966 $533 $304 forward @7 unknown #
vertex $-1 -1 $-1 $619 $620 #
straight-curve $-1 -1 $-1 0 -5 15.925000000000002 0 0 1 I I #
coedge $-1 -1 $-1 $621 $422 $617 $622 reversed $539 $-1 #
coedge $-1 -1 $-1 $422 $621 $423 $443 reversed $539 $-1 #
loop $-1 -1 $-1 $-1 $422 $458 #
coedge $-1 -1 $-1 $623 $612 $424 $541 reversed $624 $-1 #
edge $-1 -1 $-1 $559 -5 $426 0 $540 $625 forward @7 unknown #
face $-1 -1 $-1 $442 $425 $25 $-1 $558 reversed single #
edge $-1 -1 $-1 $426 0 $626 5 $611 $625 forward @7 unknown #
point $-1 -1 $-1 0 -5 -15.925000000000002 #
coedge $-1 -1 $-1 $456 $427 $430 $548 forward $546 $-1 #
loop $-1 -1 $-1 $-1 $427 $557 #
coedge $-1 -1 $-1 $430 $429 $455 $565 forward $432 $-1 #
edge $-1 -1 $-1 $433 0 $566 5 $430 $627 forward @7 unknown #
coedge $-1 -1 $-1 $628 $431 $531 $614 reversed $526 $-1 #
coedge $-1 -1 $-1 $431 $628 $629 $437 reversed $526 $-1 #
face $-1 -1 $-1 $321 $432 $25 $-1 $527 reversed single #
point $-1 -1 $-1 -5 0 -15.925000000000002 #
straight-curve $-1 -1 $-1 -5 0 15.925000000000002 0 -1 0 I I #
plane-surface $-1 -1 $-1 0 0 15.925000000000002 0 0 1 1 0 0 forward_v I I I I #
vertex $-1 -1 $-1 $437 $630 #
straight-curve $-1 -1 $-1 5 0 -15.925000000000002 0 -1 0 I I #
face $-1 -1 $-1 $631 $546 $25 $-1 $558 reversed single #
plane-surface $-1 -1 $-1 0 0 -15.925000000000002 0 0 1 1 0 0 forward_v I I I I #
vertex $-1 -1 $-1 $632 $633 #
straight-curve $-1 -1 $-1 5 0 15.925000000000002 0 1 0 I I #
face $-1 -1 $-1 $634 $618 $25 $-1 $554 forward single #
straight-curve $-1 -1 $-1 5 5 0 0 0 -1 I I #
point $-1 -1 $-1 5 5 15.925000000000002 #
point $-1 -1 $-1 5 5 -15.925000000000002 #
edge $-1 -1 $-1 $459 -15.925000000000002 $566 15.925000000000002 $455 $635 forward @7 unknown #
vertex $-1 -1 $-1 $457 $636 #
point $-1 -1 $-1 -5 5 15.925000000000002 #
coedge $-1 -1 $-1 $637 $461 $480 $583 reversed $326 $-1 #
coedge $-1 -1 $-1 $461 $637 $462 $571 forward $326 $-1 #
coedge $-1 -1 $-1 $463 $462 $638 $639 reversed $201 $-1 #
edge $-1 -1 $-1 $640 0 $572 3.0000000000000071 $569 $641 forward @7 unknown #
vertex $-1 -1 $-1 $571 $642 #
straight-curve $-1 -1 $-1 0.72168999999992423 2.4999999999999858 15.925000000000004 1 0 0 I I #
coedge $-1 -1 $-1 $638 $470 $466 $575 forward $476 $-1 #
edge $643 -1 $-1 $472 -2.1650596273652267 $576 0.72168888210005866 $466 $644 forward @7 unknown #
vertex $-1 -1 $-1 $575 $645 #
straight-curve $-1 -1 $-1 -1.4433800000000758 2.4999999999999858 12.924999999999995 0 0 1 I I #
point $-1 -1 $-1 -1.4433800000000758 2.4999999999999858 15.925000000000002 #
convexity-sys-attrib $-1 -1 $-1 $-1 $471 #
straight-curve $-1 -1 $-1 -2.5259083773643729 -0.62499848035452932 12.924999999999997 -0.49999852611593132 0.86602625473013028 0 I I #
point $-1 -1 $-1 -2.8867500000000916 -1.4210854715202004e-014 12.924999999999995 #
coedge $-1 -1 $-1 $475 $638 $637 $646 forward $476 $-1 #
edge $-1 -1 $-1 $585 0 $484 3.0000000000000071 $480 $647 forward @7 unknown #
convexity-sys-attrib $-1 -1 $-1 $-1 $481 #
vertex $-1 -1 $-1 $481 $648 #
straight-curve $-1 -1 $-1 1.8042233773642136 -1.8749984803545319 12.924999999999997 -0.49999852611593121 -0.86602625473013028 0 I I #
straight-curve $-1 -1 $-1 2.5259083773642024 0.62499848035450078 15.925000000000004 0.49999852611593121 -0.86602625473013028 0 I I #
point $-1 -1 $-1 2.8867499999999211 -1.4210854715202004e-014 15.925000000000002 #
plane-surface $-1 -1 $-1 -7.9330512967276564e-014 -1.6264767310758543e-014 12.924999999999997 6.57540639581387e-031 -1.5115897585073288e-031 1 1 0 -6.57540639581387e-031 forward_v I I I I #
point $-1 -1 $-1 -4.9999999999999991 -6.1230317691118853e-016 10.075000000000003 #
model_id-kcp-attrib $-1 -1 $-1 $-1 $494 1 1021323988 1021323988 325255169 10 #
loop $-1 -1 $-1 $512 $649 $494 #
cone-surface $-1 -1 $-1 150.00000000000006 100.00000000000001 26.925000000000008 0 0 1 4.9999999999999991 0 0 1 I I 0 1 4.9999999999999991 forward I I I I #
loop $-1 -1 $-1 $-1 $650 $362 #
coedge $-1 -1 $-1 $595 $595 $649 $651 forward $495 $-1 #
attrib_edge_convexity-kcp-attrib $-1 -1 $652 $-1 $497 2 #
straight-curve $-1 -1 $-1 147.11324999999997 100 26.850000000000001 -0.49999852611593126 -0.86602625473013017 0 I I #
point $-1 -1 $-1 148.55661999999998 102.5 26.850000000000001 #
convexity-sys-attrib $-1 -1 $-1 $503 $371 #
attrib_edge_convexity-kcp-attrib $-1 -1 $653 $-1 $507 2 #
straight-curve $-1 -1 $-1 148.55661999999998 102.5 26.850000000000001 -0.99999999999999989 0 0 I I #
convexity-sys-attrib $-1 -1 $-1 $513 $392 #
point $-1 -1 $-1 155.00000000000006 100.00000000000001 29.850000000000009 #
coedge $-1 -1 $-1 $604 $604 $520 $606 forward $517 $-1 #
coedge $-1 -1 $-1 $605 $605 $650 $654 forward $519 $-1 #
edge $-1 -1 $-1 $655 0 $655 6.2831853071795862 $604 $656 forward @7 unknown #
loop $-1 -1 $-1 $-1 $608 $525 #
coedge $-1 -1 $-1 $629 $657 $528 $609 forward $607 $-1 #
edge $-1 -1 $-1 $535 1.5707963267948966 $303 3.1415926535897931 $608 $304 forward @7 unknown #
coedge $-1 -1 $-1 $658 $529 $657 $659 reversed $613 $-1 #
coedge $-1 -1 $-1 $529 $658 $530 $543 reversed $613 $-1 #
coedge $-1 -1 $-1 $540 $660 $293 $421 reversed $624 $-1 #
loop $-1 -1 $-1 $-1 $529 $631 #
edge $-1 -1 $-1 $626 -5 $433 0 $549 $627 forward @7 unknown #
face $-1 -1 $-1 $542 $532 $25 $-1 $558 reversed single #
coedge $-1 -1 $-1 $617 $533 $660 $619 forward $618 $-1 #
coedge $-1 -1 $-1 $533 $616 $537 $622 forward $618 $-1 #
loop $-1 -1 $-1 $-1 $533 $561 #
edge $-1 -1 $-1 $535 0 $661 5 $660 $662 forward @7 unknown #
point $-1 -1 $-1 0 -5 15.925000000000002 #
coedge $-1 -1 $-1 $538 $537 $623 $632 forward $539 $-1 #
edge $-1 -1 $-1 $661 -5 $314 0 $537 $560 forward @7 unknown #
coedge $-1 -1 $-1 $660 $540 $621 $632 reversed $624 $-1 #
loop $-1 -1 $-1 $-1 $612 $634 #
straight-curve $-1 -1 $-1 0 -5 -15.925000000000002 -1 0 0 I I #
vertex $-1 -1 $-1 $614 $663 #
straight-curve $-1 -1 $-1 -5 0 -15.925000000000002 0 1 0 I I #
coedge $-1 -1 $-1 $550 $549 $658 $664 reversed $526 $-1 #
coedge $-1 -1 $-1 $657 $608 $550 $437 forward $607 $-1 #
point $-1 -1 $-1 -5 -5 15.925000000000002 #
face $-1 -1 $-1 $551 $613 $25 $-1 $665 reversed single #
edge $-1 -1 $-1 $661 -15.925000000000002 $559 15.925000000000002 $621 $666 forward @7 unknown #
point $-1 -1 $-1 5 -5 -15.925000000000002 #
face $-1 -1 $-1 $615 $624 $25 $-1 $665 reversed single #
straight-curve $-1 -1 $-1 -5 5 0 0 0 -1 I I #
point $-1 -1 $-1 -5 5 -15.925000000000002 #
coedge $-1 -1 $-1 $569 $568 $582 $646 reversed $326 $-1 #
coedge $-1 -1 $-1 $582 $574 $570 $639 forward $476 $-1 #
edge $667 -1 $-1 $576 -2.1650700000000001 $640 0.72169000000000949 $570 $668 forward @7 unknown #
vertex $-1 -1 $-1 $639 $669 #
straight-curve $-1 -1 $-1 1.4433799999999337 2.4999999999999858 12.924999999999995 0 0 1 I I #
point $-1 -1 $-1 1.4433799999999337 2.4999999999999858 15.925000000000002 #
convexity-sys-attrib $-1 -1 $-1 $-1 $575 #
straight-curve $-1 -1 $-1 -1.8042233773643594 1.8749984803544977 12.924999999999997 0.49999852611593132 0.86602625473013028 0 I I #
point $-1 -1 $-1 -1.4433800000000758 2.4999999999999858 12.924999999999995 #
edge $670 -1 $-1 $640 -2.1650631368326869 $585 0.72168537263258392 $637 $671 forward @7 unknown #
straight-curve $-1 -1 $-1 2.8867499999999211 -1.4210854715202004e-014 12.924999999999995 0 0 1 I I #
point $-1 -1 $-1 2.8867499999999211 -1.4210854715202004e-014 12.924999999999995 #
coedge $-1 -1 $-1 $649 $649 $595 $651 reversed $592 $-1 #
coedge $-1 -1 $-1 $650 $650 $605 $654 reversed $594 $-1 #
edge $672 -1 $-1 $673 0 $673 6.2831853071795862 $595 $674 forward @7 unknown #
convexity-sys-attrib $-1 -1 $-1 $596 $497 #
convexity-sys-attrib $-1 -1 $-1 $600 $507 #
edge $675 -1 $-1 $676 -6.2831853071795862 $676 0 $605 $677 reversed @7 unknown #
vertex $-1 -1 $-1 $606 $678 #
ellipse-curve $-1 -1 $-1 150.00000000000006 100.00000000000001 -1.999999999999998 0 0 -1 2.9099999999999997 0 0 1 I I #
coedge $-1 -1 $-1 $608 $629 $610 $659 forward $607 $-1 #
coedge $-1 -1 $-1 $611 $610 $628 $664 forward $613 $-1 #
edge $-1 -1 $-1 $555 -5 $535 0 $610 $662 forward @7 unknown #
coedge $-1 -1 $-1 $612 $623 $616 $619 reversed $624 $-1 #
vertex $-1 -1 $-1 $622 $679 #
straight-curve $-1 -1 $-1 0 -5 15.925000000000002 1 0 0 I I #
point $-1 -1 $-1 -5 -5 -15.925000000000002 #
edge $-1 -1 $-1 $555 -15.925000000000002 $626 15.925000000000002 $628 $680 forward @7 unknown #
plane-surface $-1 -1 $-1 0 -5 0 0 1 0 0 0 1 forward_v I I I I #
straight-curve $-1 -1 $-1 5 -5 0 0 0 -1 I I #
convexity-sys-attrib $-1 -1 $-1 $-1 $639 #
straight-curve $-1 -1 $-1 0.72168999999992423 2.4999999999999858 12.924999999999997 1 0 0 I I #
point $-1 -1 $-1 1.4433799999999337 2.4999999999999858 12.924999999999995 #
convexity-sys-attrib $-1 -1 $-1 $-1 $646 #
straight-curve $-1 -1 $-1 2.5259083773642024 0.62499848035450078 12.924999999999997 0.49999852611593121 -0.86602625473013028 0 I I #
attrib_edge_convexity-kcp-attrib $-1 -1 $681 $-1 $651 1 #
vertex $-1 -1 $-1 $651 $682 #
ellipse-curve $-1 -1 $-1 150.00000000000006 100.00000000000001 24.000000000000007 0 0 -1 4.9999999999999991 0 0 1 I I #
attrib_edge_convexity-kcp-attrib $-1 -1 $683 $-1 $654 2 #
vertex $-1 -1 $-1 $654 $684 #
ellipse-curve $-1 -1 $-1 150.00000000000006 100.00000000000001 24.000000000000004 0 0 1 2.9099999999999997 0 0 1 I I #
point $-1 -1 $-1 152.91000000000005 100.00000000000001 -1.999999999999998 #
point $-1 -1 $-1 5 -5 15.925000000000002 #
straight-curve $-1 -1 $-1 -5 -5 0 0 0 -1 I I #
convexity-sys-attrib $-1 -1 $-1 $672 $651 #
point $-1 -1 $-1 155.00000000000006 100.00000000000001 24.000000000000007 #
convexity-sys-attrib $-1 -1 $-1 $675 $654 #
point $-1 -1 $-1 152.91000000000005 100.00000000000001 24.000000000000004 #
End-of-ACIS-data 