106 0 1 0           
body $-1 $1 $-1 $2 #
lump $-1 $-1 $3 $0 #
transform $-1 1 0 0 0 1 0 0 0 1 -50.000000000000007 0 0 0.99999999999999989 0 0 0 #
shell $-1 $-1 $-1 $4 $1 #
face $-1 $5 $6 $3 $-1 $7 reversed single #
face $-1 $8 $9 $3 $-1 $10 reversed single #
loop $-1 $11 $12 $4 #
cone-surface $-1 184.00000001096092 76.00000001096079 181.00000000000009 0 0 -1 -2.180000000000001 0 0 1 I I 0 1 0 I I I I #
face $-1 $13 $14 $3 $-1 $15 reversed single #
loop $-1 $-1 $16 $5 #
plane-surface $-1 184.00000001096092 76.00000001096079 177.00000000000009 0 0 -1 -1.0000000000000002 0 0 0 I I I I #
loop $-1 $-1 $17 $4 #
coedge $-1 $12 $12 $18 $19 1 $6 $-1 #
face $-1 $20 $21 $3 $-1 $22 reversed single #
loop $-1 $23 $24 $8 #
cone-surface $-1 216.00000001096097 44.000000010960839 181.00000000000009 0 0 -1 -2.180000000000001 0 0 1 I I 0 1 0 I I I I #
coedge $-1 $16 $16 $17 $25 1 $9 $-1 #
coedge $-1 $17 $17 $16 $25 0 $11 $-1 #
coedge $-1 $18 $18 $12 $19 0 $26 $-1 #
edge $-1 $27 $27 $18 $28 0 #
face $-1 $29 $30 $3 $-1 $31 forward single #
loop $-1 $-1 $32 $13 #
plane-surface $-1 216.00000001096097 44.000000010960839 177.00000000000009 0 0 -1 -1.0000000000000002 0 0 0 I I I I #
loop $-1 $-1 $33 $8 #
coedge $-1 $24 $24 $34 $35 1 $14 $-1 #
edge $-1 $36 $36 $16 $37 0 #
loop $-1 $38 $18 $39 #
vertex $-1 $19 $40 #
ellipse-curve $-1 184.00000001096092 76.00000001096079 185.00000000000009 0 0 -1 -2.180000000000001 0 0 1 I I #
face $-1 $41 $42 $3 $-1 $43 reversed single #
loop $-1 $-1 $44 $20 #
cone-surface $-1 183.00000000000003 35.000000000000014 192.00001000000009 0 0 -1 -5.6568542494923797 -5.6568542494923797 0 1 I I 0 -1 0 I I I I #
coedge $-1 $32 $32 $33 $45 1 $21 $-1 #
coedge $-1 $33 $33 $32 $45 0 $23 $-1 #
coedge $-1 $34 $34 $24 $35 0 $38 $-1 #
edge $-1 $46 $46 $34 $47 0 #
vertex $-1 $25 $48 #
ellipse-curve $-1 184.00000001096092 76.00000001096079 177.00000000000009 0 0 -1 -2.180000000000001 0 0 1 I I #
loop $-1 $49 $34 $39 #
face $-1 $50 $26 $3 $-1 $51 reversed single #
point $-1 186.18000001096092 76.000000010960804 185.00000000000009 #
face $-1 $39 $52 $3 $-1 $53 forward single #
loop $-1 $-1 $54 $29 #
plane-surface $-1 175.00000000000003 93.000000000000014 192.00001000000009 -1 0 0 0 0 1 0 I I I I #
coedge $-1 $55 $56 $54 $57 0 $30 $-1 #
edge $-1 $58 $58 $32 $59 0 #
vertex $-1 $35 $60 #
ellipse-curve $-1 216.00000001096097 44.000000010960839 185.00000000000009 0 0 -1 -2.180000000000001 0 0 1 I I #
point $-1 181.82000001096091 76.00000001096079 177.00000000000009 #
loop $-1 $61 $62 $39 #
face $-1 $63 $64 $3 $-1 $65 reversed single #
plane-surface $-1 225.00000000000003 27.000000000000011 185.00000000000009 0 0 -1 -1 0 0 0 I I I I #
loop $-1 $-1 $66 $41 #
cone-surface $-1 217.00000000000003 35.000000000000014 192.00001000000009 0 0 -1 5.6568542494923797 -5.6568542494923797 0 1 I I 0 -1 0 I I I I #
coedge $-1 $67 $68 $44 $57 1 $42 $-1 #
coedge $-1 $69 $44 $70 $71 1 $30 $-1 #
coedge $-1 $44 $69 $62 $72 1 $30 $-1 #
edge $-1 $73 $74 $54 $75 0 #
vertex $-1 $45 $76 #
ellipse-curve $-1 216.00000001096097 44.000000010960839 177.00000000000009 0 0 -1 -2.180000000000001 0 0 1 I I #
point $-1 218.18000001096098 44.000000010960854 185.00000000000009 #
loop $-1 $-1 $77 $39 #
coedge $-1 $78 $79 $56 $72 0 $49 $-1 #
face $-1 $80 $81 $3 $-1 $82 forward single #
loop $-1 $-1 $83 $50 #
plane-surface $-1 225.00000000000003 27.000000000000011 192.00001000000009 1 0 0 0 0 -1 0 I I I I #
coedge $-1 $84 $85 $86 $87 0 $52 $-1 #
coedge $-1 $88 $54 $79 $89 1 $42 $-1 #
coedge $-1 $54 $88 $90 $91 1 $42 $-1 #
coedge $-1 $56 $55 $92 $93 0 $30 $-1 #
coedge $-1 $90 $94 $55 $71 0 $95 $-1 #
edge $-1 $96 $74 $70 $97 0 #
edge $-1 $73 $98 $62 $99 0 #
vertex $-1 $72 $100 #
vertex $-1 $91 $101 #
straight-curve $-1 175.00000000000003 35.000000000000014 192.00001000000009 0 0 1 F -31.800010000000015 F 22.799990000000292 #
point $-1 213.82000001096097 44.000000010960839 177.00000000000009 #
coedge $-1 $77 $77 $102 $103 1 $61 $-1 #
coedge $-1 $104 $62 $105 $106 0 $49 $-1 #
coedge $-1 $62 $107 $67 $89 0 $49 $-1 #
face $-1 $108 $109 $3 $-1 $110 forward single #
loop $-1 $-1 $111 $63 #
cone-surface $-1 217.00000000000003 85.000000000000014 192.00001000000009 0 0 -1 5.6568542494923797 5.6568542494923797 0 1 I I 0 -1 0 I I I I #
coedge $-1 $112 $113 $114 $115 1 $64 $-1 #
coedge $-1 $114 $66 $116 $117 1 $52 $-1 #
coedge $-1 $66 $114 $104 $118 1 $52 $-1 #
coedge $-1 $105 $119 $66 $87 1 $120 $-1 #
edge $-1 $121 $122 $86 $123 0 #
coedge $-1 $68 $67 $124 $125 1 $42 $-1 #
edge $-1 $126 $73 $67 $127 0 #
coedge $-1 $128 $70 $68 $91 0 $95 $-1 #
edge $-1 $74 $129 $90 $130 0 #
coedge $-1 $119 $105 $69 $93 1 $120 $-1 #
edge $-1 $96 $98 $92 $131 0 #
coedge $-1 $70 $116 $119 $132 0 $95 $-1 #
loop $-1 $133 $134 $135 #
vertex $-1 $71 $136 #
ellipse-curve $-1 183.00000000000003 35.000000000000014 190.00000000000037 0 0 -1 -5.6568542494923797 -5.6568542494923797 0 1 I I #
vertex $-1 $106 $137 #
ellipse-curve $-1 183.00000000000003 35.000000000000014 185.00000000000009 0 0 1 -5.6568542494923797 -5.6568542494923797 0 1 I I #
point $-1 175.00000000000003 35.000000000000014 185.00000000000009 #
point $-1 175.00000000000003 35.000000000000014 190.00000000000037 #
coedge $-1 $102 $102 $77 $103 0 $138 $-1 #
edge $-1 $139 $139 $102 $140 0 #
coedge $-1 $141 $78 $85 $118 0 $49 $-1 #
coedge $-1 $92 $86 $78 $106 1 $120 $-1 #
edge $-1 $98 $121 $105 $142 0 #
coedge $-1 $79 $143 $144 $145 0 $49 $-1 #
face $-1 $146 $147 $3 $-1 $148 reversed single #
loop $-1 $-1 $149 $80 #
cone-surface $-1 183.00000000000003 85.000000000000014 192.00001000000009 0 0 -1 -5.6568542494923797 5.6568542494923797 0 1 I I 0 -1 0 I I I I #
coedge $-1 $150 $151 $152 $153 0 $81 $-1 #
coedge $-1 $152 $83 $134 $154 1 $64 $-1 #
coedge $-1 $83 $152 $141 $155 1 $64 $-1 #
coedge $-1 $85 $84 $83 $115 0 $52 $-1 #
edge $-1 $156 $157 $83 $158 0 #
coedge $-1 $94 $134 $84 $117 0 $95 $-1 #
edge $-1 $156 $122 $116 $159 0 #
edge $-1 $121 $157 $104 $160 0 #
coedge $-1 $86 $92 $94 $132 1 $120 $-1 #
loop $-1 $-1 $92 $146 #
vertex $-1 $118 $161 #
vertex $-1 $132 $162 #
straight-curve $-1 217.00000000000003 27.000000000000011 192.00001000000009 0 0 1 F -31.800010000000015 F 22.799990000000292 #
coedge $-1 $144 $163 $88 $125 0 $109 $-1 #
edge $-1 $129 $126 $88 $164 0 #
vertex $-1 $89 $165 #
straight-curve $-1 175.00000000000003 93.000000000000014 185.00000000000009 0 -1 0 I I #
coedge $-1 $166 $90 $163 $167 0 $95 $-1 #
vertex $-1 $167 $168 #
straight-curve $-1 175.00000000000003 76.500000000000057 190.00000000000037 0 1 0 I I #
straight-curve $-1 183.00000000000003 27.000000000000011 192.00001000000009 0 0 -1 F -22.799990000000292 F 31.800010000000015 #
edge $-1 $122 $96 $94 $169 0 #
loop $-1 $-1 $170 $135 #
coedge $-1 $116 $171 $112 $154 0 $95 $-1 #
face $-1 $172 $95 $3 $-1 $173 forward single #
point $-1 183.00000000000003 27.000000000000014 190.00000000000037 #
point $-1 183.00000000000003 27.000000000000011 185.00000000000009 #
loop $-1 $174 $102 $175 #
vertex $-1 $103 $176 #
ellipse-curve $-1 200.00000000000014 60.000000000000078 185.00000000000009 0 0 1 15.000000000000002 0 0 1 I I #
coedge $-1 $177 $104 $113 $155 0 $49 $-1 #
straight-curve $-1 175.00000000000003 27.000000000000011 185.00000000000009 1 0 0 I I #
coedge $-1 $107 $177 $178 $179 0 $49 $-1 #
coedge $-1 $149 $124 $107 $145 1 $109 $-1 #
edge $-1 $180 $126 $107 $181 0 #
face $-1 $182 $120 $3 $-1 $183 reversed single #
loop $-1 $-1 $184 $108 #
plane-surface $-1 225.00000000000003 93.000000000000014 192.00001000000009 0 1 0 0 0 1 0 I I I I #
coedge $-1 $163 $144 $185 $186 0 $109 $-1 #
coedge $-1 $187 $111 $171 $188 1 $81 $-1 #
coedge $-1 $111 $187 $177 $189 1 $81 $-1 #
coedge $-1 $113 $112 $111 $153 1 $64 $-1 #
edge $-1 $190 $191 $152 $192 0 #
edge $-1 $191 $156 $134 $193 0 #
edge $-1 $157 $190 $113 $194 0 #
vertex $-1 $117 $195 #
vertex $-1 $155 $196 #
straight-curve $-1 225.00000000000003 35.000000000000014 192.00001000000009 0 0 -1 F -22.799990000000292 F 31.800010000000015 #
ellipse-curve $-1 217.00000000000003 35.000000000000014 190.00000000000037 0 0 -1 5.6568542494923797 -5.6568542494923797 0 1 I I #
ellipse-curve $-1 217.00000000000003 35.000000000000014 185.00000000000009 0 0 1 5.6568542494923797 -5.6568542494923797 0 1 I I #
point $-1 217.00000000000003 27.000000000000011 185.00000000000009 #
point $-1 217.00000000000003 27.000000000000014 190.00000000000037 #
coedge $-1 $124 $149 $128 $167 1 $109 $-1 #
straight-curve $-1 175.00000000000003 85.000000000000014 192.00001000000009 0 0 -1 F -22.799990000000292 F 31.800010000000015 #
point $-1 175.00000000000003 85.000000000000014 185.00000000000009 #
coedge $-1 $171 $128 $197 $198 0 $95 $-1 #
edge $-1 $129 $199 $128 $200 0 #
point $-1 175.00000000000003 85.000000000000014 190.00000000000037 #
straight-curve $-1 187.50000000000011 27.000000000000014 190.00000000000037 -1 0 0 I I #
coedge $-1 $201 $202 $203 $204 1 $133 $-1 #
coedge $-1 $134 $166 $150 $188 0 $95 $-1 #
face $-1 $205 $206 $3 $-1 $207 forward single #
plane-surface $-1 200.0000000000002 60.000000000000114 190.00000000000037 0 0 1 1 0 0 0 I I I I #
loop $-1 $-1 $208 $175 #
face $-1 $135 $138 $3 $-1 $209 reversed single #
point $-1 185.00000000000014 60.000000000000185 185.00000000000009 #
coedge $-1 $143 $141 $151 $189 0 $49 $-1 #
coedge $-1 $184 $185 $143 $179 1 $147 $-1 #
edge $-1 $210 $180 $178 $211 0 #
vertex $-1 $145 $212 #
ellipse-curve $-1 183.00000000000003 85.000000000000014 185.00000000000009 0 0 1 -5.6568542494923797 5.6568542494923797 0 1 I I #
face $-1 $213 $214 $3 $-1 $215 forward single #
plane-surface $-1 175.00000000000003 27.000000000000011 192.00001000000009 0 -1 0 0 0 -1 0 I I I I #
coedge $-1 $197 $178 $187 $216 1 $147 $-1 #
coedge $-1 $178 $197 $149 $186 1 $147 $-1 #
edge $-1 $180 $199 $185 $217 0 #
coedge $-1 $151 $150 $184 $216 0 $81 $-1 #
edge $-1 $218 $191 $171 $219 0 #
edge $-1 $190 $210 $177 $220 0 #
vertex $-1 $189 $221 #
vertex $-1 $154 $222 #
straight-curve $-1 225.00000000000003 85.000000000000014 192.00001000000009 0 0 1 F -31.800010000000015 F 22.799990000000292 #
straight-curve $-1 225.00000000000003 43.500000000000064 190.00000000000037 0 -1 0 I I #
straight-curve $-1 225.00000000000003 27.000000000000011 185.00000000000009 0 1 0 I I #
point $-1 225.00000000000003 35.000000000000014 190.00000000000037 #
point $-1 225.00000000000003 35.000000000000014 185.00000000000009 #
coedge $-1 $185 $184 $166 $198 1 $147 $-1 #
edge $-1 $199 $218 $166 $223 0 #
vertex $-1 $198 $224 #
ellipse-curve $-1 183.00000000000003 85.000000000000014 190.00000000000037 0 0 -1 -5.6568542494923797 5.6568542494923797 0 1 I I #
coedge $-1 $225 $170 $226 $227 1 $133 $-1 #
coedge $-1 $170 $225 $228 $229 1 $133 $-1 #
coedge $-1 $230 $231 $170 $204 0 $232 $-1 #
edge $-1 $233 $234 $203 $235 0 #
face $-1 $236 $237 $3 $-1 $238 forward single #
loop $-1 $239 $240 $172 #
plane-surface $-1 200.00000000000023 1.3500311979441904e-013 100.00000000000028 0 -1 0 0 0 -1 0 I I I I #
coedge $-1 $208 $208 $241 $242 1 $174 $-1 #
cone-surface $-1 200.00000000000014 60.000000000000078 175.00000000000011 0 0 1 15.000000000000002 0 0 1 I I 0 1 0 I I I I #
vertex $-1 $179 $243 #
straight-curve $-1 225.00000000000003 93.000000000000014 185.00000000000009 -1 0 0 I I #
point $-1 183.00000000000003 93.000000000000014 185.00000000000009 #
face $-1 $244 $245 $3 $-1 $246 reversed single #
loop $-1 $-1 $247 $182 #
cone-surface $-1 188.00000000000009 40 8 0 0 1 -5.6568542494923797 -5.6568542494923797 0 1 I I 0 -1 0 I I I I #
edge $-1 $218 $210 $184 $248 0 #
straight-curve $-1 183.00000000000003 93.000000000000014 192.00001000000009 0 0 1 F -31.800010000000015 F 22.799990000000292 #
vertex $-1 $188 $249 #
ellipse-curve $-1 217.00000000000003 85.000000000000014 190.00000000000037 0 0 -1 5.6568542494923797 5.6568542494923797 0 1 I I #
ellipse-curve $-1 217.00000000000003 85.000000000000014 185.00000000000009 0 0 1 5.6568542494923797 5.6568542494923797 0 1 I I #
point $-1 225.00000000000003 85.000000000000014 185.00000000000009 #
point $-1 225.00000000000003 85.000000000000014 190.00000000000037 #
straight-curve $-1 212.50000000000011 93 190.00000000000037 1 0 0 I I #
point $-1 183.00000000000003 93 190.00000000000037 #
coedge $-1 $202 $201 $250 $251 1 $133 $-1 #
coedge $-1 $252 $253 $201 $227 0 $237 $-1 #
edge $-1 $254 $233 $226 $255 0 #
coedge $-1 $256 $257 $202 $229 0 $258 $-1 #
edge $-1 $234 $259 $228 $260 0 #
coedge $-1 $261 $203 $257 $262 0 $232 $-1 #
coedge $-1 $203 $261 $252 $263 0 $232 $-1 #
loop $-1 $-1 $203 $264 #
vertex $-1 $204 $265 #
vertex $-1 $262 $266 #
straight-curve $-1 200.00000000000023 120.00000000000014 190.00000000000037 1 0 0 I I #
face $-1 $264 $267 $3 $-1 $268 reversed single #
loop $-1 $-1 $226 $205 #
cone-surface $-1 200.00000000000023 60.000000000000142 100.00000000000028 0 1 0 0 0 100.00000000000001 1 I I 0 1 0 I I I I #
loop $-1 $-1 $250 $172 #
coedge $-1 $269 $270 $271 $272 0 $206 $-1 #
coedge $-1 $241 $241 $208 $242 0 $273 $-1 #
edge $-1 $274 $274 $241 $275 0 #
point $-1 217.00000000000003 93.000000000000014 185.00000000000009 #
face $-1 $276 $277 $3 $-1 $278 forward single #
loop $-1 $-1 $279 $213 #
plane-surface $-1 220.00000000000009 32 8 0 -1 0 0 0 -1 0 I I I I #
coedge $-1 $280 $281 $279 $282 0 $214 $-1 #
straight-curve $-1 217.00000000000003 93.000000000000014 192.00001000000009 0 0 -1 F -22.799990000000292 F 31.800010000000015 #
point $-1 217.00000000000003 93 190.00000000000037 #
coedge $-1 $283 $284 $225 $251 0 $239 $-1 #
edge $-1 $259 $254 $250 $285 0 #
coedge $-1 $286 $226 $231 $263 1 $237 $-1 #
coedge $-1 $226 $286 $283 $287 1 $237 $-1 #
vertex $-1 $287 $288 #
straight-curve $-1 156.41101056459362 60.000000000000142 190.00000000000037 0 1 0 I I #
coedge $-1 $289 $228 $284 $290 1 $258 $-1 #
coedge $-1 $228 $289 $230 $262 1 $258 $-1 #
loop $-1 $-1 $228 $291 #
vertex $-1 $229 $292 #
straight-curve $-1 243.58898943540683 60.000000000000142 190.00000000000037 0 -1 0 I I #
coedge $-1 $231 $230 $293 $294 0 $232 $-1 #
edge $-1 $234 $295 $230 $296 0 #
edge $-1 $297 $233 $231 $296 0 #
face $-1 $291 $298 $3 $-1 $299 forward single #
point $-1 156.41101056459362 120.00000000000014 190.00000000000037 #
point $-1 243.58898943540683 120.00000000000014 190.00000000000037 #
loop $-1 $300 $301 $236 #
plane-surface $-1 200.00000000000017 60.000000000000128 9.9999999999999858 0 0 1 1 0 0 0 I I I I #
coedge $-1 $302 $240 $303 $304 0 $206 $-1 #
coedge $-1 $240 $302 $305 $306 0 $206 $-1 #
coedge $-1 $307 $308 $240 $272 1 $309 $-1 #
edge $-1 $310 $311 $240 $312 0 #
loop $-1 $-1 $241 $313 #
vertex $-1 $242 $314 #
intcurve-curve $-1 0 { surfintcur nubs 3 periodic 33 
	0 3 2.8334644191723406 2 5.6669288383446812 2 8.5003932575170218 2 11.333857676689362 2 
	14.167163323635954 2 17.000468970582546 2 19.833774617529137 2 22.667080264475732 2 25.500385911492117 2 
	28.333691558508505 2 31.166997205524893 2 34.000302852541282 2 36.833767271721854 2 39.667231690902433 2 
	42.500696110083013 2 45.334160529263585 2 48.167624948455895 2 51.001089367648213 2 53.83455378684053 2 
	56.668018206032841 2 59.501323853037519 2 62.33462950004219 2 65.167935147046862 2 68.00124079405154 2 
	70.834546441009877 2 73.667852087968214 2 76.501157734926551 2 79.334463381884873 2 82.167927801045437 2 
	85.001392220206014 2 87.834856639366592 2 90.668321058527169 3 
	215.00000000000014 60.000000000000078 173.48469227415245 
	215.00000000000014 60.944488139724193 173.48469227415245 
	214.90935630188142 61.920394271466208 173.50339319651289 
	214.52848680508038 63.860037650969993 173.57962209650356 
	214.23835177397777 64.823795011936951 173.63709176483496 
	213.47217143447227 66.670851720954914 173.7811123277836 
	212.99551688457353 67.555670883349535 173.86763766029441 
	211.89500629827614 69.191324539234287 174.05282018751973 
	211.27107412531575 69.942129310285026 174.15128738498751 
	209.94216654370317 71.271036891889381 174.34113132500289 
	209.19137905019909 71.894964939571608 174.43920903545165 
	207.55571444952369 72.995492254131378 174.62297548194522 
	206.670867086242 73.472165875781812 174.70848361816252 
	204.82375542287673 74.238367380957897 174.85044673001102 
	203.85997212145105 74.528504393830133 174.90689269472833 
	201.92032179690233 74.909365811357262 174.98169324646523 
	200.94443521564901 75.000000000000085 174.9999999884086 
	199.05556478432803 75.000000000000085 174.99999998811293 
	198.07967820305728 74.90936581135287 174.9816932458632 
	196.14002787848472 74.528504393813861 174.90689269351543 
	195.17624457705256 74.238367380934221 174.85044672849361 
	193.32913291368143 73.472165875744153 174.70848361605943 
	192.44428555040051 72.995492254087253 174.62297547956049 
	190.80862094972926 71.894964939516143 174.43920903254394 
	190.05783345622854 71.271036891829013 174.34113132185391 
	188.72892587463619 69.942129310228452 174.15128738141141 
	188.10499370168921 69.191324539187647 174.05282018374285 
	187.00448311541149 67.555670883321568 173.86763765616121 
	186.52782856551906 66.67085172093563 173.78111232349485 
	185.76164822602109 64.823795011931153 173.63709176029488 
	185.47151319491974 63.860037650968856 173.57962209186752 
	185.09064369811941 61.920394271469348 173.50339319175055 
	185.00000000000014 60.944488139726936 173.48469226935975 
	185.00000000000014 59.055511860269306 173.48469226935978 
	185.09064369812015 58.079605728522992 173.50339319175069 
	185.47151319492352 56.139962349016166 173.57962209186826 
	185.76164822602709 55.176204988050458 173.6370917602961 
	186.52782856553088 53.329148279040062 173.78111232349704 
	187.00448311542689 52.444329116651609 173.86763765616394 
	188.10499370171271 50.808675460781657 174.05282018374663 
	188.72892587466427 50.057870689739516 174.15128738141573 
	190.05783345626074 48.72896310814307 174.3411313218582 
	190.80862094976013 48.10503506046048 174.43920903254775 
	192.44428555042754 47.004507745897477 174.62297547956322 
	193.32913291370593 46.527834124244158 174.70848361606159 
	195.17624457707117 45.76163261905991 174.85044672849477 
	196.14002787849989 45.471495606182515 174.90689269351617 
	198.07967820306519 45.090634188646519 174.98169324586334 
	199.05556478433201 45.000000000000071 174.99999998811296 
	200.94443521565302 45.000000000000085 174.9999999884086 
	201.92032179691026 45.090634188643662 174.98169324646508 
	203.85997212146631 45.471495606173811 174.90689269472762 
	204.82375542289537 45.761632619048314 174.85044673000982 
	206.67086708626655 46.527834124230225 174.70848361816033 
	207.55571444955078 47.004507745884226 174.62297548194249 
	209.19137905023001 48.105035060452138 174.43920903544785 
	209.94216654373542 48.72896310813892 174.34113132499857 
	211.27107412534389 50.057870689747389 174.15128738498319 
	211.89500629829971 50.808675460796778 174.05282018751592 
	212.99551688458894 52.444329116677658 173.86763766029168 
	213.4721714344841 53.329148279069749 173.78111232778144 
	214.23835177398379 55.176204988081793 173.6370917648338 
	214.52848680508416 56.139962349045334 173.57962209650276 
	214.90935630188218 58.079605728541779 173.50339319651272 
	215.00000000000014 59.055511860279886 173.48469227415245 
	215.00000000000014 60.000000000000078 173.48469227415245 
	0.001 
	cone 200.00000000000014 60.000000000000078 175.00000000000011 0 0 1 15.000000000000002 0 0 1 I I 0 1 0 I I I I 
	cone 200.00000001173976 60.000000000000142 99.999999988260754 0 1 0 -75.000000000000014 0 0 1 I I 0 -1 0 I I I I 
	nullbs 
	nullbs 
	} I I #
face $-1 $315 $316 $3 $-1 $317 reversed single #
loop $-1 $-1 $318 $244 #
cone-surface $-1 212.00000000000009 40 8 0 0 1 5.6568542494923797 -5.6568542494923797 0 1 I I 0 -1 0 I I I I #
coedge $-1 $319 $320 $247 $282 1 $245 $-1 #
coedge $-1 $321 $247 $322 $323 1 $214 $-1 #
coedge $-1 $247 $321 $324 $325 1 $214 $-1 #
edge $-1 $326 $327 $279 $328 0 #
coedge $-1 $329 $250 $253 $287 0 $239 $-1 #
coedge $-1 $250 $329 $256 $290 0 $239 $-1 #
straight-curve $-1 200.00000000000023 1.3500311979441904e-013 190.00000000000037 -1 0 0 I I #
coedge $-1 $253 $252 $330 $331 0 $237 $-1 #
edge $-1 $254 $332 $283 $333 0 #
point $-1 156.41101056459362 1.3500311979441904e-013 190.00000000000037 #
coedge $-1 $257 $256 $334 $335 0 $258 $-1 #
edge $-1 $336 $259 $284 $333 0 #
face $-1 $313 $258 $3 $-1 $238 forward single #
point $-1 243.58898943540683 1.3500311979441904e-013 190.00000000000037 #
coedge $-1 $334 $330 $261 $294 1 $337 $-1 #
edge $-1 $295 $297 $261 $338 0 #
vertex $-1 $294 $339 #
ellipse-curve $-1 200.00000000000023 120.00000000000014 100.00000000000028 0 1 0 0 0 100.00000000000001 1 I I #
vertex $-1 $263 $340 #
loop $-1 $232 $341 $264 #
plane-surface $-1 200.00000000000023 120.00000000000014 100.00000000000028 0 1 0 0 0 1 0 I I I I #
loop $-1 $342 $343 $236 #
coedge $-1 $322 $344 $345 $346 0 $267 $-1 #
coedge $-1 $270 $269 $347 $348 0 $206 $-1 #
coedge $-1 $349 $350 $269 $304 1 $351 $-1 #
edge $-1 $311 $352 $269 $353 0 #
coedge $-1 $354 $355 $270 $306 1 $356 $-1 #
edge $-1 $357 $310 $270 $358 0 #
coedge $-1 $359 $271 $355 $360 0 $309 $-1 #
coedge $-1 $271 $359 $349 $361 1 $309 $-1 #
loop $-1 $-1 $359 $362 #
vertex $-1 $306 $363 #
vertex $-1 $304 $364 #
straight-curve $-1 190.00000000000011 1.3500311979441904e-013 63.500000000000171 0 0 1 I I #
face $-1 $-1 $351 $3 $-1 $365 reversed single #
point $-1 215.00000000000014 60.000000000000078 173.48469227415245 #
face $-1 $366 $367 $3 $-1 $368 forward single #
loop $-1 $-1 $369 $276 #
plane-surface $-1 220.00000000000009 88 8 1 0 0 0 0 -1 0 I I I I #
coedge $-1 $370 $371 $369 $372 0 $277 $-1 #
coedge $-1 $373 $279 $374 $375 1 $245 $-1 #
coedge $-1 $279 $373 $376 $377 1 $245 $-1 #
coedge $-1 $281 $280 $378 $379 0 $214 $-1 #
coedge $-1 $376 $301 $280 $323 0 $267 $-1 #
edge $-1 $380 $327 $322 $381 0 #
coedge $-1 $382 $374 $281 $325 0 $383 $-1 #
edge $-1 $326 $384 $324 $385 0 #
vertex $-1 $325 $386 #
vertex $-1 $377 $387 #
straight-curve $-1 188.00000000000009 32 8 0 0 -1 F -31.799999999999997 F 22.800000000000015 #
coedge $-1 $284 $283 $388 $389 0 $239 $-1 #
coedge $-1 $293 $388 $286 $331 1 $337 $-1 #
edge $-1 $297 $332 $286 $390 0 #
vertex $-1 $331 $391 #
ellipse-curve $-1 200.00000000000023 1.3500311979441904e-013 100.00000000000028 0 -1 0 0 0 100.00000000000001 1 I I #
coedge $-1 $388 $293 $289 $335 1 $337 $-1 #
edge $-1 $336 $295 $289 $392 0 #
vertex $-1 $290 $393 #
loop $-1 $-1 $330 $236 #
straight-curve $-1 200.0000000000002 120.00000000000014 9.9999999999999858 -1 0 0 I I #
point $-1 243.5889894354064 120.00000000000014 9.9999999999999858 #
point $-1 156.41101056459405 120.00000000000014 9.9999999999999858 #
coedge $-1 $394 $395 $396 $397 0 $298 $-1 #
loop $-1 $337 $398 $236 #
coedge $-1 $343 $343 $399 $400 0 $300 $-1 #
coedge $-1 $301 $401 $402 $403 0 $267 $-1 #
coedge $-1 $404 $378 $301 $346 1 $405 $-1 #
edge $-1 $406 $380 $301 $407 0 #
coedge $-1 $408 $409 $302 $348 1 $410 $-1 #
edge $-1 $352 $357 $302 $411 0 #
coedge $-1 $412 $303 $308 $361 0 $351 $-1 #
coedge $-1 $303 $413 $408 $414 0 $351 $-1 #
loop $-1 $273 $349 $313 #
vertex $-1 $348 $415 #
ellipse-curve $-1 200.00000001173976 1.3500311979441904e-013 99.999999988260754 0 1 0 -75.000000000000014 0 0 1 I I #
coedge $-1 $416 $305 $409 $417 1 $356 $-1 #
coedge $-1 $305 $416 $307 $360 1 $356 $-1 #
loop $-1 $-1 $416 $418 #
vertex $-1 $306 $419 #
straight-curve $-1 200.00000000000017 1.3500311979441904e-013 24.000000000000057 -1 0 0 I I #
coedge $-1 $308 $307 $420 $421 1 $309 $-1 #
edge $-1 $310 $422 $307 $423 0 #
edge $-1 $311 $424 $349 $425 0 #
face $-1 $426 $309 $3 $-1 $427 forward single #
point $-1 190.00000000000011 1.3500311979441904e-013 24.000000000000057 #
point $-1 190.00000000000011 1.3500311979441904e-013 25.669656253247595 #
cone-surface $-1 200.00000001173976 60.000000000000142 99.999999988260754 0 1 0 -75.000000000000014 0 0 1 I I 0 1 0 I I I I #
face $-1 $428 $429 $3 $-1 $430 reversed single #
loop $-1 $-1 $431 $315 #
cone-surface $-1 212.00000000000009 80 8 0 0 1 5.6568542494923797 5.6568542494923797 0 1 I I 0 -1 0 I I I I #
coedge $-1 $432 $433 $318 $372 1 $316 $-1 #
coedge $-1 $434 $318 $435 $436 1 $277 $-1 #
coedge $-1 $318 $434 $437 $438 1 $277 $-1 #
edge $-1 $439 $440 $369 $441 0 #
coedge $-1 $320 $319 $434 $442 1 $245 $-1 #
coedge $-1 $324 $437 $319 $375 0 $383 $-1 #
edge $-1 $443 $326 $319 $444 0 #
coedge $-1 $435 $322 $320 $377 0 $267 $-1 #
edge $-1 $327 $445 $376 $446 0 #
coedge $-1 $345 $447 $321 $379 1 $405 $-1 #
edge $-1 $380 $384 $378 $448 0 #
vertex $-1 $323 $449 #
ellipse-curve $-1 188.00000000000009 40 9.9999999999999858 0 0 1 -5.6568542494923797 -5.6568542494923797 0 1 I I #
coedge $-1 $450 $324 $447 $451 0 $383 $-1 #
loop $-1 $452 $324 $453 #
vertex $-1 $451 $454 #
ellipse-curve $-1 188.00000000000009 40 15 0 0 -1 -5.6568542494923797 -5.6568542494923797 0 1 I I #
point $-1 188.00000000000009 32 15 #
point $-1 188.00000000000009 32 9.9999999999999858 #
coedge $-1 $330 $334 $329 $389 1 $337 $-1 #
edge $-1 $332 $336 $329 $455 0 #
straight-curve $-1 156.41101056459405 60.000000000000142 9.9999999999999858 0 -1 0 I I #
point $-1 156.41101056459405 1.3500311979441904e-013 9.9999999999999858 #
straight-curve $-1 243.5889894354064 60.000000000000142 9.9999999999999858 0 1 0 I I #
point $-1 243.5889894354064 1.3500311979441904e-013 9.9999999999999858 #
coedge $-1 $456 $341 $457 $458 0 $298 $-1 #
coedge $-1 $341 $456 $459 $460 0 $298 $-1 #
coedge $-1 $461 $462 $341 $397 1 $463 $-1 #
edge $-1 $464 $465 $341 $466 0 #
coedge $-1 $398 $398 $467 $468 0 $342 $-1 #
coedge $-1 $399 $399 $343 $400 1 $469 $-1 #
edge $-1 $470 $470 $343 $471 0 #
coedge $-1 $344 $472 $473 $474 0 $267 $-1 #
coedge $-1 $475 $476 $344 $403 1 $477 $-1 #
edge $-1 $478 $406 $344 $479 0 #
coedge $-1 $447 $345 $476 $480 1 $405 $-1 #
loop $-1 $-1 $378 $481 #
vertex $-1 $346 $482 #
straight-curve $-1 180.00000000000006 46.000000000000064 9.9999999999999858 0 -1 0 I I #
coedge $-1 $483 $347 $350 $414 1 $410 $-1 #
coedge $-1 $347 $483 $354 $417 0 $410 $-1 #
loop $-1 $-1 $483 $484 #
straight-curve $-1 210.00000000000011 1.3500311979441904e-013 63.500000000000171 0 0 -1 I I #
coedge $-1 $485 $349 $486 $487 0 $351 $-1 #
coedge $-1 $350 $488 $489 $490 0 $351 $-1 #
edge $-1 $491 $352 $350 $492 0 #
point $-1 210.00000000000011 1.3500311979441904e-013 25.669656250088835 #
coedge $-1 $355 $354 $493 $494 1 $356 $-1 #
edge $-1 $495 $357 $409 $496 0 #
face $-1 $362 $497 $3 $-1 $498 forward single #
point $-1 210.00000000000011 1.3500311979441904e-013 24.000000000000057 #
coedge $-1 $493 $486 $359 $421 0 $499 $-1 #
edge $-1 $424 $422 $420 $500 0 #
vertex $-1 $494 $501 #
straight-curve $-1 190.00000000000011 60.000000000000057 24.000000000000057 0 1 0 I I #
vertex $-1 $487 $502 #
straight-curve $-1 190.00000000000011 60.000000000000142 25.669656253247595 0 1 0 I I #
face $-1 $175 $503 $3 $-1 $504 reversed single #
plane-surface $-1 190.00000000000011 60.000000000000057 27.000000000000057 1 0 0 0 0 -1 0 I I I I #
face $-1 $453 $477 $3 $-1 $505 forward single #
loop $-1 $-1 $506 $366 #
plane-surface $-1 180.00000000000009 88 8 0 1 0 0 0 1 0 I I I I #
coedge $-1 $507 $508 $506 $509 0 $367 $-1 #
coedge $-1 $510 $369 $511 $512 1 $316 $-1 #
coedge $-1 $369 $510 $513 $514 1 $316 $-1 #
coedge $-1 $371 $370 $373 $442 0 $277 $-1 #
coedge $-1 $513 $376 $370 $436 0 $267 $-1 #
edge $-1 $445 $440 $435 $515 0 #
coedge $-1 $374 $511 $371 $438 0 $383 $-1 #
edge $-1 $439 $443 $437 $516 0 #
vertex $-1 $438 $517 #
vertex $-1 $514 $518 #
straight-curve $-1 220.00000000000009 40 8 0 0 -1 F -31.799999999999997 F 22.800000000000015 #
edge $-1 $445 $443 $373 $519 0 #
vertex $-1 $375 $520 #
straight-curve $-1 180.00000000000009 32 15 -1 0 0 I I #
vertex $-1 $436 $521 #
straight-curve $-1 210.00000000000011 32 9.9999999999999858 1 0 0 I I #
coedge $-1 $378 $404 $382 $451 1 $405 $-1 #
straight-curve $-1 180.00000000000009 40 8 0 0 1 F -22.800000000000015 F 31.799999999999997 #
point $-1 180.00000000000006 40 9.9999999999999858 #
coedge $-1 $522 $382 $523 $524 0 $383 $-1 #
edge $-1 $384 $525 $447 $526 0 #
loop $-1 $-1 $527 $453 #
face $-1 $481 $383 $3 $-1 $528 forward single #
point $-1 180.00000000000009 40 15 #
straight-curve $-1 200.0000000000002 1.3500311979441904e-013 9.9999999999999858 1 0 0 I I #
coedge $-1 $395 $394 $529 $530 0 $298 $-1 #
coedge $-1 $531 $485 $394 $458 1 $351 $-1 #
edge $-1 $465 $532 $394 $533 0 #
coedge $-1 $534 $535 $395 $460 1 $536 $-1 #
edge $-1 $537 $464 $395 $538 0 #
coedge $-1 $539 $396 $535 $540 0 $463 $-1 #
coedge $-1 $396 $539 $531 $541 1 $463 $-1 #
loop $-1 $-1 $539 $542 #
vertex $-1 $460 $543 #
vertex $-1 $458 $544 #
straight-curve $-1 210.00000000000011 120.00000000000014 63.500000000000171 0 0 1 I I #
coedge $-1 $467 $467 $398 $468 1 $545 $-1 #
edge $-1 $546 $546 $398 $547 0 #
loop $-1 $-1 $399 $548 #
vertex $-1 $400 $549 #
ellipse-curve $-1 200.00000000000006 100.00000000000009 9.9999999999999858 0 0 1 3.0000000000000004 0 0 1 I I #
coedge $-1 $401 $513 $507 $550 0 $267 $-1 #
coedge $-1 $506 $551 $401 $474 1 $429 $-1 #
edge $-1 $552 $478 $401 $553 0 #
coedge $-1 $523 $402 $551 $554 0 $477 $-1 #
coedge $-1 $402 $523 $404 $480 0 $477 $-1 #
loop $-1 $-1 $476 $428 #
vertex $-1 $403 $555 #
ellipse-curve $-1 188.00000000000009 80 9.9999999999999858 0 0 1 -5.6568542494923797 5.6568542494923797 0 1 I I #
edge $-1 $525 $406 $404 $556 0 #
face $-1 $548 $405 $3 $-1 $557 reversed single #
point $-1 180.00000000000006 80 9.9999999999999858 #
coedge $-1 $409 $408 $558 $559 1 $410 $-1 #
face $-1 $560 $410 $3 $-1 $561 forward single #
coedge $-1 $457 $412 $562 $563 0 $351 $-1 #
coedge $-1 $420 $564 $412 $487 1 $499 $-1 #
edge $-1 $424 $565 $412 $566 0 #
coedge $-1 $413 $531 $567 $568 0 $351 $-1 #
coedge $-1 $567 $558 $413 $490 1 $499 $-1 #
edge $-1 $569 $491 $413 $570 0 #
vertex $-1 $414 $571 #
straight-curve $-1 210.00000000000011 60.000000000000142 25.669656250088835 0 -1 0 I I #
coedge $-1 $558 $420 $416 $494 0 $499 $-1 #
edge $-1 $422 $495 $493 $572 0 #
vertex $-1 $494 $573 #
straight-curve $-1 210.00000000000011 60.000000000000057 24.000000000000057 0 -1 0 I I #
loop $-1 $356 $574 $418 #
plane-surface $-1 200.00000000000011 60.000000000000057 24.000000000000057 0 0 1 1 0 0 0 I I I I #
loop $-1 $-1 $420 $426 #
straight-curve $-1 190.00000000000011 48.819660112501218 27.500000000000114 0 0 -1 I I #
point $-1 190.00000000000011 48.819660112501218 24.000000000000057 #
point $-1 190.00000000038349 48.819660111815409 25.669656253144453 #
loop $-1 $499 $575 $426 #
cone-surface $-1 200.0000000000002 60.000000000000092 27.500000000000099 0 0 1 15.000000000000002 0 0 1 I I 0 1 0 I I I I #
cone-surface $-1 188.00000000000009 80 8 0 0 1 -5.6568542494923797 5.6568542494923797 0 1 I I 0 -1 0 I I I I #
coedge $-1 $576 $473 $431 $509 1 $429 $-1 #
coedge $-1 $577 $431 $472 $550 1 $367 $-1 #
coedge $-1 $431 $577 $578 $579 1 $367 $-1 #
edge $-1 $580 $552 $506 $581 0 #
coedge $-1 $433 $432 $577 $582 1 $316 $-1 #
coedge $-1 $437 $578 $432 $512 0 $383 $-1 #
edge $-1 $583 $439 $432 $584 0 #
coedge $-1 $472 $435 $433 $514 0 $267 $-1 #
edge $-1 $440 $585 $513 $586 0 #
ellipse-curve $-1 212.00000000000009 40 9.9999999999999858 0 0 1 5.6568542494923797 -5.6568542494923797 0 1 I I #
ellipse-curve $-1 212.00000000000009 40 15 0 0 -1 5.6568542494923797 -5.6568542494923797 0 1 I I #
point $-1 220.00000000000009 40 15 #
point $-1 220.00000000000006 40 9.9999999999999858 #
straight-curve $-1 212.00000000000009 32 8 0 0 1 F -22.800000000000015 F 31.799999999999997 #
point $-1 212.00000000000009 32 15 #
point $-1 212.00000000000009 32 9.9999999999999858 #
coedge $-1 $578 $450 $576 $587 0 $383 $-1 #
coedge $-1 $476 $475 $450 $524 1 $477 $-1 #
edge $-1 $525 $588 $450 $589 0 #
vertex $-1 $524 $590 #
straight-curve $-1 180.00000000000009 88 15 0 1 0 I I #
coedge $-1 $527 $527 $575 $591 1 $452 $-1 #
plane-surface $-1 180.00000000000009 32 15 0 0 -1 -1 0 0 0 I I I I #
coedge $-1 $562 $592 $456 $530 1 $593 $-1 #
edge $-1 $532 $537 $456 $594 0 #
coedge $-1 $488 $457 $462 $541 0 $351 $-1 #
vertex $-1 $530 $595 #
ellipse-curve $-1 200.00000001173976 120.00000000000014 99.999999988260754 0 -1 0 -75.000000000000014 0 0 1 I I #
coedge $-1 $596 $459 $592 $597 1 $536 $-1 #
coedge $-1 $459 $596 $461 $540 1 $536 $-1 #
loop $-1 $-1 $596 $598 #
vertex $-1 $460 $599 #
straight-curve $-1 200.00000000000017 120.00000000000014 24.000000000000057 1 0 0 I I #
coedge $-1 $462 $461 $600 $601 1 $463 $-1 #
edge $-1 $464 $602 $461 $496 0 #
edge $-1 $465 $603 $531 $492 0 #
face $-1 $484 $463 $3 $-1 $561 forward single #
point $-1 210.00000000000011 120.00000000000014 24.000000000000057 #
point $-1 210.00000000000011 120.00000000000014 25.669656250088835 #
loop $-1 $-1 $467 $604 #
vertex $-1 $468 $605 #
ellipse-curve $-1 200.00000000000006 20.000000000000014 9.9999999999999858 0 0 1 3.0000000000000004 0 0 1 I I #
face $-1 $604 $606 $3 $-1 $607 reversed single #
point $-1 197.00000000000006 100.0000000000001 9.9999999999999858 #
edge $-1 $585 $552 $472 $608 0 #
coedge $-1 $473 $576 $475 $554 1 $429 $-1 #
vertex $-1 $474 $609 #
straight-curve $-1 190.00000000000011 88 9.9999999999999858 -1 0 0 I I #
edge $-1 $478 $588 $551 $610 0 #
point $-1 188.00000000000009 88 9.9999999999999858 #
straight-curve $-1 180.00000000000009 80 8 0 0 -1 F -31.799999999999997 F 22.800000000000015 #
plane-surface $-1 180.00000000000009 32 8 -1 0 0 0 0 1 0 I I I I #
coedge $-1 $489 $493 $483 $559 0 $499 $-1 #
edge $-1 $495 $491 $558 $611 0 #
face $-1 $598 $593 $3 $-1 $427 forward single #
plane-surface $-1 210.00000000000011 60.000000000000057 27.000000000000057 -1 0 0 0 0 1 0 I I I I #
coedge $-1 $612 $529 $485 $563 1 $593 $-1 #
edge $-1 $565 $532 $485 $425 0 #
coedge $-1 $486 $613 $612 $614 0 $499 $-1 #
vertex $-1 $563 $615 #
intcurve-curve $-1 0 { surfintcur nubs 3 open 11 
	33.168914061084934 3 34.000302852494528 2 36.833767271686789 2 39.667231690879049 2 42.50069611007131 2 
	45.334160529263571 2 48.1676249484442 2 51.001089367624829 2 53.834553786805458 2 56.668018205986087 2 
	57.499406997441227 3 
	190.00000000038349 48.819660111815409 25.669656253144453 
	189.79069605197824 49.006867254434056 25.697814867530639 
	189.58836628959449 49.198430274809375 25.725935392834216 
	188.72892587466418 50.05787068973968 25.848712595105795 
	188.10499370171266 50.808675460781821 25.947179792774875 
	187.00448311542689 52.444329116651751 26.132362320357572 
	186.52782856553088 53.329148279040183 26.218887653024467 
	185.76164822602712 55.17620498805055 26.362908216225435 
	185.47151319492355 56.139962349016244 26.420377884653263 
	185.0906436981202 58.079605728523035 26.496606784770833 
	185.0000000000002 59.055511860269341 26.515307707161725 
	185.0000000000002 60.944488139726971 26.515307707161725 
	185.09064369811946 61.920394271469398 26.496606784770961 
	185.47151319491982 63.860037650968941 26.420377884653988 
	185.76164822602118 64.823795011931253 26.362908216226572 
	186.52782856551914 66.670851720935758 26.218887653026627 
	187.00448311541163 67.555670883321696 26.132362320360286 
	188.10499370168938 69.191324539187804 25.947179792778641 
	188.72892587463639 69.942129310228609 25.848712595110072 
	189.58836628957198 70.8015697251695 25.725935392837357 
	189.79069605196662 70.993132745555741 25.697814867532202 
	190.00000000038349 71.180339888184776 25.669656253144453 
	0.001 
	cone 200.0000000000002 60.000000000000092 27.500000000000099 0 0 1 15.000000000000002 0 0 1 I I 0 1 0 I I I I 
	cone 200.00000001173976 60.000000000000142 99.999999988260754 0 1 0 -75.000000000000014 0 0 1 I I 0 -1 0 I I I I 
	nullbs 
	nullbs 
	} I I #
coedge $-1 $600 $489 $488 $568 1 $499 $-1 #
edge $-1 $603 $569 $488 $616 0 #
vertex $-1 $568 $617 #
intcurve-curve $-1 0 { surfintcur nubs 3 open 6 
	0 3 2.833464419160626 2 5.6669288383212519 2 8.5003932574818784 2 11.333857676642504 2 
	12.165246468033008 3 
	215.0000000000002 60.000000000000092 26.515307702369071 
	215.0000000000002 59.055511860279886 26.515307702369071 
	214.90935630188224 58.079605728541765 26.496606780008776 
	214.52848680508419 56.139962349045284 26.420377880018734 
	214.23835177398382 55.176204988081729 26.362908211687696 
	213.47217143448412 53.329148279069663 26.218887648740051 
	212.99551688458894 52.444329116677558 26.132362316229816 
	211.89500629829965 50.808675460796664 25.947179789005574 
	211.2710741253438 50.057870689747261 25.848712591538316 
	210.41163371040579 49.198430274809255 25.725935389542968 
	210.20930394802201 49.006867254433921 25.697814864304547 
	209.99999999961673 48.81966011181526 25.669656249985678 
	0.001 
	cone 200.0000000000002 60.000000000000092 27.500000000000099 0 0 1 15.000000000000002 0 0 1 I I 0 1 0 I I I I 
	cone 200.00000001173976 60.000000000000142 99.999999988260754 0 1 0 -75.000000000000014 0 0 1 I I 0 -1 0 I I I I 
	nullbs 
	nullbs 
	} I I #
point $-1 209.99999999961673 48.81966011181526 25.669656249985678 #
ellipse-curve $-1 200.0000000000002 60.000000000000092 24.000000000000057 0 0 1 15.000000000000002 0 0 1 I I #
point $-1 210.00000000000011 48.819660112501069 24.000000000000057 #
coedge $-1 $574 $574 $618 $619 0 $497 $-1 #
coedge $-1 $575 $575 $527 $591 0 $503 $-1 #
coedge $-1 $551 $506 $522 $587 1 $429 $-1 #
coedge $-1 $508 $507 $510 $582 0 $367 $-1 #
coedge $-1 $511 $522 $508 $579 0 $383 $-1 #
edge $-1 $580 $583 $578 $620 0 #
vertex $-1 $579 $621 #
straight-curve $-1 212.00000000000009 88 8 0 0 -1 F -31.799999999999997 F 22.800000000000015 #
edge $-1 $585 $583 $510 $622 0 #
vertex $-1 $512 $623 #
straight-curve $-1 220.00000000000009 32 15 0 -1 0 I I #
vertex $-1 $550 $624 #
straight-curve $-1 220.00000000000006 74.000000000000057 9.9999999999999858 0 1 0 I I #
edge $-1 $588 $580 $576 $625 0 #
vertex $-1 $587 $626 #
ellipse-curve $-1 188.00000000000009 80 15 0 0 -1 -5.6568542494923797 5.6568542494923797 0 1 I I #
point $-1 180.00000000000009 80 15 #
edge $-1 $627 $627 $575 $628 0 #
coedge $-1 $529 $612 $534 $597 0 $593 $-1 #
loop $-1 $-1 $612 $560 #
straight-curve $-1 190.00000000000011 120.00000000000014 63.500000000000171 0 0 -1 I I #
point $-1 190.00000000000011 120.00000000000014 25.669656253247595 #
coedge $-1 $535 $534 $613 $629 1 $536 $-1 #
edge $-1 $630 $537 $592 $423 0 #
face $-1 $418 $631 $3 $-1 $498 forward single #
point $-1 190.00000000000011 120.00000000000014 24.000000000000057 #
coedge $-1 $613 $567 $539 $601 0 $499 $-1 #
edge $-1 $603 $602 $600 $632 0 #
vertex $-1 $629 $633 #
vertex $-1 $568 $634 #
face $-1 $542 $635 $3 $-1 $636 reversed single #
point $-1 197.00000000000006 20.000000000000036 9.9999999999999858 #
loop $-1 $469 $637 $548 #
cone-surface $-1 200.00000000000006 100.00000000000009 14.500000000000028 0 0 1 3.0000000000000004 0 0 1 I I 0 1 0 I I I I #
ellipse-curve $-1 212.00000000000009 80 9.9999999999999858 0 0 1 5.6568542494923797 5.6568542494923797 0 1 I I #
point $-1 212.00000000000009 88 9.9999999999999858 #
straight-curve $-1 188.00000000000009 88 8 0 0 1 F -22.800000000000015 F 31.799999999999997 #
straight-curve $-1 210.00000000000011 48.819660112501069 27.500000000000114 0 0 1 I I #
coedge $-1 $592 $562 $564 $614 1 $593 $-1 #
coedge $-1 $564 $600 $596 $629 0 $499 $-1 #
edge $-1 $630 $565 $564 $638 0 #
point $-1 190.00000000038349 71.180339888184776 25.669656253144453 #
intcurve-curve $-1 0 { surfintcur nubs 3 open 6 
	78.503074590493156 3 79.33446338183802 2 82.167927801010308 2 85.001392220182595 2 87.834856639354882 2 
	90.668321058527155 3 
	209.99999999961673 71.180339888184932 25.669656249985678 
	210.20930394801036 70.993132745576673 25.697814864302984 
	210.41163371038323 70.801569725212275 25.725935389539842 
	211.27107412531592 69.942129310284884 25.848712591534024 
	211.89500629827631 69.191324539234159 25.947179789001808 
	212.99551688457365 67.555670883349421 26.132362316227102 
	213.47217143447239 66.670851720954815 26.218887648737891 
	214.23835177397785 64.823795011936866 26.362908211686531 
	214.52848680508046 63.860037650969929 26.420377880017995 
	214.9093563018815 61.920394271466179 26.496606780008634 
	215.0000000000002 60.944488139724186 26.515307702369071 
	215.0000000000002 60.000000000000092 26.515307702369071 
	0.001 
	cone 200.0000000000002 60.000000000000092 27.500000000000099 0 0 1 15.000000000000002 0 0 1 I I 0 1 0 I I I I 
	cone 200.00000001173976 60.000000000000142 99.999999988260754 0 1 0 -75.000000000000014 0 0 1 I I 0 -1 0 I I I I 
	nullbs 
	nullbs 
	} I I #
point $-1 215.0000000000002 60.000000000000092 26.515307702369071 #
coedge $-1 $618 $618 $574 $619 1 $635 $-1 #
edge $-1 $639 $639 $574 $640 0 #
ellipse-curve $-1 212.00000000000009 80 15 0 0 -1 5.6568542494923797 5.6568542494923797 0 1 I I #
point $-1 212.00000000000009 88 15 #
straight-curve $-1 220.00000000000009 80 8 0 0 1 F -22.800000000000015 F 31.799999999999997 #
point $-1 220.00000000000009 80 15 #
point $-1 220.00000000000006 80 9.9999999999999858 #
straight-curve $-1 220.00000000000009 88 15 1 0 0 I I #
point $-1 188.00000000000009 88 15 #
vertex $-1 $591 $641 #
ellipse-curve $-1 200.0000000000002 60.000000000000092 15 0 0 -1 15.000000000000002 0 0 1 I I #
edge $-1 $602 $630 $613 $572 0 #
vertex $-1 $629 $642 #
loop $-1 $536 $643 $598 #
straight-curve $-1 210.00000000000011 71.180339887499116 27.500000000000114 0 0 -1 I I #
point $-1 210.00000000000011 71.180339887499116 24.000000000000057 #
point $-1 209.99999999961673 71.180339888184932 25.669656249985678 #
loop $-1 $545 $618 $604 #
cone-surface $-1 200.00000000000006 20.000000000000014 14.500000000000043 0 0 1 3.0000000000000004 0 0 1 I I 0 1 0 I I I I #
coedge $-1 $637 $637 $643 $644 1 $606 $-1 #
straight-curve $-1 190.00000000000011 71.180339887498974 27.500000000000114 0 0 1 I I #
vertex $-1 $619 $645 #
ellipse-curve $-1 200.00000000000006 20.000000000000014 24.000000000000057 0 0 -1 3.0000000000000004 0 0 1 I I #
point $-1 185.0000000000002 59.999999999999986 15 #
point $-1 190.00000000000011 71.180339887498974 24.000000000000057 #
coedge $-1 $643 $643 $637 $644 0 $631 $-1 #
edge $-1 $646 $646 $643 $647 0 #
point $-1 197.00000000000006 19.999999999999993 24.000000000000057 #
vertex $-1 $644 $648 #
ellipse-curve $-1 200.00000000000006 100.00000000000009 24.000000000000057 0 0 -1 3.0000000000000004 0 0 1 I I #
point $-1 197.00000000000006 100.00000000000006 24.000000000000057 #
End-of-ACIS-data 