**ABCDEFGHIJKLMNOPQRSTUVWXYZabcdefghijklmnopqrstuvwxyz**************************
**PARASOLID !"#$%&'()*+,-./:;<=>?@[\]^_`{|}~0123456789**************************
**PART1;
MC=unknown;
MC_MODEL=unknown;
MC_ID=unknown;
OS=unknown;
OS_RELEASE=unknown;
FRU=Bentley_Systems;
APPL=Microstation_modeler;
SITE=Exton;
USER=unknown;
FORMAT=text;
GUISE=transmit;
KEY=d:\Dgn files\ParaSolid\slicer\ring.x_t;
FILE=d:\Dgn files\ParaSolid\slicer\ring.x_t;
DATE=unknown;
**PART2;
SCH=SCH_901297_9008;
USFLD_SIZE=0;
**PART3;
**END_OF_HEADER*****************************************************************
T50 : TRANSMIT FILE created by modeller version 90129715 SCH_901297_90080 12 1 2
15 0 0 0 0 0 0 1e3 1e-8 0 2 0 1 0 1 3 4 5 6 7 8 9 13 3 3 0 1 0 10 0 0 11 0 51 4
 119 0 12 13 0 0 --.03557927515129145 .2146370442265745 .176517827945585 -1 0 0
 .01143 0 -1 0 30 5 111 0 8 14 0 0 +-.03557927515129145 .215633234366044 .165131
3225463845 -1 0 0 29 6 32 0 9 15 0 -.03557927515129145 .215633234366044 .1651313
225463845 19 7 41 0 1 11 0 16 V16 8 101 0 ?17 0 18 5 0 0 1 18 9 29 0 19 0 20 6 ?
1 17 19 21 22 23 9 17 8 0 24 -18 20 25 0 25 9 26 15 ?1 17 25 27 28 29 20 30 18 0
 22 -18 26 21 0 31 20 32 33 ?1 29 15 28 0 20 33 6 -.03557927515129145 .213640854
087105 .1651313225463845 29 33 24 0 26 34 15 -.03557927515129145 .21364085408710
5 .161105422546389 29 34 20 0 32 35 33 -.03557927515129145 .2106367629473745 .16
1588574967044 18 32 17 0 36 26 37 34 ?1 29 35 16 0 37 38 34 -.03557927515129145
 .2079155692265745 .165681071743781 18 37 13 0 39 32 40 35 ?1 29 38 12 0 40 41 3
5 -.03557927515129145 .2213585192265745 .165681071743781 18 40 9 0 42 37 43 38 ?
1 29 41 8 0 43 44 38 -.03557927515129145 .215633234366044 .161105422546389 18 43
 5 0 45 40 46 41 ?1 29 44 4 0 46 47 41 -.03557927515129145 .2186373255057745 .16
1588574967044 18 46 2 0 48 43 49 44 ?1 29 47 74 0 49 50 44 -.03811927515129145 .
215633234366044 .1651313225463845 18 49 51 0 17 46 51 47 ?1 29 50 75 0 51 52 47
 -.03811927515129145 .213640854087105 .1651313225463845 18 51 52 0 30 49 53 50 ?
1 29 52 76 0 53 54 50 -.03811927515129145 .213640854087105 .161105422546389 18 5
3 53 0 55 51 56 52 ?1 29 54 77 0 56 57 52 -.03811927515129145 .2106367629473745
 .161588574967044 18 56 54 0 58 53 59 54 ?1 29 57 78 0 59 60 54 -.03811927515129
145 .2079155692265745 .165681071743781 18 59 55 0 61 56 62 57 ?1 29 60 79 0 62 6
3 57 -.03811927515129145 .2213585192265745 .165681071743781 18 62 56 0 64 59 65
 60 ?1 29 63 80 0 65 66 60 -.03811927515129145 .215633234366044 .161105422546389
 18 65 58 0 67 62 68 63 ?1 29 66 81 0 68 0 63 -.03811927515129145 .2186373255057
745 .161588574967044 18 68 57 0 69 65 0 66 ?1 17 69 70 71 72 68 48 73 0 74 +15 7
0 84 0 69 75 0 17 71 70 42 69 62 74 76 0 0 -17 72 70 69 42 46 77 78 0 79 +17 48
 80 81 82 46 69 73 0 72 -16 73 83 0 ?69 83 84 85 0 0 1 17 74 86 87 88 68 71 76 0
 82 +15 86 62 0 89 90 0 17 87 86 89 74 65 82 91 0 0 +17 88 86 74 92 62 93 94 0 7
1 +16 76 50 0 ?74 91 94 95 0 0 1 17 82 80 48 67 68 87 91 0 0 -15 80 38 0 81 96 0
 17 67 80 82 81 65 45 84 0 97 +16 91 43 0 ?87 98 76 99 0 0 1 16 98 33 0 ?24 100
 91 101 0 0 1 31 99 73 0 91 102 95 0 +-.03811927515129145 .2148028743767255 .175
8491694487335 -1 0 0 0 .2596615615193965 -.965699680785548 .01476711110651824 31
 102 145 0 103 104 99 0 +-.03557927515129145 .212352566086969 .1631183725463965
 -1 0 0 0 1 0 80518e-8 31 95 72 0 76 99 105 0 +-.03811927515129145 .226756929957
456 .159140606250397 1 0 0 0 -.636560216555202 .771227003351928 .008480597106893
13 31 105 71 0 94 95 106 0 +-.03811927515129145 .2146370442265745 .1773230079455
85 -1 0 0 0 -.500000000000012 -.866025403784432 .01344295 16 94 49 0 ?88 76 107
 105 0 0 1 31 106 70 0 107 105 108 0 +-.03811927515129145 .2025171584956935 .159
140606250397 1 0 0 0 .957433108699562 .28865523096922 .00848059710689312 16 107
 48 0 ?92 94 109 106 0 0 1 31 108 69 0 109 106 110 0 +-.03811927515129145 .21447
12140764235 .1758491694487335 -1 0 0 0 -.0562303610682571 -.998417821602827 .014
76711110651834 16 109 47 0 ?111 107 112 108 0 0 1 30 110 68 0 112 108 113 0 +-.0
3811927515129145 .213640854087105 .1651313225463845 0 879064503022568e-30 -1 16
 112 46 0 ?114 109 115 110 0 0 1 31 113 67 0 115 110 116 0 +-.03811927515129145
 .2146370442265745 .176517827945585 1 0 0 0 .0871557427476537 -.996194698091746
 .01143 16 115 45 0 ?117 112 118 113 0 0 1 30 116 66 0 118 113 119 0 +-.03811927
515129145 .215633234366044 .161105422546389 0 3238658695346305e-31 1 16 118 44 0
 ?89 115 103 116 0 0 1 31 119 7 0 120 116 121 0 +-.03557927515129145 .2148028743
767255 .1758491694487335 -1 0 0 0 .2596615615193965 -.965699680785548 .014767111
10651824 16 120 6 0 ?81 84 78 119 0 0 1 31 121 11 0 78 119 122 0 +-.035579275151
29145 .226756929957456 .159140606250397 1 0 0 0 -.636560216555202 .7712270033519
28 .00848059710689313 16 78 10 0 ?72 120 123 121 0 0 1 31 122 15 0 123 121 124 0
 +-.03557927515129145 .2146370442265745 .177323007945585 -1 0 0 0 -.500000000000
012 -.866025403784432 .01344295 16 123 14 0 ?125 78 126 122 0 0 1 31 124 19 0 12
6 122 127 0 +-.03557927515129145 .2025171584956935 .159140606250397 1 0 0 0 .957
433108699562 .28865523096922 .00848059710689312 16 126 18 0 ?128 123 129 124 0 0
 1 31 127 23 0 129 124 130 0 +-.03557927515129145 .2144712140764235 .17584916944
87335 -1 0 0 0 -.0562303610682571 -.998417821602827 .01476711110651834 16 129 22
 0 ?131 126 132 127 0 0 1 30 130 27 0 132 127 133 0 +-.03557927515129145 .213640
854087105 .1651313225463845 0 879064503022568e-30 -1 16 132 26 0 ?28 129 100 130
 0 0 1 31 133 31 0 100 130 101 0 +-.03557927515129145 .2146370442265745 .1765178
27945585 1 0 0 0 .0871557427476537 -.996194698091746 .01143 16 100 30 0 ?22 132
 98 133 0 0 1 30 101 34 0 98 133 134 0 +-.03557927515129145 .215633234366044 .16
1105422546389 0 3238658695346305e-31 1 30 134 104 0 84 101 85 0 +-.0355792751512
9145 .215633234366044 .161105422546389 -1 0 0 16 84 82 0 ?67 73 120 134 0 0 1 30
 85 105 0 73 134 135 0 +-.03557927515129145 .2186373255057745 .161588574967044 -
1 0 0 30 135 106 0 83 85 136 0 +-.03557927515129145 .2213585192265745 .165681071
743781 -1 0 0 16 83 86 0 ?64 137 73 135 0 0 1 30 136 107 0 137 135 138 0 +-.0355
7927515129145 .2079155692265745 .165681071743781 -1 0 0 16 137 89 0 ?61 139 83 1
36 0 0 1 30 138 108 0 139 136 140 0 +-.03557927515129145 .2106367629473745 .1615
88574967044 -1 0 0 16 139 92 0 ?58 141 137 138 0 0 1 30 140 109 0 141 138 14 0 +
-.03557927515129145 .213640854087105 .161105422546389 -1 0 0 16 141 95 0 ?55 18
 139 140 0 0 1 30 14 110 0 18 140 5 0 +-.03557927515129145 .213640854087105 .165
1313225463845 -1 0 0 16 18 98 0 ?30 8 141 14 0 0 1 17 30 21 23 22 51 25 18 0 117
 +15 21 99 0 30 12 0 17 23 21 19 30 49 117 115 0 0 -17 22 21 30 19 20 142 100 0
 143 +17 117 86 114 89 51 23 115 0 29 +17 114 86 111 117 53 29 112 0 144 +17 89
 86 117 87 49 97 118 0 23 +17 29 27 25 55 51 114 112 0 0 -15 27 96 0 55 145 0 17
 55 27 29 28 53 31 141 0 114 +17 28 27 55 25 26 143 132 0 146 +17 31 147 131 144
 26 55 141 0 28 -15 147 93 0 58 148 0 17 131 147 58 31 32 146 129 0 149 +17 144
 147 31 58 53 111 109 0 0 -17 58 147 144 131 56 36 139 0 111 +17 111 86 92 114 5
6 144 109 0 150 +17 92 86 88 111 59 150 107 0 93 +17 150 151 36 61 56 92 107 0 0
 -15 151 90 0 61 152 0 17 36 151 128 150 32 58 139 0 131 -17 61 151 150 128 59 3
9 137 0 92 +17 128 151 61 36 37 149 126 0 153 +17 39 154 125 93 37 61 137 0 128
 -15 154 87 0 64 155 0 17 125 154 64 39 40 153 123 0 77 +17 93 154 39 64 59 88 9
4 0 0 -17 64 154 93 125 62 42 83 0 88 +17 42 70 72 71 40 64 83 0 125 -17 153 156
 149 77 37 125 123 0 0 -17 77 156 153 79 40 72 78 0 0 -15 156 35 0 157 158 0 17
 79 156 77 157 46 81 120 0 0 -17 157 156 79 142 43 24 98 0 81 -17 81 80 67 48 43
 79 120 0 0 +17 142 156 157 143 9 22 100 0 0 -17 24 159 17 45 9 157 98 0 142 +15
 159 102 0 17 10 0 17 17 159 97 24 49 19 8 0 89 +17 45 159 24 97 43 67 84 0 157
 -17 97 159 45 17 65 89 118 0 87 -14 10 103 0 ?12 0 159 3 160 +0 0 12 0 16 14 12
 100 0 ?145 10 21 3 4 +0 0 145 10 16 50 160 112 0 10 161 162 0 +-.03557927515129
145 .215633234366044 .161105422546389 0 -1 3238658695346305e-31 0 -3238658695346
305e-31 -1 13 16 40 0 0 0 0 0 0 7 10 50 161 37 0 158 163 160 0 +-.03557927515129
145 .2146370442265745 .176517827945585 1 0 0 0 1 0 51 162 113 0 96 160 164 0 +-.
03557927515129145 .2148028743767255 .1758491694487335 -1 0 0 .01476711110651824
 0 -1 0 14 96 39 0 ?158 75 80 3 162 +0 0 90 158 16 51 164 114 0 75 162 165 0 --.
03557927515129145 .226756929957456 .159140606250397 -1 0 0 .00848059710689313 0
 -1 0 14 75 85 0 ?96 155 70 3 164 +0 0 158 155 16 51 165 115 0 155 164 166 0 +-.
03557927515129145 .2146370442265745 .177323007945585 -1 0 0 .01344295 0 -1 0 14
 155 88 0 ?75 152 154 3 165 +0 0 75 152 16 51 166 116 0 152 165 167 0 --.0355792
7515129145 .2025171584956935 .159140606250397 -1 0 0 .00848059710689312 0 -1 0 1
4 152 91 0 ?155 148 151 3 166 +0 0 155 148 16 51 167 117 0 148 166 13 0 +-.03557
927515129145 .2144712140764235 .1758491694487335 -1 0 0 .01476711110651834 0 -1
 0 14 148 94 0 ?152 145 147 3 167 +0 0 152 145 16 50 13 118 0 145 167 4 0 +-.035
57927515129145 .213640854087105 .1651313225463845 0 1 879064503022568e-30 0 -879
064503022568e-30 1 14 145 97 0 ?148 12 27 3 13 +0 0 148 12 16 14 158 36 0 ?90 96
 168 3 161 +0 0 96 75 16 14 90 61 0 ?169 158 170 3 163 -0 0 169 96 16 15 168 155
 0 171 158 172 17 171 168 171 171 0 173 174 0 0 +15 172 127 0 175 158 156 17 175
 172 175 175 0 176 103 0 0 +17 176 177 176 176 0 175 103 0 0 -16 103 131 0 ?175
 118 178 102 0 0 1 16 178 132 0 ?179 103 174 104 0 0 1 17 179 180 179 179 0 181
 178 0 0 +16 174 159 0 ?171 178 182 183 0 0 1 31 104 146 0 178 183 102 0 +-.0381
1927515129145 .212352566086969 .1631183725463965 1 0 0 0 1 0 80518e-8 31 183 173
 0 174 184 104 0 +-.03557927515129145 .2169215223661805 .1631183725463965 -1 0 0
 0 1 0 80518e-8 31 184 174 0 182 0 183 0 +-.03811927515129145 .2169215223661805
 .1631183725463965 1 0 0 0 1 0 80518e-8 16 182 160 0 ?185 174 0 184 0 0 1 17 185
 170 185 185 0 186 182 0 0 +15 170 149 0 185 90 180 17 186 187 186 186 0 185 182
 0 0 -15 187 167 0 186 188 0 14 188 165 0 ?0 169 189 3 190 -0 0 0 169 16 14 169
 137 0 ?188 90 177 3 191 -0 0 188 90 16 15 189 166 0 173 188 187 51 190 170 0 18
8 0 191 0 +-.03811927515129145 .2169215223661805 .1631183725463965 1 0 0 80518e-
8 0 1 0 51 191 142 0 169 190 163 0 +-.03811927515129145 .212352566086969 .163118
3725463965 1 0 0 80518e-8 0 1 0 50 163 65 0 90 191 161 0 +-.03811927515129145 .2
146370442265745 .176517827945585 1 0 0 0 1 0 17 173 189 173 173 0 171 174 0 0 -1
5 177 138 0 176 169 192 15 192 139 0 181 169 0 17 181 192 181 181 0 179 178 0 0
 -15 180 121 0 179 90 86 17 143 156 142 146 20 28 132 0 0 -17 146 156 143 149 26
 131 129 0 0 -17 149 156 146 153 32 128 126 0 0 -19 11 1 0 1 0 7 3 S1 0 
