  0
SECTION
  2
HEADER
  9
$ACADVER
  1
AC1009
  9
$INSBASE
 10
0.0
 20
0.0
 30
0.0
  9
$EXTMIN
 10
0.0
 20
0.0
 30
0.0
  9
$EXTMAX
 10
6.0
 20
5.0
 30
4.0
  9
$LIMMIN
 10
0.0
 20
0.0
  9
$LIMMAX
 10
12.0
 20
9.0
  9
$ORTHOMODE
 70
     0
  9
$REGENMODE
 70
     1
  9
$FILLMODE
 70
     1
  9
$QTEXTMODE
 70
     0
  9
$MIRRTEXT
 70
     1
  9
$DRAGMODE
 70
     2
  9
$LTSCALE
 40
1.0
  9
$OSMODE
 70
     0
  9
$ATTMODE
 70
     1
  9
$TEXTSIZE
 40
0.2
  9
$TRACEWID
 40
0.05
  9
$TEXTSTYLE
  7
STANDARD
  9
$CLAYER
  8
0
  9
$CELTYPE
  6
BYLAYER
  9
$CECOLOR
 62
   256
  9
$DIMSCALE
 40
1.0
  9
$DIMASZ
 40
0.18
  9
$DIMEXO
 40
0.0625
  9
$DIMDLI
 40
0.38
  9
$DIMRND
 40
0.0
  9
$DIMDLE
 40
0.0
  9
$DIMEXE
 40
0.18
  9
$DIMTP
 40
0.0
  9
$DIMTM
 40
0.0
  9
$DIMTXT
 40
0.18
  9
$DIMCEN
 40
0.09
  9
$DIMTSZ
 40
0.0
  9
$DIMTOL
 70
     0
  9
$DIMLIM
 70
     0
  9
$DIMTIH
 70
     1
  9
$DIMTOH
 70
     1
  9
$DIMSE1
 70
     0
  9
$DIMSE2
 70
     0
  9
$DIMTAD
 70
     0
  9
$DIMZIN
 70
     0
  9
$DIMBLK
  1

  9
$DIMASO
 70
     1
  9
$DIMSHO
 70
     1
  9
$DIMPOST
  1

  9
$DIMAPOST
  1

  9
$DIMALT
 70
     0
  9
$DIMALTD
 70
     2
  9
$DIMALTF
 40
25.4
  9
$DIMLFAC
 40
1.0
  9
$DIMTOFL
 70
     0
  9
$DIMTVP
 40
0.0
  9
$DIMTIX
 70
     0
  9
$DIMSOXD
 70
     0
  9
$DIMSAH
 70
     0
  9
$DIMBLK1
  1

  9
$DIMBLK2
  1

  9
$DIMSTYLE
  2
*UNNAMED
  9
$DIMCLRD
 70
     0
  9
$DIMCLRE
 70
     0
  9
$DIMCLRT
 70
     0
  9
$DIMTFAC
 40
1.0
  9
$DIMGAP
 40
0.09
  9
$LUNITS
 70
     2
  9
$LUPREC
 70
     4
  9
$SKETCHINC
 40
0.1
  9
$FILLETRAD
 40
0.0
  9
$AUNITS
 70
     0
  9
$AUPREC
 70
     0
  9
$MENU
  1
acad
  9
$ELEVATION
 40
0.0
  9
$PELEVATION
 40
0.0
  9
$THICKNESS
 40
0.0
  9
$LIMCHECK
 70
     0
  9
$BLIPMODE
 70
     1
  9
$CHAMFERA
 40
0.0
  9
$CHAMFERB
 40
0.0
  9
$SKPOLY
 70
     0
  9
$TDCREATE
 40
2449378.628054977
  9
$TDUPDATE
 40
2449378.629029467
  9
$TDINDWG
 40
0.0009744907
  9
$TDUSRTIMER
 40
0.0009744907
  9
$USRTIMER
 70
     1
  9
$ANGBASE
 50
0.0
  9
$ANGDIR
 70
     0
  9
$PDMODE
 70
     0
  9
$PDSIZE
 40
0.0
  9
$PLINEWID
 40
0.0
  9
$COORDS
 70
     1
  9
$SPLFRAME
 70
     0
  9
$SPLINETYPE
 70
     6
  9
$SPLINESEGS
 70
     8
  9
$ATTDIA
 70
     0
  9
$ATTREQ
 70
     1
  9
$HANDLING
 70
     1
  9
$HANDSEED
  5
42
  9
$SURFTAB1
 70
     6
  9
$SURFTAB2
 70
     6
  9
$SURFTYPE
 70
     6
  9
$SURFU
 70
     6
  9
$SURFV
 70
     6
  9
$UCSNAME
  2

  9
$UCSORG
 10
0.0
 20
0.0
 30
0.0
  9
$UCSXDIR
 10
1.0
 20
0.0
 30
0.0
  9
$UCSYDIR
 10
0.0
 20
1.0
 30
0.0
  9
$PUCSNAME
  2

  9
$PUCSORG
 10
0.0
 20
0.0
 30
0.0
  9
$PUCSXDIR
 10
1.0
 20
0.0
 30
0.0
  9
$PUCSYDIR
 10
0.0
 20
1.0
 30
0.0
  9
$USERI1
 70
     0
  9
$USERI2
 70
     0
  9
$USERI3
 70
     0
  9
$USERI4
 70
     0
  9
$USERI5
 70
     0
  9
$USERR1
 40
0.0
  9
$USERR2
 40
0.0
  9
$USERR3
 40
0.0
  9
$USERR4
 40
0.0
  9
$USERR5
 40
0.0
  9
$WORLDVIEW
 70
     1
  9
$SHADEDGE
 70
     3
  9
$SHADEDIF
 70
    70
  9
$TILEMODE
 70
     1
  9
$MAXACTVP
 70
    16
  9
$PINSBASE
 10
0.0
 20
0.0
 30
0.0
  9
$PLIMCHECK
 70
     0
  9
$PEXTMIN
 10
1.000000E+20
 20
1.000000E+20
 30
1.000000E+20
  9
$PEXTMAX
 10
-1.000000E+20
 20
-1.000000E+20
 30
-1.000000E+20
  9
$PLIMMIN
 10
0.0
 20
0.0
  9
$PLIMMAX
 10
12.0
 20
9.0
  9
$UNITMODE
 70
     0
  9
$VISRETAIN
 70
     0
  9
$PLINEGEN
 70
     0
  9
$PSLTSCALE
 70
     1
  9
$TREEDEPTH
 70
  3020
  9
$DWGCODEPAGE
  3
ascii
  0
ENDSEC
  0
SECTION
  2
TABLES
  0
TABLE
  2
VPORT
 70
     2
  0
VPORT
  2
*ACTIVE
 70
     0
 10
0.0
 20
0.0
 11
1.0
 21
1.0
 12
7.896686
 22
4.951264
 13
0.0
 23
0.0
 14
1.0
 24
1.0
 15
0.0
 25
0.0
 16
0.0
 26
0.0
 36
1.0
 17
0.0
 27
0.0
 37
0.0
 40
9.902529
 41
1.594883
 42
50.0
 43
0.0
 44
0.0
 50
0.0
 51
0.0
 71
     0
 72
   100
 73
     1
 74
     1
 75
     0
 76
     0
 77
     0
 78
     0
  0
ENDTAB
  0
TABLE
  2
LTYPE
 70
     1
  0
LTYPE
  2
CONTINUOUS
 70
    64
  3
Solid line
 72
    65
 73
     0
 40
0.0
  0
ENDTAB
  0
TABLE
  2
LAYER
 70
     2
  0
LAYER
  2
0
 70
    64
 62
     7
  6
CONTINUOUS
  0
LAYER
  2
AME_FRZ
 70
    65
 62
     7
  6
CONTINUOUS
  0
ENDTAB
  0
TABLE
  2
STYLE
 70
     1
  0
STYLE
  2
STANDARD
 70
     0
 40
0.0
 41
1.0
 50
0.0
 71
     0
 42
0.2
  3
txt
  4

  0
ENDTAB
  0
TABLE
  2
VIEW
 70
     0
  0
ENDTAB
  0
TABLE
  2
UCS
 70
     0
  0
ENDTAB
  0
TABLE
  2
APPID
 70
     3
  0
APPID
  2
ACAD
 70
    64
  0
APPID
  2
AME_SOL
 70
    64
  0
APPID
  2
AVE_INVOKE
 70
    64
  0
ENDTAB
  0
TABLE
  2
DIMSTYLE
 70
     0
  0
ENDTAB
  0
ENDSEC
  0
SECTION
  2
BLOCKS
  0
BLOCK
  8
0
  5
1
  2
AME_NIL
 70
    64
 10
0.0
 20
0.0
 30
0.0
  1
AME_NIL
  3
AME_NIL
  0
ENDBLK
  8
0
  5
2
  0
BLOCK
  8
0
  5
4
  2
AME_SOL
 70
    64
 10
0.0
 20
0.0
 30
0.0
  1
AME_SOL
  3
AME_SOL
  0
ENDBLK
  8
0
  5
5
  0
BLOCK
  8
0
  5
25
  2
*U4
 70
    65
 10
0.0
 20
0.0
 30
0.0
  1
*U
  3
*U
  0
LINE
  8
0
 62
     7
  5
26
 10
6.0
 20
4.0
 30
0.0
 11
6.0
 21
4.0
 31
4.0
1001
AME_SOL
1070
     1
1071
       25
  0
LINE
  8
0
 62
     7
  5
27
 10
6.0
 20
4.0
 30
4.0
 11
6.0
 21
0.0
 31
4.0
1001
AME_SOL
1070
     1
1071
       24
  0
LINE
  8
0
 62
     7
  5
28
 10
4.732051
 20
4.0
 30
4.0
 11
6.0
 21
4.0
 31
4.0
1001
AME_SOL
1070
     1
1071
       23
  0
LINE
  8
0
 62
     7
  5
29
 10
0.0
 20
4.0
 30
4.0
 11
1.267949
 21
4.0
 31
4.0
1001
AME_SOL
1070
     1
1071
       22
  0
LINE
  8
0
 62
     7
  5
2A
 10
0.0
 20
4.0
 30
0.0
 11
0.0
 21
4.0
 31
4.0
1001
AME_SOL
1070
     1
1071
       21
  0
LINE
  8
0
 62
     7
  5
2B
 10
0.0
 20
4.0
 30
4.0
 11
0.0
 21
0.0
 31
4.0
1001
AME_SOL
1070
     1
1071
       20
  0
LINE
  8
0
 62
     7
  5
2C
 10
0.0
 20
0.0
 30
0.0
 11
0.0
 21
0.0
 31
4.0
1001
AME_SOL
1070
     1
1071
       19
  0
LINE
  8
0
 62
     7
  5
2D
 10
6.0
 20
0.0
 30
4.0
 11
6.0
 21
0.0
 31
0.0
1001
AME_SOL
1070
     1
1071
       18
  0
LINE
  8
0
 62
     7
  5
2E
 10
0.0
 20
0.0
 30
4.0
 11
6.0
 21
0.0
 31
4.0
1001
AME_SOL
1070
     1
1071
       17
  0
LINE
  8
0
 62
     7
  5
2F
 10
0.0
 20
0.0
 30
0.0
 11
6.0
 21
0.0
 31
0.0
1001
AME_SOL
1070
     1
1071
       16
  0
LINE
  8
0
 62
     7
  5
30
 10
0.0
 20
4.0
 30
0.0
 11
0.0
 21
0.0
 31
0.0
1001
AME_SOL
1070
     1
1071
       15
  0
LINE
  8
0
 62
     7
  5
31
 10
6.0
 20
0.0
 30
0.0
 11
6.0
 21
4.0
 31
0.0
1001
AME_SOL
1070
     1
1071
       14
  0
LINE
  8
0
 62
     7
  5
32
 10
1.267949
 20
4.0
 30
0.0
 11
0.0
 21
4.0
 31
0.0
1001
AME_SOL
1070
     1
1071
       13
  0
LINE
  8
0
 62
     7
  5
33
 10
6.0
 20
4.0
 30
0.0
 11
4.732051
 21
4.0
 31
0.0
1001
AME_SOL
1070
     1
1071
       12
  0
ARC
  8
0
 62
     7
  5
34
 10
3.0
 20
3.0
 30
0.0
 40
2.0
 50
150.0
 51
30.0
1001
AME_SOL
1070
     1
1071
       11
  0
LINE
  8
0
 62
     7
  5
35
 10
4.732051
 20
4.0
 30
0.0
 11
4.732051
 21
4.0
 31
4.0
1001
AME_SOL
1070
     1
1071
       10
  0
LINE
  8
0
 62
     7
  5
36
 10
1.267949
 20
4.0
 30
0.0
 11
1.267949
 21
4.0
 31
4.0
1001
AME_SOL
1070
     1
1071
        9
  0
ARC
  8
0
 62
     7
  5
37
 10
3.0
 20
3.0
 30
4.0
 40
2.0
 50
150.0
 51
30.0
1001
AME_SOL
1070
     1
1071
        8
  0
LINE
  8
0
 62
     7
  5
38
 10
5.0
 20
3.0
 30
0.0
 11
5.0
 21
3.0
 31
4.0
1001
AME_SOL
1070
     0
1071
        1
  0
LINE
  8
0
 62
     7
  5
39
 10
3.0
 20
1.0
 30
0.0
 11
3.0
 21
1.0
 31
4.0
1001
AME_SOL
1070
     0
1071
        1
  0
LINE
  8
0
 62
     7
  5
3A
 10
1.0
 20
3.0
 30
0.0
 11
1.0
 21
3.0
 31
4.0
1001
AME_SOL
1070
     0
1071
        1
  0
ENDBLK
  8
0
  5
3B
  0
BLOCK
  8
0
  5
3F
  2
AME_JNK
 70
     0
 10
0.0
 20
0.0
 30
0.0
  1
AME_JNK
  3
AME_JNK
  0
ENDBLK
  8
0
  5
40
  0
ENDSEC
  0
SECTION
  2
ENTITIES
  0
INSERT
  8
AME_FRZ
  5
3
  2
AME_NIL
 10
0.0
 20
0.0
 30
0.0
  0
INSERT
  8
AME_FRZ
  5
6
  2
AME_SOL
 10
0.0
 20
0.0
 30
0.0
1001
AME_SOL
1000
R2.1
1000
AME2
1000
sq cm
1070
     3
1070
     0
1070
     3
1000
wire
1040
45.0
1000
U
1040
1.0
1000
cm
1000
gm
1000
MILD_STEEL
1070
    25
1000
CSG
1070
     1
1070
     3
1070
     3
1070
     3
1070
     0
1000
cu cm
1070
     1
1070
     0
1005
3
  0
INSERT
  8
AME_FRZ
  5
15
  2
AME_NIL
 10
0.0
 20
0.0
 30
0.0
1001
AME_SOL
1002
{
1070
     1
1071
  2438160
1070
  1536
1070
     1
1010
6.0
1020
4.0
1030
4.0
1005
0
1005
0
1005
3C
1040
0.0
1040
1.0
1070
     0
1000
MILD_STEEL
1000
0
1010
0.0
1020
0.0
1030
0.0
1010
0.0
1020
0.0
1030
1.0
1040
0.0
1002
}
1001
AVE_INVOKE
1000
SOLAVEMESH
  0
INSERT
  8
AME_FRZ
  5
21
  2
AME_NIL
 10
3.0
 20
3.0
 30
0.0
1001
AME_SOL
1002
{
1070
     1
1071
  2435688
1070
  1538
1070
     1
1010
2.0
1020
2.0
1030
4.0
1005
0
1005
0
1005
3C
1040
0.0
1040
1.0
1070
     0
1000
MILD_STEEL
1000
0
1010
3.0
1020
3.0
1030
0.0
1010
0.0
1020
0.0
1030
1.0
1040
0.0
1002
}
1001
AVE_INVOKE
1000
SOLAVEMESH
  0
INSERT
  8
0
  5
3C
  2
*U4
 10
0.0
 20
0.0
 30
0.0
1001
AME_SOL
1002
{
1070
     1
1071
  2444184
1070
  1543
1070
     1
1070
     0
1005
15
1005
21
1005
0
1005
3D
1005
0
1040
0.0
1040
1.0
1070
     0
1000
MILD_STEEL
1000
0
1002
}
1001
AVE_INVOKE
1000
SOLAVEMESH
  0
INSERT
  8
AME_FRZ
  5
3D
  2
AME_NIL
 10
1.0
 20
1.0
 30
1.0
1001
AME_SOL
1004
C7CF0100F7007B017A01780174016C015F01540143012E011A018B0054001B012100EB002F011C01AB0073001D0136003800440130011E014D0044001F01C1000C012000BD00310120010D0197000101000111000E0102011900F700030127002E0021010F0104012F00310005013200CB0010010601C700
1004
C6000701BB0081003C0060017E00FD006D01610125005F0062010300890075016E016301550145017A00A4004601EE003201B6007B0056014701330114004C003401EA002D009600FF006F0164010F0057014801ED003000750065010700BF007901760170016601580149013501220111010801B800B700
1004
0901A900A80052002301830028004E0080007F00F0007101670159014A01F800360124017600E00050004B01D8008400100068013F005A014C013701E300250112010A01950093001200FC0068004D010800C00077017201690124005B014E013801F2002601350013019E0013003901270114011600F400
1004
1501A7002A00280116018500D00017014900B3004F013A01E1007D003B0129011801BA005600DF000400400073016A0101005C0150013C01050070003D01BC00E40051013E015A0082003F01A00079006B015D017C0002005E01520140012A0119010B019000060009001700E200180053014101FB002B01
1004
EF001F0042012C015800E8002D01B500C3000000250C4A19009F8E573294BA0206A75CE30290D11023C60521A220478C0A4344408F31E1451CE7D698F0A28E7121A63C28A39CAB5CEFC6433E3BF6CFBFCFFBF4B0EFDB3EFF3FEFD2C30290D11023CC7851473890D31E1451CE2434C7851473956B92520A8D
1004
70C4A5DC81DF2520FFA56FFFFFFFD2B7FFEBCDFD79BFEE8FF6FF6FFFFFF92907FD2B7FFFFFFE95BFFF5E6FEBCDFF747FB7FB7FFFFF49E041286E4CDFFA56FFFFFFFD2B7FB9F4AC05BEBCDFF7B763A9D6EF76BA5759D763A9D6EF76BA5745FF7BDD8EA75BBDDAE95D677FFF55AEC753ADDEED74AE8AE7FFFD
1004
56BDB24529592294AE7FFFD568104A7BC99BFF4ADFFFFFFFA56FF494A5294E6B9F4ADFEF6EC753ADDEED74AEB3AEC753ADDEED74AE8BFEF7BB1D4EB77BB5D2BACEFFFEAB5D8EA75BBDDAE95D15CFFFFAAD7B648A52B245295CFFFFAAD02094E7266FFD2B7FFFFFFE95BFDCF921BFAF37FDEDD8EA75BBDDAE
1004
95D675D8EA75BBDDAE95D17FDEF763A9D6EF76BA5759DFFFD56BB1D4EB77BB5D2BA2B9FFFF55AF6C914A5648A52B9FFFF55A0412BC99BFF4ADFFFFFFFA56FF494A5294E6B9F2437FDEDD8EA75BBDDAE95D675D8EA75BBDDAE95D15CFEFC643E0C60521A220478C0A4344408F18148688811E63C28A39CFAD
1004
31E1451CE55A30290D110259CA9A0A93318B9DC81D39A9A0FFFFA56FFFD2B7FFFFFFFFFBA3FFFFFFFFFEA683FFFE95BFFF4ADFFFFFFFFFEE8FFFFFFFFFE959F8C867C60521A220478C0A4344408F18148688811E63C28A39CFAD18148688812C63C28A39CAB5CA9A0BB8818B9DC81CB9A9A0FFA56FFFFFFF
1004
FFD2B7FFFFFBA3FFFFFFFFFEA683FE95BFFFFFFFFF4ADFFFFFEE8FFFFFFFFFE959F8C867C60521A220478C0A4344408F18148688811E30290D110258C785147395698F0A28E72AD72A682A44762E7726AE6A683FFFFFE95BFFF4ADFFFFFFFEE8FFFFFFFFFFA9A0FFFFFFA56FFFD2B7FFFFFFFBA3FFFFFFFF
1004
FA567E321F0630290D11023C60521A22047BE4E71A68931A63C28A39CFAD31E1451CE55A63C28A39CAB5CA9A0A83358B9DC81C39A9A0FFA4FFE87FA1FE87F49FFD0FEFADFD56FEAB5D1FFFFFFFFFF5341FF49FFD0FF43FD0FE93FFA1FDF5BFAADFD56BA3FFFFFFFFFA567E3217A30290D11023DF2738D344
1004
98D18148688811E63C28A39CFAD31E1451CE55A63C28A39CAB5CA9A09AA2C5CEE40DDCD4D07FE87FA1FD27FE93FFA1FE87F7D6FEAB7F55AE8FFFFFFFFFFA9A0FFD0FF43FA4FFD27FF43FD0FEFADFD56FEAB5D1FFFFFFFFFD2B3F190CFB2102BB944507C5A30290D11023C60521A2204798F0A28E73EB4C78
1004
5147395698F0A28E72AD72A682BA858B9DC92DCD4D07FE87F49FFD0FF43FD0FE93FF7D6FEAB7F55AE8FFFFFFFFFFA9A0FFD0FE93FFA1FE87FA1FD27FEFADFD56FEAB5D1FFFFFFFFFD2B10910EFDB3EFF3FEFD2C3BF6CFBFCFFBF4B3E4E71A68931A63C28A39C48698F0A28E72AD31E1451CE55A8192C0900
1004
5F8013E15F530149603A02052567B5CCDB2D2481B77252A8D70C5419AC77B5066B151AE18B9CA52957337800497F1FD2023006B00DF514FFF01BEA2AC00125FC7F4808C01ADFD0FEBCDFD79BFAAD67FFB7FB5032581200BF0027C2BEA60292C074040A4AC42443BF6CFBFCFFBF4B3E4E71A68931A30290D1
1004
1023CC7851473890D31E1451CE55A63C28A39CAB7FFF55AF64CDB2D03F63B929546B8626A8B1DECD5162A35C317394A529337FE95BFFFFFFF4ADFECE597B2A7C59632E652B7EAB7FDEFFFF55A42443BF6CFBFCFFBF4B3E4E71A68931A30290D11023CC7851473890D31E1451CE55A63C28A39CAB7FFF55AF
1004
64CDA8D7258E52B951AE189AA2C77B51AE189AA2C4A5295CE4CDFFA56FFFFFFFD2B7FB2B64ECA19C326345CADFD56FFBDFFFEAB4848877ED9F7F9FF7E961DFB67DFE7FDFA5860521A2204798F0A28E7121A63C28A39CAB460521A2204B2064B024017E004F857D4C052580E80814959ED7336A006681F295
1004
CA8D70C54998C77B51AE18A9331894A52B9D7337800497F1FD2023006B00DF514FFF01BEA2AC00125FC7F4808C01ADFD0FEBCDFD79BFECFFF6FF6A064B024017E004F857D4C052580E80814958848860521A22047BE4E71A68931A30290D11023CC78514739F5A63C28A39CAB460521A2204B7EBCBE02125
1004
FC7F4808CFC3DEC99B355C86394AE54998C4D5163BDA933189AA2C5CEE7266FFFFD2B7FFFFFFE93FF5E6FEAB7FDEFF5E5F01092FE3FA40467E1E424430290D11023DF2738D34498D18148688811E63C28A39CFAD31E1451CE55A30290D1102580424BF8FE90119F8B7EBCD7B266DA4D8E52B952663135458
1004
EF6A4CC626A8B173B9C99BFFFF4ADFFFFFFFA4FFD79BFAADFF7B01092FE3FA40467E2DFAF34848990815DCA2283E2D18148688811E30290D11023CC78514739F5A63C28A39CAB460521A2204B7F5FFED7B266D460618E52B95266315D42C77B5266315D42C5CEE7266FFD2B7FFFFFFFFE93FF7D6FF6FFBDF
1004
F5FFED212218148688811E30290D11023C60521A220478C0A4344409631E1451CE55A30290D11025BF557FFA17B266D20618E52B95266315223B1DED4998C5488EC5CEE7266FFD27FFFFFFFFFE93FFFFFFDEFF557FFA1212218148688811E30290D11023C60521A2204798F0A28E73EB460521A2204B0C0A
1004
43444096FFFDF5AF64CDB2D03D6394AE54998C5DC40C77B52663177103173B9C99BFFFF49FFFFFFFFA4FFFFFFF7BFFFDF5A424430290D11023C60521A22047BE4E71A68931A63C28A39CFAD18148688812C63C28A39CAB7F5E5FFD79AF64CDAA078C7295CBB8818A83358EF6EE2062A0CD62E7739337FFFF
1004
FE95BFFF49FFFFAF37FFF55AF7FAF2FFEBCD21226420577288A0F8B460521A220478C0A4344408F31E1451CE7D68C0A4344409631E1451CE55BFD7FFB5EC99B5148CC7295CBB8818AEA163BDBB8818AEA162E7739337FE95BFFFFFFF49FFFFBEB7FFFB5EFFAFFF690910C0A4344408F18148688811E30290
1004
D11023C60521A2204B0C0A4344409631E1451CE55BFFFAAD7B266D2802C7295CBB8818A911D8EF6EE2062A44762E7739337FE93FFFFFFFF49FFFFFFFFEF7FFFAAD212218148688811E30290D11023DF2738D34498D18148688812C63C28A39CAB4C7851473956FF5FFED7B266DF010018E52B95223B15066
1004
B1DED488EC5419AC5CEE7266FFFFFFD2B7E93FFFFFFFFB7F55AF7FD7FFB4848860521A22047BE4E71A68931A30290D11023C60521A2204B18F0A28E72AD31E1451CE55BFD7FFB5EC99B5003E6394AE5488EC4D5163BDA911D89AA2C5CEE7266FFFFD2B7FFE93FFFFFFFF55BFDAF7FD7FFB4848860521A220
1004
47BE4E71A68931AF939C69A24C698F0A28E73EB4C785147395698F0A28E72ADFDF57D95B27650CE1931A2E55F7B266D780BB1CA572A0CD626A8B1DED419AC4D5162E7739337FFFE95BFFFFFFF4ADFBEB7F55BFAAD7BFDF57D95B27650CE1931A2E55F212218148688811EF939C69A24C6BE4E71A68931A63
1004
C28A39CFAD31E1451CE55A63C28A39CAB59CB2F654F8B2C65CCA4FFE85EC99B40302EC7295CA833589AA2C77B5066B135458B9DCE4CDFFFFA56FFFFFFFD2B7EFADFD56FEAB5ED9CB2F654F8B2C65CCA4FFE84848990815DCA2283E2D18148688811EF939C69A24C698F0A28E73EB4C785147395698F0A28E
1004
72ADFFFD56BD933605970C7295CA83358AEA163BDA83358AEA162E7739337FE95BFFFFFA1FFFD2B7EFADFD56FEAB5EFFFF55A4244C840AEE51141F16BE4E71A68931A30290D11023CC78514739F5A63C28A39CAB4C7851473956FEAAFFF42F64CDA82E18E52B935458AEA163BD9AA2C5750B173B9C99BFF4
1004
ADFFFFFFFA56FFFDF5BFAADFD56BDFEAAFFF42068B981901
1005
3E
  0
INSERT
  8
AME_FRZ
  5
3E
  2
AME_NIL
 10
1.0
 20
1.0
 30
1.0
1001
AME_SOL
1004

1005
0
  0
ENDSEC
  0
EOF
