700 0 2 0           
24 FBMach with ACIS - 7.0.3 13 ACIS 7.0.3 NT 24 Tue May 14 12:05:32 2002 
1 9.9999999999999995e-007 1e-010 
body $2 -1 $-1 $3 $-1 $4 #
bdycol-kcp $-1 -1 1 3 $5 $6 $7 #
model_id-kcp-attrib $-1 -1 $-1 $-1 $0 1 1021392332 1021392332 -1479606271 1 #
lump $-1 -1 $-1 $-1 $8 $0 #
transform $-1 -1 1 0 0 0 1 0 0 0 1 0 0 0 1 rotate no_reflect no_shear #
body $9 -1 $-1 $10 $-1 $11 #
body $12 -1 $-1 $13 $-1 $14 #
body $15 -1 $-1 $16 $-1 $17 #
shell $-1 -1 $-1 $-1 $-1 $18 $-1 $3 #
rgb_color-st-attrib $-1 -1 $19 $-1 $5 0.5 1 1 #
lump $-1 -1 $-1 $-1 $20 $5 #
transform $-1 -1 1 0 0 0 1 0 0 0 1 0 0 0 1 no_rotate no_reflect no_shear #
model_id-kcp-attrib $-1 -1 $-1 $-1 $6 1 1021392332 1021392332 -1479606270 1 #
lump $-1 -1 $-1 $-1 $21 $6 #
transform $-1 -1 1 0 0 0 1 0 0 0 1 0 0 0 1 no_rotate no_reflect no_shear #
rgb_color-st-attrib $-1 -1 $22 $-1 $7 0.5 1 1 #
lump $-1 -1 $-1 $-1 $23 $7 #
transform $-1 -1 -1 0 -1.2246063538223773e-016 0 1 0 1.2246063538223773e-016 0 -1 0 0 0 1 rotate no_reflect no_shear #
face $24 -1 $-1 $25 $26 $8 $-1 $27 reversed single #
model_id-kcp-attrib $-1 -1 $-1 $9 $5 1 1021392332 1021392332 -1492451324 1 #
shell $-1 -1 $-1 $-1 $-1 $28 $-1 $10 #
shell $-1 -1 $-1 $-1 $-1 $29 $-1 $13 #
model_id-kcp-attrib $-1 -1 $-1 $15 $7 1 1021392332 1021392332 -1478295549 1 #
shell $-1 -1 $-1 $-1 $-1 $30 $-1 $16 #
model_id-kcp-attrib $-1 -1 $31 $-1 $18 1 1021392332 1021392332 -1479606271 2 #
face $32 -1 $-1 $33 $34 $8 $-1 $35 forward single #
loop $36 -1 $-1 $37 $38 $18 #
cone-surface $39 -1 $-1 0 0 0 0 0 -1 0 13.87129 0 1 I I 0 1 13.87129 forward I I I I #
face $-1 -1 $-1 $40 $41 $20 $-1 $42 reversed single #
face $43 -1 $-1 $44 $45 $21 $-1 $46 forward single #
face $-1 -1 $-1 $47 $48 $23 $-1 $49 forward single #
face_name-twe-attrib $-1 -1 $-1 $24 $18 1 #
model_id-kcp-attrib $-1 -1 $50 $-1 $25 1 1021392332 1021392332 -1479606271 3 #
face $51 -1 $-1 $52 $53 $8 $-1 $54 forward single #
loop $55 -1 $-1 $56 $57 $25 #
cone-surface $58 -1 $-1 0 0 0 0 0 1 15.012499999999999 0 0 1 I I 0 1 15.012499999999999 forward I I I I #
model_id-kcp-attrib $-1 -1 $59 $-1 $26 1 1021392332 1021392332 -1479606271 8 #
loop $60 -1 $-1 $-1 $61 $18 #
coedge $-1 -1 $-1 $38 $38 $62 $63 reversed $26 $-1 #
surf-twe-attrib $-1 -1 $-1 $-1 $27 3 #
face $-1 -1 $-1 $64 $65 $20 $-1 $42 reversed single #
loop $-1 -1 $-1 $-1 $66 $28 #
cone-surface $-1 -1 $-1 -5.6284141465887087e-032 0 -0.56899999999999995 0 0 -1 15.012499999999999 0 0 1 I I 0 1 15.012499999999999 forward I I I I #
model_id-kcp-attrib $-1 -1 $-1 $-1 $29 1 1021392332 1021392332 -1479606270 3 #
face $67 -1 $-1 $68 $69 $21 $-1 $70 reversed single #
loop $-1 -1 $-1 $-1 $71 $29 #
plane-surface $-1 -1 $-1 0 0 0.56899999999999995 0 0 1 1 0 0 forward_v I I I I #
face $-1 -1 $-1 $72 $73 $23 $-1 $74 forward single #
loop $-1 -1 $-1 $75 $76 $30 #
cone-surface $-1 -1 $-1 0 0 0 0 0 1 13.87129 0 0 1 I I 0 1 13.87129 forward I I I I #
face_name-twe-attrib $-1 -1 $-1 $32 $25 2 #
model_id-kcp-attrib $-1 -1 $77 $-1 $33 1 1021392332 1021392332 -1479606271 4 #
face $78 -1 $-1 $-1 $79 $8 $-1 $80 forward single #
loop $81 -1 $-1 $82 $83 $33 #
plane-surface $84 -1 $-1 0 0 -0.56899999999999995 0 0 -1 -1 0 0 forward_v I I I I #
loop_type-twe-attrib $-1 -1 $-1 $-1 $34 0 #
loop $85 -1 $-1 $-1 $86 $25 #
coedge $-1 -1 $-1 $57 $57 $87 $88 reversed $34 $-1 #
surf-twe-attrib $-1 -1 $-1 $-1 $35 5 #
loop_type-twe-attrib $-1 -1 $-1 $36 $26 0 #
model_id-kcp-attrib $-1 -1 $89 $-1 $37 1 1021392332 1021392332 -1479606271 9 #
coedge $-1 -1 $-1 $61 $61 $83 $90 reversed $37 $-1 #
coedge $-1 -1 $-1 $62 $62 $38 $63 forward $79 $-1 #
edge $91 -1 $-1 $92 0 $92 6.2831853071795862 $62 $93 forward @7 unknown #
face $-1 -1 $-1 $94 $95 $20 $-1 $42 reversed single #
loop $-1 -1 $-1 $-1 $96 $40 #
coedge $-1 -1 $-1 $97 $98 $99 $100 forward $41 $-1 #
model_id-kcp-attrib $-1 -1 $-1 $-1 $44 1 1021392332 1021392332 -1479606270 2 #
face $-1 -1 $-1 $101 $102 $21 $-1 $103 reversed single #
loop $-1 -1 $-1 $-1 $104 $44 #
plane-surface $-1 -1 $-1 0 0 -0.56899999999999995 0 0 1 1 0 0 forward_v I I I I #
coedge $-1 -1 $-1 $105 $106 $107 $108 forward $45 $-1 #
face $-1 -1 $-1 $-1 $109 $23 $-1 $110 forward single #
loop $-1 -1 $-1 $-1 $111 $47 #
plane-surface $-1 -1 $-1 0 0 -0.56900000000000162 0 0 -1 -1 0 0 forward_v I I I I #
loop $-1 -1 $-1 $-1 $112 $30 #
coedge $-1 -1 $-1 $76 $76 $111 $113 reversed $48 $-1 #
face_name-twe-attrib $-1 -1 $-1 $51 $33 3 #
model_id-kcp-attrib $-1 -1 $114 $-1 $52 1 1021392332 1021392332 -1479606271 5 #
loop $115 -1 $-1 $116 $62 $52 #
plane-surface $117 -1 $-1 0 0 0.56899999999999995 0 0 1 1 0 0 forward_v I I I I #
model_id-kcp-attrib $-1 -1 $118 $-1 $53 1 1021392332 1021392332 -1479606271 11 #
loop $119 -1 $-1 $-1 $87 $33 #
coedge $-1 -1 $-1 $83 $83 $61 $90 forward $53 $-1 #
surf-twe-attrib $-1 -1 $-1 $-1 $54 9 #
loop_type-twe-attrib $-1 -1 $-1 $-1 $56 1 #
coedge $-1 -1 $-1 $86 $86 $120 $121 reversed $56 $-1 #
coedge $-1 -1 $-1 $87 $87 $57 $88 forward $82 $-1 #
edge $122 -1 $-1 $123 0 $123 6.2831853071795862 $87 $124 forward @7 unknown #
loop_type-twe-attrib $-1 -1 $-1 $60 $37 1 #
edge $125 -1 $-1 $126 0 $126 6.2831853071795862 $83 $127 forward @7 unknown #
attrib_edge_convexity-kcp-attrib $-1 -1 $128 $-1 $63 1 #
vertex $129 -1 $-1 $63 $130 #
ellipse-curve $131 -1 $-1 0 0 0.56899999999999995 0 0 -1 0 13.87129 0 1 I I #
face $-1 -1 $-1 $132 $133 $20 $-1 $42 reversed single #
loop $-1 -1 $-1 $-1 $134 $64 #
coedge $-1 -1 $-1 $135 $99 $136 $137 reversed $65 $-1 #
coedge $-1 -1 $-1 $138 $66 $139 $140 reversed $41 $-1 #
coedge $-1 -1 $-1 $66 $138 $141 $142 reversed $41 $-1 #
coedge $-1 -1 $-1 $96 $143 $144 $100 reversed $65 $-1 #
edge $-1 -1 $-1 $145 -1.1379999999999999 $146 0 $144 $147 forward @7 unknown #
face $-1 -1 $-1 $148 $149 $21 $-1 $150 reversed single #
loop $-1 -1 $-1 $-1 $151 $68 #
plane-surface $-1 -1 $-1 0 -15.012499999999999 0 0 1 0 0 0 1 forward_v I I I I #
coedge $-1 -1 $-1 $152 $153 $154 $155 forward $69 $-1 #
coedge $-1 -1 $-1 $156 $71 $157 $158 forward $45 $-1 #
coedge $-1 -1 $-1 $71 $156 $159 $160 forward $45 $-1 #
coedge $-1 -1 $-1 $161 $162 $71 $108 reversed $163 $-1 #
edge $-1 -1 $-1 $164 -15.012499999999999 $165 15.012499999999999 $107 $166 forward @7 unknown #
loop $-1 -1 $-1 $-1 $167 $72 #
plane-surface $-1 -1 $-1 0 0 0.56900000000000162 0 0 1 1 0 0 forward_v I I I I #
coedge $-1 -1 $-1 $111 $111 $76 $113 forward $73 $-1 #
coedge $-1 -1 $-1 $112 $112 $167 $168 reversed $75 $-1 #
edge $-1 -1 $-1 $169 0 $169 6.2831853071795862 $111 $170 forward @7 unknown #
face_name-twe-attrib $-1 -1 $-1 $78 $52 4 #
model_id-kcp-attrib $-1 -1 $171 $-1 $79 1 1021392332 1021392332 -1479606271 10 #
loop $172 -1 $-1 $-1 $120 $52 #
surf-twe-attrib $-1 -1 $-1 $-1 $80 17 #
loop_type-twe-attrib $-1 -1 $-1 $81 $53 1 #
loop_type-twe-attrib $-1 -1 $-1 $-1 $82 0 #
coedge $-1 -1 $-1 $120 $120 $86 $121 forward $116 $-1 #
edge $173 -1 $-1 $174 0 $174 6.2831853071795862 $120 $175 forward @7 unknown #
attrib_edge_convexity-kcp-attrib $-1 -1 $176 $-1 $88 1 #
vertex $-1 -1 $-1 $88 $177 #
ellipse-curve $178 -1 $-1 0 0 -0.56899999999999995 0 0 -1 15.012499999999999 0 0 1 I I #
attrib_edge_convexity-kcp-attrib $-1 -1 $179 $-1 $90 1 #
vertex $180 -1 $-1 $90 $181 #
ellipse-curve $182 -1 $-1 0 0 -0.56899999999999995 0 0 1 0 13.87129 0 1 I I #
convexity-sys-attrib $-1 -1 $183 $91 $63 #
model_id-kcp-attrib $-1 -1 $-1 $-1 $92 1 1021392332 1021392332 -1479606271 12 #
point $-1 -1 $-1 0 13.87129 0.56899999999999995 #
cur-twe-attrib $-1 -1 $-1 $-1 $93 27 #
face $-1 -1 $-1 $184 $185 $20 $-1 $186 reversed single #
loop $-1 -1 $-1 $-1 $187 $94 #
coedge $-1 -1 $-1 $188 $189 $190 $191 reversed $95 $-1 #
coedge $-1 -1 $-1 $143 $96 $192 $193 forward $65 $-1 #
coedge $-1 -1 $-1 $194 $195 $96 $137 forward $196 $-1 #
edge $-1 -1 $-1 $197 -3.1415926535897931 $145 -1.5707963267948966 $136 $198 forward @7 unknown #
coedge $-1 -1 $-1 $98 $97 $199 $200 reversed $41 $-1 #
coedge $-1 -1 $-1 $201 $202 $97 $140 forward $203 $-1 #
edge $-1 -1 $-1 $204 0 $146 1.5707963267948966 $139 $205 forward @7 unknown #
coedge $-1 -1 $-1 $206 $207 $98 $142 forward $208 $-1 #
edge $-1 -1 $-1 $145 -1.5707963267948966 $209 0 $141 $198 forward @7 unknown #
coedge $-1 -1 $-1 $99 $135 $210 $211 reversed $65 $-1 #
coedge $-1 -1 $-1 $212 $213 $214 $100 forward $215 $-1 #
vertex $-1 -1 $-1 $216 $217 #
vertex $-1 -1 $-1 $218 $219 #
straight-curve $-1 -1 $-1 -5.6284141465887087e-032 15.012499999999999 -0.56899999999999995 0 0 -1 I I #
face $-1 -1 $-1 $220 $221 $21 $-1 $222 reversed single #
loop $-1 -1 $-1 $-1 $223 $101 #
plane-surface $-1 -1 $-1 -15.012499999999999 0 0 1 0 0 0 0 -1 forward_v I I I I #
coedge $-1 -1 $-1 $224 $159 $225 $226 forward $102 $-1 #
coedge $-1 -1 $-1 $227 $104 $224 $228 forward $69 $-1 #
coedge $-1 -1 $-1 $104 $227 $229 $230 forward $69 $-1 #
coedge $-1 -1 $-1 $162 $161 $104 $155 reversed $163 $-1 #
edge $-1 -1 $-1 $231 -15.012499999999999 $232 15.012499999999999 $154 $233 forward @7 unknown #
coedge $-1 -1 $-1 $106 $105 $234 $235 forward $45 $-1 #
coedge $-1 -1 $-1 $236 $237 $105 $158 reversed $221 $-1 #
edge $-1 -1 $-1 $165 -15.012499999999999 $238 15.012499999999999 $157 $239 forward @7 unknown #
coedge $-1 -1 $-1 $151 $240 $106 $160 reversed $102 $-1 #
edge $-1 -1 $-1 $241 -15.012499999999999 $164 15.012499999999999 $159 $242 forward @7 unknown #
coedge $-1 -1 $-1 $154 $107 $240 $243 forward $163 $-1 #
coedge $-1 -1 $-1 $107 $154 $236 $244 reversed $163 $-1 #
loop $-1 -1 $-1 $-1 $161 $220 #
vertex $-1 -1 $-1 $108 $245 #
vertex $-1 -1 $-1 $108 $246 #
straight-curve $-1 -1 $-1 15.012499999999999 0 0.56899999999999995 0 1 0 I I #
coedge $-1 -1 $-1 $167 $167 $112 $168 forward $109 $-1 #
edge $-1 -1 $-1 $247 0 $247 6.2831853071795862 $167 $248 forward @7 unknown #
vertex $-1 -1 $-1 $113 $249 #
ellipse-curve $-1 -1 $-1 0 0 -0.56900000000000162 0 0 -1 13.87129 0 0 1 I I #
loop_type-twe-attrib $-1 -1 $-1 $115 $79 1 #
loop_type-twe-attrib $-1 -1 $-1 $-1 $116 0 #
edge_name-twe-attrib $-1 -1 $-1 $-1 $121 4 8704 #
vertex $-1 -1 $-1 $121 $250 #
ellipse-curve $251 -1 $-1 0 0 0.56899999999999995 0 0 1 15.012499999999999 0 0 1 I I #
convexity-sys-attrib $-1 -1 $252 $122 $88 #
point $-1 -1 $-1 15.012499999999999 0 -0.56899999999999995 #
cur-twe-attrib $-1 -1 $-1 $-1 $124 38 #
convexity-sys-attrib $-1 -1 $253 $125 $90 #
model_id-kcp-attrib $-1 -1 $-1 $-1 $126 1 1021392332 1021392332 -1479606271 13 #
point $-1 -1 $-1 0 13.87129 -0.56899999999999995 #
cur-twe-attrib $-1 -1 $-1 $-1 $127 39 #
edge_name-twe-attrib $-1 -1 $-1 $128 $63 3 8704 #
face $-1 -1 $-1 $254 $215 $20 $-1 $255 reversed single #
loop $-1 -1 $-1 $-1 $199 $132 #
plane-surface $-1 -1 $-1 15.012499999999999 0 0 -1 0 0 0 0 1 forward_v I I I I #
coedge $-1 -1 $-1 $192 $256 $257 $258 reversed $133 $-1 #
coedge $-1 -1 $-1 $259 $134 $260 $261 reversed $95 $-1 #
coedge $-1 -1 $-1 $134 $259 $138 $200 forward $95 $-1 #
coedge $-1 -1 $-1 $262 $263 $134 $191 forward $264 $-1 #
edge $-1 -1 $-1 $265 -1.5707963267948966 $204 0 $190 $205 forward @7 unknown #
coedge $-1 -1 $-1 $266 $187 $267 $193 reversed $133 $-1 #
edge $-1 -1 $-1 $197 -1.1379999999999999 $268 0 $267 $269 forward @7 unknown #
coedge $-1 -1 $-1 $195 $136 $213 $216 forward $196 $-1 #
coedge $-1 -1 $-1 $136 $194 $270 $271 forward $196 $-1 #
loop $-1 -1 $-1 $-1 $136 $272 #
vertex $-1 -1 $-1 $273 $274 #
ellipse-curve $-1 -1 $-1 -5.6284141465887087e-032 0 0.56899999999999995 0 0 -1 15.012499999999999 0 0 1 I I #
coedge $-1 -1 $-1 $275 $276 $277 $200 forward $185 $-1 #
edge $-1 -1 $-1 $209 -1.1379999999999999 $204 0 $199 $278 forward @7 unknown #
coedge $-1 -1 $-1 $202 $139 $279 $218 forward $203 $-1 #
coedge $-1 -1 $-1 $139 $201 $275 $280 forward $203 $-1 #
loop $-1 -1 $-1 $-1 $139 $281 #
vertex $-1 -1 $-1 $282 $283 #
ellipse-curve $-1 -1 $-1 -5.6284141465887087e-032 0 -0.56899999999999995 0 0 1 15.012499999999999 0 0 1 I I #
coedge $-1 -1 $-1 $207 $141 $276 $284 forward $208 $-1 #
coedge $-1 -1 $-1 $141 $206 $285 $286 forward $208 $-1 #
loop $-1 -1 $-1 $-1 $141 $287 #
vertex $-1 -1 $-1 $284 $288 #
coedge $-1 -1 $-1 $289 $290 $143 $211 forward $291 $-1 #
edge $-1 -1 $-1 $146 1.5707963267948966 $268 3.1415926535897931 $210 $205 forward @7 unknown #
coedge $-1 -1 $-1 $292 $144 $290 $293 reversed $215 $-1 #
coedge $-1 -1 $-1 $144 $292 $194 $216 reversed $215 $-1 #
coedge $-1 -1 $-1 $285 $279 $66 $100 reversed $294 $-1 #
loop $-1 -1 $-1 $-1 $144 $184 #
edge $-1 -1 $-1 $145 5.6284141465887087e-032 $295 15.012499999999999 $213 $296 forward @7 unknown #
point $-1 -1 $-1 -5.6284141465887087e-032 15.012499999999999 0.56899999999999995 #
edge $-1 -1 $-1 $146 -5.6284141465887087e-032 $297 15.012499999999999 $279 $298 forward @7 unknown #
point $-1 -1 $-1 -5.6284141465887087e-032 15.012499999999999 -0.56899999999999995 #
face $-1 -1 $-1 $-1 $163 $21 $-1 $299 reversed single #
loop $-1 -1 $-1 $-1 $236 $148 #
plane-surface $-1 -1 $-1 0 15.012499999999999 0 0 -1 0 0 0 -1 forward_v I I I I #
coedge $-1 -1 $-1 $300 $234 $237 $301 forward $149 $-1 #
coedge $-1 -1 $-1 $240 $151 $152 $228 reversed $102 $-1 #
coedge $-1 -1 $-1 $234 $300 $151 $226 reversed $149 $-1 #
edge $-1 -1 $-1 $241 -0.56899999999999995 $302 0.56899999999999995 $225 $303 forward @7 unknown #
coedge $-1 -1 $-1 $153 $152 $300 $304 forward $69 $-1 #
edge $-1 -1 $-1 $232 -15.012499999999999 $302 15.012499999999999 $224 $305 forward @7 unknown #
coedge $-1 -1 $-1 $237 $236 $153 $230 reversed $221 $-1 #
edge $-1 -1 $-1 $306 -15.012499999999999 $231 15.012499999999999 $229 $307 forward @7 unknown #
vertex $-1 -1 $-1 $155 $308 #
vertex $-1 -1 $-1 $243 $309 #
straight-curve $-1 -1 $-1 15.012499999999999 0 -0.56899999999999995 0 -1 0 I I #
coedge $-1 -1 $-1 $223 $225 $156 $235 reversed $149 $-1 #
edge $-1 -1 $-1 $238 -15.012499999999999 $241 15.012499999999999 $234 $310 forward @7 unknown #
coedge $-1 -1 $-1 $229 $157 $162 $244 forward $221 $-1 #
coedge $-1 -1 $-1 $157 $229 $223 $301 reversed $221 $-1 #
vertex $-1 -1 $-1 $158 $311 #
straight-curve $-1 -1 $-1 0 15.012499999999999 0.56899999999999995 -1 0 0 I I #
coedge $-1 -1 $-1 $159 $224 $161 $243 reversed $102 $-1 #
vertex $-1 -1 $-1 $235 $312 #
straight-curve $-1 -1 $-1 0 -15.012499999999999 0.56899999999999995 1 0 0 I I #
edge $-1 -1 $-1 $164 -0.56899999999999995 $232 0.56899999999999995 $161 $313 forward @7 unknown #
edge $-1 -1 $-1 $165 -0.56899999999999995 $231 0.56899999999999995 $162 $314 forward @7 unknown #
point $-1 -1 $-1 15.012499999999999 -15.012499999999999 0.56899999999999995 #
point $-1 -1 $-1 15.012499999999999 15.012499999999999 0.56899999999999995 #
vertex $-1 -1 $-1 $168 $315 #
ellipse-curve $-1 -1 $-1 0 0 0.56900000000000162 0 0 1 13.87129 0 0 1 I I #
point $-1 -1 $-1 13.87129 0 -0.56900000000000162 #
point $-1 -1 $-1 15.012499999999999 0 0.56899999999999995 #
cur-twe-attrib $-1 -1 $-1 $-1 $175 48 #
edge_name-twe-attrib $-1 -1 $-1 $176 $88 2 8704 #
edge_name-twe-attrib $-1 -1 $-1 $179 $90 1 8704 #
face $-1 -1 $-1 $316 $317 $20 $-1 $318 reversed single #
plane-surface $-1 -1 $-1 0 15.012499999999999 0 0 -1 0 0 0 -1 forward_v I I I I #
coedge $-1 -1 $-1 $187 $266 $188 $261 forward $133 $-1 #
coedge $-1 -1 $-1 $319 $320 $187 $258 forward $321 $-1 #
edge $-1 -1 $-1 $268 -3.1415926535897931 $265 -1.5707963267948966 $257 $205 forward @7 unknown #
coedge $-1 -1 $-1 $189 $188 $322 $323 reversed $95 $-1 #
coedge $-1 -1 $-1 $324 $325 $326 $261 forward $327 $-1 #
edge $-1 -1 $-1 $328 -1.1379999999999999 $265 0 $260 $329 forward @7 unknown #
coedge $-1 -1 $-1 $263 $190 $330 $282 forward $264 $-1 #
coedge $-1 -1 $-1 $190 $262 $324 $331 forward $264 $-1 #
loop $-1 -1 $-1 $-1 $190 $332 #
vertex $-1 -1 $-1 $333 $334 #
coedge $-1 -1 $-1 $256 $192 $335 $336 reversed $133 $-1 #
coedge $-1 -1 $-1 $337 $338 $339 $193 forward $317 $-1 #
vertex $-1 -1 $-1 $340 $341 #
straight-curve $-1 -1 $-1 -15.012499999999999 0 -0.56899999999999995 0 0 -1 I I #
coedge $-1 -1 $-1 $342 $339 $195 $271 reversed $343 $-1 #
edge $-1 -1 $-1 $295 -15.012499999999999 $197 0 $270 $344 forward @7 unknown #
face $-1 -1 $-1 $287 $196 $20 $-1 $345 forward single #
edge $-1 -1 $-1 $197 0 $346 15.012499999999999 $338 $344 forward @7 unknown #
point $-1 -1 $-1 -15.012499999999999 0 0.56899999999999995 #
coedge $-1 -1 $-1 $347 $199 $202 $280 reversed $185 $-1 #
coedge $-1 -1 $-1 $199 $347 $206 $284 reversed $185 $-1 #
coedge $-1 -1 $-1 $348 $330 $189 $200 reversed $349 $-1 #
straight-curve $-1 -1 $-1 15.012499999999999 0 -0.56899999999999995 0 0 -1 I I #
coedge $-1 -1 $-1 $214 $350 $201 $218 reversed $294 $-1 #
edge $-1 -1 $-1 $297 -15.012499999999999 $204 0 $275 $351 forward @7 unknown #
face $-1 -1 $-1 $352 $203 $20 $-1 $353 reversed single #
edge $-1 -1 $-1 $204 0 $354 15.012499999999999 $330 $351 forward @7 unknown #
point $-1 -1 $-1 15.012499999999999 0 -0.56899999999999995 #
edge $-1 -1 $-1 $209 0 $355 15.012499999999999 $276 $356 forward @7 unknown #
coedge $-1 -1 $-1 $350 $214 $207 $286 reversed $294 $-1 #
edge $-1 -1 $-1 $355 -15.012499999999999 $145 5.6284141465887087e-032 $285 $296 forward @7 unknown #
face $-1 -1 $-1 $357 $208 $20 $-1 $345 forward single #
point $-1 -1 $-1 15.012499999999999 0 0.56899999999999995 #
coedge $-1 -1 $-1 $290 $210 $358 $340 forward $291 $-1 #
coedge $-1 -1 $-1 $210 $289 $212 $293 forward $291 $-1 #
loop $-1 -1 $-1 $-1 $210 $352 #
coedge $-1 -1 $-1 $213 $212 $342 $359 reversed $215 $-1 #
edge $-1 -1 $-1 $360 -15.012499999999999 $146 -5.6284141465887087e-032 $212 $298 forward @7 unknown #
loop $-1 -1 $-1 $-1 $214 $361 #
vertex $-1 -1 $-1 $216 $362 #
straight-curve $-1 -1 $-1 0 15.012499999999999 0.56899999999999995 -1 0 0 I I #
vertex $-1 -1 $-1 $280 $363 #
straight-curve $-1 -1 $-1 0 15.012499999999999 -0.56899999999999995 1 0 0 I I #
plane-surface $-1 -1 $-1 15.012499999999999 0 0 -1 0 0 0 0 1 forward_v I I I I #
coedge $-1 -1 $-1 $225 $223 $227 $304 reversed $149 $-1 #
edge $-1 -1 $-1 $238 -0.56899999999999995 $306 0.56899999999999995 $237 $364 forward @7 unknown #
vertex $-1 -1 $-1 $304 $365 #
straight-curve $-1 -1 $-1 -15.012499999999999 -15.012499999999999 0 0 0 -1 I I #
edge $-1 -1 $-1 $302 -15.012499999999999 $306 15.012499999999999 $300 $366 forward @7 unknown #
straight-curve $-1 -1 $-1 0 -15.012499999999999 -0.56899999999999995 -1 0 0 I I #
vertex $-1 -1 $-1 $230 $367 #
straight-curve $-1 -1 $-1 0 15.012499999999999 -0.56899999999999995 1 0 0 I I #
point $-1 -1 $-1 15.012499999999999 15.012499999999999 -0.56899999999999995 #
point $-1 -1 $-1 15.012499999999999 -15.012499999999999 -0.56899999999999995 #
straight-curve $-1 -1 $-1 -15.012499999999999 0 0.56899999999999995 0 -1 0 I I #
point $-1 -1 $-1 -15.012499999999999 15.012499999999999 0.56899999999999995 #
point $-1 -1 $-1 -15.012499999999999 -15.012499999999999 0.56899999999999995 #
straight-curve $-1 -1 $-1 15.012499999999999 -15.012499999999999 0 0 0 -1 I I #
straight-curve $-1 -1 $-1 15.012499999999999 15.012499999999999 0 0 0 -1 I I #
point $-1 -1 $-1 13.87129 0 0.56900000000000162 #
face $-1 -1 $-1 $272 $368 $20 $-1 $345 forward single #
loop $-1 -1 $-1 $-1 $267 $254 #
plane-surface $-1 -1 $-1 -15.012499999999999 0 0 1 0 0 0 0 -1 forward_v I I I I #
coedge $-1 -1 $-1 $320 $257 $369 $333 forward $321 $-1 #
coedge $-1 -1 $-1 $257 $319 $337 $370 forward $321 $-1 #
loop $-1 -1 $-1 $-1 $257 $371 #
coedge $-1 -1 $-1 $372 $373 $259 $323 forward $374 $-1 #
edge $-1 -1 $-1 $209 0 $328 1.5707963267948966 $322 $198 forward @7 unknown #
coedge $-1 -1 $-1 $375 $260 $263 $331 reversed $327 $-1 #
coedge $-1 -1 $-1 $260 $375 $372 $376 reversed $327 $-1 #
coedge $-1 -1 $-1 $377 $369 $256 $261 reversed $378 $-1 #
loop $-1 -1 $-1 $-1 $260 $379 #
vertex $-1 -1 $-1 $376 $380 #
straight-curve $-1 -1 $-1 -5.6284141465887087e-032 -15.012499999999999 -0.56899999999999995 0 0 -1 I I #
coedge $-1 -1 $-1 $277 $381 $262 $282 reversed $349 $-1 #
edge $-1 -1 $-1 $354 -15.012499999999999 $265 5.6284141465887087e-032 $324 $382 forward @7 unknown #
face $-1 -1 $-1 $281 $264 $20 $-1 $353 reversed single #
edge $-1 -1 $-1 $265 5.6284141465887087e-032 $383 15.012499999999999 $369 $382 forward @7 unknown #
point $-1 -1 $-1 -5.6284141465887087e-032 -15.012499999999999 -0.56899999999999995 #
coedge $-1 -1 $-1 $384 $385 $266 $336 forward $368 $-1 #
edge $-1 -1 $-1 $328 1.5707963267948966 $197 3.1415926535897931 $335 $198 forward @7 unknown #
coedge $-1 -1 $-1 $386 $267 $320 $370 reversed $317 $-1 #
coedge $-1 -1 $-1 $267 $386 $384 $273 reversed $317 $-1 #
coedge $-1 -1 $-1 $270 $358 $135 $193 reversed $343 $-1 #
edge $-1 -1 $-1 $268 0 $360 15.012499999999999 $358 $387 forward @7 unknown #
point $-1 -1 $-1 -15.012499999999999 0 -0.56899999999999995 #
coedge $-1 -1 $-1 $358 $270 $292 $359 forward $343 $-1 #
loop $-1 -1 $-1 $-1 $339 $388 #
straight-curve $-1 -1 $-1 -15.012499999999999 0 0.56899999999999995 0 -1 0 I I #
plane-surface $-1 -1 $-1 0 0 0.56899999999999995 0 0 1 1 0 0 forward_v I I I I #
vertex $-1 -1 $-1 $273 $389 #
coedge $-1 -1 $-1 $276 $275 $350 $390 reversed $185 $-1 #
coedge $-1 -1 $-1 $381 $277 $373 $391 reversed $349 $-1 #
loop $-1 -1 $-1 $-1 $277 $392 #
coedge $-1 -1 $-1 $279 $285 $347 $390 forward $294 $-1 #
straight-curve $-1 -1 $-1 15.012499999999999 0 -0.56899999999999995 0 -1 0 I I #
face $-1 -1 $-1 $393 $291 $20 $-1 $353 reversed single #
plane-surface $-1 -1 $-1 0 0 -0.56899999999999995 0 0 1 1 0 0 forward_v I I I I #
vertex $-1 -1 $-1 $394 $395 #
vertex $-1 -1 $-1 $284 $396 #
straight-curve $-1 -1 $-1 15.012499999999999 0 0.56899999999999995 0 1 0 I I #
face $-1 -1 $-1 $379 $374 $20 $-1 $345 forward single #
coedge $-1 -1 $-1 $339 $342 $289 $340 reversed $343 $-1 #
edge $-1 -1 $-1 $295 -0.56899999999999995 $360 0.56899999999999995 $292 $397 forward @7 unknown #
vertex $-1 -1 $-1 $293 $398 #
face $-1 -1 $-1 $392 $294 $20 $-1 $255 reversed single #
point $-1 -1 $-1 -15.012499999999999 15.012499999999999 0.56899999999999995 #
point $-1 -1 $-1 15.012499999999999 15.012499999999999 -0.56899999999999995 #
straight-curve $-1 -1 $-1 -15.012499999999999 15.012499999999999 0 0 0 -1 I I #
point $-1 -1 $-1 -15.012499999999999 -15.012499999999999 -0.56899999999999995 #
straight-curve $-1 -1 $-1 -15.012499999999999 0 -0.56899999999999995 0 1 0 I I #
point $-1 -1 $-1 -15.012499999999999 15.012499999999999 -0.56899999999999995 #
loop $-1 -1 $-1 $-1 $335 $316 #
coedge $-1 -1 $-1 $326 $399 $319 $333 reversed $378 $-1 #
edge $-1 -1 $-1 $383 -15.012499999999999 $268 0 $337 $387 forward @7 unknown #
face $-1 -1 $-1 $332 $321 $20 $-1 $353 reversed single #
coedge $-1 -1 $-1 $373 $322 $325 $376 forward $374 $-1 #
coedge $-1 -1 $-1 $322 $372 $348 $391 forward $374 $-1 #
loop $-1 -1 $-1 $-1 $322 $357 #
coedge $-1 -1 $-1 $325 $324 $381 $394 reversed $327 $-1 #
edge $-1 -1 $-1 $328 -5.6284141465887087e-032 $400 15.012499999999999 $325 $401 forward @7 unknown #
coedge $-1 -1 $-1 $399 $326 $385 $402 reversed $378 $-1 #
loop $-1 -1 $-1 $-1 $326 $393 #
face $-1 -1 $-1 $371 $327 $20 $-1 $403 reversed single #
point $-1 -1 $-1 -5.6284141465887087e-032 -15.012499999999999 0.56899999999999995 #
coedge $-1 -1 $-1 $330 $348 $375 $394 forward $349 $-1 #
straight-curve $-1 -1 $-1 0 -15.012499999999999 -0.56899999999999995 -1 0 0 I I #
vertex $-1 -1 $-1 $370 $404 #
coedge $-1 -1 $-1 $385 $335 $338 $273 forward $368 $-1 #
coedge $-1 -1 $-1 $335 $384 $377 $402 forward $368 $-1 #
coedge $-1 -1 $-1 $338 $337 $399 $405 reversed $317 $-1 #
straight-curve $-1 -1 $-1 -15.012499999999999 0 -0.56899999999999995 0 1 0 I I #
face $-1 -1 $-1 $361 $343 $20 $-1 $318 reversed single #
point $-1 -1 $-1 -15.012499999999999 -15.012499999999999 0.56899999999999995 #
edge $-1 -1 $-1 $355 -0.56899999999999995 $297 0.56899999999999995 $347 $406 forward @7 unknown #
edge $-1 -1 $-1 $400 -15.012499999999999 $209 0 $348 $356 forward @7 unknown #
face $-1 -1 $-1 $-1 $349 $20 $-1 $186 reversed single #
face $-1 -1 $-1 $388 $378 $20 $-1 $403 reversed single #
edge $-1 -1 $-1 $400 -0.56899999999999995 $354 0.56899999999999995 $381 $407 forward @7 unknown #
point $-1 -1 $-1 15.012499999999999 -15.012499999999999 -0.56899999999999995 #
point $-1 -1 $-1 15.012499999999999 15.012499999999999 0.56899999999999995 #
straight-curve $-1 -1 $-1 -15.012499999999999 15.012499999999999 0 0 0 -1 I I #
point $-1 -1 $-1 -15.012499999999999 15.012499999999999 -0.56899999999999995 #
coedge $-1 -1 $-1 $369 $377 $386 $405 forward $378 $-1 #
vertex $-1 -1 $-1 $391 $408 #
straight-curve $-1 -1 $-1 0 -15.012499999999999 0.56899999999999995 1 0 0 I I #
edge $-1 -1 $-1 $346 -15.012499999999999 $328 -5.6284141465887087e-032 $377 $401 forward @7 unknown #
plane-surface $-1 -1 $-1 0 -15.012499999999999 0 0 1 0 0 0 1 forward_v I I I I #
point $-1 -1 $-1 -15.012499999999999 -15.012499999999999 -0.56899999999999995 #
edge $-1 -1 $-1 $346 -0.56899999999999995 $383 0.56899999999999995 $386 $409 forward @7 unknown #
straight-curve $-1 -1 $-1 15.012499999999999 15.012499999999999 0 0 0 -1 I I #
straight-curve $-1 -1 $-1 15.012499999999999 -15.012499999999999 0 0 0 -1 I I #
point $-1 -1 $-1 15.012499999999999 -15.012499999999999 0.56899999999999995 #
straight-curve $-1 -1 $-1 -15.012499999999999 -15.012499999999999 0 0 0 -1 I I #
End-of-ACIS-data 