600 0 1 0           
24 FBMach with ACIS - 6.0.3 13 ACIS 6.0.3 NT 24 Sat May 05 02:37:43 2001 
1 9.9999999999999995e-007 1e-010 
body $1 $2 $-1 $3 #
rgb_color-st-attrib $-1 $4 $-1 $0 1 0.5 1 #
lump $-1 $-1 $5 $0 #
transform $-1 1 0 0 0 1 0 0 0 1 0 0 0 1 no_rotate no_reflect no_shear #
model_id-kcp-attrib $-1 $-1 $1 $0 1 989044326 316953 -887554045 1 #
shell $-1 $-1 $-1 $6 $-1 $2 #
face $-1 $7 $8 $5 $-1 $9 reversed single #
face $-1 $10 $11 $5 $-1 $12 reversed single #
loop $-1 $-1 $13 $6 #
cone-surface $-1 12.898774737912493 12.256445510783832 -5 0 0 1 7.8488556722139622 3.6599815077066582 0 0.57735026918962573 I I 0 -1 8.6602540378443873 forward I I I I #
face $-1 $14 $15 $5 $-1 $16 reversed single #
loop $-1 $-1 $17 $7 #
cone-surface $-1 8.8431462644046324 1.1136978581237482 -5 0 0 1 3.6599815077066582 -7.8488556722139622 0 0.57735026918962573 I I 0 -1 8.6602540378443873 forward I I I I #
coedge $-1 $18 $19 $20 $21 forward $8 $-1 #
face $-1 $22 $23 $5 $-1 $16 reversed single #
loop $-1 $-1 $24 $10 #
plane-surface $-1 14.278552695051502 -4.6270648902994189 -5 -0.93969262078590809 0.34202014332566949 0 0 0 1 forward_v I I I I #
coedge $-1 $25 $26 $27 $28 forward $11 $-1 #
coedge $-1 $29 $13 $30 $31 reversed $8 $-1 #
coedge $-1 $13 $32 $33 $34 forward $8 $-1 #
coedge $-1 $35 $36 $13 $21 reversed $37 $-1 #
edge $-1 $38 -1.0017429021184223 $39 -0.3922685520573001 $20 $40 forward 7 unknown #
face $-1 $41 $42 $5 $-1 $43 forward single #
loop $-1 $-1 $44 $14 #
coedge $-1 $45 $46 $47 $48 forward $15 $-1 #
coedge $-1 $49 $17 $50 $51 reversed $11 $-1 #
coedge $-1 $17 $52 $53 $54 reversed $11 $-1 #
coedge $-1 $55 $56 $17 $28 reversed $57 $-1 #
edge $-1 $58 0.39226855205729305 $59 1.0017429021184248 $27 $60 forward 7 unknown #
coedge $-1 $61 $18 $45 $62 reversed $8 $-1 #
coedge $-1 $63 $64 $18 $31 forward $42 $-1 #
edge $-1 $65 -0.5235987755983087 $39 -0.085875574462816032 $30 $66 forward 7 unknown #
coedge $-1 $19 $67 $68 $69 reversed $8 $-1 #
coedge $-1 $70 $71 $19 $34 reversed $72 $-1 #
edge $-1 $73 3.5355339059327222 $38 21.393398282201858 $33 $74 forward 7 unknown #
coedge $-1 $75 $20 $71 $76 reversed $37 $-1 #
coedge $-1 $20 $77 $63 $78 reversed $37 $-1 #
loop $-1 $-1 $20 $79 #
vertex $-1 $21 $80 #
vertex $-1 $21 $81 #
ellipse-curve $-1 12.898774737912493 12.256445510783832 5.7867965644036339 0.89147069464090645 -0.32446879756990304 -0.31622776601683944 7.9409110542068788 1.1644089204834724 21.191292642245934 0.266669313837192 I I #
face $-1 $82 $83 $5 $-1 $84 forward single #
loop $-1 $-1 $85 $22 #
plane-surface $-1 0 0 25 0 0 1 1 0 0 forward_v I I I I #
coedge $-1 $86 $87 $88 $89 forward $23 $-1 #
coedge $-1 $90 $24 $29 $62 forward $15 $-1 #
coedge $-1 $24 $90 $52 $91 reversed $15 $-1 #
coedge $-1 $92 $93 $24 $48 reversed $94 $-1 #
edge $-1 $95 -9.7322330470336329 $96 9.1966991411008632 $47 $97 forward 7 unknown #
coedge $-1 $98 $25 $99 $100 reversed $11 $-1 #
coedge $-1 $101 $102 $25 $51 forward $103 $-1 #
edge $-1 $104 3.5355339059327839 $59 21.393398282201815 $50 $105 forward 7 unknown #
coedge $-1 $26 $106 $46 $91 forward $11 $-1 #
coedge $-1 $64 $85 $26 $54 forward $42 $-1 #
edge $-1 $58 0.085875574462831783 $107 0.52359877559829537 $53 $108 forward 7 unknown #
coedge $-1 $109 $27 $85 $110 reversed $57 $-1 #
coedge $-1 $27 $111 $101 $112 forward $57 $-1 #
loop $-1 $-1 $27 $113 #
vertex $-1 $28 $114 #
vertex $-1 $28 $115 #
ellipse-curve $-1 8.8431462644046324 1.1136978581237482 5.7867965644035948 0.89147069464090622 -0.32446879756990554 -0.31622776601683794 5.3346231596819829 -5.996308218321583 21.191292642246005 0.26666931383719172 I I #
coedge $-1 $116 $29 $93 $117 forward $8 $-1 #
edge $-1 $96 28.000000000000092 $65 30 $29 $118 forward 7 unknown #
coedge $-1 $119 $30 $36 $78 forward $42 $-1 #
coedge $-1 $30 $53 $90 $120 forward $42 $-1 #
vertex $-1 $31 $121 #
ellipse-curve $-1 12.898774737912493 12.256445510783832 25 0 0 1 7.8488556722139622 3.6599815077066582 0 0.57735026918962573 I I #
coedge $-1 $32 $122 $87 $123 reversed $8 $-1 #
coedge $-1 $124 $125 $32 $69 forward $126 $-1 #
edge $127 $73 -0.78539816339743951 $128 0.26179938779915773 $68 $129 forward 7 unknown #
coedge $-1 $71 $33 $125 $130 reversed $72 $-1 #
coedge $-1 $33 $70 $35 $76 forward $72 $-1 #
loop $-1 $-1 $33 $131 #
vertex $-1 $130 $132 #
straight-curve $-1 18.639537486335676 17.691851941430745 -5 0 0 1 I I #
coedge $-1 $77 $35 $133 $134 reversed $37 $-1 #
edge $-1 $135 6.2803698347351007e-016 $38 12.627416997969583 $71 $136 forward 7 unknown #
coedge $-1 $36 $75 $137 $138 forward $37 $-1 #
edge $-1 $39 -0.31644126408771911 $139 0.12128193704774654 $36 $140 forward 7 unknown #
face $-1 $131 $37 $5 $-1 $141 forward single #
point $-1 18.639537486335698 17.691851941430699 16.393398282201858 #
point $-1 20.899947025704204 15.514269451915997 24.999999999999996 #
face $-1 $142 $143 $5 $-1 $144 forward single #
loop $-1 $-1 $145 $41 #
plane-surface $-1 0.93969262078592664 -0.34202014332567821 9.0000000000000213 0.34202014332566932 0.93969262078590832 1.9428902930940239e-016 0 -2.0675806642698707e-016 1 forward_v I I I I #
coedge $-1 $53 $119 $55 $110 forward $42 $-1 #
coedge $-1 $146 $44 $98 $147 reversed $23 $-1 #
coedge $-1 $44 $146 $67 $123 forward $23 $-1 #
coedge $-1 $148 $149 $44 $89 reversed $143 $-1 #
edge $-1 $150 -19.196699141100858 $151 -0.26776695296636011 $88 $152 forward 7 unknown #
coedge $-1 $46 $45 $64 $120 reversed $15 $-1 #
edge $-1 $95 28.000000000000025 $107 30 $46 $153 forward 7 unknown #
coedge $-1 $154 $47 $106 $155 reversed $94 $-1 #
coedge $-1 $47 $156 $61 $117 reversed $94 $-1 #
loop $-1 $-1 $92 $157 #
vertex $-1 $155 $158 #
vertex $-1 $48 $159 #
straight-curve $-1 17.607172436676763 4.5182426877668398 23.000000000000014 0.34202014332566949 0.93969262078590809 4.3177542613803813e-016 I I #
coedge $-1 $160 $49 $86 $147 forward $11 $-1 #
coedge $-1 $161 $124 $49 $100 forward $126 $-1 #
edge $162 $163 -0.26179938779914663 $104 0.78539816339744939 $99 $164 forward 7 unknown #
coedge $-1 $102 $50 $56 $112 reversed $103 $-1 #
coedge $-1 $50 $101 $161 $165 reversed $103 $-1 #
loop $-1 $-1 $50 $142 #
vertex $-1 $100 $166 #
straight-curve $-1 9.7470137598682456 -6.7401561990028798 -5 0 0 1 I I #
coedge $-1 $52 $167 $92 $155 forward $11 $-1 #
vertex $-1 $54 $168 #
ellipse-curve $-1 8.8431462644046324 1.1136978581237482 25 0 0 1 3.6599815077066582 -7.8488556722139622 0 0.57735026918962573 I I #
coedge $-1 $111 $55 $169 $170 reversed $57 $-1 #
edge $-1 $171 -0.12128193704774323 $58 0.31644126408772266 $55 $172 forward 7 unknown #
coedge $-1 $56 $109 $173 $174 reversed $57 $-1 #
edge $-1 $175 6.2803698347351007e-016 $59 12.627416997969522 $56 $176 forward 7 unknown #
face $-1 $177 $57 $5 $-1 $178 forward single #
point $-1 12.878310970005154 -6.5249944782002922 25 #
point $-1 9.7470137598682474 -6.7401561990028931 16.393398282201815 #
coedge $-1 $122 $61 $179 $180 forward $8 $-1 #
edge $-1 $96 -0.26179938779915995 $181 -0.17189422791939254 $93 $182 forward 7 unknown #
straight-curve $-1 20.7526287950392 13.160313006247399 -5 0 0 1 I I #
coedge $-1 $85 $63 $183 $184 forward $42 $-1 #
edge $-1 $107 0.26776695296635927 $65 19.196699141100858 $64 $185 forward 7 unknown #
point $-1 20.7526287950392 13.160313006247399 25 #
coedge $-1 $67 $116 $148 $186 forward $8 $-1 #
edge $187 $128 0 $150 6.0000000000000755 $67 $118 forward 7 unknown #
coedge $-1 $99 $68 $146 $188 forward $126 $-1 #
coedge $-1 $68 $133 $70 $130 forward $126 $-1 #
loop $-1 $-1 $173 $189 #
convexity-sys-attrib $-1 $-1 $-1 $69 #
vertex $-1 $69 $190 #
ellipse-curve $-1 12.898774737912493 12.256445510783832 2.0710678118655297 -0.66446302438867455 0.2418447626479758 -0.70710678118654757 8.1283206753399853 2.3624220819852413 -6.8301270189221936 0.51763809020504148 I I #
edge $191 $135 -15.549238465604283 $73 -2.9218214676347216 $70 $192 forward 7 unknown #
face $-1 $157 $72 $5 $-1 $193 forward single #
point $-1 18.639537486335698 17.691851941430699 -1.4644660940672778 #
coedge $-1 $125 $194 $75 $134 forward $126 $-1 #
edge $195 $196 -0.2617993877991534 $135 0.78539816339745372 $75 $197 forward 7 unknown #
vertex $-1 $134 $198 #
straight-curve $-1 10.249085797647901 20.7457266081617 7.4644660940672738 0.66446302438867455 -0.2418447626479758 0.70710678118654757 I I #
coedge $-1 $199 $183 $77 $138 reversed $200 $-1 #
edge $-1 $196 0 $139 19.798989873223281 $77 $201 forward 7 unknown #
vertex $-1 $184 $202 #
ellipse-curve $-1 30.953280228000885 5.6851429179959956 25 0 0 1 -11.737905925457671 8.7954730612801715 0 0.40254267324099824 I I #
cone-surface $-1 11.15295329311148 12.891872551035107 3.9289321881345813 0.66446302438867455 -0.2418447626479758 0.70710678118654757 -4.7081192420832867 7.0345041258738377 6.8301270189221901 0.51763809020504159 I I 0 1 10.876638735805372 forward I I I I #
face $-1 $113 $103 $5 $-1 $203 forward single #
loop $-1 $-1 $149 $82 #
plane-surface $-1 11.276311449430899 -4.1042417199080283 -1.9999999999999596 -0.66446302438867477 0.2418447626479753 0.70710678118654757 0.7287394448186828 0 0.68479107877173595 forward_v I I I I #
coedge $-1 $204 $205 $167 $206 reversed $83 $-1 #
coedge $-1 $87 $86 $124 $188 reversed $23 $-1 #
edge $207 $163 0 $151 6.0000000000000506 $86 $153 forward 7 unknown #
coedge $-1 $208 $88 $122 $186 reversed $143 $-1 #
coedge $-1 $88 $209 $160 $210 reversed $143 $-1 #
vertex $-1 $186 $211 #
vertex $-1 $210 $212 #
straight-curve $-1 14.186971003420069 -4.8786835200922347 1.0000000000000568 -0.34202014332566949 -0.93969262078590809 -8.2429854080898186e-016 I I #
straight-curve $-1 14.278552695051502 -4.6270648902994189 -5 0 0 1 I I #
coedge $-1 $213 $92 $205 $214 reversed $94 $-1 #
edge $-1 $215 0.17189422791939724 $95 0.26179938779914619 $92 $216 forward 7 unknown #
coedge $-1 $93 $213 $217 $218 forward $94 $-1 #
face $-1 $219 $94 $5 $-1 $220 forward single #
point $-1 14.278552695051502 -4.6270648902994189 23.000000000000025 #
point $-1 20.7526287950392 13.160313006247399 23.000000000000092 #
coedge $-1 $167 $98 $149 $210 forward $11 $-1 #
coedge $-1 $173 $99 $102 $165 forward $126 $-1 #
convexity-sys-attrib $-1 $-1 $-1 $100 #
vertex $-1 $188 $221 #
ellipse-curve $-1 8.8431462644046324 1.1136978581237482 2.0710678118655146 -0.66446302438867455 0.2418447626479758 -0.70710678118654757 4.7081192420832867 -7.0345041258738377 -6.8301270189221901 0.51763809020504159 I I #
edge $222 $104 -0.2350327818575888 $175 12.39238421611191 $102 $223 forward 7 unknown #
point $-1 9.7470137598682385 -6.7401561990028789 -1.4644660940672161 #
coedge $-1 $106 $160 $145 $206 forward $11 $-1 #
point $-1 14.278552695051502 -4.6270648902994189 25 #
coedge $-1 $183 $199 $109 $170 forward $200 $-1 #
edge $-1 $224 0 $171 19.798989873223277 $169 $225 forward 7 unknown #
vertex $-1 $184 $226 #
ellipse-curve $-1 26.897651754493026 -5.4576047346641881 25 0 0 1 -14.645378713172812 0.8072572293540915 0 0.40254267324099807 I I #
coedge $-1 $194 $161 $111 $174 forward $126 $-1 #
edge $227 $175 -0.78539816339744928 $224 0.26179938779914991 $111 $228 forward 7 unknown #
vertex $-1 $174 $229 #
straight-curve $-1 1.3565620711804627 -3.6862815322719413 7.4644660940672916 0.66446302438867455 -0.2418447626479758 0.70710678118654757 I I #
face $-1 $79 $200 $5 $-1 $230 forward single #
cone-surface $-1 7.0973248196035978 1.7491248983749326 3.9289321881345547 0.66446302438867455 -0.2418447626479758 0.70710678118654757 -8.1283206753399853 -2.3624220819852413 6.8301270189221936 0.51763809020504159 I I 0 1 10.876638735805374 forward I I I I #
coedge $-1 $217 $231 $116 $180 reversed $232 $-1 #
edge $-1 $181 -27.971441743438298 $233 -5.97144174343829 $179 $234 forward 7 unknown #
vertex $-1 $180 $235 #
ellipse-curve $-1 12.898774737912493 12.256445510783832 15.92893218813451 -0.66446302438867455 0.2418447626479755 0.70710678118654757 8.1283206753399853 2.3624220819852422 6.8301270189221954 0.51763809020504126 I I #
coedge $-1 $137 $169 $119 $184 reversed $200 $-1 #
edge $-1 $139 -19.196699141100918 $171 -0.26776695296637448 $183 $236 forward 7 unknown #
straight-curve $-1 14.186971003420069 -4.8786835200922338 25 0.34202014332566949 0.93969262078590809 0 I I #
edge $-1 $233 0.17189422791939504 $150 0.26179938779915723 $148 $237 forward 7 unknown #
convexity-sys-attrib $-1 $-1 $-1 $123 #
edge $238 $128 -14.350011160902927 $163 4.5789210272315692 $124 $239 forward 7 unknown #
face $-1 $-1 $240 $5 $-1 $241 reversed single #
point $-1 20.7526287950392 13.160313006247399 -5 #
convexity-sys-attrib $-1 $-1 $-1 $130 #
straight-curve $-1 20.580979815444021 16.98522472209082 -3.5305058672482197 0.66446302438867455 -0.2418447626479758 -0.70710678118654757 I I #
plane-surface $-1 10.249085797647901 20.7457266081617 7.4644660940672738 0.34202014332566955 0.93969262078590821 0 0 0 1 forward_v I I I I #
coedge $-1 $133 $173 $199 $242 forward $126 $-1 #
convexity-sys-attrib $-1 $-1 $-1 $134 #
vertex $-1 $242 $243 #
ellipse-curve $-1 11.15295329311148 12.891872551035107 3.9289321881345813 -0.66446302438867455 0.2418447626479758 -0.70710678118654757 -4.7081192420832867 7.0345041258738377 6.8301270189221901 0.51763809020504159 I I #
point $-1 10.249085797647901 20.7457266081617 7.4644660940672747 #
coedge $-1 $169 $137 $194 $242 reversed $200 $-1 #
loop $-1 $-1 $183 $177 #
straight-curve $-1 5.7175468624646228 18.632635299458201 11.000000000000036 0.66446302438867455 -0.2418447626479758 0.70710678118654757 I I #
point $-1 18.873243553467304 13.844353292898841 25 #
plane-surface $-1 9.7470137598682385 -6.7401561990028789 -1.4644660940672161 -0.34202014332566955 -0.93969262078590821 0 0 0 -1 forward_v I I I I #
coedge $-1 $244 $145 $209 $245 reversed $83 $-1 #
coedge $-1 $145 $244 $154 $214 forward $83 $-1 #
edge $-1 $246 5.9714417434383469 $215 27.971441743438316 $145 $247 forward 7 unknown #
convexity-sys-attrib $-1 $-1 $-1 $147 #
coedge $-1 $248 $148 $231 $249 reversed $143 $-1 #
coedge $-1 $149 $248 $204 $245 forward $143 $-1 #
edge $-1 $151 -0.26179938779914524 $246 -0.17189422791939848 $149 $250 forward 7 unknown #
point $-1 20.7526287950392 13.160313006247399 1.0000000000000755 #
point $-1 14.278552695051502 -4.6270648902994189 1.0000000000000506 #
coedge $-1 $156 $154 $251 $252 reversed $94 $-1 #
edge $-1 $253 -1.1803234379013975e-015 $215 19.758602399476032 $205 $254 forward 7 unknown #
vertex $-1 $206 $255 #
ellipse-curve $-1 8.8431462644046324 1.1136978581237482 15.928932188134524 -0.66446302438867455 0.2418447626479755 0.70710678118654757 4.7081192420832876 -7.0345041258738377 6.8301270189221883 0.51763809020504181 I I #
coedge $-1 $256 $179 $156 $218 reversed $232 $-1 #
edge $-1 $257 0 $181 19.758602399476011 $156 $258 forward 7 unknown #
face $-1 $189 $232 $5 $-1 $259 forward single #
plane-surface $-1 7.7800954872993167 18.45183227239249 9.0000000000000213 0.66446302438867455 -0.2418447626479755 -0.70710678118654757 -0.72873944481868291 0 -0.68479107877173584 forward_v I I I I #
point $-1 14.2785526950515 -4.6270648902994198 -5 #
convexity-sys-attrib $-1 $-1 $-1 $165 #
straight-curve $-1 9.5908431668046568 -6.6833147516600482 -1.298272820214577 -0.66446302438867455 0.2418447626479758 0.70710678118654757 I I #
vertex $-1 $174 $260 #
straight-curve $-1 -0.7565292375230328 0.84525740291132223 11.000000000000039 0.66446302438867455 -0.2418447626479758 0.70710678118654757 I I #
point $-1 12.399167453479643 -3.9430246036480368 25 #
convexity-sys-attrib $-1 $-1 $-1 $174 #
ellipse-curve $-1 7.0973248196035978 1.7491248983749326 3.9289321881345547 -0.66446302438867455 0.2418447626479758 -0.70710678118654757 -8.1283206753399853 -2.3624220819852413 6.8301270189221936 0.51763809020504148 I I #
point $-1 1.3565620711804627 -3.6862815322719413 7.4644660940672924 #
plane-surface $-1 -0.7565292375230328 0.84525740291132223 11.000000000000039 -0.66446302438867455 0.24184476264797591 0.70710678118654757 0.72873944481868291 0 0.68479107877173584 forward_v I I I I #
coedge $-1 $179 $256 $208 $249 forward $232 $-1 #
loop $-1 $-1 $179 $219 #
vertex $-1 $180 $261 #
straight-curve $-1 20.908956195348456 13.673317764835449 -5 0 0 -1 I I #
point $-1 20.90895619534847 13.673317764835492 22.971441743438298 #
straight-curve $-1 12.307585761848205 -4.1946432334408659 25 -0.34202014332566966 -0.93969262078590809 0 I I #
ellipse-curve $-1 12.898774737912493 12.256445510783832 -6.0710678118654355 0.66446302438867477 -0.2418447626479753 -0.70710678118654757 8.1283206753399853 2.3624220819852431 6.8301270189221972 0.51763809020504115 I I #
convexity-sys-attrib $-1 $-1 $-1 $188 #
straight-curve $-1 15.844635921062165 -0.32428658984848457 -4.9999999999999778 -0.34202014332566949 -0.93969262078590809 3.9252311467094373e-017 I I #
loop $-1 $126 $262 $189 #
plane-surface $-1 9.7914550586038995 7.0779795332720603 3.2198535090989715 0.66446302438867455 -0.24184476264797591 0.70710678118654746 0.72873944481868291 0 -0.68479107877173584 forward_v I I I I #
edge $263 $224 -14.043387121298824 $196 4.8855450668357134 $199 $264 forward 7 unknown #
point $-1 5.7175468624646228 18.632635299458201 11.000000000000036 #
coedge $-1 $205 $204 $265 $266 reversed $83 $-1 #
edge $-1 $267 4.2960259820286205e-016 $246 4.2022532133720105 $209 $268 forward 7 unknown #
vertex $-1 $210 $269 #
straight-curve $-1 14.068553328835092 -5.120534650882675 -5 0 0 1 I I #
coedge $-1 $209 $208 $270 $271 reversed $143 $-1 #
edge $-1 $272 0 $233 4.2022532133719608 $231 $273 forward 7 unknown #
ellipse-curve $-1 8.8431462644046324 1.1136978581237482 -6.0710678118654302 0.66446302438867477 -0.2418447626479753 -0.70710678118654757 4.7081192420832885 -7.0345041258738377 6.8301270189221883 0.51763809020504181 I I #
coedge $-1 $265 $262 $213 $252 forward $240 $-1 #
edge $-1 $257 -15.153312019802083 $253 4.8466879801979248 $213 $274 forward 7 unknown #
vertex $-1 $252 $275 #
straight-curve $-1 0.93969262078592664 -0.34202014332567821 9.0000000000000213 0.66446302438867455 -0.2418447626479758 0.70710678118654757 I I #
point $-1 14.06855332883509 -5.1205346508826839 22.971441743438316 #
coedge $-1 $231 $217 $262 $276 reversed $232 $-1 #
vertex $-1 $276 $277 #
straight-curve $-1 7.7800954872993167 18.45183227239249 9.0000000000000213 0.66446302438867455 -0.2418447626479758 0.70710678118654757 I I #
plane-surface $-1 18.1167143159443 14.689610695810099 -1.9999999999999811 -0.34202014332567188 -0.93969262078590732 2.5257573810222311e-015 0 -2.6878548635508345e-015 -1 forward_v I I I I #
point $-1 -0.7565292375230328 0.84525740291132223 11.000000000000039 #
point $-1 20.908956195348459 13.673317764835462 0.97144174343829004 #
coedge $-1 $251 $270 $256 $276 forward $240 $-1 #
convexity-sys-attrib $-1 $-1 $-1 $242 #
straight-curve $-1 4.0465920384814549 14.041724651635684 11.000000000000032 0.34202014332566955 0.93969262078590809 -7.8504622934188746e-017 I I #
coedge $-1 $270 $251 $244 $266 forward $240 $-1 #
edge $-1 $253 -14.374617263145531 $267 1.1817319229584902 $244 $278 forward 7 unknown #
vertex $-1 $266 $279 #
straight-curve $-1 11.276311449430899 -4.1042417199080283 -1.9999999999999596 0.66446302438867455 -0.2418447626479758 0.70710678118654757 I I #
point $-1 14.068553328835094 -5.1205346508826732 0.97144174343834688 #
coedge $-1 $262 $265 $248 $271 forward $240 $-1 #
edge $-1 $267 -9.8466879801979239 $272 10.153312019802048 $248 $280 forward 7 unknown #
vertex $-1 $276 $281 #
straight-curve $-1 18.1167143159443 14.689610695810099 -1.9999999999999811 0.66446302438867455 -0.2418447626479758 0.70710678118654757 I I #
straight-curve $-1 2.5973575384280183 4.2123767869180693 9.0000000000000231 -0.34202014332566932 -0.93969262078590832 -2.2204460492503131e-016 I I #
point $-1 0.93969262078592486 -0.34202014332567821 9.0000000000000213 #
edge $-1 $272 -6.4850327818576119 $257 9.0713164042464385 $256 $282 forward 7 unknown #
point $-1 7.7800954872993167 18.45183227239249 9.0000000000000213 #
straight-curve $-1 10.491094281885255 -3.8184460434866043 -1.1643893437313921 0.66446302438867466 -0.24184476264797555 -0.70710678118654757 I I #
point $-1 11.276311449430899 -4.1042417199080301 -1.9999999999999596 #
straight-curve $-1 14.644077083701346 5.1486183142652555 -1.9999999999999651 0.3420201433256691 0.93969262078590832 3.9252311467094373e-016 I I #
point $-1 18.1167143159443 14.689610695810099 -1.9999999999999811 #
straight-curve $-1 13.807649820451491 16.257981909702792 2.5856106562685968 -0.66446302438867333 0.24184476264797916 0.70710678118654757 I I #
End-of-ACIS-data 