600 0 1 0           
99 GICL ACIS Healer - Source: /gicl/data5/repository/Parasolid/NIST/Pete_Brown/flange/flange.sat - 6 0 18 ACIS 6.0.3 Solaris 24 Sun Apr 14 00:32:15 2002 
1 9.999999999999999547e-07 1.000000000000000036e-10 
body $-1 $1 $-1 $-1 #
lump $-1 $2 $3 $0 #
lump $-1 $-1 $4 $0 #
shell $-1 $-1 $-1 $5 $-1 $1 #
shell $-1 $-1 $-1 $6 $-1 $2 #
face $-1 $7 $8 $3 $-1 $9 reversed single #
face $-1 $10 $11 $4 $-1 $12 reversed single #
face $-1 $13 $14 $3 $-1 $15 reversed single #
loop $-1 $16 $17 $5 #
cone-surface $-1 0 119.3244094488189972 -119.3244094488189972 -1 0 0 0 0 15.59999999999999964 1 I I 0 1 15.59999999999999964 forward I I I I #
face $-1 $18 $19 $4 $-1 $20 reversed single #
loop $-1 $21 $22 $6 #
cone-surface $-1 0 119.3244094488189972 -119.3244094488189972 -1 0 0 0 0 15.59999999999999964 1 I I 0 1 15.59999999999999964 forward I I I I #
face $-1 $23 $24 $3 $-1 $25 reversed single #
loop $-1 $26 $27 $7 #
plane-surface $-1 -162.4000000000000057 0 0 1 0 0 0 0 -1 forward_v I I I I #
loop $-1 $-1 $28 $5 #
coedge $-1 $17 $17 $29 $30 reversed $8 $-1 #
face $-1 $31 $32 $4 $-1 $33 reversed single #
loop $-1 $34 $35 $10 #
plane-surface $-1 -162.4000000000000057 0 0 1 0 0 0 0 -1 forward_v I I I I #
loop $-1 $-1 $36 $6 #
coedge $-1 $22 $22 $37 $38 reversed $11 $-1 #
face $-1 $39 $40 $3 $-1 $41 reversed single #
loop $-1 $42 $43 $13 #
cone-surface $-1 0 -119.3244094488189972 -119.3244094488189972 -1 0 0 0 0 15.59999999999999964 1 I I 0 1 15.59999999999999964 forward I I I I #
loop $-1 $44 $45 $7 #
coedge $-1 $27 $27 $28 $46 reversed $14 $-1 #
coedge $-1 $28 $28 $27 $46 forward $16 $-1 #
coedge $-1 $29 $29 $17 $30 forward $47 $-1 #
edge $-1 $48 0 $48 6.283185307179586232 $17 $49 forward 7 unknown #
face $-1 $50 $51 $4 $-1 $52 reversed single #
loop $-1 $53 $54 $18 #
cone-surface $-1 0 -119.3244094488189972 -119.3244094488189972 -1 0 0 0 0 15.59999999999999964 1 I I 0 1 15.59999999999999964 forward I I I I #
loop $-1 $55 $56 $10 #
coedge $-1 $35 $35 $36 $57 reversed $19 $-1 #
coedge $-1 $36 $36 $35 $57 forward $21 $-1 #
coedge $-1 $37 $37 $22 $38 forward $58 $-1 #
edge $-1 $59 0 $59 6.283185307179586232 $22 $60 forward 7 unknown #
face $-1 $61 $62 $3 $-1 $63 reversed single #
loop $-1 $64 $65 $23 #
cone-surface $-1 0 -119.3244094488189972 119.3244094488189972 -1 0 0 0 0 15.59999999999999964 1 I I 0 1 15.59999999999999964 forward I I I I #
loop $-1 $-1 $66 $13 #
coedge $-1 $43 $43 $67 $68 reversed $24 $-1 #
loop $-1 $69 $70 $7 #
coedge $-1 $45 $45 $71 $72 reversed $26 $-1 #
edge $-1 $73 0 $73 6.283185307179586232 $28 $74 forward 7 unknown #
loop $-1 $-1 $29 $75 #
vertex $-1 $30 $76 #
ellipse-curve $-1 -138 119.3244094488189972 -119.3244094488189972 -1 0 0 0 0 15.59999999999999964 1 I I #
face $-1 $77 $78 $4 $-1 $79 reversed single #
loop $-1 $80 $81 $31 #
cone-surface $-1 0 -119.3244094488189972 119.3244094488189972 -1 0 0 0 0 15.59999999999999964 1 I I 0 1 15.59999999999999964 forward I I I I #
loop $-1 $-1 $82 $18 #
coedge $-1 $54 $54 $83 $84 reversed $32 $-1 #
loop $-1 $85 $86 $10 #
coedge $-1 $56 $56 $87 $88 reversed $34 $-1 #
edge $-1 $89 0 $89 6.283185307179586232 $36 $90 forward 7 unknown #
loop $-1 $-1 $37 $91 #
vertex $-1 $38 $92 #
ellipse-curve $-1 -138 119.3244094488189972 -119.3244094488189972 -1 0 0 0 0 15.59999999999999964 1 I I #
face $-1 $93 $94 $3 $-1 $95 reversed single #
loop $-1 $96 $97 $39 #
cone-surface $-1 0 119.3244094488189972 119.3244094488189972 -1 0 0 0 0 15.59999999999999964 1 I I 0 1 15.59999999999999964 forward I I I I #
loop $-1 $-1 $98 $23 #
coedge $-1 $65 $65 $99 $100 reversed $40 $-1 #
coedge $-1 $66 $66 $70 $101 forward $42 $-1 #
coedge $-1 $67 $67 $43 $68 forward $102 $-1 #
edge $-1 $103 0 $103 6.283185307179586232 $43 $104 forward 7 unknown #
loop $-1 $105 $106 $7 #
coedge $-1 $70 $70 $66 $101 reversed $44 $-1 #
coedge $-1 $71 $71 $45 $72 forward $107 $-1 #
edge $-1 $108 0 $108 6.283185307179586232 $45 $109 forward 7 unknown #
vertex $-1 $46 $110 #
ellipse-curve $-1 -162.4000000000000057 119.3244094488189972 -119.3244094488189972 -1 0 0 0 0 15.59999999999999964 1 I I #
face $-1 $111 $112 $3 $-1 $113 forward single #
point $-1 -138 119.3244094488189972 -103.7244094488190029 #
face $-1 $114 $115 $4 $-1 $116 reversed single #
loop $-1 $117 $118 $50 #
cone-surface $-1 0 119.3244094488189972 119.3244094488189972 -1 0 0 0 0 15.59999999999999964 1 I I 0 1 15.59999999999999964 forward I I I I #
loop $-1 $-1 $119 $31 #
coedge $-1 $81 $81 $120 $121 reversed $51 $-1 #
coedge $-1 $82 $82 $86 $122 forward $53 $-1 #
coedge $-1 $83 $83 $54 $84 forward $123 $-1 #
edge $-1 $124 0 $124 6.283185307179586232 $54 $125 forward 7 unknown #
loop $-1 $126 $127 $10 #
coedge $-1 $86 $86 $82 $122 reversed $55 $-1 #
coedge $-1 $87 $87 $56 $88 forward $128 $-1 #
edge $-1 $129 0 $129 6.283185307179586232 $56 $130 forward 7 unknown #
vertex $-1 $57 $131 #
ellipse-curve $-1 -162.4000000000000057 119.3244094488189972 -119.3244094488189972 -1 0 0 0 0 15.59999999999999964 1 I I #
face $-1 $132 $133 $4 $-1 $134 forward single #
point $-1 -138 119.3244094488189972 -103.7244094488190029 #
face $-1 $135 $136 $3 $-1 $137 reversed single #
loop $-1 $138 $139 $61 #
cone-surface $-1 0 0 0 1 0 0 0 0 -87.65000000000000568 1 I I 0 1 87.65000000000000568 forward I I I I #
loop $-1 $-1 $140 $39 #
coedge $-1 $97 $97 $141 $142 reversed $62 $-1 #
coedge $-1 $98 $98 $143 $144 forward $64 $-1 #
coedge $-1 $99 $99 $65 $100 forward $145 $-1 #
edge $-1 $146 0 $146 6.283185307179586232 $65 $147 forward 7 unknown #
edge $-1 $148 0 $148 6.283185307179586232 $70 $149 forward 7 unknown #
loop $-1 $150 $67 $75 #
vertex $-1 $68 $151 #
ellipse-curve $-1 -138 -119.3244094488189972 -119.3244094488189972 -1 0 0 0 0 15.59999999999999964 1 I I #
loop $-1 $152 $143 $7 #
coedge $-1 $106 $106 $153 $154 reversed $69 $-1 #
loop $-1 $-1 $71 $155 #
vertex $-1 $72 $156 #
ellipse-curve $-1 -162.4000000000000057 0 -168.75 -1 0 0 0 0 15.59999999999999964 1 I I #
point $-1 -162.4000000000000057 119.3244094488189972 -103.7244094488190029 #
face $-1 $157 $158 $3 $-1 $159 forward single #
loop $-1 $160 $161 $75 #
plane-surface $-1 -138 0 0 1 0 0 0 0 -1 forward_v I I I I #
face $-1 $162 $163 $4 $-1 $164 reversed single #
loop $-1 $165 $166 $77 #
cone-surface $-1 0 0 0 1 0 0 0 0 -87.65000000000000568 1 I I 0 1 87.65000000000000568 forward I I I I #
loop $-1 $-1 $167 $50 #
coedge $-1 $118 $118 $168 $169 reversed $78 $-1 #
coedge $-1 $119 $119 $170 $171 forward $80 $-1 #
coedge $-1 $120 $120 $81 $121 forward $172 $-1 #
edge $-1 $173 0 $173 6.283185307179586232 $81 $174 forward 7 unknown #
edge $-1 $175 0 $175 6.283185307179586232 $86 $176 forward 7 unknown #
loop $-1 $177 $83 $91 #
vertex $-1 $84 $178 #
ellipse-curve $-1 -138 -119.3244094488189972 -119.3244094488189972 -1 0 0 0 0 15.59999999999999964 1 I I #
loop $-1 $179 $170 $10 #
coedge $-1 $127 $127 $180 $181 reversed $85 $-1 #
loop $-1 $-1 $87 $182 #
vertex $-1 $88 $183 #
ellipse-curve $-1 -162.4000000000000057 0 -168.75 -1 0 0 0 0 15.59999999999999964 1 I I #
point $-1 -162.4000000000000057 119.3244094488189972 -103.7244094488190029 #
face $-1 $184 $185 $4 $-1 $186 forward single #
loop $-1 $187 $188 $91 #
plane-surface $-1 -138 0 0 1 0 0 0 0 -1 forward_v I I I I #
face $-1 $189 $190 $3 $-1 $191 reversed single #
loop $-1 $192 $193 $93 #
torus-surface $-1 -136.9000000000000057 0 0 1 0 0 75.65000000000000568 12 0 0 -1 forward_v I I I I #
loop $-1 $-1 $194 $61 #
coedge $-1 $139 $139 $195 $196 reversed $94 $-1 #
coedge $-1 $140 $140 $197 $198 forward $96 $-1 #
coedge $-1 $141 $141 $97 $142 forward $199 $-1 #
edge $-1 $200 0 $200 6.283185307179586232 $97 $201 forward 7 unknown #
coedge $-1 $143 $143 $98 $144 reversed $105 $-1 #
edge $-1 $202 0 $202 6.283185307179586232 $143 $203 forward 7 unknown #
loop $-1 $204 $99 $75 #
vertex $-1 $100 $205 #
ellipse-curve $-1 -138 -119.3244094488189972 119.3244094488189972 -1 0 0 0 0 15.59999999999999964 1 I I #
vertex $-1 $101 $206 #
ellipse-curve $-1 -162.4000000000000057 -119.3244094488189972 -119.3244094488189972 -1 0 0 0 0 15.59999999999999964 1 I I #
loop $-1 $47 $207 $75 #
point $-1 -138 -119.3244094488189972 -103.7244094488190029 #
loop $-1 $208 $209 $7 #
coedge $-1 $153 $153 $106 $154 forward $210 $-1 #
edge $-1 $211 0 $211 6.283185307179586232 $106 $212 forward 7 unknown #
face $-1 $-1 $213 $3 $-1 $214 reversed single #
point $-1 -162.4000000000000057 0 -153.1500000000000057 #
face $-1 $215 $216 $3 $-1 $217 forward single #
loop $-1 $218 $219 $111 #
torus-surface $-1 -144 0 0 1 0 0 194 6 0 0 -1 forward_v I I I I #
loop $-1 $220 $221 $75 #
coedge $-1 $161 $161 $219 $222 forward $112 $-1 #
face $-1 $223 $224 $4 $-1 $225 reversed single #
loop $-1 $226 $227 $114 #
torus-surface $-1 -136.9000000000000057 0 0 1 0 0 75.65000000000000568 12 0 0 -1 forward_v I I I I #
loop $-1 $-1 $228 $77 #
coedge $-1 $166 $166 $229 $230 reversed $115 $-1 #
coedge $-1 $167 $167 $231 $232 forward $117 $-1 #
coedge $-1 $168 $168 $118 $169 forward $233 $-1 #
edge $-1 $234 0 $234 6.283185307179586232 $118 $235 forward 7 unknown #
coedge $-1 $170 $170 $119 $171 reversed $126 $-1 #
edge $-1 $236 0 $236 6.283185307179586232 $170 $237 forward 7 unknown #
loop $-1 $238 $120 $91 #
vertex $-1 $121 $239 #
ellipse-curve $-1 -138 -119.3244094488189972 119.3244094488189972 -1 0 0 0 0 15.59999999999999964 1 I I #
vertex $-1 $122 $240 #
ellipse-curve $-1 -162.4000000000000057 -119.3244094488189972 -119.3244094488189972 -1 0 0 0 0 15.59999999999999964 1 I I #
loop $-1 $58 $241 $91 #
point $-1 -138 -119.3244094488189972 -103.7244094488190029 #
loop $-1 $242 $243 $10 #
coedge $-1 $180 $180 $127 $181 forward $244 $-1 #
edge $-1 $245 0 $245 6.283185307179586232 $127 $246 forward 7 unknown #
face $-1 $-1 $247 $4 $-1 $248 reversed single #
point $-1 -162.4000000000000057 0 -153.1500000000000057 #
face $-1 $249 $250 $4 $-1 $251 forward single #
loop $-1 $252 $253 $132 #
torus-surface $-1 -144 0 0 1 0 0 194 6 0 0 -1 forward_v I I I I #
loop $-1 $254 $255 $91 #
coedge $-1 $188 $188 $253 $256 forward $133 $-1 #
face $-1 $257 $258 $3 $-1 $259 reversed single #
loop $-1 $260 $261 $135 #
plane-surface $-1 -124.9000000000000057 0 0 1 0 0 0 0 -1 forward_v I I I I #
loop $-1 $-1 $262 $93 #
coedge $-1 $193 $193 $194 $263 reversed $136 $-1 #
coedge $-1 $194 $194 $193 $263 forward $138 $-1 #
coedge $-1 $195 $195 $139 $196 forward $264 $-1 #
edge $-1 $265 0 $265 6.283185307179586232 $195 $266 forward 7 unknown #
coedge $-1 $197 $197 $140 $198 reversed $208 $-1 #
edge $-1 $267 0 $267 6.283185307179586232 $197 $268 forward 7 unknown #
loop $-1 $269 $141 $75 #
vertex $-1 $142 $270 #
ellipse-curve $-1 -138 119.3244094488189972 119.3244094488189972 -1 0 0 0 0 15.59999999999999964 1 I I #
vertex $-1 $144 $271 #
ellipse-curve $-1 -162.4000000000000057 -119.3244094488189972 119.3244094488189972 -1 0 0 0 0 15.59999999999999964 1 I I #
loop $-1 $102 $272 $75 #
point $-1 -138 -119.3244094488189972 134.9244094488190058 #
point $-1 -162.4000000000000057 -119.3244094488189972 -103.7244094488190029 #
coedge $-1 $207 $207 $273 $274 forward $150 $-1 #
loop $-1 $275 $197 $7 #
coedge $-1 $209 $209 $276 $277 reversed $152 $-1 #
loop $-1 $-1 $153 $278 #
vertex $-1 $154 $279 #
ellipse-curve $-1 -162.4000000000000057 -168.75 0 -1 0 0 0 0 15.59999999999999964 1 I I #
loop $-1 $107 $273 $155 #
cone-surface $-1 0 0 -168.75 -1 0 0 0 0 15.59999999999999964 1 I I 0 1 15.59999999999999964 forward I I I I #
face $-1 $280 $281 $3 $-1 $282 reversed single #
loop $-1 $283 $284 $157 #
cone-surface $-1 0 0 0 1 0 0 0 0 -200 1 I I 0 1 200 forward I I I I #
loop $-1 $-1 $285 $111 #
coedge $-1 $219 $219 $161 $222 reversed $158 $-1 #
loop $-1 $199 $286 $75 #
coedge $-1 $221 $221 $287 $288 reversed $160 $-1 #
edge $-1 $289 0 $289 6.283185307179586232 $161 $290 forward 7 unknown #
face $-1 $291 $292 $4 $-1 $293 reversed single #
loop $-1 $294 $295 $162 #
plane-surface $-1 -124.9000000000000057 0 0 1 0 0 0 0 -1 forward_v I I I I #
loop $-1 $-1 $296 $114 #
coedge $-1 $227 $227 $228 $297 reversed $163 $-1 #
coedge $-1 $228 $228 $227 $297 forward $165 $-1 #
coedge $-1 $229 $229 $166 $230 forward $298 $-1 #
edge $-1 $299 0 $299 6.283185307179586232 $229 $300 forward 7 unknown #
coedge $-1 $231 $231 $167 $232 reversed $242 $-1 #
edge $-1 $301 0 $301 6.283185307179586232 $231 $302 forward 7 unknown #
loop $-1 $303 $168 $91 #
vertex $-1 $169 $304 #
ellipse-curve $-1 -138 119.3244094488189972 119.3244094488189972 -1 0 0 0 0 15.59999999999999964 1 I I #
vertex $-1 $171 $305 #
ellipse-curve $-1 -162.4000000000000057 -119.3244094488189972 119.3244094488189972 -1 0 0 0 0 15.59999999999999964 1 I I #
loop $-1 $123 $306 $91 #
point $-1 -138 -119.3244094488189972 134.9244094488190058 #
point $-1 -162.4000000000000057 -119.3244094488189972 -103.7244094488190029 #
coedge $-1 $241 $241 $307 $308 forward $177 $-1 #
loop $-1 $309 $231 $10 #
coedge $-1 $243 $243 $310 $311 reversed $179 $-1 #
loop $-1 $-1 $180 $312 #
vertex $-1 $181 $313 #
ellipse-curve $-1 -162.4000000000000057 -168.75 0 -1 0 0 0 0 15.59999999999999964 1 I I #
loop $-1 $128 $307 $182 #
cone-surface $-1 0 0 -168.75 -1 0 0 0 0 15.59999999999999964 1 I I 0 1 15.59999999999999964 forward I I I I #
face $-1 $314 $315 $4 $-1 $316 reversed single #
loop $-1 $317 $318 $184 #
cone-surface $-1 0 0 0 1 0 0 0 0 -200 1 I I 0 1 200 forward I I I I #
loop $-1 $-1 $319 $132 #
coedge $-1 $253 $253 $188 $256 reversed $185 $-1 #
loop $-1 $233 $320 $91 #
coedge $-1 $255 $255 $321 $322 reversed $187 $-1 #
edge $-1 $323 0 $323 6.283185307179586232 $188 $324 forward 7 unknown #
face $-1 $325 $326 $3 $-1 $327 forward single #
loop $-1 $328 $329 $189 #
cone-surface $-1 0 0 0 1 0 0 0 0 -37.64999999999999858 1 I I 0 1 37.64999999999999858 forward I I I I #
loop $-1 $-1 $330 $135 #
coedge $-1 $261 $261 $329 $331 forward $190 $-1 #
coedge $-1 $262 $262 $330 $332 forward $192 $-1 #
edge $-1 $333 0 $333 6.283185307179586232 $194 $334 forward 7 unknown #
loop $-1 $335 $195 $7 #
vertex $-1 $196 $336 #
ellipse-curve $-1 -162.4000000000000057 0 0 1 0 0 0 0 -87.65000000000000568 1 I I #
vertex $-1 $198 $337 #
ellipse-curve $-1 -162.4000000000000057 119.3244094488189972 119.3244094488189972 -1 0 0 0 0 15.59999999999999964 1 I I #
loop $-1 $145 $338 $75 #
point $-1 -138 119.3244094488189972 134.9244094488190058 #
point $-1 -162.4000000000000057 -119.3244094488189972 134.9244094488190058 #
coedge $-1 $272 $272 $339 $340 forward $204 $-1 #
coedge $-1 $273 $273 $207 $274 reversed $213 $-1 #
edge $-1 $341 0 $341 6.283185307179586232 $207 $342 forward 7 unknown #
loop $-1 $264 $343 $7 #
coedge $-1 $276 $276 $209 $277 forward $344 $-1 #
edge $-1 $345 0 $345 6.283185307179586232 $209 $346 forward 7 unknown #
face $-1 $155 $347 $3 $-1 $348 reversed single #
point $-1 -162.4000000000000057 -168.75 15.59999999999999964 #
face $-1 $278 $349 $3 $-1 $350 reversed single #
loop $-1 $351 $352 $215 #
cone-surface $-1 0 168.75 0 -1 0 0 0 0 15.59999999999999964 1 I I 0 1 15.59999999999999964 forward I I I I #
loop $-1 $-1 $353 $157 #
coedge $-1 $284 $284 $285 $354 reversed $216 $-1 #
coedge $-1 $285 $285 $284 $354 forward $218 $-1 #
coedge $-1 $286 $286 $352 $355 forward $220 $-1 #
coedge $-1 $287 $287 $221 $288 forward $356 $-1 #
edge $-1 $357 0 $357 6.283185307179586232 $287 $358 forward 7 unknown #
vertex $-1 $222 $359 #
ellipse-curve $-1 -138 0 0 1 0 0 0 0 -194 1 I I #
face $-1 $360 $361 $4 $-1 $362 forward single #
loop $-1 $363 $364 $223 #
cone-surface $-1 0 0 0 1 0 0 0 0 -37.64999999999999858 1 I I 0 1 37.64999999999999858 forward I I I I #
loop $-1 $-1 $365 $162 #
coedge $-1 $295 $295 $364 $366 forward $224 $-1 #
coedge $-1 $296 $296 $365 $367 forward $226 $-1 #
edge $-1 $368 0 $368 6.283185307179586232 $228 $369 forward 7 unknown #
loop $-1 $370 $229 $10 #
vertex $-1 $230 $371 #
ellipse-curve $-1 -162.4000000000000057 0 0 1 0 0 0 0 -87.65000000000000568 1 I I #
vertex $-1 $232 $372 #
ellipse-curve $-1 -162.4000000000000057 119.3244094488189972 119.3244094488189972 -1 0 0 0 0 15.59999999999999964 1 I I #
loop $-1 $172 $373 $91 #
point $-1 -138 119.3244094488189972 134.9244094488190058 #
point $-1 -162.4000000000000057 -119.3244094488189972 134.9244094488190058 #
coedge $-1 $306 $306 $374 $375 forward $238 $-1 #
coedge $-1 $307 $307 $241 $308 reversed $247 $-1 #
edge $-1 $376 0 $376 6.283185307179586232 $241 $377 forward 7 unknown #
loop $-1 $298 $378 $10 #
coedge $-1 $310 $310 $243 $311 forward $379 $-1 #
edge $-1 $380 0 $380 6.283185307179586232 $243 $381 forward 7 unknown #
face $-1 $182 $382 $4 $-1 $383 reversed single #
point $-1 -162.4000000000000057 -168.75 15.59999999999999964 #
face $-1 $312 $384 $4 $-1 $385 reversed single #
loop $-1 $386 $387 $249 #
cone-surface $-1 0 168.75 0 -1 0 0 0 0 15.59999999999999964 1 I I 0 1 15.59999999999999964 forward I I I I #
loop $-1 $-1 $388 $184 #
coedge $-1 $318 $318 $319 $389 reversed $250 $-1 #
coedge $-1 $319 $319 $318 $389 forward $252 $-1 #
coedge $-1 $320 $320 $387 $390 forward $254 $-1 #
coedge $-1 $321 $321 $255 $322 forward $391 $-1 #
edge $-1 $392 0 $392 6.283185307179586232 $321 $393 forward 7 unknown #
vertex $-1 $256 $394 #
ellipse-curve $-1 -138 0 0 1 0 0 0 0 -194 1 I I #
face $-1 $395 $396 $3 $-1 $397 forward single #
loop $-1 $398 $399 $257 #
plane-surface $-1 0 0 0 1 0 0 0 0 -1 forward_v I I I I #
loop $-1 $-1 $400 $189 #
coedge $-1 $329 $329 $261 $331 reversed $258 $-1 #
coedge $-1 $330 $330 $262 $332 reversed $260 $-1 #
edge $-1 $401 0 $401 6.283185307179586232 $261 $402 forward 7 unknown #
edge $-1 $403 0 $403 6.283185307179586232 $262 $404 forward 7 unknown #
vertex $-1 $263 $405 #
ellipse-curve $-1 -136.9000000000000057 0 0 1 0 0 0 0 -87.65000000000000568 1 I I #
loop $-1 $-1 $406 $7 #
point $-1 -162.4000000000000057 0 -87.65000000000000568 #
point $-1 -162.4000000000000057 119.3244094488189972 134.9244094488190058 #
coedge $-1 $338 $338 $407 $408 forward $269 $-1 #
coedge $-1 $339 $339 $272 $340 reversed $347 $-1 #
edge $-1 $409 0 $409 6.283185307179586232 $272 $410 forward 7 unknown #
vertex $-1 $274 $411 #
ellipse-curve $-1 -138 0 -168.75 -1 0 0 0 0 15.59999999999999964 1 I I #
coedge $-1 $343 $343 $412 $413 reversed $275 $-1 #
loop $-1 $-1 $276 $280 #
vertex $-1 $277 $414 #
ellipse-curve $-1 -162.4000000000000057 0 168.75 -1 0 0 0 0 15.59999999999999964 1 I I #
loop $-1 $210 $339 $278 #
cone-surface $-1 0 -168.75 0 -1 0 0 0 0 15.59999999999999964 1 I I 0 1 15.59999999999999964 forward I I I I #
loop $-1 $344 $407 $280 #
cone-surface $-1 0 0 168.75 -1 0 0 0 0 15.59999999999999964 1 I I 0 1 15.59999999999999964 forward I I I I #
loop $-1 $-1 $412 $215 #
coedge $-1 $352 $352 $286 $355 reversed $281 $-1 #
coedge $-1 $353 $353 $406 $415 forward $283 $-1 #
edge $-1 $416 0 $416 6.283185307179586232 $285 $417 forward 7 unknown #
edge $-1 $418 0 $418 6.283185307179586232 $286 $419 forward 7 unknown #
loop $-1 $-1 $287 $420 #
vertex $-1 $288 $421 #
ellipse-curve $-1 -138 0 0 1 0 0 0 0 -124 1 I I #
point $-1 -138 0 -194 #
face $-1 $422 $423 $4 $-1 $424 forward single #
loop $-1 $425 $426 $291 #
plane-surface $-1 0 0 0 1 0 0 0 0 -1 forward_v I I I I #
loop $-1 $-1 $427 $223 #
coedge $-1 $364 $364 $295 $366 reversed $292 $-1 #
coedge $-1 $365 $365 $296 $367 reversed $294 $-1 #
edge $-1 $428 0 $428 6.283185307179586232 $295 $429 forward 7 unknown #
edge $-1 $430 0 $430 6.283185307179586232 $296 $431 forward 7 unknown #
vertex $-1 $297 $432 #
ellipse-curve $-1 -136.9000000000000057 0 0 1 0 0 0 0 -87.65000000000000568 1 I I #
loop $-1 $-1 $433 $10 #
point $-1 -162.4000000000000057 0 -87.65000000000000568 #
point $-1 -162.4000000000000057 119.3244094488189972 134.9244094488190058 #
coedge $-1 $373 $373 $434 $435 forward $303 $-1 #
coedge $-1 $374 $374 $306 $375 reversed $382 $-1 #
edge $-1 $436 0 $436 6.283185307179586232 $306 $437 forward 7 unknown #
vertex $-1 $308 $438 #
ellipse-curve $-1 -138 0 -168.75 -1 0 0 0 0 15.59999999999999964 1 I I #
coedge $-1 $378 $378 $439 $440 reversed $309 $-1 #
loop $-1 $-1 $310 $314 #
vertex $-1 $311 $441 #
ellipse-curve $-1 -162.4000000000000057 0 168.75 -1 0 0 0 0 15.59999999999999964 1 I I #
loop $-1 $244 $374 $312 #
cone-surface $-1 0 -168.75 0 -1 0 0 0 0 15.59999999999999964 1 I I 0 1 15.59999999999999964 forward I I I I #
loop $-1 $379 $434 $314 #
cone-surface $-1 0 0 168.75 -1 0 0 0 0 15.59999999999999964 1 I I 0 1 15.59999999999999964 forward I I I I #
loop $-1 $-1 $439 $249 #
coedge $-1 $387 $387 $320 $390 reversed $315 $-1 #
coedge $-1 $388 $388 $433 $442 forward $317 $-1 #
edge $-1 $443 0 $443 6.283185307179586232 $319 $444 forward 7 unknown #
edge $-1 $445 0 $445 6.283185307179586232 $320 $446 forward 7 unknown #
loop $-1 $-1 $321 $447 #
vertex $-1 $322 $448 #
ellipse-curve $-1 -138 0 0 1 0 0 0 0 -124 1 I I #
point $-1 -138 0 -194 #
face $-1 $449 $450 $3 $-1 $451 reversed single #
loop $-1 $452 $453 $325 #
cone-surface $-1 0 0 0 1 0 0 0 0 -62.5 1 I I 0 1 62.5 forward I I I I #
loop $-1 $-1 $454 $257 #
coedge $-1 $399 $399 $453 $455 forward $326 $-1 #
coedge $-1 $400 $400 $454 $456 forward $328 $-1 #
vertex $-1 $331 $457 #
ellipse-curve $-1 -124.9000000000000057 0 0 1 0 0 0 0 -37.64999999999999858 1 I I #
vertex $-1 $332 $458 #
ellipse-curve $-1 -124.9000000000000057 0 0 1 0 0 0 0 -75.65000000000000568 1 I I #
point $-1 -136.9000000000000057 0 -87.65000000000000568 #
coedge $-1 $406 $406 $353 $415 reversed $335 $-1 #
coedge $-1 $407 $407 $338 $408 reversed $349 $-1 #
edge $-1 $459 0 $459 6.283185307179586232 $338 $460 forward 7 unknown #
vertex $-1 $340 $461 #
ellipse-curve $-1 -138 -168.75 0 -1 0 0 0 0 15.59999999999999964 1 I I #
point $-1 -138 0 -153.1500000000000057 #
coedge $-1 $412 $412 $343 $413 forward $351 $-1 #
edge $-1 $462 0 $462 6.283185307179586232 $343 $463 forward 7 unknown #
point $-1 -162.4000000000000057 0 184.3499999999999943 #
edge $-1 $464 0 $464 6.283185307179586232 $406 $465 forward 7 unknown #
vertex $-1 $354 $466 #
ellipse-curve $-1 -144 0 0 1 0 0 0 0 -200 1 I I #
vertex $-1 $355 $467 #
ellipse-curve $-1 -138 168.75 0 -1 0 0 0 0 15.59999999999999964 1 I I #
face $-1 $75 $468 $3 $-1 $469 reversed single #
point $-1 -138 0 -124 #
face $-1 $470 $471 $4 $-1 $472 reversed single #
loop $-1 $473 $474 $360 #
cone-surface $-1 0 0 0 1 0 0 0 0 -62.5 1 I I 0 1 62.5 forward I I I I #
loop $-1 $-1 $475 $291 #
coedge $-1 $426 $426 $474 $476 forward $361 $-1 #
coedge $-1 $427 $427 $475 $477 forward $363 $-1 #
vertex $-1 $366 $478 #
ellipse-curve $-1 -124.9000000000000057 0 0 1 0 0 0 0 -37.64999999999999858 1 I I #
vertex $-1 $367 $479 #
ellipse-curve $-1 -124.9000000000000057 0 0 1 0 0 0 0 -75.65000000000000568 1 I I #
point $-1 -136.9000000000000057 0 -87.65000000000000568 #
coedge $-1 $433 $433 $388 $442 reversed $370 $-1 #
coedge $-1 $434 $434 $373 $435 reversed $384 $-1 #
edge $-1 $480 0 $480 6.283185307179586232 $373 $481 forward 7 unknown #
vertex $-1 $375 $482 #
ellipse-curve $-1 -138 -168.75 0 -1 0 0 0 0 15.59999999999999964 1 I I #
point $-1 -138 0 -153.1500000000000057 #
coedge $-1 $439 $439 $378 $440 forward $386 $-1 #
edge $-1 $483 0 $483 6.283185307179586232 $378 $484 forward 7 unknown #
point $-1 -162.4000000000000057 0 184.3499999999999943 #
edge $-1 $485 0 $485 6.283185307179586232 $433 $486 forward 7 unknown #
vertex $-1 $389 $487 #
ellipse-curve $-1 -144 0 0 1 0 0 0 0 -200 1 I I #
vertex $-1 $390 $488 #
ellipse-curve $-1 -138 168.75 0 -1 0 0 0 0 15.59999999999999964 1 I I #
face $-1 $91 $489 $4 $-1 $490 reversed single #
point $-1 -138 0 -124 #
face $-1 $491 $492 $3 $-1 $493 forward single #
loop $-1 $494 $495 $395 #
torus-surface $-1 -33.39999999999999858 0 0 1 0 0 68.5 6 0 0 -1 forward_v I I I I #
loop $-1 $-1 $496 $325 #
coedge $-1 $453 $453 $399 $455 reversed $396 $-1 #
coedge $-1 $454 $454 $400 $456 reversed $398 $-1 #
edge $-1 $497 0 $497 6.283185307179586232 $399 $498 forward 7 unknown #
edge $-1 $499 0 $499 6.283185307179586232 $400 $500 forward 7 unknown #
point $-1 -124.9000000000000057 0 -37.64999999999999858 #
point $-1 -124.9000000000000057 0 -75.65000000000000568 #
vertex $-1 $408 $501 #
ellipse-curve $-1 -138 0 168.75 -1 0 0 0 0 15.59999999999999964 1 I I #
point $-1 -138 -168.75 15.59999999999999964 #
vertex $-1 $413 $502 #
ellipse-curve $-1 -162.4000000000000057 168.75 0 -1 0 0 0 0 15.59999999999999964 1 I I #
vertex $-1 $415 $503 #
ellipse-curve $-1 -162.4000000000000057 0 0 1 0 0 0 0 -200 1 I I #
point $-1 -144 0 -200 #
point $-1 -138 168.75 15.59999999999999964 #
loop $-1 $356 $504 $420 #
torus-surface $-1 -126 0 0 1 0 0 124 12 0 0 -1 forward_v I I I I #
face $-1 $505 $506 $4 $-1 $507 forward single #
loop $-1 $508 $509 $422 #
torus-surface $-1 -33.39999999999999858 0 0 1 0 0 68.5 6 0 0 -1 forward_v I I I I #
loop $-1 $-1 $510 $360 #
coedge $-1 $474 $474 $426 $476 reversed $423 $-1 #
coedge $-1 $475 $475 $427 $477 reversed $425 $-1 #
edge $-1 $511 0 $511 6.283185307179586232 $426 $512 forward 7 unknown #
edge $-1 $513 0 $513 6.283185307179586232 $427 $514 forward 7 unknown #
point $-1 -124.9000000000000057 0 -37.64999999999999858 #
point $-1 -124.9000000000000057 0 -75.65000000000000568 #
vertex $-1 $435 $515 #
ellipse-curve $-1 -138 0 168.75 -1 0 0 0 0 15.59999999999999964 1 I I #
point $-1 -138 -168.75 15.59999999999999964 #
vertex $-1 $440 $516 #
ellipse-curve $-1 -162.4000000000000057 168.75 0 -1 0 0 0 0 15.59999999999999964 1 I I #
vertex $-1 $442 $517 #
ellipse-curve $-1 -162.4000000000000057 0 0 1 0 0 0 0 -200 1 I I #
point $-1 -144 0 -200 #
point $-1 -138 168.75 15.59999999999999964 #
loop $-1 $391 $518 $447 #
torus-surface $-1 -126 0 0 1 0 0 124 12 0 0 -1 forward_v I I I I #
face $-1 $519 $520 $3 $-1 $521 forward single #
loop $-1 $522 $523 $449 #
plane-surface $-1 -39.39999999999999858 0 0 1 0 0 0 0 -1 forward_v I I I I #
loop $-1 $-1 $524 $395 #
coedge $-1 $495 $495 $496 $525 reversed $450 $-1 #
coedge $-1 $496 $496 $495 $525 forward $452 $-1 #
vertex $-1 $455 $526 #
ellipse-curve $-1 0 0 0 1 0 0 0 0 -62.5 1 I I #
vertex $-1 $456 $527 #
ellipse-curve $-1 0 0 0 1 0 0 0 0 -37.64999999999999858 1 I I #
point $-1 -138 0 184.3499999999999943 #
point $-1 -162.4000000000000057 168.75 15.59999999999999964 #
point $-1 -162.4000000000000057 0 -200 #
coedge $-1 $504 $504 $528 $529 reversed $468 $-1 #
face $-1 $530 $531 $4 $-1 $532 forward single #
loop $-1 $533 $534 $470 #
plane-surface $-1 -39.39999999999999858 0 0 1 0 0 0 0 -1 forward_v I I I I #
loop $-1 $-1 $535 $422 #
coedge $-1 $509 $509 $510 $536 reversed $471 $-1 #
coedge $-1 $510 $510 $509 $536 forward $473 $-1 #
vertex $-1 $476 $537 #
ellipse-curve $-1 0 0 0 1 0 0 0 0 -62.5 1 I I #
vertex $-1 $477 $538 #
ellipse-curve $-1 0 0 0 1 0 0 0 0 -37.64999999999999858 1 I I #
point $-1 -138 0 184.3499999999999943 #
point $-1 -162.4000000000000057 168.75 15.59999999999999964 #
point $-1 -162.4000000000000057 0 -200 #
coedge $-1 $518 $518 $539 $540 reversed $489 $-1 #
face $-1 $541 $542 $3 $-1 $543 forward single #
loop $-1 $544 $545 $491 #
cone-surface $-1 -39.39999999999999858 0 0 -1 0 0 0 0 74.81496062992130192 1 I I 0.8660277848788190402 0.4999958758008760107 74.81496062992130192 forward I I I I #
loop $-1 $-1 $546 $449 #
coedge $-1 $523 $523 $545 $547 forward $492 $-1 #
coedge $-1 $524 $524 $546 $548 forward $494 $-1 #
edge $-1 $549 0 $549 6.283185307179586232 $496 $550 forward 7 unknown #
point $-1 0 0 -62.5 #
point $-1 0 0 -37.64999999999999858 #
coedge $-1 $528 $528 $504 $529 forward $551 $-1 #
edge $-1 $552 0 $552 6.283185307179586232 $528 $553 forward 7 unknown #
face $-1 $554 $555 $4 $-1 $556 forward single #
loop $-1 $557 $558 $505 #
cone-surface $-1 -39.39999999999999858 0 0 -1 0 0 0 0 74.81496062992130192 1 I I 0.8660277848788190402 0.4999958758008760107 74.81496062992130192 forward I I I I #
loop $-1 $-1 $559 $470 #
coedge $-1 $534 $534 $558 $560 forward $506 $-1 #
coedge $-1 $535 $535 $559 $561 forward $508 $-1 #
edge $-1 $562 0 $562 6.283185307179586232 $510 $563 forward 7 unknown #
point $-1 0 0 -62.5 #
point $-1 0 0 -37.64999999999999858 #
coedge $-1 $539 $539 $518 $540 forward $564 $-1 #
edge $-1 $565 0 $565 6.283185307179586232 $539 $566 forward 7 unknown #
face $-1 $567 $568 $3 $-1 $569 forward single #
loop $-1 $570 $571 $519 #
cone-surface $-1 0 0 0 1 0 0 0 0 -78.12992125984250436 1 I I 0 1 78.12992125984250436 forward I I I I #
loop $-1 $-1 $572 $491 #
coedge $-1 $545 $545 $523 $547 reversed $520 $-1 #
coedge $-1 $546 $546 $524 $548 reversed $522 $-1 #
edge $-1 $573 0 $573 6.283185307179586232 $523 $574 forward 7 unknown #
edge $-1 $575 0 $575 6.283185307179586232 $524 $576 forward 7 unknown #
vertex $-1 $525 $577 #
ellipse-curve $-1 -33.39999999999999858 0 0 1 0 0 0 0 -62.5 1 I I #
loop $-1 $-1 $528 $578 #
vertex $-1 $529 $579 #
ellipse-curve $-1 -126 0 0 1 0 0 0 0 -112 1 I I #
face $-1 $580 $581 $4 $-1 $582 forward single #
loop $-1 $583 $584 $530 #
cone-surface $-1 0 0 0 1 0 0 0 0 -78.12992125984250436 1 I I 0 1 78.12992125984250436 forward I I I I #
loop $-1 $-1 $585 $505 #
coedge $-1 $558 $558 $534 $560 reversed $531 $-1 #
coedge $-1 $559 $559 $535 $561 reversed $533 $-1 #
edge $-1 $586 0 $586 6.283185307179586232 $534 $587 forward 7 unknown #
edge $-1 $588 0 $588 6.283185307179586232 $535 $589 forward 7 unknown #
vertex $-1 $536 $590 #
ellipse-curve $-1 -33.39999999999999858 0 0 1 0 0 0 0 -62.5 1 I I #
loop $-1 $-1 $539 $591 #
vertex $-1 $540 $592 #
ellipse-curve $-1 -126 0 0 1 0 0 0 0 -112 1 I I #
face $-1 $593 $594 $3 $-1 $595 reversed single #
loop $-1 $596 $597 $541 #
cone-surface $-1 -73.3362204724408997 0 0 1 0 0 0 0 -78.12992125984250436 1 I I 0.8660271018716449998 0.4999970588151479989 78.12992125984250436 forward I I I I #
loop $-1 $-1 $598 $519 #
coedge $-1 $571 $571 $572 $599 reversed $542 $-1 #
coedge $-1 $572 $572 $571 $599 forward $544 $-1 #
vertex $-1 $547 $600 #
ellipse-curve $-1 -39.39999999999999858 0 0 1 0 0 0 0 -74.81496062992130192 1 I I #
vertex $-1 $548 $601 #
ellipse-curve $-1 -39.39999999999999858 0 0 1 0 0 0 0 -68.5 1 I I #
point $-1 -33.39999999999999858 0 -62.5 #
face $-1 $420 $602 $3 $-1 $603 forward single #
point $-1 -126 0 -112 #
face $-1 $604 $605 $4 $-1 $606 reversed single #
loop $-1 $607 $608 $554 #
cone-surface $-1 -73.3362204724408997 0 0 1 0 0 0 0 -78.12992125984250436 1 I I 0.8660271018716449998 0.4999970588151479989 78.12992125984250436 forward I I I I #
loop $-1 $-1 $609 $530 #
coedge $-1 $584 $584 $585 $610 reversed $555 $-1 #
coedge $-1 $585 $585 $584 $610 forward $557 $-1 #
vertex $-1 $560 $611 #
ellipse-curve $-1 -39.39999999999999858 0 0 1 0 0 0 0 -74.81496062992130192 1 I I #
vertex $-1 $561 $612 #
ellipse-curve $-1 -39.39999999999999858 0 0 1 0 0 0 0 -68.5 1 I I #
point $-1 -33.39999999999999858 0 -62.5 #
face $-1 $447 $613 $4 $-1 $614 forward single #
point $-1 -126 0 -112 #
face $-1 $615 $616 $3 $-1 $617 forward single #
loop $-1 $618 $619 $567 #
plane-surface $-1 -75.25 0 0 1 0 0 0 0 -1 forward_v I I I I #
loop $-1 $-1 $620 $541 #
coedge $-1 $597 $597 $598 $621 reversed $568 $-1 #
coedge $-1 $598 $598 $597 $621 forward $570 $-1 #
edge $-1 $622 0 $622 6.283185307179586232 $572 $623 forward 7 unknown #
point $-1 -39.39999999999999858 0 -74.81496062992130192 #
point $-1 -39.39999999999999858 0 -68.5 #
loop $-1 $551 $624 $578 #
cone-surface $-1 0 0 0 1 0 0 0 0 -112 1 I I 0 1 112 forward I I I I #
face $-1 $625 $626 $4 $-1 $627 forward single #
loop $-1 $628 $629 $580 #
plane-surface $-1 -75.25 0 0 1 0 0 0 0 -1 forward_v I I I I #
loop $-1 $-1 $630 $554 #
coedge $-1 $608 $608 $609 $631 reversed $581 $-1 #
coedge $-1 $609 $609 $608 $631 forward $583 $-1 #
edge $-1 $632 0 $632 6.283185307179586232 $585 $633 forward 7 unknown #
point $-1 -39.39999999999999858 0 -74.81496062992130192 #
point $-1 -39.39999999999999858 0 -68.5 #
loop $-1 $564 $634 $591 #
cone-surface $-1 0 0 0 1 0 0 0 0 -112 1 I I 0 1 112 forward I I I I #
face $-1 $635 $636 $3 $-1 $637 reversed single #
loop $-1 $638 $639 $593 #
cone-surface $-1 0 0 0 1 0 0 0 0 -71.5 1 I I 0 1 71.5 forward I I I I #
loop $-1 $-1 $640 $567 #
coedge $-1 $619 $619 $639 $641 forward $594 $-1 #
coedge $-1 $620 $620 $640 $642 forward $596 $-1 #
edge $-1 $643 0 $643 6.283185307179586232 $598 $644 forward 7 unknown #
vertex $-1 $599 $645 #
ellipse-curve $-1 -41.31387236338559887 0 0 1 0 0 0 0 78.12992125984250436 1 I I #
coedge $-1 $624 $624 $646 $647 reversed $602 $-1 #
face $-1 $648 $649 $4 $-1 $650 reversed single #
loop $-1 $651 $652 $604 #
cone-surface $-1 0 0 0 1 0 0 0 0 -71.5 1 I I 0 1 71.5 forward I I I I #
loop $-1 $-1 $653 $580 #
coedge $-1 $629 $629 $652 $654 forward $605 $-1 #
coedge $-1 $630 $630 $653 $655 forward $607 $-1 #
edge $-1 $656 0 $656 6.283185307179586232 $609 $657 forward 7 unknown #
vertex $-1 $610 $658 #
ellipse-curve $-1 -41.31387236338559887 0 0 1 0 0 0 0 78.12992125984250436 1 I I #
coedge $-1 $634 $634 $659 $660 reversed $613 $-1 #
face $-1 $578 $661 $3 $-1 $662 forward single #
loop $-1 $663 $664 $615 #
torus-surface $-1 -88.25 0 0 1 0 0 83.5 12 0 0 -1 forward_v I I I I #
loop $-1 $-1 $665 $593 #
coedge $-1 $639 $639 $619 $641 reversed $616 $-1 #
coedge $-1 $640 $640 $620 $642 reversed $618 $-1 #
edge $-1 $666 0 $666 6.283185307179586232 $619 $667 forward 7 unknown #
edge $-1 $668 0 $668 6.283185307179586232 $620 $669 forward 7 unknown #
vertex $-1 $621 $670 #
ellipse-curve $-1 -73.3362204724408997 0 0 1 0 0 0 0 -78.12992125984250436 1 I I #
point $-1 -41.31387236338559887 0 78.12992125984250436 #
coedge $-1 $646 $646 $624 $647 forward $661 $-1 #
edge $-1 $671 0 $671 6.283185307179586232 $646 $672 forward 7 unknown #
face $-1 $591 $673 $4 $-1 $674 forward single #
loop $-1 $675 $676 $625 #
torus-surface $-1 -88.25 0 0 1 0 0 83.5 12 0 0 -1 forward_v I I I I #
loop $-1 $-1 $677 $604 #
coedge $-1 $652 $652 $629 $654 reversed $626 $-1 #
coedge $-1 $653 $653 $630 $655 reversed $628 $-1 #
edge $-1 $678 0 $678 6.283185307179586232 $629 $679 forward 7 unknown #
edge $-1 $680 0 $680 6.283185307179586232 $630 $681 forward 7 unknown #
vertex $-1 $631 $682 #
ellipse-curve $-1 -73.3362204724408997 0 0 1 0 0 0 0 -78.12992125984250436 1 I I #
point $-1 -41.31387236338559887 0 78.12992125984250436 #
coedge $-1 $659 $659 $634 $660 forward $673 $-1 #
edge $-1 $683 0 $683 6.283185307179586232 $659 $684 forward 7 unknown #
loop $-1 $685 $646 $635 #
plane-surface $-1 -100.25 0 0 1 0 0 0 0 -1 forward_v I I I I #
loop $-1 $-1 $686 $615 #
coedge $-1 $664 $664 $665 $687 reversed $636 $-1 #
coedge $-1 $665 $665 $664 $687 forward $638 $-1 #
vertex $-1 $641 $688 #
ellipse-curve $-1 -75.25 0 0 1 0 0 0 0 -71.5 1 I I #
vertex $-1 $642 $689 #
ellipse-curve $-1 -75.25 0 0 1 0 0 0 0 -74.81513188527949865 1 I I #
point $-1 -73.3362204724408997 0 -78.12992125984250436 #
vertex $-1 $647 $690 #
ellipse-curve $-1 -100.25 0 0 1 0 0 0 0 -112 1 I I #
loop $-1 $691 $659 $648 #
plane-surface $-1 -100.25 0 0 1 0 0 0 0 -1 forward_v I I I I #
loop $-1 $-1 $692 $625 #
coedge $-1 $676 $676 $677 $693 reversed $649 $-1 #
coedge $-1 $677 $677 $676 $693 forward $651 $-1 #
vertex $-1 $654 $694 #
ellipse-curve $-1 -75.25 0 0 1 0 0 0 0 -71.5 1 I I #
vertex $-1 $655 $695 #
ellipse-curve $-1 -75.25 0 0 1 0 0 0 0 -74.81513188527949865 1 I I #
point $-1 -73.3362204724408997 0 -78.12992125984250436 #
vertex $-1 $660 $696 #
ellipse-curve $-1 -100.25 0 0 1 0 0 0 0 -112 1 I I #
loop $-1 $-1 $697 $635 #
coedge $-1 $686 $686 $697 $698 forward $663 $-1 #
edge $-1 $699 0 $699 6.283185307179586232 $665 $700 forward 7 unknown #
point $-1 -75.25 0 -71.5 #
point $-1 -75.25 0 -74.81513188527949865 #
point $-1 -100.25 0 -112 #
loop $-1 $-1 $701 $648 #
coedge $-1 $692 $692 $701 $702 forward $675 $-1 #
edge $-1 $703 0 $703 6.283185307179586232 $677 $704 forward 7 unknown #
point $-1 -75.25 0 -71.5 #
point $-1 -75.25 0 -74.81513188527949865 #
point $-1 -100.25 0 -112 #
coedge $-1 $697 $697 $686 $698 reversed $685 $-1 #
edge $-1 $705 0 $705 6.283185307179586232 $686 $706 forward 7 unknown #
vertex $-1 $687 $707 #
ellipse-curve $-1 -88.25 0 0 1 0 0 0 0 -71.5 1 I I #
coedge $-1 $701 $701 $692 $702 reversed $691 $-1 #
edge $-1 $708 0 $708 6.283185307179586232 $692 $709 forward 7 unknown #
vertex $-1 $693 $710 #
ellipse-curve $-1 -88.25 0 0 1 0 0 0 0 -71.5 1 I I #
vertex $-1 $698 $711 #
ellipse-curve $-1 -100.25 0 0 1 0 0 0 0 -83.5 1 I I #
point $-1 -88.25 0 -71.5 #
vertex $-1 $702 $712 #
ellipse-curve $-1 -100.25 0 0 1 0 0 0 0 -83.5 1 I I #
point $-1 -88.25 0 -71.5 #
point $-1 -100.25 0 -83.5 #
point $-1 -100.25 0 -83.5 #
End-of-ACIS-data 