**ABCDEFGHIJKLMNOPQRSTUVWXYZabcdefghijklmnopqrstuvwxyz**************************
**PARASOLID !"#$%&'()*+,-./:;<=>?@[\]^_`{|}~0123456789**************************
**PART1;MC=sparc;MC_MODEL=sun4c;MC_ID=chaos;OS=SunOS;OS_RELEASE=4.1.2;FRU=sdl_pa
rasolid_test_sparc;APPL=unknown;SITE=sdl-cambridge-u.k.;USER=brown;FORMAT=text;G
UISE=transmit;KEY=flange;FILE=flange.xmt_txt;DATE=13-feb-1992;
**PART2;SCH=SCH_401021_4039;USFLD_SIZE=0;
**PART3;
**END_OF_HEADER*****************************************************************
T50 : TRANSMIT FILE created by modeller version 40102115 SCH_401021_40390 12 1 2
29 2 3 0 0 0 1e3 1e-8 4 2 0 0 0 1 5 1e-8 0 0 81 1 2 220 6 1 0 0 0 0 7 70 3 0 1 0
 0 4 1 20 4 8 8 1 102 6 4 flange13 5 1 0 1 0 9 10 0 11 12 0 14 9 -117 0 13 0 14
 5 15 -16 10 -170 0 16 0 17 18 52 11 229 0 19 20 0 0 +-1.86274 0 0 1 0 0 1.9845
 .866027101871645 .499997058815148 0 0 -1 31 12 227 0 21 22 0 0 +1e-8 -1.91135 0
 0 1 0 0 0 0 -1 1.9003043498861 16 21 -90 0 23 24 25 12 31 22 226 0 26 27 12 0 -
1e-8 -1.049372358029994 0 0 -1 0 0 0 0 1 1.9845 16 26 -98 0 28 29 24 22 31 27 19
0 0 30 31 22 0 +1e-8 -3.5052 0 -4.28625 -1 0 0 0 0 1 .39624 16 30 -6 0 32 33 0 2
7 31 31 189 0 33 34 27 0 +1e-8 -4.12496 0 -4.28625 -1 0 0 0 0 1 .39624 16 33 -10
 0 35 36 30 31 31 34 188 0 36 37 31 0 +1e-8 -3.5052 -4.28625 0 -1 0 0 0 0 1 .396
24 16 36 -14 0 38 39 33 34 31 37 187 0 39 40 34 0 +1e-8 -4.12496 -4.28625 0 -1 0
 0 0 0 1 .39624 16 39 -18 0 41 42 36 37 31 40 186 0 42 43 37 0 +1e-8 -3.5052 0 4
.28625 -1 0 0 0 0 1 .39624 16 42 -22 0 44 45 39 40 31 43 185 0 45 46 40 0 +1e-8
 -4.12496 0 4.28625 -1 0 0 0 0 1 .39624 16 45 -26 0 47 48 42 43 31 46 184 0 48 4
9 43 0 +1e-8 -3.5052 4.28625 0 -1 0 0 0 0 1 .39624 16 48 -30 0 50 51 45 46 31 49
 183 0 51 52 46 0 +1e-8 -4.12496 4.28625 0 -1 0 0 0 0 1 .39624 16 51 -34 0 53 54
 48 49 31 52 182 0 54 55 49 0 +1e-8 -4.12496 0 0 1 0 0 0 0 -1 2.22631 16 54 -38
 0 56 57 51 52 31 55 181 0 57 58 52 0 +1e-8 -4.12496 0 0 1 0 0 0 0 -1 5.08 16 57
 -42 0 59 60 54 55 31 58 180 0 60 61 55 0 +1e-8 -3.6576 0 0 1 0 0 0 0 -1 5.08 16
 60 -46 0 62 63 57 58 31 61 179 0 63 64 58 0 +1e-8 -3.5052 0 0 1 0 0 0 0 -1 4.92
76 16 63 -50 0 65 66 60 61 31 64 177 0 66 67 61 0 +1e-8 -3.5052 0 0 1 0 0 0 0 -1
 3.1496 16 66 -58 0 68 69 63 64 31 67 176 0 69 70 64 0 +1e-8 -3.2004 0 0 1 0 0 0
 0 -1 2.8448 16 69 -62 0 71 72 66 67 31 70 174 0 72 73 67 0 +1e-8 -2.54635 0 0 1
 0 0 0 0 -1 2.8448 16 72 -70 0 74 75 69 70 31 73 173 0 75 76 70 0 +1e-8 -2.54635
 0 0 1 0 0 0 0 -1 2.1209 16 75 -74 0 77 78 72 73 31 76 172 0 78 79 73 0 +1e-8 -2
.24155 0 0 1 0 0 0 0 -1 1.8161 16 78 -78 0 80 25 75 76 31 79 170 0 25 81 76 0 +1
e-8 -1.91135 0 0 1 0 0 0 0 -1 1.8161 16 25 -86 0 82 21 78 79 31 81 168 0 24 83 7
9 0 +1e-8 -1.86274 0 0 1 0 0 0 0 -1 1.9845 16 24 -94 0 84 26 21 81 31 83 166 0 2
9 85 81 0 +1e-8 -1.00076 0 0 1 0 0 0 0 -1 1.9003 16 29 -102 0 86 87 26 83 31 85
 165 0 87 88 83 0 +1e-8 -1.00076 0 0 1 0 0 0 0 -1 1.7399 16 87 -106 0 89 90 29 8
5 31 88 164 0 90 91 85 0 +1e-8 -.84836 0 0 1 0 0 0 0 -1 1.5875 16 90 -110 0 92 9
3 87 88 31 91 162 0 93 94 88 0 +1e-8 0 0 0 1 0 0 0 0 -1 1.5875 16 93 -118 0 95 9
6 90 91 31 94 161 0 96 97 91 0 +1e-8 0 0 0 1 0 0 0 0 -1 .95631 16 96 -122 0 98 9
9 93 94 31 97 160 0 99 100 94 0 +1e-8 -3.17246 0 0 1 0 0 0 0 -1 .95631 16 99 -12
6 0 101 102 96 97 31 100 159 0 102 103 97 0 +1e-8 -3.17246 0 0 1 0 0 0 0 -1 1.92
151 16 102 -130 0 104 105 99 100 31 103 158 0 105 106 100 0 +1e-8 -3.47726 0 0 1
 0 0 0 0 -1 2.22631 16 105 -134 0 107 108 102 103 31 106 156 0 108 109 103 0 +1e
-8 -4.12496 3.03084 3.03084 -1 0 0 0 0 1 .39624 16 108 -142 0 110 111 105 106 31
 109 155 0 111 112 106 0 +1e-8 -3.5052 3.03084 3.03084 -1 0 0 0 0 1 .39624 16 11
1 -146 0 113 114 108 109 31 112 154 0 114 115 109 0 +1e-8 -4.12496 -3.03084 3.03
084 -1 0 0 0 0 1 .39624 16 114 -150 0 116 117 111 112 31 115 153 0 117 118 112 0
 +1e-8 -3.5052 -3.03084 3.03084 -1 0 0 0 0 1 .39624 16 117 -154 0 119 120 114 11
5 31 118 152 0 120 121 115 0 +1e-8 -4.12496 -3.03084 -3.03084 -1 0 0 0 0 1 .3962
4 16 120 -158 0 122 123 117 118 31 121 151 0 123 124 118 0 +1e-8 -3.5052 -3.0308
4 -3.03084 -1 0 0 0 0 1 .39624 16 123 -162 0 125 17 120 121 31 124 150 0 17 18 1
21 0 +1e-8 -4.12496 3.03084 -3.03084 -1 0 0 0 0 1 .39624 16 17 -166 0 126 10 123
 124 31 18 149 0 10 0 124 0 +1e-8 -3.5052 3.03084 -3.03084 -1 0 0 0 0 1 .39624 1
7 126 127 126 126 0 128 17 0 15 127 44 0 126 9 0 17 128 129 128 128 0 126 17 0 1
5 129 45 0 128 13 130 14 13 -113 0 131 9 129 5 132 -15 130 46 0 133 13 134 17 13
3 130 133 133 0 35 33 0 15 134 47 0 135 13 136 17 135 134 135 135 0 122 120 0 15
 136 48 0 137 13 138 17 137 136 137 137 0 41 39 0 15 138 49 0 139 13 140 17 139
 138 139 139 0 116 114 0 15 140 50 0 141 13 142 17 141 140 141 141 0 47 45 0 15
 142 51 0 143 13 144 17 143 142 143 143 0 110 108 0 15 144 52 0 145 13 146 17 14
5 144 145 145 0 53 51 0 15 146 53 0 56 13 147 17 56 146 56 56 0 148 54 0 15 147
 54 0 149 13 0 17 149 147 149 149 0 59 57 0 17 59 150 59 59 0 149 57 0 15 150 10
3 0 59 151 0 14 151 -21 0 152 153 154 5 155 +14 152 -17 0 156 151 157 5 158 -14
 153 -25 0 151 159 160 5 161 +15 154 102 0 162 151 150 51 155 215 0 151 161 158
 0 +0 0 0 1 0 0 5.08 0 0 -1 54 161 214 0 153 163 155 0 +-3.6576 0 0 1 0 0 4.9276
 .1524 0 0 -1 51 158 216 0 152 155 164 0 +0 4.28625 0 -1 0 0 .39624 0 0 1 51 164
 217 0 156 158 165 0 +0 0 4.28625 -1 0 0 .39624 0 0 1 14 156 -13 0 166 152 167 5
 164 -51 165 218 0 166 164 168 0 +0 -4.28625 0 -1 0 0 .39624 0 0 1 14 166 -9 0 1
69 156 170 5 165 -51 168 219 0 169 165 20 0 +0 0 -4.28625 -1 0 0 .39624 0 0 1 14
 169 -5 0 0 166 171 5 168 -52 20 228 0 172 168 11 0 +-1.00076 0 0 -1 0 0 1.9003
 .86602778487882 .499995875800876 0 0 1 14 172 -65 0 173 174 175 5 20 +14 173 -6
1 0 19 172 176 5 177 +14 174 -69 0 172 178 179 5 180 +15 175 75 0 181 172 182 17
 181 175 181 181 0 86 29 0 15 182 76 0 28 172 0 17 28 182 28 28 0 183 26 0 17 18
3 176 183 183 0 28 26 0 15 176 77 0 183 173 184 15 184 78 0 84 173 0 17 84 184 8
4 84 0 185 24 0 17 185 186 185 185 0 84 24 0 15 186 79 0 185 19 187 14 19 -57 0
 188 173 186 5 11 +15 187 80 0 23 19 0 17 23 187 23 23 0 189 21 0 17 189 190 189
 189 0 23 21 0 15 190 82 0 189 188 0 14 188 -53 0 191 19 192 5 193 -14 191 -49 0
 194 188 195 5 196 +15 192 81 0 82 188 190 50 193 207 0 188 177 196 0 +-1.91135
 0 0 1 0 0 0 0 -1 51 177 205 0 173 180 193 0 +0 0 0 1 0 0 1.9845 0 0 -1 51 196 2
08 0 191 193 197 0 +0 0 0 1 0 0 1.8161 0 0 -1 54 197 209 0 194 196 198 0 +-2.241
55 0 0 1 0 0 2.1209 .3048 0 0 -1 14 194 -45 0 199 191 200 5 197 -50 198 210 0 19
9 197 201 0 +-2.54635 0 0 1 0 0 0 0 -1 14 199 -41 0 202 194 203 5 198 +51 201 21
1 0 202 198 204 0 +0 0 0 1 0 0 2.8448 0 0 -1 14 202 -37 0 205 199 206 5 201 +54
 204 212 0 205 201 163 0 +-3.2004 0 0 1 0 0 3.1496 .3048 0 0 -1 14 205 -33 0 159
 202 207 5 204 -50 163 213 0 159 204 161 0 +-3.5052 0 0 1 0 0 0 0 -1 14 159 -29
 0 153 205 208 5 163 +15 208 91 0 65 159 209 17 65 208 65 65 0 210 63 0 15 209 9
2 0 211 159 212 17 211 209 211 211 0 68 66 0 15 212 93 0 50 159 213 17 50 212 50
 50 0 214 48 0 15 213 94 0 113 159 215 17 113 213 113 113 0 216 111 0 15 215 95
 0 44 159 217 17 44 215 44 44 0 218 42 0 15 217 96 0 119 159 219 17 119 217 119
 119 0 220 117 0 15 219 97 0 38 159 221 17 38 219 38 38 0 222 36 0 15 221 98 0 1
25 159 223 17 125 221 125 125 0 224 123 0 15 223 99 0 32 159 225 17 32 223 32 32
 0 226 30 0 15 225 100 0 16 159 0 17 16 225 16 16 0 227 10 0 17 227 14 227 227 0
 16 10 0 15 14 43 0 227 9 127 17 226 171 226 226 0 32 30 0 15 171 110 0 226 169
 228 15 228 111 0 35 169 0 17 35 228 35 35 0 133 33 0 17 224 229 224 224 0 125 1
23 0 15 229 55 0 224 131 230 14 131 -109 0 231 13 229 5 232 -15 230 56 0 122 131
 0 17 122 230 122 122 0 135 120 0 14 231 -105 0 233 131 234 5 235 -51 232 193 0
 131 132 235 0 +0 -3.03084 -3.03084 -1 0 0 .39624 0 0 1 50 132 192 0 13 15 232 0
 +-4.12496 0 0 1 0 0 0 0 -1 51 235 194 0 231 232 236 0 +0 -3.03084 3.03084 -1 0
 0 .39624 0 0 1 51 236 195 0 233 235 237 0 +0 3.03084 3.03084 -1 0 0 .39624 0 0
 1 14 233 -101 0 238 231 239 5 236 -51 237 196 0 238 236 240 0 +0 0 0 1 0 0 2.22
631 0 0 -1 14 238 -97 0 241 233 242 5 237 -54 240 197 0 241 237 243 0 +-3.47726
 0 0 1 0 0 1.92151 .3048 0 0 -1 14 241 -93 0 244 238 245 5 240 -50 243 198 0 244
 240 246 0 +-3.17246 0 0 1 0 0 0 0 -1 14 244 -89 0 247 241 248 5 243 -51 246 199
 0 247 243 249 0 +0 0 0 1 0 0 .95631 0 0 -1 14 247 -85 0 250 244 251 5 246 -50 2
49 200 0 250 246 252 0 +0 0 0 1 0 0 0 0 -1 14 250 -81 0 253 247 254 5 249 +51 25
2 201 0 253 249 255 0 +0 0 0 1 0 0 1.5875 0 0 -1 14 253 -77 0 178 250 256 5 252
 +54 255 202 0 178 252 180 0 +-.84836 0 0 1 0 0 1.7399 .1524 0 0 -1 14 178 -73 0
 174 253 257 5 255 -50 180 203 0 174 255 177 0 +-1.00076 0 0 1 0 0 0 0 -1 15 257
 222 0 258 178 259 17 258 257 258 258 0 92 90 0 15 259 72 0 89 178 0 17 89 259 8
9 89 0 260 87 0 17 260 261 260 260 0 89 87 0 15 261 74 0 260 174 0 17 92 262 92
 92 0 258 90 0 15 262 71 0 92 253 0 15 256 70 0 263 253 262 17 263 256 263 263 0
 95 93 0 17 95 254 95 95 0 263 93 0 15 254 68 0 95 250 264 15 264 69 0 265 250 0
 17 265 264 265 265 0 98 96 0 17 98 266 98 98 0 265 96 0 15 266 67 0 98 247 0 15
 251 66 0 267 247 266 17 267 251 267 267 0 101 99 0 17 101 248 101 101 0 267 99
 0 15 248 64 0 101 244 268 15 268 65 0 269 244 0 17 269 268 269 269 0 104 102 0
 17 104 270 104 104 0 269 102 0 15 270 63 0 104 241 0 15 245 221 0 271 241 270 1
7 271 245 271 271 0 107 105 0 17 107 272 107 107 0 271 105 0 15 272 62 0 107 238
 0 15 242 61 0 148 238 272 17 148 242 148 148 0 56 54 0 15 239 59 0 216 233 273
 17 216 239 216 216 0 113 111 0 15 273 60 0 110 233 0 17 110 273 110 110 0 143 1
08 0 51 15 191 0 9 0 132 0 +0 3.03084 -3.03084 -1 0 0 .39624 0 0 1 15 234 57 0 2
20 231 274 17 220 234 220 220 0 119 117 0 15 274 58 0 116 231 0 17 116 274 116 1
16 0 139 114 0 17 222 170 222 222 0 38 36 0 15 170 108 0 222 166 275 15 275 109
 0 41 166 0 17 41 275 41 41 0 137 39 0 17 218 167 218 218 0 44 42 0 15 167 106 0
 218 156 276 15 276 107 0 47 156 0 17 47 276 47 47 0 141 45 0 17 214 157 214 214
 0 50 48 0 15 157 104 0 214 152 277 15 277 105 0 53 152 0 17 53 277 53 53 0 145
 51 0 17 68 278 68 68 0 211 66 0 15 278 90 0 68 205 0 17 210 160 210 210 0 65 63
 0 15 160 225 0 210 153 279 15 279 101 0 62 153 0 17 62 279 62 62 0 162 60 0 17
 162 154 162 162 0 62 60 0 15 207 224 0 280 205 278 17 280 207 280 280 0 71 69 0
 17 71 281 71 71 0 280 69 0 15 281 89 0 71 202 0 15 206 88 0 282 202 281 17 282
 206 282 282 0 74 72 0 17 74 203 74 74 0 282 72 0 15 203 86 0 74 199 283 15 283
 87 0 284 199 0 17 284 283 284 284 0 77 75 0 17 77 285 77 77 0 284 75 0 15 285 8
5 0 77 194 0 15 200 223 0 286 194 285 17 286 200 286 286 0 80 78 0 17 80 287 80
 80 0 286 78 0 15 287 84 0 80 191 0 17 82 192 82 82 0 288 25 0 17 288 195 288 28
8 0 82 25 0 15 195 83 0 288 191 287 17 86 179 86 86 0 181 29 0 15 179 73 0 86 17
4 261 74 20 8 1 0 2 0 0 0 0 0 0 0 0 0 0 0 0 0 0 0 0 0 0 0 80 1 6 289 8017 290 0
 0 0 0 0 0 0 0 TTTTTTTTTTTT3 84 2 7 B279 13 290 SDL/TYSA_NAME1 0 
