600 0 1 0           
121 GICL Pro/E ACIS Translator - Source: f:/data5/repository/PTC/V20/prod_appl/assoc_demo/mfg_process/box_core_wp.prt.3 - 6 0 13 ACIS 6.0.3 NT 24 Thu Apr 04 13:16:07 2002 
1 9.9999999999999995e-007 1e-010 
body $-1 $1 $-1 $2 #
lump $-1 $-1 $3 $0 #
transform $-1 1 0 0 0 1 0 0 0 1 0 0 0 25.399999999999999 no_rotate no_reflect no_shear #
shell $-1 $-1 $-1 $4 $-1 $1 #
face $-1 $5 $6 $3 $-1 $7 reversed single #
face $-1 $8 $9 $3 $-1 $10 forward single #
loop $-1 $-1 $11 $4 #
plane-surface $-1 -0.053543307086603889 -5.3190703224174261 10.01 0 0 -1 1 0 0 forward_v I I I I #
face $-1 $12 $13 $3 $-1 $14 forward single #
loop $-1 $-1 $15 $5 #
plane-surface $-1 -0.56354330708660383 2.9309296775825739 10.01 0 1 0 1 0 0 forward_v I I I I #
coedge $-1 $16 $17 $18 $19 reversed $6 $-1 #
face $-1 $20 $21 $3 $-1 $22 forward single #
loop $-1 $-1 $23 $8 #
plane-surface $-1 5.9464566929133849 -5.3190703224174261 -10.01 0 0 -1 -1 0 0 forward_v I I I I #
coedge $-1 $24 $25 $26 $27 reversed $9 $-1 #
coedge $-1 $28 $11 $29 $30 forward $6 $-1 #
coedge $-1 $11 $28 $31 $32 forward $6 $-1 #
coedge $-1 $33 $34 $11 $19 forward $9 $-1 #
edge $-1 $35 -2.7755575615628914e-017 $36 6.0199999999999889 $11 $37 forward 7 unknown #
face $-1 $38 $39 $3 $-1 $40 forward single #
loop $-1 $-1 $41 $12 #
plane-surface $-1 6.4564566929133846 -3.8690703224174259 10.01 0 -1 0 -1 0 0 forward_v I I I I #
coedge $-1 $42 $43 $44 $45 forward $13 $-1 #
coedge $-1 $46 $15 $47 $48 forward $9 $-1 #
coedge $-1 $15 $49 $50 $51 forward $9 $-1 #
coedge $-1 $43 $42 $15 $27 forward $13 $-1 #
edge $-1 $52 -2.7755575615628914e-017 $53 6.019999999999988 $26 $54 forward 7 unknown #
coedge $-1 $17 $16 $55 $56 reversed $6 $-1 #
coedge $-1 $57 $58 $16 $30 reversed $59 $-1 #
edge $-1 $35 0 $60 6.7999999999999998 $16 $61 forward 7 unknown #
coedge $-1 $62 $63 $17 $32 reversed $64 $-1 #
edge $-1 $65 0 $36 6.7999999999999998 $17 $66 forward 7 unknown #
coedge $-1 $49 $18 $63 $67 forward $9 $-1 #
coedge $-1 $18 $46 $57 $68 forward $9 $-1 #
vertex $-1 $30 $69 #
vertex $-1 $32 $70 #
straight-curve $-1 -0.063543307086603829 2.9309296775825739 10.01 1 0 0 I I #
face $-1 $71 $64 $3 $-1 $72 forward single #
loop $-1 $-1 $73 $20 #
plane-surface $-1 6.4564566929133838 2.9309296775825739 10.01 1 0 0 0 -1 0 forward_v I I I I #
coedge $-1 $74 $75 $76 $77 reversed $21 $-1 #
coedge $-1 $26 $23 $78 $79 forward $13 $-1 #
coedge $-1 $23 $26 $80 $81 forward $13 $-1 #
coedge $-1 $75 $82 $23 $45 reversed $21 $-1 #
edge $-1 $83 8.8817841970012523e-016 $84 6.019999999999988 $23 $85 forward 7 unknown #
coedge $-1 $34 $24 $86 $87 reversed $9 $-1 #
coedge $-1 $78 $88 $24 $48 reversed $89 $-1 #
edge $-1 $52 0 $90 1.5707963267948981 $24 $91 forward 7 unknown #
coedge $-1 $25 $33 $73 $92 forward $9 $-1 #
coedge $-1 $93 $80 $25 $51 reversed $94 $-1 #
edge $-1 $95 0 $53 1.5707963267948877 $25 $96 forward 7 unknown #
vertex $-1 $27 $97 #
vertex $-1 $81 $98 #
straight-curve $-1 -0.063543307086604273 2.9309296775825739 -10.01 1 0 0 I I #
coedge $-1 $99 $74 $28 $56 forward $21 $-1 #
edge $-1 $65 0 $60 6.0199999999999889 $28 $100 forward 7 unknown #
coedge $-1 $101 $29 $34 $68 reversed $59 $-1 #
coedge $-1 $29 $101 $99 $102 reversed $59 $-1 #
loop $-1 $-1 $57 $103 #
vertex $-1 $56 $104 #
straight-curve $-1 -0.063543307086603856 2.9309296775825739 10.01 0 -1 0 I I #
coedge $-1 $105 $31 $74 $106 reversed $64 $-1 #
coedge $-1 $31 $105 $33 $67 reversed $64 $-1 #
loop $-1 $-1 $62 $38 #
vertex $-1 $32 $107 #
straight-curve $-1 5.9564566929133846 -3.8690703224174259 10.01 0 1 0 I I #
edge $-1 $36 0 $108 1.570796326794893 $33 $109 forward 7 unknown #
edge $-1 $110 0 $35 1.5707963267948988 $34 $111 forward 7 unknown #
point $-1 -0.063543307086603856 2.9309296775825739 10.01 #
point $-1 5.9564566929133846 2.9309296775825739 10.01 #
face $-1 $103 $94 $3 $-1 $112 forward single #
cone-surface $-1 5.9564566929133846 -3.9039299468145092 9.5099999999999998 0 1 0 0.5 0 0 1 I I 0 1 0.5 forward I I I I #
coedge $-1 $113 $114 $49 $92 reversed $39 $-1 #
coedge $-1 $55 $41 $62 $106 forward $21 $-1 #
coedge $-1 $41 $44 $115 $116 forward $21 $-1 #
coedge $-1 $114 $113 $41 $77 forward $39 $-1 #
edge $-1 $117 0 $118 19.02 $76 $119 forward 7 unknown #
coedge $-1 $120 $47 $42 $79 reversed $89 $-1 #
edge $-1 $84 3.62527989531715e-033 $52 6.7999999999999998 $42 $121 forward 7 unknown #
coedge $-1 $50 $115 $43 $81 reversed $94 $-1 #
edge $-1 $53 0 $83 6.7999999999999998 $43 $122 forward 7 unknown #
coedge $-1 $44 $123 $120 $124 forward $21 $-1 #
vertex $-1 $81 $125 #
vertex $-1 $79 $126 #
straight-curve $-1 5.9564566929133846 -3.8690703224174259 -10.01 -1 0 0 I I #
coedge $-1 $127 $128 $46 $87 forward $129 $-1 #
edge $-1 $110 0 $90 19.02 $46 $130 forward 7 unknown #
coedge $-1 $47 $120 $127 $131 forward $89 $-1 #
loop $-1 $-1 $120 $132 #
vertex $-1 $87 $133 #
ellipse-curve $-1 -0.06354330708660505 2.9309296775825739 -9.5099999999999998 0 1 0 7.4940054162198066e-016 0 -0.5 1 I I #
edge $-1 $108 0 $95 19.02 $49 $134 forward 7 unknown #
coedge $-1 $115 $50 $114 $135 forward $94 $-1 #
loop $-1 $-1 $50 $71 #
vertex $-1 $51 $136 #
ellipse-curve $-1 5.9564566929133829 2.9309296775825739 -9.5099999999999962 0 1 0 0.50000000000000089 0 -3.5527136788005009e-015 1 I I #
point $-1 -0.0635433070866043 2.9309296775825739 -10.01 #
point $-1 5.9564566929133838 2.9309296775825739 -10.01 #
coedge $-1 $123 $55 $58 $102 forward $21 $-1 #
straight-curve $-1 5.9564566929133846 -3.8690703224174259 10.01 -1 0 0 I I #
coedge $-1 $58 $57 $128 $137 forward $59 $-1 #
edge $-1 $60 0 $138 1.5707963267948957 $99 $139 forward 7 unknown #
face $-1 $140 $59 $3 $-1 $141 forward single #
point $-1 -0.063543307086603856 -3.8690703224174259 10.01 #
coedge $-1 $63 $62 $113 $142 forward $64 $-1 #
edge $-1 $117 0 $65 1.5707963267948983 $74 $143 forward 7 unknown #
point $-1 5.9564566929133846 -3.8690703224174259 10.01 #
vertex $-1 $92 $144 #
ellipse-curve $-1 5.9564566929133846 2.9309296775825739 9.509999999999998 0 1 0 0 0 0.50000000000000178 1 I I #
vertex $-1 $68 $145 #
ellipse-curve $-1 -0.063543307086604883 2.9309296775825739 9.5099999999999998 0 1 0 -0.49999999999999895 0 0 1 I I #
cone-surface $-1 5.9564566929133838 2.9651851397776836 -9.5099999999999998 0 -1 0 0.5 0 0 1 I I 0 1 0.5 forward I I I I #
coedge $-1 $76 $73 $105 $142 reversed $39 $-1 #
coedge $-1 $73 $76 $93 $135 reversed $39 $-1 #
coedge $-1 $80 $93 $75 $116 reversed $94 $-1 #
edge $-1 $83 0 $118 1.5707963267948895 $75 $146 forward 7 unknown #
vertex $-1 $77 $147 #
vertex $-1 $135 $148 #
straight-curve $-1 6.4564566929133838 -3.8690703224174259 9.5099999999999998 0 0 -1 I I #
coedge $-1 $88 $78 $82 $124 reversed $89 $-1 #
straight-curve $-1 -0.063543307086603384 -3.8690703224174259 -10.01 -1.3061447348531254e-016 1 0 I I #
straight-curve $-1 5.9564566929133838 2.9309296775825739 -10.01 0 -1 0 I I #
coedge $-1 $82 $99 $149 $150 forward $21 $-1 #
edge $-1 $151 0 $84 1.5707963267948983 $82 $152 forward 7 unknown #
point $-1 5.9564566929133838 -3.8690703224174259 -10.01 #
point $-1 -0.063543307086603412 -3.8690703224174259 -10.01 #
coedge $-1 $149 $86 $88 $131 reversed $129 $-1 #
coedge $-1 $86 $149 $101 $137 reversed $129 $-1 #
loop $-1 $-1 $149 $140 #
straight-curve $-1 -0.56354330708660383 2.9309296775825739 9.5099999999999998 0 0 -1 I I #
edge $-1 $151 0 $90 6.7999999999999998 $127 $153 forward 7 unknown #
face $-1 $-1 $89 $3 $-1 $154 forward single #
point $-1 -0.56354330708660383 2.9309296775825739 -9.5099999999999998 #
straight-curve $-1 6.4564566929133829 2.9309296775825739 9.5099999999999998 0 0 -1 I I #
edge $-1 $95 0 $118 6.7999999999999998 $114 $155 forward 7 unknown #
point $-1 6.4564566929133838 2.9309296775825739 -9.5099999999999998 #
edge $-1 $110 0 $138 6.7999999999999998 $128 $156 forward 7 unknown #
vertex $-1 $150 $157 #
ellipse-curve $-1 -0.063543307086603384 -3.8690703224174259 9.5099999999999998 0 -1 0 -4.7184478546569153e-016 0 0.5 1 I I #
face $-1 $132 $129 $3 $-1 $158 forward single #
cone-surface $-1 -0.063543307086603829 2.9645248386100391 9.5099999999999998 0 -1 0 -0.5 0 0 1 I I 0 1 0.5 forward I I I I #
edge $-1 $117 0 $108 6.7999999999999998 $113 $159 forward 7 unknown #
ellipse-curve $-1 5.9564566929133855 -3.8690703224174259 9.5099999999999998 0 -1 0 0.49999999999999911 0 0 1 I I #
point $-1 6.4564566929133838 2.9309296775825739 9.5099999999999998 #
point $-1 -0.56354330708660383 2.9309296775825739 9.5099999999999998 #
ellipse-curve $-1 5.9564566929133838 -3.8690703224174259 -9.5099999999999962 0 -1 0 0 0 -0.50000000000000355 1 I I #
point $-1 6.4564566929133846 -3.8690703224174259 9.5099999999999998 #
point $-1 6.4564566929133838 -3.8690703224174259 -9.5099999999999998 #
coedge $-1 $128 $127 $123 $150 reversed $129 $-1 #
edge $-1 $138 0 $151 19.02 $123 $160 forward 7 unknown #
vertex $-1 $124 $161 #
ellipse-curve $-1 -0.063543307086604273 -3.8690703224174259 -9.5099999999999998 0 -1 0 -0.49999999999999956 0 0 1 I I #
straight-curve $-1 -0.56354330708660383 -3.8690703224174259 -9.5099999999999998 0 1 0 I I #
cone-surface $-1 -0.063543307086603829 -3.9026654834448911 -9.5099999999999998 0 1 0 -0.5 0 0 1 I I 0 1 0.5 forward I I I I #
straight-curve $-1 6.4564566929133838 2.9309296775825739 -9.5099999999999998 0 -1 0 I I #
straight-curve $-1 -0.56354330708660383 2.9309296775825739 9.5099999999999998 0 -1 0 I I #
point $-1 -0.56354330708660383 -3.8690703224174259 9.5099999999999998 #
plane-surface $-1 -0.56354330708660383 -3.8690703224174259 10.01 -1 0 0 0 1 0 forward_v I I I I #
straight-curve $-1 6.4564566929133838 -3.8690703224174259 9.5099999999999998 0 1 0 I I #
straight-curve $-1 -0.56354330708660427 -3.8690703224174259 9.5099999999999998 0 0 -1 I I #
point $-1 -0.56354330708660383 -3.8690703224174259 -9.5099999999999998 #
End-of-ACIS-data 