600 0 2 0           
24 FBMach with ACIS - 6.0.3 13 ACIS 6.0.3 NT 24 Wed May 23 21:58:08 2001 
1 9.9999999999999995e-007 1e-010 
body $2 $3 $-1 $4 #
bdycol-kcp $-1 1 5 $5 $6 $7 $8 $9 #
model_id-kcp-attrib $-1 $-1 $-1 $0 1 990669488 80 1582301185 1 #
lump $-1 $-1 $10 $0 #
transform $-1 1 0 0 0 1 0 0 0 1 0 0 0 1 no_rotate no_reflect no_shear #
body $11 $12 $-1 $13 #
body $14 $15 $-1 $16 #
body $17 $18 $-1 $19 #
body $20 $21 $-1 $22 #
body $23 $24 $-1 $25 #
shell $-1 $-1 $-1 $26 $-1 $3 #
model_id-kcp-attrib $-1 $-1 $-1 $5 1 990669488 100 1583611906 1 #
lump $-1 $-1 $27 $5 #
transform $-1 1 0 0 0 1 0 0 0 1 0.093900000000000011 -0.016199999999999992 0 1 no_rotate no_reflect no_shear #
rgb_color-st-attrib $-1 $28 $-1 $6 1 1 0.5 #
lump $-1 $-1 $29 $6 #
transform $-1 -1 0 0 0 0 1 0 1 0 0.093899999999999997 0.31190000000000001 0 1 rotate no_reflect no_shear #
rgb_color-st-attrib $-1 $30 $-1 $7 1 1 0.5 #
lump $-1 $-1 $31 $7 #
transform $-1 1 0 0 0 0 1 0 -1 0 0.093899999999999997 -0.38119999999999998 0 1 rotate no_reflect no_shear #
rgb_color-st-attrib $-1 $32 $-1 $8 0.5 1 1 #
lump $-1 $-1 $33 $8 #
transform $-1 1 0 0 0 1 0 0 0 1 0.093900000000000011 -0.016199999999999992 0 1 no_rotate no_reflect no_shear #
rgb_color-st-attrib $-1 $34 $-1 $9 0.59999999999999998 0.90000000000000002 1 #
lump $-1 $-1 $35 $9 #
transform $-1 1 0 0 0 1 0 0 0 1 0.093900000000000011 -0.016199999999999992 0 1 no_rotate no_reflect no_shear #
face $36 $37 $38 $10 $-1 $39 reversed single #
shell $-1 $-1 $-1 $40 $-1 $12 #
model_id-kcp-attrib $-1 $-1 $14 $6 1 990669488 120 1584922627 1 #
shell $-1 $-1 $-1 $41 $-1 $15 #
model_id-kcp-attrib $-1 $-1 $17 $7 1 990669488 120 1584922628 1 #
shell $-1 $-1 $-1 $42 $-1 $18 #
model_id-kcp-attrib $-1 $-1 $20 $8 1 990669488 220 1591476229 1 #
shell $-1 $-1 $-1 $43 $-1 $21 #
model_id-kcp-attrib $-1 $-1 $23 $9 1 990669488 360 1583874054 1 #
shell $-1 $-1 $-1 $44 $-1 $24 #
model_id-kcp-attrib $-1 $45 $-1 $26 1 990669488 80 1582301185 10 #
face $46 $47 $48 $10 $-1 $49 forward single #
loop $50 $-1 $51 $26 #
plane-surface $52 0.093899999999999997 0.35880000000000001 0 0 -1 0 0 0 -1 forward_v I I I I #
face $-1 $53 $54 $27 $-1 $55 forward single #
face $-1 $56 $57 $29 $-1 $58 reversed single #
face $-1 $59 $60 $31 $-1 $61 reversed single #
face $-1 $62 $63 $33 $-1 $64 reversed single #
face $-1 $65 $66 $35 $-1 $67 reversed single #
model_id-kcp-attrib $-1 $68 $36 $26 1 990669488 80 1582301185 2 #
model_id-kcp-attrib $-1 $69 $-1 $37 1 990669488 80 1582301185 3 #
face $70 $71 $72 $10 $-1 $73 forward single #
loop $74 $75 $76 $37 #
plane-surface $77 0.093899999999999997 0.014999999999999999 0 0 -1 0 0 0 -1 forward_v I I I I #
loop_type-twe-attrib $-1 $-1 $-1 $38 0 #
coedge $-1 $51 $51 $78 $79 reversed $38 $-1 #
surf-twe-attrib $-1 $-1 $-1 $39 4 #
face $-1 $80 $81 $27 $-1 $82 reversed single #
loop $-1 $-1 $83 $40 #
plane-surface $-1 0 0 0.12475 0 0 1 1 0 0 forward_v I I I I #
face $-1 $84 $85 $29 $-1 $86 forward single #
loop $-1 $87 $88 $41 #
cone-surface $-1 0 0 0.061136669122108966 0 0 1 0.062375 0 0 1 I I -0.49999999999999906 0.86602540378443915 0.062375 forward I I I I #
face $-1 $89 $90 $31 $-1 $91 forward single #
loop $-1 $92 $93 $42 #
cone-surface $-1 0 0 0.036950000000000038 0 0 1 0.046949999999999999 0 0 1 I I -0.70710678118654713 0.70710678118654779 0.046949999999999999 forward I I I I #
face $-1 $94 $95 $33 $-1 $64 reversed single #
loop $-1 $-1 $96 $43 #
cone-surface $-1 -1.3877787807814457e-017 0.375 0 0 1 0 -0.12475 0 0 1 I I 0 1 0.12475 forward I I I I #
face $-1 $97 $98 $35 $-1 $99 forward single #
loop $-1 $100 $101 $44 #
plane-surface $-1 0 -0.375 0 0 1 0 0 0 1 forward_v I I I I #
face_name-twe-attrib $-1 $-1 $45 $26 1 #
face_name-twe-attrib $-1 $-1 $46 $37 2 #
model_id-kcp-attrib $-1 $102 $-1 $47 1 990669488 80 1582301185 11 #
face $103 $104 $105 $10 $-1 $106 forward single #
loop $107 $-1 $108 $47 #
plane-surface $109 0.093899999999999997 -0.39119999999999999 0 0 -1 0 0 0 -1 forward_v I I I I #
loop_type-twe-attrib $-1 $-1 $-1 $48 1 #
loop $110 $-1 $111 $37 #
coedge $-1 $76 $76 $112 $113 reversed $48 $-1 #
surf-twe-attrib $-1 $-1 $-1 $49 6 #
coedge $-1 $78 $78 $51 $79 forward $105 $-1 #
edge $114 $115 0 $115 6.2831853071795862 $78 $116 forward 7 unknown #
face $117 $118 $119 $27 $-1 $120 reversed single #
loop $-1 $-1 $121 $53 #
plane-surface $-1 0 0 -0.12475 0 0 1 1 0 0 forward_v I I I I #
coedge $-1 $122 $123 $124 $125 forward $54 $-1 #
face $-1 $-1 $126 $29 $-1 $127 forward single #
loop $-1 $128 $129 $56 #
cone-surface $-1 0 0 0 0 0 1 0.12475 0 0 1 I I 0 1 0.12475 forward I I I I #
loop $-1 $-1 $130 $41 #
coedge $-1 $88 $88 $131 $132 reversed $57 $-1 #
face $-1 $-1 $133 $31 $-1 $134 forward single #
loop $-1 $135 $136 $59 #
cone-surface $-1 0 0 0 0 0 1 0.093899999999999997 0 0 1 I I 0 1 0.093899999999999997 forward I I I I #
loop $-1 $-1 $137 $42 #
coedge $-1 $93 $93 $138 $139 reversed $60 $-1 #
face $-1 $140 $141 $33 $-1 $64 reversed single #
loop $-1 $-1 $142 $62 #
coedge $-1 $143 $144 $145 $146 reversed $63 $-1 #
face $-1 $147 $148 $35 $-1 $149 forward single #
loop $-1 $150 $151 $65 #
cone-surface $-1 -1.3877787807814457e-017 0.031200000000000006 0 0 -1 0 -0.12475 0 0 1 I I 0 1 0.12475 forward I I I I #
loop $-1 $-1 $152 $44 #
coedge $-1 $101 $101 $153 $154 forward $66 $-1 #
model_id-kcp-attrib $-1 $155 $70 $47 1 990669488 80 1582301185 4 #
model_id-kcp-attrib $-1 $156 $-1 $71 1 990669488 80 1582301185 5 #
face $157 $158 $159 $10 $-1 $160 forward single #
loop $161 $162 $78 $71 #
cone-surface $163 0.093899999999999997 0.26500000000000001 0 0 -1 0 -0.12475 0 0 1 I I 0.499999999999999 0.86602540378443904 0.12475 forward I I I I #
loop_type-twe-attrib $-1 $-1 $-1 $72 0 #
coedge $-1 $108 $108 $164 $165 forward $72 $-1 #
surf-twe-attrib $-1 $-1 $-1 $73 10 #
loop_type-twe-attrib $-1 $-1 $-1 $75 0 #
coedge $-1 $111 $111 $166 $167 forward $75 $-1 #
coedge $-1 $112 $112 $76 $113 forward $168 $-1 #
edge $169 $170 0 $170 6.2831853071795862 $112 $171 forward 7 unknown #
attrib_edge_convexity-kcp-attrib $-1 $172 $-1 $79 1 #
vertex $-1 $79 $173 #
ellipse-curve $174 0.093899999999999997 0.35880000000000001 0 0 -1 0 -0.070594544750013005 0 0 1 I I #
model_id-kcp-attrib $-1 $-1 $-1 $80 1 990669488 100 1583611906 3 #
face $-1 $175 $176 $27 $-1 $177 reversed single #
loop $-1 $-1 $178 $80 #
plane-surface $-1 0 -0.375 0 0 1 0 0 0 1 forward_v I I I I #
coedge $-1 $179 $180 $181 $182 forward $81 $-1 #
coedge $-1 $183 $83 $184 $185 forward $54 $-1 #
coedge $-1 $83 $183 $186 $187 forward $54 $-1 #
coedge $-1 $188 $189 $83 $125 reversed $190 $-1 #
edge $-1 $191 -0.375 $192 0.375 $124 $193 forward 7 unknown #
loop $-1 $194 $131 $84 #
plane-surface $-1 0 0 0.046899999999999997 0 0 1 1 0 0 forward_v I I I I #
loop $-1 $-1 $195 $56 #
coedge $-1 $129 $129 $130 $196 reversed $85 $-1 #
coedge $-1 $130 $130 $129 $196 forward $87 $-1 #
coedge $-1 $131 $131 $88 $132 forward $126 $-1 #
edge $-1 $197 -3.1415926535897931 $197 3.1415926535897931 $131 $198 forward 7 unknown #
loop $-1 $199 $138 $89 #
plane-surface $-1 0 0 0.010000000000000009 0 0 1 1 0 0 forward_v I I I I #
loop $-1 $-1 $200 $59 #
coedge $-1 $136 $136 $137 $201 reversed $90 $-1 #
coedge $-1 $137 $137 $136 $201 forward $92 $-1 #
coedge $-1 $138 $138 $93 $139 forward $133 $-1 #
edge $-1 $202 -3.1415926535897931 $202 3.1415926535897931 $138 $203 forward 7 unknown #
face $-1 $204 $205 $33 $-1 $64 reversed single #
loop $-1 $-1 $206 $94 #
coedge $-1 $207 $208 $209 $210 reversed $95 $-1 #
coedge $-1 $211 $96 $212 $213 forward $63 $-1 #
coedge $-1 $96 $211 $214 $215 reversed $63 $-1 #
coedge $-1 $216 $217 $96 $146 forward $218 $-1 #
edge $-1 $219 0 $220 1.5707963267948966 $145 $221 forward 7 unknown #
face $-1 $-1 $222 $35 $-1 $223 forward single #
loop $-1 $224 $225 $97 #
cone-surface $-1 -1.3877787807814457e-017 0.031200000000000006 0 0 -1 0 0 0 -0.093899999999999997 1 I I 0 -1 0.093899999999999997 forward I I I I #
loop $-1 $-1 $226 $65 #
coedge $-1 $151 $151 $227 $228 reversed $98 $-1 #
coedge $-1 $152 $152 $226 $229 forward $100 $-1 #
coedge $-1 $153 $153 $101 $154 reversed $224 $-1 #
edge $-1 $230 -1.5707963267948966 $230 4.7123889803846897 $153 $231 forward 7 unknown #
face_name-twe-attrib $-1 $-1 $102 $47 3 #
face_name-twe-attrib $-1 $-1 $103 $71 4 #
model_id-kcp-attrib $-1 $232 $-1 $104 1 990669488 80 1582301185 6 #
face $233 $234 $168 $10 $-1 $235 reversed single #
loop $236 $237 $238 $104 #
cone-surface $239 0.093899999999999997 0.39629999999999999 0 0 -1 0 -0.12475 0 0 1 I I 0 1 0.12475 forward I I I I #
loop_type-twe-attrib $-1 $-1 $-1 $105 0 #
loop $240 $-1 $241 $71 #
surf-twe-attrib $-1 $-1 $-1 $106 17 #
coedge $-1 $164 $164 $108 $165 reversed $242 $-1 #
edge $243 $244 -3.1415926535897931 $244 3.1415926535897931 $164 $245 forward 7 unknown #
coedge $-1 $166 $166 $111 $167 reversed $237 $-1 #
edge $246 $247 -3.1415926535897931 $247 3.1415926535897931 $166 $248 forward 7 unknown #
loop $249 $250 $112 $158 #
edge_name-twe-attrib $-1 $-1 $-1 $113 4 20480 #
vertex $-1 $113 $251 #
ellipse-curve $252 0.093899999999999997 0.014999999999999999 0 0 -1 0 -0.093899999999999997 0 0 1 I I #
convexity-sys-attrib $-1 $253 $114 $79 #
point $-1 0.023305455249986999 0.35880000000000001 0 #
cur-twe-attrib $-1 $-1 $-1 $116 25 #
face $254 $255 $256 $27 $-1 $257 reversed single #
loop $-1 $-1 $258 $118 #
plane-surface $-1 -0.12475 0 0 1 0 0 0 0 -1 forward_v I I I I #
coedge $-1 $259 $186 $260 $261 forward $119 $-1 #
coedge $-1 $262 $121 $259 $263 forward $81 $-1 #
coedge $-1 $121 $262 $264 $265 forward $81 $-1 #
coedge $-1 $189 $188 $121 $182 reversed $190 $-1 #
edge $-1 $266 -0.375 $267 0.375 $181 $268 forward 7 unknown #
coedge $-1 $123 $122 $269 $270 forward $54 $-1 #
coedge $-1 $271 $272 $122 $185 reversed $256 $-1 #
edge $-1 $192 -0.12475 $273 0.12475 $184 $274 forward 7 unknown #
coedge $-1 $178 $275 $123 $187 reversed $119 $-1 #
edge $-1 $276 -0.12475 $191 0.12475 $186 $277 forward 7 unknown #
coedge $-1 $181 $124 $275 $278 forward $190 $-1 #
coedge $-1 $124 $181 $271 $279 reversed $190 $-1 #
loop $-1 $-1 $188 $255 #
vertex $-1 $125 $280 #
vertex $-1 $125 $281 #
straight-curve $-1 0.12475 0 0.12475 0 1 0 I I #
loop $-1 $-1 $282 $84 #
coedge $-1 $195 $195 $282 $283 reversed $128 $-1 #
edge $-1 $284 0 $284 6.2831853071795862 $129 $285 forward 7 unknown #
vertex $-1 $132 $286 #
ellipse-curve $-1 0 0 0.046899999999999997 0 0 -1 0.070594544750013227 0 0 1 I I #
loop $-1 $-1 $287 $89 #
coedge $-1 $200 $200 $287 $288 reversed $135 $-1 #
edge $-1 $289 0 $289 6.2831853071795862 $136 $290 forward 7 unknown #
vertex $-1 $139 $291 #
ellipse-curve $-1 0 0 0.010000000000000009 0 0 -1 0.073899999999999993 0 0 1 I I #
face $-1 $292 $293 $33 $-1 $294 forward single #
loop $-1 $-1 $295 $140 #
coedge $-1 $296 $297 $295 $298 forward $141 $-1 #
coedge $-1 $299 $142 $300 $301 reversed $95 $-1 #
coedge $-1 $142 $299 $144 $215 forward $95 $-1 #
coedge $-1 $302 $303 $142 $210 forward $304 $-1 #
edge $-1 $305 -3.1415926535897931 $306 -1.5707963267948966 $209 $307 forward 7 unknown #
coedge $-1 $144 $143 $308 $309 reversed $63 $-1 #
coedge $-1 $297 $296 $310 $213 reversed $141 $-1 #
edge $-1 $219 -0.75 $311 0 $310 $312 forward 7 unknown #
coedge $-1 $313 $314 $315 $215 forward $316 $-1 #
edge $-1 $220 -0.75 $306 0 $214 $317 forward 7 unknown #
coedge $-1 $217 $145 $314 $318 reversed $218 $-1 #
coedge $-1 $145 $216 $319 $320 forward $218 $-1 #
loop $-1 $-1 $145 $321 #
vertex $-1 $322 $323 #
vertex $-1 $324 $325 #
ellipse-curve $-1 -1.3877787807814457e-017 -0.375 0 0 1 0 -0.12475 0 0 1 I I #
loop $-1 $326 $327 $147 #
plane-surface $-1 0.0028045454545454389 0.031200000000000006 -7.7886761606083994e-019 0 1 0 0 0 1 forward_v I I I I #
loop $-1 $-1 $153 $97 #
coedge $-1 $225 $225 $327 $328 forward $148 $-1 #
coedge $-1 $226 $226 $152 $229 reversed $150 $-1 #
coedge $-1 $227 $227 $151 $228 forward $326 $-1 #
edge $329 $330 -3.1415926535897931 $330 3.1415926535897931 $151 $331 forward 7 unknown #
edge $-1 $332 -1.5707963267948966 $332 4.7123889803846897 $226 $333 forward 7 unknown #
vertex $-1 $154 $334 #
ellipse-curve $-1 -1.3877787807814457e-017 -0.375 0 0 1 0 0 0 -0.093899999999999997 1 I I #
face_name-twe-attrib $-1 $-1 $157 $104 5 #
model_id-kcp-attrib $-1 $335 $-1 $158 1 990669488 80 1582301185 7 #
face $336 $337 $338 $10 $-1 $339 forward single #
torus-surface $340 0.093899999999999997 0 0 0 -1 0 0.093899999999999997 0.014999999999999999 0 0 -1 forward_v I I I I #
loop_type-twe-attrib $-1 $-1 $-1 $159 0 #
loop $341 $-1 $166 $104 #
coedge $-1 $238 $238 $241 $342 forward $159 $-1 #
surf-twe-attrib $-1 $-1 $-1 $160 27 #
loop_type-twe-attrib $-1 $-1 $-1 $162 1 #
coedge $-1 $241 $241 $238 $342 reversed $162 $-1 #
loop $343 $-1 $164 $337 #
attrib_edge_convexity-kcp-attrib $-1 $344 $-1 $165 1 #
vertex $-1 $165 $345 #
ellipse-curve $346 0.093899999999999997 -0.39119999999999999 0 0 -1 0 -0.073899999999999993 0 0 1 I I #
edge_name-twe-attrib $-1 $-1 $-1 $167 3 8704 #
vertex $-1 $167 $347 #
ellipse-curve $348 0.093899999999999997 0.014999999999999999 0 0 -1 0 -0.12475 0 0 1 I I #
loop_type-twe-attrib $-1 $-1 $-1 $168 0 #
loop $349 $-1 $350 $158 #
point $-1 1.38777878078145e-017 0.014999999999999999 0 #
cur-twe-attrib $-1 $-1 $-1 $171 36 #
edge_name-twe-attrib $-1 $-1 $172 $79 1 8448 #
model_id-kcp-attrib $-1 $-1 $-1 $175 1 990669488 100 1583611906 2 #
face $-1 $-1 $190 $27 $-1 $351 reversed single #
loop $-1 $-1 $271 $175 #
plane-surface $-1 0 0.375 0 0 -1 0 0 0 -1 forward_v I I I I #
coedge $-1 $352 $269 $272 $353 forward $176 $-1 #
coedge $-1 $275 $178 $179 $263 reversed $119 $-1 #
coedge $-1 $269 $352 $178 $261 reversed $176 $-1 #
edge $-1 $276 -0.12475 $354 0.12475 $260 $355 forward 7 unknown #
coedge $-1 $180 $179 $352 $356 forward $81 $-1 #
edge $-1 $267 -0.12475 $354 0.12475 $259 $357 forward 7 unknown #
coedge $-1 $272 $271 $180 $265 reversed $256 $-1 #
edge $-1 $358 -0.12475 $266 0.12475 $264 $359 forward 7 unknown #
vertex $-1 $182 $360 #
vertex $-1 $278 $361 #
straight-curve $-1 0.12475 0 -0.12475 0 -1 0 I I #
coedge $-1 $258 $260 $183 $270 reversed $176 $-1 #
edge $-1 $273 -0.375 $276 0.375 $269 $362 forward 7 unknown #
coedge $-1 $264 $184 $189 $279 forward $256 $-1 #
coedge $-1 $184 $264 $258 $353 reversed $256 $-1 #
vertex $-1 $185 $363 #
straight-curve $-1 0 0.375 0.12475 -1 0 0 I I #
coedge $-1 $186 $259 $188 $278 reversed $119 $-1 #
vertex $-1 $270 $364 #
straight-curve $-1 0 -0.375 0.12475 1 0 0 I I #
edge $-1 $191 -0.12475 $267 0.12475 $188 $365 forward 7 unknown #
edge $-1 $192 -0.12475 $266 0.12475 $189 $366 forward 7 unknown #
point $-1 0.12475 -0.375 0.12475 #
point $-1 0.12475 0.375 0.12475 #
coedge $-1 $282 $282 $195 $283 forward $194 $-1 #
edge $-1 $367 0 $367 6.2831853071795862 $282 $368 forward 7 unknown #
vertex $-1 $196 $369 #
ellipse-curve $-1 0 0 -0.046899999999999997 0 0 -1 0.12475 0 0 1 I I #
point $-1 -0.070594544750013227 8.6450528046064339e-018 0.046899999999999997 #
coedge $-1 $287 $287 $200 $288 forward $199 $-1 #
edge $-1 $370 0 $370 6.2831853071795862 $287 $371 forward 7 unknown #
vertex $-1 $201 $372 #
ellipse-curve $-1 0 0 -0.010000000000000009 0 0 -1 0.093899999999999997 0 0 1 I I #
point $-1 -0.073899999999999993 9.0498409547473665e-018 0.010000000000000009 #
face $-1 $373 $374 $33 $-1 $375 reversed single #
loop $-1 $-1 $315 $204 #
plane-surface $-1 0 0 0.12475 0 0 1 1 0 0 forward_v I I I I #
coedge $-1 $376 $377 $378 $298 reversed $205 $-1 #
coedge $-1 $212 $206 $379 $380 reversed $141 $-1 #
coedge $-1 $206 $212 $381 $382 reversed $141 $-1 #
edge $-1 $383 -0.75 $384 0 $378 $385 forward 7 unknown #
coedge $-1 $208 $207 $386 $387 reversed $95 $-1 #
coedge $-1 $388 $389 $390 $301 forward $391 $-1 #
edge $-1 $392 -0.75 $305 0 $300 $393 forward 7 unknown #
coedge $-1 $303 $209 $394 $395 reversed $304 $-1 #
coedge $-1 $209 $302 $388 $396 forward $304 $-1 #
loop $-1 $-1 $209 $397 #
vertex $-1 $398 $399 #
vertex $-1 $400 $401 #
ellipse-curve $-1 -1.3877787807814457e-017 0.375 0 0 -1 0 -0.12475 0 0 1 I I #
coedge $-1 $402 $403 $211 $309 forward $404 $-1 #
edge $-1 $306 -1.5707963267948966 $311 0 $308 $307 forward 7 unknown #
coedge $-1 $405 $406 $407 $213 forward $374 $-1 #
vertex $-1 $408 $409 #
straight-curve $-1 -0.12475 0.375 0 0 1 0 I I #
coedge $-1 $410 $214 $403 $400 forward $316 $-1 #
coedge $-1 $214 $410 $216 $318 forward $316 $-1 #
coedge $-1 $411 $394 $208 $215 reversed $293 $-1 #
loop $-1 $-1 $214 $412 #
straight-curve $-1 -1.3877787807814457e-017 0.375 0.12475 0 1 0 I I #
edge $-1 $413 -0.12475 $220 -1.3877787807814457e-017 $216 $414 forward 7 unknown #
coedge $-1 $415 $407 $217 $320 reversed $416 $-1 #
edge $-1 $413 -0.12475 $219 0 $319 $417 forward 7 unknown #
face $-1 $418 $218 $33 $-1 $419 reversed single #
edge $-1 $219 0 $420 0.12475 $406 $417 forward 7 unknown #
point $-1 -0.12475 -0.375 0 #
edge $-1 $220 -1.3877787807814457e-017 $421 0.12475 $422 $414 forward 7 unknown #
point $-1 -1.3877787807814457e-017 -0.375 0.12475 #
loop $-1 $-1 $227 $147 #
coedge $-1 $327 $327 $225 $328 reversed $222 $-1 #
edge $-1 $423 1.5707963267948966 $423 7.8539816339744828 $225 $424 forward 7 unknown #
convexity-sys-attrib $-1 $-1 $-1 $228 #
vertex $-1 $228 $425 #
ellipse-curve $-1 -1.3877787807814457e-017 0.031200000000000006 0 0 1 0 -0.12475 0 0 1 I I #
vertex $-1 $229 $426 #
ellipse-curve $-1 -1.3877787807814457e-017 -0.375 0 0 -1 0 -0.12475 0 0 1 I I #
point $-1 0.093899999999999983 -0.375 0 #
face_name-twe-attrib $-1 $-1 $233 $158 6 #
model_id-kcp-attrib $-1 $427 $-1 $234 1 990669488 80 1582301185 8 #
face $428 $-1 $429 $10 $-1 $430 forward single #
loop $431 $432 $433 $234 #
cone-surface $434 0.093899999999999997 0.39629999999999999 0 0 -1 0 -0.093899999999999997 0 0 1 I I 0 1 0.093899999999999997 forward I I I I #
surf-twe-attrib $-1 $-1 $-1 $235 41 #
loop_type-twe-attrib $-1 $-1 $-1 $237 1 #
edge $435 $436 -3.1415926535897931 $436 3.1415926535897931 $238 $437 forward 7 unknown #
loop_type-twe-attrib $-1 $-1 $-1 $242 1 #
convexity-sys-attrib $-1 $438 $243 $165 #
point $-1 0.1678 -0.39119999999999999 9.0501382844876794e-018 #
cur-twe-attrib $-1 $-1 $-1 $245 48 #
point $-1 0.21865000000000001 0.014999999999999999 1.5277466183894999e-017 #
cur-twe-attrib $-1 $-1 $-1 $248 50 #
loop_type-twe-attrib $-1 $-1 $-1 $250 1 #
coedge $-1 $350 $350 $433 $439 reversed $250 $-1 #
plane-surface $-1 0.12475 0 0 -1 0 0 0 0 1 forward_v I I I I #
coedge $-1 $260 $258 $262 $356 reversed $176 $-1 #
edge $-1 $273 -0.12475 $358 0.12475 $272 $440 forward 7 unknown #
vertex $-1 $356 $441 #
straight-curve $-1 -0.12475 -0.375 0 0 0 -1 I I #
edge $-1 $354 -0.375 $358 0.375 $352 $442 forward 7 unknown #
straight-curve $-1 0 -0.375 -0.12475 -1 0 0 I I #
vertex $-1 $265 $443 #
straight-curve $-1 0 0.375 -0.12475 1 0 0 I I #
point $-1 0.12475 0.375 -0.12475 #
point $-1 0.12475 -0.375 -0.12475 #
straight-curve $-1 -0.12475 0 0.12475 0 -1 0 I I #
point $-1 -0.12475 0.375 0.12475 #
point $-1 -0.12475 -0.375 0.12475 #
straight-curve $-1 0.12475 -0.375 0 0 0 -1 I I #
straight-curve $-1 0.12475 0.375 0 0 0 -1 I I #
vertex $-1 $283 $444 #
ellipse-curve $-1 0 0 0.046899999999999997 0 0 1 0.12475 0 0 1 I I #
point $-1 0.12475 0 -0.046899999999999997 #
vertex $-1 $288 $445 #
ellipse-curve $-1 0 0 0.010000000000000009 0 0 1 0.093899999999999997 0 0 1 I I #
point $-1 0.093899999999999997 0 -0.010000000000000009 #
face $-1 $446 $447 $33 $-1 $448 reversed single #
loop $-1 $-1 $310 $292 #
plane-surface $-1 -0.12475 0 0 1 0 0 0 0 -1 forward_v I I I I #
coedge $-1 $449 $295 $450 $451 reversed $205 $-1 #
coedge $-1 $295 $449 $452 $453 reversed $205 $-1 #
coedge $-1 $454 $455 $456 $298 forward $457 $-1 #
coedge $-1 $458 $459 $296 $380 forward $460 $-1 #
edge $-1 $311 0 $384 1.5707963267948966 $379 $307 forward 7 unknown #
coedge $-1 $461 $462 $297 $382 forward $463 $-1 #
edge $-1 $383 -1.5707963267948966 $219 0 $381 $221 forward 7 unknown #
vertex $-1 $464 $465 #
vertex $-1 $466 $467 #
straight-curve $-1 -1.3877787807814457e-017 0.375 -0.12475 0 1 0 I I #
coedge $-1 $468 $422 $299 $387 forward $469 $-1 #
edge $-1 $220 1.5707963267948966 $392 3.1415926535897931 $386 $221 forward 7 unknown #
coedge $-1 $470 $300 $303 $396 reversed $391 $-1 #
coedge $-1 $300 $470 $468 $471 forward $391 $-1 #
coedge $-1 $472 $473 $449 $301 reversed $447 $-1 #
loop $-1 $-1 $300 $474 #
vertex $-1 $475 $476 #
straight-curve $-1 0.12475 0.375 0 0 1 0 I I #
coedge $-1 $315 $477 $302 $395 forward $293 $-1 #
edge $-1 $478 -0.12475 $306 1.3877787807814457e-017 $302 $479 forward 7 unknown #
edge $-1 $478 -0.12475 $305 0 $388 $480 forward 7 unknown #
face $-1 $481 $304 $33 $-1 $482 reversed single #
edge $-1 $305 0 $483 0.12475 $473 $480 forward 7 unknown #
point $-1 0.12475 0.375 0 #
edge $-1 $306 1.3877787807814457e-017 $484 0.12475 $403 $479 forward 7 unknown #
point $-1 -1.3877787807814457e-017 0.375 0.12475 #
coedge $-1 $403 $308 $485 $486 reversed $404 $-1 #
coedge $-1 $308 $402 $313 $400 reversed $404 $-1 #
loop $-1 $-1 $308 $481 #
coedge $-1 $487 $310 $459 $408 forward $374 $-1 #
coedge $-1 $310 $487 $461 $322 reversed $374 $-1 #
coedge $-1 $319 $485 $143 $213 reversed $416 $-1 #
edge $-1 $311 0 $488 0.12475 $459 $489 forward 7 unknown #
point $-1 -0.12475 0.375 0 #
coedge $-1 $314 $313 $415 $490 forward $316 $-1 #
coedge $-1 $477 $315 $422 $324 forward $293 $-1 #
face $-1 $491 $316 $33 $-1 $294 forward single #
vertex $-1 $490 $492 #
straight-curve $-1 0 -0.375 0.12475 1 0 0 I I #
coedge $-1 $485 $319 $410 $490 reversed $416 $-1 #
loop $-1 $-1 $407 $493 #
straight-curve $-1 -0.12475 -0.375 0 0 0 -1 I I #
face $-1 $494 $469 $33 $-1 $419 reversed single #
plane-surface $-1 0 -0.375 0 0 1 0 0 0 1 forward_v I I I I #
vertex $-1 $495 $496 #
vertex $-1 $497 $498 #
coedge $-1 $386 $468 $411 $324 reversed $469 $-1 #
vertex $-1 $328 $499 #
ellipse-curve $-1 -1.3877787807814457e-017 0.031200000000000006 0 0 1 0 0 0 -0.093899999999999997 1 I I #
point $-1 0.12474999999999999 0.031200000000000006 -1.5276964263934156e-017 #
point $-1 -1.3877787807814457e-017 -0.375 0.12475 #
face_name-twe-attrib $-1 $-1 $336 $234 7 #
model_id-kcp-attrib $-1 $500 $-1 $337 1 990669488 80 1582301185 9 #
loop $501 $242 $502 $337 #
cone-surface $503 0.093899999999999997 -0.37119999999999997 0 0 1 0 -0.093899999999999997 0 0 1 I I 0.70710678118654702 0.70710678118654802 0.093899999999999997 forward I I I I #
loop_type-twe-attrib $-1 $-1 $-1 $338 0 #
loop $504 $-1 $505 $234 #
coedge $-1 $433 $433 $350 $439 forward $338 $-1 #
surf-twe-attrib $-1 $-1 $-1 $339 58 #
attrib_edge_convexity-kcp-attrib $-1 $506 $-1 $342 1 #
vertex $-1 $342 $507 #
ellipse-curve $508 0.093899999999999997 0.26500000000000001 0 0 -1 0 -0.12475 0 0 1 I I #
edge_name-twe-attrib $-1 $-1 $344 $165 7 8448 #
edge $509 $510 -3.1415926535897931 $510 3.1415926535897931 $433 $511 forward 7 unknown #
straight-curve $-1 -0.12475 0.375 0 0 0 -1 I I #
point $-1 -0.12475 -0.375 -0.12475 #
straight-curve $-1 -0.12475 0 -0.12475 0 1 0 I I #
point $-1 -0.12475 0.375 -0.12475 #
point $-1 0.12475 0 0.046899999999999997 #
point $-1 0.093899999999999997 0 0.010000000000000009 #
face $-1 $397 $512 $33 $-1 $482 reversed single #
loop $-1 $-1 $390 $373 #
plane-surface $-1 0.12475 0 0 -1 0 0 0 0 1 forward_v I I I I #
coedge $-1 $377 $376 $207 $301 forward $205 $-1 #
coedge $-1 $513 $514 $376 $451 forward $515 $-1 #
edge $-1 $392 -3.1415926535897931 $383 -1.5707963267948966 $450 $221 forward 7 unknown #
coedge $-1 $516 $517 $377 $453 forward $512 $-1 #
edge $-1 $384 1.5707963267948966 $305 3.1415926535897931 $452 $307 forward 7 unknown #
coedge $-1 $518 $378 $517 $466 forward $457 $-1 #
coedge $-1 $378 $518 $513 $519 forward $457 $-1 #
coedge $-1 $520 $521 $206 $298 reversed $522 $-1 #
loop $-1 $-1 $378 $491 #
coedge $-1 $459 $379 $521 $523 reversed $460 $-1 #
coedge $-1 $379 $458 $405 $408 reversed $460 $-1 #
loop $-1 $-1 $379 $524 #
coedge $-1 $462 $381 $406 $322 forward $463 $-1 #
coedge $-1 $381 $461 $520 $464 reversed $463 $-1 #
loop $-1 $-1 $381 $525 #
edge $-1 $383 1.3877787807814457e-017 $420 0.12475 $462 $526 forward 7 unknown #
point $-1 -1.3877787807814457e-017 -0.375 -0.12475 #
edge $-1 $384 -1.3877787807814457e-017 $483 0.12475 $517 $527 forward 7 unknown #
point $-1 -1.3877787807814457e-017 0.375 -0.12475 #
coedge $-1 $422 $386 $389 $471 reversed $469 $-1 #
loop $-1 $-1 $386 $418 #
coedge $-1 $389 $388 $477 $497 reversed $391 $-1 #
edge $-1 $421 -0.12475 $392 0 $389 $528 forward 7 unknown #
coedge $-1 $529 $390 $514 $475 forward $447 $-1 #
coedge $-1 $390 $529 $516 $398 reversed $447 $-1 #
face $-1 $-1 $391 $33 $-1 $448 reversed single #
edge $-1 $392 0 $530 0.12475 $472 $528 forward 7 unknown #
point $-1 0.12475 -0.375 0 #
coedge $-1 $394 $411 $470 $497 forward $293 $-1 #
vertex $-1 $497 $531 #
straight-curve $-1 0 0.375 0.12475 -1 0 0 I I #
straight-curve $-1 0.12475 0.375 0 0 0 -1 I I #
face $-1 $524 $404 $33 $-1 $482 reversed single #
plane-surface $-1 0 0.375 0 0 -1 0 0 0 -1 forward_v I I I I #
vertex $-1 $532 $533 #
vertex $-1 $400 $534 #
coedge $-1 $407 $415 $402 $486 forward $416 $-1 #
edge $-1 $484 -0.12475 $311 0 $402 $489 forward 7 unknown #
coedge $-1 $406 $405 $535 $495 reversed $374 $-1 #
vertex $-1 $523 $536 #
straight-curve $-1 -0.12475 0.375 0 0 0 -1 I I #
edge $-1 $484 -0.375 $413 0.375 $415 $537 forward 7 unknown #
face $-1 $493 $457 $33 $-1 $538 reversed single #
point $-1 -0.12475 -0.375 0.12475 #
face $-1 $474 $416 $33 $-1 $375 reversed single #
face $-1 $539 $515 $33 $-1 $419 reversed single #
edge $-1 $420 -0.375 $488 0.375 $487 $540 forward 7 unknown #
point $-1 -0.12475 -0.375 -0.12475 #
edge $-1 $421 -0.375 $478 0.375 $470 $541 forward 7 unknown #
point $-1 0.12475 -0.375 0.12475 #
point $-1 -0.093899999999999997 0.031199999999999992 0 #
face_name-twe-attrib $-1 $-1 $428 $337 8 #
loop_type-twe-attrib $-1 $-1 $-1 $429 0 #
coedge $-1 $502 $502 $505 $542 forward $429 $-1 #
surf-twe-attrib $-1 $-1 $-1 $430 78 #
loop_type-twe-attrib $-1 $-1 $-1 $432 1 #
coedge $-1 $505 $505 $502 $542 reversed $432 $-1 #
convexity-sys-attrib $-1 $543 $435 $342 #
point $-1 0.21865000000000001 0.26500000000000001 -1.5277466183894999e-017 #
cur-twe-attrib $-1 $-1 $-1 $437 83 #
edge_name-twe-attrib $-1 $-1 $-1 $439 5 8704 #
vertex $-1 $439 $544 #
ellipse-curve $545 0.093899999999999997 -0.014999999999999999 0 2.0000000000000002e-015 -1 0 -0.093899999999999997 -1.8779999999999999e-016 0 1 I I #
loop $-1 $-1 $452 $446 #
coedge $-1 $514 $450 $455 $519 reversed $515 $-1 #
coedge $-1 $450 $513 $472 $475 reversed $515 $-1 #
loop $-1 $-1 $450 $494 #
coedge $-1 $517 $452 $473 $398 forward $512 $-1 #
coedge $-1 $452 $516 $454 $466 reversed $512 $-1 #
coedge $-1 $455 $454 $529 $532 forward $457 $-1 #
edge $-1 $530 -0.12475 $383 1.3877787807814457e-017 $513 $526 forward 7 unknown #
coedge $-1 $535 $456 $462 $464 forward $522 $-1 #
coedge $-1 $456 $535 $458 $523 forward $522 $-1 #
loop $-1 $-1 $456 $539 #
edge $-1 $488 -0.12475 $384 -1.3877787807814457e-017 $458 $527 forward 7 unknown #
face $-1 $525 $460 $33 $-1 $482 reversed single #
face $-1 $321 $463 $33 $-1 $419 reversed single #
straight-curve $-1 0 -0.375 -0.12475 -1 0 0 I I #
straight-curve $-1 0 0.375 -0.12475 1 0 0 I I #
straight-curve $-1 0.12475 -0.375 0 0 0 -1 I I #
coedge $-1 $473 $472 $518 $532 reversed $447 $-1 #
vertex $-1 $475 $546 #
point $-1 0.12475 0.375 0.12475 #
edge $-1 $483 -0.375 $530 0.375 $529 $547 forward 7 unknown #
point $-1 0.12475 0.375 -0.12475 #
point $-1 -0.12475 0.375 0.12475 #
coedge $-1 $521 $520 $487 $495 forward $522 $-1 #
point $-1 -0.12475 0.375 -0.12475 #
straight-curve $-1 -0.12475 0 0.12475 0 -1 0 I I #
plane-surface $-1 0 0 -0.12475 0 0 1 1 0 0 forward_v I I I I #
face $-1 $412 $522 $33 $-1 $538 reversed single #
straight-curve $-1 -0.12475 0 -0.12475 0 1 0 I I #
straight-curve $-1 0.12475 0 0.12475 0 1 0 I I #
edge $548 $549 -3.1415926535897931 $549 3.1415926535897931 $502 $550 forward 7 unknown #
edge_name-twe-attrib $-1 $-1 $506 $342 2 8448 #
point $-1 0.18779999999999999 -0.0149999999999998 -1.14994314602624e-017 #
cur-twe-attrib $-1 $-1 $-1 $511 101 #
point $-1 0.12475 -0.375 -0.12475 #
straight-curve $-1 0.12475 0 -0.12475 0 -1 0 I I #
attrib_edge_convexity-kcp-attrib $-1 $551 $-1 $542 1 #
vertex $-1 $542 $552 #
ellipse-curve $553 0.093899999999999997 -0.37119999999999997 0 0 -1 0 -0.093899999999999997 0 0 1 I I #
convexity-sys-attrib $-1 $554 $548 $542 #
point $-1 0.18779999999999999 -0.37119999999999997 -1.14994314602624e-017 #
cur-twe-attrib $-1 $-1 $-1 $550 112 #
edge_name-twe-attrib $-1 $-1 $551 $542 6 8448 #
End-of-ACIS-data 