600 0 1 0           
103 GICL ACIS Healer - Source: /gicl/data5/repository/ICEM-CDC/Fixture_Models/RoundPin1/RoundPin1.sat - 6 0 18 ACIS 6.0.3 Solaris 24 Sat Apr 13 23:06:27 2002 
1 9.999999999999999547e-07 1.000000000000000036e-10 
body $-1 $1 $-1 $2 #
lump $-1 $-1 $3 $0 #
transform $-1 1 0 0 0 1 0 0 0 1 0 0 0 1 no_rotate no_reflect no_shear #
shell $-1 $-1 $-1 $4 $-1 $1 #
face $5 $6 $7 $3 $-1 $8 reversed single #
face_name-twe-attrib $-1 $-1 $-1 $4 1 #
face $9 $10 $11 $3 $-1 $12 forward single #
loop $13 $-1 $14 $4 #
plane-surface $15 0.09389999999999999736 0.3588000000000000078 0 0 -1 0 0 0 -1 forward_v I I I I #
face_name-twe-attrib $-1 $-1 $-1 $6 2 #
face $16 $17 $18 $3 $-1 $19 forward single #
loop $20 $21 $22 $6 #
plane-surface $23 0.09389999999999999736 0.01499999999999999944 0 0 -1 0 0 0 -1 forward_v I I I I #
loop_type-twe-attrib $-1 $-1 $-1 $7 0 #
coedge $-1 $14 $14 $24 $25 reversed $7 $-1 #
surf-twe-attrib $-1 $-1 $-1 $8 4 #
face_name-twe-attrib $-1 $-1 $-1 $10 3 #
face $26 $27 $28 $3 $-1 $29 forward single #
loop $30 $-1 $31 $10 #
plane-surface $32 0.09389999999999999736 -0.3911999999999999922 0 0 -1 0 0 0 -1 forward_v I I I I #
loop_type-twe-attrib $-1 $-1 $-1 $11 1 #
loop $33 $-1 $34 $6 #
coedge $-1 $22 $22 $35 $36 reversed $11 $-1 #
surf-twe-attrib $-1 $-1 $-1 $12 6 #
coedge $-1 $24 $24 $14 $25 forward $28 $-1 #
edge $37 $38 0 $38 6.283185307179586232 $24 $39 forward 7 unknown #
face_name-twe-attrib $-1 $-1 $-1 $17 4 #
face $40 $41 $42 $3 $-1 $43 forward single #
loop $44 $45 $24 $17 #
cone-surface $46 0.09389999999999999736 0.2650000000000000133 0 0 -1 0 -0.1247499999999999998 0 0 1 I I 0.4999999999999990008 0.8660254037844390407 0.1247499999999999998 forward I I I I #
loop_type-twe-attrib $-1 $-1 $-1 $18 0 #
coedge $-1 $31 $31 $47 $48 forward $18 $-1 #
surf-twe-attrib $-1 $-1 $-1 $19 10 #
loop_type-twe-attrib $-1 $-1 $-1 $21 0 #
coedge $-1 $34 $34 $49 $50 forward $21 $-1 #
coedge $-1 $35 $35 $22 $36 forward $51 $-1 #
edge $52 $53 0 $53 6.283185307179586232 $35 $54 forward 7 unknown #
edge_name-twe-attrib $-1 $-1 $-1 $25 1 8448 #
vertex $-1 $25 $55 #
ellipse-curve $56 0.09389999999999999736 0.3588000000000000078 0 0 -1 0 -0.07059454475001300522 0 0 1 I I #
face_name-twe-attrib $-1 $-1 $-1 $27 5 #
face $57 $58 $51 $3 $-1 $59 reversed single #
loop $60 $61 $62 $27 #
cone-surface $63 0.09389999999999999736 0.3962999999999999856 0 0 -1 0 -0.1247499999999999998 0 0 1 I I 0 1 0.1247499999999999998 forward I I I I #
loop_type-twe-attrib $-1 $-1 $-1 $28 0 #
loop $64 $-1 $65 $17 #
surf-twe-attrib $-1 $-1 $-1 $29 17 #
coedge $-1 $47 $47 $31 $48 reversed $66 $-1 #
edge $67 $68 -3.141592653589793116 $68 3.141592653589793116 $47 $69 forward 7 unknown #
coedge $-1 $49 $49 $34 $50 reversed $61 $-1 #
edge $70 $71 -3.141592653589793116 $71 3.141592653589793116 $49 $72 forward 7 unknown #
loop $73 $74 $35 $41 #
edge_name-twe-attrib $-1 $-1 $-1 $36 4 20480 #
vertex $-1 $36 $75 #
ellipse-curve $76 0.09389999999999999736 0.01499999999999999944 0 0 -1 0 -0.09389999999999999736 0 0 1 I I #
point $-1 0.02330545524998699908 0.3588000000000000078 0 #
cur-twe-attrib $-1 $-1 $-1 $39 25 #
face_name-twe-attrib $-1 $-1 $-1 $41 6 #
face $77 $78 $79 $3 $-1 $80 forward single #
torus-surface $81 0.09389999999999999736 0 0 0 -1 0 0.09389999999999999736 0.01499999999999999944 0 0 -1 forward_v I I I I #
loop_type-twe-attrib $-1 $-1 $-1 $42 0 #
loop $82 $-1 $49 $27 #
coedge $-1 $62 $62 $65 $83 forward $42 $-1 #
surf-twe-attrib $-1 $-1 $-1 $43 27 #
loop_type-twe-attrib $-1 $-1 $-1 $45 1 #
coedge $-1 $65 $65 $62 $83 reversed $45 $-1 #
loop $84 $-1 $47 $78 #
edge_name-twe-attrib $-1 $-1 $-1 $48 7 8448 #
vertex $-1 $48 $85 #
ellipse-curve $86 0.09389999999999999736 -0.3911999999999999922 0 0 -1 0 -0.07389999999999999347 0 0 1 I I #
edge_name-twe-attrib $-1 $-1 $-1 $50 3 8704 #
vertex $-1 $50 $87 #
ellipse-curve $88 0.09389999999999999736 0.01499999999999999944 0 0 -1 0 -0.1247499999999999998 0 0 1 I I #
loop_type-twe-attrib $-1 $-1 $-1 $51 0 #
loop $89 $-1 $90 $41 #
point $-1 1.38777878078144999e-17 0.01499999999999999944 0 #
cur-twe-attrib $-1 $-1 $-1 $54 36 #
face_name-twe-attrib $-1 $-1 $-1 $58 7 #
face $91 $-1 $92 $3 $-1 $93 forward single #
loop $94 $95 $96 $58 #
cone-surface $97 0.09389999999999999736 0.3962999999999999856 0 0 -1 0 -0.09389999999999999736 0 0 1 I I 0 1 0.09389999999999999736 forward I I I I #
surf-twe-attrib $-1 $-1 $-1 $59 41 #
loop_type-twe-attrib $-1 $-1 $-1 $61 1 #
edge $98 $99 -3.141592653589793116 $99 3.141592653589793116 $62 $100 forward 7 unknown #
loop_type-twe-attrib $-1 $-1 $-1 $66 1 #
point $-1 0.1678000000000000047 -0.3911999999999999922 9.050138284487679422e-18 #
cur-twe-attrib $-1 $-1 $-1 $69 48 #
point $-1 0.218650000000000011 0.01499999999999999944 1.52774661838949989e-17 #
cur-twe-attrib $-1 $-1 $-1 $72 50 #
loop_type-twe-attrib $-1 $-1 $-1 $74 1 #
coedge $-1 $90 $90 $96 $101 reversed $74 $-1 #
face_name-twe-attrib $-1 $-1 $-1 $78 8 #
loop $102 $66 $103 $78 #
cone-surface $104 0.09389999999999999736 -0.3711999999999999744 0 0 1 0 -0.09389999999999999736 0 0 1 I I 0.7071067811865470176 0.7071067811865480168 0.09389999999999999736 forward I I I I #
loop_type-twe-attrib $-1 $-1 $-1 $79 0 #
loop $105 $-1 $106 $58 #
coedge $-1 $96 $96 $90 $101 forward $79 $-1 #
surf-twe-attrib $-1 $-1 $-1 $80 58 #
edge_name-twe-attrib $-1 $-1 $-1 $83 2 8448 #
vertex $-1 $83 $107 #
ellipse-curve $108 0.09389999999999999736 0.2650000000000000133 0 0 -1 0 -0.1247499999999999998 0 0 1 I I #
edge $109 $110 -3.141592653589793116 $110 3.141592653589793116 $96 $111 forward 7 unknown #
loop_type-twe-attrib $-1 $-1 $-1 $92 0 #
coedge $-1 $103 $103 $106 $112 forward $92 $-1 #
surf-twe-attrib $-1 $-1 $-1 $93 78 #
loop_type-twe-attrib $-1 $-1 $-1 $95 1 #
coedge $-1 $106 $106 $103 $112 reversed $95 $-1 #
point $-1 0.218650000000000011 0.2650000000000000133 -1.52774661838949989e-17 #
cur-twe-attrib $-1 $-1 $-1 $100 83 #
edge_name-twe-attrib $-1 $-1 $-1 $101 5 8704 #
vertex $-1 $101 $113 #
ellipse-curve $114 0.09389999999999999736 -0.01499999999999999944 0 2.000000000000000155e-15 -1 0 -0.09389999999999999736 -1.877999999999999899e-16 0 1 I I #
edge $115 $116 -3.141592653589793116 $116 3.141592653589793116 $103 $117 forward 7 unknown #
point $-1 0.1877999999999999947 -0.01499999999999979995 -1.14994314602623998e-17 #
cur-twe-attrib $-1 $-1 $-1 $111 101 #
edge_name-twe-attrib $-1 $-1 $-1 $112 6 8448 #
vertex $-1 $112 $118 #
ellipse-curve $119 0.09389999999999999736 -0.3711999999999999744 0 0 -1 0 -0.09389999999999999736 0 0 1 I I #
point $-1 0.1877999999999999947 -0.3711999999999999744 -1.14994314602623998e-17 #
cur-twe-attrib $-1 $-1 $-1 $117 112 #
End-of-ACIS-data 