700 0 2 0           
24 FBMach with ACIS - 7.0.3 13 ACIS 7.0.3 NT 24 Tue May 14 10:17:05 2002 
1 9.9999999999999995e-007 1e-010 
body $2 -1 $-1 $3 $-1 $4 #
bdycol-kcp $-1 -1 1 5 $5 $6 $7 $8 $9 #
model_id-kcp-attrib $-1 -1 $-1 $-1 $0 1 1021385824 1021385824 1047527425 1 #
lump $-1 -1 $-1 $-1 $10 $0 #
transform $-1 -1 1 0 0 0 1 0 0 0 1 0 0 0 1 rotate no_reflect no_shear #
body $11 -1 $-1 $12 $-1 $13 #
body $14 -1 $-1 $15 $-1 $16 #
body $17 -1 $-1 $18 $-1 $19 #
body $20 -1 $-1 $21 $-1 $22 #
body $23 -1 $-1 $24 $-1 $25 #
shell $-1 -1 $-1 $-1 $-1 $26 $-1 $3 #
model_id-kcp-attrib $-1 -1 $-1 $-1 $5 1 1021385824 1021385824 1047527426 1 #
lump $-1 -1 $-1 $-1 $27 $5 #
transform $-1 -1 1 0 0 0 1 0 0 0 1 0.093900000000000011 -0.016199999999999992 0 1 no_rotate no_reflect no_shear #
rgb_color-st-attrib $-1 -1 $28 $-1 $6 1 1 0.5 #
lump $-1 -1 $-1 $-1 $29 $6 #
transform $-1 -1 -1 0 0 0 0 1 0 1 0 0.093899999999999997 0.31190000000000001 0 1 rotate no_reflect no_shear #
rgb_color-st-attrib $-1 -1 $30 $-1 $7 1 1 0.5 #
lump $-1 -1 $-1 $-1 $31 $7 #
transform $-1 -1 1 0 0 0 0 1 0 -1 0 0.093899999999999997 -0.38119999999999998 0 1 rotate no_reflect no_shear #
rgb_color-st-attrib $-1 -1 $32 $-1 $8 0.5 1 1 #
lump $-1 -1 $-1 $-1 $33 $8 #
transform $-1 -1 1 0 0 0 1 0 0 0 1 0.093900000000000011 -0.016199999999999992 0 1 no_rotate no_reflect no_shear #
rgb_color-st-attrib $-1 -1 $34 $-1 $9 1 0.5 1 #
lump $-1 -1 $-1 $-1 $35 $9 #
transform $-1 -1 1 0 0 0 1 0 0 0 1 0.093900000000000011 -0.016199999999999992 0 1 no_rotate no_reflect no_shear #
face $36 -1 $-1 $37 $38 $10 $-1 $39 reversed single #
shell $-1 -1 $-1 $-1 $-1 $40 $-1 $12 #
model_id-kcp-attrib $-1 -1 $-1 $14 $6 1 1021385824 1021385824 1048838147 1 #
shell $-1 -1 $-1 $-1 $-1 $41 $-1 $15 #
model_id-kcp-attrib $-1 -1 $-1 $17 $7 1 1021385824 1021385824 1048838148 1 #
shell $-1 -1 $-1 $-1 $-1 $42 $-1 $18 #
model_id-kcp-attrib $-1 -1 $-1 $20 $8 1 1021385824 1021385825 1040842757 1 #
shell $-1 -1 $-1 $-1 $-1 $43 $-1 $21 #
model_id-kcp-attrib $-1 -1 $-1 $23 $9 1 1021385824 1021385825 1050673158 1 #
shell $-1 -1 $-1 $-1 $-1 $44 $-1 $24 #
model_id-kcp-attrib $-1 -1 $45 $-1 $26 1 1021385824 1021385824 1047527425 2 #
face $46 -1 $-1 $47 $48 $10 $-1 $49 forward single #
loop $50 -1 $-1 $-1 $51 $26 #
plane-surface $52 -1 $-1 0.093899999999999997 0.35880000000000001 0 0 -1 0 0 0 -1 forward_v I I I I #
face $-1 -1 $-1 $53 $54 $27 $-1 $55 forward single #
face $-1 -1 $-1 $56 $57 $29 $-1 $58 reversed single #
face $-1 -1 $-1 $59 $60 $31 $-1 $61 reversed single #
face $-1 -1 $-1 $62 $63 $33 $-1 $64 reversed single #
face $65 -1 $-1 $66 $67 $35 $-1 $68 forward single #
face_name-twe-attrib $-1 -1 $-1 $36 $26 1 #
model_id-kcp-attrib $-1 -1 $69 $-1 $37 1 1021385824 1021385824 1047527425 3 #
face $70 -1 $-1 $71 $72 $10 $-1 $73 forward single #
loop $74 -1 $-1 $75 $76 $37 #
plane-surface $77 -1 $-1 0.093899999999999997 0.014999999999999999 0 0 -1 0 0 0 -1 forward_v I I I I #
loop_type-twe-attrib $-1 -1 $-1 $-1 $38 0 #
coedge $-1 -1 $-1 $51 $51 $78 $79 reversed $38 $-1 #
surf-twe-attrib $-1 -1 $-1 $-1 $39 4 #
face $-1 -1 $-1 $80 $81 $27 $-1 $82 reversed single #
loop $-1 -1 $-1 $-1 $83 $40 #
plane-surface $-1 -1 $-1 0 0 0.12475 0 0 1 1 0 0 forward_v I I I I #
face $-1 -1 $-1 $84 $85 $29 $-1 $86 forward single #
loop $-1 -1 $-1 $87 $88 $41 #
cone-surface $-1 -1 $-1 0 0 0.061136669122108966 0 0 1 0.062375 0 0 1 I I -0.49999999999999906 0.86602540378443915 0.062375 forward I I I I #
face $-1 -1 $-1 $89 $90 $31 $-1 $91 forward single #
loop $-1 -1 $-1 $92 $93 $42 #
cone-surface $-1 -1 $-1 0 0 0.036950000000000038 0 0 1 0.046949999999999999 0 0 1 I I -0.70710678118654713 0.70710678118654779 0.046949999999999999 forward I I I I #
face $-1 -1 $-1 $94 $95 $33 $-1 $64 reversed single #
loop $-1 -1 $-1 $-1 $96 $43 #
cone-surface $-1 -1 $-1 -1.3877787807814457e-017 0.375 0 0 1 0 -0.12475 0 0 1 I I 0 1 0.12475 forward I I I I #
face_name-twe-attrib $-1 -1 $-1 $-1 $44 6 #
face $97 -1 $-1 $98 $99 $35 $-1 $100 reversed single #
loop $101 -1 $-1 $102 $103 $44 #
torus-surface $104 -1 $-1 -1.3877787807814457e-017 0.016199999999999992 0 0 -1 0 0.093899999999999997 0.014999999999999999 0 0 -1 forward_v I I I I #
face_name-twe-attrib $-1 -1 $-1 $46 $37 2 #
model_id-kcp-attrib $-1 -1 $105 $-1 $47 1 1021385824 1021385824 1047527425 4 #
face $106 -1 $-1 $107 $108 $10 $-1 $109 forward single #
loop $110 -1 $-1 $-1 $111 $47 #
plane-surface $112 -1 $-1 0.093899999999999997 -0.39119999999999999 0 0 -1 0 0 0 -1 forward_v I I I I #
loop_type-twe-attrib $-1 -1 $-1 $-1 $48 1 #
loop $113 -1 $-1 $-1 $114 $37 #
coedge $-1 -1 $-1 $76 $76 $115 $116 reversed $48 $-1 #
surf-twe-attrib $-1 -1 $-1 $-1 $49 6 #
coedge $-1 -1 $-1 $78 $78 $51 $79 forward $108 $-1 #
edge $117 -1 $-1 $118 0 $118 6.2831853071795862 $78 $119 forward @7 unknown #
face $120 -1 $-1 $121 $122 $27 $-1 $123 reversed single #
loop $-1 -1 $-1 $-1 $124 $53 #
plane-surface $-1 -1 $-1 0 0 -0.12475 0 0 1 1 0 0 forward_v I I I I #
coedge $-1 -1 $-1 $125 $126 $127 $128 forward $54 $-1 #
face $-1 -1 $-1 $-1 $129 $29 $-1 $130 forward single #
loop $-1 -1 $-1 $131 $132 $56 #
cone-surface $-1 -1 $-1 0 0 0 0 0 1 0.12475 0 0 1 I I 0 1 0.12475 forward I I I I #
loop $-1 -1 $-1 $-1 $133 $41 #
coedge $-1 -1 $-1 $88 $88 $134 $135 reversed $57 $-1 #
face $-1 -1 $-1 $-1 $136 $31 $-1 $137 forward single #
loop $-1 -1 $-1 $138 $139 $59 #
cone-surface $-1 -1 $-1 0 0 0 0 0 1 0.093899999999999997 0 0 1 I I 0 1 0.093899999999999997 forward I I I I #
loop $-1 -1 $-1 $-1 $140 $42 #
coedge $-1 -1 $-1 $93 $93 $141 $142 reversed $60 $-1 #
face $-1 -1 $-1 $143 $144 $33 $-1 $64 reversed single #
loop $-1 -1 $-1 $-1 $145 $62 #
coedge $-1 -1 $-1 $146 $147 $148 $149 reversed $63 $-1 #
face_name-twe-attrib $-1 -1 $-1 $-1 $66 7 #
face $-1 -1 $-1 $150 $151 $35 $-1 $152 reversed single #
loop $153 -1 $-1 $154 $155 $66 #
cone-surface $156 -1 $-1 -1.3877787807814457e-017 0.41249999999999998 0 0 -1 0 -0.093899999999999997 0 0 1 I I 0 1 0.093899999999999997 forward I I I I #
loop_type-twe-attrib $-1 -1 $-1 $-1 $67 1 #
loop $157 -1 $-1 $-1 $158 $44 #
coedge $-1 -1 $-1 $103 $103 $155 $159 forward $67 $-1 #
surf-twe-attrib $-1 -1 $-1 $-1 $68 41 #
face_name-twe-attrib $-1 -1 $-1 $70 $47 3 #
model_id-kcp-attrib $-1 -1 $160 $-1 $71 1 1021385824 1021385824 1047527425 5 #
face $161 -1 $-1 $162 $163 $10 $-1 $164 forward single #
loop $165 -1 $-1 $166 $78 $71 #
cone-surface $167 -1 $-1 0.093899999999999997 0.26500000000000001 0 0 -1 0 -0.12475 0 0 1 I I 0.499999999999999 0.86602540378443904 0.12475 forward I I I I #
loop_type-twe-attrib $-1 -1 $-1 $-1 $72 0 #
coedge $-1 -1 $-1 $111 $111 $168 $169 forward $72 $-1 #
surf-twe-attrib $-1 -1 $-1 $-1 $73 10 #
loop_type-twe-attrib $-1 -1 $-1 $-1 $75 0 #
coedge $-1 -1 $-1 $114 $114 $170 $171 forward $75 $-1 #
coedge $-1 -1 $-1 $115 $115 $76 $116 forward $172 $-1 #
edge $173 -1 $-1 $174 0 $174 6.2831853071795862 $115 $175 forward @7 unknown #
attrib_edge_convexity-kcp-attrib $-1 -1 $176 $-1 $79 1 #
vertex $-1 -1 $-1 $79 $177 #
ellipse-curve $178 -1 $-1 0.093899999999999997 0.35880000000000001 0 0 -1 0 -0.070594544750013005 0 0 1 I I #
model_id-kcp-attrib $-1 -1 $-1 $-1 $80 1 1021385824 1021385824 1047527426 3 #
face $-1 -1 $-1 $179 $180 $27 $-1 $181 reversed single #
loop $-1 -1 $-1 $-1 $182 $80 #
plane-surface $-1 -1 $-1 0 -0.375 0 0 1 0 0 0 1 forward_v I I I I #
coedge $-1 -1 $-1 $183 $184 $185 $186 forward $81 $-1 #
coedge $-1 -1 $-1 $187 $83 $188 $189 forward $54 $-1 #
coedge $-1 -1 $-1 $83 $187 $190 $191 forward $54 $-1 #
coedge $-1 -1 $-1 $192 $193 $83 $128 reversed $194 $-1 #
edge $-1 -1 $-1 $195 -0.375 $196 0.375 $127 $197 forward @7 unknown #
loop $-1 -1 $-1 $198 $134 $84 #
plane-surface $-1 -1 $-1 0 0 0.046899999999999997 0 0 1 1 0 0 forward_v I I I I #
loop $-1 -1 $-1 $-1 $199 $56 #
coedge $-1 -1 $-1 $132 $132 $133 $200 reversed $85 $-1 #
coedge $-1 -1 $-1 $133 $133 $132 $200 forward $87 $-1 #
coedge $-1 -1 $-1 $134 $134 $88 $135 forward $129 $-1 #
edge $-1 -1 $-1 $201 -3.1415926535897931 $201 3.1415926535897931 $134 $202 forward @7 unknown #
loop $-1 -1 $-1 $203 $141 $89 #
plane-surface $-1 -1 $-1 0 0 0.010000000000000009 0 0 1 1 0 0 forward_v I I I I #
loop $-1 -1 $-1 $-1 $204 $59 #
coedge $-1 -1 $-1 $139 $139 $140 $205 reversed $90 $-1 #
coedge $-1 -1 $-1 $140 $140 $139 $205 forward $92 $-1 #
coedge $-1 -1 $-1 $141 $141 $93 $142 forward $136 $-1 #
edge $-1 -1 $-1 $206 -3.1415926535897931 $206 3.1415926535897931 $141 $207 forward @7 unknown #
face $-1 -1 $-1 $208 $209 $33 $-1 $64 reversed single #
loop $-1 -1 $-1 $-1 $210 $94 #
coedge $-1 -1 $-1 $211 $212 $213 $214 reversed $95 $-1 #
coedge $-1 -1 $-1 $215 $96 $216 $217 forward $63 $-1 #
coedge $-1 -1 $-1 $96 $215 $218 $219 reversed $63 $-1 #
coedge $-1 -1 $-1 $220 $221 $96 $149 forward $222 $-1 #
edge $-1 -1 $-1 $223 0 $224 1.5707963267948966 $148 $225 forward @7 unknown #
face $-1 -1 $-1 $226 $227 $35 $-1 $228 forward single #
loop $-1 -1 $-1 $229 $230 $98 #
plane-surface $-1 -1 $-1 0 0.031200000000000006 0 0 -1 0 1 0 0 forward_v I I I I #
loop_type-twe-attrib $-1 -1 $-1 $-1 $99 0 #
loop $-1 -1 $-1 $-1 $231 $66 #
coedge $-1 -1 $-1 $155 $155 $103 $159 reversed $99 $-1 #
surf-twe-attrib $-1 -1 $-1 $-1 $100 58 #
loop_type-twe-attrib $-1 -1 $-1 $-1 $102 0 #
coedge $-1 -1 $-1 $158 $158 $232 $233 forward $102 $-1 #
edge $234 -1 $-1 $235 -3.1415926535897931 $235 3.1415926535897931 $155 $236 forward @7 unknown #
face_name-twe-attrib $-1 -1 $-1 $106 $71 4 #
model_id-kcp-attrib $-1 -1 $237 $-1 $107 1 1021385824 1021385824 1047527425 6 #
face $238 -1 $-1 $239 $172 $10 $-1 $240 reversed single #
loop $241 -1 $-1 $242 $243 $107 #
cone-surface $244 -1 $-1 0.093899999999999997 0.39629999999999999 0 0 -1 0 -0.12475 0 0 1 I I 0 1 0.12475 forward I I I I #
loop_type-twe-attrib $-1 -1 $-1 $-1 $108 0 #
loop $245 -1 $-1 $-1 $246 $71 #
surf-twe-attrib $-1 -1 $-1 $-1 $109 17 #
coedge $-1 -1 $-1 $168 $168 $111 $169 reversed $247 $-1 #
edge $248 -1 $-1 $249 -3.1415926535897931 $249 3.1415926535897931 $168 $250 forward @7 unknown #
coedge $-1 -1 $-1 $170 $170 $114 $171 reversed $242 $-1 #
edge $251 -1 $-1 $252 -3.1415926535897931 $252 3.1415926535897931 $170 $253 forward @7 unknown #
loop $254 -1 $-1 $255 $115 $162 #
attrib_edge_convexity-kcp-attrib $-1 -1 $256 $-1 $116 4 #
vertex $-1 -1 $-1 $116 $257 #
ellipse-curve $258 -1 $-1 0.093899999999999997 0.014999999999999999 0 0 -1 0 -0.093899999999999997 0 0 1 I I #
convexity-sys-attrib $-1 -1 $259 $117 $79 #
point $-1 -1 $-1 0.023305455249986999 0.35880000000000001 0 #
cur-twe-attrib $-1 -1 $-1 $-1 $119 25 #
face $260 -1 $-1 $261 $262 $27 $-1 $263 reversed single #
loop $-1 -1 $-1 $-1 $264 $121 #
plane-surface $-1 -1 $-1 -0.12475 0 0 1 0 0 0 0 -1 forward_v I I I I #
coedge $-1 -1 $-1 $265 $190 $266 $267 forward $122 $-1 #
coedge $-1 -1 $-1 $268 $124 $265 $269 forward $81 $-1 #
coedge $-1 -1 $-1 $124 $268 $270 $271 forward $81 $-1 #
coedge $-1 -1 $-1 $193 $192 $124 $186 reversed $194 $-1 #
edge $-1 -1 $-1 $272 -0.375 $273 0.375 $185 $274 forward @7 unknown #
coedge $-1 -1 $-1 $126 $125 $275 $276 forward $54 $-1 #
coedge $-1 -1 $-1 $277 $278 $125 $189 reversed $262 $-1 #
edge $-1 -1 $-1 $196 -0.12475 $279 0.12475 $188 $280 forward @7 unknown #
coedge $-1 -1 $-1 $182 $281 $126 $191 reversed $122 $-1 #
edge $-1 -1 $-1 $282 -0.12475 $195 0.12475 $190 $283 forward @7 unknown #
coedge $-1 -1 $-1 $185 $127 $281 $284 forward $194 $-1 #
coedge $-1 -1 $-1 $127 $185 $277 $285 reversed $194 $-1 #
loop $-1 -1 $-1 $-1 $192 $261 #
vertex $-1 -1 $-1 $128 $286 #
vertex $-1 -1 $-1 $128 $287 #
straight-curve $-1 -1 $-1 0.12475 0 0.12475 0 1 0 I I #
loop $-1 -1 $-1 $-1 $288 $84 #
coedge $-1 -1 $-1 $199 $199 $288 $289 reversed $131 $-1 #
edge $-1 -1 $-1 $290 0 $290 6.2831853071795862 $132 $291 forward @7 unknown #
vertex $-1 -1 $-1 $135 $292 #
ellipse-curve $-1 -1 $-1 0 0 0.046899999999999997 0 0 -1 0.070594544750013227 0 0 1 I I #
loop $-1 -1 $-1 $-1 $293 $89 #
coedge $-1 -1 $-1 $204 $204 $293 $294 reversed $138 $-1 #
edge $-1 -1 $-1 $295 0 $295 6.2831853071795862 $139 $296 forward @7 unknown #
vertex $-1 -1 $-1 $142 $297 #
ellipse-curve $-1 -1 $-1 0 0 0.010000000000000009 0 0 -1 0.073899999999999993 0 0 1 I I #
face $-1 -1 $-1 $298 $299 $33 $-1 $300 forward single #
loop $-1 -1 $-1 $-1 $301 $143 #
coedge $-1 -1 $-1 $302 $303 $301 $304 forward $144 $-1 #
coedge $-1 -1 $-1 $305 $145 $306 $307 reversed $95 $-1 #
coedge $-1 -1 $-1 $145 $305 $147 $219 forward $95 $-1 #
coedge $-1 -1 $-1 $308 $309 $145 $214 forward $310 $-1 #
edge $-1 -1 $-1 $311 -3.1415926535897931 $312 -1.5707963267948966 $213 $313 forward @7 unknown #
coedge $-1 -1 $-1 $147 $146 $314 $315 reversed $63 $-1 #
coedge $-1 -1 $-1 $303 $302 $316 $217 reversed $144 $-1 #
edge $-1 -1 $-1 $223 -0.75 $317 0 $316 $318 forward @7 unknown #
coedge $-1 -1 $-1 $319 $320 $321 $219 forward $322 $-1 #
edge $-1 -1 $-1 $224 -0.75 $312 0 $218 $323 forward @7 unknown #
coedge $-1 -1 $-1 $221 $148 $320 $324 reversed $222 $-1 #
coedge $-1 -1 $-1 $148 $220 $325 $326 forward $222 $-1 #
loop $-1 -1 $-1 $-1 $148 $327 #
vertex $-1 -1 $-1 $328 $329 #
vertex $-1 -1 $-1 $330 $331 #
ellipse-curve $-1 -1 $-1 -1.3877787807814457e-017 -0.375 0 0 1 0 -0.12475 0 0 1 I I #
face $-1 -1 $-1 $-1 $332 $35 $-1 $333 reversed single #
loop $-1 -1 $-1 $334 $335 $150 #
cone-surface $-1 -1 $-1 -1.3877787807814457e-017 0.375 0 0 1 0 -0.12475 0 0 1 I I 0 1 0.12475 forward I I I I #
loop $-1 -1 $-1 $-1 $232 $98 #
coedge $-1 -1 $-1 $230 $230 $336 $337 forward $151 $-1 #
coedge $-1 -1 $-1 $231 $231 $338 $339 reversed $154 $-1 #
coedge $-1 -1 $-1 $232 $232 $158 $233 reversed $229 $-1 #
edge $340 -1 $-1 $341 1.5707963267948966 $341 7.8539816339744828 $232 $342 forward @7 unknown #
convexity-sys-attrib $-1 -1 $343 $-1 $159 #
vertex $-1 -1 $-1 $159 $344 #
ellipse-curve $345 -1 $-1 -1.3877787807814457e-017 0.0011999999999999927 0 2.0000000000000002e-015 -1 0 -0.093899999999999997 -1.8779999999999999e-016 0 1 I I #
face_name-twe-attrib $-1 -1 $-1 $161 $107 5 #
model_id-kcp-attrib $-1 -1 $346 $-1 $162 1 1021385824 1021385824 1047527425 7 #
face $347 -1 $-1 $348 $349 $10 $-1 $350 forward single #
torus-surface $351 -1 $-1 0.093899999999999997 0 0 0 -1 0 0.093899999999999997 0.014999999999999999 0 0 -1 forward_v I I I I #
loop_type-twe-attrib $-1 -1 $-1 $-1 $163 0 #
loop $352 -1 $-1 $-1 $170 $107 #
coedge $-1 -1 $-1 $243 $243 $246 $353 forward $163 $-1 #
surf-twe-attrib $-1 -1 $-1 $-1 $164 27 #
loop_type-twe-attrib $-1 -1 $-1 $-1 $166 1 #
coedge $-1 -1 $-1 $246 $246 $243 $353 reversed $166 $-1 #
loop $354 -1 $-1 $-1 $168 $348 #
attrib_edge_convexity-kcp-attrib $-1 -1 $355 $-1 $169 1 #
vertex $-1 -1 $-1 $169 $356 #
ellipse-curve $357 -1 $-1 0.093899999999999997 -0.39119999999999999 0 0 -1 0 -0.073899999999999993 0 0 1 I I #
attrib_edge_convexity-kcp-attrib $-1 -1 $358 $-1 $171 1 #
vertex $-1 -1 $-1 $171 $359 #
ellipse-curve $360 -1 $-1 0.093899999999999997 0.014999999999999999 0 0 -1 0 -0.12475 0 0 1 I I #
loop_type-twe-attrib $-1 -1 $-1 $-1 $172 0 #
loop $361 -1 $-1 $-1 $362 $162 #
convexity-sys-attrib $-1 -1 $363 $173 $116 #
point $-1 -1 $-1 1.38777878078145e-017 0.014999999999999999 0 #
cur-twe-attrib $-1 -1 $-1 $-1 $175 36 #
edge_name-twe-attrib $-1 -1 $-1 $176 $79 1 8448 #
model_id-kcp-attrib $-1 -1 $-1 $-1 $179 1 1021385824 1021385824 1047527426 2 #
face $-1 -1 $-1 $-1 $194 $27 $-1 $364 reversed single #
loop $-1 -1 $-1 $-1 $277 $179 #
plane-surface $-1 -1 $-1 0 0.375 0 0 -1 0 0 0 -1 forward_v I I I I #
coedge $-1 -1 $-1 $365 $275 $278 $366 forward $180 $-1 #
coedge $-1 -1 $-1 $281 $182 $183 $269 reversed $122 $-1 #
coedge $-1 -1 $-1 $275 $365 $182 $267 reversed $180 $-1 #
edge $-1 -1 $-1 $282 -0.12475 $367 0.12475 $266 $368 forward @7 unknown #
coedge $-1 -1 $-1 $184 $183 $365 $369 forward $81 $-1 #
edge $-1 -1 $-1 $273 -0.12475 $367 0.12475 $265 $370 forward @7 unknown #
coedge $-1 -1 $-1 $278 $277 $184 $271 reversed $262 $-1 #
edge $-1 -1 $-1 $371 -0.12475 $272 0.12475 $270 $372 forward @7 unknown #
vertex $-1 -1 $-1 $186 $373 #
vertex $-1 -1 $-1 $284 $374 #
straight-curve $-1 -1 $-1 0.12475 0 -0.12475 0 -1 0 I I #
coedge $-1 -1 $-1 $264 $266 $187 $276 reversed $180 $-1 #
edge $-1 -1 $-1 $279 -0.375 $282 0.375 $275 $375 forward @7 unknown #
coedge $-1 -1 $-1 $270 $188 $193 $285 forward $262 $-1 #
coedge $-1 -1 $-1 $188 $270 $264 $366 reversed $262 $-1 #
vertex $-1 -1 $-1 $189 $376 #
straight-curve $-1 -1 $-1 0 0.375 0.12475 -1 0 0 I I #
coedge $-1 -1 $-1 $190 $265 $192 $284 reversed $122 $-1 #
vertex $-1 -1 $-1 $276 $377 #
straight-curve $-1 -1 $-1 0 -0.375 0.12475 1 0 0 I I #
edge $-1 -1 $-1 $195 -0.12475 $273 0.12475 $192 $378 forward @7 unknown #
edge $-1 -1 $-1 $196 -0.12475 $272 0.12475 $193 $379 forward @7 unknown #
point $-1 -1 $-1 0.12475 -0.375 0.12475 #
point $-1 -1 $-1 0.12475 0.375 0.12475 #
coedge $-1 -1 $-1 $288 $288 $199 $289 forward $198 $-1 #
edge $-1 -1 $-1 $380 0 $380 6.2831853071795862 $288 $381 forward @7 unknown #
vertex $-1 -1 $-1 $200 $382 #
ellipse-curve $-1 -1 $-1 0 0 -0.046899999999999997 0 0 -1 0.12475 0 0 1 I I #
point $-1 -1 $-1 -0.070594544750013227 8.6450528046064339e-018 0.046899999999999997 #
coedge $-1 -1 $-1 $293 $293 $204 $294 forward $203 $-1 #
edge $-1 -1 $-1 $383 0 $383 6.2831853071795862 $293 $384 forward @7 unknown #
vertex $-1 -1 $-1 $205 $385 #
ellipse-curve $-1 -1 $-1 0 0 -0.010000000000000009 0 0 -1 0.093899999999999997 0 0 1 I I #
point $-1 -1 $-1 -0.073899999999999993 9.0498409547473665e-018 0.010000000000000009 #
face $-1 -1 $-1 $386 $387 $33 $-1 $388 reversed single #
loop $-1 -1 $-1 $-1 $321 $208 #
plane-surface $-1 -1 $-1 0 0 0.12475 0 0 1 1 0 0 forward_v I I I I #
coedge $-1 -1 $-1 $389 $390 $391 $304 reversed $209 $-1 #
coedge $-1 -1 $-1 $216 $210 $392 $393 reversed $144 $-1 #
coedge $-1 -1 $-1 $210 $216 $394 $395 reversed $144 $-1 #
edge $-1 -1 $-1 $396 -0.75 $397 0 $391 $398 forward @7 unknown #
coedge $-1 -1 $-1 $212 $211 $399 $400 reversed $95 $-1 #
coedge $-1 -1 $-1 $401 $402 $403 $307 forward $404 $-1 #
edge $-1 -1 $-1 $405 -0.75 $311 0 $306 $406 forward @7 unknown #
coedge $-1 -1 $-1 $309 $213 $407 $408 reversed $310 $-1 #
coedge $-1 -1 $-1 $213 $308 $401 $409 forward $310 $-1 #
loop $-1 -1 $-1 $-1 $213 $410 #
vertex $-1 -1 $-1 $411 $412 #
vertex $-1 -1 $-1 $413 $414 #
ellipse-curve $-1 -1 $-1 -1.3877787807814457e-017 0.375 0 0 -1 0 -0.12475 0 0 1 I I #
coedge $-1 -1 $-1 $415 $416 $215 $315 forward $417 $-1 #
edge $-1 -1 $-1 $312 -1.5707963267948966 $317 0 $314 $313 forward @7 unknown #
coedge $-1 -1 $-1 $418 $419 $420 $217 forward $387 $-1 #
vertex $-1 -1 $-1 $421 $422 #
straight-curve $-1 -1 $-1 -0.12475 0.375 0 0 1 0 I I #
coedge $-1 -1 $-1 $423 $218 $416 $413 forward $322 $-1 #
coedge $-1 -1 $-1 $218 $423 $220 $324 forward $322 $-1 #
coedge $-1 -1 $-1 $424 $407 $212 $219 reversed $299 $-1 #
loop $-1 -1 $-1 $-1 $218 $425 #
straight-curve $-1 -1 $-1 -1.3877787807814457e-017 0.375 0.12475 0 1 0 I I #
edge $-1 -1 $-1 $426 -0.12475 $224 -1.3877787807814457e-017 $220 $427 forward @7 unknown #
coedge $-1 -1 $-1 $428 $420 $221 $326 reversed $429 $-1 #
edge $-1 -1 $-1 $426 -0.12475 $223 0 $325 $430 forward @7 unknown #
face $-1 -1 $-1 $431 $222 $33 $-1 $432 reversed single #
edge $-1 -1 $-1 $223 0 $433 0.12475 $419 $430 forward @7 unknown #
point $-1 -1 $-1 -0.12475 -0.375 0 #
edge $-1 -1 $-1 $224 -1.3877787807814457e-017 $434 0.12475 $435 $427 forward @7 unknown #
point $-1 -1 $-1 -1.3877787807814457e-017 -0.375 0.12475 #
loop $-1 -1 $-1 $436 $338 $226 #
plane-surface $-1 -1 $-1 0 -0.375 0 0 1 0 0 0 1 forward_v I I I I #
loop $-1 -1 $-1 $-1 $336 $150 #
coedge $-1 -1 $-1 $335 $335 $437 $438 reversed $227 $-1 #
coedge $-1 -1 $-1 $336 $336 $230 $337 reversed $334 $-1 #
edge $439 -1 $-1 $440 -3.1415926535897931 $440 3.1415926535897931 $336 $441 forward @7 unknown #
coedge $-1 -1 $-1 $338 $338 $231 $339 forward $332 $-1 #
edge $-1 -1 $-1 $442 -3.1415926535897931 $442 3.1415926535897931 $338 $443 forward @7 unknown #
convexity-sys-attrib $-1 -1 $-1 $-1 $233 #
vertex $-1 -1 $-1 $233 $444 #
ellipse-curve $-1 -1 $-1 -1.3877787807814457e-017 0.031200000000000006 0 0 1 0 0 0 -0.093899999999999997 1 I I #
edge_name-twe-attrib $-1 -1 $-1 $234 $159 5 8704 #
point $-1 -1 $-1 0.093899999999999983 0.0012000000000001922 -1.14994314602624e-017 #
cur-twe-attrib $-1 -1 $-1 $-1 $236 101 #
face_name-twe-attrib $-1 -1 $-1 $238 $162 6 #
model_id-kcp-attrib $-1 -1 $445 $-1 $239 1 1021385824 1021385824 1047527425 8 #
face $446 -1 $-1 $-1 $447 $10 $-1 $448 forward single #
loop $449 -1 $-1 $450 $451 $239 #
cone-surface $452 -1 $-1 0.093899999999999997 0.39629999999999999 0 0 -1 0 -0.093899999999999997 0 0 1 I I 0 1 0.093899999999999997 forward I I I I #
surf-twe-attrib $-1 -1 $-1 $-1 $240 41 #
loop_type-twe-attrib $-1 -1 $-1 $-1 $242 1 #
edge $453 -1 $-1 $454 -3.1415926535897931 $454 3.1415926535897931 $243 $455 forward @7 unknown #
loop_type-twe-attrib $-1 -1 $-1 $-1 $247 1 #
convexity-sys-attrib $-1 -1 $456 $248 $169 #
point $-1 -1 $-1 0.1678 -0.39119999999999999 9.0501382844876794e-018 #
cur-twe-attrib $-1 -1 $-1 $-1 $250 48 #
convexity-sys-attrib $-1 -1 $457 $251 $171 #
point $-1 -1 $-1 0.21865000000000001 0.014999999999999999 1.5277466183894999e-017 #
cur-twe-attrib $-1 -1 $-1 $-1 $253 50 #
loop_type-twe-attrib $-1 -1 $-1 $-1 $255 1 #
coedge $-1 -1 $-1 $362 $362 $451 $458 reversed $255 $-1 #
edge_name-twe-attrib $-1 -1 $-1 $256 $116 4 20480 #
plane-surface $-1 -1 $-1 0.12475 0 0 -1 0 0 0 0 1 forward_v I I I I #
coedge $-1 -1 $-1 $266 $264 $268 $369 reversed $180 $-1 #
edge $-1 -1 $-1 $279 -0.12475 $371 0.12475 $278 $459 forward @7 unknown #
vertex $-1 -1 $-1 $369 $460 #
straight-curve $-1 -1 $-1 -0.12475 -0.375 0 0 0 -1 I I #
edge $-1 -1 $-1 $367 -0.375 $371 0.375 $365 $461 forward @7 unknown #
straight-curve $-1 -1 $-1 0 -0.375 -0.12475 -1 0 0 I I #
vertex $-1 -1 $-1 $271 $462 #
straight-curve $-1 -1 $-1 0 0.375 -0.12475 1 0 0 I I #
point $-1 -1 $-1 0.12475 0.375 -0.12475 #
point $-1 -1 $-1 0.12475 -0.375 -0.12475 #
straight-curve $-1 -1 $-1 -0.12475 0 0.12475 0 -1 0 I I #
point $-1 -1 $-1 -0.12475 0.375 0.12475 #
point $-1 -1 $-1 -0.12475 -0.375 0.12475 #
straight-curve $-1 -1 $-1 0.12475 -0.375 0 0 0 -1 I I #
straight-curve $-1 -1 $-1 0.12475 0.375 0 0 0 -1 I I #
vertex $-1 -1 $-1 $289 $463 #
ellipse-curve $-1 -1 $-1 0 0 0.046899999999999997 0 0 1 0.12475 0 0 1 I I #
point $-1 -1 $-1 0.12475 0 -0.046899999999999997 #
vertex $-1 -1 $-1 $294 $464 #
ellipse-curve $-1 -1 $-1 0 0 0.010000000000000009 0 0 1 0.093899999999999997 0 0 1 I I #
point $-1 -1 $-1 0.093899999999999997 0 -0.010000000000000009 #
face $-1 -1 $-1 $465 $466 $33 $-1 $467 reversed single #
loop $-1 -1 $-1 $-1 $316 $298 #
plane-surface $-1 -1 $-1 -0.12475 0 0 1 0 0 0 0 -1 forward_v I I I I #
coedge $-1 -1 $-1 $468 $301 $469 $470 reversed $209 $-1 #
coedge $-1 -1 $-1 $301 $468 $471 $472 reversed $209 $-1 #
coedge $-1 -1 $-1 $473 $474 $475 $304 forward $476 $-1 #
coedge $-1 -1 $-1 $477 $478 $302 $393 forward $479 $-1 #
edge $-1 -1 $-1 $317 0 $397 1.5707963267948966 $392 $313 forward @7 unknown #
coedge $-1 -1 $-1 $480 $481 $303 $395 forward $482 $-1 #
edge $-1 -1 $-1 $396 -1.5707963267948966 $223 0 $394 $225 forward @7 unknown #
vertex $-1 -1 $-1 $483 $484 #
vertex $-1 -1 $-1 $485 $486 #
straight-curve $-1 -1 $-1 -1.3877787807814457e-017 0.375 -0.12475 0 1 0 I I #
coedge $-1 -1 $-1 $487 $435 $305 $400 forward $488 $-1 #
edge $-1 -1 $-1 $224 1.5707963267948966 $405 3.1415926535897931 $399 $225 forward @7 unknown #
coedge $-1 -1 $-1 $489 $306 $309 $409 reversed $404 $-1 #
coedge $-1 -1 $-1 $306 $489 $487 $490 forward $404 $-1 #
coedge $-1 -1 $-1 $491 $492 $468 $307 reversed $466 $-1 #
loop $-1 -1 $-1 $-1 $306 $493 #
vertex $-1 -1 $-1 $494 $495 #
straight-curve $-1 -1 $-1 0.12475 0.375 0 0 1 0 I I #
coedge $-1 -1 $-1 $321 $496 $308 $408 forward $299 $-1 #
edge $-1 -1 $-1 $497 -0.12475 $312 1.3877787807814457e-017 $308 $498 forward @7 unknown #
edge $-1 -1 $-1 $497 -0.12475 $311 0 $401 $499 forward @7 unknown #
face $-1 -1 $-1 $500 $310 $33 $-1 $501 reversed single #
edge $-1 -1 $-1 $311 0 $502 0.12475 $492 $499 forward @7 unknown #
point $-1 -1 $-1 0.12475 0.375 0 #
edge $-1 -1 $-1 $312 1.3877787807814457e-017 $503 0.12475 $416 $498 forward @7 unknown #
point $-1 -1 $-1 -1.3877787807814457e-017 0.375 0.12475 #
coedge $-1 -1 $-1 $416 $314 $504 $505 reversed $417 $-1 #
coedge $-1 -1 $-1 $314 $415 $319 $413 reversed $417 $-1 #
loop $-1 -1 $-1 $-1 $314 $500 #
coedge $-1 -1 $-1 $506 $316 $478 $421 forward $387 $-1 #
coedge $-1 -1 $-1 $316 $506 $480 $328 reversed $387 $-1 #
coedge $-1 -1 $-1 $325 $504 $146 $217 reversed $429 $-1 #
edge $-1 -1 $-1 $317 0 $507 0.12475 $478 $508 forward @7 unknown #
point $-1 -1 $-1 -0.12475 0.375 0 #
coedge $-1 -1 $-1 $320 $319 $428 $509 forward $322 $-1 #
coedge $-1 -1 $-1 $496 $321 $435 $330 forward $299 $-1 #
face $-1 -1 $-1 $510 $322 $33 $-1 $300 forward single #
vertex $-1 -1 $-1 $509 $511 #
straight-curve $-1 -1 $-1 0 -0.375 0.12475 1 0 0 I I #
coedge $-1 -1 $-1 $504 $325 $423 $509 reversed $429 $-1 #
loop $-1 -1 $-1 $-1 $420 $512 #
straight-curve $-1 -1 $-1 -0.12475 -0.375 0 0 0 -1 I I #
face $-1 -1 $-1 $513 $488 $33 $-1 $432 reversed single #
plane-surface $-1 -1 $-1 0 -0.375 0 0 1 0 0 0 1 forward_v I I I I #
vertex $-1 -1 $-1 $514 $515 #
vertex $-1 -1 $-1 $516 $517 #
coedge $-1 -1 $-1 $399 $487 $424 $330 reversed $488 $-1 #
loop $-1 -1 $-1 $-1 $437 $226 #
coedge $-1 -1 $-1 $437 $437 $335 $438 forward $436 $-1 #
edge $-1 -1 $-1 $518 -1.5707963267948966 $518 4.7123889803846897 $437 $519 forward @7 unknown #
convexity-sys-attrib $-1 -1 $-1 $-1 $337 #
vertex $-1 -1 $-1 $337 $520 #
ellipse-curve $-1 -1 $-1 -1.3877787807814457e-017 0.031200000000000006 0 0 1 0 -0.12475 0 0 1 I I #
vertex $-1 -1 $-1 $339 $521 #
ellipse-curve $-1 -1 $-1 -1.3877787807814457e-017 -0.375 0 0 1 0 -0.093899999999999997 0 0 1 I I #
point $-1 -1 $-1 -0.093899999999999997 0.031199999999999992 0 #
face_name-twe-attrib $-1 -1 $-1 $347 $239 7 #
model_id-kcp-attrib $-1 -1 $522 $-1 $348 1 1021385824 1021385824 1047527425 9 #
loop $523 -1 $-1 $247 $524 $348 #
cone-surface $525 -1 $-1 0.093899999999999997 -0.37119999999999997 0 0 1 0 -0.093899999999999997 0 0 1 I I 0.70710678118654702 0.70710678118654802 0.093899999999999997 forward I I I I #
loop_type-twe-attrib $-1 -1 $-1 $-1 $349 0 #
loop $526 -1 $-1 $-1 $527 $239 #
coedge $-1 -1 $-1 $451 $451 $362 $458 forward $349 $-1 #
surf-twe-attrib $-1 -1 $-1 $-1 $350 58 #
attrib_edge_convexity-kcp-attrib $-1 -1 $528 $-1 $353 1 #
vertex $-1 -1 $-1 $353 $529 #
ellipse-curve $530 -1 $-1 0.093899999999999997 0.26500000000000001 0 0 -1 0 -0.12475 0 0 1 I I #
edge_name-twe-attrib $-1 -1 $-1 $355 $169 7 8448 #
edge_name-twe-attrib $-1 -1 $-1 $358 $171 3 8704 #
edge $531 -1 $-1 $532 -3.1415926535897931 $532 3.1415926535897931 $451 $533 forward @7 unknown #
straight-curve $-1 -1 $-1 -0.12475 0.375 0 0 0 -1 I I #
point $-1 -1 $-1 -0.12475 -0.375 -0.12475 #
straight-curve $-1 -1 $-1 -0.12475 0 -0.12475 0 1 0 I I #
point $-1 -1 $-1 -0.12475 0.375 -0.12475 #
point $-1 -1 $-1 0.12475 0 0.046899999999999997 #
point $-1 -1 $-1 0.093899999999999997 0 0.010000000000000009 #
face $-1 -1 $-1 $410 $534 $33 $-1 $501 reversed single #
loop $-1 -1 $-1 $-1 $403 $386 #
plane-surface $-1 -1 $-1 0.12475 0 0 -1 0 0 0 0 1 forward_v I I I I #
coedge $-1 -1 $-1 $390 $389 $211 $307 forward $209 $-1 #
coedge $-1 -1 $-1 $535 $536 $389 $470 forward $537 $-1 #
edge $-1 -1 $-1 $405 -3.1415926535897931 $396 -1.5707963267948966 $469 $225 forward @7 unknown #
coedge $-1 -1 $-1 $538 $539 $390 $472 forward $534 $-1 #
edge $-1 -1 $-1 $397 1.5707963267948966 $311 3.1415926535897931 $471 $313 forward @7 unknown #
coedge $-1 -1 $-1 $540 $391 $539 $485 forward $476 $-1 #
coedge $-1 -1 $-1 $391 $540 $535 $541 forward $476 $-1 #
coedge $-1 -1 $-1 $542 $543 $210 $304 reversed $544 $-1 #
loop $-1 -1 $-1 $-1 $391 $510 #
coedge $-1 -1 $-1 $478 $392 $543 $545 reversed $479 $-1 #
coedge $-1 -1 $-1 $392 $477 $418 $421 reversed $479 $-1 #
loop $-1 -1 $-1 $-1 $392 $546 #
coedge $-1 -1 $-1 $481 $394 $419 $328 forward $482 $-1 #
coedge $-1 -1 $-1 $394 $480 $542 $483 reversed $482 $-1 #
loop $-1 -1 $-1 $-1 $394 $547 #
edge $-1 -1 $-1 $396 1.3877787807814457e-017 $433 0.12475 $481 $548 forward @7 unknown #
point $-1 -1 $-1 -1.3877787807814457e-017 -0.375 -0.12475 #
edge $-1 -1 $-1 $397 -1.3877787807814457e-017 $502 0.12475 $539 $549 forward @7 unknown #
point $-1 -1 $-1 -1.3877787807814457e-017 0.375 -0.12475 #
coedge $-1 -1 $-1 $435 $399 $402 $490 reversed $488 $-1 #
loop $-1 -1 $-1 $-1 $399 $431 #
coedge $-1 -1 $-1 $402 $401 $496 $516 reversed $404 $-1 #
edge $-1 -1 $-1 $434 -0.12475 $405 0 $402 $550 forward @7 unknown #
coedge $-1 -1 $-1 $551 $403 $536 $494 forward $466 $-1 #
coedge $-1 -1 $-1 $403 $551 $538 $411 reversed $466 $-1 #
face $-1 -1 $-1 $-1 $404 $33 $-1 $467 reversed single #
edge $-1 -1 $-1 $405 0 $552 0.12475 $491 $550 forward @7 unknown #
point $-1 -1 $-1 0.12475 -0.375 0 #
coedge $-1 -1 $-1 $407 $424 $489 $516 forward $299 $-1 #
vertex $-1 -1 $-1 $516 $553 #
straight-curve $-1 -1 $-1 0 0.375 0.12475 -1 0 0 I I #
straight-curve $-1 -1 $-1 0.12475 0.375 0 0 0 -1 I I #
face $-1 -1 $-1 $546 $417 $33 $-1 $501 reversed single #
plane-surface $-1 -1 $-1 0 0.375 0 0 -1 0 0 0 -1 forward_v I I I I #
vertex $-1 -1 $-1 $554 $555 #
vertex $-1 -1 $-1 $413 $556 #
coedge $-1 -1 $-1 $420 $428 $415 $505 forward $429 $-1 #
edge $-1 -1 $-1 $503 -0.12475 $317 0 $415 $508 forward @7 unknown #
coedge $-1 -1 $-1 $419 $418 $557 $514 reversed $387 $-1 #
vertex $-1 -1 $-1 $545 $558 #
straight-curve $-1 -1 $-1 -0.12475 0.375 0 0 0 -1 I I #
edge $-1 -1 $-1 $503 -0.375 $426 0.375 $428 $559 forward @7 unknown #
face $-1 -1 $-1 $512 $476 $33 $-1 $560 reversed single #
point $-1 -1 $-1 -0.12475 -0.375 0.12475 #
face $-1 -1 $-1 $493 $429 $33 $-1 $388 reversed single #
face $-1 -1 $-1 $561 $537 $33 $-1 $432 reversed single #
edge $-1 -1 $-1 $433 -0.375 $507 0.375 $506 $562 forward @7 unknown #
point $-1 -1 $-1 -0.12475 -0.375 -0.12475 #
edge $-1 -1 $-1 $434 -0.375 $497 0.375 $489 $563 forward @7 unknown #
point $-1 -1 $-1 0.12475 -0.375 0.12475 #
vertex $-1 -1 $-1 $438 $564 #
ellipse-curve $-1 -1 $-1 -1.3877787807814457e-017 -0.375 0 0 -1 0 -0.12475 0 0 1 I I #
point $-1 -1 $-1 0.12474999999999999 0.031200000000000006 -1.5276964263934156e-017 #
point $-1 -1 $-1 0.093899999999999983 -0.375 0 #
face_name-twe-attrib $-1 -1 $-1 $446 $348 8 #
loop_type-twe-attrib $-1 -1 $-1 $-1 $447 0 #
coedge $-1 -1 $-1 $524 $524 $527 $565 forward $447 $-1 #
surf-twe-attrib $-1 -1 $-1 $-1 $448 78 #
loop_type-twe-attrib $-1 -1 $-1 $-1 $450 1 #
coedge $-1 -1 $-1 $527 $527 $524 $565 reversed $450 $-1 #
convexity-sys-attrib $-1 -1 $566 $453 $353 #
point $-1 -1 $-1 0.21865000000000001 0.26500000000000001 -1.5277466183894999e-017 #
cur-twe-attrib $-1 -1 $-1 $-1 $455 83 #
attrib_edge_convexity-kcp-attrib $-1 -1 $567 $-1 $458 1 #
vertex $-1 -1 $-1 $458 $568 #
ellipse-curve $569 -1 $-1 0.093899999999999997 -0.014999999999999999 0 2.0000000000000002e-015 -1 0 -0.093899999999999997 -1.8779999999999999e-016 0 1 I I #
loop $-1 -1 $-1 $-1 $471 $465 #
coedge $-1 -1 $-1 $536 $469 $474 $541 reversed $537 $-1 #
coedge $-1 -1 $-1 $469 $535 $491 $494 reversed $537 $-1 #
loop $-1 -1 $-1 $-1 $469 $513 #
coedge $-1 -1 $-1 $539 $471 $492 $411 forward $534 $-1 #
coedge $-1 -1 $-1 $471 $538 $473 $485 reversed $534 $-1 #
coedge $-1 -1 $-1 $474 $473 $551 $554 forward $476 $-1 #
edge $-1 -1 $-1 $552 -0.12475 $396 1.3877787807814457e-017 $535 $548 forward @7 unknown #
coedge $-1 -1 $-1 $557 $475 $481 $483 forward $544 $-1 #
coedge $-1 -1 $-1 $475 $557 $477 $545 forward $544 $-1 #
loop $-1 -1 $-1 $-1 $475 $561 #
edge $-1 -1 $-1 $507 -0.12475 $397 -1.3877787807814457e-017 $477 $549 forward @7 unknown #
face $-1 -1 $-1 $547 $479 $33 $-1 $501 reversed single #
face $-1 -1 $-1 $327 $482 $33 $-1 $432 reversed single #
straight-curve $-1 -1 $-1 0 -0.375 -0.12475 -1 0 0 I I #
straight-curve $-1 -1 $-1 0 0.375 -0.12475 1 0 0 I I #
straight-curve $-1 -1 $-1 0.12475 -0.375 0 0 0 -1 I I #
coedge $-1 -1 $-1 $492 $491 $540 $554 reversed $466 $-1 #
vertex $-1 -1 $-1 $494 $570 #
point $-1 -1 $-1 0.12475 0.375 0.12475 #
edge $-1 -1 $-1 $502 -0.375 $552 0.375 $551 $571 forward @7 unknown #
point $-1 -1 $-1 0.12475 0.375 -0.12475 #
point $-1 -1 $-1 -0.12475 0.375 0.12475 #
coedge $-1 -1 $-1 $543 $542 $506 $514 forward $544 $-1 #
point $-1 -1 $-1 -0.12475 0.375 -0.12475 #
straight-curve $-1 -1 $-1 -0.12475 0 0.12475 0 -1 0 I I #
plane-surface $-1 -1 $-1 0 0 -0.12475 0 0 1 1 0 0 forward_v I I I I #
face $-1 -1 $-1 $425 $544 $33 $-1 $560 reversed single #
straight-curve $-1 -1 $-1 -0.12475 0 -0.12475 0 1 0 I I #
straight-curve $-1 -1 $-1 0.12475 0 0.12475 0 1 0 I I #
point $-1 -1 $-1 -1.3877787807814457e-017 -0.375 0.12475 #
edge $572 -1 $-1 $573 -3.1415926535897931 $573 3.1415926535897931 $524 $574 forward @7 unknown #
edge_name-twe-attrib $-1 -1 $-1 $528 $353 2 8448 #
convexity-sys-attrib $-1 -1 $575 $531 $458 #
point $-1 -1 $-1 0.18779999999999999 -0.0149999999999998 -1.14994314602624e-017 #
cur-twe-attrib $-1 -1 $-1 $-1 $533 101 #
point $-1 -1 $-1 0.12475 -0.375 -0.12475 #
straight-curve $-1 -1 $-1 0.12475 0 -0.12475 0 -1 0 I I #
attrib_edge_convexity-kcp-attrib $-1 -1 $576 $-1 $565 1 #
vertex $-1 -1 $-1 $565 $577 #
ellipse-curve $578 -1 $-1 0.093899999999999997 -0.37119999999999997 0 0 -1 0 -0.093899999999999997 0 0 1 I I #
edge_name-twe-attrib $-1 -1 $-1 $567 $458 5 8704 #
convexity-sys-attrib $-1 -1 $579 $572 $565 #
point $-1 -1 $-1 0.18779999999999999 -0.37119999999999997 -1.14994314602624e-017 #
cur-twe-attrib $-1 -1 $-1 $-1 $574 112 #
edge_name-twe-attrib $-1 -1 $-1 $576 $565 6 8448 #
End-of-ACIS-data 