600 0 2 0           
24 FBMach with ACIS - 6.0.3 13 ACIS 6.0.3 NT 24 Tue May 22 12:38:37 2001 
1 9.9999999999999995e-007 1e-010 
body $2 $3 $-1 $4 #
bdycol-kcp $-1 1 1 $5 #
model_id-kcp-attrib $-1 $-1 $-1 $0 1 990549517 50 1060241409 1 #
lump $-1 $-1 $6 $0 #
transform $-1 1 0 0 0 1 0 0 0 1 0 0 0 1 no_rotate no_reflect no_shear #
body $7 $8 $-1 $9 #
shell $-1 $-1 $-1 $10 $-1 $3 #
model_id-kcp-attrib $-1 $-1 $-1 $5 1 990549517 50 1060241410 1 #
lump $-1 $-1 $11 $5 #
transform $-1 1 0 0 0 1 0 0 0 1 0 0 0 1 no_rotate no_reflect no_shear #
face $12 $13 $14 $6 $-1 $15 forward single #
shell $-1 $-1 $-1 $16 $-1 $8 #
model_id-kcp-attrib $-1 $-1 $-1 $10 1 990549517 50 1060241409 2 #
face $17 $18 $19 $6 $-1 $20 reversed single #
loop $-1 $-1 $21 $10 #
plane-surface $-1 0 0 15 0 0 1 1 0 0 forward_v I I I I #
face $22 $23 $24 $11 $-1 $25 forward single #
model_id-kcp-attrib $-1 $-1 $-1 $13 1 990549517 50 1060241409 3 #
face $26 $27 $28 $6 $-1 $29 reversed single #
loop $-1 $-1 $30 $13 #
plane-surface $-1 0 0 -15 0 0 1 1 0 0 forward_v I I I I #
coedge $-1 $31 $32 $33 $34 forward $14 $-1 #
model_id-kcp-attrib $-1 $-1 $-1 $16 1 990549517 50 1060241410 2 #
face $35 $36 $37 $11 $-1 $38 reversed single #
loop $-1 $-1 $39 $16 #
plane-surface $-1 0 0 15 0 0 1 1 0 0 forward_v I I I I #
model_id-kcp-attrib $-1 $-1 $-1 $18 1 990549517 50 1060241409 4 #
face $40 $41 $42 $6 $-1 $43 reversed single #
loop $-1 $-1 $44 $18 #
plane-surface $-1 0 -32.5 0 0 1 0 0 0 1 forward_v I I I I #
coedge $-1 $45 $46 $47 $48 forward $19 $-1 #
coedge $-1 $49 $21 $50 $51 forward $14 $-1 #
coedge $-1 $21 $49 $52 $53 forward $14 $-1 #
coedge $-1 $54 $55 $21 $34 reversed $56 $-1 #
edge $57 $58 -32.5 $59 32.5 $33 $60 forward 7 unknown #
model_id-kcp-attrib $-1 $-1 $-1 $23 1 990549517 50 1060241410 3 #
face $61 $62 $63 $11 $-1 $64 reversed single #
loop $-1 $-1 $65 $23 #
plane-surface $-1 0 0 -15 0 0 1 1 0 0 forward_v I I I I #
coedge $-1 $66 $67 $68 $69 forward $24 $-1 #
model_id-kcp-attrib $-1 $-1 $-1 $27 1 990549517 50 1060241409 5 #
face $70 $71 $72 $6 $-1 $73 reversed single #
loop $-1 $-1 $74 $27 #
plane-surface $-1 -51 0 0 1 0 0 0 0 -1 forward_v I I I I #
coedge $-1 $75 $52 $76 $77 forward $28 $-1 #
coedge $-1 $78 $30 $75 $79 forward $19 $-1 #
coedge $-1 $30 $78 $80 $81 forward $19 $-1 #
coedge $-1 $55 $54 $30 $48 reversed $56 $-1 #
edge $-1 $82 -32.5 $83 32.5 $47 $84 forward 7 unknown #
coedge $-1 $32 $31 $85 $86 forward $14 $-1 #
coedge $-1 $87 $88 $31 $51 reversed $72 $-1 #
edge $89 $59 -51 $90 51 $50 $91 forward 7 unknown #
coedge $-1 $44 $92 $32 $53 reversed $28 $-1 #
edge $93 $94 -51 $58 51 $52 $95 forward 7 unknown #
coedge $-1 $47 $33 $92 $96 forward $56 $-1 #
coedge $-1 $33 $47 $87 $97 reversed $56 $-1 #
loop $-1 $-1 $54 $71 #
attrib_edge_convexity-kcp-attrib $-1 $98 $-1 $34 1 #
vertex $-1 $34 $99 #
vertex $-1 $34 $100 #
straight-curve $-1 51 0 15 0 1 0 I I #
model_id-kcp-attrib $-1 $-1 $-1 $36 1 990549517 50 1060241410 4 #
face $101 $102 $103 $11 $-1 $104 reversed single #
loop $-1 $-1 $105 $36 #
plane-surface $-1 0 -32.5 0 0 1 0 0 0 1 forward_v I I I I #
coedge $-1 $106 $107 $108 $109 forward $37 $-1 #
coedge $-1 $110 $39 $111 $112 forward $24 $-1 #
coedge $-1 $39 $110 $113 $114 forward $24 $-1 #
coedge $-1 $115 $116 $39 $69 reversed $117 $-1 #
edge $-1 $118 -32.5 $119 32.5 $68 $120 forward 7 unknown #
model_id-kcp-attrib $-1 $-1 $-1 $41 1 990549517 50 1060241409 6 #
face $121 $-1 $56 $6 $-1 $122 reversed single #
loop $-1 $-1 $87 $41 #
plane-surface $-1 0 32.5 0 0 -1 0 0 0 -1 forward_v I I I I #
coedge $-1 $123 $85 $88 $124 forward $42 $-1 #
coedge $-1 $92 $44 $45 $79 reversed $28 $-1 #
coedge $-1 $85 $123 $44 $77 reversed $42 $-1 #
edge $125 $94 -15 $126 15 $76 $127 forward 7 unknown #
coedge $-1 $46 $45 $123 $128 forward $19 $-1 #
edge $129 $83 -51 $126 51 $75 $130 forward 7 unknown #
coedge $-1 $88 $87 $46 $81 reversed $72 $-1 #
edge $-1 $131 -51 $82 51 $80 $132 forward 7 unknown #
vertex $-1 $48 $133 #
vertex $-1 $96 $134 #
straight-curve $-1 51 0 -15 0 -1 0 I I #
coedge $-1 $74 $76 $49 $86 reversed $42 $-1 #
edge $135 $90 -32.5 $94 32.5 $85 $136 forward 7 unknown #
coedge $-1 $80 $50 $55 $97 forward $72 $-1 #
coedge $-1 $50 $80 $74 $124 reversed $72 $-1 #
attrib_edge_convexity-kcp-attrib $-1 $137 $-1 $51 1 #
vertex $-1 $51 $138 #
straight-curve $-1 0 32.5 15 -1 0 0 I I #
coedge $-1 $52 $75 $54 $96 reversed $28 $-1 #
attrib_edge_convexity-kcp-attrib $-1 $139 $-1 $53 1 #
vertex $-1 $86 $140 #
straight-curve $-1 0 -32.5 15 1 0 0 I I #
edge $141 $58 -15 $83 15 $54 $142 forward 7 unknown #
edge $-1 $59 -15 $82 15 $55 $143 forward 7 unknown #
convexity-sys-attrib $-1 $-1 $57 $34 #
point $-1 51 -32.5 15 #
point $-1 51 32.5 15 #
model_id-kcp-attrib $-1 $-1 $-1 $62 1 990549517 50 1060241410 5 #
face $144 $145 $146 $11 $-1 $147 reversed single #
loop $-1 $-1 $148 $62 #
plane-surface $-1 -51 0 0 1 0 0 0 0 -1 forward_v I I I I #
coedge $-1 $149 $113 $150 $151 forward $63 $-1 #
coedge $-1 $152 $65 $149 $153 forward $37 $-1 #
coedge $-1 $65 $152 $154 $155 forward $37 $-1 #
coedge $-1 $116 $115 $65 $109 reversed $117 $-1 #
edge $-1 $156 -32.5 $157 32.5 $108 $158 forward 7 unknown #
coedge $-1 $67 $66 $159 $160 forward $24 $-1 #
coedge $-1 $161 $162 $66 $112 reversed $146 $-1 #
edge $-1 $119 -51 $163 51 $111 $164 forward 7 unknown #
coedge $-1 $105 $165 $67 $114 reversed $63 $-1 #
edge $-1 $166 -51 $118 51 $113 $167 forward 7 unknown #
coedge $-1 $108 $68 $165 $168 forward $117 $-1 #
coedge $-1 $68 $108 $161 $169 reversed $117 $-1 #
loop $-1 $-1 $115 $145 #
vertex $-1 $69 $170 #
vertex $-1 $69 $171 #
straight-curve $-1 51 0 15 0 1 0 I I #
model_id-kcp-attrib $-1 $-1 $-1 $71 1 990549517 50 1060241409 7 #
plane-surface $-1 51 0 0 -1 0 0 0 0 1 forward_v I I I I #
coedge $-1 $76 $74 $78 $128 reversed $42 $-1 #
edge $172 $90 -15 $131 15 $88 $173 forward 7 unknown #
attrib_edge_convexity-kcp-attrib $-1 $174 $-1 $77 1 #
vertex $-1 $128 $175 #
straight-curve $-1 -51 -32.5 0 0 0 -1 I I #
edge $176 $126 -32.5 $131 32.5 $123 $177 forward 7 unknown #
attrib_edge_convexity-kcp-attrib $-1 $178 $-1 $79 1 #
straight-curve $-1 0 -32.5 -15 -1 0 0 I I #
vertex $-1 $81 $179 #
straight-curve $-1 0 32.5 -15 1 0 0 I I #
point $-1 51 32.5 -15 #
point $-1 51 -32.5 -15 #
attrib_edge_convexity-kcp-attrib $-1 $180 $-1 $86 1 #
straight-curve $-1 -51 0 15 0 -1 0 I I #
convexity-sys-attrib $-1 $-1 $89 $51 #
point $-1 -51 32.5 15 #
convexity-sys-attrib $-1 $-1 $93 $53 #
point $-1 -51 -32.5 15 #
attrib_edge_convexity-kcp-attrib $-1 $181 $-1 $96 1 #
straight-curve $-1 51 -32.5 0 0 0 -1 I I #
straight-curve $-1 51 32.5 0 0 0 -1 I I #
model_id-kcp-attrib $-1 $-1 $-1 $102 1 990549517 50 1060241410 6 #
face $182 $-1 $117 $11 $-1 $183 reversed single #
loop $-1 $-1 $161 $102 #
plane-surface $-1 0 32.5 0 0 -1 0 0 0 -1 forward_v I I I I #
coedge $-1 $184 $159 $162 $185 forward $103 $-1 #
coedge $-1 $165 $105 $106 $153 reversed $63 $-1 #
coedge $-1 $159 $184 $105 $151 reversed $103 $-1 #
edge $-1 $166 -15 $186 15 $150 $187 forward 7 unknown #
coedge $-1 $107 $106 $184 $188 forward $37 $-1 #
edge $-1 $157 -51 $186 51 $149 $189 forward 7 unknown #
coedge $-1 $162 $161 $107 $155 reversed $146 $-1 #
edge $-1 $190 -51 $156 51 $154 $191 forward 7 unknown #
vertex $-1 $109 $192 #
vertex $-1 $168 $193 #
straight-curve $-1 51 0 -15 0 -1 0 I I #
coedge $-1 $148 $150 $110 $160 reversed $103 $-1 #
edge $-1 $163 -32.5 $166 32.5 $159 $194 forward 7 unknown #
coedge $-1 $154 $111 $116 $169 forward $146 $-1 #
coedge $-1 $111 $154 $148 $185 reversed $146 $-1 #
vertex $-1 $112 $195 #
straight-curve $-1 0 32.5 15 -1 0 0 I I #
coedge $-1 $113 $149 $115 $168 reversed $63 $-1 #
vertex $-1 $160 $196 #
straight-curve $-1 0 -32.5 15 1 0 0 I I #
edge $-1 $118 -15 $157 15 $115 $197 forward 7 unknown #
edge $-1 $119 -15 $156 15 $116 $198 forward 7 unknown #
point $-1 51 -32.5 15 #
point $-1 51 32.5 15 #
attrib_edge_convexity-kcp-attrib $-1 $199 $-1 $124 1 #
straight-curve $-1 -51 32.5 0 0 0 -1 I I #
convexity-sys-attrib $-1 $-1 $125 $77 #
point $-1 -51 -32.5 -15 #
attrib_edge_convexity-kcp-attrib $-1 $200 $-1 $128 1 #
straight-curve $-1 -51 0 -15 0 1 0 I I #
convexity-sys-attrib $-1 $-1 $129 $79 #
point $-1 -51 32.5 -15 #
convexity-sys-attrib $-1 $-1 $135 $86 #
convexity-sys-attrib $-1 $-1 $141 $96 #
model_id-kcp-attrib $-1 $-1 $-1 $145 1 990549517 50 1060241410 7 #
plane-surface $-1 51 0 0 -1 0 0 0 0 1 forward_v I I I I #
coedge $-1 $150 $148 $152 $188 reversed $103 $-1 #
edge $-1 $163 -15 $190 15 $162 $201 forward 7 unknown #
vertex $-1 $188 $202 #
straight-curve $-1 -51 -32.5 0 0 0 -1 I I #
edge $-1 $186 -32.5 $190 32.5 $184 $203 forward 7 unknown #
straight-curve $-1 0 -32.5 -15 -1 0 0 I I #
vertex $-1 $155 $204 #
straight-curve $-1 0 32.5 -15 1 0 0 I I #
point $-1 51 32.5 -15 #
point $-1 51 -32.5 -15 #
straight-curve $-1 -51 0 15 0 -1 0 I I #
point $-1 -51 32.5 15 #
point $-1 -51 -32.5 15 #
straight-curve $-1 51 -32.5 0 0 0 -1 I I #
straight-curve $-1 51 32.5 0 0 0 -1 I I #
convexity-sys-attrib $-1 $-1 $172 $124 #
convexity-sys-attrib $-1 $-1 $176 $128 #
straight-curve $-1 -51 32.5 0 0 0 -1 I I #
point $-1 -51 -32.5 -15 #
straight-curve $-1 -51 0 -15 0 1 0 I I #
point $-1 -51 32.5 -15 #
End-of-ACIS-data 