**ABCDEFGHIJKLMNOPQRSTUVWXYZabcdefghijklmnopqrstuvwxyz**************************
**PARASOLID !"#$%&'()*+,-./:;<=>?@[\]^_`{|}~0123456789**************************
**PART1;MC=sun;MC_MODEL=sun3;MC_ID=cosmos;OS=SunOS;OS_RELEASE=4.1;FRU=sdl_paraso
lid_test_sun;APPL=unknown;SITE=sdl-cambridge-u.k.;USER=kramer;FORMAT=text;GUISE=
transmit;KEY=cone_cutoff;FILE=cone_cutoff.xmt_txt;DATE=2-dec-1991;
**PART2;SCH=SCH_301017_3000;USFLD_SIZE=0;
**PART3;
**END_OF_HEADER*****************************************************************
T50 : TRANSMIT FILE created by modeller version 30101715 SCH_301017_30000 12 1 1
32 0 0 0 0 0 1e3 1e-8 2 2 0 0 3 1 4 102 11 2 cone_cutoff13 4 2 0 1 0 5 6 7 8 9 1
0 14 5 54 0 11 0 12 4 8 -16 6 62 0 13 0 14 9 18 7 80 0 15 0 16 10 50 8 96 0 5 17
 0 0 +0 0 0 -1 0 0 0 0 1 30 9 100 0 6 18 0 0 -0 0 8 0 .447213595499958 -.8944271
90999916 29 10 118 0 7 19 0 0 3 2 29 19 120 0 16 20 10 0 -4 0 18 16 82 0 21 7 22
 19 29 20 121 0 22 23 19 0 4 0 18 22 83 0 24 16 25 20 29 23 26 0 25 0 20 0 -3 2
 18 25 24 0 26 22 0 23 17 26 27 28 29 25 30 14 15 27 31 0 24 31 0 17 28 27 24 26
 7 32 33 17 29 27 26 24 16 34 35 17 30 12 36 37 16 26 14 16 14 64 0 30 6 38 18 1
6 38 67 0 21 14 39 40 30 18 102 0 14 40 9 0 -0 0 8 0 .447213595499958 .894427190
999916 30 40 105 0 38 41 18 0 +0 0 0 0 -1 0 30 41 37 0 39 42 40 0 +0 0 2 0 -1 0
 16 39 35 0 37 38 33 41 31 42 27 0 33 43 41 0 +0 0 2 0 0 -1 -1 0 0 3 16 33 25 0
 28 39 35 42 31 43 13 0 35 0 42 0 +0 0 0 0 0 1 1 0 0 4 16 35 9 0 29 33 0 43 17 3
7 12 30 13 25 15 39 15 12 55 0 13 5 0 17 13 12 37 36 7 24 6 17 15 44 32 32 7 37
 39 15 44 36 0 15 45 0 17 32 44 15 15 25 28 33 14 45 6 0 31 11 44 4 46 +14 31 1
 0 0 45 27 4 17 +14 11 12 0 45 5 47 4 48 +50 46 8 0 45 0 48 0 +0 0 2 0 0 1 1 0 0
 50 48 14 0 11 46 17 0 +0 0 0 0 0 -1 -1 0 0 52 17 15 0 31 48 8 0 +0 0 2 0 0 -1 3
 .447213595499958 .894427190999916 -1 0 0 15 47 41 0 21 11 0 17 21 47 34 34 16 3
6 38 17 34 47 21 21 22 29 35 17 36 12 13 30 22 21 38 17 24 27 29 28 22 13 6 1 0
 
