600 0 1 0           
7 Unknown 16 ACIS 6.0 Solaris 24 Thu Aug 17 17:44:14 2000 
-1 9.999999999999999547e-07 1.000000000000000036e-10 
body $1 $2 $-1 $-1 #
attrib_gssl_step_cc1_details-attrib_gssl_step-attrib $-1 $-1 $-1 $0 $3 $4 $5 $6 $7 $8 $9 $10 $11 $12 $13 $14 $15 $16 $17 $18 $19 $20 $21 $22 $23 $24 $25 $26 $27 $28 $29 $30 $31 $32 $33 $34 #
lump $-1 $-1 $35 $0 #
attrib_gssl_step_product_details-attrib_gssl_step-attrib $-1 $-1 $-1 $-1 7 Product 9 Test Part 1 1 6 detail 0  #
attrib_gssl_step_application_details-attrib_gssl_step-attrib $-1 $-1 $-1 $-1 70 configuration controlled 3d designs of mechanical parts and assemblies 22 International Standard 21 config_control_design 1994 #
attrib_gssl_step_mech_con_details-attrib_gssl_step-attrib $-1 $-1 $-1 $-1 19 3D Mechanical Parts 10 mechanical #
attrib_gssl_step_des_con_details-attrib_gssl_step-attrib $-1 $-1 $-1 $-1 19 3D Mechanical Parts 6 design #
attrib_gssl_step_person_details-attrib_gssl_step-attrib $-1 $-1 $-1 $-1 1 1 9 Last Name 10 First Name 0 0 0 #
attrib_gssl_step_person_details-attrib_gssl_step-attrib $-1 $-1 $-1 $-1 1 2 9 Last Name 10 First Name 0 0 0 #
attrib_gssl_step_person_details-attrib_gssl_step-attrib $-1 $-1 $-1 $-1 1 3 9 Last Name 10 First Name 0 0 0 #
attrib_gssl_step_person_details-attrib_gssl_step-attrib $-1 $-1 $-1 $-1 1 2 9 Last Name 10 First Name 0 0 0 #
attrib_gssl_step_person_details-attrib_gssl_step-attrib $-1 $-1 $-1 $-1 1 2 9 Last Name 10 First Name 0 0 0 #
attrib_gssl_step_person_details-attrib_gssl_step-attrib $-1 $-1 $-1 $-1 1 3 9 Last Name 10 First Name 0 0 0 #
attrib_gssl_step_person_details-attrib_gssl_step-attrib $-1 $-1 $-1 $-1 1 3 9 Last Name 10 First Name 0 0 0 #
attrib_gssl_step_person_details-attrib_gssl_step-attrib $-1 $-1 $-1 $-1 1 3 9 Last Name 10 First Name 0 0 0 #
attrib_gssl_step_org_details-attrib_gssl_step-attrib $-1 $-1 $-1 $-1 0  3 R&D 3 R&D 12 design_owner #
attrib_gssl_step_org_details-attrib_gssl_step-attrib $-1 $-1 $-1 $-1 0  3 R&D 3 R&D 7 creator #
attrib_gssl_step_org_details-attrib_gssl_step-attrib $-1 $-1 $-1 $-1 0  3 R&D 3 R&D 0  #
attrib_gssl_step_org_details-attrib_gssl_step-attrib $-1 $-1 $-1 $-1 0  3 R&D 3 R&D 7 creator #
attrib_gssl_step_org_details-attrib_gssl_step-attrib $-1 $-1 $-1 $-1 0  3 R&D 3 R&D 15 design_supplier #
attrib_gssl_step_org_details-attrib_gssl_step-attrib $-1 $-1 $-1 $-1 0  3 R&D 3 R&D 0  #
attrib_gssl_step_org_details-attrib_gssl_step-attrib $-1 $-1 $-1 $-1 0  3 R&D 3 R&D 0  #
attrib_gssl_step_org_details-attrib_gssl_step-attrib $-1 $-1 $-1 $-1 0  3 R&D 3 R&D 22 classification_officer #
attrib_gssl_step_datetime_details-attrib_gssl_step-attrib $-1 $-1 $-1 $-1 1996 1 1 0 0 0 5 0 1 13 creation_date #
attrib_gssl_step_datetime_details-attrib_gssl_step-attrib $-1 $-1 $-1 $-1 1996 1 1 0 0 0 5 0 1 0  #
attrib_gssl_step_datetime_details-attrib_gssl_step-attrib $-1 $-1 $-1 $-1 1996 1 1 0 0 0 5 0 1 0  #
attrib_gssl_step_datetime_details-attrib_gssl_step-attrib $-1 $-1 $-1 $-1 1996 1 1 0 0 0 5 0 1 19 classification_date #
attrib_gssl_step_datetime_details-attrib_gssl_step-attrib $-1 $-1 $-1 $-1 1996 1 1 0 0 0 5 0 1 0  #
attrib_gssl_step_security_details-attrib_gssl_step-attrib $-1 $-1 $-1 $-1 7 Version 20 Security for version 12 unclassified #
attrib_gssl_step_approval_details-attrib_gssl_step-attrib $-1 $-1 $-1 $-1 19 Definition approval 16 not_yet_approved 19 definition approval 0  #
attrib_gssl_step_approval_details-attrib_gssl_step-attrib $-1 $-1 $-1 $-1 16 Version approval 16 not_yet_approved 16 version approval 0  #
attrib_gssl_step_approval_details-attrib_gssl_step-attrib $-1 $-1 $-1 $-1 25 Version Security approval 16 not_yet_approved 25 version security approval 0  #
attrib_gssl_step_product_def_form_details-attrib_gssl_step-attrib $-1 $-1 $-1 $-1 9 Test Part 7 Version 0 #
attrib_gssl_step_product_def_details-attrib_gssl_step-attrib $-1 $-1 $-1 $-1 9 Test Part 7 Version #
attrib_gssl_step_product_def_spec_details-attrib_gssl_step-attrib $-1 $-1 $-1 $-1 9 Test Part 7 Version #
shell $-1 $-1 $-1 $36 $-1 $2 #
face $-1 $37 $38 $35 $-1 $39 forward single #
face $-1 $40 $41 $35 $-1 $42 reversed single #
loop $-1 $-1 $43 $36 #
cone-surface $-1 3429 -2921 3.577075159515154379e-13 0 -1.22460635382237997e-16 -1 89.80256121069152186 -89.80256121069152186 1.099727870481360374e-14 1 I I 0 1 127 forward I I I I #
face $-1 $44 $45 $35 $-1 $46 forward single #
loop $-1 $47 $48 $37 #
plane-surface $-1 0 0 0 0 -1.22460635382237997e-16 -1 -25.39999999999999858 0 0 forward_v I I I I #
coedge $-1 $49 $50 $51 $52 forward $38 $-1 #
face $-1 $53 $54 $35 $-1 $55 forward single #
loop $-1 $-1 $51 $40 #
plane-surface $-1 3556 -3048 3.73260016645059831e-13 1 0 0 0 0 -25.39999999999999858 forward_v I I I I #
loop $-1 $-1 $56 $37 #
coedge $-1 $57 $58 $49 $59 reversed $41 $-1 #
coedge $-1 $60 $43 $48 $59 forward $38 $-1 #
coedge $-1 $43 $60 $61 $62 forward $38 $-1 #
coedge $-1 $63 $64 $43 $52 reversed $45 $-1 #
edge $-1 $65 -5.000000000000004441 $66 0 $43 $67 forward 7 unknown #
face $-1 $68 $69 $35 $-1 $70 forward single #
loop $-1 $-1 $71 $44 #
cone-surface $-1 3429 2921 -3.577075159515154379e-13 0 -1.22460635382237997e-16 -1 89.80256121069152186 89.80256121069152186 -1.099727870481360374e-14 1 I I 0 1 127 forward I I I I #
coedge $-1 $72 $73 $74 $75 reversed $47 $-1 #
coedge $-1 $76 $48 $64 $77 reversed $41 $-1 #
coedge $-1 $48 $78 $79 $80 reversed $41 $-1 #
edge $-1 $66 -0.785398163397448279 $81 0.785398163397448279 $49 $82 forward 7 unknown #
coedge $-1 $50 $49 $83 $84 forward $38 $-1 #
coedge $-1 $85 $86 $50 $62 reversed $87 $-1 #
edge $-1 $88 -0.785398163397448279 $65 0.785398163397448279 $50 $89 forward 7 unknown #
coedge $-1 $90 $51 $86 $91 forward $45 $-1 #
coedge $-1 $51 $90 $57 $77 forward $45 $-1 #
vertex $-1 $52 $92 #
vertex $-1 $52 $93 #
straight-curve $-1 3556 -2921 3.577075159515154379e-13 0 3.110500138708844862e-15 25.39999999999999858 I I #
face $-1 $94 $95 $35 $-1 $96 forward single #
loop $-1 $-1 $97 $53 #
cone-surface $-1 -3429 2921 -3.577075159515154379e-13 0 -1.22460635382237997e-16 -1 -89.80256121069152186 89.80256121069152186 -1.099727870481360374e-14 1 I I 0 1 127 forward I I I I #
coedge $-1 $98 $99 $100 $101 forward $54 $-1 #
coedge $-1 $102 $56 $103 $104 reversed $47 $-1 #
coedge $-1 $56 $105 $106 $107 reversed $47 $-1 #
coedge $-1 $108 $109 $56 $75 forward $110 $-1 #
edge $-1 $111 -45 $112 -5 $56 $113 reversed 7 unknown #
coedge $-1 $114 $57 $98 $115 reversed $41 $-1 #
edge $-1 $116 5 $66 235 $57 $117 forward 7 unknown #
coedge $-1 $58 $118 $119 $120 reversed $41 $-1 #
coedge $-1 $121 $83 $58 $80 forward $122 $-1 #
edge $-1 $81 5 $123 275 $58 $124 forward 7 unknown #
vertex $-1 $59 $125 #
ellipse-curve $-1 3429 -2921 3.577075159515154379e-13 0 -1.22460635382237997e-16 -1 89.80256121069153608 -89.80256121069153608 1.099727870481360689e-14 1 I I #
coedge $-1 $79 $126 $60 $84 reversed $122 $-1 #
edge $-1 $81 0 $88 5.000000000000005329 $60 $127 forward 7 unknown #
coedge $-1 $128 $61 $126 $129 reversed $87 $-1 #
coedge $-1 $61 $130 $63 $91 reversed $87 $-1 #
loop $-1 $-1 $61 $131 #
vertex $-1 $84 $132 #
ellipse-curve $-1 3429 -2921 -126.9999999999997442 0 1.22460635382237997e-16 1 89.80256121069153608 -89.80256121069153608 1.099727870481360689e-14 1 I I #
coedge $-1 $64 $63 $133 $134 reversed $45 $-1 #
edge $-1 $65 -235 $135 -5 $63 $136 forward 7 unknown #
point $-1 3556 -2921 -126.9999999999997442 #
point $-1 3556 -2921 3.577075159515154379e-13 #
face $-1 $137 $138 $35 $-1 $139 forward single #
loop $-1 $-1 $140 $68 #
plane-surface $-1 -3556 3048 -3.73260016645059831e-13 -1 0 0 0 0 25.39999999999999858 forward_v I I I I #
coedge $-1 $141 $142 $140 $143 forward $69 $-1 #
coedge $-1 $133 $71 $76 $115 forward $54 $-1 #
coedge $-1 $71 $133 $130 $144 forward $54 $-1 #
coedge $-1 $145 $146 $71 $101 reversed $147 $-1 #
edge $-1 $148 -5.000000000000005329 $149 0 $71 $150 forward 7 unknown #
coedge $-1 $151 $72 $152 $153 reversed $47 $-1 #
coedge $-1 $154 $155 $72 $104 forward $156 $-1 #
edge $-1 $157 -45 $111 -40 $72 $158 reversed 7 unknown #
coedge $-1 $73 $159 $160 $161 reversed $47 $-1 #
coedge $-1 $162 $163 $73 $107 forward $164 $-1 #
edge $-1 $112 -175 $165 -5 $73 $166 reversed 7 unknown #
coedge $-1 $167 $74 $163 $168 forward $110 $-1 #
coedge $-1 $74 $169 $154 $170 forward $110 $-1 #
loop $-1 $-1 $169 $171 #
vertex $-1 $75 $172 #
vertex $-1 $75 $173 #
straight-curve $-1 -2159 1778 0 0 -25.39999999999999858 0 I I #
coedge $-1 $174 $76 $146 $175 reversed $41 $-1 #
edge $-1 $149 -0.785398163397448279 $116 0.785398163397448279 $76 $176 forward 7 unknown #
vertex $-1 $77 $177 #
straight-curve $-1 3556 3048 -3.73260016645059831e-13 0 -25.39999999999999858 3.110500138708844862e-15 I I #
coedge $-1 $78 $174 $178 $179 reversed $41 $-1 #
coedge $-1 $180 $181 $78 $120 forward $138 $-1 #
edge $-1 $123 -0.785398163397448279 $182 0.785398163397448279 $78 $183 forward 7 unknown #
coedge $-1 $126 $79 $181 $184 reversed $122 $-1 #
loop $-1 $-1 $83 $137 #
vertex $-1 $120 $185 #
straight-curve $-1 3556 -3048 3.73260016645059831e-13 -25.39999999999999858 0 0 I I #
point $-1 3429 -3048 3.73260016645059831e-13 #
coedge $-1 $83 $121 $85 $129 forward $122 $-1 #
straight-curve $-1 3429 -3048 3.73260016645059831e-13 0 -3.110500138708844862e-15 -25.39999999999999858 I I #
coedge $-1 $186 $85 $187 $188 reversed $87 $-1 #
edge $-1 $189 -275 $88 -5 $126 $190 forward 7 unknown #
coedge $-1 $86 $191 $99 $144 reversed $87 $-1 #
face $-1 $192 $87 $35 $-1 $193 reversed single #
point $-1 3429 -3048 -126.9999999999997442 #
coedge $-1 $99 $98 $90 $134 forward $54 $-1 #
edge $-1 $116 0 $135 4.999999999999995559 $90 $194 forward 7 unknown #
vertex $-1 $91 $195 #
straight-curve $-1 3556 3048 -127.0000000000005116 0 25.39999999999999858 -3.110500138708844862e-15 I I #
face $-1 $196 $122 $35 $-1 $197 forward single #
loop $-1 $-1 $181 $94 #
cone-surface $-1 -3429 -2921 3.577075159515154379e-13 0 -1.22460635382237997e-16 -1 -89.80256121069152186 -89.80256121069152186 1.099727870481360374e-14 1 I I 0 1 127 forward I I I I #
coedge $-1 $198 $178 $97 $143 reversed $95 $-1 #
coedge $-1 $199 $97 $174 $200 forward $69 $-1 #
coedge $-1 $97 $199 $201 $202 forward $69 $-1 #
edge $-1 $203 -4.999999999999995559 $204 0 $97 $205 forward 7 unknown #
edge $-1 $135 -0.785398163397448279 $148 0.785398163397448279 $99 $206 forward 7 unknown #
coedge $-1 $207 $100 $191 $208 forward $147 $-1 #
coedge $-1 $100 $207 $114 $175 forward $147 $-1 #
loop $-1 $-1 $100 $196 #
vertex $-1 $101 $209 #
vertex $-1 $115 $210 #
straight-curve $-1 3429 3048 -3.73260016645059831e-13 0 3.110500138708844862e-15 25.39999999999999858 I I #
coedge $-1 $211 $102 $212 $213 reversed $47 $-1 #
coedge $-1 $214 $215 $102 $153 forward $216 $-1 #
edge $-1 $217 0 $157 45 $102 $218 forward 7 unknown #
coedge $-1 $219 $103 $109 $170 reversed $156 $-1 #
coedge $-1 $103 $219 $214 $220 reversed $156 $-1 #
loop $-1 $-1 $154 $221 #
vertex $-1 $104 $222 #
straight-curve $-1 -1142.999999999997499 634.9999999999973852 0 -25.39999999999999858 8.206956165005006984e-14 0 I I #
coedge $-1 $105 $223 $224 $225 reversed $47 $-1 #
coedge $-1 $226 $227 $105 $161 forward $228 $-1 #
edge $-1 $165 -135 $229 -5 $105 $230 reversed 7 unknown #
coedge $-1 $231 $106 $227 $232 forward $164 $-1 #
coedge $-1 $106 $231 $108 $168 reversed $164 $-1 #
loop $-1 $-1 $231 $233 #
vertex $-1 $161 $234 #
straight-curve $-1 2286 1651 0 -25.39999999999999858 0 0 I I #
coedge $-1 $235 $108 $236 $237 forward $110 $-1 #
edge $-1 $112 0 $238 58.21428571428599952 $108 $239 forward 7 unknown #
coedge $-1 $109 $240 $241 $242 forward $110 $-1 #
edge $-1 $243 -25 $111 25 $109 $244 forward 7 unknown #
face $-1 $245 $110 $35 $-1 $246 reversed single #
point $-1 -2158.999999999997272 635 -7.776250346772087701e-15 #
point $-1 -2159 1651 0 #
coedge $-1 $118 $114 $141 $200 reversed $41 $-1 #
edge $-1 $247 5 $149 275 $114 $248 forward 7 unknown #
ellipse-curve $-1 3429 2921 -3.577075159515154379e-13 0 -1.22460635382237997e-16 -1 89.80256121069153608 89.80256121069153608 -1.099727870481360689e-14 1 I I #
point $-1 3556 2921 -3.577075159515154379e-13 #
coedge $-1 $140 $249 $118 $179 forward $95 $-1 #
edge $-1 $182 5 $204 235 $118 $250 forward 7 unknown #
coedge $-1 $187 $119 $249 $251 forward $138 $-1 #
coedge $-1 $119 $187 $121 $184 forward $138 $-1 #
vertex $-1 $179 $252 #
ellipse-curve $-1 -3429 -2921 3.577075159515154379e-13 0 -1.22460635382237997e-16 -1 -89.80256121069153608 -89.80256121069153608 1.099727870481360689e-14 1 I I #
edge $-1 $189 -5.000000000000005329 $123 0 $181 $253 forward 7 unknown #
point $-1 -3429 -3048 3.73260016645059831e-13 #
coedge $-1 $201 $128 $198 $254 reversed $87 $-1 #
coedge $-1 $181 $180 $128 $188 forward $138 $-1 #
edge $-1 $255 -0.785398163397448279 $189 0.785398163397448279 $187 $256 forward 7 unknown #
vertex $-1 $184 $257 #
straight-curve $-1 3556 -3048 -126.9999999999997442 25.39999999999999858 0 0 I I #
coedge $-1 $130 $201 $145 $208 reversed $87 $-1 #
face $-1 $171 $258 $35 $-1 $259 reversed single #
plane-surface $-1 -3556 3048 -127.0000000000005116 0 1.22460635382237997e-16 1 25.39999999999999858 0 0 forward_v I I I I #
straight-curve $-1 3556 2921 -3.577075159515154379e-13 0 -3.110500138708844862e-15 -25.39999999999999858 I I #
point $-1 3556 2921 -127.0000000000002416 #
face $-1 $131 $147 $35 $-1 $260 forward single #
plane-surface $-1 -3556 -3048 3.73260016645059831e-13 0 -1 1.22460635382237997e-16 0 -3.110500138708844862e-15 -25.39999999999999858 forward_v I I I I #
coedge $-1 $249 $140 $186 $254 forward $95 $-1 #
coedge $-1 $142 $141 $207 $261 forward $69 $-1 #
edge $-1 $204 -0.785398163397448279 $247 0.785398163397448279 $174 $262 forward 7 unknown #
coedge $-1 $191 $186 $142 $202 reversed $87 $-1 #
edge $-1 $263 -0.785398163397448279 $203 0.785398163397448279 $142 $264 forward 7 unknown #
vertex $-1 $143 $265 #
vertex $-1 $200 $266 #
straight-curve $-1 -3556 2921 -3.577075159515154379e-13 0 3.110500138708844862e-15 25.39999999999999858 I I #
ellipse-curve $-1 3429 2921 -127.0000000000002416 0 1.22460635382237997e-16 1 89.80256121069153608 89.80256121069153608 -1.099727870481360689e-14 1 I I #
coedge $-1 $146 $145 $199 $261 reversed $147 $-1 #
edge $-1 $148 -275 $263 -5 $145 $267 forward 7 unknown #
point $-1 3429 3048 -127.0000000000005116 #
point $-1 3429 3048 -3.73260016645059831e-13 #
coedge $-1 $268 $151 $269 $270 reversed $47 $-1 #
coedge $-1 $271 $272 $151 $213 forward $273 $-1 #
edge $-1 $274 0 $217 180 $151 $275 forward 7 unknown #
coedge $-1 $276 $152 $155 $220 forward $216 $-1 #
coedge $-1 $152 $277 $271 $278 reversed $216 $-1 #
loop $-1 $-1 $276 $279 #
vertex $-1 $153 $280 #
straight-curve $-1 -2286 1778 0 0 -25.39999999999999858 0 I I #
coedge $-1 $155 $154 $281 $282 forward $156 $-1 #
edge $-1 $157 -25 $283 25 $155 $284 forward 7 unknown #
face $-1 $279 $156 $35 $-1 $285 reversed single #
point $-1 -2285.999999999997272 635 0 #
coedge $-1 $159 $286 $287 $288 reversed $47 $-1 #
coedge $-1 $289 $290 $159 $225 forward $291 $-1 #
edge $-1 $229 -175 $292 -5 $159 $293 reversed 7 unknown #
coedge $-1 $294 $160 $290 $295 forward $228 $-1 #
coedge $-1 $160 $296 $162 $232 reversed $228 $-1 #
loop $-1 $-1 $294 $297 #
vertex $-1 $225 $298 #
straight-curve $-1 2159 -1778 0 0 25.39999999999999858 0 I I #
coedge $-1 $163 $162 $299 $300 forward $164 $-1 #
edge $-1 $165 0 $301 58.21428571428560161 $227 $302 forward 7 unknown #
face $-1 $303 $164 $35 $-1 $304 reversed single #
point $-1 2159 1651 0 #
coedge $-1 $305 $167 $306 $307 forward $110 $-1 #
coedge $-1 $299 $308 $167 $237 reversed $309 $-1 #
edge $-1 $238 -51.13346737709934331 $310 26.13907573083330149 $167 $311 forward 7 unknown #
vertex $-1 $168 $312 #
straight-curve $-1 -2159 1651 0 0 0 25.39999999999999858 I I #
coedge $-1 $169 $287 $313 $314 forward $110 $-1 #
coedge $-1 $315 $281 $169 $242 reversed $258 $-1 #
edge $-1 $316 -1.570796326794896558 $243 1.570796326794896558 $241 $317 forward 7 unknown #
vertex $-1 $282 $318 #
straight-curve $-1 -2159 635 635 0 -5.025145332603432228e-30 -25.39999999999999858 I I #
face $-1 $221 $319 $35 $-1 $320 reversed single #
plane-surface $-1 -2159 -1651 0 -1 0 0 0 0 25.39999999999999858 forward_v I I I I #
vertex $-1 $175 $321 #
straight-curve $-1 -3556 3048 -3.73260016645059831e-13 25.39999999999999858 0 0 I I #
coedge $-1 $178 $198 $180 $251 reversed $95 $-1 #
straight-curve $-1 -3556 -3048 3.73260016645059831e-13 0 25.39999999999999858 -3.110500138708844862e-15 I I #
edge $-1 $182 0 $255 5.000000000000004441 $249 $322 forward 7 unknown #
point $-1 -3556 -2921 3.577075159515154379e-13 #
straight-curve $-1 -3429 -3048 3.73260016645059831e-13 0 3.110500138708844862e-15 25.39999999999999858 I I #
edge $-1 $203 -235 $255 -5 $198 $323 forward 7 unknown #
vertex $-1 $254 $324 #
ellipse-curve $-1 -3429 -2921 -126.9999999999997442 0 1.22460635382237997e-16 1 -89.80256121069153608 -89.80256121069153608 1.099727870481360689e-14 1 I I #
point $-1 -3429 -3048 -126.9999999999997442 #
loop $-1 $-1 $315 $192 #
cone-surface $-1 -2286 0 1270 1 -3.231085104332679983e-15 -6.123031769111889989e-17 3.888125173386050319e-14 -2.10409773256637936e-43 635 1 I I 0 1 635 forward I I I I #
plane-surface $-1 3556 3048 -3.73260016645059831e-13 0 1 -1.22460635382237997e-16 0 3.110500138708844862e-15 25.39999999999999858 forward_v I I I I #
edge $-1 $247 0 $263 5.000000000000005329 $199 $325 forward 7 unknown #
ellipse-curve $-1 -3429 2921 -3.577075159515154379e-13 0 -1.22460635382237997e-16 -1 -89.80256121069153608 89.80256121069153608 -1.099727870481360689e-14 1 I I #
vertex $-1 $261 $326 #
ellipse-curve $-1 -3429 2921 -127.0000000000002416 0 1.22460635382237997e-16 1 -89.80256121069153608 89.80256121069153608 -1.099727870481360689e-14 1 I I #
point $-1 -3556 2921 -127.0000000000002416 #
point $-1 -3556 2921 -3.577075159515154379e-13 #
straight-curve $-1 -3556 3048 -127.0000000000005116 -25.39999999999999858 0 0 I I #
coedge $-1 $327 $211 $328 $329 reversed $47 $-1 #
coedge $-1 $330 $331 $211 $270 forward $332 $-1 #
edge $-1 $333 0 $274 140 $211 $334 forward 7 unknown #
coedge $-1 $335 $212 $215 $278 forward $273 $-1 #
coedge $-1 $212 $335 $330 $336 reversed $273 $-1 #
loop $-1 $-1 $335 $303 #
vertex $-1 $213 $337 #
straight-curve $-1 2286 1778 0 -25.39999999999999858 0 0 I I #
coedge $-1 $338 $214 $339 $340 forward $216 $-1 #
coedge $-1 $215 $341 $342 $343 forward $216 $-1 #
edge $-1 $217 0 $344 55.00000000000029843 $215 $345 forward 7 unknown #
face $-1 $346 $216 $35 $-1 $347 forward single #
point $-1 -2286 1778 0 #
coedge $-1 $241 $339 $219 $282 reversed $258 $-1 #
edge $-1 $243 -5 $283 -0 $281 $348 reversed 7 unknown #
vertex $-1 $340 $349 #
straight-curve $-1 -2286 635 635 0 5.025145332603432228e-30 25.39999999999999858 I I #
plane-surface $-1 -2285.999999999997272 635 1270 3.231085104332679983e-15 1 -1.978403674253319971e-31 0 5.025145332603432228e-30 25.39999999999999858 forward_v I I I I #
coedge $-1 $223 $327 $350 $351 reversed $47 $-1 #
coedge $-1 $240 $305 $223 $288 forward $110 $-1 #
edge $-1 $292 -135 $352 -95 $223 $113 reversed 7 unknown #
coedge $-1 $353 $224 $305 $354 forward $291 $-1 #
coedge $-1 $224 $353 $226 $295 reversed $291 $-1 #
loop $-1 $-1 $353 $355 #
vertex $-1 $288 $356 #
straight-curve $-1 -2286 -1651 0 25.39999999999999858 0 0 I I #
coedge $-1 $296 $226 $357 $358 forward $228 $-1 #
edge $-1 $229 0 $359 58.21428571428590004 $290 $360 forward 7 unknown #
coedge $-1 $227 $294 $361 $362 forward $228 $-1 #
face $-1 $363 $228 $35 $-1 $364 reversed single #
point $-1 2159 -1651 0 #
coedge $-1 $361 $236 $231 $300 reversed $309 $-1 #
edge $-1 $301 -127.5 $238 42.5 $299 $365 forward 7 unknown #
vertex $-1 $300 $366 #
straight-curve $-1 2159 1651 0 0 0 25.39999999999999858 I I #
face $-1 $367 $273 $35 $-1 $368 forward single #
plane-surface $-1 -2159 1651 0 0 1 0 0 0 25.39999999999999858 forward_v I I I I #
coedge $-1 $287 $235 $289 $354 reversed $110 $-1 #
coedge $-1 $369 $370 $235 $307 reversed $371 $-1 #
edge $-1 $310 -81.67974633306477017 $372 -4.407203225131993918 $235 $373 forward 7 unknown #
coedge $-1 $236 $361 $369 $374 forward $309 $-1 #
loop $-1 $-1 $308 $375 #
vertex $-1 $237 $376 #
straight-curve $-1 -2159 558.4857479237758753 2180.973447763291006 0 -21.365933274564469 13.73524281936282421 I I #
point $-1 -2159 1651 1478.642857142864386 #
coedge $-1 $350 $377 $240 $314 reversed $319 $-1 #
edge $-1 $352 -3.061515884555849961e-16 $316 50 $240 $378 forward 7 unknown #
coedge $-1 $339 $241 $377 $379 reversed $258 $-1 #
vertex $-1 $379 $380 #
ellipse-curve $-1 -2158.999999999994998 -4.103478082502680828e-13 1270 -1 0 0 0 0 635 1 I I #
point $-1 -2158.999999999997272 635 1270 #
loop $-1 $-1 $313 $245 #
plane-surface $-1 -2286.000000000002274 -635 2.512572666301711125e-28 -3.231085104332679983e-15 -1 1.978403674253319971e-31 0 -5.025145332603432228e-30 -25.39999999999999858 forward_v I I I I #
point $-1 -3429 3048 -3.73260016645059831e-13 #
straight-curve $-1 -3556 -2921 3.577075159515154379e-13 0 -3.110500138708844862e-15 -25.39999999999999858 I I #
straight-curve $-1 -3556 -3048 -126.9999999999997442 0 -25.39999999999999858 3.110500138708844862e-15 I I #
point $-1 -3556 -2921 -126.9999999999997442 #
straight-curve $-1 -3429 3048 -3.73260016645059831e-13 0 -3.110500138708844862e-15 -25.39999999999999858 I I #
point $-1 -3429 3048 -127.0000000000005116 #
coedge $-1 $286 $268 $381 $382 reversed $47 $-1 #
coedge $-1 $383 $384 $268 $329 forward $385 $-1 #
edge $-1 $386 0 $333 180 $268 $387 forward 7 unknown #
coedge $-1 $388 $269 $272 $336 forward $332 $-1 #
coedge $-1 $269 $389 $383 $390 reversed $332 $-1 #
loop $-1 $-1 $389 $367 #
vertex $-1 $270 $391 #
straight-curve $-1 2286 -1778 0 0 25.39999999999999858 0 I I #
coedge $-1 $272 $271 $392 $393 forward $273 $-1 #
edge $-1 $274 0 $394 54.99999999999990052 $272 $395 forward 7 unknown #
point $-1 2286 1778 0 #
coedge $-1 $381 $276 $396 $397 forward $216 $-1 #
coedge $-1 $281 $315 $276 $340 reversed $258 $-1 #
edge $-1 $283 -1.570796326794896558 $398 1.570796326794896558 $339 $399 forward 7 unknown #
coedge $-1 $277 $400 $401 $402 forward $216 $-1 #
coedge $-1 $403 $392 $277 $343 reversed $404 $-1 #
edge $-1 $405 -24.03612954239185484 $344 59.18045534307408673 $277 $406 forward 7 unknown #
vertex $-1 $343 $407 #
straight-curve $-1 -2286 1778 0 0 0 25.39999999999999858 I I #
face $-1 $408 $409 $35 $-1 $410 reversed single #
plane-surface $-1 -2286 -1778 0 -1 0 0 0 0 25.39999999999999858 forward_v I I I I #
straight-curve $-1 -2285.999999999997272 635 1270 25.39999999999999858 -8.206956165005006984e-14 -1.555250069354420065e-15 I I #
point $-1 -2285.999999999997272 635 1270 #
coedge $-1 $396 $313 $286 $351 forward $319 $-1 #
edge $-1 $352 40 $411 45 $286 $412 reversed 7 unknown #
vertex $-1 $351 $413 #
coedge $-1 $290 $289 $370 $414 forward $291 $-1 #
edge $-1 $292 0 $372 58.21428571428609899 $305 $415 forward 7 unknown #
face $-1 $297 $291 $35 $-1 $416 reversed single #
point $-1 -2159 -1651 0 #
coedge $-1 $370 $369 $294 $358 reversed $371 $-1 #
edge $-1 $359 -50.26939767434443951 $417 27.00314543358799924 $357 $418 forward 7 unknown #
vertex $-1 $358 $419 #
straight-curve $-1 2159 -1651 0 0 0 25.39999999999999858 I I #
coedge $-1 $308 $299 $296 $362 reversed $309 $-1 #
edge $-1 $417 -80.8156766303097811 $301 -3.543133522376465283 $361 $420 forward 7 unknown #
face $-1 $421 $404 $35 $-1 $422 reversed single #
plane-surface $-1 2159 1651 0 1 0 0 0 0 -25.39999999999999858 forward_v I I I I #
straight-curve $-1 -1079.5 1651 1478.642857142861885 -25.39999999999999858 0 5.247884646373393448e-14 I I #
point $-1 2159 1651 1478.642857142854155 #
face $-1 $423 $332 $35 $-1 $424 forward single #
plane-surface $-1 -2286 1778 0 0 1 0 0 0 25.39999999999999858 forward_v I I I I #
coedge $-1 $357 $306 $308 $374 reversed $371 $-1 #
coedge $-1 $306 $357 $353 $414 reversed $371 $-1 #
loop $-1 $-1 $369 $425 #
vertex $-1 $307 $426 #
straight-curve $-1 -2159 -1745.164010035616457 1418.108850691401358 0 -21.3659332745645969 -13.73524281936267144 I I #
edge $-1 $417 -84.99999999999997158 $310 85.00000000000002842 $369 $427 forward 7 unknown #
face $-1 $355 $309 $35 $-1 $422 reversed single #
point $-1 -2159 3.970512807427438708e-12 2540 #
coedge $-1 $313 $396 $315 $379 forward $319 $-1 #
straight-curve $-1 -2159 -635 2.512572666301718917e-29 0 5.025145332603432228e-30 25.39999999999999858 I I #
edge $-1 $398 0 $316 5 $315 $428 forward 7 unknown #
point $-1 -2159.000000000002274 -635 1270 #
coedge $-1 $400 $338 $327 $382 forward $216 $-1 #
edge $-1 $411 95 $386 140 $327 $218 forward 7 unknown #
coedge $-1 $429 $328 $331 $390 forward $385 $-1 #
coedge $-1 $328 $429 $400 $430 reversed $385 $-1 #
loop $-1 $-1 $429 $423 #
vertex $-1 $329 $431 #
straight-curve $-1 -2286 -1778 0 25.39999999999999858 0 0 I I #
coedge $-1 $389 $330 $432 $433 forward $332 $-1 #
coedge $-1 $331 $388 $434 $435 forward $332 $-1 #
edge $-1 $333 0 $436 55.00000000000029843 $331 $437 forward 7 unknown #
point $-1 2286 -1778 0 #
coedge $-1 $342 $432 $335 $393 reversed $404 $-1 #
edge $-1 $344 -45 $394 135 $392 $438 forward 7 unknown #
vertex $-1 $433 $439 #
straight-curve $-1 2286 1778 0 0 0 25.39999999999999858 I I #
coedge $-1 $377 $350 $338 $397 reversed $319 $-1 #
edge $-1 $398 -50 $411 -9.3974174527032511e-30 $396 $440 forward 7 unknown #
vertex $-1 $379 $441 #
ellipse-curve $-1 -2285.999999999994998 -1.881341893829139173e-26 1270 1 0 0 0 0 635 1 I I #
coedge $-1 $341 $381 $384 $430 forward $216 $-1 #
coedge $-1 $442 $443 $341 $402 reversed $444 $-1 #
edge $-1 $445 0.5661076360401947616 $405 83.78269252150622037 $341 $446 forward 7 unknown #
coedge $-1 $447 $342 $443 $448 forward $404 $-1 #
loop $-1 $-1 $403 $363 #
vertex $-1 $402 $449 #
straight-curve $-1 -2286 513.5543399815366001 2209.857924297587488 0 21.365933274564469 -13.73524281936282421 I I #
point $-1 -2286 1778 1397.000000000007503 #
face $-1 $425 $450 $35 $-1 $451 reversed single #
loop $-1 $-1 $452 $346 #
plane-surface $-1 -2794 -2482.134697851325654 1095.320641102086029 -1.110426168795110301e-15 0.5407575913134907708 -0.8411784753765586542 -25.39999999999999858 0 3.353013125397644289e-14 forward_v I I I I #
vertex $-1 $382 $453 #
straight-curve $-1 -1143.000000000002501 -635.0000000000025011 0 25.39999999999999858 -8.206956165005006984e-14 0 I I #
point $-1 -2159.000000000002274 -635 -7.776250346771833688e-15 #
edge $-1 $372 -127.5 $359 42.5 $370 $454 forward 7 unknown #
straight-curve $-1 -2159 -1651 0 0 0 25.39999999999999858 I I #
plane-surface $-1 2159 -1651 0 0 -1 0 0 0 -25.39999999999999858 forward_v I I I I #
vertex $-1 $374 $455 #
straight-curve $-1 2159 -576.9474035374037157 2169.105240583087379 0 21.3659332745645969 13.73524281936267144 I I #
point $-1 2159 -1651 1478.642857142861885 #
straight-curve $-1 2159 1726.702354421968039 1429.977057871589295 0 21.365933274564469 -13.73524281936282421 I I #
face $-1 $233 $456 $35 $-1 $457 forward single #
plane-surface $-1 -1.08286712929839232e-12 1129.809040973906122 1813.694187945347039 1.737955750310398937e-15 0.5407575913134973211 0.8411784753765544353 25.39999999999999858 0 -5.247884646373409225e-14 forward_v I I I I #
face $-1 $-1 $385 $35 $-1 $458 forward single #
plane-surface $-1 2286 1778 0 1 0 0 0 0 -25.39999999999999858 forward_v I I I I #
face $-1 $459 $371 $35 $-1 $460 reversed single #
point $-1 -2159 -1651 1478.642857142866887 #
straight-curve $-1 8.995514645838128358e-13 9.565326308802465794e-12 2539.999999999992269 -25.39999999999999858 1.47378896075894953e-14 4.300448885885508771e-14 I I #
straight-curve $-1 -2286.000000000002274 -635 1270 25.39999999999999858 -8.206956165005006984e-14 -1.555250069354420065e-15 I I #
coedge $-1 $384 $383 $442 $461 forward $385 $-1 #
edge $-1 $386 0 $445 55.00000000000049738 $400 $462 forward 7 unknown #
point $-1 -2286 -1778 0 #
coedge $-1 $392 $463 $388 $433 reversed $404 $-1 #
edge $-1 $394 -0.2979620667153915492 $464 82.91862281875123131 $432 $465 forward 7 unknown #
coedge $-1 $466 $442 $389 $435 reversed $444 $-1 #
edge $-1 $464 -24.90019924514668404 $436 58.31638564031896976 $434 $467 forward 7 unknown #
vertex $-1 $461 $468 #
straight-curve $-1 2286 -1778 0 0 0 25.39999999999999858 I I #
straight-curve $-1 -1143 1778 1397.000000000005002 25.39999999999999858 0 -5.247884646373393448e-14 I I #
point $-1 2286 1778 1396.999999999997499 #
straight-curve $-1 -2286 -635 1.256286333150855535e-29 0 -5.025145332603432228e-30 -25.39999999999999858 I I #
point $-1 -2286.000000000002274 -635 1270 #
coedge $-1 $434 $401 $429 $461 reversed $444 $-1 #
coedge $-1 $401 $469 $403 $448 reversed $444 $-1 #
loop $-1 $-1 $443 $459 #
vertex $-1 $430 $470 #
straight-curve $-1 -2286 -1790.095417977855732 1389.224374157104421 0 21.3659332745645969 13.73524281936267144 I I #
coedge $-1 $471 $403 $472 $473 reversed $404 $-1 #
edge $-1 $405 90.00000000000002842 $474 110.0000000000000284 $443 $427 forward 7 unknown #
point $-1 -2286 4.331468517193569279e-12 2540 #
loop $-1 $-1 $475 $408 #
plane-surface $-1 -2794 4.698628174593258322 2687.958114465678591 -1.737955750310398937e-15 -0.5407575913134973211 -0.8411784753765544353 -25.39999999999999858 0 5.247884646373409225e-14 forward_v I I I I #
coedge $-1 $476 $477 $478 $479 reversed $409 $-1 #
point $-1 -2286.000000000002274 -635 2.512572666301711125e-28 #
straight-curve $-1 1079.5 -1651 1478.642857142864386 25.39999999999999858 0 -3.353013125397624094e-14 I I #
point $-1 2159 -9.745804163685530272e-12 2540 #
loop $-1 $-1 $480 $421 #
plane-surface $-1 -2794 2323.595667870034958 1046.259927797844057 -5.104408822480297473e-16 0.8411784753765544353 -0.5407575913134973211 -25.39999999999999858 0 2.397598964372845501e-14 forward_v I I I I #
plane-surface $-1 2286 -1778 0 0 -1 0 0 0 -25.39999999999999858 forward_v I I I I #
face $-1 $481 $444 $35 $-1 $460 reversed single #
plane-surface $-1 3.609557097661307733e-13 -1166.7323522011975 1789.957773584946153 1.110426168795110301e-15 -0.5407575913134907708 0.8411784753765586542 25.39999999999999858 0 -3.353013125397644289e-14 forward_v I I I I #
edge $-1 $436 -45 $445 135 $442 $482 forward 7 unknown #
straight-curve $-1 -2286 -1778 0 0 0 25.39999999999999858 I I #
coedge $-1 $432 $483 $466 $484 forward $404 $-1 #
vertex $-1 $435 $485 #
straight-curve $-1 2286 1771.633762364207314 1401.092581337292131 0 -21.365933274564469 13.73524281936282421 I I #
coedge $-1 $486 $434 $463 $484 reversed $444 $-1 #
straight-curve $-1 2286 -532.0159955951670554 2197.989717117382042 0 -21.3659332745645969 -13.73524281936267144 I I #
point $-1 2286 -1778 1397.000000000007503 #
coedge $-1 $443 $487 $488 $489 reversed $444 $-1 #
point $-1 -2286 -1778 1397.000000000012506 #
coedge $-1 $483 $447 $490 $491 reversed $404 $-1 #
coedge $-1 $488 $492 $447 $473 forward $493 $-1 #
edge $-1 $494 0 $474 108.7523600308252298 $472 $495 forward 7 unknown #
vertex $-1 $448 $496 #
coedge $-1 $497 $498 $499 $500 forward $450 $-1 #
coedge $-1 $501 $452 $502 $503 reversed $409 $-1 #
coedge $-1 $452 $501 $504 $505 reversed $409 $-1 #
coedge $-1 $506 $507 $452 $479 forward $508 $-1 #
edge $-1 $509 -220 $510 0 $452 $511 forward 7 unknown #
coedge $-1 $512 $513 $514 $515 forward $456 $-1 #
face $-1 $516 $508 $35 $-1 $517 forward single #
straight-curve $-1 1143 -1778 1397.000000000007503 -25.39999999999999858 0 3.353013125397624094e-14 I I #
coedge $-1 $463 $471 $518 $519 reversed $404 $-1 #
edge $-1 $520 -109.9999999999999716 $464 -89.99999999999997158 $466 $427 forward 7 unknown #
point $-1 2286 -1.010675987345166246e-11 2540 #
coedge $-1 $487 $466 $521 $522 reversed $444 $-1 #
coedge $-1 $469 $486 $523 $524 reversed $444 $-1 #
coedge $-1 $525 $472 $469 $489 forward $493 $-1 #
edge $-1 $474 3.743987137100080353 $526 116.7022395448085774 $469 $527 forward 7 unknown #
coedge $-1 $513 $512 $471 $491 forward $456 $-1 #
edge $-1 $528 0 $494 220 $471 $529 forward 7 unknown #
coedge $-1 $472 $530 $513 $531 reversed $493 $-1 #
loop $-1 $-1 $488 $532 #
vertex $-1 $531 $533 #
straight-curve $-1 -2794 2323.595667870034958 1046.259927797844057 1.296519840909996219e-14 -21.365933274564469 13.73524281936282421 I I #
point $-1 -2794 1.127986593019160014e-11 2539.999999999997272 #
coedge $-1 $514 $475 $534 $535 reversed $450 $-1 #
coedge $-1 $475 $514 $530 $536 reversed $450 $-1 #
coedge $-1 $507 $506 $475 $500 reversed $508 $-1 #
edge $-1 $537 1.601647108639380163e-29 $538 220 $475 $539 forward 7 unknown #
coedge $-1 $477 $476 $540 $541 reversed $409 $-1 #
coedge $-1 $542 $525 $476 $503 forward $493 $-1 #
edge $-1 $543 -116.7022395448086201 $509 0 $476 $544 forward 7 unknown #
coedge $-1 $545 $546 $477 $505 forward $547 $-1 #
edge $-1 $510 -116.7022395448081795 $548 -0 $477 $549 forward 7 unknown #
coedge $-1 $499 $478 $546 $550 reversed $508 $-1 #
coedge $-1 $478 $499 $542 $551 forward $508 $-1 #
loop $-1 $-1 $499 $481 #
vertex $-1 $479 $552 #
vertex $-1 $479 $553 #
straight-curve $-1 2794 11.31756525530552437 2698.254238813444772 25.39999999999999858 8.283810214681131341e-15 -2.820482468739579009e-14 I I #
coedge $-1 $490 $480 $554 $555 reversed $456 $-1 #
coedge $-1 $480 $490 $492 $531 forward $456 $-1 #
coedge $-1 $498 $497 $480 $515 reversed $450 $-1 #
edge $-1 $556 -220 $557 0 $514 $558 forward 7 unknown #
face $-1 $532 $559 $35 $-1 $560 forward single #
plane-surface $-1 -2794 79.99377935211700219 2591.424572440641896 3.26134260420517105e-16 0.8411784753765586542 0.5407575913134907708 25.39999999999999858 0 -1.531889768678032665e-14 forward_v I I I I #
coedge $-1 $554 $521 $483 $519 forward $547 $-1 #
edge $-1 $520 2.994373571239932197 $528 111.7467336020651913 $518 $561 forward 7 unknown #
vertex $-1 $484 $562 #
coedge $-1 $518 $545 $486 $522 forward $547 $-1 #
edge $-1 $563 0 $520 112.9582524077081729 $486 $564 forward 7 unknown #
coedge $-1 $565 $566 $487 $524 forward $559 $-1 #
edge $-1 $526 0 $563 220 $487 $567 forward 7 unknown #
coedge $-1 $502 $488 $566 $568 forward $493 $-1 #
vertex $-1 $524 $569 #
straight-curve $-1 -2794 79.99377935211700219 2591.424572440641896 -8.283810214681131341e-15 -21.3659332745645969 -13.73524281936267144 I I #
vertex $-1 $519 $570 #
straight-curve $-1 2794 2323.595667870032685 1046.259927797833825 -25.39999999999999858 1.296519840909996219e-14 4.414407605788415825e-14 I I #
coedge $-1 $492 $542 $498 $536 forward $493 $-1 #
edge $-1 $494 0 $556 4.999999999999949374 $492 $571 forward 7 unknown #
face $-1 $572 $493 $35 $-1 $573 forward single #
point $-1 -2794 2323.595667870034958 1046.259927797844057 #
coedge $-1 $546 $554 $497 $535 forward $547 $-1 #
edge $-1 $557 -111.7467336020653192 $538 -1.055977371037875256 $497 $574 forward 7 unknown #
edge $-1 $537 -110.6907562310276489 $556 0 $498 $575 forward 7 unknown #
vertex $-1 $500 $576 #
vertex $-1 $500 $577 #
straight-curve $-1 -2794 27.26057022362655857 2673.454008862720912 25.39999999999999858 4.07143786599650138e-14 -7.865237560228292511e-14 I I #
coedge $-1 $566 $565 $501 $541 forward $559 $-1 #
edge $-1 $548 -220 $543 0 $501 $578 forward 7 unknown #
coedge $-1 $530 $502 $507 $551 reversed $493 $-1 #
vertex $-1 $503 $579 #
straight-curve $-1 -2794 11.3175652553037196 2698.254238813469783 8.283810214681131341e-15 21.3659332745645969 13.73524281936267144 I I #
coedge $-1 $521 $504 $565 $580 reversed $547 $-1 #
coedge $-1 $504 $534 $506 $550 forward $547 $-1 #
loop $-1 $-1 $546 $572 #
vertex $-1 $541 $581 #
straight-curve $-1 2794 -2482.134697851323381 1095.320641102081026 -8.283810214681131341e-15 -21.3659332745645969 -13.73524281936267144 I I #
edge $-1 $538 3.839262969137532622 $510 5.000000000000169642 $506 $582 forward 7 unknown #
edge $-1 $537 3.839262969136847392 $509 5.00000000000017053 $507 $583 forward 7 unknown #
point $-1 -2794 11.3175652553037196 2698.254238813469783 #
point $-1 2794 11.31756525530552437 2698.254238813444772 #
coedge $-1 $534 $518 $512 $555 forward $547 $-1 #
edge $-1 $528 0 $557 5.00000000000003908 $554 $584 forward 7 unknown #
vertex $-1 $515 $585 #
vertex $-1 $535 $586 #
straight-curve $-1 2794 2392.271881966847104 1153.089594170656937 25.39999999999999858 -1.296519840909996219e-14 -4.414407605788415825e-14 I I #
loop $-1 $-1 $540 $516 #
plane-surface $-1 2794 -2413.458483754511235 988.4909747292578004 -3.26134260420517105e-16 -0.8411784753765586542 -0.5407575913134907708 -25.39999999999999858 0 1.531889768678032665e-14 forward_v I I I I #
straight-curve $-1 2794 -63.97758592222375285 2581.128448092850249 -1.296519840909996219e-14 21.365933274564469 -13.73524281936282421 I I #
point $-1 2794 7.941025614854877415e-12 2539.999999999987267 #
vertex $-1 $522 $587 #
straight-curve $-1 2794 -2413.458483754511235 988.4909747292578004 8.283810214681131341e-15 21.3659332745645969 13.73524281936267144 I I #
coedge $-1 $540 $523 $545 $580 forward $559 $-1 #
coedge $-1 $523 $540 $525 $568 reversed $559 $-1 #
straight-curve $-1 -2794 -2413.458483754513964 988.4909747292629163 25.39999999999999858 8.283810214681131341e-15 -2.820482468739579009e-14 I I #
edge $-1 $526 0 $543 4.999999999999973355 $566 $588 forward 7 unknown #
point $-1 -2794 -2413.458483754513964 988.4909747292629163 #
point $-1 2794 2323.595667870032685 1046.259927797833825 #
straight-curve $-1 -2794 2323.595667870034958 1046.259927797844057 4.414407605788415825e-14 13.73524281936282421 21.365933274564469 I I #
face $-1 $375 $547 $35 $-1 $589 forward single #
plane-surface $-1 -2794 -63.97758592222096041 2581.128448092850249 -1 5.104408822480300431e-16 1.737955750310399924e-15 4.414407605788415825e-14 0 25.39999999999999858 forward_v I I I I #
straight-curve $-1 2794 4.698628174590413487 2687.958114465678591 1.296519840909996219e-14 -21.365933274564469 13.73524281936282421 I I #
straight-curve $-1 -2794 2392.271881966849833 1153.089594170664441 -1.296519840909996219e-14 21.365933274564469 -13.73524281936282421 I I #
point $-1 -2794 27.26057022362681082 2673.454008862720912 #
point $-1 2794 27.2605702236356997 2673.454008862720912 #
straight-curve $-1 -2794 -2482.134697851325654 1095.320641102086029 -25.39999999999999858 -8.283810214681131341e-15 2.820482468739579009e-14 I I #
point $-1 -2794 -2482.134697851325654 1095.320641102086029 #
edge $-1 $563 0 $548 4.999999999999973355 $565 $590 forward 7 unknown #
point $-1 2794 -2482.134697851323381 1095.320641102081026 #
straight-curve $-1 2794 79.99377935211877855 2591.42457244061643 2.820482468739579324e-14 -13.73524281936267144 21.3659332745645969 I I #
straight-curve $-1 -2794 79.99377935211700219 2591.424572440641896 2.820482468739579324e-14 -13.73524281936267144 21.3659332745645969 I I #
straight-curve $-1 2794 2323.595667870032685 1046.259927797833825 4.414407605788415825e-14 13.73524281936282421 21.365933274564469 I I #
point $-1 -2794 2392.271881966849833 1153.089594170664441 #
point $-1 2794 2392.271881966847104 1153.089594170656937 #
point $-1 2794 -2413.458483754511235 988.4909747292578004 #
straight-curve $-1 -2794 -2413.458483754513964 988.4909747292629163 2.820482468739579324e-14 -13.73524281936267144 21.3659332745645969 I I #
plane-surface $-1 2794 2323.595667870032685 1046.259927797833825 1 -5.104408822480300431e-16 -1.737955750310399924e-15 -4.414407605788415825e-14 0 -25.39999999999999858 forward_v I I I I #
straight-curve $-1 2794 -2413.458483754511235 988.4909747292578004 2.820482468739579324e-14 -13.73524281936267144 21.3659332745645969 I I #
End-of-ACIS-data 