105 896 1 0                             
body $-1 $1 $-1 $2 #
lump $-1 $-1 $3 $0 #
transform $-1 1 0 0 0 1 0 0 0 1 0 0 0 1 0 0 0 #
shell $-1 $-1 $-1 $4 $1 #
face $5 $6 $7 $3 $-1 $8 reversed single #
face_name-twe-attrib $-1 $-1 $-1 $4 1 #
face $9 $10 $11 $3 $-1 $12 reversed single #
loop $13 $14 $15 $4 #
cone-surface $16 3.2 0.3 1.51019999999997 0 0 -1 0.0625000000000002 0 0 1 0 1 0 #
face_name-twe-attrib $-1 $-1 $-1 $6 2 #
face $17 $18 $19 $3 $-1 $20 reversed single #
loop $21 $22 $23 $6 #
cone-surface $24 3.2 1.7 1.51019999999997 0 0 -1 0.0625 0 0 1 0 1 0 #
loop_type-twe-attrib $-1 $-1 $-1 $7 0 #
loop $25 $-1 $26 $4 #
coedge $-1 $15 $15 $27 $28 0 $7 $-1 #
surf-twe-attrib $-1 $-1 $-1 $8 4 #
face_name-twe-attrib $-1 $-1 $-1 $10 3 #
face $29 $30 $31 $3 $-1 $32 reversed single #
loop $33 $34 $35 $10 #
cone-surface $36 0.300000000000001 1.7 1.51019999999997 0 0 -1 0.0625 0 0 1 0 1 0 #
loop_type-twe-attrib $-1 $-1 $-1 $11 0 #
loop $37 $-1 $38 $6 #
coedge $-1 $23 $23 $39 $40 0 $11 $-1 #
surf-twe-attrib $-1 $-1 $-1 $12 6 #
loop_type-twe-attrib $-1 $-1 $-1 $14 1 #
coedge $-1 $26 $26 $41 $42 0 $14 $-1 #
coedge $-1 $27 $27 $15 $28 1 $43 $-1 #
edge $44 $45 $45 $27 $46 0 #
face_name-twe-attrib $-1 $-1 $-1 $18 4 #
face $47 $48 $49 $3 $-1 $50 forward single #
loop $51 $52 $53 $18 #
cone-surface $54 0.3 0.3 1.51019999999997 0 0 -1 0.0625 0 0 1 0 1 0 #
loop_type-twe-attrib $-1 $-1 $-1 $19 0 #
loop $55 $-1 $56 $10 #
coedge $-1 $35 $35 $57 $58 0 $19 $-1 #
surf-twe-attrib $-1 $-1 $-1 $20 10 #
loop_type-twe-attrib $-1 $-1 $-1 $22 1 #
coedge $-1 $38 $38 $59 $60 0 $22 $-1 #
coedge $-1 $39 $39 $23 $40 1 $61 $-1 #
edge $62 $63 $63 $39 $64 0 #
coedge $-1 $41 $41 $26 $42 1 $65 $-1 #
edge $66 $67 $67 $41 $68 0 #
loop $69 $61 $27 $70 #
edge_name-twe-attrib $-1 $-1 $-1 $28 60 8704 #
vertex $-1 $28 $71 #
ellipse-curve $72 3.2 0.3 0 0 0 -1 0.0625000000000002 0 0 1 #
face_name-twe-attrib $-1 $-1 $-1 $30 5 #
face $73 $74 $75 $3 $-1 $76 forward single #
loop $77 $-1 $78 $30 #
plane-surface $79 3.26459447752673 1.36887486516062 -4.25420706651806 0 -1 0 0 0 -1 0 #
loop_type-twe-attrib $-1 $-1 $-1 $31 0 #
loop $80 $-1 $81 $18 #
coedge $-1 $53 $53 $82 $83 0 $31 $-1 #
surf-twe-attrib $-1 $-1 $-1 $32 18 #
loop_type-twe-attrib $-1 $-1 $-1 $34 1 #
coedge $-1 $56 $56 $84 $85 0 $34 $-1 #
coedge $-1 $57 $57 $35 $58 1 $86 $-1 #
edge $87 $88 $88 $57 $89 0 #
coedge $-1 $59 $59 $38 $60 1 $90 $-1 #
edge $91 $92 $92 $59 $93 0 #
loop $94 $86 $39 $70 #
edge_name-twe-attrib $-1 $-1 $-1 $40 61 8704 #
vertex $-1 $40 $95 #
ellipse-curve $96 3.2 1.7 0 0 0 -1 0.0625000000000002 0 0 1 #
loop $97 $90 $41 $98 #
edge_name-twe-attrib $-1 $-1 $-1 $42 40 8704 #
vertex $-1 $42 $99 #
ellipse-curve $100 3.2 0.3 0.5 0 0 1 0.0625000000000002 0 0 1 #
loop_type-twe-attrib $-1 $-1 $-1 $43 1 #
face $101 $102 $103 $3 $-1 $104 forward single #
point $-1 3.2 0.3625 0 #
cur-twe-attrib $-1 $-1 $-1 $46 28 #
face_name-twe-attrib $-1 $-1 $-1 $48 6 #
face $105 $106 $107 $3 $-1 $108 forward single #
loop $109 $-1 $110 $48 #
plane-surface $111 3.26459447752673 0.768874865160618 -4.25420706651806 1 0 0 0 0 -1 0 #
loop_type-twe-attrib $-1 $-1 $-1 $49 0 #
coedge $-1 $112 $113 $114 $115 1 $49 $-1 #
surf-twe-attrib $-1 $-1 $-1 $50 30 #
loop_type-twe-attrib $-1 $-1 $-1 $52 1 #
coedge $-1 $81 $81 $116 $117 0 $52 $-1 #
coedge $-1 $82 $82 $53 $83 1 $118 $-1 #
edge $119 $120 $120 $82 $121 0 #
coedge $-1 $84 $84 $56 $85 1 $122 $-1 #
edge $123 $124 $124 $84 $125 0 #
loop $126 $118 $57 $70 #
edge_name-twe-attrib $-1 $-1 $-1 $58 62 8704 #
vertex $-1 $58 $127 #
ellipse-curve $128 0.300000000000001 1.7 0 0 0 -1 0.0625 0 0 1 #
loop $129 $122 $59 $98 #
edge_name-twe-attrib $-1 $-1 $-1 $60 41 8704 #
vertex $-1 $60 $130 #
ellipse-curve $131 3.2 1.7 0.5 0 0 1 0.0625000000000002 0 0 1 #
loop_type-twe-attrib $-1 $-1 $-1 $61 1 #
point $-1 3.2 1.7625 0 #
cur-twe-attrib $-1 $-1 $-1 $64 40 #
loop_type-twe-attrib $-1 $-1 $-1 $65 1 #
face $132 $133 $134 $3 $-1 $135 forward single #
point $-1 3.2 0.3625 0.5 #
cur-twe-attrib $-1 $-1 $-1 $68 42 #
face_name-twe-attrib $-1 $-1 $-1 $70 30 #
face $136 $137 $138 $3 $-1 $139 forward single #
loop $140 $43 $141 $70 #
plane-surface $142 -0.00035 -0.0002 0 0 0 -1 -1 0 0 0 #
face_name-twe-attrib $-1 $-1 $-1 $74 7 #
face $143 $144 $145 $3 $-1 $146 forward single #
loop $147 $-1 $148 $74 #
plane-surface $149 3.51035 0.768874865160618 -4.25420706651806 0 1 0 0 0 1 0 #
loop_type-twe-attrib $-1 $-1 $-1 $75 0 #
coedge $-1 $150 $151 $152 $153 1 $75 $-1 #
surf-twe-attrib $-1 $-1 $-1 $76 48 #
coedge $-1 $154 $78 $151 $155 1 $49 $-1 #
coedge $-1 $78 $154 $156 $157 1 $49 $-1 #
coedge $-1 $158 $152 $78 $115 0 $134 $-1 #
edge $159 $160 $161 $114 $162 0 #
coedge $-1 $116 $116 $81 $117 1 $163 $-1 #
edge $164 $165 $165 $116 $166 0 #
loop $167 $168 $82 $70 #
edge_name-twe-attrib $-1 $-1 $-1 $83 63 8704 #
vertex $-1 $83 $169 #
ellipse-curve $170 0.3 0.3 0 0 0 -1 0.0625 0 0 1 #
loop $171 $163 $84 $98 #
edge_name-twe-attrib $-1 $-1 $-1 $85 42 8704 #
vertex $-1 $85 $172 #
ellipse-curve $173 0.300000000000001 1.7 0.5 0 0 1 0.0625 0 0 1 #
loop_type-twe-attrib $-1 $-1 $-1 $86 1 #
point $-1 0.300000000000001 1.7625 0 #
cur-twe-attrib $-1 $-1 $-1 $89 58 #
loop_type-twe-attrib $-1 $-1 $-1 $90 1 #
point $-1 3.2 1.7625 0.5 #
cur-twe-attrib $-1 $-1 $-1 $93 60 #
face_name-twe-attrib $-1 $-1 $-1 $98 24 #
face $174 $175 $176 $3 $-1 $177 reversed single #
loop $178 $65 $114 $98 #
plane-surface $179 3.5 -2.20093041014557e-17 0.5 0 0 1 1 0 0 0 #
face_name-twe-attrib $-1 $-1 $-1 $102 31 #
face $180 $181 $182 $3 $-1 $183 forward single #
loop $184 $-1 $185 $102 #
plane-surface $186 0 2 0 -1 0 0 0 0 1 0 #
loop_type-twe-attrib $-1 $-1 $-1 $103 0 #
coedge $-1 $187 $188 $148 $189 0 $103 $-1 #
surf-twe-attrib $-1 $-1 $-1 $104 70 #
face_name-twe-attrib $-1 $-1 $-1 $106 8 #
face $190 $191 $192 $3 $-1 $193 forward single #
loop $194 $195 $196 $106 #
plane-surface $197 0.31763070137978 0.449976732335064 0.5 0 0 1 1 0 0 0 #
loop_type-twe-attrib $-1 $-1 $-1 $107 0 #
coedge $-1 $198 $199 $141 $189 1 $107 $-1 #
surf-twe-attrib $-1 $-1 $-1 $108 74 #
coedge $-1 $200 $110 $198 $201 1 $75 $-1 #
coedge $-1 $110 $200 $112 $155 0 $75 $-1 #
coedge $-1 $114 $202 $110 $153 0 $134 $-1 #
edge $203 $204 $160 $152 $205 0 #
coedge $-1 $113 $112 $206 $207 1 $49 $-1 #
edge $208 $209 $160 $151 $210 0 #
coedge $-1 $211 $212 $113 $157 0 $213 $-1 #
edge $214 $161 $215 $156 $216 0 #
coedge $-1 $217 $114 $212 $218 0 $134 $-1 #
edge_name-twe-attrib $-1 $-1 $-1 $115 37 8704 #
vertex $-1 $115 $219 #
vertex $-1 $157 $220 #
straight-curve $221 3.26459447752673 1.36887486516062 0.5 1 0 0 #
loop $222 $223 $116 $98 #
edge_name-twe-attrib $-1 $-1 $-1 $117 43 8704 #
vertex $-1 $117 $224 #
ellipse-curve $225 0.3 0.300000000000001 0.5 0 0 1 0.0625000000000002 0 0 1 #
loop_type-twe-attrib $-1 $-1 $-1 $118 1 #
loop $226 $-1 $227 $70 #
point $-1 0.3 0.3625 0 #
cur-twe-attrib $-1 $-1 $-1 $121 83 #
loop_type-twe-attrib $-1 $-1 $-1 $122 1 #
point $-1 0.300000000000001 1.7625 0.5 #
cur-twe-attrib $-1 $-1 $-1 $125 85 #
face_name-twe-attrib $-1 $-1 $-1 $133 25 #
face $228 $229 $230 $3 $-1 $231 forward single #
loop $232 $233 $234 $133 #
cone-surface $235 2.6 1 1.50009999999997 0 0 -1 0.2 0 0 1 0 1 0 #
loop_type-twe-attrib $-1 $-1 $-1 $134 0 #
surf-twe-attrib $-1 $236 $-1 $135 98 #
face_name-twe-attrib $-1 $-1 $-1 $137 32 #
face $237 $238 $213 $3 $-1 $239 forward single #
loop $240 $-1 $241 $137 #
plane-surface $242 3.5 2 0 0 1 0 0 0 1 0 #
loop_type-twe-attrib $-1 $-1 $-1 $138 0 #
coedge $-1 $243 $244 $245 $246 1 $138 $-1 #
surf-twe-attrib $-1 $-1 $-1 $139 102 #
coedge $-1 $247 $141 $248 $249 0 $103 $-1 #
coedge $-1 $141 $206 $200 $250 0 $103 $-1 #
edge $251 $252 $253 $141 $254 0 #
face_name-twe-attrib $-1 $-1 $-1 $144 9 #
face $255 $256 $257 $3 $-1 $258 forward single #
loop $259 $-1 $260 $144 #
plane-surface $261 1.54099888889775 0.565210187406267 0.5 -0.0776212643793812 0.996982918266981 0 0 0 1 0 #
loop_type-twe-attrib $-1 $-1 $-1 $145 0 #
loop $262 $-1 $263 $106 #
coedge $-1 $264 $265 $266 $267 0 $145 $-1 #
surf-twe-attrib $-1 $268 $-1 $146 98 #
coedge $-1 $269 $148 $150 $201 0 $107 $-1 #
coedge $-1 $148 $269 $270 $271 1 $107 $-1 #
coedge $-1 $151 $150 $188 $250 1 $75 $-1 #
edge $272 $252 $204 $198 $273 0 #
coedge $-1 $152 $274 $269 $275 0 $134 $-1 #
edge_name-twe-attrib $-1 $-1 $-1 $153 39 8704 #
vertex $-1 $153 $276 #
straight-curve $277 3.26459447752673 0.768874865160618 0.5 0 1 0 #
coedge $-1 $188 $278 $154 $207 0 $103 $-1 #
edge $279 $215 $209 $206 $280 0 #
edge_name-twe-attrib $-1 $-1 $-1 $155 1 4608 #
vertex $-1 $250 $281 #
straight-curve $282 3.26459447752673 1.36887486516062 2.77555756156289e-16 0 -4.44089209850062e-16 1 #
coedge $-1 $283 $156 $278 $284 1 $213 $-1 #
coedge $-1 $156 $283 $158 $218 1 $213 $-1 #
loop $285 $-1 $156 $181 #
edge_name-twe-attrib $-1 $-1 $-1 $157 73 8704 #
vertex $-1 $157 $286 #
straight-curve $287 3.5 1.36887486516062 0.5 0 0 -1 #
coedge $-1 $288 $158 $289 $290 1 $134 $-1 #
edge $291 $161 $292 $212 $293 0 #
point $-1 3.26459447752673 1.36887486516062 0.5 #
point $-1 3.5 1.36887486516062 0.5 #
cur-twe-attrib $-1 $-1 $-1 $162 115 #
loop_type-twe-attrib $-1 $-1 $-1 $163 1 #
loop $294 $-1 $295 $98 #
point $-1 0.3 0.362500000000001 0.5 #
cur-twe-attrib $-1 $-1 $-1 $166 117 #
loop_type-twe-attrib $-1 $-1 $-1 $168 1 #
coedge $-1 $227 $227 $296 $297 1 $168 $-1 #
face_name-twe-attrib $-1 $-1 $-1 $175 26 #
face $298 $299 $300 $3 $-1 $301 forward single #
loop $302 $-1 $289 $175 #
cone-surface $303 3 1.5 1.49999999999997 0 0 -1 0.5 0 0 1 0 1 0 #
loop_type-twe-attrib $-1 $-1 $-1 $176 0 #
loop $304 $-1 $296 $133 #
coedge $-1 $234 $234 $305 $306 0 $176 $-1 #
surf-twe-attrib $-1 $-1 $-1 $177 133 #
surf-twe-attrib $-1 $-1 $179 $135 106 #
face_name-twe-attrib $-1 $-1 $-1 $181 33 #
face $307 $308 $309 $3 $-1 $310 forward single #
plane-surface $311 3.5 0 0 1 0 0 0 0 -1 0 #
loop_type-twe-attrib $-1 $-1 $-1 $182 0 #
coedge $-1 $312 $313 $314 $315 1 $182 $-1 #
surf-twe-attrib $-1 $-1 $-1 $183 137 #
coedge $-1 $316 $185 $317 $318 1 $138 $-1 #
coedge $-1 $185 $316 $319 $320 1 $138 $-1 #
coedge $-1 $321 $322 $185 $246 0 $300 $-1 #
edge $323 $324 $325 $185 $326 0 #
coedge $-1 $327 $187 $328 $329 1 $103 $-1 #
coedge $-1 $270 $330 $187 $249 1 $309 $-1 #
edge $331 $253 $332 $248 $333 0 #
edge $334 $209 $252 $188 $335 0 #
edge_name-twe-attrib $-1 $-1 $-1 $189 53 8704 #
vertex $-1 $189 $336 #
vertex $-1 $271 $337 #
straight-curve $338 3.26459447752673 0.768874865160618 2.22044604925031e-16 1 -4.71621486599239e-16 0 #
face_name-twe-attrib $-1 $-1 $-1 $191 10 #
face $339 $340 $341 $3 $-1 $342 forward single #
loop $343 $-1 $344 $191 #
cone-surface $345 1.71908621587633 0.571799044554643 0.5 0 0 1 0.178209172235595 0 0 1 0 1 0 #
loop_type-twe-attrib $-1 $-1 $-1 $192 0 #
coedge $-1 $346 $347 $348 $349 1 $192 $-1 #
surf-twe-attrib $-1 $350 $-1 $193 256 #
loop_type-twe-attrib $-1 $-1 $-1 $195 1 #
coedge $-1 $263 $263 $351 $352 1 $195 $-1 #
coedge $-1 $353 $196 $354 $355 0 $145 $-1 #
coedge $-1 $196 $356 $357 $358 0 $145 $-1 #
coedge $-1 $359 $360 $196 $267 1 $341 $-1 #
edge $361 $362 $363 $266 $364 0 #
surf-twe-attrib $-1 $-1 $197 $146 106 #
coedge $-1 $199 $198 $202 $275 1 $107 $-1 #
coedge $-1 $365 $248 $199 $271 0 $309 $-1 #
edge $366 $253 $367 $270 $368 0 #
edge_name-twe-attrib $-1 $-1 $-1 $201 2 4608 #
straight-curve $369 3.26459447752673 0.768874865160618 2.77555756156289e-16 0 0 1 #
coedge $-1 $202 $370 $365 $371 0 $134 $-1 #
edge $372 $367 $204 $202 $373 0 #
point $-1 3.26459447752673 0.768874865160618 0.5 #
cur-twe-attrib $-1 $-1 $-1 $205 153 #
coedge $-1 $206 $374 $211 $284 0 $103 $-1 #
edge_name-twe-attrib $-1 $-1 $-1 $207 58 8704 #
straight-curve $375 3.5 1.36887486516062 2.22044604925031e-16 -1 0 0 #
point $-1 3.26459447752673 1.36887486516062 2.22044604925031e-16 #
cur-twe-attrib $-1 $-1 $-1 $210 155 #
coedge $-1 $212 $211 $376 $377 1 $213 $-1 #
edge $378 $379 $215 $211 $380 0 #
loop_type-twe-attrib $-1 $-1 $-1 $213 0 #
point $-1 3.5 1.36887486516062 0 #
cur-twe-attrib $-1 $-1 $-1 $216 157 #
coedge $-1 $381 $217 $313 $382 0 $134 $-1 #
coedge $-1 $376 $314 $217 $290 0 $230 $-1 #
edge $383 $384 $292 $289 $385 0 #
edge_name-twe-attrib $-1 $-1 $-1 $218 76 8704 #
vertex $-1 $218 $386 #
straight-curve $387 3.5 1.36887486516062 0.5 0 1 0 #
loop_type-twe-attrib $-1 $-1 $-1 $223 1 #
coedge $-1 $388 $389 $390 $391 1 $223 $-1 #
coedge $-1 $296 $296 $227 $297 0 $233 $-1 #
edge $392 $393 $393 $227 $394 0 #
face_name-twe-attrib $-1 $-1 $-1 $229 27 #
face $395 $396 $397 $3 $-1 $398 forward single #
loop $399 $-1 $321 $229 #
cone-surface $400 0.5 1.5 1.49999999999997 0 0 -1 0.5 0 0 1 0 1 0 #
loop_type-twe-attrib $-1 $-1 $-1 $230 0 #
surf-twe-attrib $-1 $-1 $-1 $231 175 #
loop_type-twe-attrib $-1 $-1 $-1 $233 1 #
coedge $-1 $305 $305 $234 $306 1 $401 $-1 #
edge $402 $403 $403 $234 $404 0 #
face_name-twe-attrib $-1 $-1 $-1 $238 34 #
face $405 $-1 $406 $3 $-1 $407 forward single #
loop $408 $-1 $270 $238 #
plane-surface $409 3.5 0 0 1 0 0 0 0 -1 0 #
surf-twe-attrib $-1 $410 $-1 $239 238 #
coedge $-1 $411 $241 $412 $413 1 $182 $-1 #
coedge $-1 $241 $411 $288 $382 1 $182 $-1 #
coedge $-1 $289 $414 $241 $315 0 $230 $-1 #
edge $415 $416 $384 $241 $417 0 #
coedge $-1 $244 $243 $418 $419 1 $138 $-1 #
coedge $-1 $420 $421 $243 $318 0 $103 $-1 #
edge $422 $423 $324 $243 $424 0 #
coedge $-1 $425 $381 $244 $320 0 $134 $-1 #
edge $426 $325 $427 $244 $428 0 #
coedge $-1 $429 $245 $381 $430 0 $300 $-1 #
coedge $-1 $245 $429 $420 $431 0 $300 $-1 #
edge_name-twe-attrib $-1 $-1 $-1 $246 65 24576 #
vertex $-1 $246 $432 #
vertex $-1 $246 $433 #
straight-curve $434 0 1.5 0 0 0 1 #
coedge $-1 $421 $247 $435 $436 0 $103 $-1 #
coedge $-1 $437 $438 $247 $329 0 $439 $-1 #
edge $440 $441 $332 $247 $442 0 #
coedge $-1 $248 $365 $437 $443 1 $309 $-1 #
edge_name-twe-attrib $-1 $-1 $-1 $249 80 8704 #
vertex $-1 $249 $444 #
straight-curve $445 3.5 0.768874865160618 0 0 -1 0 #
edge_name-twe-attrib $-1 $-1 $-1 $250 59 8704 #
straight-curve $446 3.26459447752673 1.36887486516062 2.22044604925031e-16 0 -1 0 #
point $-1 3.26459447752673 0.768874865160618 2.22044604925031e-16 #
point $-1 3.5 0.768874865160618 0 #
cur-twe-attrib $-1 $-1 $-1 $254 189 #
face_name-twe-attrib $-1 $-1 $-1 $256 11 #
face $447 $448 $449 $3 $-1 $450 reversed single #
loop $451 $-1 $452 $256 #
plane-surface $453 2.62727299310636 0.649783320893668 0.5 -0.0776212643793812 0.996982918266981 0 0 0 1 0 #
loop_type-twe-attrib $-1 $-1 $-1 $257 0 #
coedge $-1 $454 $455 $456 $457 0 $257 $-1 #
surf-twe-attrib $-1 $-1 $-1 $258 191 #
coedge $-1 $458 $260 $455 $459 1 $192 $-1 #
coedge $-1 $260 $458 $460 $461 0 $192 $-1 #
coedge $-1 $462 $456 $260 $349 0 $463 $-1 #
edge $464 $465 $466 $348 $467 0 #
surf-twe-attrib $-1 $-1 $261 $193 144 #
coedge $-1 $351 $351 $263 $352 0 $468 $-1 #
edge $469 $470 $470 $351 $471 0 #
coedge $-1 $472 $264 $473 $474 0 $145 $-1 #
coedge $-1 $475 $476 $264 $355 1 $449 $-1 #
edge $477 $363 $478 $354 $479 0 #
coedge $-1 $265 $480 $458 $481 0 $145 $-1 #
coedge $-1 $455 $454 $265 $358 1 $257 $-1 #
edge $482 $483 $362 $357 $484 0 #
coedge $-1 $452 $266 $454 $485 0 $341 $-1 #
coedge $-1 $266 $452 $475 $486 1 $341 $-1 #
edge_name-twe-attrib $-1 $-1 $-1 $267 6 4608 #
vertex $-1 $485 $487 #
vertex $-1 $486 $488 #
straight-curve $489 1.89604735371116 0.592852898479673 0.5 0.996982918266981 0.0776212643793813 0 #
coedge $-1 $330 $270 $274 $371 1 $309 $-1 #
edge_name-twe-attrib $-1 $-1 $-1 $271 77 8704 #
vertex $-1 $271 $490 #
straight-curve $491 3.5 0.768874865160618 2.22044604925031e-16 8.88178419700126e-16 0 1 #
cur-twe-attrib $-1 $-1 $-1 $273 201 #
coedge $-1 $274 $492 $493 $494 1 $134 $-1 #
edge $495 $496 $367 $365 $497 0 #
edge_name-twe-attrib $-1 $-1 $-1 $275 38 8704 #
straight-curve $498 3.5 0.768874865160618 0.5 -1 0 0 #
coedge $-1 $278 $412 $414 $499 1 $103 $-1 #
cur-twe-attrib $-1 $-1 $-1 $280 207 #
coedge $-1 $414 $289 $283 $377 0 $230 $-1 #
edge $500 $292 $379 $283 $501 0 #
edge_name-twe-attrib $-1 $-1 $-1 $284 74 8704 #
vertex $-1 $377 $502 #
straight-curve $503 3.5 1.5 0 0 -1 0 #
coedge $-1 $319 $288 $321 $430 1 $134 $-1 #
edge $504 $384 $505 $313 $506 0 #
edge_name-twe-attrib $-1 $-1 $-1 $290 49 8704 #
vertex $-1 $315 $507 #
ellipse-curve $508 3 1.5 0.5 0 0 -1 0.5 0 0 1 #
point $-1 3.5 1.5 0.5 #
cur-twe-attrib $-1 $509 $-1 $293 371 #
coedge $-1 $510 $295 $511 $512 1 $223 $-1 #
coedge $-1 $295 $510 $513 $514 1 $223 $-1 #
coedge $-1 $515 $516 $295 $391 0 $517 $-1 #
edge $518 $519 $520 $295 $521 0 #
edge_name-twe-attrib $-1 $-1 $-1 $297 64 8704 #
vertex $-1 $297 $522 #
ellipse-curve $523 2.6 1 0 0 0 -1 0.2 0 0 1 #
face_name-twe-attrib $-1 $-1 $-1 $299 28 #
face $524 $70 $439 $3 $-1 $525 forward single #
loop $526 $-1 $527 $299 #
cone-surface $528 0.5 0.5 1.49999999999997 0 0 -1 0.5 0 0 1 0 1 0 #
loop_type-twe-attrib $-1 $-1 $-1 $300 0 #
surf-twe-attrib $-1 $-1 $-1 $301 229 #
loop $529 $-1 $305 $530 #
edge_name-twe-attrib $-1 $-1 $-1 $306 48 8704 #
vertex $-1 $306 $531 #
ellipse-curve $532 2.6 1 0.350000099999993 0 0 1 0.2 0 0 1 #
face_name-twe-attrib $-1 $-1 $-1 $308 35 #
loop $533 $-1 $534 $308 #
plane-surface $535 0 0 0 0 -1 0 0 0 -1 0 #
loop_type-twe-attrib $-1 $-1 $-1 $309 0 #
surf-twe-attrib $-1 $536 $-1 $310 238 #
surf-twe-attrib $-1 $-1 $311 $239 181 #
coedge $-1 $313 $312 $429 $537 1 $182 $-1 #
coedge $-1 $374 $420 $312 $413 0 $103 $-1 #
edge $538 $539 $416 $312 $540 0 #
coedge $-1 $314 $376 $374 $499 0 $230 $-1 #
edge_name-twe-attrib $-1 $-1 $-1 $315 69 24576 #
vertex $-1 $315 $541 #
straight-curve $542 3 2 0 0 0 1 #
coedge $-1 $543 $527 $316 $419 0 $397 $-1 #
edge $544 $427 $423 $316 $545 0 #
coedge $-1 $412 $317 $322 $431 1 $103 $-1 #
coedge $-1 $317 $327 $543 $546 1 $103 $-1 #
edge_name-twe-attrib $-1 $-1 $-1 $318 66 8704 #
vertex $-1 $419 $547 #
straight-curve $548 0 0.5 0 0 1 0 #
coedge $-1 $492 $319 $527 $549 1 $134 $-1 #
edge_name-twe-attrib $-1 $-1 $-1 $320 68 8704 #
vertex $-1 $320 $550 #
straight-curve $551 0 1.5 0.5 0 -1 0 #
coedge $-1 $322 $321 $411 $537 0 $300 $-1 #
edge $552 $325 $505 $321 $553 0 #
edge $554 $539 $324 $420 $555 0 #
point $-1 0 1.5 0 #
point $-1 0 1.5 0.5 #
cur-twe-attrib $-1 $-1 $-1 $326 246 #
coedge $-1 $556 $534 $327 $436 1 $406 $-1 #
edge $557 $441 $558 $435 $559 0 #
coedge $-1 $493 $328 $330 $443 0 $439 $-1 #
coedge $-1 $328 $493 $556 $560 0 $439 $-1 #
loop $561 $-1 $493 $396 #
edge_name-twe-attrib $-1 $-1 $-1 $329 54 8704 #
vertex $-1 $560 $562 #
ellipse-curve $563 3 0.5 0 0 0 1 0.5 0 0 1 #
edge $564 $332 $496 $330 $565 0 #
point $-1 3.5 0.5 0 #
cur-twe-attrib $-1 $566 $-1 $333 249 #
cur-twe-attrib $-1 $-1 $-1 $335 250 #
face_name-twe-attrib $-1 $-1 $-1 $340 12 #
face $567 $568 $569 $3 $-1 $570 forward single #
loop $571 $-1 $572 $340 #
cone-surface $573 2.6 1.00008305479337 0.5 0 0 1 0.351359815179801 0 0 1 0 1 0 #
loop_type-twe-attrib $-1 $-1 $-1 $341 0 #
coedge $-1 $360 $359 $574 $575 1 $341 $-1 #
surf-twe-attrib $-1 $576 $-1 $342 256 #
coedge $-1 $357 $344 $359 $485 1 $257 $-1 #
coedge $-1 $344 $357 $346 $459 0 $257 $-1 #
coedge $-1 $348 $574 $344 $457 1 $463 $-1 #
edge $577 $465 $578 $456 $579 0 #
coedge $-1 $347 $346 $356 $481 1 $192 $-1 #
edge $580 $483 $465 $455 $581 0 #
coedge $-1 $582 $583 $347 $461 1 $584 $-1 #
edge $585 $586 $466 $460 $587 0 #
coedge $-1 $588 $348 $583 $589 1 $463 $-1 #
loop $590 $-1 $591 $592 #
edge_name-twe-attrib $-1 $-1 $-1 $349 30 8704 #
vertex $-1 $349 $593 #
vertex $-1 $589 $594 #
straight-curve $595 1.54099888889775 0.565210187406267 0.75 -0.996982918266981 -0.0776212643793815 0 #
loop $596 $597 $351 $598 #
edge_name-twe-attrib $-1 $-1 $-1 $352 35 8704 #
vertex $-1 $352 $599 #
ellipse-curve $600 2.6 1 0.5 0 0 1 0.25 0 0 1 #
coedge $-1 $601 $353 $602 $603 0 $145 $-1 #
coedge $-1 $604 $605 $353 $474 1 $569 $-1 #
edge $606 $478 $607 $473 $608 0 #
coedge $-1 $572 $354 $360 $486 0 $449 $-1 #
coedge $-1 $354 $572 $604 $609 1 $449 $-1 #
edge_name-twe-attrib $-1 $-1 $-1 $355 8 4608 #
vertex $-1 $609 $610 #
ellipse-curve $611 2.6 1.00008305479337 0.5 0 0 1 0.351359815179801 0 0 1 #
coedge $-1 $356 $601 $582 $612 0 $145 $-1 #
edge $613 $586 $483 $458 $614 0 #
edge_name-twe-attrib $-1 $-1 $-1 $358 4 4608 #
vertex $-1 $459 $615 #
ellipse-curve $616 1.71908621587633 0.571799044554643 0.5 0 0 -1 0.178209172235595 0 0 1 #
edge $617 $362 $578 $359 $618 0 #
edge $619 $363 $620 $475 $621 0 #
point $-1 1.89604735371116 0.592852898479673 0.5 #
point $-1 2.62727299310636 0.649783320893667 0.5 #
cur-twe-attrib $-1 $622 $-1 $364 267 #
point $-1 3.5 0.768874865160618 0.5 #
cur-twe-attrib $-1 $-1 $-1 $368 271 #
coedge $-1 $370 $425 $623 $624 0 $134 $-1 #
coedge $-1 $438 $437 $370 $494 0 $439 $-1 #
edge $625 $496 $626 $493 $627 0 #
edge_name-twe-attrib $-1 $-1 $-1 $371 78 8704 #
vertex $-1 $443 $628 #
straight-curve $629 3.5 0.5 0.5 0 1 0 #
cur-twe-attrib $-1 $-1 $-1 $373 275 #
edge $630 $379 $416 $374 $631 0 #
edge_name-twe-attrib $-1 $-1 $-1 $377 75 24576 #
straight-curve $632 3.5 1.5 0.5 0 0 -1 #
point $-1 3.5 1.5 0 #
cur-twe-attrib $-1 $633 $-1 $380 249 #
edge_name-twe-attrib $-1 $-1 $-1 $382 72 8704 #
vertex $-1 $382 $634 #
straight-curve $635 3 2 0.5 -1 8.88178419700124e-17 2.22044604925031e-17 #
point $-1 3 2 0.5 #
cur-twe-attrib $-1 $-1 $-1 $385 290 #
cur-twe-attrib $-1 $-1 $387 $293 218 #
coedge $-1 $389 $388 $636 $637 1 $223 $-1 #
coedge $-1 $638 $639 $388 $512 0 $640 $-1 #
edge $641 $642 $519 $388 $643 0 #
coedge $-1 $644 $645 $389 $514 0 $646 $-1 #
edge $647 $520 $648 $389 $649 0 #
coedge $-1 $650 $390 $645 $651 1 $517 $-1 #
coedge $-1 $390 $650 $638 $652 1 $517 $-1 #
loop $653 $-1 $390 $654 #
edge_name-twe-attrib $-1 $-1 $-1 $391 44 4608 #
vertex $-1 $391 $655 #
vertex $-1 $391 $656 #
straight-curve $657 2.6402088696918 1.5164506989942 0.5 -0.996982918266981 0.0776212643793808 0 #
point $-1 2.6 1.2 0 #
cur-twe-attrib $-1 $-1 $-1 $394 297 #
face_name-twe-attrib $-1 $-1 $-1 $396 29 #
cone-surface $658 3 0.5 1.49999999999997 0 0 -1 0.5 0 0 1 0 1 0 #
loop_type-twe-attrib $-1 $-1 $-1 $397 0 #
coedge $-1 $418 $659 $425 $549 0 $397 $-1 #
surf-twe-attrib $-1 $-1 $-1 $398 299 #
loop_type-twe-attrib $-1 $-1 $-1 $401 1 #
face $660 $98 $661 $3 $-1 $662 forward single #
point $-1 2.6 1.2 0.350000099999993 #
cur-twe-attrib $-1 $-1 $-1 $404 306 #
loop_type-twe-attrib $-1 $-1 $-1 $406 0 #
coedge $-1 $435 $623 $659 $663 1 $406 $-1 #
surf-twe-attrib $-1 $-1 $-1 $407 308 #
surf-twe-attrib $-1 $-1 $409 $310 181 #
edge $664 $505 $539 $411 $665 0 #
edge_name-twe-attrib $-1 $-1 $-1 $413 70 8704 #
vertex $-1 $537 $666 #
straight-curve $667 0.5 2 0 1 0 0 #
point $-1 3 2 0 #
cur-twe-attrib $-1 $-1 $-1 $417 315 #
coedge $-1 $659 $418 $421 $546 0 $397 $-1 #
edge_name-twe-attrib $-1 $-1 $-1 $419 67 24576 #
straight-curve $668 0 0.5 0.5 0 0 -1 #
edge $669 $423 $558 $421 $670 0 #
point $-1 0 0.5 0 #
cur-twe-attrib $-1 $-1 $-1 $424 318 #
edge $671 $672 $427 $527 $673 0 #
point $-1 0 0.5 0.5 #
cur-twe-attrib $-1 $-1 $-1 $428 320 #
edge_name-twe-attrib $-1 $-1 $-1 $430 50 8704 #
ellipse-curve $674 0.5 1.5 0.5 0 0 -1 0.5 0 0 1 #
edge_name-twe-attrib $-1 $-1 $-1 $431 56 8704 #
ellipse-curve $675 0.5 1.5 0 0 0 1 0.5 0 0 1 #
coedge $-1 $623 $435 $438 $560 1 $406 $-1 #
edge_name-twe-attrib $-1 $-1 $-1 $436 82 8704 #
vertex $-1 $663 $676 #
straight-curve $677 3 0 0 -1 0 0 #
edge $678 $626 $441 $556 $679 0 #
loop_type-twe-attrib $-1 $-1 $-1 $439 0 #
point $-1 3 0 0 #
cur-twe-attrib $-1 $-1 $-1 $442 329 #
edge_name-twe-attrib $-1 $-1 $-1 $443 79 24576 #
straight-curve $680 3.5 0.5 0 0 0 1 #
cur-twe-attrib $-1 $-1 $445 $333 284 #
face_name-twe-attrib $-1 $-1 $-1 $448 13 #
face $681 $682 $683 $3 $-1 $684 forward single #
loop $685 $-1 $686 $448 #
plane-surface $687 1.89604735371116 1.40731321110707 0.5 -0.0776212643793809 -0.996982918266981 0 0 0 -1 0 #
loop_type-twe-attrib $-1 $-1 $-1 $449 0 #
coedge $-1 $476 $475 $591 $688 0 $449 $-1 #
surf-twe-attrib $-1 $-1 $-1 $450 340 #
coedge $-1 $456 $591 $452 $575 0 $463 $-1 #
edge $689 $620 $578 $574 $690 0 #
surf-twe-attrib $-1 $-1 $453 $342 144 #
edge_name-twe-attrib $-1 $-1 $-1 $457 29 8704 #
vertex $-1 $457 $691 #
ellipse-curve $692 1.71908621587633 0.571799044554643 0.75 0 0 -1 0.178209172235595 0 0 1 #
edge_name-twe-attrib $-1 $-1 $-1 $459 5 4352 #
straight-curve $693 1.54099888889775 0.565210187406267 0.5 0 0 1 #
coedge $-1 $694 $460 $480 $612 1 $584 $-1 #
coedge $-1 $460 $694 $462 $589 0 $584 $-1 #
loop $695 $-1 $583 $696 #
edge_name-twe-attrib $-1 $-1 $-1 $461 16 4352 #
vertex $-1 $612 $697 #
straight-curve $698 0.809773249502555 0.508279764992271 0.5 0 0 1 #
coedge $-1 $699 $462 $700 $701 0 $463 $-1 #
edge $702 $703 $466 $462 $704 0 #
loop_type-twe-attrib $-1 $-1 $-1 $463 1 #
coedge $-1 $574 $705 $572 $688 1 $463 $-1 #
face $706 $598 $707 $3 $-1 $708 forward single #
point $-1 1.54099888889775 0.565210187406267 0.75 #
point $-1 0.809773249502554 0.508279764992271 0.75 #
cur-twe-attrib $-1 $709 $-1 $467 349 #
loop_type-twe-attrib $-1 $-1 $-1 $468 0 #
loop $710 $-1 $711 $598 #
face $712 $530 $468 $3 $-1 $713 reversed single #
point $-1 2.85 1 0.5 #
cur-twe-attrib $-1 $-1 $-1 $471 352 #
coedge $-1 $480 $472 $714 $715 0 $145 $-1 #
coedge $-1 $716 $717 $472 $603 1 $683 $-1 #
edge $718 $607 $719 $602 $720 0 #
coedge $-1 $686 $473 $476 $609 0 $569 $-1 #
coedge $-1 $473 $686 $716 $721 1 $569 $-1 #
edge_name-twe-attrib $-1 $-1 $-1 $474 10 4608 #
vertex $-1 $721 $722 #
straight-curve $723 2.62727299310636 1.35038278869308 0.5 -0.996982918266981 0.077621264379381 0 #
edge $724 $478 $725 $604 $726 0 #
point $-1 2.62727299310636 1.35038278869308 0.5 #
cur-twe-attrib $-1 $-1 $-1 $479 355 #
edge $727 $728 $586 $582 $729 0 #
edge_name-twe-attrib $-1 $-1 $-1 $481 3 4608 #
straight-curve $730 0.809773249502555 0.508279764992271 0.5 0.996982918266981 0.0776212643793815 0 #
point $-1 1.54099888889775 0.565210187406267 0.5 #
cur-twe-attrib $-1 $-1 $-1 $484 358 #
edge_name-twe-attrib $-1 $-1 $-1 $485 7 4352 #
straight-curve $731 1.89604735371116 0.592852898479673 0.5 0 0 1 #
edge_name-twe-attrib $-1 $-1 $-1 $486 9 20480 #
vertex $-1 $688 $732 #
straight-curve $733 2.62727299310636 0.649783320893668 0.5 0 0 1 #
cur-twe-attrib $-1 $-1 $489 $364 481 #
coedge $-1 $534 $556 $492 $624 1 $406 $-1 #
edge $734 $672 $626 $623 $735 0 #
edge_name-twe-attrib $-1 $-1 $-1 $494 52 8704 #
vertex $-1 $624 $736 #
ellipse-curve $737 3 0.5 0.5 0 0 -1 0.5 0 0 1 #
point $-1 3.5 0.5 0.5 #
cur-twe-attrib $-1 $738 $-1 $497 371 #
edge_name-twe-attrib $-1 $-1 $-1 $499 57 8704 #
ellipse-curve $739 3 1.5 0 0 0 1 0.5 0 0 1 #
cur-twe-attrib $-1 $-1 $-1 $501 377 #
cur-twe-attrib $-1 $-1 $503 $380 284 #
point $-1 0.5 2 0.5 #
cur-twe-attrib $-1 $-1 $-1 $506 382 #
coedge $-1 $740 $741 $510 $637 0 $742 $-1 #
edge $743 $648 $642 $510 $744 0 #
coedge $-1 $745 $511 $516 $652 0 $640 $-1 #
coedge $-1 $511 $745 $740 $746 0 $640 $-1 #
loop $747 $-1 $511 $748 #
edge_name-twe-attrib $-1 $-1 $-1 $512 45 4608 #
vertex $-1 $637 $749 #
ellipse-curve $750 2.6 1 0.5 0 0 1 0.518013588329006 0 0 1 #
coedge $-1 $751 $513 $741 $752 1 $646 $-1 #
coedge $-1 $513 $751 $515 $651 0 $646 $-1 #
loop $753 $-1 $513 $754 #
edge_name-twe-attrib $-1 $-1 $-1 $514 47 4608 #
vertex $-1 $514 $755 #
ellipse-curve $756 0.900000000000001 1 0.5 0 0 1 0.650000000000001 0 0 1 #
coedge $-1 $516 $515 $757 $758 0 $517 $-1 #
edge $759 $760 $520 $645 $761 0 #
edge $762 $519 $763 $638 $764 0 #
loop_type-twe-attrib $-1 $-1 $-1 $517 0 #
face $765 $754 $517 $3 $-1 $766 reversed single #
point $-1 2.6402088696918 1.5164506989942 0.5 #
point $-1 0.94419823750747 1.64849557886021 0.5 #
cur-twe-attrib $-1 $-1 $-1 $521 391 #
surf-twe-attrib $-1 $-1 $-1 $525 396 #
coedge $-1 $527 $543 $534 $663 0 $397 $-1 #
face_name-twe-attrib $-1 $-1 $-1 $530 23 #
loop $767 $401 $768 $530 #
plane-surface $769 3.50035 -0.0002 0.35 0 0 1 1 0 0 0 #
edge $770 $558 $672 $534 $771 0 #
edge_name-twe-attrib $-1 $-1 $-1 $537 71 24576 #
straight-curve $772 0.5 2 0.5 0 0 -1 #
point $-1 0.5 2 0 #
cur-twe-attrib $-1 $-1 $-1 $540 413 #
cur-twe-attrib $-1 $-1 $-1 $545 419 #
edge_name-twe-attrib $-1 $-1 $-1 $546 55 8704 #
ellipse-curve $773 0.5 0.5 0 0 0 1 0.5 0 0 1 #
edge_name-twe-attrib $-1 $-1 $-1 $549 51 8704 #
vertex $-1 $663 $774 #
ellipse-curve $775 0.5 0.5 0.5 0 0 -1 0.5 0 0 1 #
cur-twe-attrib $-1 $-1 $-1 $553 430 #
cur-twe-attrib $-1 $-1 $-1 $555 431 #
point $-1 0.5 0 0 #
cur-twe-attrib $-1 $-1 $-1 $559 436 #
edge_name-twe-attrib $-1 $-1 $-1 $560 83 24576 #
straight-curve $776 3 0 0.5 0 0 -1 #
cur-twe-attrib $-1 $-1 $-1 $565 443 #
face_name-twe-attrib $-1 $-1 $-1 $568 14 #
face $777 $696 $778 $3 $-1 $779 forward single #
loop $780 $-1 $781 $568 #
cone-surface $782 1.71896797605517 1.42734825734763 0.5 0 0 1 0.178209172235594 0 0 1 0 1 0 #
loop_type-twe-attrib $-1 $-1 $-1 $569 0 #
coedge $-1 $605 $604 $705 $783 1 $569 $-1 #
surf-twe-attrib $-1 $784 $-1 $570 682 #
edge $785 $620 $725 $591 $786 0 #
edge_name-twe-attrib $-1 $-1 $-1 $575 28 8704 #
straight-curve $787 2.62727299310636 0.649783320893668 0.75 -0.996982918266981 -0.0776212643793813 0 #
point $-1 1.89604735371116 0.592852898479673 0.75 #
cur-twe-attrib $-1 $-1 $-1 $579 457 #
cur-twe-attrib $-1 $-1 $-1 $581 459 #
coedge $-1 $583 $582 $788 $789 0 $584 $-1 #
loop_type-twe-attrib $-1 $-1 $-1 $584 0 #
face $790 $654 $584 $3 $-1 $791 reversed single #
point $-1 0.809773249502555 0.508279764992271 0.5 #
cur-twe-attrib $-1 $-1 $-1 $587 461 #
coedge $-1 $705 $588 $781 $792 1 $463 $-1 #
coedge $-1 $788 $793 $588 $701 1 $778 $-1 #
edge $794 $703 $795 $588 $796 0 #
edge_name-twe-attrib $-1 $-1 $-1 $589 31 8704 #
vertex $-1 $701 $797 #
ellipse-curve $798 0.899882 1.00009315753439 0.75 -8.52872731054618e-17 -1.56399768421875e-17 1 0.5 0 0 1 #
coedge $-1 $591 $699 $686 $783 0 $463 $-1 #
face_name-twe-attrib $-1 $-1 $-1 $592 21 #
loop $799 $463 $800 $592 #
plane-surface $801 3.118013588329 0.33946481832174 0.75 0 0 1 1 0 0 0 #
cur-twe-attrib $-1 $-1 $595 $467 575 #
loop_type-twe-attrib $-1 $-1 $-1 $597 1 #
coedge $-1 $711 $711 $768 $802 0 $597 $-1 #
face_name-twe-attrib $-1 $-1 $-1 $598 22 #
cone-surface $803 2.6 1 0.5 0 0 -1 0.25 0 0 1 0 1 0 #
coedge $-1 $793 $788 $601 $715 1 $778 $-1 #
edge $804 $719 $728 $714 $805 0 #
coedge $-1 $781 $602 $605 $721 0 $683 $-1 #
coedge $-1 $602 $781 $793 $806 1 $683 $-1 #
edge_name-twe-attrib $-1 $-1 $-1 $603 12 4608 #
vertex $-1 $806 $807 #
ellipse-curve $808 1.71896797605517 1.42734825734763 0.5 0 0 -1 0.178209172235594 0 0 1 #
edge $809 $607 $810 $716 $811 0 #
point $-1 1.89604735371116 1.40731321110707 0.5 #
cur-twe-attrib $-1 $812 $-1 $608 715 #
edge_name-twe-attrib $-1 $-1 $-1 $609 11 20480 #
vertex $-1 $688 $813 #
straight-curve $814 2.62727299310636 1.35038278869308 0.5 0 0 1 #
edge_name-twe-attrib $-1 $-1 $-1 $612 17 4608 #
vertex $-1 $789 $815 #
ellipse-curve $816 0.899882 1.00009315753439 0.5 0 0 1 0.5 0 0 1 #
cur-twe-attrib $-1 $817 $-1 $614 267 #
cur-twe-attrib $-1 $-1 $-1 $618 485 #
point $-1 2.62727299310636 0.649783320893667 0.75 #
cur-twe-attrib $-1 $-1 $-1 $621 486 #
edge_name-twe-attrib $-1 $-1 $-1 $624 84 8704 #
straight-curve $818 0.5 0 0.5 1 0 2.22044604925031e-17 #
point $-1 3 0 0.5 #
cur-twe-attrib $-1 $-1 $-1 $627 494 #
cur-twe-attrib $-1 $-1 $629 $497 218 #
cur-twe-attrib $-1 $-1 $-1 $631 499 #
coedge $-1 $819 $636 $639 $746 1 $742 $-1 #
coedge $-1 $636 $819 $644 $752 0 $742 $-1 #
loop $820 $-1 $636 $821 #
edge_name-twe-attrib $-1 $-1 $-1 $637 46 4608 #
straight-curve $822 0.944198237507469 0.351504421139794 0.5 0.996982918266981 0.0776212643793814 0 #
coedge $-1 $639 $638 $800 $823 0 $640 $-1 #
edge $824 $825 $642 $639 $826 0 #
loop_type-twe-attrib $-1 $-1 $-1 $640 0 #
face $827 $592 $640 $3 $-1 $828 forward single #
point $-1 2.6402088696918 0.483549301005798 0.5 #
cur-twe-attrib $-1 $-1 $-1 $643 512 #
coedge $-1 $645 $644 $829 $830 0 $646 $-1 #
edge $831 $832 $648 $741 $833 0 #
loop_type-twe-attrib $-1 $-1 $-1 $646 0 #
face $834 $821 $646 $3 $-1 $835 forward single #
point $-1 0.944198237507469 0.351504421139794 0.5 #
cur-twe-attrib $-1 $-1 $-1 $649 514 #
coedge $-1 $829 $800 $650 $758 1 $707 $-1 #
edge $836 $760 $763 $757 $837 0 #
edge_name-twe-attrib $-1 $-1 $-1 $651 19 8448 #
vertex $-1 $830 $838 #
straight-curve $839 0.94419823750747 1.64849557886021 0.75 0 0 -1 #
edge_name-twe-attrib $-1 $-1 $-1 $652 21 24576 #
vertex $-1 $823 $840 #
straight-curve $841 2.6402088696918 1.5164506989942 0.5 0 0 1 #
face_name-twe-attrib $-1 $-1 $-1 $654 17 #
plane-surface $842 0.94419823750747 1.64849557886021 0.5 -0.0776212643793812 -0.996982918266981 0 0 0 -1 0 #
loop_type-twe-attrib $-1 $-1 $-1 $661 0 #
coedge $-1 $768 $768 $711 $802 1 $661 $-1 #
surf-twe-attrib $-1 $-1 $-1 $662 530 #
edge_name-twe-attrib $-1 $-1 $-1 $663 81 24576 #
straight-curve $843 0.5 0 0 0 0 1 #
cur-twe-attrib $-1 $-1 $-1 $665 537 #
cur-twe-attrib $-1 $-1 $-1 $670 546 #
point $-1 0.5 0 0.5 #
cur-twe-attrib $-1 $-1 $-1 $673 549 #
cur-twe-attrib $-1 $-1 $-1 $679 560 #
face_name-twe-attrib $-1 $-1 $-1 $682 15 #
loop $844 $-1 $700 $682 #
plane-surface $845 0.809695879757156 1.49189236830597 0.5 -0.0776212643793812 -0.996982918266981 0 0 0 -1 0 #
loop_type-twe-attrib $-1 $-1 $-1 $683 0 #
coedge $-1 $717 $716 $699 $792 0 $683 $-1 #
surf-twe-attrib $-1 $-1 $-1 $684 568 #
edge $846 $810 $725 $705 $847 0 #
surf-twe-attrib $-1 $-1 $687 $570 448 #
edge_name-twe-attrib $-1 $-1 $-1 $688 27 8704 #
ellipse-curve $848 2.6 1.00008305479337 0.75 0 0 1 0.351359815179801 0 0 1 #
cur-twe-attrib $-1 $849 $-1 $690 349 #
coedge $-1 $714 $700 $694 $789 1 $778 $-1 #
edge $850 $728 $703 $694 $851 0 #
face_name-twe-attrib $-1 $-1 $-1 $696 16 #
cone-surface $852 0.899882 1.00009315753439 0.5 0 0 1 0.5 0 0 1 0 1 0 #
edge $853 $810 $795 $699 $854 0 #
coedge $-1 $700 $714 $717 $806 0 $778 $-1 #
edge_name-twe-attrib $-1 $-1 $-1 $701 32 8704 #
vertex $-1 $792 $855 #
straight-curve $856 0.809695879757156 1.49189236830597 0.75 0.996982918266981 -0.077621264379381 0 #
point $-1 0.809695879757156 1.49189236830596 0.75 #
cur-twe-attrib $-1 $-1 $-1 $704 589 #
loop_type-twe-attrib $-1 $-1 $-1 $707 0 #
coedge $-1 $757 $857 $745 $823 1 $707 $-1 #
surf-twe-attrib $-1 $-1 $-1 $708 592 #
edge $858 $859 $859 $768 $860 0 #
surf-twe-attrib $-1 $-1 $-1 $713 598 #
edge_name-twe-attrib $-1 $-1 $-1 $715 14 4608 #
straight-curve $861 1.54092151915235 1.43496194589197 0.5 -0.996982918266981 0.077621264379381 0 #
edge $862 $719 $795 $793 $863 0 #
point $-1 1.54092151915235 1.43496194589197 0.5 #
cur-twe-attrib $-1 $-1 $-1 $720 603 #
edge_name-twe-attrib $-1 $-1 $-1 $721 13 4352 #
vertex $-1 $783 $864 #
straight-curve $865 1.89604735371116 1.40731321110707 0.5 0 0 1 #
cur-twe-attrib $-1 $-1 $723 $608 474 #
point $-1 2.62727299310636 1.35038278869308 0.75 #
cur-twe-attrib $-1 $-1 $-1 $726 609 #
point $-1 0.809695879757156 1.49189236830596 0.5 #
cur-twe-attrib $-1 $-1 $-1 $729 612 #
cur-twe-attrib $-1 $-1 $730 $614 481 #
cur-twe-attrib $-1 $-1 $-1 $735 624 #
coedge $-1 $741 $740 $857 $866 0 $742 $-1 #
loop_type-twe-attrib $-1 $-1 $-1 $742 0 #
face $867 $748 $742 $3 $-1 $868 reversed single #
cur-twe-attrib $-1 $-1 $-1 $744 637 #
edge $869 $763 $825 $800 $870 0 #
edge_name-twe-attrib $-1 $-1 $-1 $746 22 24576 #
vertex $-1 $823 $871 #
straight-curve $872 2.6402088696918 0.483549301005798 0.75 0 0 -1 #
face_name-twe-attrib $-1 $-1 $-1 $748 20 #
cone-surface $873 2.6 1 0.5 0 0 1 0.518013588329006 0 0 1 0 1 0 #
coedge $-1 $857 $757 $751 $830 1 $707 $-1 #
edge $874 $832 $760 $829 $875 0 #
edge_name-twe-attrib $-1 $-1 $-1 $752 20 8448 #
vertex $-1 $866 $876 #
straight-curve $877 0.944198237507469 0.351504421139794 0.75 0 0 -1 #
face_name-twe-attrib $-1 $-1 $-1 $754 18 #
cone-surface $878 0.9 1 0.5 0 0 1 0.65 0 0 1 0 1 0 #
edge_name-twe-attrib $-1 $-1 $-1 $758 24 8704 #
straight-curve $879 0.94419823750747 1.64849557886021 0.75 0.996982918266981 -0.0776212643793808 0 #
point $-1 0.94419823750747 1.64849557886021 0.75 #
cur-twe-attrib $-1 $-1 $-1 $761 651 #
point $-1 2.6402088696918 1.5164506989942 0.75 #
cur-twe-attrib $-1 $-1 $-1 $764 652 #
surf-twe-attrib $-1 $-1 $-1 $766 654 #
cur-twe-attrib $-1 $-1 $-1 $771 663 #
loop_type-twe-attrib $-1 $-1 $-1 $778 0 #
surf-twe-attrib $-1 $880 $-1 $779 682 #
edge_name-twe-attrib $-1 $-1 $-1 $783 34 8704 #
straight-curve $881 1.89604735371116 1.40731321110707 0.75 0.996982918266981 -0.077621264379381 0 #
cur-twe-attrib $-1 $-1 $-1 $786 688 #
cur-twe-attrib $-1 $-1 $787 $690 575 #
edge_name-twe-attrib $-1 $-1 $-1 $789 18 4352 #
straight-curve $882 0.809695879757156 1.49189236830597 0.5 0 0 1 #
surf-twe-attrib $-1 $-1 $-1 $791 696 #
edge_name-twe-attrib $-1 $-1 $-1 $792 33 8704 #
ellipse-curve $883 1.71896797605517 1.42734825734763 0.75 0 0 -1 0.178209172235594 0 0 1 #
point $-1 1.54092151915236 1.43496194589197 0.75 #
cur-twe-attrib $-1 $884 $-1 $796 783 #
coedge $-1 $800 $829 $819 $866 1 $707 $-1 #
edge_name-twe-attrib $-1 $-1 $-1 $802 36 4608 #
vertex $-1 $802 $885 #
ellipse-curve $886 2.6 1 0.35 0 0 -1 0.25 0 0 1 #
cur-twe-attrib $-1 $887 $-1 $805 715 #
edge_name-twe-attrib $-1 $-1 $-1 $806 15 4352 #
straight-curve $888 1.54092151915236 1.43496194589197 0.5 0 0 1 #
point $-1 1.89604735371116 1.40731321110707 0.75 #
cur-twe-attrib $-1 $-1 $-1 $811 721 #
edge $889 $825 $832 $857 $890 0 #
face_name-twe-attrib $-1 $-1 $-1 $821 19 #
plane-surface $891 2.6402088696918 0.483549301005798 0.5 -0.0776212643793815 0.996982918266981 0 0 0 1 0 #
edge_name-twe-attrib $-1 $-1 $-1 $823 23 8704 #
ellipse-curve $892 2.6 1 0.75 0 0 -1 0.518013588329006 0 0 1 #
point $-1 2.6402088696918 0.483549301005798 0.75 #
cur-twe-attrib $-1 $-1 $-1 $826 746 #
surf-twe-attrib $-1 $-1 $-1 $828 748 #
edge_name-twe-attrib $-1 $-1 $-1 $830 25 8704 #
ellipse-curve $893 0.900000000000001 1 0.75 -5.82989143850105e-17 -3.97336442747237e-18 -1 0.650000000000001 0 0 1 #
point $-1 0.944198237507469 0.351504421139794 0.75 #
cur-twe-attrib $-1 $-1 $-1 $833 752 #
surf-twe-attrib $-1 $-1 $-1 $835 754 #
cur-twe-attrib $-1 $-1 $-1 $837 758 #
surf-twe-attrib $-1 $-1 $845 $779 448 #
cur-twe-attrib $-1 $894 $-1 $847 783 #
cur-twe-attrib $-1 $-1 $-1 $851 789 #
cur-twe-attrib $-1 $-1 $-1 $854 792 #
cur-twe-attrib $-1 $-1 $856 $796 701 #
point $-1 2.85 1 0.35 #
cur-twe-attrib $-1 $-1 $-1 $860 802 #
cur-twe-attrib $-1 $-1 $861 $805 474 #
cur-twe-attrib $-1 $-1 $-1 $863 806 #
edge_name-twe-attrib $-1 $-1 $-1 $866 26 8704 #
straight-curve $895 2.6402088696918 0.483549301005798 0.75 -0.996982918266981 -0.0776212643793814 0 #
surf-twe-attrib $-1 $-1 $-1 $868 821 #
cur-twe-attrib $-1 $-1 $-1 $870 823 #
cur-twe-attrib $-1 $-1 $-1 $875 830 #
cur-twe-attrib $-1 $-1 $881 $847 701 #
cur-twe-attrib $-1 $-1 $-1 $890 866 #
