700 0 2 0           
24 FBMach with ACIS - 7.0.3 13 ACIS 7.0.3 NT 24 Tue May 14 09:19:38 2002 
1 9.9999999999999995e-007 1e-010 
body $2 -1 $-1 $3 $-1 $4 #
bdycol-kcp $-1 -1 1 3 $5 $6 $7 #
model_id-kcp-attrib $-1 -1 $-1 $-1 $0 1 1021382377 1021382377 1705050113 1 #
lump $-1 -1 $-1 $-1 $8 $0 #
transform $-1 -1 1 0 0 0 1 0 0 0 1 0 0 0 1 rotate no_reflect no_shear #
body $9 -1 $-1 $10 $-1 $11 #
body $12 -1 $-1 $13 $-1 $14 #
body $15 -1 $-1 $16 $-1 $17 #
shell $-1 -1 $-1 $-1 $-1 $18 $-1 $3 #
model_id-kcp-attrib $-1 -1 $-1 $-1 $5 1 1021382377 1021382377 1705050114 1 #
lump $-1 -1 $-1 $-1 $19 $5 #
transform $-1 -1 1 0 0 0 1 0 0 0 1 0 0 0 1 no_rotate no_reflect no_shear #
rgb_color-st-attrib $-1 -1 $20 $-1 $6 0.5 1 1 #
lump $-1 -1 $-1 $-1 $21 $6 #
transform $-1 -1 1 0 0 0 1 0 0 0 1 0 0 0 1 no_rotate no_reflect no_shear #
rgb_color-st-attrib $-1 -1 $22 $-1 $7 0 0 1 #
lump $-1 -1 $-1 $-1 $23 $7 #
transform $-1 -1 1 0 0 0 1 0 0 0 1 0 0 0 1 no_rotate no_reflect no_shear #
face $24 -1 $-1 $25 $26 $8 $-1 $27 forward single #
shell $-1 -1 $-1 $-1 $-1 $28 $-1 $10 #
model_id-kcp-attrib $-1 -1 $-1 $12 $6 1 1021382377 1021382377 1707016195 1 #
shell $-1 -1 $-1 $-1 $-1 $29 $-1 $13 #
model_id-kcp-attrib $-1 -1 $-1 $15 $7 1 1021382377 1021382378 1697382404 1 #
shell $-1 -1 $-1 $-1 $-1 $30 $-1 $16 #
model_id-kcp-attrib $-1 -1 $-1 $-1 $18 1 1021382377 1021382377 1705050113 2 #
face $31 -1 $-1 $32 $33 $8 $-1 $27 forward single #
loop $34 -1 $-1 $-1 $35 $18 #
plane-surface $-1 -1 $-1 0 -10 20 0 1 0 0 0 1 forward_v I I I I #
face $36 -1 $-1 $37 $38 $19 $-1 $39 forward single #
face $-1 -1 $-1 $40 $41 $21 $-1 $42 forward single #
face $-1 -1 $-1 $43 $44 $23 $-1 $45 forward single #
model_id-kcp-attrib $-1 -1 $-1 $-1 $25 1 1021382377 1021382377 1705050113 3 #
face $46 -1 $-1 $47 $48 $8 $-1 $49 forward single #
loop $50 -1 $-1 $-1 $51 $25 #
model_id-kcp-attrib $-1 -1 $-1 $-1 $26 1 1021382377 1021382377 1705050113 25 #
coedge $-1 -1 $-1 $52 $53 $54 $55 reversed $26 $-1 #
model_id-kcp-attrib $-1 -1 $-1 $-1 $28 1 1021382377 1021382377 1705050114 2 #
face $56 -1 $-1 $57 $58 $19 $-1 $59 reversed single #
loop $-1 -1 $-1 $-1 $60 $28 #
plane-surface $-1 -1 $-1 0 0 40 0 0 1 1 0 0 forward_v I I I I #
face $-1 -1 $-1 $61 $62 $21 $-1 $63 forward single #
loop $-1 -1 $-1 $64 $65 $29 #
cone-surface $-1 -1 $-1 0 0 0 0 0 1 20 0 0 1 I I 0 1 20 forward I I I I #
face $-1 -1 $-1 $66 $67 $23 $-1 $68 forward single #
loop $-1 -1 $-1 $-1 $69 $30 #
cone-surface $-1 -1 $-1 0 0 0 0 0 1 20 0 0 1 I I 0 1 20 forward I I I I #
model_id-kcp-attrib $-1 -1 $-1 $-1 $32 1 1021382377 1021382377 1705050113 4 #
face $70 -1 $-1 $71 $72 $8 $-1 $73 forward single #
loop $74 -1 $-1 $-1 $75 $32 #
plane-surface $-1 -1 $-1 0 10 20 0 -1 0 0 0 -1 forward_v I I I I #
model_id-kcp-attrib $-1 -1 $-1 $-1 $33 1 1021382377 1021382377 1705050113 26 #
coedge $-1 -1 $-1 $76 $77 $78 $79 reversed $33 $-1 #
coedge $-1 -1 $-1 $80 $35 $81 $82 forward $26 $-1 #
coedge $-1 -1 $-1 $35 $80 $83 $84 reversed $26 $-1 #
coedge $-1 -1 $-1 $85 $86 $35 $55 forward $87 $-1 #
edge $88 -1 $-1 $89 0 $90 40 $54 $91 forward @7 unknown #
model_id-kcp-attrib $-1 -1 $-1 $-1 $37 1 1021382377 1021382377 1705050114 3 #
face $92 -1 $-1 $93 $94 $19 $-1 $95 reversed single #
loop $-1 -1 $-1 $-1 $96 $37 #
plane-surface $-1 -1 $-1 0 0 -40 0 0 1 1 0 0 forward_v I I I I #
coedge $-1 -1 $-1 $97 $98 $99 $100 forward $38 $-1 #
face $-1 -1 $-1 $-1 $101 $21 $-1 $102 forward single #
loop $-1 -1 $-1 $-1 $103 $40 #
plane-surface $-1 -1 $-1 0 0 -40 0 0 -1 -1 0 0 forward_v I I I I #
loop $-1 -1 $-1 $-1 $104 $29 #
coedge $-1 -1 $-1 $65 $65 $103 $105 reversed $41 $-1 #
face $-1 -1 $-1 $106 $107 $23 $-1 $108 forward single #
loop $-1 -1 $-1 $-1 $109 $43 #
plane-surface $-1 -1 $-1 -17.320508075688778 -10 0 0 -1 0 0 0 -1 forward_v I I I I #
coedge $-1 -1 $-1 $110 $111 $112 $113 forward $44 $-1 #
model_id-kcp-attrib $-1 -1 $-1 $-1 $47 1 1021382377 1021382377 1705050113 5 #
face $114 -1 $-1 $115 $116 $8 $-1 $73 forward single #
loop $117 -1 $-1 $-1 $118 $47 #
plane-surface $-1 -1 $-1 0 0 0 0 0 1 1 0 0 forward_v I I I I #
model_id-kcp-attrib $-1 -1 $-1 $-1 $48 1 1021382377 1021382377 1705050113 23 #
coedge $-1 -1 $-1 $119 $120 $121 $122 reversed $48 $-1 #
coedge $-1 -1 $-1 $123 $51 $124 $125 reversed $33 $-1 #
coedge $-1 -1 $-1 $51 $123 $126 $127 forward $33 $-1 #
coedge $-1 -1 $-1 $128 $85 $51 $79 forward $87 $-1 #
edge $129 -1 $-1 $130 -40 $131 0 $78 $132 forward @7 unknown #
coedge $-1 -1 $-1 $53 $52 $133 $134 reversed $26 $-1 #
coedge $-1 -1 $-1 $118 $135 $52 $82 reversed $72 $-1 #
edge $136 -1 $-1 $89 17.320508075688775 $137 30 $52 $138 forward @7 unknown #
coedge $-1 -1 $-1 $139 $140 $53 $84 forward $141 $-1 #
edge $142 -1 $-1 $90 17.320508075688775 $143 30 $83 $144 forward @7 unknown #
coedge $-1 -1 $-1 $78 $54 $140 $145 reversed $87 $-1 #
coedge $-1 -1 $-1 $54 $121 $118 $146 forward $87 $-1 #
loop $147 -1 $-1 $148 $149 $150 #
attrib_edge_convexity-kcp-attrib $-1 -1 $151 $-1 $55 1 #
vertex $-1 -1 $-1 $146 $152 #
vertex $-1 -1 $-1 $145 $153 #
straight-curve $-1 -1 $-1 -17.320508075688775 -10 0 0 0 1 I I #
model_id-kcp-attrib $-1 -1 $-1 $-1 $57 1 1021382377 1021382377 1705050114 4 #
face $154 -1 $-1 $155 $156 $19 $-1 $157 reversed single #
loop $-1 -1 $-1 $-1 $158 $57 #
plane-surface $-1 -1 $-1 0 -40 0 0 1 0 0 0 1 forward_v I I I I #
coedge $-1 -1 $-1 $159 $160 $161 $162 forward $58 $-1 #
coedge $-1 -1 $-1 $163 $60 $164 $165 forward $38 $-1 #
coedge $-1 -1 $-1 $60 $163 $166 $167 forward $38 $-1 #
coedge $-1 -1 $-1 $168 $169 $60 $100 reversed $170 $-1 #
edge $-1 -1 $-1 $171 -40 $172 40 $99 $173 forward @7 unknown #
loop $-1 -1 $-1 $-1 $174 $61 #
plane-surface $-1 -1 $-1 0 0 40 0 0 1 1 0 0 forward_v I I I I #
coedge $-1 -1 $-1 $103 $103 $65 $105 forward $62 $-1 #
coedge $-1 -1 $-1 $104 $104 $174 $175 reversed $64 $-1 #
edge $-1 -1 $-1 $176 0 $176 6.2831853071795862 $103 $177 forward @7 unknown #
face $-1 -1 $-1 $178 $179 $23 $-1 $180 forward single #
loop $-1 -1 $-1 $-1 $181 $66 #
plane-surface $-1 -1 $-1 -30 -10 0 -1 0 0 0 0 1 forward_v I I I I #
coedge $-1 -1 $-1 $182 $183 $184 $185 forward $67 $-1 #
coedge $-1 -1 $-1 $186 $69 $183 $187 reversed $44 $-1 #
coedge $-1 -1 $-1 $69 $186 $188 $189 forward $44 $-1 #
coedge $-1 -1 $-1 $190 $184 $69 $113 reversed $191 $-1 #
edge $-1 -1 $-1 $192 0.52359877559829882 $193 2.6179938779914944 $69 $194 forward @7 unknown #
model_id-kcp-attrib $-1 -1 $-1 $-1 $71 1 1021382377 1021382377 1705050113 6 #
face $195 -1 $-1 $196 $197 $8 $-1 $198 forward single #
loop $199 -1 $-1 $-1 $200 $71 #
model_id-kcp-attrib $-1 -1 $-1 $-1 $72 1 1021382377 1021382377 1705050113 24 #
coedge $-1 -1 $-1 $201 $81 $86 $146 reversed $72 $-1 #
coedge $-1 -1 $-1 $202 $75 $203 $204 reversed $48 $-1 #
coedge $-1 -1 $-1 $75 $202 $201 $205 forward $48 $-1 #
coedge $-1 -1 $-1 $86 $206 $75 $122 forward $87 $-1 #
edge $207 -1 $-1 $208 -40 $209 0 $121 $210 forward @7 unknown #
coedge $-1 -1 $-1 $77 $76 $211 $212 forward $33 $-1 #
coedge $-1 -1 $-1 $140 $213 $76 $125 forward $141 $-1 #
edge $214 -1 $-1 $215 -30 $130 -17.320508075688775 $124 $144 forward @7 unknown #
coedge $-1 -1 $-1 $216 $200 $77 $127 reversed $116 $-1 #
edge $-1 -1 $-1 $217 -30 $131 -17.320508075688775 $77 $138 forward @7 unknown #
coedge $-1 -1 $-1 $149 $78 $200 $218 forward $87 $-1 #
attrib_edge_convexity-kcp-attrib $-1 -1 $219 $-1 $79 1 #
vertex $-1 -1 $-1 $79 $220 #
vertex $-1 -1 $-1 $218 $221 #
straight-curve $-1 -1 $-1 17.320508075688775 -10 0 0 0 -1 I I #
coedge $-1 -1 $-1 $222 $223 $80 $134 forward $197 $-1 #
edge $-1 -1 $-1 $143 -20 $137 20 $133 $224 forward @7 unknown #
coedge $-1 -1 $-1 $81 $201 $222 $225 reversed $72 $-1 #
attrib_edge_convexity-kcp-attrib $-1 -1 $226 $-1 $82 2 #
vertex $-1 -1 $-1 $225 $227 #
straight-curve $-1 -1 $-1 0 -10 0 -1 0 0 I I #
coedge $-1 -1 $-1 $203 $83 $223 $228 forward $141 $-1 #
coedge $-1 -1 $-1 $83 $124 $85 $145 forward $141 $-1 #
loop $229 -1 $-1 $-1 $230 $231 #
attrib_edge_convexity-kcp-attrib $-1 -1 $232 $-1 $84 1 #
vertex $-1 -1 $-1 $84 $233 #
straight-curve $-1 -1 $-1 0 -10 40 -1 0 0 I I #
edge $234 -1 $-1 $130 0.52359877559829882 $90 2.6179938779914944 $140 $235 forward @7 unknown #
edge $236 -1 $-1 $209 2.6179938779914944 $89 3.6651914291880918 $86 $237 forward @7 unknown #
model_id-kcp-attrib $-1 -1 $-1 $-1 $87 1 1021382377 1021382377 1705050113 19 #
loop $238 -1 $-1 $-1 $239 $150 #
coedge $-1 -1 $-1 $206 $128 $240 $241 forward $87 $-1 #
face $242 -1 $-1 $243 $87 $8 $-1 $244 reversed single #
convexity-sys-attrib $-1 -1 $-1 $88 $55 #
point $-1 -1 $-1 -17.320508075688775 -10 0 #
point $-1 -1 $-1 -17.320508075688775 -10 40 #
model_id-kcp-attrib $-1 -1 $-1 $-1 $93 1 1021382377 1021382377 1705050114 5 #
face $245 -1 $-1 $246 $247 $19 $-1 $248 reversed single #
loop $-1 -1 $-1 $-1 $249 $93 #
plane-surface $-1 -1 $-1 -40 0 0 1 0 0 0 0 -1 forward_v I I I I #
coedge $-1 -1 $-1 $250 $166 $251 $252 forward $94 $-1 #
coedge $-1 -1 $-1 $253 $96 $250 $254 forward $58 $-1 #
coedge $-1 -1 $-1 $96 $253 $255 $256 forward $58 $-1 #
coedge $-1 -1 $-1 $169 $168 $96 $162 reversed $170 $-1 #
edge $-1 -1 $-1 $257 -40 $258 40 $161 $259 forward @7 unknown #
coedge $-1 -1 $-1 $98 $97 $260 $261 forward $38 $-1 #
coedge $-1 -1 $-1 $262 $263 $97 $165 reversed $247 $-1 #
edge $-1 -1 $-1 $172 -40 $264 40 $164 $265 forward @7 unknown #
coedge $-1 -1 $-1 $158 $266 $98 $167 reversed $94 $-1 #
edge $-1 -1 $-1 $267 -40 $171 40 $166 $268 forward @7 unknown #
coedge $-1 -1 $-1 $161 $99 $266 $269 forward $170 $-1 #
coedge $-1 -1 $-1 $99 $161 $262 $270 reversed $170 $-1 #
loop $-1 -1 $-1 $-1 $168 $246 #
vertex $-1 -1 $-1 $100 $271 #
vertex $-1 -1 $-1 $100 $272 #
straight-curve $-1 -1 $-1 40 0 40 0 1 0 I I #
coedge $-1 -1 $-1 $174 $174 $104 $175 forward $101 $-1 #
edge $-1 -1 $-1 $273 0 $273 6.2831853071795862 $174 $274 forward @7 unknown #
vertex $-1 -1 $-1 $105 $275 #
ellipse-curve $-1 -1 $-1 0 0 -40 0 0 -1 20 0 0 1 I I #
face $-1 -1 $-1 $276 $277 $23 $-1 $278 forward single #
loop $-1 -1 $-1 $-1 $279 $106 #
plane-surface $-1 -1 $-1 -30 10 0 0 1 0 0 0 1 forward_v I I I I #
coedge $-1 -1 $-1 $280 $281 $282 $283 forward $107 $-1 #
coedge $-1 -1 $-1 $284 $109 $281 $285 reversed $67 $-1 #
coedge $-1 -1 $-1 $109 $284 $110 $187 forward $67 $-1 #
coedge $-1 -1 $-1 $112 $282 $109 $185 reversed $191 $-1 #
edge $-1 -1 $-1 $193 17.320508075688778 $286 30 $109 $287 forward @7 unknown #
coedge $-1 -1 $-1 $111 $110 $288 $289 reversed $44 $-1 #
edge $-1 -1 $-1 $290 0 $193 40 $183 $291 forward @7 unknown #
coedge $-1 -1 $-1 $292 $293 $111 $189 reversed $294 $-1 #
edge $-1 -1 $-1 $295 0 $192 40 $111 $296 forward @7 unknown #
coedge $-1 -1 $-1 $297 $112 $293 $298 reversed $191 $-1 #
loop $-1 -1 $-1 $-1 $112 $299 #
vertex $-1 -1 $-1 $189 $300 #
vertex $-1 -1 $-1 $187 $301 #
ellipse-curve $-1 -1 $-1 0 0 40 0 0 -1 20 0 0 1 I I #
model_id-kcp-attrib $-1 -1 $-1 $-1 $115 1 1021382377 1021382377 1705050113 7 #
face $302 -1 $-1 $303 $304 $8 $-1 $49 forward single #
loop $-1 -1 $-1 $-1 $305 $115 #
plane-surface $-1 -1 $-1 -30 0 20 1 0 0 0 0 -1 forward_v I I I I #
model_id-kcp-attrib $-1 -1 $-1 $-1 $116 1 1021382377 1021382377 1705050113 27 #
coedge $-1 -1 $-1 $126 $306 $128 $218 reversed $116 $-1 #
coedge $-1 -1 $-1 $135 $118 $120 $205 reversed $72 $-1 #
coedge $-1 -1 $-1 $120 $119 $305 $307 forward $48 $-1 #
coedge $-1 -1 $-1 $308 $139 $119 $204 forward $141 $-1 #
edge $309 -1 $-1 $310 -30 $208 -17.320508075688775 $203 $311 forward @7 unknown #
edge $312 -1 $-1 $313 -30 $209 -17.320508075688775 $120 $314 forward @7 unknown #
coedge $-1 -1 $-1 $121 $149 $308 $315 reversed $87 $-1 #
attrib_edge_convexity-kcp-attrib $-1 -1 $316 $-1 $122 1 #
vertex $-1 -1 $-1 $122 $317 #
vertex $-1 -1 $-1 $146 $318 #
straight-curve $-1 -1 $-1 -17.320508075688775 10 0 0 0 -1 I I #
coedge $-1 -1 $-1 $319 $320 $123 $212 reversed $321 $-1 #
edge $-1 -1 $-1 $215 -20 $217 20 $211 $322 forward @7 unknown #
coedge $-1 -1 $-1 $124 $230 $319 $323 forward $141 $-1 #
attrib_edge_convexity-kcp-attrib $-1 -1 $324 $-1 $125 1 #
vertex $-1 -1 $-1 $125 $325 #
coedge $-1 -1 $-1 $306 $126 $320 $326 reversed $116 $-1 #
vertex $-1 -1 $-1 $212 $327 #
edge $328 -1 $-1 $131 -0.52359877559829882 $329 0.52359877559829882 $128 $237 forward @7 unknown #
convexity-sys-attrib $-1 -1 $-1 $129 $79 #
point $-1 -1 $-1 17.320508075688775 -10 40 #
point $-1 -1 $-1 17.320508075688775 -10 0 #
coedge $-1 -1 $-1 $305 $133 $135 $225 forward $197 $-1 #
coedge $-1 -1 $-1 $133 $305 $139 $228 reversed $197 $-1 #
straight-curve $-1 -1 $-1 -30 -10 20 0 0 -1 I I #
edge $330 -1 $-1 $137 -10 $313 10 $222 $331 forward @7 unknown #
convexity-sys-attrib $-1 -1 $-1 $136 $82 #
point $-1 -1 $-1 -30 -10 0 #
edge $332 -1 $-1 $143 -10 $310 10 $139 $333 forward @7 unknown #
model_id-kcp-attrib $-1 -1 $-1 $-1 $141 1 1021382377 1021382377 1705050113 22 #
coedge $-1 -1 $-1 $213 $308 $334 $335 forward $141 $-1 #
face $336 -1 $-1 $150 $337 $8 $-1 $338 forward single #
convexity-sys-attrib $-1 -1 $-1 $142 $84 #
point $-1 -1 $-1 -30 -10 40 #
attrib_edge_convexity-kcp-attrib $-1 -1 $339 $-1 $145 1 #
ellipse-curve $-1 -1 $-1 0 0 40 0 0 -1 20 0 0 1 I I #
attrib_edge_convexity-kcp-attrib $-1 -1 $340 $-1 $146 1 #
ellipse-curve $-1 -1 $-1 0 0 0 0 0 1 20 0 0 1 I I #
model_id-kcp-attrib $-1 -1 $-1 $-1 $148 1 1021382377 1021382377 1705050113 20 #
coedge $-1 -1 $-1 $239 $239 $341 $342 reversed $148 $-1 #
coedge $-1 -1 $-1 $343 $334 $149 $241 reversed $304 $-1 #
edge $344 -1 $-1 $329 0 $345 40 $149 $346 forward @7 unknown #
model_id-kcp-attrib $-1 -1 $-1 $-1 $150 1 1021382377 1021382377 1705050113 11 #
face $347 -1 $-1 $348 $349 $8 $-1 $350 reversed single #
cone-surface $-1 -1 $-1 0 0 0 0 0 1 20 0 0 1 I I 0 1 20 forward I I I I #
model_id-kcp-attrib $-1 -1 $-1 $-1 $155 1 1021382377 1021382377 1705050114 6 #
face $351 -1 $-1 $-1 $170 $19 $-1 $352 reversed single #
loop $-1 -1 $-1 $-1 $262 $155 #
plane-surface $-1 -1 $-1 0 40 0 0 -1 0 0 0 -1 forward_v I I I I #
coedge $-1 -1 $-1 $353 $260 $263 $354 forward $156 $-1 #
coedge $-1 -1 $-1 $266 $158 $159 $254 reversed $94 $-1 #
coedge $-1 -1 $-1 $260 $353 $158 $252 reversed $156 $-1 #
edge $-1 -1 $-1 $267 -40 $355 40 $251 $356 forward @7 unknown #
coedge $-1 -1 $-1 $160 $159 $353 $357 forward $58 $-1 #
edge $-1 -1 $-1 $258 -40 $355 40 $250 $358 forward @7 unknown #
coedge $-1 -1 $-1 $263 $262 $160 $256 reversed $247 $-1 #
edge $-1 -1 $-1 $359 -40 $257 40 $255 $360 forward @7 unknown #
vertex $-1 -1 $-1 $162 $361 #
vertex $-1 -1 $-1 $269 $362 #
straight-curve $-1 -1 $-1 40 0 -40 0 -1 0 I I #
coedge $-1 -1 $-1 $249 $251 $163 $261 reversed $156 $-1 #
edge $-1 -1 $-1 $264 -40 $267 40 $260 $363 forward @7 unknown #
coedge $-1 -1 $-1 $255 $164 $169 $270 forward $247 $-1 #
coedge $-1 -1 $-1 $164 $255 $249 $354 reversed $247 $-1 #
vertex $-1 -1 $-1 $165 $364 #
straight-curve $-1 -1 $-1 0 40 40 -1 0 0 I I #
coedge $-1 -1 $-1 $166 $250 $168 $269 reversed $94 $-1 #
vertex $-1 -1 $-1 $261 $365 #
straight-curve $-1 -1 $-1 0 -40 40 1 0 0 I I #
edge $-1 -1 $-1 $171 -40 $258 40 $168 $366 forward @7 unknown #
edge $-1 -1 $-1 $172 -40 $257 40 $169 $367 forward @7 unknown #
point $-1 -1 $-1 40 -40 40 #
point $-1 -1 $-1 40 40 40 #
vertex $-1 -1 $-1 $175 $368 #
ellipse-curve $-1 -1 $-1 0 0 40 0 0 1 20 0 0 1 I I #
point $-1 -1 $-1 20 0 -40 #
face $-1 -1 $-1 $369 $370 $23 $-1 $371 forward single #
loop $-1 -1 $-1 $-1 $372 $178 #
cone-surface $-1 -1 $-1 0 0 0 0 0 1 20 0 0 1 I I 0 1 20 forward I I I I #
coedge $-1 -1 $-1 $373 $374 $375 $376 forward $179 $-1 #
coedge $-1 -1 $-1 $377 $181 $374 $378 reversed $107 $-1 #
coedge $-1 -1 $-1 $181 $377 $182 $285 forward $107 $-1 #
coedge $-1 -1 $-1 $184 $375 $181 $283 reversed $191 $-1 #
edge $-1 -1 $-1 $286 -10 $379 10 $181 $380 forward @7 unknown #
coedge $-1 -1 $-1 $183 $182 $381 $382 reversed $67 $-1 #
edge $-1 -1 $-1 $383 0 $286 40 $281 $384 forward @7 unknown #
vertex $-1 -1 $-1 $285 $385 #
straight-curve $-1 -1 $-1 0 -10 40 -1 0 0 I I #
coedge $-1 -1 $-1 $381 $386 $186 $289 forward $387 $-1 #
edge $388 -1 $-1 $295 0.52359877559829882 $290 2.6179938779914944 $186 $389 forward @7 unknown #
vertex $-1 -1 $-1 $289 $390 #
straight-curve $-1 -1 $-1 -17.320508075688778 -10 0 0 0 1 I I #
coedge $-1 -1 $-1 $391 $188 $386 $392 reversed $294 $-1 #
coedge $-1 -1 $-1 $188 $391 $190 $298 forward $294 $-1 #
loop $-1 -1 $-1 $-1 $293 $393 #
vertex $-1 -1 $-1 $392 $394 #
straight-curve $-1 -1 $-1 17.320508075688775 -10 0 0 0 1 I I #
coedge $-1 -1 $-1 $395 $190 $396 $397 reversed $191 $-1 #
edge $-1 -1 $-1 $398 -30 $192 -17.320508075688775 $293 $399 forward @7 unknown #
face $-1 -1 $-1 $400 $191 $23 $-1 $401 forward single #
point $-1 -1 $-1 17.320508075688775 -10 40 #
point $-1 -1 $-1 -17.320508075688778 -10 40 #
model_id-kcp-attrib $-1 -1 $-1 $-1 $196 1 1021382377 1021382377 1705050113 8 #
face $402 -1 $-1 $231 $321 $8 $-1 $403 forward single #
loop $404 -1 $-1 $-1 $240 $196 #
coedge $-1 -1 $-1 $223 $222 $202 $307 reversed $197 $-1 #
coedge $-1 -1 $-1 $200 $216 $343 $405 reversed $116 $-1 #
edge $-1 -1 $-1 $310 -20 $313 20 $202 $406 forward @7 unknown #
coedge $-1 -1 $-1 $230 $203 $206 $315 forward $141 $-1 #
attrib_edge_convexity-kcp-attrib $-1 -1 $407 $-1 $204 1 #
vertex $-1 -1 $-1 $228 $408 #
straight-curve $-1 -1 $-1 0 10 40 1 0 0 I I #
attrib_edge_convexity-kcp-attrib $-1 -1 $409 $-1 $205 2 #
vertex $-1 -1 $-1 $205 $410 #
straight-curve $-1 -1 $-1 0 10 0 1 0 0 I I #
edge $411 -1 $-1 $208 -2.6179938779914944 $345 -0.52359877559829882 $308 $235 forward @7 unknown #
convexity-sys-attrib $-1 -1 $-1 $207 $122 #
point $-1 -1 $-1 -17.320508075688775 10 40 #
point $-1 -1 $-1 -17.320508075688775 10 0 #
coedge $-1 -1 $-1 $412 $211 $213 $323 reversed $321 $-1 #
coedge $-1 -1 $-1 $211 $412 $216 $326 forward $321 $-1 #
loop $-1 -1 $-1 $-1 $211 $303 #
straight-curve $-1 -1 $-1 30 -10 20 0 0 -1 I I #
edge $413 -1 $-1 $414 -10 $215 10 $213 $415 forward @7 unknown #
convexity-sys-attrib $-1 -1 $-1 $214 $125 #
point $-1 -1 $-1 30 -10 40 #
edge $-1 -1 $-1 $416 -10 $217 10 $320 $417 forward @7 unknown #
point $-1 -1 $-1 30 -10 0 #
attrib_edge_convexity-kcp-attrib $-1 -1 $418 $-1 $218 1 #
vertex $-1 -1 $-1 $218 $419 #
attrib_edge_convexity-kcp-attrib $-1 -1 $420 $-1 $225 2 #
straight-curve $-1 -1 $-1 -30 0 0 0 1 0 I I #
attrib_edge_convexity-kcp-attrib $-1 -1 $421 $-1 $228 1 #
straight-curve $-1 -1 $-1 -30 0 40 0 1 0 I I #
coedge $-1 -1 $-1 $240 $422 $230 $335 reversed $304 $-1 #
edge $423 -1 $-1 $345 17.320508075688775 $414 30 $230 $311 forward @7 unknown #
model_id-kcp-attrib $-1 -1 $-1 $-1 $231 1 1021382377 1021382377 1705050113 10 #
loop $-1 -1 $-1 $141 $424 $231 #
plane-surface $-1 -1 $-1 0 0 40 0 0 1 1 0 0 forward_v I I I I #
convexity-sys-attrib $-1 -1 $-1 $234 $145 #
convexity-sys-attrib $-1 -1 $-1 $236 $146 #
coedge $-1 -1 $-1 $341 $341 $239 $342 forward $349 $-1 #
edge $425 -1 $-1 $426 -3.1415926535897998 $426 3.1415926535897865 $341 $427 forward @7 unknown #
coedge $-1 -1 $-1 $422 $240 $306 $405 forward $304 $-1 #
attrib_edge_convexity-kcp-attrib $-1 -1 $428 $-1 $241 1 #
vertex $-1 -1 $-1 $315 $429 #
straight-curve $-1 -1 $-1 17.320508075688775 10 0 0 0 1 I I #
model_id-kcp-attrib $-1 -1 $-1 $-1 $243 1 1021382377 1021382377 1705050113 12 #
face $430 -1 $-1 $431 $432 $8 $-1 $433 reversed single #
loop $434 -1 $-1 $435 $341 $243 #
plane-surface $-1 -1 $-1 0 0 -40 0 0 1 1 0 0 forward_v I I I I #
model_id-kcp-attrib $-1 -1 $-1 $-1 $246 1 1021382377 1021382377 1705050114 7 #
plane-surface $-1 -1 $-1 40 0 0 -1 0 0 0 0 1 forward_v I I I I #
coedge $-1 -1 $-1 $251 $249 $253 $357 reversed $156 $-1 #
edge $-1 -1 $-1 $264 -40 $359 40 $263 $436 forward @7 unknown #
vertex $-1 -1 $-1 $357 $437 #
straight-curve $-1 -1 $-1 -40 -40 0 0 0 -1 I I #
edge $-1 -1 $-1 $355 -40 $359 40 $353 $438 forward @7 unknown #
straight-curve $-1 -1 $-1 0 -40 -40 -1 0 0 I I #
vertex $-1 -1 $-1 $256 $439 #
straight-curve $-1 -1 $-1 0 40 -40 1 0 0 I I #
point $-1 -1 $-1 40 40 -40 #
point $-1 -1 $-1 40 -40 -40 #
straight-curve $-1 -1 $-1 -40 0 40 0 -1 0 I I #
point $-1 -1 $-1 -40 40 40 #
point $-1 -1 $-1 -40 -40 40 #
straight-curve $-1 -1 $-1 40 -40 0 0 0 -1 I I #
straight-curve $-1 -1 $-1 40 40 0 0 0 -1 I I #
point $-1 -1 $-1 20 0 40 #
face $-1 -1 $-1 $393 $440 $23 $-1 $441 forward single #
loop $-1 -1 $-1 $-1 $442 $276 #
plane-surface $-1 -1 $-1 17.320508075688775 10 0 0 1 0 0 0 1 forward_v I I I I #
coedge $-1 -1 $-1 $443 $444 $445 $446 forward $277 $-1 #
coedge $-1 -1 $-1 $447 $279 $444 $448 reversed $179 $-1 #
coedge $-1 -1 $-1 $279 $447 $280 $378 forward $179 $-1 #
coedge $-1 -1 $-1 $282 $445 $279 $376 reversed $191 $-1 #
edge $-1 -1 $-1 $379 -30 $449 -17.320508075688778 $279 $450 forward @7 unknown #
coedge $-1 -1 $-1 $281 $280 $451 $452 reversed $107 $-1 #
edge $-1 -1 $-1 $453 0 $379 40 $374 $454 forward @7 unknown #
vertex $-1 -1 $-1 $378 $455 #
straight-curve $-1 -1 $-1 -30 0 40 0 1 0 I I #
coedge $-1 -1 $-1 $451 $288 $284 $382 forward $387 $-1 #
edge $456 -1 $-1 $290 17.320508075688775 $383 30 $284 $457 forward @7 unknown #
vertex $-1 -1 $-1 $382 $458 #
straight-curve $-1 -1 $-1 -30 -10 0 0 0 1 I I #
point $-1 -1 $-1 -30 -10 40 #
coedge $-1 -1 $-1 $288 $459 $292 $392 forward $387 $-1 #
loop $-1 -1 $-1 $-1 $386 $400 #
convexity-sys-attrib $-1 -1 $-1 $-1 $289 #
ellipse-curve $-1 -1 $-1 0 0 0 0 0 -1 20 0 0 1 I I #
point $-1 -1 $-1 -17.320508075688775 -10 0 #
coedge $-1 -1 $-1 $293 $292 $460 $461 forward $294 $-1 #
edge $462 -1 $-1 $463 -30 $295 -17.320508075688775 $292 $464 forward @7 unknown #
face $-1 -1 $-1 $299 $294 $23 $-1 $465 forward single #
point $-1 -1 $-1 17.320508075688775 -10 0 #
coedge $-1 -1 $-1 $445 $297 $442 $466 reversed $191 $-1 #
coedge $-1 -1 $-1 $460 $467 $297 $397 forward $440 $-1 #
edge $-1 -1 $-1 $468 -10 $398 10 $396 $469 forward @7 unknown #
vertex $-1 -1 $-1 $461 $470 #
straight-curve $-1 -1 $-1 0 -10 40 -1 0 0 I I #
face $-1 -1 $-1 $-1 $387 $23 $-1 $471 reversed single #
plane-surface $-1 -1 $-1 2.9957575067235937e-016 -4.4408920985006262e-016 40 0 0 1 1 0 0 forward_v I I I I #
model_id-kcp-attrib $-1 -1 $-1 $-1 $303 1 1021382377 1021382377 1705050113 9 #
plane-surface $-1 -1 $-1 30 0 20 -1 0 0 0 0 1 forward_v I I I I #
model_id-kcp-attrib $-1 -1 $-1 $-1 $304 1 1021382377 1021382377 1705050113 21 #
edge $-1 -1 $-1 $329 17.320508075688775 $416 30 $343 $314 forward @7 unknown #
straight-curve $-1 -1 $-1 -30 10 20 0 0 -1 I I #
convexity-sys-attrib $-1 -1 $-1 $309 $204 #
point $-1 -1 $-1 -30 10 40 #
convexity-sys-attrib $-1 -1 $-1 $312 $205 #
point $-1 -1 $-1 -30 10 0 #
attrib_edge_convexity-kcp-attrib $-1 -1 $472 $-1 $315 1 #
coedge $-1 -1 $-1 $320 $319 $422 $473 forward $321 $-1 #
attrib_edge_convexity-kcp-attrib $-1 -1 $474 $-1 $323 1 #
vertex $-1 -1 $-1 $335 $475 #
straight-curve $-1 -1 $-1 30 0 40 0 -1 0 I I #
vertex $-1 -1 $-1 $326 $476 #
straight-curve $-1 -1 $-1 30 0 0 0 -1 0 I I #
convexity-sys-attrib $-1 -1 $-1 $328 $218 #
point $-1 -1 $-1 17.320508075688775 10 0 #
convexity-sys-attrib $-1 -1 $-1 $330 $225 #
convexity-sys-attrib $-1 -1 $-1 $332 $228 #
coedge $-1 -1 $-1 $334 $343 $412 $473 reversed $304 $-1 #
attrib_edge_convexity-kcp-attrib $-1 -1 $477 $-1 $335 1 #
coedge $-1 -1 $-1 $478 $479 $480 $481 forward $337 $-1 #
attrib_edge_convexity-kcp-attrib $-1 -1 $482 $-1 $342 1 #
vertex $-1 -1 $-1 $342 $483 #
ellipse-curve $-1 -1 $-1 0 0 -40 0 0 1 20 0 0 1 I I #
convexity-sys-attrib $-1 -1 $-1 $344 $241 #
point $-1 -1 $-1 17.320508075688775 10 40 #
model_id-kcp-attrib $-1 -1 $-1 $-1 $348 1 1021382377 1021382377 1705050113 13 #
face $484 -1 $-1 $485 $486 $8 $-1 $487 reversed single #
loop $-1 -1 $-1 $-1 $488 $348 #
plane-surface $-1 -1 $-1 0 -40 0 0 1 0 0 0 1 forward_v I I I I #
model_id-kcp-attrib $-1 -1 $-1 $-1 $349 1 1021382377 1021382377 1705050113 28 #
loop $-1 -1 $-1 $-1 $489 $243 #
straight-curve $-1 -1 $-1 -40 40 0 0 0 -1 I I #
point $-1 -1 $-1 -40 -40 -40 #
straight-curve $-1 -1 $-1 -40 0 -40 0 1 0 I I #
point $-1 -1 $-1 -40 40 -40 #
loop $-1 -1 $-1 $-1 $396 $369 #
plane-surface $-1 -1 $-1 30 10 0 1 0 0 0 0 -1 forward_v I I I I #
coedge $-1 -1 $-1 $490 $491 $395 $466 forward $370 $-1 #
coedge $-1 -1 $-1 $492 $372 $491 $493 reversed $277 $-1 #
coedge $-1 -1 $-1 $372 $492 $373 $448 forward $277 $-1 #
coedge $-1 -1 $-1 $375 $395 $372 $446 reversed $191 $-1 #
edge $-1 -1 $-1 $449 -2.6179938779914944 $494 -0.52359877559829882 $372 $495 forward @7 unknown #
coedge $-1 -1 $-1 $374 $373 $496 $497 reversed $179 $-1 #
edge $-1 -1 $-1 $498 0 $449 40 $444 $499 forward @7 unknown #
vertex $-1 -1 $-1 $448 $500 #
straight-curve $-1 -1 $-1 0 10 40 1 0 0 I I #
coedge $-1 -1 $-1 $496 $381 $377 $452 forward $387 $-1 #
edge $501 -1 $-1 $383 -10 $453 10 $377 $502 forward @7 unknown #
vertex $-1 -1 $-1 $452 $503 #
straight-curve $-1 -1 $-1 -30 10 0 0 0 1 I I #
point $-1 -1 $-1 -30 10 40 #
convexity-sys-attrib $-1 -1 $-1 $-1 $382 #
straight-curve $-1 -1 $-1 0 -10 0 -1 0 0 I I #
point $-1 -1 $-1 -30 -10 0 #
coedge $-1 -1 $-1 $386 $504 $505 $506 forward $387 $-1 #
coedge $-1 -1 $-1 $505 $396 $391 $461 reversed $440 $-1 #
edge $-1 -1 $-1 $463 0 $398 40 $391 $507 forward @7 unknown #
convexity-sys-attrib $-1 -1 $-1 $-1 $392 #
vertex $-1 -1 $-1 $392 $508 #
straight-curve $-1 -1 $-1 0 -10 0 -1 0 0 I I #
plane-surface $-1 -1 $-1 30 -10 0 0 -1 0 0 0 -1 forward_v I I I I #
edge $-1 -1 $-1 $494 17.320508075688775 $468 30 $442 $509 forward @7 unknown #
coedge $-1 -1 $-1 $396 $505 $490 $510 forward $440 $-1 #
vertex $-1 -1 $-1 $510 $511 #
straight-curve $-1 -1 $-1 30 0 40 0 -1 0 I I #
point $-1 -1 $-1 30 -10 40 #
plane-surface $-1 -1 $-1 2.9957575067235937e-016 -4.4408920985006262e-016 0 0 0 1 1 0 0 forward_v I I I I #
convexity-sys-attrib $-1 -1 $-1 $411 $315 #
edge $-1 -1 $-1 $414 -20 $416 20 $412 $512 forward @7 unknown #
convexity-sys-attrib $-1 -1 $-1 $413 $323 #
point $-1 -1 $-1 30 10 40 #
point $-1 -1 $-1 30 10 0 #
convexity-sys-attrib $-1 -1 $-1 $423 $335 #
coedge $-1 -1 $-1 $513 $424 $514 $515 forward $337 $-1 #
coedge $-1 -1 $-1 $424 $513 $516 $517 forward $337 $-1 #
coedge $-1 -1 $-1 $518 $519 $424 $481 reversed $520 $-1 #
edge $521 -1 $-1 $522 -40 $523 40 $480 $524 forward @7 unknown #
convexity-sys-attrib $-1 -1 $-1 $425 $342 #
point $-1 -1 $-1 -20 1.3965925397624529e-013 -40 #
model_id-kcp-attrib $-1 -1 $-1 $-1 $431 1 1021382377 1021382377 1705050113 14 #
face $525 -1 $-1 $526 $527 $8 $-1 $528 reversed single #
loop $-1 -1 $-1 $-1 $529 $431 #
plane-surface $-1 -1 $-1 -40 0 0 1 0 0 0 0 -1 forward_v I I I I #
coedge $-1 -1 $-1 $530 $516 $531 $532 forward $432 $-1 #
coedge $-1 -1 $-1 $533 $534 $535 $536 forward $435 $-1 #
coedge $-1 -1 $-1 $537 $442 $467 $510 reversed $370 $-1 #
coedge $-1 -1 $-1 $442 $537 $443 $493 forward $370 $-1 #
coedge $-1 -1 $-1 $444 $443 $538 $539 reversed $277 $-1 #
edge $-1 -1 $-1 $540 0 $494 40 $491 $541 forward @7 unknown #
vertex $-1 -1 $-1 $493 $542 #
ellipse-curve $-1 -1 $-1 0 0 40 0 0 -1 20 0 0 1 I I #
coedge $-1 -1 $-1 $538 $451 $447 $497 forward $387 $-1 #
edge $543 -1 $-1 $453 -30 $498 -17.320508075688775 $447 $544 forward @7 unknown #
vertex $-1 -1 $-1 $497 $545 #
straight-curve $-1 -1 $-1 -17.320508075688778 10 0 0 0 1 I I #
point $-1 -1 $-1 -17.320508075688778 10 40 #
convexity-sys-attrib $-1 -1 $-1 $-1 $452 #
straight-curve $-1 -1 $-1 -30 0 0 0 1 0 I I #
point $-1 -1 $-1 -30 10 0 #
coedge $-1 -1 $-1 $459 $538 $537 $546 forward $387 $-1 #
coedge $-1 -1 $-1 $467 $460 $459 $506 reversed $440 $-1 #
edge $547 -1 $-1 $548 -10 $463 10 $505 $549 forward @7 unknown #
straight-curve $-1 -1 $-1 30 -10 0 0 0 1 I I #
point $-1 -1 $-1 30 -10 0 #
straight-curve $-1 -1 $-1 0 10 40 1 0 0 I I #
edge $-1 -1 $-1 $548 0 $468 40 $467 $550 forward @7 unknown #
point $-1 -1 $-1 30 10 40 #
straight-curve $-1 -1 $-1 30 10 20 0 0 -1 I I #
coedge $-1 -1 $-1 $479 $478 $551 $552 forward $337 $-1 #
coedge $-1 -1 $-1 $553 $554 $478 $515 reversed $527 $-1 #
edge $555 -1 $-1 $523 -40 $556 40 $514 $557 forward @7 unknown #
coedge $-1 -1 $-1 $488 $558 $479 $517 reversed $432 $-1 #
edge $559 -1 $-1 $560 -40 $522 40 $516 $561 forward @7 unknown #
coedge $-1 -1 $-1 $535 $480 $558 $562 forward $520 $-1 #
coedge $-1 -1 $-1 $480 $535 $553 $563 reversed $520 $-1 #
loop $-1 -1 $-1 $-1 $518 $526 #
attrib_edge_convexity-kcp-attrib $-1 -1 $564 $-1 $481 1 #
vertex $-1 -1 $-1 $481 $565 #
vertex $-1 -1 $-1 $481 $566 #
straight-curve $-1 -1 $-1 40 0 40 0 1 0 I I #
model_id-kcp-attrib $-1 -1 $-1 $-1 $485 1 1021382377 1021382377 1705050113 15 #
face $567 -1 $-1 $-1 $520 $8 $-1 $568 reversed single #
loop $-1 -1 $-1 $-1 $553 $485 #
plane-surface $-1 -1 $-1 0 40 0 0 -1 0 0 0 -1 forward_v I I I I #
coedge $-1 -1 $-1 $569 $551 $554 $570 forward $486 $-1 #
coedge $-1 -1 $-1 $558 $488 $533 $571 reversed $432 $-1 #
coedge $-1 -1 $-1 $551 $569 $488 $532 reversed $486 $-1 #
edge $572 -1 $-1 $560 -40 $573 40 $531 $574 forward @7 unknown #
coedge $-1 -1 $-1 $575 $489 $530 $571 forward $435 $-1 #
coedge $-1 -1 $-1 $489 $575 $576 $577 forward $435 $-1 #
coedge $-1 -1 $-1 $519 $518 $489 $536 reversed $520 $-1 #
edge $-1 -1 $-1 $578 -40 $579 40 $535 $580 forward @7 unknown #
coedge $-1 -1 $-1 $491 $490 $504 $546 reversed $370 $-1 #
coedge $-1 -1 $-1 $504 $496 $492 $539 forward $387 $-1 #
edge $581 -1 $-1 $498 -2.6179938779914944 $540 -0.52359877559829882 $492 $582 forward @7 unknown #
vertex $-1 -1 $-1 $539 $583 #
straight-curve $-1 -1 $-1 17.320508075688775 10 0 0 0 1 I I #
point $-1 -1 $-1 17.320508075688775 10 40 #
convexity-sys-attrib $-1 -1 $-1 $-1 $497 #
straight-curve $-1 -1 $-1 0 10 0 1 0 0 I I #
point $-1 -1 $-1 -17.320508075688775 10 0 #
edge $584 -1 $-1 $540 17.320508075688775 $548 30 $537 $585 forward @7 unknown #
convexity-sys-attrib $-1 -1 $-1 $-1 $506 #
vertex $-1 -1 $-1 $546 $586 #
straight-curve $-1 -1 $-1 30 0 0 0 -1 0 I I #
straight-curve $-1 -1 $-1 30 10 0 0 0 1 I I #
coedge $-1 -1 $-1 $529 $531 $513 $552 reversed $486 $-1 #
edge $587 -1 $-1 $556 -40 $560 40 $551 $588 forward @7 unknown #
coedge $-1 -1 $-1 $576 $514 $519 $563 forward $527 $-1 #
coedge $-1 -1 $-1 $514 $576 $529 $570 reversed $527 $-1 #
attrib_edge_convexity-kcp-attrib $-1 -1 $589 $-1 $515 1 #
vertex $-1 -1 $-1 $515 $590 #
straight-curve $-1 -1 $-1 0 40 40 -1 0 0 I I #
coedge $-1 -1 $-1 $516 $530 $518 $562 reversed $432 $-1 #
attrib_edge_convexity-kcp-attrib $-1 -1 $591 $-1 $517 1 #
vertex $-1 -1 $-1 $552 $592 #
straight-curve $-1 -1 $-1 0 -40 40 1 0 0 I I #
edge $593 -1 $-1 $522 -40 $579 40 $518 $594 forward @7 unknown #
edge $-1 -1 $-1 $523 -40 $578 40 $519 $595 forward @7 unknown #
convexity-sys-attrib $-1 -1 $-1 $521 $481 #
point $-1 -1 $-1 40 -40 40 #
point $-1 -1 $-1 40 40 40 #
model_id-kcp-attrib $-1 -1 $-1 $-1 $526 1 1021382377 1021382377 1705050113 16 #
plane-surface $-1 -1 $-1 40 0 0 -1 0 0 0 0 1 forward_v I I I I #
coedge $-1 -1 $-1 $531 $529 $575 $596 reversed $486 $-1 #
edge $597 -1 $-1 $556 -40 $598 40 $554 $599 forward @7 unknown #
edge $600 -1 $-1 $579 -40 $573 40 $530 $601 forward @7 unknown #
attrib_edge_convexity-kcp-attrib $-1 -1 $602 $-1 $532 1 #
vertex $-1 -1 $-1 $596 $603 #
straight-curve $-1 -1 $-1 -40 -40 0 0 0 -1 I I #
coedge $-1 -1 $-1 $534 $533 $569 $596 forward $435 $-1 #
coedge $-1 -1 $-1 $554 $553 $534 $577 reversed $527 $-1 #
edge $-1 -1 $-1 $598 -40 $578 40 $576 $604 forward @7 unknown #
vertex $-1 -1 $-1 $536 $605 #
vertex $-1 -1 $-1 $562 $606 #
straight-curve $-1 -1 $-1 40 0 -40 0 -1 0 I I #
convexity-sys-attrib $-1 -1 $-1 $-1 $539 #
ellipse-curve $-1 -1 $-1 0 0 0 0 0 -1 20 0 0 1 I I #
point $-1 -1 $-1 17.320508075688775 10 0 #
convexity-sys-attrib $-1 -1 $-1 $-1 $546 #
straight-curve $-1 -1 $-1 0 10 0 1 0 0 I I #
point $-1 -1 $-1 30 10 0 #
attrib_edge_convexity-kcp-attrib $-1 -1 $607 $-1 $552 1 #
straight-curve $-1 -1 $-1 -40 0 40 0 -1 0 I I #
convexity-sys-attrib $-1 -1 $-1 $555 $515 #
point $-1 -1 $-1 -40 40 40 #
convexity-sys-attrib $-1 -1 $-1 $559 $517 #
point $-1 -1 $-1 -40 -40 40 #
attrib_edge_convexity-kcp-attrib $-1 -1 $608 $-1 $562 1 #
straight-curve $-1 -1 $-1 40 -40 0 0 0 -1 I I #
straight-curve $-1 -1 $-1 40 40 0 0 0 -1 I I #
edge $609 -1 $-1 $573 -40 $598 40 $569 $610 forward @7 unknown #
attrib_edge_convexity-kcp-attrib $-1 -1 $611 $-1 $570 1 #
vertex $-1 -1 $-1 $577 $612 #
straight-curve $-1 -1 $-1 -40 40 0 0 0 -1 I I #
attrib_edge_convexity-kcp-attrib $-1 -1 $613 $-1 $571 1 #
straight-curve $-1 -1 $-1 0 -40 -40 -1 0 0 I I #
convexity-sys-attrib $-1 -1 $-1 $572 $532 #
point $-1 -1 $-1 -40 -40 -40 #
straight-curve $-1 -1 $-1 0 40 -40 1 0 0 I I #
point $-1 -1 $-1 40 40 -40 #
point $-1 -1 $-1 40 -40 -40 #
convexity-sys-attrib $-1 -1 $-1 $587 $552 #
convexity-sys-attrib $-1 -1 $-1 $593 $562 #
attrib_edge_convexity-kcp-attrib $-1 -1 $614 $-1 $596 1 #
straight-curve $-1 -1 $-1 -40 0 -40 0 1 0 I I #
convexity-sys-attrib $-1 -1 $-1 $597 $570 #
point $-1 -1 $-1 -40 40 -40 #
convexity-sys-attrib $-1 -1 $-1 $600 $571 #
convexity-sys-attrib $-1 -1 $-1 $609 $596 #
End-of-ACIS-data 