600 0 1 0           
81 GICL ACIS Healer - Source: /gicl/data5/repository/Heriot_Watt/ex39/ex39.sat - 6 0 18 ACIS 6.0.3 Solaris 24 Sat Apr 13 23:38:30 2002 
1 9.999999999999999547e-07 1.000000000000000036e-10 
body $-1 $1 $-1 $-1 #
lump $-1 $-1 $2 $0 #
shell $-1 $-1 $-1 $3 $-1 $1 #
face $-1 $4 $5 $2 $-1 $6 forward single #
face $-1 $7 $8 $2 $-1 $6 forward single #
loop $-1 $-1 $9 $3 #
plane-surface $-1 0 -10 20 0 1 0 0 0 1 forward_v I I I I #
face $-1 $10 $11 $2 $-1 $12 forward single #
loop $-1 $-1 $13 $4 #
coedge $-1 $14 $15 $16 $17 reversed $5 $-1 #
face $-1 $18 $19 $2 $-1 $20 forward single #
loop $-1 $-1 $21 $7 #
plane-surface $-1 0 10 20 0 -1 0 0 0 -1 forward_v I I I I #
coedge $-1 $22 $23 $24 $25 reversed $8 $-1 #
coedge $-1 $26 $9 $27 $28 forward $5 $-1 #
coedge $-1 $9 $26 $29 $30 reversed $5 $-1 #
coedge $-1 $31 $32 $9 $17 forward $33 $-1 #
edge $-1 $34 0 $35 40 $16 $36 forward 7 unknown #
face $-1 $37 $38 $2 $-1 $20 forward single #
loop $-1 $-1 $39 $10 #
plane-surface $-1 0 0 0 0 0 1 1 0 0 forward_v I I I I #
coedge $-1 $40 $41 $42 $43 reversed $11 $-1 #
coedge $-1 $44 $13 $45 $46 reversed $8 $-1 #
coedge $-1 $13 $44 $47 $48 forward $8 $-1 #
coedge $-1 $49 $31 $13 $25 forward $33 $-1 #
edge $-1 $50 -40 $51 0 $24 $52 forward 7 unknown #
coedge $-1 $15 $14 $53 $54 reversed $5 $-1 #
coedge $-1 $39 $55 $14 $28 reversed $19 $-1 #
edge $-1 $34 17.3205080756887746 $56 30 $14 $57 forward 7 unknown #
coedge $-1 $58 $59 $15 $30 forward $60 $-1 #
edge $-1 $35 17.3205080756887746 $61 30 $29 $62 forward 7 unknown #
coedge $-1 $24 $16 $59 $63 reversed $33 $-1 #
coedge $-1 $16 $42 $39 $64 forward $33 $-1 #
loop $-1 $65 $66 $67 #
vertex $-1 $64 $68 #
vertex $-1 $63 $69 #
straight-curve $-1 -17.3205080756887746 -10 0 0 0 1 I I #
face $-1 $70 $71 $2 $-1 $72 forward single #
loop $-1 $-1 $73 $18 #
coedge $-1 $74 $27 $32 $64 reversed $19 $-1 #
coedge $-1 $75 $21 $76 $77 reversed $11 $-1 #
coedge $-1 $21 $75 $74 $78 forward $11 $-1 #
coedge $-1 $32 $79 $21 $43 forward $33 $-1 #
edge $-1 $80 -40 $81 0 $42 $82 forward 7 unknown #
coedge $-1 $23 $22 $83 $84 forward $8 $-1 #
coedge $-1 $59 $85 $22 $46 forward $60 $-1 #
edge $-1 $86 -30 $50 -17.3205080756887746 $45 $62 forward 7 unknown #
coedge $-1 $87 $73 $23 $48 reversed $38 $-1 #
edge $-1 $88 -30 $51 -17.3205080756887746 $23 $57 forward 7 unknown #
coedge $-1 $66 $24 $73 $89 forward $33 $-1 #
vertex $-1 $25 $90 #
vertex $-1 $89 $91 #
straight-curve $-1 17.3205080756887746 -10 0 0 0 -1 I I #
coedge $-1 $92 $93 $26 $54 forward $71 $-1 #
edge $-1 $61 -20 $56 20 $53 $94 forward 7 unknown #
coedge $-1 $27 $74 $92 $95 reversed $19 $-1 #
vertex $-1 $95 $96 #
straight-curve $-1 0 -10 0 -1 0 0 I I #
coedge $-1 $76 $29 $93 $97 forward $60 $-1 #
coedge $-1 $29 $45 $31 $63 forward $60 $-1 #
loop $-1 $-1 $98 $99 #
vertex $-1 $30 $100 #
straight-curve $-1 0 -10 40 -1 0 0 I I #
edge $-1 $50 0.5235987755982988157 $35 2.617993877991494411 $59 $101 forward 7 unknown #
edge $-1 $81 2.617993877991494411 $34 3.665191429188091821 $32 $102 forward 7 unknown #
loop $-1 $-1 $103 $67 #
coedge $-1 $79 $49 $104 $105 forward $33 $-1 #
face $-1 $106 $33 $2 $-1 $107 reversed single #
point $-1 -17.3205080756887746 -10 0 #
point $-1 -17.3205080756887746 -10 40 #
face $-1 $108 $109 $2 $-1 $12 forward single #
loop $-1 $-1 $110 $37 #
plane-surface $-1 -30 0 20 1 0 0 0 0 -1 forward_v I I I I #
coedge $-1 $47 $111 $49 $89 reversed $38 $-1 #
coedge $-1 $55 $39 $41 $78 reversed $19 $-1 #
coedge $-1 $41 $40 $110 $112 forward $11 $-1 #
coedge $-1 $113 $58 $40 $77 forward $60 $-1 #
edge $-1 $114 -30 $80 -17.3205080756887746 $76 $115 forward 7 unknown #
edge $-1 $116 -30 $81 -17.3205080756887746 $41 $117 forward 7 unknown #
coedge $-1 $42 $66 $113 $118 reversed $33 $-1 #
vertex $-1 $43 $119 #
vertex $-1 $64 $120 #
straight-curve $-1 -17.3205080756887746 10 0 0 0 -1 I I #
coedge $-1 $121 $122 $44 $84 reversed $123 $-1 #
edge $-1 $86 -20 $88 20 $83 $124 forward 7 unknown #
coedge $-1 $45 $98 $121 $125 forward $60 $-1 #
vertex $-1 $46 $126 #
coedge $-1 $111 $47 $122 $127 reversed $38 $-1 #
vertex $-1 $84 $128 #
edge $-1 $51 -0.5235987755982988157 $129 0.5235987755982988157 $49 $102 forward 7 unknown #
point $-1 17.3205080756887746 -10 40 #
point $-1 17.3205080756887746 -10 0 #
coedge $-1 $110 $53 $55 $95 forward $71 $-1 #
coedge $-1 $53 $110 $58 $97 reversed $71 $-1 #
straight-curve $-1 -30 -10 20 0 0 -1 I I #
edge $-1 $56 -10 $116 10 $92 $130 forward 7 unknown #
point $-1 -30 -10 0 #
edge $-1 $61 -10 $114 10 $58 $131 forward 7 unknown #
coedge $-1 $85 $113 $132 $133 forward $60 $-1 #
face $-1 $67 $134 $2 $-1 $135 forward single #
point $-1 -30 -10 40 #
ellipse-curve $-1 0 0 40 0 0 -1 20 0 0 1 I I #
ellipse-curve $-1 0 0 0 0 0 1 20 0 0 1 I I #
coedge $-1 $103 $103 $136 $137 reversed $65 $-1 #
coedge $-1 $138 $132 $66 $105 reversed $109 $-1 #
edge $-1 $129 0 $139 40 $66 $140 forward 7 unknown #
face $-1 $141 $142 $2 $-1 $143 reversed single #
cone-surface $-1 0 0 0 0 0 1 20 0 0 1 I I 0 1 20 forward I I I I #
face $-1 $99 $123 $2 $-1 $144 forward single #
loop $-1 $-1 $104 $70 #
coedge $-1 $93 $92 $75 $112 reversed $71 $-1 #
coedge $-1 $73 $87 $138 $145 reversed $38 $-1 #
edge $-1 $114 -20 $116 20 $75 $146 forward 7 unknown #
coedge $-1 $98 $76 $79 $118 forward $60 $-1 #
vertex $-1 $97 $147 #
straight-curve $-1 0 10 40 1 0 0 I I #
vertex $-1 $78 $148 #
straight-curve $-1 0 10 0 1 0 0 I I #
edge $-1 $80 -2.617993877991494411 $139 -0.5235987755982988157 $113 $101 forward 7 unknown #
point $-1 -17.3205080756887746 10 40 #
point $-1 -17.3205080756887746 10 0 #
coedge $-1 $149 $83 $85 $125 reversed $123 $-1 #
coedge $-1 $83 $149 $87 $127 forward $123 $-1 #
loop $-1 $-1 $83 $108 #
straight-curve $-1 30 -10 20 0 0 -1 I I #
edge $-1 $150 -10 $86 10 $85 $151 forward 7 unknown #
point $-1 30 -10 40 #
edge $-1 $152 -10 $88 10 $122 $153 forward 7 unknown #
point $-1 30 -10 0 #
vertex $-1 $89 $154 #
straight-curve $-1 -30 0 0 0 1 0 I I #
straight-curve $-1 -30 0 40 0 1 0 I I #
coedge $-1 $104 $155 $98 $133 reversed $109 $-1 #
edge $-1 $139 17.3205080756887746 $150 30 $98 $115 forward 7 unknown #
loop $-1 $60 $156 $99 #
plane-surface $-1 0 0 40 0 0 1 1 0 0 forward_v I I I I #
coedge $-1 $136 $136 $103 $137 forward $142 $-1 #
edge $-1 $157 -3.141592653589799777 $157 3.141592653589786455 $136 $158 forward 7 unknown #
coedge $-1 $155 $104 $111 $145 forward $109 $-1 #
vertex $-1 $118 $159 #
straight-curve $-1 17.3205080756887746 10 0 0 0 1 I I #
face $-1 $160 $161 $2 $-1 $162 reversed single #
loop $-1 $163 $136 $106 #
plane-surface $-1 0 0 -40 0 0 1 1 0 0 forward_v I I I I #
plane-surface $-1 30 0 20 -1 0 0 0 0 1 forward_v I I I I #
edge $-1 $129 17.3205080756887746 $152 30 $138 $117 forward 7 unknown #
straight-curve $-1 -30 10 20 0 0 -1 I I #
point $-1 -30 10 40 #
point $-1 -30 10 0 #
coedge $-1 $122 $121 $155 $164 forward $123 $-1 #
vertex $-1 $133 $165 #
straight-curve $-1 30 0 40 0 -1 0 I I #
vertex $-1 $127 $166 #
straight-curve $-1 30 0 0 0 -1 0 I I #
point $-1 17.3205080756887746 10 0 #
coedge $-1 $132 $138 $149 $164 reversed $109 $-1 #
coedge $-1 $167 $168 $169 $170 forward $134 $-1 #
vertex $-1 $137 $171 #
ellipse-curve $-1 0 0 -40 0 0 1 20 0 0 1 I I #
point $-1 17.3205080756887746 10 40 #
face $-1 $172 $173 $2 $-1 $174 reversed single #
loop $-1 $-1 $175 $141 #
plane-surface $-1 0 -40 0 0 1 0 0 0 1 forward_v I I I I #
loop $-1 $-1 $176 $106 #
edge $-1 $150 -20 $152 20 $149 $177 forward 7 unknown #
point $-1 30 10 40 #
point $-1 30 10 0 #
coedge $-1 $178 $156 $179 $180 forward $134 $-1 #
coedge $-1 $156 $178 $181 $182 forward $134 $-1 #
coedge $-1 $183 $184 $156 $170 reversed $185 $-1 #
edge $-1 $186 -40 $187 40 $169 $188 forward 7 unknown #
point $-1 -20 1.396592539762452935e-13 -40 #
face $-1 $189 $190 $2 $-1 $191 reversed single #
loop $-1 $-1 $192 $160 #
plane-surface $-1 -40 0 0 1 0 0 0 0 -1 forward_v I I I I #
coedge $-1 $193 $181 $194 $195 forward $161 $-1 #
coedge $-1 $196 $197 $198 $199 forward $163 $-1 #
straight-curve $-1 30 10 20 0 0 -1 I I #
coedge $-1 $168 $167 $200 $201 forward $134 $-1 #
coedge $-1 $202 $203 $167 $180 reversed $190 $-1 #
edge $-1 $187 -40 $204 40 $179 $205 forward 7 unknown #
coedge $-1 $175 $206 $168 $182 reversed $161 $-1 #
edge $-1 $207 -40 $186 40 $181 $208 forward 7 unknown #
coedge $-1 $198 $169 $206 $209 forward $185 $-1 #
coedge $-1 $169 $198 $202 $210 reversed $185 $-1 #
loop $-1 $-1 $183 $189 #
vertex $-1 $170 $211 #
vertex $-1 $170 $212 #
straight-curve $-1 40 0 40 0 1 0 I I #
face $-1 $-1 $185 $2 $-1 $213 reversed single #
loop $-1 $-1 $202 $172 #
plane-surface $-1 0 40 0 0 -1 0 0 0 -1 forward_v I I I I #
coedge $-1 $214 $200 $203 $215 forward $173 $-1 #
coedge $-1 $206 $175 $196 $216 reversed $161 $-1 #
coedge $-1 $200 $214 $175 $195 reversed $173 $-1 #
edge $-1 $207 -40 $217 40 $194 $218 forward 7 unknown #
coedge $-1 $219 $176 $193 $216 forward $163 $-1 #
coedge $-1 $176 $219 $220 $221 forward $163 $-1 #
coedge $-1 $184 $183 $176 $199 reversed $185 $-1 #
edge $-1 $222 -40 $223 40 $198 $224 forward 7 unknown #
coedge $-1 $192 $194 $178 $201 reversed $173 $-1 #
edge $-1 $204 -40 $207 40 $200 $225 forward 7 unknown #
coedge $-1 $220 $179 $184 $210 forward $190 $-1 #
coedge $-1 $179 $220 $192 $215 reversed $190 $-1 #
vertex $-1 $180 $226 #
straight-curve $-1 0 40 40 -1 0 0 I I #
coedge $-1 $181 $193 $183 $209 reversed $161 $-1 #
vertex $-1 $201 $227 #
straight-curve $-1 0 -40 40 1 0 0 I I #
edge $-1 $186 -40 $223 40 $183 $228 forward 7 unknown #
edge $-1 $187 -40 $222 40 $184 $229 forward 7 unknown #
point $-1 40 -40 40 #
point $-1 40 40 40 #
plane-surface $-1 40 0 0 -1 0 0 0 0 1 forward_v I I I I #
coedge $-1 $194 $192 $219 $230 reversed $173 $-1 #
edge $-1 $204 -40 $231 40 $203 $232 forward 7 unknown #
edge $-1 $223 -40 $217 40 $193 $233 forward 7 unknown #
vertex $-1 $230 $234 #
straight-curve $-1 -40 -40 0 0 0 -1 I I #
coedge $-1 $197 $196 $214 $230 forward $163 $-1 #
coedge $-1 $203 $202 $197 $221 reversed $190 $-1 #
edge $-1 $231 -40 $222 40 $220 $235 forward 7 unknown #
vertex $-1 $199 $236 #
vertex $-1 $209 $237 #
straight-curve $-1 40 0 -40 0 -1 0 I I #
straight-curve $-1 -40 0 40 0 -1 0 I I #
point $-1 -40 40 40 #
point $-1 -40 -40 40 #
straight-curve $-1 40 -40 0 0 0 -1 I I #
straight-curve $-1 40 40 0 0 0 -1 I I #
edge $-1 $217 -40 $231 40 $214 $238 forward 7 unknown #
vertex $-1 $221 $239 #
straight-curve $-1 -40 40 0 0 0 -1 I I #
straight-curve $-1 0 -40 -40 -1 0 0 I I #
point $-1 -40 -40 -40 #
straight-curve $-1 0 40 -40 1 0 0 I I #
point $-1 40 40 -40 #
point $-1 40 -40 -40 #
straight-curve $-1 -40 0 -40 0 1 0 I I #
point $-1 -40 40 -40 #
End-of-ACIS-data 