106 0 1 0           
body $-1 $1 $-1 $-1 #
lump $-1 $-1 $2 $0 #
shell $-1 $-1 $-1 $3 $1 #
face $-1 $4 $5 $2 $-1 $6 forward single #
face $-1 $7 $8 $2 $-1 $6 forward single #
loop $-1 $-1 $9 $3 #
plane-surface $-1 0 -10 20 0 1 0 0 0 1 0 I I I I #
face $-1 $10 $11 $2 $-1 $12 forward single #
loop $-1 $-1 $13 $4 #
coedge $-1 $14 $15 $16 $17 1 $5 $-1 #
face $-1 $18 $19 $2 $-1 $20 forward single #
loop $-1 $-1 $21 $7 #
plane-surface $-1 0 10 20 0 -1 0 0 0 -1 0 I I I I #
coedge $-1 $22 $23 $24 $25 1 $8 $-1 #
coedge $-1 $26 $9 $27 $28 0 $5 $-1 #
coedge $-1 $9 $26 $29 $30 1 $5 $-1 #
coedge $-1 $31 $32 $9 $17 0 $33 $-1 #
edge $-1 $34 $35 $16 $36 0 #
face $-1 $37 $38 $2 $-1 $20 forward single #
loop $-1 $-1 $39 $10 #
plane-surface $-1 0 0 0 0 0 1 1 0 0 0 I I I I #
coedge $-1 $40 $41 $42 $43 1 $11 $-1 #
coedge $-1 $44 $13 $45 $46 1 $8 $-1 #
coedge $-1 $13 $44 $47 $48 0 $8 $-1 #
coedge $-1 $49 $31 $13 $25 0 $33 $-1 #
edge $-1 $50 $51 $24 $52 0 #
coedge $-1 $15 $14 $53 $54 1 $5 $-1 #
coedge $-1 $39 $55 $14 $28 1 $19 $-1 #
edge $-1 $34 $56 $14 $57 0 #
coedge $-1 $58 $59 $15 $30 0 $60 $-1 #
edge $-1 $35 $61 $29 $62 0 #
coedge $-1 $24 $16 $59 $63 1 $33 $-1 #
coedge $-1 $16 $42 $39 $64 0 $33 $-1 #
loop $-1 $65 $66 $67 #
vertex $-1 $64 $68 #
vertex $-1 $63 $69 #
straight-curve $-1 -17.320508075688775 -10 0 0 0 1 I I #
face $-1 $70 $71 $2 $-1 $72 forward single #
loop $-1 $-1 $73 $18 #
coedge $-1 $74 $27 $32 $64 1 $19 $-1 #
coedge $-1 $75 $21 $76 $77 1 $11 $-1 #
coedge $-1 $21 $75 $74 $78 0 $11 $-1 #
coedge $-1 $32 $79 $21 $43 0 $33 $-1 #
edge $-1 $80 $81 $42 $82 0 #
coedge $-1 $23 $22 $83 $84 0 $8 $-1 #
coedge $-1 $59 $85 $22 $46 0 $60 $-1 #
edge $-1 $86 $50 $45 $62 0 #
coedge $-1 $87 $73 $23 $48 1 $38 $-1 #
edge $-1 $88 $51 $23 $57 0 #
coedge $-1 $66 $24 $73 $89 0 $33 $-1 #
vertex $-1 $25 $90 #
vertex $-1 $89 $91 #
straight-curve $-1 17.320508075688775 -10 0 0 0 -1 I I #
coedge $-1 $92 $93 $26 $54 0 $71 $-1 #
edge $-1 $61 $56 $53 $94 0 #
coedge $-1 $27 $74 $92 $95 1 $19 $-1 #
vertex $-1 $95 $96 #
straight-curve $-1 0 -10 0 -1 0 0 I I #
coedge $-1 $76 $29 $93 $97 0 $60 $-1 #
coedge $-1 $29 $45 $31 $63 0 $60 $-1 #
loop $-1 $-1 $98 $99 #
vertex $-1 $30 $100 #
straight-curve $-1 0 -10 40 -1 0 0 I I #
edge $-1 $50 $35 $59 $101 0 #
edge $-1 $81 $34 $32 $102 0 #
loop $-1 $-1 $103 $67 #
coedge $-1 $79 $49 $104 $105 0 $33 $-1 #
face $-1 $106 $33 $2 $-1 $107 reversed single #
point $-1 -17.320508075688775 -10 0 #
point $-1 -17.320508075688775 -10 40 #
face $-1 $108 $109 $2 $-1 $12 forward single #
loop $-1 $-1 $110 $37 #
plane-surface $-1 -30 0 20 1 0 0 0 0 -1 0 I I I I #
coedge $-1 $47 $111 $49 $89 1 $38 $-1 #
coedge $-1 $55 $39 $41 $78 1 $19 $-1 #
coedge $-1 $41 $40 $110 $112 0 $11 $-1 #
coedge $-1 $113 $58 $40 $77 0 $60 $-1 #
edge $-1 $114 $80 $76 $115 0 #
edge $-1 $116 $81 $41 $117 0 #
coedge $-1 $42 $66 $113 $118 1 $33 $-1 #
vertex $-1 $43 $119 #
vertex $-1 $64 $120 #
straight-curve $-1 -17.320508075688775 10 0 0 0 -1 I I #
coedge $-1 $121 $122 $44 $84 1 $123 $-1 #
edge $-1 $86 $88 $83 $124 0 #
coedge $-1 $45 $98 $121 $125 0 $60 $-1 #
vertex $-1 $46 $126 #
coedge $-1 $111 $47 $122 $127 1 $38 $-1 #
vertex $-1 $84 $128 #
edge $-1 $51 $129 $49 $102 0 #
point $-1 17.320508075688775 -10 40 #
point $-1 17.320508075688775 -10 0 #
coedge $-1 $110 $53 $55 $95 0 $71 $-1 #
coedge $-1 $53 $110 $58 $97 1 $71 $-1 #
straight-curve $-1 -30 -10 20 0 0 -1 I I #
edge $-1 $56 $116 $92 $130 0 #
point $-1 -30 -10 0 #
edge $-1 $61 $114 $58 $131 0 #
coedge $-1 $85 $113 $132 $133 0 $60 $-1 #
face $-1 $67 $134 $2 $-1 $135 forward single #
point $-1 -30 -10 40 #
ellipse-curve $-1 0 0 40 0 0 -1 20 0 0 1 I I #
ellipse-curve $-1 0 0 0 0 0 1 20 0 0 1 I I #
coedge $-1 $103 $103 $136 $137 1 $65 $-1 #
coedge $-1 $138 $132 $66 $105 1 $109 $-1 #
edge $-1 $129 $139 $66 $140 0 #
face $-1 $141 $142 $2 $-1 $143 reversed single #
cone-surface $-1 0 0 0 0 0 1 20 0 0 1 I I 0 1 0 I I I I #
face $-1 $99 $123 $2 $-1 $144 forward single #
loop $-1 $-1 $104 $70 #
coedge $-1 $93 $92 $75 $112 1 $71 $-1 #
coedge $-1 $73 $87 $138 $145 1 $38 $-1 #
edge $-1 $114 $116 $75 $146 0 #
coedge $-1 $98 $76 $79 $118 0 $60 $-1 #
vertex $-1 $97 $147 #
straight-curve $-1 0 10 40 1 0 0 I I #
vertex $-1 $78 $148 #
straight-curve $-1 0 10 0 1 0 0 I I #
edge $-1 $80 $139 $113 $101 0 #
point $-1 -17.320508075688775 10 40 #
point $-1 -17.320508075688775 10 0 #
coedge $-1 $149 $83 $85 $125 1 $123 $-1 #
coedge $-1 $83 $149 $87 $127 0 $123 $-1 #
loop $-1 $-1 $83 $108 #
straight-curve $-1 30 -10 20 0 0 -1 I I #
edge $-1 $150 $86 $85 $151 0 #
point $-1 30 -10 40 #
edge $-1 $152 $88 $122 $153 0 #
point $-1 30 -10 0 #
vertex $-1 $89 $154 #
straight-curve $-1 -30 0 0 0 1 0 I I #
straight-curve $-1 -30 0 40 0 1 0 I I #
coedge $-1 $104 $155 $98 $133 1 $109 $-1 #
edge $-1 $139 $150 $98 $115 0 #
loop $-1 $60 $156 $99 #
plane-surface $-1 0 0 40 0 0 1 1 0 0 0 I I I I #
coedge $-1 $136 $136 $103 $137 0 $142 $-1 #
edge $-1 $157 $157 $136 $158 0 #
coedge $-1 $155 $104 $111 $145 0 $109 $-1 #
vertex $-1 $118 $159 #
straight-curve $-1 17.320508075688775 10 0 0 0 1 I I #
face $-1 $160 $161 $2 $-1 $162 reversed single #
loop $-1 $163 $136 $106 #
plane-surface $-1 0 0 -40 0 0 1 1 0 0 0 I I I I #
plane-surface $-1 30 0 20 -1 0 0 0 0 1 0 I I I I #
edge $-1 $129 $152 $138 $117 0 #
straight-curve $-1 -30 10 20 0 0 -1 I I #
point $-1 -30 10 40 #
point $-1 -30 10 0 #
coedge $-1 $122 $121 $155 $164 0 $123 $-1 #
vertex $-1 $133 $165 #
straight-curve $-1 30 0 40 0 -1 0 I I #
vertex $-1 $127 $166 #
straight-curve $-1 30 0 0 0 -1 0 I I #
point $-1 17.320508075688775 10 0 #
coedge $-1 $132 $138 $149 $164 1 $109 $-1 #
coedge $-1 $167 $168 $169 $170 0 $134 $-1 #
vertex $-1 $137 $171 #
ellipse-curve $-1 0 0 -40 0 0 1 20 0 0 1 I I #
point $-1 17.320508075688775 10 40 #
face $-1 $172 $173 $2 $-1 $174 reversed single #
loop $-1 $-1 $175 $141 #
plane-surface $-1 0 -40 0 0 1 0 0 0 1 0 I I I I #
loop $-1 $-1 $176 $106 #
edge $-1 $150 $152 $149 $177 0 #
point $-1 30 10 40 #
point $-1 30 10 0 #
coedge $-1 $178 $156 $179 $180 0 $134 $-1 #
coedge $-1 $156 $178 $181 $182 0 $134 $-1 #
coedge $-1 $183 $184 $156 $170 1 $185 $-1 #
edge $-1 $186 $187 $169 $188 0 #
point $-1 -20 1.3965925397624529e-13 -40 #
face $-1 $189 $190 $2 $-1 $191 reversed single #
loop $-1 $-1 $192 $160 #
plane-surface $-1 -40 0 0 1 0 0 0 0 -1 0 I I I I #
coedge $-1 $193 $181 $194 $195 0 $161 $-1 #
coedge $-1 $196 $197 $198 $199 0 $163 $-1 #
straight-curve $-1 30 10 20 0 0 -1 I I #
coedge $-1 $168 $167 $200 $201 0 $134 $-1 #
coedge $-1 $202 $203 $167 $180 1 $190 $-1 #
edge $-1 $187 $204 $179 $205 0 #
coedge $-1 $175 $206 $168 $182 1 $161 $-1 #
edge $-1 $207 $186 $181 $208 0 #
coedge $-1 $198 $169 $206 $209 0 $185 $-1 #
coedge $-1 $169 $198 $202 $210 1 $185 $-1 #
loop $-1 $-1 $183 $189 #
vertex $-1 $170 $211 #
vertex $-1 $170 $212 #
straight-curve $-1 40 0 40 0 1 0 I I #
face $-1 $-1 $185 $2 $-1 $213 reversed single #
loop $-1 $-1 $202 $172 #
plane-surface $-1 0 40 0 0 -1 0 0 0 -1 0 I I I I #
coedge $-1 $214 $200 $203 $215 0 $173 $-1 #
coedge $-1 $206 $175 $196 $216 1 $161 $-1 #
coedge $-1 $200 $214 $175 $195 1 $173 $-1 #
edge $-1 $207 $217 $194 $218 0 #
coedge $-1 $219 $176 $193 $216 0 $163 $-1 #
coedge $-1 $176 $219 $220 $221 0 $163 $-1 #
coedge $-1 $184 $183 $176 $199 1 $185 $-1 #
edge $-1 $222 $223 $198 $224 0 #
coedge $-1 $192 $194 $178 $201 1 $173 $-1 #
edge $-1 $204 $207 $200 $225 0 #
coedge $-1 $220 $179 $184 $210 0 $190 $-1 #
coedge $-1 $179 $220 $192 $215 1 $190 $-1 #
vertex $-1 $180 $226 #
straight-curve $-1 0 40 40 -1 0 0 I I #
coedge $-1 $181 $193 $183 $209 1 $161 $-1 #
vertex $-1 $201 $227 #
straight-curve $-1 0 -40 40 1 0 0 I I #
edge $-1 $186 $223 $183 $228 0 #
edge $-1 $187 $222 $184 $229 0 #
point $-1 40 -40 40 #
point $-1 40 40 40 #
plane-surface $-1 40 0 0 -1 0 0 0 0 1 0 I I I I #
coedge $-1 $194 $192 $219 $230 1 $173 $-1 #
edge $-1 $204 $231 $203 $232 0 #
edge $-1 $223 $217 $193 $233 0 #
vertex $-1 $230 $234 #
straight-curve $-1 -40 -40 0 0 0 -1 I I #
coedge $-1 $197 $196 $214 $230 0 $163 $-1 #
coedge $-1 $203 $202 $197 $221 1 $190 $-1 #
edge $-1 $231 $222 $220 $235 0 #
vertex $-1 $199 $236 #
vertex $-1 $209 $237 #
straight-curve $-1 40 0 -40 0 -1 0 I I #
straight-curve $-1 -40 0 40 0 -1 0 I I #
point $-1 -40 40 40 #
point $-1 -40 -40 40 #
straight-curve $-1 40 -40 0 0 0 -1 I I #
straight-curve $-1 40 40 0 0 0 -1 I I #
edge $-1 $217 $231 $214 $238 0 #
vertex $-1 $221 $239 #
straight-curve $-1 -40 40 0 0 0 -1 I I #
straight-curve $-1 0 -40 -40 -1 0 0 I I #
point $-1 -40 -40 -40 #
straight-curve $-1 0 40 -40 1 0 0 I I #
point $-1 40 40 -40 #
point $-1 40 -40 -40 #
straight-curve $-1 -40 0 -40 0 1 0 I I #
point $-1 -40 40 -40 #
End-of-ACIS-data 