600 0 2 0           
24 FBMach with ACIS - 6.0.3 13 ACIS 6.0.3 NT 24 Wed May 23 20:18:32 2001 
1 9.9999999999999995e-007 1e-010 
body $2 $3 $-1 $4 #
bdycol-kcp $-1 1 3 $5 $6 $7 #
model_id-kcp-attrib $-1 $-1 $-1 $0 1 990663511 70 -2142896127 1 #
lump $-1 $-1 $8 $0 #
transform $-1 1 0 0 0 1 0 0 0 1 0 0 0 1 no_rotate no_reflect no_shear #
body $9 $10 $-1 $11 #
body $12 $13 $-1 $14 #
body $15 $16 $-1 $17 #
shell $-1 $-1 $-1 $18 $-1 $3 #
model_id-kcp-attrib $-1 $-1 $-1 $5 1 990663511 70 -2142896126 1 #
lump $-1 $-1 $19 $5 #
transform $-1 1 0 0 0 1 0 0 0 1 0 0 0 1 no_rotate no_reflect no_shear #
rgb_color-st-attrib $-1 $20 $-1 $6 0.5 1 1 #
lump $-1 $-1 $21 $6 #
transform $-1 1 0 0 0 1 0 0 0 1 0 0 0 1 no_rotate no_reflect no_shear #
rgb_color-st-attrib $-1 $22 $-1 $7 0 0 1 #
lump $-1 $-1 $23 $7 #
transform $-1 1 0 0 0 1 0 0 0 1 0 0 0 1 no_rotate no_reflect no_shear #
face $24 $25 $26 $8 $-1 $27 forward single #
shell $-1 $-1 $-1 $28 $-1 $10 #
model_id-kcp-attrib $-1 $-1 $12 $6 1 990663511 100 -2140930045 1 #
shell $-1 $-1 $-1 $29 $-1 $13 #
model_id-kcp-attrib $-1 $-1 $15 $7 1 990663511 380 -2139357180 1 #
shell $-1 $-1 $-1 $30 $-1 $16 #
model_id-kcp-attrib $-1 $-1 $-1 $18 1 990663511 70 -2142896127 2 #
face $31 $32 $33 $8 $-1 $27 forward single #
loop $34 $-1 $35 $18 #
plane-surface $-1 0 -10 20 0 1 0 0 0 1 forward_v I I I I #
face $36 $37 $38 $19 $-1 $39 forward single #
face $-1 $40 $41 $21 $-1 $42 forward single #
face $-1 $43 $44 $23 $-1 $45 forward single #
model_id-kcp-attrib $-1 $-1 $-1 $25 1 990663511 70 -2142896127 3 #
face $46 $47 $48 $8 $-1 $49 forward single #
loop $50 $-1 $51 $25 #
model_id-kcp-attrib $-1 $-1 $-1 $26 1 990663511 70 -2142896127 25 #
coedge $-1 $52 $53 $54 $55 reversed $26 $-1 #
model_id-kcp-attrib $-1 $-1 $-1 $28 1 990663511 70 -2142896126 2 #
face $56 $57 $58 $19 $-1 $59 reversed single #
loop $-1 $-1 $60 $28 #
plane-surface $-1 0 0 40 0 0 1 1 0 0 forward_v I I I I #
face $-1 $61 $62 $21 $-1 $63 forward single #
loop $-1 $64 $65 $29 #
cone-surface $-1 0 0 0 0 0 1 20 0 0 1 I I 0 1 20 forward I I I I #
face $-1 $66 $67 $23 $-1 $68 forward single #
loop $-1 $-1 $69 $30 #
cone-surface $-1 0 0 0 0 0 1 20 0 0 1 I I 0 1 20 forward I I I I #
model_id-kcp-attrib $-1 $-1 $-1 $32 1 990663511 70 -2142896127 4 #
face $70 $71 $72 $8 $-1 $73 forward single #
loop $74 $-1 $75 $32 #
plane-surface $-1 0 10 20 0 -1 0 0 0 -1 forward_v I I I I #
model_id-kcp-attrib $-1 $-1 $-1 $33 1 990663511 70 -2142896127 26 #
coedge $-1 $76 $77 $78 $79 reversed $33 $-1 #
coedge $-1 $80 $35 $81 $82 forward $26 $-1 #
coedge $-1 $35 $80 $83 $84 reversed $26 $-1 #
coedge $-1 $85 $86 $35 $55 forward $87 $-1 #
edge $88 $89 0 $90 40 $54 $91 forward 7 unknown #
model_id-kcp-attrib $-1 $-1 $-1 $37 1 990663511 70 -2142896126 3 #
face $92 $93 $94 $19 $-1 $95 reversed single #
loop $-1 $-1 $96 $37 #
plane-surface $-1 0 0 -40 0 0 1 1 0 0 forward_v I I I I #
coedge $-1 $97 $98 $99 $100 forward $38 $-1 #
face $-1 $-1 $101 $21 $-1 $102 forward single #
loop $-1 $-1 $103 $40 #
plane-surface $-1 0 0 -40 0 0 -1 -1 0 0 forward_v I I I I #
loop $-1 $-1 $104 $29 #
coedge $-1 $65 $65 $103 $105 reversed $41 $-1 #
face $-1 $106 $107 $23 $-1 $108 forward single #
loop $-1 $-1 $109 $43 #
plane-surface $-1 -17.320508075688778 -10 0 0 -1 0 0 0 -1 forward_v I I I I #
coedge $-1 $110 $111 $112 $113 forward $44 $-1 #
model_id-kcp-attrib $-1 $-1 $-1 $47 1 990663511 70 -2142896127 5 #
face $114 $115 $116 $8 $-1 $73 forward single #
loop $117 $-1 $118 $47 #
plane-surface $-1 0 0 0 0 0 1 1 0 0 forward_v I I I I #
model_id-kcp-attrib $-1 $-1 $-1 $48 1 990663511 70 -2142896127 23 #
coedge $-1 $119 $120 $121 $122 reversed $48 $-1 #
coedge $-1 $123 $51 $124 $125 reversed $33 $-1 #
coedge $-1 $51 $123 $126 $127 forward $33 $-1 #
coedge $-1 $128 $85 $51 $79 forward $87 $-1 #
edge $129 $130 -40 $131 0 $78 $132 forward 7 unknown #
coedge $-1 $53 $52 $133 $134 reversed $26 $-1 #
coedge $-1 $118 $135 $52 $82 reversed $72 $-1 #
edge $-1 $89 17.320508075688775 $136 30 $52 $137 forward 7 unknown #
coedge $-1 $138 $139 $53 $84 forward $140 $-1 #
edge $141 $90 17.320508075688775 $142 30 $83 $143 forward 7 unknown #
coedge $-1 $78 $54 $139 $144 reversed $87 $-1 #
coedge $-1 $54 $121 $118 $145 forward $87 $-1 #
loop $146 $147 $148 $149 #
attrib_edge_convexity-kcp-attrib $-1 $150 $-1 $55 1 #
vertex $-1 $145 $151 #
vertex $-1 $144 $152 #
straight-curve $-1 -17.320508075688775 -10 0 0 0 1 I I #
model_id-kcp-attrib $-1 $-1 $-1 $57 1 990663511 70 -2142896126 4 #
face $153 $154 $155 $19 $-1 $156 reversed single #
loop $-1 $-1 $157 $57 #
plane-surface $-1 0 -40 0 0 1 0 0 0 1 forward_v I I I I #
coedge $-1 $158 $159 $160 $161 forward $58 $-1 #
coedge $-1 $162 $60 $163 $164 forward $38 $-1 #
coedge $-1 $60 $162 $165 $166 forward $38 $-1 #
coedge $-1 $167 $168 $60 $100 reversed $169 $-1 #
edge $-1 $170 -40 $171 40 $99 $172 forward 7 unknown #
loop $-1 $-1 $173 $61 #
plane-surface $-1 0 0 40 0 0 1 1 0 0 forward_v I I I I #
coedge $-1 $103 $103 $65 $105 forward $62 $-1 #
coedge $-1 $104 $104 $173 $174 reversed $64 $-1 #
edge $-1 $175 0 $175 6.2831853071795862 $103 $176 forward 7 unknown #
face $-1 $177 $178 $23 $-1 $179 forward single #
loop $-1 $-1 $180 $66 #
plane-surface $-1 -30 -10 0 -1 0 0 0 0 1 forward_v I I I I #
coedge $-1 $181 $182 $183 $184 forward $67 $-1 #
coedge $-1 $185 $69 $182 $186 reversed $44 $-1 #
coedge $-1 $69 $185 $187 $188 forward $44 $-1 #
coedge $-1 $189 $183 $69 $113 reversed $190 $-1 #
edge $-1 $191 0.52359877559829882 $192 2.6179938779914944 $69 $193 forward 7 unknown #
model_id-kcp-attrib $-1 $-1 $-1 $71 1 990663511 70 -2142896127 6 #
face $194 $195 $196 $8 $-1 $197 forward single #
loop $198 $-1 $199 $71 #
model_id-kcp-attrib $-1 $-1 $-1 $72 1 990663511 70 -2142896127 24 #
coedge $-1 $200 $81 $86 $145 reversed $72 $-1 #
coedge $-1 $201 $75 $202 $203 reversed $48 $-1 #
coedge $-1 $75 $201 $200 $204 forward $48 $-1 #
coedge $-1 $86 $205 $75 $122 forward $87 $-1 #
edge $206 $207 -40 $208 0 $121 $209 forward 7 unknown #
coedge $-1 $77 $76 $210 $211 forward $33 $-1 #
coedge $-1 $139 $212 $76 $125 forward $140 $-1 #
edge $213 $214 -30 $130 -17.320508075688775 $124 $143 forward 7 unknown #
coedge $-1 $215 $199 $77 $127 reversed $116 $-1 #
edge $-1 $216 -30 $131 -17.320508075688775 $77 $137 forward 7 unknown #
coedge $-1 $148 $78 $199 $217 forward $87 $-1 #
attrib_edge_convexity-kcp-attrib $-1 $218 $-1 $79 1 #
vertex $-1 $79 $219 #
vertex $-1 $217 $220 #
straight-curve $-1 17.320508075688775 -10 0 0 0 -1 I I #
coedge $-1 $221 $222 $80 $134 forward $196 $-1 #
edge $-1 $142 -20 $136 20 $133 $223 forward 7 unknown #
coedge $-1 $81 $200 $221 $224 reversed $72 $-1 #
vertex $-1 $224 $225 #
straight-curve $-1 0 -10 0 -1 0 0 I I #
coedge $-1 $202 $83 $222 $226 forward $140 $-1 #
coedge $-1 $83 $124 $85 $144 forward $140 $-1 #
loop $227 $-1 $228 $229 #
attrib_edge_convexity-kcp-attrib $-1 $230 $-1 $84 1 #
vertex $-1 $84 $231 #
straight-curve $-1 0 -10 40 -1 0 0 I I #
edge $232 $130 0.52359877559829882 $90 2.6179938779914944 $139 $233 forward 7 unknown #
edge $234 $208 2.6179938779914944 $89 3.6651914291880918 $86 $235 forward 7 unknown #
model_id-kcp-attrib $-1 $-1 $-1 $87 1 990663511 70 -2142896127 19 #
loop $236 $-1 $237 $149 #
coedge $-1 $205 $128 $238 $239 forward $87 $-1 #
face $240 $241 $87 $8 $-1 $242 reversed single #
convexity-sys-attrib $-1 $-1 $88 $55 #
point $-1 -17.320508075688775 -10 0 #
point $-1 -17.320508075688775 -10 40 #
model_id-kcp-attrib $-1 $-1 $-1 $93 1 990663511 70 -2142896126 5 #
face $243 $244 $245 $19 $-1 $246 reversed single #
loop $-1 $-1 $247 $93 #
plane-surface $-1 -40 0 0 1 0 0 0 0 -1 forward_v I I I I #
coedge $-1 $248 $165 $249 $250 forward $94 $-1 #
coedge $-1 $251 $96 $248 $252 forward $58 $-1 #
coedge $-1 $96 $251 $253 $254 forward $58 $-1 #
coedge $-1 $168 $167 $96 $161 reversed $169 $-1 #
edge $-1 $255 -40 $256 40 $160 $257 forward 7 unknown #
coedge $-1 $98 $97 $258 $259 forward $38 $-1 #
coedge $-1 $260 $261 $97 $164 reversed $245 $-1 #
edge $-1 $171 -40 $262 40 $163 $263 forward 7 unknown #
coedge $-1 $157 $264 $98 $166 reversed $94 $-1 #
edge $-1 $265 -40 $170 40 $165 $266 forward 7 unknown #
coedge $-1 $160 $99 $264 $267 forward $169 $-1 #
coedge $-1 $99 $160 $260 $268 reversed $169 $-1 #
loop $-1 $-1 $167 $244 #
vertex $-1 $100 $269 #
vertex $-1 $100 $270 #
straight-curve $-1 40 0 40 0 1 0 I I #
coedge $-1 $173 $173 $104 $174 forward $101 $-1 #
edge $-1 $271 0 $271 6.2831853071795862 $173 $272 forward 7 unknown #
vertex $-1 $105 $273 #
ellipse-curve $-1 0 0 -40 0 0 -1 20 0 0 1 I I #
face $-1 $274 $275 $23 $-1 $276 forward single #
loop $-1 $-1 $277 $106 #
plane-surface $-1 -30 10 0 0 1 0 0 0 1 forward_v I I I I #
coedge $-1 $278 $279 $280 $281 forward $107 $-1 #
coedge $-1 $282 $109 $279 $283 reversed $67 $-1 #
coedge $-1 $109 $282 $110 $186 forward $67 $-1 #
coedge $-1 $112 $280 $109 $184 reversed $190 $-1 #
edge $-1 $192 17.320508075688778 $284 30 $109 $285 forward 7 unknown #
coedge $-1 $111 $110 $286 $287 reversed $44 $-1 #
edge $-1 $288 0 $192 40 $182 $289 forward 7 unknown #
coedge $-1 $290 $291 $111 $188 reversed $292 $-1 #
edge $-1 $293 0 $191 40 $111 $294 forward 7 unknown #
coedge $-1 $295 $112 $291 $296 reversed $190 $-1 #
loop $-1 $-1 $112 $297 #
vertex $-1 $188 $298 #
vertex $-1 $186 $299 #
ellipse-curve $-1 0 0 40 0 0 -1 20 0 0 1 I I #
model_id-kcp-attrib $-1 $-1 $-1 $115 1 990663511 70 -2142896127 7 #
face $300 $301 $302 $8 $-1 $49 forward single #
loop $-1 $-1 $303 $115 #
plane-surface $-1 -30 0 20 1 0 0 0 0 -1 forward_v I I I I #
model_id-kcp-attrib $-1 $-1 $-1 $116 1 990663511 70 -2142896127 27 #
coedge $-1 $126 $304 $128 $217 reversed $116 $-1 #
coedge $-1 $135 $118 $120 $204 reversed $72 $-1 #
coedge $-1 $120 $119 $303 $305 forward $48 $-1 #
coedge $-1 $306 $138 $119 $203 forward $140 $-1 #
edge $307 $308 -30 $207 -17.320508075688775 $202 $309 forward 7 unknown #
edge $-1 $310 -30 $208 -17.320508075688775 $120 $311 forward 7 unknown #
coedge $-1 $121 $148 $306 $312 reversed $87 $-1 #
attrib_edge_convexity-kcp-attrib $-1 $313 $-1 $122 1 #
vertex $-1 $122 $314 #
vertex $-1 $145 $315 #
straight-curve $-1 -17.320508075688775 10 0 0 0 -1 I I #
coedge $-1 $316 $317 $123 $211 reversed $318 $-1 #
edge $-1 $214 -20 $216 20 $210 $319 forward 7 unknown #
coedge $-1 $124 $228 $316 $320 forward $140 $-1 #
attrib_edge_convexity-kcp-attrib $-1 $321 $-1 $125 1 #
vertex $-1 $125 $322 #
coedge $-1 $304 $126 $317 $323 reversed $116 $-1 #
vertex $-1 $211 $324 #
edge $325 $131 -0.52359877559829882 $326 0.52359877559829882 $128 $235 forward 7 unknown #
convexity-sys-attrib $-1 $-1 $129 $79 #
point $-1 17.320508075688775 -10 40 #
point $-1 17.320508075688775 -10 0 #
coedge $-1 $303 $133 $135 $224 forward $196 $-1 #
coedge $-1 $133 $303 $138 $226 reversed $196 $-1 #
straight-curve $-1 -30 -10 20 0 0 -1 I I #
edge $-1 $136 -10 $310 10 $221 $327 forward 7 unknown #
point $-1 -30 -10 0 #
edge $328 $142 -10 $308 10 $138 $329 forward 7 unknown #
model_id-kcp-attrib $-1 $-1 $-1 $140 1 990663511 70 -2142896127 22 #
coedge $-1 $212 $306 $330 $331 forward $140 $-1 #
face $332 $149 $333 $8 $-1 $334 forward single #
convexity-sys-attrib $-1 $-1 $141 $84 #
point $-1 -30 -10 40 #
attrib_edge_convexity-kcp-attrib $-1 $335 $-1 $144 1 #
ellipse-curve $-1 0 0 40 0 0 -1 20 0 0 1 I I #
attrib_edge_convexity-kcp-attrib $-1 $336 $-1 $145 1 #
ellipse-curve $-1 0 0 0 0 0 1 20 0 0 1 I I #
model_id-kcp-attrib $-1 $-1 $-1 $147 1 990663511 70 -2142896127 20 #
coedge $-1 $237 $237 $337 $338 reversed $147 $-1 #
coedge $-1 $339 $330 $148 $239 reversed $302 $-1 #
edge $340 $326 0 $341 40 $148 $342 forward 7 unknown #
model_id-kcp-attrib $-1 $-1 $-1 $149 1 990663511 70 -2142896127 11 #
face $343 $344 $345 $8 $-1 $346 reversed single #
cone-surface $-1 0 0 0 0 0 1 20 0 0 1 I I 0 1 20 forward I I I I #
model_id-kcp-attrib $-1 $-1 $-1 $154 1 990663511 70 -2142896126 6 #
face $347 $-1 $169 $19 $-1 $348 reversed single #
loop $-1 $-1 $260 $154 #
plane-surface $-1 0 40 0 0 -1 0 0 0 -1 forward_v I I I I #
coedge $-1 $349 $258 $261 $350 forward $155 $-1 #
coedge $-1 $264 $157 $158 $252 reversed $94 $-1 #
coedge $-1 $258 $349 $157 $250 reversed $155 $-1 #
edge $-1 $265 -40 $351 40 $249 $352 forward 7 unknown #
coedge $-1 $159 $158 $349 $353 forward $58 $-1 #
edge $-1 $256 -40 $351 40 $248 $354 forward 7 unknown #
coedge $-1 $261 $260 $159 $254 reversed $245 $-1 #
edge $-1 $355 -40 $255 40 $253 $356 forward 7 unknown #
vertex $-1 $161 $357 #
vertex $-1 $267 $358 #
straight-curve $-1 40 0 -40 0 -1 0 I I #
coedge $-1 $247 $249 $162 $259 reversed $155 $-1 #
edge $-1 $262 -40 $265 40 $258 $359 forward 7 unknown #
coedge $-1 $253 $163 $168 $268 forward $245 $-1 #
coedge $-1 $163 $253 $247 $350 reversed $245 $-1 #
vertex $-1 $164 $360 #
straight-curve $-1 0 40 40 -1 0 0 I I #
coedge $-1 $165 $248 $167 $267 reversed $94 $-1 #
vertex $-1 $259 $361 #
straight-curve $-1 0 -40 40 1 0 0 I I #
edge $-1 $170 -40 $256 40 $167 $362 forward 7 unknown #
edge $-1 $171 -40 $255 40 $168 $363 forward 7 unknown #
point $-1 40 -40 40 #
point $-1 40 40 40 #
vertex $-1 $174 $364 #
ellipse-curve $-1 0 0 40 0 0 1 20 0 0 1 I I #
point $-1 20 0 -40 #
face $-1 $365 $366 $23 $-1 $367 forward single #
loop $-1 $-1 $368 $177 #
cone-surface $-1 0 0 0 0 0 1 20 0 0 1 I I 0 1 20 forward I I I I #
coedge $-1 $369 $370 $371 $372 forward $178 $-1 #
coedge $-1 $373 $180 $370 $374 reversed $107 $-1 #
coedge $-1 $180 $373 $181 $283 forward $107 $-1 #
coedge $-1 $183 $371 $180 $281 reversed $190 $-1 #
edge $-1 $284 -10 $375 10 $180 $376 forward 7 unknown #
coedge $-1 $182 $181 $377 $378 reversed $67 $-1 #
edge $-1 $379 0 $284 40 $279 $380 forward 7 unknown #
vertex $-1 $283 $381 #
straight-curve $-1 0 -10 40 -1 0 0 I I #
coedge $-1 $377 $382 $185 $287 forward $383 $-1 #
edge $384 $293 0.52359877559829882 $288 2.6179938779914944 $185 $385 forward 7 unknown #
vertex $-1 $287 $386 #
straight-curve $-1 -17.320508075688778 -10 0 0 0 1 I I #
coedge $-1 $387 $187 $382 $388 reversed $292 $-1 #
coedge $-1 $187 $387 $189 $296 forward $292 $-1 #
loop $-1 $-1 $291 $389 #
vertex $-1 $388 $390 #
straight-curve $-1 17.320508075688775 -10 0 0 0 1 I I #
coedge $-1 $391 $189 $392 $393 reversed $190 $-1 #
edge $-1 $394 -30 $191 -17.320508075688775 $291 $395 forward 7 unknown #
face $-1 $396 $190 $23 $-1 $397 forward single #
point $-1 17.320508075688775 -10 40 #
point $-1 -17.320508075688778 -10 40 #
model_id-kcp-attrib $-1 $-1 $-1 $195 1 990663511 70 -2142896127 8 #
face $398 $229 $318 $8 $-1 $399 forward single #
loop $400 $-1 $238 $195 #
coedge $-1 $222 $221 $201 $305 reversed $196 $-1 #
coedge $-1 $199 $215 $339 $401 reversed $116 $-1 #
edge $-1 $308 -20 $310 20 $201 $402 forward 7 unknown #
coedge $-1 $228 $202 $205 $312 forward $140 $-1 #
attrib_edge_convexity-kcp-attrib $-1 $403 $-1 $203 1 #
vertex $-1 $226 $404 #
straight-curve $-1 0 10 40 1 0 0 I I #
vertex $-1 $204 $405 #
straight-curve $-1 0 10 0 1 0 0 I I #
edge $406 $207 -2.6179938779914944 $341 -0.52359877559829882 $306 $233 forward 7 unknown #
convexity-sys-attrib $-1 $-1 $206 $122 #
point $-1 -17.320508075688775 10 40 #
point $-1 -17.320508075688775 10 0 #
coedge $-1 $407 $210 $212 $320 reversed $318 $-1 #
coedge $-1 $210 $407 $215 $323 forward $318 $-1 #
loop $-1 $-1 $210 $301 #
straight-curve $-1 30 -10 20 0 0 -1 I I #
edge $408 $409 -10 $214 10 $212 $410 forward 7 unknown #
convexity-sys-attrib $-1 $-1 $213 $125 #
point $-1 30 -10 40 #
edge $-1 $411 -10 $216 10 $317 $412 forward 7 unknown #
point $-1 30 -10 0 #
attrib_edge_convexity-kcp-attrib $-1 $413 $-1 $217 1 #
vertex $-1 $217 $414 #
straight-curve $-1 -30 0 0 0 1 0 I I #
attrib_edge_convexity-kcp-attrib $-1 $415 $-1 $226 1 #
straight-curve $-1 -30 0 40 0 1 0 I I #
coedge $-1 $238 $416 $228 $331 reversed $302 $-1 #
edge $417 $341 17.320508075688775 $409 30 $228 $309 forward 7 unknown #
model_id-kcp-attrib $-1 $418 $-1 $229 1 990663511 70 -2142896127 17 #
loop $-1 $140 $419 $229 #
plane-surface $-1 0 0 40 0 0 1 1 0 0 forward_v I I I I #
convexity-sys-attrib $-1 $-1 $232 $144 #
convexity-sys-attrib $-1 $-1 $234 $145 #
coedge $-1 $337 $337 $237 $338 forward $345 $-1 #
edge $420 $421 -3.1415926535897998 $421 3.1415926535897865 $337 $422 forward 7 unknown #
coedge $-1 $416 $238 $304 $401 forward $302 $-1 #
attrib_edge_convexity-kcp-attrib $-1 $423 $-1 $239 1 #
vertex $-1 $312 $424 #
straight-curve $-1 17.320508075688775 10 0 0 0 1 I I #
model_id-kcp-attrib $-1 $425 $-1 $241 1 990663511 70 -2142896127 18 #
face $426 $427 $428 $8 $-1 $429 reversed single #
loop $430 $431 $337 $241 #
plane-surface $-1 0 0 -40 0 0 1 1 0 0 forward_v I I I I #
model_id-kcp-attrib $-1 $-1 $-1 $244 1 990663511 70 -2142896126 7 #
plane-surface $-1 40 0 0 -1 0 0 0 0 1 forward_v I I I I #
coedge $-1 $249 $247 $251 $353 reversed $155 $-1 #
edge $-1 $262 -40 $355 40 $261 $432 forward 7 unknown #
vertex $-1 $353 $433 #
straight-curve $-1 -40 -40 0 0 0 -1 I I #
edge $-1 $351 -40 $355 40 $349 $434 forward 7 unknown #
straight-curve $-1 0 -40 -40 -1 0 0 I I #
vertex $-1 $254 $435 #
straight-curve $-1 0 40 -40 1 0 0 I I #
point $-1 40 40 -40 #
point $-1 40 -40 -40 #
straight-curve $-1 -40 0 40 0 -1 0 I I #
point $-1 -40 40 40 #
point $-1 -40 -40 40 #
straight-curve $-1 40 -40 0 0 0 -1 I I #
straight-curve $-1 40 40 0 0 0 -1 I I #
point $-1 20 0 40 #
face $-1 $389 $436 $23 $-1 $437 forward single #
loop $-1 $-1 $438 $274 #
plane-surface $-1 17.320508075688775 10 0 0 1 0 0 0 1 forward_v I I I I #
coedge $-1 $439 $440 $441 $442 forward $275 $-1 #
coedge $-1 $443 $277 $440 $444 reversed $178 $-1 #
coedge $-1 $277 $443 $278 $374 forward $178 $-1 #
coedge $-1 $280 $441 $277 $372 reversed $190 $-1 #
edge $-1 $375 -30 $445 -17.320508075688778 $277 $446 forward 7 unknown #
coedge $-1 $279 $278 $447 $448 reversed $107 $-1 #
edge $-1 $449 0 $375 40 $370 $450 forward 7 unknown #
vertex $-1 $374 $451 #
straight-curve $-1 -30 0 40 0 1 0 I I #
coedge $-1 $447 $286 $282 $378 forward $383 $-1 #
edge $452 $288 17.320508075688775 $379 30 $282 $453 forward 7 unknown #
vertex $-1 $378 $454 #
straight-curve $-1 -30 -10 0 0 0 1 I I #
point $-1 -30 -10 40 #
coedge $-1 $286 $455 $290 $388 forward $383 $-1 #
loop $-1 $-1 $382 $396 #
convexity-sys-attrib $-1 $-1 $-1 $287 #
ellipse-curve $-1 0 0 0 0 0 -1 20 0 0 1 I I #
point $-1 -17.320508075688775 -10 0 #
coedge $-1 $291 $290 $456 $457 forward $292 $-1 #
edge $458 $459 -30 $293 -17.320508075688775 $290 $460 forward 7 unknown #
face $-1 $297 $292 $23 $-1 $461 forward single #
point $-1 17.320508075688775 -10 0 #
coedge $-1 $441 $295 $438 $462 reversed $190 $-1 #
coedge $-1 $456 $463 $295 $393 forward $436 $-1 #
edge $-1 $464 -10 $394 10 $392 $465 forward 7 unknown #
vertex $-1 $457 $466 #
straight-curve $-1 0 -10 40 -1 0 0 I I #
face $-1 $-1 $383 $23 $-1 $467 reversed single #
plane-surface $-1 2.9957575067235937e-016 -4.4408920985006262e-016 40 0 0 1 1 0 0 forward_v I I I I #
model_id-kcp-attrib $-1 $-1 $-1 $301 1 990663511 70 -2142896127 9 #
plane-surface $-1 30 0 20 -1 0 0 0 0 1 forward_v I I I I #
model_id-kcp-attrib $-1 $-1 $-1 $302 1 990663511 70 -2142896127 21 #
edge $-1 $326 17.320508075688775 $411 30 $339 $311 forward 7 unknown #
straight-curve $-1 -30 10 20 0 0 -1 I I #
convexity-sys-attrib $-1 $-1 $307 $203 #
point $-1 -30 10 40 #
point $-1 -30 10 0 #
attrib_edge_convexity-kcp-attrib $-1 $468 $-1 $312 1 #
coedge $-1 $317 $316 $416 $469 forward $318 $-1 #
attrib_edge_convexity-kcp-attrib $-1 $470 $-1 $320 1 #
vertex $-1 $331 $471 #
straight-curve $-1 30 0 40 0 -1 0 I I #
vertex $-1 $323 $472 #
straight-curve $-1 30 0 0 0 -1 0 I I #
convexity-sys-attrib $-1 $-1 $325 $217 #
point $-1 17.320508075688775 10 0 #
convexity-sys-attrib $-1 $-1 $328 $226 #
coedge $-1 $330 $339 $407 $469 reversed $302 $-1 #
attrib_edge_convexity-kcp-attrib $-1 $473 $-1 $331 1 #
model_id-kcp-attrib $-1 $-1 $332 $229 1 990663511 70 -2142896127 10 #
coedge $-1 $474 $475 $476 $477 forward $333 $-1 #
attrib_edge_convexity-kcp-attrib $-1 $478 $-1 $338 1 #
vertex $-1 $338 $479 #
ellipse-curve $-1 0 0 -40 0 0 1 20 0 0 1 I I #
convexity-sys-attrib $-1 $-1 $340 $239 #
point $-1 17.320508075688775 10 40 #
model_id-kcp-attrib $-1 $-1 $343 $241 1 990663511 70 -2142896127 12 #
model_id-kcp-attrib $-1 $-1 $-1 $344 1 990663511 70 -2142896127 13 #
face $480 $481 $482 $8 $-1 $483 reversed single #
loop $-1 $-1 $484 $344 #
plane-surface $-1 0 -40 0 0 1 0 0 0 1 forward_v I I I I #
model_id-kcp-attrib $-1 $-1 $-1 $345 1 990663511 70 -2142896127 28 #
loop $-1 $-1 $485 $241 #
straight-curve $-1 -40 40 0 0 0 -1 I I #
point $-1 -40 -40 -40 #
straight-curve $-1 -40 0 -40 0 1 0 I I #
point $-1 -40 40 -40 #
loop $-1 $-1 $392 $365 #
plane-surface $-1 30 10 0 1 0 0 0 0 -1 forward_v I I I I #
coedge $-1 $486 $487 $391 $462 forward $366 $-1 #
coedge $-1 $488 $368 $487 $489 reversed $275 $-1 #
coedge $-1 $368 $488 $369 $444 forward $275 $-1 #
coedge $-1 $371 $391 $368 $442 reversed $190 $-1 #
edge $-1 $445 -2.6179938779914944 $490 -0.52359877559829882 $368 $491 forward 7 unknown #
coedge $-1 $370 $369 $492 $493 reversed $178 $-1 #
edge $-1 $494 0 $445 40 $440 $495 forward 7 unknown #
vertex $-1 $444 $496 #
straight-curve $-1 0 10 40 1 0 0 I I #
coedge $-1 $492 $377 $373 $448 forward $383 $-1 #
edge $497 $379 -10 $449 10 $373 $498 forward 7 unknown #
vertex $-1 $448 $499 #
straight-curve $-1 -30 10 0 0 0 1 I I #
point $-1 -30 10 40 #
convexity-sys-attrib $-1 $-1 $-1 $378 #
straight-curve $-1 0 -10 0 -1 0 0 I I #
point $-1 -30 -10 0 #
coedge $-1 $382 $500 $501 $502 forward $383 $-1 #
coedge $-1 $501 $392 $387 $457 reversed $436 $-1 #
edge $-1 $459 0 $394 40 $387 $503 forward 7 unknown #
convexity-sys-attrib $-1 $-1 $-1 $388 #
vertex $-1 $388 $504 #
straight-curve $-1 0 -10 0 -1 0 0 I I #
plane-surface $-1 30 -10 0 0 -1 0 0 0 -1 forward_v I I I I #
edge $-1 $490 17.320508075688775 $464 30 $438 $505 forward 7 unknown #
coedge $-1 $392 $501 $486 $506 forward $436 $-1 #
vertex $-1 $506 $507 #
straight-curve $-1 30 0 40 0 -1 0 I I #
point $-1 30 -10 40 #
plane-surface $-1 2.9957575067235937e-016 -4.4408920985006262e-016 0 0 0 1 1 0 0 forward_v I I I I #
convexity-sys-attrib $-1 $-1 $406 $312 #
edge $-1 $409 -20 $411 20 $407 $508 forward 7 unknown #
convexity-sys-attrib $-1 $-1 $408 $320 #
point $-1 30 10 40 #
point $-1 30 10 0 #
convexity-sys-attrib $-1 $-1 $417 $331 #
coedge $-1 $509 $419 $510 $511 forward $333 $-1 #
coedge $-1 $419 $509 $512 $513 forward $333 $-1 #
coedge $-1 $514 $515 $419 $477 reversed $516 $-1 #
edge $517 $518 -40 $519 40 $476 $520 forward 7 unknown #
convexity-sys-attrib $-1 $-1 $420 $338 #
point $-1 -20 1.3965925397624529e-013 -40 #
model_id-kcp-attrib $-1 $-1 $-1 $427 1 990663511 70 -2142896127 14 #
face $521 $522 $523 $8 $-1 $524 reversed single #
loop $-1 $-1 $525 $427 #
plane-surface $-1 -40 0 0 1 0 0 0 0 -1 forward_v I I I I #
coedge $-1 $526 $512 $527 $528 forward $428 $-1 #
coedge $-1 $529 $530 $531 $532 forward $431 $-1 #
coedge $-1 $533 $438 $463 $506 reversed $366 $-1 #
coedge $-1 $438 $533 $439 $489 forward $366 $-1 #
coedge $-1 $440 $439 $534 $535 reversed $275 $-1 #
edge $-1 $536 0 $490 40 $487 $537 forward 7 unknown #
vertex $-1 $489 $538 #
ellipse-curve $-1 0 0 40 0 0 -1 20 0 0 1 I I #
coedge $-1 $534 $447 $443 $493 forward $383 $-1 #
edge $539 $449 -30 $494 -17.320508075688775 $443 $540 forward 7 unknown #
vertex $-1 $493 $541 #
straight-curve $-1 -17.320508075688778 10 0 0 0 1 I I #
point $-1 -17.320508075688778 10 40 #
convexity-sys-attrib $-1 $-1 $-1 $448 #
straight-curve $-1 -30 0 0 0 1 0 I I #
point $-1 -30 10 0 #
coedge $-1 $455 $534 $533 $542 forward $383 $-1 #
coedge $-1 $463 $456 $455 $502 reversed $436 $-1 #
edge $543 $544 -10 $459 10 $501 $545 forward 7 unknown #
straight-curve $-1 30 -10 0 0 0 1 I I #
point $-1 30 -10 0 #
straight-curve $-1 0 10 40 1 0 0 I I #
edge $-1 $544 0 $464 40 $463 $546 forward 7 unknown #
point $-1 30 10 40 #
straight-curve $-1 30 10 20 0 0 -1 I I #
coedge $-1 $475 $474 $547 $548 forward $333 $-1 #
coedge $-1 $549 $550 $474 $511 reversed $523 $-1 #
edge $551 $519 -40 $552 40 $510 $553 forward 7 unknown #
coedge $-1 $484 $554 $475 $513 reversed $428 $-1 #
edge $555 $556 -40 $518 40 $512 $557 forward 7 unknown #
coedge $-1 $531 $476 $554 $558 forward $516 $-1 #
coedge $-1 $476 $531 $549 $559 reversed $516 $-1 #
loop $-1 $-1 $514 $522 #
attrib_edge_convexity-kcp-attrib $-1 $560 $-1 $477 1 #
vertex $-1 $477 $561 #
vertex $-1 $477 $562 #
straight-curve $-1 40 0 40 0 1 0 I I #
model_id-kcp-attrib $-1 $-1 $-1 $481 1 990663511 70 -2142896127 15 #
face $563 $-1 $516 $8 $-1 $564 reversed single #
loop $-1 $-1 $549 $481 #
plane-surface $-1 0 40 0 0 -1 0 0 0 -1 forward_v I I I I #
coedge $-1 $565 $547 $550 $566 forward $482 $-1 #
coedge $-1 $554 $484 $529 $567 reversed $428 $-1 #
coedge $-1 $547 $565 $484 $528 reversed $482 $-1 #
edge $568 $556 -40 $569 40 $527 $570 forward 7 unknown #
coedge $-1 $571 $485 $526 $567 forward $431 $-1 #
coedge $-1 $485 $571 $572 $573 forward $431 $-1 #
coedge $-1 $515 $514 $485 $532 reversed $516 $-1 #
edge $-1 $574 -40 $575 40 $531 $576 forward 7 unknown #
coedge $-1 $487 $486 $500 $542 reversed $366 $-1 #
coedge $-1 $500 $492 $488 $535 forward $383 $-1 #
edge $577 $494 -2.6179938779914944 $536 -0.52359877559829882 $488 $578 forward 7 unknown #
vertex $-1 $535 $579 #
straight-curve $-1 17.320508075688775 10 0 0 0 1 I I #
point $-1 17.320508075688775 10 40 #
convexity-sys-attrib $-1 $-1 $-1 $493 #
straight-curve $-1 0 10 0 1 0 0 I I #
point $-1 -17.320508075688775 10 0 #
edge $580 $536 17.320508075688775 $544 30 $533 $581 forward 7 unknown #
convexity-sys-attrib $-1 $-1 $-1 $502 #
vertex $-1 $542 $582 #
straight-curve $-1 30 0 0 0 -1 0 I I #
straight-curve $-1 30 10 0 0 0 1 I I #
coedge $-1 $525 $527 $509 $548 reversed $482 $-1 #
edge $583 $552 -40 $556 40 $547 $584 forward 7 unknown #
coedge $-1 $572 $510 $515 $559 forward $523 $-1 #
coedge $-1 $510 $572 $525 $566 reversed $523 $-1 #
attrib_edge_convexity-kcp-attrib $-1 $585 $-1 $511 1 #
vertex $-1 $511 $586 #
straight-curve $-1 0 40 40 -1 0 0 I I #
coedge $-1 $512 $526 $514 $558 reversed $428 $-1 #
attrib_edge_convexity-kcp-attrib $-1 $587 $-1 $513 1 #
vertex $-1 $548 $588 #
straight-curve $-1 0 -40 40 1 0 0 I I #
edge $589 $518 -40 $575 40 $514 $590 forward 7 unknown #
edge $-1 $519 -40 $574 40 $515 $591 forward 7 unknown #
convexity-sys-attrib $-1 $-1 $517 $477 #
point $-1 40 -40 40 #
point $-1 40 40 40 #
model_id-kcp-attrib $-1 $-1 $-1 $522 1 990663511 70 -2142896127 16 #
plane-surface $-1 40 0 0 -1 0 0 0 0 1 forward_v I I I I #
coedge $-1 $527 $525 $571 $592 reversed $482 $-1 #
edge $593 $552 -40 $594 40 $550 $595 forward 7 unknown #
edge $596 $575 -40 $569 40 $526 $597 forward 7 unknown #
attrib_edge_convexity-kcp-attrib $-1 $598 $-1 $528 1 #
vertex $-1 $592 $599 #
straight-curve $-1 -40 -40 0 0 0 -1 I I #
coedge $-1 $530 $529 $565 $592 forward $431 $-1 #
coedge $-1 $550 $549 $530 $573 reversed $523 $-1 #
edge $-1 $594 -40 $574 40 $572 $600 forward 7 unknown #
vertex $-1 $532 $601 #
vertex $-1 $558 $602 #
straight-curve $-1 40 0 -40 0 -1 0 I I #
convexity-sys-attrib $-1 $-1 $-1 $535 #
ellipse-curve $-1 0 0 0 0 0 -1 20 0 0 1 I I #
point $-1 17.320508075688775 10 0 #
convexity-sys-attrib $-1 $-1 $-1 $542 #
straight-curve $-1 0 10 0 1 0 0 I I #
point $-1 30 10 0 #
attrib_edge_convexity-kcp-attrib $-1 $603 $-1 $548 1 #
straight-curve $-1 -40 0 40 0 -1 0 I I #
convexity-sys-attrib $-1 $-1 $551 $511 #
point $-1 -40 40 40 #
convexity-sys-attrib $-1 $-1 $555 $513 #
point $-1 -40 -40 40 #
attrib_edge_convexity-kcp-attrib $-1 $604 $-1 $558 1 #
straight-curve $-1 40 -40 0 0 0 -1 I I #
straight-curve $-1 40 40 0 0 0 -1 I I #
edge $605 $569 -40 $594 40 $565 $606 forward 7 unknown #
attrib_edge_convexity-kcp-attrib $-1 $607 $-1 $566 1 #
vertex $-1 $573 $608 #
straight-curve $-1 -40 40 0 0 0 -1 I I #
attrib_edge_convexity-kcp-attrib $-1 $609 $-1 $567 1 #
straight-curve $-1 0 -40 -40 -1 0 0 I I #
convexity-sys-attrib $-1 $-1 $568 $528 #
point $-1 -40 -40 -40 #
straight-curve $-1 0 40 -40 1 0 0 I I #
point $-1 40 40 -40 #
point $-1 40 -40 -40 #
convexity-sys-attrib $-1 $-1 $583 $548 #
convexity-sys-attrib $-1 $-1 $589 $558 #
attrib_edge_convexity-kcp-attrib $-1 $610 $-1 $592 1 #
straight-curve $-1 -40 0 -40 0 1 0 I I #
convexity-sys-attrib $-1 $-1 $593 $566 #
point $-1 -40 40 -40 #
convexity-sys-attrib $-1 $-1 $596 $567 #
convexity-sys-attrib $-1 $-1 $605 $592 #
End-of-ACIS-data 