105 828 1 0                             
body $-1 $1 $-1 $-1 #
lump $-1 $-1 $2 $0 #
shell $-1 $-1 $-1 $3 $1 #
face $-1 $4 $5 $2 $-1 $6 reversed single #
face $-1 $7 $8 $2 $-1 $9 reversed single #
loop $-1 $-1 $10 $3 #
cone-surface $-1 -17.5 0 10 0 0 1 2.5 0 0 1 0 1 0 #
face $-1 $11 $12 $2 $-1 $13 forward single #
loop $-1 $-1 $14 $4 #
cone-surface $-1 17.5 0 10 0 0 1 2.5 0 0 1 0 1 0 #
coedge $-1 $15 $16 $17 $18 1 $5 $-1 #
face $-1 $19 $20 $2 $-1 $21 forward single #
loop $-1 $22 $23 $7 #
plane-surface $-1 0 0 12.5 0 0 1 1 0 0 0 #
coedge $-1 $24 $25 $26 $27 1 $8 $-1 #
coedge $-1 $28 $10 $29 $30 0 $5 $-1 #
coedge $-1 $10 $28 $23 $31 1 $5 $-1 #
coedge $-1 $32 $33 $10 $18 0 $34 $-1 #
edge $-1 $35 $36 $17 $37 1 #
face $-1 $38 $34 $2 $-1 $39 forward single #
loop $-1 $-1 $40 $11 #
plane-surface $-1 0 0 7.5 0 0 1 1 0 0 0 #
loop $-1 $-1 $41 $7 #
coedge $-1 $42 $43 $16 $31 0 $12 $-1 #
coedge $-1 $44 $14 $45 $46 0 $8 $-1 #
coedge $-1 $14 $47 $48 $49 1 $8 $-1 #
coedge $-1 $50 $51 $14 $27 0 $52 $-1 #
edge $-1 $53 $54 $26 $55 1 #
coedge $-1 $16 $15 $56 $57 0 $5 $-1 #
coedge $-1 $58 $59 $15 $30 1 $60 $-1 #
edge $-1 $35 $61 $29 $62 0 #
edge $-1 $36 $63 $23 $64 0 #
coedge $-1 $65 $17 $43 $66 1 $34 $-1 #
coedge $-1 $17 $65 $58 $67 0 $34 $-1 #
loop $-1 $-1 $65 $19 #
vertex $-1 $67 $68 #
vertex $-1 $66 $69 #
straight-curve $-1 -17.5 -2.5 10 0 0 -1 #
face $-1 $70 $71 $2 $-1 $39 forward single #
plane-surface $-1 0 -2.5 10 0 1 0 0 0 1 0 #
coedge $-1 $72 $45 $51 $73 1 $20 $-1 #
coedge $-1 $74 $75 $76 $77 0 $22 $-1 #
coedge $-1 $78 $23 $79 $80 0 $12 $-1 #
coedge $-1 $23 $81 $32 $66 0 $12 $-1 #
coedge $-1 $82 $24 $83 $84 0 $8 $-1 #
coedge $-1 $40 $83 $24 $46 1 $20 $-1 #
edge $-1 $53 $85 $45 $86 0 #
coedge $-1 $25 $82 $87 $88 1 $8 $-1 #
coedge $-1 $87 $89 $25 $49 0 $12 $-1 #
edge $-1 $54 $90 $48 $91 0 #
coedge $-1 $92 $26 $89 $93 1 $52 $-1 #
coedge $-1 $26 $92 $40 $73 0 $52 $-1 #
loop $-1 $-1 $92 $94 #
vertex $-1 $73 $95 #
vertex $-1 $93 $96 #
straight-curve $-1 17.5 2.5 10 0 0 -1 #
coedge $-1 $97 $79 $28 $57 1 $98 $-1 #
edge $-1 $61 $63 $56 $99 1 #
coedge $-1 $100 $29 $33 $67 1 $60 $-1 #
coedge $-1 $29 $100 $97 $101 1 $60 $-1 #
loop $-1 $-1 $58 $102 #
vertex $-1 $101 $103 #
ellipse-curve $-1 -17.5 0 7.5 0 0 -1 2.5 0 0 1 #
vertex $-1 $31 $104 #
ellipse-curve $-1 -17.5 0 12.5 -0 -0 -1 2.5 0 0 1 #
coedge $-1 $33 $32 $105 $106 1 $34 $-1 #
edge $-1 $107 $36 $43 $108 0 #
edge $-1 $109 $35 $33 $110 0 #
point $-1 -17.5 -2.5 7.5 #
point $-1 -17.5 -2.5 12.5 #
face $-1 $102 $98 $2 $-1 $111 forward single #
loop $-1 $-1 $112 $38 #
coedge $-1 $113 $40 $114 $115 1 $20 $-1 #
edge $-1 $116 $53 $51 $117 0 #
coedge $-1 $118 $41 $119 $120 0 $22 $-1 #
coedge $-1 $41 $121 $122 $123 0 $22 $-1 #
coedge $-1 $124 $125 $41 $77 1 $126 $-1 #
edge $-1 $127 $128 $41 $129 0 #
coedge $-1 $89 $42 $130 $131 0 $12 $-1 #
coedge $-1 $56 $132 $42 $80 1 $98 $-1 #
edge $-1 $63 $133 $42 $134 0 #
coedge $-1 $43 $135 $136 $137 0 $12 $-1 #
coedge $-1 $47 $44 $138 $139 0 $8 $-1 #
coedge $-1 $45 $113 $44 $84 1 $20 $-1 #
edge $-1 $85 $140 $83 $86 0 #
vertex $-1 $46 $141 #
ellipse-curve $-1 17.5 0 7.5 0 0 -1 2.5 0 0 1 #
coedge $-1 $135 $48 $47 $88 0 $12 $-1 #
edge $-1 $90 $142 $87 $91 0 #
coedge $-1 $48 $78 $50 $93 0 $12 $-1 #
vertex $-1 $49 $143 #
ellipse-curve $-1 17.5 0 12.5 -0 -0 -1 2.5 0 0 1 #
coedge $-1 $51 $50 $144 $145 1 $52 $-1 #
edge $-1 $146 $54 $89 $134 0 #
face $-1 $147 $52 $2 $-1 $111 forward single #
point $-1 17.5 2.5 7.5 #
point $-1 17.5 2.5 12.5 #
coedge $-1 $132 $56 $59 $101 0 $98 $-1 #
loop $-1 $-1 $132 $70 #
straight-curve $-1 -17.5 2.5 10 0 0 -1 #
coedge $-1 $59 $58 $148 $149 1 $60 $-1 #
edge $-1 $61 $150 $97 $117 0 #
face $-1 $94 $60 $2 $-1 $21 forward single #
point $-1 -17.5 2.5 7.5 #
point $-1 -17.5 2.5 12.5 #
coedge $-1 $136 $148 $65 $106 0 $151 $-1 #
edge $-1 $109 $107 $105 $152 0 #
vertex $-1 $137 $153 #
straight-curve $-1 0 -2.5 12.5 -1 0 0 #
vertex $-1 $149 $154 #
straight-curve $-1 0 -2.5 7.5 -1 0 0 #
plane-surface $-1 0 2.5 10 0 -1 0 0 0 -1 0 #
coedge $-1 $155 $156 $157 $158 1 $71 $-1 #
coedge $-1 $83 $72 $156 $159 1 $20 $-1 #
coedge $-1 $144 $157 $72 $115 0 $151 $-1 #
edge $-1 $160 $116 $114 $161 0 #
vertex $-1 $115 $162 #
straight-curve $-1 0 2.5 7.5 1 0 0 #
coedge $-1 $163 $74 $164 $165 0 $22 $-1 #
coedge $-1 $166 $167 $74 $120 1 $168 $-1 #
edge $-1 $128 $169 $74 $170 0 #
coedge $-1 $75 $171 $172 $173 0 $22 $-1 #
coedge $-1 $174 $175 $75 $123 1 $176 $-1 #
edge $-1 $177 $127 $75 $178 0 #
coedge $-1 $179 $76 $175 $180 1 $126 $-1 #
coedge $-1 $76 $179 $166 $181 1 $126 $-1 #
loop $-1 $-1 $124 $182 #
vertex $-1 $123 $183 #
vertex $-1 $77 $184 #
ellipse-curve $-1 -12.5 12.5 12.5 -0 -0 -1 2.5 0 0 1 #
coedge $-1 $185 $144 $78 $131 1 $151 $-1 #
edge $-1 $133 $146 $78 $186 0 #
coedge $-1 $79 $97 $185 $187 1 $98 $-1 #
vertex $-1 $187 $188 #
straight-curve $-1 0 2.5 12.5 1 0 -0 #
coedge $-1 $81 $87 $155 $189 0 $12 $-1 #
coedge $-1 $157 $105 $81 $137 1 $151 $-1 #
edge $-1 $190 $107 $81 $186 0 #
coedge $-1 $156 $155 $82 $139 1 $71 $-1 #
edge $-1 $140 $142 $138 $191 1 #
vertex $-1 $139 $192 #
point $-1 20 0 7.5 #
vertex $-1 $189 $193 #
point $-1 20 0 12.5 #
coedge $-1 $130 $114 $92 $145 0 $151 $-1 #
edge $-1 $116 $146 $144 $194 0 #
vertex $-1 $131 $195 #
face $-1 $196 $151 $2 $-1 $197 reversed single #
coedge $-1 $105 $185 $100 $149 0 $151 $-1 #
edge $-1 $150 $109 $148 $198 0 #
vertex $-1 $149 $199 #
loop $-1 $200 $144 $147 #
straight-curve $-1 -4.33012701892219 -2.5 0 -0 -0 1 #
point $-1 -4.33012701892219 -2.5 12.5 #
point $-1 -4.33012701892219 -2.5 7.5 #
coedge $-1 $138 $112 $135 $189 1 $71 $-1 #
coedge $-1 $112 $138 $113 $159 0 $71 $-1 #
coedge $-1 $114 $136 $112 $158 0 $151 $-1 #
edge $-1 $190 $160 $157 $201 0 #
edge $-1 $140 $160 $156 $110 0 #
vertex $-1 $115 $202 #
ellipse-curve $-1 0 0 7.5 0 0 1 5 0 0 1 #
point $-1 4.33012701892219 2.5 7.5 #
coedge $-1 $203 $118 $204 $205 0 $22 $-1 #
coedge $-1 $206 $207 $118 $165 1 $208 $-1 #
edge $-1 $169 $209 $164 $210 0 #
coedge $-1 $211 $119 $125 $181 0 $168 $-1 #
coedge $-1 $119 $211 $206 $212 1 $168 $-1 #
loop $-1 $-1 $166 $213 #
vertex $-1 $212 $214 #
straight-curve $-1 -12.5 9.375 12.5 0 1 0 #
coedge $-1 $121 $215 $216 $217 0 $22 $-1 #
coedge $-1 $216 $218 $121 $173 1 $219 $-1 #
edge $-1 $220 $177 $121 $221 0 #
coedge $-1 $222 $122 $218 $223 0 $176 $-1 #
coedge $-1 $122 $222 $124 $180 0 $176 $-1 #
loop $-1 $-1 $175 $224 #
vertex $-1 $173 $225 #
straight-curve $-1 0 12.5 12.5 -1 0 0 #
coedge $-1 $125 $124 $226 $227 1 $126 $-1 #
edge $-1 $228 $127 $175 $229 0 #
edge $-1 $128 $230 $166 $231 0 #
face $-1 $224 $126 $2 $-1 $232 reversed single #
point $-1 -10 12.5 12.5 #
point $-1 -12.5 15 12.5 #
coedge $-1 $148 $130 $132 $187 0 $151 $-1 #
ellipse-curve $-1 0 0 12.5 -0 -0 -1 5 0 0 1 #
edge $-1 $133 $150 $185 $233 0 #
point $-1 -4.33012701892219 2.5 12.5 #
edge $-1 $142 $190 $135 $108 0 #
vertex $-1 $158 $234 #
straight-curve $-1 17.5 -2.5 10 0 0 -1 #
point $-1 17.5 -2.5 7.5 #
point $-1 17.5 -2.5 12.5 #
straight-curve $-1 4.33012701892219 2.5 0 0 0 1 #
point $-1 4.33012701892219 2.5 12.5 #
face $-1 $182 $235 $2 $-1 $236 reversed single #
cone-surface $-1 0 0 0 0 0 1 5 0 0 1 0 1 0 #
ellipse-curve $-1 0 0 7.5 0 0 1 5 0 0 1 #
point $-1 -4.33012701892219 2.5 7.5 #
loop $-1 $237 $238 $147 #
straight-curve $-1 4.33012701892219 -2.5 0 -0 0 -1 #
point $-1 4.33012701892219 -2.5 7.5 #
coedge $-1 $239 $163 $240 $241 0 $22 $-1 #
coedge $-1 $242 $243 $163 $205 1 $244 $-1 #
edge $-1 $209 $245 $163 $246 0 #
coedge $-1 $247 $164 $167 $212 0 $208 $-1 #
coedge $-1 $164 $248 $242 $249 0 $208 $-1 #
loop $-1 $-1 $248 $250 #
vertex $-1 $165 $251 #
straight-curve $-1 0 25 12.5 -1 0 0 #
coedge $-1 $167 $166 $252 $253 1 $168 $-1 #
edge $-1 $169 $254 $206 $255 0 #
face $-1 $250 $168 $2 $-1 $256 forward single #
point $-1 -12.5 25 12.5 #
coedge $-1 $171 $257 $258 $259 0 $22 $-1 #
coedge $-1 $260 $172 $171 $217 1 $219 $-1 #
edge $-1 $261 $220 $171 $221 0 #
coedge $-1 $172 $262 $174 $223 1 $219 $-1 #
loop $-1 $-1 $218 $263 #
vertex $-1 $217 $264 #
ellipse-curve $-1 12.5 12.5 12.5 -0 -0 -1 2.5 0 0 1 #
coedge $-1 $175 $174 $265 $266 1 $176 $-1 #
edge $-1 $177 $267 $174 $268 0 #
face $-1 $263 $269 $2 $-1 $270 forward single #
point $-1 10 12.5 12.5 #
coedge $-1 $265 $252 $179 $227 0 $271 $-1 #
edge $-1 $230 $228 $226 $272 0 #
vertex $-1 $180 $273 #
straight-curve $-1 -10 12.5 0 0 0 1 #
vertex $-1 $253 $274 #
straight-curve $-1 -12.5 15 0 -0 -0 -1 #
cone-surface $-1 -12.5 12.5 0 0 0 1 2.5 0 0 1 0 1 0 #
straight-curve $-1 -4.33012701892219 2.5 0 0 -0 -1 #
point $-1 4.33012701892219 -2.5 12.5 #
loop $-1 $275 $276 $196 #
cone-surface $-1 0 0 0 0 -1 -3.49148133884313e-15 2.5 0 0 1 0 1 0 #
loop $-1 $277 $278 $147 #
coedge $-1 $238 $238 $279 $280 1 $200 $-1 #
coedge $-1 $281 $203 $282 $283 0 $22 $-1 #
coedge $-1 $284 $285 $203 $241 1 $286 $-1 #
edge $-1 $245 $287 $203 $288 0 #
coedge $-1 $289 $204 $207 $249 1 $244 $-1 #
coedge $-1 $204 $289 $284 $290 1 $244 $-1 #
loop $-1 $-1 $289 $291 #
vertex $-1 $205 $292 #
straight-curve $-1 -40 6.25 12.5 0 -1 0 #
coedge $-1 $293 $206 $294 $295 1 $208 $-1 #
coedge $-1 $207 $296 $297 $298 0 $208 $-1 #
edge $-1 $299 $209 $207 $300 0 #
face $-1 $291 $208 $2 $-1 $301 reversed single #
point $-1 -40 25 12.5 #
coedge $-1 $226 $294 $211 $253 0 $271 $-1 #
edge $-1 $254 $230 $252 $302 0 #
vertex $-1 $295 $303 #
straight-curve $-1 -12.5 25 0 0 0 -1 #
plane-surface $-1 -12.5 18.75 0 1 0 0 0 0 -1 0 #
coedge $-1 $215 $304 $305 $306 0 $22 $-1 #
coedge $-1 $307 $308 $215 $259 1 $309 $-1 #
edge $-1 $310 $261 $215 $311 0 #
coedge $-1 $312 $216 $308 $313 1 $219 $-1 #
vertex $-1 $259 $314 #
coedge $-1 $218 $312 $315 $316 1 $219 $-1 #
face $-1 $317 $219 $2 $-1 $318 reversed single #
point $-1 15 12.5 12.5 #
coedge $-1 $315 $226 $222 $266 0 $271 $-1 #
edge $-1 $228 $267 $265 $319 0 #
vertex $-1 $266 $320 #
straight-curve $-1 10 12.5 0 -0 -0 -1 #
loop $-1 $176 $321 $224 #
plane-surface $-1 0 12.5 0 0 1 0 0 0 1 0 #
loop $-1 $-1 $226 $317 #
ellipse-curve $-1 -12.5 12.5 -12.5 0 0 1 2.5 0 0 1 #
point $-1 -10 12.5 -12.5 #
point $-1 -12.5 15 -12.5 #
loop $-1 $-1 $322 $196 #
coedge $-1 $276 $276 $321 $323 1 $235 $-1 #
loop $-1 $-1 $324 $147 #
coedge $-1 $278 $278 $322 $325 1 $237 $-1 #
coedge $-1 $279 $279 $238 $280 0 $326 $-1 #
edge $-1 $327 $327 $279 $328 0 #
coedge $-1 $329 $239 $330 $331 0 $22 $-1 #
coedge $-1 $332 $333 $239 $283 1 $334 $-1 #
edge $-1 $287 $335 $239 $336 0 #
coedge $-1 $337 $240 $243 $290 0 $286 $-1 #
coedge $-1 $240 $338 $332 $339 1 $286 $-1 #
loop $-1 $-1 $337 $340 #
vertex $-1 $241 $341 #
straight-curve $-1 -22.5 0 12.5 1 0 -0 #
coedge $-1 $243 $242 $342 $343 0 $244 $-1 #
edge $-1 $245 $344 $284 $345 0 #
face $-1 $346 $244 $2 $-1 $347 forward single #
point $-1 -40 0 12.5 #
coedge $-1 $348 $247 $349 $350 1 $208 $-1 #
coedge $-1 $252 $351 $247 $295 0 $271 $-1 #
edge $-1 $352 $254 $247 $353 0 #
coedge $-1 $248 $354 $355 $356 0 $208 $-1 #
coedge $-1 $355 $342 $248 $298 1 $357 $-1 #
edge $-1 $358 $299 $248 $359 0 #
vertex $-1 $298 $360 #
straight-curve $-1 -40 25 3.125 0 0 1 #
plane-surface $-1 0 25 0 0 -1 0 0 0 -1 0 #
straight-curve $-1 -12.5 9.375 -12.5 0 -1 0 #
point $-1 -12.5 25 -12.5 #
coedge $-1 $257 $361 $362 $363 0 $22 $-1 #
coedge $-1 $364 $365 $257 $306 1 $366 $-1 #
edge $-1 $367 $310 $305 $210 0 #
coedge $-1 $368 $258 $365 $369 1 $309 $-1 #
coedge $-1 $258 $368 $260 $313 0 $309 $-1 #
loop $-1 $-1 $308 $370 #
vertex $-1 $306 $371 #
straight-curve $-1 12.5 9.375 12.5 0 -1 0 #
coedge $-1 $262 $260 $372 $373 1 $219 $-1 #
edge $-1 $374 $261 $308 $375 0 #
point $-1 12.5 15 12.5 #
coedge $-1 $372 $265 $262 $316 0 $271 $-1 #
edge $-1 $267 $376 $315 $377 0 #
face $-1 $370 $378 $2 $-1 $379 reversed single #
cone-surface $-1 12.5 12.5 0 0 0 1 2.5 0 0 1 0 1 0 #
straight-curve $-1 0 12.5 -12.5 1 0 0 #
point $-1 10 12.5 -12.5 #
coedge $-1 $321 $321 $276 $323 0 $269 $-1 #
coedge $-1 $322 $322 $278 $325 0 $275 $-1 #
edge $-1 $380 $380 $321 $381 0 #
coedge $-1 $324 $324 $382 $383 1 $277 $-1 #
edge $-1 $384 $384 $322 $385 0 #
loop $-1 $386 $279 $387 #
vertex $-1 $280 $388 #
intcurve-curve $-1 0 { surfintcur nubs 3 periodic 33 
	0 3 0.481144001101835 2 0.96228800220367 2 1.4434320033055 2 1.92457600440734 2 
	2.40440838356493 2 2.88424076272251 2 3.3640731418801 2 3.84390552103768 2 4.32373790019527 2 
	4.80357027935285 2 5.28340265851044 2 5.76323503766803 2 6.24437903876987 2 6.72552303987171 2 
	7.20666704097356 2 7.6878110420754 2 8.16895504317724 2 8.65009904427908 2 9.13124304538093 2 
	9.61238704648277 2 10.0922194256403 2 10.5720518047979 2 11.0518841839555 2 11.5317165631131 2 
	12.0115489422707 2 12.4913813214283 2 12.9712137005858 2 13.4510460797434 2 13.9321900808453 2 
	14.4133340819471 2 14.894478083049 2 15.3756220841508 3 
	2.5 -4.33012701892219 -1.51185576813873e-14 
	2.5 -4.33012701892219 -0.160381333700627 
	2.48432427213263 -4.33929860157679 -0.325048322818159 
	2.41958766094199 -4.3757256527009 -0.650476024724436 
	2.37055341447907 -4.40292020019968 -0.811248852061054 
	2.24223232105341 -4.46963342083436 -1.11805354986672 
	2.1628432961407 -4.50911901986659 -1.2643831327677 
	1.98040421788999 -4.59217209939108 -1.53445591896048 
	1.87732826164699 -4.63566145116975 -1.65820564428576 
	1.65850431374103 -4.71836912932183 -1.87702959219172 
	1.53490261327584 -4.7606584107697 -1.98006286024377 
	1.2647692524622 -4.83943728897178 -2.16262195086547 
	1.11822959364501 -4.87586655716818 -2.2421619660268 
	0.810984990363109 -4.93627546630715 -2.37066049845749 
	0.649987126190965 -4.96026824556004 -2.41972168102792 
	0.324469833432869 -4.99214018827348 -2.48440246440733 
	0.159944126385879 -5 -2.50000000000002 
	-0.159944126385844 -5 -2.50000000000002 
	-0.324469833432833 -4.99214018827349 -2.48440246440734 
	-0.64998712619093 -4.96026824556004 -2.41972168102792 
	-0.810984990363075 -4.93627546630715 -2.3706604984575 
	-1.11822959364498 -4.87586655716818 -2.24216196602682 
	-1.26476925246217 -4.83943728897179 -2.16262195086549 
	-1.53490261327581 -4.76065841076971 -1.98006286024379 
	-1.65850431374101 -4.71836912932184 -1.87702959219175 
	-1.87732826164697 -4.63566145116976 -1.65820564428578 
	-1.98040421788997 -4.59217209939108 -1.5344559189605 
	-2.16284329614069 -4.5091190198666 -1.26438313276772 
	-2.2422323210534 -4.46963342083436 -1.11805354986674 
	-2.37055341447906 -4.40292020019968 -0.811248852061067 
	-2.41958766094199 -4.3757256527009 -0.650476024724447 
	-2.48432427213263 -4.33929860157679 -0.325048322818164 
	-2.5 -4.33012701892219 -0.16038133370063 
	-2.5 -4.33012701892219 0.160381333700598 
	-2.48432427213263 -4.33929860157679 0.325048322818132 
	-2.41958766094199 -4.3757256527009 0.650476024724414 
	-2.37055341447906 -4.40292020019968 0.811248852061034 
	-2.2422323210534 -4.46963342083436 1.1180535498667 
	-2.16284329614069 -4.5091190198666 1.26438313276768 
	-1.98040421788998 -4.59217209939108 1.53445591896047 
	-1.87732826164698 -4.63566145116976 1.65820564428574 
	-1.65850431374101 -4.71836912932184 1.87702959219171 
	-1.53490261327582 -4.76065841076971 1.98006286024375 
	-1.26476925246218 -4.83943728897179 2.16262195086545 
	-1.11822959364499 -4.87586655716818 2.24216196602678 
	-0.810984990363087 -4.93627546630715 2.37066049845746 
	-0.649987126190944 -4.96026824556004 2.41972168102789 
	-0.324469833432849 -4.99214018827349 2.4844024644073 
	-0.159944126385861 -5 2.49999999999998 
	0.159944126385861 -5 2.49999999999998 
	0.32446983343285 -4.99214018827349 2.4844024644073 
	0.649987126190944 -4.96026824556004 2.41972168102789 
	0.810984990363087 -4.93627546630715 2.37066049845746 
	1.11822959364499 -4.87586655716818 2.24216196602678 
	1.26476925246218 -4.83943728897179 2.16262195086545 
	1.53490261327582 -4.76065841076971 1.98006286024375 
	1.65850431374101 -4.71836912932184 1.87702959219171 
	1.87732826164698 -4.63566145116976 1.65820564428574 
	1.98040421788998 -4.59217209939108 1.53445591896047 
	2.16284329614069 -4.5091190198666 1.26438313276768 
	2.2422323210534 -4.46963342083436 1.1180535498667 
	2.37055341447906 -4.40292020019968 0.811248852061034 
	2.41958766094199 -4.3757256527009 0.650476024724414 
	2.48432427213263 -4.33929860157679 0.325048322818133 
	2.5 -4.33012701892219 0.160381333700599 
	2.5 -4.33012701892219 -1.51185576813873e-14 
	0.001 
	cone 0 0 0 0 -1 -3.49148133884313e-15 2.5 0 0 1 -0 -1 0 
	cone 0 0 0 0 0 1 5 0 0 1 -0 -1 0 
	nullbs 
	nullbs 
	} #
coedge $-1 $389 $281 $390 $391 0 $22 $-1 #
coedge $-1 $392 $393 $281 $331 1 $394 $-1 #
edge $-1 $335 $395 $330 $396 0 #
coedge $-1 $397 $282 $285 $339 0 $334 $-1 #
coedge $-1 $282 $397 $392 $398 1 $334 $-1 #
loop $-1 $-1 $333 $399 #
vertex $-1 $398 $400 #
straight-curve $-1 -27.5 -6.25 12.5 0 -1 0 #
coedge $-1 $401 $284 $402 $403 0 $286 $-1 #
coedge $-1 $285 $404 $405 $406 1 $286 $-1 #
edge $-1 $287 $407 $332 $408 0 #
face $-1 $409 $286 $2 $-1 $410 forward single #
point $-1 -27.5 0 12.5 #
coedge $-1 $297 $402 $289 $343 1 $357 $-1 #
edge $-1 $299 $344 $289 $411 0 #
vertex $-1 $290 $412 #
straight-curve $-1 -40 0 3.125 -0 -0 -1 #
face $-1 $413 $414 $2 $-1 $13 forward single #
plane-surface $-1 -40 12.5 6.25 -1 0 0 0 0 1 0 #
coedge $-1 $415 $293 $416 $417 1 $208 $-1 #
coedge $-1 $418 $419 $293 $350 0 $420 $-1 #
edge $-1 $421 $352 $293 $422 0 #
coedge $-1 $294 $405 $418 $423 0 $271 $-1 #
vertex $-1 $295 $424 #
straight-curve $-1 0 25 -12.5 1 0 0 #
coedge $-1 $296 $425 $426 $427 0 $208 $-1 #
coedge $-1 $428 $297 $296 $356 1 $357 $-1 #
edge $-1 $429 $358 $296 $359 0 #
loop $-1 $-1 $342 $430 #
vertex $-1 $356 $431 #
ellipse-curve $-1 -40 25 8.72870334710783e-14 0 -1 0 2.5 0 0 1 #
point $-1 -40 25 2.50000000000009 #
coedge $-1 $304 $432 $433 $434 0 $22 $-1 #
coedge $-1 $435 $436 $304 $363 1 $437 $-1 #
edge $-1 $438 $367 $304 $439 0 #
coedge $-1 $440 $305 $436 $441 0 $366 $-1 #
coedge $-1 $305 $442 $307 $369 0 $366 $-1 #
loop $-1 $-1 $440 $443 #
vertex $-1 $441 $444 #
coedge $-1 $308 $307 $445 $446 1 $309 $-1 #
edge $-1 $447 $310 $365 $448 0 #
face $-1 $387 $309 $2 $-1 $449 forward single #
point $-1 12.5 25 12.5 #
coedge $-1 $445 $315 $312 $373 0 $271 $-1 #
edge $-1 $376 $374 $372 $377 0 #
vertex $-1 $313 $450 #
straight-curve $-1 12.5 15 0 0 0 1 #
vertex $-1 $373 $451 #
ellipse-curve $-1 12.5 12.5 -12.5 0 0 1 2.5 0 0 1 #
loop $-1 $271 $382 $317 #
plane-surface $-1 0 0 -12.5 0 0 1 1 0 0 0 #
vertex $-1 $323 $452 #
ellipse-curve $-1 0 12.5 4.36435167355392e-14 -0 -1 -0 2.5 0 0 1 #
coedge $-1 $382 $382 $324 $383 0 $378 $-1 #
edge $-1 $453 $453 $382 $454 0 #
vertex $-1 $325 $455 #
intcurve-curve $-1 0 { surfintcur nubs 3 periodic 33 
	0 3 0.481144001101842 2 0.962288002203684 2 1.44343200330553 2 1.92457600440737 2 
	2.40440838356495 2 2.88424076272253 2 3.36407314188012 2 3.8439055210377 2 4.32373790019528 2 
	4.80357027935287 2 5.28340265851045 2 5.76323503766804 2 6.24437903876988 2 6.72552303987172 2 
	7.20666704097356 2 7.6878110420754 2 8.16895504317725 2 8.65009904427909 2 9.13124304538093 2 
	9.61238704648278 2 10.0922194256404 2 10.5720518047979 2 11.0518841839555 2 11.5317165631131 2 
	12.0115489422707 2 12.4913813214283 2 12.9712137005859 2 13.4510460797435 2 13.9321900808453 2 
	14.4133340819471 2 14.894478083049 2 15.3756220841508 3 
	2.5 4.33012701892219 1.51185576813873e-14 
	2.5 4.33012701892219 0.160381333700629 
	2.48432427213263 4.33929860157679 0.325048322818163 
	2.41958766094199 4.3757256527009 0.650476024724445 
	2.37055341447906 4.40292020019968 0.811248852061064 
	2.2422323210534 4.46963342083436 1.11805354986673 
	2.16284329614069 4.5091190198666 1.26438313276771 
	1.98040421788998 4.59217209939108 1.5344559189605 
	1.87732826164698 4.63566145116976 1.65820564428578 
	1.65850431374101 4.71836912932184 1.87702959219174 
	1.53490261327582 4.76065841076971 1.98006286024378 
	1.26476925246218 4.83943728897179 2.16262195086548 
	1.11822959364499 4.87586655716818 2.24216196602681 
	0.810984990363088 4.93627546630715 2.37066049845749 
	0.649987126190945 4.96026824556004 2.41972168102792 
	0.32446983343285 4.99214018827349 2.48440246440734 
	0.159944126385861 5 2.50000000000002 
	-0.159944126385861 5 2.50000000000002 
	-0.324469833432849 4.99214018827349 2.48440246440734 
	-0.649987126190944 4.96026824556004 2.41972168102792 
	-0.810984990363088 4.93627546630715 2.37066049845749 
	-1.11822959364499 4.87586655716818 2.24216196602681 
	-1.26476925246218 4.83943728897179 2.16262195086548 
	-1.53490261327582 4.76065841076971 1.98006286024378 
	-1.65850431374101 4.71836912932184 1.87702959219174 
	-1.87732826164698 4.63566145116976 1.65820564428578 
	-1.98040421788998 4.59217209939108 1.5344559189605 
	-2.16284329614069 4.5091190198666 1.26438313276771 
	-2.2422323210534 4.46963342083436 1.11805354986673 
	-2.37055341447906 4.40292020019968 0.811248852061064 
	-2.41958766094199 4.3757256527009 0.650476024724445 
	-2.48432427213263 4.33929860157679 0.325048322818163 
	-2.5 4.33012701892219 0.160381333700629 
	-2.5 4.33012701892219 -0.160381333700599 
	-2.48432427213263 4.33929860157679 -0.325048322818134 
	-2.41958766094199 4.3757256527009 -0.650476024724416 
	-2.37055341447906 4.40292020019968 -0.811248852061036 
	-2.2422323210534 4.46963342083436 -1.11805354986671 
	-2.16284329614069 4.5091190198666 -1.26438313276769 
	-1.98040421788997 4.59217209939108 -1.53445591896047 
	-1.87732826164697 4.63566145116976 -1.65820564428575 
	-1.65850431374101 4.71836912932184 -1.87702959219171 
	-1.53490261327581 4.76065841076971 -1.98006286024376 
	-1.26476925246217 4.83943728897179 -2.16262195086545 
	-1.11822959364498 4.87586655716818 -2.24216196602678 
	-0.810984990363075 4.93627546630715 -2.37066049845746 
	-0.64998712619093 4.96026824556004 -2.41972168102789 
	-0.324469833432833 4.99214018827349 -2.4844024644073 
	-0.159944126385845 5 -2.49999999999998 
	0.159944126385879 5 -2.49999999999998 
	0.324469833432868 4.99214018827349 -2.4844024644073 
	0.649987126190964 4.96026824556004 -2.41972168102788 
	0.810984990363108 4.93627546630715 -2.37066049845745 
	1.11822959364501 4.87586655716818 -2.24216196602677 
	1.2647692524622 4.83943728897178 -2.16262195086543 
	1.53490261327584 4.7606584107697 -1.98006286024373 
	1.65850431374103 4.71836912932183 -1.87702959219169 
	1.87732826164699 4.63566145116975 -1.65820564428573 
	1.98040421788999 4.59217209939108 -1.53445591896045 
	2.1628432961407 4.50911901986659 -1.26438313276767 
	2.24223232105341 4.46963342083436 -1.11805354986669 
	2.37055341447907 4.40292020019968 -0.811248852061023 
	2.41958766094199 4.3757256527009 -0.650476024724404 
	2.48432427213263 4.33929860157679 -0.325048322818128 
	2.5 4.33012701892219 -0.160381333700596 
	2.5 4.33012701892219 1.51185576813873e-14 
	0.001 
	cone 0 0 0 0 -1 -3.49148133884313e-15 2.5 0 0 1 -0 -1 0 
	cone 0 0 0 0 0 1 5 0 0 1 -0 -1 0 
	nullbs 
	nullbs 
	} #
loop $-1 $-1 $456 $387 #
face $-1 $430 $326 $2 $-1 $236 reversed single #
point $-1 2.5 -4.33012701892219 -1.51185576813873e-14 #
coedge $-1 $457 $329 $458 $459 0 $22 $-1 #
coedge $-1 $460 $461 $329 $391 1 $462 $-1 #
edge $-1 $395 $463 $329 $464 0 #
coedge $-1 $465 $330 $333 $398 0 $394 $-1 #
coedge $-1 $330 $466 $460 $467 0 $394 $-1 #
loop $-1 $-1 $393 $468 #
vertex $-1 $331 $469 #
straight-curve $-1 0 -25 12.5 1 0 0 #
coedge $-1 $333 $332 $470 $471 1 $334 $-1 #
edge $-1 $335 $472 $392 $473 0 #
face $-1 $474 $334 $2 $-1 $475 forward single #
point $-1 -27.5 -25 12.5 #
coedge $-1 $476 $337 $477 $478 0 $286 $-1 #
coedge $-1 $342 $428 $337 $403 1 $357 $-1 #
edge $-1 $344 $479 $337 $480 0 #
coedge $-1 $338 $481 $482 $483 1 $286 $-1 #
coedge $-1 $351 $470 $338 $406 0 $271 $-1 #
edge $-1 $407 $484 $405 $485 0 #
vertex $-1 $406 $486 #
straight-curve $-1 -27.5 0 0 0 0 -1 #
face $-1 $487 $488 $2 $-1 $489 forward single #
plane-surface $-1 -45 0 0 0 -1 0 0 0 -1 0 #
straight-curve $-1 -40 -8.47596519962462e-15 2.5 0 -1 -3.49148133884313e-15 #
point $-1 -40 0 2.5 #
face $-1 $490 $491 $2 $-1 $492 forward single #
loop $-1 $-1 $493 $346 #
coedge $-1 $425 $348 $494 $495 0 $208 $-1 #
coedge $-1 $496 $493 $348 $417 0 $414 $-1 #
edge $-1 $497 $421 $348 $210 0 #
coedge $-1 $482 $349 $351 $423 1 $420 $-1 #
coedge $-1 $349 $482 $496 $498 1 $420 $-1 #
loop $-1 $-1 $482 $499 #
vertex $-1 $417 $500 #
straight-curve $-1 -62.5 25 0 0 0 -1 #
edge $-1 $484 $352 $418 $501 0 #
point $-1 -62.5 25 -12.5 #
coedge $-1 $354 $415 $502 $503 0 $208 $-1 #
coedge $-1 $504 $505 $354 $427 1 $488 $-1 #
edge $-1 $506 $429 $354 $507 0 #
coedge $-1 $402 $355 $505 $508 1 $357 $-1 #
vertex $-1 $427 $509 #
face $-1 $340 $357 $2 $-1 $510 reversed single #
point $-1 -37.5 25 8.72870334710783e-14 #
coedge $-1 $361 $511 $512 $513 0 $22 $-1 #
coedge $-1 $514 $515 $361 $434 1 $516 $-1 #
edge $-1 $517 $438 $361 $518 0 #
coedge $-1 $519 $362 $515 $520 1 $437 $-1 #
coedge $-1 $362 $519 $364 $441 1 $437 $-1 #
loop $-1 $-1 $519 $521 #
vertex $-1 $434 $522 #
straight-curve $-1 40 6.25 12.5 0 1 0 #
coedge $-1 $523 $364 $524 $525 0 $366 $-1 #
edge $-1 $367 $526 $364 $527 0 #
coedge $-1 $365 $528 $529 $530 1 $366 $-1 #
face $-1 $531 $366 $2 $-1 $301 reversed single #
point $-1 40 25 12.5 #
coedge $-1 $529 $372 $368 $446 0 $271 $-1 #
edge $-1 $374 $447 $445 $532 0 #
vertex $-1 $446 $533 #
straight-curve $-1 12.5 25 0 0 0 1 #
plane-surface $-1 12.5 18.75 0 -1 0 0 0 0 1 0 #
point $-1 12.5 15 -12.5 #
point $-1 15 12.5 -12.5 #
point $-1 -2.5 12.5 6.11009234297548e-14 #
vertex $-1 $383 $534 #
ellipse-curve $-1 0 0 -12.5 0 0 1 5 0 0 1 #
point $-1 2.5 4.33012701892219 1.51185576813873e-14 #
coedge $-1 $456 $456 $535 $536 1 $386 $-1 #
coedge $-1 $511 $389 $537 $538 0 $22 $-1 #
coedge $-1 $539 $540 $389 $459 1 $541 $-1 #
edge $-1 $463 $542 $389 $543 0 #
coedge $-1 $544 $390 $393 $467 1 $462 $-1 #
coedge $-1 $390 $544 $539 $545 1 $462 $-1 #
loop $-1 $-1 $544 $546 #
vertex $-1 $391 $547 #
straight-curve $-1 -20 -9.375 12.5 0 1 0 #
coedge $-1 $548 $392 $549 $550 1 $394 $-1 #
coedge $-1 $393 $551 $552 $553 0 $394 $-1 #
edge $-1 $554 $395 $393 $555 0 #
face $-1 $556 $394 $2 $-1 $557 reversed single #
point $-1 -20 -25 12.5 #
coedge $-1 $405 $549 $397 $471 0 $271 $-1 #
edge $-1 $472 $407 $470 $558 0 #
vertex $-1 $550 $559 #
straight-curve $-1 -27.5 -25 0 -0 0 -1 #
face $-1 $468 $560 $2 $-1 $13 forward single #
plane-surface $-1 -27.5 -12.5 0 -1 0 0 0 0 1 0 #
coedge $-1 $561 $401 $562 $563 0 $286 $-1 #
coedge $-1 $505 $504 $401 $478 1 $488 $-1 #
edge $-1 $479 $564 $401 $565 0 #
vertex $-1 $508 $566 #
ellipse-curve $-1 -40 0 0 -0 1 -0 2.5 0 0 1 #
coedge $-1 $404 $561 $567 $568 1 $286 $-1 #
coedge $-1 $419 $418 $404 $483 0 $420 $-1 #
edge $-1 $484 $569 $482 $570 0 #
vertex $-1 $406 $571 #
straight-curve $-1 -22.5 0 -12.5 -1 0 0 #
point $-1 -27.5 0 -12.5 #
face $-1 $521 $572 $2 $-1 $573 reversed single #
loop $-1 $-1 $505 $409 #
plane-surface $-1 -47.5 12.5 0 0 0 1 1 0 0 0 #
face $-1 $574 $575 $2 $-1 $576 forward single #
loop $-1 $-1 $577 $413 #
plane-surface $-1 47.5 12.5 0 0 0 1 1 0 0 0 #
coedge $-1 $416 $567 $578 $579 0 $414 $-1 #
coedge $-1 $578 $580 $415 $495 1 $581 $-1 #
edge $-1 $497 $582 $415 $583 0 #
coedge $-1 $567 $416 $419 $498 0 $414 $-1 #
vertex $-1 $495 $584 #
edge $-1 $421 $569 $419 $585 0 #
face $-1 $-1 $420 $2 $-1 $586 reversed single #
point $-1 -62.5 25 12.5 #
straight-curve $-1 -62.5 0 -12.5 0 1 0 #
coedge $-1 $587 $588 $425 $503 1 $589 $-1 #
edge $-1 $582 $506 $425 $590 0 #
coedge $-1 $477 $426 $588 $591 0 $488 $-1 #
coedge $-1 $426 $477 $428 $508 0 $488 $-1 #
vertex $-1 $503 $592 #
straight-curve $-1 -23.75 25 0 1 0 -0 #
edge $-1 $479 $429 $505 $593 0 #
point $-1 -42.5 25 0 #
cone-surface $-1 -40 0 0 0 -1 -3.49148133884313e-15 2.5 0 0 1 0 1 0 #
coedge $-1 $432 $457 $594 $595 0 $22 $-1 #
coedge $-1 $596 $597 $432 $513 1 $598 $-1 #
edge $-1 $599 $517 $432 $600 0 #
coedge $-1 $601 $433 $597 $602 0 $516 $-1 #
coedge $-1 $433 $603 $435 $520 0 $516 $-1 #
loop $-1 $-1 $603 $574 #
vertex $-1 $513 $604 #
straight-curve $-1 22.5 0 12.5 1 0 -0 #
coedge $-1 $436 $435 $605 $606 0 $437 $-1 #
edge $-1 $607 $438 $515 $608 0 #
face $-1 $609 $437 $2 $-1 $610 forward single #
point $-1 40 0 12.5 #
coedge $-1 $611 $440 $612 $613 0 $366 $-1 #
coedge $-1 $605 $614 $440 $525 1 $572 $-1 #
edge $-1 $526 $615 $440 $616 0 #
vertex $-1 $441 $617 #
straight-curve $-1 40 25 3.125 0 0 -1 #
coedge $-1 $442 $618 $619 $620 0 $366 $-1 #
coedge $-1 $621 $445 $442 $530 0 $271 $-1 #
edge $-1 $447 $622 $442 $353 0 #
face $-1 $623 $624 $2 $-1 $625 forward single #
straight-curve $-1 12.5 9.375 -12.5 0 1 -0 #
point $-1 12.5 25 -12.5 #
point $-1 5 0 -12.5 #
coedge $-1 $535 $535 $456 $536 0 $626 $-1 #
edge $-1 $627 $627 $535 $628 0 #
coedge $-1 $629 $630 $457 $538 1 $631 $-1 #
edge $-1 $542 $632 $457 $633 0 #
coedge $-1 $634 $458 $461 $545 0 $541 $-1 #
coedge $-1 $458 $635 $629 $636 1 $541 $-1 #
loop $-1 $-1 $634 $623 #
vertex $-1 $459 $637 #
straight-curve $-1 0 -12.5 12.5 1 0 -0 #
coedge $-1 $461 $460 $638 $639 1 $462 $-1 #
edge $-1 $463 $640 $539 $641 0 #
face $-1 $213 $462 $2 $-1 $642 forward single #
point $-1 -20 -12.5 12.5 #
coedge $-1 $594 $465 $596 $643 0 $394 $-1 #
coedge $-1 $470 $644 $465 $550 0 $271 $-1 #
edge $-1 $645 $472 $465 $646 0 #
coedge $-1 $466 $647 $648 $649 0 $394 $-1 #
coedge $-1 $650 $638 $466 $553 1 $624 $-1 #
edge $-1 $651 $554 $466 $652 0 #
vertex $-1 $467 $653 #
straight-curve $-1 -20 -25 1.875 -0 0 1 #
face $-1 $654 $598 $2 $-1 $655 forward single #
plane-surface $-1 0 -25 0 0 1 -0 -0 0 1 0 #
straight-curve $-1 -27.5 -6.25 -12.5 0 1 -0 #
point $-1 -27.5 -25 -12.5 #
loop $-1 $-1 $656 $474 #
coedge $-1 $481 $476 $657 $658 0 $286 $-1 #
coedge $-1 $588 $587 $476 $563 1 $589 $-1 #
edge $-1 $564 $659 $476 $660 0 #
vertex $-1 $478 $661 #
straight-curve $-1 -46.25 0 0 -1 0 0 #
point $-1 -42.5 0 0 #
coedge $-1 $493 $496 $481 $568 0 $414 $-1 #
edge $-1 $569 $662 $567 $288 0 #
vertex $-1 $498 $663 #
straight-curve $-1 -62.5 0 0 -0 0 1 #
point $-1 -62.5 0 -12.5 #
loop $-1 $-1 $614 $487 #
cone-surface $-1 40 0 0 0 -1 -3.49148133884313e-15 2.5 0 0 1 0 1 0 #
face $-1 $399 $516 $2 $-1 $664 forward single #
loop $-1 $-1 $665 $490 #
plane-surface $-1 55 12.5 6.25 -1 0 0 0 0 1 0 #
coedge $-1 $666 $612 $614 $667 0 $491 $-1 #
coedge $-1 $657 $494 $493 $579 1 $581 $-1 #
edge $-1 $662 $497 $493 $668 0 #
coedge $-1 $494 $657 $587 $669 0 $581 $-1 #
loop $-1 $-1 $580 $670 #
vertex $-1 $495 $671 #
straight-curve $-1 -55 25 3.125 0 0 -1 #
point $-1 -55 25 12.5 #
straight-curve $-1 -62.5 0 12.5 0 -1 0 #
plane-surface $-1 -62.5 0 0 1 0 0 0 0 -1 0 #
coedge $-1 $562 $502 $580 $669 1 $589 $-1 #
coedge $-1 $502 $562 $504 $591 1 $589 $-1 #
loop $-1 $-1 $588 $609 #
ellipse-curve $-1 -55 25 8.72870334710783e-14 0 -1 0 2.5 0 0 1 #
edge $-1 $506 $564 $504 $672 0 #
point $-1 -52.5 25 8.72870334710783e-14 #
straight-curve $-1 -42.5 -7.61902621218115e-29 0 -0 1 3.49148133884313e-15 #
coedge $-1 $673 $548 $511 $595 1 $394 $-1 #
edge $-1 $632 $599 $594 $396 0 #
coedge $-1 $674 $512 $548 $643 1 $598 $-1 #
coedge $-1 $512 $674 $514 $602 1 $598 $-1 #
loop $-1 $-1 $597 $556 #
vertex $-1 $595 $675 #
straight-curve $-1 27.5 -6.25 12.5 0 1 0 #
coedge $-1 $676 $514 $677 $678 1 $516 $-1 #
edge $-1 $517 $679 $514 $680 0 #
coedge $-1 $515 $681 $682 $683 0 $516 $-1 #
point $-1 27.5 0 12.5 #
coedge $-1 $682 $524 $519 $606 1 $572 $-1 #
edge $-1 $607 $526 $519 $684 0 #
vertex $-1 $606 $685 #
straight-curve $-1 40 0 3.125 -0 0 1 #
face $-1 $670 $589 $2 $-1 $686 reversed single #
plane-surface $-1 40 12.5 6.25 1 0 0 0 0 -1 0 #
coedge $-1 $687 $523 $688 $689 0 $366 $-1 #
coedge $-1 $577 $690 $523 $613 1 $491 $-1 #
edge $-1 $615 $691 $523 $692 0 #
coedge $-1 $524 $682 $577 $667 1 $572 $-1 #
vertex $-1 $525 $693 #
ellipse-curve $-1 40 25 8.72870334710783e-14 0 -1 0 2.5 0 0 1 #
point $-1 40 25 2.50000000000009 #
coedge $-1 $528 $694 $695 $696 1 $366 $-1 #
coedge $-1 $697 $698 $528 $620 1 $699 $-1 #
edge $-1 $700 $622 $619 $701 0 #
coedge $-1 $677 $529 $698 $702 0 $271 $-1 #
vertex $-1 $702 $703 #
face $-1 $704 $626 $2 $-1 $705 forward single #
loop $-1 $-1 $638 $531 #
cone-surface $-1 -15 -18.75 0 0 1 0 -3.53553390593274 0 -3.53553390593274 1 0 -1 0 #
loop $-1 $541 $535 $623 #
vertex $-1 $536 $706 #
ellipse-curve $-1 0 -12.5 -4.36435167355391e-14 -0 1 -0 2.5 0 0 1 #
coedge $-1 $707 $537 $540 $636 0 $631 $-1 #
coedge $-1 $537 $707 $673 $708 1 $631 $-1 #
loop $-1 $-1 $707 $709 #
vertex $-1 $708 $710 #
straight-curve $-1 20 -9.375 12.5 0 -1 0 #
coedge $-1 $711 $539 $712 $713 0 $541 $-1 #
coedge $-1 $540 $711 $714 $715 0 $541 $-1 #
edge $-1 $542 $716 $629 $717 0 #
point $-1 20 -12.5 12.5 #
coedge $-1 $552 $712 $544 $639 0 $624 $-1 #
edge $-1 $640 $554 $544 $718 0 #
vertex $-1 $545 $719 #
straight-curve $-1 -20 -12.5 3.75 0 0 -1 #
plane-surface $-1 -20 -18.75 3.75 1 0 0 0 0 -1 0 #
edge $-1 $645 $599 $548 $720 0 #
coedge $-1 $549 $677 $674 $721 0 $271 $-1 #
vertex $-1 $643 $722 #
straight-curve $-1 0 -25 -12.5 -1 0 0 #
coedge $-1 $551 $673 $723 $724 0 $394 $-1 #
coedge $-1 $725 $726 $551 $649 1 $727 $-1 #
edge $-1 $728 $651 $551 $729 0 #
coedge $-1 $712 $552 $726 $730 0 $624 $-1 #
vertex $-1 $649 $731 #
ellipse-curve $-1 -15 -25 0 0 1 -0 -3.53553390593274 0 -3.53553390593274 1 #
point $-1 -20 -25 0 #
face $-1 $499 $699 $2 $-1 $732 reversed single #
plane-surface $-1 27.5 -12.5 0 1 0 0 0 0 -1 0 #
coedge $-1 $733 $695 $734 $735 0 $560 $-1 #
coedge $-1 $580 $578 $561 $658 1 $581 $-1 #
edge $-1 $659 $662 $561 $736 0 #
vertex $-1 $669 $737 #
ellipse-curve $-1 -55 0 0 -0 1 -0 2.5 0 0 1 #
point $-1 -52.5 0 0 #
vertex $-1 $568 $738 #
point $-1 -62.5 0 12.5 #
plane-surface $-1 45 0 0 0 -1 0 0 0 -1 0 #
coedge $-1 $739 $740 $741 $742 0 $575 $-1 #
coedge $-1 $690 $577 $681 $743 1 $491 $-1 #
edge $-1 $615 $744 $577 $745 0 #
straight-curve $-1 -55 6.25 12.5 0 1 0 #
edge $-1 $659 $582 $580 $746 0 #
face $-1 $747 $581 $2 $-1 $748 forward single #
point $-1 -55 25 2.50000000000009 #
straight-curve $-1 -52.5 -7.61902621218115e-29 0 0 -1 -3.49148133884313e-15 #
coedge $-1 $647 $594 $630 $708 0 $394 $-1 #
coedge $-1 $597 $596 $644 $721 1 $598 $-1 #
point $-1 27.5 -25 12.5 #
coedge $-1 $749 $601 $750 $751 1 $516 $-1 #
coedge $-1 $644 $621 $601 $678 0 $271 $-1 #
edge $-1 $752 $679 $677 $753 0 #
vertex $-1 $721 $754 #
straight-curve $-1 27.5 0 0 0 0 -1 #
coedge $-1 $603 $755 $666 $743 0 $516 $-1 #
coedge $-1 $614 $605 $603 $683 1 $572 $-1 #
edge $-1 $744 $607 $603 $756 0 #
straight-curve $-1 40 -8.47596519962462e-15 2.5 -0 1 3.49148133884313e-15 #
point $-1 40 0 2.5 #
cone-surface $-1 -55 0 0 0 -1 -3.49148133884313e-15 2.5 0 0 1 0 1 0 #
coedge $-1 $694 $611 $757 $758 0 $366 $-1 #
coedge $-1 $759 $757 $611 $689 1 $760 $-1 #
edge $-1 $691 $761 $611 $762 0 #
coedge $-1 $612 $666 $759 $763 0 $491 $-1 #
vertex $-1 $613 $764 #
straight-curve $-1 23.75 25 0 1 0 -0 #
point $-1 42.5 25 8.72870334710783e-14 #
coedge $-1 $618 $687 $740 $765 0 $366 $-1 #
coedge $-1 $656 $766 $618 $696 0 $560 $-1 #
edge $-1 $700 $767 $618 $210 0 #
coedge $-1 $750 $619 $766 $768 1 $699 $-1 #
coedge $-1 $619 $750 $621 $702 1 $699 $-1 #
loop $-1 $-1 $750 $654 #
vertex $-1 $768 $769 #
straight-curve $-1 62.5 25 0 0 0 -1 #
edge $-1 $622 $752 $698 $770 0 #
point $-1 62.5 25 -12.5 #
face $-1 $771 $727 $2 $-1 $772 forward single #
plane-surface $-1 0 -12.5 3.75 0 -1 0 0 0 -1 0 #
point $-1 -2.5 -12.5 -6.11009234297548e-14 #
coedge $-1 $630 $629 $773 $774 1 $631 $-1 #
edge $-1 $632 $775 $673 $776 0 #
face $-1 $546 $631 $2 $-1 $777 forward single #
point $-1 20 -25 12.5 #
coedge $-1 $635 $634 $778 $779 0 $541 $-1 #
coedge $-1 $638 $650 $634 $713 1 $624 $-1 #
edge $-1 $640 $780 $634 $781 0 #
coedge $-1 $782 $773 $635 $715 1 $783 $-1 #
edge $-1 $784 $716 $635 $785 0 #
vertex $-1 $636 $786 #
straight-curve $-1 20 -12.5 3.75 0 0 -1 #
straight-curve $-1 -20 -18.75 0 -0 -1 -0 #
point $-1 -20 -12.5 0 #
straight-curve $-1 27.5 -25 0 -0 0 1 #
edge $-1 $679 $645 $644 $787 0 #
point $-1 27.5 -25 -12.5 #
coedge $-1 $773 $782 $647 $724 1 $783 $-1 #
edge $-1 $775 $728 $647 $788 0 #
coedge $-1 $778 $648 $782 $789 1 $727 $-1 #
coedge $-1 $648 $778 $650 $730 1 $727 $-1 #
loop $-1 $-1 $726 $704 #
vertex $-1 $649 $790 #
straight-curve $-1 0 -25 -5 -1 0 0 #
edge $-1 $651 $780 $726 $791 0 #
point $-1 -15 -25 -5 #
plane-surface $-1 62.5 0 0 -1 0 0 0 -0 1 0 #
coedge $-1 $766 $656 $749 $792 0 $560 $-1 #
coedge $-1 $740 $739 $656 $735 1 $575 $-1 #
edge $-1 $767 $793 $656 $794 0 #
straight-curve $-1 -55 0 3.125 -0 0 1 #
point $-1 -55 0 2.5 #
point $-1 -55 0 12.5 #
coedge $-1 $734 $665 $795 $796 1 $575 $-1 #
coedge $-1 $665 $734 $694 $765 1 $575 $-1 #
coedge $-1 $757 $797 $665 $742 1 $760 $-1 #
edge $-1 $798 $799 $665 $800 0 #
edge $-1 $801 $744 $681 $802 0 #
vertex $-1 $743 $803 #
straight-curve $-1 42.5 -7.61902621218115e-29 0 0 -1 -3.49148133884313e-15 #
straight-curve $-1 -55 -8.47596519962462e-15 2.5 -0 1 3.49148133884313e-15 #
face $-1 $443 $760 $2 $-1 $804 reversed single #
plane-surface $-1 -55 12.5 6.25 1 0 0 0 0 -1 0 #
coedge $-1 $795 $676 $733 $792 1 $516 $-1 #
coedge $-1 $698 $697 $676 $751 0 $699 $-1 #
edge $-1 $805 $752 $750 $806 0 #
vertex $-1 $702 $807 #
straight-curve $-1 22.5 0 -12.5 -1 0 0 #
point $-1 27.5 0 -12.5 #
coedge $-1 $681 $795 $797 $808 0 $516 $-1 #
ellipse-curve $-1 40 0 0 -0 1 -0 2.5 0 0 1 #
coedge $-1 $688 $741 $687 $758 1 $760 $-1 #
edge $-1 $761 $798 $687 $762 0 #
coedge $-1 $797 $688 $690 $763 1 $760 $-1 #
loop $-1 $-1 $759 $747 #
vertex $-1 $689 $809 #
ellipse-curve $-1 55 25 8.72870334710783e-14 0 -1 0 2.5 0 0 1 #
edge $-1 $801 $691 $690 $810 0 #
point $-1 52.5 25 0 #
edge $-1 $798 $767 $694 $811 0 #
coedge $-1 $695 $733 $697 $768 0 $560 $-1 #
vertex $-1 $696 $812 #
edge $-1 $805 $700 $697 $813 0 #
point $-1 62.5 25 12.5 #
straight-curve $-1 62.5 0 -12.5 0 -1 0 #
face $-1 $709 $783 $2 $-1 $814 forward single #
plane-surface $-1 0 -18.75 -5 0 0 1 1 0 0 0 #
coedge $-1 $714 $723 $707 $774 0 $783 $-1 #
edge $-1 $775 $716 $707 $815 0 #
vertex $-1 $708 $816 #
straight-curve $-1 20 -25 1.875 -0 0 -1 #
plane-surface $-1 20 -18.75 3.75 -1 0 0 0 0 1 0 #
coedge $-1 $726 $725 $711 $779 1 $727 $-1 #
edge $-1 $780 $784 $711 $817 0 #
vertex $-1 $730 $818 #
ellipse-curve $-1 -15 -12.5 0 0 -1 0 -3.53553390593274 0 -3.53553390593274 1 #
coedge $-1 $723 $714 $725 $789 0 $783 $-1 #
loop $-1 $-1 $773 $771 #
vertex $-1 $779 $819 #
ellipse-curve $-1 15 -12.5 0 0 -1 0 3.53553390593274 0 -3.53553390593274 1 #
point $-1 20 -12.5 0 #
straight-curve $-1 27.5 -6.25 -12.5 0 -1 0 #
ellipse-curve $-1 15 -25 0 0 1 -0 3.53553390593274 0 -3.53553390593274 1 #
edge $-1 $784 $728 $725 $820 0 #
point $-1 15 -25 -5 #
straight-curve $-1 -15 -18.75 -5 0 1 0 #
edge $-1 $793 $805 $733 $518 0 #
vertex $-1 $735 $821 #
straight-curve $-1 55 6.25 12.5 0 -1 0 #
coedge $-1 $755 $749 $739 $796 0 $516 $-1 #
edge $-1 $793 $799 $795 $822 0 #
coedge $-1 $741 $759 $755 $808 1 $760 $-1 #
vertex $-1 $742 $823 #
vertex $-1 $796 $824 #
straight-curve $-1 55 -8.47596519962462e-15 2.5 0 -1 -3.49148133884313e-15 #
vertex $-1 $808 $825 #
straight-curve $-1 46.25 0 0 -1 0 0 #
point $-1 42.5 0 0 #
cone-surface $-1 55 0 0 0 -1 -3.49148133884313e-15 2.5 0 0 1 0 1 0 #
vertex $-1 $751 $826 #
straight-curve $-1 62.5 0 0 -0 -0 -1 #
point $-1 62.5 0 -12.5 #
edge $-1 $799 $801 $755 $827 0 #
point $-1 57.5 25 8.72870334710783e-14 #
straight-curve $-1 52.5 -7.61902621218115e-29 0 -0 1 3.49148133884313e-15 #
straight-curve $-1 55 25 3.125 0 0 1 #
point $-1 55 25 12.5 #
straight-curve $-1 62.5 0 12.5 0 1 0 #
cone-surface $-1 15 -18.75 0 0 -1 -0 3.53553390593274 0 -3.53553390593274 1 0 -1 0 #
straight-curve $-1 20 -18.75 0 0 1 0 #
point $-1 20 -25 0 #
straight-curve $-1 0 -12.5 -5 1 0 0 #
point $-1 -15 -12.5 -5 #
point $-1 15 -12.5 -5 #
straight-curve $-1 15 -18.75 -5 0 -1 0 #
point $-1 55 0 12.5 #
straight-curve $-1 55 0 3.125 -0 -0 -1 #
point $-1 55 25 2.50000000000009 #
point $-1 55 0 2.5 #
point $-1 52.5 0 0 #
point $-1 62.5 0 12.5 #
ellipse-curve $-1 55 0 0 -0 1 -0 2.5 0 0 1 #
