600 0 1 0           
91 GICL ACIS Healer - Source: /gicl/data5/repository/UMD/bracket1-Part/bracket1-Part.sat - 6 0 18 ACIS 6.0.3 Solaris 24 Sun Apr 14 00:36:05 2002 
1 9.999999999999999547e-07 1.000000000000000036e-10 
body $-1 $1 $-1 $-1 #
lump $-1 $-1 $2 $0 #
shell $-1 $-1 $-1 $3 $-1 $1 #
face $-1 $4 $5 $2 $-1 $6 reversed single #
face $-1 $7 $8 $2 $-1 $9 reversed single #
loop $-1 $-1 $10 $3 #
cone-surface $-1 -17.5 0 10 0 0 1 2.5 0 0 1 I I 0 1 2.5 forward I I I I #
face $-1 $11 $12 $2 $-1 $13 forward single #
loop $-1 $-1 $14 $4 #
cone-surface $-1 17.5 0 10 0 0 1 2.5 0 0 1 I I 0 1 2.5 forward I I I I #
coedge $-1 $15 $16 $17 $18 reversed $5 $-1 #
face $-1 $19 $20 $2 $-1 $21 forward single #
loop $-1 $22 $23 $7 #
plane-surface $-1 0 0 12.5 0 0 1 1 0 0 forward_v I I I I #
coedge $-1 $24 $25 $26 $27 reversed $8 $-1 #
coedge $-1 $28 $10 $29 $30 forward $5 $-1 #
coedge $-1 $10 $28 $23 $31 reversed $5 $-1 #
coedge $-1 $32 $33 $10 $18 forward $34 $-1 #
edge $-1 $35 -2.5 $36 2.5 $17 $37 reversed 7 unknown #
face $-1 $38 $34 $2 $-1 $39 forward single #
loop $-1 $-1 $40 $11 #
plane-surface $-1 0 0 7.5 0 0 1 1 0 0 forward_v I I I I #
loop $-1 $-1 $41 $7 #
coedge $-1 $42 $43 $16 $31 forward $12 $-1 #
coedge $-1 $44 $14 $45 $46 forward $8 $-1 #
coedge $-1 $14 $47 $48 $49 reversed $8 $-1 #
coedge $-1 $50 $51 $14 $27 forward $52 $-1 #
edge $-1 $53 -2.5 $54 2.5 $26 $55 reversed 7 unknown #
coedge $-1 $16 $15 $56 $57 forward $5 $-1 #
coedge $-1 $58 $59 $15 $30 reversed $60 $-1 #
edge $-1 $35 1.570796326794896558 $61 4.712388980384689674 $29 $62 forward 7 unknown #
edge $-1 $36 1.570796326794896558 $63 4.712388980384689674 $23 $64 forward 7 unknown #
coedge $-1 $65 $17 $43 $66 reversed $34 $-1 #
coedge $-1 $17 $65 $58 $67 forward $34 $-1 #
loop $-1 $-1 $65 $19 #
vertex $-1 $67 $68 #
vertex $-1 $66 $69 #
straight-curve $-1 -17.5 -2.5 10 0 0 -1 I I #
face $-1 $70 $71 $2 $-1 $39 forward single #
plane-surface $-1 0 -2.5 10 0 1 0 0 0 1 forward_v I I I I #
coedge $-1 $72 $45 $51 $73 reversed $20 $-1 #
coedge $-1 $74 $75 $76 $77 forward $22 $-1 #
coedge $-1 $78 $23 $79 $80 forward $12 $-1 #
coedge $-1 $23 $81 $32 $66 forward $12 $-1 #
coedge $-1 $82 $24 $83 $84 forward $8 $-1 #
coedge $-1 $40 $83 $24 $46 reversed $20 $-1 #
edge $-1 $53 -1.570796326794896558 $85 0 $45 $86 forward 7 unknown #
coedge $-1 $25 $82 $87 $88 reversed $8 $-1 #
coedge $-1 $87 $89 $25 $49 forward $12 $-1 #
edge $-1 $54 -1.570796326794896558 $90 0 $48 $91 forward 7 unknown #
coedge $-1 $92 $26 $89 $93 reversed $52 $-1 #
coedge $-1 $26 $92 $40 $73 forward $52 $-1 #
loop $-1 $-1 $92 $94 #
vertex $-1 $73 $95 #
vertex $-1 $93 $96 #
straight-curve $-1 17.5 2.5 10 0 0 -1 I I #
coedge $-1 $97 $79 $28 $57 reversed $98 $-1 #
edge $-1 $61 -2.5 $63 2.5 $56 $99 reversed 7 unknown #
coedge $-1 $100 $29 $33 $67 reversed $60 $-1 #
coedge $-1 $29 $100 $97 $101 reversed $60 $-1 #
loop $-1 $-1 $58 $102 #
vertex $-1 $101 $103 #
ellipse-curve $-1 -17.5 0 7.5 0 0 -1 2.5 0 0 1 I I #
vertex $-1 $31 $104 #
ellipse-curve $-1 -17.5 0 12.5 -0 -0 -1 2.5 0 0 1 I I #
coedge $-1 $33 $32 $105 $106 reversed $34 $-1 #
edge $-1 $107 4.330127018922190096 $36 17.5 $43 $108 forward 7 unknown #
edge $-1 $109 4.330127018922190096 $35 17.5 $33 $110 forward 7 unknown #
point $-1 -17.5 -2.5 7.5 #
point $-1 -17.5 -2.5 12.5 #
face $-1 $102 $98 $2 $-1 $111 forward single #
loop $-1 $-1 $112 $38 #
coedge $-1 $113 $40 $114 $115 reversed $20 $-1 #
edge $-1 $116 4.330127018922190096 $53 17.5 $51 $117 forward 7 unknown #
coedge $-1 $118 $41 $119 $120 forward $22 $-1 #
coedge $-1 $41 $121 $122 $123 forward $22 $-1 #
coedge $-1 $124 $125 $41 $77 reversed $126 $-1 #
edge $-1 $127 0 $128 4.712388980384689674 $41 $129 forward 7 unknown #
coedge $-1 $89 $42 $130 $131 forward $12 $-1 #
coedge $-1 $56 $132 $42 $80 reversed $98 $-1 #
edge $-1 $63 -17.5 $133 -4.330127018922190096 $42 $134 forward 7 unknown #
coedge $-1 $43 $135 $136 $137 forward $12 $-1 #
coedge $-1 $47 $44 $138 $139 forward $8 $-1 #
coedge $-1 $45 $113 $44 $84 reversed $20 $-1 #
edge $-1 $85 0 $140 1.570796326794896558 $83 $86 forward 7 unknown #
vertex $-1 $46 $141 #
ellipse-curve $-1 17.5 0 7.5 0 0 -1 2.5 0 0 1 I I #
coedge $-1 $135 $48 $47 $88 forward $12 $-1 #
edge $-1 $90 0 $142 1.570796326794896558 $87 $91 forward 7 unknown #
coedge $-1 $48 $78 $50 $93 forward $12 $-1 #
vertex $-1 $49 $143 #
ellipse-curve $-1 17.5 0 12.5 -0 -0 -1 2.5 0 0 1 I I #
coedge $-1 $51 $50 $144 $145 reversed $52 $-1 #
edge $-1 $146 4.330127018922190096 $54 17.5 $89 $134 forward 7 unknown #
face $-1 $147 $52 $2 $-1 $111 forward single #
point $-1 17.5 2.5 7.5 #
point $-1 17.5 2.5 12.5 #
coedge $-1 $132 $56 $59 $101 forward $98 $-1 #
loop $-1 $-1 $132 $70 #
straight-curve $-1 -17.5 2.5 10 0 0 -1 I I #
coedge $-1 $59 $58 $148 $149 reversed $60 $-1 #
edge $-1 $61 -17.5 $150 -4.330127018922190096 $97 $117 forward 7 unknown #
face $-1 $94 $60 $2 $-1 $21 forward single #
point $-1 -17.5 2.5 7.5 #
point $-1 -17.5 2.5 12.5 #
coedge $-1 $136 $148 $65 $106 forward $151 $-1 #
edge $-1 $109 7.5 $107 12.5 $105 $152 forward 7 unknown #
vertex $-1 $137 $153 #
straight-curve $-1 0 -2.5 12.5 -1 0 0 I I #
vertex $-1 $149 $154 #
straight-curve $-1 0 -2.5 7.5 -1 0 0 I I #
plane-surface $-1 0 2.5 10 0 -1 0 0 0 -1 forward_v I I I I #
coedge $-1 $155 $156 $157 $158 reversed $71 $-1 #
coedge $-1 $83 $72 $156 $159 reversed $20 $-1 #
coedge $-1 $144 $157 $72 $115 forward $151 $-1 #
edge $-1 $160 -0.5235987755982991487 $116 0.5235987755982991487 $114 $161 forward 7 unknown #
vertex $-1 $115 $162 #
straight-curve $-1 0 2.5 7.5 1 0 0 I I #
coedge $-1 $163 $74 $164 $165 forward $22 $-1 #
coedge $-1 $166 $167 $74 $120 reversed $168 $-1 #
edge $-1 $128 5.625 $169 15.625 $74 $170 forward 7 unknown #
coedge $-1 $75 $171 $172 $173 forward $22 $-1 #
coedge $-1 $174 $175 $75 $123 reversed $176 $-1 #
edge $-1 $177 -10 $127 10 $75 $178 forward 7 unknown #
coedge $-1 $179 $76 $175 $180 reversed $126 $-1 #
coedge $-1 $76 $179 $166 $181 reversed $126 $-1 #
loop $-1 $-1 $124 $182 #
vertex $-1 $123 $183 #
vertex $-1 $77 $184 #
ellipse-curve $-1 -12.5 12.5 12.5 -0 -0 -1 2.5 0 0 1 I I #
coedge $-1 $185 $144 $78 $131 reversed $151 $-1 #
edge $-1 $133 -2.617993877991493967 $146 -0.5235987755982991487 $78 $186 forward 7 unknown #
coedge $-1 $79 $97 $185 $187 reversed $98 $-1 #
vertex $-1 $187 $188 #
straight-curve $-1 0 2.5 12.5 1 0 -0 I I #
coedge $-1 $81 $87 $155 $189 forward $12 $-1 #
coedge $-1 $157 $105 $81 $137 reversed $151 $-1 #
edge $-1 $190 0.5235987755982991487 $107 2.617993877991493967 $81 $186 forward 7 unknown #
coedge $-1 $156 $155 $82 $139 reversed $71 $-1 #
edge $-1 $140 -2.5 $142 2.5 $138 $191 reversed 7 unknown #
vertex $-1 $139 $192 #
point $-1 20 0 7.5 #
vertex $-1 $189 $193 #
point $-1 20 0 12.5 #
coedge $-1 $130 $114 $92 $145 forward $151 $-1 #
edge $-1 $116 7.5 $146 12.5 $144 $194 forward 7 unknown #
vertex $-1 $131 $195 #
face $-1 $196 $151 $2 $-1 $197 reversed single #
coedge $-1 $105 $185 $100 $149 forward $151 $-1 #
edge $-1 $150 2.617993877991493967 $109 3.665191429188092265 $148 $198 forward 7 unknown #
vertex $-1 $149 $199 #
loop $-1 $200 $144 $147 #
straight-curve $-1 -4.330127018922190096 -2.5 0 -0 -0 1 I I #
point $-1 -4.330127018922190096 -2.5 12.5 #
point $-1 -4.330127018922190096 -2.5 7.5 #
coedge $-1 $138 $112 $135 $189 reversed $71 $-1 #
coedge $-1 $112 $138 $113 $159 forward $71 $-1 #
coedge $-1 $114 $136 $112 $158 forward $151 $-1 #
edge $-1 $190 -12.5 $160 -7.5 $157 $201 forward 7 unknown #
edge $-1 $140 -17.5 $160 -4.330127018922190096 $156 $110 forward 7 unknown #
vertex $-1 $115 $202 #
ellipse-curve $-1 0 0 7.5 0 0 1 5 0 0 1 I I #
point $-1 4.330127018922190096 2.5 7.5 #
coedge $-1 $203 $118 $204 $205 forward $22 $-1 #
coedge $-1 $206 $207 $118 $165 reversed $208 $-1 #
edge $-1 $169 12.5 $209 40 $164 $210 forward 7 unknown #
coedge $-1 $211 $119 $125 $181 forward $168 $-1 #
coedge $-1 $119 $211 $206 $212 reversed $168 $-1 #
loop $-1 $-1 $166 $213 #
vertex $-1 $212 $214 #
straight-curve $-1 -12.5 9.375 12.5 0 1 0 I I #
coedge $-1 $121 $215 $216 $217 forward $22 $-1 #
coedge $-1 $216 $218 $121 $173 reversed $219 $-1 #
edge $-1 $220 0 $177 3.141592653589793116 $121 $221 forward 7 unknown #
coedge $-1 $222 $122 $218 $223 forward $176 $-1 #
coedge $-1 $122 $222 $124 $180 forward $176 $-1 #
loop $-1 $-1 $175 $224 #
vertex $-1 $173 $225 #
straight-curve $-1 0 12.5 12.5 -1 0 0 I I #
coedge $-1 $125 $124 $226 $227 reversed $126 $-1 #
edge $-1 $228 -12.5 $127 12.5 $175 $229 forward 7 unknown #
edge $-1 $128 -12.5 $230 12.5 $166 $231 forward 7 unknown #
face $-1 $224 $126 $2 $-1 $232 reversed single #
point $-1 -10 12.5 12.5 #
point $-1 -12.5 15 12.5 #
coedge $-1 $148 $130 $132 $187 forward $151 $-1 #
ellipse-curve $-1 0 0 12.5 -0 -0 -1 5 0 0 1 I I #
edge $-1 $133 -12.5 $150 -7.5 $185 $233 forward 7 unknown #
point $-1 -4.330127018922190096 2.5 12.5 #
edge $-1 $142 -17.5 $190 -4.330127018922190096 $135 $108 forward 7 unknown #
vertex $-1 $158 $234 #
straight-curve $-1 17.5 -2.5 10 0 0 -1 I I #
point $-1 17.5 -2.5 7.5 #
point $-1 17.5 -2.5 12.5 #
straight-curve $-1 4.330127018922190096 2.5 0 0 0 1 I I #
point $-1 4.330127018922190096 2.5 12.5 #
face $-1 $182 $235 $2 $-1 $236 reversed single #
cone-surface $-1 0 0 0 0 0 1 5 0 0 1 I I 0 1 5 forward I I I I #
ellipse-curve $-1 0 0 7.5 0 0 1 5 0 0 1 I I #
point $-1 -4.330127018922190096 2.5 7.5 #
loop $-1 $237 $238 $147 #
straight-curve $-1 4.330127018922190096 -2.5 0 -0 0 -1 I I #
point $-1 4.330127018922190096 -2.5 7.5 #
coedge $-1 $239 $163 $240 $241 forward $22 $-1 #
coedge $-1 $242 $243 $163 $205 reversed $244 $-1 #
edge $-1 $209 -18.75 $245 6.25 $163 $246 forward 7 unknown #
coedge $-1 $247 $164 $167 $212 forward $208 $-1 #
coedge $-1 $164 $248 $242 $249 forward $208 $-1 #
loop $-1 $-1 $248 $250 #
vertex $-1 $165 $251 #
straight-curve $-1 0 25 12.5 -1 0 0 I I #
coedge $-1 $167 $166 $252 $253 reversed $168 $-1 #
edge $-1 $169 -12.5 $254 12.5 $206 $255 forward 7 unknown #
face $-1 $250 $168 $2 $-1 $256 forward single #
point $-1 -12.5 25 12.5 #
coedge $-1 $171 $257 $258 $259 forward $22 $-1 #
coedge $-1 $260 $172 $171 $217 reversed $219 $-1 #
edge $-1 $261 -1.570796326794896558 $220 0 $171 $221 forward 7 unknown #
coedge $-1 $172 $262 $174 $223 reversed $219 $-1 #
loop $-1 $-1 $218 $263 #
vertex $-1 $217 $264 #
ellipse-curve $-1 12.5 12.5 12.5 -0 -0 -1 2.5 0 0 1 I I #
coedge $-1 $175 $174 $265 $266 reversed $176 $-1 #
edge $-1 $177 -12.5 $267 12.5 $174 $268 forward 7 unknown #
face $-1 $263 $269 $2 $-1 $270 forward single #
point $-1 10 12.5 12.5 #
coedge $-1 $265 $252 $179 $227 forward $271 $-1 #
edge $-1 $230 1.570796326794896558 $228 6.283185307179586232 $226 $272 forward 7 unknown #
vertex $-1 $180 $273 #
straight-curve $-1 -10 12.5 0 0 0 1 I I #
vertex $-1 $253 $274 #
straight-curve $-1 -12.5 15 0 -0 -0 -1 I I #
cone-surface $-1 -12.5 12.5 0 0 0 1 2.5 0 0 1 I I 0 1 2.5 forward I I I I #
straight-curve $-1 -4.330127018922190096 2.5 0 0 -0 -1 I I #
point $-1 4.330127018922190096 -2.5 12.5 #
loop $-1 $275 $276 $196 #
cone-surface $-1 0 0 0 0 -1 -3.491481338843129805e-15 2.5 0 0 1 I I 0 1 2.5 forward I I I I #
loop $-1 $277 $278 $147 #
coedge $-1 $238 $238 $279 $280 reversed $200 $-1 #
coedge $-1 $281 $203 $282 $283 forward $22 $-1 #
coedge $-1 $284 $285 $203 $241 reversed $286 $-1 #
edge $-1 $245 -17.5 $287 -5 $203 $288 forward 7 unknown #
coedge $-1 $289 $204 $207 $249 reversed $244 $-1 #
coedge $-1 $204 $289 $284 $290 reversed $244 $-1 #
loop $-1 $-1 $289 $291 #
vertex $-1 $205 $292 #
straight-curve $-1 -40 6.25 12.5 0 -1 0 I I #
coedge $-1 $293 $206 $294 $295 reversed $208 $-1 #
coedge $-1 $207 $296 $297 $298 forward $208 $-1 #
edge $-1 $299 -0.6249999999999098499 $209 9.375 $207 $300 forward 7 unknown #
face $-1 $291 $208 $2 $-1 $301 reversed single #
point $-1 -40 25 12.5 #
coedge $-1 $226 $294 $211 $253 forward $271 $-1 #
edge $-1 $254 -15.625 $230 -5.625 $252 $302 forward 7 unknown #
vertex $-1 $295 $303 #
straight-curve $-1 -12.5 25 0 0 0 -1 I I #
plane-surface $-1 -12.5 18.75 0 1 0 0 0 0 -1 forward_v I I I I #
coedge $-1 $215 $304 $305 $306 forward $22 $-1 #
coedge $-1 $307 $308 $215 $259 reversed $309 $-1 #
edge $-1 $310 -15.625 $261 -5.625 $215 $311 forward 7 unknown #
coedge $-1 $312 $216 $308 $313 reversed $219 $-1 #
vertex $-1 $259 $314 #
coedge $-1 $218 $312 $315 $316 reversed $219 $-1 #
face $-1 $317 $219 $2 $-1 $318 reversed single #
point $-1 15 12.5 12.5 #
coedge $-1 $315 $226 $222 $266 forward $271 $-1 #
edge $-1 $228 -10 $267 10 $265 $319 forward 7 unknown #
vertex $-1 $266 $320 #
straight-curve $-1 10 12.5 0 -0 -0 -1 I I #
loop $-1 $176 $321 $224 #
plane-surface $-1 0 12.5 0 0 1 0 0 0 1 forward_v I I I I #
loop $-1 $-1 $226 $317 #
ellipse-curve $-1 -12.5 12.5 -12.5 0 0 1 2.5 0 0 1 I I #
point $-1 -10 12.5 -12.5 #
point $-1 -12.5 15 -12.5 #
loop $-1 $-1 $322 $196 #
coedge $-1 $276 $276 $321 $323 reversed $235 $-1 #
loop $-1 $-1 $324 $147 #
coedge $-1 $278 $278 $322 $325 reversed $237 $-1 #
coedge $-1 $279 $279 $238 $280 forward $326 $-1 #
edge $-1 $327 0 $327 15.37562208415080001 $279 $328 forward 7 unknown #
coedge $-1 $329 $239 $330 $331 forward $22 $-1 #
coedge $-1 $332 $333 $239 $283 reversed $334 $-1 #
edge $-1 $287 -6.25 $335 18.75 $239 $336 forward 7 unknown #
coedge $-1 $337 $240 $243 $290 forward $286 $-1 #
coedge $-1 $240 $338 $332 $339 reversed $286 $-1 #
loop $-1 $-1 $337 $340 #
vertex $-1 $241 $341 #
straight-curve $-1 -22.5 0 12.5 1 0 -0 I I #
coedge $-1 $243 $242 $342 $343 forward $244 $-1 #
edge $-1 $245 -9.375 $344 0.625 $284 $345 forward 7 unknown #
face $-1 $346 $244 $2 $-1 $347 forward single #
point $-1 -40 0 12.5 #
coedge $-1 $348 $247 $349 $350 reversed $208 $-1 #
coedge $-1 $252 $351 $247 $295 forward $271 $-1 #
edge $-1 $352 -62.5 $254 -12.5 $247 $353 forward 7 unknown #
coedge $-1 $248 $354 $355 $356 forward $208 $-1 #
coedge $-1 $355 $342 $248 $298 reversed $357 $-1 #
edge $-1 $358 0 $299 1.570796326794896558 $248 $359 forward 7 unknown #
vertex $-1 $298 $360 #
straight-curve $-1 -40 25 3.125 0 0 1 I I #
plane-surface $-1 0 25 0 0 -1 0 0 0 -1 forward_v I I I I #
straight-curve $-1 -12.5 9.375 -12.5 0 -1 0 I I #
point $-1 -12.5 25 -12.5 #
coedge $-1 $257 $361 $362 $363 forward $22 $-1 #
coedge $-1 $364 $365 $257 $306 reversed $366 $-1 #
edge $-1 $367 -40 $310 -12.5 $305 $210 forward 7 unknown #
coedge $-1 $368 $258 $365 $369 reversed $309 $-1 #
coedge $-1 $258 $368 $260 $313 forward $309 $-1 #
loop $-1 $-1 $308 $370 #
vertex $-1 $306 $371 #
straight-curve $-1 12.5 9.375 12.5 0 -1 0 I I #
coedge $-1 $262 $260 $372 $373 reversed $219 $-1 #
edge $-1 $374 -12.5 $261 12.5 $308 $375 forward 7 unknown #
point $-1 12.5 15 12.5 #
coedge $-1 $372 $265 $262 $316 forward $271 $-1 #
edge $-1 $267 -3.141592653589793116 $376 0 $315 $377 forward 7 unknown #
face $-1 $370 $378 $2 $-1 $379 reversed single #
cone-surface $-1 12.5 12.5 0 0 0 1 2.5 0 0 1 I I 0 1 2.5 forward I I I I #
straight-curve $-1 0 12.5 -12.5 1 0 0 I I #
point $-1 10 12.5 -12.5 #
coedge $-1 $321 $321 $276 $323 forward $269 $-1 #
coedge $-1 $322 $322 $278 $325 forward $275 $-1 #
edge $-1 $380 -3.141592653589799777 $380 3.141592653589786455 $321 $381 forward 7 unknown #
coedge $-1 $324 $324 $382 $383 reversed $277 $-1 #
edge $-1 $384 0 $384 15.37562208415080001 $322 $385 forward 7 unknown #
loop $-1 $386 $279 $387 #
vertex $-1 $280 $388 #
intcurve-curve $-1 forward { surfintcur full nubs 3 periodic 33 
	0 3 0.4811440011018349727 2 0.9622880022036699454 2 1.443432003305499922 2 1.924576004407339891 2 
	2.404408383564930141 2 2.884240762722510176 2 3.364073141880099982 2 3.843905521037680018 2 4.323737900195269823 2 
	4.803570279352849859 2 5.283402658510439664 2 5.763235037668030358 2 6.244379038769870327 2 6.725523039871710296 2 
	7.206667040973560034 2 7.687811042075400003 2 8.168955043177239972 2 8.650099044279080829 2 9.131243045380930567 2 
	9.612387046482769648 2 10.09221942564029995 2 10.57205180479789952 2 11.05188418395550087 2 11.53171656311310045 2 
	12.01154894227070002 2 12.4913813214282996 2 12.9712137005857997 2 13.45104607974339928 2 13.93219008084530053 2 
	14.41333408194710053 2 14.89447808304900001 2 15.37562208415080001 3 
	2.5 -4.330127018922190096 -1.511855768138730075e-14 
	2.5 -4.330127018922190096 -0.1603813337006269879 
	2.484324272132630185 -4.339298601576789594 -0.3250483228181589856 
	2.419587660941989959 -4.375725652700899637 -0.6504760247244359972 
	2.370553414479069865 -4.40292020019967989 -0.8112488520610540155 
	2.242232321053410082 -4.469633420834360216 -1.118053549866719898 
	2.162843296140700033 -4.50911901986659025 -1.26438313276769998 
	1.980404217889990104 -4.592172099391079954 -1.534455918960480059 
	1.87732826164698996 -4.635661451169750258 -1.658205644285760005 
	1.658504313741030023 -4.718369129321829725 -1.877029592191719942 
	1.5349026132758401 -4.760658410769700311 -1.980062860243769984 
	1.264769252462200066 -4.839437288971780049 -2.162621950865470044 
	1.118229593645009956 -4.875866557168180293 -2.242161966026800179 
	0.810984990363109004 -4.936275466307150417 -2.37066049845748994 
	0.6499871261909649922 -4.960268245560039979 -2.419721681027919846 
	0.3244698334328690037 -4.992140188273480383 -2.484402464407330147 
	0.1599441263858789875 -5 -2.500000000000019984 
	-0.1599441263858439877 -5 -2.500000000000019984 
	-0.324469833432832977 -4.992140188273490153 -2.484402464407339917 
	-0.6499871261909300202 -4.960268245560039979 -2.419721681027919846 
	-0.8109849903630750312 -4.936275466307150417 -2.370660498457500154 
	-1.11822959364497998 -4.875866557168180293 -2.242161966026820163 
	-1.26476925246217009 -4.839437288971789819 -2.162621950865490028 
	-1.534902613275809902 -4.760658410769710081 -1.980062860243789968 
	-1.658504313741010039 -4.718369129321840383 -1.877029592191749918 
	-1.877328261646969976 -4.635661451169760028 -1.658205644285779989 
	-1.980404217889969898 -4.592172099391079954 -1.534455918960500043 
	-2.162843296140689819 -4.50911901986660002 -1.264383132767719964 
	-2.242232321053399868 -4.469633420834360216 -1.118053549866740104 
	-2.370553414479060095 -4.40292020019967989 -0.8112488520610670051 
	-2.419587660941989959 -4.375725652700899637 -0.6504760247244469884 
	-2.484324272132630185 -4.339298601576789594 -0.3250483228181639817 
	-2.5 -4.330127018922190096 -0.1603813337006300133 
	-2.5 -4.330127018922190096 0.1603813337005980111 
	-2.484324272132630185 -4.339298601576789594 0.3250483228181320072 
	-2.419587660941989959 -4.375725652700899637 0.6504760247244140148 
	-2.370553414479060095 -4.40292020019967989 0.8112488520610340315 
	-2.242232321053399868 -4.469633420834360216 1.118053549866699914 
	-2.162843296140689819 -4.50911901986660002 1.264383132767679996 
	-1.98040421788997989 -4.592172099391079954 1.534455918960470067 
	-1.877328261646979968 -4.635661451169760028 1.658205644285740021 
	-1.658504313741010039 -4.718369129321840383 1.87702959219170995 
	-1.534902613275819894 -4.760658410769710081 1.98006286024375 
	-1.264769252462180082 -4.839437288971789819 2.16262195086545006 
	-1.118229593644989972 -4.875866557168180293 2.242161966026780195 
	-0.8109849903630870216 -4.936275466307150417 2.370660498457460186 
	-0.649987126190944009 -4.960268245560039979 2.419721681027890092 
	-0.3244698334328490197 -4.992140188273490153 2.484402464407299949 
	-0.1599441263858610018 -5 2.499999999999980016 
	0.1599441263858610018 -5 2.499999999999980016 
	0.3244698334328500189 -4.992140188273490153 2.484402464407299949 
	0.649987126190944009 -4.960268245560039979 2.419721681027890092 
	0.8109849903630870216 -4.936275466307150417 2.370660498457460186 
	1.118229593644989972 -4.875866557168180293 2.242161966026780195 
	1.264769252462180082 -4.839437288971789819 2.16262195086545006 
	1.534902613275819894 -4.760658410769710081 1.98006286024375 
	1.658504313741010039 -4.718369129321840383 1.87702959219170995 
	1.877328261646979968 -4.635661451169760028 1.658205644285740021 
	1.98040421788997989 -4.592172099391079954 1.534455918960470067 
	2.162843296140689819 -4.50911901986660002 1.264383132767679996 
	2.242232321053399868 -4.469633420834360216 1.118053549866699914 
	2.370553414479060095 -4.40292020019967989 0.8112488520610340315 
	2.419587660941989959 -4.375725652700899637 0.6504760247244140148 
	2.484324272132630185 -4.339298601576789594 0.3250483228181330064 
	2.5 -4.330127018922190096 0.1603813337005990103 
	2.5 -4.330127018922190096 -1.511855768138730075e-14 
	0.001000000000000000021 
	cone 0 0 0 0 -1 -3.491481338843129805e-15 2.5 0 0 1 I I -0 -1 2.5 forward I I I I 
	cone 0 0 0 0 0 1 5 0 0 1 I I -0 -1 5 forward I I I I 
	nullbs 
	nullbs 
	I I 
	0 
	0 
	0 
	} I I #
coedge $-1 $389 $281 $390 $391 forward $22 $-1 #
coedge $-1 $392 $393 $281 $331 reversed $394 $-1 #
edge $-1 $335 -27.5 $395 -20 $330 $396 forward 7 unknown #
coedge $-1 $397 $282 $285 $339 forward $334 $-1 #
coedge $-1 $282 $397 $392 $398 reversed $334 $-1 #
loop $-1 $-1 $333 $399 #
vertex $-1 $398 $400 #
straight-curve $-1 -27.5 -6.25 12.5 0 -1 0 I I #
coedge $-1 $401 $284 $402 $403 forward $286 $-1 #
coedge $-1 $285 $404 $405 $406 reversed $286 $-1 #
edge $-1 $287 -12.5 $407 12.5 $332 $408 forward 7 unknown #
face $-1 $409 $286 $2 $-1 $410 forward single #
point $-1 -27.5 0 12.5 #
coedge $-1 $297 $402 $289 $343 reversed $357 $-1 #
edge $-1 $299 -25.00000000000000711 $344 -8.475965199624620172e-15 $289 $411 forward 7 unknown #
vertex $-1 $290 $412 #
straight-curve $-1 -40 0 3.125 -0 -0 -1 I I #
face $-1 $413 $414 $2 $-1 $13 forward single #
plane-surface $-1 -40 12.5 6.25 -1 0 0 0 0 1 forward_v I I I I #
coedge $-1 $415 $293 $416 $417 reversed $208 $-1 #
coedge $-1 $418 $419 $293 $350 forward $420 $-1 #
edge $-1 $421 -12.5 $352 12.5 $293 $422 forward 7 unknown #
coedge $-1 $294 $405 $418 $423 forward $271 $-1 #
vertex $-1 $295 $424 #
straight-curve $-1 0 25 -12.5 1 0 0 I I #
coedge $-1 $296 $425 $426 $427 forward $208 $-1 #
coedge $-1 $428 $297 $296 $356 reversed $357 $-1 #
edge $-1 $429 -3.141592653589758477 $358 0 $296 $359 forward 7 unknown #
loop $-1 $-1 $342 $430 #
vertex $-1 $356 $431 #
ellipse-curve $-1 -40 25 8.728703347107829602e-14 0 -1 0 2.5 0 0 1 I I #
point $-1 -40 25 2.50000000000009015 #
coedge $-1 $304 $432 $433 $434 forward $22 $-1 #
coedge $-1 $435 $436 $304 $363 reversed $437 $-1 #
edge $-1 $438 -6.25 $367 18.75 $304 $439 forward 7 unknown #
coedge $-1 $440 $305 $436 $441 forward $366 $-1 #
coedge $-1 $305 $442 $307 $369 forward $366 $-1 #
loop $-1 $-1 $440 $443 #
vertex $-1 $441 $444 #
coedge $-1 $308 $307 $445 $446 reversed $309 $-1 #
edge $-1 $447 -12.5 $310 12.5 $365 $448 forward 7 unknown #
face $-1 $387 $309 $2 $-1 $449 forward single #
point $-1 12.5 25 12.5 #
coedge $-1 $445 $315 $312 $373 forward $271 $-1 #
edge $-1 $376 0 $374 1.570796326794896558 $372 $377 forward 7 unknown #
vertex $-1 $313 $450 #
straight-curve $-1 12.5 15 0 0 0 1 I I #
vertex $-1 $373 $451 #
ellipse-curve $-1 12.5 12.5 -12.5 0 0 1 2.5 0 0 1 I I #
loop $-1 $271 $382 $317 #
plane-surface $-1 0 0 -12.5 0 0 1 1 0 0 forward_v I I I I #
vertex $-1 $323 $452 #
ellipse-curve $-1 0 12.5 4.36435167355391985e-14 -0 -1 -0 2.5 0 0 1 I I #
coedge $-1 $382 $382 $324 $383 forward $378 $-1 #
edge $-1 $453 0 $453 6.283185307179586232 $382 $454 forward 7 unknown #
vertex $-1 $325 $455 #
intcurve-curve $-1 forward { surfintcur full nubs 3 periodic 33 
	0 3 0.4811440011018420226 2 0.9622880022036840453 2 1.443432003305529898 2 1.924576004407370089 2 
	2.404408383564950125 2 2.88424076272253016 2 3.364073141880119966 2 3.843905521037700002 2 4.323737900195279593 2 
	4.803570279352870287 2 5.283402658510450323 2 5.763235037668040128 2 6.244379038769880097 2 6.725523039871720066 2 
	7.206667040973560034 2 7.687811042075400003 2 8.16895504317725063 2 8.650099044279089711 2 9.131243045380930567 2 
	9.612387046482780306 2 10.09221942564039942 2 10.57205180479789952 2 11.05188418395550087 2 11.53171656311310045 2 
	12.01154894227070002 2 12.4913813214282996 2 12.97121370058589918 2 13.45104607974350053 2 13.93219008084530053 2 
	14.41333408194710053 2 14.89447808304900001 2 15.37562208415080001 3 
	2.5 4.330127018922190096 1.511855768138730075e-14 
	2.5 4.330127018922190096 0.1603813337006289863 
	2.484324272132630185 4.339298601576789594 0.3250483228181629825 
	2.419587660941989959 4.375725652700899637 0.65047602472444499 
	2.370553414479060095 4.40292020019967989 0.8112488520610640075 
	2.242232321053399868 4.469633420834360216 1.11805354986672989 
	2.162843296140689819 4.50911901986660002 1.264383132767709972 
	1.98040421788997989 4.592172099391079954 1.534455918960500043 
	1.877328261646979968 4.635661451169760028 1.658205644285779989 
	1.658504313741010039 4.718369129321840383 1.877029592191739926 
	1.534902613275819894 4.760658410769710081 1.980062860243779976 
	1.264769252462180082 4.839437288971789819 2.162621950865479814 
	1.118229593644989972 4.875866557168180293 2.242161966026809949 
	0.8109849903630880208 4.936275466307150417 2.37066049845748994 
	0.6499871261909450082 4.960268245560039979 2.419721681027919846 
	0.3244698334328500189 4.992140188273490153 2.484402464407339917 
	0.1599441263858610018 5 2.500000000000019984 
	-0.1599441263858610018 5 2.500000000000019984 
	-0.3244698334328490197 4.992140188273490153 2.484402464407339917 
	-0.649987126190944009 4.960268245560039979 2.419721681027919846 
	-0.8109849903630880208 4.936275466307150417 2.37066049845748994 
	-1.118229593644989972 4.875866557168180293 2.242161966026809949 
	-1.264769252462180082 4.839437288971789819 2.162621950865479814 
	-1.534902613275819894 4.760658410769710081 1.980062860243779976 
	-1.658504313741010039 4.718369129321840383 1.877029592191739926 
	-1.877328261646979968 4.635661451169760028 1.658205644285779989 
	-1.98040421788997989 4.592172099391079954 1.534455918960500043 
	-2.162843296140689819 4.50911901986660002 1.264383132767709972 
	-2.242232321053399868 4.469633420834360216 1.11805354986672989 
	-2.370553414479060095 4.40292020019967989 0.8112488520610640075 
	-2.419587660941989959 4.375725652700899637 0.65047602472444499 
	-2.484324272132630185 4.339298601576789594 0.3250483228181629825 
	-2.5 4.330127018922190096 0.1603813337006289863 
	-2.5 4.330127018922190096 -0.1603813337005990103 
	-2.484324272132630185 4.339298601576789594 -0.3250483228181340056 
	-2.419587660941989959 4.375725652700899637 -0.6504760247244160132 
	-2.370553414479060095 4.40292020019967989 -0.8112488520610360299 
	-2.242232321053399868 4.469633420834360216 -1.118053549866709906 
	-2.162843296140689819 4.50911901986660002 -1.264383132767689988 
	-1.980404217889969898 4.592172099391079954 -1.534455918960470067 
	-1.877328261646969976 4.635661451169760028 -1.658205644285750013 
	-1.658504313741010039 4.718369129321840383 -1.87702959219170995 
	-1.534902613275809902 4.760658410769710081 -1.980062860243759992 
	-1.26476925246217009 4.839437288971789819 -2.16262195086545006 
	-1.11822959364497998 4.875866557168180293 -2.242161966026780195 
	-0.8109849903630750312 4.936275466307150417 -2.370660498457460186 
	-0.6499871261909300202 4.960268245560039979 -2.419721681027890092 
	-0.324469833432832977 4.992140188273490153 -2.484402464407299949 
	-0.1599441263858449869 5 -2.499999999999980016 
	0.1599441263858789875 5 -2.499999999999980016 
	0.3244698334328680045 4.992140188273490153 -2.484402464407299949 
	0.649987126190963993 4.960268245560039979 -2.419721681027879878 
	0.8109849903631080048 4.936275466307150417 -2.370660498457449972 
	1.118229593645009956 4.875866557168180293 -2.242161966026769981 
	1.264769252462200066 4.839437288971780049 -2.162621950865430076 
	1.5349026132758401 4.760658410769700311 -1.980062860243730016 
	1.658504313741030023 4.718369129321829725 -1.877029592191689966 
	1.87732826164698996 4.635661451169750258 -1.658205644285730029 
	1.980404217889990104 4.592172099391079954 -1.534455918960450083 
	2.162843296140700033 4.50911901986659025 -1.264383132767670004 
	2.242232321053410082 4.469633420834360216 -1.118053549866689922 
	2.370553414479069865 4.40292020019967989 -0.8112488520610230402 
	2.419587660941989959 4.375725652700899637 -0.6504760247244040228 
	2.484324272132630185 4.339298601576789594 -0.3250483228181280104 
	2.5 4.330127018922190096 -0.1603813337005960127 
	2.5 4.330127018922190096 1.511855768138730075e-14 
	0.001000000000000000021 
	cone 0 0 0 0 -1 -3.491481338843129805e-15 2.5 0 0 1 I I -0 -1 2.5 forward I I I I 
	cone 0 0 0 0 0 1 5 0 0 1 I I -0 -1 5 forward I I I I 
	nullbs 
	nullbs 
	I I 
	0 
	0 
	0 
	} I I #
loop $-1 $-1 $456 $387 #
face $-1 $430 $326 $2 $-1 $236 reversed single #
point $-1 2.5 -4.330127018922190096 -1.511855768138730075e-14 #
coedge $-1 $457 $329 $458 $459 forward $22 $-1 #
coedge $-1 $460 $461 $329 $391 reversed $462 $-1 #
edge $-1 $395 -15.625 $463 -3.125 $329 $464 forward 7 unknown #
coedge $-1 $465 $330 $333 $398 forward $394 $-1 #
coedge $-1 $330 $466 $460 $467 forward $394 $-1 #
loop $-1 $-1 $393 $468 #
vertex $-1 $331 $469 #
straight-curve $-1 0 -25 12.5 1 0 0 I I #
coedge $-1 $333 $332 $470 $471 reversed $334 $-1 #
edge $-1 $335 -12.5 $472 12.5 $392 $473 forward 7 unknown #
face $-1 $474 $334 $2 $-1 $475 forward single #
point $-1 -27.5 -25 12.5 #
coedge $-1 $476 $337 $477 $478 forward $286 $-1 #
coedge $-1 $342 $428 $337 $403 reversed $357 $-1 #
edge $-1 $344 -1.570796326794896558 $479 3.141592653589793116 $337 $480 forward 7 unknown #
coedge $-1 $338 $481 $482 $483 reversed $286 $-1 #
coedge $-1 $351 $470 $338 $406 forward $271 $-1 #
edge $-1 $407 5 $484 40 $405 $485 forward 7 unknown #
vertex $-1 $406 $486 #
straight-curve $-1 -27.5 0 0 0 0 -1 I I #
face $-1 $487 $488 $2 $-1 $489 forward single #
plane-surface $-1 -45 0 0 0 -1 0 0 0 -1 forward_v I I I I #
straight-curve $-1 -40 -8.475965199624620172e-15 2.5 0 -1 -3.491481338843129805e-15 I I #
point $-1 -40 0 2.5 #
face $-1 $490 $491 $2 $-1 $492 forward single #
loop $-1 $-1 $493 $346 #
coedge $-1 $425 $348 $494 $495 forward $208 $-1 #
coedge $-1 $496 $493 $348 $417 forward $414 $-1 #
edge $-1 $497 55 $421 62.5 $348 $210 forward 7 unknown #
coedge $-1 $482 $349 $351 $423 reversed $420 $-1 #
coedge $-1 $349 $482 $496 $498 reversed $420 $-1 #
loop $-1 $-1 $482 $499 #
vertex $-1 $417 $500 #
straight-curve $-1 -62.5 25 0 0 0 -1 I I #
edge $-1 $484 0 $352 25 $418 $501 forward 7 unknown #
point $-1 -62.5 25 -12.5 #
coedge $-1 $354 $415 $502 $503 forward $208 $-1 #
coedge $-1 $504 $505 $354 $427 reversed $488 $-1 #
edge $-1 $506 -28.75 $429 -18.75 $354 $507 forward 7 unknown #
coedge $-1 $402 $355 $505 $508 reversed $357 $-1 #
vertex $-1 $427 $509 #
face $-1 $340 $357 $2 $-1 $510 reversed single #
point $-1 -37.5 25 8.728703347107829602e-14 #
coedge $-1 $361 $511 $512 $513 forward $22 $-1 #
coedge $-1 $514 $515 $361 $434 reversed $516 $-1 #
edge $-1 $517 5 $438 17.5 $361 $518 forward 7 unknown #
coedge $-1 $519 $362 $515 $520 reversed $437 $-1 #
coedge $-1 $362 $519 $364 $441 reversed $437 $-1 #
loop $-1 $-1 $519 $521 #
vertex $-1 $434 $522 #
straight-curve $-1 40 6.25 12.5 0 1 0 I I #
coedge $-1 $523 $364 $524 $525 forward $366 $-1 #
edge $-1 $367 -9.375 $526 0.6249999999999098499 $364 $527 forward 7 unknown #
coedge $-1 $365 $528 $529 $530 reversed $366 $-1 #
face $-1 $531 $366 $2 $-1 $301 reversed single #
point $-1 40 25 12.5 #
coedge $-1 $529 $372 $368 $446 forward $271 $-1 #
edge $-1 $374 5.625 $447 15.625 $445 $532 forward 7 unknown #
vertex $-1 $446 $533 #
straight-curve $-1 12.5 25 0 0 0 1 I I #
plane-surface $-1 12.5 18.75 0 -1 0 0 0 0 1 forward_v I I I I #
point $-1 12.5 15 -12.5 #
point $-1 15 12.5 -12.5 #
point $-1 -2.5 12.5 6.110092342975480216e-14 #
vertex $-1 $383 $534 #
ellipse-curve $-1 0 0 -12.5 0 0 1 5 0 0 1 I I #
point $-1 2.5 4.330127018922190096 1.511855768138730075e-14 #
coedge $-1 $456 $456 $535 $536 reversed $386 $-1 #
coedge $-1 $511 $389 $537 $538 forward $22 $-1 #
coedge $-1 $539 $540 $389 $459 reversed $541 $-1 #
edge $-1 $463 -20 $542 20 $389 $543 forward 7 unknown #
coedge $-1 $544 $390 $393 $467 reversed $462 $-1 #
coedge $-1 $390 $544 $539 $545 reversed $462 $-1 #
loop $-1 $-1 $544 $546 #
vertex $-1 $391 $547 #
straight-curve $-1 -20 -9.375 12.5 0 1 0 I I #
coedge $-1 $548 $392 $549 $550 reversed $394 $-1 #
coedge $-1 $393 $551 $552 $553 forward $394 $-1 #
edge $-1 $554 -1.875 $395 10.625 $393 $555 forward 7 unknown #
face $-1 $556 $394 $2 $-1 $557 reversed single #
point $-1 -20 -25 12.5 #
coedge $-1 $405 $549 $397 $471 forward $271 $-1 #
edge $-1 $472 -18.75 $407 6.25 $470 $558 forward 7 unknown #
vertex $-1 $550 $559 #
straight-curve $-1 -27.5 -25 0 -0 0 -1 I I #
face $-1 $468 $560 $2 $-1 $13 forward single #
plane-surface $-1 -27.5 -12.5 0 -1 0 0 0 0 1 forward_v I I I I #
coedge $-1 $561 $401 $562 $563 forward $286 $-1 #
coedge $-1 $505 $504 $401 $478 reversed $488 $-1 #
edge $-1 $479 -3.75 $564 6.25 $401 $565 forward 7 unknown #
vertex $-1 $508 $566 #
ellipse-curve $-1 -40 0 0 -0 1 -0 2.5 0 0 1 I I #
coedge $-1 $404 $561 $567 $568 reversed $286 $-1 #
coedge $-1 $419 $418 $404 $483 forward $420 $-1 #
edge $-1 $484 -12.5 $569 12.5 $482 $570 forward 7 unknown #
vertex $-1 $406 $571 #
straight-curve $-1 -22.5 0 -12.5 -1 0 0 I I #
point $-1 -27.5 0 -12.5 #
face $-1 $521 $572 $2 $-1 $573 reversed single #
loop $-1 $-1 $505 $409 #
plane-surface $-1 -47.5 12.5 0 0 0 1 1 0 0 forward_v I I I I #
face $-1 $574 $575 $2 $-1 $576 forward single #
loop $-1 $-1 $577 $413 #
plane-surface $-1 47.5 12.5 0 0 0 1 1 0 0 forward_v I I I I #
coedge $-1 $416 $567 $578 $579 forward $414 $-1 #
coedge $-1 $578 $580 $415 $495 reversed $581 $-1 #
edge $-1 $497 -9.375 $582 0.6249999999999098499 $415 $583 forward 7 unknown #
coedge $-1 $567 $416 $419 $498 forward $414 $-1 #
vertex $-1 $495 $584 #
edge $-1 $421 -25 $569 0 $419 $585 forward 7 unknown #
face $-1 $-1 $420 $2 $-1 $586 reversed single #
point $-1 -62.5 25 12.5 #
straight-curve $-1 -62.5 0 -12.5 0 1 0 I I #
coedge $-1 $587 $588 $425 $503 reversed $589 $-1 #
edge $-1 $582 1.570796326794896558 $506 6.283185307179586232 $425 $590 forward 7 unknown #
coedge $-1 $477 $426 $588 $591 forward $488 $-1 #
coedge $-1 $426 $477 $428 $508 forward $488 $-1 #
vertex $-1 $503 $592 #
straight-curve $-1 -23.75 25 0 1 0 -0 I I #
edge $-1 $479 7.619026212181150377e-29 $429 25 $505 $593 forward 7 unknown #
point $-1 -42.5 25 0 #
cone-surface $-1 -40 0 0 0 -1 -3.491481338843129805e-15 2.5 0 0 1 I I 0 1 2.5 forward I I I I #
coedge $-1 $432 $457 $594 $595 forward $22 $-1 #
coedge $-1 $596 $597 $432 $513 reversed $598 $-1 #
edge $-1 $599 -18.75 $517 6.25 $432 $600 forward 7 unknown #
coedge $-1 $601 $433 $597 $602 forward $516 $-1 #
coedge $-1 $433 $603 $435 $520 forward $516 $-1 #
loop $-1 $-1 $603 $574 #
vertex $-1 $513 $604 #
straight-curve $-1 22.5 0 12.5 1 0 -0 I I #
coedge $-1 $436 $435 $605 $606 forward $437 $-1 #
edge $-1 $607 -0.625 $438 9.375 $515 $608 forward 7 unknown #
face $-1 $609 $437 $2 $-1 $610 forward single #
point $-1 40 0 12.5 #
coedge $-1 $611 $440 $612 $613 forward $366 $-1 #
coedge $-1 $605 $614 $440 $525 reversed $572 $-1 #
edge $-1 $526 1.570796326794896558 $615 6.283185307179586232 $440 $616 forward 7 unknown #
vertex $-1 $441 $617 #
straight-curve $-1 40 25 3.125 0 0 -1 I I #
coedge $-1 $442 $618 $619 $620 forward $366 $-1 #
coedge $-1 $621 $445 $442 $530 forward $271 $-1 #
edge $-1 $447 12.5 $622 62.5 $442 $353 forward 7 unknown #
face $-1 $623 $624 $2 $-1 $625 forward single #
straight-curve $-1 12.5 9.375 -12.5 0 1 -0 I I #
point $-1 12.5 25 -12.5 #
point $-1 5 0 -12.5 #
coedge $-1 $535 $535 $456 $536 forward $626 $-1 #
edge $-1 $627 -3.141592653589799777 $627 3.141592653589786455 $535 $628 forward 7 unknown #
coedge $-1 $629 $630 $457 $538 reversed $631 $-1 #
edge $-1 $542 3.125 $632 15.625 $457 $633 forward 7 unknown #
coedge $-1 $634 $458 $461 $545 forward $541 $-1 #
coedge $-1 $458 $635 $629 $636 reversed $541 $-1 #
loop $-1 $-1 $634 $623 #
vertex $-1 $459 $637 #
straight-curve $-1 0 -12.5 12.5 1 0 -0 I I #
coedge $-1 $461 $460 $638 $639 reversed $462 $-1 #
edge $-1 $463 -8.75 $640 3.75 $539 $641 forward 7 unknown #
face $-1 $213 $462 $2 $-1 $642 forward single #
point $-1 -20 -12.5 12.5 #
coedge $-1 $594 $465 $596 $643 forward $394 $-1 #
coedge $-1 $470 $644 $465 $550 forward $271 $-1 #
edge $-1 $645 -27.5 $472 27.5 $465 $646 forward 7 unknown #
coedge $-1 $466 $647 $648 $649 forward $394 $-1 #
coedge $-1 $650 $638 $466 $553 reversed $624 $-1 #
edge $-1 $651 -0.785398163397448279 $554 0.785398163397448279 $466 $652 forward 7 unknown #
vertex $-1 $467 $653 #
straight-curve $-1 -20 -25 1.875 -0 0 1 I I #
face $-1 $654 $598 $2 $-1 $655 forward single #
plane-surface $-1 0 -25 0 0 1 -0 -0 0 1 forward_v I I I I #
straight-curve $-1 -27.5 -6.25 -12.5 0 1 -0 I I #
point $-1 -27.5 -25 -12.5 #
loop $-1 $-1 $656 $474 #
coedge $-1 $481 $476 $657 $658 forward $286 $-1 #
coedge $-1 $588 $587 $476 $563 reversed $589 $-1 #
edge $-1 $564 0 $659 4.712388980384689674 $476 $660 forward 7 unknown #
vertex $-1 $478 $661 #
straight-curve $-1 -46.25 0 0 -1 0 0 I I #
point $-1 -42.5 0 0 #
coedge $-1 $493 $496 $481 $568 forward $414 $-1 #
edge $-1 $569 -40 $662 -32.5 $567 $288 forward 7 unknown #
vertex $-1 $498 $663 #
straight-curve $-1 -62.5 0 0 -0 0 1 I I #
point $-1 -62.5 0 -12.5 #
loop $-1 $-1 $614 $487 #
cone-surface $-1 40 0 0 0 -1 -3.491481338843129805e-15 2.5 0 0 1 I I 0 1 2.5 forward I I I I #
face $-1 $399 $516 $2 $-1 $664 forward single #
loop $-1 $-1 $665 $490 #
plane-surface $-1 55 12.5 6.25 -1 0 0 0 0 1 forward_v I I I I #
coedge $-1 $666 $612 $614 $667 forward $491 $-1 #
coedge $-1 $657 $494 $493 $579 reversed $581 $-1 #
edge $-1 $662 -6.25 $497 18.75 $493 $668 forward 7 unknown #
coedge $-1 $494 $657 $587 $669 forward $581 $-1 #
loop $-1 $-1 $580 $670 #
vertex $-1 $495 $671 #
straight-curve $-1 -55 25 3.125 0 0 -1 I I #
point $-1 -55 25 12.5 #
straight-curve $-1 -62.5 0 12.5 0 -1 0 I I #
plane-surface $-1 -62.5 0 0 1 0 0 0 0 -1 forward_v I I I I #
coedge $-1 $562 $502 $580 $669 reversed $589 $-1 #
coedge $-1 $502 $562 $504 $591 reversed $589 $-1 #
loop $-1 $-1 $588 $609 #
ellipse-curve $-1 -55 25 8.728703347107829602e-14 0 -1 0 2.5 0 0 1 I I #
edge $-1 $506 -25 $564 -7.619026212181150377e-29 $504 $672 forward 7 unknown #
point $-1 -52.5 25 8.728703347107829602e-14 #
straight-curve $-1 -42.5 -7.619026212181150377e-29 0 -0 1 3.491481338843129805e-15 I I #
coedge $-1 $673 $548 $511 $595 reversed $394 $-1 #
edge $-1 $632 20 $599 27.5 $594 $396 forward 7 unknown #
coedge $-1 $674 $512 $548 $643 reversed $598 $-1 #
coedge $-1 $512 $674 $514 $602 reversed $598 $-1 #
loop $-1 $-1 $597 $556 #
vertex $-1 $595 $675 #
straight-curve $-1 27.5 -6.25 12.5 0 1 0 I I #
coedge $-1 $676 $514 $677 $678 reversed $516 $-1 #
edge $-1 $517 -12.5 $679 12.5 $514 $680 forward 7 unknown #
coedge $-1 $515 $681 $682 $683 forward $516 $-1 #
point $-1 27.5 0 12.5 #
coedge $-1 $682 $524 $519 $606 reversed $572 $-1 #
edge $-1 $607 8.475965199624620172e-15 $526 25.00000000000000711 $519 $684 forward 7 unknown #
vertex $-1 $606 $685 #
straight-curve $-1 40 0 3.125 -0 0 1 I I #
face $-1 $670 $589 $2 $-1 $686 reversed single #
plane-surface $-1 40 12.5 6.25 1 0 0 0 0 -1 forward_v I I I I #
coedge $-1 $687 $523 $688 $689 forward $366 $-1 #
coedge $-1 $577 $690 $523 $613 reversed $491 $-1 #
edge $-1 $615 18.75 $691 28.75 $523 $692 forward 7 unknown #
coedge $-1 $524 $682 $577 $667 reversed $572 $-1 #
vertex $-1 $525 $693 #
ellipse-curve $-1 40 25 8.728703347107829602e-14 0 -1 0 2.5 0 0 1 I I #
point $-1 40 25 2.50000000000009015 #
coedge $-1 $528 $694 $695 $696 reversed $366 $-1 #
coedge $-1 $697 $698 $528 $620 reversed $699 $-1 #
edge $-1 $700 -12.5 $622 12.5 $619 $701 forward 7 unknown #
coedge $-1 $677 $529 $698 $702 forward $271 $-1 #
vertex $-1 $702 $703 #
face $-1 $704 $626 $2 $-1 $705 forward single #
loop $-1 $-1 $638 $531 #
cone-surface $-1 -15 -18.75 0 0 1 0 -3.535533905932739973 0 -3.535533905932739973 1 I I 0 -1 5.000000000000003553 forward I I I I #
loop $-1 $541 $535 $623 #
vertex $-1 $536 $706 #
ellipse-curve $-1 0 -12.5 -4.364351673553909752e-14 -0 1 -0 2.5 0 0 1 I I #
coedge $-1 $707 $537 $540 $636 forward $631 $-1 #
coedge $-1 $537 $707 $673 $708 reversed $631 $-1 #
loop $-1 $-1 $707 $709 #
vertex $-1 $708 $710 #
straight-curve $-1 20 -9.375 12.5 0 -1 0 I I #
coedge $-1 $711 $539 $712 $713 forward $541 $-1 #
coedge $-1 $540 $711 $714 $715 forward $541 $-1 #
edge $-1 $542 -8.75 $716 3.75 $629 $717 forward 7 unknown #
point $-1 20 -12.5 12.5 #
coedge $-1 $552 $712 $544 $639 forward $624 $-1 #
edge $-1 $640 -6.25 $554 6.25 $544 $718 forward 7 unknown #
vertex $-1 $545 $719 #
straight-curve $-1 -20 -12.5 3.75 0 0 -1 I I #
plane-surface $-1 -20 -18.75 3.75 1 0 0 0 0 -1 forward_v I I I I #
edge $-1 $645 -12.5 $599 12.5 $548 $720 forward 7 unknown #
coedge $-1 $549 $677 $674 $721 forward $271 $-1 #
vertex $-1 $643 $722 #
straight-curve $-1 0 -25 -12.5 -1 0 0 I I #
coedge $-1 $551 $673 $723 $724 forward $394 $-1 #
coedge $-1 $725 $726 $551 $649 reversed $727 $-1 #
edge $-1 $728 -15 $651 15 $551 $729 forward 7 unknown #
coedge $-1 $712 $552 $726 $730 forward $624 $-1 #
vertex $-1 $649 $731 #
ellipse-curve $-1 -15 -25 0 0 1 -0 -3.535533905932739973 0 -3.535533905932739973 1 I I #
point $-1 -20 -25 0 #
face $-1 $499 $699 $2 $-1 $732 reversed single #
plane-surface $-1 27.5 -12.5 0 1 0 0 0 0 -1 forward_v I I I I #
coedge $-1 $733 $695 $734 $735 forward $560 $-1 #
coedge $-1 $580 $578 $561 $658 reversed $581 $-1 #
edge $-1 $659 -0.625 $662 9.375 $561 $736 forward 7 unknown #
vertex $-1 $669 $737 #
ellipse-curve $-1 -55 0 0 -0 1 -0 2.5 0 0 1 I I #
point $-1 -52.5 0 0 #
vertex $-1 $568 $738 #
point $-1 -62.5 0 12.5 #
plane-surface $-1 45 0 0 0 -1 0 0 0 -1 forward_v I I I I #
coedge $-1 $739 $740 $741 $742 forward $575 $-1 #
coedge $-1 $690 $577 $681 $743 reversed $491 $-1 #
edge $-1 $615 -25 $744 -7.619026212181150377e-29 $577 $745 forward 7 unknown #
straight-curve $-1 -55 6.25 12.5 0 1 0 I I #
edge $-1 $659 8.475965199624620172e-15 $582 25.00000000000000711 $580 $746 forward 7 unknown #
face $-1 $747 $581 $2 $-1 $748 forward single #
point $-1 -55 25 2.50000000000009015 #
straight-curve $-1 -52.5 -7.619026212181150377e-29 0 0 -1 -3.491481338843129805e-15 I I #
coedge $-1 $647 $594 $630 $708 forward $394 $-1 #
coedge $-1 $597 $596 $644 $721 reversed $598 $-1 #
point $-1 27.5 -25 12.5 #
coedge $-1 $749 $601 $750 $751 reversed $516 $-1 #
coedge $-1 $644 $621 $601 $678 forward $271 $-1 #
edge $-1 $752 -40 $679 -5 $677 $753 forward 7 unknown #
vertex $-1 $721 $754 #
straight-curve $-1 27.5 0 0 0 0 -1 I I #
coedge $-1 $603 $755 $666 $743 forward $516 $-1 #
coedge $-1 $614 $605 $603 $683 reversed $572 $-1 #
edge $-1 $744 0 $607 4.712388980384689674 $603 $756 forward 7 unknown #
straight-curve $-1 40 -8.475965199624620172e-15 2.5 -0 1 3.491481338843129805e-15 I I #
point $-1 40 0 2.5 #
cone-surface $-1 -55 0 0 0 -1 -3.491481338843129805e-15 2.5 0 0 1 I I 0 1 2.5 forward I I I I #
coedge $-1 $694 $611 $757 $758 forward $366 $-1 #
coedge $-1 $759 $757 $611 $689 reversed $760 $-1 #
edge $-1 $691 -3.141592653589758477 $761 0 $611 $762 forward 7 unknown #
coedge $-1 $612 $666 $759 $763 forward $491 $-1 #
vertex $-1 $613 $764 #
straight-curve $-1 23.75 25 0 1 0 -0 I I #
point $-1 42.5 25 8.728703347107829602e-14 #
coedge $-1 $618 $687 $740 $765 forward $366 $-1 #
coedge $-1 $656 $766 $618 $696 forward $560 $-1 #
edge $-1 $700 -62.5 $767 -55 $618 $210 forward 7 unknown #
coedge $-1 $750 $619 $766 $768 reversed $699 $-1 #
coedge $-1 $619 $750 $621 $702 reversed $699 $-1 #
loop $-1 $-1 $750 $654 #
vertex $-1 $768 $769 #
straight-curve $-1 62.5 25 0 0 0 -1 I I #
edge $-1 $622 -25 $752 0 $698 $770 forward 7 unknown #
point $-1 62.5 25 -12.5 #
face $-1 $771 $727 $2 $-1 $772 forward single #
plane-surface $-1 0 -12.5 3.75 0 -1 0 0 0 -1 forward_v I I I I #
point $-1 -2.5 -12.5 -6.110092342975480216e-14 #
coedge $-1 $630 $629 $773 $774 reversed $631 $-1 #
edge $-1 $632 -10.625 $775 1.875 $673 $776 forward 7 unknown #
face $-1 $546 $631 $2 $-1 $777 forward single #
point $-1 20 -25 12.5 #
coedge $-1 $635 $634 $778 $779 forward $541 $-1 #
coedge $-1 $638 $650 $634 $713 reversed $624 $-1 #
edge $-1 $640 -0.785398163397448279 $780 0.785398163397448279 $634 $781 forward 7 unknown #
coedge $-1 $782 $773 $635 $715 reversed $783 $-1 #
edge $-1 $784 -0.785398163397448279 $716 0.785398163397448279 $635 $785 forward 7 unknown #
vertex $-1 $636 $786 #
straight-curve $-1 20 -12.5 3.75 0 0 -1 I I #
straight-curve $-1 -20 -18.75 0 -0 -1 -0 I I #
point $-1 -20 -12.5 0 #
straight-curve $-1 27.5 -25 0 -0 0 1 I I #
edge $-1 $679 -6.25 $645 18.75 $644 $787 forward 7 unknown #
point $-1 27.5 -25 -12.5 #
coedge $-1 $773 $782 $647 $724 reversed $783 $-1 #
edge $-1 $775 -0.785398163397448279 $728 0.785398163397448279 $647 $788 forward 7 unknown #
coedge $-1 $778 $648 $782 $789 reversed $727 $-1 #
coedge $-1 $648 $778 $650 $730 reversed $727 $-1 #
loop $-1 $-1 $726 $704 #
vertex $-1 $649 $790 #
straight-curve $-1 0 -25 -5 -1 0 0 I I #
edge $-1 $651 -6.25 $780 6.25 $726 $791 forward 7 unknown #
point $-1 -15 -25 -5 #
plane-surface $-1 62.5 0 0 -1 0 0 0 -0 1 forward_v I I I I #
coedge $-1 $766 $656 $749 $792 forward $560 $-1 #
coedge $-1 $740 $739 $656 $735 reversed $575 $-1 #
edge $-1 $767 -18.75 $793 6.25 $656 $794 forward 7 unknown #
straight-curve $-1 -55 0 3.125 -0 0 1 I I #
point $-1 -55 0 2.5 #
point $-1 -55 0 12.5 #
coedge $-1 $734 $665 $795 $796 reversed $575 $-1 #
coedge $-1 $665 $734 $694 $765 reversed $575 $-1 #
coedge $-1 $757 $797 $665 $742 reversed $760 $-1 #
edge $-1 $798 -25.00000000000000711 $799 -8.475965199624620172e-15 $665 $800 forward 7 unknown #
edge $-1 $801 -6.25 $744 3.75 $681 $802 forward 7 unknown #
vertex $-1 $743 $803 #
straight-curve $-1 42.5 -7.619026212181150377e-29 0 0 -1 -3.491481338843129805e-15 I I #
straight-curve $-1 -55 -8.475965199624620172e-15 2.5 -0 1 3.491481338843129805e-15 I I #
face $-1 $443 $760 $2 $-1 $804 reversed single #
plane-surface $-1 -55 12.5 6.25 1 0 0 0 0 -1 forward_v I I I I #
coedge $-1 $795 $676 $733 $792 reversed $516 $-1 #
coedge $-1 $698 $697 $676 $751 forward $699 $-1 #
edge $-1 $805 -12.5 $752 12.5 $750 $806 forward 7 unknown #
vertex $-1 $702 $807 #
straight-curve $-1 22.5 0 -12.5 -1 0 0 I I #
point $-1 27.5 0 -12.5 #
coedge $-1 $681 $795 $797 $808 forward $516 $-1 #
ellipse-curve $-1 40 0 0 -0 1 -0 2.5 0 0 1 I I #
coedge $-1 $688 $741 $687 $758 reversed $760 $-1 #
edge $-1 $761 0 $798 1.570796326794896558 $687 $762 forward 7 unknown #
coedge $-1 $797 $688 $690 $763 reversed $760 $-1 #
loop $-1 $-1 $759 $747 #
vertex $-1 $689 $809 #
ellipse-curve $-1 55 25 8.728703347107829602e-14 0 -1 0 2.5 0 0 1 I I #
edge $-1 $801 7.619026212181150377e-29 $691 25 $690 $810 forward 7 unknown #
point $-1 52.5 25 0 #
edge $-1 $798 -0.6249999999999098499 $767 9.375 $694 $811 forward 7 unknown #
coedge $-1 $695 $733 $697 $768 forward $560 $-1 #
vertex $-1 $696 $812 #
edge $-1 $805 0 $700 25 $697 $813 forward 7 unknown #
point $-1 62.5 25 12.5 #
straight-curve $-1 62.5 0 -12.5 0 -1 0 I I #
face $-1 $709 $783 $2 $-1 $814 forward single #
plane-surface $-1 0 -18.75 -5 0 0 1 1 0 0 forward_v I I I I #
coedge $-1 $714 $723 $707 $774 forward $783 $-1 #
edge $-1 $775 -6.25 $716 6.25 $707 $815 forward 7 unknown #
vertex $-1 $708 $816 #
straight-curve $-1 20 -25 1.875 -0 0 -1 I I #
plane-surface $-1 20 -18.75 3.75 -1 0 0 0 0 1 forward_v I I I I #
coedge $-1 $726 $725 $711 $779 reversed $727 $-1 #
edge $-1 $780 -15 $784 15 $711 $817 forward 7 unknown #
vertex $-1 $730 $818 #
ellipse-curve $-1 -15 -12.5 0 0 -1 0 -3.535533905932739973 0 -3.535533905932739973 1 I I #
coedge $-1 $723 $714 $725 $789 forward $783 $-1 #
loop $-1 $-1 $773 $771 #
vertex $-1 $779 $819 #
ellipse-curve $-1 15 -12.5 0 0 -1 0 3.535533905932739973 0 -3.535533905932739973 1 I I #
point $-1 20 -12.5 0 #
straight-curve $-1 27.5 -6.25 -12.5 0 -1 0 I I #
ellipse-curve $-1 15 -25 0 0 1 -0 3.535533905932739973 0 -3.535533905932739973 1 I I #
edge $-1 $784 -6.25 $728 6.25 $725 $820 forward 7 unknown #
point $-1 15 -25 -5 #
straight-curve $-1 -15 -18.75 -5 0 1 0 I I #
edge $-1 $793 32.5 $805 40 $733 $518 forward 7 unknown #
vertex $-1 $735 $821 #
straight-curve $-1 55 6.25 12.5 0 -1 0 I I #
coedge $-1 $755 $749 $739 $796 forward $516 $-1 #
edge $-1 $793 -9.375 $799 0.625 $795 $822 forward 7 unknown #
coedge $-1 $741 $759 $755 $808 reversed $760 $-1 #
vertex $-1 $742 $823 #
vertex $-1 $796 $824 #
straight-curve $-1 55 -8.475965199624620172e-15 2.5 0 -1 -3.491481338843129805e-15 I I #
vertex $-1 $808 $825 #
straight-curve $-1 46.25 0 0 -1 0 0 I I #
point $-1 42.5 0 0 #
cone-surface $-1 55 0 0 0 -1 -3.491481338843129805e-15 2.5 0 0 1 I I 0 1 2.5 forward I I I I #
vertex $-1 $751 $826 #
straight-curve $-1 62.5 0 0 -0 -0 -1 I I #
point $-1 62.5 0 -12.5 #
edge $-1 $799 -1.570796326794896558 $801 3.141592653589793116 $755 $827 forward 7 unknown #
point $-1 57.5 25 8.728703347107829602e-14 #
straight-curve $-1 52.5 -7.619026212181150377e-29 0 -0 1 3.491481338843129805e-15 I I #
straight-curve $-1 55 25 3.125 0 0 1 I I #
point $-1 55 25 12.5 #
straight-curve $-1 62.5 0 12.5 0 1 0 I I #
cone-surface $-1 15 -18.75 0 0 -1 -0 3.535533905932739973 0 -3.535533905932739973 1 I I 0 -1 5.000000000000003553 forward I I I I #
straight-curve $-1 20 -18.75 0 0 1 0 I I #
point $-1 20 -25 0 #
straight-curve $-1 0 -12.5 -5 1 0 0 I I #
point $-1 -15 -12.5 -5 #
point $-1 15 -12.5 -5 #
straight-curve $-1 15 -18.75 -5 0 -1 0 I I #
point $-1 55 0 12.5 #
straight-curve $-1 55 0 3.125 -0 -0 -1 I I #
point $-1 55 25 2.50000000000009015 #
point $-1 55 0 2.5 #
point $-1 52.5 0 0 #
point $-1 62.5 0 12.5 #
ellipse-curve $-1 55 0 0 -0 1 -0 2.5 0 0 1 I I #
End-of-ACIS-data 