105 86 1 0                              
body $-1 $1 $-1 $2 #
lump $-1 $-1 $3 $0 #
transform $-1 -3.49148133884313e-15 -6.98296267768627e-15 1 0 -1 -6.98296267768627e-15 1 -2.43808838789797e-29 3.49148133884313e-15 0 0 0 1 1 0 0 #
shell $-1 $-1 $-1 $4 $1 #
face $-1 $5 $6 $3 $-1 $7 forward single #
face $-1 $8 $9 $3 $-1 $10 forward single #
loop $-1 $-1 $11 $4 #
plane-surface $-1 0 -25 0 1 0 0 0 0 -1 0 #
face $-1 $12 $13 $3 $-1 $14 reversed single #
loop $-1 $-1 $15 $5 #
plane-surface $-1 0 0 50 0 0 1 1 0 0 0 #
coedge $-1 $16 $17 $18 $19 1 $6 $-1 #
face $-1 $20 $21 $3 $-1 $22 forward single #
loop $-1 $-1 $18 $8 #
cone-surface $-1 0 0 0 0 0 1 30 0 0 1 0 1 0 #
coedge $-1 $23 $24 $16 $25 0 $9 $-1 #
coedge $-1 $26 $11 $15 $25 1 $6 $-1 #
coedge $-1 $11 $26 $27 $28 1 $6 $-1 #
coedge $-1 $29 $30 $11 $19 0 $13 $-1 #
edge $-1 $31 $32 $18 $33 0 #
face $-1 $34 $35 $3 $-1 $36 forward single #
loop $-1 $-1 $37 $12 #
plane-surface $-1 17.6776695296637 17.6776695296637 0 0.707106781186549 -0.707106781186546 0 0 0 -1 0 #
coedge $-1 $38 $15 $30 $39 0 $9 $-1 #
coedge $-1 $15 $38 $40 $41 0 $9 $-1 #
edge $-1 $42 $31 $15 $43 0 #
coedge $-1 $17 $16 $44 $45 1 $6 $-1 #
coedge $-1 $46 $47 $17 $28 0 $35 $-1 #
edge $-1 $32 $48 $27 $49 0 #
coedge $-1 $50 $18 $47 $51 1 $13 $-1 #
coedge $-1 $18 $50 $23 $39 1 $13 $-1 #
vertex $-1 $19 $52 #
vertex $-1 $51 $53 #
straight-curve $-1 0 -30 0 -0 0 -1 #
face $-1 $-1 $54 $3 $-1 $55 forward single #
loop $-1 $-1 $27 $20 #
plane-surface $-1 0 0 -50 0 0 -1 -1 0 0 0 #
coedge $-1 $56 $57 $50 $58 1 $21 $-1 #
coedge $-1 $24 $23 $57 $59 0 $9 $-1 #
edge $-1 $31 $60 $23 $61 0 #
coedge $-1 $62 $44 $24 $41 1 $54 $-1 #
edge $-1 $63 $42 $24 $64 0 #
vertex $-1 $41 $65 #
straight-curve $-1 0 -12.5 50 0 1 0 #
coedge $-1 $40 $66 $26 $45 0 $54 $-1 #
edge $-1 $48 $42 $44 $67 0 #
coedge $-1 $68 $27 $66 $69 0 $35 $-1 #
coedge $-1 $27 $68 $29 $51 0 $35 $-1 #
vertex $-1 $28 $70 #
straight-curve $-1 0 -12.5 -50 0 -1 0 #
coedge $-1 $30 $29 $37 $58 0 $13 $-1 #
edge $-1 $71 $32 $47 $72 0 #
point $-1 0 -30 50 #
point $-1 0 -30 -50 #
loop $-1 $-1 $44 $34 #
cone-surface $-1 0 0 0 0 0 1 50 0 0 1 0 1 0 #
coedge $-1 $73 $37 $68 $74 1 $21 $-1 #
coedge $-1 $37 $73 $38 $59 1 $21 $-1 #
edge $-1 $71 $60 $50 $75 0 #
edge $-1 $60 $63 $38 $76 0 #
vertex $-1 $39 $77 #
ellipse-curve $-1 0 0 50 -0 -0 -1 30 0 0 1 #
coedge $-1 $66 $40 $73 $78 0 $54 $-1 #
vertex $-1 $78 $79 #
ellipse-curve $-1 0 0 50 0 0 1 50 0 0 1 #
point $-1 0 -50 50 #
coedge $-1 $44 $62 $46 $69 1 $54 $-1 #
straight-curve $-1 0 -50 0 0 0 1 #
coedge $-1 $47 $46 $56 $74 0 $35 $-1 #
edge $-1 $48 $80 $46 $81 0 #
point $-1 0 -50 -50 #
vertex $-1 $74 $82 #
ellipse-curve $-1 0 0 -50 -0 -0 1 30 0 0 1 #
coedge $-1 $57 $56 $62 $78 1 $21 $-1 #
edge $-1 $80 $71 $68 $83 0 #
straight-curve $-1 21.2132034355964 21.2132034355965 0 0 0 1 #
straight-curve $-1 8.83883476483183 8.83883476483186 50 0.707106781186546 0.707106781186549 -0 #
point $-1 21.2132034355964 21.2132034355965 50 #
edge $-1 $63 $80 $62 $84 0 #
point $-1 35.3553390593273 35.3553390593274 50 #
vertex $-1 $69 $85 #
ellipse-curve $-1 0 0 -50 0 0 -1 50 0 0 1 #
point $-1 21.2132034355964 21.2132034355965 -50 #
straight-curve $-1 8.83883476483183 8.83883476483186 -50 -0.707106781186546 -0.707106781186549 -0 #
straight-curve $-1 35.3553390593273 35.3553390593274 0 -0 -0 -1 #
point $-1 35.3553390593273 35.3553390593274 -50 #
