600 0 1 0           
95 GICL ACIS Healer - Source: /gicl/data5/repository/UMD/inf_feats1-part/inf_feats1-part.sat - 6 0 18 ACIS 6.0.3 Solaris 24 Sun Apr 14 00:34:22 2002 
1 9.999999999999999547e-07 1.000000000000000036e-10 
body $-1 $1 $-1 $-1 #
lump $-1 $-1 $2 $0 #
shell $-1 $-1 $-1 $3 $-1 $1 #
face $-1 $4 $5 $2 $-1 $6 forward single #
face $-1 $7 $8 $2 $-1 $9 forward single #
loop $-1 $-1 $10 $3 #
plane-surface $-1 0 25 1.745740669421567435e-13 -3.491481338843129805e-15 -6.982962677686269866e-15 1 -1 2.438088387897970139e-29 -3.491481338843129805e-15 forward_v I I I I #
face $-1 $11 $12 $2 $-1 $13 reversed single #
loop $-1 $-1 $14 $4 #
plane-surface $-1 50 -1.219044193948985137e-27 1.745740669421564911e-13 1 -2.438088387897970139e-29 3.491481338843129805e-15 -3.491481338843129805e-15 -6.982962677686269866e-15 1 forward_v I I I I #
coedge $-1 $15 $16 $17 $18 reversed $5 $-1 #
face $-1 $19 $20 $2 $-1 $21 forward single #
loop $-1 $-1 $17 $7 #
cone-surface $-1 0 0 0 1 -2.438088387897970139e-29 3.491481338843129805e-15 -1.047444401652938997e-13 -2.094888803305881023e-13 30 1 I I 0 1 30 forward I I I I #
coedge $-1 $22 $23 $15 $24 forward $8 $-1 #
coedge $-1 $25 $10 $14 $24 reversed $5 $-1 #
coedge $-1 $10 $25 $26 $27 reversed $5 $-1 #
coedge $-1 $28 $29 $10 $18 forward $12 $-1 #
edge $-1 $30 -50 $31 50 $17 $32 forward 7 unknown #
face $-1 $33 $34 $2 $-1 $35 forward single #
loop $-1 $-1 $36 $11 #
plane-surface $-1 -6.172125327705661742e-14 -17.67766952966382377 17.67766952966357508 -2.468850131082268105e-15 0.7071067811865411334 0.707106781186553901 -1 2.438088387897970139e-29 -3.491481338843129805e-15 forward_v I I I I #
coedge $-1 $37 $14 $29 $38 forward $8 $-1 #
coedge $-1 $14 $37 $39 $40 forward $8 $-1 #
edge $-1 $41 -37.5 $30 -17.5 $14 $42 forward 7 unknown #
coedge $-1 $16 $15 $43 $44 reversed $5 $-1 #
coedge $-1 $45 $46 $16 $27 forward $34 $-1 #
edge $-1 $31 17.5 $47 37.5 $26 $48 forward 7 unknown #
coedge $-1 $49 $17 $46 $50 reversed $12 $-1 #
coedge $-1 $17 $49 $22 $38 reversed $12 $-1 #
vertex $-1 $18 $51 #
vertex $-1 $50 $52 #
straight-curve $-1 0 30 2.094888803305881023e-13 -1 2.438088387897970139e-29 -3.491481338843129805e-15 I I #
face $-1 $-1 $53 $2 $-1 $54 forward single #
loop $-1 $-1 $26 $19 #
plane-surface $-1 -50 1.219044193948985137e-27 -1.745740669421564911e-13 -1 2.438088387897970139e-29 -3.491481338843129805e-15 3.491481338843129805e-15 6.982962677686269866e-15 -1 forward_v I I I I #
coedge $-1 $55 $56 $49 $57 reversed $20 $-1 #
coedge $-1 $23 $22 $56 $58 forward $8 $-1 #
edge $-1 $30 1.570796326794896558 $59 5.497787143782135288 $22 $60 forward 7 unknown #
coedge $-1 $61 $43 $23 $40 reversed $53 $-1 #
edge $-1 $62 0.7853981633974497223 $41 4.712388980384689674 $23 $63 forward 7 unknown #
vertex $-1 $40 $64 #
straight-curve $-1 50 12.5 2.618611004132348628e-13 0 -1 -6.982962677686269866e-15 I I #
coedge $-1 $39 $65 $25 $44 forward $53 $-1 #
edge $-1 $47 -50 $41 50 $43 $66 forward 7 unknown #
coedge $-1 $67 $26 $65 $68 forward $34 $-1 #
coedge $-1 $26 $67 $28 $50 forward $34 $-1 #
vertex $-1 $27 $69 #
straight-curve $-1 -50 12.5 -8.728703347107811931e-14 0 1 6.982962677686269866e-15 I I #
coedge $-1 $29 $28 $36 $57 forward $12 $-1 #
edge $-1 $70 0.7853981633974507215 $31 4.712388980384689674 $46 $71 forward 7 unknown #
point $-1 50 30 3.840629472727445933e-13 #
point $-1 -50 30 3.491481338843161123e-14 #
loop $-1 $-1 $43 $33 #
cone-surface $-1 0 0 0 1 -2.438088387897970139e-29 3.491481338843129805e-15 -1.745740669421564911e-13 -3.49148133884313487e-13 50 1 I I 0 1 50 forward I I I I #
coedge $-1 $72 $36 $67 $73 reversed $20 $-1 #
coedge $-1 $36 $72 $37 $58 reversed $20 $-1 #
edge $-1 $70 -50 $59 50 $49 $74 forward 7 unknown #
edge $-1 $59 17.50000000000003553 $62 37.49999999999995737 $37 $75 forward 7 unknown #
vertex $-1 $38 $76 #
ellipse-curve $-1 50 -1.219044193948985137e-27 1.745740669421564911e-13 -1 2.438088387897970139e-29 -3.491481338843129805e-15 -1.047444401652938997e-13 -2.094888803305881023e-13 30 1 I I #
coedge $-1 $65 $39 $72 $77 forward $53 $-1 #
vertex $-1 $77 $78 #
ellipse-curve $-1 50 -1.219044193948985137e-27 1.745740669421564911e-13 1 -2.438088387897970139e-29 3.491481338843129805e-15 -1.745740669421564911e-13 -3.49148133884313487e-13 50 1 I I #
point $-1 50 50 5.237222008264699276e-13 #
coedge $-1 $43 $61 $45 $68 reversed $53 $-1 #
straight-curve $-1 0 50 3.49148133884313487e-13 1 -2.438088387897970139e-29 3.491481338843129805e-15 I I #
coedge $-1 $46 $45 $55 $73 forward $34 $-1 #
edge $-1 $47 1.570796326794896558 $79 5.497787143782136177 $45 $80 forward 7 unknown #
point $-1 -50 50 1.745740669421569959e-13 #
vertex $-1 $73 $81 #
ellipse-curve $-1 -50 1.219044193948985137e-27 -1.745740669421564911e-13 1 -2.438088387897970139e-29 3.491481338843129805e-15 -1.047444401652938997e-13 -2.094888803305881023e-13 30 1 I I #
coedge $-1 $56 $55 $61 $77 reversed $20 $-1 #
edge $-1 $79 -37.49999999999995737 $70 -17.50000000000003553 $67 $82 forward 7 unknown #
straight-curve $-1 -7.406550393246780964e-14 -21.21320343559665034 21.21320343559625243 1 -2.438088387897970139e-29 3.491481338843129805e-15 I I #
straight-curve $-1 49.99999999999997158 -8.838834764831922541 8.838834764831942081 -2.468850131082257849e-15 -0.707106781186553901 0.7071067811865411334 I I #
point $-1 49.99999999999992895 -21.21320343559665034 21.21320343559642652 #
edge $-1 $62 -50 $79 50 $61 $83 forward 7 unknown #
point $-1 49.99999999999987921 -35.35533905932764753 35.35533905932722831 #
vertex $-1 $68 $84 #
ellipse-curve $-1 -50 1.219044193948985137e-27 -1.745740669421564911e-13 -1 2.438088387897970139e-29 -3.491481338843129805e-15 -1.745740669421564911e-13 -3.49148133884313487e-13 50 1 I I #
point $-1 -50.00000000000007105 -21.21320343559665034 21.21320343559607835 #
straight-curve $-1 -50.00000000000002842 -8.838834764831922541 8.838834764831593915 2.468850131082257849e-15 0.707106781186553901 -0.7071067811865411334 I I #
straight-curve $-1 -1.234425065541128814e-13 -35.35533905932764753 35.35533905932705068 -1 2.438088387897970139e-29 -3.491481338843129805e-15 I I #
point $-1 -50.00000000000012079 -35.35533905932764753 35.35533905932687304 #
End-of-ACIS-data 