600 0 2 0           
24 FBMach with ACIS - 6.0.3 13 ACIS 6.0.3 NT 24 Sun Mar 31 23:26:04 2002 
1 9.9999999999999995e-007 1e-010 
body $2 $3 $-1 $4 #
bdycol-kcp $-1 1 2 $5 $6 #
model_id-kcp-attrib $-1 $7 $-1 $0 1 1017635164 70 -263847935 1 #
lump $-1 $-1 $8 $0 #
transform $-1 1 -2.9721374936014526e-058 0 -2.9721374936014526e-058 1 0 0 0 1 0 0 0 1 rotate no_reflect no_shear #
body $9 $10 $-1 $11 #
body $12 $13 $-1 $14 #
aggregate_advspl_attribute-aggregate_geombuild_base_attribute-aggregate_body_attribute-attrib_HH-attrib $-1 $15 $2 $0 F #
shell $-1 $-1 $-1 $16 $-1 $3 #
model_id-kcp-attrib $-1 $-1 $-1 $5 1 1017635164 70 -263847934 1 #
lump $-1 $-1 $17 $5 #
transform $-1 1 0 0 0 1 0 0 0 1 2.8421709430404007e-014 0 -7.3223304703364605 1 no_rotate no_reflect no_shear #
rgb_color-st-attrib $-1 $18 $-1 $6 0.5 1 1 #
lump $-1 $-1 $19 $6 #
transform $-1 1 0 0 0 1 0 0 0 1 2.8421709430404007e-014 0 -7.3223304703364605 1 no_rotate no_reflect no_shear #
aggregate_secndry_attribute-aggregate_geombuild_base_attribute-aggregate_body_attribute-attrib_HH-attrib $-1 $20 $7 $0 F #
face $21 $22 $23 $8 $-1 $24 forward single #
shell $-1 $-1 $-1 $25 $-1 $10 #
model_id-kcp-attrib $-1 $-1 $12 $6 1 1017635164 130 -259915773 1 #
shell $-1 $-1 $-1 $26 $-1 $13 #
aggregate_sharped_attribute-aggregate_geombuild_base_attribute-aggregate_body_attribute-attrib_HH-attrib $-1 $27 $15 $0 F #
model_id-kcp-attrib $-1 $28 $-1 $16 1 1017635164 70 -263847935 2 #
face $29 $30 $31 $8 $-1 $32 forward single #
loop $-1 $-1 $33 $16 #
plane-surface $-1 0 25 1.7457406694215674e-013 -3.4914813388431298e-015 -6.9829626776862699e-015 1 -1 2.4380883878979701e-029 -3.4914813388431298e-015 forward_v I I I I #
face $-1 $34 $35 $17 $-1 $36 forward single #
face $-1 $37 $38 $19 $-1 $39 reversed single #
aggregate_reblend_attribute-aggregate_geombuild_base_attribute-aggregate_body_attribute-attrib_HH-attrib $-1 $40 $20 $0 F #
attrib_hh_face_geombuild-attrib_entity_geombuild-individual_entity_attribute-attrib_HH-attrib $-1 $-1 $21 $16 F #
model_id-kcp-attrib $-1 $41 $-1 $22 1 1017635164 70 -263847935 8 #
face $42 $43 $44 $8 $-1 $45 reversed single #
loop $-1 $-1 $46 $22 #
plane-surface $-1 50 -1.2190441939489851e-027 1.7457406694215649e-013 1 -2.4380883878979701e-029 3.4914813388431298e-015 -3.4914813388431298e-015 -6.9829626776862699e-015 1 forward_v I I I I #
coedge $47 $48 $49 $50 $51 reversed $23 $-1 #
face $-1 $52 $53 $17 $-1 $54 reversed single #
loop $-1 $-1 $55 $25 #
plane-surface $-1 0 0 42.677669529663717 0 0 1 1 0 0 forward_v I I I I #
face $-1 $56 $57 $19 $-1 $58 reversed single #
loop $-1 $-1 $59 $26 #
plane-surface $-1 49.999999999999972 30 7.3223304703368335 -3.4914813388431298e-015 -6.9722005946459828e-015 1 -1 2.4380883878979701e-029 -3.4914813388431298e-015 forward_v I I I I #
aggregate_isospline_attribute-aggregate_geombuild_base_attribute-aggregate_body_attribute-attrib_HH-attrib $-1 $60 $27 $0 F #
model_id-kcp-attrib $-1 $61 $29 $22 1 1017635164 70 -263847935 3 #
model_id-kcp-attrib $-1 $62 $-1 $30 1 1017635164 70 -263847935 4 #
face $63 $64 $65 $8 $-1 $66 forward single #
loop $-1 $-1 $50 $30 #
cone-surface $-1 0 0 0 1 -2.4380883878979701e-029 3.4914813388431298e-015 -1.047444401652939e-013 -2.094888803305881e-013 30 1 I I 0 1 30 forward I I I I #
coedge $67 $68 $69 $48 $70 forward $31 $-1 #
attrib_hh_coedge_geombuild-attrib_entity_geombuild-individual_entity_attribute-attrib_HH-attrib $-1 $-1 $-1 $33 F #
coedge $71 $72 $33 $46 $70 reversed $23 $-1 #
coedge $73 $33 $72 $74 $75 reversed $23 $-1 #
coedge $76 $77 $78 $33 $51 forward $44 $-1 #
edge $79 $80 -50 $81 50 $50 $82 forward 7 unknown #
face $-1 $83 $84 $17 $-1 $85 reversed single #
loop $-1 $-1 $86 $34 #
plane-surface $-1 0 0 -42.677669529663717 0 0 1 1 0 0 forward_v I I I I #
coedge $-1 $87 $88 $89 $90 forward $35 $-1 #
face $-1 $91 $92 $19 $-1 $58 reversed single #
loop $-1 $-1 $93 $37 #
cone-surface $-1 49.999999999999972 -2.6645352591003757e-015 7.3223304703366345 1 -2.4380883878979701e-029 3.4914813388431298e-015 -1.2075982095643699e-029 50 3.5260683262094972e-013 1 I I 0 1 50 forward I I I I #
coedge $-1 $94 $95 $96 $97 reversed $38 $-1 #
aggregate_analytic_solver_attribute-aggregate_geombuild_base_attribute-aggregate_body_attribute-attrib_HH-attrib $-1 $98 $40 $0 F #
attrib_hh_face_geombuild-attrib_entity_geombuild-individual_entity_attribute-attrib_HH-attrib $-1 $-1 $41 $22 F #
attrib_hh_face_geombuild-attrib_entity_geombuild-individual_entity_attribute-attrib_HH-attrib $-1 $-1 $42 $30 F #
model_id-kcp-attrib $-1 $99 $-1 $43 1 1017635164 70 -263847935 5 #
face $100 $101 $102 $8 $-1 $103 forward single #
loop $-1 $-1 $104 $43 #
plane-surface $-1 -6.1721253277056617e-014 -17.677669529663824 17.677669529663575 -2.4688501310822681e-015 0.70710678118654113 0.7071067811865539 -1 2.4380883878979701e-029 -3.4914813388431298e-015 forward_v I I I I #
attrib_hh_coedge_geombuild-attrib_entity_geombuild-individual_entity_attribute-attrib_HH-attrib $-1 $-1 $-1 $46 F #
coedge $105 $106 $46 $78 $107 forward $31 $-1 #
coedge $108 $46 $106 $109 $110 forward $31 $-1 #
edge $111 $112 -37.5 $80 -17.5 $46 $113 forward 7 unknown #
attrib_hh_coedge_geombuild-attrib_entity_geombuild-individual_entity_attribute-attrib_HH-attrib $-1 $-1 $-1 $48 F #
coedge $114 $49 $48 $115 $116 reversed $23 $-1 #
attrib_hh_coedge_geombuild-attrib_entity_geombuild-individual_entity_attribute-attrib_HH-attrib $-1 $-1 $-1 $49 F #
coedge $117 $118 $119 $49 $75 forward $102 $-1 #
edge $120 $81 17.5 $121 37.5 $74 $122 forward 7 unknown #
attrib_hh_coedge_geombuild-attrib_entity_geombuild-individual_entity_attribute-attrib_HH-attrib $-1 $-1 $-1 $50 F #
coedge $123 $124 $50 $119 $125 reversed $44 $-1 #
coedge $126 $50 $124 $68 $107 reversed $44 $-1 #
attrib_hh_edge_geombuild-attrib_entity_geombuild-individual_entity_attribute-attrib_HH-attrib $-1 $-1 $-1 $51 F #
vertex $127 $51 $128 #
vertex $129 $125 $130 #
straight-curve $-1 0 30 2.094888803305881e-013 -1 2.4380883878979701e-029 -3.4914813388431298e-015 I I #
face $131 $132 $133 $17 $-1 $134 reversed single #
loop $-1 $-1 $135 $52 #
plane-surface $-1 0 -50 0 0 1 0 0 0 1 forward_v I I I I #
coedge $-1 $136 $137 $138 $139 forward $53 $-1 #
coedge $-1 $140 $55 $141 $142 forward $35 $-1 #
coedge $-1 $55 $140 $143 $144 forward $35 $-1 #
coedge $-1 $145 $146 $55 $90 reversed $147 $-1 #
edge $-1 $148 -50 $149 50 $89 $150 forward 7 unknown #
face $-1 $151 $152 $19 $-1 $153 reversed single #
loop $-1 $-1 $154 $56 #
coedge $-1 $155 $156 $157 $158 reversed $57 $-1 #
coedge $-1 $159 $59 $160 $161 forward $38 $-1 #
coedge $-1 $59 $159 $162 $163 reversed $38 $-1 #
coedge $-1 $164 $165 $59 $97 forward $166 $-1 #
edge $-1 $167 15.000000000000025 $168 35.000000000000028 $96 $169 forward 7 unknown #
aggregate_geombuild_attribute-aggregate_geombuild_base_attribute-aggregate_body_attribute-attrib_HH-attrib $-1 $170 $60 $0 #
attrib_hh_face_geombuild-attrib_entity_geombuild-individual_entity_attribute-attrib_HH-attrib $-1 $-1 $63 $43 F #
model_id-kcp-attrib $-1 $171 $-1 $64 1 1017635164 70 -263847935 6 #
face $172 $-1 $173 $8 $-1 $174 forward single #
loop $-1 $-1 $74 $64 #
plane-surface $-1 -50 1.2190441939489851e-027 -1.7457406694215649e-013 -1 2.4380883878979701e-029 -3.4914813388431298e-015 3.4914813388431298e-015 6.9829626776862699e-015 -1 forward_v I I I I #
coedge $175 $176 $177 $124 $178 reversed $65 $-1 #
attrib_hh_coedge_geombuild-attrib_entity_geombuild-individual_entity_attribute-attrib_HH-attrib $-1 $-1 $-1 $68 F #
coedge $179 $69 $68 $177 $180 forward $31 $-1 #
edge $181 $80 1.5707963267948966 $182 5.4977871437821353 $68 $183 forward 7 unknown #
attrib_hh_coedge_geombuild-attrib_entity_geombuild-individual_entity_attribute-attrib_HH-attrib $-1 $-1 $-1 $69 F #
coedge $184 $185 $115 $69 $110 reversed $173 $-1 #
edge $186 $187 0.78539816339744972 $112 4.7123889803846897 $69 $188 forward 7 unknown #
attrib_edge_convexity-kcp-attrib $-1 $189 $-1 $70 1 #
vertex $190 $110 $191 #
straight-curve $-1 50 12.5 2.6186110041323486e-013 0 -1 -6.9829626776862699e-015 I I #
attrib_hh_coedge_geombuild-attrib_entity_geombuild-individual_entity_attribute-attrib_HH-attrib $-1 $-1 $-1 $72 F #
coedge $192 $109 $193 $72 $116 forward $173 $-1 #
edge $194 $121 -50 $112 50 $115 $195 forward 7 unknown #
attrib_hh_coedge_geombuild-attrib_entity_geombuild-individual_entity_attribute-attrib_HH-attrib $-1 $-1 $-1 $74 F #
coedge $196 $197 $74 $193 $198 forward $102 $-1 #
coedge $199 $74 $197 $77 $125 forward $102 $-1 #
attrib_hh_edge_geombuild-attrib_entity_geombuild-individual_entity_attribute-attrib_HH-attrib $-1 $-1 $-1 $75 F #
vertex $200 $75 $201 #
straight-curve $-1 -50 12.5 -8.7287033471078119e-014 0 1 6.9829626776862699e-015 I I #
attrib_hh_coedge_geombuild-attrib_entity_geombuild-individual_entity_attribute-attrib_HH-attrib $-1 $-1 $-1 $77 F #
coedge $202 $78 $77 $104 $178 forward $44 $-1 #
edge $203 $204 0.78539816339745072 $81 4.7123889803846897 $119 $205 forward 7 unknown #
attrib_hh_coedge_geombuild-attrib_entity_geombuild-individual_entity_attribute-attrib_HH-attrib $-1 $-1 $-1 $78 F #
attrib_hh_vertex_geombuild-attrib_entity_geombuild-individual_entity_attribute-attrib_HH-attrib $-1 $-1 $-1 $80 F #
point $-1 50 30 3.8406294727274459e-013 #
attrib_hh_vertex_geombuild-attrib_entity_geombuild-individual_entity_attribute-attrib_HH-attrib $-1 $-1 $-1 $81 F #
point $-1 -50 30 3.4914813388431611e-014 #
model_id-kcp-attrib $-1 $-1 $-1 $83 1 1017635164 70 -263847934 3 #
face $-1 $206 $207 $17 $-1 $208 reversed single #
loop $-1 $-1 $209 $83 #
plane-surface $-1 -50.000000000000149 0 0 1 0 0 0 0 -1 forward_v I I I I #
coedge $-1 $210 $143 $211 $212 forward $84 $-1 #
coedge $-1 $213 $86 $210 $214 forward $53 $-1 #
coedge $-1 $86 $213 $215 $216 forward $53 $-1 #
coedge $-1 $146 $145 $86 $139 reversed $147 $-1 #
edge $-1 $217 -50 $218 50 $138 $219 forward 7 unknown #
coedge $-1 $88 $87 $220 $221 forward $35 $-1 #
coedge $-1 $222 $223 $87 $142 reversed $207 $-1 #
edge $-1 $149 -50.000000000000149 $224 50.000000000000149 $141 $225 forward 7 unknown #
coedge $-1 $135 $226 $88 $144 reversed $84 $-1 #
edge $-1 $227 -50.000000000000149 $148 50.000000000000149 $143 $228 forward 7 unknown #
coedge $-1 $138 $89 $226 $229 forward $147 $-1 #
coedge $-1 $89 $138 $222 $230 reversed $147 $-1 #
loop $-1 $-1 $145 $206 #
vertex $-1 $90 $231 #
vertex $-1 $90 $232 #
straight-curve $-1 50.000000000000149 0 42.677669529663717 0 1 0 I I #
face $-1 $233 $234 $19 $-1 $235 reversed single #
loop $-1 $-1 $236 $91 #
plane-surface $-1 49.999999999999851 -35.35533905932769 42.677669529663689 -2.4688501310822681e-015 0.70710678118654113 0.70710678118655401 -1 2.4380883878979701e-029 -3.4914813388431298e-015 forward_v I I I I #
coedge $-1 $237 $238 $239 $240 reversed $92 $-1 #
coedge $-1 $241 $93 $242 $243 reversed $57 $-1 #
coedge $-1 $93 $241 $244 $245 forward $57 $-1 #
coedge $-1 $246 $247 $93 $158 forward $248 $-1 #
edge $-1 $249 -3.141592653589786 $250 -2.3561944901923471 $157 $251 forward 7 unknown #
coedge $-1 $95 $94 $252 $253 reversed $38 $-1 #
coedge $-1 $254 $255 $94 $161 reversed $234 $-1 #
edge $-1 $167 -1.7763568394002505e-013 $256 100.00000000000011 $160 $257 forward 7 unknown #
coedge $-1 $258 $259 $260 $163 forward $261 $-1 #
edge $-1 $168 -25.000000000000178 $262 75.000000000000114 $162 $263 forward 7 unknown #
coedge $-1 $264 $96 $259 $265 reversed $166 $-1 #
coedge $-1 $96 $266 $254 $267 forward $166 $-1 #
loop $-1 $-1 $96 $268 #
vertex $-1 $267 $269 #
vertex $-1 $270 $271 #
straight-curve $-1 50.000000000000149 14.999999999999975 7.3223304703367287 0 1 6.9722005946459828e-015 I I #
aggregate_stitch_attribute-aggregate_stitch_base_attribute-aggregate_body_attribute-attrib_HH-attrib $-1 $272 $98 $0 F #
attrib_hh_face_geombuild-attrib_entity_geombuild-individual_entity_attribute-attrib_HH-attrib $-1 $-1 $100 $64 F #
model_id-kcp-attrib $-1 $273 $-1 $101 1 1017635164 70 -263847935 7 #
loop $-1 $-1 $115 $101 #
cone-surface $-1 0 0 0 1 -2.4380883878979701e-029 3.4914813388431298e-015 -1.7457406694215649e-013 -3.4914813388431349e-013 50 1 I I 0 1 50 forward I I I I #
attrib_hh_coedge_geombuild-attrib_entity_geombuild-individual_entity_attribute-attrib_HH-attrib $-1 $-1 $-1 $104 F #
coedge $274 $275 $104 $197 $276 reversed $65 $-1 #
coedge $277 $104 $275 $106 $180 reversed $65 $-1 #
edge $278 $204 -50 $182 50 $124 $279 forward 7 unknown #
attrib_hh_coedge_geombuild-attrib_entity_geombuild-individual_entity_attribute-attrib_HH-attrib $-1 $-1 $-1 $106 F #
edge $280 $182 17.500000000000036 $187 37.499999999999957 $106 $281 forward 7 unknown #
attrib_edge_convexity-kcp-attrib $-1 $282 $-1 $107 1 #
vertex $283 $107 $284 #
ellipse-curve $-1 50 -1.2190441939489851e-027 1.7457406694215649e-013 -1 2.4380883878979701e-029 -3.4914813388431298e-015 -1.047444401652939e-013 -2.094888803305881e-013 30 1 I I #
attrib_hh_coedge_geombuild-attrib_entity_geombuild-individual_entity_attribute-attrib_HH-attrib $-1 $-1 $-1 $109 F #
coedge $285 $193 $109 $275 $286 forward $173 $-1 #
attrib_edge_convexity-kcp-attrib $-1 $287 $-1 $110 1 #
vertex $288 $286 $289 #
ellipse-curve $-1 50 -1.2190441939489851e-027 1.7457406694215649e-013 1 -2.4380883878979701e-029 3.4914813388431298e-015 -1.7457406694215649e-013 -3.4914813388431349e-013 50 1 I I #
convexity-sys-attrib $-1 $290 $111 $70 #
attrib_hh_vertex_geombuild-attrib_entity_geombuild-individual_entity_attribute-attrib_HH-attrib $-1 $-1 $-1 $112 F #
point $-1 50 50 5.2372220082646993e-013 #
attrib_hh_coedge_geombuild-attrib_entity_geombuild-individual_entity_attribute-attrib_HH-attrib $-1 $-1 $-1 $115 F #
coedge $291 $115 $185 $118 $198 reversed $173 $-1 #
attrib_hh_edge_geombuild-attrib_entity_geombuild-individual_entity_attribute-attrib_HH-attrib $-1 $-1 $-1 $116 F #
straight-curve $-1 0 50 3.4914813388431349e-013 1 -2.4380883878979701e-029 3.4914813388431298e-015 I I #
attrib_hh_coedge_geombuild-attrib_entity_geombuild-individual_entity_attribute-attrib_HH-attrib $-1 $-1 $-1 $118 F #
coedge $292 $119 $118 $176 $276 forward $102 $-1 #
edge $293 $121 1.5707963267948966 $294 5.4977871437821362 $118 $295 forward 7 unknown #
attrib_hh_coedge_geombuild-attrib_entity_geombuild-individual_entity_attribute-attrib_HH-attrib $-1 $-1 $-1 $119 F #
attrib_hh_vertex_geombuild-attrib_entity_geombuild-individual_entity_attribute-attrib_HH-attrib $-1 $-1 $-1 $121 F #
point $-1 -50 50 1.74574066942157e-013 #
attrib_hh_coedge_geombuild-attrib_entity_geombuild-individual_entity_attribute-attrib_HH-attrib $-1 $-1 $-1 $124 F #
attrib_hh_edge_geombuild-attrib_entity_geombuild-individual_entity_attribute-attrib_HH-attrib $-1 $-1 $-1 $125 F #
vertex $296 $276 $297 #
ellipse-curve $-1 -50 1.2190441939489851e-027 -1.7457406694215649e-013 1 -2.4380883878979701e-029 3.4914813388431298e-015 -1.047444401652939e-013 -2.094888803305881e-013 30 1 I I #
face $298 $-1 $147 $17 $-1 $299 reversed single #
loop $-1 $-1 $222 $132 #
plane-surface $-1 0 50 0 0 -1 0 0 0 -1 forward_v I I I I #
coedge $-1 $300 $220 $223 $301 forward $133 $-1 #
coedge $-1 $226 $135 $136 $214 reversed $84 $-1 #
coedge $-1 $220 $300 $135 $212 reversed $133 $-1 #
edge $-1 $227 -42.677669529663717 $302 42.677669529663717 $211 $303 forward 7 unknown #
coedge $-1 $137 $136 $300 $304 forward $53 $-1 #
edge $-1 $218 -50.000000000000149 $302 50.000000000000149 $210 $305 forward 7 unknown #
coedge $-1 $223 $222 $137 $216 reversed $207 $-1 #
edge $-1 $306 -50.000000000000149 $217 50.000000000000149 $215 $307 forward 7 unknown #
vertex $-1 $139 $308 #
vertex $-1 $229 $309 #
straight-curve $-1 50.000000000000149 0 -42.677669529663717 0 -1 0 I I #
coedge $-1 $209 $211 $140 $221 reversed $133 $-1 #
edge $-1 $224 -50 $227 50 $220 $310 forward 7 unknown #
coedge $-1 $215 $141 $146 $230 forward $207 $-1 #
coedge $-1 $141 $215 $209 $301 reversed $207 $-1 #
vertex $-1 $142 $311 #
straight-curve $-1 0 50 42.677669529663717 -1 0 0 I I #
coedge $-1 $143 $210 $145 $229 reversed $84 $-1 #
vertex $-1 $221 $312 #
straight-curve $-1 0 -50 42.677669529663717 1 0 0 I I #
edge $-1 $148 -42.677669529663717 $218 42.677669529663717 $145 $313 forward 7 unknown #
edge $-1 $149 -42.677669529663717 $217 42.677669529663717 $146 $314 forward 7 unknown #
point $-1 50.000000000000149 -50 42.677669529663717 #
point $-1 50.000000000000149 50 42.677669529663717 #
face $-1 $315 $316 $19 $-1 $58 reversed single #
loop $-1 $-1 $254 $151 #
cone-surface $-1 49.999999999999972 1.7763568394002505e-015 7.3223304703366345 1 -2.4380883878979701e-029 3.4914813388431298e-015 -7.4065503932467709e-014 -21.213203435596625 21.213203435596224 1 I I 0 -1 29.999999999999996 forward I I I I #
coedge $-1 $244 $317 $266 $318 reversed $152 $-1 #
coedge $-1 $319 $154 $320 $321 forward $92 $-1 #
coedge $-1 $154 $319 $95 $163 forward $92 $-1 #
coedge $-1 $322 $323 $154 $240 forward $324 $-1 #
edge $-1 $325 -1.5707963267949037 $262 0 $239 $326 forward 7 unknown #
coedge $-1 $156 $155 $327 $328 reversed $57 $-1 #
coedge $-1 $329 $330 $331 $243 forward $332 $-1 #
edge $-1 $333 -100.00000000000011 $249 1.7763568394002505e-013 $242 $334 forward 7 unknown #
coedge $-1 $335 $236 $336 $245 reversed $152 $-1 #
edge $-1 $337 -75.000000000000142 $250 25.00000000000016 $336 $338 forward 7 unknown #
coedge $-1 $247 $157 $339 $340 reversed $248 $-1 #
coedge $-1 $157 $246 $329 $341 forward $248 $-1 #
loop $-1 $-1 $157 $342 #
vertex $-1 $343 $344 #
vertex $-1 $345 $346 #
ellipse-curve $-1 50.000000000000121 -2.6645352591003757e-015 7.3223304703366345 -1 0 0 -1.2075982095643699e-029 50 3.5260683262094972e-013 1 I I #
coedge $-1 $347 $348 $159 $253 forward $349 $-1 #
edge $-1 $262 -35.000000000000028 $256 -15.000000000000025 $252 $350 forward 7 unknown #
coedge $-1 $351 $160 $165 $267 reversed $234 $-1 #
coedge $-1 $160 $351 $347 $352 reversed $234 $-1 #
vertex $-1 $352 $353 #
straight-curve $-1 49.999999999999972 30 7.3223304703368335 -1 2.4380883878979701e-029 -3.4914813388431298e-015 I I #
coedge $-1 $354 $162 $348 $355 reversed $261 $-1 #
coedge $-1 $162 $354 $164 $265 forward $261 $-1 #
coedge $-1 $356 $357 $238 $163 reversed $358 $-1 #
loop $-1 $-1 $162 $359 #
vertex $-1 $360 $361 #
straight-curve $-1 24.999999999999972 50 7.3223304703368859 -1 0 -3.4914813388431298e-015 I I #
coedge $-1 $266 $164 $362 $345 reversed $166 $-1 #
edge $-1 $363 -42.677669529663717 $168 -7.3223304703369729 $164 $364 forward 7 unknown #
coedge $-1 $165 $264 $236 $318 forward $166 $-1 #
edge $-1 $365 -6.3159354289786607e-016 $167 3.9269908169872383 $165 $366 forward 7 unknown #
face $-1 $367 $166 $19 $-1 $368 reversed single #
point $-1 50.000000000000149 30 7.3223304703368335 #
edge $-1 $168 -7.3223304703369729 $369 42.677669529663717 $370 $364 forward 7 unknown #
point $-1 50.000000000000149 50 7.3223304703369729 #
aggregate_simgeom_attribute-aggregate_simgeom_base_attribute-aggregate_body_attribute-attrib_HH-attrib $-1 $-1 $170 $0 F #
attrib_hh_face_geombuild-attrib_entity_geombuild-individual_entity_attribute-attrib_HH-attrib $-1 $-1 $172 $101 F #
attrib_hh_coedge_geombuild-attrib_entity_geombuild-individual_entity_attribute-attrib_HH-attrib $-1 $-1 $-1 $176 F #
coedge $371 $177 $176 $185 $286 reversed $65 $-1 #
edge $372 $294 -37.499999999999957 $204 -17.500000000000036 $197 $373 forward 7 unknown #
attrib_hh_coedge_geombuild-attrib_entity_geombuild-individual_entity_attribute-attrib_HH-attrib $-1 $-1 $-1 $177 F #
attrib_hh_edge_geombuild-attrib_entity_geombuild-individual_entity_attribute-attrib_HH-attrib $-1 $-1 $-1 $178 F #
straight-curve $-1 -7.406550393246781e-014 -21.21320343559665 21.213203435596252 1 -2.4380883878979701e-029 3.4914813388431298e-015 I I #
attrib_edge_convexity-kcp-attrib $-1 $374 $-1 $180 1 #
straight-curve $-1 49.999999999999972 -8.8388347648319225 8.8388347648319421 -2.4688501310822578e-015 -0.7071067811865539 0.70710678118654113 I I #
convexity-sys-attrib $-1 $375 $181 $107 #
attrib_hh_vertex_geombuild-attrib_entity_geombuild-individual_entity_attribute-attrib_HH-attrib $-1 $-1 $-1 $182 F #
point $-1 49.999999999999929 -21.21320343559665 21.213203435596427 #
attrib_hh_coedge_geombuild-attrib_entity_geombuild-individual_entity_attribute-attrib_HH-attrib $-1 $-1 $-1 $185 F #
edge $376 $187 -50 $294 50 $185 $377 forward 7 unknown #
convexity-sys-attrib $-1 $378 $186 $110 #
attrib_hh_vertex_geombuild-attrib_entity_geombuild-individual_entity_attribute-attrib_HH-attrib $-1 $-1 $-1 $187 F #
point $-1 49.999999999999879 -35.355339059327648 35.355339059327228 #
attrib_hh_edge_geombuild-attrib_entity_geombuild-individual_entity_attribute-attrib_HH-attrib $-1 $-1 $189 $70 F #
attrib_hh_coedge_geombuild-attrib_entity_geombuild-individual_entity_attribute-attrib_HH-attrib $-1 $-1 $-1 $193 F #
attrib_hh_coedge_geombuild-attrib_entity_geombuild-individual_entity_attribute-attrib_HH-attrib $-1 $-1 $-1 $197 F #
attrib_hh_edge_geombuild-attrib_entity_geombuild-individual_entity_attribute-attrib_HH-attrib $-1 $-1 $-1 $198 F #
vertex $379 $198 $380 #
ellipse-curve $-1 -50 1.2190441939489851e-027 -1.7457406694215649e-013 -1 2.4380883878979701e-029 -3.4914813388431298e-015 -1.7457406694215649e-013 -3.4914813388431349e-013 50 1 I I #
attrib_hh_vertex_geombuild-attrib_entity_geombuild-individual_entity_attribute-attrib_HH-attrib $-1 $-1 $-1 $204 F #
point $-1 -50.000000000000071 -21.21320343559665 21.213203435596078 #
model_id-kcp-attrib $-1 $-1 $-1 $206 1 1017635164 70 -263847934 2 #
plane-surface $-1 50.000000000000149 0 0 -1 0 0 0 0 1 forward_v I I I I #
coedge $-1 $211 $209 $213 $304 reversed $133 $-1 #
edge $-1 $224 -42.677669529663717 $306 42.677669529663717 $223 $381 forward 7 unknown #
vertex $-1 $304 $382 #
straight-curve $-1 -50.000000000000149 -50 0 0 0 -1 I I #
edge $-1 $302 -50 $306 50 $300 $383 forward 7 unknown #
straight-curve $-1 0 -50 -42.677669529663717 -1 0 0 I I #
vertex $-1 $216 $384 #
straight-curve $-1 0 50 -42.677669529663717 1 0 0 I I #
point $-1 50.000000000000149 50 -42.677669529663717 #
point $-1 50.000000000000149 -50 -42.677669529663717 #
straight-curve $-1 -50.000000000000149 0 42.677669529663717 0 -1 0 I I #
point $-1 -50.000000000000149 50 42.677669529663717 #
point $-1 -50.000000000000149 -50 42.677669529663717 #
straight-curve $-1 50.000000000000149 -50 0 0 0 -1 I I #
straight-curve $-1 50.000000000000149 50 0 0 0 -1 I I #
face $-1 $385 $358 $19 $-1 $386 reversed single #
loop $-1 $-1 $387 $233 #
coedge $-1 $236 $335 $351 $388 reversed $152 $-1 #
edge $-1 $250 -27.588834764831976 $365 -7.5888347648319758 $266 $389 forward 7 unknown #
coedge $-1 $238 $237 $390 $391 reversed $92 $-1 #
coedge $-1 $387 $392 $393 $321 reversed $316 $-1 #
edge $-1 $325 -100.00000000000028 $394 7.1054273576010019e-015 $393 $395 forward 7 unknown #
coedge $-1 $323 $239 $357 $360 forward $324 $-1 #
coedge $-1 $239 $322 $396 $397 reversed $324 $-1 #
loop $-1 $-1 $239 $398 #
vertex $-1 $397 $399 #
ellipse-curve $-1 -50.000000000000171 -2.6645352590979377e-015 7.3223304703362855 1 0 0 -1.2075982095643699e-029 50 3.5260683262094972e-013 1 I I #
coedge $-1 $400 $401 $241 $328 forward $402 $-1 #
edge $-1 $337 2.3561944901923466 $333 3.141592653589786 $327 $326 forward 7 unknown #
coedge $-1 $403 $242 $247 $341 reversed $332 $-1 #
coedge $-1 $242 $403 $400 $404 forward $332 $-1 #
coedge $-1 $405 $406 $407 $243 reversed $408 $-1 #
loop $-1 $-1 $242 $409 #
vertex $-1 $410 $411 #
straight-curve $-1 49.999999999999972 -50 7.3223304703366345 1 -2.4380883878979701e-029 3.4914813388431298e-015 I I #
coedge $-1 $317 $244 $412 $413 reversed $152 $-1 #
coedge $-1 $362 $414 $415 $245 forward $416 $-1 #
vertex $-1 $417 $418 #
straight-curve $-1 24.999999999999989 -35.355339059327811 42.677669529663717 1 3.4914813388431685e-015 0 I I #
coedge $-1 $415 $419 $246 $340 forward $420 $-1 #
edge $-1 $421 -50 $250 -35.355339059327719 $246 $422 forward 7 unknown #
edge $-1 $421 -42.677669529663717 $249 -7.3223304703366345 $247 $423 forward 7 unknown #
face $-1 $268 $248 $19 $-1 $368 reversed single #
edge $-1 $249 -7.3223304703366345 $424 42.677669529663717 $425 $423 forward 7 unknown #
point $-1 50.000000000000149 -50 7.3223304703366345 #
edge $-1 $250 -35.355339059327719 $363 50 $264 $422 forward 7 unknown #
point $-1 50.000000000000149 -35.355339059327719 42.677669529663717 #
coedge $-1 $412 $252 $255 $352 forward $349 $-1 #
coedge $-1 $252 $426 $258 $355 forward $349 $-1 #
loop $-1 $-1 $252 $427 #
straight-curve $-1 -50.000000000000149 14.999999999999975 7.3223304703363796 0 -1 -6.9722005946459828e-015 I I #
coedge $-1 $255 $254 $317 $388 forward $234 $-1 #
edge $-1 $256 2.3561944901923479 $428 6.2831853071795871 $347 $429 forward 7 unknown #
point $-1 -50.000000000000142 30 7.3223304703364844 #
coedge $-1 $259 $258 $430 $431 reversed $261 $-1 #
edge $-1 $432 -42.677669529663717 $262 -7.3223304703366381 $258 $433 forward 7 unknown #
coedge $-1 $434 $260 $370 $270 forward $358 $-1 #
coedge $-1 $260 $434 $322 $360 reversed $358 $-1 #
loop $-1 $-1 $260 $315 #
face $-1 $-1 $261 $19 $-1 $386 reversed single #
edge $-1 $262 -7.3223304703366381 $435 42.677669529663717 $357 $433 forward 7 unknown #
point $-1 -50.000000000000142 50 7.3223304703366381 #
coedge $-1 $430 $336 $264 $345 forward $416 $-1 #
vertex $-1 $345 $436 #
straight-curve $-1 50.000000000000149 50 0 0 0 -1 I I #
vertex $-1 $318 $437 #
ellipse-curve $-1 50.000000000000121 1.7763568394002505e-015 7.3223304703366345 1 0 0 -7.4065503932467709e-014 -21.213203435596625 21.213203435596224 1 I I #
face $-1 $438 $439 $19 $-1 $368 reversed single #
plane-surface $-1 50.000000000000149 0 0 -1 0 0 0 0 1 forward_v I I I I #
vertex $-1 $440 $441 #
coedge $-1 $390 $442 $356 $270 reversed $439 $-1 #
attrib_hh_coedge_geombuild-attrib_entity_geombuild-individual_entity_attribute-attrib_HH-attrib $-1 $-1 $-1 $275 F #
attrib_hh_edge_geombuild-attrib_entity_geombuild-individual_entity_attribute-attrib_HH-attrib $-1 $-1 $-1 $276 F #
straight-curve $-1 -50.000000000000028 -8.8388347648319225 8.8388347648315939 2.4688501310822578e-015 0.7071067811865539 -0.70710678118654113 I I #
convexity-sys-attrib $-1 $443 $280 $180 #
attrib_hh_edge_geombuild-attrib_entity_geombuild-individual_entity_attribute-attrib_HH-attrib $-1 $-1 $282 $107 F #
attrib_hh_edge_geombuild-attrib_entity_geombuild-individual_entity_attribute-attrib_HH-attrib $-1 $-1 $-1 $286 F #
straight-curve $-1 -1.2344250655411288e-013 -35.355339059327648 35.355339059327051 -1 2.4380883878979701e-029 -3.4914813388431298e-015 I I #
attrib_hh_edge_geombuild-attrib_entity_geombuild-individual_entity_attribute-attrib_HH-attrib $-1 $-1 $287 $110 F #
attrib_hh_vertex_geombuild-attrib_entity_geombuild-individual_entity_attribute-attrib_HH-attrib $-1 $-1 $-1 $294 F #
point $-1 -50.000000000000121 -35.355339059327648 35.355339059326873 #
straight-curve $-1 -50.000000000000149 50 0 0 0 -1 I I #
point $-1 -50.000000000000149 -50 -42.677669529663717 #
straight-curve $-1 -50.000000000000149 0 -42.677669529663717 0 1 0 I I #
point $-1 -50.000000000000149 50 -42.677669529663717 #
face $-1 $342 $444 $19 $-1 $445 reversed single #
plane-surface $-1 0 50 0 0 -1 0 0 0 -1 forward_v I I I I #
coedge $-1 $407 $320 $446 $447 reversed $316 $-1 #
edge $-1 $365 -2.4868995751603507e-013 $428 100.00000000000006 $317 $448 forward 7 unknown #
straight-curve $-1 50.000000000000149 -15.847086912079684 23.169417382416039 0 0.70710678118655401 -0.70710678118654113 I I #
coedge $-1 $442 $370 $319 $391 forward $439 $-1 #
edge $-1 $168 2.8421709430404008e-016 $394 1.5707963267949037 $390 $251 forward 7 unknown #
coedge $-1 $320 $407 $449 $450 reversed $316 $-1 #
coedge $-1 $451 $452 $453 $321 forward $444 $-1 #
vertex $-1 $454 $455 #
straight-curve $-1 50.000000000000142 -2.6645352591003757e-015 -42.677669529663717 1 -2.4380883878979701e-029 3.4914813388431298e-015 I I #
coedge $-1 $456 $453 $323 $397 forward $457 $-1 #
edge $-1 $325 -2.6645352590979377e-015 $435 50 $323 $458 forward 7 unknown #
face $-1 $427 $324 $19 $-1 $459 reversed single #
point $-1 -50.000000000000142 -2.6645352590979377e-015 -42.67766952966371 #
coedge $-1 $401 $327 $330 $404 reversed $402 $-1 #
coedge $-1 $327 $400 $460 $417 reversed $402 $-1 #
loop $-1 $-1 $327 $461 #
coedge $-1 $330 $329 $419 $462 reversed $332 $-1 #
edge $-1 $463 -42.677669529663717 $333 -7.3223304703362855 $400 $464 forward 7 unknown #
coedge $-1 $465 $331 $466 $410 forward $408 $-1 #
coedge $-1 $331 $465 $425 $343 reversed $408 $-1 #
coedge $-1 $392 $387 $155 $243 forward $316 $-1 #
loop $-1 $-1 $331 $467 #
face $-1 $359 $332 $19 $-1 $468 reversed single #
edge $-1 $333 -7.3223304703362855 $469 42.677669529663717 $466 $464 forward 7 unknown #
point $-1 -50.000000000000142 -50 7.3223304703362855 #
coedge $-1 $426 $347 $335 $413 forward $349 $-1 #
edge $-1 $428 7.5888347648317325 $337 27.588834764832221 $412 $470 forward 7 unknown #
coedge $-1 $336 $430 $426 $471 forward $416 $-1 #
coedge $-1 $460 $339 $156 $245 reversed $420 $-1 #
loop $-1 $-1 $336 $472 #
edge $-1 $337 35.355339059328067 $463 50 $401 $473 forward 7 unknown #
point $-1 -50.000000000000149 -35.355339059328067 42.677669529663717 #
coedge $-1 $339 $460 $403 $462 forward $420 $-1 #
loop $-1 $-1 $415 $474 #
vertex $-1 $340 $475 #
straight-curve $-1 50.000000000000149 0 42.677669529663717 0 1 0 I I #
straight-curve $-1 50.000000000000149 -50 0 0 0 -1 I I #
vertex $-1 $343 $476 #
coedge $-1 $477 $449 $406 $343 forward $478 $-1 #
coedge $-1 $348 $412 $414 $471 reversed $349 $-1 #
face $-1 $461 $349 $19 $-1 $459 reversed single #
vertex $-1 $413 $479 #
ellipse-curve $-1 -50.000000000000171 1.7763568394026884e-015 7.3223304703362855 -1 0 0 -7.4065503932467709e-014 -21.213203435596625 21.213203435596224 1 I I #
coedge $-1 $414 $362 $354 $431 forward $416 $-1 #
edge $-1 $363 -50.000000000000149 $432 50.000000000000149 $354 $480 forward 7 unknown #
vertex $-1 $431 $481 #
straight-curve $-1 -50.000000000000149 50 0 0 0 -1 I I #
coedge $-1 $357 $356 $456 $482 reversed $358 $-1 #
vertex $-1 $482 $483 #
point $-1 50.000000000000149 50 42.677669529663717 #
point $-1 50.000000000000149 -21.21320343559664 28.535533905932901 #
face $-1 $474 $478 $19 $-1 $368 reversed single #
loop $-1 $-1 $390 $367 #
edge $-1 $369 -50 $394 2.6645352591003757e-015 $442 $484 forward 7 unknown #
point $-1 50.000000000000149 50 -42.677669529663717 #
coedge $-1 $370 $390 $485 $440 reversed $439 $-1 #
attrib_hh_edge_geombuild-attrib_entity_geombuild-individual_entity_attribute-attrib_HH-attrib $-1 $-1 $374 $180 F #
loop $-1 $-1 $393 $385 #
plane-surface $-1 0 0 -42.677669529663717 0 0 1 1 0 0 forward_v I I I I #
coedge $-1 $486 $466 $387 $447 forward $487 $-1 #
edge $-1 $333 -3.1415926535898002 $325 -1.5707963267949037 $446 $326 forward 7 unknown #
straight-curve $-1 49.999999999999901 -21.21320343559664 28.535533905932901 -1 2.4380883878979701e-029 -3.4914813388431298e-015 I I #
coedge $-1 $425 $477 $392 $450 forward $478 $-1 #
edge $-1 $394 1.5707963267949037 $249 3.1415926535898002 $449 $251 forward 7 unknown #
coedge $-1 $488 $393 $477 $454 forward $444 $-1 #
coedge $-1 $393 $488 $486 $489 forward $444 $-1 #
coedge $-1 $396 $485 $237 $321 reversed $457 $-1 #
edge $-1 $394 2.6645352591003757e-015 $424 50 $477 $484 forward 7 unknown #
point $-1 50.000000000000149 -2.6645352591003757e-015 -42.677669529663717 #
coedge $-1 $485 $396 $434 $482 forward $457 $-1 #
loop $-1 $-1 $453 $490 #
straight-curve $-1 -50.000000000000149 0 -42.677669529663717 0 1 0 I I #
plane-surface $-1 -50.000000000000149 0 0 1 0 0 0 0 -1 forward_v I I I I #
coedge $-1 $419 $415 $401 $417 forward $420 $-1 #
face $-1 $467 $402 $19 $-1 $459 reversed single #
edge $-1 $463 -50.000000000000149 $421 50.000000000000149 $403 $491 forward 7 unknown #
vertex $-1 $417 $492 #
straight-curve $-1 -50.000000000000149 -50 0 0 0 -1 I I #
coedge $-1 $406 $405 $488 $493 reversed $408 $-1 #
coedge $-1 $446 $486 $405 $410 reversed $487 $-1 #
face $-1 $472 $408 $19 $-1 $468 reversed single #
plane-surface $-1 0 -50 0 0 1 0 0 0 1 forward_v I I I I #
vertex $-1 $489 $494 #
straight-curve $-1 -50.000000000000142 -15.847086912079858 23.169417382415862 0 -0.70710678118655401 0.70710678118654113 I I #
edge $-1 $432 -50 $337 35.355339059328067 $426 $473 forward 7 unknown #
face $-1 $490 $416 $19 $-1 $495 forward single #
straight-curve $-1 -50.000000000000149 0 42.677669529663717 0 -1 0 I I #
face $-1 $496 $420 $19 $-1 $495 forward single #
point $-1 50.000000000000149 -50 42.677669529663717 #
point $-1 50.000000000000149 -50 -42.677669529663717 #
coedge $-1 $449 $425 $451 $454 reversed $478 $-1 #
loop $-1 $-1 $449 $438 #
point $-1 -50.000000000000156 -21.21320343559664 28.535533905932553 #
straight-curve $-1 0 50 42.677669529663717 -1 0 0 I I #
point $-1 -50.000000000000149 50 42.677669529663717 #
edge $-1 $435 -50.000000000000149 $369 50.000000000000149 $434 $497 forward 7 unknown #
point $-1 -50.000000000000149 50 -42.677669529663717 #
straight-curve $-1 50.000000000000149 0 -42.677669529663717 0 -1 0 I I #
coedge $-1 $453 $456 $442 $440 forward $457 $-1 #
coedge $-1 $466 $446 $452 $489 reversed $487 $-1 #
loop $-1 $-1 $446 $496 #
coedge $-1 $452 $451 $465 $493 forward $444 $-1 #
edge $-1 $469 -50 $325 -2.6645352590979377e-015 $486 $458 forward 7 unknown #
face $-1 $409 $457 $19 $-1 $445 reversed single #
straight-curve $-1 0 -50 42.677669529663717 1 0 0 I I #
point $-1 -50.000000000000149 -50 42.677669529663717 #
edge $-1 $424 -50.000000000000149 $469 50.000000000000149 $465 $498 forward 7 unknown #
point $-1 -50.000000000000149 -50 -42.677669529663717 #
plane-surface $-1 0 0 42.677669529663717 0 0 1 1 0 0 forward_v I I I I #
face $-1 $398 $487 $19 $-1 $459 reversed single #
straight-curve $-1 0 50 -42.677669529663717 1 0 0 I I #
straight-curve $-1 0 -50 -42.677669529663717 -1 0 0 I I #
End-of-ACIS-data 