  0
SECTION
  2
HEADER
  9
$ACADVER
  1
AC1009
  9
$INSBASE
 10
0.0
 20
0.0
 30
0.0
  9
$EXTMIN
 10
-1.0
 20
-1.0
 30
-1.0
  9
$EXTMAX
 10
7.0
 20
7.0
 30
6.0
  9
$LIMMIN
 10
0.0
 20
0.0
  9
$LIMMAX
 10
12.0
 20
9.0
  9
$ORTHOMODE
 70
     0
  9
$REGENMODE
 70
     1
  9
$FILLMODE
 70
     1
  9
$QTEXTMODE
 70
     0
  9
$MIRRTEXT
 70
     1
  9
$DRAGMODE
 70
     2
  9
$LTSCALE
 40
1.0
  9
$OSMODE
 70
     0
  9
$ATTMODE
 70
     1
  9
$TEXTSIZE
 40
0.2
  9
$TRACEWID
 40
0.05
  9
$TEXTSTYLE
  7
STANDARD
  9
$CLAYER
  8
0
  9
$CELTYPE
  6
BYLAYER
  9
$CECOLOR
 62
   256
  9
$DIMSCALE
 40
1.0
  9
$DIMASZ
 40
0.18
  9
$DIMEXO
 40
0.0625
  9
$DIMDLI
 40
0.38
  9
$DIMRND
 40
0.0
  9
$DIMDLE
 40
0.0
  9
$DIMEXE
 40
0.18
  9
$DIMTP
 40
0.0
  9
$DIMTM
 40
0.0
  9
$DIMTXT
 40
0.18
  9
$DIMCEN
 40
0.09
  9
$DIMTSZ
 40
0.0
  9
$DIMTOL
 70
     0
  9
$DIMLIM
 70
     0
  9
$DIMTIH
 70
     1
  9
$DIMTOH
 70
     1
  9
$DIMSE1
 70
     0
  9
$DIMSE2
 70
     0
  9
$DIMTAD
 70
     0
  9
$DIMZIN
 70
     0
  9
$DIMBLK
  1

  9
$DIMASO
 70
     1
  9
$DIMSHO
 70
     1
  9
$DIMPOST
  1

  9
$DIMAPOST
  1

  9
$DIMALT
 70
     0
  9
$DIMALTD
 70
     2
  9
$DIMALTF
 40
25.4
  9
$DIMLFAC
 40
1.0
  9
$DIMTOFL
 70
     0
  9
$DIMTVP
 40
0.0
  9
$DIMTIX
 70
     0
  9
$DIMSOXD
 70
     0
  9
$DIMSAH
 70
     0
  9
$DIMBLK1
  1

  9
$DIMBLK2
  1

  9
$DIMSTYLE
  2
*UNNAMED
  9
$DIMCLRD
 70
     0
  9
$DIMCLRE
 70
     0
  9
$DIMCLRT
 70
     0
  9
$DIMTFAC
 40
1.0
  9
$DIMGAP
 40
0.09
  9
$LUNITS
 70
     2
  9
$LUPREC
 70
     4
  9
$SKETCHINC
 40
0.1
  9
$FILLETRAD
 40
0.0
  9
$AUNITS
 70
     0
  9
$AUPREC
 70
     0
  9
$MENU
  1
acad
  9
$ELEVATION
 40
0.0
  9
$PELEVATION
 40
0.0
  9
$THICKNESS
 40
0.0
  9
$LIMCHECK
 70
     0
  9
$BLIPMODE
 70
     1
  9
$CHAMFERA
 40
0.0
  9
$CHAMFERB
 40
0.0
  9
$SKPOLY
 70
     0
  9
$TDCREATE
 40
2449378.620524224
  9
$TDUPDATE
 40
2449378.626414317
  9
$TDINDWG
 40
0.0058900926
  9
$TDUSRTIMER
 40
0.0058900926
  9
$USRTIMER
 70
     1
  9
$ANGBASE
 50
0.0
  9
$ANGDIR
 70
     0
  9
$PDMODE
 70
     0
  9
$PDSIZE
 40
0.0
  9
$PLINEWID
 40
0.0
  9
$COORDS
 70
     1
  9
$SPLFRAME
 70
     0
  9
$SPLINETYPE
 70
     6
  9
$SPLINESEGS
 70
     8
  9
$ATTDIA
 70
     0
  9
$ATTREQ
 70
     1
  9
$HANDLING
 70
     1
  9
$HANDSEED
  5
EE
  9
$SURFTAB1
 70
     6
  9
$SURFTAB2
 70
     6
  9
$SURFTYPE
 70
     6
  9
$SURFU
 70
     6
  9
$SURFV
 70
     6
  9
$UCSNAME
  2

  9
$UCSORG
 10
0.0
 20
0.0
 30
0.0
  9
$UCSXDIR
 10
1.0
 20
0.0
 30
0.0
  9
$UCSYDIR
 10
0.0
 20
1.0
 30
0.0
  9
$PUCSNAME
  2

  9
$PUCSORG
 10
0.0
 20
0.0
 30
0.0
  9
$PUCSXDIR
 10
1.0
 20
0.0
 30
0.0
  9
$PUCSYDIR
 10
0.0
 20
1.0
 30
0.0
  9
$USERI1
 70
     0
  9
$USERI2
 70
     0
  9
$USERI3
 70
     0
  9
$USERI4
 70
     0
  9
$USERI5
 70
     0
  9
$USERR1
 40
0.0
  9
$USERR2
 40
0.0
  9
$USERR3
 40
0.0
  9
$USERR4
 40
0.0
  9
$USERR5
 40
0.0
  9
$WORLDVIEW
 70
     1
  9
$SHADEDGE
 70
     3
  9
$SHADEDIF
 70
    70
  9
$TILEMODE
 70
     1
  9
$MAXACTVP
 70
    16
  9
$PINSBASE
 10
0.0
 20
0.0
 30
0.0
  9
$PLIMCHECK
 70
     0
  9
$PEXTMIN
 10
1.000000E+20
 20
1.000000E+20
 30
1.000000E+20
  9
$PEXTMAX
 10
-1.000000E+20
 20
-1.000000E+20
 30
-1.000000E+20
  9
$PLIMMIN
 10
0.0
 20
0.0
  9
$PLIMMAX
 10
12.0
 20
9.0
  9
$UNITMODE
 70
     0
  9
$VISRETAIN
 70
     0
  9
$PLINEGEN
 70
     0
  9
$PSLTSCALE
 70
     1
  9
$TREEDEPTH
 70
  3020
  9
$DWGCODEPAGE
  3
ascii
  0
ENDSEC
  0
SECTION
  2
TABLES
  0
TABLE
  2
VPORT
 70
     2
  0
VPORT
  2
*ACTIVE
 70
     0
 10
0.0
 20
0.0
 11
1.0
 21
1.0
 12
1.931359
 22
0.550589
 13
0.0
 23
0.0
 14
1.0
 24
1.0
 15
0.0
 25
0.0
 16
1.0
 26
2.1
 36
1.1
 17
0.0
 27
0.0
 37
0.0
 40
10.886463
 41
1.594883
 42
50.0
 43
0.0
 44
0.0
 50
0.0
 51
0.0
 71
     0
 72
   100
 73
     1
 74
     1
 75
     0
 76
     0
 77
     0
 78
     0
  0
ENDTAB
  0
TABLE
  2
LTYPE
 70
     1
  0
LTYPE
  2
CONTINUOUS
 70
    64
  3
Solid line
 72
    65
 73
     0
 40
0.0
  0
ENDTAB
  0
TABLE
  2
LAYER
 70
     2
  0
LAYER
  2
0
 70
    64
 62
     7
  6
CONTINUOUS
  0
LAYER
  2
AME_FRZ
 70
    65
 62
     7
  6
CONTINUOUS
  0
ENDTAB
  0
TABLE
  2
STYLE
 70
     1
  0
STYLE
  2
STANDARD
 70
     0
 40
0.0
 41
1.0
 50
0.0
 71
     0
 42
0.2
  3
txt
  4

  0
ENDTAB
  0
TABLE
  2
VIEW
 70
     0
  0
ENDTAB
  0
TABLE
  2
UCS
 70
     0
  0
ENDTAB
  0
TABLE
  2
APPID
 70
     3
  0
APPID
  2
ACAD
 70
    64
  0
APPID
  2
AME_SOL
 70
    64
  0
APPID
  2
AVE_INVOKE
 70
    64
  0
ENDTAB
  0
TABLE
  2
DIMSTYLE
 70
     0
  0
ENDTAB
  0
ENDSEC
  0
SECTION
  2
BLOCKS
  0
BLOCK
  8
0
  5
1
  2
AME_NIL
 70
    64
 10
0.0
 20
0.0
 30
0.0
  1
AME_NIL
  3
AME_NIL
  0
ENDBLK
  8
0
  5
2
  0
BLOCK
  8
0
  5
4
  2
AME_SOL
 70
    64
 10
0.0
 20
0.0
 30
0.0
  1
AME_SOL
  3
AME_SOL
  0
ENDBLK
  8
0
  5
5
  0
BLOCK
  8
0
  5
41
  2
AME_JNK
 70
     0
 10
0.0
 20
0.0
 30
0.0
  1
AME_JNK
  3
AME_JNK
  0
ENDBLK
  8
0
  5
42
  0
BLOCK
  8
0
  5
A4
  2
SOLAXES
 70
     0
 10
0.0
 20
0.0
 30
0.0
  1
SOLAXES
  3
SOLAXES
  0
LINE
  8
0
 62
     0
  5
A5
 10
0.0
 20
0.0
 30
0.0
 11
2.970759
 21
0.0
 31
0.0
  0
LINE
  8
0
 62
     0
  5
A6
 10
0.0
 20
0.0
 30
0.0
 11
0.0
 21
2.970759
 31
0.0
  0
LINE
  8
0
 62
     0
  5
A7
 10
0.0
 20
0.0
 30
0.0
 11
0.0
 21
0.0
 31
2.970759
  0
CIRCLE
  8
0
 62
     0
  5
A8
 10
0.0
 20
0.0
 30
2.673683
 40
0.148538
210
1.0
220
0.0
230
0.0
  0
LINE
  8
0
 62
     0
  5
A9
 10
2.673683
 20
0.148538
 30
0.0
 11
2.970759
 21
0.0
 31
0.0
  0
LINE
  8
0
 62
     0
  5
AA
 10
2.673683
 20
0.0
 30
0.148538
 11
2.970759
 21
0.0
 31
0.0
  0
LINE
  8
0
 62
     0
  5
AB
 10
2.673683
 20
-0.148538
 30
0.0
 11
2.970759
 21
0.0
 31
0.0
  0
LINE
  8
0
 62
     0
  5
AC
 10
2.673683
 20
0.0
 30
-0.148538
 11
2.970759
 21
0.0
 31
0.0
  0
CIRCLE
  8
0
 62
     0
  5
AD
 10
0.0
 20
0.0
 30
2.673683
 40
0.148538
210
0.0
220
1.0
230
0.0
  0
LINE
  8
0
 62
     0
  5
AE
 10
0.148538
 20
2.673683
 30
0.0
 11
0.0
 21
2.970759
 31
0.0
  0
LINE
  8
0
 62
     0
  5
AF
 10
0.0
 20
2.673683
 30
0.148538
 11
0.0
 21
2.970759
 31
0.0
  0
LINE
  8
0
 62
     0
  5
B0
 10
-0.148538
 20
2.673683
 30
0.0
 11
0.0
 21
2.970759
 31
0.0
  0
LINE
  8
0
 62
     0
  5
B1
 10
0.0
 20
2.673683
 30
-0.148538
 11
0.0
 21
2.970759
 31
0.0
  0
CIRCLE
  8
0
 62
     0
  5
B2
 10
0.0
 20
0.0
 30
2.376607
 40
0.148538
210
0.0
220
1.0
230
0.0
  0
LINE
  8
0
 62
     0
  5
B3
 10
0.148538
 20
2.376607
 30
0.0
 11
0.0
 21
2.673683
 31
0.0
  0
LINE
  8
0
 62
     0
  5
B4
 10
0.0
 20
2.376607
 30
0.148538
 11
0.0
 21
2.673683
 31
0.0
  0
LINE
  8
0
 62
     0
  5
B5
 10
-0.148538
 20
2.376607
 30
0.0
 11
0.0
 21
2.673683
 31
0.0
  0
LINE
  8
0
 62
     0
  5
B6
 10
0.0
 20
2.376607
 30
-0.148538
 11
0.0
 21
2.673683
 31
0.0
  0
CIRCLE
  8
0
 62
     0
  5
B7
 10
0.0
 20
0.0
 30
2.673683
 40
0.148538
  0
LINE
  8
0
 62
     0
  5
B8
 10
0.148538
 20
0.0
 30
2.673683
 11
0.0
 21
0.0
 31
2.970759
  0
LINE
  8
0
 62
     0
  5
B9
 10
0.0
 20
0.148538
 30
2.673683
 11
0.0
 21
0.0
 31
2.970759
  0
LINE
  8
0
 62
     0
  5
BA
 10
-0.148538
 20
0.0
 30
2.673683
 11
0.0
 21
0.0
 31
2.970759
  0
LINE
  8
0
 62
     0
  5
BB
 10
0.0
 20
-0.148538
 30
2.673683
 11
0.0
 21
0.0
 31
2.970759
  0
CIRCLE
  8
0
 62
     0
  5
BC
 10
0.0
 20
0.0
 30
2.376607
 40
0.148538
  0
LINE
  8
0
 62
     0
  5
BD
 10
0.148538
 20
0.0
 30
2.376607
 11
0.0
 21
0.0
 31
2.673683
  0
LINE
  8
0
 62
     0
  5
BE
 10
0.0
 20
0.148538
 30
2.376607
 11
0.0
 21
0.0
 31
2.673683
  0
LINE
  8
0
 62
     0
  5
BF
 10
-0.148538
 20
0.0
 30
2.376607
 11
0.0
 21
0.0
 31
2.673683
  0
LINE
  8
0
 62
     0
  5
C0
 10
0.0
 20
-0.148538
 30
2.376607
 11
0.0
 21
0.0
 31
2.673683
  0
CIRCLE
  8
0
 62
     0
  5
C1
 10
0.0
 20
0.0
 30
2.079531
 40
0.148538
  0
LINE
  8
0
 62
     0
  5
C2
 10
0.148538
 20
0.0
 30
2.079531
 11
0.0
 21
0.0
 31
2.376607
  0
LINE
  8
0
 62
     0
  5
C3
 10
0.0
 20
0.148538
 30
2.079531
 11
0.0
 21
0.0
 31
2.376607
  0
LINE
  8
0
 62
     0
  5
C4
 10
-0.148538
 20
0.0
 30
2.079531
 11
0.0
 21
0.0
 31
2.376607
  0
LINE
  8
0
 62
     0
  5
C5
 10
0.0
 20
-0.148538
 30
2.079531
 11
0.0
 21
0.0
 31
2.376607
  0
ENDBLK
  8
0
  5
C6
  0
BLOCK
  8
0
  5
CA
  2
*U9
 70
    65
 10
0.0
 20
0.0
 30
0.0
  1
*U
  3
*U
  0
LINE
  8
0
 62
     7
  5
CB
 10
7.0
 20
7.0
 30
0.0
 11
7.0
 21
7.0
 31
6.0
1001
AME_SOL
1070
     1
1071
       32
  0
LINE
  8
0
 62
     7
  5
CC
 10
7.0
 20
7.0
 30
6.0
 11
7.0
 21
0.0
 31
6.0
1001
AME_SOL
1070
     1
1071
       31
  0
LINE
  8
0
 62
     7
  5
CD
 10
0.0
 20
7.0
 30
6.0
 11
7.0
 21
7.0
 31
6.0
1001
AME_SOL
1070
     1
1071
       30
  0
LINE
  8
0
 62
     7
  5
CE
 10
0.0
 20
7.0
 30
0.0
 11
0.0
 21
7.0
 31
6.0
1001
AME_SOL
1070
     1
1071
       29
  0
LINE
  8
0
 62
     7
  5
CF
 10
0.0
 20
7.0
 30
6.0
 11
0.0
 21
6.0
 31
6.0
1001
AME_SOL
1070
     1
1071
       28
  0
LINE
  8
0
 62
     7
  5
D0
 10
0.0
 20
6.0
 30
0.0
 11
0.0
 21
6.0
 31
6.0
1001
AME_SOL
1070
     1
1071
       27
  0
LINE
  8
0
 62
     7
  5
D1
 10
0.0
 20
6.0
 30
6.0
 11
6.0
 21
6.0
 31
6.0
1001
AME_SOL
1070
     1
1071
       26
  0
LINE
  8
0
 62
     7
  5
D2
 10
0.0
 20
7.0
 30
0.0
 11
0.0
 21
6.0
 31
0.0
1001
AME_SOL
1070
     1
1071
       25
  0
LINE
  8
0
 62
     7
  5
D3
 10
0.0
 20
6.0
 30
0.0
 11
6.0
 21
6.0
 31
0.0
1001
AME_SOL
1070
     1
1071
       24
  0
LINE
  8
0
 62
     7
  5
D4
 10
7.0
 20
0.0
 30
0.0
 11
7.0
 21
7.0
 31
0.0
1001
AME_SOL
1070
     1
1071
       23
  0
LINE
  8
0
 62
     7
  5
D5
 10
7.0
 20
7.0
 30
0.0
 11
0.0
 21
7.0
 31
0.0
1001
AME_SOL
1070
     1
1071
       22
  0
LINE
  8
0
 62
     7
  5
D6
 10
6.0
 20
0.0
 30
0.0
 11
6.0
 21
6.0
 31
0.0
1001
AME_SOL
1070
     1
1071
       21
  0
LINE
  8
0
 62
     7
  5
D7
 10
6.0
 20
6.0
 30
6.0
 11
6.0
 21
6.0
 31
0.0
1001
AME_SOL
1070
     1
1071
       20
  0
LINE
  8
0
 62
     7
  5
D8
 10
6.0
 20
6.0
 30
6.0
 11
6.0
 21
0.0
 31
6.0
1001
AME_SOL
1070
     1
1071
       19
  0
LINE
  8
0
 62
     7
  5
D9
 10
7.0
 20
0.0
 30
0.0
 11
6.0
 21
0.0
 31
0.0
1001
AME_SOL
1070
     1
1071
       18
  0
LINE
  8
0
 62
     7
  5
DA
 10
7.0
 20
0.0
 30
6.0
 11
7.0
 21
0.0
 31
0.0
1001
AME_SOL
1070
     1
1071
       17
  0
LINE
  8
0
 62
     7
  5
DB
 10
6.0
 20
0.0
 30
6.0
 11
7.0
 21
0.0
 31
6.0
1001
AME_SOL
1070
     1
1071
       16
  0
LINE
  8
0
 62
     7
  5
DC
 10
6.0
 20
0.0
 30
0.0
 11
6.0
 21
0.0
 31
6.0
1001
AME_SOL
1070
     1
1071
       15
  0
CIRCLE
  8
0
 62
     7
  5
DD
 10
-3.0
 20
3.0
 30
6.0
 40
1.0
210
0.0
220
1.0
230
0.0000000000000001
1001
AME_SOL
1070
     1
1071
       14
  0
CIRCLE
  8
0
 62
     7
  5
DE
 10
-3.0
 20
3.0
 30
7.0
 40
1.0
210
0.0
220
1.0
230
0.0000000000000001
1001
AME_SOL
1070
     1
1071
       13
  0
CIRCLE
  8
0
 62
     7
  5
DF
 10
3.0
 20
3.0
 30
7.0
 40
1.0
210
1.0
220
0.0
230
0.0000000000000001
1001
AME_SOL
1070
     1
1071
       12
  0
CIRCLE
  8
0
 62
     7
  5
E0
 10
3.0
 20
3.0
 30
6.0
 40
1.0
210
1.0
220
0.0
230
0.0000000000000001
1001
AME_SOL
1070
     1
1071
       11
  0
LINE
  8
0
 62
     7
  5
E1
 10
2.0
 20
6.0
 30
3.0
 11
2.0
 21
7.0
 31
3.0
1001
AME_SOL
1070
     0
1071
        2
  0
LINE
  8
0
 62
     7
  5
E2
 10
3.0
 20
6.0
 30
4.0
 11
3.0
 21
7.0
 31
4.0
1001
AME_SOL
1070
     0
1071
        2
  0
LINE
  8
0
 62
     7
  5
E3
 10
4.0
 20
6.0
 30
3.0
 11
4.0
 21
7.0
 31
3.0
1001
AME_SOL
1070
     0
1071
        2
  0
LINE
  8
0
 62
     7
  5
E4
 10
3.0
 20
6.0
 30
2.0
 11
3.0
 21
7.0
 31
2.0
1001
AME_SOL
1070
     0
1071
        2
  0
LINE
  8
0
 62
     7
  5
E5
 10
6.0
 20
3.0
 30
4.0
 11
7.0
 21
3.0
 31
4.0
1001
AME_SOL
1070
     0
1071
        1
  0
LINE
  8
0
 62
     7
  5
E6
 10
6.0
 20
2.0
 30
3.0
 11
7.0
 21
2.0
 31
3.0
1001
AME_SOL
1070
     0
1071
        1
  0
LINE
  8
0
 62
     7
  5
E7
 10
6.0
 20
3.0
 30
2.0
 11
7.0
 21
3.0
 31
2.0
1001
AME_SOL
1070
     0
1071
        1
  0
LINE
  8
0
 62
     7
  5
E8
 10
6.0
 20
4.0
 30
3.0
 11
7.0
 21
4.0
 31
3.0
1001
AME_SOL
1070
     0
1071
        1
  0
ENDBLK
  8
0
  5
E9
  0
ENDSEC
  0
SECTION
  2
ENTITIES
  0
INSERT
  8
AME_FRZ
  5
3
  2
AME_NIL
 10
0.0
 20
0.0
 30
0.0
  0
INSERT
  8
AME_FRZ
  5
6
  2
AME_SOL
 10
0.0
 20
0.0
 30
0.0
1001
AME_SOL
1000
R2.1
1000
AME2
1000
sq cm
1070
     3
1070
     0
1070
     3
1000
wire
1040
45.0
1000
U
1040
1.0
1000
cm
1000
gm
1000
MILD_STEEL
1070
    25
1000
CSG
1070
     1
1070
     3
1070
     3
1070
     3
1070
     0
1000
cu cm
1070
     1
1070
     0
1005
3
  0
INSERT
  8
AME_FRZ
  5
15
  2
AME_NIL
 10
0.0
 20
6.0
 30
0.0
1001
AME_SOL
1002
{
1070
     1
1071
  2485688
1070
  1536
1070
     1
1010
7.0
1020
1.0
1030
6.0
1005
0
1005
0
1005
3E
1040
0.0
1040
1.0
1070
     0
1000
MILD_STEEL
1000
0
1010
0.0
1020
6.0
1030
0.0
1010
0.0
1020
0.0
1030
1.0
1040
0.0
1002
}
1001
AVE_INVOKE
1000
SOLAVEMESH
  0
INSERT
  8
AME_FRZ
  5
26
  2
AME_NIL
 10
6.0
 20
0.0
 30
0.0
1001
AME_SOL
1002
{
1070
     1
1071
  2471616
1070
  1536
1070
     1
1010
1.0
1020
7.0
1030
6.0
1005
0
1005
0
1005
3E
1040
0.0
1040
1.0
1070
     0
1000
MILD_STEEL
1000
0
1010
6.0
1020
0.0
1030
0.0
1010
0.0
1020
0.0
1030
1.0
1040
0.0
1002
}
1001
AVE_INVOKE
1000
SOLAVEMESH
  0
INSERT
  8
AME_FRZ
  5
3E
  2
AME_NIL
 10
0.0
 20
0.0
 30
0.0
1001
AME_SOL
1002
{
1070
     1
1071
  2451520
1070
  1543
1070
     1
1070
     2
1005
15
1005
26
1005
0
1005
0
1005
EA
1040
0.0
1040
1.0
1070
     0
1000
MILD_STEEL
1000
0
1010
0.0
1020
0.0
1030
0.0
1010
0.0
1020
0.0
1030
1.0
1040
0.0
1002
}
1001
AVE_INVOKE
1000
SOLAVEMESH
  0
INSERT
  8
AME_FRZ
  5
4D
  2
AME_NIL
 10
-3.0
 20
3.0
 30
6.0
 50
180.0
210
0.0
220
1.0
230
0.0000000000000001
1001
AME_SOL
1002
{
1070
     1
1071
  2474608
1070
  1538
1070
     1
1010
1.0
1020
1.0
1030
1.0
1005
0
1005
0
1005
C8
1040
0.0
1040
1.0
1070
     0
1000
MILD_STEEL
1000
0
1010
-3.0
1020
3.0
1030
6.0
1010
0.0
1020
1.0
1030
0.0
1040
3.141593
1002
}
1001
AVE_INVOKE
1000
SOLAVEMESH
  0
INSERT
  8
AME_FRZ
  5
A1
  2
AME_NIL
 10
3.0
 20
3.0
 30
6.0
 50
270.0
210
1.0
220
0.0
230
0.0000000000000001
1001
AME_SOL
1002
{
1070
     1
1071
  2473616
1070
  1538
1070
     1
1010
1.0
1020
1.0
1030
1.0
1005
0
1005
0
1005
C8
1040
0.0
1040
1.0
1070
     0
1000
MILD_STEEL
1000
0
1010
3.0
1020
3.0
1030
6.0
1010
1.0
1020
0.0
1030
0.0
1040
4.712389
1002
}
  0
INSERT
  8
AME_FRZ
  5
C8
  2
AME_NIL
 10
0.0
 20
0.0
 30
0.0
1001
AME_SOL
1002
{
1070
     1
1071
  2426968
1070
   775
1070
     0
1070
     2
1005
4D
1005
A1
1005
0
1005
0
1005
EA
1040
0.0
1040
1.0
1070
     0
1000
MILD_STEEL
1000
0
1010
0.0
1020
0.0
1030
0.0
1010
0.0
1020
0.0
1030
1.0
1040
0.0
1002
}
  0
INSERT
  8
0
  5
EA
  2
*U9
 10
0.0
 20
0.0
 30
0.0
1001
AME_SOL
1002
{
1070
     1
1071
  2423960
1070
  1543
1070
     1
1070
     0
1005
3E
1005
C8
1005
0
1005
EB
1005
0
1040
0.0
1040
1.0
1070
     0
1000
MILD_STEEL
1000
0
1002
}
1001
AVE_INVOKE
1000
SOLAVEMESH
  0
INSERT
  8
AME_FRZ
  5
EB
  2
AME_NIL
 10
1.0
 20
1.0
 30
1.0
1001
AME_SOL
1004
C7CF0100110188018701850181017A016E01EF0018000100FF0082017B016F01BF005E011C004A01FB000500700124005F014B0184001B004C01EE00380126011C010C0012008800BC007C01710102000800720160019500810061012300CC00860183017D01730162014D01170062004E013C00CE006301
1004
4F012A00A6005001720039015F00A1007401640151013A019100AA003B012100790052013C012D00270160000B003D0128016D003300290137003900650153013E012A01D1007A002B0177001D01030007003F012C011E011A0027001F01110106000F001201190048002D01200113015200590014010101
1004
0A0000010201EC009300210115010301EB002F0004013800980016010501D80045000601470049005401C000B9007E0175016601550140012E012201170107014A004B0008014F00500018010901510078000A015300C800230119010B015A00A9000C015B005C001A010D015D005E000E01B800C2004D00
1004
2500560141015400440042010900E00067011000110076013F006801570143012800EA00A80058014E004401A0002F012C00430084017F01400077016901FE00DF006A0159014501300124011B010F01C10068001001BE00BD00F10004003101FC00F20035006600800178016B01CA0075006C015A019900
1004
F7005B01960080007901F0006D015C014601A40032015800BA00470133011300700034013000E4005D0148013501E2002501B300F80036016700DC0049013701D400E100E80000005CA665CA665049306D9088E9B0EA9B48784F1F68D4E1D20278FB46A70E9013C7DA353874856DC407069262B6E2038349
1004
315B7101C1A0B03C99B33203A5536BAA0313DFA318FE3F62B27BF4631FC7EC5656DC407069262B6E203835530BCB7101C1AA981AE578BD7E454470D3721D72BDFD152085F49A44BFFBC474A92E4B54297FEF2DF49A44BFF82CFCD67E6B09FFBCB7EF2DFFFFFEB95EFE8A9042FA4D225FFDE23A549725AA14
1004
BFF796FA4D225FFC167E6B3F3584FFDE5BF796FFFFFDE2142B9F7673FD152085F49A44BFFBC474A92E4B54297FEF2DF49A44BFF82CFD53133FCD619432975111905CB5432975111905CA3BFCCE8652EA22320B96BFE1FBCB2194BA888C82E51C1FFE1FBCB194C1A08A60D0443FFC3F79650AE43DD9CFF454
1004
8217D26912FFEF11D2A4B92D50A5FFBCB7D26912FFE0B3F3582222222B19432975111905CB5432975111905CA3BFCCE8652EA22320B96BFE1FBCB2194BA888C82E51C1FFE1FBCB194C1A08A60D0443FFC3F79650AE4CEECE7FA2A410BE934897FF788E9525C96A852FFDE5BE934897FF0582222222B29BE6
1004
B0CA194BA888C82E5AA194BA888C82E51DFE67432975111905CB5FF0FDE590CA5D444641728E0FFF0FDE58CA60D0453068221FFE1FBCB2857299BBB39FE8A9042FA4D225FFDE23A549725AA14BFF796FA4D225FFC162AF9ACFD530CA194BA888C82E5AA194BA888C82E51DFE67432975111905CB5FF0FDE5
1004
90CA5D444641728E0FFF0FDE58CA60D0453068221FFE1FBCB13366653DFA318FE3F62B00E954DAEA80C4F7E8C63F8FD8ACADB880E0D54C56DC407069262B6E20383553035CAF2F9B09511C34DB875CAF7FBCB76262992FE9FF4547A17D151E85F4548217EF11F9ACFC167E6B09FFBCB7EF2DFFFFFEB95EFF
1004
796EC4C5325FD3FE8A8F42FA2A3D0BE8A9042FDE23F359F82CFCD613FF796FDE5BFFFFF78850AE7DD9CFFBCB76262992FE9FF4547A17D151E85F4548217EF10FCC4444533B3F0582222222B19432975111905CB5432975111905CA3BFCCE8652EA22320B96BFE1FBCB2194BA888C82E51C1FFE1FBCB194B1
1004
A08A58D0443FFC3F79650AE43DD9CFFBCB76262992FE9FF4547A17D151E85F4548217EF11FAA67E0B3F358650CA5D44464172D50CA5D444641728EFF33A194BA888C82E5AFF87EF2C8652EA22320B94707FF87EF2C652C68229634110FFF0FDE5942B933BB39FF796EC4C5325FD3FE8A8F42FA2A3D0BE8A9
1004
042FDE21F988888A6767E0B3F54C328652EA22320B96A8652EA22320B9477F99D0CA5D44464172D7FC3F796432975111905CA383FFC3F796329634114B1A0887FF87EF2CA15CA66EECE7FDE5BB1314C97F4FFA2A3D0BE8A8F42FA2A410BF78811111115BF058008888A67619432975111905CB5432975111
1004
905CA3BFCCE8652EA22320B96BFE1FBCB2194BA888C82E51C1FFE1FBCB194B1A08A58D0443FFC3F796266CDB180E954DAEA80C09E3ED1A9C3A404F1F68D4E1D215B7101C1A49813C7DA353875656DC4070682C0CB1798BF28C3C350619962F7FBCB7FFFFFFFFEF2DF82CFFFF27FFFFFFFFFF962F7FBCB7FF
1004
FFFFFFEF2DF82CFFFF27FFFFFFFFFEF2C4CD993C074AA6D7540604F1F68D4E1D20278FB46A70E90ADB880E0D058A9B880E0D24C56DC4070682C0CB17817D1461E1A82CCCB17BFFFFFDE5BFFF796FFFC167FFF93FFFFFFFFFFCB17BFFFFFDE5BFFF796FFFC167FFF93FFFFFFFFFF796266CD35203A5536BAA
1004
030278FB46A70E9013C7DA353874856DC407069262A6E203834930278FB46A70EAC1962F3FD3CA879950699962F7FFFBCB7FFEF2DFFFFF82CFFFF27FFFFFFFFFFA83CCCB17BFFFDE5BFFF796FFFFFFFC167F93FFFFFFFFFFCB17BFFFDE5BFFF796FFFFFFFC167F93FFFFFFFFFF796266CC9E13C7DA353874
1004
801D2A9B5D501813C7DA353874854DC407069262B6E203834162B6E203834160658BCFABE6543C36C019962F7FBCB7FFFFFFFFEF2DFFF82CFF27FFFFFFFFFF962F7FBCB7FFFFFFFFEF2DFFF82CFF27FFFFFFFFFEF2C4CD9B6309E3ED1A9C3A400E954DAEA80C09E3ED1A9C3A404F1F68D4E1D595B7101C1A
1004
498ADB880E0D0581962F3E4A72A1E1A719962F7FFFFFBCB7FFEF2DFFFFF82CFF27FFFFFFFFFF962F7FFFFFBCB7FFEF2DFFFFF82CFF27FFFFFFFFFEF2C4CD9A6A4074AA6D7540604F1F68D4E1D20074AA6D754062B6E203834931537101C1A498ADB880E0D0581962F2F9FD2A1E654146658BDFEF11FDDFFB
1004
BFF77FDE23FBBFE4982222225ACFC1613FFFFFFFFFFC8332C5EFF788FEEFFDDFFBBFEF11FDDC444444B59F9267E0B09FFFFFFFFFFE58BDFEF11FDDFFBBFF77FDE23FBB88888896B3F24CFC1613FFFFFFFFFF796266CC9E03A5536BAA030B9D2A9B5D4B5813C7DA353874856DC407069262A6E2038349315B
1004
7101C1A0B032C5E7FBF0543CCA820CCB17BFEEFFDDFF788FDE23FBBFF77FC930444444B59F82C27FFFFFFFFFFB608CCB17BFEEFFDDFF788FDE23FBBFF771111112D67E499F82C27FFFFFFFFFF962F7FDDFFBBFEF11FBC47F77FEEE2222225ACFC933F0584FFFFFFFFFFDE5899B32780E954DAEA5AC09E3ED
1004
1A9C3A404F1F68D4E1D215B7101C1A498A9B880E0D24C56DC4070682C0CB179F67DCA87994D9332C5EFFBBFEF11FDDFFBBFF77FDE23F24C1111112D67E0B09FFFFFFFFFFED83332C5EFFBBFEF11FDDFFBBFF77FDE20444444B59F9267E0B09FFFFFFFFFFE58BDFF77FDE23FBBFF77FEEFFBC408888896B3F
1004
24CFC1613FFFFFFFFFF7967C1700E954DAEA80C4F7E8C63F8FD8AC9EFD18C7F1FB1595B7101C1A0B15B7101C1AA985E5B880E0D54C5C2514AA4264929939709452A909924A66196C9CAEBE49A788865EBF22A0BE8A3CC97AFC8A82FA28C44443DB273FD152085F49A44BFFBC474A92E4B54297FEF2DF49A4
1004
4BFF82CFCD67E6B1B1FEF2DFBCB2E128A552132494C9CB84A295484C925331F05C03A5536BA96B13DFA318FE3F62B27BF4631FC7EC5656DC407069262B6E203835530BCB7101C1AA98B84A295484C9253272E128A552132494CC32D9395D503269E18897AFC8ABECFB95CCBECFB952F5F9150F11116C9CFF
1004
4548217D26912FFEF11D2A4B92D50A5FFBCB7D26912F88888896B3F359F9AC6C7FBCB7EF2CB84A295484C9253272E128A552132494CC7C1727BF4631FC7EC5601D2A9B5D4B589EFD18C7F1FB1595B7101C1AA98ADB880E0D24C56DC40706AA62E128A552132494C9CB84A295484C925330CB64E5F9A6CA69
1004
E188AF9B0957FBF05732FF7E0AAF9B0950F11116C9CFFBCB76262992FE9FF4547A17D151E85F4548217EF11F9ACFC933F358D8FF796FDE59709452A909924A64E5C2514AA426492998F82E4F7E8C63F8FD8AC03A5536BAA0313DFA318FE3F62B2B6E2038355315B7101C1A0B15B7101C1AA98B84A295484C
1004
9253272E128A552132494CC32D9397E6A44D3C4435F3612AFABE65732BE6C255F57CCA888887B64E7FDE5BB1314C97F4FFA2A3D0BE8A8F42FA2A410BF788FCD67E0B3F358D8FF796FDE59709452A909924A64E5C2514AA426492998F82E79D2A9B5D501813C7DA353874809E3ED1A9C3A42B6E2038341604
1004
F1F68D4E1D595B7101C1A0B3FFF05865D9CBF37F95C44362FCA305F451E658BF28C17D1461E1EECE7FDE23FFFFFFF788FFFC167FFF99FFFC163E0B9E74AA6D7540604F1F68D4E1D21E74AA6D754062B6E203834930278FB46A70EACADB880E0D058F08888B5203F53AC65D9CAE17257110D8BF28D7CFE95C
1004
CB17E51AF9FD2A1E1EECE7FFFFFDE5BFFF788FF1111114D667FFE0B0CBC22222D480FD4EB3E0B8074AA6D752D604F1F68D4E1D20278FB46A70E90ADB880E0D24C09E3ED1A9C3AB2B6E203834167E6A77E6B0CBB397C937057110D8BF28DF67DCAE658BF28DF67DCA8787BB39FF796FFFFFFFDE23FC444444
1004
B59FFF9AC33F9A9DF9AC7C173CE954DAEA80C09E3ED1A9C3A404F1F68D4E1D215B7101C1A49813C7DA353875609E3ED1A9C3AB34111114D54EFCD4E32ECE4BD4DB15C44362FCA37FA795CCB17E51BFD3CA8787BB39FFFFFF788FFFDE23FFF359FFFE65A08888A6AA77E6A73E0B9E74AA6D7540604F1F68D4
1004
E1D21E74AA6D754062B6E203834162A6E2038349315B7101C1A0B3F6C53BF2F0C32ECE4BD5FD4788860BE8A35F3FA57320BE8A35F3FA543C3DD9CFFFFFFBCB7EF11FFFFF82CFCBC33F05867F6C53BF2F0C7C173CE954DAEA80C79D2A9B5D501813C7DA353874856DC4070682C56DC4070682C56DC4070682
1004
CFC14EFEEE65D9CA8394AA3C31105F451BEAF995CCBEAF99505F4518787BB39FFFF788FFFDE23FFFFF059F82CFF33F829DFDDDF05CF3A5536BAA030278FB46A70E9013C7DA353874856DC4070682C54DC4070692604F1F68D4E1D5BF353BF35865D9CBFD37AA3C44305F451BFD3CAE6417D146FF4F2A1E1E
1004
ECE7FFFFFDE23F788FFFFFC167E6B3FCCFE6A77E6B1F05C13C7DA35387482E74AA6D752D604F1F68D4E1D215B7101C1A498ADB880E0D24C09E3ED1A9C3AB088888A569C22222295B0CBB390537CA3C4437FA7957FBF05732FF4F2AFF7E0A8787BB39FFFF796FFFFFFFDE204444452B67E499FE644444452B
1004
4E1111114AD8F82E2E74AA6D752D604F1F68D4E1D20278FB46A70E90ADB880E0D24C56DC4070692604F1F68D4E1D5BF4D09C1FA9D632ECE535D35D478886FF4F2AFB3EE5732FF4F2AFB3EE543C3DD9CFFBCB7FFFFFFFFEF102222225ACFD3433FCCFE9A1383F53ACF82E09E3ED1A9C3A43CE954DAEA80C09
1004
E3ED1A9C3A42A6E2038349315B7101C1A0B0278FB46A70EADFFF82C32ECE540A9BF51E221BFD3CABEAF995CCBFD3CABEAF9950F0F7673FFFEF11FFFFFFFBC47FFE0B3FCCFFFE0B1F05C13C7DA353874879D2A9B5D501813C7DA353874809E3ED1A9C3AB2B6E203834930278FB46A70EAC1FBC47F7732ECE5
1004
75400A3C4437FA7957C94E5732FF4F2AF929CA8787BB39FF788FFFFFFFFFDE23FFF059FE643F788FEEEF82E09E3ED1A9C3A43CE954DAEA80C79D2A9B5D5018A9B880E0D24C56DC4070682C56DC4070682C1111114AD383F6C5865D9CA6F1402A3C4437D5F32ABE7F4AE65F57CCAAF9FD2A1E1EECE7FFFFFD
1004
E5BFFF788FF1111114AD9F82CFC16191111114AD383F6C58F82E09E3ED1A9C3A43CE954DAEA80C09E3ED1A9C3A404F1F68D4E1D595B7101C1A0B15B7101C1A0B3FFF05865D9C9AA151E221BEAF9957C94E5732FABE655F253950F0F7673FEF11FFFFFFFBC47FFFFE0B3FCCFFFE0B1F05C13C7DA353874879
1004
D2A9B5D5018F3A5536BAA030278FB46A70EACADB880E0D24C56DC4070682C0FD4E407EA758CBB394DD2F28F110DF253955F3FA5732F929CAAF9FD2A1E1EECE7FFFFFDE5BF788FFFFFFFD3433F058643F53901FA9D67C1704F1F68D4E1D20074AA6D752D604F1F68D4E1D20278FB46A70EACADB880E0D24C5
1004
6DC4070682CFCD4EFCD6197672D8150128F110DF253957FBF05732F929CABFDF82A1E1EECE7FFFDE5BFFF788FFFFFFFC933F35867F353BF358F82E09E3ED1A9C3A4173A5536BA96B1E74AA6D754062B6E2038349315B7101C1A498ADB880E0D0582222225A9DFDDCCBB394DDA80D478886BE7F4ABFDF82B9
1004
95F3FA55FEFC150F0F7673FFFEF2DFFFFFFFBCB08888896B3F24CFC16191111112D4EFEEEF82E2E74AA6D752D604F1F68D4E1D21E74AA6D754062B6E2038349315B7101C1A498ADB880E0D059FFF926197672A0750228F110D7CFE957D9F72B995F3FA55F67DCA8787BB39FF796FFFFFFFFFDE58444444B5
1004
9F9267E0B0CFFFE498F82E2E74AA6D752D6173A5536BA96B0278FB46A70E90ADB880E0D24C56DC407069262B6E203834167E0A77F7732ECE5F9A6C28F110DFEFC157D9F72B997FBF055F67DCA8787BB39FF796FFFFFFFDE5BFC444444B59F9267E0B0CFE0A77F774D66C936A
1005
EC
  0
INSERT
  8
AME_FRZ
  5
EC
  2
AME_NIL
 10
1.0
 20
1.0
 30
1.0
1001
AME_SOL
1004

1005
0
  0
ENDSEC
  0
EOF
