600 0 1 0           
91 GICL ACIS Healer - Source: /gicl/data5/repository/UMD/swivel2-Stock/swivel2-Stock.sat - 6 0 18 ACIS 6.0.3 Solaris 24 Sun Apr 14 00:35:46 2002 
1 9.999999999999999547e-07 1.000000000000000036e-10 
body $-1 $1 $-1 $-1 #
lump $-1 $-1 $2 $0 #
shell $-1 $-1 $-1 $3 $-1 $1 #
face $-1 $4 $5 $2 $-1 $6 forward single #
face $-1 $7 $8 $2 $-1 $9 forward single #
loop $-1 $10 $11 $3 #
cone-surface $-1 0 0 0 0 -1 -3.491481338843129805e-15 50 0 0 1 I I 0 1 50 forward I I I I #
face $-1 $-1 $12 $2 $-1 $13 forward single #
loop $-1 $-1 $14 $4 #
plane-surface $-1 0 15 5.237222008264700033e-14 0 1 3.491481338843129805e-15 -1 -0 0 forward_v I I I I #
loop $-1 $-1 $15 $3 #
coedge $-1 $11 $11 $14 $16 reversed $5 $-1 #
loop $-1 $-1 $17 $7 #
plane-surface $-1 0 -15 -5.237222008264700033e-14 0 -1 -3.491481338843129805e-15 1 0 0 forward_v I I I I #
coedge $-1 $14 $14 $11 $16 forward $8 $-1 #
coedge $-1 $15 $15 $17 $18 reversed $10 $-1 #
edge $-1 $19 0 $19 6.283185307179586232 $14 $20 forward 7 unknown #
coedge $-1 $17 $17 $15 $18 forward $12 $-1 #
edge $-1 $21 0 $21 6.283185307179586232 $17 $22 forward 7 unknown #
vertex $-1 $16 $23 #
ellipse-curve $-1 0 15 5.237222008264700033e-14 0 1 3.491481338843129805e-15 50 0 0 1 I I #
vertex $-1 $18 $24 #
ellipse-curve $-1 0 -15 -5.237222008264700033e-14 0 -1 -3.491481338843129805e-15 50 0 0 1 I I #
point $-1 50 15 5.237222008264700033e-14 #
point $-1 50 -15 -5.237222008264700033e-14 #
End-of-ACIS-data 