#define _width 218
#define _height 222
static char _bits[] = {
 0x00,0x00,0x00,0x00,0x00,0x00,0x00,0x00,0xe0,0xff,0xff,0x0f,0x00,0x00,0x00,
 0x00,0x00,0x00,0x00,0x00,0x00,0x00,0x00,0x00,0x00,0x00,0x00,0x00,0x00,0x00,
 0x00,0x00,0x00,0x00,0x00,0x00,0xe0,0xff,0xff,0x0f,0x00,0x00,0x00,0x00,0x00,
 0x00,0x00,0x00,0x00,0x00,0x00,0x00,0x00,0x00,0x00,0x00,0x00,0x00,0x00,0x00,
 0x00,0x00,0xfe,0xff,0xff,0xff,0xff,0xf3,0xff,0x03,0x00,0x00,0x00,0x00,0x00,
 0x00,0x00,0x00,0x00,0x00,0x00,0x00,0x00,0x00,0x00,0x00,0x00,0x00,0x00,0xff,
 0xff,0x01,0x00,0x00,0x40,0x8c,0x39,0xfc,0x3f,0x00,0x00,0x00,0x00,0x00,0x00,
 0x00,0x00,0x00,0x00,0x00,0x00,0x00,0x00,0x00,0x00,0x00,0x00,0xff,0xff,0x01,
 0x00,0x00,0x40,0x8c,0x39,0xfc,0x3f,0x00,0x00,0x00,0x00,0x00,0x00,0x00,0x00,
 0x00,0x00,0x00,0x00,0x00,0x00,0x00,0x00,0xc0,0xff,0x3f,0x00,0x00,0x00,0x00,
 0x40,0x90,0x39,0xce,0xf8,0x1f,0x00,0x00,0x00,0x00,0x00,0x00,0x00,0x00,0x00,
 0x00,0x00,0x00,0x00,0x00,0x80,0x3f,0xd0,0x00,0x00,0x00,0x00,0x00,0x40,0x10,
 0x8e,0xc1,0x00,0xfc,0x07,0x00,0x00,0x00,0x00,0x00,0x00,0x00,0x00,0x00,0x00,
 0x00,0x00,0x00,0x80,0x3f,0xd0,0x00,0x00,0x00,0x00,0x00,0x40,0x10,0x8e,0xc1,
 0x00,0xfc,0x07,0x00,0x00,0x00,0x00,0x00,0x00,0x00,0x00,0x00,0x00,0x00,0x00,
 0x00,0xe0,0x00,0xde,0x00,0x00,0x00,0x00,0x00,0x40,0xf0,0xff,0xc1,0x00,0x00,
 0xff,0x03,0x00,0x00,0x00,0x00,0x00,0x00,0x00,0x00,0x00,0x00,0x00,0x00,0xfc,
 0xc1,0xd1,0x00,0x00,0x00,0x00,0x00,0x40,0x90,0x88,0xc1,0x00,0x00,0x80,0xff,
 0x00,0x00,0x00,0x00,0x00,0x00,0x00,0x00,0x00,0x00,0x00,0x00,0xfc,0xc1,0xd1,
 0x00,0x00,0x00,0x00,0x00,0x40,0x90,0x88,0xc1,0x00,0x00,0x80,0xff,0x00,0x00,
 0x00,0x00,0x00,0x00,0x00,0x00,0x00,0x00,0x00,0x80,0xe3,0x39,0xd0,0x00,0x00,
 0x00,0x00,0x00,0x40,0x90,0x88,0xc1,0x00,0x00,0x00,0xe0,0x03,0x00,0x00,0x00,
 0x00,0x00,0x00,0x00,0x00,0x00,0x00,0x87,0x03,0x07,0xd0,0x00,0x00,0x00,0x00,
 0x00,0x40,0x90,0x88,0xc1,0x00,0x00,0x00,0x00,0x7f,0x00,0x00,0x00,0x00,0x00,
 0x00,0x00,0x00,0x00,0x00,0xb8,0xe3,0x00,0xd0,0x00,0x00,0x00,0x00,0x00,0x40,
 0x90,0x88,0xc1,0x00,0x00,0x00,0x00,0xf0,0x03,0x00,0x00,0x00,0x00,0x00,0x00,
 0x00,0x00,0x00,0xb8,0xe3,0x00,0xd0,0x00,0x00,0x00,0x00,0x00,0x40,0x90,0x88,
 0xc1,0x00,0x00,0x00,0x00,0xf0,0x03,0x00,0x00,0x00,0x00,0x00,0x00,0x00,0x00,
 0x00,0xe0,0x1f,0x00,0xd0,0x00,0x00,0x00,0x00,0x00,0x40,0x90,0x88,0xc1,0x00,
 0x00,0x00,0x00,0x80,0x3f,0x00,0x00,0x00,0x00,0x00,0x00,0x00,0x00,0x00,0x40,
 0x02,0x00,0xd0,0x00,0x00,0x00,0x00,0x00,0x40,0x90,0x88,0xc1,0x00,0x00,0x00,
 0x00,0x00,0xfc,0x03,0x00,0x00,0x00,0x00,0x00,0x00,0x00,0x00,0x40,0x02,0x00,
 0xd0,0x00,0x00,0x00,0x00,0x00,0x40,0x90,0x88,0xc1,0x00,0x00,0x00,0x00,0x00,
 0xfc,0x03,0x00,0x00,0x00,0x00,0x00,0x00,0x00,0x00,0xf8,0x01,0x00,0xd0,0x00,
 0x00,0x00,0x00,0x00,0x40,0x90,0x88,0xc1,0x00,0x00,0x00,0x00,0x00,0xc0,0x1d,
 0x00,0x00,0x00,0x00,0x00,0x00,0x00,0x00,0x5c,0x00,0x00,0xd0,0x00,0x00,0x00,
 0x00,0x00,0x40,0x90,0x88,0xc1,0x00,0x00,0x00,0x00,0x00,0x00,0xfe,0x00,0x00,
 0x00,0x00,0x00,0x00,0x00,0x00,0x5c,0x00,0x00,0xd0,0x00,0x00,0x00,0x00,0x00,
 0x40,0x90,0x88,0xc1,0x00,0x00,0x00,0x00,0x00,0x00,0xfe,0x00,0x00,0x00,0x00,
 0x00,0x00,0x00,0x80,0xfb,0x01,0x00,0xd0,0x00,0x00,0x00,0x00,0x00,0x40,0x90,
 0x88,0xc1,0x00,0x00,0x00,0x00,0x00,0x00,0x7c,0x01,0x00,0x00,0x00,0x00,0x00,
 0x00,0x80,0xff,0x03,0x00,0xd0,0x00,0x00,0x00,0x00,0x00,0x40,0x90,0x88,0xc1,
 0x00,0x00,0x00,0x00,0x00,0x00,0xfc,0x01,0x00,0x00,0x00,0x00,0x00,0x00,0x80,
 0xff,0x03,0x00,0xd0,0x00,0x00,0x00,0x00,0x00,0x40,0x90,0x88,0xc1,0x00,0x00,
 0x00,0x00,0x00,0x00,0xfc,0x01,0x00,0x00,0x00,0x00,0x00,0x00,0x80,0xf8,0x1f,
 0x00,0xd0,0x00,0x00,0x00,0xf8,0xff,0xff,0x91,0x88,0xc1,0x00,0x00,0x00,0x00,
 0x00,0x00,0xfc,0x39,0x00,0x00,0x00,0x00,0x00,0x00,0x80,0xc0,0xff,0x00,0xd0,
 0x00,0x00,0x00,0xf8,0x01,0x00,0x9e,0x88,0xc1,0x00,0x00,0x00,0x00,0x00,0x00,
 0xfc,0x07,0x00,0x00,0x00,0x00,0x00,0x00,0x80,0x00,0xf2,0x07,0xd0,0x00,0x00,
 0x00,0x18,0x0f,0x78,0x9c,0x88,0xc1,0x00,0x00,0x00,0x00,0x00,0x00,0xfc,0x00,
 0x00,0x00,0x00,0x00,0x00,0x00,0x80,0x00,0xf2,0x07,0xd0,0x00,0x00,0x00,0x18,
 0x0f,0x78,0x9c,0x88,0xc1,0x00,0x00,0x00,0x00,0x00,0x00,0xfc,0x00,0x00,0x00,
 0x00,0x00,0x00,0x00,0x80,0x00,0x9c,0x0f,0xd0,0x00,0x00,0x00,0x18,0x11,0xc4,
 0x91,0x88,0xc1,0x00,0x00,0x00,0x00,0x00,0x00,0x7c,0x00,0xfe,0x00,0x00,0x00,
 0x00,0x00,0x80,0x00,0xe0,0x7f,0xd0,0x00,0x00,0x00,0x18,0xe1,0x7c,0xfc,0x88,
 0xc1,0x00,0x00,0x00,0x00,0x00,0x00,0xec,0xc1,0xe3,0x00,0x00,0x00,0x00,0x00,
 0x80,0x00,0xe0,0x7f,0xd0,0x00,0x00,0x00,0x18,0xe1,0x7c,0xfc,0x88,0xc1,0x00,
 0x00,0x00,0x00,0x00,0x00,0xec,0xc1,0xe3,0x00,0x00,0x00,0x00,0x00,0x80,0x00,
 0x00,0xf9,0xd3,0x00,0x00,0x00,0x18,0x01,0xff,0x63,0x88,0xc1,0x00,0x00,0x00,
 0x00,0x00,0x00,0xec,0x7f,0xc0,0x07,0x00,0x00,0x00,0x00,0x80,0x00,0x00,0x4e,
 0xde,0x00,0x00,0x00,0x18,0x01,0x83,0x61,0x88,0xc1,0x00,0x00,0x00,0x00,0x00,
 0x00,0x6c,0x88,0x03,0x0e,0x00,0x00,0x00,0x00,0x80,0x00,0x00,0x4e,0xde,0x00,
 0x00,0x00,0x18,0x01,0x83,0x61,0x88,0xc1,0x00,0x00,0x00,0x00,0x00,0x00,0x6c,
 0x88,0x03,0x0e,0x00,0x00,0x00,0x00,0x80,0x00,0x00,0xf0,0xff,0x00,0x00,0x00,
 0x18,0x01,0x83,0x61,0x88,0xc1,0x00,0x00,0x00,0x00,0x00,0x00,0x6c,0x08,0x0c,
 0x08,0x00,0x00,0x00,0x00,0x80,0x00,0x00,0x80,0xff,0x01,0x00,0x00,0x18,0x01,
 0x83,0x61,0x88,0xc1,0x30,0x00,0x00,0x00,0x00,0x00,0x6c,0x08,0x1c,0x78,0x00,
 0x00,0x00,0x00,0x80,0x00,0x00,0x00,0xfc,0x0f,0x00,0x00,0x18,0x01,0x83,0x61,
 0x88,0xf1,0xcf,0x03,0x00,0x00,0x00,0x00,0x6c,0x08,0x1c,0x80,0x01,0x00,0x00,
 0x00,0x80,0x00,0x00,0x00,0xfc,0x0f,0x00,0x00,0x18,0x01,0x83,0x61,0x88,0xf1,
 0xcf,0x03,0x00,0x00,0x00,0x00,0x6c,0x08,0x1c,0x80,0x01,0x00,0x00,0x00,0xe0,
 0x03,0x00,0x00,0xf0,0x79,0x00,0x00,0x18,0x01,0x83,0xe1,0xff,0xef,0xff,0x1d,
 0x00,0x00,0x00,0x00,0x6c,0x08,0xec,0x00,0x02,0x00,0x00,0x00,0x9e,0x00,0x00,
 0x00,0xd0,0xff,0x03,0xe0,0xff,0x01,0xfb,0xff,0xff,0xdf,0x88,0x27,0x00,0x00,
 0x00,0x00,0x6c,0x08,0xcc,0x81,0x1f,0x00,0x00,0x00,0x9e,0x00,0x00,0x00,0xd0,
 0xff,0x03,0xe0,0xff,0x01,0xfb,0xff,0xff,0xdf,0x88,0x27,0x00,0x00,0x00,0x00,
 0x6c,0x08,0xcc,0x81,0x1f,0x00,0x00,0x00,0x83,0x00,0x00,0x00,0xd0,0xfe,0xff,
 0xff,0xf8,0x01,0xe7,0x7f,0x88,0xc1,0x88,0xd9,0x01,0x00,0x00,0x00,0x6c,0x08,
 0xcc,0x81,0x27,0x00,0x00,0x00,0xe3,0x00,0x00,0x00,0xf0,0xff,0xfd,0x0f,0xc7,
 0x8f,0xdb,0x61,0x88,0x01,0x88,0xe1,0x0e,0x00,0x00,0x00,0x6c,0x08,0x0c,0x07,
 0x3e,0x00,0x00,0x00,0xe3,0x00,0x00,0x00,0xf0,0xff,0xfd,0x0f,0xc7,0x8f,0xdb,
 0x61,0x88,0x01,0x88,0xe1,0x0e,0x00,0x00,0x00,0x6c,0x08,0x0c,0x07,0x3e,0x00,
 0x00,0x00,0x8f,0x00,0x00,0x00,0x10,0xc0,0x27,0xf8,0x38,0x7e,0xdf,0x61,0x88,
 0x01,0x88,0x01,0x17,0x00,0x00,0x00,0x6c,0x08,0x0c,0xfe,0x39,0x00,0x00,0x00,
 0xf3,0x00,0x00,0x00,0x00,0x00,0xfe,0x89,0x23,0xfe,0xdf,0x7f,0x08,0x00,0x88,
 0x01,0x18,0x00,0x00,0x00,0x6c,0x08,0x0c,0x3e,0x38,0x00,0x00,0x00,0xf3,0x00,
 0x00,0x00,0x00,0x00,0xfe,0x89,0x23,0xfe,0xdf,0x7f,0x08,0x00,0x88,0x01,0x18,
 0x00,0x00,0x00,0x6c,0x08,0x0c,0x3e,0x38,0x00,0x00,0x00,0x83,0x00,0x00,0x00,
 0x00,0x00,0xf8,0xff,0xf8,0x9d,0xfb,0x0f,0x00,0x00,0x88,0x01,0xf8,0x1c,0x00,
 0x00,0x6c,0x08,0x0c,0x78,0x38,0x00,0x00,0x00,0x03,0x00,0x00,0x00,0x00,0x00,
 0xc0,0x76,0x3c,0x03,0xd8,0x01,0x00,0x00,0x88,0x01,0x88,0xff,0x00,0x00,0x6c,
 0x08,0x0c,0x70,0x1e,0x00,0x00,0x00,0x03,0x00,0x00,0x00,0x00,0x00,0x00,0x9f,
 0xfc,0x02,0x58,0x00,0x00,0x00,0x88,0x01,0x70,0xfc,0x0f,0x00,0x6c,0x08,0x0c,
 0xf0,0x01,0x00,0x00,0x00,0x03,0x00,0x00,0x00,0x00,0x00,0x00,0x9f,0xfc,0x02,
 0x58,0x00,0x00,0x00,0x88,0x01,0x70,0xfc,0x0f,0x00,0x6c,0x08,0x0c,0xf0,0x01,
 0x00,0x00,0x00,0x03,0x00,0x00,0x00,0x00,0x00,0x00,0xf8,0x3f,0x03,0x58,0x00,
 0x00,0x00,0x88,0x01,0x80,0xfb,0x73,0x00,0x6c,0x08,0x0c,0xc0,0x03,0x00,0x00,
 0x00,0x03,0x00,0x00,0x00,0x00,0x00,0x00,0x60,0xfb,0x01,0x58,0x00,0x00,0x00,
 0x88,0x01,0x00,0x1c,0x9f,0x03,0xec,0x08,0x0c,0x80,0x03,0x00,0x00,0x00,0x03,
 0x00,0x00,0x00,0x00,0x00,0x00,0x60,0xfb,0x01,0x58,0x00,0x00,0x00,0x88,0x01,
 0x00,0x1c,0x9f,0x03,0xec,0x08,0x0c,0x80,0x03,0x00,0x00,0x00,0x03,0x00,0x00,
 0x00,0x00,0x00,0x00,0x80,0xdf,0x03,0x58,0x00,0x00,0x00,0x88,0x01,0x00,0xe0,
 0xf0,0x3c,0xec,0xff,0x0f,0x80,0x05,0x00,0x00,0x00,0x03,0x00,0x00,0x00,0x00,
 0x00,0x00,0x00,0xfc,0x0e,0x58,0x00,0xf0,0x03,0x88,0x01,0x00,0x00,0xe1,0xc7,
 0xed,0x00,0x0e,0x00,0x1e,0x00,0x00,0x00,0x03,0x00,0x00,0x00,0x00,0x00,0x00,
 0x00,0xfc,0x0e,0x58,0x00,0xf0,0x03,0x88,0x01,0x00,0x00,0xe1,0xc7,0xed,0x00,
 0x0e,0x00,0x1e,0x00,0x00,0x00,0x02,0x00,0x00,0x00,0x00,0x00,0x00,0x00,0xe0,
 0x7f,0x58,0xf0,0x8f,0x03,0x88,0x01,0x00,0x00,0xee,0x7c,0xee,0x7f,0x0c,0x00,
 0x1c,0x00,0x00,0x00,0x1c,0x00,0x00,0x00,0x00,0x00,0x00,0x00,0x00,0xed,0xfb,
 0x8f,0x7f,0xfe,0xff,0x01,0x00,0x00,0x70,0x9c,0x6f,0x77,0x10,0x00,0x24,0x00,
 0x00,0x00,0x1c,0x00,0x00,0x00,0x00,0x00,0x00,0x00,0x00,0xed,0xfb,0x8f,0x7f,
 0xfe,0xff,0x01,0x00,0x00,0x70,0x9c,0x6f,0x77,0x10,0x00,0x24,0x00,0x00,0x00,
 0xe0,0x00,0x00,0x00,0x00,0x00,0x00,0x00,0x00,0x7e,0xff,0x7f,0xf8,0x0f,0xff,
 0x07,0x00,0x00,0x80,0xfb,0xef,0x3e,0x22,0x00,0xf8,0x00,0x00,0x00,0x00,0x07,
 0x00,0x00,0x00,0x00,0x00,0x00,0x00,0xf0,0x3b,0x00,0xce,0xff,0x80,0x3b,0x00,
 0x00,0x00,0x3c,0x6e,0xff,0x3d,0x00,0xe0,0x00,0x00,0x00,0x00,0x38,0x00,0x00,
 0x00,0x00,0x00,0x00,0x00,0x80,0xff,0x01,0x3e,0x00,0x00,0xdc,0x01,0x00,0x00,
 0x60,0x6c,0x40,0xe0,0x00,0x20,0x01,0x00,0x00,0x00,0x38,0x00,0x00,0x00,0x00,
 0x00,0x00,0x00,0x80,0xff,0x01,0x3e,0x00,0x00,0xdc,0x01,0x00,0x00,0x60,0x6c,
 0x40,0xe0,0x00,0x20,0x01,0x00,0x00,0x00,0xc0,0x01,0x00,0x00,0x00,0x00,0x00,
 0x00,0x00,0xa4,0x03,0x0e,0x00,0x00,0xe0,0x06,0x00,0x00,0x40,0x6e,0x40,0xc0,
 0x00,0xc0,0x06,0x00,0x00,0x00,0x00,0x0e,0x00,0x00,0x00,0x20,0x00,0x00,0x00,
 0xf8,0x1d,0x30,0x00,0x00,0x00,0x1f,0x00,0x00,0x20,0x7e,0x40,0xc0,0x00,0x00,
 0x07,0x00,0x00,0x00,0x00,0x0e,0x00,0x00,0x00,0x20,0x00,0x00,0x00,0xf8,0x1d,
 0x30,0x00,0x00,0x00,0x1f,0x00,0x00,0x20,0x7e,0x40,0xc0,0x00,0x00,0x07,0x00,
 0x00,0x00,0x00,0xf0,0x0f,0x00,0x00,0xe0,0x01,0x00,0x00,0xc0,0xef,0xc0,0x03,
 0x00,0x00,0xe8,0x00,0x00,0xa0,0x6f,0x40,0xc0,0x00,0x00,0x09,0xff,0x00,0x00,
 0x00,0x80,0xf1,0xff,0x3f,0x20,0x0e,0x00,0x00,0x00,0x9e,0x01,0x1c,0x00,0x00,
 0x70,0x03,0x00,0xa0,0xff,0x40,0xc0,0x00,0x00,0xfe,0xfc,0x00,0x00,0x00,0x80,
 0xf1,0xff,0x3f,0x20,0x0e,0x00,0x00,0x00,0x9e,0x01,0x1c,0x00,0x00,0x70,0x03,
 0x00,0xa0,0xff,0x40,0xc0,0x00,0x00,0xfe,0xfc,0x00,0x00,0x00,0x00,0xfe,0x03,
 0xc0,0x3f,0x10,0x00,0x00,0x00,0xf0,0x0e,0xe0,0x01,0x00,0x80,0x1f,0x00,0x98,
 0xef,0x40,0xc0,0x00,0x00,0x18,0xfc,0x00,0x00,0x00,0x00,0x00,0xfc,0xff,0xc1,
 0x1e,0x00,0x00,0x00,0xe0,0x7f,0x00,0x0e,0x00,0x00,0xfc,0x00,0x98,0x6f,0x40,
 0xc0,0x00,0x00,0x68,0xc0,0x00,0x00,0x00,0x00,0x00,0x00,0x00,0xfe,0x71,0x00,
 0x00,0x00,0x00,0xff,0x1f,0x70,0x00,0x00,0xe0,0x03,0x58,0x6e,0x40,0xc0,0x07,
 0x00,0xf0,0x38,0x01,0x00,0x00,0x00,0x00,0x00,0x00,0xfe,0x71,0x00,0x00,0x00,
 0x00,0xff,0x1f,0x70,0x00,0x00,0xe0,0x03,0x58,0x6e,0x40,0xc0,0x07,0x00,0xf0,
 0x38,0x01,0x00,0x00,0x00,0x00,0x00,0x00,0x00,0xe0,0x03,0x00,0x00,0x00,0x48,
 0xee,0x81,0x03,0x00,0x00,0x0d,0x44,0xfe,0x40,0xc0,0x07,0x00,0x10,0xc7,0x01,
 0x00,0x00,0x00,0x00,0x00,0x00,0x00,0x00,0x3c,0x00,0x00,0x00,0xf0,0x33,0x0e,
 0x1c,0x00,0x00,0x7e,0x44,0xee,0xff,0xdf,0x3f,0x00,0x10,0x3f,0x01,0x00,0x00,
 0x00,0x00,0x00,0x00,0x00,0x00,0x3c,0x00,0x00,0x00,0xf0,0x33,0x0e,0x1c,0x00,
 0x00,0x7e,0x44,0xee,0xff,0xdf,0x3f,0x00,0x10,0x3f,0x01,0x00,0x00,0x00,0x00,
 0x00,0x00,0x00,0x00,0xe0,0x01,0x00,0x00,0x80,0xdf,0x71,0xe0,0x00,0x00,0xf0,
 0x47,0x9e,0xf7,0xef,0x7e,0x00,0x10,0xe3,0x01,0x00,0x00,0x00,0x00,0x00,0x00,
 0x00,0x00,0x00,0x1f,0x00,0x00,0x00,0x3c,0x87,0x03,0x07,0x00,0x80,0x3f,0x6e,
 0x08,0xf0,0x4e,0x00,0x10,0x3f,0x01,0x00,0x00,0x00,0x00,0x00,0x00,0x00,0x00,
 0x00,0x1f,0x00,0x00,0x00,0x3c,0x87,0x03,0x07,0x00,0x80,0x3f,0x6e,0x08,0xf0,
 0x4e,0x00,0x10,0x3f,0x01,0x00,0x00,0x00,0x00,0x00,0x00,0x00,0x00,0x00,0xfc,
 0x00,0x00,0x00,0xe0,0x39,0x04,0x08,0x00,0x00,0x3f,0x8e,0x00,0xc0,0xf9,0x01,
 0xf0,0x07,0x01,0x00,0x00,0x00,0x00,0x00,0x00,0x00,0x00,0x00,0xe0,0x1f,0x00,
 0x00,0xc0,0xcf,0x19,0x10,0x00,0x00,0x3b,0x0e,0x01,0xc0,0xb9,0x01,0x90,0x38,
 0x03,0x00,0x00,0x00,0x00,0x00,0x00,0x00,0x00,0x00,0xe0,0x1f,0x00,0x00,0xc0,
 0xcf,0x19,0x10,0x00,0x00,0x3b,0x0e,0x01,0xc0,0xb9,0x01,0x90,0x38,0x03,0x00,
 0x00,0x00,0x00,0x00,0x00,0x00,0x00,0x00,0x00,0x7f,0x00,0x00,0x00,0x7e,0x22,
 0x60,0x00,0xe0,0x24,0xf2,0x07,0x00,0xb7,0x03,0x90,0xe0,0x03,0x00,0x00,0x00,
 0x00,0x00,0x00,0x00,0x00,0x00,0x00,0xe0,0x0f,0x00,0x00,0xf0,0xdd,0x80,0x03,
 0x9c,0x27,0x82,0x0f,0x00,0x3e,0x06,0x90,0xc0,0x03,0x00,0x00,0x00,0x00,0x00,
 0x00,0x00,0x00,0x00,0x00,0x80,0x73,0x00,0x00,0x80,0xe7,0x01,0x3f,0x73,0xa4,
 0x71,0x37,0x00,0x4e,0x04,0x90,0xc0,0x03,0x00,0x00,0x00,0x00,0x00,0x00,0x00,
 0x00,0x00,0x00,0x80,0x73,0x00,0x00,0x80,0xe7,0x01,0x3f,0x73,0xa4,0x71,0x37,
 0x00,0x4e,0x04,0x90,0xc0,0x03,0x00,0x00,0x00,0x00,0x00,0x00,0x00,0x00,0x00,
 0x00,0x00,0x9c,0x01,0x00,0x00,0x3e,0xff,0xf8,0x0f,0xa4,0xf1,0x7f,0x00,0xb8,
 0x1d,0x90,0xe0,0x02,0x00,0x00,0x00,0x00,0x00,0x00,0x00,0x00,0x00,0x00,0x00,
 0xe0,0x06,0x00,0x00,0xf8,0x09,0x3f,0x03,0xa4,0x71,0x7f,0x00,0x70,0x1a,0x90,
 0xe0,0x03,0x00,0x00,0x00,0x00,0x00,0x00,0x00,0x00,0x00,0x00,0x00,0xe0,0x06,
 0x00,0x00,0xf8,0x09,0x3f,0x03,0xa4,0x71,0x7f,0x00,0x70,0x1a,0x90,0xe0,0x03,
 0x00,0x00,0x00,0x00,0x00,0x00,0x00,0x00,0x00,0x00,0x00,0x00,0x3f,0x00,0x00,
 0xc0,0xf7,0x23,0x02,0xa4,0xef,0xb0,0x01,0x70,0x22,0x90,0xe0,0x03,0x00,0x00,
 0x00,0x00,0x00,0x00,0x00,0x00,0x00,0x00,0x00,0x00,0x78,0x00,0x00,0x00,0x9e,
 0x3f,0x03,0x64,0x60,0xb0,0x01,0xc0,0x25,0x90,0xd8,0x03,0x00,0x00,0x00,0x00,
 0x00,0x00,0x00,0x00,0x00,0x00,0x00,0x00,0x78,0x00,0x00,0x00,0x9e,0x3f,0x03,
 0x64,0x60,0xb0,0x01,0xc0,0x25,0x90,0xd8,0x03,0x00,0x00,0x00,0x00,0x00,0x00,
 0x00,0x00,0x00,0x00,0x00,0x00,0xc0,0x01,0x00,0x00,0xf8,0x1c,0x01,0x64,0xfe,
 0x31,0x02,0x80,0xfb,0x90,0xd8,0x02,0x00,0x00,0x00,0x00,0x00,0x00,0x00,0x00,
 0x00,0x00,0x00,0x00,0x80,0x0f,0x00,0x00,0xe0,0x23,0x01,0xe4,0xff,0x71,0x02,
 0x80,0xe5,0x91,0xd8,0x02,0x00,0x00,0x00,0x00,0x00,0x00,0x00,0x00,0x00,0x00,
 0x00,0x00,0x80,0x0f,0x00,0x00,0xe0,0x23,0x01,0xe4,0xff,0x71,0x02,0x80,0xe5,
 0x91,0xd8,0x02,0x00,0x00,0x00,0x00,0x00,0x00,0x00,0x00,0x00,0x00,0x00,0x00,
 0x00,0x1c,0x00,0x00,0x00,0xdf,0x03,0xe4,0x13,0x79,0x0c,0x00,0xe6,0x91,0xf8,
 0x02,0x00,0x00,0x00,0x00,0x00,0x00,0x00,0x00,0x00,0x00,0x00,0x00,0x00,0x30,
 0x00,0x00,0x00,0xfc,0x1e,0xe4,0x91,0x3f,0x0c,0x00,0xda,0x97,0xe4,0x02,0x00,
 0x00,0x00,0x00,0x00,0x00,0x00,0x00,0x00,0x00,0x00,0x00,0x00,0xc0,0x01,0x00,
 0x00,0xe0,0xf3,0xfc,0xf1,0x07,0x10,0x00,0xe4,0x97,0x3c,0x02,0x00,0x00,0x00,
 0x00,0x00,0x00,0x00,0x00,0x00,0x00,0x00,0x00,0x00,0xc0,0x01,0x00,0x00,0xe0,
 0xf3,0xfc,0xf1,0x07,0x10,0x00,0xe4,0x97,0x3c,0x02,0x00,0x00,0x00,0x00,0x00,
 0x00,0x00,0x00,0x00,0x00,0x00,0x00,0x00,0x00,0x07,0x00,0x00,0x00,0x8f,0x7f,
 0xf0,0x00,0x10,0x00,0x38,0x91,0x3c,0x02,0x00,0x00,0x00,0x00,0x00,0x00,0x00,
 0x00,0x00,0x00,0x00,0x00,0x00,0x00,0x08,0x00,0x00,0x00,0x7c,0x7f,0x70,0x00,
 0x20,0x00,0xd8,0xf0,0x3f,0x02,0x00,0x00,0x00,0x00,0x00,0x00,0x00,0x00,0x00,
 0x00,0x00,0x00,0x00,0x00,0x08,0x00,0x00,0x00,0x7c,0x7f,0x70,0x00,0x20,0x00,
 0xd8,0xf0,0x3f,0x02,0x00,0x00,0x00,0x00,0x00,0x00,0x00,0x00,0x00,0x00,0x00,
 0x00,0x00,0x00,0x70,0x00,0x00,0x00,0xf0,0x7b,0x70,0x00,0x20,0x00,0x20,0xf1,
 0x1f,0x02,0x00,0x00,0x00,0x00,0x00,0x00,0x00,0x00,0x00,0x00,0x00,0x00,0x00,
 0x00,0xc0,0x01,0x00,0x00,0x80,0xc7,0x71,0x00,0x20,0x00,0xc0,0x99,0x1f,0x02,
 0x00,0x00,0x00,0x00,0x00,0x00,0x00,0x00,0x00,0x00,0x00,0x00,0x00,0x00,0xc0,
 0x01,0x00,0x00,0x80,0xc7,0x71,0x00,0x20,0x00,0xc0,0x99,0x1f,0x02,0x00,0x00,
 0x00,0x00,0x00,0x00,0x00,0x00,0x00,0x00,0x00,0x00,0x00,0x00,0x00,0x02,0x00,
 0x00,0x00,0x3c,0x6e,0x00,0x20,0x00,0xc0,0x7e,0x07,0x02,0x00,0x00,0x00,0x00,
 0x00,0x00,0x00,0x00,0x00,0x00,0x00,0x00,0x00,0x00,0x00,0x1c,0x00,0x00,0x00,
 0xe0,0x7d,0x00,0x20,0x00,0x00,0x9f,0x07,0x02,0x00,0x00,0x00,0x00,0x00,0x00,
 0x00,0x00,0x00,0x00,0x00,0x00,0x00,0x00,0x00,0x20,0x00,0x00,0x00,0xc0,0xef,
 0x00,0xe0,0x00,0x00,0x9f,0x03,0x01,0x00,0x00,0x00,0x00,0x00,0x00,0x00,0x00,
 0x00,0x00,0x00,0x00,0x00,0x00,0x00,0x20,0x00,0x00,0x00,0xc0,0xef,0x00,0xe0,
 0x00,0x00,0x9f,0x03,0x01,0x00,0x00,0x00,0x00,0x00,0x00,0x00,0x00,0x00,0x00,
 0x00,0x00,0x00,0x00,0x00,0xc0,0x09,0x00,0x00,0x00,0x7e,0x07,0xc0,0x00,0xe0,
 0xf6,0x00,0x01,0x00,0x00,0x00,0x00,0x00,0x00,0x00,0x00,0x00,0x00,0x00,0x00,
 0x00,0x00,0x00,0x00,0x7f,0x00,0x00,0x00,0xf0,0x08,0xc0,0x01,0xd8,0xff,0x00,
 0x01,0x00,0x00,0x00,0x00,0x00,0x00,0x00,0x00,0x00,0x00,0x00,0x00,0x00,0x00,
 0x00,0x00,0x7f,0x00,0x00,0x00,0xf0,0x08,0xc0,0x01,0xd8,0xff,0x00,0x01,0x00,
 0x00,0x00,0x00,0x00,0x00,0x00,0x00,0x00,0x00,0x00,0x00,0x00,0x00,0x00,0x00,
 0x98,0x03,0x00,0x00,0x80,0x77,0xc0,0x01,0xc6,0x7f,0x00,0x01,0x00,0x00,0x00,
 0x00,0x00,0x00,0x00,0x00,0x00,0x00,0x00,0x00,0x00,0x00,0x00,0x00,0xf0,0x07,
 0x00,0x00,0x00,0x8f,0xc3,0xc1,0xdf,0x19,0x00,0x01,0x00,0x00,0x00,0x00,0x00,
 0x00,0x00,0x00,0x00,0x00,0x00,0x00,0x00,0x00,0x00,0x00,0xf0,0x07,0x00,0x00,
 0x00,0x8f,0xc3,0xc1,0xdf,0x19,0x00,0x01,0x00,0x00,0x00,0x00,0x00,0x00,0x00,
 0x00,0x00,0x00,0x00,0x00,0x00,0x00,0x00,0x00,0x00,0x04,0x00,0x00,0x00,0x78,
 0xdc,0xf8,0x39,0x17,0x00,0x01,0x00,0x00,0x00,0x00,0x00,0x00,0x00,0x00,0x00,
 0x00,0x00,0x00,0x00,0x00,0x00,0x00,0x00,0x04,0x00,0x00,0x00,0xc0,0xe3,0xff,
 0xff,0x18,0x00,0x01,0x00,0x00,0x00,0x00,0x00,0x00,0x00,0x00,0x00,0x00,0x00,
 0x00,0x00,0x00,0x00,0x00,0x00,0x04,0x00,0x00,0x00,0xc0,0xe3,0xff,0xff,0x18,
 0x00,0x01,0x00,0x00,0x00,0x00,0x00,0x00,0x00,0x00,0x00,0x00,0x00,0x00,0x00,
 0x00,0x00,0x00,0x00,0x04,0x00,0x00,0x00,0x80,0xff,0xff,0x07,0x1e,0x00,0x01,
 0x00,0x00,0x00,0x00,0x00,0x00,0x00,0x00,0x00,0x00,0x00,0x00,0x00,0x00,0x00,
 0x00,0x00,0x18,0x00,0x00,0x00,0x00,0xfc,0x3f,0x38,0x06,0x00,0x01,0x00,0x00,
 0x00,0x00,0x00,0x00,0x00,0x00,0x00,0x00,0x00,0x00,0x00,0x00,0x00,0x00,0x00,
 0x20,0x00,0x00,0x00,0x00,0xe0,0x3e,0xd8,0x01,0x00,0x01,0x00,0x00,0x00,0x00,
 0x00,0x00,0x00,0x00,0x00,0x00,0x00,0x00,0x00,0x00,0x00,0x00,0x00,0x20,0x00,
 0x00,0x00,0x00,0xe0,0x3e,0xd8,0x01,0x00,0x01,0x00,0x00,0x00,0x00,0x00,0x00,
 0x00,0x00,0x00,0x00,0x00,0x00,0x00,0x00,0x00,0x00,0x00,0xc0,0x00,0x00,0x00,
 0x00,0x00,0x31,0x18,0x01,0x00,0x01,0x00,0x00,0x00,0x00,0x00,0x00,0x00,0x00,
 0x00,0x00,0x00,0x00,0x00,0x00,0x00,0x00,0x00,0x00,0x01,0x00,0x00,0x00,0x00,
 0x31,0x18,0x01,0x00,0x01,0x00,0x00,0x00,0x00,0x00,0x00,0x00,0x00,0x00,0x00,
 0x00,0x00,0x00,0x00,0x00,0x00,0x00,0x00,0x01,0x00,0x00,0x00,0x00,0x31,0x18,
 0x01,0x00,0x01,0x00,0x00,0x00,0x00,0x00,0x00,0x00,0x00,0x00,0x00,0x00,0x00,
 0x00,0x00,0x00,0x00,0x00,0x00,0x02,0x00,0x00,0x00,0x00,0x31,0x18,0x01,0x00,
 0x01,0x00,0x00,0x00,0x00,0x00,0x00,0x00,0x00,0x00,0x00,0x00,0x00,0x00,0x00,
 0x00,0x00,0x00,0x00,0x0c,0x00,0x00,0x00,0x00,0x31,0x18,0x01,0x00,0x01,0x00,
 0x00,0x00,0x00,0x00,0x00,0x00,0x00,0x00,0x00,0x00,0x00,0x00,0x00,0x00,0x00,
 0x00,0x00,0x0c,0x00,0x00,0x00,0x00,0x31,0x18,0x01,0x00,0x01,0x00,0x00,0x00,
 0x00,0x00,0x00,0x00,0x00,0x00,0x00,0x00,0x00,0x00,0x00,0x00,0x00,0x00,0x00,
 0x0c,0x00,0x00,0x00,0x00,0x31,0x18,0x01,0x00,0x01,0x00,0x00,0x00,0x00,0x00,
 0x00,0x00,0x00,0x00,0x00,0x00,0x00,0x00,0x00,0x00,0x00,0x00,0x00,0x10,0x00,
 0x00,0x00,0x00,0x31,0x18,0x01,0x00,0x01,0x00,0x00,0x00,0x00,0x00,0x00,0x00,
 0x00,0x00,0x00,0x00,0x00,0x00,0x00,0x00,0x00,0x00,0x00,0x10,0x00,0x00,0x00,
 0x00,0x31,0x18,0x01,0x00,0x01,0x00,0x00,0x00,0x00,0x00,0x00,0x00,0x00,0x00,
 0x00,0x00,0x00,0x00,0x00,0x00,0x00,0x00,0x00,0x60,0x00,0x00,0x00,0x00,0x31,
 0x18,0x01,0x00,0x01,0x00,0x00,0x00,0x00,0x00,0x00,0x00,0x00,0x00,0x00,0x00,
 0x00,0x00,0x00,0x00,0x00,0x00,0x00,0x80,0x00,0x00,0x00,0x00,0x31,0x18,0x01,
 0xc0,0x00,0x00,0x00,0x00,0x00,0x00,0x00,0x00,0x00,0x00,0x00,0x00,0x00,0x00,
 0x00,0x00,0x00,0x00,0x00,0x00,0x03,0x00,0x00,0x00,0x31,0x18,0x01,0xc0,0x00,
 0x00,0x00,0x00,0x00,0x00,0x00,0x00,0x00,0x00,0x00,0x00,0x00,0x00,0x00,0x00,
 0x00,0x00,0x00,0x00,0x03,0x00,0x00,0x00,0x31,0x18,0x01,0xc0,0x00,0x00,0x00,
 0x00,0x00,0x00,0x00,0x00,0x00,0x00,0x00,0x00,0x00,0x00,0x00,0x00,0x00,0x00,
 0x00,0x00,0x04,0x00,0x00,0x00,0x31,0x18,0x01,0xc0,0x00,0x00,0x00,0x00,0x00,
 0x00,0x00,0x00,0x00,0x00,0x00,0x00,0x00,0x00,0x00,0x00,0x00,0x00,0x00,0x00,
 0x18,0x00,0x00,0x00,0x31,0x18,0x01,0x20,0x00,0x00,0x00,0x00,0x00,0x00,0x00,
 0x00,0x00,0x00,0x00,0x00,0x00,0x00,0x00,0x00,0x00,0x00,0x00,0x00,0x18,0x00,
 0x00,0x00,0x31,0x18,0x01,0x20,0x00,0x00,0x00,0x00,0x00,0x00,0x00,0x00,0x00,
 0x00,0x00,0x00,0x00,0x00,0x00,0x00,0x00,0x00,0x00,0x00,0x20,0x00,0x00,0x00,
 0x31,0x18,0x01,0x20,0x00,0x00,0x00,0x00,0x00,0x00,0x00,0x00,0x00,0x00,0x00,
 0x00,0x00,0x00,0x00,0x00,0x00,0x00,0x00,0x00,0x40,0x00,0x00,0x00,0x31,0x18,
 0x01,0x20,0x00,0x00,0x00,0x00,0x00,0x00,0x00,0x00,0x00,0x00,0x00,0x00,0x00,
 0x00,0x00,0x00,0x00,0x00,0x00,0x00,0x40,0x00,0x00,0x00,0x31,0x18,0x01,0x20,
 0x00,0x00,0x00,0x00,0x00,0x00,0x00,0x00,0x00,0x00,0x00,0x00,0x00,0x00,0x00,
 0x00,0x00,0x00,0x00,0x00,0x80,0x01,0x00,0x00,0x31,0x18,0x01,0x20,0x00,0x00,
 0x00,0x00,0x00,0x00,0x00,0x00,0x00,0x00,0x00,0x00,0x00,0x00,0x00,0x00,0x00,
 0x00,0x00,0x00,0x00,0x02,0x00,0x00,0x31,0x18,0x01,0x18,0x00,0x00,0x00,0x00,
 0x00,0x00,0x00,0x00,0x00,0x00,0x00,0x00,0x00,0x00,0x00,0x00,0x00,0x00,0x00,
 0x00,0x00,0x0c,0x00,0x00,0xf1,0x1f,0x01,0x18,0x00,0x00,0x00,0x00,0x00,0x00,
 0x00,0x00,0x00,0x00,0x00,0x00,0x00,0x00,0x00,0x00,0x00,0x00,0x00,0x00,0x00,
 0x0c,0x00,0x00,0xf1,0x1f,0x01,0x18,0x00,0x00,0x00,0x00,0x00,0x00,0x00,0x00,
 0x00,0x00,0x00,0x00,0x00,0x00,0x00,0x00,0x00,0x00,0x00,0x00,0x00,0x0c,0x00,
 0x00,0xb1,0x3f,0x01,0x18,0x00,0x00,0x00,0x00,0x00,0x00,0x00,0x00,0x00,0x00,
 0x00,0x00,0x00,0x00,0x00,0x00,0x00,0x00,0x00,0x00,0x00,0x10,0x00,0x00,0x4f,
 0xdc,0x01,0x04,0x00,0x00,0x00,0x00,0x00,0x00,0x00,0x00,0x00,0x00,0x00,0x00,
 0x00,0x00,0x00,0x00,0x00,0x00,0x00,0x00,0x00,0x10,0x00,0x00,0x4f,0xdc,0x01,
 0x04,0x00,0x00,0x00,0x00,0x00,0x00,0x00,0x00,0x00,0x00,0x00,0x00,0x00,0x00,
 0x00,0x00,0x00,0x00,0x00,0x00,0x00,0x60,0x00,0x00,0xc1,0xc7,0x00,0x04,0x00,
 0x00,0x00,0x00,0x00,0x00,0x00,0x00,0x00,0x00,0x00,0x00,0x00,0x00,0x00,0x00,
 0x00,0x00,0x00,0x00,0x00,0x80,0x00,0x00,0x0e,0x20,0x00,0x03,0x00,0x00,0x00,
 0x00,0x00,0x00,0x00,0x00,0x00,0x00,0x00,0x00,0x00,0x00,0x00,0x00,0x00,0x00,
 0x00,0x00,0x00,0x80,0x00,0x00,0x0e,0x20,0x00,0x03,0x00,0x00,0x00,0x00,0x00,
 0x00,0x00,0x00,0x00,0x00,0x00,0x00,0x00,0x00,0x00,0x00,0x00,0x00,0x00,0x00,
 0x00,0x00,0x01,0x00,0x70,0x1c,0x80,0x00,0x00,0x00,0x00,0x00,0x00,0x00,0x00,
 0x00,0x00,0x00,0x00,0x00,0x00,0x00,0x00,0x00,0x00,0x00,0x00,0x00,0x00,0x00,
 0x06,0x00,0xc0,0x1f,0x60,0x00,0x00,0x00,0x00,0x00,0x00,0x00,0x00,0x00,0x00,
 0x00,0x00,0x00,0x00,0x00,0x00,0x00,0x00,0x00,0x00,0x00,0x00,0x00,0x06,0x00,
 0xc0,0x1f,0x60,0x00,0x00,0x00,0x00,0x00,0x00,0x00,0x00,0x00,0x00,0x00,0x00,
 0x00,0x00,0x00,0x00,0x00,0x00,0x00,0x00,0x00,0x00,0x00,0x08,0x00,0x40,0x18,
 0x10,0x00,0x00,0x00,0x00,0x00,0x00,0x00,0x00,0x00,0x00,0x00,0x00,0x00,0x00,
 0x00,0x00,0x00,0x00,0x00,0x00,0x00,0x00,0x00,0x70,0x00,0x40,0x18,0x08,0x00,
 0x00,0x00,0x00,0x00,0x00,0x00,0x00,0x00,0x00,0x00,0x00,0x00,0x00,0x00,0x00,
 0x00,0x00,0x00,0x00,0x00,0x00,0x00,0x80,0x03,0x40,0x18,0x08,0x00,0x00,0x00,
 0x00,0x00,0x00,0x00,0x00,0x00,0x00,0x00,0x00,0x00,0x00,0x00,0x00,0x00,0x00,
 0x00,0x00,0x00,0x00,0x00,0x80,0x03,0x40,0x18,0x08,0x00,0x00,0x00,0x00,0x00,
 0x00,0x00,0x00,0x00,0x00,0x00,0x00,0x00,0x00,0x00,0x00,0x00,0x00,0x00,0x00,
 0x00,0x00,0x00,0x00,0x0c,0x40,0x18,0x06,0x00,0x00,0x00,0x00,0x00,0x00,0x00,
 0x00,0x00,0x00,0x00,0x00,0x00,0x00,0x00,0x00,0x00,0x00,0x00,0x00,0x00,0x00,
 0x00,0x00,0x30,0x40,0x18,0x01,0x00,0x00,0x00,0x00,0x00,0x00,0x00,0x00,0x00,
 0x00,0x00,0x00,0x00,0x00,0x00,0x00,0x00,0x00,0x00,0x00,0x00,0x00,0x00,0x00,
 0x30,0x40,0x18,0x01,0x00,0x00,0x00,0x00,0x00,0x00,0x00,0x00,0x00,0x00,0x00,
 0x00,0x00,0x00,0x00,0x00,0x00,0x00,0x00,0x00,0x00,0x00,0x00,0x00,0xc0,0x40,
 0xd8,0x00,0x00,0x00,0x00,0x00,0x00,0x00,0x00,0x00,0x00,0x00,0x00,0x00,0x00,
 0x00,0x00,0x00,0x00,0x00,0x00,0x00,0x00,0x00,0x00,0x00,0x00,0x47,0x38,0x00,
 0x00,0x00,0x00,0x00,0x00,0x00,0x00,0x00,0x00,0x00,0x00,0x00,0x00,0x00,0x00,
 0x00,0x00,0x00,0x00,0x00,0x00,0x00,0x00,0x00,0x00,0x47,0x38,0x00,0x00,0x00,
 0x00,0x00,0x00,0x00,0x00,0x00,0x00,0x00,0x00,0x00,0x00,0x00,0x00,0x00,0x00,
 0x00,0x00,0x00,0x00,0x00,0x00,0x00,0x00,0x78,0x18,0x00,0x00,0x00,0x00,0x00,
 0x00,0x00,0x00,0x00,0x00,0x00,0x00,0x00,0x00,0x00,0x00,0x00,0x00,0x00,0x00,
 0x00,0x00,0x00,0x00,0x00,0x00,0xc0,0x07,0x00,0x00,0x00,0x00,0x00,0x00,0x00,
 0x00,0x00,0x00,0x00,0x00,0x00,0x00,0x00,0x00,0x00,0x00,0x00,0x00,0x00,0x00,
 0x00,0x00,0x00,0x00,0xc0,0x07,0x00,0x00,0x00,0x00,0x00,0x00,0x00,0x00,0x00,
 0x00,0x00,0x00,0x00,0x00,0x00,0x00,0x00,0x00,0x00,0x00,0x00,0x00,0x00,0x00,
 0x00,0x00,0x00,0x00,0x00,0x00,0x00,0x00,0x00,0x00,0x00,0x00,0x00,0x00,0x00,
 0x00,0x00,0x00,0x00,0x00,0x00,0x00,0x00,0x00,0x00,0x00,0x00,0x00,0x00,0x00,
 0x00,0x00,0x00,0x00,0x00,0x00,0x00,0x00,0x00,0x00,0x00,0x00,0x00,0x00,0x00,
 0x00,0x00,0x00,0x00,0x00,0x00,0x00,0x00,0x00,0x00,0x00,0x00,0x00,0x00,0x00,
 0x00,0x00,0x00,0x00,0x00,0x00,0x00,0x00,0x00,0x00,0x00,0x00,0x00,0x00,0x00,
 0x00,0x00,0x00,0x00,0x00,0x00,0x00,0x00,0x00,0x00,0x00,0x00,0x00,0x00,0x00,
 0x00,0x00,0x00,0x00,0x00,0x00,0x00,0x00,0x00,0x00,0x00,0x00,0x00,0x00,0x00,
 0x00,0x00,0x00,0x00,0x00,0x00,0x00,0x00,0x00,0x00,0x00,0x00,0x00,0x00,0x00,
 0x00,0x00,0x00,0x00,0x00,0x00,0x00,0x00,0x00,0x00,0x00,0x00,0x00,0x00,0x00,
 0x00,0x00,0x00,0x00,0x00,0x00,0x00,0x00,0x00,0x00,0x00,0x00,0x00,0x00,0x00,
 0x00,0x00,0x00,0x00,0x00,0x00,0x00,0x00,0x00,0x00,0x00,0x00,0x00,0x00,0x00,
 0x00,0x00,0x00,0x00,0x00,0x00,0x00,0x00,0x00,0x00,0x00,0x00,0x00,0x00,0x00,
 0x00,0x00,0x00,0x00,0x00,0x00,0x00,0x00,0x00,0x00,0x00,0x00,0x00,0x00,0x00,
 0x00,0x00,0x00,0x00,0x00,0x00,0x00,0x00,0x00,0x00,0x00,0x00,0x00,0x00,0x00,
 0x00,0x00,0x00,0x00,0x00,0x00,0x00,0x00,0x00,0x00,0x00,0x00,0x00,0x00,0x00,
 0x00,0x00,0x00,0x00,0x00,0x00,0x00,0x00,0x00,0x00,0x00,0x00,0x00,0x00,0x00,
 0x00,0x00,0x00,0x00,0x00,0x00,0x00,0x00,0x00,0x00,0x00,0x00,0x00,0x00,0x00,
 0x00,0x00,0x00,0x00,0x00,0x00,0x00,0x00,0x00,0x00,0x00,0x00,0x00,0x00,0x00,
 0x00,0x00,0x00,0x00,0x00,0x00,0x00,0x00,0x00,0x00,0x00,0x00,0x00,0x00,0x00,
 0x00,0x00,0x00,0x00,0x00,0x00,0x00,0x00,0x00,0x00,0x00,0x00,0x00,0x00,0x00,
 0x00,0x00,0x00,0x00,0x00,0x00,0x00,0x00,0x00,0x00,0x00,0x00,0x00,0x00,0x00,
 0x00,0x00,0x00,0x00,0x00,0x00,0x00,0x00,0x00,0x00,0x00,0x00,0x00,0x00,0x00,
 0x00,0x00,0x00,0x00,0x00,0x00,0x00,0x00,0x00,0x00,0x00,0x00,0x00,0x00,0x00,
 0x00,0x00,0x00,0x00,0x00,0x00,0x00,0x00,0x00,0x00,0x00,0x00,0x00,0x00,0x00,
 0x00,0x00,0x00,0x00,0x00,0x00,0x00,0x00,0x00,0x00,0x00,0x00,0x00,0x00,0x00,
 0x00,0x00,0x00,0x00,0x00,0x00,0x00,0x00,0x00,0x00,0x00,0x00,0x00,0x00,0x00,
 0x00,0x00,0x00,0x00,0x00,0x00,0x00,0x00,0x00,0x00,0x00,0x00,0x00,0x00,0x00,
 0x00,0x00,0x00,0x00,0x00,0x00,0x00,0x00,0x00,0x00,0x00,0x00,0x00,0x00,0x00,
 0x00,0x00,0x00,0x00,0x00,0x00,0x00,0x00,0x00,0x00,0x00,0x00,0x00,0x00,0x00,
 0x00,0x00,0x00,0x00,0x00,0x00,0x00,0x00,0x00,0x00,0x00,0x00,0x00,0x00,0x00,
 0x00,0x00,0x00,0x00,0x00,0x00,0x00,0x00,0x00,0x00,0x00,0x00,0x00,0x00,0x00,
 0x00,0x00,0x00,0x00,0x00,0x00,0x00,0x00,0x00,0x00,0x00,0x00,0x00,0x00,0x00,
 0x00,0x00,0x00,0x00,0x00,0x00,0x00,0x00,0x00,0x00,0x00,0x00,0x00,0x00,0x00,
 0x00,0x00,0x00,0x00,0x00,0x00,0x00,0x00,0x00,0x00,0x00,0x00,0x00,0x00,0x00,
 0x00,0x00,0x00,0x00,0x00,0x00,0x00,0x00,0x00,0x00,0x00,0x00,0x00,0x00,0x00,
 0x00,0x00,0x00,0x00,0x00,0x00,0x00,0x00,0x00,0x00,0x00,0x00,0x00,0x00,0x00,
 0x00,0x00,0x00,0x00,0x00,0x00,0x00,0x00,0x00,0x00,0x00,0x00,0x00,0x00,0x00,
 0x00,0x00,0x00,0x00,0x00,0x00,0x00,0x00,0x00,0x00,0x00,0x00,0x00,0x00,0x00,
 0x00,0x00,0x00,0x00,0x00,0x00,0x00,0x00,0x00,0x00,0x00,0x00,0x00,0x00,0x00,
 0x00,0x00,0x00,0x00,0x00,0x00,0x00,0x00,0x00,0x00,0x00,0x00,0x00,0x00,0x00,
 0x00,0x00,0x00,0x00,0x00,0x00,0x00,0x00,0x00,0x00,0x00,0x00,0x00,0x00,0x00,
 0x00,0x00,0x00,0x00,0x00,0x00,0x00,0x00,0x00,0x00,0x00,0x00,0x00,0x00,0x00,
 0x00,0x00,0x00,0x00,0x00,0x00,0x00,0x00,0x00,0x00,0x00,0x00,0x00,0x00,0x00,
 0x00,0x00,0x00,0x00,0x00,0x00,0x00,0x00,0x00,0x00,0x00,0x00,0x00,0x00,0x00,
 0x00,0x00,0x00,0x00,0x00,0x00,0x00,0x00,0x00,0x00,0x00,0x00,0x00,0x00,0x00,
 0x00,0x00,0x00,0x00,0x00,0x00,0x00,0x00,0x00,0x00,0x00,0x00,0x00,0x00,0x00,
 0x00,0x00,0x00,0x00,0x00,0x00,0x00,0x00,0x00,0x00,0x00,0x00,0x00,0x00,0x00,
 0x00,0x00,0x00,0x00,0x00,0x00,0x00,0x00,0x00,0x00,0x00,0x00,0x00,0x00,0x00,
 0x00,0x00,0x00,0x00,0x00,0x00,0x00,0x00,0x00,0x00,0x00,0x00,0x00,0x00,0x00,
 0x00,0x00,0x00,0x00,0x00,0x00,0x00,0x00,0x00,0x00,0x00,0x00,0x00,0x00,0x00,
 0x00,0x00,0x00,0x00,0x00,0x00,0x00,0x00,0x00,0x00,0x00,0x00,0x00,0x00,0x00,
 0x00,0x00,0x00,0x00,0x00,0x00,0x00,0x00,0x00,0x00,0x00,0x00,0x00,0x00,0x00,
 0x00,0x00,0x00,0x00,0x00,0x00,0x00,0x00,0x00,0x00,0x00,0x00,0x00,0x00,0x00,
 0x00,0x00,0x00,0x00,0x00,0x00,0x00,0x00,0x00,0x00,0x00,0x00,0x00,0x00,0x00,
 0x00,0x00,0x00,0x00,0x00,0x00,0x00,0x00,0x00,0x00,0x00,0x00,0x00,0x00,0x00,
 0x00,0x00,0x00,0x00,0x00,0x00,0x00,0x00,0x00,0x00,0x00,0x00,0x00,0x00,0x00,
 0x00,0x00,0x00,0x00,0x00,0x00,0x00,0x00,0x00,0x00,0x00,0x00,0x00,0x00,0x00,
 0x00,0x00,0x00,0x00,0x00,0x00,0x00,0x00,0x00,0x00,0x00,0x00,0x00,0x00,0x00,
 0x00,0x00,0x00,0x00,0x00,0x00,0x00,0x00,0x00,0x00,0x00,0x00,0x00,0x00,0x00,
 0x00,0x00,0x00,0x00,0x00,0x00,0x00,0x00,0x00,0x00,0x00,0x00,0x00,0x00,0x00,
 0x00,0x00,0x00,0x00,0x00,0x00,0x00,0x00,0x00,0x00,0x00,0x00,0x00,0x00,0x00,
 0x00,0x00,0x00,0x00,0x00,0x00,0x00,0x00,0x00,0x00,0x00,0x00,0x00,0x00,0x00,
 0x00,0x00,0x00,0x00,0x00,0x00,0x00,0x00,0x00,0x00,0x00,0x00,0x00,0x00,0x00,
 0x00,0x00,0x00,0x00,0x00,0x00,0x00,0x00,0x00,0x00,0x00,0x00,0x00,0x00,0x00,
 0x00,0x00,0x00,0x00,0x00,0x00,0x00,0x00,0x00,0x00,0x00,0x00,0x00,0x00,0x00,
 0x00,0x00,0x00,0x00,0x00,0x00,0x00,0x00,0x00,0x00,0x00,0x00,0x00,0x00,0x00,
 0x00,0x00,0x00,0x00,0x00,0x00,0x00,0x00,0x00,0x00,0x00,0x00,0x00,0x00,0x00,
 0x00,0x00,0x00,0x00,0x00,0x00,0x00,0x00,0x00,0x00,0x00,0x00,0x00,0x00,0x00,
 0x00,0x00,0x00,0x00,0x00,0x00,0x00,0x00,0x00,0x00,0x1e,0x78,0x00,0x00,0x00,
 0x00,0x00,0x00,0x00,0x00,0x00,0x00,0x00,0x00,0x00,0x00,0x00,0x00,0x00,0x00,
 0x00,0x00,0x00,0x00,0x00,0x00,0x00,0x88,0x21,0x86,0x00,0x00,0x00,0x00,0x00,
 0x00,0x00,0x00,0x00,0x00,0x00,0x00,0x00,0x00,0x00,0x00,0x00,0x00,0x00,0x00,
 0x00,0x00,0x00,0x00,0x00,0x88,0x21,0x86,0x00,0x00,0x00,0x00,0x00,0x00,0x00,
 0x00,0x00,0x00,0x00,0x00,0x00,0x00,0x00,0x00,0x00,0x00,0x00,0x00,0x00,0x00,
 0x00,0x00,0x00,0x88,0x21,0x86,0x00,0x00,0x00,0x00,0x00,0x00,0x00,0x00,0x00,
 0x00,0x00,0x00,0x00,0x00,0x00,0x00,0x00,0x00,0x00,0x00,0x00,0x80,0x7d,0xfe,
 0x21,0xbf,0x21,0x80,0x00,0x00,0x00,0x00,0x00,0x00,0x00,0x00,0x00,0x00,0x00,
 0x00,0x00,0x00,0x00,0x00,0x00,0x00,0x00,0x00,0x00,0x80,0x7d,0xfe,0x21,0xbf,
 0x21,0x80,0x00,0x00,0x00,0x00,0x00,0x00,0x00,0x00,0x00,0x00,0x00,0x00,0x00,
 0x00,0x00,0x00,0x00,0x00,0x00,0x00,0x00,0x80,0x83,0x80,0xe1,0x88,0x21,0x60,
 0x00,0x00,0x00,0x00,0x00,0x00,0x00,0x00,0x00,0x00,0x00,0x00,0x00,0x00,0x00,
 0x00,0x00,0x00,0x00,0x00,0x00,0x80,0x81,0xf8,0x21,0x88,0x21,0x10,0x00,0x00,
 0x00,0x00,0x00,0x00,0x00,0x00,0x00,0x00,0x00,0x00,0x00,0x00,0x00,0x00,0x00,
 0x00,0x00,0x00,0x00,0x80,0x81,0xf8,0x21,0x88,0x21,0x10,0x00,0x00,0x00,0x00,
 0x00,0x00,0x00,0x00,0x00,0x00,0x00,0x00,0x00,0x00,0x00,0x00,0x00,0x00,0x00,
 0x00,0x00,0x80,0x81,0x86,0x21,0x88,0x21,0x08,0x00,0x00,0x00,0x00,0x00,0x00,
 0x00,0x00,0x00,0x00,0x00,0x00,0x00,0x00,0x00,0x00,0x00,0x00,0x00,0x00,0x00,
 0x80,0x83,0x86,0x21,0x88,0x21,0x06,0x00,0x00,0x00,0x00,0x00,0x00,0x00,0x00,
 0x00,0x00,0x00,0x00,0x00,0x00,0x00,0x00,0x00,0x00,0x00,0x00,0x00,0x80,0x7d,
 0x78,0x22,0x38,0x1e,0xfe,0x00,0x00,0x00,0x00,0x00,0x00,0x00,0x00,0x00,0x00,
 0x00,0x00,0x00,0x00,0x00,0x00,0x00,0x00,0x00,0x00,0x00,0x80,0x7d,0x78,0x22,
 0x38,0x1e,0xfe,0x00,0x00,0x00,0x00,0x00,0x00,0x00,0x00,0x00,0x00,0x00,0x00,
 0x00,0x00,0x00,0x00,0x00,0x00,0x00,0x00,0x00,0x80,0x01,0x00,0x00,0x00,0x00,
 0x00,0x00,0x00,0x00,0x00,0x00,0x00,0x00,0x00,0x00,0x00,0x00,0x00,0x00,0x00,
 0x00,0x00,0x00,0x00,0x00,0x00,0x00,0x80,0x01,0x00,0x00,0x00,0x00,0x00,0x00,
 0x00,0x00,0x00,0x00,0x00,0x00,0x00,0x00,0x00,0x00,0x00,0x00,0x00,0x00,0x00,
 0x00,0x00,0x00,0x00,0x00,0x80,0x01,0x00,0x00,0x00,0x00,0x00,0x00,0x00,0x00,
 0x00,0x00,0x00,0x00,0x00,0x00,0x00,0x00,0x00,0x00,0x00,0x00,0x00,0x00,0x00,
 0x00,0x00,0x00,0x80,0x01,0x00,0x00,0x00,0x00,0x00,0x00,0x00,0x00,0x00,0x00,
 0x00,0x00,0x00,0x00,0x00,0x00};
