104 36 0 0                              
body $1 $2 $-1 $3 #
f_body-lwd-attrib $-1 $-1 $-1 $0 #
lump $-1 $-1 $4 $0 #
transform $-1 1 0 0 0 -3.49148133884313e-15 1 0 -1 -3.49148133884313e-15 0 0 0 1 1 0 0 #
shell $-1 $-1 $-1 $5 $2 #
face $6 $7 $8 $4 $-1 $9 0 #
fface-lwd-attrib $-1 $-1 $-1 $5 #
face $10 $11 $12 $4 $-1 $13 0 #
loop $-1 $14 $15 $5 #
cone-surface $-1 0 0 0 0 0 1 50 0 0 1 0 1 0 #
fface-lwd-attrib $-1 $-1 $-1 $7 #
face $16 $-1 $17 $4 $-1 $18 0 #
loop $-1 $-1 $19 $7 #
plane-surface $-1 0 0 -15 0 0 -1 -1 0 0 0 #
loop $-1 $-1 $20 $5 #
coedge $21 $15 $15 $19 $22 1 $8 $-1 #
fface-lwd-attrib $-1 $-1 $-1 $11 #
loop $-1 $-1 $23 $11 #
plane-surface $-1 0 0 15 0 0 1 1 0 0 0 #
coedge $24 $19 $19 $15 $22 0 $12 $-1 #
coedge $25 $20 $20 $23 $26 1 $14 $-1 #
copar-lwd-attrib $-1 $-1 $-1 $15 #
edge $27 $28 $28 $19 $29 0 #
coedge $30 $23 $23 $20 $26 0 $17 $-1 #
copar-lwd-attrib $-1 $-1 $-1 $19 #
copar-lwd-attrib $-1 $-1 $-1 $20 #
edge $31 $32 $32 $23 $33 0 #
epar-lwd-attrib $-1 $-1 $-1 $22 #
vertex $-1 $22 $34 #
ellipse-curve $-1 0 0 -15 0 0 -1 50 0 0 1 #
copar-lwd-attrib $-1 $-1 $-1 $23 #
epar-lwd-attrib $-1 $-1 $-1 $26 #
vertex $-1 $26 $35 #
ellipse-curve $-1 0 0 15 0 0 1 50 0 0 1 #
point $-1 50 0 -15 #
point $-1 50 0 15 #
