600 0 2 0           
24 FBMach with ACIS - 6.0.3 13 ACIS 6.0.3 NT 24 Tue May 22 12:27:59 2001 
1 9.9999999999999995e-007 1e-010 
body $2 $3 $-1 $4 #
bdycol-kcp $-1 1 2 $5 $6 #
model_id-kcp-attrib $-1 $7 $-1 $0 1 990548879 50 1462894593 1 #
lump $-1 $-1 $8 $0 #
transform $-1 1 0 0 0 -3.4914813388431298e-015 1 0 -1 -3.4914813388431298e-015 0 0 0 1 rotate no_reflect no_shear #
body $9 $10 $-1 $11 #
body $12 $13 $-1 $14 #
f_body-rbase-attrib $-1 $-1 $2 $0 #
shell $-1 $-1 $-1 $15 $-1 $3 #
model_id-kcp-attrib $-1 $-1 $-1 $5 1 990548879 50 1462894594 1 #
lump $-1 $-1 $16 $5 #
transform $-1 1 0 0 0 1 0 0 0 1 0 0 0 1 no_rotate no_reflect no_shear #
rgb_color-st-attrib $-1 $17 $-1 $6 0.5 1 1 #
lump $-1 $-1 $18 $6 #
transform $-1 1 0 0 0 1 0 0 0 1 0 0 0 1 no_rotate no_reflect no_shear #
face $19 $20 $21 $8 $-1 $22 forward single #
shell $-1 $-1 $-1 $23 $-1 $10 #
model_id-kcp-attrib $-1 $-1 $12 $6 1 990548879 80 1464860675 1 #
shell $-1 $-1 $-1 $24 $-1 $13 #
model_id-kcp-attrib $-1 $25 $-1 $15 1 990548879 50 1462894593 2 #
face $26 $27 $28 $8 $-1 $29 forward single #
loop $-1 $30 $31 $15 #
cone-surface $-1 0 0 0 0 0 1 50 0 0 1 I I 0 1 50 forward I I I I #
face $-1 $32 $33 $16 $-1 $34 forward single #
face $-1 $35 $36 $18 $-1 $37 reversed single #
fface-rbase-attrib $-1 $-1 $19 $15 #
model_id-kcp-attrib $-1 $38 $-1 $20 1 990548879 50 1462894593 5 #
face $39 $-1 $40 $8 $-1 $41 forward single #
loop $-1 $-1 $42 $20 #
plane-surface $-1 0 0 -15 0 0 -1 -1 0 0 forward_v I I I I #
loop $-1 $-1 $43 $15 #
coedge $44 $31 $31 $42 $45 reversed $21 $-1 #
face $-1 $46 $47 $16 $-1 $48 reversed single #
loop $-1 $-1 $49 $23 #
plane-surface $-1 0 0 50.00000000000005 0 0 1 1 0 0 forward_v I I I I #
face $-1 $50 $51 $18 $-1 $37 reversed single #
loop $-1 $-1 $52 $24 #
cone-surface $-1 5.6237277068330154e-031 15 5.237222008264695e-014 0 1 3.4914813388431298e-015 -50 -2.1378451158997786e-029 6.1230317691118863e-015 1 I I 0 1 50 forward I I I I #
model_id-kcp-attrib $-1 $53 $26 $20 1 990548879 50 1462894593 3 #
model_id-kcp-attrib $-1 $54 $-1 $27 1 990548879 50 1462894593 4 #
loop $-1 $-1 $55 $27 #
plane-surface $-1 0 0 15 0 0 1 1 0 0 forward_v I I I I #
coedge $56 $42 $42 $31 $45 forward $28 $-1 #
coedge $57 $43 $43 $55 $58 reversed $30 $-1 #
copar-rbase-attrib $-1 $-1 $-1 $31 #
edge $59 $60 0 $60 6.2831853071795862 $42 $61 forward 7 unknown #
face $62 $63 $64 $16 $-1 $65 reversed single #
loop $-1 $-1 $66 $32 #
plane-surface $-1 0 0 -50.00000000000005 0 0 1 1 0 0 forward_v I I I I #
coedge $-1 $67 $68 $69 $70 forward $33 $-1 #
face $-1 $71 $72 $18 $-1 $37 reversed single #
loop $-1 $-1 $73 $35 #
coedge $-1 $74 $75 $76 $77 reversed $36 $-1 #
fface-rbase-attrib $-1 $-1 $38 $20 #
fface-rbase-attrib $-1 $-1 $39 $27 #
coedge $78 $55 $55 $43 $58 forward $40 $-1 #
copar-rbase-attrib $-1 $-1 $-1 $42 #
copar-rbase-attrib $-1 $-1 $-1 $43 #
edge $79 $80 0 $80 6.2831853071795862 $55 $81 forward 7 unknown #
attrib_edge_convexity-kcp-attrib $-1 $82 $-1 $45 1 #
vertex $-1 $45 $83 #
ellipse-curve $-1 0 0 -15 0 0 -1 50 0 0 1 I I #
model_id-kcp-attrib $-1 $-1 $-1 $46 1 990548879 50 1462894594 3 #
face $-1 $84 $85 $16 $-1 $86 reversed single #
loop $-1 $-1 $87 $46 #
plane-surface $-1 0 -15.000000000000174 0 0 1 0 0 0 1 forward_v I I I I #
coedge $-1 $88 $89 $90 $91 forward $47 $-1 #
coedge $-1 $92 $49 $93 $94 forward $33 $-1 #
coedge $-1 $49 $92 $95 $96 forward $33 $-1 #
coedge $-1 $97 $98 $49 $70 reversed $99 $-1 #
edge $-1 $100 -15.000000000000174 $101 15.000000000000174 $69 $102 forward 7 unknown #
face $-1 $103 $104 $18 $-1 $37 reversed single #
loop $-1 $-1 $105 $50 #
coedge $-1 $106 $107 $108 $109 reversed $51 $-1 #
coedge $-1 $110 $52 $111 $112 forward $36 $-1 #
coedge $-1 $52 $110 $113 $114 reversed $36 $-1 #
coedge $-1 $115 $116 $52 $77 forward $117 $-1 #
edge $-1 $118 -1.2246063538223773e-016 $119 1.5707963267948966 $76 $120 forward 7 unknown #
copar-rbase-attrib $-1 $-1 $-1 $55 #
epar-rbase-attrib $-1 $-1 $-1 $58 #
vertex $-1 $58 $121 #
ellipse-curve $-1 0 0 15 0 0 1 50 0 0 1 I I #
convexity-sys-attrib $-1 $122 $59 $45 #
point $-1 50 0 -15 #
face $123 $124 $125 $16 $-1 $126 reversed single #
loop $-1 $-1 $127 $63 #
plane-surface $-1 -50 0 0 1 0 0 0 0 -1 forward_v I I I I #
coedge $-1 $128 $95 $129 $130 forward $64 $-1 #
coedge $-1 $131 $66 $128 $132 forward $47 $-1 #
coedge $-1 $66 $131 $133 $134 forward $47 $-1 #
coedge $-1 $98 $97 $66 $91 reversed $99 $-1 #
edge $-1 $135 -15.000000000000174 $136 15.000000000000174 $90 $137 forward 7 unknown #
coedge $-1 $68 $67 $138 $139 forward $33 $-1 #
coedge $-1 $140 $141 $67 $94 reversed $125 $-1 #
edge $-1 $101 -50 $142 50 $93 $143 forward 7 unknown #
coedge $-1 $87 $144 $68 $96 reversed $64 $-1 #
edge $-1 $145 -50 $100 50 $95 $146 forward 7 unknown #
coedge $-1 $90 $69 $144 $147 forward $99 $-1 #
coedge $-1 $69 $90 $140 $148 reversed $99 $-1 #
loop $-1 $-1 $97 $124 #
vertex $-1 $70 $149 #
vertex $-1 $70 $150 #
straight-curve $-1 50 0 50.00000000000005 0 1 0 I I #
face $-1 $151 $152 $18 $-1 $153 forward single #
loop $-1 $-1 $154 $71 #
coedge $-1 $155 $156 $154 $157 forward $72 $-1 #
coedge $-1 $158 $73 $159 $160 reversed $51 $-1 #
coedge $-1 $73 $158 $75 $114 forward $51 $-1 #
coedge $-1 $161 $162 $73 $109 forward $163 $-1 #
edge $-1 $164 -3.1415926535897931 $165 -1.5707963267948966 $108 $166 forward 7 unknown #
coedge $-1 $75 $74 $167 $168 reversed $36 $-1 #
coedge $-1 $156 $155 $169 $112 reversed $72 $-1 #
edge $-1 $118 -30.000000000000178 $170 1.7408297026122455e-013 $169 $171 forward 7 unknown #
coedge $-1 $172 $173 $174 $114 forward $175 $-1 #
edge $-1 $119 -30 $165 3.4816594052244909e-013 $113 $176 forward 7 unknown #
coedge $-1 $116 $76 $173 $177 reversed $117 $-1 #
coedge $-1 $76 $115 $178 $179 forward $117 $-1 #
loop $-1 $-1 $76 $180 #
vertex $-1 $181 $182 #
vertex $-1 $183 $184 #
ellipse-curve $-1 5.6237277068330154e-031 -15.000000000000174 -5.2372220082647556e-014 0 1 0 -50 -2.1378451158997786e-029 6.1230317691118863e-015 1 I I #
point $-1 50 0 15 #
epar-rbase-attrib $-1 $-1 $82 $45 #
model_id-kcp-attrib $-1 $-1 $-1 $84 1 990548879 50 1462894594 2 #
face $-1 $-1 $99 $16 $-1 $185 reversed single #
loop $-1 $-1 $140 $84 #
plane-surface $-1 0 15.000000000000174 0 0 -1 0 0 0 -1 forward_v I I I I #
coedge $-1 $186 $138 $141 $187 forward $85 $-1 #
coedge $-1 $144 $87 $88 $132 reversed $64 $-1 #
coedge $-1 $138 $186 $87 $130 reversed $85 $-1 #
edge $-1 $145 -50.00000000000005 $188 50.00000000000005 $129 $189 forward 7 unknown #
coedge $-1 $89 $88 $186 $190 forward $47 $-1 #
edge $-1 $136 -50 $188 50 $128 $191 forward 7 unknown #
coedge $-1 $141 $140 $89 $134 reversed $125 $-1 #
edge $-1 $192 -50 $135 50 $133 $193 forward 7 unknown #
vertex $-1 $91 $194 #
vertex $-1 $147 $195 #
straight-curve $-1 50 0 -50.00000000000005 0 -1 0 I I #
coedge $-1 $127 $129 $92 $139 reversed $85 $-1 #
edge $-1 $142 -15.000000000000174 $145 15.000000000000174 $138 $196 forward 7 unknown #
coedge $-1 $133 $93 $98 $148 forward $125 $-1 #
coedge $-1 $93 $133 $127 $187 reversed $125 $-1 #
vertex $-1 $94 $197 #
straight-curve $-1 0 15.000000000000174 50.00000000000005 -1 0 0 I I #
coedge $-1 $95 $128 $97 $147 reversed $64 $-1 #
vertex $-1 $139 $198 #
straight-curve $-1 0 -15.000000000000174 50.00000000000005 1 0 0 I I #
edge $-1 $100 -50.00000000000005 $136 50.00000000000005 $97 $199 forward 7 unknown #
edge $-1 $101 -50.00000000000005 $135 50.00000000000005 $98 $200 forward 7 unknown #
point $-1 50 -15.000000000000174 50.00000000000005 #
point $-1 50 15.000000000000174 50.00000000000005 #
face $-1 $201 $202 $18 $-1 $203 reversed single #
loop $-1 $-1 $174 $103 #
plane-surface $-1 0 0 50.00000000000005 0 0 1 1 0 0 forward_v I I I I #
coedge $-1 $204 $205 $206 $157 reversed $104 $-1 #
coedge $-1 $111 $105 $207 $208 reversed $72 $-1 #
coedge $-1 $105 $111 $209 $210 reversed $72 $-1 #
edge $-1 $211 -30.000000000000348 $212 0 $206 $213 forward 7 unknown #
coedge $-1 $107 $106 $214 $215 reversed $51 $-1 #
coedge $-1 $216 $217 $218 $160 forward $219 $-1 #
edge $-1 $220 -30.000000000000178 $164 1.7408297026122455e-013 $159 $221 forward 7 unknown #
coedge $-1 $162 $108 $222 $223 reversed $163 $-1 #
coedge $-1 $108 $161 $216 $224 forward $163 $-1 #
loop $-1 $-1 $108 $225 #
vertex $-1 $226 $227 #
vertex $-1 $228 $229 #
ellipse-curve $-1 5.6237277068330154e-031 15.000000000000174 5.2372220082647556e-014 0 -1 0 -50 -2.1378451158997786e-029 6.1230317691118863e-015 1 I I #
coedge $-1 $230 $231 $110 $168 forward $232 $-1 #
edge $-1 $165 -1.5707963267948966 $170 1.2246063538223773e-016 $167 $166 forward 7 unknown #
coedge $-1 $233 $234 $235 $112 forward $202 $-1 #
vertex $-1 $236 $237 #
straight-curve $-1 -50 15 5.237222008264695e-014 0 1 3.4914813388431298e-015 I I #
coedge $-1 $238 $113 $231 $228 forward $175 $-1 #
coedge $-1 $113 $238 $115 $177 forward $175 $-1 #
coedge $-1 $239 $222 $107 $114 reversed $152 $-1 #
loop $-1 $-1 $113 $240 #
straight-curve $-1 5.6237277068330154e-031 14.999999999999826 50.00000000000005 0 1 3.4914813388431298e-015 I I #
edge $-1 $241 -50 $119 5.6237277068330154e-031 $115 $242 forward 7 unknown #
coedge $-1 $243 $235 $116 $179 reversed $244 $-1 #
edge $-1 $241 -50.00000000000005 $118 5.2372220082647556e-014 $178 $245 forward 7 unknown #
face $-1 $246 $117 $18 $-1 $247 reversed single #
edge $-1 $118 5.2372220082647556e-014 $248 50.00000000000005 $234 $245 forward 7 unknown #
point $-1 -50 -15.000000000000178 -5.2372220082647556e-014 #
edge $-1 $119 5.6237277068330154e-031 $249 50 $250 $242 forward 7 unknown #
point $-1 5.6237277068330154e-031 -15.000000000000174 50.00000000000005 #
plane-surface $-1 50 0 0 -1 0 0 0 0 1 forward_v I I I I #
coedge $-1 $129 $127 $131 $190 reversed $85 $-1 #
edge $-1 $142 -50.00000000000005 $192 50.00000000000005 $141 $251 forward 7 unknown #
vertex $-1 $190 $252 #
straight-curve $-1 -50 -15.000000000000174 0 0 0 -1 I I #
edge $-1 $188 -15.000000000000174 $192 15.000000000000174 $186 $253 forward 7 unknown #
straight-curve $-1 0 -15.000000000000174 -50.00000000000005 -1 0 0 I I #
vertex $-1 $134 $254 #
straight-curve $-1 0 15.000000000000174 -50.00000000000005 1 0 0 I I #
point $-1 50 15.000000000000174 -50.00000000000005 #
point $-1 50 -15.000000000000174 -50.00000000000005 #
straight-curve $-1 -50 0 50.00000000000005 0 -1 0 I I #
point $-1 -50 15.000000000000174 50.00000000000005 #
point $-1 -50 -15.000000000000174 50.00000000000005 #
straight-curve $-1 50 -15.000000000000174 0 0 0 -1 I I #
straight-curve $-1 50 15.000000000000174 0 0 0 -1 I I #
face $-1 $255 $256 $18 $-1 $257 reversed single #
loop $-1 $-1 $169 $151 #
plane-surface $-1 -50 0 0 1 0 0 0 0 -1 forward_v I I I I #
coedge $-1 $258 $154 $259 $260 reversed $104 $-1 #
coedge $-1 $154 $258 $261 $262 reversed $104 $-1 #
coedge $-1 $263 $264 $265 $157 forward $266 $-1 #
coedge $-1 $267 $268 $155 $208 forward $269 $-1 #
edge $-1 $170 1.2246063538223773e-016 $212 1.5707963267948968 $207 $166 forward 7 unknown #
coedge $-1 $270 $271 $156 $210 forward $272 $-1 #
edge $-1 $211 -1.5707963267948968 $118 -1.2246063538223773e-016 $209 $120 forward 7 unknown #
vertex $-1 $273 $274 #
vertex $-1 $275 $276 #
straight-curve $-1 5.6237277068330154e-031 15.000000000000174 -50.00000000000005 0 1 3.4914813388431298e-015 I I #
coedge $-1 $277 $250 $158 $215 forward $278 $-1 #
edge $-1 $119 1.5707963267948966 $220 3.1415926535897931 $214 $120 forward 7 unknown #
coedge $-1 $279 $159 $162 $224 reversed $219 $-1 #
coedge $-1 $159 $279 $277 $280 forward $219 $-1 #
coedge $-1 $281 $282 $258 $160 reversed $256 $-1 #
loop $-1 $-1 $159 $283 #
vertex $-1 $284 $285 #
straight-curve $-1 50 15 5.237222008264695e-014 0 1 3.4914813388431298e-015 I I #
coedge $-1 $174 $286 $161 $223 forward $152 $-1 #
edge $-1 $287 -50 $165 -5.6237277068330154e-031 $161 $288 forward 7 unknown #
edge $-1 $287 -50.00000000000005 $164 -5.2372220082647556e-014 $216 $289 forward 7 unknown #
face $-1 $290 $163 $18 $-1 $291 reversed single #
edge $-1 $164 -5.2372220082647556e-014 $292 50.00000000000005 $282 $289 forward 7 unknown #
point $-1 50 15.000000000000174 5.2372220082647556e-014 #
edge $-1 $165 -5.6237277068330154e-031 $293 50 $231 $288 forward 7 unknown #
point $-1 5.6237277068330154e-031 15.000000000000174 50.00000000000005 #
coedge $-1 $231 $167 $294 $295 reversed $232 $-1 #
coedge $-1 $167 $230 $172 $228 reversed $232 $-1 #
loop $-1 $-1 $167 $290 #
coedge $-1 $296 $169 $268 $236 forward $202 $-1 #
coedge $-1 $169 $296 $270 $181 reversed $202 $-1 #
coedge $-1 $178 $294 $74 $112 reversed $244 $-1 #
edge $-1 $170 -5.2372220082647556e-014 $297 50.00000000000005 $268 $298 forward 7 unknown #
point $-1 -50 15.000000000000174 5.2372220082647556e-014 #
coedge $-1 $173 $172 $243 $299 forward $175 $-1 #
coedge $-1 $286 $174 $250 $183 forward $152 $-1 #
face $-1 $300 $175 $18 $-1 $153 forward single #
vertex $-1 $299 $301 #
straight-curve $-1 0 -15.000000000000174 50.00000000000005 1 0 0 I I #
coedge $-1 $294 $178 $238 $299 reversed $244 $-1 #
loop $-1 $-1 $235 $302 #
straight-curve $-1 -50 -15.000000000000174 0 0 0 -1 I I #
face $-1 $303 $278 $18 $-1 $247 reversed single #
plane-surface $-1 0 -15.000000000000174 0 0 1 0 0 0 1 forward_v I I I I #
vertex $-1 $304 $305 #
vertex $-1 $306 $307 #
coedge $-1 $214 $277 $239 $183 reversed $278 $-1 #
straight-curve $-1 -50 15.000000000000174 0 0 0 -1 I I #
point $-1 -50 -15.000000000000174 -50.00000000000005 #
straight-curve $-1 -50 0 -50.00000000000005 0 1 0 I I #
point $-1 -50 15.000000000000174 -50.00000000000005 #
face $-1 $225 $308 $18 $-1 $291 reversed single #
loop $-1 $-1 $218 $201 #
plane-surface $-1 50 0 0 -1 0 0 0 0 1 forward_v I I I I #
coedge $-1 $205 $204 $106 $160 forward $104 $-1 #
coedge $-1 $309 $310 $204 $260 forward $311 $-1 #
edge $-1 $220 -3.1415926535897931 $211 -1.5707963267948968 $259 $120 forward 7 unknown #
coedge $-1 $312 $313 $205 $262 forward $308 $-1 #
edge $-1 $212 1.5707963267948968 $164 3.1415926535897931 $261 $166 forward 7 unknown #
coedge $-1 $314 $206 $313 $275 forward $266 $-1 #
coedge $-1 $206 $314 $309 $315 forward $266 $-1 #
coedge $-1 $316 $317 $105 $157 reversed $318 $-1 #
loop $-1 $-1 $206 $300 #
coedge $-1 $268 $207 $317 $319 reversed $269 $-1 #
coedge $-1 $207 $267 $233 $236 reversed $269 $-1 #
loop $-1 $-1 $207 $320 #
coedge $-1 $271 $209 $234 $181 forward $272 $-1 #
coedge $-1 $209 $270 $316 $273 reversed $272 $-1 #
loop $-1 $-1 $209 $321 #
edge $-1 $211 -5.6237277068330154e-031 $248 50 $271 $322 forward 7 unknown #
point $-1 5.6237277068330154e-031 -15.000000000000174 -50.00000000000005 #
edge $-1 $212 5.6237277068330154e-031 $292 50 $313 $323 forward 7 unknown #
point $-1 5.6237277068330154e-031 15.000000000000174 -50.00000000000005 #
coedge $-1 $250 $214 $217 $280 reversed $278 $-1 #
loop $-1 $-1 $214 $246 #
coedge $-1 $217 $216 $286 $306 reversed $219 $-1 #
edge $-1 $249 -50.00000000000005 $220 5.2372220082647556e-014 $217 $324 forward 7 unknown #
coedge $-1 $325 $218 $310 $284 forward $256 $-1 #
coedge $-1 $218 $325 $312 $226 reversed $256 $-1 #
face $-1 $-1 $219 $18 $-1 $257 reversed single #
edge $-1 $220 5.2372220082647556e-014 $326 50.00000000000005 $281 $324 forward 7 unknown #
point $-1 50 -15.000000000000178 -5.2372220082647556e-014 #
coedge $-1 $222 $239 $279 $306 forward $152 $-1 #
vertex $-1 $306 $327 #
straight-curve $-1 0 15.000000000000174 50.00000000000005 -1 0 0 I I #
straight-curve $-1 50 15.000000000000174 0 0 0 -1 I I #
face $-1 $320 $232 $18 $-1 $291 reversed single #
plane-surface $-1 0 15.000000000000174 0 0 -1 0 0 0 -1 forward_v I I I I #
vertex $-1 $328 $329 #
vertex $-1 $228 $330 #
coedge $-1 $235 $243 $230 $295 forward $244 $-1 #
edge $-1 $293 -50.00000000000005 $170 -5.2372220082647556e-014 $230 $298 forward 7 unknown #
coedge $-1 $234 $233 $331 $304 reversed $202 $-1 #
vertex $-1 $319 $332 #
straight-curve $-1 -50 15.000000000000174 0 0 0 -1 I I #
edge $-1 $293 -15.000000000000174 $241 15.000000000000174 $243 $333 forward 7 unknown #
face $-1 $302 $266 $18 $-1 $334 reversed single #
point $-1 -50 -15.000000000000174 50.00000000000005 #
face $-1 $283 $244 $18 $-1 $203 reversed single #
face $-1 $335 $311 $18 $-1 $247 reversed single #
edge $-1 $248 -15.000000000000174 $297 15.000000000000174 $296 $336 forward 7 unknown #
point $-1 -50 -15.000000000000174 -50.00000000000005 #
edge $-1 $249 -15.000000000000174 $287 15.000000000000174 $279 $337 forward 7 unknown #
point $-1 50 -15.000000000000174 50.00000000000005 #
loop $-1 $-1 $261 $255 #
coedge $-1 $310 $259 $264 $315 reversed $311 $-1 #
coedge $-1 $259 $309 $281 $284 reversed $311 $-1 #
loop $-1 $-1 $259 $303 #
coedge $-1 $313 $261 $282 $226 forward $308 $-1 #
coedge $-1 $261 $312 $263 $275 reversed $308 $-1 #
coedge $-1 $264 $263 $325 $328 forward $266 $-1 #
edge $-1 $326 -50 $211 -5.6237277068330154e-031 $309 $322 forward 7 unknown #
coedge $-1 $331 $265 $271 $273 forward $318 $-1 #
coedge $-1 $265 $331 $267 $319 forward $318 $-1 #
loop $-1 $-1 $265 $335 #
edge $-1 $297 -50 $212 5.6237277068330154e-031 $267 $323 forward 7 unknown #
face $-1 $321 $269 $18 $-1 $291 reversed single #
face $-1 $180 $272 $18 $-1 $247 reversed single #
straight-curve $-1 0 -15.000000000000174 -50.00000000000005 -1 0 0 I I #
straight-curve $-1 0 15.000000000000174 -50.00000000000005 1 0 0 I I #
straight-curve $-1 50 -15.000000000000174 0 0 0 -1 I I #
coedge $-1 $282 $281 $314 $328 reversed $256 $-1 #
vertex $-1 $284 $338 #
point $-1 50 15.000000000000174 50.00000000000005 #
edge $-1 $292 -15.000000000000174 $326 15.000000000000174 $325 $339 forward 7 unknown #
point $-1 50 15.000000000000174 -50.00000000000005 #
point $-1 -50 15.000000000000174 50.00000000000005 #
coedge $-1 $317 $316 $296 $304 forward $318 $-1 #
point $-1 -50 15.000000000000174 -50.00000000000005 #
straight-curve $-1 -50 0 50.00000000000005 0 -1 0 I I #
plane-surface $-1 0 0 -50.00000000000005 0 0 1 1 0 0 forward_v I I I I #
face $-1 $240 $318 $18 $-1 $334 reversed single #
straight-curve $-1 -50 0 -50.00000000000005 0 1 0 I I #
straight-curve $-1 50 0 50.00000000000005 0 1 0 I I #
point $-1 50 -15.000000000000174 -50.00000000000005 #
straight-curve $-1 50 0 -50.00000000000005 0 -1 0 I I #
End-of-ACIS-data 