600 0 1 0           
107 GICL ACIS Healer - Source: /gicl/data5/repository/UMD/simple_bracket2-stock/simple_bracket2-stock.sat - 6 0 18 ACIS 6.0.3 Solaris 24 Sun Apr 14 00:34:58 2002 
1 9.999999999999999547e-07 1.000000000000000036e-10 
body $1 $2 $-1 $-1 #
f_body-rbase-attrib $-1 $-1 $-1 $0 #
lump $-1 $-1 $3 $0 #
shell $-1 $-1 $-1 $4 $-1 $2 #
face $5 $6 $7 $3 $-1 $8 forward single #
fface-rbase-attrib $-1 $-1 $-1 $4 #
face $9 $10 $11 $3 $-1 $12 forward single #
loop $-1 $13 $14 $4 #
cone-surface $-1 0 0 0 0 -1 -3.491481338843129805e-15 50 0 0 1 I I 0 1 50 forward I I I I #
fface-rbase-attrib $-1 $-1 $-1 $6 #
face $15 $-1 $16 $3 $-1 $17 forward single #
loop $-1 $-1 $18 $6 #
plane-surface $-1 0 15 5.237222008264694984e-14 0 1 3.491481338843129805e-15 -1 -0 0 forward_v I I I I #
loop $-1 $-1 $19 $4 #
coedge $20 $14 $14 $18 $21 reversed $7 $-1 #
fface-rbase-attrib $-1 $-1 $-1 $10 #
loop $-1 $-1 $22 $10 #
plane-surface $-1 0 -15 -5.237222008264694984e-14 0 -1 -3.491481338843129805e-15 1 0 0 forward_v I I I I #
coedge $23 $18 $18 $14 $21 forward $11 $-1 #
coedge $24 $19 $19 $22 $25 reversed $13 $-1 #
copar-rbase-attrib $-1 $-1 $-1 $14 #
edge $26 $27 0 $27 6.283185307179586232 $18 $28 forward 7 unknown #
coedge $29 $22 $22 $19 $25 forward $16 $-1 #
copar-rbase-attrib $-1 $-1 $-1 $18 #
copar-rbase-attrib $-1 $-1 $-1 $19 #
edge $30 $31 0 $31 6.283185307179586232 $22 $32 forward 7 unknown #
epar-rbase-attrib $-1 $-1 $-1 $21 #
vertex $-1 $21 $33 #
ellipse-curve $-1 0 15 5.237222008264694984e-14 0 1 3.491481338843129805e-15 50 0 0 1 I I #
copar-rbase-attrib $-1 $-1 $-1 $22 #
epar-rbase-attrib $-1 $-1 $-1 $25 #
vertex $-1 $25 $34 #
ellipse-curve $-1 0 -15 -5.237222008264694984e-14 0 -1 -3.491481338843129805e-15 50 0 0 1 I I #
point $-1 50 15 5.237222008264694984e-14 #
point $-1 50 -15 -5.237222008264694984e-14 #
End-of-ACIS-data 