600 0 2 0           
24 FBMach with ACIS - 6.0.3 13 ACIS 6.0.3 NT 24 Mon Apr 01 00:02:03 2002 
1 9.9999999999999995e-007 1e-010 
body $2 $3 $-1 $4 #
bdycol-kcp $-1 1 2 $5 $6 #
model_id-kcp-attrib $-1 $7 $-1 $0 1 1017637323 250 502923265 1 #
lump $-1 $-1 $8 $0 #
transform $-1 1 0 0 0 1 0 0 0 1 0 0 0 1 rotate no_reflect no_shear #
body $9 $10 $-1 $11 #
body $12 $13 $-1 $14 #
aggregate_advspl_attribute-aggregate_geombuild_base_attribute-aggregate_body_attribute-attrib_HH-attrib $-1 $15 $2 $0 F #
shell $-1 $-1 $-1 $16 $-1 $3 #
model_id-kcp-attrib $-1 $-1 $-1 $5 1 1017637323 250 502923266 1 #
lump $-1 $-1 $17 $5 #
transform $-1 1 0 0 0 1 0 0 0 1 0 0 0 1 no_rotate no_reflect no_shear #
rgb_color-st-attrib $-1 $18 $-1 $6 0.5 1 1 #
lump $-1 $-1 $19 $6 #
transform $-1 1 0 0 0 1 0 0 0 1 0 0 0 1 no_rotate no_reflect no_shear #
aggregate_secndry_attribute-aggregate_geombuild_base_attribute-aggregate_body_attribute-attrib_HH-attrib $-1 $20 $7 $0 F #
face $21 $22 $23 $8 $-1 $24 forward single #
shell $-1 $-1 $-1 $25 $-1 $10 #
model_id-kcp-attrib $-1 $-1 $12 $6 1 1017637323 280 488112131 1 #
shell $-1 $-1 $-1 $26 $-1 $13 #
aggregate_sharped_attribute-aggregate_geombuild_base_attribute-aggregate_body_attribute-attrib_HH-attrib $-1 $27 $15 $0 F #
model_id-kcp-attrib $-1 $28 $-1 $16 1 1017637323 250 502923265 2 #
face $29 $30 $31 $8 $-1 $32 forward single #
loop $-1 $33 $34 $16 #
cone-surface $-1 0 0 0 0 -1 -3.4914813388431298e-015 50 0 0 1 I I 0 1 50 forward I I I I #
face $-1 $35 $36 $17 $-1 $37 forward single #
face $-1 $38 $39 $19 $-1 $40 reversed single #
aggregate_reblend_attribute-aggregate_geombuild_base_attribute-aggregate_body_attribute-attrib_HH-attrib $-1 $41 $20 $0 F #
attrib_hh_face_geombuild-attrib_entity_geombuild-individual_entity_attribute-attrib_HH-attrib $-1 $42 $21 $16 F #
model_id-kcp-attrib $-1 $43 $-1 $22 1 1017637323 250 502923265 5 #
face $44 $-1 $45 $8 $-1 $46 forward single #
loop $-1 $-1 $47 $22 #
plane-surface $-1 0 15 5.237222008264695e-014 0 1 3.4914813388431298e-015 -1 0 0 forward_v I I I I #
loop $-1 $-1 $48 $16 #
coedge $49 $34 $34 $47 $50 reversed $23 $-1 #
face $-1 $51 $52 $17 $-1 $53 reversed single #
loop $-1 $-1 $54 $25 #
plane-surface $-1 0 0 50.00000000000005 0 0 1 1 0 0 forward_v I I I I #
face $-1 $55 $56 $19 $-1 $40 reversed single #
loop $-1 $-1 $57 $26 #
cone-surface $-1 5.6237277068330154e-031 15 5.237222008264695e-014 0 1 3.4914813388431298e-015 -50 -2.1378451158997786e-029 6.1230317691118863e-015 1 I I 0 1 50 forward I I I I #
aggregate_isospline_attribute-aggregate_geombuild_base_attribute-aggregate_body_attribute-attrib_HH-attrib $-1 $58 $27 $0 F #
fface-rbase-attrib $-1 $-1 $28 $16 #
model_id-kcp-attrib $-1 $59 $29 $22 1 1017637323 250 502923265 3 #
model_id-kcp-attrib $-1 $60 $-1 $30 1 1017637323 250 502923265 4 #
loop $-1 $-1 $61 $30 #
plane-surface $-1 0 -15 -5.237222008264695e-014 0 -1 -3.4914813388431298e-015 1 0 0 forward_v I I I I #
coedge $62 $47 $47 $34 $50 forward $31 $-1 #
coedge $63 $48 $48 $61 $64 reversed $33 $-1 #
attrib_hh_coedge_geombuild-attrib_entity_geombuild-individual_entity_attribute-attrib_HH-attrib $-1 $65 $-1 $34 F #
edge $66 $67 0 $67 6.2831853071795862 $47 $68 forward 7 unknown #
face $69 $70 $71 $17 $-1 $72 reversed single #
loop $-1 $-1 $73 $35 #
plane-surface $-1 0 0 -50.00000000000005 0 0 1 1 0 0 forward_v I I I I #
coedge $-1 $74 $75 $76 $77 forward $36 $-1 #
face $-1 $78 $79 $19 $-1 $40 reversed single #
loop $-1 $-1 $80 $38 #
coedge $-1 $81 $82 $83 $84 reversed $39 $-1 #
aggregate_analytic_solver_attribute-aggregate_geombuild_base_attribute-aggregate_body_attribute-attrib_HH-attrib $-1 $85 $41 $0 F #
attrib_hh_face_geombuild-attrib_entity_geombuild-individual_entity_attribute-attrib_HH-attrib $-1 $86 $43 $22 F #
attrib_hh_face_geombuild-attrib_entity_geombuild-individual_entity_attribute-attrib_HH-attrib $-1 $87 $44 $30 F #
coedge $88 $61 $61 $48 $64 forward $45 $-1 #
attrib_hh_coedge_geombuild-attrib_entity_geombuild-individual_entity_attribute-attrib_HH-attrib $-1 $89 $-1 $47 F #
attrib_hh_coedge_geombuild-attrib_entity_geombuild-individual_entity_attribute-attrib_HH-attrib $-1 $90 $-1 $48 F #
edge $91 $92 0 $92 6.2831853071795862 $61 $93 forward 7 unknown #
copar-rbase-attrib $-1 $-1 $49 $34 #
attrib_edge_convexity-kcp-attrib $-1 $94 $-1 $50 1 #
vertex $95 $50 $96 #
ellipse-curve $-1 0 15 5.237222008264695e-014 0 1 3.4914813388431298e-015 50 0 0 1 I I #
model_id-kcp-attrib $-1 $-1 $-1 $51 1 1017637323 250 502923266 3 #
face $-1 $97 $98 $17 $-1 $99 reversed single #
loop $-1 $-1 $100 $51 #
plane-surface $-1 0 -15.000000000000174 0 0 1 0 0 0 1 forward_v I I I I #
coedge $-1 $101 $102 $103 $104 forward $52 $-1 #
coedge $-1 $105 $54 $106 $107 forward $36 $-1 #
coedge $-1 $54 $105 $108 $109 forward $36 $-1 #
coedge $-1 $110 $111 $54 $77 reversed $112 $-1 #
edge $-1 $113 -15.000000000000174 $114 15.000000000000174 $76 $115 forward 7 unknown #
face $-1 $116 $117 $19 $-1 $40 reversed single #
loop $-1 $-1 $118 $55 #
coedge $-1 $119 $120 $121 $122 reversed $56 $-1 #
coedge $-1 $123 $57 $124 $125 forward $39 $-1 #
coedge $-1 $57 $123 $126 $127 reversed $39 $-1 #
coedge $-1 $128 $129 $57 $84 forward $130 $-1 #
edge $-1 $131 -1.2246063538223773e-016 $132 1.5707963267948966 $83 $133 forward 7 unknown #
aggregate_geombuild_attribute-aggregate_geombuild_base_attribute-aggregate_body_attribute-attrib_HH-attrib $-1 $134 $58 $0 #
fface-rbase-attrib $-1 $-1 $59 $22 #
fface-rbase-attrib $-1 $-1 $60 $30 #
attrib_hh_coedge_geombuild-attrib_entity_geombuild-individual_entity_attribute-attrib_HH-attrib $-1 $135 $-1 $61 F #
copar-rbase-attrib $-1 $-1 $62 $47 #
copar-rbase-attrib $-1 $-1 $63 $48 #
attrib_hh_edge_geombuild-attrib_entity_geombuild-individual_entity_attribute-attrib_HH-attrib $-1 $136 $-1 $64 F #
vertex $137 $64 $138 #
ellipse-curve $-1 0 -15 -5.237222008264695e-014 0 -1 -3.4914813388431298e-015 50 0 0 1 I I #
convexity-sys-attrib $-1 $139 $66 $50 #
attrib_hh_vertex_geombuild-attrib_entity_geombuild-individual_entity_attribute-attrib_HH-attrib $-1 $-1 $-1 $67 F #
point $-1 50 15 5.237222008264695e-014 #
face $140 $141 $142 $17 $-1 $143 reversed single #
loop $-1 $-1 $144 $70 #
plane-surface $-1 -50 0 0 1 0 0 0 0 -1 forward_v I I I I #
coedge $-1 $145 $108 $146 $147 forward $71 $-1 #
coedge $-1 $148 $73 $145 $149 forward $52 $-1 #
coedge $-1 $73 $148 $150 $151 forward $52 $-1 #
coedge $-1 $111 $110 $73 $104 reversed $112 $-1 #
edge $-1 $152 -15.000000000000174 $153 15.000000000000174 $103 $154 forward 7 unknown #
coedge $-1 $75 $74 $155 $156 forward $36 $-1 #
coedge $-1 $157 $158 $74 $107 reversed $142 $-1 #
edge $-1 $114 -50 $159 50 $106 $160 forward 7 unknown #
coedge $-1 $100 $161 $75 $109 reversed $71 $-1 #
edge $-1 $162 -50 $113 50 $108 $163 forward 7 unknown #
coedge $-1 $103 $76 $161 $164 forward $112 $-1 #
coedge $-1 $76 $103 $157 $165 reversed $112 $-1 #
loop $-1 $-1 $110 $141 #
vertex $-1 $77 $166 #
vertex $-1 $77 $167 #
straight-curve $-1 50 0 50.00000000000005 0 1 0 I I #
face $-1 $168 $169 $19 $-1 $170 forward single #
loop $-1 $-1 $171 $78 #
coedge $-1 $172 $173 $171 $174 forward $79 $-1 #
coedge $-1 $175 $80 $176 $177 reversed $56 $-1 #
coedge $-1 $80 $175 $82 $127 forward $56 $-1 #
coedge $-1 $178 $179 $80 $122 forward $180 $-1 #
edge $-1 $181 -3.1415926535897931 $182 -1.5707963267948966 $121 $183 forward 7 unknown #
coedge $-1 $82 $81 $184 $185 reversed $39 $-1 #
coedge $-1 $173 $172 $186 $125 reversed $79 $-1 #
edge $-1 $131 -30.000000000000178 $187 1.7408297026122455e-013 $186 $188 forward 7 unknown #
coedge $-1 $189 $190 $191 $127 forward $192 $-1 #
edge $-1 $132 -30 $182 3.4816594052244909e-013 $126 $193 forward 7 unknown #
coedge $-1 $129 $83 $190 $194 reversed $130 $-1 #
coedge $-1 $83 $128 $195 $196 forward $130 $-1 #
loop $-1 $-1 $83 $197 #
vertex $-1 $198 $199 #
vertex $-1 $200 $201 #
ellipse-curve $-1 5.6237277068330154e-031 -15.000000000000174 -5.2372220082647556e-014 0 1 0 -50 -2.1378451158997786e-029 6.1230317691118863e-015 1 I I #
aggregate_stitch_attribute-aggregate_stitch_base_attribute-aggregate_body_attribute-attrib_HH-attrib $-1 $202 $85 $0 F #
copar-rbase-attrib $-1 $-1 $88 $61 #
epar-rbase-attrib $-1 $-1 $91 $64 #
attrib_hh_vertex_geombuild-attrib_entity_geombuild-individual_entity_attribute-attrib_HH-attrib $-1 $-1 $-1 $92 F #
point $-1 50 -15 -5.237222008264695e-014 #
attrib_hh_edge_geombuild-attrib_entity_geombuild-individual_entity_attribute-attrib_HH-attrib $-1 $203 $94 $50 F #
model_id-kcp-attrib $-1 $-1 $-1 $97 1 1017637323 250 502923266 2 #
face $-1 $-1 $112 $17 $-1 $204 reversed single #
loop $-1 $-1 $157 $97 #
plane-surface $-1 0 15.000000000000174 0 0 -1 0 0 0 -1 forward_v I I I I #
coedge $-1 $205 $155 $158 $206 forward $98 $-1 #
coedge $-1 $161 $100 $101 $149 reversed $71 $-1 #
coedge $-1 $155 $205 $100 $147 reversed $98 $-1 #
edge $-1 $162 -50.00000000000005 $207 50.00000000000005 $146 $208 forward 7 unknown #
coedge $-1 $102 $101 $205 $209 forward $52 $-1 #
edge $-1 $153 -50 $207 50 $145 $210 forward 7 unknown #
coedge $-1 $158 $157 $102 $151 reversed $142 $-1 #
edge $-1 $211 -50 $152 50 $150 $212 forward 7 unknown #
vertex $-1 $104 $213 #
vertex $-1 $164 $214 #
straight-curve $-1 50 0 -50.00000000000005 0 -1 0 I I #
coedge $-1 $144 $146 $105 $156 reversed $98 $-1 #
edge $-1 $159 -15.000000000000174 $162 15.000000000000174 $155 $215 forward 7 unknown #
coedge $-1 $150 $106 $111 $165 forward $142 $-1 #
coedge $-1 $106 $150 $144 $206 reversed $142 $-1 #
vertex $-1 $107 $216 #
straight-curve $-1 0 15.000000000000174 50.00000000000005 -1 0 0 I I #
coedge $-1 $108 $145 $110 $164 reversed $71 $-1 #
vertex $-1 $156 $217 #
straight-curve $-1 0 -15.000000000000174 50.00000000000005 1 0 0 I I #
edge $-1 $113 -50.00000000000005 $153 50.00000000000005 $110 $218 forward 7 unknown #
edge $-1 $114 -50.00000000000005 $152 50.00000000000005 $111 $219 forward 7 unknown #
point $-1 50 -15.000000000000174 50.00000000000005 #
point $-1 50 15.000000000000174 50.00000000000005 #
face $-1 $220 $221 $19 $-1 $222 reversed single #
loop $-1 $-1 $191 $116 #
plane-surface $-1 0 0 50.00000000000005 0 0 1 1 0 0 forward_v I I I I #
coedge $-1 $223 $224 $225 $174 reversed $117 $-1 #
coedge $-1 $124 $118 $226 $227 reversed $79 $-1 #
coedge $-1 $118 $124 $228 $229 reversed $79 $-1 #
edge $-1 $230 -30.000000000000348 $231 0 $225 $232 forward 7 unknown #
coedge $-1 $120 $119 $233 $234 reversed $56 $-1 #
coedge $-1 $235 $236 $237 $177 forward $238 $-1 #
edge $-1 $239 -30.000000000000178 $181 1.7408297026122455e-013 $176 $240 forward 7 unknown #
coedge $-1 $179 $121 $241 $242 reversed $180 $-1 #
coedge $-1 $121 $178 $235 $243 forward $180 $-1 #
loop $-1 $-1 $121 $244 #
vertex $-1 $245 $246 #
vertex $-1 $247 $248 #
ellipse-curve $-1 5.6237277068330154e-031 15.000000000000174 5.2372220082647556e-014 0 -1 0 -50 -2.1378451158997786e-029 6.1230317691118863e-015 1 I I #
coedge $-1 $249 $250 $123 $185 forward $251 $-1 #
edge $-1 $182 -1.5707963267948966 $187 1.2246063538223773e-016 $184 $183 forward 7 unknown #
coedge $-1 $252 $253 $254 $125 forward $221 $-1 #
vertex $-1 $255 $256 #
straight-curve $-1 -50 15 5.237222008264695e-014 0 1 3.4914813388431298e-015 I I #
coedge $-1 $257 $126 $250 $247 forward $192 $-1 #
coedge $-1 $126 $257 $128 $194 forward $192 $-1 #
coedge $-1 $258 $241 $120 $127 reversed $169 $-1 #
loop $-1 $-1 $126 $259 #
straight-curve $-1 5.6237277068330154e-031 14.999999999999826 50.00000000000005 0 1 3.4914813388431298e-015 I I #
edge $-1 $260 -50 $132 5.6237277068330154e-031 $128 $261 forward 7 unknown #
coedge $-1 $262 $254 $129 $196 reversed $263 $-1 #
edge $-1 $260 -50.00000000000005 $131 5.2372220082647556e-014 $195 $264 forward 7 unknown #
face $-1 $265 $130 $19 $-1 $266 reversed single #
edge $-1 $131 5.2372220082647556e-014 $267 50.00000000000005 $253 $264 forward 7 unknown #
point $-1 -50 -15.000000000000178 -5.2372220082647556e-014 #
edge $-1 $132 5.6237277068330154e-031 $268 50 $269 $261 forward 7 unknown #
point $-1 5.6237277068330154e-031 -15.000000000000174 50.00000000000005 #
aggregate_simgeom_attribute-aggregate_simgeom_base_attribute-aggregate_body_attribute-attrib_HH-attrib $-1 $270 $134 $0 F #
epar-rbase-attrib $-1 $-1 $139 $50 #
plane-surface $-1 50 0 0 -1 0 0 0 0 1 forward_v I I I I #
coedge $-1 $146 $144 $148 $209 reversed $98 $-1 #
edge $-1 $159 -50.00000000000005 $211 50.00000000000005 $158 $271 forward 7 unknown #
vertex $-1 $209 $272 #
straight-curve $-1 -50 -15.000000000000174 0 0 0 -1 I I #
edge $-1 $207 -15.000000000000174 $211 15.000000000000174 $205 $273 forward 7 unknown #
straight-curve $-1 0 -15.000000000000174 -50.00000000000005 -1 0 0 I I #
vertex $-1 $151 $274 #
straight-curve $-1 0 15.000000000000174 -50.00000000000005 1 0 0 I I #
point $-1 50 15.000000000000174 -50.00000000000005 #
point $-1 50 -15.000000000000174 -50.00000000000005 #
straight-curve $-1 -50 0 50.00000000000005 0 -1 0 I I #
point $-1 -50 15.000000000000174 50.00000000000005 #
point $-1 -50 -15.000000000000174 50.00000000000005 #
straight-curve $-1 50 -15.000000000000174 0 0 0 -1 I I #
straight-curve $-1 50 15.000000000000174 0 0 0 -1 I I #
face $-1 $275 $276 $19 $-1 $277 reversed single #
loop $-1 $-1 $186 $168 #
plane-surface $-1 -50 0 0 1 0 0 0 0 -1 forward_v I I I I #
coedge $-1 $278 $171 $279 $280 reversed $117 $-1 #
coedge $-1 $171 $278 $281 $282 reversed $117 $-1 #
coedge $-1 $283 $284 $285 $174 forward $286 $-1 #
coedge $-1 $287 $288 $172 $227 forward $289 $-1 #
edge $-1 $187 1.2246063538223773e-016 $231 1.5707963267948968 $226 $183 forward 7 unknown #
coedge $-1 $290 $291 $173 $229 forward $292 $-1 #
edge $-1 $230 -1.5707963267948968 $131 -1.2246063538223773e-016 $228 $133 forward 7 unknown #
vertex $-1 $293 $294 #
vertex $-1 $295 $296 #
straight-curve $-1 5.6237277068330154e-031 15.000000000000174 -50.00000000000005 0 1 3.4914813388431298e-015 I I #
coedge $-1 $297 $269 $175 $234 forward $298 $-1 #
edge $-1 $132 1.5707963267948966 $239 3.1415926535897931 $233 $133 forward 7 unknown #
coedge $-1 $299 $176 $179 $243 reversed $238 $-1 #
coedge $-1 $176 $299 $297 $300 forward $238 $-1 #
coedge $-1 $301 $302 $278 $177 reversed $276 $-1 #
loop $-1 $-1 $176 $303 #
vertex $-1 $304 $305 #
straight-curve $-1 50 15 5.237222008264695e-014 0 1 3.4914813388431298e-015 I I #
coedge $-1 $191 $306 $178 $242 forward $169 $-1 #
edge $-1 $307 -50 $182 -5.6237277068330154e-031 $178 $308 forward 7 unknown #
edge $-1 $307 -50.00000000000005 $181 -5.2372220082647556e-014 $235 $309 forward 7 unknown #
face $-1 $310 $180 $19 $-1 $311 reversed single #
edge $-1 $181 -5.2372220082647556e-014 $312 50.00000000000005 $302 $309 forward 7 unknown #
point $-1 50 15.000000000000174 5.2372220082647556e-014 #
edge $-1 $182 -5.6237277068330154e-031 $313 50 $250 $308 forward 7 unknown #
point $-1 5.6237277068330154e-031 15.000000000000174 50.00000000000005 #
coedge $-1 $250 $184 $314 $315 reversed $251 $-1 #
coedge $-1 $184 $249 $189 $247 reversed $251 $-1 #
loop $-1 $-1 $184 $310 #
coedge $-1 $316 $186 $288 $255 forward $221 $-1 #
coedge $-1 $186 $316 $290 $198 reversed $221 $-1 #
coedge $-1 $195 $314 $81 $125 reversed $263 $-1 #
edge $-1 $187 -5.2372220082647556e-014 $317 50.00000000000005 $288 $318 forward 7 unknown #
point $-1 -50 15.000000000000174 5.2372220082647556e-014 #
coedge $-1 $190 $189 $262 $319 forward $192 $-1 #
coedge $-1 $306 $191 $269 $200 forward $169 $-1 #
face $-1 $320 $192 $19 $-1 $170 forward single #
vertex $-1 $319 $321 #
straight-curve $-1 0 -15.000000000000174 50.00000000000005 1 0 0 I I #
coedge $-1 $314 $195 $257 $319 reversed $263 $-1 #
loop $-1 $-1 $254 $322 #
straight-curve $-1 -50 -15.000000000000174 0 0 0 -1 I I #
face $-1 $323 $298 $19 $-1 $266 reversed single #
plane-surface $-1 0 -15.000000000000174 0 0 1 0 0 0 1 forward_v I I I I #
vertex $-1 $324 $325 #
vertex $-1 $326 $327 #
coedge $-1 $233 $297 $258 $200 reversed $298 $-1 #
f_body-rbase-attrib $-1 $-1 $202 $0 #
straight-curve $-1 -50 15.000000000000174 0 0 0 -1 I I #
point $-1 -50 -15.000000000000174 -50.00000000000005 #
straight-curve $-1 -50 0 -50.00000000000005 0 1 0 I I #
point $-1 -50 15.000000000000174 -50.00000000000005 #
face $-1 $244 $328 $19 $-1 $311 reversed single #
loop $-1 $-1 $237 $220 #
plane-surface $-1 50 0 0 -1 0 0 0 0 1 forward_v I I I I #
coedge $-1 $224 $223 $119 $177 forward $117 $-1 #
coedge $-1 $329 $330 $223 $280 forward $331 $-1 #
edge $-1 $239 -3.1415926535897931 $230 -1.5707963267948968 $279 $133 forward 7 unknown #
coedge $-1 $332 $333 $224 $282 forward $328 $-1 #
edge $-1 $231 1.5707963267948968 $181 3.1415926535897931 $281 $183 forward 7 unknown #
coedge $-1 $334 $225 $333 $295 forward $286 $-1 #
coedge $-1 $225 $334 $329 $335 forward $286 $-1 #
coedge $-1 $336 $337 $118 $174 reversed $338 $-1 #
loop $-1 $-1 $225 $320 #
coedge $-1 $288 $226 $337 $339 reversed $289 $-1 #
coedge $-1 $226 $287 $252 $255 reversed $289 $-1 #
loop $-1 $-1 $226 $340 #
coedge $-1 $291 $228 $253 $198 forward $292 $-1 #
coedge $-1 $228 $290 $336 $293 reversed $292 $-1 #
loop $-1 $-1 $228 $341 #
edge $-1 $230 -5.6237277068330154e-031 $267 50 $291 $342 forward 7 unknown #
point $-1 5.6237277068330154e-031 -15.000000000000174 -50.00000000000005 #
edge $-1 $231 5.6237277068330154e-031 $312 50 $333 $343 forward 7 unknown #
point $-1 5.6237277068330154e-031 15.000000000000174 -50.00000000000005 #
coedge $-1 $269 $233 $236 $300 reversed $298 $-1 #
loop $-1 $-1 $233 $265 #
coedge $-1 $236 $235 $306 $326 reversed $238 $-1 #
edge $-1 $268 -50.00000000000005 $239 5.2372220082647556e-014 $236 $344 forward 7 unknown #
coedge $-1 $345 $237 $330 $304 forward $276 $-1 #
coedge $-1 $237 $345 $332 $245 reversed $276 $-1 #
face $-1 $-1 $238 $19 $-1 $277 reversed single #
edge $-1 $239 5.2372220082647556e-014 $346 50.00000000000005 $301 $344 forward 7 unknown #
point $-1 50 -15.000000000000178 -5.2372220082647556e-014 #
coedge $-1 $241 $258 $299 $326 forward $169 $-1 #
vertex $-1 $326 $347 #
straight-curve $-1 0 15.000000000000174 50.00000000000005 -1 0 0 I I #
straight-curve $-1 50 15.000000000000174 0 0 0 -1 I I #
face $-1 $340 $251 $19 $-1 $311 reversed single #
plane-surface $-1 0 15.000000000000174 0 0 -1 0 0 0 -1 forward_v I I I I #
vertex $-1 $348 $349 #
vertex $-1 $247 $350 #
coedge $-1 $254 $262 $249 $315 forward $263 $-1 #
edge $-1 $313 -50.00000000000005 $187 -5.2372220082647556e-014 $249 $318 forward 7 unknown #
coedge $-1 $253 $252 $351 $324 reversed $221 $-1 #
vertex $-1 $339 $352 #
straight-curve $-1 -50 15.000000000000174 0 0 0 -1 I I #
edge $-1 $313 -15.000000000000174 $260 15.000000000000174 $262 $353 forward 7 unknown #
face $-1 $322 $286 $19 $-1 $354 reversed single #
point $-1 -50 -15.000000000000174 50.00000000000005 #
face $-1 $303 $263 $19 $-1 $222 reversed single #
face $-1 $355 $331 $19 $-1 $266 reversed single #
edge $-1 $267 -15.000000000000174 $317 15.000000000000174 $316 $356 forward 7 unknown #
point $-1 -50 -15.000000000000174 -50.00000000000005 #
edge $-1 $268 -15.000000000000174 $307 15.000000000000174 $299 $357 forward 7 unknown #
point $-1 50 -15.000000000000174 50.00000000000005 #
loop $-1 $-1 $281 $275 #
coedge $-1 $330 $279 $284 $335 reversed $331 $-1 #
coedge $-1 $279 $329 $301 $304 reversed $331 $-1 #
loop $-1 $-1 $279 $323 #
coedge $-1 $333 $281 $302 $245 forward $328 $-1 #
coedge $-1 $281 $332 $283 $295 reversed $328 $-1 #
coedge $-1 $284 $283 $345 $348 forward $286 $-1 #
edge $-1 $346 -50 $230 -5.6237277068330154e-031 $329 $342 forward 7 unknown #
coedge $-1 $351 $285 $291 $293 forward $338 $-1 #
coedge $-1 $285 $351 $287 $339 forward $338 $-1 #
loop $-1 $-1 $285 $355 #
edge $-1 $317 -50 $231 5.6237277068330154e-031 $287 $343 forward 7 unknown #
face $-1 $341 $289 $19 $-1 $311 reversed single #
face $-1 $197 $292 $19 $-1 $266 reversed single #
straight-curve $-1 0 -15.000000000000174 -50.00000000000005 -1 0 0 I I #
straight-curve $-1 0 15.000000000000174 -50.00000000000005 1 0 0 I I #
straight-curve $-1 50 -15.000000000000174 0 0 0 -1 I I #
coedge $-1 $302 $301 $334 $348 reversed $276 $-1 #
vertex $-1 $304 $358 #
point $-1 50 15.000000000000174 50.00000000000005 #
edge $-1 $312 -15.000000000000174 $346 15.000000000000174 $345 $359 forward 7 unknown #
point $-1 50 15.000000000000174 -50.00000000000005 #
point $-1 -50 15.000000000000174 50.00000000000005 #
coedge $-1 $337 $336 $316 $324 forward $338 $-1 #
point $-1 -50 15.000000000000174 -50.00000000000005 #
straight-curve $-1 -50 0 50.00000000000005 0 -1 0 I I #
plane-surface $-1 0 0 -50.00000000000005 0 0 1 1 0 0 forward_v I I I I #
face $-1 $259 $338 $19 $-1 $354 reversed single #
straight-curve $-1 -50 0 -50.00000000000005 0 1 0 I I #
straight-curve $-1 50 0 50.00000000000005 0 1 0 I I #
point $-1 50 -15.000000000000174 -50.00000000000005 #
straight-curve $-1 50 0 -50.00000000000005 0 -1 0 I I #
End-of-ACIS-data 