700 0 2 0           
24 FBMach with ACIS - 7.0.3 13 ACIS 7.0.3 NT 24 Tue May 14 12:16:24 2002 
1 9.9999999999999995e-007 1e-010 
body $2 -1 $-1 $3 $-1 $4 #
bdycol-kcp $-1 -1 1 5 $5 $6 $7 $8 $9 #
model_id-kcp-attrib $-1 -1 $-1 $-1 $0 1 1021392983 1021392983 796196865 1 #
lump $-1 -1 $-1 $-1 $10 $0 #
transform $-1 -1 1 0 0 0 1 0 0 0 1 0 0 0 1 rotate no_reflect no_shear #
body $11 -1 $-1 $12 $-1 $13 #
body $14 -1 $-1 $15 $-1 $16 #
body $17 -1 $-1 $18 $-1 $19 #
body $20 -1 $-1 $21 $-1 $22 #
body $23 -1 $-1 $24 $-1 $25 #
shell $-1 -1 $-1 $-1 $-1 $26 $-1 $3 #
model_id-kcp-attrib $-1 -1 $-1 $-1 $5 1 1021392983 1021392983 796196866 1 #
lump $-1 -1 $-1 $-1 $27 $5 #
transform $-1 -1 1 0 0 0 1 0 0 0 1 1.45 -1.45 1.4500000000000002 1 no_rotate no_reflect no_shear #
rgb_color-st-attrib $-1 -1 $28 $-1 $6 0 0 1 #
lump $-1 -1 $-1 $-1 $29 $6 #
transform $-1 -1 1 0 0 0 1 0 0 0 1 1.45 -1.45 1.4500000000000002 1 no_rotate no_reflect no_shear #
rgb_color-st-attrib $-1 -1 $30 $-1 $7 0.5 1 1 #
lump $-1 -1 $-1 $-1 $31 $7 #
transform $-1 -1 -1 0 -1.2246063538223773e-016 0 1 0 1.2246063538223773e-016 0 -1 1.5000000000000002 -1.3999999999999999 2.3250000000000002 1 rotate no_reflect no_shear #
rgb_color-st-attrib $-1 -1 $32 $-1 $8 0.5 1 1 #
lump $-1 -1 $-1 $-1 $33 $8 #
transform $-1 -1 3.8285889215894375e-016 -4.6885143195523885e-032 -1 -1.2246063538223773e-016 -1 0 -1 1.2246063538223773e-016 -3.8285889215894375e-016 2.6999999999999997 -1.3999999999999997 1.3999999999999999 1 rotate no_reflect no_shear #
rgb_color-st-attrib $-1 -1 $34 $-1 $9 0.5 1 1 #
lump $-1 -1 $-1 $-1 $35 $9 #
transform $-1 -1 -1 0 -1.2246063538223773e-016 0 1 0 1.2246063538223773e-016 0 -1 1.5000000000000002 -1.3999999999999999 2.7125000000000004 1 rotate no_reflect no_shear #
face $36 -1 $-1 $37 $38 $10 $-1 $39 reversed single #
shell $-1 -1 $-1 $-1 $-1 $40 $-1 $12 #
model_id-kcp-attrib $-1 -1 $-1 $14 $6 1 1021392983 1021392983 802684934 1 #
shell $-1 -1 $-1 $-1 $-1 $41 $-1 $15 #
model_id-kcp-attrib $-1 -1 $-1 $17 $7 1 1021392983 1021392983 802750467 1 #
shell $-1 -1 $-1 $-1 $-1 $42 $-1 $18 #
model_id-kcp-attrib $-1 -1 $-1 $20 $8 1 1021392983 1021392983 803405828 1 #
shell $-1 -1 $-1 $-1 $-1 $43 $-1 $21 #
model_id-kcp-attrib $-1 -1 $-1 $23 $9 1 1021392983 1021392983 803405829 1 #
shell $-1 -1 $-1 $-1 $-1 $44 $-1 $24 #
model_id-kcp-attrib $-1 -1 $45 $-1 $26 1 1021392983 1021392983 796196865 2 #
face $46 -1 $-1 $47 $48 $10 $-1 $49 forward single #
loop $50 -1 $-1 $-1 $51 $26 #
plane-surface $52 -1 $-1 0 0 0 0 0 1 1 0 0 forward_v I I I I #
face $53 -1 $-1 $54 $55 $27 $-1 $56 forward single #
face $-1 -1 $-1 $57 $58 $29 $-1 $59 forward single #
face $-1 -1 $-1 $60 $61 $31 $-1 $62 forward single #
face $-1 -1 $-1 $63 $64 $33 $-1 $65 forward single #
face $-1 -1 $-1 $66 $67 $35 $-1 $68 forward single #
face_name-twe-attrib $-1 -1 $-1 $36 $26 1 #
model_id-kcp-attrib $-1 -1 $69 $-1 $37 1 1021392983 1021392983 796196865 3 #
face $70 -1 $-1 $71 $72 $10 $-1 $73 forward single #
loop $74 -1 $-1 $75 $76 $37 #
plane-surface $77 -1 $-1 0 0 2.8999999999999999 0 0 1 1 0 0 forward_v I I I I #
loop_type-twe-attrib $-1 -1 $-1 $-1 $38 0 #
coedge $-1 -1 $-1 $78 $79 $80 $81 forward $38 $-1 #
surf-twe-attrib $-1 -1 $-1 $-1 $39 4 #
model_id-kcp-attrib $-1 -1 $-1 $-1 $40 1 1021392983 1021392983 796196866 3 #
face $82 -1 $-1 $83 $84 $27 $-1 $85 reversed single #
loop $-1 -1 $-1 $-1 $86 $40 #
plane-surface $-1 -1 $-1 0 0 1.4500000000000002 0 0 1 1 0 0 forward_v I I I I #
face $-1 -1 $-1 $87 $88 $29 $-1 $89 forward single #
loop $-1 -1 $-1 $-1 $90 $41 #
plane-surface $-1 -1 $-1 -0.54399999999999993 -0.55000000000000004 -1.0750000000000002 0 0 -1 -1 0 0 forward_v I I I I #
face $-1 -1 $-1 $91 $92 $31 $-1 $93 forward single #
loop $-1 -1 $-1 $94 $95 $42 #
cone-surface $-1 -1 $-1 0 0 0 0 0 1 0.25 0 0 1 I I 0 1 0.25 forward I I I I #
face $-1 -1 $-1 $96 $97 $33 $-1 $98 forward single #
loop $-1 -1 $-1 $99 $100 $43 #
cone-surface $-1 -1 $-1 0 0 0 0 0 1 0.25 0 0 1 I I 0 1 0.25 forward I I I I #
face $-1 -1 $-1 $101 $102 $35 $-1 $103 forward single #
loop $-1 -1 $-1 $104 $105 $44 #
cone-surface $-1 -1 $-1 0 0 0 0 0 1 0.375 0 0 1 I I 0 1 0.375 forward I I I I #
face_name-twe-attrib $-1 -1 $-1 $46 $37 2 #
model_id-kcp-attrib $-1 -1 $106 $-1 $47 1 1021392983 1021392983 796196865 4 #
face $107 -1 $-1 $108 $109 $10 $-1 $110 forward single #
loop $111 -1 $-1 $-1 $80 $47 #
plane-surface $112 -1 $-1 0 0 0 -1 0 0 0 0 1 forward_v I I I I #
loop_type-twe-attrib $-1 -1 $-1 $-1 $48 0 #
loop $113 -1 $-1 $-1 $114 $37 #
coedge $-1 -1 $-1 $115 $116 $117 $118 reversed $48 $-1 #
surf-twe-attrib $-1 -1 $-1 $-1 $49 6 #
coedge $-1 -1 $-1 $119 $51 $120 $121 forward $38 $-1 #
coedge $-1 -1 $-1 $51 $119 $122 $123 forward $38 $-1 #
coedge $-1 -1 $-1 $124 $125 $51 $81 reversed $72 $-1 #
edge $126 -1 $-1 $127 -2.8999999999999999 $128 0 $80 $129 forward @7 unknown #
model_id-kcp-attrib $-1 -1 $-1 $-1 $54 1 1021392983 1021392983 796196866 2 #
face $130 -1 $-1 $131 $132 $27 $-1 $133 reversed single #
loop $-1 -1 $-1 $-1 $134 $54 #
plane-surface $-1 -1 $-1 0 0 -1.4500000000000002 0 0 1 1 0 0 forward_v I I I I #
coedge $-1 -1 $-1 $135 $136 $137 $138 forward $55 $-1 #
face $-1 -1 $-1 $139 $140 $29 $-1 $141 forward single #
loop $-1 -1 $-1 $-1 $142 $57 #
cone-surface $-1 -1 $-1 0.64399999999999991 -0.54999999999999982 -0.66900000000000015 0 1 0 0.40600000000000003 0 0 1 I I 0 1 0.40600000000000003 forward I I I I #
coedge $-1 -1 $-1 $143 $144 $145 $146 forward $58 $-1 #
face $-1 -1 $-1 $-1 $147 $31 $-1 $148 forward single #
loop $-1 -1 $-1 $-1 $149 $60 #
plane-surface $-1 -1 $-1 0 0 -0.19999999999999996 0 0 -1 -1 0 0 forward_v I I I I #
loop $-1 -1 $-1 $-1 $150 $42 #
coedge $-1 -1 $-1 $95 $95 $149 $151 reversed $61 $-1 #
face $-1 -1 $-1 $-1 $152 $33 $-1 $153 forward single #
loop $-1 -1 $-1 $-1 $154 $63 #
plane-surface $-1 -1 $-1 0 0 -0.19999999999999996 0 0 -1 -1 0 0 forward_v I I I I #
loop $-1 -1 $-1 $-1 $155 $43 #
coedge $-1 -1 $-1 $100 $100 $154 $156 reversed $64 $-1 #
face $-1 -1 $-1 $-1 $157 $35 $-1 $158 forward single #
loop $-1 -1 $-1 $-1 $159 $66 #
plane-surface $-1 -1 $-1 0 0 -0.18750000000000022 0 0 -1 -1 0 0 forward_v I I I I #
loop $-1 -1 $-1 $-1 $160 $44 #
coedge $-1 -1 $-1 $105 $105 $159 $161 reversed $67 $-1 #
face_name-twe-attrib $-1 -1 $-1 $70 $47 3 #
model_id-kcp-attrib $-1 -1 $162 $-1 $71 1 1021392983 1021392983 796196865 5 #
face $163 -1 $-1 $164 $165 $10 $-1 $166 forward single #
loop $167 -1 $-1 $-1 $122 $71 #
plane-surface $168 -1 $-1 0 -2.8999999999999999 0 0 -1 0 0 0 -1 forward_v I I I I #
loop_type-twe-attrib $-1 -1 $-1 $-1 $72 0 #
surf-twe-attrib $-1 -1 $-1 $-1 $73 10 #
loop_type-twe-attrib $-1 -1 $-1 $-1 $75 1 #
coedge $-1 -1 $-1 $114 $114 $169 $170 reversed $75 $-1 #
coedge $-1 -1 $-1 $171 $76 $172 $173 reversed $48 $-1 #
coedge $-1 -1 $-1 $76 $171 $174 $175 reversed $48 $-1 #
coedge $-1 -1 $-1 $125 $124 $76 $118 forward $72 $-1 #
edge $176 -1 $-1 $177 -2.8999999999999999 $178 0 $117 $179 forward @7 unknown #
coedge $-1 -1 $-1 $79 $78 $180 $181 forward $38 $-1 #
coedge $-1 -1 $-1 $182 $183 $78 $121 reversed $184 $-1 #
edge $185 -1 $-1 $128 -2.8999999999999999 $186 0 $120 $187 forward @7 unknown #
coedge $-1 -1 $-1 $188 $189 $79 $123 reversed $109 $-1 #
edge $190 -1 $-1 $191 -2.8999999999999999 $127 0 $122 $192 forward @7 unknown #
coedge $-1 -1 $-1 $117 $80 $189 $193 reversed $72 $-1 #
coedge $-1 -1 $-1 $80 $117 $182 $194 forward $72 $-1 #
attrib_edge_convexity-kcp-attrib $-1 -1 $195 $-1 $81 1 #
vertex $-1 -1 $-1 $193 $196 #
vertex $-1 -1 $-1 $194 $197 #
straight-curve $198 -1 $-1 0 0 0 0 1 0 I I #
model_id-kcp-attrib $-1 -1 $-1 $-1 $83 1 1021392983 1021392983 796196866 5 #
face $199 -1 $-1 $200 $201 $27 $-1 $202 reversed single #
loop $-1 -1 $-1 $-1 $203 $83 #
plane-surface $-1 -1 $-1 0 -1.45 0 0 1 0 0 0 1 forward_v I I I I #
coedge $-1 -1 $-1 $204 $205 $206 $207 forward $84 $-1 #
coedge $-1 -1 $-1 $208 $86 $209 $210 forward $55 $-1 #
coedge $-1 -1 $-1 $86 $208 $211 $212 forward $55 $-1 #
coedge $-1 -1 $-1 $213 $214 $86 $138 reversed $215 $-1 #
edge $-1 -1 $-1 $216 -1.45 $217 1.45 $137 $218 forward @7 unknown #
face $-1 -1 $-1 $219 $220 $29 $-1 $221 forward single #
loop $-1 -1 $-1 $-1 $222 $87 #
plane-surface $-1 -1 $-1 1.05 -0.55000000000000004 -0.66900000000000015 1 0 0 0 0 -1 forward_v I I I I #
coedge $-1 -1 $-1 $223 $224 $225 $226 forward $88 $-1 #
coedge $-1 -1 $-1 $227 $90 $224 $228 reversed $58 $-1 #
coedge $-1 -1 $-1 $90 $227 $229 $230 forward $58 $-1 #
coedge $-1 -1 $-1 $231 $225 $90 $146 reversed $232 $-1 #
edge $-1 -1 $-1 $233 -0.8909999999999999 $234 0.29699999999999993 $90 $235 forward @7 unknown #
loop $-1 -1 $-1 $-1 $236 $91 #
plane-surface $-1 -1 $-1 0 0 0.19999999999999996 0 0 1 1 0 0 forward_v I I I I #
coedge $-1 -1 $-1 $149 $149 $95 $151 forward $92 $-1 #
coedge $-1 -1 $-1 $150 $150 $236 $237 reversed $94 $-1 #
edge $-1 -1 $-1 $238 0 $238 6.2831853071795862 $149 $239 forward @7 unknown #
loop $-1 -1 $-1 $-1 $240 $96 #
plane-surface $-1 -1 $-1 0 0 0.19999999999999996 0 0 1 1 0 0 forward_v I I I I #
coedge $-1 -1 $-1 $154 $154 $100 $156 forward $97 $-1 #
coedge $-1 -1 $-1 $155 $155 $240 $241 reversed $99 $-1 #
edge $-1 -1 $-1 $242 0 $242 6.2831853071795862 $154 $243 forward @7 unknown #
loop $-1 -1 $-1 $-1 $244 $101 #
plane-surface $-1 -1 $-1 0 0 0.18750000000000022 0 0 1 1 0 0 forward_v I I I I #
coedge $-1 -1 $-1 $159 $159 $105 $161 forward $102 $-1 #
coedge $-1 -1 $-1 $160 $160 $244 $245 reversed $104 $-1 #
edge $-1 -1 $-1 $246 0 $246 6.2831853071795862 $159 $247 forward @7 unknown #
face_name-twe-attrib $-1 -1 $-1 $107 $71 4 #
model_id-kcp-attrib $-1 -1 $248 $-1 $108 1 1021392983 1021392983 796196865 6 #
face $249 -1 $-1 $250 $184 $10 $-1 $251 forward single #
loop $252 -1 $-1 $253 $180 $108 #
plane-surface $254 -1 $-1 2.8999999999999999 -2.8999999999999999 0 1 0 0 0 0 -1 forward_v I I I I #
loop_type-twe-attrib $-1 -1 $-1 $-1 $109 0 #
surf-twe-attrib $-1 -1 $-1 $-1 $110 17 #
coedge $-1 -1 $-1 $169 $169 $114 $170 forward $255 $-1 #
edge $256 -1 $-1 $257 0 $257 6.2831853071795862 $169 $258 forward @7 unknown #
coedge $-1 -1 $-1 $116 $115 $259 $260 reversed $48 $-1 #
coedge $-1 -1 $-1 $189 $188 $115 $173 forward $109 $-1 #
edge $261 -1 $-1 $262 -2.8999999999999999 $177 0 $172 $263 forward @7 unknown #
coedge $-1 -1 $-1 $183 $182 $116 $175 forward $184 $-1 #
edge $264 -1 $-1 $178 -2.8999999999999999 $265 0 $174 $266 forward @7 unknown #
attrib_edge_convexity-kcp-attrib $-1 -1 $267 $-1 $118 1 #
vertex $-1 -1 $-1 $193 $268 #
vertex $-1 -1 $-1 $194 $269 #
straight-curve $270 -1 $-1 0 0 2.8999999999999999 0 1 0 I I #
coedge $-1 -1 $-1 $271 $272 $119 $181 reversed $165 $-1 #
edge $273 -1 $-1 $186 -2.8999999999999999 $191 0 $180 $274 forward @7 unknown #
coedge $-1 -1 $-1 $174 $120 $125 $194 reversed $184 $-1 #
coedge $-1 -1 $-1 $120 $174 $271 $275 forward $184 $-1 #
loop $276 -1 $-1 $277 $120 $164 #
attrib_edge_convexity-kcp-attrib $-1 -1 $278 $-1 $121 1 #
vertex $-1 -1 $-1 $275 $279 #
straight-curve $280 -1 $-1 2.8999999999999999 0 0 1 0 0 I I #
coedge $-1 -1 $-1 $172 $122 $272 $281 reversed $109 $-1 #
coedge $-1 -1 $-1 $122 $172 $124 $193 forward $109 $-1 #
attrib_edge_convexity-kcp-attrib $-1 -1 $282 $-1 $123 1 #
vertex $-1 -1 $-1 $281 $283 #
straight-curve $284 -1 $-1 0 -2.8999999999999999 0 -1 0 0 I I #
edge $285 -1 $-1 $177 -2.8999999999999999 $127 0 $189 $286 forward @7 unknown #
edge $287 -1 $-1 $178 -2.8999999999999999 $128 0 $182 $288 forward @7 unknown #
convexity-sys-attrib $-1 -1 $289 $126 $81 #
point $-1 -1 $-1 0 -2.8999999999999999 0 #
point $-1 -1 $-1 0 0 0 #
cur-twe-attrib $-1 -1 $-1 $-1 $129 27 #
model_id-kcp-attrib $-1 -1 $-1 $-1 $131 1 1021392983 1021392983 796196866 4 #
face $290 -1 $-1 $291 $292 $27 $-1 $293 reversed single #
loop $-1 -1 $-1 $-1 $294 $131 #
plane-surface $-1 -1 $-1 -1.45 0 0 1 0 0 0 0 -1 forward_v I I I I #
coedge $-1 -1 $-1 $295 $211 $296 $297 forward $132 $-1 #
coedge $-1 -1 $-1 $298 $134 $295 $299 forward $84 $-1 #
coedge $-1 -1 $-1 $134 $298 $300 $301 forward $84 $-1 #
coedge $-1 -1 $-1 $214 $213 $134 $207 reversed $215 $-1 #
edge $-1 -1 $-1 $302 -1.45 $303 1.45 $206 $304 forward @7 unknown #
coedge $-1 -1 $-1 $136 $135 $305 $306 forward $55 $-1 #
coedge $-1 -1 $-1 $307 $308 $135 $210 reversed $292 $-1 #
edge $-1 -1 $-1 $217 -1.45 $309 1.45 $209 $310 forward @7 unknown #
coedge $-1 -1 $-1 $203 $311 $136 $212 reversed $132 $-1 #
edge $-1 -1 $-1 $312 -1.45 $216 1.45 $211 $313 forward @7 unknown #
coedge $-1 -1 $-1 $206 $137 $311 $314 forward $215 $-1 #
coedge $-1 -1 $-1 $137 $206 $307 $315 reversed $215 $-1 #
loop $-1 -1 $-1 $-1 $213 $291 #
vertex $-1 -1 $-1 $138 $316 #
vertex $-1 -1 $-1 $138 $317 #
straight-curve $-1 -1 $-1 1.45 0 1.4500000000000002 0 1 0 I I #
face $-1 -1 $-1 $318 $319 $29 $-1 $320 forward single #
loop $-1 -1 $-1 $-1 $321 $139 #
cone-surface $-1 -1 $-1 0.64399999999999991 -0.54999999999999982 0.26899999999999991 0 1 0 0.40600000000000003 0 0 1 I I 0 1 0.40600000000000003 forward I I I I #
coedge $-1 -1 $-1 $322 $323 $324 $325 forward $140 $-1 #
coedge $-1 -1 $-1 $326 $142 $323 $327 reversed $88 $-1 #
coedge $-1 -1 $-1 $142 $326 $143 $228 forward $88 $-1 #
coedge $-1 -1 $-1 $145 $324 $142 $226 reversed $232 $-1 #
edge $-1 -1 $-1 $234 -1.5707963267948966 $328 0 $142 $329 forward @7 unknown #
coedge $-1 -1 $-1 $144 $143 $330 $331 reversed $58 $-1 #
edge $332 -1 $-1 $333 0 $234 2 $224 $334 forward @7 unknown #
coedge $-1 -1 $-1 $335 $336 $144 $230 reversed $337 $-1 #
edge $-1 -1 $-1 $338 0 $233 2 $144 $339 forward @7 unknown #
coedge $-1 -1 $-1 $340 $145 $336 $341 reversed $232 $-1 #
loop $-1 -1 $-1 $-1 $145 $342 #
vertex $-1 -1 $-1 $230 $343 #
vertex $-1 -1 $-1 $228 $344 #
straight-curve $-1 -1 $-1 0.34699999999999998 1.4500000000000002 -1.0750000000000002 1 0 0 I I #
coedge $-1 -1 $-1 $236 $236 $150 $237 forward $147 $-1 #
edge $-1 -1 $-1 $345 0 $345 6.2831853071795862 $236 $346 forward @7 unknown #
vertex $-1 -1 $-1 $151 $347 #
ellipse-curve $-1 -1 $-1 0 0 -0.19999999999999996 0 0 -1 0.25 0 0 1 I I #
coedge $-1 -1 $-1 $240 $240 $155 $241 forward $152 $-1 #
edge $-1 -1 $-1 $348 0 $348 6.2831853071795862 $240 $349 forward @7 unknown #
vertex $-1 -1 $-1 $156 $350 #
ellipse-curve $-1 -1 $-1 0 0 -0.19999999999999996 0 0 -1 0.25 0 0 1 I I #
coedge $-1 -1 $-1 $244 $244 $160 $245 forward $157 $-1 #
edge $-1 -1 $-1 $351 0 $351 6.2831853071795862 $244 $352 forward @7 unknown #
vertex $-1 -1 $-1 $161 $353 #
ellipse-curve $-1 -1 $-1 0 0 -0.18750000000000022 0 0 -1 0.375 0 0 1 I I #
face_name-twe-attrib $-1 -1 $-1 $163 $108 5 #
model_id-kcp-attrib $-1 -1 $354 $-1 $164 1 1021392983 1021392983 796196865 7 #
face $355 -1 $-1 $356 $357 $10 $-1 $358 forward single #
plane-surface $359 -1 $-1 2.8999999999999999 0 0 0 1 0 0 0 1 forward_v I I I I #
loop_type-twe-attrib $-1 -1 $-1 $-1 $165 0 #
loop $360 -1 $-1 $-1 $361 $108 #
surf-twe-attrib $-1 -1 $-1 $-1 $166 29 #
loop $362 -1 $-1 $-1 $169 $363 #
attrib_edge_convexity-kcp-attrib $-1 -1 $364 $-1 $170 1 #
vertex $-1 -1 $-1 $170 $365 #
ellipse-curve $366 -1 $-1 1.5 -1.3999999999999999 2.8999999999999999 -1.0000000000000001e-015 0 1 0.375 0 3.7499999999999998e-016 1 I I #
coedge $-1 -1 $-1 $272 $271 $171 $260 forward $165 $-1 #
edge $367 -1 $-1 $265 -2.8999999999999999 $262 0 $259 $368 forward @7 unknown #
attrib_edge_convexity-kcp-attrib $-1 -1 $369 $-1 $173 1 #
vertex $-1 -1 $-1 $281 $370 #
straight-curve $371 -1 $-1 0 -2.8999999999999999 2.8999999999999999 -1 0 0 I I #
edge_name-twe-attrib $-1 -1 $-1 $-1 $175 11 8704 #
vertex $-1 -1 $-1 $275 $372 #
straight-curve $373 -1 $-1 2.8999999999999999 0 2.8999999999999999 1 0 0 I I #
convexity-sys-attrib $-1 -1 $374 $176 $118 #
point $-1 -1 $-1 0 -2.8999999999999999 2.8999999999999999 #
point $-1 -1 $-1 0 0 2.8999999999999999 #
cur-twe-attrib $-1 -1 $-1 $-1 $179 39 #
coedge $-1 -1 $-1 $259 $180 $183 $275 reversed $165 $-1 #
coedge $-1 -1 $-1 $180 $259 $188 $281 forward $165 $-1 #
attrib_edge_convexity-kcp-attrib $-1 -1 $375 $-1 $181 1 #
straight-curve $376 -1 $-1 2.8999999999999999 -2.8999999999999999 0 0 -1 0 I I #
edge $377 -1 $-1 $265 -2.8999999999999999 $186 0 $183 $378 forward @7 unknown #
loop_type-twe-attrib $-1 -1 $-1 $-1 $184 0 #
loop $379 -1 $-1 $-1 $380 $164 #
convexity-sys-attrib $-1 -1 $381 $185 $121 #
point $-1 -1 $-1 2.8999999999999999 0 0 #
cur-twe-attrib $-1 -1 $-1 $-1 $187 42 #
edge $382 -1 $-1 $262 -2.8999999999999999 $191 0 $272 $383 forward @7 unknown #
convexity-sys-attrib $-1 -1 $384 $190 $123 #
point $-1 -1 $-1 2.8999999999999999 -2.8999999999999999 0 #
cur-twe-attrib $-1 -1 $-1 $-1 $192 44 #
attrib_edge_convexity-kcp-attrib $-1 -1 $385 $-1 $193 1 #
straight-curve $386 -1 $-1 0 -2.8999999999999999 0 0 0 -1 I I #
attrib_edge_convexity-kcp-attrib $-1 -1 $387 $-1 $194 1 #
straight-curve $388 -1 $-1 0 0 0 0 0 -1 I I #
edge_name-twe-attrib $-1 -1 $-1 $195 $81 1 8704 #
model_id-kcp-attrib $-1 -1 $-1 $-1 $200 1 1021392983 1021392983 796196866 7 #
face $389 -1 $-1 $-1 $215 $27 $-1 $390 reversed single #
loop $-1 -1 $-1 $-1 $307 $200 #
plane-surface $-1 -1 $-1 0 1.45 0 0 -1 0 0 0 -1 forward_v I I I I #
coedge $-1 -1 $-1 $391 $305 $308 $392 forward $201 $-1 #
coedge $-1 -1 $-1 $311 $203 $204 $299 reversed $132 $-1 #
coedge $-1 -1 $-1 $305 $391 $203 $297 reversed $201 $-1 #
edge $-1 -1 $-1 $312 -1.4500000000000002 $393 1.4500000000000002 $296 $394 forward @7 unknown #
coedge $-1 -1 $-1 $205 $204 $391 $395 forward $84 $-1 #
edge $-1 -1 $-1 $303 -1.45 $393 1.45 $295 $396 forward @7 unknown #
coedge $-1 -1 $-1 $308 $307 $205 $301 reversed $292 $-1 #
edge $-1 -1 $-1 $397 -1.45 $302 1.45 $300 $398 forward @7 unknown #
vertex $-1 -1 $-1 $207 $399 #
vertex $-1 -1 $-1 $314 $400 #
straight-curve $-1 -1 $-1 1.45 0 -1.4500000000000002 0 -1 0 I I #
coedge $-1 -1 $-1 $294 $296 $208 $306 reversed $201 $-1 #
edge $-1 -1 $-1 $309 -1.45 $312 1.45 $305 $401 forward @7 unknown #
coedge $-1 -1 $-1 $300 $209 $214 $315 forward $292 $-1 #
coedge $-1 -1 $-1 $209 $300 $294 $392 reversed $292 $-1 #
vertex $-1 -1 $-1 $210 $402 #
straight-curve $-1 -1 $-1 0 1.45 1.4500000000000002 -1 0 0 I I #
coedge $-1 -1 $-1 $211 $295 $213 $314 reversed $132 $-1 #
vertex $-1 -1 $-1 $306 $403 #
straight-curve $-1 -1 $-1 0 -1.45 1.4500000000000002 1 0 0 I I #
edge $-1 -1 $-1 $216 -1.4500000000000002 $303 1.4500000000000002 $213 $404 forward @7 unknown #
edge $-1 -1 $-1 $217 -1.4500000000000002 $302 1.4500000000000002 $214 $405 forward @7 unknown #
point $-1 -1 $-1 1.45 -1.45 1.4500000000000002 #
point $-1 -1 $-1 1.45 1.45 1.4500000000000002 #
face $-1 -1 $-1 $406 $407 $29 $-1 $408 forward single #
loop $-1 -1 $-1 $-1 $409 $219 #
plane-surface $-1 -1 $-1 0.64399999999999991 -0.55000000000000004 0.67499999999999971 0 0 1 1 0 0 forward_v I I I I #
coedge $-1 -1 $-1 $410 $411 $412 $413 forward $220 $-1 #
coedge $-1 -1 $-1 $414 $222 $411 $415 reversed $140 $-1 #
coedge $-1 -1 $-1 $222 $414 $223 $327 forward $140 $-1 #
coedge $-1 -1 $-1 $225 $412 $222 $325 reversed $232 $-1 #
edge $-1 -1 $-1 $328 -0.70350000000000001 $416 0.23450000000000004 $222 $417 forward @7 unknown #
coedge $-1 -1 $-1 $224 $223 $418 $419 reversed $88 $-1 #
edge $-1 -1 $-1 $420 0 $328 2 $323 $421 forward @7 unknown #
vertex $-1 -1 $-1 $327 $422 #
ellipse-curve $-1 -1 $-1 0.64399999999999991 1.4500000000000002 -0.66900000000000015 0 -1 0 0.40600000000000003 0 0 1 I I #
coedge $-1 -1 $-1 $418 $423 $227 $331 forward $424 $-1 #
edge $425 -1 $-1 $338 -0.8909999999999999 $333 0.29699999999999993 $227 $426 forward @7 unknown #
convexity-sys-attrib $-1 -1 $-1 $-1 $228 #
vertex $-1 -1 $-1 $331 $427 #
straight-curve $-1 -1 $-1 0.64399999999999991 -0.55000000000000004 -1.0750000000000002 0 1 0 I I #
coedge $-1 -1 $-1 $428 $229 $423 $429 reversed $337 $-1 #
coedge $-1 -1 $-1 $229 $428 $231 $341 forward $337 $-1 #
loop $-1 -1 $-1 $-1 $336 $430 #
vertex $-1 -1 $-1 $429 $431 #
straight-curve $-1 -1 $-1 -0.54399999999999993 -0.55000000000000004 -1.0750000000000002 0 1 0 I I #
coedge $-1 -1 $-1 $432 $231 $433 $434 reversed $232 $-1 #
edge $-1 -1 $-1 $435 -3.1415926535897931 $233 -1.5707963267948966 $336 $436 forward @7 unknown #
face $-1 -1 $-1 $437 $232 $29 $-1 $438 forward single #
point $-1 -1 $-1 -0.54399999999999993 1.45 -1.0750000000000002 #
point $-1 -1 $-1 0.64399999999999991 1.45 -1.0750000000000002 #
vertex $-1 -1 $-1 $237 $439 #
ellipse-curve $-1 -1 $-1 0 0 0.19999999999999996 0 0 1 0.25 0 0 1 I I #
point $-1 -1 $-1 0.25 0 -0.19999999999999996 #
vertex $-1 -1 $-1 $241 $440 #
ellipse-curve $-1 -1 $-1 0 0 0.19999999999999996 0 0 1 0.25 0 0 1 I I #
point $-1 -1 $-1 0.25 0 -0.19999999999999996 #
vertex $-1 -1 $-1 $245 $441 #
ellipse-curve $-1 -1 $-1 0 0 0.18750000000000022 0 0 1 0.375 0 0 1 I I #
point $-1 -1 $-1 0.375 0 -0.18750000000000022 #
face_name-twe-attrib $-1 -1 $-1 $249 $164 6 #
model_id-kcp-attrib $-1 -1 $442 $-1 $250 1 1021392983 1021392983 796196865 8 #
face $443 -1 $-1 $444 $445 $10 $-1 $446 reversed single #
loop $447 -1 $-1 $-1 $448 $250 #
plane-surface $449 -1 $-1 2.8999999999999999 -2 0 0 1 0 0 0 1 forward_v I I I I #
surf-twe-attrib $-1 -1 $-1 $-1 $251 52 #
model_id-kcp-attrib $-1 -1 $450 $-1 $253 1 1021392983 1021392983 796196865 30 #
coedge $-1 -1 $-1 $361 $361 $451 $452 reversed $253 $-1 #
loop_type-twe-attrib $-1 -1 $-1 $-1 $255 1 #
face $453 -1 $-1 $-1 $454 $10 $-1 $455 reversed single #
convexity-sys-attrib $-1 -1 $456 $256 $170 #
point $-1 -1 $-1 1.875 -1.3999999999999999 2.8999999999999999 #
cur-twe-attrib $-1 -1 $-1 $-1 $258 58 #
edge_name-twe-attrib $-1 -1 $-1 $-1 $260 7 8704 #
straight-curve $457 -1 $-1 2.8999999999999999 -2.8999999999999999 2.8999999999999999 0 -1 0 I I #
convexity-sys-attrib $-1 -1 $458 $261 $173 #
point $-1 -1 $-1 2.8999999999999999 -2.8999999999999999 2.8999999999999999 #
cur-twe-attrib $-1 -1 $-1 $-1 $263 61 #
point $-1 -1 $-1 2.8999999999999999 0 2.8999999999999999 #
cur-twe-attrib $-1 -1 $-1 $-1 $266 63 #
edge_name-twe-attrib $-1 -1 $-1 $267 $118 2 8704 #
convexity-sys-attrib $-1 -1 $459 $273 $181 #
cur-twe-attrib $-1 -1 $-1 $-1 $274 69 #
edge_name-twe-attrib $-1 -1 $-1 $-1 $275 12 8704 #
straight-curve $460 -1 $-1 2.8999999999999999 0 0 0 0 -1 I I #
loop_type-twe-attrib $-1 -1 $-1 $-1 $277 1 #
coedge $-1 -1 $-1 $461 $462 $463 $464 forward $277 $-1 #
edge_name-twe-attrib $-1 -1 $-1 $278 $121 9 8704 #
attrib_edge_convexity-kcp-attrib $-1 -1 $465 $-1 $281 1 #
straight-curve $466 -1 $-1 2.8999999999999999 -2.8999999999999999 0 0 0 -1 I I #
edge_name-twe-attrib $-1 -1 $-1 $282 $123 3 8704 #
convexity-sys-attrib $-1 -1 $467 $285 $193 #
cur-twe-attrib $-1 -1 $-1 $-1 $286 81 #
convexity-sys-attrib $-1 -1 $468 $287 $194 #
cur-twe-attrib $-1 -1 $-1 $-1 $288 82 #
model_id-kcp-attrib $-1 -1 $-1 $-1 $291 1 1021392983 1021392983 796196866 6 #
plane-surface $-1 -1 $-1 1.45 0 0 -1 0 0 0 0 1 forward_v I I I I #
coedge $-1 -1 $-1 $296 $294 $298 $395 reversed $201 $-1 #
edge $-1 -1 $-1 $309 -1.4500000000000002 $397 1.4500000000000002 $308 $469 forward @7 unknown #
vertex $-1 -1 $-1 $395 $470 #
straight-curve $-1 -1 $-1 -1.45 -1.45 0 0 0 -1 I I #
edge $-1 -1 $-1 $393 -1.45 $397 1.45 $391 $471 forward @7 unknown #
straight-curve $-1 -1 $-1 0 -1.45 -1.4500000000000002 -1 0 0 I I #
vertex $-1 -1 $-1 $301 $472 #
straight-curve $-1 -1 $-1 0 1.45 -1.4500000000000002 1 0 0 I I #
point $-1 -1 $-1 1.45 1.45 -1.4500000000000002 #
point $-1 -1 $-1 1.45 -1.45 -1.4500000000000002 #
straight-curve $-1 -1 $-1 -1.45 0 1.4500000000000002 0 -1 0 I I #
point $-1 -1 $-1 -1.45 1.45 1.4500000000000002 #
point $-1 -1 $-1 -1.45 -1.45 1.4500000000000002 #
straight-curve $-1 -1 $-1 1.45 -1.45 0 0 0 -1 I I #
straight-curve $-1 -1 $-1 1.45 1.45 0 0 0 -1 I I #
face $-1 -1 $-1 $430 $473 $29 $-1 $474 forward single #
loop $-1 -1 $-1 $-1 $475 $318 #
cone-surface $-1 -1 $-1 -0.54399999999999993 -0.54999999999999982 0.26899999999999991 0 1 0 0.40600000000000003 0 0 1 I I 0 1 0.40600000000000003 forward I I I I #
coedge $-1 -1 $-1 $476 $477 $478 $479 forward $319 $-1 #
coedge $-1 -1 $-1 $480 $321 $477 $481 reversed $220 $-1 #
coedge $-1 -1 $-1 $321 $480 $322 $415 forward $220 $-1 #
coedge $-1 -1 $-1 $324 $478 $321 $413 reversed $232 $-1 #
edge $-1 -1 $-1 $416 0 $482 1.5707963267948966 $321 $483 forward @7 unknown #
coedge $-1 -1 $-1 $323 $322 $484 $485 reversed $140 $-1 #
edge $-1 -1 $-1 $486 0 $416 2 $411 $487 forward @7 unknown #
vertex $-1 -1 $-1 $415 $488 #
straight-curve $-1 -1 $-1 1.05 1.4500000000000002 0.034499999999999864 0 0 1 I I #
coedge $-1 -1 $-1 $484 $330 $326 $419 forward $424 $-1 #
edge $489 -1 $-1 $333 -1.5707963267948966 $420 0 $326 $490 forward @7 unknown #
vertex $-1 -1 $-1 $419 $491 #
straight-curve $-1 -1 $-1 1.05 -0.55000000000000004 -0.66900000000000015 0 1 0 I I #
point $-1 -1 $-1 1.05 1.45 -0.66900000000000015 #
coedge $-1 -1 $-1 $330 $492 $335 $429 forward $424 $-1 #
loop $-1 -1 $-1 $-1 $423 $437 #
convexity-sys-attrib $-1 -1 $-1 $-1 $331 #
straight-curve $-1 -1 $-1 0.34699999999999998 -0.54999999999999982 -1.0750000000000002 1 0 0 I I #
point $-1 -1 $-1 0.64399999999999991 -0.55000000000000004 -1.0750000000000002 #
coedge $-1 -1 $-1 $336 $335 $493 $494 forward $337 $-1 #
edge $495 -1 $-1 $496 -3.1415926535897931 $338 -1.5707963267948966 $335 $497 forward @7 unknown #
face $-1 -1 $-1 $342 $337 $29 $-1 $498 forward single #
point $-1 -1 $-1 -0.54399999999999993 -0.55000000000000004 -1.0750000000000002 #
coedge $-1 -1 $-1 $478 $340 $475 $499 reversed $232 $-1 #
coedge $-1 -1 $-1 $493 $500 $340 $434 forward $473 $-1 #
edge $-1 -1 $-1 $501 -0.70350000000000001 $435 0.23449999999999999 $433 $502 forward @7 unknown #
vertex $-1 -1 $-1 $494 $503 #
ellipse-curve $-1 -1 $-1 -0.54399999999999993 1.4500000000000002 -0.66900000000000015 0 -1 0 0.40600000000000003 0 0 1 I I #
face $-1 -1 $-1 $-1 $424 $29 $-1 $504 reversed single #
plane-surface $-1 -1 $-1 0.050000000000000051 1.4500000000000002 -0.20000000000000012 -4.3085679894199015e-032 1 -4.2171514793268706e-032 0 4.2171514793268706e-032 1 forward_v I I I I #
point $-1 -1 $-1 0.25 0 0.19999999999999996 #
point $-1 -1 $-1 0.25 0 0.19999999999999996 #
point $-1 -1 $-1 0.375 0 0.18750000000000022 #
face_name-twe-attrib $-1 -1 $-1 $355 $250 7 #
model_id-kcp-attrib $-1 -1 $505 $-1 $356 1 1021392983 1021392983 796196865 9 #
face $506 -1 $-1 $507 $508 $10 $-1 $509 reversed single #
loop $510 -1 $-1 $-1 $463 $356 #
cone-surface $511 -1 $-1 0.90600000000000003 0 0.78100000000000003 0 1 0 0.40600000000000003 0 0 1 I I 0 1 0.40600000000000003 forward I I I I #
loop_type-twe-attrib $-1 -1 $-1 $-1 $357 0 #
coedge $-1 -1 $-1 $512 $513 $514 $515 reversed $357 $-1 #
surf-twe-attrib $-1 -1 $-1 $-1 $358 87 #
loop_type-twe-attrib $-1 -1 $-1 $360 $253 1 #
coedge $-1 -1 $-1 $451 $451 $361 $452 forward $516 $-1 #
edge $517 -1 $-1 $518 0 $518 6.2831853071795862 $451 $519 forward @7 unknown #
model_id-kcp-attrib $-1 -1 $520 $-1 $363 1 1021392983 1021392983 796196865 20 #
loop $521 -1 $-1 $255 $522 $363 #
cone-surface $523 -1 $-1 1.5 -1.3999999999999999 2.9187500000000002 0 0 -1 0.375 0 0 1 I I 0 1 0.375 forward I I I I #
edge_name-twe-attrib $-1 -1 $-1 $364 $170 42 8704 #
cur-twe-attrib $-1 -1 $-1 $-1 $368 97 #
edge_name-twe-attrib $-1 -1 $-1 $369 $173 4 8704 #
edge_name-twe-attrib $-1 -1 $-1 $375 $181 6 8704 #
cur-twe-attrib $-1 -1 $-1 $-1 $378 111 #
coedge $-1 -1 $-1 $524 $380 $525 $526 forward $277 $-1 #
coedge $-1 -1 $-1 $380 $527 $528 $529 forward $277 $-1 #
coedge $-1 -1 $-1 $530 $531 $380 $464 reversed $445 $-1 #
edge $532 -1 $-1 $533 -1.5707963267948966 $534 0 $463 $535 forward @7 unknown #
convexity-sys-attrib $-1 -1 $536 $382 $281 #
cur-twe-attrib $-1 -1 $-1 $-1 $383 116 #
edge_name-twe-attrib $-1 -1 $-1 $385 $193 5 8704 #
edge_name-twe-attrib $-1 -1 $-1 $387 $194 10 8704 #
straight-curve $-1 -1 $-1 -1.45 1.45 0 0 0 -1 I I #
point $-1 -1 $-1 -1.45 -1.45 -1.4500000000000002 #
straight-curve $-1 -1 $-1 -1.45 0 -1.4500000000000002 0 1 0 I I #
point $-1 -1 $-1 -1.45 1.45 -1.4500000000000002 #
loop $-1 -1 $-1 $-1 $433 $406 #
plane-surface $-1 -1 $-1 -0.94999999999999996 -0.55000000000000004 0.26899999999999991 -1 0 0 0 0 1 forward_v I I I I #
coedge $-1 -1 $-1 $537 $538 $432 $499 forward $407 $-1 #
coedge $-1 -1 $-1 $539 $409 $538 $540 reversed $319 $-1 #
coedge $-1 -1 $-1 $409 $539 $410 $481 forward $319 $-1 #
coedge $-1 -1 $-1 $412 $432 $409 $479 reversed $232 $-1 #
edge $-1 -1 $-1 $482 -0.89099999999999979 $541 0.29699999999999999 $409 $542 forward @7 unknown #
coedge $-1 -1 $-1 $411 $410 $543 $544 reversed $220 $-1 #
edge $-1 -1 $-1 $545 0 $482 2 $477 $546 forward @7 unknown #
vertex $-1 -1 $-1 $481 $547 #
ellipse-curve $-1 -1 $-1 0.64399999999999991 1.4500000000000002 0.26899999999999991 0 -1 0 0.40600000000000003 0 0 1 I I #
coedge $-1 -1 $-1 $543 $418 $414 $485 forward $424 $-1 #
edge $548 -1 $-1 $420 -0.70350000000000001 $486 0.23450000000000004 $414 $549 forward @7 unknown #
vertex $-1 -1 $-1 $485 $550 #
straight-curve $-1 -1 $-1 1.05 -0.55000000000000004 0.26899999999999991 0 1 0 I I #
point $-1 -1 $-1 1.05 1.45 0.26899999999999991 #
convexity-sys-attrib $-1 -1 $-1 $-1 $419 #
ellipse-curve $-1 -1 $-1 0.64399999999999991 -0.54999999999999982 -0.66900000000000015 0 -1 0 0.40600000000000003 0 0 1 I I #
point $-1 -1 $-1 1.05 -0.55000000000000004 -0.66900000000000015 #
coedge $-1 -1 $-1 $423 $551 $552 $553 forward $424 $-1 #
coedge $-1 -1 $-1 $552 $433 $428 $494 reversed $473 $-1 #
edge $-1 -1 $-1 $496 0 $435 2 $428 $554 forward @7 unknown #
convexity-sys-attrib $-1 -1 $-1 $-1 $429 #
vertex $-1 -1 $-1 $429 $555 #
ellipse-curve $-1 -1 $-1 -0.54399999999999993 -0.54999999999999982 -0.66900000000000015 0 -1 0 0.40600000000000003 0 0 1 I I #
cone-surface $-1 -1 $-1 -0.54399999999999993 -0.54999999999999982 -0.66900000000000015 0 1 0 0.40600000000000003 0 0 1 I I 0 1 0.40600000000000003 forward I I I I #
edge $-1 -1 $-1 $541 1.5707963267948966 $501 3.1415926535897931 $475 $556 forward @7 unknown #
coedge $-1 -1 $-1 $433 $552 $537 $557 forward $473 $-1 #
vertex $-1 -1 $-1 $557 $558 #
straight-curve $-1 -1 $-1 -0.94999999999999996 1.4500000000000002 -0.43450000000000016 0 0 -1 I I #
point $-1 -1 $-1 -0.94999999999999996 1.45 -0.66900000000000015 #
plane-surface $-1 -1 $-1 0.050000000000000051 -0.54999999999999982 -0.20000000000000012 -4.3085679894199015e-032 1 -4.2171514793268706e-032 0 4.2171514793268706e-032 1 forward_v I I I I #
face_name-twe-attrib $-1 -1 $-1 $443 $356 8 #
model_id-kcp-attrib $-1 -1 $559 $-1 $444 1 1021392983 1021392983 796196865 10 #
face $560 -1 $-1 $561 $562 $10 $-1 $563 reversed single #
loop $564 -1 $-1 $-1 $528 $444 #
plane-surface $565 -1 $-1 0.5 0 0.78100000000000003 -1 0 0 0 0 1 forward_v I I I I #
loop_type-twe-attrib $-1 -1 $-1 $-1 $445 0 #
surf-twe-attrib $-1 -1 $-1 $-1 $446 124 #
coedge $-1 -1 $-1 $566 $448 $567 $568 reversed $357 $-1 #
coedge $-1 -1 $-1 $448 $569 $570 $571 reversed $357 $-1 #
coedge $-1 -1 $-1 $531 $530 $448 $515 forward $445 $-1 #
edge $572 -1 $-1 $573 -1.5707963267948966 $574 0 $514 $575 forward @7 unknown #
loop $576 -1 $-1 $-1 $451 $577 #
attrib_edge_convexity-kcp-attrib $-1 -1 $578 $-1 $452 1 #
vertex $-1 -1 $-1 $452 $579 #
ellipse-curve $580 -1 $-1 2.8999999999999999 -1.3999999999999999 1.3999999999999999 1 0 0 0 -0.25 0 1 I I #
face_name-twe-attrib $-1 -1 $-1 $453 $363 19 #
loop_type-twe-attrib $-1 -1 $-1 $-1 $454 0 #
coedge $-1 -1 $-1 $522 $522 $581 $582 reversed $454 $-1 #
surf-twe-attrib $-1 -1 $-1 $-1 $455 131 #
coedge $-1 -1 $-1 $583 $461 $584 $585 forward $277 $-1 #
coedge $-1 -1 $-1 $586 $587 $461 $526 reversed $588 $-1 #
edge $589 -1 $-1 $534 -1.1879999999999997 $590 0 $525 $591 forward @7 unknown #
coedge $-1 -1 $-1 $462 $592 $593 $594 forward $277 $-1 #
coedge $-1 -1 $-1 $595 $596 $462 $529 reversed $508 $-1 #
edge $597 -1 $-1 $598 -0.93800000000000006 $533 0 $528 $599 forward @7 unknown #
coedge $-1 -1 $-1 $514 $463 $596 $600 reversed $445 $-1 #
coedge $-1 -1 $-1 $463 $514 $586 $601 forward $445 $-1 #
edge_name-twe-attrib $-1 -1 $-1 $-1 $464 13 8704 #
vertex $-1 -1 $-1 $600 $602 #
vertex $-1 -1 $-1 $601 $603 #
ellipse-curve $604 -1 $-1 0.90600000000000003 0 0.78100000000000003 0 -1 0 0 0 -0.40600000000000003 1 I I #
edge_name-twe-attrib $-1 -1 $-1 $465 $281 8 8704 #
coedge $-1 -1 $-1 $605 $475 $500 $557 reversed $407 $-1 #
coedge $-1 -1 $-1 $475 $605 $476 $540 forward $407 $-1 #
coedge $-1 -1 $-1 $477 $476 $606 $607 reversed $319 $-1 #
edge $-1 -1 $-1 $608 0 $541 2 $538 $609 forward @7 unknown #
vertex $-1 -1 $-1 $540 $610 #
straight-curve $-1 -1 $-1 -0.24699999999999994 1.4500000000000002 0.67499999999999982 -1 0 0 I I #
coedge $-1 -1 $-1 $606 $484 $480 $544 forward $424 $-1 #
edge $611 -1 $-1 $486 0 $545 1.5707963267948966 $480 $612 forward @7 unknown #
vertex $-1 -1 $-1 $544 $613 #
straight-curve $-1 -1 $-1 0.64399999999999991 -0.55000000000000004 0.67499999999999971 0 1 0 I I #
point $-1 -1 $-1 0.64399999999999991 1.45 0.67499999999999971 #
convexity-sys-attrib $-1 -1 $-1 $-1 $485 #
straight-curve $-1 -1 $-1 1.05 -0.54999999999999982 0.034499999999999864 0 0 1 I I #
point $-1 -1 $-1 1.05 -0.55000000000000004 0.26899999999999991 #
coedge $-1 -1 $-1 $492 $606 $605 $614 forward $424 $-1 #
coedge $-1 -1 $-1 $500 $493 $492 $553 reversed $473 $-1 #
edge $615 -1 $-1 $616 -0.70350000000000001 $496 0.23449999999999999 $552 $617 forward @7 unknown #
straight-curve $-1 -1 $-1 -0.94999999999999996 -0.55000000000000004 -0.66900000000000015 0 1 0 I I #
point $-1 -1 $-1 -0.94999999999999996 -0.55000000000000004 -0.66900000000000015 #
ellipse-curve $-1 -1 $-1 -0.54399999999999993 1.4500000000000002 0.26899999999999991 0 -1 0 0.40600000000000003 0 0 1 I I #
edge $-1 -1 $-1 $616 0 $501 2 $500 $618 forward @7 unknown #
point $-1 -1 $-1 -0.94999999999999996 1.45 0.26899999999999991 #
face_name-twe-attrib $-1 -1 $-1 $506 $444 9 #
model_id-kcp-attrib $-1 -1 $619 $-1 $507 1 1021392983 1021392983 796196865 11 #
face $620 -1 $-1 $621 $622 $10 $-1 $623 reversed single #
loop $624 -1 $-1 $-1 $593 $507 #
cone-surface $625 -1 $-1 0.90600000000000003 0 1.7190000000000001 0 1 0 0.40600000000000003 0 0 1 I I 0 1 0.40600000000000003 forward I I I I #
loop_type-twe-attrib $-1 -1 $-1 $-1 $508 0 #
surf-twe-attrib $-1 -1 $-1 $-1 $509 150 #
coedge $-1 -1 $-1 $626 $512 $627 $628 reversed $357 $-1 #
coedge $-1 -1 $-1 $596 $595 $512 $568 forward $508 $-1 #
edge $629 -1 $-1 $630 -0.93800000000000006 $573 0 $567 $631 forward @7 unknown #
coedge $-1 -1 $-1 $513 $632 $633 $634 reversed $357 $-1 #
coedge $-1 -1 $-1 $587 $586 $513 $571 forward $588 $-1 #
edge $635 -1 $-1 $574 -1.1879999999999997 $636 0 $570 $637 forward @7 unknown #
attrib_edge_convexity-kcp-attrib $-1 -1 $638 $-1 $515 2 #
vertex $-1 -1 $-1 $600 $639 #
vertex $-1 -1 $-1 $601 $640 #
ellipse-curve $641 -1 $-1 0.90600000000000003 -2 0.78100000000000003 0 -1 0 0 0 -0.40600000000000003 1 I I #
model_id-kcp-attrib $-1 -1 $642 $-1 $516 1 1021392983 1021392983 796196865 28 #
face $643 -1 $-1 $644 $645 $10 $-1 $646 reversed single #
convexity-sys-attrib $-1 -1 $647 $517 $452 #
point $-1 -1 $-1 2.8999999999999999 -1.6499999999999999 1.3999999999999999 #
cur-twe-attrib $-1 -1 $-1 $-1 $519 157 #
coedge $-1 -1 $-1 $581 $581 $522 $582 forward $648 $-1 #
edge $649 -1 $-1 $650 -3.1415926535897931 $650 3.1415926535897931 $581 $651 forward @7 unknown #
coedge $-1 -1 $-1 $652 $524 $653 $654 forward $277 $-1 #
coedge $-1 -1 $-1 $655 $656 $524 $585 reversed $657 $-1 #
edge $658 -1 $-1 $590 -1.5707963267948966 $659 0 $584 $660 forward @7 unknown #
coedge $-1 -1 $-1 $570 $525 $531 $601 reversed $588 $-1 #
coedge $-1 -1 $-1 $525 $570 $655 $661 forward $588 $-1 #
loop $662 -1 $-1 $-1 $525 $663 #
edge_name-twe-attrib $-1 -1 $-1 $-1 $526 33 8704 #
vertex $-1 -1 $-1 $661 $664 #
straight-curve $665 -1 $-1 2.0939999999999999 0 0.375 1 0 0 I I #
coedge $-1 -1 $-1 $527 $652 $666 $667 forward $277 $-1 #
coedge $-1 -1 $-1 $668 $669 $527 $594 reversed $562 $-1 #
edge $670 -1 $-1 $671 -1.5707963267948966 $598 0 $593 $672 forward @7 unknown #
coedge $-1 -1 $-1 $567 $528 $669 $673 reversed $508 $-1 #
coedge $-1 -1 $-1 $528 $567 $530 $600 forward $508 $-1 #
edge_name-twe-attrib $-1 -1 $-1 $-1 $529 15 8704 #
vertex $-1 -1 $-1 $673 $674 #
straight-curve $675 -1 $-1 0.5 0 0.78100000000000003 0 0 -1 I I #
edge $676 -1 $-1 $573 -2 $533 0 $596 $677 forward @7 unknown #
edge $678 -1 $-1 $574 -2 $534 0 $586 $679 forward @7 unknown #
point $-1 -1 $-1 0.5 0 0.78100000000000003 #
point $-1 -1 $-1 0.90600000000000003 0 0.375 #
cur-twe-attrib $-1 -1 $-1 $-1 $535 166 #
coedge $-1 -1 $-1 $538 $537 $551 $614 reversed $407 $-1 #
coedge $-1 -1 $-1 $551 $543 $539 $607 forward $424 $-1 #
edge $680 -1 $-1 $545 -0.89099999999999979 $608 0.29699999999999999 $539 $681 forward @7 unknown #
vertex $-1 -1 $-1 $607 $682 #
straight-curve $-1 -1 $-1 -0.54399999999999993 -0.55000000000000004 0.67499999999999971 0 1 0 I I #
point $-1 -1 $-1 -0.54399999999999993 1.45 0.67499999999999971 #
convexity-sys-attrib $-1 -1 $-1 $-1 $544 #
ellipse-curve $-1 -1 $-1 0.64399999999999991 -0.54999999999999982 0.26899999999999991 0 -1 0 0.40600000000000003 0 0 1 I I #
point $-1 -1 $-1 0.64399999999999991 -0.55000000000000004 0.67499999999999982 #
edge $683 -1 $-1 $608 1.5707963267948966 $616 3.1415926535897931 $605 $684 forward @7 unknown #
convexity-sys-attrib $-1 -1 $-1 $-1 $553 #
vertex $-1 -1 $-1 $614 $685 #
straight-curve $-1 -1 $-1 -0.94999999999999996 -0.54999999999999982 -0.43450000000000016 0 0 -1 I I #
straight-curve $-1 -1 $-1 -0.94999999999999996 -0.55000000000000004 0.26899999999999991 0 1 0 I I #
face_name-twe-attrib $-1 -1 $-1 $560 $507 10 #
model_id-kcp-attrib $-1 -1 $686 $-1 $561 1 1021392983 1021392983 796196865 12 #
face $687 -1 $-1 $688 $689 $10 $-1 $690 reversed single #
loop $691 -1 $-1 $692 $666 $561 #
plane-surface $693 -1 $-1 0.90600000000000003 0 2.125 0 0 1 1 0 0 forward_v I I I I #
loop_type-twe-attrib $-1 -1 $-1 $-1 $562 0 #
surf-twe-attrib $-1 -1 $-1 $-1 $563 169 #
coedge $-1 -1 $-1 $694 $566 $695 $696 reversed $357 $-1 #
coedge $-1 -1 $-1 $669 $668 $566 $628 forward $562 $-1 #
edge $697 -1 $-1 $698 -1.5707963267948966 $630 0 $627 $699 forward @7 unknown #
attrib_edge_convexity-kcp-attrib $-1 -1 $700 $-1 $568 2 #
vertex $-1 -1 $-1 $673 $701 #
straight-curve $702 -1 $-1 0.5 -2 0.78100000000000003 0 0 -1 I I #
coedge $-1 -1 $-1 $569 $694 $703 $704 reversed $357 $-1 #
coedge $-1 -1 $-1 $656 $655 $569 $634 forward $657 $-1 #
edge $705 -1 $-1 $636 -1.5707963267948966 $706 0 $633 $707 forward @7 unknown #
attrib_edge_convexity-kcp-attrib $-1 -1 $708 $-1 $571 2 #
vertex $-1 -1 $-1 $661 $709 #
straight-curve $710 -1 $-1 2.0939999999999999 -2 0.375 1 0 0 I I #
convexity-sys-attrib $-1 -1 $711 $572 $515 #
point $-1 -1 $-1 0.5 -2 0.78100000000000003 #
point $-1 -1 $-1 0.90600000000000003 -2 0.375 #
cur-twe-attrib $-1 -1 $-1 $-1 $575 177 #
loop_type-twe-attrib $-1 -1 $-1 $576 $516 1 #
model_id-kcp-attrib $-1 -1 $712 $-1 $577 1 1021392983 1021392983 796196865 18 #
face $713 -1 $-1 $363 $648 $10 $-1 $714 reversed single #
loop $715 -1 $-1 $516 $716 $577 #
cone-surface $717 -1 $-1 2.8999999999999999 -1.3999999999999999 1.3999999999999999 -1 0 0 0 -0.25 0 1 I I 0 1 0.25 forward I I I I #
edge_name-twe-attrib $-1 -1 $-1 $578 $452 39 8704 #
loop $718 -1 $-1 $719 $581 $644 #
attrib_edge_convexity-kcp-attrib $-1 -1 $720 $-1 $582 2 #
vertex $-1 -1 $-1 $582 $721 #
ellipse-curve $722 -1 $-1 1.5 -1.3999999999999999 2.5249999999999999 0 0 1 0.375 0 0 1 I I #
coedge $-1 -1 $-1 $592 $583 $723 $724 forward $277 $-1 #
coedge $-1 -1 $-1 $725 $726 $583 $654 reversed $727 $-1 #
edge $728 -1 $-1 $659 -0.93800000000000006 $729 0 $653 $730 forward @7 unknown #
coedge $-1 -1 $-1 $633 $584 $587 $661 reversed $657 $-1 #
coedge $-1 -1 $-1 $584 $633 $725 $731 forward $657 $-1 #
loop $732 -1 $-1 $-1 $584 $733 #
edge_name-twe-attrib $-1 -1 $-1 $-1 $585 30 8704 #
vertex $-1 -1 $-1 $731 $734 #
ellipse-curve $735 -1 $-1 2.0939999999999999 0 0.78100000000000003 0 -1 0 0.40600000000000003 0 0 1 I I #
edge $736 -1 $-1 $636 -2 $590 0 $587 $737 forward @7 unknown #
loop_type-twe-attrib $-1 -1 $-1 $-1 $588 0 #
face $738 -1 $-1 $739 $588 $10 $-1 $740 reversed single #
point $-1 -1 $-1 2.0939999999999999 0 0.375 #
cur-twe-attrib $-1 -1 $-1 $-1 $591 187 #
coedge $-1 -1 $-1 $741 $742 $592 $667 reversed $622 $-1 #
edge $743 -1 $-1 $744 -1.1879999999999997 $671 0 $666 $745 forward @7 unknown #
coedge $-1 -1 $-1 $627 $593 $742 $746 reversed $562 $-1 #
coedge $-1 -1 $-1 $593 $627 $595 $673 forward $562 $-1 #
edge_name-twe-attrib $-1 -1 $-1 $-1 $594 18 8704 #
vertex $-1 -1 $-1 $746 $747 #
ellipse-curve $748 -1 $-1 0.90600000000000003 0 1.7190000000000001 0 -1 0 -0.40600000000000003 0 0 1 I I #
edge $749 -1 $-1 $630 -2 $598 0 $669 $750 forward @7 unknown #
point $-1 -1 $-1 0.5 0 1.7190000000000001 #
cur-twe-attrib $-1 -1 $-1 $-1 $599 190 #
edge_name-twe-attrib $-1 -1 $-1 $-1 $600 17 20480 #
straight-curve $751 -1 $-1 0.5 0 0.78100000000000003 0 1 0 I I #
edge_name-twe-attrib $-1 -1 $-1 $-1 $601 34 20480 #
straight-curve $752 -1 $-1 0.90600000000000003 0 0.375 0 1 0 I I #
convexity-sys-attrib $-1 -1 $-1 $-1 $607 #
straight-curve $-1 -1 $-1 -0.24699999999999994 -0.54999999999999982 0.67499999999999982 -1 0 0 I I #
point $-1 -1 $-1 -0.54399999999999993 -0.55000000000000004 0.67499999999999982 #
convexity-sys-attrib $-1 -1 $-1 $-1 $614 #
ellipse-curve $-1 -1 $-1 -0.54399999999999993 -0.54999999999999982 0.26899999999999991 0 -1 0 0.40600000000000003 0 0 1 I I #
point $-1 -1 $-1 -0.94999999999999996 -0.55000000000000004 0.26899999999999991 #
face_name-twe-attrib $-1 -1 $-1 $620 $561 11 #
model_id-kcp-attrib $-1 -1 $753 $-1 $621 1 1021392983 1021392983 796196865 13 #
face $754 -1 $-1 $733 $727 $10 $-1 $755 reversed single #
loop $756 -1 $-1 $-1 $723 $621 #
cone-surface $757 -1 $-1 2.0939999999999999 0 1.7190000000000001 0 1 0 0.40600000000000003 0 0 1 I I 0 1 0.40600000000000003 forward I I I I #
loop_type-twe-attrib $-1 -1 $-1 $-1 $622 0 #
loop $758 -1 $-1 $-1 $759 $561 #
surf-twe-attrib $-1 -1 $-1 $-1 $623 198 #
coedge $-1 -1 $-1 $632 $626 $760 $761 reversed $357 $-1 #
coedge $-1 -1 $-1 $742 $741 $626 $696 forward $622 $-1 #
edge $762 -1 $-1 $763 -1.1879999999999997 $698 0 $695 $764 forward @7 unknown #
attrib_edge_convexity-kcp-attrib $-1 -1 $765 $-1 $628 2 #
vertex $-1 -1 $-1 $746 $766 #
ellipse-curve $767 -1 $-1 0.90600000000000003 -2 1.7190000000000001 0 -1 0 -0.40600000000000003 0 0 1 I I #
convexity-sys-attrib $-1 -1 $768 $629 $568 #
point $-1 -1 $-1 0.5 -2 1.7190000000000001 #
cur-twe-attrib $-1 -1 $-1 $-1 $631 205 #
coedge $-1 -1 $-1 $726 $725 $632 $704 forward $727 $-1 #
edge $769 -1 $-1 $706 -0.93800000000000006 $770 0 $703 $771 forward @7 unknown #
attrib_edge_convexity-kcp-attrib $-1 -1 $772 $-1 $634 2 #
vertex $-1 -1 $-1 $731 $773 #
ellipse-curve $774 -1 $-1 2.0939999999999999 -2 0.78100000000000003 0 -1 0 0.40600000000000003 0 0 1 I I #
convexity-sys-attrib $-1 -1 $775 $635 $571 #
point $-1 -1 $-1 2.0939999999999999 -2 0.375 #
cur-twe-attrib $-1 -1 $-1 $-1 $637 208 #
edge_name-twe-attrib $-1 -1 $-1 $638 $515 14 4608 #
face_name-twe-attrib $-1 -1 $-1 $643 $577 17 #
model_id-kcp-attrib $-1 -1 $776 $-1 $644 1 1021392983 1021392983 796196865 19 #
plane-surface $777 -1 $-1 1.5 -1.3999999999999999 2.5249999999999999 0 0 -1 -1 0 0 forward_v I I I I #
model_id-kcp-attrib $-1 -1 $778 $-1 $645 1 1021392983 1021392983 796196865 27 #
coedge $-1 -1 $-1 $716 $716 $779 $780 reversed $645 $-1 #
surf-twe-attrib $-1 -1 $-1 $-1 $646 214 #
loop_type-twe-attrib $-1 -1 $-1 $-1 $648 0 #
loop $781 -1 $-1 $-1 $782 $644 #
convexity-sys-attrib $-1 -1 $783 $649 $582 #
point $-1 -1 $-1 1.125 -1.3999999999999999 2.5249999999999999 #
cur-twe-attrib $-1 -1 $-1 $-1 $651 218 #
coedge $-1 -1 $-1 $784 $785 $652 $724 reversed $689 $-1 #
edge $786 -1 $-1 $729 -1.5707963267948966 $744 0 $723 $787 forward @7 unknown #
coedge $-1 -1 $-1 $703 $653 $656 $731 reversed $727 $-1 #
coedge $-1 -1 $-1 $653 $703 $784 $788 forward $727 $-1 #
loop $789 -1 $-1 $790 $653 $688 #
edge_name-twe-attrib $-1 -1 $-1 $-1 $654 27 8704 #
vertex $-1 -1 $-1 $788 $791 #
straight-curve $792 -1 $-1 2.5 0 1.7190000000000001 0 0 1 I I #
edge $793 -1 $-1 $706 -2 $659 0 $656 $794 forward @7 unknown #
loop_type-twe-attrib $-1 -1 $-1 $-1 $657 0 #
face $795 -1 $-1 $663 $657 $10 $-1 $796 reversed single #
point $-1 -1 $-1 2.5 0 0.78100000000000003 #
cur-twe-attrib $-1 -1 $-1 $-1 $660 221 #
edge_name-twe-attrib $-1 -1 $-1 $-1 $661 36 20480 #
straight-curve $797 -1 $-1 2.0939999999999999 0 0.375 0 1 0 I I #
model_id-kcp-attrib $-1 -1 $798 $-1 $663 1 1021392983 1021392983 796196865 16 #
face $799 -1 $-1 $577 $800 $10 $-1 $801 reversed single #
plane-surface $802 -1 $-1 2.0939999999999999 0 0.375 0 0 -1 -1 0 0 forward_v I I I I #
coedge $-1 -1 $-1 $695 $666 $785 $803 reversed $622 $-1 #
coedge $-1 -1 $-1 $666 $695 $668 $746 forward $622 $-1 #
edge_name-twe-attrib $-1 -1 $-1 $-1 $667 21 8704 #
vertex $-1 -1 $-1 $803 $804 #
straight-curve $805 -1 $-1 0.90600000000000003 0 2.125 -1 0 0 I I #
edge $806 -1 $-1 $698 -2 $671 0 $742 $807 forward @7 unknown #
point $-1 -1 $-1 0.90600000000000003 0 2.125 #
cur-twe-attrib $-1 -1 $-1 $-1 $672 230 #
edge_name-twe-attrib $-1 -1 $-1 $-1 $673 20 20480 #
straight-curve $808 -1 $-1 0.5 0 1.7190000000000001 0 1 0 I I #
cur-twe-attrib $-1 -1 $-1 $-1 $677 236 #
cur-twe-attrib $-1 -1 $-1 $-1 $679 237 #
face_name-twe-attrib $-1 -1 $-1 $687 $621 12 #
model_id-kcp-attrib $-1 -1 $809 $-1 $688 1 1021392983 1021392983 796196865 14 #
plane-surface $810 -1 $-1 2.5 0 1.7190000000000001 1 0 0 0 0 -1 forward_v I I I I #
loop_type-twe-attrib $-1 -1 $-1 $-1 $689 0 #
surf-twe-attrib $-1 -1 $-1 $-1 $690 242 #
model_id-kcp-attrib $-1 -1 $811 $-1 $692 1 1021392983 1021392983 796196865 24 #
coedge $-1 -1 $-1 $759 $759 $812 $813 forward $692 $-1 #
coedge $-1 -1 $-1 $785 $784 $694 $761 forward $689 $-1 #
edge $814 -1 $-1 $770 -1.5707963267948966 $763 0 $760 $815 forward @7 unknown #
attrib_edge_convexity-kcp-attrib $-1 -1 $816 $-1 $696 2 #
vertex $-1 -1 $-1 $803 $817 #
straight-curve $818 -1 $-1 0.90600000000000003 -2 2.125 -1 0 0 I I #
convexity-sys-attrib $-1 -1 $819 $697 $628 #
point $-1 -1 $-1 0.90600000000000003 -2 2.125 #
cur-twe-attrib $-1 -1 $-1 $-1 $699 249 #
edge_name-twe-attrib $-1 -1 $-1 $700 $568 16 4608 #
attrib_edge_convexity-kcp-attrib $-1 -1 $820 $-1 $704 2 #
vertex $-1 -1 $-1 $788 $821 #
straight-curve $822 -1 $-1 2.5 -2 1.7190000000000001 0 0 1 I I #
convexity-sys-attrib $-1 -1 $823 $705 $634 #
point $-1 -1 $-1 2.5 -2 0.78100000000000003 #
cur-twe-attrib $-1 -1 $-1 $-1 $707 255 #
edge_name-twe-attrib $-1 -1 $-1 $708 $571 35 4608 #
face_name-twe-attrib $-1 -1 $-1 $713 $644 18 #
surf-twe-attrib $-1 -1 $-1 $-1 $714 263 #
loop_type-twe-attrib $-1 -1 $-1 $715 $645 0 #
coedge $-1 -1 $-1 $779 $779 $716 $780 forward $790 $-1 #
edge $824 -1 $-1 $825 -3.1415926535897931 $825 3.1415926535897931 $716 $826 forward @7 unknown #
model_id-kcp-attrib $-1 -1 $827 $-1 $719 1 1021392983 1021392983 796196865 25 #
coedge $-1 -1 $-1 $782 $782 $828 $829 reversed $719 $-1 #
edge_name-twe-attrib $-1 -1 $-1 $720 $582 40 4608 #
coedge $-1 -1 $-1 $760 $723 $726 $788 reversed $689 $-1 #
coedge $-1 -1 $-1 $723 $760 $741 $803 forward $689 $-1 #
edge_name-twe-attrib $-1 -1 $-1 $-1 $724 24 8704 #
ellipse-curve $830 -1 $-1 2.0939999999999999 0 1.7190000000000001 0 -1 0 0 0 0.40600000000000003 1 I I #
edge $831 -1 $-1 $770 -2 $729 0 $726 $832 forward @7 unknown #
loop_type-twe-attrib $-1 -1 $-1 $-1 $727 0 #
loop $833 -1 $-1 $-1 $779 $688 #
point $-1 -1 $-1 2.5 0 1.7190000000000001 #
cur-twe-attrib $-1 -1 $-1 $-1 $730 272 #
edge_name-twe-attrib $-1 -1 $-1 $-1 $731 32 20480 #
straight-curve $834 -1 $-1 2.5 0 0.78100000000000003 0 1 0 I I #
model_id-kcp-attrib $-1 -1 $835 $-1 $733 1 1021392983 1021392983 796196865 15 #
cone-surface $836 -1 $-1 2.0939999999999999 0 0.78100000000000003 0 1 0 0.40600000000000003 0 0 1 I I 0 1 0.40600000000000003 forward I I I I #
cur-twe-attrib $-1 -1 $-1 $-1 $737 279 #
face_name-twe-attrib $-1 -1 $-1 $738 $663 15 #
model_id-kcp-attrib $-1 -1 $837 $-1 $739 1 1021392983 1021392983 796196865 17 #
loop $838 -1 $-1 $839 $812 $739 #
cone-surface $840 -1 $-1 1.5 -1.3999999999999999 2.8999999999999999 0 0 -1 -0.25 0 0 1 I I 0 1 0.25 forward I I I I #
surf-twe-attrib $-1 -1 $-1 $-1 $740 281 #
edge $841 -1 $-1 $763 -2 $744 0 $785 $842 forward @7 unknown #
point $-1 -1 $-1 2.0939999999999999 0 2.125 #
cur-twe-attrib $-1 -1 $-1 $-1 $745 285 #
edge_name-twe-attrib $-1 -1 $-1 $-1 $746 23 20480 #
straight-curve $843 -1 $-1 0.90600000000000003 0 2.125 -1.11022302462516e-016 1 0 I I #
cur-twe-attrib $-1 -1 $-1 $-1 $750 291 #
face_name-twe-attrib $-1 -1 $-1 $754 $688 13 #
surf-twe-attrib $-1 -1 $-1 $-1 $755 299 #
loop_type-twe-attrib $-1 -1 $-1 $758 $692 1 #
coedge $-1 -1 $-1 $812 $812 $759 $813 reversed $800 $-1 #
edge $844 -1 $-1 $845 -3.1415926535897931 $845 3.1415926535897931 $812 $846 forward @7 unknown #
attrib_edge_convexity-kcp-attrib $-1 -1 $847 $-1 $761 2 #
ellipse-curve $848 -1 $-1 2.0939999999999999 -2 1.7190000000000001 0 -1 0 0 0 0.40600000000000003 1 I I #
convexity-sys-attrib $-1 -1 $849 $762 $696 #
point $-1 -1 $-1 2.0939999999999999 -2 2.125 #
cur-twe-attrib $-1 -1 $-1 $-1 $764 307 #
edge_name-twe-attrib $-1 -1 $-1 $765 $628 19 4608 #
convexity-sys-attrib $-1 -1 $850 $769 $704 #
point $-1 -1 $-1 2.5 -2 1.7190000000000001 #
cur-twe-attrib $-1 -1 $-1 $-1 $771 314 #
edge_name-twe-attrib $-1 -1 $-1 $772 $634 31 4608 #
attrib_edge_convexity-kcp-attrib $-1 -1 $851 $-1 $780 1 #
vertex $-1 -1 $-1 $780 $852 #
ellipse-curve $853 -1 $-1 2.5 -1.3999999999999999 1.3999999999999999 1 0 0 0 0.25 0 1 I I #
loop_type-twe-attrib $-1 -1 $-1 $781 $719 1 #
coedge $-1 -1 $-1 $828 $828 $782 $829 forward $839 $-1 #
edge $854 -1 $-1 $855 -3.1415926535897931 $855 3.1415926535897931 $782 $856 forward @7 unknown #
cur-twe-attrib $-1 -1 $-1 $-1 $787 330 #
edge_name-twe-attrib $-1 -1 $-1 $-1 $788 29 20480 #
straight-curve $857 -1 $-1 2.5 0 1.7190000000000001 0 1 -1.11022302462516e-016 I I #
model_id-kcp-attrib $-1 -1 $858 $-1 $790 1 1021392983 1021392983 796196865 29 #
cur-twe-attrib $-1 -1 $-1 $-1 $794 337 #
face_name-twe-attrib $-1 -1 $-1 $795 $733 14 #
surf-twe-attrib $-1 -1 $-1 $-1 $796 339 #
face_name-twe-attrib $-1 -1 $-1 $799 $739 16 #
model_id-kcp-attrib $-1 -1 $859 $-1 $800 1 1021392983 1021392983 796196865 22 #
loop $860 -1 $-1 $-1 $828 $739 #
surf-twe-attrib $-1 -1 $-1 $-1 $801 345 #
edge_name-twe-attrib $-1 -1 $-1 $-1 $803 26 20480 #
straight-curve $861 -1 $-1 2.0939999999999999 0 2.125 0 1 0 I I #
cur-twe-attrib $-1 -1 $-1 $-1 $807 352 #
attrib_edge_convexity-kcp-attrib $-1 -1 $862 $-1 $813 1 #
vertex $-1 -1 $-1 $813 $863 #
ellipse-curve $864 -1 $-1 1.5 -1.3999999999999999 2.125 0 0 1 0.25 0 0 1 I I #
convexity-sys-attrib $-1 -1 $865 $814 $761 #
cur-twe-attrib $-1 -1 $-1 $-1 $815 366 #
edge_name-twe-attrib $-1 -1 $-1 $816 $696 22 4608 #
edge_name-twe-attrib $-1 -1 $-1 $820 $704 28 4608 #
convexity-sys-attrib $-1 -1 $866 $824 $780 #
point $-1 -1 $-1 2.5 -1.6499999999999999 1.3999999999999999 #
cur-twe-attrib $-1 -1 $-1 $-1 $826 379 #
attrib_edge_convexity-kcp-attrib $-1 -1 $867 $-1 $829 1 #
vertex $-1 -1 $-1 $829 $868 #
ellipse-curve $869 -1 $-1 1.5 -1.3999999999999999 2.5249999999999999 0 0 1 0.25 0 0 1 I I #
cur-twe-attrib $-1 -1 $-1 $-1 $832 386 #
loop_type-twe-attrib $-1 -1 $-1 $833 $790 1 #
loop_type-twe-attrib $-1 -1 $-1 $838 $800 0 #
model_id-kcp-attrib $-1 -1 $870 $-1 $839 1 1021392983 1021392983 796196865 23 #
cur-twe-attrib $-1 -1 $-1 $-1 $842 400 #
convexity-sys-attrib $-1 -1 $871 $844 $813 #
point $-1 -1 $-1 1.25 -1.3999999999999999 2.125 #
cur-twe-attrib $-1 -1 $-1 $-1 $846 408 #
edge_name-twe-attrib $-1 -1 $-1 $847 $761 25 4608 #
edge_name-twe-attrib $-1 -1 $-1 $851 $780 38 8704 #
convexity-sys-attrib $-1 -1 $872 $854 $829 #
point $-1 -1 $-1 1.25 -1.3999999999999999 2.5249999999999999 #
cur-twe-attrib $-1 -1 $-1 $-1 $856 419 #
loop_type-twe-attrib $-1 -1 $-1 $860 $839 1 #
edge_name-twe-attrib $-1 -1 $-1 $862 $813 37 8704 #
edge_name-twe-attrib $-1 -1 $-1 $867 $829 41 8704 #
End-of-ACIS-data 