  0
SECTION
  2
HEADER
  9
$ACADVER
  1
AC1009
  9
$INSBASE
 10
0.0
 20
0.0
 30
0.0
  9
$EXTMIN
 10
0.0
 20
0.0
 30
0.0
  9
$EXTMAX
 10
3.0
 20
3.0
 30
3.0
  9
$LIMMIN
 10
0.0
 20
0.0
  9
$LIMMAX
 10
12.0
 20
9.0
  9
$ORTHOMODE
 70
     0
  9
$REGENMODE
 70
     1
  9
$FILLMODE
 70
     1
  9
$QTEXTMODE
 70
     0
  9
$MIRRTEXT
 70
     1
  9
$DRAGMODE
 70
     2
  9
$LTSCALE
 40
1.0
  9
$OSMODE
 70
     0
  9
$ATTMODE
 70
     1
  9
$TEXTSIZE
 40
0.2
  9
$TRACEWID
 40
0.05
  9
$TEXTSTYLE
  7
STANDARD
  9
$CLAYER
  8
0
  9
$CELTYPE
  6
BYLAYER
  9
$CECOLOR
 62
   256
  9
$DIMSCALE
 40
1.0
  9
$DIMASZ
 40
0.18
  9
$DIMEXO
 40
0.0625
  9
$DIMDLI
 40
0.38
  9
$DIMRND
 40
0.0
  9
$DIMDLE
 40
0.0
  9
$DIMEXE
 40
0.18
  9
$DIMTP
 40
0.0
  9
$DIMTM
 40
0.0
  9
$DIMTXT
 40
0.18
  9
$DIMCEN
 40
0.09
  9
$DIMTSZ
 40
0.0
  9
$DIMTOL
 70
     0
  9
$DIMLIM
 70
     0
  9
$DIMTIH
 70
     1
  9
$DIMTOH
 70
     1
  9
$DIMSE1
 70
     0
  9
$DIMSE2
 70
     0
  9
$DIMTAD
 70
     0
  9
$DIMZIN
 70
     0
  9
$DIMBLK
  1

  9
$DIMASO
 70
     1
  9
$DIMSHO
 70
     1
  9
$DIMPOST
  1

  9
$DIMAPOST
  1

  9
$DIMALT
 70
     0
  9
$DIMALTD
 70
     2
  9
$DIMALTF
 40
25.4
  9
$DIMLFAC
 40
1.0
  9
$DIMTOFL
 70
     0
  9
$DIMTVP
 40
0.0
  9
$DIMTIX
 70
     0
  9
$DIMSOXD
 70
     0
  9
$DIMSAH
 70
     0
  9
$DIMBLK1
  1

  9
$DIMBLK2
  1

  9
$DIMSTYLE
  2
*UNNAMED
  9
$DIMCLRD
 70
     0
  9
$DIMCLRE
 70
     0
  9
$DIMCLRT
 70
     0
  9
$DIMTFAC
 40
1.0
  9
$DIMGAP
 40
0.09
  9
$LUNITS
 70
     2
  9
$LUPREC
 70
     4
  9
$SKETCHINC
 40
0.1
  9
$FILLETRAD
 40
0.0
  9
$AUNITS
 70
     0
  9
$AUPREC
 70
     0
  9
$MENU
  1
acad
  9
$ELEVATION
 40
0.0
  9
$PELEVATION
 40
0.0
  9
$THICKNESS
 40
0.0
  9
$LIMCHECK
 70
     0
  9
$BLIPMODE
 70
     1
  9
$CHAMFERA
 40
0.0
  9
$CHAMFERB
 40
0.0
  9
$SKPOLY
 70
     0
  9
$TDCREATE
 40
2449202.599228773
  9
$TDUPDATE
 40
2449202.602819988
  9
$TDINDWG
 40
0.0035912153
  9
$TDUSRTIMER
 40
0.0035912153
  9
$USRTIMER
 70
     1
  9
$ANGBASE
 50
0.0
  9
$ANGDIR
 70
     0
  9
$PDMODE
 70
     0
  9
$PDSIZE
 40
0.0
  9
$PLINEWID
 40
0.0
  9
$COORDS
 70
     0
  9
$SPLFRAME
 70
     0
  9
$SPLINETYPE
 70
     6
  9
$SPLINESEGS
 70
     8
  9
$ATTDIA
 70
     0
  9
$ATTREQ
 70
     1
  9
$HANDLING
 70
     1
  9
$HANDSEED
  5
5C
  9
$SURFTAB1
 70
     6
  9
$SURFTAB2
 70
     6
  9
$SURFTYPE
 70
     6
  9
$SURFU
 70
     6
  9
$SURFV
 70
     6
  9
$UCSNAME
  2

  9
$UCSORG
 10
0.0
 20
0.0
 30
0.0
  9
$UCSXDIR
 10
1.0
 20
0.0
 30
0.0
  9
$UCSYDIR
 10
0.0
 20
1.0
 30
0.0
  9
$PUCSNAME
  2

  9
$PUCSORG
 10
0.0
 20
0.0
 30
0.0
  9
$PUCSXDIR
 10
1.0
 20
0.0
 30
0.0
  9
$PUCSYDIR
 10
0.0
 20
1.0
 30
0.0
  9
$USERI1
 70
     0
  9
$USERI2
 70
     0
  9
$USERI3
 70
     0
  9
$USERI4
 70
     0
  9
$USERI5
 70
     0
  9
$USERR1
 40
0.0
  9
$USERR2
 40
0.0
  9
$USERR3
 40
0.0
  9
$USERR4
 40
0.0
  9
$USERR5
 40
0.0
  9
$WORLDVIEW
 70
     1
  9
$SHADEDGE
 70
     3
  9
$SHADEDIF
 70
    70
  9
$TILEMODE
 70
     1
  9
$MAXACTVP
 70
    16
  9
$PINSBASE
 10
0.0
 20
0.0
 30
0.0
  9
$PLIMCHECK
 70
     0
  9
$PEXTMIN
 10
1.000000E+20
 20
1.000000E+20
 30
1.000000E+20
  9
$PEXTMAX
 10
-1.000000E+20
 20
-1.000000E+20
 30
-1.000000E+20
  9
$PLIMMIN
 10
0.0
 20
0.0
  9
$PLIMMAX
 10
12.0
 20
9.0
  9
$UNITMODE
 70
     0
  9
$VISRETAIN
 70
     0
  9
$PLINEGEN
 70
     0
  9
$PSLTSCALE
 70
     0
  9
$TREEDEPTH
 70
  3020
  9
$DWGCODEPAGE
  3
undefined
  0
ENDSEC
  0
SECTION
  2
TABLES
  0
TABLE
  2
VPORT
 70
     2
  0
VPORT
  2
*ACTIVE
 70
     0
 10
0.0
 20
0.0
 11
1.0
 21
1.0
 12
7.176972
 22
4.5
 13
0.0
 23
0.0
 14
1.0
 24
1.0
 15
0.0
 25
0.0
 16
0.0
 26
0.0
 36
1.0
 17
0.0
 27
0.0
 37
0.0
 40
9.0
 41
1.594883
 42
50.0
 43
0.0
 44
0.0
 50
0.0
 51
0.0
 71
     0
 72
   100
 73
     1
 74
     1
 75
     0
 76
     0
 77
     0
 78
     0
  0
ENDTAB
  0
TABLE
  2
LTYPE
 70
     1
  0
LTYPE
  2
CONTINUOUS
 70
    64
  3
Solid line
 72
    65
 73
     0
 40
0.0
  0
ENDTAB
  0
TABLE
  2
LAYER
 70
     2
  0
LAYER
  2
0
 70
    64
 62
     7
  6
CONTINUOUS
  0
LAYER
  2
AME_FRZ
 70
    65
 62
     7
  6
CONTINUOUS
  0
ENDTAB
  0
TABLE
  2
STYLE
 70
     1
  0
STYLE
  2
STANDARD
 70
     0
 40
0.0
 41
1.0
 50
0.0
 71
     0
 42
0.2
  3
txt
  4

  0
ENDTAB
  0
TABLE
  2
VIEW
 70
     0
  0
ENDTAB
  0
TABLE
  2
UCS
 70
     0
  0
ENDTAB
  0
TABLE
  2
APPID
 70
     2
  0
APPID
  2
ACAD
 70
    64
  0
APPID
  2
AME_SOL
 70
    64
  0
ENDTAB
  0
TABLE
  2
DIMSTYLE
 70
     0
  0
ENDTAB
  0
ENDSEC
  0
SECTION
  2
BLOCKS
  0
BLOCK
  8
0
  5
1
  2
AME_NIL
 70
    64
 10
0.0
 20
0.0
 30
0.0
  1
AME_NIL
  3
AME_NIL
  0
ENDBLK
  8
0
  5
2
  0
BLOCK
  8
0
  5
4
  2
AME_SOL
 70
    64
 10
0.0
 20
0.0
 30
0.0
  1
AME_SOL
  3
AME_SOL
  0
ENDBLK
  8
0
  5
5
  0
BLOCK
  8
0
  5
7
  2
*U2
 70
    65
 10
0.0
 20
0.0
 30
0.0
  1
*U
  3
*U
  0
LINE
  8
0
 62
     0
  5
8
 10
3.0
 20
3.0
 30
0.0
 11
3.0
 21
3.0
 31
3.0
1001
AME_SOL
1070
     1
1071
       18
  0
LINE
  8
0
 62
     0
  5
9
 10
3.0
 20
3.0
 30
3.0
 11
3.0
 21
0.0
 31
3.0
1001
AME_SOL
1070
     1
1071
       17
  0
LINE
  8
0
 62
     0
  5
A
 10
0.0
 20
3.0
 30
3.0
 11
3.0
 21
3.0
 31
3.0
1001
AME_SOL
1070
     1
1071
       16
  0
LINE
  8
0
 62
     0
  5
B
 10
0.0
 20
3.0
 30
0.0
 11
0.0
 21
3.0
 31
3.0
1001
AME_SOL
1070
     1
1071
       15
  0
LINE
  8
0
 62
     0
  5
C
 10
0.0
 20
3.0
 30
3.0
 11
0.0
 21
0.0
 31
3.0
1001
AME_SOL
1070
     1
1071
       14
  0
LINE
  8
0
 62
     0
  5
D
 10
0.0
 20
0.0
 30
0.0
 11
0.0
 21
0.0
 31
3.0
1001
AME_SOL
1070
     1
1071
       13
  0
LINE
  8
0
 62
     0
  5
E
 10
3.0
 20
0.0
 30
3.0
 11
3.0
 21
0.0
 31
0.0
1001
AME_SOL
1070
     1
1071
       12
  0
LINE
  8
0
 62
     0
  5
F
 10
0.0
 20
0.0
 30
3.0
 11
3.0
 21
0.0
 31
3.0
1001
AME_SOL
1070
     1
1071
       11
  0
LINE
  8
0
 62
     0
  5
10
 10
0.0
 20
0.0
 30
0.0
 11
3.0
 21
0.0
 31
0.0
1001
AME_SOL
1070
     1
1071
       10
  0
LINE
  8
0
 62
     0
  5
11
 10
0.0
 20
3.0
 30
0.0
 11
0.0
 21
0.0
 31
0.0
1001
AME_SOL
1070
     1
1071
        9
  0
LINE
  8
0
 62
     0
  5
12
 10
3.0
 20
0.0
 30
0.0
 11
3.0
 21
3.0
 31
0.0
1001
AME_SOL
1070
     1
1071
        8
  0
LINE
  8
0
 62
     0
  5
13
 10
3.0
 20
3.0
 30
0.0
 11
0.0
 21
3.0
 31
0.0
1001
AME_SOL
1070
     1
1071
        7
  0
ENDBLK
  8
0
  5
14
  0
BLOCK
  8
0
  5
18
  2
*U3
 70
    65
 10
0.0
 20
0.0
 30
0.0
  1
*U
  3
*U
  0
LINE
  8
0
 62
     0
  5
19
 10
1.0
 20
1.0
 30
0.0
 11
1.0
 21
1.0
 31
3.0
1001
AME_SOL
1070
     1
1071
       18
  0
LINE
  8
0
 62
     0
  5
1A
 10
1.0
 20
1.0
 30
3.0
 11
1.0
 21
0.0
 31
3.0
1001
AME_SOL
1070
     1
1071
       17
  0
LINE
  8
0
 62
     0
  5
1B
 10
0.0
 20
1.0
 30
3.0
 11
1.0
 21
1.0
 31
3.0
1001
AME_SOL
1070
     1
1071
       16
  0
LINE
  8
0
 62
     0
  5
1C
 10
0.0
 20
1.0
 30
0.0
 11
0.0
 21
1.0
 31
3.0
1001
AME_SOL
1070
     1
1071
       15
  0
LINE
  8
0
 62
     0
  5
1D
 10
0.0
 20
1.0
 30
3.0
 11
0.0
 21
0.0
 31
3.0
1001
AME_SOL
1070
     1
1071
       14
  0
LINE
  8
0
 62
     0
  5
1E
 10
0.0
 20
0.0
 30
0.0
 11
0.0
 21
0.0
 31
3.0
1001
AME_SOL
1070
     1
1071
       13
  0
LINE
  8
0
 62
     0
  5
1F
 10
1.0
 20
0.0
 30
3.0
 11
1.0
 21
0.0
 31
0.0
1001
AME_SOL
1070
     1
1071
       12
  0
LINE
  8
0
 62
     0
  5
20
 10
0.0
 20
0.0
 30
3.0
 11
1.0
 21
0.0
 31
3.0
1001
AME_SOL
1070
     1
1071
       11
  0
LINE
  8
0
 62
     0
  5
21
 10
0.0
 20
0.0
 30
0.0
 11
1.0
 21
0.0
 31
0.0
1001
AME_SOL
1070
     1
1071
       10
  0
LINE
  8
0
 62
     0
  5
22
 10
0.0
 20
1.0
 30
0.0
 11
0.0
 21
0.0
 31
0.0
1001
AME_SOL
1070
     1
1071
        9
  0
LINE
  8
0
 62
     0
  5
23
 10
1.0
 20
0.0
 30
0.0
 11
1.0
 21
1.0
 31
0.0
1001
AME_SOL
1070
     1
1071
        8
  0
LINE
  8
0
 62
     0
  5
24
 10
1.0
 20
1.0
 30
0.0
 11
0.0
 21
1.0
 31
0.0
1001
AME_SOL
1070
     1
1071
        7
  0
ENDBLK
  8
0
  5
25
  0
BLOCK
  8
0
  5
29
  2
*U4
 70
    65
 10
0.0
 20
0.0
 30
0.0
  1
*U
  3
*U
  0
LINE
  8
0
 62
     0
  5
2A
 10
2.0
 20
1.0
 30
0.0
 11
2.0
 21
1.0
 31
3.0
1001
AME_SOL
1070
     1
1071
       18
  0
LINE
  8
0
 62
     0
  5
2B
 10
2.0
 20
1.0
 30
3.0
 11
2.0
 21
0.0
 31
3.0
1001
AME_SOL
1070
     1
1071
       17
  0
LINE
  8
0
 62
     0
  5
2C
 10
0.0
 20
1.0
 30
3.0
 11
2.0
 21
1.0
 31
3.0
1001
AME_SOL
1070
     1
1071
       16
  0
LINE
  8
0
 62
     0
  5
2D
 10
0.0
 20
1.0
 30
0.0
 11
0.0
 21
1.0
 31
3.0
1001
AME_SOL
1070
     1
1071
       15
  0
LINE
  8
0
 62
     0
  5
2E
 10
0.0
 20
1.0
 30
3.0
 11
0.0
 21
0.0
 31
3.0
1001
AME_SOL
1070
     1
1071
       14
  0
LINE
  8
0
 62
     0
  5
2F
 10
0.0
 20
0.0
 30
0.0
 11
0.0
 21
0.0
 31
3.0
1001
AME_SOL
1070
     1
1071
       13
  0
LINE
  8
0
 62
     0
  5
30
 10
2.0
 20
0.0
 30
3.0
 11
2.0
 21
0.0
 31
0.0
1001
AME_SOL
1070
     1
1071
       12
  0
LINE
  8
0
 62
     0
  5
31
 10
0.0
 20
0.0
 30
3.0
 11
2.0
 21
0.0
 31
3.0
1001
AME_SOL
1070
     1
1071
       11
  0
LINE
  8
0
 62
     0
  5
32
 10
0.0
 20
0.0
 30
0.0
 11
2.0
 21
0.0
 31
0.0
1001
AME_SOL
1070
     1
1071
       10
  0
LINE
  8
0
 62
     0
  5
33
 10
0.0
 20
1.0
 30
0.0
 11
0.0
 21
0.0
 31
0.0
1001
AME_SOL
1070
     1
1071
        9
  0
LINE
  8
0
 62
     0
  5
34
 10
2.0
 20
0.0
 30
0.0
 11
2.0
 21
1.0
 31
0.0
1001
AME_SOL
1070
     1
1071
        8
  0
LINE
  8
0
 62
     0
  5
35
 10
2.0
 20
1.0
 30
0.0
 11
0.0
 21
1.0
 31
0.0
1001
AME_SOL
1070
     1
1071
        7
  0
ENDBLK
  8
0
  5
36
  0
BLOCK
  8
0
  5
3C
  2
*U5
 70
    65
 10
0.0
 20
0.0
 30
0.0
  1
*U
  3
*U
  0
LINE
  8
0
 62
     7
  5
3D
 10
3.0
 20
2.0
 30
3.0
 11
3.0
 21
0.0
 31
3.0
1001
AME_SOL
1070
     1
1071
       34
  0
LINE
  8
0
 62
     7
  5
3E
 10
0.0
 20
3.0
 30
3.0
 11
1.0
 21
3.0
 31
3.0
1001
AME_SOL
1070
     1
1071
       33
  0
LINE
  8
0
 62
     7
  5
3F
 10
0.0
 20
3.0
 30
0.0
 11
0.0
 21
3.0
 31
3.0
1001
AME_SOL
1070
     1
1071
       32
  0
LINE
  8
0
 62
     7
  5
40
 10
0.0
 20
3.0
 30
3.0
 11
0.0
 21
0.0
 31
3.0
1001
AME_SOL
1070
     1
1071
       31
  0
LINE
  8
0
 62
     7
  5
41
 10
0.0
 20
0.0
 30
0.0
 11
0.0
 21
0.0
 31
3.0
1001
AME_SOL
1070
     1
1071
       30
  0
LINE
  8
0
 62
     7
  5
42
 10
3.0
 20
0.0
 30
3.0
 11
3.0
 21
0.0
 31
0.0
1001
AME_SOL
1070
     1
1071
       29
  0
LINE
  8
0
 62
     7
  5
43
 10
0.0
 20
0.0
 30
3.0
 11
3.0
 21
0.0
 31
3.0
1001
AME_SOL
1070
     1
1071
       28
  0
LINE
  8
0
 62
     7
  5
44
 10
0.0
 20
0.0
 30
0.0
 11
3.0
 21
0.0
 31
0.0
1001
AME_SOL
1070
     1
1071
       27
  0
LINE
  8
0
 62
     7
  5
45
 10
0.0
 20
3.0
 30
0.0
 11
0.0
 21
0.0
 31
0.0
1001
AME_SOL
1070
     1
1071
       26
  0
LINE
  8
0
 62
     7
  5
46
 10
3.0
 20
0.0
 30
0.0
 11
3.0
 21
2.0
 31
0.0
1001
AME_SOL
1070
     1
1071
       25
  0
LINE
  8
0
 62
     7
  5
47
 10
1.0
 20
3.0
 30
0.0
 11
0.0
 21
3.0
 31
0.0
1001
AME_SOL
1070
     1
1071
       24
  0
LINE
  8
0
 62
     7
  5
48
 10
2.0
 20
2.0
 30
0.0
 11
2.0
 21
1.0
 31
0.0
1001
AME_SOL
1070
     1
1071
       23
  0
LINE
  8
0
 62
     7
  5
49
 10
2.0
 20
1.0
 30
3.0
 11
2.0
 21
2.0
 31
3.0
1001
AME_SOL
1070
     1
1071
       22
  0
LINE
  8
0
 62
     7
  5
4A
 10
1.0
 20
1.0
 30
0.0
 11
1.0
 21
3.0
 31
0.0
1001
AME_SOL
1070
     1
1071
       21
  0
LINE
  8
0
 62
     7
  5
4B
 10
1.0
 20
3.0
 30
0.0
 11
1.0
 21
3.0
 31
3.0
1001
AME_SOL
1070
     1
1071
       20
  0
LINE
  8
0
 62
     7
  5
4C
 10
1.0
 20
3.0
 30
3.0
 11
1.0
 21
1.0
 31
3.0
1001
AME_SOL
1070
     1
1071
       19
  0
LINE
  8
0
 62
     7
  5
4D
 10
2.0
 20
1.0
 30
0.0
 11
1.0
 21
1.0
 31
0.0
1001
AME_SOL
1070
     1
1071
       18
  0
LINE
  8
0
 62
     7
  5
4E
 10
1.0
 20
1.0
 30
0.0
 11
1.0
 21
1.0
 31
3.0
1001
AME_SOL
1070
     1
1071
       17
  0
LINE
  8
0
 62
     7
  5
4F
 10
1.0
 20
1.0
 30
3.0
 11
2.0
 21
1.0
 31
3.0
1001
AME_SOL
1070
     1
1071
       16
  0
LINE
  8
0
 62
     7
  5
50
 10
2.0
 20
1.0
 30
3.0
 11
2.0
 21
1.0
 31
0.0
1001
AME_SOL
1070
     1
1071
       15
  0
LINE
  8
0
 62
     7
  5
51
 10
3.0
 20
2.0
 30
0.0
 11
2.0
 21
2.0
 31
0.0
1001
AME_SOL
1070
     1
1071
       14
  0
LINE
  8
0
 62
     7
  5
52
 10
3.0
 20
2.0
 30
3.0
 11
3.0
 21
2.0
 31
0.0
1001
AME_SOL
1070
     1
1071
       13
  0
LINE
  8
0
 62
     7
  5
53
 10
2.0
 20
2.0
 30
3.0
 11
3.0
 21
2.0
 31
3.0
1001
AME_SOL
1070
     1
1071
       12
  0
LINE
  8
0
 62
     7
  5
54
 10
2.0
 20
2.0
 30
3.0
 11
2.0
 21
2.0
 31
0.0
1001
AME_SOL
1070
     1
1071
       11
  0
ENDBLK
  8
0
  5
55
  0
BLOCK
  8
0
  5
59
  2
AME_MAT
 70
    64
 10
0.0
 20
0.0
 30
0.0
  1
AME_MAT
  3
AME_MAT
  0
ENDBLK
  8
0
  5
5A
  0
ENDSEC
  0
SECTION
  2
ENTITIES
  0
INSERT
  8
AME_FRZ
  5
3
  2
AME_NIL
 10
0.0
 20
0.0
 30
0.0
  0
INSERT
  8
AME_FRZ
  5
6
  2
AME_SOL
 10
0.0
 20
0.0
 30
0.0
1001
AME_SOL
1000
1.0
1000
sq cm
1070
     3
1070
     0
1070
     3
1000
wire
1040
0.0
1000
NONE
1040
1.0
1000
cm
1000
gm
1000
MILD_STEEL
1070
    25
1000
CSG
1070
     3
1070
     2
1070
     3
1000
cu cm
1070
     4
1070
     0
1005
3
  0
INSERT
  8
AME_FRZ
  5
15
  2
*U2
 10
0.0
 20
0.0
 30
0.0
1001
AME_SOL
1002
{
1070
     0
1071
  1991608
1070
  1536
1010
3.0
1020
3.0
1030
3.0
1005
0
1005
0
1005
56
1040
0.0
1040
1.0
1000
MILD_STEEL
1000
0
1010
0.0
1020
0.0
1030
0.0
1010
0.0
1020
0.0
1030
1.0
1040
0.0
1002
}
  0
INSERT
  8
AME_FRZ
  5
26
  2
*U3
 10
1.0
 20
1.0
 30
0.0
1001
AME_SOL
1002
{
1070
     0
1071
  2045296
1070
  1536
1010
1.0
1020
1.0
1030
3.0
1005
0
1005
0
1005
3A
1040
0.0
1040
1.0
1000
MILD_STEEL
1000
0
1010
1.0
1020
1.0
1030
0.0
1010
0.0
1020
0.0
1030
1.0
1040
0.0
1002
}
  0
INSERT
  8
AME_FRZ
  5
37
  2
*U4
 10
1.0
 20
2.0
 30
0.0
1001
AME_SOL
1002
{
1070
     0
1071
  1860560
1070
  1536
1010
2.0
1020
1.0
1030
3.0
1005
0
1005
0
1005
3A
1040
0.0
1040
1.0
1000
MILD_STEEL
1000
0
1010
1.0
1020
2.0
1030
0.0
1010
0.0
1020
0.0
1030
1.0
1040
0.0
1002
}
  0
INSERT
  8
AME_FRZ
  5
3A
  2
AME_NIL
 10
0.0
 20
0.0
 30
0.0
1001
AME_SOL
1002
{
1070
     0
1071
  1953800
1070
   775
1070
     2
1005
26
1005
37
1005
0
1005
0
1005
56
1040
0.0
1040
1.0
1000
MILD_STEEL
1000
0
1010
0.0
1020
0.0
1030
0.0
1010
0.0
1020
0.0
1030
1.0
1040
0.0
1002
}
  0
INSERT
  8
0
  5
56
  2
*U5
 10
0.0
 20
0.0
 30
0.0
1001
AME_SOL
1002
{
1070
     0
1071
  1972176
1070
  1543
1070
     0
1005
15
1005
3A
1005
0
1005
57
1005
0
1040
0.0
1040
1.0
1000
MILD_STEEL
1000
0
1002
}
  0
INSERT
  8
AME_FRZ
  5
57
  2
AME_NIL
 10
1.0
 20
1.0
 30
1.0
1001
AME_SOL
1004
E903A9FB0100F0FFFFFF000052F70A0001000000E14626BAE14626BAE14626BA650A4040650A4040650A404001000000FBF2040011E27F3F09F1FF3F5077EFB97B0740407B0700407B0740400100844E28EF1E00FFFF0000010031010000844E00000000803F000000000000000000000000000000000000
1004
803F0000803F000000400000000005000000000000000000000000000000000000000000844E000000000000000000000000803F000080BF0000008000000080000000400000004000004040050000000000000000000000000000000000FFFFFFFFFBF2040078E57F3F78E57F3F9443D4B9A2060040440D
1004
803FA20640400100844EC0F51E00FFFF0000010095010000844E00000000803F000000000000000000000000000000000000803F0000803F0000803F0000000005000000000000000000000000000000000000000000844E00000000803F000000000000000000000000000000000000803F0000803F0000
1004
803F00000000050000000000000000000000000000000000FFFFFFFFFBF2040011E27F3F09F1FF3F5077EFB9F80E803F7D0740407B0740400100844EF8FC1E00FFFF0000020030010000844E000000000000000000000000803F000000000000803F000000000000803F0000004000000000050000000000
1004
0000000000000000000000000000000094010000844E000000000000000000000000803F000000000000803F000000000000803F0000803F0000000005000000000000000000000000000000000000000000844E000000000000000000000000803F000000000000803F000000000000803F0000803F0000
1004
0000050000000000000000000000000000000000FFFFFFFFFBF20400BCF2FF3F78E57F3F9443D4B9A2060040A2060040A20640400100844E581E1F00FFFF0000010091010000844E000000000080000080BF000000800000008000000080000080BF00000040000000400000404005000000000000000000
1004
000000000000000000000000844E000000000080000080BF000000800000008000000080000080BF000000400000004000004040050000000000000000000000000000000000FFFFFFFFFBF20800E14626BAE14626BAE14626BA650A4040650A4040E146263A0100844EA00C1F00010000000100FA010000
1004
844E0000000000000000803F000000000000803F000000000000000000000000000000000000000005000000000000000000000000000000000000000000844E0000000000000000803F000000000000803F0000000000000000000000000000000000000000050000000000000000000000000000000000
1004
01000000FBF20400E14626BAE14626BAE14626BA650A4040E146263A650A40400100844EF8E91D00010000000100F9010000844E00000000803F000000000000000000000000000000000000803F00000000000000000000000005000000000000000000000000000000000000000000844E00000000803F
1004
000000000000000000000000000000000000803F00000000000000000000000005000000000000000000000000000000000001000000FBF20400E14626BAE14626BAE14626BAE146263A650A4040650A40400100844EE8BE1D00010000000100F8010000844E000000000000000000000000803F00000000
1004
0000803F0000000000000000000000000000000005000000000000000000000000000000000000000000844E000000000000000000000000803F000000000000803F0000000000000000000000000000000005000000000000000000000000000000000001000000FBF20800E14626BAE14626BA9BF53F40
1004
650A4040650A4040650A40400100844E08C01D00010000000100F7010000844E0000000080BF000000800000008000000080000080BF0000008000004040000040400000404005000000000000000000000000000000000000000000844E0000000080BF000000800000008000000080000080BF00000080
1004
00004040000040400000404005000000000000000000000000000000000001000000FBF20400E14626BA9BF53F40E14626BA650A4040650A4040650A40400100844E78BF1D00010000000100F6010000844E00000000008000000080000080BF000080BF0000008000000080000040400000404000004040
1004
05000000000000000000000000000000000000000000844E00000000008000000080000080BF000080BF000000800000008000004040000040400000404005000000000000000000000000000000000001000000FBF204009BF53F40E14626BAE14626BA650A4040650A4040650A40400100844E28C11D00
1004
010000000100F5010000844E000000000080000080BF000000800000008000000080000080BF00004040000040400000404005000000000000000000000000000000000000000000844E000000000080000080BF000000800000008000000080000080BF0000404000004040000040400500000000000000
1004
0000000000000000000001000000A4EEBCF2FF3F09F1FF3F9443D4B9A2060040A2060040A206404000000000000040400200967588131F000000FFFF010028EF1E00581E1F000000020028EF1E00581E1F00FFFFFFFFFFFFFFFF967500000000803F000000000000000000000000000080BF000000000000
1004
0040000000400000404002000000000000004040A4EE11E27F3F09F1FF3F9BF53F407B0740407B0700407B074040010000BFFCFFFF3E0200967580151F0000000100FFFF28EF1E0008C01D000000020008C01D0028EF1E0001000000FFFFFFFF9675000000000000000000000000803F00000000000080BF
1004
000000000000204000000040000040400200010000BFFCFFFF3EA4EE9BF53F4009F1FF3F5077EFB97B0740407B0700407B07404000000000000040400200967540131F0000000100FFFF28EF1E0028C11D000000020028C11D0028EF1E0001000000FFFFFFFF967500000000803F00000000000000000000
1004
0000000080BF0000000000004040000000400000404002000000000000004040A4EE11E27F3F09F1FF3F5077EFB97B0740407B070040E146263AFFFFFFBF000080BF02009675D80B1F0000000100FFFF28EF1E00A00C1F0000000200A00C1F0028EF1E0001000000FFFFFFFF967500000000000000000000
1004
000080BF00000000000080BF000000000000803F00000040000000000200FFFFFFBF000080BFA4EEBCF2FF3F78E57F3F9443D4B9A2060040440D803FA20640400000C0BF0000C03F02009675E8BA1D0000000100FFFFC0F51E00581E1F0000000200581E1F00C0F51E00FFFFFFFFFFFFFFFF967500000000
1004
803F000000000000000000000000000080BF00000000000000400000803F0000C03F02000000C0BF0000C03FA4EE78E57F3F78E57F3F9BF53F40A2060040440D803FA2064040000080BF0000008002009675C8C21D0000000100FFFFC0F51E0008C01D000000020008C01D00C0F51E0001000000FFFFFFFF
1004
9675000000000000000000000000803F00000000000080BF00000000000000400100803F000040400200000080BF00000080A4EE78E57F3F78E57F3F9443D4B9440D803F440D803FA206404000000000000040400200967568C51D0000000100FFFFC0F51E00F8FC1E0000000200F8FC1E00C0F51E00FFFF
1004
FFFFFFFFFFFF96750000000080BF000000000000000000000000000080BF000000000000803F0000803F0000000002000000000000004040A4EE78E57F3F78E57F3F9443D4B9A2060040440D803FE146263A0000C0BF000000BF0200967538C81D0000000100FFFFC0F51E00A00C1F0000000200A00C1F00
1004
C0F51E0001000000FFFFFFFF967500000000000000000000000080BF00000000000080BF000000000000003F0000803F0000000002000000C0BF000000BFA4EE11E27F3F78E57F3F9BF53F40F80E803F7D0740407B074040FFFF7FBF0000803F0200967558C91D0000000100FFFFF8FC1E0008C01D000000
1004
020008C01D00F8FC1E0001000000FFFFFFFF9675000000000000000000000000803F000080BF00000000000000000100803F00000040000040400200FFFF7FBF0000803FA4EE11E27F3F9BF53F405077EFB9F80E803F7D0740407B0740400000C0BF0000C03F02009675A8C71D0000000100FFFFF8FC1E00
1004
78BF1D000000020078BF1D00F8FC1E0001000000FFFFFFFF96750000000000000000803F00000000000080BF00000000000000000100803F000040400000C03F02000000C0BF0000C03FA4EE11E27F3F78E57F3F5077EFB9F80E803F7D074040E146263A0000003FFFFF1F4002009675B0C51D0000000100
1004
FFFFF8FC1E00A00C1F0000000200A00C1F00F8FC1E0001000000FFFFFFFF967500000000000000000000000080BF000080BF00000000000000000000803F0000003F0000000002000000003FFFFF1F40A4EEBCF2FF3F78E57F3F9BF53F40A2060040A2060040A20640400000C0BF010000BF02009675B8C1
1004
1D0000000100FFFF581E1F0008C01D000000020008C01D00581E1F0001000000FFFFFFFF9675000000000000000000000000803F0000803F000000000000000000000040000020400000404002000000C0BF010000BFA4EEBCF2FF3F78E57F3F9443D4B9A2060040A2060040E146263A000080BF00000080
1004
02009675C0CA1D0000000100FFFF581E1F00A00C1F0000000200A00C1F00581E1F0001000000FFFFFFFF967500000000000000000000000080BF0000803F0000000000000000000000400000803F000000000200000080BF00000080A4EEE14626BA9BF53F40E14626BA650A4040650A4040E146263AFFFF
1004
FF3E0000C03F0200967508CB1D000000FFFF0100A00C1F0078BF1D0000000200A00C1F0078BF1D00010000000100000096750000000000000000803F000000000000000000000000000080BF0000C03F00004040000000000200FFFFFF3E0000C03FA4EE9BF53F40E14626BAE14626BA650A4040650A4040
1004
E146263A0000C0BF0100003F0200967588DB1D000000FFFF0100A00C1F0028C11D0000000200A00C1F0028C11D000100000001000000967500000000803F00000000000000000000000000000000000080BF000040400000C03F0000000002000000C0BF0100003FA4EEE14626BAE14626BAE14626BAE146
1004
263A650A4040E146263A000040C00000008002009675D0DB1D000000FFFF0100A00C1F00E8BE1D0000000200A00C1F00E8BE1D00010000000100000096750000000080BF00000000000000000000000000000000000080BF0000000000000000000000000200000040C000000080A4EEE14626BAE14626BA
1004
E14626BA650A4040E146263AE146263A000000000000404002009675F8DA1D000000FFFF0100A00C1F00F8E91D0000000200A00C1F00F8E91D0001000000010000009675000000000000000080BF000000000000000000000000000080BF00000000000000000000000002000000000000004040A4EEE146
1004
26BAE14626BA9BF53F40650A4040E146263A650A40400000C0BF0000C03F02009675A0DF1D000000FFFF0100F8E91D0008C01D0000000200F8E91D0008C01D0001000000010000009675000000000000000000000000803F00000000000080BF000000000000C03F000000000000404002000000C0BF0000
1004
C03FA4EE9BF53F40E14626BAE14626BA650A4040E146263A650A40400000C0BF0000C03F02009675C0E01D000000FFFF0100F8E91D0028C11D0000000200F8E91D0028C11D000100000001000000967500000000803F000000000000000000000000000080BF0000000000004040000000000000C03F0200
1004
0000C0BF0000C03FA4EEE14626BAE14626BAE14626BAE146263AE146263A650A404000000000000040400200967528E21D000000FFFF0100F8E91D00E8BE1D0000000200F8E91D00E8BE1D00010000000100000096750000000080BF000000000000000000000000000080BF000000000000000000000000
1004
0000000002000000000000004040A4EEE14626BAE14626BA9BF53F40E146263A650A4040650A40400000C0BF0000C03F0200967578E01D000000FFFF0100E8BE1D0008C01D0000000200E8BE1D0008C01D0001000000010000009675000000000000000000000000803F000080BF00000000000000000000
1004
00000000C03F0000404002000000C0BF0000C03FA4EEE14626BA9BF53F40E14626BAE146263A650A4040650A40400000C0BF0000C03F02009675C8DD1D000000FFFF0100E8BE1D0078BF1D0000000200E8BE1D0078BF1D00010000000100000096750000000000000000803F00000000000080BF00000000
1004
0000000000000000000040400000C03F02000000C0BF0000C03FA4EEE14626BA9BF53F409BF53F40650A4040650A4040650A4040000040C0FFFFFFBF0200967548CD1D000000FFFF010008C01D0078BF1D000000020008C01D0078BF1D00010000000100000096750000000000000000803F000000000000
1004
0000000000000000803F0000404000004040000040400200000040C0FFFFFFBFA4EE9BF53F40E14626BA9BF53F40650A4040650A4040650A4040FFFF7F3F000040400200967508321E000000FFFF010008C01D0028C11D000000020008C01D0028C11D000100000001000000967500000000803F00000000
1004
0000000000000080000000000000803F0000404000004040000040400200FFFF7F3F0000404019FC
1005
58
  0
INSERT
  8
AME_FRZ
  5
58
  2
AME_NIL
 10
1.0
 20
1.0
 30
1.0
1001
AME_SOL
1004

1005
0
  0
INSERT
  8
AME_FRZ
  5
5B
  2
AME_MAT
 10
0.0
 20
0.0
 30
0.0
1001
AME_SOL
1000
MILD_STEEL
1040
7860.0
1040
220.0
1040
0.275
1040
207.0
1040
345.0
1040
56.0
1040
12.0
1040
0.46
  0
ENDSEC
  0
EOF
