105 553 1 0                             
body $-1 $1 $-1 $-1 #
lump $-1 $-1 $2 $0 #
shell $-1 $-1 $-1 $3 $1 #
face $-1 $4 $5 $2 $-1 $6 reversed single #
face $-1 $7 $8 $2 $-1 $9 reversed single #
loop $-1 $-1 $10 $3 #
cone-surface $-1 15 15 0 0 0 1 15 0 0 1 0 1 0 #
face $-1 $11 $12 $2 $-1 $13 reversed single #
loop $-1 $-1 $14 $4 #
cone-surface $-1 5.49038105676649 -20.4903810567666 0 0 0 1 -7.50000000000006 -12.9903810567665 0 1 0 1 0 #
coedge $-1 $15 $16 $17 $18 1 $5 $-1 #
face $-1 $19 $20 $2 $-1 $21 reversed single #
loop $-1 $-1 $22 $7 #
cone-surface $-1 20.4903810567666 -5.49038105676663 0 0 0 1 7.49999999999997 -12.9903810567666 0 1 0 1 0 #
coedge $-1 $23 $24 $25 $26 1 $8 $-1 #
coedge $-1 $27 $10 $28 $29 0 $5 $-1 #
coedge $-1 $10 $30 $31 $32 1 $5 $-1 #
coedge $-1 $33 $34 $10 $18 0 $35 $-1 #
edge $-1 $36 $37 $17 $38 0 #
face $-1 $39 $40 $2 $-1 $41 reversed single #
loop $-1 $-1 $42 $11 #
cone-surface $-1 -5.49038105676663 20.4903810567666 0 0 0 1 7.49999999999997 12.9903810567666 0 1 0 1 0 #
coedge $-1 $43 $44 $45 $46 1 $12 $-1 #
coedge $-1 $47 $14 $48 $49 0 $8 $-1 #
coedge $-1 $14 $50 $51 $52 1 $8 $-1 #
coedge $-1 $53 $54 $14 $26 0 $55 $-1 #
edge $-1 $56 $57 $25 $58 0 #
coedge $-1 $59 $15 $60 $61 1 $5 $-1 #
coedge $-1 $42 $62 $15 $29 1 $20 $-1 #
edge $-1 $36 $63 $28 $64 0 #
coedge $-1 $16 $65 $66 $67 1 $5 $-1 #
coedge $-1 $68 $69 $16 $32 0 $70 $-1 #
edge $-1 $37 $71 $31 $72 0 #
coedge $-1 $73 $17 $69 $74 1 $35 $-1 #
coedge $-1 $17 $75 $42 $76 0 $35 $-1 #
loop $-1 $-1 $17 $77 #
vertex $-1 $18 $78 #
vertex $-1 $74 $79 #
ellipse-curve $-1 15 15 -3.00000000000005 -1.74574066942157e-15 0.500000000000001 -0.866025403784438 0 15 8.66025403784441 0.866025403784438 #
face $-1 $80 $81 $2 $-1 $82 reversed single #
loop $-1 $-1 $83 $19 #
cone-surface $-1 -20.4903810567666 5.49038105676649 0 0 0 1 -7.50000000000006 12.9903810567665 0 1 0 1 0 #
coedge $-1 $84 $28 $34 $76 1 $20 $-1 #
coedge $-1 $85 $22 $65 $86 1 $12 $-1 #
coedge $-1 $22 $87 $88 $89 1 $12 $-1 #
coedge $-1 $90 $66 $22 $46 0 $91 $-1 #
edge $-1 $92 $93 $45 $94 0 #
coedge $-1 $95 $23 $96 $97 1 $8 $-1 #
coedge $-1 $87 $85 $23 $49 1 $12 $-1 #
edge $-1 $56 $98 $48 $99 0 #
coedge $-1 $24 $95 $100 $101 1 $8 $-1 #
coedge $-1 $102 $103 $24 $52 0 $81 $-1 #
edge $-1 $57 $104 $24 $105 0 #
coedge $-1 $106 $25 $103 $107 0 $55 $-1 #
coedge $-1 $25 $108 $87 $109 0 $55 $-1 #
loop $-1 $-1 $54 $110 #
vertex $-1 $26 $111 #
vertex $-1 $107 $112 #
ellipse-curve $-1 5.49038105676649 -20.4903810567666 0.16987298107782 1.74574066942157e-15 -0.500000000000001 -0.866025403784438 5.06261699229071e-14 -15 8.66025403784441 0.866025403784438 #
coedge $-1 $113 $27 $114 $115 1 $5 $-1 #
coedge $-1 $116 $117 $27 $61 0 $118 $-1 #
edge $-1 $119 $63 $60 $120 0 #
coedge $-1 $28 $121 $116 $122 1 $20 $-1 #
vertex $-1 $61 $123 #
straight-curve $-1 7.49999999999996 27.9903810567666 0 -0 -0 -1 #
coedge $-1 $30 $113 $43 $86 0 $5 $-1 #
coedge $-1 $45 $124 $30 $67 0 $91 $-1 #
edge $-1 $71 $92 $66 $125 0 #
coedge $-1 $126 $31 $124 $127 0 $70 $-1 #
coedge $-1 $31 $126 $33 $74 0 $70 $-1 #
loop $-1 $-1 $31 $80 #
vertex $-1 $67 $128 #
intcurve-curve $-1 0 { surfintcur nubs 3 open 4 
	20.2835195465091 3 20.9068635128779 2 21.8491078621381 2 22.7913522113982 3 
	29.9550596978971 16.1602540378445 -2.33012701892219 
	29.9697597178378 15.9707785707453 -2.43952073085676 
	29.9814570781631 15.772894176228 -2.53708871872744 
	30.0008650147111 15.262095299418 -2.74813080448378 
	30.0033491101619 14.94143909402 -2.84421070353296 
	29.9869813883368 14.2969333127184 -2.97015613328788 
	29.9681021803142 13.9730801994551 -3 
	29.9400495567079 13.6602540378445 -3 
	0.001 
	cone -4.76945220569903e-14 13.6602540378444 2 -1 -3.49148133884313e-15 -0 -4.51830933056327e-15 1.29409522551261 -4.82962913144534 1 0 -1 1 
	cone 15 15 0 0 0 1 15 0 0 1 -0 -1 0 
	nullbs 
	nullbs 
	} #
coedge $-1 $129 $33 $130 $131 1 $35 $-1 #
edge $-1 $132 $37 $33 $133 0 #
coedge $-1 $34 $134 $83 $135 0 $35 $-1 #
edge $-1 $136 $36 $34 $137 0 #
face $-1 $138 $35 $2 $-1 $139 reversed single #
point $-1 7.49999999999996 27.9903810567666 4.49999999999997 #
point $-1 29.9550596978971 16.1602540378445 -2.33012701892219 #
face $-1 $140 $70 $2 $-1 $141 reversed single #
loop $-1 $-1 $142 $39 #
cone-surface $-1 -15.0000000000001 -14.9999999999999 0 0 0 1 -15 1.04744440165294e-13 0 1 0 1 0 #
coedge $-1 $143 $144 $75 $135 1 $40 $-1 #
coedge $-1 $145 $42 $144 $146 0 $20 $-1 #
coedge $-1 $48 $43 $147 $148 1 $12 $-1 #
edge $-1 $149 $92 $43 $150 0 #
coedge $-1 $44 $48 $54 $109 1 $12 $-1 #
coedge $-1 $151 $152 $44 $89 0 $153 $-1 #
edge $-1 $93 $154 $88 $155 0 #
coedge $-1 $156 $45 $152 $157 1 $91 $-1 #
loop $-1 $-1 $66 $140 #
vertex $-1 $67 $158 #
vertex $-1 $157 $159 #
ellipse-curve $-1 20.4903810567666 -5.49038105676663 -3 0 0 -1 7.49999999999997 -12.9903810567666 0 1 #
coedge $-1 $50 $47 $160 $161 1 $8 $-1 #
coedge $-1 $147 $162 $47 $97 0 $163 $-1 #
edge $-1 $164 $98 $96 $165 0 #
vertex $-1 $97 $166 #
straight-curve $-1 20.4903810567665 -20.4903810567666 0 -0 -0 -1 #
coedge $-1 $167 $168 $50 $101 0 $169 $-1 #
edge $-1 $104 $170 $100 $171 0 #
coedge $-1 $172 $51 $168 $173 1 $81 $-1 #
coedge $-1 $51 $174 $53 $107 1 $81 $-1 #
vertex $-1 $173 $175 #
straight-curve $-1 -7.50000000000016 -27.9903810567665 0 -0 -0 -1 #
coedge $-1 $176 $53 $177 $178 1 $55 $-1 #
edge $-1 $57 $179 $53 $180 0 #
coedge $-1 $54 $181 $151 $182 1 $55 $-1 #
edge $-1 $154 $56 $54 $183 0 #
face $-1 $184 $55 $2 $-1 $185 reversed single #
point $-1 20.4903810567665 -20.4903810567666 0.169872981077862 #
point $-1 -7.50000000000016 -27.9903810567665 4.49999999999994 #
coedge $-1 $65 $59 $186 $187 1 $5 $-1 #
coedge $-1 $188 $189 $59 $115 0 $190 $-1 #
edge $-1 $191 $119 $114 $192 0 #
coedge $-1 $193 $60 $62 $122 0 $118 $-1 #
coedge $-1 $60 $194 $188 $195 0 $118 $-1 #
loop $-1 $-1 $116 $196 #
vertex $-1 $195 $197 #
ellipse-curve $-1 15 15 3 0 0 1 15 0 0 1 #
coedge $-1 $62 $145 $198 $199 1 $20 $-1 #
edge $-1 $63 $200 $116 $201 0 #
point $-1 7.49999999999996 27.9903810567666 3 #
coedge $-1 $66 $156 $68 $127 1 $91 $-1 #
ellipse-curve $-1 15 15 -3 0 0 -1 15 0 0 1 #
coedge $-1 $69 $68 $202 $203 1 $70 $-1 #
edge $-1 $71 $204 $124 $205 0 #
point $-1 29.9400495567079 13.6602540378445 -3 #
coedge $-1 $206 $73 $207 $208 1 $35 $-1 #
coedge $-1 $202 $209 $73 $131 0 $210 $-1 #
edge $-1 $211 $132 $130 $212 0 #
vertex $-1 $203 $213 #
straight-curve $-1 -5.64232254040981e-14 16.1602540378444 -2.33012701892219 -1 -3.49148133884313e-15 0 #
coedge $-1 $75 $206 $214 $215 1 $35 $-1 #
edge $-1 $216 $136 $75 $217 0 #
vertex $-1 $76 $218 #
ellipse-curve $-1 -5.49038105676663 20.4903810567666 0.169872981077796 -1.74574066942157e-15 0.500000000000001 -0.866025403784438 -5.06261699229071e-14 15 8.66025403784441 0.866025403784438 #
face $-1 $219 $210 $2 $-1 $220 reversed single #
plane-surface $-1 -1.12846450808196e-13 32.3205080756888 7.00000000000002 -1.74574066942157e-15 0.500000000000001 -0.866025403784438 -3.02371153627746e-15 0.866025403784438 0.500000000000001 1 #
face $-1 $221 $91 $2 $-1 $222 reversed single #
cone-surface $-1 -4.76945220569903e-14 13.6602540378444 2 -1 -3.49148133884313e-15 -0 -4.51830933056327e-15 1.29409522551261 -4.82962913144534 1 -0 1 1 #
coedge $-1 $174 $223 $224 $225 1 $81 $-1 #
coedge $-1 $226 $83 $227 $228 1 $40 $-1 #
coedge $-1 $83 $229 $84 $146 1 $40 $-1 #
coedge $-1 $121 $84 $230 $231 1 $20 $-1 #
edge $-1 $136 $232 $144 $233 0 #
coedge $-1 $186 $96 $85 $148 0 $163 $-1 #
edge $-1 $98 $149 $147 $234 0 #
vertex $-1 $187 $235 #
straight-curve $-1 27.9903810567666 7.49999999999996 0 0 0 1 #
coedge $-1 $236 $88 $108 $182 0 $153 $-1 #
coedge $-1 $88 $236 $90 $157 0 $153 $-1 #
loop $-1 $-1 $88 $221 #
vertex $-1 $109 $237 #
intcurve-curve $-1 0 { surfintcur nubs 3 open 4 
	7.92531815469721 3 9.24304002774833 2 10.5607619007994 2 11.0898992136636 3 
	33.0702528952655 -13.6602540378443 -3 
	32.831016887994 -14.0286267552169 -3 
	32.5679107183682 -14.3976466527848 -2.95884577738637 
	32.0071284034722 -15.1117444563126 -2.79865344454825 
	31.7094510349592 -15.456852196816 -2.67975264233843 
	31.2815310924463 -15.9106986696259 -2.46722673267292 
	31.1576880976503 -16.0373770150819 -2.40107010109127 
	31.0333318091731 -16.1602540378443 -2.33012701892219 
	0.001 
	cone 4.76945220569903e-14 -13.6602540378444 2 1 3.49148133884313e-15 -0 4.51830933056327e-15 -1.29409522551261 -4.82962913144534 1 0 -1 1 
	cone 20.4903810567666 -5.49038105676663 0 0 0 1 7.49999999999997 -12.9903810567666 0 1 -0 -1 0 
	nullbs 
	nullbs 
	} #
coedge $-1 $124 $90 $238 $239 1 $91 $-1 #
edge $-1 $240 $93 $90 $241 0 #
point $-1 27.9903810567666 7.49999999999996 -3 #
point $-1 33.0702528952655 -13.6602540378443 -3 #
coedge $-1 $242 $243 $95 $161 0 $244 $-1 #
edge $-1 $170 $164 $160 $245 0 #
coedge $-1 $96 $246 $242 $247 0 $163 $-1 #
loop $-1 $-1 $186 $248 #
vertex $-1 $247 $249 #
ellipse-curve $-1 5.49038105676649 -20.4903810567666 8.49038105676667 0.500000000000001 0 0.866025403784438 -15 3.5527136788005e-15 8.66025403784441 0.866025403784438 #
point $-1 20.4903810567665 -20.4903810567666 -0.169872981077739 #
coedge $-1 $250 $100 $243 $251 0 $169 $-1 #
coedge $-1 $100 $252 $102 $173 0 $169 $-1 #
loop $-1 $-1 $168 $253 #
vertex $-1 $161 $254 #
ellipse-curve $-1 5.49038105676649 -20.4903810567666 3 0 0 1 -7.50000000000006 -12.9903810567665 0 1 #
coedge $-1 $255 $102 $256 $257 1 $81 $-1 #
edge $-1 $258 $104 $168 $259 0 #
coedge $-1 $103 $142 $260 $261 1 $81 $-1 #
point $-1 -7.50000000000016 -27.9903810567665 3 #
coedge $-1 $262 $106 $263 $264 1 $55 $-1 #
coedge $-1 $260 $265 $106 $178 0 $266 $-1 #
edge $-1 $267 $179 $106 $268 0 #
vertex $-1 $178 $269 #
ellipse-curve $-1 -15.0000000000001 -14.9999999999999 -3.00000000000012 1.74574066942157e-15 -0.500000000000001 -0.866025403784438 -1.04744440165294e-13 -15 8.66025403784441 0.866025403784438 #
coedge $-1 $108 $262 $270 $271 1 $55 $-1 #
edge $-1 $154 $272 $108 $268 0 #
ellipse-curve $-1 20.4903810567666 -5.49038105676663 -8.49038105676655 1.74574066942157e-15 -0.500000000000001 -0.866025403784438 5.41788836017076e-14 -15 8.66025403784441 0.866025403784438 #
face $-1 $273 $274 $2 $-1 $275 reversed single #
plane-surface $-1 1.12846450808196e-13 -32.3205080756888 7.00000000000002 1.74574066942157e-15 -0.500000000000001 -0.866025403784438 -3.02371153627746e-15 0.866025403784438 -0.500000000000001 1 #
coedge $-1 $276 $147 $113 $187 0 $163 $-1 #
edge $-1 $149 $191 $186 $277 0 #
coedge $-1 $278 $114 $117 $195 1 $190 $-1 #
coedge $-1 $114 $278 $276 $279 1 $190 $-1 #
loop $-1 $-1 $114 $280 #
vertex $-1 $187 $281 #
intcurve-curve $-1 0 { surfintcur nubs 3 open 4 
	5.05359002376309 3 5.67693399013186 2 6.61917833939202 2 7.56142268865218 3 
	16.1602540378444 29.9550596978971 2.33012701892219 
	15.9707785707452 29.9697597178378 2.43952073085675 
	15.772894176228 29.9814570781631 2.53708871872742 
	15.262095299418 30.0008650147111 2.74813080448376 
	14.9414390940199 30.0033491101619 2.84421070353294 
	14.2969333127183 29.9869813883368 2.97015613328788 
	13.9730801994549 29.9681021803142 3 
	13.6602540378444 29.9400495567079 3 
	0.001 
	cone 13.6602540378444 0 -2 0 -1 0 1.29409522551261 0 4.82962913144534 1 -0 -1 0 
	cone 15 15 0 0 0 1 15 0 0 1 -0 -1 0 
	nullbs 
	nullbs 
	} #
coedge $-1 $194 $116 $282 $283 0 $118 $-1 #
coedge $-1 $117 $193 $284 $285 1 $118 $-1 #
edge $-1 $286 $119 $117 $287 0 #
face $-1 $280 $118 $2 $-1 $288 reversed single #
point $-1 13.6602540378444 29.9400495567079 3 #
coedge $-1 $289 $282 $121 $199 0 $290 $-1 #
edge $-1 $200 $291 $198 $292 0 #
vertex $-1 $122 $293 #
ellipse-curve $-1 -5.49038105676663 20.4903810567666 3 0 0 1 7.49999999999997 12.9903810567666 0 1 #
coedge $-1 $238 $130 $126 $203 0 $210 $-1 #
edge $-1 $132 $204 $202 $294 0 #
vertex $-1 $239 $295 #
straight-curve $-1 -4.76945220569903e-14 13.6602540378444 -3 1 3.49148133884313e-15 0 #
coedge $-1 $134 $129 $296 $297 1 $35 $-1 #
coedge $-1 $298 $299 $129 $208 0 $300 $-1 #
edge $-1 $301 $211 $207 $302 0 #
coedge $-1 $130 $303 $298 $304 1 $210 $-1 #
loop $-1 $-1 $130 $138 #
vertex $-1 $131 $305 #
straight-curve $-1 60 18.6847730906828 -0.872595264191736 -0 -0.866025403784438 -0.500000000000001 #
point $-1 60 16.1602540378446 -2.33012701892219 #
coedge $-1 $306 $227 $134 $215 0 $307 $-1 #
edge $-1 $216 $308 $134 $133 0 #
vertex $-1 $228 $309 #
ellipse-curve $-1 -20.4903810567666 5.49038105676649 -8.49038105676663 -1.74574066942157e-15 0.500000000000001 -0.866025403784438 -5.41788836017076e-14 15 8.66025403784441 0.866025403784438 #
point $-1 -20.4903810567666 20.4903810567665 0.16987298107778 #
face $-1 $310 $311 $2 $-1 $312 forward single #
plane-surface $-1 60 0 0 -1 0 0 0 -0 1 0 #
face $-1 $110 $153 $2 $-1 $313 reversed single #
plane-surface $-1 0 0 -3 0 0 -1 -3.49148133884313e-15 1 0 1 #
coedge $-1 $142 $255 $314 $315 1 $81 $-1 #
coedge $-1 $316 $317 $142 $225 0 $318 $-1 #
edge $-1 $319 $320 $224 $321 0 #
coedge $-1 $314 $143 $316 $322 1 $40 $-1 #
coedge $-1 $214 $323 $143 $228 0 $307 $-1 #
edge $-1 $324 $216 $227 $325 0 #
coedge $-1 $144 $314 $326 $327 1 $40 $-1 #
coedge $-1 $326 $328 $145 $231 0 $274 $-1 #
edge $-1 $291 $232 $230 $329 0 #
vertex $-1 $231 $330 #
straight-curve $-1 -20.4903810567666 20.4903810567665 0 -0 -0 -1 #
ellipse-curve $-1 20.4903810567666 -5.49038105676663 -0.169872981077784 0.500000000000001 0 0.866025403784438 15 2.66453525910038e-15 -8.66025403784441 0.866025403784438 #
point $-1 27.9903810567666 7.49999999999996 -4.49999999999998 #
coedge $-1 $152 $151 $331 $332 1 $153 $-1 #
point $-1 31.0333318091731 -16.1602540378443 -2.33012701892219 #
coedge $-1 $331 $202 $156 $239 0 $210 $-1 #
edge $-1 $204 $240 $238 $333 0 #
vertex $-1 $332 $334 #
straight-curve $-1 4.76945220569903e-14 -13.6602540378444 -3 -1 -3.49148133884313e-15 0 #
coedge $-1 $335 $160 $162 $247 1 $244 $-1 #
coedge $-1 $160 $335 $167 $251 1 $244 $-1 #
loop $-1 $-1 $160 $336 #
intcurve-curve $-1 0 { surfintcur nubs 3 open 4 
	25.2381293822588 3 26.5558512553099 2 27.8735731283611 2 28.4027104412251 3 
	13.6602540378444 -33.0702528952653 3 
	14.0286267552171 -32.8310168879939 3 
	14.397646652785 -32.567910718368 2.95884577738635 
	15.1117444563128 -32.007128403472 2.79865344454823 
	15.4568521968162 -31.709451034959 2.6797526423384 
	15.9106986696261 -31.281531092446 2.4672267326729 
	16.037377015082 -31.1576880976501 2.40107010109126 
	16.1602540378444 -31.0333318091729 2.33012701892219 
	0.001 
	cone 13.6602540378444 0 -2 0 -1 0 1.29409522551261 0 4.82962913144534 1 -0 -1 0 
	cone 5.49038105676649 -20.4903810567666 0 0 0 1 -7.50000000000006 -12.9903810567665 0 1 -0 -1 0 
	nullbs 
	nullbs 
	} #
coedge $-1 $162 $337 $338 $339 1 $163 $-1 #
edge $-1 $340 $164 $162 $341 0 #
face $-1 $342 $163 $2 $-1 $343 reversed single #
point $-1 16.1602540378444 -31.0333318091729 2.33012701892219 #
coedge $-1 $252 $167 $344 $345 1 $169 $-1 #
edge $-1 $170 $346 $167 $287 0 #
coedge $-1 $168 $250 $347 $348 0 $169 $-1 #
face $-1 $336 $169 $2 $-1 $288 reversed single #
point $-1 13.6602540378444 -33.0702528952653 3 #
coedge $-1 $223 $172 $349 $350 1 $81 $-1 #
coedge $-1 $347 $351 $172 $257 0 $352 $-1 #
edge $-1 $353 $258 $256 $354 0 #
vertex $-1 $348 $355 #
ellipse-curve $-1 -15.0000000000001 -14.9999999999999 3 0 0 1 -15 1.04744440165294e-13 0 1 #
coedge $-1 $356 $177 $174 $261 0 $266 $-1 #
edge $-1 $179 $319 $260 $357 0 #
coedge $-1 $181 $176 $358 $359 1 $55 $-1 #
coedge $-1 $360 $361 $176 $264 0 $362 $-1 #
edge $-1 $363 $267 $263 $364 0 #
coedge $-1 $177 $356 $360 $365 1 $266 $-1 #
loop $-1 $-1 $260 $366 #
vertex $-1 $365 $367 #
straight-curve $-1 5.64232254040981e-14 -16.1602540378444 -2.33012701892219 1 3.49148133884313e-15 0 #
point $-1 -29.9550596978972 -16.1602540378445 -2.33012701892219 #
coedge $-1 $368 $331 $181 $271 0 $210 $-1 #
edge $-1 $272 $369 $270 $370 0 #
vertex $-1 $332 $371 #
face $-1 $253 $352 $2 $-1 $372 reversed single #
loop $-1 $-1 $230 $184 #
plane-surface $-1 -32.3205080756888 0 -7.00000000000002 -0.500000000000001 0 0.866025403784438 0.866025403784438 0 0.500000000000001 0 #
coedge $-1 $373 $186 $189 $279 0 $163 $-1 #
ellipse-curve $-1 15 15 3.00000000000002 0.500000000000001 0 0.866025403784438 15 0 -8.66025403784441 0.866025403784438 #
coedge $-1 $189 $188 $374 $375 1 $190 $-1 #
edge $-1 $191 $376 $276 $341 0 #
face $-1 $377 $190 $2 $-1 $378 reversed single #
point $-1 16.1602540378444 29.9550596978971 2.33012701892219 #
coedge $-1 $198 $379 $193 $283 1 $290 $-1 #
edge $-1 $200 $380 $193 $381 0 #
coedge $-1 $382 $374 $194 $285 0 $383 $-1 #
edge $-1 $286 $380 $284 $384 0 #
vertex $-1 $285 $385 #
straight-curve $-1 13.6602540378444 0 3 -0 -1 -0 #
plane-surface $-1 0 0 3 0 0 1 1 0 0 0 #
coedge $-1 $379 $198 $328 $386 1 $290 $-1 #
loop $-1 $-1 $198 $342 #
vertex $-1 $386 $387 #
intcurve-curve $-1 0 { surfintcur nubs 3 open 4 
	25.2381293822586 3 26.5558512553097 2 27.8735731283609 2 28.4027104412249 3 
	-13.6602540378444 33.0702528952654 3 
	-14.0286267552171 32.8310168879939 3 
	-14.397646652785 32.5679107183681 2.95884577738635 
	-15.1117444563128 32.007128403472 2.79865344454823 
	-15.4568521968162 31.7094510349591 2.6797526423384 
	-15.9106986696261 31.2815310924461 2.4672267326729 
	-16.037377015082 31.1576880976502 2.40107010109126 
	-16.1602540378444 31.033331809173 2.33012701892219 
	0.001 
	cone -13.6602540378444 0 -2 0 1 0 -1.29409522551261 0 4.82962913144534 1 -0 -1 0 
	cone -5.49038105676663 20.4903810567666 0 0 0 1 7.49999999999997 12.9903810567666 0 1 -0 -1 0 
	nullbs 
	nullbs 
	} #
point $-1 -13.6602540378444 33.0702528952654 3 #
ellipse-curve $-1 60 13.6602540378446 2 -1 0 0 -4.51830933056327e-15 1.29409522551261 -4.82962913144534 1 #
point $-1 60 13.6602540378446 -3 #
coedge $-1 $388 $389 $206 $297 0 $362 $-1 #
edge $-1 $308 $301 $296 $390 0 #
coedge $-1 $391 $207 $209 $304 0 $300 $-1 #
coedge $-1 $207 $391 $388 $392 0 $300 $-1 #
loop $-1 $-1 $207 $310 #
vertex $-1 $392 $393 #
straight-curve $-1 -1.5517841231608e-13 44.4448637286709 14 1 3.49148133884313e-15 -0 #
coedge $-1 $209 $394 $395 $396 1 $210 $-1 #
edge $-1 $211 $397 $209 $398 0 #
point $-1 60 44.4448637286711 14 #
coedge $-1 $323 $214 $389 $399 1 $307 $-1 #
loop $-1 $-1 $227 $377 #
vertex $-1 $399 $400 #
point $-1 -31.033331809173 16.1602540378443 -2.33012701892219 #
face $-1 $401 $300 $2 $-1 $312 forward single #
loop $-1 $-1 $358 $219 #
plane-surface $-1 0 0 14 0 0 1 1 0 0 0 #
cone-surface $-1 4.76945220569903e-14 -13.6602540378444 2 1 3.49148133884313e-15 -0 4.51830933056327e-15 -1.29409522551261 -4.82962913144534 1 -0 1 1 #
coedge $-1 $229 $226 $223 $315 0 $40 $-1 #
edge $-1 $320 $402 $223 $403 0 #
coedge $-1 $404 $224 $226 $322 0 $318 $-1 #
coedge $-1 $224 $405 $356 $406 1 $318 $-1 #
loop $-1 $-1 $316 $407 #
vertex $-1 $261 $408 #
vertex $-1 $322 $409 #
ellipse-curve $-1 -15.0000000000001 -14.9999999999999 -3 0 0 -1 -15 1.04744440165294e-13 0 1 #
edge $-1 $320 $324 $316 $410 0 #
coedge $-1 $227 $306 $404 $411 0 $307 $-1 #
vertex $-1 $411 $412 #
intcurve-curve $-1 0 { surfintcur nubs 3 open 4 
	7.92531815469723 3 9.24304002774837 2 10.5607619007995 2 11.0898992136637 3 
	-33.0702528952654 13.6602540378443 -3 
	-32.8310168879939 14.0286267552169 -3 
	-32.5679107183681 14.3976466527849 -2.95884577738636 
	-32.0071284034721 15.1117444563126 -2.79865344454825 
	-31.7094510349591 15.4568521968161 -2.67975264233842 
	-31.2815310924461 15.9106986696259 -2.46722673267292 
	-31.1576880976502 16.0373770150819 -2.40107010109127 
	-31.033331809173 16.1602540378443 -2.33012701892219 
	0.001 
	cone -4.76945220569903e-14 13.6602540378444 2 -1 -3.49148133884313e-15 -0 -4.51830933056327e-15 1.29409522551261 -4.82962913144534 1 0 -1 1 
	cone -20.4903810567666 5.49038105676649 0 0 0 1 -7.50000000000006 12.9903810567665 0 1 -0 -1 0 
	nullbs 
	nullbs 
	} #
coedge $-1 $349 $230 $229 $327 0 $274 $-1 #
edge $-1 $232 $402 $326 $413 0 #
coedge $-1 $230 $414 $289 $386 0 $274 $-1 #
ellipse-curve $-1 -5.49038105676663 20.4903810567666 8.49038105676659 -0.500000000000001 0 0.866025403784438 15 -2.66453525910038e-15 8.66025403784441 0.866025403784438 #
point $-1 -20.4903810567666 20.4903810567665 -0.169872981077821 #
coedge $-1 $270 $238 $236 $332 0 $210 $-1 #
edge $-1 $240 $272 $331 $415 0 #
straight-curve $-1 60 0 -3 -0 -1 -0 #
point $-1 60 -13.6602540378442 -3 #
coedge $-1 $243 $242 $416 $417 1 $244 $-1 #
face $-1 $248 $244 $2 $-1 $378 reversed single #
coedge $-1 $246 $373 $418 $419 1 $163 $-1 #
coedge $-1 $420 $416 $246 $339 0 $421 $-1 #
edge $-1 $340 $422 $338 $423 0 #
vertex $-1 $417 $424 #
straight-curve $-1 16.1602540378444 0 2.33012701892219 0 1 0 #
face $-1 $196 $290 $2 $-1 $372 reversed single #
plane-surface $-1 32.3205080756888 0 -7.00000000000002 0.500000000000001 0 0.866025403784438 0.866025403784438 0 -0.500000000000001 0 #
coedge $-1 $416 $425 $250 $345 0 $421 $-1 #
edge $-1 $426 $346 $344 $427 0 #
vertex $-1 $345 $428 #
coedge $-1 $429 $256 $252 $348 1 $352 $-1 #
edge $-1 $426 $258 $252 $381 0 #
coedge $-1 $430 $326 $255 $350 0 $274 $-1 #
edge $-1 $402 $353 $349 $431 0 #
coedge $-1 $256 $429 $430 $432 1 $352 $-1 #
loop $-1 $-1 $256 $273 #
vertex $-1 $257 $433 #
intcurve-curve $-1 0 { surfintcur nubs 3 open 4 
	5.05359002376309 3 5.67693399013186 2 6.61917833939202 2 7.56142268865218 3 
	-16.1602540378444 -29.955059697897 2.33012701892219 
	-15.9707785707452 -29.9697597178377 2.43952073085675 
	-15.772894176228 -29.981457078163 2.53708871872742 
	-15.262095299418 -30.000865014711 2.74813080448376 
	-14.9414390940199 -30.0033491101618 2.84421070353294 
	-14.2969333127183 -29.9869813883367 2.97015613328788 
	-13.9730801994549 -29.9681021803141 3 
	-13.6602540378444 -29.9400495567078 3 
	0.001 
	cone -13.6602540378444 0 -2 0 1 0 -1.29409522551261 0 4.82962913144534 1 -0 -1 0 
	cone -15.0000000000001 -14.9999999999999 0 0 0 1 -15 1.04744440165294e-13 0 1 -0 -1 0 
	nullbs 
	nullbs 
	} #
point $-1 -13.6602540378444 -29.9400495567078 3 #
coedge $-1 $265 $260 $317 $406 0 $266 $-1 #
intcurve-curve $-1 0 { surfintcur nubs 3 open 4 
	20.2835195465091 3 20.9068635128779 2 21.8491078621381 2 22.7913522113982 3 
	-29.9550596978972 -16.1602540378445 -2.33012701892219 
	-29.9697597178379 -15.9707785707453 -2.43952073085676 
	-29.9814570781632 -15.772894176228 -2.53708871872744 
	-30.0008650147112 -15.262095299418 -2.74813080448378 
	-30.0033491101621 -14.94143909402 -2.84421070353296 
	-29.9869813883369 -14.2969333127184 -2.97015613328788 
	-29.9681021803144 -13.9730801994551 -3 
	-29.940049556708 -13.6602540378445 -3 
	0.001 
	cone 4.76945220569903e-14 -13.6602540378444 2 1 3.49148133884313e-15 -0 4.51830933056327e-15 -1.29409522551261 -4.82962913144534 1 0 -1 1 
	cone -15.0000000000001 -14.9999999999999 0 0 0 1 -15 1.04744440165294e-13 0 1 -0 -1 0 
	nullbs 
	nullbs 
	} #
coedge $-1 $434 $435 $262 $359 0 $311 $-1 #
edge $-1 $369 $363 $358 $436 0 #
coedge $-1 $437 $263 $265 $365 0 $362 $-1 #
coedge $-1 $263 $438 $434 $439 1 $362 $-1 #
loop $-1 $-1 $296 $440 #
vertex $-1 $359 $441 #
straight-curve $-1 -60 -18.6847730906828 -0.872595264191736 0 0.866025403784438 -0.500000000000001 #
edge $-1 $267 $442 $360 $443 0 #
face $-1 $444 $266 $2 $-1 $313 reversed single #
point $-1 -60 -16.1602540378446 -2.33012701892219 #
coedge $-1 $445 $270 $435 $446 1 $210 $-1 #
vertex $-1 $446 $447 #
straight-curve $-1 60 -18.6847730906827 -0.872595264191556 0 -0.866025403784438 0.500000000000001 #
point $-1 60 -16.1602540378442 -2.33012701892219 #
cone-surface $-1 -13.6602540378444 0 -2 0 1 0 -1.29409522551261 0 4.82962913144534 1 0 1 0 #
coedge $-1 $337 $276 $448 $449 1 $163 $-1 #
coedge $-1 $284 $448 $278 $375 0 $383 $-1 #
edge $-1 $376 $286 $374 $450 0 #
vertex $-1 $375 $451 #
face $-1 $407 $307 $2 $-1 $141 reversed single #
cone-surface $-1 13.6602540378444 0 -2 0 -1 0 1.29409522551261 0 4.82962913144534 1 0 1 0 #
coedge $-1 $282 $289 $382 $452 1 $290 $-1 #
vertex $-1 $452 $453 #
straight-curve $-1 -13.6602540378444 0 3 0 1 0 #
coedge $-1 $454 $284 $379 $452 0 $383 $-1 #
loop $-1 $-1 $448 $444 #
straight-curve $-1 0 60 3 -1 0 0 #
point $-1 13.6602540378444 60 3 #
edge $-1 $455 $291 $328 $456 0 #
point $-1 -16.1602540378444 31.033331809173 2.33012701892219 #
coedge $-1 $457 $296 $299 $392 1 $362 $-1 #
coedge $-1 $296 $437 $306 $399 0 $362 $-1 #
straight-curve $-1 -60 18.6847730906827 -0.872595264191556 -0 0.866025403784438 0.500000000000001 #
coedge $-1 $299 $298 $458 $459 0 $300 $-1 #
edge $-1 $460 $301 $388 $461 0 #
point $-1 -60 44.4448637286707 14 #
coedge $-1 $303 $445 $462 $463 1 $210 $-1 #
coedge $-1 $464 $458 $303 $396 0 $383 $-1 #
edge $-1 $397 $465 $303 $466 0 #
vertex $-1 $304 $467 #
straight-curve $-1 60 0 14 0 1 0 #
edge $-1 $468 $308 $389 $469 0 #
point $-1 -60 16.1602540378442 -2.33012701892219 #
face $-1 $440 $421 $2 $-1 $470 reversed single #
vertex $-1 $327 $471 #
straight-curve $-1 -27.9903810567668 -7.50000000000001 0 -0 -0 -1 #
coedge $-1 $405 $316 $323 $411 1 $318 $-1 #
coedge $-1 $317 $404 $437 $472 1 $318 $-1 #
edge $-1 $319 $442 $317 $241 0 #
face $-1 $366 $318 $2 $-1 $222 reversed single #
point $-1 -29.940049556708 -13.6602540378445 -3 #
point $-1 -27.9903810567668 -7.50000000000001 -3 #
ellipse-curve $-1 -20.4903810567666 5.49038105676649 -3 0 0 -1 -7.50000000000006 12.9903810567665 0 1 #
edge $-1 $468 $324 $404 $205 0 #
point $-1 -33.0702528952654 13.6602540378443 -3 #
ellipse-curve $-1 -20.4903810567666 5.49038105676649 -0.169872981077809 -0.500000000000001 0 0.866025403784438 -15 -3.5527136788005e-15 -8.66025403784441 0.866025403784438 #
coedge $-1 $328 $473 $454 $474 1 $274 $-1 #
ellipse-curve $-1 60 -13.6602540378442 2 -1 0 0 4.51830933056327e-15 -1.29409522551261 -4.82962913144534 1 #
coedge $-1 $338 $344 $335 $417 0 $421 $-1 #
edge $-1 $346 $340 $416 $475 0 #
coedge $-1 $476 $477 $337 $419 0 $478 $-1 #
edge $-1 $422 $479 $418 $480 0 #
coedge $-1 $481 $338 $477 $482 1 $421 $-1 #
loop $-1 $-1 $338 $401 #
vertex $-1 $482 $483 #
straight-curve $-1 18.6847730906827 -60 0.872595264191646 0.866025403784438 -0 -0.500000000000001 #
point $-1 16.1602540378444 -60 2.33012701892219 #
coedge $-1 $344 $484 $429 $485 0 $421 $-1 #
vertex $-1 $485 $486 #
straight-curve $-1 0 -60 3 1 -0 0 #
point $-1 13.6602540378444 -60 3 #
coedge $-1 $351 $347 $425 $485 1 $352 $-1 #
coedge $-1 $487 $349 $351 $432 0 $274 $-1 #
ellipse-curve $-1 -15.0000000000001 -14.9999999999999 2.99999999999996 -0.500000000000001 0 0.866025403784438 -15 1.04744440165294e-13 -8.66025403784441 0.866025403784438 #
edge $-1 $353 $488 $430 $456 0 #
point $-1 -16.1602540378444 -29.955059697897 2.33012701892219 #
coedge $-1 $489 $358 $361 $439 0 $311 $-1 #
coedge $-1 $358 $489 $368 $446 0 $311 $-1 #
straight-curve $-1 1.5517841231608e-13 -44.4448637286709 14 -1 -3.49148133884313e-15 0 #
coedge $-1 $389 $360 $405 $472 0 $362 $-1 #
coedge $-1 $361 $490 $491 $492 1 $362 $-1 #
edge $-1 $363 $493 $361 $461 0 #
face $-1 $-1 $362 $2 $-1 $494 reversed single #
point $-1 -60 -44.4448637286711 14 #
vertex $-1 $365 $495 #
ellipse-curve $-1 -60 -13.6602540378446 2 1 0 0 4.51830933056327e-15 -1.29409522551261 -4.82962913144534 1 #
face $-1 $496 $383 $2 $-1 $497 reversed single #
coedge $-1 $394 $368 $481 $498 0 $210 $-1 #
edge $-1 $499 $369 $368 $398 0 #
point $-1 60 -44.4448637286707 14 #
coedge $-1 $374 $464 $373 $449 0 $383 $-1 #
edge $-1 $479 $376 $448 $500 0 #
ellipse-curve $-1 13.6602540378444 60 -2 0 -1 0 1.29409522551261 0 4.82962913144534 1 #
point $-1 16.1602540378444 60 2.33012701892219 #
edge $-1 $380 $455 $382 $501 0 #
point $-1 -13.6602540378444 60 3 #
coedge $-1 $502 $382 $414 $474 0 $383 $-1 #
vertex $-1 $452 $503 #
straight-curve $-1 -16.1602540378444 0 2.33012701892219 0 -1 0 #
coedge $-1 $490 $388 $504 $505 0 $362 $-1 #
coedge $-1 $395 $504 $391 $459 1 $383 $-1 #
edge $-1 $397 $460 $458 $506 0 #
vertex $-1 $459 $507 #
straight-curve $-1 -60 0 14 0 -1 0 #
coedge $-1 $477 $476 $394 $463 0 $478 $-1 #
edge $-1 $465 $508 $394 $509 0 #
coedge $-1 $448 $395 $476 $510 1 $383 $-1 #
vertex $-1 $463 $511 #
straight-curve $-1 60 60 0 0 0 -1 #
point $-1 60 60 14 #
vertex $-1 $472 $512 #
ellipse-curve $-1 -60 13.6602540378442 2 1 0 0 -4.51830933056327e-15 1.29409522551261 -4.82962913144534 1 #
plane-surface $-1 0 -60 0 0 1 -0 -0 0 1 0 #
point $-1 -27.9903810567668 -7.50000000000001 -4.5000000000001 #
edge $-1 $442 $468 $437 $513 0 #
coedge $-1 $414 $487 $514 $515 1 $274 $-1 #
edge $-1 $455 $516 $454 $517 0 #
ellipse-curve $-1 13.6602540378444 -60 -2 0 1 -0 1.29409522551261 0 4.82962913144534 1 #
coedge $-1 $462 $418 $464 $510 0 $478 $-1 #
coedge $-1 $418 $462 $420 $482 0 $478 $-1 #
loop $-1 $-1 $418 $518 #
vertex $-1 $449 $519 #
straight-curve $-1 44.4448637286709 0 -14 0 1 0 #
coedge $-1 $520 $420 $445 $498 1 $421 $-1 #
edge $-1 $508 $422 $420 $521 0 #
point $-1 44.4448637286709 -60 -14 #
coedge $-1 $425 $522 $487 $523 0 $421 $-1 #
edge $-1 $488 $426 $425 $524 0 #
point $-1 -13.6602540378444 -60 3 #
coedge $-1 $473 $430 $484 $523 1 $274 $-1 #
vertex $-1 $485 $525 #
coedge $-1 $435 $434 $520 $526 0 $311 $-1 #
coedge $-1 $438 $457 $527 $528 1 $362 $-1 #
coedge $-1 $522 $520 $438 $492 0 $421 $-1 #
edge $-1 $493 $529 $438 $530 0 #
vertex $-1 $439 $531 #
plane-surface $-1 -60 0 0 1 0 0 0 0 -1 0 #
point $-1 -60 -13.6602540378446 -3 #
face $-1 $518 $532 $2 $-1 $533 reversed single #
plane-surface $-1 0 60 0 0 -1 0 0 0 -1 0 #
edge $-1 $499 $508 $445 $534 0 #
vertex $-1 $446 $535 #
straight-curve $-1 18.6847730906827 60 0.872595264191646 -0.866025403784438 0 0.500000000000001 #
ellipse-curve $-1 -13.6602540378444 60 -2 0 -1 0 -1.29409522551261 0 4.82962913144534 1 #
coedge $-1 $504 $454 $536 $537 1 $383 $-1 #
point $-1 -16.1602540378444 60 2.33012701892219 #
coedge $-1 $458 $502 $457 $505 1 $383 $-1 #
edge $-1 $460 $538 $504 $539 0 #
straight-curve $-1 0 60 14 -1 0 0 #
point $-1 -60 60 14 #
vertex $-1 $498 $540 #
straight-curve $-1 60 0 -14 0 -1 0 #
edge $-1 $479 $465 $464 $541 0 #
point $-1 60 60 -14 #
point $-1 -60 13.6602540378442 -3 #
straight-curve $-1 -60 0 -3 -0 1 0 #
coedge $-1 $542 $536 $473 $515 0 $532 $-1 #
edge $-1 $516 $543 $514 $544 0 #
vertex $-1 $537 $545 #
straight-curve $-1 -18.6847730906827 60 0.872595264191646 -0.866025403784438 -0 -0.500000000000001 #
face $-1 $77 $478 $2 $-1 $533 reversed single #
point $-1 44.4448637286709 60 -14 #
coedge $-1 $491 $481 $489 $526 1 $421 $-1 #
straight-curve $-1 0 -60 -14 -1 0 0 #
coedge $-1 $484 $491 $542 $546 1 $421 $-1 #
edge $-1 $543 $488 $484 $547 0 #
ellipse-curve $-1 -13.6602540378444 -60 -2 0 1 -0 -1.29409522551261 0 4.82962913144534 1 #
point $-1 -16.1602540378444 -60 2.33012701892219 #
edge $-1 $493 $499 $520 $548 0 #
coedge $-1 $536 $542 $490 $528 0 $532 $-1 #
edge $-1 $529 $538 $490 $549 0 #
vertex $-1 $528 $550 #
straight-curve $-1 -60 -60 0 0 0 -1 #
point $-1 -60 -60 14 #
loop $-1 $-1 $514 $496 #
plane-surface $-1 0 0 -14 0 0 1 1 0 0 0 #
straight-curve $-1 60 -60 0 0 0 -1 #
point $-1 60 -60 14 #
coedge $-1 $514 $527 $502 $537 0 $532 $-1 #
edge $-1 $538 $516 $502 $541 0 #
vertex $-1 $537 $551 #
straight-curve $-1 -60 60 0 0 0 -1 #
point $-1 60 -60 -14 #
straight-curve $-1 0 60 -14 1 0 0 #
coedge $-1 $527 $514 $522 $546 0 $532 $-1 #
vertex $-1 $515 $552 #
straight-curve $-1 -44.4448637286709 0 -14 0 -1 0 #
point $-1 -44.4448637286709 60 -14 #
edge $-1 $543 $529 $522 $521 0 #
straight-curve $-1 -18.6847730906827 -60 0.872595264191646 0.866025403784438 0 0.500000000000001 #
straight-curve $-1 0 -60 14 1 0 0 #
straight-curve $-1 -60 0 -14 0 1 0 #
point $-1 -60 -60 -14 #
point $-1 -60 60 -14 #
point $-1 -44.4448637286709 -60 -14 #
