600 0 1 0           
87 GICL ACIS Healer - Source: /gicl/data5/repository/UMD/clover_part/clover_part.sat - 6 0 18 ACIS 6.0.3 Solaris 24 Sun Apr 14 00:35:10 2002 
1 9.999999999999999547e-07 1.000000000000000036e-10 
body $-1 $1 $-1 $-1 #
lump $-1 $-1 $2 $0 #
shell $-1 $-1 $-1 $3 $-1 $1 #
face $-1 $4 $5 $2 $-1 $6 reversed single #
face $-1 $7 $8 $2 $-1 $9 reversed single #
loop $-1 $-1 $10 $3 #
cone-surface $-1 15 15 0 0 0 1 15 0 0 1 I I 0 1 15 forward I I I I #
face $-1 $11 $12 $2 $-1 $13 reversed single #
loop $-1 $-1 $14 $4 #
cone-surface $-1 5.490381056766490353 -20.49038105676660138 0 0 0 1 -7.500000000000060396 -12.99038105676650012 0 1 I I 0 1 14.99999999999996092 forward I I I I #
coedge $-1 $15 $16 $17 $18 reversed $5 $-1 #
face $-1 $19 $20 $2 $-1 $21 reversed single #
loop $-1 $-1 $22 $7 #
cone-surface $-1 20.49038105676660138 -5.490381056766629797 0 0 0 1 7.499999999999969802 -12.9903810567665996 0 1 I I 0 1 15.00000000000000178 forward I I I I #
coedge $-1 $23 $24 $25 $26 reversed $8 $-1 #
coedge $-1 $27 $10 $28 $29 forward $5 $-1 #
coedge $-1 $10 $30 $31 $32 reversed $5 $-1 #
coedge $-1 $33 $34 $10 $18 forward $35 $-1 #
edge $-1 $36 -0.523598775598300592 $37 1.493368717257246958 $17 $38 forward 7 unknown #
face $-1 $39 $40 $2 $-1 $41 reversed single #
loop $-1 $-1 $42 $11 #
cone-surface $-1 -5.490381056766629797 20.49038105676660138 0 0 0 1 7.499999999999969802 12.9903810567665996 0 1 I I 0 1 15.00000000000000178 forward I I I I #
coedge $-1 $43 $44 $45 $46 reversed $12 $-1 #
coedge $-1 $47 $14 $48 $49 forward $8 $-1 #
coedge $-1 $14 $50 $51 $52 reversed $8 $-1 #
coedge $-1 $53 $54 $14 $26 forward $55 $-1 #
edge $-1 $56 -1.570796326794892783 $57 1.047197551196609622 $25 $58 forward 7 unknown #
coedge $-1 $59 $15 $60 $61 reversed $5 $-1 #
coedge $-1 $42 $62 $15 $29 reversed $20 $-1 #
edge $-1 $36 -4.499999999999969802 $63 -3 $28 $64 forward 7 unknown #
coedge $-1 $16 $65 $66 $67 reversed $5 $-1 #
coedge $-1 $68 $69 $16 $32 forward $70 $-1 #
edge $-1 $37 20.28351954650910116 $71 22.79135221139819834 $31 $72 forward 7 unknown #
coedge $-1 $73 $17 $69 $74 reversed $35 $-1 #
coedge $-1 $17 $75 $42 $76 forward $35 $-1 #
loop $-1 $-1 $17 $77 #
vertex $-1 $18 $78 #
vertex $-1 $74 $79 #
ellipse-curve $-1 15 15 -3.000000000000050182 -1.74574066942157003e-15 0.5000000000000009992 -0.8660254037844380415 0 15 8.660254037844410391 0.8660254037844380415 I I #
face $-1 $80 $81 $2 $-1 $82 reversed single #
loop $-1 $-1 $83 $19 #
cone-surface $-1 -20.49038105676660138 5.490381056766490353 0 0 0 1 -7.500000000000060396 12.99038105676650012 0 1 I I 0 1 14.99999999999996092 forward I I I I #
coedge $-1 $84 $28 $34 $76 reversed $20 $-1 #
coedge $-1 $85 $22 $65 $86 reversed $12 $-1 #
coedge $-1 $22 $87 $88 $89 reversed $12 $-1 #
coedge $-1 $90 $66 $22 $46 forward $91 $-1 #
edge $-1 $92 -2.094395102393198371 $93 -0.4712160477484939602 $45 $94 forward 7 unknown #
coedge $-1 $95 $23 $96 $97 reversed $8 $-1 #
coedge $-1 $87 $85 $23 $49 reversed $12 $-1 #
edge $-1 $56 -0.1698729810778620009 $98 0.1698729810777389881 $48 $99 forward 7 unknown #
coedge $-1 $24 $95 $100 $101 reversed $8 $-1 #
coedge $-1 $102 $103 $24 $52 forward $81 $-1 #
edge $-1 $57 -4.499999999999939604 $104 -3 $24 $105 forward 7 unknown #
coedge $-1 $106 $25 $103 $107 forward $55 $-1 #
coedge $-1 $25 $108 $87 $109 forward $55 $-1 #
loop $-1 $-1 $54 $110 #
vertex $-1 $26 $111 #
vertex $-1 $107 $112 #
ellipse-curve $-1 5.490381056766490353 -20.49038105676660138 0.1698729810778200067 1.74574066942157003e-15 -0.5000000000000009992 -0.8660254037844380415 5.062616992290710038e-14 -15 8.660254037844410391 0.8660254037844380415 I I #
coedge $-1 $113 $27 $114 $115 reversed $5 $-1 #
coedge $-1 $116 $117 $27 $61 forward $118 $-1 #
edge $-1 $119 1.660231904994752483 $63 2.094395102393197483 $60 $120 forward 7 unknown #
coedge $-1 $28 $121 $116 $122 reversed $20 $-1 #
vertex $-1 $61 $123 #
straight-curve $-1 7.499999999999960032 27.99038105676660138 0 -0 -0 -1 I I #
coedge $-1 $30 $113 $43 $86 forward $5 $-1 #
coedge $-1 $45 $124 $30 $67 forward $91 $-1 #
edge $-1 $71 0.08943557819984920831 $92 0.523598775598300481 $66 $125 forward 7 unknown #
coedge $-1 $126 $31 $124 $127 forward $70 $-1 #
coedge $-1 $31 $126 $33 $74 forward $70 $-1 #
loop $-1 $-1 $31 $80 #
vertex $-1 $67 $128 #
intcurve-curve $-1 forward { surfintcur full nubs 3 open 4 
	20.28351954650910116 3 20.90686351287790146 2 21.84910786213810141 2 22.79135221139819834 3 
	29.95505969789709866 16.16025403784449921 -2.330127018922190096 
	29.96975971783779968 15.97077857074529916 -2.439520730856759911 
	29.98145707816309979 15.77289417622800016 -2.537088718727440018 
	30.00086501471109912 15.26209529941800014 -2.748130804483780221 
	30.0033491101618992 14.9414390940199997 -2.844210703532959794 
	29.98698138833680105 14.29693331271839973 -2.970156133287880085 
	29.96810218031420092 13.97308019945510082 -3 
	29.94004955670790125 13.66025403784449921 -3 
	0.001000000000000000021 
	cone -4.769452205699029983e-14 13.66025403784439973 2 -1 -3.491481338843129805e-15 -0 -4.518309330563270325e-15 1.294095225512609915 -4.829629131445339674 1 I I 0 -1 5 reversed I I I I 
	cone 15 15 0 0 0 1 15 0 0 1 I I -0 -1 15 forward I I I I 
	nullbs 
	nullbs 
	I I 
	0 
	0 
	0 
	} I I #
coedge $-1 $129 $33 $130 $131 reversed $35 $-1 #
edge $-1 $132 -60.00000000000005684 $37 -29.9550596978971555 $33 $133 forward 7 unknown #
coedge $-1 $34 $134 $83 $135 forward $35 $-1 #
edge $-1 $136 -1.570796326794899889 $36 1.047197551196601628 $34 $137 forward 7 unknown #
face $-1 $138 $35 $2 $-1 $139 reversed single #
point $-1 7.499999999999960032 27.99038105676660138 4.499999999999969802 #
point $-1 29.95505969789709866 16.16025403784449921 -2.330127018922190096 #
face $-1 $140 $70 $2 $-1 $141 reversed single #
loop $-1 $-1 $142 $39 #
cone-surface $-1 -15.00000000000009948 -14.99999999999990052 0 0 0 1 -15 1.047444401652940007e-13 0 1 I I 0 1 15 forward I I I I #
coedge $-1 $143 $144 $75 $135 reversed $40 $-1 #
coedge $-1 $145 $42 $144 $146 forward $20 $-1 #
coedge $-1 $48 $43 $147 $148 reversed $12 $-1 #
edge $-1 $149 -4.499999999999979572 $92 -3 $43 $150 forward 7 unknown #
coedge $-1 $44 $48 $54 $109 reversed $12 $-1 #
coedge $-1 $151 $152 $44 $89 forward $153 $-1 #
edge $-1 $93 7.925318154697209572 $154 11.08989921366359965 $88 $155 forward 7 unknown #
coedge $-1 $156 $45 $152 $157 reversed $91 $-1 #
loop $-1 $-1 $66 $140 #
vertex $-1 $67 $158 #
vertex $-1 $157 $159 #
ellipse-curve $-1 20.49038105676660138 -5.490381056766629797 -3 0 0 -1 7.499999999999969802 -12.9903810567665996 0 1 I I #
coedge $-1 $50 $47 $160 $161 reversed $8 $-1 #
coedge $-1 $147 $162 $47 $97 forward $163 $-1 #
edge $-1 $164 2.362177697129318688 $98 3.141592653589793116 $96 $165 forward 7 unknown #
vertex $-1 $97 $166 #
straight-curve $-1 20.49038105676649835 -20.49038105676660138 0 -0 -0 -1 I I #
coedge $-1 $167 $168 $50 $101 forward $169 $-1 #
edge $-1 $104 -0.5235987755983010361 $170 1.099580279046431519 $100 $171 forward 7 unknown #
coedge $-1 $172 $51 $168 $173 reversed $81 $-1 #
coedge $-1 $51 $174 $53 $107 reversed $81 $-1 #
vertex $-1 $173 $175 #
straight-curve $-1 -7.500000000000159872 -27.99038105676649835 0 -0 -0 -1 I I #
coedge $-1 $176 $53 $177 $178 reversed $55 $-1 #
edge $-1 $57 -0.5235987755983009251 $179 1.493368717257234746 $53 $180 forward 7 unknown #
coedge $-1 $54 $181 $151 $182 reversed $55 $-1 #
edge $-1 $154 -0.779414956460491859 $56 1.048050535246148311e-14 $54 $183 forward 7 unknown #
face $-1 $184 $55 $2 $-1 $185 reversed single #
point $-1 20.49038105676649835 -20.49038105676660138 0.1698729810778620009 #
point $-1 -7.500000000000159872 -27.99038105676649835 4.499999999999939604 #
coedge $-1 $65 $59 $186 $187 reversed $5 $-1 #
coedge $-1 $188 $189 $59 $115 forward $190 $-1 #
edge $-1 $191 5.053590023763089967 $119 7.561422688652180035 $114 $192 forward 7 unknown #
coedge $-1 $193 $60 $62 $122 forward $118 $-1 #
coedge $-1 $60 $194 $188 $195 forward $118 $-1 #
loop $-1 $-1 $116 $196 #
vertex $-1 $195 $197 #
ellipse-curve $-1 15 15 3 0 0 1 15 0 0 1 I I #
coedge $-1 $62 $145 $198 $199 reversed $20 $-1 #
edge $-1 $63 -0.5235987755983017022 $200 1.099580279046411757 $116 $201 forward 7 unknown #
point $-1 7.499999999999960032 27.99038105676660138 3 #
coedge $-1 $66 $156 $68 $127 reversed $91 $-1 #
ellipse-curve $-1 15 15 -3 0 0 -1 15 0 0 1 I I #
coedge $-1 $69 $68 $202 $203 reversed $70 $-1 #
edge $-1 $71 29.94004955670794743 $204 60.00000000000004974 $124 $205 forward 7 unknown #
point $-1 29.94004955670790125 13.66025403784449921 -3 #
coedge $-1 $206 $73 $207 $208 reversed $35 $-1 #
coedge $-1 $202 $209 $73 $131 forward $210 $-1 #
edge $-1 $211 -29.74519052838342503 $132 2.915063509460938729 $130 $212 forward 7 unknown #
vertex $-1 $203 $213 #
straight-curve $-1 -5.642322540409810167e-14 16.16025403784439973 -2.330127018922190096 -1 -3.491481338843129805e-15 0 I I #
coedge $-1 $75 $206 $214 $215 reversed $35 $-1 #
edge $-1 $216 -0.7794149564604806457 $136 3.611925573447174946e-15 $75 $217 forward 7 unknown #
vertex $-1 $76 $218 #
ellipse-curve $-1 -5.490381056766629797 20.49038105676660138 0.1698729810777959981 -1.74574066942157003e-15 0.5000000000000009992 -0.8660254037844380415 -5.062616992290710038e-14 15 8.660254037844410391 0.8660254037844380415 I I #
face $-1 $219 $210 $2 $-1 $220 reversed single #
plane-surface $-1 -1.128464508081960014e-13 32.32050807568879947 7.000000000000020428 -1.74574066942157003e-15 0.5000000000000009992 -0.8660254037844380415 -3.02371153627746015e-15 0.8660254037844380415 0.5000000000000009992 reverse_v I I I I #
face $-1 $221 $91 $2 $-1 $222 reversed single #
cone-surface $-1 -4.769452205699029983e-14 13.66025403784439973 2 -1 -3.491481338843129805e-15 -0 -4.518309330563270325e-15 1.294095225512609915 -4.829629131445339674 1 I I -0 1 5 reversed I I I I #
coedge $-1 $174 $223 $224 $225 reversed $81 $-1 #
coedge $-1 $226 $83 $227 $228 reversed $40 $-1 #
coedge $-1 $83 $229 $84 $146 reversed $40 $-1 #
coedge $-1 $121 $84 $230 $231 reversed $20 $-1 #
edge $-1 $136 -0.1698729810777800109 $232 0.1698729810778210059 $144 $233 forward 7 unknown #
coedge $-1 $186 $96 $85 $148 forward $163 $-1 #
edge $-1 $98 -1.570796326794903219 $149 1.047197551196598297 $147 $234 forward 7 unknown #
vertex $-1 $187 $235 #
straight-curve $-1 27.99038105676660138 7.499999999999960032 0 0 0 1 I I #
coedge $-1 $236 $88 $108 $182 forward $153 $-1 #
coedge $-1 $88 $236 $90 $157 forward $153 $-1 #
loop $-1 $-1 $88 $221 #
vertex $-1 $109 $237 #
intcurve-curve $-1 forward { surfintcur full nubs 3 open 4 
	7.925318154697209572 3 9.243040027748330445 2 10.56076190079940069 2 11.08989921366359965 3 
	33.07025289526549727 -13.66025403784430026 -3 
	32.83101688799399653 -14.02862675521689972 -3 
	32.5679107183682035 -14.39764665278480038 -2.958845777386370113 
	32.00712840347220123 -15.11174445631259999 -2.798653444548250047 
	31.70945103495920137 -15.45685219681599953 -2.679752642338430135 
	31.28153109244630059 -15.91069866962589963 -2.467226732672919809 
	31.15768809765030056 -16.03737701508190128 -2.401070101091269837 
	31.03333180917309875 -16.16025403784430026 -2.330127018922190096 
	0.001000000000000000021 
	cone 4.769452205699029983e-14 -13.66025403784439973 2 1 3.491481338843129805e-15 -0 4.518309330563270325e-15 -1.294095225512609915 -4.829629131445339674 1 I I 0 -1 5 reversed I I I I 
	cone 20.49038105676660138 -5.490381056766629797 0 0 0 1 7.499999999999969802 -12.9903810567665996 0 1 I I -0 -1 15.00000000000000178 forward I I I I 
	nullbs 
	nullbs 
	I I 
	0 
	0 
	0 
	} I I #
coedge $-1 $124 $90 $238 $239 reversed $91 $-1 #
edge $-1 $240 -59.99999999999995026 $93 -33.07025289526544753 $90 $241 forward 7 unknown #
point $-1 27.99038105676660138 7.499999999999960032 -3 #
point $-1 33.07025289526549727 -13.66025403784430026 -3 #
coedge $-1 $242 $243 $95 $161 forward $244 $-1 #
edge $-1 $170 25.23812938225880131 $164 28.40271044122509991 $160 $245 forward 7 unknown #
coedge $-1 $96 $246 $242 $247 forward $163 $-1 #
loop $-1 $-1 $186 $248 #
vertex $-1 $247 $249 #
ellipse-curve $-1 5.490381056766490353 -20.49038105676660138 8.490381056766670653 0.5000000000000009992 0 0.8660254037844380415 -15 3.55271367880050014e-15 8.660254037844410391 0.8660254037844380415 I I #
point $-1 20.49038105676649835 -20.49038105676660138 -0.1698729810777389881 #
coedge $-1 $250 $100 $243 $251 forward $169 $-1 #
coedge $-1 $100 $252 $102 $173 forward $169 $-1 #
loop $-1 $-1 $168 $253 #
vertex $-1 $161 $254 #
ellipse-curve $-1 5.490381056766490353 -20.49038105676660138 3 0 0 1 -7.500000000000060396 -12.99038105676650012 0 1 I I #
coedge $-1 $255 $102 $256 $257 reversed $81 $-1 #
edge $-1 $258 1.660231904994766028 $104 2.094395102393198371 $168 $259 forward 7 unknown #
coedge $-1 $103 $142 $260 $261 reversed $81 $-1 #
point $-1 -7.500000000000159872 -27.99038105676649835 3 #
coedge $-1 $262 $106 $263 $264 reversed $55 $-1 #
coedge $-1 $260 $265 $106 $178 forward $266 $-1 #
edge $-1 $267 -60.00000000000005684 $179 -29.95505969789725853 $106 $268 forward 7 unknown #
vertex $-1 $178 $269 #
ellipse-curve $-1 -15.00000000000009948 -14.99999999999990052 -3.000000000000119904 1.74574066942157003e-15 -0.5000000000000009992 -0.8660254037844380415 -1.047444401652940007e-13 -15 8.660254037844410391 0.8660254037844380415 I I #
coedge $-1 $108 $262 $270 $271 reversed $55 $-1 #
edge $-1 $154 31.0333318091730419 $272 59.99999999999994316 $108 $268 forward 7 unknown #
ellipse-curve $-1 20.49038105676660138 -5.490381056766629797 -8.490381056766549861 1.74574066942157003e-15 -0.5000000000000009992 -0.8660254037844380415 5.417888360170760131e-14 -15 8.660254037844410391 0.8660254037844380415 I I #
face $-1 $273 $274 $2 $-1 $275 reversed single #
plane-surface $-1 1.128464508081960014e-13 -32.32050807568879947 7.000000000000020428 1.74574066942157003e-15 -0.5000000000000009992 -0.8660254037844380415 -3.02371153627746015e-15 0.8660254037844380415 -0.5000000000000009992 reverse_v I I I I #
coedge $-1 $276 $147 $113 $187 forward $163 $-1 #
edge $-1 $149 -0.5235987755983008141 $191 1.493368717257252731 $186 $277 forward 7 unknown #
coedge $-1 $278 $114 $117 $195 reversed $190 $-1 #
coedge $-1 $114 $278 $276 $279 reversed $190 $-1 #
loop $-1 $-1 $114 $280 #
vertex $-1 $187 $281 #
intcurve-curve $-1 forward { surfintcur full nubs 3 open 4 
	5.053590023763089967 3 5.676933990131860064 2 6.61917833939202005 2 7.561422688652180035 3 
	16.16025403784439973 29.95505969789709866 2.330127018922190096 
	15.97077857074519969 29.96975971783779968 2.439520730856750141 
	15.77289417622800016 29.98145707816309979 2.537088718727420034 
	15.26209529941800014 30.00086501471109912 2.748130804483759793 
	14.94143909401990022 30.0033491101618992 2.84421070353293981 
	14.29693331271830026 29.98698138833680105 2.970156133287880085 
	13.9730801994549001 29.96810218031420092 3 
	13.66025403784439973 29.94004955670790125 3 
	0.001000000000000000021 
	cone 13.66025403784439973 0 -2 0 -1 0 1.294095225512609915 0 4.829629131445339674 1 I I -0 -1 5 forward I I I I 
	cone 15 15 0 0 0 1 15 0 0 1 I I -0 -1 15 forward I I I I 
	nullbs 
	nullbs 
	I I 
	0 
	0 
	0 
	} I I #
coedge $-1 $194 $116 $282 $283 forward $118 $-1 #
coedge $-1 $117 $193 $284 $285 reversed $118 $-1 #
edge $-1 $286 -60 $119 -29.94004955670790125 $117 $287 forward 7 unknown #
face $-1 $280 $118 $2 $-1 $288 reversed single #
point $-1 13.66025403784439973 29.94004955670790125 3 #
coedge $-1 $289 $282 $121 $199 forward $290 $-1 #
edge $-1 $200 25.23812938225859881 $291 28.40271044122490096 $198 $292 forward 7 unknown #
vertex $-1 $122 $293 #
ellipse-curve $-1 -5.490381056766629797 20.49038105676660138 3 0 0 1 7.499999999999969802 12.9903810567665996 0 1 I I #
coedge $-1 $238 $130 $126 $203 forward $210 $-1 #
edge $-1 $132 -0.2617993877991481866 $204 0.2617993877991507401 $202 $294 forward 7 unknown #
vertex $-1 $239 $295 #
straight-curve $-1 -4.769452205699029983e-14 13.66025403784439973 -3 1 3.491481338843129805e-15 0 I I #
coedge $-1 $134 $129 $296 $297 reversed $35 $-1 #
coedge $-1 $298 $299 $129 $208 forward $300 $-1 #
edge $-1 $301 -59.99999999999984368 $211 60.00000000000015632 $207 $302 forward 7 unknown #
coedge $-1 $130 $303 $298 $304 reversed $210 $-1 #
loop $-1 $-1 $130 $138 #
vertex $-1 $131 $305 #
straight-curve $-1 60 18.68477309068279979 -0.872595264191736053 -0 -0.8660254037844380415 -0.5000000000000009992 I I #
point $-1 60 16.16025403784459868 -2.330127018922190096 #
coedge $-1 $306 $227 $134 $215 forward $307 $-1 #
edge $-1 $216 31.03333180917294243 $308 59.99999999999994316 $134 $133 forward 7 unknown #
vertex $-1 $228 $309 #
ellipse-curve $-1 -20.49038105676660138 5.490381056766490353 -8.490381056766629797 -1.74574066942157003e-15 0.5000000000000009992 -0.8660254037844380415 -5.417888360170760131e-14 15 8.660254037844410391 0.8660254037844380415 I I #
point $-1 -20.49038105676660138 20.49038105676649835 0.1698729810777800109 #
face $-1 $310 $311 $2 $-1 $312 forward single #
plane-surface $-1 60 0 0 -1 0 0 0 -0 1 forward_v I I I I #
face $-1 $110 $153 $2 $-1 $313 reversed single #
plane-surface $-1 0 0 -3 0 0 -1 -3.491481338843129805e-15 1 0 reverse_v I I I I #
coedge $-1 $142 $255 $314 $315 reversed $81 $-1 #
coedge $-1 $316 $317 $142 $225 forward $318 $-1 #
edge $-1 $319 0.08943557819983562196 $320 0.5235987755982814962 $224 $321 forward 7 unknown #
coedge $-1 $314 $143 $316 $322 reversed $40 $-1 #
coedge $-1 $214 $323 $143 $228 forward $307 $-1 #
edge $-1 $324 7.92531815469723 $216 11.08989921366369913 $227 $325 forward 7 unknown #
coedge $-1 $144 $314 $326 $327 reversed $40 $-1 #
coedge $-1 $326 $328 $145 $231 forward $274 $-1 #
edge $-1 $291 2.362177697129307585 $232 3.141592653589800221 $230 $329 forward 7 unknown #
vertex $-1 $231 $330 #
straight-curve $-1 -20.49038105676660138 20.49038105676649835 0 -0 -0 -1 I I #
ellipse-curve $-1 20.49038105676660138 -5.490381056766629797 -0.1698729810777840077 0.5000000000000009992 0 0.8660254037844380415 15 2.664535259100380036e-15 -8.660254037844410391 0.8660254037844380415 I I #
point $-1 27.99038105676660138 7.499999999999960032 -4.499999999999979572 #
coedge $-1 $152 $151 $331 $332 reversed $153 $-1 #
point $-1 31.03333180917309875 -16.16025403784430026 -2.330127018922190096 #
coedge $-1 $331 $202 $156 $239 forward $210 $-1 #
edge $-1 $204 -13.66025403784460046 $240 13.66025403784420078 $238 $333 forward 7 unknown #
vertex $-1 $332 $334 #
straight-curve $-1 4.769452205699029983e-14 -13.66025403784439973 -3 -1 -3.491481338843129805e-15 0 I I #
coedge $-1 $335 $160 $162 $247 reversed $244 $-1 #
coedge $-1 $160 $335 $167 $251 reversed $244 $-1 #
loop $-1 $-1 $160 $336 #
intcurve-curve $-1 forward { surfintcur full nubs 3 open 4 
	25.23812938225880131 3 26.55585125530989998 2 27.87357312836110168 2 28.40271044122509991 3 
	13.66025403784439973 -33.07025289526529832 3 
	14.02862675521710045 -32.83101688799389706 3 
	14.39764665278499933 -32.56791071836799745 2.958845777386350129 
	15.11174445631280072 -32.00712840347200228 2.798653444548230063 
	15.45685219681620026 -31.70945103495899886 2.679752642338399937 
	15.91069866962610035 -31.28153109244599861 2.467226732672899825 
	16.03737701508200075 -31.15768809765010161 2.401070101091260067 
	16.16025403784439973 -31.0333318091728998 2.330127018922190096 
	0.001000000000000000021 
	cone 13.66025403784439973 0 -2 0 -1 0 1.294095225512609915 0 4.829629131445339674 1 I I -0 -1 5 forward I I I I 
	cone 5.490381056766490353 -20.49038105676660138 0 0 0 1 -7.500000000000060396 -12.99038105676650012 0 1 I I -0 -1 14.99999999999996092 forward I I I I 
	nullbs 
	nullbs 
	I I 
	0 
	0 
	0 
	} I I #
coedge $-1 $162 $337 $338 $339 reversed $163 $-1 #
edge $-1 $340 -60 $164 -31.0333318091728998 $162 $341 forward 7 unknown #
face $-1 $342 $163 $2 $-1 $343 reversed single #
point $-1 16.16025403784439973 -31.0333318091728998 2.330127018922190096 #
coedge $-1 $252 $167 $344 $345 reversed $169 $-1 #
edge $-1 $170 33.07025289526529832 $346 60 $167 $287 forward 7 unknown #
coedge $-1 $168 $250 $347 $348 forward $169 $-1 #
face $-1 $336 $169 $2 $-1 $288 reversed single #
point $-1 13.66025403784439973 -33.07025289526529832 3 #
coedge $-1 $223 $172 $349 $350 reversed $81 $-1 #
coedge $-1 $347 $351 $172 $257 forward $352 $-1 #
edge $-1 $353 5.053590023763089967 $258 7.561422688652180035 $256 $354 forward 7 unknown #
vertex $-1 $348 $355 #
ellipse-curve $-1 -15.00000000000009948 -14.99999999999990052 3 0 0 1 -15 1.047444401652940007e-13 0 1 I I #
coedge $-1 $356 $177 $174 $261 forward $266 $-1 #
edge $-1 $179 20.28351954650910116 $319 22.79135221139819834 $260 $357 forward 7 unknown #
coedge $-1 $181 $176 $358 $359 reversed $55 $-1 #
coedge $-1 $360 $361 $176 $264 forward $362 $-1 #
edge $-1 $363 -29.74519052838342503 $267 2.915063509460938729 $263 $364 forward 7 unknown #
coedge $-1 $177 $356 $360 $365 reversed $266 $-1 #
loop $-1 $-1 $260 $366 #
vertex $-1 $365 $367 #
straight-curve $-1 5.642322540409810167e-14 -16.16025403784439973 -2.330127018922190096 1 3.491481338843129805e-15 0 I I #
point $-1 -29.95505969789720169 -16.16025403784449921 -2.330127018922190096 #
coedge $-1 $368 $331 $181 $271 forward $210 $-1 #
edge $-1 $272 -2.915063509461287339 $369 29.74519052838306976 $270 $370 forward 7 unknown #
vertex $-1 $332 $371 #
face $-1 $253 $352 $2 $-1 $372 reversed single #
loop $-1 $-1 $230 $184 #
plane-surface $-1 -32.32050807568879947 0 -7.000000000000020428 -0.5000000000000009992 0 0.8660254037844380415 0.8660254037844380415 0 0.5000000000000009992 forward_v I I I I #
coedge $-1 $373 $186 $189 $279 forward $163 $-1 #
ellipse-curve $-1 15 15 3.000000000000019984 0.5000000000000009992 0 0.8660254037844380415 15 0 -8.660254037844410391 0.8660254037844380415 I I #
coedge $-1 $189 $188 $374 $375 reversed $190 $-1 #
edge $-1 $191 29.95505969789709866 $376 60 $276 $341 forward 7 unknown #
face $-1 $377 $190 $2 $-1 $378 reversed single #
point $-1 16.16025403784439973 29.95505969789709866 2.330127018922190096 #
coedge $-1 $198 $379 $193 $283 reversed $290 $-1 #
edge $-1 $200 33.0702528952653978 $380 60 $193 $381 forward 7 unknown #
coedge $-1 $382 $374 $194 $285 forward $383 $-1 #
edge $-1 $286 -13.66025403784439973 $380 13.66025403784439973 $284 $384 forward 7 unknown #
vertex $-1 $285 $385 #
straight-curve $-1 13.66025403784439973 0 3 -0 -1 -0 I I #
plane-surface $-1 0 0 3 0 0 1 1 0 0 forward_v I I I I #
coedge $-1 $379 $198 $328 $386 reversed $290 $-1 #
loop $-1 $-1 $198 $342 #
vertex $-1 $386 $387 #
intcurve-curve $-1 forward { surfintcur full nubs 3 open 4 
	25.23812938225859881 3 26.55585125530970103 2 27.87357312836089918 2 28.40271044122490096 3 
	-13.66025403784439973 33.0702528952653978 3 
	-14.02862675521710045 32.83101688799389706 3 
	-14.39764665278499933 32.56791071836809692 2.958845777386350129 
	-15.11174445631280072 32.00712840347200228 2.798653444548230063 
	-15.45685219681620026 31.70945103495909834 2.679752642338399937 
	-15.91069866962610035 31.28153109244610164 2.467226732672899825 
	-16.03737701508200075 31.15768809765020109 2.401070101091260067 
	-16.16025403784439973 31.03333180917299927 2.330127018922190096 
	0.001000000000000000021 
	cone -13.66025403784439973 0 -2 0 1 0 -1.294095225512609915 0 4.829629131445339674 1 I I -0 -1 5 forward I I I I 
	cone -5.490381056766629797 20.49038105676660138 0 0 0 1 7.499999999999969802 12.9903810567665996 0 1 I I -0 -1 15.00000000000000178 forward I I I I 
	nullbs 
	nullbs 
	I I 
	0 
	0 
	0 
	} I I #
point $-1 -13.66025403784439973 33.0702528952653978 3 #
ellipse-curve $-1 60 13.66025403784460046 2 -1 0 0 -4.518309330563270325e-15 1.294095225512609915 -4.829629131445339674 1 I I #
point $-1 60 13.66025403784460046 -3 #
coedge $-1 $388 $389 $206 $297 forward $362 $-1 #
edge $-1 $308 -2.915063509461287339 $301 29.74519052838306976 $296 $390 forward 7 unknown #
coedge $-1 $391 $207 $209 $304 forward $300 $-1 #
coedge $-1 $207 $391 $388 $392 forward $300 $-1 #
loop $-1 $-1 $207 $310 #
vertex $-1 $392 $393 #
straight-curve $-1 -1.551784123160799891e-13 44.44486372867090296 14 1 3.491481338843129805e-15 -0 I I #
coedge $-1 $209 $394 $395 $396 reversed $210 $-1 #
edge $-1 $211 44.44486372867110191 $397 60 $209 $398 forward 7 unknown #
point $-1 60 44.44486372867110191 14 #
coedge $-1 $323 $214 $389 $399 reversed $307 $-1 #
loop $-1 $-1 $227 $377 #
vertex $-1 $399 $400 #
point $-1 -31.03333180917299927 16.16025403784430026 -2.330127018922190096 #
face $-1 $401 $300 $2 $-1 $312 forward single #
loop $-1 $-1 $358 $219 #
plane-surface $-1 0 0 14 0 0 1 1 0 0 forward_v I I I I #
cone-surface $-1 4.769452205699029983e-14 -13.66025403784439973 2 1 3.491481338843129805e-15 -0 4.518309330563270325e-15 -1.294095225512609915 -4.829629131445339674 1 I I -0 1 5 reversed I I I I #
coedge $-1 $229 $226 $223 $315 forward $40 $-1 #
edge $-1 $320 3 $402 4.500000000000100364 $223 $403 forward 7 unknown #
coedge $-1 $404 $224 $226 $322 forward $318 $-1 #
coedge $-1 $224 $405 $356 $406 reversed $318 $-1 #
loop $-1 $-1 $316 $407 #
vertex $-1 $261 $408 #
vertex $-1 $322 $409 #
ellipse-curve $-1 -15.00000000000009948 -14.99999999999990052 -3 0 0 -1 -15 1.047444401652940007e-13 0 1 I I #
edge $-1 $320 -2.094395102393175279 $324 -0.4712160477484740317 $316 $410 forward 7 unknown #
coedge $-1 $227 $306 $404 $411 forward $307 $-1 #
vertex $-1 $411 $412 #
intcurve-curve $-1 forward { surfintcur full nubs 3 open 4 
	7.92531815469723 3 9.243040027748369525 2 10.56076190079950017 2 11.08989921366369913 3 
	-33.0702528952653978 13.66025403784430026 -3 
	-32.83101688799389706 14.02862675521689972 -3 
	-32.56791071836809692 14.39764665278489986 -2.958845777386359899 
	-32.00712840347210175 15.11174445631259999 -2.798653444548250047 
	-31.70945103495909834 15.45685219681610079 -2.679752642338419921 
	-31.28153109244610164 15.91069866962589963 -2.467226732672919809 
	-31.15768809765020109 16.03737701508190128 -2.401070101091269837 
	-31.03333180917299927 16.16025403784430026 -2.330127018922190096 
	0.001000000000000000021 
	cone -4.769452205699029983e-14 13.66025403784439973 2 -1 -3.491481338843129805e-15 -0 -4.518309330563270325e-15 1.294095225512609915 -4.829629131445339674 1 I I 0 -1 5 reversed I I I I 
	cone -20.49038105676660138 5.490381056766490353 0 0 0 1 -7.500000000000060396 12.99038105676650012 0 1 I I -0 -1 14.99999999999996092 forward I I I I 
	nullbs 
	nullbs 
	I I 
	0 
	0 
	0 
	} I I #
coedge $-1 $349 $230 $229 $327 forward $274 $-1 #
edge $-1 $232 -1.570796326794896558 $402 1.047197551196584087 $326 $413 forward 7 unknown #
coedge $-1 $230 $414 $289 $386 forward $274 $-1 #
ellipse-curve $-1 -5.490381056766629797 20.49038105676660138 8.490381056766590717 -0.5000000000000009992 0 0.8660254037844380415 15 -2.664535259100380036e-15 8.660254037844410391 0.8660254037844380415 I I #
point $-1 -20.49038105676660138 20.49038105676649835 -0.1698729810778210059 #
coedge $-1 $270 $238 $236 $332 forward $210 $-1 #
edge $-1 $240 -0.2617993877991507401 $272 0.2617993877991485197 $331 $415 forward 7 unknown #
straight-curve $-1 60 0 -3 -0 -1 -0 I I #
point $-1 60 -13.66025403784420078 -3 #
coedge $-1 $243 $242 $416 $417 reversed $244 $-1 #
face $-1 $248 $244 $2 $-1 $378 reversed single #
coedge $-1 $246 $373 $418 $419 reversed $163 $-1 #
coedge $-1 $420 $416 $246 $339 forward $421 $-1 #
edge $-1 $340 -2.915063509461069735 $422 29.74519052838329713 $338 $423 forward 7 unknown #
vertex $-1 $417 $424 #
straight-curve $-1 16.16025403784439973 0 2.330127018922190096 0 1 0 I I #
face $-1 $196 $290 $2 $-1 $372 reversed single #
plane-surface $-1 32.32050807568879947 0 -7.000000000000020428 0.5000000000000009992 0 0.8660254037844380415 0.8660254037844380415 0 -0.5000000000000009992 forward_v I I I I #
coedge $-1 $416 $425 $250 $345 forward $421 $-1 #
edge $-1 $426 -13.66025403784439973 $346 13.66025403784439973 $344 $427 forward 7 unknown #
vertex $-1 $345 $428 #
coedge $-1 $429 $256 $252 $348 reversed $352 $-1 #
edge $-1 $426 -60 $258 -29.94004955670780177 $252 $381 forward 7 unknown #
coedge $-1 $430 $326 $255 $350 forward $274 $-1 #
edge $-1 $402 -0.5235987755982824954 $353 1.493368717257264722 $349 $431 forward 7 unknown #
coedge $-1 $256 $429 $430 $432 reversed $352 $-1 #
loop $-1 $-1 $256 $273 #
vertex $-1 $257 $433 #
intcurve-curve $-1 forward { surfintcur full nubs 3 open 4 
	5.053590023763089967 3 5.676933990131860064 2 6.61917833939202005 2 7.561422688652180035 3 
	-16.16025403784439973 -29.95505969789699918 2.330127018922190096 
	-15.97077857074519969 -29.96975971783770021 2.439520730856750141 
	-15.77289417622800016 -29.98145707816300032 2.537088718727420034 
	-15.26209529941800014 -30.00086501471099965 2.748130804483759793 
	-14.94143909401990022 -30.00334911016179973 2.84421070353293981 
	-14.29693331271830026 -29.98698138833670157 2.970156133287880085 
	-13.9730801994549001 -29.96810218031410145 3 
	-13.66025403784439973 -29.94004955670780177 3 
	0.001000000000000000021 
	cone -13.66025403784439973 0 -2 0 1 0 -1.294095225512609915 0 4.829629131445339674 1 I I -0 -1 5 forward I I I I 
	cone -15.00000000000009948 -14.99999999999990052 0 0 0 1 -15 1.047444401652940007e-13 0 1 I I -0 -1 15 forward I I I I 
	nullbs 
	nullbs 
	I I 
	0 
	0 
	0 
	} I I #
point $-1 -13.66025403784439973 -29.94004955670780177 3 #
coedge $-1 $265 $260 $317 $406 forward $266 $-1 #
intcurve-curve $-1 forward { surfintcur full nubs 3 open 4 
	20.28351954650910116 3 20.90686351287790146 2 21.84910786213810141 2 22.79135221139819834 3 
	-29.95505969789720169 -16.16025403784449921 -2.330127018922190096 
	-29.96975971783789916 -15.97077857074529916 -2.439520730856759911 
	-29.98145707816319927 -15.77289417622800016 -2.537088718727440018 
	-30.0008650147111986 -15.26209529941800014 -2.748130804483780221 
	-30.00334911016210171 -14.9414390940199997 -2.844210703532959794 
	-29.98698138833690052 -14.29693331271839973 -2.970156133287880085 
	-29.96810218031439987 -13.97308019945510082 -3 
	-29.94004955670800072 -13.66025403784449921 -3 
	0.001000000000000000021 
	cone 4.769452205699029983e-14 -13.66025403784439973 2 1 3.491481338843129805e-15 -0 4.518309330563270325e-15 -1.294095225512609915 -4.829629131445339674 1 I I 0 -1 5 reversed I I I I 
	cone -15.00000000000009948 -14.99999999999990052 0 0 0 1 -15 1.047444401652940007e-13 0 1 I I -0 -1 15 forward I I I I 
	nullbs 
	nullbs 
	I I 
	0 
	0 
	0 
	} I I #
coedge $-1 $434 $435 $262 $359 forward $311 $-1 #
edge $-1 $369 -59.99999999999984368 $363 60.00000000000015632 $358 $436 forward 7 unknown #
coedge $-1 $437 $263 $265 $365 forward $362 $-1 #
coedge $-1 $263 $438 $434 $439 reversed $362 $-1 #
loop $-1 $-1 $296 $440 #
vertex $-1 $359 $441 #
straight-curve $-1 -60 -18.68477309068279979 -0.872595264191736053 0 0.8660254037844380415 -0.5000000000000009992 I I #
edge $-1 $267 -0.2617993877991481866 $442 0.2617993877991507401 $360 $443 forward 7 unknown #
face $-1 $444 $266 $2 $-1 $313 reversed single #
point $-1 -60 -16.16025403784459868 -2.330127018922190096 #
coedge $-1 $445 $270 $435 $446 reversed $210 $-1 #
vertex $-1 $446 $447 #
straight-curve $-1 60 -18.68477309068270031 -0.8725952641915559749 0 -0.8660254037844380415 0.5000000000000009992 I I #
point $-1 60 -16.16025403784420078 -2.330127018922190096 #
cone-surface $-1 -13.66025403784439973 0 -2 0 1 0 -1.294095225512609915 0 4.829629131445339674 1 I I 0 1 5 forward I I I I #
coedge $-1 $337 $276 $448 $449 reversed $163 $-1 #
coedge $-1 $284 $448 $278 $375 forward $383 $-1 #
edge $-1 $376 -0.2617993877991485197 $286 0.2617993877991507401 $374 $450 forward 7 unknown #
vertex $-1 $375 $451 #
face $-1 $407 $307 $2 $-1 $141 reversed single #
cone-surface $-1 13.66025403784439973 0 -2 0 -1 0 1.294095225512609915 0 4.829629131445339674 1 I I 0 1 5 forward I I I I #
coedge $-1 $282 $289 $382 $452 reversed $290 $-1 #
vertex $-1 $452 $453 #
straight-curve $-1 -13.66025403784439973 0 3 0 1 0 I I #
coedge $-1 $454 $284 $379 $452 forward $383 $-1 #
loop $-1 $-1 $448 $444 #
straight-curve $-1 0 60 3 -1 0 0 I I #
point $-1 13.66025403784439973 60 3 #
edge $-1 $455 -60 $291 -31.03333180917299927 $328 $456 forward 7 unknown #
point $-1 -16.16025403784439973 31.03333180917299927 2.330127018922190096 #
coedge $-1 $457 $296 $299 $392 reversed $362 $-1 #
coedge $-1 $296 $437 $306 $399 forward $362 $-1 #
straight-curve $-1 -60 18.68477309068270031 -0.8725952641915559749 -0 0.8660254037844380415 0.5000000000000009992 I I #
coedge $-1 $299 $298 $458 $459 forward $300 $-1 #
edge $-1 $460 -60 $301 -44.4448637286706969 $388 $461 forward 7 unknown #
point $-1 -60 44.4448637286706969 14 #
coedge $-1 $303 $445 $462 $463 reversed $210 $-1 #
coedge $-1 $464 $458 $303 $396 forward $383 $-1 #
edge $-1 $397 -14 $465 14 $303 $466 forward 7 unknown #
vertex $-1 $304 $467 #
straight-curve $-1 60 0 14 0 1 0 I I #
edge $-1 $468 -0.2617993877991507401 $308 0.2617993877991485197 $389 $469 forward 7 unknown #
point $-1 -60 16.16025403784420078 -2.330127018922190096 #
face $-1 $440 $421 $2 $-1 $470 reversed single #
vertex $-1 $327 $471 #
straight-curve $-1 -27.99038105676680033 -7.50000000000000977 0 -0 -0 -1 I I #
coedge $-1 $405 $316 $323 $411 reversed $318 $-1 #
coedge $-1 $317 $404 $437 $472 reversed $318 $-1 #
edge $-1 $319 29.94004955670804691 $442 60.00000000000004974 $317 $241 forward 7 unknown #
face $-1 $366 $318 $2 $-1 $222 reversed single #
point $-1 -29.94004955670800072 -13.66025403784449921 -3 #
point $-1 -27.99038105676680033 -7.50000000000000977 -3 #
ellipse-curve $-1 -20.49038105676660138 5.490381056766490353 -3 0 0 -1 -7.500000000000060396 12.99038105676650012 0 1 I I #
edge $-1 $468 -59.99999999999995026 $324 -33.07025289526534806 $404 $205 forward 7 unknown #
point $-1 -33.0702528952653978 13.66025403784430026 -3 #
ellipse-curve $-1 -20.49038105676660138 5.490381056766490353 -0.1698729810778089877 -0.5000000000000009992 0 0.8660254037844380415 -15 -3.55271367880050014e-15 -8.660254037844410391 0.8660254037844380415 I I #
coedge $-1 $328 $473 $454 $474 reversed $274 $-1 #
ellipse-curve $-1 60 -13.66025403784420078 2 -1 0 0 4.518309330563270325e-15 -1.294095225512609915 -4.829629131445339674 1 I I #
coedge $-1 $338 $344 $335 $417 forward $421 $-1 #
edge $-1 $346 -0.2617993877991507401 $340 0.2617993877991485197 $416 $475 forward 7 unknown #
coedge $-1 $476 $477 $337 $419 forward $478 $-1 #
edge $-1 $422 -60 $479 60 $418 $480 forward 7 unknown #
coedge $-1 $481 $338 $477 $482 reversed $421 $-1 #
loop $-1 $-1 $338 $401 #
vertex $-1 $482 $483 #
straight-curve $-1 18.68477309068270031 -60 0.872595264191646014 0.8660254037844380415 -0 -0.5000000000000009992 I I #
point $-1 16.16025403784439973 -60 2.330127018922190096 #
coedge $-1 $344 $484 $429 $485 forward $421 $-1 #
vertex $-1 $485 $486 #
straight-curve $-1 0 -60 3 1 -0 0 I I #
point $-1 13.66025403784439973 -60 3 #
coedge $-1 $351 $347 $425 $485 reversed $352 $-1 #
coedge $-1 $487 $349 $351 $432 forward $274 $-1 #
ellipse-curve $-1 -15.00000000000009948 -14.99999999999990052 2.999999999999960032 -0.5000000000000009992 0 0.8660254037844380415 -15 1.047444401652940007e-13 -8.660254037844410391 0.8660254037844380415 I I #
edge $-1 $353 29.95505969789699918 $488 60 $430 $456 forward 7 unknown #
point $-1 -16.16025403784439973 -29.95505969789699918 2.330127018922190096 #
coedge $-1 $489 $358 $361 $439 forward $311 $-1 #
coedge $-1 $358 $489 $368 $446 forward $311 $-1 #
straight-curve $-1 1.551784123160799891e-13 -44.44486372867090296 14 -1 -3.491481338843129805e-15 0 I I #
coedge $-1 $389 $360 $405 $472 forward $362 $-1 #
coedge $-1 $361 $490 $491 $492 reversed $362 $-1 #
edge $-1 $363 44.44486372867110191 $493 60 $361 $461 forward 7 unknown #
face $-1 $-1 $362 $2 $-1 $494 reversed single #
point $-1 -60 -44.44486372867110191 14 #
vertex $-1 $365 $495 #
ellipse-curve $-1 -60 -13.66025403784460046 2 1 0 0 4.518309330563270325e-15 -1.294095225512609915 -4.829629131445339674 1 I I #
face $-1 $496 $383 $2 $-1 $497 reversed single #
coedge $-1 $394 $368 $481 $498 forward $210 $-1 #
edge $-1 $499 -60 $369 -44.4448637286706969 $368 $398 forward 7 unknown #
point $-1 60 -44.4448637286706969 14 #
coedge $-1 $374 $464 $373 $449 forward $383 $-1 #
edge $-1 $479 -29.74519052838329713 $376 2.915063509461069735 $448 $500 forward 7 unknown #
ellipse-curve $-1 13.66025403784439973 60 -2 0 -1 0 1.294095225512609915 0 4.829629131445339674 1 I I #
point $-1 16.16025403784439973 60 2.330127018922190096 #
edge $-1 $380 -0.2617993877991507401 $455 0.2617993877991485197 $382 $501 forward 7 unknown #
point $-1 -13.66025403784439973 60 3 #
coedge $-1 $502 $382 $414 $474 forward $383 $-1 #
vertex $-1 $452 $503 #
straight-curve $-1 -16.16025403784439973 0 2.330127018922190096 0 -1 0 I I #
coedge $-1 $490 $388 $504 $505 forward $362 $-1 #
coedge $-1 $395 $504 $391 $459 reversed $383 $-1 #
edge $-1 $397 -60 $460 60 $458 $506 forward 7 unknown #
vertex $-1 $459 $507 #
straight-curve $-1 -60 0 14 0 -1 0 I I #
coedge $-1 $477 $476 $394 $463 forward $478 $-1 #
edge $-1 $465 -60 $508 60 $394 $509 forward 7 unknown #
coedge $-1 $448 $395 $476 $510 reversed $383 $-1 #
vertex $-1 $463 $511 #
straight-curve $-1 60 60 0 0 0 -1 I I #
point $-1 60 60 14 #
vertex $-1 $472 $512 #
ellipse-curve $-1 -60 13.66025403784420078 2 1 0 0 -4.518309330563270325e-15 1.294095225512609915 -4.829629131445339674 1 I I #
plane-surface $-1 0 -60 0 0 1 -0 -0 0 1 forward_v I I I I #
point $-1 -27.99038105676680033 -7.50000000000000977 -4.500000000000100364 #
edge $-1 $442 -13.66025403784460046 $468 13.66025403784420078 $437 $513 forward 7 unknown #
coedge $-1 $414 $487 $514 $515 reversed $274 $-1 #
edge $-1 $455 -2.915063509461069735 $516 29.74519052838329713 $454 $517 forward 7 unknown #
ellipse-curve $-1 13.66025403784439973 -60 -2 0 1 -0 1.294095225512609915 0 4.829629131445339674 1 I I #
coedge $-1 $462 $418 $464 $510 forward $478 $-1 #
coedge $-1 $418 $462 $420 $482 forward $478 $-1 #
loop $-1 $-1 $418 $518 #
vertex $-1 $449 $519 #
straight-curve $-1 44.44486372867090296 0 -14 0 1 0 I I #
coedge $-1 $520 $420 $445 $498 reversed $421 $-1 #
edge $-1 $508 -60 $422 -44.44486372867090296 $420 $521 forward 7 unknown #
point $-1 44.44486372867090296 -60 -14 #
coedge $-1 $425 $522 $487 $523 forward $421 $-1 #
edge $-1 $488 -0.2617993877991485197 $426 0.2617993877991507401 $425 $524 forward 7 unknown #
point $-1 -13.66025403784439973 -60 3 #
coedge $-1 $473 $430 $484 $523 reversed $274 $-1 #
vertex $-1 $485 $525 #
coedge $-1 $435 $434 $520 $526 forward $311 $-1 #
coedge $-1 $438 $457 $527 $528 reversed $362 $-1 #
coedge $-1 $522 $520 $438 $492 forward $421 $-1 #
edge $-1 $493 -14 $529 14 $438 $530 forward 7 unknown #
vertex $-1 $439 $531 #
plane-surface $-1 -60 0 0 1 0 0 0 0 -1 forward_v I I I I #
point $-1 -60 -13.66025403784460046 -3 #
face $-1 $518 $532 $2 $-1 $533 reversed single #
plane-surface $-1 0 60 0 0 -1 0 0 0 -1 forward_v I I I I #
edge $-1 $499 -14 $508 14 $445 $534 forward 7 unknown #
vertex $-1 $446 $535 #
straight-curve $-1 18.68477309068270031 60 0.872595264191646014 -0.8660254037844380415 0 0.5000000000000009992 I I #
ellipse-curve $-1 -13.66025403784439973 60 -2 0 -1 0 -1.294095225512609915 0 4.829629131445339674 1 I I #
coedge $-1 $504 $454 $536 $537 reversed $383 $-1 #
point $-1 -16.16025403784439973 60 2.330127018922190096 #
coedge $-1 $458 $502 $457 $505 reversed $383 $-1 #
edge $-1 $460 -14 $538 14 $504 $539 forward 7 unknown #
straight-curve $-1 0 60 14 -1 0 0 I I #
point $-1 -60 60 14 #
vertex $-1 $498 $540 #
straight-curve $-1 60 0 -14 0 -1 0 I I #
edge $-1 $479 44.44486372867090296 $465 60 $464 $541 forward 7 unknown #
point $-1 60 60 -14 #
point $-1 -60 13.66025403784420078 -3 #
straight-curve $-1 -60 0 -3 -0 1 0 I I #
coedge $-1 $542 $536 $473 $515 forward $532 $-1 #
edge $-1 $516 -60 $543 60 $514 $544 forward 7 unknown #
vertex $-1 $537 $545 #
straight-curve $-1 -18.68477309068270031 60 0.872595264191646014 -0.8660254037844380415 -0 -0.5000000000000009992 I I #
face $-1 $77 $478 $2 $-1 $533 reversed single #
point $-1 44.44486372867090296 60 -14 #
coedge $-1 $491 $481 $489 $526 reversed $421 $-1 #
straight-curve $-1 0 -60 -14 -1 0 0 I I #
coedge $-1 $484 $491 $542 $546 reversed $421 $-1 #
edge $-1 $543 -29.74519052838329713 $488 2.915063509461069735 $484 $547 forward 7 unknown #
ellipse-curve $-1 -13.66025403784439973 -60 -2 0 1 -0 -1.294095225512609915 0 4.829629131445339674 1 I I #
point $-1 -16.16025403784439973 -60 2.330127018922190096 #
edge $-1 $493 -60 $499 60 $520 $548 forward 7 unknown #
coedge $-1 $536 $542 $490 $528 forward $532 $-1 #
edge $-1 $529 -60 $538 60 $490 $549 forward 7 unknown #
vertex $-1 $528 $550 #
straight-curve $-1 -60 -60 0 0 0 -1 I I #
point $-1 -60 -60 14 #
loop $-1 $-1 $514 $496 #
plane-surface $-1 0 0 -14 0 0 1 1 0 0 forward_v I I I I #
straight-curve $-1 60 -60 0 0 0 -1 I I #
point $-1 60 -60 14 #
coedge $-1 $514 $527 $502 $537 forward $532 $-1 #
edge $-1 $538 -60 $516 -44.44486372867090296 $502 $541 forward 7 unknown #
vertex $-1 $537 $551 #
straight-curve $-1 -60 60 0 0 0 -1 I I #
point $-1 60 -60 -14 #
straight-curve $-1 0 60 -14 1 0 0 I I #
coedge $-1 $527 $514 $522 $546 forward $532 $-1 #
vertex $-1 $515 $552 #
straight-curve $-1 -44.44486372867090296 0 -14 0 -1 0 I I #
point $-1 -44.44486372867090296 60 -14 #
edge $-1 $543 44.44486372867090296 $529 60 $522 $521 forward 7 unknown #
straight-curve $-1 -18.68477309068270031 -60 0.872595264191646014 0.8660254037844380415 0 0.5000000000000009992 I I #
straight-curve $-1 0 -60 14 1 0 0 I I #
straight-curve $-1 -60 0 -14 0 1 0 I I #
point $-1 -60 -60 -14 #
point $-1 -60 60 -14 #
point $-1 -44.44486372867090296 -60 -14 #
End-of-ACIS-data 