600 0 2 0           
24 FBMach with ACIS - 6.0.3 13 ACIS 6.0.3 NT 24 Tue May 22 12:29:32 2001 
1 9.9999999999999995e-007 1e-010 
body $2 $3 $-1 $4 #
bdycol-kcp $-1 1 2 $5 $6 #
model_id-kcp-attrib $-1 $-1 $-1 $0 1 990548966 110 -127008767 1 #
lump $-1 $-1 $7 $0 #
transform $-1 1 0 0 0 1 0 0 0 1 0 0 0 1 no_rotate no_reflect no_shear #
body $8 $9 $-1 $10 #
body $11 $12 $-1 $13 #
shell $-1 $-1 $-1 $14 $-1 $3 #
model_id-kcp-attrib $-1 $-1 $-1 $5 1 990548966 110 -127008766 1 #
lump $-1 $-1 $15 $5 #
transform $-1 1 0 0 0 1 0 0 0 1 0 0 -1.1546319456101628e-014 1 no_rotate no_reflect no_shear #
rgb_color-st-attrib $-1 $16 $-1 $6 0.5 1 1 #
lump $-1 $-1 $17 $6 #
transform $-1 1 0 0 0 1 0 0 0 1 0 0 -1.1546319456101628e-014 1 no_rotate no_reflect no_shear #
face $18 $19 $20 $7 $-1 $21 reversed single #
shell $-1 $-1 $-1 $22 $-1 $9 #
model_id-kcp-attrib $-1 $-1 $11 $6 1 990548966 450 -121503741 1 #
shell $-1 $-1 $-1 $23 $-1 $12 #
model_id-kcp-attrib $-1 $-1 $-1 $14 1 990548966 110 -127008767 2 #
face $24 $25 $26 $7 $-1 $27 reversed single #
loop $-1 $-1 $28 $14 #
cone-surface $-1 15 15 0 0 0 1 15 0 0 1 I I 0 1 15 forward I I I I #
face $29 $30 $31 $15 $-1 $32 forward single #
face $-1 $33 $34 $17 $-1 $35 reversed single #
model_id-kcp-attrib $-1 $-1 $-1 $19 1 990548966 110 -127008767 3 #
face $36 $37 $38 $7 $-1 $39 reversed single #
loop $-1 $-1 $40 $19 #
cone-surface $-1 5.4903810567664904 -20.490381056766601 0 0 0 1 -7.5000000000000604 -12.9903810567665 0 1 I I 0 1 14.999999999999961 forward I I I I #
coedge $-1 $41 $42 $43 $44 reversed $20 $-1 #
model_id-kcp-attrib $-1 $45 $-1 $22 1 990548966 110 -127008766 7 #
face $46 $47 $48 $15 $-1 $49 reversed single #
loop $-1 $-1 $50 $22 #
plane-surface $-1 0 0 14.000000000000021 0 0 1 1 0 0 forward_v I I I I #
face $-1 $51 $52 $17 $-1 $53 reversed single #
loop $-1 $-1 $54 $23 #
cone-surface $-1 13.660254037844402 60 -1.9999999999999902 0 1 0 -1.7763568394002505e-015 0 5.0000000000000018 1 I I 0 -1 5.0000000000000018 forward I I I I #
model_id-kcp-attrib $-1 $-1 $-1 $25 1 990548966 110 -127008767 4 #
face $55 $56 $57 $7 $-1 $58 reversed single #
loop $-1 $-1 $59 $25 #
cone-surface $-1 20.490381056766601 -5.4903810567666298 0 0 0 1 7.4999999999999698 -12.9903810567666 0 1 I I 0 1 15.000000000000002 forward I I I I #
coedge $-1 $60 $61 $62 $63 reversed $26 $-1 #
coedge $-1 $64 $28 $65 $66 forward $20 $-1 #
coedge $-1 $28 $67 $68 $69 reversed $20 $-1 #
coedge $-1 $70 $71 $28 $44 forward $72 $-1 #
edge $73 $74 -0.52359877559830059 $75 1.493368717257247 $43 $76 forward 7 unknown #
model_id-kcp-attrib $-1 $-1 $29 $22 1 990548966 110 -127008766 6 #
model_id-kcp-attrib $-1 $77 $-1 $30 1 990548966 110 -127008766 4 #
face $78 $79 $80 $15 $-1 $81 reversed single #
loop $-1 $-1 $82 $30 #
plane-surface $-1 0 0 -14.000000000000021 0 0 1 1 0 0 forward_v I I I I #
coedge $-1 $83 $84 $85 $86 forward $31 $-1 #
face $-1 $87 $88 $17 $-1 $89 reversed single #
loop $-1 $-1 $90 $33 #
plane-surface $-1 -20.490381056766608 60 -0.16987298107779925 0.49999999999999789 0 -0.86602540378443993 0 1 0 forward_v I I I I #
coedge $-1 $91 $92 $93 $94 reversed $34 $-1 #
model_id-kcp-attrib $-1 $-1 $-1 $37 1 990548966 110 -127008767 5 #
face $95 $96 $97 $7 $-1 $98 reversed single #
loop $-1 $-1 $99 $37 #
cone-surface $-1 -5.4903810567666298 20.490381056766601 0 0 0 1 7.4999999999999698 12.9903810567666 0 1 I I 0 1 15.000000000000002 forward I I I I #
coedge $-1 $100 $101 $102 $103 reversed $38 $-1 #
coedge $-1 $104 $40 $105 $106 forward $26 $-1 #
coedge $-1 $40 $107 $108 $109 reversed $26 $-1 #
coedge $-1 $110 $111 $40 $63 forward $112 $-1 #
edge $-1 $113 -1.5707963267948928 $114 1.0471975511966094 $62 $115 forward 7 unknown #
coedge $-1 $116 $41 $117 $118 reversed $20 $-1 #
coedge $-1 $99 $119 $41 $66 reversed $57 $-1 #
edge $-1 $74 -4.4999999999999698 $120 -3 $65 $121 forward 7 unknown #
coedge $-1 $42 $122 $123 $124 reversed $20 $-1 #
coedge $-1 $125 $126 $42 $69 forward $127 $-1 #
edge $-1 $75 20.283519546509101 $128 22.791352211398198 $68 $129 forward 7 unknown #
coedge $-1 $130 $43 $126 $131 reversed $72 $-1 #
coedge $-1 $43 $132 $99 $133 forward $72 $-1 #
loop $-1 $-1 $43 $134 #
attrib_edge_convexity-kcp-attrib $-1 $135 $-1 $44 1 #
vertex $-1 $44 $136 #
vertex $-1 $131 $137 #
ellipse-curve $-1 15 15 -3.0000000000000502 -1.74574066942157e-015 0.500000000000001 -0.86602540378443804 0 15 8.6602540378444104 0.86602540378443804 I I #
model_id-kcp-attrib $-1 $-1 $46 $30 1 990548966 110 -127008766 3 #
model_id-kcp-attrib $-1 $-1 $-1 $47 1 990548966 110 -127008766 8 #
face $138 $139 $140 $15 $-1 $141 reversed single #
loop $-1 $-1 $142 $47 #
plane-surface $-1 0 -60 0 0 1 0 0 0 1 forward_v I I I I #
coedge $-1 $143 $144 $145 $146 forward $48 $-1 #
coedge $-1 $147 $50 $148 $149 forward $31 $-1 #
coedge $-1 $50 $147 $150 $151 forward $31 $-1 #
coedge $-1 $152 $153 $50 $86 reversed $154 $-1 #
edge $-1 $155 -60 $156 60 $85 $157 forward 7 unknown #
face $-1 $158 $159 $17 $-1 $160 reversed single #
loop $-1 $-1 $161 $51 #
cone-surface $-1 -13.660254037844402 60 -1.9999999999999902 0 1 0 -2.5000000000000018 0 4.3301270189221945 1 I I 0 -1 5.0000000000000018 forward I I I I #
coedge $-1 $162 $163 $164 $165 reversed $52 $-1 #
coedge $-1 $166 $54 $167 $168 reversed $34 $-1 #
coedge $-1 $54 $166 $169 $170 forward $34 $-1 #
coedge $-1 $171 $172 $54 $94 forward $173 $-1 #
edge $-1 $174 -0.52359877559829826 $175 7.1054273576009993e-016 $93 $176 forward 7 unknown #
model_id-kcp-attrib $-1 $-1 $-1 $56 1 990548966 110 -127008767 6 #
face $177 $178 $179 $7 $-1 $180 reversed single #
loop $-1 $-1 $181 $56 #
cone-surface $-1 -20.490381056766601 5.4903810567664904 0 0 0 1 -7.5000000000000604 12.9903810567665 0 1 I I 0 1 14.999999999999961 forward I I I I #
coedge $-1 $182 $65 $71 $133 reversed $57 $-1 #
coedge $-1 $183 $59 $122 $184 reversed $38 $-1 #
coedge $-1 $59 $185 $186 $187 reversed $38 $-1 #
coedge $-1 $188 $123 $59 $103 forward $189 $-1 #
edge $-1 $190 -2.0943951023931984 $191 -0.47121604774849396 $102 $192 forward 7 unknown #
coedge $-1 $193 $60 $194 $195 reversed $26 $-1 #
coedge $-1 $185 $183 $60 $106 reversed $38 $-1 #
edge $-1 $113 -0.169872981077862 $196 0.16987298107773899 $105 $197 forward 7 unknown #
coedge $-1 $61 $193 $198 $199 reversed $26 $-1 #
coedge $-1 $200 $201 $61 $109 forward $179 $-1 #
edge $-1 $114 -4.4999999999999396 $202 -3 $61 $203 forward 7 unknown #
coedge $-1 $204 $62 $201 $205 forward $112 $-1 #
coedge $-1 $62 $206 $185 $207 forward $112 $-1 #
loop $-1 $-1 $111 $208 #
vertex $-1 $63 $209 #
vertex $-1 $205 $210 #
ellipse-curve $-1 5.4903810567664904 -20.490381056766601 0.16987298107782001 1.74574066942157e-015 -0.500000000000001 -0.86602540378443804 5.06261699229071e-014 -15 8.6602540378444104 0.86602540378443804 I I #
coedge $-1 $211 $64 $212 $213 reversed $20 $-1 #
coedge $-1 $214 $215 $64 $118 forward $216 $-1 #
edge $-1 $217 1.6602319049947525 $120 2.094395102393197 $117 $218 forward 7 unknown #
coedge $-1 $65 $219 $214 $220 reversed $57 $-1 #
vertex $-1 $118 $221 #
straight-curve $-1 7.49999999999996 27.990381056766601 0 0 0 -1 I I #
coedge $-1 $67 $211 $100 $184 forward $20 $-1 #
coedge $-1 $102 $222 $67 $124 forward $189 $-1 #
edge $-1 $128 0.089435578199849208 $190 0.52359877559830048 $123 $223 forward 7 unknown #
coedge $-1 $224 $68 $222 $225 forward $127 $-1 #
coedge $-1 $68 $224 $70 $131 forward $127 $-1 #
loop $-1 $-1 $68 $178 #
vertex $-1 $124 $226 #
intcurve-curve $-1 forward { surfintcur full nubs 3 open 4 
	20.283519546509101 3 20.906863512877901 2 21.849107862138101 2 22.791352211398198 3 
	29.955059697897099 16.160254037844499 -2.3301270189221901 
	29.9697597178378 15.970778570745299 -2.4395207308567599 
	29.9814570781631 15.772894176228 -2.53708871872744 
	30.000865014711099 15.262095299418 -2.7481308044837802 
	30.003349110161899 14.94143909402 -2.8442107035329598 
	29.986981388336801 14.2969333127184 -2.9701561332878801 
	29.968102180314201 13.973080199455101 -3 
	29.940049556707901 13.660254037844499 -3 
	0.001 
	cone -4.76945220569903e-014 13.6602540378444 2 -1 -3.4914813388431298e-015 0 -4.5183093305632703e-015 1.2940952255126099 -4.8296291314453397 1 I I 0 -1 5 reversed I I I I 
	cone 15 15 0 0 0 1 15 0 0 1 I I 0 -1 15 forward I I I I 
	nullbs 
	nullbs 
	I I 
	0 
	0 
	0 
	} I I #
coedge $-1 $227 $70 $228 $229 reversed $72 $-1 #
edge $230 $231 -60.000000000000057 $75 -29.955059697897156 $70 $232 forward 7 unknown #
coedge $-1 $71 $233 $181 $234 forward $72 $-1 #
edge $235 $236 -1.5707963267948997 $74 1.0471975511966016 $71 $237 forward 7 unknown #
face $238 $239 $72 $7 $-1 $240 reversed single #
convexity-sys-attrib $-1 $-1 $73 $44 #
point $-1 7.49999999999996 27.990381056766601 4.4999999999999698 #
point $-1 29.955059697897099 16.160254037844499 -2.3301270189221901 #
model_id-kcp-attrib $-1 $-1 $-1 $79 1 990548966 110 -127008766 9 #
face $241 $242 $243 $15 $-1 $244 reversed single #
loop $-1 $-1 $245 $79 #
plane-surface $-1 -60.000000000000007 0 0 1 0 0 0 0 -1 forward_v I I I I #
coedge $-1 $246 $150 $247 $248 forward $80 $-1 #
coedge $-1 $249 $82 $246 $250 forward $48 $-1 #
coedge $-1 $82 $249 $251 $252 forward $48 $-1 #
coedge $-1 $153 $152 $82 $146 reversed $154 $-1 #
edge $-1 $253 -60 $254 60 $145 $255 forward 7 unknown #
coedge $-1 $84 $83 $256 $257 forward $31 $-1 #
coedge $-1 $258 $259 $83 $149 reversed $243 $-1 #
edge $-1 $156 -60.000000000000007 $260 60.000000000000007 $148 $261 forward 7 unknown #
coedge $-1 $142 $262 $84 $151 reversed $80 $-1 #
edge $-1 $263 -60.000000000000007 $155 60.000000000000007 $150 $264 forward 7 unknown #
coedge $-1 $145 $85 $262 $265 forward $154 $-1 #
coedge $-1 $85 $145 $258 $266 reversed $154 $-1 #
loop $-1 $-1 $152 $242 #
vertex $-1 $86 $267 #
vertex $-1 $86 $268 #
straight-curve $-1 60.000000000000007 0 14.000000000000021 0 1 0 I I #
face $-1 $269 $270 $17 $-1 $271 reversed single #
loop $-1 $-1 $272 $87 #
plane-surface $-1 7.4999999999999858 60 3.0000000000000115 0 0 -1 0 1 0 forward_v I I I I #
coedge $-1 $273 $274 $275 $276 reversed $88 $-1 #
coedge $-1 $277 $90 $278 $279 reversed $52 $-1 #
coedge $-1 $90 $277 $273 $280 reversed $52 $-1 #
coedge $-1 $275 $281 $90 $165 forward $282 $-1 #
edge $-1 $283 -36.575317547305687 $284 -3.9150635094611062 $164 $285 forward 7 unknown #
coedge $-1 $92 $91 $286 $287 reversed $34 $-1 #
coedge $-1 $288 $289 $91 $168 forward $270 $-1 #
edge $-1 $290 0 $174 120 $91 $291 forward 7 unknown #
coedge $-1 $272 $292 $92 $170 reversed $159 $-1 #
edge $-1 $293 0 $175 120 $169 $294 forward 7 unknown #
coedge $-1 $295 $93 $292 $296 forward $173 $-1 #
coedge $-1 $93 $297 $288 $298 forward $173 $-1 #
loop $-1 $-1 $172 $269 #
vertex $-1 $94 $299 #
vertex $-1 $296 $300 #
ellipse-curve $-1 13.660254037844402 -60 -1.9999999999999902 0 -1 0 -1.7763568394002505e-015 0 5.0000000000000018 1 I I #
model_id-kcp-attrib $-1 $-1 $-1 $96 1 990548966 110 -127008767 7 #
face $301 $302 $127 $7 $-1 $303 reversed single #
loop $-1 $-1 $304 $96 #
cone-surface $-1 -15.000000000000099 -14.999999999999901 0 0 0 1 -15 1.04744440165294e-013 0 1 I I 0 1 15 forward I I I I #
coedge $-1 $305 $306 $132 $234 reversed $97 $-1 #
coedge $-1 $307 $99 $306 $308 forward $57 $-1 #
coedge $-1 $105 $100 $309 $310 reversed $38 $-1 #
edge $-1 $311 -4.4999999999999796 $190 -3 $100 $312 forward 7 unknown #
coedge $-1 $101 $105 $111 $207 reversed $38 $-1 #
coedge $-1 $313 $314 $101 $187 forward $315 $-1 #
edge $-1 $191 7.9253181546972096 $316 11.0898992136636 $186 $317 forward 7 unknown #
coedge $-1 $318 $102 $314 $319 reversed $189 $-1 #
loop $-1 $-1 $123 $302 #
vertex $-1 $124 $320 #
vertex $-1 $319 $321 #
ellipse-curve $-1 20.490381056766601 -5.4903810567666298 -3 0 0 -1 7.4999999999999698 -12.9903810567666 0 1 I I #
coedge $-1 $107 $104 $322 $323 reversed $26 $-1 #
coedge $-1 $309 $324 $104 $195 forward $325 $-1 #
edge $-1 $326 2.3621776971293187 $196 3.1415926535897931 $194 $327 forward 7 unknown #
vertex $-1 $195 $328 #
straight-curve $-1 20.490381056766498 -20.490381056766601 0 0 0 -1 I I #
coedge $-1 $329 $330 $107 $199 forward $331 $-1 #
edge $-1 $202 -0.52359877559830104 $332 1.0995802790464315 $198 $333 forward 7 unknown #
coedge $-1 $334 $108 $330 $335 reversed $179 $-1 #
coedge $-1 $108 $336 $110 $205 reversed $179 $-1 #
vertex $-1 $335 $337 #
straight-curve $-1 -7.5000000000001599 -27.990381056766498 0 0 0 -1 I I #
coedge $-1 $338 $110 $339 $340 reversed $112 $-1 #
edge $-1 $114 -0.52359877559830093 $341 1.4933687172572347 $110 $342 forward 7 unknown #
coedge $-1 $111 $343 $313 $344 reversed $112 $-1 #
edge $-1 $316 -0.77941495646049186 $113 1.0480505352461483e-014 $111 $345 forward 7 unknown #
face $346 $347 $112 $7 $-1 $348 reversed single #
point $-1 20.490381056766498 -20.490381056766601 0.169872981077862 #
point $-1 -7.5000000000001599 -27.990381056766498 4.4999999999999396 #
coedge $-1 $122 $116 $349 $350 reversed $20 $-1 #
coedge $-1 $351 $352 $116 $213 forward $353 $-1 #
edge $-1 $354 5.05359002376309 $217 7.56142268865218 $212 $355 forward 7 unknown #
coedge $-1 $356 $117 $119 $220 forward $216 $-1 #
coedge $-1 $117 $357 $351 $358 forward $216 $-1 #
loop $-1 $-1 $214 $359 #
vertex $-1 $358 $360 #
ellipse-curve $-1 15 15 3 0 0 1 15 0 0 1 I I #
coedge $-1 $119 $307 $361 $362 reversed $57 $-1 #
edge $-1 $120 -0.5235987755983017 $363 1.099580279046412 $214 $364 forward 7 unknown #
point $-1 7.49999999999996 27.990381056766601 3 #
coedge $-1 $123 $318 $125 $225 reversed $189 $-1 #
ellipse-curve $-1 15 15 -3 0 0 -1 15 0 0 1 I I #
coedge $-1 $126 $125 $365 $366 reversed $127 $-1 #
edge $-1 $128 29.940049556707947 $367 60.00000000000005 $222 $368 forward 7 unknown #
point $-1 29.940049556707901 13.660254037844499 -3 #
coedge $-1 $369 $130 $370 $371 reversed $72 $-1 #
coedge $-1 $365 $372 $130 $229 forward $373 $-1 #
edge $374 $375 -29.745190528383425 $231 2.9150635094609387 $228 $376 forward 7 unknown #
attrib_edge_convexity-kcp-attrib $-1 $377 $-1 $131 4 #
vertex $-1 $366 $378 #
straight-curve $-1 -5.6423225404098102e-014 16.1602540378444 -2.3301270189221901 -1 -3.4914813388431298e-015 0 I I #
coedge $-1 $132 $369 $379 $380 reversed $72 $-1 #
edge $381 $382 -0.77941495646048065 $236 3.6119255734471749e-015 $132 $383 forward 7 unknown #
attrib_edge_convexity-kcp-attrib $-1 $384 $-1 $133 1 #
vertex $-1 $133 $385 #
ellipse-curve $-1 -5.4903810567666298 20.490381056766601 0.169872981077796 -1.74574066942157e-015 0.500000000000001 -0.86602540378443804 -5.06261699229071e-014 15 8.6602540378444104 0.86602540378443804 I I #
model_id-kcp-attrib $-1 $-1 $-1 $134 1 990548966 110 -127008767 26 #
face $386 $387 $373 $7 $-1 $388 reversed single #
plane-surface $-1 -1.12846450808196e-013 32.320508075688799 7.0000000000000204 -1.74574066942157e-015 0.500000000000001 -0.86602540378443804 -3.0237115362774602e-015 0.86602540378443804 0.500000000000001 reverse_v I I I I #
model_id-kcp-attrib $-1 $-1 $-1 $139 1 990548966 110 -127008766 2 #
face $389 $-1 $154 $15 $-1 $390 reversed single #
loop $-1 $-1 $258 $139 #
plane-surface $-1 0 60 0 0 -1 0 0 0 -1 forward_v I I I I #
coedge $-1 $391 $256 $259 $392 forward $140 $-1 #
coedge $-1 $262 $142 $143 $250 reversed $80 $-1 #
coedge $-1 $256 $391 $142 $248 reversed $140 $-1 #
edge $-1 $263 -14.000000000000021 $393 14.000000000000021 $247 $394 forward 7 unknown #
coedge $-1 $144 $143 $391 $395 forward $48 $-1 #
edge $-1 $254 -60.000000000000007 $393 60.000000000000007 $246 $396 forward 7 unknown #
coedge $-1 $259 $258 $144 $252 reversed $243 $-1 #
edge $-1 $397 -60.000000000000007 $253 60.000000000000007 $251 $398 forward 7 unknown #
vertex $-1 $146 $399 #
vertex $-1 $265 $400 #
straight-curve $-1 60.000000000000007 0 -14.000000000000021 0 -1 0 I I #
coedge $-1 $245 $247 $147 $257 reversed $140 $-1 #
edge $-1 $260 -60 $263 60 $256 $401 forward 7 unknown #
coedge $-1 $251 $148 $153 $266 forward $243 $-1 #
coedge $-1 $148 $251 $245 $392 reversed $243 $-1 #
vertex $-1 $149 $402 #
straight-curve $-1 0 60 14.000000000000021 -1 0 0 I I #
coedge $-1 $150 $246 $152 $265 reversed $80 $-1 #
vertex $-1 $257 $403 #
straight-curve $-1 0 -60 14.000000000000021 1 0 0 I I #
edge $-1 $155 -14.000000000000021 $254 14.000000000000021 $152 $404 forward 7 unknown #
edge $-1 $156 -14.000000000000021 $253 14.000000000000021 $153 $405 forward 7 unknown #
point $-1 60.000000000000007 -60 14.000000000000021 #
point $-1 60.000000000000007 60 14.000000000000021 #
face $-1 $406 $173 $17 $-1 $407 reversed single #
loop $-1 $-1 $288 $158 #
plane-surface $-1 35.490381056766608 60 -8.8301270189221839 -0.50000000000000422 0 -0.86602540378443627 0 -1 0 forward_v I I I I #
coedge $-1 $408 $169 $409 $410 reversed $159 $-1 #
coedge $-1 $411 $161 $163 $280 forward $88 $-1 #
coedge $-1 $161 $411 $408 $412 reversed $88 $-1 #
coedge $-1 $409 $164 $161 $276 forward $282 $-1 #
edge $-1 $284 3.5527136788005061e-016 $413 0.52359877559830015 $275 $414 forward 7 unknown #
coedge $-1 $163 $162 $415 $416 reversed $52 $-1 #
coedge $-1 $417 $418 $162 $279 forward $419 $-1 #
edge $-1 $420 -90 $283 30 $278 $421 forward 7 unknown #
edge $-1 $284 0 $422 120 $163 $423 forward 7 unknown #
coedge $-1 $164 $424 $417 $425 reversed $282 $-1 #
loop $-1 $-1 $424 $426 #
vertex $-1 $425 $427 #
vertex $-1 $165 $428 #
straight-curve $-1 -12.769709581221617 60 4.2876587736527423 0.86602540378443993 0 0.49999999999999789 I I #
coedge $-1 $424 $409 $166 $287 forward $282 $-1 #
edge $-1 $293 -7.1054273576009993e-016 $290 0.52359877559829826 $286 $429 forward 7 unknown #
coedge $-1 $430 $167 $172 $298 reversed $270 $-1 #
coedge $-1 $167 $430 $424 $431 reversed $270 $-1 #
vertex $-1 $287 $432 #
straight-curve $-1 16.160254037844396 60 2.3301270189222025 0 -1 0 I I #
coedge $-1 $169 $408 $171 $296 reversed $159 $-1 #
vertex $-1 $410 $433 #
straight-curve $-1 13.660254037844396 60 3.0000000000000115 0 -1 0 I I #
coedge $-1 $415 $171 $411 $434 forward $173 $-1 #
edge $-1 $175 -9.9102540378444033 $435 17.410254037844389 $171 $436 forward 7 unknown #
coedge $-1 $172 $415 $418 $437 reversed $173 $-1 #
edge $-1 $438 -27.915063509461049 $174 4.745190528383322 $172 $439 forward 7 unknown #
point $-1 16.160254037844396 -60 2.3301270189222025 #
point $-1 13.660254037844396 -60 3.0000000000000115 #
model_id-kcp-attrib $-1 $-1 $-1 $178 1 990548966 110 -127008767 8 #
face $440 $441 $189 $7 $-1 $442 reversed single #
cone-surface $-1 -4.76945220569903e-014 13.6602540378444 2 -1 -3.4914813388431298e-015 0 -4.5183093305632703e-015 1.2940952255126099 -4.8296291314453397 1 I I 0 1 5 reversed I I I I #
coedge $-1 $336 $443 $444 $445 reversed $179 $-1 #
coedge $-1 $446 $181 $447 $448 reversed $97 $-1 #
coedge $-1 $181 $449 $182 $308 reversed $97 $-1 #
coedge $-1 $219 $182 $450 $451 reversed $57 $-1 #
edge $-1 $236 -0.16987298107778001 $452 0.16987298107782101 $306 $453 forward 7 unknown #
coedge $-1 $349 $194 $183 $310 forward $325 $-1 #
edge $-1 $196 -1.5707963267949032 $311 1.0471975511965983 $309 $454 forward 7 unknown #
vertex $-1 $350 $455 #
straight-curve $-1 27.990381056766601 7.49999999999996 0 0 0 1 I I #
coedge $-1 $456 $186 $206 $344 forward $315 $-1 #
coedge $-1 $186 $456 $188 $319 forward $315 $-1 #
loop $-1 $-1 $186 $441 #
vertex $-1 $207 $457 #
intcurve-curve $-1 forward { surfintcur full nubs 3 open 4 
	7.9253181546972096 3 9.2430400277483304 2 10.560761900799401 2 11.0898992136636 3 
	33.070252895265497 -13.6602540378443 -3 
	32.831016887993997 -14.0286267552169 -3 
	32.567910718368204 -14.3976466527848 -2.9588457773863701 
	32.007128403472201 -15.1117444563126 -2.79865344454825 
	31.709451034959201 -15.456852196816 -2.6797526423384301 
	31.281531092446301 -15.9106986696259 -2.4672267326729198 
	31.157688097650301 -16.037377015081901 -2.4010701010912698 
	31.033331809173099 -16.1602540378443 -2.3301270189221901 
	0.001 
	cone 4.76945220569903e-014 -13.6602540378444 2 1 3.4914813388431298e-015 0 4.5183093305632703e-015 -1.2940952255126099 -4.8296291314453397 1 I I 0 -1 5 reversed I I I I 
	cone 20.490381056766601 -5.4903810567666298 0 0 0 1 7.4999999999999698 -12.9903810567666 0 1 I I 0 -1 15.000000000000002 forward I I I I 
	nullbs 
	nullbs 
	I I 
	0 
	0 
	0 
	} I I #
coedge $-1 $222 $188 $458 $459 reversed $189 $-1 #
edge $-1 $460 -59.99999999999995 $191 -33.070252895265448 $188 $461 forward 7 unknown #
point $-1 27.990381056766601 7.49999999999996 -3 #
point $-1 33.070252895265497 -13.6602540378443 -3 #
coedge $-1 $462 $463 $193 $323 forward $464 $-1 #
edge $-1 $332 25.238129382258801 $326 28.4027104412251 $322 $465 forward 7 unknown #
coedge $-1 $194 $466 $462 $467 forward $325 $-1 #
loop $-1 $-1 $349 $468 #
vertex $-1 $467 $469 #
ellipse-curve $-1 5.4903810567664904 -20.490381056766601 8.4903810567666707 0.500000000000001 0 0.86602540378443804 -15 3.5527136788005001e-015 8.6602540378444104 0.86602540378443804 I I #
point $-1 20.490381056766498 -20.490381056766601 -0.16987298107773899 #
coedge $-1 $470 $198 $463 $471 forward $331 $-1 #
coedge $-1 $198 $472 $200 $335 forward $331 $-1 #
loop $-1 $-1 $330 $473 #
vertex $-1 $323 $474 #
ellipse-curve $-1 5.4903810567664904 -20.490381056766601 3 0 0 1 -7.5000000000000604 -12.9903810567665 0 1 I I #
coedge $-1 $475 $200 $476 $477 reversed $179 $-1 #
edge $-1 $478 1.660231904994766 $202 2.0943951023931984 $330 $479 forward 7 unknown #
coedge $-1 $201 $304 $480 $481 reversed $179 $-1 #
point $-1 -7.5000000000001599 -27.990381056766498 3 #
coedge $-1 $482 $204 $483 $484 reversed $112 $-1 #
coedge $-1 $480 $485 $204 $340 forward $486 $-1 #
edge $-1 $487 -60.000000000000057 $341 -29.955059697897259 $204 $488 forward 7 unknown #
vertex $-1 $340 $489 #
ellipse-curve $-1 -15.000000000000099 -14.999999999999901 -3.0000000000001199 1.74574066942157e-015 -0.500000000000001 -0.86602540378443804 -1.04744440165294e-013 -15 8.6602540378444104 0.86602540378443804 I I #
coedge $-1 $206 $482 $490 $491 reversed $112 $-1 #
edge $-1 $316 31.033331809173042 $492 59.999999999999943 $206 $488 forward 7 unknown #
ellipse-curve $-1 20.490381056766601 -5.4903810567666298 -8.4903810567665499 1.74574066942157e-015 -0.500000000000001 -0.86602540378443804 5.4178883601707601e-014 -15 8.6602540378444104 0.86602540378443804 I I #
model_id-kcp-attrib $-1 $-1 $-1 $208 1 990548966 110 -127008767 11 #
face $493 $494 $495 $7 $-1 $496 reversed single #
plane-surface $-1 1.12846450808196e-013 -32.320508075688799 7.0000000000000204 1.74574066942157e-015 -0.500000000000001 -0.86602540378443804 -3.0237115362774602e-015 0.86602540378443804 -0.500000000000001 reverse_v I I I I #
coedge $-1 $497 $309 $211 $350 forward $325 $-1 #
edge $-1 $311 -0.52359877559830093 $354 1.4933687172572527 $349 $498 forward 7 unknown #
coedge $-1 $499 $212 $215 $358 reversed $353 $-1 #
coedge $-1 $212 $499 $497 $500 reversed $353 $-1 #
loop $-1 $-1 $212 $501 #
vertex $-1 $350 $502 #
intcurve-curve $-1 forward { surfintcur full nubs 3 open 4 
	5.05359002376309 3 5.6769339901318601 2 6.61917833939202 2 7.56142268865218 3 
	16.1602540378444 29.955059697897099 2.3301270189221901 
	15.9707785707452 29.9697597178378 2.4395207308567501 
	15.772894176228 29.9814570781631 2.53708871872742 
	15.262095299418 30.000865014711099 2.7481308044837598 
	14.9414390940199 30.003349110161899 2.8442107035329398 
	14.2969333127183 29.986981388336801 2.9701561332878801 
	13.9730801994549 29.968102180314201 3 
	13.6602540378444 29.940049556707901 3 
	0.001 
	cone 13.6602540378444 0 -2 0 -1 0 1.2940952255126099 0 4.8296291314453397 1 I I 0 -1 5 forward I I I I 
	cone 15 15 0 0 0 1 15 0 0 1 I I 0 -1 15 forward I I I I 
	nullbs 
	nullbs 
	I I 
	0 
	0 
	0 
	} I I #
coedge $-1 $357 $214 $503 $504 forward $216 $-1 #
coedge $-1 $215 $356 $505 $506 reversed $216 $-1 #
edge $-1 $507 -60 $217 -29.940049556707901 $215 $508 forward 7 unknown #
face $509 $501 $216 $7 $-1 $510 reversed single #
point $-1 13.6602540378444 29.940049556707901 3 #
coedge $-1 $511 $503 $219 $362 forward $512 $-1 #
edge $-1 $363 25.238129382258599 $513 28.402710441224901 $361 $514 forward 7 unknown #
vertex $-1 $220 $515 #
ellipse-curve $-1 -5.4903810567666298 20.490381056766601 3 0 0 1 7.4999999999999698 12.9903810567666 0 1 I I #
coedge $-1 $458 $228 $224 $366 forward $373 $-1 #
edge $516 $231 -0.26179938779914813 $367 0.26179938779915068 $365 $517 forward 7 unknown #
vertex $-1 $459 $518 #
straight-curve $-1 -4.76945220569903e-014 13.6602540378444 -3 1 3.4914813388431298e-015 0 I I #
coedge $-1 $233 $227 $519 $520 reversed $72 $-1 #
coedge $-1 $521 $522 $227 $371 forward $523 $-1 #
edge $524 $525 -59.999999999999844 $375 60.000000000000156 $370 $526 forward 7 unknown #
coedge $-1 $228 $527 $521 $528 reversed $373 $-1 #
loop $-1 $-1 $228 $239 #
attrib_edge_convexity-kcp-attrib $-1 $529 $-1 $229 1 #
vertex $-1 $229 $530 #
straight-curve $-1 60 18.6847730906828 -0.87259526419173605 0 -0.86602540378443804 -0.500000000000001 I I #
convexity-sys-attrib $-1 $-1 $230 $131 #
point $-1 60 16.160254037844599 -2.3301270189221901 #
coedge $-1 $531 $447 $233 $380 forward $532 $-1 #
edge $533 $382 31.033331809172942 $534 59.999999999999943 $233 $232 forward 7 unknown #
attrib_edge_convexity-kcp-attrib $-1 $535 $-1 $234 1 #
vertex $-1 $448 $536 #
ellipse-curve $-1 -20.490381056766601 5.4903810567664904 -8.4903810567666298 -1.74574066942157e-015 0.500000000000001 -0.86602540378443804 -5.4178883601707601e-014 15 8.6602540378444104 0.86602540378443804 I I #
convexity-sys-attrib $-1 $-1 $235 $133 #
point $-1 -20.490381056766601 20.490381056766498 0.16987298107778001 #
model_id-kcp-attrib $-1 $-1 $-1 $239 1 990548966 110 -127008767 27 #
face $537 $538 $539 $7 $-1 $540 forward single #
plane-surface $-1 60 0 0 -1 0 0 0 0 1 forward_v I I I I #
model_id-kcp-attrib $-1 $-1 $-1 $242 1 990548966 110 -127008766 5 #
plane-surface $-1 60.000000000000007 0 0 -1 0 0 0 0 1 forward_v I I I I #
coedge $-1 $247 $245 $249 $395 reversed $140 $-1 #
edge $-1 $260 -14.000000000000021 $397 14.000000000000021 $259 $541 forward 7 unknown #
vertex $-1 $395 $542 #
straight-curve $-1 -60.000000000000007 -60 0 0 0 -1 I I #
edge $-1 $393 -60 $397 60 $391 $543 forward 7 unknown #
straight-curve $-1 0 -60 -14.000000000000021 -1 0 0 I I #
vertex $-1 $252 $544 #
straight-curve $-1 0 60 -14.000000000000021 1 0 0 I I #
point $-1 60.000000000000007 60 -14.000000000000021 #
point $-1 60.000000000000007 -60 -14.000000000000021 #
straight-curve $-1 -60.000000000000007 0 14.000000000000021 0 -1 0 I I #
point $-1 -60.000000000000007 60 14.000000000000021 #
point $-1 -60.000000000000007 -60 14.000000000000021 #
straight-curve $-1 60.000000000000007 -60 0 0 0 -1 I I #
straight-curve $-1 60.000000000000007 60 0 0 0 -1 I I #
face $-1 $426 $419 $17 $-1 $545 reversed single #
plane-surface $-1 0 -60 0 0 1 0 0 0 1 forward_v I I I I #
coedge $-1 $292 $272 $274 $412 forward $159 $-1 #
coedge $-1 $286 $275 $272 $410 forward $282 $-1 #
edge $-1 $413 -17.410254037844389 $293 9.9102540378444033 $409 $546 forward 7 unknown #
coedge $-1 $274 $273 $295 $434 reversed $88 $-1 #
edge $-1 $413 0 $435 120 $274 $547 forward 7 unknown #
vertex $-1 $276 $548 #
ellipse-curve $-1 -13.660254037844402 60 -1.9999999999999902 0 1 0 -2.5000000000000018 0 4.3301270189221945 1 I I #
coedge $-1 $297 $295 $277 $416 forward $173 $-1 #
edge $-1 $422 3.9150635094611062 $420 36.575317547305687 $415 $549 forward 7 unknown #
coedge $-1 $550 $278 $281 $425 forward $419 $-1 #
coedge $-1 $278 $550 $297 $437 forward $419 $-1 #
loop $-1 $-1 $550 $406 #
vertex $-1 $416 $551 #
straight-curve $-1 -44.444863728671137 30 -14.00000000000002 0 1 0 I I #
vertex $-1 $416 $552 #
straight-curve $-1 -16.160254037844396 60 2.3301270189221954 0 -1 0 I I #
coedge $-1 $281 $286 $289 $431 forward $282 $-1 #
edge $-1 $283 -44.44486372867113 $553 44.444863728670889 $281 $554 forward 7 unknown #
face $-1 $-1 $282 $17 $-1 $555 reversed single #
point $-1 -44.44486372867113 60 -14.000000000000021 #
point $-1 -16.160254037844396 60 2.3301270189221954 #
ellipse-curve $-1 13.660254037844402 60 -1.9999999999999902 0 1 0 -1.7763568394002505e-015 0 5.0000000000000018 1 I I #
coedge $-1 $289 $288 $550 $556 reversed $270 $-1 #
edge $-1 $290 -4.745190528383322 $553 27.915063509461049 $424 $557 forward 7 unknown #
point $-1 16.160254037844396 60 2.3301270189222025 #
point $-1 13.660254037844396 60 3.0000000000000115 #
edge $-1 $435 -0.52359877559830015 $422 -3.5527136788005061e-016 $295 $558 forward 7 unknown #
vertex $-1 $434 $559 #
straight-curve $-1 3.7499999999999929 -60 3.0000000000000115 -1 0 0 I I #
edge $-1 $438 -44.444863728670889 $420 44.44486372867113 $297 $560 forward 7 unknown #
vertex $-1 $437 $561 #
straight-curve $-1 20.269709581221704 -60 -0.042468245269375871 -0.86602540378443627 0 0.50000000000000422 I I #
model_id-kcp-attrib $-1 $-1 $-1 $302 1 990548966 110 -127008767 9 #
face $562 $208 $315 $7 $-1 $563 reversed single #
plane-surface $-1 0 0 -3 0 0 -1 -3.4914813388431298e-015 1 0 reverse_v I I I I #
coedge $-1 $304 $475 $564 $565 reversed $179 $-1 #
coedge $-1 $566 $567 $304 $445 forward $568 $-1 #
edge $-1 $569 0.089435578199835622 $570 0.5235987755982815 $444 $571 forward 7 unknown #
coedge $-1 $564 $305 $566 $572 reversed $97 $-1 #
coedge $-1 $379 $573 $305 $448 forward $532 $-1 #
edge $-1 $574 7.92531815469723 $382 11.089899213663699 $447 $575 forward 7 unknown #
coedge $-1 $306 $564 $576 $577 reversed $97 $-1 #
coedge $-1 $576 $578 $307 $451 forward $495 $-1 #
edge $-1 $513 2.3621776971293076 $452 3.1415926535898002 $450 $579 forward 7 unknown #
vertex $-1 $451 $580 #
straight-curve $-1 -20.490381056766601 20.490381056766498 0 0 0 -1 I I #
ellipse-curve $-1 20.490381056766601 -5.4903810567666298 -0.16987298107778401 0.500000000000001 0 0.86602540378443804 15 2.66453525910038e-015 -8.6602540378444104 0.86602540378443804 I I #
point $-1 27.990381056766601 7.49999999999996 -4.4999999999999796 #
coedge $-1 $314 $313 $581 $582 reversed $315 $-1 #
point $-1 31.033331809173099 -16.1602540378443 -2.3301270189221901 #
coedge $-1 $581 $365 $318 $459 forward $373 $-1 #
edge $583 $367 -13.6602540378446 $460 13.660254037844201 $458 $584 forward 7 unknown #
vertex $-1 $582 $585 #
straight-curve $-1 4.76945220569903e-014 -13.6602540378444 -3 -1 -3.4914813388431298e-015 0 I I #
coedge $-1 $586 $322 $324 $467 reversed $464 $-1 #
coedge $-1 $322 $586 $329 $471 reversed $464 $-1 #
loop $-1 $-1 $322 $587 #
intcurve-curve $-1 forward { surfintcur full nubs 3 open 4 
	25.238129382258801 3 26.5558512553099 2 27.873573128361102 2 28.4027104412251 3 
	13.6602540378444 -33.070252895265298 3 
	14.0286267552171 -32.831016887993897 3 
	14.397646652784999 -32.567910718367997 2.9588457773863501 
	15.111744456312801 -32.007128403472002 2.7986534445482301 
	15.4568521968162 -31.709451034958999 2.6797526423383999 
	15.9106986696261 -31.281531092445999 2.4672267326728998 
	16.037377015082001 -31.157688097650102 2.4010701010912601 
	16.1602540378444 -31.0333318091729 2.3301270189221901 
	0.001 
	cone 13.6602540378444 0 -2 0 -1 0 1.2940952255126099 0 4.8296291314453397 1 I I 0 -1 5 forward I I I I 
	cone 5.4903810567664904 -20.490381056766601 0 0 0 1 -7.5000000000000604 -12.9903810567665 0 1 I I 0 -1 14.999999999999961 forward I I I I 
	nullbs 
	nullbs 
	I I 
	0 
	0 
	0 
	} I I #
coedge $-1 $324 $588 $589 $590 reversed $325 $-1 #
edge $-1 $591 -60 $326 -31.0333318091729 $324 $592 forward 7 unknown #
face $593 $594 $325 $7 $-1 $595 reversed single #
point $-1 16.1602540378444 -31.0333318091729 2.3301270189221901 #
coedge $-1 $472 $329 $596 $597 reversed $331 $-1 #
edge $-1 $332 33.070252895265298 $598 60 $329 $508 forward 7 unknown #
coedge $-1 $330 $470 $599 $600 forward $331 $-1 #
face $601 $587 $331 $7 $-1 $510 reversed single #
point $-1 13.6602540378444 -33.070252895265298 3 #
coedge $-1 $443 $334 $602 $603 reversed $179 $-1 #
coedge $-1 $599 $604 $334 $477 forward $605 $-1 #
edge $-1 $606 5.05359002376309 $478 7.56142268865218 $476 $607 forward 7 unknown #
vertex $-1 $600 $608 #
ellipse-curve $-1 -15.000000000000099 -14.999999999999901 3 0 0 1 -15 1.04744440165294e-013 0 1 I I #
coedge $-1 $609 $339 $336 $481 forward $486 $-1 #
edge $-1 $341 20.283519546509101 $569 22.791352211398198 $480 $610 forward 7 unknown #
coedge $-1 $343 $338 $611 $612 reversed $112 $-1 #
coedge $-1 $613 $614 $338 $484 forward $615 $-1 #
edge $-1 $616 -29.745190528383425 $487 2.9150635094609387 $483 $617 forward 7 unknown #
coedge $-1 $339 $609 $613 $618 reversed $486 $-1 #
loop $-1 $-1 $480 $619 #
vertex $-1 $618 $620 #
straight-curve $-1 5.6423225404098102e-014 -16.1602540378444 -2.3301270189221901 1 3.4914813388431298e-015 0 I I #
point $-1 -29.955059697897202 -16.160254037844499 -2.3301270189221901 #
coedge $-1 $621 $581 $343 $491 forward $373 $-1 #
edge $622 $492 -2.9150635094612873 $623 29.74519052838307 $490 $624 forward 7 unknown #
vertex $-1 $582 $625 #
model_id-kcp-attrib $-1 $-1 $-1 $347 1 990548966 110 -127008767 12 #
face $626 $473 $605 $7 $-1 $627 reversed single #
loop $-1 $-1 $450 $347 #
plane-surface $-1 -32.320508075688799 0 -7.0000000000000204 -0.500000000000001 0 0.86602540378443804 0.86602540378443804 0 0.500000000000001 forward_v I I I I #
coedge $-1 $628 $349 $352 $500 forward $325 $-1 #
ellipse-curve $-1 15 15 3.00000000000002 0.500000000000001 0 0.86602540378443804 15 0 -8.6602540378444104 0.86602540378443804 I I #
coedge $-1 $352 $351 $629 $630 reversed $353 $-1 #
edge $-1 $354 29.955059697897099 $631 60 $497 $592 forward 7 unknown #
face $632 $633 $353 $7 $-1 $634 reversed single #
point $-1 16.1602540378444 29.955059697897099 2.3301270189221901 #
coedge $-1 $361 $635 $356 $504 reversed $512 $-1 #
edge $-1 $363 33.070252895265398 $636 60 $356 $637 forward 7 unknown #
coedge $-1 $638 $629 $357 $506 forward $639 $-1 #
edge $640 $507 -13.6602540378444 $636 13.6602540378444 $505 $641 forward 7 unknown #
vertex $-1 $506 $642 #
straight-curve $-1 13.6602540378444 0 3 0 -1 0 I I #
model_id-kcp-attrib $-1 $-1 $-1 $359 1 990548966 110 -127008767 18 #
plane-surface $-1 0 0 3 0 0 1 1 0 0 forward_v I I I I #
coedge $-1 $635 $361 $578 $643 reversed $512 $-1 #
loop $-1 $-1 $361 $594 #
vertex $-1 $643 $644 #
intcurve-curve $-1 forward { surfintcur full nubs 3 open 4 
	25.238129382258599 3 26.555851255309701 2 27.873573128360899 2 28.402710441224901 3 
	-13.6602540378444 33.070252895265398 3 
	-14.0286267552171 32.831016887993897 3 
	-14.397646652784999 32.567910718368097 2.9588457773863501 
	-15.111744456312801 32.007128403472002 2.7986534445482301 
	-15.4568521968162 31.709451034959098 2.6797526423383999 
	-15.9106986696261 31.281531092446102 2.4672267326728998 
	-16.037377015082001 31.157688097650201 2.4010701010912601 
	-16.1602540378444 31.033331809172999 2.3301270189221901 
	0.001 
	cone -13.6602540378444 0 -2 0 1 0 -1.2940952255126099 0 4.8296291314453397 1 I I 0 -1 5 forward I I I I 
	cone -5.4903810567666298 20.490381056766601 0 0 0 1 7.4999999999999698 12.9903810567666 0 1 I I 0 -1 15.000000000000002 forward I I I I 
	nullbs 
	nullbs 
	I I 
	0 
	0 
	0 
	} I I #
point $-1 -13.6602540378444 33.070252895265398 3 #
attrib_edge_convexity-kcp-attrib $-1 $645 $-1 $366 1 #
ellipse-curve $-1 60 13.6602540378446 2 -1 0 0 -4.5183093305632703e-015 1.2940952255126099 -4.8296291314453397 1 I I #
point $-1 60 13.6602540378446 -3 #
coedge $-1 $646 $647 $369 $520 forward $615 $-1 #
edge $648 $534 -2.9150635094612873 $525 29.74519052838307 $519 $649 forward 7 unknown #
coedge $-1 $650 $370 $372 $528 forward $523 $-1 #
coedge $-1 $370 $650 $646 $651 forward $523 $-1 #
loop $-1 $-1 $370 $538 #
attrib_edge_convexity-kcp-attrib $-1 $652 $-1 $371 1 #
vertex $-1 $651 $653 #
straight-curve $-1 -1.5517841231607999e-013 44.444863728670903 14 1 3.4914813388431298e-015 0 I I #
coedge $-1 $372 $654 $655 $656 reversed $373 $-1 #
edge $657 $375 44.444863728671102 $658 60 $372 $659 forward 7 unknown #
convexity-sys-attrib $-1 $-1 $374 $229 #
point $-1 60 44.444863728671102 14 #
coedge $-1 $573 $379 $647 $660 reversed $532 $-1 #
loop $-1 $-1 $447 $633 #
attrib_edge_convexity-kcp-attrib $-1 $661 $-1 $380 4 #
vertex $-1 $660 $662 #
convexity-sys-attrib $-1 $-1 $381 $234 #
point $-1 -31.033331809172999 16.1602540378443 -2.3301270189221901 #
model_id-kcp-attrib $-1 $-1 $-1 $387 1 990548966 110 -127008767 28 #
face $663 $664 $523 $7 $-1 $540 forward single #
loop $-1 $-1 $611 $387 #
plane-surface $-1 0 0 14 0 0 1 1 0 0 forward_v I I I I #
straight-curve $-1 -60.000000000000007 60 0 0 0 -1 I I #
point $-1 -60.000000000000007 -60 -14.000000000000021 #
straight-curve $-1 -60.000000000000007 0 -14.000000000000021 0 1 0 I I #
point $-1 -60.000000000000007 60 -14.000000000000021 #
plane-surface $-1 0 0 -14.000000000000021 0 0 1 1 0 0 forward_v I I I I #
straight-curve $-1 3.7499999999999929 60 3.0000000000000115 1 0 0 I I #
straight-curve $-1 -13.660254037844396 60 3.0000000000000115 0 -1 0 I I #
point $-1 -13.660254037844396 60 3.0000000000000115 #
straight-curve $-1 -12.769709581221617 -60.000000000000007 4.2876587736527423 -0.86602540378443993 0 -0.49999999999999789 I I #
coedge $-1 $418 $417 $430 $556 forward $419 $-1 #
point $-1 -44.44486372867113 -60 -14.000000000000021 #
point $-1 -16.160254037844396 -60 2.3301270189221954 #
vertex $-1 $431 $665 #
straight-curve $-1 0 60 -14.000000000000021 1 0 0 I I #
plane-surface $-1 0 60 0 0 -1 0 0 0 -1 forward_v I I I I #
edge $-1 $553 -30 $438 90 $550 $666 forward 7 unknown #
straight-curve $-1 20.269709581221704 60 -0.042468245269375871 0.86602540378443627 0 -0.50000000000000422 I I #
ellipse-curve $-1 -13.660254037844402 -60 -1.9999999999999902 0 -1 0 -2.5000000000000018 0 4.3301270189221945 1 I I #
point $-1 -13.660254037844396 -60 3.0000000000000115 #
straight-curve $-1 0 -60 -14.000000000000021 -1 0 0 I I #
point $-1 44.444863728670889 -60 -14.000000000000021 #
model_id-kcp-attrib $-1 $-1 $-1 $441 1 990548966 110 -127008767 10 #
cone-surface $-1 4.76945220569903e-014 -13.6602540378444 2 1 3.4914813388431298e-015 0 4.5183093305632703e-015 -1.2940952255126099 -4.8296291314453397 1 I I 0 1 5 reversed I I I I #
coedge $-1 $449 $446 $443 $565 forward $97 $-1 #
edge $-1 $570 3 $667 4.5000000000001004 $443 $668 forward 7 unknown #
coedge $-1 $669 $444 $446 $572 forward $568 $-1 #
coedge $-1 $444 $670 $609 $671 reversed $568 $-1 #
loop $-1 $-1 $566 $672 #
vertex $-1 $481 $673 #
vertex $-1 $572 $674 #
ellipse-curve $-1 -15.000000000000099 -14.999999999999901 -3 0 0 -1 -15 1.04744440165294e-013 0 1 I I #
edge $-1 $570 -2.0943951023931753 $574 -0.47121604774847403 $566 $675 forward 7 unknown #
coedge $-1 $447 $531 $669 $676 forward $532 $-1 #
vertex $-1 $676 $677 #
intcurve-curve $-1 forward { surfintcur full nubs 3 open 4 
	7.92531815469723 3 9.2430400277483695 2 10.5607619007995 2 11.089899213663699 3 
	-33.070252895265398 13.6602540378443 -3 
	-32.831016887993897 14.0286267552169 -3 
	-32.567910718368097 14.3976466527849 -2.9588457773863599 
	-32.007128403472102 15.1117444563126 -2.79865344454825 
	-31.709451034959098 15.456852196816101 -2.6797526423384199 
	-31.281531092446102 15.9106986696259 -2.4672267326729198 
	-31.157688097650201 16.037377015081901 -2.4010701010912698 
	-31.033331809172999 16.1602540378443 -2.3301270189221901 
	0.001 
	cone -4.76945220569903e-014 13.6602540378444 2 -1 -3.4914813388431298e-015 0 -4.5183093305632703e-015 1.2940952255126099 -4.8296291314453397 1 I I 0 -1 5 reversed I I I I 
	cone -20.490381056766601 5.4903810567664904 0 0 0 1 -7.5000000000000604 12.9903810567665 0 1 I I 0 -1 14.999999999999961 forward I I I I 
	nullbs 
	nullbs 
	I I 
	0 
	0 
	0 
	} I I #
coedge $-1 $602 $450 $449 $577 forward $495 $-1 #
edge $-1 $452 -1.5707963267948966 $667 1.0471975511965841 $576 $678 forward 7 unknown #
coedge $-1 $450 $679 $511 $643 forward $495 $-1 #
ellipse-curve $-1 -5.4903810567666298 20.490381056766601 8.4903810567665907 -0.500000000000001 0 0.86602540378443804 15 -2.66453525910038e-015 8.6602540378444104 0.86602540378443804 I I #
point $-1 -20.490381056766601 20.490381056766498 -0.16987298107782101 #
coedge $-1 $490 $458 $456 $582 forward $373 $-1 #
edge $680 $460 -0.26179938779915068 $492 0.26179938779914852 $581 $681 forward 7 unknown #
attrib_edge_convexity-kcp-attrib $-1 $682 $-1 $459 1 #
straight-curve $-1 60 0 -3 0 -1 0 I I #
point $-1 60 -13.660254037844201 -3 #
coedge $-1 $463 $462 $683 $684 reversed $464 $-1 #
face $685 $468 $464 $7 $-1 $634 reversed single #
coedge $-1 $466 $628 $686 $687 reversed $325 $-1 #
coedge $-1 $688 $683 $466 $590 forward $689 $-1 #
edge $-1 $591 -2.9150635094610697 $690 29.745190528383297 $589 $691 forward 7 unknown #
vertex $-1 $684 $692 #
straight-curve $-1 16.1602540378444 0 2.3301270189221901 0 1 0 I I #
model_id-kcp-attrib $-1 $-1 $-1 $468 1 990548966 110 -127008767 16 #
face $693 $359 $512 $7 $-1 $627 reversed single #
plane-surface $-1 32.320508075688799 0 -7.0000000000000204 0.500000000000001 0 0.86602540378443804 0.86602540378443804 0 -0.500000000000001 forward_v I I I I #
coedge $-1 $683 $694 $470 $597 forward $689 $-1 #
edge $-1 $695 -13.6602540378444 $598 13.6602540378444 $596 $696 forward 7 unknown #
vertex $-1 $597 $697 #
coedge $-1 $698 $476 $472 $600 reversed $605 $-1 #
edge $-1 $695 -60 $478 -29.940049556707802 $472 $637 forward 7 unknown #
model_id-kcp-attrib $-1 $-1 $-1 $473 1 990548966 110 -127008767 14 #
coedge $-1 $699 $576 $475 $603 forward $495 $-1 #
edge $-1 $667 -0.5235987755982825 $606 1.4933687172572647 $602 $700 forward 7 unknown #
coedge $-1 $476 $698 $699 $701 reversed $605 $-1 #
loop $-1 $-1 $476 $494 #
vertex $-1 $477 $702 #
intcurve-curve $-1 forward { surfintcur full nubs 3 open 4 
	5.05359002376309 3 5.6769339901318601 2 6.61917833939202 2 7.56142268865218 3 
	-16.1602540378444 -29.955059697896999 2.3301270189221901 
	-15.9707785707452 -29.9697597178377 2.4395207308567501 
	-15.772894176228 -29.981457078163 2.53708871872742 
	-15.262095299418 -30.000865014711 2.7481308044837598 
	-14.9414390940199 -30.0033491101618 2.8442107035329398 
	-14.2969333127183 -29.986981388336702 2.9701561332878801 
	-13.9730801994549 -29.968102180314101 3 
	-13.6602540378444 -29.940049556707802 3 
	0.001 
	cone -13.6602540378444 0 -2 0 1 0 -1.2940952255126099 0 4.8296291314453397 1 I I 0 -1 5 forward I I I I 
	cone -15.000000000000099 -14.999999999999901 0 0 0 1 -15 1.04744440165294e-013 0 1 I I 0 -1 15 forward I I I I 
	nullbs 
	nullbs 
	I I 
	0 
	0 
	0 
	} I I #
point $-1 -13.6602540378444 -29.940049556707802 3 #
coedge $-1 $485 $480 $567 $671 forward $486 $-1 #
intcurve-curve $-1 forward { surfintcur full nubs 3 open 4 
	20.283519546509101 3 20.906863512877901 2 21.849107862138101 2 22.791352211398198 3 
	-29.955059697897202 -16.160254037844499 -2.3301270189221901 
	-29.969759717837899 -15.970778570745299 -2.4395207308567599 
	-29.981457078163199 -15.772894176228 -2.53708871872744 
	-30.000865014711199 -15.262095299418 -2.7481308044837802 
	-30.003349110162102 -14.94143909402 -2.8442107035329598 
	-29.986981388336901 -14.2969333127184 -2.9701561332878801 
	-29.9681021803144 -13.973080199455101 -3 
	-29.940049556708001 -13.660254037844499 -3 
	0.001 
	cone 4.76945220569903e-014 -13.6602540378444 2 1 3.4914813388431298e-015 0 4.5183093305632703e-015 -1.2940952255126099 -4.8296291314453397 1 I I 0 -1 5 reversed I I I I 
	cone -15.000000000000099 -14.999999999999901 0 0 0 1 -15 1.04744440165294e-013 0 1 I I 0 -1 15 forward I I I I 
	nullbs 
	nullbs 
	I I 
	0 
	0 
	0 
	} I I #
coedge $-1 $703 $704 $482 $612 forward $539 $-1 #
edge $-1 $623 -59.999999999999844 $616 60.000000000000156 $611 $705 forward 7 unknown #
coedge $-1 $706 $483 $485 $618 forward $615 $-1 #
coedge $-1 $483 $707 $703 $708 reversed $615 $-1 #
loop $-1 $-1 $519 $709 #
vertex $-1 $612 $710 #
straight-curve $-1 -60 -18.6847730906828 -0.87259526419173605 0 0.86602540378443804 -0.500000000000001 I I #
edge $-1 $487 -0.26179938779914813 $711 0.26179938779915068 $613 $712 forward 7 unknown #
face $713 $714 $486 $7 $-1 $563 reversed single #
point $-1 -60 -16.160254037844599 -2.3301270189221901 #
coedge $-1 $715 $490 $704 $716 reversed $373 $-1 #
attrib_edge_convexity-kcp-attrib $-1 $717 $-1 $491 1 #
vertex $-1 $716 $718 #
straight-curve $-1 60 -18.6847730906827 -0.87259526419155597 0 -0.86602540378443804 0.500000000000001 I I #
point $-1 60 -16.160254037844201 -2.3301270189221901 #
model_id-kcp-attrib $-1 $-1 $-1 $494 1 990548966 110 -127008767 13 #
cone-surface $-1 -13.6602540378444 0 -2 0 1 0 -1.2940952255126099 0 4.8296291314453397 1 I I 0 1 5 forward I I I I #
coedge $-1 $588 $497 $719 $720 reversed $325 $-1 #
coedge $-1 $505 $719 $499 $630 forward $639 $-1 #
edge $721 $631 -0.26179938779914852 $507 0.26179938779915068 $629 $722 forward 7 unknown #
vertex $-1 $630 $723 #
model_id-kcp-attrib $-1 $-1 $-1 $501 1 990548966 110 -127008767 19 #
face $724 $672 $532 $7 $-1 $303 reversed single #
cone-surface $-1 13.6602540378444 0 -2 0 -1 0 1.2940952255126099 0 4.8296291314453397 1 I I 0 1 5 forward I I I I #
coedge $-1 $503 $511 $638 $725 reversed $512 $-1 #
vertex $-1 $725 $726 #
straight-curve $-1 -13.6602540378444 0 3 0 1 0 I I #
coedge $-1 $727 $505 $635 $725 forward $639 $-1 #
loop $-1 $-1 $719 $714 #
attrib_edge_convexity-kcp-attrib $-1 $728 $-1 $506 1 #
straight-curve $-1 0 60 3 -1 0 0 I I #
point $-1 13.6602540378444 60 3 #
edge $-1 $729 -60 $513 -31.033331809172999 $578 $730 forward 7 unknown #
point $-1 -16.1602540378444 31.033331809172999 2.3301270189221901 #
convexity-sys-attrib $-1 $-1 $516 $366 #
coedge $-1 $731 $519 $522 $651 reversed $615 $-1 #
coedge $-1 $519 $706 $531 $660 forward $615 $-1 #
attrib_edge_convexity-kcp-attrib $-1 $732 $-1 $520 1 #
straight-curve $-1 -60 18.6847730906827 -0.87259526419155597 0 0.86602540378443804 0.500000000000001 I I #
coedge $-1 $522 $521 $733 $734 forward $523 $-1 #
edge $-1 $735 -60 $525 -44.444863728670697 $646 $736 forward 7 unknown #
convexity-sys-attrib $-1 $-1 $524 $371 #
point $-1 -60 44.444863728670697 14 #
coedge $-1 $527 $715 $737 $738 reversed $373 $-1 #
coedge $-1 $739 $733 $527 $656 forward $639 $-1 #
edge $740 $658 -14 $741 14 $527 $742 forward 7 unknown #
attrib_edge_convexity-kcp-attrib $-1 $743 $-1 $528 1 #
vertex $-1 $528 $744 #
straight-curve $-1 60 0 14 0 1 0 I I #
edge $-1 $745 -0.26179938779915068 $534 0.26179938779914852 $647 $746 forward 7 unknown #
convexity-sys-attrib $-1 $-1 $533 $380 #
point $-1 -60 16.160254037844201 -2.3301270189221901 #
model_id-kcp-attrib $-1 $-1 $-1 $538 1 990548966 110 -127008767 29 #
face $747 $709 $689 $7 $-1 $748 reversed single #
point $-1 44.444863728670889 60 -14.000000000000021 #
straight-curve $-1 44.444863728670896 30 -14.000000000000021 0 -1 0 I I #
vertex $-1 $577 $749 #
straight-curve $-1 -27.9903810567668 -7.5000000000000098 0 0 0 -1 I I #
coedge $-1 $670 $566 $573 $676 reversed $568 $-1 #
coedge $-1 $567 $669 $706 $750 reversed $568 $-1 #
edge $-1 $569 29.940049556708047 $711 60.00000000000005 $567 $461 forward 7 unknown #
face $751 $619 $568 $7 $-1 $442 reversed single #
point $-1 -29.940049556708001 -13.660254037844499 -3 #
point $-1 -27.9903810567668 -7.5000000000000098 -3 #
ellipse-curve $-1 -20.490381056766601 5.4903810567664904 -3 0 0 -1 -7.5000000000000604 12.9903810567665 0 1 I I #
edge $-1 $745 -59.99999999999995 $574 -33.070252895265348 $669 $368 forward 7 unknown #
point $-1 -33.070252895265398 13.6602540378443 -3 #
ellipse-curve $-1 -20.490381056766601 5.4903810567664904 -0.16987298107780899 -0.500000000000001 0 0.86602540378443804 -15 -3.5527136788005001e-015 -8.6602540378444104 0.86602540378443804 I I #
coedge $-1 $578 $752 $727 $753 reversed $495 $-1 #
attrib_edge_convexity-kcp-attrib $-1 $754 $-1 $582 1 #
ellipse-curve $-1 60 -13.660254037844201 2 -1 0 0 4.5183093305632703e-015 -1.2940952255126099 -4.8296291314453397 1 I I #
convexity-sys-attrib $-1 $-1 $583 $459 #
coedge $-1 $589 $596 $586 $684 forward $689 $-1 #
edge $-1 $598 -0.26179938779915068 $591 0.26179938779914852 $683 $755 forward 7 unknown #
model_id-kcp-attrib $-1 $-1 $-1 $587 1 990548966 110 -127008767 15 #
coedge $-1 $756 $757 $588 $687 forward $758 $-1 #
edge $-1 $690 -60 $759 60 $686 $760 forward 7 unknown #
coedge $-1 $761 $589 $757 $762 reversed $689 $-1 #
loop $-1 $-1 $589 $664 #
vertex $-1 $762 $763 #
straight-curve $-1 18.6847730906827 -60 0.87259526419164601 0.86602540378443804 0 -0.500000000000001 I I #
point $-1 16.1602540378444 -60 2.3301270189221901 #
model_id-kcp-attrib $-1 $-1 $-1 $594 1 990548966 110 -127008767 17 #
coedge $-1 $596 $764 $698 $765 forward $689 $-1 #
vertex $-1 $765 $766 #
straight-curve $-1 0 -60 3 1 0 0 I I #
point $-1 13.6602540378444 -60 3 #
coedge $-1 $604 $599 $694 $765 reversed $605 $-1 #
coedge $-1 $767 $602 $604 $701 forward $495 $-1 #
ellipse-curve $-1 -15.000000000000099 -14.999999999999901 2.99999999999996 -0.500000000000001 0 0.86602540378443804 -15 1.04744440165294e-013 -8.6602540378444104 0.86602540378443804 I I #
edge $-1 $606 29.955059697896999 $768 60 $699 $730 forward 7 unknown #
point $-1 -16.1602540378444 -29.955059697896999 2.3301270189221901 #
coedge $-1 $769 $611 $614 $708 forward $539 $-1 #
coedge $-1 $611 $769 $621 $716 forward $539 $-1 #
straight-curve $-1 1.5517841231607999e-013 -44.444863728670903 14 -1 -3.4914813388431298e-015 0 I I #
coedge $-1 $647 $613 $670 $750 forward $615 $-1 #
coedge $-1 $614 $770 $771 $772 reversed $615 $-1 #
edge $-1 $616 44.444863728671102 $773 60 $614 $736 forward 7 unknown #
face $774 $-1 $615 $7 $-1 $775 reversed single #
point $-1 -60 -44.444863728671102 14 #
vertex $-1 $618 $776 #
ellipse-curve $-1 -60 -13.6602540378446 2 1 0 0 4.5183093305632703e-015 -1.2940952255126099 -4.8296291314453397 1 I I #
model_id-kcp-attrib $-1 $-1 $-1 $619 1 990548966 110 -127008767 22 #
face $777 $778 $639 $7 $-1 $779 reversed single #
coedge $-1 $654 $621 $761 $780 forward $373 $-1 #
edge $781 $782 -60 $623 -44.444863728670697 $621 $659 forward 7 unknown #
convexity-sys-attrib $-1 $-1 $622 $491 #
point $-1 60 -44.444863728670697 14 #
coedge $-1 $629 $739 $628 $720 forward $639 $-1 #
edge $783 $759 -29.745190528383297 $631 2.9150635094610697 $719 $784 forward 7 unknown #
attrib_edge_convexity-kcp-attrib $-1 $785 $-1 $630 1 #
ellipse-curve $-1 13.6602540378444 60 -2 0 -1 0 1.2940952255126099 0 4.8296291314453397 1 I I #
point $-1 16.1602540378444 60 2.3301270189221901 #
model_id-kcp-attrib $-1 $-1 $-1 $633 1 990548966 110 -127008767 20 #
edge $786 $636 -0.26179938779915068 $729 0.26179938779914852 $638 $787 forward 7 unknown #
point $-1 -13.6602540378444 60 3 #
coedge $-1 $788 $638 $679 $753 forward $639 $-1 #
convexity-sys-attrib $-1 $-1 $640 $506 #
vertex $-1 $725 $789 #
straight-curve $-1 -16.1602540378444 0 2.3301270189221901 0 -1 0 I I #
coedge $-1 $770 $646 $790 $791 forward $615 $-1 #
convexity-sys-attrib $-1 $-1 $648 $520 #
coedge $-1 $655 $790 $650 $734 reversed $639 $-1 #
edge $792 $658 -60 $735 60 $733 $793 forward 7 unknown #
vertex $-1 $734 $794 #
straight-curve $-1 -60 0 14 0 -1 0 I I #
coedge $-1 $757 $756 $654 $738 forward $758 $-1 #
edge $795 $741 -60 $796 60 $654 $797 forward 7 unknown #
coedge $-1 $719 $655 $756 $798 reversed $639 $-1 #
attrib_edge_convexity-kcp-attrib $-1 $799 $-1 $656 1 #
vertex $-1 $738 $800 #
straight-curve $-1 60 60 0 0 0 -1 I I #
convexity-sys-attrib $-1 $-1 $657 $528 #
point $-1 60 60 14 #
vertex $-1 $750 $801 #
ellipse-curve $-1 -60 13.660254037844201 2 1 0 0 -4.5183093305632703e-015 1.2940952255126099 -4.8296291314453397 1 I I #
model_id-kcp-attrib $-1 $-1 $-1 $664 1 990548966 110 -127008767 30 #
plane-surface $-1 0 -60 0 0 1 0 0 0 1 forward_v I I I I #
point $-1 -27.9903810567668 -7.5000000000000098 -4.5000000000001004 #
edge $-1 $711 -13.6602540378446 $745 13.660254037844201 $706 $802 forward 7 unknown #
model_id-kcp-attrib $-1 $-1 $-1 $672 1 990548966 110 -127008767 21 #
coedge $-1 $679 $767 $803 $804 reversed $495 $-1 #
edge $805 $729 -2.9150635094610697 $806 29.745190528383297 $727 $807 forward 7 unknown #
convexity-sys-attrib $-1 $-1 $680 $582 #
ellipse-curve $-1 13.6602540378444 -60 -2 0 1 0 1.2940952255126099 0 4.8296291314453397 1 I I #
coedge $-1 $737 $686 $739 $798 forward $758 $-1 #
coedge $-1 $686 $737 $688 $762 forward $758 $-1 #
loop $-1 $-1 $686 $808 #
vertex $-1 $720 $809 #
straight-curve $-1 44.444863728670903 0 -14 0 1 0 I I #
coedge $-1 $810 $688 $715 $780 reversed $689 $-1 #
edge $811 $796 -60 $690 -44.444863728670903 $688 $812 forward 7 unknown #
point $-1 44.444863728670903 -60 -14 #
coedge $-1 $694 $813 $767 $814 forward $689 $-1 #
edge $-1 $768 -0.26179938779914852 $695 0.26179938779915068 $694 $815 forward 7 unknown #
point $-1 -13.6602540378444 -60 3 #
coedge $-1 $752 $699 $764 $814 reversed $495 $-1 #
vertex $-1 $765 $816 #
coedge $-1 $704 $703 $810 $817 forward $539 $-1 #
coedge $-1 $707 $731 $818 $819 reversed $615 $-1 #
coedge $-1 $813 $810 $707 $772 forward $689 $-1 #
edge $820 $773 -14 $821 14 $707 $822 forward 7 unknown #
vertex $-1 $708 $823 #
model_id-kcp-attrib $-1 $-1 $-1 $709 1 990548966 110 -127008767 31 #
plane-surface $-1 -60 0 0 1 0 0 0 0 -1 forward_v I I I I #
point $-1 -60 -13.6602540378446 -3 #
model_id-kcp-attrib $-1 $824 $-1 $714 1 990548966 110 -127008767 32 #
face $825 $808 $826 $7 $-1 $827 reversed single #
plane-surface $-1 0 60 0 0 -1 0 0 0 -1 forward_v I I I I #
edge $828 $782 -14 $796 14 $715 $829 forward 7 unknown #
attrib_edge_convexity-kcp-attrib $-1 $830 $-1 $716 1 #
vertex $-1 $716 $831 #
attrib_edge_convexity-kcp-attrib $-1 $832 $-1 $720 1 #
straight-curve $-1 18.6847730906827 60 0.87259526419164601 -0.86602540378443804 0 0.500000000000001 I I #
convexity-sys-attrib $-1 $-1 $721 $630 #
attrib_edge_convexity-kcp-attrib $-1 $833 $-1 $725 1 #
ellipse-curve $-1 -13.6602540378444 60 -2 0 -1 0 -1.2940952255126099 0 4.8296291314453397 1 I I #
coedge $-1 $790 $727 $834 $835 reversed $639 $-1 #
point $-1 -16.1602540378444 60 2.3301270189221901 #
coedge $-1 $733 $788 $731 $791 reversed $639 $-1 #
edge $836 $735 -14 $837 14 $790 $838 forward 7 unknown #
attrib_edge_convexity-kcp-attrib $-1 $839 $-1 $734 1 #
straight-curve $-1 0 60 14 -1 0 0 I I #
point $-1 -60 60 14 #
attrib_edge_convexity-kcp-attrib $-1 $840 $-1 $738 1 #
vertex $-1 $780 $841 #
straight-curve $-1 60 0 -14 0 -1 0 I I #
edge $842 $759 44.444863728670903 $741 60 $739 $843 forward 7 unknown #
convexity-sys-attrib $-1 $-1 $740 $656 #
point $-1 60 60 -14 #
point $-1 -60 13.660254037844201 -3 #
straight-curve $-1 -60 0 -3 0 1 0 I I #
coedge $-1 $844 $834 $752 $804 forward $826 $-1 #
edge $845 $806 -60 $846 60 $803 $847 forward 7 unknown #
attrib_edge_convexity-kcp-attrib $-1 $848 $-1 $753 1 #
vertex $-1 $835 $849 #
straight-curve $-1 -18.6847730906827 60 0.87259526419164601 -0.86602540378443804 0 -0.500000000000001 I I #
face $850 $134 $758 $7 $-1 $827 reversed single #
point $-1 44.444863728670903 60 -14 #
coedge $-1 $771 $761 $769 $817 reversed $689 $-1 #
model_id-kcp-attrib $-1 $-1 $-1 $762 1 990548966 110 -127008767 36 #
straight-curve $-1 0 -60 -14 -1 0 0 I I #
coedge $-1 $764 $771 $844 $851 reversed $689 $-1 #
edge $-1 $846 -29.745190528383297 $768 2.9150635094610697 $764 $852 forward 7 unknown #
ellipse-curve $-1 -13.6602540378444 -60 -2 0 1 0 -1.2940952255126099 0 4.8296291314453397 1 I I #
point $-1 -16.1602540378444 -60 2.3301270189221901 #
edge $853 $773 -60 $782 60 $810 $854 forward 7 unknown #
coedge $-1 $834 $844 $770 $819 forward $826 $-1 #
edge $855 $821 -60 $837 60 $770 $856 forward 7 unknown #
model_id-kcp-attrib $-1 $-1 $-1 $772 1 990548966 110 -127008767 33 #
vertex $-1 $819 $857 #
straight-curve $-1 -60 -60 0 0 0 -1 I I #
point $-1 -60 -60 14 #
model_id-kcp-attrib $-1 $-1 $777 $714 1 990548966 110 -127008767 23 #
model_id-kcp-attrib $-1 $-1 $-1 $778 1 990548966 110 -127008767 24 #
loop $-1 $-1 $803 $778 #
plane-surface $-1 0 0 -14 0 0 1 1 0 0 forward_v I I I I #
model_id-kcp-attrib $-1 $858 $-1 $780 1 990548966 110 -127008767 35 #
straight-curve $-1 60 -60 0 0 0 -1 I I #
convexity-sys-attrib $-1 $-1 $781 $716 #
point $-1 60 -60 14 #
convexity-sys-attrib $-1 $-1 $783 $720 #
convexity-sys-attrib $-1 $-1 $786 $725 #
coedge $-1 $803 $818 $788 $835 forward $826 $-1 #
edge $859 $837 -60 $806 -44.444863728670903 $788 $843 forward 7 unknown #
attrib_edge_convexity-kcp-attrib $-1 $860 $-1 $791 1 #
vertex $-1 $835 $861 #
straight-curve $-1 -60 60 0 0 0 -1 I I #
convexity-sys-attrib $-1 $-1 $792 $734 #
convexity-sys-attrib $-1 $-1 $795 $738 #
point $-1 60 -60 -14 #
attrib_edge_convexity-kcp-attrib $-1 $862 $-1 $798 1 #
straight-curve $-1 0 60 -14 1 0 0 I I #
coedge $-1 $818 $803 $813 $851 forward $826 $-1 #
attrib_edge_convexity-kcp-attrib $-1 $863 $-1 $804 1 #
vertex $-1 $804 $864 #
straight-curve $-1 -44.444863728670903 0 -14 0 -1 0 I I #
convexity-sys-attrib $-1 $-1 $805 $753 #
point $-1 -44.444863728670903 60 -14 #
model_id-kcp-attrib $-1 $-1 $-1 $808 1 990548966 110 -127008767 25 #
edge $865 $846 44.444863728670903 $821 60 $813 $812 forward 7 unknown #
straight-curve $-1 -18.6847730906827 -60 0.87259526419164601 0.86602540378443804 0 0.500000000000001 I I #
model_id-kcp-attrib $-1 $-1 $-1 $817 1 990548966 110 -127008767 34 #
straight-curve $-1 0 -60 14 1 0 0 I I #
attrib_edge_convexity-kcp-attrib $-1 $866 $-1 $819 1 #
straight-curve $-1 -60 0 -14 0 1 0 I I #
point $-1 -60 -60 -14 #
attrib_edge_convexity-kcp-attrib $-1 $867 $828 $780 1 #
attrib_edge_convexity-kcp-attrib $-1 $868 $-1 $835 1 #
convexity-sys-attrib $-1 $-1 $836 $791 #
point $-1 -60 60 -14 #
convexity-sys-attrib $-1 $-1 $842 $798 #
convexity-sys-attrib $-1 $-1 $845 $804 #
point $-1 -44.444863728670903 -60 -14 #
model_id-kcp-attrib $-1 $869 $-1 $851 1 990548966 110 -127008767 37 #
convexity-sys-attrib $-1 $-1 $855 $819 #
convexity-sys-attrib $-1 $-1 $858 $780 #
convexity-sys-attrib $-1 $-1 $859 $835 #
attrib_edge_convexity-kcp-attrib $-1 $870 $865 $851 1 #
convexity-sys-attrib $-1 $-1 $869 $851 #
End-of-ACIS-data 