700 0 2 0           
24 FBMach with ACIS - 7.0.3 13 ACIS 7.0.3 NT 24 Tue May 14 09:58:25 2002 
1 9.9999999999999995e-007 1e-010 
body $2 -1 $-1 $3 $-1 $4 #
bdycol-kcp $-1 -1 1 5 $5 $6 $7 $8 $9 #
model_id-kcp-attrib $-1 -1 $-1 $-1 $0 1 1021384704 1021384704 -1041039359 1 #
lump $-1 -1 $-1 $-1 $10 $0 #
transform $-1 -1 1 0 0 0 1.0000000000000002 0 0 0 1.0000000000000002 0 0 0 1 rotate no_reflect no_shear #
body $11 -1 $-1 $12 $-1 $13 #
body $14 -1 $-1 $15 $-1 $16 #
body $17 -1 $-1 $18 $-1 $19 #
body $20 -1 $-1 $21 $-1 $22 #
body $23 -1 $-1 $24 $-1 $25 #
shell $-1 -1 $-1 $-1 $-1 $26 $-1 $3 #
rgb_color-st-attrib $-1 -1 $27 $-1 $5 0.5 0.5 1 #
lump $-1 -1 $-1 $-1 $28 $5 #
transform $-1 -1 1 0 0 0 1 0 0 0 1 220 -220 17.5 1 no_rotate no_reflect no_shear #
rgb_color-st-attrib $-1 -1 $29 $-1 $6 0.5 0.5 1 #
lump $-1 -1 $-1 $-1 $30 $6 #
transform $-1 -1 1 0 0 0 1 0 0 0 1 220 -220 17.5 1 no_rotate no_reflect no_shear #
rgb_color-st-attrib $-1 -1 $31 $-1 $7 0.5 0.5 1 #
lump $-1 -1 $-1 $-1 $32 $7 #
transform $-1 -1 1 0 0 0 1 0 0 0 1 220 -220 17.5 1 no_rotate no_reflect no_shear #
rgb_color-st-attrib $-1 -1 $33 $-1 $8 0.5 1 1 #
lump $-1 -1 $-1 $-1 $34 $8 #
transform $-1 -1 1 0 0 0 1 0 0 0 1 220 -220 17.5 1 no_rotate no_reflect no_shear #
model_id-kcp-attrib $-1 -1 $-1 $-1 $9 1 1021384704 1021384704 -1041039358 1 #
lump $-1 -1 $-1 $-1 $35 $9 #
transform $-1 -1 1 0 0 0 1 0 0 0 1 220 -220 17.5 1 no_rotate no_reflect no_shear #
face $36 -1 $-1 $37 $38 $10 $-1 $39 reversed single #
model_id-kcp-attrib $-1 -1 $-1 $11 $5 1 1021384704 1021384704 -1054277628 1 #
shell $-1 -1 $-1 $-1 $-1 $40 $-1 $12 #
model_id-kcp-attrib $-1 -1 $-1 $14 $6 1 1021384704 1021384704 -1052966907 1 #
shell $-1 -1 $-1 $-1 $-1 $41 $-1 $15 #
model_id-kcp-attrib $-1 -1 $-1 $17 $7 1 1021384704 1021384704 -1051656186 1 #
shell $-1 -1 $-1 $-1 $-1 $42 $-1 $18 #
model_id-kcp-attrib $-1 -1 $-1 $20 $8 1 1021384704 1021384704 -1042087933 1 #
shell $-1 -1 $-1 $-1 $-1 $43 $-1 $21 #
shell $-1 -1 $-1 $-1 $-1 $44 $-1 $24 #
model_id-kcp-attrib $-1 -1 $45 $-1 $26 1 1021384704 1021384704 -1041039359 2 #
face $46 -1 $-1 $47 $48 $10 $-1 $49 forward single #
loop $50 -1 $-1 $-1 $51 $26 #
plane-surface $52 -1 $-1 0 0 0 0 0 1 1 0 0 forward_v I I I I #
face $-1 -1 $-1 $53 $54 $28 $-1 $55 reversed single #
face $-1 -1 $-1 $56 $57 $30 $-1 $58 reversed single #
face $-1 -1 $-1 $59 $60 $32 $-1 $61 reversed single #
face $-1 -1 $-1 $62 $63 $34 $-1 $64 reversed single #
face $65 -1 $-1 $66 $67 $35 $-1 $68 forward single #
face_name-twe-attrib $-1 -1 $-1 $36 $26 1 #
model_id-kcp-attrib $-1 -1 $69 $-1 $37 1 1021384704 1021384704 -1041039359 3 #
face $70 -1 $-1 $71 $72 $10 $-1 $73 forward single #
loop $74 -1 $-1 $-1 $75 $37 #
plane-surface $76 -1 $-1 3 -3 0 -0.70710678118654757 0 -0.70710678118654757 -0.70710678118654802 0 0.70710678118654802 forward_v I I I I #
loop_type-twe-attrib $-1 -1 $-1 $-1 $38 0 #
coedge $-1 -1 $-1 $77 $78 $75 $79 forward $38 $-1 #
surf-twe-attrib $-1 -1 $-1 $-1 $39 4 #
face $-1 -1 $-1 $80 $81 $28 $-1 $82 reversed single #
loop $-1 -1 $-1 $-1 $83 $40 #
plane-surface $-1 -1 $-1 -218.49999999999994 0 -15.999999999999943 -0.70710678118654757 0 -0.70710678118654757 0 -1 0 forward_v I I I I #
face $-1 -1 $-1 $84 $85 $30 $-1 $86 reversed single #
loop $-1 -1 $-1 $-1 $87 $41 #
plane-surface $-1 -1 $-1 0 -218.49999999999994 -15.999999999999943 0 -0.70710678118654757 -0.70710678118654757 1 0 0 forward_v I I I I #
face $-1 -1 $-1 $88 $89 $32 $-1 $90 reversed single #
loop $-1 -1 $-1 $-1 $91 $42 #
plane-surface $-1 -1 $-1 218.49999999999994 0 -15.999999999999943 0.70710678118654757 0 -0.70710678118654757 0 1 0 forward_v I I I I #
face $-1 -1 $-1 $92 $93 $34 $-1 $94 reversed single #
loop $-1 -1 $-1 $-1 $95 $43 #
plane-surface $-1 -1 $-1 220.00000000000011 0 -234.49999999999994 0 0.70710678118654757 -0.70710678118654746 0 -0.70710678118654746 -0.70710678118654757 forward_v I I I I #
model_id-kcp-attrib $-1 -1 $-1 $-1 $44 1 1021384704 1021384704 -1041039358 3 #
face $96 -1 $-1 $97 $98 $35 $-1 $99 reversed single #
loop $-1 -1 $-1 $-1 $100 $44 #
plane-surface $-1 -1 $-1 0 0 17.5 0 0 1 1 0 0 forward_v I I I I #
face_name-twe-attrib $-1 -1 $-1 $46 $37 2 #
model_id-kcp-attrib $-1 -1 $101 $-1 $47 1 1021384704 1021384704 -1041039359 4 #
face $102 -1 $-1 $103 $104 $10 $-1 $105 forward single #
loop $106 -1 $-1 $-1 $107 $47 #
plane-surface $108 -1 $-1 0 -437 0 0 -0.70710678118654757 -0.70710678118654757 -1 0 0 forward_v I I I I #
loop_type-twe-attrib $-1 -1 $-1 $-1 $48 0 #
coedge $-1 -1 $-1 $109 $110 $51 $79 reversed $48 $-1 #
surf-twe-attrib $-1 -1 $-1 $-1 $49 6 #
coedge $-1 -1 $-1 $111 $51 $112 $113 forward $38 $-1 #
coedge $-1 -1 $-1 $51 $111 $107 $114 forward $38 $-1 #
edge $115 -1 $-1 $116 -434 $117 0 $75 $118 forward @7 unknown #
face $-1 -1 $-1 $119 $120 $28 $-1 $121 forward single #
loop $-1 -1 $-1 $-1 $122 $53 #
plane-surface $-1 -1 $-1 -220 0 0 1 0 0 0 0 -1 forward_v I I I I #
coedge $-1 -1 $-1 $123 $124 $125 $126 forward $54 $-1 #
face $-1 -1 $-1 $127 $128 $30 $-1 $129 reversed single #
loop $-1 -1 $-1 $-1 $130 $56 #
plane-surface $-1 -1 $-1 0 -220 0 0 1 0 0 0 1 forward_v I I I I #
coedge $-1 -1 $-1 $131 $132 $133 $134 forward $57 $-1 #
face $-1 -1 $-1 $135 $136 $32 $-1 $137 forward single #
loop $-1 -1 $-1 $-1 $138 $59 #
plane-surface $-1 -1 $-1 0 0 -17.5 0 0 1 1 0 0 forward_v I I I I #
coedge $-1 -1 $-1 $139 $140 $141 $142 forward $60 $-1 #
face $-1 -1 $-1 $143 $144 $34 $-1 $145 reversed single #
loop $-1 -1 $-1 $-1 $146 $62 #
plane-surface $-1 -1 $-1 0 220 0 0 -1 0 0 0 -1 forward_v I I I I #
coedge $-1 -1 $-1 $147 $148 $146 $149 reversed $63 $-1 #
model_id-kcp-attrib $-1 -1 $-1 $-1 $66 1 1021384704 1021384704 -1041039358 2 #
face $150 -1 $-1 $151 $152 $35 $-1 $153 reversed single #
loop $-1 -1 $-1 $-1 $154 $66 #
plane-surface $-1 -1 $-1 0 0 -17.5 0 0 1 1 0 0 forward_v I I I I #
coedge $-1 -1 $-1 $155 $156 $157 $158 forward $67 $-1 #
face_name-twe-attrib $-1 -1 $-1 $70 $47 3 #
model_id-kcp-attrib $-1 -1 $159 $-1 $71 1 1021384704 1021384704 -1041039359 5 #
face $160 -1 $-1 $161 $162 $10 $-1 $163 forward single #
loop $164 -1 $-1 $-1 $165 $71 #
plane-surface $166 -1 $-1 437 -440 0 0.70710678118654757 0 -0.70710678118654757 -0.70710678118654802 0 -0.70710678118654802 forward_v I I I I #
loop_type-twe-attrib $-1 -1 $-1 $-1 $72 0 #
coedge $-1 -1 $-1 $167 $168 $78 $114 reversed $72 $-1 #
surf-twe-attrib $-1 -1 $-1 $-1 $73 10 #
coedge $-1 -1 $-1 $169 $75 $168 $170 reversed $48 $-1 #
coedge $-1 -1 $-1 $75 $169 $171 $172 forward $48 $-1 #
coedge $-1 -1 $-1 $78 $77 $165 $173 forward $38 $-1 #
coedge $-1 -1 $-1 $171 $174 $77 $113 reversed $162 $-1 #
edge $175 -1 $-1 $117 -434 $176 0 $112 $177 forward @7 unknown #
edge $178 -1 $-1 $179 -434 $116 0 $107 $180 forward @7 unknown #
attrib_edge_convexity-kcp-attrib $-1 -1 $181 $-1 $79 1 #
vertex $-1 -1 $-1 $114 $182 #
vertex $-1 -1 $-1 $113 $183 #
straight-curve $184 -1 $-1 3 -3 0 0 1 0 I I #
face $-1 -1 $-1 $185 $186 $28 $-1 $187 reversed single #
loop $-1 -1 $-1 $-1 $125 $80 #
plane-surface $-1 -1 $-1 220.00000000000011 0 -234.49999999999994 0 0.70710678118654757 -0.70710678118654746 0 -0.70710678118654746 -0.70710678118654757 forward_v I I I I #
coedge $-1 -1 $-1 $188 $189 $123 $190 reversed $81 $-1 #
coedge $-1 -1 $-1 $191 $83 $122 $190 forward $54 $-1 #
coedge $-1 -1 $-1 $83 $191 $192 $193 forward $54 $-1 #
coedge $-1 -1 $-1 $194 $195 $83 $126 reversed $120 $-1 #
edge $196 -1 $-1 $197 313.21252103537182 $198 318.40867345807862 $125 $199 forward @7 unknown #
face $-1 -1 $-1 $200 $201 $30 $-1 $202 reversed single #
loop $-1 -1 $-1 $-1 $133 $84 #
plane-surface $-1 -1 $-1 -220 0 0 1 0 0 0 0 -1 forward_v I I I I #
coedge $-1 -1 $-1 $203 $204 $131 $205 reversed $85 $-1 #
coedge $-1 -1 $-1 $206 $87 $130 $205 forward $57 $-1 #
coedge $-1 -1 $-1 $87 $206 $207 $208 forward $57 $-1 #
coedge $-1 -1 $-1 $209 $210 $87 $134 reversed $128 $-1 #
edge $211 -1 $-1 $212 69.473241251578216 $213 73.715881938697663 $133 $214 forward @7 unknown #
face $-1 -1 $-1 $215 $216 $32 $-1 $217 reversed single #
loop $-1 -1 $-1 $-1 $141 $88 #
plane-surface $-1 -1 $-1 220.00000000000011 0 -234.49999999999994 0 0.70710678118654757 -0.70710678118654746 0 -0.70710678118654746 -0.70710678118654757 forward_v I I I I #
coedge $-1 -1 $-1 $218 $219 $139 $220 reversed $89 $-1 #
coedge $-1 -1 $-1 $221 $91 $138 $220 forward $60 $-1 #
coedge $-1 -1 $-1 $91 $221 $222 $223 forward $60 $-1 #
coedge $-1 -1 $-1 $224 $225 $91 $142 reversed $136 $-1 #
edge $226 -1 $-1 $227 -191.39161423636097 $228 -186.19546181365411 $141 $229 forward @7 unknown #
face $-1 -1 $-1 $230 $231 $34 $-1 $232 reversed single #
loop $-1 -1 $-1 $-1 $233 $92 #
plane-surface $-1 -1 $-1 220 0 0 -1 0 0 0 0 1 forward_v I I I I #
coedge $-1 -1 $-1 $234 $235 $95 $149 forward $93 $-1 #
coedge $-1 -1 $-1 $236 $95 $237 $238 reversed $63 $-1 #
coedge $-1 -1 $-1 $95 $236 $233 $239 reversed $63 $-1 #
edge $-1 -1 $-1 $240 -330.00000000000006 $241 110.00000000000006 $146 $242 forward @7 unknown #
model_id-kcp-attrib $-1 -1 $-1 $-1 $97 1 1021384704 1021384704 -1041039358 5 #
face $243 -1 $-1 $244 $245 $35 $-1 $246 reversed single #
loop $-1 -1 $-1 $-1 $247 $97 #
plane-surface $-1 -1 $-1 0 -220 0 0 1 0 0 0 1 forward_v I I I I #
coedge $-1 -1 $-1 $248 $249 $250 $251 forward $98 $-1 #
coedge $-1 -1 $-1 $252 $100 $253 $254 forward $67 $-1 #
coedge $-1 -1 $-1 $100 $252 $255 $256 forward $67 $-1 #
coedge $-1 -1 $-1 $257 $258 $100 $158 reversed $259 $-1 #
edge $-1 -1 $-1 $260 -220 $261 220 $157 $262 forward @7 unknown #
face_name-twe-attrib $-1 -1 $-1 $102 $71 4 #
model_id-kcp-attrib $-1 -1 $263 $-1 $103 1 1021384704 1021384704 -1041039359 6 #
face $264 -1 $-1 $265 $266 $10 $-1 $267 forward single #
loop $268 -1 $-1 $-1 $112 $103 #
plane-surface $269 -1 $-1 440 -3 0 0 0.70710678118654757 -0.70710678118654757 -1 0 0 forward_v I I I I #
loop_type-twe-attrib $-1 -1 $-1 $-1 $104 0 #
coedge $-1 -1 $-1 $270 $271 $111 $173 reversed $104 $-1 #
surf-twe-attrib $-1 -1 $-1 $-1 $105 17 #
coedge $-1 -1 $-1 $272 $107 $271 $273 reversed $72 $-1 #
coedge $-1 -1 $-1 $107 $272 $109 $170 forward $72 $-1 #
coedge $-1 -1 $-1 $110 $109 $274 $275 forward $48 $-1 #
edge $276 -1 $-1 $277 -5.196152422706632 $116 0 $168 $278 forward @7 unknown #
coedge $-1 -1 $-1 $279 $112 $110 $172 reversed $162 $-1 #
edge $280 -1 $-1 $281 -5.196152422706632 $117 0 $171 $282 forward @7 unknown #
edge $283 -1 $-1 $176 -434 $179 0 $165 $284 forward @7 unknown #
coedge $-1 -1 $-1 $112 $279 $270 $285 forward $162 $-1 #
attrib_edge_convexity-kcp-attrib $-1 -1 $286 $-1 $113 1 #
vertex $-1 -1 $-1 $113 $287 #
straight-curve $288 -1 $-1 437 -3 0 1 0 0 I I #
attrib_edge_convexity-kcp-attrib $-1 -1 $289 $-1 $114 1 #
vertex $-1 -1 $-1 $173 $290 #
straight-curve $291 -1 $-1 3 -437 0 -1 0 0 I I #
convexity-sys-attrib $-1 -1 $292 $115 $79 #
point $-1 -1 $-1 3 -437 0 #
point $-1 -1 $-1 3 -3 0 #
cur-twe-attrib $-1 -1 $-1 $-1 $118 25 #
face $-1 -1 $-1 $-1 $293 $28 $-1 $294 reversed single #
loop $-1 -1 $-1 $-1 $192 $119 #
plane-surface $-1 -1 $-1 0 0 -17.5 0 0 1 1 0 0 forward_v I I I I #
coedge $-1 -1 $-1 $295 $122 $195 $296 forward $81 $-1 #
coedge $-1 -1 $-1 $122 $295 $297 $298 reversed $81 $-1 #
edge $299 -1 $-1 $198 -220 $300 220 $122 $301 forward @7 unknown #
coedge $-1 -1 $-1 $124 $123 $302 $303 forward $54 $-1 #
coedge $-1 -1 $-1 $304 $305 $124 $193 reversed $186 $-1 #
edge $306 -1 $-1 $307 -220 $197 216.99999999999991 $192 $308 forward @7 unknown #
coedge $-1 -1 $-1 $195 $125 $305 $309 reversed $120 $-1 #
coedge $-1 -1 $-1 $125 $194 $188 $296 reversed $120 $-1 #
convexity-sys-attrib $-1 -1 $-1 $-1 $126 #
vertex $-1 -1 $-1 $126 $310 #
vertex $-1 -1 $-1 $126 $311 #
straight-curve $-1 -1 $-1 -36.166666666666622 36.166666666666643 -198.33333333333329 -0.57735026918962573 0.57735026918962562 0.57735026918962573 I I #
face $-1 -1 $-1 $-1 $312 $30 $-1 $313 reversed single #
loop $-1 -1 $-1 $-1 $314 $127 #
plane-surface $-1 -1 $-1 220 0 0 -1 0 0 0 0 1 forward_v I I I I #
coedge $-1 -1 $-1 $315 $130 $210 $316 forward $85 $-1 #
coedge $-1 -1 $-1 $130 $315 $317 $318 reversed $85 $-1 #
edge $319 -1 $-1 $213 -220 $320 220 $130 $321 forward @7 unknown #
coedge $-1 -1 $-1 $132 $131 $314 $322 forward $57 $-1 #
coedge $-1 -1 $-1 $323 $324 $132 $208 reversed $312 $-1 #
edge $325 -1 $-1 $326 -220 $212 220 $207 $327 forward @7 unknown #
coedge $-1 -1 $-1 $210 $133 $324 $328 reversed $128 $-1 #
coedge $-1 -1 $-1 $133 $209 $203 $316 reversed $128 $-1 #
convexity-sys-attrib $-1 -1 $-1 $-1 $134 #
vertex $-1 -1 $-1 $134 $329 #
vertex $-1 -1 $-1 $316 $330 #
straight-curve $-1 -1 $-1 -220 -167.87499999999994 -66.624999999999943 0 -0.70710678118654757 0.70710678118654757 I I #
face $-1 -1 $-1 $-1 $331 $32 $-1 $332 reversed single #
loop $-1 -1 $-1 $-1 $222 $135 #
plane-surface $-1 -1 $-1 220 0 0 -1 0 0 0 0 1 forward_v I I I I #
coedge $-1 -1 $-1 $333 $138 $225 $334 forward $89 $-1 #
coedge $-1 -1 $-1 $138 $333 $335 $336 forward $89 $-1 #
edge $337 -1 $-1 $228 -216.99999999999991 $338 220 $138 $339 forward @7 unknown #
coedge $-1 -1 $-1 $140 $139 $340 $341 forward $60 $-1 #
coedge $-1 -1 $-1 $342 $343 $140 $223 reversed $216 $-1 #
edge $344 -1 $-1 $345 -220 $227 220 $222 $346 forward @7 unknown #
coedge $-1 -1 $-1 $225 $141 $343 $347 reversed $136 $-1 #
coedge $-1 -1 $-1 $141 $224 $218 $334 reversed $136 $-1 #
convexity-sys-attrib $-1 -1 $-1 $-1 $142 #
vertex $-1 -1 $-1 $347 $348 #
vertex $-1 -1 $-1 $334 $349 #
straight-curve $-1 -1 $-1 109.5 109.50000000000003 -124.99999999999991 -0.57735026918962573 -0.57735026918962562 -0.57735026918962573 I I #
face $-1 -1 $-1 $-1 $350 $34 $-1 $351 reversed single #
loop $-1 -1 $-1 $-1 $352 $143 #
plane-surface $-1 -1 $-1 0 0 -17.5 0 0 1 1 0 0 forward_v I I I I #
coedge $-1 -1 $-1 $353 $354 $148 $239 forward $144 $-1 #
coedge $-1 -1 $-1 $355 $146 $354 $356 forward $93 $-1 #
coedge $-1 -1 $-1 $146 $355 $357 $358 reversed $93 $-1 #
coedge $-1 -1 $-1 $148 $147 $352 $359 reversed $63 $-1 #
coedge $-1 -1 $-1 $357 $360 $147 $238 forward $350 $-1 #
edge $-1 -1 $-1 $361 223.97607294083886 $240 228.21871362795821 $237 $362 forward @7 unknown #
edge $-1 -1 $-1 $241 -228.21871362795821 $363 -223.97607294083886 $233 $364 forward @7 unknown #
vertex $-1 -1 $-1 $358 $365 #
vertex $-1 -1 $-1 $356 $366 #
straight-curve $-1 -1 $-1 110.00000000000006 220 -14.499999999999915 1 0 0 I I #
model_id-kcp-attrib $-1 -1 $-1 $-1 $151 1 1021384704 1021384704 -1041039358 4 #
face $367 -1 $-1 $368 $369 $35 $-1 $370 reversed single #
loop $-1 -1 $-1 $-1 $371 $151 #
plane-surface $-1 -1 $-1 -220 0 0 1 0 0 0 0 -1 forward_v I I I I #
coedge $-1 -1 $-1 $372 $255 $373 $374 forward $152 $-1 #
coedge $-1 -1 $-1 $375 $154 $372 $376 forward $98 $-1 #
coedge $-1 -1 $-1 $154 $375 $377 $378 forward $98 $-1 #
coedge $-1 -1 $-1 $258 $257 $154 $251 reversed $259 $-1 #
edge $-1 -1 $-1 $379 -220 $380 220 $250 $381 forward @7 unknown #
coedge $-1 -1 $-1 $156 $155 $382 $383 forward $67 $-1 #
coedge $-1 -1 $-1 $384 $385 $155 $254 reversed $369 $-1 #
edge $-1 -1 $-1 $261 -220 $386 220 $253 $387 forward @7 unknown #
coedge $-1 -1 $-1 $247 $388 $156 $256 reversed $152 $-1 #
edge $-1 -1 $-1 $389 -220 $260 220 $255 $390 forward @7 unknown #
coedge $-1 -1 $-1 $250 $157 $388 $391 forward $259 $-1 #
coedge $-1 -1 $-1 $157 $250 $384 $392 reversed $259 $-1 #
loop $-1 -1 $-1 $-1 $257 $368 #
vertex $-1 -1 $-1 $158 $393 #
vertex $-1 -1 $-1 $158 $394 #
straight-curve $-1 -1 $-1 220 0 17.5 0 1 0 I I #
face_name-twe-attrib $-1 -1 $-1 $160 $103 5 #
model_id-kcp-attrib $-1 -1 $395 $-1 $161 1 1021384704 1021384704 -1041039359 7 #
face $396 -1 $-1 $397 $398 $10 $-1 $399 forward single #
loop $400 -1 $-1 $-1 $401 $161 #
plane-surface $402 -1 $-1 0 0 35 0 0 1 1 0 0 forward_v I I I I #
loop_type-twe-attrib $-1 -1 $-1 $-1 $162 0 #
surf-twe-attrib $-1 -1 $-1 $-1 $163 27 #
coedge $-1 -1 $-1 $403 $165 $174 $285 reversed $104 $-1 #
coedge $-1 -1 $-1 $165 $403 $167 $273 forward $104 $-1 #
coedge $-1 -1 $-1 $168 $167 $404 $405 forward $72 $-1 #
edge $406 -1 $-1 $407 -5.196152422706632 $179 0 $271 $408 forward @7 unknown #
coedge $-1 -1 $-1 $409 $410 $169 $275 reversed $398 $-1 #
edge $411 -1 $-1 $277 -440 $281 0 $274 $412 forward @7 unknown #
attrib_edge_convexity-kcp-attrib $-1 -1 $413 $-1 $170 1 #
vertex $-1 -1 $-1 $414 $415 #
straight-curve $416 -1 $-1 3 -437 0 0.57735026918962595 0.57735026918962595 -0.57735026918962595 I I #
coedge $-1 -1 $-1 $174 $171 $417 $418 forward $162 $-1 #
attrib_edge_convexity-kcp-attrib $-1 -1 $419 $-1 $172 1 #
vertex $-1 -1 $-1 $420 $421 #
straight-curve $422 -1 $-1 3 -3 0 0.57735026918962595 -0.57735026918962595 -0.57735026918962595 I I #
attrib_edge_convexity-kcp-attrib $-1 -1 $423 $-1 $173 1 #
straight-curve $424 -1 $-1 437 -437 0 0 -1 0 I I #
edge $425 -1 $-1 $426 -5.196152422706632 $176 0 $174 $427 forward @7 unknown #
convexity-sys-attrib $-1 -1 $428 $175 $113 #
point $-1 -1 $-1 437 -3 0 #
cur-twe-attrib $-1 -1 $-1 $-1 $177 37 #
convexity-sys-attrib $-1 -1 $429 $178 $114 #
point $-1 -1 $-1 437 -437 0 #
cur-twe-attrib $-1 -1 $-1 $-1 $180 38 #
edge_name-twe-attrib $-1 -1 $-1 $181 $79 1 8448 #
loop $-1 -1 $-1 $-1 $302 $185 #
plane-surface $-1 -1 $-1 0 -220 0 0 1 0 0 0 1 forward_v I I I I #
coedge $-1 -1 $-1 $189 $188 $430 $431 reversed $81 $-1 #
edge $-1 -1 $-1 $198 -228.21871362795821 $432 -223.97607294083886 $188 $433 forward @7 unknown #
coedge $-1 -1 $-1 $434 $302 $189 $298 forward $293 $-1 #
edge $-1 -1 $-1 $300 14.499999999999885 $435 17.5 $189 $436 forward @7 unknown #
convexity-sys-attrib $-1 -1 $-1 $-1 $190 #
vertex $-1 -1 $-1 $298 $437 #
straight-curve $-1 -1 $-1 -220 0 -14.499999999999886 0 -1 0 I I #
coedge $-1 -1 $-1 $297 $434 $191 $303 reversed $293 $-1 #
edge $438 -1 $-1 $300 -73.715881938697663 $307 -69.473241251578216 $302 $439 forward @7 unknown #
coedge $-1 -1 $-1 $430 $192 $434 $440 forward $186 $-1 #
coedge $-1 -1 $-1 $192 $430 $194 $309 forward $186 $-1 #
convexity-sys-attrib $-1 -1 $-1 $-1 $193 #
vertex $-1 -1 $-1 $440 $441 #
straight-curve $-1 -1 $-1 -216.99999999999989 0 -17.500000000000007 0 1 0 I I #
edge $-1 -1 $-1 $432 -330.00000000000006 $197 -326.99999999999994 $305 $442 forward @7 unknown #
point $-1 -1 $-1 -216.99999999999989 216.99999999999991 -17.5 #
point $-1 -1 $-1 -220 220 -14.499999999999915 #
loop $-1 -1 $-1 $-1 $207 $200 #
plane-surface $-1 -1 $-1 0 0 -17.5 0 0 1 1 0 0 forward_v I I I I #
coedge $-1 -1 $-1 $317 $443 $206 $322 reversed $201 $-1 #
coedge $-1 -1 $-1 $204 $203 $444 $445 reversed $85 $-1 #
edge $-1 -1 $-1 $213 14.499999999999885 $446 17.5 $210 $447 forward @7 unknown #
coedge $-1 -1 $-1 $443 $314 $204 $318 forward $201 $-1 #
edge $-1 -1 $-1 $320 14.499999999999885 $448 17.5 $317 $449 forward @7 unknown #
convexity-sys-attrib $-1 -1 $-1 $-1 $205 #
vertex $-1 -1 $-1 $318 $450 #
straight-curve $-1 -1 $-1 0 -220 -14.499999999999886 1 0 0 I I #
edge $451 -1 $-1 $320 -73.715881938697663 $326 -69.473241251578216 $314 $452 forward @7 unknown #
coedge $-1 -1 $-1 $444 $207 $443 $453 forward $312 $-1 #
coedge $-1 -1 $-1 $207 $444 $209 $328 forward $312 $-1 #
convexity-sys-attrib $-1 -1 $-1 $-1 $208 #
vertex $-1 -1 $-1 $453 $454 #
straight-curve $-1 -1 $-1 0 -216.99999999999989 -17.500000000000007 -1 0 0 I I #
edge $-1 -1 $-1 $446 -220 $212 -216.99999999999989 $209 $455 forward @7 unknown #
point $-1 -1 $-1 -220 -216.99999999999989 -17.5 #
point $-1 -1 $-1 -220 -220 -14.499999999999885 #
loop $-1 -1 $-1 $-1 $340 $215 #
plane-surface $-1 -1 $-1 0 -220 0 0 1 0 0 0 1 forward_v I I I I #
coedge $-1 -1 $-1 $219 $218 $456 $457 forward $89 $-1 #
edge $-1 -1 $-1 $228 106.99999999999983 $458 110.00000000000006 $218 $459 forward @7 unknown #
coedge $-1 -1 $-1 $460 $340 $219 $336 reversed $331 $-1 #
edge $-1 -1 $-1 $461 -220 $338 -216.99999999999989 $335 $462 forward @7 unknown #
convexity-sys-attrib $-1 -1 $-1 $-1 $220 #
vertex $-1 -1 $-1 $220 $463 #
straight-curve $-1 -1 $-1 216.99999999999989 0 -17.500000000000007 0 -1 0 I I #
coedge $-1 -1 $-1 $335 $460 $221 $341 reversed $331 $-1 #
edge $464 -1 $-1 $338 69.473241251578216 $345 73.715881938697663 $340 $465 forward @7 unknown #
coedge $-1 -1 $-1 $456 $222 $460 $466 forward $216 $-1 #
coedge $-1 -1 $-1 $222 $456 $224 $347 forward $216 $-1 #
convexity-sys-attrib $-1 -1 $-1 $-1 $223 #
vertex $-1 -1 $-1 $466 $467 #
straight-curve $-1 -1 $-1 220 0 -14.499999999999886 0 1 0 I I #
edge $-1 -1 $-1 $458 223.97607294083886 $227 228.21871362795821 $343 $468 forward @7 unknown #
point $-1 -1 $-1 220.00000000000011 220 -14.499999999999915 #
point $-1 -1 $-1 216.99999999999989 216.99999999999991 -17.5 #
loop $-1 -1 $-1 $-1 $237 $230 #
plane-surface $-1 -1 $-1 -220 0 0 1 0 0 0 0 -1 forward_v I I I I #
coedge $-1 -1 $-1 $469 $470 $236 $359 forward $231 $-1 #
coedge $-1 -1 $-1 $354 $233 $470 $471 reversed $144 $-1 #
coedge $-1 -1 $-1 $233 $353 $234 $356 reversed $144 $-1 #
coedge $-1 -1 $-1 $235 $234 $472 $473 reversed $93 $-1 #
edge $-1 -1 $-1 $241 14.499999999999915 $474 17.5 $354 $475 forward @7 unknown #
coedge $-1 -1 $-1 $360 $237 $235 $358 forward $350 $-1 #
edge $-1 -1 $-1 $240 14.499999999999915 $476 17.5 $235 $477 forward @7 unknown #
edge $-1 -1 $-1 $363 -110.00000000000006 $361 330.00000000000006 $352 $478 forward @7 unknown #
coedge $-1 -1 $-1 $237 $357 $469 $479 reversed $350 $-1 #
vertex $-1 -1 $-1 $479 $480 #
straight-curve $-1 -1 $-1 -220 58.624999999999986 -175.87499999999994 0 0.70710678118654746 0.70710678118654757 I I #
vertex $-1 -1 $-1 $239 $481 #
straight-curve $-1 -1 $-1 220 58.624999999999986 -175.87499999999994 0 -0.70710678118654746 -0.70710678118654757 I I #
point $-1 -1 $-1 -220 220 -14.499999999999915 #
point $-1 -1 $-1 220.00000000000011 220 -14.499999999999915 #
model_id-kcp-attrib $-1 -1 $-1 $-1 $244 1 1021384704 1021384704 -1041039358 7 #
face $482 -1 $-1 $-1 $259 $35 $-1 $483 reversed single #
loop $-1 -1 $-1 $-1 $384 $244 #
plane-surface $-1 -1 $-1 0 220 0 0 -1 0 0 0 -1 forward_v I I I I #
coedge $-1 -1 $-1 $484 $382 $385 $485 forward $245 $-1 #
coedge $-1 -1 $-1 $388 $247 $248 $376 reversed $152 $-1 #
coedge $-1 -1 $-1 $382 $484 $247 $374 reversed $245 $-1 #
edge $-1 -1 $-1 $389 -17.5 $486 17.5 $373 $487 forward @7 unknown #
coedge $-1 -1 $-1 $249 $248 $484 $488 forward $98 $-1 #
edge $-1 -1 $-1 $380 -220 $486 220 $372 $489 forward @7 unknown #
coedge $-1 -1 $-1 $385 $384 $249 $378 reversed $369 $-1 #
edge $-1 -1 $-1 $490 -220 $379 220 $377 $491 forward @7 unknown #
vertex $-1 -1 $-1 $251 $492 #
vertex $-1 -1 $-1 $391 $493 #
straight-curve $-1 -1 $-1 220 0 -17.5 0 -1 0 I I #
coedge $-1 -1 $-1 $371 $373 $252 $383 reversed $245 $-1 #
edge $-1 -1 $-1 $386 -220 $389 220 $382 $494 forward @7 unknown #
coedge $-1 -1 $-1 $377 $253 $258 $392 forward $369 $-1 #
coedge $-1 -1 $-1 $253 $377 $371 $485 reversed $369 $-1 #
vertex $-1 -1 $-1 $254 $495 #
straight-curve $-1 -1 $-1 0 220 17.5 -1 0 0 I I #
coedge $-1 -1 $-1 $255 $372 $257 $391 reversed $152 $-1 #
vertex $-1 -1 $-1 $383 $496 #
straight-curve $-1 -1 $-1 0 -220 17.5 1 0 0 I I #
edge $-1 -1 $-1 $260 -17.5 $380 17.5 $257 $497 forward @7 unknown #
edge $-1 -1 $-1 $261 -17.5 $379 17.5 $258 $498 forward @7 unknown #
point $-1 -1 $-1 220 -220 17.5 #
point $-1 -1 $-1 220 220 17.5 #
face_name-twe-attrib $-1 -1 $-1 $264 $161 6 #
model_id-kcp-attrib $-1 -1 $499 $-1 $265 1 1021384704 1021384704 -1041039359 8 #
face $500 -1 $-1 $501 $502 $10 $-1 $503 forward single #
loop $504 -1 $-1 $-1 $274 $265 #
plane-surface $505 -1 $-1 0 0 0 -1 0 0 0 0 1 forward_v I I I I #
loop_type-twe-attrib $-1 -1 $-1 $-1 $266 0 #
coedge $-1 -1 $-1 $506 $507 $508 $509 reversed $266 $-1 #
surf-twe-attrib $-1 -1 $-1 $-1 $267 44 #
coedge $-1 -1 $-1 $271 $270 $510 $511 forward $104 $-1 #
coedge $-1 -1 $-1 $512 $513 $272 $405 reversed $502 $-1 #
edge $514 -1 $-1 $407 -440 $277 0 $404 $515 forward @7 unknown #
attrib_edge_convexity-kcp-attrib $-1 -1 $516 $-1 $273 1 #
vertex $-1 -1 $-1 $517 $518 #
straight-curve $519 -1 $-1 437 -437 0 -0.57735026918962595 0.57735026918962595 -0.57735026918962595 I I #
coedge $-1 -1 $-1 $508 $274 $513 $414 reversed $398 $-1 #
coedge $-1 -1 $-1 $274 $508 $520 $420 forward $398 $-1 #
attrib_edge_convexity-kcp-attrib $-1 -1 $521 $-1 $275 1 #
straight-curve $522 -1 $-1 0 0 3 0 1 0 I I #
convexity-sys-attrib $-1 -1 $523 $276 $170 #
edge $524 -1 $-1 $525 -32 $277 0 $513 $526 forward @7 unknown #
point $-1 -1 $-1 0 -440 3 #
cur-twe-attrib $-1 -1 $-1 $-1 $278 53 #
coedge $-1 -1 $-1 $520 $527 $279 $418 reversed $528 $-1 #
edge $529 -1 $-1 $281 -440 $426 0 $417 $530 forward @7 unknown #
convexity-sys-attrib $-1 -1 $531 $280 $172 #
edge $532 -1 $-1 $533 -32 $281 0 $520 $534 forward @7 unknown #
point $-1 -1 $-1 0 0 3 #
cur-twe-attrib $-1 -1 $-1 $-1 $282 55 #
convexity-sys-attrib $-1 -1 $535 $283 $173 #
cur-twe-attrib $-1 -1 $-1 $-1 $284 56 #
attrib_edge_convexity-kcp-attrib $-1 -1 $536 $-1 $285 1 #
vertex $-1 -1 $-1 $537 $538 #
straight-curve $539 -1 $-1 437 -3 0 -0.57735026918962595 -0.57735026918962595 -0.57735026918962595 I I #
edge_name-twe-attrib $-1 -1 $-1 $286 $113 6 8448 #
edge_name-twe-attrib $-1 -1 $-1 $289 $114 2 8448 #
coedge $-1 -1 $-1 $305 $304 $295 $431 forward $186 $-1 #
edge $-1 -1 $-1 $435 -220 $432 216.99999999999991 $295 $540 forward @7 unknown #
vertex $-1 -1 $-1 $296 $541 #
straight-curve $-1 -1 $-1 -220 58.624999999999986 -175.87499999999994 0 -0.70710678118654746 -0.70710678118654757 I I #
coedge $-1 -1 $-1 $302 $297 $304 $440 reversed $293 $-1 #
vertex $-1 -1 $-1 $431 $542 #
straight-curve $-1 -1 $-1 -220 -220 0 0 0 -1 I I #
point $-1 -1 $-1 -220 -220 -14.499999999999885 #
convexity-sys-attrib $-1 -1 $-1 $-1 $303 #
straight-curve $-1 -1 $-1 -167.87499999999994 -220 -66.624999999999943 0.70710678118654757 0 -0.70710678118654757 I I #
edge $-1 -1 $-1 $307 216.99999999999989 $435 220 $434 $543 forward @7 unknown #
point $-1 -1 $-1 -216.99999999999989 -220 -17.5 #
straight-curve $-1 -1 $-1 110.00000000000006 216.99999999999991 -17.5 1 0 0 I I #
coedge $-1 -1 $-1 $314 $317 $323 $453 reversed $201 $-1 #
coedge $-1 -1 $-1 $324 $323 $315 $445 forward $312 $-1 #
edge $-1 -1 $-1 $448 -220 $446 220 $315 $544 forward @7 unknown #
vertex $-1 -1 $-1 $328 $545 #
straight-curve $-1 -1 $-1 -220 -220 0 0 0 -1 I I #
vertex $-1 -1 $-1 $318 $546 #
straight-curve $-1 -1 $-1 220 -220 0 0 0 -1 I I #
point $-1 -1 $-1 220 -220 -14.499999999999885 #
convexity-sys-attrib $-1 -1 $-1 $-1 $322 #
straight-curve $-1 -1 $-1 220 -167.87499999999994 -66.624999999999943 0 0.70710678118654757 -0.70710678118654757 I I #
edge $-1 -1 $-1 $326 216.99999999999989 $448 220 $443 $547 forward @7 unknown #
point $-1 -1 $-1 220 -216.99999999999989 -17.5 #
straight-curve $-1 -1 $-1 -220 0 -17.5 0 1 0 I I #
coedge $-1 -1 $-1 $343 $342 $333 $457 reversed $216 $-1 #
edge $-1 -1 $-1 $458 -216.99999999999991 $461 220 $456 $548 forward @7 unknown #
vertex $-1 -1 $-1 $457 $549 #
straight-curve $-1 -1 $-1 110.00000000000006 216.99999999999991 -17.5 1 0 0 I I #
coedge $-1 -1 $-1 $340 $335 $342 $466 reversed $331 $-1 #
vertex $-1 -1 $-1 $466 $550 #
straight-curve $-1 -1 $-1 0 -220 -17.5 -1 0 0 I I #
point $-1 -1 $-1 216.99999999999989 -220 -17.5 #
convexity-sys-attrib $-1 -1 $-1 $-1 $341 #
straight-curve $-1 -1 $-1 167.87499999999994 -220 -66.624999999999943 0.70710678118654757 0 0.70710678118654757 I I #
edge $-1 -1 $-1 $345 14.499999999999885 $461 17.5 $342 $551 forward @7 unknown #
point $-1 -1 $-1 220 -220 -14.499999999999885 #
straight-curve $-1 -1 $-1 220 58.624999999999986 -175.87499999999994 0 0.70710678118654746 0.70710678118654757 I I #
coedge $-1 -1 $-1 $472 $352 $360 $479 forward $231 $-1 #
coedge $-1 -1 $-1 $352 $472 $353 $471 forward $231 $-1 #
edge $-1 -1 $-1 $474 -220 $363 -216.99999999999991 $353 $552 forward @7 unknown #
coedge $-1 -1 $-1 $470 $469 $355 $473 forward $231 $-1 #
edge $-1 -1 $-1 $476 -220 $474 220 $355 $553 forward @7 unknown #
vertex $-1 -1 $-1 $471 $554 #
straight-curve $-1 -1 $-1 220 220 0 0 0 -1 I I #
vertex $-1 -1 $-1 $473 $555 #
straight-curve $-1 -1 $-1 -220 220 0 0 0 -1 I I #
straight-curve $-1 -1 $-1 110.00000000000006 216.99999999999991 -17.5 -1 0 0 I I #
edge $-1 -1 $-1 $361 216.99999999999991 $476 220 $360 $556 forward @7 unknown #
point $-1 -1 $-1 -220 216.99999999999991 -17.499999999999972 #
point $-1 -1 $-1 220.00000000000011 216.99999999999991 -17.499999999999972 #
model_id-kcp-attrib $-1 -1 $-1 $-1 $368 1 1021384704 1021384704 -1041039358 6 #
plane-surface $-1 -1 $-1 220 0 0 -1 0 0 0 0 1 forward_v I I I I #
coedge $-1 -1 $-1 $373 $371 $375 $488 reversed $245 $-1 #
edge $-1 -1 $-1 $386 -17.5 $490 17.5 $385 $557 forward @7 unknown #
vertex $-1 -1 $-1 $488 $558 #
straight-curve $-1 -1 $-1 -220 -220 0 0 0 -1 I I #
edge $-1 -1 $-1 $486 -220 $490 220 $484 $559 forward @7 unknown #
straight-curve $-1 -1 $-1 0 -220 -17.5 -1 0 0 I I #
vertex $-1 -1 $-1 $378 $560 #
straight-curve $-1 -1 $-1 0 220 -17.5 1 0 0 I I #
point $-1 -1 $-1 220 220 -17.5 #
point $-1 -1 $-1 220 -220 -17.5 #
straight-curve $-1 -1 $-1 -220 0 17.5 0 -1 0 I I #
point $-1 -1 $-1 -220 220 17.5 #
point $-1 -1 $-1 -220 -220 17.5 #
straight-curve $-1 -1 $-1 220 -220 0 0 0 -1 I I #
straight-curve $-1 -1 $-1 220 220 0 0 0 -1 I I #
face_name-twe-attrib $-1 -1 $-1 $396 $265 7 #
model_id-kcp-attrib $-1 -1 $561 $-1 $397 1 1021384704 1021384704 -1041039359 9 #
face $562 -1 $-1 $563 $564 $10 $-1 $565 forward single #
loop $566 -1 $-1 $-1 $404 $397 #
plane-surface $567 -1 $-1 0 -440 0 0 -1 0 0 0 -1 forward_v I I I I #
loop_type-twe-attrib $-1 -1 $-1 $-1 $398 0 #
surf-twe-attrib $-1 -1 $-1 $-1 $399 68 #
coedge $-1 -1 $-1 $568 $401 $569 $570 reversed $266 $-1 #
coedge $-1 -1 $-1 $401 $568 $571 $572 reversed $266 $-1 #
coedge $-1 -1 $-1 $410 $409 $401 $509 forward $398 $-1 #
edge $573 -1 $-1 $525 -440 $533 0 $508 $574 forward @7 unknown #
coedge $-1 -1 $-1 $575 $576 $403 $511 reversed $564 $-1 #
edge $577 -1 $-1 $426 -440 $407 0 $510 $578 forward @7 unknown #
coedge $-1 -1 $-1 $569 $404 $576 $517 reversed $502 $-1 #
coedge $-1 -1 $-1 $404 $569 $409 $414 forward $502 $-1 #
attrib_edge_convexity-kcp-attrib $-1 -1 $579 $-1 $405 1 #
straight-curve $580 -1 $-1 0 -440 3 -1 0 0 I I #
convexity-sys-attrib $-1 -1 $581 $406 $273 #
edge $582 -1 $-1 $583 -32 $407 0 $576 $584 forward @7 unknown #
point $-1 -1 $-1 440 -440 3 #
cur-twe-attrib $-1 -1 $-1 $-1 $408 76 #
coedge $-1 -1 $-1 $571 $417 $410 $420 reversed $528 $-1 #
convexity-sys-attrib $-1 -1 $585 $411 $275 #
cur-twe-attrib $-1 -1 $-1 $-1 $412 78 #
edge_name-twe-attrib $-1 -1 $-1 $413 $170 3 8448 #
attrib_edge_convexity-kcp-attrib $-1 -1 $586 $-1 $414 1 #
vertex $-1 -1 $-1 $414 $587 #
straight-curve $588 -1 $-1 0 -440 3 0 0 -1 I I #
coedge $-1 -1 $-1 $417 $571 $575 $537 forward $528 $-1 #
loop $589 -1 $-1 $-1 $417 $563 #
attrib_edge_convexity-kcp-attrib $-1 -1 $590 $-1 $418 1 #
straight-curve $591 -1 $-1 440 0 3 1 0 0 I I #
edge_name-twe-attrib $-1 -1 $-1 $419 $172 7 8448 #
model_id-kcp-attrib $-1 -1 $592 $-1 $420 1 1021384704 1021384704 -1041039359 16 #
vertex $-1 -1 $-1 $420 $593 #
straight-curve $594 -1 $-1 0 0 3 0 0 -1 I I #
edge_name-twe-attrib $-1 -1 $-1 $423 $173 4 8448 #
convexity-sys-attrib $-1 -1 $595 $425 $285 #
edge $596 -1 $-1 $597 -32 $426 0 $527 $598 forward @7 unknown #
point $-1 -1 $-1 440 0 3 #
cur-twe-attrib $-1 -1 $-1 $-1 $427 88 #
straight-curve $-1 -1 $-1 -220 0 -17.5 0 1 0 I I #
point $-1 -1 $-1 -220 216.99999999999991 -17.499999999999972 #
point $-1 -1 $-1 -220 -220 -17.5 #
straight-curve $-1 -1 $-1 0 -220 -17.5 -1 0 0 I I #
straight-curve $-1 -1 $-1 0 -220 -17.5 -1 0 0 I I #
point $-1 -1 $-1 -220 -220 -17.5 #
point $-1 -1 $-1 220 -220 -17.5 #
straight-curve $-1 -1 $-1 220 0 -17.5 0 -1 0 I I #
straight-curve $-1 -1 $-1 220 0 -17.5 0 -1 0 I I #
point $-1 -1 $-1 220.00000000000011 216.99999999999991 -17.499999999999972 #
point $-1 -1 $-1 220 -220 -17.5 #
straight-curve $-1 -1 $-1 220 -220 0 0 0 -1 I I #
straight-curve $-1 -1 $-1 220 0 -17.5 0 -1 0 I I #
straight-curve $-1 -1 $-1 0 220 -17.5 1 0 0 I I #
point $-1 -1 $-1 220 220 -17.5 #
point $-1 -1 $-1 -220 220 -17.5 #
straight-curve $-1 -1 $-1 -220 0 -17.5 0 1 0 I I #
straight-curve $-1 -1 $-1 -220 220 0 0 0 -1 I I #
point $-1 -1 $-1 -220 -220 -17.5 #
straight-curve $-1 -1 $-1 -220 0 -17.5 0 1 0 I I #
point $-1 -1 $-1 -220 220 -17.5 #
face_name-twe-attrib $-1 -1 $-1 $500 $397 8 #
model_id-kcp-attrib $-1 -1 $599 $-1 $501 1 1021384704 1021384704 -1041039359 10 #
face $600 -1 $-1 $-1 $528 $10 $-1 $601 forward single #
loop $602 -1 $-1 $-1 $510 $501 #
plane-surface $603 -1 $-1 440 -440 0 1 0 0 0 0 -1 forward_v I I I I #
loop_type-twe-attrib $-1 -1 $-1 $-1 $502 0 #
surf-twe-attrib $-1 -1 $-1 $-1 $503 94 #
coedge $-1 -1 $-1 $507 $506 $604 $605 reversed $266 $-1 #
coedge $-1 -1 $-1 $513 $512 $506 $570 forward $502 $-1 #
edge $606 -1 $-1 $583 -440 $525 0 $569 $607 forward @7 unknown #
coedge $-1 -1 $-1 $527 $520 $507 $572 forward $528 $-1 #
edge $608 -1 $-1 $533 -440 $597 0 $571 $609 forward @7 unknown #
model_id-kcp-attrib $-1 -1 $610 $-1 $509 1 1021384704 1021384704 -1041039359 15 #
straight-curve $611 -1 $-1 0 0 35 0 1 0 I I #
coedge $-1 -1 $-1 $604 $510 $527 $537 reversed $564 $-1 #
coedge $-1 -1 $-1 $510 $604 $512 $517 forward $564 $-1 #
attrib_edge_convexity-kcp-attrib $-1 -1 $612 $-1 $511 1 #
straight-curve $613 -1 $-1 440 -440 3 0 -1 0 I I #
convexity-sys-attrib $-1 -1 $614 $514 $405 #
cur-twe-attrib $-1 -1 $-1 $-1 $515 102 #
edge_name-twe-attrib $-1 -1 $-1 $516 $273 5 8448 #
attrib_edge_convexity-kcp-attrib $-1 -1 $615 $-1 $517 1 #
vertex $-1 -1 $-1 $517 $616 #
straight-curve $617 -1 $-1 440 -440 3 0 0 -1 I I #
edge_name-twe-attrib $-1 -1 $-1 $521 $275 9 8448 #
convexity-sys-attrib $-1 -1 $618 $524 $414 #
point $-1 -1 $-1 0 -440 35 #
cur-twe-attrib $-1 -1 $-1 $-1 $526 110 #
loop_type-twe-attrib $-1 -1 $-1 $-1 $528 0 #
convexity-sys-attrib $-1 -1 $619 $529 $418 #
cur-twe-attrib $-1 -1 $-1 $-1 $530 114 #
attrib_edge_convexity-kcp-attrib $-1 -1 $620 $532 $420 1 #
point $-1 -1 $-1 0 0 35 #
cur-twe-attrib $-1 -1 $-1 $-1 $534 115 #
edge_name-twe-attrib $-1 -1 $-1 $536 $285 8 8448 #
model_id-kcp-attrib $-1 -1 $621 $-1 $537 1 1021384704 1021384704 -1041039359 12 #
vertex $-1 -1 $-1 $537 $622 #
straight-curve $623 -1 $-1 440 0 3 0 0 -1 I I #
face_name-twe-attrib $-1 -1 $-1 $562 $501 9 #
model_id-kcp-attrib $-1 -1 $624 $-1 $563 1 1021384704 1021384704 -1041039359 11 #
plane-surface $625 -1 $-1 440 0 0 0 1 0 0 0 1 forward_v I I I I #
loop_type-twe-attrib $-1 -1 $-1 $-1 $564 0 #
surf-twe-attrib $-1 -1 $-1 $-1 $565 123 #
coedge $-1 -1 $-1 $576 $575 $568 $605 forward $564 $-1 #
edge $626 -1 $-1 $597 -440 $583 0 $604 $627 forward @7 unknown #
model_id-kcp-attrib $-1 -1 $628 $-1 $570 1 1021384704 1021384704 -1041039359 14 #
straight-curve $629 -1 $-1 0 -440 35 -1 0 0 I I #
edge_name-twe-attrib $-1 -1 $-1 $-1 $572 19 8704 #
straight-curve $630 -1 $-1 440 0 35 1 0 0 I I #
attrib_edge_convexity-kcp-attrib $-1 -1 $631 $573 $509 1 #
cur-twe-attrib $-1 -1 $-1 $-1 $574 131 #
convexity-sys-attrib $-1 -1 $632 $577 $511 #
cur-twe-attrib $-1 -1 $-1 $-1 $578 133 #
edge_name-twe-attrib $-1 -1 $-1 $579 $405 11 8448 #
convexity-sys-attrib $-1 -1 $633 $582 $517 #
point $-1 -1 $-1 440 -440 35 #
cur-twe-attrib $-1 -1 $-1 $-1 $584 138 #
edge_name-twe-attrib $-1 -1 $-1 $586 $414 13 8704 #
edge_name-twe-attrib $-1 -1 $-1 $590 $418 17 8448 #
convexity-sys-attrib $-1 -1 $634 $592 $420 #
edge_name-twe-attrib $-1 -1 $-1 $596 $537 20 8704 #
point $-1 -1 $-1 440 0 35 #
cur-twe-attrib $-1 -1 $-1 $-1 $598 153 #
face_name-twe-attrib $-1 -1 $-1 $600 $563 10 #
surf-twe-attrib $-1 -1 $-1 $-1 $601 157 #
model_id-kcp-attrib $-1 -1 $635 $-1 $605 1 1021384704 1021384704 -1041039359 13 #
straight-curve $636 -1 $-1 440 -440 35 0 -1 0 I I #
attrib_edge_convexity-kcp-attrib $-1 -1 $637 $606 $570 1 #
cur-twe-attrib $-1 -1 $-1 $-1 $607 164 #
cur-twe-attrib $-1 -1 $-1 $-1 $609 166 #
convexity-sys-attrib $-1 -1 $638 $610 $509 #
edge_name-twe-attrib $-1 -1 $-1 $612 $511 14 8448 #
edge_name-twe-attrib $-1 -1 $-1 $615 $517 16 8704 #
edge_name-twe-attrib $-1 -1 $-1 $620 $420 18 8704 #
edge_name-twe-attrib $-1 -1 $-1 $626 $605 15 8704 #
cur-twe-attrib $-1 -1 $-1 $-1 $627 191 #
convexity-sys-attrib $-1 -1 $639 $628 $570 #
edge_name-twe-attrib $-1 -1 $-1 $631 $509 10 8704 #
edge_name-twe-attrib $-1 -1 $-1 $637 $570 12 8704 #
End-of-ACIS-data 