600 0 2 0           
24 FBMach with ACIS - 6.0.3 13 ACIS 6.0.3 NT 24 Wed May 23 21:06:15 2001 
1 9.9999999999999995e-007 1e-010 
body $2 $3 $-1 $4 #
bdycol-kcp $-1 1 5 $5 $6 $7 $8 $9 #
model_id-kcp-attrib $-1 $-1 $-1 $0 1 990666375 60 -130285567 1 #
lump $-1 $-1 $10 $0 #
transform $-1 1 0 0 0 1.0000000000000002 0 0 0 1.0000000000000002 0 0 0 1 rotate no_reflect no_shear #
body $11 $12 $-1 $13 #
body $14 $15 $-1 $16 #
body $17 $18 $-1 $19 #
body $20 $21 $-1 $22 #
body $23 $24 $-1 $25 #
shell $-1 $-1 $-1 $26 $-1 $3 #
model_id-kcp-attrib $-1 $-1 $-1 $5 1 990666375 60 -130285566 1 #
lump $-1 $-1 $27 $5 #
transform $-1 1 0 0 0 1 0 0 0 1 220 -220 17.5 1 no_rotate no_reflect no_shear #
rgb_color-st-attrib $-1 $28 $-1 $6 0.5 1 1 #
lump $-1 $-1 $29 $6 #
transform $-1 1 0 0 0 1 0 0 0 1 220 -220 17.5 1 no_rotate no_reflect no_shear #
rgb_color-st-attrib $-1 $30 $-1 $7 0.5 0.5 1 #
lump $-1 $-1 $31 $7 #
transform $-1 1 0 0 0 1 0 0 0 1 220 -220 17.5 1 no_rotate no_reflect no_shear #
rgb_color-st-attrib $-1 $32 $-1 $8 0.5 0.5 1 #
lump $-1 $-1 $33 $8 #
transform $-1 1 0 0 0 1 0 0 0 1 220 -220 17.5 1 no_rotate no_reflect no_shear #
rgb_color-st-attrib $-1 $34 $-1 $9 0.5 0.5 1 #
lump $-1 $-1 $35 $9 #
transform $-1 1 0 0 0 1 0 0 0 1 220 -220 17.5 1 no_rotate no_reflect no_shear #
face $36 $37 $38 $10 $-1 $39 reversed single #
shell $-1 $-1 $-1 $40 $-1 $12 #
model_id-kcp-attrib $-1 $-1 $14 $6 1 990666375 280 -132644861 1 #
shell $-1 $-1 $-1 $41 $-1 $15 #
model_id-kcp-attrib $-1 $-1 $17 $7 1 990666375 340 -128712700 1 #
shell $-1 $-1 $-1 $42 $-1 $18 #
model_id-kcp-attrib $-1 $-1 $20 $8 1 990666375 350 -128057339 1 #
shell $-1 $-1 $-1 $43 $-1 $21 #
model_id-kcp-attrib $-1 $-1 $23 $9 1 990666375 370 -126746618 1 #
shell $-1 $-1 $-1 $44 $-1 $24 #
model_id-kcp-attrib $-1 $45 $-1 $26 1 990666375 60 -130285567 2 #
face $46 $47 $48 $10 $-1 $49 forward single #
loop $50 $-1 $51 $26 #
plane-surface $52 0 0 0 0 0 1 1 0 0 forward_v I I I I #
face $53 $54 $55 $27 $-1 $56 forward single #
face $-1 $57 $58 $29 $-1 $59 reversed single #
face $-1 $60 $61 $31 $-1 $62 reversed single #
face $-1 $63 $64 $33 $-1 $65 reversed single #
face $-1 $66 $67 $35 $-1 $68 reversed single #
face_name-twe-attrib $-1 $-1 $36 $26 1 #
model_id-kcp-attrib $-1 $69 $-1 $37 1 990666375 60 -130285567 3 #
face $70 $71 $72 $10 $-1 $73 forward single #
loop $74 $-1 $75 $37 #
plane-surface $76 3 -3 0 -0.70710678118654757 0 -0.70710678118654757 -0.70710678118654802 0 0.70710678118654802 forward_v I I I I #
loop_type-twe-attrib $-1 $-1 $-1 $38 0 #
coedge $-1 $77 $78 $75 $79 forward $38 $-1 #
surf-twe-attrib $-1 $-1 $-1 $39 4 #
model_id-kcp-attrib $-1 $-1 $-1 $40 1 990666375 60 -130285566 3 #
face $80 $81 $82 $27 $-1 $83 reversed single #
loop $-1 $-1 $84 $40 #
plane-surface $-1 0 0 17.5 0 0 1 1 0 0 forward_v I I I I #
face $-1 $85 $86 $29 $-1 $87 reversed single #
loop $-1 $-1 $88 $41 #
plane-surface $-1 220.00000000000011 0 -234.49999999999994 0 0.70710678118654757 -0.70710678118654746 0 -0.70710678118654746 -0.70710678118654757 forward_v I I I I #
face $-1 $89 $90 $31 $-1 $91 reversed single #
loop $-1 $-1 $92 $42 #
plane-surface $-1 -218.49999999999994 0 -15.999999999999943 -0.70710678118654757 0 -0.70710678118654757 0 -1 0 forward_v I I I I #
face $-1 $93 $94 $33 $-1 $95 reversed single #
loop $-1 $-1 $96 $43 #
plane-surface $-1 0 -218.49999999999994 -15.999999999999943 0 -0.70710678118654757 -0.70710678118654757 1 0 0 forward_v I I I I #
face $-1 $97 $98 $35 $-1 $99 reversed single #
loop $-1 $-1 $100 $44 #
plane-surface $-1 218.49999999999994 0 -15.999999999999943 0.70710678118654757 0 -0.70710678118654757 0 1 0 forward_v I I I I #
face_name-twe-attrib $-1 $-1 $46 $37 2 #
model_id-kcp-attrib $-1 $101 $-1 $47 1 990666375 60 -130285567 4 #
face $102 $103 $104 $10 $-1 $105 forward single #
loop $106 $-1 $107 $47 #
plane-surface $108 0 -437 0 0 -0.70710678118654757 -0.70710678118654757 -1 0 0 forward_v I I I I #
loop_type-twe-attrib $-1 $-1 $-1 $48 0 #
coedge $-1 $109 $110 $51 $79 reversed $48 $-1 #
surf-twe-attrib $-1 $-1 $-1 $49 6 #
coedge $-1 $111 $51 $112 $113 forward $38 $-1 #
coedge $-1 $51 $111 $107 $114 forward $38 $-1 #
edge $115 $116 -434 $117 0 $75 $118 forward 7 unknown #
model_id-kcp-attrib $-1 $-1 $-1 $54 1 990666375 60 -130285566 2 #
face $119 $120 $121 $27 $-1 $122 reversed single #
loop $-1 $-1 $123 $54 #
plane-surface $-1 0 0 -17.5 0 0 1 1 0 0 forward_v I I I I #
coedge $-1 $124 $125 $126 $127 forward $55 $-1 #
face $-1 $128 $129 $29 $-1 $130 reversed single #
loop $-1 $-1 $131 $57 #
plane-surface $-1 0 220 0 0 -1 0 0 0 -1 forward_v I I I I #
coedge $-1 $132 $133 $131 $134 reversed $58 $-1 #
face $-1 $135 $136 $31 $-1 $137 forward single #
loop $-1 $-1 $138 $60 #
plane-surface $-1 -220 0 0 1 0 0 0 0 -1 forward_v I I I I #
coedge $-1 $139 $140 $141 $142 forward $61 $-1 #
face $-1 $143 $144 $33 $-1 $145 reversed single #
loop $-1 $-1 $146 $63 #
plane-surface $-1 0 -220 0 0 1 0 0 0 1 forward_v I I I I #
coedge $-1 $147 $148 $149 $150 forward $64 $-1 #
face $-1 $151 $152 $35 $-1 $153 forward single #
loop $-1 $-1 $154 $66 #
plane-surface $-1 0 0 -17.5 0 0 1 1 0 0 forward_v I I I I #
coedge $-1 $155 $156 $157 $158 forward $67 $-1 #
face_name-twe-attrib $-1 $-1 $70 $47 3 #
model_id-kcp-attrib $-1 $159 $-1 $71 1 990666375 60 -130285567 5 #
face $160 $161 $162 $10 $-1 $163 forward single #
loop $164 $-1 $165 $71 #
plane-surface $166 437 -440 0 0.70710678118654757 0 -0.70710678118654757 -0.70710678118654802 0 -0.70710678118654802 forward_v I I I I #
loop_type-twe-attrib $-1 $-1 $-1 $72 0 #
coedge $-1 $167 $168 $78 $114 reversed $72 $-1 #
surf-twe-attrib $-1 $-1 $-1 $73 10 #
coedge $-1 $169 $75 $168 $170 reversed $48 $-1 #
coedge $-1 $75 $169 $171 $172 forward $48 $-1 #
coedge $-1 $78 $77 $165 $173 forward $38 $-1 #
coedge $-1 $171 $174 $77 $113 reversed $162 $-1 #
edge $175 $117 -434 $176 0 $112 $177 forward 7 unknown #
edge $178 $179 -434 $116 0 $107 $180 forward 7 unknown #
attrib_edge_convexity-kcp-attrib $-1 $181 $-1 $79 1 #
vertex $-1 $114 $182 #
vertex $-1 $113 $183 #
straight-curve $184 3 -3 0 0 1 0 I I #
model_id-kcp-attrib $-1 $-1 $-1 $81 1 990666375 60 -130285566 5 #
face $185 $186 $187 $27 $-1 $188 reversed single #
loop $-1 $-1 $189 $81 #
plane-surface $-1 0 -220 0 0 1 0 0 0 1 forward_v I I I I #
coedge $-1 $190 $191 $192 $193 forward $82 $-1 #
coedge $-1 $194 $84 $195 $196 forward $55 $-1 #
coedge $-1 $84 $194 $197 $198 forward $55 $-1 #
coedge $-1 $199 $200 $84 $127 reversed $201 $-1 #
edge $-1 $202 -220 $203 220 $126 $204 forward 7 unknown #
face $-1 $205 $206 $29 $-1 $207 reversed single #
loop $-1 $-1 $208 $85 #
plane-surface $-1 220 0 0 -1 0 0 0 0 1 forward_v I I I I #
coedge $-1 $209 $210 $88 $134 forward $86 $-1 #
coedge $-1 $211 $88 $212 $213 reversed $58 $-1 #
coedge $-1 $88 $211 $208 $214 reversed $58 $-1 #
edge $-1 $215 -330.00000000000006 $216 110.00000000000006 $131 $217 forward 7 unknown #
face $-1 $218 $219 $31 $-1 $220 reversed single #
loop $-1 $-1 $141 $89 #
plane-surface $-1 220.00000000000011 0 -234.49999999999994 0 0.70710678118654757 -0.70710678118654746 0 -0.70710678118654746 -0.70710678118654757 forward_v I I I I #
coedge $-1 $221 $222 $139 $223 reversed $90 $-1 #
coedge $-1 $224 $92 $138 $223 forward $61 $-1 #
coedge $-1 $92 $224 $225 $226 forward $61 $-1 #
coedge $-1 $227 $228 $92 $142 reversed $136 $-1 #
edge $229 $230 313.21252103537182 $231 318.40867345807862 $141 $232 forward 7 unknown #
face $-1 $233 $234 $33 $-1 $235 reversed single #
loop $-1 $-1 $149 $93 #
plane-surface $-1 -220 0 0 1 0 0 0 0 -1 forward_v I I I I #
coedge $-1 $236 $237 $147 $238 reversed $94 $-1 #
coedge $-1 $239 $96 $146 $238 forward $64 $-1 #
coedge $-1 $96 $239 $240 $241 forward $64 $-1 #
coedge $-1 $242 $243 $96 $150 reversed $144 $-1 #
edge $244 $245 69.473241251578216 $246 73.715881938697663 $149 $247 forward 7 unknown #
face $-1 $248 $249 $35 $-1 $250 reversed single #
loop $-1 $-1 $157 $97 #
plane-surface $-1 220.00000000000011 0 -234.49999999999994 0 0.70710678118654757 -0.70710678118654746 0 -0.70710678118654746 -0.70710678118654757 forward_v I I I I #
coedge $-1 $251 $252 $155 $253 reversed $98 $-1 #
coedge $-1 $254 $100 $154 $253 forward $67 $-1 #
coedge $-1 $100 $254 $255 $256 forward $67 $-1 #
coedge $-1 $257 $258 $100 $158 reversed $152 $-1 #
edge $259 $260 -191.39161423636097 $261 -186.19546181365411 $157 $262 forward 7 unknown #
face_name-twe-attrib $-1 $-1 $102 $71 4 #
model_id-kcp-attrib $-1 $263 $-1 $103 1 990666375 60 -130285567 6 #
face $264 $265 $266 $10 $-1 $267 forward single #
loop $268 $-1 $112 $103 #
plane-surface $269 440 -3 0 0 0.70710678118654757 -0.70710678118654757 -1 0 0 forward_v I I I I #
loop_type-twe-attrib $-1 $-1 $-1 $104 0 #
coedge $-1 $270 $271 $111 $173 reversed $104 $-1 #
surf-twe-attrib $-1 $-1 $-1 $105 17 #
coedge $-1 $272 $107 $271 $273 reversed $72 $-1 #
coedge $-1 $107 $272 $109 $170 forward $72 $-1 #
coedge $-1 $110 $109 $274 $275 forward $48 $-1 #
edge $276 $277 -5.196152422706632 $116 0 $168 $278 forward 7 unknown #
coedge $-1 $279 $112 $110 $172 reversed $162 $-1 #
edge $280 $281 -5.196152422706632 $117 0 $171 $282 forward 7 unknown #
edge $283 $176 -434 $179 0 $165 $284 forward 7 unknown #
coedge $-1 $112 $279 $270 $285 forward $162 $-1 #
attrib_edge_convexity-kcp-attrib $-1 $286 $-1 $113 1 #
vertex $-1 $113 $287 #
straight-curve $288 437 -3 0 1 0 0 I I #
attrib_edge_convexity-kcp-attrib $-1 $289 $-1 $114 1 #
vertex $-1 $173 $290 #
straight-curve $291 3 -437 0 -1 0 0 I I #
convexity-sys-attrib $-1 $292 $115 $79 #
point $-1 3 -437 0 #
point $-1 3 -3 0 #
cur-twe-attrib $-1 $-1 $-1 $118 25 #
model_id-kcp-attrib $-1 $-1 $-1 $120 1 990666375 60 -130285566 4 #
face $293 $294 $295 $27 $-1 $296 reversed single #
loop $-1 $-1 $297 $120 #
plane-surface $-1 -220 0 0 1 0 0 0 0 -1 forward_v I I I I #
coedge $-1 $298 $197 $299 $300 forward $121 $-1 #
coedge $-1 $301 $123 $298 $302 forward $82 $-1 #
coedge $-1 $123 $301 $303 $304 forward $82 $-1 #
coedge $-1 $200 $199 $123 $193 reversed $201 $-1 #
edge $-1 $305 -220 $306 220 $192 $307 forward 7 unknown #
coedge $-1 $125 $124 $308 $309 forward $55 $-1 #
coedge $-1 $310 $311 $124 $196 reversed $295 $-1 #
edge $-1 $203 -220 $312 220 $195 $313 forward 7 unknown #
coedge $-1 $189 $314 $125 $198 reversed $121 $-1 #
edge $-1 $315 -220 $202 220 $197 $316 forward 7 unknown #
coedge $-1 $192 $126 $314 $317 forward $201 $-1 #
coedge $-1 $126 $192 $310 $318 reversed $201 $-1 #
loop $-1 $-1 $199 $294 #
vertex $-1 $127 $319 #
vertex $-1 $127 $320 #
straight-curve $-1 220 0 17.5 0 1 0 I I #
face $-1 $-1 $321 $29 $-1 $322 reversed single #
loop $-1 $-1 $323 $128 #
plane-surface $-1 0 0 -17.5 0 0 1 1 0 0 forward_v I I I I #
coedge $-1 $324 $325 $133 $214 forward $129 $-1 #
coedge $-1 $326 $131 $325 $327 forward $86 $-1 #
coedge $-1 $131 $326 $328 $329 reversed $86 $-1 #
coedge $-1 $133 $132 $323 $330 reversed $58 $-1 #
coedge $-1 $328 $331 $132 $213 forward $321 $-1 #
edge $-1 $332 223.97607294083886 $215 228.21871362795821 $212 $333 forward 7 unknown #
edge $-1 $216 -228.21871362795821 $334 -223.97607294083886 $208 $335 forward 7 unknown #
vertex $-1 $329 $336 #
vertex $-1 $327 $337 #
straight-curve $-1 110.00000000000006 220 -14.499999999999915 1 0 0 I I #
face $-1 $-1 $338 $31 $-1 $339 reversed single #
loop $-1 $-1 $225 $135 #
plane-surface $-1 0 0 -17.5 0 0 1 1 0 0 forward_v I I I I #
coedge $-1 $340 $138 $228 $341 forward $90 $-1 #
coedge $-1 $138 $340 $342 $343 reversed $90 $-1 #
edge $344 $231 -220 $345 220 $138 $346 forward 7 unknown #
coedge $-1 $140 $139 $347 $348 forward $61 $-1 #
coedge $-1 $349 $350 $140 $226 reversed $219 $-1 #
edge $351 $352 -220 $230 216.99999999999991 $225 $353 forward 7 unknown #
coedge $-1 $228 $141 $350 $354 reversed $136 $-1 #
coedge $-1 $141 $227 $221 $341 reversed $136 $-1 #
convexity-sys-attrib $-1 $-1 $-1 $142 #
vertex $-1 $142 $355 #
vertex $-1 $142 $356 #
straight-curve $-1 -36.166666666666622 36.166666666666643 -198.33333333333329 -0.57735026918962573 0.57735026918962562 0.57735026918962573 I I #
face $-1 $-1 $357 $33 $-1 $358 reversed single #
loop $-1 $-1 $359 $143 #
plane-surface $-1 220 0 0 -1 0 0 0 0 1 forward_v I I I I #
coedge $-1 $360 $146 $243 $361 forward $94 $-1 #
coedge $-1 $146 $360 $362 $363 reversed $94 $-1 #
edge $364 $246 -220 $365 220 $146 $366 forward 7 unknown #
coedge $-1 $148 $147 $359 $367 forward $64 $-1 #
coedge $-1 $368 $369 $148 $241 reversed $357 $-1 #
edge $370 $371 -220 $245 220 $240 $372 forward 7 unknown #
coedge $-1 $243 $149 $369 $373 reversed $144 $-1 #
coedge $-1 $149 $242 $236 $361 reversed $144 $-1 #
convexity-sys-attrib $-1 $-1 $-1 $150 #
vertex $-1 $150 $374 #
vertex $-1 $361 $375 #
straight-curve $-1 -220 -167.87499999999994 -66.624999999999943 0 -0.70710678118654757 0.70710678118654757 I I #
face $-1 $-1 $376 $35 $-1 $377 reversed single #
loop $-1 $-1 $255 $151 #
plane-surface $-1 220 0 0 -1 0 0 0 0 1 forward_v I I I I #
coedge $-1 $378 $154 $258 $379 forward $98 $-1 #
coedge $-1 $154 $378 $380 $381 forward $98 $-1 #
edge $382 $261 -216.99999999999991 $383 220 $154 $384 forward 7 unknown #
coedge $-1 $156 $155 $385 $386 forward $67 $-1 #
coedge $-1 $387 $388 $156 $256 reversed $249 $-1 #
edge $389 $390 -220 $260 220 $255 $391 forward 7 unknown #
coedge $-1 $258 $157 $388 $392 reversed $152 $-1 #
coedge $-1 $157 $257 $251 $379 reversed $152 $-1 #
convexity-sys-attrib $-1 $-1 $-1 $158 #
vertex $-1 $392 $393 #
vertex $-1 $379 $394 #
straight-curve $-1 109.5 109.50000000000003 -124.99999999999991 -0.57735026918962573 -0.57735026918962562 -0.57735026918962573 I I #
face_name-twe-attrib $-1 $-1 $160 $103 5 #
model_id-kcp-attrib $-1 $395 $-1 $161 1 990666375 60 -130285567 7 #
face $396 $397 $398 $10 $-1 $399 forward single #
loop $400 $-1 $401 $161 #
plane-surface $402 0 0 35 0 0 1 1 0 0 forward_v I I I I #
loop_type-twe-attrib $-1 $-1 $-1 $162 0 #
surf-twe-attrib $-1 $-1 $-1 $163 27 #
coedge $-1 $403 $165 $174 $285 reversed $104 $-1 #
coedge $-1 $165 $403 $167 $273 forward $104 $-1 #
coedge $-1 $168 $167 $404 $405 forward $72 $-1 #
edge $406 $407 -5.196152422706632 $179 0 $271 $408 forward 7 unknown #
coedge $-1 $409 $410 $169 $275 reversed $398 $-1 #
edge $411 $277 -440 $281 0 $274 $412 forward 7 unknown #
attrib_edge_convexity-kcp-attrib $-1 $413 $-1 $170 1 #
vertex $-1 $414 $415 #
straight-curve $416 3 -437 0 0.57735026918962595 0.57735026918962595 -0.57735026918962595 I I #
coedge $-1 $174 $171 $417 $418 forward $162 $-1 #
attrib_edge_convexity-kcp-attrib $-1 $419 $-1 $172 1 #
vertex $-1 $420 $421 #
straight-curve $422 3 -3 0 0.57735026918962595 -0.57735026918962595 -0.57735026918962595 I I #
attrib_edge_convexity-kcp-attrib $-1 $423 $-1 $173 1 #
straight-curve $424 437 -437 0 0 -1 0 I I #
edge $425 $426 -5.196152422706632 $176 0 $174 $427 forward 7 unknown #
convexity-sys-attrib $-1 $428 $175 $113 #
point $-1 437 -3 0 #
cur-twe-attrib $-1 $-1 $-1 $177 37 #
convexity-sys-attrib $-1 $429 $178 $114 #
point $-1 437 -437 0 #
cur-twe-attrib $-1 $-1 $-1 $180 38 #
edge_name-twe-attrib $-1 $-1 $181 $79 1 8448 #
model_id-kcp-attrib $-1 $-1 $-1 $186 1 990666375 60 -130285566 7 #
face $430 $-1 $201 $27 $-1 $431 reversed single #
loop $-1 $-1 $310 $186 #
plane-surface $-1 0 220 0 0 -1 0 0 0 -1 forward_v I I I I #
coedge $-1 $432 $308 $311 $433 forward $187 $-1 #
coedge $-1 $314 $189 $190 $302 reversed $121 $-1 #
coedge $-1 $308 $432 $189 $300 reversed $187 $-1 #
edge $-1 $315 -17.5 $434 17.5 $299 $435 forward 7 unknown #
coedge $-1 $191 $190 $432 $436 forward $82 $-1 #
edge $-1 $306 -220 $434 220 $298 $437 forward 7 unknown #
coedge $-1 $311 $310 $191 $304 reversed $295 $-1 #
edge $-1 $438 -220 $305 220 $303 $439 forward 7 unknown #
vertex $-1 $193 $440 #
vertex $-1 $317 $441 #
straight-curve $-1 220 0 -17.5 0 -1 0 I I #
coedge $-1 $297 $299 $194 $309 reversed $187 $-1 #
edge $-1 $312 -220 $315 220 $308 $442 forward 7 unknown #
coedge $-1 $303 $195 $200 $318 forward $295 $-1 #
coedge $-1 $195 $303 $297 $433 reversed $295 $-1 #
vertex $-1 $196 $443 #
straight-curve $-1 0 220 17.5 -1 0 0 I I #
coedge $-1 $197 $298 $199 $317 reversed $121 $-1 #
vertex $-1 $309 $444 #
straight-curve $-1 0 -220 17.5 1 0 0 I I #
edge $-1 $202 -17.5 $306 17.5 $199 $445 forward 7 unknown #
edge $-1 $203 -17.5 $305 17.5 $200 $446 forward 7 unknown #
point $-1 220 -220 17.5 #
point $-1 220 220 17.5 #
loop $-1 $-1 $212 $205 #
plane-surface $-1 -220 0 0 1 0 0 0 0 -1 forward_v I I I I #
coedge $-1 $447 $448 $211 $330 forward $206 $-1 #
coedge $-1 $325 $208 $448 $449 reversed $129 $-1 #
coedge $-1 $208 $324 $209 $327 reversed $129 $-1 #
coedge $-1 $210 $209 $450 $451 reversed $86 $-1 #
edge $-1 $216 14.499999999999915 $452 17.5 $325 $453 forward 7 unknown #
coedge $-1 $331 $212 $210 $329 forward $321 $-1 #
edge $-1 $215 14.499999999999915 $454 17.5 $210 $455 forward 7 unknown #
edge $-1 $334 -110.00000000000006 $332 330.00000000000006 $323 $456 forward 7 unknown #
coedge $-1 $212 $328 $447 $457 reversed $321 $-1 #
vertex $-1 $457 $458 #
straight-curve $-1 -220 58.624999999999986 -175.87499999999994 0 0.70710678118654746 0.70710678118654757 I I #
vertex $-1 $214 $459 #
straight-curve $-1 220 58.624999999999986 -175.87499999999994 0 -0.70710678118654746 -0.70710678118654757 I I #
point $-1 -220 220 -14.499999999999915 #
point $-1 220.00000000000011 220 -14.499999999999915 #
loop $-1 $-1 $347 $218 #
plane-surface $-1 0 -220 0 0 1 0 0 0 1 forward_v I I I I #
coedge $-1 $222 $221 $460 $461 reversed $90 $-1 #
edge $-1 $231 -228.21871362795821 $462 -223.97607294083886 $221 $463 forward 7 unknown #
coedge $-1 $464 $347 $222 $343 forward $338 $-1 #
edge $-1 $345 14.499999999999885 $465 17.5 $222 $466 forward 7 unknown #
convexity-sys-attrib $-1 $-1 $-1 $223 #
vertex $-1 $343 $467 #
straight-curve $-1 -220 0 -14.499999999999886 0 -1 0 I I #
coedge $-1 $342 $464 $224 $348 reversed $338 $-1 #
edge $468 $345 -73.715881938697663 $352 -69.473241251578216 $347 $469 forward 7 unknown #
coedge $-1 $460 $225 $464 $470 forward $219 $-1 #
coedge $-1 $225 $460 $227 $354 forward $219 $-1 #
convexity-sys-attrib $-1 $-1 $-1 $226 #
vertex $-1 $470 $471 #
straight-curve $-1 -216.99999999999989 0 -17.500000000000007 0 1 0 I I #
edge $-1 $462 -330.00000000000006 $230 -326.99999999999994 $350 $472 forward 7 unknown #
point $-1 -216.99999999999989 216.99999999999991 -17.5 #
point $-1 -220 220 -14.499999999999915 #
loop $-1 $-1 $240 $233 #
plane-surface $-1 0 0 -17.5 0 0 1 1 0 0 forward_v I I I I #
coedge $-1 $362 $473 $239 $367 reversed $234 $-1 #
coedge $-1 $237 $236 $474 $475 reversed $94 $-1 #
edge $-1 $246 14.499999999999885 $476 17.5 $243 $477 forward 7 unknown #
coedge $-1 $473 $359 $237 $363 forward $234 $-1 #
edge $-1 $365 14.499999999999885 $478 17.5 $362 $479 forward 7 unknown #
convexity-sys-attrib $-1 $-1 $-1 $238 #
vertex $-1 $363 $480 #
straight-curve $-1 0 -220 -14.499999999999886 1 0 0 I I #
edge $481 $365 -73.715881938697663 $371 -69.473241251578216 $359 $482 forward 7 unknown #
coedge $-1 $474 $240 $473 $483 forward $357 $-1 #
coedge $-1 $240 $474 $242 $373 forward $357 $-1 #
convexity-sys-attrib $-1 $-1 $-1 $241 #
vertex $-1 $483 $484 #
straight-curve $-1 0 -216.99999999999989 -17.500000000000007 -1 0 0 I I #
edge $-1 $476 -220 $245 -216.99999999999989 $242 $485 forward 7 unknown #
point $-1 -220 -216.99999999999989 -17.5 #
point $-1 -220 -220 -14.499999999999885 #
loop $-1 $-1 $385 $248 #
plane-surface $-1 0 -220 0 0 1 0 0 0 1 forward_v I I I I #
coedge $-1 $252 $251 $486 $487 forward $98 $-1 #
edge $-1 $261 106.99999999999983 $488 110.00000000000006 $251 $489 forward 7 unknown #
coedge $-1 $490 $385 $252 $381 reversed $376 $-1 #
edge $-1 $491 -220 $383 -216.99999999999989 $380 $492 forward 7 unknown #
convexity-sys-attrib $-1 $-1 $-1 $253 #
vertex $-1 $253 $493 #
straight-curve $-1 216.99999999999989 0 -17.500000000000007 0 -1 0 I I #
coedge $-1 $380 $490 $254 $386 reversed $376 $-1 #
edge $494 $383 69.473241251578216 $390 73.715881938697663 $385 $495 forward 7 unknown #
coedge $-1 $486 $255 $490 $496 forward $249 $-1 #
coedge $-1 $255 $486 $257 $392 forward $249 $-1 #
convexity-sys-attrib $-1 $-1 $-1 $256 #
vertex $-1 $496 $497 #
straight-curve $-1 220 0 -14.499999999999886 0 1 0 I I #
edge $-1 $488 223.97607294083886 $260 228.21871362795821 $388 $498 forward 7 unknown #
point $-1 220.00000000000011 220 -14.499999999999915 #
point $-1 216.99999999999989 216.99999999999991 -17.5 #
face_name-twe-attrib $-1 $-1 $264 $161 6 #
model_id-kcp-attrib $-1 $499 $-1 $265 1 990666375 60 -130285567 8 #
face $500 $501 $502 $10 $-1 $503 forward single #
loop $504 $-1 $274 $265 #
plane-surface $505 0 0 0 -1 0 0 0 0 1 forward_v I I I I #
loop_type-twe-attrib $-1 $-1 $-1 $266 0 #
coedge $-1 $506 $507 $508 $509 reversed $266 $-1 #
surf-twe-attrib $-1 $-1 $-1 $267 44 #
coedge $-1 $271 $270 $510 $511 forward $104 $-1 #
coedge $-1 $512 $513 $272 $405 reversed $502 $-1 #
edge $514 $407 -440 $277 0 $404 $515 forward 7 unknown #
attrib_edge_convexity-kcp-attrib $-1 $516 $-1 $273 1 #
vertex $-1 $517 $518 #
straight-curve $519 437 -437 0 -0.57735026918962595 0.57735026918962595 -0.57735026918962595 I I #
coedge $-1 $508 $274 $513 $414 reversed $398 $-1 #
coedge $-1 $274 $508 $520 $420 forward $398 $-1 #
attrib_edge_convexity-kcp-attrib $-1 $521 $-1 $275 1 #
straight-curve $522 0 0 3 0 1 0 I I #
convexity-sys-attrib $-1 $523 $276 $170 #
edge $524 $525 -32 $277 0 $513 $526 forward 7 unknown #
point $-1 0 -440 3 #
cur-twe-attrib $-1 $-1 $-1 $278 53 #
coedge $-1 $520 $527 $279 $418 reversed $528 $-1 #
edge $529 $281 -440 $426 0 $417 $530 forward 7 unknown #
convexity-sys-attrib $-1 $531 $280 $172 #
edge $532 $533 -32 $281 0 $520 $534 forward 7 unknown #
point $-1 0 0 3 #
cur-twe-attrib $-1 $-1 $-1 $282 55 #
convexity-sys-attrib $-1 $535 $283 $173 #
cur-twe-attrib $-1 $-1 $-1 $284 56 #
attrib_edge_convexity-kcp-attrib $-1 $536 $-1 $285 1 #
vertex $-1 $537 $538 #
straight-curve $539 437 -3 0 -0.57735026918962595 -0.57735026918962595 -0.57735026918962595 I I #
edge_name-twe-attrib $-1 $-1 $286 $113 6 8448 #
edge_name-twe-attrib $-1 $-1 $289 $114 2 8448 #
model_id-kcp-attrib $-1 $-1 $-1 $294 1 990666375 60 -130285566 6 #
plane-surface $-1 220 0 0 -1 0 0 0 0 1 forward_v I I I I #
coedge $-1 $299 $297 $301 $436 reversed $187 $-1 #
edge $-1 $312 -17.5 $438 17.5 $311 $540 forward 7 unknown #
vertex $-1 $436 $541 #
straight-curve $-1 -220 -220 0 0 0 -1 I I #
edge $-1 $434 -220 $438 220 $432 $542 forward 7 unknown #
straight-curve $-1 0 -220 -17.5 -1 0 0 I I #
vertex $-1 $304 $543 #
straight-curve $-1 0 220 -17.5 1 0 0 I I #
point $-1 220 220 -17.5 #
point $-1 220 -220 -17.5 #
straight-curve $-1 -220 0 17.5 0 -1 0 I I #
point $-1 -220 220 17.5 #
point $-1 -220 -220 17.5 #
straight-curve $-1 220 -220 0 0 0 -1 I I #
straight-curve $-1 220 220 0 0 0 -1 I I #
coedge $-1 $450 $323 $331 $457 forward $206 $-1 #
coedge $-1 $323 $450 $324 $449 forward $206 $-1 #
edge $-1 $452 -220 $334 -216.99999999999991 $324 $544 forward 7 unknown #
coedge $-1 $448 $447 $326 $451 forward $206 $-1 #
edge $-1 $454 -220 $452 220 $326 $545 forward 7 unknown #
vertex $-1 $449 $546 #
straight-curve $-1 220 220 0 0 0 -1 I I #
vertex $-1 $451 $547 #
straight-curve $-1 -220 220 0 0 0 -1 I I #
straight-curve $-1 110.00000000000006 216.99999999999991 -17.5 -1 0 0 I I #
edge $-1 $332 216.99999999999991 $454 220 $331 $548 forward 7 unknown #
point $-1 -220 216.99999999999991 -17.499999999999972 #
point $-1 220.00000000000011 216.99999999999991 -17.499999999999972 #
coedge $-1 $350 $349 $340 $461 forward $219 $-1 #
edge $-1 $465 -220 $462 216.99999999999991 $340 $549 forward 7 unknown #
vertex $-1 $341 $550 #
straight-curve $-1 -220 58.624999999999986 -175.87499999999994 0 -0.70710678118654746 -0.70710678118654757 I I #
coedge $-1 $347 $342 $349 $470 reversed $338 $-1 #
vertex $-1 $461 $551 #
straight-curve $-1 -220 -220 0 0 0 -1 I I #
point $-1 -220 -220 -14.499999999999885 #
convexity-sys-attrib $-1 $-1 $-1 $348 #
straight-curve $-1 -167.87499999999994 -220 -66.624999999999943 0.70710678118654757 0 -0.70710678118654757 I I #
edge $-1 $352 216.99999999999989 $465 220 $464 $552 forward 7 unknown #
point $-1 -216.99999999999989 -220 -17.5 #
straight-curve $-1 110.00000000000006 216.99999999999991 -17.5 1 0 0 I I #
coedge $-1 $359 $362 $368 $483 reversed $234 $-1 #
coedge $-1 $369 $368 $360 $475 forward $357 $-1 #
edge $-1 $478 -220 $476 220 $360 $553 forward 7 unknown #
vertex $-1 $373 $554 #
straight-curve $-1 -220 -220 0 0 0 -1 I I #
vertex $-1 $363 $555 #
straight-curve $-1 220 -220 0 0 0 -1 I I #
point $-1 220 -220 -14.499999999999885 #
convexity-sys-attrib $-1 $-1 $-1 $367 #
straight-curve $-1 220 -167.87499999999994 -66.624999999999943 0 0.70710678118654757 -0.70710678118654757 I I #
edge $-1 $371 216.99999999999989 $478 220 $473 $556 forward 7 unknown #
point $-1 220 -216.99999999999989 -17.5 #
straight-curve $-1 -220 0 -17.5 0 1 0 I I #
coedge $-1 $388 $387 $378 $487 reversed $249 $-1 #
edge $-1 $488 -216.99999999999991 $491 220 $486 $557 forward 7 unknown #
vertex $-1 $487 $558 #
straight-curve $-1 110.00000000000006 216.99999999999991 -17.5 1 0 0 I I #
coedge $-1 $385 $380 $387 $496 reversed $376 $-1 #
vertex $-1 $496 $559 #
straight-curve $-1 0 -220 -17.5 -1 0 0 I I #
point $-1 216.99999999999989 -220 -17.5 #
convexity-sys-attrib $-1 $-1 $-1 $386 #
straight-curve $-1 167.87499999999994 -220 -66.624999999999943 0.70710678118654757 0 0.70710678118654757 I I #
edge $-1 $390 14.499999999999885 $491 17.5 $387 $560 forward 7 unknown #
point $-1 220 -220 -14.499999999999885 #
straight-curve $-1 220 58.624999999999986 -175.87499999999994 0 0.70710678118654746 0.70710678118654757 I I #
face_name-twe-attrib $-1 $-1 $396 $265 7 #
model_id-kcp-attrib $-1 $561 $-1 $397 1 990666375 60 -130285567 9 #
face $562 $563 $564 $10 $-1 $565 forward single #
loop $566 $-1 $404 $397 #
plane-surface $567 0 -440 0 0 -1 0 0 0 -1 forward_v I I I I #
loop_type-twe-attrib $-1 $-1 $-1 $398 0 #
surf-twe-attrib $-1 $-1 $-1 $399 68 #
coedge $-1 $568 $401 $569 $570 reversed $266 $-1 #
coedge $-1 $401 $568 $571 $572 reversed $266 $-1 #
coedge $-1 $410 $409 $401 $509 forward $398 $-1 #
edge $573 $525 -440 $533 0 $508 $574 forward 7 unknown #
coedge $-1 $575 $576 $403 $511 reversed $564 $-1 #
edge $577 $426 -440 $407 0 $510 $578 forward 7 unknown #
coedge $-1 $569 $404 $576 $517 reversed $502 $-1 #
coedge $-1 $404 $569 $409 $414 forward $502 $-1 #
attrib_edge_convexity-kcp-attrib $-1 $579 $-1 $405 1 #
straight-curve $580 0 -440 3 -1 0 0 I I #
convexity-sys-attrib $-1 $581 $406 $273 #
edge $582 $583 -32 $407 0 $576 $584 forward 7 unknown #
point $-1 440 -440 3 #
cur-twe-attrib $-1 $-1 $-1 $408 76 #
coedge $-1 $571 $417 $410 $420 reversed $528 $-1 #
convexity-sys-attrib $-1 $585 $411 $275 #
cur-twe-attrib $-1 $-1 $-1 $412 78 #
edge_name-twe-attrib $-1 $-1 $413 $170 3 8448 #
attrib_edge_convexity-kcp-attrib $-1 $586 $-1 $414 1 #
vertex $-1 $414 $587 #
straight-curve $588 0 -440 3 0 0 -1 I I #
coedge $-1 $417 $571 $575 $537 forward $528 $-1 #
loop $589 $-1 $417 $563 #
attrib_edge_convexity-kcp-attrib $-1 $590 $-1 $418 1 #
straight-curve $591 440 0 3 1 0 0 I I #
edge_name-twe-attrib $-1 $-1 $419 $172 7 8448 #
model_id-kcp-attrib $-1 $592 $-1 $420 1 990666375 60 -130285567 16 #
vertex $-1 $420 $593 #
straight-curve $594 0 0 3 0 0 -1 I I #
edge_name-twe-attrib $-1 $-1 $423 $173 4 8448 #
convexity-sys-attrib $-1 $595 $425 $285 #
edge $596 $597 -32 $426 0 $527 $598 forward 7 unknown #
point $-1 440 0 3 #
cur-twe-attrib $-1 $-1 $-1 $427 88 #
straight-curve $-1 -220 220 0 0 0 -1 I I #
point $-1 -220 -220 -17.5 #
straight-curve $-1 -220 0 -17.5 0 1 0 I I #
point $-1 -220 220 -17.5 #
straight-curve $-1 220 0 -17.5 0 -1 0 I I #
straight-curve $-1 0 220 -17.5 1 0 0 I I #
point $-1 220 220 -17.5 #
point $-1 -220 220 -17.5 #
straight-curve $-1 -220 0 -17.5 0 1 0 I I #
straight-curve $-1 -220 0 -17.5 0 1 0 I I #
point $-1 -220 216.99999999999991 -17.499999999999972 #
point $-1 -220 -220 -17.5 #
straight-curve $-1 0 -220 -17.5 -1 0 0 I I #
straight-curve $-1 0 -220 -17.5 -1 0 0 I I #
point $-1 -220 -220 -17.5 #
point $-1 220 -220 -17.5 #
straight-curve $-1 220 0 -17.5 0 -1 0 I I #
straight-curve $-1 220 0 -17.5 0 -1 0 I I #
point $-1 220.00000000000011 216.99999999999991 -17.499999999999972 #
point $-1 220 -220 -17.5 #
straight-curve $-1 220 -220 0 0 0 -1 I I #
face_name-twe-attrib $-1 $-1 $500 $397 8 #
model_id-kcp-attrib $-1 $599 $-1 $501 1 990666375 60 -130285567 10 #
face $600 $-1 $528 $10 $-1 $601 forward single #
loop $602 $-1 $510 $501 #
plane-surface $603 440 -440 0 1 0 0 0 0 -1 forward_v I I I I #
loop_type-twe-attrib $-1 $-1 $-1 $502 0 #
surf-twe-attrib $-1 $-1 $-1 $503 94 #
coedge $-1 $507 $506 $604 $605 reversed $266 $-1 #
coedge $-1 $513 $512 $506 $570 forward $502 $-1 #
edge $606 $583 -440 $525 0 $569 $607 forward 7 unknown #
coedge $-1 $527 $520 $507 $572 forward $528 $-1 #
edge $608 $533 -440 $597 0 $571 $609 forward 7 unknown #
model_id-kcp-attrib $-1 $610 $-1 $509 1 990666375 60 -130285567 15 #
straight-curve $611 0 0 35 0 1 0 I I #
coedge $-1 $604 $510 $527 $537 reversed $564 $-1 #
coedge $-1 $510 $604 $512 $517 forward $564 $-1 #
attrib_edge_convexity-kcp-attrib $-1 $612 $-1 $511 1 #
straight-curve $613 440 -440 3 0 -1 0 I I #
convexity-sys-attrib $-1 $614 $514 $405 #
cur-twe-attrib $-1 $-1 $-1 $515 102 #
edge_name-twe-attrib $-1 $-1 $516 $273 5 8448 #
attrib_edge_convexity-kcp-attrib $-1 $615 $-1 $517 1 #
vertex $-1 $517 $616 #
straight-curve $617 440 -440 3 0 0 -1 I I #
edge_name-twe-attrib $-1 $-1 $521 $275 9 8448 #
convexity-sys-attrib $-1 $618 $524 $414 #
point $-1 0 -440 35 #
cur-twe-attrib $-1 $-1 $-1 $526 110 #
loop_type-twe-attrib $-1 $-1 $-1 $528 0 #
convexity-sys-attrib $-1 $619 $529 $418 #
cur-twe-attrib $-1 $-1 $-1 $530 114 #
attrib_edge_convexity-kcp-attrib $-1 $620 $532 $420 1 #
point $-1 0 0 35 #
cur-twe-attrib $-1 $-1 $-1 $534 115 #
edge_name-twe-attrib $-1 $-1 $536 $285 8 8448 #
model_id-kcp-attrib $-1 $621 $-1 $537 1 990666375 60 -130285567 12 #
vertex $-1 $537 $622 #
straight-curve $623 440 0 3 0 0 -1 I I #
face_name-twe-attrib $-1 $-1 $562 $501 9 #
model_id-kcp-attrib $-1 $624 $-1 $563 1 990666375 60 -130285567 11 #
plane-surface $625 440 0 0 0 1 0 0 0 1 forward_v I I I I #
loop_type-twe-attrib $-1 $-1 $-1 $564 0 #
surf-twe-attrib $-1 $-1 $-1 $565 123 #
coedge $-1 $576 $575 $568 $605 forward $564 $-1 #
edge $626 $597 -440 $583 0 $604 $627 forward 7 unknown #
model_id-kcp-attrib $-1 $628 $-1 $570 1 990666375 60 -130285567 14 #
straight-curve $629 0 -440 35 -1 0 0 I I #
edge_name-twe-attrib $-1 $-1 $-1 $572 19 8704 #
straight-curve $630 440 0 35 1 0 0 I I #
attrib_edge_convexity-kcp-attrib $-1 $631 $573 $509 1 #
cur-twe-attrib $-1 $-1 $-1 $574 131 #
convexity-sys-attrib $-1 $632 $577 $511 #
cur-twe-attrib $-1 $-1 $-1 $578 133 #
edge_name-twe-attrib $-1 $-1 $579 $405 11 8448 #
convexity-sys-attrib $-1 $633 $582 $517 #
point $-1 440 -440 35 #
cur-twe-attrib $-1 $-1 $-1 $584 138 #
edge_name-twe-attrib $-1 $-1 $586 $414 13 8704 #
edge_name-twe-attrib $-1 $-1 $590 $418 17 8448 #
convexity-sys-attrib $-1 $634 $592 $420 #
edge_name-twe-attrib $-1 $-1 $596 $537 20 8704 #
point $-1 440 0 35 #
cur-twe-attrib $-1 $-1 $-1 $598 153 #
face_name-twe-attrib $-1 $-1 $600 $563 10 #
surf-twe-attrib $-1 $-1 $-1 $601 157 #
model_id-kcp-attrib $-1 $635 $-1 $605 1 990666375 60 -130285567 13 #
straight-curve $636 440 -440 35 0 -1 0 I I #
attrib_edge_convexity-kcp-attrib $-1 $637 $606 $570 1 #
cur-twe-attrib $-1 $-1 $-1 $607 164 #
cur-twe-attrib $-1 $-1 $-1 $609 166 #
convexity-sys-attrib $-1 $638 $610 $509 #
edge_name-twe-attrib $-1 $-1 $612 $511 14 8448 #
edge_name-twe-attrib $-1 $-1 $615 $517 16 8704 #
edge_name-twe-attrib $-1 $-1 $620 $420 18 8704 #
edge_name-twe-attrib $-1 $-1 $626 $605 15 8704 #
cur-twe-attrib $-1 $-1 $-1 $627 191 #
convexity-sys-attrib $-1 $639 $628 $570 #
edge_name-twe-attrib $-1 $-1 $631 $509 10 8704 #
edge_name-twe-attrib $-1 $-1 $637 $570 12 8704 #
End-of-ACIS-data 