104 208 0 0                             
body $-1 $1 $-1 $2 #
lump $-1 $-1 $3 $0 #
transform $-1 1 0 0 0 1 0 0 0 1 0 0 0 1 0 0 0 #
shell $-1 $-1 $-1 $4 $1 #
face $5 $6 $7 $3 $-1 $8 1 #
face_name-twe-attrib $-1 $-1 $-1 $4 1 #
face $9 $10 $11 $3 $-1 $12 0 #
loop $13 $-1 $14 $4 #
plane-surface $15 0 0 0 0 0 1 1 0 0 0 #
face_name-twe-attrib $-1 $-1 $-1 $6 2 #
face $16 $17 $18 $3 $-1 $19 0 #
loop $20 $-1 $21 $6 #
plane-surface $22 3 -3 0 -0.707106781186548 0 -0.707106781186548 -0.707106781186548 0 0.707106781186548 0 #
loop_type-twe-attrib $-1 $-1 $-1 $7 0 #
coedge $-1 $23 $24 $21 $25 0 $7 $-1 #
surf-twe-attrib $-1 $-1 $-1 $8 4 #
face_name-twe-attrib $-1 $-1 $-1 $10 3 #
face $26 $27 $28 $3 $-1 $29 0 #
loop $30 $-1 $31 $10 #
plane-surface $32 0 -437 0 0 -0.707106781186548 -0.707106781186548 -1 0 0 0 #
loop_type-twe-attrib $-1 $-1 $-1 $11 0 #
coedge $-1 $33 $34 $14 $25 1 $11 $-1 #
surf-twe-attrib $-1 $-1 $-1 $12 6 #
coedge $-1 $35 $14 $36 $37 0 $7 $-1 #
coedge $-1 $14 $35 $31 $38 0 $7 $-1 #
edge $39 $40 $41 $21 $42 0 #
face_name-twe-attrib $-1 $-1 $-1 $17 4 #
face $43 $44 $45 $3 $-1 $46 0 #
loop $47 $-1 $48 $17 #
plane-surface $49 437 -440 0 0.707106781186548 0 -0.707106781186548 -0.707106781186548 0 -0.707106781186548 0 #
loop_type-twe-attrib $-1 $-1 $-1 $18 0 #
coedge $-1 $50 $51 $24 $38 1 $18 $-1 #
surf-twe-attrib $-1 $-1 $-1 $19 10 #
coedge $-1 $52 $21 $51 $53 1 $11 $-1 #
coedge $-1 $21 $52 $54 $55 0 $11 $-1 #
coedge $-1 $24 $23 $48 $56 0 $7 $-1 #
coedge $-1 $54 $57 $23 $37 1 $45 $-1 #
edge $58 $41 $59 $36 $60 0 #
edge $61 $62 $40 $31 $63 0 #
edge_name-twe-attrib $-1 $-1 $-1 $25 1 8448 #
vertex $-1 $38 $64 #
vertex $-1 $37 $65 #
straight-curve $66 3 -3 0 0 1 0 #
face_name-twe-attrib $-1 $-1 $-1 $27 5 #
face $67 $68 $69 $3 $-1 $70 0 #
loop $71 $-1 $36 $27 #
plane-surface $72 440 -3 0 0 0.707106781186548 -0.707106781186548 -1 0 0 0 #
loop_type-twe-attrib $-1 $-1 $-1 $28 0 #
coedge $-1 $73 $74 $35 $56 1 $28 $-1 #
surf-twe-attrib $-1 $-1 $-1 $29 17 #
coedge $-1 $75 $31 $74 $76 1 $18 $-1 #
coedge $-1 $31 $75 $33 $53 0 $18 $-1 #
coedge $-1 $34 $33 $77 $78 0 $11 $-1 #
edge $79 $80 $40 $51 $81 0 #
coedge $-1 $82 $36 $34 $55 1 $45 $-1 #
edge $83 $84 $41 $54 $85 0 #
edge $86 $59 $62 $48 $87 0 #
coedge $-1 $36 $82 $73 $88 0 $45 $-1 #
edge_name-twe-attrib $-1 $-1 $-1 $37 6 8448 #
vertex $-1 $37 $89 #
straight-curve $90 437 -3 0 1 0 0 #
edge_name-twe-attrib $-1 $-1 $-1 $38 2 8448 #
vertex $-1 $56 $91 #
straight-curve $92 3 -437 0 -1 0 0 #
point $-1 3 -437 0 #
point $-1 3 -3 0 #
cur-twe-attrib $-1 $-1 $-1 $42 25 #
face_name-twe-attrib $-1 $-1 $-1 $44 6 #
face $93 $94 $95 $3 $-1 $96 0 #
loop $97 $-1 $98 $44 #
plane-surface $99 0 0 35 0 0 1 1 0 0 0 #
loop_type-twe-attrib $-1 $-1 $-1 $45 0 #
surf-twe-attrib $-1 $-1 $-1 $46 27 #
coedge $-1 $100 $48 $57 $88 1 $28 $-1 #
coedge $-1 $48 $100 $50 $76 0 $28 $-1 #
coedge $-1 $51 $50 $101 $102 0 $18 $-1 #
edge $103 $104 $62 $74 $105 0 #
coedge $-1 $106 $107 $52 $78 1 $95 $-1 #
edge $108 $80 $84 $77 $109 0 #
edge_name-twe-attrib $-1 $-1 $-1 $53 3 8448 #
vertex $-1 $110 $111 #
straight-curve $112 3 -437 0 0.577350269189626 0.577350269189626 -0.577350269189626 #
coedge $-1 $57 $54 $113 $114 0 $45 $-1 #
edge_name-twe-attrib $-1 $-1 $-1 $55 7 8448 #
vertex $-1 $115 $116 #
straight-curve $117 3 -3 0 0.577350269189626 -0.577350269189626 -0.577350269189626 #
edge_name-twe-attrib $-1 $-1 $-1 $56 4 8448 #
straight-curve $118 437 -437 0 0 -1 0 #
edge $119 $120 $59 $57 $121 0 #
point $-1 437 -3 0 #
cur-twe-attrib $-1 $-1 $-1 $60 37 #
point $-1 437 -437 0 #
cur-twe-attrib $-1 $-1 $-1 $63 38 #
face_name-twe-attrib $-1 $-1 $-1 $68 7 #
face $122 $123 $124 $3 $-1 $125 0 #
loop $126 $-1 $77 $68 #
plane-surface $127 0 0 0 -1 0 0 0 0 1 0 #
loop_type-twe-attrib $-1 $-1 $-1 $69 0 #
coedge $-1 $128 $129 $130 $131 1 $69 $-1 #
surf-twe-attrib $-1 $-1 $-1 $70 44 #
coedge $-1 $74 $73 $132 $133 0 $28 $-1 #
coedge $-1 $134 $135 $75 $102 1 $124 $-1 #
edge $136 $104 $80 $101 $137 0 #
edge_name-twe-attrib $-1 $-1 $-1 $76 5 8448 #
vertex $-1 $138 $139 #
straight-curve $140 437 -437 0 -0.577350269189626 0.577350269189626 -0.577350269189626 #
coedge $-1 $130 $77 $135 $110 1 $95 $-1 #
coedge $-1 $77 $130 $141 $115 0 $95 $-1 #
edge_name-twe-attrib $-1 $-1 $-1 $78 9 8448 #
straight-curve $142 0 0 3 0 1 0 #
edge $143 $144 $80 $135 $145 0 #
point $-1 0 -440 3 #
cur-twe-attrib $-1 $-1 $-1 $81 53 #
coedge $-1 $141 $146 $82 $114 1 $147 $-1 #
edge $148 $84 $120 $113 $149 0 #
edge $150 $151 $84 $141 $152 0 #
point $-1 0 0 3 #
cur-twe-attrib $-1 $-1 $-1 $85 55 #
cur-twe-attrib $-1 $-1 $-1 $87 56 #
edge_name-twe-attrib $-1 $-1 $-1 $88 8 8448 #
vertex $-1 $153 $154 #
straight-curve $155 437 -3 0 -0.577350269189626 -0.577350269189626 -0.577350269189626 #
face_name-twe-attrib $-1 $-1 $-1 $94 8 #
face $156 $157 $158 $3 $-1 $159 0 #
loop $160 $-1 $101 $94 #
plane-surface $161 0 -440 0 0 -1 0 0 0 -1 0 #
loop_type-twe-attrib $-1 $-1 $-1 $95 0 #
surf-twe-attrib $-1 $-1 $-1 $96 68 #
coedge $-1 $162 $98 $163 $164 1 $69 $-1 #
coedge $-1 $98 $162 $165 $166 1 $69 $-1 #
coedge $-1 $107 $106 $98 $131 0 $95 $-1 #
edge $167 $144 $151 $130 $168 0 #
coedge $-1 $169 $170 $100 $133 1 $158 $-1 #
edge $171 $120 $104 $132 $172 0 #
coedge $-1 $163 $101 $170 $138 1 $124 $-1 #
coedge $-1 $101 $163 $106 $110 0 $124 $-1 #
edge_name-twe-attrib $-1 $-1 $-1 $102 11 8448 #
straight-curve $173 0 -440 3 -1 0 0 #
edge $174 $175 $104 $170 $176 0 #
point $-1 440 -440 3 #
cur-twe-attrib $-1 $-1 $-1 $105 76 #
coedge $-1 $165 $113 $107 $115 1 $147 $-1 #
cur-twe-attrib $-1 $-1 $-1 $109 78 #
edge_name-twe-attrib $-1 $-1 $-1 $110 13 8704 #
vertex $-1 $110 $177 #
straight-curve $178 0 -440 3 0 0 -1 #
coedge $-1 $113 $165 $169 $153 0 $147 $-1 #
loop $179 $-1 $113 $157 #
edge_name-twe-attrib $-1 $-1 $-1 $114 17 8448 #
straight-curve $180 440 0 3 1 0 0 #
edge_name-twe-attrib $-1 $-1 $-1 $115 18 8704 #
vertex $-1 $115 $181 #
straight-curve $182 0 0 3 0 0 -1 #
edge $183 $184 $120 $146 $185 0 #
point $-1 440 0 3 #
cur-twe-attrib $-1 $-1 $-1 $121 88 #
face_name-twe-attrib $-1 $-1 $-1 $123 9 #
face $186 $-1 $147 $3 $-1 $187 0 #
loop $188 $-1 $132 $123 #
plane-surface $189 440 -440 0 1 0 0 0 0 -1 0 #
loop_type-twe-attrib $-1 $-1 $-1 $124 0 #
surf-twe-attrib $-1 $-1 $-1 $125 94 #
coedge $-1 $129 $128 $190 $191 1 $69 $-1 #
coedge $-1 $135 $134 $128 $164 0 $124 $-1 #
edge $192 $175 $144 $163 $193 0 #
coedge $-1 $146 $141 $129 $166 0 $147 $-1 #
edge $194 $151 $184 $165 $195 0 #
edge_name-twe-attrib $-1 $-1 $-1 $131 10 8704 #
straight-curve $196 0 0 35 0 1 0 #
coedge $-1 $190 $132 $146 $153 1 $158 $-1 #
coedge $-1 $132 $190 $134 $138 0 $158 $-1 #
edge_name-twe-attrib $-1 $-1 $-1 $133 14 8448 #
straight-curve $197 440 -440 3 0 -1 0 #
cur-twe-attrib $-1 $-1 $-1 $137 102 #
edge_name-twe-attrib $-1 $-1 $-1 $138 16 8704 #
vertex $-1 $138 $198 #
straight-curve $199 440 -440 3 0 0 -1 #
point $-1 0 -440 35 #
cur-twe-attrib $-1 $-1 $-1 $145 110 #
loop_type-twe-attrib $-1 $-1 $-1 $147 0 #
cur-twe-attrib $-1 $-1 $-1 $149 114 #
point $-1 0 0 35 #
cur-twe-attrib $-1 $-1 $-1 $152 115 #
edge_name-twe-attrib $-1 $-1 $-1 $153 20 8704 #
vertex $-1 $153 $200 #
straight-curve $201 440 0 3 0 0 -1 #
face_name-twe-attrib $-1 $-1 $-1 $157 10 #
plane-surface $202 440 0 0 0 1 0 0 0 1 0 #
loop_type-twe-attrib $-1 $-1 $-1 $158 0 #
surf-twe-attrib $-1 $-1 $-1 $159 123 #
coedge $-1 $170 $169 $162 $191 0 $158 $-1 #
edge $203 $184 $175 $190 $204 0 #
edge_name-twe-attrib $-1 $-1 $-1 $164 12 8704 #
straight-curve $205 0 -440 35 -1 0 0 #
edge_name-twe-attrib $-1 $-1 $-1 $166 19 8704 #
straight-curve $206 440 0 35 1 0 0 #
cur-twe-attrib $-1 $-1 $-1 $168 131 #
cur-twe-attrib $-1 $-1 $-1 $172 133 #
point $-1 440 -440 35 #
cur-twe-attrib $-1 $-1 $-1 $176 138 #
point $-1 440 0 35 #
cur-twe-attrib $-1 $-1 $-1 $185 153 #
surf-twe-attrib $-1 $-1 $-1 $187 157 #
edge_name-twe-attrib $-1 $-1 $-1 $191 15 8704 #
straight-curve $207 440 -440 35 0 -1 0 #
cur-twe-attrib $-1 $-1 $-1 $193 164 #
cur-twe-attrib $-1 $-1 $-1 $195 166 #
cur-twe-attrib $-1 $-1 $-1 $204 191 #
