600 0 2 0           
24 FBMach with ACIS - 6.0.3 13 ACIS 6.0.3 NT 24 Thu May 24 09:28:22 2001 
1 9.9999999999999995e-007 1e-010 
body $2 $3 $-1 $4 #
bdycol-kcp $-1 1 4 $5 $6 $7 $8 #
model_id-kcp-attrib $-1 $-1 $-1 $0 1 990710902 70 -1438253055 1 #
lump $-1 $-1 $9 $0 #
transform $-1 1 0 0 0 1 0 0 0 1 0 0 0 1 no_rotate no_reflect no_shear #
body $10 $11 $-1 $12 #
body $13 $14 $-1 $15 #
body $16 $17 $-1 $18 #
body $19 $20 $-1 $21 #
shell $-1 $-1 $-1 $22 $-1 $3 #
model_id-kcp-attrib $-1 $-1 $-1 $5 1 990710902 70 -1438253054 1 #
lump $-1 $-1 $23 $5 #
transform $-1 1 0 0 0 1 0 0 0 1 -0.625 -2.9039999999999999 0.28449999999999998 1 no_rotate no_reflect no_shear #
rgb_color-st-attrib $-1 $24 $-1 $6 0.5 1 1 #
lump $-1 $-1 $25 $6 #
transform $-1 1 0 0 0 1 0 0 0 1 -0.625 -2.9039999999999999 0.28449999999999998 1 no_rotate no_reflect no_shear #
rgb_color-st-attrib $-1 $26 $-1 $7 0 0 1 #
lump $-1 $-1 $27 $7 #
transform $-1 1 0 0 0 1 0 0 0 1 -0.625 -2.9039999999999999 0.28449999999999998 1 no_rotate no_reflect no_shear #
rgb_color-st-attrib $-1 $28 $-1 $8 1 0.5 1 #
lump $-1 $-1 $29 $8 #
transform $-1 1 0 0 0 1 0 0 0 1 -0.625 -2.9039999999999999 0.28449999999999998 1 no_rotate no_reflect no_shear #
face $30 $31 $32 $9 $-1 $33 forward single #
shell $-1 $-1 $-1 $34 $-1 $11 #
model_id-kcp-attrib $-1 $-1 $13 $6 1 990710902 130 -1434320893 1 #
shell $-1 $-1 $-1 $35 $-1 $14 #
model_id-kcp-attrib $-1 $-1 $16 $7 1 990710902 300 -1439956988 1 #
shell $-1 $-1 $-1 $36 $-1 $17 #
model_id-kcp-attrib $-1 $-1 $19 $8 1 990710902 370 -1435369467 1 #
shell $-1 $-1 $-1 $37 $-1 $20 #
model_id-kcp-attrib $-1 $38 $-1 $22 1 990710902 70 -1438253055 14 #
face $39 $40 $41 $9 $-1 $42 reversed single #
loop $43 $44 $45 $22 #
plane-surface $46 -0.625 -2.9039999999999999 0.56899999999999995 0 0 1 1 0 0 forward_v I I I I #
face $47 $48 $49 $23 $-1 $50 forward single #
face $-1 $51 $52 $25 $-1 $53 reversed single #
face $-1 $54 $55 $27 $-1 $56 forward single #
face $-1 $57 $58 $29 $-1 $59 forward single #
model_id-kcp-attrib $-1 $60 $30 $22 1 990710902 70 -1438253055 2 #
model_id-kcp-attrib $-1 $61 $-1 $31 1 990710902 70 -1438253055 3 #
face $62 $63 $64 $9 $-1 $65 reversed single #
loop $66 $67 $68 $31 #
plane-surface $69 -0.625 -2.9039999999999999 0.38200000000000001 0 0 1 1 0 0 forward_v I I I I #
loop_type-twe-attrib $-1 $-1 $-1 $32 0 #
loop $70 $-1 $71 $22 #
coedge $-1 $45 $45 $72 $73 forward $32 $-1 #
surf-twe-attrib $-1 $-1 $-1 $33 4 #
model_id-kcp-attrib $-1 $-1 $-1 $34 1 990710902 70 -1438253054 2 #
face $74 $75 $76 $23 $-1 $77 reversed single #
loop $-1 $-1 $78 $34 #
plane-surface $-1 0 0 0.28449999999999998 0 0 1 1 0 0 forward_v I I I I #
face $-1 $79 $80 $25 $-1 $53 reversed single #
loop $-1 $-1 $81 $35 #
cone-surface $-1 0 0 0.28449999999999998 0 0 1 0.2185 0 0 1 I I 0 1 0.2185 forward I I I I #
face $-1 $82 $83 $27 $-1 $84 forward single #
loop $-1 $-1 $85 $36 #
plane-surface $-1 0.072331216351297023 -0.125 0.15950000000000003 0 -1 0 0 0 -1 forward_v I I I I #
face $-1 $86 $87 $29 $-1 $88 forward single #
loop $-1 $89 $90 $37 #
cone-surface $-1 0 0 0.097500000000000031 0 0 -1 -0.0935 0 0 1 I I 0 -1 0.0935 forward I I I I #
face_name-twe-attrib $-1 $-1 $38 $22 1 #
face_name-twe-attrib $-1 $-1 $39 $31 2 #
model_id-kcp-attrib $-1 $91 $-1 $40 1 990710902 70 -1438253055 4 #
face $92 $93 $94 $9 $-1 $95 forward single #
loop $96 $-1 $97 $40 #
plane-surface $98 -0.625 -2.9039999999999999 0 0 0 1 1 0 0 forward_v I I I I #
loop_type-twe-attrib $-1 $-1 $-1 $41 0 #
loop $99 $-1 $100 $31 #
coedge $-1 $68 $68 $101 $102 forward $41 $-1 #
surf-twe-attrib $-1 $-1 $-1 $42 6 #
loop_type-twe-attrib $-1 $-1 $-1 $44 1 #
coedge $-1 $103 $104 $105 $106 forward $44 $-1 #
coedge $-1 $72 $72 $45 $73 reversed $94 $-1 #
edge $107 $108 0 $108 6.2831853071795862 $72 $109 forward 7 unknown #
model_id-kcp-attrib $-1 $-1 $-1 $48 1 990710902 70 -1438253054 3 #
face $-1 $110 $111 $23 $-1 $112 reversed single #
loop $-1 $-1 $113 $48 #
plane-surface $-1 0 0 -0.28449999999999998 0 0 1 1 0 0 forward_v I I I I #
coedge $-1 $114 $115 $116 $117 forward $49 $-1 #
face $-1 $118 $119 $25 $-1 $53 reversed single #
loop $-1 $-1 $120 $51 #
coedge $-1 $121 $122 $123 $124 reversed $52 $-1 #
face $-1 $125 $126 $27 $-1 $127 forward single #
loop $-1 $-1 $128 $54 #
plane-surface $-1 -0.072331216351297023 -0.125 0.15950000000000003 -0.86602540378443849 -0.50000000000000033 0 0 0 1 forward_v I I I I #
coedge $-1 $129 $130 $131 $132 forward $55 $-1 #
face $-1 $133 $134 $29 $-1 $135 reversed single #
loop $-1 $136 $137 $57 #
cone-surface $-1 0 0 0.097500000000000031 0 0 -1 0.2185 0 0 1 I I 0 1 0.2185 forward I I I I #
loop $-1 $-1 $138 $37 #
coedge $-1 $90 $90 $139 $140 forward $58 $-1 #
face_name-twe-attrib $-1 $-1 $62 $40 3 #
model_id-kcp-attrib $-1 $141 $-1 $63 1 990710902 70 -1438253055 5 #
face $142 $143 $144 $9 $-1 $145 forward single #
loop $146 $147 $72 $63 #
cone-surface $148 -0.625 -2.9039999999999999 -0.02845 0 0 1 -0.2185 0 0 1 I I 0 1 0.2185 forward I I I I #
loop_type-twe-attrib $-1 $-1 $-1 $64 0 #
coedge $-1 $97 $97 $149 $150 forward $64 $-1 #
surf-twe-attrib $-1 $-1 $-1 $65 10 #
loop_type-twe-attrib $-1 $-1 $-1 $67 1 #
coedge $-1 $100 $100 $151 $152 forward $67 $-1 #
coedge $-1 $101 $101 $68 $102 reversed $147 $-1 #
edge $153 $154 -3.1415926535897931 $154 3.1415926535897931 $68 $155 forward 7 unknown #
coedge $-1 $156 $71 $157 $158 forward $44 $-1 #
coedge $-1 $71 $159 $160 $161 forward $44 $-1 #
coedge $-1 $162 $163 $71 $106 reversed $164 $-1 #
edge $165 $166 -0.14433756729740638 $167 0 $105 $168 forward 7 unknown #
attrib_edge_convexity-kcp-attrib $-1 $169 $-1 $73 1 #
vertex $-1 $73 $170 #
ellipse-curve $171 -0.625 -2.9039999999999999 0.56899999999999995 0 0 1 0.2185 0 0 1 I I #
face $-1 $172 $173 $23 $-1 $174 reversed single #
loop $-1 $-1 $175 $75 #
plane-surface $-1 0 -0.21850000000000014 0 0 1 0 0 0 1 forward_v I I I I #
coedge $-1 $176 $177 $178 $179 forward $76 $-1 #
coedge $-1 $180 $78 $181 $182 forward $49 $-1 #
coedge $-1 $78 $180 $183 $184 forward $49 $-1 #
coedge $-1 $185 $186 $78 $117 reversed $187 $-1 #
edge $-1 $188 -0.21850000000000014 $189 0.21850000000000014 $116 $190 forward 7 unknown #
face $-1 $191 $192 $25 $-1 $53 reversed single #
loop $-1 $-1 $193 $79 #
coedge $-1 $194 $195 $196 $197 reversed $80 $-1 #
coedge $-1 $198 $81 $199 $200 reversed $52 $-1 #
coedge $-1 $81 $198 $201 $202 reversed $52 $-1 #
coedge $-1 $203 $204 $205 $124 forward $206 $-1 #
edge $-1 $207 -0.56899999999999995 $208 0 $123 $209 forward 7 unknown #
face $-1 $210 $211 $27 $-1 $212 forward single #
loop $-1 $-1 $213 $82 #
plane-surface $-1 -0.14449999999999996 0 0.15950000000000003 -0.86602540378443849 0.50000000000000033 0 0 0 1 forward_v I I I I #
coedge $-1 $214 $215 $216 $217 forward $83 $-1 #
coedge $-1 $218 $85 $215 $219 reversed $55 $-1 #
coedge $-1 $85 $218 $220 $221 forward $55 $-1 #
coedge $-1 $222 $216 $85 $132 reversed $223 $-1 #
edge $-1 $224 -0.10849682452694553 $225 0.036165608175648511 $85 $226 forward 7 unknown #
face $-1 $-1 $227 $29 $-1 $228 forward single #
loop $-1 $229 $230 $86 #
plane-surface $-1 -0.011363636363636359 4.1606335056216715e-018 -0.28449999999999998 8.1831863016037455e-033 6.8193219180031165e-033 1 1 0 -8.1831863016037455e-033 forward_v I I I I #
loop $-1 $-1 $231 $57 #
coedge $-1 $137 $137 $230 $232 forward $87 $-1 #
coedge $-1 $138 $138 $233 $234 reversed $89 $-1 #
coedge $-1 $139 $139 $90 $140 reversed $229 $-1 #
edge $-1 $235 -3.1415926535897931 $235 3.1415926535897931 $90 $236 forward 7 unknown #
face_name-twe-attrib $-1 $-1 $92 $63 4 #
model_id-kcp-attrib $-1 $237 $-1 $93 1 990710902 70 -1438253055 6 #
face $238 $239 $240 $9 $-1 $241 forward single #
loop $242 $243 $151 $93 #
cone-surface $244 -0.625 -2.9039999999999999 -0.02845 0 0 1 -0.0935 0 0 1 I I 0 1 0.0935 forward I I I I #
loop_type-twe-attrib $-1 $-1 $-1 $94 0 #
loop $245 $-1 $101 $63 #
surf-twe-attrib $-1 $-1 $-1 $95 18 #
coedge $-1 $149 $149 $97 $150 reversed $243 $-1 #
edge $246 $247 -3.1415926535897931 $247 3.1415926535897931 $97 $248 forward 7 unknown #
coedge $-1 $151 $151 $100 $152 reversed $144 $-1 #
edge $249 $250 0 $250 6.2831853071795862 $151 $251 forward 7 unknown #
edge_name-twe-attrib $-1 $-1 $-1 $102 1 8704 #
vertex $-1 $102 $252 #
ellipse-curve $253 -0.625 -2.9039999999999999 0.38200000000000001 0 0 -1 0.2185 0 0 1 I I #
coedge $-1 $254 $103 $255 $256 forward $44 $-1 #
coedge $-1 $257 $258 $103 $158 reversed $259 $-1 #
edge $260 $167 -0.14466243270259405 $261 0 $157 $262 forward 7 unknown #
coedge $-1 $104 $254 $263 $264 forward $44 $-1 #
coedge $-1 $265 $266 $104 $161 reversed $267 $-1 #
edge $268 $269 -0.14433756729740638 $166 0 $160 $270 forward 7 unknown #
coedge $-1 $271 $105 $266 $272 reversed $164 $-1 #
coedge $-1 $105 $271 $257 $273 forward $164 $-1 #
loop $274 $-1 $105 $239 #
attrib_edge_convexity-kcp-attrib $-1 $275 $-1 $106 1 #
vertex $-1 $272 $276 #
vertex $-1 $273 $277 #
straight-curve $278 -0.55266878364870298 -3.0289999999999999 0.56899999999999995 -0.499999999999999 -0.86602540378443904 0 I I #
convexity-sys-attrib $-1 $279 $107 $73 #
point $-1 -0.40649999999999997 -2.9039999999999999 0.56899999999999995 #
cur-twe-attrib $-1 $-1 $-1 $109 28 #
face $-1 $280 $281 $23 $-1 $282 reversed single #
loop $-1 $-1 $283 $110 #
plane-surface $-1 -0.21850000000000003 0 0 1 0 0 0 0 -1 forward_v I I I I #
coedge $-1 $284 $183 $285 $286 forward $111 $-1 #
coedge $-1 $287 $113 $284 $288 forward $76 $-1 #
coedge $-1 $113 $287 $289 $290 forward $76 $-1 #
coedge $-1 $186 $185 $113 $179 reversed $187 $-1 #
edge $-1 $291 -0.21850000000000014 $292 0.21850000000000014 $178 $293 forward 7 unknown #
coedge $-1 $115 $114 $294 $295 forward $49 $-1 #
coedge $-1 $296 $297 $114 $182 reversed $281 $-1 #
edge $-1 $189 -0.21850000000000003 $298 0.21850000000000003 $181 $299 forward 7 unknown #
coedge $-1 $175 $300 $115 $184 reversed $111 $-1 #
edge $-1 $301 -0.21850000000000003 $188 0.21850000000000003 $183 $302 forward 7 unknown #
coedge $-1 $178 $116 $300 $303 forward $187 $-1 #
coedge $-1 $116 $178 $296 $304 reversed $187 $-1 #
loop $-1 $-1 $185 $280 #
vertex $-1 $117 $305 #
vertex $-1 $117 $306 #
straight-curve $-1 0.21850000000000003 0 0.28449999999999998 0 1 0 I I #
face $-1 $307 $308 $25 $-1 $309 reversed single #
loop $-1 $-1 $310 $118 #
coedge $-1 $311 $312 $313 $314 reversed $119 $-1 #
coedge $-1 $315 $120 $316 $317 reversed $80 $-1 #
coedge $-1 $120 $315 $81 $124 forward $80 $-1 #
coedge $-1 $318 $319 $120 $197 forward $320 $-1 #
edge $-1 $321 -3.1415926535897931 $208 -1.5707963267948966 $196 $322 forward 7 unknown #
coedge $-1 $122 $121 $312 $323 forward $52 $-1 #
coedge $-1 $324 $325 $121 $200 forward $326 $-1 #
edge $-1 $327 0 $207 1.5707963267948966 $199 $328 forward 7 unknown #
coedge $-1 $329 $330 $122 $202 forward $331 $-1 #
edge $-1 $208 -1.5707963267948966 $332 0 $201 $322 forward 7 unknown #
coedge $-1 $333 $123 $330 $334 reversed $206 $-1 #
coedge $-1 $123 $333 $324 $335 reversed $206 $-1 #
coedge $-1 $336 $337 $195 $124 reversed $338 $-1 #
loop $-1 $-1 $123 $339 #
vertex $-1 $335 $340 #
vertex $-1 $341 $342 #
straight-curve $-1 0 0.21850000000000014 0.28449999999999998 0 0 1 I I #
face $-1 $343 $344 $27 $-1 $345 forward single #
loop $-1 $-1 $346 $125 #
plane-surface $-1 -0.072331216351297023 0.125 0.15950000000000003 0 1 0 0 0 1 forward_v I I I I #
coedge $-1 $347 $348 $349 $350 forward $126 $-1 #
coedge $-1 $351 $128 $348 $352 reversed $83 $-1 #
coedge $-1 $128 $351 $129 $219 forward $83 $-1 #
coedge $-1 $131 $349 $128 $217 reversed $223 $-1 #
edge $-1 $225 -0.10821256729740629 $353 0.036125000000000011 $128 $354 forward 7 unknown #
coedge $-1 $130 $129 $355 $356 reversed $55 $-1 #
edge $357 $358 0 $225 0.12499999999999994 $215 $359 forward 7 unknown #
coedge $-1 $360 $361 $130 $221 reversed $362 $-1 #
edge $-1 $363 0 $224 0.12499999999999994 $130 $364 forward 7 unknown #
coedge $-1 $365 $131 $361 $366 reversed $223 $-1 #
loop $-1 $-1 $131 $367 #
vertex $-1 $221 $368 #
vertex $-1 $219 $369 #
straight-curve $-1 -0.036165608175648511 -0.125 0.28449999999999992 -1 0 0 I I #
loop $-1 $370 $371 $133 #
plane-surface $-1 -0.011363636363636359 4.1606335056216715e-018 0.097500000000000003 8.1831863016037455e-033 6.8193219180031165e-033 1 1 0 -8.1831863016037455e-033 forward_v I I I I #
loop $-1 $-1 $139 $86 #
coedge $-1 $230 $230 $137 $232 reversed $134 $-1 #
coedge $-1 $231 $231 $371 $372 reversed $136 $-1 #
edge $-1 $373 -3.1415926535897931 $373 3.1415926535897931 $137 $374 forward 7 unknown #
coedge $-1 $233 $233 $138 $234 forward $370 $-1 #
edge $-1 $375 -3.1415926535897931 $375 3.1415926535897931 $138 $376 forward 7 unknown #
vertex $-1 $140 $377 #
ellipse-curve $-1 0 0 -0.28449999999999998 0 0 -1 -0.0935 0 0 1 I I #
face_name-twe-attrib $-1 $-1 $142 $93 5 #
model_id-kcp-attrib $-1 $378 $-1 $143 1 990710902 70 -1438253055 7 #
face $379 $380 $164 $9 $-1 $381 reversed single #
loop $382 $-1 $383 $143 #
plane-surface $384 -0.625 -2.9039999999999999 0.44400000000000001 0 0 1 1 0 0 forward_v I I I I #
loop_type-twe-attrib $-1 $-1 $-1 $144 0 #
loop $385 $-1 $149 $93 #
surf-twe-attrib $-1 $-1 $-1 $145 30 #
loop_type-twe-attrib $-1 $-1 $-1 $147 1 #
edge_name-twe-attrib $-1 $-1 $-1 $150 2 8704 #
vertex $-1 $150 $386 #
ellipse-curve $387 -0.625 -2.9039999999999999 0 0 0 -1 0.0935 0 0 1 I I #
edge_name-twe-attrib $-1 $-1 $-1 $152 4 4608 #
vertex $-1 $152 $388 #
ellipse-curve $389 -0.625 -2.9039999999999999 0.38200000000000001 0 0 1 0.0935 0 0 1 I I #
point $-1 -0.84350000000000003 -2.9039999999999999 0.38200000000000001 #
cur-twe-attrib $-1 $-1 $-1 $155 39 #
coedge $-1 $159 $156 $390 $391 forward $44 $-1 #
coedge $-1 $392 $393 $156 $256 reversed $394 $-1 #
edge $395 $261 -0.14433756729740635 $396 0 $255 $397 forward 7 unknown #
coedge $-1 $398 $157 $163 $273 reversed $259 $-1 #
coedge $-1 $157 $398 $392 $399 forward $259 $-1 #
loop $400 $-1 $157 $401 #
attrib_edge_convexity-kcp-attrib $-1 $402 $-1 $158 1 #
vertex $-1 $399 $403 #
straight-curve $404 -0.69733121635129702 -3.0289999999999999 0.56899999999999995 -1 0 0 I I #
coedge $-1 $405 $406 $159 $264 reversed $407 $-1 #
edge $408 $409 -0.14466243270259405 $269 0 $263 $410 forward 7 unknown #
coedge $-1 $411 $160 $406 $412 reversed $267 $-1 #
coedge $-1 $160 $411 $162 $272 forward $267 $-1 #
loop $413 $-1 $160 $380 #
attrib_edge_convexity-kcp-attrib $-1 $414 $-1 $161 1 #
vertex $-1 $412 $415 #
straight-curve $416 -0.48049999999999998 -2.9039999999999999 0.56899999999999995 0.499999999999999 -0.86602540378443904 0 I I #
coedge $-1 $163 $162 $383 $417 forward $164 $-1 #
edge $418 $419 -0.12499999999999994 $166 0 $266 $420 forward 7 unknown #
edge $421 $422 -0.12499999999999994 $167 0 $257 $423 forward 7 unknown #
loop_type-twe-attrib $-1 $-1 $-1 $164 0 #
convexity-sys-attrib $-1 $424 $165 $106 #
point $-1 -0.48049999999999998 -2.9039999999999999 0.56899999999999995 #
point $-1 -0.55266878364870298 -3.0289999999999999 0.56899999999999995 #
cur-twe-attrib $-1 $-1 $-1 $168 43 #
edge_name-twe-attrib $-1 $-1 $169 $73 3 8704 #
face $-1 $-1 $187 $23 $-1 $425 reversed single #
loop $-1 $-1 $296 $172 #
plane-surface $-1 0 0.21850000000000014 0 0 -1 0 0 0 -1 forward_v I I I I #
coedge $-1 $426 $294 $297 $427 forward $173 $-1 #
coedge $-1 $300 $175 $176 $288 reversed $111 $-1 #
coedge $-1 $294 $426 $175 $286 reversed $173 $-1 #
edge $-1 $301 -0.28449999999999998 $428 0.28449999999999998 $285 $429 forward 7 unknown #
coedge $-1 $177 $176 $426 $430 forward $76 $-1 #
edge $-1 $292 -0.21850000000000003 $428 0.21850000000000003 $284 $431 forward 7 unknown #
coedge $-1 $297 $296 $177 $290 reversed $281 $-1 #
edge $-1 $432 -0.21850000000000003 $291 0.21850000000000003 $289 $433 forward 7 unknown #
vertex $-1 $179 $434 #
vertex $-1 $303 $435 #
straight-curve $-1 0.21850000000000003 0 -0.28449999999999998 0 -1 0 I I #
coedge $-1 $283 $285 $180 $295 reversed $173 $-1 #
edge $-1 $298 -0.21850000000000014 $301 0.21850000000000014 $294 $436 forward 7 unknown #
coedge $-1 $289 $181 $186 $304 forward $281 $-1 #
coedge $-1 $181 $289 $283 $427 reversed $281 $-1 #
vertex $-1 $182 $437 #
straight-curve $-1 0 0.21850000000000014 0.28449999999999998 -1 0 0 I I #
coedge $-1 $183 $284 $185 $303 reversed $111 $-1 #
vertex $-1 $295 $438 #
straight-curve $-1 0 -0.21850000000000014 0.28449999999999998 1 0 0 I I #
edge $-1 $188 -0.28449999999999998 $292 0.28449999999999998 $185 $439 forward 7 unknown #
edge $-1 $189 -0.28449999999999998 $291 0.28449999999999998 $186 $440 forward 7 unknown #
point $-1 0.21850000000000003 -0.21850000000000014 0.28449999999999998 #
point $-1 0.21850000000000003 0.21850000000000014 0.28449999999999998 #
face $-1 $441 $338 $25 $-1 $442 reversed single #
loop $-1 $-1 $443 $191 #
plane-surface $-1 0.21850000000000003 0 0 -1 0 0 0 0 1 forward_v I I I I #
coedge $-1 $444 $445 $446 $447 reversed $192 $-1 #
coedge $-1 $448 $193 $445 $449 forward $119 $-1 #
coedge $-1 $193 $448 $450 $323 reversed $119 $-1 #
coedge $-1 $451 $452 $193 $314 forward $453 $-1 #
edge $-1 $454 -1.5707963267948966 $327 0 $313 $328 forward 7 unknown #
coedge $-1 $195 $194 $455 $456 reversed $80 $-1 #
coedge $-1 $457 $458 $459 $317 forward $460 $-1 #
edge $-1 $461 -0.56899999999999995 $321 0 $316 $462 forward 7 unknown #
coedge $-1 $319 $196 $337 $341 forward $320 $-1 #
coedge $-1 $196 $318 $457 $463 forward $320 $-1 #
loop $-1 $-1 $196 $464 #
vertex $-1 $465 $466 #
ellipse-curve $-1 0 0 0.28449999999999998 0 0 -1 0.2185 0 0 1 I I #
edge $-1 $327 -0.56899999999999995 $332 0 $450 $467 forward 7 unknown #
coedge $-1 $325 $199 $204 $335 forward $326 $-1 #
coedge $-1 $199 $324 $468 $469 forward $326 $-1 #
loop $-1 $-1 $199 $470 #
vertex $-1 $471 $472 #
ellipse-curve $-1 0 0 -0.28449999999999998 0 0 1 0.2185 0 0 1 I I #
coedge $-1 $330 $201 $473 $474 forward $331 $-1 #
coedge $-1 $201 $329 $203 $334 forward $331 $-1 #
loop $-1 $-1 $201 $475 #
vertex $-1 $474 $476 #
coedge $-1 $204 $203 $477 $478 forward $206 $-1 #
edge $-1 $479 -0.21850000000000003 $208 0 $203 $480 forward 7 unknown #
edge $-1 $207 0 $481 0.21850000000000003 $204 $482 forward 7 unknown #
coedge $-1 $483 $205 $484 $485 reversed $338 $-1 #
coedge $-1 $205 $483 $318 $341 reversed $338 $-1 #
loop $-1 $-1 $205 $307 #
face $-1 $486 $206 $25 $-1 $442 reversed single #
point $-1 0 0.21850000000000014 -0.28449999999999998 #
edge $-1 $208 0 $487 0.21850000000000003 $337 $480 forward 7 unknown #
point $-1 0 0.21850000000000014 0.28449999999999998 #
face $-1 $367 $362 $27 $-1 $488 forward single #
loop $-1 $-1 $489 $210 #
plane-surface $-1 0.072331216351297023 0.125 0.15950000000000003 0.86602540378443849 0.50000000000000033 0 0 0 -1 forward_v I I I I #
coedge $-1 $490 $491 $492 $493 forward $211 $-1 #
coedge $-1 $494 $213 $491 $495 reversed $126 $-1 #
coedge $-1 $213 $494 $214 $352 forward $126 $-1 #
coedge $-1 $216 $492 $213 $350 reversed $223 $-1 #
edge $-1 $353 -0.10829378364870317 $496 0.036043783648703136 $213 $497 forward 7 unknown #
coedge $-1 $215 $214 $498 $499 reversed $83 $-1 #
edge $-1 $500 0 $353 0.12499999999999994 $348 $501 forward 7 unknown #
vertex $-1 $352 $502 #
straight-curve $-1 -0.12643749999999995 -0.031285167711712851 0.28449999999999992 -0.50000000000000033 0.86602540378443849 0 I I #
coedge $-1 $498 $503 $218 $356 forward $504 $-1 #
edge $505 $363 -0.10849682452694553 $358 0.036165608175648511 $218 $506 forward 7 unknown #
convexity-sys-attrib $-1 $-1 $-1 $219 #
vertex $-1 $356 $507 #
straight-curve $-1 -0.072331216351297023 -0.125 0.15950000000000003 0 0 1 I I #
coedge $-1 $508 $220 $503 $509 reversed $362 $-1 #
coedge $-1 $220 $508 $222 $366 forward $362 $-1 #
loop $-1 $-1 $361 $343 #
vertex $-1 $509 $510 #
straight-curve $-1 0.072331216351297023 -0.125 0.15950000000000003 0 0 1 I I #
coedge $-1 $492 $222 $489 $511 reversed $223 $-1 #
edge $-1 $512 -0.10829378364870319 $224 0.036043783648703136 $361 $513 forward 7 unknown #
face $-1 $514 $223 $27 $-1 $515 forward single #
point $-1 0.072331216351297023 -0.125 0.28449999999999998 #
point $-1 -0.072331216351297023 -0.125 0.28449999999999998 #
loop $-1 $-1 $233 $133 #
coedge $-1 $371 $371 $231 $372 forward $227 $-1 #
edge $516 $517 -3.1415926535897931 $517 3.1415926535897931 $231 $518 forward 7 unknown #
vertex $-1 $232 $519 #
ellipse-curve $-1 0 0 -0.28449999999999998 0 0 1 0.2185 0 0 1 I I #
vertex $-1 $234 $520 #
ellipse-curve $-1 0 0 0.097500000000000031 0 0 -1 -0.0935 0 0 1 I I #
point $-1 0.093500000000000028 0 -0.28449999999999998 #
face_name-twe-attrib $-1 $-1 $238 $143 6 #
model_id-kcp-attrib $-1 $521 $-1 $239 1 990710902 70 -1438253055 8 #
face $522 $523 $267 $9 $-1 $524 reversed single #
plane-surface $525 -0.55266878364870298 -3.0289999999999999 0.56899999999999995 0.86602540378443849 -0.50000000000000033 0 0 0 -1 forward_v I I I I #
loop_type-twe-attrib $-1 $-1 $-1 $240 0 #
coedge $-1 $526 $527 $271 $417 reversed $240 $-1 #
surf-twe-attrib $-1 $-1 $-1 $241 48 #
loop_type-twe-attrib $-1 $-1 $-1 $243 1 #
point $-1 -0.71850000000000003 -2.9039999999999999 0 #
cur-twe-attrib $-1 $-1 $-1 $248 55 #
point $-1 -0.53149999999999997 -2.9039999999999999 0.38200000000000001 #
cur-twe-attrib $-1 $-1 $-1 $251 57 #
coedge $-1 $528 $529 $254 $391 reversed $530 $-1 #
edge $531 $396 -0.14433756729740635 $409 0 $390 $532 forward 7 unknown #
coedge $-1 $533 $255 $258 $399 reversed $394 $-1 #
coedge $-1 $255 $533 $528 $534 forward $394 $-1 #
loop $535 $-1 $255 $536 #
attrib_edge_convexity-kcp-attrib $-1 $537 $-1 $256 1 #
vertex $-1 $534 $538 #
straight-curve $539 -0.76949999999999996 -2.9039999999999999 0.56899999999999995 -0.499999999999999 0.86602540378443904 0 I I #
coedge $-1 $258 $257 $527 $540 forward $259 $-1 #
edge $541 $542 -0.12499999999999994 $261 0 $258 $543 forward 7 unknown #
loop_type-twe-attrib $-1 $-1 $-1 $259 0 #
face $544 $-1 $259 $9 $-1 $545 reversed single #
convexity-sys-attrib $-1 $546 $260 $158 #
point $-1 -0.69733121635129702 -3.0289999999999999 0.56899999999999995 #
cur-twe-attrib $-1 $-1 $-1 $262 63 #
coedge $-1 $547 $263 $529 $548 reversed $407 $-1 #
coedge $-1 $263 $547 $265 $412 forward $407 $-1 #
loop $549 $-1 $263 $523 #
attrib_edge_convexity-kcp-attrib $-1 $550 $-1 $264 1 #
vertex $-1 $548 $551 #
straight-curve $552 -0.55266878364870298 -2.7789999999999999 0.56899999999999995 1 0 0 I I #
coedge $-1 $266 $265 $526 $553 forward $267 $-1 #
edge $554 $555 -0.12499999999999994 $269 0 $406 $556 forward 7 unknown #
loop_type-twe-attrib $-1 $-1 $-1 $267 0 #
convexity-sys-attrib $-1 $557 $268 $161 #
point $-1 -0.55266878364870298 -2.7789999999999999 0.56899999999999995 #
cur-twe-attrib $-1 $-1 $-1 $270 66 #
edge $558 $419 -0.14433756729740638 $422 0 $271 $559 forward 7 unknown #
edge_name-twe-attrib $-1 $-1 $-1 $272 9 4352 #
vertex $-1 $272 $560 #
straight-curve $561 -0.48049999999999998 -2.9039999999999999 0.56899999999999995 0 0 1 I I #
edge_name-twe-attrib $-1 $-1 $-1 $273 20 4352 #
vertex $-1 $273 $562 #
straight-curve $563 -0.55266878364870298 -3.0289999999999999 0.56899999999999995 0 0 1 I I #
edge_name-twe-attrib $-1 $-1 $275 $106 5 8704 #
plane-surface $-1 0.21850000000000003 0 0 -1 0 0 0 0 1 forward_v I I I I #
coedge $-1 $285 $283 $287 $430 reversed $173 $-1 #
edge $-1 $298 -0.28449999999999998 $432 0.28449999999999998 $297 $564 forward 7 unknown #
vertex $-1 $430 $565 #
straight-curve $-1 -0.21850000000000003 -0.21850000000000014 0 0 0 -1 I I #
edge $-1 $428 -0.21850000000000014 $432 0.21850000000000014 $426 $566 forward 7 unknown #
straight-curve $-1 0 -0.21850000000000014 -0.28449999999999998 -1 0 0 I I #
vertex $-1 $290 $567 #
straight-curve $-1 0 0.21850000000000014 -0.28449999999999998 1 0 0 I I #
point $-1 0.21850000000000003 0.21850000000000014 -0.28449999999999998 #
point $-1 0.21850000000000003 -0.21850000000000014 -0.28449999999999998 #
straight-curve $-1 -0.21850000000000003 0 0.28449999999999998 0 -1 0 I I #
point $-1 -0.21850000000000003 0.21850000000000014 0.28449999999999998 #
point $-1 -0.21850000000000003 -0.21850000000000014 0.28449999999999998 #
straight-curve $-1 0.21850000000000003 -0.21850000000000014 0 0 0 -1 I I #
straight-curve $-1 0.21850000000000003 0.21850000000000014 0 0 0 -1 I I #
face $-1 $568 $569 $25 $-1 $570 reversed single #
plane-surface $-1 0 0.21850000000000014 0 0 -1 0 0 0 -1 forward_v I I I I #
coedge $-1 $468 $473 $198 $323 reversed $308 $-1 #
coedge $-1 $571 $310 $194 $317 forward $192 $-1 #
coedge $-1 $310 $571 $572 $449 reversed $192 $-1 #
coedge $-1 $573 $574 $310 $447 forward $575 $-1 #
edge $-1 $461 -3.1415926535897931 $454 -1.5707963267948966 $446 $328 forward 7 unknown #
coedge $-1 $312 $311 $576 $577 reversed $119 $-1 #
edge $-1 $454 -0.56899999999999995 $578 0 $572 $579 forward 7 unknown #
coedge $-1 $580 $581 $443 $323 forward $582 $-1 #
coedge $-1 $452 $313 $581 $471 forward $453 $-1 #
coedge $-1 $313 $451 $583 $584 forward $453 $-1 #
loop $-1 $-1 $313 $585 #
vertex $-1 $586 $587 #
coedge $-1 $588 $484 $315 $456 forward $589 $-1 #
edge $-1 $207 1.5707963267948966 $461 3.1415926535897931 $455 $328 forward 7 unknown #
coedge $-1 $590 $316 $319 $463 reversed $460 $-1 #
coedge $-1 $316 $590 $588 $591 reversed $460 $-1 #
coedge $-1 $592 $593 $444 $317 reversed $569 $-1 #
loop $-1 $-1 $316 $594 #
vertex $-1 $591 $595 #
straight-curve $-1 -0.21850000000000003 0 0.28449999999999998 0 0 1 I I #
edge $-1 $487 -0.21850000000000014 $321 0 $457 $596 forward 7 unknown #
face $-1 $475 $320 $25 $-1 $597 forward single #
edge $-1 $321 0 $598 0.21850000000000014 $593 $596 forward 7 unknown #
point $-1 -0.21850000000000003 0 0.28449999999999998 #
straight-curve $-1 0.21850000000000003 0 0.28449999999999998 0 0 1 I I #
coedge $-1 $477 $443 $325 $469 reversed $308 $-1 #
edge $-1 $481 -0.21850000000000014 $327 0 $468 $599 forward 7 unknown #
face $-1 $600 $326 $25 $-1 $601 reversed single #
edge $-1 $327 0 $602 0.21850000000000014 $581 $599 forward 7 unknown #
point $-1 0.21850000000000003 0 -0.28449999999999998 #
coedge $-1 $443 $477 $329 $474 reversed $308 $-1 #
edge $-1 $332 0 $479 0.21850000000000014 $473 $603 forward 7 unknown #
face $-1 $604 $331 $25 $-1 $597 forward single #
point $-1 0.21850000000000003 0 0.28449999999999998 #
coedge $-1 $473 $468 $333 $478 reversed $308 $-1 #
edge $-1 $479 -0.28449999999999998 $481 0.28449999999999998 $477 $605 forward 7 unknown #
vertex $-1 $474 $606 #
straight-curve $-1 0 0.21850000000000014 0.28449999999999998 -1 0 0 I I #
vertex $-1 $469 $607 #
straight-curve $-1 0 0.21850000000000014 -0.28449999999999998 1 0 0 I I #
coedge $-1 $337 $336 $590 $608 reversed $338 $-1 #
coedge $-1 $455 $588 $336 $485 forward $589 $-1 #
edge $-1 $609 -0.21850000000000003 $207 0 $336 $482 forward 7 unknown #
face $-1 $-1 $582 $25 $-1 $309 reversed single #
vertex $-1 $341 $610 #
plane-surface $-1 0.14450000000000002 0 0.15950000000000003 0.86602540378443849 -0.50000000000000033 0 0 0 -1 forward_v I I I I #
coedge $-1 $611 $612 $365 $511 forward $344 $-1 #
coedge $-1 $613 $346 $612 $614 reversed $211 $-1 #
coedge $-1 $346 $613 $347 $495 forward $211 $-1 #
coedge $-1 $349 $365 $346 $493 reversed $223 $-1 #
edge $-1 $496 -0.10849682452694553 $615 0.036165608175648511 $346 $616 forward 7 unknown #
coedge $-1 $348 $347 $617 $618 reversed $126 $-1 #
edge $-1 $619 0 $496 0.12499999999999994 $491 $620 forward 7 unknown #
vertex $-1 $495 $621 #
straight-curve $-1 -0.090353108175648608 0.093785167711712927 0.28449999999999992 0.50000000000000033 0.86602540378443849 0 I I #
coedge $-1 $617 $355 $351 $499 forward $504 $-1 #
edge $622 $358 -0.10821256729740629 $500 0.036125000000000011 $351 $623 forward 7 unknown #
vertex $-1 $499 $624 #
straight-curve $-1 -0.14449999999999996 0 0.15950000000000003 0 0 1 I I #
point $-1 -0.14449999999999996 0 0.28449999999999998 #
coedge $-1 $355 $625 $360 $509 forward $504 $-1 #
loop $-1 $-1 $503 $514 #
convexity-sys-attrib $-1 $-1 $-1 $356 #
straight-curve $-1 -0.036165608175648511 -0.125 0.15949999999999998 -1 0 0 I I #
point $-1 -0.072331216351297023 -0.125 0.15950000000000003 #
coedge $-1 $361 $360 $611 $626 forward $362 $-1 #
edge $627 $628 -0.10829378364870319 $363 0.036043783648703136 $360 $629 forward 7 unknown #
point $-1 0.072331216351297023 -0.125 0.15950000000000003 #
edge $-1 $615 -0.1082125672974063 $512 0.036125000000000032 $489 $630 forward 7 unknown #
vertex $-1 $626 $631 #
straight-curve $-1 0.090353108175648608 -0.093785167711712927 0.28449999999999992 -0.50000000000000033 -0.86602540378443849 0 I I #
face $-1 $-1 $504 $27 $-1 $632 reversed single #
plane-surface $-1 1.6504895628541246e-017 1.0408340855860843e-017 0.28449999999999992 -6.4756635973387681e-032 9.4474359906707946e-032 1 1 0 6.4756635973387681e-032 forward_v I I I I #
convexity-sys-attrib $-1 $-1 $-1 $372 #
vertex $-1 $372 $633 #
ellipse-curve $-1 0 0 0.097500000000000031 0 0 1 0.2185 0 0 1 I I #
point $-1 -0.2185 -2.6757648831018943e-017 -0.28449999999999998 #
point $-1 0.093500000000000028 0 0.097500000000000031 #
face_name-twe-attrib $-1 $-1 $379 $239 7 #
model_id-kcp-attrib $-1 $634 $-1 $380 1 990710902 70 -1438253055 9 #
face $635 $636 $407 $9 $-1 $637 reversed single #
plane-surface $638 -0.48049999999999998 -2.9039999999999999 0.56899999999999995 0.86602540378443849 0.50000000000000033 0 0 0 -1 forward_v I I I I #
surf-twe-attrib $-1 $-1 $-1 $381 77 #
coedge $-1 $639 $383 $411 $553 reversed $240 $-1 #
coedge $-1 $383 $640 $398 $540 reversed $240 $-1 #
coedge $-1 $641 $390 $393 $534 reversed $530 $-1 #
coedge $-1 $390 $641 $405 $548 forward $530 $-1 #
loop $642 $-1 $390 $636 #
attrib_edge_convexity-kcp-attrib $-1 $643 $-1 $391 1 #
straight-curve $644 -0.69733121635129702 -2.7789999999999999 0.56899999999999995 0.499999999999999 0.86602540378443904 0 I I #
coedge $-1 $393 $392 $640 $645 forward $394 $-1 #
edge $646 $647 -0.12499999999999994 $396 0 $393 $648 forward 7 unknown #
loop_type-twe-attrib $-1 $-1 $-1 $394 0 #
face $649 $401 $394 $9 $-1 $650 reversed single #
convexity-sys-attrib $-1 $651 $395 $256 #
point $-1 -0.76949999999999996 -2.9039999999999999 0.56899999999999995 #
cur-twe-attrib $-1 $-1 $-1 $397 94 #
edge $652 $422 -0.14466243270259405 $542 0 $398 $653 forward 7 unknown #
edge_name-twe-attrib $-1 $-1 $-1 $399 22 4352 #
vertex $-1 $399 $654 #
straight-curve $655 -0.69733121635129702 -3.0289999999999999 0.56899999999999995 0 0 1 I I #
model_id-kcp-attrib $-1 $656 $-1 $401 1 990710902 70 -1438253055 13 #
plane-surface $657 -0.69733121635129702 -3.0289999999999999 0.56899999999999995 0 -1 0 0 0 -1 forward_v I I I I #
edge_name-twe-attrib $-1 $-1 $402 $158 19 8704 #
coedge $-1 $406 $405 $639 $658 forward $407 $-1 #
edge $659 $660 -0.12499999999999994 $409 0 $529 $661 forward 7 unknown #
loop_type-twe-attrib $-1 $-1 $-1 $407 0 #
convexity-sys-attrib $-1 $662 $408 $264 #
point $-1 -0.69733121635129702 -2.7789999999999999 0.56899999999999995 #
cur-twe-attrib $-1 $-1 $-1 $410 102 #
edge $663 $555 -0.14433756729740638 $419 0 $411 $664 forward 7 unknown #
edge_name-twe-attrib $-1 $-1 $-1 $412 12 4352 #
vertex $-1 $412 $665 #
straight-curve $666 -0.55266878364870298 -2.7789999999999999 0.56899999999999995 0 0 1 I I #
edge_name-twe-attrib $-1 $-1 $414 $161 7 8704 #
edge_name-twe-attrib $-1 $-1 $-1 $417 6 4608 #
straight-curve $667 -0.55266878364870298 -3.0289999999999999 0.44400000000000001 -0.499999999999999 -0.86602540378443904 0 I I #
point $-1 -0.48049999999999998 -2.9039999999999999 0.44400000000000001 #
cur-twe-attrib $-1 $-1 $-1 $420 110 #
point $-1 -0.55266878364870298 -3.0289999999999999 0.44400000000000001 #
cur-twe-attrib $-1 $-1 $-1 $423 111 #
straight-curve $-1 -0.21850000000000003 0.21850000000000014 0 0 0 -1 I I #
point $-1 -0.21850000000000003 -0.21850000000000014 -0.28449999999999998 #
straight-curve $-1 -0.21850000000000003 0 -0.28449999999999998 0 1 0 I I #
point $-1 -0.21850000000000003 0.21850000000000014 -0.28449999999999998 #
face $-1 $464 $668 $25 $-1 $597 forward single #
loop $-1 $-1 $459 $441 #
plane-surface $-1 -0.21850000000000003 0 0 1 0 0 0 0 -1 forward_v I I I I #
coedge $-1 $445 $444 $669 $670 reversed $192 $-1 #
coedge $-1 $671 $672 $673 $449 forward $674 $-1 #
coedge $-1 $574 $446 $672 $586 forward $575 $-1 #
coedge $-1 $446 $573 $592 $675 forward $575 $-1 #
loop $-1 $-1 $446 $676 #
coedge $-1 $677 $678 $448 $577 forward $679 $-1 #
edge $-1 $332 0 $578 1.5707963267948966 $576 $322 forward 7 unknown #
vertex $-1 $680 $681 #
straight-curve $-1 0 -0.21850000000000014 0.28449999999999998 0 0 1 I I #
coedge $-1 $682 $450 $678 $683 reversed $582 $-1 #
coedge $-1 $450 $682 $451 $471 reversed $582 $-1 #
loop $-1 $-1 $450 $486 #
coedge $-1 $684 $673 $452 $584 reversed $685 $-1 #
edge $-1 $602 -0.21850000000000003 $454 0 $583 $686 forward 7 unknown #
face $-1 $470 $453 $25 $-1 $601 reversed single #
edge $-1 $454 0 $687 0.21850000000000003 $672 $686 forward 7 unknown #
point $-1 0 -0.21850000000000014 -0.28449999999999998 #
coedge $-1 $484 $455 $458 $591 forward $589 $-1 #
loop $-1 $-1 $455 $600 #
coedge $-1 $458 $457 $483 $608 forward $460 $-1 #
edge $-1 $461 0 $609 0.21850000000000014 $458 $688 forward 7 unknown #
coedge $-1 $689 $459 $574 $675 reversed $569 $-1 #
coedge $-1 $459 $689 $690 $465 reversed $569 $-1 #
face $-1 $339 $460 $25 $-1 $570 reversed single #
point $-1 -0.21850000000000003 0 -0.28449999999999998 #
straight-curve $-1 -0.21850000000000003 0 0.28449999999999998 0 -1 0 I I #
plane-surface $-1 0 0 0.28449999999999998 0 0 1 1 0 0 forward_v I I I I #
vertex $-1 $465 $691 #
straight-curve $-1 0.21850000000000003 0 -0.28449999999999998 0 -1 0 I I #
face $-1 $692 $589 $25 $-1 $601 reversed single #
plane-surface $-1 0 0 -0.28449999999999998 0 0 1 1 0 0 forward_v I I I I #
vertex $-1 $693 $694 #
straight-curve $-1 0.21850000000000003 0 0.28449999999999998 0 1 0 I I #
face $-1 $695 $679 $25 $-1 $597 forward single #
straight-curve $-1 0.21850000000000003 0.21850000000000014 0 0 0 -1 I I #
point $-1 0.21850000000000003 0.21850000000000014 0.28449999999999998 #
point $-1 0.21850000000000003 0.21850000000000014 -0.28449999999999998 #
edge $-1 $487 -0.28449999999999998 $609 0.28449999999999998 $483 $696 forward 7 unknown #
vertex $-1 $485 $697 #
point $-1 -0.21850000000000003 0.21850000000000014 0.28449999999999998 #
coedge $-1 $698 $489 $508 $626 reversed $344 $-1 #
coedge $-1 $489 $698 $490 $614 forward $344 $-1 #
coedge $-1 $491 $490 $699 $700 reversed $211 $-1 #
edge $-1 $701 0 $615 0.12499999999999994 $612 $702 forward 7 unknown #
vertex $-1 $614 $703 #
straight-curve $-1 0.036165608175648511 0.125 0.28449999999999992 1 0 0 I I #
coedge $-1 $699 $498 $494 $618 forward $504 $-1 #
edge $704 $500 -0.10829378364870317 $619 0.036043783648703136 $494 $705 forward 7 unknown #
vertex $-1 $618 $706 #
straight-curve $-1 -0.072331216351297023 0.125 0.15950000000000003 0 0 1 I I #
point $-1 -0.072331216351297023 0.125 0.28449999999999998 #
convexity-sys-attrib $-1 $-1 $-1 $499 #
straight-curve $-1 -0.12643749999999995 -0.031285167711712851 0.15949999999999998 -0.50000000000000033 0.86602540378443849 0 I I #
point $-1 -0.14449999999999996 0 0.15950000000000003 #
coedge $-1 $503 $699 $698 $707 forward $504 $-1 #
edge $-1 $628 0 $512 0.12499999999999994 $508 $708 forward 7 unknown #
convexity-sys-attrib $-1 $-1 $-1 $509 #
vertex $-1 $509 $709 #
straight-curve $-1 0.090353108175648608 -0.093785167711712927 0.15949999999999998 -0.50000000000000033 -0.86602540378443849 0 I I #
straight-curve $-1 0.12643749999999998 0.031285167711712865 0.28449999999999992 0.50000000000000033 -0.86602540378443849 0 I I #
point $-1 0.14450000000000002 0 0.28449999999999998 #
plane-surface $-1 1.6504895628541246e-017 1.0408340855860843e-017 0.15949999999999998 -6.4756635973387681e-032 9.4474359906707946e-032 1 1 0 6.4756635973387681e-032 forward_v I I I I #
point $-1 -0.2185 -2.6757648831018943e-017 0.097500000000000031 #
face_name-twe-attrib $-1 $-1 $522 $380 8 #
model_id-kcp-attrib $-1 $710 $-1 $523 1 990710902 70 -1438253055 10 #
face $711 $536 $530 $9 $-1 $712 reversed single #
plane-surface $713 -0.55266878364870298 -2.7789999999999999 0.56899999999999995 0 1 0 0 0 1 forward_v I I I I #
surf-twe-attrib $-1 $-1 $-1 $524 117 #
coedge $-1 $714 $526 $547 $658 reversed $240 $-1 #
coedge $-1 $527 $714 $533 $645 reversed $240 $-1 #
coedge $-1 $529 $528 $714 $715 forward $530 $-1 #
loop_type-twe-attrib $-1 $-1 $-1 $530 0 #
convexity-sys-attrib $-1 $716 $531 $391 #
cur-twe-attrib $-1 $-1 $-1 $532 128 #
edge $717 $542 -0.14433756729740635 $647 0 $533 $718 forward 7 unknown #
edge_name-twe-attrib $-1 $-1 $-1 $534 18 4352 #
vertex $-1 $534 $719 #
straight-curve $720 -0.76949999999999996 -2.9039999999999999 0.56899999999999995 0 0 1 I I #
model_id-kcp-attrib $-1 $721 $-1 $536 1 990710902 70 -1438253055 12 #
plane-surface $722 -0.76949999999999996 -2.9039999999999999 0.56899999999999995 -0.86602540378443849 -0.50000000000000033 0 0 0 1 forward_v I I I I #
edge_name-twe-attrib $-1 $-1 $537 $256 16 8704 #
edge_name-twe-attrib $-1 $-1 $-1 $540 21 4608 #
straight-curve $723 -0.69733121635129702 -3.0289999999999999 0.44400000000000001 -1 0 0 I I #
point $-1 -0.69733121635129702 -3.0289999999999999 0.44400000000000001 #
cur-twe-attrib $-1 $-1 $-1 $543 136 #
face_name-twe-attrib $-1 $-1 $544 $401 12 #
surf-twe-attrib $-1 $-1 $-1 $545 138 #
edge $724 $660 -0.14466243270259405 $555 0 $547 $725 forward 7 unknown #
edge_name-twe-attrib $-1 $-1 $-1 $548 15 4352 #
vertex $-1 $548 $726 #
straight-curve $727 -0.69733121635129702 -2.7789999999999999 0.56899999999999995 0 0 1 I I #
edge_name-twe-attrib $-1 $-1 $550 $264 10 8704 #
edge_name-twe-attrib $-1 $-1 $-1 $553 8 4608 #
straight-curve $728 -0.48049999999999998 -2.9039999999999999 0.44400000000000001 0.499999999999999 -0.86602540378443904 0 I I #
point $-1 -0.55266878364870298 -2.7789999999999999 0.44400000000000001 #
cur-twe-attrib $-1 $-1 $-1 $556 148 #
cur-twe-attrib $-1 $-1 $-1 $559 152 #
loop $-1 $-1 $669 $568 #
coedge $-1 $690 $729 $571 $670 forward $668 $-1 #
edge $-1 $578 1.5707963267948966 $321 3.1415926535897931 $669 $322 forward 7 unknown #
coedge $-1 $730 $572 $729 $731 reversed $674 $-1 #
coedge $-1 $572 $730 $573 $586 reversed $674 $-1 #
coedge $-1 $583 $732 $311 $449 reversed $685 $-1 #
loop $-1 $-1 $572 $692 #
edge $-1 $687 -0.21850000000000014 $461 0 $592 $688 forward 7 unknown #
face $-1 $585 $575 $25 $-1 $601 reversed single #
coedge $-1 $678 $576 $732 $680 forward $679 $-1 #
coedge $-1 $576 $677 $580 $683 forward $679 $-1 #
loop $-1 $-1 $576 $604 #
edge $-1 $578 0 $733 0.21850000000000003 $732 $734 forward 7 unknown #
point $-1 0 -0.21850000000000014 0.28449999999999998 #
coedge $-1 $581 $580 $684 $693 forward $582 $-1 #
edge $-1 $733 -0.21850000000000014 $332 0 $580 $603 forward 7 unknown #
coedge $-1 $732 $583 $682 $693 reversed $685 $-1 #
loop $-1 $-1 $673 $695 #
straight-curve $-1 0 -0.21850000000000014 -0.28449999999999998 -1 0 0 I I #
vertex $-1 $675 $735 #
straight-curve $-1 -0.21850000000000003 0 -0.28449999999999998 0 1 0 I I #
coedge $-1 $593 $592 $730 $736 reversed $569 $-1 #
coedge $-1 $729 $669 $593 $465 forward $668 $-1 #
point $-1 -0.21850000000000003 -0.21850000000000014 0.28449999999999998 #
face $-1 $594 $674 $25 $-1 $737 reversed single #
edge $-1 $733 -0.28449999999999998 $602 0.28449999999999998 $682 $738 forward 7 unknown #
point $-1 0.21850000000000003 -0.21850000000000014 -0.28449999999999998 #
face $-1 $676 $685 $25 $-1 $737 reversed single #
straight-curve $-1 -0.21850000000000003 0.21850000000000014 0 0 0 -1 I I #
point $-1 -0.21850000000000003 0.21850000000000014 -0.28449999999999998 #
coedge $-1 $612 $611 $625 $707 reversed $344 $-1 #
coedge $-1 $625 $617 $613 $700 forward $504 $-1 #
edge $739 $619 -0.10849682452694553 $701 0.036165608175648511 $613 $740 forward 7 unknown #
vertex $-1 $700 $741 #
straight-curve $-1 0.072331216351297023 0.125 0.15950000000000003 0 0 1 I I #
point $-1 0.072331216351297023 0.125 0.28449999999999998 #
convexity-sys-attrib $-1 $-1 $-1 $618 #
straight-curve $-1 -0.090353108175648608 0.093785167711712927 0.15949999999999998 0.50000000000000033 0.86602540378443849 0 I I #
point $-1 -0.072331216351297023 0.125 0.15950000000000003 #
edge $742 $701 -0.1082125672974063 $628 0.036125000000000032 $698 $743 forward 7 unknown #
straight-curve $-1 0.14450000000000002 0 0.15950000000000003 0 0 1 I I #
point $-1 0.14450000000000002 0 0.15950000000000003 #
face_name-twe-attrib $-1 $-1 $635 $523 9 #
model_id-kcp-attrib $-1 $744 $-1 $636 1 990710902 70 -1438253055 11 #
plane-surface $745 -0.69733121635129702 -2.7789999999999999 0.56899999999999995 -0.86602540378443849 0.50000000000000033 0 0 0 1 forward_v I I I I #
surf-twe-attrib $-1 $-1 $-1 $637 160 #
coedge $-1 $640 $639 $641 $715 reversed $240 $-1 #
edge $746 $647 -0.14433756729740635 $660 0 $641 $747 forward 7 unknown #
edge_name-twe-attrib $-1 $-1 $643 $391 13 8704 #
edge_name-twe-attrib $-1 $-1 $-1 $645 17 4608 #
straight-curve $748 -0.76949999999999996 -2.9039999999999999 0.44400000000000001 -0.499999999999999 0.86602540378443904 0 I I #
point $-1 -0.76949999999999996 -2.9039999999999999 0.44400000000000001 #
cur-twe-attrib $-1 $-1 $-1 $648 171 #
face_name-twe-attrib $-1 $-1 $649 $536 11 #
surf-twe-attrib $-1 $-1 $-1 $650 173 #
cur-twe-attrib $-1 $-1 $-1 $653 176 #
edge_name-twe-attrib $-1 $-1 $-1 $658 11 4608 #
straight-curve $749 -0.55266878364870298 -2.7789999999999999 0.44400000000000001 1 0 0 I I #
point $-1 -0.69733121635129702 -2.7789999999999999 0.44400000000000001 #
cur-twe-attrib $-1 $-1 $-1 $661 183 #
cur-twe-attrib $-1 $-1 $-1 $664 187 #
coedge $-1 $669 $690 $671 $731 forward $668 $-1 #
coedge $-1 $672 $671 $689 $736 forward $674 $-1 #
edge $-1 $598 -0.21850000000000003 $578 0 $671 $734 forward 7 unknown #
coedge $-1 $673 $684 $677 $680 reversed $685 $-1 #
vertex $-1 $683 $750 #
straight-curve $-1 0 -0.21850000000000014 0.28449999999999998 1 0 0 I I #
point $-1 -0.21850000000000003 -0.21850000000000014 -0.28449999999999998 #
edge $-1 $598 -0.28449999999999998 $687 0.28449999999999998 $689 $751 forward 7 unknown #
plane-surface $-1 0 -0.21850000000000014 0 0 1 0 0 0 1 forward_v I I I I #
straight-curve $-1 0.21850000000000003 -0.21850000000000014 0 0 0 -1 I I #
convexity-sys-attrib $-1 $-1 $-1 $700 #
straight-curve $-1 0.036165608175648511 0.125 0.15949999999999998 1 0 0 I I #
point $-1 0.072331216351297023 0.125 0.15950000000000003 #
convexity-sys-attrib $-1 $-1 $-1 $707 #
straight-curve $-1 0.12643749999999998 0.031285167711712865 0.15949999999999998 0.50000000000000033 -0.86602540378443849 0 I I #
face_name-twe-attrib $-1 $-1 $711 $636 10 #
surf-twe-attrib $-1 $-1 $-1 $712 198 #
edge_name-twe-attrib $-1 $-1 $-1 $715 14 4608 #
straight-curve $752 -0.69733121635129702 -2.7789999999999999 0.44400000000000001 0.499999999999999 0.86602540378443904 0 I I #
cur-twe-attrib $-1 $-1 $-1 $718 206 #
cur-twe-attrib $-1 $-1 $-1 $725 217 #
point $-1 0.21850000000000003 -0.21850000000000014 0.28449999999999998 #
straight-curve $-1 -0.21850000000000003 -0.21850000000000014 0 0 0 -1 I I #
cur-twe-attrib $-1 $-1 $-1 $747 230 #
End-of-ACIS-data 