700 0 2 0           
24 FBMach with ACIS - 7.0.3 13 ACIS 7.0.3 NT 24 Tue May 14 12:10:47 2002 
1 9.9999999999999995e-007 1e-010 
body $2 -1 $-1 $3 $-1 $4 #
bdycol-kcp $-1 -1 1 4 $5 $6 $7 $8 #
model_id-kcp-attrib $-1 -1 $-1 $-1 $0 1 1021392647 1021392647 1520435201 1 #
lump $-1 -1 $-1 $-1 $9 $0 #
transform $-1 -1 1 0 0 0 1 0 0 0 1 0 0 0 1 rotate no_reflect no_shear #
body $10 -1 $-1 $11 $-1 $12 #
body $13 -1 $-1 $14 $-1 $15 #
body $16 -1 $-1 $17 $-1 $18 #
body $19 -1 $-1 $20 $-1 $21 #
shell $-1 -1 $-1 $-1 $-1 $22 $-1 $3 #
rgb_color-st-attrib $-1 -1 $23 $-1 $5 0 0 1 #
lump $-1 -1 $-1 $-1 $24 $5 #
transform $-1 -1 1 0 0 0 1 0 0 0 1 -0.625 -2.9039999999999999 0.28449999999999998 1 no_rotate no_reflect no_shear #
model_id-kcp-attrib $-1 -1 $-1 $-1 $6 1 1021392647 1021392647 1520435202 1 #
lump $-1 -1 $-1 $-1 $25 $6 #
transform $-1 -1 1 0 0 0 1 0 0 0 1 -0.625 -2.9039999999999999 0.28449999999999998 1 no_rotate no_reflect no_shear #
rgb_color-st-attrib $-1 -1 $26 $-1 $7 0.5 1 1 #
lump $-1 -1 $-1 $-1 $27 $7 #
transform $-1 -1 1 0 0 0 1 0 0 0 1 -0.625 -2.9039999999999999 0.28449999999999998 1 no_rotate no_reflect no_shear #
rgb_color-st-attrib $-1 -1 $28 $-1 $8 1 0.5 1 #
lump $-1 -1 $-1 $-1 $29 $8 #
transform $-1 -1 1 0 0 0 1 0 0 0 1 -0.625 -2.9039999999999999 0.28449999999999998 1 no_rotate no_reflect no_shear #
face $30 -1 $-1 $31 $32 $9 $-1 $33 forward single #
model_id-kcp-attrib $-1 -1 $-1 $10 $5 1 1021392647 1021392647 1520041988 1 #
shell $-1 -1 $-1 $-1 $-1 $34 $-1 $11 #
shell $-1 -1 $-1 $-1 $-1 $35 $-1 $14 #
model_id-kcp-attrib $-1 -1 $-1 $16 $7 1 1021392647 1021392647 1525022723 1 #
shell $-1 -1 $-1 $-1 $-1 $36 $-1 $17 #
model_id-kcp-attrib $-1 -1 $-1 $19 $8 1 1021392647 1021392647 1525940229 1 #
shell $-1 -1 $-1 $-1 $-1 $37 $-1 $20 #
model_id-kcp-attrib $-1 -1 $38 $-1 $22 1 1021392647 1021392647 1520435201 2 #
face $39 -1 $-1 $40 $41 $9 $-1 $42 reversed single #
loop $43 -1 $-1 $44 $45 $22 #
plane-surface $46 -1 $-1 -0.625 -2.9039999999999999 0.56899999999999995 0 0 1 1 0 0 forward_v I I I I #
face $-1 -1 $-1 $47 $48 $24 $-1 $49 forward single #
face $50 -1 $-1 $51 $52 $25 $-1 $53 forward single #
face $-1 -1 $-1 $54 $55 $27 $-1 $56 reversed single #
face $-1 -1 $-1 $57 $58 $29 $-1 $59 forward single #
face_name-twe-attrib $-1 -1 $-1 $30 $22 1 #
model_id-kcp-attrib $-1 -1 $60 $-1 $31 1 1021392647 1021392647 1520435201 3 #
face $61 -1 $-1 $62 $63 $9 $-1 $64 reversed single #
loop $65 -1 $-1 $66 $67 $31 #
plane-surface $68 -1 $-1 -0.625 -2.9039999999999999 0.38200000000000001 0 0 1 1 0 0 forward_v I I I I #
loop_type-twe-attrib $-1 -1 $-1 $-1 $32 0 #
loop $69 -1 $-1 $-1 $70 $22 #
coedge $-1 -1 $-1 $45 $45 $71 $72 forward $32 $-1 #
surf-twe-attrib $-1 -1 $-1 $-1 $33 4 #
face $-1 -1 $-1 $73 $74 $24 $-1 $75 forward single #
loop $-1 -1 $-1 $-1 $76 $34 #
plane-surface $-1 -1 $-1 0.072331216351297023 -0.125 0.15950000000000003 0 -1 0 0 0 -1 forward_v I I I I #
model_id-kcp-attrib $-1 -1 $-1 $-1 $35 1 1021392647 1021392647 1520435202 2 #
face $77 -1 $-1 $78 $79 $25 $-1 $80 reversed single #
loop $-1 -1 $-1 $-1 $81 $35 #
plane-surface $-1 -1 $-1 0 0 0.28449999999999998 0 0 1 1 0 0 forward_v I I I I #
face $-1 -1 $-1 $82 $83 $27 $-1 $56 reversed single #
loop $-1 -1 $-1 $-1 $84 $36 #
cone-surface $-1 -1 $-1 0 0 0.28449999999999998 0 0 1 0.2185 0 0 1 I I 0 1 0.2185 forward I I I I #
face $-1 -1 $-1 $85 $86 $29 $-1 $87 forward single #
loop $-1 -1 $-1 $88 $89 $37 #
cone-surface $-1 -1 $-1 0 0 0.097500000000000031 0 0 -1 -0.0935 0 0 1 I I 0 -1 0.0935 forward I I I I #
face_name-twe-attrib $-1 -1 $-1 $39 $31 2 #
model_id-kcp-attrib $-1 -1 $90 $-1 $40 1 1021392647 1021392647 1520435201 4 #
face $91 -1 $-1 $92 $93 $9 $-1 $94 forward single #
loop $95 -1 $-1 $-1 $96 $40 #
plane-surface $97 -1 $-1 -0.625 -2.9039999999999999 0 0 0 1 1 0 0 forward_v I I I I #
loop_type-twe-attrib $-1 -1 $-1 $-1 $41 0 #
loop $98 -1 $-1 $-1 $99 $31 #
coedge $-1 -1 $-1 $67 $67 $100 $101 forward $41 $-1 #
surf-twe-attrib $-1 -1 $-1 $-1 $42 6 #
loop_type-twe-attrib $-1 -1 $-1 $-1 $44 1 #
coedge $-1 -1 $-1 $102 $103 $104 $105 forward $44 $-1 #
coedge $-1 -1 $-1 $71 $71 $45 $72 reversed $93 $-1 #
edge $106 -1 $-1 $107 0 $107 6.2831853071795862 $71 $108 forward @7 unknown #
face $-1 -1 $-1 $109 $110 $24 $-1 $111 forward single #
loop $-1 -1 $-1 $-1 $112 $47 #
plane-surface $-1 -1 $-1 -0.072331216351297023 -0.125 0.15950000000000003 -0.86602540378443849 -0.50000000000000033 0 0 0 1 forward_v I I I I #
coedge $-1 -1 $-1 $113 $114 $115 $116 forward $48 $-1 #
model_id-kcp-attrib $-1 -1 $-1 $-1 $51 1 1021392647 1021392647 1520435202 3 #
face $-1 -1 $-1 $117 $118 $25 $-1 $119 reversed single #
loop $-1 -1 $-1 $-1 $120 $51 #
plane-surface $-1 -1 $-1 0 0 -0.28449999999999998 0 0 1 1 0 0 forward_v I I I I #
coedge $-1 -1 $-1 $121 $122 $123 $124 forward $52 $-1 #
face $-1 -1 $-1 $125 $126 $27 $-1 $56 reversed single #
loop $-1 -1 $-1 $-1 $127 $54 #
coedge $-1 -1 $-1 $128 $129 $130 $131 reversed $55 $-1 #
face $-1 -1 $-1 $132 $133 $29 $-1 $134 reversed single #
loop $-1 -1 $-1 $135 $136 $57 #
cone-surface $-1 -1 $-1 0 0 0.097500000000000031 0 0 -1 0.2185 0 0 1 I I 0 1 0.2185 forward I I I I #
loop $-1 -1 $-1 $-1 $137 $37 #
coedge $-1 -1 $-1 $89 $89 $138 $139 forward $58 $-1 #
face_name-twe-attrib $-1 -1 $-1 $61 $40 3 #
model_id-kcp-attrib $-1 -1 $140 $-1 $62 1 1021392647 1021392647 1520435201 5 #
face $141 -1 $-1 $142 $143 $9 $-1 $144 forward single #
loop $145 -1 $-1 $146 $71 $62 #
cone-surface $147 -1 $-1 -0.625 -2.9039999999999999 -0.02845 0 0 1 -0.2185 0 0 1 I I 0 1 0.2185 forward I I I I #
loop_type-twe-attrib $-1 -1 $-1 $-1 $63 0 #
coedge $-1 -1 $-1 $96 $96 $148 $149 forward $63 $-1 #
surf-twe-attrib $-1 -1 $-1 $-1 $64 10 #
loop_type-twe-attrib $-1 -1 $-1 $-1 $66 1 #
coedge $-1 -1 $-1 $99 $99 $150 $151 forward $66 $-1 #
coedge $-1 -1 $-1 $100 $100 $67 $101 reversed $146 $-1 #
edge $152 -1 $-1 $153 -3.1415926535897931 $153 3.1415926535897931 $67 $154 forward @7 unknown #
coedge $-1 -1 $-1 $155 $70 $156 $157 forward $44 $-1 #
coedge $-1 -1 $-1 $70 $158 $159 $160 forward $44 $-1 #
coedge $-1 -1 $-1 $161 $162 $70 $105 reversed $163 $-1 #
edge $164 -1 $-1 $165 -0.14433756729740638 $166 0 $104 $167 forward @7 unknown #
attrib_edge_convexity-kcp-attrib $-1 -1 $168 $-1 $72 1 #
vertex $-1 -1 $-1 $72 $169 #
ellipse-curve $170 -1 $-1 -0.625 -2.9039999999999999 0.56899999999999995 0 0 1 0.2185 0 0 1 I I #
face $-1 -1 $-1 $171 $172 $24 $-1 $173 forward single #
loop $-1 -1 $-1 $-1 $174 $73 #
plane-surface $-1 -1 $-1 -0.14449999999999996 0 0.15950000000000003 -0.86602540378443849 0.50000000000000033 0 0 0 1 forward_v I I I I #
coedge $-1 -1 $-1 $175 $176 $177 $178 forward $74 $-1 #
coedge $-1 -1 $-1 $179 $76 $176 $180 reversed $48 $-1 #
coedge $-1 -1 $-1 $76 $179 $181 $182 forward $48 $-1 #
coedge $-1 -1 $-1 $183 $177 $76 $116 reversed $184 $-1 #
edge $-1 -1 $-1 $185 -0.10849682452694553 $186 0.036165608175648511 $76 $187 forward @7 unknown #
face $-1 -1 $-1 $188 $189 $25 $-1 $190 reversed single #
loop $-1 -1 $-1 $-1 $191 $78 #
plane-surface $-1 -1 $-1 0 -0.21850000000000014 0 0 1 0 0 0 1 forward_v I I I I #
coedge $-1 -1 $-1 $192 $193 $194 $195 forward $79 $-1 #
coedge $-1 -1 $-1 $196 $81 $197 $198 forward $52 $-1 #
coedge $-1 -1 $-1 $81 $196 $199 $200 forward $52 $-1 #
coedge $-1 -1 $-1 $201 $202 $81 $124 reversed $203 $-1 #
edge $-1 -1 $-1 $204 -0.21850000000000014 $205 0.21850000000000014 $123 $206 forward @7 unknown #
face $-1 -1 $-1 $207 $208 $27 $-1 $56 reversed single #
loop $-1 -1 $-1 $-1 $209 $82 #
coedge $-1 -1 $-1 $210 $211 $212 $213 reversed $83 $-1 #
coedge $-1 -1 $-1 $214 $84 $215 $216 reversed $55 $-1 #
coedge $-1 -1 $-1 $84 $214 $217 $218 reversed $55 $-1 #
coedge $-1 -1 $-1 $219 $220 $221 $131 forward $222 $-1 #
edge $-1 -1 $-1 $223 -0.56899999999999995 $224 0 $130 $225 forward @7 unknown #
face $-1 -1 $-1 $-1 $226 $29 $-1 $227 forward single #
loop $-1 -1 $-1 $228 $229 $85 #
plane-surface $-1 -1 $-1 -0.011363636363636359 4.1606335056216715e-018 -0.28449999999999998 8.1831863016037455e-033 6.8193219180031165e-033 1 1 0 -8.1831863016037455e-033 forward_v I I I I #
loop $-1 -1 $-1 $-1 $230 $57 #
coedge $-1 -1 $-1 $136 $136 $229 $231 forward $86 $-1 #
coedge $-1 -1 $-1 $137 $137 $232 $233 reversed $88 $-1 #
coedge $-1 -1 $-1 $138 $138 $89 $139 reversed $228 $-1 #
edge $-1 -1 $-1 $234 -3.1415926535897931 $234 3.1415926535897931 $89 $235 forward @7 unknown #
face_name-twe-attrib $-1 -1 $-1 $91 $62 4 #
model_id-kcp-attrib $-1 -1 $236 $-1 $92 1 1021392647 1021392647 1520435201 6 #
face $237 -1 $-1 $238 $239 $9 $-1 $240 forward single #
loop $241 -1 $-1 $242 $150 $92 #
cone-surface $243 -1 $-1 -0.625 -2.9039999999999999 -0.02845 0 0 1 -0.0935 0 0 1 I I 0 1 0.0935 forward I I I I #
loop_type-twe-attrib $-1 -1 $-1 $-1 $93 0 #
loop $244 -1 $-1 $-1 $100 $62 #
surf-twe-attrib $-1 -1 $-1 $-1 $94 18 #
coedge $-1 -1 $-1 $148 $148 $96 $149 reversed $242 $-1 #
edge $245 -1 $-1 $246 -3.1415926535897931 $246 3.1415926535897931 $96 $247 forward @7 unknown #
coedge $-1 -1 $-1 $150 $150 $99 $151 reversed $143 $-1 #
edge $248 -1 $-1 $249 0 $249 6.2831853071795862 $150 $250 forward @7 unknown #
attrib_edge_convexity-kcp-attrib $-1 -1 $251 $-1 $101 1 #
vertex $-1 -1 $-1 $101 $252 #
ellipse-curve $253 -1 $-1 -0.625 -2.9039999999999999 0.38200000000000001 0 0 -1 0.2185 0 0 1 I I #
coedge $-1 -1 $-1 $254 $102 $255 $256 forward $44 $-1 #
coedge $-1 -1 $-1 $257 $258 $102 $157 reversed $259 $-1 #
edge $260 -1 $-1 $166 -0.14466243270259405 $261 0 $156 $262 forward @7 unknown #
coedge $-1 -1 $-1 $103 $254 $263 $264 forward $44 $-1 #
coedge $-1 -1 $-1 $265 $266 $103 $160 reversed $267 $-1 #
edge $268 -1 $-1 $269 -0.14433756729740638 $165 0 $159 $270 forward @7 unknown #
coedge $-1 -1 $-1 $271 $104 $266 $272 reversed $163 $-1 #
coedge $-1 -1 $-1 $104 $271 $257 $273 forward $163 $-1 #
loop $274 -1 $-1 $-1 $104 $238 #
attrib_edge_convexity-kcp-attrib $-1 -1 $275 $-1 $105 1 #
vertex $-1 -1 $-1 $272 $276 #
vertex $-1 -1 $-1 $273 $277 #
straight-curve $278 -1 $-1 -0.55266878364870298 -3.0289999999999999 0.56899999999999995 -0.499999999999999 -0.86602540378443904 0 I I #
convexity-sys-attrib $-1 -1 $279 $106 $72 #
point $-1 -1 $-1 -0.40649999999999997 -2.9039999999999999 0.56899999999999995 #
cur-twe-attrib $-1 -1 $-1 $-1 $108 28 #
face $-1 -1 $-1 $280 $281 $24 $-1 $282 forward single #
loop $-1 -1 $-1 $-1 $283 $109 #
plane-surface $-1 -1 $-1 -0.072331216351297023 0.125 0.15950000000000003 0 1 0 0 0 1 forward_v I I I I #
coedge $-1 -1 $-1 $284 $285 $286 $287 forward $110 $-1 #
coedge $-1 -1 $-1 $288 $112 $285 $289 reversed $74 $-1 #
coedge $-1 -1 $-1 $112 $288 $113 $180 forward $74 $-1 #
coedge $-1 -1 $-1 $115 $286 $112 $178 reversed $184 $-1 #
edge $-1 -1 $-1 $186 -0.10821256729740629 $290 0.036125000000000011 $112 $291 forward @7 unknown #
coedge $-1 -1 $-1 $114 $113 $292 $293 reversed $48 $-1 #
edge $294 -1 $-1 $295 0 $186 0.12499999999999994 $176 $296 forward @7 unknown #
coedge $-1 -1 $-1 $297 $298 $114 $182 reversed $299 $-1 #
edge $-1 -1 $-1 $300 0 $185 0.12499999999999994 $114 $301 forward @7 unknown #
coedge $-1 -1 $-1 $302 $115 $298 $303 reversed $184 $-1 #
loop $-1 -1 $-1 $-1 $115 $304 #
vertex $-1 -1 $-1 $182 $305 #
vertex $-1 -1 $-1 $180 $306 #
straight-curve $-1 -1 $-1 -0.036165608175648511 -0.125 0.28449999999999992 -1 0 0 I I #
face $-1 -1 $-1 $307 $308 $25 $-1 $309 reversed single #
loop $-1 -1 $-1 $-1 $310 $117 #
plane-surface $-1 -1 $-1 -0.21850000000000003 0 0 1 0 0 0 0 -1 forward_v I I I I #
coedge $-1 -1 $-1 $311 $199 $312 $313 forward $118 $-1 #
coedge $-1 -1 $-1 $314 $120 $311 $315 forward $79 $-1 #
coedge $-1 -1 $-1 $120 $314 $316 $317 forward $79 $-1 #
coedge $-1 -1 $-1 $202 $201 $120 $195 reversed $203 $-1 #
edge $-1 -1 $-1 $318 -0.21850000000000014 $319 0.21850000000000014 $194 $320 forward @7 unknown #
coedge $-1 -1 $-1 $122 $121 $321 $322 forward $52 $-1 #
coedge $-1 -1 $-1 $323 $324 $121 $198 reversed $308 $-1 #
edge $-1 -1 $-1 $205 -0.21850000000000003 $325 0.21850000000000003 $197 $326 forward @7 unknown #
coedge $-1 -1 $-1 $191 $327 $122 $200 reversed $118 $-1 #
edge $-1 -1 $-1 $328 -0.21850000000000003 $204 0.21850000000000003 $199 $329 forward @7 unknown #
coedge $-1 -1 $-1 $194 $123 $327 $330 forward $203 $-1 #
coedge $-1 -1 $-1 $123 $194 $323 $331 reversed $203 $-1 #
loop $-1 -1 $-1 $-1 $201 $307 #
vertex $-1 -1 $-1 $124 $332 #
vertex $-1 -1 $-1 $124 $333 #
straight-curve $-1 -1 $-1 0.21850000000000003 0 0.28449999999999998 0 1 0 I I #
face $-1 -1 $-1 $334 $335 $27 $-1 $336 reversed single #
loop $-1 -1 $-1 $-1 $337 $125 #
coedge $-1 -1 $-1 $338 $339 $340 $341 reversed $126 $-1 #
coedge $-1 -1 $-1 $342 $127 $343 $344 reversed $83 $-1 #
coedge $-1 -1 $-1 $127 $342 $84 $131 forward $83 $-1 #
coedge $-1 -1 $-1 $345 $346 $127 $213 forward $347 $-1 #
edge $-1 -1 $-1 $348 -3.1415926535897931 $224 -1.5707963267948966 $212 $349 forward @7 unknown #
coedge $-1 -1 $-1 $129 $128 $339 $350 forward $55 $-1 #
coedge $-1 -1 $-1 $351 $352 $128 $216 forward $353 $-1 #
edge $-1 -1 $-1 $354 0 $223 1.5707963267948966 $215 $355 forward @7 unknown #
coedge $-1 -1 $-1 $356 $357 $129 $218 forward $358 $-1 #
edge $-1 -1 $-1 $224 -1.5707963267948966 $359 0 $217 $349 forward @7 unknown #
coedge $-1 -1 $-1 $360 $130 $357 $361 reversed $222 $-1 #
coedge $-1 -1 $-1 $130 $360 $351 $362 reversed $222 $-1 #
coedge $-1 -1 $-1 $363 $364 $211 $131 reversed $365 $-1 #
loop $-1 -1 $-1 $-1 $130 $366 #
vertex $-1 -1 $-1 $362 $367 #
vertex $-1 -1 $-1 $368 $369 #
straight-curve $-1 -1 $-1 0 0.21850000000000014 0.28449999999999998 0 0 1 I I #
loop $-1 -1 $-1 $370 $371 $132 #
plane-surface $-1 -1 $-1 -0.011363636363636359 4.1606335056216715e-018 0.097500000000000003 8.1831863016037455e-033 6.8193219180031165e-033 1 1 0 -8.1831863016037455e-033 forward_v I I I I #
loop $-1 -1 $-1 $-1 $138 $85 #
coedge $-1 -1 $-1 $229 $229 $136 $231 reversed $133 $-1 #
coedge $-1 -1 $-1 $230 $230 $371 $372 reversed $135 $-1 #
edge $-1 -1 $-1 $373 -3.1415926535897931 $373 3.1415926535897931 $136 $374 forward @7 unknown #
coedge $-1 -1 $-1 $232 $232 $137 $233 forward $370 $-1 #
edge $375 -1 $-1 $376 -3.1415926535897931 $376 3.1415926535897931 $137 $377 forward @7 unknown #
vertex $-1 -1 $-1 $139 $378 #
ellipse-curve $-1 -1 $-1 0 0 -0.28449999999999998 0 0 -1 -0.0935 0 0 1 I I #
face_name-twe-attrib $-1 -1 $-1 $141 $92 5 #
model_id-kcp-attrib $-1 -1 $379 $-1 $142 1 1021392647 1021392647 1520435201 7 #
face $380 -1 $-1 $381 $163 $9 $-1 $382 reversed single #
loop $383 -1 $-1 $-1 $384 $142 #
plane-surface $385 -1 $-1 -0.625 -2.9039999999999999 0.44400000000000001 0 0 1 1 0 0 forward_v I I I I #
loop_type-twe-attrib $-1 -1 $-1 $-1 $143 0 #
loop $386 -1 $-1 $-1 $148 $92 #
surf-twe-attrib $-1 -1 $-1 $-1 $144 30 #
loop_type-twe-attrib $-1 -1 $-1 $-1 $146 1 #
edge_name-twe-attrib $-1 -1 $-1 $-1 $149 2 8704 #
vertex $-1 -1 $-1 $149 $387 #
ellipse-curve $388 -1 $-1 -0.625 -2.9039999999999999 0 0 0 -1 0.0935 0 0 1 I I #
attrib_edge_convexity-kcp-attrib $-1 -1 $389 $-1 $151 2 #
vertex $-1 -1 $-1 $151 $390 #
ellipse-curve $391 -1 $-1 -0.625 -2.9039999999999999 0.38200000000000001 0 0 1 0.0935 0 0 1 I I #
convexity-sys-attrib $-1 -1 $392 $152 $101 #
point $-1 -1 $-1 -0.84350000000000003 -2.9039999999999999 0.38200000000000001 #
cur-twe-attrib $-1 -1 $-1 $-1 $154 39 #
coedge $-1 -1 $-1 $158 $155 $393 $394 forward $44 $-1 #
coedge $-1 -1 $-1 $395 $396 $155 $256 reversed $397 $-1 #
edge $398 -1 $-1 $261 -0.14433756729740635 $399 0 $255 $400 forward @7 unknown #
coedge $-1 -1 $-1 $401 $156 $162 $273 reversed $259 $-1 #
coedge $-1 -1 $-1 $156 $401 $395 $402 forward $259 $-1 #
loop $403 -1 $-1 $-1 $156 $404 #
attrib_edge_convexity-kcp-attrib $-1 -1 $405 $-1 $157 1 #
vertex $-1 -1 $-1 $402 $406 #
straight-curve $407 -1 $-1 -0.69733121635129702 -3.0289999999999999 0.56899999999999995 -1 0 0 I I #
coedge $-1 -1 $-1 $408 $409 $158 $264 reversed $410 $-1 #
edge $411 -1 $-1 $412 -0.14466243270259405 $269 0 $263 $413 forward @7 unknown #
coedge $-1 -1 $-1 $414 $159 $409 $415 reversed $267 $-1 #
coedge $-1 -1 $-1 $159 $414 $161 $272 forward $267 $-1 #
loop $416 -1 $-1 $-1 $159 $381 #
attrib_edge_convexity-kcp-attrib $-1 -1 $417 $-1 $160 1 #
vertex $-1 -1 $-1 $415 $418 #
straight-curve $419 -1 $-1 -0.48049999999999998 -2.9039999999999999 0.56899999999999995 0.499999999999999 -0.86602540378443904 0 I I #
coedge $-1 -1 $-1 $162 $161 $384 $420 forward $163 $-1 #
edge $421 -1 $-1 $422 -0.12499999999999994 $165 0 $266 $423 forward @7 unknown #
edge $424 -1 $-1 $425 -0.12499999999999994 $166 0 $257 $426 forward @7 unknown #
loop_type-twe-attrib $-1 -1 $-1 $-1 $163 0 #
convexity-sys-attrib $-1 -1 $427 $164 $105 #
point $-1 -1 $-1 -0.48049999999999998 -2.9039999999999999 0.56899999999999995 #
point $-1 -1 $-1 -0.55266878364870298 -3.0289999999999999 0.56899999999999995 #
cur-twe-attrib $-1 -1 $-1 $-1 $167 43 #
edge_name-twe-attrib $-1 -1 $-1 $168 $72 3 8704 #
face $-1 -1 $-1 $304 $299 $24 $-1 $428 forward single #
loop $-1 -1 $-1 $-1 $429 $171 #
plane-surface $-1 -1 $-1 0.072331216351297023 0.125 0.15950000000000003 0.86602540378443849 0.50000000000000033 0 0 0 -1 forward_v I I I I #
coedge $-1 -1 $-1 $430 $431 $432 $433 forward $172 $-1 #
coedge $-1 -1 $-1 $434 $174 $431 $435 reversed $110 $-1 #
coedge $-1 -1 $-1 $174 $434 $175 $289 forward $110 $-1 #
coedge $-1 -1 $-1 $177 $432 $174 $287 reversed $184 $-1 #
edge $-1 -1 $-1 $290 -0.10829378364870317 $436 0.036043783648703136 $174 $437 forward @7 unknown #
coedge $-1 -1 $-1 $176 $175 $438 $439 reversed $74 $-1 #
edge $-1 -1 $-1 $440 0 $290 0.12499999999999994 $285 $441 forward @7 unknown #
vertex $-1 -1 $-1 $289 $442 #
straight-curve $-1 -1 $-1 -0.12643749999999995 -0.031285167711712851 0.28449999999999992 -0.50000000000000033 0.86602540378443849 0 I I #
coedge $-1 -1 $-1 $438 $443 $179 $293 forward $444 $-1 #
edge $445 -1 $-1 $300 -0.10849682452694553 $295 0.036165608175648511 $179 $446 forward @7 unknown #
convexity-sys-attrib $-1 -1 $-1 $-1 $180 #
vertex $-1 -1 $-1 $293 $447 #
straight-curve $-1 -1 $-1 -0.072331216351297023 -0.125 0.15950000000000003 0 0 1 I I #
coedge $-1 -1 $-1 $448 $181 $443 $449 reversed $299 $-1 #
coedge $-1 -1 $-1 $181 $448 $183 $303 forward $299 $-1 #
loop $-1 -1 $-1 $-1 $298 $280 #
vertex $-1 -1 $-1 $449 $450 #
straight-curve $-1 -1 $-1 0.072331216351297023 -0.125 0.15950000000000003 0 0 1 I I #
coedge $-1 -1 $-1 $432 $183 $429 $451 reversed $184 $-1 #
edge $-1 -1 $-1 $452 -0.10829378364870319 $185 0.036043783648703136 $298 $453 forward @7 unknown #
face $-1 -1 $-1 $454 $184 $24 $-1 $455 forward single #
point $-1 -1 $-1 0.072331216351297023 -0.125 0.28449999999999998 #
point $-1 -1 $-1 -0.072331216351297023 -0.125 0.28449999999999998 #
face $-1 -1 $-1 $-1 $203 $25 $-1 $456 reversed single #
loop $-1 -1 $-1 $-1 $323 $188 #
plane-surface $-1 -1 $-1 0 0.21850000000000014 0 0 -1 0 0 0 -1 forward_v I I I I #
coedge $-1 -1 $-1 $457 $321 $324 $458 forward $189 $-1 #
coedge $-1 -1 $-1 $327 $191 $192 $315 reversed $118 $-1 #
coedge $-1 -1 $-1 $321 $457 $191 $313 reversed $189 $-1 #
edge $-1 -1 $-1 $328 -0.28449999999999998 $459 0.28449999999999998 $312 $460 forward @7 unknown #
coedge $-1 -1 $-1 $193 $192 $457 $461 forward $79 $-1 #
edge $-1 -1 $-1 $319 -0.21850000000000003 $459 0.21850000000000003 $311 $462 forward @7 unknown #
coedge $-1 -1 $-1 $324 $323 $193 $317 reversed $308 $-1 #
edge $-1 -1 $-1 $463 -0.21850000000000003 $318 0.21850000000000003 $316 $464 forward @7 unknown #
vertex $-1 -1 $-1 $195 $465 #
vertex $-1 -1 $-1 $330 $466 #
straight-curve $-1 -1 $-1 0.21850000000000003 0 -0.28449999999999998 0 -1 0 I I #
coedge $-1 -1 $-1 $310 $312 $196 $322 reversed $189 $-1 #
edge $-1 -1 $-1 $325 -0.21850000000000014 $328 0.21850000000000014 $321 $467 forward @7 unknown #
coedge $-1 -1 $-1 $316 $197 $202 $331 forward $308 $-1 #
coedge $-1 -1 $-1 $197 $316 $310 $458 reversed $308 $-1 #
vertex $-1 -1 $-1 $198 $468 #
straight-curve $-1 -1 $-1 0 0.21850000000000014 0.28449999999999998 -1 0 0 I I #
coedge $-1 -1 $-1 $199 $311 $201 $330 reversed $118 $-1 #
vertex $-1 -1 $-1 $322 $469 #
straight-curve $-1 -1 $-1 0 -0.21850000000000014 0.28449999999999998 1 0 0 I I #
edge $-1 -1 $-1 $204 -0.28449999999999998 $319 0.28449999999999998 $201 $470 forward @7 unknown #
edge $-1 -1 $-1 $205 -0.28449999999999998 $318 0.28449999999999998 $202 $471 forward @7 unknown #
point $-1 -1 $-1 0.21850000000000003 -0.21850000000000014 0.28449999999999998 #
point $-1 -1 $-1 0.21850000000000003 0.21850000000000014 0.28449999999999998 #
face $-1 -1 $-1 $472 $365 $27 $-1 $473 reversed single #
loop $-1 -1 $-1 $-1 $474 $207 #
plane-surface $-1 -1 $-1 0.21850000000000003 0 0 -1 0 0 0 0 1 forward_v I I I I #
coedge $-1 -1 $-1 $475 $476 $477 $478 reversed $208 $-1 #
coedge $-1 -1 $-1 $479 $209 $476 $480 forward $126 $-1 #
coedge $-1 -1 $-1 $209 $479 $481 $350 reversed $126 $-1 #
coedge $-1 -1 $-1 $482 $483 $209 $341 forward $484 $-1 #
edge $-1 -1 $-1 $485 -1.5707963267948966 $354 0 $340 $355 forward @7 unknown #
coedge $-1 -1 $-1 $211 $210 $486 $487 reversed $83 $-1 #
coedge $-1 -1 $-1 $488 $489 $490 $344 forward $491 $-1 #
edge $-1 -1 $-1 $492 -0.56899999999999995 $348 0 $343 $493 forward @7 unknown #
coedge $-1 -1 $-1 $346 $212 $364 $368 forward $347 $-1 #
coedge $-1 -1 $-1 $212 $345 $488 $494 forward $347 $-1 #
loop $-1 -1 $-1 $-1 $212 $495 #
vertex $-1 -1 $-1 $496 $497 #
ellipse-curve $-1 -1 $-1 0 0 0.28449999999999998 0 0 -1 0.2185 0 0 1 I I #
edge $-1 -1 $-1 $354 -0.56899999999999995 $359 0 $481 $498 forward @7 unknown #
coedge $-1 -1 $-1 $352 $215 $220 $362 forward $353 $-1 #
coedge $-1 -1 $-1 $215 $351 $499 $500 forward $353 $-1 #
loop $-1 -1 $-1 $-1 $215 $501 #
vertex $-1 -1 $-1 $502 $503 #
ellipse-curve $-1 -1 $-1 0 0 -0.28449999999999998 0 0 1 0.2185 0 0 1 I I #
coedge $-1 -1 $-1 $357 $217 $504 $505 forward $358 $-1 #
coedge $-1 -1 $-1 $217 $356 $219 $361 forward $358 $-1 #
loop $-1 -1 $-1 $-1 $217 $506 #
vertex $-1 -1 $-1 $505 $507 #
coedge $-1 -1 $-1 $220 $219 $508 $509 forward $222 $-1 #
edge $-1 -1 $-1 $510 -0.21850000000000003 $224 0 $219 $511 forward @7 unknown #
edge $-1 -1 $-1 $223 0 $512 0.21850000000000003 $220 $513 forward @7 unknown #
coedge $-1 -1 $-1 $514 $221 $515 $516 reversed $365 $-1 #
coedge $-1 -1 $-1 $221 $514 $345 $368 reversed $365 $-1 #
loop $-1 -1 $-1 $-1 $221 $334 #
face $-1 -1 $-1 $517 $222 $27 $-1 $473 reversed single #
point $-1 -1 $-1 0 0.21850000000000014 -0.28449999999999998 #
edge $-1 -1 $-1 $224 0 $518 0.21850000000000003 $364 $511 forward @7 unknown #
point $-1 -1 $-1 0 0.21850000000000014 0.28449999999999998 #
loop $-1 -1 $-1 $-1 $232 $132 #
coedge $-1 -1 $-1 $371 $371 $230 $372 forward $226 $-1 #
edge $519 -1 $-1 $520 -3.1415926535897931 $520 3.1415926535897931 $230 $521 forward @7 unknown #
vertex $-1 -1 $-1 $231 $522 #
ellipse-curve $-1 -1 $-1 0 0 -0.28449999999999998 0 0 1 0.2185 0 0 1 I I #
convexity-sys-attrib $-1 -1 $-1 $-1 $233 #
vertex $-1 -1 $-1 $233 $523 #
ellipse-curve $-1 -1 $-1 0 0 0.097500000000000031 0 0 -1 -0.0935 0 0 1 I I #
point $-1 -1 $-1 0.093500000000000028 0 -0.28449999999999998 #
face_name-twe-attrib $-1 -1 $-1 $237 $142 6 #
model_id-kcp-attrib $-1 -1 $524 $-1 $238 1 1021392647 1021392647 1520435201 8 #
face $525 -1 $-1 $526 $267 $9 $-1 $527 reversed single #
plane-surface $528 -1 $-1 -0.55266878364870298 -3.0289999999999999 0.56899999999999995 0.86602540378443849 -0.50000000000000033 0 0 0 -1 forward_v I I I I #
loop_type-twe-attrib $-1 -1 $-1 $-1 $239 0 #
coedge $-1 -1 $-1 $529 $530 $271 $420 reversed $239 $-1 #
surf-twe-attrib $-1 -1 $-1 $-1 $240 48 #
loop_type-twe-attrib $-1 -1 $-1 $-1 $242 1 #
point $-1 -1 $-1 -0.71850000000000003 -2.9039999999999999 0 #
cur-twe-attrib $-1 -1 $-1 $-1 $247 55 #
convexity-sys-attrib $-1 -1 $531 $248 $151 #
point $-1 -1 $-1 -0.53149999999999997 -2.9039999999999999 0.38200000000000001 #
cur-twe-attrib $-1 -1 $-1 $-1 $250 57 #
edge_name-twe-attrib $-1 -1 $-1 $251 $101 1 8704 #
coedge $-1 -1 $-1 $532 $533 $254 $394 reversed $534 $-1 #
edge $535 -1 $-1 $399 -0.14433756729740635 $412 0 $393 $536 forward @7 unknown #
coedge $-1 -1 $-1 $537 $255 $258 $402 reversed $397 $-1 #
coedge $-1 -1 $-1 $255 $537 $532 $538 forward $397 $-1 #
loop $539 -1 $-1 $-1 $255 $540 #
attrib_edge_convexity-kcp-attrib $-1 -1 $541 $-1 $256 1 #
vertex $-1 -1 $-1 $538 $542 #
straight-curve $543 -1 $-1 -0.76949999999999996 -2.9039999999999999 0.56899999999999995 -0.499999999999999 0.86602540378443904 0 I I #
coedge $-1 -1 $-1 $258 $257 $530 $544 forward $259 $-1 #
edge $545 -1 $-1 $546 -0.12499999999999994 $261 0 $258 $547 forward @7 unknown #
loop_type-twe-attrib $-1 -1 $-1 $-1 $259 0 #
face $548 -1 $-1 $-1 $259 $9 $-1 $549 reversed single #
convexity-sys-attrib $-1 -1 $550 $260 $157 #
point $-1 -1 $-1 -0.69733121635129702 -3.0289999999999999 0.56899999999999995 #
cur-twe-attrib $-1 -1 $-1 $-1 $262 63 #
coedge $-1 -1 $-1 $551 $263 $533 $552 reversed $410 $-1 #
coedge $-1 -1 $-1 $263 $551 $265 $415 forward $410 $-1 #
loop $553 -1 $-1 $-1 $263 $526 #
attrib_edge_convexity-kcp-attrib $-1 -1 $554 $-1 $264 1 #
vertex $-1 -1 $-1 $552 $555 #
straight-curve $556 -1 $-1 -0.55266878364870298 -2.7789999999999999 0.56899999999999995 1 0 0 I I #
coedge $-1 -1 $-1 $266 $265 $529 $557 forward $267 $-1 #
edge $558 -1 $-1 $559 -0.12499999999999994 $269 0 $409 $560 forward @7 unknown #
loop_type-twe-attrib $-1 -1 $-1 $-1 $267 0 #
convexity-sys-attrib $-1 -1 $561 $268 $160 #
point $-1 -1 $-1 -0.55266878364870298 -2.7789999999999999 0.56899999999999995 #
cur-twe-attrib $-1 -1 $-1 $-1 $270 66 #
edge $562 -1 $-1 $422 -0.14433756729740638 $425 0 $271 $563 forward @7 unknown #
edge_name-twe-attrib $-1 -1 $-1 $-1 $272 9 4352 #
vertex $-1 -1 $-1 $272 $564 #
straight-curve $565 -1 $-1 -0.48049999999999998 -2.9039999999999999 0.56899999999999995 0 0 1 I I #
edge_name-twe-attrib $-1 -1 $-1 $-1 $273 20 4352 #
vertex $-1 -1 $-1 $273 $566 #
straight-curve $567 -1 $-1 -0.55266878364870298 -3.0289999999999999 0.56899999999999995 0 0 1 I I #
edge_name-twe-attrib $-1 -1 $-1 $275 $105 5 8704 #
plane-surface $-1 -1 $-1 0.14450000000000002 0 0.15950000000000003 0.86602540378443849 -0.50000000000000033 0 0 0 -1 forward_v I I I I #
coedge $-1 -1 $-1 $568 $569 $302 $451 forward $281 $-1 #
coedge $-1 -1 $-1 $570 $283 $569 $571 reversed $172 $-1 #
coedge $-1 -1 $-1 $283 $570 $284 $435 forward $172 $-1 #
coedge $-1 -1 $-1 $286 $302 $283 $433 reversed $184 $-1 #
edge $-1 -1 $-1 $436 -0.10849682452694553 $572 0.036165608175648511 $283 $573 forward @7 unknown #
coedge $-1 -1 $-1 $285 $284 $574 $575 reversed $110 $-1 #
edge $-1 -1 $-1 $576 0 $436 0.12499999999999994 $431 $577 forward @7 unknown #
vertex $-1 -1 $-1 $435 $578 #
straight-curve $-1 -1 $-1 -0.090353108175648608 0.093785167711712927 0.28449999999999992 0.50000000000000033 0.86602540378443849 0 I I #
coedge $-1 -1 $-1 $574 $292 $288 $439 forward $444 $-1 #
edge $579 -1 $-1 $295 -0.10821256729740629 $440 0.036125000000000011 $288 $580 forward @7 unknown #
vertex $-1 -1 $-1 $439 $581 #
straight-curve $-1 -1 $-1 -0.14449999999999996 0 0.15950000000000003 0 0 1 I I #
point $-1 -1 $-1 -0.14449999999999996 0 0.28449999999999998 #
coedge $-1 -1 $-1 $292 $582 $297 $449 forward $444 $-1 #
loop $-1 -1 $-1 $-1 $443 $454 #
convexity-sys-attrib $-1 -1 $-1 $-1 $293 #
straight-curve $-1 -1 $-1 -0.036165608175648511 -0.125 0.15949999999999998 -1 0 0 I I #
point $-1 -1 $-1 -0.072331216351297023 -0.125 0.15950000000000003 #
coedge $-1 -1 $-1 $298 $297 $568 $583 forward $299 $-1 #
edge $584 -1 $-1 $585 -0.10829378364870319 $300 0.036043783648703136 $297 $586 forward @7 unknown #
point $-1 -1 $-1 0.072331216351297023 -0.125 0.15950000000000003 #
edge $-1 -1 $-1 $572 -0.1082125672974063 $452 0.036125000000000032 $429 $587 forward @7 unknown #
vertex $-1 -1 $-1 $583 $588 #
straight-curve $-1 -1 $-1 0.090353108175648608 -0.093785167711712927 0.28449999999999992 -0.50000000000000033 -0.86602540378443849 0 I I #
face $-1 -1 $-1 $-1 $444 $24 $-1 $589 reversed single #
plane-surface $-1 -1 $-1 1.6504895628541246e-017 1.0408340855860843e-017 0.28449999999999992 -6.4756635973387681e-032 9.4474359906707946e-032 1 1 0 6.4756635973387681e-032 forward_v I I I I #
plane-surface $-1 -1 $-1 0.21850000000000003 0 0 -1 0 0 0 0 1 forward_v I I I I #
coedge $-1 -1 $-1 $312 $310 $314 $461 reversed $189 $-1 #
edge $-1 -1 $-1 $325 -0.28449999999999998 $463 0.28449999999999998 $324 $590 forward @7 unknown #
vertex $-1 -1 $-1 $461 $591 #
straight-curve $-1 -1 $-1 -0.21850000000000003 -0.21850000000000014 0 0 0 -1 I I #
edge $-1 -1 $-1 $459 -0.21850000000000014 $463 0.21850000000000014 $457 $592 forward @7 unknown #
straight-curve $-1 -1 $-1 0 -0.21850000000000014 -0.28449999999999998 -1 0 0 I I #
vertex $-1 -1 $-1 $317 $593 #
straight-curve $-1 -1 $-1 0 0.21850000000000014 -0.28449999999999998 1 0 0 I I #
point $-1 -1 $-1 0.21850000000000003 0.21850000000000014 -0.28449999999999998 #
point $-1 -1 $-1 0.21850000000000003 -0.21850000000000014 -0.28449999999999998 #
straight-curve $-1 -1 $-1 -0.21850000000000003 0 0.28449999999999998 0 -1 0 I I #
point $-1 -1 $-1 -0.21850000000000003 0.21850000000000014 0.28449999999999998 #
point $-1 -1 $-1 -0.21850000000000003 -0.21850000000000014 0.28449999999999998 #
straight-curve $-1 -1 $-1 0.21850000000000003 -0.21850000000000014 0 0 0 -1 I I #
straight-curve $-1 -1 $-1 0.21850000000000003 0.21850000000000014 0 0 0 -1 I I #
face $-1 -1 $-1 $594 $595 $27 $-1 $596 reversed single #
plane-surface $-1 -1 $-1 0 0.21850000000000014 0 0 -1 0 0 0 -1 forward_v I I I I #
coedge $-1 -1 $-1 $499 $504 $214 $350 reversed $335 $-1 #
coedge $-1 -1 $-1 $597 $337 $210 $344 forward $208 $-1 #
coedge $-1 -1 $-1 $337 $597 $598 $480 reversed $208 $-1 #
coedge $-1 -1 $-1 $599 $600 $337 $478 forward $601 $-1 #
edge $-1 -1 $-1 $492 -3.1415926535897931 $485 -1.5707963267948966 $477 $355 forward @7 unknown #
coedge $-1 -1 $-1 $339 $338 $602 $603 reversed $126 $-1 #
edge $-1 -1 $-1 $485 -0.56899999999999995 $604 0 $598 $605 forward @7 unknown #
coedge $-1 -1 $-1 $606 $607 $474 $350 forward $608 $-1 #
coedge $-1 -1 $-1 $483 $340 $607 $502 forward $484 $-1 #
coedge $-1 -1 $-1 $340 $482 $609 $610 forward $484 $-1 #
loop $-1 -1 $-1 $-1 $340 $611 #
vertex $-1 -1 $-1 $612 $613 #
coedge $-1 -1 $-1 $614 $515 $342 $487 forward $615 $-1 #
edge $-1 -1 $-1 $223 1.5707963267948966 $492 3.1415926535897931 $486 $355 forward @7 unknown #
coedge $-1 -1 $-1 $616 $343 $346 $494 reversed $491 $-1 #
coedge $-1 -1 $-1 $343 $616 $614 $617 reversed $491 $-1 #
coedge $-1 -1 $-1 $618 $619 $475 $344 reversed $595 $-1 #
loop $-1 -1 $-1 $-1 $343 $620 #
vertex $-1 -1 $-1 $617 $621 #
straight-curve $-1 -1 $-1 -0.21850000000000003 0 0.28449999999999998 0 0 1 I I #
edge $-1 -1 $-1 $518 -0.21850000000000014 $348 0 $488 $622 forward @7 unknown #
face $-1 -1 $-1 $506 $347 $27 $-1 $623 forward single #
edge $-1 -1 $-1 $348 0 $624 0.21850000000000014 $619 $622 forward @7 unknown #
point $-1 -1 $-1 -0.21850000000000003 0 0.28449999999999998 #
straight-curve $-1 -1 $-1 0.21850000000000003 0 0.28449999999999998 0 0 1 I I #
coedge $-1 -1 $-1 $508 $474 $352 $500 reversed $335 $-1 #
edge $-1 -1 $-1 $512 -0.21850000000000014 $354 0 $499 $625 forward @7 unknown #
face $-1 -1 $-1 $626 $353 $27 $-1 $627 reversed single #
edge $-1 -1 $-1 $354 0 $628 0.21850000000000014 $607 $625 forward @7 unknown #
point $-1 -1 $-1 0.21850000000000003 0 -0.28449999999999998 #
coedge $-1 -1 $-1 $474 $508 $356 $505 reversed $335 $-1 #
edge $-1 -1 $-1 $359 0 $510 0.21850000000000014 $504 $629 forward @7 unknown #
face $-1 -1 $-1 $630 $358 $27 $-1 $623 forward single #
point $-1 -1 $-1 0.21850000000000003 0 0.28449999999999998 #
coedge $-1 -1 $-1 $504 $499 $360 $509 reversed $335 $-1 #
edge $-1 -1 $-1 $510 -0.28449999999999998 $512 0.28449999999999998 $508 $631 forward @7 unknown #
vertex $-1 -1 $-1 $505 $632 #
straight-curve $-1 -1 $-1 0 0.21850000000000014 0.28449999999999998 -1 0 0 I I #
vertex $-1 -1 $-1 $500 $633 #
straight-curve $-1 -1 $-1 0 0.21850000000000014 -0.28449999999999998 1 0 0 I I #
coedge $-1 -1 $-1 $364 $363 $616 $634 reversed $365 $-1 #
coedge $-1 -1 $-1 $486 $614 $363 $516 forward $615 $-1 #
edge $-1 -1 $-1 $635 -0.21850000000000003 $223 0 $363 $513 forward @7 unknown #
face $-1 -1 $-1 $-1 $608 $27 $-1 $336 reversed single #
vertex $-1 -1 $-1 $368 $636 #
convexity-sys-attrib $-1 -1 $-1 $-1 $372 #
vertex $-1 -1 $-1 $372 $637 #
ellipse-curve $-1 -1 $-1 0 0 0.097500000000000031 0 0 1 0.2185 0 0 1 I I #
point $-1 -1 $-1 -0.2185 -2.6757648831018943e-017 -0.28449999999999998 #
point $-1 -1 $-1 0.093500000000000028 0 0.097500000000000031 #
face_name-twe-attrib $-1 -1 $-1 $380 $238 7 #
model_id-kcp-attrib $-1 -1 $638 $-1 $381 1 1021392647 1021392647 1520435201 9 #
face $639 -1 $-1 $640 $410 $9 $-1 $641 reversed single #
plane-surface $642 -1 $-1 -0.48049999999999998 -2.9039999999999999 0.56899999999999995 0.86602540378443849 0.50000000000000033 0 0 0 -1 forward_v I I I I #
surf-twe-attrib $-1 -1 $-1 $-1 $382 77 #
coedge $-1 -1 $-1 $643 $384 $414 $557 reversed $239 $-1 #
coedge $-1 -1 $-1 $384 $644 $401 $544 reversed $239 $-1 #
edge_name-twe-attrib $-1 -1 $-1 $389 $151 4 4608 #
coedge $-1 -1 $-1 $645 $393 $396 $538 reversed $534 $-1 #
coedge $-1 -1 $-1 $393 $645 $408 $552 forward $534 $-1 #
loop $646 -1 $-1 $-1 $393 $640 #
attrib_edge_convexity-kcp-attrib $-1 -1 $647 $-1 $394 1 #
straight-curve $648 -1 $-1 -0.69733121635129702 -2.7789999999999999 0.56899999999999995 0.499999999999999 0.86602540378443904 0 I I #
coedge $-1 -1 $-1 $396 $395 $644 $649 forward $397 $-1 #
edge $650 -1 $-1 $651 -0.12499999999999994 $399 0 $396 $652 forward @7 unknown #
loop_type-twe-attrib $-1 -1 $-1 $-1 $397 0 #
face $653 -1 $-1 $404 $397 $9 $-1 $654 reversed single #
convexity-sys-attrib $-1 -1 $655 $398 $256 #
point $-1 -1 $-1 -0.76949999999999996 -2.9039999999999999 0.56899999999999995 #
cur-twe-attrib $-1 -1 $-1 $-1 $400 94 #
edge $656 -1 $-1 $425 -0.14466243270259405 $546 0 $401 $657 forward @7 unknown #
edge_name-twe-attrib $-1 -1 $-1 $-1 $402 22 4352 #
vertex $-1 -1 $-1 $402 $658 #
straight-curve $659 -1 $-1 -0.69733121635129702 -3.0289999999999999 0.56899999999999995 0 0 1 I I #
model_id-kcp-attrib $-1 -1 $660 $-1 $404 1 1021392647 1021392647 1520435201 13 #
plane-surface $661 -1 $-1 -0.69733121635129702 -3.0289999999999999 0.56899999999999995 0 -1 0 0 0 -1 forward_v I I I I #
edge_name-twe-attrib $-1 -1 $-1 $405 $157 19 8704 #
coedge $-1 -1 $-1 $409 $408 $643 $662 forward $410 $-1 #
edge $663 -1 $-1 $664 -0.12499999999999994 $412 0 $533 $665 forward @7 unknown #
loop_type-twe-attrib $-1 -1 $-1 $-1 $410 0 #
convexity-sys-attrib $-1 -1 $666 $411 $264 #
point $-1 -1 $-1 -0.69733121635129702 -2.7789999999999999 0.56899999999999995 #
cur-twe-attrib $-1 -1 $-1 $-1 $413 102 #
edge $667 -1 $-1 $559 -0.14433756729740638 $422 0 $414 $668 forward @7 unknown #
edge_name-twe-attrib $-1 -1 $-1 $-1 $415 12 4352 #
vertex $-1 -1 $-1 $415 $669 #
straight-curve $670 -1 $-1 -0.55266878364870298 -2.7789999999999999 0.56899999999999995 0 0 1 I I #
edge_name-twe-attrib $-1 -1 $-1 $417 $160 7 8704 #
attrib_edge_convexity-kcp-attrib $-1 -1 $671 $-1 $420 2 #
straight-curve $672 -1 $-1 -0.55266878364870298 -3.0289999999999999 0.44400000000000001 -0.499999999999999 -0.86602540378443904 0 I I #
point $-1 -1 $-1 -0.48049999999999998 -2.9039999999999999 0.44400000000000001 #
cur-twe-attrib $-1 -1 $-1 $-1 $423 110 #
point $-1 -1 $-1 -0.55266878364870298 -3.0289999999999999 0.44400000000000001 #
cur-twe-attrib $-1 -1 $-1 $-1 $426 111 #
coedge $-1 -1 $-1 $673 $429 $448 $583 reversed $281 $-1 #
coedge $-1 -1 $-1 $429 $673 $430 $571 forward $281 $-1 #
coedge $-1 -1 $-1 $431 $430 $674 $675 reversed $172 $-1 #
edge $-1 -1 $-1 $676 0 $572 0.12499999999999994 $569 $677 forward @7 unknown #
vertex $-1 -1 $-1 $571 $678 #
straight-curve $-1 -1 $-1 0.036165608175648511 0.125 0.28449999999999992 1 0 0 I I #
coedge $-1 -1 $-1 $674 $438 $434 $575 forward $444 $-1 #
edge $679 -1 $-1 $440 -0.10829378364870317 $576 0.036043783648703136 $434 $680 forward @7 unknown #
vertex $-1 -1 $-1 $575 $681 #
straight-curve $-1 -1 $-1 -0.072331216351297023 0.125 0.15950000000000003 0 0 1 I I #
point $-1 -1 $-1 -0.072331216351297023 0.125 0.28449999999999998 #
convexity-sys-attrib $-1 -1 $-1 $-1 $439 #
straight-curve $-1 -1 $-1 -0.12643749999999995 -0.031285167711712851 0.15949999999999998 -0.50000000000000033 0.86602540378443849 0 I I #
point $-1 -1 $-1 -0.14449999999999996 0 0.15950000000000003 #
coedge $-1 -1 $-1 $443 $674 $673 $682 forward $444 $-1 #
edge $-1 -1 $-1 $585 0 $452 0.12499999999999994 $448 $683 forward @7 unknown #
convexity-sys-attrib $-1 -1 $-1 $-1 $449 #
vertex $-1 -1 $-1 $449 $684 #
straight-curve $-1 -1 $-1 0.090353108175648608 -0.093785167711712927 0.15949999999999998 -0.50000000000000033 -0.86602540378443849 0 I I #
straight-curve $-1 -1 $-1 0.12643749999999998 0.031285167711712865 0.28449999999999992 0.50000000000000033 -0.86602540378443849 0 I I #
point $-1 -1 $-1 0.14450000000000002 0 0.28449999999999998 #
plane-surface $-1 -1 $-1 1.6504895628541246e-017 1.0408340855860843e-017 0.15949999999999998 -6.4756635973387681e-032 9.4474359906707946e-032 1 1 0 6.4756635973387681e-032 forward_v I I I I #
straight-curve $-1 -1 $-1 -0.21850000000000003 0.21850000000000014 0 0 0 -1 I I #
point $-1 -1 $-1 -0.21850000000000003 -0.21850000000000014 -0.28449999999999998 #
straight-curve $-1 -1 $-1 -0.21850000000000003 0 -0.28449999999999998 0 1 0 I I #
point $-1 -1 $-1 -0.21850000000000003 0.21850000000000014 -0.28449999999999998 #
face $-1 -1 $-1 $495 $685 $27 $-1 $623 forward single #
loop $-1 -1 $-1 $-1 $490 $472 #
plane-surface $-1 -1 $-1 -0.21850000000000003 0 0 1 0 0 0 0 -1 forward_v I I I I #
coedge $-1 -1 $-1 $476 $475 $686 $687 reversed $208 $-1 #
coedge $-1 -1 $-1 $688 $689 $690 $480 forward $691 $-1 #
coedge $-1 -1 $-1 $600 $477 $689 $612 forward $601 $-1 #
coedge $-1 -1 $-1 $477 $599 $618 $692 forward $601 $-1 #
loop $-1 -1 $-1 $-1 $477 $693 #
coedge $-1 -1 $-1 $694 $695 $479 $603 forward $696 $-1 #
edge $-1 -1 $-1 $359 0 $604 1.5707963267948966 $602 $349 forward @7 unknown #
vertex $-1 -1 $-1 $697 $698 #
straight-curve $-1 -1 $-1 0 -0.21850000000000014 0.28449999999999998 0 0 1 I I #
coedge $-1 -1 $-1 $699 $481 $695 $700 reversed $608 $-1 #
coedge $-1 -1 $-1 $481 $699 $482 $502 reversed $608 $-1 #
loop $-1 -1 $-1 $-1 $481 $517 #
coedge $-1 -1 $-1 $701 $690 $483 $610 reversed $702 $-1 #
edge $-1 -1 $-1 $628 -0.21850000000000003 $485 0 $609 $703 forward @7 unknown #
face $-1 -1 $-1 $501 $484 $27 $-1 $627 reversed single #
edge $-1 -1 $-1 $485 0 $704 0.21850000000000003 $689 $703 forward @7 unknown #
point $-1 -1 $-1 0 -0.21850000000000014 -0.28449999999999998 #
coedge $-1 -1 $-1 $515 $486 $489 $617 forward $615 $-1 #
loop $-1 -1 $-1 $-1 $486 $626 #
coedge $-1 -1 $-1 $489 $488 $514 $634 forward $491 $-1 #
edge $-1 -1 $-1 $492 0 $635 0.21850000000000014 $489 $705 forward @7 unknown #
coedge $-1 -1 $-1 $706 $490 $600 $692 reversed $595 $-1 #
coedge $-1 -1 $-1 $490 $706 $707 $496 reversed $595 $-1 #
face $-1 -1 $-1 $366 $491 $27 $-1 $596 reversed single #
point $-1 -1 $-1 -0.21850000000000003 0 -0.28449999999999998 #
straight-curve $-1 -1 $-1 -0.21850000000000003 0 0.28449999999999998 0 -1 0 I I #
plane-surface $-1 -1 $-1 0 0 0.28449999999999998 0 0 1 1 0 0 forward_v I I I I #
vertex $-1 -1 $-1 $496 $708 #
straight-curve $-1 -1 $-1 0.21850000000000003 0 -0.28449999999999998 0 -1 0 I I #
face $-1 -1 $-1 $709 $615 $27 $-1 $627 reversed single #
plane-surface $-1 -1 $-1 0 0 -0.28449999999999998 0 0 1 1 0 0 forward_v I I I I #
vertex $-1 -1 $-1 $710 $711 #
straight-curve $-1 -1 $-1 0.21850000000000003 0 0.28449999999999998 0 1 0 I I #
face $-1 -1 $-1 $712 $696 $27 $-1 $623 forward single #
straight-curve $-1 -1 $-1 0.21850000000000003 0.21850000000000014 0 0 0 -1 I I #
point $-1 -1 $-1 0.21850000000000003 0.21850000000000014 0.28449999999999998 #
point $-1 -1 $-1 0.21850000000000003 0.21850000000000014 -0.28449999999999998 #
edge $-1 -1 $-1 $518 -0.28449999999999998 $635 0.28449999999999998 $514 $713 forward @7 unknown #
vertex $-1 -1 $-1 $516 $714 #
point $-1 -1 $-1 -0.21850000000000003 0.21850000000000014 0.28449999999999998 #
point $-1 -1 $-1 -0.2185 -2.6757648831018943e-017 0.097500000000000031 #
face_name-twe-attrib $-1 -1 $-1 $525 $381 8 #
model_id-kcp-attrib $-1 -1 $715 $-1 $526 1 1021392647 1021392647 1520435201 10 #
face $716 -1 $-1 $540 $534 $9 $-1 $717 reversed single #
plane-surface $718 -1 $-1 -0.55266878364870298 -2.7789999999999999 0.56899999999999995 0 1 0 0 0 1 forward_v I I I I #
surf-twe-attrib $-1 -1 $-1 $-1 $527 117 #
coedge $-1 -1 $-1 $719 $529 $551 $662 reversed $239 $-1 #
coedge $-1 -1 $-1 $530 $719 $537 $649 reversed $239 $-1 #
coedge $-1 -1 $-1 $533 $532 $719 $720 forward $534 $-1 #
loop_type-twe-attrib $-1 -1 $-1 $-1 $534 0 #
convexity-sys-attrib $-1 -1 $721 $535 $394 #
cur-twe-attrib $-1 -1 $-1 $-1 $536 128 #
edge $722 -1 $-1 $546 -0.14433756729740635 $651 0 $537 $723 forward @7 unknown #
edge_name-twe-attrib $-1 -1 $-1 $-1 $538 18 4352 #
vertex $-1 -1 $-1 $538 $724 #
straight-curve $725 -1 $-1 -0.76949999999999996 -2.9039999999999999 0.56899999999999995 0 0 1 I I #
model_id-kcp-attrib $-1 -1 $726 $-1 $540 1 1021392647 1021392647 1520435201 12 #
plane-surface $727 -1 $-1 -0.76949999999999996 -2.9039999999999999 0.56899999999999995 -0.86602540378443849 -0.50000000000000033 0 0 0 1 forward_v I I I I #
edge_name-twe-attrib $-1 -1 $-1 $541 $256 16 8704 #
attrib_edge_convexity-kcp-attrib $-1 -1 $728 $-1 $544 2 #
straight-curve $729 -1 $-1 -0.69733121635129702 -3.0289999999999999 0.44400000000000001 -1 0 0 I I #
point $-1 -1 $-1 -0.69733121635129702 -3.0289999999999999 0.44400000000000001 #
cur-twe-attrib $-1 -1 $-1 $-1 $547 136 #
face_name-twe-attrib $-1 -1 $-1 $548 $404 12 #
surf-twe-attrib $-1 -1 $-1 $-1 $549 138 #
edge $730 -1 $-1 $664 -0.14466243270259405 $559 0 $551 $731 forward @7 unknown #
edge_name-twe-attrib $-1 -1 $-1 $-1 $552 15 4352 #
vertex $-1 -1 $-1 $552 $732 #
straight-curve $733 -1 $-1 -0.69733121635129702 -2.7789999999999999 0.56899999999999995 0 0 1 I I #
edge_name-twe-attrib $-1 -1 $-1 $554 $264 10 8704 #
attrib_edge_convexity-kcp-attrib $-1 -1 $734 $-1 $557 2 #
straight-curve $735 -1 $-1 -0.48049999999999998 -2.9039999999999999 0.44400000000000001 0.499999999999999 -0.86602540378443904 0 I I #
point $-1 -1 $-1 -0.55266878364870298 -2.7789999999999999 0.44400000000000001 #
cur-twe-attrib $-1 -1 $-1 $-1 $560 148 #
convexity-sys-attrib $-1 -1 $736 $562 $420 #
cur-twe-attrib $-1 -1 $-1 $-1 $563 152 #
coedge $-1 -1 $-1 $569 $568 $582 $682 reversed $281 $-1 #
coedge $-1 -1 $-1 $582 $574 $570 $675 forward $444 $-1 #
edge $737 -1 $-1 $576 -0.10849682452694553 $676 0.036165608175648511 $570 $738 forward @7 unknown #
vertex $-1 -1 $-1 $675 $739 #
straight-curve $-1 -1 $-1 0.072331216351297023 0.125 0.15950000000000003 0 0 1 I I #
point $-1 -1 $-1 0.072331216351297023 0.125 0.28449999999999998 #
convexity-sys-attrib $-1 -1 $-1 $-1 $575 #
straight-curve $-1 -1 $-1 -0.090353108175648608 0.093785167711712927 0.15949999999999998 0.50000000000000033 0.86602540378443849 0 I I #
point $-1 -1 $-1 -0.072331216351297023 0.125 0.15950000000000003 #
edge $740 -1 $-1 $676 -0.1082125672974063 $585 0.036125000000000032 $673 $741 forward @7 unknown #
straight-curve $-1 -1 $-1 0.14450000000000002 0 0.15950000000000003 0 0 1 I I #
point $-1 -1 $-1 0.14450000000000002 0 0.15950000000000003 #
loop $-1 -1 $-1 $-1 $686 $594 #
coedge $-1 -1 $-1 $707 $742 $597 $687 forward $685 $-1 #
edge $-1 -1 $-1 $604 1.5707963267948966 $348 3.1415926535897931 $686 $349 forward @7 unknown #
coedge $-1 -1 $-1 $743 $598 $742 $744 reversed $691 $-1 #
coedge $-1 -1 $-1 $598 $743 $599 $612 reversed $691 $-1 #
coedge $-1 -1 $-1 $609 $745 $338 $480 reversed $702 $-1 #
loop $-1 -1 $-1 $-1 $598 $709 #
edge $-1 -1 $-1 $704 -0.21850000000000014 $492 0 $618 $705 forward @7 unknown #
face $-1 -1 $-1 $611 $601 $27 $-1 $627 reversed single #
coedge $-1 -1 $-1 $695 $602 $745 $697 forward $696 $-1 #
coedge $-1 -1 $-1 $602 $694 $606 $700 forward $696 $-1 #
loop $-1 -1 $-1 $-1 $602 $630 #
edge $-1 -1 $-1 $604 0 $746 0.21850000000000003 $745 $747 forward @7 unknown #
point $-1 -1 $-1 0 -0.21850000000000014 0.28449999999999998 #
coedge $-1 -1 $-1 $607 $606 $701 $710 forward $608 $-1 #
edge $-1 -1 $-1 $746 -0.21850000000000014 $359 0 $606 $629 forward @7 unknown #
coedge $-1 -1 $-1 $745 $609 $699 $710 reversed $702 $-1 #
loop $-1 -1 $-1 $-1 $690 $712 #
straight-curve $-1 -1 $-1 0 -0.21850000000000014 -0.28449999999999998 -1 0 0 I I #
vertex $-1 -1 $-1 $692 $748 #
straight-curve $-1 -1 $-1 -0.21850000000000003 0 -0.28449999999999998 0 1 0 I I #
coedge $-1 -1 $-1 $619 $618 $743 $749 reversed $595 $-1 #
coedge $-1 -1 $-1 $742 $686 $619 $496 forward $685 $-1 #
point $-1 -1 $-1 -0.21850000000000003 -0.21850000000000014 0.28449999999999998 #
face $-1 -1 $-1 $620 $691 $27 $-1 $750 reversed single #
edge $-1 -1 $-1 $746 -0.28449999999999998 $628 0.28449999999999998 $699 $751 forward @7 unknown #
point $-1 -1 $-1 0.21850000000000003 -0.21850000000000014 -0.28449999999999998 #
face $-1 -1 $-1 $693 $702 $27 $-1 $750 reversed single #
straight-curve $-1 -1 $-1 -0.21850000000000003 0.21850000000000014 0 0 0 -1 I I #
point $-1 -1 $-1 -0.21850000000000003 0.21850000000000014 -0.28449999999999998 #
face_name-twe-attrib $-1 -1 $-1 $639 $526 9 #
model_id-kcp-attrib $-1 -1 $752 $-1 $640 1 1021392647 1021392647 1520435201 11 #
plane-surface $753 -1 $-1 -0.69733121635129702 -2.7789999999999999 0.56899999999999995 -0.86602540378443849 0.50000000000000033 0 0 0 1 forward_v I I I I #
surf-twe-attrib $-1 -1 $-1 $-1 $641 160 #
coedge $-1 -1 $-1 $644 $643 $645 $720 reversed $239 $-1 #
edge $754 -1 $-1 $651 -0.14433756729740635 $664 0 $645 $755 forward @7 unknown #
edge_name-twe-attrib $-1 -1 $-1 $647 $394 13 8704 #
attrib_edge_convexity-kcp-attrib $-1 -1 $756 $-1 $649 2 #
straight-curve $757 -1 $-1 -0.76949999999999996 -2.9039999999999999 0.44400000000000001 -0.499999999999999 0.86602540378443904 0 I I #
point $-1 -1 $-1 -0.76949999999999996 -2.9039999999999999 0.44400000000000001 #
cur-twe-attrib $-1 -1 $-1 $-1 $652 171 #
face_name-twe-attrib $-1 -1 $-1 $653 $540 11 #
surf-twe-attrib $-1 -1 $-1 $-1 $654 173 #
convexity-sys-attrib $-1 -1 $758 $656 $544 #
cur-twe-attrib $-1 -1 $-1 $-1 $657 176 #
attrib_edge_convexity-kcp-attrib $-1 -1 $759 $-1 $662 2 #
straight-curve $760 -1 $-1 -0.55266878364870298 -2.7789999999999999 0.44400000000000001 1 0 0 I I #
point $-1 -1 $-1 -0.69733121635129702 -2.7789999999999999 0.44400000000000001 #
cur-twe-attrib $-1 -1 $-1 $-1 $665 183 #
convexity-sys-attrib $-1 -1 $761 $667 $557 #
cur-twe-attrib $-1 -1 $-1 $-1 $668 187 #
edge_name-twe-attrib $-1 -1 $-1 $671 $420 6 4608 #
convexity-sys-attrib $-1 -1 $-1 $-1 $675 #
straight-curve $-1 -1 $-1 0.036165608175648511 0.125 0.15949999999999998 1 0 0 I I #
point $-1 -1 $-1 0.072331216351297023 0.125 0.15950000000000003 #
convexity-sys-attrib $-1 -1 $-1 $-1 $682 #
straight-curve $-1 -1 $-1 0.12643749999999998 0.031285167711712865 0.15949999999999998 0.50000000000000033 -0.86602540378443849 0 I I #
coedge $-1 -1 $-1 $686 $707 $688 $744 forward $685 $-1 #
coedge $-1 -1 $-1 $689 $688 $706 $749 forward $691 $-1 #
edge $-1 -1 $-1 $624 -0.21850000000000003 $604 0 $688 $747 forward @7 unknown #
coedge $-1 -1 $-1 $690 $701 $694 $697 reversed $702 $-1 #
vertex $-1 -1 $-1 $700 $762 #
straight-curve $-1 -1 $-1 0 -0.21850000000000014 0.28449999999999998 1 0 0 I I #
point $-1 -1 $-1 -0.21850000000000003 -0.21850000000000014 -0.28449999999999998 #
edge $-1 -1 $-1 $624 -0.28449999999999998 $704 0.28449999999999998 $706 $763 forward @7 unknown #
plane-surface $-1 -1 $-1 0 -0.21850000000000014 0 0 1 0 0 0 1 forward_v I I I I #
straight-curve $-1 -1 $-1 0.21850000000000003 -0.21850000000000014 0 0 0 -1 I I #
face_name-twe-attrib $-1 -1 $-1 $716 $640 10 #
surf-twe-attrib $-1 -1 $-1 $-1 $717 198 #
attrib_edge_convexity-kcp-attrib $-1 -1 $764 $-1 $720 2 #
straight-curve $765 -1 $-1 -0.69733121635129702 -2.7789999999999999 0.44400000000000001 0.499999999999999 0.86602540378443904 0 I I #
convexity-sys-attrib $-1 -1 $766 $722 $649 #
cur-twe-attrib $-1 -1 $-1 $-1 $723 206 #
edge_name-twe-attrib $-1 -1 $-1 $728 $544 21 4608 #
convexity-sys-attrib $-1 -1 $767 $730 $662 #
cur-twe-attrib $-1 -1 $-1 $-1 $731 217 #
edge_name-twe-attrib $-1 -1 $-1 $734 $557 8 4608 #
point $-1 -1 $-1 0.21850000000000003 -0.21850000000000014 0.28449999999999998 #
straight-curve $-1 -1 $-1 -0.21850000000000003 -0.21850000000000014 0 0 0 -1 I I #
convexity-sys-attrib $-1 -1 $768 $754 $720 #
cur-twe-attrib $-1 -1 $-1 $-1 $755 230 #
edge_name-twe-attrib $-1 -1 $-1 $756 $649 17 4608 #
edge_name-twe-attrib $-1 -1 $-1 $759 $662 11 4608 #
edge_name-twe-attrib $-1 -1 $-1 $764 $720 14 4608 #
End-of-ACIS-data 