600 0 1 0           
89 GICL ACIS Healer - Source: /gicl/data5/repository/UMD/pathological/pathological.sat - 6 0 18 ACIS 6.0.3 Solaris 24 Sun Apr 14 00:35:42 2002 
1 9.999999999999999547e-07 1.000000000000000036e-10 
body $-1 $1 $-1 $-1 #
lump $-1 $-1 $2 $0 #
shell $-1 $-1 $-1 $3 $-1 $1 #
face $-1 $4 $5 $2 $-1 $6 reversed single #
face $-1 $7 $8 $2 $-1 $9 reversed single #
loop $-1 $-1 $10 $3 #
plane-surface $-1 25 0 0 -1 0 0 0 -0 1 forward_v I I I I #
face $-1 $11 $12 $2 $-1 $13 reversed single #
loop $-1 $-1 $14 $4 #
plane-surface $-1 0 25 0 0 -1 0 0 0 -1 forward_v I I I I #
coedge $-1 $15 $16 $17 $18 reversed $5 $-1 #
face $-1 $19 $20 $2 $-1 $21 reversed single #
loop $-1 $-1 $22 $7 #
plane-surface $-1 -25 0 0 1 0 0 0 0 -1 forward_v I I I I #
coedge $-1 $23 $24 $25 $26 reversed $8 $-1 #
coedge $-1 $27 $10 $28 $29 forward $5 $-1 #
coedge $-1 $10 $27 $23 $30 reversed $5 $-1 #
coedge $-1 $25 $31 $10 $18 forward $32 $-1 #
edge $-1 $33 -25 $34 25 $10 $35 forward 7 unknown #
face $-1 $36 $37 $2 $-1 $38 reversed single #
loop $-1 $-1 $39 $11 #
plane-surface $-1 0 -25 0 0 1 -0 -0 0 1 forward_v I I I I #
coedge $-1 $40 $41 $42 $43 reversed $12 $-1 #
coedge $-1 $44 $14 $16 $30 forward $8 $-1 #
coedge $-1 $14 $44 $40 $45 reversed $8 $-1 #
coedge $-1 $42 $17 $14 $26 forward $32 $-1 #
edge $-1 $34 -25 $46 25 $14 $47 forward 7 unknown #
coedge $-1 $16 $15 $48 $49 reversed $5 $-1 #
coedge $-1 $39 $50 $15 $29 reversed $20 $-1 #
edge $-1 $33 -5 $51 5 $15 $52 forward 7 unknown #
edge $-1 $34 -5 $53 5 $16 $54 forward 7 unknown #
coedge $-1 $17 $42 $39 $55 forward $32 $-1 #
loop $-1 $-1 $17 $56 #
vertex $-1 $18 $57 #
vertex $-1 $18 $58 #
straight-curve $-1 25 0 5 0 1 0 I I #
face $-1 $59 $60 $2 $-1 $61 reversed single #
loop $-1 $-1 $62 $19 #
cone-surface $-1 -9 9 0 0 0 1 10 0 0 1 I I 0 1 10 forward I I I I #
coedge $-1 $63 $28 $31 $55 reversed $20 $-1 #
coedge $-1 $64 $22 $24 $45 forward $12 $-1 #
coedge $-1 $22 $64 $63 $65 reversed $12 $-1 #
coedge $-1 $31 $25 $22 $43 forward $32 $-1 #
edge $-1 $46 -25 $66 25 $22 $67 forward 7 unknown #
coedge $-1 $24 $23 $68 $69 reversed $8 $-1 #
edge $-1 $46 -5 $70 5 $24 $71 forward 7 unknown #
vertex $-1 $26 $72 #
straight-curve $-1 0 25 5 -1 0 0 I I #
coedge $-1 $73 $68 $27 $49 forward $74 $-1 #
edge $-1 $53 -25 $51 25 $27 $75 forward 7 unknown #
coedge $-1 $28 $63 $73 $76 reversed $20 $-1 #
vertex $-1 $29 $77 #
straight-curve $-1 25 -25 0 0 0 -1 I I #
vertex $-1 $49 $78 #
straight-curve $-1 25 25 0 0 0 -1 I I #
edge $-1 $66 -25 $33 25 $39 $79 forward 7 unknown #
face $-1 $80 $81 $2 $-1 $82 forward single #
point $-1 25 -25 5 #
point $-1 25 25 5 #
face $-1 $83 $84 $2 $-1 $85 reversed single #
loop $-1 $74 $86 $36 #
plane-surface $-1 0 0 -5 0 0 1 1 0 0 forward_v I I I I #
coedge $-1 $87 $88 $89 $90 reversed $37 $-1 #
coedge $-1 $50 $39 $41 $65 forward $20 $-1 #
coedge $-1 $41 $40 $91 $92 reversed $12 $-1 #
edge $-1 $66 -5 $93 5 $41 $94 forward 7 unknown #
vertex $-1 $43 $95 #
straight-curve $-1 -25 0 5 0 -1 0 I I #
coedge $-1 $48 $91 $44 $69 forward $74 $-1 #
edge $-1 $70 -25 $53 25 $44 $96 forward 7 unknown #
vertex $-1 $69 $97 #
straight-curve $-1 -25 25 0 0 0 -1 I I #
point $-1 -25 25 5 #
coedge $-1 $91 $48 $50 $76 forward $74 $-1 #
loop $-1 $-1 $48 $36 #
straight-curve $-1 25 0 -5 0 -1 0 I I #
edge $-1 $51 -25 $93 25 $50 $98 forward 7 unknown #
point $-1 25 -25 -5 #
point $-1 25 25 -5 #
straight-curve $-1 0 -25 5 1 0 0 I I #
face $-1 $-1 $99 $2 $-1 $100 reversed single #
loop $-1 $32 $101 $56 #
plane-surface $-1 0 0 5 0 0 1 1 0 0 forward_v I I I I #
face $-1 $56 $102 $2 $-1 $103 reversed single #
loop $-1 $-1 $104 $59 #
cone-surface $-1 -9 -9 0 0 0 1 10 0 0 1 I I 0 1 10 forward I I I I #
coedge $-1 $105 $106 $107 $108 forward $60 $-1 #
coedge $-1 $109 $62 $110 $111 reversed $37 $-1 #
coedge $-1 $62 $109 $112 $113 reversed $37 $-1 #
coedge $-1 $114 $115 $62 $90 forward $102 $-1 #
edge $-1 $116 -5 $117 5 $89 $118 forward 7 unknown #
coedge $-1 $68 $73 $64 $92 forward $74 $-1 #
edge $-1 $93 -25 $70 25 $64 $119 forward 7 unknown #
vertex $-1 $92 $120 #
straight-curve $-1 -25 -25 0 0 0 -1 I I #
point $-1 -25 -25 5 #
straight-curve $-1 0 25 -5 1 0 0 I I #
point $-1 -25 25 -5 #
straight-curve $-1 0 -25 -5 -1 0 0 I I #
loop $-1 $-1 $121 $80 #
cone-surface $-1 9 -9 0 0 0 1 10 0 0 1 I I 0 1 10 forward I I I I #
coedge $-1 $122 $123 $124 $125 forward $81 $-1 #
loop $-1 $-1 $126 $83 #
cone-surface $-1 9 9 0 0 0 1 10 0 0 1 I I 0 1 10 forward I I I I #
coedge $-1 $127 $128 $129 $130 forward $84 $-1 #
coedge $-1 $131 $86 $132 $133 forward $60 $-1 #
coedge $-1 $86 $134 $135 $136 forward $60 $-1 #
coedge $-1 $135 $121 $86 $108 reversed $99 $-1 #
edge $-1 $137 0 $138 1.119769514998631754 $86 $139 forward 7 unknown #
coedge $-1 $88 $87 $140 $141 reversed $37 $-1 #
coedge $-1 $142 $143 $87 $111 forward $81 $-1 #
edge $-1 $144 2.021823138591161584 $116 5.83215849538332165 $110 $145 forward 7 unknown #
coedge $-1 $134 $131 $88 $113 forward $60 $-1 #
edge $-1 $117 0.4510268117962648038 $146 4.261362168588425092 $112 $147 forward 7 unknown #
coedge $-1 $132 $89 $131 $148 reversed $102 $-1 #
coedge $-1 $89 $149 $142 $150 reversed $102 $-1 #
vertex $-1 $90 $151 #
vertex $-1 $90 $152 #
straight-curve $-1 0 13.35889894354069973 0 -0 -0 -1 I I #
straight-curve $-1 -25 0 -5 0 1 0 I I #
point $-1 -25 -25 -5 #
coedge $-1 $107 $124 $126 $153 reversed $99 $-1 #
coedge $-1 $143 $101 $154 $155 forward $81 $-1 #
coedge $-1 $101 $142 $149 $156 forward $81 $-1 #
coedge $-1 $121 $154 $101 $125 reversed $99 $-1 #
edge $-1 $157 -1.119769514998631754 $158 0 $101 $159 forward 7 unknown #
coedge $-1 $149 $132 $121 $153 forward $102 $-1 #
coedge $-1 $140 $104 $134 $160 reversed $84 $-1 #
coedge $-1 $104 $140 $143 $161 reversed $84 $-1 #
coedge $-1 $154 $135 $104 $130 reversed $99 $-1 #
edge $-1 $162 -5 $163 5 $104 $164 forward 7 unknown #
coedge $-1 $112 $105 $114 $148 forward $60 $-1 #
coedge $-1 $126 $114 $105 $133 reversed $102 $-1 #
edge $-1 $138 -1.119769514998631754 $165 0 $105 $166 forward 7 unknown #
coedge $-1 $106 $112 $127 $160 forward $60 $-1 #
coedge $-1 $129 $107 $106 $136 reversed $99 $-1 #
edge $-1 $163 -2.690565841793528534 $137 0 $106 $139 forward 7 unknown #
vertex $-1 $108 $167 #
vertex $-1 $153 $168 #
ellipse-curve $-1 9 -9 -5 0 0 1 10 0 0 1 I I #
coedge $-1 $128 $127 $109 $141 forward $84 $-1 #
edge $-1 $146 -5 $144 5 $140 $169 forward 7 unknown #
coedge $-1 $123 $110 $115 $150 forward $81 $-1 #
coedge $-1 $110 $122 $128 $161 forward $81 $-1 #
vertex $-1 $111 $170 #
ellipse-curve $-1 -9 9 5 -0 -0 -1 10 0 0 1 I I #
vertex $-1 $113 $171 #
ellipse-curve $-1 -9 9 -5 0 0 1 10 0 0 1 I I #
edge $-1 $165 0 $117 2.690565841793528534 $131 $166 forward 7 unknown #
coedge $-1 $115 $126 $123 $156 reversed $102 $-1 #
edge $-1 $116 -2.690565841793528534 $172 0 $142 $173 forward 7 unknown #
point $-1 0 13.35889894354069973 5 #
point $-1 0 13.35889894354069973 -5 #
edge $-1 $138 -5 $157 5 $126 $174 forward 7 unknown #
coedge $-1 $124 $129 $122 $155 reversed $99 $-1 #
edge $-1 $158 0 $162 2.690565841793528534 $122 $159 forward 7 unknown #
edge $-1 $172 0 $157 1.119769514998631754 $123 $173 forward 7 unknown #
vertex $-1 $125 $175 #
vertex $-1 $125 $176 #
ellipse-curve $-1 9 -9 5 -0 -0 -1 10 0 0 1 I I #
edge $-1 $146 2.021823138591161584 $163 5.83215849538332165 $134 $177 forward 7 unknown #
edge $-1 $162 0.4510268117962648038 $144 4.261362168588425092 $143 $178 forward 7 unknown #
vertex $-1 $155 $179 #
vertex $-1 $130 $180 #
straight-curve $-1 0 -13.35889894354069973 0 -0 -0 -1 I I #
vertex $-1 $133 $181 #
ellipse-curve $-1 9 9 -5 0 0 1 10 0 0 1 I I #
point $-1 19 -9 -5 #
point $-1 13.35889894354069973 0 -5 #
straight-curve $-1 -13.35889894354069973 0 0 0 0 1 I I #
point $-1 -13.35889894354069973 0 5 #
point $-1 -13.35889894354069973 0 -5 #
vertex $-1 $150 $182 #
ellipse-curve $-1 9 9 5 -0 -0 -1 10 0 0 1 I I #
straight-curve $-1 13.35889894354069973 0 0 0 0 1 I I #
point $-1 13.35889894354069973 0 5 #
point $-1 19 -9 5 #
ellipse-curve $-1 -9 -9 -5 0 0 1 10 0 0 1 I I #
ellipse-curve $-1 -9 -9 5 -0 -0 -1 10 0 0 1 I I #
point $-1 0 -13.35889894354069973 5 #
point $-1 0 -13.35889894354069973 -5 #
point $-1 19 9 -5 #
point $-1 19 9 5 #
End-of-ACIS-data 