600 0 2 0           
24 FBMach with ACIS - 6.0.3 13 ACIS 6.0.3 NT 24 Mon Apr 01 00:09:15 2002 
1 9.9999999999999995e-007 1e-010 
body $2 $3 $-1 $4 #
bdycol-kcp $-1 1 2 $5 $6 #
model_id-kcp-attrib $-1 $7 $-1 $0 1 1017637755 80 2102394881 1 #
lump $-1 $-1 $8 $0 #
transform $-1 1 0 0 0 1 0 0 0 1 0 0 0 1 rotate no_reflect no_shear #
body $9 $10 $-1 $11 #
body $12 $13 $-1 $14 #
aggregate_advspl_attribute-aggregate_geombuild_base_attribute-aggregate_body_attribute-attrib_HH-attrib $-1 $15 $2 $0 F #
shell $-1 $-1 $-1 $16 $-1 $3 #
model_id-kcp-attrib $-1 $-1 $-1 $5 1 1017637755 80 2102394882 1 #
lump $-1 $-1 $17 $5 #
transform $-1 1 0 0 0 1 0 0 0 1 0 0 0 1 no_rotate no_reflect no_shear #
rgb_color-st-attrib $-1 $18 $-1 $6 0.5 1 1 #
lump $-1 $-1 $19 $6 #
transform $-1 1 0 0 0 1 0 0 0 1 0 0 0 1 no_rotate no_reflect no_shear #
aggregate_secndry_attribute-aggregate_geombuild_base_attribute-aggregate_body_attribute-attrib_HH-attrib $-1 $20 $7 $0 F #
face $21 $22 $23 $8 $-1 $24 reversed single #
shell $-1 $-1 $-1 $25 $-1 $10 #
model_id-kcp-attrib $-1 $-1 $12 $6 1 1017637755 220 2111569923 1 #
shell $-1 $-1 $-1 $26 $-1 $13 #
aggregate_sharped_attribute-aggregate_geombuild_base_attribute-aggregate_body_attribute-attrib_HH-attrib $-1 $27 $15 $0 F #
model_id-kcp-attrib $-1 $28 $-1 $16 1 1017637755 80 2102394881 2 #
face $29 $30 $31 $8 $-1 $32 reversed single #
loop $-1 $-1 $33 $16 #
plane-surface $-1 25 0 0 -1 0 0 0 0 1 forward_v I I I I #
face $34 $35 $36 $17 $-1 $37 forward single #
face $-1 $38 $39 $19 $-1 $40 forward single #
aggregate_reblend_attribute-aggregate_geombuild_base_attribute-aggregate_body_attribute-attrib_HH-attrib $-1 $41 $20 $0 F #
attrib_hh_face_geombuild-attrib_entity_geombuild-individual_entity_attribute-attrib_HH-attrib $-1 $-1 $21 $16 F #
model_id-kcp-attrib $-1 $42 $-1 $22 1 1017637755 80 2102394881 3 #
face $43 $44 $45 $8 $-1 $46 reversed single #
loop $-1 $-1 $47 $22 #
plane-surface $-1 0 25 0 0 -1 0 0 0 -1 forward_v I I I I #
coedge $48 $49 $50 $51 $52 reversed $23 $-1 #
model_id-kcp-attrib $-1 $-1 $-1 $25 1 1017637755 80 2102394882 7 #
face $53 $54 $55 $17 $-1 $56 reversed single #
loop $-1 $-1 $57 $25 #
plane-surface $-1 0 0 5 0 0 1 1 0 0 forward_v I I I I #
face $-1 $58 $59 $19 $-1 $60 forward single #
loop $-1 $-1 $61 $26 #
cone-surface $-1 9 -9 -5 0 0 1 10 0 0 1 I I 0 1 10 forward I I I I #
aggregate_isospline_attribute-aggregate_geombuild_base_attribute-aggregate_body_attribute-attrib_HH-attrib $-1 $62 $27 $0 F #
attrib_hh_face_geombuild-attrib_entity_geombuild-individual_entity_attribute-attrib_HH-attrib $-1 $-1 $29 $22 F #
model_id-kcp-attrib $-1 $63 $-1 $30 1 1017637755 80 2102394881 4 #
face $64 $65 $66 $8 $-1 $67 reversed single #
loop $-1 $-1 $68 $30 #
plane-surface $-1 -25 0 0 1 0 0 0 0 -1 forward_v I I I I #
coedge $69 $70 $71 $72 $73 reversed $31 $-1 #
attrib_hh_coedge_geombuild-attrib_entity_geombuild-individual_entity_attribute-attrib_HH-attrib $-1 $-1 $-1 $33 F #
coedge $74 $75 $33 $76 $77 forward $23 $-1 #
coedge $78 $33 $75 $70 $79 reversed $23 $-1 #
coedge $80 $72 $81 $33 $52 forward $82 $-1 #
edge $83 $84 -25 $85 25 $33 $86 forward 7 unknown #
model_id-kcp-attrib $-1 $-1 $-1 $35 1 1017637755 80 2102394882 6 #
face $87 $88 $89 $17 $-1 $90 reversed single #
loop $-1 $-1 $91 $35 #
plane-surface $-1 0 0 -5 0 0 1 1 0 0 forward_v I I I I #
coedge $-1 $92 $93 $94 $95 forward $36 $-1 #
face $-1 $96 $97 $19 $-1 $98 forward single #
loop $-1 $-1 $99 $38 #
cone-surface $-1 -9 -9 -5 0 0 1 10 0 0 1 I I 0 1 10 forward I I I I #
coedge $-1 $100 $101 $102 $103 forward $39 $-1 #
aggregate_analytic_solver_attribute-aggregate_geombuild_base_attribute-aggregate_body_attribute-attrib_HH-attrib $-1 $104 $41 $0 F #
attrib_hh_face_geombuild-attrib_entity_geombuild-individual_entity_attribute-attrib_HH-attrib $-1 $-1 $43 $30 F #
model_id-kcp-attrib $-1 $105 $-1 $44 1 1017637755 80 2102394881 5 #
face $106 $107 $108 $8 $-1 $109 reversed single #
loop $-1 $-1 $110 $44 #
plane-surface $-1 0 -25 0 0 1 0 0 0 1 forward_v I I I I #
coedge $111 $112 $113 $114 $115 reversed $45 $-1 #
attrib_hh_coedge_geombuild-attrib_entity_geombuild-individual_entity_attribute-attrib_HH-attrib $-1 $-1 $-1 $47 F #
coedge $116 $117 $47 $50 $79 forward $31 $-1 #
coedge $118 $47 $117 $112 $119 reversed $31 $-1 #
coedge $120 $114 $51 $47 $73 forward $82 $-1 #
edge $121 $85 -25 $122 25 $47 $123 forward 7 unknown #
attrib_hh_coedge_geombuild-attrib_entity_geombuild-individual_entity_attribute-attrib_HH-attrib $-1 $-1 $-1 $49 F #
coedge $124 $50 $49 $125 $126 reversed $23 $-1 #
coedge $127 $110 $128 $49 $77 reversed $66 $-1 #
edge $129 $84 -5 $130 5 $49 $131 forward 7 unknown #
attrib_hh_coedge_geombuild-attrib_entity_geombuild-individual_entity_attribute-attrib_HH-attrib $-1 $-1 $-1 $50 F #
edge $132 $85 -5 $133 5 $50 $134 forward 7 unknown #
attrib_hh_coedge_geombuild-attrib_entity_geombuild-individual_entity_attribute-attrib_HH-attrib $-1 $-1 $-1 $51 F #
coedge $135 $51 $114 $110 $136 forward $82 $-1 #
loop $-1 $-1 $51 $137 #
attrib_edge_convexity-kcp-attrib $-1 $138 $-1 $52 1 #
vertex $139 $52 $140 #
vertex $141 $52 $142 #
straight-curve $-1 25 0 5 0 1 0 I I #
model_id-kcp-attrib $-1 $-1 $-1 $54 1 1017637755 80 2102394882 5 #
face $143 $144 $145 $17 $-1 $146 reversed single #
loop $-1 $-1 $147 $54 #
plane-surface $-1 0 -25 0 0 1 0 0 0 1 forward_v I I I I #
coedge $-1 $148 $149 $150 $151 forward $55 $-1 #
coedge $-1 $152 $57 $153 $154 forward $36 $-1 #
coedge $-1 $57 $152 $155 $156 forward $36 $-1 #
coedge $-1 $157 $158 $57 $95 reversed $159 $-1 #
edge $-1 $160 -25 $161 25 $94 $162 forward 7 unknown #
face $-1 $163 $164 $19 $-1 $165 forward single #
loop $-1 $-1 $166 $58 #
cone-surface $-1 -9 9 -5 0 0 1 10 0 0 1 I I 0 1 10 forward I I I I #
coedge $-1 $167 $168 $169 $170 forward $59 $-1 #
coedge $-1 $171 $61 $168 $172 reversed $39 $-1 #
coedge $-1 $61 $171 $173 $174 forward $39 $-1 #
coedge $-1 $175 $169 $61 $103 reversed $176 $-1 #
edge $-1 $177 -1.1197695149986318 $178 2.6905658417935285 $61 $179 forward 7 unknown #
aggregate_geombuild_attribute-aggregate_geombuild_base_attribute-aggregate_body_attribute-attrib_HH-attrib $-1 $180 $62 $0 #
attrib_hh_face_geombuild-attrib_entity_geombuild-individual_entity_attribute-attrib_HH-attrib $-1 $-1 $64 $44 F #
model_id-kcp-attrib $-1 $181 $-1 $65 1 1017637755 80 2102394881 6 #
face $182 $183 $184 $8 $-1 $185 reversed single #
loop $-1 $-1 $186 $65 #
cone-surface $-1 -9 9 0 0 0 1 10 0 0 1 I I 0 1 10 forward I I I I #
coedge $187 $188 $76 $81 $136 reversed $66 $-1 #
attrib_hh_coedge_geombuild-attrib_entity_geombuild-individual_entity_attribute-attrib_HH-attrib $-1 $-1 $-1 $68 F #
coedge $189 $190 $68 $71 $119 forward $45 $-1 #
coedge $191 $68 $190 $188 $192 reversed $45 $-1 #
coedge $193 $81 $72 $68 $115 forward $82 $-1 #
edge $194 $122 -25 $195 25 $68 $196 forward 7 unknown #
attrib_hh_coedge_geombuild-attrib_entity_geombuild-individual_entity_attribute-attrib_HH-attrib $-1 $-1 $-1 $70 F #
coedge $197 $71 $70 $198 $199 reversed $31 $-1 #
attrib_hh_coedge_geombuild-attrib_entity_geombuild-individual_entity_attribute-attrib_HH-attrib $-1 $-1 $-1 $71 F #
edge $200 $122 -5 $201 5 $71 $202 forward 7 unknown #
attrib_hh_coedge_geombuild-attrib_entity_geombuild-individual_entity_attribute-attrib_HH-attrib $-1 $-1 $-1 $72 F #
attrib_edge_convexity-kcp-attrib $-1 $203 $-1 $73 1 #
vertex $204 $73 $205 #
straight-curve $-1 0 25 5 -1 0 0 I I #
attrib_hh_coedge_geombuild-attrib_entity_geombuild-individual_entity_attribute-attrib_HH-attrib $-1 $-1 $-1 $75 F #
coedge $206 $207 $198 $75 $126 forward $208 $-1 #
edge $209 $133 -25 $130 25 $75 $210 forward 7 unknown #
attrib_hh_coedge_geombuild-attrib_entity_geombuild-individual_entity_attribute-attrib_HH-attrib $-1 $-1 $-1 $76 F #
coedge $211 $76 $188 $207 $212 reversed $66 $-1 #
attrib_edge_convexity-kcp-attrib $-1 $213 $-1 $77 1 #
vertex $214 $77 $215 #
straight-curve $-1 25 -25 0 0 0 -1 I I #
attrib_edge_convexity-kcp-attrib $-1 $216 $-1 $79 1 #
vertex $217 $126 $218 #
straight-curve $-1 25 25 0 0 0 -1 I I #
attrib_hh_coedge_geombuild-attrib_entity_geombuild-individual_entity_attribute-attrib_HH-attrib $-1 $-1 $-1 $81 F #
edge $219 $195 -25 $84 25 $110 $220 forward 7 unknown #
face $221 $222 $223 $8 $-1 $224 forward single #
convexity-sys-attrib $-1 $225 $83 $52 #
attrib_hh_vertex_geombuild-attrib_entity_geombuild-individual_entity_attribute-attrib_HH-attrib $-1 $-1 $-1 $84 F #
point $-1 25 -25 5 #
attrib_hh_vertex_geombuild-attrib_entity_geombuild-individual_entity_attribute-attrib_HH-attrib $-1 $-1 $-1 $85 F #
point $-1 25 25 5 #
model_id-kcp-attrib $-1 $-1 $-1 $88 1 1017637755 80 2102394882 4 #
face $226 $227 $228 $17 $-1 $229 reversed single #
loop $-1 $-1 $230 $88 #
plane-surface $-1 -25 0 0 1 0 0 0 0 -1 forward_v I I I I #
coedge $-1 $231 $155 $232 $233 forward $89 $-1 #
coedge $-1 $234 $91 $231 $235 forward $55 $-1 #
coedge $-1 $91 $234 $236 $237 forward $55 $-1 #
coedge $-1 $158 $157 $91 $151 reversed $159 $-1 #
edge $-1 $238 -25 $239 25 $150 $240 forward 7 unknown #
coedge $-1 $93 $92 $241 $242 forward $36 $-1 #
coedge $-1 $243 $244 $92 $154 reversed $228 $-1 #
edge $-1 $161 -25 $245 25 $153 $246 forward 7 unknown #
coedge $-1 $147 $247 $93 $156 reversed $89 $-1 #
edge $-1 $248 -25 $160 25 $155 $249 forward 7 unknown #
coedge $-1 $150 $94 $247 $250 forward $159 $-1 #
coedge $-1 $94 $150 $243 $251 reversed $159 $-1 #
loop $-1 $-1 $157 $227 #
vertex $-1 $95 $252 #
vertex $-1 $95 $253 #
straight-curve $-1 25 0 5 0 1 0 I I #
face $-1 $254 $176 $19 $-1 $255 forward single #
loop $-1 $-1 $256 $96 #
cone-surface $-1 9 9 -5 0 0 1 10 0 0 1 I I 0 1 10 forward I I I I #
coedge $-1 $257 $258 $259 $260 forward $97 $-1 #
coedge $-1 $261 $99 $258 $262 reversed $59 $-1 #
coedge $-1 $99 $261 $100 $172 forward $59 $-1 #
coedge $-1 $102 $259 $99 $170 reversed $176 $-1 #
edge $-1 $178 0.4510268117962648 $263 4.2613621685884251 $99 $264 forward 7 unknown #
coedge $-1 $101 $100 $265 $266 forward $39 $-1 #
edge $-1 $267 0 $178 10 $168 $268 forward 7 unknown #
coedge $-1 $269 $256 $101 $174 reversed $164 $-1 #
edge $-1 $270 0 $177 10 $101 $271 forward 7 unknown #
coedge $-1 $259 $102 $256 $272 reversed $176 $-1 #
loop $-1 $-1 $102 $163 #
vertex $-1 $174 $273 #
vertex $-1 $172 $274 #
ellipse-curve $-1 9 -9 5 0 0 -1 10 0 0 1 I I #
aggregate_stitch_attribute-aggregate_stitch_base_attribute-aggregate_body_attribute-attrib_HH-attrib $-1 $275 $104 $0 F #
attrib_hh_face_geombuild-attrib_entity_geombuild-individual_entity_attribute-attrib_HH-attrib $-1 $-1 $106 $65 F #
model_id-kcp-attrib $-1 $276 $-1 $107 1 1017637755 80 2102394881 7 #
face $277 $278 $279 $8 $-1 $280 reversed single #
loop $-1 $208 $281 $107 #
plane-surface $-1 0 0 -5 0 0 1 1 0 0 forward_v I I I I #
coedge $282 $283 $284 $285 $286 reversed $108 $-1 #
attrib_hh_coedge_geombuild-attrib_entity_geombuild-individual_entity_attribute-attrib_HH-attrib $-1 $-1 $-1 $110 F #
coedge $287 $128 $110 $113 $192 forward $66 $-1 #
attrib_hh_coedge_geombuild-attrib_entity_geombuild-individual_entity_attribute-attrib_HH-attrib $-1 $-1 $-1 $112 F #
coedge $288 $113 $112 $289 $290 reversed $45 $-1 #
attrib_hh_coedge_geombuild-attrib_entity_geombuild-individual_entity_attribute-attrib_HH-attrib $-1 $-1 $-1 $113 F #
edge $291 $195 -5 $292 5 $113 $293 forward 7 unknown #
attrib_hh_coedge_geombuild-attrib_entity_geombuild-individual_entity_attribute-attrib_HH-attrib $-1 $-1 $-1 $114 F #
attrib_hh_edge_geombuild-attrib_entity_geombuild-individual_entity_attribute-attrib_HH-attrib $-1 $-1 $-1 $115 F #
vertex $294 $115 $295 #
straight-curve $-1 -25 0 5 0 -1 0 I I #
attrib_hh_coedge_geombuild-attrib_entity_geombuild-individual_entity_attribute-attrib_HH-attrib $-1 $-1 $-1 $117 F #
coedge $296 $125 $289 $117 $199 forward $208 $-1 #
edge $297 $201 -25 $133 25 $117 $298 forward 7 unknown #
attrib_edge_convexity-kcp-attrib $-1 $299 $-1 $119 1 #
vertex $300 $199 $301 #
straight-curve $-1 -25 25 0 0 0 -1 I I #
convexity-sys-attrib $-1 $302 $121 $73 #
attrib_hh_vertex_geombuild-attrib_entity_geombuild-individual_entity_attribute-attrib_HH-attrib $-1 $-1 $-1 $122 F #
point $-1 -25 25 5 #
attrib_hh_coedge_geombuild-attrib_entity_geombuild-individual_entity_attribute-attrib_HH-attrib $-1 $-1 $-1 $125 F #
coedge $303 $289 $125 $128 $212 forward $208 $-1 #
loop $-1 $-1 $125 $107 #
attrib_edge_convexity-kcp-attrib $-1 $304 $-1 $126 1 #
straight-curve $-1 25 0 -5 0 -1 0 I I #
attrib_hh_coedge_geombuild-attrib_entity_geombuild-individual_entity_attribute-attrib_HH-attrib $-1 $-1 $-1 $128 F #
edge $305 $130 -25 $292 25 $128 $306 forward 7 unknown #
convexity-sys-attrib $-1 $307 $129 $77 #
attrib_hh_vertex_geombuild-attrib_entity_geombuild-individual_entity_attribute-attrib_HH-attrib $-1 $-1 $-1 $130 F #
point $-1 25 -25 -5 #
convexity-sys-attrib $-1 $308 $132 $79 #
attrib_hh_vertex_geombuild-attrib_entity_geombuild-individual_entity_attribute-attrib_HH-attrib $-1 $-1 $-1 $133 F #
point $-1 25 25 -5 #
attrib_hh_edge_geombuild-attrib_entity_geombuild-individual_entity_attribute-attrib_HH-attrib $-1 $-1 $-1 $136 F #
straight-curve $-1 0 -25 5 1 0 0 I I #
model_id-kcp-attrib $-1 $309 $-1 $137 1 1017637755 80 2102394881 10 #
face $310 $-1 $311 $8 $-1 $312 reversed single #
loop $-1 $82 $313 $137 #
plane-surface $-1 0 0 5 0 0 1 1 0 0 forward_v I I I I #
attrib_hh_edge_geombuild-attrib_entity_geombuild-individual_entity_attribute-attrib_HH-attrib $-1 $-1 $138 $52 F #
model_id-kcp-attrib $-1 $-1 $-1 $144 1 1017637755 80 2102394882 3 #
face $314 $-1 $159 $17 $-1 $315 reversed single #
loop $-1 $-1 $243 $144 #
plane-surface $-1 0 25 0 0 -1 0 0 0 -1 forward_v I I I I #
coedge $-1 $316 $241 $244 $317 forward $145 $-1 #
coedge $-1 $247 $147 $148 $235 reversed $89 $-1 #
coedge $-1 $241 $316 $147 $233 reversed $145 $-1 #
edge $-1 $248 -5 $318 5 $232 $319 forward 7 unknown #
coedge $-1 $149 $148 $316 $320 forward $55 $-1 #
edge $-1 $239 -25 $318 25 $231 $321 forward 7 unknown #
coedge $-1 $244 $243 $149 $237 reversed $228 $-1 #
edge $-1 $322 -25 $238 25 $236 $323 forward 7 unknown #
vertex $-1 $151 $324 #
vertex $-1 $250 $325 #
straight-curve $-1 25 0 -5 0 -1 0 I I #
coedge $-1 $230 $232 $152 $242 reversed $145 $-1 #
edge $-1 $245 -25 $248 25 $241 $326 forward 7 unknown #
coedge $-1 $236 $153 $158 $251 forward $228 $-1 #
coedge $-1 $153 $236 $230 $317 reversed $228 $-1 #
vertex $-1 $154 $327 #
straight-curve $-1 0 25 5 -1 0 0 I I #
coedge $-1 $155 $231 $157 $250 reversed $89 $-1 #
vertex $-1 $242 $328 #
straight-curve $-1 0 -25 5 1 0 0 I I #
edge $-1 $160 -5 $239 5 $157 $329 forward 7 unknown #
edge $-1 $161 -5 $238 5 $158 $330 forward 7 unknown #
point $-1 25 -25 5 #
point $-1 25 25 5 #
face $-1 $-1 $331 $19 $-1 $332 reversed single #
plane-surface $-1 0.23249629077710732 0 5 0 0 1 1 0 0 forward_v I I I I #
coedge $-1 $173 $333 $175 $272 forward $164 $-1 #
coedge $-1 $334 $166 $333 $335 reversed $97 $-1 #
coedge $-1 $166 $334 $167 $262 forward $97 $-1 #
coedge $-1 $169 $175 $166 $260 reversed $176 $-1 #
edge $-1 $263 2.0218231385911616 $336 5.8321584953833217 $166 $337 forward 7 unknown #
coedge $-1 $168 $167 $338 $339 forward $59 $-1 #
edge $-1 $340 0 $263 10 $258 $341 forward 7 unknown #
vertex $-1 $262 $342 #
ellipse-curve $-1 -9 -9 5 0 0 -1 10 0 0 1 I I #
coedge $-1 $338 $343 $171 $266 reversed $331 $-1 #
edge $-1 $267 -2.6905658417935285 $270 1.1197695149986318 $171 $344 forward 7 unknown #
vertex $-1 $339 $345 #
straight-curve $-1 0 -13.3588989435407 -5 0 0 1 I I #
coedge $-1 $333 $173 $343 $346 forward $164 $-1 #
vertex $-1 $266 $347 #
straight-curve $-1 13.3588989435407 0 -5 0 0 1 I I #
edge $-1 $336 -2.6905658417935281 $177 1.1197695149986318 $256 $348 forward 7 unknown #
point $-1 13.3588989435407 0 5 #
point $-1 0 -13.3588989435407 5 #
aggregate_simgeom_attribute-aggregate_simgeom_base_attribute-aggregate_body_attribute-attrib_HH-attrib $-1 $-1 $180 $0 F #
attrib_hh_face_geombuild-attrib_entity_geombuild-individual_entity_attribute-attrib_HH-attrib $-1 $-1 $182 $107 F #
model_id-kcp-attrib $-1 $349 $-1 $183 1 1017637755 80 2102394881 8 #
face $350 $137 $351 $8 $-1 $352 reversed single #
loop $-1 $-1 $353 $183 #
cone-surface $-1 -9 -9 0 0 0 1 10 0 0 1 I I 0 1 10 forward I I I I #
coedge $354 $355 $356 $357 $358 forward $184 $-1 #
attrib_hh_coedge_geombuild-attrib_entity_geombuild-individual_entity_attribute-attrib_HH-attrib $-1 $-1 $-1 $186 F #
coedge $359 $360 $186 $361 $362 reversed $108 $-1 #
coedge $363 $186 $360 $364 $365 reversed $108 $-1 #
coedge $366 $367 $368 $186 $286 forward $351 $-1 #
edge $369 $370 -5 $371 5 $285 $372 forward 7 unknown #
attrib_hh_coedge_geombuild-attrib_entity_geombuild-individual_entity_attribute-attrib_HH-attrib $-1 $-1 $-1 $188 F #
attrib_hh_coedge_geombuild-attrib_entity_geombuild-individual_entity_attribute-attrib_HH-attrib $-1 $-1 $-1 $190 F #
coedge $373 $198 $207 $190 $290 forward $208 $-1 #
edge $374 $292 -25 $201 25 $190 $375 forward 7 unknown #
attrib_hh_edge_geombuild-attrib_entity_geombuild-individual_entity_attribute-attrib_HH-attrib $-1 $-1 $-1 $192 F #
vertex $376 $290 $377 #
straight-curve $-1 -25 -25 0 0 0 -1 I I #
attrib_hh_vertex_geombuild-attrib_entity_geombuild-individual_entity_attribute-attrib_HH-attrib $-1 $-1 $-1 $195 F #
point $-1 -25 -25 5 #
attrib_hh_coedge_geombuild-attrib_entity_geombuild-individual_entity_attribute-attrib_HH-attrib $-1 $-1 $-1 $198 F #
attrib_edge_convexity-kcp-attrib $-1 $378 $-1 $199 1 #
straight-curve $-1 0 25 -5 1 0 0 I I #
convexity-sys-attrib $-1 $379 $200 $119 #
attrib_hh_vertex_geombuild-attrib_entity_geombuild-individual_entity_attribute-attrib_HH-attrib $-1 $-1 $-1 $201 F #
point $-1 -25 25 -5 #
attrib_hh_edge_geombuild-attrib_entity_geombuild-individual_entity_attribute-attrib_HH-attrib $-1 $-1 $203 $73 F #
attrib_hh_coedge_geombuild-attrib_entity_geombuild-individual_entity_attribute-attrib_HH-attrib $-1 $-1 $-1 $207 F #
convexity-sys-attrib $-1 $380 $209 $126 #
attrib_edge_convexity-kcp-attrib $-1 $381 $-1 $212 1 #
straight-curve $-1 0 -25 -5 -1 0 0 I I #
attrib_hh_edge_geombuild-attrib_entity_geombuild-individual_entity_attribute-attrib_HH-attrib $-1 $-1 $213 $77 F #
attrib_hh_edge_geombuild-attrib_entity_geombuild-individual_entity_attribute-attrib_HH-attrib $-1 $-1 $216 $79 F #
attrib_hh_face_geombuild-attrib_entity_geombuild-individual_entity_attribute-attrib_HH-attrib $-1 $-1 $221 $137 F #
model_id-kcp-attrib $-1 $382 $-1 $222 1 1017637755 80 2102394881 11 #
loop $-1 $-1 $383 $222 #
cone-surface $-1 9 -9 0 0 0 1 10 0 0 1 I I 0 1 10 forward I I I I #
coedge $384 $385 $386 $387 $388 forward $223 $-1 #
model_id-kcp-attrib $-1 $-1 $-1 $227 1 1017637755 80 2102394882 2 #
plane-surface $-1 25 0 0 -1 0 0 0 0 1 forward_v I I I I #
coedge $-1 $232 $230 $234 $320 reversed $145 $-1 #
edge $-1 $245 -5 $322 5 $244 $389 forward 7 unknown #
vertex $-1 $320 $390 #
straight-curve $-1 -25 -25 0 0 0 -1 I I #
edge $-1 $318 -25 $322 25 $316 $391 forward 7 unknown #
straight-curve $-1 0 -25 -5 -1 0 0 I I #
vertex $-1 $237 $392 #
straight-curve $-1 0 25 -5 1 0 0 I I #
point $-1 25 25 -5 #
point $-1 25 -25 -5 #
straight-curve $-1 -25 0 5 0 -1 0 I I #
point $-1 -25 25 5 #
point $-1 -25 -25 5 #
straight-curve $-1 25 -25 0 0 0 -1 I I #
straight-curve $-1 25 25 0 0 0 -1 I I #
loop $-1 $-1 $265 $254 #
plane-surface $-1 0.23249629077710732 0 -5 0 0 1 1 0 0 forward_v I I I I #
coedge $-1 $256 $269 $257 $335 forward $164 $-1 #
coedge $-1 $258 $257 $393 $394 forward $97 $-1 #
edge $-1 $395 0 $336 10 $333 $396 forward 7 unknown #
vertex $-1 $335 $397 #
ellipse-curve $-1 -9 9 5 0 0 -1 10 0 0 1 I I #
coedge $-1 $393 $265 $261 $339 reversed $331 $-1 #
edge $-1 $340 2.0218231385911616 $267 5.8321584953833217 $261 $398 forward 7 unknown #
vertex $-1 $394 $399 #
straight-curve $-1 -13.358898943540702 0 -5 0 0 1 I I #
point $-1 -13.358898943540702 0 5 #
coedge $-1 $265 $393 $269 $346 reversed $331 $-1 #
ellipse-curve $-1 9 -9 -5 0 0 1 10 0 0 1 I I #
point $-1 0 -13.3588989435407 -5 #
edge $-1 $270 -1.1197695149986318 $395 2.6905658417935285 $269 $400 forward 7 unknown #
point $-1 13.3588989435407 0 -5 #
ellipse-curve $-1 9 9 5 0 0 -1 10 0 0 1 I I #
attrib_hh_face_geombuild-attrib_entity_geombuild-individual_entity_attribute-attrib_HH-attrib $-1 $-1 $277 $183 F #
model_id-kcp-attrib $-1 $401 $-1 $278 1 1017637755 80 2102394881 9 #
loop $-1 $-1 $402 $278 #
cone-surface $-1 9 9 0 0 0 1 10 0 0 1 I I 0 1 10 forward I I I I #
coedge $403 $404 $405 $406 $407 forward $279 $-1 #
attrib_hh_coedge_geombuild-attrib_entity_geombuild-individual_entity_attribute-attrib_HH-attrib $-1 $-1 $-1 $281 F #
coedge $408 $409 $281 $410 $411 forward $184 $-1 #
coedge $412 $281 $413 $414 $415 forward $184 $-1 #
coedge $416 $414 $383 $281 $358 reversed $311 $-1 #
edge $417 $418 0 $419 1.1197695149986318 $281 $420 forward 7 unknown #
attrib_hh_coedge_geombuild-attrib_entity_geombuild-individual_entity_attribute-attrib_HH-attrib $-1 $-1 $-1 $283 F #
coedge $421 $284 $283 $422 $423 reversed $108 $-1 #
coedge $424 $425 $426 $283 $362 forward $223 $-1 #
edge $427 $428 2.0218231385911616 $370 5.8321584953833217 $361 $429 forward 7 unknown #
attrib_hh_coedge_geombuild-attrib_entity_geombuild-individual_entity_attribute-attrib_HH-attrib $-1 $-1 $-1 $284 F #
coedge $430 $413 $409 $284 $365 forward $184 $-1 #
edge $431 $371 0.4510268117962648 $432 4.2613621685884251 $364 $433 forward 7 unknown #
attrib_hh_coedge_geombuild-attrib_entity_geombuild-individual_entity_attribute-attrib_HH-attrib $-1 $-1 $-1 $285 F #
coedge $434 $410 $285 $409 $435 reversed $351 $-1 #
coedge $436 $285 $437 $425 $438 reversed $351 $-1 #
attrib_hh_edge_geombuild-attrib_entity_geombuild-individual_entity_attribute-attrib_HH-attrib $-1 $-1 $-1 $286 F #
vertex $439 $286 $440 #
vertex $441 $286 $442 #
straight-curve $-1 0 13.3588989435407 0 0 0 -1 I I #
attrib_hh_coedge_geombuild-attrib_entity_geombuild-individual_entity_attribute-attrib_HH-attrib $-1 $-1 $-1 $289 F #
attrib_edge_convexity-kcp-attrib $-1 $443 $-1 $290 1 #
straight-curve $-1 -25 0 -5 0 1 0 I I #
attrib_hh_vertex_geombuild-attrib_entity_geombuild-individual_entity_attribute-attrib_HH-attrib $-1 $-1 $-1 $292 F #
point $-1 -25 -25 -5 #
convexity-sys-attrib $-1 $444 $297 $199 #
attrib_hh_edge_geombuild-attrib_entity_geombuild-individual_entity_attribute-attrib_HH-attrib $-1 $-1 $299 $119 F #
attrib_hh_edge_geombuild-attrib_entity_geombuild-individual_entity_attribute-attrib_HH-attrib $-1 $-1 $304 $126 F #
convexity-sys-attrib $-1 $445 $305 $212 #
attrib_hh_face_geombuild-attrib_entity_geombuild-individual_entity_attribute-attrib_HH-attrib $-1 $-1 $310 $222 F #
coedge $446 $357 $387 $402 $447 reversed $311 $-1 #
attrib_hh_coedge_geombuild-attrib_entity_geombuild-individual_entity_attribute-attrib_HH-attrib $-1 $-1 $-1 $313 F #
coedge $448 $426 $313 $449 $450 forward $223 $-1 #
coedge $451 $313 $425 $437 $452 forward $223 $-1 #
coedge $453 $383 $449 $313 $388 reversed $311 $-1 #
edge $454 $455 -1.1197695149986318 $456 0 $313 $457 forward 7 unknown #
straight-curve $-1 -25 25 0 0 0 -1 I I #
point $-1 -25 -25 -5 #
straight-curve $-1 -25 0 -5 0 1 0 I I #
point $-1 -25 25 -5 #
coedge $-1 $343 $338 $334 $394 reversed $331 $-1 #
edge $-1 $395 0.4510268117962648 $340 4.2613621685884251 $334 $458 forward 7 unknown #
vertex $-1 $346 $459 #
straight-curve $-1 0 13.358898943540702 -5 0 0 1 I I #
point $-1 0 13.358898943540702 5 #
ellipse-curve $-1 -9 -9 -5 0 0 1 10 0 0 1 I I #
point $-1 -13.3588989435407 0 -5 #
ellipse-curve $-1 9 9 -5 0 0 1 10 0 0 1 I I #
attrib_hh_face_geombuild-attrib_entity_geombuild-individual_entity_attribute-attrib_HH-attrib $-1 $-1 $350 $278 F #
coedge $460 $437 $410 $383 $447 forward $351 $-1 #
attrib_hh_coedge_geombuild-attrib_entity_geombuild-individual_entity_attribute-attrib_HH-attrib $-1 $-1 $-1 $353 F #
coedge $461 $422 $353 $413 $462 reversed $279 $-1 #
coedge $463 $353 $422 $426 $464 reversed $279 $-1 #
coedge $465 $449 $414 $353 $407 reversed $311 $-1 #
edge $466 $467 -5 $468 5 $353 $469 forward 7 unknown #
attrib_hh_coedge_geombuild-attrib_entity_geombuild-individual_entity_attribute-attrib_HH-attrib $-1 $-1 $-1 $355 F #
coedge $470 $364 $355 $367 $435 forward $184 $-1 #
coedge $471 $402 $367 $355 $411 reversed $351 $-1 #
edge $472 $419 -1.1197695149986318 $473 0 $355 $474 forward 7 unknown #
attrib_hh_coedge_geombuild-attrib_entity_geombuild-individual_entity_attribute-attrib_HH-attrib $-1 $-1 $-1 $356 F #
coedge $475 $356 $364 $404 $462 forward $184 $-1 #
coedge $476 $406 $357 $356 $415 reversed $311 $-1 #
edge $477 $468 -2.6905658417935285 $418 0 $356 $420 forward 7 unknown #
attrib_hh_coedge_geombuild-attrib_entity_geombuild-individual_entity_attribute-attrib_HH-attrib $-1 $-1 $-1 $357 F #
attrib_edge_convexity-kcp-attrib $-1 $478 $-1 $358 1 #
vertex $479 $358 $480 #
vertex $481 $447 $482 #
ellipse-curve $-1 9 -9 -5 0 0 1 10 0 0 1 I I #
attrib_hh_coedge_geombuild-attrib_entity_geombuild-individual_entity_attribute-attrib_HH-attrib $-1 $-1 $-1 $360 F #
coedge $483 $405 $404 $360 $423 forward $279 $-1 #
edge $484 $432 -5 $428 5 $422 $485 forward 7 unknown #
attrib_hh_coedge_geombuild-attrib_entity_geombuild-individual_entity_attribute-attrib_HH-attrib $-1 $-1 $-1 $361 F #
coedge $486 $386 $361 $368 $438 forward $223 $-1 #
coedge $487 $361 $385 $405 $464 forward $223 $-1 #
attrib_hh_edge_geombuild-attrib_entity_geombuild-individual_entity_attribute-attrib_HH-attrib $-1 $-1 $-1 $362 F #
vertex $488 $362 $489 #
ellipse-curve $-1 -9 9 5 0 0 -1 10 0 0 1 I I #
attrib_hh_coedge_geombuild-attrib_entity_geombuild-individual_entity_attribute-attrib_HH-attrib $-1 $-1 $-1 $364 F #
attrib_edge_convexity-kcp-attrib $-1 $490 $-1 $365 1 #
vertex $491 $365 $492 #
ellipse-curve $-1 -9 9 -5 0 0 1 10 0 0 1 I I #
attrib_hh_coedge_geombuild-attrib_entity_geombuild-individual_entity_attribute-attrib_HH-attrib $-1 $-1 $-1 $367 F #
edge $493 $473 0 $371 2.6905658417935285 $409 $474 forward 7 unknown #
attrib_hh_coedge_geombuild-attrib_entity_geombuild-individual_entity_attribute-attrib_HH-attrib $-1 $-1 $-1 $368 F #
coedge $494 $368 $402 $386 $452 reversed $351 $-1 #
edge $495 $370 -2.6905658417935285 $496 0 $425 $497 forward 7 unknown #
attrib_hh_vertex_geombuild-attrib_entity_geombuild-individual_entity_attribute-attrib_HH-attrib $-1 $-1 $-1 $370 F #
point $-1 0 13.3588989435407 5 #
attrib_hh_vertex_geombuild-attrib_entity_geombuild-individual_entity_attribute-attrib_HH-attrib $-1 $-1 $-1 $371 F #
point $-1 0 13.3588989435407 -5 #
convexity-sys-attrib $-1 $498 $374 $290 #
attrib_hh_edge_geombuild-attrib_entity_geombuild-individual_entity_attribute-attrib_HH-attrib $-1 $-1 $378 $199 F #
attrib_hh_edge_geombuild-attrib_entity_geombuild-individual_entity_attribute-attrib_HH-attrib $-1 $-1 $381 $212 F #
attrib_hh_coedge_geombuild-attrib_entity_geombuild-individual_entity_attribute-attrib_HH-attrib $-1 $-1 $-1 $383 F #
edge $499 $419 -5 $455 5 $402 $500 forward 7 unknown #
attrib_hh_coedge_geombuild-attrib_entity_geombuild-individual_entity_attribute-attrib_HH-attrib $-1 $-1 $-1 $385 F #
coedge $501 $387 $406 $385 $450 reversed $311 $-1 #
edge $502 $456 0 $467 2.6905658417935285 $385 $457 forward 7 unknown #
attrib_hh_coedge_geombuild-attrib_entity_geombuild-individual_entity_attribute-attrib_HH-attrib $-1 $-1 $-1 $386 F #
edge $503 $496 0 $455 1.1197695149986318 $386 $497 forward 7 unknown #
attrib_hh_coedge_geombuild-attrib_entity_geombuild-individual_entity_attribute-attrib_HH-attrib $-1 $-1 $-1 $387 F #
attrib_hh_edge_geombuild-attrib_entity_geombuild-individual_entity_attribute-attrib_HH-attrib $-1 $-1 $-1 $388 F #
vertex $504 $388 $505 #
vertex $506 $388 $507 #
ellipse-curve $-1 9 -9 5 0 0 -1 10 0 0 1 I I #
ellipse-curve $-1 -9 9 -5 0 0 1 10 0 0 1 I I #
point $-1 0 13.3588989435407 -5 #
attrib_hh_coedge_geombuild-attrib_entity_geombuild-individual_entity_attribute-attrib_HH-attrib $-1 $-1 $-1 $402 F #
attrib_hh_coedge_geombuild-attrib_entity_geombuild-individual_entity_attribute-attrib_HH-attrib $-1 $-1 $-1 $404 F #
edge $508 $432 2.0218231385911616 $468 5.8321584953833217 $413 $509 forward 7 unknown #
attrib_hh_coedge_geombuild-attrib_entity_geombuild-individual_entity_attribute-attrib_HH-attrib $-1 $-1 $-1 $405 F #
edge $510 $467 0.4510268117962648 $428 4.2613621685884251 $426 $511 forward 7 unknown #
attrib_hh_coedge_geombuild-attrib_entity_geombuild-individual_entity_attribute-attrib_HH-attrib $-1 $-1 $-1 $406 F #
attrib_hh_edge_geombuild-attrib_entity_geombuild-individual_entity_attribute-attrib_HH-attrib $-1 $-1 $-1 $407 F #
vertex $512 $450 $513 #
vertex $514 $407 $515 #
straight-curve $-1 0 -13.3588989435407 0 0 0 -1 I I #
attrib_hh_coedge_geombuild-attrib_entity_geombuild-individual_entity_attribute-attrib_HH-attrib $-1 $-1 $-1 $409 F #
attrib_hh_coedge_geombuild-attrib_entity_geombuild-individual_entity_attribute-attrib_HH-attrib $-1 $-1 $-1 $410 F #
attrib_edge_convexity-kcp-attrib $-1 $516 $-1 $411 1 #
vertex $517 $411 $518 #
ellipse-curve $-1 9 9 -5 0 0 1 10 0 0 1 I I #
attrib_hh_coedge_geombuild-attrib_entity_geombuild-individual_entity_attribute-attrib_HH-attrib $-1 $-1 $-1 $413 F #
attrib_hh_coedge_geombuild-attrib_entity_geombuild-individual_entity_attribute-attrib_HH-attrib $-1 $-1 $-1 $414 F #
attrib_edge_convexity-kcp-attrib $-1 $519 $-1 $415 1 #
convexity-sys-attrib $-1 $520 $417 $358 #
attrib_hh_vertex_geombuild-attrib_entity_geombuild-individual_entity_attribute-attrib_HH-attrib $-1 $-1 $-1 $418 F #
point $-1 19 -9 -5 #
attrib_hh_vertex_geombuild-attrib_entity_geombuild-individual_entity_attribute-attrib_HH-attrib $-1 $-1 $-1 $419 F #
point $-1 13.3588989435407 0 -5 #
attrib_hh_coedge_geombuild-attrib_entity_geombuild-individual_entity_attribute-attrib_HH-attrib $-1 $-1 $-1 $422 F #
attrib_hh_edge_geombuild-attrib_entity_geombuild-individual_entity_attribute-attrib_HH-attrib $-1 $-1 $-1 $423 F #
straight-curve $-1 -13.3588989435407 0 0 0 0 1 I I #
attrib_hh_coedge_geombuild-attrib_entity_geombuild-individual_entity_attribute-attrib_HH-attrib $-1 $-1 $-1 $425 F #
attrib_hh_coedge_geombuild-attrib_entity_geombuild-individual_entity_attribute-attrib_HH-attrib $-1 $-1 $-1 $426 F #
attrib_hh_vertex_geombuild-attrib_entity_geombuild-individual_entity_attribute-attrib_HH-attrib $-1 $-1 $-1 $428 F #
point $-1 -13.3588989435407 0 5 #
convexity-sys-attrib $-1 $521 $431 $365 #
attrib_hh_vertex_geombuild-attrib_entity_geombuild-individual_entity_attribute-attrib_HH-attrib $-1 $-1 $-1 $432 F #
point $-1 -13.3588989435407 0 -5 #
attrib_edge_convexity-kcp-attrib $-1 $522 $-1 $435 1 #
attrib_hh_coedge_geombuild-attrib_entity_geombuild-individual_entity_attribute-attrib_HH-attrib $-1 $-1 $-1 $437 F #
attrib_hh_edge_geombuild-attrib_entity_geombuild-individual_entity_attribute-attrib_HH-attrib $-1 $-1 $-1 $438 F #
vertex $523 $438 $524 #
ellipse-curve $-1 9 9 5 0 0 -1 10 0 0 1 I I #
attrib_hh_edge_geombuild-attrib_entity_geombuild-individual_entity_attribute-attrib_HH-attrib $-1 $-1 $443 $290 F #
attrib_hh_edge_geombuild-attrib_entity_geombuild-individual_entity_attribute-attrib_HH-attrib $-1 $-1 $-1 $447 F #
straight-curve $-1 13.3588989435407 0 0 0 0 1 I I #
attrib_hh_coedge_geombuild-attrib_entity_geombuild-individual_entity_attribute-attrib_HH-attrib $-1 $-1 $-1 $449 F #
attrib_hh_edge_geombuild-attrib_entity_geombuild-individual_entity_attribute-attrib_HH-attrib $-1 $-1 $-1 $450 F #
attrib_hh_edge_geombuild-attrib_entity_geombuild-individual_entity_attribute-attrib_HH-attrib $-1 $-1 $-1 $452 F #
attrib_hh_vertex_geombuild-attrib_entity_geombuild-individual_entity_attribute-attrib_HH-attrib $-1 $-1 $-1 $455 F #
point $-1 13.3588989435407 0 5 #
attrib_hh_vertex_geombuild-attrib_entity_geombuild-individual_entity_attribute-attrib_HH-attrib $-1 $-1 $-1 $456 F #
point $-1 19 -9 5 #
attrib_edge_convexity-kcp-attrib $-1 $525 $-1 $462 1 #
ellipse-curve $-1 -9 -9 -5 0 0 1 10 0 0 1 I I #
attrib_hh_edge_geombuild-attrib_entity_geombuild-individual_entity_attribute-attrib_HH-attrib $-1 $-1 $-1 $464 F #
ellipse-curve $-1 -9 -9 5 0 0 -1 10 0 0 1 I I #
attrib_hh_vertex_geombuild-attrib_entity_geombuild-individual_entity_attribute-attrib_HH-attrib $-1 $-1 $-1 $467 F #
point $-1 0 -13.3588989435407 5 #
attrib_hh_vertex_geombuild-attrib_entity_geombuild-individual_entity_attribute-attrib_HH-attrib $-1 $-1 $-1 $468 F #
point $-1 0 -13.3588989435407 -5 #
convexity-sys-attrib $-1 $526 $472 $411 #
attrib_hh_vertex_geombuild-attrib_entity_geombuild-individual_entity_attribute-attrib_HH-attrib $-1 $-1 $-1 $473 F #
point $-1 19 9 -5 #
convexity-sys-attrib $-1 $527 $477 $415 #
attrib_hh_edge_geombuild-attrib_entity_geombuild-individual_entity_attribute-attrib_HH-attrib $-1 $-1 $478 $358 F #
attrib_hh_edge_geombuild-attrib_entity_geombuild-individual_entity_attribute-attrib_HH-attrib $-1 $-1 $490 $365 F #
convexity-sys-attrib $-1 $528 $493 $435 #
attrib_hh_vertex_geombuild-attrib_entity_geombuild-individual_entity_attribute-attrib_HH-attrib $-1 $-1 $-1 $496 F #
point $-1 19 9 5 #
convexity-sys-attrib $-1 $529 $508 $462 #
attrib_hh_edge_geombuild-attrib_entity_geombuild-individual_entity_attribute-attrib_HH-attrib $-1 $-1 $516 $411 F #
attrib_hh_edge_geombuild-attrib_entity_geombuild-individual_entity_attribute-attrib_HH-attrib $-1 $-1 $519 $415 F #
attrib_hh_edge_geombuild-attrib_entity_geombuild-individual_entity_attribute-attrib_HH-attrib $-1 $-1 $522 $435 F #
attrib_hh_edge_geombuild-attrib_entity_geombuild-individual_entity_attribute-attrib_HH-attrib $-1 $-1 $525 $462 F #
End-of-ACIS-data 