600 0 2 0           
24 FBMach with ACIS - 6.0.3 13 ACIS 6.0.3 NT 24 Tue May 22 12:37:20 2001 
1 9.9999999999999995e-007 1e-010 
body $2 $3 $-1 $4 #
bdycol-kcp $-1 1 2 $5 $6 #
model_id-kcp-attrib $-1 $-1 $-1 $0 1 990549439 50 1026686977 1 #
lump $-1 $-1 $7 $0 #
transform $-1 1 0 0 0 1 0 0 0 1 0 0 0 1 no_rotate no_reflect no_shear #
body $8 $9 $-1 $10 #
body $11 $12 $-1 $13 #
shell $-1 $-1 $-1 $14 $-1 $3 #
model_id-kcp-attrib $-1 $-1 $-1 $5 1 990549439 50 1026686978 1 #
lump $-1 $-1 $15 $5 #
transform $-1 1 0 0 0 1 0 0 0 1 0 0 0 1 no_rotate no_reflect no_shear #
rgb_color-st-attrib $-1 $16 $-1 $6 0.5 1 1 #
lump $-1 $-1 $17 $6 #
transform $-1 1 0 0 0 1 0 0 0 1 0 0 0 1 no_rotate no_reflect no_shear #
face $18 $19 $20 $7 $-1 $21 reversed single #
shell $-1 $-1 $-1 $22 $-1 $9 #
model_id-kcp-attrib $-1 $-1 $11 $6 1 990549439 190 1035862019 1 #
shell $-1 $-1 $-1 $23 $-1 $12 #
model_id-kcp-attrib $-1 $-1 $-1 $14 1 990549439 50 1026686977 2 #
face $24 $25 $26 $7 $-1 $27 reversed single #
loop $-1 $-1 $28 $14 #
plane-surface $-1 25 0 0 -1 0 0 0 0 1 forward_v I I I I #
face $29 $30 $31 $15 $-1 $32 forward single #
face $-1 $33 $34 $17 $-1 $35 forward single #
model_id-kcp-attrib $-1 $-1 $-1 $19 1 990549439 50 1026686977 3 #
face $36 $37 $38 $7 $-1 $39 reversed single #
loop $-1 $-1 $40 $19 #
plane-surface $-1 0 25 0 0 -1 0 0 0 -1 forward_v I I I I #
coedge $-1 $41 $42 $43 $44 reversed $20 $-1 #
model_id-kcp-attrib $-1 $-1 $-1 $22 1 990549439 50 1026686978 7 #
face $45 $46 $47 $15 $-1 $48 reversed single #
loop $-1 $-1 $49 $22 #
plane-surface $-1 0 0 5 0 0 1 1 0 0 forward_v I I I I #
face $-1 $50 $51 $17 $-1 $52 forward single #
loop $-1 $-1 $53 $23 #
cone-surface $-1 9 -9 -5 0 0 1 10 0 0 1 I I 0 1 10 forward I I I I #
model_id-kcp-attrib $-1 $-1 $-1 $25 1 990549439 50 1026686977 4 #
face $54 $55 $56 $7 $-1 $57 reversed single #
loop $-1 $-1 $58 $25 #
plane-surface $-1 -25 0 0 1 0 0 0 0 -1 forward_v I I I I #
coedge $-1 $59 $60 $61 $62 reversed $26 $-1 #
coedge $-1 $63 $28 $64 $65 forward $20 $-1 #
coedge $-1 $28 $63 $59 $66 reversed $20 $-1 #
coedge $-1 $61 $67 $28 $44 forward $68 $-1 #
edge $69 $70 -25 $71 25 $28 $72 forward 7 unknown #
model_id-kcp-attrib $-1 $-1 $-1 $30 1 990549439 50 1026686978 6 #
face $73 $74 $75 $15 $-1 $76 reversed single #
loop $-1 $-1 $77 $30 #
plane-surface $-1 0 0 -5 0 0 1 1 0 0 forward_v I I I I #
coedge $-1 $78 $79 $80 $81 forward $31 $-1 #
face $-1 $82 $83 $17 $-1 $84 forward single #
loop $-1 $-1 $85 $33 #
cone-surface $-1 -9 -9 -5 0 0 1 10 0 0 1 I I 0 1 10 forward I I I I #
coedge $-1 $86 $87 $88 $89 forward $34 $-1 #
model_id-kcp-attrib $-1 $-1 $-1 $37 1 990549439 50 1026686977 5 #
face $90 $91 $92 $7 $-1 $93 reversed single #
loop $-1 $-1 $94 $37 #
plane-surface $-1 0 -25 0 0 1 0 0 0 1 forward_v I I I I #
coedge $-1 $95 $96 $97 $98 reversed $38 $-1 #
coedge $-1 $99 $40 $42 $66 forward $26 $-1 #
coedge $-1 $40 $99 $95 $100 reversed $26 $-1 #
coedge $-1 $97 $43 $40 $62 forward $68 $-1 #
edge $101 $71 -25 $102 25 $40 $103 forward 7 unknown #
coedge $-1 $42 $41 $104 $105 reversed $20 $-1 #
coedge $-1 $94 $106 $41 $65 reversed $56 $-1 #
edge $107 $70 -5 $108 5 $41 $109 forward 7 unknown #
edge $110 $71 -5 $111 5 $42 $112 forward 7 unknown #
coedge $-1 $43 $97 $94 $113 forward $68 $-1 #
loop $-1 $-1 $43 $114 #
attrib_edge_convexity-kcp-attrib $-1 $115 $-1 $44 1 #
vertex $-1 $44 $116 #
vertex $-1 $44 $117 #
straight-curve $-1 25 0 5 0 1 0 I I #
model_id-kcp-attrib $-1 $-1 $-1 $46 1 990549439 50 1026686978 5 #
face $118 $119 $120 $15 $-1 $121 reversed single #
loop $-1 $-1 $122 $46 #
plane-surface $-1 0 -25 0 0 1 0 0 0 1 forward_v I I I I #
coedge $-1 $123 $124 $125 $126 forward $47 $-1 #
coedge $-1 $127 $49 $128 $129 forward $31 $-1 #
coedge $-1 $49 $127 $130 $131 forward $31 $-1 #
coedge $-1 $132 $133 $49 $81 reversed $134 $-1 #
edge $-1 $135 -25 $136 25 $80 $137 forward 7 unknown #
face $-1 $138 $139 $17 $-1 $140 forward single #
loop $-1 $-1 $141 $50 #
cone-surface $-1 -9 9 -5 0 0 1 10 0 0 1 I I 0 1 10 forward I I I I #
coedge $-1 $142 $143 $144 $145 forward $51 $-1 #
coedge $-1 $146 $53 $143 $147 reversed $34 $-1 #
coedge $-1 $53 $146 $148 $149 forward $34 $-1 #
coedge $-1 $150 $144 $53 $89 reversed $151 $-1 #
edge $-1 $152 -1.1197695149986318 $153 2.6905658417935285 $53 $154 forward 7 unknown #
model_id-kcp-attrib $-1 $-1 $-1 $55 1 990549439 50 1026686977 6 #
face $155 $156 $157 $7 $-1 $158 reversed single #
loop $-1 $-1 $159 $55 #
cone-surface $-1 -9 9 0 0 0 1 10 0 0 1 I I 0 1 10 forward I I I I #
coedge $-1 $160 $64 $67 $113 reversed $56 $-1 #
coedge $-1 $161 $58 $60 $100 forward $38 $-1 #
coedge $-1 $58 $161 $160 $162 reversed $38 $-1 #
coedge $-1 $67 $61 $58 $98 forward $68 $-1 #
edge $-1 $102 -25 $163 25 $58 $164 forward 7 unknown #
coedge $-1 $60 $59 $165 $166 reversed $26 $-1 #
edge $167 $102 -5 $168 5 $60 $169 forward 7 unknown #
attrib_edge_convexity-kcp-attrib $-1 $170 $-1 $62 1 #
vertex $-1 $62 $171 #
straight-curve $-1 0 25 5 -1 0 0 I I #
coedge $-1 $172 $165 $63 $105 forward $173 $-1 #
edge $174 $111 -25 $108 25 $63 $175 forward 7 unknown #
coedge $-1 $64 $160 $172 $176 reversed $56 $-1 #
attrib_edge_convexity-kcp-attrib $-1 $177 $-1 $65 1 #
vertex $-1 $65 $178 #
straight-curve $-1 25 -25 0 0 0 -1 I I #
attrib_edge_convexity-kcp-attrib $-1 $179 $-1 $66 1 #
vertex $-1 $105 $180 #
straight-curve $-1 25 25 0 0 0 -1 I I #
edge $-1 $163 -25 $70 25 $94 $181 forward 7 unknown #
face $182 $183 $184 $7 $-1 $185 forward single #
convexity-sys-attrib $-1 $-1 $69 $44 #
point $-1 25 -25 5 #
point $-1 25 25 5 #
model_id-kcp-attrib $-1 $-1 $-1 $74 1 990549439 50 1026686978 4 #
face $186 $187 $188 $15 $-1 $189 reversed single #
loop $-1 $-1 $190 $74 #
plane-surface $-1 -25 0 0 1 0 0 0 0 -1 forward_v I I I I #
coedge $-1 $191 $130 $192 $193 forward $75 $-1 #
coedge $-1 $194 $77 $191 $195 forward $47 $-1 #
coedge $-1 $77 $194 $196 $197 forward $47 $-1 #
coedge $-1 $133 $132 $77 $126 reversed $134 $-1 #
edge $-1 $198 -25 $199 25 $125 $200 forward 7 unknown #
coedge $-1 $79 $78 $201 $202 forward $31 $-1 #
coedge $-1 $203 $204 $78 $129 reversed $188 $-1 #
edge $-1 $136 -25 $205 25 $128 $206 forward 7 unknown #
coedge $-1 $122 $207 $79 $131 reversed $75 $-1 #
edge $-1 $208 -25 $135 25 $130 $209 forward 7 unknown #
coedge $-1 $125 $80 $207 $210 forward $134 $-1 #
coedge $-1 $80 $125 $203 $211 reversed $134 $-1 #
loop $-1 $-1 $132 $187 #
vertex $-1 $81 $212 #
vertex $-1 $81 $213 #
straight-curve $-1 25 0 5 0 1 0 I I #
face $-1 $214 $151 $17 $-1 $215 forward single #
loop $-1 $-1 $216 $82 #
cone-surface $-1 9 9 -5 0 0 1 10 0 0 1 I I 0 1 10 forward I I I I #
coedge $-1 $217 $218 $219 $220 forward $83 $-1 #
coedge $-1 $221 $85 $218 $222 reversed $51 $-1 #
coedge $-1 $85 $221 $86 $147 forward $51 $-1 #
coedge $-1 $88 $219 $85 $145 reversed $151 $-1 #
edge $-1 $153 0.4510268117962648 $223 4.2613621685884251 $85 $224 forward 7 unknown #
coedge $-1 $87 $86 $225 $226 forward $34 $-1 #
edge $-1 $227 0 $153 10 $143 $228 forward 7 unknown #
coedge $-1 $229 $216 $87 $149 reversed $139 $-1 #
edge $-1 $230 0 $152 10 $87 $231 forward 7 unknown #
coedge $-1 $219 $88 $216 $232 reversed $151 $-1 #
loop $-1 $-1 $88 $138 #
vertex $-1 $149 $233 #
vertex $-1 $147 $234 #
ellipse-curve $-1 9 -9 5 0 0 -1 10 0 0 1 I I #
model_id-kcp-attrib $-1 $-1 $-1 $91 1 990549439 50 1026686977 7 #
face $235 $236 $237 $7 $-1 $238 reversed single #
loop $-1 $173 $239 $91 #
plane-surface $-1 0 0 -5 0 0 1 1 0 0 forward_v I I I I #
coedge $-1 $240 $241 $242 $243 reversed $92 $-1 #
coedge $-1 $106 $94 $96 $162 forward $56 $-1 #
coedge $-1 $96 $95 $244 $245 reversed $38 $-1 #
edge $-1 $163 -5 $246 5 $96 $247 forward 7 unknown #
vertex $-1 $98 $248 #
straight-curve $-1 -25 0 5 0 -1 0 I I #
coedge $-1 $104 $244 $99 $166 forward $173 $-1 #
edge $249 $168 -25 $111 25 $99 $250 forward 7 unknown #
attrib_edge_convexity-kcp-attrib $-1 $251 $-1 $100 1 #
vertex $-1 $166 $252 #
straight-curve $-1 -25 25 0 0 0 -1 I I #
convexity-sys-attrib $-1 $-1 $101 $62 #
point $-1 -25 25 5 #
coedge $-1 $244 $104 $106 $176 forward $173 $-1 #
loop $-1 $-1 $104 $91 #
attrib_edge_convexity-kcp-attrib $-1 $253 $-1 $105 1 #
straight-curve $-1 25 0 -5 0 -1 0 I I #
edge $254 $108 -25 $246 25 $106 $255 forward 7 unknown #
convexity-sys-attrib $-1 $-1 $107 $65 #
point $-1 25 -25 -5 #
convexity-sys-attrib $-1 $-1 $110 $66 #
point $-1 25 25 -5 #
straight-curve $-1 0 -25 5 1 0 0 I I #
model_id-kcp-attrib $-1 $-1 $-1 $114 1 990549439 50 1026686977 10 #
face $256 $-1 $257 $7 $-1 $258 reversed single #
loop $-1 $68 $259 $114 #
plane-surface $-1 0 0 5 0 0 1 1 0 0 forward_v I I I I #
model_id-kcp-attrib $-1 $-1 $-1 $119 1 990549439 50 1026686978 3 #
face $260 $-1 $134 $15 $-1 $261 reversed single #
loop $-1 $-1 $203 $119 #
plane-surface $-1 0 25 0 0 -1 0 0 0 -1 forward_v I I I I #
coedge $-1 $262 $201 $204 $263 forward $120 $-1 #
coedge $-1 $207 $122 $123 $195 reversed $75 $-1 #
coedge $-1 $201 $262 $122 $193 reversed $120 $-1 #
edge $-1 $208 -5 $264 5 $192 $265 forward 7 unknown #
coedge $-1 $124 $123 $262 $266 forward $47 $-1 #
edge $-1 $199 -25 $264 25 $191 $267 forward 7 unknown #
coedge $-1 $204 $203 $124 $197 reversed $188 $-1 #
edge $-1 $268 -25 $198 25 $196 $269 forward 7 unknown #
vertex $-1 $126 $270 #
vertex $-1 $210 $271 #
straight-curve $-1 25 0 -5 0 -1 0 I I #
coedge $-1 $190 $192 $127 $202 reversed $120 $-1 #
edge $-1 $205 -25 $208 25 $201 $272 forward 7 unknown #
coedge $-1 $196 $128 $133 $211 forward $188 $-1 #
coedge $-1 $128 $196 $190 $263 reversed $188 $-1 #
vertex $-1 $129 $273 #
straight-curve $-1 0 25 5 -1 0 0 I I #
coedge $-1 $130 $191 $132 $210 reversed $75 $-1 #
vertex $-1 $202 $274 #
straight-curve $-1 0 -25 5 1 0 0 I I #
edge $-1 $135 -5 $199 5 $132 $275 forward 7 unknown #
edge $-1 $136 -5 $198 5 $133 $276 forward 7 unknown #
point $-1 25 -25 5 #
point $-1 25 25 5 #
face $-1 $-1 $277 $17 $-1 $278 reversed single #
plane-surface $-1 0.23249629077710732 0 5 0 0 1 1 0 0 forward_v I I I I #
coedge $-1 $148 $279 $150 $232 forward $139 $-1 #
coedge $-1 $280 $141 $279 $281 reversed $83 $-1 #
coedge $-1 $141 $280 $142 $222 forward $83 $-1 #
coedge $-1 $144 $150 $141 $220 reversed $151 $-1 #
edge $-1 $223 2.0218231385911616 $282 5.8321584953833217 $141 $283 forward 7 unknown #
coedge $-1 $143 $142 $284 $285 forward $51 $-1 #
edge $-1 $286 0 $223 10 $218 $287 forward 7 unknown #
vertex $-1 $222 $288 #
ellipse-curve $-1 -9 -9 5 0 0 -1 10 0 0 1 I I #
coedge $-1 $284 $289 $146 $226 reversed $277 $-1 #
edge $-1 $227 -2.6905658417935285 $230 1.1197695149986318 $146 $290 forward 7 unknown #
vertex $-1 $285 $291 #
straight-curve $-1 0 -13.3588989435407 -5 0 0 1 I I #
coedge $-1 $279 $148 $289 $292 forward $139 $-1 #
vertex $-1 $226 $293 #
straight-curve $-1 13.3588989435407 0 -5 0 0 1 I I #
edge $-1 $282 -2.6905658417935281 $152 1.1197695149986318 $216 $294 forward 7 unknown #
point $-1 13.3588989435407 0 5 #
point $-1 0 -13.3588989435407 5 #
model_id-kcp-attrib $-1 $-1 $-1 $156 1 990549439 50 1026686977 8 #
face $295 $114 $296 $7 $-1 $297 reversed single #
loop $-1 $-1 $298 $156 #
cone-surface $-1 -9 -9 0 0 0 1 10 0 0 1 I I 0 1 10 forward I I I I #
coedge $-1 $299 $300 $301 $302 forward $157 $-1 #
coedge $-1 $303 $159 $304 $305 reversed $92 $-1 #
coedge $-1 $159 $303 $306 $307 reversed $92 $-1 #
coedge $-1 $308 $309 $159 $243 forward $296 $-1 #
edge $-1 $310 -5 $311 5 $242 $312 forward 7 unknown #
coedge $-1 $165 $172 $161 $245 forward $173 $-1 #
edge $313 $246 -25 $168 25 $161 $314 forward 7 unknown #
vertex $-1 $245 $315 #
straight-curve $-1 -25 -25 0 0 0 -1 I I #
point $-1 -25 -25 5 #
attrib_edge_convexity-kcp-attrib $-1 $316 $-1 $166 1 #
straight-curve $-1 0 25 -5 1 0 0 I I #
convexity-sys-attrib $-1 $-1 $167 $100 #
point $-1 -25 25 -5 #
convexity-sys-attrib $-1 $-1 $174 $105 #
attrib_edge_convexity-kcp-attrib $-1 $317 $-1 $176 1 #
straight-curve $-1 0 -25 -5 -1 0 0 I I #
model_id-kcp-attrib $-1 $-1 $-1 $183 1 990549439 50 1026686977 11 #
loop $-1 $-1 $318 $183 #
cone-surface $-1 9 -9 0 0 0 1 10 0 0 1 I I 0 1 10 forward I I I I #
coedge $-1 $319 $320 $321 $322 forward $184 $-1 #
model_id-kcp-attrib $-1 $-1 $-1 $187 1 990549439 50 1026686978 2 #
plane-surface $-1 25 0 0 -1 0 0 0 0 1 forward_v I I I I #
coedge $-1 $192 $190 $194 $266 reversed $120 $-1 #
edge $-1 $205 -5 $268 5 $204 $323 forward 7 unknown #
vertex $-1 $266 $324 #
straight-curve $-1 -25 -25 0 0 0 -1 I I #
edge $-1 $264 -25 $268 25 $262 $325 forward 7 unknown #
straight-curve $-1 0 -25 -5 -1 0 0 I I #
vertex $-1 $197 $326 #
straight-curve $-1 0 25 -5 1 0 0 I I #
point $-1 25 25 -5 #
point $-1 25 -25 -5 #
straight-curve $-1 -25 0 5 0 -1 0 I I #
point $-1 -25 25 5 #
point $-1 -25 -25 5 #
straight-curve $-1 25 -25 0 0 0 -1 I I #
straight-curve $-1 25 25 0 0 0 -1 I I #
loop $-1 $-1 $225 $214 #
plane-surface $-1 0.23249629077710732 0 -5 0 0 1 1 0 0 forward_v I I I I #
coedge $-1 $216 $229 $217 $281 forward $139 $-1 #
coedge $-1 $218 $217 $327 $328 forward $83 $-1 #
edge $-1 $329 0 $282 10 $279 $330 forward 7 unknown #
vertex $-1 $281 $331 #
ellipse-curve $-1 -9 9 5 0 0 -1 10 0 0 1 I I #
coedge $-1 $327 $225 $221 $285 reversed $277 $-1 #
edge $-1 $286 2.0218231385911616 $227 5.8321584953833217 $221 $332 forward 7 unknown #
vertex $-1 $328 $333 #
straight-curve $-1 -13.358898943540702 0 -5 0 0 1 I I #
point $-1 -13.358898943540702 0 5 #
coedge $-1 $225 $327 $229 $292 reversed $277 $-1 #
ellipse-curve $-1 9 -9 -5 0 0 1 10 0 0 1 I I #
point $-1 0 -13.3588989435407 -5 #
edge $-1 $230 -1.1197695149986318 $329 2.6905658417935285 $229 $334 forward 7 unknown #
point $-1 13.3588989435407 0 -5 #
ellipse-curve $-1 9 9 5 0 0 -1 10 0 0 1 I I #
model_id-kcp-attrib $-1 $-1 $-1 $236 1 990549439 50 1026686977 9 #
loop $-1 $-1 $335 $236 #
cone-surface $-1 9 9 0 0 0 1 10 0 0 1 I I 0 1 10 forward I I I I #
coedge $-1 $336 $337 $338 $339 forward $237 $-1 #
coedge $-1 $340 $239 $341 $342 forward $157 $-1 #
coedge $-1 $239 $343 $344 $345 forward $157 $-1 #
coedge $-1 $344 $318 $239 $302 reversed $257 $-1 #
edge $346 $347 0 $348 1.1197695149986318 $239 $349 forward 7 unknown #
coedge $-1 $241 $240 $350 $351 reversed $92 $-1 #
coedge $-1 $352 $353 $240 $305 forward $184 $-1 #
edge $-1 $354 2.0218231385911616 $310 5.8321584953833217 $304 $355 forward 7 unknown #
coedge $-1 $343 $340 $241 $307 forward $157 $-1 #
edge $356 $311 0.4510268117962648 $357 4.2613621685884251 $306 $358 forward 7 unknown #
coedge $-1 $341 $242 $340 $359 reversed $296 $-1 #
coedge $-1 $242 $360 $352 $361 reversed $296 $-1 #
vertex $-1 $243 $362 #
vertex $-1 $243 $363 #
straight-curve $-1 0 13.3588989435407 0 0 0 -1 I I #
attrib_edge_convexity-kcp-attrib $-1 $364 $-1 $245 1 #
straight-curve $-1 -25 0 -5 0 1 0 I I #
point $-1 -25 -25 -5 #
convexity-sys-attrib $-1 $-1 $249 $166 #
convexity-sys-attrib $-1 $-1 $254 $176 #
coedge $-1 $301 $321 $335 $365 reversed $257 $-1 #
coedge $-1 $353 $259 $366 $367 forward $184 $-1 #
coedge $-1 $259 $352 $360 $368 forward $184 $-1 #
coedge $-1 $318 $366 $259 $322 reversed $257 $-1 #
edge $-1 $369 -1.1197695149986318 $370 0 $259 $371 forward 7 unknown #
straight-curve $-1 -25 25 0 0 0 -1 I I #
point $-1 -25 -25 -5 #
straight-curve $-1 -25 0 -5 0 1 0 I I #
point $-1 -25 25 -5 #
coedge $-1 $289 $284 $280 $328 reversed $277 $-1 #
edge $-1 $329 0.4510268117962648 $286 4.2613621685884251 $280 $372 forward 7 unknown #
vertex $-1 $292 $373 #
straight-curve $-1 0 13.358898943540702 -5 0 0 1 I I #
point $-1 0 13.358898943540702 5 #
ellipse-curve $-1 -9 -9 -5 0 0 1 10 0 0 1 I I #
point $-1 -13.3588989435407 0 -5 #
ellipse-curve $-1 9 9 -5 0 0 1 10 0 0 1 I I #
coedge $-1 $360 $341 $318 $365 forward $296 $-1 #
coedge $-1 $350 $298 $343 $374 reversed $237 $-1 #
coedge $-1 $298 $350 $353 $375 reversed $237 $-1 #
coedge $-1 $366 $344 $298 $339 reversed $257 $-1 #
edge $-1 $376 -5 $377 5 $298 $378 forward 7 unknown #
coedge $-1 $306 $299 $308 $359 forward $157 $-1 #
coedge $-1 $335 $308 $299 $342 reversed $296 $-1 #
edge $379 $348 -1.1197695149986318 $380 0 $299 $381 forward 7 unknown #
coedge $-1 $300 $306 $336 $374 forward $157 $-1 #
coedge $-1 $338 $301 $300 $345 reversed $257 $-1 #
edge $382 $377 -2.6905658417935285 $347 0 $300 $349 forward 7 unknown #
attrib_edge_convexity-kcp-attrib $-1 $383 $-1 $302 1 #
vertex $-1 $302 $384 #
vertex $-1 $365 $385 #
ellipse-curve $-1 9 -9 -5 0 0 1 10 0 0 1 I I #
coedge $-1 $337 $336 $303 $351 forward $237 $-1 #
edge $-1 $357 -5 $354 5 $350 $386 forward 7 unknown #
coedge $-1 $320 $304 $309 $361 forward $184 $-1 #
coedge $-1 $304 $319 $337 $375 forward $184 $-1 #
vertex $-1 $305 $387 #
ellipse-curve $-1 -9 9 5 0 0 -1 10 0 0 1 I I #
attrib_edge_convexity-kcp-attrib $-1 $388 $-1 $307 1 #
vertex $-1 $307 $389 #
ellipse-curve $-1 -9 9 -5 0 0 1 10 0 0 1 I I #
edge $390 $380 0 $311 2.6905658417935285 $340 $381 forward 7 unknown #
coedge $-1 $309 $335 $320 $368 reversed $296 $-1 #
edge $-1 $310 -2.6905658417935285 $391 0 $352 $392 forward 7 unknown #
point $-1 0 13.3588989435407 5 #
point $-1 0 13.3588989435407 -5 #
convexity-sys-attrib $-1 $-1 $313 $245 #
edge $-1 $348 -5 $369 5 $335 $393 forward 7 unknown #
coedge $-1 $321 $338 $319 $367 reversed $257 $-1 #
edge $-1 $370 0 $376 2.6905658417935285 $319 $371 forward 7 unknown #
edge $-1 $391 0 $369 1.1197695149986318 $320 $392 forward 7 unknown #
vertex $-1 $322 $394 #
vertex $-1 $322 $395 #
ellipse-curve $-1 9 -9 5 0 0 -1 10 0 0 1 I I #
ellipse-curve $-1 -9 9 -5 0 0 1 10 0 0 1 I I #
point $-1 0 13.3588989435407 -5 #
edge $396 $357 2.0218231385911616 $377 5.8321584953833217 $343 $397 forward 7 unknown #
edge $-1 $376 0.4510268117962648 $354 4.2613621685884251 $353 $398 forward 7 unknown #
vertex $-1 $367 $399 #
vertex $-1 $339 $400 #
straight-curve $-1 0 -13.3588989435407 0 0 0 -1 I I #
attrib_edge_convexity-kcp-attrib $-1 $401 $-1 $342 1 #
vertex $-1 $342 $402 #
ellipse-curve $-1 9 9 -5 0 0 1 10 0 0 1 I I #
attrib_edge_convexity-kcp-attrib $-1 $403 $-1 $345 1 #
convexity-sys-attrib $-1 $-1 $346 $302 #
point $-1 19 -9 -5 #
point $-1 13.3588989435407 0 -5 #
straight-curve $-1 -13.3588989435407 0 0 0 0 1 I I #
point $-1 -13.3588989435407 0 5 #
convexity-sys-attrib $-1 $-1 $356 $307 #
point $-1 -13.3588989435407 0 -5 #
attrib_edge_convexity-kcp-attrib $-1 $404 $-1 $359 1 #
vertex $-1 $361 $405 #
ellipse-curve $-1 9 9 5 0 0 -1 10 0 0 1 I I #
straight-curve $-1 13.3588989435407 0 0 0 0 1 I I #
point $-1 13.3588989435407 0 5 #
point $-1 19 -9 5 #
attrib_edge_convexity-kcp-attrib $-1 $406 $-1 $374 1 #
ellipse-curve $-1 -9 -9 -5 0 0 1 10 0 0 1 I I #
ellipse-curve $-1 -9 -9 5 0 0 -1 10 0 0 1 I I #
point $-1 0 -13.3588989435407 5 #
point $-1 0 -13.3588989435407 -5 #
convexity-sys-attrib $-1 $-1 $379 $342 #
point $-1 19 9 -5 #
convexity-sys-attrib $-1 $-1 $382 $345 #
convexity-sys-attrib $-1 $-1 $390 $359 #
point $-1 19 9 5 #
convexity-sys-attrib $-1 $-1 $396 $374 #
End-of-ACIS-data 