105 239 1 0                             
body $-1 $1 $-1 $-1 #
lump $-1 $-1 $2 $0 #
shell $-1 $-1 $-1 $3 $1 #
face $-1 $4 $5 $2 $-1 $6 reversed single #
face $-1 $7 $8 $2 $-1 $9 reversed single #
loop $-1 $10 $11 $3 #
cone-surface $-1 -25 0 30 1 0 -3.49148133884313e-15 -2.09488880330588e-14 0 -6 1 0 1 0 #
face $-1 $12 $13 $2 $-1 $14 forward single #
loop $-1 $15 $16 $4 #
cone-surface $-1 0 0 30 1 0 -3.49148133884313e-15 -1.2220184685951e-14 0 -3.5 1 0 1 0 #
loop $-1 $-1 $17 $3 #
coedge $-1 $11 $11 $18 $19 1 $5 $-1 #
face $-1 $20 $21 $2 $-1 $22 forward single #
loop $-1 $23 $24 $7 #
plane-surface $-1 15 0 35 -1 0 0 0 0 1 0 #
loop $-1 $-1 $25 $4 #
coedge $-1 $16 $16 $24 $26 1 $8 $-1 #
coedge $-1 $17 $17 $27 $28 1 $10 $-1 #
coedge $-1 $18 $18 $11 $19 0 $29 $-1 #
edge $-1 $30 $30 $18 $31 0 #
face $-1 $32 $29 $2 $-1 $33 forward single #
loop $-1 $-1 $34 $12 #
plane-surface $-1 0 1.26217744835362e-29 15 0 0 1 1 0 0 0 #
loop $-1 $-1 $35 $7 #
coedge $-1 $24 $24 $16 $26 0 $13 $-1 #
coedge $-1 $25 $25 $36 $37 1 $15 $-1 #
edge $-1 $38 $38 $24 $39 0 #
coedge $-1 $27 $27 $17 $28 0 $40 $-1 #
edge $-1 $41 $41 $27 $42 0 #
loop $-1 $43 $18 $20 #
vertex $-1 $19 $44 #
ellipse-curve $-1 -15 0 30 -1 0 0 -2.09488880330588e-14 0 -6 1 #
face $-1 $45 $46 $2 $-1 $47 forward single #
plane-surface $-1 -15 0 35 1 0 0 0 0 -1 0 #
coedge $-1 $48 $49 $50 $51 1 $21 $-1 #
coedge $-1 $52 $53 $54 $55 1 $23 $-1 #
coedge $-1 $36 $36 $25 $37 0 $56 $-1 #
edge $-1 $57 $57 $36 $58 0 #
vertex $-1 $26 $59 #
ellipse-curve $-1 15 1.26217744835362e-29 29.9999999999999 1 0 0 -1.2220184685951e-14 0 -3.5 1 #
loop $-1 $60 $27 $61 #
vertex $-1 $28 $62 #
ellipse-curve $-1 -30 0 30 1 0 0 -2.09488880330588e-14 0 -6 1 #
loop $-1 $-1 $63 $20 #
point $-1 -15 -4.18977760661176e-14 36 #
face $-1 $64 $65 $2 $-1 $66 forward single #
loop $-1 $-1 $67 $32 #
plane-surface $-1 0 15 5.2372220082647e-14 0 1 3.49148133884313e-15 -1 -0 0 0 #
coedge $-1 $68 $34 $69 $70 1 $21 $-1 #
coedge $-1 $34 $68 $71 $72 1 $21 $-1 #
coedge $-1 $53 $52 $34 $51 0 $23 $-1 #
edge $-1 $73 $74 $50 $75 0 #
coedge $-1 $50 $35 $76 $77 1 $23 $-1 #
coedge $-1 $35 $50 $78 $79 1 $23 $-1 #
coedge $-1 $80 $81 $35 $55 0 $65 $-1 #
edge $-1 $82 $83 $54 $84 0 #
loop $-1 $85 $36 $86 #
vertex $-1 $37 $87 #
ellipse-curve $-1 30 0 29.9999999999999 -1 0 0 -1.2220184685951e-14 0 -3.5 1 #
point $-1 15 2.4440369371902e-14 33.4999999999999 #
loop $-1 $-1 $88 $61 #
face $-1 $89 $40 $2 $-1 $90 forward single #
point $-1 -30 4.18977760661176e-14 36 #
coedge $-1 $91 $92 $93 $94 1 $43 $-1 #
face $-1 $61 $95 $2 $-1 $96 forward single #
loop $-1 $-1 $54 $45 #
cone-surface $-1 0 0 0 0 -1 -3.49148133884313e-15 50 0 0 1 0 1 0 #
coedge $-1 $69 $97 $92 $98 0 $46 $-1 #
coedge $-1 $49 $48 $99 $100 1 $21 $-1 #
coedge $-1 $76 $67 $48 $70 0 $46 $-1 #
edge $-1 $101 $73 $69 $102 0 #
coedge $-1 $103 $78 $49 $72 0 $104 $-1 #
edge $-1 $74 $105 $71 $106 0 #
vertex $-1 $70 $107 #
vertex $-1 $72 $108 #
straight-curve $-1 15 1.26217744835362e-29 15 0 -1 0 #
coedge $-1 $109 $69 $52 $77 0 $46 $-1 #
edge $-1 $73 $82 $76 $110 0 #
coedge $-1 $71 $111 $53 $79 0 $104 $-1 #
edge $-1 $83 $74 $78 $112 0 #
coedge $-1 $113 $54 $111 $114 1 $65 $-1 #
coedge $-1 $54 $113 $109 $115 1 $65 $-1 #
vertex $-1 $55 $116 #
vertex $-1 $114 $117 #
straight-curve $-1 15 -1.66533046006909e-13 47.6969600708473 0 -1 -3.49148133884313e-15 #
loop $-1 $-1 $118 $86 #
face $-1 $119 $56 $2 $-1 $120 forward single #
point $-1 30 -2.4440369371902e-14 33.4999999999999 #
coedge $-1 $121 $122 $123 $124 1 $60 $-1 #
face $-1 $125 $104 $2 $-1 $126 forward single #
plane-surface $-1 -30 0 35 -1 0 0 0 0 1 0 #
coedge $-1 $99 $63 $103 $127 1 $43 $-1 #
coedge $-1 $63 $99 $67 $98 1 $43 $-1 #
coedge $-1 $128 $129 $63 $94 0 $130 $-1 #
edge $-1 $131 $132 $93 $133 0 #
loop $-1 $-1 $134 $64 #
plane-surface $-1 -45 1.26217744835362e-29 15 0 0 1 1 0 0 0 #
coedge $-1 $67 $135 $128 $136 0 $46 $-1 #
edge $-1 $132 $101 $67 $137 0 #
coedge $-1 $92 $91 $68 $100 0 $43 $-1 #
edge $-1 $105 $101 $99 $138 0 #
vertex $-1 $70 $139 #
straight-curve $-1 0 14.9999999999999 15 1 0 0 #
coedge $-1 $140 $71 $91 $127 0 $104 $-1 #
loop $-1 $-1 $103 $89 #
vertex $-1 $72 $141 #
straight-curve $-1 0 -15.0000000000001 15 -1 -0 0 #
point $-1 15 15 15 #
point $-1 15 -15 15 #
coedge $-1 $142 $76 $81 $115 0 $46 $-1 #
straight-curve $-1 15 14.9999999999999 17.5000000000001 0 -3.49148133884313e-15 1 #
coedge $-1 $78 $143 $80 $114 0 $104 $-1 #
straight-curve $-1 15 -15.0000000000001 17.4999999999999 0 3.49148133884313e-15 -1 #
coedge $-1 $81 $80 $118 $144 0 $65 $-1 #
edge $-1 $145 $83 $111 $146 0 #
edge $-1 $82 $147 $109 $148 0 #
point $-1 15 15 47.6969600708473 #
point $-1 15 -15 47.6969600708472 #
coedge $-1 $149 $150 $113 $144 1 $85 $-1 #
face $-1 $151 $152 $2 $-1 $153 forward single #
plane-surface $-1 30 0 35 1 0 0 0 0 -1 0 #
coedge $-1 $154 $88 $135 $155 1 $60 $-1 #
coedge $-1 $88 $154 $156 $157 1 $60 $-1 #
coedge $-1 $129 $128 $88 $124 0 $130 $-1 #
edge $-1 $158 $159 $123 $160 0 #
face $-1 $86 $161 $2 $-1 $66 forward single #
plane-surface $-1 0 -15 -5.2372220082647e-14 0 -1 -3.49148133884313e-15 1 0 0 0 #
edge $-1 $105 $131 $103 $162 0 #
coedge $-1 $123 $93 $97 $136 1 $130 $-1 #
coedge $-1 $93 $123 $140 $163 1 $130 $-1 #
loop $-1 $-1 $93 $151 #
vertex $-1 $94 $164 #
vertex $-1 $136 $165 #
straight-curve $-1 -15 -1.66533046006909e-13 47.6969600708473 -0 1 3.49148133884313e-15 #
coedge $-1 $166 $167 $168 $169 1 $95 $-1 #
coedge $-1 $97 $170 $121 $155 0 $46 $-1 #
edge $-1 $158 $132 $97 $148 0 #
straight-curve $-1 -15 14.9999999999999 17.5000000000001 0 3.49148133884313e-15 -1 #
straight-curve $-1 -15 1.26217744835362e-29 15 0 1 0 #
point $-1 -15 15 15 #
coedge $-1 $156 $103 $129 $163 0 $104 $-1 #
point $-1 -15 -15 15 #
coedge $-1 $171 $109 $150 $172 0 $46 $-1 #
coedge $-1 $111 $173 $149 $174 0 $104 $-1 #
edge $-1 $145 $147 $113 $175 0 #
vertex $-1 $144 $176 #
ellipse-curve $-1 0 -15 -5.2372220082647e-14 0 -1 -3.49148133884313e-15 50 0 0 1 #
vertex $-1 $115 $177 #
ellipse-curve $-1 0 15 5.2372220082647e-14 0 1 3.49148133884313e-15 50 0 0 1 #
coedge $-1 $178 $118 $143 $174 1 $85 $-1 #
coedge $-1 $118 $178 $142 $172 1 $85 $-1 #
face $-1 $-1 $130 $2 $-1 $66 forward single #
loop $-1 $-1 $179 $119 #
plane-surface $-1 45 1.26217744835362e-29 15 0 0 1 1 0 0 0 #
coedge $-1 $122 $121 $180 $181 0 $60 $-1 #
edge $-1 $182 $158 $135 $183 0 #
coedge $-1 $184 $140 $122 $157 0 $104 $-1 #
edge $-1 $159 $185 $156 $186 0 #
vertex $-1 $155 $187 #
vertex $-1 $163 $188 #
straight-curve $-1 -30 -1.39659253553725e-13 40 0 -1 -3.49148133884313e-15 #
loop $-1 $-1 $168 $125 #
straight-curve $-1 -15 -15.0000000000001 17.4999999999999 0 -3.49148133884313e-15 1 #
edge $-1 $131 $159 $140 $146 0 #
point $-1 -15 -15 47.6969600708472 #
point $-1 -15 14.9999999999998 47.6969600708473 #
coedge $-1 $180 $134 $184 $189 1 $95 $-1 #
coedge $-1 $134 $180 $170 $190 1 $95 $-1 #
coedge $-1 $191 $192 $134 $169 0 $161 $-1 #
edge $-1 $193 $194 $168 $195 0 #
coedge $-1 $135 $196 $167 $190 0 $46 $-1 #
coedge $-1 $197 $142 $198 $199 0 $46 $-1 #
edge $-1 $147 $200 $142 $201 0 #
coedge $-1 $143 $202 $203 $204 0 $104 $-1 #
edge $-1 $205 $145 $143 $206 0 #
straight-curve $-1 30 -1.39659253553725e-13 40 -0 1 3.49148133884313e-15 #
point $-1 30 -15 40 #
point $-1 30 15 40 #
coedge $-1 $150 $149 $207 $208 0 $85 $-1 #
coedge $-1 $198 $203 $209 $210 1 $152 $-1 #
coedge $-1 $167 $166 $154 $181 1 $95 $-1 #
edge $-1 $182 $185 $154 $211 0 #
vertex $-1 $190 $212 #
straight-curve $-1 -30 14.9999999999999 17.5000000000001 0 -3.49148133884313e-15 1 #
coedge $-1 $213 $156 $166 $189 0 $104 $-1 #
vertex $-1 $189 $214 #
straight-curve $-1 -30 -15.0000000000001 17.4999999999999 0 3.49148133884313e-15 -1 #
point $-1 -30 15 40 #
point $-1 -30 -15 40 #
edge $-1 $185 $193 $184 $215 0 #
edge $-1 $194 $182 $170 $216 0 #
coedge $-1 $217 $168 $196 $218 1 $161 $-1 #
coedge $-1 $168 $219 $213 $220 1 $161 $-1 #
vertex $-1 $169 $221 #
vertex $-1 $218 $222 #
straight-curve $-1 -47.6969600708473 -5.2372220082647e-14 15 -0 1 3.49148133884313e-15 #
coedge $-1 $170 $197 $191 $218 0 $46 $-1 #
coedge $-1 $196 $171 $217 $223 0 $46 $-1 #
coedge $-1 $207 $179 $171 $199 1 $152 $-1 #
edge $-1 $200 $224 $171 $225 0 #
vertex $-1 $199 $226 #
straight-curve $-1 30 14.9999999999999 17.5000000000001 0 3.49148133884313e-15 -1 #
coedge $-1 $173 $213 $219 $227 0 $104 $-1 #
coedge $-1 $179 $207 $173 $204 1 $152 $-1 #
edge $-1 $228 $205 $173 $229 0 #
vertex $-1 $204 $230 #
straight-curve $-1 30 -15.0000000000001 17.4999999999999 0 -3.49148133884313e-15 1 #
coedge $-1 $203 $198 $178 $208 1 $152 $-1 #
edge $-1 $205 $200 $178 $231 0 #
coedge $-1 $219 $217 $179 $210 0 $161 $-1 #
edge $-1 $224 $228 $209 $232 0 #
straight-curve $-1 -30 1.26217744835362e-29 15 0 -1 0 #
point $-1 -30 15 15 #
coedge $-1 $202 $184 $192 $220 0 $104 $-1 #
point $-1 -30 -15 15 #
straight-curve $-1 -22.5 -15.0000000000001 15 -1 -0 0 #
straight-curve $-1 -22.5 14.9999999999999 15 1 0 0 #
coedge $-1 $209 $191 $197 $223 1 $161 $-1 #
edge $-1 $233 $194 $196 $148 0 #
coedge $-1 $192 $209 $202 $227 1 $161 $-1 #
edge $-1 $193 $234 $213 $146 0 #
point $-1 -47.6969600708473 -15 15 #
point $-1 -47.6969600708473 14.9999999999999 15 #
edge $-1 $224 $233 $197 $148 0 #
vertex $-1 $210 $235 #
straight-curve $-1 22.5 14.9999999999999 15 1 0 0 #
point $-1 30 15 15 #
edge $-1 $234 $228 $202 $146 0 #
vertex $-1 $227 $236 #
straight-curve $-1 22.5 -15.0000000000001 15 -1 -0 0 #
point $-1 30 -15 15 #
straight-curve $-1 30 1.26217744835362e-29 15 0 1 0 #
straight-curve $-1 47.6969600708473 -5.2372220082647e-14 15 0 -1 -3.49148133884313e-15 #
vertex $-1 $223 $237 #
vertex $-1 $220 $238 #
point $-1 47.6969600708473 15 15 #
point $-1 47.6969600708473 -15 15 #
point $-1 50 15 5.2372220082647e-14 #
point $-1 50 -15 -5.2372220082647e-14 #
