**ABCDEFGHIJKLMNOPQRSTUVWXYZabcdefghijklmnopqrstuvwxyz**************************
**PARASOLID !"#$%&'()*+,-./:;<=>?@[\]^_`{|}~0123456789**************************
**PART1;
MC=hp;
MC_MODEL=9000/375;
MC_ID=hpug05:0;
OS=hp-ux;
OS_RELEASE=7.03;
FRU=mdc_ugii_v7.0_djl_can_vrh;
APPL=unigraphics;
SITE=unknown;
USER=;
FORMAT=text;
GUISE=transmit;
KEY=lowerpunch;
FILE=/users/hopkins/lowerpunch.xmt_txt;
DATE=24-jun-1991;
**PART2;
SCH=SCH_301011_3000;
USFLD_SIZE=0;
**PART3;
**END_OF_HEADER*****************************************************************
T50 : TRANSMIT FILE created by modeller version 30101115 SCH_301011_30000 12 1 1
261 2 3 0 0 0 1e3 1e-8 4 2 0 5 0 1 6 81 2 2 1158 7 1 0 0 0 0 8 9 70 3 0 1 0 0 4
 3 20 4 10 10 1 102 10 4 lowerpunch13 6 446 0 1 0 11 12 13 14 15 16 14 11 442 17
 18 0 19 6 14 -16 12 439 0 20 0 21 15 18 13 363 0 22 0 23 16 50 14 445 0 11 24 0
 0 +-.8763 .8001 -.3937 0 0 -1 -1 0 0 31 15 441 0 12 25 0 0 --.762 -.6858 -.3937
 0 0 -1 -1 0 0 .0508 29 16 365 0 13 26 0 -.762 -.7366 -.3937 29 26 213 0 23 27 1
6 -.83959651815302 .631989357050035 -.3937 18 23 176 0 28 13 29 26 29 27 214 0 2
9 30 26 -.744268283584761 .697503515234789 -.3937 18 29 177 0 31 23 32 27 29 30
 215 0 32 33 27 -.410886284661117 .793088563877232 -.3937 18 32 178 0 34 29 35 3
0 29 33 216 0 35 36 30 -.3861842375901 .798338571737601 -.3937 18 35 179 0 37 32
 38 33 29 36 217 0 38 39 33 -.3609919553888185 .8001 -.3937 18 38 180 0 40 35 41
 36 29 39 218 0 41 42 36 .360991955388818 .8001 -.3937 18 41 181 0 43 38 44 39 2
9 42 219 0 44 45 39 .3861842375901005 .798338571737601 -.3937 18 44 182 0 46 41
 47 42 29 45 220 0 47 48 42 .4108862846611165 .793088563877232 -.3937 18 47 183
 0 49 44 50 45 29 48 221 0 50 51 45 .744268283584761 .697503515234789 -.3937 18
 50 184 0 52 47 53 48 29 51 222 0 53 54 48 .839596518153021 .631989357050034 -.3
937 18 53 185 0 55 50 56 51 29 54 223 0 56 57 51 .8763 .522296915884443 -.3937 1
8 56 186 0 58 53 59 54 29 57 224 0 59 60 54 .8763 -.693378561197165 -.3937 18 59
 187 0 61 56 62 57 29 60 225 0 62 63 57 .845042014272635 -.768842014272635 -.393
7 18 62 188 0 64 59 65 60 29 63 226 0 65 66 60 .769578561197165 -.8001 -.3937 18
 65 189 0 67 62 68 63 29 66 227 0 68 69 63 -.769578561197165 -.8001 -.3937 18 68
 190 0 70 65 71 66 29 69 228 0 71 72 66 -.845042014272635 -.768842014272634 -.39
37 18 71 191 0 73 68 74 69 29 72 229 0 74 75 69 -.8763 -.693378561197165 -.3937
 18 74 192 0 76 71 77 72 29 75 230 0 77 78 72 -.8763 .522296915884443 -.3937 18
 77 193 0 79 74 80 75 29 78 138 0 80 81 75 -.83959651815302 .631989357050035 -.4
572 18 80 136 0 82 77 83 78 29 81 130 0 83 84 78 -.744268283584761 .697503515234
789 -.4572 18 83 128 0 85 80 86 81 29 84 122 0 86 87 81 -.410886284661117 .79308
8563877232 -.4572 18 86 120 0 88 83 89 84 29 87 114 0 89 90 84 -.3861842375901 .
798338571737601 -.4572 18 89 112 0 91 86 92 87 29 90 106 0 92 93 87 -.3609919553
888185 .8001 -.4572 18 92 104 0 94 89 95 90 29 93 98 0 95 96 90 .360991955388818
 .8001 -.4572 18 95 96 0 97 92 98 93 29 96 90 0 98 99 93 .3861842375901005 .7983
38571737601 -.4572 18 98 88 0 100 95 101 96 29 99 82 0 101 102 96 .4108862846611
165 .793088563877232 -.4572 18 101 80 0 103 98 104 99 29 102 74 0 104 105 99 .74
4268283584761 .697503515234789 -.4572 18 104 72 0 106 101 107 102 29 105 66 0 10
7 108 102 .839596518153021 .631989357050034 -.4572 18 107 64 0 109 104 110 105 2
9 108 58 0 110 111 105 .8763 .522296915884443 -.4572 18 110 56 0 112 107 113 108
 29 111 50 0 113 114 108 .8763 -.693378561197165 -.4572 18 113 48 0 115 110 116
 111 29 114 42 0 116 117 111 .845042014272635 -.768842014272635 -.4572 18 116 40
 0 118 113 119 114 29 117 34 0 119 120 114 .769578561197165 -.8001 -.4572 18 119
 32 0 121 116 122 117 29 120 26 0 122 123 117 -.769578561197165 -.8001 -.4572 18
 122 24 0 124 119 125 120 29 123 18 0 125 126 120 -.845042014272635 -.7688420142
72634 -.4572 18 125 16 0 127 122 128 123 29 126 11 0 128 129 123 -.8763 -.693378
561197165 -.4572 18 128 9 0 130 125 131 126 29 129 8 0 131 132 126 -.8763 .52229
6915884443 -.4572 18 131 6 0 133 128 134 129 29 132 1057 0 134 135 129 -.8128 -.
6858 -.0635 18 134 734 0 136 131 137 132 29 135 1058 0 137 138 132 -.8128 .51609
1791857147 -.0635 18 137 735 0 139 134 140 135 29 138 1059 0 140 141 135 -.72080
2323207384 .638173065482899 -.0635 18 140 736 0 142 137 143 138 29 141 1060 0 14
3 144 138 -.3946639387091395 .731681273625752 -.0635 18 143 737 0 145 140 146 14
1 29 144 1061 0 146 147 141 -.359661615501756 .7366 -.0635 18 146 738 0 148 143
 149 144 29 147 1062 0 149 150 144 .359661615501756 .7366 -.0635 18 149 739 0 15
1 146 152 147 29 150 1063 0 152 153 147 .3946639387091395 .731681273625752 -.063
5 18 152 740 0 154 149 155 150 29 153 1064 0 155 156 150 .720802323207384 .63817
3065482899 -.0635 18 155 741 0 157 152 158 153 29 156 1065 0 158 159 153 .8128 .
516091791857147 -.0635 18 158 742 0 160 155 161 156 29 159 1066 0 161 162 156 .8
128 -.6858 -.0635 18 161 743 0 163 158 164 159 29 162 1067 0 164 165 159 .762 -.
7366 -.0635 18 164 744 0 166 161 167 162 29 165 1068 0 167 168 162 .680426263575
032 -.7366 -.0635 18 167 745 0 169 164 170 165 29 168 1069 0 170 171 165 .638047
289407905 -.729320602022133 -.0635 18 170 746 0 172 167 173 168 29 171 1070 0 17
3 174 168 .328626607697842 -.619791157169014 -.0635 18 173 747 0 175 170 176 171
 29 174 1071 0 176 177 171 .2692960438638645 -.6096 -.0635 18 176 748 0 178 173
 179 174 29 177 1072 0 179 180 174 -.2692960438638645 -.6096 -.0635 18 179 749 0
 181 176 182 177 29 180 1073 0 182 183 177 -.328626607697842 -.619791157169014 -
.0635 18 182 750 0 184 179 185 180 29 183 1074 0 185 186 180 -.638047289407905 -
.729320602022133 -.0635 18 185 751 0 187 182 188 183 29 186 1075 0 188 189 183 -
.680426263575032 -.7366 -.0635 18 188 752 0 190 185 191 186 29 189 1076 0 191 19
2 186 -.762 -.762 0 18 191 753 0 193 188 194 189 29 192 1077 0 194 195 189 -.680
426263575032 -.762 0 18 194 754 0 196 191 197 192 29 195 1078 0 197 198 192 -.62
957149457448 -.75326472242656 0 18 197 755 0 199 194 200 195 29 198 1079 0 200 2
01 195 -.3201508128644165 -.64373527757344 0 18 200 756 0 202 197 203 198 29 201
 1080 0 203 204 198 -.2692960438638645 -.635 0 18 203 757 0 205 200 206 201 29 2
04 1081 0 206 207 201 .2692960438638645 -.635 0 18 206 758 0 208 203 209 204 29
 207 1082 0 209 210 204 .3201508128644165 -.64373527757344 0 18 209 759 0 211 20
6 212 207 29 210 1083 0 212 213 207 .62957149457448 -.75326472242656 0 18 212 76
0 0 214 209 215 210 29 213 1084 0 215 216 210 .680426263575032 -.762 0 18 215 76
1 0 217 212 218 213 29 216 1085 0 218 219 213 .762 -.762 0 18 218 762 0 220 215
 221 216 29 219 1086 0 221 222 216 .8382 -.6858 0 18 221 763 0 223 218 224 219 2
9 222 1087 0 224 225 219 .8382 .516091791857147 0 18 224 764 0 226 221 227 222 2
9 225 1088 0 227 228 222 .72780278784886 .66258932020805 0 18 227 765 0 229 224
 230 225 29 228 1089 0 230 231 225 .401664403350616 .756097528350903 0 18 230 76
6 0 232 227 233 228 29 231 1090 0 233 234 228 .359661615501756 .762 0 18 233 767
 0 235 230 236 231 29 234 1091 0 236 237 231 -.359661615501756 .762 0 18 236 768
 0 238 233 239 234 29 237 1092 0 239 240 234 -.4016644033506165 .756097528350903
 0 18 239 769 0 241 236 242 237 29 240 1093 0 242 243 237 -.72780278784886 .6625
8932020805 0 18 242 770 0 244 239 245 240 29 243 1094 0 245 246 240 -.8382 .5160
91791857147 0 18 245 771 0 247 242 248 243 29 246 1095 0 248 249 243 -.8382 -.68
58 0 18 248 772 0 250 245 251 246 29 249 1096 0 251 252 246 -.762 -.762 -.0635 1
8 251 773 0 253 248 254 249 29 252 1097 0 254 255 249 -.680426263575032 -.762 -.
0635 18 254 774 0 256 251 257 252 29 255 1098 0 257 258 252 -.62957149457448 -.7
5326472242656 -.0635 18 257 775 0 259 254 260 255 29 258 1099 0 260 261 255 -.32
01508128644165 -.64373527757344 -.0635 18 260 776 0 262 257 263 258 29 261 1100
 0 263 264 258 -.2692960438638645 -.635 -.0635 18 263 777 0 265 260 266 261 29 2
64 1101 0 266 267 261 .2692960438638645 -.635 -.0635 18 266 778 0 268 263 269 26
4 29 267 1102 0 269 270 264 .3201508128644165 -.64373527757344 -.0635 18 269 779
 0 271 266 272 267 29 270 1103 0 272 273 267 .62957149457448 -.75326472242656 -.
0635 18 272 780 0 274 269 275 270 29 273 1104 0 275 276 270 .680426263575032 -.7
62 -.0635 18 275 781 0 277 272 278 273 29 276 1105 0 278 279 273 .762 -.762 -.06
35 18 278 782 0 280 275 281 276 29 279 1106 0 281 282 276 .8382 -.6858 -.0635 18
 281 783 0 283 278 284 279 29 282 1107 0 284 285 279 .8382 .516091791857147 -.06
35 18 284 784 0 286 281 287 282 29 285 1108 0 287 288 282 .72780278784886 .66258
932020805 -.0635 18 287 785 0 289 284 290 285 29 288 1109 0 290 291 285 .4016644
03350616 .756097528350903 -.0635 18 290 786 0 292 287 293 288 29 291 1110 0 293
 294 288 .359661615501756 .762 -.0635 18 293 787 0 295 290 296 291 29 294 1111 0
 296 297 291 -.359661615501756 .762 -.0635 18 296 788 0 298 293 299 294 29 297 1
112 0 299 300 294 -.4016644033506165 .756097528350903 -.0635 18 299 789 0 301 29
6 302 297 29 300 1113 0 302 303 297 -.72780278784886 .66258932020805 -.0635 18 3
02 790 0 304 299 305 300 29 303 1114 0 305 306 300 -.8382 .516091791857147 -.063
5 18 305 791 0 307 302 308 303 29 306 1115 0 308 309 303 -.8382 -.6858 -.0635 18
 308 792 0 310 305 311 306 29 309 1136 0 311 312 306 -.680426263575032 -.7366 -.
3937 18 311 813 0 313 308 314 309 29 312 1137 0 314 315 309 -.638047289407905 -.
729320602022133 -.3937 18 314 814 0 316 311 317 312 29 315 1138 0 317 318 312 -.
328626607697842 -.619791157169014 -.3937 18 317 815 0 319 314 320 315 29 318 113
9 0 320 321 315 -.2692960438638645 -.6096 -.3937 18 320 816 0 322 317 323 318 29
 321 1140 0 323 324 318 .2692960438638645 -.6096 -.3937 18 323 817 0 325 320 326
 321 29 324 1141 0 326 327 321 .328626607697842 -.619791157169014 -.3937 18 326
 818 0 328 323 329 324 29 327 1142 0 329 330 324 .638047289407905 -.729320602022
133 -.3937 18 329 819 0 331 326 332 327 29 330 1143 0 332 333 327 .6804262635750
32 -.7366 -.3937 18 332 820 0 334 329 335 330 29 333 1144 0 335 336 330 .762 -.7
366 -.3937 18 335 821 0 337 332 338 333 29 336 1145 0 338 339 333 .8128 -.6858 -
.3937 18 338 822 0 340 335 341 336 29 339 1146 0 341 342 336 .8128 .516091791857
147 -.3937 18 341 823 0 343 338 344 339 29 342 1147 0 344 345 339 .7208023232073
84 .638173065482899 -.3937 18 344 824 0 346 341 347 342 29 345 1148 0 347 348 34
2 .3946639387091395 .731681273625752 -.3937 18 347 825 0 349 344 350 345 29 348
 1149 0 350 351 345 .359661615501756 .7366 -.3937 18 350 826 0 352 347 353 348 2
9 351 1150 0 353 354 348 -.359661615501756 .7366 -.3937 18 353 827 0 355 350 356
 351 29 354 1151 0 356 357 351 -.3946639387091395 .731681273625752 -.3937 18 356
 828 0 358 353 359 354 29 357 1152 0 359 360 354 -.720802323207384 .638173065482
899 -.3937 18 359 829 0 361 356 362 357 29 360 1153 0 362 363 357 -.8128 .516091
791857147 -.3937 18 362 830 0 364 359 365 360 29 363 1154 0 365 366 360 -.8128 -
.6858 -.3937 18 365 831 0 367 362 368 363 29 366 1156 0 368 0 363 -.762 -.7366 -
.0635 18 368 833 0 369 365 0 366 17 369 370 371 372 368 373 374 15 370 531 0 372
 375 0 17 371 370 376 369 13 377 378 17 372 370 369 376 188 379 380 17 373 381 3
82 383 188 369 374 16 374 592 0 369 384 385 386 16 384 591 0 382 387 374 388 16
 385 593 0 389 374 390 391 30 386 915 0 374 391 388 0 +-.762 -.7366 -.0635 -1 0
 0 30 391 916 0 385 392 386 0 +-.762 -.762 0 0 0 -1 31 388 914 0 384 386 393 0 +
-.680426263575032 -.6096 -.0635 0 0 1 1 0 0 .127 30 393 913 0 387 388 394 0 +-.7
34507658286075 -.763465865341839 -.0635 -.942681905686088 -.333692709977376 0 16
 387 590 0 187 395 384 393 31 394 912 0 395 393 396 0 +-.2692960438638645 -.7874
 -.0635 0 0 1 1 0 0 .1778 16 395 589 0 184 397 387 394 30 396 911 0 397 394 398
 0 +-.762 -.6096 -.0635 -1 0 0 16 397 588 0 181 399 395 396 31 398 910 0 399 396
 400 0 -.2692960438638645 -.7874 -.0635 0 0 1 1 0 0 .1778 16 399 587 0 401 402 3
97 398 30 400 909 0 402 398 403 0 +-.619793684883249 -.284067159795177 -.0635 -.
942681905686088 .333692709977376 0 16 402 586 0 175 404 399 400 31 403 908 0 404
 400 405 0 -.680426263575032 -.6096 -.0635 0 0 1 1 0 0 .127 16 404 585 0 172 406
 402 403 30 405 907 0 406 403 407 0 +-.762 -.7366 -.0635 -1 0 0 16 406 584 0 169
 408 404 405 31 407 906 0 408 405 409 0 -.762 -.6858 -.0635 0 0 1 1 0 0 .0508 16
 408 583 0 166 410 406 407 30 409 905 0 410 407 411 0 +.8128 -.6858 -.0635 0 -1
 0 16 410 582 0 163 412 408 409 31 411 904 0 412 409 413 0 -.6858 .5160917918571
47 -.0635 0 0 1 1 0 0 .127 16 412 581 0 160 414 410 411 30 413 903 0 414 411 415
 0 +-.2985998740064235 .930449219928816 -.0635 .961269871068917 -.27560884415262
65 0 16 414 580 0 157 416 412 413 31 415 902 0 416 413 417 0 -.359661615501756 .
6096 -.0635 0 0 1 1 0 0 .127 16 416 579 0 154 418 414 415 30 417 901 0 418 415 4
19 0 +-.762 .7366 -.0635 1 0 0 16 418 578 0 151 420 416 417 31 419 900 0 420 417
 421 0 +-.359661615501756 .6096 -.0635 0 0 1 1 0 0 .1270000050065384 16 420 577
 0 422 423 418 419 30 421 899 0 423 419 424 0 +-1.109636727891452 .5266890753287
25 -.0635 .961269871068917 .275608844152627 0 16 423 576 0 145 425 420 421 31 42
4 898 0 425 421 426 0 +-.6858 .516091791857147 -.0635 0 0 1 1 0 0 .127 16 425 57
5 0 427 428 423 424 30 426 897 0 428 424 429 0 +-.8128 -.6858 -.0635 0 1 0 16 42
8 574 0 139 430 425 426 30 429 12 0 430 426 431 0 +-.8763 .522296915884443 -.457
2 0 -1 0 16 430 10 0 130 432 428 429 30 431 19 0 432 429 433 0 +-.8763 -.6933785
61197165 -.4572 .382683432365088 -.923879532511288 0 16 432 17 0 127 434 430 431
 30 433 27 0 434 431 435 0 +-.845042014272635 -.768842014272634 -.4572 .92387953
2511284 -.3826834323650955 0 16 434 25 0 124 436 432 433 30 435 35 0 436 433 437
 0 +-.769578561197165 -.8001 -.4572 1 0 0 16 436 33 0 121 438 434 435 30 437 43
 0 438 435 439 0 +.769578561197165 -.8001 -.4572 .923879532511287 .3826834323650
885 0 16 438 41 0 118 440 436 437 30 439 51 0 440 437 441 0 +.845042014272635 -.
768842014272635 -.4572 .38268343236509 .923879532511287 0 16 440 49 0 115 442 43
8 439 30 441 59 0 442 439 443 0 +.8763 -.693378561197165 -.4572 0 1 0 16 442 57
 0 112 444 440 441 30 443 67 0 444 441 445 0 +.8763 .522296915884443 -.4572 -.31
7311688344826 .948321302323087 0 16 444 65 0 109 446 442 443 30 445 75 0 446 443
 447 0 +.839596518153021 .631989357050034 -.4572 -.824138788355186 .566387903762
471 0 16 446 73 0 106 448 444 445 30 447 83 0 448 445 449 0 +.744268283584761 .6
97503515234789 -.4572 -.961269871068918 .275608844152627 0 16 448 81 0 103 450 4
46 447 30 449 91 0 450 447 451 0 +.4108862846611165 .793088563877232 -.4572 -.97
8152225571899 .207889931475144 0 16 450 89 0 100 452 448 449 30 451 99 0 452 449
 453 0 +.3861842375901005 .798338571737601 -.4572 -.997564567486108 .06974907666
95502 0 16 452 97 0 97 454 450 451 30 453 107 0 454 451 455 0 +.360991955388818
 .8001 -.4572 -1 0 0 16 454 105 0 94 456 452 453 30 455 115 0 456 453 457 0 +-.3
609919553888185 .8001 -.4572 -.997564567486108 -.0697490766695445 0 16 456 113 0
 91 458 454 455 30 457 123 0 458 455 459 0 +-.3861842375901 .798338571737601 -.4
572 -.978152225571898 -.20788993147515 0 16 458 121 0 88 460 456 457 30 459 131
 0 460 457 461 0 +-.410886284661117 .793088563877232 -.4572 -.961269871068918 -.
275608844152627 0 16 460 129 0 85 462 458 459 30 461 139 0 462 459 463 0 +-.7442
68283584761 .697503515234789 -.4572 -.824138788355188 -.566387903762468 0 16 462
 137 0 82 464 460 461 30 463 147 0 464 461 465 0 +-.83959651815302 .631989357050
035 -.4572 -.317311688344827 -.948321302323087 0 16 464 145 0 466 467 462 463 30
 465 212 0 467 463 468 0 +-.8763 .522296915884443 -.3937 0 -1 0 16 467 175 0 76
 469 464 465 30 468 211 0 469 465 470 0 +-.8763 -.693378561197165 -.3937 .382683
432365088 -.923879532511288 0 16 469 174 0 73 471 467 468 30 470 210 0 471 468 4
72 0 +-.845042014272635 -.768842014272634 -.3937 .923879532511284 -.382683432365
0955 0 16 471 173 0 70 473 469 470 30 472 209 0 473 470 474 0 +-.769578561197165
 -.8001 -.3937 1 0 0 16 473 172 0 67 475 471 472 30 474 208 0 475 472 476 0 +.76
9578561197165 -.8001 -.3937 .923879532511287 .3826834323650885 0 16 475 171 0 64
 477 473 474 30 476 207 0 477 474 478 0 +.845042014272635 -.768842014272635 -.39
37 .38268343236509 .923879532511287 0 16 477 170 0 61 479 475 476 30 478 206 0 4
79 476 480 0 +.8763 -.693378561197165 -.3937 0 1 0 16 479 169 0 58 481 477 478 3
0 480 205 0 481 478 482 0 +.8763 .522296915884443 -.3937 -.317311688344826 .9483
21302323087 0 16 481 168 0 55 483 479 480 30 482 204 0 483 480 484 0 +.839596518
153021 .631989357050034 -.3937 -.824138788355186 .566387903762471 0 16 483 167 0
 52 485 481 482 30 484 203 0 485 482 486 0 +.744268283584761 .697503515234789 -.
3937 -.961269871068918 .275608844152627 0 16 485 166 0 49 487 483 484 30 486 202
 0 487 484 488 0 +.4108862846611165 .793088563877232 -.3937 -.978152225571899 .2
07889931475144 0 16 487 165 0 46 489 485 486 30 488 201 0 489 486 490 0 +.386184
2375901005 .798338571737601 -.3937 -.997564567486108 .0697490766695502 0 16 489
 164 0 43 491 487 488 30 490 200 0 491 488 492 0 +.360991955388818 .8001 -.3937
 -1 0 0 16 491 163 0 40 493 489 490 30 492 199 0 493 490 494 0 +-.36099195538881
85 .8001 -.3937 -.997564567486108 -.0697490766695445 0 16 493 162 0 37 495 491 4
92 30 494 198 0 495 492 496 0 +-.3861842375901 .798338571737601 -.3937 -.9781522
25571898 -.20788993147515 0 16 495 161 0 34 497 493 494 30 496 197 0 497 494 498
 0 +-.410886284661117 .793088563877232 -.3937 -.961269871068918 -.27560884415262
7 0 16 497 160 0 31 499 495 496 30 498 196 0 499 496 500 0 +-.744268283584761 .6
97503515234789 -.3937 -.824138788355188 -.566387903762468 0 16 499 159 0 28 501
 497 498 30 500 195 0 501 498 502 0 +-.83959651815302 .631989357050035 -.3937 -.
317311688344827 -.948321302323087 0 16 501 158 0 503 504 499 500 30 502 283 0 50
4 500 505 0 +-.8763 -.693378561197165 -.3937 0 0 -1 16 504 231 0 506 507 501 502
 30 505 284 0 507 502 508 0 +-.845042014272635 -.768842014272634 -.3937 0 0 -1 1
6 507 232 0 509 510 504 505 30 508 285 0 510 505 511 0 +-.769578561197165 -.8001
 -.3937 0 0 -1 16 510 235 0 512 513 507 508 30 511 286 0 513 508 514 0 +.7695785
61197165 -.8001 -.3937 0 0 -1 16 513 238 0 515 516 510 511 30 514 287 0 516 511
 517 0 +.845042014272635 -.768842014272635 -.3937 0 0 -1 16 516 241 0 518 519 51
3 514 30 517 288 0 519 514 520 0 +.8763 -.693378561197165 -.3937 0 0 -1 16 519 2
44 0 521 522 516 517 30 520 289 0 522 517 523 0 +.8763 .522296915884443 -.3937 0
 0 -1 16 522 247 0 524 525 519 520 30 523 290 0 525 520 526 0 +.839596518153021
 .631989357050034 -.3937 0 0 -1 16 525 250 0 527 528 522 523 30 526 291 0 528 52
3 529 0 +.744268283584761 .697503515234789 -.3937 0 0 -1 16 528 253 0 530 531 52
5 526 30 529 292 0 531 526 532 0 +.4108862846611165 .793088563877232 -.3937 0 0
 -1 16 531 256 0 533 534 528 529 30 532 293 0 534 529 535 0 +.3861842375901005 .
798338571737601 -.3937 0 0 -1 16 534 259 0 536 537 531 532 30 535 294 0 537 532
 538 0 +.360991955388818 .8001 -.3937 0 0 -1 16 537 262 0 539 540 534 535 30 538
 295 0 540 535 541 0 +-.3609919553888185 .8001 -.3937 0 0 -1 16 540 265 0 542 54
3 537 538 30 541 296 0 543 538 544 0 +-.3861842375901 .798338571737601 -.3937 0
 0 -1 16 543 268 0 545 546 540 541 30 544 297 0 546 541 547 0 +-.410886284661117
 .793088563877232 -.3937 0 0 -1 16 546 271 0 548 549 543 544 30 547 298 0 549 54
4 550 0 +-.744268283584761 .697503515234789 -.3937 0 0 -1 16 549 274 0 551 552 5
46 547 30 550 299 0 552 547 25 0 +-.83959651815302 .631989357050035 -.3937 0 0 -
1 16 552 277 0 553 21 549 550 30 25 300 0 21 550 15 0 +-.8763 .522296915884443 -
.3937 0 0 -1 16 21 280 0 554 12 552 25 17 554 555 130 79 131 556 21 15 555 155 0
 79 557 0 17 130 555 558 554 128 133 430 17 79 555 554 558 77 76 467 17 556 559
 560 466 77 554 21 15 559 281 0 556 18 0 17 560 559 553 556 23 503 501 17 466 55
9 556 553 131 561 464 17 553 559 466 560 80 562 552 17 561 563 564 133 80 466 46
4 15 563 7 0 133 565 0 17 564 563 566 561 83 82 462 17 133 563 561 567 131 130 4
30 17 567 563 133 568 128 127 432 17 568 563 567 569 125 124 434 17 127 570 571
 506 125 567 432 15 570 233 0 571 572 0 17 571 570 573 127 71 509 507 17 506 570
 127 573 128 558 504 17 573 570 506 571 74 73 469 17 558 555 79 130 74 506 504 1
7 73 19 70 76 71 573 469 15 19 157 0 76 11 574 17 70 19 67 73 68 575 471 17 76 1
9 73 503 74 79 467 17 503 19 76 28 77 560 501 17 28 19 503 31 23 576 499 17 31 1
9 28 34 29 577 497 17 576 578 551 562 29 28 499 15 578 278 0 562 579 0 17 551 57
8 82 576 83 580 549 17 562 578 576 82 23 553 552 17 82 578 562 551 80 564 462 17
 580 581 577 85 29 551 549 15 581 275 0 580 582 0 17 577 581 548 580 32 31 497 1
7 85 581 580 548 83 566 460 17 548 581 85 577 86 583 546 17 566 563 584 564 86 8
5 460 17 584 563 585 566 89 88 458 17 585 563 586 584 92 91 456 17 88 587 583 54
5 86 584 458 15 587 272 0 583 588 0 17 583 587 589 88 32 548 546 17 545 587 88 5
89 89 590 543 17 589 587 545 583 35 34 495 17 590 591 592 91 35 545 543 15 591 2
69 0 590 593 0 17 592 591 542 590 38 37 493 17 91 591 590 542 89 585 456 17 542
 591 91 592 92 594 540 17 594 595 596 94 38 542 540 15 595 266 0 594 597 0 17 59
6 595 539 594 41 40 491 17 94 595 594 539 92 586 454 17 539 595 94 596 95 598 53
7 17 586 563 599 585 95 94 454 17 599 563 600 586 98 97 452 17 600 563 601 599 1
01 100 450 17 97 602 598 536 95 599 452 15 602 263 0 598 603 0 17 598 602 604 97
 41 539 537 17 536 602 97 604 98 605 534 17 604 602 536 598 44 43 489 17 605 606
 607 100 44 536 534 15 606 260 0 605 608 0 17 607 606 533 605 47 46 487 17 100 6
06 605 533 98 600 450 17 533 606 100 607 101 609 531 17 609 610 611 103 47 533 5
31 15 610 257 0 609 612 0 17 611 610 530 609 50 49 485 17 103 610 609 530 101 60
1 448 17 530 610 103 611 104 613 528 17 601 563 614 600 104 103 448 17 614 563 6
15 601 107 106 446 17 615 563 616 614 110 109 444 17 106 617 613 527 104 614 446
 15 617 254 0 613 618 0 17 613 617 619 106 50 530 528 17 527 617 106 619 107 620
 525 17 619 617 527 613 53 52 483 17 620 621 622 109 53 527 525 15 621 251 0 620
 623 0 17 622 621 524 620 56 55 481 17 109 621 620 524 107 615 444 17 524 621 10
9 622 110 624 522 17 624 625 626 112 56 524 522 15 625 248 0 624 627 0 17 626 62
5 521 624 59 58 479 17 112 625 624 521 110 616 442 17 521 625 112 626 113 628 51
9 17 616 563 629 615 113 112 442 17 629 563 630 616 116 115 440 17 630 563 569 6
29 119 118 438 17 115 631 628 518 113 629 440 15 631 245 0 628 632 0 17 628 631
 633 115 59 521 519 17 518 631 115 633 116 634 516 17 633 631 518 628 62 61 477
 17 634 635 636 118 62 518 516 15 635 242 0 634 637 0 17 636 635 515 634 65 64 4
75 17 118 635 634 515 116 630 438 17 515 635 118 636 119 638 513 17 638 639 640
 121 65 515 513 15 639 239 0 638 641 0 17 640 639 512 638 68 67 473 17 121 639 6
38 512 119 569 436 17 512 639 121 640 122 642 510 17 569 563 568 630 122 121 436
 17 642 643 575 124 68 512 510 15 643 236 0 642 644 0 17 575 643 509 642 71 70 4
71 17 124 643 642 509 122 568 434 17 509 643 124 575 125 571 507 14 644 237 645
 572 641 643 6 646 -81 1 645 351 647 644 648 0 649 650 651 14 572 234 650 557 64
4 570 6 652 -14 641 240 649 644 637 639 6 653 -50 646 303 0 644 652 653 0 +-.807
3102877349 -.784471007136317 -.3937 .3826834323650955 .923879532511284 0 -.92387
9532511284 .3826834323650955 0 50 652 302 0 572 654 646 0 +-.860671007136318 -.7
31110287734899 -.3937 .923879532511288 .3826834323650875 0 -.3826834323650875 .9
23879532511288 0 50 653 304 0 641 646 655 0 +-2220446049250315e-31 -.8001 -.3937
 0 1 0 0 0 1 50 655 305 0 637 653 656 0 +.8073102877349 -.784471007136317 -.3937
 -.3826834323650885 .923879532511287 0 -.923879532511287 -.3826834323650885 0 14
 637 243 657 641 632 635 6 655 -50 656 306 0 632 655 658 0 +.860671007136317 -.7
311102877349 -.3937 -.923879532511286 .3826834323650905 0 -.3826834323650905 -.9
23879532511286 0 14 632 246 659 637 627 631 6 656 -50 658 307 0 627 656 660 0 +.
8763 -.0855408226563613 -.3937 -1 0 0 0 0 1 14 627 249 661 632 623 625 6 658 -50
 660 308 0 623 658 662 0 +.85794825907651 .577143136467238 -.3937 -.948321302323
087 -.317311688344826 0 .317311688344826 -.948321302323087 0 14 623 252 663 627
 618 621 6 660 -50 662 309 0 618 660 664 0 +.791932400868891 .664746436142411 -.
3937 -.566387903762471 -.824138788355186 0 .824138788355186 -.566387903762471 0
 14 618 255 665 623 612 617 6 662 -50 664 310 0 612 662 666 0 +.577577284122939
 .745296039556011 -.3937 -.275608844152627 -.961269871068918 0 .961269871068918
 -.275608844152627 0 14 612 258 667 618 608 610 6 664 -50 666 311 0 608 664 668
 0 +.3985352611256085 .795713567807416 -.3937 -.207889931475144 -.97815222557189
9 0 .978152225571899 -.207889931475144 0 14 608 261 669 612 603 606 6 666 -50 66
8 312 0 603 666 670 0 +.3735880964894595 .7992192858688 -.3937 -.069749076669550
2 -.997564567486108 0 .997564567486108 -.0697490766695502 0 14 603 264 671 608 5
97 602 6 668 -50 670 313 0 597 668 672 0 +-2220446049250315e-31 .8001 -.3937 0 -
1 0 0 0 -1 14 597 267 673 603 593 595 6 670 -50 672 314 0 593 670 674 0 +-.37358
80964894595 .7992192858688 -.3937 .0697490766695447 -.997564567486108 0 .9975645
67486108 .0697490766695447 0 14 593 270 675 597 588 591 6 672 -50 674 315 0 588
 672 676 0 +-.3985352611256085 .795713567807416 -.3937 .2078899314751505 -.97815
2225571898 0 .978152225571898 .2078899314751505 0 14 588 273 677 593 582 587 6 6
74 -50 676 316 0 582 674 678 0 +-.577577284122939 .74529603955601 -.3937 .275608
844152627 -.961269871068917 0 .961269871068917 .275608844152627 0 14 582 276 679
 588 579 581 6 676 -50 678 317 0 579 676 24 0 +-.79193240086889 .664746436142412
 -.3937 .566387903762467 -.824138788355189 0 .824138788355189 .566387903762467 0
 14 579 279 680 582 18 578 6 678 -50 24 318 0 18 678 14 0 +-.85794825907651 .577
143136467239 -.3937 .948321302323087 -.317311688344827 0 .317311688344827 .94832
1302323087 0 14 18 282 681 579 11 559 6 24 -81 1 681 321 647 18 682 0 0 680 683
 80 1 647 684 8015 685 0 0 0 0 3 5 0 0 FFFFTFFFFFFF2 81 1 682 320 686 18 0 681 0
 687 688 81 1 680 323 647 579 687 0 681 679 689 83 1 683 0 81 1 687 322 686 579
 0 680 682 690 691 81 1 679 325 647 582 690 0 680 677 692 83 1 689 0 81 1 690 32
4 686 582 0 679 687 693 694 81 1 677 327 647 588 693 0 679 675 695 83 1 692 0 81
 1 693 326 686 588 0 677 690 696 697 81 1 675 329 647 593 696 0 677 673 698 83 1
 695 0 81 1 696 328 686 593 0 675 693 699 700 81 1 673 331 647 597 699 0 675 671
 701 83 1 698 0 81 1 699 330 686 597 0 673 696 702 703 81 1 671 333 647 603 702
 0 673 669 704 83 1 701 0 81 1 702 332 686 603 0 671 699 705 706 81 1 669 335 64
7 608 705 0 671 667 707 83 1 704 0 81 1 705 334 686 608 0 669 702 708 709 81 1 6
67 337 647 612 708 0 669 665 710 83 1 707 0 81 1 708 336 686 612 0 667 705 711 7
12 81 1 665 339 647 618 711 0 667 663 713 83 1 710 0 81 1 711 338 686 618 0 665
 708 714 715 81 1 663 341 647 623 714 0 665 661 716 83 1 713 0 81 1 714 340 686
 623 0 663 711 717 718 81 1 661 343 647 627 717 0 663 659 719 83 1 716 0 81 1 71
7 342 686 627 0 661 714 720 721 81 1 659 345 647 632 720 0 661 657 722 83 1 719
 0 81 1 720 344 686 632 0 659 717 723 724 81 1 657 347 647 637 723 0 659 649 725
 83 1 722 0 81 1 723 346 686 637 0 657 720 726 727 81 1 649 349 647 641 726 0 65
7 645 728 83 1 725 0 81 1 726 348 686 641 0 649 723 648 729 83 1 728 0 80 1 686
 0 8001 730 0 0 0 0 3 5 0 0 FFFFTFTFFFFF2 81 1 648 350 686 644 0 645 726 731 732
 83 3 729 1 .5 0 81 1 731 352 686 572 0 650 648 733 734 83 3 732 1 .5 0 81 1 650
 353 647 572 731 0 645 735 736 81 1 733 356 686 557 0 735 731 737 738 83 3 734 1
 .5 0 14 557 151 735 565 572 555 6 654 -81 1 735 357 647 557 733 0 650 739 740 8
1 1 737 358 686 565 0 739 733 741 742 83 3 738 1 .5 0 14 565 1 739 743 557 563 6
 744 +81 1 739 359 647 565 737 0 735 745 746 81 1 741 388 686 743 0 745 737 747
 748 83 3 742 1 .5 0 14 743 447 745 749 565 750 6 751 -81 1 745 389 647 743 741
 0 739 752 753 81 1 747 390 686 749 0 752 741 754 755 83 3 748 1 .5 0 14 749 449
 752 756 743 757 6 758 +81 1 752 391 647 749 747 0 745 759 760 81 1 754 392 686
 756 0 759 747 761 762 83 3 755 1 .5 0 14 756 451 759 763 749 764 6 765 -81 1 75
9 393 647 756 754 0 752 766 767 81 1 761 394 686 763 0 766 754 768 769 83 3 762
 1 .5 0 14 763 453 766 770 756 771 6 772 +81 1 766 395 647 763 761 0 759 773 774
 81 1 768 396 686 770 0 773 761 775 776 83 3 769 1 .5 0 14 770 455 773 777 763 7
78 6 779 -81 1 773 397 647 770 768 0 766 780 781 81 1 775 398 686 777 0 780 768
 782 783 83 3 776 1 .5 0 14 777 457 780 784 770 785 6 786 +81 1 780 399 647 777
 775 0 773 787 788 81 1 782 400 686 784 0 787 775 789 790 83 3 783 1 .5 0 14 784
 459 787 791 777 792 6 793 +81 1 787 401 647 784 782 0 780 794 795 81 1 789 402
 686 791 0 794 782 796 797 83 3 790 1 .5 0 14 791 461 794 798 784 799 6 800 -81
 1 794 403 647 791 789 0 787 801 802 81 1 796 404 686 798 0 801 789 803 804 83 3
 797 1 .5 0 14 798 463 801 805 791 806 6 807 +81 1 801 405 647 798 796 0 794 808
 809 81 1 803 406 686 805 0 808 796 810 811 83 3 804 1 .5 0 14 805 465 808 812 7
98 813 6 814 -81 1 808 407 647 805 803 0 801 815 816 81 1 810 408 686 812 0 815
 803 817 818 83 3 811 1 .5 0 14 812 467 815 819 805 820 6 821 +81 1 815 409 647
 812 810 0 808 822 823 81 1 817 410 686 819 0 822 810 824 825 83 3 818 1 .5 0 14
 819 469 822 826 812 827 6 828 +81 1 822 411 647 819 817 0 815 829 830 81 1 824
 412 686 826 0 829 817 831 832 83 3 825 1 .5 0 14 826 471 829 833 819 834 6 835
 +81 1 829 413 647 826 824 0 822 836 837 81 1 831 414 686 833 0 836 824 838 839
 83 3 832 1 .5 0 14 833 473 836 840 826 841 6 842 +81 1 836 415 647 833 831 0 82
9 843 844 81 1 838 416 686 840 0 843 831 845 846 83 3 839 1 .5 0 14 840 475 843
 847 833 848 6 849 -81 1 843 417 647 840 838 0 836 850 851 81 1 845 418 686 847
 0 850 838 852 853 83 3 846 1 .5 0 14 847 477 850 854 840 855 6 856 +81 1 850 41
9 647 847 845 0 843 857 858 81 1 852 420 686 854 0 857 845 859 860 83 3 853 1 .5
 0 14 854 479 857 861 847 862 6 863 +81 1 857 421 647 854 852 0 850 864 865 81 1
 859 422 686 861 0 864 852 866 867 83 3 860 1 .5 0 14 861 481 864 868 854 869 6
 870 -81 1 864 423 647 861 859 0 857 871 872 81 1 866 424 686 868 0 871 859 873
 874 83 3 867 1 .5 0 14 868 483 871 875 861 876 6 877 -81 1 871 425 647 868 866
 0 864 878 879 81 1 873 426 686 875 0 878 866 880 881 83 3 874 1 .5 0 14 875 485
 878 882 868 883 6 884 +81 1 878 427 647 875 873 0 871 885 886 81 1 880 428 686
 882 0 885 873 17 887 83 3 881 1 .5 0 14 882 487 885 888 875 889 6 890 -81 1 885
 429 647 882 880 0 878 891 892 81 1 17 1160 686 11 893 0 880 894 895 83 3 887 1
 .5 0 81 1 893 1159 647 11 0 17 896 0 897 81 1 894 1201 686 888 891 0 17 898 899
 83 3 895 1 .5 0 14 888 489 894 900 882 381 6 901 -81 1 891 431 647 888 0 894 88
5 902 903 81 1 898 1242 686 904 905 0 894 906 907 83 3 899 1 .5 0 14 904 534 898
 908 375 909 6 910 +81 1 905 389 647 904 0 898 911 912 913 81 1 906 1243 686 375
 911 0 898 914 915 83 3 907 1 .5 0 14 375 530 906 904 916 370 6 917 +81 1 911 42
9 647 375 0 906 918 905 919 81 1 914 1244 686 916 918 0 906 920 921 83 3 915 1 .
5 0 14 916 526 914 375 922 923 6 924 +81 1 918 423 647 916 0 914 925 911 926 81
 1 920 1245 686 922 925 0 914 927 928 83 3 921 1 .5 0 14 922 524 920 916 929 930
 6 931 +81 1 925 421 647 922 0 920 932 918 933 81 1 927 1246 686 929 932 0 920 9
34 935 83 3 928 1 .5 0 14 929 522 927 922 936 937 6 938 +81 1 932 419 647 929 0
 927 939 925 940 81 1 934 1247 686 941 942 0 927 943 944 83 3 935 1 .5 0 14 941
 562 934 945 946 947 6 948 +81 1 942 417 647 941 0 934 949 896 950 81 1 943 1248
 686 936 939 0 934 951 952 83 3 944 1 .5 0 14 936 518 943 929 953 954 6 955 +81
 1 939 415 647 936 0 943 956 932 957 81 1 951 1249 686 953 956 0 943 958 959 83
 3 952 1 .5 0 14 953 516 951 936 960 961 6 962 +81 1 956 413 647 953 0 951 963 9
39 964 81 1 958 1250 686 960 963 0 951 965 966 83 3 959 1 .5 0 14 960 514 958 95
3 967 968 6 969 +81 1 963 411 647 960 0 958 970 956 971 81 1 965 1251 686 967 97
0 0 958 972 973 83 3 966 1 .5 0 14 967 512 965 960 974 975 6 976 +81 1 970 409 6
47 967 0 965 977 963 978 81 1 972 1252 686 974 977 0 965 979 980 83 3 973 1 .5 0
 14 974 510 972 967 981 982 6 983 +81 1 977 407 647 974 0 972 984 970 985 81 1 9
79 1253 686 981 984 0 972 986 987 83 3 980 1 .5 0 14 981 508 979 974 988 989 6 9
90 +81 1 984 405 647 981 0 979 991 977 992 81 1 986 1254 686 988 991 0 979 993 9
94 83 3 987 1 .5 0 14 988 506 986 981 995 996 6 997 +81 1 991 403 647 988 0 986
 998 984 999 81 1 993 1255 686 995 998 0 986 1000 1001 83 3 994 1 .5 0 14 995 50
4 993 988 1002 1003 6 1004 +81 1 998 401 647 995 0 993 1005 991 1006 81 1 1000 1
256 686 1002 1005 0 993 1007 1008 83 3 1001 1 .5 0 14 1002 502 1000 995 1009 101
0 6 1011 +81 1 1005 399 647 1002 0 1000 1012 998 1013 81 1 1007 1257 686 946 949
 0 1000 1014 1015 83 3 1008 1 .5 0 14 946 542 1007 941 908 1016 6 1017 +81 1 949
 397 647 946 0 1007 912 942 1018 81 1 1014 1258 686 1009 1012 0 1007 1019 1020 8
3 3 1015 1 .5 0 14 1009 498 1014 1002 900 1021 6 1022 +81 1 1012 395 647 1009 0
 1014 902 1005 1023 81 1 1019 1259 686 908 912 0 1014 1024 1025 83 3 1020 1 .5 0
 14 908 538 1019 946 904 1026 6 1027 +81 1 912 393 647 908 0 1019 905 949 1028 8
1 1 1024 1260 686 900 902 0 1019 1029 1030 83 3 1025 1 .5 0 14 900 494 1024 1009
 888 1031 6 1032 +81 1 902 391 647 900 0 1024 891 1012 1033 81 1 1029 1261 686 9
45 896 0 1024 0 1034 83 3 1030 1 .5 0 14 945 570 1029 0 941 1035 6 1036 +81 1 89
6 425 647 945 0 1029 942 893 1037 83 3 1034 1 .5 0 83 1 1037 0 15 1035 571 0 103
8 945 0 51 1036 895 0 945 0 948 0 +-.680426263575032 -.6096 -.0889 0 0 1 .127 1
 0 0 51 948 891 0 941 1036 1017 0 -.2692960438638645 -.7874 -.0889 0 0 1 .1778 1
 0 0 51 1017 881 0 946 948 1027 0 +-.359661615501756 .6096 -.0889 0 0 1 .1270000
050065384 1 0 0 51 1027 879 0 908 1017 910 0 +-.6858 .516091791857147 -.0889 0 0
 1 .127 1 0 0 51 910 877 0 904 1027 917 0 +-.762 -.6858 -.0889 0 0 1 .0508 1 0 0
 50 917 875 0 375 910 924 0 +-.721213131787516 -.7366 -.0889 0 -1 0 0 0 -1 50 92
4 873 0 916 917 931 0 +-.483336948552874 -.674555879595573 -.0889 .3336927099773
76 -.942681905686088 0 .942681905686088 .333692709977376 0 51 931 872 0 922 924
 938 0 --.2692960438638645 -.7874 -.0889 0 0 -1 .1778 -1 0 0 50 938 871 0 929 93
1 955 0 +.1346480219319322 -.6096 -.0889 0 -1 0 0 0 -1 50 955 869 0 936 938 962
 0 +.483336948552874 -.674555879595574 -.0889 -.333692709977376 -.94268190568608
8 0 .942681905686088 -.333692709977376 0 51 962 868 0 953 955 969 0 +.6804262635
75032 -.6096 -.0889 0 0 -1 .127 -1 0 0 50 969 867 0 960 962 976 0 +.721213131787
516 -.7366 -.0889 0 -1 0 0 0 -1 51 976 866 0 967 969 983 0 +.762 -.6858 -.0889 0
 0 -1 .0508 -1 0 0 50 983 865 0 974 976 990 0 +.8128 -.0848541040714266 -.0889 1
 0 0 0 0 -1 51 990 864 0 981 983 997 0 +.6858 .516091791857147 -.0889 0 0 -1 .12
7 -1 0 0 50 997 863 0 988 990 1004 0 +.557733130958262 .684927169554326 -.0889 .
2756088441526265 .961269871068917 0 -.961269871068917 .2756088441526265 0 51 100
4 862 0 995 997 1011 0 +.359661615501756 .6096 -.0889 0 0 -1 .127 -1 0 0 50 1011
 861 0 1002 1004 1022 0 +-.179830807750878 .7366 -.0889 -308685435635468e-30 1 0
 -1 -308685435635468e-30 0 50 1022 859 0 1009 1011 1032 0 +-.557733130958262 .68
4927169554326 -.0889 -.275608844152627 .961269871068917 0 -.961269871068917 -.27
5608844152627 0 50 1032 857 0 900 1022 901 0 +-.8128 -.0848541040714266 -.0889 -
1 0 0 0 0 1 50 901 855 0 888 1032 884 0 +-.762 -.6858 -.0635 0 0 1 1 0 0 50 884
 854 0 875 901 890 0 +-.762 -.6858 0 0 0 1 1 0 0 50 890 853 0 882 884 877 0 +-.7
21213131787516 -.762 0 0 1 0 0 0 1 51 877 852 0 868 890 870 0 --.680426263575032
 -.6096 0 0 0 -1 .1524 -1 0 0 50 870 851 0 861 877 863 0 +-.474861153719448 -.69
85 0 -.3336927099773765 .942681905686088 0 -.942681905686088 -.3336927099773765
 0 51 863 850 0 854 870 856 0 --.2692960438638645 -.7874 0 0 0 -1 .1524 -1 0 0 5
0 856 849 0 847 863 849 0 +.1346480219319322 -.635 0 0 -1 0 0 0 -1 51 849 848 0
 840 856 842 0 +.2692960438638645 -.7874 0 0 0 -1 .1524 -1 0 0 50 842 847 0 833
 849 835 0 +.474861153719448 -.6985 0 -.333692709977376 -.942681905686088 0 .942
681905686088 -.333692709977376 0 51 835 846 0 826 842 828 0 +.680426263575032 -.
6096 0 0 0 -1 .1524 -1 0 0 50 828 845 0 819 835 821 0 +.721213131787516 -.762 0
 0 -1 0 0 0 -1 51 821 844 0 812 828 814 0 +.762 -.6858 0 0 0 -1 .0762 -1 0 0 50
 814 843 0 805 821 807 0 +.8382 -.0848541040714266 0 -1 0 0 0 0 1 51 807 842 0 7
98 814 800 0 +.6858 .516091791857147 0 0 0 -1 .1524 -1 0 0 50 800 841 0 791 807
 793 0 +.564733595599738 .709343424279476 0 -.2756088441526265 -.961269871068917
 0 .961269871068917 -.2756088441526265 0 51 793 840 0 784 800 786 0 +.3596616155
01756 .6096 0 0 0 -1 .1524 -1 0 0 50 786 839 0 777 793 779 0 +-.179830807750878
 .762 0 0 1 0 0 0 1 51 779 838 0 770 786 772 0 --.359661615501756 .6096 0 0 0 -1
 .1524 -1 0 0 50 772 837 0 763 779 765 0 +-.564733595599738 .709343424279476 0 -
.275608844152627 .961269871068917 0 -.961269871068917 -.275608844152627 0 51 765
 836 0 756 772 758 0 --.6858 .516091791857147 0 0 0 -1 .1524 -1 0 0 50 758 835 0
 749 765 751 0 +-.8382 -.0848541040714266 0 -1 0 0 0 0 1 51 751 834 0 743 758 74
4 0 --.762 -.6858 0 0 0 -1 .0762 -1 0 0 50 744 152 0 565 751 654 0 +-.8763 .8001
 -.4572 0 0 -1 -1 0 0 50 654 301 0 557 744 652 0 +-.8763 -.0855408226563611 -.39
37 1 0 0 0 0 -1 17 1038 1035 190 1039 185 1040 1041 17 190 1035 379 1038 188 382
 384 17 1039 1035 1038 379 314 313 1042 17 1040 923 1043 187 314 1038 1041 16 10
41 671 0 1040 1044 1045 1046 16 1044 652 0 307 1047 1041 1048 16 1045 693 0 22 1
041 1042 1049 30 1046 994 0 1041 1049 1048 0 +-.638047289407905 -.72932060202213
3 -.0889 0 0 -1 30 1049 1016 0 1045 1050 1046 0 +-.680426263575032 -.7366 -.3937
 -1 0 0 30 1048 975 0 1044 1046 1051 0 +-.8382 -.6858 -.0635 0 1 0 31 1051 974 0
 1047 1048 1052 0 +-.6858 .516091791857147 -.0635 0 0 1 1 0 0 .1524 16 1047 651
 0 1053 1054 1044 1051 30 1052 973 0 1054 1051 1055 0 +-.72780278784886 .6625893
2020805 -.0635 .961269871068918 .275608844152627 0 16 1054 650 0 301 1056 1047 1
052 31 1055 972 0 1056 1052 1057 0 +-.359661615501756 .6096 -.0635 0 0 1 1 0 0 .
1524 16 1056 649 0 1058 1059 1054 1055 30 1057 971 0 1059 1055 1060 0 +.35966161
5501756 .762 -.0635 -1 0 0 16 1059 648 0 1061 1062 1056 1057 31 1060 970 0 1062
 1057 1063 0 +.359661615501756 .6096 -.0635 0 0 -1 -1 0 0 .1524 16 1062 647 0 29
2 1064 1059 1060 30 1063 969 0 1064 1060 1065 0 +.72780278784886 .66258932020805
 -.0635 -.961269871068918 .275608844152627 0 16 1064 646 0 1066 1067 1062 1063 3
1 1065 968 0 1067 1063 1068 0 +.6858 .516091791857147 -.0635 0 0 -1 -1 0 0 .1524
 16 1067 645 0 286 1069 1064 1065 30 1068 967 0 1069 1065 1070 0 +.8382 -.6858 -
.0635 0 1 0 16 1069 644 0 1071 1072 1067 1068 31 1070 966 0 1072 1068 1073 0 +.7
62 -.6858 -.0635 0 0 -1 -1 0 0 .0762 16 1072 643 0 280 1074 1069 1070 30 1073 96
5 0 1074 1070 1075 0 +.762 -.762 -.0635 -1 0 0 16 1074 642 0 277 1076 1072 1073
 31 1075 964 0 1076 1073 1077 0 +.680426263575032 -.6096 -.0635 0 0 -1 -1 0 0 .1
524 16 1076 641 0 274 1078 1074 1075 30 1077 963 0 1078 1075 1079 0 +.6295714945
7448 -.75326472242656 -.0635 -.942681905686088 .3336927099773765 0 16 1078 640 0
 271 1080 1076 1077 31 1079 962 0 1080 1077 1081 0 +.2692960438638645 -.7874 -.0
635 0 0 -1 -1 0 0 .1524 16 1080 639 0 1082 1083 1078 1079 30 1081 961 0 1083 107
9 1084 0 +-.2692960438638645 -.635 -.0635 1 0 0 16 1083 638 0 1085 1086 1080 108
1 31 1084 960 0 1086 1081 1087 0 +-.2692960438638645 -.7874 -.0635 0 0 1 1 0 0 .
1524 16 1086 637 0 262 1088 1083 1084 30 1087 959 0 1088 1084 1089 0 +-.62957149
457448 -.75326472242656 -.0635 .942681905686088 .3336927099773765 0 16 1088 636
 0 1090 1091 1086 1087 31 1089 958 0 1091 1087 1092 0 +-.680426263575032 -.6096
 -.0635 0 0 1 1 0 0 .1524 16 1091 635 0 1093 1094 1088 1089 30 1092 957 0 1094 1
089 1095 0 +-.762 -.762 -.0635 1 0 0 16 1094 634 0 1096 1097 1091 1092 31 1095 9
56 0 1097 1092 1098 0 +-.762 -.6858 -.0635 0 0 1 1 0 0 .0762 16 1097 633 0 1099
 1100 1094 1095 30 1098 955 0 1100 1095 1101 0 +-.8382 -.6858 0 0 1 0 16 1100 63
2 0 247 1102 1097 1098 31 1101 954 0 1102 1098 1103 0 +-.6858 .516091791857147 0
 0 0 1 1 0 0 .1524 16 1102 631 0 1104 1105 1100 1101 30 1103 953 0 1105 1101 110
6 0 +-.72780278784886 .66258932020805 0 .961269871068918 .275608844152627 0 16 1
105 630 0 241 1107 1102 1103 31 1106 952 0 1107 1103 1108 0 +-.359661615501756 .
6096 0 0 0 1 1 0 0 .1524 16 1107 629 0 1109 1110 1105 1106 30 1108 951 0 1110 11
06 1111 0 +.359661615501756 .762 0 -1 0 0 16 1110 628 0 1112 1113 1107 1108 31 1
111 950 0 1113 1108 1114 0 +.359661615501756 .6096 0 0 0 -1 -1 0 0 .1524 16 1113
 627 0 232 1115 1110 1111 30 1114 949 0 1115 1111 1116 0 +.72780278784886 .66258
932020805 0 -.961269871068918 .275608844152627 0 16 1115 626 0 1117 1118 1113 11
14 31 1116 948 0 1118 1114 1119 0 +.6858 .516091791857147 0 0 0 -1 -1 0 0 .1524
 16 1118 625 0 226 1120 1115 1116 30 1119 947 0 1120 1116 1121 0 +.8382 -.6858 0
 0 1 0 16 1120 624 0 1122 1123 1118 1119 31 1121 946 0 1123 1119 1124 0 +.762 -.
6858 0 0 0 -1 -1 0 0 .0762 16 1123 623 0 220 1125 1120 1121 30 1124 945 0 1125 1
121 1126 0 +.762 -.762 0 -1 0 0 16 1125 622 0 217 1127 1123 1124 31 1126 944 0 1
127 1124 1128 0 +.680426263575032 -.6096 0 0 0 -1 -1 0 0 .1524 16 1127 621 0 214
 1129 1125 1126 30 1128 943 0 1129 1126 1130 0 +.62957149457448 -.75326472242656
 0 -.942681905686088 .3336927099773765 0 16 1129 620 0 211 1131 1127 1128 31 113
0 942 0 1131 1128 1132 0 +.2692960438638645 -.7874 0 0 0 -1 -1 0 0 .1524 16 1131
 619 0 1133 1134 1129 1130 30 1132 941 0 1134 1130 1135 0 +-.2692960438638645 -.
635 0 1 0 0 16 1134 618 0 1136 1137 1131 1132 31 1135 940 0 1137 1132 1138 0 +-.
2692960438638645 -.7874 0 0 0 1 1 0 0 .1524 16 1137 617 0 202 1139 1134 1135 30
 1138 939 0 1139 1135 1140 0 +-.62957149457448 -.75326472242656 0 .9426819056860
88 .3336927099773765 0 16 1139 616 0 1141 1142 1137 1138 31 1140 938 0 1142 1138
 1143 0 +-.680426263575032 -.6096 0 0 0 1 1 0 0 .1524 16 1142 615 0 1144 1145 11
39 1140 30 1143 937 0 1145 1140 1146 0 +-.762 -.762 0 1 0 0 16 1145 614 0 1147 1
148 1142 1143 31 1146 936 0 1148 1143 1149 0 +-.762 -.6858 0 0 0 1 1 0 0 .0762 1
6 1148 613 0 1150 1151 1145 1146 30 1149 935 0 1151 1146 1152 0 +-.6804262635750
32 -.762 0 0 0 -1 16 1151 612 0 1153 1154 1148 1149 30 1152 934 0 1154 1149 1155
 0 +-.62957149457448 -.75326472242656 0 0 0 -1 16 1154 611 0 1156 1157 1151 1152
 30 1155 933 0 1157 1152 1158 0 +-.3201508128644165 -.64373527757344 0 0 0 -1 16
 1157 610 0 1159 1160 1154 1155 30 1158 932 0 1160 1155 1161 0 +-.26929604386386
45 -.635 0 0 0 -1 16 1160 609 0 1162 1163 1157 1158 30 1161 931 0 1163 1158 1164
 0 +.2692960438638645 -.635 0 0 0 -1 16 1163 608 0 1165 1166 1160 1161 30 1164 9
30 0 1166 1161 1167 0 +.3201508128644165 -.64373527757344 0 0 0 -1 16 1166 607 0
 1168 1169 1163 1164 30 1167 929 0 1169 1164 1170 0 +.62957149457448 -.753264722
42656 0 0 0 -1 16 1169 606 0 1171 1172 1166 1167 30 1170 928 0 1172 1167 1173 0
 +.680426263575032 -.762 0 0 0 -1 16 1172 605 0 1174 1175 1169 1170 30 1173 927
 0 1175 1170 1176 0 +.762 -.762 0 0 0 -1 16 1175 604 0 1177 1178 1172 1173 30 11
76 926 0 1178 1173 1179 0 +.8382 -.6858 0 0 0 -1 16 1178 603 0 1180 1181 1175 11
76 30 1179 925 0 1181 1176 1182 0 +.8382 .516091791857147 0 0 0 -1 16 1181 602 0
 1183 1184 1178 1179 30 1182 924 0 1184 1179 1185 0 +.72780278784886 .6625893202
0805 0 0 0 -1 16 1184 601 0 1186 1187 1181 1182 30 1185 923 0 1187 1182 1188 0 +
.401664403350616 .756097528350903 0 0 0 -1 16 1187 600 0 1189 1190 1184 1185 30
 1188 922 0 1190 1185 1191 0 +.359661615501756 .762 0 0 0 -1 16 1190 599 0 1192
 1193 1187 1188 30 1191 921 0 1193 1188 1194 0 +-.359661615501756 .762 0 0 0 -1
 16 1193 598 0 1195 1196 1190 1191 30 1194 920 0 1196 1191 1197 0 +-.40166440335
06165 .756097528350903 0 0 0 -1 16 1196 597 0 1198 1199 1193 1194 30 1197 919 0
 1199 1194 1200 0 +-.72780278784886 .66258932020805 0 0 0 -1 16 1199 596 0 1201
 1202 1196 1197 30 1200 918 0 1202 1197 392 0 +-.8382 .516091791857147 0 0 0 -1
 16 1202 595 0 1203 390 1199 1200 30 392 917 0 390 1200 391 0 +-.8382 -.6858 0 0
 0 -1 16 390 594 0 1204 385 1202 392 17 1204 750 1099 1205 308 1206 390 15 750 4
48 0 1207 743 0 17 1099 750 1207 1204 251 1208 1097 17 1205 750 1204 1207 248 11
50 1148 17 1206 757 247 310 248 1204 390 15 757 450 0 1206 749 0 17 247 757 1203
 1206 245 250 1100 17 310 757 1206 1203 308 307 1044 17 1203 757 310 247 305 120
9 1202 17 307 1210 304 1208 305 310 1044 15 1210 491 0 253 888 0 17 304 1210 301
 307 302 1053 1047 17 1208 1210 307 253 308 1099 1097 17 253 1210 1208 256 251 1
096 1094 17 256 1210 253 259 254 1093 1091 17 1096 889 1211 389 254 253 1094 15
 889 488 0 193 882 0 17 1211 889 193 1096 194 1153 1151 17 389 889 1096 193 251
 1207 385 17 193 889 389 1211 191 1147 1145 17 1207 750 1205 1099 191 389 385 17
 1147 883 1144 1150 194 193 1145 15 883 486 0 1147 875 0 17 1144 883 1141 1147 1
97 196 1142 17 1150 883 1147 250 191 1205 1148 17 250 883 1150 1104 248 247 1100
 17 1104 883 250 1212 245 244 1102 17 1212 883 1104 1109 242 241 1105 17 244 764
 1201 1209 242 1104 1102 15 764 452 0 1209 756 0 17 1201 764 1053 244 302 1213 1
199 17 1209 764 244 1053 245 1203 1202 17 1053 764 1209 1201 305 304 1047 17 121
3 771 241 1214 242 1201 1199 15 771 454 0 1213 763 0 17 241 771 1198 1213 239 12
12 1105 17 1214 771 1213 1198 302 301 1054 17 1198 771 1214 241 299 1215 1196 17
 301 1210 298 304 299 1214 1054 17 298 1210 295 301 296 1058 1056 17 295 1210 29
2 298 293 1061 1059 17 1058 778 1215 1195 299 298 1056 15 778 456 0 1215 770 0 1
7 1215 778 238 1058 239 1198 1196 17 1195 778 1058 238 296 1216 1193 17 238 778
 1195 1215 236 1109 1107 17 1216 785 235 1061 236 1195 1193 15 785 458 0 1216 77
7 0 17 235 785 1192 1216 233 1112 1110 17 1061 785 1216 1192 296 295 1059 17 119
2 785 1061 235 293 1217 1190 17 1217 792 232 1218 233 1192 1190 15 792 460 0 121
7 784 0 17 232 792 1189 1217 230 1219 1113 17 1218 792 1217 1189 293 292 1062 17
 1189 792 1218 232 290 1220 1187 17 292 1210 289 295 290 1218 1062 17 289 1210 2
86 292 287 1066 1064 17 286 1210 283 289 284 1221 1067 17 1066 799 1220 1186 290
 289 1064 15 799 462 0 1220 791 0 17 1220 799 229 1066 230 1189 1187 17 1186 799
 1066 229 287 1222 1184 17 229 799 1186 1220 227 1117 1115 17 1222 806 226 1221
 227 1186 1184 15 806 464 0 1222 798 0 17 226 806 1183 1222 224 1223 1118 17 122
1 806 1222 1183 287 286 1067 17 1183 806 1221 226 284 1224 1181 17 1224 813 223
 1071 224 1183 1181 15 813 466 0 1224 805 0 17 223 813 1180 1224 221 1122 1120 1
7 1071 813 1224 1180 284 283 1069 17 1180 813 1071 223 281 1225 1178 17 283 1210
 280 286 281 1071 1069 17 280 1210 277 283 278 1226 1072 17 277 1210 274 280 275
 1227 1074 17 1226 820 1225 1177 281 280 1072 15 820 468 0 1225 812 0 17 1225 82
0 220 1226 221 1180 1178 17 1177 820 1226 220 278 1228 1175 17 220 820 1177 1225
 218 1229 1123 17 1228 827 217 1227 218 1177 1175 15 827 470 0 1228 819 0 17 217
 827 1174 1228 215 1230 1125 17 1227 827 1228 1174 278 277 1074 17 1174 827 1227
 217 275 1231 1172 17 1231 834 214 1232 215 1174 1172 15 834 472 0 1231 826 0 17
 214 834 1171 1231 212 1233 1127 17 1232 834 1231 1171 275 274 1076 17 1171 834
 1232 214 272 1234 1169 17 274 1210 271 277 272 1232 1076 17 271 1210 268 274 26
9 1235 1078 17 268 1210 265 271 266 1082 1080 17 1235 841 1234 1168 272 271 1078
 15 841 474 0 1234 833 0 17 1234 841 211 1235 212 1171 1169 17 1168 841 1235 211
 269 1236 1166 17 211 841 1168 1234 209 1237 1129 17 1236 848 208 1082 209 1168
 1166 15 848 476 0 1236 840 0 17 208 848 1165 1236 206 1133 1131 17 1082 848 123
6 1165 269 268 1080 17 1165 848 1082 208 266 1238 1163 17 1238 855 205 1085 206
 1165 1163 15 855 478 0 1238 847 0 17 205 855 1162 1238 203 1136 1134 17 1085 85
5 1238 1162 266 265 1083 17 1162 855 1085 205 263 1239 1160 17 265 1210 262 268
 263 1085 1083 17 262 1210 259 265 260 1240 1086 17 259 1210 256 262 257 1090 10
88 17 1240 862 1239 1159 263 262 1086 15 862 480 0 1239 854 0 17 1239 862 202 12
40 203 1162 1160 17 1159 862 1240 202 260 1241 1157 17 202 862 1159 1239 200 124
2 1137 17 1241 869 199 1090 200 1159 1157 15 869 482 0 1241 861 0 17 199 869 115
6 1241 197 1141 1139 17 1090 869 1241 1156 260 259 1088 17 1156 869 1090 199 257
 1243 1154 17 1243 876 196 1093 197 1156 1154 15 876 484 0 1243 868 0 17 196 876
 1153 1243 194 1144 1142 17 1093 876 1243 1153 257 256 1091 17 1153 876 1093 196
 254 1211 1151 17 1141 883 1242 1144 200 199 1139 17 1242 883 1136 1141 203 202
 1137 17 1136 883 1133 1242 206 205 1134 17 1133 883 1237 1136 209 208 1131 17 1
237 883 1233 1133 212 211 1129 17 1233 883 1230 1237 215 214 1127 17 1230 883 12
29 1233 218 217 1125 17 1229 883 1122 1230 221 220 1123 17 1122 883 1223 1229 22
4 223 1120 17 1223 883 1117 1122 227 226 1118 17 1117 883 1219 1223 230 229 1115
 17 1219 883 1112 1117 233 232 1113 17 1112 883 1109 1219 236 235 1110 17 1109 8
83 1212 1112 239 238 1107 31 1050 1017 0 1042 1244 1049 0 +-.680426263575032 -.6
096 -.3937 0 0 1 1 0 0 .127 16 1042 694 0 1039 1045 1245 1050 30 1244 1018 0 124
5 1246 1050 0 +-.328626607697842 -.619791157169014 -.3937 -.942681905686088 -.33
3692709977376 0 16 1245 695 0 316 1042 1247 1244 31 1246 1019 0 1247 1248 1244 0
 +-.2692960438638645 -.7874 -.3937 0 0 1 1 0 0 .1778 16 1247 696 0 319 1245 1249
 1246 30 1248 1020 0 1249 1250 1246 0 +1747057359891e-29 -.6096 -.3937 -1 0 0 16
 1249 697 0 322 1247 1251 1248 31 1250 1021 0 1251 1252 1248 0 +.269296043863864
5 -.7874 -.3937 0 0 -1 -1 0 0 .1778 16 1251 698 0 1253 1249 1254 1250 30 1252 10
22 0 1254 1255 1250 0 +.638047289407905 -.729320602022133 -.3937 -.9426819056860
88 .333692709977376 0 16 1254 699 0 328 1251 1256 1252 31 1255 1023 0 1256 1257
 1252 0 +.680426263575032 -.6096 -.3937 0 0 -1 -1 0 0 .127 16 1256 700 0 331 125
4 1258 1255 30 1257 1024 0 1258 1259 1255 0 +.762 -.7366 -.3937 -1 0 0 16 1258 7
01 0 334 1256 1260 1257 31 1259 1025 0 1260 1261 1257 0 +.762 -.6858 -.3937 0 0
 -1 -1 0 0 .0508 16 1260 702 0 337 1258 1262 1259 30 1261 1026 0 1262 1263 1259
 0 +.8128 .516091791857147 -.3937 0 -1 0 16 1262 703 0 340 1260 1264 1261 31 126
3 1027 0 1264 1265 1261 0 +.6858 .516091791857147 -.3937 0 0 -1 -1 0 0 .127 16 1
264 704 0 343 1262 1266 1263 30 1265 1028 0 1266 1267 1263 0 +.3946639387091395
 .731681273625752 -.3937 .961269871068918 -.2756088441526265 0 16 1266 705 0 346
 1264 1268 1265 31 1267 1029 0 1268 1269 1265 0 +.359661615501756 .6096 -.3937 0
 0 -1 -1 0 0 .127 16 1268 706 0 349 1266 1270 1267 30 1269 1030 0 1270 1271 1267
 0 +-1059690529769952e-32 .7366 -.3937 1 0 0 16 1270 707 0 352 1268 1272 1269 31
 1271 1031 0 1272 1273 1269 0 +-.359661615501756 .6096 -.3937 0 0 1 1 0 0 .12700
00050065384 16 1272 708 0 1274 1270 1275 1271 30 1273 1032 0 1275 1276 1271 0 +-
.720802323207384 .638173065482899 -.3937 .961269871068918 .2756088441526265 0 16
 1275 709 0 358 1272 1277 1273 31 1276 1033 0 1277 1278 1273 0 +-.6858 .51609179
1857147 -.3937 0 0 1 1 0 0 .127 16 1277 710 0 1279 1275 1280 1276 30 1278 1034 0
 1280 1281 1276 0 +-.8128 -.6858 -.3937 0 1 0 16 1280 711 0 364 1277 378 1278 30
 1281 1035 0 378 1282 1278 0 +-.762 -.7366 -.0889 0 0 1 16 378 712 0 377 1280 12
83 1281 30 1282 1036 0 1283 1284 1281 0 +-.8128 -.6858 -.0889 0 0 1 16 1283 713
 0 1285 378 1286 1282 30 1284 1037 0 1286 1287 1282 0 +-.8128 .516091791857147 -
.0889 0 0 1 16 1286 714 0 1288 1283 1289 1284 30 1287 1038 0 1289 1290 1284 0 +-
.720802323207384 .638173065482899 -.0889 0 0 1 16 1289 715 0 1291 1286 1292 1287
 30 1290 1039 0 1292 1293 1287 0 +-.3946639387091395 .731681273625752 -.0889 0 0
 1 16 1292 716 0 1294 1289 1295 1290 30 1293 1040 0 1295 1296 1290 0 +-.35966161
5501756 .7366 -.0889 0 0 1 16 1295 717 0 1297 1292 1298 1293 30 1296 1041 0 1298
 1299 1293 0 +.359661615501756 .7366 -.0889 0 0 1 16 1298 718 0 1300 1295 1301 1
296 30 1299 1042 0 1301 1302 1296 0 +.3946639387091395 .731681273625752 -.0889 0
 0 1 16 1301 719 0 1303 1298 1304 1299 30 1302 1043 0 1304 1305 1299 0 +.7208023
23207384 .638173065482899 -.0889 0 0 1 16 1304 720 0 1306 1301 1307 1302 30 1305
 1044 0 1307 1308 1302 0 +.8128 .516091791857147 -.0889 0 0 1 16 1307 721 0 1309
 1304 1310 1305 30 1308 1045 0 1310 1311 1305 0 +.8128 -.6858 -.0889 0 0 1 16 13
10 722 0 1312 1307 1313 1308 30 1311 1046 0 1313 1314 1308 0 +.762 -.7366 -.0889
 0 0 1 16 1313 723 0 1315 1310 1316 1311 30 1314 1047 0 1316 1317 1311 0 +.68042
6263575032 -.7366 -.0889 0 0 1 16 1316 724 0 1318 1313 1319 1314 30 1317 1048 0
 1319 1320 1314 0 +.638047289407905 -.729320602022133 -.0889 0 0 1 16 1319 725 0
 1321 1316 1322 1317 30 1320 1049 0 1322 1323 1317 0 +.328626607697842 -.6197911
57169014 -.0889 0 0 1 16 1322 726 0 1324 1319 1325 1320 30 1323 1050 0 1325 1326
 1320 0 +.2692960438638645 -.6096 -.0889 0 0 1 16 1325 727 0 1327 1322 1328 1323
 30 1326 1051 0 1328 1329 1323 0 +-.2692960438638645 -.6096 -.0889 0 0 1 16 1328
 728 0 1330 1325 1331 1326 30 1329 1052 0 1331 1332 1326 0 +-.328626607697842 -.
619791157169014 -.0889 0 0 1 16 1331 729 0 1333 1328 380 1329 30 1332 1054 0 380
 1334 1329 0 +-.680426263575032 -.7366 -.0889 0 0 1 16 380 731 0 372 1331 1335 1
332 31 1334 1056 0 1335 0 1332 0 +-.762 -.6858 -.0635 0 0 1 1 0 0 .0508 16 1335
 733 0 383 380 0 1334 17 383 381 373 136 368 1336 1335 15 381 490 0 136 888 1210
 17 136 381 383 427 134 139 428 17 1336 909 1337 377 134 383 1335 15 909 535 0 3
77 904 0 17 1337 909 20 1336 365 1285 1283 17 377 909 1336 20 368 371 378 17 20
 909 377 1337 13 1338 12 17 1338 574 364 22 365 20 12 15 574 440 0 1338 11 0 17
 364 574 361 1338 362 367 1280 17 22 574 1338 313 13 376 1045 17 313 574 22 316
 311 1039 1042 17 376 370 372 371 311 22 1045 17 316 574 313 319 314 1043 1245 1
7 319 574 316 322 317 1339 1247 17 1043 923 1333 1040 317 316 1245 15 923 527 0
 1333 916 0 17 1333 923 187 1043 182 1340 1331 17 187 923 1040 1333 185 1341 387
 17 1340 930 1339 184 317 1333 1331 15 930 525 0 1330 922 0 17 1339 930 1330 134
0 320 319 1247 17 184 930 1340 1330 182 1342 395 17 1330 930 184 1339 179 1343 1
328 17 1342 381 1344 1341 179 184 395 17 1344 381 401 1342 176 181 397 17 1341 3
81 1342 382 182 187 387 17 382 381 1341 373 185 190 384 17 401 381 1345 1344 173
 178 399 17 181 937 1343 1327 179 1344 397 15 937 523 0 1327 929 0 17 1343 937 1
346 181 320 1330 1328 17 1327 937 181 1346 176 1347 1325 17 1346 937 1327 1343 3
23 322 1249 17 1347 947 1253 178 323 1327 1325 15 947 563 0 1324 941 0 17 1253 9
47 1324 1347 326 325 1251 17 178 947 1347 1324 176 401 399 17 1324 947 178 1253
 173 1348 1322 17 1348 954 1349 175 326 1324 1322 15 954 519 0 1321 936 0 17 134
9 954 1321 1348 329 328 1254 17 175 954 1348 1321 173 1345 402 17 1321 954 175 1
349 170 1350 1319 17 1345 381 1351 401 170 175 402 17 1351 381 1352 1345 167 172
 404 17 1352 381 1353 1351 164 169 406 17 172 961 1350 1318 170 1351 404 15 961
 517 0 1318 953 0 17 1350 961 1354 172 329 1321 1319 17 1318 961 172 1354 167 13
55 1316 17 1354 961 1318 1350 332 331 1256 17 1355 968 1356 169 332 1318 1316 15
 968 515 0 1315 960 0 17 1356 968 1315 1355 335 334 1258 17 169 968 1355 1315 16
7 1352 406 17 1315 968 169 1356 164 1357 1313 17 1357 975 1358 166 335 1315 1313
 15 975 513 0 1312 967 0 17 1358 975 1312 1357 338 337 1260 17 166 975 1357 1312
 164 1353 408 17 1312 975 166 1358 161 1359 1310 17 1353 381 1360 1352 161 166 4
08 17 1360 381 1361 1353 158 163 410 17 1361 381 1362 1360 155 160 412 17 163 98
2 1359 1309 161 1360 410 15 982 511 0 1309 974 0 17 1359 982 1363 163 338 1312 1
310 17 1309 982 163 1363 158 1364 1307 17 1363 982 1309 1359 341 340 1262 17 136
4 989 1365 160 341 1309 1307 15 989 509 0 1306 981 0 17 1365 989 1306 1364 344 3
43 1264 17 160 989 1364 1306 158 1361 412 17 1306 989 160 1365 155 1366 1304 17
 1366 996 1367 157 344 1306 1304 15 996 507 0 1303 988 0 17 1367 996 1303 1366 3
47 346 1266 17 157 996 1366 1303 155 1362 414 17 1303 996 157 1367 152 1368 1301
 17 1362 381 1369 1361 152 157 414 17 1369 381 1370 1362 149 154 416 17 1370 381
 422 1369 146 151 418 17 154 1003 1368 1300 152 1369 416 15 1003 505 0 1300 995
 0 17 1368 1003 1371 154 347 1303 1301 17 1300 1003 154 1371 149 1372 1298 17 13
71 1003 1300 1368 350 349 1268 17 1372 1010 1373 151 350 1300 1298 15 1010 503 0
 1297 1002 0 17 1373 1010 1297 1372 353 352 1270 17 151 1010 1372 1297 149 1370
 418 17 1297 1010 151 1373 146 1374 1295 17 1374 1016 1274 148 353 1297 1295 15
 1016 543 0 1294 946 0 17 1274 1016 1294 1374 356 355 1272 17 148 1016 1374 1294
 146 422 420 17 1294 1016 148 1274 143 1375 1292 17 422 381 1376 1370 143 148 42
0 17 1376 381 427 422 140 145 423 17 427 381 136 1376 137 142 425 17 145 1021 13
75 1291 143 1376 423 15 1021 499 0 1291 1009 0 17 1375 1021 1377 145 356 1294 12
92 17 1291 1021 145 1377 140 1378 1289 17 1377 1021 1291 1375 359 358 1275 17 13
78 1026 1279 142 359 1291 1289 15 1026 539 0 1288 908 0 17 1279 1026 1288 1378 3
62 361 1277 17 142 1026 1378 1288 140 427 425 17 1288 1026 142 1279 137 1379 128
6 17 1379 1031 367 139 362 1288 1286 15 1031 495 0 1285 900 0 17 367 1031 1285 1
379 365 364 1280 17 139 1031 1379 1285 137 136 428 17 1285 1031 139 367 134 1337
 1283 17 361 574 358 364 359 1279 1277 17 358 574 355 361 356 1377 1275 17 355 5
74 352 358 353 1274 1272 17 352 574 349 355 350 1373 1270 17 349 574 346 352 347
 1371 1268 17 346 574 343 349 344 1367 1266 17 343 574 340 346 341 1365 1264 17
 340 574 337 343 338 1363 1262 17 337 574 334 340 335 1358 1260 17 334 574 331 3
37 332 1356 1258 17 331 574 328 334 329 1354 1256 17 328 574 325 331 326 1349 12
54 17 325 574 322 328 323 1253 1251 17 322 574 319 325 320 1346 1249 17 379 1035
 1039 190 311 372 380 83 1 1033 0 83 1 1028 0 83 1 1023 0 83 1 1018 0 83 1 1013
 0 83 1 1006 0 83 1 999 0 83 1 992 0 83 1 985 0 83 1 978 0 83 1 971 0 83 1 964 0
 83 1 957 0 83 1 950 0 83 1 940 0 83 1 933 0 83 1 926 0 83 1 919 0 83 1 913 0 83
 1 903 0 83 1 897 0 83 1 892 0 83 1 886 0 83 1 879 0 83 1 872 0 83 1 865 0 83 1
 858 0 83 1 851 0 83 1 844 0 83 1 837 0 83 1 830 0 83 1 823 0 83 1 816 0 83 1 80
9 0 83 1 802 0 83 1 795 0 83 1 788 0 83 1 781 0 83 1 774 0 83 1 767 0 83 1 760 0
 83 1 753 0 83 1 746 0 83 1 740 0 83 1 736 0 79 15 730 SDL/TYSA_COLOUR83 3 727 1
 .5 0 83 3 724 1 .5 0 83 3 721 1 .5 0 83 3 718 1 .5 0 83 3 715 1 .5 0 83 3 712 1
 .5 0 83 3 709 1 .5 0 83 3 706 1 .5 0 83 3 703 1 .5 0 83 3 700 1 .5 0 83 3 697 1
 .5 0 83 3 694 1 .5 0 83 3 691 1 .5 0 83 3 688 1 .5 0 79 21 685 SDL/TYSA_TRANSLU
CENCY83 1 651 0 17 67 19 64 70 65 640 473 17 64 19 61 67 62 636 475 17 61 19 58
 64 59 633 477 17 58 19 55 61 56 626 479 17 55 19 52 58 53 622 481 17 52 19 49 5
5 50 619 483 17 49 19 46 52 47 611 485 17 46 19 43 49 44 607 487 17 43 19 40 46
 41 604 489 17 40 19 37 43 38 596 491 17 37 19 34 40 35 592 493 17 34 19 31 37 3
2 589 495 74 20 10 3 0 1029 893 2 0 0 0 0 0 0 0 0 0 0 0 0 0 0 0 0 0 80 2 7 1380
 8004 1381 0 0 0 0 3 5 0 0 FFTFFFFFFFFF2 3 83 1 8 7830.64369935348 84 8 9 KG/CU
 M 79 16 1381 SDL/TYSA_DENSITY1 0 
