**ABCDEFGHIJKLMNOPQRSTUVWXYZabcdefghijklmnopqrstuvwxyz**************************
**PARASOLID !"#$%&'()*+,-./:;<=>?@[\]^_`{|}~0123456789**************************
**PART1;MC=sparc;MC_MODEL=sun4c;MC_ID=chaos;OS=SunOS;OS_RELEASE=4.1.2;FRU=sdl_pa
rasolid_test_sparc;APPL=unknown;SITE=sdl-cambridge-u.k.;USER=brown;FORMAT=text;G
UISE=transmit;KEY=frame;FILE=frame.xmt_txt;DATE=13-feb-1992;
**PART2;SCH=SCH_401021_4039;USFLD_SIZE=0;
**PART3;
**END_OF_HEADER*****************************************************************
T50 : TRANSMIT FILE created by modeller version 40102115 SCH_401021_40390 12 1 4
27 2 3 0 0 0 1e3 1e-8 4 2 0 5 0 1 6 1e-8 0 0 81 1 2 427 7 1 0 0 0 0 8 70 3 0 1 0
 0 4 1 20 4 9 9 1 102 5 4 frame13 6 1 0 1 0 10 11 12 13 14 15 14 10 -1 0 16 0 17
 6 18 +16 11 -10 0 19 0 20 21 18 12 -11 0 22 0 23 24 50 13 426 0 25 26 0 0 +-.51
 0 .158 0 0 -1 -1 0 0 30 14 397 0 27 28 0 0 +1e-8 -.49 0 .158 0 -1 0 29 15 313 0
 29 30 0 -.49 .025 0 18 29 -631 0 31 32 0 15 29 30 312 0 32 33 15 -.49 0 0 18 32
 -627 0 34 35 29 30 29 33 311 0 35 36 30 -.49 0 .158 18 35 -623 0 37 38 32 33 29
 36 310 0 38 39 33 -.49 .025 .158 18 38 -619 0 40 41 35 36 29 39 309 0 41 42 36
 -.51 .025 .158 18 41 -615 0 43 44 38 39 29 42 308 0 44 45 39 -.51 .185 .1 18 44
 -567 0 46 47 41 42 29 45 307 0 47 48 42 -.51 .127 .158 18 47 -563 0 49 50 44 45
 29 48 306 0 50 51 45 -.535 0 .158 18 50 -547 0 52 53 47 48 29 51 305 0 53 54 48
 -.535 .127 .158 18 53 -543 0 55 56 50 51 29 54 304 0 56 57 51 -.535 .185 .1 18
 56 -539 0 58 59 53 54 29 57 303 0 59 60 54 -.51 .185 .06 18 59 -523 0 61 62 56
 57 29 60 302 0 62 63 57 -.535 .185 .06 18 62 -515 0 64 65 59 60 29 63 301 0 65
 66 60 -.025 .65 .082 18 65 -459 0 67 68 62 63 29 66 300 0 68 69 63 -.083 .65 .1
4 18 68 -455 0 70 71 65 66 29 69 299 0 71 72 66 -.147 .65 .14 18 71 -451 0 73 74
 68 69 29 72 298 0 74 75 69 -.147 .675 .14 18 74 -447 0 76 77 71 72 29 75 297 0
 77 78 72 -.083 .675 .14 18 77 -443 0 79 80 74 75 29 78 296 0 80 81 75 -.025 .67
5 .082 18 80 -439 0 82 83 77 78 29 81 295 0 83 84 78 -.243 .675 .14 18 83 -411 0
 85 86 80 81 29 84 294 0 86 87 81 -.243 .65 .14 18 86 -407 0 88 89 83 84 29 87 2
93 0 89 90 84 -.243 .675 .06 18 89 -391 0 91 92 86 87 29 90 292 0 92 93 87 -.243
 .65 .06 18 92 -387 0 94 95 89 90 29 93 291 0 95 96 90 -.403 0 0 18 95 -351 0 97
 98 92 93 29 96 290 0 98 99 93 -.403 .025 0 18 98 -347 0 100 101 95 96 29 99 289
 0 101 102 96 -.307 .025 0 18 101 -343 0 103 104 98 99 29 102 288 0 104 105 99 -
.307 0 0 18 104 -339 0 106 107 101 102 29 105 287 0 107 108 102 -.307 .025 .11 1
8 107 -335 0 109 110 104 105 29 108 286 0 110 111 105 -.403 .025 .11 18 110 -331
 0 112 113 107 108 29 111 285 0 113 114 108 -.403 0 .11 18 113 -327 0 115 116 11
0 111 29 114 284 0 116 117 111 -.307 0 .11 18 116 -323 0 118 119 113 114 29 117
 283 0 119 120 114 -.203 0 0 18 119 -287 0 121 122 116 117 29 120 282 0 122 123
 117 -.203 .025 0 18 122 -283 0 124 125 119 120 29 123 281 0 125 126 120 -.107 .
025 0 18 125 -279 0 127 128 122 123 29 126 280 0 128 129 123 -.107 0 0 18 128 -2
75 0 130 131 125 126 29 129 279 0 131 132 126 -.107 .025 .11 18 131 -271 0 133 1
34 128 129 29 132 278 0 134 135 129 -.203 .025 .11 18 134 -267 0 136 137 131 132
 29 135 277 0 137 138 132 -.203 0 .11 18 137 -263 0 139 140 134 135 29 138 276 0
 140 141 135 -.107 0 .11 18 140 -259 0 142 143 137 138 29 141 275 0 143 144 138
 -.025 .675 0 18 143 -219 0 145 146 140 141 29 144 274 0 146 147 141 -.433 .675
 .06 18 146 -207 0 148 149 143 144 29 147 273 0 149 150 144 -.535 .5293 .06 18 1
49 -203 0 151 152 146 147 29 150 272 0 152 153 147 -.51 .515 .06 18 152 -199 0 1
54 155 149 150 29 153 271 0 155 156 150 -.4125 .65 .06 18 155 -195 0 157 158 152
 153 29 156 270 0 158 159 153 -.025 .025 0 18 158 -143 0 160 161 155 156 29 159
 269 0 161 162 156 -.025 .65 .23 18 161 -123 0 163 164 158 159 29 162 268 0 164
 165 159 -.4125 .65 .23 18 164 -119 0 166 167 161 162 29 165 267 0 167 168 162 -
.51 .515 .23 18 167 -115 0 169 170 164 165 29 168 266 0 170 171 165 -.51 .025 .2
3 18 170 -111 0 172 173 167 168 29 171 265 0 173 174 168 -.025 .025 .23 18 173 -
107 0 175 176 170 171 29 174 264 0 176 177 171 -.535 .5293 .23 18 176 -55 0 178
 179 173 174 29 177 263 0 179 180 174 -.433 .675 .23 18 179 -51 0 181 182 176 17
7 29 180 262 0 182 183 177 -.535 1e-16 .23 18 182 -31 0 184 185 179 180 29 183 2
61 0 185 186 180 0 .675 .23 18 185 -23 0 187 188 182 183 29 186 260 0 188 189 18
3 0 1e-16 .23 18 188 -19 0 190 23 185 186 29 189 259 0 23 24 186 0 1e-16 0 18 23
 -15 0 19 12 188 189 29 24 258 0 12 0 189 0 .675 0 17 19 17 130 22 23 191 11 0 1
5 17 228 0 145 10 0 17 130 17 127 19 128 192 20 0 17 22 17 19 145 12 193 194 0 1
7 191 195 187 196 12 19 11 0 15 195 230 0 196 197 0 17 187 195 198 191 185 199 2
00 0 17 196 195 191 198 23 190 201 0 17 198 195 196 187 188 202 203 0 17 190 204
 184 192 188 196 201 0 16 201 -26 0 190 203 205 206 16 203 -22 0 198 207 201 208
 16 205 -30 0 209 201 200 210 30 206 318 0 201 208 210 0 +1e-8 0 1e-16 0 0 0 1 3
0 208 317 0 203 211 206 0 +1e-8 0 0 .23 0 -1 0 30 210 319 0 205 206 212 0 +1e-8
 0 .675 .23 1 0 0 30 212 320 0 200 210 213 0 +1e-8 0 .675 0 0 0 1 16 200 -34 0 1
87 205 214 212 30 213 321 0 214 212 215 0 +1e-8 -.535 0 .23 0 1 0 16 214 -54 0 2
16 200 217 213 30 215 322 0 217 213 218 0 +1e-8 -.433 .675 0 0 0 -1 16 217 -86 0
 219 214 220 215 30 218 323 0 220 215 221 0 +1e-8 -.607710021247142 .42543872455
1877 .23 .573500078988493 .819205504986504 0 16 220 -90 0 222 217 223 218 30 221
 324 0 223 218 224 0 +1e-8 0 .025 .23 1 0 0 16 223 -138 0 225 220 226 221 30 224
 325 0 226 221 227 0 +1e-8 -.51 0 .23 0 -1 0 16 226 -146 0 228 223 229 224 30 22
7 326 0 229 224 230 0 +1e-8 -.579614604462475 .4186105476673425 .23 -.5854905538
44358 -.810679228399882 0 16 229 -154 0 231 226 232 227 30 230 327 0 232 227 233
 0 +1e-8 0 .65 .23 -1 0 0 16 232 -162 0 234 229 235 230 30 233 328 0 235 230 236
 0 +1e-8 -.025 0 .23 0 1 0 16 235 -170 0 237 232 238 233 30 236 329 0 238 233 23
9 0 +1e-8 -.025 0 0 0 1 0 16 238 -174 0 145 235 240 236 30 239 330 0 240 236 241
 0 +1e-8 -.51 .025 0 0 0 -1 16 240 -182 0 43 238 242 239 30 241 331 0 242 239 24
3 0 +1e-8 -.51 .515 0 0 0 -1 16 242 -186 0 154 240 244 241 30 243 332 0 244 241
 245 0 +1e-8 -.4125 .65 0 0 0 -1 16 244 -190 0 246 242 194 243 30 245 333 0 194
 243 247 0 +1e-8 0 .675 0 1 0 0 16 194 -198 0 22 244 248 245 30 247 334 0 248 24
5 249 0 +1e-8 -.535 .5293 0 0 0 -1 16 248 -214 0 250 194 251 247 30 249 335 0 25
1 247 252 0 +1e-8 -.025 .025 0 0 0 -1 16 251 -226 0 253 248 254 249 30 252 336 0
 254 249 255 0 +1e-8 -.025 .675 0 0 0 1 16 254 -286 0 82 251 256 252 30 255 337
 0 256 252 257 0 +1e-8 -.579614604462475 .4186105476673425 .06 .585490553844358
 .810679228399882 0 16 256 -310 0 157 254 258 255 30 257 338 0 258 255 259 0 +1e
-8 -.607710021247142 .425438724551877 .06 -.573500078988493 -.819205504986504 0
 16 258 -318 0 151 256 260 257 30 259 339 0 260 257 261 0 +1e-8 -.535 0 .06 0 1
 0 16 260 -322 0 262 258 263 259 30 261 340 0 263 259 264 0 +1e-8 0 1e-16 0 -1 0
 0 16 263 -338 0 265 260 266 261 30 264 341 0 266 261 267 0 +1e-8 0 .025 0 -1 0
 0 16 266 -346 0 268 263 269 264 31 267 342 0 269 264 270 0 +1e-8 -.155 .025 .11
 0 -1 -1e-16 0 1e-16 -1 .048 16 269 -386 0 271 266 272 267 31 270 343 0 272 267
 273 0 +1e-8 -.155 0 .11 0 -1 -1e-16 0 1e-16 -1 .048 16 272 -390 0 274 269 275 2
70 30 273 344 0 275 270 276 0 +1e-8 -.203 0 0 0 1 0 16 275 -394 0 277 272 278 27
3 30 276 345 0 278 273 279 0 +1e-8 -.203 .025 0 0 0 1 16 278 -398 0 280 275 281
 276 30 279 346 0 281 276 282 0 +1e-8 -.203 0 0 0 0 1 16 281 -402 0 139 278 283
 279 30 282 347 0 283 279 284 0 +1e-8 -.107 .025 0 0 0 1 16 283 -406 0 285 281 2
86 282 30 284 348 0 286 282 287 0 +1e-8 -.107 0 0 0 0 1 16 286 -410 0 288 283 28
9 284 30 287 349 0 289 284 290 0 +1e-8 -.107 0 0 0 -1 0 16 289 -414 0 291 286 29
2 287 30 290 350 0 292 287 293 0 +1e-8 -.107 0 .11 0 1 0 16 292 -418 0 294 289 2
95 290 30 293 351 0 295 290 296 0 +1e-8 -.203 0 .11 0 -1 0 16 295 -422 0 297 292
 298 293 30 296 352 0 298 293 299 0 +1e-8 0 1e-16 0 -1 0 0 16 298 -426 0 300 295
 301 296 30 299 353 0 301 296 302 0 +1e-8 0 .025 0 -1 0 0 16 301 -434 0 303 298
 304 299 31 302 354 0 304 299 305 0 +1e-8 -.355 .025 .11 0 -1 -1e-16 0 1e-16 -1
 .048 16 304 -474 0 306 301 307 302 31 305 355 0 307 302 308 0 +1e-8 -.355 0 .11
 0 -1 -1e-16 0 1e-16 -1 .048 16 307 -478 0 309 304 310 305 30 308 356 0 310 305
 311 0 +1e-8 -.403 0 0 0 1 0 16 310 -482 0 312 307 313 308 30 311 357 0 313 308
 314 0 +1e-8 -.403 .025 0 0 0 1 16 313 -486 0 315 310 316 311 30 314 358 0 316 3
11 317 0 +1e-8 -.403 0 0 0 0 1 16 316 -490 0 115 313 318 314 30 317 359 0 318 31
4 319 0 +1e-8 -.307 .025 0 0 0 1 16 318 -494 0 320 316 321 317 30 319 360 0 321
 317 322 0 +1e-8 -.307 0 0 0 -1 0 16 321 -498 0 323 318 324 319 30 322 361 0 324
 319 325 0 +1e-8 -.307 0 0 0 0 1 16 324 -502 0 326 321 327 322 30 325 362 0 327
 322 328 0 +1e-8 -.307 0 .11 0 1 0 16 327 -506 0 329 324 330 325 30 328 363 0 33
0 325 331 0 +1e-8 -.403 0 .11 0 -1 0 16 330 -510 0 332 327 333 328 30 331 364 0
 333 328 334 0 +1e-8 0 .675 .06 1 0 0 16 333 -534 0 335 330 336 331 30 334 365 0
 336 331 337 0 +1e-8 0 .65 .06 1 0 0 16 336 -542 0 338 333 339 334 31 337 366 0
 339 334 340 0 +1e-8 -.195 .65 .14 0 -1 -1e-16 0 1e-16 -1 .048 16 339 -562 0 88
 336 341 337 31 340 367 0 341 337 342 0 +1e-8 -.195 .675 .14 0 -1 -1e-16 0 1e-16
 -1 .048 16 341 -566 0 85 339 343 340 30 342 368 0 343 340 344 0 +1e-8 -.243 .02
5 .06 0 -1 0 16 343 -570 0 94 341 345 342 30 344 369 0 345 342 346 0 +1e-8 -.243
 .65 0 0 0 1 16 345 -574 0 347 343 348 344 30 346 370 0 348 344 349 0 +1e-8 -.24
3 .675 0 0 0 1 16 348 -578 0 350 345 351 346 30 349 371 0 351 346 352 0 +1e-8 -.
243 .65 .14 0 -1 0 16 351 -598 0 353 348 354 349 30 352 372 0 354 349 355 0 +1e-
8 -.025 .65 0 0 0 -1 16 354 -606 0 67 351 356 352 31 355 373 0 356 352 357 0 +1e
-8 -.083 .65 .082 0 -1 0 0 0 -1 .058 16 356 -642 0 358 354 359 355 31 357 374 0
 359 355 360 0 +1e-8 -.083 .675 .082 0 -1 0 0 0 -1 .058 16 359 -646 0 79 356 361
 357 30 360 375 0 361 357 362 0 +1e-8 0 .65 .14 -1 0 0 16 361 -650 0 363 359 364
 360 30 362 376 0 364 360 365 0 +1e-8 0 .675 .14 -1 0 0 16 364 -654 0 76 361 366
 362 30 365 377 0 366 362 367 0 +1e-8 -.147 0 .14 0 1 0 16 366 -658 0 368 364 36
9 365 30 367 378 0 369 365 370 0 +1e-8 -.025 0 .082 0 1 0 16 369 -666 0 371 366
 372 367 30 370 379 0 372 367 373 0 +1e-8 -.083 0 .14 0 1 0 16 372 -670 0 374 36
9 375 370 30 373 380 0 375 370 376 0 +1e-8 -.51 0 .06 0 1 0 16 375 -686 0 377 37
2 378 373 30 376 381 0 378 373 379 0 +1e-8 -.535 1e-16 0 0 0 1 16 378 -690 0 380
 375 381 376 30 379 382 0 381 376 382 0 +1e-8 -.535 .185 0 0 0 1 16 381 -750 0 5
8 378 383 379 30 382 383 0 383 379 384 0 +1e-8 -.535 .185 .06 -1 0 0 16 383 -754
 0 64 381 385 382 30 384 384 0 385 382 386 0 +1e-8 -.51 .185 0 0 0 1 16 385 -758
 0 387 383 388 384 31 386 385 0 388 384 389 0 +1e-8 -.535 .127 .1 1 0 0 0 0 -1 .
058 16 388 -762 0 55 385 390 386 31 389 386 0 390 386 391 0 +1e-8 -.51 .127 .1 1
 0 0 0 0 -1 .058 16 390 -766 0 392 388 393 389 30 391 387 0 393 389 394 0 +1e-8
 -.535 0 .158 0 -1 0 16 393 -770 0 395 390 396 391 30 394 388 0 396 391 397 0 +1
e-8 -.51 0 .158 0 -1 0 16 396 -774 0 398 393 399 394 30 397 389 0 399 394 400 0
 +1e-8 0 0 .158 -1 0 0 16 399 -778 0 401 396 402 397 30 400 390 0 402 397 403 0
 +1e-8 0 .185 .1 -1 0 0 16 402 -810 0 404 399 405 400 30 403 391 0 405 400 406 0
 +1e-8 0 .127 .158 -1 0 0 16 405 -814 0 407 402 408 403 30 406 392 0 408 403 409
 0 +1e-8 0 .025 0 -1 0 0 16 408 -862 0 410 405 411 406 30 409 393 0 411 406 412
 0 +1e-8 -.49 .025 0 0 0 1 16 411 -886 0 40 408 413 409 30 412 394 0 413 409 414
 0 +1e-8 -.49 0 0 0 -1 0 16 413 -890 0 415 411 416 412 30 414 395 0 416 412 28 0
 +1e-8 -.49 0 0 0 0 1 16 416 -894 0 417 413 418 414 30 28 396 0 418 414 14 0 +1e
-8 0 .025 .158 1 0 0 16 418 -898 0 419 416 27 28 17 419 420 421 398 38 422 418 0
 16 27 -910 0 421 418 0 14 17 421 420 401 419 35 423 27 0 15 420 257 0 421 25 0
 17 401 420 424 421 50 37 399 0 17 423 425 426 417 38 421 27 0 15 425 256 0 415
 427 0 17 426 425 415 423 29 40 411 0 17 417 425 423 415 35 34 416 0 17 415 425
 417 426 32 31 413 0 17 34 204 97 37 32 417 416 0 15 204 229 0 37 16 0 17 97 204
 115 34 95 300 298 0 17 37 204 34 52 35 401 399 0 17 52 204 37 184 50 380 378 0
 17 184 204 52 190 182 428 207 0 17 380 429 216 395 182 52 378 0 15 429 251 0 58
 430 0 17 216 429 250 380 176 431 214 0 17 395 429 380 55 50 424 393 0 17 55 429
 395 58 53 432 388 0 17 424 420 433 401 53 395 393 0 17 433 420 398 424 47 407 4
05 0 17 398 420 419 433 41 49 396 0 17 407 434 432 392 53 433 405 0 15 434 254 0
 392 435 0 17 432 434 436 407 56 55 388 0 17 392 434 407 436 47 46 390 0 17 436
 434 392 432 44 404 402 0 17 46 437 438 49 44 392 390 0 15 437 252 0 46 439 0 17
 438 437 377 46 59 387 385 0 17 49 437 46 43 47 398 396 0 17 43 437 49 228 41 44
0 240 0 17 228 437 43 441 170 169 226 0 17 440 442 225 422 170 43 240 0 15 442 2
55 0 410 443 0 17 225 442 253 440 173 172 223 0 17 422 442 440 40 41 419 418 0 1
7 40 442 422 410 38 426 411 0 17 410 442 40 444 29 100 408 0 17 444 442 410 306
 98 315 313 0 17 100 445 446 31 98 410 408 0 15 445 241 0 31 447 0 17 446 445 30
0 100 95 312 310 0 17 31 445 100 300 29 415 413 0 17 300 445 31 446 32 97 298 0
 17 312 448 315 449 98 446 310 0 15 448 243 0 312 450 0 17 315 448 332 312 110 4
44 313 0 17 449 448 312 332 95 115 316 0 17 332 448 449 315 113 112 330 0 17 115
 204 118 97 113 449 316 0 17 118 204 106 115 116 309 307 0 17 106 204 121 118 10
4 326 324 0 17 309 451 112 452 113 118 307 0 15 451 242 0 309 453 0 17 112 451 1
09 309 110 332 330 0 17 452 451 309 109 116 329 327 0 17 109 451 452 112 107 306
 304 0 17 329 454 455 326 107 452 327 0 15 454 244 0 323 456 0 17 455 454 323 32
9 101 320 318 0 17 326 454 329 323 116 106 324 0 17 323 454 326 455 104 103 321
 0 17 103 457 124 265 101 323 321 0 15 457 237 0 103 458 0 17 124 457 459 103 12
2 303 301 0 17 265 457 103 459 104 121 263 0 17 459 457 265 124 119 277 275 0 17
 121 204 139 106 119 265 263 0 17 139 204 142 121 137 460 281 0 17 142 204 461 1
39 140 274 272 0 17 460 462 277 297 119 139 281 0 15 462 239 0 277 463 0 17 277
 462 280 460 122 459 275 0 17 297 462 460 280 137 136 295 0 17 280 462 297 277 1
34 464 278 0 17 136 465 133 274 134 297 295 0 15 465 238 0 274 466 0 17 133 465
 467 136 131 271 269 0 17 274 465 136 467 137 142 272 0 17 467 465 274 133 140 2
94 292 0 17 294 468 469 288 131 467 292 0 15 468 240 0 291 470 0 17 469 468 291
 294 125 285 283 0 17 288 468 294 291 140 461 286 0 17 291 468 288 469 128 127 2
89 0 17 461 204 192 142 128 288 286 0 17 192 204 190 461 23 130 20 0 16 20 -14 0
 130 11 207 471 16 207 -18 0 184 20 203 211 30 471 315 0 20 21 211 0 +1e-8 0 1e-
16 0 -1 0 0 30 21 314 0 11 0 471 0 +1e-8 0 0 0 0 -1 0 30 211 316 0 207 471 208 0
 +1e-8 0 1e-16 .23 -1 0 0 17 127 17 160 130 125 291 289 0 17 160 17 145 127 158
 268 266 0 17 145 17 22 160 143 472 238 0 17 268 442 285 253 125 160 266 0 17 28
5 442 271 268 131 469 283 0 17 253 442 268 225 158 473 251 0 17 473 474 237 472
 173 253 251 0 15 474 236 0 475 476 0 17 237 474 67 473 161 175 235 0 17 472 474
 473 475 158 145 238 0 17 475 474 472 371 143 82 254 0 17 371 474 475 67 80 477
 369 0 17 82 478 79 193 80 475 254 0 15 478 231 0 82 479 0 17 79 478 76 82 77 48
0 359 0 17 193 478 82 199 143 22 194 0 17 199 478 193 209 12 187 200 0 17 209 47
8 199 181 185 481 205 0 17 181 478 209 148 179 219 217 0 17 481 482 483 202 179
 209 205 0 15 482 234 0 481 484 0 17 483 482 431 481 176 222 220 0 17 202 482 48
1 428 185 198 203 0 17 428 482 202 431 188 184 207 0 17 431 482 428 483 182 216
 214 0 17 222 485 219 178 179 483 220 0 15 485 232 0 151 486 0 17 219 485 151 22
2 146 181 217 0 17 178 485 222 151 176 250 248 0 17 151 485 178 219 149 487 258
 0 17 250 429 488 216 149 178 248 0 17 488 429 58 250 62 262 260 0 17 58 429 55
 488 56 489 381 0 17 262 490 487 64 149 488 260 0 15 490 245 0 64 491 0 17 487 4
90 335 262 146 151 258 0 17 64 490 262 61 62 492 383 0 17 61 490 64 493 59 377 3
75 0 17 492 494 387 489 59 64 383 0 15 494 253 0 489 495 0 17 387 494 404 492 44
 438 385 0 17 489 494 492 404 62 58 381 0 17 404 494 489 387 56 436 402 0 14 495
 -261 0 435 439 494 6 496 -14 435 -265 0 443 495 434 6 497 -14 439 -241 0 495 43
0 437 6 498 -50 496 422 0 495 498 497 0 +-.51 .185 0 0 1 0 0 0 1 50 498 421 0 43
9 499 496 0 +-.51 0 0 -1 0 0 0 0 1 51 497 423 0 435 496 500 0 +-.51 .127 .1 -1 0
 0 .058 0 0 1 50 500 424 0 443 497 26 0 +0 .025 0 0 -1 0 0 0 -1 14 443 -297 0 42
7 435 442 6 500 -50 26 425 0 427 500 13 0 +-.49 0 0 1 0 0 0 0 -1 14 427 -301 0 2
5 443 425 6 26 -14 25 -305 0 0 427 420 6 13 +50 499 420 0 430 501 498 0 +-.535 0
 0 -1 0 0 0 0 1 14 430 -229 0 439 502 429 6 499 +50 501 419 0 502 503 499 0 +0 .
65 .14 0 0 1 1 0 0 14 502 -225 0 430 504 505 6 501 -51 503 418 0 504 506 501 0 +
-.083 .65 .082 0 1 0 .058 0 0 1 14 504 -221 0 502 507 508 6 503 -50 506 417 0 50
7 509 503 0 +0 .65 0 0 1 0 0 0 1 14 507 -209 0 504 510 511 6 506 -50 509 416 0 5
10 512 506 0 +-.243 0 0 -1 0 0 0 0 1 14 510 -197 0 507 513 514 6 509 -51 512 415
 0 513 515 509 0 +-.195 .65 .14 0 1 0 .048 0 0 1 14 513 -193 0 510 491 516 6 512
 -50 515 414 0 491 517 512 0 +-.535 .025 .06 0 0 -1 -1 0 0 14 491 -177 0 513 456
 490 6 515 +50 517 413 0 456 518 515 0 +-.307 0 0 1 0 0 0 0 -1 14 456 -173 0 491
 450 454 6 517 -50 518 412 0 450 519 517 0 +-.403 0 0 -1 0 0 0 0 1 14 450 -169 0
 456 453 448 6 518 -51 519 411 0 453 520 518 0 +-.355 0 .11 0 1 0 .048 0 0 1 14
 453 -165 0 450 447 451 6 519 -50 520 410 0 447 521 519 0 +-.535 1e-16 0 0 0 -1
 -1 0 0 14 447 -149 0 453 470 445 6 520 +50 521 409 0 470 522 520 0 +-.107 0 0 1
 0 0 0 0 -1 14 470 -145 0 447 463 468 6 521 -50 522 408 0 463 523 521 0 +-.203 0
 0 -1 0 0 0 0 1 14 463 -141 0 470 466 462 6 522 -51 523 407 0 466 524 522 0 +-.1
55 0 .11 0 1 0 .048 0 0 1 14 466 -137 0 463 458 465 6 523 -50 524 406 0 458 525
 523 0 +-.535 1e-16 0 0 0 -1 -1 0 0 14 458 -121 0 466 476 457 6 524 +50 525 405
 0 476 526 524 0 +-.025 0 0 1 0 0 0 0 -1 14 476 -109 0 458 527 474 6 525 -50 526
 404 0 527 528 525 0 +-.579614604462475 .4186105476673425 0 -.810679228399882 .5
85490553844358 0 -.585490553844358 -.810679228399882 0 14 527 -61 0 476 484 529
 6 526 -50 528 403 0 484 530 526 0 +-.535 1e-16 .23 0 0 -1 -1 0 0 14 484 -49 0 5
27 486 531 6 528 -50 530 402 0 486 532 528 0 +-.607710021247142 .425438724551877
 0 .819205504986504 -.573500078988493 0 .573500078988493 .819205504986504 0 14 4
86 -41 0 484 479 485 6 530 -50 532 401 0 479 533 530 0 +0 .675 0 0 1 0 0 0 1 14
 479 -17 0 486 197 478 6 532 +50 533 400 0 197 534 532 0 +0 0 0 1 0 0 0 0 -1 14
 197 -13 0 479 16 195 6 533 +50 534 399 0 16 18 533 0 +0 1e-16 0 0 -1 0 0 0 -1 1
4 16 -9 0 197 10 204 6 534 +50 18 398 0 10 0 534 0 +-.535 1e-16 0 0 0 -1 -1 0 0
 15 531 233 0 175 484 482 17 175 531 172 163 173 237 235 0 17 172 531 169 175 17
0 225 223 0 17 163 531 175 166 161 234 232 0 17 166 531 163 169 164 231 229 0 17
 234 511 246 535 164 163 232 0 15 511 248 0 70 507 0 17 246 511 338 234 155 536
 244 0 17 535 511 234 537 161 67 354 0 17 537 511 535 70 65 358 356 0 17 67 474
 371 237 65 535 354 0 17 70 511 537 538 68 363 361 0 17 358 508 374 477 68 537 3
56 0 15 508 249 0 358 504 0 17 374 508 480 358 77 539 372 0 17 477 508 358 480 6
5 371 369 0 17 480 508 477 374 80 79 359 0 17 539 505 363 540 68 374 372 0 15 50
5 250 0 363 502 0 17 363 505 368 539 71 70 361 0 17 540 505 539 368 77 76 364 0
 17 368 505 540 363 74 73 366 0 17 76 478 85 79 74 540 364 0 17 85 478 91 76 83
 541 341 0 17 91 478 148 85 89 350 348 0 17 541 516 73 542 74 85 341 0 15 516 24
6 0 88 513 0 17 73 516 88 541 71 368 366 0 17 542 516 541 88 83 353 351 0 17 88
 516 542 73 86 538 339 0 17 353 514 543 350 86 542 351 0 15 514 247 0 543 510 0
 17 543 514 544 353 92 347 345 0 17 350 514 353 544 83 91 348 0 17 544 514 350 5
43 89 94 343 0 17 94 490 545 335 92 544 343 0 17 545 490 493 94 155 338 336 0 17
 335 490 94 487 89 148 333 0 17 148 478 181 91 146 335 333 0 17 493 490 61 545 1
52 157 256 0 17 338 511 347 246 92 545 336 0 17 347 511 538 338 86 543 345 0 17
 538 511 70 347 71 88 339 0 17 157 529 536 154 155 493 256 0 15 529 235 0 157 52
7 0 17 536 529 231 157 164 246 244 0 17 154 529 157 231 152 441 242 0 17 231 529
 154 536 167 166 229 0 17 441 437 228 377 167 154 242 0 17 377 437 441 438 152 6
1 375 0 17 169 531 166 172 167 228 226 0 17 271 442 464 285 134 133 269 0 17 464
 442 303 271 122 280 278 0 17 303 442 320 464 101 124 301 0 17 320 442 306 303 1
07 455 318 0 17 306 442 444 320 110 109 304 0 74 20 9 1 0 2 0 0 0 0 0 0 0 0 0 0
 0 0 0 0 0 0 0 0 0 80 1 7 546 8017 547 0 0 0 0 0 0 0 0 TTTTTTTTTTTT3 84 5 8 FRAM
E79 13 547 SDL/TYSA_NAME1 0 
