600 0 1 0           
80 GICL ACIS Healer - Source: /gicl/data5/repository/STEP/STI/valve/valve.sat - 6 0 18 ACIS 6.0.3 Solaris 24 Sun Apr 14 00:08:37 2002 
1 9.999999999999999547e-07 1.000000000000000036e-10 
body $1 $2 $-1 $3 #
attrib_gssl_step_cc1_details-attrib_gssl_step-attrib $-1 $-1 $-1 $0 $4 $5 $6 $7 $8 $9 $10 $11 $12 $13 $14 $15 $16 $17 $18 $19 $20 $21 $22 $23 $24 $25 $26 $27 $28 $29 $30 $31 $32 $33 $34 $35 #
lump $-1 $-1 $36 $0 #
transform $-1 1 0 0 0 1 0 0 0 1 0 0 0 1 no_rotate no_reflect no_shear #
attrib_gssl_step_product_details-attrib_gssl_step-attrib $-1 $-1 $-1 $-1 7 Product 9 Test Part 1 1 6 detail 6 detail #
attrib_gssl_step_application_details-attrib_gssl_step-attrib $-1 $-1 $-1 $-1 70 configuration controlled 3d designs of mechanical parts and assemblies 22 International Standard 21 config_control_design 1994 #
attrib_gssl_step_mech_con_details-attrib_gssl_step-attrib $-1 $-1 $-1 $-1 19 3D Mechanical Parts 10 mechanical #
attrib_gssl_step_des_con_details-attrib_gssl_step-attrib $-1 $-1 $-1 $-1 19 3D Mechanical Parts 6 design #
attrib_gssl_step_person_details-attrib_gssl_step-attrib $-1 $-1 $-1 $-1 1 1 9 Last Name 10 First Name 0 0 0 #
attrib_gssl_step_person_details-attrib_gssl_step-attrib $-1 $-1 $-1 $-1 1 2 9 Last Name 10 First Name 0 0 0 #
attrib_gssl_step_person_details-attrib_gssl_step-attrib $-1 $-1 $-1 $-1 1 3 9 Last Name 10 First Name 0 0 0 #
attrib_gssl_step_person_details-attrib_gssl_step-attrib $-1 $-1 $-1 $-1 1 2 9 Last Name 10 First Name 0 0 0 #
attrib_gssl_step_person_details-attrib_gssl_step-attrib $-1 $-1 $-1 $-1 1 2 9 Last Name 10 First Name 0 0 0 #
attrib_gssl_step_person_details-attrib_gssl_step-attrib $-1 $-1 $-1 $-1 1 3 9 Last Name 10 First Name 0 0 0 #
attrib_gssl_step_person_details-attrib_gssl_step-attrib $-1 $-1 $-1 $-1 1 3 9 Last Name 10 First Name 0 0 0 #
attrib_gssl_step_person_details-attrib_gssl_step-attrib $-1 $-1 $-1 $-1 1 3 9 Last Name 10 First Name 0 0 0 #
attrib_gssl_step_org_details-attrib_gssl_step-attrib $-1 $-1 $-1 $-1 3 STI 3 R&D 3 R&D 12 design_owner #
attrib_gssl_step_org_details-attrib_gssl_step-attrib $-1 $-1 $-1 $-1 3 STI 3 R&D 3 R&D 7 creator #
attrib_gssl_step_org_details-attrib_gssl_step-attrib $-1 $-1 $-1 $-1 3 STI 3 R&D 3 R&D 0  #
attrib_gssl_step_org_details-attrib_gssl_step-attrib $-1 $-1 $-1 $-1 3 STI 3 R&D 3 R&D 7 creator #
attrib_gssl_step_org_details-attrib_gssl_step-attrib $-1 $-1 $-1 $-1 3 STI 3 R&D 3 R&D 15 design_supplier #
attrib_gssl_step_org_details-attrib_gssl_step-attrib $-1 $-1 $-1 $-1 3 STI 3 R&D 3 R&D 0  #
attrib_gssl_step_org_details-attrib_gssl_step-attrib $-1 $-1 $-1 $-1 3 STI 3 R&D 3 R&D 0  #
attrib_gssl_step_org_details-attrib_gssl_step-attrib $-1 $-1 $-1 $-1 3 STI 3 R&D 3 R&D 22 classification_officer #
attrib_gssl_step_datetime_details-attrib_gssl_step-attrib $-1 $-1 $-1 $-1 1997 1 1 0 0 0 5 0 1 13 creation_date #
attrib_gssl_step_datetime_details-attrib_gssl_step-attrib $-1 $-1 $-1 $-1 1997 1 1 0 0 0 5 0 1 0  #
attrib_gssl_step_datetime_details-attrib_gssl_step-attrib $-1 $-1 $-1 $-1 1997 1 1 0 0 0 5 0 1 0  #
attrib_gssl_step_datetime_details-attrib_gssl_step-attrib $-1 $-1 $-1 $-1 1997 1 1 0 0 0 5 0 1 19 classification_date #
attrib_gssl_step_datetime_details-attrib_gssl_step-attrib $-1 $-1 $-1 $-1 1997 1 1 0 0 0 5 0 1 0  #
attrib_gssl_step_security_details-attrib_gssl_step-attrib $-1 $-1 $-1 $-1 7 Version 20 Security for version 12 unclassified #
attrib_gssl_step_approval_details-attrib_gssl_step-attrib $-1 $-1 $-1 $-1 19 Definition approval 16 not_yet_approved 19 definition approval 0  #
attrib_gssl_step_approval_details-attrib_gssl_step-attrib $-1 $-1 $-1 $-1 16 Version approval 16 not_yet_approved 16 version approval 0  #
attrib_gssl_step_approval_details-attrib_gssl_step-attrib $-1 $-1 $-1 $-1 25 Version Security approval 16 not_yet_approved 25 version security approval 0  #
attrib_gssl_step_product_def_form_details-attrib_gssl_step-attrib $-1 $-1 $-1 $-1 9 Test Part 7 Version 0 #
attrib_gssl_step_product_def_details-attrib_gssl_step-attrib $-1 $-1 $-1 $-1 9 Test Part 7 Version #
attrib_gssl_step_product_def_spec_details-attrib_gssl_step-attrib $-1 $-1 $-1 $-1 9 Test Part 7 Version #
shell $-1 $-1 $-1 $37 $-1 $2 #
face $-1 $38 $39 $36 $-1 $40 reversed single #
face $-1 $41 $42 $36 $-1 $43 reversed single #
loop $-1 $-1 $44 $37 #
plane-surface $-1 0 0 -0.6550000000000000266 0 0 -1 -1 0 0 forward_v I I I I #
face $-1 $45 $46 $36 $-1 $47 forward single #
loop $-1 $-1 $48 $38 #
plane-surface $-1 0 0 0.6550000000000000266 0 0 1 1 0 0 forward_v I I I I #
coedge $-1 $49 $49 $50 $51 reversed $39 $-1 #
face $-1 $52 $53 $36 $-1 $47 forward single #
loop $-1 $-1 $54 $41 #
plane-surface $-1 0 0 0.6550000000000000266 0 0 1 1 0 0 forward_v I I I I #
coedge $-1 $55 $55 $56 $57 forward $42 $-1 #
coedge $-1 $44 $44 $58 $59 forward $39 $-1 #
coedge $-1 $60 $61 $44 $51 forward $62 $-1 #
edge $-1 $63 -2.279802623035600107 $64 0 $44 $65 forward 7 unknown #
face $-1 $66 $67 $36 $-1 $68 reversed single #
loop $-1 $-1 $69 $45 #
coedge $-1 $70 $71 $72 $73 reversed $46 $-1 #
coedge $-1 $48 $48 $74 $75 forward $42 $-1 #
coedge $-1 $76 $77 $48 $57 reversed $62 $-1 #
edge $-1 $78 -2.279802623035600107 $79 0 $48 $80 forward 7 unknown #
coedge $-1 $81 $82 $49 $59 reversed $83 $-1 #
edge $-1 $63 -0.3897607327974749181 $64 0.3897607327974749181 $49 $84 forward 7 unknown #
coedge $-1 $85 $50 $86 $87 reversed $62 $-1 #
coedge $-1 $50 $88 $89 $90 reversed $62 $-1 #
loop $-1 $-1 $88 $91 #
vertex $-1 $51 $92 #
vertex $-1 $51 $93 #
straight-curve $-1 -2.774999999999999911 -1.139901311517800053 -0.6550000000000000266 -1.947928322227959924e-16 -1 0 I I #
face $-1 $94 $95 $36 $-1 $68 reversed single #
loop $-1 $-1 $89 $52 #
plane-surface $-1 0 0 -0.6550000000000000266 0 0 1 1 0 0 forward_v I I I I #
coedge $-1 $96 $97 $98 $99 forward $53 $-1 #
coedge $-1 $100 $54 $101 $102 forward $46 $-1 #
coedge $-1 $54 $100 $103 $104 forward $46 $-1 #
coedge $-1 $105 $106 $54 $73 forward $107 $-1 #
edge $-1 $108 -5.650098688482199982 $109 0 $54 $110 forward 7 unknown #
coedge $-1 $98 $103 $55 $75 reversed $111 $-1 #
edge $-1 $79 -0.3897607327974749181 $78 0.3897607327974749181 $55 $112 forward 7 unknown #
coedge $-1 $88 $56 $100 $113 forward $62 $-1 #
coedge $-1 $56 $85 $96 $114 forward $62 $-1 #
vertex $-1 $57 $115 #
vertex $-1 $57 $116 #
straight-curve $-1 -2.774999999999999911 -1.139901311517800053 0.6550000000000000266 3.895856644455909988e-16 -1 0 I I #
coedge $-1 $117 $58 $118 $119 reversed $83 $-1 #
coedge $-1 $58 $120 $121 $122 reversed $83 $-1 #
loop $-1 $-1 $58 $123 #
ellipse-curve $-1 0 0 -0.6550000000000000266 0 0 1 -3 0 0 1 I I #
coedge $-1 $77 $60 $124 $125 reversed $62 $-1 #
coedge $-1 $121 $126 $60 $87 forward $127 $-1 #
edge $-1 $128 -1.860098688482199947 $64 0 $86 $129 forward 7 unknown #
coedge $-1 $61 $76 $130 $131 forward $62 $-1 #
coedge $-1 $132 $118 $61 $90 forward $67 $-1 #
edge $-1 $63 -5.650098688482199982 $133 0 $89 $134 forward 7 unknown #
face $-1 $135 $62 $36 $-1 $136 forward single #
point $-1 -2.774999999999999911 1.139901311517800053 -0.6550000000000000266 #
point $-1 -2.774999999999999911 -1.139901311517800053 -0.6550000000000000266 #
face $-1 $137 $127 $36 $-1 $68 reversed single #
loop $-1 $-1 $138 $66 #
coedge $-1 $97 $69 $77 $114 reversed $53 $-1 #
coedge $-1 $69 $96 $139 $140 reversed $53 $-1 #
coedge $-1 $141 $74 $69 $99 reversed $111 $-1 #
edge $-1 $142 -1.181035593997422195 $79 0 $69 $143 forward 7 unknown #
coedge $-1 $71 $70 $76 $113 reversed $46 $-1 #
coedge $-1 $144 $130 $70 $102 reversed $145 $-1 #
edge $-1 $108 -5.549999999999999822 $146 0 $70 $147 forward 7 unknown #
coedge $-1 $74 $148 $71 $104 reversed $111 $-1 #
edge $-1 $78 -2.362071187994843058 $109 0 $71 $149 forward 7 unknown #
coedge $-1 $150 $72 $151 $152 forward $107 $-1 #
coedge $-1 $72 $153 $144 $154 reversed $107 $-1 #
loop $-1 $-1 $106 $155 #
vertex $-1 $73 $156 #
vertex $-1 $73 $157 #
straight-curve $-1 2.774999999999999911 1.139901311517800053 0.6550000000000000266 0 -1 0 I I #
loop $-1 $-1 $148 $158 #
ellipse-curve $-1 0 0 0.6550000000000000266 0 0 -1 -3 0 0 1 I I #
edge $-1 $78 -5.650098688482199982 $146 0 $100 $159 forward 7 unknown #
edge $-1 $160 -1.860098688482199947 $79 0 $96 $161 forward 7 unknown #
point $-1 -2.774999999999999911 1.139901311517800053 0.6550000000000000266 #
point $-1 -2.774999999999999911 -1.139901311517800053 0.6550000000000000266 #
coedge $-1 $120 $81 $162 $163 reversed $83 $-1 #
coedge $-1 $89 $164 $81 $119 forward $67 $-1 #
edge $-1 $165 -2.362071187994843058 $63 0 $118 $166 forward 7 unknown #
coedge $-1 $82 $117 $138 $167 reversed $83 $-1 #
coedge $-1 $126 $86 $82 $122 forward $127 $-1 #
edge $-1 $64 -1.181035593997421751 $168 3.330669073875470607e-16 $121 $169 forward 7 unknown #
face $-1 $170 $171 $36 $-1 $172 forward single #
coedge $-1 $173 $139 $85 $125 forward $174 $-1 #
edge $-1 $160 -1.310000000000000053 $128 0 $85 $175 forward 7 unknown #
coedge $-1 $86 $121 $173 $176 forward $127 $-1 #
loop $-1 $-1 $121 $94 #
vertex $-1 $176 $177 #
straight-curve $-1 -2.774999999999999911 -1.139901311517800053 -0.6550000000000000266 -2.38744972296298022e-16 1 0 I I #
coedge $-1 $101 $178 $88 $131 reversed $145 $-1 #
edge $-1 $146 -1.310000000000000053 $133 0 $88 $179 forward 7 unknown #
coedge $-1 $164 $89 $178 $180 reversed $67 $-1 #
vertex $-1 $90 $181 #
straight-curve $-1 -2.774999999999999911 6.790000000000000036 -0.6550000000000000266 0 1 0 I I #
face $-1 $155 $174 $36 $-1 $182 forward single #
plane-surface $-1 -2.774999999999999911 6.790000000000000036 -0.6550000000000000266 -1 0 0 0 -0 1 forward_v I I I I #
face $-1 $91 $183 $36 $-1 $47 forward single #
coedge $-1 $184 $185 $120 $167 forward $95 $-1 #
coedge $-1 $124 $186 $97 $140 forward $174 $-1 #
edge $-1 $142 -2.775000000000001688 $160 0 $97 $187 forward 7 unknown #
coedge $-1 $148 $98 $188 $189 reversed $111 $-1 #
vertex $-1 $99 $190 #
ellipse-curve $-1 0 0 0.6550000000000000266 -0 0 -1 -2.775000000000000355 -1.139901311517800275 0 1 I I #
coedge $-1 $178 $101 $106 $154 forward $145 $-1 #
loop $-1 $-1 $178 $191 #
vertex $-1 $102 $192 #
straight-curve $-1 -2.774999999999999911 6.790000000000000036 0.6550000000000000266 -1 0 0 I I #
coedge $-1 $103 $141 $193 $194 reversed $111 $-1 #
ellipse-curve $-1 0 0 0.6550000000000000266 0 0 -1 2.775000000000000355 1.139901311517800275 0 1 I I #
coedge $-1 $195 $105 $196 $197 forward $107 $-1 #
coedge $-1 $193 $193 $105 $152 reversed $198 $-1 #
edge $-1 $109 -2.279802623035600107 $199 0 $105 $200 forward 7 unknown #
coedge $-1 $106 $201 $164 $202 reversed $107 $-1 #
edge $-1 $108 -1.310000000000000053 $203 0 $106 $204 forward 7 unknown #
face $-1 $205 $107 $36 $-1 $206 forward single #
point $-1 2.774999999999999911 6.790000000000000036 0.6550000000000000266 #
point $-1 2.774999999999999911 1.139901311517800053 0.6550000000000000266 #
face $-1 $207 $208 $36 $-1 $209 forward single #
straight-curve $-1 -2.774999999999999911 6.790000000000000036 0.6550000000000000266 2.35795461814859004e-16 1 0 I I #
vertex $-1 $114 $210 #
straight-curve $-1 -2.774999999999999911 -1.139901311517800053 0.6550000000000000266 -2.38744972296298022e-16 1 0 I I #
coedge $-1 $211 $211 $117 $163 forward $212 $-1 #
edge $-1 $213 -0.3897607327974749181 $165 0.3897607327974749181 $162 $214 forward 7 unknown #
coedge $-1 $118 $132 $153 $202 forward $67 $-1 #
vertex $-1 $202 $215 #
ellipse-curve $-1 0 0 -0.6550000000000000266 0 0 1 -2.775000000000000355 1.139901311517800275 0 1 I I #
edge $-1 $168 -1.181035593997421307 $213 0 $138 $216 forward 7 unknown #
vertex $-1 $167 $217 #
ellipse-curve $-1 0 0 -0.6550000000000000266 0 0 1 0 -3 0 1 I I #
face $-1 $191 $218 $36 $-1 $219 reversed single #
loop $-1 $83 $220 $123 #
cone-surface $-1 0 0 -0.6550000000000000266 0 0 -1 -3 0 0 1 I I 0 1 3 forward I I I I #
coedge $-1 $221 $124 $126 $176 reversed $174 $-1 #
loop $-1 $-1 $173 $135 #
straight-curve $-1 -2.774999999999999911 -3 -0.6550000000000000266 0 0 -1 I I #
edge $-1 $168 -2.775000000000000799 $128 0 $126 $222 forward 7 unknown #
point $-1 -2.774999999999999911 -3 -0.6550000000000000266 #
coedge $-1 $130 $144 $132 $180 forward $145 $-1 #
straight-curve $-1 -2.774999999999999911 6.790000000000000036 -0.6550000000000000266 0 0 -1 I I #
edge $-1 $203 -5.549999999999999822 $133 0 $132 $223 forward 7 unknown #
point $-1 -2.774999999999999911 6.790000000000000036 -0.6550000000000000266 #
plane-surface $-1 -2.774999999999999911 -3 -0.6550000000000000266 0 -1 0 0 0 -1 forward_v I I I I #
loop $-1 $-1 $188 $137 #
coedge $-1 $185 $138 $224 $225 forward $95 $-1 #
coedge $-1 $138 $184 $221 $226 forward $95 $-1 #
coedge $-1 $139 $227 $228 $229 forward $174 $-1 #
straight-curve $-1 -2.774999999999999911 -3 0.6550000000000000266 -1 3.20064295387432008e-16 0 I I #
coedge $-1 $228 $196 $141 $189 forward $183 $-1 #
edge $-1 $199 -1.181035593997421751 $142 -5.551115123125766925e-16 $188 $230 forward 7 unknown #
point $-1 1.665334536937730077e-15 -3 0.6550000000000000266 #
face $-1 $231 $232 $36 $-1 $233 reversed single #
point $-1 -2.774999999999999911 6.790000000000000036 0.6550000000000000266 #
coedge $-1 $151 $151 $148 $194 forward $198 $-1 #
edge $-1 $109 -0.3897607327974749181 $199 0.3897607327974749181 $193 $234 forward 7 unknown #
coedge $-1 $224 $150 $227 $235 forward $107 $-1 #
coedge $-1 $188 $228 $150 $197 reversed $183 $-1 #
edge $-1 $199 -1.860098688482199947 $236 0 $196 $237 forward 7 unknown #
loop $-1 $-1 $151 $205 #
vertex $-1 $189 $238 #
straight-curve $-1 2.774999999999999911 -1.139901311517800053 0.6550000000000000266 1.947928322227959924e-16 -1 0 I I #
coedge $-1 $153 $224 $211 $239 reversed $107 $-1 #
edge $-1 $203 -5.650098688482199982 $165 0 $164 $240 forward 7 unknown #
vertex $-1 $180 $241 #
straight-curve $-1 2.774999999999999911 6.790000000000000036 -0.6550000000000000266 0 0 -1 I I #
face $-1 $242 $198 $36 $-1 $43 reversed single #
plane-surface $-1 2.774999999999999911 -3 -0.6550000000000000266 1 0 0 0 0 -1 forward_v I I I I #
face $-1 $243 $212 $36 $-1 $40 reversed single #
loop $-1 $111 $244 $158 #
cone-surface $-1 0 0 0.6550000000000000266 0 0 1 3 0 0 1 I I 0 1 3 forward I I I I #
point $-1 -2.774999999999999911 -3 0.6550000000000000266 #
coedge $-1 $162 $162 $201 $239 forward $212 $-1 #
loop $-1 $-1 $211 $207 #
vertex $-1 $167 $245 #
ellipse-curve $-1 0 0 -0.6550000000000000266 0 0 1 3 0 0 1 I I #
point $-1 2.774999999999999911 1.139901311517800053 -0.6550000000000000266 #
ellipse-curve $-1 0 0 -0.6550000000000000266 0 0 1 2.775000000000000355 -1.139901311517800275 0 1 I I #
point $-1 9.992007221626410836e-16 -3 -0.6550000000000000266 #
loop $-1 $246 $247 $170 #
cone-surface $-1 0 0 1.495000000000000107 0 0 -1 -2 0 0 1 I I 0 1 2 forward I I I I #
coedge $-1 $220 $220 $248 $249 forward $171 $-1 #
coedge $-1 $227 $173 $185 $226 reversed $174 $-1 #
straight-curve $-1 -2.774999999999999911 -3 -0.6550000000000000266 -1 -3.20064295387432008e-16 0 I I #
straight-curve $-1 -2.774999999999999911 6.790000000000000036 -0.6550000000000000266 -1 0 0 I I #
coedge $-1 $201 $195 $184 $225 reversed $107 $-1 #
edge $-1 $213 -1.860098688482199947 $250 0 $184 $251 forward 7 unknown #
edge $-1 $250 -2.774999999999999023 $168 0 $185 $252 forward 7 unknown #
coedge $-1 $186 $221 $195 $235 reversed $174 $-1 #
coedge $-1 $196 $188 $186 $229 reversed $183 $-1 #
edge $-1 $236 -2.774999999999998135 $142 0 $228 $253 forward 7 unknown #
ellipse-curve $-1 0 0 0.6550000000000000266 0 0 -1 0 -3 0 1 I I #
face $-1 $254 $255 $36 $-1 $256 forward single #
loop $-1 $145 $257 $191 #
plane-surface $-1 2.774999999999999911 6.790000000000000036 -0.6550000000000000266 0 1 0 0 0 1 forward_v I I I I #
ellipse-curve $-1 0 0 0.6550000000000000266 0 0 -1 3 0 0 1 I I #
edge $-1 $236 -1.310000000000000053 $250 0 $227 $258 forward 7 unknown #
vertex $-1 $229 $259 #
straight-curve $-1 2.774999999999999911 -3 0.6550000000000000266 -2.38744972296298022e-16 -1 0 I I #
point $-1 2.774999999999999911 -1.139901311517800053 0.6550000000000000266 #
edge $-1 $165 -2.279802623035600107 $213 0 $201 $260 forward 7 unknown #
straight-curve $-1 2.774999999999999911 1.139901311517800053 -0.6550000000000000266 2.35795461814859004e-16 -1 0 I I #
point $-1 2.774999999999999911 6.790000000000000036 -0.6550000000000000266 #
face $-1 $158 $261 $36 $-1 $262 forward single #
face $-1 $123 $263 $36 $-1 $264 forward single #
coedge $-1 $244 $244 $265 $266 forward $208 $-1 #
point $-1 2.774999999999999911 -1.139901311517800053 -0.6550000000000000266 #
loop $-1 $-1 $267 $170 #
coedge $-1 $247 $247 $268 $269 reversed $218 $-1 #
coedge $-1 $248 $248 $220 $249 reversed $263 $-1 #
edge $-1 $270 0 $270 6.283185307179586232 $248 $271 forward 7 unknown #
vertex $-1 $225 $272 #
straight-curve $-1 2.774999999999999911 -3 -0.6550000000000000266 -2.387449722962969866e-16 -1 0 I I #
straight-curve $-1 9.992007221626410836e-16 -3 -0.6550000000000000266 -1 3.200642953874329941e-16 0 I I #
straight-curve $-1 1.665334536937730077e-15 -3 0.6550000000000000266 -1 -3.200642953874329941e-16 0 I I #
face $-1 $273 $274 $36 $-1 $275 forward single #
loop $-1 $276 $277 $231 #
plane-surface $-1 2.774999999999999911 8.789999999999999147 -0.6550000000000000266 0 1 0 0 0 1 forward_v I I I I #
coedge $-1 $278 $279 $280 $281 forward $232 $-1 #
straight-curve $-1 2.774999999999999911 -3 -0.6550000000000000266 0 0 -1 I I #
point $-1 2.774999999999999911 -3 0.6550000000000000266 #
straight-curve $-1 2.774999999999999911 -1.139901311517800053 -0.6550000000000000266 -3.895856644455919849e-16 -1 0 I I #
loop $-1 $282 $265 $242 #
plane-surface $-1 0 0 1.495000000000000107 0 0 1 1 0 0 forward_v I I I I #
loop $-1 $283 $248 $243 #
plane-surface $-1 0 0 -1.495000000000000107 0 0 -1 -1 0 0 forward_v I I I I #
coedge $-1 $265 $265 $244 $266 reversed $261 $-1 #
edge $-1 $284 0 $284 6.283185307179586232 $265 $285 forward 7 unknown #
coedge $-1 $267 $267 $286 $287 forward $246 $-1 #
coedge $-1 $268 $268 $247 $269 forward $283 $-1 #
edge $-1 $288 -3.141592653589793116 $288 3.141592653589793116 $268 $289 forward 7 unknown #
vertex $-1 $249 $290 #
ellipse-curve $-1 0 0 -1.495000000000000107 0 0 1 -3 0 0 1 I I #
point $-1 2.774999999999999911 -3 -0.6550000000000000266 #
face $-1 $291 $292 $36 $-1 $293 forward single #
loop $-1 $-1 $280 $254 #
plane-surface $-1 -3.5 6.790000000000000036 -1.469999999999999973 -1 0 0 0 -0 1 forward_v I I I I #
loop $-1 $-1 $294 $231 #
coedge $-1 $295 $296 $297 $298 reversed $255 $-1 #
coedge $-1 $299 $257 $300 $301 forward $232 $-1 #
coedge $-1 $257 $299 $302 $303 forward $232 $-1 #
coedge $-1 $304 $305 $257 $281 reversed $274 $-1 #
edge $-1 $306 -2.939999999999999947 $307 0 $257 $308 forward 7 unknown #
loop $-1 $309 $286 $242 #
loop $-1 $310 $268 $243 #
vertex $-1 $266 $311 #
ellipse-curve $-1 0 0 1.495000000000000107 0 0 -1 3 0 0 1 I I #
coedge $-1 $286 $286 $267 $287 reversed $282 $-1 #
edge $-1 $312 0 $312 6.283185307179586232 $286 $313 forward 7 unknown #
vertex $-1 $269 $314 #
ellipse-curve $-1 0 0 -1.495000000000000107 0 0 1 2 0 0 1 I I #
point $-1 -3 0 -1.495000000000000107 #
face $-1 $315 $316 $36 $-1 $317 forward single #
loop $-1 $-1 $302 $273 #
plane-surface $-1 -3.5 6.790000000000000036 1.469999999999999973 0 0 1 1 0 0 forward_v I I I I #
coedge $-1 $294 $294 $318 $319 forward $276 $-1 #
coedge $-1 $320 $277 $321 $322 reversed $255 $-1 #
coedge $-1 $277 $320 $323 $324 reversed $255 $-1 #
coedge $-1 $305 $304 $277 $298 forward $274 $-1 #
edge $-1 $325 -2.939999999999999947 $326 0 $277 $327 forward 7 unknown #
coedge $-1 $279 $278 $328 $329 forward $232 $-1 #
coedge $-1 $330 $331 $278 $301 reversed $332 $-1 #
edge $-1 $307 -7 $333 0 $278 $334 forward 7 unknown #
coedge $-1 $335 $336 $279 $303 reversed $292 $-1 #
edge $-1 $337 -7 $306 0 $279 $338 forward 7 unknown #
coedge $-1 $297 $280 $336 $339 reversed $274 $-1 #
coedge $-1 $280 $297 $330 $340 forward $274 $-1 #
vertex $-1 $281 $341 #
vertex $-1 $281 $342 #
straight-curve $-1 -3.5 6.790000000000000036 -1.469999999999999973 0 0 -1 I I #
loop $-1 $343 $344 $242 #
loop $-1 $345 $346 $243 #
point $-1 3 0 1.495000000000000107 #
vertex $-1 $287 $347 #
ellipse-curve $-1 0 0 1.495000000000000107 0 0 1 -2 0 0 1 I I #
point $-1 -2 0 -1.495000000000000107 #
face $-1 $348 $332 $36 $-1 $349 forward single #
loop $-1 $-1 $328 $291 #
plane-surface $-1 3.5 6.790000000000000036 1.469999999999999973 1 0 0 0 0 -1 forward_v I I I I #
coedge $-1 $318 $318 $294 $319 reversed $350 $-1 #
edge $-1 $351 -3.141592653589793116 $351 3.141592653589793116 $294 $352 forward 7 unknown #
coedge $-1 $296 $295 $353 $354 reversed $255 $-1 #
coedge $-1 $336 $335 $295 $322 forward $292 $-1 #
edge $-1 $355 -7 $325 0 $295 $356 forward 7 unknown #
coedge $-1 $331 $330 $296 $324 forward $332 $-1 #
edge $-1 $326 -7 $357 0 $296 $358 forward 7 unknown #
vertex $-1 $298 $359 #
vertex $-1 $298 $360 #
straight-curve $-1 -3.5 8.789999999999999147 -1.469999999999999973 0 0 -1 I I #
coedge $-1 $361 $362 $299 $329 reversed $316 $-1 #
edge $-1 $333 -2.939999999999999947 $337 0 $299 $363 forward 7 unknown #
coedge $-1 $323 $300 $305 $340 reversed $332 $-1 #
coedge $-1 $300 $323 $361 $364 forward $332 $-1 #
loop $-1 $-1 $300 $315 #
vertex $-1 $301 $365 #
straight-curve $-1 3.5 6.790000000000000036 -1.469999999999999973 1 0 0 I I #
coedge $-1 $321 $302 $362 $366 reversed $292 $-1 #
coedge $-1 $302 $321 $304 $339 forward $292 $-1 #
vertex $-1 $329 $367 #
straight-curve $-1 -3.5 6.790000000000000036 1.469999999999999973 -1 0 0 I I #
edge $-1 $325 -1.999999999999999112 $306 0 $304 $368 forward 7 unknown #
edge $-1 $326 -1.999999999999999112 $307 0 $305 $369 forward 7 unknown #
point $-1 -3.5 6.790000000000000036 1.469999999999999973 #
point $-1 -3.5 6.790000000000000036 -1.469999999999999973 #
loop $-1 $370 $371 $242 #
coedge $-1 $344 $344 $372 $373 reversed $309 $-1 #
loop $-1 $374 $375 $243 #
coedge $-1 $346 $346 $376 $377 reversed $310 $-1 #
point $-1 -2 0 1.495000000000000107 #
face $-1 $378 $379 $36 $-1 $380 reversed single #
plane-surface $-1 3.5 6.790000000000000036 -1.469999999999999973 0 0 -1 -1 0 0 forward_v I I I I #
loop $-1 $-1 $318 $381 #
vertex $-1 $319 $382 #
ellipse-curve $-1 2 8.789999999999999147 0 0 -1 0 1.25 0 0 1 I I #
coedge $-1 $362 $361 $320 $354 forward $316 $-1 #
edge $-1 $357 -2.939999999999999947 $355 0 $320 $383 forward 7 unknown #
vertex $-1 $322 $384 #
straight-curve $-1 -3.5 8.789999999999999147 1.469999999999999973 -1 0 0 I I #
vertex $-1 $354 $385 #
straight-curve $-1 3.5 8.789999999999999147 -1.469999999999999973 1 0 0 I I #
point $-1 -3.5 8.789999999999999147 1.469999999999999973 #
point $-1 -3.5 8.789999999999999147 -1.469999999999999973 #
coedge $-1 $353 $328 $331 $364 reversed $316 $-1 #
coedge $-1 $328 $353 $335 $366 forward $316 $-1 #
straight-curve $-1 3.5 6.790000000000000036 1.469999999999999973 0 0 1 I I #
edge $-1 $357 -1.999999999999999112 $333 0 $361 $386 forward 7 unknown #
point $-1 3.5 6.790000000000000036 -1.469999999999999973 #
edge $-1 $355 -1.999999999999999112 $337 0 $335 $387 forward 7 unknown #
point $-1 3.5 6.790000000000000036 1.469999999999999973 #
straight-curve $-1 -3.5 6.790000000000000036 1.469999999999999973 0 -1 0 I I #
straight-curve $-1 -3.5 6.790000000000000036 -1.469999999999999973 0 -1 0 I I #
loop $-1 $388 $389 $242 #
coedge $-1 $371 $371 $390 $391 reversed $343 $-1 #
coedge $-1 $372 $372 $344 $373 forward $392 $-1 #
edge $-1 $393 0 $393 6.283185307179586232 $344 $394 forward 7 unknown #
loop $-1 $395 $396 $243 #
coedge $-1 $375 $375 $397 $398 reversed $345 $-1 #
coedge $-1 $376 $376 $346 $377 forward $399 $-1 #
edge $-1 $400 0 $400 6.283185307179586232 $346 $401 forward 7 unknown #
face $-1 $402 $403 $36 $-1 $404 reversed single #
loop $-1 $-1 $405 $348 #
plane-surface $-1 0.5 -2.515000000000000124 0.6550000000000000266 0 0 -1 -1 0 0 forward_v I I I I #
face $-1 $406 $407 $36 $-1 $408 forward single #
point $-1 0.75 8.789999999999999147 0 #
straight-curve $-1 3.5 8.789999999999999147 1.469999999999999973 0 0 1 I I #
point $-1 3.5 8.789999999999999147 1.469999999999999973 #
point $-1 3.5 8.789999999999999147 -1.469999999999999973 #
straight-curve $-1 3.5 6.790000000000000036 -1.469999999999999973 0 -1 0 I I #
straight-curve $-1 3.5 6.790000000000000036 1.469999999999999973 0 -1 0 I I #
loop $-1 $-1 $409 $242 #
coedge $-1 $389 $389 $410 $411 reversed $370 $-1 #
coedge $-1 $390 $390 $371 $391 forward $412 $-1 #
edge $-1 $413 0 $413 6.283185307179586232 $371 $414 forward 7 unknown #
loop $-1 $-1 $372 $378 #
vertex $-1 $373 $415 #
ellipse-curve $-1 0.5 -2.515000000000000124 1.495000000000000107 0 0 1 -0.1559999999999999998 0 0 1 I I #
loop $-1 $-1 $416 $243 #
coedge $-1 $396 $396 $417 $418 reversed $374 $-1 #
coedge $-1 $397 $397 $375 $398 forward $419 $-1 #
edge $-1 $420 0 $420 6.283185307179586232 $375 $421 forward 7 unknown #
loop $-1 $-1 $376 $422 #
vertex $-1 $377 $423 #
ellipse-curve $-1 -1.423999999999999932 -2.132000000000000117 -1.495000000000000107 0 0 -1 0.1559999999999999998 0 0 1 I I #
face $-1 $424 $425 $36 $-1 $426 reversed single #
loop $-1 $392 $427 $378 #
cone-surface $-1 0.5 -2.515000000000000124 1.495000000000000107 0 0 -1 -0.1559999999999999998 0 0 1 I I 0 1 0.1559999999999999998 forward I I I I #
coedge $-1 $405 $405 $427 $428 forward $379 $-1 #
face $-1 $429 $430 $36 $-1 $431 forward single #
loop $-1 $350 $432 $381 #
cone-surface $-1 2 8.789999999999999147 0 0 1 0 -1.25 0 0 1 I I 0 1 1.25 forward I I I I #
coedge $-1 $409 $409 $433 $434 reversed $388 $-1 #
coedge $-1 $410 $410 $389 $411 forward $435 $-1 #
edge $-1 $436 0 $436 6.283185307179586232 $389 $437 forward 7 unknown #
loop $-1 $-1 $390 $424 #
vertex $-1 $391 $438 #
ellipse-curve $-1 -0.5 -2.515000000000000124 1.495000000000000107 0 0 1 -0.1559999999999999998 0 0 1 I I #
point $-1 0.3439999999999999725 -2.515000000000000124 1.495000000000000107 #
coedge $-1 $416 $416 $439 $440 reversed $395 $-1 #
coedge $-1 $417 $417 $396 $418 forward $441 $-1 #
edge $-1 $442 0 $442 6.283185307179586232 $396 $443 forward 7 unknown #
loop $-1 $-1 $397 $444 #
vertex $-1 $398 $445 #
ellipse-curve $-1 -0.5 -2.515000000000000124 -1.495000000000000107 0 0 -1 0.1559999999999999998 0 0 1 I I #
face $-1 $446 $447 $36 $-1 $448 reversed single #
point $-1 -1.268000000000000016 -2.132000000000000117 -1.495000000000000107 #
face $-1 $449 $450 $36 $-1 $451 reversed single #
loop $-1 $-1 $452 $402 #
plane-surface $-1 -0.5 -2.515000000000000124 0.6550000000000000266 0 0 -1 -1 0 0 forward_v I I I I #
coedge $-1 $427 $427 $405 $428 reversed $403 $-1 #
edge $-1 $453 -3.141592653589793116 $453 3.141592653589793116 $405 $454 forward 7 unknown #
face $-1 $-1 $455 $36 $-1 $456 forward single #
loop $-1 $-1 $457 $406 #
plane-surface $-1 2.774999999999999911 18.01000000000000156 -0.6550000000000000266 0 1 0 0 0 1 forward_v I I I I #
coedge $-1 $432 $432 $458 $459 forward $407 $-1 #
coedge $-1 $433 $433 $409 $434 forward $460 $-1 #
edge $-1 $461 0 $461 6.283185307179586232 $409 $462 forward 7 unknown #
loop $-1 $-1 $410 $463 #
vertex $-1 $411 $464 #
ellipse-curve $-1 1.423999999999999932 -2.132000000000000117 1.495000000000000107 0 0 1 -0.1559999999999999998 0 0 1 I I #
point $-1 -0.6560000000000000275 -2.515000000000000124 1.495000000000000107 #
coedge $-1 $439 $439 $416 $440 forward $465 $-1 #
edge $-1 $466 0 $466 6.283185307179586232 $416 $467 forward 7 unknown #
loop $-1 $-1 $417 $468 #
vertex $-1 $418 $469 #
ellipse-curve $-1 0.5 -2.515000000000000124 -1.495000000000000107 0 0 -1 0.1559999999999999998 0 0 1 I I #
face $-1 $470 $471 $36 $-1 $472 reversed single #
point $-1 -0.3439999999999999725 -2.515000000000000124 -1.495000000000000107 #
face $-1 $444 $473 $36 $-1 $474 reversed single #
loop $-1 $399 $475 $422 #
cone-surface $-1 -1.423999999999999932 -2.132000000000000117 -1.495000000000000107 0 0 1 0.1559999999999999998 0 0 1 I I 0 1 0.1559999999999999998 forward I I I I #
face $-1 $463 $476 $36 $-1 $477 reversed single #
loop $-1 $412 $478 $424 #
cone-surface $-1 -0.5 -2.515000000000000124 1.495000000000000107 0 0 -1 -0.1559999999999999998 0 0 1 I I 0 1 0.1559999999999999998 forward I I I I #
coedge $-1 $452 $452 $478 $479 forward $425 $-1 #
vertex $-1 $428 $480 #
ellipse-curve $-1 0.5 -2.515000000000000124 0.6550000000000000266 0 0 1 0.1559999999999999998 0 0 1 I I #
loop $-1 $481 $482 $429 #
cone-surface $-1 2.75 16.01000000000000156 0 0 1 0 0.375 0 0 1 I I 0 1 0.375 forward I I I I #
coedge $-1 $457 $457 $482 $483 reversed $430 $-1 #
coedge $-1 $458 $458 $432 $459 reversed $484 $-1 #
edge $-1 $485 0 $485 6.283185307179586232 $458 $486 forward 7 unknown #
loop $-1 $-1 $433 $487 #
vertex $-1 $434 $488 #
ellipse-curve $-1 -1.423999999999999932 -2.132000000000000117 1.495000000000000107 0 0 1 -0.1559999999999999998 0 0 1 I I #
face $-1 $489 $490 $36 $-1 $491 reversed single #
point $-1 1.268000000000000016 -2.132000000000000117 1.495000000000000107 #
loop $-1 $-1 $439 $492 #
vertex $-1 $440 $493 #
ellipse-curve $-1 1.423999999999999932 -2.132000000000000117 -1.495000000000000107 0 0 -1 0.1559999999999999998 0 0 1 I I #
face $-1 $494 $495 $36 $-1 $496 reversed single #
point $-1 0.6560000000000000275 -2.515000000000000124 -1.495000000000000107 #
face $-1 $468 $497 $36 $-1 $498 reversed single #
loop $-1 $419 $499 $444 #
cone-surface $-1 -0.5 -2.515000000000000124 -1.495000000000000107 0 0 1 0.1559999999999999998 0 0 1 I I 0 1 0.1559999999999999998 forward I I I I #
loop $-1 $-1 $500 $446 #
plane-surface $-1 -0.5 -2.515000000000000124 -0.6550000000000000266 0 0 1 1 0 0 forward_v I I I I #
coedge $-1 $475 $475 $501 $502 reversed $447 $-1 #
loop $-1 $-1 $503 $449 #
plane-surface $-1 1.423999999999999932 -2.132000000000000117 0.6550000000000000266 0 0 -1 -1 0 0 forward_v I I I I #
coedge $-1 $478 $478 $452 $479 reversed $450 $-1 #
edge $-1 $504 -3.141592653589793116 $504 3.141592653589793116 $452 $505 forward 7 unknown #
point $-1 0.3439999999999999725 -2.515000000000000124 0.6550000000000000266 #
loop $-1 $-1 $506 $429 #
coedge $-1 $482 $482 $457 $483 forward $455 $-1 #
edge $-1 $507 0 $507 6.283185307179586232 $457 $508 forward 7 unknown #
loop $-1 $509 $458 $510 #
vertex $-1 $459 $511 #
ellipse-curve $-1 2 16.01000000000000156 0 0 -1 0 -1.25 0 0 1 I I #
face $-1 $512 $513 $36 $-1 $514 reversed single #
point $-1 -1.580000000000000071 -2.132000000000000117 1.495000000000000107 #
face $-1 $487 $515 $36 $-1 $516 reversed single #
loop $-1 $435 $517 $463 #
cone-surface $-1 1.423999999999999932 -2.132000000000000117 1.495000000000000107 0 0 -1 -0.1559999999999999998 0 0 1 I I 0 1 0.1559999999999999998 forward I I I I #
face $-1 $510 $518 $36 $-1 $519 reversed single #
point $-1 1.580000000000000071 -2.132000000000000117 -1.495000000000000107 #
face $-1 $492 $520 $36 $-1 $521 reversed single #
loop $-1 $441 $522 $468 #
cone-surface $-1 0.5 -2.515000000000000124 -1.495000000000000107 0 0 1 0.1559999999999999998 0 0 1 I I 0 1 0.1559999999999999998 forward I I I I #
loop $-1 $-1 $523 $470 #
plane-surface $-1 0.5 -2.515000000000000124 -0.6550000000000000266 0 0 1 1 0 0 forward_v I I I I #
coedge $-1 $499 $499 $500 $524 reversed $471 $-1 #
coedge $-1 $500 $500 $499 $524 forward $473 $-1 #
coedge $-1 $501 $501 $475 $502 forward $525 $-1 #
edge $-1 $526 -3.141592653589793116 $526 3.141592653589793116 $501 $527 forward 7 unknown #
coedge $-1 $503 $503 $517 $528 forward $476 $-1 #
vertex $-1 $479 $529 #
ellipse-curve $-1 -0.5 -2.515000000000000124 0.6550000000000000266 0 0 1 0.1559999999999999998 0 0 1 I I #
coedge $-1 $506 $506 $530 $531 reversed $481 $-1 #
vertex $-1 $483 $532 #
ellipse-curve $-1 2.75 18.01000000000000156 0 0 -1 0 0.375 0 0 1 I I #
loop $-1 $-1 $530 $510 #
face $-1 $381 $484 $36 $-1 $533 forward single #
point $-1 0.75 16.01000000000000156 0 #
face $-1 $422 $525 $36 $-1 $534 reversed single #
loop $-1 $460 $535 $487 #
cone-surface $-1 -1.423999999999999932 -2.132000000000000117 1.495000000000000107 0 0 -1 -0.1559999999999999998 0 0 1 I I 0 1 0.1559999999999999998 forward I I I I #
loop $-1 $-1 $536 $489 #
plane-surface $-1 -1.423999999999999932 -2.132000000000000117 0.6550000000000000266 0 0 -1 -1 0 0 forward_v I I I I #
coedge $-1 $517 $517 $503 $528 reversed $490 $-1 #
loop $-1 $465 $537 $492 #
cone-surface $-1 1.423999999999999932 -2.132000000000000117 -1.495000000000000107 0 0 1 0.1559999999999999998 0 0 1 I I 0 1 0.1559999999999999998 forward I I I I #
loop $-1 $-1 $538 $494 #
plane-surface $-1 1.423999999999999932 -2.132000000000000117 -0.6550000000000000266 0 0 1 1 0 0 forward_v I I I I #
coedge $-1 $522 $522 $523 $539 reversed $495 $-1 #
coedge $-1 $523 $523 $522 $539 forward $497 $-1 #
edge $-1 $540 -3.141592653589793116 $540 3.141592653589793116 $500 $541 forward 7 unknown #
loop $-1 $-1 $501 $512 #
vertex $-1 $502 $542 #
ellipse-curve $-1 -1.423999999999999932 -2.132000000000000117 -0.6550000000000000266 0 0 -1 -0.1559999999999999998 0 0 1 I I #
edge $-1 $543 -3.141592653589793116 $543 3.141592653589793116 $503 $544 forward 7 unknown #
point $-1 -0.6560000000000000275 -2.515000000000000124 0.6550000000000000266 #
coedge $-1 $530 $530 $506 $531 forward $509 $-1 #
edge $-1 $545 -3.141592653589793116 $545 3.141592653589793116 $530 $546 forward 7 unknown #
point $-1 3.125 18.01000000000000156 0 #
plane-surface $-1 2.774999999999999911 16.01000000000000156 -0.6550000000000000266 0 1 0 0 0 1 forward_v I I I I #
plane-surface $-1 -1.423999999999999932 -2.132000000000000117 -0.6550000000000000266 0 0 1 1 0 0 forward_v I I I I #
coedge $-1 $535 $535 $536 $547 reversed $513 $-1 #
coedge $-1 $536 $536 $535 $547 forward $515 $-1 #
coedge $-1 $537 $537 $538 $548 reversed $518 $-1 #
coedge $-1 $538 $538 $537 $548 forward $520 $-1 #
edge $-1 $549 -3.141592653589793116 $549 3.141592653589793116 $523 $550 forward 7 unknown #
vertex $-1 $524 $551 #
ellipse-curve $-1 -0.5 -2.515000000000000124 -0.6550000000000000266 0 0 -1 -0.1559999999999999998 0 0 1 I I #
point $-1 -1.268000000000000016 -2.132000000000000117 -0.6550000000000000266 #
vertex $-1 $528 $552 #
ellipse-curve $-1 1.423999999999999932 -2.132000000000000117 0.6550000000000000266 0 0 1 0.1559999999999999998 0 0 1 I I #
vertex $-1 $531 $553 #
ellipse-curve $-1 2.75 16.01000000000000156 0 0 -1 0 -0.375 0 0 1 I I #
edge $-1 $554 -3.141592653589793116 $554 3.141592653589793116 $536 $555 forward 7 unknown #
edge $-1 $556 -3.141592653589793116 $556 3.141592653589793116 $538 $557 forward 7 unknown #
vertex $-1 $539 $558 #
ellipse-curve $-1 0.5 -2.515000000000000124 -0.6550000000000000266 0 0 -1 -0.1559999999999999998 0 0 1 I I #
point $-1 -0.3439999999999999725 -2.515000000000000124 -0.6550000000000000266 #
point $-1 1.268000000000000016 -2.132000000000000117 0.6550000000000000266 #
point $-1 3.125 16.01000000000000156 0 #
vertex $-1 $547 $559 #
ellipse-curve $-1 -1.423999999999999932 -2.132000000000000117 0.6550000000000000266 0 0 1 0.1559999999999999998 0 0 1 I I #
vertex $-1 $548 $560 #
ellipse-curve $-1 1.423999999999999932 -2.132000000000000117 -0.6550000000000000266 0 0 -1 -0.1559999999999999998 0 0 1 I I #
point $-1 0.6560000000000000275 -2.515000000000000124 -0.6550000000000000266 #
point $-1 -1.580000000000000071 -2.132000000000000117 0.6550000000000000266 #
point $-1 1.580000000000000071 -2.132000000000000117 -0.6550000000000000266 #
End-of-ACIS-data 