105 85 1 0                              
body $-1 $1 $-1 $-1 #
lump $-1 $-1 $2 $0 #
shell $-1 $-1 $-1 $3 $1 #
face $-1 $4 $5 $2 $-1 $6 forward single #
face $-1 $7 $8 $2 $-1 $9 reversed single #
loop $-1 $-1 $10 $3 #
plane-surface $-1 0 0 12.5 0 0 1 1 0 0 0 #
face $-1 $11 $12 $2 $-1 $13 reversed single #
loop $-1 $-1 $14 $4 #
plane-surface $-1 0 0 -12.5 0 0 1 1 0 0 0 #
coedge $-1 $15 $16 $17 $18 0 $5 $-1 #
face $-1 $19 $20 $2 $-1 $21 reversed single #
loop $-1 $-1 $22 $7 #
plane-surface $-1 0 -25 0 0 1 -0 -0 0 1 0 #
coedge $-1 $23 $24 $25 $26 0 $8 $-1 #
coedge $-1 $27 $10 $28 $29 0 $5 $-1 #
coedge $-1 $10 $27 $30 $31 0 $5 $-1 #
coedge $-1 $32 $33 $10 $18 1 $34 $-1 #
edge $-1 $35 $36 $17 $37 0 #
face $-1 $38 $39 $2 $-1 $40 reversed single #
loop $-1 $-1 $41 $11 #
plane-surface $-1 -62.5 0 0 1 0 0 0 0 -1 0 #
coedge $-1 $42 $30 $43 $44 0 $12 $-1 #
coedge $-1 $45 $14 $42 $46 0 $8 $-1 #
coedge $-1 $14 $45 $47 $48 0 $8 $-1 #
coedge $-1 $33 $32 $14 $26 1 $34 $-1 #
edge $-1 $49 $50 $25 $51 0 #
coedge $-1 $16 $15 $52 $53 0 $5 $-1 #
coedge $-1 $54 $55 $15 $29 1 $39 $-1 #
edge $-1 $36 $56 $28 $57 0 #
coedge $-1 $22 $58 $16 $31 1 $12 $-1 #
edge $-1 $59 $35 $30 $60 0 #
coedge $-1 $25 $17 $58 $61 0 $34 $-1 #
coedge $-1 $17 $25 $54 $62 1 $34 $-1 #
loop $-1 $-1 $32 $38 #
vertex $-1 $18 $63 #
vertex $-1 $18 $64 #
straight-curve $-1 62.5 0 12.5 0 1 0 #
face $-1 $-1 $34 $2 $-1 $65 reversed single #
loop $-1 $-1 $54 $19 #
plane-surface $-1 0 25 0 0 -1 0 0 0 -1 0 #
coedge $-1 $66 $52 $55 $67 0 $20 $-1 #
coedge $-1 $58 $22 $23 $46 1 $12 $-1 #
coedge $-1 $52 $66 $22 $44 1 $20 $-1 #
edge $-1 $59 $68 $43 $69 0 #
coedge $-1 $24 $23 $66 $70 0 $8 $-1 #
edge $-1 $50 $68 $42 $71 0 #
coedge $-1 $55 $54 $24 $48 1 $39 $-1 #
edge $-1 $72 $49 $47 $73 0 #
vertex $-1 $26 $74 #
vertex $-1 $61 $75 #
straight-curve $-1 62.5 0 -12.5 0 -1 0 #
coedge $-1 $41 $43 $27 $53 1 $20 $-1 #
edge $-1 $56 $59 $52 $76 0 #
coedge $-1 $47 $28 $33 $62 0 $39 $-1 #
coedge $-1 $28 $47 $41 $67 1 $39 $-1 #
vertex $-1 $29 $77 #
straight-curve $-1 0 25 12.5 -1 0 0 #
coedge $-1 $30 $42 $32 $61 1 $12 $-1 #
vertex $-1 $53 $78 #
straight-curve $-1 0 -25 12.5 1 0 0 #
edge $-1 $35 $50 $32 $79 0 #
edge $-1 $36 $49 $33 $80 0 #
point $-1 62.5 -25 12.5 #
point $-1 62.5 25 12.5 #
plane-surface $-1 62.5 0 0 -1 0 0 0 -0 1 0 #
coedge $-1 $43 $41 $45 $70 1 $20 $-1 #
edge $-1 $56 $72 $55 $81 0 #
vertex $-1 $70 $82 #
straight-curve $-1 -62.5 -25 0 0 0 -1 #
edge $-1 $68 $72 $66 $83 0 #
straight-curve $-1 0 -25 -12.5 -1 0 0 #
vertex $-1 $48 $84 #
straight-curve $-1 0 25 -12.5 1 0 0 #
point $-1 62.5 25 -12.5 #
point $-1 62.5 -25 -12.5 #
straight-curve $-1 -62.5 0 12.5 0 -1 0 #
point $-1 -62.5 25 12.5 #
point $-1 -62.5 -25 12.5 #
straight-curve $-1 62.5 -25 0 0 0 -1 #
straight-curve $-1 62.5 25 0 0 0 -1 #
straight-curve $-1 -62.5 25 0 0 0 -1 #
point $-1 -62.5 -25 -12.5 #
straight-curve $-1 -62.5 0 -12.5 0 1 0 #
point $-1 -62.5 25 -12.5 #
