106 0 1 0           
body $-1 $1 $-1 $-1 #
lump $-1 $-1 $2 $0 #
shell $-1 $-1 $-1 $3 $1 #
face $-1 $4 $5 $2 $-1 $6 forward single #
face $-1 $7 $8 $2 $-1 $9 forward single #
loop $-1 $-1 $10 $3 #
cone-surface $-1 20.5 -20.5 5 0 0 1 1.4142135623730949 -1.4142135623730949 0 1 I I 0 1 0 I I I I #
face $-1 $11 $12 $2 $-1 $13 reversed single #
loop $-1 $-1 $14 $4 #
plane-surface $-1 22.5 7.5 5 1 0 0 0 0 -1 0 I I I I #
coedge $-1 $15 $16 $17 $18 0 $5 $-1 #
face $-1 $19 $20 $2 $-1 $21 forward single #
loop $-1 $-1 $22 $7 #
cone-surface $-1 22.5 -22.5 5 0 0 -1 3.5355339059327373 -3.5355339059327373 0 1 I I 0 1 0 I I I I #
coedge $-1 $23 $24 $25 $26 1 $8 $-1 #
coedge $-1 $25 $10 $27 $28 1 $5 $-1 #
coedge $-1 $10 $25 $29 $30 0 $5 $-1 #
coedge $-1 $31 $32 $10 $18 1 $33 $-1 #
edge $-1 $34 $35 $17 $36 0 #
face $-1 $37 $33 $2 $-1 $38 forward single #
loop $-1 $-1 $39 $11 #
plane-surface $-1 25 -27.5 5 0 1 0 0 0 1 0 I I I I #
coedge $-1 $40 $41 $42 $43 1 $12 $-1 #
coedge $-1 $44 $14 $45 $46 0 $8 $-1 #
coedge $-1 $14 $44 $47 $48 1 $8 $-1 #
coedge $-1 $16 $15 $14 $26 0 $5 $-1 #
edge $-1 $49 $50 $14 $51 0 #
coedge $-1 $52 $45 $15 $28 0 $53 $-1 #
edge $-1 $49 $35 $27 $54 0 #
coedge $-1 $47 $55 $16 $30 1 $56 $-1 #
edge $-1 $50 $34 $29 $57 0 #
coedge $-1 $58 $17 $55 $59 1 $33 $-1 #
coedge $-1 $17 $58 $52 $60 0 $33 $-1 #
loop $-1 $-1 $17 $19 #
vertex $-1 $59 $61 #
vertex $-1 $60 $62 #
straight-curve $-1 20.5 -22.5 5 0 0 -1 F -11.199999999999999 F 11.199999999999999 #
face $-1 $63 $53 $2 $-1 $64 forward single #
plane-surface $-1 -7.5 -22.5 5 0 -1 0 0 0 -1 0 I I I I #
coedge $-1 $65 $66 $67 $68 0 $20 $-1 #
coedge $-1 $67 $22 $69 $70 1 $12 $-1 #
coedge $-1 $22 $67 $71 $72 1 $12 $-1 #
coedge $-1 $73 $74 $22 $43 0 $75 $-1 #
edge $-1 $76 $77 $42 $78 0 #
coedge $-1 $24 $23 $79 $80 1 $8 $-1 #
coedge $-1 $27 $81 $23 $46 1 $53 $-1 #
edge $-1 $49 $82 $23 $83 0 #
coedge $-1 $84 $29 $24 $48 0 $56 $-1 #
edge $-1 $50 $85 $47 $86 0 #
vertex $-1 $28 $87 #
vertex $-1 $30 $88 #
straight-curve $-1 22.5 -20.5 5 0 0 1 F -11.199999999999999 F 11.199999999999999 #
coedge $-1 $89 $27 $32 $60 1 $53 $-1 #
loop $-1 $-1 $69 $37 #
ellipse-curve $-1 20.5 -20.5 0 0 0 -1 1.4142135623730949 -1.4142135623730949 0 1 I I #
coedge $-1 $29 $90 $31 $59 0 $56 $-1 #
loop $-1 $-1 $29 $91 #
ellipse-curve $-1 20.5 -20.5 10 0 0 -1 1.4142135623730949 -1.4142135623730949 0 1 I I #
coedge $-1 $32 $31 $92 $93 1 $33 $-1 #
edge $-1 $94 $34 $55 $95 0 #
edge $-1 $96 $35 $32 $97 0 #
point $-1 20.5 -22.5 10 #
point $-1 20.5 -22.5 0 #
face $-1 $98 $75 $2 $-1 $99 forward single #
plane-surface $-1 25 -25 0 0 0 1 1 0 0 0 I I I I #
coedge $-1 $100 $39 $101 $102 0 $20 $-1 #
coedge $-1 $39 $100 $103 $104 1 $20 $-1 #
coedge $-1 $41 $40 $39 $68 1 $12 $-1 #
edge $-1 $105 $106 $39 $107 0 #
coedge $-1 $108 $101 $40 $70 0 $53 $-1 #
edge $-1 $106 $76 $69 $109 0 #
coedge $-1 $103 $110 $41 $72 0 $111 $-1 #
edge $-1 $77 $105 $71 $112 0 #
coedge $-1 $113 $42 $110 $114 1 $75 $-1 #
coedge $-1 $42 $113 $108 $115 0 $75 $-1 #
loop $-1 $-1 $42 $63 #
vertex $-1 $115 $116 #
vertex $-1 $72 $117 #
straight-curve $-1 27.5 -22.5 5 0 0 1 F -20.5 F 20.5 #
coedge $-1 $118 $119 $44 $80 0 $120 $-1 #
edge $-1 $85 $82 $79 $121 0 #
coedge $-1 $45 $108 $118 $122 1 $53 $-1 #
vertex $-1 $80 $123 #
straight-curve $-1 22.5 7.5 0 0 1 0 I I #
coedge $-1 $124 $47 $119 $125 1 $56 $-1 #
vertex $-1 $125 $126 #
straight-curve $-1 22.5 -8.75 10 0 1 0 I I #
point $-1 22.5 -20.5 0 #
point $-1 22.5 -20.5 10 #
coedge $-1 $101 $52 $127 $128 1 $53 $-1 #
coedge $-1 $55 $129 $130 $131 1 $56 $-1 #
face $-1 $132 $56 $2 $-1 $133 forward single #
coedge $-1 $130 $127 $58 $93 0 $134 $-1 #
edge $-1 $96 $94 $92 $135 0 #
vertex $-1 $59 $136 #
straight-curve $-1 -6.25 -22.5 10 1 0 0 I I #
vertex $-1 $93 $137 #
straight-curve $-1 -7.5 -22.5 0 1 0 0 I I #
face $-1 $91 $134 $2 $-1 $138 reversed single #
plane-surface $-1 27.5 -25 5 -1 0 0 0 0 1 0 I I I I #
coedge $-1 $66 $65 $139 $140 1 $20 $-1 #
coedge $-1 $69 $89 $65 $102 1 $53 $-1 #
edge $-1 $106 $141 $65 $142 0 #
coedge $-1 $143 $71 $66 $104 0 $111 $-1 #
edge $-1 $105 $144 $103 $145 0 #
vertex $-1 $72 $146 #
vertex $-1 $68 $147 #
straight-curve $-1 22.5 -27.5 5 0 0 -1 F -20.5 F 20.5 #
coedge $-1 $81 $69 $74 $115 1 $53 $-1 #
ellipse-curve $-1 22.5 -22.5 0 0 0 1 3.5355339059327373 -3.5355339059327373 0 1 I I #
coedge $-1 $71 $148 $73 $114 0 $111 $-1 #
loop $-1 $-1 $103 $149 #
ellipse-curve $-1 22.5 -22.5 10 0 0 -1 3.5355339059327373 -3.5355339059327373 0 1 I I #
coedge $-1 $74 $73 $150 $151 1 $75 $-1 #
edge $-1 $152 $77 $110 $153 0 #
edge $-1 $154 $76 $74 $155 0 #
point $-1 27.5 -22.5 0 #
point $-1 27.5 -22.5 10 #
coedge $-1 $150 $79 $81 $122 0 $120 $-1 #
coedge $-1 $79 $156 $84 $125 0 $120 $-1 #
loop $-1 $-1 $79 $132 #
straight-curve $-1 22.5 40 2.5 0 0 -1 I I #
edge $-1 $82 $154 $118 $157 0 #
point $-1 22.5 40 0 #
coedge $-1 $129 $84 $158 $159 1 $56 $-1 #
edge $-1 $160 $85 $119 $161 0 #
point $-1 22.5 40 10 #
coedge $-1 $92 $139 $89 $128 0 $134 $-1 #
edge $-1 $141 $96 $127 $162 0 #
coedge $-1 $90 $124 $163 $164 1 $56 $-1 #
coedge $-1 $165 $92 $90 $131 0 $134 $-1 #
edge $-1 $94 $166 $130 $167 0 #
face $-1 $168 $120 $2 $-1 $169 reversed single #
plane-surface $-1 -5 -25 10 0 0 1 1 0 0 0 I I I I #
loop $-1 $-1 $139 $98 #
straight-curve $-1 -40 -22.5 2.5 0 0 1 I I #
point $-1 -40 -22.5 10 #
point $-1 -40 -22.5 0 #
plane-surface $-1 -40 0 0 1 0 0 0 0 -1 0 I I I I #
coedge $-1 $127 $170 $100 $140 0 $134 $-1 #
edge $-1 $144 $141 $139 $171 0 #
vertex $-1 $140 $172 #
straight-curve $-1 -7.5 -27.5 0 -1 0 0 I I #
coedge $-1 $173 $103 $170 $174 1 $111 $-1 #
vertex $-1 $174 $175 #
straight-curve $-1 10 -27.5 10 -1 0 0 I I #
point $-1 22.5 -27.5 10 #
point $-1 22.5 -27.5 0 #
coedge $-1 $110 $176 $177 $178 1 $111 $-1 #
face $-1 $179 $111 $2 $-1 $133 forward single #
coedge $-1 $177 $118 $113 $151 0 $120 $-1 #
edge $-1 $154 $152 $150 $180 0 #
vertex $-1 $151 $181 #
straight-curve $-1 27.5 -25 10 0 -1 0 I I #
vertex $-1 $122 $182 #
straight-curve $-1 27.5 -25 0 0 -1 0 I I #
coedge $-1 $119 $183 $184 $185 0 $120 $-1 #
straight-curve $-1 12.5 40 0 1 0 0 I I #
coedge $-1 $184 $186 $124 $159 0 $187 $-1 #
edge $-1 $188 $160 $158 $189 0 #
vertex $-1 $185 $190 #
straight-curve $-1 -2.5 40 10 1 0 0 I I #
straight-curve $-1 -40 -12.5 0 0 1 0 I I #
coedge $-1 $191 $192 $129 $164 0 $193 $-1 #
edge $-1 $166 $188 $163 $194 0 #
coedge $-1 $195 $130 $192 $196 0 $134 $-1 #
vertex $-1 $196 $197 #
straight-curve $-1 -40 -12.5 10 0 1 0 I I #
face $-1 $198 $199 $2 $-1 $200 forward single #
plane-surface $-1 0 40 0 0 -1 0 0 0 -1 0 I I I I #
coedge $-1 $139 $201 $143 $174 0 $134 $-1 #
straight-curve $-1 -40 -27.5 2.5 0 0 -1 I I #
point $-1 -40 -27.5 0 #
coedge $-1 $202 $143 $203 $204 1 $111 $-1 #
edge $-1 $205 $144 $170 $167 0 #
point $-1 -40 -27.5 10 #
coedge $-1 $148 $202 $206 $207 1 $111 $-1 #
coedge $-1 $208 $150 $148 $178 0 $120 $-1 #
edge $-1 $152 $209 $177 $161 0 #
face $-1 $210 $211 $2 $-1 $212 forward single #
straight-curve $-1 27.5 40 2.5 0 0 1 I I #
point $-1 27.5 40 10 #
point $-1 27.5 40 0 #
coedge $-1 $156 $213 $214 $215 1 $120 $-1 #
coedge $-1 $216 $158 $156 $185 1 $187 $-1 #
edge $-1 $217 $160 $156 $218 0 #
coedge $-1 $158 $216 $191 $219 0 $187 $-1 #
loop $-1 $-1 $186 $220 #
vertex $-1 $164 $221 #
straight-curve $-1 20 5 10 0 1 0 I I #
point $-1 20 40 10 #
coedge $-1 $222 $163 $186 $219 1 $193 $-1 #
coedge $-1 $163 $222 $165 $196 1 $193 $-1 #
loop $-1 $-1 $191 $223 #
straight-curve $-1 -5 -20 10 1 0 0 I I #
coedge $-1 $224 $165 $225 $226 1 $134 $-1 #
edge $-1 $166 $227 $165 $228 0 #
point $-1 -40 -20 10 #
face $-1 $229 $230 $2 $-1 $231 forward single #
loop $-1 $-1 $232 $168 #
plane-surface $-1 -20 40 10 1 0 0 0 0 -1 0 I I I I #
coedge $-1 $170 $233 $234 $235 0 $134 $-1 #
coedge $-1 $176 $173 $236 $237 0 $111 $-1 #
coedge $-1 $234 $238 $173 $204 0 $239 $-1 #
edge $-1 $240 $205 $203 $241 0 #
vertex $-1 $174 $242 #
coedge $-1 $243 $244 $176 $207 0 $211 $-1 #
edge $-1 $209 $245 $206 $246 0 #
coedge $-1 $247 $177 $244 $248 0 $120 $-1 #
vertex $-1 $178 $249 #
face $-1 $250 $251 $2 $-1 $252 forward single #
loop $-1 $-1 $243 $179 #
plane-surface $-1 30 -25 15 -1 0 0 0 0 1 0 I I I I #
coedge $-1 $183 $253 $254 $255 0 $120 $-1 #
coedge $-1 $256 $257 $183 $215 0 $251 $-1 #
edge $-1 $217 $258 $183 $259 0 #
coedge $-1 $186 $184 $257 $260 1 $187 $-1 #
vertex $-1 $260 $261 #
straight-curve $-1 20 40 7.5 0 0 -1 I I #
edge $-1 $262 $188 $191 $263 0 #
face $-1 $223 $187 $2 $-1 $264 forward single #
point $-1 20 -20 10 #
coedge $-1 $192 $191 $265 $266 1 $193 $-1 #
face $-1 $149 $193 $2 $-1 $267 forward single #
coedge $-1 $268 $195 $269 $270 0 $134 $-1 #
coedge $-1 $265 $271 $195 $226 0 $251 $-1 #
edge $-1 $272 $227 $195 $273 0 #
vertex $-1 $226 $274 #
straight-curve $-1 -40 -20 7.5 0 0 1 I I #
face $-1 $275 $276 $2 $-1 $277 forward single #
loop $-1 $-1 $278 $198 #
plane-surface $-1 -10 40 0 0 0 1 1 0 0 0 I I I I #
coedge $-1 $279 $280 $281 $282 1 $199 $-1 #
coedge $-1 $201 $283 $284 $285 1 $134 $-1 #
coedge $-1 $286 $203 $201 $235 1 $239 $-1 #
edge $-1 $287 $205 $201 $288 0 #
coedge $-1 $289 $290 $202 $237 1 $291 $-1 #
edge $-1 $240 $245 $202 $292 0 #
coedge $-1 $203 $286 $289 $293 1 $239 $-1 #
loop $-1 $-1 $238 $294 #
vertex $-1 $237 $295 #
straight-curve $-1 -5 -30 10 -1 0 0 I I #
point $-1 -40 -30 10 #
coedge $-1 $296 $206 $290 $297 1 $211 $-1 #
coedge $-1 $206 $296 $208 $248 1 $211 $-1 #
vertex $-1 $207 $298 #
straight-curve $-1 30 -25 10 0 -1 0 I I #
coedge $-1 $299 $208 $300 $301 1 $120 $-1 #
edge $-1 $209 $302 $208 $303 0 #
point $-1 30 40 10 #
face $-1 $304 $305 $2 $-1 $252 forward single #
loop $-1 $-1 $256 $210 #
plane-surface $-1 0 0 20 0 0 1 1 0 0 0 I I I I #
coedge $-1 $213 $281 $278 $306 0 $120 $-1 #
coedge $-1 $307 $308 $213 $255 1 $276 $-1 #
edge $-1 $309 $258 $213 $310 0 #
coedge $-1 $311 $214 $308 $312 0 $251 $-1 #
coedge $-1 $214 $265 $216 $260 0 $251 $-1 #
vertex $-1 $215 $313 #
straight-curve $-1 0 40 20 -1 0 0 I I #
edge $-1 $262 $217 $257 $314 0 #
point $-1 20 40 20 #
vertex $-1 $260 $315 #
straight-curve $-1 20 -20 15 0 0 -1 I I #
plane-surface $-1 20 5 15 1 0 0 0 0 -1 0 I I I I #
coedge $-1 $257 $225 $222 $266 0 $251 $-1 #
edge $-1 $227 $262 $265 $316 0 #
plane-surface $-1 -5 -20 15 0 -1 0 0 0 -1 0 I I I I #
coedge $-1 $283 $224 $317 $318 1 $134 $-1 #
coedge $-1 $319 $320 $224 $270 1 $120 $-1 #
edge $-1 $272 $321 $269 $322 0 #
coedge $-1 $225 $323 $319 $324 0 $251 $-1 #
vertex $-1 $324 $325 #
straight-curve $-1 -40 0 20 0 -1 0 I I #
point $-1 -40 -20 20 #
face $-1 $326 $327 $2 $-1 $328 forward single #
loop $-1 $-1 $254 $229 #
plane-surface $-1 0 40 10 -1 0 0 0 0 1 0 I I I I #
coedge $-1 $329 $330 $253 $306 1 $230 $-1 #
coedge $-1 $331 $232 $323 $332 1 $199 $-1 #
coedge $-1 $232 $331 $329 $333 0 $199 $-1 #
coedge $-1 $253 $319 $232 $282 0 $120 $-1 #
edge $-1 $334 $335 $281 $336 0 #
coedge $-1 $233 $268 $337 $338 1 $134 $-1 #
coedge $-1 $339 $340 $233 $285 0 $305 $-1 #
edge $-1 $287 $341 $233 $273 0 #
coedge $-1 $238 $234 $340 $342 1 $239 $-1 #
vertex $-1 $235 $343 #
straight-curve $-1 -40 -30 7.5 0 0 -1 I I #
coedge $-1 $344 $236 $238 $293 0 $291 $-1 #
coedge $-1 $236 $344 $243 $297 0 $291 $-1 #
loop $-1 $-1 $290 $345 #
ellipse-curve $-1 20 -20 10 0 0 1 7.0710678118654746 -7.0710678118654746 0 1 I I #
edge $-1 $240 $346 $238 $347 0 #
face $-1 $220 $239 $2 $-1 $348 forward single #
point $-1 20 -30 10 #
coedge $-1 $244 $243 $349 $350 1 $211 $-1 #
edge $-1 $351 $245 $243 $352 0 #
point $-1 30 -20 10 #
coedge $-1 $320 $247 $353 $354 0 $120 $-1 #
coedge $-1 $349 $355 $247 $301 0 $305 $-1 #
edge $-1 $356 $302 $247 $259 0 #
vertex $-1 $301 $357 #
straight-curve $-1 30 40 7.5 0 0 1 I I #
face $-1 $358 $359 $2 $-1 $360 reversed single #
loop $-1 $-1 $349 $250 #
edge $-1 $335 $309 $253 $361 0 #
coedge $-1 $362 $254 $330 $363 0 $276 $-1 #
coedge $-1 $254 $362 $256 $312 1 $276 $-1 #
vertex $-1 $306 $364 #
straight-curve $-1 0 40 5 0 0 1 I I #
coedge $-1 $365 $256 $366 $367 0 $251 $-1 #
edge $-1 $258 $368 $256 $369 0 #
point $-1 0 40 20 #
straight-curve $-1 20 2.5 20 0 1 0 I I #
point $-1 20 -20 20 #
straight-curve $-1 -2.5 -20 20 1 0 0 I I #
coedge $-1 $370 $371 $268 $318 0 $372 $-1 #
edge $-1 $373 $321 $268 $374 0 #
coedge $-1 $281 $269 $271 $324 1 $120 $-1 #
coedge $-1 $269 $299 $370 $375 1 $120 $-1 #
vertex $-1 $375 $376 #
straight-curve $-1 -40 40 0 0 0 -1 I I #
coedge $-1 $271 $377 $279 $332 0 $251 $-1 #
edge $-1 $334 $272 $319 $259 0 #
point $-1 -40 40 20 #
face $-1 $378 $379 $2 $-1 $380 forward single #
loop $-1 $-1 $381 $275 #
plane-surface $-1 -10 30 0 0 -1 0 0 0 -1 0 I I I I #
coedge $-1 $382 $278 $280 $333 1 $230 $-1 #
coedge $-1 $278 $382 $307 $363 1 $230 $-1 #
coedge $-1 $280 $279 $383 $384 1 $199 $-1 #
edge $-1 $385 $334 $323 $386 0 #
edge $-1 $387 $335 $280 $388 0 #
vertex $-1 $282 $389 #
vertex $-1 $306 $390 #
straight-curve $-1 -20 40 5 0 0 -1 I I #
coedge $-1 $391 $392 $283 $338 0 $393 $-1 #
edge $-1 $341 $373 $283 $394 0 #
coedge $-1 $355 $284 $392 $395 0 $305 $-1 #
coedge $-1 $284 $396 $286 $342 0 $305 $-1 #
vertex $-1 $285 $397 #
edge $-1 $346 $287 $340 $398 0 #
point $-1 -40 -30 20 #
coedge $-1 $290 $289 $396 $399 1 $291 $-1 #
face $-1 $294 $291 $2 $-1 $400 forward single #
vertex $-1 $342 $401 #
straight-curve $-1 20 -30 15 0 0 1 F -36 F 36 #
plane-surface $-1 -5 -30 15 0 1 0 0 0 1 0 I I I I #
coedge $-1 $396 $300 $296 $350 0 $305 $-1 #
edge $-1 $302 $351 $349 $402 0 #
vertex $-1 $350 $403 #
straight-curve $-1 30 -20 15 0 0 -1 F -36 F 36 #
coedge $-1 $404 $405 $299 $354 1 $406 $-1 #
edge $-1 $356 $407 $353 $408 0 #
coedge $-1 $300 $339 $404 $409 0 $305 $-1 #
vertex $-1 $409 $410 #
point $-1 30 40 20 #
face $-1 $411 $393 $2 $-1 $412 reversed single #
loop $-1 $372 $413 $304 #
plane-surface $-1 0 0 -20 0 0 1 1 0 0 0 I I I I #
straight-curve $-1 -5 40 0 1 0 0 I I #
coedge $-1 $308 $307 $381 $414 1 $276 $-1 #
edge $-1 $309 $415 $307 $416 0 #
point $-1 0 40 0 #
coedge $-1 $417 $311 $418 $419 0 $251 $-1 #
coedge $-1 $381 $420 $311 $367 1 $327 $-1 #
edge $-1 $368 $421 $311 $422 0 #
vertex $-1 $312 $423 #
straight-curve $-1 0 20 20 0 -1 0 I I #
coedge $-1 $424 $317 $320 $375 0 $372 $-1 #
coedge $-1 $317 $424 $391 $425 0 $372 $-1 #
loop $-1 $-1 $424 $304 #
vertex $-1 $318 $426 #
straight-curve $-1 -40 0 -20 0 1 0 I I #
edge $-1 $321 $407 $320 $427 0 #
point $-1 -40 40 -20 #
coedge $-1 $323 $428 $429 $430 0 $251 $-1 #
face $-1 $431 $432 $2 $-1 $433 forward single #
loop $-1 $-1 $434 $326 #
plane-surface $-1 -10 -10 0 0 1 0 0 0 1 0 I I I I #
coedge $-1 $435 $366 $362 $414 0 $327 $-1 #
coedge $-1 $330 $329 $435 $436 1 $230 $-1 #
coedge $-1 $429 $435 $331 $384 0 $327 $-1 #
edge $-1 $387 $385 $383 $437 0 #
vertex $-1 $430 $438 #
straight-curve $-1 -20 20 20 0 1 0 I I #
vertex $-1 $436 $439 #
straight-curve $-1 -20 40 0 0 1 0 I I #
point $-1 -20 40 20 #
point $-1 -20 40 0 #
coedge $-1 $440 $337 $371 $425 1 $393 $-1 #
coedge $-1 $337 $440 $339 $395 1 $393 $-1 #
loop $-1 $-1 $337 $358 #
straight-curve $-1 -40 -40 0 0 0 -1 I I #
edge $-1 $341 $441 $392 $442 0 #
coedge $-1 $340 $349 $344 $399 0 $305 $-1 #
point $-1 -40 -40 20 #
straight-curve $-1 -2.5 -30 20 -1 0 0 I I #
edge $-1 $351 $346 $396 $443 0 #
cone-surface $-1 20 -20 15 0 0 1 7.0710678118654746 -7.0710678118654746 0 1 I I 0 -1 0 I I I I #
point $-1 20 -30 20 #
straight-curve $-1 30 -12.5 20 0 -1 0 I I #
point $-1 30 -20 20 #
coedge $-1 $444 $353 $355 $409 1 $406 $-1 #
coedge $-1 $353 $444 $424 $445 1 $406 $-1 #
loop $-1 $-1 $444 $411 #
vertex $-1 $445 $446 #
straight-curve $-1 40 40 0 0 0 -1 I I #
edge $-1 $441 $356 $404 $447 0 #
point $-1 40 40 20 #
face $-1 $-1 $406 $2 $-1 $448 reversed single #
plane-surface $-1 0 -40 0 0 1 0 0 0 1 0 I I I I #
coedge $-1 $449 $450 $451 $452 0 $359 $-1 #
edge $-1 $368 $415 $381 $453 0 #
vertex $-1 $436 $454 #
straight-curve $-1 0 40 0 0 -1 0 I I #
coedge $-1 $428 $365 $455 $456 0 $251 $-1 #
coedge $-1 $457 $458 $365 $419 1 $459 $-1 #
edge $-1 $421 $460 $365 $461 0 #
coedge $-1 $366 $462 $457 $463 1 $327 $-1 #
vertex $-1 $367 $464 #
straight-curve $-1 -5 30 20 1 0 0 I I #
point $-1 0 30 20 #
coedge $-1 $371 $370 $405 $445 0 $372 $-1 #
edge $-1 $465 $373 $391 $466 0 #
point $-1 -40 -40 -20 #
straight-curve $-1 0 40 -20 1 0 0 I I #
coedge $-1 $377 $417 $467 $468 0 $251 $-1 #
coedge $-1 $469 $383 $377 $430 1 $327 $-1 #
edge $-1 $470 $385 $377 $422 0 #
face $-1 $345 $459 $2 $-1 $471 forward single #
loop $-1 $-1 $472 $378 #
plane-surface $-1 -30 10 0 1 0 0 0 0 -1 0 I I I I #
coedge $-1 $455 $451 $473 $474 1 $379 $-1 #
coedge $-1 $383 $381 $382 $436 0 $327 $-1 #
edge $-1 $415 $387 $435 $475 0 #
straight-curve $-1 -20 30 5 0 0 1 I I #
point $-1 -20 30 20 #
point $-1 -20 30 0 #
coedge $-1 $392 $391 $444 $476 1 $393 $-1 #
vertex $-1 $409 $477 #
straight-curve $-1 0 -40 20 1 0 0 I I #
ellipse-curve $-1 20 -20 20 0 0 -1 7.0710678118654746 -7.0710678118654746 0 1 I I #
coedge $-1 $405 $404 $440 $476 0 $406 $-1 #
edge $-1 $407 $465 $405 $478 0 #
point $-1 40 40 -20 #
straight-curve $-1 40 0 20 0 1 0 I I #
plane-surface $-1 40 0 0 -1 0 0 0 0 1 0 I I I I #
coedge $-1 $479 $413 $480 $481 0 $359 $-1 #
coedge $-1 $413 $479 $482 $483 0 $359 $-1 #
coedge $-1 $434 $484 $413 $452 1 $379 $-1 #
edge $-1 $485 $486 $413 $487 0 #
straight-curve $-1 0 30 5 0 0 -1 I I #
point $-1 0 30 0 #
coedge $-1 $484 $434 $417 $456 1 $379 $-1 #
edge $-1 $460 $488 $417 $489 0 #
coedge $-1 $480 $418 $420 $463 0 $459 $-1 #
coedge $-1 $418 $480 $484 $490 1 $459 $-1 #
loop $-1 $-1 $458 $431 #
vertex $-1 $456 $491 #
straight-curve $-1 10 5 20 0 -1 0 I I #
coedge $-1 $420 $469 $479 $492 1 $327 $-1 #
edge $-1 $421 $493 $457 $494 0 #
point $-1 10 30 20 #
vertex $-1 $476 $495 #
straight-curve $-1 0 -40 -20 -1 0 0 I I #
coedge $-1 $473 $472 $428 $468 1 $432 $-1 #
edge $-1 $488 $470 $428 $496 0 #
coedge $-1 $462 $429 $472 $497 0 $327 $-1 #
vertex $-1 $468 $498 #
plane-surface $-1 10 10 0 -1 0 0 0 0 1 0 I I I I #
coedge $-1 $467 $482 $469 $497 1 $432 $-1 #
coedge $-1 $482 $467 $434 $474 0 $432 $-1 #
edge $-1 $488 $485 $473 $499 0 #
straight-curve $-1 -10 30 0 -1 0 0 I I #
edge $-1 $441 $465 $444 $500 0 #
point $-1 40 -40 20 #
straight-curve $-1 40 0 -20 0 -1 0 I I #
coedge $-1 $450 $449 $462 $492 0 $359 $-1 #
coedge $-1 $458 $457 $449 $481 1 $459 $-1 #
edge $-1 $486 $493 $449 $501 0 #
coedge $-1 $472 $473 $450 $483 1 $432 $-1 #
edge $-1 $502 $485 $450 $503 0 #
coedge $-1 $451 $455 $458 $490 0 $379 $-1 #
vertex $-1 $452 $504 #
vertex $-1 $452 $505 #
straight-curve $-1 -5 -10 -20 1 0 0 I I #
vertex $-1 $456 $506 #
straight-curve $-1 -5 -10 20 -1 0 0 I I #
edge $-1 $460 $486 $458 $507 0 #
point $-1 10 -10 20 #
edge $-1 $493 $502 $479 $508 0 #
vertex $-1 $492 $509 #
straight-curve $-1 10 30 0 0 0 -1 I I #
point $-1 40 -40 -20 #
straight-curve $-1 -30 5 20 0 1 0 I I #
edge $-1 $470 $502 $469 $510 0 #
point $-1 -30 30 20 #
straight-curve $-1 -30 -10 0 0 0 -1 I I #
straight-curve $-1 40 -40 0 0 0 -1 I I #
straight-curve $-1 10 5 -20 0 1 0 I I #
vertex $-1 $483 $511 #
straight-curve $-1 -30 5 -20 0 -1 0 I I #
point $-1 -30 -10 -20 #
point $-1 10 -10 -20 #
point $-1 -30 -10 20 #
straight-curve $-1 10 -10 0 0 0 -1 I I #
straight-curve $-1 -5 30 -20 -1 0 0 I I #
point $-1 10 30 -20 #
straight-curve $-1 -30 30 0 0 0 -1 I I #
point $-1 -30 30 -20 #
End-of-ACIS-data 