600 0 2 0           
24 FBMach with ACIS - 6.0.3 13 ACIS 6.0.3 NT 24 Wed May 23 20:17:54 2001 
1 9.9999999999999995e-007 1e-010 
body $2 $3 $-1 $4 #
bdycol-kcp $-1 1 5 $5 $6 $7 $8 $9 #
model_id-kcp-attrib $-1 $-1 $-1 $0 1 990663473 70 -1119485951 1 #
lump $-1 $-1 $10 $0 #
transform $-1 1 0 0 0 1 0 0 0 1 0 0 0 1 no_rotate no_reflect no_shear #
body $11 $12 $-1 $13 #
body $14 $15 $-1 $16 #
body $17 $18 $-1 $19 #
body $20 $21 $-1 $22 #
body $23 $24 $-1 $25 #
shell $-1 $-1 $-1 $26 $-1 $3 #
model_id-kcp-attrib $-1 $-1 $-1 $5 1 990663473 70 -1119485950 1 #
lump $-1 $-1 $27 $5 #
transform $-1 1 0 0 0 1 0 0 0 1 0 0 0 1 no_rotate no_reflect no_shear #
rgb_color-st-attrib $-1 $28 $-1 $6 0.5 1 1 #
lump $-1 $-1 $29 $6 #
transform $-1 1 0 0 0 1 0 0 0 1 0 0 0 1 no_rotate no_reflect no_shear #
rgb_color-st-attrib $-1 $30 $-1 $7 1 0 0 #
lump $-1 $-1 $31 $7 #
transform $-1 1 0 0 0 1 0 0 0 1 -10 35 120 1 no_rotate no_reflect no_shear #
rgb_color-st-attrib $-1 $32 $-1 $8 0.59999999999999998 0.90000000000000002 1 #
lump $-1 $-1 $33 $8 #
transform $-1 1 0 0 0 1 0 0 0 1 0 0 0 1 no_rotate no_reflect no_shear #
rgb_color-st-attrib $-1 $34 $-1 $9 0.59999999999999998 0.90000000000000002 1 #
lump $-1 $-1 $35 $9 #
transform $-1 1 0 0 0 1 0 0 0 1 0 0 0 1 no_rotate no_reflect no_shear #
face $36 $37 $38 $10 $-1 $39 forward single #
shell $-1 $-1 $-1 $40 $-1 $12 #
model_id-kcp-attrib $-1 $-1 $14 $6 1 990663473 340 -1118568445 1 #
shell $-1 $-1 $-1 $41 $-1 $15 #
model_id-kcp-attrib $-1 $-1 $17 $7 1 990663473 540 -1122238460 1 #
shell $-1 $-1 $-1 $42 $-1 $18 #
model_id-kcp-attrib $-1 $-1 $20 $8 1 990663473 861 -1117978619 1 #
shell $-1 $-1 $-1 $43 $-1 $21 #
model_id-kcp-attrib $-1 $-1 $23 $9 1 990663473 1141 -1116405754 1 #
shell $-1 $-1 $-1 $44 $-1 $24 #
model_id-kcp-attrib $-1 $-1 $-1 $26 1 990663473 70 -1119485951 2 #
face $45 $46 $47 $10 $-1 $48 forward single #
loop $-1 $-1 $49 $26 #
cone-surface $-1 20.5 -20.5 5 0 0 1 1.4142135623730949 -1.4142135623730949 0 1 I I 0 1 1.9999999999999998 forward I I I I #
face $50 $51 $52 $27 $-1 $53 forward single #
face $-1 $54 $55 $29 $-1 $56 forward single #
face $-1 $57 $58 $31 $-1 $59 reversed single #
face $-1 $60 $61 $33 $-1 $62 forward single #
face $-1 $63 $64 $35 $-1 $65 forward single #
model_id-kcp-attrib $-1 $-1 $-1 $37 1 990663473 70 -1119485951 3 #
face $66 $67 $68 $10 $-1 $69 reversed single #
loop $-1 $-1 $70 $37 #
plane-surface $-1 22.5 7.5 5 1 0 0 0 0 -1 forward_v I I I I #
coedge $-1 $71 $72 $73 $74 forward $38 $-1 #
model_id-kcp-attrib $-1 $75 $-1 $40 1 990663473 70 -1119485950 5 #
face $76 $77 $78 $27 $-1 $79 reversed single #
loop $-1 $-1 $80 $40 #
plane-surface $-1 0 0 20 0 0 1 1 0 0 forward_v I I I I #
face $-1 $81 $82 $29 $-1 $83 forward single #
loop $-1 $-1 $84 $41 #
plane-surface $-1 -30 -10 -20 -1 0 0 0 0 1 forward_v I I I I #
face $-1 $85 $86 $31 $-1 $87 forward single #
loop $-1 $-1 $88 $42 #
plane-surface $-1 -20 -5 -140 0 1 0 0 0 1 forward_v I I I I #
face $-1 $89 $90 $33 $-1 $91 forward single #
loop $-1 $-1 $92 $43 #
plane-surface $-1 20 40 10 0 1 0 0 0 1 forward_v I I I I #
face $-1 $93 $94 $35 $-1 $95 forward single #
loop $-1 $-1 $96 $44 #
cone-surface $-1 20.5 -20.5 0 0 0 1 1.4142135623730949 -1.4142135623730949 0 1 I I 0 -1 1.9999999999999998 forward I I I I #
model_id-kcp-attrib $-1 $-1 $-1 $46 1 990663473 70 -1119485951 4 #
face $97 $98 $99 $10 $-1 $100 forward single #
loop $-1 $-1 $101 $46 #
cone-surface $-1 22.5 -22.5 5 0 0 -1 3.5355339059327373 -3.5355339059327373 0 1 I I 0 1 5 forward I I I I #
coedge $-1 $102 $103 $104 $105 reversed $47 $-1 #
coedge $-1 $104 $49 $106 $107 reversed $38 $-1 #
coedge $-1 $49 $104 $108 $109 forward $38 $-1 #
coedge $-1 $110 $111 $49 $74 reversed $112 $-1 #
edge $-1 $113 -5 $114 5 $73 $115 forward 7 unknown #
model_id-kcp-attrib $-1 $-1 $50 $40 1 990663473 70 -1119485950 4 #
model_id-kcp-attrib $-1 $-1 $-1 $51 1 990663473 70 -1119485950 6 #
face $116 $117 $118 $27 $-1 $119 reversed single #
loop $-1 $-1 $120 $51 #
plane-surface $-1 0 0 -20 0 0 1 1 0 0 forward_v I I I I #
coedge $-1 $121 $122 $123 $124 forward $52 $-1 #
face $-1 $125 $126 $29 $-1 $127 forward single #
loop $-1 $-1 $128 $54 #
plane-surface $-1 -30 30 -20 0 1 0 0 0 1 forward_v I I I I #
coedge $-1 $129 $130 $131 $132 forward $55 $-1 #
face $-1 $133 $134 $31 $-1 $135 reversed single #
loop $-1 $-1 $136 $57 #
plane-surface $-1 10 -35 -100 0 0 1 1 0 0 forward_v I I I I #
coedge $-1 $137 $138 $139 $140 forward $58 $-1 #
face $-1 $141 $142 $33 $-1 $143 forward single #
loop $-1 $-1 $144 $60 #
plane-surface $-1 30 40 10 1 0 0 0 0 -1 forward_v I I I I #
coedge $-1 $145 $146 $147 $148 forward $61 $-1 #
face $-1 $149 $150 $35 $-1 $151 forward single #
loop $-1 $-1 $152 $63 #
plane-surface $-1 22.5 -20.5 0 -1 0 0 0 0 1 forward_v I I I I #
coedge $-1 $153 $154 $155 $156 forward $64 $-1 #
model_id-kcp-attrib $-1 $-1 $-1 $67 1 990663473 70 -1119485951 5 #
face $157 $158 $112 $10 $-1 $159 forward single #
loop $-1 $-1 $160 $67 #
plane-surface $-1 25 -27.5 5 0 1 0 0 0 1 forward_v I I I I #
coedge $-1 $161 $162 $163 $164 reversed $68 $-1 #
coedge $-1 $165 $70 $166 $167 forward $47 $-1 #
coedge $-1 $70 $165 $168 $169 reversed $47 $-1 #
coedge $-1 $72 $71 $70 $105 forward $38 $-1 #
edge $-1 $170 -5 $171 5 $70 $172 forward 7 unknown #
coedge $-1 $173 $166 $71 $107 forward $174 $-1 #
edge $-1 $170 -0.78539816339744828 $114 0.78539816339744828 $106 $175 forward 7 unknown #
coedge $-1 $168 $176 $72 $109 reversed $177 $-1 #
edge $-1 $171 -0.78539816339744828 $113 0.78539816339744828 $108 $178 forward 7 unknown #
coedge $-1 $179 $73 $176 $180 reversed $112 $-1 #
coedge $-1 $73 $179 $173 $181 forward $112 $-1 #
loop $-1 $-1 $73 $98 #
vertex $-1 $180 $182 #
vertex $-1 $181 $183 #
straight-curve $-1 20.5 -22.5 5 0 0 -1 F -11.199999999999999 F 11.199999999999999 #
model_id-kcp-attrib $-1 $-1 $-1 $77 1 990663473 70 -1119485950 7 #
face $184 $185 $186 $27 $-1 $187 reversed single #
loop $-1 $-1 $188 $77 #
plane-surface $-1 0 -40 0 0 1 0 0 0 1 forward_v I I I I #
coedge $-1 $189 $190 $191 $192 forward $78 $-1 #
coedge $-1 $193 $80 $194 $195 forward $52 $-1 #
coedge $-1 $80 $193 $196 $197 forward $52 $-1 #
coedge $-1 $198 $199 $80 $124 reversed $200 $-1 #
edge $-1 $201 -40 $202 40 $123 $203 forward 7 unknown #
face $-1 $204 $205 $29 $-1 $206 forward single #
loop $-1 $-1 $207 $81 #
plane-surface $-1 10 30 -20 1 0 0 0 0 -1 forward_v I I I I #
coedge $-1 $208 $209 $210 $211 forward $82 $-1 #
coedge $-1 $212 $84 $209 $213 reversed $55 $-1 #
coedge $-1 $84 $212 $214 $215 forward $55 $-1 #
coedge $-1 $216 $210 $84 $132 reversed $217 $-1 #
edge $-1 $218 -15 $219 25 $84 $220 forward 7 unknown #
face $-1 $221 $222 $31 $-1 $223 reversed single #
loop $-1 $-1 $224 $85 #
plane-surface $-1 10 5 -120 0 -1 0 0 0 -1 forward_v I I I I #
coedge $-1 $225 $226 $227 $228 forward $86 $-1 #
coedge $-1 $229 $88 $230 $231 forward $58 $-1 #
coedge $-1 $88 $229 $225 $232 reversed $58 $-1 #
coedge $-1 $227 $233 $88 $140 reversed $234 $-1 #
edge $-1 $235 30 $236 50 $139 $237 forward 7 unknown #
face $-1 $238 $239 $33 $-1 $240 forward single #
loop $-1 $-1 $241 $89 #
cone-surface $-1 20 -20 10 0 0 1 7.0710678118654746 -7.0710678118654746 0 1 I I 0 1 10 forward I I I I #
coedge $-1 $242 $243 $244 $245 forward $90 $-1 #
coedge $-1 $246 $92 $243 $247 reversed $61 $-1 #
coedge $-1 $92 $246 $248 $249 forward $61 $-1 #
coedge $-1 $250 $244 $92 $148 reversed $251 $-1 #
edge $-1 $252 24.375 $253 34.375 $92 $254 forward 7 unknown #
face $-1 $255 $256 $35 $-1 $257 forward single #
loop $-1 $-1 $258 $93 #
plane-surface $-1 22.5 40 0 0 1 0 0 0 1 forward_v I I I I #
coedge $-1 $259 $260 $261 $262 forward $94 $-1 #
coedge $-1 $263 $96 $260 $264 reversed $64 $-1 #
coedge $-1 $96 $263 $265 $266 forward $64 $-1 #
coedge $-1 $267 $261 $96 $156 reversed $268 $-1 #
edge $-1 $269 -0.78539816339744828 $270 0.78539816339744828 $96 $271 forward 7 unknown #
model_id-kcp-attrib $-1 $-1 $-1 $98 1 990663473 70 -1119485951 6 #
face $272 $273 $174 $10 $-1 $274 forward single #
plane-surface $-1 -7.5 -22.5 5 0 -1 0 0 0 -1 forward_v I I I I #
coedge $-1 $275 $276 $277 $278 forward $99 $-1 #
coedge $-1 $277 $101 $279 $280 reversed $68 $-1 #
coedge $-1 $101 $277 $281 $282 reversed $68 $-1 #
coedge $-1 $283 $284 $101 $164 forward $285 $-1 #
edge $-1 $286 -5 $287 5 $163 $288 forward 7 unknown #
coedge $-1 $103 $102 $289 $290 reversed $47 $-1 #
coedge $-1 $106 $291 $102 $167 reversed $174 $-1 #
edge $-1 $170 -28 $292 32.5 $102 $293 forward 7 unknown #
coedge $-1 $294 $108 $103 $169 forward $177 $-1 #
edge $-1 $171 -11.75 $295 48.75 $168 $296 forward 7 unknown #
vertex $-1 $107 $297 #
vertex $-1 $109 $298 #
straight-curve $-1 22.5 -20.5 5 0 0 1 F -11.199999999999999 F 11.199999999999999 #
coedge $-1 $299 $106 $111 $181 reversed $174 $-1 #
loop $-1 $-1 $279 $158 #
ellipse-curve $-1 20.5 -20.5 0 0 0 -1 1.4142135623730949 -1.4142135623730949 0 1 I I #
coedge $-1 $108 $300 $110 $180 forward $177 $-1 #
loop $-1 $-1 $108 $301 #
ellipse-curve $-1 20.5 -20.5 10 0 0 -1 1.4142135623730949 -1.4142135623730949 0 1 I I #
coedge $-1 $111 $110 $302 $303 reversed $112 $-1 #
edge $-1 $304 -33.75 $113 26.75 $176 $305 forward 7 unknown #
edge $-1 $306 -32.5 $114 28 $111 $307 forward 7 unknown #
point $-1 20.5 -22.5 10 #
point $-1 20.5 -22.5 0 #
model_id-kcp-attrib $-1 $-1 $-1 $117 1 990663473 70 -1119485950 2 #
face $308 $309 $310 $27 $-1 $311 reversed single #
loop $-1 $-1 $312 $117 #
plane-surface $-1 -40 0 0 1 0 0 0 0 -1 forward_v I I I I #
coedge $-1 $313 $196 $314 $315 forward $118 $-1 #
coedge $-1 $316 $120 $313 $317 forward $78 $-1 #
coedge $-1 $120 $316 $318 $319 forward $78 $-1 #
coedge $-1 $199 $198 $120 $192 reversed $200 $-1 #
edge $-1 $320 -40 $321 40 $191 $322 forward 7 unknown #
coedge $-1 $122 $121 $323 $324 forward $52 $-1 #
coedge $-1 $325 $326 $121 $195 reversed $310 $-1 #
edge $-1 $202 -40 $327 40 $194 $328 forward 7 unknown #
coedge $-1 $188 $329 $122 $197 reversed $118 $-1 #
edge $-1 $330 -40 $201 40 $196 $331 forward 7 unknown #
coedge $-1 $191 $123 $329 $332 forward $200 $-1 #
coedge $-1 $123 $191 $325 $333 reversed $200 $-1 #
loop $-1 $-1 $198 $309 #
vertex $-1 $124 $334 #
vertex $-1 $124 $335 #
straight-curve $-1 40 0 20 0 1 0 I I #
face $-1 $336 $217 $29 $-1 $337 forward single #
loop $-1 $-1 $338 $125 #
plane-surface $-1 10 -10 -20 0 -1 0 0 0 -1 forward_v I I I I #
coedge $-1 $339 $340 $341 $342 forward $126 $-1 #
coedge $-1 $343 $128 $340 $344 reversed $82 $-1 #
coedge $-1 $128 $343 $129 $213 forward $82 $-1 #
coedge $-1 $131 $341 $128 $211 reversed $217 $-1 #
edge $-1 $219 -25 $345 15 $128 $346 forward 7 unknown #
coedge $-1 $130 $129 $347 $348 forward $55 $-1 #
edge $-1 $349 0 $219 40 $209 $350 forward 7 unknown #
coedge $-1 $351 $338 $130 $215 reversed $205 $-1 #
edge $-1 $352 0 $218 40 $130 $353 forward 7 unknown #
coedge $-1 $341 $131 $338 $354 reversed $217 $-1 #
loop $-1 $-1 $131 $204 #
vertex $-1 $215 $355 #
vertex $-1 $213 $356 #
straight-curve $-1 -30 5 20 0 1 0 I I #
face $-1 $357 $358 $31 $-1 $359 reversed single #
loop $-1 $-1 $360 $133 #
plane-surface $-1 10 0 0 -1 0 0 0 0 1 forward_v I I I I #
coedge $-1 $361 $362 $363 $364 forward $134 $-1 #
coedge $-1 $365 $136 $138 $232 forward $86 $-1 #
coedge $-1 $136 $365 $361 $366 forward $86 $-1 #
coedge $-1 $363 $139 $136 $228 reversed $234 $-1 #
edge $-1 $367 -22.5 $235 -12.5 $227 $368 forward 7 unknown #
coedge $-1 $138 $137 $369 $370 forward $58 $-1 #
coedge $-1 $371 $372 $137 $231 reversed $358 $-1 #
edge $373 $236 0 $374 20 $230 $375 forward 7 unknown #
edge $-1 $235 -5 $376 15 $225 $377 forward 7 unknown #
coedge $-1 $139 $363 $371 $378 reversed $234 $-1 #
loop $-1 $-1 $363 $357 #
vertex $-1 $140 $379 #
vertex $-1 $378 $380 #
straight-curve $-1 -10 -5 -70 0 0 -1 I I #
face $-1 $381 $382 $33 $-1 $383 forward single #
loop $-1 $-1 $384 $141 #
plane-surface $-1 20 -30 10 0 -1 0 0 0 -1 forward_v I I I I #
coedge $-1 $385 $386 $387 $388 forward $142 $-1 #
coedge $-1 $389 $144 $386 $390 reversed $90 $-1 #
coedge $-1 $144 $389 $145 $247 forward $90 $-1 #
coedge $-1 $147 $387 $144 $245 reversed $251 $-1 #
edge $-1 $253 -48.125 $391 11.875 $144 $392 forward 7 unknown #
coedge $-1 $146 $145 $393 $394 reversed $61 $-1 #
edge $-1 $395 0 $253 10 $243 $396 forward 7 unknown #
coedge $-1 $397 $398 $146 $249 reversed $399 $-1 #
edge $-1 $400 0 $252 10 $146 $401 forward 7 unknown #
coedge $-1 $402 $147 $398 $403 reversed $251 $-1 #
loop $-1 $-1 $147 $404 #
vertex $-1 $249 $405 #
vertex $-1 $247 $406 #
straight-curve $-1 -4.375 40 20 1 0 0 I I #
face $-1 $407 $408 $35 $-1 $409 forward single #
loop $-1 $-1 $410 $149 #
plane-surface $-1 27.5 40 0 1 0 0 0 0 -1 forward_v I I I I #
coedge $-1 $411 $412 $413 $414 forward $150 $-1 #
coedge $-1 $415 $152 $412 $416 reversed $94 $-1 #
coedge $-1 $152 $415 $153 $264 forward $94 $-1 #
coedge $-1 $155 $413 $152 $262 reversed $268 $-1 #
edge $-1 $270 -27.375 $417 33.125 $152 $418 forward 7 unknown #
coedge $-1 $154 $153 $419 $420 reversed $64 $-1 #
edge $421 $422 0 $270 10 $260 $423 forward 7 unknown #
coedge $-1 $424 $425 $154 $266 reversed $426 $-1 #
edge $427 $428 0 $269 10 $154 $429 forward 7 unknown #
coedge $-1 $430 $155 $425 $431 reversed $268 $-1 #
loop $-1 $-1 $155 $432 #
vertex $-1 $266 $433 #
vertex $-1 $264 $434 #
ellipse-curve $-1 20.5 -20.5 10 0 0 1 1.4142135623730949 -1.4142135623730949 0 1 I I #
model_id-kcp-attrib $-1 $-1 $-1 $158 1 990663473 70 -1119485951 7 #
face $435 $436 $285 $10 $-1 $437 forward single #
plane-surface $-1 25 -25 0 0 0 1 1 0 0 forward_v I I I I #
coedge $-1 $438 $160 $439 $440 forward $99 $-1 #
coedge $-1 $160 $438 $441 $442 reversed $99 $-1 #
coedge $-1 $162 $161 $160 $278 reversed $68 $-1 #
edge $-1 $443 -5 $444 5 $160 $445 forward 7 unknown #
coedge $-1 $446 $439 $161 $280 forward $174 $-1 #
edge $-1 $444 -0.78539816339744828 $286 0.78539816339744828 $279 $447 forward 7 unknown #
coedge $-1 $441 $448 $162 $282 forward $449 $-1 #
edge $-1 $287 -0.78539816339744828 $443 0.78539816339744828 $281 $450 forward 7 unknown #
coedge $-1 $451 $163 $448 $452 reversed $285 $-1 #
coedge $-1 $163 $451 $446 $453 forward $285 $-1 #
loop $-1 $-1 $163 $273 #
vertex $-1 $453 $454 #
vertex $-1 $282 $455 #
straight-curve $-1 27.5 -22.5 5 0 0 1 F -20.5 F 20.5 #
coedge $-1 $456 $457 $165 $290 forward $458 $-1 #
edge $459 $295 -7.5 $292 2.5 $289 $460 forward 7 unknown #
coedge $-1 $166 $446 $456 $461 reversed $174 $-1 #
vertex $-1 $290 $462 #
straight-curve $-1 22.5 7.5 0 0 1 0 I I #
coedge $-1 $463 $168 $457 $464 reversed $177 $-1 #
vertex $-1 $464 $465 #
straight-curve $-1 22.5 -8.75 10 0 1 0 I I #
point $-1 22.5 -20.5 0 #
point $-1 22.5 -20.5 10 #
coedge $-1 $439 $173 $466 $467 reversed $174 $-1 #
coedge $-1 $176 $468 $469 $470 reversed $177 $-1 #
face $471 $472 $177 $10 $-1 $473 forward single #
coedge $-1 $469 $466 $179 $303 forward $474 $-1 #
edge $475 $306 -2.5 $304 7.5 $302 $476 forward 7 unknown #
vertex $-1 $180 $477 #
straight-curve $-1 -6.25 -22.5 10 1 0 0 I I #
vertex $-1 $303 $478 #
straight-curve $-1 -7.5 -22.5 0 1 0 0 I I #
model_id-kcp-attrib $-1 $-1 $-1 $185 1 990663473 70 -1119485950 3 #
face $479 $-1 $200 $27 $-1 $480 reversed single #
loop $-1 $-1 $325 $185 #
plane-surface $-1 0 40 0 0 -1 0 0 0 -1 forward_v I I I I #
coedge $-1 $481 $323 $326 $482 forward $186 $-1 #
coedge $-1 $329 $188 $189 $317 reversed $118 $-1 #
coedge $-1 $323 $481 $188 $315 reversed $186 $-1 #
edge $-1 $330 -20 $483 20 $314 $484 forward 7 unknown #
coedge $-1 $190 $189 $481 $485 forward $78 $-1 #
edge $-1 $321 -40 $483 40 $313 $486 forward 7 unknown #
coedge $-1 $326 $325 $190 $319 reversed $310 $-1 #
edge $-1 $487 -40 $320 40 $318 $488 forward 7 unknown #
vertex $-1 $192 $489 #
vertex $-1 $332 $490 #
straight-curve $-1 40 0 -20 0 -1 0 I I #
coedge $-1 $312 $314 $193 $324 reversed $186 $-1 #
edge $-1 $327 -40 $330 40 $323 $491 forward 7 unknown #
coedge $-1 $318 $194 $199 $333 forward $310 $-1 #
coedge $-1 $194 $318 $312 $482 reversed $310 $-1 #
vertex $-1 $195 $492 #
straight-curve $-1 0 40 20 -1 0 0 I I #
coedge $-1 $196 $313 $198 $332 reversed $118 $-1 #
vertex $-1 $324 $493 #
straight-curve $-1 0 -40 20 1 0 0 I I #
edge $-1 $201 -20 $321 20 $198 $494 forward 7 unknown #
edge $-1 $202 -20 $320 20 $199 $495 forward 7 unknown #
point $-1 40 -40 20 #
point $-1 40 40 20 #
face $-1 $-1 $496 $29 $-1 $497 reversed single #
plane-surface $-1 -10 10 20 0 0 1 1 0 0 forward_v I I I I #
coedge $-1 $214 $498 $216 $354 forward $205 $-1 #
coedge $-1 $499 $207 $498 $500 reversed $126 $-1 #
coedge $-1 $207 $499 $208 $344 forward $126 $-1 #
coedge $-1 $210 $216 $207 $342 reversed $217 $-1 #
edge $-1 $345 -25 $501 15 $207 $502 forward 7 unknown #
coedge $-1 $209 $208 $503 $504 forward $82 $-1 #
edge $-1 $505 0 $345 40 $340 $506 forward 7 unknown #
vertex $-1 $344 $507 #
straight-curve $-1 -5 30 20 1 0 0 I I #
coedge $-1 $503 $508 $212 $348 reversed $496 $-1 #
edge $-1 $349 -25 $352 15 $212 $509 forward 7 unknown #
vertex $-1 $504 $510 #
straight-curve $-1 -30 30 -20 0 0 1 I I #
coedge $-1 $498 $214 $508 $511 forward $205 $-1 #
vertex $-1 $511 $512 #
straight-curve $-1 -30 -10 -20 0 0 1 I I #
edge $-1 $501 -15 $218 25 $338 $513 forward 7 unknown #
point $-1 -30 -10 20 #
point $-1 -30 30 20 #
face $-1 $-1 $234 $31 $-1 $514 reversed single #
loop $-1 $-1 $515 $221 #
plane-surface $-1 0 0 -120 0 0 1 1 0 0 forward_v I I I I #
coedge $-1 $516 $517 $518 $519 reversed $222 $-1 #
coedge $-1 $518 $224 $226 $366 reversed $134 $-1 #
coedge $-1 $224 $518 $515 $520 forward $134 $-1 #
coedge $-1 $233 $227 $224 $364 reversed $234 $-1 #
edge $-1 $521 -60 $367 -40 $363 $522 forward 7 unknown #
coedge $-1 $226 $225 $516 $523 forward $86 $-1 #
edge $-1 $524 0 $367 20 $361 $525 forward 7 unknown #
vertex $-1 $228 $526 #
straight-curve $-1 -10 -17.5 -100 0 -1 0 I I #
coedge $-1 $517 $516 $229 $370 reversed $222 $-1 #
edge $-1 $374 -50 $376 -30 $369 $527 forward 7 unknown #
coedge $-1 $515 $230 $233 $378 forward $358 $-1 #
coedge $-1 $230 $515 $517 $528 forward $358 $-1 #
convexity-sys-attrib $-1 $-1 $-1 $231 #
vertex $-1 $231 $529 #
straight-curve $-1 -10 -5 -120 1 0 0 I I #
vertex $-1 $370 $530 #
straight-curve $-1 -5 -5 -100 1 0 0 I I #
edge $531 $236 -5 $521 5 $233 $532 forward 7 unknown #
point $-1 -10 -5 -100 #
point $-1 -10 -5 -120 #
face $-1 $533 $534 $33 $-1 $535 forward single #
loop $-1 $-1 $536 $238 #
plane-surface $-1 -40 -30 10 -1 0 0 0 0 1 forward_v I I I I #
coedge $-1 $537 $538 $539 $540 forward $239 $-1 #
coedge $-1 $541 $241 $538 $542 reversed $142 $-1 #
coedge $-1 $241 $541 $242 $390 forward $142 $-1 #
coedge $-1 $244 $539 $241 $388 reversed $251 $-1 #
edge $-1 $391 -0.78539816339744828 $543 0.78539816339744828 $241 $544 forward 7 unknown #
coedge $-1 $243 $242 $545 $546 reversed $90 $-1 #
edge $547 $548 0 $391 10 $386 $549 forward 7 unknown #
vertex $-1 $390 $550 #
straight-curve $-1 30 -8.125 20 0 -1 0 I I #
coedge $-1 $545 $551 $246 $394 forward $552 $-1 #
edge $553 $400 24.375 $395 34.375 $246 $554 forward 7 unknown #
vertex $-1 $394 $555 #
straight-curve $-1 30 40 10 0 0 1 I I #
coedge $-1 $556 $248 $551 $557 reversed $399 $-1 #
coedge $-1 $248 $556 $250 $403 forward $399 $-1 #
loop $-1 $-1 $398 $533 #
vertex $-1 $557 $558 #
straight-curve $-1 20 40 10 0 0 1 I I #
coedge $-1 $559 $250 $560 $561 reversed $251 $-1 #
edge $-1 $562 -26.875 $252 33.125 $398 $563 forward 7 unknown #
face $-1 $564 $251 $33 $-1 $565 forward single #
point $-1 20 40 20 #
point $-1 30 40 20 #
face $-1 $566 $567 $35 $-1 $568 forward single #
loop $-1 $-1 $569 $255 #
cone-surface $-1 22.5 -22.5 0 0 0 1 3.5355339059327373 -3.5355339059327373 0 1 I I 0 1 5 forward I I I I #
coedge $-1 $570 $571 $572 $573 forward $256 $-1 #
coedge $-1 $574 $258 $571 $575 reversed $150 $-1 #
coedge $-1 $258 $574 $259 $416 forward $150 $-1 #
coedge $-1 $261 $572 $258 $414 reversed $268 $-1 #
edge $-1 $417 25.625 $576 30.625 $258 $577 forward 7 unknown #
coedge $-1 $260 $259 $578 $579 reversed $94 $-1 #
edge $-1 $580 0 $417 10 $412 $581 forward 7 unknown #
vertex $-1 $416 $582 #
straight-curve $-1 22.5 6.875 10 0 1 0 I I #
coedge $-1 $578 $583 $263 $420 forward $584 $-1 #
edge $585 $428 -0.78539816339744828 $422 0.78539816339744828 $263 $586 forward 7 unknown #
convexity-sys-attrib $-1 $-1 $-1 $264 #
vertex $-1 $420 $587 #
straight-curve $-1 22.5 -20.5 0 0 0 1 I I #
coedge $-1 $588 $265 $583 $589 reversed $426 $-1 #
coedge $-1 $265 $588 $267 $431 forward $426 $-1 #
loop $-1 $-1 $425 $590 #
convexity-sys-attrib $-1 $-1 $-1 $266 #
vertex $-1 $589 $591 #
straight-curve $-1 20.5 -22.5 0 0 0 1 I I #
coedge $-1 $592 $267 $593 $594 reversed $268 $-1 #
edge $-1 $595 -33.125 $269 27.375 $425 $596 forward 7 unknown #
face $-1 $597 $268 $35 $-1 $598 forward single #
point $-1 20.5 -22.5 10 #
point $-1 22.5 -20.5 10 #
model_id-kcp-attrib $-1 $-1 $-1 $273 1 990663473 70 -1119485951 8 #
face $599 $301 $474 $10 $-1 $600 reversed single #
plane-surface $-1 27.5 -25 5 -1 0 0 0 0 1 forward_v I I I I #
coedge $-1 $276 $275 $601 $602 reversed $99 $-1 #
coedge $-1 $279 $299 $275 $440 reversed $174 $-1 #
edge $-1 $444 -30 $603 32.5 $275 $604 forward 7 unknown #
coedge $-1 $605 $281 $276 $442 forward $449 $-1 #
edge $-1 $443 -12.5 $606 50 $441 $607 forward 7 unknown #
vertex $-1 $282 $608 #
vertex $-1 $278 $609 #
straight-curve $-1 22.5 -27.5 5 0 0 -1 F -20.5 F 20.5 #
coedge $-1 $291 $279 $284 $453 reversed $174 $-1 #
ellipse-curve $-1 22.5 -22.5 0 0 0 1 3.5355339059327373 -3.5355339059327373 0 1 I I #
coedge $-1 $281 $610 $283 $452 forward $449 $-1 #
loop $-1 $-1 $441 $611 #
ellipse-curve $-1 22.5 -22.5 10 0 0 -1 3.5355339059327373 -3.5355339059327373 0 1 I I #
coedge $-1 $284 $283 $612 $613 reversed $285 $-1 #
edge $-1 $614 -65 $287 -2.5 $448 $615 forward 7 unknown #
edge $-1 $616 -65 $286 -2.5 $284 $617 forward 7 unknown #
point $-1 27.5 -22.5 0 #
point $-1 27.5 -22.5 10 #
coedge $-1 $612 $289 $291 $461 forward $458 $-1 #
coedge $-1 $289 $618 $294 $464 forward $458 $-1 #
loop $-1 $-1 $289 $472 #
attrib_edge_convexity-kcp-attrib $-1 $619 $-1 $290 1 #
straight-curve $-1 22.5 40 2.5 0 0 -1 I I #
edge $620 $292 10 $616 15 $456 $621 forward 7 unknown #
point $-1 22.5 40 0 #
coedge $-1 $468 $294 $622 $623 reversed $177 $-1 #
edge $624 $625 22.5 $295 25 $457 $626 forward 7 unknown #
point $-1 22.5 40 10 #
coedge $-1 $302 $601 $299 $467 forward $474 $-1 #
edge $627 $603 -15 $306 -10 $466 $628 forward 7 unknown #
coedge $-1 $300 $463 $629 $630 reversed $177 $-1 #
coedge $-1 $631 $302 $300 $470 forward $474 $-1 #
edge $632 $304 -10 $633 -7.5 $469 $634 forward 7 unknown #
model_id-kcp-attrib $-1 $-1 $-1 $301 1 990663473 70 -1119485951 10 #
face $635 $636 $458 $10 $-1 $637 reversed single #
plane-surface $-1 -5 -25 10 0 0 1 1 0 0 forward_v I I I I #
loop $-1 $-1 $601 $436 #
attrib_edge_convexity-kcp-attrib $-1 $638 $-1 $303 1 #
straight-curve $-1 -40 -22.5 2.5 0 0 1 I I #
point $-1 -40 -22.5 10 #
point $-1 -40 -22.5 0 #
model_id-kcp-attrib $-1 $-1 $-1 $309 1 990663473 70 -1119485950 8 #
plane-surface $-1 40 0 0 -1 0 0 0 0 1 forward_v I I I I #
coedge $-1 $314 $312 $316 $485 reversed $186 $-1 #
edge $-1 $327 -20 $487 20 $326 $639 forward 7 unknown #
vertex $-1 $485 $640 #
straight-curve $-1 -40 -40 0 0 0 -1 I I #
edge $-1 $483 -40 $487 40 $481 $641 forward 7 unknown #
straight-curve $-1 0 -40 -20 -1 0 0 I I #
vertex $-1 $319 $642 #
straight-curve $-1 0 40 -20 1 0 0 I I #
point $-1 40 40 -20 #
point $-1 40 -40 -20 #
straight-curve $-1 -40 0 20 0 -1 0 I I #
point $-1 -40 40 20 #
point $-1 -40 -40 20 #
straight-curve $-1 40 -40 0 0 0 -1 I I #
straight-curve $-1 40 40 0 0 0 -1 I I #
loop $-1 $-1 $508 $336 #
plane-surface $-1 -10 10 -20 0 0 1 1 0 0 forward_v I I I I #
coedge $-1 $338 $351 $339 $500 forward $205 $-1 #
coedge $-1 $340 $339 $643 $644 forward $126 $-1 #
edge $-1 $645 0 $501 40 $498 $646 forward 7 unknown #
vertex $-1 $500 $647 #
straight-curve $-1 10 5 20 0 -1 0 I I #
coedge $-1 $643 $347 $343 $504 reversed $496 $-1 #
edge $-1 $505 -15 $349 25 $343 $648 forward 7 unknown #
vertex $-1 $644 $649 #
straight-curve $-1 10 30 -20 0 0 1 I I #
point $-1 10 30 20 #
coedge $-1 $347 $643 $351 $511 reversed $496 $-1 #
straight-curve $-1 -30 5 -20 0 -1 0 I I #
point $-1 -30 30 -20 #
edge $-1 $352 -25 $645 15 $351 $650 forward 7 unknown #
point $-1 -30 -10 -20 #
straight-curve $-1 -5 -10 20 -1 0 0 I I #
plane-surface $-1 -10 0 0 1 0 0 0 0 -1 forward_v I I I I #
coedge $-1 $372 $371 $362 $520 reversed $358 $-1 #
coedge $-1 $369 $360 $365 $523 reversed $222 $-1 #
coedge $-1 $360 $369 $372 $528 reversed $222 $-1 #
coedge $-1 $362 $361 $360 $519 forward $134 $-1 #
edge $-1 $524 40 $651 60 $360 $652 forward 7 unknown #
edge $653 $651 -5 $521 15 $515 $654 forward 7 unknown #
vertex $-1 $520 $655 #
straight-curve $-1 -10 5 -60 0 0 1 I I #
edge $-1 $376 12.5 $524 22.5 $516 $656 forward 7 unknown #
vertex $-1 $523 $657 #
straight-curve $-1 10 5 -100 -1 0 0 I I #
point $-1 -10 5 -100 #
straight-curve $-1 10 -5 -70 0 0 1 I I #
edge $658 $651 -5 $374 5 $517 $659 forward 7 unknown #
point $-1 10 -5 -120 #
point $-1 10 -5 -100 #
convexity-sys-attrib $-1 $-1 $-1 $378 #
straight-curve $-1 -10 0 -120 0 1 0 I I #
face $-1 $404 $399 $33 $-1 $660 forward single #
loop $-1 $-1 $560 $381 #
plane-surface $-1 -40 -20 10 0 1 0 0 0 1 forward_v I I I I #
coedge $-1 $661 $662 $559 $663 forward $382 $-1 #
coedge $-1 $664 $384 $662 $665 reversed $239 $-1 #
coedge $-1 $384 $664 $385 $542 forward $239 $-1 #
coedge $-1 $387 $559 $384 $540 reversed $251 $-1 #
edge $-1 $543 -26.875 $666 33.125 $384 $667 forward 7 unknown #
coedge $-1 $386 $385 $668 $669 reversed $142 $-1 #
edge $-1 $670 0 $543 10 $538 $671 forward 7 unknown #
vertex $-1 $542 $672 #
ellipse-curve $-1 20 -20 20 0 0 -1 7.0710678118654746 -7.0710678118654746 0 1 I I #
coedge $-1 $668 $393 $389 $546 forward $552 $-1 #
edge $673 $395 -48.125 $548 11.875 $389 $674 forward 7 unknown #
convexity-sys-attrib $-1 $-1 $-1 $390 #
vertex $-1 $546 $675 #
straight-curve $-1 30 -20 10 0 0 1 I I #
point $-1 30 -20 20 #
coedge $-1 $393 $676 $397 $557 forward $552 $-1 #
loop $-1 $-1 $551 $564 #
convexity-sys-attrib $-1 $-1 $-1 $394 #
straight-curve $-1 -4.375 40 10 1 0 0 I I #
point $-1 30 40 10 #
coedge $-1 $398 $397 $677 $678 forward $399 $-1 #
edge $679 $680 -26.875 $400 33.125 $397 $681 forward 7 unknown #
point $-1 20 40 10 #
coedge $-1 $539 $402 $536 $663 reversed $251 $-1 #
coedge $-1 $677 $682 $402 $561 forward $534 $-1 #
edge $-1 $683 -33.125 $562 26.875 $560 $684 forward 7 unknown #
vertex $-1 $678 $685 #
straight-curve $-1 20 6.875 20 0 1 0 I I #
face $-1 $-1 $552 $33 $-1 $686 reversed single #
plane-surface $-1 7.479005371807772 -7.4790053718077738 20 0 0 1 1 0 0 forward_v I I I I #
face $-1 $590 $687 $35 $-1 $688 forward single #
loop $-1 $-1 $689 $407 #
plane-surface $-1 22.5 -27.5 0 0 -1 0 0 0 -1 forward_v I I I I #
coedge $-1 $690 $691 $692 $693 forward $408 $-1 #
coedge $-1 $694 $410 $691 $695 reversed $256 $-1 #
coedge $-1 $410 $694 $411 $575 forward $256 $-1 #
coedge $-1 $413 $692 $410 $573 reversed $268 $-1 #
edge $-1 $576 -49.375 $696 13.125 $410 $697 forward 7 unknown #
coedge $-1 $412 $411 $698 $699 reversed $150 $-1 #
edge $-1 $700 0 $576 10 $571 $701 forward 7 unknown #
vertex $-1 $575 $702 #
straight-curve $-1 -3.125 40 10 1 0 0 I I #
coedge $-1 $698 $419 $415 $579 forward $584 $-1 #
edge $703 $422 -27.375 $580 33.125 $415 $704 forward 7 unknown #
vertex $-1 $579 $705 #
straight-curve $-1 22.5 40 0 0 0 1 I I #
point $-1 22.5 40 10 #
coedge $-1 $419 $706 $424 $589 forward $584 $-1 #
loop $-1 $-1 $583 $597 #
convexity-sys-attrib $-1 $-1 $-1 $420 #
ellipse-curve $-1 20.5 -20.5 0 0 0 1 1.4142135623730949 -1.4142135623730949 0 1 I I #
point $-1 22.5 -20.5 0 #
coedge $-1 $425 $424 $707 $708 forward $426 $-1 #
edge $709 $710 -33.125 $428 27.375 $424 $711 forward 7 unknown #
face $-1 $432 $426 $35 $-1 $712 forward single #
point $-1 20.5 -22.5 0 #
coedge $-1 $692 $430 $689 $713 reversed $268 $-1 #
coedge $-1 $707 $714 $430 $594 forward $687 $-1 #
edge $-1 $715 -30.625 $595 -25.625 $593 $716 forward 7 unknown #
vertex $-1 $708 $717 #
straight-curve $-1 -6.875 -22.5 10 1 0 0 I I #
face $-1 $-1 $584 $35 $-1 $718 reversed single #
plane-surface $-1 8.0066766763051955 -8.0066766763051973 10 0 0 1 1 0 0 forward_v I I I I #
model_id-kcp-attrib $-1 $-1 $-1 $436 1 990663473 70 -1119485951 9 #
plane-surface $-1 -40 0 0 1 0 0 0 0 -1 forward_v I I I I #
coedge $-1 $466 $719 $438 $602 forward $474 $-1 #
edge $720 $606 -7.5 $603 2.5 $601 $721 forward 7 unknown #
vertex $-1 $602 $722 #
straight-curve $-1 -7.5 -27.5 0 -1 0 0 I I #
coedge $-1 $723 $441 $719 $724 reversed $449 $-1 #
vertex $-1 $724 $725 #
straight-curve $-1 10 -27.5 10 -1 0 0 I I #
point $-1 22.5 -27.5 10 #
point $-1 22.5 -27.5 0 #
coedge $-1 $448 $726 $727 $728 reversed $449 $-1 #
face $729 $730 $449 $10 $-1 $473 forward single #
coedge $-1 $727 $456 $451 $613 forward $458 $-1 #
edge $731 $616 -2.5 $614 7.5 $612 $732 forward 7 unknown #
vertex $-1 $613 $733 #
straight-curve $-1 27.5 -25 10 0 -1 0 I I #
vertex $-1 $461 $734 #
straight-curve $-1 27.5 -25 0 0 -1 0 I I #
coedge $-1 $457 $735 $736 $737 forward $458 $-1 #
convexity-sys-attrib $-1 $-1 $459 $290 #
attrib_edge_convexity-kcp-attrib $-1 $738 $-1 $461 1 #
straight-curve $-1 12.5 40 0 1 0 0 I I #
coedge $-1 $736 $739 $463 $623 forward $740 $-1 #
edge $-1 $741 -25 $625 35 $622 $742 forward 7 unknown #
attrib_edge_convexity-kcp-attrib $-1 $743 $-1 $464 1 #
vertex $-1 $737 $744 #
straight-curve $-1 -2.5 40 10 1 0 0 I I #
attrib_edge_convexity-kcp-attrib $-1 $745 $-1 $467 1 #
straight-curve $-1 -40 -12.5 0 0 1 0 I I #
coedge $-1 $746 $747 $468 $630 forward $748 $-1 #
edge $-1 $633 -35 $741 25 $629 $749 forward 7 unknown #
coedge $-1 $750 $469 $747 $751 forward $474 $-1 #
attrib_edge_convexity-kcp-attrib $-1 $752 $-1 $470 1 #
vertex $-1 $751 $753 #
straight-curve $-1 -40 -12.5 10 0 1 0 I I #
model_id-kcp-attrib $-1 $-1 $-1 $472 1 990663473 70 -1119485951 11 #
face $754 $755 $756 $10 $-1 $757 forward single #
plane-surface $-1 0 40 0 0 -1 0 0 0 -1 forward_v I I I I #
convexity-sys-attrib $-1 $-1 $475 $303 #
straight-curve $-1 -40 40 0 0 0 -1 I I #
point $-1 -40 -40 -20 #
straight-curve $-1 -40 0 -20 0 1 0 I I #
point $-1 -40 40 -20 #
coedge $-1 $508 $503 $499 $644 reversed $496 $-1 #
edge $-1 $645 -15 $505 25 $499 $758 forward 7 unknown #
vertex $-1 $511 $759 #
straight-curve $-1 10 -10 -20 0 0 1 I I #
point $-1 10 -10 20 #
straight-curve $-1 -5 30 -20 -1 0 0 I I #
point $-1 10 30 -20 #
straight-curve $-1 -5 -10 -20 1 0 0 I I #
vertex $-1 $528 $760 #
straight-curve $-1 10 5 -60 0 0 -1 I I #
convexity-sys-attrib $-1 $-1 $-1 $520 #
straight-curve $-1 5 5 -120 -1 0 0 I I #
point $-1 -10 5 -120 #
straight-curve $-1 10 -17.5 -100 0 1 0 I I #
point $-1 10 5 -100 #
convexity-sys-attrib $-1 $-1 $-1 $528 #
straight-curve $-1 10 0 -120 0 -1 0 I I #
plane-surface $-1 20 -20 10 -1 0 0 0 0 1 forward_v I I I I #
coedge $-1 $761 $536 $682 $762 reversed $382 $-1 #
coedge $-1 $536 $761 $537 $665 forward $382 $-1 #
edge $-1 $666 -34.375 $683 -24.375 $536 $763 forward 7 unknown #
coedge $-1 $538 $537 $764 $765 reversed $239 $-1 #
edge $-1 $766 0 $666 10 $662 $767 forward 7 unknown #
vertex $-1 $665 $768 #
straight-curve $-1 -6.875 -30 20 -1 0 0 I I #
coedge $-1 $764 $545 $541 $669 forward $552 $-1 #
edge $769 $548 -0.78539816339744828 $670 0.78539816339744828 $541 $770 forward 7 unknown #
vertex $-1 $669 $771 #
straight-curve $-1 20 -30 10 0 0 1 I I #
point $-1 20 -30 20 #
convexity-sys-attrib $-1 $-1 $-1 $546 #
straight-curve $-1 30 -8.125 10 0 -1 0 I I #
point $-1 30 -20 10 #
coedge $-1 $551 $772 $773 $774 forward $552 $-1 #
coedge $-1 $773 $560 $556 $678 reversed $534 $-1 #
edge $-1 $680 0 $562 10 $556 $775 forward 7 unknown #
convexity-sys-attrib $-1 $-1 $-1 $557 #
vertex $-1 $557 $776 #
straight-curve $-1 20 6.875 10 0 1 0 I I #
coedge $-1 $560 $773 $661 $762 forward $534 $-1 #
vertex $-1 $762 $777 #
straight-curve $-1 -6.875 -20 20 1 0 0 I I #
point $-1 20 -20 20 #
plane-surface $-1 7.479005371807772 -7.4790053718077738 10 0 0 1 1 0 0 forward_v I I I I #
loop $-1 $-1 $593 $566 #
plane-surface $-1 -40 -27.5 0 -1 0 0 0 0 1 forward_v I I I I #
coedge $-1 $778 $779 $592 $713 forward $567 $-1 #
coedge $-1 $780 $569 $779 $781 reversed $408 $-1 #
coedge $-1 $569 $780 $570 $695 forward $408 $-1 #
coedge $-1 $572 $592 $569 $693 reversed $268 $-1 #
edge $-1 $696 -0.78539816339744828 $782 0.78539816339744828 $569 $783 forward 7 unknown #
coedge $-1 $571 $570 $784 $785 reversed $256 $-1 #
edge $-1 $786 0 $696 10 $691 $787 forward 7 unknown #
vertex $-1 $695 $788 #
straight-curve $-1 27.5 -9.375 10 0 -1 0 I I #
coedge $-1 $784 $578 $574 $699 forward $584 $-1 #
edge $789 $580 25.625 $700 30.625 $574 $790 forward 7 unknown #
vertex $-1 $699 $791 #
straight-curve $-1 27.5 40 0 0 0 1 I I #
point $-1 27.5 40 10 #
convexity-sys-attrib $-1 $-1 $-1 $579 #
straight-curve $-1 22.5 6.875 0 0 1 0 I I #
point $-1 22.5 40 0 #
coedge $-1 $583 $792 $793 $794 forward $584 $-1 #
coedge $-1 $793 $593 $588 $708 reversed $687 $-1 #
edge $-1 $710 0 $595 10 $588 $795 forward 7 unknown #
convexity-sys-attrib $-1 $-1 $-1 $589 #
vertex $-1 $589 $796 #
straight-curve $-1 -6.875 -22.5 0 1 0 0 I I #
plane-surface $-1 -40 -22.5 0 0 1 0 0 0 1 forward_v I I I I #
edge $-1 $782 -13.125 $715 49.375 $689 $797 forward 7 unknown #
coedge $-1 $593 $793 $778 $798 forward $687 $-1 #
vertex $-1 $798 $799 #
straight-curve $-1 -40 3.125 10 0 1 0 I I #
point $-1 -40 -22.5 10 #
plane-surface $-1 8.0066766763051955 -8.0066766763051973 0 0 0 1 1 0 0 forward_v I I I I #
coedge $-1 $601 $800 $605 $724 forward $474 $-1 #
attrib_edge_convexity-kcp-attrib $-1 $801 $-1 $602 1 #
straight-curve $-1 -40 -27.5 2.5 0 0 -1 I I #
point $-1 -40 -27.5 0 #
coedge $-1 $802 $605 $803 $804 reversed $449 $-1 #
edge $805 $806 -17.5 $606 -15 $719 $634 forward 7 unknown #
point $-1 -40 -27.5 10 #
coedge $-1 $610 $802 $807 $808 reversed $449 $-1 #
coedge $-1 $809 $612 $610 $728 forward $458 $-1 #
edge $810 $614 30 $811 32.5 $727 $626 forward 7 unknown #
model_id-kcp-attrib $-1 $-1 $-1 $611 1 990663473 70 -1119485951 23 #
face $812 $813 $814 $10 $-1 $815 forward single #
attrib_edge_convexity-kcp-attrib $-1 $816 $-1 $613 1 #
straight-curve $-1 27.5 40 2.5 0 0 1 I I #
point $-1 27.5 40 10 #
point $-1 27.5 40 0 #
coedge $-1 $618 $817 $818 $819 reversed $458 $-1 #
coedge $-1 $820 $622 $618 $737 reversed $740 $-1 #
edge $821 $822 -12.5 $625 -2.5 $618 $823 forward 7 unknown #
convexity-sys-attrib $-1 $-1 $620 $461 #
coedge $-1 $622 $820 $746 $824 forward $740 $-1 #
loop $-1 $-1 $739 $825 #
vertex $-1 $630 $826 #
straight-curve $-1 20 5 10 0 1 0 I I #
convexity-sys-attrib $-1 $-1 $624 $464 #
point $-1 20 40 10 #
convexity-sys-attrib $-1 $-1 $627 $467 #
coedge $-1 $827 $629 $739 $824 reversed $748 $-1 #
coedge $-1 $629 $827 $631 $751 reversed $748 $-1 #
loop $-1 $-1 $746 $828 #
straight-curve $-1 -5 -20 10 1 0 0 I I #
coedge $-1 $829 $631 $830 $831 reversed $474 $-1 #
edge $832 $633 2.5 $833 12.5 $631 $834 forward 7 unknown #
convexity-sys-attrib $-1 $-1 $632 $470 #
point $-1 -40 -20 10 #
model_id-kcp-attrib $-1 $-1 $-1 $636 1 990663473 70 -1119485951 12 #
face $835 $836 $837 $10 $-1 $838 forward single #
loop $-1 $-1 $839 $636 #
plane-surface $-1 -20 40 10 1 0 0 0 0 -1 forward_v I I I I #
straight-curve $-1 10 5 -20 0 1 0 I I #
point $-1 10 -10 -20 #
point $-1 10 5 -120 #
coedge $-1 $662 $661 $772 $840 reversed $382 $-1 #
edge $-1 $841 0 $683 10 $682 $842 forward 7 unknown #
straight-curve $-1 -40 4.375 20 0 1 0 I I #
coedge $-1 $772 $668 $664 $765 forward $552 $-1 #
edge $843 $670 -26.875 $766 33.125 $664 $844 forward 7 unknown #
vertex $-1 $765 $845 #
straight-curve $-1 -40 -30 10 0 0 1 I I #
point $-1 -40 -30 20 #
convexity-sys-attrib $-1 $-1 $-1 $669 #
ellipse-curve $-1 20 -20 10 0 0 -1 7.0710678118654746 -7.0710678118654746 0 1 I I #
point $-1 20 -30 10 #
coedge $-1 $676 $764 $761 $840 forward $552 $-1 #
coedge $-1 $682 $677 $676 $774 reversed $534 $-1 #
edge $846 $841 -33.125 $680 26.875 $773 $847 forward 7 unknown #
straight-curve $-1 20 -20 10 0 0 1 I I #
point $-1 20 -20 10 #
point $-1 -40 -20 20 #
coedge $-1 $848 $689 $714 $798 reversed $567 $-1 #
coedge $-1 $689 $848 $690 $781 forward $567 $-1 #
coedge $-1 $691 $690 $849 $850 reversed $408 $-1 #
edge $-1 $851 0 $782 10 $779 $852 forward 7 unknown #
vertex $-1 $781 $853 #
ellipse-curve $-1 22.5 -22.5 10 0 0 -1 3.5355339059327373 -3.5355339059327373 0 1 I I #
coedge $-1 $849 $698 $694 $785 forward $584 $-1 #
edge $854 $700 -49.375 $786 13.125 $694 $855 forward 7 unknown #
vertex $-1 $785 $856 #
straight-curve $-1 27.5 -22.5 0 0 0 1 I I #
point $-1 27.5 -22.5 10 #
convexity-sys-attrib $-1 $-1 $-1 $699 #
straight-curve $-1 -3.125 40 0 1 0 0 I I #
point $-1 27.5 40 0 #
coedge $-1 $706 $849 $848 $857 forward $584 $-1 #
coedge $-1 $714 $707 $706 $794 reversed $687 $-1 #
edge $858 $859 -30.625 $710 -25.625 $793 $860 forward 7 unknown #
straight-curve $-1 -40 -22.5 0 0 0 1 I I #
point $-1 -40 -22.5 0 #
straight-curve $-1 9.375 -27.5 10 -1 0 0 I I #
edge $-1 $859 0 $715 10 $714 $861 forward 7 unknown #
point $-1 -40 -27.5 10 #
coedge $-1 $719 $862 $863 $864 forward $474 $-1 #
convexity-sys-attrib $-1 $-1 $720 $602 #
coedge $-1 $726 $723 $865 $866 forward $449 $-1 #
coedge $-1 $863 $867 $723 $804 forward $868 $-1 #
edge $-1 $869 -25 $806 35 $803 $870 forward 7 unknown #
attrib_edge_convexity-kcp-attrib $-1 $871 $-1 $724 1 #
vertex $-1 $724 $872 #
coedge $-1 $873 $874 $726 $808 forward $814 $-1 #
edge $-1 $811 -65 $875 -5 $807 $876 forward 7 unknown #
coedge $-1 $877 $727 $874 $878 forward $458 $-1 #
attrib_edge_convexity-kcp-attrib $-1 $879 $-1 $728 1 #
vertex $-1 $728 $880 #
model_id-kcp-attrib $-1 $-1 $-1 $730 1 990663473 70 -1119485951 24 #
face $881 $882 $883 $10 $-1 $884 forward single #
loop $-1 $-1 $873 $730 #
plane-surface $-1 30 -25 15 -1 0 0 0 0 1 forward_v I I I I #
convexity-sys-attrib $-1 $-1 $731 $613 #
coedge $-1 $735 $885 $886 $887 forward $458 $-1 #
coedge $-1 $888 $889 $735 $819 forward $883 $-1 #
edge $890 $822 -20 $891 0 $735 $892 forward 7 unknown #
coedge $-1 $739 $736 $889 $893 reversed $740 $-1 #
attrib_edge_convexity-kcp-attrib $-1 $894 $-1 $737 1 #
vertex $-1 $893 $895 #
straight-curve $-1 20 40 7.5 0 0 -1 I I #
edge $-1 $896 -5 $741 5 $746 $897 forward 7 unknown #
face $898 $828 $740 $10 $-1 $899 forward single #
point $-1 20 -20 10 #
coedge $-1 $747 $746 $900 $901 reversed $748 $-1 #
face $902 $611 $748 $10 $-1 $903 forward single #
coedge $-1 $904 $750 $905 $906 forward $474 $-1 #
coedge $-1 $900 $907 $750 $831 forward $883 $-1 #
edge $908 $909 -40 $833 20 $750 $910 forward 7 unknown #
attrib_edge_convexity-kcp-attrib $-1 $911 $-1 $751 1 #
vertex $-1 $831 $912 #
straight-curve $-1 -40 -20 7.5 0 0 1 I I #
model_id-kcp-attrib $-1 $-1 $-1 $755 1 990663473 70 -1119485951 13 #
face $913 $914 $915 $10 $-1 $916 forward single #
loop $-1 $-1 $917 $755 #
plane-surface $-1 -10 40 0 0 0 1 1 0 0 forward_v I I I I #
coedge $-1 $918 $919 $920 $921 reversed $756 $-1 #
edge $922 $766 -34.375 $841 -24.375 $761 $923 forward 7 unknown #
vertex $-1 $840 $924 #
straight-curve $-1 -40 -20 10 0 0 1 I I #
convexity-sys-attrib $-1 $-1 $-1 $765 #
straight-curve $-1 -6.875 -30 10 -1 0 0 I I #
point $-1 -40 -30 10 #
convexity-sys-attrib $-1 $-1 $-1 $774 #
straight-curve $-1 -6.875 -20 10 1 0 0 I I #
coedge $-1 $779 $778 $792 $857 reversed $567 $-1 #
coedge $-1 $792 $784 $780 $850 forward $584 $-1 #
edge $925 $786 -0.78539816339744828 $851 0.78539816339744828 $780 $926 forward 7 unknown #
vertex $-1 $850 $927 #
straight-curve $-1 22.5 -27.5 0 0 0 1 I I #
point $-1 22.5 -27.5 10 #
convexity-sys-attrib $-1 $-1 $-1 $785 #
straight-curve $-1 27.5 -9.375 0 0 -1 0 I I #
point $-1 27.5 -22.5 0 #
edge $928 $851 -13.125 $859 49.375 $848 $929 forward 7 unknown #
convexity-sys-attrib $-1 $-1 $-1 $794 #
vertex $-1 $857 $930 #
straight-curve $-1 -40 3.125 0 0 1 0 I I #
straight-curve $-1 -40 -27.5 0 0 0 1 I I #
coedge $-1 $800 $931 $932 $933 reversed $474 $-1 #
coedge $-1 $934 $803 $800 $864 reversed $868 $-1 #
edge $935 $936 -12.5 $806 -2.5 $800 $937 forward 7 unknown #
coedge $-1 $938 $939 $802 $866 reversed $940 $-1 #
edge $-1 $869 -0.78539816339744828 $875 0.78539816339744828 $802 $941 forward 7 unknown #
coedge $-1 $803 $934 $938 $942 reversed $868 $-1 #
loop $-1 $-1 $867 $943 #
vertex $-1 $866 $944 #
straight-curve $-1 -5 -30 10 -1 0 0 I I #
convexity-sys-attrib $-1 $-1 $805 $724 #
point $-1 -40 -30 10 #
coedge $-1 $945 $807 $939 $946 reversed $814 $-1 #
coedge $-1 $807 $945 $809 $878 reversed $814 $-1 #
vertex $-1 $808 $947 #
straight-curve $-1 30 -25 10 0 -1 0 I I #
coedge $-1 $948 $809 $949 $950 reversed $458 $-1 #
edge $951 $811 2.5 $952 12.5 $809 $953 forward 7 unknown #
convexity-sys-attrib $-1 $-1 $810 $728 #
point $-1 30 40 10 #
model_id-kcp-attrib $-1 $-1 $-1 $813 1 990663473 70 -1119485951 25 #
face $954 $955 $956 $10 $-1 $884 forward single #
loop $-1 $-1 $888 $813 #
plane-surface $-1 0 0 20 0 0 1 1 0 0 forward_v I I I I #
coedge $-1 $817 $920 $917 $957 forward $458 $-1 #
coedge $-1 $958 $959 $817 $887 reversed $915 $-1 #
edge $960 $961 -5 $891 15 $817 $962 forward 7 unknown #
coedge $-1 $963 $818 $959 $964 forward $883 $-1 #
coedge $-1 $818 $900 $820 $893 forward $883 $-1 #
attrib_edge_convexity-kcp-attrib $-1 $965 $-1 $819 1 #
vertex $-1 $819 $966 #
straight-curve $-1 0 40 20 -1 0 0 I I #
edge $967 $896 -22.5 $822 37.5 $889 $968 forward 7 unknown #
convexity-sys-attrib $-1 $-1 $821 $737 #
point $-1 20 40 20 #
vertex $-1 $893 $969 #
straight-curve $-1 20 -20 15 0 0 -1 I I #
model_id-kcp-attrib $-1 $-1 $-1 $825 1 990663473 70 -1119485951 21 #
plane-surface $-1 20 5 15 1 0 0 0 0 -1 forward_v I I I I #
coedge $-1 $889 $830 $827 $901 forward $883 $-1 #
edge $970 $833 -37.5 $896 22.5 $900 $971 forward 7 unknown #
model_id-kcp-attrib $-1 $-1 $-1 $828 1 990663473 70 -1119485951 22 #
plane-surface $-1 -5 -20 15 0 -1 0 0 0 -1 forward_v I I I I #
coedge $-1 $931 $829 $972 $973 reversed $474 $-1 #
coedge $-1 $974 $975 $829 $906 reversed $458 $-1 #
edge $976 $909 -20 $977 20 $905 $978 forward 7 unknown #
coedge $-1 $830 $979 $974 $980 forward $883 $-1 #
attrib_edge_convexity-kcp-attrib $-1 $981 $-1 $831 1 #
vertex $-1 $980 $982 #
straight-curve $-1 -40 0 20 0 -1 0 I I #
convexity-sys-attrib $-1 $-1 $832 $751 #
point $-1 -40 -20 20 #
model_id-kcp-attrib $-1 $-1 $-1 $836 1 990663473 70 -1119485951 14 #
face $983 $984 $985 $10 $-1 $986 forward single #
loop $-1 $-1 $886 $836 #
plane-surface $-1 0 40 10 -1 0 0 0 0 1 forward_v I I I I #
coedge $-1 $987 $988 $885 $957 reversed $837 $-1 #
coedge $-1 $989 $839 $979 $990 reversed $756 $-1 #
coedge $-1 $839 $989 $987 $991 forward $756 $-1 #
coedge $-1 $885 $974 $839 $921 forward $458 $-1 #
edge $992 $993 -15 $994 5 $920 $995 forward 7 unknown #
convexity-sys-attrib $-1 $-1 $-1 $840 #
straight-curve $-1 -40 4.375 10 0 1 0 I I #
point $-1 -40 -20 10 #
convexity-sys-attrib $-1 $-1 $-1 $850 #
ellipse-curve $-1 22.5 -22.5 0 0 0 -1 3.5355339059327373 -3.5355339059327373 0 1 I I #
point $-1 22.5 -27.5 0 #
convexity-sys-attrib $-1 $-1 $-1 $857 #
straight-curve $-1 9.375 -27.5 0 -1 0 0 I I #
point $-1 -40 -27.5 0 #
coedge $-1 $862 $904 $996 $997 reversed $474 $-1 #
coedge $-1 $998 $999 $862 $933 forward $956 $-1 #
edge $1000 $936 30 $1001 40 $862 $910 forward 7 unknown #
coedge $-1 $867 $863 $999 $1002 reversed $868 $-1 #
attrib_edge_convexity-kcp-attrib $-1 $1003 $-1 $864 1 #
vertex $-1 $864 $1004 #
straight-curve $-1 -40 -30 7.5 0 0 -1 I I #
coedge $-1 $1005 $865 $867 $942 forward $940 $-1 #
coedge $-1 $865 $1005 $873 $946 forward $940 $-1 #
loop $-1 $-1 $939 $1006 #
ellipse-curve $-1 20 -20 10 0 0 1 7.0710678118654746 -7.0710678118654746 0 1 I I #
edge $-1 $869 -5 $1007 5 $867 $1008 forward 7 unknown #
face $1009 $825 $868 $10 $-1 $1010 forward single #
point $-1 20 -30 10 #
coedge $-1 $874 $873 $1011 $1012 reversed $814 $-1 #
edge $-1 $1013 -5 $875 5 $873 $1014 forward 7 unknown #
point $-1 30 -20 10 #
coedge $-1 $975 $877 $1015 $1016 forward $458 $-1 #
coedge $-1 $1011 $1017 $877 $950 forward $956 $-1 #
edge $1018 $1019 -40 $952 -30 $877 $892 forward 7 unknown #
attrib_edge_convexity-kcp-attrib $-1 $1020 $-1 $878 1 #
vertex $-1 $950 $1021 #
straight-curve $-1 30 40 7.5 0 0 1 I I #
model_id-kcp-attrib $-1 $-1 $-1 $882 1 990663473 70 -1119485951 26 #
face $1022 $1023 $1024 $10 $-1 $1025 reversed single #
loop $-1 $-1 $1011 $882 #
edge $1026 $994 -15 $961 5 $885 $1027 forward 7 unknown #
coedge $-1 $1028 $886 $988 $1029 forward $915 $-1 #
coedge $-1 $886 $1028 $888 $964 reversed $915 $-1 #
attrib_edge_convexity-kcp-attrib $-1 $1030 $-1 $887 1 #
vertex $-1 $957 $1031 #
straight-curve $-1 0 40 5 0 0 1 I I #
coedge $-1 $1032 $888 $1033 $1034 forward $883 $-1 #
edge $1035 $891 -20 $1036 -10 $888 $1037 forward 7 unknown #
convexity-sys-attrib $-1 $-1 $890 $819 #
point $-1 0 40 20 #
attrib_edge_convexity-kcp-attrib $-1 $1038 $-1 $893 1 #
straight-curve $-1 20 2.5 20 0 1 0 I I #
point $-1 20 -20 20 #
attrib_edge_convexity-kcp-attrib $-1 $1039 $-1 $901 1 #
straight-curve $-1 -2.5 -20 20 1 0 0 I I #
coedge $-1 $1040 $1041 $904 $973 forward $1042 $-1 #
edge $1043 $1044 -40 $977 40 $904 $1045 forward 7 unknown #
coedge $-1 $920 $905 $907 $980 reversed $458 $-1 #
coedge $-1 $905 $948 $1040 $1046 reversed $458 $-1 #
attrib_edge_convexity-kcp-attrib $-1 $1047 $-1 $906 1 #
vertex $-1 $1046 $1048 #
straight-curve $-1 -40 40 0 0 0 -1 I I #
coedge $-1 $907 $1049 $918 $990 forward $883 $-1 #
edge $1050 $993 20 $909 40 $974 $892 forward 7 unknown #
convexity-sys-attrib $-1 $-1 $908 $831 #
point $-1 -40 40 20 #
model_id-kcp-attrib $-1 $-1 $-1 $914 1 990663473 70 -1119485951 15 #
face $1051 $1052 $1053 $10 $-1 $1054 forward single #
loop $-1 $-1 $1055 $914 #
plane-surface $-1 -10 30 0 0 -1 0 0 0 -1 forward_v I I I I #
coedge $-1 $1056 $917 $919 $991 reversed $837 $-1 #
coedge $-1 $917 $1056 $958 $1029 reversed $837 $-1 #
coedge $-1 $919 $918 $1057 $1058 reversed $756 $-1 #
edge $1059 $1060 10 $993 20 $979 $1061 forward 7 unknown #
edge $-1 $1062 -10 $994 0 $919 $1063 forward 7 unknown #
attrib_edge_convexity-kcp-attrib $-1 $1064 $-1 $921 1 #
vertex $-1 $921 $1065 #
vertex $-1 $957 $1066 #
straight-curve $-1 -20 40 5 0 0 -1 I I #
coedge $-1 $1067 $1068 $931 $997 forward $1069 $-1 #
edge $1070 $1001 -20 $1044 20 $931 $1071 forward 7 unknown #
coedge $-1 $1017 $932 $1068 $1072 forward $956 $-1 #
coedge $-1 $932 $1073 $934 $1002 forward $956 $-1 #
attrib_edge_convexity-kcp-attrib $-1 $1074 $-1 $933 1 #
vertex $-1 $933 $1075 #
edge $-1 $1007 -22.5 $936 37.5 $999 $1076 forward 7 unknown #
convexity-sys-attrib $-1 $-1 $935 $864 #
point $-1 -40 -30 20 #
coedge $-1 $939 $938 $1073 $1077 reversed $940 $-1 #
face $1078 $943 $940 $10 $-1 $1079 forward single #
vertex $-1 $1002 $1080 #
straight-curve $-1 20 -30 15 0 0 1 F -36 F 36 #
model_id-kcp-attrib $-1 $-1 $-1 $943 1 990663473 70 -1119485951 20 #
plane-surface $-1 -5 -30 15 0 1 0 0 0 1 forward_v I I I I #
coedge $-1 $1073 $949 $945 $1012 forward $956 $-1 #
edge $-1 $952 -52.5 $1013 7.5 $1011 $1081 forward 7 unknown #
vertex $-1 $1012 $1082 #
straight-curve $-1 30 -20 15 0 0 -1 F -36 F 36 #
coedge $-1 $1083 $1084 $948 $1016 reversed $1085 $-1 #
edge $1086 $1019 -20 $1087 20 $1015 $1088 forward 7 unknown #
coedge $-1 $949 $998 $1083 $1089 forward $956 $-1 #
attrib_edge_convexity-kcp-attrib $-1 $1090 $-1 $950 1 #
vertex $-1 $1089 $1091 #
convexity-sys-attrib $-1 $-1 $951 $878 #
point $-1 30 40 20 #
model_id-kcp-attrib $-1 $-1 $-1 $955 1 990663473 70 -1119485951 27 #
face $1092 $1093 $1069 $10 $-1 $1094 reversed single #
loop $-1 $1042 $1095 $955 #
plane-surface $-1 0 0 -20 0 0 1 1 0 0 forward_v I I I I #
attrib_edge_convexity-kcp-attrib $-1 $1096 $-1 $957 1 #
straight-curve $-1 -5 40 0 1 0 0 I I #
coedge $-1 $959 $958 $1055 $1097 reversed $915 $-1 #
edge $-1 $961 0 $1098 10 $958 $1099 forward 7 unknown #
convexity-sys-attrib $-1 $-1 $960 $887 #
point $-1 0 40 0 #
coedge $-1 $1100 $963 $1101 $1102 forward $883 $-1 #
coedge $-1 $1055 $1103 $963 $1034 reversed $985 $-1 #
edge $1104 $1036 5 $1105 15 $963 $1106 forward 7 unknown #
attrib_edge_convexity-kcp-attrib $-1 $1107 $-1 $964 1 #
vertex $-1 $964 $1108 #
straight-curve $-1 0 20 20 0 -1 0 I I #
convexity-sys-attrib $-1 $-1 $967 $893 #
convexity-sys-attrib $-1 $-1 $970 $901 #
coedge $-1 $1109 $972 $975 $1046 forward $1042 $-1 #
coedge $-1 $972 $1109 $1067 $1110 forward $1042 $-1 #
loop $-1 $-1 $1109 $955 #
attrib_edge_convexity-kcp-attrib $-1 $1111 $-1 $973 1 #
vertex $-1 $973 $1112 #
straight-curve $-1 -40 0 -20 0 1 0 I I #
edge $1113 $977 -40 $1087 40 $975 $1114 forward 7 unknown #
convexity-sys-attrib $-1 $-1 $976 $906 #
point $-1 -40 40 -20 #
coedge $-1 $979 $1115 $1116 $1117 forward $883 $-1 #
attrib_edge_convexity-kcp-attrib $-1 $1118 $-1 $980 1 #
model_id-kcp-attrib $-1 $-1 $-1 $984 1 990663473 70 -1119485951 16 #
face $1119 $1120 $1121 $10 $-1 $1122 forward single #
loop $-1 $-1 $1123 $984 #
plane-surface $-1 -10 -10 0 0 1 0 0 0 1 forward_v I I I I #
coedge $-1 $1124 $1033 $1028 $1097 forward $985 $-1 #
coedge $-1 $988 $987 $1124 $1125 reversed $837 $-1 #
coedge $-1 $1116 $1124 $989 $1058 forward $985 $-1 #
edge $-1 $1062 -5 $1060 15 $1057 $1126 forward 7 unknown #
attrib_edge_convexity-kcp-attrib $-1 $1127 $-1 $990 1 #
vertex $-1 $1117 $1128 #
straight-curve $-1 -20 20 20 0 1 0 I I #
vertex $-1 $1125 $1129 #
straight-curve $-1 -20 40 0 0 1 0 I I #
convexity-sys-attrib $-1 $-1 $992 $921 #
point $-1 -20 40 20 #
point $-1 -20 40 0 #
coedge $-1 $1130 $996 $1041 $1110 reversed $1069 $-1 #
coedge $-1 $996 $1130 $998 $1072 reversed $1069 $-1 #
loop $-1 $-1 $996 $1023 #
attrib_edge_convexity-kcp-attrib $-1 $1131 $-1 $997 1 #
straight-curve $-1 -40 -40 0 0 0 -1 I I #
edge $-1 $1001 -40 $1132 40 $1068 $1133 forward 7 unknown #
coedge $-1 $999 $1011 $1005 $1077 forward $956 $-1 #
convexity-sys-attrib $-1 $-1 $1000 $933 #
point $-1 -40 -40 20 #
straight-curve $-1 -2.5 -30 20 -1 0 0 I I #
edge $-1 $1013 -0.78539816339744828 $1007 0.78539816339744828 $1073 $1134 forward 7 unknown #
model_id-kcp-attrib $-1 $-1 $-1 $1006 1 990663473 70 -1119485951 19 #
cone-surface $-1 20 -20 15 0 0 1 7.0710678118654746 -7.0710678118654746 0 1 I I 0 -1 10 forward I I I I #
point $-1 20 -30 20 #
straight-curve $-1 30 -12.5 20 0 -1 0 I I #
point $-1 30 -20 20 #
coedge $-1 $1135 $1015 $1017 $1089 reversed $1085 $-1 #
coedge $-1 $1015 $1135 $1109 $1136 reversed $1085 $-1 #
loop $-1 $-1 $1135 $1093 #
attrib_edge_convexity-kcp-attrib $-1 $1137 $-1 $1016 1 #
vertex $-1 $1136 $1138 #
straight-curve $-1 40 40 0 0 0 -1 I I #
edge $-1 $1132 -40 $1019 40 $1083 $1139 forward 7 unknown #
convexity-sys-attrib $-1 $-1 $1018 $950 #
point $-1 40 40 20 #
model_id-kcp-attrib $-1 $-1 $-1 $1023 1 990663473 70 -1119485951 28 #
face $1140 $-1 $1085 $10 $-1 $1141 reversed single #
plane-surface $-1 0 -40 0 0 1 0 0 0 1 forward_v I I I I #
coedge $-1 $1142 $1143 $1144 $1145 forward $1024 $-1 #
convexity-sys-attrib $-1 $-1 $1026 $957 #
edge $-1 $1036 -15 $1098 5 $1055 $1146 forward 7 unknown #
vertex $-1 $1125 $1147 #
straight-curve $-1 0 40 0 0 -1 0 I I #
coedge $-1 $1115 $1032 $1148 $1149 forward $883 $-1 #
coedge $-1 $1150 $1151 $1032 $1102 reversed $1152 $-1 #
edge $1153 $1105 -25 $1154 15 $1032 $1155 forward 7 unknown #
coedge $-1 $1033 $1156 $1150 $1157 reversed $985 $-1 #
attrib_edge_convexity-kcp-attrib $-1 $1158 $-1 $1034 1 #
vertex $-1 $1034 $1159 #
straight-curve $-1 -5 30 20 1 0 0 I I #
convexity-sys-attrib $-1 $-1 $1035 $964 #
point $-1 0 30 20 #
coedge $-1 $1041 $1040 $1084 $1136 forward $1042 $-1 #
edge $-1 $1160 -40 $1044 40 $1067 $1161 forward 7 unknown #
convexity-sys-attrib $-1 $-1 $1043 $973 #
point $-1 -40 -40 -20 #
attrib_edge_convexity-kcp-attrib $-1 $1162 $-1 $1046 1 #
straight-curve $-1 0 40 -20 1 0 0 I I #
coedge $-1 $1049 $1100 $1163 $1164 forward $883 $-1 #
coedge $-1 $1165 $1057 $1049 $1117 reversed $985 $-1 #
edge $1166 $1167 -25 $1060 -15 $1049 $1106 forward 7 unknown #
convexity-sys-attrib $-1 $-1 $1050 $980 #
model_id-kcp-attrib $-1 $-1 $-1 $1052 1 990663473 70 -1119485951 17 #
face $1168 $1006 $1152 $10 $-1 $1169 forward single #
loop $-1 $-1 $1170 $1052 #
plane-surface $-1 -30 10 0 1 0 0 0 0 -1 forward_v I I I I #
coedge $-1 $1148 $1144 $1171 $1172 reversed $1053 $-1 #
coedge $-1 $1057 $1055 $1056 $1125 forward $985 $-1 #
edge $-1 $1098 -10 $1062 10 $1124 $1173 forward 7 unknown #
straight-curve $-1 -20 30 5 0 0 1 I I #
convexity-sys-attrib $-1 $-1 $1059 $990 #
point $-1 -20 30 20 #
point $-1 -20 30 0 #
coedge $-1 $1068 $1067 $1135 $1174 reversed $1069 $-1 #
convexity-sys-attrib $-1 $-1 $1070 $997 #
vertex $-1 $1089 $1175 #
straight-curve $-1 0 -40 20 1 0 0 I I #
ellipse-curve $-1 20 -20 20 0 0 -1 7.0710678118654746 -7.0710678118654746 0 1 I I #
coedge $-1 $1084 $1083 $1130 $1174 forward $1085 $-1 #
edge $-1 $1087 -40 $1160 40 $1084 $1176 forward 7 unknown #
convexity-sys-attrib $-1 $-1 $1086 $1016 #
point $-1 40 40 -20 #
straight-curve $-1 40 0 20 0 1 0 I I #
model_id-kcp-attrib $-1 $-1 $-1 $1093 1 990663473 70 -1119485951 29 #
plane-surface $-1 40 0 0 -1 0 0 0 0 1 forward_v I I I I #
coedge $-1 $1177 $1095 $1178 $1179 forward $1024 $-1 #
coedge $-1 $1095 $1177 $1180 $1181 forward $1024 $-1 #
coedge $-1 $1123 $1182 $1095 $1145 reversed $1053 $-1 #
edge $-1 $1183 -25 $1184 15 $1095 $1185 forward 7 unknown #
straight-curve $-1 0 30 5 0 0 -1 I I #
point $-1 0 30 0 #
coedge $-1 $1182 $1123 $1100 $1149 reversed $1053 $-1 #
edge $1186 $1154 -15 $1187 25 $1100 $1188 forward 7 unknown #
coedge $-1 $1178 $1101 $1103 $1157 forward $1152 $-1 #
coedge $-1 $1101 $1178 $1182 $1189 reversed $1152 $-1 #
loop $-1 $-1 $1151 $1120 #
attrib_edge_convexity-kcp-attrib $-1 $1190 $-1 $1102 1 #
vertex $-1 $1149 $1191 #
straight-curve $-1 10 5 20 0 -1 0 I I #
coedge $-1 $1103 $1165 $1177 $1192 reversed $985 $-1 #
edge $-1 $1105 -20 $1193 20 $1150 $1194 forward 7 unknown #
convexity-sys-attrib $-1 $-1 $1104 $1034 #
point $-1 10 30 20 #
vertex $-1 $1174 $1195 #
straight-curve $-1 0 -40 -20 -1 0 0 I I #
convexity-sys-attrib $-1 $-1 $1113 $1046 #
coedge $-1 $1171 $1170 $1115 $1164 reversed $1121 $-1 #
edge $1196 $1187 -15 $1167 25 $1115 $1197 forward 7 unknown #
coedge $-1 $1156 $1116 $1170 $1198 forward $985 $-1 #
attrib_edge_convexity-kcp-attrib $-1 $1199 $-1 $1117 1 #
vertex $-1 $1164 $1200 #
model_id-kcp-attrib $-1 $-1 $-1 $1120 1 990663473 70 -1119485951 18 #
plane-surface $-1 10 10 0 -1 0 0 0 0 1 forward_v I I I I #
coedge $-1 $1163 $1180 $1165 $1198 reversed $1121 $-1 #
coedge $-1 $1180 $1163 $1123 $1172 forward $1121 $-1 #
edge $-1 $1187 -20 $1183 20 $1171 $1201 forward 7 unknown #
straight-curve $-1 -10 30 0 -1 0 0 I I #
edge $-1 $1132 -20 $1160 20 $1135 $1202 forward 7 unknown #
point $-1 40 -40 20 #
straight-curve $-1 40 0 -20 0 -1 0 I I #
coedge $-1 $1143 $1142 $1156 $1192 forward $1024 $-1 #
coedge $-1 $1151 $1150 $1142 $1179 reversed $1152 $-1 #
edge $-1 $1184 -15 $1193 25 $1142 $1203 forward 7 unknown #
coedge $-1 $1170 $1171 $1143 $1181 reversed $1121 $-1 #
edge $-1 $1204 -25 $1183 15 $1143 $1205 forward 7 unknown #
coedge $-1 $1144 $1148 $1151 $1189 forward $1053 $-1 #
vertex $-1 $1145 $1206 #
vertex $-1 $1145 $1207 #
straight-curve $-1 -5 -10 -20 1 0 0 I I #
attrib_edge_convexity-kcp-attrib $-1 $1208 $-1 $1149 1 #
vertex $-1 $1149 $1209 #
straight-curve $-1 -5 -10 20 -1 0 0 I I #
edge $-1 $1154 -20 $1184 20 $1151 $1210 forward 7 unknown #
convexity-sys-attrib $-1 $-1 $1153 $1102 #
point $-1 10 -10 20 #
edge $-1 $1193 -15 $1204 25 $1177 $1211 forward 7 unknown #
vertex $-1 $1192 $1212 #
straight-curve $-1 10 30 0 0 0 -1 I I #
point $-1 40 -40 -20 #
attrib_edge_convexity-kcp-attrib $-1 $1213 $-1 $1164 1 #
straight-curve $-1 -30 5 20 0 1 0 I I #
edge $-1 $1167 -20 $1204 20 $1165 $1214 forward 7 unknown #
convexity-sys-attrib $-1 $-1 $1166 $1117 #
point $-1 -30 30 20 #
straight-curve $-1 -30 -10 0 0 0 -1 I I #
straight-curve $-1 40 -40 0 0 0 -1 I I #
straight-curve $-1 10 5 -20 0 1 0 I I #
vertex $-1 $1181 $1215 #
straight-curve $-1 -30 5 -20 0 -1 0 I I #
point $-1 -30 -10 -20 #
point $-1 10 -10 -20 #
convexity-sys-attrib $-1 $-1 $1186 $1149 #
point $-1 -30 -10 20 #
straight-curve $-1 10 -10 0 0 0 -1 I I #
straight-curve $-1 -5 30 -20 -1 0 0 I I #
point $-1 10 30 -20 #
convexity-sys-attrib $-1 $-1 $1196 $1164 #
straight-curve $-1 -30 30 0 0 0 -1 I I #
point $-1 -30 30 -20 #
End-of-ACIS-data 