600 0 1 0           
81 GICL ACIS Healer - Source: /gicl/data5/repository/Heriot_Watt/ex47/ex47.sat - 6 0 18 ACIS 6.0.3 Solaris 24 Sat Apr 13 23:38:18 2002 
1 9.999999999999999547e-07 1.000000000000000036e-10 
body $-1 $1 $-1 $-1 #
lump $-1 $-1 $2 $0 #
shell $-1 $-1 $-1 $3 $-1 $1 #
face $-1 $4 $5 $2 $-1 $6 forward single #
face $-1 $7 $8 $2 $-1 $9 forward single #
loop $-1 $-1 $10 $3 #
cone-surface $-1 20.5 -20.5 5 0 0 1 1.414213562373094923 -1.414213562373094923 0 1 I I 0 1 1.999999999999999778 forward I I I I #
face $-1 $11 $12 $2 $-1 $13 reversed single #
loop $-1 $-1 $14 $4 #
plane-surface $-1 22.5 7.5 5 1 0 0 0 0 -1 forward_v I I I I #
coedge $-1 $15 $16 $17 $18 forward $5 $-1 #
face $-1 $19 $20 $2 $-1 $21 forward single #
loop $-1 $-1 $22 $7 #
cone-surface $-1 22.5 -22.5 5 0 0 -1 3.535533905932737309 -3.535533905932737309 0 1 I I 0 1 5 forward I I I I #
coedge $-1 $23 $24 $25 $26 reversed $8 $-1 #
coedge $-1 $25 $10 $27 $28 reversed $5 $-1 #
coedge $-1 $10 $25 $29 $30 forward $5 $-1 #
coedge $-1 $31 $32 $10 $18 reversed $33 $-1 #
edge $-1 $34 -5 $35 5 $17 $36 forward 7 unknown #
face $-1 $37 $33 $2 $-1 $38 forward single #
loop $-1 $-1 $39 $11 #
plane-surface $-1 25 -27.5 5 0 1 0 0 0 1 forward_v I I I I #
coedge $-1 $40 $41 $42 $43 reversed $12 $-1 #
coedge $-1 $44 $14 $45 $46 forward $8 $-1 #
coedge $-1 $14 $44 $47 $48 reversed $8 $-1 #
coedge $-1 $16 $15 $14 $26 forward $5 $-1 #
edge $-1 $49 -5 $50 5 $14 $51 forward 7 unknown #
coedge $-1 $52 $45 $15 $28 forward $53 $-1 #
edge $-1 $49 -0.785398163397448279 $35 0.785398163397448279 $27 $54 forward 7 unknown #
coedge $-1 $47 $55 $16 $30 reversed $56 $-1 #
edge $-1 $50 -0.785398163397448279 $34 0.785398163397448279 $29 $57 forward 7 unknown #
coedge $-1 $58 $17 $55 $59 reversed $33 $-1 #
coedge $-1 $17 $58 $52 $60 forward $33 $-1 #
loop $-1 $-1 $17 $19 #
vertex $-1 $59 $61 #
vertex $-1 $60 $62 #
straight-curve $-1 20.5 -22.5 5 0 0 -1 F -11.19999999999999929 F 11.19999999999999929 #
face $-1 $63 $53 $2 $-1 $64 forward single #
plane-surface $-1 -7.5 -22.5 5 0 -1 0 0 0 -1 forward_v I I I I #
coedge $-1 $65 $66 $67 $68 forward $20 $-1 #
coedge $-1 $67 $22 $69 $70 reversed $12 $-1 #
coedge $-1 $22 $67 $71 $72 reversed $12 $-1 #
coedge $-1 $73 $74 $22 $43 forward $75 $-1 #
edge $-1 $76 -5 $77 5 $42 $78 forward 7 unknown #
coedge $-1 $24 $23 $79 $80 reversed $8 $-1 #
coedge $-1 $27 $81 $23 $46 reversed $53 $-1 #
edge $-1 $49 -28 $82 32.5 $23 $83 forward 7 unknown #
coedge $-1 $84 $29 $24 $48 forward $56 $-1 #
edge $-1 $50 -11.75 $85 48.75 $47 $86 forward 7 unknown #
vertex $-1 $28 $87 #
vertex $-1 $30 $88 #
straight-curve $-1 22.5 -20.5 5 0 0 1 F -11.19999999999999929 F 11.19999999999999929 #
coedge $-1 $89 $27 $32 $60 reversed $53 $-1 #
loop $-1 $-1 $69 $37 #
ellipse-curve $-1 20.5 -20.5 0 0 0 -1 1.414213562373094923 -1.414213562373094923 0 1 I I #
coedge $-1 $29 $90 $31 $59 forward $56 $-1 #
loop $-1 $-1 $29 $91 #
ellipse-curve $-1 20.5 -20.5 10 0 0 -1 1.414213562373094923 -1.414213562373094923 0 1 I I #
coedge $-1 $32 $31 $92 $93 reversed $33 $-1 #
edge $-1 $94 -33.75 $34 26.75 $55 $95 forward 7 unknown #
edge $-1 $96 -32.5 $35 28 $32 $97 forward 7 unknown #
point $-1 20.5 -22.5 10 #
point $-1 20.5 -22.5 0 #
face $-1 $98 $75 $2 $-1 $99 forward single #
plane-surface $-1 25 -25 0 0 0 1 1 0 0 forward_v I I I I #
coedge $-1 $100 $39 $101 $102 forward $20 $-1 #
coedge $-1 $39 $100 $103 $104 reversed $20 $-1 #
coedge $-1 $41 $40 $39 $68 reversed $12 $-1 #
edge $-1 $105 -5 $106 5 $39 $107 forward 7 unknown #
coedge $-1 $108 $101 $40 $70 forward $53 $-1 #
edge $-1 $106 -0.785398163397448279 $76 0.785398163397448279 $69 $109 forward 7 unknown #
coedge $-1 $103 $110 $41 $72 forward $111 $-1 #
edge $-1 $77 -0.785398163397448279 $105 0.785398163397448279 $71 $112 forward 7 unknown #
coedge $-1 $113 $42 $110 $114 reversed $75 $-1 #
coedge $-1 $42 $113 $108 $115 forward $75 $-1 #
loop $-1 $-1 $42 $63 #
vertex $-1 $115 $116 #
vertex $-1 $72 $117 #
straight-curve $-1 27.5 -22.5 5 0 0 1 F -20.5 F 20.5 #
coedge $-1 $118 $119 $44 $80 forward $120 $-1 #
edge $-1 $85 -7.5 $82 2.5 $79 $121 forward 7 unknown #
coedge $-1 $45 $108 $118 $122 reversed $53 $-1 #
vertex $-1 $80 $123 #
straight-curve $-1 22.5 7.5 0 0 1 0 I I #
coedge $-1 $124 $47 $119 $125 reversed $56 $-1 #
vertex $-1 $125 $126 #
straight-curve $-1 22.5 -8.75 10 0 1 0 I I #
point $-1 22.5 -20.5 0 #
point $-1 22.5 -20.5 10 #
coedge $-1 $101 $52 $127 $128 reversed $53 $-1 #
coedge $-1 $55 $129 $130 $131 reversed $56 $-1 #
face $-1 $132 $56 $2 $-1 $133 forward single #
coedge $-1 $130 $127 $58 $93 forward $134 $-1 #
edge $-1 $96 -2.5 $94 7.5 $92 $135 forward 7 unknown #
vertex $-1 $59 $136 #
straight-curve $-1 -6.25 -22.5 10 1 0 0 I I #
vertex $-1 $93 $137 #
straight-curve $-1 -7.5 -22.5 0 1 0 0 I I #
face $-1 $91 $134 $2 $-1 $138 reversed single #
plane-surface $-1 27.5 -25 5 -1 0 0 0 0 1 forward_v I I I I #
coedge $-1 $66 $65 $139 $140 reversed $20 $-1 #
coedge $-1 $69 $89 $65 $102 reversed $53 $-1 #
edge $-1 $106 -30 $141 32.5 $65 $142 forward 7 unknown #
coedge $-1 $143 $71 $66 $104 forward $111 $-1 #
edge $-1 $105 -12.5 $144 50 $103 $145 forward 7 unknown #
vertex $-1 $72 $146 #
vertex $-1 $68 $147 #
straight-curve $-1 22.5 -27.5 5 0 0 -1 F -20.5 F 20.5 #
coedge $-1 $81 $69 $74 $115 reversed $53 $-1 #
ellipse-curve $-1 22.5 -22.5 0 0 0 1 3.535533905932737309 -3.535533905932737309 0 1 I I #
coedge $-1 $71 $148 $73 $114 forward $111 $-1 #
loop $-1 $-1 $103 $149 #
ellipse-curve $-1 22.5 -22.5 10 0 0 -1 3.535533905932737309 -3.535533905932737309 0 1 I I #
coedge $-1 $74 $73 $150 $151 reversed $75 $-1 #
edge $-1 $152 -65 $77 -2.5 $110 $153 forward 7 unknown #
edge $-1 $154 -65 $76 -2.5 $74 $155 forward 7 unknown #
point $-1 27.5 -22.5 0 #
point $-1 27.5 -22.5 10 #
coedge $-1 $150 $79 $81 $122 forward $120 $-1 #
coedge $-1 $79 $156 $84 $125 forward $120 $-1 #
loop $-1 $-1 $79 $132 #
straight-curve $-1 22.5 40 2.5 0 0 -1 I I #
edge $-1 $82 10 $154 15 $118 $157 forward 7 unknown #
point $-1 22.5 40 0 #
coedge $-1 $129 $84 $158 $159 reversed $56 $-1 #
edge $-1 $160 22.5 $85 25 $119 $161 forward 7 unknown #
point $-1 22.5 40 10 #
coedge $-1 $92 $139 $89 $128 forward $134 $-1 #
edge $-1 $141 -15 $96 -10 $127 $162 forward 7 unknown #
coedge $-1 $90 $124 $163 $164 reversed $56 $-1 #
coedge $-1 $165 $92 $90 $131 forward $134 $-1 #
edge $-1 $94 -10 $166 -7.5 $130 $167 forward 7 unknown #
face $-1 $168 $120 $2 $-1 $169 reversed single #
plane-surface $-1 -5 -25 10 0 0 1 1 0 0 forward_v I I I I #
loop $-1 $-1 $139 $98 #
straight-curve $-1 -40 -22.5 2.5 0 0 1 I I #
point $-1 -40 -22.5 10 #
point $-1 -40 -22.5 0 #
plane-surface $-1 -40 0 0 1 0 0 0 0 -1 forward_v I I I I #
coedge $-1 $127 $170 $100 $140 forward $134 $-1 #
edge $-1 $144 -7.5 $141 2.5 $139 $171 forward 7 unknown #
vertex $-1 $140 $172 #
straight-curve $-1 -7.5 -27.5 0 -1 0 0 I I #
coedge $-1 $173 $103 $170 $174 reversed $111 $-1 #
vertex $-1 $174 $175 #
straight-curve $-1 10 -27.5 10 -1 0 0 I I #
point $-1 22.5 -27.5 10 #
point $-1 22.5 -27.5 0 #
coedge $-1 $110 $176 $177 $178 reversed $111 $-1 #
face $-1 $179 $111 $2 $-1 $133 forward single #
coedge $-1 $177 $118 $113 $151 forward $120 $-1 #
edge $-1 $154 -2.5 $152 7.5 $150 $180 forward 7 unknown #
vertex $-1 $151 $181 #
straight-curve $-1 27.5 -25 10 0 -1 0 I I #
vertex $-1 $122 $182 #
straight-curve $-1 27.5 -25 0 0 -1 0 I I #
coedge $-1 $119 $183 $184 $185 forward $120 $-1 #
straight-curve $-1 12.5 40 0 1 0 0 I I #
coedge $-1 $184 $186 $124 $159 forward $187 $-1 #
edge $-1 $188 -25 $160 35 $158 $189 forward 7 unknown #
vertex $-1 $185 $190 #
straight-curve $-1 -2.5 40 10 1 0 0 I I #
straight-curve $-1 -40 -12.5 0 0 1 0 I I #
coedge $-1 $191 $192 $129 $164 forward $193 $-1 #
edge $-1 $166 -35 $188 25 $163 $194 forward 7 unknown #
coedge $-1 $195 $130 $192 $196 forward $134 $-1 #
vertex $-1 $196 $197 #
straight-curve $-1 -40 -12.5 10 0 1 0 I I #
face $-1 $198 $199 $2 $-1 $200 forward single #
plane-surface $-1 0 40 0 0 -1 0 0 0 -1 forward_v I I I I #
coedge $-1 $139 $201 $143 $174 forward $134 $-1 #
straight-curve $-1 -40 -27.5 2.5 0 0 -1 I I #
point $-1 -40 -27.5 0 #
coedge $-1 $202 $143 $203 $204 reversed $111 $-1 #
edge $-1 $205 -17.5 $144 -15 $170 $167 forward 7 unknown #
point $-1 -40 -27.5 10 #
coedge $-1 $148 $202 $206 $207 reversed $111 $-1 #
coedge $-1 $208 $150 $148 $178 forward $120 $-1 #
edge $-1 $152 30 $209 32.5 $177 $161 forward 7 unknown #
face $-1 $210 $211 $2 $-1 $212 forward single #
straight-curve $-1 27.5 40 2.5 0 0 1 I I #
point $-1 27.5 40 10 #
point $-1 27.5 40 0 #
coedge $-1 $156 $213 $214 $215 reversed $120 $-1 #
coedge $-1 $216 $158 $156 $185 reversed $187 $-1 #
edge $-1 $217 -12.5 $160 -2.5 $156 $218 forward 7 unknown #
coedge $-1 $158 $216 $191 $219 forward $187 $-1 #
loop $-1 $-1 $186 $220 #
vertex $-1 $164 $221 #
straight-curve $-1 20 5 10 0 1 0 I I #
point $-1 20 40 10 #
coedge $-1 $222 $163 $186 $219 reversed $193 $-1 #
coedge $-1 $163 $222 $165 $196 reversed $193 $-1 #
loop $-1 $-1 $191 $223 #
straight-curve $-1 -5 -20 10 1 0 0 I I #
coedge $-1 $224 $165 $225 $226 reversed $134 $-1 #
edge $-1 $166 2.5 $227 12.5 $165 $228 forward 7 unknown #
point $-1 -40 -20 10 #
face $-1 $229 $230 $2 $-1 $231 forward single #
loop $-1 $-1 $232 $168 #
plane-surface $-1 -20 40 10 1 0 0 0 0 -1 forward_v I I I I #
coedge $-1 $170 $233 $234 $235 forward $134 $-1 #
coedge $-1 $176 $173 $236 $237 forward $111 $-1 #
coedge $-1 $234 $238 $173 $204 forward $239 $-1 #
edge $-1 $240 -25 $205 35 $203 $241 forward 7 unknown #
vertex $-1 $174 $242 #
coedge $-1 $243 $244 $176 $207 forward $211 $-1 #
edge $-1 $209 -65 $245 -5 $206 $246 forward 7 unknown #
coedge $-1 $247 $177 $244 $248 forward $120 $-1 #
vertex $-1 $178 $249 #
face $-1 $250 $251 $2 $-1 $252 forward single #
loop $-1 $-1 $243 $179 #
plane-surface $-1 30 -25 15 -1 0 0 0 0 1 forward_v I I I I #
coedge $-1 $183 $253 $254 $255 forward $120 $-1 #
coedge $-1 $256 $257 $183 $215 forward $251 $-1 #
edge $-1 $217 -20 $258 0 $183 $259 forward 7 unknown #
coedge $-1 $186 $184 $257 $260 reversed $187 $-1 #
vertex $-1 $260 $261 #
straight-curve $-1 20 40 7.5 0 0 -1 I I #
edge $-1 $262 -5 $188 5 $191 $263 forward 7 unknown #
face $-1 $223 $187 $2 $-1 $264 forward single #
point $-1 20 -20 10 #
coedge $-1 $192 $191 $265 $266 reversed $193 $-1 #
face $-1 $149 $193 $2 $-1 $267 forward single #
coedge $-1 $268 $195 $269 $270 forward $134 $-1 #
coedge $-1 $265 $271 $195 $226 forward $251 $-1 #
edge $-1 $272 -40 $227 20 $195 $273 forward 7 unknown #
vertex $-1 $226 $274 #
straight-curve $-1 -40 -20 7.5 0 0 1 I I #
face $-1 $275 $276 $2 $-1 $277 forward single #
loop $-1 $-1 $278 $198 #
plane-surface $-1 -10 40 0 0 0 1 1 0 0 forward_v I I I I #
coedge $-1 $279 $280 $281 $282 reversed $199 $-1 #
coedge $-1 $201 $283 $284 $285 reversed $134 $-1 #
coedge $-1 $286 $203 $201 $235 reversed $239 $-1 #
edge $-1 $287 -12.5 $205 -2.5 $201 $288 forward 7 unknown #
coedge $-1 $289 $290 $202 $237 reversed $291 $-1 #
edge $-1 $240 -0.785398163397448279 $245 0.785398163397448279 $202 $292 forward 7 unknown #
coedge $-1 $203 $286 $289 $293 reversed $239 $-1 #
loop $-1 $-1 $238 $294 #
vertex $-1 $237 $295 #
straight-curve $-1 -5 -30 10 -1 0 0 I I #
point $-1 -40 -30 10 #
coedge $-1 $296 $206 $290 $297 reversed $211 $-1 #
coedge $-1 $206 $296 $208 $248 reversed $211 $-1 #
vertex $-1 $207 $298 #
straight-curve $-1 30 -25 10 0 -1 0 I I #
coedge $-1 $299 $208 $300 $301 reversed $120 $-1 #
edge $-1 $209 2.5 $302 12.5 $208 $303 forward 7 unknown #
point $-1 30 40 10 #
face $-1 $304 $305 $2 $-1 $252 forward single #
loop $-1 $-1 $256 $210 #
plane-surface $-1 0 0 20 0 0 1 1 0 0 forward_v I I I I #
coedge $-1 $213 $281 $278 $306 forward $120 $-1 #
coedge $-1 $307 $308 $213 $255 reversed $276 $-1 #
edge $-1 $309 -5 $258 15 $213 $310 forward 7 unknown #
coedge $-1 $311 $214 $308 $312 forward $251 $-1 #
coedge $-1 $214 $265 $216 $260 forward $251 $-1 #
vertex $-1 $215 $313 #
straight-curve $-1 0 40 20 -1 0 0 I I #
edge $-1 $262 -22.5 $217 37.5 $257 $314 forward 7 unknown #
point $-1 20 40 20 #
vertex $-1 $260 $315 #
straight-curve $-1 20 -20 15 0 0 -1 I I #
plane-surface $-1 20 5 15 1 0 0 0 0 -1 forward_v I I I I #
coedge $-1 $257 $225 $222 $266 forward $251 $-1 #
edge $-1 $227 -37.5 $262 22.5 $265 $316 forward 7 unknown #
plane-surface $-1 -5 -20 15 0 -1 0 0 0 -1 forward_v I I I I #
coedge $-1 $283 $224 $317 $318 reversed $134 $-1 #
coedge $-1 $319 $320 $224 $270 reversed $120 $-1 #
edge $-1 $272 -20 $321 20 $269 $322 forward 7 unknown #
coedge $-1 $225 $323 $319 $324 forward $251 $-1 #
vertex $-1 $324 $325 #
straight-curve $-1 -40 0 20 0 -1 0 I I #
point $-1 -40 -20 20 #
face $-1 $326 $327 $2 $-1 $328 forward single #
loop $-1 $-1 $254 $229 #
plane-surface $-1 0 40 10 -1 0 0 0 0 1 forward_v I I I I #
coedge $-1 $329 $330 $253 $306 reversed $230 $-1 #
coedge $-1 $331 $232 $323 $332 reversed $199 $-1 #
coedge $-1 $232 $331 $329 $333 forward $199 $-1 #
coedge $-1 $253 $319 $232 $282 forward $120 $-1 #
edge $-1 $334 -15 $335 5 $281 $336 forward 7 unknown #
coedge $-1 $233 $268 $337 $338 reversed $134 $-1 #
coedge $-1 $339 $340 $233 $285 forward $305 $-1 #
edge $-1 $287 30 $341 40 $233 $273 forward 7 unknown #
coedge $-1 $238 $234 $340 $342 reversed $239 $-1 #
vertex $-1 $235 $343 #
straight-curve $-1 -40 -30 7.5 0 0 -1 I I #
coedge $-1 $344 $236 $238 $293 forward $291 $-1 #
coedge $-1 $236 $344 $243 $297 forward $291 $-1 #
loop $-1 $-1 $290 $345 #
ellipse-curve $-1 20 -20 10 0 0 1 7.071067811865474617 -7.071067811865474617 0 1 I I #
edge $-1 $240 -5 $346 5 $238 $347 forward 7 unknown #
face $-1 $220 $239 $2 $-1 $348 forward single #
point $-1 20 -30 10 #
coedge $-1 $244 $243 $349 $350 reversed $211 $-1 #
edge $-1 $351 -5 $245 5 $243 $352 forward 7 unknown #
point $-1 30 -20 10 #
coedge $-1 $320 $247 $353 $354 forward $120 $-1 #
coedge $-1 $349 $355 $247 $301 forward $305 $-1 #
edge $-1 $356 -40 $302 -30 $247 $259 forward 7 unknown #
vertex $-1 $301 $357 #
straight-curve $-1 30 40 7.5 0 0 1 I I #
face $-1 $358 $359 $2 $-1 $360 reversed single #
loop $-1 $-1 $349 $250 #
edge $-1 $335 -15 $309 5 $253 $361 forward 7 unknown #
coedge $-1 $362 $254 $330 $363 forward $276 $-1 #
coedge $-1 $254 $362 $256 $312 reversed $276 $-1 #
vertex $-1 $306 $364 #
straight-curve $-1 0 40 5 0 0 1 I I #
coedge $-1 $365 $256 $366 $367 forward $251 $-1 #
edge $-1 $258 -20 $368 -10 $256 $369 forward 7 unknown #
point $-1 0 40 20 #
straight-curve $-1 20 2.5 20 0 1 0 I I #
point $-1 20 -20 20 #
straight-curve $-1 -2.5 -20 20 1 0 0 I I #
coedge $-1 $370 $371 $268 $318 forward $372 $-1 #
edge $-1 $373 -40 $321 40 $268 $374 forward 7 unknown #
coedge $-1 $281 $269 $271 $324 reversed $120 $-1 #
coedge $-1 $269 $299 $370 $375 reversed $120 $-1 #
vertex $-1 $375 $376 #
straight-curve $-1 -40 40 0 0 0 -1 I I #
coedge $-1 $271 $377 $279 $332 forward $251 $-1 #
edge $-1 $334 20 $272 40 $319 $259 forward 7 unknown #
point $-1 -40 40 20 #
face $-1 $378 $379 $2 $-1 $380 forward single #
loop $-1 $-1 $381 $275 #
plane-surface $-1 -10 30 0 0 -1 0 0 0 -1 forward_v I I I I #
coedge $-1 $382 $278 $280 $333 reversed $230 $-1 #
coedge $-1 $278 $382 $307 $363 reversed $230 $-1 #
coedge $-1 $280 $279 $383 $384 reversed $199 $-1 #
edge $-1 $385 10 $334 20 $323 $386 forward 7 unknown #
edge $-1 $387 -10 $335 0 $280 $388 forward 7 unknown #
vertex $-1 $282 $389 #
vertex $-1 $306 $390 #
straight-curve $-1 -20 40 5 0 0 -1 I I #
coedge $-1 $391 $392 $283 $338 forward $393 $-1 #
edge $-1 $341 -20 $373 20 $283 $394 forward 7 unknown #
coedge $-1 $355 $284 $392 $395 forward $305 $-1 #
coedge $-1 $284 $396 $286 $342 forward $305 $-1 #
vertex $-1 $285 $397 #
edge $-1 $346 -22.5 $287 37.5 $340 $398 forward 7 unknown #
point $-1 -40 -30 20 #
coedge $-1 $290 $289 $396 $399 reversed $291 $-1 #
face $-1 $294 $291 $2 $-1 $400 forward single #
vertex $-1 $342 $401 #
straight-curve $-1 20 -30 15 0 0 1 F -36 F 36 #
plane-surface $-1 -5 -30 15 0 1 0 0 0 1 forward_v I I I I #
coedge $-1 $396 $300 $296 $350 forward $305 $-1 #
edge $-1 $302 -52.5 $351 7.5 $349 $402 forward 7 unknown #
vertex $-1 $350 $403 #
straight-curve $-1 30 -20 15 0 0 -1 F -36 F 36 #
coedge $-1 $404 $405 $299 $354 reversed $406 $-1 #
edge $-1 $356 -20 $407 20 $353 $408 forward 7 unknown #
coedge $-1 $300 $339 $404 $409 forward $305 $-1 #
vertex $-1 $409 $410 #
point $-1 30 40 20 #
face $-1 $411 $393 $2 $-1 $412 reversed single #
loop $-1 $372 $413 $304 #
plane-surface $-1 0 0 -20 0 0 1 1 0 0 forward_v I I I I #
straight-curve $-1 -5 40 0 1 0 0 I I #
coedge $-1 $308 $307 $381 $414 reversed $276 $-1 #
edge $-1 $309 0 $415 10 $307 $416 forward 7 unknown #
point $-1 0 40 0 #
coedge $-1 $417 $311 $418 $419 forward $251 $-1 #
coedge $-1 $381 $420 $311 $367 reversed $327 $-1 #
edge $-1 $368 5 $421 15 $311 $422 forward 7 unknown #
vertex $-1 $312 $423 #
straight-curve $-1 0 20 20 0 -1 0 I I #
coedge $-1 $424 $317 $320 $375 forward $372 $-1 #
coedge $-1 $317 $424 $391 $425 forward $372 $-1 #
loop $-1 $-1 $424 $304 #
vertex $-1 $318 $426 #
straight-curve $-1 -40 0 -20 0 1 0 I I #
edge $-1 $321 -40 $407 40 $320 $427 forward 7 unknown #
point $-1 -40 40 -20 #
coedge $-1 $323 $428 $429 $430 forward $251 $-1 #
face $-1 $431 $432 $2 $-1 $433 forward single #
loop $-1 $-1 $434 $326 #
plane-surface $-1 -10 -10 0 0 1 0 0 0 1 forward_v I I I I #
coedge $-1 $435 $366 $362 $414 forward $327 $-1 #
coedge $-1 $330 $329 $435 $436 reversed $230 $-1 #
coedge $-1 $429 $435 $331 $384 forward $327 $-1 #
edge $-1 $387 -5 $385 15 $383 $437 forward 7 unknown #
vertex $-1 $430 $438 #
straight-curve $-1 -20 20 20 0 1 0 I I #
vertex $-1 $436 $439 #
straight-curve $-1 -20 40 0 0 1 0 I I #
point $-1 -20 40 20 #
point $-1 -20 40 0 #
coedge $-1 $440 $337 $371 $425 reversed $393 $-1 #
coedge $-1 $337 $440 $339 $395 reversed $393 $-1 #
loop $-1 $-1 $337 $358 #
straight-curve $-1 -40 -40 0 0 0 -1 I I #
edge $-1 $341 -40 $441 40 $392 $442 forward 7 unknown #
coedge $-1 $340 $349 $344 $399 forward $305 $-1 #
point $-1 -40 -40 20 #
straight-curve $-1 -2.5 -30 20 -1 0 0 I I #
edge $-1 $351 -0.785398163397448279 $346 0.785398163397448279 $396 $443 forward 7 unknown #
cone-surface $-1 20 -20 15 0 0 1 7.071067811865474617 -7.071067811865474617 0 1 I I 0 -1 10 forward I I I I #
point $-1 20 -30 20 #
straight-curve $-1 30 -12.5 20 0 -1 0 I I #
point $-1 30 -20 20 #
coedge $-1 $444 $353 $355 $409 reversed $406 $-1 #
coedge $-1 $353 $444 $424 $445 reversed $406 $-1 #
loop $-1 $-1 $444 $411 #
vertex $-1 $445 $446 #
straight-curve $-1 40 40 0 0 0 -1 I I #
edge $-1 $441 -40 $356 40 $404 $447 forward 7 unknown #
point $-1 40 40 20 #
face $-1 $-1 $406 $2 $-1 $448 reversed single #
plane-surface $-1 0 -40 0 0 1 0 0 0 1 forward_v I I I I #
coedge $-1 $449 $450 $451 $452 forward $359 $-1 #
edge $-1 $368 -15 $415 5 $381 $453 forward 7 unknown #
vertex $-1 $436 $454 #
straight-curve $-1 0 40 0 0 -1 0 I I #
coedge $-1 $428 $365 $455 $456 forward $251 $-1 #
coedge $-1 $457 $458 $365 $419 reversed $459 $-1 #
edge $-1 $421 -25 $460 15 $365 $461 forward 7 unknown #
coedge $-1 $366 $462 $457 $463 reversed $327 $-1 #
vertex $-1 $367 $464 #
straight-curve $-1 -5 30 20 1 0 0 I I #
point $-1 0 30 20 #
coedge $-1 $371 $370 $405 $445 forward $372 $-1 #
edge $-1 $465 -40 $373 40 $391 $466 forward 7 unknown #
point $-1 -40 -40 -20 #
straight-curve $-1 0 40 -20 1 0 0 I I #
coedge $-1 $377 $417 $467 $468 forward $251 $-1 #
coedge $-1 $469 $383 $377 $430 reversed $327 $-1 #
edge $-1 $470 -25 $385 -15 $377 $422 forward 7 unknown #
face $-1 $345 $459 $2 $-1 $471 forward single #
loop $-1 $-1 $472 $378 #
plane-surface $-1 -30 10 0 1 0 0 0 0 -1 forward_v I I I I #
coedge $-1 $455 $451 $473 $474 reversed $379 $-1 #
coedge $-1 $383 $381 $382 $436 forward $327 $-1 #
edge $-1 $415 -10 $387 10 $435 $475 forward 7 unknown #
straight-curve $-1 -20 30 5 0 0 1 I I #
point $-1 -20 30 20 #
point $-1 -20 30 0 #
coedge $-1 $392 $391 $444 $476 reversed $393 $-1 #
vertex $-1 $409 $477 #
straight-curve $-1 0 -40 20 1 0 0 I I #
ellipse-curve $-1 20 -20 20 0 0 -1 7.071067811865474617 -7.071067811865474617 0 1 I I #
coedge $-1 $405 $404 $440 $476 forward $406 $-1 #
edge $-1 $407 -40 $465 40 $405 $478 forward 7 unknown #
point $-1 40 40 -20 #
straight-curve $-1 40 0 20 0 1 0 I I #
plane-surface $-1 40 0 0 -1 0 0 0 0 1 forward_v I I I I #
coedge $-1 $479 $413 $480 $481 forward $359 $-1 #
coedge $-1 $413 $479 $482 $483 forward $359 $-1 #
coedge $-1 $434 $484 $413 $452 reversed $379 $-1 #
edge $-1 $485 -25 $486 15 $413 $487 forward 7 unknown #
straight-curve $-1 0 30 5 0 0 -1 I I #
point $-1 0 30 0 #
coedge $-1 $484 $434 $417 $456 reversed $379 $-1 #
edge $-1 $460 -15 $488 25 $417 $489 forward 7 unknown #
coedge $-1 $480 $418 $420 $463 forward $459 $-1 #
coedge $-1 $418 $480 $484 $490 reversed $459 $-1 #
loop $-1 $-1 $458 $431 #
vertex $-1 $456 $491 #
straight-curve $-1 10 5 20 0 -1 0 I I #
coedge $-1 $420 $469 $479 $492 reversed $327 $-1 #
edge $-1 $421 -20 $493 20 $457 $494 forward 7 unknown #
point $-1 10 30 20 #
vertex $-1 $476 $495 #
straight-curve $-1 0 -40 -20 -1 0 0 I I #
coedge $-1 $473 $472 $428 $468 reversed $432 $-1 #
edge $-1 $488 -15 $470 25 $428 $496 forward 7 unknown #
coedge $-1 $462 $429 $472 $497 forward $327 $-1 #
vertex $-1 $468 $498 #
plane-surface $-1 10 10 0 -1 0 0 0 0 1 forward_v I I I I #
coedge $-1 $467 $482 $469 $497 reversed $432 $-1 #
coedge $-1 $482 $467 $434 $474 forward $432 $-1 #
edge $-1 $488 -20 $485 20 $473 $499 forward 7 unknown #
straight-curve $-1 -10 30 0 -1 0 0 I I #
edge $-1 $441 -20 $465 20 $444 $500 forward 7 unknown #
point $-1 40 -40 20 #
straight-curve $-1 40 0 -20 0 -1 0 I I #
coedge $-1 $450 $449 $462 $492 forward $359 $-1 #
coedge $-1 $458 $457 $449 $481 reversed $459 $-1 #
edge $-1 $486 -15 $493 25 $449 $501 forward 7 unknown #
coedge $-1 $472 $473 $450 $483 reversed $432 $-1 #
edge $-1 $502 -25 $485 15 $450 $503 forward 7 unknown #
coedge $-1 $451 $455 $458 $490 forward $379 $-1 #
vertex $-1 $452 $504 #
vertex $-1 $452 $505 #
straight-curve $-1 -5 -10 -20 1 0 0 I I #
vertex $-1 $456 $506 #
straight-curve $-1 -5 -10 20 -1 0 0 I I #
edge $-1 $460 -20 $486 20 $458 $507 forward 7 unknown #
point $-1 10 -10 20 #
edge $-1 $493 -15 $502 25 $479 $508 forward 7 unknown #
vertex $-1 $492 $509 #
straight-curve $-1 10 30 0 0 0 -1 I I #
point $-1 40 -40 -20 #
straight-curve $-1 -30 5 20 0 1 0 I I #
edge $-1 $470 -20 $502 20 $469 $510 forward 7 unknown #
point $-1 -30 30 20 #
straight-curve $-1 -30 -10 0 0 0 -1 I I #
straight-curve $-1 40 -40 0 0 0 -1 I I #
straight-curve $-1 10 5 -20 0 1 0 I I #
vertex $-1 $483 $511 #
straight-curve $-1 -30 5 -20 0 -1 0 I I #
point $-1 -30 -10 -20 #
point $-1 10 -10 -20 #
point $-1 -30 -10 20 #
straight-curve $-1 10 -10 0 0 0 -1 I I #
straight-curve $-1 -5 30 -20 -1 0 0 I I #
point $-1 10 30 -20 #
straight-curve $-1 -30 30 0 0 0 -1 I I #
point $-1 -30 30 -20 #
End-of-ACIS-data 