600 0 2 0           
23 ACIS/3D Toolkit - 6.0.3 18 ACIS 6.0.3 Solaris 24 Thu Jul 12 13:15:16 2001 
1 9.999999999999999547e-07 1.000000000000000036e-10 
body $2 $3 $-1 $4 #
body $5 $6 $-1 $7 #
rgb_color-st-attrib $-1 $-1 $-1 $0 0 0 1 #
lump $-1 $8 $9 $0 #
transform $-1 1 0 0 0 1 0 0 0 1 0 0 0 1 no_rotate no_reflect no_shear #
rgb_color-st-attrib $-1 $-1 $-1 $1 1 1 0 #
lump $-1 $10 $11 $1 #
transform $-1 1 0 0 0 1 0 0 0 1 17.5 25 -10 1 no_rotate no_reflect no_shear #
lump $-1 $12 $13 $0 #
shell $-1 $-1 $-1 $14 $-1 $3 #
lump $-1 $15 $16 $1 #
shell $-1 $-1 $-1 $17 $-1 $6 #
lump $-1 $18 $19 $0 #
shell $-1 $-1 $-1 $20 $-1 $8 #
face $-1 $21 $22 $9 $-1 $23 reversed single #
lump $-1 $24 $25 $1 #
shell $-1 $-1 $-1 $26 $-1 $10 #
face $-1 $27 $28 $11 $-1 $29 reversed single #
lump $-1 $-1 $30 $0 #
shell $-1 $-1 $-1 $31 $-1 $12 #
face $-1 $32 $33 $13 $-1 $34 forward single #
face $-1 $35 $36 $9 $-1 $37 forward single #
loop $-1 $-1 $38 $14 #
plane-surface $-1 30 0 -5 0 0 1 1 0 0 forward_v I I I I #
lump $-1 $39 $40 $1 #
shell $-1 $-1 $-1 $41 $-1 $15 #
face $-1 $42 $43 $16 $-1 $29 reversed single #
face $-1 $44 $45 $11 $-1 $46 reversed single #
loop $-1 $47 $48 $17 #
cone-surface $-1 0 0 -22.5 0 0 -1 5 0 0 1 I I 0 1 5 forward I I I I #
shell $-1 $-1 $-1 $49 $-1 $18 #
face $-1 $50 $51 $19 $-1 $23 reversed single #
face $-1 $52 $53 $13 $-1 $54 reversed single #
loop $-1 $-1 $55 $20 #
plane-surface $-1 30 0 5 0 0 1 1 0 0 forward_v I I I I #
face $-1 $56 $57 $9 $-1 $58 forward single #
loop $-1 $-1 $59 $21 #
plane-surface $-1 55 0 0 1 0 0 0 0 -1 forward_v I I I I #
coedge $-1 $60 $61 $62 $63 reversed $22 $-1 #
lump $-1 $-1 $64 $1 #
shell $-1 $-1 $-1 $65 $-1 $24 #
face $-1 $66 $67 $25 $-1 $68 forward single #
face $-1 $69 $70 $16 $-1 $71 reversed single #
loop $-1 $72 $73 $26 #
face $-1 $74 $75 $11 $-1 $76 forward single #
loop $-1 $77 $78 $27 #
plane-surface $-1 -17.5 -25 -45 0 0 1 1 0 0 forward_v I I I I #
loop $-1 $-1 $79 $17 #
coedge $-1 $48 $48 $80 $81 reversed $28 $-1 #
face $82 $83 $84 $30 $-1 $85 reversed single #
face $-1 $86 $87 $19 $-1 $88 reversed single #
loop $-1 $-1 $89 $31 #
face $90 $91 $92 $13 $-1 $93 reversed single #
loop $-1 $-1 $94 $32 #
plane-surface $-1 65 0 0 -1 0 0 0 0 1 forward_v I I I I #
coedge $-1 $95 $96 $97 $98 reversed $33 $-1 #
face $99 $100 $101 $9 $-1 $37 forward single #
loop $-1 $-1 $102 $35 #
sphere-surface $-1 45 0 0 20 1 0 0 0 0 1 forward_v I I I I #
coedge $-1 $103 $104 $105 $106 forward $36 $-1 #
coedge $-1 $105 $38 $102 $107 reversed $22 $-1 #
coedge $-1 $38 $105 $108 $109 reversed $22 $-1 #
coedge $-1 $110 $111 $38 $63 forward $101 $-1 #
edge $-1 $112 -16.58312395177700083 $113 -10 $62 $114 forward 7 unknown #
shell $-1 $-1 $-1 $115 $-1 $39 #
face $-1 $116 $117 $40 $-1 $29 reversed single #
face $-1 $118 $119 $25 $-1 $76 forward single #
loop $-1 $120 $121 $41 #
plane-surface $-1 -17.5 -25 -10 0 0 1 1 0 0 forward_v I I I I #
face $-1 $122 $123 $16 $-1 $76 forward single #
loop $-1 $124 $125 $42 #
plane-surface $-1 -17.5 -25 -25 0 0 1 1 0 0 forward_v I I I I #
loop $-1 $-1 $126 $26 #
coedge $-1 $73 $73 $125 $127 reversed $43 $-1 #
face $-1 $-1 $128 $11 $-1 $129 forward single #
loop $-1 $130 $131 $44 #
sphere-surface $-1 0 0 0 50 1 0 0 0 0 1 forward_v I I I I #
loop $-1 $-1 $132 $27 #
coedge $-1 $78 $78 $79 $133 forward $45 $-1 #
coedge $-1 $79 $79 $78 $133 reversed $47 $-1 #
coedge $-1 $80 $80 $48 $81 forward $128 $-1 #
edge $-1 $134 -3.141592653589793116 $134 3.141592653589793116 $80 $135 forward 7 unknown #
fmesh-eye-attrib $-1 $-1 $-1 $49 #
face $-1 $136 $137 $30 $-1 $138 reversed single #
loop $-1 $-1 $139 $49 #
plane-surface $-1 15 0 0 1 0 0 0 0 -1 forward_v I I I I #
face $-1 $140 $141 $19 $-1 $142 forward single #
loop $-1 $-1 $143 $50 #
sphere-surface $-1 0 0 0 15 1 0 0 0 0 1 forward_v I I I I #
coedge $-1 $144 $145 $146 $147 reversed $51 $-1 #
fmesh-eye-attrib $-1 $-1 $-1 $52 #
face $148 $149 $150 $13 $-1 $151 reversed single #
loop $-1 $-1 $152 $52 #
plane-surface $-1 72.5 -13 0 0 -1 0 0 0 -1 forward_v I I I I #
coedge $-1 $153 $154 $155 $156 forward $53 $-1 #
coedge $-1 $157 $55 $158 $159 reversed $33 $-1 #
coedge $-1 $55 $160 $161 $162 reversed $33 $-1 #
coedge $-1 $163 $164 $55 $98 forward $165 $-1 #
edge $-1 $166 -33.75 $167 -13.75 $97 $168 forward 7 unknown #
fmesh-eye-attrib $-1 $-1 $-1 $56 #
face $169 $170 $171 $9 $-1 $172 reversed single #
loop $-1 $-1 $62 $56 #
coedge $-1 $173 $174 $60 $107 forward $57 $-1 #
coedge $-1 $175 $59 $174 $176 reversed $36 $-1 #
coedge $-1 $59 $175 $177 $178 forward $36 $-1 #
coedge $-1 $61 $60 $59 $106 reversed $22 $-1 #
edge $-1 $179 10 $180 16.58312395177700083 $59 $181 forward 7 unknown #
edge $-1 $180 -0.5426391022496527272 $112 3.684231755839445732 $102 $182 forward 7 unknown #
coedge $-1 $177 $183 $61 $109 forward $171 $-1 #
edge $-1 $113 2.356194490192344837 $179 7.068583470577034511 $108 $184 forward 7 unknown #
coedge $-1 $185 $62 $183 $186 forward $101 $-1 #
coedge $-1 $62 $185 $173 $187 reversed $101 $-1 #
vertex $-1 $187 $188 #
vertex $-1 $186 $189 #
straight-curve $-1 55 0 -5 0 1 0 I I #
face $-1 $190 $191 $64 $-1 $76 forward single #
face $-1 $192 $193 $40 $-1 $194 reversed single #
loop $-1 $195 $196 $65 #
face $-1 $197 $198 $25 $-1 $199 reversed single #
loop $-1 $200 $201 $66 #
loop $-1 $-1 $202 $41 #
coedge $-1 $121 $121 $203 $204 forward $67 $-1 #
face $-1 $-1 $205 $16 $-1 $206 forward single #
loop $-1 $207 $208 $69 #
loop $-1 $-1 $209 $42 #
coedge $-1 $125 $125 $73 $127 forward $70 $-1 #
coedge $-1 $126 $126 $210 $211 reversed $72 $-1 #
edge $-1 $212 -3.141592653589793116 $212 3.141592653589793116 $125 $213 forward 7 unknown #
loop $-1 $214 $80 $74 #
plane-surface $-1 -17.5 -25 -40 0 0 1 1 0 0 forward_v I I I I #
loop $-1 $-1 $215 $44 #
coedge $-1 $131 $131 $132 $216 forward $75 $-1 #
coedge $-1 $132 $132 $131 $216 reversed $77 $-1 #
edge $-1 $217 0 $217 6.283185307179586232 $78 $218 forward 7 unknown #
vertex $-1 $81 $219 #
ellipse-curve $-1 0 0 -40 -0 -0 -1 5 0 0 1 I I #
face $-1 $220 $221 $30 $-1 $34 forward single #
loop $-1 $-1 $222 $83 #
plane-surface $-1 17.5 18 0 0 -1 0 0 0 -1 forward_v I I I I #
coedge $-1 $223 $224 $225 $226 forward $84 $-1 #
face $-1 $227 $228 $19 $-1 $229 forward single #
loop $-1 $-1 $230 $86 #
plane-surface $-1 10 10 10 1 0 0 0 0 -1 forward_v I I I I #
coedge $-1 $231 $232 $233 $234 forward $87 $-1 #
coedge $-1 $235 $89 $236 $237 reversed $51 $-1 #
coedge $-1 $89 $238 $239 $240 reversed $51 $-1 #
coedge $-1 $241 $242 $89 $147 forward $243 $-1 #
edge $-1 $244 8.75 $245 18.75 $146 $246 forward 7 unknown #
fmesh-eye-attrib $-1 $-1 $-1 $91 #
face $-1 $247 $165 $13 $-1 $248 reversed single #
loop $-1 $-1 $249 $91 #
plane-surface $-1 80 -15.5 0 -1 0 0 0 0 1 forward_v I I I I #
coedge $-1 $250 $251 $252 $253 forward $92 $-1 #
coedge $-1 $254 $94 $255 $256 reversed $53 $-1 #
coedge $-1 $94 $254 $250 $257 forward $53 $-1 #
coedge $-1 $252 $258 $94 $156 reversed $259 $-1 #
edge $-1 $260 -13 $261 18 $94 $262 forward 7 unknown #
coedge $-1 $263 $95 $264 $265 reversed $33 $-1 #
coedge $-1 $266 $267 $95 $159 forward $150 $-1 #
edge $-1 $268 5.25 $166 10.25 $158 $269 forward 7 unknown #
coedge $-1 $96 $263 $270 $271 reversed $33 $-1 #
coedge $-1 $272 $273 $96 $162 forward $274 $-1 #
edge $-1 $167 -18 $275 18 $161 $276 forward 7 unknown #
coedge $-1 $277 $97 $273 $278 forward $165 $-1 #
coedge $-1 $97 $277 $266 $279 reversed $165 $-1 #
loop $-1 $-1 $277 $149 #
vertex $-1 $279 $280 #
vertex $-1 $278 $281 #
straight-curve $-1 46.25 -18 5 -1 0 0 I I #
fmesh-eye-attrib $-1 $-1 $-1 $100 #
face $-1 $-1 $282 $9 $-1 $34 forward single #
loop $-1 $-1 $108 $100 #
sphere-surface $-1 45 0 0 15 1 0 0 0 0 1 forward_v I I I I #
coedge $-1 $283 $102 $111 $187 forward $57 $-1 #
coedge $-1 $102 $283 $103 $176 forward $57 $-1 #
coedge $-1 $104 $103 $284 $285 forward $36 $-1 #
edge $-1 $286 -1.863639098523472093 $180 -1.277953555066321245 $174 $287 forward 7 unknown #
coedge $-1 $288 $108 $104 $178 reversed $171 $-1 #
edge $-1 $289 1.107148717794090409 $179 2.034443935795702707 $104 $290 forward 7 unknown #
vertex $-1 $109 $291 #
vertex $-1 $107 $292 #
straight-curve $-1 55 0 -5 0 1 0 I I #
ellipse-curve $-1 45 0 -5 0 0 1 0 19.36491673103708422 0 1 I I #
coedge $-1 $108 $288 $110 $186 reversed $171 $-1 #
ellipse-curve $-1 45 0 -5 -0 -0 -1 0 14.14213562373095101 0 1 I I #
coedge $-1 $111 $110 $293 $294 forward $101 $-1 #
edge $-1 $113 -2.034443935795702707 $295 -1.107148717794090409 $110 $290 forward 7 unknown #
edge $-1 $112 1.277953555066321245 $296 1.863639098523472093 $173 $287 forward 7 unknown #
point $-1 55 -16.58312395177700083 -5 #
point $-1 55 -10 -5 #
face $-1 $297 $298 $64 $-1 $299 forward single #
loop $-1 $300 $301 $115 #
face $-1 $302 $303 $40 $-1 $76 forward single #
loop $-1 $304 $305 $116 #
plane-surface $-1 -17.5 -25 -35 0 0 1 1 0 0 forward_v I I I I #
loop $-1 $-1 $306 $65 #
coedge $-1 $196 $196 $307 $308 reversed $117 $-1 #
face $-1 $-1 $309 $25 $-1 $29 reversed single #
loop $-1 $310 $311 $118 #
plane-surface $-1 -17.5 -25 -15 0 0 1 1 0 0 forward_v I I I I #
loop $-1 $-1 $312 $66 #
coedge $-1 $201 $201 $313 $314 forward $119 $-1 #
coedge $-1 $202 $202 $312 $315 reversed $120 $-1 #
coedge $-1 $203 $203 $121 $204 reversed $309 $-1 #
edge $-1 $316 -3.141592653589793116 $316 3.141592653589793116 $121 $317 forward 7 unknown #
loop $-1 $318 $210 $122 #
plane-surface $-1 -17.5 -25 -20 0 0 1 1 0 0 forward_v I I I I #
loop $-1 $-1 $319 $69 #
coedge $-1 $208 $208 $209 $320 forward $123 $-1 #
coedge $-1 $209 $209 $208 $320 reversed $124 $-1 #
coedge $-1 $210 $210 $126 $211 forward $205 $-1 #
edge $-1 $321 -3.141592653589793116 $321 3.141592653589793116 $210 $322 forward 7 unknown #
vertex $-1 $127 $323 #
ellipse-curve $-1 0 0 -25 0 0 1 5 0 0 1 I I #
loop $-1 $-1 $324 $74 #
coedge $-1 $215 $215 $324 $325 forward $130 $-1 #
edge $-1 $326 -3.141592653589793116 $326 3.141592653589793116 $131 $327 forward 7 unknown #
vertex $-1 $133 $328 #
ellipse-curve $-1 0 0 -45 0 0 1 5 0 0 1 I I #
point $-1 -5 6.123233995736766282e-16 -40 #
face $-1 $329 $330 $30 $-1 $331 reversed single #
loop $-1 $-1 $332 $136 #
coedge $-1 $333 $334 $335 $336 forward $137 $-1 #
coedge $-1 $337 $139 $338 $339 reversed $84 $-1 #
coedge $-1 $139 $337 $333 $340 forward $84 $-1 #
coedge $-1 $335 $341 $139 $226 reversed $342 $-1 #
edge $-1 $343 -18 $344 18 $139 $345 forward 7 unknown #
face $-1 $346 $347 $19 $-1 $142 forward single #
loop $-1 $-1 $348 $140 #
sphere-surface $-1 0 0 0 20 1 0 0 0 0 1 forward_v I I I I #
coedge $-1 $349 $350 $351 $352 forward $141 $-1 #
coedge $-1 $353 $143 $350 $354 reversed $87 $-1 #
coedge $-1 $143 $353 $355 $356 forward $87 $-1 #
coedge $-1 $357 $351 $143 $234 reversed $51 $-1 #
edge $-1 $358 2.780225529683085561 $359 7.068583470577034511 $143 $360 forward 7 unknown #
coedge $-1 $351 $144 $348 $361 reversed $51 $-1 #
coedge $-1 $362 $363 $144 $237 forward $347 $-1 #
edge $-1 $364 -21.58312395177700083 $244 -5 $236 $365 forward 7 unknown #
coedge $-1 $145 $357 $366 $367 reversed $51 $-1 #
coedge $-1 $368 $369 $145 $240 forward $370 $-1 #
edge $-1 $245 -1.25 $371 3.75 $239 $372 forward 7 unknown #
coedge $-1 $373 $146 $369 $374 reversed $243 $-1 #
coedge $-1 $146 $373 $362 $375 forward $243 $-1 #
loop $-1 $-1 $146 $376 #
vertex $-1 $147 $377 #
vertex $-1 $147 $378 #
straight-curve $-1 18.75 0 -5 -1 0 0 I I #
face $-1 $379 $274 $13 $-1 $380 reversed single #
plane-surface $-1 62.5 -18 0 0 1 0 0 0 1 forward_v I I I I #
coedge $-1 $267 $266 $381 $382 forward $150 $-1 #
coedge $-1 $264 $152 $154 $257 reversed $92 $-1 #
coedge $-1 $152 $264 $267 $383 forward $92 $-1 #
coedge $-1 $381 $155 $152 $253 reversed $259 $-1 #
edge $-1 $384 -28.75 $260 -13.75 $152 $385 forward 7 unknown #
coedge $-1 $154 $153 $263 $386 forward $53 $-1 #
coedge $-1 $387 $270 $153 $256 forward $388 $-1 #
edge $-1 $389 -5 $261 5 $153 $390 forward 7 unknown #
edge $-1 $391 -5 $260 5 $154 $392 forward 7 unknown #
coedge $-1 $155 $393 $387 $394 reversed $259 $-1 #
loop $-1 $-1 $252 $395 #
vertex $-1 $253 $396 #
vertex $-1 $394 $397 #
straight-curve $-1 65 0 -5 0 1 -0 I I #
coedge $-1 $160 $157 $254 $386 reversed $33 $-1 #
coedge $-1 $251 $250 $157 $265 forward $92 $-1 #
edge $-1 $391 13.75 $268 28.75 $264 $398 forward 7 unknown #
coedge $-1 $249 $158 $164 $279 forward $150 $-1 #
coedge $-1 $158 $249 $251 $383 reversed $150 $-1 #
vertex $-1 $383 $399 #
straight-curve $-1 80 -7.75 5 0 -1 0 I I #
coedge $-1 $255 $400 $160 $271 forward $388 $-1 #
edge $-1 $275 13.75 $389 18.75 $270 $401 forward 7 unknown #
coedge $-1 $402 $161 $400 $403 forward $274 $-1 #
coedge $-1 $161 $402 $163 $278 reversed $274 $-1 #
loop $-1 $-1 $402 $247 #
vertex $-1 $403 $404 #
straight-curve $-1 60 0 5 0 1 0 I I #
coedge $-1 $164 $163 $405 $406 forward $165 $-1 #
edge $-1 $167 -5 $407 5 $273 $408 forward 7 unknown #
edge $-1 $166 -5 $409 5 $266 $410 forward 7 unknown #
point $-1 80 -18 5 #
point $-1 60 -18 5 #
loop $-1 $-1 $411 $170 #
coedge $-1 $174 $173 $412 $413 forward $57 $-1 #
coedge $-1 $412 $411 $175 $285 reversed $282 $-1 #
edge $-1 $286 -16.58312395177700083 $289 -10 $175 $414 forward 7 unknown #
vertex $-1 $176 $415 #
ellipse-curve $-1 55 0 0 -1 -0 -0 0 0 -17.3205080756887746 1 I I #
coedge $-1 $183 $177 $411 $416 forward $171 $-1 #
vertex $-1 $178 $417 #
ellipse-curve $-1 55 0 0 -1 -0 -0 0 0 11.18033988749894903 1 I I #
point $-1 55 10 -5 #
point $-1 55 16.58312395177700083 -5 #
coedge $-1 $411 $412 $185 $294 reversed $282 $-1 #
edge $-1 $295 10 $296 16.58312395177700083 $185 $418 forward 7 unknown #
vertex $-1 $416 $419 #
vertex $-1 $294 $420 #
face $-1 $421 $422 $64 $-1 $423 reversed single #
loop $-1 $424 $425 $190 #
plane-surface $-1 -17.5 -25 0 0 0 1 1 0 0 forward_v I I I I #
loop $-1 $-1 $426 $115 #
coedge $-1 $301 $301 $427 $428 forward $191 $-1 #
face $-1 $-1 $429 $40 $-1 $430 forward single #
loop $-1 $431 $432 $192 #
loop $-1 $-1 $433 $116 #
coedge $-1 $305 $305 $306 $434 forward $193 $-1 #
coedge $-1 $306 $306 $305 $434 reversed $195 $-1 #
coedge $-1 $307 $307 $196 $308 forward $429 $-1 #
edge $-1 $435 -3.141592653589793116 $435 3.141592653589793116 $307 $436 forward 7 unknown #
loop $-1 $437 $203 $197 #
loop $-1 $-1 $313 $118 #
coedge $-1 $311 $311 $438 $439 forward $198 $-1 #
coedge $-1 $312 $312 $202 $315 forward $200 $-1 #
coedge $-1 $313 $313 $201 $314 reversed $310 $-1 #
edge $-1 $440 -3.141592653589793116 $440 3.141592653589793116 $201 $441 forward 7 unknown #
edge $-1 $442 -3.141592653589793116 $442 3.141592653589793116 $312 $443 forward 7 unknown #
vertex $-1 $204 $444 #
ellipse-curve $-1 0 0 -10 -0 -0 -1 5 0 0 1 I I #
loop $-1 $-1 $445 $122 #
coedge $-1 $319 $319 $445 $446 forward $207 $-1 #
edge $-1 $447 -3.141592653589793116 $447 3.141592653589793116 $208 $448 forward 7 unknown #
vertex $-1 $211 $449 #
ellipse-curve $-1 0 0 -20 -0 -0 -1 5 0 0 1 I I #
point $-1 -5 -6.123233995736766282e-16 -25 #
coedge $-1 $324 $324 $215 $325 reversed $214 $-1 #
edge $-1 $450 -3.141592653589793116 $450 3.141592653589793116 $215 $451 forward 7 unknown #
vertex $-1 $216 $452 #
ellipse-curve $-1 0 0 -45 0 0 1 0 21.79449471770336899 0 1 I I #
point $-1 5 0 -45 #
face $-1 $453 $454 $30 $-1 $455 reversed single #
loop $-1 $-1 $456 $220 #
plane-surface $-1 20 0 0 -1 0 0 0 0 1 forward_v I I I I #
coedge $-1 $457 $458 $459 $460 reversed $221 $-1 #
coedge $-1 $461 $222 $224 $340 reversed $137 $-1 #
coedge $-1 $222 $461 $462 $463 forward $137 $-1 #
coedge $-1 $464 $225 $222 $336 reversed $342 $-1 #
edge $-1 $465 3.75 $343 8.75 $222 $466 forward 7 unknown #
coedge $-1 $224 $223 $458 $467 forward $84 $-1 #
coedge $-1 $468 $459 $223 $339 forward $454 $-1 #
edge $-1 $469 -5 $344 5 $223 $470 forward 7 unknown #
edge $-1 $471 -5 $343 5 $333 $472 forward 7 unknown #
coedge $-1 $225 $464 $468 $473 reversed $342 $-1 #
loop $-1 $-1 $335 $453 #
vertex $-1 $336 $474 #
vertex $-1 $226 $475 #
straight-curve $-1 15 0 -5 0 -1 0 I I #
face $-1 $476 $477 $19 $-1 $34 forward single #
loop $-1 $-1 $236 $227 #
coedge $-1 $478 $479 $235 $361 forward $228 $-1 #
coedge $-1 $480 $230 $479 $481 reversed $141 $-1 #
coedge $-1 $230 $480 $231 $354 forward $141 $-1 #
coedge $-1 $233 $235 $230 $352 reversed $51 $-1 #
edge $-1 $359 5 $482 11.58312395177700083 $230 $483 forward 7 unknown #
coedge $-1 $232 $231 $484 $485 forward $87 $-1 #
edge $-1 $486 1.107148717794090409 $359 2.034443935795702707 $350 $487 forward 7 unknown #
coedge $-1 $488 $489 $232 $356 reversed $490 $-1 #
edge $-1 $491 -1.932163450701604557 $358 -1.209429202888188781 $232 $492 forward 7 unknown #
coedge $-1 $238 $233 $489 $493 reversed $51 $-1 #
vertex $-1 $493 $494 #
vertex $-1 $352 $495 #
ellipse-curve $-1 0 0 -5 -0 -0 -1 0 14.14213562373095101 0 1 I I #
edge $-1 $482 -0.5426391022496527272 $364 3.684231755839445732 $348 $496 forward 7 unknown #
coedge $-1 $497 $236 $242 $375 reversed $347 $-1 #
coedge $-1 $236 $497 $478 $498 reversed $347 $-1 #
vertex $-1 $498 $499 #
straight-curve $-1 10 5 -5 0 1 0 I I #
coedge $-1 $500 $501 $238 $367 forward $502 $-1 #
edge $-1 $371 -16.25 $503 -11.25 $366 $504 forward 7 unknown #
coedge $-1 $505 $239 $501 $506 reversed $370 $-1 #
coedge $-1 $239 $505 $241 $374 forward $370 $-1 #
loop $-1 $-1 $239 $507 #
vertex $-1 $240 $508 #
straight-curve $-1 0 -1.25 -5 0 -1 0 I I #
coedge $-1 $242 $241 $509 $510 forward $243 $-1 #
edge $-1 $511 -5 $245 5 $241 $512 forward 7 unknown #
edge $-1 $513 -5 $244 5 $362 $514 forward 7 unknown #
face $515 $516 $243 $19 $-1 $517 reversed single #
point $-1 10 0 -5 #
point $-1 0 0 -5 #
face $-1 $395 $388 $13 $-1 $518 reversed single #
plane-surface $-1 60 0 0 1 0 0 0 0 -1 forward_v I I I I #
coedge $-1 $405 $252 $249 $382 reversed $259 $-1 #
edge $-1 $409 -10.25 $384 -5.25 $249 $519 forward 7 unknown #
edge $-1 $268 -5 $384 5 $267 $520 forward 7 unknown #
vertex $-1 $382 $521 #
straight-curve $-1 51.25 -13 -5 -1 0 0 I I #
edge $-1 $389 -18 $391 13 $254 $522 forward 7 unknown #
coedge $-1 $400 $255 $258 $394 forward $388 $-1 #
loop $-1 $-1 $387 $379 #
vertex $-1 $256 $523 #
straight-curve $-1 65 18 0 0 0 -1 I I #
vertex $-1 $257 $524 #
straight-curve $-1 65 -13 0 -0 -0 -1 I I #
coedge $-1 $258 $405 $402 $525 reversed $259 $-1 #
edge $-1 $261 -18.75 $526 -13.75 $387 $527 forward 7 unknown #
face $-1 $-1 $259 $13 $-1 $23 reversed single #
point $-1 65 -13 -5 #
point $-1 65 18 -5 #
straight-curve $-1 51.25 -13 5 1 0 -0 I I #
point $-1 80 -13 5 #
coedge $-1 $270 $387 $272 $403 reversed $388 $-1 #
straight-curve $-1 46.25 18 5 1 0 -0 I I #
coedge $-1 $273 $272 $393 $525 forward $274 $-1 #
edge $-1 $275 -5 $526 5 $400 $528 forward 7 unknown #
point $-1 60 18 5 #
coedge $-1 $393 $381 $277 $406 reversed $259 $-1 #
edge $-1 $407 13.75 $409 33.75 $277 $529 forward 7 unknown #
vertex $-1 $406 $530 #
straight-curve $-1 60 -18 0 0 0 -1 I I #
vertex $-1 $406 $531 #
straight-curve $-1 80 -18 0 0 0 -1 I I #
coedge $-1 $284 $293 $288 $416 reversed $282 $-1 #
coedge $-1 $293 $284 $283 $413 reversed $282 $-1 #
edge $-1 $296 -0.5426391022496527272 $286 3.684231755839445732 $283 $532 forward 7 unknown #
straight-curve $-1 55 0 5 0 -1 0 I I #
point $-1 55 16.58312395177700083 5 #
edge $-1 $289 2.356194490192344837 $295 7.068583470577034511 $288 $533 forward 7 unknown #
point $-1 55 10 5 #
straight-curve $-1 55 0 5 0 -1 0 I I #
point $-1 55 -10 5 #
point $-1 55 -16.58312395177700083 5 #
face $-1 $-1 $534 $64 $-1 $29 reversed single #
loop $-1 $535 $536 $297 #
plane-surface $-1 -17.5 -25 -5 0 0 1 1 0 0 forward_v I I I I #
loop $-1 $-1 $537 $190 #
coedge $-1 $425 $425 $538 $539 forward $298 $-1 #
coedge $-1 $426 $426 $537 $540 forward $300 $-1 #
coedge $-1 $427 $427 $301 $428 reversed $535 $-1 #
edge $-1 $541 -3.141592653589793116 $541 3.141592653589793116 $301 $542 forward 7 unknown #
loop $-1 $543 $307 $302 #
plane-surface $-1 -17.5 -25 -30 0 0 1 1 0 0 forward_v I I I I #
loop $-1 $-1 $544 $192 #
coedge $-1 $432 $432 $433 $545 forward $303 $-1 #
coedge $-1 $433 $433 $432 $545 reversed $304 $-1 #
edge $-1 $546 -3.141592653589793116 $546 3.141592653589793116 $305 $547 forward 7 unknown #
vertex $-1 $308 $548 #
ellipse-curve $-1 0 0 -30 -0 -0 -1 5 0 0 1 I I #
loop $-1 $-1 $438 $197 #
coedge $-1 $438 $438 $311 $439 reversed $437 $-1 #
edge $-1 $549 -3.141592653589793116 $549 3.141592653589793116 $311 $550 forward 7 unknown #
vertex $-1 $314 $551 #
ellipse-curve $-1 0 0 -15 0 0 1 0 47.69696007084728251 0 1 I I #
vertex $-1 $315 $552 #
ellipse-curve $-1 0 0 -10 -0 -0 -1 0 -48.98979485566356118 0 1 I I #
point $-1 -5 6.123233995736766282e-16 -10 #
coedge $-1 $445 $445 $319 $446 reversed $318 $-1 #
edge $-1 $553 -3.141592653589793116 $553 3.141592653589793116 $319 $554 forward 7 unknown #
vertex $-1 $320 $555 #
ellipse-curve $-1 0 0 -25 0 0 1 0 43.30127018922193116 0 1 I I #
point $-1 -5 6.123233995736766282e-16 -20 #
vertex $-1 $325 $556 #
ellipse-curve $-1 0 0 -40 -0 -0 -1 0 -30 0 1 I I #
point $-1 2.669055819506932737e-15 -21.79449471770336899 -45 #
face $-1 $-1 $342 $30 $-1 $23 reversed single #
loop $-1 $-1 $468 $329 #
plane-surface $-1 17.5 -18 0 0 1 0 0 0 1 forward_v I I I I #
coedge $-1 $462 $557 $464 $558 forward $330 $-1 #
coedge $-1 $559 $332 $560 $561 reversed $221 $-1 #
coedge $-1 $332 $559 $337 $467 reversed $221 $-1 #
coedge $-1 $338 $562 $332 $460 forward $454 $-1 #
edge $-1 $563 3.75 $469 8.75 $459 $564 forward 7 unknown #
coedge $-1 $334 $333 $559 $565 forward $137 $-1 #
coedge $-1 $560 $456 $334 $463 reversed $330 $-1 #
edge $-1 $566 -5 $465 5 $462 $567 forward 7 unknown #
coedge $-1 $341 $335 $456 $558 reversed $342 $-1 #
vertex $-1 $336 $568 #
straight-curve $-1 23.75 18 -5 -1 0 0 I I #
edge $-1 $469 -18 $471 18 $337 $569 forward 7 unknown #
coedge $-1 $562 $338 $341 $473 forward $454 $-1 #
vertex $-1 $339 $570 #
straight-curve $-1 15 -18 0 0 0 -1 I I #
vertex $-1 $340 $571 #
straight-curve $-1 15 18 0 0 0 -1 I I #
edge $-1 $344 -8.75 $572 -3.75 $468 $573 forward 7 unknown #
point $-1 15 18 -5 #
point $-1 15 -18 -5 #
face $-1 $376 $490 $19 $-1 $574 reversed single #
loop $-1 $-1 $575 $346 #
coedge $-1 $576 $348 $363 $498 forward $228 $-1 #
coedge $-1 $348 $576 $349 $481 forward $228 $-1 #
coedge $-1 $350 $349 $577 $578 forward $141 $-1 #
edge $-1 $579 -1.863639098523472093 $482 -1.277953555066321245 $479 $580 forward 7 unknown #
vertex $-1 $361 $581 #
straight-curve $-1 10 5 -5 0 1 0 I I #
coedge $-1 $577 $582 $353 $485 reversed $477 $-1 #
edge $-1 $486 2.356194490192344837 $491 6.644552431086293787 $353 $583 forward 7 unknown #
vertex $-1 $354 $584 #
ellipse-curve $-1 10 0 0 -1 -0 -0 0 0 11.18033988749894903 1 I I #
coedge $-1 $585 $355 $582 $586 forward $490 $-1 #
coedge $-1 $355 $585 $357 $493 forward $490 $-1 #
loop $-1 $-1 $489 $476 #
vertex $-1 $356 $587 #
ellipse-curve $-1 5 0 0 1 0 0 0 0 -14.14213562373095101 1 I I #
edge $-1 $503 1.25 $358 9.478756555322954469 $489 $588 forward 7 unknown #
point $-1 5 -13.22875655532295447 -5 #
point $-1 10 10 -5 #
ellipse-curve $-1 0 0 -5 0 0 1 0 19.36491673103708422 0 1 I I #
coedge $-1 $363 $362 $589 $590 forward $347 $-1 #
edge $-1 $364 1.277953555066321245 $591 1.863639098523472093 $478 $580 forward 7 unknown #
point $-1 10 -16.58312395177700083 -5 #
coedge $-1 $592 $366 $585 $593 reversed $502 $-1 #
coedge $-1 $366 $592 $368 $506 forward $502 $-1 #
loop $-1 $-1 $366 $516 #
vertex $-1 $367 $594 #
straight-curve $-1 16.25 -5 -5 1 0 0 I I #
coedge $-1 $369 $368 $595 $596 forward $370 $-1 #
edge $-1 $597 -5 $371 5 $368 $598 forward 7 unknown #
face $599 $-1 $370 $19 $-1 $600 reversed single #
point $-1 0 -5 -5 #
coedge $-1 $595 $589 $373 $510 reversed $477 $-1 #
edge $-1 $511 -18.75 $513 -8.75 $373 $601 forward 7 unknown #
vertex $-1 $374 $602 #
straight-curve $-1 0 0 0 0 0 -1 I I #
vertex $-1 $375 $603 #
straight-curve $-1 10 0 0 0 0 -1 I I #
fmesh-eye-attrib $-1 $-1 $-1 $376 #
face $604 $507 $502 $19 $-1 $605 reversed single #
plane-surface $-1 7.5 0 0 0 -1 0 0 0 -1 forward_v I I I I #
plane-surface $-1 62.5 18 0 0 -1 0 0 0 -1 forward_v I I I I #
straight-curve $-1 80 -7.75 -5 0 1 -0 I I #
straight-curve $-1 80 -13 0 0 0 -1 I I #
point $-1 80 -13 -5 #
straight-curve $-1 65 0 5 0 -1 0 I I #
point $-1 65 18 5 #
point $-1 65 -13 5 #
edge $-1 $526 -18 $407 18 $402 $606 forward 7 unknown #
vertex $-1 $525 $607 #
straight-curve $-1 46.25 18 -5 -1 0 0 I I #
straight-curve $-1 60 18 0 0 0 -1 I I #
straight-curve $-1 46.25 -18 -5 1 0 0 I I #
point $-1 60 -18 -5 #
point $-1 80 -18 -5 #
ellipse-curve $-1 45 0 5 -0 -0 -1 0 -19.36491673103708422 0 1 I I #
ellipse-curve $-1 45 0 5 0 0 1 0 -14.14213562373095101 0 1 I I #
loop $-1 $608 $609 $421 #
loop $-1 $-1 $427 $297 #
coedge $-1 $536 $536 $609 $610 forward $422 $-1 #
coedge $-1 $537 $537 $426 $540 reversed $424 $-1 #
coedge $-1 $538 $538 $425 $539 reversed $608 $-1 #
edge $-1 $611 0 $611 6.283185307179586232 $425 $612 forward 7 unknown #
edge $-1 $613 -3.141592653589793116 $613 3.141592653589793116 $426 $614 forward 7 unknown #
vertex $-1 $428 $615 #
ellipse-curve $-1 0 0 -5 0 0 1 0 49.74937185533099893 0 1 I I #
loop $-1 $-1 $616 $302 #
coedge $-1 $544 $544 $616 $617 forward $431 $-1 #
edge $-1 $618 -3.141592653589793116 $618 3.141592653589793116 $432 $619 forward 7 unknown #
vertex $-1 $434 $620 #
ellipse-curve $-1 0 0 -35 0 0 1 5 0 0 1 I I #
point $-1 -5 6.123233995736766282e-16 -30 #
vertex $-1 $439 $621 #
ellipse-curve $-1 0 0 -15 0 0 1 5 0 0 1 I I #
point $-1 5.841192947982223989e-15 -47.69696007084728251 -15 #
point $-1 5.999519546087384998e-15 48.98979485566356118 -10 #
vertex $-1 $446 $622 #
ellipse-curve $-1 0 0 -20 -0 -0 -1 0 -45.82575694955839651 0 1 I I #
point $-1 5.302876193624534032e-15 -43.30127018922193116 -25 #
point $-1 3.673940397442059967e-15 30 -40 #
coedge $-1 $456 $560 $562 $623 forward $330 $-1 #
edge $-1 $572 -18 $465 18 $456 $624 forward 7 unknown #
coedge $-1 $458 $457 $461 $565 reversed $221 $-1 #
coedge $-1 $557 $462 $457 $561 forward $330 $-1 #
edge $-1 $566 -18 $563 18 $560 $625 forward 7 unknown #
coedge $-1 $459 $468 $557 $623 reversed $454 $-1 #
vertex $-1 $623 $626 #
straight-curve $-1 23.75 -18 5 -1 0 0 I I #
edge $-1 $471 -8.75 $566 -3.75 $461 $627 forward 7 unknown #
vertex $-1 $463 $628 #
straight-curve $-1 20 18 0 0 0 -1 I I #
point $-1 20 18 -5 #
straight-curve $-1 15 0 5 0 1 0 I I #
point $-1 15 -18 5 #
point $-1 15 18 5 #
vertex $-1 $558 $629 #
straight-curve $-1 23.75 -18 -5 1 0 0 I I #
plane-surface $-1 5 -7.5 0 1 0 0 0 0 -1 forward_v I I I I #
coedge $-1 $582 $595 $592 $630 reversed $477 $-1 #
coedge $-1 $479 $478 $631 $632 forward $228 $-1 #
coedge $-1 $631 $484 $480 $578 reversed $477 $-1 #
edge $-1 $579 -11.58312395177700083 $486 -5 $480 $633 forward 7 unknown #
vertex $-1 $481 $634 #
ellipse-curve $-1 10 0 0 -1 -0 -0 0 0 -17.3205080756887746 1 I I #
point $-1 10 16.58312395177700083 -5 #
coedge $-1 $484 $575 $488 $586 reversed $477 $-1 #
ellipse-curve $-1 0 0 5 0 0 1 0 -14.14213562373095101 0 1 I I #
point $-1 10 10 5 #
coedge $-1 $489 $488 $500 $593 forward $490 $-1 #
edge $-1 $491 -9.478756555322954469 $635 -1.25 $488 $636 forward 7 unknown #
point $-1 5 -13.22875655532295447 5 #
straight-curve $-1 5 -3.75 -5 0 -1 0 I I #
coedge $-1 $509 $631 $497 $590 reversed $477 $-1 #
edge $-1 $513 5 $591 21.58312395177700083 $497 $637 forward 7 unknown #
vertex $-1 $590 $638 #
coedge $-1 $501 $500 $575 $630 forward $502 $-1 #
edge $-1 $635 -5 $503 5 $585 $639 forward 7 unknown #
point $-1 5 -5 -5 #
coedge $-1 $575 $509 $505 $596 reversed $477 $-1 #
edge $-1 $597 -3.75 $511 1.25 $505 $640 forward 7 unknown #
vertex $-1 $506 $641 #
straight-curve $-1 0 -5 0 0 0 -1 I I #
fmesh-eye-attrib $-1 $-1 $-1 $507 #
plane-surface $-1 0 -2.5 0 1 0 0 0 0 -1 forward_v I I I I #
straight-curve $-1 18.75 0 5 1 0 -0 I I #
point $-1 0 0 5 #
point $-1 10 0 5 #
fmesh-eye-attrib $-1 $-1 $-1 $516 #
plane-surface $-1 2.5 -5 0 0 1 0 0 0 1 forward_v I I I I #
straight-curve $-1 60 0 -5 0 -1 0 I I #
point $-1 60 18 -5 #
loop $-1 $-1 $538 $421 #
coedge $-1 $609 $609 $536 $610 reversed $534 $-1 #
edge $-1 $642 -3.141592653589793116 $642 3.141592653589793116 $536 $643 forward 7 unknown #
vertex $-1 $539 $644 #
ellipse-curve $-1 0 0 0 -0 -0 -1 5 0 0 1 I I #
vertex $-1 $540 $645 #
ellipse-curve $-1 0 0 0 -0 -0 -1 0 -50 0 1 I I #
point $-1 6.092540900222252912e-15 -49.74937185533099893 -5 #
coedge $-1 $616 $616 $544 $617 reversed $543 $-1 #
edge $-1 $646 -3.141592653589793116 $646 3.141592653589793116 $544 $647 forward 7 unknown #
vertex $-1 $545 $648 #
ellipse-curve $-1 0 0 -35 0 0 1 0 35.7071421427142468 0 1 I I #
point $-1 -5 -6.123233995736766282e-16 -35 #
point $-1 -5 -6.123233995736766282e-16 -15 #
point $-1 5.612036656678126633e-15 45.82575694955839651 -20 #
edge $-1 $563 -5 $572 5 $557 $649 forward 7 unknown #
straight-curve $-1 20 0 -5 0 1 -0 I I #
straight-curve $-1 20 0 5 0 -1 0 I I #
point $-1 20 -18 5 #
straight-curve $-1 23.75 18 5 1 0 -0 I I #
point $-1 20 18 5 #
point $-1 20 -18 -5 #
edge $-1 $635 11.25 $597 16.25 $592 $650 forward 7 unknown #
coedge $-1 $589 $577 $576 $632 reversed $477 $-1 #
edge $-1 $591 -0.5426391022496527272 $579 3.684231755839445732 $576 $651 forward 7 unknown #
straight-curve $-1 10 5 5 0 -1 0 I I #
point $-1 10 16.58312395177700083 5 #
vertex $-1 $593 $652 #
straight-curve $-1 5 -3.75 5 0 1 0 I I #
straight-curve $-1 10 5 5 0 -1 0 I I #
point $-1 10 -16.58312395177700083 5 #
straight-curve $-1 5 -5 0 0 0 -1 I I #
straight-curve $-1 0 -1.25 5 0 1 0 I I #
point $-1 0 -5 5 #
vertex $-1 $610 $653 #
ellipse-curve $-1 0 0 -5 0 0 1 5 0 0 1 I I #
point $-1 5 0 0 #
point $-1 6.123233995736766085e-15 50 0 #
vertex $-1 $617 $654 #
ellipse-curve $-1 0 0 -30 -0 -0 -1 0 -40 0 1 I I #
point $-1 4.372863733177456728e-15 -35.7071421427142468 -35 #
straight-curve $-1 20 -18 0 0 0 -1 I I #
straight-curve $-1 16.25 -5 5 -1 0 0 I I #
ellipse-curve $-1 0 0 5 -0 -0 -1 0 -19.36491673103708422 0 1 I I #
point $-1 5 -5 5 #
point $-1 -5 -6.123233995736766282e-16 -5 #
point $-1 4.898587196589413026e-15 40 -30 #
End-of-ACIS-data 