600 0 3 0           
94 GICL ACIS Healer - Source: /gicl/data5/repository/giclLogo/giclShortSliceCylTogether.sat - 6 0 18 ACIS 6.0.3 Solaris 24 Sat Apr 13 00:28:18 2002 
1 9.999999999999999547e-07 1.000000000000000036e-10 
body $3 $4 $-1 $-1 #
body $5 $6 $-1 $-1 #
body $7 $8 $-1 $-1 #
rgb_color-st-attrib $-1 $-1 $-1 $0 0 0 1 #
lump $-1 $9 $10 $0 #
rgb_color-st-attrib $-1 $-1 $-1 $1 1 1 0 #
lump $-1 $-1 $11 $1 #
rgb_color-st-attrib $-1 $-1 $-1 $2 0 0 1 #
lump $-1 $-1 $12 $2 #
lump $-1 $13 $14 $0 #
shell $-1 $-1 $-1 $15 $-1 $4 #
shell $-1 $-1 $-1 $16 $-1 $6 #
shell $-1 $-1 $-1 $17 $-1 $8 #
lump $-1 $18 $19 $0 #
shell $-1 $-1 $-1 $20 $-1 $9 #
face $21 $22 $23 $10 $-1 $24 reversed single #
face $-1 $25 $26 $11 $-1 $27 forward single #
face $28 $-1 $-1 $12 $-1 $29 forward single #
lump $-1 $-1 $30 $0 #
shell $-1 $-1 $-1 $31 $-1 $13 #
face $32 $33 $34 $14 $-1 $35 forward single #
fmesh-eye-attrib $-1 $-1 $-1 $15 #
face $36 $37 $38 $10 $-1 $39 forward single #
loop $-1 $-1 $40 $15 #
plane-surface $-1 30 0 -10 0 0 1 1 0 0 forward_v I I I I #
face $-1 $41 $42 $11 $-1 $27 forward single #
loop $-1 $43 $44 $16 #
cone-surface $-1 17.5 25 -30 0 0 -1 25 0 0 1 I I 0 1 25 forward I I I I #
fmesh-eye-attrib $-1 $-1 $-1 $17 #
sphere-surface $-1 17.5 25 -10 5 1 0 0 0 0 1 forward_v I I I I #
shell $-1 $-1 $-1 $45 $-1 $18 #
face $46 $47 $48 $19 $-1 $24 reversed single #
fmesh-eye-attrib $-1 $-1 $-1 $20 #
face $49 $50 $51 $14 $-1 $52 reversed single #
loop $-1 $-1 $53 $20 #
plane-surface $-1 30 0 0 0 0 1 1 0 0 forward_v I I I I #
fmesh-eye-attrib $-1 $-1 $-1 $22 #
face $54 $55 $56 $10 $-1 $57 forward single #
loop $-1 $-1 $58 $22 #
plane-surface $-1 55 0 -5 1 0 0 0 0 -1 forward_v I I I I #
coedge $-1 $59 $60 $61 $62 reversed $23 $-1 #
face $-1 $63 $64 $11 $-1 $27 forward single #
loop $-1 $65 $66 $25 #
loop $-1 $-1 $67 $16 #
coedge $-1 $44 $44 $68 $69 reversed $26 $-1 #
face $70 $71 $72 $30 $-1 $73 reversed single #
fmesh-eye-attrib $-1 $-1 $-1 $31 #
face $74 $75 $76 $19 $-1 $77 reversed single #
loop $-1 $-1 $78 $31 #
fmesh-eye-attrib $-1 $-1 $-1 $33 #
face $79 $80 $81 $14 $-1 $82 reversed single #
loop $-1 $-1 $83 $33 #
plane-surface $-1 65 0 -5 -1 0 0 0 0 1 forward_v I I I I #
coedge $-1 $84 $85 $86 $87 reversed $34 $-1 #
fmesh-eye-attrib $-1 $-1 $-1 $37 #
face $88 $89 $90 $10 $-1 $39 forward single #
loop $-1 $-1 $91 $37 #
sphere-surface $-1 45 0 -5 20 1 0 0 0 0 1 forward_v I I I I #
coedge $-1 $92 $93 $94 $95 forward $38 $-1 #
coedge $-1 $94 $40 $91 $96 reversed $23 $-1 #
coedge $-1 $40 $94 $97 $98 reversed $23 $-1 #
coedge $-1 $99 $100 $40 $62 forward $90 $-1 #
edge $-1 $101 -16.58312395177700083 $102 -10 $61 $103 forward 7 unknown #
face $-1 $104 $105 $11 $-1 $27 forward single #
loop $-1 $106 $107 $41 #
loop $-1 $-1 $108 $25 #
coedge $-1 $66 $66 $109 $110 reversed $42 $-1 #
coedge $-1 $67 $67 $111 $112 reversed $43 $-1 #
coedge $-1 $68 $68 $44 $69 forward $113 $-1 #
edge $-1 $114 -3.141592653589793116 $114 3.141592653589793116 $68 $115 forward 7 unknown #
fmesh-eye-attrib $-1 $-1 $-1 $45 #
face $116 $117 $118 $30 $-1 $119 reversed single #
loop $-1 $-1 $120 $45 #
plane-surface $-1 15 0 -5 1 0 0 0 0 -1 forward_v I I I I #
fmesh-eye-attrib $-1 $-1 $-1 $47 #
face $121 $122 $123 $19 $-1 $124 forward single #
loop $-1 $-1 $125 $47 #
sphere-surface $-1 0 0 -5 15 1 0 0 0 0 1 forward_v I I I I #
coedge $-1 $126 $127 $128 $129 reversed $48 $-1 #
fmesh-eye-attrib $-1 $-1 $-1 $50 #
face $130 $131 $132 $14 $-1 $133 reversed single #
loop $-1 $-1 $134 $50 #
plane-surface $-1 72.5 -13 -5 0 -1 0 0 0 -1 forward_v I I I I #
coedge $-1 $135 $136 $137 $138 forward $51 $-1 #
coedge $-1 $139 $53 $140 $141 reversed $34 $-1 #
coedge $-1 $53 $142 $143 $144 reversed $34 $-1 #
coedge $-1 $145 $146 $53 $87 forward $147 $-1 #
edge $-1 $148 -33.75 $149 -13.75 $86 $150 forward 7 unknown #
fmesh-eye-attrib $-1 $-1 $-1 $55 #
face $151 $152 $153 $10 $-1 $154 reversed single #
loop $-1 $-1 $61 $55 #
coedge $-1 $155 $156 $59 $96 forward $56 $-1 #
coedge $-1 $157 $58 $156 $158 reversed $38 $-1 #
coedge $-1 $58 $157 $159 $160 forward $38 $-1 #
coedge $-1 $60 $59 $58 $95 reversed $23 $-1 #
edge $-1 $161 10 $162 16.58312395177700083 $58 $163 forward 7 unknown #
edge $-1 $162 -0.5426391022496527272 $101 3.684231755839445732 $91 $164 forward 7 unknown #
coedge $-1 $159 $165 $60 $98 forward $153 $-1 #
edge $-1 $102 2.356194490192344837 $161 7.068583470577034511 $97 $166 forward 7 unknown #
coedge $-1 $167 $61 $165 $168 forward $90 $-1 #
coedge $-1 $61 $167 $155 $169 reversed $90 $-1 #
vertex $-1 $169 $170 #
vertex $-1 $168 $171 #
straight-curve $-1 55 0 -10 0 1 0 I I #
face $172 $173 $174 $11 $-1 $175 forward single #
loop $-1 $176 $177 $63 #
loop $-1 $-1 $178 $41 #
coedge $-1 $107 $107 $179 $180 reversed $64 $-1 #
coedge $-1 $108 $108 $181 $182 reversed $65 $-1 #
coedge $-1 $109 $109 $66 $110 forward $183 $-1 #
edge $-1 $184 -3.141592653589793116 $184 3.141592653589793116 $109 $185 forward 7 unknown #
coedge $-1 $111 $111 $67 $112 forward $186 $-1 #
edge $-1 $187 -3.141592653589793116 $187 3.141592653589793116 $111 $188 forward 7 unknown #
loop $-1 $189 $68 $190 #
vertex $-1 $69 $191 #
ellipse-curve $-1 17.5 25 -25 0 0 1 25 0 0 1 I I #
fmesh-eye-attrib $-1 $-1 $-1 $71 #
face $192 $193 $194 $30 $-1 $35 forward single #
loop $-1 $-1 $195 $71 #
plane-surface $-1 17.5 18 -5 0 -1 0 0 0 -1 forward_v I I I I #
coedge $-1 $196 $197 $198 $199 forward $72 $-1 #
fmesh-eye-attrib $-1 $-1 $-1 $75 #
face $200 $201 $202 $19 $-1 $203 forward single #
loop $-1 $-1 $204 $75 #
plane-surface $-1 10 10 5 1 0 0 0 0 -1 forward_v I I I I #
coedge $-1 $205 $206 $207 $208 forward $76 $-1 #
coedge $-1 $209 $78 $210 $211 reversed $48 $-1 #
coedge $-1 $78 $212 $213 $214 reversed $48 $-1 #
coedge $-1 $215 $216 $78 $129 forward $217 $-1 #
edge $-1 $218 8.75 $219 18.75 $128 $220 forward 7 unknown #
fmesh-eye-attrib $-1 $-1 $-1 $80 #
face $221 $222 $147 $14 $-1 $223 reversed single #
loop $-1 $-1 $224 $80 #
plane-surface $-1 80 -15.5 -5 -1 0 0 0 0 1 forward_v I I I I #
coedge $-1 $225 $226 $227 $228 forward $81 $-1 #
coedge $-1 $229 $83 $230 $231 reversed $51 $-1 #
coedge $-1 $83 $229 $225 $232 forward $51 $-1 #
coedge $-1 $227 $233 $83 $138 reversed $234 $-1 #
edge $-1 $235 -13 $236 18 $83 $237 forward 7 unknown #
coedge $-1 $238 $84 $239 $240 reversed $34 $-1 #
coedge $-1 $241 $242 $84 $141 forward $132 $-1 #
edge $-1 $243 5.25 $148 10.25 $140 $244 forward 7 unknown #
coedge $-1 $85 $238 $245 $246 reversed $34 $-1 #
coedge $-1 $247 $248 $85 $144 forward $249 $-1 #
edge $-1 $149 -18 $250 18 $143 $251 forward 7 unknown #
coedge $-1 $252 $86 $248 $253 forward $147 $-1 #
coedge $-1 $86 $252 $241 $254 reversed $147 $-1 #
loop $-1 $-1 $252 $131 #
vertex $-1 $254 $255 #
vertex $-1 $253 $256 #
straight-curve $-1 46.25 -18 0 -1 0 0 I I #
fmesh-eye-attrib $-1 $-1 $-1 $89 #
face $257 $-1 $258 $10 $-1 $35 forward single #
loop $-1 $-1 $97 $89 #
sphere-surface $-1 45 0 -5 15 1 0 0 0 0 1 forward_v I I I I #
coedge $-1 $259 $91 $100 $169 forward $56 $-1 #
coedge $-1 $91 $259 $92 $158 forward $56 $-1 #
coedge $-1 $93 $92 $260 $261 forward $38 $-1 #
edge $-1 $262 -1.863639098523472093 $162 -1.277953555066321245 $156 $263 forward 7 unknown #
coedge $-1 $264 $97 $93 $160 reversed $153 $-1 #
edge $-1 $265 1.107148717794090409 $161 2.034443935795702707 $93 $266 forward 7 unknown #
vertex $-1 $98 $267 #
vertex $-1 $96 $268 #
straight-curve $-1 55 0 -10 0 1 0 I I #
ellipse-curve $-1 45 0 -10 0 0 1 0 19.36491673103708422 0 1 I I #
coedge $-1 $97 $264 $99 $168 reversed $153 $-1 #
ellipse-curve $-1 45 0 -10 -0 -0 -1 0 14.14213562373095101 0 1 I I #
coedge $-1 $100 $99 $269 $270 forward $90 $-1 #
edge $-1 $102 -2.034443935795702707 $271 -1.107148717794090409 $99 $266 forward 7 unknown #
edge $-1 $101 1.277953555066321245 $272 1.863639098523472093 $155 $263 forward 7 unknown #
point $-1 55 -16.58312395177700083 -10 #
point $-1 55 -10 -10 #
fmesh-eye-attrib $-1 $-1 $-1 $104 #
face $273 $274 $275 $11 $-1 $276 forward single #
loop $-1 $-1 $277 $104 #
sphere-surface $-1 17.5 25 -55 5 1 0 0 0 0 1 forward_v I I I I #
loop $-1 $-1 $278 $63 #
coedge $-1 $177 $177 $279 $280 reversed $105 $-1 #
coedge $-1 $178 $178 $281 $282 reversed $106 $-1 #
coedge $-1 $179 $179 $107 $180 forward $283 $-1 #
edge $-1 $284 -3.141592653589793116 $284 3.141592653589793116 $179 $285 forward 7 unknown #
coedge $-1 $181 $181 $108 $182 forward $286 $-1 #
edge $-1 $287 -3.141592653589793116 $287 3.141592653589793116 $181 $288 forward 7 unknown #
loop $-1 $289 $109 $290 #
vertex $-1 $110 $291 #
ellipse-curve $-1 17.5 25 -40 -0 -0 -1 25 0 0 1 I I #
loop $-1 $292 $111 $293 #
vertex $-1 $112 $294 #
ellipse-curve $-1 17.5 25 -30 -0 -0 -1 25 0 0 1 I I #
loop $-1 $-1 $295 $190 #
face $296 $297 $113 $11 $-1 $298 reversed single #
point $-1 -7.5 24.99999999999999645 -25 #
fmesh-eye-attrib $-1 $-1 $-1 $117 #
face $299 $300 $301 $30 $-1 $302 reversed single #
loop $-1 $-1 $303 $117 #
coedge $-1 $304 $305 $306 $307 forward $118 $-1 #
coedge $-1 $308 $120 $309 $310 reversed $72 $-1 #
coedge $-1 $120 $308 $304 $311 forward $72 $-1 #
coedge $-1 $306 $312 $120 $199 reversed $313 $-1 #
edge $-1 $314 -18 $315 18 $120 $316 forward 7 unknown #
fmesh-eye-attrib $-1 $-1 $-1 $122 #
face $317 $318 $319 $19 $-1 $124 forward single #
loop $-1 $-1 $320 $122 #
sphere-surface $-1 0 0 -5 20 1 0 0 0 0 1 forward_v I I I I #
coedge $-1 $321 $322 $323 $324 forward $123 $-1 #
coedge $-1 $325 $125 $322 $326 reversed $76 $-1 #
coedge $-1 $125 $325 $327 $328 forward $76 $-1 #
coedge $-1 $329 $323 $125 $208 reversed $48 $-1 #
edge $-1 $330 2.780225529683085561 $331 7.068583470577034511 $125 $332 forward 7 unknown #
coedge $-1 $323 $126 $320 $333 reversed $48 $-1 #
coedge $-1 $334 $335 $126 $211 forward $319 $-1 #
edge $-1 $336 -21.58312395177700083 $218 -5 $210 $337 forward 7 unknown #
coedge $-1 $127 $329 $338 $339 reversed $48 $-1 #
coedge $-1 $340 $341 $127 $214 forward $342 $-1 #
edge $-1 $219 -1.25 $343 3.75 $213 $344 forward 7 unknown #
coedge $-1 $345 $128 $341 $346 reversed $217 $-1 #
coedge $-1 $128 $345 $334 $347 forward $217 $-1 #
loop $-1 $-1 $128 $348 #
vertex $-1 $129 $349 #
vertex $-1 $129 $350 #
straight-curve $-1 18.75 0 -10 -1 0 0 I I #
fmesh-eye-attrib $-1 $-1 $-1 $131 #
face $351 $352 $249 $14 $-1 $353 reversed single #
plane-surface $-1 62.5 -18 -5 0 1 0 0 0 1 forward_v I I I I #
coedge $-1 $242 $241 $354 $355 forward $132 $-1 #
coedge $-1 $239 $134 $136 $232 reversed $81 $-1 #
coedge $-1 $134 $239 $242 $356 forward $81 $-1 #
coedge $-1 $354 $137 $134 $228 reversed $234 $-1 #
edge $-1 $357 -28.75 $235 -13.75 $134 $358 forward 7 unknown #
coedge $-1 $136 $135 $238 $359 forward $51 $-1 #
coedge $-1 $360 $245 $135 $231 forward $361 $-1 #
edge $-1 $362 -5 $236 5 $135 $363 forward 7 unknown #
edge $-1 $364 -5 $235 5 $136 $365 forward 7 unknown #
coedge $-1 $137 $366 $360 $367 reversed $234 $-1 #
loop $-1 $-1 $227 $368 #
vertex $-1 $228 $369 #
vertex $-1 $367 $370 #
straight-curve $-1 65 0 -10 0 1 0 I I #
coedge $-1 $142 $139 $229 $359 reversed $34 $-1 #
coedge $-1 $226 $225 $139 $240 forward $81 $-1 #
edge $-1 $364 13.75 $243 28.75 $239 $371 forward 7 unknown #
coedge $-1 $224 $140 $146 $254 forward $132 $-1 #
coedge $-1 $140 $224 $226 $356 reversed $132 $-1 #
vertex $-1 $356 $372 #
straight-curve $-1 80 -7.75 0 0 -1 0 I I #
coedge $-1 $230 $373 $142 $246 forward $361 $-1 #
edge $-1 $250 13.75 $362 18.75 $245 $374 forward 7 unknown #
coedge $-1 $375 $143 $373 $376 forward $249 $-1 #
coedge $-1 $143 $375 $145 $253 reversed $249 $-1 #
loop $-1 $-1 $375 $222 #
vertex $-1 $376 $377 #
straight-curve $-1 60 0 0 0 1 0 I I #
coedge $-1 $146 $145 $378 $379 forward $147 $-1 #
edge $-1 $149 -5 $380 5 $248 $381 forward 7 unknown #
edge $-1 $148 -5 $382 5 $241 $383 forward 7 unknown #
point $-1 80 -18 0 #
point $-1 60 -18 0 #
fmesh-eye-attrib $-1 $-1 $-1 $152 #
loop $-1 $-1 $384 $152 #
coedge $-1 $156 $155 $385 $386 forward $56 $-1 #
coedge $-1 $385 $384 $157 $261 reversed $258 $-1 #
edge $-1 $262 -16.58312395177700083 $265 -10 $157 $387 forward 7 unknown #
vertex $-1 $158 $388 #
ellipse-curve $-1 55 0 -5 -1 -0 -0 0 0 -17.3205080756887746 1 I I #
coedge $-1 $165 $159 $384 $389 forward $153 $-1 #
vertex $-1 $160 $390 #
ellipse-curve $-1 55 0 -5 -1 -0 -0 0 0 11.18033988749894903 1 I I #
point $-1 55 10 -10 #
point $-1 55 16.58312395177700083 -10 #
coedge $-1 $384 $385 $167 $270 reversed $258 $-1 #
edge $-1 $271 10 $272 16.58312395177700083 $167 $391 forward 7 unknown #
vertex $-1 $389 $392 #
vertex $-1 $270 $393 #
fmesh-eye-attrib $-1 $-1 $-1 $173 #
face $394 $395 $396 $11 $-1 $397 forward single #
loop $-1 $398 $399 $173 #
sphere-surface $-1 17.5 25 -10 50 1 0 0 0 0 1 forward_v I I I I #
coedge $-1 $277 $277 $400 $401 reversed $174 $-1 #
coedge $-1 $278 $278 $402 $403 reversed $176 $-1 #
coedge $-1 $279 $279 $177 $280 forward $404 $-1 #
edge $-1 $405 -3.141592653589793116 $405 3.141592653589793116 $279 $406 forward 7 unknown #
coedge $-1 $281 $281 $178 $282 forward $407 $-1 #
edge $-1 $408 -3.141592653589793116 $408 3.141592653589793116 $281 $409 forward 7 unknown #
loop $-1 $410 $179 $411 #
vertex $-1 $180 $412 #
ellipse-curve $-1 17.5 25 -20 -0 -0 -1 25 0 0 1 I I #
loop $-1 $413 $181 $297 #
vertex $-1 $182 $414 #
ellipse-curve $-1 17.5 25 -35 0 0 1 25 0 0 1 I I #
loop $-1 $-1 $415 $290 #
face $416 $411 $183 $11 $-1 $417 forward single #
point $-1 -7.5 25.00000000000000355 -40 #
loop $-1 $-1 $418 $293 #
face $419 $420 $186 $11 $-1 $421 forward single #
point $-1 -7.5 25.00000000000000355 -30 #
coedge $-1 $295 $295 $422 $423 reversed $189 $-1 #
fmesh-eye-attrib $-1 $-1 $-1 $190 #
face $424 $425 $286 $11 $-1 $426 reversed single #
plane-surface $-1 0 0 -25 0 0 1 1 0 0 forward_v I I I I #
fmesh-eye-attrib $-1 $-1 $-1 $193 #
face $427 $428 $429 $30 $-1 $430 reversed single #
loop $-1 $-1 $431 $193 #
plane-surface $-1 20 0 -5 -1 0 0 0 0 1 forward_v I I I I #
coedge $-1 $432 $433 $434 $435 reversed $194 $-1 #
coedge $-1 $436 $195 $197 $311 reversed $118 $-1 #
coedge $-1 $195 $436 $437 $438 forward $118 $-1 #
coedge $-1 $439 $198 $195 $307 reversed $313 $-1 #
edge $-1 $440 3.75 $314 8.75 $195 $441 forward 7 unknown #
coedge $-1 $197 $196 $433 $442 forward $72 $-1 #
coedge $-1 $443 $434 $196 $310 forward $429 $-1 #
edge $-1 $444 -5 $315 5 $196 $445 forward 7 unknown #
edge $-1 $446 -5 $314 5 $304 $447 forward 7 unknown #
coedge $-1 $198 $439 $443 $448 reversed $313 $-1 #
loop $-1 $-1 $306 $428 #
vertex $-1 $307 $449 #
vertex $-1 $199 $450 #
straight-curve $-1 15 0 -10 0 -1 0 I I #
fmesh-eye-attrib $-1 $-1 $-1 $201 #
face $451 $452 $453 $19 $-1 $35 forward single #
loop $-1 $-1 $210 $201 #
coedge $-1 $454 $455 $209 $333 forward $202 $-1 #
coedge $-1 $456 $204 $455 $457 reversed $123 $-1 #
coedge $-1 $204 $456 $205 $326 forward $123 $-1 #
coedge $-1 $207 $209 $204 $324 reversed $48 $-1 #
edge $-1 $331 5 $458 11.58312395177700083 $204 $459 forward 7 unknown #
coedge $-1 $206 $205 $460 $461 forward $76 $-1 #
edge $-1 $462 1.107148717794090409 $331 2.034443935795702707 $322 $463 forward 7 unknown #
coedge $-1 $464 $465 $206 $328 reversed $466 $-1 #
edge $-1 $467 -1.932163450701604557 $330 -1.209429202888188781 $206 $468 forward 7 unknown #
coedge $-1 $212 $207 $465 $469 reversed $48 $-1 #
vertex $-1 $469 $470 #
vertex $-1 $324 $471 #
ellipse-curve $-1 0 0 -10 -0 -0 -1 0 14.14213562373095101 0 1 I I #
edge $-1 $458 -0.5426391022496527272 $336 3.684231755839445732 $320 $472 forward 7 unknown #
coedge $-1 $473 $210 $216 $347 reversed $319 $-1 #
coedge $-1 $210 $473 $454 $474 reversed $319 $-1 #
vertex $-1 $474 $475 #
straight-curve $-1 10 5 -10 0 1 0 I I #
coedge $-1 $476 $477 $212 $339 forward $478 $-1 #
edge $-1 $343 -16.25 $479 -11.25 $338 $480 forward 7 unknown #
coedge $-1 $481 $213 $477 $482 reversed $342 $-1 #
coedge $-1 $213 $481 $215 $346 forward $342 $-1 #
loop $-1 $-1 $213 $483 #
vertex $-1 $214 $484 #
straight-curve $-1 0 -1.25 -10 0 -1 0 I I #
coedge $-1 $216 $215 $485 $486 forward $217 $-1 #
edge $-1 $487 -5 $219 5 $215 $488 forward 7 unknown #
edge $-1 $489 -5 $218 5 $334 $490 forward 7 unknown #
face $491 $492 $217 $19 $-1 $493 reversed single #
point $-1 10 0 -10 #
point $-1 0 0 -10 #
fmesh-eye-attrib $-1 $-1 $-1 $222 #
face $494 $368 $361 $14 $-1 $495 reversed single #
plane-surface $-1 60 0 -5 1 0 0 0 0 -1 forward_v I I I I #
coedge $-1 $378 $227 $224 $355 reversed $234 $-1 #
edge $-1 $382 -10.25 $357 -5.25 $224 $496 forward 7 unknown #
edge $-1 $243 -5 $357 5 $242 $497 forward 7 unknown #
vertex $-1 $355 $498 #
straight-curve $-1 51.25 -13 -10 -1 0 0 I I #
edge $-1 $362 -18 $364 13 $229 $499 forward 7 unknown #
coedge $-1 $373 $230 $233 $367 forward $361 $-1 #
loop $-1 $-1 $360 $352 #
vertex $-1 $231 $500 #
straight-curve $-1 65 18 -5 0 0 -1 I I #
vertex $-1 $232 $501 #
straight-curve $-1 65 -13 -5 -0 -0 -1 I I #
coedge $-1 $233 $378 $375 $502 reversed $234 $-1 #
edge $-1 $236 -18.75 $503 -13.75 $360 $504 forward 7 unknown #
face $505 $-1 $234 $14 $-1 $24 reversed single #
point $-1 65 -13 -10 #
point $-1 65 18 -10 #
straight-curve $-1 51.25 -13 0 1 0 0 I I #
point $-1 80 -13 0 #
coedge $-1 $245 $360 $247 $376 reversed $361 $-1 #
straight-curve $-1 46.25 18 0 1 0 0 I I #
coedge $-1 $248 $247 $366 $502 forward $249 $-1 #
edge $-1 $250 -5 $503 5 $373 $506 forward 7 unknown #
point $-1 60 18 0 #
coedge $-1 $366 $354 $252 $379 reversed $234 $-1 #
edge $-1 $380 13.75 $382 33.75 $252 $507 forward 7 unknown #
vertex $-1 $379 $508 #
straight-curve $-1 60 -18 -5 0 0 -1 I I #
vertex $-1 $379 $509 #
straight-curve $-1 80 -18 -5 0 0 -1 I I #
coedge $-1 $260 $269 $264 $389 reversed $258 $-1 #
coedge $-1 $269 $260 $259 $386 reversed $258 $-1 #
edge $-1 $272 -0.5426391022496527272 $262 3.684231755839445732 $259 $510 forward 7 unknown #
straight-curve $-1 55 0 0 0 -1 0 I I #
point $-1 55 16.58312395177700083 0 #
edge $-1 $265 2.356194490192344837 $271 7.068583470577034511 $264 $511 forward 7 unknown #
point $-1 55 10 0 #
straight-curve $-1 55 0 0 0 -1 0 I I #
point $-1 55 -10 0 #
point $-1 55 -16.58312395177700083 0 #
fmesh-eye-attrib $-1 $-1 $-1 $274 #
face $512 $513 $407 $11 $-1 $514 reversed single #
loop $-1 $-1 $515 $274 #
plane-surface $-1 0 0 -10 0 0 1 1 0 0 forward_v I I I I #
loop $-1 $-1 $516 $173 #
coedge $-1 $399 $399 $517 $518 forward $275 $-1 #
coedge $-1 $400 $400 $277 $401 forward $519 $-1 #
edge $-1 $520 -3.141592653589793116 $520 3.141592653589793116 $400 $521 forward 7 unknown #
coedge $-1 $402 $402 $278 $403 forward $522 $-1 #
edge $-1 $523 0 $523 6.283185307179586232 $402 $524 forward 7 unknown #
loop $-1 $525 $279 $513 #
vertex $-1 $280 $526 #
ellipse-curve $-1 17.5 25 -45 0 0 1 25 0 0 1 I I #
loop $-1 $527 $281 $395 #
vertex $-1 $282 $528 #
ellipse-curve $-1 17.5 25 -15 0 0 1 25 0 0 1 I I #
loop $-1 $-1 $529 $411 #
face $530 $531 $283 $11 $-1 $532 forward single #
point $-1 -7.5 25.00000000000000355 -20 #
loop $-1 $-1 $533 $297 #
point $-1 -7.5 24.99999999999999645 -35 #
coedge $-1 $415 $415 $534 $535 reversed $289 $-1 #
fmesh-eye-attrib $-1 $-1 $-1 $290 #
plane-surface $-1 0 0 -40 0 0 1 1 0 0 forward_v I I I I #
coedge $-1 $418 $418 $536 $537 reversed $292 $-1 #
fmesh-eye-attrib $-1 $-1 $-1 $293 #
face $538 $539 $519 $11 $-1 $540 reversed single #
plane-surface $-1 0 0 -30 0 0 1 1 0 0 forward_v I I I I #
coedge $-1 $422 $422 $295 $423 forward $541 $-1 #
edge $-1 $542 -3.141592653589793116 $542 3.141592653589793116 $422 $543 forward 7 unknown #
fmesh-eye-attrib $-1 $-1 $-1 $297 #
face $544 $293 $545 $11 $-1 $276 forward single #
plane-surface $-1 0 0 -35 0 0 1 1 0 0 forward_v I I I I #
fmesh-eye-attrib $-1 $-1 $-1 $300 #
face $546 $-1 $313 $30 $-1 $24 reversed single #
loop $-1 $-1 $443 $300 #
plane-surface $-1 17.5 -18 -5 0 1 0 0 0 1 forward_v I I I I #
coedge $-1 $437 $547 $439 $548 forward $301 $-1 #
coedge $-1 $549 $303 $550 $551 reversed $194 $-1 #
coedge $-1 $303 $549 $308 $442 reversed $194 $-1 #
coedge $-1 $309 $552 $303 $435 forward $429 $-1 #
edge $-1 $553 3.75 $444 8.75 $434 $554 forward 7 unknown #
coedge $-1 $305 $304 $549 $555 forward $118 $-1 #
coedge $-1 $550 $431 $305 $438 reversed $301 $-1 #
edge $-1 $556 -5 $440 5 $437 $557 forward 7 unknown #
coedge $-1 $312 $306 $431 $548 reversed $313 $-1 #
vertex $-1 $307 $558 #
straight-curve $-1 23.75 18 -10 -1 0 0 I I #
edge $-1 $444 -18 $446 18 $308 $559 forward 7 unknown #
coedge $-1 $552 $309 $312 $448 forward $429 $-1 #
vertex $-1 $310 $560 #
straight-curve $-1 15 -18 -5 0 0 -1 I I #
vertex $-1 $311 $561 #
straight-curve $-1 15 18 -5 0 0 -1 I I #
edge $-1 $315 -8.75 $562 -3.75 $443 $563 forward 7 unknown #
point $-1 15 18 -10 #
point $-1 15 -18 -10 #
fmesh-eye-attrib $-1 $-1 $-1 $318 #
face $564 $348 $466 $19 $-1 $565 reversed single #
loop $-1 $-1 $566 $318 #
coedge $-1 $567 $320 $335 $474 forward $202 $-1 #
coedge $-1 $320 $567 $321 $457 forward $202 $-1 #
coedge $-1 $322 $321 $568 $569 forward $123 $-1 #
edge $-1 $570 -1.863639098523472093 $458 -1.277953555066321245 $455 $571 forward 7 unknown #
vertex $-1 $333 $572 #
straight-curve $-1 10 5 -10 0 1 0 I I #
coedge $-1 $568 $573 $325 $461 reversed $453 $-1 #
edge $-1 $462 2.356194490192344837 $467 6.644552431086293787 $325 $574 forward 7 unknown #
vertex $-1 $326 $575 #
ellipse-curve $-1 10 0 -5 -1 -0 -0 0 0 11.18033988749894903 1 I I #
coedge $-1 $576 $327 $573 $577 forward $466 $-1 #
coedge $-1 $327 $576 $329 $469 forward $466 $-1 #
loop $-1 $-1 $465 $452 #
vertex $-1 $328 $578 #
ellipse-curve $-1 5 0 -5 1 0 0 0 0 -14.14213562373095101 1 I I #
edge $-1 $479 1.25 $330 9.478756555322954469 $465 $579 forward 7 unknown #
point $-1 5 -13.22875655532295447 -10 #
point $-1 10 10 -10 #
ellipse-curve $-1 0 0 -10 0 0 1 0 19.36491673103708422 0 1 I I #
coedge $-1 $335 $334 $580 $581 forward $319 $-1 #
edge $-1 $336 1.277953555066321245 $582 1.863639098523472093 $454 $571 forward 7 unknown #
point $-1 10 -16.58312395177700083 -10 #
coedge $-1 $583 $338 $576 $584 reversed $478 $-1 #
coedge $-1 $338 $583 $340 $482 forward $478 $-1 #
loop $-1 $-1 $338 $492 #
vertex $-1 $339 $585 #
straight-curve $-1 16.25 -5 -10 1 0 0 I I #
coedge $-1 $341 $340 $586 $587 forward $342 $-1 #
edge $-1 $588 -5 $343 5 $340 $589 forward 7 unknown #
face $590 $-1 $342 $19 $-1 $591 reversed single #
point $-1 0 -5 -10 #
coedge $-1 $586 $580 $345 $486 reversed $453 $-1 #
edge $-1 $487 -18.75 $489 -8.75 $345 $592 forward 7 unknown #
vertex $-1 $346 $593 #
straight-curve $-1 0 0 -5 0 0 -1 I I #
vertex $-1 $347 $594 #
straight-curve $-1 10 0 -5 0 0 -1 I I #
fmesh-eye-attrib $-1 $-1 $-1 $348 #
face $595 $483 $478 $19 $-1 $596 reversed single #
plane-surface $-1 7.5 0 -5 0 -1 0 0 0 -1 forward_v I I I I #
fmesh-eye-attrib $-1 $-1 $-1 $352 #
plane-surface $-1 62.5 18 -5 0 -1 0 0 0 -1 forward_v I I I I #
straight-curve $-1 80 -7.75 -10 0 1 0 I I #
straight-curve $-1 80 -13 -5 0 0 -1 I I #
point $-1 80 -13 -10 #
straight-curve $-1 65 0 0 0 -1 0 I I #
point $-1 65 18 0 #
point $-1 65 -13 0 #
edge $-1 $503 -18 $380 18 $375 $597 forward 7 unknown #
vertex $-1 $502 $598 #
straight-curve $-1 46.25 18 -10 -1 0 0 I I #
fmesh-eye-attrib $-1 $-1 $-1 $368 #
straight-curve $-1 60 18 -5 0 0 -1 I I #
straight-curve $-1 46.25 -18 -10 1 0 0 I I #
point $-1 60 -18 -10 #
point $-1 80 -18 -10 #
ellipse-curve $-1 45 0 0 -0 -0 -1 0 -19.36491673103708422 0 1 I I #
ellipse-curve $-1 45 0 0 0 0 1 0 -14.14213562373095101 0 1 I I #
fmesh-eye-attrib $-1 $-1 $-1 $395 #
face $599 $600 $404 $11 $-1 $601 reversed single #
plane-surface $-1 0 0 -15 0 0 1 1 0 0 forward_v I I I I #
coedge $-1 $515 $515 $516 $602 reversed $396 $-1 #
coedge $-1 $516 $516 $515 $602 forward $398 $-1 #
coedge $-1 $517 $517 $399 $518 reversed $527 $-1 #
edge $-1 $603 -3.141592653589793116 $603 3.141592653589793116 $399 $604 forward 7 unknown #
loop $-1 $605 $400 $420 #
vertex $-1 $401 $606 #
ellipse-curve $-1 17.5 25 -55 0 0 1 0 -5 0 1 I I #
loop $-1 $607 $402 $608 #
vertex $-1 $403 $609 #
ellipse-curve $-1 17.5 25 -50 -0 -0 -1 25 0 0 1 I I #
loop $-1 $-1 $610 $513 #
point $-1 -7.5 24.99999999999999645 -45 #
loop $-1 $-1 $517 $395 #
point $-1 -7.5 24.99999999999999645 -15 #
coedge $-1 $529 $529 $611 $612 reversed $410 $-1 #
fmesh-eye-attrib $-1 $-1 $-1 $411 #
face $613 $190 $541 $11 $-1 $276 forward single #
plane-surface $-1 0 0 -20 0 0 1 1 0 0 forward_v I I I I #
coedge $-1 $533 $533 $614 $615 reversed $413 $-1 #
coedge $-1 $534 $534 $415 $535 forward $616 $-1 #
edge $-1 $617 -3.141592653589793116 $617 3.141592653589793116 $534 $618 forward 7 unknown #
coedge $-1 $536 $536 $418 $537 forward $619 $-1 #
edge $-1 $620 -3.141592653589793116 $620 3.141592653589793116 $536 $621 forward 7 unknown #
fmesh-eye-attrib $-1 $-1 $-1 $420 #
face $622 $608 $623 $11 $-1 $276 forward single #
plane-surface $-1 0 0 -55 0 0 1 1 0 0 forward_v I I I I #
loop $-1 $624 $422 $531 #
vertex $-1 $423 $625 #
ellipse-curve $-1 17.5 25 -25 0 0 1 0 47.69696007084728251 0 1 I I #
fmesh-eye-attrib $-1 $-1 $-1 $425 #
loop $-1 $619 $614 $425 #
fmesh-eye-attrib $-1 $-1 $-1 $428 #
coedge $-1 $431 $550 $552 $626 forward $301 $-1 #
edge $-1 $562 -18 $440 18 $431 $627 forward 7 unknown #
coedge $-1 $433 $432 $436 $555 reversed $194 $-1 #
coedge $-1 $547 $437 $432 $551 forward $301 $-1 #
edge $-1 $556 -18 $553 18 $550 $628 forward 7 unknown #
coedge $-1 $434 $443 $547 $626 reversed $429 $-1 #
vertex $-1 $626 $629 #
straight-curve $-1 23.75 -18 0 -1 0 0 I I #
edge $-1 $446 -8.75 $556 -3.75 $436 $630 forward 7 unknown #
vertex $-1 $438 $631 #
straight-curve $-1 20 18 -5 0 0 -1 I I #
point $-1 20 18 -10 #
straight-curve $-1 15 0 0 0 1 0 I I #
point $-1 15 -18 0 #
point $-1 15 18 0 #
vertex $-1 $548 $632 #
straight-curve $-1 23.75 -18 -10 1 0 0 I I #
fmesh-eye-attrib $-1 $-1 $-1 $452 #
plane-surface $-1 5 -7.5 -5 1 0 0 0 0 -1 forward_v I I I I #
coedge $-1 $573 $586 $583 $633 reversed $453 $-1 #
coedge $-1 $455 $454 $634 $635 forward $202 $-1 #
coedge $-1 $634 $460 $456 $569 reversed $453 $-1 #
edge $-1 $570 -11.58312395177700083 $462 -5 $456 $636 forward 7 unknown #
vertex $-1 $457 $637 #
ellipse-curve $-1 10 0 -5 -1 -0 -0 0 0 -17.3205080756887746 1 I I #
point $-1 10 16.58312395177700083 -10 #
coedge $-1 $460 $566 $464 $577 reversed $453 $-1 #
ellipse-curve $-1 0 0 0 0 0 1 0 -14.14213562373095101 0 1 I I #
point $-1 10 10 0 #
coedge $-1 $465 $464 $476 $584 forward $466 $-1 #
edge $-1 $467 -9.478756555322954469 $638 -1.25 $464 $639 forward 7 unknown #
point $-1 5 -13.22875655532295447 0 #
straight-curve $-1 5 -3.75 -10 0 -1 0 I I #
coedge $-1 $485 $634 $473 $581 reversed $453 $-1 #
edge $-1 $489 5 $582 21.58312395177700083 $473 $640 forward 7 unknown #
vertex $-1 $581 $641 #
coedge $-1 $477 $476 $566 $633 forward $478 $-1 #
edge $-1 $638 -5 $479 5 $576 $642 forward 7 unknown #
point $-1 5 -5 -10 #
coedge $-1 $566 $485 $481 $587 reversed $453 $-1 #
edge $-1 $588 -3.75 $487 1.25 $481 $643 forward 7 unknown #
vertex $-1 $482 $644 #
straight-curve $-1 0 -5 -5 0 0 -1 I I #
fmesh-eye-attrib $-1 $-1 $-1 $483 #
plane-surface $-1 0 -2.5 -5 1 0 0 0 0 -1 forward_v I I I I #
straight-curve $-1 18.75 0 0 1 0 0 I I #
point $-1 0 0 0 #
point $-1 10 0 0 #
fmesh-eye-attrib $-1 $-1 $-1 $492 #
plane-surface $-1 2.5 -5 -5 0 1 0 0 0 1 forward_v I I I I #
straight-curve $-1 60 0 -10 0 -1 0 I I #
point $-1 60 18 -10 #
fmesh-eye-attrib $-1 $-1 $-1 $513 #
face $645 $290 $646 $11 $-1 $276 forward single #
plane-surface $-1 0 0 -45 0 0 1 1 0 0 forward_v I I I I #
edge $-1 $647 -3.141592653589793116 $647 3.141592653589793116 $516 $648 forward 7 unknown #
vertex $-1 $518 $649 #
ellipse-curve $-1 17.5 25 -15 0 0 1 0 49.74937185533099893 0 1 I I #
loop $-1 $-1 $650 $420 #
point $-1 17.5 30 -55 #
loop $-1 $-1 $651 $608 #
face $652 $-1 $522 $11 $-1 $653 forward single #
point $-1 42.5 25 -50 #
coedge $-1 $610 $610 $654 $655 reversed $525 $-1 #
coedge $-1 $611 $611 $529 $612 forward $624 $-1 #
edge $-1 $656 -3.141592653589793116 $656 3.141592653589793116 $611 $657 forward 7 unknown #
fmesh-eye-attrib $-1 $-1 $-1 $531 #
coedge $-1 $614 $614 $533 $615 forward $545 $-1 #
edge $-1 $658 -3.141592653589793116 $658 3.141592653589793116 $614 $659 forward 7 unknown #
loop $-1 $-1 $534 $600 #
vertex $-1 $535 $660 #
ellipse-curve $-1 17.5 25 -40 -0 -0 -1 0 -40 0 1 I I #
loop $-1 $-1 $536 $425 #
vertex $-1 $537 $661 #
ellipse-curve $-1 17.5 25 -30 -0 -0 -1 0 -45.82575694955839651 0 1 I I #
fmesh-eye-attrib $-1 $-1 $-1 $539 #
loop $-1 $662 $663 $539 #
loop $-1 $-1 $611 $531 #
point $-1 17.50000000000000711 -22.69696007084728251 -25 #
edge $-1 $553 -5 $562 5 $547 $664 forward 7 unknown #
straight-curve $-1 20 0 -10 0 1 0 I I #
straight-curve $-1 20 0 0 0 -1 0 I I #
point $-1 20 -18 0 #
straight-curve $-1 23.75 18 0 1 0 0 I I #
point $-1 20 18 0 #
point $-1 20 -18 -10 #
edge $-1 $638 11.25 $588 16.25 $583 $665 forward 7 unknown #
coedge $-1 $580 $568 $567 $635 reversed $453 $-1 #
edge $-1 $582 -0.5426391022496527272 $570 3.684231755839445732 $567 $666 forward 7 unknown #
straight-curve $-1 10 5 0 0 -1 0 I I #
point $-1 10 16.58312395177700083 0 #
vertex $-1 $584 $667 #
straight-curve $-1 5 -3.75 0 0 1 0 I I #
straight-curve $-1 10 5 0 0 -1 0 I I #
point $-1 10 -16.58312395177700083 0 #
straight-curve $-1 5 -5 -5 0 0 -1 I I #
straight-curve $-1 0 -1.25 0 0 1 0 I I #
point $-1 0 -5 0 #
fmesh-eye-attrib $-1 $-1 $-1 $600 #
loop $-1 $616 $654 $600 #
vertex $-1 $602 $668 #
ellipse-curve $-1 17.5 25 -10 -0 -0 -1 0 -50 0 1 I I #
point $-1 17.50000000000000711 -24.74937185533099893 -15 #
coedge $-1 $650 $650 $663 $669 reversed $605 $-1 #
coedge $-1 $651 $651 $670 $671 reversed $607 $-1 #
fmesh-eye-attrib $-1 $-1 $-1 $608 #
plane-surface $-1 0 0 -50 0 0 1 1 0 0 forward_v I I I I #
coedge $-1 $654 $654 $610 $655 forward $646 $-1 #
edge $-1 $672 -3.141592653589793116 $672 3.141592653589793116 $654 $673 forward 7 unknown #
vertex $-1 $612 $674 #
ellipse-curve $-1 17.5 25 -20 -0 -0 -1 0 -48.98979485566356118 0 1 I I #
vertex $-1 $615 $675 #
ellipse-curve $-1 17.5 25 -35 0 0 1 0 43.30127018922193116 0 1 I I #
point $-1 17.50000000000000355 65 -40 #
point $-1 17.50000000000000711 70.82575694955839651 -30 #
loop $-1 $-1 $670 $539 #
coedge $-1 $663 $663 $650 $669 forward $623 $-1 #
straight-curve $-1 20 -18 -5 0 0 -1 I I #
straight-curve $-1 16.25 -5 0 -1 0 0 I I #
ellipse-curve $-1 0 0 0 -0 -0 -1 0 -19.36491673103708422 0 1 I I #
point $-1 5 -5 0 #
point $-1 17.50000000000000711 75 -10 #
edge $-1 $676 -3.141592653589793116 $676 3.141592653589793116 $663 $677 forward 7 unknown #
coedge $-1 $670 $670 $651 $671 forward $662 $-1 #
edge $-1 $678 -3.141592653589793116 $678 3.141592653589793116 $670 $679 forward 7 unknown #
vertex $-1 $655 $680 #
ellipse-curve $-1 17.5 25 -45 0 0 1 0 35.7071421427142468 0 1 I I #
point $-1 17.50000000000000711 73.98979485566356118 -20 #
point $-1 17.50000000000000355 -18.30127018922193116 -35 #
vertex $-1 $669 $681 #
ellipse-curve $-1 17.5 25 -55 0 0 1 0 21.79449471770336899 0 1 I I #
vertex $-1 $671 $682 #
ellipse-curve $-1 17.5 25 -50 -0 -0 -1 0 -30 0 1 I I #
point $-1 17.50000000000000355 -10.7071421427142468 -45 #
point $-1 17.50000000000000355 3.205505282296631009 -55 #
point $-1 17.50000000000000355 55 -50 #
End-of-ACIS-data 