600 0 1 0           
78 GICL ACIS Healer - Source: /gicl/data5/repository/giclLogo/giclShort.sat - 6 0 18 ACIS 6.0.3 Solaris 24 Sat Apr 13 00:28:16 2002 
1 9.999999999999999547e-07 1.000000000000000036e-10 
body $1 $2 $-1 $3 #
rgb_color-st-attrib $-1 $-1 $-1 $0 0 0 1 #
lump $-1 $4 $5 $0 #
transform $-1 1 0 0 0 1 0 0 0 1 0 0 0 1 no_rotate no_reflect no_shear #
lump $-1 $6 $7 $0 #
shell $-1 $-1 $-1 $8 $-1 $2 #
lump $-1 $9 $10 $0 #
shell $-1 $-1 $-1 $11 $-1 $4 #
face $-1 $12 $13 $5 $-1 $14 reversed single #
lump $-1 $-1 $15 $0 #
shell $-1 $-1 $-1 $16 $-1 $6 #
face $-1 $17 $18 $7 $-1 $19 forward single #
face $-1 $20 $21 $5 $-1 $22 forward single #
loop $-1 $-1 $23 $8 #
plane-surface $-1 30 0 -5 0 0 1 1 0 0 forward_v I I I I #
shell $-1 $-1 $-1 $24 $-1 $9 #
face $-1 $25 $26 $10 $-1 $14 reversed single #
face $-1 $27 $28 $7 $-1 $29 reversed single #
loop $-1 $-1 $30 $11 #
plane-surface $-1 30 0 5 0 0 1 1 0 0 forward_v I I I I #
face $-1 $31 $32 $5 $-1 $33 forward single #
loop $-1 $-1 $34 $12 #
plane-surface $-1 55 0 0 1 0 0 0 0 -1 forward_v I I I I #
coedge $-1 $35 $36 $37 $38 reversed $13 $-1 #
face $39 $40 $41 $15 $-1 $42 reversed single #
face $-1 $43 $44 $10 $-1 $45 reversed single #
loop $-1 $-1 $46 $16 #
face $47 $48 $49 $7 $-1 $50 reversed single #
loop $-1 $-1 $51 $17 #
plane-surface $-1 65 0 0 -1 0 0 0 0 1 forward_v I I I I #
coedge $-1 $52 $53 $54 $55 reversed $18 $-1 #
face $56 $57 $58 $5 $-1 $22 forward single #
loop $-1 $-1 $59 $20 #
sphere-surface $-1 45 0 0 20 1 0 0 0 0 1 forward_v I I I I #
coedge $-1 $60 $61 $62 $63 forward $21 $-1 #
coedge $-1 $62 $23 $59 $64 reversed $13 $-1 #
coedge $-1 $23 $62 $65 $66 reversed $13 $-1 #
coedge $-1 $67 $68 $23 $38 forward $58 $-1 #
edge $-1 $69 -16.58312395177700083 $70 -10 $37 $71 forward 7 unknown #
fmesh-eye-attrib $-1 $-1 $-1 $24 #
face $-1 $72 $73 $15 $-1 $74 reversed single #
loop $-1 $-1 $75 $24 #
plane-surface $-1 15 0 0 1 0 0 0 0 -1 forward_v I I I I #
face $-1 $76 $77 $10 $-1 $78 forward single #
loop $-1 $-1 $79 $25 #
sphere-surface $-1 0 0 0 15 1 0 0 0 0 1 forward_v I I I I #
coedge $-1 $80 $81 $82 $83 reversed $26 $-1 #
fmesh-eye-attrib $-1 $-1 $-1 $27 #
face $84 $85 $86 $7 $-1 $87 reversed single #
loop $-1 $-1 $88 $27 #
plane-surface $-1 72.5 -13 0 0 -1 0 0 0 -1 forward_v I I I I #
coedge $-1 $89 $90 $91 $92 forward $28 $-1 #
coedge $-1 $93 $30 $94 $95 reversed $18 $-1 #
coedge $-1 $30 $96 $97 $98 reversed $18 $-1 #
coedge $-1 $99 $100 $30 $55 forward $101 $-1 #
edge $-1 $102 -33.75 $103 -13.75 $54 $104 forward 7 unknown #
fmesh-eye-attrib $-1 $-1 $-1 $31 #
face $105 $106 $107 $5 $-1 $108 reversed single #
loop $-1 $-1 $37 $31 #
coedge $-1 $109 $110 $35 $64 forward $32 $-1 #
coedge $-1 $111 $34 $110 $112 reversed $21 $-1 #
coedge $-1 $34 $111 $113 $114 forward $21 $-1 #
coedge $-1 $36 $35 $34 $63 reversed $13 $-1 #
edge $-1 $115 10 $116 16.58312395177700083 $34 $117 forward 7 unknown #
edge $-1 $116 -0.5426391022496527272 $69 3.684231755839445732 $59 $118 forward 7 unknown #
coedge $-1 $113 $119 $36 $66 forward $107 $-1 #
edge $-1 $70 2.356194490192344837 $115 7.068583470577034511 $65 $120 forward 7 unknown #
coedge $-1 $121 $37 $119 $122 forward $58 $-1 #
coedge $-1 $37 $121 $109 $123 reversed $58 $-1 #
vertex $-1 $123 $124 #
vertex $-1 $122 $125 #
straight-curve $-1 55 0 -5 0 1 0 I I #
face $-1 $126 $127 $15 $-1 $19 forward single #
loop $-1 $-1 $128 $40 #
plane-surface $-1 17.5 18 0 0 -1 0 0 0 -1 forward_v I I I I #
coedge $-1 $129 $130 $131 $132 forward $41 $-1 #
face $-1 $133 $134 $10 $-1 $135 forward single #
loop $-1 $-1 $136 $43 #
plane-surface $-1 10 10 10 1 0 0 0 0 -1 forward_v I I I I #
coedge $-1 $137 $138 $139 $140 forward $44 $-1 #
coedge $-1 $141 $46 $142 $143 reversed $26 $-1 #
coedge $-1 $46 $144 $145 $146 reversed $26 $-1 #
coedge $-1 $147 $148 $46 $83 forward $149 $-1 #
edge $-1 $150 8.75 $151 18.75 $82 $152 forward 7 unknown #
fmesh-eye-attrib $-1 $-1 $-1 $48 #
face $-1 $153 $101 $7 $-1 $154 reversed single #
loop $-1 $-1 $155 $48 #
plane-surface $-1 80 -15.5 0 -1 0 0 0 0 1 forward_v I I I I #
coedge $-1 $156 $157 $158 $159 forward $49 $-1 #
coedge $-1 $160 $51 $161 $162 reversed $28 $-1 #
coedge $-1 $51 $160 $156 $163 forward $28 $-1 #
coedge $-1 $158 $164 $51 $92 reversed $165 $-1 #
edge $-1 $166 -13 $167 18 $51 $168 forward 7 unknown #
coedge $-1 $169 $52 $170 $171 reversed $18 $-1 #
coedge $-1 $172 $173 $52 $95 forward $86 $-1 #
edge $-1 $174 5.25 $102 10.25 $94 $175 forward 7 unknown #
coedge $-1 $53 $169 $176 $177 reversed $18 $-1 #
coedge $-1 $178 $179 $53 $98 forward $180 $-1 #
edge $-1 $103 -18 $181 18 $97 $182 forward 7 unknown #
coedge $-1 $183 $54 $179 $184 forward $101 $-1 #
coedge $-1 $54 $183 $172 $185 reversed $101 $-1 #
loop $-1 $-1 $183 $85 #
vertex $-1 $185 $186 #
vertex $-1 $184 $187 #
straight-curve $-1 46.25 -18 5 -1 0 0 I I #
fmesh-eye-attrib $-1 $-1 $-1 $57 #
face $-1 $-1 $188 $5 $-1 $19 forward single #
loop $-1 $-1 $65 $57 #
sphere-surface $-1 45 0 0 15 1 0 0 0 0 1 forward_v I I I I #
coedge $-1 $189 $59 $68 $123 forward $32 $-1 #
coedge $-1 $59 $189 $60 $112 forward $32 $-1 #
coedge $-1 $61 $60 $190 $191 forward $21 $-1 #
edge $-1 $192 -1.863639098523472093 $116 -1.277953555066321245 $110 $193 forward 7 unknown #
coedge $-1 $194 $65 $61 $114 reversed $107 $-1 #
edge $-1 $195 1.107148717794090409 $115 2.034443935795702707 $61 $196 forward 7 unknown #
vertex $-1 $66 $197 #
vertex $-1 $64 $198 #
straight-curve $-1 55 0 -5 0 1 0 I I #
ellipse-curve $-1 45 0 -5 0 0 1 0 19.36491673103708422 0 1 I I #
coedge $-1 $65 $194 $67 $122 reversed $107 $-1 #
ellipse-curve $-1 45 0 -5 -0 -0 -1 0 14.14213562373095101 0 1 I I #
coedge $-1 $68 $67 $199 $200 forward $58 $-1 #
edge $-1 $70 -2.034443935795702707 $201 -1.107148717794090409 $67 $196 forward 7 unknown #
edge $-1 $69 1.277953555066321245 $202 1.863639098523472093 $109 $193 forward 7 unknown #
point $-1 55 -16.58312395177700083 -5 #
point $-1 55 -10 -5 #
face $-1 $203 $204 $15 $-1 $205 reversed single #
loop $-1 $-1 $206 $72 #
coedge $-1 $207 $208 $209 $210 forward $73 $-1 #
coedge $-1 $211 $75 $212 $213 reversed $41 $-1 #
coedge $-1 $75 $211 $207 $214 forward $41 $-1 #
coedge $-1 $209 $215 $75 $132 reversed $216 $-1 #
edge $-1 $217 -18 $218 18 $75 $219 forward 7 unknown #
face $-1 $220 $221 $10 $-1 $78 forward single #
loop $-1 $-1 $222 $76 #
sphere-surface $-1 0 0 0 20 1 0 0 0 0 1 forward_v I I I I #
coedge $-1 $223 $224 $225 $226 forward $77 $-1 #
coedge $-1 $227 $79 $224 $228 reversed $44 $-1 #
coedge $-1 $79 $227 $229 $230 forward $44 $-1 #
coedge $-1 $231 $225 $79 $140 reversed $26 $-1 #
edge $-1 $232 2.780225529683085561 $233 7.068583470577034511 $79 $234 forward 7 unknown #
coedge $-1 $225 $80 $222 $235 reversed $26 $-1 #
coedge $-1 $236 $237 $80 $143 forward $221 $-1 #
edge $-1 $238 -21.58312395177700083 $150 -5 $142 $239 forward 7 unknown #
coedge $-1 $81 $231 $240 $241 reversed $26 $-1 #
coedge $-1 $242 $243 $81 $146 forward $244 $-1 #
edge $-1 $151 -1.25 $245 3.75 $145 $246 forward 7 unknown #
coedge $-1 $247 $82 $243 $248 reversed $149 $-1 #
coedge $-1 $82 $247 $236 $249 forward $149 $-1 #
loop $-1 $-1 $82 $250 #
vertex $-1 $83 $251 #
vertex $-1 $83 $252 #
straight-curve $-1 18.75 0 -5 -1 0 0 I I #
face $-1 $253 $180 $7 $-1 $254 reversed single #
plane-surface $-1 62.5 -18 0 0 1 0 0 0 1 forward_v I I I I #
coedge $-1 $173 $172 $255 $256 forward $86 $-1 #
coedge $-1 $170 $88 $90 $163 reversed $49 $-1 #
coedge $-1 $88 $170 $173 $257 forward $49 $-1 #
coedge $-1 $255 $91 $88 $159 reversed $165 $-1 #
edge $-1 $258 -28.75 $166 -13.75 $88 $259 forward 7 unknown #
coedge $-1 $90 $89 $169 $260 forward $28 $-1 #
coedge $-1 $261 $176 $89 $162 forward $262 $-1 #
edge $-1 $263 -5 $167 5 $89 $264 forward 7 unknown #
edge $-1 $265 -5 $166 5 $90 $266 forward 7 unknown #
coedge $-1 $91 $267 $261 $268 reversed $165 $-1 #
loop $-1 $-1 $158 $269 #
vertex $-1 $159 $270 #
vertex $-1 $268 $271 #
straight-curve $-1 65 0 -5 0 1 -0 I I #
coedge $-1 $96 $93 $160 $260 reversed $18 $-1 #
coedge $-1 $157 $156 $93 $171 forward $49 $-1 #
edge $-1 $265 13.75 $174 28.75 $170 $272 forward 7 unknown #
coedge $-1 $155 $94 $100 $185 forward $86 $-1 #
coedge $-1 $94 $155 $157 $257 reversed $86 $-1 #
vertex $-1 $257 $273 #
straight-curve $-1 80 -7.75 5 0 -1 0 I I #
coedge $-1 $161 $274 $96 $177 forward $262 $-1 #
edge $-1 $181 13.75 $263 18.75 $176 $275 forward 7 unknown #
coedge $-1 $276 $97 $274 $277 forward $180 $-1 #
coedge $-1 $97 $276 $99 $184 reversed $180 $-1 #
loop $-1 $-1 $276 $153 #
vertex $-1 $277 $278 #
straight-curve $-1 60 0 5 0 1 0 I I #
coedge $-1 $100 $99 $279 $280 forward $101 $-1 #
edge $-1 $103 -5 $281 5 $179 $282 forward 7 unknown #
edge $-1 $102 -5 $283 5 $172 $284 forward 7 unknown #
point $-1 80 -18 5 #
point $-1 60 -18 5 #
loop $-1 $-1 $285 $106 #
coedge $-1 $110 $109 $286 $287 forward $32 $-1 #
coedge $-1 $286 $285 $111 $191 reversed $188 $-1 #
edge $-1 $192 -16.58312395177700083 $195 -10 $111 $288 forward 7 unknown #
vertex $-1 $112 $289 #
ellipse-curve $-1 55 0 0 -1 -0 -0 0 0 -17.3205080756887746 1 I I #
coedge $-1 $119 $113 $285 $290 forward $107 $-1 #
vertex $-1 $114 $291 #
ellipse-curve $-1 55 0 0 -1 -0 -0 0 0 11.18033988749894903 1 I I #
point $-1 55 10 -5 #
point $-1 55 16.58312395177700083 -5 #
coedge $-1 $285 $286 $121 $200 reversed $188 $-1 #
edge $-1 $201 10 $202 16.58312395177700083 $121 $292 forward 7 unknown #
vertex $-1 $290 $293 #
vertex $-1 $200 $294 #
face $-1 $295 $296 $15 $-1 $297 reversed single #
loop $-1 $-1 $298 $126 #
plane-surface $-1 20 0 0 -1 0 0 0 0 1 forward_v I I I I #
coedge $-1 $299 $300 $301 $302 reversed $127 $-1 #
coedge $-1 $303 $128 $130 $214 reversed $73 $-1 #
coedge $-1 $128 $303 $304 $305 forward $73 $-1 #
coedge $-1 $306 $131 $128 $210 reversed $216 $-1 #
edge $-1 $307 3.75 $217 8.75 $128 $308 forward 7 unknown #
coedge $-1 $130 $129 $300 $309 forward $41 $-1 #
coedge $-1 $310 $301 $129 $213 forward $296 $-1 #
edge $-1 $311 -5 $218 5 $129 $312 forward 7 unknown #
edge $-1 $313 -5 $217 5 $207 $314 forward 7 unknown #
coedge $-1 $131 $306 $310 $315 reversed $216 $-1 #
loop $-1 $-1 $209 $295 #
vertex $-1 $210 $316 #
vertex $-1 $132 $317 #
straight-curve $-1 15 0 -5 0 -1 0 I I #
face $-1 $318 $319 $10 $-1 $19 forward single #
loop $-1 $-1 $142 $133 #
coedge $-1 $320 $321 $141 $235 forward $134 $-1 #
coedge $-1 $322 $136 $321 $323 reversed $77 $-1 #
coedge $-1 $136 $322 $137 $228 forward $77 $-1 #
coedge $-1 $139 $141 $136 $226 reversed $26 $-1 #
edge $-1 $233 5 $324 11.58312395177700083 $136 $325 forward 7 unknown #
coedge $-1 $138 $137 $326 $327 forward $44 $-1 #
edge $-1 $328 1.107148717794090409 $233 2.034443935795702707 $224 $329 forward 7 unknown #
coedge $-1 $330 $331 $138 $230 reversed $332 $-1 #
edge $-1 $333 -1.932163450701604557 $232 -1.209429202888188781 $138 $334 forward 7 unknown #
coedge $-1 $144 $139 $331 $335 reversed $26 $-1 #
vertex $-1 $335 $336 #
vertex $-1 $226 $337 #
ellipse-curve $-1 0 0 -5 -0 -0 -1 0 14.14213562373095101 0 1 I I #
edge $-1 $324 -0.5426391022496527272 $238 3.684231755839445732 $222 $338 forward 7 unknown #
coedge $-1 $339 $142 $148 $249 reversed $221 $-1 #
coedge $-1 $142 $339 $320 $340 reversed $221 $-1 #
vertex $-1 $340 $341 #
straight-curve $-1 10 5 -5 0 1 0 I I #
coedge $-1 $342 $343 $144 $241 forward $344 $-1 #
edge $-1 $245 -16.25 $345 -11.25 $240 $346 forward 7 unknown #
coedge $-1 $347 $145 $343 $348 reversed $244 $-1 #
coedge $-1 $145 $347 $147 $248 forward $244 $-1 #
loop $-1 $-1 $145 $349 #
vertex $-1 $146 $350 #
straight-curve $-1 0 -1.25 -5 0 -1 0 I I #
coedge $-1 $148 $147 $351 $352 forward $149 $-1 #
edge $-1 $353 -5 $151 5 $147 $354 forward 7 unknown #
edge $-1 $355 -5 $150 5 $236 $356 forward 7 unknown #
face $357 $358 $149 $10 $-1 $359 reversed single #
point $-1 10 0 -5 #
point $-1 0 0 -5 #
face $-1 $269 $262 $7 $-1 $360 reversed single #
plane-surface $-1 60 0 0 1 0 0 0 0 -1 forward_v I I I I #
coedge $-1 $279 $158 $155 $256 reversed $165 $-1 #
edge $-1 $283 -10.25 $258 -5.25 $155 $361 forward 7 unknown #
edge $-1 $174 -5 $258 5 $173 $362 forward 7 unknown #
vertex $-1 $256 $363 #
straight-curve $-1 51.25 -13 -5 -1 0 0 I I #
edge $-1 $263 -18 $265 13 $160 $364 forward 7 unknown #
coedge $-1 $274 $161 $164 $268 forward $262 $-1 #
loop $-1 $-1 $261 $253 #
vertex $-1 $162 $365 #
straight-curve $-1 65 18 0 0 0 -1 I I #
vertex $-1 $163 $366 #
straight-curve $-1 65 -13 0 -0 -0 -1 I I #
coedge $-1 $164 $279 $276 $367 reversed $165 $-1 #
edge $-1 $167 -18.75 $368 -13.75 $261 $369 forward 7 unknown #
face $-1 $-1 $165 $7 $-1 $14 reversed single #
point $-1 65 -13 -5 #
point $-1 65 18 -5 #
straight-curve $-1 51.25 -13 5 1 0 -0 I I #
point $-1 80 -13 5 #
coedge $-1 $176 $261 $178 $277 reversed $262 $-1 #
straight-curve $-1 46.25 18 5 1 0 -0 I I #
coedge $-1 $179 $178 $267 $367 forward $180 $-1 #
edge $-1 $181 -5 $368 5 $274 $370 forward 7 unknown #
point $-1 60 18 5 #
coedge $-1 $267 $255 $183 $280 reversed $165 $-1 #
edge $-1 $281 13.75 $283 33.75 $183 $371 forward 7 unknown #
vertex $-1 $280 $372 #
straight-curve $-1 60 -18 0 0 0 -1 I I #
vertex $-1 $280 $373 #
straight-curve $-1 80 -18 0 0 0 -1 I I #
coedge $-1 $190 $199 $194 $290 reversed $188 $-1 #
coedge $-1 $199 $190 $189 $287 reversed $188 $-1 #
edge $-1 $202 -0.5426391022496527272 $192 3.684231755839445732 $189 $374 forward 7 unknown #
straight-curve $-1 55 0 5 0 -1 0 I I #
point $-1 55 16.58312395177700083 5 #
edge $-1 $195 2.356194490192344837 $201 7.068583470577034511 $194 $375 forward 7 unknown #
point $-1 55 10 5 #
straight-curve $-1 55 0 5 0 -1 0 I I #
point $-1 55 -10 5 #
point $-1 55 -16.58312395177700083 5 #
face $-1 $-1 $216 $15 $-1 $14 reversed single #
loop $-1 $-1 $310 $203 #
plane-surface $-1 17.5 -18 0 0 1 0 0 0 1 forward_v I I I I #
coedge $-1 $304 $376 $306 $377 forward $204 $-1 #
coedge $-1 $378 $206 $379 $380 reversed $127 $-1 #
coedge $-1 $206 $378 $211 $309 reversed $127 $-1 #
coedge $-1 $212 $381 $206 $302 forward $296 $-1 #
edge $-1 $382 3.75 $311 8.75 $301 $383 forward 7 unknown #
coedge $-1 $208 $207 $378 $384 forward $73 $-1 #
coedge $-1 $379 $298 $208 $305 reversed $204 $-1 #
edge $-1 $385 -5 $307 5 $304 $386 forward 7 unknown #
coedge $-1 $215 $209 $298 $377 reversed $216 $-1 #
vertex $-1 $210 $387 #
straight-curve $-1 23.75 18 -5 -1 0 0 I I #
edge $-1 $311 -18 $313 18 $211 $388 forward 7 unknown #
coedge $-1 $381 $212 $215 $315 forward $296 $-1 #
vertex $-1 $213 $389 #
straight-curve $-1 15 -18 0 0 0 -1 I I #
vertex $-1 $214 $390 #
straight-curve $-1 15 18 0 0 0 -1 I I #
edge $-1 $218 -8.75 $391 -3.75 $310 $392 forward 7 unknown #
point $-1 15 18 -5 #
point $-1 15 -18 -5 #
face $-1 $250 $332 $10 $-1 $393 reversed single #
loop $-1 $-1 $394 $220 #
coedge $-1 $395 $222 $237 $340 forward $134 $-1 #
coedge $-1 $222 $395 $223 $323 forward $134 $-1 #
coedge $-1 $224 $223 $396 $397 forward $77 $-1 #
edge $-1 $398 -1.863639098523472093 $324 -1.277953555066321245 $321 $399 forward 7 unknown #
vertex $-1 $235 $400 #
straight-curve $-1 10 5 -5 0 1 0 I I #
coedge $-1 $396 $401 $227 $327 reversed $319 $-1 #
edge $-1 $328 2.356194490192344837 $333 6.644552431086293787 $227 $402 forward 7 unknown #
vertex $-1 $228 $403 #
ellipse-curve $-1 10 0 0 -1 -0 -0 0 0 11.18033988749894903 1 I I #
coedge $-1 $404 $229 $401 $405 forward $332 $-1 #
coedge $-1 $229 $404 $231 $335 forward $332 $-1 #
loop $-1 $-1 $331 $318 #
vertex $-1 $230 $406 #
ellipse-curve $-1 5 0 0 1 0 0 0 0 -14.14213562373095101 1 I I #
edge $-1 $345 1.25 $232 9.478756555322954469 $331 $407 forward 7 unknown #
point $-1 5 -13.22875655532295447 -5 #
point $-1 10 10 -5 #
ellipse-curve $-1 0 0 -5 0 0 1 0 19.36491673103708422 0 1 I I #
coedge $-1 $237 $236 $408 $409 forward $221 $-1 #
edge $-1 $238 1.277953555066321245 $410 1.863639098523472093 $320 $399 forward 7 unknown #
point $-1 10 -16.58312395177700083 -5 #
coedge $-1 $411 $240 $404 $412 reversed $344 $-1 #
coedge $-1 $240 $411 $242 $348 forward $344 $-1 #
loop $-1 $-1 $240 $358 #
vertex $-1 $241 $413 #
straight-curve $-1 16.25 -5 -5 1 0 0 I I #
coedge $-1 $243 $242 $414 $415 forward $244 $-1 #
edge $-1 $416 -5 $245 5 $242 $417 forward 7 unknown #
face $418 $-1 $244 $10 $-1 $419 reversed single #
point $-1 0 -5 -5 #
coedge $-1 $414 $408 $247 $352 reversed $319 $-1 #
edge $-1 $353 -18.75 $355 -8.75 $247 $420 forward 7 unknown #
vertex $-1 $248 $421 #
straight-curve $-1 0 0 0 0 0 -1 I I #
vertex $-1 $249 $422 #
straight-curve $-1 10 0 0 0 0 -1 I I #
fmesh-eye-attrib $-1 $-1 $-1 $250 #
face $423 $349 $344 $10 $-1 $424 reversed single #
plane-surface $-1 7.5 0 0 0 -1 0 0 0 -1 forward_v I I I I #
plane-surface $-1 62.5 18 0 0 -1 0 0 0 -1 forward_v I I I I #
straight-curve $-1 80 -7.75 -5 0 1 -0 I I #
straight-curve $-1 80 -13 0 0 0 -1 I I #
point $-1 80 -13 -5 #
straight-curve $-1 65 0 5 0 -1 0 I I #
point $-1 65 18 5 #
point $-1 65 -13 5 #
edge $-1 $368 -18 $281 18 $276 $425 forward 7 unknown #
vertex $-1 $367 $426 #
straight-curve $-1 46.25 18 -5 -1 0 0 I I #
straight-curve $-1 60 18 0 0 0 -1 I I #
straight-curve $-1 46.25 -18 -5 1 0 0 I I #
point $-1 60 -18 -5 #
point $-1 80 -18 -5 #
ellipse-curve $-1 45 0 5 -0 -0 -1 0 -19.36491673103708422 0 1 I I #
ellipse-curve $-1 45 0 5 0 0 1 0 -14.14213562373095101 0 1 I I #
coedge $-1 $298 $379 $381 $427 forward $204 $-1 #
edge $-1 $391 -18 $307 18 $298 $428 forward 7 unknown #
coedge $-1 $300 $299 $303 $384 reversed $127 $-1 #
coedge $-1 $376 $304 $299 $380 forward $204 $-1 #
edge $-1 $385 -18 $382 18 $379 $429 forward 7 unknown #
coedge $-1 $301 $310 $376 $427 reversed $296 $-1 #
vertex $-1 $427 $430 #
straight-curve $-1 23.75 -18 5 -1 0 0 I I #
edge $-1 $313 -8.75 $385 -3.75 $303 $431 forward 7 unknown #
vertex $-1 $305 $432 #
straight-curve $-1 20 18 0 0 0 -1 I I #
point $-1 20 18 -5 #
straight-curve $-1 15 0 5 0 1 0 I I #
point $-1 15 -18 5 #
point $-1 15 18 5 #
vertex $-1 $377 $433 #
straight-curve $-1 23.75 -18 -5 1 0 0 I I #
plane-surface $-1 5 -7.5 0 1 0 0 0 0 -1 forward_v I I I I #
coedge $-1 $401 $414 $411 $434 reversed $319 $-1 #
coedge $-1 $321 $320 $435 $436 forward $134 $-1 #
coedge $-1 $435 $326 $322 $397 reversed $319 $-1 #
edge $-1 $398 -11.58312395177700083 $328 -5 $322 $437 forward 7 unknown #
vertex $-1 $323 $438 #
ellipse-curve $-1 10 0 0 -1 -0 -0 0 0 -17.3205080756887746 1 I I #
point $-1 10 16.58312395177700083 -5 #
coedge $-1 $326 $394 $330 $405 reversed $319 $-1 #
ellipse-curve $-1 0 0 5 0 0 1 0 -14.14213562373095101 0 1 I I #
point $-1 10 10 5 #
coedge $-1 $331 $330 $342 $412 forward $332 $-1 #
edge $-1 $333 -9.478756555322954469 $439 -1.25 $330 $440 forward 7 unknown #
point $-1 5 -13.22875655532295447 5 #
straight-curve $-1 5 -3.75 -5 0 -1 0 I I #
coedge $-1 $351 $435 $339 $409 reversed $319 $-1 #
edge $-1 $355 5 $410 21.58312395177700083 $339 $441 forward 7 unknown #
vertex $-1 $409 $442 #
coedge $-1 $343 $342 $394 $434 forward $344 $-1 #
edge $-1 $439 -5 $345 5 $404 $443 forward 7 unknown #
point $-1 5 -5 -5 #
coedge $-1 $394 $351 $347 $415 reversed $319 $-1 #
edge $-1 $416 -3.75 $353 1.25 $347 $444 forward 7 unknown #
vertex $-1 $348 $445 #
straight-curve $-1 0 -5 0 0 0 -1 I I #
fmesh-eye-attrib $-1 $-1 $-1 $349 #
plane-surface $-1 0 -2.5 0 1 0 0 0 0 -1 forward_v I I I I #
straight-curve $-1 18.75 0 5 1 0 -0 I I #
point $-1 0 0 5 #
point $-1 10 0 5 #
fmesh-eye-attrib $-1 $-1 $-1 $358 #
plane-surface $-1 2.5 -5 0 0 1 0 0 0 1 forward_v I I I I #
straight-curve $-1 60 0 -5 0 -1 0 I I #
point $-1 60 18 -5 #
edge $-1 $382 -5 $391 5 $376 $446 forward 7 unknown #
straight-curve $-1 20 0 -5 0 1 -0 I I #
straight-curve $-1 20 0 5 0 -1 0 I I #
point $-1 20 -18 5 #
straight-curve $-1 23.75 18 5 1 0 -0 I I #
point $-1 20 18 5 #
point $-1 20 -18 -5 #
edge $-1 $439 11.25 $416 16.25 $411 $447 forward 7 unknown #
coedge $-1 $408 $396 $395 $436 reversed $319 $-1 #
edge $-1 $410 -0.5426391022496527272 $398 3.684231755839445732 $395 $448 forward 7 unknown #
straight-curve $-1 10 5 5 0 -1 0 I I #
point $-1 10 16.58312395177700083 5 #
vertex $-1 $412 $449 #
straight-curve $-1 5 -3.75 5 0 1 0 I I #
straight-curve $-1 10 5 5 0 -1 0 I I #
point $-1 10 -16.58312395177700083 5 #
straight-curve $-1 5 -5 0 0 0 -1 I I #
straight-curve $-1 0 -1.25 5 0 1 0 I I #
point $-1 0 -5 5 #
straight-curve $-1 20 -18 0 0 0 -1 I I #
straight-curve $-1 16.25 -5 5 -1 0 0 I I #
ellipse-curve $-1 0 0 5 -0 -0 -1 0 -19.36491673103708422 0 1 I I #
point $-1 5 -5 5 #
End-of-ACIS-data 