600 0 3 0           
83 GICL ACIS Healer - Source: /gicl/data5/repository/giclLogo/giclShortSolid.sat - 6 0 18 ACIS 6.0.3 Solaris 24 Sat Apr 13 00:28:21 2002 
1 9.999999999999999547e-07 1.000000000000000036e-10 
body $3 $4 $-1 $5 #
body $6 $7 $-1 $-1 #
body $8 $9 $-1 $-1 #
rgb_color-st-attrib $-1 $-1 $-1 $0 0 0 1 #
lump $-1 $10 $11 $0 #
transform $-1 1 0 0 0 1 0 0 0 1 0 0 0 1 no_rotate no_reflect no_shear #
rgb_color-st-attrib $-1 $-1 $-1 $1 1 1 0 #
lump $-1 $-1 $12 $1 #
rgb_color-st-attrib $-1 $-1 $-1 $2 0 0 1 #
lump $-1 $-1 $13 $2 #
lump $-1 $14 $15 $0 #
shell $-1 $-1 $-1 $16 $-1 $4 #
shell $-1 $-1 $-1 $17 $-1 $7 #
shell $-1 $-1 $-1 $18 $-1 $9 #
lump $-1 $19 $20 $0 #
shell $-1 $-1 $-1 $21 $-1 $10 #
face $-1 $22 $23 $11 $-1 $24 reversed single #
face $-1 $25 $26 $12 $-1 $27 forward single #
face $-1 $-1 $-1 $13 $-1 $28 forward single #
lump $-1 $-1 $29 $0 #
shell $-1 $-1 $-1 $30 $-1 $14 #
face $-1 $31 $32 $15 $-1 $33 forward single #
face $-1 $34 $35 $11 $-1 $36 forward single #
loop $-1 $-1 $37 $16 #
plane-surface $-1 30 0 -5 0 0 1 1 0 0 forward_v I I I I #
face $-1 $-1 $38 $12 $-1 $39 forward single #
loop $-1 $-1 $40 $17 #
plane-surface $-1 0 0 -10 0 0 1 1 0 0 forward_v I I I I #
sphere-surface $-1 17.5 25 -10 5 1 0 0 0 0 1 forward_v I I I I #
shell $-1 $-1 $-1 $41 $-1 $19 #
face $-1 $42 $43 $20 $-1 $24 reversed single #
face $-1 $44 $45 $15 $-1 $46 reversed single #
loop $-1 $-1 $47 $21 #
plane-surface $-1 30 0 5 0 0 1 1 0 0 forward_v I I I I #
face $-1 $48 $49 $11 $-1 $50 forward single #
loop $-1 $-1 $51 $22 #
plane-surface $-1 55 0 0 1 0 0 0 0 -1 forward_v I I I I #
coedge $-1 $52 $53 $54 $55 reversed $23 $-1 #
loop $-1 $-1 $56 $25 #
sphere-surface $-1 17.5 25 -10 50 1 0 0 0 0 1 forward_v I I I I #
coedge $-1 $40 $40 $56 $57 reversed $26 $-1 #
face $58 $59 $60 $29 $-1 $61 reversed single #
face $-1 $62 $63 $20 $-1 $64 reversed single #
loop $-1 $-1 $65 $30 #
face $66 $67 $68 $15 $-1 $69 reversed single #
loop $-1 $-1 $70 $31 #
plane-surface $-1 65 0 0 -1 0 0 0 0 1 forward_v I I I I #
coedge $-1 $71 $72 $73 $74 reversed $32 $-1 #
face $75 $76 $77 $11 $-1 $36 forward single #
loop $-1 $-1 $78 $34 #
sphere-surface $-1 45 0 0 20 1 0 0 0 0 1 forward_v I I I I #
coedge $-1 $79 $80 $81 $82 forward $35 $-1 #
coedge $-1 $81 $37 $78 $83 reversed $23 $-1 #
coedge $-1 $37 $81 $84 $85 reversed $23 $-1 #
coedge $-1 $86 $87 $37 $55 forward $77 $-1 #
edge $-1 $88 -16.58312395177700083 $89 -10 $54 $90 forward 7 unknown #
coedge $-1 $56 $56 $40 $57 forward $38 $-1 #
edge $-1 $91 -3.141592653589793116 $91 3.141592653589793116 $56 $92 forward 7 unknown #
fmesh-eye-attrib $-1 $-1 $-1 $41 #
face $-1 $93 $94 $29 $-1 $95 reversed single #
loop $-1 $-1 $96 $41 #
plane-surface $-1 15 0 0 1 0 0 0 0 -1 forward_v I I I I #
face $-1 $97 $98 $20 $-1 $99 forward single #
loop $-1 $-1 $100 $42 #
sphere-surface $-1 0 0 0 15 1 0 0 0 0 1 forward_v I I I I #
coedge $-1 $101 $102 $103 $104 reversed $43 $-1 #
fmesh-eye-attrib $-1 $-1 $-1 $44 #
face $105 $106 $107 $15 $-1 $108 reversed single #
loop $-1 $-1 $109 $44 #
plane-surface $-1 72.5 -13 0 0 -1 0 0 0 -1 forward_v I I I I #
coedge $-1 $110 $111 $112 $113 forward $45 $-1 #
coedge $-1 $114 $47 $115 $116 reversed $32 $-1 #
coedge $-1 $47 $117 $118 $119 reversed $32 $-1 #
coedge $-1 $120 $121 $47 $74 forward $122 $-1 #
edge $-1 $123 -33.75 $124 -13.75 $73 $125 forward 7 unknown #
fmesh-eye-attrib $-1 $-1 $-1 $48 #
face $126 $127 $128 $11 $-1 $129 reversed single #
loop $-1 $-1 $54 $48 #
coedge $-1 $130 $131 $52 $83 forward $49 $-1 #
coedge $-1 $132 $51 $131 $133 reversed $35 $-1 #
coedge $-1 $51 $132 $134 $135 forward $35 $-1 #
coedge $-1 $53 $52 $51 $82 reversed $23 $-1 #
edge $-1 $136 10 $137 16.58312395177700083 $51 $138 forward 7 unknown #
edge $-1 $137 -0.5426391022496527272 $88 3.684231755839445732 $78 $139 forward 7 unknown #
coedge $-1 $134 $140 $53 $85 forward $128 $-1 #
edge $-1 $89 2.356194490192344837 $136 7.068583470577034511 $84 $141 forward 7 unknown #
coedge $-1 $142 $54 $140 $143 forward $77 $-1 #
coedge $-1 $54 $142 $130 $144 reversed $77 $-1 #
vertex $-1 $144 $145 #
vertex $-1 $143 $146 #
straight-curve $-1 55 0 -5 0 1 0 I I #
vertex $-1 $57 $147 #
ellipse-curve $-1 17.5 25 -10 -0 -0 -1 0 -50 0 1 I I #
face $-1 $148 $149 $29 $-1 $33 forward single #
loop $-1 $-1 $150 $59 #
plane-surface $-1 17.5 18 0 0 -1 0 0 0 -1 forward_v I I I I #
coedge $-1 $151 $152 $153 $154 forward $60 $-1 #
face $-1 $155 $156 $20 $-1 $157 forward single #
loop $-1 $-1 $158 $62 #
plane-surface $-1 10 10 10 1 0 0 0 0 -1 forward_v I I I I #
coedge $-1 $159 $160 $161 $162 forward $63 $-1 #
coedge $-1 $163 $65 $164 $165 reversed $43 $-1 #
coedge $-1 $65 $166 $167 $168 reversed $43 $-1 #
coedge $-1 $169 $170 $65 $104 forward $171 $-1 #
edge $-1 $172 8.75 $173 18.75 $103 $174 forward 7 unknown #
fmesh-eye-attrib $-1 $-1 $-1 $67 #
face $-1 $175 $122 $15 $-1 $176 reversed single #
loop $-1 $-1 $177 $67 #
plane-surface $-1 80 -15.5 0 -1 0 0 0 0 1 forward_v I I I I #
coedge $-1 $178 $179 $180 $181 forward $68 $-1 #
coedge $-1 $182 $70 $183 $184 reversed $45 $-1 #
coedge $-1 $70 $182 $178 $185 forward $45 $-1 #
coedge $-1 $180 $186 $70 $113 reversed $187 $-1 #
edge $-1 $188 -13 $189 18 $70 $190 forward 7 unknown #
coedge $-1 $191 $71 $192 $193 reversed $32 $-1 #
coedge $-1 $194 $195 $71 $116 forward $107 $-1 #
edge $-1 $196 5.25 $123 10.25 $115 $197 forward 7 unknown #
coedge $-1 $72 $191 $198 $199 reversed $32 $-1 #
coedge $-1 $200 $201 $72 $119 forward $202 $-1 #
edge $-1 $124 -18 $203 18 $118 $204 forward 7 unknown #
coedge $-1 $205 $73 $201 $206 forward $122 $-1 #
coedge $-1 $73 $205 $194 $207 reversed $122 $-1 #
loop $-1 $-1 $205 $106 #
vertex $-1 $207 $208 #
vertex $-1 $206 $209 #
straight-curve $-1 46.25 -18 5 -1 0 0 I I #
fmesh-eye-attrib $-1 $-1 $-1 $76 #
face $-1 $-1 $210 $11 $-1 $33 forward single #
loop $-1 $-1 $84 $76 #
sphere-surface $-1 45 0 0 15 1 0 0 0 0 1 forward_v I I I I #
coedge $-1 $211 $78 $87 $144 forward $49 $-1 #
coedge $-1 $78 $211 $79 $133 forward $49 $-1 #
coedge $-1 $80 $79 $212 $213 forward $35 $-1 #
edge $-1 $214 -1.863639098523472093 $137 -1.277953555066321245 $131 $215 forward 7 unknown #
coedge $-1 $216 $84 $80 $135 reversed $128 $-1 #
edge $-1 $217 1.107148717794090409 $136 2.034443935795702707 $80 $218 forward 7 unknown #
vertex $-1 $85 $219 #
vertex $-1 $83 $220 #
straight-curve $-1 55 0 -5 0 1 0 I I #
ellipse-curve $-1 45 0 -5 0 0 1 0 19.36491673103708422 0 1 I I #
coedge $-1 $84 $216 $86 $143 reversed $128 $-1 #
ellipse-curve $-1 45 0 -5 -0 -0 -1 0 14.14213562373095101 0 1 I I #
coedge $-1 $87 $86 $221 $222 forward $77 $-1 #
edge $-1 $89 -2.034443935795702707 $223 -1.107148717794090409 $86 $218 forward 7 unknown #
edge $-1 $88 1.277953555066321245 $224 1.863639098523472093 $130 $215 forward 7 unknown #
point $-1 55 -16.58312395177700083 -5 #
point $-1 55 -10 -5 #
point $-1 17.50000000000000711 75 -10 #
face $-1 $225 $226 $29 $-1 $227 reversed single #
loop $-1 $-1 $228 $93 #
coedge $-1 $229 $230 $231 $232 forward $94 $-1 #
coedge $-1 $233 $96 $234 $235 reversed $60 $-1 #
coedge $-1 $96 $233 $229 $236 forward $60 $-1 #
coedge $-1 $231 $237 $96 $154 reversed $238 $-1 #
edge $-1 $239 -18 $240 18 $96 $241 forward 7 unknown #
face $-1 $242 $243 $20 $-1 $99 forward single #
loop $-1 $-1 $244 $97 #
sphere-surface $-1 0 0 0 20 1 0 0 0 0 1 forward_v I I I I #
coedge $-1 $245 $246 $247 $248 forward $98 $-1 #
coedge $-1 $249 $100 $246 $250 reversed $63 $-1 #
coedge $-1 $100 $249 $251 $252 forward $63 $-1 #
coedge $-1 $253 $247 $100 $162 reversed $43 $-1 #
edge $-1 $254 2.780225529683085561 $255 7.068583470577034511 $100 $256 forward 7 unknown #
coedge $-1 $247 $101 $244 $257 reversed $43 $-1 #
coedge $-1 $258 $259 $101 $165 forward $243 $-1 #
edge $-1 $260 -21.58312395177700083 $172 -5 $164 $261 forward 7 unknown #
coedge $-1 $102 $253 $262 $263 reversed $43 $-1 #
coedge $-1 $264 $265 $102 $168 forward $266 $-1 #
edge $-1 $173 -1.25 $267 3.75 $167 $268 forward 7 unknown #
coedge $-1 $269 $103 $265 $270 reversed $171 $-1 #
coedge $-1 $103 $269 $258 $271 forward $171 $-1 #
loop $-1 $-1 $103 $272 #
vertex $-1 $104 $273 #
vertex $-1 $104 $274 #
straight-curve $-1 18.75 0 -5 -1 0 0 I I #
face $-1 $275 $202 $15 $-1 $276 reversed single #
plane-surface $-1 62.5 -18 0 0 1 0 0 0 1 forward_v I I I I #
coedge $-1 $195 $194 $277 $278 forward $107 $-1 #
coedge $-1 $192 $109 $111 $185 reversed $68 $-1 #
coedge $-1 $109 $192 $195 $279 forward $68 $-1 #
coedge $-1 $277 $112 $109 $181 reversed $187 $-1 #
edge $-1 $280 -28.75 $188 -13.75 $109 $281 forward 7 unknown #
coedge $-1 $111 $110 $191 $282 forward $45 $-1 #
coedge $-1 $283 $198 $110 $184 forward $284 $-1 #
edge $-1 $285 -5 $189 5 $110 $286 forward 7 unknown #
edge $-1 $287 -5 $188 5 $111 $288 forward 7 unknown #
coedge $-1 $112 $289 $283 $290 reversed $187 $-1 #
loop $-1 $-1 $180 $291 #
vertex $-1 $181 $292 #
vertex $-1 $290 $293 #
straight-curve $-1 65 0 -5 0 1 -0 I I #
coedge $-1 $117 $114 $182 $282 reversed $32 $-1 #
coedge $-1 $179 $178 $114 $193 forward $68 $-1 #
edge $-1 $287 13.75 $196 28.75 $192 $294 forward 7 unknown #
coedge $-1 $177 $115 $121 $207 forward $107 $-1 #
coedge $-1 $115 $177 $179 $279 reversed $107 $-1 #
vertex $-1 $279 $295 #
straight-curve $-1 80 -7.75 5 0 -1 0 I I #
coedge $-1 $183 $296 $117 $199 forward $284 $-1 #
edge $-1 $203 13.75 $285 18.75 $198 $297 forward 7 unknown #
coedge $-1 $298 $118 $296 $299 forward $202 $-1 #
coedge $-1 $118 $298 $120 $206 reversed $202 $-1 #
loop $-1 $-1 $298 $175 #
vertex $-1 $299 $300 #
straight-curve $-1 60 0 5 0 1 0 I I #
coedge $-1 $121 $120 $301 $302 forward $122 $-1 #
edge $-1 $124 -5 $303 5 $201 $304 forward 7 unknown #
edge $-1 $123 -5 $305 5 $194 $306 forward 7 unknown #
point $-1 80 -18 5 #
point $-1 60 -18 5 #
loop $-1 $-1 $307 $127 #
coedge $-1 $131 $130 $308 $309 forward $49 $-1 #
coedge $-1 $308 $307 $132 $213 reversed $210 $-1 #
edge $-1 $214 -16.58312395177700083 $217 -10 $132 $310 forward 7 unknown #
vertex $-1 $133 $311 #
ellipse-curve $-1 55 0 0 -1 -0 -0 0 0 -17.3205080756887746 1 I I #
coedge $-1 $140 $134 $307 $312 forward $128 $-1 #
vertex $-1 $135 $313 #
ellipse-curve $-1 55 0 0 -1 -0 -0 0 0 11.18033988749894903 1 I I #
point $-1 55 10 -5 #
point $-1 55 16.58312395177700083 -5 #
coedge $-1 $307 $308 $142 $222 reversed $210 $-1 #
edge $-1 $223 10 $224 16.58312395177700083 $142 $314 forward 7 unknown #
vertex $-1 $312 $315 #
vertex $-1 $222 $316 #
face $-1 $317 $318 $29 $-1 $319 reversed single #
loop $-1 $-1 $320 $148 #
plane-surface $-1 20 0 0 -1 0 0 0 0 1 forward_v I I I I #
coedge $-1 $321 $322 $323 $324 reversed $149 $-1 #
coedge $-1 $325 $150 $152 $236 reversed $94 $-1 #
coedge $-1 $150 $325 $326 $327 forward $94 $-1 #
coedge $-1 $328 $153 $150 $232 reversed $238 $-1 #
edge $-1 $329 3.75 $239 8.75 $150 $330 forward 7 unknown #
coedge $-1 $152 $151 $322 $331 forward $60 $-1 #
coedge $-1 $332 $323 $151 $235 forward $318 $-1 #
edge $-1 $333 -5 $240 5 $151 $334 forward 7 unknown #
edge $-1 $335 -5 $239 5 $229 $336 forward 7 unknown #
coedge $-1 $153 $328 $332 $337 reversed $238 $-1 #
loop $-1 $-1 $231 $317 #
vertex $-1 $232 $338 #
vertex $-1 $154 $339 #
straight-curve $-1 15 0 -5 0 -1 0 I I #
face $-1 $340 $341 $20 $-1 $33 forward single #
loop $-1 $-1 $164 $155 #
coedge $-1 $342 $343 $163 $257 forward $156 $-1 #
coedge $-1 $344 $158 $343 $345 reversed $98 $-1 #
coedge $-1 $158 $344 $159 $250 forward $98 $-1 #
coedge $-1 $161 $163 $158 $248 reversed $43 $-1 #
edge $-1 $255 5 $346 11.58312395177700083 $158 $347 forward 7 unknown #
coedge $-1 $160 $159 $348 $349 forward $63 $-1 #
edge $-1 $350 1.107148717794090409 $255 2.034443935795702707 $246 $351 forward 7 unknown #
coedge $-1 $352 $353 $160 $252 reversed $354 $-1 #
edge $-1 $355 -1.932163450701604557 $254 -1.209429202888188781 $160 $356 forward 7 unknown #
coedge $-1 $166 $161 $353 $357 reversed $43 $-1 #
vertex $-1 $357 $358 #
vertex $-1 $248 $359 #
ellipse-curve $-1 0 0 -5 -0 -0 -1 0 14.14213562373095101 0 1 I I #
edge $-1 $346 -0.5426391022496527272 $260 3.684231755839445732 $244 $360 forward 7 unknown #
coedge $-1 $361 $164 $170 $271 reversed $243 $-1 #
coedge $-1 $164 $361 $342 $362 reversed $243 $-1 #
vertex $-1 $362 $363 #
straight-curve $-1 10 5 -5 0 1 0 I I #
coedge $-1 $364 $365 $166 $263 forward $366 $-1 #
edge $-1 $267 -16.25 $367 -11.25 $262 $368 forward 7 unknown #
coedge $-1 $369 $167 $365 $370 reversed $266 $-1 #
coedge $-1 $167 $369 $169 $270 forward $266 $-1 #
loop $-1 $-1 $167 $371 #
vertex $-1 $168 $372 #
straight-curve $-1 0 -1.25 -5 0 -1 0 I I #
coedge $-1 $170 $169 $373 $374 forward $171 $-1 #
edge $-1 $375 -5 $173 5 $169 $376 forward 7 unknown #
edge $-1 $377 -5 $172 5 $258 $378 forward 7 unknown #
face $379 $380 $171 $20 $-1 $381 reversed single #
point $-1 10 0 -5 #
point $-1 0 0 -5 #
face $-1 $291 $284 $15 $-1 $382 reversed single #
plane-surface $-1 60 0 0 1 0 0 0 0 -1 forward_v I I I I #
coedge $-1 $301 $180 $177 $278 reversed $187 $-1 #
edge $-1 $305 -10.25 $280 -5.25 $177 $383 forward 7 unknown #
edge $-1 $196 -5 $280 5 $195 $384 forward 7 unknown #
vertex $-1 $278 $385 #
straight-curve $-1 51.25 -13 -5 -1 0 0 I I #
edge $-1 $285 -18 $287 13 $182 $386 forward 7 unknown #
coedge $-1 $296 $183 $186 $290 forward $284 $-1 #
loop $-1 $-1 $283 $275 #
vertex $-1 $184 $387 #
straight-curve $-1 65 18 0 0 0 -1 I I #
vertex $-1 $185 $388 #
straight-curve $-1 65 -13 0 -0 -0 -1 I I #
coedge $-1 $186 $301 $298 $389 reversed $187 $-1 #
edge $-1 $189 -18.75 $390 -13.75 $283 $391 forward 7 unknown #
face $-1 $-1 $187 $15 $-1 $24 reversed single #
point $-1 65 -13 -5 #
point $-1 65 18 -5 #
straight-curve $-1 51.25 -13 5 1 0 -0 I I #
point $-1 80 -13 5 #
coedge $-1 $198 $283 $200 $299 reversed $284 $-1 #
straight-curve $-1 46.25 18 5 1 0 -0 I I #
coedge $-1 $201 $200 $289 $389 forward $202 $-1 #
edge $-1 $203 -5 $390 5 $296 $392 forward 7 unknown #
point $-1 60 18 5 #
coedge $-1 $289 $277 $205 $302 reversed $187 $-1 #
edge $-1 $303 13.75 $305 33.75 $205 $393 forward 7 unknown #
vertex $-1 $302 $394 #
straight-curve $-1 60 -18 0 0 0 -1 I I #
vertex $-1 $302 $395 #
straight-curve $-1 80 -18 0 0 0 -1 I I #
coedge $-1 $212 $221 $216 $312 reversed $210 $-1 #
coedge $-1 $221 $212 $211 $309 reversed $210 $-1 #
edge $-1 $224 -0.5426391022496527272 $214 3.684231755839445732 $211 $396 forward 7 unknown #
straight-curve $-1 55 0 5 0 -1 0 I I #
point $-1 55 16.58312395177700083 5 #
edge $-1 $217 2.356194490192344837 $223 7.068583470577034511 $216 $397 forward 7 unknown #
point $-1 55 10 5 #
straight-curve $-1 55 0 5 0 -1 0 I I #
point $-1 55 -10 5 #
point $-1 55 -16.58312395177700083 5 #
face $-1 $-1 $238 $29 $-1 $24 reversed single #
loop $-1 $-1 $332 $225 #
plane-surface $-1 17.5 -18 0 0 1 0 0 0 1 forward_v I I I I #
coedge $-1 $326 $398 $328 $399 forward $226 $-1 #
coedge $-1 $400 $228 $401 $402 reversed $149 $-1 #
coedge $-1 $228 $400 $233 $331 reversed $149 $-1 #
coedge $-1 $234 $403 $228 $324 forward $318 $-1 #
edge $-1 $404 3.75 $333 8.75 $323 $405 forward 7 unknown #
coedge $-1 $230 $229 $400 $406 forward $94 $-1 #
coedge $-1 $401 $320 $230 $327 reversed $226 $-1 #
edge $-1 $407 -5 $329 5 $326 $408 forward 7 unknown #
coedge $-1 $237 $231 $320 $399 reversed $238 $-1 #
vertex $-1 $232 $409 #
straight-curve $-1 23.75 18 -5 -1 0 0 I I #
edge $-1 $333 -18 $335 18 $233 $410 forward 7 unknown #
coedge $-1 $403 $234 $237 $337 forward $318 $-1 #
vertex $-1 $235 $411 #
straight-curve $-1 15 -18 0 0 0 -1 I I #
vertex $-1 $236 $412 #
straight-curve $-1 15 18 0 0 0 -1 I I #
edge $-1 $240 -8.75 $413 -3.75 $332 $414 forward 7 unknown #
point $-1 15 18 -5 #
point $-1 15 -18 -5 #
face $-1 $272 $354 $20 $-1 $415 reversed single #
loop $-1 $-1 $416 $242 #
coedge $-1 $417 $244 $259 $362 forward $156 $-1 #
coedge $-1 $244 $417 $245 $345 forward $156 $-1 #
coedge $-1 $246 $245 $418 $419 forward $98 $-1 #
edge $-1 $420 -1.863639098523472093 $346 -1.277953555066321245 $343 $421 forward 7 unknown #
vertex $-1 $257 $422 #
straight-curve $-1 10 5 -5 0 1 0 I I #
coedge $-1 $418 $423 $249 $349 reversed $341 $-1 #
edge $-1 $350 2.356194490192344837 $355 6.644552431086293787 $249 $424 forward 7 unknown #
vertex $-1 $250 $425 #
ellipse-curve $-1 10 0 0 -1 -0 -0 0 0 11.18033988749894903 1 I I #
coedge $-1 $426 $251 $423 $427 forward $354 $-1 #
coedge $-1 $251 $426 $253 $357 forward $354 $-1 #
loop $-1 $-1 $353 $340 #
vertex $-1 $252 $428 #
ellipse-curve $-1 5 0 0 1 0 0 0 0 -14.14213562373095101 1 I I #
edge $-1 $367 1.25 $254 9.478756555322954469 $353 $429 forward 7 unknown #
point $-1 5 -13.22875655532295447 -5 #
point $-1 10 10 -5 #
ellipse-curve $-1 0 0 -5 0 0 1 0 19.36491673103708422 0 1 I I #
coedge $-1 $259 $258 $430 $431 forward $243 $-1 #
edge $-1 $260 1.277953555066321245 $432 1.863639098523472093 $342 $421 forward 7 unknown #
point $-1 10 -16.58312395177700083 -5 #
coedge $-1 $433 $262 $426 $434 reversed $366 $-1 #
coedge $-1 $262 $433 $264 $370 forward $366 $-1 #
loop $-1 $-1 $262 $380 #
vertex $-1 $263 $435 #
straight-curve $-1 16.25 -5 -5 1 0 0 I I #
coedge $-1 $265 $264 $436 $437 forward $266 $-1 #
edge $-1 $438 -5 $267 5 $264 $439 forward 7 unknown #
face $440 $-1 $266 $20 $-1 $441 reversed single #
point $-1 0 -5 -5 #
coedge $-1 $436 $430 $269 $374 reversed $341 $-1 #
edge $-1 $375 -18.75 $377 -8.75 $269 $442 forward 7 unknown #
vertex $-1 $270 $443 #
straight-curve $-1 0 0 0 0 0 -1 I I #
vertex $-1 $271 $444 #
straight-curve $-1 10 0 0 0 0 -1 I I #
fmesh-eye-attrib $-1 $-1 $-1 $272 #
face $445 $371 $366 $20 $-1 $446 reversed single #
plane-surface $-1 7.5 0 0 0 -1 0 0 0 -1 forward_v I I I I #
plane-surface $-1 62.5 18 0 0 -1 0 0 0 -1 forward_v I I I I #
straight-curve $-1 80 -7.75 -5 0 1 -0 I I #
straight-curve $-1 80 -13 0 0 0 -1 I I #
point $-1 80 -13 -5 #
straight-curve $-1 65 0 5 0 -1 0 I I #
point $-1 65 18 5 #
point $-1 65 -13 5 #
edge $-1 $390 -18 $303 18 $298 $447 forward 7 unknown #
vertex $-1 $389 $448 #
straight-curve $-1 46.25 18 -5 -1 0 0 I I #
straight-curve $-1 60 18 0 0 0 -1 I I #
straight-curve $-1 46.25 -18 -5 1 0 0 I I #
point $-1 60 -18 -5 #
point $-1 80 -18 -5 #
ellipse-curve $-1 45 0 5 -0 -0 -1 0 -19.36491673103708422 0 1 I I #
ellipse-curve $-1 45 0 5 0 0 1 0 -14.14213562373095101 0 1 I I #
coedge $-1 $320 $401 $403 $449 forward $226 $-1 #
edge $-1 $413 -18 $329 18 $320 $450 forward 7 unknown #
coedge $-1 $322 $321 $325 $406 reversed $149 $-1 #
coedge $-1 $398 $326 $321 $402 forward $226 $-1 #
edge $-1 $407 -18 $404 18 $401 $451 forward 7 unknown #
coedge $-1 $323 $332 $398 $449 reversed $318 $-1 #
vertex $-1 $449 $452 #
straight-curve $-1 23.75 -18 5 -1 0 0 I I #
edge $-1 $335 -8.75 $407 -3.75 $325 $453 forward 7 unknown #
vertex $-1 $327 $454 #
straight-curve $-1 20 18 0 0 0 -1 I I #
point $-1 20 18 -5 #
straight-curve $-1 15 0 5 0 1 0 I I #
point $-1 15 -18 5 #
point $-1 15 18 5 #
vertex $-1 $399 $455 #
straight-curve $-1 23.75 -18 -5 1 0 0 I I #
plane-surface $-1 5 -7.5 0 1 0 0 0 0 -1 forward_v I I I I #
coedge $-1 $423 $436 $433 $456 reversed $341 $-1 #
coedge $-1 $343 $342 $457 $458 forward $156 $-1 #
coedge $-1 $457 $348 $344 $419 reversed $341 $-1 #
edge $-1 $420 -11.58312395177700083 $350 -5 $344 $459 forward 7 unknown #
vertex $-1 $345 $460 #
ellipse-curve $-1 10 0 0 -1 -0 -0 0 0 -17.3205080756887746 1 I I #
point $-1 10 16.58312395177700083 -5 #
coedge $-1 $348 $416 $352 $427 reversed $341 $-1 #
ellipse-curve $-1 0 0 5 0 0 1 0 -14.14213562373095101 0 1 I I #
point $-1 10 10 5 #
coedge $-1 $353 $352 $364 $434 forward $354 $-1 #
edge $-1 $355 -9.478756555322954469 $461 -1.25 $352 $462 forward 7 unknown #
point $-1 5 -13.22875655532295447 5 #
straight-curve $-1 5 -3.75 -5 0 -1 0 I I #
coedge $-1 $373 $457 $361 $431 reversed $341 $-1 #
edge $-1 $377 5 $432 21.58312395177700083 $361 $463 forward 7 unknown #
vertex $-1 $431 $464 #
coedge $-1 $365 $364 $416 $456 forward $366 $-1 #
edge $-1 $461 -5 $367 5 $426 $465 forward 7 unknown #
point $-1 5 -5 -5 #
coedge $-1 $416 $373 $369 $437 reversed $341 $-1 #
edge $-1 $438 -3.75 $375 1.25 $369 $466 forward 7 unknown #
vertex $-1 $370 $467 #
straight-curve $-1 0 -5 0 0 0 -1 I I #
fmesh-eye-attrib $-1 $-1 $-1 $371 #
plane-surface $-1 0 -2.5 0 1 0 0 0 0 -1 forward_v I I I I #
straight-curve $-1 18.75 0 5 1 0 -0 I I #
point $-1 0 0 5 #
point $-1 10 0 5 #
fmesh-eye-attrib $-1 $-1 $-1 $380 #
plane-surface $-1 2.5 -5 0 0 1 0 0 0 1 forward_v I I I I #
straight-curve $-1 60 0 -5 0 -1 0 I I #
point $-1 60 18 -5 #
edge $-1 $404 -5 $413 5 $398 $468 forward 7 unknown #
straight-curve $-1 20 0 -5 0 1 -0 I I #
straight-curve $-1 20 0 5 0 -1 0 I I #
point $-1 20 -18 5 #
straight-curve $-1 23.75 18 5 1 0 -0 I I #
point $-1 20 18 5 #
point $-1 20 -18 -5 #
edge $-1 $461 11.25 $438 16.25 $433 $469 forward 7 unknown #
coedge $-1 $430 $418 $417 $458 reversed $341 $-1 #
edge $-1 $432 -0.5426391022496527272 $420 3.684231755839445732 $417 $470 forward 7 unknown #
straight-curve $-1 10 5 5 0 -1 0 I I #
point $-1 10 16.58312395177700083 5 #
vertex $-1 $434 $471 #
straight-curve $-1 5 -3.75 5 0 1 0 I I #
straight-curve $-1 10 5 5 0 -1 0 I I #
point $-1 10 -16.58312395177700083 5 #
straight-curve $-1 5 -5 0 0 0 -1 I I #
straight-curve $-1 0 -1.25 5 0 1 0 I I #
point $-1 0 -5 5 #
straight-curve $-1 20 -18 0 0 0 -1 I I #
straight-curve $-1 16.25 -5 5 -1 0 0 I I #
ellipse-curve $-1 0 0 5 -0 -0 -1 0 -19.36491673103708422 0 1 I I #
point $-1 5 -5 5 #
End-of-ACIS-data 