600 0 1 0           
78 GICL ACIS Healer - Source: /gicl/data5/repository/giclLogo/giclLarge.sat - 6 0 18 ACIS 6.0.3 Solaris 24 Sat Apr 13 00:28:14 2002 
1 9.999999999999999547e-07 1.000000000000000036e-10 
body $1 $2 $-1 $3 #
rgb_color-st-attrib $-1 $-1 $-1 $0 0 0 1 #
lump $-1 $4 $5 $0 #
transform $-1 1 0 0 0 1 0 0 0 1 0 0 0 1 no_rotate no_reflect no_shear #
lump $-1 $6 $7 $0 #
shell $-1 $-1 $-1 $8 $-1 $2 #
lump $-1 $9 $10 $0 #
shell $-1 $-1 $-1 $11 $-1 $4 #
face $12 $13 $14 $5 $-1 $15 reversed single #
lump $-1 $-1 $16 $0 #
shell $-1 $-1 $-1 $17 $-1 $6 #
face $18 $19 $20 $7 $-1 $21 forward single #
fmesh-eye-attrib $-1 $-1 $-1 $8 #
face $22 $23 $24 $5 $-1 $25 forward single #
loop $-1 $-1 $26 $8 #
sphere-surface $-1 45 0 0 15 1 0 0 0 0 1 forward_v I I I I #
shell $-1 $-1 $-1 $27 $-1 $9 #
face $28 $29 $30 $10 $-1 $31 forward single #
fmesh-eye-attrib $-1 $-1 $-1 $11 #
face $32 $33 $34 $7 $-1 $35 reversed single #
loop $-1 $-1 $36 $11 #
plane-surface $-1 0 0 10 0 0 1 1 0 0 forward_v I I I I #
fmesh-eye-attrib $-1 $-1 $-1 $13 #
face $37 $38 $39 $5 $-1 $40 forward single #
loop $-1 $-1 $41 $13 #
plane-surface $-1 45 0 10 0 0 1 1 0 0 forward_v I I I I #
coedge $-1 $42 $43 $44 $45 reversed $14 $-1 #
face $46 $47 $48 $16 $-1 $49 reversed single #
fmesh-eye-attrib $-1 $-1 $-1 $17 #
face $50 $51 $52 $10 $-1 $53 reversed single #
loop $-1 $-1 $54 $17 #
plane-surface $-1 17.5 0 10 0 0 1 1 0 0 forward_v I I I I #
fmesh-eye-attrib $-1 $-1 $-1 $19 #
face $55 $56 $57 $7 $-1 $58 reversed single #
loop $-1 $-1 $59 $19 #
plane-surface $-1 7.5 0 0 0 -1 0 0 0 -1 forward_v I I I I #
coedge $-1 $60 $61 $62 $63 forward $20 $-1 #
fmesh-eye-attrib $-1 $-1 $-1 $23 #
face $64 $65 $66 $5 $-1 $40 forward single #
loop $-1 $-1 $44 $23 #
plane-surface $-1 55 0 0 1 0 0 0 0 -1 forward_v I I I I #
coedge $-1 $67 $68 $42 $69 forward $24 $-1 #
coedge $-1 $70 $26 $41 $69 reversed $14 $-1 #
coedge $-1 $26 $70 $71 $72 reversed $14 $-1 #
coedge $-1 $73 $74 $26 $45 forward $39 $-1 #
edge $75 $76 0.4636476090008058715 $77 2.677945044588987411 $44 $78 forward 7 unknown #
fmesh-eye-attrib $-1 $-1 $-1 $27 #
face $79 $80 $81 $16 $-1 $82 reversed single #
loop $-1 $-1 $83 $27 #
plane-surface $-1 72.5 -13 0 0 -1 0 0 0 -1 forward_v I I I I #
fmesh-eye-attrib $-1 $-1 $-1 $29 #
face $84 $85 $86 $10 $-1 $87 reversed single #
loop $-1 $-1 $88 $29 #
plane-surface $-1 17.5 0 -10 0 0 1 1 0 0 forward_v I I I I #
coedge $-1 $89 $90 $91 $92 forward $30 $-1 #
fmesh-eye-attrib $-1 $-1 $-1 $33 #
face $93 $94 $95 $7 $-1 $96 reversed single #
loop $-1 $-1 $97 $33 #
plane-surface $-1 0 0 -10 0 0 1 1 0 0 forward_v I I I I #
coedge $-1 $98 $99 $100 $101 reversed $34 $-1 #
coedge $-1 $102 $36 $103 $104 forward $20 $-1 #
coedge $-1 $36 $105 $106 $107 reversed $20 $-1 #
coedge $-1 $99 $98 $36 $63 reversed $34 $-1 #
edge $108 $109 -2.5 $110 7.5 $62 $111 forward 7 unknown #
fmesh-eye-attrib $-1 $-1 $-1 $38 #
face $112 $113 $114 $5 $-1 $115 reversed single #
loop $-1 $-1 $116 $38 #
coedge $-1 $117 $41 $74 $118 forward $24 $-1 #
coedge $-1 $41 $117 $119 $120 forward $24 $-1 #
edge $121 $122 2.034443935795702707 $76 7.390334024973676641 $41 $123 forward 7 unknown #
coedge $-1 $43 $42 $116 $124 reversed $14 $-1 #
coedge $-1 $125 $126 $43 $72 forward $114 $-1 #
edge $127 $77 2.034443935795702707 $128 7.390334024973676641 $71 $129 forward 7 unknown #
coedge $-1 $130 $44 $126 $131 reversed $39 $-1 #
coedge $-1 $44 $130 $67 $118 reversed $39 $-1 #
ptlist-eye-attrib $-1 $-1 $-1 $45 #
vertex $-1 $118 $132 #
vertex $-1 $45 $133 #
ellipse-curve $-1 55 0 0 -1 -0 -0 0 0 11.18033988749894903 1 I I #
fmesh-eye-attrib $-1 $-1 $-1 $47 #
face $134 $135 $136 $16 $-1 $137 reversed single #
loop $-1 $-1 $138 $47 #
plane-surface $-1 80 -15.5 0 -1 0 0 0 0 1 forward_v I I I I #
coedge $-1 $139 $140 $141 $142 forward $48 $-1 #
fmesh-eye-attrib $-1 $-1 $-1 $51 #
face $143 $144 $145 $10 $-1 $146 reversed single #
loop $-1 $-1 $147 $51 #
plane-surface $-1 17.5 -18 0 0 1 0 0 0 1 forward_v I I I I #
coedge $-1 $148 $149 $150 $151 forward $52 $-1 #
coedge $-1 $152 $54 $153 $154 forward $30 $-1 #
coedge $-1 $54 $152 $155 $156 forward $30 $-1 #
coedge $-1 $157 $158 $54 $92 reversed $159 $-1 #
edge $160 $161 -18 $162 18 $91 $163 forward 7 unknown #
fmesh-eye-attrib $-1 $-1 $-1 $56 #
face $164 $165 $166 $7 $-1 $167 reversed single #
loop $-1 $-1 $168 $56 #
plane-surface $-1 2.5 -5 0 0 1 0 0 0 1 forward_v I I I I #
coedge $-1 $169 $170 $171 $172 forward $57 $-1 #
coedge $-1 $62 $59 $173 $174 reversed $34 $-1 #
coedge $-1 $59 $62 $175 $176 forward $34 $-1 #
coedge $-1 $177 $169 $59 $101 forward $57 $-1 #
edge $178 $179 -7.5 $180 2.5 $59 $181 forward 7 unknown #
coedge $-1 $182 $60 $183 $184 forward $20 $-1 #
coedge $-1 $173 $185 $60 $104 reversed $166 $-1 #
edge $186 $110 -2.5 $187 2.5 $103 $188 forward 7 unknown #
coedge $-1 $61 $189 $190 $191 forward $20 $-1 #
coedge $-1 $192 $175 $61 $107 forward $193 $-1 #
edge $194 $109 5 $195 20 $106 $196 forward 7 unknown #
ptlist-eye-attrib $-1 $-1 $-1 $63 #
vertex $-1 $107 $197 #
vertex $-1 $63 $198 #
straight-curve $-1 7.5 0 10 -1 0 0 I I #
fmesh-eye-attrib $-1 $-1 $-1 $65 #
face $199 $-1 $200 $5 $-1 $201 forward single #
loop $-1 $-1 $71 $65 #
plane-surface $-1 45 0 -10 0 0 1 1 0 0 forward_v I I I I #
coedge $-1 $119 $202 $70 $124 forward $66 $-1 #
coedge $-1 $68 $67 $203 $204 reversed $24 $-1 #
edge $205 $76 4.999999999999997335 $206 14.14213562373095279 $67 $207 forward 7 unknown #
coedge $-1 $208 $116 $68 $120 reversed $66 $-1 #
edge $209 $210 -14.14213562373095279 $122 -4.999999999999997335 $68 $207 forward 7 unknown #
ptlist-eye-attrib $-1 $-1 $-1 $69 #
vertex $-1 $69 $211 #
ellipse-curve $-1 45 0 10 -0 -0 -1 0 11.18033988749894903 0 1 I I #
edge $212 $128 -2.677945044588987411 $122 -0.4636476090008058715 $116 $78 forward 7 unknown #
coedge $-1 $213 $71 $202 $214 forward $114 $-1 #
coedge $-1 $71 $213 $73 $131 forward $114 $-1 #
ptlist-eye-attrib $-1 $-1 $-1 $72 #
vertex $-1 $214 $215 #
ellipse-curve $-1 45 0 -10 0 0 1 0 -11.18033988749894903 0 1 I I #
coedge $-1 $74 $73 $216 $217 reversed $39 $-1 #
edge $218 $219 -14.14213562373095279 $77 -4.999999999999997335 $126 $220 forward 7 unknown #
point $-1 55 4.999999999999997335 10 #
point $-1 55 4.999999999999997335 -10 #
fmesh-eye-attrib $-1 $-1 $-1 $80 #
face $221 $222 $223 $16 $-1 $224 forward single #
loop $-1 $-1 $225 $80 #
plane-surface $-1 65 0 0 -1 0 0 0 0 1 forward_v I I I I #
coedge $-1 $226 $227 $228 $229 forward $81 $-1 #
coedge $-1 $230 $83 $231 $232 reversed $48 $-1 #
coedge $-1 $83 $230 $233 $234 reversed $48 $-1 #
coedge $-1 $227 $226 $83 $142 reversed $81 $-1 #
edge $235 $236 -10 $237 10 $141 $238 forward 7 unknown #
fmesh-eye-attrib $-1 $-1 $-1 $85 #
face $239 $240 $241 $10 $-1 $242 reversed single #
loop $-1 $-1 $243 $85 #
plane-surface $-1 15 0 0 1 0 0 0 0 -1 forward_v I I I I #
coedge $-1 $244 $155 $245 $246 forward $86 $-1 #
coedge $-1 $247 $88 $244 $248 forward $52 $-1 #
coedge $-1 $88 $247 $249 $250 forward $52 $-1 #
coedge $-1 $158 $157 $88 $151 reversed $159 $-1 #
edge $251 $252 -18 $253 18 $150 $254 forward 7 unknown #
coedge $-1 $90 $89 $255 $256 forward $30 $-1 #
coedge $-1 $257 $258 $89 $154 reversed $241 $-1 #
edge $259 $162 -2.5 $260 2.5 $153 $261 forward 7 unknown #
coedge $-1 $147 $262 $90 $156 reversed $86 $-1 #
edge $263 $264 -2.5 $161 2.5 $155 $265 forward 7 unknown #
coedge $-1 $150 $91 $262 $266 forward $159 $-1 #
coedge $-1 $91 $150 $257 $267 reversed $159 $-1 #
loop $-1 $-1 $157 $240 #
ptlist-eye-attrib $-1 $-1 $-1 $92 #
vertex $-1 $92 $268 #
vertex $-1 $92 $269 #
straight-curve $-1 20 0 10 0 1 0 I I #
fmesh-eye-attrib $-1 $-1 $-1 $94 #
face $270 $271 $272 $7 $-1 $273 reversed single #
loop $-1 $-1 $173 $94 #
plane-surface $-1 0 -2.5 0 1 0 0 0 0 -1 forward_v I I I I #
coedge $-1 $171 $183 $185 $274 forward $95 $-1 #
coedge $-1 $100 $97 $275 $276 forward $57 $-1 #
coedge $-1 $97 $277 $278 $279 forward $57 $-1 #
coedge $-1 $280 $168 $97 $172 reversed $95 $-1 #
edge $281 $282 -2.5 $283 2.5 $171 $284 forward 7 unknown #
coedge $-1 $275 $103 $98 $174 forward $166 $-1 #
edge $285 $110 -10 $179 10 $98 $286 forward 7 unknown #
coedge $-1 $106 $287 $99 $176 reversed $193 $-1 #
edge $288 $109 -10 $180 10 $175 $289 forward 7 unknown #
coedge $-1 $290 $100 $287 $291 reversed $57 $-1 #
ptlist-eye-attrib $-1 $-1 $-1 $101 #
vertex $-1 $101 $292 #
vertex $-1 $291 $293 #
straight-curve $-1 7.5 0 -10 1 0 0 I I #
coedge $-1 $294 $102 $295 $296 forward $20 $-1 #
coedge $-1 $168 $280 $102 $184 reversed $95 $-1 #
edge $297 $187 -2.5 $298 2.5 $183 $299 forward 7 unknown #
coedge $-1 $103 $275 $168 $274 reversed $166 $-1 #
ptlist-eye-attrib $-1 $-1 $-1 $104 #
vertex $-1 $104 $300 #
straight-curve $-1 0 -2.5 10 0 -1 0 I I #
coedge $-1 $105 $301 $302 $303 reversed $20 $-1 #
coedge $-1 $304 $305 $105 $191 reversed $306 $-1 #
edge $307 $308 1.160254037844387298 $195 2.5 $190 $309 forward 7 unknown #
coedge $-1 $310 $106 $305 $311 forward $193 $-1 #
loop $-1 $-1 $310 $312 #
ptlist-eye-attrib $-1 $-1 $-1 $107 #
vertex $-1 $107 $313 #
straight-curve $-1 10 5 10 0 -1 0 I I #
point $-1 10 0 10 #
point $-1 0 0 10 #
fmesh-eye-attrib $-1 $-1 $-1 $113 #
loop $-1 $-1 $216 $113 #
sphere-surface $-1 45 0 0 20 1 0 0 0 0 1 forward_v I I I I #
coedge $-1 $116 $208 $125 $214 reversed $66 $-1 #
coedge $-1 $216 $314 $117 $204 forward $200 $-1 #
edge $315 $210 -0.61547970867038726 $206 3.757072362260180043 $203 $316 forward 7 unknown #
ptlist-eye-attrib $-1 $-1 $-1 $118 #
vertex $-1 $118 $317 #
straight-curve $-1 55 0 10 0 1 0 I I #
coedge $-1 $202 $119 $314 $318 reversed $66 $-1 #
ptlist-eye-attrib $-1 $-1 $-1 $120 #
vertex $-1 $204 $319 #
point $-1 55 -4.999999999999997335 10 #
ptlist-eye-attrib $-1 $-1 $-1 $124 #
coedge $-1 $126 $125 $320 $321 reversed $114 $-1 #
edge $322 $128 4.999999999999997335 $323 14.14213562373095279 $125 $220 forward 7 unknown #
point $-1 55 -4.999999999999997335 -10 #
coedge $-1 $320 $203 $130 $217 forward $200 $-1 #
edge $324 $206 -2.186276035465283929 $219 -0.955316618124509298 $216 $325 forward 7 unknown #
ptlist-eye-attrib $-1 $-1 $-1 $131 #
vertex $-1 $321 $326 #
straight-curve $-1 55 0 -10 0 -1 0 I I #
fmesh-eye-attrib $-1 $-1 $-1 $135 #
face $327 $328 $329 $16 $-1 $330 reversed single #
loop $-1 $-1 $331 $135 #
plane-surface $-1 62.5 0 10 0 0 1 1 0 0 forward_v I I I I #
coedge $-1 $332 $333 $230 $334 forward $136 $-1 #
coedge $-1 $141 $138 $335 $336 reversed $81 $-1 #
coedge $-1 $138 $141 $337 $338 reversed $81 $-1 #
coedge $-1 $339 $340 $138 $229 reversed $341 $-1 #
edge $342 $343 -10 $344 10 $138 $345 forward 7 unknown #
coedge $-1 $140 $139 $225 $334 reversed $48 $-1 #
coedge $-1 $335 $346 $139 $232 forward $329 $-1 #
edge $347 $348 -7.5 $237 7.5 $139 $349 forward 7 unknown #
coedge $-1 $331 $337 $140 $234 forward $223 $-1 #
edge $350 $236 -7.5 $351 7.5 $140 $352 forward 7 unknown #
ptlist-eye-attrib $-1 $-1 $-1 $142 #
vertex $-1 $338 $353 #
vertex $-1 $336 $354 #
straight-curve $-1 80 -13 0 0 0 -1 I I #
fmesh-eye-attrib $-1 $-1 $-1 $144 #
face $355 $-1 $159 $10 $-1 $356 reversed single #
loop $-1 $-1 $257 $144 #
plane-surface $-1 17.5 18 0 0 -1 0 0 0 -1 forward_v I I I I #
coedge $-1 $357 $255 $258 $358 forward $145 $-1 #
coedge $-1 $262 $147 $148 $248 reversed $86 $-1 #
coedge $-1 $255 $357 $147 $246 reversed $145 $-1 #
edge $359 $264 -10 $360 10 $245 $361 forward 7 unknown #
coedge $-1 $149 $148 $357 $362 forward $52 $-1 #
edge $363 $253 -2.5 $360 2.5 $244 $364 forward 7 unknown #
coedge $-1 $258 $257 $149 $250 reversed $241 $-1 #
edge $365 $366 -2.5 $252 2.5 $249 $367 forward 7 unknown #
ptlist-eye-attrib $-1 $-1 $-1 $151 #
vertex $-1 $151 $368 #
vertex $-1 $266 $369 #
straight-curve $-1 20 0 -10 0 -1 0 I I #
coedge $-1 $243 $245 $152 $256 reversed $145 $-1 #
edge $370 $260 -18 $264 18 $255 $371 forward 7 unknown #
coedge $-1 $249 $153 $158 $267 forward $241 $-1 #
coedge $-1 $153 $249 $243 $358 reversed $241 $-1 #
ptlist-eye-attrib $-1 $-1 $-1 $154 #
vertex $-1 $154 $372 #
straight-curve $-1 17.5 18 10 -1 0 0 I I #
coedge $-1 $155 $244 $157 $266 reversed $86 $-1 #
ptlist-eye-attrib $-1 $-1 $-1 $156 #
vertex $-1 $256 $373 #
straight-curve $-1 17.5 -18 10 1 0 0 I I #
edge $374 $161 -10 $253 10 $157 $375 forward 7 unknown #
edge $376 $162 -10 $252 10 $158 $377 forward 7 unknown #
point $-1 20 -18 10 #
point $-1 20 18 10 #
fmesh-eye-attrib $-1 $-1 $-1 $165 #
face $378 $379 $380 $7 $-1 $381 reversed single #
loop $-1 $-1 $382 $165 #
plane-surface $-1 5 -7.5 0 1 0 0 0 0 -1 forward_v I I I I #
edge $383 $187 -10 $283 10 $185 $384 forward 7 unknown #
coedge $-1 $185 $173 $169 $276 reversed $166 $-1 #
edge $385 $283 -2.5 $179 2.5 $275 $386 forward 7 unknown #
coedge $-1 $170 $387 $388 $389 forward $57 $-1 #
coedge $-1 $390 $382 $170 $279 reversed $272 $-1 #
edge $391 $392 -2.5 $282 2.5 $278 $393 forward 7 unknown #
coedge $-1 $183 $171 $382 $394 reversed $95 $-1 #
ptlist-eye-attrib $-1 $-1 $-1 $172 #
vertex $-1 $172 $395 #
vertex $-1 $276 $396 #
straight-curve $-1 2.5 -5 -10 -1 0 0 I I #
ptlist-eye-attrib $-1 $-1 $-1 $174 #
straight-curve $-1 0 0 0 0 0 -1 I I #
coedge $-1 $175 $397 $177 $291 forward $193 $-1 #
ptlist-eye-attrib $-1 $-1 $-1 $176 #
straight-curve $-1 10 0 0 0 0 -1 I I #
coedge $-1 $398 $177 $399 $400 forward $57 $-1 #
edge $401 $402 -20 $180 -5 $287 $403 forward 7 unknown #
point $-1 0 0 -10 #
point $-1 10 0 -10 #
coedge $-1 $301 $182 $404 $405 forward $20 $-1 #
coedge $-1 $382 $390 $182 $296 reversed $272 $-1 #
edge $406 $298 -2.5 $407 2.5 $295 $408 forward 7 unknown #
ptlist-eye-attrib $-1 $-1 $-1 $184 #
vertex $-1 $296 $409 #
straight-curve $-1 2.5 -5 10 1 0 0 I I #
point $-1 0 -5 10 #
coedge $-1 $189 $294 $410 $411 reversed $20 $-1 #
coedge $-1 $412 $413 $189 $303 forward $414 $-1 #
edge $415 $308 -0.5235987755982989267 $416 3.757072362260180043 $302 $417 forward 7 unknown #
coedge $-1 $305 $190 $413 $418 reversed $306 $-1 #
coedge $-1 $190 $304 $192 $311 reversed $306 $-1 #
loop $-1 $-1 $304 $379 #
ptlist-eye-attrib $-1 $-1 $-1 $191 #
vertex $-1 $303 $419 #
straight-curve $-1 7.5 -15 10 1 0 0 I I #
coedge $-1 $397 $192 $420 $421 reversed $193 $-1 #
edge $422 $195 -10 $423 -8.660254037844389075 $192 $424 forward 7 unknown #
face $425 $426 $193 $7 $-1 $427 forward single #
point $-1 10 -15 10 #
coedge $-1 $203 $320 $208 $318 forward $200 $-1 #
ptlist-eye-attrib $-1 $-1 $-1 $204 #
ellipse-curve $-1 45 0 10 -0 -0 -1 0 -17.3205080756887746 0 1 I I #
point $-1 55 14.14213562373095279 10 #
edge $428 $323 0.955316618124509298 $210 2.186276035465283929 $314 $325 forward 7 unknown #
point $-1 55 -14.14213562373095279 10 #
coedge $-1 $314 $216 $213 $321 forward $200 $-1 #
edge $429 $219 -0.61547970867038726 $323 3.757072362260180043 $320 $430 forward 7 unknown #
ptlist-eye-attrib $-1 $-1 $-1 $214 #
vertex $-1 $318 $431 #
ptlist-eye-attrib $-1 $-1 $-1 $217 #
ellipse-curve $-1 55 0 0 -1 -0 -0 0 0 -17.3205080756887746 1 I I #
point $-1 55 14.14213562373095279 -10 #
fmesh-eye-attrib $-1 $-1 $-1 $222 #
face $432 $433 $341 $16 $-1 $434 reversed single #
loop $-1 $-1 $346 $222 #
plane-surface $-1 62.5 0 -10 0 0 1 1 0 0 forward_v I I I I #
coedge $-1 $435 $233 $333 $436 forward $223 $-1 #
coedge $-1 $437 $225 $346 $438 reversed $136 $-1 #
coedge $-1 $225 $437 $331 $436 reversed $136 $-1 #
edge $439 $351 -10 $348 10 $225 $440 forward 7 unknown #
coedge $-1 $441 $231 $226 $336 forward $329 $-1 #
edge $442 $237 -2.5 $344 2.5 $226 $443 forward 7 unknown #
coedge $-1 $233 $444 $227 $338 forward $223 $-1 #
edge $445 $343 -2.5 $236 2.5 $227 $446 forward 7 unknown #
coedge $-1 $447 $228 $444 $448 reversed $341 $-1 #
coedge $-1 $228 $447 $441 $449 reversed $341 $-1 #
loop $-1 $-1 $447 $328 #
ptlist-eye-attrib $-1 $-1 $-1 $229 #
vertex $-1 $338 $450 #
vertex $-1 $229 $451 #
straight-curve $-1 80 -18 0 0 0 -1 I I #
coedge $-1 $231 $452 $332 $438 forward $329 $-1 #
ptlist-eye-attrib $-1 $-1 $-1 $232 #
vertex $-1 $232 $453 #
straight-curve $-1 72.5 -13 -10 1 0 0 I I #
ptlist-eye-attrib $-1 $-1 $-1 $234 #
vertex $-1 $436 $454 #
straight-curve $-1 72.5 -13 10 -1 0 0 I I #
point $-1 80 -13 10 #
point $-1 80 -13 -10 #
fmesh-eye-attrib $-1 $-1 $-1 $240 #
plane-surface $-1 20 0 0 -1 0 0 0 0 1 forward_v I I I I #
coedge $-1 $245 $243 $247 $362 reversed $145 $-1 #
edge $455 $260 -10 $366 10 $258 $456 forward 7 unknown #
ptlist-eye-attrib $-1 $-1 $-1 $246 #
vertex $-1 $362 $457 #
straight-curve $-1 15 -18 0 0 0 -1 I I #
edge $458 $360 -18 $366 18 $357 $459 forward 7 unknown #
ptlist-eye-attrib $-1 $-1 $-1 $248 #
straight-curve $-1 17.5 -18 -10 -1 0 0 I I #
ptlist-eye-attrib $-1 $-1 $-1 $250 #
vertex $-1 $250 $460 #
straight-curve $-1 17.5 18 -10 1 0 0 I I #
point $-1 20 18 -10 #
point $-1 20 -18 -10 #
ptlist-eye-attrib $-1 $-1 $-1 $256 #
straight-curve $-1 15 0 10 0 -1 0 I I #
point $-1 15 18 10 #
point $-1 15 -18 10 #
ptlist-eye-attrib $-1 $-1 $-1 $266 #
straight-curve $-1 20 -18 0 0 0 -1 I I #
ptlist-eye-attrib $-1 $-1 $-1 $267 #
straight-curve $-1 20 18 0 0 0 -1 I I #
fmesh-eye-attrib $-1 $-1 $-1 $271 #
face $461 $462 $306 $7 $-1 $381 reversed single #
loop $-1 $-1 $463 $271 #
plane-surface $-1 7.5 -15 0 0 1 0 0 0 1 forward_v I I I I #
coedge $-1 $278 $295 $280 $394 forward $272 $-1 #
ptlist-eye-attrib $-1 $-1 $-1 $274 #
straight-curve $-1 0 -5 0 0 0 -1 I I #
ptlist-eye-attrib $-1 $-1 $-1 $276 #
straight-curve $-1 0 -2.5 -10 0 1 0 I I #
coedge $-1 $277 $398 $464 $465 reversed $57 $-1 #
coedge $-1 $466 $467 $277 $389 reversed $468 $-1 #
edge $469 $470 2.034443935795702707 $392 6.746832916180392381 $277 $471 forward 7 unknown #
coedge $-1 $295 $278 $467 $472 reversed $272 $-1 #
ptlist-eye-attrib $-1 $-1 $-1 $279 #
vertex $-1 $279 $473 #
straight-curve $-1 5 -7.5 -10 0 1 0 I I #
edge $474 $298 -10 $282 10 $382 $475 forward 7 unknown #
point $-1 5 -5 -10 #
point $-1 0 -5 -10 #
coedge $-1 $287 $310 $476 $477 forward $193 $-1 #
coedge $-1 $387 $290 $478 $479 reversed $57 $-1 #
coedge $-1 $476 $463 $290 $400 reversed $380 $-1 #
edge $480 $402 -2.5 $481 -1.160254037844387298 $399 $482 forward 7 unknown #
ptlist-eye-attrib $-1 $-1 $-1 $291 #
vertex $-1 $477 $483 #
straight-curve $-1 10 5 -10 0 1 0 I I #
coedge $-1 $467 $466 $294 $405 reversed $468 $-1 #
edge $484 $407 2.677945044588986967 $485 7.390334024973676641 $294 $486 forward 7 unknown #
ptlist-eye-attrib $-1 $-1 $-1 $296 #
vertex $-1 $405 $487 #
straight-curve $-1 5 -7.5 10 0 -1 0 I I #
point $-1 5 -5 10 #
coedge $-1 $488 $489 $301 $411 forward $490 $-1 #
edge $491 $416 -9.142135623730952787 $485 2.664535259100375697e-15 $410 $196 forward 7 unknown #
coedge $-1 $478 $302 $489 $492 forward $414 $-1 #
coedge $-1 $302 $420 $304 $418 forward $414 $-1 #
loop $-1 $-1 $413 $426 #
ptlist-eye-attrib $-1 $-1 $-1 $303 #
vertex $-1 $492 $493 #
ellipse-curve $-1 0 0 10 -0 -0 -1 0 -17.3205080756887746 0 1 I I #
edge $494 $423 -0.8570719478501307442 $308 -0.7137243789447657027 $413 $495 forward 7 unknown #
point $-1 8.660254037844387298 -15 10 #
coedge $-1 $413 $496 $310 $421 forward $414 $-1 #
edge $497 $498 1.047197551196597631 $423 2.094395102393195707 $420 $499 forward 7 unknown #
ptlist-eye-attrib $-1 $-1 $-1 $311 #
vertex $-1 $421 $500 #
straight-curve $-1 10 -15 0 0 0 -1 I I #
fmesh-eye-attrib $-1 $-1 $-1 $312 #
face $501 $-1 $414 $7 $-1 $502 forward single #
plane-surface $-1 10 10 10 1 0 0 0 0 -1 forward_v I I I I #
ptlist-eye-attrib $-1 $-1 $-1 $318 #
ptlist-eye-attrib $-1 $-1 $-1 $321 #
ellipse-curve $-1 45 0 -10 0 0 1 0 17.3205080756887746 0 1 I I #
point $-1 55 -14.14213562373095279 -10 #
fmesh-eye-attrib $-1 $-1 $-1 $328 #
face $503 $504 $505 $16 $-1 $506 reversed single #
plane-surface $-1 62.5 -18 0 0 1 0 0 0 1 forward_v I I I I #
coedge $-1 $507 $331 $508 $509 forward $223 $-1 #
edge $510 $351 -13 $511 18 $333 $512 forward 7 unknown #
coedge $-1 $333 $332 $513 $514 reversed $136 $-1 #
edge $515 $516 -18 $348 13 $332 $517 forward 7 unknown #
ptlist-eye-attrib $-1 $-1 $-1 $334 #
straight-curve $-1 65 -13 0 -0 -0 -1 I I #
coedge $-1 $518 $335 $340 $449 forward $329 $-1 #
ptlist-eye-attrib $-1 $-1 $-1 $336 #
straight-curve $-1 80 -15.5 -10 0 -1 0 I I #
coedge $-1 $337 $507 $339 $448 forward $223 $-1 #
ptlist-eye-attrib $-1 $-1 $-1 $338 #
straight-curve $-1 80 -15.5 10 0 1 0 I I #
coedge $-1 $340 $339 $519 $520 forward $341 $-1 #
edge $521 $522 -12.5 $343 7.5 $339 $523 forward 7 unknown #
edge $524 $344 -7.5 $525 12.5 $340 $526 forward 7 unknown #
point $-1 80 -18 10 #
point $-1 80 -18 -10 #
coedge $-1 $346 $518 $527 $528 forward $329 $-1 #
point $-1 65 -13 -10 #
point $-1 65 -13 10 #
ptlist-eye-attrib $-1 $-1 $-1 $358 #
straight-curve $-1 15 18 0 0 0 -1 I I #
point $-1 15 -18 -10 #
ptlist-eye-attrib $-1 $-1 $-1 $362 #
straight-curve $-1 15 0 -10 0 1 0 I I #
point $-1 15 18 -10 #
fmesh-eye-attrib $-1 $-1 $-1 $379 #
face $529 $530 $468 $7 $-1 $531 reversed single #
coedge $-1 $399 $476 $496 $532 reversed $380 $-1 #
coedge $-1 $489 $488 $387 $465 forward $490 $-1 #
edge $533 $470 -2.664535259100375697e-15 $534 9.142135623730952787 $464 $403 forward 7 unknown #
coedge $-1 $404 $388 $488 $535 reversed $468 $-1 #
coedge $-1 $388 $404 $390 $472 forward $468 $-1 #
loop $-1 $-1 $467 $462 #
ptlist-eye-attrib $-1 $-1 $-1 $389 #
vertex $-1 $465 $536 #
ellipse-curve $-1 0 0 -10 0 0 1 0 -11.18033988749894903 0 1 I I #
edge $537 $407 -2.356194490192344837 $392 -0.785398163397448279 $467 $538 forward 7 unknown #
point $-1 5 -10 -10 #
ptlist-eye-attrib $-1 $-1 $-1 $394 #
straight-curve $-1 5 -5 0 0 0 -1 I I #
coedge $-1 $463 $399 $397 $477 reversed $380 $-1 #
edge $539 $498 8.660254037844389075 $402 10 $397 $424 forward 7 unknown #
coedge $-1 $496 $412 $398 $479 forward $414 $-1 #
edge $540 $534 -0.61547970867038726 $481 3.665191429188091821 $478 $541 forward 7 unknown #
ptlist-eye-attrib $-1 $-1 $-1 $400 #
vertex $-1 $479 $542 #
straight-curve $-1 7.5 -15 -10 -1 0 0 I I #
point $-1 10 -15 -10 #
ptlist-eye-attrib $-1 $-1 $-1 $405 #
vertex $-1 $535 $543 #
ellipse-curve $-1 0 0 10 -0 -0 -1 0 11.18033988749894903 0 1 I I #
point $-1 5 -10 10 #
coedge $-1 $464 $410 $466 $535 forward $490 $-1 #
coedge $-1 $410 $464 $412 $492 reversed $490 $-1 #
loop $-1 $-1 $488 $530 #
ptlist-eye-attrib $-1 $-1 $-1 $411 #
edge $544 $416 -2.186276035465283929 $534 -0.955316618124509298 $412 $499 forward 7 unknown #
point $-1 10 14.14213562373095279 10 #
ptlist-eye-attrib $-1 $-1 $-1 $418 #
ellipse-curve $-1 0 -15 0 -0 -1 -0 0 0 13.22875655532295269 1 I I #
coedge $-1 $420 $478 $463 $532 forward $414 $-1 #
ptlist-eye-attrib $-1 $-1 $-1 $421 #
vertex $-1 $421 $545 #
ellipse-curve $-1 10 0 0 -1 -0 -0 0 0 -17.3205080756887746 1 I I #
point $-1 10 -15 8.660254037844389075 #
fmesh-eye-attrib $-1 $-1 $-1 $426 #
sphere-surface $-1 0 0 0 20 1 0 0 0 0 1 forward_v I I I I #
fmesh-eye-attrib $-1 $-1 $-1 $433 #
face $546 $-1 $547 $16 $-1 $548 reversed single #
loop $-1 $-1 $549 $433 #
plane-surface $-1 60 0 0 1 0 0 0 0 -1 forward_v I I I I #
coedge $-1 $444 $435 $550 $551 forward $223 $-1 #
coedge $-1 $513 $552 $435 $509 reversed $547 $-1 #
edge $553 $511 -2.5 $554 2.5 $508 $555 forward 7 unknown #
ptlist-eye-attrib $-1 $-1 $-1 $436 #
vertex $-1 $436 $556 #
straight-curve $-1 65 0 10 0 1 0 I I #
coedge $-1 $527 $508 $437 $514 forward $547 $-1 #
edge $557 $511 -10 $516 10 $437 $558 forward 7 unknown #
ptlist-eye-attrib $-1 $-1 $-1 $438 #
vertex $-1 $438 $559 #
straight-curve $-1 65 0 -10 0 -1 0 I I #
coedge $-1 $452 $441 $560 $561 forward $329 $-1 #
coedge $-1 $550 $560 $447 $520 reversed $505 $-1 #
edge $562 $522 -10 $525 10 $519 $563 forward 7 unknown #
ptlist-eye-attrib $-1 $-1 $-1 $448 #
vertex $-1 $551 $564 #
straight-curve $-1 72.5 -18 10 1 0 0 I I #
ptlist-eye-attrib $-1 $-1 $-1 $449 #
vertex $-1 $561 $565 #
straight-curve $-1 72.5 -18 -10 -1 0 0 I I #
coedge $-1 $552 $513 $452 $528 reversed $547 $-1 #
edge $566 $567 -2.5 $516 2.5 $527 $568 forward 7 unknown #
fmesh-eye-attrib $-1 $-1 $-1 $462 #
face $569 $312 $490 $7 $-1 $427 forward single #
sphere-surface $-1 0 0 0 15 1 0 0 0 0 1 forward_v I I I I #
edge $570 $481 -2.427868274645027746 $498 -2.284520705739662372 $496 $495 forward 7 unknown #
ptlist-eye-attrib $-1 $-1 $-1 $465 #
vertex $-1 $479 $571 #
edge $572 $485 0.4636476090008058715 $470 2.677945044588987411 $488 $573 forward 7 unknown #
point $-1 10 4.999999999999997335 -10 #
ptlist-eye-attrib $-1 $-1 $-1 $472 #
ellipse-curve $-1 5 0 0 1 0 0 0 0 -14.14213562373095101 1 I I #
ptlist-eye-attrib $-1 $-1 $-1 $477 #
ptlist-eye-attrib $-1 $-1 $-1 $479 #
ellipse-curve $-1 0 0 -10 0 0 1 0 17.3205080756887746 0 1 I I #
point $-1 8.660254037844387298 -15 -10 #
point $-1 10 4.999999999999997335 10 #
ptlist-eye-attrib $-1 $-1 $-1 $492 #
point $-1 10 -15 -8.660254037844389075 #
fmesh-eye-attrib $-1 $-1 $-1 $504 #
loop $-1 $-1 $513 $504 #
plane-surface $-1 62.5 18 0 0 -1 0 0 0 -1 forward_v I I I I #
coedge $-1 $560 $550 $552 $574 forward $505 $-1 #
coedge $-1 $549 $519 $507 $551 reversed $505 $-1 #
edge $575 $554 -18 $522 18 $550 $576 forward 7 unknown #
coedge $-1 $508 $527 $549 $574 reversed $547 $-1 #
ptlist-eye-attrib $-1 $-1 $-1 $509 #
vertex $-1 $509 $577 #
straight-curve $-1 62.5 18 10 -1 0 0 I I #
point $-1 65 18 10 #
ptlist-eye-attrib $-1 $-1 $-1 $514 #
straight-curve $-1 65 18 0 0 0 -1 I I #
point $-1 65 18 -10 #
coedge $-1 $519 $549 $518 $561 reversed $505 $-1 #
edge $578 $525 -18 $567 18 $560 $579 forward 7 unknown #
ptlist-eye-attrib $-1 $-1 $-1 $520 #
straight-curve $-1 60 -18 0 0 0 -1 I I #
point $-1 60 -18 10 #
point $-1 60 -18 -10 #
ptlist-eye-attrib $-1 $-1 $-1 $528 #
vertex $-1 $528 $580 #
straight-curve $-1 62.5 18 -10 1 0 0 I I #
fmesh-eye-attrib $-1 $-1 $-1 $530 #
ptlist-eye-attrib $-1 $-1 $-1 $532 #
point $-1 10 14.14213562373095279 -10 #
ptlist-eye-attrib $-1 $-1 $-1 $535 #
ellipse-curve $-1 10 0 0 -1 -0 -0 0 0 11.18033988749894903 1 I I #
edge $581 $554 -10 $567 10 $552 $582 forward 7 unknown #
ptlist-eye-attrib $-1 $-1 $-1 $551 #
straight-curve $-1 60 0 10 0 -1 0 I I #
point $-1 60 18 10 #
ptlist-eye-attrib $-1 $-1 $-1 $561 #
straight-curve $-1 60 0 -10 0 1 0 I I #
point $-1 60 18 -10 #
ptlist-eye-attrib $-1 $-1 $-1 $574 #
straight-curve $-1 60 18 0 0 0 -1 I I #
End-of-ACIS-data 