600 0 3 0           
23 ACIS/3D Toolkit - 6.0.3 18 ACIS 6.0.3 Solaris 24 Thu Jul 12 13:13:53 2001 
1 9.999999999999999547e-07 1.000000000000000036e-10 
body $3 $4 $-1 $5 #
body $6 $7 $-1 $8 #
body $9 $10 $-1 $11 #
rgb_color-st-attrib $-1 $-1 $-1 $0 0 0 1 #
lump $-1 $12 $13 $0 #
transform $-1 1 0 0 0 1 0 0 0 1 0 0 -5 1 no_rotate no_reflect no_shear #
rgb_color-st-attrib $-1 $-1 $-1 $1 1 1 0 #
lump $-1 $-1 $14 $1 #
transform $-1 1 0 0 0 1 0 0 0 1 17.5 25 -10 1 no_rotate no_reflect no_shear #
rgb_color-st-attrib $-1 $-1 $-1 $2 0 0 1 #
lump $-1 $-1 $15 $2 #
transform $-1 1 0 0 0 1 0 0 0 1 17.5 25 -10 1 no_rotate no_reflect no_shear #
lump $-1 $16 $17 $0 #
shell $-1 $-1 $-1 $18 $-1 $4 #
shell $-1 $-1 $-1 $19 $-1 $7 #
shell $-1 $-1 $-1 $20 $-1 $10 #
lump $-1 $21 $22 $0 #
shell $-1 $-1 $-1 $23 $-1 $12 #
face $24 $25 $26 $13 $-1 $27 reversed single #
face $-1 $28 $29 $14 $-1 $30 forward single #
face $31 $-1 $-1 $15 $-1 $32 forward single #
lump $-1 $-1 $33 $0 #
shell $-1 $-1 $-1 $34 $-1 $16 #
face $35 $36 $37 $17 $-1 $38 forward single #
fmesh-eye-attrib $-1 $-1 $-1 $18 #
face $39 $40 $41 $13 $-1 $42 forward single #
loop $-1 $-1 $43 $18 #
plane-surface $-1 30 0 -5 0 0 1 1 0 0 forward_v I I I I #
face $-1 $44 $45 $14 $-1 $30 forward single #
loop $-1 $46 $47 $19 #
cone-surface $-1 0 0 -20 0 0 -1 25 0 0 1 I I 0 1 25 forward I I I I #
fmesh-eye-attrib $-1 $-1 $-1 $20 #
sphere-surface $-1 0 0 0 5 1 0 0 0 0 1 forward_v I I I I #
shell $-1 $-1 $-1 $48 $-1 $21 #
face $49 $50 $51 $22 $-1 $27 reversed single #
fmesh-eye-attrib $-1 $-1 $-1 $23 #
face $52 $53 $54 $17 $-1 $55 reversed single #
loop $-1 $-1 $56 $23 #
plane-surface $-1 30 0 5 0 0 1 1 0 0 forward_v I I I I #
fmesh-eye-attrib $-1 $-1 $-1 $25 #
face $57 $58 $59 $13 $-1 $60 forward single #
loop $-1 $-1 $61 $25 #
plane-surface $-1 55 0 0 1 0 0 0 0 -1 forward_v I I I I #
coedge $-1 $62 $63 $64 $65 reversed $26 $-1 #
face $-1 $66 $67 $14 $-1 $30 forward single #
loop $-1 $68 $69 $28 #
loop $-1 $-1 $70 $19 #
coedge $-1 $47 $47 $71 $72 reversed $29 $-1 #
face $73 $74 $75 $33 $-1 $76 reversed single #
fmesh-eye-attrib $-1 $-1 $-1 $34 #
face $77 $78 $79 $22 $-1 $80 reversed single #
loop $-1 $-1 $81 $34 #
fmesh-eye-attrib $-1 $-1 $-1 $36 #
face $82 $83 $84 $17 $-1 $85 reversed single #
loop $-1 $-1 $86 $36 #
plane-surface $-1 65 0 0 -1 0 0 0 0 1 forward_v I I I I #
coedge $-1 $87 $88 $89 $90 reversed $37 $-1 #
fmesh-eye-attrib $-1 $-1 $-1 $40 #
face $91 $92 $93 $13 $-1 $42 forward single #
loop $-1 $-1 $94 $40 #
sphere-surface $-1 45 0 0 20 1 0 0 0 0 1 forward_v I I I I #
coedge $-1 $95 $96 $97 $98 forward $41 $-1 #
coedge $-1 $97 $43 $94 $99 reversed $26 $-1 #
coedge $-1 $43 $97 $100 $101 reversed $26 $-1 #
coedge $-1 $102 $103 $43 $65 forward $93 $-1 #
edge $104 $105 -16.58312395177700083 $106 -10 $64 $107 forward 7 unknown #
face $-1 $108 $109 $14 $-1 $30 forward single #
loop $-1 $110 $111 $44 #
loop $-1 $-1 $112 $28 #
coedge $-1 $69 $69 $113 $114 reversed $45 $-1 #
coedge $-1 $70 $70 $115 $116 reversed $46 $-1 #
coedge $-1 $71 $71 $47 $72 forward $117 $-1 #
edge $-1 $118 -3.141592653589793116 $118 3.141592653589793116 $71 $119 forward 7 unknown #
fmesh-eye-attrib $-1 $-1 $-1 $48 #
face $120 $121 $122 $33 $-1 $123 reversed single #
loop $-1 $-1 $124 $48 #
plane-surface $-1 15 0 0 1 0 0 0 0 -1 forward_v I I I I #
fmesh-eye-attrib $-1 $-1 $-1 $50 #
face $125 $126 $127 $22 $-1 $128 forward single #
loop $-1 $-1 $129 $50 #
sphere-surface $-1 0 0 0 15 1 0 0 0 0 1 forward_v I I I I #
coedge $-1 $130 $131 $132 $133 reversed $51 $-1 #
fmesh-eye-attrib $-1 $-1 $-1 $53 #
face $134 $135 $136 $17 $-1 $137 reversed single #
loop $-1 $-1 $138 $53 #
plane-surface $-1 72.5 -13 0 0 -1 0 0 0 -1 forward_v I I I I #
coedge $-1 $139 $140 $141 $142 forward $54 $-1 #
coedge $-1 $143 $56 $144 $145 reversed $37 $-1 #
coedge $-1 $56 $146 $147 $148 reversed $37 $-1 #
coedge $-1 $149 $150 $56 $90 forward $151 $-1 #
edge $152 $153 -33.75 $154 -13.75 $89 $155 forward 7 unknown #
fmesh-eye-attrib $-1 $-1 $-1 $58 #
face $156 $157 $158 $13 $-1 $159 reversed single #
loop $-1 $-1 $64 $58 #
coedge $-1 $160 $161 $62 $99 forward $59 $-1 #
coedge $-1 $162 $61 $161 $163 reversed $41 $-1 #
coedge $-1 $61 $162 $164 $165 forward $41 $-1 #
coedge $-1 $63 $62 $61 $98 reversed $26 $-1 #
edge $166 $167 10 $168 16.58312395177700083 $61 $169 forward 7 unknown #
edge $170 $168 -0.5426391022496527272 $105 3.684231755839445732 $94 $171 forward 7 unknown #
coedge $-1 $164 $172 $63 $101 forward $158 $-1 #
edge $173 $106 2.356194490192344837 $167 7.068583470577034511 $100 $174 forward 7 unknown #
coedge $-1 $175 $64 $172 $176 forward $93 $-1 #
coedge $-1 $64 $175 $160 $177 reversed $93 $-1 #
ptlist-eye-attrib $-1 $-1 $-1 $65 #
vertex $-1 $177 $178 #
vertex $-1 $176 $179 #
straight-curve $-1 55 0 -5 0 1 0 I I #
face $180 $181 $182 $14 $-1 $183 forward single #
loop $-1 $184 $185 $66 #
loop $-1 $-1 $186 $44 #
coedge $-1 $111 $111 $187 $188 reversed $67 $-1 #
coedge $-1 $112 $112 $189 $190 reversed $68 $-1 #
coedge $-1 $113 $113 $69 $114 forward $191 $-1 #
edge $-1 $192 -3.141592653589793116 $192 3.141592653589793116 $113 $193 forward 7 unknown #
coedge $-1 $115 $115 $70 $116 forward $194 $-1 #
edge $-1 $195 -3.141592653589793116 $195 3.141592653589793116 $115 $196 forward 7 unknown #
loop $-1 $197 $71 $198 #
vertex $-1 $72 $199 #
ellipse-curve $-1 0 0 -15 0 0 1 25 0 0 1 I I #
fmesh-eye-attrib $-1 $-1 $-1 $74 #
face $200 $201 $202 $33 $-1 $38 forward single #
loop $-1 $-1 $203 $74 #
plane-surface $-1 17.5 18 0 0 -1 0 0 0 -1 forward_v I I I I #
coedge $-1 $204 $205 $206 $207 forward $75 $-1 #
fmesh-eye-attrib $-1 $-1 $-1 $78 #
face $208 $209 $210 $22 $-1 $211 forward single #
loop $-1 $-1 $212 $78 #
plane-surface $-1 10 10 10 1 0 0 0 0 -1 forward_v I I I I #
coedge $-1 $213 $214 $215 $216 forward $79 $-1 #
coedge $-1 $217 $81 $218 $219 reversed $51 $-1 #
coedge $-1 $81 $220 $221 $222 reversed $51 $-1 #
coedge $-1 $223 $224 $81 $133 forward $225 $-1 #
edge $226 $227 8.75 $228 18.75 $132 $229 forward 7 unknown #
fmesh-eye-attrib $-1 $-1 $-1 $83 #
face $230 $231 $151 $17 $-1 $232 reversed single #
loop $-1 $-1 $233 $83 #
plane-surface $-1 80 -15.5 0 -1 0 0 0 0 1 forward_v I I I I #
coedge $-1 $234 $235 $236 $237 forward $84 $-1 #
coedge $-1 $238 $86 $239 $240 reversed $54 $-1 #
coedge $-1 $86 $238 $234 $241 forward $54 $-1 #
coedge $-1 $236 $242 $86 $142 reversed $243 $-1 #
edge $244 $245 -13 $246 18 $86 $247 forward 7 unknown #
coedge $-1 $248 $87 $249 $250 reversed $37 $-1 #
coedge $-1 $251 $252 $87 $145 forward $136 $-1 #
edge $253 $254 5.25 $153 10.25 $144 $255 forward 7 unknown #
coedge $-1 $88 $248 $256 $257 reversed $37 $-1 #
coedge $-1 $258 $259 $88 $148 forward $260 $-1 #
edge $261 $154 -18 $262 18 $147 $263 forward 7 unknown #
coedge $-1 $264 $89 $259 $265 forward $151 $-1 #
coedge $-1 $89 $264 $251 $266 reversed $151 $-1 #
loop $-1 $-1 $264 $135 #
ptlist-eye-attrib $-1 $-1 $-1 $90 #
vertex $-1 $266 $267 #
vertex $-1 $265 $268 #
straight-curve $-1 46.25 -18 5 -1 0 0 I I #
fmesh-eye-attrib $-1 $-1 $-1 $92 #
face $269 $-1 $270 $13 $-1 $38 forward single #
loop $-1 $-1 $100 $92 #
sphere-surface $-1 45 0 0 15 1 0 0 0 0 1 forward_v I I I I #
coedge $-1 $271 $94 $103 $177 forward $59 $-1 #
coedge $-1 $94 $271 $95 $163 forward $59 $-1 #
coedge $-1 $96 $95 $272 $273 forward $41 $-1 #
edge $274 $275 -1.863639098523472093 $168 -1.277953555066321245 $161 $276 forward 7 unknown #
coedge $-1 $277 $100 $96 $165 reversed $158 $-1 #
edge $278 $279 1.107148717794090409 $167 2.034443935795702707 $96 $280 forward 7 unknown #
ptlist-eye-attrib $-1 $-1 $-1 $98 #
vertex $-1 $101 $281 #
vertex $-1 $99 $282 #
straight-curve $-1 55 0 -5 0 1 0 I I #
ptlist-eye-attrib $-1 $-1 $-1 $99 #
ellipse-curve $-1 45 0 -5 0 0 1 0 19.36491673103708422 0 1 I I #
coedge $-1 $100 $277 $102 $176 reversed $158 $-1 #
ptlist-eye-attrib $-1 $-1 $-1 $101 #
ellipse-curve $-1 45 0 -5 -0 -0 -1 0 14.14213562373095101 0 1 I I #
coedge $-1 $103 $102 $283 $284 forward $93 $-1 #
edge $285 $106 -2.034443935795702707 $286 -1.107148717794090409 $102 $280 forward 7 unknown #
edge $287 $105 1.277953555066321245 $288 1.863639098523472093 $160 $276 forward 7 unknown #
point $-1 55 -16.58312395177700083 -5 #
point $-1 55 -10 -5 #
fmesh-eye-attrib $-1 $-1 $-1 $108 #
face $289 $290 $291 $14 $-1 $292 forward single #
loop $-1 $-1 $293 $108 #
sphere-surface $-1 0 0 -45 5 1 0 0 0 0 1 forward_v I I I I #
loop $-1 $-1 $294 $66 #
coedge $-1 $185 $185 $295 $296 reversed $109 $-1 #
coedge $-1 $186 $186 $297 $298 reversed $110 $-1 #
coedge $-1 $187 $187 $111 $188 forward $299 $-1 #
edge $-1 $300 -3.141592653589793116 $300 3.141592653589793116 $187 $301 forward 7 unknown #
coedge $-1 $189 $189 $112 $190 forward $302 $-1 #
edge $-1 $303 -3.141592653589793116 $303 3.141592653589793116 $189 $304 forward 7 unknown #
loop $-1 $305 $113 $306 #
vertex $-1 $114 $307 #
ellipse-curve $-1 0 0 -30 -0 -0 -1 25 0 0 1 I I #
loop $-1 $308 $115 $309 #
vertex $-1 $116 $310 #
ellipse-curve $-1 0 0 -20 -0 -0 -1 25 0 0 1 I I #
loop $-1 $-1 $311 $198 #
face $312 $313 $117 $14 $-1 $314 reversed single #
point $-1 -25 -3.061616997868383043e-15 -15 #
fmesh-eye-attrib $-1 $-1 $-1 $121 #
face $315 $316 $317 $33 $-1 $318 reversed single #
loop $-1 $-1 $319 $121 #
coedge $-1 $320 $321 $322 $323 forward $122 $-1 #
coedge $-1 $324 $124 $325 $326 reversed $75 $-1 #
coedge $-1 $124 $324 $320 $327 forward $75 $-1 #
coedge $-1 $322 $328 $124 $207 reversed $329 $-1 #
edge $330 $331 -18 $332 18 $124 $333 forward 7 unknown #
fmesh-eye-attrib $-1 $-1 $-1 $126 #
face $334 $335 $336 $22 $-1 $128 forward single #
loop $-1 $-1 $337 $126 #
sphere-surface $-1 0 0 0 20 1 0 0 0 0 1 forward_v I I I I #
coedge $-1 $338 $339 $340 $341 forward $127 $-1 #
coedge $-1 $342 $129 $339 $343 reversed $79 $-1 #
coedge $-1 $129 $342 $344 $345 forward $79 $-1 #
coedge $-1 $346 $340 $129 $216 reversed $51 $-1 #
edge $347 $348 2.780225529683085561 $349 7.068583470577034511 $129 $350 forward 7 unknown #
coedge $-1 $340 $130 $337 $351 reversed $51 $-1 #
coedge $-1 $352 $353 $130 $219 forward $336 $-1 #
edge $354 $355 -21.58312395177700083 $227 -5 $218 $356 forward 7 unknown #
coedge $-1 $131 $346 $357 $358 reversed $51 $-1 #
coedge $-1 $359 $360 $131 $222 forward $361 $-1 #
edge $362 $228 -1.25 $363 3.75 $221 $364 forward 7 unknown #
coedge $-1 $365 $132 $360 $366 reversed $225 $-1 #
coedge $-1 $132 $365 $352 $367 forward $225 $-1 #
loop $-1 $-1 $132 $368 #
ptlist-eye-attrib $-1 $-1 $-1 $133 #
vertex $-1 $133 $369 #
vertex $-1 $133 $370 #
straight-curve $-1 18.75 0 -5 -1 0 0 I I #
fmesh-eye-attrib $-1 $-1 $-1 $135 #
face $371 $372 $260 $17 $-1 $373 reversed single #
plane-surface $-1 62.5 -18 0 0 1 0 0 0 1 forward_v I I I I #
coedge $-1 $252 $251 $374 $375 forward $136 $-1 #
coedge $-1 $249 $138 $140 $241 reversed $84 $-1 #
coedge $-1 $138 $249 $252 $376 forward $84 $-1 #
coedge $-1 $374 $141 $138 $237 reversed $243 $-1 #
edge $377 $378 -28.75 $245 -13.75 $138 $379 forward 7 unknown #
coedge $-1 $140 $139 $248 $380 forward $54 $-1 #
coedge $-1 $381 $256 $139 $240 forward $382 $-1 #
edge $383 $384 -5 $246 5 $139 $385 forward 7 unknown #
edge $386 $387 -5 $245 5 $140 $388 forward 7 unknown #
coedge $-1 $141 $389 $381 $390 reversed $243 $-1 #
loop $-1 $-1 $236 $391 #
ptlist-eye-attrib $-1 $-1 $-1 $142 #
vertex $-1 $237 $392 #
vertex $-1 $390 $393 #
straight-curve $-1 65 0 -5 0 1 -0 I I #
coedge $-1 $146 $143 $238 $380 reversed $37 $-1 #
coedge $-1 $235 $234 $143 $250 forward $84 $-1 #
edge $394 $387 13.75 $254 28.75 $249 $395 forward 7 unknown #
coedge $-1 $233 $144 $150 $266 forward $136 $-1 #
coedge $-1 $144 $233 $235 $376 reversed $136 $-1 #
ptlist-eye-attrib $-1 $-1 $-1 $145 #
vertex $-1 $376 $396 #
straight-curve $-1 80 -7.75 5 0 -1 0 I I #
coedge $-1 $239 $397 $146 $257 forward $382 $-1 #
edge $398 $262 13.75 $384 18.75 $256 $399 forward 7 unknown #
coedge $-1 $400 $147 $397 $401 forward $260 $-1 #
coedge $-1 $147 $400 $149 $265 reversed $260 $-1 #
loop $-1 $-1 $400 $231 #
ptlist-eye-attrib $-1 $-1 $-1 $148 #
vertex $-1 $401 $402 #
straight-curve $-1 60 0 5 0 1 0 I I #
coedge $-1 $150 $149 $403 $404 forward $151 $-1 #
edge $405 $154 -5 $406 5 $259 $407 forward 7 unknown #
edge $408 $153 -5 $409 5 $251 $410 forward 7 unknown #
point $-1 80 -18 5 #
point $-1 60 -18 5 #
fmesh-eye-attrib $-1 $-1 $-1 $157 #
loop $-1 $-1 $411 $157 #
coedge $-1 $161 $160 $412 $413 forward $59 $-1 #
coedge $-1 $412 $411 $162 $273 reversed $270 $-1 #
edge $414 $275 -16.58312395177700083 $279 -10 $162 $415 forward 7 unknown #
ptlist-eye-attrib $-1 $-1 $-1 $163 #
vertex $-1 $163 $416 #
ellipse-curve $-1 55 0 0 -1 -0 -0 0 0 -17.3205080756887746 1 I I #
coedge $-1 $172 $164 $411 $417 forward $158 $-1 #
ptlist-eye-attrib $-1 $-1 $-1 $165 #
vertex $-1 $165 $418 #
ellipse-curve $-1 55 0 0 -1 -0 -0 0 0 11.18033988749894903 1 I I #
point $-1 55 10 -5 #
point $-1 55 16.58312395177700083 -5 #
coedge $-1 $411 $412 $175 $284 reversed $270 $-1 #
edge $419 $286 10 $288 16.58312395177700083 $175 $420 forward 7 unknown #
ptlist-eye-attrib $-1 $-1 $-1 $176 #
vertex $-1 $417 $421 #
ptlist-eye-attrib $-1 $-1 $-1 $177 #
vertex $-1 $284 $422 #
fmesh-eye-attrib $-1 $-1 $-1 $181 #
face $423 $424 $425 $14 $-1 $426 forward single #
loop $-1 $427 $428 $181 #
sphere-surface $-1 0 0 0 50 1 0 0 0 0 1 forward_v I I I I #
coedge $-1 $293 $293 $429 $430 reversed $182 $-1 #
coedge $-1 $294 $294 $431 $432 reversed $184 $-1 #
coedge $-1 $295 $295 $185 $296 forward $433 $-1 #
edge $-1 $434 -3.141592653589793116 $434 3.141592653589793116 $295 $435 forward 7 unknown #
coedge $-1 $297 $297 $186 $298 forward $436 $-1 #
edge $-1 $437 -3.141592653589793116 $437 3.141592653589793116 $297 $438 forward 7 unknown #
loop $-1 $439 $187 $440 #
vertex $-1 $188 $441 #
ellipse-curve $-1 0 0 -10 -0 -0 -1 25 0 0 1 I I #
loop $-1 $442 $189 $313 #
vertex $-1 $190 $443 #
ellipse-curve $-1 0 0 -25 0 0 1 25 0 0 1 I I #
loop $-1 $-1 $444 $306 #
face $445 $440 $191 $14 $-1 $446 forward single #
point $-1 -25 3.061616997868383043e-15 -30 #
loop $-1 $-1 $447 $309 #
face $448 $449 $194 $14 $-1 $450 forward single #
point $-1 -25 3.061616997868383043e-15 -20 #
coedge $-1 $311 $311 $451 $452 reversed $197 $-1 #
fmesh-eye-attrib $-1 $-1 $-1 $198 #
face $453 $454 $302 $14 $-1 $455 reversed single #
plane-surface $-1 -17.5 -25 -15 0 0 1 1 0 0 forward_v I I I I #
fmesh-eye-attrib $-1 $-1 $-1 $201 #
face $456 $457 $458 $33 $-1 $459 reversed single #
loop $-1 $-1 $460 $201 #
plane-surface $-1 20 0 0 -1 0 0 0 0 1 forward_v I I I I #
coedge $-1 $461 $462 $463 $464 reversed $202 $-1 #
coedge $-1 $465 $203 $205 $327 reversed $122 $-1 #
coedge $-1 $203 $465 $466 $467 forward $122 $-1 #
coedge $-1 $468 $206 $203 $323 reversed $329 $-1 #
edge $469 $470 3.75 $331 8.75 $203 $471 forward 7 unknown #
coedge $-1 $205 $204 $462 $472 forward $75 $-1 #
coedge $-1 $473 $463 $204 $326 forward $458 $-1 #
edge $474 $475 -5 $332 5 $204 $476 forward 7 unknown #
edge $477 $478 -5 $331 5 $320 $479 forward 7 unknown #
coedge $-1 $206 $468 $473 $480 reversed $329 $-1 #
loop $-1 $-1 $322 $457 #
ptlist-eye-attrib $-1 $-1 $-1 $207 #
vertex $-1 $323 $481 #
vertex $-1 $207 $482 #
straight-curve $-1 15 0 -5 0 -1 0 I I #
fmesh-eye-attrib $-1 $-1 $-1 $209 #
face $483 $484 $485 $22 $-1 $38 forward single #
loop $-1 $-1 $218 $209 #
coedge $-1 $486 $487 $217 $351 forward $210 $-1 #
coedge $-1 $488 $212 $487 $489 reversed $127 $-1 #
coedge $-1 $212 $488 $213 $343 forward $127 $-1 #
coedge $-1 $215 $217 $212 $341 reversed $51 $-1 #
edge $490 $349 5 $491 11.58312395177700083 $212 $492 forward 7 unknown #
coedge $-1 $214 $213 $493 $494 forward $79 $-1 #
edge $495 $496 1.107148717794090409 $349 2.034443935795702707 $339 $497 forward 7 unknown #
coedge $-1 $498 $499 $214 $345 reversed $500 $-1 #
edge $501 $502 -1.932163450701604557 $348 -1.209429202888188781 $214 $503 forward 7 unknown #
coedge $-1 $220 $215 $499 $504 reversed $51 $-1 #
ptlist-eye-attrib $-1 $-1 $-1 $216 #
vertex $-1 $504 $505 #
vertex $-1 $341 $506 #
ellipse-curve $-1 0 0 -5 -0 -0 -1 0 14.14213562373095101 0 1 I I #
edge $507 $491 -0.5426391022496527272 $355 3.684231755839445732 $337 $508 forward 7 unknown #
coedge $-1 $509 $218 $224 $367 reversed $336 $-1 #
coedge $-1 $218 $509 $486 $510 reversed $336 $-1 #
ptlist-eye-attrib $-1 $-1 $-1 $219 #
vertex $-1 $510 $511 #
straight-curve $-1 10 5 -5 0 1 0 I I #
coedge $-1 $512 $513 $220 $358 forward $514 $-1 #
edge $515 $363 -16.25 $516 -11.25 $357 $517 forward 7 unknown #
coedge $-1 $518 $221 $513 $519 reversed $361 $-1 #
coedge $-1 $221 $518 $223 $366 forward $361 $-1 #
loop $-1 $-1 $221 $520 #
ptlist-eye-attrib $-1 $-1 $-1 $222 #
vertex $-1 $222 $521 #
straight-curve $-1 0 -1.25 -5 0 -1 0 I I #
coedge $-1 $224 $223 $522 $523 forward $225 $-1 #
edge $524 $525 -5 $228 5 $223 $526 forward 7 unknown #
edge $527 $528 -5 $227 5 $352 $529 forward 7 unknown #
face $530 $531 $225 $22 $-1 $532 reversed single #
point $-1 10 0 -5 #
point $-1 0 0 -5 #
fmesh-eye-attrib $-1 $-1 $-1 $231 #
face $533 $391 $382 $17 $-1 $534 reversed single #
plane-surface $-1 60 0 0 1 0 0 0 0 -1 forward_v I I I I #
coedge $-1 $403 $236 $233 $375 reversed $243 $-1 #
edge $535 $409 -10.25 $378 -5.25 $233 $536 forward 7 unknown #
edge $537 $254 -5 $378 5 $252 $538 forward 7 unknown #
ptlist-eye-attrib $-1 $-1 $-1 $237 #
vertex $-1 $375 $539 #
straight-curve $-1 51.25 -13 -5 -1 0 0 I I #
edge $540 $384 -18 $387 13 $238 $541 forward 7 unknown #
coedge $-1 $397 $239 $242 $390 forward $382 $-1 #
loop $-1 $-1 $381 $372 #
ptlist-eye-attrib $-1 $-1 $-1 $240 #
vertex $-1 $240 $542 #
straight-curve $-1 65 18 0 0 0 -1 I I #
ptlist-eye-attrib $-1 $-1 $-1 $241 #
vertex $-1 $241 $543 #
straight-curve $-1 65 -13 0 -0 -0 -1 I I #
coedge $-1 $242 $403 $400 $544 reversed $243 $-1 #
edge $545 $246 -18.75 $546 -13.75 $381 $547 forward 7 unknown #
face $548 $-1 $243 $17 $-1 $27 reversed single #
point $-1 65 -13 -5 #
point $-1 65 18 -5 #
ptlist-eye-attrib $-1 $-1 $-1 $250 #
straight-curve $-1 51.25 -13 5 1 0 -0 I I #
point $-1 80 -13 5 #
coedge $-1 $256 $381 $258 $401 reversed $382 $-1 #
ptlist-eye-attrib $-1 $-1 $-1 $257 #
straight-curve $-1 46.25 18 5 1 0 -0 I I #
coedge $-1 $259 $258 $389 $544 forward $260 $-1 #
edge $549 $262 -5 $546 5 $397 $550 forward 7 unknown #
point $-1 60 18 5 #
coedge $-1 $389 $374 $264 $404 reversed $243 $-1 #
edge $551 $406 13.75 $409 33.75 $264 $552 forward 7 unknown #
ptlist-eye-attrib $-1 $-1 $-1 $265 #
vertex $-1 $404 $553 #
straight-curve $-1 60 -18 0 0 0 -1 I I #
ptlist-eye-attrib $-1 $-1 $-1 $266 #
vertex $-1 $404 $554 #
straight-curve $-1 80 -18 0 0 0 -1 I I #
coedge $-1 $272 $283 $277 $417 reversed $270 $-1 #
coedge $-1 $283 $272 $271 $413 reversed $270 $-1 #
edge $555 $288 -0.5426391022496527272 $275 3.684231755839445732 $271 $556 forward 7 unknown #
ptlist-eye-attrib $-1 $-1 $-1 $273 #
straight-curve $-1 55 0 5 0 -1 0 I I #
point $-1 55 16.58312395177700083 5 #
edge $557 $279 2.356194490192344837 $286 7.068583470577034511 $277 $558 forward 7 unknown #
point $-1 55 10 5 #
ptlist-eye-attrib $-1 $-1 $-1 $284 #
straight-curve $-1 55 0 5 0 -1 0 I I #
point $-1 55 -10 5 #
point $-1 55 -16.58312395177700083 5 #
fmesh-eye-attrib $-1 $-1 $-1 $290 #
face $559 $560 $436 $14 $-1 $561 reversed single #
loop $-1 $-1 $562 $290 #
plane-surface $-1 -17.5 -25 0 0 0 1 1 0 0 forward_v I I I I #
loop $-1 $-1 $563 $181 #
coedge $-1 $428 $428 $564 $565 forward $291 $-1 #
coedge $-1 $429 $429 $293 $430 forward $566 $-1 #
edge $567 $568 -3.141592653589793116 $568 3.141592653589793116 $429 $569 forward 7 unknown #
coedge $-1 $431 $431 $294 $432 forward $570 $-1 #
edge $-1 $571 0 $571 6.283185307179586232 $431 $572 forward 7 unknown #
loop $-1 $573 $295 $560 #
vertex $-1 $296 $574 #
ellipse-curve $-1 0 0 -35 0 0 1 25 0 0 1 I I #
loop $-1 $575 $297 $424 #
vertex $-1 $298 $576 #
ellipse-curve $-1 0 0 -5 0 0 1 25 0 0 1 I I #
loop $-1 $-1 $577 $440 #
face $578 $579 $299 $14 $-1 $580 forward single #
point $-1 -25 3.061616997868383043e-15 -10 #
loop $-1 $-1 $581 $313 #
point $-1 -25 -3.061616997868383043e-15 -25 #
coedge $-1 $444 $444 $582 $583 reversed $305 $-1 #
fmesh-eye-attrib $-1 $-1 $-1 $306 #
plane-surface $-1 -17.5 -25 -30 0 0 1 1 0 0 forward_v I I I I #
coedge $-1 $447 $447 $584 $585 reversed $308 $-1 #
fmesh-eye-attrib $-1 $-1 $-1 $309 #
face $586 $587 $566 $14 $-1 $588 reversed single #
plane-surface $-1 -17.5 -25 -20 0 0 1 1 0 0 forward_v I I I I #
coedge $-1 $451 $451 $311 $452 forward $589 $-1 #
edge $590 $591 -3.141592653589793116 $591 3.141592653589793116 $451 $592 forward 7 unknown #
fmesh-eye-attrib $-1 $-1 $-1 $313 #
face $593 $309 $594 $14 $-1 $292 forward single #
plane-surface $-1 -17.5 -25 -25 0 0 1 1 0 0 forward_v I I I I #
fmesh-eye-attrib $-1 $-1 $-1 $316 #
face $595 $-1 $329 $33 $-1 $27 reversed single #
loop $-1 $-1 $473 $316 #
plane-surface $-1 17.5 -18 0 0 1 0 0 0 1 forward_v I I I I #
coedge $-1 $466 $596 $468 $597 forward $317 $-1 #
coedge $-1 $598 $319 $599 $600 reversed $202 $-1 #
coedge $-1 $319 $598 $324 $472 reversed $202 $-1 #
coedge $-1 $325 $601 $319 $464 forward $458 $-1 #
edge $602 $603 3.75 $475 8.75 $463 $604 forward 7 unknown #
coedge $-1 $321 $320 $598 $605 forward $122 $-1 #
coedge $-1 $599 $460 $321 $467 reversed $317 $-1 #
edge $606 $607 -5 $470 5 $466 $608 forward 7 unknown #
coedge $-1 $328 $322 $460 $597 reversed $329 $-1 #
ptlist-eye-attrib $-1 $-1 $-1 $323 #
vertex $-1 $323 $609 #
straight-curve $-1 23.75 18 -5 -1 0 0 I I #
edge $610 $475 -18 $478 18 $324 $611 forward 7 unknown #
coedge $-1 $601 $325 $328 $480 forward $458 $-1 #
ptlist-eye-attrib $-1 $-1 $-1 $326 #
vertex $-1 $326 $612 #
straight-curve $-1 15 -18 0 0 0 -1 I I #
ptlist-eye-attrib $-1 $-1 $-1 $327 #
vertex $-1 $327 $613 #
straight-curve $-1 15 18 0 0 0 -1 I I #
edge $614 $332 -8.75 $615 -3.75 $473 $616 forward 7 unknown #
point $-1 15 18 -5 #
point $-1 15 -18 -5 #
fmesh-eye-attrib $-1 $-1 $-1 $335 #
face $617 $368 $500 $22 $-1 $618 reversed single #
loop $-1 $-1 $619 $335 #
coedge $-1 $620 $337 $353 $510 forward $210 $-1 #
coedge $-1 $337 $620 $338 $489 forward $210 $-1 #
coedge $-1 $339 $338 $621 $622 forward $127 $-1 #
edge $623 $624 -1.863639098523472093 $491 -1.277953555066321245 $487 $625 forward 7 unknown #
ptlist-eye-attrib $-1 $-1 $-1 $341 #
vertex $-1 $351 $626 #
straight-curve $-1 10 5 -5 0 1 0 I I #
coedge $-1 $621 $627 $342 $494 reversed $485 $-1 #
edge $628 $496 2.356194490192344837 $502 6.644552431086293787 $342 $629 forward 7 unknown #
ptlist-eye-attrib $-1 $-1 $-1 $343 #
vertex $-1 $343 $630 #
ellipse-curve $-1 10 0 0 -1 -0 -0 0 0 11.18033988749894903 1 I I #
coedge $-1 $631 $344 $627 $632 forward $500 $-1 #
coedge $-1 $344 $631 $346 $504 forward $500 $-1 #
loop $-1 $-1 $499 $484 #
ptlist-eye-attrib $-1 $-1 $-1 $345 #
vertex $-1 $345 $633 #
ellipse-curve $-1 5 0 0 1 0 0 0 0 -14.14213562373095101 1 I I #
edge $634 $516 1.25 $348 9.478756555322954469 $499 $635 forward 7 unknown #
point $-1 5 -13.22875655532295447 -5 #
point $-1 10 10 -5 #
ptlist-eye-attrib $-1 $-1 $-1 $351 #
ellipse-curve $-1 0 0 -5 0 0 1 0 19.36491673103708422 0 1 I I #
coedge $-1 $353 $352 $636 $637 forward $336 $-1 #
edge $638 $355 1.277953555066321245 $639 1.863639098523472093 $486 $625 forward 7 unknown #
point $-1 10 -16.58312395177700083 -5 #
coedge $-1 $640 $357 $631 $641 reversed $514 $-1 #
coedge $-1 $357 $640 $359 $519 forward $514 $-1 #
loop $-1 $-1 $357 $531 #
ptlist-eye-attrib $-1 $-1 $-1 $358 #
vertex $-1 $358 $642 #
straight-curve $-1 16.25 -5 -5 1 0 0 I I #
coedge $-1 $360 $359 $643 $644 forward $361 $-1 #
edge $645 $646 -5 $363 5 $359 $647 forward 7 unknown #
face $648 $-1 $361 $22 $-1 $649 reversed single #
point $-1 0 -5 -5 #
coedge $-1 $643 $636 $365 $523 reversed $485 $-1 #
edge $650 $525 -18.75 $528 -8.75 $365 $651 forward 7 unknown #
ptlist-eye-attrib $-1 $-1 $-1 $366 #
vertex $-1 $366 $652 #
straight-curve $-1 0 0 0 0 0 -1 I I #
ptlist-eye-attrib $-1 $-1 $-1 $367 #
vertex $-1 $367 $653 #
straight-curve $-1 10 0 0 0 0 -1 I I #
fmesh-eye-attrib $-1 $-1 $-1 $368 #
face $654 $520 $514 $22 $-1 $655 reversed single #
plane-surface $-1 7.5 0 0 0 -1 0 0 0 -1 forward_v I I I I #
fmesh-eye-attrib $-1 $-1 $-1 $372 #
plane-surface $-1 62.5 18 0 0 -1 0 0 0 -1 forward_v I I I I #
ptlist-eye-attrib $-1 $-1 $-1 $375 #
straight-curve $-1 80 -7.75 -5 0 1 -0 I I #
ptlist-eye-attrib $-1 $-1 $-1 $376 #
straight-curve $-1 80 -13 0 0 0 -1 I I #
point $-1 80 -13 -5 #
ptlist-eye-attrib $-1 $-1 $-1 $380 #
straight-curve $-1 65 0 5 0 -1 0 I I #
point $-1 65 18 5 #
point $-1 65 -13 5 #
edge $656 $546 -18 $406 18 $400 $657 forward 7 unknown #
ptlist-eye-attrib $-1 $-1 $-1 $390 #
vertex $-1 $544 $658 #
straight-curve $-1 46.25 18 -5 -1 0 0 I I #
fmesh-eye-attrib $-1 $-1 $-1 $391 #
ptlist-eye-attrib $-1 $-1 $-1 $401 #
straight-curve $-1 60 18 0 0 0 -1 I I #
ptlist-eye-attrib $-1 $-1 $-1 $404 #
straight-curve $-1 46.25 -18 -5 1 0 0 I I #
point $-1 60 -18 -5 #
point $-1 80 -18 -5 #
ptlist-eye-attrib $-1 $-1 $-1 $413 #
ellipse-curve $-1 45 0 5 -0 -0 -1 0 -19.36491673103708422 0 1 I I #
ptlist-eye-attrib $-1 $-1 $-1 $417 #
ellipse-curve $-1 45 0 5 0 0 1 0 -14.14213562373095101 0 1 I I #
fmesh-eye-attrib $-1 $-1 $-1 $424 #
face $659 $660 $433 $14 $-1 $661 reversed single #
plane-surface $-1 -17.5 -25 -5 0 0 1 1 0 0 forward_v I I I I #
coedge $-1 $562 $562 $563 $662 reversed $425 $-1 #
coedge $-1 $563 $563 $562 $662 forward $427 $-1 #
coedge $-1 $564 $564 $428 $565 reversed $575 $-1 #
edge $663 $664 -3.141592653589793116 $664 3.141592653589793116 $428 $665 forward 7 unknown #
loop $-1 $666 $429 $449 #
ptlist-eye-attrib $-1 $-1 $-1 $430 #
vertex $-1 $430 $667 #
ellipse-curve $-1 0 0 -45 0 0 1 0 -5 0 1 I I #
loop $-1 $668 $431 $669 #
vertex $-1 $432 $670 #
ellipse-curve $-1 0 0 -40 -0 -0 -1 25 0 0 1 I I #
loop $-1 $-1 $671 $560 #
point $-1 -25 -3.061616997868383043e-15 -35 #
loop $-1 $-1 $564 $424 #
point $-1 -25 -3.061616997868383043e-15 -5 #
coedge $-1 $577 $577 $672 $673 reversed $439 $-1 #
fmesh-eye-attrib $-1 $-1 $-1 $440 #
face $674 $198 $589 $14 $-1 $292 forward single #
plane-surface $-1 -17.5 -25 -10 0 0 1 1 0 0 forward_v I I I I #
coedge $-1 $581 $581 $675 $676 reversed $442 $-1 #
coedge $-1 $582 $582 $444 $583 forward $677 $-1 #
edge $678 $679 -3.141592653589793116 $679 3.141592653589793116 $582 $680 forward 7 unknown #
coedge $-1 $584 $584 $447 $585 forward $681 $-1 #
edge $682 $683 -3.141592653589793116 $683 3.141592653589793116 $584 $684 forward 7 unknown #
fmesh-eye-attrib $-1 $-1 $-1 $449 #
face $685 $669 $686 $14 $-1 $292 forward single #
plane-surface $-1 -17.5 -25 -45 0 0 1 1 0 0 forward_v I I I I #
loop $-1 $687 $451 $579 #
ptlist-eye-attrib $-1 $-1 $-1 $452 #
vertex $-1 $452 $688 #
ellipse-curve $-1 0 0 -15 0 0 1 0 47.69696007084728251 0 1 I I #
fmesh-eye-attrib $-1 $-1 $-1 $454 #
loop $-1 $681 $675 $454 #
fmesh-eye-attrib $-1 $-1 $-1 $457 #
coedge $-1 $460 $599 $601 $689 forward $317 $-1 #
edge $690 $615 -18 $470 18 $460 $691 forward 7 unknown #
coedge $-1 $462 $461 $465 $605 reversed $202 $-1 #
coedge $-1 $596 $466 $461 $600 forward $317 $-1 #
edge $692 $607 -18 $603 18 $599 $693 forward 7 unknown #
coedge $-1 $463 $473 $596 $689 reversed $458 $-1 #
ptlist-eye-attrib $-1 $-1 $-1 $464 #
vertex $-1 $689 $694 #
straight-curve $-1 23.75 -18 5 -1 0 0 I I #
edge $695 $478 -8.75 $607 -3.75 $465 $696 forward 7 unknown #
ptlist-eye-attrib $-1 $-1 $-1 $467 #
vertex $-1 $467 $697 #
straight-curve $-1 20 18 0 0 0 -1 I I #
point $-1 20 18 -5 #
ptlist-eye-attrib $-1 $-1 $-1 $472 #
straight-curve $-1 15 0 5 0 1 0 I I #
point $-1 15 -18 5 #
point $-1 15 18 5 #
ptlist-eye-attrib $-1 $-1 $-1 $480 #
vertex $-1 $597 $698 #
straight-curve $-1 23.75 -18 -5 1 0 0 I I #
fmesh-eye-attrib $-1 $-1 $-1 $484 #
plane-surface $-1 5 -7.5 0 1 0 0 0 0 -1 forward_v I I I I #
coedge $-1 $627 $643 $640 $699 reversed $485 $-1 #
coedge $-1 $487 $486 $700 $701 forward $210 $-1 #
coedge $-1 $700 $493 $488 $622 reversed $485 $-1 #
edge $702 $624 -11.58312395177700083 $496 -5 $488 $703 forward 7 unknown #
ptlist-eye-attrib $-1 $-1 $-1 $489 #
vertex $-1 $489 $704 #
ellipse-curve $-1 10 0 0 -1 -0 -0 0 0 -17.3205080756887746 1 I I #
point $-1 10 16.58312395177700083 -5 #
coedge $-1 $493 $619 $498 $632 reversed $485 $-1 #
ptlist-eye-attrib $-1 $-1 $-1 $494 #
ellipse-curve $-1 0 0 5 0 0 1 0 -14.14213562373095101 0 1 I I #
point $-1 10 10 5 #
coedge $-1 $499 $498 $512 $641 forward $500 $-1 #
edge $705 $502 -9.478756555322954469 $706 -1.25 $498 $707 forward 7 unknown #
point $-1 5 -13.22875655532295447 5 #
ptlist-eye-attrib $-1 $-1 $-1 $504 #
straight-curve $-1 5 -3.75 -5 0 -1 0 I I #
coedge $-1 $522 $700 $509 $637 reversed $485 $-1 #
edge $708 $528 5 $639 21.58312395177700083 $509 $709 forward 7 unknown #
ptlist-eye-attrib $-1 $-1 $-1 $510 #
vertex $-1 $637 $710 #
coedge $-1 $513 $512 $619 $699 forward $514 $-1 #
edge $711 $706 -5 $516 5 $631 $712 forward 7 unknown #
point $-1 5 -5 -5 #
coedge $-1 $619 $522 $518 $644 reversed $485 $-1 #
edge $713 $646 -3.75 $525 1.25 $518 $714 forward 7 unknown #
ptlist-eye-attrib $-1 $-1 $-1 $519 #
vertex $-1 $519 $715 #
straight-curve $-1 0 -5 0 0 0 -1 I I #
fmesh-eye-attrib $-1 $-1 $-1 $520 #
plane-surface $-1 0 -2.5 0 1 0 0 0 0 -1 forward_v I I I I #
ptlist-eye-attrib $-1 $-1 $-1 $523 #
straight-curve $-1 18.75 0 5 1 0 -0 I I #
point $-1 0 0 5 #
point $-1 10 0 5 #
fmesh-eye-attrib $-1 $-1 $-1 $531 #
plane-surface $-1 2.5 -5 0 0 1 0 0 0 1 forward_v I I I I #
ptlist-eye-attrib $-1 $-1 $-1 $544 #
straight-curve $-1 60 0 -5 0 -1 0 I I #
point $-1 60 18 -5 #
fmesh-eye-attrib $-1 $-1 $-1 $560 #
face $716 $306 $717 $14 $-1 $292 forward single #
plane-surface $-1 -17.5 -25 -35 0 0 1 1 0 0 forward_v I I I I #
edge $718 $719 -3.141592653589793116 $719 3.141592653589793116 $563 $720 forward 7 unknown #
ptlist-eye-attrib $-1 $-1 $-1 $565 #
vertex $-1 $565 $721 #
ellipse-curve $-1 0 0 -5 0 0 1 0 49.74937185533099893 0 1 I I #
loop $-1 $-1 $722 $449 #
point $-1 -6.123233995736766282e-16 5 -45 #
loop $-1 $-1 $723 $669 #
face $724 $-1 $570 $14 $-1 $725 forward single #
point $-1 25 0 -40 #
coedge $-1 $671 $671 $726 $727 reversed $573 $-1 #
coedge $-1 $672 $672 $577 $673 forward $687 $-1 #
edge $728 $729 -3.141592653589793116 $729 3.141592653589793116 $672 $730 forward 7 unknown #
fmesh-eye-attrib $-1 $-1 $-1 $579 #
coedge $-1 $675 $675 $581 $676 forward $594 $-1 #
edge $731 $732 -3.141592653589793116 $732 3.141592653589793116 $675 $733 forward 7 unknown #
loop $-1 $-1 $582 $660 #
ptlist-eye-attrib $-1 $-1 $-1 $583 #
vertex $-1 $583 $734 #
ellipse-curve $-1 0 0 -30 -0 -0 -1 0 -40 0 1 I I #
loop $-1 $-1 $584 $454 #
ptlist-eye-attrib $-1 $-1 $-1 $585 #
vertex $-1 $585 $735 #
ellipse-curve $-1 0 0 -20 -0 -0 -1 0 -45.82575694955839651 0 1 I I #
fmesh-eye-attrib $-1 $-1 $-1 $587 #
loop $-1 $736 $737 $587 #
loop $-1 $-1 $672 $579 #
point $-1 5.841192947982223989e-15 -47.69696007084728251 -15 #
edge $738 $603 -5 $615 5 $596 $739 forward 7 unknown #
ptlist-eye-attrib $-1 $-1 $-1 $597 #
straight-curve $-1 20 0 -5 0 1 -0 I I #
ptlist-eye-attrib $-1 $-1 $-1 $600 #
straight-curve $-1 20 0 5 0 -1 0 I I #
point $-1 20 -18 5 #
ptlist-eye-attrib $-1 $-1 $-1 $605 #
straight-curve $-1 23.75 18 5 1 0 -0 I I #
point $-1 20 18 5 #
point $-1 20 -18 -5 #
edge $740 $706 11.25 $646 16.25 $640 $741 forward 7 unknown #
coedge $-1 $636 $621 $620 $701 reversed $485 $-1 #
edge $742 $639 -0.5426391022496527272 $624 3.684231755839445732 $620 $743 forward 7 unknown #
ptlist-eye-attrib $-1 $-1 $-1 $622 #
straight-curve $-1 10 5 5 0 -1 0 I I #
point $-1 10 16.58312395177700083 5 #
ptlist-eye-attrib $-1 $-1 $-1 $632 #
vertex $-1 $641 $744 #
straight-curve $-1 5 -3.75 5 0 1 0 I I #
ptlist-eye-attrib $-1 $-1 $-1 $637 #
straight-curve $-1 10 5 5 0 -1 0 I I #
point $-1 10 -16.58312395177700083 5 #
ptlist-eye-attrib $-1 $-1 $-1 $641 #
straight-curve $-1 5 -5 0 0 0 -1 I I #
ptlist-eye-attrib $-1 $-1 $-1 $644 #
straight-curve $-1 0 -1.25 5 0 1 0 I I #
point $-1 0 -5 5 #
fmesh-eye-attrib $-1 $-1 $-1 $660 #
loop $-1 $677 $726 $660 #
ptlist-eye-attrib $-1 $-1 $-1 $662 #
vertex $-1 $662 $745 #
ellipse-curve $-1 0 0 0 -0 -0 -1 0 -50 0 1 I I #
point $-1 6.092540900222252912e-15 -49.74937185533099893 -5 #
coedge $-1 $722 $722 $737 $746 reversed $666 $-1 #
coedge $-1 $723 $723 $747 $748 reversed $668 $-1 #
fmesh-eye-attrib $-1 $-1 $-1 $669 #
plane-surface $-1 -17.5 -25 -40 0 0 1 1 0 0 forward_v I I I I #
coedge $-1 $726 $726 $671 $727 forward $717 $-1 #
edge $749 $750 -3.141592653589793116 $750 3.141592653589793116 $726 $751 forward 7 unknown #
ptlist-eye-attrib $-1 $-1 $-1 $673 #
vertex $-1 $673 $752 #
ellipse-curve $-1 0 0 -10 -0 -0 -1 0 -48.98979485566356118 0 1 I I #
ptlist-eye-attrib $-1 $-1 $-1 $676 #
vertex $-1 $676 $753 #
ellipse-curve $-1 0 0 -25 0 0 1 0 43.30127018922193116 0 1 I I #
point $-1 4.898587196589413026e-15 40 -30 #
point $-1 5.612036656678126633e-15 45.82575694955839651 -20 #
loop $-1 $-1 $747 $587 #
coedge $-1 $737 $737 $722 $746 forward $686 $-1 #
ptlist-eye-attrib $-1 $-1 $-1 $689 #
straight-curve $-1 20 -18 0 0 0 -1 I I #
ptlist-eye-attrib $-1 $-1 $-1 $699 #
straight-curve $-1 16.25 -5 5 -1 0 0 I I #
ptlist-eye-attrib $-1 $-1 $-1 $701 #
ellipse-curve $-1 0 0 5 -0 -0 -1 0 -19.36491673103708422 0 1 I I #
point $-1 5 -5 5 #
point $-1 6.123233995736766085e-15 50 0 #
edge $754 $755 -3.141592653589793116 $755 3.141592653589793116 $737 $756 forward 7 unknown #
coedge $-1 $747 $747 $723 $748 forward $736 $-1 #
edge $757 $758 -3.141592653589793116 $758 3.141592653589793116 $747 $759 forward 7 unknown #
ptlist-eye-attrib $-1 $-1 $-1 $727 #
vertex $-1 $727 $760 #
ellipse-curve $-1 0 0 -35 0 0 1 0 35.7071421427142468 0 1 I I #
point $-1 5.999519546087384998e-15 48.98979485566356118 -10 #
point $-1 5.302876193624534032e-15 -43.30127018922193116 -25 #
ptlist-eye-attrib $-1 $-1 $-1 $746 #
vertex $-1 $746 $761 #
ellipse-curve $-1 0 0 -45 0 0 1 0 21.79449471770336899 0 1 I I #
ptlist-eye-attrib $-1 $-1 $-1 $748 #
vertex $-1 $748 $762 #
ellipse-curve $-1 0 0 -40 -0 -0 -1 0 -30 0 1 I I #
point $-1 4.372863733177456728e-15 -35.7071421427142468 -35 #
point $-1 2.669055819506932737e-15 -21.79449471770336899 -45 #
point $-1 3.673940397442059967e-15 30 -40 #
End-of-ACIS-data 