600 0 1 0           
122 GICL ACIS Healer - Source: /gicl/data5/repository/NIST/Manfred_Osti/spectrometer/bearing_post_56/bearing_post_56.sat - 6 0 18 ACIS 6.0.3 Solaris 24 Sun Apr 14 00:38:08 2002 
1 9.999999999999999547e-07 1.000000000000000036e-10 
body $-1 $1 $-1 $2 #
lump $-1 $-1 $3 $0 #
transform $-1 1 0 0 0 1 0 0 0 1 0 0 0 1 no_rotate no_reflect no_shear #
shell $-1 $-1 $-1 $4 $-1 $1 #
face $-1 $5 $6 $3 $-1 $7 reversed single #
face $-1 $8 $9 $3 $-1 $10 forward single #
loop $-1 $11 $12 $4 #
plane-surface $-1 0 0 -0.1869999999999999996 0 0 1 1 0 0 forward_v I I I I #
face $-1 $13 $14 $3 $-1 $15 forward single #
loop $-1 $-1 $16 $5 #
plane-surface $-1 0 0 1.780999999999999917 0 0 1 1 0 0 forward_v I I I I #
loop $-1 $17 $18 $4 #
coedge $-1 $12 $12 $19 $20 reversed $6 $-1 #
face $-1 $21 $22 $3 $-1 $23 forward single #
loop $-1 $24 $25 $8 #
plane-surface $-1 0 0 1.203000000000000069 0 0 1 1 0 0 forward_v I I I I #
coedge $-1 $16 $16 $26 $27 forward $9 $-1 #
loop $-1 $28 $29 $4 #
coedge $-1 $18 $18 $30 $31 forward $11 $-1 #
coedge $-1 $19 $19 $12 $20 forward $32 $-1 #
edge $-1 $33 0 $33 6.283185307179586232 $19 $34 forward 7 unknown #
face $-1 $35 $36 $3 $-1 $37 forward single #
loop $-1 $38 $39 $13 #
plane-surface $-1 0 0 0 0 0 1 1 0 0 forward_v I I I I #
loop $-1 $-1 $40 $8 #
coedge $-1 $25 $25 $41 $42 forward $14 $-1 #
coedge $-1 $26 $26 $16 $27 reversed $43 $-1 #
edge $-1 $44 0 $44 6.283185307179586232 $26 $45 forward 7 unknown #
loop $-1 $46 $47 $4 #
coedge $-1 $29 $29 $48 $49 forward $17 $-1 #
coedge $-1 $30 $30 $18 $31 reversed $50 $-1 #
edge $-1 $51 -3.141592653589793116 $51 3.141592653589793116 $30 $52 forward 7 unknown #
loop $-1 $53 $19 $54 #
vertex $-1 $20 $55 #
ellipse-curve $-1 0 0 -0.1869999999999999996 0 0 1 0.7179999999999999716 0 0 1 I I #
face $-1 $56 $57 $3 $-1 $58 forward single #
loop $-1 $59 $60 $21 #
plane-surface $-1 0 0 -0.03099999999999999978 0 0 1 1 0 0 forward_v I I I I #
loop $-1 $-1 $61 $13 #
coedge $-1 $39 $39 $62 $63 forward $22 $-1 #
coedge $-1 $40 $40 $64 $65 forward $24 $-1 #
coedge $-1 $41 $41 $25 $42 reversed $66 $-1 #
edge $-1 $67 -3.141592653589793116 $67 3.141592653589793116 $25 $68 forward 7 unknown #
loop $-1 $-1 $26 $35 #
vertex $-1 $27 $69 #
ellipse-curve $-1 0 0 1.780999999999999917 0 0 1 0.06500000000000000222 0 0 1 I I #
loop $-1 $-1 $70 $4 #
coedge $-1 $47 $47 $71 $72 forward $28 $-1 #
coedge $-1 $48 $48 $29 $49 reversed $73 $-1 #
edge $-1 $74 -3.141592653589793116 $74 3.141592653589793116 $48 $75 forward 7 unknown #
loop $-1 $-1 $30 $76 #
vertex $-1 $31 $77 #
ellipse-curve $-1 0.5 0 -0.1869999999999999996 0 0 1 0.07499999999999999722 0 0 1 I I #
loop $-1 $-1 $78 $54 #
face $-1 $79 $32 $3 $-1 $80 forward single #
point $-1 0.7179999999999999716 0 -0.1869999999999999996 #
face $-1 $81 $82 $3 $-1 $83 forward single #
loop $-1 $43 $84 $35 #
cone-surface $-1 0 0 1.721000000000000085 0 0 -1 0.125 0 0 1 I I 0.707106781186549016 0.7071067811865460184 0.125 forward I I I I #
loop $-1 $85 $86 $21 #
coedge $-1 $60 $60 $87 $88 forward $36 $-1 #
coedge $-1 $61 $61 $89 $90 forward $38 $-1 #
coedge $-1 $62 $62 $39 $63 reversed $91 $-1 #
edge $-1 $92 -3.141592653589793116 $92 3.141592653589793116 $39 $93 forward 7 unknown #
coedge $-1 $64 $64 $40 $65 reversed $94 $-1 #
edge $-1 $95 0 $95 6.283185307179586232 $64 $96 forward 7 unknown #
loop $-1 $97 $41 $98 #
vertex $-1 $42 $99 #
ellipse-curve $-1 0 0 1.203000000000000069 0 0 -1 0.09500000000000000111 0 0 1 I I #
point $-1 0.06500000000000000222 0 1.780999999999999917 #
coedge $-1 $70 $70 $100 $101 forward $46 $-1 #
coedge $-1 $71 $71 $47 $72 reversed $102 $-1 #
edge $-1 $103 -3.141592653589793116 $103 3.141592653589793116 $71 $104 forward 7 unknown #
loop $-1 $-1 $48 $105 #
vertex $-1 $49 $106 #
ellipse-curve $-1 0 0.5 -0.1869999999999999996 0 0 1 0.07499999999999999722 0 0 1 I I #
face $-1 $107 $108 $3 $-1 $109 reversed single #
point $-1 0.4249999999999999889 0 -0.1869999999999999996 #
coedge $-1 $78 $78 $110 $111 reversed $53 $-1 #
face $-1 $76 $112 $3 $-1 $113 reversed single #
cone-surface $-1 0 0 -0.1549999999999989997 0 0 1 0.7500000000000009992 0 0 1 I I 0.7071067811865480168 0.7071067811865470176 0.7500000000000009992 forward I I I I #
face $-1 $98 $114 $3 $-1 $115 forward single #
loop $-1 $116 $117 $56 #
cone-surface $-1 0 0 -0.285399999999999987 0 0 1 -0.125 0 0 1 I I 0 1 0.125 forward I I I I #
coedge $-1 $84 $84 $118 $119 forward $57 $-1 #
loop $-1 $120 $121 $21 #
coedge $-1 $86 $86 $122 $123 forward $59 $-1 #
coedge $-1 $87 $87 $60 $88 reversed $124 $-1 #
edge $-1 $125 -3.141592653589793116 $125 3.141592653589793116 $60 $126 forward 7 unknown #
coedge $-1 $89 $89 $61 $90 reversed $127 $-1 #
edge $-1 $128 0 $128 6.283185307179586232 $89 $129 forward 7 unknown #
loop $-1 $94 $62 $130 #
vertex $-1 $63 $131 #
ellipse-curve $-1 0 0 0 0 0 -1 0.1875 0 0 1 I I #
loop $-1 $-1 $64 $130 #
vertex $-1 $65 $132 #
ellipse-curve $-1 0 0 1.203000000000000069 0 0 1 0.1875 0 0 1 I I #
loop $-1 $-1 $133 $98 #
face $-1 $130 $66 $3 $-1 $134 forward single #
point $-1 -0.09500000000000000111 0 1.203000000000000069 #
coedge $-1 $100 $100 $70 $101 reversed $135 $-1 #
edge $-1 $136 -3.141592653589793116 $136 3.141592653589793116 $100 $137 forward 7 unknown #
loop $-1 $-1 $71 $138 #
vertex $-1 $72 $139 #
ellipse-curve $-1 0 -0.5 -0.1869999999999999996 0 0 1 0.07499999999999999722 0 0 1 I I #
face $-1 $140 $141 $3 $-1 $142 reversed single #
point $-1 -0.07499999999999999722 0.5 -0.1869999999999999996 #
face $-1 $105 $143 $3 $-1 $144 reversed single #
loop $-1 $50 $145 $76 #
cone-surface $-1 0.5 0 -0.1058948768360459952 0 0 -1 -0.07499999999999999722 0 0 1 I I 0 1 0.07499999999999999722 forward I I I I #
coedge $-1 $110 $110 $78 $111 forward $146 $-1 #
edge $-1 $147 -3.141592653589793116 $147 3.141592653589793116 $78 $148 forward 7 unknown #
loop $-1 $149 $150 $79 #
cone-surface $-1 0.5 0 -0.03099999999999999978 0 0 1 0.1400000000000000133 0 0 1 I I 0.6560590289905070538 0.754709580222772014 0.1400000000000000133 forward I I I I #
loop $-1 $151 $152 $81 #
cone-surface $-1 0 0 1.282999999999999918 0 0 1 0.125 0 0 1 I I 0.7071067811865470176 0.7071067811865480168 0.125 forward I I I I #
loop $-1 $-1 $118 $56 #
coedge $-1 $117 $117 $153 $154 forward $82 $-1 #
coedge $-1 $118 $118 $84 $119 reversed $116 $-1 #
edge $-1 $155 -3.141592653589793116 $155 3.141592653589793116 $118 $156 forward 7 unknown #
loop $-1 $157 $158 $21 #
coedge $-1 $121 $121 $150 $159 forward $85 $-1 #
coedge $-1 $122 $122 $86 $123 reversed $160 $-1 #
edge $-1 $161 0 $161 6.283185307179586232 $122 $162 forward 7 unknown #
loop $-1 $127 $87 $163 #
vertex $-1 $88 $164 #
ellipse-curve $-1 0 0 -0.03099999999999999978 0 0 -1 0.25 0 0 1 I I #
loop $-1 $-1 $89 $163 #
vertex $-1 $90 $165 #
ellipse-curve $-1 0 0 0 0 0 1 0.25 0 0 1 I I #
face $-1 $163 $91 $3 $-1 $166 forward single #
point $-1 -0.1875 0 0 #
point $-1 0.1875 0 1.203000000000000069 #
coedge $-1 $133 $133 $152 $167 reversed $97 $-1 #
cone-surface $-1 0 0 -0.285399999999999987 0 0 1 -0.09500000000000000111 0 0 1 I I 0 1 0.09500000000000000111 forward I I I I #
loop $-1 $-1 $100 $168 #
vertex $-1 $101 $169 #
ellipse-curve $-1 -0.5 0 -0.1869999999999999996 0 0 1 0.07499999999999999722 0 0 1 I I #
face $-1 $170 $171 $3 $-1 $172 reversed single #
point $-1 -0.07499999999999999722 -0.5 -0.1869999999999999996 #
face $-1 $138 $173 $3 $-1 $174 reversed single #
loop $-1 $73 $175 $105 #
cone-surface $-1 0 0.5 -0.1058948768360459952 0 0 -1 -0.07499999999999999722 0 0 1 I I 0 1 0.07499999999999999722 forward I I I I #
loop $-1 $176 $177 $107 #
cone-surface $-1 0 0.5 -0.03099999999999999978 0 0 1 0 0.1400000000000000133 0 1 I I 0.6560590289905070538 0.754709580222772014 0.1400000000000000133 forward I I I I #
coedge $-1 $145 $145 $178 $179 forward $108 $-1 #
loop $-1 $160 $110 $180 #
vertex $-1 $111 $181 #
ellipse-curve $-1 0 0 -0.1549999999999989997 0 0 1 0.7500000000000009992 0 0 1 I I #
loop $-1 $-1 $178 $79 #
coedge $-1 $150 $150 $121 $159 reversed $112 $-1 #
loop $-1 $-1 $153 $81 #
coedge $-1 $152 $152 $133 $167 forward $114 $-1 #
coedge $-1 $153 $153 $117 $154 reversed $151 $-1 #
edge $-1 $182 -3.141592653589793116 $182 3.141592653589793116 $153 $183 forward 7 unknown #
vertex $-1 $119 $184 #
ellipse-curve $-1 0 0 1.721000000000000085 0 0 1 0.125 0 0 1 I I #
loop $-1 $185 $186 $21 #
coedge $-1 $158 $158 $177 $187 forward $120 $-1 #
edge $-1 $188 -3.141592653589793116 $188 3.141592653589793116 $150 $189 forward 7 unknown #
loop $-1 $-1 $122 $180 #
vertex $-1 $123 $190 #
ellipse-curve $-1 0 0 -0.03099999999999999978 0 0 1 0.75 0 0 1 I I #
face $-1 $180 $124 $3 $-1 $191 forward single #
point $-1 -0.25 0 -0.03099999999999999978 #
point $-1 0.25 0 0 #
cone-surface $-1 0 0 -0.285399999999999987 0 0 1 -0.1875 0 0 1 I I 0 1 0.1875 forward I I I I #
edge $-1 $192 -3.141592653589793116 $192 3.141592653589793116 $133 $193 forward 7 unknown #
face $-1 $-1 $194 $3 $-1 $195 reversed single #
point $-1 -0.5749999999999999556 0 -0.1869999999999999996 #
face $-1 $168 $196 $3 $-1 $197 reversed single #
loop $-1 $102 $198 $138 #
cone-surface $-1 0 -0.5 -0.1058948768360459952 0 0 -1 -0.07499999999999999722 0 0 1 I I 0 1 0.07499999999999999722 forward I I I I #
loop $-1 $199 $200 $140 #
cone-surface $-1 0 -0.5 -0.03099999999999999978 0 0 1 0 -0.1400000000000000133 0 1 I I 0.6560590289905070538 0.754709580222772014 0.1400000000000000133 forward I I I I #
coedge $-1 $175 $175 $201 $202 forward $141 $-1 #
loop $-1 $-1 $201 $107 #
coedge $-1 $177 $177 $158 $187 reversed $143 $-1 #
coedge $-1 $178 $178 $145 $179 reversed $149 $-1 #
edge $-1 $203 0 $203 6.283185307179586232 $145 $204 forward 7 unknown #
face $-1 $54 $146 $3 $-1 $205 forward single #
point $-1 -0.7500000000000009992 0 -0.1549999999999989997 #
vertex $-1 $154 $206 #
ellipse-curve $-1 0 0 1.282999999999999918 0 0 1 0.125 0 0 1 I I #
point $-1 -0.125 0 1.721000000000000085 #
loop $-1 $-1 $207 $21 #
coedge $-1 $186 $186 $200 $208 forward $157 $-1 #
edge $-1 $209 -3.141592653589793116 $209 3.141592653589793116 $177 $210 forward 7 unknown #
vertex $-1 $159 $211 #
ellipse-curve $-1 0.5 0 -0.03099999999999999978 0 0 -1 0.1400000000000000133 0 0 1 I I #
point $-1 0.75 0 -0.03099999999999999978 #
cone-surface $-1 0 0 -0.285399999999999987 0 0 1 -0.25 0 0 1 I I 0 1 0.25 forward I I I I #
vertex $-1 $167 $212 #
ellipse-curve $-1 0 0 1.252999999999999892 0 0 1 0.09500000000000000111 0 0 1 I I #
loop $-1 $135 $213 $168 #
cone-surface $-1 -0.5 0 -0.1058948768360459952 0 0 -1 -0.07499999999999999722 0 0 1 I I 0 1 0.07499999999999999722 forward I I I I #
loop $-1 $214 $215 $170 #
cone-surface $-1 -0.5 0 -0.03099999999999999978 0 0 1 -0.1400000000000000133 0 0 1 I I 0.6560590289905070538 0.754709580222772014 0.1400000000000000133 forward I I I I #
coedge $-1 $198 $198 $216 $217 forward $171 $-1 #
loop $-1 $-1 $216 $140 #
coedge $-1 $200 $200 $186 $208 reversed $173 $-1 #
coedge $-1 $201 $201 $175 $202 reversed $176 $-1 #
edge $-1 $218 -1.570796326794896558 $218 4.712388980384689674 $175 $219 forward 7 unknown #
vertex $-1 $179 $220 #
ellipse-curve $-1 0.5 0 -0.1057739464693659981 0 0 1 0.07499999999999999722 0 0 1 I I #
cone-surface $-1 0 0 -0.285399999999999987 0 0 1 -0.75 0 0 1 I I 0 1 0.75 forward I I I I #
point $-1 -0.125 0 1.282999999999999918 #
coedge $-1 $207 $207 $215 $221 forward $185 $-1 #
edge $-1 $222 -3.141592653589793116 $222 3.141592653589793116 $200 $223 forward 7 unknown #
vertex $-1 $187 $224 #
ellipse-curve $-1 0 0.5 -0.03099999999999999978 0 0 -1 0 0.1400000000000000133 0 1 I I #
point $-1 0.3599999999999999867 0 -0.03099999999999999978 #
point $-1 -0.09500000000000000111 0 1.252999999999999892 #
coedge $-1 $213 $213 $225 $226 forward $194 $-1 #
loop $-1 $-1 $225 $170 #
coedge $-1 $215 $215 $207 $221 reversed $196 $-1 #
coedge $-1 $216 $216 $198 $217 reversed $199 $-1 #
edge $-1 $227 0 $227 6.283185307179586232 $198 $228 forward 7 unknown #
vertex $-1 $202 $229 #
ellipse-curve $-1 0 0.5 -0.1057739464693659981 0 0 1 0 -0.07499999999999999722 0 1 I I #
point $-1 0.5749999999999999556 0 -0.1057739464693659981 #
edge $-1 $230 -3.141592653589793116 $230 3.141592653589793116 $215 $231 forward 7 unknown #
vertex $-1 $208 $232 #
ellipse-curve $-1 0 -0.5 -0.03099999999999999978 0 0 -1 0 -0.1400000000000000133 0 1 I I #
point $-1 0 0.3599999999999999867 -0.03099999999999999978 #
coedge $-1 $225 $225 $213 $226 reversed $214 $-1 #
edge $-1 $233 0 $233 6.283185307179586232 $213 $234 forward 7 unknown #
vertex $-1 $217 $235 #
ellipse-curve $-1 0 -0.5 -0.1057739464693659981 0 0 1 0.07499999999999999722 0 0 1 I I #
point $-1 -0.07499999999999999722 0.5 -0.1057739464693659981 #
vertex $-1 $221 $236 #
ellipse-curve $-1 -0.5 0 -0.03099999999999999978 0 0 -1 -0.1400000000000000133 0 0 1 I I #
point $-1 0 -0.3599999999999999867 -0.03099999999999999978 #
vertex $-1 $226 $237 #
ellipse-curve $-1 -0.5 0 -0.1057739464693659981 0 0 1 -0.07499999999999999722 0 0 1 I I #
point $-1 0.07499999999999999722 -0.5 -0.1057739464693659981 #
point $-1 -0.3599999999999999867 0 -0.03099999999999999978 #
point $-1 -0.5749999999999999556 0 -0.1057739464693659981 #
End-of-ACIS-data 