700 0 2 0           
24 FBMach with ACIS - 7.0.3 13 ACIS 7.0.3 NT 24 Tue May 14 14:19:19 2002 
1 9.9999999999999995e-007 1e-010 
body $2 -1 $-1 $3 $-1 $4 #
bdycol-kcp $-1 -1 1 17 $5 $6 $7 $8 $9 $10 $11 $12 $13 $14 $15 $16 $17 $18 $19 $20 $21 #
model_id-kcp-attrib $-1 -1 $-1 $-1 $0 1 1021400356 1021400357 -1639841791 1 #
lump $-1 -1 $-1 $-1 $22 $0 #
transform $-1 -1 1 0 0 0 1 0 0 0 1 0 0 0 1 rotate no_reflect no_shear #
body $23 -1 $-1 $24 $-1 $25 #
body $26 -1 $-1 $27 $-1 $28 #
body $29 -1 $-1 $30 $-1 $31 #
body $32 -1 $-1 $33 $-1 $34 #
body $35 -1 $-1 $36 $-1 $37 #
body $38 -1 $-1 $39 $-1 $40 #
body $41 -1 $-1 $42 $-1 $43 #
body $44 -1 $-1 $45 $-1 $46 #
body $47 -1 $-1 $48 $-1 $49 #
body $50 -1 $-1 $51 $-1 $52 #
body $53 -1 $-1 $54 $-1 $55 #
body $56 -1 $-1 $57 $-1 $58 #
body $59 -1 $-1 $60 $-1 $61 #
body $62 -1 $-1 $63 $-1 $64 #
body $65 -1 $-1 $66 $-1 $67 #
body $68 -1 $-1 $69 $-1 $70 #
body $71 -1 $-1 $72 $-1 $73 #
shell $-1 -1 $-1 $-1 $-1 $74 $-1 $3 #
model_id-kcp-attrib $-1 -1 $-1 $-1 $5 1 1021400356 1021400357 -1639186430 1 #
lump $-1 -1 $-1 $-1 $75 $5 #
transform $-1 -1 1 0 0 0 1 0 0 0 1 0 0 0 1 no_rotate no_reflect no_shear #
rgb_color-st-attrib $-1 -1 $76 $-1 $6 0.5 1 1 #
lump $-1 -1 $-1 $-1 $77 $6 #
transform $-1 -1 -3.8285889215894375e-016 0 -1 0 1 0 1 0 -3.8285889215894375e-016 4.8899999999999997 0.5 2.5150000000000006 1 rotate no_reflect no_shear #
rgb_color-st-attrib $-1 -1 $78 $-1 $7 0.5 1 1 #
lump $-1 -1 $-1 $-1 $79 $7 #
transform $-1 -1 -3.8285889215894375e-016 0 -1 0 1 0 1 0 -3.8285889215894375e-016 4.8899999999999997 2.5150000000000001 0.50000000000000011 1 rotate no_reflect no_shear #
rgb_color-st-attrib $-1 -1 $80 $-1 $8 0.5 1 1 #
lump $-1 -1 $-1 $-1 $81 $8 #
transform $-1 -1 -3.8285889215894375e-016 0 -1 0 1 0 1 0 -3.8285889215894375e-016 4.8899999999999997 2.1320000000000001 1.4240000000000002 1 rotate no_reflect no_shear #
rgb_color-st-attrib $-1 -1 $82 $-1 $9 0.5 1 1 #
lump $-1 -1 $-1 $-1 $83 $9 #
transform $-1 -1 -3.8285889215894375e-016 0 -1 0 1 0 1 0 -3.8285889215894375e-016 4.8899999999999997 1.4239999999999999 2.1320000000000006 1 rotate no_reflect no_shear #
rgb_color-st-attrib $-1 -1 $84 $-1 $10 0.5 1 1 #
lump $-1 -1 $-1 $-1 $85 $10 #
transform $-1 -1 -3.8285889215894375e-016 0 -1 0 1 0 1 0 -3.8285889215894375e-016 4.8899999999999997 -0.5 2.5150000000000006 1 rotate no_reflect no_shear #
rgb_color-st-attrib $-1 -1 $86 $-1 $11 0.5 1 1 #
lump $-1 -1 $-1 $-1 $87 $11 #
transform $-1 -1 -3.8285889215894375e-016 0 -1 0 1 0 1 0 -3.8285889215894375e-016 4.8899999999999997 -2.5150000000000001 0.50000000000000011 1 rotate no_reflect no_shear #
rgb_color-st-attrib $-1 -1 $88 $-1 $12 0.5 1 1 #
lump $-1 -1 $-1 $-1 $89 $12 #
transform $-1 -1 -3.8285889215894375e-016 0 -1 0 1 0 1 0 -3.8285889215894375e-016 4.8899999999999997 -2.1320000000000001 1.4240000000000002 1 rotate no_reflect no_shear #
rgb_color-st-attrib $-1 -1 $90 $-1 $13 0.5 1 1 #
lump $-1 -1 $-1 $-1 $91 $13 #
transform $-1 -1 -3.8285889215894375e-016 0 -1 0 1 0 1 0 -3.8285889215894375e-016 4.8899999999999997 -1.4139999999999999 2.1320000000000006 1 rotate no_reflect no_shear #
rgb_color-st-attrib $-1 -1 $92 $-1 $14 0.5 1 1 #
lump $-1 -1 $-1 $-1 $93 $14 #
transform $-1 -1 3.8285889215894375e-016 -4.6885143195523885e-032 -1 -1.2246063538223773e-016 -1 0 -1 1.2246063538223773e-016 -3.8285889215894375e-016 4.8899999999999997 2.5150000000000001 -0.50000000000000011 1 rotate no_reflect no_shear #
rgb_color-st-attrib $-1 -1 $94 $-1 $15 0.5 1 1 #
lump $-1 -1 $-1 $-1 $95 $15 #
transform $-1 -1 3.8285889215894375e-016 -4.6885143195523885e-032 -1 -1.2246063538223773e-016 -1 0 -1 1.2246063538223773e-016 -3.8285889215894375e-016 4.8899999999999997 2.1320000000000001 -1.4240000000000002 1 rotate no_reflect no_shear #
rgb_color-st-attrib $-1 -1 $96 $-1 $16 0.5 1 1 #
lump $-1 -1 $-1 $-1 $97 $16 #
transform $-1 -1 3.8285889215894375e-016 -4.6885143195523885e-032 -1 -1.2246063538223773e-016 -1 0 -1 1.2246063538223773e-016 -3.8285889215894375e-016 4.8899999999999997 1.4239999999999999 -2.1320000000000006 1 rotate no_reflect no_shear #
rgb_color-st-attrib $-1 -1 $98 $-1 $17 0.5 1 1 #
lump $-1 -1 $-1 $-1 $99 $17 #
transform $-1 -1 3.8285889215894375e-016 -4.6885143195523885e-032 -1 -1.2246063538223773e-016 -1 0 -1 1.2246063538223773e-016 -3.8285889215894375e-016 4.8899999999999997 0.50000000000000011 -2.5150000000000006 1 rotate no_reflect no_shear #
rgb_color-st-attrib $-1 -1 $100 $-1 $18 0.5 1 1 #
lump $-1 -1 $-1 $-1 $101 $18 #
transform $-1 -1 3.8285889215894375e-016 -4.6885143195523885e-032 -1 -1.2246063538223773e-016 -1 0 -1 1.2246063538223773e-016 -3.8285889215894375e-016 4.8899999999999997 -0.49999999999999994 -2.5150000000000006 1 rotate no_reflect no_shear #
rgb_color-st-attrib $-1 -1 $102 $-1 $19 0.5 1 1 #
lump $-1 -1 $-1 $-1 $103 $19 #
transform $-1 -1 3.8285889215894375e-016 -4.6885143195523885e-032 -1 -1.2246063538223773e-016 -1 0 -1 1.2246063538223773e-016 -3.8285889215894375e-016 4.8899999999999997 -1.4239999999999999 -2.1320000000000006 1 rotate no_reflect no_shear #
rgb_color-st-attrib $-1 -1 $104 $-1 $20 0.5 1 1 #
lump $-1 -1 $-1 $-1 $105 $20 #
transform $-1 -1 3.8285889215894375e-016 -4.6885143195523885e-032 -1 -1.2246063538223773e-016 -1 0 -1 1.2246063538223773e-016 -3.8285889215894375e-016 4.8899999999999997 -2.1320000000000001 -1.4240000000000002 1 rotate no_reflect no_shear #
rgb_color-st-attrib $-1 -1 $106 $-1 $21 0.5 1 1 #
lump $-1 -1 $-1 $-1 $107 $21 #
transform $-1 -1 3.8285889215894375e-016 -4.6885143195523885e-032 -1 -1.2246063538223773e-016 -1 0 -1 1.2246063538223773e-016 -3.8285889215894375e-016 4.8899999999999997 -2.5150000000000001 -0.50000000000000011 1 rotate no_reflect no_shear #
face $108 -1 $-1 $109 $110 $22 $-1 $111 reversed single #
shell $-1 -1 $-1 $-1 $-1 $112 $-1 $24 #
model_id-kcp-attrib $-1 -1 $-1 $26 $6 1 1021400356 1021400359 -1643577341 1 #
shell $-1 -1 $-1 $-1 $-1 $113 $-1 $27 #
model_id-kcp-attrib $-1 -1 $-1 $29 $7 1 1021400356 1021400359 -1643577340 1 #
shell $-1 -1 $-1 $-1 $-1 $114 $-1 $30 #
model_id-kcp-attrib $-1 -1 $-1 $32 $8 1 1021400356 1021400359 -1643577339 1 #
shell $-1 -1 $-1 $-1 $-1 $115 $-1 $33 #
model_id-kcp-attrib $-1 -1 $-1 $35 $9 1 1021400356 1021400359 -1642921978 1 #
shell $-1 -1 $-1 $-1 $-1 $116 $-1 $36 #
model_id-kcp-attrib $-1 -1 $-1 $38 $10 1 1021400356 1021400359 -1642921977 1 #
shell $-1 -1 $-1 $-1 $-1 $117 $-1 $39 #
model_id-kcp-attrib $-1 -1 $-1 $41 $11 1 1021400356 1021400359 -1642921976 1 #
shell $-1 -1 $-1 $-1 $-1 $118 $-1 $42 #
model_id-kcp-attrib $-1 -1 $-1 $44 $12 1 1021400356 1021400359 -1642266615 1 #
shell $-1 -1 $-1 $-1 $-1 $119 $-1 $45 #
model_id-kcp-attrib $-1 -1 $-1 $47 $13 1 1021400356 1021400359 -1642266614 1 #
shell $-1 -1 $-1 $-1 $-1 $120 $-1 $48 #
model_id-kcp-attrib $-1 -1 $-1 $50 $14 1 1021400356 1021400359 -1642266613 1 #
shell $-1 -1 $-1 $-1 $-1 $121 $-1 $51 #
model_id-kcp-attrib $-1 -1 $-1 $53 $15 1 1021400356 1021400359 -1642266612 1 #
shell $-1 -1 $-1 $-1 $-1 $122 $-1 $54 #
model_id-kcp-attrib $-1 -1 $-1 $56 $16 1 1021400356 1021400359 -1641611251 1 #
shell $-1 -1 $-1 $-1 $-1 $123 $-1 $57 #
model_id-kcp-attrib $-1 -1 $-1 $59 $17 1 1021400356 1021400359 -1641611250 1 #
shell $-1 -1 $-1 $-1 $-1 $124 $-1 $60 #
model_id-kcp-attrib $-1 -1 $-1 $62 $18 1 1021400356 1021400359 -1641611249 1 #
shell $-1 -1 $-1 $-1 $-1 $125 $-1 $63 #
model_id-kcp-attrib $-1 -1 $-1 $65 $19 1 1021400356 1021400359 -1640955888 1 #
shell $-1 -1 $-1 $-1 $-1 $126 $-1 $66 #
model_id-kcp-attrib $-1 -1 $-1 $68 $20 1 1021400356 1021400359 -1640955887 1 #
shell $-1 -1 $-1 $-1 $-1 $127 $-1 $69 #
model_id-kcp-attrib $-1 -1 $-1 $71 $21 1 1021400356 1021400359 -1640955886 1 #
shell $-1 -1 $-1 $-1 $-1 $128 $-1 $72 #
model_id-kcp-attrib $-1 -1 $-1 $-1 $74 1 1021400356 1021400357 -1639841791 2 #
face $129 -1 $-1 $130 $131 $22 $-1 $132 reversed single #
loop $-1 -1 $-1 $133 $134 $74 #
cone-surface $-1 -1 $-1 0 0 5.3099999999999996 0 0 -1 -1.875 0 0 1 I I 0 1 1.875 forward I I I I #
face $135 -1 $-1 $136 $137 $75 $-1 $138 forward single #
face $-1 -1 $-1 $139 $140 $77 $-1 $141 forward single #
face $-1 -1 $-1 $142 $143 $79 $-1 $144 forward single #
face $-1 -1 $-1 $145 $146 $81 $-1 $147 forward single #
face $-1 -1 $-1 $148 $149 $83 $-1 $150 forward single #
face $-1 -1 $-1 $151 $152 $85 $-1 $153 forward single #
face $-1 -1 $-1 $154 $155 $87 $-1 $156 forward single #
face $-1 -1 $-1 $157 $158 $89 $-1 $159 forward single #
face $-1 -1 $-1 $160 $161 $91 $-1 $162 forward single #
face $-1 -1 $-1 $163 $164 $93 $-1 $165 forward single #
face $-1 -1 $-1 $166 $167 $95 $-1 $168 forward single #
face $-1 -1 $-1 $169 $170 $97 $-1 $171 forward single #
face $-1 -1 $-1 $172 $173 $99 $-1 $174 forward single #
face $-1 -1 $-1 $175 $176 $101 $-1 $177 forward single #
face $-1 -1 $-1 $178 $179 $103 $-1 $180 forward single #
face $-1 -1 $-1 $181 $182 $105 $-1 $183 forward single #
face $-1 -1 $-1 $184 $185 $107 $-1 $186 forward single #
model_id-kcp-attrib $-1 -1 $-1 $-1 $109 1 1021400356 1021400357 -1639841791 3 #
face $187 -1 $-1 $188 $189 $22 $-1 $190 forward single #
loop $-1 -1 $-1 $191 $192 $109 #
cone-surface $-1 -1 $-1 0 5.3099999999999996 0 0 -1 0 1.875 0 0 1 I I 0 1 1.875 forward I I I I #
loop $-1 -1 $-1 $-1 $193 $74 #
coedge $-1 -1 $-1 $134 $134 $194 $195 forward $110 $-1 #
model_id-kcp-attrib $-1 -1 $-1 $-1 $112 1 1021400356 1021400357 -1639186430 4 #
face $196 -1 $-1 $197 $198 $75 $-1 $199 reversed single #
loop $-1 -1 $-1 $-1 $200 $112 #
plane-surface $-1 -1 $-1 0 0 5.3099999999999996 0 0 1 1 0 0 forward_v I I I I #
face $-1 -1 $-1 $201 $202 $77 $-1 $203 forward single #
loop $-1 -1 $-1 $204 $205 $113 #
cone-surface $-1 -1 $-1 0 0 0 0 0 1 0.156 0 0 1 I I 0 1 0.156 forward I I I I #
face $-1 -1 $-1 $206 $207 $79 $-1 $208 forward single #
loop $-1 -1 $-1 $209 $210 $114 #
cone-surface $-1 -1 $-1 0 0 0 0 0 1 0.156 0 0 1 I I 0 1 0.156 forward I I I I #
face $-1 -1 $-1 $211 $212 $81 $-1 $213 forward single #
loop $-1 -1 $-1 $214 $215 $115 #
cone-surface $-1 -1 $-1 0 0 0 0 0 1 0.156 0 0 1 I I 0 1 0.156 forward I I I I #
face $-1 -1 $-1 $216 $217 $83 $-1 $218 forward single #
loop $-1 -1 $-1 $219 $220 $116 #
cone-surface $-1 -1 $-1 0 0 0 0 0 1 0.156 0 0 1 I I 0 1 0.156 forward I I I I #
face $-1 -1 $-1 $221 $222 $85 $-1 $223 forward single #
loop $-1 -1 $-1 $224 $225 $117 #
cone-surface $-1 -1 $-1 0 0 0 0 0 1 0.156 0 0 1 I I 0 1 0.156 forward I I I I #
face $-1 -1 $-1 $226 $227 $87 $-1 $228 forward single #
loop $-1 -1 $-1 $229 $230 $118 #
cone-surface $-1 -1 $-1 0 0 0 0 0 1 0.156 0 0 1 I I 0 1 0.156 forward I I I I #
face $-1 -1 $-1 $231 $232 $89 $-1 $233 forward single #
loop $-1 -1 $-1 $234 $235 $119 #
cone-surface $-1 -1 $-1 0 0 0 0 0 1 0.156 0 0 1 I I 0 1 0.156 forward I I I I #
face $-1 -1 $-1 $236 $237 $91 $-1 $238 forward single #
loop $-1 -1 $-1 $239 $240 $120 #
cone-surface $-1 -1 $-1 0 0 0 0 0 1 0.156 0 0 1 I I 0 1 0.156 forward I I I I #
face $-1 -1 $-1 $241 $242 $93 $-1 $243 forward single #
loop $-1 -1 $-1 $244 $245 $121 #
cone-surface $-1 -1 $-1 0 0 0 0 0 1 0.156 0 0 1 I I 0 1 0.156 forward I I I I #
face $-1 -1 $-1 $246 $247 $95 $-1 $248 forward single #
loop $-1 -1 $-1 $249 $250 $122 #
cone-surface $-1 -1 $-1 0 0 0 0 0 1 0.156 0 0 1 I I 0 1 0.156 forward I I I I #
face $-1 -1 $-1 $251 $252 $97 $-1 $253 forward single #
loop $-1 -1 $-1 $254 $255 $123 #
cone-surface $-1 -1 $-1 0 0 0 0 0 1 0.156 0 0 1 I I 0 1 0.156 forward I I I I #
face $-1 -1 $-1 $256 $257 $99 $-1 $258 forward single #
loop $-1 -1 $-1 $259 $260 $124 #
cone-surface $-1 -1 $-1 0 0 0 0 0 1 0.156 0 0 1 I I 0 1 0.156 forward I I I I #
face $-1 -1 $-1 $261 $262 $101 $-1 $263 forward single #
loop $-1 -1 $-1 $264 $265 $125 #
cone-surface $-1 -1 $-1 0 0 0 0 0 1 0.156 0 0 1 I I 0 1 0.156 forward I I I I #
face $-1 -1 $-1 $266 $267 $103 $-1 $268 forward single #
loop $-1 -1 $-1 $269 $270 $126 #
cone-surface $-1 -1 $-1 0 0 0 0 0 1 0.156 0 0 1 I I 0 1 0.156 forward I I I I #
face $-1 -1 $-1 $271 $272 $105 $-1 $273 forward single #
loop $-1 -1 $-1 $274 $275 $127 #
cone-surface $-1 -1 $-1 0 0 0 0 0 1 0.156 0 0 1 I I 0 1 0.156 forward I I I I #
face $-1 -1 $-1 $276 $277 $107 $-1 $278 forward single #
loop $-1 -1 $-1 $279 $280 $128 #
cone-surface $-1 -1 $-1 0 0 0 0 0 1 0.156 0 0 1 I I 0 1 0.156 forward I I I I #
model_id-kcp-attrib $-1 -1 $-1 $-1 $130 1 1021400356 1021400357 -1639841791 4 #
face $281 -1 $-1 $282 $283 $22 $-1 $190 forward single #
loop $-1 -1 $-1 $284 $285 $130 #
cone-surface $-1 -1 $-1 0 0 -4.4699999999999998 0 0 1 2 0 0 1 I I 0 1 2 forward I I I I #
loop $-1 -1 $-1 $-1 $286 $109 #
coedge $-1 -1 $-1 $287 $288 $289 $290 forward $131 $-1 #
coedge $-1 -1 $-1 $291 $292 $293 $294 reversed $133 $-1 #
coedge $-1 -1 $-1 $194 $194 $134 $195 reversed $295 $-1 #
edge $-1 -1 $-1 $296 -6.2831853071795862 $296 0 $134 $297 reversed @7 unknown #
model_id-kcp-attrib $-1 -1 $-1 $-1 $136 1 1021400356 1021400357 -1639186430 3 #
face $298 -1 $-1 $299 $300 $75 $-1 $301 reversed single #
loop $-1 -1 $-1 $-1 $302 $136 #
plane-surface $-1 -1 $-1 0 0 -5.3099999999999996 0 0 1 1 0 0 forward_v I I I I #
coedge $-1 -1 $-1 $303 $304 $305 $306 forward $137 $-1 #
face $-1 -1 $-1 $-1 $307 $77 $-1 $308 forward single #
loop $-1 -1 $-1 $-1 $309 $139 #
plane-surface $-1 -1 $-1 0 0 -0.41999999999999993 0 0 -1 -1 0 0 forward_v I I I I #
loop $-1 -1 $-1 $-1 $310 $113 #
coedge $-1 -1 $-1 $205 $205 $309 $311 reversed $140 $-1 #
face $-1 -1 $-1 $-1 $312 $79 $-1 $313 forward single #
loop $-1 -1 $-1 $-1 $314 $142 #
plane-surface $-1 -1 $-1 0 0 -0.41999999999999993 0 0 -1 -1 0 0 forward_v I I I I #
loop $-1 -1 $-1 $-1 $315 $114 #
coedge $-1 -1 $-1 $210 $210 $314 $316 reversed $143 $-1 #
face $-1 -1 $-1 $-1 $317 $81 $-1 $318 forward single #
loop $-1 -1 $-1 $-1 $319 $145 #
plane-surface $-1 -1 $-1 0 0 -0.41999999999999993 0 0 -1 -1 0 0 forward_v I I I I #
loop $-1 -1 $-1 $-1 $320 $115 #
coedge $-1 -1 $-1 $215 $215 $319 $321 reversed $146 $-1 #
face $-1 -1 $-1 $-1 $322 $83 $-1 $323 forward single #
loop $-1 -1 $-1 $-1 $324 $148 #
plane-surface $-1 -1 $-1 0 0 -0.41999999999999993 0 0 -1 -1 0 0 forward_v I I I I #
loop $-1 -1 $-1 $-1 $325 $116 #
coedge $-1 -1 $-1 $220 $220 $324 $326 reversed $149 $-1 #
face $-1 -1 $-1 $-1 $327 $85 $-1 $328 forward single #
loop $-1 -1 $-1 $-1 $329 $151 #
plane-surface $-1 -1 $-1 0 0 -0.41999999999999993 0 0 -1 -1 0 0 forward_v I I I I #
loop $-1 -1 $-1 $-1 $330 $117 #
coedge $-1 -1 $-1 $225 $225 $329 $331 reversed $152 $-1 #
face $-1 -1 $-1 $-1 $332 $87 $-1 $333 forward single #
loop $-1 -1 $-1 $-1 $334 $154 #
plane-surface $-1 -1 $-1 0 0 -0.41999999999999993 0 0 -1 -1 0 0 forward_v I I I I #
loop $-1 -1 $-1 $-1 $335 $118 #
coedge $-1 -1 $-1 $230 $230 $334 $336 reversed $155 $-1 #
face $-1 -1 $-1 $-1 $337 $89 $-1 $338 forward single #
loop $-1 -1 $-1 $-1 $339 $157 #
plane-surface $-1 -1 $-1 0 0 -0.41999999999999993 0 0 -1 -1 0 0 forward_v I I I I #
loop $-1 -1 $-1 $-1 $340 $119 #
coedge $-1 -1 $-1 $235 $235 $339 $341 reversed $158 $-1 #
face $-1 -1 $-1 $-1 $342 $91 $-1 $343 forward single #
loop $-1 -1 $-1 $-1 $344 $160 #
plane-surface $-1 -1 $-1 0 0 -0.41999999999999993 0 0 -1 -1 0 0 forward_v I I I I #
loop $-1 -1 $-1 $-1 $345 $120 #
coedge $-1 -1 $-1 $240 $240 $344 $346 reversed $161 $-1 #
face $-1 -1 $-1 $-1 $347 $93 $-1 $348 forward single #
loop $-1 -1 $-1 $-1 $349 $163 #
plane-surface $-1 -1 $-1 0 0 -0.41999999999999993 0 0 -1 -1 0 0 forward_v I I I I #
loop $-1 -1 $-1 $-1 $350 $121 #
coedge $-1 -1 $-1 $245 $245 $349 $351 reversed $164 $-1 #
face $-1 -1 $-1 $-1 $352 $95 $-1 $353 forward single #
loop $-1 -1 $-1 $-1 $354 $166 #
plane-surface $-1 -1 $-1 0 0 -0.41999999999999993 0 0 -1 -1 0 0 forward_v I I I I #
loop $-1 -1 $-1 $-1 $355 $122 #
coedge $-1 -1 $-1 $250 $250 $354 $356 reversed $167 $-1 #
face $-1 -1 $-1 $-1 $357 $97 $-1 $358 forward single #
loop $-1 -1 $-1 $-1 $359 $169 #
plane-surface $-1 -1 $-1 0 0 -0.41999999999999993 0 0 -1 -1 0 0 forward_v I I I I #
loop $-1 -1 $-1 $-1 $360 $123 #
coedge $-1 -1 $-1 $255 $255 $359 $361 reversed $170 $-1 #
face $-1 -1 $-1 $-1 $362 $99 $-1 $363 forward single #
loop $-1 -1 $-1 $-1 $364 $172 #
plane-surface $-1 -1 $-1 0 0 -0.41999999999999993 0 0 -1 -1 0 0 forward_v I I I I #
loop $-1 -1 $-1 $-1 $365 $124 #
coedge $-1 -1 $-1 $260 $260 $364 $366 reversed $173 $-1 #
face $-1 -1 $-1 $-1 $367 $101 $-1 $368 forward single #
loop $-1 -1 $-1 $-1 $369 $175 #
plane-surface $-1 -1 $-1 0 0 -0.41999999999999993 0 0 -1 -1 0 0 forward_v I I I I #
loop $-1 -1 $-1 $-1 $370 $125 #
coedge $-1 -1 $-1 $265 $265 $369 $371 reversed $176 $-1 #
face $-1 -1 $-1 $-1 $372 $103 $-1 $373 forward single #
loop $-1 -1 $-1 $-1 $374 $178 #
plane-surface $-1 -1 $-1 0 0 -0.41999999999999993 0 0 -1 -1 0 0 forward_v I I I I #
loop $-1 -1 $-1 $-1 $375 $126 #
coedge $-1 -1 $-1 $270 $270 $374 $376 reversed $179 $-1 #
face $-1 -1 $-1 $-1 $377 $105 $-1 $378 forward single #
loop $-1 -1 $-1 $-1 $379 $181 #
plane-surface $-1 -1 $-1 0 0 -0.41999999999999993 0 0 -1 -1 0 0 forward_v I I I I #
loop $-1 -1 $-1 $-1 $380 $127 #
coedge $-1 -1 $-1 $275 $275 $379 $381 reversed $182 $-1 #
face $-1 -1 $-1 $-1 $382 $107 $-1 $383 forward single #
loop $-1 -1 $-1 $-1 $384 $184 #
plane-surface $-1 -1 $-1 0 0 -0.41999999999999993 0 0 -1 -1 0 0 forward_v I I I I #
loop $-1 -1 $-1 $-1 $385 $128 #
coedge $-1 -1 $-1 $280 $280 $384 $386 reversed $185 $-1 #
model_id-kcp-attrib $-1 -1 $-1 $-1 $188 1 1021400356 1021400357 -1639841791 5 #
face $387 -1 $-1 $388 $389 $22 $-1 $390 forward single #
loop $-1 -1 $-1 $391 $392 $188 #
loop $-1 -1 $-1 $-1 $393 $130 #
coedge $-1 -1 $-1 $394 $395 $396 $397 reversed $189 $-1 #
coedge $-1 -1 $-1 $286 $286 $398 $399 forward $191 $-1 #
coedge $-1 -1 $-1 $400 $192 $401 $402 forward $131 $-1 #
coedge $-1 -1 $-1 $192 $403 $404 $405 forward $131 $-1 #
coedge $-1 -1 $-1 $404 $406 $192 $290 reversed $407 $-1 #
edge $-1 -1 $-1 $408 -3.1415926535897931 $409 -2.3561944901923448 $289 $410 reversed @7 unknown #
coedge $-1 -1 $-1 $411 $193 $412 $413 reversed $133 $-1 #
coedge $-1 -1 $-1 $193 $401 $406 $414 reversed $133 $-1 #
coedge $-1 -1 $-1 $406 $415 $193 $294 forward $407 $-1 #
edge $-1 -1 $-1 $416 2.3561944901923448 $417 3.1415926535897931 $193 $418 reversed @7 unknown #
loop $-1 -1 $-1 $-1 $194 $419 #
vertex $-1 -1 $-1 $195 $420 #
ellipse-curve $-1 -1 $-1 0 0 5.3099999999999996 0 0 -1 -1.875 0 0 1 I I #
model_id-kcp-attrib $-1 -1 $-1 $-1 $197 1 1021400356 1021400357 -1639186430 5 #
face $-1 -1 $-1 $421 $422 $75 $-1 $423 reversed single #
loop $-1 -1 $-1 $-1 $424 $197 #
plane-surface $-1 -1 $-1 0 -5.3099999999999996 0 0 1 0 0 0 1 forward_v I I I I #
coedge $-1 -1 $-1 $425 $426 $427 $428 forward $198 $-1 #
coedge $-1 -1 $-1 $429 $200 $430 $431 forward $137 $-1 #
coedge $-1 -1 $-1 $200 $429 $432 $433 forward $137 $-1 #
coedge $-1 -1 $-1 $434 $435 $200 $306 reversed $436 $-1 #
edge $-1 -1 $-1 $437 -5.3099999999999996 $438 5.3099999999999996 $305 $439 forward @7 unknown #
loop $-1 -1 $-1 $-1 $440 $201 #
plane-surface $-1 -1 $-1 0 0 0.41999999999999993 0 0 1 1 0 0 forward_v I I I I #
coedge $-1 -1 $-1 $309 $309 $205 $311 forward $202 $-1 #
coedge $-1 -1 $-1 $310 $310 $440 $441 reversed $204 $-1 #
edge $-1 -1 $-1 $442 0 $442 6.2831853071795862 $309 $443 forward @7 unknown #
loop $-1 -1 $-1 $-1 $444 $206 #
plane-surface $-1 -1 $-1 0 0 0.41999999999999993 0 0 1 1 0 0 forward_v I I I I #
coedge $-1 -1 $-1 $314 $314 $210 $316 forward $207 $-1 #
coedge $-1 -1 $-1 $315 $315 $444 $445 reversed $209 $-1 #
edge $-1 -1 $-1 $446 0 $446 6.2831853071795862 $314 $447 forward @7 unknown #
loop $-1 -1 $-1 $-1 $448 $211 #
plane-surface $-1 -1 $-1 0 0 0.41999999999999993 0 0 1 1 0 0 forward_v I I I I #
coedge $-1 -1 $-1 $319 $319 $215 $321 forward $212 $-1 #
coedge $-1 -1 $-1 $320 $320 $448 $449 reversed $214 $-1 #
edge $-1 -1 $-1 $450 0 $450 6.2831853071795862 $319 $451 forward @7 unknown #
loop $-1 -1 $-1 $-1 $452 $216 #
plane-surface $-1 -1 $-1 0 0 0.41999999999999993 0 0 1 1 0 0 forward_v I I I I #
coedge $-1 -1 $-1 $324 $324 $220 $326 forward $217 $-1 #
coedge $-1 -1 $-1 $325 $325 $452 $453 reversed $219 $-1 #
edge $-1 -1 $-1 $454 0 $454 6.2831853071795862 $324 $455 forward @7 unknown #
loop $-1 -1 $-1 $-1 $456 $221 #
plane-surface $-1 -1 $-1 0 0 0.41999999999999993 0 0 1 1 0 0 forward_v I I I I #
coedge $-1 -1 $-1 $329 $329 $225 $331 forward $222 $-1 #
coedge $-1 -1 $-1 $330 $330 $456 $457 reversed $224 $-1 #
edge $-1 -1 $-1 $458 0 $458 6.2831853071795862 $329 $459 forward @7 unknown #
loop $-1 -1 $-1 $-1 $460 $226 #
plane-surface $-1 -1 $-1 0 0 0.41999999999999993 0 0 1 1 0 0 forward_v I I I I #
coedge $-1 -1 $-1 $334 $334 $230 $336 forward $227 $-1 #
coedge $-1 -1 $-1 $335 $335 $460 $461 reversed $229 $-1 #
edge $-1 -1 $-1 $462 0 $462 6.2831853071795862 $334 $463 forward @7 unknown #
loop $-1 -1 $-1 $-1 $464 $231 #
plane-surface $-1 -1 $-1 0 0 0.41999999999999993 0 0 1 1 0 0 forward_v I I I I #
coedge $-1 -1 $-1 $339 $339 $235 $341 forward $232 $-1 #
coedge $-1 -1 $-1 $340 $340 $464 $465 reversed $234 $-1 #
edge $-1 -1 $-1 $466 0 $466 6.2831853071795862 $339 $467 forward @7 unknown #
loop $-1 -1 $-1 $-1 $468 $236 #
plane-surface $-1 -1 $-1 0 0 0.41999999999999993 0 0 1 1 0 0 forward_v I I I I #
coedge $-1 -1 $-1 $344 $344 $240 $346 forward $237 $-1 #
coedge $-1 -1 $-1 $345 $345 $468 $469 reversed $239 $-1 #
edge $-1 -1 $-1 $470 0 $470 6.2831853071795862 $344 $471 forward @7 unknown #
loop $-1 -1 $-1 $-1 $472 $241 #
plane-surface $-1 -1 $-1 0 0 0.41999999999999993 0 0 1 1 0 0 forward_v I I I I #
coedge $-1 -1 $-1 $349 $349 $245 $351 forward $242 $-1 #
coedge $-1 -1 $-1 $350 $350 $472 $473 reversed $244 $-1 #
edge $-1 -1 $-1 $474 0 $474 6.2831853071795862 $349 $475 forward @7 unknown #
loop $-1 -1 $-1 $-1 $476 $246 #
plane-surface $-1 -1 $-1 0 0 0.41999999999999993 0 0 1 1 0 0 forward_v I I I I #
coedge $-1 -1 $-1 $354 $354 $250 $356 forward $247 $-1 #
coedge $-1 -1 $-1 $355 $355 $476 $477 reversed $249 $-1 #
edge $-1 -1 $-1 $478 0 $478 6.2831853071795862 $354 $479 forward @7 unknown #
loop $-1 -1 $-1 $-1 $480 $251 #
plane-surface $-1 -1 $-1 0 0 0.41999999999999993 0 0 1 1 0 0 forward_v I I I I #
coedge $-1 -1 $-1 $359 $359 $255 $361 forward $252 $-1 #
coedge $-1 -1 $-1 $360 $360 $480 $481 reversed $254 $-1 #
edge $-1 -1 $-1 $482 0 $482 6.2831853071795862 $359 $483 forward @7 unknown #
loop $-1 -1 $-1 $-1 $484 $256 #
plane-surface $-1 -1 $-1 0 0 0.41999999999999993 0 0 1 1 0 0 forward_v I I I I #
coedge $-1 -1 $-1 $364 $364 $260 $366 forward $257 $-1 #
coedge $-1 -1 $-1 $365 $365 $484 $485 reversed $259 $-1 #
edge $-1 -1 $-1 $486 0 $486 6.2831853071795862 $364 $487 forward @7 unknown #
loop $-1 -1 $-1 $-1 $488 $261 #
plane-surface $-1 -1 $-1 0 0 0.41999999999999993 0 0 1 1 0 0 forward_v I I I I #
coedge $-1 -1 $-1 $369 $369 $265 $371 forward $262 $-1 #
coedge $-1 -1 $-1 $370 $370 $488 $489 reversed $264 $-1 #
edge $-1 -1 $-1 $490 0 $490 6.2831853071795862 $369 $491 forward @7 unknown #
loop $-1 -1 $-1 $-1 $492 $266 #
plane-surface $-1 -1 $-1 0 0 0.41999999999999993 0 0 1 1 0 0 forward_v I I I I #
coedge $-1 -1 $-1 $374 $374 $270 $376 forward $267 $-1 #
coedge $-1 -1 $-1 $375 $375 $492 $493 reversed $269 $-1 #
edge $-1 -1 $-1 $494 0 $494 6.2831853071795862 $374 $495 forward @7 unknown #
loop $-1 -1 $-1 $-1 $496 $271 #
plane-surface $-1 -1 $-1 0 0 0.41999999999999993 0 0 1 1 0 0 forward_v I I I I #
coedge $-1 -1 $-1 $379 $379 $275 $381 forward $272 $-1 #
coedge $-1 -1 $-1 $380 $380 $496 $497 reversed $274 $-1 #
edge $-1 -1 $-1 $498 0 $498 6.2831853071795862 $379 $499 forward @7 unknown #
loop $-1 -1 $-1 $-1 $500 $276 #
plane-surface $-1 -1 $-1 0 0 0.41999999999999993 0 0 1 1 0 0 forward_v I I I I #
coedge $-1 -1 $-1 $384 $384 $280 $386 forward $277 $-1 #
coedge $-1 -1 $-1 $385 $385 $500 $501 reversed $279 $-1 #
edge $-1 -1 $-1 $502 0 $502 6.2831853071795862 $384 $503 forward @7 unknown #
model_id-kcp-attrib $-1 -1 $-1 $-1 $282 1 1021400356 1021400357 -1639841791 6 #
face $504 -1 $-1 $505 $506 $22 $-1 $507 forward single #
loop $-1 -1 $-1 $508 $509 $282 #
cone-surface $-1 -1 $-1 0 4.4699999999999998 0 0 1 0 2 0 0 1 I I 0 1 2 forward I I I I #
loop $-1 -1 $-1 $-1 $510 $188 #
coedge $-1 -1 $-1 