105 389 1 0                             
body $-1 $1 $-1 $-1 #
lump $-1 $-1 $2 $0 #
shell $-1 $-1 $-1 $3 $1 #
face $-1 $4 $5 $2 $-1 $6 reversed single #
face $-1 $7 $8 $2 $-1 $9 reversed single #
loop $-1 $-1 $10 $3 #
plane-surface $-1 0 253.517316071661 199.23858944015 0 -0.707106781186548 -0.707106781186548 -1 0 -0 0 #
face $-1 $11 $12 $2 $-1 $13 reversed single #
loop $-1 $-1 $14 $4 #
plane-surface $-1 0 334.645669291339 157.48031496063 0 0 -1 -1 0 0 0 #
coedge $-1 $15 $16 $17 $18 0 $5 $-1 #
face $-1 $19 $20 $2 $-1 $21 reversed single #
loop $-1 $-1 $22 $7 #
plane-surface $-1 -59.0551181102362 -118.110236220472 118.110236220472 -1 0 0 0 -0 1 0 #
coedge $-1 $23 $24 $25 $26 0 $8 $-1 #
coedge $-1 $27 $10 $28 $29 0 $5 $-1 #
coedge $-1 $10 $27 $30 $31 0 $5 $-1 #
coedge $-1 $32 $33 $10 $18 1 $34 $-1 #
edge $-1 $35 $36 $10 $37 0 #
face $-1 $38 $39 $2 $-1 $40 reversed single #
loop $-1 $-1 $41 $11 #
plane-surface $-1 0 -118.110236220472 118.110236220472 0 0 -1 -1 0 0 0 #
coedge $-1 $42 $43 $44 $45 1 $12 $-1 #
coedge $-1 $46 $14 $47 $48 0 $8 $-1 #
coedge $-1 $14 $46 $27 $49 0 $8 $-1 #
coedge $-1 $28 $50 $14 $26 1 $51 $-1 #
edge $-1 $52 $53 $14 $54 0 #
coedge $-1 $16 $15 $24 $49 1 $5 $-1 #
coedge $-1 $55 $25 $15 $29 1 $51 $-1 #
edge $-1 $36 $52 $15 $56 0 #
coedge $-1 $57 $58 $16 $31 1 $59 $-1 #
edge $-1 $60 $35 $16 $61 0 #
coedge $-1 $62 $17 $58 $63 1 $34 $-1 #
coedge $-1 $17 $62 $55 $64 1 $34 $-1 #
loop $-1 $-1 $17 $65 #
vertex $-1 $18 $66 #
vertex $-1 $18 $67 #
straight-curve $-1 0 216.535433070866 236.220472440945 1 0 0 #
face $-1 $68 $69 $2 $-1 $70 reversed single #
loop $-1 $-1 $71 $19 #
plane-surface $-1 59.0551181102362 -118.110236220472 118.110236220472 1 0 0 0 0 -1 0 #
coedge $-1 $72 $73 $74 $75 0 $20 $-1 #
coedge $-1 $76 $22 $77 $78 1 $12 $-1 #
coedge $-1 $22 $74 $79 $80 1 $12 $-1 #
coedge $-1 $81 $82 $22 $45 0 $69 $-1 #
edge $-1 $83 $84 $22 $85 0 #
coedge $-1 $24 $23 $57 $86 0 $8 $-1 #
coedge $-1 $87 $88 $23 $48 1 $89 $-1 #
edge $-1 $53 $90 $23 $91 0 #
edge $-1 $60 $52 $27 $92 0 #
coedge $-1 $25 $93 $87 $94 0 $51 $-1 #
loop $-1 $-1 $28 $95 #
vertex $-1 $29 $96 #
vertex $-1 $26 $97 #
straight-curve $-1 137.795275590551 334.645669291339 157.48031496063 0 1 0 #
coedge $-1 $98 $28 $33 $64 0 $51 $-1 #
straight-curve $-1 137.795275590551 253.517316071661 199.23858944015 0 0.707106781186548 -0.707106781186548 #
coedge $-1 $99 $30 $46 $86 1 $59 $-1 #
coedge $-1 $30 $100 $32 $63 0 $59 $-1 #
loop $-1 $-1 $30 $101 #
vertex $-1 $49 $102 #
straight-curve $-1 -137.795275590551 253.517316071661 199.23858944015 0 -0.707106781186548 0.707106781186548 #
coedge $-1 $33 $32 $103 $104 0 $34 $-1 #
edge $-1 $105 $35 $32 $106 0 #
edge $-1 $36 $107 $33 $108 0 #
face $-1 $109 $34 $2 $-1 $110 forward single #
point $-1 -137.795275590551 216.535433070866 236.220472440945 #
point $-1 137.795275590551 216.535433070866 236.220472440945 #
face $-1 $111 $112 $2 $-1 $113 reversed single #
loop $-1 $-1 $82 $38 #
plane-surface $-1 0 0 157.48031496063 0 0 -1 -1 0 0 0 #
coedge $-1 $114 $115 $116 $117 1 $39 $-1 #
coedge $-1 $116 $41 $118 $119 0 $20 $-1 #
coedge $-1 $41 $116 $120 $121 1 $20 $-1 #
coedge $-1 $43 $122 $41 $75 1 $12 $-1 #
edge $-1 $123 $124 $74 $125 0 #
coedge $-1 $122 $42 $126 $127 1 $12 $-1 #
coedge $-1 $128 $129 $42 $78 0 $112 $-1 #
edge $-1 $130 $83 $42 $131 0 #
coedge $-1 $120 $132 $43 $80 0 $133 $-1 #
edge $-1 $84 $123 $43 $134 0 #
coedge $-1 $135 $44 $132 $136 0 $69 $-1 #
coedge $-1 $44 $135 $128 $137 0 $69 $-1 #
vertex $-1 $45 $138 #
vertex $-1 $45 $139 #
straight-curve $-1 -59.0551181102362 0 157.48031496063 0 1 0 #
edge $-1 $90 $60 $46 $140 0 #
coedge $-1 $141 $47 $50 $94 1 $89 $-1 #
coedge $-1 $47 $141 $99 $142 0 $89 $-1 #
loop $-1 $-1 $47 $143 #
vertex $-1 $48 $144 #
straight-curve $-1 0 374.015748031496 157.48031496063 -1 0 0 #
straight-curve $-1 0 295.275590551181 157.48031496063 1 0 0 #
coedge $-1 $50 $145 $146 $147 0 $51 $-1 #
edge $-1 $148 $53 $87 $149 0 #
face $-1 $-1 $51 $2 $-1 $150 forward single #
point $-1 137.795275590551 295.275590551181 157.48031496063 #
point $-1 137.795275590551 374.015748031496 157.48031496063 #
coedge $-1 $151 $55 $152 $153 1 $51 $-1 #
coedge $-1 $154 $57 $88 $142 1 $59 $-1 #
coedge $-1 $58 $155 $156 $157 0 $59 $-1 #
face $-1 $143 $59 $2 $-1 $158 forward single #
point $-1 -137.795275590551 295.275590551181 157.48031496063 #
coedge $-1 $156 $152 $62 $104 1 $159 $-1 #
edge $-1 $105 $107 $103 $160 0 #
vertex $-1 $157 $161 #
straight-curve $-1 -137.795275590551 78.740157480315 236.220472440945 0 1 0 #
vertex $-1 $153 $162 #
straight-curve $-1 137.795275590551 78.740157480315 236.220472440945 0 -1 0 #
face $-1 $101 $163 $2 $-1 $164 forward single #
plane-surface $-1 0 78.740157480315 236.220472440945 0 0 1 1 0 0 0 #
face $-1 $165 $166 $2 $-1 $167 forward single #
loop $-1 $-1 $129 $68 #
plane-surface $-1 0 -118.110236220472 157.48031496063 0 -1 0 0 0 -1 0 #
coedge $-1 $168 $71 $169 $170 0 $39 $-1 #
coedge $-1 $71 $171 $172 $173 1 $39 $-1 #
coedge $-1 $73 $72 $71 $117 0 $20 $-1 #
edge $-1 $174 $175 $116 $176 0 #
coedge $-1 $177 $169 $72 $119 1 $163 $-1 #
edge $-1 $124 $174 $72 $178 0 #
coedge $-1 $172 $79 $73 $121 0 $133 $-1 #
edge $-1 $123 $175 $73 $179 0 #
coedge $-1 $74 $76 $177 $180 1 $12 $-1 #
vertex $-1 $75 $181 #
vertex $-1 $180 $182 #
straight-curve $-1 -59.0551181102362 -118.110236220472 118.110236220472 0 -1 0 #
coedge $-1 $183 $184 $76 $127 0 $166 $-1 #
edge $-1 $185 $130 $76 $186 0 #
coedge $-1 $187 $77 $82 $137 1 $112 $-1 #
coedge $-1 $77 $187 $183 $188 1 $112 $-1 #
vertex $-1 $78 $189 #
straight-curve $-1 -59.0551181102362 -118.110236220472 157.48031496063 0 0 -1 #
coedge $-1 $79 $190 $81 $136 1 $133 $-1 #
loop $-1 $-1 $132 $165 #
straight-curve $-1 -59.0551181102362 -39.3700787401575 78.740157480315 0 0 -1 #
coedge $-1 $82 $81 $191 $192 0 $69 $-1 #
edge $-1 $84 $193 $81 $194 0 #
edge $-1 $195 $83 $82 $196 0 #
point $-1 -59.0551181102362 -118.110236220472 157.48031496063 #
point $-1 -59.0551181102362 -39.3700787401575 157.48031496063 #
straight-curve $-1 -137.795275590551 334.645669291339 157.48031496063 0 -1 0 #
coedge $-1 $88 $87 $197 $198 0 $89 $-1 #
edge $-1 $199 $90 $99 $200 0 #
face $-1 $201 $89 $2 $-1 $202 forward single #
point $-1 -137.795275590551 374.015748031496 157.48031496063 #
coedge $-1 $93 $203 $204 $205 1 $51 $-1 #
coedge $-1 $206 $197 $93 $147 1 $207 $-1 #
edge $-1 $208 $148 $146 $209 0 #
vertex $-1 $94 $210 #
straight-curve $-1 137.795275590551 374.015748031496 0 0 0 1 #
plane-surface $-1 137.795275590551 78.740157480315 0 1 0 0 0 0 -1 0 #
coedge $-1 $211 $98 $212 $213 1 $51 $-1 #
coedge $-1 $103 $214 $98 $153 0 $159 $-1 #
edge $-1 $215 $107 $152 $216 0 #
coedge $-1 $217 $99 $218 $219 0 $59 $-1 #
coedge $-1 $100 $220 $221 $222 1 $59 $-1 #
coedge $-1 $214 $103 $100 $157 1 $159 $-1 #
edge $-1 $223 $105 $156 $224 0 #
plane-surface $-1 -137.795275590551 78.740157480315 0 -1 0 0 0 -0 1 0 #
loop $-1 $-1 $156 $225 #
straight-curve $-1 0 118.110236220472 236.220472440945 1 0 0 #
point $-1 -137.795275590551 118.110236220472 236.220472440945 #
point $-1 137.795275590551 118.110236220472 236.220472440945 #
loop $-1 $-1 $177 $109 #
plane-surface $-1 0 -216.535433070866 0 0 -1 0 0 0 -1 0 #
face $-1 $226 $133 $2 $-1 $227 reversed single #
loop $-1 $-1 $126 $111 #
plane-surface $-1 0 78.740157480315 236.220472440945 0 0 1 1 0 0 0 #
coedge $-1 $228 $114 $229 $230 1 $39 $-1 #
coedge $-1 $118 $231 $114 $170 1 $163 $-1 #
edge $-1 $174 $232 $114 $233 0 #
coedge $-1 $115 $228 $234 $235 1 $39 $-1 #
coedge $-1 $236 $120 $115 $173 0 $133 $-1 #
edge $-1 $175 $237 $115 $238 0 #
vertex $-1 $119 $239 #
vertex $-1 $117 $240 #
straight-curve $-1 59.0551181102362 -118.110236220472 118.110236220472 0 1 0 #
coedge $-1 $241 $118 $122 $180 0 $163 $-1 #
straight-curve $-1 0 -216.535433070866 118.110236220472 1 0 0 #
straight-curve $-1 0 -39.3700787401575 118.110236220472 1 0 0 #
edge $-1 $124 $185 $122 $242 0 #
point $-1 -59.0551181102362 -39.3700787401575 118.110236220472 #
point $-1 -59.0551181102362 -216.535433070866 118.110236220472 #
coedge $-1 $243 $126 $129 $188 0 $166 $-1 #
coedge $-1 $126 $243 $241 $244 1 $166 $-1 #
vertex $-1 $127 $245 #
straight-curve $-1 -59.0551181102362 -118.110236220472 236.220472440945 0 1 0 #
coedge $-1 $129 $128 $246 $247 0 $112 $-1 #
edge $-1 $130 $248 $129 $249 0 #
point $-1 -59.0551181102362 -118.110236220472 236.220472440945 #
coedge $-1 $132 $250 $251 $252 0 $133 $-1 #
coedge $-1 $251 $246 $135 $192 1 $59 $-1 #
edge $-1 $193 $195 $135 $253 0 #
vertex $-1 $136 $254 #
straight-curve $-1 0 -39.3700787401575 157.48031496063 -1 0 0 #
vertex $-1 $137 $255 #
straight-curve $-1 0 -118.110236220472 157.48031496063 1 0 0 #
coedge $-1 $146 $218 $141 $198 1 $207 $-1 #
edge $-1 $148 $199 $141 $256 0 #
vertex $-1 $142 $257 #
straight-curve $-1 -137.795275590551 374.015748031496 0 0 0 1 #
face $-1 $95 $207 $2 $-1 $258 forward single #
plane-surface $-1 0 374.015748031496 0 0 1 0 0 0 1 0 #
coedge $-1 $145 $259 $260 $261 0 $51 $-1 #
coedge $-1 $231 $262 $145 $205 0 $163 $-1 #
edge $-1 $208 $263 $204 $264 0 #
coedge $-1 $218 $146 $262 $265 1 $207 $-1 #
loop $-1 $-1 $146 $201 #
vertex $-1 $265 $266 #
straight-curve $-1 137.795275590551 78.740157480315 0 0 1 0 #
point $-1 137.795275590551 374.015748031496 0 #
coedge $-1 $267 $151 $268 $269 1 $51 $-1 #
coedge $-1 $270 $271 $151 $213 0 $272 $-1 #
edge $-1 $273 $215 $212 $274 0 #
coedge $-1 $152 $156 $270 $275 1 $159 $-1 #
vertex $-1 $275 $276 #
straight-curve $-1 137.795275590551 118.110236220472 157.48031496063 0 0 1 #
coedge $-1 $277 $154 $278 $279 0 $59 $-1 #
coedge $-1 $197 $206 $154 $219 1 $207 $-1 #
edge $-1 $199 $280 $154 $281 0 #
coedge $-1 $155 $282 $283 $284 0 $59 $-1 #
coedge $-1 $271 $270 $155 $222 0 $272 $-1 #
edge $-1 $223 $285 $221 $286 0 #
vertex $-1 $157 $287 #
straight-curve $-1 -137.795275590551 118.110236220472 157.48031496063 0 0 1 #
face $-1 $288 $159 $2 $-1 $289 reversed single #
face $-1 $290 $291 $2 $-1 $292 reversed single #
plane-surface $-1 0 -39.3700787401575 78.740157480315 0 -1 0 0 0 -1 0 #
coedge $-1 $171 $168 $293 $294 1 $39 $-1 #
coedge $-1 $295 $296 $168 $230 0 $297 $-1 #
edge $-1 $298 $232 $168 $299 0 #
coedge $-1 $169 $204 $295 $300 0 $163 $-1 #
vertex $-1 $170 $301 #
straight-curve $-1 59.0551181102362 -216.535433070866 118.110236220472 0 0 1 #
coedge $-1 $302 $303 $171 $235 0 $304 $-1 #
edge $-1 $237 $305 $171 $306 0 #
coedge $-1 $307 $172 $303 $308 1 $133 $-1 #
vertex $-1 $235 $309 #
straight-curve $-1 59.0551181102362 -39.3700787401575 78.740157480315 0 0 1 #
point $-1 59.0551181102362 -216.535433070866 118.110236220472 #
point $-1 59.0551181102362 -39.3700787401575 118.110236220472 #
coedge $-1 $278 $177 $184 $244 0 $163 $-1 #
straight-curve $-1 -59.0551181102362 -216.535433070866 118.110236220472 0 0 1 #
coedge $-1 $184 $183 $277 $310 1 $166 $-1 #
edge $-1 $185 $311 $184 $312 0 #
point $-1 -59.0551181102362 -216.535433070866 236.220472440945 #
coedge $-1 $191 $277 $187 $247 1 $59 $-1 #
edge $-1 $195 $248 $187 $313 0 #
vertex $-1 $188 $314 #
straight-curve $-1 0 -118.110236220472 236.220472440945 -1 0 0 #
coedge $-1 $190 $307 $315 $316 1 $133 $-1 #
coedge $-1 $282 $191 $190 $252 1 $59 $-1 #
edge $-1 $317 $193 $190 $318 0 #
straight-curve $-1 -137.795275590551 0 157.48031496063 0 -1 0 #
point $-1 -137.795275590551 -39.3700787401575 157.48031496063 #
point $-1 -137.795275590551 -118.110236220472 157.48031496063 #
straight-curve $-1 0 374.015748031496 0 -1 0 0 #
point $-1 -137.795275590551 374.015748031496 0 #
plane-surface $-1 0 78.740157480315 0 0 0 -1 -1 0 0 0 #
coedge $-1 $203 $319 $320 $321 0 $51 $-1 #
coedge $-1 $296 $295 $203 $261 1 $297 $-1 #
edge $-1 $322 $263 $260 $323 0 #
coedge $-1 $204 $278 $206 $265 0 $163 $-1 #
vertex $-1 $300 $324 #
straight-curve $-1 137.795275590551 -216.535433070866 0 0 0 1 #
edge $-1 $280 $208 $262 $325 0 #
point $-1 137.795275590551 -216.535433070866 0 #
coedge $-1 $326 $211 $327 $328 1 $51 $-1 #
coedge $-1 $329 $330 $211 $269 0 $291 $-1 #
edge $-1 $331 $273 $268 $332 0 #
coedge $-1 $221 $212 $214 $275 0 $272 $-1 #
coedge $-1 $212 $221 $329 $333 0 $272 $-1 #
loop $-1 $-1 $221 $288 #
vertex $-1 $269 $334 #
straight-curve $-1 137.795275590551 0 157.48031496063 0 1 0 #
edge $-1 $215 $223 $214 $335 0 #
point $-1 137.795275590551 118.110236220472 157.48031496063 #
coedge $-1 $246 $217 $243 $310 0 $59 $-1 #
coedge $-1 $262 $241 $217 $279 1 $163 $-1 #
edge $-1 $280 $311 $278 $336 0 #
vertex $-1 $279 $337 #
straight-curve $-1 -137.795275590551 78.740157480315 0 0 -1 0 #
coedge $-1 $220 $251 $338 $339 1 $59 $-1 #
coedge $-1 $330 $329 $220 $284 1 $291 $-1 #
edge $-1 $340 $285 $283 $341 0 #
vertex $-1 $284 $342 #
straight-curve $-1 -137.795275590551 0 157.48031496063 0 -1 0 #
point $-1 -137.795275590551 118.110236220472 157.48031496063 #
face $-1 $343 $272 $2 $-1 $344 reversed single #
plane-surface $-1 0 118.110236220472 157.48031496063 0 1 0 0 0 1 0 #
face $-1 $345 $346 $2 $-1 $347 reversed single #
loop $-1 $-1 $283 $226 #
plane-surface $-1 0 39.3700787401575 78.740157480315 0 1 0 0 0 1 0 #
coedge $-1 $348 $349 $228 $294 0 $350 $-1 #
edge $-1 $305 $298 $228 $351 0 #
coedge $-1 $260 $229 $231 $300 1 $297 $-1 #
coedge $-1 $229 $260 $348 $352 0 $297 $-1 #
loop $-1 $-1 $229 $343 #
vertex $-1 $230 $353 #
straight-curve $-1 59.0551181102362 -118.110236220472 236.220472440945 0 -1 0 #
edge $-1 $263 $232 $295 $354 0 #
point $-1 59.0551181102362 -216.535433070866 236.220472440945 #
coedge $-1 $355 $234 $349 $356 0 $304 $-1 #
coedge $-1 $234 $355 $236 $308 0 $304 $-1 #
loop $-1 $-1 $303 $345 #
vertex $-1 $294 $357 #
straight-curve $-1 59.0551181102362 0 157.48031496063 0 -1 0 #
coedge $-1 $250 $236 $326 $358 1 $133 $-1 #
edge $-1 $359 $237 $236 $360 0 #
point $-1 59.0551181102362 -39.3700787401575 157.48031496063 #
edge $-1 $311 $248 $243 $361 0 #
vertex $-1 $310 $362 #
straight-curve $-1 0 -216.535433070866 236.220472440945 -1 0 0 #
straight-curve $-1 -137.795275590551 -118.110236220472 157.48031496063 0 0 1 #
point $-1 -137.795275590551 -118.110236220472 236.220472440945 #
coedge $-1 $327 $338 $250 $316 0 $346 $-1 #
edge $-1 $317 $363 $250 $364 0 #
vertex $-1 $316 $365 #
straight-curve $-1 -137.795275590551 -39.3700787401575 78.740157480315 0 0 1 #
coedge $-1 $259 $326 $355 $366 1 $51 $-1 #
coedge $-1 $349 $348 $259 $321 1 $350 $-1 #
edge $-1 $367 $322 $320 $368 0 #
vertex $-1 $352 $369 #
straight-curve $-1 137.795275590551 78.740157480315 236.220472440945 0 -1 0 #
point $-1 137.795275590551 -216.535433070866 236.220472440945 #
straight-curve $-1 0 -216.535433070866 0 1 0 0 #
coedge $-1 $319 $267 $307 $358 0 $51 $-1 #
coedge $-1 $370 $315 $267 $328 0 $346 $-1 #
edge $-1 $363 $331 $327 $371 0 #
coedge $-1 $283 $268 $271 $333 1 $291 $-1 #
coedge $-1 $268 $283 $370 $372 1 $291 $-1 #
vertex $-1 $372 $373 #
straight-curve $-1 137.795275590551 39.3700787401575 78.740157480315 0 0 1 #
edge $-1 $285 $273 $329 $374 0 #
point $-1 137.795275590551 39.3700787401575 157.48031496063 #
straight-curve $-1 0 118.110236220472 157.48031496063 -1 0 0 #
straight-curve $-1 -137.795275590551 -216.535433070866 0 0 0 1 #
point $-1 -137.795275590551 -216.535433070866 0 #
coedge $-1 $315 $370 $282 $339 0 $346 $-1 #
edge $-1 $340 $317 $338 $375 0 #
vertex $-1 $284 $376 #
straight-curve $-1 -137.795275590551 39.3700787401575 78.740157480315 0 0 1 #
point $-1 -137.795275590551 39.3700787401575 157.48031496063 #
face $-1 $65 $297 $2 $-1 $377 forward single #
plane-surface $-1 0 0 157.48031496063 0 0 -1 -1 0 0 0 #
face $-1 $378 $304 $2 $-1 $379 reversed single #
loop $-1 $-1 $327 $290 #
plane-surface $-1 0 0 78.740157480315 0 0 -1 -1 0 0 0 #
coedge $-1 $320 $293 $296 $352 1 $350 $-1 #
coedge $-1 $293 $320 $302 $356 1 $350 $-1 #
loop $-1 $-1 $349 $378 #
straight-curve $-1 59.0551181102362 -118.110236220472 157.48031496063 0 0 1 #
edge $-1 $322 $298 $348 $380 0 #
point $-1 59.0551181102362 -118.110236220472 236.220472440945 #
straight-curve $-1 0 -216.535433070866 236.220472440945 -1 0 0 #
coedge $-1 $303 $302 $319 $366 0 $304 $-1 #
edge $-1 $305 $367 $302 $381 0 #
point $-1 59.0551181102362 -118.110236220472 157.48031496063 #
edge $-1 $363 $359 $307 $382 0 #
vertex $-1 $308 $383 #
straight-curve $-1 0 -39.3700787401575 157.48031496063 -1 0 0 #
straight-curve $-1 -137.795275590551 78.740157480315 236.220472440945 0 1 0 #
point $-1 -137.795275590551 -216.535433070866 236.220472440945 #
vertex $-1 $358 $384 #
straight-curve $-1 0 -39.3700787401575 78.740157480315 1 0 0 #
point $-1 -137.795275590551 -39.3700787401575 78.740157480315 #
edge $-1 $367 $359 $355 $385 0 #
vertex $-1 $356 $386 #
straight-curve $-1 137.795275590551 -118.110236220472 157.48031496063 0 0 1 #
point $-1 137.795275590551 -118.110236220472 236.220472440945 #
coedge $-1 $338 $327 $330 $372 0 $346 $-1 #
straight-curve $-1 137.795275590551 0 78.740157480315 0 1 0 #
edge $-1 $331 $340 $330 $387 0 #
point $-1 137.795275590551 39.3700787401575 78.740157480315 #
straight-curve $-1 0 39.3700787401575 157.48031496063 1 0 0 #
straight-curve $-1 -137.795275590551 0 78.740157480315 0 -1 0 #
point $-1 -137.795275590551 39.3700787401575 78.740157480315 #
plane-surface $-1 0 78.740157480315 236.220472440945 0 0 1 1 0 0 0 #
face $-1 $225 $350 $2 $-1 $388 reversed single #
plane-surface $-1 0 0 157.48031496063 0 0 -1 -1 0 0 0 #
straight-curve $-1 0 -118.110236220472 236.220472440945 -1 0 0 #
straight-curve $-1 0 -118.110236220472 157.48031496063 1 0 0 #
straight-curve $-1 137.795275590551 -39.3700787401575 78.740157480315 0 0 1 #
point $-1 137.795275590551 -39.3700787401575 157.48031496063 #
point $-1 137.795275590551 -39.3700787401575 78.740157480315 #
straight-curve $-1 137.795275590551 0 157.48031496063 0 1 0 #
point $-1 137.795275590551 -118.110236220472 157.48031496063 #
straight-curve $-1 0 39.3700787401575 78.740157480315 -1 0 0 #
plane-surface $-1 0 -118.110236220472 157.48031496063 0 -1 0 0 0 -1 0 #
