600 0 2 0           
34 FBMach with ACIS3D/Toolkit - 6.0.3 13 ACIS 6.0.3 NT 24 Mon Apr 16 11:19:35 2001 
1 9.9999999999999995e-007 1e-010 
body $2 $3 $-1 $4 #
bdycol-kcp $-1 1 4 $5 $6 $7 $8 #
model_id-kcp-attrib $-1 $-1 $-1 $0 1 987434363 187 -1178927103 1 #
lump $-1 $-1 $9 $0 #
transform $-1 1 0 0 0 1 0 0 0 1 0 0 0 1 no_rotate no_reflect no_shear #
body $10 $11 $-1 $12 #
body $13 $14 $-1 $15 #
body $16 $17 $-1 $18 #
body $19 $20 $-1 $21 #
shell $-1 $-1 $-1 $22 $-1 $3 #
model_id-kcp-attrib $-1 $-1 $-1 $5 1 987434363 203 -1177878526 1 #
lump $-1 $-1 $23 $5 #
transform $-1 1 0 0 0 1 0 0 0 1 0 78.740157480315006 118.1102362204725 1 no_rotate no_reflect no_shear #
rgb_color-st-attrib $-1 $24 $-1 $6 1 0 0 #
lump $-1 $-1 $25 $6 #
transform $-1 1 0 0 0 1 0 0 0 1 0 0 771.92192368736232 1 no_rotate no_reflect no_shear #
rgb_color-st-attrib $-1 $26 $-1 $7 1 0 0 #
lump $-1 $-1 $27 $7 #
transform $-1 1 0 0 0 1 0 0 0 1 0 -127.95275590551171 811.29200242751926 1 no_rotate no_reflect no_shear #
rgb_color-st-attrib $-1 $28 $-1 $8 0.59999999999999998 0.90000000000000002 1 #
lump $-1 $-1 $29 $8 #
transform $-1 1 0 0 0 1 0 0 0 1 0 78.740157480315006 118.1102362204725 1 no_rotate no_reflect no_shear #
face $30 $31 $32 $9 $-1 $33 reversed single #
shell $-1 $-1 $-1 $34 $-1 $11 #
model_id-kcp-attrib $-1 $-1 $13 $6 1 987434363 3484 -1180958717 1 #
shell $-1 $-1 $-1 $35 $-1 $14 #
model_id-kcp-attrib $-1 $-1 $16 $7 1 987434363 5078 -1177157628 1 #
shell $-1 $-1 $-1 $36 $-1 $17 #
model_id-kcp-attrib $-1 $-1 $19 $8 1 987434363 8500 -1187774459 1 #
shell $-1 $-1 $-1 $37 $-1 $20 #
model_id-kcp-attrib $-1 $-1 $-1 $22 1 987434363 187 -1178927103 2 #
face $38 $39 $40 $9 $-1 $41 reversed single #
loop $-1 $-1 $42 $22 #
plane-surface $-1 0 253.51731607166101 199.23858944015001 0 -0.70710678118654757 -0.70710678118654757 -1 0 0 forward_v I I I I #
face $43 $44 $45 $23 $-1 $46 forward single #
face $-1 $47 $48 $25 $-1 $49 forward single #
face $-1 $50 $51 $27 $-1 $52 forward single #
face $-1 $53 $54 $29 $-1 $55 forward single #
model_id-kcp-attrib $-1 $-1 $-1 $31 1 987434363 187 -1178927103 3 #
face $56 $57 $58 $9 $-1 $59 reversed single #
loop $-1 $-1 $60 $31 #
plane-surface $-1 0 334.645669291339 157.48031496063001 0 0 -1 -1 0 0 forward_v I I I I #
coedge $-1 $61 $62 $63 $64 forward $32 $-1 #
model_id-kcp-attrib $-1 $65 $-1 $34 1 987434363 203 -1177878526 4 #
face $66 $67 $68 $23 $-1 $69 reversed single #
loop $-1 $-1 $70 $34 #
plane-surface $-1 0 0 118.1102362204725 0 0 1 1 0 0 forward_v I I I I #
face $-1 $71 $72 $25 $-1 $73 reversed single #
loop $-1 $-1 $74 $35 #
plane-surface $-1 0 1.4210854715202004e-014 -614.44160872673228 3.1748772321113875e-033 1.2445518749876656e-030 1 1 0 -3.1748772321113875e-033 forward_v I I I I #
face $-1 $75 $76 $27 $-1 $77 reversed single #
loop $-1 $-1 $78 $36 #
plane-surface $-1 2.5837917664003657e-016 0 -653.81168746688934 0 0 1 1 0 0 forward_v I I I I #
face $-1 $79 $80 $29 $-1 $81 forward single #
loop $-1 $-1 $82 $37 #
plane-surface $-1 59.055118110236208 -196.85039370078701 39.37007874015751 1 0 0 0 0 -1 forward_v I I I I #
model_id-kcp-attrib $-1 $-1 $-1 $39 1 987434363 187 -1178927103 4 #
face $83 $84 $85 $9 $-1 $86 reversed single #
loop $-1 $-1 $87 $39 #
plane-surface $-1 -59.055118110236201 -118.110236220472 118.110236220472 -1 0 0 0 0 1 forward_v I I I I #
coedge $-1 $88 $89 $90 $91 forward $40 $-1 #
coedge $-1 $92 $42 $93 $94 forward $32 $-1 #
coedge $-1 $42 $92 $95 $96 forward $32 $-1 #
coedge $-1 $97 $98 $42 $64 reversed $99 $-1 #
edge $100 $101 -137.795275590551 $102 137.795275590551 $42 $103 forward 7 unknown #
model_id-kcp-attrib $-1 $104 $43 $34 1 987434363 203 -1177878526 3 #
model_id-kcp-attrib $-1 $-1 $-1 $44 1 987434363 203 -1177878526 8 #
face $105 $106 $107 $23 $-1 $108 reversed single #
loop $-1 $-1 $109 $44 #
plane-surface $-1 0 0 -118.1102362204725 0 0 1 1 0 0 forward_v I I I I #
coedge $-1 $110 $111 $112 $113 forward $45 $-1 #
face $-1 $114 $115 $25 $-1 $116 reversed single #
loop $-1 $-1 $117 $47 #
plane-surface $-1 -137.795275590551 78.740157480315006 -653.81168746688979 1 0 0 0 0 -1 forward_v I I I I #
coedge $-1 $118 $119 $120 $121 forward $48 $-1 #
face $-1 $122 $123 $27 $-1 $124 forward single #
loop $-1 $-1 $125 $50 #
plane-surface $-1 0 -88.582677165354255 -693.18176620704673 0 1 0 0 0 1 forward_v I I I I #
coedge $-1 $126 $127 $128 $129 reversed $51 $-1 #
face $-1 $130 $131 $29 $-1 $132 forward single #
loop $-1 $-1 $133 $53 #
plane-surface $-1 59.055118110236208 -295.27559055118098 39.370078740157538 0 -1 0 0 0 -1 forward_v I I I I #
coedge $-1 $134 $135 $136 $137 forward $54 $-1 #
model_id-kcp-attrib $-1 $-1 $-1 $57 1 987434363 187 -1178927103 5 #
face $138 $139 $140 $9 $-1 $141 reversed single #
loop $-1 $-1 $142 $57 #
plane-surface $-1 0 -118.110236220472 118.110236220472 0 0 -1 -1 0 0 forward_v I I I I #
coedge $-1 $143 $144 $145 $146 reversed $58 $-1 #
coedge $-1 $147 $60 $148 $149 forward $40 $-1 #
coedge $-1 $60 $147 $92 $150 forward $40 $-1 #
coedge $-1 $93 $151 $60 $91 reversed $152 $-1 #
edge $153 $154 -39.370078740158021 $155 39.370078740156998 $60 $156 forward 7 unknown #
coedge $-1 $62 $61 $89 $150 reversed $32 $-1 #
coedge $-1 $157 $90 $61 $94 reversed $152 $-1 #
edge $158 $102 -52.30028050181928 $154 59.055118110235419 $61 $159 forward 7 unknown #
coedge $-1 $160 $161 $62 $96 reversed $162 $-1 #
edge $163 $164 -59.055118110235419 $101 52.30028050181928 $62 $165 forward 7 unknown #
coedge $-1 $166 $63 $161 $167 reversed $99 $-1 #
coedge $-1 $63 $166 $157 $168 reversed $99 $-1 #
loop $-1 $-1 $63 $169 #
attrib_edge_convexity-kcp-attrib $-1 $170 $-1 $64 1 #
vertex $-1 $64 $171 #
vertex $-1 $64 $172 #
straight-curve $-1 0 216.53543307086599 236.220472440945 1 0 0 I I #
model_id-kcp-attrib $-1 $-1 $65 $34 1 987434363 203 -1177878526 2 #
model_id-kcp-attrib $-1 $-1 $-1 $67 1 987434363 203 -1177878526 5 #
face $173 $174 $175 $23 $-1 $176 reversed single #
loop $-1 $-1 $177 $67 #
plane-surface $-1 0 -295.27559055118098 0 0 1 0 0 0 1 forward_v I I I I #
coedge $-1 $178 $179 $180 $181 forward $68 $-1 #
coedge $-1 $182 $70 $183 $184 forward $45 $-1 #
coedge $-1 $70 $182 $185 $186 forward $45 $-1 #
coedge $-1 $187 $188 $70 $113 reversed $189 $-1 #
edge $-1 $190 -295.27559055118098 $191 295.27559055118098 $112 $192 forward 7 unknown #
face $-1 $193 $194 $25 $-1 $195 reversed single #
loop $-1 $-1 $120 $71 #
plane-surface $-1 137.795275590551 78.740157480315006 -653.81168746688979 -1 0 0 0 0 1 forward_v I I I I #
coedge $-1 $196 $197 $198 $199 reversed $72 $-1 #
coedge $-1 $198 $74 $200 $201 forward $48 $-1 #
coedge $-1 $74 $198 $202 $203 forward $48 $-1 #
coedge $-1 $204 $205 $74 $121 reversed $115 $-1 #
edge $-1 $206 -78.740157480315006 $207 -7.1054273576010019e-015 $120 $208 forward 7 unknown #
face $-1 $209 $210 $27 $-1 $211 reversed single #
loop $-1 $-1 $212 $75 #
plane-surface $-1 0 88.582677165354227 -39.370078740156941 0 1 0 0 0 1 forward_v I I I I #
coedge $-1 $213 $214 $215 $216 reversed $76 $-1 #
coedge $-1 $215 $78 $217 $218 forward $51 $-1 #
coedge $-1 $78 $215 $219 $220 forward $51 $-1 #
coedge $-1 $221 $212 $78 $129 forward $123 $-1 #
edge $222 $223 -59.055118110236201 $224 59.055118110236201 $128 $225 forward 7 unknown #
face $-1 $226 $227 $29 $-1 $228 forward single #
loop $-1 $-1 $229 $79 #
plane-surface $-1 -59.055118110236208 -295.27559055118098 39.370078740157538 -1 0 0 0 0 1 forward_v I I I I #
coedge $-1 $230 $231 $232 $233 forward $80 $-1 #
coedge $-1 $234 $82 $231 $235 reversed $54 $-1 #
coedge $-1 $82 $234 $236 $237 forward $54 $-1 #
coedge $-1 $238 $232 $82 $137 reversed $239 $-1 #
edge $-1 $240 34.448818897637494 $241 132.87401574803147 $82 $242 forward 7 unknown #
model_id-kcp-attrib $-1 $-1 $-1 $84 1 987434363 187 -1178927103 6 #
face $243 $244 $245 $9 $-1 $246 reversed single #
loop $-1 $-1 $247 $84 #
plane-surface $-1 59.055118110236201 -118.110236220472 118.110236220472 1 0 0 0 0 -1 forward_v I I I I #
coedge $-1 $248 $249 $250 $251 forward $85 $-1 #
coedge $-1 $252 $87 $253 $254 reversed $58 $-1 #
coedge $-1 $87 $250 $255 $256 reversed $58 $-1 #
coedge $-1 $257 $258 $87 $146 forward $245 $-1 #
edge $-1 $259 -118.110236220472 $260 -39.370078740157503 $87 $261 forward 7 unknown #
coedge $-1 $89 $88 $160 $262 forward $40 $-1 #
coedge $-1 $263 $264 $88 $149 reversed $265 $-1 #
edge $266 $155 -137.795275590551 $267 137.795275590551 $88 $268 forward 7 unknown #
edge $269 $164 -137.795275590551 $154 137.795275590551 $92 $270 forward 7 unknown #
coedge $-1 $90 $271 $263 $272 forward $152 $-1 #
loop $-1 $-1 $93 $273 #
attrib_edge_convexity-kcp-attrib $-1 $274 $-1 $91 1 #
vertex $-1 $94 $275 #
vertex $-1 $91 $276 #
straight-curve $-1 137.795275590551 334.645669291339 157.48031496063001 0 1 0 I I #
coedge $-1 $277 $93 $98 $168 forward $152 $-1 #
attrib_edge_convexity-kcp-attrib $-1 $278 $-1 $94 1 #
straight-curve $-1 137.795275590551 253.51731607166101 199.23858944015001 0 0.70710678118654802 -0.70710678118654802 I I #
coedge $-1 $279 $95 $147 $262 reversed $162 $-1 #
coedge $-1 $95 $280 $97 $167 forward $162 $-1 #
loop $-1 $-1 $95 $281 #
attrib_edge_convexity-kcp-attrib $-1 $282 $-1 $96 1 #
vertex $-1 $150 $283 #
straight-curve $-1 -137.795275590551 253.51731607166101 199.23858944015001 0 -0.70710678118654802 0.70710678118654802 I I #
coedge $-1 $98 $97 $284 $285 forward $99 $-1 #
edge $286 $287 39.370078740156998 $101 137.795275590551 $97 $288 forward 7 unknown #
edge $-1 $102 -137.795275590551 $289 -39.370078740156998 $98 $290 forward 7 unknown #
face $291 $292 $99 $9 $-1 $293 forward single #
convexity-sys-attrib $-1 $-1 $100 $64 #
point $-1 -137.795275590551 216.53543307086599 236.220472440945 #
point $-1 137.795275590551 216.53543307086599 236.220472440945 #
model_id-kcp-attrib $-1 $-1 $-1 $106 1 987434363 203 -1177878526 6 #
face $294 $295 $296 $23 $-1 $297 reversed single #
loop $-1 $-1 $298 $106 #
plane-surface $-1 -137.795275590551 0 0 1 0 0 0 0 -1 forward_v I I I I #
coedge $-1 $299 $185 $300 $301 forward $107 $-1 #
coedge $-1 $302 $109 $299 $303 forward $68 $-1 #
coedge $-1 $109 $302 $304 $305 forward $68 $-1 #
coedge $-1 $188 $187 $109 $181 reversed $189 $-1 #
edge $-1 $306 -295.27559055118098 $307 295.27559055118098 $180 $308 forward 7 unknown #
coedge $-1 $111 $110 $309 $310 forward $45 $-1 #
coedge $-1 $311 $312 $110 $184 reversed $296 $-1 #
edge $-1 $191 -137.795275590551 $313 137.795275590551 $183 $314 forward 7 unknown #
coedge $-1 $177 $315 $111 $186 reversed $107 $-1 #
edge $-1 $316 -137.795275590551 $190 137.795275590551 $185 $317 forward 7 unknown #
coedge $-1 $180 $112 $315 $318 forward $189 $-1 #
coedge $-1 $112 $180 $311 $319 reversed $189 $-1 #
loop $-1 $-1 $187 $295 #
vertex $-1 $113 $320 #
vertex $-1 $113 $321 #
straight-curve $-1 137.795275590551 0 118.1102362204725 0 1 0 I I #
face $-1 $322 $323 $25 $-1 $324 reversed single #
loop $-1 $-1 $325 $114 #
plane-surface $-1 0 -39.370078740157503 0 0 1 0 0 0 1 forward_v I I I I #
coedge $-1 $326 $117 $327 $328 forward $72 $-1 #
coedge $-1 $117 $326 $329 $330 forward $72 $-1 #
coedge $-1 $119 $118 $117 $199 forward $48 $-1 #
edge $-1 $331 7.1054273576010019e-015 $332 78.740157480315006 $117 $333 forward 7 unknown #
coedge $-1 $334 $327 $118 $201 reversed $335 $-1 #
edge $-1 $207 -137.795275590551 $331 137.795275590551 $200 $336 forward 7 unknown #
coedge $-1 $329 $325 $119 $203 reversed $194 $-1 #
edge $-1 $332 -137.795275590551 $206 137.795275590551 $202 $337 forward 7 unknown #
coedge $-1 $338 $120 $325 $339 forward $115 $-1 #
coedge $-1 $120 $338 $334 $340 forward $115 $-1 #
vertex $-1 $203 $341 #
vertex $-1 $201 $342 #
straight-curve $-1 137.795275590551 39.37007874015751 -614.44160872673228 0 1 -1.2445518749876656e-030 I I #
face $-1 $343 $344 $27 $-1 $345 reversed single #
loop $-1 $-1 $346 $122 #
plane-surface $-1 0 0 -693.1817662070473 0 0 1 1 0 0 forward_v I I I I #
coedge $-1 $128 $347 $348 $349 forward $123 $-1 #
coedge $-1 $350 $125 $351 $352 forward $76 $-1 #
coedge $-1 $125 $350 $353 $354 forward $76 $-1 #
coedge $-1 $127 $126 $125 $216 forward $51 $-1 #
edge $-1 $355 -59.055118110236201 $356 59.055118110236201 $125 $357 forward 7 unknown #
coedge $-1 $348 $351 $126 $218 reversed $358 $-1 #
edge $-1 $223 -88.582677165354227 $355 88.582677165354255 $217 $359 forward 7 unknown #
coedge $-1 $353 $360 $127 $220 reversed $344 $-1 #
edge $-1 $356 -88.582677165354255 $224 88.582677165354227 $219 $361 forward 7 unknown #
coedge $-1 $347 $128 $360 $362 forward $123 $-1 #
convexity-sys-attrib $-1 $-1 $-1 $129 #
vertex $-1 $218 $363 #
vertex $-1 $220 $364 #
straight-curve $-1 -9.7538833700419795e-031 88.582677165354227 -653.81168746688923 1 0 -3.1748772321113875e-033 I I #
face $-1 $365 $366 $29 $-1 $367 forward single #
loop $-1 $-1 $368 $130 #
plane-surface $-1 -59.055118110236208 -196.85039370078701 39.37007874015751 0 -1 0 0 0 -1 forward_v I I I I #
coedge $-1 $369 $370 $371 $372 forward $131 $-1 #
coedge $-1 $373 $133 $370 $374 reversed $80 $-1 #
coedge $-1 $133 $373 $134 $235 forward $80 $-1 #
coedge $-1 $136 $371 $133 $233 reversed $239 $-1 #
edge $-1 $241 -59.055118110236208 $375 59.055118110236208 $133 $376 forward 7 unknown #
coedge $-1 $135 $134 $377 $378 reversed $54 $-1 #
edge $-1 $379 0 $241 78.740157480314991 $231 $380 forward 7 unknown #
coedge $-1 $381 $382 $135 $237 reversed $383 $-1 #
edge $-1 $384 0 $240 78.740157480314991 $135 $385 forward 7 unknown #
coedge $-1 $386 $136 $382 $387 reversed $239 $-1 #
loop $-1 $-1 $136 $388 #
vertex $-1 $237 $389 #
vertex $-1 $235 $390 #
straight-curve $-1 59.055118110236201 -162.40157480314951 118.1102362204725 0 -1 0 I I #
model_id-kcp-attrib $-1 $-1 $-1 $139 1 987434363 187 -1178927103 7 #
face $391 $392 $393 $9 $-1 $394 reversed single #
loop $-1 $-1 $258 $139 #
plane-surface $-1 0 0 157.48031496063001 0 0 -1 -1 0 0 forward_v I I I I #
coedge $-1 $395 $396 $397 $398 reversed $140 $-1 #
coedge $-1 $397 $142 $399 $400 forward $85 $-1 #
coedge $-1 $142 $397 $401 $402 reversed $85 $-1 #
coedge $-1 $144 $403 $142 $251 reversed $58 $-1 #
edge $-1 $404 -78.740157480314508 $405 98.425196850393988 $250 $406 forward 7 unknown #
coedge $-1 $403 $143 $407 $408 reversed $58 $-1 #
coedge $-1 $409 $410 $143 $254 forward $393 $-1 #
edge $-1 $411 -78.740157480314991 $259 0 $143 $412 forward 7 unknown #
coedge $-1 $401 $413 $144 $256 forward $414 $-1 #
edge $-1 $260 -78.740157480315006 $404 -39.370078740156998 $144 $415 forward 7 unknown #
coedge $-1 $416 $145 $413 $417 forward $245 $-1 #
coedge $-1 $145 $416 $409 $418 forward $245 $-1 #
vertex $-1 $146 $419 #
vertex $-1 $146 $420 #
straight-curve $-1 -59.055118110236201 0 157.48031496063001 0 1 0 I I #
edge $421 $267 -39.370078740156998 $164 39.370078740158021 $147 $422 forward 7 unknown #
coedge $-1 $423 $148 $151 $272 reversed $265 $-1 #
coedge $-1 $148 $423 $279 $424 forward $265 $-1 #
loop $-1 $-1 $148 $425 #
attrib_edge_convexity-kcp-attrib $-1 $426 $-1 $149 1 #
vertex $-1 $149 $427 #
straight-curve $-1 0 374.015748031496 157.48031496063001 -1 0 0 I I #
attrib_edge_convexity-kcp-attrib $-1 $428 $-1 $150 2 #
straight-curve $-1 0 295.27559055118098 157.48031496063001 1 0 0 I I #
coedge $-1 $151 $429 $430 $431 forward $152 $-1 #
edge $-1 $432 0 $155 157.48031496063001 $263 $433 forward 7 unknown #
face $434 $-1 $152 $9 $-1 $435 forward single #
convexity-sys-attrib $-1 $-1 $153 $91 #
point $-1 137.795275590551 295.27559055118098 157.48031496063001 #
point $-1 137.795275590551 374.015748031496 157.48031496063001 #
coedge $-1 $436 $157 $437 $438 reversed $152 $-1 #
convexity-sys-attrib $-1 $-1 $158 $94 #
coedge $-1 $439 $160 $264 $424 reversed $162 $-1 #
coedge $-1 $161 $440 $441 $442 forward $162 $-1 #
face $443 $425 $162 $9 $-1 $444 forward single #
convexity-sys-attrib $-1 $-1 $163 $96 #
point $-1 -137.795275590551 295.27559055118098 157.48031496063001 #
coedge $-1 $441 $437 $166 $285 reversed $445 $-1 #
edge $-1 $287 -137.795275590551 $289 137.795275590551 $284 $446 forward 7 unknown #
attrib_edge_convexity-kcp-attrib $-1 $447 $-1 $167 1 #
vertex $-1 $442 $448 #
straight-curve $-1 -137.795275590551 78.740157480315006 236.220472440945 0 1 0 I I #
vertex $-1 $438 $449 #
straight-curve $-1 137.795275590551 78.740157480315006 236.220472440945 0 -1 0 I I #
model_id-kcp-attrib $-1 $-1 $-1 $169 1 987434363 187 -1178927103 18 #
face $450 $281 $451 $9 $-1 $452 forward single #
plane-surface $-1 0 78.740157480315006 236.220472440945 0 0 1 1 0 0 forward_v I I I I #
model_id-kcp-attrib $-1 $-1 $-1 $174 1 987434363 203 -1177878526 7 #
face $453 $-1 $189 $23 $-1 $454 reversed single #
loop $-1 $-1 $311 $174 #
plane-surface $-1 0 295.27559055118098 0 0 -1 0 0 0 -1 forward_v I I I I #
coedge $-1 $455 $309 $312 $456 forward $175 $-1 #
coedge $-1 $315 $177 $178 $303 reversed $107 $-1 #
coedge $-1 $309 $455 $177 $301 reversed $175 $-1 #
edge $-1 $316 -118.1102362204725 $457 118.1102362204725 $300 $458 forward 7 unknown #
coedge $-1 $179 $178 $455 $459 forward $68 $-1 #
edge $-1 $307 -137.795275590551 $457 137.795275590551 $299 $460 forward 7 unknown #
coedge $-1 $312 $311 $179 $305 reversed $296 $-1 #
edge $-1 $461 -137.795275590551 $306 137.795275590551 $304 $462 forward 7 unknown #
vertex $-1 $181 $463 #
vertex $-1 $318 $464 #
straight-curve $-1 137.795275590551 0 -118.1102362204725 0 -1 0 I I #
coedge $-1 $298 $300 $182 $310 reversed $175 $-1 #
edge $-1 $313 -295.27559055118098 $316 295.27559055118098 $309 $465 forward 7 unknown #
coedge $-1 $304 $183 $188 $319 forward $296 $-1 #
coedge $-1 $183 $304 $298 $456 reversed $296 $-1 #
vertex $-1 $184 $466 #
straight-curve $-1 0 295.27559055118098 118.1102362204725 -1 0 0 I I #
coedge $-1 $185 $299 $187 $318 reversed $107 $-1 #
vertex $-1 $310 $467 #
straight-curve $-1 0 -295.27559055118098 118.1102362204725 1 0 0 I I #
edge $-1 $190 -118.1102362204725 $307 118.1102362204725 $187 $468 forward 7 unknown #
edge $-1 $191 -118.1102362204725 $306 118.1102362204725 $188 $469 forward 7 unknown #
point $-1 137.795275590551 -295.27559055118098 118.1102362204725 #
point $-1 137.795275590551 295.27559055118098 118.1102362204725 #
face $-1 $-1 $335 $25 $-1 $470 reversed single #
loop $-1 $-1 $471 $193 #
plane-surface $-1 0 0 -693.1817662070473 0 0 1 1 0 0 forward_v I I I I #
coedge $-1 $202 $472 $204 $339 reversed $194 $-1 #
coedge $-1 $197 $196 $473 $474 forward $72 $-1 #
coedge $-1 $200 $475 $196 $328 reversed $335 $-1 #
edge $-1 $331 287.53576499328739 $476 366.27592247360241 $327 $477 forward 7 unknown #
coedge $-1 $472 $202 $197 $330 reversed $194 $-1 #
edge $-1 $478 -366.27592247360241 $332 -287.53576499328739 $329 $479 forward 7 unknown #
vertex $-1 $201 $480 #
vertex $-1 $203 $481 #
straight-curve $-1 -137.795275590551 39.37007874015751 -614.44160872673228 0 -1 1.2445518749876656e-030 I I #
coedge $-1 $475 $200 $205 $340 reversed $335 $-1 #
loop $-1 $-1 $334 $322 #
straight-curve $-1 -9.7538833700419795e-031 39.370078740157503 -614.44160872673228 -1 0 3.1748772321113875e-033 I I #
straight-curve $-1 -9.7538833700419795e-031 -39.370078740157503 -614.44160872673228 1 0 -3.1748772321113875e-033 I I #
coedge $-1 $205 $204 $471 $482 forward $115 $-1 #
edge $-1 $206 287.53576499328739 $483 366.27592247360241 $325 $484 forward 7 unknown #
edge $-1 $485 -366.27592247360241 $207 -287.53576499328739 $334 $486 forward 7 unknown #
point $-1 137.795275590551 -39.370078740157496 -614.44160872673228 #
point $-1 137.795275590551 39.370078740157503 -614.44160872673228 #
face $-1 $-1 $358 $27 $-1 $487 reversed single #
loop $-1 $-1 $360 $209 #
plane-surface $-1 59.055118110236201 0 0 -1 0 0 0 0 1 forward_v I I I I #
coedge $-1 $488 $489 $347 $490 reversed $210 $-1 #
coedge $-1 $212 $221 $346 $490 forward $123 $-1 #
coedge $-1 $491 $217 $212 $349 reversed $358 $-1 #
edge $-1 $492 -673.49672683696872 $223 -634.12664809681075 $348 $493 forward 7 unknown #
coedge $-1 $214 $213 $494 $495 forward $76 $-1 #
coedge $-1 $217 $491 $213 $352 reversed $358 $-1 #
edge $-1 $355 307.22080436336586 $496 346.59088310352382 $351 $497 forward 7 unknown #
coedge $-1 $498 $219 $214 $354 reversed $344 $-1 #
edge $-1 $499 -346.59088310352382 $356 -307.22080436336586 $353 $500 forward 7 unknown #
vertex $-1 $218 $501 #
vertex $-1 $220 $502 #
straight-curve $-1 1.2918958832001828e-016 -88.582677165354255 -653.81168746688934 1 0 0 I I #
loop $-1 $-1 $348 $343 #
straight-curve $-1 -59.055118110236201 0 -653.81168746688934 0 -1 0 I I #
coedge $-1 $219 $498 $221 $362 reversed $344 $-1 #
straight-curve $-1 59.055118110236201 0 -653.81168746688934 0 1 0 I I #
edge $-1 $224 634.12664809681075 $503 673.49672683696872 $360 $504 forward 7 unknown #
point $-1 -59.055118110236201 88.582677165354227 -653.81168746688923 #
point $-1 59.055118110236201 88.582677165354227 -653.81168746688923 #
face $-1 $505 $506 $29 $-1 $507 forward single #
loop $-1 $-1 $508 $226 #
plane-surface $-1 -137.795275590551 -196.85039370078701 39.37007874015751 -1 0 0 0 0 1 forward_v I I I I #
coedge $-1 $509 $510 $511 $512 forward $227 $-1 #
coedge $-1 $513 $229 $510 $514 reversed $131 $-1 #
coedge $-1 $229 $513 $230 $374 forward $131 $-1 #
coedge $-1 $232 $511 $229 $372 reversed $239 $-1 #
edge $-1 $375 -132.87401574803147 $515 -34.448818897637494 $229 $516 forward 7 unknown #
coedge $-1 $231 $230 $517 $518 reversed $80 $-1 #
edge $-1 $519 0 $375 78.740157480314991 $370 $520 forward 7 unknown #
vertex $-1 $374 $521 #
straight-curve $-1 0 -295.27559055118098 118.1102362204725 -1 0 0 I I #
coedge $-1 $517 $522 $234 $378 forward $523 $-1 #
edge $524 $384 34.448818897637494 $379 132.87401574803147 $234 $525 forward 7 unknown #
vertex $-1 $378 $526 #
straight-curve $-1 59.055118110236208 -295.27559055118098 39.370078740157538 0 0 1 I I #
coedge $-1 $527 $236 $522 $528 reversed $383 $-1 #
coedge $-1 $236 $527 $238 $387 forward $383 $-1 #
loop $-1 $-1 $382 $529 #
vertex $-1 $528 $530 #
straight-curve $-1 59.055118110236208 -196.85039370078701 39.37007874015751 0 0 1 I I #
coedge $-1 $531 $238 $532 $533 reversed $239 $-1 #
edge $-1 $534 -137.795275590551 $240 -59.055118110236208 $382 $535 forward 7 unknown #
face $-1 $536 $239 $29 $-1 $537 forward single #
point $-1 59.055118110236208 -196.85039370078701 118.1102362204725 #
point $-1 59.055118110236208 -295.27559055118098 118.11023622047253 #
model_id-kcp-attrib $-1 $-1 $-1 $244 1 987434363 187 -1178927103 8 #
face $538 $539 $540 $9 $-1 $541 forward single #
loop $-1 $-1 $410 $244 #
plane-surface $-1 0 -118.110236220472 157.48031496063001 0 -1 0 0 0 -1 forward_v I I I I #
coedge $-1 $542 $247 $543 $544 forward $140 $-1 #
coedge $-1 $247 $545 $546 $547 reversed $140 $-1 #
coedge $-1 $249 $248 $247 $398 forward $85 $-1 #
edge $-1 $548 -98.425196850393988 $549 78.740157480314508 $397 $550 forward 7 unknown #
coedge $-1 $551 $543 $248 $400 reversed $451 $-1 #
edge $552 $405 -59.055118110236201 $548 59.055118110236201 $248 $553 forward 7 unknown #
coedge $-1 $546 $255 $249 $402 forward $414 $-1 #
edge $-1 $404 -59.055118110236201 $549 59.055118110236201 $249 $554 forward 7 unknown #
coedge $-1 $250 $252 $551 $555 reversed $58 $-1 #
vertex $-1 $251 $556 #
vertex $-1 $555 $557 #
straight-curve $-1 -59.055118110236201 -118.110236220472 118.110236220472 0 -1 0 I I #
coedge $-1 $558 $559 $252 $408 forward $540 $-1 #
edge $560 $561 -98.425196850393988 $411 0 $252 $562 forward 7 unknown #
coedge $-1 $563 $253 $258 $418 reversed $393 $-1 #
coedge $-1 $253 $563 $558 $564 reversed $393 $-1 #
vertex $-1 $254 $565 #
straight-curve $-1 -59.055118110236201 -118.110236220472 157.48031496063001 0 0 -1 I I #
coedge $-1 $255 $566 $257 $417 reversed $414 $-1 #
loop $-1 $-1 $413 $539 #
straight-curve $-1 -59.055118110236201 -39.370078740157503 78.740157480315006 0 0 -1 I I #
coedge $-1 $258 $257 $567 $568 forward $245 $-1 #
edge $-1 $260 59.055118110236201 $569 137.795275590551 $257 $570 forward 7 unknown #
edge $-1 $571 -137.795275590551 $259 -59.055118110236201 $258 $572 forward 7 unknown #
point $-1 -59.055118110236201 -118.110236220472 157.48031496063001 #
point $-1 -59.055118110236201 -39.370078740157503 157.48031496063001 #
attrib_edge_convexity-kcp-attrib $-1 $573 $-1 $262 1 #
straight-curve $-1 -137.795275590551 334.645669291339 157.48031496063001 0 -1 0 I I #
coedge $-1 $264 $263 $574 $575 forward $265 $-1 #
edge $576 $577 0 $267 157.48031496063001 $279 $578 forward 7 unknown #
face $579 $580 $265 $9 $-1 $581 forward single #
convexity-sys-attrib $-1 $-1 $266 $149 #
point $-1 -137.795275590551 374.015748031496 157.48031496063001 #
convexity-sys-attrib $-1 $-1 $269 $150 #
coedge $-1 $271 $582 $583 $584 reversed $152 $-1 #
coedge $-1 $585 $574 $271 $431 reversed $586 $-1 #
edge $-1 $587 -295.27559055118098 $432 295.27559055118098 $430 $588 forward 7 unknown #
vertex $-1 $272 $589 #
straight-curve $-1 137.795275590551 374.015748031496 0 0 0 1 I I #
model_id-kcp-attrib $-1 $-1 $-1 $273 1 987434363 187 -1178927103 23 #
plane-surface $-1 137.795275590551 78.740157480315006 0 1 0 0 0 0 -1 forward_v I I I I #
coedge $-1 $590 $277 $591 $592 reversed $152 $-1 #
coedge $-1 $284 $593 $277 $438 forward $445 $-1 #
edge $-1 $594 0 $289 78.740157480314991 $437 $595 forward 7 unknown #
coedge $-1 $596 $279 $597 $598 forward $162 $-1 #
coedge $-1 $280 $599 $600 $601 reversed $162 $-1 #
coedge $-1 $593 $284 $280 $442 reversed $445 $-1 #
edge $602 $603 0 $287 78.740157480314991 $441 $604 forward 7 unknown #
model_id-kcp-attrib $-1 $-1 $-1 $281 1 987434363 187 -1178927103 20 #
plane-surface $-1 -137.795275590551 78.740157480315006 0 -1 0 0 0 0 1 forward_v I I I I #
loop $-1 $-1 $441 $605 #
straight-curve $-1 0 118.110236220472 236.220472440945 1 0 0 I I #
convexity-sys-attrib $-1 $-1 $286 $167 #
point $-1 -137.795275590551 118.110236220472 236.220472440945 #
point $-1 137.795275590551 118.110236220472 236.220472440945 #
model_id-kcp-attrib $-1 $-1 $-1 $292 1 987434363 187 -1178927103 19 #
loop $-1 $-1 $551 $292 #
plane-surface $-1 0 -216.53543307086599 0 0 -1 0 0 0 -1 forward_v I I I I #
model_id-kcp-attrib $-1 $-1 $-1 $295 1 987434363 203 -1177878526 9 #
plane-surface $-1 137.795275590551 0 0 -1 0 0 0 0 1 forward_v I I I I #
coedge $-1 $300 $298 $302 $459 reversed $175 $-1 #
edge $-1 $313 -118.1102362204725 $461 118.1102362204725 $312 $606 forward 7 unknown #
vertex $-1 $459 $607 #
straight-curve $-1 -137.795275590551 -295.27559055118098 0 0 0 -1 I I #
edge $-1 $457 -295.27559055118098 $461 295.27559055118098 $455 $608 forward 7 unknown #
straight-curve $-1 0 -295.27559055118098 -118.1102362204725 -1 0 0 I I #
vertex $-1 $305 $609 #
straight-curve $-1 0 295.27559055118098 -118.1102362204725 1 0 0 I I #
point $-1 137.795275590551 295.27559055118098 -118.1102362204725 #
point $-1 137.795275590551 -295.27559055118098 -118.1102362204725 #
straight-curve $-1 -137.795275590551 0 118.1102362204725 0 -1 0 I I #
point $-1 -137.795275590551 295.27559055118098 118.1102362204725 #
point $-1 -137.795275590551 -295.27559055118098 118.1102362204725 #
straight-curve $-1 137.795275590551 -295.27559055118098 0 0 0 -1 I I #
straight-curve $-1 137.795275590551 295.27559055118098 0 0 0 -1 I I #
plane-surface $-1 0 39.370078740157503 0 0 -1 0 0 0 -1 forward_v I I I I #
coedge $-1 $610 $611 $338 $482 reversed $323 $-1 #
coedge $-1 $325 $329 $610 $612 reversed $194 $-1 #
coedge $-1 $611 $610 $326 $474 reversed $323 $-1 #
edge $613 $476 0 $478 78.740157480314991 $473 $614 forward 7 unknown #
coedge $-1 $327 $334 $611 $615 reversed $335 $-1 #
vertex $-1 $615 $616 #
straight-curve $-1 -137.795275590551 39.370078740157503 -326.9058437334449 0 0 -1 I I #
vertex $-1 $474 $617 #
straight-curve $-1 -137.795275590551 -39.370078740157496 -326.9058437334449 0 0 1 I I #
point $-1 -137.795275590551 39.370078740157503 -614.44160872673228 #
point $-1 -137.795275590551 -39.370078740157496 -614.44160872673228 #
edge $618 $483 -78.740157480314991 $485 0 $471 $619 forward 7 unknown #
vertex $-1 $612 $620 #
straight-curve $-1 137.795275590551 -39.370078740157496 -326.9058437334449 0 0 -1 I I #
vertex $-1 $482 $621 #
straight-curve $-1 137.795275590551 39.370078740157503 -326.9058437334449 0 0 1 I I #
plane-surface $-1 -59.055118110236201 0 0 1 0 0 0 0 -1 forward_v I I I I #
coedge $-1 $494 $346 $498 $622 forward $210 $-1 #
coedge $-1 $346 $494 $491 $623 forward $210 $-1 #
edge $624 $503 -59.055118110236201 $492 59.055118110236201 $346 $625 forward 7 unknown #
coedge $-1 $351 $348 $489 $623 reversed $358 $-1 #
vertex $-1 $490 $626 #
straight-curve $-1 -59.055118110236201 88.582677165354227 -19.685039370078471 0 0 1 I I #
coedge $-1 $489 $488 $350 $495 reversed $210 $-1 #
edge $627 $496 -59.055118110236201 $499 59.055118110236201 $494 $628 forward 7 unknown #
vertex $-1 $623 $629 #
straight-curve $-1 -59.055118110236201 -88.582677165354255 -346.59088310352337 0 0 -1 I I #
coedge $-1 $360 $353 $488 $622 reversed $344 $-1 #
vertex $-1 $495 $630 #
straight-curve $-1 59.055118110236201 -88.582677165354255 -346.59088310352337 0 0 1 I I #
point $-1 -59.055118110236201 -88.582677165354255 -653.81168746688923 #
point $-1 59.055118110236201 -88.582677165354255 -653.81168746688923 #
vertex $-1 $622 $631 #
straight-curve $-1 59.055118110236201 88.582677165354227 -19.685039370078471 0 0 -1 I I #
face $-1 $529 $632 $29 $-1 $633 forward single #
loop $-1 $-1 $634 $365 #
plane-surface $-1 -137.795275590551 39.370078740156998 39.37007874015751 0 1 0 0 0 1 forward_v I I I I #
coedge $-1 $635 $636 $637 $638 forward $366 $-1 #
coedge $-1 $639 $368 $636 $640 reversed $227 $-1 #
coedge $-1 $368 $639 $369 $514 forward $227 $-1 #
coedge $-1 $371 $637 $368 $512 reversed $239 $-1 #
edge $-1 $515 59.055118110236208 $641 137.795275590551 $368 $642 forward 7 unknown #
coedge $-1 $370 $369 $643 $644 reversed $131 $-1 #
edge $-1 $645 0 $515 78.740157480314991 $510 $646 forward 7 unknown #
vertex $-1 $514 $647 #
straight-curve $-1 -59.055118110236201 -162.40157480314951 118.1102362204725 0 1 0 I I #
coedge $-1 $643 $377 $373 $518 forward $523 $-1 #
edge $648 $379 -59.055118110236201 $519 59.055118110236201 $373 $649 forward 7 unknown #
vertex $-1 $518 $650 #
straight-curve $-1 -59.055118110236208 -295.27559055118098 39.370078740157538 0 0 1 I I #
point $-1 -59.055118110236208 -295.27559055118098 118.11023622047253 #
coedge $-1 $377 $651 $381 $528 forward $523 $-1 #
loop $-1 $-1 $522 $536 #
convexity-sys-attrib $-1 $-1 $-1 $378 #
straight-curve $-1 59.055118110236201 -162.40157480314951 39.37007874015751 0 -1 0 I I #
point $-1 59.055118110236201 -295.27559055118098 39.370078740157538 #
coedge $-1 $382 $381 $652 $653 forward $383 $-1 #
edge $654 $655 -137.795275590551 $384 -59.055118110236201 $381 $656 forward 7 unknown #
face $-1 $388 $383 $29 $-1 $657 forward single #
point $-1 59.055118110236201 -196.85039370078701 39.37007874015751 #
coedge $-1 $637 $386 $634 $658 reversed $239 $-1 #
coedge $-1 $652 $659 $386 $533 forward $632 $-1 #
edge $-1 $660 -103.34645669291299 $534 132.87401574803101 $532 $661 forward 7 unknown #
vertex $-1 $653 $662 #
straight-curve $-1 0 -196.85039370078704 118.1102362204725 -1 0 0 I I #
face $-1 $-1 $523 $29 $-1 $663 reversed single #
plane-surface $-1 8.8817841970012523e-016 -115.25273050546114 118.1102362204725 -4.2037638952963816e-032 -3.0735935608181159e-031 1 1 0 4.2037638952963816e-032 forward_v I I I I #
model_id-kcp-attrib $-1 $-1 $-1 $392 1 987434363 187 -1178927103 9 #
face $664 $665 $414 $9 $-1 $666 reversed single #
loop $-1 $-1 $407 $392 #
plane-surface $-1 0 78.740157480315006 236.220472440945 0 0 1 1 0 0 forward_v I I I I #
coedge $-1 $667 $395 $668 $669 reversed $140 $-1 #
coedge $-1 $399 $670 $395 $544 reversed $451 $-1 #
edge $671 $548 0 $672 118.110236220473 $395 $673 forward 7 unknown #
coedge $-1 $396 $667 $674 $675 reversed $140 $-1 #
coedge $-1 $676 $401 $396 $547 forward $414 $-1 #
edge $-1 $549 39.370078740156998 $677 78.740157480315006 $396 $678 forward 7 unknown #
vertex $-1 $400 $679 #
vertex $-1 $398 $680 #
straight-curve $-1 59.055118110236201 -118.110236220472 118.110236220472 0 1 0 I I #
coedge $-1 $681 $399 $403 $555 forward $451 $-1 #
attrib_edge_convexity-kcp-attrib $-1 $682 $-1 $400 1 #
straight-curve $-1 0 -216.53543307086599 118.110236220472 1 0 0 I I #
straight-curve $-1 0 -39.370078740157503 118.110236220472 1 0 0 I I #
edge $683 $405 0 $561 118.110236220473 $403 $684 forward 7 unknown #
point $-1 -59.055118110236201 -39.370078740157503 118.110236220472 #
point $-1 -59.055118110236201 -216.53543307086599 118.110236220472 #
coedge $-1 $685 $407 $410 $564 forward $540 $-1 #
coedge $-1 $407 $685 $681 $686 reversed $540 $-1 #
attrib_edge_convexity-kcp-attrib $-1 $687 $-1 $408 1 #
vertex $-1 $408 $688 #
straight-curve $-1 -59.055118110236201 -118.110236220472 236.220472440945 0 1 0 I I #
coedge $-1 $410 $409 $689 $690 forward $393 $-1 #
edge $691 $411 59.055118110236201 $692 137.795275590551 $410 $693 forward 7 unknown #
point $-1 -59.055118110236201 -118.110236220472 236.220472440945 #
coedge $-1 $413 $694 $695 $696 forward $414 $-1 #
coedge $-1 $695 $689 $416 $568 reversed $162 $-1 #
edge $697 $569 39.370078740157503 $571 118.110236220472 $416 $698 forward 7 unknown #
vertex $-1 $417 $699 #
straight-curve $-1 0 -39.370078740157503 157.48031496063001 -1 0 0 I I #
vertex $-1 $418 $700 #
straight-curve $-1 0 -118.110236220472 157.48031496063001 1 0 0 I I #
convexity-sys-attrib $-1 $-1 $421 $262 #
coedge $-1 $430 $597 $423 $575 reversed $586 $-1 #
edge $-1 $432 -137.795275590551 $577 137.795275590551 $423 $701 forward 7 unknown #
attrib_edge_convexity-kcp-attrib $-1 $702 $-1 $424 1 #
vertex $-1 $424 $703 #
straight-curve $-1 -137.795275590551 374.015748031496 0 0 0 1 I I #
model_id-kcp-attrib $-1 $-1 $-1 $425 1 987434363 187 -1178927103 21 #
face $704 $273 $586 $9 $-1 $705 forward single #
plane-surface $-1 0 374.015748031496 0 0 1 0 0 0 1 forward_v I I I I #
coedge $-1 $429 $706 $707 $708 forward $152 $-1 #
coedge $-1 $670 $709 $429 $584 forward $451 $-1 #
edge $710 $587 0 $711 236.220472440945 $583 $712 forward 7 unknown #
coedge $-1 $597 $430 $709 $713 reversed $586 $-1 #
loop $-1 $-1 $430 $580 #
vertex $-1 $713 $714 #
straight-curve $-1 137.795275590551 78.740157480315006 0 0 1 0 I I #
point $-1 137.795275590551 374.015748031496 0 #
coedge $-1 $715 $436 $716 $717 reversed $152 $-1 #
coedge $-1 $718 $719 $436 $592 forward $720 $-1 #
edge $-1 $721 39.370078740157503 $594 118.110236220472 $591 $722 forward 7 unknown #
coedge $-1 $437 $441 $718 $723 reversed $445 $-1 #
vertex $-1 $723 $724 #
straight-curve $-1 137.795275590551 118.110236220472 157.48031496063001 0 0 1 I I #
coedge $-1 $725 $439 $726 $727 forward $162 $-1 #
coedge $-1 $574 $585 $439 $598 reversed $586 $-1 #
edge $728 $577 -295.27559055118098 $729 295.27559055118098 $439 $730 forward 7 unknown #
coedge $-1 $440 $731 $732 $733 forward $162 $-1 #
coedge $-1 $719 $718 $440 $601 forward $720 $-1 #
edge $734 $603 -118.110236220472 $735 -39.370078740157503 $600 $736 forward 7 unknown #
attrib_edge_convexity-kcp-attrib $-1 $737 $-1 $442 1 #
vertex $-1 $442 $738 #
straight-curve $-1 -137.795275590551 118.110236220472 157.48031496063001 0 0 1 I I #
face $739 $740 $445 $9 $-1 $741 reversed single #
straight-curve $-1 -137.795275590551 295.27559055118098 0 0 0 -1 I I #
point $-1 -137.795275590551 -295.27559055118098 -118.1102362204725 #
straight-curve $-1 -137.795275590551 0 -118.1102362204725 0 1 0 I I #
point $-1 -137.795275590551 295.27559055118098 -118.1102362204725 #
coedge $-1 $473 $471 $472 $612 forward $323 $-1 #
coedge $-1 $471 $473 $475 $615 forward $323 $-1 #
edge $742 $483 -137.795275590551 $478 137.795275590551 $472 $743 forward 7 unknown #
convexity-sys-attrib $-1 $-1 $-1 $474 #
straight-curve $-1 -137.795275590551 39.370078740157503 -693.1817662070473 0 -1 0 I I #
edge $744 $476 -137.795275590551 $485 137.795275590551 $475 $745 forward 7 unknown #
point $-1 -137.795275590551 39.370078740157503 -693.1817662070473 #
point $-1 -137.795275590551 -39.370078740157496 -693.1817662070473 #
convexity-sys-attrib $-1 $-1 $-1 $482 #
straight-curve $-1 137.795275590551 39.370078740157503 -693.1817662070473 0 1 0 I I #
point $-1 137.795275590551 -39.370078740157496 -693.1817662070473 #
point $-1 137.795275590551 39.370078740157503 -693.1817662070473 #
edge $746 $503 -88.582677165354227 $499 88.582677165354255 $498 $747 forward 7 unknown #
edge $748 $496 -88.582677165354255 $492 88.582677165354227 $491 $749 forward 7 unknown #
convexity-sys-attrib $-1 $-1 $-1 $490 #
straight-curve $-1 0 88.582677165354227 -693.1817662070473 -1 0 0 I I #
point $-1 -59.055118110236201 88.582677165354227 -693.18176620704719 #
convexity-sys-attrib $-1 $-1 $-1 $495 #
straight-curve $-1 0 -88.582677165354255 -693.1817662070473 1 0 0 I I #
point $-1 -59.055118110236201 -88.582677165354255 -693.18176620704719 #
point $-1 59.055118110236201 -88.582677165354255 -693.18176620704719 #
point $-1 59.055118110236201 88.582677165354227 -693.18176620704719 #
loop $-1 $-1 $532 $505 #
plane-surface $-1 137.795275590551 39.370078740156998 39.37007874015751 1 0 0 0 0 -1 forward_v I I I I #
coedge $-1 $750 $751 $531 $658 forward $506 $-1 #
coedge $-1 $752 $508 $751 $753 reversed $366 $-1 #
coedge $-1 $508 $752 $509 $640 forward $366 $-1 #
coedge $-1 $511 $531 $508 $638 reversed $239 $-1 #
edge $-1 $641 -132.87401574803101 $754 103.34645669291299 $508 $755 forward 7 unknown #
coedge $-1 $510 $509 $756 $757 reversed $227 $-1 #
edge $-1 $758 0 $641 78.740157480314991 $636 $759 forward 7 unknown #
vertex $-1 $640 $760 #
straight-curve $-1 0 -196.85039370078704 118.1102362204725 -1 0 0 I I #
coedge $-1 $756 $517 $513 $644 forward $523 $-1 #
edge $761 $519 -132.87401574803147 $645 -34.448818897637494 $513 $762 forward 7 unknown #
vertex $-1 $644 $763 #
straight-curve $-1 -59.055118110236208 -196.85039370078701 39.37007874015751 0 0 1 I I #
point $-1 -59.055118110236208 -196.85039370078701 118.1102362204725 #
convexity-sys-attrib $-1 $-1 $-1 $518 #
straight-curve $-1 0 -295.27559055118098 39.37007874015751 -1 0 0 I I #
point $-1 -59.055118110236201 -295.27559055118098 39.370078740157538 #
coedge $-1 $522 $764 $765 $766 forward $523 $-1 #
coedge $-1 $765 $532 $527 $653 reversed $632 $-1 #
edge $-1 $655 0 $534 78.740157480314991 $527 $767 forward 7 unknown #
convexity-sys-attrib $-1 $-1 $-1 $528 #
vertex $-1 $528 $768 #
straight-curve $-1 0 -196.85039370078704 39.37007874015751 -1 0 0 I I #
plane-surface $-1 137.795275590551 -196.85039370078701 39.37007874015751 0 -1 0 0 0 -1 forward_v I I I I #
edge $-1 $754 -137.795275590551 $660 137.795275590551 $634 $769 forward 7 unknown #
coedge $-1 $532 $765 $750 $770 forward $632 $-1 #
vertex $-1 $770 $771 #
straight-curve $-1 137.795275590551 -63.976377952755996 118.1102362204725 0 -1 0 I I #
point $-1 137.795275590551 -196.85039370078701 118.1102362204725 #
plane-surface $-1 8.8817841970012523e-016 -115.25273050546114 39.37007874015751 -4.2037638952963816e-032 -3.0735935608181159e-031 1 1 0 4.2037638952963816e-032 forward_v I I I I #
model_id-kcp-attrib $-1 $-1 $-1 $539 1 987434363 187 -1178927103 10 #
face $772 $773 $774 $9 $-1 $775 reversed single #
plane-surface $-1 0 -39.370078740157503 78.740157480315006 0 -1 0 0 0 -1 forward_v I I I I #
coedge $-1 $545 $542 $776 $777 reversed $140 $-1 #
coedge $-1 $778 $779 $542 $669 forward $780 $-1 #
edge $-1 $781 0 $672 98.425196850393988 $542 $782 forward 7 unknown #
coedge $-1 $543 $583 $778 $783 forward $451 $-1 #
attrib_edge_convexity-kcp-attrib $-1 $784 $-1 $544 1 #
vertex $-1 $544 $785 #
straight-curve $-1 59.055118110236201 -216.53543307086599 118.110236220472 0 0 1 I I #
coedge $-1 $786 $787 $545 $675 forward $788 $-1 #
edge $-1 $677 39.370078740157503 $789 118.110236220472 $545 $790 forward 7 unknown #
coedge $-1 $791 $546 $787 $792 reversed $414 $-1 #
vertex $-1 $675 $793 #
straight-curve $-1 59.055118110236201 -39.370078740157503 78.740157480315006 0 0 1 I I #
point $-1 59.055118110236201 -216.53543307086599 118.110236220472 #
point $-1 59.055118110236201 -39.370078740157503 118.110236220472 #
coedge $-1 $726 $551 $559 $686 forward $451 $-1 #
convexity-sys-attrib $-1 $-1 $552 $400 #
attrib_edge_convexity-kcp-attrib $-1 $794 $-1 $555 1 #
straight-curve $-1 -59.055118110236201 -216.53543307086599 118.110236220472 0 0 1 I I #
coedge $-1 $559 $558 $725 $795 reversed $540 $-1 #
edge $796 $561 59.055118110236201 $797 137.795275590551 $559 $798 forward 7 unknown #
convexity-sys-attrib $-1 $-1 $560 $408 #
point $-1 -59.055118110236201 -216.53543307086599 236.220472440945 #
coedge $-1 $567 $725 $563 $690 reversed $162 $-1 #
edge $799 $571 0 $692 78.740157480314991 $563 $800 forward 7 unknown #
attrib_edge_convexity-kcp-attrib $-1 $801 $-1 $564 1 #
vertex $-1 $564 $802 #
straight-curve $-1 0 -118.110236220472 236.220472440945 -1 0 0 I I #
coedge $-1 $566 $791 $803 $804 reversed $414 $-1 #
coedge $-1 $731 $567 $566 $696 reversed $162 $-1 #
edge $805 $806 0 $569 78.740157480315006 $566 $807 forward 7 unknown #
attrib_edge_convexity-kcp-attrib $-1 $808 $-1 $568 1 #
straight-curve $-1 -137.795275590551 0 157.48031496063001 0 -1 0 I I #
point $-1 -137.795275590551 -39.370078740157503 157.48031496063001 #
point $-1 -137.795275590551 -118.110236220472 157.48031496063001 #
straight-curve $-1 0 374.015748031496 0 -1 0 0 I I #
convexity-sys-attrib $-1 $-1 $576 $424 #
point $-1 -137.795275590551 374.015748031496 0 #
model_id-kcp-attrib $-1 $-1 $-1 $580 1 987434363 187 -1178927103 22 #
plane-surface $-1 0 78.740157480315006 0 0 0 -1 -1 0 0 forward_v I I I I #
coedge $-1 $582 $809 $810 $811 forward $152 $-1 #
coedge $-1 $779 $778 $582 $708 reversed $780 $-1 #
edge $-1 $812 196.85039370078701 $711 295.27559055118098 $707 $813 forward 7 unknown #
coedge $-1 $583 $726 $585 $713 forward $451 $-1 #
attrib_edge_convexity-kcp-attrib $-1 $814 $-1 $584 1 #
vertex $-1 $783 $815 #
straight-curve $-1 137.795275590551 -216.53543307086599 0 0 0 1 I I #
edge $816 $729 -137.795275590551 $587 137.795275590551 $709 $817 forward 7 unknown #
point $-1 137.795275590551 -216.53543307086599 0 #
coedge $-1 $818 $590 $819 $820 reversed $152 $-1 #
coedge $-1 $821 $822 $590 $717 forward $774 $-1 #
edge $-1 $823 0 $721 78.740157480315006 $716 $824 forward 7 unknown #
coedge $-1 $600 $591 $593 $723 forward $720 $-1 #
coedge $-1 $591 $600 $821 $825 forward $720 $-1 #
loop $-1 $-1 $600 $740 #
vertex $-1 $717 $826 #
straight-curve $-1 137.795275590551 0 157.48031496063001 0 1 0 I I #
edge $-1 $594 -137.795275590551 $603 137.795275590551 $593 $827 forward 7 unknown #
point $-1 137.795275590551 118.110236220472 157.48031496063001 #
coedge $-1 $689 $596 $685 $795 forward $162 $-1 #
coedge $-1 $709 $681 $596 $727 reversed $451 $-1 #
edge $828 $729 0 $797 236.220472440945 $726 $829 forward 7 unknown #
attrib_edge_convexity-kcp-attrib $-1 $830 $-1 $598 1 #
vertex $-1 $727 $831 #
straight-curve $-1 -137.795275590551 78.740157480315006 0 0 -1 0 I I #
coedge $-1 $599 $695 $832 $833 reversed $162 $-1 #
coedge $-1 $822 $821 $599 $733 reversed $774 $-1 #
edge $834 $835 0 $735 78.740157480315006 $732 $836 forward 7 unknown #
attrib_edge_convexity-kcp-attrib $-1 $837 $-1 $601 1 #
vertex $-1 $733 $838 #
straight-curve $-1 -137.795275590551 0 157.48031496063001 0 -1 0 I I #
convexity-sys-attrib $-1 $-1 $602 $442 #
point $-1 -137.795275590551 118.110236220472 157.48031496063001 #
model_id-kcp-attrib $-1 $-1 $-1 $605 1 987434363 187 -1178927103 15 #
face $839 $840 $720 $9 $-1 $841 reversed single #
plane-surface $-1 0 118.110236220472 157.48031496063001 0 1 0 0 0 1 forward_v I I I I #
convexity-sys-attrib $-1 $-1 $-1 $612 #
straight-curve $-1 0 -39.370078740157503 -693.1817662070473 -1 0 0 I I #
convexity-sys-attrib $-1 $-1 $-1 $615 #
straight-curve $-1 0 39.370078740157503 -693.1817662070473 1 0 0 I I #
convexity-sys-attrib $-1 $-1 $-1 $622 #
straight-curve $-1 59.055118110236201 0 -693.1817662070473 0 -1 0 I I #
convexity-sys-attrib $-1 $-1 $-1 $623 #
straight-curve $-1 -59.055118110236201 0 -693.1817662070473 0 1 0 I I #
coedge $-1 $842 $634 $659 $770 reversed $506 $-1 #
coedge $-1 $634 $842 $635 $753 forward $506 $-1 #
coedge $-1 $636 $635 $843 $844 reversed $366 $-1 #
edge $-1 $845 0 $754 78.740157480314991 $751 $846 forward 7 unknown #
vertex $-1 $753 $847 #
straight-curve $-1 -137.795275590551 -63.976377952755996 118.1102362204725 0 1 0 I I #
coedge $-1 $843 $643 $639 $757 forward $523 $-1 #
edge $848 $645 59.055118110236201 $758 137.795275590551 $639 $849 forward 7 unknown #
vertex $-1 $757 $850 #
straight-curve $-1 -137.795275590551 -196.85039370078701 39.37007874015751 0 0 1 I I #
point $-1 -137.795275590551 -196.85039370078701 118.1102362204725 #
convexity-sys-attrib $-1 $-1 $-1 $644 #
straight-curve $-1 -59.055118110236201 -162.40157480314951 39.37007874015751 0 1 0 I I #
point $-1 -59.055118110236201 -196.85039370078701 39.37007874015751 #
coedge $-1 $651 $843 $842 $851 forward $523 $-1 #
coedge $-1 $659 $652 $651 $766 reversed $632 $-1 #
edge $852 $853 -103.34645669291299 $655 132.87401574803101 $765 $854 forward 7 unknown #
straight-curve $-1 137.795275590551 -196.85039370078701 39.37007874015751 0 0 1 I I #
point $-1 137.795275590551 -196.85039370078701 39.37007874015751 #
straight-curve $-1 0 39.370078740156998 118.1102362204725 1 0 0 I I #
edge $-1 $853 0 $660 78.740157480314991 $659 $855 forward 7 unknown #
point $-1 137.795275590551 39.370078740156998 118.1102362204725 #
model_id-kcp-attrib $-1 $-1 $-1 $665 1 987434363 187 -1178927103 11 #
face $856 $857 $858 $9 $-1 $859 reversed single #
loop $-1 $-1 $732 $665 #
plane-surface $-1 0 39.370078740157503 78.740157480315006 0 1 0 0 0 1 forward_v I I I I #
coedge $-1 $860 $861 $667 $777 forward $862 $-1 #
edge $-1 $789 0 $781 78.740157480314991 $667 $863 forward 7 unknown #
coedge $-1 $707 $668 $670 $783 reversed $780 $-1 #
coedge $-1 $668 $707 $860 $864 forward $780 $-1 #
loop $-1 $-1 $668 $840 #
vertex $-1 $669 $865 #
straight-curve $-1 59.055118110236201 -118.110236220472 236.220472440945 0 -1 0 I I #
edge $866 $711 -137.795275590551 $672 -59.055118110236201 $778 $867 forward 7 unknown #
convexity-sys-attrib $-1 $-1 $671 $544 #
point $-1 59.055118110236201 -216.53543307086599 236.220472440945 #
coedge $-1 $868 $674 $861 $869 forward $788 $-1 #
coedge $-1 $674 $868 $676 $792 forward $788 $-1 #
loop $-1 $-1 $787 $857 #
vertex $-1 $777 $870 #
straight-curve $-1 59.055118110236201 0 157.48031496063001 0 -1 0 I I #
coedge $-1 $694 $676 $818 $871 reversed $414 $-1 #
edge $-1 $872 -137.795275590551 $677 -59.055118110236201 $676 $873 forward 7 unknown #
point $-1 59.055118110236201 -39.370078740157503 157.48031496063001 #
convexity-sys-attrib $-1 $-1 $683 $555 #
edge $874 $797 -295.27559055118098 $692 -196.85039370078701 $685 $875 forward 7 unknown #
attrib_edge_convexity-kcp-attrib $-1 $876 $-1 $686 1 #
vertex $-1 $795 $877 #
straight-curve $-1 0 -216.53543307086599 236.220472440945 -1 0 0 I I #
attrib_edge_convexity-kcp-attrib $-1 $878 $-1 $690 1 #
straight-curve $-1 -137.795275590551 -118.110236220472 157.48031496063001 0 0 1 I I #
convexity-sys-attrib $-1 $-1 $691 $564 #
point $-1 -137.795275590551 -118.110236220472 236.220472440945 #
coedge $-1 $819 $832 $694 $804 forward $858 $-1 #
edge $-1 $806 -137.795275590551 $879 137.795275590551 $694 $880 forward 7 unknown #
attrib_edge_convexity-kcp-attrib $-1 $881 $-1 $696 1 #
vertex $-1 $804 $882 #
straight-curve $-1 -137.795275590551 -39.370078740157503 78.740157480315006 0 0 1 I I #
convexity-sys-attrib $-1 $-1 $697 $568 #
coedge $-1 $706 $818 $868 $883 reversed $152 $-1 #
coedge $-1 $861 $860 $706 $811 reversed $862 $-1 #
edge $-1 $884 0 $812 78.740157480314991 $810 $885 forward 7 unknown #
vertex $-1 $864 $886 #
straight-curve $-1 137.795275590551 78.740157480315006 236.220472440945 0 -1 0 I I #
convexity-sys-attrib $-1 $-1 $710 $584 #
point $-1 137.795275590551 -216.53543307086599 236.220472440945 #
attrib_edge_convexity-kcp-attrib $-1 $887 $-1 $713 1 #
straight-curve $-1 0 -216.53543307086599 0 1 0 0 I I #
coedge $-1 $809 $715 $791 $871 forward $152 $-1 #
coedge $-1 $888 $803 $715 $820 forward $858 $-1 #
edge $-1 $879 -39.370078740157503 $823 39.370078740157503 $819 $889 forward 7 unknown #
coedge $-1 $732 $716 $719 $825 reversed $774 $-1 #
coedge $-1 $716 $732 $888 $890 reversed $774 $-1 #
vertex $-1 $890 $891 #
straight-curve $-1 137.795275590551 39.370078740157503 78.740157480315006 0 0 1 I I #
edge $-1 $735 -137.795275590551 $721 137.795275590551 $821 $892 forward 7 unknown #
point $-1 137.795275590551 39.370078740157503 157.48031496063001 #
straight-curve $-1 0 118.110236220472 157.48031496063001 -1 0 0 I I #
attrib_edge_convexity-kcp-attrib $-1 $893 $-1 $727 1 #
straight-curve $-1 -137.795275590551 -216.53543307086599 0 0 0 1 I I #
convexity-sys-attrib $-1 $-1 $728 $598 #
point $-1 -137.795275590551 -216.53543307086599 0 #
coedge $-1 $803 $888 $731 $833 forward $858 $-1 #
edge $894 $835 -39.370078740157503 $806 39.370078740157503 $832 $895 forward 7 unknown #
attrib_edge_convexity-kcp-attrib $-1 $896 $-1 $733 1 #
vertex $-1 $733 $897 #
straight-curve $-1 -137.795275590551 39.370078740157503 78.740157480315006 0 0 1 I I #
convexity-sys-attrib $-1 $-1 $734 $601 #
point $-1 -137.795275590551 39.370078740157503 157.48031496063001 #
model_id-kcp-attrib $-1 $-1 $-1 $740 1 987434363 187 -1178927103 16 #
face $898 $169 $780 $9 $-1 $899 forward single #
plane-surface $-1 0 0 157.48031496063001 0 0 -1 -1 0 0 forward_v I I I I #
coedge $-1 $751 $750 $764 $851 reversed $506 $-1 #
coedge $-1 $764 $756 $752 $844 forward $523 $-1 #
edge $900 $758 -132.87401574803101 $845 103.34645669291299 $752 $901 forward 7 unknown #
vertex $-1 $844 $902 #
straight-curve $-1 -137.795275590551 39.370078740156998 39.37007874015751 0 0 1 I I #
point $-1 -137.795275590551 39.370078740156998 118.1102362204725 #
convexity-sys-attrib $-1 $-1 $-1 $757 #
straight-curve $-1 0 -196.85039370078704 39.37007874015751 -1 0 0 I I #
point $-1 -137.795275590551 -196.85039370078701 39.37007874015751 #
edge $903 $845 -137.795275590551 $853 137.795275590551 $842 $904 forward 7 unknown #
convexity-sys-attrib $-1 $-1 $-1 $766 #
vertex $-1 $851 $905 #
straight-curve $-1 137.795275590551 -63.976377952755996 39.37007874015751 0 -1 0 I I #
straight-curve $-1 137.795275590551 39.370078740156998 39.37007874015751 0 0 1 I I #
model_id-kcp-attrib $-1 $-1 $-1 $773 1 987434363 187 -1178927103 12 #
face $906 $907 $788 $9 $-1 $908 reversed single #
loop $-1 $-1 $819 $773 #
plane-surface $-1 0 0 78.740157480315006 0 0 -1 -1 0 0 forward_v I I I I #
coedge $-1 $810 $776 $779 $864 reversed $862 $-1 #
coedge $-1 $776 $810 $786 $869 reversed $862 $-1 #
loop $-1 $-1 $861 $907 #
straight-curve $-1 59.055118110236201 -118.110236220472 157.48031496063001 0 0 1 I I #
edge $-1 $812 -137.795275590551 $781 -59.055118110236201 $860 $909 forward 7 unknown #
point $-1 59.055118110236201 -118.110236220472 236.220472440945 #
attrib_edge_convexity-kcp-attrib $-1 $910 $-1 $783 1 #
straight-curve $-1 0 -216.53543307086599 236.220472440945 -1 0 0 I I #
coedge $-1 $787 $786 $809 $883 forward $788 $-1 #
edge $-1 $789 59.055118110236201 $884 137.795275590551 $786 $911 forward 7 unknown #
point $-1 59.055118110236201 -118.110236220472 157.48031496063001 #
edge $-1 $879 0 $872 78.740157480315006 $791 $912 forward 7 unknown #
vertex $-1 $792 $913 #
straight-curve $-1 0 -39.370078740157503 157.48031496063001 -1 0 0 I I #
attrib_edge_convexity-kcp-attrib $-1 $914 $-1 $795 1 #
straight-curve $-1 -137.795275590551 78.740157480315006 236.220472440945 0 1 0 I I #
convexity-sys-attrib $-1 $-1 $796 $686 #
point $-1 -137.795275590551 -216.53543307086599 236.220472440945 #
convexity-sys-attrib $-1 $-1 $799 $690 #
vertex $-1 $871 $915 #
straight-curve $-1 0 -39.370078740157503 78.740157480315006 1 0 0 I I #
convexity-sys-attrib $-1 $-1 $805 $696 #
point $-1 -137.795275590551 -39.370078740157503 78.740157480315006 #
edge $-1 $884 -118.110236220472 $872 -39.370078740157503 $868 $916 forward 7 unknown #
vertex $-1 $869 $917 #
straight-curve $-1 137.795275590551 -118.110236220472 157.48031496063001 0 0 1 I I #
point $-1 137.795275590551 -118.110236220472 236.220472440945 #
convexity-sys-attrib $-1 $-1 $816 $713 #
coedge $-1 $832 $819 $822 $890 forward $858 $-1 #
straight-curve $-1 137.795275590551 0 78.740157480315006 0 1 0 I I #
edge $-1 $823 -137.795275590551 $835 137.795275590551 $822 $918 forward 7 unknown #
point $-1 137.795275590551 39.370078740157503 78.740157480315006 #
straight-curve $-1 0 39.370078740157503 157.48031496063001 1 0 0 I I #
convexity-sys-attrib $-1 $-1 $828 $727 #
attrib_edge_convexity-kcp-attrib $-1 $919 $-1 $833 1 #
straight-curve $-1 -137.795275590551 0 78.740157480315006 0 -1 0 I I #
convexity-sys-attrib $-1 $-1 $834 $733 #
point $-1 -137.795275590551 39.370078740157503 78.740157480315006 #
model_id-kcp-attrib $-1 $-1 $-1 $840 1 987434363 187 -1178927103 17 #
plane-surface $-1 0 78.740157480315006 236.220472440945 0 0 1 1 0 0 forward_v I I I I #
convexity-sys-attrib $-1 $-1 $-1 $844 #
straight-curve $-1 -137.795275590551 -63.976377952755996 39.37007874015751 0 1 0 I I #
point $-1 -137.795275590551 39.370078740156998 39.37007874015751 #
convexity-sys-attrib $-1 $-1 $-1 $851 #
straight-curve $-1 0 39.370078740156998 39.37007874015751 1 0 0 I I #
point $-1 137.795275590551 39.370078740156998 39.37007874015751 #
model_id-kcp-attrib $-1 $-1 $-1 $857 1 987434363 187 -1178927103 13 #
face $920 $605 $862 $9 $-1 $921 reversed single #
plane-surface $-1 0 0 157.48031496063001 0 0 -1 -1 0 0 forward_v I I I I #
straight-curve $-1 0 -118.110236220472 236.220472440945 -1 0 0 I I #
convexity-sys-attrib $-1 $-1 $866 $783 #
straight-curve $-1 0 -118.110236220472 157.48031496063001 1 0 0 I I #
straight-curve $-1 137.795275590551 -39.370078740157503 78.740157480315006 0 0 1 I I #
point $-1 137.795275590551 -39.370078740157503 157.48031496063001 #
convexity-sys-attrib $-1 $-1 $874 $795 #
point $-1 137.795275590551 -39.370078740157503 78.740157480315006 #
straight-curve $-1 137.795275590551 0 157.48031496063001 0 1 0 I I #
point $-1 137.795275590551 -118.110236220472 157.48031496063001 #
straight-curve $-1 0 39.370078740157503 78.740157480315006 -1 0 0 I I #
convexity-sys-attrib $-1 $-1 $894 $833 #
model_id-kcp-attrib $-1 $-1 $-1 $907 1 987434363 187 -1178927103 14 #
plane-surface $-1 0 -118.110236220472 157.48031496063001 0 -1 0 0 0 -1 forward_v I I I I #
End-of-ACIS-data 