600 0 1 0           
99 GICL ACIS Healer - Source: /gicl/data5/repository/Parasolid/NIST/Bill_Regli/joshi3/joshi3.sat - 6 0 18 ACIS 6.0.3 Solaris 24 Sun Apr 14 00:19:20 2002 
1 9.999999999999999547e-07 1.000000000000000036e-10 
body $-1 $1 $-1 $-1 #
lump $-1 $-1 $2 $0 #
shell $-1 $-1 $-1 $3 $-1 $1 #
face $-1 $4 $5 $2 $-1 $6 reversed single #
face $-1 $7 $8 $2 $-1 $9 reversed single #
loop $-1 $-1 $10 $3 #
plane-surface $-1 0 253.5173160716610141 199.2385894401500082 0 -0.7071067811865475727 -0.7071067811865475727 -1 0 -0 forward_v I I I I #
face $-1 $11 $12 $2 $-1 $13 reversed single #
loop $-1 $-1 $14 $4 #
plane-surface $-1 0 334.6456692913390043 157.480314960630011 0 0 -1 -1 0 0 forward_v I I I I #
coedge $-1 $15 $16 $17 $18 forward $5 $-1 #
face $-1 $19 $20 $2 $-1 $21 reversed single #
loop $-1 $-1 $22 $7 #
plane-surface $-1 -59.05511811023620083 -118.1102362204720038 118.1102362204720038 -1 0 0 0 -0 1 forward_v I I I I #
coedge $-1 $23 $24 $25 $26 forward $8 $-1 #
coedge $-1 $27 $10 $28 $29 forward $5 $-1 #
coedge $-1 $10 $27 $30 $31 forward $5 $-1 #
coedge $-1 $32 $33 $10 $18 reversed $34 $-1 #
edge $-1 $35 -137.7952755905510003 $36 137.7952755905510003 $10 $37 forward 7 unknown #
face $-1 $38 $39 $2 $-1 $40 reversed single #
loop $-1 $-1 $41 $11 #
plane-surface $-1 0 -118.1102362204720038 118.1102362204720038 0 0 -1 -1 0 0 forward_v I I I I #
coedge $-1 $42 $43 $44 $45 reversed $12 $-1 #
coedge $-1 $46 $14 $47 $48 forward $8 $-1 #
coedge $-1 $14 $46 $27 $49 forward $8 $-1 #
coedge $-1 $28 $50 $14 $26 reversed $51 $-1 #
edge $-1 $52 -39.37007874015802145 $53 39.37007874015699826 $14 $54 forward 7 unknown #
coedge $-1 $16 $15 $24 $49 reversed $5 $-1 #
coedge $-1 $55 $25 $15 $29 reversed $51 $-1 #
edge $-1 $36 -52.30028050181928023 $52 59.05511811023541924 $15 $56 forward 7 unknown #
coedge $-1 $57 $58 $16 $31 reversed $59 $-1 #
edge $-1 $60 -59.05511811023541924 $35 52.30028050181928023 $16 $61 forward 7 unknown #
coedge $-1 $62 $17 $58 $63 reversed $34 $-1 #
coedge $-1 $17 $62 $55 $64 reversed $34 $-1 #
loop $-1 $-1 $17 $65 #
vertex $-1 $18 $66 #
vertex $-1 $18 $67 #
straight-curve $-1 0 216.5354330708659916 236.2204724409450023 1 0 0 I I #
face $-1 $68 $69 $2 $-1 $70 reversed single #
loop $-1 $-1 $71 $19 #
plane-surface $-1 59.05511811023620083 -118.1102362204720038 118.1102362204720038 1 0 0 0 0 -1 forward_v I I I I #
coedge $-1 $72 $73 $74 $75 forward $20 $-1 #
coedge $-1 $76 $22 $77 $78 reversed $12 $-1 #
coedge $-1 $22 $74 $79 $80 reversed $12 $-1 #
coedge $-1 $81 $82 $22 $45 forward $69 $-1 #
edge $-1 $83 -118.1102362204720038 $84 -39.37007874015750275 $22 $85 forward 7 unknown #
coedge $-1 $24 $23 $57 $86 forward $8 $-1 #
coedge $-1 $87 $88 $23 $48 reversed $89 $-1 #
edge $-1 $53 -137.7952755905510003 $90 137.7952755905510003 $23 $91 forward 7 unknown #
edge $-1 $60 -137.7952755905510003 $52 137.7952755905510003 $27 $92 forward 7 unknown #
coedge $-1 $25 $93 $87 $94 forward $51 $-1 #
loop $-1 $-1 $28 $95 #
vertex $-1 $29 $96 #
vertex $-1 $26 $97 #
straight-curve $-1 137.7952755905510003 334.6456692913390043 157.480314960630011 0 1 0 I I #
coedge $-1 $98 $28 $33 $64 forward $51 $-1 #
straight-curve $-1 137.7952755905510003 253.5173160716610141 199.2385894401500082 0 0.7071067811865480168 -0.7071067811865480168 I I #
coedge $-1 $99 $30 $46 $86 reversed $59 $-1 #
coedge $-1 $30 $100 $32 $63 forward $59 $-1 #
loop $-1 $-1 $30 $101 #
vertex $-1 $49 $102 #
straight-curve $-1 -137.7952755905510003 253.5173160716610141 199.2385894401500082 0 -0.7071067811865480168 0.7071067811865480168 I I #
coedge $-1 $33 $32 $103 $104 forward $34 $-1 #
edge $-1 $105 39.37007874015699826 $35 137.7952755905510003 $32 $106 forward 7 unknown #
edge $-1 $36 -137.7952755905510003 $107 -39.37007874015699826 $33 $108 forward 7 unknown #
face $-1 $109 $34 $2 $-1 $110 forward single #
point $-1 -137.7952755905510003 216.5354330708659916 236.2204724409450023 #
point $-1 137.7952755905510003 216.5354330708659916 236.2204724409450023 #
face $-1 $111 $112 $2 $-1 $113 reversed single #
loop $-1 $-1 $82 $38 #
plane-surface $-1 0 0 157.480314960630011 0 0 -1 -1 0 0 forward_v I I I I #
coedge $-1 $114 $115 $116 $117 reversed $39 $-1 #
coedge $-1 $116 $41 $118 $119 forward $20 $-1 #
coedge $-1 $41 $116 $120 $121 reversed $20 $-1 #
coedge $-1 $43 $122 $41 $75 reversed $12 $-1 #
edge $-1 $123 -78.74015748031450812 $124 98.4251968503939878 $74 $125 forward 7 unknown #
coedge $-1 $122 $42 $126 $127 reversed $12 $-1 #
coedge $-1 $128 $129 $42 $78 forward $112 $-1 #
edge $-1 $130 -78.74015748031499129 $83 0 $42 $131 forward 7 unknown #
coedge $-1 $120 $132 $43 $80 forward $133 $-1 #
edge $-1 $84 -78.7401574803150055 $123 -39.37007874015699826 $43 $134 forward 7 unknown #
coedge $-1 $135 $44 $132 $136 forward $69 $-1 #
coedge $-1 $44 $135 $128 $137 forward $69 $-1 #
vertex $-1 $45 $138 #
vertex $-1 $45 $139 #
straight-curve $-1 -59.05511811023620083 0 157.480314960630011 0 1 0 I I #
edge $-1 $90 -39.37007874015699826 $60 39.37007874015802145 $46 $140 forward 7 unknown #
coedge $-1 $141 $47 $50 $94 reversed $89 $-1 #
coedge $-1 $47 $141 $99 $142 forward $89 $-1 #
loop $-1 $-1 $47 $143 #
vertex $-1 $48 $144 #
straight-curve $-1 0 374.0157480314960026 157.480314960630011 -1 0 0 I I #
straight-curve $-1 0 295.2755905511809829 157.480314960630011 1 0 0 I I #
coedge $-1 $50 $145 $146 $147 forward $51 $-1 #
edge $-1 $148 0 $53 157.480314960630011 $87 $149 forward 7 unknown #
face $-1 $-1 $51 $2 $-1 $150 forward single #
point $-1 137.7952755905510003 295.2755905511809829 157.480314960630011 #
point $-1 137.7952755905510003 374.0157480314960026 157.480314960630011 #
coedge $-1 $151 $55 $152 $153 reversed $51 $-1 #
coedge $-1 $154 $57 $88 $142 reversed $59 $-1 #
coedge $-1 $58 $155 $156 $157 forward $59 $-1 #
face $-1 $143 $59 $2 $-1 $158 forward single #
point $-1 -137.7952755905510003 295.2755905511809829 157.480314960630011 #
coedge $-1 $156 $152 $62 $104 reversed $159 $-1 #
edge $-1 $105 -137.7952755905510003 $107 137.7952755905510003 $103 $160 forward 7 unknown #
vertex $-1 $157 $161 #
straight-curve $-1 -137.7952755905510003 78.7401574803150055 236.2204724409450023 0 1 0 I I #
vertex $-1 $153 $162 #
straight-curve $-1 137.7952755905510003 78.7401574803150055 236.2204724409450023 0 -1 0 I I #
face $-1 $101 $163 $2 $-1 $164 forward single #
plane-surface $-1 0 78.7401574803150055 236.2204724409450023 0 0 1 1 0 0 forward_v I I I I #
face $-1 $165 $166 $2 $-1 $167 forward single #
loop $-1 $-1 $129 $68 #
plane-surface $-1 0 -118.1102362204720038 157.480314960630011 0 -1 0 0 0 -1 forward_v I I I I #
coedge $-1 $168 $71 $169 $170 forward $39 $-1 #
coedge $-1 $71 $171 $172 $173 reversed $39 $-1 #
coedge $-1 $73 $72 $71 $117 forward $20 $-1 #
edge $-1 $174 -98.4251968503939878 $175 78.74015748031450812 $116 $176 forward 7 unknown #
coedge $-1 $177 $169 $72 $119 reversed $163 $-1 #
edge $-1 $124 -59.05511811023620083 $174 59.05511811023620083 $72 $178 forward 7 unknown #
coedge $-1 $172 $79 $73 $121 forward $133 $-1 #
edge $-1 $123 -59.05511811023620083 $175 59.05511811023620083 $73 $179 forward 7 unknown #
coedge $-1 $74 $76 $177 $180 reversed $12 $-1 #
vertex $-1 $75 $181 #
vertex $-1 $180 $182 #
straight-curve $-1 -59.05511811023620083 -118.1102362204720038 118.1102362204720038 0 -1 0 I I #
coedge $-1 $183 $184 $76 $127 forward $166 $-1 #
edge $-1 $185 -98.4251968503939878 $130 0 $76 $186 forward 7 unknown #
coedge $-1 $187 $77 $82 $137 reversed $112 $-1 #
coedge $-1 $77 $187 $183 $188 reversed $112 $-1 #
vertex $-1 $78 $189 #
straight-curve $-1 -59.05511811023620083 -118.1102362204720038 157.480314960630011 0 0 -1 I I #
coedge $-1 $79 $190 $81 $136 reversed $133 $-1 #
loop $-1 $-1 $132 $165 #
straight-curve $-1 -59.05511811023620083 -39.37007874015750275 78.7401574803150055 0 0 -1 I I #
coedge $-1 $82 $81 $191 $192 forward $69 $-1 #
edge $-1 $84 59.05511811023620083 $193 137.7952755905510003 $81 $194 forward 7 unknown #
edge $-1 $195 -137.7952755905510003 $83 -59.05511811023620083 $82 $196 forward 7 unknown #
point $-1 -59.05511811023620083 -118.1102362204720038 157.480314960630011 #
point $-1 -59.05511811023620083 -39.37007874015750275 157.480314960630011 #
straight-curve $-1 -137.7952755905510003 334.6456692913390043 157.480314960630011 0 -1 0 I I #
coedge $-1 $88 $87 $197 $198 forward $89 $-1 #
edge $-1 $199 0 $90 157.480314960630011 $99 $200 forward 7 unknown #
face $-1 $201 $89 $2 $-1 $202 forward single #
point $-1 -137.7952755905510003 374.0157480314960026 157.480314960630011 #
coedge $-1 $93 $203 $204 $205 reversed $51 $-1 #
coedge $-1 $206 $197 $93 $147 reversed $207 $-1 #
edge $-1 $208 -295.2755905511809829 $148 295.2755905511809829 $146 $209 forward 7 unknown #
vertex $-1 $94 $210 #
straight-curve $-1 137.7952755905510003 374.0157480314960026 0 0 0 1 I I #
plane-surface $-1 137.7952755905510003 78.7401574803150055 0 1 0 0 0 0 -1 forward_v I I I I #
coedge $-1 $211 $98 $212 $213 reversed $51 $-1 #
coedge $-1 $103 $214 $98 $153 forward $159 $-1 #
edge $-1 $215 0 $107 78.74015748031499129 $152 $216 forward 7 unknown #
coedge $-1 $217 $99 $218 $219 forward $59 $-1 #
coedge $-1 $100 $220 $221 $222 reversed $59 $-1 #
coedge $-1 $214 $103 $100 $157 reversed $159 $-1 #
edge $-1 $223 0 $105 78.74015748031499129 $156 $224 forward 7 unknown #
plane-surface $-1 -137.7952755905510003 78.7401574803150055 0 -1 0 0 0 -0 1 forward_v I I I I #
loop $-1 $-1 $156 $225 #
straight-curve $-1 0 118.1102362204720038 236.2204724409450023 1 0 0 I I #
point $-1 -137.7952755905510003 118.1102362204720038 236.2204724409450023 #
point $-1 137.7952755905510003 118.1102362204720038 236.2204724409450023 #
loop $-1 $-1 $177 $109 #
plane-surface $-1 0 -216.5354330708659916 0 0 -1 0 0 0 -1 forward_v I I I I #
face $-1 $226 $133 $2 $-1 $227 reversed single #
loop $-1 $-1 $126 $111 #
plane-surface $-1 0 78.7401574803150055 236.2204724409450023 0 0 1 1 0 0 forward_v I I I I #
coedge $-1 $228 $114 $229 $230 reversed $39 $-1 #
coedge $-1 $118 $231 $114 $170 reversed $163 $-1 #
edge $-1 $174 0 $232 118.1102362204729985 $114 $233 forward 7 unknown #
coedge $-1 $115 $228 $234 $235 reversed $39 $-1 #
coedge $-1 $236 $120 $115 $173 forward $133 $-1 #
edge $-1 $175 39.37007874015699826 $237 78.7401574803150055 $115 $238 forward 7 unknown #
vertex $-1 $119 $239 #
vertex $-1 $117 $240 #
straight-curve $-1 59.05511811023620083 -118.1102362204720038 118.1102362204720038 0 1 0 I I #
coedge $-1 $241 $118 $122 $180 forward $163 $-1 #
straight-curve $-1 0 -216.5354330708659916 118.1102362204720038 1 0 0 I I #
straight-curve $-1 0 -39.37007874015750275 118.1102362204720038 1 0 0 I I #
edge $-1 $124 0 $185 118.1102362204729985 $122 $242 forward 7 unknown #
point $-1 -59.05511811023620083 -39.37007874015750275 118.1102362204720038 #
point $-1 -59.05511811023620083 -216.5354330708659916 118.1102362204720038 #
coedge $-1 $243 $126 $129 $188 forward $166 $-1 #
coedge $-1 $126 $243 $241 $244 reversed $166 $-1 #
vertex $-1 $127 $245 #
straight-curve $-1 -59.05511811023620083 -118.1102362204720038 236.2204724409450023 0 1 0 I I #
coedge $-1 $129 $128 $246 $247 forward $112 $-1 #
edge $-1 $130 59.05511811023620083 $248 137.7952755905510003 $129 $249 forward 7 unknown #
point $-1 -59.05511811023620083 -118.1102362204720038 236.2204724409450023 #
coedge $-1 $132 $250 $251 $252 forward $133 $-1 #
coedge $-1 $251 $246 $135 $192 reversed $59 $-1 #
edge $-1 $193 39.37007874015750275 $195 118.1102362204720038 $135 $253 forward 7 unknown #
vertex $-1 $136 $254 #
straight-curve $-1 0 -39.37007874015750275 157.480314960630011 -1 0 0 I I #
vertex $-1 $137 $255 #
straight-curve $-1 0 -118.1102362204720038 157.480314960630011 1 0 0 I I #
coedge $-1 $146 $218 $141 $198 reversed $207 $-1 #
edge $-1 $148 -137.7952755905510003 $199 137.7952755905510003 $141 $256 forward 7 unknown #
vertex $-1 $142 $257 #
straight-curve $-1 -137.7952755905510003 374.0157480314960026 0 0 0 1 I I #
face $-1 $95 $207 $2 $-1 $258 forward single #
plane-surface $-1 0 374.0157480314960026 0 0 1 0 0 0 1 forward_v I I I I #
coedge $-1 $145 $259 $260 $261 forward $51 $-1 #
coedge $-1 $231 $262 $145 $205 forward $163 $-1 #
edge $-1 $208 0 $263 236.2204724409450023 $204 $264 forward 7 unknown #
coedge $-1 $218 $146 $262 $265 reversed $207 $-1 #
loop $-1 $-1 $146 $201 #
vertex $-1 $265 $266 #
straight-curve $-1 137.7952755905510003 78.7401574803150055 0 0 1 0 I I #
point $-1 137.7952755905510003 374.0157480314960026 0 #
coedge $-1 $267 $151 $268 $269 reversed $51 $-1 #
coedge $-1 $270 $271 $151 $213 forward $272 $-1 #
edge $-1 $273 39.37007874015750275 $215 118.1102362204720038 $212 $274 forward 7 unknown #
coedge $-1 $152 $156 $270 $275 reversed $159 $-1 #
vertex $-1 $275 $276 #
straight-curve $-1 137.7952755905510003 118.1102362204720038 157.480314960630011 0 0 1 I I #
coedge $-1 $277 $154 $278 $279 forward $59 $-1 #
coedge $-1 $197 $206 $154 $219 reversed $207 $-1 #
edge $-1 $199 -295.2755905511809829 $280 295.2755905511809829 $154 $281 forward 7 unknown #
coedge $-1 $155 $282 $283 $284 forward $59 $-1 #
coedge $-1 $271 $270 $155 $222 forward $272 $-1 #
edge $-1 $223 -118.1102362204720038 $285 -39.37007874015750275 $221 $286 forward 7 unknown #
vertex $-1 $157 $287 #
straight-curve $-1 -137.7952755905510003 118.1102362204720038 157.480314960630011 0 0 1 I I #
face $-1 $288 $159 $2 $-1 $289 reversed single #
face $-1 $290 $291 $2 $-1 $292 reversed single #
plane-surface $-1 0 -39.37007874015750275 78.7401574803150055 0 -1 0 0 0 -1 forward_v I I I I #
coedge $-1 $171 $168 $293 $294 reversed $39 $-1 #
coedge $-1 $295 $296 $168 $230 forward $297 $-1 #
edge $-1 $298 0 $232 98.4251968503939878 $168 $299 forward 7 unknown #
coedge $-1 $169 $204 $295 $300 forward $163 $-1 #
vertex $-1 $170 $301 #
straight-curve $-1 59.05511811023620083 -216.5354330708659916 118.1102362204720038 0 0 1 I I #
coedge $-1 $302 $303 $171 $235 forward $304 $-1 #
edge $-1 $237 39.37007874015750275 $305 118.1102362204720038 $171 $306 forward 7 unknown #
coedge $-1 $307 $172 $303 $308 reversed $133 $-1 #
vertex $-1 $235 $309 #
straight-curve $-1 59.05511811023620083 -39.37007874015750275 78.7401574803150055 0 0 1 I I #
point $-1 59.05511811023620083 -216.5354330708659916 118.1102362204720038 #
point $-1 59.05511811023620083 -39.37007874015750275 118.1102362204720038 #
coedge $-1 $278 $177 $184 $244 forward $163 $-1 #
straight-curve $-1 -59.05511811023620083 -216.5354330708659916 118.1102362204720038 0 0 1 I I #
coedge $-1 $184 $183 $277 $310 reversed $166 $-1 #
edge $-1 $185 59.05511811023620083 $311 137.7952755905510003 $184 $312 forward 7 unknown #
point $-1 -59.05511811023620083 -216.5354330708659916 236.2204724409450023 #
coedge $-1 $191 $277 $187 $247 reversed $59 $-1 #
edge $-1 $195 0 $248 78.74015748031499129 $187 $313 forward 7 unknown #
vertex $-1 $188 $314 #
straight-curve $-1 0 -118.1102362204720038 236.2204724409450023 -1 0 0 I I #
coedge $-1 $190 $307 $315 $316 reversed $133 $-1 #
coedge $-1 $282 $191 $190 $252 reversed $59 $-1 #
edge $-1 $317 0 $193 78.7401574803150055 $190 $318 forward 7 unknown #
straight-curve $-1 -137.7952755905510003 0 157.480314960630011 0 -1 0 I I #
point $-1 -137.7952755905510003 -39.37007874015750275 157.480314960630011 #
point $-1 -137.7952755905510003 -118.1102362204720038 157.480314960630011 #
straight-curve $-1 0 374.0157480314960026 0 -1 0 0 I I #
point $-1 -137.7952755905510003 374.0157480314960026 0 #
plane-surface $-1 0 78.7401574803150055 0 0 0 -1 -1 0 0 forward_v I I I I #
coedge $-1 $203 $319 $320 $321 forward $51 $-1 #
coedge $-1 $296 $295 $203 $261 reversed $297 $-1 #
edge $-1 $322 196.8503937007870093 $263 295.2755905511809829 $260 $323 forward 7 unknown #
coedge $-1 $204 $278 $206 $265 forward $163 $-1 #
vertex $-1 $300 $324 #
straight-curve $-1 137.7952755905510003 -216.5354330708659916 0 0 0 1 I I #
edge $-1 $280 -137.7952755905510003 $208 137.7952755905510003 $262 $325 forward 7 unknown #
point $-1 137.7952755905510003 -216.5354330708659916 0 #
coedge $-1 $326 $211 $327 $328 reversed $51 $-1 #
coedge $-1 $329 $330 $211 $269 forward $291 $-1 #
edge $-1 $331 0 $273 78.7401574803150055 $268 $332 forward 7 unknown #
coedge $-1 $221 $212 $214 $275 forward $272 $-1 #
coedge $-1 $212 $221 $329 $333 forward $272 $-1 #
loop $-1 $-1 $221 $288 #
vertex $-1 $269 $334 #
straight-curve $-1 137.7952755905510003 0 157.480314960630011 0 1 0 I I #
edge $-1 $215 -137.7952755905510003 $223 137.7952755905510003 $214 $335 forward 7 unknown #
point $-1 137.7952755905510003 118.1102362204720038 157.480314960630011 #
coedge $-1 $246 $217 $243 $310 forward $59 $-1 #
coedge $-1 $262 $241 $217 $279 reversed $163 $-1 #
edge $-1 $280 0 $311 236.2204724409450023 $278 $336 forward 7 unknown #
vertex $-1 $279 $337 #
straight-curve $-1 -137.7952755905510003 78.7401574803150055 0 0 -1 0 I I #
coedge $-1 $220 $251 $338 $339 reversed $59 $-1 #
coedge $-1 $330 $329 $220 $284 reversed $291 $-1 #
edge $-1 $340 0 $285 78.7401574803150055 $283 $341 forward 7 unknown #
vertex $-1 $284 $342 #
straight-curve $-1 -137.7952755905510003 0 157.480314960630011 0 -1 0 I I #
point $-1 -137.7952755905510003 118.1102362204720038 157.480314960630011 #
face $-1 $343 $272 $2 $-1 $344 reversed single #
plane-surface $-1 0 118.1102362204720038 157.480314960630011 0 1 0 0 0 1 forward_v I I I I #
face $-1 $345 $346 $2 $-1 $347 reversed single #
loop $-1 $-1 $283 $226 #
plane-surface $-1 0 39.37007874015750275 78.7401574803150055 0 1 0 0 0 1 forward_v I I I I #
coedge $-1 $348 $349 $228 $294 forward $350 $-1 #
edge $-1 $305 0 $298 78.74015748031499129 $228 $351 forward 7 unknown #
coedge $-1 $260 $229 $231 $300 reversed $297 $-1 #
coedge $-1 $229 $260 $348 $352 forward $297 $-1 #
loop $-1 $-1 $229 $343 #
vertex $-1 $230 $353 #
straight-curve $-1 59.05511811023620083 -118.1102362204720038 236.2204724409450023 0 -1 0 I I #
edge $-1 $263 -137.7952755905510003 $232 -59.05511811023620083 $295 $354 forward 7 unknown #
point $-1 59.05511811023620083 -216.5354330708659916 236.2204724409450023 #
coedge $-1 $355 $234 $349 $356 forward $304 $-1 #
coedge $-1 $234 $355 $236 $308 forward $304 $-1 #
loop $-1 $-1 $303 $345 #
vertex $-1 $294 $357 #
straight-curve $-1 59.05511811023620083 0 157.480314960630011 0 -1 0 I I #
coedge $-1 $250 $236 $326 $358 reversed $133 $-1 #
edge $-1 $359 -137.7952755905510003 $237 -59.05511811023620083 $236 $360 forward 7 unknown #
point $-1 59.05511811023620083 -39.37007874015750275 157.480314960630011 #
edge $-1 $311 -295.2755905511809829 $248 -196.8503937007870093 $243 $361 forward 7 unknown #
vertex $-1 $310 $362 #
straight-curve $-1 0 -216.5354330708659916 236.2204724409450023 -1 0 0 I I #
straight-curve $-1 -137.7952755905510003 -118.1102362204720038 157.480314960630011 0 0 1 I I #
point $-1 -137.7952755905510003 -118.1102362204720038 236.2204724409450023 #
coedge $-1 $327 $338 $250 $316 forward $346 $-1 #
edge $-1 $317 -137.7952755905510003 $363 137.7952755905510003 $250 $364 forward 7 unknown #
vertex $-1 $316 $365 #
straight-curve $-1 -137.7952755905510003 -39.37007874015750275 78.7401574803150055 0 0 1 I I #
coedge $-1 $259 $326 $355 $366 reversed $51 $-1 #
coedge $-1 $349 $348 $259 $321 reversed $350 $-1 #
edge $-1 $367 0 $322 78.74015748031499129 $320 $368 forward 7 unknown #
vertex $-1 $352 $369 #
straight-curve $-1 137.7952755905510003 78.7401574803150055 236.2204724409450023 0 -1 0 I I #
point $-1 137.7952755905510003 -216.5354330708659916 236.2204724409450023 #
straight-curve $-1 0 -216.5354330708659916 0 1 0 0 I I #
coedge $-1 $319 $267 $307 $358 forward $51 $-1 #
coedge $-1 $370 $315 $267 $328 forward $346 $-1 #
edge $-1 $363 -39.37007874015750275 $331 39.37007874015750275 $327 $371 forward 7 unknown #
coedge $-1 $283 $268 $271 $333 reversed $291 $-1 #
coedge $-1 $268 $283 $370 $372 reversed $291 $-1 #
vertex $-1 $372 $373 #
straight-curve $-1 137.7952755905510003 39.37007874015750275 78.7401574803150055 0 0 1 I I #
edge $-1 $285 -137.7952755905510003 $273 137.7952755905510003 $329 $374 forward 7 unknown #
point $-1 137.7952755905510003 39.37007874015750275 157.480314960630011 #
straight-curve $-1 0 118.1102362204720038 157.480314960630011 -1 0 0 I I #
straight-curve $-1 -137.7952755905510003 -216.5354330708659916 0 0 0 1 I I #
point $-1 -137.7952755905510003 -216.5354330708659916 0 #
coedge $-1 $315 $370 $282 $339 forward $346 $-1 #
edge $-1 $340 -39.37007874015750275 $317 39.37007874015750275 $338 $375 forward 7 unknown #
vertex $-1 $284 $376 #
straight-curve $-1 -137.7952755905510003 39.37007874015750275 78.7401574803150055 0 0 1 I I #
point $-1 -137.7952755905510003 39.37007874015750275 157.480314960630011 #
face $-1 $65 $297 $2 $-1 $377 forward single #
plane-surface $-1 0 0 157.480314960630011 0 0 -1 -1 0 0 forward_v I I I I #
face $-1 $378 $304 $2 $-1 $379 reversed single #
loop $-1 $-1 $327 $290 #
plane-surface $-1 0 0 78.7401574803150055 0 0 -1 -1 0 0 forward_v I I I I #
coedge $-1 $320 $293 $296 $352 reversed $350 $-1 #
coedge $-1 $293 $320 $302 $356 reversed $350 $-1 #
loop $-1 $-1 $349 $378 #
straight-curve $-1 59.05511811023620083 -118.1102362204720038 157.480314960630011 0 0 1 I I #
edge $-1 $322 -137.7952755905510003 $298 -59.05511811023620083 $348 $380 forward 7 unknown #
point $-1 59.05511811023620083 -118.1102362204720038 236.2204724409450023 #
straight-curve $-1 0 -216.5354330708659916 236.2204724409450023 -1 0 0 I I #
coedge $-1 $303 $302 $319 $366 forward $304 $-1 #
edge $-1 $305 59.05511811023620083 $367 137.7952755905510003 $302 $381 forward 7 unknown #
point $-1 59.05511811023620083 -118.1102362204720038 157.480314960630011 #
edge $-1 $363 0 $359 78.7401574803150055 $307 $382 forward 7 unknown #
vertex $-1 $308 $383 #
straight-curve $-1 0 -39.37007874015750275 157.480314960630011 -1 0 0 I I #
straight-curve $-1 -137.7952755905510003 78.7401574803150055 236.2204724409450023 0 1 0 I I #
point $-1 -137.7952755905510003 -216.5354330708659916 236.2204724409450023 #
vertex $-1 $358 $384 #
straight-curve $-1 0 -39.37007874015750275 78.7401574803150055 1 0 0 I I #
point $-1 -137.7952755905510003 -39.37007874015750275 78.7401574803150055 #
edge $-1 $367 -118.1102362204720038 $359 -39.37007874015750275 $355 $385 forward 7 unknown #
vertex $-1 $356 $386 #
straight-curve $-1 137.7952755905510003 -118.1102362204720038 157.480314960630011 0 0 1 I I #
point $-1 137.7952755905510003 -118.1102362204720038 236.2204724409450023 #
coedge $-1 $338 $327 $330 $372 forward $346 $-1 #
straight-curve $-1 137.7952755905510003 0 78.7401574803150055 0 1 0 I I #
edge $-1 $331 -137.7952755905510003 $340 137.7952755905510003 $330 $387 forward 7 unknown #
point $-1 137.7952755905510003 39.37007874015750275 78.7401574803150055 #
straight-curve $-1 0 39.37007874015750275 157.480314960630011 1 0 0 I I #
straight-curve $-1 -137.7952755905510003 0 78.7401574803150055 0 -1 0 I I #
point $-1 -137.7952755905510003 39.37007874015750275 78.7401574803150055 #
plane-surface $-1 0 78.7401574803150055 236.2204724409450023 0 0 1 1 0 0 forward_v I I I I #
face $-1 $225 $350 $2 $-1 $388 reversed single #
plane-surface $-1 0 0 157.480314960630011 0 0 -1 -1 0 0 forward_v I I I I #
straight-curve $-1 0 -118.1102362204720038 236.2204724409450023 -1 0 0 I I #
straight-curve $-1 0 -118.1102362204720038 157.480314960630011 1 0 0 I I #
straight-curve $-1 137.7952755905510003 -39.37007874015750275 78.7401574803150055 0 0 1 I I #
point $-1 137.7952755905510003 -39.37007874015750275 157.480314960630011 #
point $-1 137.7952755905510003 -39.37007874015750275 78.7401574803150055 #
straight-curve $-1 137.7952755905510003 0 157.480314960630011 0 1 0 I I #
point $-1 137.7952755905510003 -118.1102362204720038 157.480314960630011 #
straight-curve $-1 0 39.37007874015750275 78.7401574803150055 -1 0 0 I I #
plane-surface $-1 0 -118.1102362204720038 157.480314960630011 0 -1 0 0 0 -1 forward_v I I I I #
End-of-ACIS-data 