600 0 2 0           
24 FBMach with ACIS - 6.0.3 13 ACIS 6.0.3 NT 24 Tue May 22 15:34:10 2001 
1 9.9999999999999995e-007 1e-010 
body $2 $3 $-1 $4 #
bdycol-kcp $-1 1 13 $5 $6 $7 $8 $9 $10 $11 $12 $13 $14 $15 $16 $17 #
model_id-kcp-attrib $-1 $-1 $-1 $0 1 990560049 70 -364511231 1 #
lump $-1 $-1 $18 $0 #
transform $-1 1 0 0 0 1 0 0 0 1 0 0 0 1 no_rotate no_reflect no_shear #
body $19 $20 $-1 $21 #
body $22 $23 $-1 $24 #
body $25 $26 $-1 $27 #
body $28 $29 $-1 $30 #
body $31 $32 $-1 $33 #
body $34 $35 $-1 $36 #
body $37 $38 $-1 $39 #
body $40 $41 $-1 $42 #
body $43 $44 $-1 $45 #
body $46 $47 $-1 $48 #
body $49 $50 $-1 $51 #
body $52 $53 $-1 $54 #
body $55 $56 $-1 $57 #
shell $-1 $-1 $-1 $58 $-1 $3 #
model_id-kcp-attrib $-1 $-1 $-1 $5 1 990560049 70 -364511230 1 #
lump $-1 $-1 $59 $5 #
transform $-1 1 0 0 0 1 0 0 0 1 0 -5.6395 0.75 1 no_rotate no_reflect no_shear #
rgb_color-st-attrib $-1 $60 $-1 $6 0.5 1 1 #
lump $-1 $-1 $61 $6 #
transform $-1 1 0 0 0 -3.8285889215894375e-016 1 0 -1 -3.8285889215894375e-016 -0.62150000000000005 -6.2460000000000004 0.75 1 rotate no_reflect no_shear #
rgb_color-st-attrib $-1 $62 $-1 $7 0.5 1 1 #
lump $-1 $-1 $63 $7 #
transform $-1 1 0 0 0 -3.8285889215894375e-016 1 0 -1 -3.8285889215894375e-016 0 -6.2460000000000004 0.75 1 rotate no_reflect no_shear #
rgb_color-st-attrib $-1 $64 $-1 $8 0.5 1 1 #
lump $-1 $-1 $65 $8 #
transform $-1 1 0 0 0 -3.8285889215894375e-016 1 0 -1 -3.8285889215894375e-016 0.62849999999999995 -6.1259999999999994 0.75000000000000011 1 rotate no_reflect no_shear #
rgb_color-st-attrib $-1 $66 $-1 $9 0.5 1 1 #
lump $-1 $-1 $67 $9 #
transform $-1 1 0 0 0 -3.8285889215894375e-016 1 0 -1 -3.8285889215894375e-016 -0.62150000000000005 -6.1859999999999999 0.34400000000000003 1 rotate no_reflect no_shear #
rgb_color-st-attrib $-1 $68 $-1 $10 0.5 1 1 #
lump $-1 $-1 $69 $10 #
transform $-1 1 0 0 0 -3.8285889215894375e-016 1 0 -1 -3.8285889215894375e-016 -0.62150000000000005 -6.1859999999999999 1.1559999999999999 1 rotate no_reflect no_shear #
rgb_color-st-attrib $-1 $70 $-1 $11 0.5 1 1 #
lump $-1 $-1 $71 $11 #
transform $-1 1 0 0 0 -3.8285889215894375e-016 1 0 -1 -3.8285889215894375e-016 0.62849999999999995 -5.593 0.34400000000000025 1 rotate no_reflect no_shear #
rgb_color-st-attrib $-1 $72 $-1 $12 0.5 1 1 #
lump $-1 $-1 $73 $12 #
transform $-1 1 0 0 0 -3.8285889215894375e-016 1 0 -1 -3.8285889215894375e-016 0.62849999999999995 -5.593 1.1560000000000001 1 rotate no_reflect no_shear #
rgb_color-st-attrib $-1 $74 $-1 $13 0.5 1 1 #
lump $-1 $-1 $75 $13 #
transform $-1 1 0 0 0 -3.8285889215894375e-016 1 0 -1 -3.8285889215894375e-016 0.62849999999999995 -6.1395 0.34400000000000008 1 rotate no_reflect no_shear #
rgb_color-st-attrib $-1 $76 $-1 $14 0.5 1 1 #
lump $-1 $-1 $77 $14 #
transform $-1 1 0 0 0 -3.8285889215894375e-016 1 0 -1 -3.8285889215894375e-016 0.62849999999999995 -6.1395 1.1559999999999999 1 rotate no_reflect no_shear #
rgb_color-st-attrib $-1 $78 $-1 $15 0.5 1 1 #
lump $-1 $-1 $79 $15 #
transform $-1 -3.8285889215894375e-016 0 -1 0 1 0 1 0 -3.8285889215894375e-016 0.17849999999999999 -5.093 0.75 1 rotate no_reflect no_shear #
rgb_color-st-attrib $-1 $80 $-1 $16 1 0.5 1 #
lump $-1 $-1 $81 $16 #
transform $-1 1 0 0 0 1 0 0 0 1 0 -5.6395 0.75 1 no_rotate no_reflect no_shear #
rgb_color-st-attrib $-1 $82 $-1 $17 1 0.5 1 #
lump $-1 $-1 $83 $17 #
transform $-1 1 0 0 0 1 0 0 0 1 0 -5.6395 0.75 1 no_rotate no_reflect no_shear #
face $84 $85 $86 $18 $-1 $87 forward single #
shell $-1 $-1 $-1 $88 $-1 $20 #
model_id-kcp-attrib $-1 $-1 $22 $6 1 990560049 250 -352714749 1 #
shell $-1 $-1 $-1 $89 $-1 $23 #
model_id-kcp-attrib $-1 $-1 $25 $7 1 990560049 250 -352714748 1 #
shell $-1 $-1 $-1 $90 $-1 $26 #
model_id-kcp-attrib $-1 $-1 $28 $8 1 990560049 260 -368836603 1 #
shell $-1 $-1 $-1 $91 $-1 $29 #
model_id-kcp-attrib $-1 $-1 $31 $9 1 990560049 260 -368836602 1 #
shell $-1 $-1 $-1 $92 $-1 $32 #
model_id-kcp-attrib $-1 $-1 $34 $10 1 990560049 260 -368836601 1 #
shell $-1 $-1 $-1 $93 $-1 $35 #
model_id-kcp-attrib $-1 $-1 $37 $11 1 990560049 260 -368836600 1 #
shell $-1 $-1 $-1 $94 $-1 $38 #
model_id-kcp-attrib $-1 $-1 $40 $12 1 990560049 260 -368836599 1 #
shell $-1 $-1 $-1 $95 $-1 $41 #
model_id-kcp-attrib $-1 $-1 $43 $13 1 990560049 270 -368181238 1 #
shell $-1 $-1 $-1 $96 $-1 $44 #
model_id-kcp-attrib $-1 $-1 $46 $14 1 990560049 270 -368181237 1 #
shell $-1 $-1 $-1 $97 $-1 $47 #
model_id-kcp-attrib $-1 $-1 $49 $15 1 990560049 270 -368181236 1 #
shell $-1 $-1 $-1 $98 $-1 $50 #
model_id-kcp-attrib $-1 $-1 $52 $16 1 990560049 610 -362676211 1 #
shell $-1 $-1 $-1 $99 $-1 $53 #
model_id-kcp-attrib $-1 $-1 $55 $17 1 990560049 690 -357433330 1 #
shell $-1 $-1 $-1 $100 $-1 $56 #
model_id-kcp-attrib $-1 $-1 $-1 $58 1 990560049 70 -364511231 2 #
face $101 $102 $103 $18 $-1 $104 reversed single #
loop $-1 $-1 $105 $58 #
plane-surface $-1 0 -6.4359999999999999 0 0 0 -1 -1 0 0 forward_v I I I I #
face $106 $107 $108 $59 $-1 $109 forward single #
face $-1 $110 $111 $61 $-1 $112 forward single #
face $-1 $113 $114 $63 $-1 $115 forward single #
face $-1 $116 $117 $65 $-1 $118 forward single #
face $-1 $119 $120 $67 $-1 $121 forward single #
face $-1 $122 $123 $69 $-1 $124 forward single #
face $-1 $125 $126 $71 $-1 $127 forward single #
face $-1 $128 $129 $73 $-1 $130 forward single #
face $-1 $131 $132 $75 $-1 $133 forward single #
face $-1 $134 $135 $77 $-1 $136 forward single #
face $-1 $137 $138 $79 $-1 $139 forward single #
face $-1 $140 $141 $81 $-1 $142 forward single #
face $-1 $143 $144 $83 $-1 $145 forward single #
model_id-kcp-attrib $-1 $-1 $-1 $85 1 990560049 70 -364511231 3 #
face $146 $147 $148 $18 $-1 $149 reversed single #
loop $-1 $-1 $150 $85 #
plane-surface $-1 0 -6.4359999999999999 1.5 0 0 -1 -1 0 0 forward_v I I I I #
coedge $-1 $151 $152 $153 $154 reversed $86 $-1 #
model_id-kcp-attrib $-1 $-1 $-1 $88 1 990560049 70 -364511230 3 #
face $155 $156 $157 $59 $-1 $158 reversed single #
loop $-1 $-1 $159 $88 #
plane-surface $-1 0 0 0.75 0 0 1 1 0 0 forward_v I I I I #
face $-1 $160 $161 $61 $-1 $162 forward single #
loop $-1 $163 $164 $89 #
cone-surface $-1 0 0 0 0 0 1 0.0625 0 0 1 I I 0 1 0.0625 forward I I I I #
face $-1 $165 $166 $63 $-1 $167 forward single #
loop $-1 $168 $169 $90 #
cone-surface $-1 0 0 0 0 0 1 0.0625 0 0 1 I I 0 1 0.0625 forward I I I I #
face $-1 $170 $171 $65 $-1 $172 forward single #
loop $-1 $173 $174 $91 #
cone-surface $-1 0 0 0 0 0 1 0.125 0 0 1 I I 0 1 0.125 forward I I I I #
face $-1 $175 $176 $67 $-1 $177 forward single #
loop $-1 $178 $179 $92 #
cone-surface $-1 0 0 0 0 0 1 0.125 0 0 1 I I 0 1 0.125 forward I I I I #
face $-1 $180 $181 $69 $-1 $182 forward single #
loop $-1 $183 $184 $93 #
cone-surface $-1 0 0 0 0 0 1 0.125 0 0 1 I I 0 1 0.125 forward I I I I #
face $-1 $185 $186 $71 $-1 $187 forward single #
loop $-1 $188 $189 $94 #
cone-surface $-1 0 0 0 0 0 1 0.140625 0 0 1 I I 0 1 0.140625 forward I I I I #
face $-1 $190 $191 $73 $-1 $192 forward single #
loop $-1 $193 $194 $95 #
cone-surface $-1 0 0 0 0 0 1 0.140625 0 0 1 I I 0 1 0.140625 forward I I I I #
face $-1 $195 $196 $75 $-1 $197 forward single #
loop $-1 $198 $199 $96 #
cone-surface $-1 0 0 0 0 0 1 0.203125 0 0 1 I I 0 1 0.203125 forward I I I I #
face $-1 $200 $201 $77 $-1 $202 forward single #
loop $-1 $203 $204 $97 #
cone-surface $-1 0 0 0 0 0 1 0.203125 0 0 1 I I 0 1 0.203125 forward I I I I #
face $-1 $205 $206 $79 $-1 $207 forward single #
loop $-1 $208 $209 $98 #
cone-surface $-1 0 0 0 0 0 1 0.125 0 0 1 I I 0 1 0.125 forward I I I I #
face $-1 $210 $211 $81 $-1 $212 forward single #
loop $-1 $-1 $213 $99 #
plane-surface $-1 0.068500000000000005 -0.29649999999999999 -0.75 0 0 -1 -1 0 0 forward_v I I I I #
face $-1 $214 $215 $83 $-1 $216 forward single #
loop $-1 $-1 $217 $100 #
plane-surface $-1 0.28849999999999998 0.29649999999999999 -0.75 0 0 -1 -1 0 0 forward_v I I I I #
model_id-kcp-attrib $-1 $-1 $-1 $102 1 990560049 70 -364511231 4 #
face $218 $219 $220 $18 $-1 $221 reversed single #
loop $-1 $-1 $153 $102 #
plane-surface $-1 -0.96850000000000003 -6.4359999999999999 0 1 0 0 0 0 -1 forward_v I I I I #
coedge $-1 $222 $223 $224 $225 forward $103 $-1 #
coedge $-1 $226 $105 $227 $228 reversed $86 $-1 #
coedge $-1 $105 $229 $230 $231 reversed $86 $-1 #
coedge $-1 $232 $233 $105 $154 forward $148 $-1 #
edge $234 $235 -0.5 $236 0 $153 $237 forward 7 unknown #
model_id-kcp-attrib $-1 $-1 $-1 $107 1 990560049 70 -364511230 2 #
face $238 $239 $240 $59 $-1 $241 reversed single #
loop $-1 $-1 $242 $107 #
plane-surface $-1 0 0 -0.75 0 0 1 1 0 0 forward_v I I I I #
coedge $-1 $243 $244 $245 $246 forward $108 $-1 #
face $-1 $-1 $247 $61 $-1 $248 forward single #
loop $-1 $-1 $249 $110 #
plane-surface $-1 0 0 -0.18999999999999995 0 0 -1 -1 0 0 forward_v I I I I #
loop $-1 $-1 $250 $89 #
coedge $-1 $164 $164 $249 $251 reversed $111 $-1 #
face $-1 $-1 $252 $63 $-1 $253 forward single #
loop $-1 $-1 $254 $113 #
plane-surface $-1 0 0 -0.18999999999999995 0 0 -1 -1 0 0 forward_v I I I I #
loop $-1 $-1 $255 $90 #
coedge $-1 $169 $169 $254 $256 reversed $114 $-1 #
face $-1 $-1 $257 $65 $-1 $258 forward single #
loop $-1 $-1 $259 $116 #
plane-surface $-1 0 0 -0.31000000000000005 0 0 -1 -1 0 0 forward_v I I I I #
loop $-1 $-1 $260 $91 #
coedge $-1 $174 $174 $259 $261 reversed $117 $-1 #
face $-1 $-1 $262 $67 $-1 $263 forward single #
loop $-1 $-1 $264 $119 #
plane-surface $-1 0 0 -0.25 0 0 -1 -1 0 0 forward_v I I I I #
loop $-1 $-1 $265 $92 #
coedge $-1 $179 $179 $264 $266 reversed $120 $-1 #
face $-1 $-1 $267 $69 $-1 $268 forward single #
loop $-1 $-1 $269 $122 #
plane-surface $-1 0 0 -0.25 0 0 -1 -1 0 0 forward_v I I I I #
loop $-1 $-1 $270 $93 #
coedge $-1 $184 $184 $269 $271 reversed $123 $-1 #
face $-1 $-1 $272 $71 $-1 $273 forward single #
loop $-1 $-1 $274 $125 #
plane-surface $-1 0 0 -0.25 0 0 -1 -1 0 0 forward_v I I I I #
loop $-1 $-1 $275 $94 #
coedge $-1 $189 $189 $274 $276 reversed $126 $-1 #
face $-1 $-1 $277 $73 $-1 $278 forward single #
loop $-1 $-1 $279 $128 #
plane-surface $-1 0 0 -0.25 0 0 -1 -1 0 0 forward_v I I I I #
loop $-1 $-1 $280 $95 #
coedge $-1 $194 $194 $279 $281 reversed $129 $-1 #
face $-1 $-1 $282 $75 $-1 $283 forward single #
loop $-1 $-1 $284 $131 #
plane-surface $-1 0 0 -0.29649999999999999 0 0 -1 -1 0 0 forward_v I I I I #
loop $-1 $-1 $285 $96 #
coedge $-1 $199 $199 $284 $286 reversed $132 $-1 #
face $-1 $-1 $287 $77 $-1 $288 forward single #
loop $-1 $-1 $289 $134 #
plane-surface $-1 0 0 -0.29649999999999999 0 0 -1 -1 0 0 forward_v I I I I #
loop $-1 $-1 $290 $97 #
coedge $-1 $204 $204 $289 $291 reversed $135 $-1 #
face $-1 $-1 $292 $79 $-1 $293 forward single #
loop $-1 $-1 $294 $137 #
plane-surface $-1 0 0 -0.11000000000000004 0 0 -1 -1 0 0 forward_v I I I I #
loop $-1 $-1 $295 $98 #
coedge $-1 $209 $209 $294 $296 reversed $138 $-1 #
face $-1 $297 $298 $81 $-1 $299 forward single #
loop $-1 $-1 $300 $140 #
plane-surface $-1 0.068499999999999783 0.79649999999999999 -0.75 0 1 0 0 0 1 forward_v I I I I #
coedge $-1 $301 $302 $303 $304 forward $141 $-1 #
face $-1 $305 $306 $83 $-1 $307 forward single #
loop $-1 $-1 $308 $143 #
plane-surface $-1 0.96850000000000003 0.29649999999999999 -0.75 1 0 0 0 0 -1 forward_v I I I I #
coedge $-1 $309 $310 $311 $312 forward $144 $-1 #
model_id-kcp-attrib $-1 $-1 $-1 $147 1 990560049 70 -364511231 5 #
face $313 $314 $315 $18 $-1 $316 reversed single #
loop $-1 $317 $227 $147 #
plane-surface $-1 -0.96850000000000003 -5.9359999999999999 0 0 -1 0 0 0 -1 forward_v I I I I #
coedge $-1 $318 $150 $319 $320 forward $103 $-1 #
coedge $-1 $150 $321 $322 $323 forward $103 $-1 #
coedge $-1 $233 $232 $150 $225 reversed $148 $-1 #
edge $324 $325 -0.5 $326 0 $224 $327 forward 7 unknown #
coedge $-1 $328 $151 $329 $330 reversed $86 $-1 #
coedge $-1 $331 $332 $151 $228 forward $220 $-1 #
edge $333 $334 -1.0369999999999999 $235 0 $227 $335 forward 7 unknown #
coedge $-1 $152 $336 $337 $338 reversed $86 $-1 #
coedge $-1 $339 $340 $152 $231 forward $341 $-1 #
edge $342 $236 -1.9370000000000001 $343 0 $230 $344 forward 7 unknown #
coedge $-1 $224 $153 $340 $345 reversed $148 $-1 #
coedge $-1 $153 $224 $331 $346 forward $148 $-1 #
attrib_edge_convexity-kcp-attrib $-1 $347 $-1 $154 1 #
vertex $-1 $346 $348 #
vertex $-1 $345 $349 #
straight-curve $-1 -0.96850000000000003 -6.4359999999999999 0 0 -1 0 I I #
model_id-kcp-attrib $-1 $-1 $-1 $156 1 990560049 70 -364511230 7 #
face $350 $351 $352 $59 $-1 $353 reversed single #
loop $-1 $-1 $354 $156 #
plane-surface $-1 0 -0.79649999999999999 0 0 1 0 0 0 1 forward_v I I I I #
coedge $-1 $355 $356 $357 $358 forward $157 $-1 #
coedge $-1 $359 $159 $360 $361 forward $108 $-1 #
coedge $-1 $159 $359 $362 $363 forward $108 $-1 #
coedge $-1 $364 $365 $159 $246 reversed $366 $-1 #
edge $-1 $367 -0.79649999999999999 $368 0.79649999999999999 $245 $369 forward 7 unknown #
loop $-1 $-1 $370 $160 #
plane-surface $-1 0 0 0.18999999999999995 0 0 1 1 0 0 forward_v I I I I #
coedge $-1 $249 $249 $164 $251 forward $161 $-1 #
coedge $-1 $250 $250 $370 $371 reversed $163 $-1 #
edge $-1 $372 0 $372 6.2831853071795862 $249 $373 forward 7 unknown #
loop $-1 $-1 $374 $165 #
plane-surface $-1 0 0 0.18999999999999995 0 0 1 1 0 0 forward_v I I I I #
coedge $-1 $254 $254 $169 $256 forward $166 $-1 #
coedge $-1 $255 $255 $374 $375 reversed $168 $-1 #
edge $-1 $376 0 $376 6.2831853071795862 $254 $377 forward 7 unknown #
loop $-1 $-1 $378 $170 #
plane-surface $-1 0 0 0.31000000000000005 0 0 1 1 0 0 forward_v I I I I #
coedge $-1 $259 $259 $174 $261 forward $171 $-1 #
coedge $-1 $260 $260 $378 $379 reversed $173 $-1 #
edge $-1 $380 0 $380 6.2831853071795862 $259 $381 forward 7 unknown #
loop $-1 $-1 $382 $175 #
plane-surface $-1 0 0 0.25 0 0 1 1 0 0 forward_v I I I I #
coedge $-1 $264 $264 $179 $266 forward $176 $-1 #
coedge $-1 $265 $265 $382 $383 reversed $178 $-1 #
edge $-1 $384 0 $384 6.2831853071795862 $264 $385 forward 7 unknown #
loop $-1 $-1 $386 $180 #
plane-surface $-1 0 0 0.25 0 0 1 1 0 0 forward_v I I I I #
coedge $-1 $269 $269 $184 $271 forward $181 $-1 #
coedge $-1 $270 $270 $386 $387 reversed $183 $-1 #
edge $-1 $388 0 $388 6.2831853071795862 $269 $389 forward 7 unknown #
loop $-1 $-1 $390 $185 #
plane-surface $-1 0 0 0.25 0 0 1 1 0 0 forward_v I I I I #
coedge $-1 $274 $274 $189 $276 forward $186 $-1 #
coedge $-1 $275 $275 $390 $391 reversed $188 $-1 #
edge $-1 $392 0 $392 6.2831853071795862 $274 $393 forward 7 unknown #
loop $-1 $-1 $394 $190 #
plane-surface $-1 0 0 0.25 0 0 1 1 0 0 forward_v I I I I #
coedge $-1 $279 $279 $194 $281 forward $191 $-1 #
coedge $-1 $280 $280 $394 $395 reversed $193 $-1 #
edge $-1 $396 0 $396 6.2831853071795862 $279 $397 forward 7 unknown #
loop $-1 $-1 $398 $195 #
plane-surface $-1 0 0 0.29649999999999999 0 0 1 1 0 0 forward_v I I I I #
coedge $-1 $284 $284 $199 $286 forward $196 $-1 #
coedge $-1 $285 $285 $398 $399 reversed $198 $-1 #
edge $-1 $400 0 $400 6.2831853071795862 $284 $401 forward 7 unknown #
loop $-1 $-1 $402 $200 #
plane-surface $-1 0 0 0.29649999999999999 0 0 1 1 0 0 forward_v I I I I #
coedge $-1 $289 $289 $204 $291 forward $201 $-1 #
coedge $-1 $290 $290 $402 $403 reversed $203 $-1 #
edge $-1 $404 0 $404 6.2831853071795862 $289 $405 forward 7 unknown #
loop $-1 $-1 $406 $205 #
plane-surface $-1 0 0 0.11000000000000004 0 0 1 1 0 0 forward_v I I I I #
coedge $-1 $294 $294 $209 $296 forward $206 $-1 #
coedge $-1 $295 $295 $406 $407 reversed $208 $-1 #
edge $-1 $408 0 $408 6.2831853071795862 $294 $409 forward 7 unknown #
face $-1 $410 $411 $81 $-1 $412 forward single #
loop $-1 $-1 $413 $210 #
plane-surface $-1 0.068499999999999783 0.79649999999999999 0.75 0 0 1 1 0 0 forward_v I I I I #
coedge $-1 $414 $415 $416 $417 forward $211 $-1 #
coedge $-1 $418 $213 $415 $419 reversed $141 $-1 #
coedge $-1 $213 $418 $420 $421 forward $141 $-1 #
coedge $-1 $422 $416 $213 $304 reversed $423 $-1 #
edge $-1 $424 -0.42149999999999999 $425 0.67149999999999999 $213 $426 forward 7 unknown #
face $-1 $427 $428 $83 $-1 $429 forward single #
loop $-1 $-1 $430 $214 #
plane-surface $-1 0.96850000000000003 0.29649999999999999 0.75 0 0 1 1 0 0 forward_v I I I I #
coedge $-1 $431 $432 $433 $434 forward $215 $-1 #
coedge $-1 $435 $217 $432 $436 reversed $144 $-1 #
coedge $-1 $217 $435 $437 $438 forward $144 $-1 #
coedge $-1 $439 $433 $217 $312 reversed $440 $-1 #
edge $-1 $441 -0.025750000000000051 $442 0.65425 $217 $443 forward 7 unknown #
model_id-kcp-attrib $-1 $-1 $-1 $219 1 990560049 70 -364511231 6 #
face $444 $445 $446 $18 $-1 $447 reversed single #
loop $-1 $448 $329 $219 #
plane-surface $-1 0.068500000000000005 -5.9359999999999999 0 1 0 0 0 0 -1 forward_v I I I I #
loop $449 $450 $451 $147 #
coedge $-1 $452 $222 $453 $454 forward $103 $-1 #
coedge $-1 $340 $339 $222 $320 reversed $341 $-1 #
edge $-1 $326 -1.9370000000000001 $455 0 $319 $456 forward 7 unknown #
coedge $-1 $223 $457 $458 $459 forward $103 $-1 #
coedge $-1 $332 $331 $223 $323 reversed $220 $-1 #
edge $-1 $460 -1.0369999999999999 $325 0 $322 $461 forward 7 unknown #
attrib_edge_convexity-kcp-attrib $-1 $462 $-1 $225 1 #
vertex $-1 $346 $463 #
vertex $-1 $345 $464 #
straight-curve $-1 -0.96850000000000003 -6.4359999999999999 1.5 0 -1 0 I I #
coedge $-1 $465 $226 $466 $467 reversed $86 $-1 #
coedge $-1 $468 $469 $226 $330 forward $315 $-1 #
edge $470 $471 -1.093 $334 0 $329 $472 forward 7 unknown #
coedge $-1 $322 $227 $233 $346 reversed $220 $-1 #
coedge $-1 $227 $322 $468 $473 forward $220 $-1 #
attrib_edge_convexity-kcp-attrib $-1 $474 $-1 $228 1 #
vertex $-1 $473 $475 #
straight-curve $-1 -0.96850000000000003 -5.9359999999999999 0 -1 0 0 I I #
coedge $-1 $229 $465 $476 $477 reversed $86 $-1 #
coedge $-1 $478 $479 $229 $338 forward $480 $-1 #
edge $481 $343 -1.093 $482 0 $337 $483 forward 7 unknown #
coedge $-1 $319 $230 $479 $484 reversed $341 $-1 #
coedge $-1 $230 $319 $232 $345 forward $341 $-1 #
loop $-1 $485 $230 $486 #
attrib_edge_convexity-kcp-attrib $-1 $487 $-1 $231 1 #
vertex $-1 $484 $488 #
straight-curve $-1 0.96850000000000003 -6.4359999999999999 0 1 0 0 I I #
edge $489 $326 -1.5 $236 0 $340 $490 forward 7 unknown #
edge $491 $325 -1.5 $235 0 $331 $492 forward 7 unknown #
convexity-sys-attrib $-1 $-1 $234 $154 #
point $-1 -0.96850000000000003 -5.9359999999999999 0 #
point $-1 -0.96850000000000003 -6.4359999999999999 0 #
model_id-kcp-attrib $-1 $-1 $-1 $239 1 990560049 70 -364511230 4 #
face $493 $494 $495 $59 $-1 $496 reversed single #
loop $-1 $-1 $497 $239 #
plane-surface $-1 -0.96850000000000003 0 0 1 0 0 0 0 -1 forward_v I I I I #
coedge $-1 $498 $362 $499 $500 forward $240 $-1 #
coedge $-1 $501 $242 $498 $502 forward $157 $-1 #
coedge $-1 $242 $501 $503 $504 forward $157 $-1 #
coedge $-1 $365 $364 $242 $358 reversed $366 $-1 #
edge $-1 $505 -0.79649999999999999 $506 0.79649999999999999 $357 $507 forward 7 unknown #
coedge $-1 $244 $243 $508 $509 forward $108 $-1 #
coedge $-1 $510 $511 $243 $361 reversed $495 $-1 #
edge $-1 $368 -0.96850000000000003 $512 0.96850000000000003 $360 $513 forward 7 unknown #
coedge $-1 $354 $514 $244 $363 reversed $240 $-1 #
edge $-1 $515 -0.96850000000000003 $367 0.96850000000000003 $362 $516 forward 7 unknown #
coedge $-1 $357 $245 $514 $517 forward $366 $-1 #
coedge $-1 $245 $357 $510 $518 reversed $366 $-1 #
loop $-1 $-1 $364 $494 #
vertex $-1 $246 $519 #
vertex $-1 $246 $520 #
straight-curve $-1 0.96850000000000003 0 0.75 0 1 0 I I #
coedge $-1 $370 $370 $250 $371 forward $247 $-1 #
edge $-1 $521 0 $521 6.2831853071795862 $370 $522 forward 7 unknown #
vertex $-1 $251 $523 #
ellipse-curve $-1 0 0 -0.18999999999999995 0 0 -1 0.0625 0 0 1 I I #
coedge $-1 $374 $374 $255 $375 forward $252 $-1 #
edge $-1 $524 0 $524 6.2831853071795862 $374 $525 forward 7 unknown #
vertex $-1 $256 $526 #
ellipse-curve $-1 0 0 -0.18999999999999995 0 0 -1 0.0625 0 0 1 I I #
coedge $-1 $378 $378 $260 $379 forward $257 $-1 #
edge $-1 $527 0 $527 6.2831853071795862 $378 $528 forward 7 unknown #
vertex $-1 $261 $529 #
ellipse-curve $-1 0 0 -0.31000000000000005 0 0 -1 0.125 0 0 1 I I #
coedge $-1 $382 $382 $265 $383 forward $262 $-1 #
edge $-1 $530 0 $530 6.2831853071795862 $382 $531 forward 7 unknown #
vertex $-1 $266 $532 #
ellipse-curve $-1 0 0 -0.25 0 0 -1 0.125 0 0 1 I I #
coedge $-1 $386 $386 $270 $387 forward $267 $-1 #
edge $-1 $533 0 $533 6.2831853071795862 $386 $534 forward 7 unknown #
vertex $-1 $271 $535 #
ellipse-curve $-1 0 0 -0.25 0 0 -1 0.125 0 0 1 I I #
coedge $-1 $390 $390 $275 $391 forward $272 $-1 #
edge $-1 $536 0 $536 6.2831853071795862 $390 $537 forward 7 unknown #
vertex $-1 $276 $538 #
ellipse-curve $-1 0 0 -0.25 0 0 -1 0.140625 0 0 1 I I #
coedge $-1 $394 $394 $280 $395 forward $277 $-1 #
edge $-1 $539 0 $539 6.2831853071795862 $394 $540 forward 7 unknown #
vertex $-1 $281 $541 #
ellipse-curve $-1 0 0 -0.25 0 0 -1 0.140625 0 0 1 I I #
coedge $-1 $398 $398 $285 $399 forward $282 $-1 #
edge $-1 $542 0 $542 6.2831853071795862 $398 $543 forward 7 unknown #
vertex $-1 $286 $544 #
ellipse-curve $-1 0 0 -0.29649999999999999 0 0 -1 0.203125 0 0 1 I I #
coedge $-1 $402 $402 $290 $403 forward $287 $-1 #
edge $-1 $545 0 $545 6.2831853071795862 $402 $546 forward 7 unknown #
vertex $-1 $291 $547 #
ellipse-curve $-1 0 0 -0.29649999999999999 0 0 -1 0.203125 0 0 1 I I #
coedge $-1 $406 $406 $295 $407 forward $292 $-1 #
edge $-1 $548 0 $548 6.2831853071795862 $406 $549 forward 7 unknown #
vertex $-1 $296 $550 #
ellipse-curve $-1 0 0 -0.11000000000000004 0 0 -1 0.125 0 0 1 I I #
face $-1 $551 $423 $81 $-1 $552 reversed single #
loop $-1 $-1 $553 $297 #
plane-surface $-1 0.068500000000000005 -0.29649999999999999 0.75 0 -1 0 0 0 -1 forward_v I I I I #
coedge $-1 $554 $555 $556 $557 forward $298 $-1 #
coedge $-1 $558 $300 $555 $559 reversed $211 $-1 #
coedge $-1 $300 $558 $301 $419 forward $211 $-1 #
coedge $-1 $303 $556 $300 $417 reversed $423 $-1 #
edge $-1 $425 -0.75 $560 0.75 $300 $561 forward 7 unknown #
coedge $-1 $302 $301 $562 $563 reversed $141 $-1 #
edge $-1 $564 0 $425 1.0369999999999999 $415 $565 forward 7 unknown #
coedge $-1 $566 $553 $302 $421 reversed $411 $-1 #
edge $-1 $567 0 $424 1.0369999999999999 $302 $568 forward 7 unknown #
coedge $-1 $556 $303 $553 $569 reversed $423 $-1 #
loop $-1 $-1 $303 $410 #
vertex $-1 $421 $570 #
vertex $-1 $419 $571 #
straight-curve $-1 -0.96850000000000014 0.125 -0.75 0 1 0 I I #
face $-1 $572 $440 $83 $-1 $573 forward single #
loop $-1 $-1 $574 $305 #
plane-surface $-1 0.28849999999999998 0.29649999999999999 0.75 -1 0 0 0 0 1 forward_v I I I I #
coedge $-1 $575 $576 $577 $578 forward $306 $-1 #
coedge $-1 $579 $308 $576 $580 reversed $215 $-1 #
coedge $-1 $308 $579 $309 $436 forward $215 $-1 #
coedge $-1 $311 $577 $308 $434 reversed $440 $-1 #
edge $-1 $442 -0.75 $581 0.75 $308 $582 forward 7 unknown #
coedge $-1 $310 $309 $583 $584 reversed $144 $-1 #
edge $-1 $585 0 $442 0.5 $432 $586 forward 7 unknown #
coedge $-1 $587 $574 $310 $438 reversed $428 $-1 #
edge $-1 $588 0 $441 0.5 $310 $589 forward 7 unknown #
coedge $-1 $577 $311 $574 $590 reversed $440 $-1 #
loop $-1 $-1 $311 $427 #
vertex $-1 $438 $591 #
vertex $-1 $436 $592 #
straight-curve $-1 0.31425000000000003 0.79649999999999999 -0.75 1 0 0 I I #
model_id-kcp-attrib $-1 $-1 $-1 $314 1 990560049 70 -364511231 7 #
face $593 $594 $595 $18 $-1 $596 reversed single #
loop $-1 $-1 $466 $314 #
plane-surface $-1 0.068500000000000005 -4.843 0 0 -1 0 0 0 -1 forward_v I I I I #
loop $597 $-1 $598 $219 #
model_id-kcp-attrib $-1 $-1 $-1 $317 1 990560049 70 -364511231 31 #
loop $599 $-1 $600 $147 #
coedge $-1 $451 $451 $601 $602 reversed $317 $-1 #
coedge $-1 $603 $318 $604 $605 forward $103 $-1 #
coedge $-1 $479 $478 $318 $454 reversed $480 $-1 #
edge $-1 $455 -1.093 $606 0 $453 $607 forward 7 unknown #
vertex $-1 $484 $608 #
straight-curve $-1 0.96850000000000003 -6.4359999999999999 1.5 1 0 0 I I #
coedge $-1 $321 $603 $609 $610 forward $103 $-1 #
coedge $-1 $469 $468 $321 $459 reversed $315 $-1 #
edge $-1 $611 -1.093 $460 0 $458 $612 forward 7 unknown #
vertex $-1 $473 $613 #
straight-curve $-1 -0.96850000000000003 -5.9359999999999999 1.5 -1 0 0 I I #
convexity-sys-attrib $-1 $-1 $324 $225 #
point $-1 -0.96850000000000003 -5.9359999999999999 1.5 #
point $-1 -0.96850000000000003 -6.4359999999999999 1.5 #
coedge $-1 $336 $328 $614 $615 reversed $86 $-1 #
coedge $-1 $616 $617 $328 $467 forward $446 $-1 #
edge $618 $619 -0.21999999999999997 $471 0 $466 $620 forward 7 unknown #
coedge $-1 $458 $329 $332 $473 reversed $315 $-1 #
coedge $-1 $329 $458 $616 $621 forward $315 $-1 #
attrib_edge_convexity-kcp-attrib $-1 $622 $-1 $330 1 #
vertex $-1 $621 $623 #
straight-curve $-1 0.068500000000000005 -5.9359999999999999 0 0 -1 0 I I #
edge $-1 $460 -1.5 $334 0 $468 $624 forward 7 unknown #
convexity-sys-attrib $-1 $-1 $333 $228 #
point $-1 0.068500000000000005 -5.9359999999999999 0 #
coedge $-1 $625 $626 $336 $477 forward $627 $-1 #
edge $628 $482 -0.68000000000000005 $629 0 $476 $630 forward 7 unknown #
coedge $-1 $453 $337 $626 $631 reversed $480 $-1 #
coedge $-1 $337 $453 $339 $484 forward $480 $-1 #
loop $-1 $-1 $337 $632 #
attrib_edge_convexity-kcp-attrib $-1 $633 $-1 $338 1 #
vertex $-1 $631 $634 #
straight-curve $-1 0.96850000000000003 -5.343 0 0 1 0 I I #
edge $-1 $455 -1.5 $343 0 $339 $635 forward 7 unknown #
loop $-1 $636 $637 $486 #
face $638 $639 $341 $18 $-1 $640 reversed single #
convexity-sys-attrib $-1 $-1 $342 $231 #
point $-1 0.96850000000000003 -6.4359999999999999 0 #
attrib_edge_convexity-kcp-attrib $-1 $641 $-1 $345 1 #
straight-curve $-1 -0.96850000000000003 -6.4359999999999999 0 0 0 -1 I I #
attrib_edge_convexity-kcp-attrib $-1 $642 $-1 $346 1 #
straight-curve $-1 -0.96850000000000003 -5.9359999999999999 0 0 0 -1 I I #
model_id-kcp-attrib $-1 $-1 $-1 $351 1 990560049 70 -364511230 5 #
face $643 $-1 $366 $59 $-1 $644 reversed single #
loop $-1 $-1 $510 $351 #
plane-surface $-1 0 0.79649999999999999 0 0 -1 0 0 0 -1 forward_v I I I I #
coedge $-1 $645 $508 $511 $646 forward $352 $-1 #
coedge $-1 $514 $354 $355 $502 reversed $240 $-1 #
coedge $-1 $508 $645 $354 $500 reversed $352 $-1 #
edge $-1 $515 -0.75 $647 0.75 $499 $648 forward 7 unknown #
coedge $-1 $356 $355 $645 $649 forward $157 $-1 #
edge $-1 $506 -0.96850000000000003 $647 0.96850000000000003 $498 $650 forward 7 unknown #
coedge $-1 $511 $510 $356 $504 reversed $495 $-1 #
edge $-1 $651 -0.96850000000000003 $505 0.96850000000000003 $503 $652 forward 7 unknown #
vertex $-1 $358 $653 #
vertex $-1 $517 $654 #
straight-curve $-1 0.96850000000000003 0 -0.75 0 -1 0 I I #
coedge $-1 $497 $499 $359 $509 reversed $352 $-1 #
edge $-1 $512 -0.79649999999999999 $515 0.79649999999999999 $508 $655 forward 7 unknown #
coedge $-1 $503 $360 $365 $518 forward $495 $-1 #
coedge $-1 $360 $503 $497 $646 reversed $495 $-1 #
vertex $-1 $361 $656 #
straight-curve $-1 0 0.79649999999999999 0.75 -1 0 0 I I #
coedge $-1 $362 $498 $364 $517 reversed $240 $-1 #
vertex $-1 $509 $657 #
straight-curve $-1 0 -0.79649999999999999 0.75 1 0 0 I I #
edge $-1 $367 -0.75 $506 0.75 $364 $658 forward 7 unknown #
edge $-1 $368 -0.75 $505 0.75 $365 $659 forward 7 unknown #
point $-1 0.96850000000000003 -0.79649999999999999 0.75 #
point $-1 0.96850000000000003 0.79649999999999999 0.75 #
vertex $-1 $371 $660 #
ellipse-curve $-1 0 0 0.18999999999999995 0 0 1 0.0625 0 0 1 I I #
point $-1 0.0625 0 -0.18999999999999995 #
vertex $-1 $375 $661 #
ellipse-curve $-1 0 0 0.18999999999999995 0 0 1 0.0625 0 0 1 I I #
point $-1 0.0625 0 -0.18999999999999995 #
vertex $-1 $379 $662 #
ellipse-curve $-1 0 0 0.31000000000000005 0 0 1 0.125 0 0 1 I I #
point $-1 0.125 0 -0.31000000000000005 #
vertex $-1 $383 $663 #
ellipse-curve $-1 0 0 0.25 0 0 1 0.125 0 0 1 I I #
point $-1 0.125 0 -0.25 #
vertex $-1 $387 $664 #
ellipse-curve $-1 0 0 0.25 0 0 1 0.125 0 0 1 I I #
point $-1 0.125 0 -0.25 #
vertex $-1 $391 $665 #
ellipse-curve $-1 0 0 0.25 0 0 1 0.140625 0 0 1 I I #
point $-1 0.140625 0 -0.25 #
vertex $-1 $395 $666 #
ellipse-curve $-1 0 0 0.25 0 0 1 0.140625 0 0 1 I I #
point $-1 0.140625 0 -0.25 #
vertex $-1 $399 $667 #
ellipse-curve $-1 0 0 0.29649999999999999 0 0 1 0.203125 0 0 1 I I #
point $-1 0.203125 0 -0.29649999999999999 #
vertex $-1 $403 $668 #
ellipse-curve $-1 0 0 0.29649999999999999 0 0 1 0.203125 0 0 1 I I #
point $-1 0.203125 0 -0.29649999999999999 #
vertex $-1 $407 $669 #
ellipse-curve $-1 0 0 0.11000000000000004 0 0 1 0.125 0 0 1 I I #
point $-1 0.125 0 -0.11000000000000004 #
face $-1 $-1 $670 $81 $-1 $671 forward single #
plane-surface $-1 -0.96850000000000014 0.25 0 1 4.1691542075339478e-017 -1.9423279789435258e-033 -1.9423279789435258e-033 0 -1 forward_v I I I I #
coedge $-1 $420 $672 $422 $569 forward $411 $-1 #
coedge $-1 $673 $413 $672 $674 reversed $298 $-1 #
coedge $-1 $413 $673 $414 $559 forward $298 $-1 #
coedge $-1 $416 $422 $413 $557 reversed $423 $-1 #
edge $-1 $560 -0.67149999999999999 $675 0.42149999999999999 $413 $676 forward 7 unknown #
coedge $-1 $415 $414 $677 $678 reversed $211 $-1 #
edge $-1 $679 0 $560 1.0369999999999999 $555 $680 forward 7 unknown #
vertex $-1 $559 $681 #
straight-curve $-1 -0.96850000000000014 0.79649999999999999 0 0 0 1 I I #
coedge $-1 $677 $682 $418 $563 forward $670 $-1 #
edge $683 $567 -0.42149999999999999 $564 0.67149999999999999 $418 $684 forward 7 unknown #
vertex $-1 $563 $685 #
straight-curve $-1 0.068499999999999783 0.79649999999999999 -0.75 -1 0 0 I I #
coedge $-1 $672 $420 $682 $686 reversed $411 $-1 #
vertex $-1 $686 $687 #
straight-curve $-1 0.068500000000000005 -0.29649999999999999 -0.75 -1 0 0 I I #
edge $-1 $675 -1.125 $424 0.375 $553 $688 forward 7 unknown #
point $-1 -0.96849999999999992 -0.29649999999999999 -0.75 #
point $-1 -0.96850000000000014 0.79649999999999999 -0.75 #
face $-1 $-1 $689 $83 $-1 $690 reversed single #
plane-surface $-1 0.62849999999999995 0.79649999999999999 0 0 1 0 0 0 1 forward_v I I I I #
coedge $-1 $437 $691 $439 $590 forward $428 $-1 #
coedge $-1 $692 $430 $691 $693 reversed $306 $-1 #
coedge $-1 $430 $692 $431 $580 forward $306 $-1 #
coedge $-1 $433 $439 $430 $578 reversed $440 $-1 #
edge $-1 $581 -0.65425 $694 0.025750000000000051 $430 $695 forward 7 unknown #
coedge $-1 $432 $431 $696 $697 reversed $215 $-1 #
edge $-1 $698 0 $581 0.5 $576 $699 forward 7 unknown #
vertex $-1 $580 $700 #
straight-curve $-1 0.96850000000000003 0.79649999999999999 0 0 0 1 I I #
coedge $-1 $696 $701 $435 $584 forward $689 $-1 #
edge $702 $588 -0.025750000000000051 $585 0.65425 $435 $703 forward 7 unknown #
vertex $-1 $584 $704 #
straight-curve $-1 0.96850000000000003 0.29649999999999999 -0.75 0 1 0 I I #
coedge $-1 $691 $437 $701 $705 reversed $428 $-1 #
vertex $-1 $705 $706 #
straight-curve $-1 0.28849999999999998 0.29649999999999999 -0.75 0 1 0 I I #
edge $-1 $694 -1.125 $441 0.375 $574 $707 forward 7 unknown #
point $-1 0.28849999999999998 0.79649999999999999 -0.75 #
point $-1 0.96850000000000003 0.79649999999999999 -0.75 #
model_id-kcp-attrib $-1 $-1 $-1 $445 1 990560049 70 -364511231 8 #
face $708 $632 $627 $18 $-1 $709 reversed single #
loop $-1 $710 $614 $445 #
plane-surface $-1 0.28849999999999998 -4.843 0 -1 0 0 0 0 1 forward_v I I I I #
model_id-kcp-attrib $-1 $-1 $-1 $448 1 990560049 70 -364511231 55 #
coedge $-1 $598 $598 $711 $712 reversed $448 $-1 #
model_id-kcp-attrib $-1 $-1 $-1 $450 1 990560049 70 -364511231 37 #
coedge $-1 $600 $600 $713 $714 reversed $450 $-1 #
coedge $-1 $601 $601 $451 $602 forward $715 $-1 #
edge $716 $717 0 $717 6.2831853071795862 $601 $718 forward 7 unknown #
coedge $-1 $457 $452 $719 $720 forward $103 $-1 #
coedge $-1 $626 $625 $452 $605 reversed $627 $-1 #
edge $-1 $606 -0.68000000000000005 $721 0 $604 $722 forward 7 unknown #
vertex $-1 $631 $723 #
straight-curve $-1 0.96850000000000003 -5.343 1.5 0 1 0 I I #
point $-1 0.96850000000000003 -6.4359999999999999 1.5 #
coedge $-1 $617 $616 $457 $610 reversed $446 $-1 #
edge $724 $725 -0.21999999999999997 $611 0 $609 $726 forward 7 unknown #
vertex $-1 $621 $727 #
straight-curve $-1 0.068500000000000005 -5.9359999999999999 1.5 0 -1 0 I I #
point $-1 0.068500000000000005 -5.9359999999999999 1.5 #
coedge $-1 $728 $729 $465 $615 forward $595 $-1 #
edge $730 $629 -0.5 $619 0 $614 $731 forward 7 unknown #
coedge $-1 $609 $466 $469 $621 reversed $446 $-1 #
coedge $-1 $466 $609 $728 $732 forward $446 $-1 #
attrib_edge_convexity-kcp-attrib $-1 $733 $-1 $467 1 #
vertex $-1 $732 $734 #
straight-curve $-1 0.068500000000000005 -4.843 0 -1 0 0 I I #
edge $735 $611 -1.5 $471 0 $616 $736 forward 7 unknown #
convexity-sys-attrib $-1 $-1 $470 $330 #
point $-1 0.068500000000000005 -4.843 0 #
straight-curve $-1 0.068500000000000005 -5.9359999999999999 0 0 0 -1 I I #
coedge $-1 $604 $476 $729 $737 reversed $627 $-1 #
coedge $-1 $476 $604 $478 $631 forward $627 $-1 #
loop $-1 $738 $476 $594 #
attrib_edge_convexity-kcp-attrib $-1 $739 $-1 $477 1 #
vertex $-1 $737 $740 #
straight-curve $-1 0.28849999999999998 -5.343 0 -1 0 0 I I #
edge $-1 $606 -1.5 $482 0 $478 $741 forward 7 unknown #
face $742 $486 $480 $18 $-1 $743 reversed single #
convexity-sys-attrib $-1 $-1 $481 $338 #
point $-1 0.96850000000000003 -5.343 0 #
straight-curve $-1 0.96850000000000003 -6.4359999999999999 0 0 0 -1 I I #
loop $-1 $744 $745 $486 #
coedge $-1 $637 $637 $746 $747 forward $485 $-1 #
model_id-kcp-attrib $-1 $748 $-1 $486 1 990560049 70 -364511231 27 #
face $749 $750 $751 $18 $-1 $752 forward single #
plane-surface $-1 0.96850000000000003 -6.4359999999999999 0 0 1 0 0 0 1 forward_v I I I I #
convexity-sys-attrib $-1 $-1 $489 $345 #
convexity-sys-attrib $-1 $-1 $491 $346 #
model_id-kcp-attrib $-1 $-1 $-1 $494 1 990560049 70 -364511230 6 #
plane-surface $-1 0.96850000000000003 0 0 -1 0 0 0 0 1 forward_v I I I I #
coedge $-1 $499 $497 $501 $649 reversed $352 $-1 #
edge $-1 $512 -0.75 $651 0.75 $511 $753 forward 7 unknown #
vertex $-1 $649 $754 #
straight-curve $-1 -0.96850000000000003 -0.79649999999999999 0 0 0 -1 I I #
edge $-1 $647 -0.79649999999999999 $651 0.79649999999999999 $645 $755 forward 7 unknown #
straight-curve $-1 0 -0.79649999999999999 -0.75 -1 0 0 I I #
vertex $-1 $504 $756 #
straight-curve $-1 0 0.79649999999999999 -0.75 1 0 0 I I #
point $-1 0.96850000000000003 0.79649999999999999 -0.75 #
point $-1 0.96850000000000003 -0.79649999999999999 -0.75 #
straight-curve $-1 -0.96850000000000003 0 0.75 0 -1 0 I I #
point $-1 -0.96850000000000003 0.79649999999999999 0.75 #
point $-1 -0.96850000000000003 -0.79649999999999999 0.75 #
straight-curve $-1 0.96850000000000003 -0.79649999999999999 0 0 0 -1 I I #
straight-curve $-1 0.96850000000000003 0.79649999999999999 0 0 0 -1 I I #
point $-1 0.0625 0 0.18999999999999995 #
point $-1 0.0625 0 0.18999999999999995 #
point $-1 0.125 0 0.31000000000000005 #
point $-1 0.125 0 0.25 #
point $-1 0.125 0 0.25 #
point $-1 0.140625 0 0.25 #
point $-1 0.140625 0 0.25 #
point $-1 0.203125 0 0.29649999999999999 #
point $-1 0.203125 0 0.29649999999999999 #
point $-1 0.125 0 0.11000000000000004 #
loop $-1 $-1 $682 $551 #
plane-surface $-1 0.068499999999999797 0.25 0 1 4.1691542075339478e-017 -1.9423279789435258e-033 -1.9423279789435258e-033 0 -1 forward_v I I I I #
coedge $-1 $553 $566 $554 $674 forward $411 $-1 #
coedge $-1 $555 $554 $757 $758 reversed $298 $-1 #
edge $-1 $759 0 $675 1.0369999999999999 $672 $760 forward 7 unknown #
vertex $-1 $674 $761 #
straight-curve $-1 -0.96850000000000014 0.125 0.75 0 -1 0 I I #
coedge $-1 $757 $562 $558 $678 forward $670 $-1 #
edge $762 $564 -0.75 $679 0.75 $558 $763 forward 7 unknown #
vertex $-1 $678 $764 #
straight-curve $-1 0.068499999999999783 0.79649999999999999 0.75 -1 0 0 I I #
point $-1 -0.96850000000000014 0.79649999999999999 0.75 #
coedge $-1 $562 $757 $566 $686 forward $670 $-1 #
convexity-sys-attrib $-1 $-1 $-1 $563 #
straight-curve $-1 0.068499999999999783 0.125 -0.75 0 1 0 I I #
point $-1 0.068499999999999783 0.79649999999999999 -0.75 #
edge $765 $759 -1.125 $567 0.375 $566 $766 forward 7 unknown #
point $-1 0.068500000000000005 -0.29649999999999999 -0.75 #
straight-curve $-1 -0.96850000000000014 -0.29649999999999999 -0.375 0 0 -1 I I #
loop $-1 $-1 $701 $572 #
plane-surface $-1 0.62849999999999995 0.29649999999999999 0 0 1 0 0 0 1 forward_v I I I I #
coedge $-1 $574 $587 $575 $693 forward $428 $-1 #
coedge $-1 $576 $575 $767 $768 reversed $306 $-1 #
edge $-1 $769 0 $694 0.5 $691 $770 forward 7 unknown #
vertex $-1 $693 $771 #
straight-curve $-1 0.31425000000000003 0.79649999999999999 0.75 -1 0 0 I I #
coedge $-1 $767 $583 $579 $697 forward $689 $-1 #
edge $772 $585 -0.75 $698 0.75 $579 $773 forward 7 unknown #
vertex $-1 $697 $774 #
straight-curve $-1 0.96850000000000003 0.29649999999999999 0.75 0 1 0 I I #
point $-1 0.96850000000000003 0.79649999999999999 0.75 #
coedge $-1 $583 $767 $587 $705 forward $689 $-1 #
convexity-sys-attrib $-1 $-1 $-1 $584 #
straight-curve $-1 0.31425000000000003 0.29649999999999999 -0.75 1 0 0 I I #
point $-1 0.96850000000000003 0.29649999999999999 -0.75 #
edge $775 $769 -1.125 $588 0.375 $587 $776 forward 7 unknown #
point $-1 0.28849999999999998 0.29649999999999999 -0.75 #
straight-curve $-1 0.28849999999999998 0.79649999999999999 -0.375 0 0 -1 I I #
model_id-kcp-attrib $-1 $-1 $-1 $594 1 990560049 70 -364511231 9 #
plane-surface $-1 0.28849999999999998 -5.343 0 0 -1 0 0 0 -1 forward_v I I I I #
loop $777 $-1 $778 $445 #
coedge $-1 $711 $711 $598 $712 forward $779 $-1 #
edge $780 $781 0 $781 6.2831853071795862 $711 $782 forward 7 unknown #
coedge $-1 $713 $713 $600 $714 forward $783 $-1 #
edge $784 $785 0 $785 6.2831853071795862 $713 $786 forward 7 unknown #
loop $787 $-1 $601 $788 #
attrib_edge_convexity-kcp-attrib $-1 $789 $-1 $602 1 #
vertex $790 $602 $791 #
ellipse-curve $-1 -0.62150000000000005 -5.9359999999999999 0.34399999999999997 0 1 0 0.125 0 0 1 I I #
coedge $-1 $729 $728 $603 $720 reversed $595 $-1 #
edge $-1 $721 -0.5 $725 0 $719 $792 forward 7 unknown #
vertex $-1 $737 $793 #
straight-curve $-1 0.28849999999999998 -5.343 1.5 -1 0 0 I I #
point $-1 0.96850000000000003 -5.343 1.5 #
attrib_edge_convexity-kcp-attrib $-1 $794 $-1 $610 1 #
vertex $-1 $732 $795 #
straight-curve $-1 0.068500000000000005 -4.843 1.5 -1 0 0 I I #
point $-1 0.068500000000000005 -4.843 1.5 #
coedge $-1 $719 $614 $617 $732 reversed $595 $-1 #
coedge $-1 $614 $719 $625 $737 forward $595 $-1 #
attrib_edge_convexity-kcp-attrib $-1 $796 $-1 $615 1 #
straight-curve $-1 0.28849999999999998 -4.843 0 0 1 0 I I #
edge $797 $725 -1.5 $619 0 $728 $798 forward 7 unknown #
convexity-sys-attrib $-1 $-1 $618 $467 #
point $-1 0.28849999999999998 -4.843 0 #
attrib_edge_convexity-kcp-attrib $-1 $799 $-1 $621 1 #
straight-curve $-1 0.068500000000000005 -4.843 0 0 0 -1 I I #
edge $-1 $721 -1.5 $629 0 $625 $800 forward 7 unknown #
loop $801 $802 $803 $594 #
convexity-sys-attrib $-1 $-1 $628 $477 #
point $-1 0.28849999999999998 -5.343 0 #
straight-curve $-1 0.96850000000000003 -5.343 0 0 0 -1 I I #
model_id-kcp-attrib $-1 $-1 $-1 $632 1 990560049 70 -364511231 10 #
plane-surface $-1 0.96850000000000003 -5.343 0 -1 0 0 0 0 1 forward_v I I I I #
loop $-1 $804 $805 $486 #
coedge $-1 $745 $745 $806 $807 forward $636 $-1 #
coedge $-1 $746 $746 $637 $747 reversed $808 $-1 #
edge $809 $810 -3.1415926535897931 $810 3.1415926535897931 $746 $811 forward 7 unknown #
model_id-kcp-attrib $-1 $-1 $638 $486 1 990560049 70 -364511231 11 #
model_id-kcp-attrib $-1 $-1 $-1 $639 1 990560049 70 -364511231 12 #
face $812 $813 $814 $18 $-1 $815 reversed single #
loop $-1 $-1 $816 $639 #
plane-surface $-1 -0.62150000000000005 -6.056 0.75 0 -1 0 0 0 -1 forward_v I I I I #
straight-curve $-1 -0.96850000000000003 0.79649999999999999 0 0 0 -1 I I #
point $-1 -0.96850000000000003 -0.79649999999999999 -0.75 #
straight-curve $-1 -0.96850000000000003 0 -0.75 0 1 0 I I #
point $-1 -0.96850000000000003 0.79649999999999999 -0.75 #
coedge $-1 $682 $677 $673 $758 forward $670 $-1 #
edge $817 $679 -0.67149999999999999 $759 0.42149999999999999 $673 $818 forward 7 unknown #
vertex $-1 $686 $819 #
straight-curve $-1 0.068500000000000005 -0.29649999999999999 0.75 -1 0 0 I I #
point $-1 -0.96849999999999992 -0.29649999999999999 0.75 #
convexity-sys-attrib $-1 $-1 $-1 $678 #
straight-curve $-1 0.068499999999999783 0.79649999999999999 0 0 0 1 I I #
point $-1 0.068499999999999783 0.79649999999999999 0.75 #
convexity-sys-attrib $-1 $-1 $-1 $686 #
straight-curve $-1 0.068499999999999839 -0.29649999999999999 -0.375 0 0 -1 I I #
coedge $-1 $701 $696 $692 $768 forward $689 $-1 #
edge $820 $698 -0.65425 $769 0.025750000000000051 $692 $821 forward 7 unknown #
vertex $-1 $705 $822 #
straight-curve $-1 0.28849999999999998 0.29649999999999999 0.75 0 1 0 I I #
point $-1 0.28849999999999998 0.79649999999999999 0.75 #
convexity-sys-attrib $-1 $-1 $-1 $697 #
straight-curve $-1 0.96850000000000003 0.29649999999999999 0 0 0 1 I I #
point $-1 0.96850000000000003 0.29649999999999999 0.75 #
convexity-sys-attrib $-1 $-1 $-1 $705 #
straight-curve $-1 0.28849999999999998 0.29649999999999999 -0.375 0 0 -1 I I #
model_id-kcp-attrib $-1 $-1 $-1 $710 1 990560049 70 -364511231 54 #
coedge $-1 $778 $778 $823 $824 forward $710 $-1 #
loop $825 $-1 $711 $826 #
attrib_edge_convexity-kcp-attrib $-1 $827 $-1 $712 1 #
vertex $828 $712 $829 #
ellipse-curve $-1 0.068500000000000005 -5.093 0.75 -1 0 0 0 0.125 0 1 I I #
loop $830 $-1 $713 $831 #
attrib_edge_convexity-kcp-attrib $-1 $832 $-1 $714 1 #
vertex $833 $714 $834 #
ellipse-curve $-1 -0.62150000000000005 -5.9359999999999999 1.1559999999999999 0 1 0 0.125 0 0 1 I I #
model_id-kcp-attrib $-1 $-1 $-1 $715 1 990560049 70 -364511231 29 #
face $835 $831 $836 $18 $-1 $837 reversed single #
convexity-sys-attrib $-1 $-1 $716 $602 #
model_id-kcp-attrib $-1 $-1 $-1 $717 1 990560049 70 -364511231 33 #
point $-1 -0.4965 -5.9359999999999999 0.34399999999999997 #
straight-curve $-1 0.28849999999999998 -4.843 1.5 0 1 0 I I #
point $-1 0.28849999999999998 -5.343 1.5 #
convexity-sys-attrib $-1 $-1 $724 $610 #
point $-1 0.28849999999999998 -4.843 1.5 #
convexity-sys-attrib $-1 $-1 $730 $615 #
attrib_edge_convexity-kcp-attrib $-1 $838 $-1 $732 1 #
straight-curve $-1 0.28849999999999998 -4.843 0 0 0 -1 I I #
convexity-sys-attrib $-1 $-1 $735 $621 #
straight-curve $-1 0.28849999999999998 -5.343 0 0 0 -1 I I #
model_id-kcp-attrib $-1 $-1 $-1 $738 1 990560049 70 -364511231 42 #
loop $839 $-1 $840 $594 #
coedge $-1 $803 $803 $841 $842 reversed $738 $-1 #
loop $843 $844 $845 $486 #
coedge $-1 $805 $805 $846 $847 forward $744 $-1 #
coedge $-1 $806 $806 $745 $807 reversed $848 $-1 #
edge $849 $850 -3.1415926535897931 $850 3.1415926535897931 $806 $851 forward 7 unknown #
loop $-1 $-1 $746 $750 #
attrib_edge_convexity-kcp-attrib $-1 $852 $-1 $747 1 #
vertex $-1 $747 $853 #
ellipse-curve $-1 -0.62150000000000005 -6.4359999999999999 0.75 0 1 0 -0.0625 0 0 1 I I #
model_id-kcp-attrib $-1 $-1 $-1 $750 1 990560049 70 -364511231 13 #
face $854 $855 $856 $18 $-1 $857 forward single #
loop $-1 $808 $858 $750 #
cone-surface $-1 -0.62150000000000005 -6.4359999999999999 0.75 0 -1 0 0.0625 0 0 1 I I 0 1 0.0625 forward I I I I #
coedge $-1 $816 $816 $858 $859 reversed $751 $-1 #
convexity-sys-attrib $-1 $-1 $-1 $758 #
straight-curve $-1 0.068499999999999783 0.125 0.75 0 -1 0 I I #
point $-1 0.068500000000000005 -0.29649999999999999 0.75 #
convexity-sys-attrib $-1 $-1 $-1 $768 #
straight-curve $-1 0.31425000000000003 0.29649999999999999 0.75 -1 0 0 I I #
point $-1 0.28849999999999998 0.29649999999999999 0.75 #
coedge $-1 $823 $823 $778 $824 reversed $860 $-1 #
edge $861 $862 -3.1415926535897931 $862 3.1415926535897931 $823 $863 forward 7 unknown #
model_id-kcp-attrib $-1 $-1 $-1 $779 1 990560049 70 -364511231 53 #
face $864 $-1 $860 $18 $-1 $865 reversed single #
convexity-sys-attrib $-1 $-1 $780 $712 #
model_id-kcp-attrib $-1 $-1 $-1 $781 1 990560049 70 -364511231 57 #
point $-1 0.068500000000000005 -4.968 0.75 #
model_id-kcp-attrib $-1 $-1 $-1 $783 1 990560049 70 -364511231 35 #
face $866 $867 $868 $18 $-1 $869 reversed single #
convexity-sys-attrib $-1 $-1 $784 $714 #
model_id-kcp-attrib $-1 $-1 $-1 $785 1 990560049 70 -364511231 39 #
point $-1 -0.4965 -5.9359999999999999 1.1559999999999999 #
model_id-kcp-attrib $-1 $-1 $-1 $788 1 990560049 70 -364511231 18 #
loop $870 $715 $871 $788 #
cone-surface $-1 -0.62150000000000005 -6.4359999999999999 0.34399999999999997 0 -1 0 0.125 0 0 1 I I 0 1 0.125 forward I I I I #
convexity-sys-attrib $-1 $-1 $797 $732 #
model_id-kcp-attrib $-1 $-1 $-1 $802 1 990560049 70 -364511231 48 #
coedge $-1 $840 $840 $872 $873 reversed $802 $-1 #
coedge $-1 $841 $841 $803 $842 forward $874 $-1 #
edge $875 $876 0 $876 6.2831853071795862 $841 $877 forward 7 unknown #
model_id-kcp-attrib $-1 $-1 $-1 $804 1 990560049 70 -364511231 30 #
loop $878 $879 $880 $486 #
coedge $-1 $845 $845 $871 $881 forward $804 $-1 #
coedge $-1 $846 $846 $805 $847 reversed $882 $-1 #
edge $883 $884 -3.1415926535897931 $884 3.1415926535897931 $846 $885 forward 7 unknown #
loop $-1 $-1 $806 $855 #
attrib_edge_convexity-kcp-attrib $-1 $886 $-1 $807 1 #
vertex $-1 $807 $887 #
ellipse-curve $-1 0 -6.4359999999999999 0.75 0 1 0 -0.0625 0 0 1 I I #
convexity-sys-attrib $-1 $-1 $809 $747 #
point $-1 -0.55900000000000005 -6.4359999999999999 0.75 #
model_id-kcp-attrib $-1 $-1 $-1 $813 1 990560049 70 -364511231 14 #
face $888 $889 $890 $18 $-1 $891 reversed single #
loop $-1 $-1 $892 $813 #
plane-surface $-1 0 -6.056 0.75 0 -1 0 0 0 -1 forward_v I I I I #
coedge $-1 $858 $858 $816 $859 forward $814 $-1 #
edge $893 $894 0 $894 6.2831853071795862 $858 $895 forward 7 unknown #
loop $896 $779 $823 $826 #
attrib_edge_convexity-kcp-attrib $-1 $897 $-1 $824 1 #
vertex $898 $824 $899 #
ellipse-curve $-1 0.28849999999999998 -5.093 0.75 -1 0 0 0 -0.125 0 1 I I #
model_id-kcp-attrib $-1 $-1 $-1 $826 1 990560049 70 -364511231 26 #
cone-surface $-1 0.28849999999999998 -5.093 0.75 1 0 0 0 0.125 0 1 I I 0 1 0.125 forward I I I I #
model_id-kcp-attrib $-1 $-1 $-1 $831 1 990560049 70 -364511231 19 #
face $900 $901 $874 $18 $-1 $902 reversed single #
loop $903 $783 $904 $831 #
cone-surface $-1 -0.62150000000000005 -6.4359999999999999 1.1559999999999999 0 -1 0 0.125 0 0 1 I I 0 1 0.125 forward I I I I #
model_id-kcp-attrib $-1 $-1 $-1 $836 1 990560049 70 -364511231 28 #
coedge $-1 $871 $871 $845 $881 reversed $836 $-1 #
coedge $-1 $872 $872 $840 $873 forward $905 $-1 #
edge $906 $907 0 $907 6.2831853071795862 $872 $908 forward 7 unknown #
loop $909 $910 $841 $867 #
attrib_edge_convexity-kcp-attrib $-1 $911 $-1 $842 1 #
vertex $912 $842 $913 #
ellipse-curve $-1 0.62849999999999995 -5.343 0.34399999999999997 0 1 0 0.140625 0 0 1 I I #
model_id-kcp-attrib $-1 $-1 $-1 $844 1 990560049 70 -364511231 36 #
loop $-1 $914 $915 $486 #
coedge $-1 $880 $880 $904 $916 forward $844 $-1 #
edge $917 $918 -3.1415926535897931 $918 3.1415926535897931 $871 $919 forward 7 unknown #
loop $-1 $-1 $846 $920 #
attrib_edge_convexity-kcp-attrib $-1 $921 $-1 $847 1 #
vertex $-1 $847 $922 #
ellipse-curve $-1 0.62849999999999995 -6.4359999999999999 0.75 0 1 0 -0.125 0 0 1 I I #
convexity-sys-attrib $-1 $-1 $849 $807 #
point $-1 0.0625 -6.4359999999999999 0.75 #
model_id-kcp-attrib $-1 $-1 $-1 $855 1 990560049 70 -364511231 15 #
face $923 $920 $924 $18 $-1 $925 forward single #
loop $-1 $848 $926 $855 #
cone-surface $-1 0 -6.4359999999999999 0.75 0 -1 0 0.0625 0 0 1 I I 0 1 0.0625 forward I I I I #
coedge $-1 $892 $892 $926 $927 reversed $856 $-1 #
attrib_edge_convexity-kcp-attrib $-1 $928 $-1 $859 2 #
vertex $-1 $859 $929 #
ellipse-curve $-1 -0.62150000000000005 -6.056 0.75 0 1 0 0.0625 0 0 1 I I #
model_id-kcp-attrib $-1 $-1 $-1 $860 1 990560049 70 -364511231 52 #
convexity-sys-attrib $-1 $-1 $861 $824 #
model_id-kcp-attrib $-1 $-1 $-1 $862 1 990560049 70 -364511231 56 #
point $-1 0.28849999999999998 -4.968 0.75 #
model_id-kcp-attrib $-1 $-1 $-1 $867 1 990560049 70 -364511231 20 #
face $930 $931 $905 $18 $-1 $932 reversed single #
cone-surface $-1 0.62849999999999995 -6.4359999999999999 0.34399999999999997 0 -1 0 0.140625 0 0 1 I I 0 1 0.140625 forward I I I I #
model_id-kcp-attrib $-1 $-1 $-1 $868 1 990560049 70 -364511231 34 #
coedge $-1 $904 $904 $880 $916 reversed $868 $-1 #
loop $933 $934 $872 $901 #
attrib_edge_convexity-kcp-attrib $-1 $935 $-1 $873 1 #
vertex $936 $873 $937 #
ellipse-curve $-1 0.62849999999999995 -5.343 1.1559999999999999 0 1 0 0.140625 0 0 1 I I #
model_id-kcp-attrib $-1 $-1 $-1 $874 1 990560049 70 -364511231 40 #
loop $938 $-1 $939 $867 #
convexity-sys-attrib $-1 $-1 $875 $842 #
model_id-kcp-attrib $-1 $-1 $-1 $876 1 990560049 70 -364511231 44 #
point $-1 0.76912499999999995 -5.343 0.34399999999999997 #
loop $-1 $-1 $940 $486 #
coedge $-1 $915 $915 $941 $942 forward $879 $-1 #
edge $943 $944 -3.1415926535897931 $944 3.1415926535897931 $904 $945 forward 7 unknown #
attrib_edge_convexity-kcp-attrib $-1 $946 $-1 $881 1 #
vertex $947 $881 $948 #
ellipse-curve $-1 -0.62150000000000005 -6.4359999999999999 0.34399999999999997 0 1 0 -0.125 0 0 1 I I #
face $949 $788 $950 $18 $-1 $951 reversed single #
convexity-sys-attrib $-1 $-1 $883 $847 #
point $-1 0.75349999999999995 -6.4359999999999999 0.75 #
model_id-kcp-attrib $-1 $-1 $-1 $889 1 990560049 70 -364511231 16 #
loop $-1 $-1 $952 $889 #
plane-surface $-1 0.62849999999999995 -5.8159999999999998 0.75 0 -1 0 0 0 -1 forward_v I I I I #
coedge $-1 $926 $926 $892 $927 forward $890 $-1 #
edge $953 $954 0 $954 6.2831853071795862 $926 $955 forward 7 unknown #
convexity-sys-attrib $-1 $-1 $893 $859 #
point $-1 -0.55900000000000005 -6.056 0.75 #
model_id-kcp-attrib $-1 $-1 $-1 $901 1 990560049 70 -364511231 21 #
face $956 $957 $958 $18 $-1 $959 forward single #
cone-surface $-1 0.62849999999999995 -6.4359999999999999 1.1559999999999999 0 -1 0 0.140625 0 0 1 I I 0 1 0.140625 forward I I I I #
model_id-kcp-attrib $-1 $-1 $-1 $905 1 990560049 70 -364511231 46 #
loop $960 $-1 $961 $901 #
convexity-sys-attrib $-1 $-1 $906 $873 #
model_id-kcp-attrib $-1 $-1 $-1 $907 1 990560049 70 -364511231 50 #
point $-1 0.76912499999999995 -5.343 1.1559999999999999 #
model_id-kcp-attrib $-1 $-1 $-1 $910 1 990560049 70 -364511231 41 #
coedge $-1 $939 $939 $962 $963 reversed $910 $-1 #
coedge $-1 $940 $940 $964 $965 forward $914 $-1 #
coedge $-1 $941 $941 $915 $942 reversed $966 $-1 #
edge $967 $968 -3.1415926535897931 $968 3.1415926535897931 $941 $969 forward 7 unknown #
attrib_edge_convexity-kcp-attrib $-1 $970 $-1 $916 1 #
vertex $971 $916 $972 #
ellipse-curve $-1 -0.62150000000000005 -6.4359999999999999 1.1559999999999999 0 1 0 -0.125 0 0 1 I I #
convexity-sys-attrib $-1 $-1 $917 $881 #
model_id-kcp-attrib $-1 $-1 $-1 $918 1 990560049 70 -364511231 32 #
point $-1 -0.4965 -6.4359999999999999 0.34399999999999997 #
model_id-kcp-attrib $-1 $-1 $-1 $920 1 990560049 70 -364511231 17 #
loop $-1 $882 $973 $920 #
cone-surface $-1 0.62849999999999995 -6.4359999999999999 0.75 0 -1 0 0.125 0 0 1 I I 0 1 0.125 forward I I I I #
coedge $-1 $952 $952 $973 $974 reversed $924 $-1 #
attrib_edge_convexity-kcp-attrib $-1 $975 $-1 $927 2 #
vertex $-1 $927 $976 #
ellipse-curve $-1 0 -6.056 0.75 0 1 0 0.0625 0 0 1 I I #
model_id-kcp-attrib $-1 $-1 $-1 $931 1 990560049 70 -364511231 22 #
face $977 $978 $979 $18 $-1 $980 reversed single #
loop $-1 $981 $982 $931 #
plane-surface $-1 0.62849999999999995 -5.843 0.34399999999999997 0 -1 0 0 0 -1 forward_v I I I I #
model_id-kcp-attrib $-1 $-1 $-1 $934 1 990560049 70 -364511231 47 #
coedge $-1 $961 $961 $983 $984 reversed $934 $-1 #
coedge $-1 $962 $962 $939 $963 forward $981 $-1 #
edge $985 $986 -3.1415926535897931 $986 3.1415926535897931 $962 $987 forward 7 unknown #
coedge $-1 $964 $964 $940 $965 reversed $988 $-1 #
edge $989 $990 -3.1415926535897931 $990 3.1415926535897931 $964 $991 forward 7 unknown #
loop $-1 $-1 $941 $957 #
attrib_edge_convexity-kcp-attrib $-1 $992 $-1 $942 1 #
vertex $-1 $942 $993 #
ellipse-curve $-1 0.62849999999999995 -6.4359999999999999 0.34399999999999997 0 1 0 -0.203125 0 0 1 I I #
convexity-sys-attrib $-1 $-1 $943 $916 #
model_id-kcp-attrib $-1 $-1 $-1 $944 1 990560049 70 -364511231 38 #
point $-1 -0.4965 -6.4359999999999999 1.1559999999999999 #
coedge $-1 $973 $973 $952 $974 forward $950 $-1 #
edge $994 $995 0 $995 6.2831853071795862 $973 $996 forward 7 unknown #
convexity-sys-attrib $-1 $-1 $953 $927 #
point $-1 0.0625 -6.056 0.75 #
model_id-kcp-attrib $-1 $-1 $-1 $957 1 990560049 70 -364511231 23 #
face $997 $998 $999 $18 $-1 $1000 forward single #
loop $-1 $966 $1001 $957 #
cone-surface $-1 0.62849999999999995 -6.4359999999999999 0.34399999999999997 0 -1 0 0.203125 0 0 1 I I 0 1 0.203125 forward I I I I #
loop $1002 $-1 $962 $931 #
coedge $-1 $982 $982 $1001 $1003 reversed $958 $-1 #
coedge $-1 $983 $983 $961 $984 forward $1004 $-1 #
edge $1005 $1006 -3.1415926535897931 $1006 3.1415926535897931 $983 $1007 forward 7 unknown #
attrib_edge_convexity-kcp-attrib $-1 $1008 $-1 $963 1 #
vertex $1009 $963 $1010 #
ellipse-curve $-1 0.62849999999999995 -5.843 0.34399999999999997 0 1 0 -0.140625 0 0 1 I I #
loop $-1 $-1 $964 $998 #
attrib_edge_convexity-kcp-attrib $-1 $1011 $-1 $965 1 #
vertex $-1 $965 $1012 #
ellipse-curve $-1 0.62849999999999995 -6.4359999999999999 1.1559999999999999 0 1 0 -0.203125 0 0 1 I I #
convexity-sys-attrib $-1 $-1 $967 $942 #
point $-1 0.83162499999999995 -6.4359999999999999 0.34399999999999997 #
attrib_edge_convexity-kcp-attrib $-1 $1013 $-1 $974 2 #
vertex $-1 $974 $1014 #
ellipse-curve $-1 0.62849999999999995 -5.8159999999999998 0.75 0 1 0 0.125 0 0 1 I I #
model_id-kcp-attrib $-1 $-1 $-1 $978 1 990560049 70 -364511231 24 #
face $1015 $826 $1016 $18 $-1 $1017 reversed single #
loop $-1 $1004 $1018 $978 #
plane-surface $-1 0.62849999999999995 -5.843 1.1559999999999999 0 -1 0 0 0 -1 forward_v I I I I #
coedge $-1 $1001 $1001 $982 $1003 forward $979 $-1 #
model_id-kcp-attrib $-1 $-1 $-1 $981 1 990560049 70 -364511231 43 #
edge $1019 $1020 0 $1020 6.2831853071795862 $1001 $1021 forward 7 unknown #
loop $1022 $-1 $983 $978 #
attrib_edge_convexity-kcp-attrib $-1 $1023 $-1 $984 1 #
vertex $1024 $984 $1025 #
ellipse-curve $-1 0.62849999999999995 -5.843 1.1559999999999999 0 1 0 -0.140625 0 0 1 I I #
convexity-sys-attrib $-1 $-1 $985 $963 #
model_id-kcp-attrib $-1 $-1 $-1 $986 1 990560049 70 -364511231 45 #
point $-1 0.76912499999999995 -5.843 0.34399999999999997 #
convexity-sys-attrib $-1 $-1 $989 $965 #
point $-1 0.83162499999999995 -6.4359999999999999 1.1559999999999999 #
convexity-sys-attrib $-1 $-1 $994 $974 #
point $-1 0.75349999999999995 -5.8159999999999998 0.75 #
model_id-kcp-attrib $-1 $-1 $-1 $998 1 990560049 70 -364511231 25 #
loop $-1 $988 $1026 $998 #
cone-surface $-1 0.62849999999999995 -6.4359999999999999 1.1559999999999999 0 -1 0 0.203125 0 0 1 I I 0 1 0.203125 forward I I I I #
coedge $-1 $1018 $1018 $1026 $1027 reversed $999 $-1 #
attrib_edge_convexity-kcp-attrib $-1 $1028 $-1 $1003 2 #
vertex $-1 $1003 $1029 #
ellipse-curve $-1 0.62849999999999995 -5.843 0.34399999999999997 0 1 0 0.203125 0 0 1 I I #
model_id-kcp-attrib $-1 $-1 $-1 $1004 1 990560049 70 -364511231 49 #
convexity-sys-attrib $-1 $-1 $1005 $984 #
model_id-kcp-attrib $-1 $-1 $-1 $1006 1 990560049 70 -364511231 51 #
point $-1 0.76912499999999995 -5.843 1.1559999999999999 #
coedge $-1 $1026 $1026 $1018 $1027 forward $1016 $-1 #
edge $1030 $1031 0 $1031 6.2831853071795862 $1026 $1032 forward 7 unknown #
convexity-sys-attrib $-1 $-1 $1019 $1003 #
point $-1 0.83162499999999995 -5.843 0.34399999999999997 #
attrib_edge_convexity-kcp-attrib $-1 $1033 $-1 $1027 2 #
vertex $-1 $1027 $1034 #
ellipse-curve $-1 0.62849999999999995 -5.843 1.1559999999999999 0 1 0 0.203125 0 0 1 I I #
convexity-sys-attrib $-1 $-1 $1030 $1027 #
point $-1 0.83162499999999995 -5.843 1.1559999999999999 #
End-of-ACIS-data 