700 0 2 0           
24 FBMach with ACIS - 7.0.3 13 ACIS 7.0.3 NT 24 Tue May 14 14:20:08 2002 
1 9.9999999999999995e-007 1e-010 
body $2 -1 $-1 $3 $-1 $4 #
bdycol-kcp $-1 -1 1 4 $5 $6 $7 $8 #
model_id-kcp-attrib $-1 -1 $-1 $-1 $0 1 1021400407 1021400407 1301479425 1 #
lump $-1 -1 $-1 $-1 $9 $0 #
transform $-1 -1 1 0 0 0 1 0 0 0 1 0 0 0 1 rotate no_reflect no_shear #
body $10 -1 $-1 $11 $-1 $12 #
body $13 -1 $-1 $14 $-1 $15 #
body $16 -1 $-1 $17 $-1 $18 #
body $19 -1 $-1 $20 $-1 $21 #
shell $-1 -1 $-1 $-1 $-1 $22 $-1 $3 #
rgb_color-st-attrib $-1 -1 $23 $-1 $5 1 0.5 1 #
lump $-1 -1 $-1 $-1 $24 $5 #
transform $-1 -1 1 0 0 0 1 0 0 0 1 0 0 0.97350000000000003 1 no_rotate no_reflect no_shear #
model_id-kcp-attrib $-1 -1 $-1 $-1 $6 1 1021400407 1021400407 1301479426 1 #
lump $-1 -1 $-1 $-1 $25 $6 #
transform $-1 -1 1 0 0 0 1 0 0 0 1 0 0 0.97350000000000003 1 no_rotate no_reflect no_shear #
rgb_color-st-attrib $-1 -1 $26 $-1 $7 0.5 1 1 #
lump $-1 -1 $-1 $-1 $27 $7 #
transform $-1 -1 -1 0 -1.2246063538223773e-016 0 1 0 1.2246063538223773e-016 0 -1 1.6452586363603638e-016 0 0.97350000000000003 1 rotate no_reflect no_shear #
rgb_color-st-attrib $-1 -1 $28 $-1 $8 0.5 1 1 #
lump $-1 -1 $-1 $-1 $29 $8 #
transform $-1 -1 1 0 0 0 1 0 0 0 1 0 0 0.97350000000000003 1 no_rotate no_reflect no_shear #
face $30 -1 $-1 $31 $32 $9 $-1 $33 reversed single #
model_id-kcp-attrib $-1 -1 $-1 $10 $5 1 1021400407 1021400407 1295843333 1 #
shell $-1 -1 $-1 $-1 $-1 $34 $-1 $11 #
shell $-1 -1 $-1 $-1 $-1 $35 $-1 $14 #
model_id-kcp-attrib $-1 -1 $-1 $16 $7 1 1021400407 1021400407 1302790147 1 #
shell $-1 -1 $-1 $-1 $-1 $36 $-1 $17 #
model_id-kcp-attrib $-1 -1 $-1 $19 $8 1 1021400407 1021400407 1306066948 1 #
shell $-1 -1 $-1 $-1 $-1 $37 $-1 $20 #
model_id-kcp-attrib $-1 -1 $-1 $-1 $22 1 1021400407 1021400407 1301479425 2 #
face $38 -1 $-1 $39 $40 $9 $-1 $41 forward single #
loop $-1 -1 $-1 $42 $43 $22 #
plane-surface $-1 -1 $-1 0 0 0 0 0 1 1 0 0 forward_v I I I I #
face $-1 -1 $-1 $44 $45 $24 $-1 $46 forward single #
face $47 -1 $-1 $48 $49 $25 $-1 $50 forward single #
face $-1 -1 $-1 $51 $52 $27 $-1 $53 forward single #
face $-1 -1 $-1 $54 $55 $29 $-1 $56 reversed single #
model_id-kcp-attrib $-1 -1 $-1 $-1 $31 1 1021400407 1021400407 1301479425 3 #
face $57 -1 $-1 $58 $59 $9 $-1 $60 forward single #
loop $-1 -1 $-1 $61 $62 $31 #
plane-surface $-1 -1 $-1 0 0 2.3170000000000002 0 0 1 1 0 0 forward_v I I I I #
loop $-1 -1 $-1 $-1 $63 $22 #
coedge $-1 -1 $-1 $43 $43 $64 $65 forward $32 $-1 #
face $-1 -1 $-1 $66 $67 $24 $-1 $68 forward single #
loop $-1 -1 $-1 $69 $70 $34 #
cone-surface $-1 -1 $-1 0 0 -0.97350000000000048 0 0 -1 -0.40625 0 0 1 I I 0 -1 0.40625 forward I I I I #
model_id-kcp-attrib $-1 -1 $-1 $-1 $35 1 1021400407 1021400407 1301479426 2 #
face $71 -1 $-1 $72 $73 $25 $-1 $74 reversed single #
loop $-1 -1 $-1 $-1 $75 $35 #
plane-surface $-1 -1 $-1 0 0 1.3435000000000001 0 0 1 1 0 0 forward_v I I I I #
face $-1 -1 $-1 $76 $77 $27 $-1 $78 forward single #
loop $-1 -1 $-1 $79 $80 $36 #
cone-surface $-1 -1 $-1 0 0 0 0 0 1 0.19 0 0 1 I I 0 1 0.19 forward I I I I #
face $-1 -1 $-1 $81 $82 $29 $-1 $56 reversed single #
loop $-1 -1 $-1 $-1 $83 $37 #
cone-surface $-1 -1 $-1 1.8745759022776718e-033 0 1.3435000000000001 0 0 1 0.5 -6.1230317691118863e-017 0 1 I I 0 1 0.5 forward I I I I #
model_id-kcp-attrib $-1 -1 $-1 $-1 $39 1 1021400407 1021400407 1301479425 4 #
face $84 -1 $-1 $85 $86 $9 $-1 $87 forward single #
loop $-1 -1 $-1 $88 $89 $39 #
cone-surface $-1 -1 $-1 0 0 0 0 0 1 0.5 0 0 1 I I 0 1 0.5 forward I I I I #
loop $90 -1 $-1 $-1 $91 $31 #
coedge $-1 -1 $-1 $62 $62 $89 $92 reversed $40 $-1 #
coedge $-1 -1 $-1 $63 $63 $93 $94 forward $42 $-1 #
coedge $-1 -1 $-1 $64 $64 $43 $65 reversed $88 $-1 #
edge $95 -1 $-1 $96 -3.1415926535897931 $96 3.1415926535897931 $64 $97 forward @7 unknown #
face $-1 -1 $-1 $98 $99 $24 $-1 $100 reversed single #
loop $-1 -1 $-1 $101 $102 $44 #
cone-surface $-1 -1 $-1 1.8745759022776718e-033 0 -0.97350000000000048 0 0 -1 0.5 -6.1230317691118863e-017 0 1 I I 0 1 0.5 forward I I I I #
loop $-1 -1 $-1 $-1 $103 $34 #
coedge $-1 -1 $-1 $70 $70 $104 $105 forward $45 $-1 #
model_id-kcp-attrib $-1 -1 $-1 $-1 $48 1 1021400407 1021400407 1301479426 3 #
face $-1 -1 $-1 $106 $107 $25 $-1 $108 reversed single #
loop $-1 -1 $-1 $-1 $109 $48 #
plane-surface $-1 -1 $-1 0 0 -1.3435000000000001 0 0 1 1 0 0 forward_v I I I I #
coedge $-1 -1 $-1 $110 $111 $112 $113 forward $49 $-1 #
face $-1 -1 $-1 $-1 $114 $27 $-1 $115 forward single #
loop $-1 -1 $-1 $-1 $116 $51 #
plane-surface $-1 -1 $-1 0 0 -1.3435000000000001 0 0 -1 -1 0 0 forward_v I I I I #
loop $-1 -1 $-1 $-1 $117 $36 #
coedge $-1 -1 $-1 $80 $80 $116 $118 reversed $52 $-1 #
face $-1 -1 $-1 $119 $120 $29 $-1 $56 reversed single #
loop $-1 -1 $-1 $-1 $121 $54 #
coedge $-1 -1 $-1 $122 $123 $124 $125 reversed $55 $-1 #
model_id-kcp-attrib $-1 -1 $-1 $-1 $58 1 1021400407 1021400407 1301479425 5 #
face $126 -1 $-1 $127 $128 $9 $-1 $129 forward single #
loop $-1 -1 $-1 $130 $131 $58 #
plane-surface $-1 -1 $-1 0 0 -0.37 0 0 -1 -1 0 0 forward_v I I I I #
loop $-1 -1 $-1 $-1 $64 $39 #
coedge $-1 -1 $-1 $89 $89 $62 $92 forward $59 $-1 #
model_id-kcp-attrib $-1 -1 $-1 $-1 $61 1 1021400407 1021400407 1301479425 13 #
coedge $-1 -1 $-1 $91 $91 $132 $133 reversed $61 $-1 #
edge $134 -1 $-1 $135 0 $135 6.2831853071795862 $89 $136 forward @7 unknown #
coedge $-1 -1 $-1 $93 $93 $63 $94 reversed $137 $-1 #
edge $138 -1 $-1 $139 -3.1415926535897931 $139 3.1415926535897931 $93 $140 forward @7 unknown #
attrib_edge_convexity-kcp-attrib $-1 -1 $141 $-1 $65 1 #
vertex $-1 -1 $-1 $65 $142 #
ellipse-curve $-1 -1 $-1 0 0 0 0 0 -1 -0.5 0 0 1 I I #
face $-1 -1 $-1 $-1 $143 $24 $-1 $144 forward single #
loop $-1 -1 $-1 $145 $146 $66 #
plane-surface $-1 -1 $-1 -0.041634012539184931 -2.4370226555541877e-018 -1.3435000000000008 -3.4211388289180104e-049 2.3758634321950466e-032 1 1 0 3.4211388289180104e-049 forward_v I I I I #
loop $-1 -1 $-1 $-1 $147 $44 #
coedge $-1 -1 $-1 $102 $102 $146 $148 forward $67 $-1 #
coedge $-1 -1 $-1 $103 $103 $149 $150 reversed $69 $-1 #
coedge $-1 -1 $-1 $104 $104 $70 $105 reversed $145 $-1 #
edge $-1 -1 $-1 $151 0 $151 6.2831853071795862 $70 $152 forward @7 unknown #
face $-1 -1 $-1 $153 $154 $25 $-1 $155 reversed single #
loop $-1 -1 $-1 $-1 $156 $72 #
plane-surface $-1 -1 $-1 0 -0.5 0 0 1 0 0 0 1 forward_v I I I I #
coedge $-1 -1 $-1 $157 $158 $159 $160 forward $73 $-1 #
coedge $-1 -1 $-1 $161 $75 $162 $163 forward $49 $-1 #
coedge $-1 -1 $-1 $75 $161 $164 $165 forward $49 $-1 #
coedge $-1 -1 $-1 $166 $167 $75 $113 reversed $168 $-1 #
edge $-1 -1 $-1 $169 -0.5 $170 0.5 $112 $171 forward @7 unknown #
loop $-1 -1 $-1 $-1 $172 $76 #
plane-surface $-1 -1 $-1 0 0 1.3435000000000001 0 0 1 1 0 0 forward_v I I I I #
coedge $-1 -1 $-1 $116 $116 $80 $118 forward $77 $-1 #
coedge $-1 -1 $-1 $117 $117 $172 $173 reversed $79 $-1 #
edge $-1 -1 $-1 $174 0 $174 6.2831853071795862 $116 $175 forward @7 unknown #
face $-1 -1 $-1 $176 $177 $29 $-1 $56 reversed single #
loop $-1 -1 $-1 $-1 $178 $81 #
coedge $-1 -1 $-1 $179 $180 $181 $182 reversed $82 $-1 #
coedge $-1 -1 $-1 $183 $83 $184 $185 reversed $55 $-1 #
coedge $-1 -1 $-1 $83 $183 $186 $187 reversed $55 $-1 #
coedge $-1 -1 $-1 $188 $189 $190 $125 forward $191 $-1 #
edge $-1 -1 $-1 $192 -2.6870000000000003 $193 0 $124 $194 forward @7 unknown #
model_id-kcp-attrib $-1 -1 $-1 $-1 $85 1 1021400407 1021400407 1301479425 6 #
face $195 -1 $-1 $-1 $196 $9 $-1 $197 reversed single #
loop $-1 -1 $-1 $137 $198 $85 #
cone-surface $-1 -1 $-1 0 0 0 0 0 -1 -0.40625 0 0 1 I I 0 1 0.40625 forward I I I I #
loop $199 -1 $-1 $-1 $200 $58 #
coedge $-1 -1 $-1 $131 $131 $198 $201 reversed $86 $-1 #
coedge $-1 -1 $-1 $132 $132 $91 $133 forward $202 $-1 #
edge $203 -1 $-1 $204 0 $204 6.2831853071795862 $132 $205 forward @7 unknown #
attrib_edge_convexity-kcp-attrib $-1 -1 $206 $-1 $92 1 #
vertex $-1 -1 $-1 $92 $207 #
ellipse-curve $-1 -1 $-1 0 0 2.3170000000000002 0 0 -1 0.5 0 0 1 I I #
loop $-1 -1 $-1 $-1 $93 $85 #
attrib_edge_convexity-kcp-attrib $-1 -1 $208 $-1 $94 2 #
vertex $-1 -1 $-1 $94 $209 #
ellipse-curve $-1 -1 $-1 0 0 0 0 0 1 0.40625 0 0 1 I I #
convexity-sys-attrib $-1 -1 $-1 $95 $65 #
point $-1 -1 $-1 0.5 0 0 #
loop $-1 -1 $-1 $210 $211 $98 #
plane-surface $-1 -1 $-1 -0.041634012539184931 -2.4370226555541877e-018 -0.9735000000000007 -3.4211388289180104e-049 2.3758634321950466e-032 1 1 0 3.4211388289180104e-049 forward_v I I I I #
loop $-1 -1 $-1 $-1 $104 $66 #
coedge $-1 -1 $-1 $146 $146 $102 $148 reversed $99 $-1 #
coedge $-1 -1 $-1 $147 $147 $211 $212 reversed $101 $-1 #
edge $-1 -1 $-1 $213 -3.1415926535897931 $213 3.1415926535897931 $102 $214 forward @7 unknown #
coedge $-1 -1 $-1 $149 $149 $103 $150 forward $210 $-1 #
edge $215 -1 $-1 $216 0 $216 6.2831853071795862 $103 $217 forward @7 unknown #
vertex $-1 -1 $-1 $105 $218 #
ellipse-curve $-1 -1 $-1 0 0 -1.3435000000000006 0 0 -1 -0.40625 0 0 1 I I #
face $-1 -1 $-1 $219 $220 $25 $-1 $221 reversed single #
loop $-1 -1 $-1 $-1 $222 $106 #
plane-surface $-1 -1 $-1 -0.5 0 0 1 0 0 0 0 -1 forward_v I I I I #
coedge $-1 -1 $-1 $223 $164 $224 $225 forward $107 $-1 #
coedge $-1 -1 $-1 $226 $109 $223 $227 forward $73 $-1 #
coedge $-1 -1 $-1 $109 $226 $228 $229 forward $73 $-1 #
coedge $-1 -1 $-1 $167 $166 $109 $160 reversed $168 $-1 #
edge $-1 -1 $-1 $230 -0.5 $231 0.5 $159 $232 forward @7 unknown #
coedge $-1 -1 $-1 $111 $110 $233 $234 forward $49 $-1 #
coedge $-1 -1 $-1 $235 $236 $110 $163 reversed $220 $-1 #
edge $-1 -1 $-1 $170 -0.5 $237 0.5 $162 $238 forward @7 unknown #
coedge $-1 -1 $-1 $156 $239 $111 $165 reversed $107 $-1 #
edge $-1 -1 $-1 $240 -0.5 $169 0.5 $164 $241 forward @7 unknown #
coedge $-1 -1 $-1 $159 $112 $239 $242 forward $168 $-1 #
coedge $-1 -1 $-1 $112 $159 $235 $243 reversed $168 $-1 #
loop $-1 -1 $-1 $-1 $166 $219 #
vertex $-1 -1 $-1 $113 $244 #
vertex $-1 -1 $-1 $113 $245 #
straight-curve $-1 -1 $-1 0.5 0 1.3435000000000001 0 1 0 I I #
coedge $-1 -1 $-1 $172 $172 $117 $173 forward $114 $-1 #
edge $-1 -1 $-1 $246 0 $246 6.2831853071795862 $172 $247 forward @7 unknown #
vertex $-1 -1 $-1 $118 $248 #
ellipse-curve $-1 -1 $-1 0 0 -1.3435000000000001 0 0 -1 0.19 0 0 1 I I #
face $-1 -1 $-1 $249 $250 $29 $-1 $251 reversed single #
loop $-1 -1 $-1 $-1 $252 $119 #
coedge $-1 -1 $-1 $253 $254 $255 $256 reversed $120 $-1 #
coedge $-1 -1 $-1 $257 $121 $258 $259 reversed $82 $-1 #
coedge $-1 -1 $-1 $121 $257 $83 $125 forward $82 $-1 #
coedge $-1 -1 $-1 $260 $261 $121 $182 forward $262 $-1 #
edge $-1 -1 $-1 $263 -3.1415926535897931 $193 -1.5707963267948968 $181 $264 forward @7 unknown #
coedge $-1 -1 $-1 $123 $122 $254 $265 forward $55 $-1 #
coedge $-1 -1 $-1 $266 $267 $122 $185 forward $268 $-1 #
edge $-1 -1 $-1 $269 1.2246063538223773e-016 $192 1.5707963267948968 $184 $270 forward @7 unknown #
coedge $-1 -1 $-1 $271 $272 $123 $187 forward $273 $-1 #
edge $-1 -1 $-1 $193 -1.5707963267948968 $274 -1.2246063538223773e-016 $186 $264 forward @7 unknown #
coedge $-1 -1 $-1 $275 $124 $272 $276 reversed $191 $-1 #
coedge $-1 -1 $-1 $124 $275 $266 $277 reversed $191 $-1 #
coedge $-1 -1 $-1 $278 $279 $180 $125 reversed $280 $-1 #
loop $-1 -1 $-1 $-1 $124 $281 #
vertex $-1 -1 $-1 $277 $282 #
vertex $-1 -1 $-1 $283 $284 #
straight-curve $-1 -1 $-1 1.8745759022776718e-033 0.5 1.3435000000000001 0 0 1 I I #
model_id-kcp-attrib $-1 -1 $-1 $-1 $127 1 1021400407 1021400407 1301479425 7 #
loop $285 -1 $-1 $202 $286 $127 #
cone-surface $-1 -1 $-1 0 0 2.3170000000000002 0 0 -1 -0.19 0 0 1 I I 0 1 0.19 forward I I I I #
coedge $-1 -1 $-1 $198 $198 $131 $201 forward $128 $-1 #
model_id-kcp-attrib $-1 -1 $-1 $-1 $130 1 1021400407 1021400407 1301479425 12 #
coedge $-1 -1 $-1 $200 $200 $286 $287 forward $130 $-1 #
edge $-1 -1 $-1 $288 0 $288 6.2831853071795862 $198 $289 forward @7 unknown #
loop $290 -1 $-1 $-1 $132 $127 #
attrib_edge_convexity-kcp-attrib $-1 -1 $291 $-1 $133 1 #
vertex $292 -1 $-1 $133 $293 #
ellipse-curve $-1 -1 $-1 0 0 2.3170000000000002 0 0 1 -0.19 0 0 1 I I #
convexity-sys-attrib $-1 -1 $-1 $134 $92 #
point $-1 -1 $-1 0.5 0 2.3170000000000002 #
convexity-sys-attrib $-1 -1 $-1 $138 $94 #
point $-1 -1 $-1 -0.40625 0 0 #
loop $-1 -1 $-1 $-1 $149 $98 #
coedge $-1 -1 $-1 $211 $211 $147 $212 forward $143 $-1 #
edge $294 -1 $-1 $295 -3.1415926535897931 $295 3.1415926535897931 $147 $296 forward @7 unknown #
vertex $-1 -1 $-1 $148 $297 #
ellipse-curve $-1 -1 $-1 1.8745759022776718e-033 0 -1.3435000000000006 0 0 1 0.5 -6.1230317691118863e-017 0 1 I I #
convexity-sys-attrib $-1 -1 $-1 $-1 $150 #
vertex $-1 -1 $-1 $150 $298 #
ellipse-curve $-1 -1 $-1 0 0 -0.97350000000000048 0 0 -1 -0.40625 0 0 1 I I #
point $-1 -1 $-1 -0.40625 0 -1.3435000000000001 #
face $-1 -1 $-1 $-1 $168 $25 $-1 $299 reversed single #
loop $-1 -1 $-1 $-1 $235 $153 #
plane-surface $-1 -1 $-1 0 0.5 0 0 -1 0 0 0 -1 forward_v I I I I #
coedge $-1 -1 $-1 $300 $233 $236 $301 forward $154 $-1 #
coedge $-1 -1 $-1 $239 $156 $157 $227 reversed $107 $-1 #
coedge $-1 -1 $-1 $233 $300 $156 $225 reversed $154 $-1 #
edge $-1 -1 $-1 $240 -1.3435000000000001 $302 1.3435000000000001 $224 $303 forward @7 unknown #
coedge $-1 -1 $-1 $158 $157 $300 $304 forward $73 $-1 #
edge $-1 -1 $-1 $231 -0.5 $302 0.5 $223 $305 forward @7 unknown #
coedge $-1 -1 $-1 $236 $235 $158 $229 reversed $220 $-1 #
edge $-1 -1 $-1 $306 -0.5 $230 0.5 $228 $307 forward @7 unknown #
vertex $-1 -1 $-1 $160 $308 #
vertex $-1 -1 $-1 $242 $309 #
straight-curve $-1 -1 $-1 0.5 0 -1.3435000000000001 0 -1 0 I I #
coedge $-1 -1 $-1 $222 $224 $161 $234 reversed $154 $-1 #
edge $-1 -1 $-1 $237 -0.5 $240 0.5 $233 $310 forward @7 unknown #
coedge $-1 -1 $-1 $228 $162 $167 $243 forward $220 $-1 #
coedge $-1 -1 $-1 $162 $228 $222 $301 reversed $220 $-1 #
vertex $-1 -1 $-1 $163 $311 #
straight-curve $-1 -1 $-1 0 0.5 1.3435000000000001 -1 0 0 I I #
coedge $-1 -1 $-1 $164 $223 $166 $242 reversed $107 $-1 #
vertex $-1 -1 $-1 $234 $312 #
straight-curve $-1 -1 $-1 0 -0.5 1.3435000000000001 1 0 0 I I #
edge $-1 -1 $-1 $169 -1.3435000000000001 $231 1.3435000000000001 $166 $313 forward @7 unknown #
edge $-1 -1 $-1 $170 -1.3435000000000001 $230 1.3435000000000001 $167 $314 forward @7 unknown #
point $-1 -1 $-1 0.5 -0.5 1.3435000000000001 #
point $-1 -1 $-1 0.5 0.5 1.3435000000000001 #
vertex $-1 -1 $-1 $173 $315 #
ellipse-curve $-1 -1 $-1 0 0 1.3435000000000001 0 0 1 0.19 0 0 1 I I #
point $-1 -1 $-1 0.19 0 -1.3435000000000001 #
face $-1 -1 $-1 $316 $280 $29 $-1 $317 reversed single #
loop $-1 -1 $-1 $-1 $318 $176 #
plane-surface $-1 -1 $-1 0.5 0 0 -1 0 0 0 0 1 forward_v I I I I #
coedge $-1 -1 $-1 $319 $320 $321 $322 reversed $177 $-1 #
coedge $-1 -1 $-1 $323 $178 $320 $324 forward $120 $-1 #
coedge $-1 -1 $-1 $178 $323 $325 $265 reversed $120 $-1 #
coedge $-1 -1 $-1 $326 $327 $178 $256 forward $328 $-1 #
edge $-1 -1 $-1 $329 -1.5707963267948966 $269 1.2246063538223773e-016 $255 $270 forward @7 unknown #
coedge $-1 -1 $-1 $180 $179 $330 $331 reversed $82 $-1 #
coedge $-1 -1 $-1 $332 $333 $334 $259 forward $335 $-1 #
edge $-1 -1 $-1 $336 -2.6870000000000003 $263 0 $258 $337 forward @7 unknown #
coedge $-1 -1 $-1 $261 $181 $279 $283 forward $262 $-1 #
coedge $-1 -1 $-1 $181 $260 $332 $338 forward $262 $-1 #
loop $-1 -1 $-1 $-1 $181 $339 #
vertex $-1 -1 $-1 $340 $341 #
ellipse-curve $-1 -1 $-1 1.8745759022776718e-033 0 1.3435000000000001 0 0 -1 0.5 -6.1230317691118863e-017 0 1 I I #
edge $-1 -1 $-1 $269 -2.6870000000000003 $274 0 $325 $342 forward @7 unknown #
coedge $-1 -1 $-1 $267 $184 $189 $277 forward $268 $-1 #
coedge $-1 -1 $-1 $184 $266 $343 $344 forward $268 $-1 #
loop $-1 -1 $-1 $-1 $184 $345 #
vertex $-1 -1 $-1 $346 $347 #
ellipse-curve $-1 -1 $-1 1.8745759022776718e-033 0 -1.3435000000000001 0 0 1 0.5 -6.1230317691118863e-017 0 1 I I #
coedge $-1 -1 $-1 $272 $186 $348 $349 forward $273 $-1 #
coedge $-1 -1 $-1 $186 $271 $188 $276 forward $273 $-1 #
loop $-1 -1 $-1 $-1 $186 $350 #
vertex $-1 -1 $-1 $349 $351 #
coedge $-1 -1 $-1 $189 $188 $352 $353 forward $191 $-1 #
edge $-1 -1 $-1 $354 -0.5 $193 -1.8745759022776718e-033 $188 $355 forward @7 unknown #
edge $-1 -1 $-1 $192 1.8745759022776718e-033 $356 0.5 $189 $357 forward @7 unknown #
coedge $-1 -1 $-1 $358 $190 $359 $360 reversed $280 $-1 #
coedge $-1 -1 $-1 $190 $358 $260 $283 reversed $280 $-1 #
loop $-1 -1 $-1 $-1 $190 $249 #
face $-1 -1 $-1 $361 $191 $29 $-1 $317 reversed single #
point $-1 -1 $-1 1.8745759022776718e-033 0.5 -1.3435000000000001 #
edge $-1 -1 $-1 $193 -1.8745759022776718e-033 $362 0.5 $279 $355 forward @7 unknown #
point $-1 -1 $-1 1.8745759022776718e-033 0.5 1.3435000000000001 #
model_id-kcp-attrib $-1 -1 $-1 $-1 $196 1 1021400407 1021400407 1301479425 10 #
coedge $-1 -1 $-1 $286 $286 $200 $287 reversed $196 $-1 #
edge $363 -1 $-1 $364 -3.1415926535897931 $364 3.1415926535897931 $286 $365 forward @7 unknown #
vertex $-1 -1 $-1 $201 $366 #
ellipse-curve $-1 -1 $-1 0 0 -0.37 0 0 1 -0.40625 0 0 1 I I #
model_id-kcp-attrib $-1 -1 $-1 $-1 $202 1 1021400407 1021400407 1301479425 11 #
convexity-sys-attrib $-1 -1 $-1 $203 $133 #
model_id-kcp-attrib $-1 -1 $-1 $-1 $204 1 1021400407 1021400407 1301479425 15 #
point $-1 -1 $-1 -0.19 0 2.3170000000000002 #
convexity-sys-attrib $-1 -1 $-1 $-1 $212 #
vertex $-1 -1 $-1 $212 $367 #
ellipse-curve $-1 -1 $-1 1.8745759022776718e-033 0 -0.97350000000000048 0 0 1 0.5 -6.1230317691118863e-017 0 1 I I #
point $-1 -1 $-1 -0.5 0 -1.3435000000000006 #
point $-1 -1 $-1 -0.40625 0 -0.97350000000000003 #
plane-surface $-1 -1 $-1 0.5 0 0 -1 0 0 0 0 1 forward_v I I I I #
coedge $-1 -1 $-1 $224 $222 $226 $304 reversed $154 $-1 #
edge $-1 -1 $-1 $237 -1.3435000000000001 $306 1.3435000000000001 $236 $368 forward @7 unknown #
vertex $-1 -1 $-1 $304 $369 #
straight-curve $-1 -1 $-1 -0.5 -0.5 0 0 0 -1 I I #
edge $-1 -1 $-1 $302 -0.5 $306 0.5 $300 $370 forward @7 unknown #
straight-curve $-1 -1 $-1 0 -0.5 -1.3435000000000001 -1 0 0 I I #
vertex $-1 -1 $-1 $229 $371 #
straight-curve $-1 -1 $-1 0 0.5 -1.3435000000000001 1 0 0 I I #
point $-1 -1 $-1 0.5 0.5 -1.3435000000000001 #
point $-1 -1 $-1 0.5 -0.5 -1.3435000000000001 #
straight-curve $-1 -1 $-1 -0.5 0 1.3435000000000001 0 -1 0 I I #
point $-1 -1 $-1 -0.5 0.5 1.3435000000000001 #
point $-1 -1 $-1 -0.5 -0.5 1.3435000000000001 #
straight-curve $-1 -1 $-1 0.5 -0.5 0 0 0 -1 I I #
straight-curve $-1 -1 $-1 0.5 0.5 0 0 0 -1 I I #
point $-1 -1 $-1 0.19 0 1.3435000000000001 #
face $-1 -1 $-1 $372 $373 $29 $-1 $374 reversed single #
plane-surface $-1 -1 $-1 0 0.5 0 0 -1 0 0 0 -1 forward_v I I I I #
coedge $-1 -1 $-1 $343 $348 $183 $265 reversed $250 $-1 #
coedge $-1 -1 $-1 $375 $252 $179 $259 forward $177 $-1 #
coedge $-1 -1 $-1 $252 $375 $376 $324 reversed $177 $-1 #
coedge $-1 -1 $-1 $377 $378 $252 $322 forward $379 $-1 #
edge $-1 -1 $-1 $336 -3.1415926535897931 $329 -1.5707963267948966 $321 $270 forward @7 unknown #
coedge $-1 -1 $-1 $254 $253 $380 $381 reversed $120 $-1 #
edge $-1 -1 $-1 $329 -2.6870000000000003 $382 0 $376 $383 forward @7 unknown #
coedge $-1 -1 $-1 $384 $385 $318 $265 forward $386 $-1 #
coedge $-1 -1 $-1 $327 $255 $385 $346 forward $328 $-1 #
coedge $-1 -1 $-1 $255 $326 $387 $388 forward $328 $-1 #
loop $-1 -1 $-1 $-1 $255 $389 #
vertex $-1 -1 $-1 $390 $391 #
coedge $-1 -1 $-1 $392 $359 $257 $331 forward $393 $-1 #
edge $-1 -1 $-1 $192 1.5707963267948968 $336 3.1415926535897931 $330 $270 forward @7 unknown #
coedge $-1 -1 $-1 $394 $258 $261 $338 reversed $335 $-1 #
coedge $-1 -1 $-1 $258 $394 $392 $395 reversed $335 $-1 #
coedge $-1 -1 $-1 $396 $397 $319 $259 reversed $373 $-1 #
loop $-1 -1 $-1 $-1 $258 $398 #
vertex $-1 -1 $-1 $395 $399 #
straight-curve $-1 -1 $-1 -0.5 0 1.3435000000000001 0 0 1 I I #
edge $-1 -1 $-1 $362 -0.5 $263 0 $332 $400 forward @7 unknown #
face $-1 -1 $-1 $350 $262 $29 $-1 $401 forward single #
edge $-1 -1 $-1 $263 0 $402 0.5 $397 $400 forward @7 unknown #
point $-1 -1 $-1 -0.5 0 1.3435000000000001 #
straight-curve $-1 -1 $-1 0.5 0 1.3435000000000001 0 0 1 I I #
coedge $-1 -1 $-1 $352 $318 $267 $344 reversed $250 $-1 #
edge $-1 -1 $-1 $356 -0.5 $269 0 $343 $403 forward @7 unknown #
face $-1 -1 $-1 $404 $268 $29 $-1 $405 reversed single #
edge $-1 -1 $-1 $269 0 $406 0.5 $385 $403 forward @7 unknown #
point $-1 -1 $-1 0.5 0 -1.3435000000000001 #
coedge $-1 -1 $-1 $318 $352 $271 $349 reversed $250 $-1 #
edge $-1 -1 $-1 $274 0 $354 0.5 $348 $407 forward @7 unknown #
face $-1 -1 $-1 $408 $273 $29 $-1 $401 forward single #
point $-1 -1 $-1 0.5 0 1.3435000000000001 #
coedge $-1 -1 $-1 $348 $343 $275 $353 reversed $250 $-1 #
edge $-1 -1 $-1 $354 -1.3435000000000001 $356 1.3435000000000001 $352 $409 forward @7 unknown #
vertex $-1 -1 $-1 $349 $410 #
straight-curve $-1 -1 $-1 0 0.5 1.3435000000000001 -1 0 0 I I #
vertex $-1 -1 $-1 $344 $411 #
straight-curve $-1 -1 $-1 0 0.5 -1.3435000000000001 1 0 0 I I #
coedge $-1 -1 $-1 $279 $278 $394 $412 reversed $280 $-1 #
coedge $-1 -1 $-1 $330 $392 $278 $360 forward $393 $-1 #
edge $-1 -1 $-1 $413 -0.5 $192 1.8745759022776718e-033 $278 $357 forward @7 unknown #
face $-1 -1 $-1 $-1 $386 $29 $-1 $251 reversed single #
vertex $-1 -1 $-1 $283 $414 #
attrib_edge_convexity-kcp-attrib $-1 -1 $415 $-1 $287 1 #
vertex $416 -1 $-1 $287 $417 #
ellipse-curve $-1 -1 $-1 0 0 -0.37 0 0 1 0.19 0 0 1 I I #
point $-1 -1 $-1 -0.40625 0 -0.37 #
point $-1 -1 $-1 -0.5 0 -0.97350000000000048 #
straight-curve $-1 -1 $-1 -0.5 0.5 0 0 0 -1 I I #
point $-1 -1 $-1 -0.5 -0.5 -1.3435000000000001 #
straight-curve $-1 -1 $-1 -0.5 0 -1.3435000000000001 0 1 0 I I #
point $-1 -1 $-1 -0.5 0.5 -1.3435000000000001 #
face $-1 -1 $-1 $339 $418 $29 $-1 $401 forward single #
loop $-1 -1 $-1 $-1 $334 $316 #
plane-surface $-1 -1 $-1 -0.5 0 0 1 0 0 0 0 -1 forward_v I I I I #
coedge $-1 -1 $-1 $320 $319 $419 $420 reversed $177 $-1 #
coedge $-1 -1 $-1 $421 $422 $423 $324 forward $424 $-1 #
coedge $-1 -1 $-1 $378 $321 $422 $390 forward $379 $-1 #
coedge $-1 -1 $-1 $321 $377 $396 $425 forward $379 $-1 #
loop $-1 -1 $-1 $-1 $321 $426 #
coedge $-1 -1 $-1 $427 $428 $323 $381 forward $429 $-1 #
edge $-1 -1 $-1 $274 -1.2246063538223773e-016 $382 1.5707963267948966 $380 $264 forward @7 unknown #
vertex $-1 -1 $-1 $430 $431 #
straight-curve $-1 -1 $-1 1.8745759022776718e-033 -0.5 1.3435000000000001 0 0 1 I I #
coedge $-1 -1 $-1 $432 $325 $428 $433 reversed $386 $-1 #
coedge $-1 -1 $-1 $325 $432 $326 $346 reversed $386 $-1 #
loop $-1 -1 $-1 $-1 $325 $361 #
coedge $-1 -1 $-1 $434 $423 $327 $388 reversed $435 $-1 #
edge $-1 -1 $-1 $406 -0.5 $329 -1.8745759022776718e-033 $387 $436 forward @7 unknown #
face $-1 -1 $-1 $345 $328 $29 $-1 $405 reversed single #
edge $-1 -1 $-1 $329 -1.8745759022776718e-033 $437 0.5 $422 $436 forward @7 unknown #
point $-1 -1 $-1 1.8745759022776718e-033 -0.5 -1.3435000000000001 #
coedge $-1 -1 $-1 $359 $330 $333 $395 forward $393 $-1 #
loop $-1 -1 $-1 $-1 $330 $404 #
coedge $-1 -1 $-1 $333 $332 $358 $412 forward $335 $-1 #
edge $-1 -1 $-1 $336 0 $413 0.5 $333 $438 forward @7 unknown #
coedge $-1 -1 $-1 $439 $334 $378 $425 reversed $373 $-1 #
coedge $-1 -1 $-1 $334 $439 $440 $340 reversed $373 $-1 #
face $-1 -1 $-1 $281 $335 $29 $-1 $374 reversed single #
point $-1 -1 $-1 -0.5 0 -1.3435000000000001 #
straight-curve $-1 -1 $-1 -0.5 0 1.3435000000000001 0 -1 0 I I #
plane-surface $-1 -1 $-1 0 0 1.3435000000000001 0 0 1 1 0 0 forward_v I I I I #
vertex $-1 -1 $-1 $340 $441 #
straight-curve $-1 -1 $-1 0.5 0 -1.3435000000000001 0 -1 0 I I #
face $-1 -1 $-1 $442 $393 $29 $-1 $405 reversed single #
plane-surface $-1 -1 $-1 0 0 -1.3435000000000001 0 0 1 1 0 0 forward_v I I I I #
vertex $-1 -1 $-1 $443 $444 #
straight-curve $-1 -1 $-1 0.5 0 1.3435000000000001 0 1 0 I I #
face $-1 -1 $-1 $445 $429 $29 $-1 $401 forward single #
straight-curve $-1 -1 $-1 0.5 0.5 0 0 0 -1 I I #
point $-1 -1 $-1 0.5 0.5 1.3435000000000001 #
point $-1 -1 $-1 0.5 0.5 -1.3435000000000001 #
edge $-1 -1 $-1 $362 -1.3435000000000001 $413 1.3435000000000001 $358 $446 forward @7 unknown #
vertex $-1 -1 $-1 $360 $447 #
point $-1 -1 $-1 -0.5 0.5 1.3435000000000001 #
convexity-sys-attrib $-1 -1 $-1 $363 $287 #
model_id-kcp-attrib $-1 -1 $-1 $-1 $364 1 1021400407 1021400407 1301479425 14 #
point $-1 -1 $-1 -0.19 0 -0.37 #
loop $-1 -1 $-1 $-1 $419 $372 #
coedge $-1 -1 $-1 $440 $448 $375 $420 forward $418 $-1 #
edge $-1 -1 $-1 $382 1.5707963267948966 $263 3.1415926535897931 $419 $264 forward @7 unknown #
coedge $-1 -1 $-1 $449 $376 $448 $450 reversed $424 $-1 #
coedge $-1 -1 $-1 $376 $449 $377 $390 reversed $424 $-1 #
coedge $-1 -1 $-1 $387 $451 $253 $324 reversed $435 $-1 #
loop $-1 -1 $-1 $-1 $376 $442 #
edge $-1 -1 $-1 $437 -0.5 $336 0 $396 $438 forward @7 unknown #
face $-1 -1 $-1 $389 $379 $29 $-1 $405 reversed single #
coedge $-1 -1 $-1 $428 $380 $451 $430 forward $429 $-1 #
coedge $-1 -1 $-1 $380 $427 $384 $433 forward $429 $-1 #
loop $-1 -1 $-1 $-1 $380 $408 #
edge $-1 -1 $-1 $382 1.8745759022776718e-033 $452 0.5 $451 $453 forward @7 unknown #
point $-1 -1 $-1 1.8745759022776718e-033 -0.5 1.3435000000000001 #
coedge $-1 -1 $-1 $385 $384 $434 $443 forward $386 $-1 #
edge $-1 -1 $-1 $452 -0.5 $274 0 $384 $407 forward @7 unknown #
coedge $-1 -1 $-1 $451 $387 $432 $443 reversed $435 $-1 #
loop $-1 -1 $-1 $-1 $423 $445 #
straight-curve $-1 -1 $-1 0 -0.5 -1.3435000000000001 -1 0 0 I I #
vertex $-1 -1 $-1 $425 $454 #
straight-curve $-1 -1 $-1 -0.5 0 -1.3435000000000001 0 1 0 I I #
coedge $-1 -1 $-1 $397 $396 $449 $455 reversed $373 $-1 #
coedge $-1 -1 $-1 $448 $419 $397 $340 forward $418 $-1 #
point $-1 -1 $-1 -0.5 -0.5 1.3435000000000001 #
face $-1 -1 $-1 $398 $424 $29 $-1 $456 reversed single #
edge $-1 -1 $-1 $452 -1.3435000000000001 $406 1.3435000000000001 $432 $457 forward @7 unknown #
point $-1 -1 $-1 0.5 -0.5 -1.3435000000000001 #
face $-1 -1 $-1 $426 $435 $29 $-1 $456 reversed single #
straight-curve $-1 -1 $-1 -0.5 0.5 0 0 0 -1 I I #
point $-1 -1 $-1 -0.5 0.5 -1.3435000000000001 #
coedge $-1 -1 $-1 $419 $440 $421 $450 forward $418 $-1 #
coedge $-1 -1 $-1 $422 $421 $439 $455 forward $424 $-1 #
edge $-1 -1 $-1 $402 -0.5 $382 1.8745759022776718e-033 $421 $453 forward @7 unknown #
coedge $-1 -1 $-1 $423 $434 $427 $430 reversed $435 $-1 #
vertex $-1 -1 $-1 $433 $458 #
straight-curve $-1 -1 $-1 0 -0.5 1.3435000000000001 1 0 0 I I #
point $-1 -1 $-1 -0.5 -0.5 -1.3435000000000001 #
edge $-1 -1 $-1 $402 -1.3435000000000001 $437 1.3435000000000001 $439 $459 forward @7 unknown #
plane-surface $-1 -1 $-1 0 -0.5 0 0 1 0 0 0 1 forward_v I I I I #
straight-curve $-1 -1 $-1 0.5 -0.5 0 0 0 -1 I I #
point $-1 -1 $-1 0.5 -0.5 1.3435000000000001 #
straight-curve $-1 -1 $-1 -0.5 -0.5 0 0 0 -1 I I #
End-of-ACIS-data 