700 0 2 0           
24 FBMach with ACIS - 7.0.3 13 ACIS 7.0.3 NT 24 Tue May 14 14:20:09 2002 
1 9.9999999999999995e-007 1e-010 
body $2 -1 $-1 $3 $-1 $4 #
bdycol-kcp $-1 -1 1 4 $5 $6 $7 $8 #
model_id-kcp-attrib $-1 -1 $-1 $-1 $0 1 1021400409 1021400409 -247398399 1 #
lump $-1 -1 $-1 $-1 $9 $0 #
transform $-1 -1 1 0 0 0 1 0 0 0 1 0 0 0 1 rotate no_reflect no_shear #
body $10 -1 $-1 $11 $-1 $12 #
body $13 -1 $-1 $14 $-1 $15 #
body $16 -1 $-1 $17 $-1 $18 #
body $19 -1 $-1 $20 $-1 $21 #
shell $-1 -1 $-1 $-1 $-1 $22 $-1 $3 #
model_id-kcp-attrib $-1 -1 $-1 $-1 $5 1 1021400409 1021400409 -247398398 1 #
lump $-1 -1 $-1 $-1 $23 $5 #
transform $-1 -1 1 0 0 0 1 0 0 0 1 0 0 24.726900000000001 1 no_rotate no_reflect no_shear #
rgb_color-st-attrib $-1 -1 $24 $-1 $6 1 0.5 1 #
lump $-1 -1 $-1 $-1 $25 $6 #
transform $-1 -1 1 0 0 0 1 0 0 0 1 0 0 24.726900000000001 1 no_rotate no_reflect no_shear #
rgb_color-st-attrib $-1 -1 $26 $-1 $7 0.5 1 1 #
lump $-1 -1 $-1 $-1 $27 $7 #
transform $-1 -1 1 0 0 0 1 0 0 0 1 0 0 24.726900000000001 1 no_rotate no_reflect no_shear #
rgb_color-st-attrib $-1 -1 $28 $-1 $8 0.5 1 1 #
lump $-1 -1 $-1 $-1 $29 $8 #
transform $-1 -1 1 0 0 0 1 0 0 0 1 0 0 0 1 no_rotate no_reflect no_shear #
face $30 -1 $-1 $31 $32 $9 $-1 $33 reversed single #
shell $-1 -1 $-1 $-1 $-1 $34 $-1 $11 #
model_id-kcp-attrib $-1 -1 $-1 $13 $6 1 1021400409 1021400409 -244449275 1 #
shell $-1 -1 $-1 $-1 $-1 $35 $-1 $14 #
model_id-kcp-attrib $-1 -1 $-1 $16 $7 1 1021400409 1021400409 -240844797 1 #
shell $-1 -1 $-1 $-1 $-1 $36 $-1 $17 #
model_id-kcp-attrib $-1 -1 $-1 $19 $8 1 1021400409 1021400409 -236191740 1 #
shell $-1 -1 $-1 $-1 $-1 $37 $-1 $20 #
model_id-kcp-attrib $-1 -1 $-1 $-1 $22 1 1021400409 1021400409 -247398399 2 #
face $38 -1 $-1 $39 $40 $9 $-1 $41 forward single #
loop $-1 -1 $-1 $42 $43 $22 #
plane-surface $-1 -1 $-1 0 0 0 0 0 1 25.399999999999999 0 0 forward_v I I I I #
face $44 -1 $-1 $45 $46 $23 $-1 $47 forward single #
face $-1 -1 $-1 $48 $49 $25 $-1 $50 forward single #
face $-1 -1 $-1 $51 $52 $27 $-1 $53 reversed single #
face $-1 -1 $-1 $54 $55 $29 $-1 $56 forward single #
model_id-kcp-attrib $-1 -1 $-1 $-1 $31 1 1021400409 1021400409 -247398399 3 #
face $57 -1 $-1 $58 $59 $9 $-1 $60 forward single #
loop $-1 -1 $-1 $-1 $61 $31 #
cone-surface $-1 -1 $-1 0 0 0 0 0 1 12.699999999999999 0 0 1 I I 0 1 12.699999999999999 forward I I I I #
loop $-1 -1 $-1 $-1 $62 $22 #
coedge $-1 -1 $-1 $63 $63 $64 $65 reversed $32 $-1 #
model_id-kcp-attrib $-1 -1 $-1 $-1 $34 1 1021400409 1021400409 -247398398 2 #
face $66 -1 $-1 $67 $68 $23 $-1 $69 reversed single #
loop $-1 -1 $-1 $-1 $70 $34 #
plane-surface $-1 -1 $-1 0 0 34.124900000000004 0 0 1 1 0 0 forward_v I I I I #
face $-1 -1 $-1 $71 $72 $25 $-1 $73 forward single #
loop $-1 -1 $-1 $74 $75 $35 #
cone-surface $-1 -1 $-1 0 0 -24.726900000000001 0 0 -1 -10.31875 0 0 1 I I 0 -1 10.31875 forward I I I I #
face $-1 -1 $-1 $76 $77 $27 $-1 $53 reversed single #
loop $-1 -1 $-1 $-1 $78 $36 #
cone-surface $-1 -1 $-1 4.761422791785286e-032 0 34.124900000000004 0 0 1 -12.699999999999999 0 0 1 I I 0 1 12.699999999999999 forward I I I I #
face $-1 -1 $-1 $79 $80 $29 $-1 $81 reversed single #
loop $-1 -1 $-1 $82 $83 $37 #
cone-surface $-1 -1 $-1 0 0 58.851800000000004 0 0 -1 4.8259999999999996 0 0 1 I I 0 1 4.8259999999999996 forward I I I I #
model_id-kcp-attrib $-1 -1 $-1 $-1 $39 1 1021400409 1021400409 -247398399 4 #
face $84 -1 $-1 $85 $86 $9 $-1 $87 forward single #
loop $-1 -1 $-1 $-1 $88 $39 #
cone-surface $-1 -1 $-1 0 0 0 0 0 1 12.699999999999999 0 0 1 I I 0 1 12.699999999999999 forward I I I I #
coedge $-1 -1 $-1 $89 $64 $90 $91 forward $40 $-1 #
coedge $-1 -1 $-1 $92 $92 $93 $94 reversed $42 $-1 #
coedge $-1 -1 $-1 $43 $43 $95 $96 reversed $32 $-1 #
coedge $-1 -1 $-1 $61 $97 $43 $65 forward $40 $-1 #
edge $98 -1 $-1 $99 0 $100 3.1415926535897931 $43 $101 forward @7 unknown #
model_id-kcp-attrib $-1 -1 $-1 $-1 $45 1 1021400409 1021400409 -247398398 3 #
face $-1 -1 $-1 $102 $103 $23 $-1 $104 reversed single #
loop $-1 -1 $-1 $-1 $105 $45 #
plane-surface $-1 -1 $-1 0 0 -34.124900000000004 0 0 1 1 0 0 forward_v I I I I #
coedge $-1 -1 $-1 $106 $107 $108 $109 forward $46 $-1 #
face $-1 -1 $-1 $110 $111 $25 $-1 $112 reversed single #
loop $-1 -1 $-1 $113 $114 $48 #
cone-surface $-1 -1 $-1 4.761422791785286e-032 0 -24.726900000000001 0 0 -1 -12.699999999999999 0 0 1 I I 0 1 12.699999999999999 forward I I I I #
loop $-1 -1 $-1 $-1 $115 $35 #
coedge $-1 -1 $-1 $75 $75 $116 $117 forward $49 $-1 #
face $-1 -1 $-1 $118 $119 $27 $-1 $53 reversed single #
loop $-1 -1 $-1 $-1 $120 $51 #
coedge $-1 -1 $-1 $121 $122 $123 $124 reversed $52 $-1 #
face $-1 -1 $-1 $-1 $125 $29 $-1 $126 forward single #
loop $-1 -1 $-1 $-1 $127 $54 #
plane-surface $-1 -1 $-1 0 0 -9.397999999999989 0 0 1 1 0 0 forward_v I I I I #
loop $-1 -1 $-1 $-1 $128 $37 #
coedge $-1 -1 $-1 $83 $83 $127 $129 forward $55 $-1 #
model_id-kcp-attrib $-1 -1 $-1 $-1 $58 1 1021400409 1021400409 -247398399 5 #
face $130 -1 $-1 $131 $132 $9 $-1 $133 reversed single #
loop $-1 -1 $-1 $134 $135 $58 #
plane-surface $-1 -1 $-1 0 0 58.851800000000004 0 0 1 25.399999999999999 0 0 forward_v I I I I #
coedge $-1 -1 $-1 $136 $95 $97 $137 forward $59 $-1 #
coedge $-1 -1 $-1 $97 $61 $135 $138 reversed $40 $-1 #
coedge $-1 -1 $-1 $95 $136 $61 $91 reversed $59 $-1 #
edge $-1 -1 $-1 $100 0 $139 2.3170000000000002 $90 $140 forward @7 unknown #
coedge $-1 -1 $-1 $62 $62 $141 $142 reversed $42 $-1 #
coedge $-1 -1 $-1 $143 $144 $62 $94 forward $145 $-1 #
edge $146 -1 $-1 $147 0 $148 3.1415926535897931 $62 $149 forward @7 unknown #
coedge $-1 -1 $-1 $88 $90 $63 $96 forward $59 $-1 #
edge $150 -1 $-1 $100 0 $99 3.1415926535897931 $63 $151 forward @7 unknown #
coedge $-1 -1 $-1 $64 $89 $88 $137 reversed $40 $-1 #
attrib_edge_convexity-kcp-attrib $-1 -1 $152 $-1 $65 1 #
vertex $-1 -1 $-1 $96 $153 #
vertex $-1 -1 $-1 $96 $154 #
ellipse-curve $-1 -1 $-1 0 0 0 0 0 1 -12.699999999999999 0 0 1 I I #
face $-1 -1 $-1 $155 $156 $23 $-1 $157 reversed single #
loop $-1 -1 $-1 $-1 $158 $67 #
plane-surface $-1 -1 $-1 0 -12.699999999999999 0 0 1 0 0 0 1 forward_v I I I I #
coedge $-1 -1 $-1 $159 $160 $161 $162 forward $68 $-1 #
coedge $-1 -1 $-1 $163 $70 $164 $165 forward $46 $-1 #
coedge $-1 -1 $-1 $70 $163 $166 $167 forward $46 $-1 #
coedge $-1 -1 $-1 $168 $169 $70 $109 reversed $170 $-1 #
edge $-1 -1 $-1 $171 -12.699999999999999 $172 12.699999999999999 $108 $173 forward @7 unknown #
face $-1 -1 $-1 $-1 $174 $25 $-1 $175 forward single #
loop $-1 -1 $-1 $176 $177 $71 #
plane-surface $-1 -1 $-1 0.63699059561128446 -2.2204460492503131e-016 -34.124899999999997 0 0 1 1 0 0 forward_v I I I I #
loop $-1 -1 $-1 $-1 $178 $48 #
coedge $-1 -1 $-1 $114 $114 $177 $179 forward $72 $-1 #
coedge $-1 -1 $-1 $115 $115 $180 $181 reversed $74 $-1 #
coedge $-1 -1 $-1 $116 $116 $75 $117 reversed $176 $-1 #
edge $-1 -1 $-1 $182 -3.1415926535897931 $182 3.1415926535897931 $75 $183 forward @7 unknown #
face $-1 -1 $-1 $184 $185 $27 $-1 $53 reversed single #
loop $-1 -1 $-1 $-1 $186 $76 #
coedge $-1 -1 $-1 $187 $188 $189 $190 reversed $77 $-1 #
coedge $-1 -1 $-1 $191 $78 $192 $193 reversed $52 $-1 #
coedge $-1 -1 $-1 $78 $191 $194 $195 reversed $52 $-1 #
coedge $-1 -1 $-1 $196 $197 $198 $124 forward $199 $-1 #
edge $-1 -1 $-1 $200 -68.249800000000008 $201 0 $123 $202 forward @7 unknown #
loop $-1 -1 $-1 $-1 $203 $79 #
plane-surface $-1 -1 $-1 0 0 58.851800000000019 0 0 1 1 0 0 forward_v I I I I #
coedge $-1 -1 $-1 $127 $127 $83 $129 reversed $80 $-1 #
coedge $-1 -1 $-1 $128 $128 $203 $204 forward $82 $-1 #
edge $-1 -1 $-1 $205 0 $205 6.2831853071795862 $83 $206 forward @7 unknown #
model_id-kcp-attrib $-1 -1 $-1 $-1 $85 1 1021400409 1021400409 -247398399 6 #
face $207 -1 $-1 $208 $209 $9 $-1 $210 reversed single #
loop $-1 -1 $-1 $-1 $211 $85 #
cone-surface $-1 -1 $-1 0 0 58.851800000000004 0 0 -1 -4.8259999999999996 0 0 1 I I 0 1 4.8259999999999996 forward I I I I #
loop $-1 -1 $-1 $-1 $212 $58 #
coedge $-1 -1 $-1 $213 $213 $89 $138 forward $86 $-1 #
coedge $-1 -1 $-1 $90 $88 $213 $214 reversed $59 $-1 #
edge $-1 -1 $-1 $99 0 $215 2.3170000000000002 $88 $216 forward @7 unknown #
edge $217 -1 $-1 $215 0 $139 3.1415926535897931 $135 $218 forward @7 unknown #
vertex $-1 -1 $-1 $214 $219 #
straight-curve $-1 -1 $-1 12.699999999999999 0 0 0 0 25.399999999999999 I I #
coedge $-1 -1 $-1 $220 $221 $92 $142 forward $222 $-1 #
edge $223 -1 $-1 $148 0 $147 3.1415926535897931 $92 $224 forward @7 unknown #
coedge $-1 -1 $-1 $225 $93 $221 $226 forward $145 $-1 #
coedge $-1 -1 $-1 $93 $225 $220 $227 reversed $145 $-1 #
loop $-1 -1 $-1 $-1 $143 $228 #
attrib_edge_convexity-kcp-attrib $-1 -1 $229 $-1 $94 2 #
vertex $-1 -1 $-1 $142 $230 #
vertex $-1 -1 $-1 $142 $231 #
ellipse-curve $-1 -1 $-1 0 0 0 0 0 -1 10.31875 0 0 1 I I #
attrib_edge_convexity-kcp-attrib $-1 -1 $232 $-1 $96 1 #
ellipse-curve $-1 -1 $-1 0 0 0 0 0 1 12.699999999999999 0 0 1 I I #
convexity-sys-attrib $-1 -1 $-1 $98 $65 #
point $-1 -1 $-1 -12.699999999999999 0 0 #
point $-1 -1 $-1 12.699999999999999 0 0 #
face $-1 -1 $-1 $233 $234 $23 $-1 $235 reversed single #
loop $-1 -1 $-1 $-1 $236 $102 #
plane-surface $-1 -1 $-1 -12.699999999999999 0 0 1 0 0 0 0 -1 forward_v I I I I #
coedge $-1 -1 $-1 $237 $166 $238 $239 forward $103 $-1 #
coedge $-1 -1 $-1 $240 $105 $237 $241 forward $68 $-1 #
coedge $-1 -1 $-1 $105 $240 $242 $243 forward $68 $-1 #
coedge $-1 -1 $-1 $169 $168 $105 $162 reversed $170 $-1 #
edge $-1 -1 $-1 $244 -12.699999999999999 $245 12.699999999999999 $161 $246 forward @7 unknown #
coedge $-1 -1 $-1 $107 $106 $247 $248 forward $46 $-1 #
coedge $-1 -1 $-1 $249 $250 $106 $165 reversed $234 $-1 #
edge $-1 -1 $-1 $172 -12.699999999999999 $251 12.699999999999999 $164 $252 forward @7 unknown #
coedge $-1 -1 $-1 $158 $253 $107 $167 reversed $103 $-1 #
edge $-1 -1 $-1 $254 -12.699999999999999 $171 12.699999999999999 $166 $255 forward @7 unknown #
coedge $-1 -1 $-1 $161 $108 $253 $256 forward $170 $-1 #
coedge $-1 -1 $-1 $108 $161 $249 $257 reversed $170 $-1 #
loop $-1 -1 $-1 $-1 $168 $233 #
vertex $-1 -1 $-1 $109 $258 #
vertex $-1 -1 $-1 $109 $259 #
straight-curve $-1 -1 $-1 12.699999999999999 0 34.124900000000004 0 1 0 I I #
loop $-1 -1 $-1 $260 $261 $110 #
plane-surface $-1 -1 $-1 0.63699059561128446 -2.2204460492503131e-016 -24.726899999999997 0 0 1 1 0 0 forward_v I I I I #
loop $-1 -1 $-1 $-1 $116 $71 #
coedge $-1 -1 $-1 $177 $177 $114 $179 reversed $111 $-1 #
coedge $-1 -1 $-1 $178 $178 $261 $262 reversed $113 $-1 #
edge $-1 -1 $-1 $263 -3.1415926535897931 $263 3.1415926535897931 $114 $264 forward @7 unknown #
coedge $-1 -1 $-1 $180 $180 $115 $181 forward $260 $-1 #
edge $265 -1 $-1 $266 0 $266 6.2831853071795862 $115 $267 forward @7 unknown #
vertex $-1 -1 $-1 $117 $268 #
ellipse-curve $-1 -1 $-1 0 0 -34.124899999999997 0 0 -1 -10.31875 0 0 1 I I #
face $-1 -1 $-1 $269 $270 $27 $-1 $271 reversed single #
loop $-1 -1 $-1 $-1 $272 $118 #
coedge $-1 -1 $-1 $273 $274 $275 $276 reversed $119 $-1 #
coedge $-1 -1 $-1 $277 $120 $278 $279 reversed $77 $-1 #
coedge $-1 -1 $-1 $120 $277 $78 $124 forward $77 $-1 #
coedge $-1 -1 $-1 $280 $281 $120 $190 forward $282 $-1 #
edge $-1 -1 $-1 $283 -3.1415926535897931 $201 -1.5707963267948966 $189 $284 forward @7 unknown #
coedge $-1 -1 $-1 $122 $121 $274 $285 forward $52 $-1 #
coedge $-1 -1 $-1 $286 $287 $121 $193 forward $288 $-1 #
edge $-1 -1 $-1 $289 0 $200 1.5707963267948966 $192 $290 forward @7 unknown #
coedge $-1 -1 $-1 $291 $292 $122 $195 forward $293 $-1 #
edge $-1 -1 $-1 $201 -1.5707963267948966 $294 0 $194 $284 forward @7 unknown #
coedge $-1 -1 $-1 $295 $123 $292 $296 reversed $199 $-1 #
coedge $-1 -1 $-1 $123 $295 $286 $297 reversed $199 $-1 #
coedge $-1 -1 $-1 $298 $299 $188 $124 reversed $300 $-1 #
loop $-1 -1 $-1 $-1 $123 $301 #
vertex $-1 -1 $-1 $297 $302 #
vertex $-1 -1 $-1 $303 $304 #
straight-curve $-1 -1 $-1 4.761422791785286e-032 -12.699999999999999 34.124900000000004 0 0 1 I I #
coedge $-1 -1 $-1 $203 $203 $128 $204 reversed $125 $-1 #
edge $-1 -1 $-1 $305 0 $305 6.2831853071795862 $128 $306 forward @7 unknown #
vertex $-1 -1 $-1 $129 $307 #
ellipse-curve $-1 -1 $-1 0 0 -9.3980000000000032 0 0 1 -4.8259999999999996 0 0 1 I I #
model_id-kcp-attrib $-1 -1 $-1 $-1 $131 1 1021400409 1021400409 -247398399 7 #
face $308 -1 $-1 $228 $309 $9 $-1 $310 forward single #
loop $-1 -1 $-1 $-1 $311 $131 #
cone-surface $-1 -1 $-1 0 0 58.851800000000004 0 0 -1 -4.8259999999999996 0 0 1 I I 0 1 4.8259999999999996 forward I I I I #
coedge $-1 -1 $-1 $312 $313 $314 $315 forward $132 $-1 #
coedge $-1 -1 $-1 $316 $316 $313 $317 forward $134 $-1 #
coedge $-1 -1 $-1 $135 $135 $136 $214 forward $86 $-1 #
edge $318 -1 $-1 $139 0 $215 3.1415926535897931 $213 $319 forward @7 unknown #
vertex $-1 -1 $-1 $214 $320 #
straight-curve $-1 -1 $-1 -12.699999999999999 1.5552500693544191e-015 0 0 0 25.399999999999999 I I #
attrib_edge_convexity-kcp-attrib $-1 -1 $321 $-1 $138 1 #
ellipse-curve $-1 -1 $-1 0 0 58.851800000000004 0 0 1 -12.699999999999999 0 0 1 I I #
point $-1 -1 $-1 12.699999999999999 0 58.851800000000004 #
coedge $-1 -1 $-1 $322 $141 $144 $227 forward $222 $-1 #
coedge $-1 -1 $-1 $141 $322 $143 $226 reversed $222 $-1 #
loop $-1 -1 $-1 $-1 $220 $323 #
attrib_edge_convexity-kcp-attrib $-1 -1 $324 $-1 $142 2 #
ellipse-curve $-1 -1 $-1 0 0 0 0 0 -1 -10.31875 0 0 1 I I #
coedge $-1 -1 $-1 $144 $143 $325 $326 reversed $145 $-1 #
edge $-1 -1 $-1 $148 0 $327 0.37 $221 $328 forward @7 unknown #
edge $-1 -1 $-1 $147 0 $329 0.37 $220 $330 forward @7 unknown #
face $331 -1 $-1 $323 $145 $9 $-1 $332 forward single #
convexity-sys-attrib $-1 -1 $-1 $146 $94 #
point $-1 -1 $-1 10.31875 0 0 #
point $-1 -1 $-1 -10.31875 0 0 #
convexity-sys-attrib $-1 -1 $-1 $150 $96 #
face $-1 -1 $-1 $-1 $170 $23 $-1 $333 reversed single #
loop $-1 -1 $-1 $-1 $249 $155 #
plane-surface $-1 -1 $-1 0 12.699999999999999 0 0 -1 0 0 0 -1 forward_v I I I I #
coedge $-1 -1 $-1 $334 $247 $250 $335 forward $156 $-1 #
coedge $-1 -1 $-1 $253 $158 $159 $241 reversed $103 $-1 #
coedge $-1 -1 $-1 $247 $334 $158 $239 reversed $156 $-1 #
edge $-1 -1 $-1 $254 -34.124900000000004 $336 34.124900000000004 $238 $337 forward @7 unknown #
coedge $-1 -1 $-1 $160 $159 $334 $338 forward $68 $-1 #
edge $-1 -1 $-1 $245 -12.699999999999999 $336 12.699999999999999 $237 $339 forward @7 unknown #
coedge $-1 -1 $-1 $250 $249 $160 $243 reversed $234 $-1 #
edge $-1 -1 $-1 $340 -12.699999999999999 $244 12.699999999999999 $242 $341 forward @7 unknown #
vertex $-1 -1 $-1 $162 $342 #
vertex $-1 -1 $-1 $256 $343 #
straight-curve $-1 -1 $-1 12.699999999999999 0 -34.124900000000004 0 -1 0 I I #
coedge $-1 -1 $-1 $236 $238 $163 $248 reversed $156 $-1 #
edge $-1 -1 $-1 $251 -12.699999999999999 $254 12.699999999999999 $247 $344 forward @7 unknown #
coedge $-1 -1 $-1 $242 $164 $169 $257 forward $234 $-1 #
coedge $-1 -1 $-1 $164 $242 $236 $335 reversed $234 $-1 #
vertex $-1 -1 $-1 $165 $345 #
straight-curve $-1 -1 $-1 0 12.699999999999999 34.124900000000004 -1 0 0 I I #
coedge $-1 -1 $-1 $166 $237 $168 $256 reversed $103 $-1 #
vertex $-1 -1 $-1 $248 $346 #
straight-curve $-1 -1 $-1 0 -12.699999999999999 34.124900000000004 1 0 0 I I #
edge $-1 -1 $-1 $171 -34.124900000000004 $245 34.124900000000004 $168 $347 forward @7 unknown #
edge $-1 -1 $-1 $172 -34.124900000000004 $244 34.124900000000004 $169 $348 forward @7 unknown #
point $-1 -1 $-1 12.699999999999999 -12.699999999999999 34.124900000000004 #
point $-1 -1 $-1 12.699999999999999 12.699999999999999 34.124900000000004 #
loop $-1 -1 $-1 $-1 $180 $110 #
coedge $-1 -1 $-1 $261 $261 $178 $262 forward $174 $-1 #
edge $349 -1 $-1 $350 -3.1415926535897931 $350 3.1415926535897931 $178 $351 forward @7 unknown #
vertex $-1 -1 $-1 $179 $352 #
ellipse-curve $-1 -1 $-1 4.761422791785286e-032 0 -34.124899999999997 0 0 1 -12.699999999999999 0 0 1 I I #
convexity-sys-attrib $-1 -1 $-1 $-1 $181 #
vertex $-1 -1 $-1 $181 $353 #
ellipse-curve $-1 -1 $-1 0 0 -24.726900000000001 0 0 -1 -10.31875 0 0 1 I I #
point $-1 -1 $-1 10.31875 0 -34.124899999999997 #
face $-1 -1 $-1 $354 $300 $27 $-1 $355 reversed single #
loop $-1 -1 $-1 $-1 $356 $184 #
plane-surface $-1 -1 $-1 -12.699999999999999 0 0 1 0 0 0 0 -1 forward_v I I I I #
coedge $-1 -1 $-1 $357 $358 $359 $360 reversed $185 $-1 #
coedge $-1 -1 $-1 $361 $186 $358 $362 forward $119 $-1 #
coedge $-1 -1 $-1 $186 $361 $363 $285 reversed $119 $-1 #
coedge $-1 -1 $-1 $364 $365 $186 $276 forward $366 $-1 #
edge $-1 -1 $-1 $367 -1.5707963267948966 $289 0 $275 $290 forward @7 unknown #
coedge $-1 -1 $-1 $188 $187 $368 $369 reversed $77 $-1 #
coedge $-1 -1 $-1 $370 $371 $372 $279 forward $373 $-1 #
edge $-1 -1 $-1 $374 -68.249800000000008 $283 0 $278 $375 forward @7 unknown #
coedge $-1 -1 $-1 $281 $189 $299 $303 forward $282 $-1 #
coedge $-1 -1 $-1 $189 $280 $370 $376 forward $282 $-1 #
loop $-1 -1 $-1 $-1 $189 $377 #
vertex $-1 -1 $-1 $378 $379 #
ellipse-curve $-1 -1 $-1 4.761422791785286e-032 0 34.124900000000004 0 0 -1 -12.699999999999999 0 0 1 I I #
edge $-1 -1 $-1 $289 -68.249800000000008 $294 0 $363 $380 forward @7 unknown #
coedge $-1 -1 $-1 $287 $192 $197 $297 forward $288 $-1 #
coedge $-1 -1 $-1 $192 $286 $381 $382 forward $288 $-1 #
loop $-1 -1 $-1 $-1 $192 $383 #
vertex $-1 -1 $-1 $384 $385 #
ellipse-curve $-1 -1 $-1 4.761422791785286e-032 0 -34.124900000000004 0 0 1 -12.699999999999999 0 0 1 I I #
coedge $-1 -1 $-1 $292 $194 $386 $387 forward $293 $-1 #
coedge $-1 -1 $-1 $194 $291 $196 $296 forward $293 $-1 #
loop $-1 -1 $-1 $-1 $194 $388 #
vertex $-1 -1 $-1 $387 $389 #
coedge $-1 -1 $-1 $197 $196 $390 $391 forward $199 $-1 #
edge $-1 -1 $-1 $392 -12.699999999999999 $201 4.761422791785286e-032 $196 $393 forward @7 unknown #
edge $-1 -1 $-1 $200 -4.761422791785286e-032 $394 12.699999999999999 $197 $395 forward @7 unknown #
coedge $-1 -1 $-1 $396 $198 $397 $398 reversed $300 $-1 #
coedge $-1 -1 $-1 $198 $396 $280 $303 reversed $300 $-1 #
loop $-1 -1 $-1 $-1 $198 $269 #
face $-1 -1 $-1 $399 $199 $27 $-1 $355 reversed single #
point $-1 -1 $-1 4.761422791785286e-032 -12.699999999999999 -34.124900000000004 #
edge $-1 -1 $-1 $201 4.761422791785286e-032 $400 12.699999999999999 $299 $393 forward @7 unknown #
point $-1 -1 $-1 4.761422791785286e-032 -12.699999999999999 34.124900000000004 #
vertex $-1 -1 $-1 $204 $401 #
ellipse-curve $-1 -1 $-1 0 0 58.851800000000004 0 0 -1 4.8259999999999996 0 0 1 I I #
point $-1 -1 $-1 -4.8259999999999996 0 -9.3980000000000032 #
model_id-kcp-attrib $-1 -1 $-1 $-1 $208 1 1021400409 1021400409 -247398399 8 #
loop $-1 -1 $-1 $402 $325 $208 #
plane-surface $-1 -1 $-1 0 0 -9.3979999999999997 0 0 -1 -25.399999999999999 0 0 forward_v I I I I #
coedge $-1 -1 $-1 $403 $404 $405 $406 forward $209 $-1 #
coedge $-1 -1 $-1 $405 $211 $407 $408 forward $132 $-1 #
coedge $-1 -1 $-1 $211 $405 $212 $317 reversed $132 $-1 #
coedge $-1 -1 $-1 $404 $403 $211 $315 reversed $209 $-1 #
edge $-1 -1 $-1 $409 0 $410 2.6870000000000003 $314 $411 forward @7 unknown #
coedge $-1 -1 $-1 $212 $212 $404 $412 forward $134 $-1 #
edge $413 -1 $-1 $409 0 $414 3.1415926535897931 $212 $415 forward @7 unknown #
attrib_edge_convexity-kcp-attrib $-1 -1 $416 $-1 $214 1 #
ellipse-curve $-1 -1 $-1 0 0 58.851800000000004 0 0 1 12.699999999999999 0 0 1 I I #
point $-1 -1 $-1 -12.699999999999999 0 58.851800000000004 #
convexity-sys-attrib $-1 -1 $-1 $217 $138 #
coedge $-1 -1 $-1 $221 $220 $417 $418 reversed $222 $-1 #
face $419 -1 $-1 $-1 $222 $9 $-1 $420 forward single #
convexity-sys-attrib $-1 -1 $-1 $223 $142 #
coedge $-1 -1 $-1 $417 $417 $225 $326 forward $309 $-1 #
edge $-1 -1 $-1 $329 0 $327 3.1415926535897931 $325 $421 forward @7 unknown #
vertex $-1 -1 $-1 $418 $422 #
straight-curve $-1 -1 $-1 -10.31875 0 0 0 0 -25.399999999999999 I I #
vertex $-1 -1 $-1 $418 $423 #
straight-curve $-1 -1 $-1 10.31875 1.2636406813504654e-015 0 0 0 -25.399999999999999 I I #
model_id-kcp-attrib $-1 -1 $-1 $-1 $228 1 1021400409 1021400409 -247398399 9 #
cone-surface $-1 -1 $-1 0 0 0 0 0 -1 -10.31875 0 0 1 I I 0 1 10.31875 forward I I I I #
plane-surface $-1 -1 $-1 12.699999999999999 0 0 -1 0 0 0 0 1 forward_v I I I I #
coedge $-1 -1 $-1 $238 $236 $240 $338 reversed $156 $-1 #
edge $-1 -1 $-1 $251 -34.124900000000004 $340 34.124900000000004 $250 $424 forward @7 unknown #
vertex $-1 -1 $-1 $338 $425 #
straight-curve $-1 -1 $-1 -12.699999999999999 -12.699999999999999 0 0 0 -1 I I #
edge $-1 -1 $-1 $336 -12.699999999999999 $340 12.699999999999999 $334 $426 forward @7 unknown #
straight-curve $-1 -1 $-1 0 -12.699999999999999 -34.124900000000004 -1 0 0 I I #
vertex $-1 -1 $-1 $243 $427 #
straight-curve $-1 -1 $-1 0 12.699999999999999 -34.124900000000004 1 0 0 I I #
point $-1 -1 $-1 12.699999999999999 12.699999999999999 -34.124900000000004 #
point $-1 -1 $-1 12.699999999999999 -12.699999999999999 -34.124900000000004 #
straight-curve $-1 -1 $-1 -12.699999999999999 0 34.124900000000004 0 -1 0 I I #
point $-1 -1 $-1 -12.699999999999999 12.699999999999999 34.124900000000004 #
point $-1 -1 $-1 -12.699999999999999 -12.699999999999999 34.124900000000004 #
straight-curve $-1 -1 $-1 12.699999999999999 -12.699999999999999 0 0 0 -1 I I #
straight-curve $-1 -1 $-1 12.699999999999999 12.699999999999999 0 0 0 -1 I I #
convexity-sys-attrib $-1 -1 $-1 $-1 $262 #
vertex $-1 -1 $-1 $262 $428 #
ellipse-curve $-1 -1 $-1 4.761422791785286e-032 0 -24.726900000000001 0 0 1 -12.699999999999999 0 0 1 I I #
point $-1 -1 $-1 12.699999999999999 1.5552500693544191e-015 -34.124899999999997 #
point $-1 -1 $-1 -10.31875 0 -24.726900000000001 #
face $-1 -1 $-1 $429 $430 $27 $-1 $431 reversed single #
plane-surface $-1 -1 $-1 0 -12.699999999999999 0 0 1 0 0 0 1 forward_v I I I I #
coedge $-1 -1 $-1 $381 $386 $191 $285 reversed $270 $-1 #
coedge $-1 -1 $-1 $432 $272 $187 $279 forward $185 $-1 #
coedge $-1 -1 $-1 $272 $432 $433 $362 reversed $185 $-1 #
coedge $-1 -1 $-1 $434 $435 $272 $360 forward $436 $-1 #
edge $-1 -1 $-1 $374 -3.1415926535897931 $367 -1.5707963267948966 $359 $290 forward @7 unknown #
coedge $-1 -1 $-1 $274 $273 $437 $438 reversed $119 $-1 #
edge $-1 -1 $-1 $367 -68.249800000000008 $439 0 $433 $440 forward @7 unknown #
coedge $-1 -1 $-1 $441 $442 $356 $285 forward $443 $-1 #
coedge $-1 -1 $-1 $365 $275 $442 $384 forward $366 $-1 #
coedge $-1 -1 $-1 $275 $364 $444 $445 forward $366 $-1 #
loop $-1 -1 $-1 $-1 $275 $446 #
vertex $-1 -1 $-1 $447 $448 #
coedge $-1 -1 $-1 $449 $397 $277 $369 forward $450 $-1 #
edge $-1 -1 $-1 $200 1.5707963267948966 $374 3.1415926535897931 $368 $290 forward @7 unknown #
coedge $-1 -1 $-1 $451 $278 $281 $376 reversed $373 $-1 #
coedge $-1 -1 $-1 $278 $451 $449 $452 reversed $373 $-1 #
coedge $-1 -1 $-1 $453 $454 $357 $279 reversed $430 $-1 #
loop $-1 -1 $-1 $-1 $278 $455 #
vertex $-1 -1 $-1 $452 $456 #
straight-curve $-1 -1 $-1 12.699999999999999 0 34.124900000000004 0 0 1 I I #
edge $-1 -1 $-1 $400 -12.699999999999999 $283 0 $370 $457 forward @7 unknown #
face $-1 -1 $-1 $388 $282 $27 $-1 $458 forward single #
edge $-1 -1 $-1 $283 0 $459 12.699999999999999 $454 $457 forward @7 unknown #
point $-1 -1 $-1 12.699999999999999 0 34.124900000000004 #
straight-curve $-1 -1 $-1 -12.699999999999999 0 34.124900000000004 0 0 1 I I #
coedge $-1 -1 $-1 $390 $356 $287 $382 reversed $270 $-1 #
edge $-1 -1 $-1 $394 -12.699999999999999 $289 0 $381 $460 forward @7 unknown #
face $-1 -1 $-1 $461 $288 $27 $-1 $462 reversed single #
edge $-1 -1 $-1 $289 0 $463 12.699999999999999 $442 $460 forward @7 unknown #
point $-1 -1 $-1 -12.699999999999999 0 -34.124900000000004 #
coedge $-1 -1 $-1 $356 $390 $291 $387 reversed $270 $-1 #
edge $-1 -1 $-1 $294 0 $392 12.699999999999999 $386 $464 forward @7 unknown #
face $-1 -1 $-1 $465 $293 $27 $-1 $458 forward single #
point $-1 -1 $-1 -12.699999999999999 0 34.124900000000004 #
coedge $-1 -1 $-1 $386 $381 $295 $391 reversed $270 $-1 #
edge $-1 -1 $-1 $392 -34.124900000000004 $394 34.124900000000004 $390 $466 forward @7 unknown #
vertex $-1 -1 $-1 $387 $467 #
straight-curve $-1 -1 $-1 0 -12.699999999999999 34.124900000000004 1 0 0 I I #
vertex $-1 -1 $-1 $382 $468 #
straight-curve $-1 -1 $-1 0 -12.699999999999999 -34.124900000000004 -1 0 0 I I #
coedge $-1 -1 $-1 $299 $298 $451 $469 reversed $300 $-1 #
coedge $-1 -1 $-1 $368 $449 $298 $398 forward $450 $-1 #
edge $-1 -1 $-1 $470 -12.699999999999999 $200 -4.761422791785286e-032 $298 $395 forward @7 unknown #
face $-1 -1 $-1 $471 $443 $27 $-1 $271 reversed single #
vertex $-1 -1 $-1 $376 $472 #
point $-1 -1 $-1 4.8259999999999996 0 58.851800000000004 #
loop $-1 -1 $-1 $-1 $407 $208 #
coedge $-1 -1 $-1 $314 $311 $473 $474 forward $209 $-1 #
coedge $-1 -1 $-1 $311 $314 $316 $412 reversed $209 $-1 #
coedge $-1 -1 $-1 $313 $312 $311 $406 reversed $132 $-1 #
edge $-1 -1 $-1 $414 0 $475 2.6870000000000003 $311 $476 forward @7 unknown #
coedge $-1 -1 $-1 $473 $473 $312 $408 reversed $402 $-1 #
edge $-1 -1 $-1 $410 0 $475 3.1415926535897931 $407 $477 forward @7 unknown #
vertex $-1 -1 $-1 $412 $478 #
vertex $-1 -1 $-1 $474 $479 #
straight-curve $-1 -1 $-1 4.8259999999999996 5.9099502635467923e-016 58.851800000000004 0 0 -25.399999999999999 I I #
edge $480 -1 $-1 $414 0 $409 3.1415926535897931 $316 $481 forward @7 unknown #
attrib_edge_convexity-kcp-attrib $-1 -1 $482 $-1 $317 1 #
vertex $-1 -1 $-1 $412 $483 #
ellipse-curve $-1 -1 $-1 0 0 58.851800000000004 0 0 -1 4.8259999999999996 0 0 1 I I #
convexity-sys-attrib $-1 -1 $-1 $318 $214 #
coedge $-1 -1 $-1 $325 $325 $322 $418 forward $309 $-1 #
edge $-1 -1 $-1 $327 0 $329 3.1415926535897931 $417 $484 forward @7 unknown #
model_id-kcp-attrib $-1 -1 $-1 $-1 $323 1 1021400409 1021400409 -247398399 10 #
cone-surface $-1 -1 $-1 0 0 0 0 0 -1 -10.31875 0 0 1 I I 0 1 10.31875 forward I I I I #
ellipse-curve $-1 -1 $-1 0 0 -9.3979999999999997 0 0 -1 10.31875 0 0 1 I I #
point $-1 -1 $-1 -10.31875 0 -9.3979999999999997 #
point $-1 -1 $-1 10.31875 0 -9.3979999999999997 #
straight-curve $-1 -1 $-1 -12.699999999999999 12.699999999999999 0 0 0 -1 I I #
point $-1 -1 $-1 -12.699999999999999 -12.699999999999999 -34.124900000000004 #
straight-curve $-1 -1 $-1 -12.699999999999999 0 -34.124900000000004 0 1 0 I I #
point $-1 -1 $-1 -12.699999999999999 12.699999999999999 -34.124900000000004 #
point $-1 -1 $-1 12.699999999999999 1.5552500693544191e-015 -24.726900000000001 #
face $-1 -1 $-1 $377 $485 $27 $-1 $458 forward single #
loop $-1 -1 $-1 $-1 $372 $354 #
plane-surface $-1 -1 $-1 12.699999999999999 0 0 -1 0 0 0 0 1 forward_v I I I I #
coedge $-1 -1 $-1 $358 $357 $486 $487 reversed $185 $-1 #
coedge $-1 -1 $-1 $488 $489 $490 $362 forward $491 $-1 #
coedge $-1 -1 $-1 $435 $359 $489 $447 forward $436 $-1 #
coedge $-1 -1 $-1 $359 $434 $453 $492 forward $436 $-1 #
loop $-1 -1 $-1 $-1 $359 $493 #
coedge $-1 -1 $-1 $494 $495 $361 $438 forward $496 $-1 #
edge $-1 -1 $-1 $294 0 $439 1.5707963267948966 $437 $284 forward @7 unknown #
vertex $-1 -1 $-1 $497 $498 #
straight-curve $-1 -1 $-1 4.761422791785286e-032 12.699999999999999 34.124900000000004 0 0 1 I I #
coedge $-1 -1 $-1 $499 $363 $495 $500 reversed $443 $-1 #
coedge $-1 -1 $-1 $363 $499 $364 $384 reversed $443 $-1 #
loop $-1 -1 $-1 $-1 $363 $399 #
coedge $-1 -1 $-1 $501 $490 $365 $445 reversed $502 $-1 #
edge $-1 -1 $-1 $463 -12.699999999999999 $367 4.761422791785286e-032 $444 $503 forward @7 unknown #
face $-1 -1 $-1 $383 $366 $27 $-1 $462 reversed single #
edge $-1 -1 $-1 $367 4.761422791785286e-032 $504 12.699999999999999 $489 $503 forward @7 unknown #
point $-1 -1 $-1 4.761422791785286e-032 12.699999999999999 -34.124900000000004 #
coedge $-1 -1 $-1 $397 $368 $371 $452 forward $450 $-1 #
loop $-1 -1 $-1 $-1 $368 $461 #
coedge $-1 -1 $-1 $371 $370 $396 $469 forward $373 $-1 #
edge $-1 -1 $-1 $374 0 $470 12.699999999999999 $371 $505 forward @7 unknown #
coedge $-1 -1 $-1 $506 $372 $435 $492 reversed $430 $-1 #
coedge $-1 -1 $-1 $372 $506 $507 $378 reversed $430 $-1 #
face $-1 -1 $-1 $-1 $373 $27 $-1 $431 reversed single #
point $-1 -1 $-1 12.699999999999999 0 -34.124900000000004 #
straight-curve $-1 -1 $-1 12.699999999999999 0 34.124900000000004 0 1 0 I I #
plane-surface $-1 -1 $-1 0 0 34.124900000000004 0 0 1 1 0 0 forward_v I I I I #
vertex $-1 -1 $-1 $378 $508 #
straight-curve $-1 -1 $-1 -12.699999999999999 0 -34.124900000000004 0 1 0 I I #
face $-1 -1 $-1 $301 $450 $27 $-1 $462 reversed single #
plane-surface $-1 -1 $-1 0 0 -34.124900000000004 0 0 1 1 0 0 forward_v I I I I #
vertex $-1 -1 $-1 $445 $509 #
straight-curve $-1 -1 $-1 -12.699999999999999 0 34.124900000000004 0 -1 0 I I #
face $-1 -1 $-1 $510 $496 $27 $-1 $458 forward single #
straight-curve $-1 -1 $-1 -12.699999999999999 -12.699999999999999 0 0 0 -1 I I #
point $-1 -1 $-1 -12.699999999999999 -12.699999999999999 34.124900000000004 #
point $-1 -1 $-1 -12.699999999999999 -12.699999999999999 -34.124900000000004 #
edge $-1 -1 $-1 $400 -34.124900000000004 $470 34.124900000000004 $451 $511 forward @7 unknown #
vertex $-1 -1 $-1 $469 $512 #
face $-1 -1 $-1 $455 $491 $27 $-1 $513 reversed single #
point $-1 -1 $-1 12.699999999999999 -12.699999999999999 34.124900000000004 #
coedge $-1 -1 $-1 $407 $407 $403 $474 reversed $402 $-1 #
edge $-1 -1 $-1 $475 0 $410 3.1415926535897931 $473 $514 forward @7 unknown #
vertex $-1 -1 $-1 $474 $515 #
straight-curve $-1 -1 $-1 -4.8259999999999996 0 58.851800000000004 0 0 -25.399999999999999 I I #
ellipse-curve $-1 -1 $-1 -3.5249581031848718e-016 3.5249581031848718e-016 -9.3979999999999997 0 0 -1 4.8259999999999996 -3.5249581031848718e-016 0 1 I I #
point $-1 -1 $-1 4.8259999999999996 0 58.851800000000004 #
point $-1 -1 $-1 4.8259999999999996 0 -9.3979999999999997 #
attrib_edge_convexity-kcp-attrib $-1 -1 $516 $-1 $412 1 #
ellipse-curve $-1 -1 $-1 0 0 58.851800000000004 0 0 -1 -4.8259999999999996 0 0 1 I I #
convexity-sys-attrib $-1 -1 $-1 $413 $317 #
point $-1 -1 $-1 -4.8259999999999996 0 58.851800000000004 #
ellipse-curve $-1 -1 $-1 0 0 -9.3979999999999997 0 0 -1 -10.31875 0 0 1 I I #
loop $-1 -1 $-1 $-1 $486 $429 #
coedge $-1 -1 $-1 $507 $517 $432 $487 forward $485 $-1 #
edge $-1 -1 $-1 $439 1.5707963267948966 $283 3.1415926535897931 $486 $284 forward @7 unknown #
coedge $-1 -1 $-1 $518 $433 $517 $519 reversed $491 $-1 #
coedge $-1 -1 $-1 $433 $518 $434 $447 reversed $491 $-1 #
coedge $-1 -1 $-1 $444 $520 $273 $362 reversed $502 $-1 #
loop $-1 -1 $-1 $-1 $433 $471 #
edge $-1 -1 $-1 $504 -12.699999999999999 $374 0 $453 $505 forward @7 unknown #
face $-1 -1 $-1 $446 $436 $27 $-1 $462 reversed single #
coedge $-1 -1 $-1 $495 $437 $520 $497 forward $496 $-1 #
coedge $-1 -1 $-1 $437 $494 $441 $500 forward $496 $-1 #
loop $-1 -1 $-1 $-1 $437 $465 #
edge $-1 -1 $-1 $439 -4.761422791785286e-032 $521 12.699999999999999 $520 $522 forward @7 unknown #
point $-1 -1 $-1 4.761422791785286e-032 12.699999999999999 34.124900000000004 #
coedge $-1 -1 $-1 $442 $441 $501 $523 forward $443 $-1 #
edge $-1 -1 $-1 $521 -12.699999999999999 $294 0 $441 $464 forward @7 unknown #
coedge $-1 -1 $-1 $520 $444 $499 $523 reversed $502 $-1 #
loop $-1 -1 $-1 $-1 $490 $510 #
straight-curve $-1 -1 $-1 0 12.699999999999999 -34.124900000000004 1 0 0 I I #
vertex $-1 -1 $-1 $492 $524 #
straight-curve $-1 -1 $-1 12.699999999999999 0 -34.124900000000004 0 -1 0 I I #
coedge $-1 -1 $-1 $454 $453 $518 $525 reversed $430 $-1 #
coedge $-1 -1 $-1 $517 $486 $454 $378 forward $485 $-1 #
point $-1 -1 $-1 12.699999999999999 12.699999999999999 34.124900000000004 #
point $-1 -1 $-1 -12.699999999999999 12.699999999999999 -34.124900000000004 #
face $-1 -1 $-1 $493 $502 $27 $-1 $513 reversed single #
straight-curve $-1 -1 $-1 12.699999999999999 -12.699999999999999 0 0 0 -1 I I #
point $-1 -1 $-1 12.699999999999999 -12.699999999999999 -34.124900000000004 #
plane-surface $-1 -1 $-1 0 12.699999999999999 0 0 -1 0 0 0 -1 forward_v I I I I #
ellipse-curve $-1 -1 $-1 3.5249581031848718e-016 -3.5249581031848718e-016 -9.3979999999999997 0 0 -1 -4.8259999999999996 3.5249581031848718e-016 0 1 I I #
point $-1 -1 $-1 -4.8259999999999996 0 -9.3979999999999997 #
convexity-sys-attrib $-1 -1 $-1 $480 $412 #
coedge $-1 -1 $-1 $486 $507 $488 $519 forward $485 $-1 #
coedge $-1 -1 $-1 $489 $488 $506 $525 forward $491 $-1 #
edge $-1 -1 $-1 $459 -12.699999999999999 $439 -4.761422791785286e-032 $488 $522 forward @7 unknown #
coedge $-1 -1 $-1 $490 $501 $494 $497 reversed $502 $-1 #
vertex $-1 -1 $-1 $497 $526 #
straight-curve $-1 -1 $-1 0 12.699999999999999 34.124900000000004 -1 0 0 I I #
edge $-1 -1 $-1 $521 -34.124900000000004 $463 34.124900000000004 $501 $527 forward @7 unknown #
point $-1 -1 $-1 12.699999999999999 12.699999999999999 -34.124900000000004 #
edge $-1 -1 $-1 $459 -34.124900000000004 $504 34.124900000000004 $506 $528 forward @7 unknown #
point $-1 -1 $-1 -12.699999999999999 12.699999999999999 34.124900000000004 #
straight-curve $-1 -1 $-1 -12.699999999999999 12.699999999999999 0 0 0 -1 I I #
straight-curve $-1 -1 $-1 12.699999999999999 12.699999999999999 0 0 0 -1 I I #
End-of-ACIS-data 