600 0 1 0           
106 GICL ACIS Healer - Source: /gicl/data5/repository/NIST/Manfred_Osti/spectrometer/ballnut/ballnut.sat - 6 0 18 ACIS 6.0.3 Solaris 24 Sun Apr 14 00:37:00 2002 
1 9.999999999999999547e-07 1.000000000000000036e-10 
body $-1 $1 $-1 $2 #
lump $-1 $-1 $3 $0 #
transform $-1 1 0 0 0 1 0 0 0 1 0 0 0 1 no_rotate no_reflect no_shear #
shell $-1 $-1 $-1 $4 $-1 $1 #
face $-1 $5 $6 $3 $-1 $7 reversed single #
face $-1 $8 $9 $3 $-1 $10 forward single #
loop $-1 $11 $12 $4 #
plane-surface $-1 0 0 0 0 0 1 1 0 0 forward_v I I I I #
face $-1 $13 $14 $3 $-1 $15 forward single #
loop $-1 $16 $17 $5 #
plane-surface $-1 0 0 2.317000000000000171 0 0 1 1 0 0 forward_v I I I I #
loop $-1 $-1 $18 $4 #
coedge $-1 $12 $12 $19 $20 forward $6 $-1 #
face $-1 $21 $22 $3 $-1 $23 forward single #
loop $-1 $24 $25 $8 #
cone-surface $-1 0 0 0 0 0 1 0.5 0 0 1 I I 0 1 0.5 forward I I I I #
loop $-1 $-1 $26 $5 #
coedge $-1 $17 $17 $25 $27 reversed $9 $-1 #
coedge $-1 $18 $18 $28 $29 forward $11 $-1 #
coedge $-1 $19 $19 $12 $20 reversed $24 $-1 #
edge $-1 $30 -3.141592653589793116 $30 3.141592653589793116 $19 $31 forward 7 unknown #
face $-1 $32 $33 $3 $-1 $34 forward single #
loop $-1 $35 $36 $13 #
plane-surface $-1 0 0 -0.3699999999999999956 0 0 -1 -1 0 0 forward_v I I I I #
loop $-1 $-1 $19 $8 #
coedge $-1 $25 $25 $17 $27 forward $14 $-1 #
coedge $-1 $26 $26 $37 $38 reversed $16 $-1 #
edge $-1 $39 0 $39 6.283185307179586232 $25 $40 forward 7 unknown #
coedge $-1 $28 $28 $18 $29 reversed $41 $-1 #
edge $-1 $42 -3.141592653589793116 $42 3.141592653589793116 $28 $43 forward 7 unknown #
vertex $-1 $20 $44 #
ellipse-curve $-1 0 0 0 0 0 -1 -0.5 0 0 1 I I #
face $-1 $-1 $45 $3 $-1 $46 reversed single #
loop $-1 $41 $47 $21 #
cone-surface $-1 0 0 0 0 0 -1 -0.40625 0 0 1 I I 0 1 0.40625 forward I I I I #
loop $-1 $-1 $48 $13 #
coedge $-1 $36 $36 $47 $49 reversed $22 $-1 #
coedge $-1 $37 $37 $26 $38 forward $50 $-1 #
edge $-1 $51 0 $51 6.283185307179586232 $37 $52 forward 7 unknown #
vertex $-1 $27 $53 #
ellipse-curve $-1 0 0 2.317000000000000171 0 0 -1 0.5 0 0 1 I I #
loop $-1 $-1 $28 $21 #
vertex $-1 $29 $54 #
ellipse-curve $-1 0 0 0 0 0 1 0.40625 0 0 1 I I #
point $-1 0.5 0 0 #
loop $-1 $50 $55 $32 #
cone-surface $-1 0 0 2.317000000000000171 0 0 -1 -0.1900000000000000022 0 0 1 I I 0 1 0.1900000000000000022 forward I I I I #
coedge $-1 $47 $47 $36 $49 forward $33 $-1 #
coedge $-1 $48 $48 $55 $56 forward $35 $-1 #
edge $-1 $57 0 $57 6.283185307179586232 $47 $58 forward 7 unknown #
loop $-1 $-1 $37 $32 #
vertex $-1 $38 $59 #
ellipse-curve $-1 0 0 2.317000000000000171 0 0 1 -0.1900000000000000022 0 0 1 I I #
point $-1 0.5 0 2.317000000000000171 #
point $-1 -0.40625 0 0 #
coedge $-1 $55 $55 $48 $56 reversed $45 $-1 #
edge $-1 $60 -3.141592653589793116 $60 3.141592653589793116 $55 $61 forward 7 unknown #
vertex $-1 $49 $62 #
ellipse-curve $-1 0 0 -0.3699999999999999956 0 0 1 -0.40625 0 0 1 I I #
point $-1 -0.1900000000000000022 0 2.317000000000000171 #
vertex $-1 $56 $63 #
ellipse-curve $-1 0 0 -0.3699999999999999956 0 0 1 0.1900000000000000022 0 0 1 I I #
point $-1 -0.40625 0 -0.3699999999999999956 #
point $-1 -0.1900000000000000022 0 -0.3699999999999999956 #
End-of-ACIS-data 