104 132 0 0                             
body $-1 $1 $-1 $2 #
lump $-1 $-1 $3 $0 #
transform $-1 1 0 0 0 1 0 0 0 1 0 0 0 1 0 0 0 #
shell $-1 $-1 $-1 $4 $1 #
face $5 $6 $7 $3 $-1 $8 0 #
face_name-twe-attrib $-1 $-1 $-1 $4 1 #
face $9 $10 $11 $3 $-1 $12 1 #
loop $13 $14 $15 $4 #
plane-surface $16 0.2825 -0.25 0 0 -1 0 0 0 -1 0 #
face_name-twe-attrib $-1 $-1 $-1 $6 2 #
face $17 $18 $19 $3 $-1 $20 1 #
loop $21 $22 $23 $6 #
plane-surface $24 0.2825 -0.19 0 0 -1 0 0 0 -1 0 #
loop_type-twe-attrib $-1 $-1 $-1 $7 0 #
loop $25 $-1 $26 $4 #
coedge $-1 $15 $15 $27 $28 0 $7 $-1 #
surf-twe-attrib $-1 $-1 $-1 $8 4 #
face_name-twe-attrib $-1 $-1 $-1 $10 3 #
face $29 $30 $31 $3 $-1 $32 0 #
loop $33 $34 $35 $10 #
plane-surface $36 0.2825 0 0 0 -1 0 0 0 -1 0 #
loop_type-twe-attrib $-1 $-1 $-1 $11 1 #
loop $37 $-1 $38 $6 #
coedge $-1 $23 $23 $39 $40 0 $11 $-1 #
surf-twe-attrib $-1 $-1 $-1 $12 6 #
loop_type-twe-attrib $-1 $-1 $-1 $14 1 #
coedge $-1 $26 $26 $41 $42 1 $14 $-1 #
coedge $-1 $27 $27 $15 $28 1 $43 $-1 #
edge $44 $45 $45 $27 $46 0 #
face_name-twe-attrib $-1 $-1 $-1 $18 4 #
face $47 $48 $49 $3 $-1 $50 0 #
loop $51 $52 $53 $18 #
cone-surface $54 0.2825 -0.03 0 0 -1 0 -0.3125 0 0 1 0.707106781186548 0.707106781186547 0 #
loop_type-twe-attrib $-1 $-1 $-1 $19 1 #
loop $55 $-1 $56 $10 #
coedge $-1 $35 $35 $57 $58 0 $19 $-1 #
surf-twe-attrib $-1 $-1 $-1 $20 10 #
loop_type-twe-attrib $-1 $-1 $-1 $22 0 #
coedge $-1 $38 $38 $59 $60 1 $22 $-1 #
coedge $-1 $39 $39 $23 $40 1 $61 $-1 #
edge $62 $63 $63 $39 $64 0 #
coedge $-1 $41 $41 $26 $42 0 $65 $-1 #
edge $66 $67 $67 $41 $68 0 #
loop $69 $-1 $27 $30 #
edge_name-twe-attrib $-1 $-1 $-1 $28 3 8704 #
vertex $-1 $28 $70 #
ellipse-curve $71 0.2825 -0.25 0 0 -1 0 -0.3125 0 0 1 #
face_name-twe-attrib $-1 $-1 $-1 $30 5 #
face $72 $73 $65 $3 $-1 $74 1 #
loop $75 $43 $76 $30 #
cone-surface $77 0.2825 0.0125 0 0 -1 0 -0.3125 0 0 1 0 1 0 #
loop_type-twe-attrib $-1 $-1 $-1 $31 0 #
loop $78 $-1 $79 $18 #
coedge $-1 $53 $53 $56 $80 0 $31 $-1 #
surf-twe-attrib $-1 $-1 $-1 $32 18 #
loop_type-twe-attrib $-1 $-1 $-1 $34 0 #
coedge $-1 $56 $56 $53 $80 1 $34 $-1 #
coedge $-1 $57 $57 $35 $58 1 $81 $-1 #
edge $82 $83 $83 $57 $84 0 #
coedge $-1 $59 $59 $38 $60 0 $85 $-1 #
edge $86 $87 $87 $59 $88 0 #
loop $89 $-1 $39 $73 #
edge_name-twe-attrib $-1 $-1 $-1 $40 6 8448 #
vertex $-1 $40 $90 #
ellipse-curve $91 0.2825 -0.19 0 0 -1 0 -0.109 0 0 1 #
loop $92 $93 $41 $48 #
edge_name-twe-attrib $-1 $-1 $-1 $42 4 8704 #
vertex $-1 $42 $94 #
ellipse-curve $95 0.2825 -0.25 0 -1e-15 -1 0 -0.103 1.03e-16 0 1 #
loop_type-twe-attrib $-1 $-1 $-1 $43 1 #
point $-1 0.595 -0.25 -3.82702058714804e-17 #
cur-twe-attrib $-1 $-1 $-1 $46 28 #
face_name-twe-attrib $-1 $-1 $-1 $48 6 #
face $96 $97 $98 $3 $-1 $99 1 #
cone-surface $100 0.2825 0.0125 0 0 -1 0 -0.103 0 0 1 0 1 0 #
loop_type-twe-attrib $-1 $-1 $-1 $49 0 #
coedge $-1 $76 $76 $79 $101 0 $49 $-1 #
surf-twe-attrib $-1 $-1 $-1 $50 30 #
loop_type-twe-attrib $-1 $-1 $-1 $52 1 #
coedge $-1 $79 $79 $76 $101 1 $52 $-1 #
edge $102 $103 $103 $53 $104 0 #
loop $105 $-1 $57 $97 #
edge_name-twe-attrib $-1 $-1 $-1 $58 8 8704 #
vertex $-1 $58 $106 #
ellipse-curve $107 0.2825 0 0 0 -1 0 -0.1875 0 0 1 #
loop $108 $81 $59 $97 #
edge_name-twe-attrib $-1 $-1 $-1 $60 7 4608 #
vertex $-1 $60 $109 #
ellipse-curve $110 0.2825 -0.19 0 0 -1 0 -0.1875 0 0 1 #
loop_type-twe-attrib $-1 $-1 $-1 $61 1 #
point $-1 0.3915 -0.19 -1.33486478079724e-17 #
cur-twe-attrib $-1 $-1 $-1 $64 40 #
loop_type-twe-attrib $-1 $-1 $-1 $65 0 #
loop $111 $-1 $112 $48 #
point $-1 0.1795 -0.25 0 #
cur-twe-attrib $-1 $-1 $-1 $68 42 #
face_name-twe-attrib $-1 $-1 $-1 $73 7 #
face $113 $-1 $85 $3 $-1 $114 1 #
loop $115 $61 $116 $73 #
cone-surface $117 0.2825 -0.19 0 0 1 0 -0.109 0 0 1 0.499999999999998 0.86602540378444 0 #
surf-twe-attrib $-1 $-1 $-1 $74 48 #
edge $118 $119 $119 $76 $120 0 #
edge_name-twe-attrib $-1 $-1 $-1 $80 1 8448 #
vertex $-1 $80 $121 #
ellipse-curve $122 0.2825 0 0 0 -1 0 -0.2825 0 0 1 #
loop_type-twe-attrib $-1 $-1 $-1 $81 1 #
point $-1 0.47 0 -2.29621235228882e-17 #
cur-twe-attrib $-1 $-1 $-1 $84 58 #
loop_type-twe-attrib $-1 $-1 $-1 $85 0 #
point $-1 0.095 -0.19 0 #
cur-twe-attrib $-1 $-1 $-1 $88 60 #
loop_type-twe-attrib $-1 $-1 $-1 $93 1 #
coedge $-1 $112 $112 $116 $123 1 $93 $-1 #
face_name-twe-attrib $-1 $-1 $-1 $97 8 #
cone-surface $124 0.2825 0.0125 0 0 -1 0 -0.1875 0 0 1 0 1 0 #
loop_type-twe-attrib $-1 $-1 $-1 $98 0 #
coedge $-1 $116 $116 $112 $123 0 $98 $-1 #
surf-twe-attrib $-1 $-1 $-1 $99 73 #
edge_name-twe-attrib $-1 $-1 $-1 $101 2 8448 #
vertex $-1 $101 $125 #
ellipse-curve $126 0.2825 -0.03 0 0 -1 0 -0.3125 0 0 1 #
point $-1 0.565 0 -3.45962661078183e-17 #
cur-twe-attrib $-1 $-1 $-1 $104 80 #
edge $127 $128 $128 $116 $129 0 #
surf-twe-attrib $-1 $-1 $-1 $114 97 #
point $-1 0.595 -0.03 -3.82702058714804e-17 #
cur-twe-attrib $-1 $-1 $-1 $120 101 #
edge_name-twe-attrib $-1 $-1 $-1 $123 5 8448 #
vertex $-1 $123 $130 #
ellipse-curve $131 0.2825 -0.200392304845413 0 0 -1 0 -0.103 0 0 1 #
point $-1 0.3855 -0.200392304845413 -1.26138598552399e-17 #
cur-twe-attrib $-1 $-1 $-1 $129 123 #
