600 0 1 0           
103 GICL ACIS Healer - Source: /gicl/data5/repository/ICEM-CDC/Fixture_Models/JRButton3/JRButton3.sat - 6 0 18 ACIS 6.0.3 Solaris 24 Sat Apr 13 23:06:43 2002 
1 9.999999999999999547e-07 1.000000000000000036e-10 
body $-1 $1 $-1 $2 #
lump $-1 $-1 $3 $0 #
transform $-1 1 0 0 0 1 0 0 0 1 0 0 0 1 no_rotate no_reflect no_shear #
shell $-1 $-1 $-1 $4 $-1 $1 #
face $5 $6 $7 $3 $-1 $8 forward single #
face_name-twe-attrib $-1 $-1 $-1 $4 1 #
face $9 $10 $11 $3 $-1 $12 reversed single #
loop $13 $14 $15 $4 #
plane-surface $16 0.2824999999999999734 -0.25 0 0 -1 0 0 0 -1 forward_v I I I I #
face_name-twe-attrib $-1 $-1 $-1 $6 2 #
face $17 $18 $19 $3 $-1 $20 reversed single #
loop $21 $22 $23 $6 #
plane-surface $24 0.2824999999999999734 -0.1900000000000000022 0 0 -1 0 0 0 -1 forward_v I I I I #
loop_type-twe-attrib $-1 $-1 $-1 $7 0 #
loop $25 $-1 $26 $4 #
coedge $-1 $15 $15 $27 $28 forward $7 $-1 #
surf-twe-attrib $-1 $-1 $-1 $8 4 #
face_name-twe-attrib $-1 $-1 $-1 $10 3 #
face $29 $30 $31 $3 $-1 $32 forward single #
loop $33 $34 $35 $10 #
plane-surface $36 0.2824999999999999734 0 0 0 -1 0 0 0 -1 forward_v I I I I #
loop_type-twe-attrib $-1 $-1 $-1 $11 1 #
loop $37 $-1 $38 $6 #
coedge $-1 $23 $23 $39 $40 forward $11 $-1 #
surf-twe-attrib $-1 $-1 $-1 $12 6 #
loop_type-twe-attrib $-1 $-1 $-1 $14 1 #
coedge $-1 $26 $26 $41 $42 reversed $14 $-1 #
coedge $-1 $27 $27 $15 $28 reversed $43 $-1 #
edge $44 $45 -3.141592653589793116 $45 3.141592653589793116 $27 $46 forward 7 unknown #
face_name-twe-attrib $-1 $-1 $-1 $18 4 #
face $47 $48 $49 $3 $-1 $50 forward single #
loop $51 $52 $53 $18 #
cone-surface $54 0.2824999999999999734 -0.02999999999999999889 0 0 -1 0 -0.3125 0 0 1 I I 0.7071067811865480168 0.7071067811865470176 0.3125 forward I I I I #
loop_type-twe-attrib $-1 $-1 $-1 $19 1 #
loop $55 $-1 $56 $10 #
coedge $-1 $35 $35 $57 $58 forward $19 $-1 #
surf-twe-attrib $-1 $-1 $-1 $20 10 #
loop_type-twe-attrib $-1 $-1 $-1 $22 0 #
coedge $-1 $38 $38 $59 $60 reversed $22 $-1 #
coedge $-1 $39 $39 $23 $40 reversed $61 $-1 #
edge $62 $63 -3.141592653589793116 $63 3.141592653589793116 $39 $64 forward 7 unknown #
coedge $-1 $41 $41 $26 $42 forward $65 $-1 #
edge $66 $67 0 $67 6.283185307179586232 $41 $68 forward 7 unknown #
loop $69 $-1 $27 $30 #
edge_name-twe-attrib $-1 $-1 $-1 $28 3 8704 #
vertex $-1 $28 $70 #
ellipse-curve $71 0.2824999999999999734 -0.25 0 0 -1 0 -0.3125 0 0 1 I I #
face_name-twe-attrib $-1 $-1 $-1 $30 5 #
face $72 $73 $65 $3 $-1 $74 reversed single #
loop $75 $43 $76 $30 #
cone-surface $77 0.2824999999999999734 0.01250000000000000069 0 0 -1 0 -0.3125 0 0 1 I I 0 1 0.3125 forward I I I I #
loop_type-twe-attrib $-1 $-1 $-1 $31 0 #
loop $78 $-1 $79 $18 #
coedge $-1 $53 $53 $56 $80 forward $31 $-1 #
surf-twe-attrib $-1 $-1 $-1 $32 18 #
loop_type-twe-attrib $-1 $-1 $-1 $34 0 #
coedge $-1 $56 $56 $53 $80 reversed $34 $-1 #
coedge $-1 $57 $57 $35 $58 reversed $81 $-1 #
edge $82 $83 -3.141592653589793116 $83 3.141592653589793116 $57 $84 forward 7 unknown #
coedge $-1 $59 $59 $38 $60 forward $85 $-1 #
edge $86 $87 0 $87 6.283185307179586232 $59 $88 forward 7 unknown #
loop $89 $-1 $39 $73 #
edge_name-twe-attrib $-1 $-1 $-1 $40 6 8448 #
vertex $-1 $40 $90 #
ellipse-curve $91 0.2824999999999999734 -0.1900000000000000022 0 0 -1 0 -0.1089999999999999997 0 0 1 I I #
loop $92 $93 $41 $48 #
edge_name-twe-attrib $-1 $-1 $-1 $42 4 8704 #
vertex $-1 $42 $94 #
ellipse-curve $95 0.2824999999999999734 -0.25 0 -1.000000000000000078e-15 -1 0 -0.1029999999999999943 1.029999999999999974e-16 0 1 I I #
loop_type-twe-attrib $-1 $-1 $-1 $43 1 #
point $-1 0.5949999999999999734 -0.25 -3.827020587148040074e-17 #
cur-twe-attrib $-1 $-1 $-1 $46 28 #
face_name-twe-attrib $-1 $-1 $-1 $48 6 #
face $96 $97 $98 $3 $-1 $99 reversed single #
cone-surface $100 0.2824999999999999734 0.01250000000000000069 0 0 -1 0 -0.1029999999999999943 0 0 1 I I 0 1 0.1029999999999999943 forward I I I I #
loop_type-twe-attrib $-1 $-1 $-1 $49 0 #
coedge $-1 $76 $76 $79 $101 forward $49 $-1 #
surf-twe-attrib $-1 $-1 $-1 $50 30 #
loop_type-twe-attrib $-1 $-1 $-1 $52 1 #
coedge $-1 $79 $79 $76 $101 reversed $52 $-1 #
edge $102 $103 -3.141592653589793116 $103 3.141592653589793116 $53 $104 forward 7 unknown #
loop $105 $-1 $57 $97 #
edge_name-twe-attrib $-1 $-1 $-1 $58 8 8704 #
vertex $-1 $58 $106 #
ellipse-curve $107 0.2824999999999999734 0 0 0 -1 0 -0.1875 0 0 1 I I #
loop $108 $81 $59 $97 #
edge_name-twe-attrib $-1 $-1 $-1 $60 7 4608 #
vertex $-1 $60 $109 #
ellipse-curve $110 0.2824999999999999734 -0.1900000000000000022 0 0 -1 0 -0.1875 0 0 1 I I #
loop_type-twe-attrib $-1 $-1 $-1 $61 1 #
point $-1 0.3915000000000000147 -0.1900000000000000022 -1.334864780797239971e-17 #
cur-twe-attrib $-1 $-1 $-1 $64 40 #
loop_type-twe-attrib $-1 $-1 $-1 $65 0 #
loop $111 $-1 $112 $48 #
point $-1 0.1794999999999999929 -0.25 0 #
cur-twe-attrib $-1 $-1 $-1 $68 42 #
face_name-twe-attrib $-1 $-1 $-1 $73 7 #
face $113 $-1 $85 $3 $-1 $114 reversed single #
loop $115 $61 $116 $73 #
cone-surface $117 0.2824999999999999734 -0.1900000000000000022 0 0 1 0 -0.1089999999999999997 0 0 1 I I 0.4999999999999980016 0.8660254037844400399 0.1089999999999999997 forward I I I I #
surf-twe-attrib $-1 $-1 $-1 $74 48 #
edge $118 $119 -3.141592653589793116 $119 3.141592653589793116 $76 $120 forward 7 unknown #
edge_name-twe-attrib $-1 $-1 $-1 $80 1 8448 #
vertex $-1 $80 $121 #
ellipse-curve $122 0.2824999999999999734 0 0 0 -1 0 -0.2824999999999999734 0 0 1 I I #
loop_type-twe-attrib $-1 $-1 $-1 $81 1 #
point $-1 0.4699999999999999734 0 -2.296212352288820038e-17 #
cur-twe-attrib $-1 $-1 $-1 $84 58 #
loop_type-twe-attrib $-1 $-1 $-1 $85 0 #
point $-1 0.09500000000000000111 -0.1900000000000000022 0 #
cur-twe-attrib $-1 $-1 $-1 $88 60 #
loop_type-twe-attrib $-1 $-1 $-1 $93 1 #
coedge $-1 $112 $112 $116 $123 reversed $93 $-1 #
face_name-twe-attrib $-1 $-1 $-1 $97 8 #
cone-surface $124 0.2824999999999999734 0.01250000000000000069 0 0 -1 0 -0.1875 0 0 1 I I 0 1 0.1875 forward I I I I #
loop_type-twe-attrib $-1 $-1 $-1 $98 0 #
coedge $-1 $116 $116 $112 $123 forward $98 $-1 #
surf-twe-attrib $-1 $-1 $-1 $99 73 #
edge_name-twe-attrib $-1 $-1 $-1 $101 2 8448 #
vertex $-1 $101 $125 #
ellipse-curve $126 0.2824999999999999734 -0.02999999999999999889 0 0 -1 0 -0.3125 0 0 1 I I #
point $-1 0.5649999999999999467 0 -3.459626610781829706e-17 #
cur-twe-attrib $-1 $-1 $-1 $104 80 #
edge $127 $128 -3.141592653589793116 $128 3.141592653589793116 $116 $129 forward 7 unknown #
surf-twe-attrib $-1 $-1 $-1 $114 97 #
point $-1 0.5949999999999999734 -0.02999999999999999889 -3.827020587148040074e-17 #
cur-twe-attrib $-1 $-1 $-1 $120 101 #
edge_name-twe-attrib $-1 $-1 $-1 $123 5 8448 #
vertex $-1 $123 $130 #
ellipse-curve $131 0.2824999999999999734 -0.2003923048454130107 0 0 -1 0 -0.1029999999999999943 0 0 1 I I #
point $-1 0.3855000000000000093 -0.2003923048454130107 -1.26138598552399007e-17 #
cur-twe-attrib $-1 $-1 $-1 $129 123 #
End-of-ACIS-data 