700 0 2 0           
24 FBMach with ACIS - 7.0.3 13 ACIS 7.0.3 NT 24 Tue May 14 10:17:34 2002 
1 9.9999999999999995e-007 1e-010 
body $2 -1 $-1 $3 $-1 $4 #
bdycol-kcp $-1 -1 1 6 $5 $6 $7 $8 $9 $10 #
model_id-kcp-attrib $-1 -1 $-1 $-1 $0 1 1021385854 1021385854 -838795263 1 #
lump $-1 -1 $-1 $-1 $11 $0 #
transform $-1 -1 1 0 0 0 1 0 0 0 1 0 0 0 1 rotate no_reflect no_shear #
body $12 -1 $-1 $13 $-1 $14 #
body $15 -1 $-1 $16 $-1 $17 #
body $18 -1 $-1 $19 $-1 $20 #
body $21 -1 $-1 $22 $-1 $23 #
body $24 -1 $-1 $25 $-1 $26 #
body $27 -1 $-1 $28 $-1 $29 #
shell $-1 -1 $-1 $-1 $-1 $30 $-1 $3 #
model_id-kcp-attrib $-1 -1 $-1 $-1 $5 1 1021385854 1021385854 -838795262 1 #
lump $-1 -1 $-1 $-1 $31 $5 #
transform $-1 -1 1 0 0 0 1 0 0 0 1 0.28249999999999997 -0.12500000000000006 0 1 no_rotate no_reflect no_shear #
rgb_color-st-attrib $-1 -1 $32 $-1 $6 1 1 0.5 #
lump $-1 -1 $-1 $-1 $33 $6 #
transform $-1 -1 -1 0 0 0 0 1 0 1 0 0.28249999999999997 -0.014999999999999999 0 1 rotate no_reflect no_shear #
rgb_color-st-attrib $-1 -1 $34 $-1 $7 1 1 0.5 #
lump $-1 -1 $-1 $-1 $35 $7 #
transform $-1 -1 1 0 0 0 0 1 0 -1 0 0.28249999999999997 -0.28439676901250432 0 1 rotate no_reflect no_shear #
rgb_color-st-attrib $-1 -1 $36 $-1 $8 0.5 1 1 #
lump $-1 -1 $-1 $-1 $37 $8 #
transform $-1 -1 1 0 0 0 -3.8285889215894375e-016 1 0 -1 -3.8285889215894375e-016 0.28249999999999997 -0.22000000000000003 -8.9014692426954435e-017 1 rotate no_reflect no_shear #
rgb_color-st-attrib $-1 -1 $38 $-1 $9 0.5 1 1 #
lump $-1 -1 $-1 $-1 $39 $9 #
transform $-1 -1 1 0 0 0 -3.8285889215894375e-016 1 0 -1 -3.8285889215894375e-016 0.28249999999999997 -0.095000000000000015 -4.115733090708646e-017 1 rotate no_reflect no_shear #
rgb_color-st-attrib $-1 -1 $40 $-1 $10 0.5 1 1 #
lump $-1 -1 $-1 $-1 $41 $10 #
transform $-1 -1 1 0 0 0 1 0 0 0 1 0.28249999999999997 -0.12500000000000006 0 1 no_rotate no_reflect no_shear #
face $42 -1 $-1 $43 $44 $11 $-1 $45 forward single #
shell $-1 -1 $-1 $-1 $-1 $46 $-1 $13 #
model_id-kcp-attrib $-1 -1 $-1 $15 $6 1 1021385854 1021385854 -837484541 1 #
shell $-1 -1 $-1 $-1 $-1 $47 $-1 $16 #
model_id-kcp-attrib $-1 -1 $-1 $18 $7 1 1021385854 1021385854 -837484540 1 #
shell $-1 -1 $-1 $-1 $-1 $48 $-1 $19 #
model_id-kcp-attrib $-1 -1 $-1 $21 $8 1 1021385854 1021385854 -834207739 1 #
shell $-1 -1 $-1 $-1 $-1 $49 $-1 $22 #
model_id-kcp-attrib $-1 -1 $-1 $24 $9 1 1021385854 1021385854 -834207738 1 #
shell $-1 -1 $-1 $-1 $-1 $50 $-1 $25 #
model_id-kcp-attrib $-1 -1 $-1 $27 $10 1 1021385854 1021385854 -829620217 1 #
shell $-1 -1 $-1 $-1 $-1 $51 $-1 $28 #
model_id-kcp-attrib $-1 -1 $52 $-1 $30 1 1021385854 1021385854 -838795263 2 #
face $53 -1 $-1 $54 $55 $11 $-1 $56 reversed single #
loop $57 -1 $-1 $58 $59 $30 #
plane-surface $60 -1 $-1 0.28249999999999997 -0.25 0 0 -1 0 0 0 -1 forward_v I I I I #
face $-1 -1 $-1 $61 $62 $31 $-1 $63 forward single #
face $-1 -1 $-1 $64 $65 $33 $-1 $66 reversed single #
face $-1 -1 $-1 $67 $68 $35 $-1 $69 reversed single #
face $-1 -1 $-1 $70 $71 $37 $-1 $72 forward single #
face $-1 -1 $-1 $73 $74 $39 $-1 $75 forward single #
face $-1 -1 $-1 $76 $77 $41 $-1 $78 reversed single #
face_name-twe-attrib $-1 -1 $-1 $42 $30 1 #
model_id-kcp-attrib $-1 -1 $79 $-1 $43 1 1021385854 1021385854 -838795263 3 #
face $80 -1 $-1 $81 $82 $11 $-1 $83 reversed single #
loop $84 -1 $-1 $85 $86 $43 #
plane-surface $87 -1 $-1 0.28249999999999997 -0.19 0 0 -1 0 0 0 -1 forward_v I I I I #
loop_type-twe-attrib $-1 -1 $-1 $-1 $44 0 #
loop $88 -1 $-1 $-1 $89 $30 #
coedge $-1 -1 $-1 $59 $59 $90 $91 forward $44 $-1 #
surf-twe-attrib $-1 -1 $-1 $-1 $45 4 #
face $-1 -1 $-1 $92 $93 $31 $-1 $94 reversed single #
loop $-1 -1 $-1 $-1 $95 $46 #
plane-surface $-1 -1 $-1 0 0 0.3125 0 0 1 1 0 0 forward_v I I I I #
face $-1 -1 $-1 $96 $97 $33 $-1 $98 forward single #
loop $-1 -1 $-1 $99 $100 $47 #
cone-surface $-1 -1 $-1 0 0 0.14124999999999976 0 0 1 0.15625 0 0 1 I I -0.70710678118654802 0.70710678118654702 0.15625 forward I I I I #
face $-1 -1 $-1 $101 $102 $35 $-1 $103 forward single #
loop $-1 -1 $-1 $104 $105 $48 #
cone-surface $-1 -1 $-1 0 0 0 0 0 1 0.10299999999999999 0 0 1 I I 0 1 0.10299999999999999 forward I I I I #
face $-1 -1 $-1 $106 $107 $37 $-1 $108 forward single #
loop $-1 -1 $-1 $109 $110 $49 #
cone-surface $-1 -1 $-1 0 0 0 0 0 1 0.10299999999999999 0 0 1 I I 0 1 0.10299999999999999 forward I I I I #
face $-1 -1 $-1 $111 $112 $39 $-1 $113 forward single #
loop $-1 -1 $-1 $114 $115 $50 #
cone-surface $-1 -1 $-1 0 0 0 0 0 1 0.1875 0 0 1 I I 0 1 0.1875 forward I I I I #
face $-1 -1 $-1 $116 $117 $41 $-1 $78 reversed single #
loop $-1 -1 $-1 $-1 $118 $51 #
cone-surface $-1 -1 $-1 0 -0.12499999999999994 0 0 -1 0 0.3125 0 3.8268948556949289e-017 1 I I 0 1 0.3125 forward I I I I #
face_name-twe-attrib $-1 -1 $-1 $53 $43 2 #
model_id-kcp-attrib $-1 -1 $119 $-1 $54 1 1021385854 1021385854 -838795263 4 #
face $120 -1 $-1 $121 $122 $11 $-1 $123 forward single #
loop $124 -1 $-1 $125 $126 $54 #
plane-surface $127 -1 $-1 0.28249999999999997 0 0 0 -1 0 0 0 -1 forward_v I I I I #
model_id-kcp-attrib $-1 -1 $128 $-1 $55 1 1021385854 1021385854 -838795263 17 #
loop $129 -1 $-1 $-1 $130 $43 #
coedge $-1 -1 $-1 $86 $86 $131 $132 forward $55 $-1 #
surf-twe-attrib $-1 -1 $-1 $-1 $56 6 #
model_id-kcp-attrib $-1 -1 $133 $-1 $58 1 1021385854 1021385854 -838795263 16 #
coedge $-1 -1 $-1 $89 $89 $134 $135 reversed $58 $-1 #
coedge $-1 -1 $-1 $90 $90 $59 $91 reversed $136 $-1 #
edge $137 -1 $-1 $138 -3.1415926535897931 $138 3.1415926535897931 $90 $139 forward @7 unknown #
face $140 -1 $-1 $141 $142 $31 $-1 $143 reversed single #
loop $-1 -1 $-1 $-1 $144 $61 #
plane-surface $-1 -1 $-1 0 0 -0.3125 0 0 1 1 0 0 forward_v I I I I #
coedge $-1 -1 $-1 $145 $146 $147 $148 forward $62 $-1 #
face $-1 -1 $-1 $-1 $149 $33 $-1 $150 forward single #
loop $-1 -1 $-1 $151 $152 $64 #
cone-surface $-1 -1 $-1 0 0 0 0 0 1 0.3125 0 0 1 I I 0 1 0.3125 forward I I I I #
loop $-1 -1 $-1 $-1 $153 $47 #
coedge $-1 -1 $-1 $100 $100 $154 $155 reversed $65 $-1 #
face $-1 -1 $-1 $-1 $156 $35 $-1 $157 forward single #
loop $-1 -1 $-1 $158 $159 $67 #
cone-surface $-1 -1 $-1 0 0 0 0 0 1 0.0545 0 0 1 I I -0.49999999999999789 0.86602540378443993 0.0545 forward I I I I #
loop $-1 -1 $-1 $-1 $160 $48 #
coedge $-1 -1 $-1 $105 $105 $159 $161 reversed $68 $-1 #
face $-1 -1 $-1 $-1 $162 $37 $-1 $163 forward single #
loop $-1 -1 $-1 $-1 $164 $70 #
plane-surface $-1 -1 $-1 0 0 -0.030000000000000082 0 0 -1 -1 0 0 forward_v I I I I #
loop $-1 -1 $-1 $-1 $165 $49 #
coedge $-1 -1 $-1 $110 $110 $164 $166 reversed $71 $-1 #
face $-1 -1 $-1 $-1 $167 $39 $-1 $168 forward single #
loop $-1 -1 $-1 $-1 $169 $73 #
plane-surface $-1 -1 $-1 0 0 -0.095000000000000084 0 0 -1 -1 0 0 forward_v I I I I #
loop $-1 -1 $-1 $-1 $170 $50 #
coedge $-1 -1 $-1 $115 $115 $169 $171 reversed $74 $-1 #
face $-1 -1 $-1 $172 $173 $41 $-1 $78 reversed single #
loop $-1 -1 $-1 $-1 $174 $76 #
coedge $-1 -1 $-1 $175 $176 $177 $178 reversed $77 $-1 #
face_name-twe-attrib $-1 -1 $-1 $80 $54 3 #
model_id-kcp-attrib $-1 -1 $179 $-1 $81 1 1021385854 1021385854 -838795263 5 #
face $180 -1 $-1 $181 $182 $11 $-1 $183 forward single #
loop $184 -1 $-1 $185 $186 $81 #
cone-surface $187 -1 $-1 0.28249999999999997 -0.029999999999999999 0 0 -1 0 -0.3125 0 0 1 I I 0.70710678118654802 0.70710678118654702 0.3125 forward I I I I #
loop_type-twe-attrib $-1 -1 $-1 $-1 $82 1 #
loop $188 -1 $-1 $-1 $189 $54 #
coedge $-1 -1 $-1 $126 $126 $190 $191 forward $82 $-1 #
surf-twe-attrib $-1 -1 $-1 $-1 $83 10 #
loop_type-twe-attrib $-1 -1 $-1 $84 $55 1 #
loop_type-twe-attrib $-1 -1 $-1 $-1 $85 0 #
coedge $-1 -1 $-1 $130 $130 $192 $193 reversed $85 $-1 #
coedge $-1 -1 $-1 $131 $131 $86 $132 reversed $194 $-1 #
edge $195 -1 $-1 $196 -3.1415926535897931 $196 3.1415926535897931 $131 $197 forward @7 unknown #
loop_type-twe-attrib $-1 -1 $-1 $88 $58 1 #
coedge $-1 -1 $-1 $134 $134 $89 $135 forward $198 $-1 #
edge $199 -1 $-1 $200 0 $200 6.2831853071795862 $134 $201 forward @7 unknown #
loop $202 -1 $-1 $-1 $90 $121 #
attrib_edge_convexity-kcp-attrib $-1 -1 $203 $-1 $91 1 #
vertex $-1 -1 $-1 $91 $204 #
ellipse-curve $205 -1 $-1 0.28249999999999997 -0.25 0 0 -1 0 -0.3125 0 0 1 I I #
model_id-kcp-attrib $-1 -1 $-1 $-1 $92 1 1021385854 1021385854 -838795262 2 #
face $-1 -1 $-1 $206 $207 $31 $-1 $208 reversed single #
loop $-1 -1 $-1 $-1 $209 $92 #
plane-surface $-1 -1 $-1 0 -0.12500000000000006 0 0 1 0 0 0 1 forward_v I I I I #
coedge $-1 -1 $-1 $210 $211 $212 $213 forward $93 $-1 #
coedge $-1 -1 $-1 $214 $95 $215 $216 forward $62 $-1 #
coedge $-1 -1 $-1 $95 $214 $217 $218 forward $62 $-1 #
coedge $-1 -1 $-1 $219 $220 $95 $148 reversed $221 $-1 #
edge $-1 -1 $-1 $222 -0.12500000000000006 $223 0.12500000000000006 $147 $224 forward @7 unknown #
loop $-1 -1 $-1 $225 $154 $96 #
plane-surface $-1 -1 $-1 0 0 0.014999999999999999 0 0 1 1 0 0 forward_v I I I I #
loop $-1 -1 $-1 $-1 $226 $64 #
coedge $-1 -1 $-1 $152 $152 $153 $227 reversed $97 $-1 #
coedge $-1 -1 $-1 $153 $153 $152 $227 forward $99 $-1 #
coedge $-1 -1 $-1 $154 $154 $100 $155 forward $149 $-1 #
edge $-1 -1 $-1 $228 -3.1415926535897931 $228 3.1415926535897931 $154 $229 forward @7 unknown #
loop $-1 -1 $-1 $230 $231 $101 #
plane-surface $-1 -1 $-1 0 0 -0.09439676901250435 0 0 -1 -1 0 0 forward_v I I I I #
loop $-1 -1 $-1 $-1 $232 $67 #
coedge $-1 -1 $-1 $159 $159 $105 $161 forward $102 $-1 #
coedge $-1 -1 $-1 $160 $160 $231 $233 reversed $104 $-1 #
edge $-1 -1 $-1 $234 -3.1415926535897931 $234 3.1415926535897931 $159 $235 forward @7 unknown #
loop $-1 -1 $-1 $-1 $236 $106 #
plane-surface $-1 -1 $-1 0 0 0.030000000000000082 0 0 1 1 0 0 forward_v I I I I #
coedge $-1 -1 $-1 $164 $164 $110 $166 forward $107 $-1 #
coedge $-1 -1 $-1 $165 $165 $236 $237 reversed $109 $-1 #
edge $-1 -1 $-1 $238 0 $238 6.2831853071795862 $164 $239 forward @7 unknown #
loop $-1 -1 $-1 $-1 $240 $111 #
plane-surface $-1 -1 $-1 0 0 0.095000000000000084 0 0 1 1 0 0 forward_v I I I I #
coedge $-1 -1 $-1 $169 $169 $115 $171 forward $112 $-1 #
coedge $-1 -1 $-1 $170 $170 $240 $241 reversed $114 $-1 #
edge $-1 -1 $-1 $242 0 $242 6.2831853071795862 $169 $243 forward @7 unknown #
face $-1 -1 $-1 $244 $245 $41 $-1 $78 reversed single #
loop $-1 -1 $-1 $-1 $246 $116 #
coedge $-1 -1 $-1 $247 $248 $249 $250 reversed $117 $-1 #
coedge $-1 -1 $-1 $251 $118 $252 $253 forward $77 $-1 #
coedge $-1 -1 $-1 $118 $251 $254 $255 reversed $77 $-1 #
coedge $-1 -1 $-1 $256 $257 $118 $178 forward $258 $-1 #
edge $-1 -1 $-1 $259 -1.2246063538223773e-016 $260 1.5707963267948966 $177 $261 forward @7 unknown #
face_name-twe-attrib $-1 -1 $-1 $120 $81 4 #
model_id-kcp-attrib $-1 -1 $262 $-1 $121 1 1021385854 1021385854 -838795263 6 #
face $263 -1 $-1 $264 $198 $11 $-1 $265 reversed single #
loop $266 -1 $-1 $136 $267 $121 #
cone-surface $268 -1 $-1 0.28249999999999997 0.012500000000000001 0 0 -1 0 -0.3125 0 0 1 I I 0 1 0.3125 forward I I I I #
loop_type-twe-attrib $-1 -1 $-1 $-1 $122 0 #
loop $269 -1 $-1 $-1 $270 $81 #
coedge $-1 -1 $-1 $186 $186 $189 $271 forward $122 $-1 #
surf-twe-attrib $-1 -1 $-1 $-1 $123 18 #
loop_type-twe-attrib $-1 -1 $-1 $-1 $125 0 #
coedge $-1 -1 $-1 $189 $189 $186 $271 reversed $125 $-1 #
coedge $-1 -1 $-1 $190 $190 $126 $191 reversed $272 $-1 #
edge $273 -1 $-1 $274 -3.1415926535897931 $274 3.1415926535897931 $190 $275 forward @7 unknown #
coedge $-1 -1 $-1 $192 $192 $130 $193 forward $276 $-1 #
edge $277 -1 $-1 $278 0 $278 6.2831853071795862 $192 $279 forward @7 unknown #
loop $280 -1 $-1 $-1 $131 $264 #
attrib_edge_convexity-kcp-attrib $-1 -1 $281 $-1 $132 1 #
vertex $-1 -1 $-1 $132 $282 #
ellipse-curve $283 -1 $-1 0.28249999999999997 -0.19 0 0 -1 0 -0.109 0 0 1 I I #
loop $284 -1 $-1 $285 $134 $181 #
attrib_edge_convexity-kcp-attrib $-1 -1 $286 $-1 $135 1 #
vertex $287 -1 $-1 $135 $288 #
ellipse-curve $289 -1 $-1 0.28249999999999997 -0.25 0 -1.0000000000000001e-015 -1 0 -0.10299999999999999 1.03e-016 0 1 I I #
loop_type-twe-attrib $-1 -1 $-1 $-1 $136 1 #
convexity-sys-attrib $-1 -1 $290 $137 $91 #
point $-1 -1 $-1 0.59499999999999997 -0.25 -3.8270205871480401e-017 #
cur-twe-attrib $-1 -1 $-1 $-1 $139 28 #
face $291 -1 $-1 $292 $293 $31 $-1 $294 reversed single #
loop $-1 -1 $-1 $-1 $295 $141 #
plane-surface $-1 -1 $-1 -0.3125 0 0 1 0 0 0 0 -1 forward_v I I I I #
coedge $-1 -1 $-1 $296 $217 $297 $298 forward $142 $-1 #
coedge $-1 -1 $-1 $299 $144 $296 $300 forward $93 $-1 #
coedge $-1 -1 $-1 $144 $299 $301 $302 forward $93 $-1 #
coedge $-1 -1 $-1 $220 $219 $144 $213 reversed $221 $-1 #
edge $-1 -1 $-1 $303 -0.12500000000000006 $304 0.12500000000000006 $212 $305 forward @7 unknown #
coedge $-1 -1 $-1 $146 $145 $306 $307 forward $62 $-1 #
coedge $-1 -1 $-1 $308 $309 $145 $216 reversed $293 $-1 #
edge $-1 -1 $-1 $223 -0.3125 $310 0.3125 $215 $311 forward @7 unknown #
coedge $-1 -1 $-1 $209 $312 $146 $218 reversed $142 $-1 #
edge $-1 -1 $-1 $313 -0.3125 $222 0.3125 $217 $314 forward @7 unknown #
coedge $-1 -1 $-1 $212 $147 $312 $315 forward $221 $-1 #
coedge $-1 -1 $-1 $147 $212 $308 $316 reversed $221 $-1 #
loop $-1 -1 $-1 $-1 $219 $292 #
vertex $-1 -1 $-1 $148 $317 #
vertex $-1 -1 $-1 $148 $318 #
straight-curve $-1 -1 $-1 0.3125 0 0.3125 0 1 0 I I #
loop $-1 -1 $-1 $-1 $319 $96 #
coedge $-1 -1 $-1 $226 $226 $319 $320 reversed $151 $-1 #
edge $-1 -1 $-1 $321 0 $321 6.2831853071795862 $152 $322 forward @7 unknown #
vertex $-1 -1 $-1 $155 $323 #
ellipse-curve $-1 -1 $-1 0 0 0.015000000000000013 0 0 -1 0.28249999999999992 0 0 1 I I #
loop $-1 -1 $-1 $-1 $324 $101 #
coedge $-1 -1 $-1 $231 $231 $160 $233 forward $156 $-1 #
coedge $-1 -1 $-1 $232 $232 $324 $325 reversed $158 $-1 #
edge $-1 -1 $-1 $326 0 $326 6.2831853071795862 $231 $327 forward @7 unknown #
vertex $-1 -1 $-1 $161 $328 #
ellipse-curve $-1 -1 $-1 0 0 -0.084004464167091022 0 0 -1 0.10299999999999999 0 0 1 I I #
coedge $-1 -1 $-1 $236 $236 $165 $237 forward $162 $-1 #
edge $-1 -1 $-1 $329 0 $329 6.2831853071795862 $236 $330 forward @7 unknown #
vertex $-1 -1 $-1 $166 $331 #
ellipse-curve $-1 -1 $-1 0 0 -0.030000000000000082 0 0 -1 0.10299999999999999 0 0 1 I I #
coedge $-1 -1 $-1 $240 $240 $170 $241 forward $167 $-1 #
edge $-1 -1 $-1 $332 0 $332 6.2831853071795862 $240 $333 forward @7 unknown #
vertex $-1 -1 $-1 $171 $334 #
ellipse-curve $-1 -1 $-1 0 0 -0.095000000000000084 0 0 -1 0.1875 0 0 1 I I #
face $-1 -1 $-1 $335 $336 $41 $-1 $337 forward single #
loop $-1 -1 $-1 $-1 $338 $172 #
coedge $-1 -1 $-1 $339 $340 $338 $341 forward $173 $-1 #
coedge $-1 -1 $-1 $342 $174 $343 $344 reversed $117 $-1 #
coedge $-1 -1 $-1 $174 $342 $176 $255 forward $117 $-1 #
coedge $-1 -1 $-1 $345 $346 $174 $250 forward $347 $-1 #
edge $-1 -1 $-1 $348 -3.1415926535897931 $349 -1.5707963267948966 $249 $350 forward @7 unknown #
coedge $-1 -1 $-1 $176 $175 $351 $352 reversed $77 $-1 #
coedge $-1 -1 $-1 $340 $339 $353 $253 reversed $173 $-1 #
edge $-1 -1 $-1 $259 -0.25 $354 1.1102230246251565e-016 $353 $355 forward @7 unknown #
coedge $-1 -1 $-1 $356 $357 $358 $255 forward $359 $-1 #
edge $-1 -1 $-1 $260 -0.25 $349 1.1102230246251565e-016 $254 $360 forward @7 unknown #
coedge $-1 -1 $-1 $257 $177 $357 $361 reversed $258 $-1 #
coedge $-1 -1 $-1 $177 $256 $362 $363 forward $258 $-1 #
loop $-1 -1 $-1 $-1 $177 $364 #
vertex $-1 -1 $-1 $365 $366 #
vertex $-1 -1 $-1 $367 $368 #
ellipse-curve $-1 -1 $-1 0 0.12500000000000006 0 0 -1 0 0.3125 0 3.8268948556949289e-017 1 I I #
face_name-twe-attrib $-1 -1 $-1 $180 $121 5 #
model_id-kcp-attrib $-1 -1 $369 $-1 $181 1 1021385854 1021385854 -838795263 7 #
face $370 -1 $-1 $371 $372 $11 $-1 $373 reversed single #
cone-surface $374 -1 $-1 0.28249999999999997 0.012500000000000001 0 0 -1 0 -0.10299999999999999 0 0 1 I I 0 1 0.10299999999999999 forward I I I I #
loop_type-twe-attrib $-1 -1 $-1 $-1 $182 0 #
coedge $-1 -1 $-1 $267 $267 $270 $375 forward $182 $-1 #
surf-twe-attrib $-1 -1 $-1 $-1 $183 30 #
loop_type-twe-attrib $-1 -1 $-1 $-1 $185 1 #
coedge $-1 -1 $-1 $270 $270 $267 $375 reversed $185 $-1 #
edge $376 -1 $-1 $377 -3.1415926535897931 $377 3.1415926535897931 $186 $378 forward @7 unknown #
loop $379 -1 $-1 $-1 $190 $371 #
attrib_edge_convexity-kcp-attrib $-1 -1 $380 $-1 $191 1 #
vertex $-1 -1 $-1 $191 $381 #
ellipse-curve $382 -1 $-1 0.28249999999999997 0 0 0 -1 0 -0.1875 0 0 1 I I #
loop $383 -1 $-1 $272 $192 $371 #
attrib_edge_convexity-kcp-attrib $-1 -1 $384 $-1 $193 2 #
vertex $-1 -1 $-1 $193 $385 #
ellipse-curve $386 -1 $-1 0.28249999999999997 -0.19 0 0 -1 0 -0.1875 0 0 1 I I #
model_id-kcp-attrib $-1 -1 $387 $-1 $194 1 1021385854 1021385854 -838795263 15 #
convexity-sys-attrib $-1 -1 $388 $195 $132 #
point $-1 -1 $-1 0.39150000000000001 -0.19 -1.33486478079724e-017 #
cur-twe-attrib $-1 -1 $-1 $-1 $197 40 #
model_id-kcp-attrib $-1 -1 $389 $-1 $198 1 1021385854 1021385854 -838795263 12 #
loop $390 -1 $-1 $-1 $391 $181 #
convexity-sys-attrib $-1 -1 $392 $199 $135 #
model_id-kcp-attrib $-1 -1 $-1 $-1 $200 1 1021385854 1021385854 -838795263 18 #
point $-1 -1 $-1 0.17949999999999999 -0.25 0 #
cur-twe-attrib $-1 -1 $-1 $-1 $201 42 #
edge_name-twe-attrib $-1 -1 $-1 $203 $91 3 8704 #
model_id-kcp-attrib $-1 -1 $-1 $-1 $206 1 1021385854 1021385854 -838795262 3 #
face $-1 -1 $-1 $-1 $221 $31 $-1 $393 reversed single #
loop $-1 -1 $-1 $-1 $308 $206 #
plane-surface $-1 -1 $-1 0 0.12500000000000006 0 0 -1 0 0 0 -1 forward_v I I I I #
coedge $-1 -1 $-1 $394 $306 $309 $395 forward $207 $-1 #
coedge $-1 -1 $-1 $312 $209 $210 $300 reversed $142 $-1 #
coedge $-1 -1 $-1 $306 $394 $209 $298 reversed $207 $-1 #
edge $-1 -1 $-1 $313 -0.3125 $396 0.3125 $297 $397 forward @7 unknown #
coedge $-1 -1 $-1 $211 $210 $394 $398 forward $93 $-1 #
edge $-1 -1 $-1 $304 -0.3125 $396 0.3125 $296 $399 forward @7 unknown #
coedge $-1 -1 $-1 $309 $308 $211 $302 reversed $293 $-1 #
edge $-1 -1 $-1 $400 -0.3125 $303 0.3125 $301 $401 forward @7 unknown #
vertex $-1 -1 $-1 $213 $402 #
vertex $-1 -1 $-1 $315 $403 #
straight-curve $-1 -1 $-1 0.3125 0 -0.3125 0 -1 0 I I #
coedge $-1 -1 $-1 $295 $297 $214 $307 reversed $207 $-1 #
edge $-1 -1 $-1 $310 -0.12500000000000006 $313 0.12500000000000006 $306 $404 forward @7 unknown #
coedge $-1 -1 $-1 $301 $215 $220 $316 forward $293 $-1 #
coedge $-1 -1 $-1 $215 $301 $295 $395 reversed $293 $-1 #
vertex $-1 -1 $-1 $216 $405 #
straight-curve $-1 -1 $-1 0 0.12500000000000006 0.3125 -1 0 0 I I #
coedge $-1 -1 $-1 $217 $296 $219 $315 reversed $142 $-1 #
vertex $-1 -1 $-1 $307 $406 #
straight-curve $-1 -1 $-1 0 -0.12500000000000006 0.3125 1 0 0 I I #
edge $-1 -1 $-1 $222 -0.3125 $304 0.3125 $219 $407 forward @7 unknown #
edge $-1 -1 $-1 $223 -0.3125 $303 0.3125 $220 $408 forward @7 unknown #
point $-1 -1 $-1 0.3125 -0.12500000000000006 0.3125 #
point $-1 -1 $-1 0.3125 0.12500000000000006 0.3125 #
coedge $-1 -1 $-1 $319 $319 $226 $320 forward $225 $-1 #
edge $-1 -1 $-1 $409 0 $409 6.2831853071795862 $319 $410 forward @7 unknown #
vertex $-1 -1 $-1 $227 $411 #
ellipse-curve $-1 -1 $-1 0 0 -0.014999999999999999 0 0 -1 0.3125 0 0 1 I I #
point $-1 -1 $-1 -0.28249999999999992 3.4595129495482146e-017 0.015000000000000013 #
coedge $-1 -1 $-1 $324 $324 $232 $325 forward $230 $-1 #
edge $-1 -1 $-1 $412 0 $412 6.2831853071795862 $324 $413 forward @7 unknown #
vertex $-1 -1 $-1 $233 $414 #
ellipse-curve $-1 -1 $-1 0 0 -0.09439676901250435 0 0 1 0.10299999999999999 0 0 1 I I #
point $-1 -1 $-1 -0.10299999999999999 1.2613445444370485e-017 -0.084004464167091022 #
vertex $-1 -1 $-1 $237 $415 #
ellipse-curve $-1 -1 $-1 0 0 0.030000000000000082 0 0 1 0.10299999999999999 0 0 1 I I #
point $-1 -1 $-1 0.10299999999999999 0 -0.030000000000000082 #
vertex $-1 -1 $-1 $241 $416 #
ellipse-curve $-1 -1 $-1 0 0 0.095000000000000084 0 0 1 0.1875 0 0 1 I I #
point $-1 -1 $-1 0.1875 0 -0.095000000000000084 #
face $-1 -1 $-1 $417 $418 $41 $-1 $419 reversed single #
loop $-1 -1 $-1 $-1 $358 $244 #
plane-surface $-1 -1 $-1 0 0 0.3125 0 0 1 1 0 0 forward_v I I I I #
coedge $-1 -1 $-1 $420 $421 $422 $341 reversed $245 $-1 #
coedge $-1 -1 $-1 $252 $246 $423 $424 reversed $173 $-1 #
coedge $-1 -1 $-1 $246 $252 $425 $426 reversed $173 $-1 #
edge $-1 -1 $-1 $427 -0.25 $428 1.1102230246251565e-016 $422 $429 forward @7 unknown #
coedge $-1 -1 $-1 $248 $247 $430 $431 reversed $117 $-1 #
coedge $-1 -1 $-1 $432 $433 $434 $344 forward $435 $-1 #
edge $-1 -1 $-1 $436 -0.25 $348 1.1102230246251565e-016 $343 $437 forward @7 unknown #
coedge $-1 -1 $-1 $346 $249 $438 $439 reversed $347 $-1 #
coedge $-1 -1 $-1 $249 $345 $432 $440 forward $347 $-1 #
loop $-1 -1 $-1 $-1 $249 $441 #
vertex $-1 -1 $-1 $442 $443 #
vertex $-1 -1 $-1 $444 $445 #
ellipse-curve $-1 -1 $-1 0 -0.12500000000000006 0 0 1 0 0.3125 0 3.8268948556949289e-017 1 I I #
coedge $-1 -1 $-1 $446 $447 $251 $352 forward $448 $-1 #
edge $-1 -1 $-1 $349 -1.5707963267948966 $354 1.2246063538223773e-016 $351 $350 forward @7 unknown #
coedge $-1 -1 $-1 $449 $450 $451 $253 forward $418 $-1 #
vertex $-1 -1 $-1 $452 $453 #
straight-curve $-1 -1 $-1 0.3125 -0.12499999999999994 0 0 -1 0 I I #
coedge $-1 -1 $-1 $454 $254 $447 $444 forward $359 $-1 #
coedge $-1 -1 $-1 $254 $454 $256 $361 forward $359 $-1 #
coedge $-1 -1 $-1 $455 $438 $248 $255 reversed $336 $-1 #
loop $-1 -1 $-1 $-1 $254 $456 #
straight-curve $-1 -1 $-1 0 -0.12499999999999994 0.3125 0 -1 0 I I #
edge $-1 -1 $-1 $457 -0.3125 $260 0 $256 $458 forward @7 unknown #
coedge $-1 -1 $-1 $459 $451 $257 $363 reversed $460 $-1 #
edge $-1 -1 $-1 $457 -0.3125 $259 0 $362 $461 forward @7 unknown #
face $-1 -1 $-1 $462 $258 $41 $-1 $463 reversed single #
edge $-1 -1 $-1 $259 0 $464 0.3125 $450 $461 forward @7 unknown #
point $-1 -1 $-1 0.3125 0.12500000000000006 0 #
edge $-1 -1 $-1 $260 0 $465 0.3125 $466 $458 forward @7 unknown #
point $-1 -1 $-1 0 0.12500000000000006 0.3125 #
face_name-twe-attrib $-1 -1 $-1 $263 $181 6 #
model_id-kcp-attrib $-1 -1 $467 $-1 $264 1 1021385854 1021385854 -838795263 8 #
face $468 -1 $-1 $-1 $276 $11 $-1 $469 reversed single #
loop $470 -1 $-1 $194 $471 $264 #
cone-surface $472 -1 $-1 0.28249999999999997 -0.19 0 0 1 0 -0.109 0 0 1 I I 0.499999999999998 0.86602540378444004 0.109 forward I I I I #
surf-twe-attrib $-1 -1 $-1 $-1 $265 48 #
edge $473 -1 $-1 $474 -3.1415926535897931 $474 3.1415926535897931 $267 $475 forward @7 unknown #
attrib_edge_convexity-kcp-attrib $-1 -1 $476 $-1 $271 1 #
vertex $-1 -1 $-1 $271 $477 #
ellipse-curve $478 -1 $-1 0.28249999999999997 0 0 0 -1 0 -0.28249999999999997 0 0 1 I I #
loop_type-twe-attrib $-1 -1 $-1 $-1 $272 1 #
convexity-sys-attrib $-1 -1 $479 $273 $191 #
point $-1 -1 $-1 0.46999999999999997 0 -2.29621235228882e-017 #
cur-twe-attrib $-1 -1 $-1 $-1 $275 58 #
loop_type-twe-attrib $-1 -1 $-1 $-1 $276 0 #
convexity-sys-attrib $-1 -1 $480 $277 $193 #
point $-1 -1 $-1 0.095000000000000001 -0.19 0 #
cur-twe-attrib $-1 -1 $-1 $-1 $279 60 #
loop_type-twe-attrib $-1 -1 $-1 $280 $194 1 #
edge_name-twe-attrib $-1 -1 $-1 $281 $132 6 8448 #
loop_type-twe-attrib $-1 -1 $-1 $284 $198 0 #
model_id-kcp-attrib $-1 -1 $481 $-1 $285 1 1021385854 1021385854 -838795263 13 #
coedge $-1 -1 $-1 $391 $391 $471 $482 reversed $285 $-1 #
edge_name-twe-attrib $-1 -1 $-1 $286 $135 4 8704 #
plane-surface $-1 -1 $-1 0.3125 0 0 -1 0 0 0 0 1 forward_v I I I I #
coedge $-1 -1 $-1 $297 $295 $299 $398 reversed $207 $-1 #
edge $-1 -1 $-1 $310 -0.3125 $400 0.3125 $309 $483 forward @7 unknown #
vertex $-1 -1 $-1 $398 $484 #
straight-curve $-1 -1 $-1 -0.3125 -0.12500000000000006 0 0 0 -1 I I #
edge $-1 -1 $-1 $396 -0.12500000000000006 $400 0.12500000000000006 $394 $485 forward @7 unknown #
straight-curve $-1 -1 $-1 0 -0.12500000000000006 -0.3125 -1 0 0 I I #
vertex $-1 -1 $-1 $302 $486 #
straight-curve $-1 -1 $-1 0 0.12500000000000006 -0.3125 1 0 0 I I #
point $-1 -1 $-1 0.3125 0.12500000000000006 -0.3125 #
point $-1 -1 $-1 0.3125 -0.12500000000000006 -0.3125 #
straight-curve $-1 -1 $-1 -0.3125 0 0.3125 0 -1 0 I I #
point $-1 -1 $-1 -0.3125 0.12500000000000006 0.3125 #
point $-1 -1 $-1 -0.3125 -0.12500000000000006 0.3125 #
straight-curve $-1 -1 $-1 0.3125 -0.12500000000000006 0 0 0 -1 I I #
straight-curve $-1 -1 $-1 0.3125 0.12500000000000006 0 0 0 -1 I I #
vertex $-1 -1 $-1 $320 $487 #
ellipse-curve $-1 -1 $-1 0 0 0.014999999999999999 0 0 1 0.3125 0 0 1 I I #
point $-1 -1 $-1 0.3125 0 -0.014999999999999999 #
vertex $-1 -1 $-1 $325 $488 #
ellipse-curve $-1 -1 $-1 0 0 -0.09439676901250435 0 0 -1 0.109 0 0 1 I I #
point $-1 -1 $-1 0.10299999999999999 0 -0.09439676901250435 #
point $-1 -1 $-1 0.10299999999999999 0 0.030000000000000082 #
point $-1 -1 $-1 0.1875 0 0.095000000000000084 #
face $-1 -1 $-1 $489 $490 $41 $-1 $491 reversed single #
loop $-1 -1 $-1 $-1 $353 $335 #
plane-surface $-1 -1 $-1 0.3125 0 0 -1 0 0 0 0 1 forward_v I I I I #
coedge $-1 -1 $-1 $492 $338 $493 $494 reversed $245 $-1 #
coedge $-1 -1 $-1 $338 $492 $495 $496 reversed $245 $-1 #
coedge $-1 -1 $-1 $497 $498 $499 $341 forward $500 $-1 #
coedge $-1 -1 $-1 $501 $502 $339 $424 forward $503 $-1 #
edge $-1 -1 $-1 $354 1.2246063538223773e-016 $428 1.5707963267948968 $423 $350 forward @7 unknown #
coedge $-1 -1 $-1 $504 $505 $340 $426 forward $506 $-1 #
edge $-1 -1 $-1 $427 -1.5707963267948968 $259 -1.2246063538223773e-016 $425 $261 forward @7 unknown #
vertex $-1 -1 $-1 $507 $508 #
vertex $-1 -1 $-1 $509 $510 #
straight-curve $-1 -1 $-1 0 -0.12499999999999994 -0.3125 0 -1 0 I I #
coedge $-1 -1 $-1 $511 $466 $342 $431 forward $512 $-1 #
edge $-1 -1 $-1 $260 1.5707963267948966 $436 3.1415926535897931 $430 $261 forward @7 unknown #
coedge $-1 -1 $-1 $513 $343 $346 $440 reversed $435 $-1 #
coedge $-1 -1 $-1 $343 $513 $511 $514 forward $435 $-1 #
coedge $-1 -1 $-1 $515 $516 $492 $344 reversed $490 $-1 #
loop $-1 -1 $-1 $-1 $343 $517 #
vertex $-1 -1 $-1 $518 $519 #
straight-curve $-1 -1 $-1 -0.3125 -0.12499999999999994 0 0 -1 0 I I #
coedge $-1 -1 $-1 $358 $520 $345 $439 forward $336 $-1 #
edge $-1 -1 $-1 $521 -0.3125 $349 0 $345 $522 forward @7 unknown #
edge $-1 -1 $-1 $521 -0.3125 $348 0 $432 $523 forward @7 unknown #
face $-1 -1 $-1 $524 $347 $41 $-1 $525 reversed single #
edge $-1 -1 $-1 $348 0 $526 0.3125 $516 $523 forward @7 unknown #
point $-1 -1 $-1 -0.3125 -0.12500000000000006 0 #
edge $-1 -1 $-1 $349 0 $527 0.3125 $447 $522 forward @7 unknown #
point $-1 -1 $-1 0 -0.12500000000000006 0.3125 #
coedge $-1 -1 $-1 $447 $351 $528 $529 reversed $448 $-1 #
coedge $-1 -1 $-1 $351 $446 $356 $444 reversed $448 $-1 #
loop $-1 -1 $-1 $-1 $351 $524 #
coedge $-1 -1 $-1 $530 $353 $502 $452 forward $418 $-1 #
coedge $-1 -1 $-1 $353 $530 $504 $365 reversed $418 $-1 #
coedge $-1 -1 $-1 $362 $528 $175 $253 reversed $460 $-1 #
edge $-1 -1 $-1 $354 0 $531 0.3125 $449 $532 forward @7 unknown #
point $-1 -1 $-1 0.3125 -0.12500000000000006 0 #
coedge $-1 -1 $-1 $357 $356 $459 $533 forward $359 $-1 #
coedge $-1 -1 $-1 $520 $358 $466 $367 forward $336 $-1 #
face $-1 -1 $-1 $534 $359 $41 $-1 $337 forward single #
vertex $-1 -1 $-1 $533 $535 #
straight-curve $-1 -1 $-1 0 0.12500000000000006 0.3125 -1 0 0 I I #
coedge $-1 -1 $-1 $528 $362 $454 $533 reversed $460 $-1 #
loop $-1 -1 $-1 $-1 $451 $536 #
straight-curve $-1 -1 $-1 0.3125 0.12500000000000006 0 0 0 -1 I I #
face $-1 -1 $-1 $537 $512 $41 $-1 $463 reversed single #
plane-surface $-1 -1 $-1 0 0.12500000000000006 0 0 -1 0 0 0 -1 forward_v I I I I #
vertex $-1 -1 $-1 $538 $539 #
vertex $-1 -1 $-1 $367 $540 #
coedge $-1 -1 $-1 $430 $511 $455 $367 reversed $512 $-1 #
face_name-twe-attrib $-1 -1 $-1 $370 $264 7 #
model_id-kcp-attrib $-1 -1 $541 $-1 $371 1 1021385854 1021385854 -838795263 9 #
cone-surface $542 -1 $-1 0.28249999999999997 0.012500000000000001 0 0 -1 0 -0.1875 0 0 1 I I 0 1 0.1875 forward I I I I #
model_id-kcp-attrib $-1 -1 $543 $-1 $372 1 1021385854 1021385854 -838795263 14 #
coedge $-1 -1 $-1 $471 $471 $391 $482 forward $372 $-1 #
surf-twe-attrib $-1 -1 $-1 $-1 $373 73 #
attrib_edge_convexity-kcp-attrib $-1 -1 $544 $-1 $375 1 #
vertex $-1 -1 $-1 $375 $545 #
ellipse-curve $546 -1 $-1 0.28249999999999997 -0.029999999999999999 0 0 -1 0 -0.3125 0 0 1 I I #
convexity-sys-attrib $-1 -1 $547 $376 $271 #
point $-1 -1 $-1 0.56499999999999995 0 -3.4596266107818297e-017 #
cur-twe-attrib $-1 -1 $-1 $-1 $378 80 #
edge_name-twe-attrib $-1 -1 $-1 $380 $191 8 8704 #
edge_name-twe-attrib $-1 -1 $-1 $384 $193 7 4608 #
loop_type-twe-attrib $-1 -1 $-1 $390 $285 1 #
edge $548 -1 $-1 $549 -3.1415926535897931 $549 3.1415926535897931 $471 $550 forward @7 unknown #
straight-curve $-1 -1 $-1 -0.3125 0.12500000000000006 0 0 0 -1 I I #
point $-1 -1 $-1 -0.3125 -0.12500000000000006 -0.3125 #
straight-curve $-1 -1 $-1 -0.3125 0 -0.3125 0 1 0 I I #
point $-1 -1 $-1 -0.3125 0.12500000000000006 -0.3125 #
point $-1 -1 $-1 0.3125 0 0.014999999999999999 #
point $-1 -1 $-1 0.109 0 -0.09439676901250435 #
face $-1 -1 $-1 $441 $551 $41 $-1 $525 reversed single #
loop $-1 -1 $-1 $-1 $434 $417 #
plane-surface $-1 -1 $-1 -0.3125 0 0 1 0 0 0 0 -1 forward_v I I I I #
coedge $-1 -1 $-1 $421 $420 $247 $344 forward $245 $-1 #
coedge $-1 -1 $-1 $552 $553 $420 $494 forward $554 $-1 #
edge $-1 -1 $-1 $436 -3.1415926535897931 $427 -1.5707963267948968 $493 $261 forward @7 unknown #
coedge $-1 -1 $-1 $555 $556 $421 $496 forward $551 $-1 #
edge $-1 -1 $-1 $428 1.5707963267948968 $348 3.1415926535897931 $495 $350 forward @7 unknown #
coedge $-1 -1 $-1 $557 $422 $556 $509 forward $500 $-1 #
coedge $-1 -1 $-1 $422 $557 $552 $558 forward $500 $-1 #
coedge $-1 -1 $-1 $559 $560 $246 $341 reversed $561 $-1 #
loop $-1 -1 $-1 $-1 $422 $534 #
coedge $-1 -1 $-1 $502 $423 $560 $562 reversed $503 $-1 #
coedge $-1 -1 $-1 $423 $501 $449 $452 reversed $503 $-1 #
loop $-1 -1 $-1 $-1 $423 $563 #
coedge $-1 -1 $-1 $505 $425 $450 $365 forward $506 $-1 #
coedge $-1 -1 $-1 $425 $504 $559 $507 reversed $506 $-1 #
loop $-1 -1 $-1 $-1 $425 $564 #
edge $-1 -1 $-1 $427 0 $464 0.3125 $505 $565 forward @7 unknown #
point $-1 -1 $-1 0 0.12500000000000006 -0.3125 #
edge $-1 -1 $-1 $428 0 $526 0.3125 $556 $566 forward @7 unknown #
point $-1 -1 $-1 0 -0.12500000000000006 -0.3125 #
coedge $-1 -1 $-1 $466 $430 $433 $514 reversed $512 $-1 #
loop $-1 -1 $-1 $-1 $430 $462 #
coedge $-1 -1 $-1 $433 $432 $520 $567 reversed $435 $-1 #
edge $-1 -1 $-1 $465 -0.3125 $436 0 $511 $568 forward @7 unknown #
coedge $-1 -1 $-1 $569 $434 $553 $518 forward $490 $-1 #
coedge $-1 -1 $-1 $434 $569 $555 $442 reversed $490 $-1 #
face $-1 -1 $-1 $536 $435 $41 $-1 $491 reversed single #
edge $-1 -1 $-1 $436 0 $570 0.3125 $553 $568 forward @7 unknown #
point $-1 -1 $-1 -0.3125 0.12500000000000006 0 #
coedge $-1 -1 $-1 $438 $455 $513 $567 forward $336 $-1 #
vertex $-1 -1 $-1 $567 $571 #
straight-curve $-1 -1 $-1 0 -0.12500000000000006 0.3125 1 0 0 I I #
straight-curve $-1 -1 $-1 -0.3125 -0.12500000000000006 0 0 0 -1 I I #
face $-1 -1 $-1 $563 $448 $41 $-1 $525 reversed single #
plane-surface $-1 -1 $-1 0 -0.12500000000000006 0 0 1 0 0 0 1 forward_v I I I I #
vertex $-1 -1 $-1 $572 $573 #
vertex $-1 -1 $-1 $533 $574 #
coedge $-1 -1 $-1 $451 $459 $446 $529 forward $460 $-1 #
edge $-1 -1 $-1 $527 -0.3125 $354 0 $528 $532 forward @7 unknown #
coedge $-1 -1 $-1 $450 $449 $575 $538 reversed $418 $-1 #
vertex $-1 -1 $-1 $452 $576 #
straight-curve $-1 -1 $-1 0.3125 -0.12500000000000006 0 0 0 -1 I I #
edge $-1 -1 $-1 $527 -0.12500000000000006 $457 0.12500000000000006 $459 $577 forward @7 unknown #
face $-1 -1 $-1 $517 $500 $41 $-1 $578 reversed single #
point $-1 -1 $-1 0.3125 0.12500000000000006 0.3125 #
face $-1 -1 $-1 $-1 $460 $41 $-1 $419 reversed single #
face $-1 -1 $-1 $579 $554 $41 $-1 $463 reversed single #
edge $-1 -1 $-1 $464 -0.12500000000000006 $531 0.12500000000000006 $530 $580 forward @7 unknown #
point $-1 -1 $-1 0.3125 0.12500000000000006 -0.3125 #
point $-1 -1 $-1 -0.3125 0.12500000000000006 0.3125 #
face_name-twe-attrib $-1 -1 $-1 $468 $371 8 #
surf-twe-attrib $-1 -1 $-1 $-1 $469 97 #
loop_type-twe-attrib $-1 -1 $-1 $470 $372 0 #
convexity-sys-attrib $-1 -1 $581 $473 $375 #
point $-1 -1 $-1 0.59499999999999997 -0.029999999999999999 -3.8270205871480401e-017 #
cur-twe-attrib $-1 -1 $-1 $-1 $475 101 #
edge_name-twe-attrib $-1 -1 $-1 $476 $271 1 8448 #
attrib_edge_convexity-kcp-attrib $-1 -1 $582 $-1 $482 1 #
vertex $583 -1 $-1 $482 $584 #
ellipse-curve $585 -1 $-1 0.28249999999999997 -0.20039230484541301 0 0 -1 0 -0.10299999999999999 0 0 1 I I #
loop $-1 -1 $-1 $-1 $495 $489 #
coedge $-1 -1 $-1 $553 $493 $498 $558 reversed $554 $-1 #
coedge $-1 -1 $-1 $493 $552 $515 $518 reversed $554 $-1 #
loop $-1 -1 $-1 $-1 $493 $537 #
coedge $-1 -1 $-1 $556 $495 $516 $442 forward $551 $-1 #
coedge $-1 -1 $-1 $495 $555 $497 $509 reversed $551 $-1 #
coedge $-1 -1 $-1 $498 $497 $569 $572 forward $500 $-1 #
edge $-1 -1 $-1 $570 -0.3125 $427 0 $552 $565 forward @7 unknown #
coedge $-1 -1 $-1 $575 $499 $505 $507 forward $561 $-1 #
coedge $-1 -1 $-1 $499 $575 $501 $562 forward $561 $-1 #
loop $-1 -1 $-1 $-1 $499 $579 #
edge $-1 -1 $-1 $531 -0.3125 $428 0 $501 $566 forward @7 unknown #
face $-1 -1 $-1 $564 $503 $41 $-1 $525 reversed single #
face $-1 -1 $-1 $364 $506 $41 $-1 $463 reversed single #
straight-curve $-1 -1 $-1 0 0.12500000000000006 -0.3125 1 0 0 I I #
straight-curve $-1 -1 $-1 0 -0.12500000000000006 -0.3125 -1 0 0 I I #
edge $-1 -1 $-1 $465 -0.12500000000000006 $521 0.12500000000000006 $513 $586 forward @7 unknown #
straight-curve $-1 -1 $-1 -0.3125 0.12500000000000006 0 0 0 -1 I I #
coedge $-1 -1 $-1 $516 $515 $557 $572 reversed $490 $-1 #
vertex $-1 -1 $-1 $558 $587 #
point $-1 -1 $-1 -0.3125 -0.12500000000000006 0.3125 #
edge $-1 -1 $-1 $526 -0.12500000000000006 $570 0.12500000000000006 $569 $588 forward @7 unknown #
point $-1 -1 $-1 -0.3125 -0.12500000000000006 -0.3125 #
point $-1 -1 $-1 0.3125 -0.12500000000000006 0.3125 #
coedge $-1 -1 $-1 $560 $559 $530 $538 forward $561 $-1 #
point $-1 -1 $-1 0.3125 -0.12500000000000006 -0.3125 #
straight-curve $-1 -1 $-1 0.3125 0 0.3125 0 1 0 I I #
plane-surface $-1 -1 $-1 0 0 -0.3125 0 0 1 1 0 0 forward_v I I I I #
face $-1 -1 $-1 $456 $561 $41 $-1 $578 reversed single #
straight-curve $-1 -1 $-1 0.3125 0 -0.3125 0 -1 0 I I #
edge_name-twe-attrib $-1 -1 $-1 $544 $375 2 8448 #
convexity-sys-attrib $-1 -1 $589 $548 $482 #
model_id-kcp-attrib $-1 -1 $-1 $-1 $549 1 1021385854 1021385854 -838795263 19 #
point $-1 -1 $-1 0.38550000000000001 -0.20039230484541301 -1.2613859855239901e-017 #
cur-twe-attrib $-1 -1 $-1 $-1 $550 123 #
straight-curve $-1 -1 $-1 -0.3125 0 0.3125 0 -1 0 I I #
point $-1 -1 $-1 -0.3125 0.12500000000000006 -0.3125 #
straight-curve $-1 -1 $-1 -0.3125 0 -0.3125 0 1 0 I I #
edge_name-twe-attrib $-1 -1 $-1 $582 $482 5 8448 #
End-of-ACIS-data 