600 0 2 0           
24 FBMach with ACIS - 6.0.3 13 ACIS 6.0.3 NT 24 Wed May 23 21:58:31 2001 
1 9.9999999999999995e-007 1e-010 
body $2 $3 $-1 $4 #
bdycol-kcp $-1 1 6 $5 $6 $7 $8 $9 $10 #
model_id-kcp-attrib $-1 $-1 $-1 $0 1 990669511 50 221380609 1 #
lump $-1 $-1 $11 $0 #
transform $-1 1 0 0 0 1 0 0 0 1 0 0 0 1 no_rotate no_reflect no_shear #
body $12 $13 $-1 $14 #
body $15 $16 $-1 $17 #
body $18 $19 $-1 $20 #
body $21 $22 $-1 $23 #
body $24 $25 $-1 $26 #
body $27 $28 $-1 $29 #
shell $-1 $-1 $-1 $30 $-1 $3 #
model_id-kcp-attrib $-1 $-1 $-1 $5 1 990669511 50 221380610 1 #
lump $-1 $-1 $31 $5 #
transform $-1 1 0 0 0 1 0 0 0 1 0.28249999999999997 -0.12500000000000006 0 1 no_rotate no_reflect no_shear #
rgb_color-st-attrib $-1 $32 $-1 $6 1 1 0.5 #
lump $-1 $-1 $33 $6 #
transform $-1 -1 0 0 0 0 1 0 1 0 0.28249999999999997 -0.014999999999999999 0 1 rotate no_reflect no_shear #
rgb_color-st-attrib $-1 $34 $-1 $7 1 1 0.5 #
lump $-1 $-1 $35 $7 #
transform $-1 1 0 0 0 0 1 0 -1 0 0.28249999999999997 -0.28439676901250432 0 1 rotate no_reflect no_shear #
rgb_color-st-attrib $-1 $36 $-1 $8 0.5 1 1 #
lump $-1 $-1 $37 $8 #
transform $-1 1 0 0 0 -3.8285889215894375e-016 1 0 -1 -3.8285889215894375e-016 0.28249999999999997 -0.22000000000000003 -8.9014692426954435e-017 1 rotate no_reflect no_shear #
rgb_color-st-attrib $-1 $38 $-1 $9 0.5 1 1 #
lump $-1 $-1 $39 $9 #
transform $-1 1 0 0 0 -3.8285889215894375e-016 1 0 -1 -3.8285889215894375e-016 0.28249999999999997 -0.095000000000000015 -4.115733090708646e-017 1 rotate no_reflect no_shear #
rgb_color-st-attrib $-1 $40 $-1 $10 0.5 1 1 #
lump $-1 $-1 $41 $10 #
transform $-1 1 0 0 0 1 0 0 0 1 0.28249999999999997 -0.12500000000000006 0 1 no_rotate no_reflect no_shear #
face $42 $43 $44 $11 $-1 $45 forward single #
shell $-1 $-1 $-1 $46 $-1 $13 #
model_id-kcp-attrib $-1 $-1 $15 $6 1 990669511 70 222691331 1 #
shell $-1 $-1 $-1 $47 $-1 $16 #
model_id-kcp-attrib $-1 $-1 $18 $7 1 990669511 70 222691332 1 #
shell $-1 $-1 $-1 $48 $-1 $19 #
model_id-kcp-attrib $-1 $-1 $21 $8 1 990669511 120 225968133 1 #
shell $-1 $-1 $-1 $49 $-1 $22 #
model_id-kcp-attrib $-1 $-1 $24 $9 1 990669511 120 225968134 1 #
shell $-1 $-1 $-1 $50 $-1 $25 #
model_id-kcp-attrib $-1 $-1 $27 $10 1 990669511 180 229900295 1 #
shell $-1 $-1 $-1 $51 $-1 $28 #
model_id-kcp-attrib $-1 $52 $-1 $30 1 990669511 50 221380609 11 #
face $53 $54 $55 $11 $-1 $56 reversed single #
loop $57 $58 $59 $30 #
plane-surface $60 0.28249999999999997 -0.25 0 0 -1 0 0 0 -1 forward_v I I I I #
face $-1 $61 $62 $31 $-1 $63 forward single #
face $-1 $64 $65 $33 $-1 $66 reversed single #
face $-1 $67 $68 $35 $-1 $69 reversed single #
face $-1 $70 $71 $37 $-1 $72 forward single #
face $-1 $73 $74 $39 $-1 $75 forward single #
face $-1 $76 $77 $41 $-1 $78 reversed single #
model_id-kcp-attrib $-1 $79 $42 $30 1 990669511 50 221380609 2 #
model_id-kcp-attrib $-1 $80 $-1 $43 1 990669511 50 221380609 3 #
face $81 $82 $83 $11 $-1 $84 reversed single #
loop $85 $86 $87 $43 #
plane-surface $88 0.28249999999999997 -0.19 0 0 -1 0 0 0 -1 forward_v I I I I #
loop_type-twe-attrib $-1 $-1 $-1 $44 0 #
loop $89 $-1 $90 $30 #
coedge $-1 $59 $59 $91 $92 forward $44 $-1 #
surf-twe-attrib $-1 $-1 $-1 $45 4 #
face $-1 $93 $94 $31 $-1 $95 reversed single #
loop $-1 $-1 $96 $46 #
plane-surface $-1 0 0 0.3125 0 0 1 1 0 0 forward_v I I I I #
face $-1 $97 $98 $33 $-1 $99 forward single #
loop $-1 $100 $101 $47 #
cone-surface $-1 0 0 0.14124999999999976 0 0 1 0.15625 0 0 1 I I -0.70710678118654802 0.70710678118654702 0.15625 forward I I I I #
face $-1 $102 $103 $35 $-1 $104 forward single #
loop $-1 $105 $106 $48 #
cone-surface $-1 0 0 0 0 0 1 0.10299999999999999 0 0 1 I I 0 1 0.10299999999999999 forward I I I I #
face $-1 $107 $108 $37 $-1 $109 forward single #
loop $-1 $110 $111 $49 #
cone-surface $-1 0 0 0 0 0 1 0.10299999999999999 0 0 1 I I 0 1 0.10299999999999999 forward I I I I #
face $-1 $112 $113 $39 $-1 $114 forward single #
loop $-1 $115 $116 $50 #
cone-surface $-1 0 0 0 0 0 1 0.1875 0 0 1 I I 0 1 0.1875 forward I I I I #
face $-1 $117 $118 $41 $-1 $78 reversed single #
loop $-1 $-1 $119 $51 #
cone-surface $-1 0 -0.12499999999999994 0 0 -1 0 0.3125 0 3.8268948556949289e-017 1 I I 0 1 0.3125 forward I I I I #
face_name-twe-attrib $-1 $-1 $52 $30 1 #
face_name-twe-attrib $-1 $-1 $53 $43 2 #
model_id-kcp-attrib $-1 $120 $-1 $54 1 990669511 50 221380609 10 #
face $121 $122 $123 $11 $-1 $124 forward single #
loop $125 $126 $127 $54 #
plane-surface $128 0.28249999999999997 0 0 0 -1 0 0 0 -1 forward_v I I I I #
model_id-kcp-attrib $-1 $129 $-1 $55 1 990669511 50 221380609 17 #
loop $130 $-1 $131 $43 #
coedge $-1 $87 $87 $132 $133 forward $55 $-1 #
surf-twe-attrib $-1 $-1 $-1 $56 6 #
model_id-kcp-attrib $-1 $134 $-1 $58 1 990669511 50 221380609 16 #
coedge $-1 $90 $90 $135 $136 reversed $58 $-1 #
coedge $-1 $91 $91 $59 $92 reversed $137 $-1 #
edge $138 $139 -3.1415926535897931 $139 3.1415926535897931 $91 $140 forward 7 unknown #
face $141 $142 $143 $31 $-1 $144 reversed single #
loop $-1 $-1 $145 $61 #
plane-surface $-1 0 0 -0.3125 0 0 1 1 0 0 forward_v I I I I #
coedge $-1 $146 $147 $148 $149 forward $62 $-1 #
face $-1 $-1 $150 $33 $-1 $151 forward single #
loop $-1 $152 $153 $64 #
cone-surface $-1 0 0 0 0 0 1 0.3125 0 0 1 I I 0 1 0.3125 forward I I I I #
loop $-1 $-1 $154 $47 #
coedge $-1 $101 $101 $155 $156 reversed $65 $-1 #
face $-1 $-1 $157 $35 $-1 $158 forward single #
loop $-1 $159 $160 $67 #
cone-surface $-1 0 0 0 0 0 1 0.0545 0 0 1 I I -0.49999999999999789 0.86602540378443993 0.0545 forward I I I I #
loop $-1 $-1 $161 $48 #
coedge $-1 $106 $106 $160 $162 reversed $68 $-1 #
face $-1 $-1 $163 $37 $-1 $164 forward single #
loop $-1 $-1 $165 $70 #
plane-surface $-1 0 0 -0.030000000000000082 0 0 -1 -1 0 0 forward_v I I I I #
loop $-1 $-1 $166 $49 #
coedge $-1 $111 $111 $165 $167 reversed $71 $-1 #
face $-1 $-1 $168 $39 $-1 $169 forward single #
loop $-1 $-1 $170 $73 #
plane-surface $-1 0 0 -0.095000000000000084 0 0 -1 -1 0 0 forward_v I I I I #
loop $-1 $-1 $171 $50 #
coedge $-1 $116 $116 $170 $172 reversed $74 $-1 #
face $-1 $173 $174 $41 $-1 $78 reversed single #
loop $-1 $-1 $175 $76 #
coedge $-1 $176 $177 $178 $179 reversed $77 $-1 #
model_id-kcp-attrib $-1 $180 $81 $54 1 990669511 50 221380609 4 #
model_id-kcp-attrib $-1 $181 $-1 $82 1 990669511 50 221380609 5 #
face $182 $183 $184 $11 $-1 $185 forward single #
loop $186 $187 $188 $82 #
cone-surface $189 0.28249999999999997 -0.029999999999999999 0 0 -1 0 -0.3125 0 0 1 I I 0.70710678118654802 0.70710678118654702 0.3125 forward I I I I #
loop_type-twe-attrib $-1 $-1 $-1 $83 1 #
loop $190 $-1 $191 $54 #
coedge $-1 $127 $127 $192 $193 forward $83 $-1 #
surf-twe-attrib $-1 $-1 $-1 $84 10 #
loop_type-twe-attrib $-1 $-1 $85 $55 1 #
loop_type-twe-attrib $-1 $-1 $-1 $86 0 #
coedge $-1 $131 $131 $194 $195 reversed $86 $-1 #
coedge $-1 $132 $132 $87 $133 reversed $196 $-1 #
edge $197 $198 -3.1415926535897931 $198 3.1415926535897931 $132 $199 forward 7 unknown #
loop_type-twe-attrib $-1 $-1 $89 $58 1 #
coedge $-1 $135 $135 $90 $136 forward $200 $-1 #
edge $201 $202 0 $202 6.2831853071795862 $135 $203 forward 7 unknown #
loop $204 $-1 $91 $122 #
attrib_edge_convexity-kcp-attrib $-1 $205 $-1 $92 1 #
vertex $-1 $92 $206 #
ellipse-curve $207 0.28249999999999997 -0.25 0 0 -1 0 -0.3125 0 0 1 I I #
model_id-kcp-attrib $-1 $-1 $-1 $93 1 990669511 50 221380610 2 #
face $-1 $208 $209 $31 $-1 $210 reversed single #
loop $-1 $-1 $211 $93 #
plane-surface $-1 0 -0.12500000000000006 0 0 1 0 0 0 1 forward_v I I I I #
coedge $-1 $212 $213 $214 $215 forward $94 $-1 #
coedge $-1 $216 $96 $217 $218 forward $62 $-1 #
coedge $-1 $96 $216 $219 $220 forward $62 $-1 #
coedge $-1 $221 $222 $96 $149 reversed $223 $-1 #
edge $-1 $224 -0.12500000000000006 $225 0.12500000000000006 $148 $226 forward 7 unknown #
loop $-1 $227 $155 $97 #
plane-surface $-1 0 0 0.014999999999999999 0 0 1 1 0 0 forward_v I I I I #
loop $-1 $-1 $228 $64 #
coedge $-1 $153 $153 $154 $229 reversed $98 $-1 #
coedge $-1 $154 $154 $153 $229 forward $100 $-1 #
coedge $-1 $155 $155 $101 $156 forward $150 $-1 #
edge $-1 $230 -3.1415926535897931 $230 3.1415926535897931 $155 $231 forward 7 unknown #
loop $-1 $232 $233 $102 #
plane-surface $-1 0 0 -0.09439676901250435 0 0 -1 -1 0 0 forward_v I I I I #
loop $-1 $-1 $234 $67 #
coedge $-1 $160 $160 $106 $162 forward $103 $-1 #
coedge $-1 $161 $161 $233 $235 reversed $105 $-1 #
edge $-1 $236 -3.1415926535897931 $236 3.1415926535897931 $160 $237 forward 7 unknown #
loop $-1 $-1 $238 $107 #
plane-surface $-1 0 0 0.030000000000000082 0 0 1 1 0 0 forward_v I I I I #
coedge $-1 $165 $165 $111 $167 forward $108 $-1 #
coedge $-1 $166 $166 $238 $239 reversed $110 $-1 #
edge $-1 $240 0 $240 6.2831853071795862 $165 $241 forward 7 unknown #
loop $-1 $-1 $242 $112 #
plane-surface $-1 0 0 0.095000000000000084 0 0 1 1 0 0 forward_v I I I I #
coedge $-1 $170 $170 $116 $172 forward $113 $-1 #
coedge $-1 $171 $171 $242 $243 reversed $115 $-1 #
edge $-1 $244 0 $244 6.2831853071795862 $170 $245 forward 7 unknown #
face $-1 $246 $247 $41 $-1 $78 reversed single #
loop $-1 $-1 $248 $117 #
coedge $-1 $249 $250 $251 $252 reversed $118 $-1 #
coedge $-1 $253 $119 $254 $255 forward $77 $-1 #
coedge $-1 $119 $253 $256 $257 reversed $77 $-1 #
coedge $-1 $258 $259 $119 $179 forward $260 $-1 #
edge $-1 $261 -1.2246063538223773e-016 $262 1.5707963267948966 $178 $263 forward 7 unknown #
face_name-twe-attrib $-1 $-1 $120 $54 3 #
face_name-twe-attrib $-1 $-1 $121 $82 4 #
model_id-kcp-attrib $-1 $264 $-1 $122 1 990669511 50 221380609 6 #
face $265 $266 $200 $11 $-1 $267 reversed single #
loop $268 $137 $269 $122 #
cone-surface $270 0.28249999999999997 0.012500000000000001 0 0 -1 0 -0.3125 0 0 1 I I 0 1 0.3125 forward I I I I #
loop_type-twe-attrib $-1 $-1 $-1 $123 0 #
loop $271 $-1 $272 $82 #
coedge $-1 $188 $188 $191 $273 forward $123 $-1 #
surf-twe-attrib $-1 $-1 $-1 $124 18 #
loop_type-twe-attrib $-1 $-1 $-1 $126 0 #
coedge $-1 $191 $191 $188 $273 reversed $126 $-1 #
coedge $-1 $192 $192 $127 $193 reversed $274 $-1 #
edge $275 $276 -3.1415926535897931 $276 3.1415926535897931 $192 $277 forward 7 unknown #
coedge $-1 $194 $194 $131 $195 forward $278 $-1 #
edge $279 $280 0 $280 6.2831853071795862 $194 $281 forward 7 unknown #
loop $282 $-1 $132 $266 #
attrib_edge_convexity-kcp-attrib $-1 $283 $-1 $133 1 #
vertex $-1 $133 $284 #
ellipse-curve $285 0.28249999999999997 -0.19 0 0 -1 0 -0.109 0 0 1 I I #
loop $286 $287 $135 $183 #
attrib_edge_convexity-kcp-attrib $-1 $288 $-1 $136 1 #
vertex $289 $136 $290 #
ellipse-curve $291 0.28249999999999997 -0.25 0 -1.0000000000000001e-015 -1 0 -0.10299999999999999 1.03e-016 0 1 I I #
loop_type-twe-attrib $-1 $-1 $-1 $137 1 #
convexity-sys-attrib $-1 $292 $138 $92 #
point $-1 0.59499999999999997 -0.25 -3.8270205871480401e-017 #
cur-twe-attrib $-1 $-1 $-1 $140 28 #
face $293 $294 $295 $31 $-1 $296 reversed single #
loop $-1 $-1 $297 $142 #
plane-surface $-1 -0.3125 0 0 1 0 0 0 0 -1 forward_v I I I I #
coedge $-1 $298 $219 $299 $300 forward $143 $-1 #
coedge $-1 $301 $145 $298 $302 forward $94 $-1 #
coedge $-1 $145 $301 $303 $304 forward $94 $-1 #
coedge $-1 $222 $221 $145 $215 reversed $223 $-1 #
edge $-1 $305 -0.12500000000000006 $306 0.12500000000000006 $214 $307 forward 7 unknown #
coedge $-1 $147 $146 $308 $309 forward $62 $-1 #
coedge $-1 $310 $311 $146 $218 reversed $295 $-1 #
edge $-1 $225 -0.3125 $312 0.3125 $217 $313 forward 7 unknown #
coedge $-1 $211 $314 $147 $220 reversed $143 $-1 #
edge $-1 $315 -0.3125 $224 0.3125 $219 $316 forward 7 unknown #
coedge $-1 $214 $148 $314 $317 forward $223 $-1 #
coedge $-1 $148 $214 $310 $318 reversed $223 $-1 #
loop $-1 $-1 $221 $294 #
vertex $-1 $149 $319 #
vertex $-1 $149 $320 #
straight-curve $-1 0.3125 0 0.3125 0 1 0 I I #
loop $-1 $-1 $321 $97 #
coedge $-1 $228 $228 $321 $322 reversed $152 $-1 #
edge $-1 $323 0 $323 6.2831853071795862 $153 $324 forward 7 unknown #
vertex $-1 $156 $325 #
ellipse-curve $-1 0 0 0.015000000000000013 0 0 -1 0.28249999999999992 0 0 1 I I #
loop $-1 $-1 $326 $102 #
coedge $-1 $233 $233 $161 $235 forward $157 $-1 #
coedge $-1 $234 $234 $326 $327 reversed $159 $-1 #
edge $-1 $328 0 $328 6.2831853071795862 $233 $329 forward 7 unknown #
vertex $-1 $162 $330 #
ellipse-curve $-1 0 0 -0.084004464167091022 0 0 -1 0.10299999999999999 0 0 1 I I #
coedge $-1 $238 $238 $166 $239 forward $163 $-1 #
edge $-1 $331 0 $331 6.2831853071795862 $238 $332 forward 7 unknown #
vertex $-1 $167 $333 #
ellipse-curve $-1 0 0 -0.030000000000000082 0 0 -1 0.10299999999999999 0 0 1 I I #
coedge $-1 $242 $242 $171 $243 forward $168 $-1 #
edge $-1 $334 0 $334 6.2831853071795862 $242 $335 forward 7 unknown #
vertex $-1 $172 $336 #
ellipse-curve $-1 0 0 -0.095000000000000084 0 0 -1 0.1875 0 0 1 I I #
face $-1 $337 $338 $41 $-1 $339 forward single #
loop $-1 $-1 $340 $173 #
coedge $-1 $341 $342 $340 $343 forward $174 $-1 #
coedge $-1 $344 $175 $345 $346 reversed $118 $-1 #
coedge $-1 $175 $344 $177 $257 forward $118 $-1 #
coedge $-1 $347 $348 $175 $252 forward $349 $-1 #
edge $-1 $350 -3.1415926535897931 $351 -1.5707963267948966 $251 $352 forward 7 unknown #
coedge $-1 $177 $176 $353 $354 reversed $77 $-1 #
coedge $-1 $342 $341 $355 $255 reversed $174 $-1 #
edge $-1 $261 -0.25 $356 1.1102230246251565e-016 $355 $357 forward 7 unknown #
coedge $-1 $358 $359 $360 $257 forward $361 $-1 #
edge $-1 $262 -0.25 $351 1.1102230246251565e-016 $256 $362 forward 7 unknown #
coedge $-1 $259 $178 $359 $363 reversed $260 $-1 #
coedge $-1 $178 $258 $364 $365 forward $260 $-1 #
loop $-1 $-1 $178 $366 #
vertex $-1 $367 $368 #
vertex $-1 $369 $370 #
ellipse-curve $-1 0 0.12500000000000006 0 0 -1 0 0.3125 0 3.8268948556949289e-017 1 I I #
face_name-twe-attrib $-1 $-1 $182 $122 5 #
model_id-kcp-attrib $-1 $371 $-1 $183 1 990669511 50 221380609 7 #
face $372 $373 $374 $11 $-1 $375 reversed single #
cone-surface $376 0.28249999999999997 0.012500000000000001 0 0 -1 0 -0.10299999999999999 0 0 1 I I 0 1 0.10299999999999999 forward I I I I #
loop_type-twe-attrib $-1 $-1 $-1 $184 0 #
coedge $-1 $269 $269 $272 $377 forward $184 $-1 #
surf-twe-attrib $-1 $-1 $-1 $185 30 #
loop_type-twe-attrib $-1 $-1 $-1 $187 1 #
coedge $-1 $272 $272 $269 $377 reversed $187 $-1 #
edge $378 $379 -3.1415926535897931 $379 3.1415926535897931 $188 $380 forward 7 unknown #
loop $381 $-1 $192 $373 #
attrib_edge_convexity-kcp-attrib $-1 $382 $-1 $193 1 #
vertex $-1 $193 $383 #
ellipse-curve $384 0.28249999999999997 0 0 0 -1 0 -0.1875 0 0 1 I I #
loop $385 $274 $194 $373 #
attrib_edge_convexity-kcp-attrib $-1 $386 $-1 $195 2 #
vertex $-1 $195 $387 #
ellipse-curve $388 0.28249999999999997 -0.19 0 0 -1 0 -0.1875 0 0 1 I I #
model_id-kcp-attrib $-1 $389 $-1 $196 1 990669511 50 221380609 15 #
convexity-sys-attrib $-1 $390 $197 $133 #
point $-1 0.39150000000000001 -0.19 -1.33486478079724e-017 #
cur-twe-attrib $-1 $-1 $-1 $199 40 #
model_id-kcp-attrib $-1 $391 $-1 $200 1 990669511 50 221380609 12 #
loop $392 $-1 $393 $183 #
convexity-sys-attrib $-1 $394 $201 $136 #
model_id-kcp-attrib $-1 $-1 $-1 $202 1 990669511 50 221380609 18 #
point $-1 0.17949999999999999 -0.25 0 #
cur-twe-attrib $-1 $-1 $-1 $203 42 #
edge_name-twe-attrib $-1 $-1 $205 $92 3 8704 #
model_id-kcp-attrib $-1 $-1 $-1 $208 1 990669511 50 221380610 3 #
face $-1 $-1 $223 $31 $-1 $395 reversed single #
loop $-1 $-1 $310 $208 #
plane-surface $-1 0 0.12500000000000006 0 0 -1 0 0 0 -1 forward_v I I I I #
coedge $-1 $396 $308 $311 $397 forward $209 $-1 #
coedge $-1 $314 $211 $212 $302 reversed $143 $-1 #
coedge $-1 $308 $396 $211 $300 reversed $209 $-1 #
edge $-1 $315 -0.3125 $398 0.3125 $299 $399 forward 7 unknown #
coedge $-1 $213 $212 $396 $400 forward $94 $-1 #
edge $-1 $306 -0.3125 $398 0.3125 $298 $401 forward 7 unknown #
coedge $-1 $311 $310 $213 $304 reversed $295 $-1 #
edge $-1 $402 -0.3125 $305 0.3125 $303 $403 forward 7 unknown #
vertex $-1 $215 $404 #
vertex $-1 $317 $405 #
straight-curve $-1 0.3125 0 -0.3125 0 -1 0 I I #
coedge $-1 $297 $299 $216 $309 reversed $209 $-1 #
edge $-1 $312 -0.12500000000000006 $315 0.12500000000000006 $308 $406 forward 7 unknown #
coedge $-1 $303 $217 $222 $318 forward $295 $-1 #
coedge $-1 $217 $303 $297 $397 reversed $295 $-1 #
vertex $-1 $218 $407 #
straight-curve $-1 0 0.12500000000000006 0.3125 -1 0 0 I I #
coedge $-1 $219 $298 $221 $317 reversed $143 $-1 #
vertex $-1 $309 $408 #
straight-curve $-1 0 -0.12500000000000006 0.3125 1 0 0 I I #
edge $-1 $224 -0.3125 $306 0.3125 $221 $409 forward 7 unknown #
edge $-1 $225 -0.3125 $305 0.3125 $222 $410 forward 7 unknown #
point $-1 0.3125 -0.12500000000000006 0.3125 #
point $-1 0.3125 0.12500000000000006 0.3125 #
coedge $-1 $321 $321 $228 $322 forward $227 $-1 #
edge $-1 $411 0 $411 6.2831853071795862 $321 $412 forward 7 unknown #
vertex $-1 $229 $413 #
ellipse-curve $-1 0 0 -0.014999999999999999 0 0 -1 0.3125 0 0 1 I I #
point $-1 -0.28249999999999992 3.4595129495482146e-017 0.015000000000000013 #
coedge $-1 $326 $326 $234 $327 forward $232 $-1 #
edge $-1 $414 0 $414 6.2831853071795862 $326 $415 forward 7 unknown #
vertex $-1 $235 $416 #
ellipse-curve $-1 0 0 -0.09439676901250435 0 0 1 0.10299999999999999 0 0 1 I I #
point $-1 -0.10299999999999999 1.2613445444370485e-017 -0.084004464167091022 #
vertex $-1 $239 $417 #
ellipse-curve $-1 0 0 0.030000000000000082 0 0 1 0.10299999999999999 0 0 1 I I #
point $-1 0.10299999999999999 0 -0.030000000000000082 #
vertex $-1 $243 $418 #
ellipse-curve $-1 0 0 0.095000000000000084 0 0 1 0.1875 0 0 1 I I #
point $-1 0.1875 0 -0.095000000000000084 #
face $-1 $419 $420 $41 $-1 $421 reversed single #
loop $-1 $-1 $360 $246 #
plane-surface $-1 0 0 0.3125 0 0 1 1 0 0 forward_v I I I I #
coedge $-1 $422 $423 $424 $343 reversed $247 $-1 #
coedge $-1 $254 $248 $425 $426 reversed $174 $-1 #
coedge $-1 $248 $254 $427 $428 reversed $174 $-1 #
edge $-1 $429 -0.25 $430 1.1102230246251565e-016 $424 $431 forward 7 unknown #
coedge $-1 $250 $249 $432 $433 reversed $118 $-1 #
coedge $-1 $434 $435 $436 $346 forward $437 $-1 #
edge $-1 $438 -0.25 $350 1.1102230246251565e-016 $345 $439 forward 7 unknown #
coedge $-1 $348 $251 $440 $441 reversed $349 $-1 #
coedge $-1 $251 $347 $434 $442 forward $349 $-1 #
loop $-1 $-1 $251 $443 #
vertex $-1 $444 $445 #
vertex $-1 $446 $447 #
ellipse-curve $-1 0 -0.12500000000000006 0 0 1 0 0.3125 0 3.8268948556949289e-017 1 I I #
coedge $-1 $448 $449 $253 $354 forward $450 $-1 #
edge $-1 $351 -1.5707963267948966 $356 1.2246063538223773e-016 $353 $352 forward 7 unknown #
coedge $-1 $451 $452 $453 $255 forward $420 $-1 #
vertex $-1 $454 $455 #
straight-curve $-1 0.3125 -0.12499999999999994 0 0 -1 0 I I #
coedge $-1 $456 $256 $449 $446 forward $361 $-1 #
coedge $-1 $256 $456 $258 $363 forward $361 $-1 #
coedge $-1 $457 $440 $250 $257 reversed $338 $-1 #
loop $-1 $-1 $256 $458 #
straight-curve $-1 0 -0.12499999999999994 0.3125 0 -1 0 I I #
edge $-1 $459 -0.3125 $262 0 $258 $460 forward 7 unknown #
coedge $-1 $461 $453 $259 $365 reversed $462 $-1 #
edge $-1 $459 -0.3125 $261 0 $364 $463 forward 7 unknown #
face $-1 $464 $260 $41 $-1 $465 reversed single #
edge $-1 $261 0 $466 0.3125 $452 $463 forward 7 unknown #
point $-1 0.3125 0.12500000000000006 0 #
edge $-1 $262 0 $467 0.3125 $468 $460 forward 7 unknown #
point $-1 0 0.12500000000000006 0.3125 #
face_name-twe-attrib $-1 $-1 $265 $183 6 #
model_id-kcp-attrib $-1 $469 $-1 $266 1 990669511 50 221380609 8 #
face $470 $-1 $278 $11 $-1 $471 reversed single #
loop $472 $196 $473 $266 #
cone-surface $474 0.28249999999999997 -0.19 0 0 1 0 -0.109 0 0 1 I I 0.499999999999998 0.86602540378444004 0.109 forward I I I I #
surf-twe-attrib $-1 $-1 $-1 $267 48 #
edge $475 $476 -3.1415926535897931 $476 3.1415926535897931 $269 $477 forward 7 unknown #
attrib_edge_convexity-kcp-attrib $-1 $478 $-1 $273 1 #
vertex $-1 $273 $479 #
ellipse-curve $480 0.28249999999999997 0 0 0 -1 0 -0.28249999999999997 0 0 1 I I #
loop_type-twe-attrib $-1 $-1 $-1 $274 1 #
convexity-sys-attrib $-1 $481 $275 $193 #
point $-1 0.46999999999999997 0 -2.29621235228882e-017 #
cur-twe-attrib $-1 $-1 $-1 $277 58 #
loop_type-twe-attrib $-1 $-1 $-1 $278 0 #
convexity-sys-attrib $-1 $482 $279 $195 #
point $-1 0.095000000000000001 -0.19 0 #
cur-twe-attrib $-1 $-1 $-1 $281 60 #
loop_type-twe-attrib $-1 $-1 $282 $196 1 #
edge_name-twe-attrib $-1 $-1 $283 $133 6 8448 #
loop_type-twe-attrib $-1 $-1 $286 $200 0 #
model_id-kcp-attrib $-1 $483 $-1 $287 1 990669511 50 221380609 13 #
coedge $-1 $393 $393 $473 $484 reversed $287 $-1 #
edge_name-twe-attrib $-1 $-1 $288 $136 4 8704 #
plane-surface $-1 0.3125 0 0 -1 0 0 0 0 1 forward_v I I I I #
coedge $-1 $299 $297 $301 $400 reversed $209 $-1 #
edge $-1 $312 -0.3125 $402 0.3125 $311 $485 forward 7 unknown #
vertex $-1 $400 $486 #
straight-curve $-1 -0.3125 -0.12500000000000006 0 0 0 -1 I I #
edge $-1 $398 -0.12500000000000006 $402 0.12500000000000006 $396 $487 forward 7 unknown #
straight-curve $-1 0 -0.12500000000000006 -0.3125 -1 0 0 I I #
vertex $-1 $304 $488 #
straight-curve $-1 0 0.12500000000000006 -0.3125 1 0 0 I I #
point $-1 0.3125 0.12500000000000006 -0.3125 #
point $-1 0.3125 -0.12500000000000006 -0.3125 #
straight-curve $-1 -0.3125 0 0.3125 0 -1 0 I I #
point $-1 -0.3125 0.12500000000000006 0.3125 #
point $-1 -0.3125 -0.12500000000000006 0.3125 #
straight-curve $-1 0.3125 -0.12500000000000006 0 0 0 -1 I I #
straight-curve $-1 0.3125 0.12500000000000006 0 0 0 -1 I I #
vertex $-1 $322 $489 #
ellipse-curve $-1 0 0 0.014999999999999999 0 0 1 0.3125 0 0 1 I I #
point $-1 0.3125 0 -0.014999999999999999 #
vertex $-1 $327 $490 #
ellipse-curve $-1 0 0 -0.09439676901250435 0 0 -1 0.109 0 0 1 I I #
point $-1 0.10299999999999999 0 -0.09439676901250435 #
point $-1 0.10299999999999999 0 0.030000000000000082 #
point $-1 0.1875 0 0.095000000000000084 #
face $-1 $491 $492 $41 $-1 $493 reversed single #
loop $-1 $-1 $355 $337 #
plane-surface $-1 0.3125 0 0 -1 0 0 0 0 1 forward_v I I I I #
coedge $-1 $494 $340 $495 $496 reversed $247 $-1 #
coedge $-1 $340 $494 $497 $498 reversed $247 $-1 #
coedge $-1 $499 $500 $501 $343 forward $502 $-1 #
coedge $-1 $503 $504 $341 $426 forward $505 $-1 #
edge $-1 $356 1.2246063538223773e-016 $430 1.5707963267948968 $425 $352 forward 7 unknown #
coedge $-1 $506 $507 $342 $428 forward $508 $-1 #
edge $-1 $429 -1.5707963267948968 $261 -1.2246063538223773e-016 $427 $263 forward 7 unknown #
vertex $-1 $509 $510 #
vertex $-1 $511 $512 #
straight-curve $-1 0 -0.12499999999999994 -0.3125 0 -1 0 I I #
coedge $-1 $513 $468 $344 $433 forward $514 $-1 #
edge $-1 $262 1.5707963267948966 $438 3.1415926535897931 $432 $263 forward 7 unknown #
coedge $-1 $515 $345 $348 $442 reversed $437 $-1 #
coedge $-1 $345 $515 $513 $516 forward $437 $-1 #
coedge $-1 $517 $518 $494 $346 reversed $492 $-1 #
loop $-1 $-1 $345 $519 #
vertex $-1 $520 $521 #
straight-curve $-1 -0.3125 -0.12499999999999994 0 0 -1 0 I I #
coedge $-1 $360 $522 $347 $441 forward $338 $-1 #
edge $-1 $523 -0.3125 $351 0 $347 $524 forward 7 unknown #
edge $-1 $523 -0.3125 $350 0 $434 $525 forward 7 unknown #
face $-1 $526 $349 $41 $-1 $527 reversed single #
edge $-1 $350 0 $528 0.3125 $518 $525 forward 7 unknown #
point $-1 -0.3125 -0.12500000000000006 0 #
edge $-1 $351 0 $529 0.3125 $449 $524 forward 7 unknown #
point $-1 0 -0.12500000000000006 0.3125 #
coedge $-1 $449 $353 $530 $531 reversed $450 $-1 #
coedge $-1 $353 $448 $358 $446 reversed $450 $-1 #
loop $-1 $-1 $353 $526 #
coedge $-1 $532 $355 $504 $454 forward $420 $-1 #
coedge $-1 $355 $532 $506 $367 reversed $420 $-1 #
coedge $-1 $364 $530 $176 $255 reversed $462 $-1 #
edge $-1 $356 0 $533 0.3125 $451 $534 forward 7 unknown #
point $-1 0.3125 -0.12500000000000006 0 #
coedge $-1 $359 $358 $461 $535 forward $361 $-1 #
coedge $-1 $522 $360 $468 $369 forward $338 $-1 #
face $-1 $536 $361 $41 $-1 $339 forward single #
vertex $-1 $535 $537 #
straight-curve $-1 0 0.12500000000000006 0.3125 -1 0 0 I I #
coedge $-1 $530 $364 $456 $535 reversed $462 $-1 #
loop $-1 $-1 $453 $538 #
straight-curve $-1 0.3125 0.12500000000000006 0 0 0 -1 I I #
face $-1 $539 $514 $41 $-1 $465 reversed single #
plane-surface $-1 0 0.12500000000000006 0 0 -1 0 0 0 -1 forward_v I I I I #
vertex $-1 $540 $541 #
vertex $-1 $369 $542 #
coedge $-1 $432 $513 $457 $369 reversed $514 $-1 #
face_name-twe-attrib $-1 $-1 $372 $266 7 #
model_id-kcp-attrib $-1 $543 $-1 $373 1 990669511 50 221380609 9 #
cone-surface $544 0.28249999999999997 0.012500000000000001 0 0 -1 0 -0.1875 0 0 1 I I 0 1 0.1875 forward I I I I #
model_id-kcp-attrib $-1 $545 $-1 $374 1 990669511 50 221380609 14 #
coedge $-1 $473 $473 $393 $484 forward $374 $-1 #
surf-twe-attrib $-1 $-1 $-1 $375 73 #
attrib_edge_convexity-kcp-attrib $-1 $546 $-1 $377 1 #
vertex $-1 $377 $547 #
ellipse-curve $548 0.28249999999999997 -0.029999999999999999 0 0 -1 0 -0.3125 0 0 1 I I #
convexity-sys-attrib $-1 $549 $378 $273 #
point $-1 0.56499999999999995 0 -3.4596266107818297e-017 #
cur-twe-attrib $-1 $-1 $-1 $380 80 #
edge_name-twe-attrib $-1 $-1 $382 $193 8 8704 #
edge_name-twe-attrib $-1 $-1 $386 $195 7 4608 #
loop_type-twe-attrib $-1 $-1 $392 $287 1 #
edge $550 $551 -3.1415926535897931 $551 3.1415926535897931 $473 $552 forward 7 unknown #
straight-curve $-1 -0.3125 0.12500000000000006 0 0 0 -1 I I #
point $-1 -0.3125 -0.12500000000000006 -0.3125 #
straight-curve $-1 -0.3125 0 -0.3125 0 1 0 I I #
point $-1 -0.3125 0.12500000000000006 -0.3125 #
point $-1 0.3125 0 0.014999999999999999 #
point $-1 0.109 0 -0.09439676901250435 #
face $-1 $443 $553 $41 $-1 $527 reversed single #
loop $-1 $-1 $436 $419 #
plane-surface $-1 -0.3125 0 0 1 0 0 0 0 -1 forward_v I I I I #
coedge $-1 $423 $422 $249 $346 forward $247 $-1 #
coedge $-1 $554 $555 $422 $496 forward $556 $-1 #
edge $-1 $438 -3.1415926535897931 $429 -1.5707963267948968 $495 $263 forward 7 unknown #
coedge $-1 $557 $558 $423 $498 forward $553 $-1 #
edge $-1 $430 1.5707963267948968 $350 3.1415926535897931 $497 $352 forward 7 unknown #
coedge $-1 $559 $424 $558 $511 forward $502 $-1 #
coedge $-1 $424 $559 $554 $560 forward $502 $-1 #
coedge $-1 $561 $562 $248 $343 reversed $563 $-1 #
loop $-1 $-1 $424 $536 #
coedge $-1 $504 $425 $562 $564 reversed $505 $-1 #
coedge $-1 $425 $503 $451 $454 reversed $505 $-1 #
loop $-1 $-1 $425 $565 #
coedge $-1 $507 $427 $452 $367 forward $508 $-1 #
coedge $-1 $427 $506 $561 $509 reversed $508 $-1 #
loop $-1 $-1 $427 $566 #
edge $-1 $429 0 $466 0.3125 $507 $567 forward 7 unknown #
point $-1 0 0.12500000000000006 -0.3125 #
edge $-1 $430 0 $528 0.3125 $558 $568 forward 7 unknown #
point $-1 0 -0.12500000000000006 -0.3125 #
coedge $-1 $468 $432 $435 $516 reversed $514 $-1 #
loop $-1 $-1 $432 $464 #
coedge $-1 $435 $434 $522 $569 reversed $437 $-1 #
edge $-1 $467 -0.3125 $438 0 $513 $570 forward 7 unknown #
coedge $-1 $571 $436 $555 $520 forward $492 $-1 #
coedge $-1 $436 $571 $557 $444 reversed $492 $-1 #
face $-1 $538 $437 $41 $-1 $493 reversed single #
edge $-1 $438 0 $572 0.3125 $555 $570 forward 7 unknown #
point $-1 -0.3125 0.12500000000000006 0 #
coedge $-1 $440 $457 $515 $569 forward $338 $-1 #
vertex $-1 $569 $573 #
straight-curve $-1 0 -0.12500000000000006 0.3125 1 0 0 I I #
straight-curve $-1 -0.3125 -0.12500000000000006 0 0 0 -1 I I #
face $-1 $565 $450 $41 $-1 $527 reversed single #
plane-surface $-1 0 -0.12500000000000006 0 0 1 0 0 0 1 forward_v I I I I #
vertex $-1 $574 $575 #
vertex $-1 $535 $576 #
coedge $-1 $453 $461 $448 $531 forward $462 $-1 #
edge $-1 $529 -0.3125 $356 0 $530 $534 forward 7 unknown #
coedge $-1 $452 $451 $577 $540 reversed $420 $-1 #
vertex $-1 $454 $578 #
straight-curve $-1 0.3125 -0.12500000000000006 0 0 0 -1 I I #
edge $-1 $529 -0.12500000000000006 $459 0.12500000000000006 $461 $579 forward 7 unknown #
face $-1 $519 $502 $41 $-1 $580 reversed single #
point $-1 0.3125 0.12500000000000006 0.3125 #
face $-1 $-1 $462 $41 $-1 $421 reversed single #
face $-1 $581 $556 $41 $-1 $465 reversed single #
edge $-1 $466 -0.12500000000000006 $533 0.12500000000000006 $532 $582 forward 7 unknown #
point $-1 0.3125 0.12500000000000006 -0.3125 #
point $-1 -0.3125 0.12500000000000006 0.3125 #
face_name-twe-attrib $-1 $-1 $470 $373 8 #
surf-twe-attrib $-1 $-1 $-1 $471 97 #
loop_type-twe-attrib $-1 $-1 $472 $374 0 #
convexity-sys-attrib $-1 $583 $475 $377 #
point $-1 0.59499999999999997 -0.029999999999999999 -3.8270205871480401e-017 #
cur-twe-attrib $-1 $-1 $-1 $477 101 #
edge_name-twe-attrib $-1 $-1 $478 $273 1 8448 #
attrib_edge_convexity-kcp-attrib $-1 $584 $-1 $484 1 #
vertex $585 $484 $586 #
ellipse-curve $587 0.28249999999999997 -0.20039230484541301 0 0 -1 0 -0.10299999999999999 0 0 1 I I #
loop $-1 $-1 $497 $491 #
coedge $-1 $555 $495 $500 $560 reversed $556 $-1 #
coedge $-1 $495 $554 $517 $520 reversed $556 $-1 #
loop $-1 $-1 $495 $539 #
coedge $-1 $558 $497 $518 $444 forward $553 $-1 #
coedge $-1 $497 $557 $499 $511 reversed $553 $-1 #
coedge $-1 $500 $499 $571 $574 forward $502 $-1 #
edge $-1 $572 -0.3125 $429 0 $554 $567 forward 7 unknown #
coedge $-1 $577 $501 $507 $509 forward $563 $-1 #
coedge $-1 $501 $577 $503 $564 forward $563 $-1 #
loop $-1 $-1 $501 $581 #
edge $-1 $533 -0.3125 $430 0 $503 $568 forward 7 unknown #
face $-1 $566 $505 $41 $-1 $527 reversed single #
face $-1 $366 $508 $41 $-1 $465 reversed single #
straight-curve $-1 0 0.12500000000000006 -0.3125 1 0 0 I I #
straight-curve $-1 0 -0.12500000000000006 -0.3125 -1 0 0 I I #
edge $-1 $467 -0.12500000000000006 $523 0.12500000000000006 $515 $588 forward 7 unknown #
straight-curve $-1 -0.3125 0.12500000000000006 0 0 0 -1 I I #
coedge $-1 $518 $517 $559 $574 reversed $492 $-1 #
vertex $-1 $560 $589 #
point $-1 -0.3125 -0.12500000000000006 0.3125 #
edge $-1 $528 -0.12500000000000006 $572 0.12500000000000006 $571 $590 forward 7 unknown #
point $-1 -0.3125 -0.12500000000000006 -0.3125 #
point $-1 0.3125 -0.12500000000000006 0.3125 #
coedge $-1 $562 $561 $532 $540 forward $563 $-1 #
point $-1 0.3125 -0.12500000000000006 -0.3125 #
straight-curve $-1 0.3125 0 0.3125 0 1 0 I I #
plane-surface $-1 0 0 -0.3125 0 0 1 1 0 0 forward_v I I I I #
face $-1 $458 $563 $41 $-1 $580 reversed single #
straight-curve $-1 0.3125 0 -0.3125 0 -1 0 I I #
edge_name-twe-attrib $-1 $-1 $546 $377 2 8448 #
convexity-sys-attrib $-1 $591 $550 $484 #
model_id-kcp-attrib $-1 $-1 $-1 $551 1 990669511 50 221380609 19 #
point $-1 0.38550000000000001 -0.20039230484541301 -1.2613859855239901e-017 #
cur-twe-attrib $-1 $-1 $-1 $552 123 #
straight-curve $-1 -0.3125 0 0.3125 0 -1 0 I I #
point $-1 -0.3125 0.12500000000000006 -0.3125 #
straight-curve $-1 -0.3125 0 -0.3125 0 1 0 I I #
edge_name-twe-attrib $-1 $-1 $584 $484 5 8448 #
End-of-ACIS-data 