105 755 1 0                             
body $-1 $1 $-1 $-1 #
lump $-1 $-1 $2 $0 #
shell $-1 $-1 $-1 $3 $1 #
face $-1 $4 $5 $2 $-1 $6 reversed single #
face $-1 $7 $8 $2 $-1 $9 reversed single #
loop $-1 $10 $11 $3 #
cone-surface $-1 75 0 0 0 0 1 10 0 0 1 0 1 0 #
face $-1 $12 $13 $2 $-1 $9 reversed single #
loop $-1 $-1 $14 $4 #
plane-surface $-1 30 0 35 0 0 1 1 0 0 0 #
loop $-1 $-1 $15 $3 #
coedge $-1 $11 $11 $16 $17 1 $5 $-1 #
face $-1 $18 $19 $2 $-1 $9 reversed single #
loop $-1 $-1 $20 $7 #
coedge $-1 $21 $22 $23 $24 1 $8 $-1 #
coedge $-1 $15 $15 $25 $26 1 $10 $-1 #
coedge $-1 $16 $16 $11 $17 0 $27 $-1 #
edge $-1 $28 $28 $16 $29 0 #
face $-1 $30 $31 $2 $-1 $32 forward single #
loop $-1 $-1 $33 $12 #
coedge $-1 $34 $35 $36 $37 1 $13 $-1 #
coedge $-1 $38 $14 $39 $40 1 $8 $-1 #
coedge $-1 $14 $38 $41 $42 1 $8 $-1 #
coedge $-1 $43 $44 $14 $24 0 $45 $-1 #
edge $-1 $46 $47 $23 $48 0 #
coedge $-1 $25 $25 $15 $26 0 $49 $-1 #
edge $-1 $50 $50 $25 $51 0 #
loop $-1 $52 $16 $53 #
vertex $-1 $17 $54 #
ellipse-curve $-1 75 0 -25 0 0 1 10 0 0 1 #
face $-1 $55 $56 $2 $-1 $32 forward single #
loop $-1 $-1 $57 $18 #
plane-surface $-1 35 0 25 -1 0 0 0 0 1 0 #
coedge $-1 $58 $59 $60 $61 0 $19 $-1 #
coedge $-1 $62 $20 $63 $64 1 $13 $-1 #
coedge $-1 $20 $62 $65 $66 1 $13 $-1 #
coedge $-1 $67 $68 $68 $37 0 $69 $-1 #
edge $-1 $70 $71 $68 $72 0 #
coedge $-1 $22 $21 $20 $37 0 $8 $-1 #
coedge $-1 $57 $63 $21 $40 0 $31 $-1 #
edge $-1 $70 $46 $39 $73 0 #
coedge $-1 $74 $75 $22 $42 0 $76 $-1 #
edge $-1 $47 $71 $41 $77 0 #
coedge $-1 $78 $23 $75 $79 0 $45 $-1 #
coedge $-1 $23 $80 $57 $81 0 $45 $-1 #
loop $-1 $-1 $82 $83 #
vertex $-1 $24 $84 #
vertex $-1 $42 $85 #
ellipse-curve $-1 0 0 35 0 0 1 100 0 0 1 #
loop $-1 $86 $25 $87 #
vertex $-1 $26 $88 #
ellipse-curve $-1 75 0 25 -0 -0 -1 10 0 0 1 #
loop $-1 $-1 $89 $53 #
face $-1 $90 $27 $2 $-1 $91 reversed single #
point $-1 65 6.98296267768627e-14 -25 #
face $-1 $92 $93 $2 $-1 $94 forward single #
loop $-1 $-1 $95 $30 #
coedge $-1 $96 $39 $44 $81 1 $31 $-1 #
coedge $-1 $97 $33 $98 $99 1 $19 $-1 #
coedge $-1 $33 $97 $100 $101 1 $19 $-1 #
coedge $-1 $102 $103 $104 $61 1 $105 $-1 #
edge $-1 $106 $107 $108 $109 0 #
coedge $-1 $35 $34 $110 $111 1 $13 $-1 #
coedge $-1 $39 $112 $34 $64 0 $31 $-1 #
edge $-1 $113 $70 $63 $73 0 #
coedge $-1 $114 $115 $35 $66 0 $76 $-1 #
edge $-1 $71 $116 $65 $77 0 #
coedge $-1 $117 $36 $115 $118 1 $69 $-1 #
coedge $-1 $36 $117 $38 $37 1 $69 $-1 #
loop $-1 $119 $67 $120 #
vertex $-1 $37 $121 #
vertex $-1 $118 $122 #
straight-curve $-1 99.9999999999999 50 35 -1 -0 3.49148133884313e-15 #
straight-curve $-1 35 0 35 0 1 0 #
coedge $-1 $115 $41 $117 $123 0 $76 $-1 #
coedge $-1 $41 $124 $43 $79 1 $76 $-1 #
loop $-1 $-1 $41 $125 #
straight-curve $-1 25 0 35 0 -1 0 #
coedge $-1 $126 $43 $127 $128 1 $45 $-1 #
edge $-1 $47 $129 $43 $130 0 #
coedge $-1 $44 $131 $132 $133 0 $45 $-1 #
edge $-1 $134 $46 $44 $135 0 #
coedge $-1 $136 $137 $138 $139 0 $45 $-1 #
face $-1 $140 $141 $2 $-1 $142 forward single #
point $-1 35 93.674969975976 35 #
point $-1 25 96.8245836551854 35 #
loop $-1 $-1 $143 $87 #
face $-1 $144 $49 $2 $-1 $145 forward single #
point $-1 65 -6.98296267768627e-14 25 #
coedge $-1 $146 $147 $148 $149 1 $52 $-1 #
face $-1 $87 $150 $2 $-1 $151 forward single #
plane-surface $-1 75 0 -25 0 0 1 1 0 0 0 #
face $-1 $152 $153 $2 $-1 $94 forward single #
loop $-1 $-1 $132 $55 #
plane-surface $-1 30 0 15 0 0 1 1 0 0 0 #
coedge $-1 $154 $155 $136 $156 1 $56 $-1 #
coedge $-1 $112 $57 $157 $158 0 $31 $-1 #
coedge $-1 $59 $58 $159 $160 1 $19 $-1 #
coedge $-1 $161 $162 $58 $99 0 $163 $-1 #
edge $-1 $164 $107 $98 $165 0 #
coedge $-1 $166 $154 $59 $101 0 $56 $-1 #
edge $-1 $106 $167 $100 $73 0 #
coedge $-1 $138 $60 $154 $168 1 $105 $-1 #
coedge $-1 $60 $138 $169 $170 1 $105 $-1 #
coedge $-1 $171 $108 $108 $61 0 $172 $-1 #
loop $-1 $-1 $138 $152 #
vertex $-1 $61 $173 #
vertex $-1 $174 $175 #
coedge $-1 $104 $176 $33 $61 1 $172 $-1 #
straight-curve $-1 99.9999999999999 -50 35 -1 -0 3.49148133884313e-15 #
coedge $-1 $177 $178 $62 $111 0 $179 $-1 #
edge $-1 $116 $113 $110 $180 0 #
coedge $-1 $63 $96 $177 $181 1 $31 $-1 #
vertex $-1 $111 $182 #
coedge $-1 $124 $65 $178 $183 0 $76 $-1 #
coedge $-1 $65 $74 $67 $118 0 $76 $-1 #
vertex $-1 $111 $184 #
coedge $-1 $68 $67 $74 $123 1 $69 $-1 #
edge $-1 $185 $71 $115 $186 0 #
loop $-1 $-1 $187 $120 #
face $-1 $188 $69 $2 $-1 $189 reversed single #
point $-1 35 50 35 #
point $-1 25 50 35 #
edge $-1 $71 $185 $74 $186 0 #
coedge $-1 $75 $114 $190 $191 1 $76 $-1 #
face $-1 $192 $76 $2 $-1 $193 forward single #
coedge $-1 $194 $78 $195 $196 0 $45 $-1 #
coedge $-1 $190 $197 $78 $128 0 $198 $-1 #
edge $-1 $199 $129 $127 $200 0 #
vertex $-1 $128 $201 #
straight-curve $-1 25 96.8245836551854 0 0 0 1 #
coedge $-1 $80 $202 $203 $204 0 $45 $-1 #
coedge $-1 $205 $157 $80 $133 1 $93 $-1 #
edge $-1 $206 $134 $80 $207 0 #
vertex $-1 $133 $208 #
straight-curve $-1 35 93.674969975976 0 0 0 1 #
coedge $-1 $209 $82 $95 $156 0 $45 $-1 #
coedge $-1 $82 $210 $211 $212 0 $45 $-1 #
coedge $-1 $103 $102 $82 $139 1 $105 $-1 #
edge $-1 $213 $214 $82 $215 0 #
face $-1 $125 $216 $2 $-1 $193 forward single #
loop $-1 $45 $217 $83 #
cone-surface $-1 0 0 0 0 0 1 100 0 0 1 0 1 0 #
coedge $-1 $218 $219 $220 $221 1 $86 $-1 #
face $-1 $222 $223 $2 $-1 $224 forward single #
plane-surface $-1 75 0 25 0 0 1 1 0 0 0 #
coedge $-1 $147 $89 $225 $226 1 $52 $-1 #
coedge $-1 $89 $146 $227 $228 1 $52 $-1 #
coedge $-1 $227 $229 $89 $149 0 $141 $-1 #
edge $-1 $230 $231 $148 $232 0 #
loop $-1 $-1 $233 $90 #
plane-surface $-1 50 0 -50 1 0 0 0 0 -1 0 #
face $-1 $234 $105 $2 $-1 $9 reversed single #
loop $-1 $-1 $235 $92 #
coedge $-1 $100 $95 $102 $168 0 $56 $-1 #
coedge $-1 $95 $166 $236 $237 0 $56 $-1 #
edge $-1 $214 $238 $136 $239 0 #
coedge $-1 $132 $240 $96 $158 1 $93 $-1 #
edge $-1 $134 $241 $96 $242 0 #
coedge $-1 $243 $244 $97 $160 0 $179 $-1 #
edge $-1 $167 $164 $159 $245 0 #
coedge $-1 $246 $98 $176 $247 0 $163 $-1 #
coedge $-1 $98 $248 $243 $249 0 $163 $-1 #
loop $-1 $-1 $169 $250 #
vertex $-1 $249 $251 #
straight-curve $-1 25 0 35 0 -1 0 #
coedge $-1 $155 $100 $244 $252 1 $56 $-1 #
vertex $-1 $160 $253 #
edge $-1 $214 $106 $154 $73 0 #
coedge $-1 $211 $246 $103 $170 0 $163 $-1 #
edge $-1 $107 $213 $169 $165 0 #
coedge $-1 $176 $104 $246 $174 1 $172 $-1 #
loop $-1 $254 $171 $188 #
point $-1 35 -50 35 #
edge $-1 $255 $107 $246 $256 0 #
point $-1 25 -50 35 #
coedge $-1 $108 $171 $161 $247 1 $172 $-1 #
coedge $-1 $257 $110 $112 $181 0 $179 $-1 #
coedge $-1 $110 $258 $114 $183 1 $179 $-1 #
loop $-1 $259 $159 $260 #
ellipse-curve $-1 0 0 35 -0 -0 -1 37.6 0 0 1 #
edge $-1 $113 $241 $177 $261 0 #
point $-1 35 13.7389955964765 35 #
edge $-1 $116 $262 $114 $263 0 #
point $-1 25 28.0848713723243 35 #
vertex $-1 $123 $264 #
ellipse-curve $-1 25 50 50.0000000000003 1 -0 -0 -5.2372220082647e-14 0 -15 1 #
coedge $-1 $187 $187 $265 $266 1 $119 $-1 #
face $-1 $267 $172 $2 $-1 $268 reversed single #
cone-surface $-1 100 50 50 1 0 -3.49148133884313e-15 -5.2372220082647e-14 0 -15 1 0 1 0 #
coedge $-1 $269 $127 $124 $191 0 $198 $-1 #
edge $-1 $129 $262 $190 $270 0 #
face $-1 $271 $272 $2 $-1 $273 reversed single #
plane-surface $-1 25 0 37.5 -1 0 0 0 0 1 0 #
coedge $-1 $220 $126 $218 $274 0 $45 $-1 #
coedge $-1 $275 $276 $126 $196 1 $277 $-1 #
edge $-1 $199 $278 $126 $279 0 #
coedge $-1 $127 $280 $275 $281 0 $198 $-1 #
loop $-1 $-1 $269 $282 #
vertex $-1 $196 $283 #
ellipse-curve $-1 0 0 75 0 0 1 100 0 0 1 #
point $-1 25 96.8245836551854 75 #
coedge $-1 $131 $284 $285 $286 0 $45 $-1 #
coedge $-1 $287 $288 $131 $204 1 $216 $-1 #
edge $-1 $289 $206 $131 $130 0 #
coedge $-1 $240 $132 $288 $290 1 $93 $-1 #
vertex $-1 $204 $291 #
ellipse-curve $-1 0 0 15 -0 -0 -1 100 0 0 1 #
point $-1 35 93.674969975976 15 #
coedge $-1 $292 $136 $235 $293 0 $45 $-1 #
coedge $-1 $137 $294 $280 $295 1 $45 $-1 #
coedge $-1 $248 $169 $137 $212 1 $163 $-1 #
edge $-1 $296 $213 $137 $297 0 #
vertex $-1 $212 $298 #
vertex $-1 $139 $299 #
ellipse-curve $-1 0 0 35 0 0 1 100 0 0 1 #
loop $-1 $-1 $288 $140 #
coedge $-1 $300 $301 $302 $303 0 $141 $-1 #
coedge $-1 $219 $143 $194 $274 1 $86 $-1 #
coedge $-1 $143 $218 $276 $304 1 $86 $-1 #
coedge $-1 $294 $194 $143 $221 0 $45 $-1 #
edge $-1 $305 $306 $220 $307 0 #
face $-1 $-1 $308 $2 $-1 $309 forward single #
loop $-1 $310 $265 $144 #
plane-surface $-1 50 0 50 1 0 0 0 0 -1 0 #
coedge $-1 $233 $311 $146 $226 0 $150 $-1 #
edge $-1 $312 $230 $225 $313 0 #
coedge $-1 $314 $148 $147 $228 0 $141 $-1 #
edge $-1 $231 $312 $227 $232 0 #
coedge $-1 $148 $315 $233 $316 0 $141 $-1 #
vertex $-1 $149 $317 #
vertex $-1 $149 $318 #
ellipse-curve $-1 0 0 -25 0 0 1 100 0 0 1 #
coedge $-1 $319 $225 $229 $316 1 $150 $-1 #
face $-1 $83 $320 $2 $-1 $193 forward single #
coedge $-1 $236 $321 $209 $293 1 $153 $-1 #
coedge $-1 $322 $235 $155 $237 1 $153 $-1 #
edge $-1 $323 $238 $155 $242 0 #
vertex $-1 $293 $324 #
straight-curve $-1 35 -93.674969975976 0 -0 -0 -1 #
coedge $-1 $157 $205 $257 $325 1 $93 $-1 #
vertex $-1 $325 $326 #
straight-curve $-1 35 0 15 0 -1 0 #
coedge $-1 $258 $159 $162 $249 1 $179 $-1 #
coedge $-1 $159 $327 $166 $252 0 $179 $-1 #
ellipse-curve $-1 0 0 35 -0 -0 -1 37.6 0 0 1 #
coedge $-1 $169 $161 $171 $174 0 $163 $-1 #
edge $-1 $107 $255 $161 $256 0 #
coedge $-1 $162 $211 $328 $329 1 $163 $-1 #
edge $-1 $330 $164 $162 $331 0 #
face $-1 $332 $163 $2 $-1 $193 forward single #
point $-1 25 -28.0848713723243 35 #
edge $-1 $323 $167 $244 $333 0 #
point $-1 35 -13.7389955964765 35 #
loop $-1 $-1 $334 $188 #
vertex $-1 $247 $335 #
ellipse-curve $-1 25 -50 50.0000000000003 1 -0 -0 -5.2372220082647e-14 0 -15 1 #
coedge $-1 $336 $177 $240 $325 0 $179 $-1 #
coedge $-1 $178 $243 $269 $337 1 $179 $-1 #
loop $-1 $-1 $338 $260 #
face $-1 $339 $179 $2 $-1 $340 reversed single #
straight-curve $-1 35 13.7389955964765 0 -0 -0 -1 #
vertex $-1 $191 $341 #
straight-curve $-1 25 28.0848713723243 0 0 0 1 #
point $-1 25.0000000000001 50.0000000000001 65.0000000000003 #
coedge $-1 $265 $265 $187 $266 0 $223 $-1 #
edge $-1 $342 $342 $265 $343 0 #
face $-1 $344 $345 $2 $-1 $346 forward single #
cone-surface $-1 100 -50 50 1 0 -3.49148133884313e-15 -5.2372220082647e-14 0 -15 1 0 1 0 #
coedge $-1 $328 $190 $258 $337 0 $198 $-1 #
straight-curve $-1 25 0 75 0 -1 0 #
face $-1 $347 $348 $2 $-1 $273 reversed single #
loop $-1 $-1 $349 $192 #
plane-surface $-1 -30 0 35 0 0 1 1 0 0 0 #
edge $-1 $278 $305 $194 $307 0 #
coedge $-1 $350 $195 $197 $281 1 $277 $-1 #
coedge $-1 $195 $350 $219 $304 0 $277 $-1 #
loop $-1 $-1 $350 $144 #
vertex $-1 $274 $351 #
straight-curve $-1 50 86.6025403784439 0 -0 -0 -1 #
coedge $-1 $197 $328 $210 $295 0 $198 $-1 #
edge $-1 $352 $199 $197 $353 0 #
face $-1 $250 $198 $2 $-1 $354 forward single #
point $-1 50 86.6025403784439 75 #
coedge $-1 $202 $355 $356 $357 0 $45 $-1 #
coedge $-1 $356 $358 $202 $286 1 $359 $-1 #
edge $-1 $360 $289 $202 $361 0 #
coedge $-1 $362 $203 $358 $363 0 $216 $-1 #
coedge $-1 $203 $362 $205 $290 0 $216 $-1 #
vertex $-1 $286 $364 #
edge $-1 $365 $206 $288 $366 0 #
point $-1 25 96.8245836551854 15 #
coedge $-1 $367 $209 $368 $369 0 $45 $-1 #
edge $-1 $238 $370 $209 $371 0 #
coedge $-1 $210 $220 $350 $372 0 $45 $-1 #
edge $-1 $296 $352 $280 $200 0 #
vertex $-1 $212 $373 #
straight-curve $-1 25 -96.8245836551854 0 -0 -0 -1 #
point $-1 25 -96.8245836551854 35 #
point $-1 35 -93.674969975976 35 #
coedge $-1 $374 $217 $375 $376 0 $141 $-1 #
coedge $-1 $217 $314 $377 $378 1 $141 $-1 #
coedge $-1 $379 $380 $217 $303 1 $381 $-1 #
edge $-1 $382 $383 $217 $384 0 #
edge $-1 $306 $278 $276 $385 0 #
vertex $-1 $274 $386 #
vertex $-1 $221 $387 #
ellipse-curve $-1 0 0 25 -0 -0 -1 100 0 0 1 #
loop $-1 $388 $389 $222 #
plane-surface $-1 0 0 -75 0 0 -1 -1 0 0 0 #
loop $-1 $277 $390 $144 #
coedge $-1 $225 $319 $314 $391 1 $150 $-1 #
vertex $-1 $228 $392 #
straight-curve $-1 50 0 -25 0 -1 0 #
coedge $-1 $301 $227 $311 $391 0 $141 $-1 #
coedge $-1 $229 $393 $394 $395 1 $141 $-1 #
edge $-1 $396 $230 $229 $397 0 #
point $-1 50 -86.6025403784439 -25 #
point $-1 100 0 -25 #
coedge $-1 $311 $233 $398 $399 1 $150 $-1 #
loop $-1 $-1 $400 $234 #
coedge $-1 $235 $322 $400 $401 1 $153 $-1 #
coedge $-1 $321 $236 $327 $402 1 $153 $-1 #
vertex $-1 $402 $403 #
point $-1 35 -93.674969975976 15 #
edge $-1 $241 $365 $257 $404 0 #
point $-1 35 13.7389955964765 15 #
coedge $-1 $244 $405 $322 $402 0 $179 $-1 #
coedge $-1 $280 $269 $248 $329 0 $198 $-1 #
edge $-1 $330 $296 $328 $270 0 #
vertex $-1 $249 $406 #
straight-curve $-1 25 -28.0848713723243 0 -0 -0 -1 #
face $-1 $407 $408 $2 $-1 $409 forward single #
straight-curve $-1 35 -13.7389955964765 0 0 -0 1 #
coedge $-1 $334 $334 $390 $410 1 $254 $-1 #
point $-1 25.0000000000001 -49.9999999999999 65.0000000000003 #
coedge $-1 $411 $257 $362 $412 1 $179 $-1 #
edge $-1 $262 $330 $269 $413 0 #
coedge $-1 $338 $338 $389 $414 1 $259 $-1 #
face $-1 $415 $416 $2 $-1 $417 reversed single #
cone-surface $-1 0 0 0 0 0 1 37.6 0 0 1 0 1 0 #
point $-1 25 28.0848713723243 75 #
vertex $-1 $266 $418 #
ellipse-curve $-1 50 50 50.0000000000002 -1 -0 -0 -5.2372220082647e-14 0 -15 1 #
face $-1 $419 $420 $2 $-1 $421 forward single #
loop $-1 $422 $423 $267 #
plane-surface $-1 -25 0 37.5 1 0 0 0 0 -1 0 #
face $-1 $424 $425 $2 $-1 $426 forward single #
loop $-1 $-1 $427 $271 #
coedge $-1 $428 $429 $430 $431 1 $272 $-1 #
coedge $-1 $276 $275 $294 $372 1 $277 $-1 #
point $-1 50 86.6025403784439 25 #
vertex $-1 $295 $432 #
straight-curve $-1 50 0 75 0 1 0 #
plane-surface $-1 0 0 75 0 0 1 1 0 0 0 #
coedge $-1 $284 $433 $434 $435 0 $45 $-1 #
coedge $-1 $436 $285 $284 $357 1 $359 $-1 #
edge $-1 $437 $360 $284 $361 0 #
coedge $-1 $285 $438 $287 $363 1 $359 $-1 #
loop $-1 $-1 $438 $419 #
vertex $-1 $357 $439 #
ellipse-curve $-1 0 0 0 -0 -0 -1 100 0 0 1 #
coedge $-1 $288 $287 $336 $412 0 $216 $-1 #
edge $-1 $289 $440 $287 $441 0 #
point $-1 25 96.8245836551854 0 #
vertex $-1 $412 $442 #
straight-curve $-1 25 0 15 0 1 -0 #
coedge $-1 $443 $292 $444 $445 0 $45 $-1 #
coedge $-1 $400 $446 $292 $369 1 $320 $-1 #
edge $-1 $370 $447 $292 $297 0 #
vertex $-1 $401 $448 #
ellipse-curve $-1 0 0 15 -0 -0 -1 100 0 0 1 #
edge $-1 $306 $352 $294 $449 0 #
point $-1 25 -96.8245836551854 75 #
coedge $-1 $393 $300 $450 $451 0 $141 $-1 #
coedge $-1 $452 $450 $300 $376 1 $453 $-1 #
edge $-1 $383 $454 $300 $455 0 #
coedge $-1 $398 $456 $301 $378 0 $388 $-1 #
edge $-1 $382 $457 $377 $458 0 #
coedge $-1 $459 $302 $456 $460 1 $381 $-1 #
coedge $-1 $302 $459 $452 $461 0 $381 $-1 #
loop $-1 $-1 $302 $462 #
vertex $-1 $460 $463 #
vertex $-1 $376 $464 #
straight-curve $-1 -50 86.6025403784439 0 0 0 1 #
straight-curve $-1 50 0 25 0 1 0 #
point $-1 100 0 25 #
point $-1 50 -86.6025403784439 25 #
loop $-1 $-1 $456 $222 #
coedge $-1 $389 $389 $338 $414 0 $308 $-1 #
coedge $-1 $390 $390 $334 $410 0 $310 $-1 #
edge $-1 $312 $457 $314 $465 0 #
point $-1 50 86.6025403784439 -25 #
coedge $-1 $315 $374 $459 $466 0 $141 $-1 #
coedge $-1 $456 $398 $315 $395 0 $388 $-1 #
edge $-1 $396 $467 $394 $458 0 #
vertex $-1 $399 $468 #
straight-curve $-1 50 -86.6025403784439 0 0 0 1 #
coedge $-1 $394 $377 $319 $399 0 $388 $-1 #
edge $-1 $457 $396 $398 $469 0 #
coedge $-1 $470 $368 $321 $401 0 $320 $-1 #
edge $-1 $370 $471 $400 $472 0 #
edge $-1 $471 $323 $327 $473 0 #
point $-1 35 -13.7389955964765 15 #
ellipse-curve $-1 0 0 15 0 0 1 37.6 0 0 1 #
coedge $-1 $327 $474 $470 $475 1 $179 $-1 #
point $-1 25 -28.0848713723243 75 #
face $-1 $476 $477 $2 $-1 $478 forward single #
loop $-1 $-1 $479 $332 #
plane-surface $-1 -75 0 25 0 0 1 1 0 0 0 #
edge $-1 $480 $480 $390 $481 0 #
coedge $-1 $482 $336 $438 $483 1 $179 $-1 #
edge $-1 $440 $365 $362 $263 0 #
ellipse-curve $-1 0 0 75 -0 -0 -1 37.6 0 0 1 #
edge $-1 $484 $484 $389 $485 0 #
face $-1 $120 $486 $2 $-1 $487 reversed single #
loop $-1 $488 $489 $339 #
cone-surface $-1 -100 -50 50 1 0 -3.49148133884313e-15 -3.49148133884313e-14 0 -10 1 0 1 0 #
point $-1 50 49.9999999999999 65.0000000000002 #
face $-1 $282 $359 $2 $-1 $421 forward single #
loop $-1 $-1 $490 $344 #
plane-surface $-1 0 0 0 0 0 1 1 0 0 0 #
loop $-1 $-1 $491 $267 #
coedge $-1 $492 $493 $428 $494 0 $345 $-1 #
face $-1 $495 $496 $2 $-1 $497 forward single #
loop $-1 $-1 $498 $347 #
plane-surface $-1 -35 0 25 1 0 0 0 0 -1 0 #
coedge $-1 $499 $500 $501 $502 1 $348 $-1 #
coedge $-1 $503 $349 $423 $494 1 $272 $-1 #
coedge $-1 $349 $503 $504 $505 1 $272 $-1 #
coedge $-1 $506 $507 $349 $431 0 $45 $-1 #
edge $-1 $508 $509 $430 $510 0 #
point $-1 50 -86.6025403784439 75 #
coedge $-1 $355 $506 $511 $512 0 $45 $-1 #
coedge $-1 $513 $514 $355 $435 1 $515 $-1 #
edge $-1 $516 $437 $355 $517 0 #
coedge $-1 $438 $356 $514 $518 1 $359 $-1 #
vertex $-1 $357 $519 #
coedge $-1 $358 $436 $411 $483 0 $359 $-1 #
point $-1 0 100 0 #
vertex $-1 $363 $520 #
straight-curve $-1 25 0 0 0 -1 0 #
point $-1 25 28.0848713723243 15 #
coedge $-1 $521 $367 $522 $523 0 $45 $-1 #
coedge $-1 $524 $522 $367 $445 1 $420 $-1 #
edge $-1 $447 $525 $367 $526 0 #
coedge $-1 $368 $470 $524 $527 0 $320 $-1 #
vertex $-1 $445 $528 #
point $-1 25 -96.8245836551854 15 #
straight-curve $-1 50 -86.6025403784439 0 0 0 1 #
coedge $-1 $375 $452 $374 $451 1 $453 $-1 #
edge $-1 $454 $529 $374 $455 0 #
coedge $-1 $450 $375 $380 $461 1 $453 $-1 #
loop $-1 $-1 $375 $530 #
vertex $-1 $376 $531 #
ellipse-curve $-1 0 0 -25 0 0 1 100 0 0 1 #
coedge $-1 $377 $394 $379 $460 0 $388 $-1 #
vertex $-1 $378 $532 #
ellipse-curve $-1 0 0 -75 0 0 -1 100 0 0 1 #
coedge $-1 $380 $379 $393 $466 1 $381 $-1 #
edge $-1 $467 $382 $456 $533 0 #
edge $-1 $529 $383 $380 $534 0 #
face $-1 $53 $381 $2 $-1 $535 forward single #
point $-1 -50 86.6025403784439 -75 #
point $-1 -50 86.6025403784439 -25 #
straight-curve $-1 50 86.6025403784439 0 -0 -0 -1 #
edge $-1 $529 $467 $393 $536 0 #
vertex $-1 $395 $537 #
point $-1 50 -86.6025403784439 -75 #
straight-curve $-1 50 0 -75 0 -1 0 #
coedge $-1 $446 $400 $405 $475 0 $320 $-1 #
vertex $-1 $402 $538 #
straight-curve $-1 25 0 15 0 1 -0 #
ellipse-curve $-1 0 0 15 0 0 1 37.6 0 0 1 #
coedge $-1 $405 $539 $490 $540 1 $179 $-1 #
edge $-1 $471 $541 $470 $331 0 #
face $-1 $530 $542 $2 $-1 $354 forward single #
loop $-1 $543 $544 $407 #
plane-surface $-1 -50 0 50 -1 0 0 0 0 1 0 #
coedge $-1 $545 $546 $547 $548 1 $408 $-1 #
vertex $-1 $410 $549 #
ellipse-curve $-1 50 -50 50.0000000000002 -1 -0 -0 -5.2372220082647e-14 0 -15 1 #
coedge $-1 $550 $411 $551 $552 1 $179 $-1 #
edge $-1 $553 $440 $438 $554 0 #
vertex $-1 $414 $555 #
ellipse-curve $-1 0 0 -75 -0 -0 1 37.6 0 0 1 #
loop $-1 $556 $557 $415 #
cone-surface $-1 -100 50 50 1 0 -3.49148133884313e-15 -3.49148133884313e-14 0 -10 1 0 1 0 #
loop $-1 $-1 $558 $339 #
coedge $-1 $489 $489 $559 $560 1 $416 $-1 #
coedge $-1 $561 $524 $474 $540 0 $420 $-1 #
coedge $-1 $491 $491 $557 $562 0 $422 $-1 #
coedge $-1 $563 $423 $507 $564 1 $345 $-1 #
coedge $-1 $423 $563 $565 $566 0 $345 $-1 #
edge $-1 $567 $508 $423 $568 0 #
face $-1 $569 $570 $2 $-1 $497 forward single #
loop $-1 $-1 $511 $424 #
plane-surface $-1 -30 0 15 0 0 1 1 0 0 0 #
coedge $-1 $504 $571 $506 $572 1 $425 $-1 #
coedge $-1 $573 $427 $574 $575 1 $348 $-1 #
coedge $-1 $427 $573 $576 $577 1 $348 $-1 #
coedge $-1 $578 $579 $427 $502 0 $45 $-1 #
edge $-1 $580 $581 $501 $582 0 #
coedge $-1 $429 $428 $583 $584 1 $272 $-1 #
coedge $-1 $585 $498 $429 $505 0 $425 $-1 #
edge $-1 $509 $586 $504 $587 0 #
coedge $-1 $433 $430 $498 $572 0 $45 $-1 #
coedge $-1 $430 $588 $492 $564 0 $45 $-1 #
vertex $-1 $564 $589 #
vertex $-1 $431 $590 #
ellipse-curve $-1 0 0 35 0 0 1 100 0 0 1 #
coedge $-1 $591 $592 $433 $512 1 $496 $-1 #
edge $-1 $593 $516 $433 $594 0 #
coedge $-1 $551 $434 $592 $595 0 $515 $-1 #
coedge $-1 $434 $551 $436 $518 0 $515 $-1 #
loop $-1 $-1 $513 $596 #
vertex $-1 $595 $597 #
straight-curve $-1 -25 96.8245836551854 0 -0 -0 -1 #
edge $-1 $553 $437 $514 $598 0 #
point $-1 -25 96.8245836551854 0 #
point $-1 25 28.0848713723243 0 #
coedge $-1 $599 $443 $600 $601 0 $45 $-1 #
coedge $-1 $444 $561 $443 $523 1 $420 $-1 #
edge $-1 $525 $602 $443 $526 0 #
coedge $-1 $490 $444 $446 $527 1 $420 $-1 #
vertex $-1 $445 $603 #
ellipse-curve $-1 0 0 0 -0 -0 -1 100 0 0 1 #
edge $-1 $541 $447 $446 $441 0 #
point $-1 25 -96.8245836551854 0 #
vertex $-1 $451 $604 #
face $-1 $462 $453 $2 $-1 $605 reversed single #
point $-1 -100 0 -25 #
point $-1 50 86.6025403784439 -75 #
straight-curve $-1 -50 0 -75 0 1 0 #
straight-curve $-1 -50 0 -25 0 1 0 #
plane-surface $-1 -50 0 -50 -1 0 0 0 0 1 0 #
straight-curve $-1 -50 -86.6025403784439 0 -0 -0 -1 #
point $-1 -50 -86.6025403784439 -75 #
point $-1 25 -28.0848713723243 15 #
coedge $-1 $474 $606 $607 $608 1 $179 $-1 #
edge $-1 $541 $609 $490 $610 0 #
vertex $-1 $475 $611 #
loop $-1 $-1 $612 $476 #
loop $-1 $613 $614 $407 #
coedge $-1 $544 $544 $558 $615 0 $477 $-1 #
coedge $-1 $546 $479 $616 $617 1 $408 $-1 #
coedge $-1 $479 $545 $618 $619 1 $408 $-1 #
coedge $-1 $620 $616 $479 $548 0 $45 $-1 #
edge $-1 $621 $622 $547 $623 0 #
point $-1 50 -50.0000000000001 65.0000000000002 #
coedge $-1 $624 $482 $625 $626 0 $179 $-1 #
coedge $-1 $514 $513 $482 $552 0 $515 $-1 #
edge $-1 $627 $553 $551 $628 0 #
vertex $-1 $483 $629 #
ellipse-curve $-1 0 0 0 -0 -0 -1 37.6 0 0 1 #
point $-1 -37.6 2.62559396681004e-13 -75 #
loop $-1 $-1 $630 $415 #
coedge $-1 $557 $557 $491 $562 1 $486 $-1 #
coedge $-1 $558 $558 $544 $615 1 $488 $-1 #
coedge $-1 $559 $559 $489 $560 0 $631 $-1 #
edge $-1 $632 $632 $559 $633 0 #
coedge $-1 $522 $490 $634 $635 1 $420 $-1 #
edge $-1 $636 $636 $491 $637 0 #
coedge $-1 $493 $492 $638 $639 1 $345 $-1 #
edge $-1 $640 $508 $507 $517 0 #
coedge $-1 $641 $583 $493 $566 1 $179 $-1 #
edge $-1 $642 $567 $493 $628 0 #
vertex $-1 $566 $643 #
straight-curve $-1 -25 0 35 0 1 0 #
face $-1 $644 $645 $2 $-1 $426 forward single #
loop $-1 $-1 $646 $495 #
coedge $-1 $498 $585 $591 $647 0 $425 $-1 #
edge $-1 $509 $593 $506 $648 0 #
coedge $-1 $500 $499 $649 $650 1 $348 $-1 #
coedge $-1 $651 $652 $499 $575 0 $645 $-1 #
edge $-1 $653 $580 $574 $587 0 #
coedge $-1 $654 $655 $500 $577 0 $656 $-1 #
edge $-1 $581 $657 $576 $658 0 #
coedge $-1 $659 $501 $655 $660 0 $45 $-1 #
coedge $-1 $501 $599 $651 $661 0 $45 $-1 #
vertex $-1 $502 $662 #
vertex $-1 $577 $663 #
ellipse-curve $-1 0 0 35 0 0 1 100 0 0 1 #
coedge $-1 $565 $624 $503 $584 0 $179 $-1 #
edge $-1 $586 $567 $583 $664 0 #
coedge $-1 $571 $504 $624 $665 1 $425 $-1 #
vertex $-1 $584 $666 #
straight-curve $-1 -35 0 35 0 -1 0 #
coedge $-1 $507 $620 $667 $668 1 $45 $-1 #
point $-1 -25 96.8245836551854 35 #
point $-1 -35 93.674969975976 35 #
coedge $-1 $625 $511 $571 $647 1 $496 $-1 #
coedge $-1 $511 $625 $513 $595 1 $496 $-1 #
vertex $-1 $512 $669 #
ellipse-curve $-1 0 0 15 -0 -0 -1 100 0 0 1 #
edge $-1 $516 $627 $513 $670 0 #
face $-1 $260 $515 $2 $-1 $346 forward single #
point $-1 -25 96.8245836551854 15 #
straight-curve $-1 -25 0 0 0 1 0 #
coedge $-1 $579 $521 $646 $671 0 $45 $-1 #
coedge $-1 $634 $672 $521 $601 1 $673 $-1 #
edge $-1 $602 $674 $521 $675 0 #
vertex $-1 $523 $676 #
point $-1 0 -100 0 #
point $-1 -50 -86.6025403784439 -25 #
plane-surface $-1 -75 0 -25 0 0 1 1 0 0 0 #
coedge $-1 $539 $677 $678 $679 0 $179 $-1 #
coedge $-1 $672 $634 $539 $608 0 $673 $-1 #
edge $-1 $609 $680 $607 $681 0 #
vertex $-1 $635 $682 #
ellipse-curve $-1 0 0 0 -0 -0 -1 37.6 0 0 1 #
point $-1 25 -28.0848713723243 0 #
coedge $-1 $638 $683 $641 $684 0 $542 $-1 #
loop $-1 $-1 $685 $407 #
coedge $-1 $614 $614 $630 $686 0 $543 $-1 #
edge $-1 $687 $687 $544 $688 0 #
coedge $-1 $547 $689 $545 $617 0 $45 $-1 #
edge $-1 $690 $621 $616 $623 0 #
coedge $-1 $691 $685 $546 $619 0 $613 $-1 #
edge $-1 $622 $690 $618 $692 0 #
coedge $-1 $588 $547 $685 $693 0 $45 $-1 #
vertex $-1 $617 $694 #
vertex $-1 $548 $695 #
ellipse-curve $-1 0 0 25 -0 -0 -1 100 0 0 1 #
coedge $-1 $583 $550 $585 $665 0 $179 $-1 #
coedge $-1 $592 $591 $550 $626 1 $496 $-1 #
edge $-1 $627 $696 $550 $697 0 #
vertex $-1 $626 $698 #
straight-curve $-1 -25 28.0848713723243 0 -0 -0 -1 #
point $-1 -25 28.0848713723243 0 #
coedge $-1 $630 $630 $614 $686 1 $556 $-1 #
loop $-1 $-1 $559 $699 #
vertex $-1 $560 $700 #
ellipse-curve $-1 -25 -50 49.9999999999997 -1 -0 -0 -3.49148133884313e-14 0 -10 1 #
coedge $-1 $607 $600 $561 $635 0 $673 $-1 #
edge $-1 $602 $609 $634 $598 0 #
vertex $-1 $562 $701 #
ellipse-curve $-1 -25 50 49.9999999999997 -1 -0 -0 -3.49148133884313e-14 0 -10 1 #
coedge $-1 $667 $612 $563 $639 0 $542 $-1 #
edge $-1 $642 $640 $638 $702 0 #
vertex $-1 $639 $703 #
coedge $-1 $704 $565 $612 $684 1 $179 $-1 #
vertex $-1 $684 $705 #
point $-1 -25 28.0848713723243 35 #
face $-1 $699 $673 $2 $-1 $346 forward single #
loop $-1 $-1 $651 $569 #
coedge $-1 $706 $707 $599 $671 1 $570 $-1 #
edge $-1 $696 $593 $571 $708 0 #
straight-curve $-1 -35 93.674969975976 0 -0 -0 -1 #
coedge $-1 $677 $704 $573 $650 0 $179 $-1 #
edge $-1 $657 $653 $649 $709 0 #
coedge $-1 $710 $574 $579 $661 1 $645 $-1 #
coedge $-1 $574 $710 $677 $711 1 $645 $-1 #
vertex $-1 $650 $712 #
coedge $-1 $713 $576 $704 $714 0 $656 $-1 #
coedge $-1 $576 $713 $578 $660 1 $656 $-1 #
loop $-1 $631 $576 $699 #
vertex $-1 $650 $715 #
straight-curve $-1 -25 0 35 0 1 0 #
coedge $-1 $689 $578 $716 $717 1 $45 $-1 #
edge $-1 $581 $718 $578 $675 0 #
edge $-1 $719 $580 $579 $720 0 #
point $-1 -35 -93.674969975976 35 #
point $-1 -25 -96.8245836551854 35 #
ellipse-curve $-1 0 0 35 -0 -0 -1 37.6 0 0 1 #
edge $-1 $696 $586 $624 $721 0 #
point $-1 -35 13.7389955964765 35 #
coedge $-1 $722 $638 $588 $668 0 $542 $-1 #
edge $-1 $640 $723 $667 $200 0 #
point $-1 -35 93.674969975976 15 #
straight-curve $-1 -25 0 15 0 -1 0 #
edge $-1 $674 $719 $599 $724 0 #
coedge $-1 $600 $607 $706 $725 0 $673 $-1 #
loop $-1 $-1 $672 $644 #
vertex $-1 $601 $726 #
straight-curve $-1 -25 -96.8245836551854 0 0 0 1 #
point $-1 -25 -96.8245836551854 0 #
coedge $-1 $606 $649 $652 $711 0 $179 $-1 #
coedge $-1 $707 $706 $606 $679 1 $570 $-1 #
edge $-1 $727 $680 $606 $728 0 #
vertex $-1 $608 $729 #
straight-curve $-1 -25 -28.0848713723243 0 0 0 1 #
point $-1 -25 -28.0848713723243 0 #
coedge $-1 $612 $716 $713 $730 0 $542 $-1 #
edge $-1 $731 $642 $612 $732 0 #
coedge $-1 $618 $733 $620 $693 1 $613 $-1 #
edge $-1 $734 $734 $614 $735 0 #
vertex $-1 $615 $736 #
ellipse-curve $-1 -50 -50 49.9999999999998 1 -0 -0 -3.49148133884313e-14 0 -10 1 #
coedge $-1 $616 $659 $691 $737 0 $45 $-1 #
vertex $-1 $617 $738 #
coedge $-1 $733 $618 $689 $737 1 $613 $-1 #
straight-curve $-1 -50 0 25 0 -1 0 #
edge $-1 $622 $723 $620 $739 0 #
point $-1 -100 0 25 #
point $-1 -50 86.6025403784439 25 #
vertex $-1 $626 $740 #
ellipse-curve $-1 0 0 15 0 0 1 37.6 0 0 1 #
point $-1 -25 28.0848713723243 15 #
face $-1 $596 $656 $2 $-1 $346 forward single #
point $-1 -24.9999999999999 -50.0000000000001 59.9999999999997 #
point $-1 -24.9999999999999 49.9999999999999 59.9999999999997 #
straight-curve $-1 -25 0 75 0 1 0 #
point $-1 -25 96.8245836551854 75 #
coedge $-1 $649 $641 $654 $714 1 $179 $-1 #
point $-1 -25 28.0848713723243 75 #
coedge $-1 $678 $646 $672 $725 1 $570 $-1 #
coedge $-1 $646 $678 $710 $741 1 $570 $-1 #
straight-curve $-1 -35 0 15 0 1 0 #
ellipse-curve $-1 0 0 35 -0 -0 -1 37.6 0 0 1 #
coedge $-1 $652 $651 $707 $741 0 $645 $-1 #
edge $-1 $653 $727 $677 $742 0 #
point $-1 -35 -13.7389955964765 35 #
coedge $-1 $655 $654 $683 $730 1 $656 $-1 #
edge $-1 $657 $731 $654 $681 0 #
point $-1 -25 -28.0848713723243 35 #
coedge $-1 $683 $722 $659 $717 0 $542 $-1 #
edge $-1 $743 $718 $716 $200 0 #
vertex $-1 $717 $744 #
vertex $-1 $671 $745 #
straight-curve $-1 -35 -93.674969975976 0 0 0 1 #
straight-curve $-1 -35 13.7389955964765 0 -0 0 1 #
coedge $-1 $716 $667 $733 $746 0 $542 $-1 #
vertex $-1 $668 $747 #
ellipse-curve $-1 0 0 15 -0 -0 -1 100 0 0 1 #
edge $-1 $680 $674 $672 $748 0 #
point $-1 -25 -96.8245836551854 15 #
vertex $-1 $679 $749 #
ellipse-curve $-1 0 0 15 0 0 1 37.6 0 0 1 #
point $-1 -25 -28.0848713723243 15 #
edge $-1 $718 $731 $683 $702 0 #
vertex $-1 $730 $750 #
ellipse-curve $-1 0 0 75 -0 -0 -1 37.6 0 0 1 #
coedge $-1 $685 $691 $722 $746 1 $613 $-1 #
vertex $-1 $686 $751 #
ellipse-curve $-1 -50 50 49.9999999999998 1 -0 -0 -3.49148133884313e-14 0 -10 1 #
point $-1 -50 -49.9999999999999 59.9999999999998 #
edge $-1 $743 $690 $689 $752 0 #
point $-1 -50 -86.6025403784439 25 #
straight-curve $-1 -50 86.6025403784439 0 0 0 1 #
point $-1 -35 13.7389955964765 15 #
edge $-1 $719 $727 $710 $708 0 #
straight-curve $-1 -35 -13.7389955964765 0 0 0 -1 #
vertex $-1 $737 $753 #
point $-1 -25 -96.8245836551854 75 #
point $-1 -35 -93.674969975976 15 #
edge $-1 $723 $743 $722 $754 0 #
point $-1 -50 86.6025403784439 75 #
straight-curve $-1 -25 0 15 0 -1 0 #
point $-1 -35 -13.7389955964765 15 #
point $-1 -25 -28.0848713723243 75 #
point $-1 -50 50.0000000000001 59.9999999999998 #
straight-curve $-1 -50 -86.6025403784439 0 -0 -0 -1 #
point $-1 -50 -86.6025403784439 75 #
straight-curve $-1 -50 0 75 0 -1 0 #
