600 0 1 0           
91 GICL ACIS Healer - Source: /gicl/data5/repository/UMD/good-coupling/good-coupling.sat - 6 0 18 ACIS 6.0.3 Solaris 24 Sun Apr 14 00:34:32 2002 
1 9.999999999999999547e-07 1.000000000000000036e-10 
body $-1 $1 $-1 $-1 #
lump $-1 $-1 $2 $0 #
shell $-1 $-1 $-1 $3 $-1 $1 #
face $-1 $4 $5 $2 $-1 $6 reversed single #
face $-1 $7 $8 $2 $-1 $9 reversed single #
loop $-1 $10 $11 $3 #
cone-surface $-1 75 0 0 0 0 1 10 0 0 1 I I 0 1 10 forward I I I I #
face $-1 $12 $13 $2 $-1 $9 reversed single #
loop $-1 $-1 $14 $4 #
plane-surface $-1 30 0 35 0 0 1 1 0 0 forward_v I I I I #
loop $-1 $-1 $15 $3 #
coedge $-1 $11 $11 $16 $17 reversed $5 $-1 #
face $-1 $18 $19 $2 $-1 $9 reversed single #
loop $-1 $-1 $20 $7 #
coedge $-1 $21 $22 $23 $24 reversed $8 $-1 #
coedge $-1 $15 $15 $25 $26 reversed $10 $-1 #
coedge $-1 $16 $16 $11 $17 forward $27 $-1 #
edge $-1 $28 -3.141592653589799777 $28 3.141592653589786455 $16 $29 forward 7 unknown #
face $-1 $30 $31 $2 $-1 $32 forward single #
loop $-1 $-1 $33 $12 #
coedge $-1 $34 $35 $36 $37 reversed $13 $-1 #
coedge $-1 $38 $14 $39 $40 reversed $8 $-1 #
coedge $-1 $14 $38 $41 $42 reversed $8 $-1 #
coedge $-1 $43 $44 $14 $24 forward $45 $-1 #
edge $-1 $46 1.213225223149386522 $47 1.318116071652817967 $23 $48 forward 7 unknown #
coedge $-1 $25 $25 $15 $26 forward $49 $-1 #
edge $-1 $50 -3.141592653589799777 $50 3.141592653589786455 $25 $51 forward 7 unknown #
loop $-1 $52 $16 $53 #
vertex $-1 $17 $54 #
ellipse-curve $-1 75 0 -25 0 0 1 10 0 0 1 I I #
face $-1 $55 $56 $2 $-1 $32 forward single #
loop $-1 $-1 $57 $18 #
plane-surface $-1 35 0 25 -1 0 0 0 0 1 forward_v I I I I #
coedge $-1 $58 $59 $60 $61 forward $19 $-1 #
coedge $-1 $62 $20 $63 $64 reversed $13 $-1 #
coedge $-1 $20 $62 $65 $66 reversed $13 $-1 #
coedge $-1 $67 $68 $68 $37 forward $69 $-1 #
edge $-1 $70 64.99999999999990052 $71 74.99999999999990052 $68 $72 forward 7 unknown #
coedge $-1 $22 $21 $20 $37 forward $8 $-1 #
coedge $-1 $57 $63 $21 $40 forward $31 $-1 #
edge $-1 $70 50 $46 93.67496997597599773 $39 $73 forward 7 unknown #
coedge $-1 $74 $75 $22 $42 forward $76 $-1 #
edge $-1 $47 -96.82458365518540688 $71 -50 $41 $77 forward 7 unknown #
coedge $-1 $78 $23 $75 $79 forward $45 $-1 #
coedge $-1 $23 $80 $57 $81 forward $45 $-1 #
loop $-1 $-1 $82 $83 #
vertex $-1 $24 $84 #
vertex $-1 $42 $85 #
ellipse-curve $-1 0 0 35 0 0 1 100 0 0 1 I I #
loop $-1 $86 $25 $87 #
vertex $-1 $26 $88 #
ellipse-curve $-1 75 0 25 -0 -0 -1 10 0 0 1 I I #
loop $-1 $-1 $89 $53 #
face $-1 $90 $27 $2 $-1 $91 reversed single #
point $-1 65 6.982962677686270497e-14 -25 #
face $-1 $92 $93 $2 $-1 $94 forward single #
loop $-1 $-1 $95 $30 #
coedge $-1 $96 $39 $44 $81 reversed $31 $-1 #
coedge $-1 $97 $33 $98 $99 reversed $19 $-1 #
coedge $-1 $33 $97 $100 $101 reversed $19 $-1 #
coedge $-1 $102 $103 $104 $61 reversed $105 $-1 #
edge $-1 $106 64.99999999999990052 $107 74.99999999999990052 $108 $109 forward 7 unknown #
coedge $-1 $35 $34 $110 $111 reversed $13 $-1 #
coedge $-1 $39 $112 $34 $64 forward $31 $-1 #
edge $-1 $113 13.73899559647649937 $70 50 $63 $73 forward 7 unknown #
coedge $-1 $114 $115 $35 $66 forward $76 $-1 #
edge $-1 $71 -50 $116 -28.08487137232430086 $65 $77 forward 7 unknown #
coedge $-1 $117 $36 $115 $118 reversed $69 $-1 #
coedge $-1 $36 $117 $38 $37 reversed $69 $-1 #
loop $-1 $119 $67 $120 #
vertex $-1 $37 $121 #
vertex $-1 $118 $122 #
straight-curve $-1 99.99999999999990052 50 35 -1 -0 3.491481338843129805e-15 I I #
straight-curve $-1 35 0 35 0 1 0 I I #
coedge $-1 $115 $41 $117 $123 forward $76 $-1 #
coedge $-1 $41 $124 $43 $79 reversed $76 $-1 #
loop $-1 $-1 $41 $125 #
straight-curve $-1 25 0 35 0 -1 0 I I #
coedge $-1 $126 $43 $127 $128 reversed $45 $-1 #
edge $-1 $47 35 $129 75 $43 $130 forward 7 unknown #
coedge $-1 $44 $131 $132 $133 forward $45 $-1 #
edge $-1 $134 15 $46 35 $44 $135 forward 7 unknown #
coedge $-1 $136 $137 $138 $139 forward $45 $-1 #
face $-1 $140 $141 $2 $-1 $142 forward single #
point $-1 35 93.67496997597599773 35 #
point $-1 25 96.82458365518540688 35 #
loop $-1 $-1 $143 $87 #
face $-1 $144 $49 $2 $-1 $145 forward single #
point $-1 65 -6.982962677686270497e-14 25 #
coedge $-1 $146 $147 $148 $149 reversed $52 $-1 #
face $-1 $87 $150 $2 $-1 $151 forward single #
plane-surface $-1 75 0 -25 0 0 1 1 0 0 forward_v I I I I #
face $-1 $152 $153 $2 $-1 $94 forward single #
loop $-1 $-1 $132 $55 #
plane-surface $-1 30 0 15 0 0 1 1 0 0 forward_v I I I I #
coedge $-1 $154 $155 $136 $156 reversed $56 $-1 #
coedge $-1 $112 $57 $157 $158 forward $31 $-1 #
coedge $-1 $59 $58 $159 $160 reversed $19 $-1 #
coedge $-1 $161 $162 $58 $99 forward $163 $-1 #
edge $-1 $164 28.08487137232430086 $107 50 $98 $165 forward 7 unknown #
coedge $-1 $166 $154 $59 $101 forward $56 $-1 #
edge $-1 $106 -50 $167 -13.73899559647649937 $100 $73 forward 7 unknown #
coedge $-1 $138 $60 $154 $168 reversed $105 $-1 #
coedge $-1 $60 $138 $169 $170 reversed $105 $-1 #
coedge $-1 $171 $108 $108 $61 forward $172 $-1 #
loop $-1 $-1 $138 $152 #
vertex $-1 $61 $173 #
vertex $-1 $174 $175 #
coedge $-1 $104 $176 $33 $61 reversed $172 $-1 #
straight-curve $-1 99.99999999999990052 -50 35 -1 -0 3.491481338843129805e-15 I I #
coedge $-1 $177 $178 $62 $111 forward $179 $-1 #
edge $-1 $116 -0.8434449432577599826 $113 -0.3740612126793767533 $110 $180 forward 7 unknown #
coedge $-1 $63 $96 $177 $181 reversed $31 $-1 #
vertex $-1 $111 $182 #
coedge $-1 $124 $65 $178 $183 forward $76 $-1 #
coedge $-1 $65 $74 $67 $118 forward $76 $-1 #
vertex $-1 $111 $184 #
coedge $-1 $68 $67 $74 $123 reversed $69 $-1 #
edge $-1 $185 -3.141592653589799777 $71 0 $115 $186 forward 7 unknown #
loop $-1 $-1 $187 $120 #
face $-1 $188 $69 $2 $-1 $189 reversed single #
point $-1 35 50 35 #
point $-1 25 50 35 #
edge $-1 $71 0 $185 3.141592653589786455 $74 $186 forward 7 unknown #
coedge $-1 $75 $114 $190 $191 reversed $76 $-1 #
face $-1 $192 $76 $2 $-1 $193 forward single #
coedge $-1 $194 $78 $195 $196 forward $45 $-1 #
coedge $-1 $190 $197 $78 $128 forward $198 $-1 #
edge $-1 $199 1.047197551196597853 $129 1.318116071652817967 $127 $200 forward 7 unknown #
vertex $-1 $128 $201 #
straight-curve $-1 25 96.82458365518540688 0 0 0 1 I I #
coedge $-1 $80 $202 $203 $204 forward $45 $-1 #
coedge $-1 $205 $157 $80 $133 reversed $93 $-1 #
edge $-1 $206 -1.318116071652817967 $134 -1.213225223149386522 $80 $207 forward 7 unknown #
vertex $-1 $133 $208 #
straight-curve $-1 35 93.67496997597599773 0 0 0 1 I I #
coedge $-1 $209 $82 $95 $156 forward $45 $-1 #
coedge $-1 $82 $210 $211 $212 forward $45 $-1 #
coedge $-1 $103 $102 $82 $139 reversed $105 $-1 #
edge $-1 $213 -1.318116071652817967 $214 -1.213225223149386522 $82 $215 forward 7 unknown #
face $-1 $125 $216 $2 $-1 $193 forward single #
loop $-1 $45 $217 $83 #
cone-surface $-1 0 0 0 0 0 1 100 0 0 1 I I 0 1 100 forward I I I I #
coedge $-1 $218 $219 $220 $221 reversed $86 $-1 #
face $-1 $222 $223 $2 $-1 $224 forward single #
plane-surface $-1 75 0 25 0 0 1 1 0 0 forward_v I I I I #
coedge $-1 $147 $89 $225 $226 reversed $52 $-1 #
coedge $-1 $89 $146 $227 $228 reversed $52 $-1 #
coedge $-1 $227 $229 $89 $149 forward $141 $-1 #
edge $-1 $230 -1.047197551196597853 $231 0 $148 $232 forward 7 unknown #
loop $-1 $-1 $233 $90 #
plane-surface $-1 50 0 -50 1 0 0 0 0 -1 forward_v I I I I #
face $-1 $234 $105 $2 $-1 $9 reversed single #
loop $-1 $-1 $235 $92 #
coedge $-1 $100 $95 $102 $168 forward $56 $-1 #
coedge $-1 $95 $166 $236 $237 forward $56 $-1 #
edge $-1 $214 -35 $238 -15 $136 $239 forward 7 unknown #
coedge $-1 $132 $240 $96 $158 reversed $93 $-1 #
edge $-1 $134 -93.67496997597599773 $241 -13.73899559647649937 $96 $242 forward 7 unknown #
coedge $-1 $243 $244 $97 $160 forward $179 $-1 #
edge $-1 $167 0.3740612126793767533 $164 0.8434449432577599826 $159 $245 forward 7 unknown #
coedge $-1 $246 $98 $176 $247 forward $163 $-1 #
coedge $-1 $98 $248 $243 $249 forward $163 $-1 #
loop $-1 $-1 $169 $250 #
vertex $-1 $249 $251 #
straight-curve $-1 25 0 35 0 -1 0 I I #
coedge $-1 $155 $100 $244 $252 reversed $56 $-1 #
vertex $-1 $160 $253 #
edge $-1 $214 -93.67496997597599773 $106 -50 $154 $73 forward 7 unknown #
coedge $-1 $211 $246 $103 $170 forward $163 $-1 #
edge $-1 $107 50 $213 96.82458365518540688 $169 $165 forward 7 unknown #
coedge $-1 $176 $104 $246 $174 reversed $172 $-1 #
loop $-1 $254 $171 $188 #
point $-1 35 -50 35 #
edge $-1 $255 -3.141592653589799777 $107 0 $246 $256 forward 7 unknown #
point $-1 25 -50 35 #
coedge $-1 $108 $171 $161 $247 reversed $172 $-1 #
coedge $-1 $257 $110 $112 $181 forward $179 $-1 #
coedge $-1 $110 $258 $114 $183 reversed $179 $-1 #
loop $-1 $259 $159 $260 #
ellipse-curve $-1 0 0 35 -0 -0 -1 37.60000000000000142 0 0 1 I I #
edge $-1 $113 -35 $241 -15 $177 $261 forward 7 unknown #
point $-1 35 13.73899559647649937 35 #
edge $-1 $116 35 $262 75 $114 $263 forward 7 unknown #
point $-1 25 28.08487137232430086 35 #
vertex $-1 $123 $264 #
ellipse-curve $-1 25 50 50.00000000000029843 1 -0 -0 -5.237222008264700033e-14 0 -15 1 I I #
coedge $-1 $187 $187 $265 $266 reversed $119 $-1 #
face $-1 $267 $172 $2 $-1 $268 reversed single #
cone-surface $-1 100 50 50 1 0 -3.491481338843129805e-15 -5.237222008264700033e-14 0 -15 1 I I 0 1 15 forward I I I I #
coedge $-1 $269 $127 $124 $191 forward $198 $-1 #
edge $-1 $129 -96.82458365518540688 $262 -28.08487137232430086 $190 $270 forward 7 unknown #
face $-1 $271 $272 $2 $-1 $273 reversed single #
plane-surface $-1 25 0 37.5 -1 0 0 0 0 1 forward_v I I I I #
coedge $-1 $220 $126 $218 $274 forward $45 $-1 #
coedge $-1 $275 $276 $126 $196 reversed $277 $-1 #
edge $-1 $199 -75 $278 -25 $126 $279 forward 7 unknown #
coedge $-1 $127 $280 $275 $281 forward $198 $-1 #
loop $-1 $-1 $269 $282 #
vertex $-1 $196 $283 #
ellipse-curve $-1 0 0 75 0 0 1 100 0 0 1 I I #
point $-1 25 96.82458365518540688 75 #
coedge $-1 $131 $284 $285 $286 forward $45 $-1 #
coedge $-1 $287 $288 $131 $204 reversed $216 $-1 #
edge $-1 $289 0 $206 15 $131 $130 forward 7 unknown #
coedge $-1 $240 $132 $288 $290 reversed $93 $-1 #
vertex $-1 $204 $291 #
ellipse-curve $-1 0 0 15 -0 -0 -1 100 0 0 1 I I #
point $-1 35 93.67496997597599773 15 #
coedge $-1 $292 $136 $235 $293 forward $45 $-1 #
coedge $-1 $137 $294 $280 $295 reversed $45 $-1 #
coedge $-1 $248 $169 $137 $212 reversed $163 $-1 #
edge $-1 $296 -75 $213 -35 $137 $297 forward 7 unknown #
vertex $-1 $212 $298 #
vertex $-1 $139 $299 #
ellipse-curve $-1 0 0 35 0 0 1 100 0 0 1 I I #
loop $-1 $-1 $288 $140 #
coedge $-1 $300 $301 $302 $303 forward $141 $-1 #
coedge $-1 $219 $143 $194 $274 reversed $86 $-1 #
coedge $-1 $143 $218 $276 $304 reversed $86 $-1 #
coedge $-1 $294 $194 $143 $221 forward $45 $-1 #
edge $-1 $305 0 $306 1.047197551196597853 $220 $307 forward 7 unknown #
face $-1 $-1 $308 $2 $-1 $309 forward single #
loop $-1 $310 $265 $144 #
plane-surface $-1 50 0 50 1 0 0 0 0 -1 forward_v I I I I #
coedge $-1 $233 $311 $146 $226 forward $150 $-1 #
edge $-1 $312 -86.60254037844390496 $230 86.60254037844390496 $225 $313 forward 7 unknown #
coedge $-1 $314 $148 $147 $228 forward $141 $-1 #
edge $-1 $231 0 $312 1.047197551196597853 $227 $232 forward 7 unknown #
coedge $-1 $148 $315 $233 $316 forward $141 $-1 #
vertex $-1 $149 $317 #
vertex $-1 $149 $318 #
ellipse-curve $-1 0 0 -25 0 0 1 100 0 0 1 I I #
coedge $-1 $319 $225 $229 $316 reversed $150 $-1 #
face $-1 $83 $320 $2 $-1 $193 forward single #
coedge $-1 $236 $321 $209 $293 reversed $153 $-1 #
coedge $-1 $322 $235 $155 $237 reversed $153 $-1 #
edge $-1 $323 13.73899559647649937 $238 93.67496997597599773 $155 $242 forward 7 unknown #
vertex $-1 $293 $324 #
straight-curve $-1 35 -93.67496997597599773 0 -0 -0 -1 I I #
coedge $-1 $157 $205 $257 $325 reversed $93 $-1 #
vertex $-1 $325 $326 #
straight-curve $-1 35 0 15 0 -1 0 I I #
coedge $-1 $258 $159 $162 $249 reversed $179 $-1 #
coedge $-1 $159 $327 $166 $252 forward $179 $-1 #
ellipse-curve $-1 0 0 35 -0 -0 -1 37.60000000000000142 0 0 1 I I #
coedge $-1 $169 $161 $171 $174 forward $163 $-1 #
edge $-1 $107 0 $255 3.141592653589786455 $161 $256 forward 7 unknown #
coedge $-1 $162 $211 $328 $329 reversed $163 $-1 #
edge $-1 $330 -75 $164 -35 $162 $331 forward 7 unknown #
face $-1 $332 $163 $2 $-1 $193 forward single #
point $-1 25 -28.08487137232430086 35 #
edge $-1 $323 15 $167 35 $244 $333 forward 7 unknown #
point $-1 35 -13.73899559647649937 35 #
loop $-1 $-1 $334 $188 #
vertex $-1 $247 $335 #
ellipse-curve $-1 25 -50 50.00000000000029843 1 -0 -0 -5.237222008264700033e-14 0 -15 1 I I #
coedge $-1 $336 $177 $240 $325 forward $179 $-1 #
coedge $-1 $178 $243 $269 $337 reversed $179 $-1 #
loop $-1 $-1 $338 $260 #
face $-1 $339 $179 $2 $-1 $340 reversed single #
straight-curve $-1 35 13.73899559647649937 0 -0 -0 -1 I I #
vertex $-1 $191 $341 #
straight-curve $-1 25 28.08487137232430086 0 0 0 1 I I #
point $-1 25.00000000000009948 50.00000000000009948 65.00000000000029843 #
coedge $-1 $265 $265 $187 $266 forward $223 $-1 #
edge $-1 $342 -3.141592653589799777 $342 3.141592653589786455 $265 $343 forward 7 unknown #
face $-1 $344 $345 $2 $-1 $346 forward single #
cone-surface $-1 100 -50 50 1 0 -3.491481338843129805e-15 -5.237222008264700033e-14 0 -15 1 I I 0 1 15 forward I I I I #
coedge $-1 $328 $190 $258 $337 forward $198 $-1 #
straight-curve $-1 25 0 75 0 -1 0 I I #
face $-1 $347 $348 $2 $-1 $273 reversed single #
loop $-1 $-1 $349 $192 #
plane-surface $-1 -30 0 35 0 0 1 1 0 0 forward_v I I I I #
edge $-1 $278 -1.047197551196597853 $305 0 $194 $307 forward 7 unknown #
coedge $-1 $350 $195 $197 $281 reversed $277 $-1 #
coedge $-1 $195 $350 $219 $304 forward $277 $-1 #
loop $-1 $-1 $350 $144 #
vertex $-1 $274 $351 #
straight-curve $-1 50 86.60254037844390496 0 -0 -0 -1 I I #
coedge $-1 $197 $328 $210 $295 forward $198 $-1 #
edge $-1 $352 -86.60254037844390496 $199 86.60254037844390496 $197 $353 forward 7 unknown #
face $-1 $250 $198 $2 $-1 $354 forward single #
point $-1 50 86.60254037844390496 75 #
coedge $-1 $202 $355 $356 $357 forward $45 $-1 #
coedge $-1 $356 $358 $202 $286 reversed $359 $-1 #
edge $-1 $360 -1.570796326794896558 $289 -1.318116071652817967 $202 $361 forward 7 unknown #
coedge $-1 $362 $203 $358 $363 forward $216 $-1 #
coedge $-1 $203 $362 $205 $290 forward $216 $-1 #
vertex $-1 $286 $364 #
edge $-1 $365 28.08487137232430086 $206 96.82458365518540688 $288 $366 forward 7 unknown #
point $-1 25 96.82458365518540688 15 #
coedge $-1 $367 $209 $368 $369 forward $45 $-1 #
edge $-1 $238 1.213225223149386522 $370 1.318116071652817967 $209 $371 forward 7 unknown #
coedge $-1 $210 $220 $350 $372 forward $45 $-1 #
edge $-1 $296 -1.318116071652817967 $352 -1.047197551196597853 $280 $200 forward 7 unknown #
vertex $-1 $212 $373 #
straight-curve $-1 25 -96.82458365518540688 0 -0 -0 -1 I I #
point $-1 25 -96.82458365518540688 35 #
point $-1 35 -93.67496997597599773 35 #
coedge $-1 $374 $217 $375 $376 forward $141 $-1 #
coedge $-1 $217 $314 $377 $378 reversed $141 $-1 #
coedge $-1 $379 $380 $217 $303 reversed $381 $-1 #
edge $-1 $382 -75 $383 -25 $217 $384 forward 7 unknown #
edge $-1 $306 -86.60254037844390496 $278 86.60254037844390496 $276 $385 forward 7 unknown #
vertex $-1 $274 $386 #
vertex $-1 $221 $387 #
ellipse-curve $-1 0 0 25 -0 -0 -1 100 0 0 1 I I #
loop $-1 $388 $389 $222 #
plane-surface $-1 0 0 -75 0 0 -1 -1 0 0 forward_v I I I I #
loop $-1 $277 $390 $144 #
coedge $-1 $225 $319 $314 $391 reversed $150 $-1 #
vertex $-1 $228 $392 #
straight-curve $-1 50 0 -25 0 -1 0 I I #
coedge $-1 $301 $227 $311 $391 forward $141 $-1 #
coedge $-1 $229 $393 $394 $395 reversed $141 $-1 #
edge $-1 $396 -75 $230 -25 $229 $397 forward 7 unknown #
point $-1 50 -86.60254037844390496 -25 #
point $-1 100 0 -25 #
coedge $-1 $311 $233 $398 $399 reversed $150 $-1 #
loop $-1 $-1 $400 $234 #
coedge $-1 $235 $322 $400 $401 reversed $153 $-1 #
coedge $-1 $321 $236 $327 $402 reversed $153 $-1 #
vertex $-1 $402 $403 #
point $-1 35 -93.67496997597599773 15 #
edge $-1 $241 0.3740612126793767533 $365 0.8434449432577599826 $257 $404 forward 7 unknown #
point $-1 35 13.73899559647649937 15 #
coedge $-1 $244 $405 $322 $402 forward $179 $-1 #
coedge $-1 $280 $269 $248 $329 forward $198 $-1 #
edge $-1 $330 28.08487137232430086 $296 96.82458365518540688 $328 $270 forward 7 unknown #
vertex $-1 $249 $406 #
straight-curve $-1 25 -28.08487137232430086 0 -0 -0 -1 I I #
face $-1 $407 $408 $2 $-1 $409 forward single #
straight-curve $-1 35 -13.73899559647649937 0 0 -0 1 I I #
coedge $-1 $334 $334 $390 $410 reversed $254 $-1 #
point $-1 25.00000000000009948 -49.99999999999990052 65.00000000000029843 #
coedge $-1 $411 $257 $362 $412 reversed $179 $-1 #
edge $-1 $262 -0.8434449432577599826 $330 0.8434449432577599826 $269 $413 forward 7 unknown #
coedge $-1 $338 $338 $389 $414 reversed $259 $-1 #
face $-1 $415 $416 $2 $-1 $417 reversed single #
cone-surface $-1 0 0 0 0 0 1 37.60000000000000142 0 0 1 I I 0 1 37.60000000000000142 forward I I I I #
point $-1 25 28.08487137232430086 75 #
vertex $-1 $266 $418 #
ellipse-curve $-1 50 50 50.00000000000019895 -1 -0 -0 -5.237222008264700033e-14 0 -15 1 I I #
face $-1 $419 $420 $2 $-1 $421 forward single #
loop $-1 $422 $423 $267 #
plane-surface $-1 -25 0 37.5 1 0 0 0 0 -1 forward_v I I I I #
face $-1 $424 $425 $2 $-1 $426 forward single #
loop $-1 $-1 $427 $271 #
coedge $-1 $428 $429 $430 $431 reversed $272 $-1 #
coedge $-1 $276 $275 $294 $372 reversed $277 $-1 #
point $-1 50 86.60254037844390496 25 #
vertex $-1 $295 $432 #
straight-curve $-1 50 0 75 0 1 0 I I #
plane-surface $-1 0 0 75 0 0 1 1 0 0 forward_v I I I I #
coedge $-1 $284 $433 $434 $435 forward $45 $-1 #
coedge $-1 $436 $285 $284 $357 reversed $359 $-1 #
edge $-1 $437 -1.823476581936975371 $360 -1.570796326794896558 $284 $361 forward 7 unknown #
coedge $-1 $285 $438 $287 $363 reversed $359 $-1 #
loop $-1 $-1 $438 $419 #
vertex $-1 $357 $439 #
ellipse-curve $-1 0 0 0 -0 -0 -1 100 0 0 1 I I #
coedge $-1 $288 $287 $336 $412 forward $216 $-1 #
edge $-1 $289 -96.82458365518540688 $440 -28.08487137232430086 $287 $441 forward 7 unknown #
point $-1 25 96.82458365518540688 0 #
vertex $-1 $412 $442 #
straight-curve $-1 25 0 15 0 1 -0 I I #
coedge $-1 $443 $292 $444 $445 forward $45 $-1 #
coedge $-1 $400 $446 $292 $369 reversed $320 $-1 #
edge $-1 $370 -15 $447 -0 $292 $297 forward 7 unknown #
vertex $-1 $401 $448 #
ellipse-curve $-1 0 0 15 -0 -0 -1 100 0 0 1 I I #
edge $-1 $306 25 $352 75 $294 $449 forward 7 unknown #
point $-1 25 -96.82458365518540688 75 #
coedge $-1 $393 $300 $450 $451 forward $141 $-1 #
coedge $-1 $452 $450 $300 $376 reversed $453 $-1 #
edge $-1 $383 2.094395102393195707 $454 3.141592653589793116 $300 $455 forward 7 unknown #
coedge $-1 $398 $456 $301 $378 forward $388 $-1 #
edge $-1 $382 -2.094395102393195707 $457 -1.047197551196597853 $377 $458 forward 7 unknown #
coedge $-1 $459 $302 $456 $460 reversed $381 $-1 #
coedge $-1 $302 $459 $452 $461 forward $381 $-1 #
loop $-1 $-1 $302 $462 #
vertex $-1 $460 $463 #
vertex $-1 $376 $464 #
straight-curve $-1 -50 86.60254037844390496 0 0 0 1 I I #
straight-curve $-1 50 0 25 0 1 0 I I #
point $-1 100 0 25 #
point $-1 50 -86.60254037844390496 25 #
loop $-1 $-1 $456 $222 #
coedge $-1 $389 $389 $338 $414 forward $308 $-1 #
coedge $-1 $390 $390 $334 $410 forward $310 $-1 #
edge $-1 $312 25 $457 75 $314 $465 forward 7 unknown #
point $-1 50 86.60254037844390496 -25 #
coedge $-1 $315 $374 $459 $466 forward $141 $-1 #
coedge $-1 $456 $398 $315 $395 forward $388 $-1 #
edge $-1 $396 1.047197551196597853 $467 2.094395102393195707 $394 $458 forward 7 unknown #
vertex $-1 $399 $468 #
straight-curve $-1 50 -86.60254037844390496 0 0 0 1 I I #
coedge $-1 $394 $377 $319 $399 forward $388 $-1 #
edge $-1 $457 -86.60254037844390496 $396 86.60254037844390496 $398 $469 forward 7 unknown #
coedge $-1 $470 $368 $321 $401 forward $320 $-1 #
edge $-1 $370 -96.82458365518540688 $471 -28.08487137232430086 $400 $472 forward 7 unknown #
edge $-1 $471 -0.8434449432577599826 $323 -0.3740612126793767533 $327 $473 forward 7 unknown #
point $-1 35 -13.73899559647649937 15 #
ellipse-curve $-1 0 0 15 0 0 1 37.60000000000000142 0 0 1 I I #
coedge $-1 $327 $474 $470 $475 reversed $179 $-1 #
point $-1 25 -28.08487137232430086 75 #
face $-1 $476 $477 $2 $-1 $478 forward single #
loop $-1 $-1 $479 $332 #
plane-surface $-1 -75 0 25 0 0 1 1 0 0 forward_v I I I I #
edge $-1 $480 -3.141592653589799777 $480 3.141592653589786455 $390 $481 forward 7 unknown #
coedge $-1 $482 $336 $438 $483 reversed $179 $-1 #
edge $-1 $440 0 $365 15 $362 $263 forward 7 unknown #
ellipse-curve $-1 0 0 75 -0 -0 -1 37.60000000000000142 0 0 1 I I #
edge $-1 $484 -3.141592653589799777 $484 3.141592653589786455 $389 $485 forward 7 unknown #
face $-1 $120 $486 $2 $-1 $487 reversed single #
loop $-1 $488 $489 $339 #
cone-surface $-1 -100 -50 50 1 0 -3.491481338843129805e-15 -3.4914813388431302e-14 0 -10 1 I I 0 1 10 forward I I I I #
point $-1 50 49.99999999999990052 65.00000000000019895 #
face $-1 $282 $359 $2 $-1 $421 forward single #
loop $-1 $-1 $490 $344 #
plane-surface $-1 0 0 0 0 0 1 1 0 0 forward_v I I I I #
loop $-1 $-1 $491 $267 #
coedge $-1 $492 $493 $428 $494 forward $345 $-1 #
face $-1 $495 $496 $2 $-1 $497 forward single #
loop $-1 $-1 $498 $347 #
plane-surface $-1 -35 0 25 1 0 0 0 0 -1 forward_v I I I I #
coedge $-1 $499 $500 $501 $502 reversed $348 $-1 #
coedge $-1 $503 $349 $423 $494 reversed $272 $-1 #
coedge $-1 $349 $503 $504 $505 reversed $272 $-1 #
coedge $-1 $506 $507 $349 $431 forward $45 $-1 #
edge $-1 $508 1.823476581936975371 $509 1.928367430440406816 $430 $510 forward 7 unknown #
point $-1 50 -86.60254037844390496 75 #
coedge $-1 $355 $506 $511 $512 forward $45 $-1 #
coedge $-1 $513 $514 $355 $435 reversed $515 $-1 #
edge $-1 $516 -15 $437 -0 $355 $517 forward 7 unknown #
coedge $-1 $438 $356 $514 $518 reversed $359 $-1 #
vertex $-1 $357 $519 #
coedge $-1 $358 $436 $411 $483 forward $359 $-1 #
point $-1 0 100 0 #
vertex $-1 $363 $520 #
straight-curve $-1 25 0 0 0 -1 0 I I #
point $-1 25 28.08487137232430086 15 #
coedge $-1 $521 $367 $522 $523 forward $45 $-1 #
coedge $-1 $524 $522 $367 $445 reversed $420 $-1 #
edge $-1 $447 1.318116071652817967 $525 1.570796326794896558 $367 $526 forward 7 unknown #
coedge $-1 $368 $470 $524 $527 forward $320 $-1 #
vertex $-1 $445 $528 #
point $-1 25 -96.82458365518540688 15 #
straight-curve $-1 50 -86.60254037844390496 0 0 0 1 I I #
coedge $-1 $375 $452 $374 $451 reversed $453 $-1 #
edge $-1 $454 -3.141592653589793116 $529 -2.094395102393195707 $374 $455 forward 7 unknown #
coedge $-1 $450 $375 $380 $461 reversed $453 $-1 #
loop $-1 $-1 $375 $530 #
vertex $-1 $376 $531 #
ellipse-curve $-1 0 0 -25 0 0 1 100 0 0 1 I I #
coedge $-1 $377 $394 $379 $460 forward $388 $-1 #
vertex $-1 $378 $532 #
ellipse-curve $-1 0 0 -75 0 0 -1 100 0 0 1 I I #
coedge $-1 $380 $379 $393 $466 reversed $381 $-1 #
edge $-1 $467 -86.60254037844390496 $382 86.60254037844390496 $456 $533 forward 7 unknown #
edge $-1 $529 -86.60254037844390496 $383 86.60254037844390496 $380 $534 forward 7 unknown #
face $-1 $53 $381 $2 $-1 $535 forward single #
point $-1 -50 86.60254037844390496 -75 #
point $-1 -50 86.60254037844390496 -25 #
straight-curve $-1 50 86.60254037844390496 0 -0 -0 -1 I I #
edge $-1 $529 25 $467 75 $393 $536 forward 7 unknown #
vertex $-1 $395 $537 #
point $-1 50 -86.60254037844390496 -75 #
straight-curve $-1 50 0 -75 0 -1 0 I I #
coedge $-1 $446 $400 $405 $475 forward $320 $-1 #
vertex $-1 $402 $538 #
straight-curve $-1 25 0 15 0 1 -0 I I #
ellipse-curve $-1 0 0 15 0 0 1 37.60000000000000142 0 0 1 I I #
coedge $-1 $405 $539 $490 $540 reversed $179 $-1 #
edge $-1 $471 -15 $541 -0 $470 $331 forward 7 unknown #
face $-1 $530 $542 $2 $-1 $354 forward single #
loop $-1 $543 $544 $407 #
plane-surface $-1 -50 0 50 -1 0 0 0 0 1 forward_v I I I I #
coedge $-1 $545 $546 $547 $548 reversed $408 $-1 #
vertex $-1 $410 $549 #
ellipse-curve $-1 50 -50 50.00000000000019895 -1 -0 -0 -5.237222008264700033e-14 0 -15 1 I I #
coedge $-1 $550 $411 $551 $552 reversed $179 $-1 #
edge $-1 $553 -2.298147710332033355 $440 -0.8434449432577599826 $438 $554 forward 7 unknown #
vertex $-1 $414 $555 #
ellipse-curve $-1 0 0 -75 -0 -0 1 37.60000000000000142 0 0 1 I I #
loop $-1 $556 $557 $415 #
cone-surface $-1 -100 50 50 1 0 -3.491481338843129805e-15 -3.4914813388431302e-14 0 -10 1 I I 0 1 10 forward I I I I #
loop $-1 $-1 $558 $339 #
coedge $-1 $489 $489 $559 $560 reversed $416 $-1 #
coedge $-1 $561 $524 $474 $540 forward $420 $-1 #
coedge $-1 $491 $491 $557 $562 forward $422 $-1 #
coedge $-1 $563 $423 $507 $564 reversed $345 $-1 #
coedge $-1 $423 $563 $565 $566 forward $345 $-1 #
edge $-1 $567 28.08487137232430086 $508 96.82458365518540688 $423 $568 forward 7 unknown #
face $-1 $569 $570 $2 $-1 $497 forward single #
loop $-1 $-1 $511 $424 #
plane-surface $-1 -30 0 15 0 0 1 1 0 0 forward_v I I I I #
coedge $-1 $504 $571 $506 $572 reversed $425 $-1 #
coedge $-1 $573 $427 $574 $575 reversed $348 $-1 #
coedge $-1 $427 $573 $576 $577 reversed $348 $-1 #
coedge $-1 $578 $579 $427 $502 forward $45 $-1 #
edge $-1 $580 -1.928367430440406816 $581 -1.823476581936975371 $501 $582 forward 7 unknown #
coedge $-1 $429 $428 $583 $584 reversed $272 $-1 #
coedge $-1 $585 $498 $429 $505 forward $425 $-1 #
edge $-1 $509 -93.67496997597599773 $586 -13.73899559647649937 $504 $587 forward 7 unknown #
coedge $-1 $433 $430 $498 $572 forward $45 $-1 #
coedge $-1 $430 $588 $492 $564 forward $45 $-1 #
vertex $-1 $564 $589 #
vertex $-1 $431 $590 #
ellipse-curve $-1 0 0 35 0 0 1 100 0 0 1 I I #
coedge $-1 $591 $592 $433 $512 reversed $496 $-1 #
edge $-1 $593 -1.928367430440406816 $516 -1.823476581936975371 $433 $594 forward 7 unknown #
coedge $-1 $551 $434 $592 $595 forward $515 $-1 #
coedge $-1 $434 $551 $436 $518 forward $515 $-1 #
loop $-1 $-1 $513 $596 #
vertex $-1 $595 $597 #
straight-curve $-1 -25 96.82458365518540688 0 -0 -0 -1 I I #
edge $-1 $553 28.08487137232430086 $437 96.82458365518540688 $514 $598 forward 7 unknown #
point $-1 -25 96.82458365518540688 0 #
point $-1 25 28.08487137232430086 0 #
coedge $-1 $599 $443 $600 $601 forward $45 $-1 #
coedge $-1 $444 $561 $443 $523 reversed $420 $-1 #
edge $-1 $525 1.570796326794896558 $602 1.823476581936975371 $443 $526 forward 7 unknown #
coedge $-1 $490 $444 $446 $527 reversed $420 $-1 #
vertex $-1 $445 $603 #
ellipse-curve $-1 0 0 0 -0 -0 -1 100 0 0 1 I I #
edge $-1 $541 28.08487137232430086 $447 96.82458365518540688 $446 $441 forward 7 unknown #
point $-1 25 -96.82458365518540688 0 #
vertex $-1 $451 $604 #
face $-1 $462 $453 $2 $-1 $605 reversed single #
point $-1 -100 0 -25 #
point $-1 50 86.60254037844390496 -75 #
straight-curve $-1 -50 0 -75 0 1 0 I I #
straight-curve $-1 -50 0 -25 0 1 0 I I #
plane-surface $-1 -50 0 -50 -1 0 0 0 0 1 forward_v I I I I #
straight-curve $-1 -50 -86.60254037844390496 0 -0 -0 -1 I I #
point $-1 -50 -86.60254037844390496 -75 #
point $-1 25 -28.08487137232430086 15 #
coedge $-1 $474 $606 $607 $608 reversed $179 $-1 #
edge $-1 $541 0.8434449432577599826 $609 2.298147710332033355 $490 $610 forward 7 unknown #
vertex $-1 $475 $611 #
loop $-1 $-1 $612 $476 #
loop $-1 $613 $614 $407 #
coedge $-1 $544 $544 $558 $615 forward $477 $-1 #
coedge $-1 $546 $479 $616 $617 reversed $408 $-1 #
coedge $-1 $479 $545 $618 $619 reversed $408 $-1 #
coedge $-1 $620 $616 $479 $548 forward $45 $-1 #
edge $-1 $621 -3.141592653589793116 $622 -2.094395102393195707 $547 $623 forward 7 unknown #
point $-1 50 -50.00000000000009948 65.00000000000019895 #
coedge $-1 $624 $482 $625 $626 forward $179 $-1 #
coedge $-1 $514 $513 $482 $552 forward $515 $-1 #
edge $-1 $627 -15 $553 -0 $551 $628 forward 7 unknown #
vertex $-1 $483 $629 #
ellipse-curve $-1 0 0 0 -0 -0 -1 37.60000000000000142 0 0 1 I I #
point $-1 -37.60000000000000142 2.625593966810039817e-13 -75 #
loop $-1 $-1 $630 $415 #
coedge $-1 $557 $557 $491 $562 reversed $486 $-1 #
coedge $-1 $558 $558 $544 $615 reversed $488 $-1 #
coedge $-1 $559 $559 $489 $560 forward $631 $-1 #
edge $-1 $632 -3.141592653589802886 $632 3.141592653589783346 $559 $633 forward 7 unknown #
coedge $-1 $522 $490 $634 $635 reversed $420 $-1 #
edge $-1 $636 -3.141592653589802886 $636 3.141592653589783346 $491 $637 forward 7 unknown #
coedge $-1 $493 $492 $638 $639 reversed $345 $-1 #
edge $-1 $640 -75 $508 -35 $507 $517 forward 7 unknown #
coedge $-1 $641 $583 $493 $566 reversed $179 $-1 #
edge $-1 $642 -75 $567 -35 $493 $628 forward 7 unknown #
vertex $-1 $566 $643 #
straight-curve $-1 -25 0 35 0 1 0 I I #
face $-1 $644 $645 $2 $-1 $426 forward single #
loop $-1 $-1 $646 $495 #
coedge $-1 $498 $585 $591 $647 forward $425 $-1 #
edge $-1 $509 -35 $593 -15 $506 $648 forward 7 unknown #
coedge $-1 $500 $499 $649 $650 reversed $348 $-1 #
coedge $-1 $651 $652 $499 $575 forward $645 $-1 #
edge $-1 $653 13.73899559647649937 $580 93.67496997597599773 $574 $587 forward 7 unknown #
coedge $-1 $654 $655 $500 $577 forward $656 $-1 #
edge $-1 $581 -96.82458365518540688 $657 -28.08487137232430086 $576 $658 forward 7 unknown #
coedge $-1 $659 $501 $655 $660 forward $45 $-1 #
coedge $-1 $501 $599 $651 $661 forward $45 $-1 #
vertex $-1 $502 $662 #
vertex $-1 $577 $663 #
ellipse-curve $-1 0 0 35 0 0 1 100 0 0 1 I I #
coedge $-1 $565 $624 $503 $584 forward $179 $-1 #
edge $-1 $586 -2.767531440910416585 $567 -2.298147710332033355 $583 $664 forward 7 unknown #
coedge $-1 $571 $504 $624 $665 reversed $425 $-1 #
vertex $-1 $584 $666 #
straight-curve $-1 -35 0 35 0 -1 0 I I #
coedge $-1 $507 $620 $667 $668 reversed $45 $-1 #
point $-1 -25 96.82458365518540688 35 #
point $-1 -35 93.67496997597599773 35 #
coedge $-1 $625 $511 $571 $647 reversed $496 $-1 #
coedge $-1 $511 $625 $513 $595 reversed $496 $-1 #
vertex $-1 $512 $669 #
ellipse-curve $-1 0 0 15 -0 -0 -1 100 0 0 1 I I #
edge $-1 $516 -96.82458365518540688 $627 -28.08487137232430086 $513 $670 forward 7 unknown #
face $-1 $260 $515 $2 $-1 $346 forward single #
point $-1 -25 96.82458365518540688 15 #
straight-curve $-1 -25 0 0 0 1 0 I I #
coedge $-1 $579 $521 $646 $671 forward $45 $-1 #
coedge $-1 $634 $672 $521 $601 reversed $673 $-1 #
edge $-1 $602 0 $674 15 $521 $675 forward 7 unknown #
vertex $-1 $523 $676 #
point $-1 0 -100 0 #
point $-1 -50 -86.60254037844390496 -25 #
plane-surface $-1 -75 0 -25 0 0 1 1 0 0 forward_v I I I I #
coedge $-1 $539 $677 $678 $679 forward $179 $-1 #
coedge $-1 $672 $634 $539 $608 forward $673 $-1 #
edge $-1 $609 0 $680 15 $607 $681 forward 7 unknown #
vertex $-1 $635 $682 #
ellipse-curve $-1 0 0 0 -0 -0 -1 37.60000000000000142 0 0 1 I I #
point $-1 25 -28.08487137232430086 0 #
coedge $-1 $638 $683 $641 $684 forward $542 $-1 #
loop $-1 $-1 $685 $407 #
coedge $-1 $614 $614 $630 $686 forward $543 $-1 #
edge $-1 $687 -3.141592653589802886 $687 3.141592653589783346 $544 $688 forward 7 unknown #
coedge $-1 $547 $689 $545 $617 forward $45 $-1 #
edge $-1 $690 2.094395102393195707 $621 3.141592653589793116 $616 $623 forward 7 unknown #
coedge $-1 $691 $685 $546 $619 forward $613 $-1 #
edge $-1 $622 -86.60254037844390496 $690 86.60254037844390496 $618 $692 forward 7 unknown #
coedge $-1 $588 $547 $685 $693 forward $45 $-1 #
vertex $-1 $617 $694 #
vertex $-1 $548 $695 #
ellipse-curve $-1 0 0 25 -0 -0 -1 100 0 0 1 I I #
coedge $-1 $583 $550 $585 $665 forward $179 $-1 #
coedge $-1 $592 $591 $550 $626 reversed $496 $-1 #
edge $-1 $627 2.298147710332033355 $696 2.767531440910416585 $550 $697 forward 7 unknown #
vertex $-1 $626 $698 #
straight-curve $-1 -25 28.08487137232430086 0 -0 -0 -1 I I #
point $-1 -25 28.08487137232430086 0 #
coedge $-1 $630 $630 $614 $686 reversed $556 $-1 #
loop $-1 $-1 $559 $699 #
vertex $-1 $560 $700 #
ellipse-curve $-1 -25 -50 49.99999999999970157 -1 -0 -0 -3.4914813388431302e-14 0 -10 1 I I #
coedge $-1 $607 $600 $561 $635 forward $673 $-1 #
edge $-1 $602 -96.82458365518540688 $609 -28.08487137232430086 $634 $598 forward 7 unknown #
vertex $-1 $562 $701 #
ellipse-curve $-1 -25 50 49.99999999999970157 -1 -0 -0 -3.4914813388431302e-14 0 -10 1 I I #
coedge $-1 $667 $612 $563 $639 forward $542 $-1 #
edge $-1 $642 28.08487137232430086 $640 96.82458365518540688 $638 $702 forward 7 unknown #
vertex $-1 $639 $703 #
coedge $-1 $704 $565 $612 $684 reversed $179 $-1 #
vertex $-1 $684 $705 #
point $-1 -25 28.08487137232430086 35 #
face $-1 $699 $673 $2 $-1 $346 forward single #
loop $-1 $-1 $651 $569 #
coedge $-1 $706 $707 $599 $671 reversed $570 $-1 #
edge $-1 $696 13.73899559647649937 $593 93.67496997597599773 $571 $708 forward 7 unknown #
straight-curve $-1 -35 93.67496997597599773 0 -0 -0 -1 I I #
coedge $-1 $677 $704 $573 $650 forward $179 $-1 #
edge $-1 $657 2.298147710332033355 $653 2.767531440910416585 $649 $709 forward 7 unknown #
coedge $-1 $710 $574 $579 $661 reversed $645 $-1 #
coedge $-1 $574 $710 $677 $711 reversed $645 $-1 #
vertex $-1 $650 $712 #
coedge $-1 $713 $576 $704 $714 forward $656 $-1 #
coedge $-1 $576 $713 $578 $660 reversed $656 $-1 #
loop $-1 $631 $576 $699 #
vertex $-1 $650 $715 #
straight-curve $-1 -25 0 35 0 1 0 I I #
coedge $-1 $689 $578 $716 $717 reversed $45 $-1 #
edge $-1 $581 35 $718 75 $578 $675 forward 7 unknown #
edge $-1 $719 15 $580 35 $579 $720 forward 7 unknown #
point $-1 -35 -93.67496997597599773 35 #
point $-1 -25 -96.82458365518540688 35 #
ellipse-curve $-1 0 0 35 -0 -0 -1 37.60000000000000142 0 0 1 I I #
edge $-1 $696 15 $586 35 $624 $721 forward 7 unknown #
point $-1 -35 13.73899559647649937 35 #
coedge $-1 $722 $638 $588 $668 forward $542 $-1 #
edge $-1 $640 1.823476581936975371 $723 2.094395102393195707 $667 $200 forward 7 unknown #
point $-1 -35 93.67496997597599773 15 #
straight-curve $-1 -25 0 15 0 -1 0 I I #
edge $-1 $674 1.823476581936975371 $719 1.928367430440406816 $599 $724 forward 7 unknown #
coedge $-1 $600 $607 $706 $725 forward $673 $-1 #
loop $-1 $-1 $672 $644 #
vertex $-1 $601 $726 #
straight-curve $-1 -25 -96.82458365518540688 0 0 0 1 I I #
point $-1 -25 -96.82458365518540688 0 #
coedge $-1 $606 $649 $652 $711 forward $179 $-1 #
coedge $-1 $707 $706 $606 $679 reversed $570 $-1 #
edge $-1 $727 -2.767531440910416585 $680 -2.298147710332033355 $606 $728 forward 7 unknown #
vertex $-1 $608 $729 #
straight-curve $-1 -25 -28.08487137232430086 0 0 0 1 I I #
point $-1 -25 -28.08487137232430086 0 #
coedge $-1 $612 $716 $713 $730 forward $542 $-1 #
edge $-1 $731 2.298147710332033355 $642 3.985037596847552877 $612 $732 forward 7 unknown #
coedge $-1 $618 $733 $620 $693 reversed $613 $-1 #
edge $-1 $734 -3.141592653589802886 $734 3.141592653589783346 $614 $735 forward 7 unknown #
vertex $-1 $615 $736 #
ellipse-curve $-1 -50 -50 49.99999999999980105 1 -0 -0 -3.4914813388431302e-14 0 -10 1 I I #
coedge $-1 $616 $659 $691 $737 forward $45 $-1 #
vertex $-1 $617 $738 #
coedge $-1 $733 $618 $689 $737 reversed $613 $-1 #
straight-curve $-1 -50 0 25 0 -1 0 I I #
edge $-1 $622 25 $723 75 $620 $739 forward 7 unknown #
point $-1 -100 0 25 #
point $-1 -50 86.60254037844390496 25 #
vertex $-1 $626 $740 #
ellipse-curve $-1 0 0 15 0 0 1 37.60000000000000142 0 0 1 I I #
point $-1 -25 28.08487137232430086 15 #
face $-1 $596 $656 $2 $-1 $346 forward single #
point $-1 -24.99999999999990052 -50.00000000000009948 59.99999999999970157 #
point $-1 -24.99999999999990052 49.99999999999990052 59.99999999999970157 #
straight-curve $-1 -25 0 75 0 1 0 I I #
point $-1 -25 96.82458365518540688 75 #
coedge $-1 $649 $641 $654 $714 reversed $179 $-1 #
point $-1 -25 28.08487137232430086 75 #
coedge $-1 $678 $646 $672 $725 reversed $570 $-1 #
coedge $-1 $646 $678 $710 $741 reversed $570 $-1 #
straight-curve $-1 -35 0 15 0 1 0 I I #
ellipse-curve $-1 0 0 35 -0 -0 -1 37.60000000000000142 0 0 1 I I #
coedge $-1 $652 $651 $707 $741 forward $645 $-1 #
edge $-1 $653 -35 $727 -15 $677 $742 forward 7 unknown #
point $-1 -35 -13.73899559647649937 35 #
coedge $-1 $655 $654 $683 $730 reversed $656 $-1 #
edge $-1 $657 35 $731 75 $654 $681 forward 7 unknown #
point $-1 -25 -28.08487137232430086 35 #
coedge $-1 $683 $722 $659 $717 forward $542 $-1 #
edge $-1 $743 -2.094395102393195707 $718 -1.823476581936975371 $716 $200 forward 7 unknown #
vertex $-1 $717 $744 #
vertex $-1 $671 $745 #
straight-curve $-1 -35 -93.67496997597599773 0 0 0 1 I I #
straight-curve $-1 -35 13.73899559647649937 0 -0 0 1 I I #
coedge $-1 $716 $667 $733 $746 forward $542 $-1 #
vertex $-1 $668 $747 #
ellipse-curve $-1 0 0 15 -0 -0 -1 100 0 0 1 I I #
edge $-1 $680 28.08487137232430086 $674 96.82458365518540688 $672 $748 forward 7 unknown #
point $-1 -25 -96.82458365518540688 15 #
vertex $-1 $679 $749 #
ellipse-curve $-1 0 0 15 0 0 1 37.60000000000000142 0 0 1 I I #
point $-1 -25 -28.08487137232430086 15 #
edge $-1 $718 -96.82458365518540688 $731 -28.08487137232430086 $683 $702 forward 7 unknown #
vertex $-1 $730 $750 #
ellipse-curve $-1 0 0 75 -0 -0 -1 37.60000000000000142 0 0 1 I I #
coedge $-1 $685 $691 $722 $746 reversed $613 $-1 #
vertex $-1 $686 $751 #
ellipse-curve $-1 -50 50 49.99999999999980105 1 -0 -0 -3.4914813388431302e-14 0 -10 1 I I #
point $-1 -50 -49.99999999999990052 59.99999999999980105 #
edge $-1 $743 -75 $690 -25 $689 $752 forward 7 unknown #
point $-1 -50 -86.60254037844390496 25 #
straight-curve $-1 -50 86.60254037844390496 0 0 0 1 I I #
point $-1 -35 13.73899559647649937 15 #
edge $-1 $719 -93.67496997597599773 $727 -13.73899559647649937 $710 $708 forward 7 unknown #
straight-curve $-1 -35 -13.73899559647649937 0 0 0 -1 I I #
vertex $-1 $737 $753 #
point $-1 -25 -96.82458365518540688 75 #
point $-1 -35 -93.67496997597599773 15 #
edge $-1 $723 -86.60254037844390496 $743 86.60254037844390496 $722 $754 forward 7 unknown #
point $-1 -50 86.60254037844390496 75 #
straight-curve $-1 -25 0 15 0 -1 0 I I #
point $-1 -35 -13.73899559647649937 15 #
point $-1 -25 -28.08487137232430086 75 #
point $-1 -50 50.00000000000009948 59.99999999999980105 #
straight-curve $-1 -50 -86.60254037844390496 0 -0 -0 -1 I I #
point $-1 -50 -86.60254037844390496 75 #
straight-curve $-1 -50 0 75 0 -1 0 I I #
End-of-ACIS-data 