600 0 1 0           
94 GICL ACIS Healer - Source: /gicl/data5/repository/PTC/V18/mfgmill18/fixture/base.prt.sat - 6 0 18 ACIS 6.0.3 Solaris 24 Sat Apr 13 21:41:26 2002 
1 9.999999999999999547e-07 1.000000000000000036e-10 
body $-1 $1 $-1 $-1 #
lump $-1 $-1 $2 $0 #
shell $-1 $-1 $-1 $3 $-1 $1 #
face $-1 $4 $5 $2 $-1 $6 reversed single #
face $-1 $7 $8 $2 $-1 $9 reversed single #
loop $-1 $10 $11 $3 #
plane-surface $-1 0 0 0 0 1 0 -25.39999999999999858 0 0 forward_v I I I I #
face $-1 $12 $13 $2 $-1 $14 reversed single #
loop $-1 $-1 $15 $4 #
cone-surface $-1 -254 53.94325000000000614 133.3499999999999943 0 1 0 -8.331199999999999051 0 0 1 I I 0 1 8.331199999999999051 forward I I I I #
loop $-1 $16 $17 $3 #
coedge $-1 $18 $18 $19 $20 forward $5 $-1 #
face $-1 $21 $22 $2 $-1 $23 reversed single #
loop $-1 $-1 $24 $7 #
cone-surface $-1 -254 53.94325000000000614 133.3499999999999943 0 1 0 -8.331199999999999051 0 0 1 I I 0 1 8.331199999999999051 forward I I I I #
coedge $-1 $25 $19 $26 $27 reversed $8 $-1 #
loop $-1 $28 $29 $3 #
coedge $-1 $30 $30 $31 $32 forward $10 $-1 #
coedge $-1 $11 $11 $33 $34 forward $5 $-1 #
coedge $-1 $15 $35 $11 $20 reversed $8 $-1 #
edge $-1 $36 0 $37 3.141592653589793116 $11 $38 forward 7 unknown #
face $-1 $39 $40 $2 $-1 $41 forward single #
loop $-1 $-1 $42 $12 #
cone-surface $-1 -254 51.51903581853004965 133.3499999999999943 0 -1 0 -14.6646968374164981 0 0 1 I I -0.500000000000000111 0.8660254037844385966 14.6646968374164981 forward I I I I #
coedge $-1 $43 $33 $35 $44 reversed $13 $-1 #
coedge $-1 $35 $15 $45 $46 reversed $8 $-1 #
coedge $-1 $33 $43 $15 $27 forward $13 $-1 #
edge $-1 $47 0 $36 1.596421161675113831 $26 $48 forward 7 unknown #
loop $-1 $49 $50 $3 #
coedge $-1 $51 $51 $52 $53 reversed $16 $-1 #
coedge $-1 $17 $17 $54 $55 forward $10 $-1 #
coedge $-1 $56 $57 $17 $32 reversed $58 $-1 #
edge $-1 $59 0 $60 3.141592653589793116 $17 $61 forward 7 unknown #
coedge $-1 $24 $26 $18 $34 reversed $13 $-1 #
edge $-1 $37 0 $36 3.141592653589793116 $18 $62 forward 7 unknown #
coedge $-1 $19 $25 $24 $44 forward $8 $-1 #
vertex $-1 $34 $63 #
vertex $-1 $34 $64 #
ellipse-curve $-1 -254 0 133.3499999999999943 0 1 0 8.33119999999998484 0 0 1 I I #
face $-1 $65 $66 $2 $-1 $67 reversed single #
loop $-1 $68 $69 $21 #
plane-surface $-1 -254 41.27499999999999858 133.3499999999999943 0 1 0 -25.39999999999999858 0 0 forward_v I I I I #
coedge $-1 $70 $71 $72 $73 forward $22 $-1 #
coedge $-1 $26 $24 $74 $75 forward $13 $-1 #
edge $-1 $76 2.797412345512205417e-16 $37 1.596421161675113831 $24 $77 forward 7 unknown #
coedge $-1 $78 $79 $25 $46 forward $66 $-1 #
edge $-1 $76 -7.036174344657310848e-16 $47 3.141592653589799333 $45 $80 forward 7 unknown #
vertex $-1 $75 $81 #
straight-curve $-1 -245.6688000000000045 40.5490975065478878 133.3499999999999943 0 -25.39999999999999858 0 I I #
loop $-1 $82 $83 $3 #
coedge $-1 $84 $84 $85 $86 reversed $28 $-1 #
coedge $-1 $29 $29 $87 $88 reversed $16 $-1 #
coedge $-1 $89 $90 $29 $53 forward $91 $-1 #
edge $-1 $92 0 $93 3.141592653589793116 $29 $94 forward 7 unknown #
coedge $-1 $95 $96 $30 $55 reversed $97 $-1 #
edge $-1 $60 0 $59 3.141592653589793116 $30 $98 forward 7 unknown #
coedge $-1 $99 $31 $96 $100 reversed $58 $-1 #
coedge $-1 $31 $99 $95 $101 forward $58 $-1 #
loop $-1 $-1 $56 $102 #
vertex $-1 $55 $103 #
vertex $-1 $55 $104 #
ellipse-curve $-1 0 0 133.3499999999999943 0 1 0 8.33119999999998484 0 0 1 I I #
ellipse-curve $-1 -254 0 133.3499999999999943 0 1 0 -8.33119999999998484 0 0 1 I I #
point $-1 -245.6688000000000045 0 133.3499999999999943 #
point $-1 -262.3311999999999671 0 133.3499999999999943 #
face $-1 $105 $106 $2 $-1 $107 reversed single #
loop $-1 $-1 $45 $39 #
cone-surface $-1 -254 51.51903581853004965 133.3499999999999943 0 -1 0 -14.6646968374164981 0 0 1 I I -0.500000000000000111 0.8660254037844385966 14.6646968374164981 forward I I I I #
loop $-1 $-1 $108 $21 #
coedge $-1 $72 $72 $109 $110 forward $40 $-1 #
coedge $-1 $74 $42 $78 $111 forward $22 $-1 #
coedge $-1 $42 $74 $79 $112 reversed $22 $-1 #
coedge $-1 $69 $69 $42 $73 reversed $40 $-1 #
edge $-1 $113 0 $114 3.141592653589793116 $72 $115 forward 7 unknown #
coedge $-1 $71 $70 $43 $75 reversed $22 $-1 #
edge $-1 $76 -7.036174344657310848e-16 $47 3.141592653589799333 $74 $116 forward 7 unknown #
vertex $-1 $112 $117 #
straight-curve $-1 -262.3311999999999671 40.5490975065478878 133.3499999999999943 0 -25.39999999999999858 0 I I #
coedge $-1 $109 $45 $70 $111 reversed $66 $-1 #
coedge $-1 $45 $109 $71 $112 forward $66 $-1 #
ellipse-curve $-1 -254 40.5490975065478878 133.3499999999999659 0 -1 0 -8.33119999999998484 0 2.255973186038317964e-14 1 I I #
point $-1 -245.6688000000000045 40.5490975065478878 133.3499999999999943 #
loop $-1 $118 $119 $3 #
coedge $-1 $120 $120 $121 $122 reversed $49 $-1 #
coedge $-1 $50 $50 $123 $124 reversed $28 $-1 #
coedge $-1 $125 $126 $50 $86 forward $127 $-1 #
edge $-1 $128 0 $129 3.141592653589793116 $50 $130 forward 7 unknown #
coedge $-1 $131 $132 $51 $88 forward $133 $-1 #
edge $-1 $93 0 $92 3.141592653589793116 $51 $134 forward 7 unknown #
coedge $-1 $135 $52 $132 $136 reversed $91 $-1 #
coedge $-1 $52 $135 $131 $137 forward $91 $-1 #
loop $-1 $-1 $89 $138 #
vertex $-1 $88 $139 #
vertex $-1 $88 $140 #
ellipse-curve $-1 -254 0 -133.3499999999999943 0 -1 0 8.33119999999998484 0 0 1 I I #
coedge $-1 $141 $54 $57 $101 reversed $97 $-1 #
coedge $-1 $54 $141 $56 $100 forward $97 $-1 #
loop $-1 $-1 $95 $142 #
ellipse-curve $-1 0 0 133.3499999999999943 0 1 0 -8.33119999999998484 0 0 1 I I #
coedge $-1 $57 $56 $143 $144 reversed $58 $-1 #
edge $-1 $145 0 $59 1.596421161675113831 $96 $146 forward 7 unknown #
edge $-1 $147 2.797412345512205417e-16 $60 1.596421161675113831 $95 $148 forward 7 unknown #
face $-1 $142 $58 $2 $-1 $149 reversed single #
point $-1 8.33119999999998484 0 133.3499999999999943 #
point $-1 -8.33119999999998484 0 133.3499999999999943 #
face $-1 $150 $151 $2 $-1 $152 reversed single #
loop $-1 $-1 $153 $65 #
cone-surface $-1 -254 53.94325000000000614 133.3499999999999943 0 1 0 -12.69999999999999929 0 0 1 I I 0 1 12.69999999999999929 forward I I I I #
coedge $-1 $154 $154 $155 $156 forward $68 $-1 #
coedge $-1 $79 $78 $69 $110 reversed $66 $-1 #
edge $-1 $113 0 $114 3.141592653589793116 $69 $157 forward 7 unknown #
edge $-1 $114 0 $47 0.0329999999999998489 $70 $158 forward 7 unknown #
edge $-1 $113 0 $76 0.03300000000000009176 $71 $159 forward 7 unknown #
vertex $-1 $73 $160 #
vertex $-1 $73 $161 #
ellipse-curve $-1 -254 41.27499999999999858 133.3499999999999943 -6.445416688680153787e-16 1 0 -8.750300000000001077 -5.63993296509579491e-15 0 1 I I #
ellipse-curve $-1 -254 40.5490975065478878 133.3500000000000227 0 1 0 -8.33119999999998484 0 -2.255973186038317964e-14 1 I I #
point $-1 -262.3311999999999671 40.5490975065478807 133.3499999999999943 #
loop $-1 $-1 $162 $3 #
coedge $-1 $163 $163 $164 $165 forward $82 $-1 #
coedge $-1 $83 $83 $166 $167 reversed $49 $-1 #
coedge $-1 $168 $169 $83 $122 forward $170 $-1 #
edge $-1 $171 0 $172 3.141592653589793116 $83 $173 forward 7 unknown #
coedge $-1 $174 $175 $84 $124 forward $176 $-1 #
edge $-1 $129 0 $128 3.141592653589793116 $84 $177 forward 7 unknown #
coedge $-1 $178 $85 $175 $179 reversed $127 $-1 #
coedge $-1 $85 $178 $174 $180 forward $127 $-1 #
loop $-1 $-1 $125 $181 #
vertex $-1 $124 $182 #
vertex $-1 $124 $183 #
ellipse-curve $-1 0 0 -133.3499999999999943 0 -1 0 8.33119999999998484 0 0 1 I I #
coedge $-1 $184 $87 $90 $137 reversed $133 $-1 #
coedge $-1 $87 $184 $89 $136 forward $133 $-1 #
loop $-1 $-1 $131 $185 #
ellipse-curve $-1 -254 0 -133.3499999999999943 0 -1 0 -8.33119999999998484 0 0 1 I I #
coedge $-1 $90 $89 $186 $187 forward $91 $-1 #
edge $-1 $188 2.797412345512205417e-16 $93 1.596421161675113831 $132 $189 forward 7 unknown #
edge $-1 $190 0 $92 1.596421161675113831 $131 $191 forward 7 unknown #
face $-1 $192 $91 $2 $-1 $193 reversed single #
point $-1 -245.6688000000000045 0 -133.3499999999999943 #
point $-1 -262.3311999999999671 0 -133.3499999999999943 #
coedge $-1 $96 $95 $194 $195 forward $97 $-1 #
face $-1 $196 $97 $2 $-1 $197 reversed single #
coedge $-1 $198 $199 $99 $144 forward $200 $-1 #
edge $-1 $147 -7.036174344657225059e-16 $145 3.141592653589799333 $143 $201 forward 7 unknown #
vertex $-1 $195 $202 #
straight-curve $-1 8.331199999999999051 40.5490975065478878 133.3499999999999943 0 -25.39999999999999858 0 I I #
vertex $-1 $203 $204 #
straight-curve $-1 -8.331199999999999051 40.5490975065478878 133.3499999999999943 0 -25.39999999999999858 0 I I #
cone-surface $-1 0 53.94325000000000614 133.3499999999999943 0 1 0 -8.331199999999999051 0 0 1 I I 0 1 8.331199999999999051 forward I I I I #
face $-1 $205 $206 $2 $-1 $207 forward single #
loop $-1 $-1 $208 $105 #
cone-surface $-1 -254 53.94325000000000614 133.3499999999999943 0 1 0 -12.69999999999999929 0 0 1 I I 0 1 12.69999999999999929 forward I I I I #
coedge $-1 $155 $209 $210 $211 forward $106 $-1 #
coedge $-1 $108 $108 $212 $213 reversed $68 $-1 #
coedge $-1 $214 $153 $108 $156 reversed $106 $-1 #
edge $-1 $215 0 $216 3.141592653589793116 $155 $217 forward 7 unknown #
ellipse-curve $-1 -254 41.27499999999999858 133.3499999999999943 6.445416688680153787e-16 -1 0 -8.750300000000001077 -5.63993296509579491e-15 0 1 I I #
straight-curve $-1 -245.24969999999999 41.27499999999999147 133.3499999999999943 -12.70000000000038831 -21.99704525612451533 0 I I #
straight-curve $-1 -262.7502999999999815 41.27499999999999147 133.3499999999999943 12.70000000000038831 -21.99704525612451533 0 I I #
point $-1 -262.7502999999999815 41.27499999999999147 133.3499999999999943 #
point $-1 -245.24969999999999 41.27499999999999147 133.3499999999999943 #
coedge $-1 $218 $219 $220 $221 reversed $118 $-1 #
coedge $-1 $119 $119 $222 $223 forward $82 $-1 #
coedge $-1 $224 $225 $119 $165 reversed $226 $-1 #
edge $-1 $227 0 $228 3.141592653589793116 $119 $229 forward 7 unknown #
coedge $-1 $230 $231 $120 $167 forward $232 $-1 #
edge $-1 $172 0 $171 3.141592653589793116 $120 $233 forward 7 unknown #
coedge $-1 $234 $121 $231 $235 reversed $170 $-1 #
coedge $-1 $121 $234 $230 $236 forward $170 $-1 #
loop $-1 $-1 $168 $237 #
vertex $-1 $167 $238 #
vertex $-1 $167 $239 #
ellipse-curve $-1 254 0 -133.3499999999999943 0 -1 0 8.33119999999998484 0 0 1 I I #
coedge $-1 $240 $123 $126 $180 reversed $176 $-1 #
coedge $-1 $123 $240 $125 $179 forward $176 $-1 #
loop $-1 $-1 $174 $241 #
ellipse-curve $-1 0 0 -133.3499999999999943 0 -1 0 -8.33119999999998484 0 0 1 I I #
coedge $-1 $126 $125 $242 $243 forward $127 $-1 #
edge $-1 $244 2.797412345512205417e-16 $129 1.596421161675113831 $175 $245 forward 7 unknown #
edge $-1 $246 0 $128 1.596421161675113831 $174 $247 forward 7 unknown #
face $-1 $248 $127 $2 $-1 $249 reversed single #
point $-1 8.33119999999998484 0 -133.3499999999999943 #
point $-1 -8.33119999999998484 0 -133.3499999999999943 #
coedge $-1 $132 $131 $250 $251 reversed $133 $-1 #
face $-1 $138 $133 $2 $-1 $252 reversed single #
coedge $-1 $253 $254 $135 $187 reversed $255 $-1 #
edge $-1 $188 -7.036174344657310848e-16 $190 3.141592653589799333 $186 $256 forward 7 unknown #
vertex $-1 $257 $258 #
straight-curve $-1 -262.3311999999999671 40.5490975065478878 -133.3499999999999943 0 -25.39999999999999858 0 I I #
vertex $-1 $259 $260 #
straight-curve $-1 -245.6688000000000045 40.5490975065478878 -133.3499999999999943 0 -25.39999999999999858 0 I I #
face $-1 $261 $262 $2 $-1 $263 reversed single #
cone-surface $-1 -254 53.94325000000000614 -133.3499999999999943 0 -1 0 -8.331199999999999051 0 0 1 I I 0 1 8.331199999999999051 forward I I I I #
coedge $-1 $264 $265 $141 $195 reversed $266 $-1 #
edge $-1 $147 -7.036174344657225059e-16 $145 3.141592653589799333 $194 $267 forward 7 unknown #
face $-1 $268 $266 $2 $-1 $269 reversed single #
cone-surface $-1 0 53.94325000000000614 133.3499999999999943 0 1 0 -8.331199999999999051 0 0 1 I I 0 1 8.331199999999999051 forward I I I I #
coedge $-1 $270 $143 $265 $271 reversed $200 $-1 #
coedge $-1 $143 $270 $264 $203 forward $200 $-1 #
loop $-1 $-1 $143 $272 #
ellipse-curve $-1 0 40.5490975065478878 133.3499999999999659 0 -1 0 -8.331199999999999051 0 2.255973186038317964e-14 1 I I #
point $-1 8.331199999999999051 40.5490975065478878 133.3499999999999943 #
edge $-1 $273 0 $147 0.0329999999999998142 $264 $274 forward 7 unknown #
point $-1 -8.331199999999999051 40.5490975065478807 133.3499999999999943 #
face $-1 $275 $276 $2 $-1 $277 reversed single #
loop $-1 $278 $279 $150 #
plane-surface $-1 0 50.79999999999999716 0 0 1 0 -25.39999999999999858 0 0 forward_v I I I I #
coedge $-1 $212 $280 $214 $281 forward $151 $-1 #
coedge $-1 $153 $214 $282 $283 forward $106 $-1 #
coedge $-1 $280 $212 $153 $211 reversed $151 $-1 #
edge $-1 $284 0 $216 0.3749999999999999445 $153 $285 forward 7 unknown #
coedge $-1 $210 $208 $154 $213 forward $151 $-1 #
edge $-1 $215 0 $216 3.141592653589793116 $154 $286 forward 7 unknown #
coedge $-1 $209 $155 $208 $281 reversed $106 $-1 #
vertex $-1 $281 $287 #
vertex $-1 $156 $288 #
ellipse-curve $-1 -254 41.27499999999999858 133.3499999999999943 0 1 0 -12.69999999999999929 0 0 1 I I #
coedge $-1 $289 $162 $290 $291 reversed $118 $-1 #
coedge $-1 $162 $292 $293 $294 reversed $118 $-1 #
coedge $-1 $295 $296 $162 $221 forward $297 $-1 #
edge $-1 $298 0 $299 17.79999999999999716 $162 $300 forward 7 unknown #
coedge $-1 $301 $302 $163 $223 reversed $303 $-1 #
edge $-1 $228 0 $227 3.141592653589793116 $163 $304 forward 7 unknown #
coedge $-1 $305 $164 $302 $306 reversed $226 $-1 #
coedge $-1 $164 $305 $301 $307 forward $226 $-1 #
loop $-1 $-1 $224 $308 #
vertex $-1 $223 $309 #
vertex $-1 $223 $310 #
ellipse-curve $-1 254 0 133.3499999999999943 0 1 0 8.33119999999998484 0 0 1 I I #
coedge $-1 $311 $166 $169 $236 reversed $232 $-1 #
coedge $-1 $166 $311 $168 $235 forward $232 $-1 #
loop $-1 $-1 $230 $312 #
ellipse-curve $-1 254 0 -133.3499999999999943 0 -1 0 -8.33119999999998484 0 0 1 I I #
coedge $-1 $169 $168 $313 $314 forward $170 $-1 #
edge $-1 $315 2.797412345512205417e-16 $172 1.596421161675113831 $231 $316 forward 7 unknown #
edge $-1 $317 0 $171 1.596421161675113831 $230 $318 forward 7 unknown #
face $-1 $319 $170 $2 $-1 $320 reversed single #
point $-1 262.3311999999999671 0 -133.3499999999999943 #
point $-1 245.6688000000000045 0 -133.3499999999999943 #
coedge $-1 $175 $174 $321 $322 reversed $176 $-1 #
face $-1 $181 $176 $2 $-1 $323 reversed single #
coedge $-1 $324 $325 $178 $243 reversed $326 $-1 #
edge $-1 $244 -7.036174344657225059e-16 $246 3.141592653589799333 $242 $327 forward 7 unknown #
vertex $-1 $328 $329 #
straight-curve $-1 -8.331199999999999051 40.5490975065478878 -133.3499999999999943 0 -25.39999999999999858 0 I I #
vertex $-1 $330 $331 #
straight-curve $-1 8.331199999999999051 40.5490975065478878 -133.3499999999999943 0 -25.39999999999999858 0 I I #
face $-1 $332 $333 $2 $-1 $334 reversed single #
cone-surface $-1 0 53.94325000000000614 -133.3499999999999943 0 -1 0 -8.331199999999999051 0 0 1 I I 0 1 8.331199999999999051 forward I I I I #
coedge $-1 $335 $336 $184 $251 forward $337 $-1 #
edge $-1 $188 -7.036174344657310848e-16 $190 3.141592653589799333 $250 $338 forward 7 unknown #
cone-surface $-1 -254 53.94325000000000614 -133.3499999999999943 0 -1 0 -8.331199999999999051 0 0 1 I I 0 1 8.331199999999999051 forward I I I I #
coedge $-1 $339 $186 $336 $257 reversed $255 $-1 #
coedge $-1 $186 $339 $335 $259 forward $255 $-1 #
loop $-1 $-1 $339 $340 #
ellipse-curve $-1 -254 40.5490975065478878 -133.3499999999999659 0 1 0 -8.33119999999998484 0 -2.255973186038317964e-14 1 I I #
edge $-1 $341 0 $188 0.03300000000000009176 $336 $342 forward 7 unknown #
point $-1 -262.3311999999999671 40.5490975065478807 -133.3499999999999943 #
edge $-1 $343 0 $190 0.0329999999999998489 $335 $344 forward 7 unknown #
point $-1 -245.6688000000000045 40.5490975065478878 -133.3499999999999943 #
face $-1 $345 $346 $2 $-1 $347 reversed single #
loop $-1 $-1 $348 $192 #
cone-surface $-1 0 53.94325000000000614 -133.3499999999999943 0 -1 0 -12.69999999999999929 0 0 1 I I 0 1 12.69999999999999929 forward I I I I #
coedge $-1 $349 $194 $199 $203 reversed $266 $-1 #
coedge $-1 $194 $349 $198 $271 forward $266 $-1 #
loop $-1 $-1 $349 $196 #
ellipse-curve $-1 0 40.5490975065478878 133.3500000000000227 0 1 0 -8.331199999999999051 0 -2.255973186038317964e-14 1 I I #
face $-1 $350 $351 $2 $-1 $352 reversed single #
cone-surface $-1 0 51.51903581853004965 133.3499999999999943 0 -1 0 -14.6646968374164981 0 0 1 I I -0.500000000000000111 0.8660254037844385966 14.6646968374164981 forward I I I I #
coedge $-1 $199 $198 $353 $354 reversed $200 $-1 #
edge $-1 $355 0 $145 0.03299999999999957134 $265 $356 forward 7 unknown #
face $-1 $102 $200 $2 $-1 $357 reversed single #
vertex $-1 $358 $359 #
straight-curve $-1 -8.750299999999999301 41.27499999999999147 133.3499999999999943 12.70000000000000462 -21.99704525612473915 0 I I #
face $-1 $360 $361 $2 $-1 $362 reversed single #
loop $-1 $-1 $363 $205 #
cone-surface $-1 0 53.94325000000000614 133.3499999999999943 0 1 0 -12.69999999999999929 0 0 1 I I 0 1 12.69999999999999929 forward I I I I #
loop $-1 $364 $365 $150 #
coedge $-1 $282 $282 $280 $366 reversed $206 $-1 #
coedge $-1 $208 $210 $279 $366 forward $151 $-1 #
edge $-1 $367 0 $215 0.3749999999999999445 $214 $368 forward 7 unknown #
coedge $-1 $279 $279 $209 $283 reversed $206 $-1 #
edge $-1 $367 0 $284 3.141592653589793116 $282 $369 forward 7 unknown #
vertex $-1 $283 $370 #
straight-curve $-1 -241.2999999999999829 50.79999999999999716 133.3499999999999943 0 -25.39999999999999858 0 I I #
ellipse-curve $-1 -254 41.27499999999999858 133.3499999999999943 0 -1 0 -12.69999999999999929 0 0 1 I I #
point $-1 -266.6999999999999886 41.27499999999999858 133.3499999999999943 #
point $-1 -241.2999999999999829 41.27499999999999858 133.3499999999999943 #
coedge $-1 $371 $218 $372 $373 reversed $118 $-1 #
coedge $-1 $374 $375 $218 $291 forward $376 $-1 #
edge $-1 $377 3.956138478573292698e-16 $298 4.952010210005632906 $218 $378 forward 7 unknown #
coedge $-1 $219 $379 $380 $381 reversed $118 $-1 #
coedge $-1 $382 $383 $219 $294 forward $384 $-1 #
edge $-1 $299 0 $385 4.952010210005634683 $219 $386 forward 7 unknown #
coedge $-1 $387 $220 $383 $388 forward $297 $-1 #
coedge $-1 $220 $387 $374 $389 reversed $297 $-1 #
loop $-1 $-1 $387 $390 #
vertex $-1 $291 $391 #
vertex $-1 $294 $392 #
straight-curve $-1 226.0599999999999454 0 -190.5 -25.39999999999999858 0 0 I I #
coedge $-1 $393 $222 $225 $307 reversed $303 $-1 #
coedge $-1 $222 $393 $224 $306 forward $303 $-1 #
loop $-1 $-1 $301 $394 #
ellipse-curve $-1 254 0 133.3499999999999943 0 1 0 -8.33119999999998484 0 0 1 I I #
coedge $-1 $225 $224 $395 $396 reversed $226 $-1 #
edge $-1 $397 0 $227 1.596421161675113831 $302 $398 forward 7 unknown #
edge $-1 $399 2.797412345512205417e-16 $228 1.596421161675113831 $301 $400 forward 7 unknown #
face $-1 $394 $226 $2 $-1 $401 reversed single #
point $-1 262.3311999999999671 0 133.3499999999999943 #
point $-1 245.6688000000000045 0 133.3499999999999943 #
coedge $-1 $231 $230 $402 $403 reversed $232 $-1 #
face $-1 $237 $232 $2 $-1 $404 reversed single #
coedge $-1 $405 $406 $234 $314 reversed $407 $-1 #
edge $-1 $315 -7.036174344657196463e-16 $317 3.141592653589799333 $313 $408 forward 7 unknown #
vertex $-1 $409 $410 #
straight-curve $-1 245.6688000000000045 40.5490975065478878 -133.3499999999999943 0 -25.39999999999999858 0 I I #
vertex $-1 $411 $412 #
straight-curve $-1 262.3311999999999671 40.5490975065478878 -133.3499999999999943 0 -25.39999999999999858 0 I I #
face $-1 $413 $414 $2 $-1 $415 reversed single #
cone-surface $-1 254 53.94325000000000614 -133.3499999999999943 0 -1 0 -8.331199999999999051 0 0 1 I I 0 1 8.331199999999999051 forward I I I I #
coedge $-1 $416 $417 $240 $322 forward $418 $-1 #
edge $-1 $244 -7.036174344657225059e-16 $246 3.141592653589799333 $321 $419 forward 7 unknown #
cone-surface $-1 0 53.94325000000000614 -133.3499999999999943 0 -1 0 -8.331199999999999051 0 0 1 I I 0 1 8.331199999999999051 forward I I I I #
coedge $-1 $420 $242 $417 $328 reversed $326 $-1 #
coedge $-1 $242 $420 $416 $330 forward $326 $-1 #
loop $-1 $-1 $420 $421 #
ellipse-curve $-1 0 40.5490975065478878 -133.3499999999999659 0 1 0 -8.331199999999999051 0 -2.255973186038317964e-14 1 I I #
edge $-1 $422 0 $244 0.0329999999999998142 $417 $423 forward 7 unknown #
point $-1 -8.331199999999999051 40.5490975065478807 -133.3499999999999943 #
edge $-1 $424 0 $246 0.03299999999999957134 $416 $425 forward 7 unknown #
point $-1 8.331199999999999051 40.5490975065478878 -133.3499999999999943 #
face $-1 $426 $427 $2 $-1 $428 reversed single #
loop $-1 $-1 $429 $248 #
cone-surface $-1 254 53.94325000000000614 -133.3499999999999943 0 -1 0 -12.69999999999999929 0 0 1 I I 0 1 12.69999999999999929 forward I I I I #
coedge $-1 $430 $250 $254 $259 reversed $337 $-1 #
coedge $-1 $250 $430 $253 $257 forward $337 $-1 #
loop $-1 $-1 $250 $431 #
ellipse-curve $-1 -254 40.5490975065478878 -133.3500000000000227 0 -1 0 -8.33119999999998484 0 2.255973186038317964e-14 1 I I #
coedge $-1 $254 $253 $432 $433 forward $255 $-1 #
face $-1 $431 $255 $2 $-1 $434 reversed single #
vertex $-1 $435 $436 #
straight-curve $-1 -262.7502999999999815 41.27499999999999147 -133.3499999999999943 12.70000000000038831 -21.99704525612451533 0 I I #
vertex $-1 $435 $437 #
straight-curve $-1 -245.24969999999999 41.27499999999999147 -133.3499999999999943 -12.70000000000038831 -21.99704525612451533 0 I I #
face $-1 $421 $438 $2 $-1 $439 reversed single #
loop $-1 $-1 $440 $261 #
cone-surface $-1 0 53.94325000000000614 -133.3499999999999943 0 -1 0 -12.69999999999999929 0 0 1 I I 0 1 12.69999999999999929 forward I I I I #
coedge $-1 $441 $442 $443 $444 forward $262 $-1 #
coedge $-1 $265 $264 $445 $358 forward $266 $-1 #
face $-1 $446 $447 $2 $-1 $448 reversed single #
loop $-1 $-1 $449 $268 #
cone-surface $-1 -254 53.94325000000000614 -133.3499999999999943 0 -1 0 -12.69999999999999929 0 0 1 I I 0 1 12.69999999999999929 forward I I I I #
coedge $-1 $445 $445 $270 $354 forward $450 $-1 #
edge $-1 $273 0 $355 3.141592653589793116 $353 $451 forward 7 unknown #
vertex $-1 $358 $452 #
straight-curve $-1 8.750299999999999301 41.27499999999999147 133.3499999999999943 -12.70000000000000462 -21.99704525612473915 0 I I #
cone-surface $-1 0 51.51903581853004965 133.3499999999999943 0 -1 0 -14.6646968374164981 0 0 1 I I -0.500000000000000111 0.8660254037844385966 14.6646968374164981 forward I I I I #
edge $-1 $273 0 $355 3.141592653589793116 $445 $453 forward 7 unknown #
point $-1 -8.750299999999999301 41.27499999999999147 133.3499999999999943 #
face $-1 $272 $450 $2 $-1 $454 forward single #
loop $-1 $-1 $455 $275 #
cone-surface $-1 0 53.94325000000000614 133.3499999999999943 0 1 0 -12.69999999999999929 0 0 1 I I 0 1 12.69999999999999929 forward I I I I #
coedge $-1 $456 $457 $458 $459 forward $276 $-1 #
loop $-1 $460 $461 $150 #
coedge $-1 $462 $462 $457 $463 reversed $278 $-1 #
edge $-1 $284 0 $367 3.141592653589793116 $279 $464 forward 7 unknown #
vertex $-1 $283 $465 #
straight-curve $-1 -266.6999999999999886 50.79999999999999716 133.3499999999999943 0 -25.39999999999999858 0 I I #
ellipse-curve $-1 -254 50.79999999999999716 133.3499999999999943 0 1 0 -12.69999999999999929 0 0 1 I I #
point $-1 -241.2999999999999829 50.79999999999999716 133.3499999999999943 #
coedge $-1 $466 $289 $467 $468 reversed $118 $-1 #
coedge $-1 $469 $470 $289 $373 forward $471 $-1 #
edge $-1 $472 0 $377 7.996799999999995912 $289 $473 forward 7 unknown #
coedge $-1 $474 $290 $296 $389 forward $376 $-1 #
coedge $-1 $290 $474 $469 $475 reversed $376 $-1 #
loop $-1 $-1 $375 $476 #
vertex $-1 $373 $477 #
straight-curve $-1 315.0006399999999758 0 -101.5593599999999554 -17.96051224213830366 0 -17.96051224213830366 I I #
coedge $-1 $292 $466 $478 $479 reversed $118 $-1 #
coedge $-1 $480 $481 $292 $381 forward $482 $-1 #
edge $-1 $385 0 $483 7.996799999999995912 $292 $484 forward 7 unknown #
coedge $-1 $485 $293 $481 $486 forward $384 $-1 #
coedge $-1 $293 $485 $295 $388 reversed $384 $-1 #
loop $-1 $-1 $383 $487 #
vertex $-1 $294 $488 #
straight-curve $-1 -226.0599999999999454 0 -190.5 -17.96051224213830011 0 17.96051224213830722 I I #
coedge $-1 $296 $295 $489 $490 reversed $297 $-1 #
edge $-1 $299 0 $491 2 $295 $492 forward 7 unknown #
edge $-1 $298 0 $493 2 $296 $494 forward 7 unknown #
face $-1 $487 $297 $2 $-1 $495 forward single #
point $-1 226.0599999999999454 0 -190.5 #
point $-1 -226.0599999999999454 0 -190.5 #
coedge $-1 $302 $301 $496 $497 forward $303 $-1 #
face $-1 $498 $303 $2 $-1 $499 reversed single #
coedge $-1 $500 $501 $305 $396 forward $502 $-1 #
edge $-1 $399 -7.036174344657196463e-16 $397 3.141592653589799333 $395 $503 forward 7 unknown #
vertex $-1 $497 $504 #
straight-curve $-1 262.3311999999999671 40.5490975065478878 133.3499999999999943 0 -25.39999999999999858 0 I I #
vertex $-1 $505 $506 #
straight-curve $-1 245.6688000000000045 40.5490975065478878 133.3499999999999943 0 -25.39999999999999858 0 I I #
cone-surface $-1 254 53.94325000000000614 133.3499999999999943 0 1 0 -8.331199999999999051 0 0 1 I I 0 1 8.331199999999999051 forward I I I I #
coedge $-1 $507 $508 $311 $403 forward $509 $-1 #
edge $-1 $315 -7.036174344657196463e-16 $317 3.141592653589799333 $402 $510 forward 7 unknown #
cone-surface $-1 254 53.94325000000000614 -133.3499999999999943 0 -1 0 -8.331199999999999051 0 0 1 I I 0 1 8.331199999999999051 forward I I I I #
coedge $-1 $511 $313 $508 $409 reversed $407 $-1 #
coedge $-1 $313 $511 $507 $411 forward $407 $-1 #
loop $-1 $-1 $511 $512 #
ellipse-curve $-1 254 40.5490975065478878 -133.3499999999999659 0 1 0 -8.33119999999998484 0 -2.255973186038317964e-14 1 I I #
edge $-1 $513 0 $315 0.03300000000000009176 $508 $514 forward 7 unknown #
point $-1 245.6688000000000045 40.5490975065478807 -133.3499999999999943 #
edge $-1 $515 0 $317 0.0329999999999998489 $507 $516 forward 7 unknown #
point $-1 262.3311999999999671 40.5490975065478878 -133.3499999999999943 #
face $-1 $517 $518 $2 $-1 $519 reversed single #
loop $-1 $-1 $520 $319 #
cone-surface $-1 254 53.94325000000000614 133.3499999999999943 0 1 0 -12.69999999999999929 0 0 1 I I 0 1 12.69999999999999929 forward I I I I #
coedge $-1 $521 $321 $325 $330 reversed $418 $-1 #
coedge $-1 $321 $521 $324 $328 forward $418 $-1 #
loop $-1 $-1 $321 $522 #
ellipse-curve $-1 0 40.5490975065478878 -133.3500000000000227 0 -1 0 -8.331199999999999051 0 2.255973186038317964e-14 1 I I #
coedge $-1 $325 $324 $523 $524 forward $326 $-1 #
face $-1 $522 $326 $2 $-1 $525 reversed single #
vertex $-1 $526 $527 #
straight-curve $-1 -8.750299999999999301 41.27499999999999147 -133.3499999999999943 12.70000000000000462 -21.99704525612473915 0 I I #
vertex $-1 $526 $528 #
straight-curve $-1 8.750299999999999301 41.27499999999999147 -133.3499999999999943 -12.70000000000000462 -21.99704525612473915 0 I I #
face $-1 $512 $529 $2 $-1 $530 reversed single #
loop $-1 $-1 $531 $332 #
cone-surface $-1 254 53.94325000000000614 -133.3499999999999943 0 -1 0 -12.69999999999999929 0 0 1 I I 0 1 12.69999999999999929 forward I I I I #
coedge $-1 $532 $533 $534 $535 forward $333 $-1 #
coedge $-1 $336 $335 $536 $435 reversed $337 $-1 #
face $-1 $185 $337 $2 $-1 $537 reversed single #
coedge $-1 $536 $536 $339 $433 reversed $538 $-1 #
edge $-1 $341 0 $343 3.141592653589793116 $432 $539 forward 7 unknown #
cone-surface $-1 -254 51.51903581853004965 -133.3499999999999943 0 -1 0 -14.6646968374164981 0 0 1 I I -0.500000000000000111 0.8660254037844385966 14.6646968374164981 forward I I I I #
edge $-1 $341 0 $343 3.141592653589793116 $536 $540 forward 7 unknown #
point $-1 -262.7502999999999815 41.27499999999999147 -133.3499999999999943 #
point $-1 -245.24969999999999 41.27499999999999147 -133.3499999999999943 #
loop $-1 $541 $523 $345 #
plane-surface $-1 0 41.27499999999999858 -133.3499999999999943 0 -1 0 -25.39999999999999858 0 0 forward_v I I I I #
coedge $-1 $542 $543 $544 $545 forward $346 $-1 #
coedge $-1 $544 $348 $546 $547 reversed $262 $-1 #
coedge $-1 $348 $544 $548 $549 reversed $262 $-1 #
coedge $-1 $543 $542 $348 $444 reversed $346 $-1 #
edge $-1 $550 0 $551 0.3749999999999999445 $443 $552 forward 7 unknown #
coedge $-1 $353 $353 $349 $358 reversed $450 $-1 #
face $-1 $340 $538 $2 $-1 $553 reversed single #
loop $-1 $-1 $554 $350 #
cone-surface $-1 -254 53.94325000000000614 -133.3499999999999943 0 -1 0 -12.69999999999999929 0 0 1 I I 0 1 12.69999999999999929 forward I I I I #
coedge $-1 $555 $556 $557 $558 forward $351 $-1 #
loop $-1 $559 $353 $360 #
ellipse-curve $-1 -3.524958103184871819e-16 41.27499999999999858 133.3499999999999943 6.445416688680153787e-16 -1 0 -8.750299999999999301 -5.63993296509579491e-15 0 1 I I #
point $-1 8.750299999999999301 41.27499999999999147 133.3499999999999943 #
ellipse-curve $-1 -3.524958103184871819e-16 41.27499999999999858 133.3499999999999943 -6.445416688680153787e-16 1 0 -8.750299999999999301 -5.63993296509579491e-15 0 1 I I #
plane-surface $-1 0 41.27499999999999858 133.3499999999999943 0 1 0 -25.39999999999999858 0 0 forward_v I I I I #
coedge $-1 $560 $561 $562 $563 forward $361 $-1 #
coedge $-1 $562 $363 $564 $565 forward $276 $-1 #
coedge $-1 $363 $562 $365 $463 forward $276 $-1 #
coedge $-1 $561 $560 $363 $459 reversed $361 $-1 #
edge $-1 $566 0 $567 0.3749999999999999445 $458 $568 forward 7 unknown #
loop $-1 $569 $548 $150 #
coedge $-1 $570 $570 $556 $571 forward $364 $-1 #
coedge $-1 $365 $365 $561 $572 reversed $278 $-1 #
edge $-1 $573 0 $566 3.141592653589793116 $365 $574 forward 7 unknown #
ellipse-curve $-1 -254 50.79999999999999716 133.3499999999999943 0 1 0 12.69999999999999929 0 0 1 I I #
point $-1 -266.6999999999999886 50.79999999999999716 133.3499999999999943 #
coedge $-1 $379 $371 $575 $576 reversed $118 $-1 #
coedge $-1 $577 $578 $371 $468 forward $579 $-1 #
edge $-1 $580 0 $472 4.952010210005634683 $371 $581 forward 7 unknown #
coedge $-1 $582 $372 $375 $475 forward $471 $-1 #
coedge $-1 $372 $582 $577 $583 reversed $471 $-1 #
loop $-1 $-1 $372 $584 #
vertex $-1 $468 $585 #
straight-curve $-1 315.0006399999999758 0 101.5593599999998986 0 0 -25.39999999999999858 I I #
coedge $-1 $375 $374 $586 $587 reversed $376 $-1 #
edge $-1 $377 0 $588 2 $469 $589 forward 7 unknown #
face $-1 $390 $376 $2 $-1 $590 reversed single #
point $-1 315.0006399999999758 0 -101.5593599999999697 #
coedge $-1 $591 $592 $379 $479 forward $593 $-1 #
edge $-1 $483 3.956138478573292698e-16 $594 4.952010210005632906 $379 $595 forward 7 unknown #
coedge $-1 $596 $380 $592 $597 forward $482 $-1 #
coedge $-1 $380 $596 $382 $486 reversed $482 $-1 #
loop $-1 $-1 $380 $598 #
vertex $-1 $381 $599 #
straight-curve $-1 -315.0006399999999758 0 -101.5593599999998986 0 0 25.39999999999999858 I I #
coedge $-1 $383 $382 $600 $601 reversed $384 $-1 #
edge $-1 $385 0 $602 2 $481 $603 forward 7 unknown #
face $-1 $-1 $384 $2 $-1 $604 reversed single #
point $-1 -315.0006399999999758 0 -101.5593599999998986 #
coedge $-1 $600 $586 $387 $490 forward $605 $-1 #
edge $-1 $493 0 $491 17.79999999999999716 $489 $606 forward 7 unknown #
vertex $-1 $601 $607 #
straight-curve $-1 -226.0599999999999454 0 -190.5 0 25.39999999999999858 0 I I #
vertex $-1 $490 $608 #
straight-curve $-1 226.0599999999999454 0 -190.5 0 25.39999999999999858 0 I I #
plane-surface $-1 315.0006399999999758 0 -190.5 0 0 -1 -25.39999999999999858 0 0 forward_v I I I I #
coedge $-1 $609 $610 $393 $497 reversed $611 $-1 #
edge $-1 $399 -7.036174344657196463e-16 $397 3.141592653589799333 $496 $612 forward 7 unknown #
face $-1 $598 $611 $2 $-1 $613 reversed single #
cone-surface $-1 254 53.94325000000000614 133.3499999999999943 0 1 0 -8.331199999999999051 0 0 1 I I 0 1 8.331199999999999051 forward I I I I #
coedge $-1 $614 $395 $610 $615 reversed $502 $-1 #
coedge $-1 $395 $614 $609 $505 forward $502 $-1 #
loop $-1 $-1 $395 $616 #
ellipse-curve $-1 254 40.5490975065478878 133.3499999999999659 0 -1 0 -8.33119999999998484 0 2.255973186038317964e-14 1 I I #
point $-1 262.3311999999999671 40.5490975065478878 133.3499999999999943 #
edge $-1 $617 0 $399 0.03300000000000009176 $609 $618 forward 7 unknown #
point $-1 245.6688000000000045 40.5490975065478807 133.3499999999999943 #
coedge $-1 $619 $402 $406 $411 reversed $509 $-1 #
coedge $-1 $402 $619 $405 $409 forward $509 $-1 #
loop $-1 $-1 $402 $620 #
ellipse-curve $-1 254 40.5490975065478878 -133.3500000000000227 0 -1 0 -8.33119999999998484 0 2.255973186038317964e-14 1 I I #
coedge $-1 $406 $405 $621 $622 forward $407 $-1 #
face $-1 $620 $407 $2 $-1 $623 reversed single #
vertex $-1 $624 $625 #
straight-curve $-1 245.24969999999999 41.27499999999999147 -133.3499999999999943 12.70000000000038831 -21.99704525612451533 0 I I #
vertex $-1 $624 $626 #
straight-curve $-1 262.7502999999999815 41.27499999999999147 -133.3499999999999943 -12.70000000000038831 -21.99704525612451533 0 I I #
face $-1 $616 $627 $2 $-1 $628 forward single #
loop $-1 $-1 $629 $413 #
cone-surface $-1 254 53.94325000000000614 133.3499999999999943 0 1 0 -12.69999999999999929 0 0 1 I I 0 1 12.69999999999999929 forward I I I I #
coedge $-1 $630 $631 $632 $633 forward $414 $-1 #
coedge $-1 $417 $416 $634 $526 reversed $418 $-1 #
face $-1 $241 $418 $2 $-1 $635 reversed single #
coedge $-1 $634 $634 $420 $524 reversed $438 $-1 #
edge $-1 $422 0 $424 3.141592653589793116 $523 $636 forward 7 unknown #
cone-surface $-1 0 51.51903581853004965 -133.3499999999999943 0 -1 0 -14.6646968374164981 0 0 1 I I -0.500000000000000111 0.8660254037844385966 14.6646968374164981 forward I I I I #
edge $-1 $422 0 $424 3.141592653589793116 $634 $637 forward 7 unknown #
point $-1 -8.750299999999999301 41.27499999999999147 -133.3499999999999943 #
point $-1 8.750299999999999301 41.27499999999999147 -133.3499999999999943 #
loop $-1 $638 $621 $426 #
plane-surface $-1 254 41.27499999999999858 -133.3499999999999943 0 -1 0 -25.39999999999999858 0 0 forward_v I I I I #
coedge $-1 $639 $640 $641 $642 forward $427 $-1 #
coedge $-1 $641 $429 $643 $644 reversed $333 $-1 #
coedge $-1 $429 $641 $645 $646 reversed $333 $-1 #
coedge $-1 $640 $639 $429 $535 reversed $427 $-1 #
edge $-1 $647 0 $648 0.3749999999999999445 $534 $649 forward 7 unknown #
coedge $-1 $432 $432 $430 $435 forward $538 $-1 #
cone-surface $-1 -254 51.51903581853004965 -133.3499999999999943 0 -1 0 -14.6646968374164981 0 0 1 I I -0.500000000000000111 0.8660254037844385966 14.6646968374164981 forward I I I I #
loop $-1 $650 $432 $446 #
ellipse-curve $-1 -254 41.27499999999999858 -133.3499999999999943 -6.445416688680153787e-16 1 0 -8.750300000000001077 -5.63993296509579491e-15 0 1 I I #
ellipse-curve $-1 -254 41.27499999999999858 -133.3499999999999943 6.445416688680153787e-16 -1 0 -8.750300000000001077 -5.63993296509579491e-15 0 1 I I #
loop $-1 $-1 $651 $345 #
coedge $-1 $443 $440 $651 $652 forward $346 $-1 #
coedge $-1 $440 $443 $653 $654 reversed $346 $-1 #
coedge $-1 $442 $441 $440 $545 reversed $262 $-1 #
edge $-1 $655 0 $656 0.3749999999999999445 $440 $657 forward 7 unknown #
coedge $-1 $651 $651 $441 $547 forward $541 $-1 #
edge $-1 $656 0 $551 3.141592653589793116 $546 $658 forward 7 unknown #
coedge $-1 $653 $653 $442 $549 forward $460 $-1 #
edge $-1 $550 0 $655 3.141592653589793116 $548 $659 forward 7 unknown #
vertex $-1 $654 $660 #
vertex $-1 $444 $661 #
straight-curve $-1 12.69999999999999929 50.79999999999999716 -133.3499999999999943 0 -25.39999999999999858 0 I I #
plane-surface $-1 -254 41.27499999999999858 -133.3499999999999943 0 -1 0 -25.39999999999999858 0 0 forward_v I I I I #
coedge $-1 $662 $663 $664 $665 forward $447 $-1 #
coedge $-1 $664 $449 $666 $667 reversed $351 $-1 #
coedge $-1 $449 $664 $461 $571 reversed $351 $-1 #
coedge $-1 $663 $662 $449 $558 reversed $447 $-1 #
edge $-1 $668 0 $669 0.3749999999999999445 $557 $670 forward 7 unknown #
loop $-1 $-1 $671 $360 #
coedge $-1 $458 $455 $671 $672 reversed $361 $-1 #
coedge $-1 $455 $458 $462 $572 forward $361 $-1 #
coedge $-1 $457 $456 $455 $563 reversed $276 $-1 #
edge $-1 $573 0 $673 0.3749999999999999445 $455 $674 forward 7 unknown #
coedge $-1 $671 $671 $456 $565 reversed $559 $-1 #
edge $-1 $567 0 $673 3.141592653589793116 $564 $675 forward 7 unknown #
vertex $-1 $572 $676 #
vertex $-1 $459 $677 #
straight-curve $-1 -12.69999999999999929 50.79999999999999716 133.3499999999999943 0 -25.39999999999999858 0 I I #
loop $-1 $678 $645 $150 #
coedge $-1 $461 $461 $663 $679 forward $364 $-1 #
edge $-1 $668 0 $680 3.141592653589793116 $461 $681 forward 7 unknown #
edge $-1 $566 0 $573 3.141592653589793116 $462 $682 forward 7 unknown #
vertex $-1 $572 $683 #
ellipse-curve $-1 0 50.79999999999999716 133.3499999999999943 0 1 0 12.69999999999999929 0 0 1 I I #
coedge $-1 $684 $685 $466 $576 forward $686 $-1 #
edge $-1 $594 0 $580 17.79999999999999716 $466 $687 forward 7 unknown #
coedge $-1 $688 $467 $470 $583 forward $579 $-1 #
coedge $-1 $467 $688 $684 $689 reversed $579 $-1 #
loop $-1 $-1 $578 $690 #
vertex $-1 $576 $691 #
straight-curve $-1 226.0599999999999454 0 190.5 17.96051224213830011 0 -17.96051224213830722 I I #
coedge $-1 $470 $469 $692 $693 reversed $471 $-1 #
edge $-1 $472 0 $694 2 $470 $695 forward 7 unknown #
face $-1 $476 $471 $2 $-1 $696 forward single #
point $-1 315.0006399999999758 0 101.5593599999998986 #
coedge $-1 $489 $692 $474 $587 forward $605 $-1 #
edge $-1 $588 3.956138478573292698e-16 $493 4.952010210005632906 $586 $697 forward 7 unknown #
vertex $-1 $587 $698 #
straight-curve $-1 315.0006400000000326 0 -101.559359999999927 0 25.39999999999999858 0 I I #
plane-surface $-1 315.0006399999999758 55.87999999999998835 -101.5593599999999554 -0.7071067811865475727 0 0.7071067811865475727 -17.96051224213830366 0 -17.96051224213830366 forward_v I I I I #
coedge $-1 $699 $478 $685 $700 forward $593 $-1 #
coedge $-1 $478 $699 $480 $597 reversed $593 $-1 #
loop $-1 $-1 $592 $701 #
vertex $-1 $479 $702 #
straight-curve $-1 -315.0006399999999758 0 101.5593599999999554 17.96051224213830366 0 17.96051224213830366 I I #
coedge $-1 $481 $480 $703 $704 reversed $482 $-1 #
edge $-1 $483 0 $705 2 $480 $706 forward 7 unknown #
face $-1 $701 $482 $2 $-1 $707 forward single #
point $-1 -315.0006399999999758 0 101.5593599999999697 #
coedge $-1 $703 $489 $485 $601 forward $605 $-1 #
edge $-1 $491 0 $602 4.952010210005634683 $600 $708 forward 7 unknown #
vertex $-1 $601 $709 #
straight-curve $-1 -315.0006399999999758 0 -101.5593599999999128 0 25.39999999999999858 0 I I #
plane-surface $-1 -226.0599999999999454 55.87999999999998835 -190.5 0.7071067811865476838 0 0.7071067811865473507 -17.96051224213830011 0 17.96051224213830722 forward_v I I I I #
loop $-1 $-1 $703 $150 #
straight-curve $-1 226.0599999999999454 50.79999999999999716 -190.5 -25.39999999999999858 0 0 I I #
point $-1 -226.0599999999999454 50.79999999999999716 -190.5 #
point $-1 226.0599999999999454 50.79999999999999716 -190.5 #
coedge $-1 $710 $496 $501 $505 reversed $611 $-1 #
coedge $-1 $496 $710 $500 $615 forward $611 $-1 #
loop $-1 $-1 $710 $498 #
ellipse-curve $-1 254 40.5490975065478878 133.3500000000000227 0 1 0 -8.33119999999998484 0 -2.255973186038317964e-14 1 I I #
cone-surface $-1 254 51.51903581853004965 133.3499999999999943 0 -1 0 -14.6646968374164981 0 0 1 I I -0.500000000000000111 0.8660254037844385966 14.6646968374164981 forward I I I I #
coedge $-1 $501 $500 $711 $712 reversed $502 $-1 #
edge $-1 $713 0 $397 0.0329999999999998489 $610 $714 forward 7 unknown #
face $-1 $308 $502 $2 $-1 $715 reversed single #
vertex $-1 $716 $717 #
straight-curve $-1 245.24969999999999 41.27499999999999147 133.3499999999999943 12.70000000000038831 -21.99704525612451533 0 I I #
coedge $-1 $508 $507 $718 $624 reversed $509 $-1 #
face $-1 $312 $509 $2 $-1 $719 reversed single #
coedge $-1 $718 $718 $511 $622 reversed $529 $-1 #
edge $-1 $513 0 $515 3.141592653589793116 $621 $720 forward 7 unknown #
cone-surface $-1 254 51.51903581853004965 -133.3499999999999943 0 -1 0 -14.6646968374164981 0 0 1 I I -0.500000000000000111 0.8660254037844385966 14.6646968374164981 forward I I I I #
edge $-1 $513 0 $515 3.141592653589793116 $718 $721 forward 7 unknown #
point $-1 245.24969999999999 41.27499999999999147 -133.3499999999999943 #
point $-1 262.7502999999999815 41.27499999999999147 -133.3499999999999943 #
loop $-1 $722 $711 $517 #
plane-surface $-1 254 41.27499999999999858 133.3499999999999943 0 1 0 -25.39999999999999858 0 0 forward_v I I I I #
coedge $-1 $723 $724 $725 $726 forward $518 $-1 #
coedge $-1 $725 $520 $727 $728 forward $414 $-1 #
coedge $-1 $520 $725 $729 $730 forward $414 $-1 #
coedge $-1 $724 $723 $520 $633 reversed $518 $-1 #
edge $-1 $731 0 $732 0.3749999999999999445 $632 $733 forward 7 unknown #
coedge $-1 $523 $523 $521 $526 forward $438 $-1 #
cone-surface $-1 0 51.51903581853004965 -133.3499999999999943 0 -1 0 -14.6646968374164981 0 0 1 I I -0.500000000000000111 0.8660254037844385966 14.6646968374164981 forward I I I I #
ellipse-curve $-1 -3.524958103184871819e-16 41.27499999999999858 -133.3499999999999943 -6.445416688680153787e-16 1 0 -8.750299999999999301 -5.63993296509579491e-15 0 1 I I #
ellipse-curve $-1 -3.524958103184871819e-16 41.27499999999999858 -133.3499999999999943 6.445416688680153787e-16 -1 0 -8.750299999999999301 -5.63993296509579491e-15 0 1 I I #
loop $-1 $-1 $734 $426 #
coedge $-1 $534 $531 $734 $735 forward $427 $-1 #
coedge $-1 $531 $534 $736 $737 reversed $427 $-1 #
coedge $-1 $533 $532 $531 $642 reversed $333 $-1 #
edge $-1 $738 0 $739 0.3749999999999999445 $531 $740 forward 7 unknown #
coedge $-1 $734 $734 $532 $644 forward $638 $-1 #
edge $-1 $739 0 $648 3.141592653589793116 $643 $741 forward 7 unknown #
coedge $-1 $736 $736 $533 $646 forward $569 $-1 #
edge $-1 $647 0 $738 3.141592653589793116 $645 $742 forward 7 unknown #
vertex $-1 $737 $743 #
vertex $-1 $535 $744 #
straight-curve $-1 266.6999999999999886 50.79999999999999716 -133.3499999999999943 0 -25.39999999999999858 0 I I #
loop $-1 $-1 $745 $446 #
coedge $-1 $546 $546 $542 $652 reversed $541 $-1 #
edge $-1 $656 0 $551 3.141592653589793116 $542 $746 forward 7 unknown #
coedge $-1 $548 $548 $543 $654 forward $460 $-1 #
edge $-1 $655 0 $550 3.141592653589793116 $653 $747 forward 7 unknown #
vertex $-1 $654 $748 #
vertex $-1 $652 $749 #
straight-curve $-1 -12.69999999999999929 50.79999999999999716 -133.3499999999999943 0 -25.39999999999999858 0 I I #
ellipse-curve $-1 0 41.27499999999999858 -133.3499999999999943 0 1 0 -12.69999999999999929 0 0 1 I I #
ellipse-curve $-1 0 50.79999999999999716 -133.3499999999999943 0 -1 0 12.69999999999999929 0 0 1 I I #
point $-1 12.69999999999999929 50.79999999999999716 -133.3499999999999943 #
point $-1 12.69999999999999929 41.27499999999999858 -133.3499999999999943 #
coedge $-1 $557 $554 $745 $750 forward $447 $-1 #
coedge $-1 $554 $557 $570 $679 reversed $447 $-1 #
coedge $-1 $556 $555 $554 $665 reversed $351 $-1 #
edge $-1 $680 0 $751 0.3749999999999999445 $554 $752 forward 7 unknown #
coedge $-1 $745 $745 $555 $667 forward $650 $-1 #
edge $-1 $751 0 $669 3.141592653589793116 $666 $753 forward 7 unknown #
vertex $-1 $679 $754 #
vertex $-1 $558 $755 #
straight-curve $-1 -241.2999999999999829 50.79999999999999716 -133.3499999999999943 0 -25.39999999999999858 0 I I #
coedge $-1 $564 $564 $560 $672 forward $559 $-1 #
edge $-1 $567 0 $673 3.141592653589793116 $560 $756 forward 7 unknown #
vertex $-1 $672 $757 #
straight-curve $-1 12.69999999999999929 50.79999999999999716 133.3499999999999943 0 -25.39999999999999858 0 I I #
ellipse-curve $-1 0 41.27499999999999858 133.3499999999999943 0 -1 0 -12.69999999999999929 0 0 1 I I #
point $-1 -12.69999999999999929 50.79999999999999716 133.3499999999999943 #
point $-1 -12.69999999999999929 41.27499999999999858 133.3499999999999943 #
loop $-1 $605 $729 $150 #
edge $-1 $680 0 $668 3.141592653589793116 $570 $758 forward 7 unknown #
vertex $-1 $679 $759 #
ellipse-curve $-1 -254 50.79999999999999716 -133.3499999999999943 0 -1 0 12.69999999999999929 0 0 1 I I #
ellipse-curve $-1 0 50.79999999999999716 133.3499999999999943 0 1 0 -12.69999999999999929 0 0 1 I I #
point $-1 12.69999999999999929 50.79999999999999716 133.3499999999999943 #
coedge $-1 $760 $575 $578 $689 forward $686 $-1 #
coedge $-1 $575 $760 $591 $700 reversed $686 $-1 #
loop $-1 $-1 $575 $761 #
straight-curve $-1 -226.0599999999999454 0 190.5 25.39999999999999858 0 0 I I #
coedge $-1 $578 $577 $762 $763 reversed $579 $-1 #
edge $-1 $580 0 $764 2 $684 $765 forward 7 unknown #
face $-1 $584 $579 $2 $-1 $766 reversed single #
point $-1 226.0599999999999454 0 190.5 #
coedge $-1 $586 $762 $582 $693 forward $605 $-1 #
edge $-1 $694 5.594824691024410835e-16 $588 7.996799999999995912 $692 $767 forward 7 unknown #
vertex $-1 $693 $768 #
straight-curve $-1 315.0006399999999758 0 101.5593599999999128 0 25.39999999999999858 0 I I #
plane-surface $-1 315.0006399999999758 0 190.5 1 0 0 0 0 -25.39999999999999858 forward_v I I I I #
straight-curve $-1 315.0006399999999758 50.79999999999999716 -101.5593599999999554 -17.96051224213830366 0 -17.96051224213830366 I I #
point $-1 315.0006399999999758 50.79999999999999716 -101.5593599999999697 #
coedge $-1 $592 $591 $769 $770 reversed $593 $-1 #
edge $-1 $594 0 $771 2 $685 $772 forward 7 unknown #
face $-1 $761 $593 $2 $-1 $773 reversed single #
point $-1 -226.0599999999999454 0 190.5 #
coedge $-1 $769 $600 $596 $704 forward $605 $-1 #
edge $-1 $602 0 $705 7.996799999999995912 $703 $774 forward 7 unknown #
vertex $-1 $770 $775 #
straight-curve $-1 -315.0006400000000326 0 101.559359999999927 0 25.39999999999999858 0 I I #
plane-surface $-1 -315.0006399999999758 0 -190.5 -1 0 0 0 0 25.39999999999999858 forward_v I I I I #
straight-curve $-1 -226.0599999999999454 50.79999999999999716 -190.5 -17.96051224213830011 0 17.96051224213830722 I I #
point $-1 -315.0006399999999758 50.79999999999999716 -101.5593599999998986 #
coedge $-1 $610 $609 $776 $716 forward $611 $-1 #
coedge $-1 $776 $776 $614 $712 forward $627 $-1 #
edge $-1 $617 0 $713 3.141592653589793116 $711 $777 forward 7 unknown #
vertex $-1 $716 $778 #
straight-curve $-1 262.7502999999999815 41.27499999999999147 133.3499999999999943 -12.70000000000038831 -21.99704525612451533 0 I I #
cone-surface $-1 254 51.51903581853004965 133.3499999999999943 0 -1 0 -14.6646968374164981 0 0 1 I I -0.500000000000000111 0.8660254037844385966 14.6646968374164981 forward I I I I #
edge $-1 $617 0 $713 3.141592653589793116 $776 $779 forward 7 unknown #
point $-1 245.24969999999999 41.27499999999999147 133.3499999999999943 #
coedge $-1 $621 $621 $619 $624 forward $529 $-1 #
cone-surface $-1 254 51.51903581853004965 -133.3499999999999943 0 -1 0 -14.6646968374164981 0 0 1 I I -0.500000000000000111 0.8660254037844385966 14.6646968374164981 forward I I I I #
ellipse-curve $-1 254 41.27499999999999858 -133.3499999999999943 -6.445416688680153787e-16 1 0 -8.750300000000001077 -5.63993296509579491e-15 0 1 I I #
ellipse-curve $-1 254 41.27499999999999858 -133.3499999999999943 6.445416688680153787e-16 -1 0 -8.750300000000001077 -5.63993296509579491e-15 0 1 I I #
loop $-1 $-1 $780 $517 #
coedge $-1 $632 $629 $780 $781 reversed $518 $-1 #
coedge $-1 $629 $632 $782 $783 forward $518 $-1 #
coedge $-1 $631 $630 $629 $726 reversed $414 $-1 #
edge $-1 $784 0 $785 0.3749999999999999445 $629 $786 forward 7 unknown #
coedge $-1 $780 $780 $630 $728 reversed $722 $-1 #
edge $-1 $732 0 $785 3.141592653589793116 $727 $787 forward 7 unknown #
coedge $-1 $782 $782 $631 $730 reversed $678 $-1 #
edge $-1 $784 0 $731 3.141592653589793116 $729 $788 forward 7 unknown #
vertex $-1 $783 $789 #
vertex $-1 $633 $790 #
straight-curve $-1 241.2999999999999829 50.79999999999999716 133.3499999999999943 0 -25.39999999999999858 0 I I #
coedge $-1 $643 $643 $639 $735 reversed $638 $-1 #
edge $-1 $739 0 $648 3.141592653589793116 $639 $791 forward 7 unknown #
coedge $-1 $645 $645 $640 $737 forward $569 $-1 #
edge $-1 $738 0 $647 3.141592653589793116 $736 $792 forward 7 unknown #
vertex $-1 $737 $793 #
vertex $-1 $735 $794 #
straight-curve $-1 241.2999999999999829 50.79999999999999716 -133.3499999999999943 0 -25.39999999999999858 0 I I #
ellipse-curve $-1 254 41.27499999999999858 -133.3499999999999943 0 1 0 -12.69999999999999929 0 0 1 I I #
ellipse-curve $-1 254 50.79999999999999716 -133.3499999999999943 0 -1 0 12.69999999999999929 0 0 1 I I #
point $-1 266.6999999999999886 50.79999999999999716 -133.3499999999999943 #
point $-1 266.6999999999999886 41.27499999999999858 -133.3499999999999943 #
coedge $-1 $666 $666 $662 $750 reversed $650 $-1 #
ellipse-curve $-1 0 41.27499999999999858 -133.3499999999999943 0 -1 0 -12.69999999999999929 0 0 1 I I #
ellipse-curve $-1 0 50.79999999999999716 -133.3499999999999943 0 -1 0 -12.69999999999999929 0 0 1 I I #
point $-1 -12.69999999999999929 50.79999999999999716 -133.3499999999999943 #
point $-1 -12.69999999999999929 41.27499999999999858 -133.3499999999999943 #
edge $-1 $751 0 $669 3.141592653589793116 $662 $795 forward 7 unknown #
vertex $-1 $750 $796 #
straight-curve $-1 -266.6999999999999886 50.79999999999999716 -133.3499999999999943 0 -25.39999999999999858 0 I I #
ellipse-curve $-1 -254 41.27499999999999858 -133.3499999999999943 0 1 0 -12.69999999999999929 0 0 1 I I #
point $-1 -241.2999999999999829 50.79999999999999716 -133.3499999999999943 #
point $-1 -241.2999999999999829 41.27499999999999858 -133.3499999999999943 #
ellipse-curve $-1 0 41.27499999999999858 133.3499999999999943 0 1 0 -12.69999999999999929 0 0 1 I I #
point $-1 12.69999999999999929 41.27499999999999858 133.3499999999999943 #
ellipse-curve $-1 -254 50.79999999999999716 -133.3499999999999943 0 -1 0 -12.69999999999999929 0 0 1 I I #
point $-1 -266.6999999999999886 50.79999999999999716 -133.3499999999999943 #
coedge $-1 $685 $684 $797 $798 reversed $686 $-1 #
face $-1 $690 $686 $2 $-1 $799 forward single #
coedge $-1 $692 $797 $688 $763 forward $605 $-1 #
edge $-1 $764 0 $694 4.952010210005634683 $762 $800 forward 7 unknown #
vertex $-1 $763 $801 #
straight-curve $-1 226.0599999999999454 0 190.5 0 25.39999999999999858 0 I I #
plane-surface $-1 226.0599999999999454 55.87999999999998835 190.5 -0.7071067811865476838 0 -0.7071067811865473507 17.96051224213830011 0 -17.96051224213830722 forward_v I I I I #
straight-curve $-1 315.0006399999999758 50.79999999999999716 101.5593599999998986 0 0 -25.39999999999999858 I I #
point $-1 315.0006399999999758 50.79999999999999716 101.5593599999998844 #
coedge $-1 $797 $703 $699 $770 forward $605 $-1 #
edge $-1 $705 3.956138478573292698e-16 $771 4.952010210005632906 $769 $802 forward 7 unknown #
vertex $-1 $798 $803 #
straight-curve $-1 -226.0599999999999454 0 190.5 0 25.39999999999999858 0 I I #
plane-surface $-1 -315.0006399999999758 55.87999999999998835 101.5593599999999554 0.7071067811865475727 0 -0.7071067811865475727 17.96051224213830366 0 17.96051224213830366 forward_v I I I I #
straight-curve $-1 -315.0006399999999758 50.79999999999999716 -101.5593599999998986 0 0 25.39999999999999858 I I #
point $-1 -315.0006399999999758 50.79999999999999716 101.5593599999999697 #
coedge $-1 $711 $711 $710 $716 reversed $627 $-1 #
ellipse-curve $-1 254 41.27499999999999858 133.3499999999999943 6.445416688680153787e-16 -1 0 -8.750300000000001077 -5.63993296509579491e-15 0 1 I I #
point $-1 262.7502999999999815 41.27499999999999147 133.3499999999999943 #
ellipse-curve $-1 254 41.27499999999999858 133.3499999999999943 -6.445416688680153787e-16 1 0 -8.750300000000001077 -5.63993296509579491e-15 0 1 I I #
coedge $-1 $727 $727 $723 $781 forward $722 $-1 #
edge $-1 $732 0 $785 3.141592653589793116 $723 $804 forward 7 unknown #
coedge $-1 $729 $729 $724 $783 reversed $678 $-1 #
edge $-1 $731 0 $784 3.141592653589793116 $782 $805 forward 7 unknown #
vertex $-1 $783 $806 #
vertex $-1 $781 $807 #
straight-curve $-1 266.6999999999999886 50.79999999999999716 133.3499999999999943 0 -25.39999999999999858 0 I I #
ellipse-curve $-1 254 41.27499999999999858 133.3499999999999943 0 -1 0 -12.69999999999999929 0 0 1 I I #
ellipse-curve $-1 254 50.79999999999999716 133.3499999999999943 0 1 0 12.69999999999999929 0 0 1 I I #
point $-1 241.2999999999999829 50.79999999999999716 133.3499999999999943 #
point $-1 241.2999999999999829 41.27499999999999858 133.3499999999999943 #
ellipse-curve $-1 254 41.27499999999999858 -133.3499999999999943 0 -1 0 -12.69999999999999929 0 0 1 I I #
ellipse-curve $-1 254 50.79999999999999716 -133.3499999999999943 0 -1 0 -12.69999999999999929 0 0 1 I I #
point $-1 241.2999999999999829 50.79999999999999716 -133.3499999999999943 #
point $-1 241.2999999999999829 41.27499999999999858 -133.3499999999999943 #
ellipse-curve $-1 -254 41.27499999999999858 -133.3499999999999943 0 -1 0 -12.69999999999999929 0 0 1 I I #
point $-1 -266.6999999999999886 41.27499999999999858 -133.3499999999999943 #
coedge $-1 $762 $769 $760 $798 forward $605 $-1 #
edge $-1 $771 0 $764 17.79999999999999716 $797 $808 forward 7 unknown #
plane-surface $-1 -315.0006399999999758 0 190.5 0 0 1 25.39999999999999858 0 0 forward_v I I I I #
straight-curve $-1 226.0599999999999454 50.79999999999999716 190.5 17.96051224213830011 0 -17.96051224213830722 I I #
point $-1 226.0599999999999454 50.79999999999999716 190.5 #
straight-curve $-1 -315.0006399999999758 50.79999999999999716 101.5593599999999554 17.96051224213830366 0 17.96051224213830366 I I #
point $-1 -226.0599999999999454 50.79999999999999716 190.5 #
ellipse-curve $-1 254 41.27499999999999858 133.3499999999999943 0 1 0 -12.69999999999999929 0 0 1 I I #
ellipse-curve $-1 254 50.79999999999999716 133.3499999999999943 0 1 0 -12.69999999999999929 0 0 1 I I #
point $-1 266.6999999999999886 50.79999999999999716 133.3499999999999943 #
point $-1 266.6999999999999886 41.27499999999999858 133.3499999999999943 #
straight-curve $-1 -226.0599999999999454 50.79999999999999716 190.5 25.39999999999999858 0 0 I I #
End-of-ACIS-data 