600 0 1 0           
96 GICL Pro/E ACIS Translator - Source: f:/data5/repository/PTC/V18/mfgmill18/fixture/hmj.prt - 6 0 13 ACIS 6.0.3 NT 24 Thu Apr 04 09:59:23 2002 
1 9.9999999999999995e-007 1e-010 
body $-1 $1 $-1 $2 #
lump $-1 $-1 $3 $0 #
transform $-1 1 0 0 0 1 0 0 0 1 0 0 0 25.399999999999999 no_rotate no_reflect no_shear #
shell $-1 $-1 $-1 $4 $-1 $1 #
face $-1 $5 $6 $3 $-1 $7 forward single #
face $-1 $8 $9 $3 $-1 $10 forward single #
loop $-1 $-1 $11 $4 #
plane-surface $-1 -9 0 -0.25 0 1 0 0 0 1 forward_v I I I I #
face $-1 $12 $13 $3 $-1 $14 forward single #
loop $-1 $-1 $15 $5 #
plane-surface $-1 -9 0 0.25 0 0 1 0 -1 0 forward_v I I I I #
coedge $-1 $16 $17 $18 $19 forward $6 $-1 #
face $-1 $20 $21 $3 $-1 $22 forward single #
loop $-1 $-1 $23 $8 #
plane-surface $-1 -9 -0.12 0.25 0 1 0 0 0 1 forward_v I I I I #
coedge $-1 $24 $25 $26 $27 forward $9 $-1 #
coedge $-1 $28 $11 $29 $30 reversed $6 $-1 #
coedge $-1 $11 $31 $32 $33 reversed $6 $-1 #
coedge $-1 $25 $24 $11 $19 reversed $9 $-1 #
edge $-1 $34 8.8817841970012523e-016 $35 0.84549150281252672 $11 $36 forward 7 unknown #
face $-1 $37 $38 $3 $-1 $39 forward single #
loop $-1 $-1 $40 $12 #
plane-surface $-1 -9 0 0.25 0 0 1 0 -1 0 forward_v I I I I #
coedge $-1 $41 $42 $43 $44 reversed $13 $-1 #
coedge $-1 $18 $15 $45 $46 reversed $9 $-1 #
coedge $-1 $15 $18 $47 $48 reversed $9 $-1 #
coedge $-1 $42 $49 $15 $27 reversed $13 $-1 #
edge $-1 $50 0 $51 0.84549150281252672 $15 $52 forward 7 unknown #
coedge $-1 $31 $16 $53 $54 forward $6 $-1 #
coedge $-1 $45 $55 $16 $30 forward $56 $-1 #
edge $-1 $57 0 $35 0.5 $16 $58 forward 7 unknown #
coedge $-1 $17 $28 $59 $60 reversed $6 $-1 #
coedge $-1 $61 $47 $17 $33 forward $62 $-1 #
edge $-1 $34 0 $63 0.72972765622695157 $17 $64 forward 7 unknown #
vertex $-1 $33 $65 #
vertex $-1 $30 $66 #
straight-curve $-1 -7.8454915028125267 0 0.25 1 0 0 I I #
face $-1 $67 $68 $3 $-1 $69 reversed single #
loop $-1 $-1 $70 $20 #
plane-surface $-1 -9 0 -0.25 0 1 0 0 0 1 forward_v I I I I #
coedge $-1 $71 $72 $73 $74 reversed $21 $-1 #
coedge $-1 $75 $23 $76 $77 forward $13 $-1 #
coedge $-1 $23 $26 $78 $79 reversed $13 $-1 #
coedge $-1 $72 $71 $23 $44 forward $21 $-1 #
edge $-1 $80 0 $81 0.59201861053581695 $43 $82 forward 7 unknown #
coedge $-1 $83 $29 $24 $46 forward $56 $-1 #
edge $-1 $35 0 $51 0.12 $24 $84 forward 7 unknown #
coedge $-1 $32 $78 $25 $48 forward $62 $-1 #
edge $-1 $50 0 $34 0.12 $25 $85 forward 7 unknown #
coedge $-1 $26 $75 $83 $86 reversed $13 $-1 #
vertex $-1 $48 $87 #
vertex $-1 $46 $88 #
straight-curve $-1 -7.8454915028125267 -0.12 0.25 1 0 0 I I #
coedge $-1 $89 $90 $28 $54 reversed $91 $-1 #
edge $-1 $57 0 $92 0.84549150281252672 $28 $93 forward 7 unknown #
coedge $-1 $29 $94 $89 $95 forward $56 $-1 #
loop $-1 $-1 $96 $97 #
vertex $-1 $54 $98 #
straight-curve $-1 -7 0 -0.25 0 0 1 I I #
coedge $-1 $99 $100 $31 $60 forward $68 $-1 #
edge $-1 $63 0 $92 0.72972765622696334 $31 $101 forward 7 unknown #
coedge $-1 $102 $32 $100 $103 reversed $62 $-1 #
loop $-1 $-1 $47 $104 #
vertex $-1 $33 $105 #
ellipse-curve $-1 -8.1250000000000071 0 -1.9706458687096529e-015 0 1 0 0.27950849718748128 0 0.250000000000002 1 I I #
point $-1 -7.8454915028125258 0 0.25 #
point $-1 -7 0 0.25 #
face $-1 $106 $107 $3 $-1 $108 forward single #
loop $-1 $-1 $109 $37 #
cone-surface $-1 -8.125 -1.5 0 0 1 0 0.375 0 0 1 I I 0 1 0.375 forward I I I I #
coedge $-1 $110 $111 $112 $113 reversed $38 $-1 #
coedge $-1 $43 $40 $114 $115 reversed $21 $-1 #
coedge $-1 $40 $43 $116 $117 forward $21 $-1 #
coedge $-1 $111 $118 $40 $74 forward $38 $-1 #
edge $-1 $119 0 $120 0.59201861053581872 $73 $121 forward 7 unknown #
coedge $-1 $49 $41 $122 $123 forward $13 $-1 #
coedge $-1 $114 $124 $41 $77 reversed $125 $-1 #
edge $-1 $80 0 $126 0.083559663077169513 $41 $127 forward 7 unknown #
coedge $-1 $47 $116 $42 $79 forward $62 $-1 #
edge $-1 $81 0 $50 1.6821373411358667 $42 $128 forward 7 unknown #
vertex $-1 $44 $129 #
vertex $-1 $117 $130 #
straight-curve $-1 -8.9965271077232902 -0.12 0.25 1 0 0 I I #
coedge $-1 $131 $45 $49 $86 forward $56 $-1 #
straight-curve $-1 -7 0 0.25 0 -1 0 I I #
straight-curve $-1 -7.8454915028125267 -0.12 0.25 0 1 0 I I #
edge $-1 $51 0 $132 0.75 $49 $133 forward 7 unknown #
point $-1 -7.8454915028125267 -0.12 0.25 #
point $-1 -7 -0.12 0.25 #
coedge $-1 $134 $53 $55 $95 reversed $91 $-1 #
coedge $-1 $53 $134 $99 $135 forward $91 $-1 #
loop $-1 $-1 $53 $136 #
vertex $-1 $60 $137 #
straight-curve $-1 -7 0 -0.25 -1 0 0 I I #
coedge $-1 $55 $96 $138 $139 forward $56 $-1 #
edge $-1 $140 0 $57 0.12 $89 $141 forward 7 unknown #
coedge $-1 $94 $142 $143 $144 reversed $56 $-1 #
face $-1 $145 $56 $3 $-1 $146 reversed single #
point $-1 -7 0 -0.25 #
coedge $-1 $147 $59 $90 $135 reversed $68 $-1 #
coedge $-1 $59 $148 $61 $103 forward $68 $-1 #
ellipse-curve $-1 -8.1250000000000018 0 9.4368957093138306e-016 0 1 0 0.37500000000000178 0 -9.4368957093138306e-016 1 I I #
coedge $-1 $149 $61 $150 $151 reversed $62 $-1 #
edge $-1 $152 0 $63 1.5 $100 $153 forward 7 unknown #
face $-1 $154 $62 $3 $-1 $155 reversed single #
point $-1 -7.75 0 0 #
face $-1 $136 $156 $3 $-1 $157 forward single #
loop $-1 $-1 $158 $67 #
plane-surface $-1 -9 -0.12 -0.25 0 0 -1 0 1 0 forward_v I I I I #
coedge $-1 $112 $147 $159 $160 forward $68 $-1 #
coedge $-1 $118 $70 $161 $162 forward $38 $-1 #
coedge $-1 $70 $73 $163 $164 reversed $38 $-1 #
coedge $-1 $165 $109 $70 $113 forward $68 $-1 #
edge $-1 $166 0 $167 0.72972765622700986 $70 $168 forward 7 unknown #
coedge $-1 $169 $76 $71 $115 forward $125 $-1 #
edge $-1 $80 0 $119 0.12 $71 $170 forward 7 unknown #
coedge $-1 $78 $163 $72 $117 reversed $62 $-1 #
edge $-1 $81 0 $120 0.12 $72 $171 forward 7 unknown #
coedge $-1 $73 $110 $169 $172 forward $38 $-1 #
vertex $-1 $74 $173 #
vertex $-1 $164 $174 #
straight-curve $-1 -8.996527107723292 0 0.25 1 0 0 I I #
coedge $-1 $175 $176 $75 $123 reversed $177 $-1 #
edge $-1 $126 0 $132 1.9442719099991592 $75 $178 forward 7 unknown #
coedge $-1 $76 $179 $175 $180 forward $125 $-1 #
loop $-1 $-1 $114 $181 #
vertex $-1 $123 $182 #
ellipse-curve $-1 -9.2370555648813024e-014 -0.12 1.8540724511240114e-014 0 1 0 -8.9965271077231979 0 0.24999999999998146 1 I I #
ellipse-curve $-1 -8.125 -0.12 1.9428902930940239e-015 0 1 0 -0.27950849718747328 0 0.24999999999999806 1 I I #
point $-1 -8.9965271077232902 -0.12 0.25 #
point $-1 -8.4045084971874733 -0.12 0.25 #
coedge $-1 $183 $83 $176 $184 forward $56 $-1 #
vertex $-1 $86 $185 #
straight-curve $-1 -7 -0.12 0.25 0 0 1 I I #
coedge $-1 $90 $89 $186 $187 reversed $91 $-1 #
edge $-1 $188 0 $92 0.12 $90 $189 forward 7 unknown #
face $-1 $97 $91 $3 $-1 $190 forward single #
point $-1 -7.8454915028125267 0 -0.25 #
coedge $-1 $191 $186 $94 $139 reversed $156 $-1 #
edge $-1 $192 0 $140 0.75 $138 $193 forward 7 unknown #
vertex $-1 $139 $194 #
straight-curve $-1 -7 -0.12 -0.25 0 1 0 I I #
coedge $-1 $96 $183 $195 $196 reversed $56 $-1 #
coedge $-1 $197 $198 $96 $144 forward $199 $-1 #
edge $-1 $192 0 $200 0.29999999999999999 $143 $201 forward 7 unknown #
face $-1 $202 $199 $3 $-1 $203 forward single #
plane-surface $-1 -7 0 -1.2 -1 0 0 0 -1 0 forward_v I I I I #
coedge $-1 $109 $99 $204 $205 forward $68 $-1 #
coedge $-1 $100 $165 $206 $207 reversed $68 $-1 #
coedge $-1 $163 $102 $165 $208 forward $62 $-1 #
coedge $-1 $206 $206 $102 $151 forward $209 $-1 #
edge $-1 $210 0 $152 3.1415926535897931 $150 $211 forward 7 unknown #
vertex $-1 $207 $212 #
straight-curve $-1 -7.75 -1.5 0 0 1 0 I I #
face $-1 $-1 $209 $3 $-1 $213 forward single #
cone-surface $-1 -8.125 -1.5 0 0 1 0 0.375 0 0 1 I I 0 1 0.375 forward I I I I #
loop $-1 $-1 $186 $106 #
plane-surface $-1 -9 -0.12 -1 0 1 0 0 0 1 forward_v I I I I #
coedge $-1 $214 $159 $215 $216 reversed $107 $-1 #
coedge $-1 $158 $161 $109 $160 reversed $107 $-1 #
edge $-1 $217 0 $166 0.12 $159 $218 forward 7 unknown #
coedge $-1 $159 $214 $110 $162 reversed $107 $-1 #
edge $-1 $166 0 $219 0.59201861053581872 $110 $220 forward 7 unknown #
coedge $-1 $116 $149 $111 $164 forward $62 $-1 #
edge $-1 $167 0 $120 0.7297276562270103 $111 $221 forward 7 unknown #
coedge $-1 $148 $112 $149 $208 reversed $68 $-1 #
vertex $-1 $162 $222 #
vertex $-1 $164 $223 #
ellipse-curve $-1 -8.1250000000000213 0 -7.049916206369744e-015 0 1 0 -0.27950849718745197 0 -0.24999999999999295 1 I I #
coedge $-1 $224 $114 $118 $172 reversed $125 $-1 #
straight-curve $-1 -8.996527107723292 -0.12 0.25 0 1 0 I I #
straight-curve $-1 -8.4045084971874733 -0.12 0.25 0 1 0 I I #
edge $-1 $219 0 $119 0.055562702527571152 $118 $225 forward 7 unknown #
point $-1 -8.996527107723292 0 0.25 #
point $-1 -8.4045084971874733 0 0.25 #
coedge $-1 $226 $122 $124 $180 reversed $177 $-1 #
coedge $-1 $122 $227 $131 $184 reversed $177 $-1 #
loop $-1 $-1 $228 $229 #
straight-curve $-1 -8.9442719099991592 -0.12 1 1 0 0 I I #
coedge $-1 $124 $230 $231 $232 forward $125 $-1 #
edge $-1 $233 0 $126 0.91666666666666663 $175 $234 forward 7 unknown #
face $-1 $235 $125 $3 $-1 $236 forward single #
point $-1 -8.9442719099991592 -0.12 1 #
coedge $-1 $142 $131 $237 $238 reversed $56 $-1 #
edge $-1 $132 0 $239 0.29999999999999999 $176 $240 forward 7 unknown #
point $-1 -7 -0.12 1 #
coedge $-1 $138 $204 $134 $187 forward $156 $-1 #
edge $-1 $188 0 $140 0.84549150281252672 $186 $241 forward 7 unknown #
vertex $-1 $205 $242 #
straight-curve $-1 -7.8454915028125267 -0.12 -0.25 0 1 0 I I #
plane-surface $-1 -9 -0.12 -0.25 0 0 -1 0 1 0 forward_v I I I I #
coedge $-1 $243 $138 $198 $244 reversed $156 $-1 #
vertex $-1 $144 $245 #
straight-curve $-1 -7 -0.12 -1 0 0 1 I I #
point $-1 -7 -0.12 -0.25 #
coedge $-1 $246 $247 $142 $196 forward $248 $-1 #
edge $-1 $200 0 $249 0.99999999999999889 $142 $250 forward 7 unknown #
coedge $-1 $251 $143 $247 $252 forward $199 $-1 #
coedge $-1 $143 $253 $191 $244 forward $199 $-1 #
loop $-1 $-1 $254 $145 #
vertex $-1 $252 $255 #
straight-curve $-1 -7 -0.12 -1 0 -1 0 I I #
face $-1 $256 $257 $3 $-1 $258 forward single #
plane-surface $-1 -9 -1.0366666666666666 -1 0 0 -1 0 1 0 forward_v I I I I #
coedge $-1 $186 $215 $147 $205 reversed $156 $-1 #
edge $-1 $188 0 $217 1.6821373411358669 $204 $259 forward 7 unknown #
coedge $-1 $150 $150 $148 $207 forward $209 $-1 #
edge $-1 $152 0 $210 3.1415926535897931 $206 $260 forward 7 unknown #
edge $-1 $210 0 $167 1.5 $165 $261 forward 7 unknown #
loop $-1 $-1 $150 $154 #
vertex $-1 $207 $262 #
ellipse-curve $-1 -8.125 -1.5 0 0 1 0 -0.375 0 0 1 I I #
point $-1 -7.75 -1.5 0 #
plane-surface $-1 0 -1.5 0 0 1 0 1 0 0 forward_v I I I I #
coedge $-1 $161 $158 $224 $263 forward $107 $-1 #
coedge $-1 $204 $243 $158 $216 forward $156 $-1 #
edge $-1 $264 1.7763568394002505e-015 $217 0.59201861053581872 $215 $265 forward 7 unknown #
vertex $-1 $205 $266 #
straight-curve $-1 -8.4045084971874733 -0.12 -0.25 0 1 0 I I #
vertex $-1 $172 $267 #
straight-curve $-1 -8.4045084971874733 0 -0.25 -1 0 0 I I #
ellipse-curve $-1 -8.1250000000000213 0 7.7715611723760958e-015 0 1 0 -0.37499999999997868 0 -7.7715611723760958e-015 1 I I #
point $-1 -8.4045084971874733 0 -0.25 #
point $-1 -8.5 0 0 #
coedge $-1 $268 $169 $214 $263 reversed $125 $-1 #
ellipse-curve $-1 3.1263880373444408e-012 0 0 0 1 0 -8.9965271077264184 0 -0.25 1 I I #
coedge $-1 $269 $175 $270 $271 forward $177 $-1 #
coedge $-1 $176 $272 $273 $274 reversed $177 $-1 #
coedge $-1 $275 $269 $276 $277 reversed $177 $-1 #
face $-1 $278 $177 $3 $-1 $279 forward single #
coedge $-1 $179 $280 $281 $282 forward $125 $-1 #
coedge $-1 $283 $270 $179 $232 reversed $284 $-1 #
edge $-1 $285 0 $233 0.037199032107217284 $231 $286 forward 7 unknown #
vertex $-1 $271 $287 #
straight-curve $-1 -8.9442719099991592 -1.0366666666666666 1 0 1 0 I I #
face $-1 $288 $289 $3 $-1 $290 forward single #
cone-surface $-1 0 -3.157 0 0 1 0 9 0 0 1 I I 0 1 9 forward I I I I #
coedge $-1 $273 $291 $183 $238 forward $292 $-1 #
edge $-1 $249 0 $239 1 $183 $293 forward 7 unknown #
vertex $-1 $184 $294 #
straight-curve $-1 -7 -0.12 1.0000000000000002 0 -1 0 I I #
straight-curve $-1 -7.8454915028125267 -0.12 -0.25 1 0 0 I I #
point $-1 -7.8454915028125267 -0.12 -0.25 #
coedge $-1 $215 $191 $268 $295 forward $156 $-1 #
edge $-1 $296 0 $192 1.9442719099991592 $198 $297 forward 7 unknown #
point $-1 -7 -0.12 -1 #
coedge $-1 $298 $195 $299 $300 reversed $248 $-1 #
coedge $-1 $195 $298 $197 $252 reversed $248 $-1 #
loop $-1 $-1 $298 $301 #
vertex $-1 $196 $302 #
straight-curve $-1 -7 -0.41999999999999998 -0.99999999999999889 0 0 1 I I #
coedge $-1 $303 $197 $304 $305 reversed $199 $-1 #
edge $-1 $200 0 $306 0.75 $197 $307 forward 7 unknown #
coedge $-1 $198 $254 $308 $309 forward $199 $-1 #
coedge $-1 $253 $310 $311 $312 reversed $199 $-1 #
point $-1 -7 -0.41999999999999998 -0.99999999999999889 #
face $-1 $313 $314 $3 $-1 $315 forward single #
loop $-1 $-1 $316 $202 #
plane-surface $-1 -9 -1.0366666666666666 -0.66666666666666663 0 -1 0 0 0 -1 forward_v I I I I #
ellipse-curve $-1 -8.125 -0.12 -1.9984014443252818e-015 0 1 0 0.27950849718747328 0 -0.249999999999998 1 I I #
ellipse-curve $-1 -8.125 -1.5 0 0 1 0 0.375 0 0 1 I I #
straight-curve $-1 -8.5 -1.5 -4.5922738268339147e-017 0 1 0 I I #
point $-1 -8.5 -1.5 0 #
edge $-1 $264 0 $219 0.12 $214 $317 forward 7 unknown #
vertex $-1 $216 $318 #
straight-curve $-1 -8.996527107723292 -0.12 -0.25 1 0 0 I I #
point $-1 -8.4045084971874733 -0.12 -0.25 #
point $-1 -8.996527107723292 0 -0.25 #
coedge $-1 $308 $224 $243 $295 reversed $125 $-1 #
coedge $-1 $228 $226 $319 $320 reversed $177 $-1 #
coedge $-1 $231 $321 $226 $271 reversed $284 $-1 #
edge $-1 $233 0 $322 6.0112592081069396 $226 $323 forward 7 unknown #
coedge $-1 $227 $324 $325 $326 forward $177 $-1 #
coedge $-1 $327 $237 $227 $274 forward $292 $-1 #
edge $-1 $239 0 $328 0.75 $227 $329 forward 7 unknown #
coedge $-1 $330 $228 $331 $332 forward $177 $-1 #
coedge $-1 $333 $334 $228 $277 forward $335 $-1 #
edge $-1 $336 0 $337 1.8169872981077804 $276 $338 forward 7 unknown #
face $-1 $339 $335 $3 $-1 $340 forward single #
plane-surface $-1 -9 -0.12 1 0 0 1 0 -1 0 forward_v I I I I #
coedge $-1 $230 $341 $342 $343 reversed $125 $-1 #
coedge $-1 $344 $345 $230 $282 reversed $346 $-1 #
edge $-1 $347 0 $285 0.91666666666666652 $281 $348 forward 7 unknown #
coedge $-1 $321 $231 $345 $349 forward $284 $-1 #
loop $-1 $-1 $270 $350 #
vertex $-1 $349 $351 #
ellipse-curve $-1 -3.922195901395753e-012 -1.0366666666666666 3.4949820815199928e-013 0 1 0 -8.9752746785535855 0 0.66666666666631724 1 I I #
point $-1 -8.9442719099991592 -1.0366666666666666 1 #
face $-1 $352 $353 $3 $-1 $354 forward single #
loop $-1 $-1 $355 $235 #
plane-surface $-1 -9 -1.9533333333333331 1 0 0 1 0 -1 0 forward_v I I I I #
coedge $-1 $237 $327 $356 $357 reversed $292 $-1 #
loop $-1 $-1 $237 $358 #
straight-curve $-1 -7 -0.41999999999999998 0 0 0 1 I I #
point $-1 -7 -0.41999999999999998 1 #
edge $-1 $296 0 $264 0.08355966307717079 $243 $359 forward 7 unknown #
vertex $-1 $244 $360 #
straight-curve $-1 -8.9442719099991592 -0.12 -1 1 0 0 I I #
coedge $-1 $247 $246 $361 $362 reversed $248 $-1 #
coedge $-1 $363 $364 $246 $300 forward $365 $-1 #
edge $-1 $366 0 $249 3.1415926535897873 $246 $367 forward 7 unknown #
face $-1 $368 $248 $3 $-1 $369 reversed single #
point $-1 -7 -0.41999999999999998 0 #
coedge $-1 $370 $251 $371 $372 forward $199 $-1 #
coedge $-1 $361 $373 $251 $305 forward $374 $-1 #
edge $-1 $375 0 $306 0.29999999999999999 $251 $376 forward 7 unknown #
vertex $-1 $305 $377 #
straight-curve $-1 -7 -0.41999999999999998 -1 1 0 0 I I #
coedge $-1 $378 $268 $253 $309 reversed $125 $-1 #
edge $-1 $379 0 $296 0.91666666666666663 $253 $380 forward 7 unknown #
coedge $-1 $254 $381 $382 $383 reversed $199 $-1 #
coedge $-1 $384 $385 $254 $312 forward $257 $-1 #
edge $-1 $379 0 $386 6.0112592081069405 $311 $387 forward 7 unknown #
face $-1 $388 $389 $3 $-1 $390 forward single #
loop $-1 $-1 $391 $256 #
plane-surface $-1 -9 -1.9533333333333331 -0.66666666666666663 0 0 -1 0 1 0 forward_v I I I I #
coedge $-1 $385 $384 $392 $393 reversed $257 $-1 #
straight-curve $-1 -8.996527107723292 -0.12 -0.25 0 1 0 I I #
point $-1 -8.9965271077232902 -0.12 -0.25 #
coedge $-1 $394 $395 $269 $320 forward $396 $-1 #
edge $-1 $337 -1.1102230246251565e-016 $322 0.91666666666666652 $269 $397 forward 7 unknown #
coedge $-1 $270 $283 $394 $398 forward $284 $-1 #
vertex $-1 $320 $399 #
straight-curve $-1 -8.9442719099991592 -1.0366666666666666 1 1 0 0 I I #
coedge $-1 $272 $400 $401 $402 reversed $177 $-1 #
coedge $-1 $403 $404 $272 $326 reversed $374 $-1 #
edge $-1 $405 0 $328 0.29999999999999999 $272 $406 forward 7 unknown #
coedge $-1 $291 $273 $404 $407 reversed $292 $-1 #
vertex $-1 $274 $408 #
straight-curve $-1 -7 -0.41999999999999998 1.0000000000000002 1 0 0 I I #
coedge $-1 $400 $275 $409 $410 reversed $177 $-1 #
coedge $-1 $411 $412 $275 $332 reversed $413 $-1 #
edge $-1 $336 0 $414 0.29999999999999999 $275 $415 forward 7 unknown #
coedge $-1 $416 $276 $395 $417 reversed $335 $-1 #
coedge $-1 $276 $418 $411 $419 forward $335 $-1 #
loop $-1 $-1 $416 $278 #
vertex $-1 $277 $420 #
vertex $-1 $417 $421 #
straight-curve $-1 -4.75 -0.12 1 1 0 0 I I #
face $-1 $422 $423 $3 $-1 $424 forward single #
plane-surface $-1 -9 -0.12 0.25 0 1 0 0 0 1 forward_v I I I I #
coedge $-1 $280 $425 $426 $427 forward $125 $-1 #
coedge $-1 $428 $429 $280 $343 forward $353 $-1 #
edge $-1 $347 0 $430 0.037199032107217402 $342 $431 forward 7 unknown #
coedge $-1 $432 $281 $429 $433 forward $346 $-1 #
coedge $-1 $281 $432 $283 $349 reversed $346 $-1 #
loop $-1 $-1 $345 $352 #
vertex $-1 $433 $434 #
straight-curve $-1 -8.9752746785575077 -1.9533333333333331 0.66666666666666663 0 1 0 I I #
edge $-1 $285 0 $435 6.2347120663951632 $283 $436 forward 7 unknown #
face $-1 $181 $284 $3 $-1 $437 forward single #
point $-1 -8.9752746785575077 -1.0366666666666666 0.66666666666666674 #
face $-1 $438 $346 $3 $-1 $439 forward single #
loop $-1 $-1 $429 $288 #
plane-surface $-1 -9 -1.9533333333333331 0.66666666666666663 0 1 0 0 0 1 forward_v I I I I #
coedge $-1 $426 $440 $428 $441 reversed $289 $-1 #
coedge $-1 $442 $443 $291 $357 forward $444 $-1 #
edge $-1 $249 0 $366 3.1415926535897989 $291 $445 forward 7 unknown #
face $-1 $446 $292 $3 $-1 $447 reversed single #
ellipse-curve $-1 -2.3092638912203256e-013 -0.12 -2.7977620220553945e-014 0 1 0 -8.9442719099989283 0 -0.99999999999997202 1 I I #
point $-1 -8.9442719099991592 -0.12 -1 #
coedge $-1 $404 $304 $298 $362 forward $374 $-1 #
edge $-1 $306 0 $366 0.99999999999999889 $298 $448 forward 7 unknown #
coedge $-1 $449 $299 $443 $450 reversed $365 $-1 #
coedge $-1 $299 $449 $442 $451 forward $365 $-1 #
loop $-1 $-1 $363 $452 #
vertex $-1 $357 $453 #
ellipse-curve $-1 -6.625 -0.41999999999999998 1.1102230246251565e-015 0 1 0 0.375 0 -1.1102230246251565e-015 1 I I #
face $-1 $454 $455 $3 $-1 $456 reversed single #
plane-surface $-1 -7 -0.41999999999999998 -1.2 0 -1 0 1 0 0 forward_v I I I I #
coedge $-1 $457 $303 $458 $459 forward $199 $-1 #
coedge $-1 $460 $461 $303 $372 reversed $462 $-1 #
edge $-1 $375 0 $463 0.75 $303 $464 forward 7 unknown #
coedge $-1 $304 $465 $460 $466 reversed $374 $-1 #
loop $-1 $-1 $404 $438 #
vertex $-1 $372 $467 #
straight-curve $-1 -6.25 -0.12 -1 0 -1 0 I I #
point $-1 -6.25 -0.41999999999999998 -0.99999999999999889 #
coedge $-1 $468 $308 $385 $469 forward $125 $-1 #
vertex $-1 $312 $470 #
straight-curve $-1 -8.9442719099991592 -1.0366666666666666 -1 0 1 0 I I #
coedge $-1 $310 $471 $472 $473 forward $199 $-1 #
coedge $-1 $474 $475 $310 $383 forward $476 $-1 #
edge $-1 $386 0 $477 0.91666666666666663 $310 $478 forward 7 unknown #
coedge $-1 $316 $311 $475 $479 reversed $257 $-1 #
coedge $-1 $311 $316 $378 $469 reversed $257 $-1 #
vertex $-1 $479 $480 #
straight-curve $-1 -8.9442719099991592 -1.0366666666666666 -1 1 0 0 I I #
face $-1 $481 $482 $3 $-1 $483 forward single #
loop $-1 $-1 $484 $313 #
plane-surface $-1 -9 -1.9533333333333331 -1 0 1 0 0 0 1 forward_v I I I I #
coedge $-1 $485 $486 $487 $488 reversed $314 $-1 #
coedge $-1 $486 $485 $316 $393 forward $314 $-1 #
edge $-1 $489 0 $490 6.2347120663951623 $392 $491 forward 7 unknown #
coedge $-1 $492 $319 $321 $398 reversed $396 $-1 #
coedge $-1 $319 $493 $333 $417 forward $396 $-1 #
loop $-1 $-1 $493 $494 #
straight-curve $-1 -2.9330127018922196 -0.12000000000000011 1 0 -1 0 I I #
edge $-1 $435 0 $322 0.38490017945975036 $321 $495 forward 7 unknown #
point $-1 -2.9330127018922196 -1.0366666666666666 1 #
coedge $-1 $324 $330 $496 $497 reversed $177 $-1 #
coedge $-1 $498 $499 $324 $402 forward $500 $-1 #
edge $-1 $405 0 $501 0.75 $401 $502 forward 7 unknown #
coedge $-1 $503 $325 $499 $504 reversed $374 $-1 #
coedge $-1 $325 $361 $327 $407 forward $374 $-1 #
vertex $-1 $504 $505 #
straight-curve $-1 -6.25 -0.12 1.0000000000000002 0 -1 0 I I #
edge $-1 $366 0 $328 1 $327 $506 forward 7 unknown #
point $-1 -6.25 -0.41999999999999998 1 #
coedge $-1 $507 $508 $330 $410 forward $509 $-1 #
edge $-1 $510 0 $414 0.75 $330 $511 forward 7 unknown #
coedge $-1 $512 $331 $334 $419 reversed $413 $-1 #
coedge $-1 $331 $513 $507 $514 forward $413 $-1 #
loop $-1 $-1 $412 $515 #
vertex $-1 $410 $516 #
straight-curve $-1 -4.75 -0.12 1.0000000000000002 0 -1 0 I I #
coedge $-1 $517 $333 $518 $519 reversed $335 $-1 #
edge $-1 $520 -5.3785369866469351e-017 $337 0.86602540378443893 $333 $521 forward 7 unknown #
coedge $-1 $334 $517 $522 $523 reversed $335 $-1 #
edge $-1 $524 0 $336 0.75 $334 $525 forward 7 unknown #
point $-1 -4.75 -0.12 1 #
point $-1 -2.9330127018922196 -0.12 1 #
face $-1 $526 $527 $3 $-1 $528 forward single #
loop $-1 $-1 $529 $339 #
plane-surface $-1 -9 0 0.25 0 0 1 0 -1 0 forward_v I I I I #
coedge $-1 $341 $530 $531 $532 forward $125 $-1 #
coedge $-1 $533 $355 $341 $427 reversed $289 $-1 #
edge $-1 $534 -4.4408920985006262e-016 $430 0.91666666666666652 $426 $535 forward 7 unknown #
coedge $-1 $536 $342 $355 $441 forward $353 $-1 #
coedge $-1 $342 $536 $344 $433 reversed $353 $-1 #
vertex $-1 $441 $537 #
ellipse-curve $-1 -3.943512183468556e-012 -1.9533333333333331 3.5171865420124959e-013 0 1 0 -8.9752746785535642 0 0.66666666666631491 1 I I #
coedge $-1 $345 $344 $492 $538 reversed $346 $-1 #
edge $-1 $347 0 $539 6.2347120663951632 $344 $540 forward 7 unknown #
point $-1 -8.9752746785575077 -1.9533333333333331 0.66666666666666663 #
vertex $-1 $398 $541 #
straight-curve $-1 -8.9752746785575077 -1.0366666666666666 0.66666666666666663 1 0 0 I I #
plane-surface $-1 -9 -1.0366666666666666 1 0 -1 0 0 0 -1 forward_v I I I I #
face $-1 $358 $374 $3 $-1 $542 reversed single #
plane-surface $-1 -9 -1.0366666666666666 0.66666666666666663 0 0 1 0 -1 0 forward_v I I I I #
coedge $-1 $355 $533 $543 $544 reversed $289 $-1 #
edge $-1 $430 0 $545 6.0112592081069396 $428 $546 forward 7 unknown #
coedge $-1 $547 $356 $364 $451 reversed $444 $-1 #
coedge $-1 $356 $547 $363 $450 forward $444 $-1 #
loop $-1 $-1 $442 $446 #
ellipse-curve $-1 -6.625 -0.41999999999999998 1.1102230246251565e-015 0 1 0 -0.375 0 -1.1102230246251565e-015 1 I I #
face $-1 $452 $444 $3 $-1 $548 reversed single #
plane-surface $-1 -7 -0.41999999999999998 -1.2 0 -1 0 1 0 0 forward_v I I I I #
straight-curve $-1 -6.25 -0.41999999999999998 -0.99999999999999889 0 0 1 I I #
coedge $-1 $364 $363 $549 $550 reversed $365 $-1 #
edge $-1 $551 0 $249 1.0800000000000001 $363 $552 forward 7 unknown #
edge $-1 $553 0 $366 1.0800000000000001 $364 $554 forward 7 unknown #
face $-1 $555 $365 $3 $-1 $556 reversed single #
point $-1 -6.25 -0.41999999999999998 0 #
face $-1 $557 $558 $3 $-1 $559 reversed single #
loop $-1 $-1 $560 $368 #
plane-surface $-1 -5.5 -0.41999999999999998 -1.2 0 -1 0 1 0 0 forward_v I I I I #
coedge $-1 $471 $370 $561 $562 forward $199 $-1 #
coedge $-1 $563 $564 $370 $459 reversed $565 $-1 #
edge $-1 $463 0 $566 0.29999999999999999 $370 $567 forward 7 unknown #
coedge $-1 $568 $371 $373 $466 forward $462 $-1 #
coedge $-1 $371 $568 $563 $569 reversed $462 $-1 #
loop $-1 $-1 $568 $570 #
vertex $-1 $459 $571 #
straight-curve $-1 -6.25 -0.12 -1 1 0 0 I I #
coedge $-1 $373 $572 $573 $574 reversed $374 $-1 #
edge $-1 $375 0 $575 0.75 $460 $576 forward 7 unknown #
point $-1 -6.25 -0.12 -1 #
coedge $-1 $577 $378 $485 $578 reversed $125 $-1 #
edge $-1 $379 0 $489 0.037199032107213384 $385 $579 forward 7 unknown #
point $-1 -8.9442719099991592 -1.0366666666666666 -1 #
coedge $-1 $381 $457 $580 $581 reversed $199 $-1 #
coedge $-1 $582 $583 $381 $473 reversed $584 $-1 #
edge $-1 $585 0 $477 1.8169872981077813 $381 $586 forward 7 unknown #
coedge $-1 $587 $382 $583 $588 forward $476 $-1 #
coedge $-1 $382 $589 $384 $479 forward $476 $-1 #
loop $-1 $-1 $587 $590 #
vertex $-1 $383 $591 #
straight-curve $-1 -2.9330127018922187 -1.0366666666666666 -1 0 1 0 I I #
edge $-1 $490 0 $386 0.38490017945975047 $384 $592 forward 7 unknown #
point $-1 -2.9330127018922187 -1.0366666666666666 -1 #
face $-1 $593 $594 $3 $-1 $595 forward single #
loop $-1 $-1 $596 $388 #
plane-surface $-1 -9 -2.8700000000000001 -1 0 0 -1 0 1 0 forward_v I I I I #
coedge $-1 $597 $598 $599 $600 reversed $389 $-1 #
coedge $-1 $392 $391 $468 $578 forward $314 $-1 #
coedge $-1 $391 $392 $589 $601 reversed $314 $-1 #
coedge $-1 $598 $597 $391 $488 forward $389 $-1 #
edge $-1 $602 0 $603 6.2347120663951623 $487 $604 forward 7 unknown #
vertex $-1 $393 $605 #
vertex $-1 $601 $606 #
straight-curve $-1 -8.9752746785575059 -1.0366666666666666 -0.66666666666666663 1 0 0 I I #
coedge $-1 $607 $394 $432 $538 forward $396 $-1 #
coedge $-1 $395 $608 $609 $610 forward $396 $-1 #
face $-1 $350 $396 $3 $-1 $611 reversed single #
straight-curve $-1 -2.7405626121623445 -1.0366666666666666 0.66666666666666674 -0.49999999999999978 0 0.86602540378443882 I I #
coedge $-1 $612 $613 $400 $497 forward $565 $-1 #
edge $-1 $501 0 $510 0.29999999999999999 $400 $614 forward 7 unknown #
coedge $-1 $615 $401 $613 $616 reversed $500 $-1 #
coedge $-1 $401 $615 $403 $504 forward $500 $-1 #
loop $-1 $-1 $401 $617 #
vertex $-1 $616 $618 #
straight-curve $-1 -6.25 -0.12 1 1 0 0 I I #
coedge $-1 $572 $403 $619 $620 reversed $374 $-1 #
edge $-1 $621 0 $405 0.75 $499 $622 forward 7 unknown #
point $-1 -6.25 -0.12 1 #
straight-curve $-1 -6.25 -0.41999999999999998 0 0 0 1 I I #
coedge $-1 $623 $409 $412 $514 reversed $509 $-1 #
coedge $-1 $409 $623 $612 $624 forward $509 $-1 #
loop $-1 $-1 $508 $625 #
vertex $-1 $497 $626 #
straight-curve $-1 -5.5 -0.41999999999999998 1.0000000000000002 1 0 0 I I #
coedge $-1 $627 $411 $628 $629 reversed $413 $-1 #
coedge $-1 $412 $580 $560 $630 forward $413 $-1 #
edge $-1 $631 0 $414 1 $507 $632 forward 7 unknown #
face $-1 $625 $413 $3 $-1 $633 reversed single #
point $-1 -4.75 -0.41999999999999998 1 #
coedge $-1 $418 $416 $634 $635 reversed $335 $-1 #
coedge $-1 $636 $637 $416 $519 forward $423 $-1 #
edge $-1 $638 0 $520 0.84549150281252672 $518 $639 forward 7 unknown #
vertex $-1 $640 $641 #
straight-curve $-1 -2.5000000000000004 -0.12000000000000011 0.24999999999999981 -0.49999999999999972 0 0.86602540378443871 I I #
coedge $-1 $642 $628 $418 $523 forward $643 $-1 #
edge $-1 $524 0 $644 0.84549150281252672 $522 $645 forward 7 unknown #
vertex $-1 $523 $646 #
straight-curve $-1 -4.75 -0.12 0.25 0 0 1 I I #
face $-1 $647 $648 $3 $-1 $649 reversed single #
loop $-1 $-1 $650 $422 #
plane-surface $-1 -9 0 -0.25 0 1 0 0 0 1 forward_v I I I I #
coedge $-1 $637 $636 $650 $651 reversed $423 $-1 #
coedge $-1 $425 $577 $652 $653 reversed $125 $-1 #
coedge $-1 $654 $655 $425 $532 reversed $594 $-1 #
edge $-1 $656 0 $534 0.22268202868192716 $531 $657 forward 7 unknown #
coedge $-1 $440 $426 $655 $658 forward $289 $-1 #
vertex $-1 $658 $659 #
straight-curve $-1 -8.9442719099991592 -2.8699999999999997 1 0 1 0 I I #
coedge $-1 $429 $428 $607 $660 reversed $353 $-1 #
point $-1 -8.9442719099991592 -1.9533333333333331 1 #
edge $-1 $435 0 $539 0.91666666666666652 $432 $661 forward 7 unknown #
vertex $-1 $538 $662 #
straight-curve $-1 -8.9752746785575077 -1.9533333333333331 0.66666666666666663 1 0 0 I I #
point $-1 -2.7405626121623445 -1.0366666666666666 0.66666666666666674 #
plane-surface $-1 -6.25 -0.41999999999999998 -1.2 1 0 0 0 1 0 forward_v I I I I #
coedge $-1 $608 $607 $440 $544 forward $396 $-1 #
edge $-1 $545 0 $663 0.91666666666666652 $440 $664 forward 7 unknown #
vertex $-1 $660 $665 #
straight-curve $-1 -8.9442719099991592 -1.9533333333333331 1 1 0 0 I I #
coedge $-1 $443 $442 $666 $667 reversed $444 $-1 #
cone-surface $-1 -6.625 -1.5 0 0 1 0 0.375 0 0 1 I I 0 1 0.375 forward I I I I #
coedge $-1 $666 $666 $449 $550 forward $668 $-1 #
edge $-1 $553 0 $551 3.1415926535897931 $549 $669 forward 7 unknown #
vertex $-1 $550 $670 #
straight-curve $-1 -7 -1.5 -4.5922738268339147e-017 0 1 0 I I #
vertex $-1 $550 $671 #
straight-curve $-1 -6.25 -1.5 0 0 1 0 I I #
face $-1 $301 $668 $3 $-1 $672 forward single #
cone-surface $-1 -6.625 -1.5 0 0 1 0 0.375 0 0 1 I I 0 1 0.375 forward I I I I #
face $-1 $673 $674 $3 $-1 $675 reversed single #
loop $-1 $-1 $676 $454 #
cone-surface $-1 -5.125 -1.5 0 0 1 0 0.375 0 0 1 I I 0 1 0.375 forward I I I I #
coedge $-1 $561 $677 $513 $630 reversed $455 $-1 #
coedge $-1 $678 $560 $457 $562 reversed $455 $-1 #
edge $-1 $566 0 $679 0.75 $457 $680 forward 7 unknown #
coedge $-1 $681 $458 $461 $569 forward $565 $-1 #
coedge $-1 $458 $612 $678 $682 reversed $565 $-1 #
loop $-1 $-1 $458 $683 #
vertex $-1 $562 $684 #
straight-curve $-1 -5.5 -0.12 -1 0 -1 0 I I #
coedge $-1 $461 $460 $685 $686 forward $462 $-1 #
edge $-1 $463 0 $687 0.75 $461 $688 forward 7 unknown #
face $-1 $689 $462 $3 $-1 $690 forward single #
point $-1 -5.5 -0.12 -1 #
coedge $-1 $465 $503 $691 $692 reversed $374 $-1 #
coedge $-1 $693 $685 $465 $574 forward $694 $-1 #
edge $-1 $575 0 $695 0.12 $573 $696 forward 7 unknown #
vertex $-1 $466 $697 #
straight-curve $-1 -6.25 -0.12 -1 0 0 1 I I #
coedge $-1 $530 $468 $597 $698 reversed $125 $-1 #
edge $-1 $602 0 $489 0.91666666666666652 $485 $699 forward 7 unknown #
ellipse-curve $-1 -2.9736213491560193e-012 -1.0366666666666666 -3.0941915696303113e-013 0 1 0 -8.9442719099961856 0 -0.99999999999969058 1 I I #
coedge $-1 $513 $700 $471 $581 forward $413 $-1 #
edge $-1 $585 0 $679 0.29999999999999999 $471 $701 forward 7 unknown #
coedge $-1 $702 $472 $700 $703 forward $584 $-1 #
coedge $-1 $472 $704 $474 $588 reversed $584 $-1 #
loop $-1 $-1 $472 $705 #
vertex $-1 $473 $706 #
straight-curve $-1 -4.75 -0.12 -1 1 0 0 I I #
coedge $-1 $707 $474 $708 $709 reversed $476 $-1 #
edge $-1 $477 0 $710 0.86602540378443837 $583 $711 forward 7 unknown #
coedge $-1 $475 $712 $486 $601 forward $476 $-1 #
face $-1 $104 $476 $3 $-1 $713 reversed single #
point $-1 -2.9330127018922187 -0.12 -1 #
straight-curve $-1 -2.7405626121623436 -1.0366666666666666 -0.66666666666666663 -0.49999999999999967 0 -0.86602540378443882 I I #
face $-1 $714 $715 $3 $-1 $716 reversed single #
loop $-1 $-1 $717 $481 #
plane-surface $-1 -9 -2.8700000000000001 1 0 -1 0 0 0 -1 forward_v I I I I #
coedge $-1 $652 $718 $654 $719 reversed $482 $-1 #
coedge $-1 $487 $484 $577 $698 forward $389 $-1 #
coedge $-1 $484 $487 $712 $720 forward $389 $-1 #
coedge $-1 $718 $652 $484 $600 forward $482 $-1 #
edge $-1 $721 0 $722 6.0112592081069405 $599 $723 forward 7 unknown #
edge $-1 $603 0 $490 0.91666666666666652 $486 $724 forward 7 unknown #
vertex $-1 $488 $725 #
vertex $-1 $720 $726 #
straight-curve $-1 -8.9752746785575059 -1.9533333333333331 -0.66666666666666663 1 0 0 I I #
point $-1 -8.9752746785575059 -1.0366666666666666 -0.66666666666666663 #
point $-1 -2.7405626121623436 -1.0366666666666666 -0.66666666666666663 #
coedge $-1 $543 $492 $536 $660 forward $396 $-1 #
coedge $-1 $493 $543 $727 $728 reversed $396 $-1 #
coedge $-1 $729 $730 $493 $610 reversed $715 $-1 #
edge $-1 $731 0 $520 2.75 $609 $732 forward 7 unknown #
plane-surface $-1 -2.5 -3.157 0.24999999999999925 -0.86602540378443871 0 -0.50000000000000011 -0.5 0 0.8660254037844386 forward_v I I I I #
coedge $-1 $564 $496 $508 $624 reversed $565 $-1 #
coedge $-1 $496 $733 $498 $616 forward $565 $-1 #
straight-curve $-1 -5.5 -0.12 1.0000000000000002 0 -1 0 I I #
coedge $-1 $499 $498 $734 $735 reversed $500 $-1 #
edge $-1 $736 0 $501 0.75 $498 $737 forward 7 unknown #
face $-1 $229 $500 $3 $-1 $738 forward single #
point $-1 -5.5 -0.12 1 #
coedge $-1 $734 $739 $503 $620 forward $740 $-1 #
edge $-1 $741 0 $621 0.12 $619 $742 forward 7 unknown #
vertex $-1 $620 $743 #
straight-curve $-1 -6.25 -0.12 0.25 0 0 1 I I #
coedge $-1 $508 $507 $744 $745 reversed $509 $-1 #
edge $-1 $746 0 $510 1 $612 $747 forward 7 unknown #
face $-1 $683 $509 $3 $-1 $748 reversed single #
point $-1 -5.5 -0.41999999999999998 1 #
coedge $-1 $749 $512 $750 $751 reversed $413 $-1 #
coedge $-1 $522 $752 $512 $629 forward $643 $-1 #
edge $-1 $753 0 $524 0.12 $628 $754 forward 7 unknown #
edge $-1 $679 0 $631 0.99999999999999889 $560 $755 forward 7 unknown #
vertex $-1 $745 $756 #
straight-curve $-1 -4.75 -0.41999999999999998 0 0 0 1 I I #
plane-surface $-1 -4.75 -0.41999999999999998 -1.2 1 0 0 0 1 0 forward_v I I I I #
coedge $-1 $757 $758 $517 $635 forward $759 $-1 #
edge $-1 $644 0 $638 1.6821373411358627 $517 $760 forward 7 unknown #
coedge $-1 $529 $518 $730 $640 forward $423 $-1 #
coedge $-1 $518 $529 $757 $761 reversed $423 $-1 #
vertex $-1 $519 $762 #
straight-curve $-1 -3.3454915028125267 -0.12 0.25 1 0 0 I I #
edge $-1 $520 0 $763 0.12 $636 $764 forward 7 unknown #
point $-1 -2.5 -0.12 0.25 #
coedge $-1 $752 $522 $758 $765 forward $643 $-1 #
loop $-1 $-1 $752 $766 #
vertex $-1 $765 $767 #
straight-curve $-1 -4.75 -0.12 0.25 1 0 0 I I #
point $-1 -4.75 -0.12 0.25 #
face $-1 $768 $769 $3 $-1 $770 forward single #
loop $-1 $-1 $771 $526 #
cone-surface $-1 -3.625 -1.5 0 0 1 0 0.375 0 0 1 I I 0 1 0.375 forward I I I I #
coedge $-1 $772 $773 $529 $651 forward $527 $-1 #
edge $-1 $774 0 $763 0.84549150281252672 $650 $775 forward 7 unknown #
coedge $-1 $599 $596 $530 $653 forward $482 $-1 #
edge $-1 $656 0 $721 0.91666666666666652 $652 $776 forward 7 unknown #
coedge $-1 $777 $531 $596 $719 forward $594 $-1 #
coedge $-1 $531 $727 $533 $658 reversed $594 $-1 #
vertex $-1 $719 $778 #
ellipse-curve $-1 2.4868995751603507e-014 -2.8700000000000001 0 0 1 0 -8.9442719099991841 0 -1 1 I I #
edge $-1 $534 0 $663 6.0112592081069396 $533 $779 forward 7 unknown #
point $-1 -8.9442719099991592 -2.8700000000000001 1 #
edge $-1 $539 -9.6148134319178215e-017 $545 0.38490017945975036 $536 $780 forward 7 unknown #
straight-curve $-1 -2.7405626121623445 -1.0366666666666666 0.66666666666666674 0 -1 0 I I #
point $-1 -2.7405626121623445 -1.9533333333333331 0.66666666666666663 #
vertex $-1 $544 $781 #
straight-curve $-1 -2.9330127018922196 -1.9533333333333331 1 0 -1 0 I I #
point $-1 -2.9330127018922196 -1.9533333333333331 1 #
coedge $-1 $549 $549 $547 $667 forward $668 $-1 #
edge $-1 $551 0 $553 3.1415926535897931 $666 $782 forward 7 unknown #
loop $-1 $-1 $666 $555 #
ellipse-curve $-1 -6.625 -1.5 0 0 1 0 0.375 0 0 1 I I #
point $-1 -7 -1.5 0 #
point $-1 -6.25 -1.5 0 #
plane-surface $-1 0 -1.5 0 0 1 0 1 0 0 forward_v I I I I #
face $-1 $590 $783 $3 $-1 $784 forward single #
loop $-1 $-1 $785 $557 #
cone-surface $-1 -5.125 -1.5 0 0 1 0 0.375 0 0 1 I I 0 1 0.375 forward I I I I #
coedge $-1 $786 $787 $788 $789 reversed $558 $-1 #
coedge $-1 $560 $678 $787 $790 reversed $455 $-1 #
coedge $-1 $677 $561 $564 $682 forward $455 $-1 #
vertex $-1 $581 $791 #
straight-curve $-1 -5.5 -0.41999999999999998 -1 1 0 0 I I #
coedge $-1 $792 $563 $793 $794 forward $565 $-1 #
edge $-1 $566 0 $746 0.99999999999999889 $564 $795 forward 7 unknown #
face $-1 $570 $565 $3 $-1 $796 reversed single #
point $-1 -5.5 -0.41999999999999998 -0.99999999999999889 #
coedge $-1 $573 $793 $568 $686 reversed $694 $-1 #
edge $-1 $575 0 $687 0.75 $568 $797 forward 7 unknown #
vertex $-1 $569 $798 #
straight-curve $-1 -5.5 -0.12 -1 0 0 1 I I #
face $-1 $799 $694 $3 $-1 $800 forward single #
plane-surface $-1 -9 -0.12 -1 0 1 0 0 0 1 forward_v I I I I #
coedge $-1 $801 $802 $572 $692 forward $803 $-1 #
edge $-1 $695 0 $741 0.5 $691 $804 forward 7 unknown #
coedge $-1 $793 $573 $802 $805 reversed $694 $-1 #
loop $-1 $-1 $693 $689 #
vertex $-1 $692 $806 #
straight-curve $-1 -6.25 -0.12 -0.25 0 1 0 I I #
point $-1 -6.25 -0.12 -0.25 #
edge $-1 $721 0 $602 0.037199032107213183 $597 $807 forward 7 unknown #
straight-curve $-1 -8.9752746785575059 -1.9533333333333331 -0.66666666666666663 0 1 0 I I #
coedge $-1 $580 $749 $582 $703 reversed $413 $-1 #
straight-curve $-1 -4.75 -0.12 -1 0 -1 0 I I #
coedge $-1 $808 $582 $809 $810 forward $584 $-1 #
edge $-1 $585 0 $811 0.75 $582 $812 forward 7 unknown #
coedge $-1 $583 $808 $813 $814 forward $584 $-1 #
face $-1 $515 $584 $3 $-1 $815 forward single #
point $-1 -4.75 -0.12 -1 #
coedge $-1 $816 $587 $777 $817 reversed $476 $-1 #
coedge $-1 $818 $729 $587 $709 forward $715 $-1 #
edge $-1 $819 0 $710 2.75 $708 $820 forward 7 unknown #
vertex $-1 $588 $821 #
straight-curve $-1 -2.9330127018922187 -0.12000000000000011 -1 0.49999999999999994 0 0.86602540378443871 I I #
coedge $-1 $589 $816 $598 $720 reversed $476 $-1 #
plane-surface $-1 -2.9330127018922187 -3.157 -1 -0.86602540378443871 0 0.49999999999999989 0.5 0 0.86602540378443893 forward_v I I I I #
face $-1 $705 $822 $3 $-1 $823 forward single #
loop $-1 $-1 $818 $593 #
cone-surface $-1 0 -3.157 0 0 1 0 2.5124689052802225 0 0 1 I I 0 1 2.5124689052802225 forward I I I I #
coedge $-1 $727 $777 $729 $824 forward $594 $-1 #
coedge $-1 $596 $599 $816 $825 reversed $482 $-1 #
edge $-1 $656 0 $826 6.0112592081069405 $654 $827 forward 7 unknown #
edge $-1 $603 0 $722 0.38490017945975036 $598 $828 forward 7 unknown #
vertex $-1 $600 $829 #
vertex $-1 $825 $830 #
straight-curve $-1 -8.9442719099991592 -1.9533333333333331 -1 1 0 0 I I #
straight-curve $-1 -2.7405626121623436 -1.9533333333333331 -0.66666666666666663 0 1 0 I I #
point $-1 -8.9752746785575059 -1.9533333333333331 -0.66666666666666674 #
point $-1 -2.7405626121623436 -1.9533333333333331 -0.66666666666666674 #
coedge $-1 $655 $717 $608 $728 forward $594 $-1 #
edge $-1 $731 -5.3785369866469351e-017 $663 0.86602540378443893 $727 $831 forward 7 unknown #
coedge $-1 $708 $609 $717 $824 reversed $715 $-1 #
coedge $-1 $609 $832 $636 $640 reversed $715 $-1 #
vertex $-1 $728 $833 #
straight-curve $-1 -2.5 -2.8700000000000001 0.24999999999999925 0 1 0 I I #
coedge $-1 $613 $792 $834 $835 forward $565 $-1 #
coedge $-1 $834 $619 $615 $735 forward $740 $-1 #
edge $-1 $621 0 $736 0.75 $734 $836 forward 7 unknown #
vertex $-1 $835 $837 #
straight-curve $-1 -5.5 -0.12 0.25 0 0 1 I I #
plane-surface $-1 -9 -0.12 0.25 0 1 0 0 0 1 forward_v I I I I #
coedge $-1 $619 $834 $801 $838 reversed $740 $-1 #
loop $-1 $-1 $734 $839 #
vertex $-1 $692 $840 #
straight-curve $-1 -6.25 0 0.25 0 -1 0 I I #
point $-1 -6.25 -0.12 0.25 #
coedge $-1 $785 $788 $623 $745 forward $674 $-1 #
edge $-1 $746 0 $631 3.1415926535897989 $623 $841 forward 7 unknown #
vertex $-1 $682 $842 #
straight-curve $-1 -5.5 -0.41999999999999998 0 0 0 1 I I #
plane-surface $-1 -5.5 -0.41999999999999998 -1.2 0 -1 0 1 0 0 forward_v I I I I #
coedge $-1 $700 $627 $843 $844 reversed $413 $-1 #
coedge $-1 $845 $846 $627 $751 forward $847 $-1 #
edge $-1 $848 0 $753 0.5 $750 $849 forward 7 unknown #
coedge $-1 $628 $642 $845 $850 reversed $643 $-1 #
vertex $-1 $850 $851 #
straight-curve $-1 -4.75 0 0.25 0 -1 0 I I #
straight-curve $-1 -4.75 -0.41999999999999998 -0.99999999999999889 0 0 1 I I #
point $-1 -4.75 -0.41999999999999998 0 #
coedge $-1 $852 $634 $637 $761 forward $759 $-1 #
coedge $-1 $634 $853 $642 $765 reversed $759 $-1 #
loop $-1 $-1 $757 $854 #
ellipse-curve $-1 -3.625 -0.12 9.4368957093138306e-016 0 1 0 -0.27950849718747328 0 0.24999999999999906 1 I I #
edge $-1 $638 6.5738408768417655e-030 $774 0.12 $637 $855 forward 7 unknown #
point $-1 -3.3454915028125267 -0.12 0.25 #
vertex $-1 $856 $857 #
straight-curve $-1 -2.5 -0.12 0.25 0 1 0 I I #
edge $-1 $644 0 $858 0.12 $642 $859 forward 7 unknown #
face $-1 $854 $643 $3 $-1 $860 forward single #
point $-1 -3.9045084971874733 -0.12 0.25 #
face $-1 $766 $847 $3 $-1 $861 forward single #
loop $-1 $-1 $809 $647 #
plane-surface $-1 -9 -0.12 -0.25 0 0 -1 0 1 0 forward_v I I I I #
coedge $-1 $862 $863 $864 $865 forward $648 $-1 #
coedge $-1 $866 $650 $832 $856 reversed $527 $-1 #
coedge $-1 $650 $867 $852 $868 reversed $527 $-1 #
vertex $-1 $868 $869 #
straight-curve $-1 -3.3454915028125267 0 0.25 1 0 0 I I #
straight-curve $-1 -8.9442719099991592 -2.8700000000000001 -1 0 1 0 I I #
coedge $-1 $717 $654 $707 $817 forward $594 $-1 #
point $-1 -8.9442719099991592 -2.8700000000000001 -1 #
straight-curve $-1 -8.9442719099991592 -2.8700000000000001 1 1 0 0 I I #
straight-curve $-1 -2.7405626121623445 -1.9533333333333331 0.66666666666666674 -0.49999999999999978 0 0.86602540378443882 I I #
point $-1 -2.9330127018922196 -2.8699999999999997 1 #
ellipse-curve $-1 -6.625 -1.5 0 0 1 0 -0.375 0 0 1 I I #
loop $-1 $-1 $870 $673 #
plane-surface $-1 0 -1.5 0 0 1 0 1 0 0 forward_v I I I I #
coedge $-1 $871 $744 $872 $873 reversed $674 $-1 #
coedge $-1 $872 $676 $874 $875 reversed $558 $-1 #
coedge $-1 $676 $872 $677 $790 forward $558 $-1 #
coedge $-1 $744 $871 $676 $789 forward $674 $-1 #
edge $-1 $876 0 $746 1.0800000000000001 $676 $877 forward 7 unknown #
edge $-1 $631 0 $746 3.1415926535897873 $677 $878 forward 7 unknown #
point $-1 -4.75 -0.41999999999999998 -0.99999999999999889 #
coedge $-1 $733 $681 $879 $880 forward $565 $-1 #
coedge $-1 $685 $693 $681 $794 reversed $694 $-1 #
edge $-1 $687 0 $881 0.12 $793 $882 forward 7 unknown #
straight-curve $-1 -5.5 -0.41999999999999998 -0.99999999999999889 0 0 1 I I #
plane-surface $-1 -5.5 0 -1.2 -1 0 0 0 -1 0 forward_v I I I I #
straight-curve $-1 -6.25 -0.12 -0.25 1 0 0 I I #
point $-1 -5.5 -0.12 -0.25 #
face $-1 $839 $803 $3 $-1 $883 forward single #
plane-surface $-1 -9 -0.12 -0.25 0 0 -1 0 1 0 forward_v I I I I #
coedge $-1 $879 $691 $739 $838 forward $803 $-1 #
coedge $-1 $691 $879 $693 $805 forward $803 $-1 #
loop $-1 $-1 $801 $799 #
straight-curve $-1 -6.25 0 -0.25 0 0 1 I I #
edge $-1 $881 0 $695 0.75 $802 $884 forward 7 unknown #
point $-1 -6.25 0 -0.25 #
ellipse-curve $-1 -2.9327651418498135e-012 -1.9533333333333331 -3.0531133177191805e-013 0 1 0 -8.9442719099962265 0 -0.99999999999969469 1 I I #
coedge $-1 $704 $702 $863 $885 reversed $584 $-1 #
coedge $-1 $843 $864 $702 $810 reversed $769 $-1 #
edge $-1 $811 0 $886 0.84549150281252672 $702 $887 forward 7 unknown #
vertex $-1 $810 $888 #
straight-curve $-1 -4.75 -0.12 -1 0 0 1 I I #
coedge $-1 $889 $890 $704 $814 reversed $822 $-1 #
edge $-1 $891 0 $710 0.84549150281252672 $704 $892 forward 7 unknown #
plane-surface $-1 -9 -0.12 -1 0 1 0 0 0 1 forward_v I I I I #
coedge $-1 $712 $707 $718 $825 forward $476 $-1 #
edge $-1 $826 0 $819 0.86602540378443837 $777 $893 forward 7 unknown #
coedge $-1 $832 $708 $890 $894 forward $715 $-1 #
vertex $-1 $817 $895 #
straight-curve $-1 -2.4999999999999996 -2.8700000000000001 -0.25 0 1 0 I I #
point $-1 -2.5 -0.12 -0.25 #
loop $-1 $-1 $813 $714 #
plane-surface $-1 -9 -0.12 -0.25 0 0 -1 0 1 0 forward_v I I I I #
edge $-1 $819 0 $731 0.19933730498232743 $717 $896 forward 7 unknown #
edge $-1 $826 0 $722 0.91666666666666652 $718 $897 forward 7 unknown #
vertex $-1 $817 $898 #
straight-curve $-1 -8.9442719099991592 -2.8700000000000001 -1 1 0 0 I I #
straight-curve $-1 -2.7405626121623436 -1.9533333333333331 -0.66666666666666674 -0.49999999999999978 0 -0.86602540378443882 I I #
point $-1 -8.9442719099991592 -1.9533333333333336 -1 #
point $-1 -2.9330127018922187 -1.9533333333333336 -1 #
straight-curve $-1 -2.5000000000000004 -2.8700000000000001 0.24999999999999981 -0.49999999999999972 0 0.86602540378443871 I I #
coedge $-1 $730 $818 $772 $856 forward $715 $-1 #
point $-1 -2.5 -2.8700000000000001 0.25 #
coedge $-1 $739 $734 $733 $835 reversed $740 $-1 #
edge $-1 $899 0 $736 0.12 $834 $900 forward 7 unknown #
straight-curve $-1 -6.25 -0.12 0.25 1 0 0 I I #
point $-1 -5.5 -0.12 0.25 #
edge $-1 $741 0 $899 0.75 $801 $901 forward 7 unknown #
face $-1 $617 $740 $3 $-1 $902 forward single #
point $-1 -6.25 0 0.25 #
ellipse-curve $-1 -5.125 -0.41999999999999998 1.1102230246251565e-015 0 1 0 -0.375 0 -1.1102230246251565e-015 1 I I #
point $-1 -5.5 -0.41999999999999998 0 #
coedge $-1 $903 $809 $749 $844 forward $769 $-1 #
edge $-1 $811 0 $848 0.12 $843 $904 forward 7 unknown #
coedge $-1 $905 $750 $752 $850 forward $847 $-1 #
coedge $-1 $750 $906 $903 $907 forward $847 $-1 #
loop $-1 $-1 $906 $768 #
vertex $-1 $751 $908 #
straight-curve $-1 -4.75 0 -0.25 0 0 1 I I #
edge $-1 $753 0 $858 0.84549150281252672 $845 $909 forward 7 unknown #
point $-1 -4.75 0 0.25 #
coedge $-1 $910 $757 $773 $868 forward $759 $-1 #
coedge $-1 $758 $911 $905 $912 forward $759 $-1 #
face $-1 $913 $759 $3 $-1 $914 reversed single #
straight-curve $-1 -3.3454915028125258 -0.12 0.25 -7.4014868308343775e-015 1 0 I I #
edge $-1 $915 0 $763 0.19933730498232813 $772 $916 forward 7 unknown #
point $-1 -2.5 0 0.25 #
vertex $-1 $912 $917 #
straight-curve $-1 -3.9045084971874733 -0.12 0.25 0 1 0 I I #
plane-surface $-1 -9 0 0.25 0 0 1 0 -1 0 forward_v I I I I #
plane-surface $-1 -9 0 -0.25 0 1 0 0 0 1 forward_v I I I I #
coedge $-1 $918 $771 $906 $919 forward $648 $-1 #
coedge $-1 $771 $920 $808 $885 forward $648 $-1 #
coedge $-1 $809 $903 $771 $865 reversed $769 $-1 #
edge $-1 $886 0 $921 0.12 $864 $922 forward 7 unknown #
coedge $-1 $867 $772 $923 $924 forward $527 $-1 #
coedge $-1 $773 $866 $925 $926 reversed $527 $-1 #
edge $-1 $774 0 $927 0.7297276562269579 $773 $928 forward 7 unknown #
point $-1 -3.3454915028125267 0 0.25 #
coedge $-1 $874 $874 $871 $929 forward $783 $-1 #
coedge $-1 $788 $785 $870 $929 reversed $674 $-1 #
coedge $-1 $787 $786 $785 $873 forward $558 $-1 #
edge $-1 $930 0 $631 1.0800000000000001 $872 $931 forward 7 unknown #
coedge $-1 $870 $870 $786 $875 forward $783 $-1 #
edge $-1 $930 0 $876 3.1415926535897931 $874 $932 forward 7 unknown #
vertex $-1 $875 $933 #
straight-curve $-1 -5.5 -1.5 -4.5922738268339147e-017 0 1 0 I I #
ellipse-curve $-1 -5.125 -0.41999999999999998 1.1102230246251565e-015 0 1 0 0.375 0 -1.1102230246251565e-015 1 I I #
coedge $-1 $802 $801 $792 $880 reversed $803 $-1 #
edge $-1 $881 0 $899 0.5 $879 $934 forward 7 unknown #
vertex $-1 $805 $935 #
straight-curve $-1 -5.5 -0.12 -0.25 0 1 0 I I #
plane-surface $-1 -9 0 -0.25 0 1 0 0 0 1 forward_v I I I I #
straight-curve $-1 -5.5 0 -0.25 -1 0 0 I I #
edge $-1 $891 0 $886 1.6821373411358624 $808 $936 forward 7 unknown #
vertex $-1 $885 $937 #
straight-curve $-1 -4.75 -0.12 -0.25 1 0 0 I I #
point $-1 -4.75 -0.12 -0.25 #
coedge $-1 $923 $813 $920 $938 forward $822 $-1 #
coedge $-1 $813 $923 $818 $894 reversed $822 $-1 #
vertex $-1 $814 $939 #
straight-curve $-1 -3.3454915028125267 -0.12 -0.25 1 0 0 I I #
straight-curve $-1 -2.9330127018922187 -2.8700000000000001 -1 0.49999999999999994 0 0.86602540378443871 I I #
edge $-1 $710 0 $915 0.12 $890 $940 forward 7 unknown #
point $-1 -2.5 -2.8700000000000001 -0.25 #
ellipse-curve $-1 -4.2632564145606011e-014 -2.8700000000000001 0 0 1 0 -2.4999999999999574 0 -0.25 1 I I #
straight-curve $-1 -2.9330127018922187 -2.8700000000000001 -1 0 1 0 I I #
point $-1 -2.9330127018922187 -2.8700000000000001 -1 #
vertex $-1 $880 $941 #
straight-curve $-1 -5.5 0 0.25 0 -1 0 I I #
straight-curve $-1 -6.25 0 0.25 1 0 0 I I #
plane-surface $-1 -9 0 0.25 0 0 1 0 -1 0 forward_v I I I I #
coedge $-1 $864 $843 $846 $907 reversed $769 $-1 #
straight-curve $-1 -4.75 -0.12 -0.25 0 1 0 I I #
coedge $-1 $906 $845 $853 $912 reversed $847 $-1 #
coedge $-1 $846 $905 $862 $919 reversed $847 $-1 #
edge $-1 $921 0 $848 0.84549150281252672 $846 $942 forward 7 unknown #
point $-1 -4.75 0 -0.25 #
straight-curve $-1 -4.75 0 0.25 1 0 0 I I #
coedge $-1 $943 $852 $944 $945 reversed $759 $-1 #
coedge $-1 $853 $943 $918 $946 forward $759 $-1 #
edge $-1 $947 0 $858 0.72972765622696312 $905 $948 forward 7 unknown #
face $-1 $494 $949 $3 $-1 $950 forward single #
cone-surface $-1 -3.625 -1.5 0 0 1 0 0.375 0 0 1 I I 0 1 0.375 forward I I I I #
vertex $-1 $924 $951 #
ellipse-curve $-1 -5.1514348342607263e-014 0 0 0 1 0 -2.4999999999999485 0 -0.25 1 I I #
point $-1 -3.9045084971874733 0 0.25 #
coedge $-1 $952 $862 $911 $946 reversed $648 $-1 #
edge $-1 $921 0 $947 0.72972765622695956 $906 $953 forward 7 unknown #
coedge $-1 $863 $925 $889 $938 reversed $648 $-1 #
vertex $-1 $907 $954 #
straight-curve $-1 -3.9045084971874733 -0.12 -0.25 0 1 0 I I #
coedge $-1 $890 $889 $866 $924 reversed $822 $-1 #
edge $-1 $915 0 $955 0.84549150281252672 $866 $956 forward 7 unknown #
coedge $-1 $920 $944 $867 $926 forward $648 $-1 #
edge $-1 $927 0 $955 0.72972765622696312 $867 $957 forward 7 unknown #
vertex $-1 $868 $958 #
ellipse-curve $-1 -3.6250000000000044 0 -2.1094237467877974e-015 0 1 0 0.27950849718747772 0 0.25000000000000211 1 I I #
edge $-1 $876 0 $930 3.1415926535897931 $870 $959 forward 7 unknown #
vertex $-1 $875 $960 #
straight-curve $-1 -4.75 -1.5 0 0 1 0 I I #
ellipse-curve $-1 -5.125 -1.5 0 0 1 0 0.375 0 0 1 I I #
point $-1 -5.5 -1.5 0 #
straight-curve $-1 -5.5 0 -0.25 0 0 1 I I #
point $-1 -5.5 0 -0.25 #
ellipse-curve $-1 -3.625 -0.12 -8.8817841970012523e-016 0 1 0 0.27950849718747328 0 -0.24999999999999911 1 I I #
point $-1 -3.9045084971874733 -0.12 -0.25 #
edge $-1 $891 0 $955 0.12 $889 $961 forward 7 unknown #
point $-1 -3.3454915028125267 -0.12 -0.25 #
straight-curve $-1 -2.5 -0.12 -0.25 0 1 0 I I #
point $-1 -5.5 0 0.25 #
straight-curve $-1 -3.9045084971874733 0 -0.25 -1 0 0 I I #
coedge $-1 $911 $910 $962 $963 reversed $759 $-1 #
coedge $-1 $925 $952 $910 $945 forward $648 $-1 #
edge $-1 $964 0 $927 1.5 $944 $965 forward 7 unknown #
edge $-1 $966 0 $947 1.5 $918 $967 forward 7 unknown #
vertex $-1 $912 $968 #
ellipse-curve $-1 -3.6249999999999982 0 -1.0269562977782698e-015 0 1 0 -0.37500000000000178 0 1.0269562977782698e-015 1 I I #
loop $-1 $-1 $962 $913 #
plane-surface $-1 0 -1.5 0 0 1 0 1 0 0 forward_v I I I I #
point $-1 -2.5 0 -0.25 #
coedge $-1 $944 $918 $969 $970 reversed $648 $-1 #
ellipse-curve $-1 -3.6249999999999964 0 1.7763568394002505e-015 0 1 0 -0.27950849718747683 0 -0.25000000000000178 1 I I #
point $-1 -3.9045084971874733 0 -0.25 #
vertex $-1 $926 $971 #
straight-curve $-1 -2.5 0 -0.25 -1 0 0 I I #
ellipse-curve $-1 -3.6250000000000018 0 1.2212453270876722e-015 0 1 0 0.37500000000000178 0 -1.2212453270876722e-015 1 I I #
point $-1 -3.25 0 0 #
ellipse-curve $-1 -5.125 -1.5 0 0 1 0 -0.375 0 0 1 I I #
point $-1 -4.75 -1.5 0 #
straight-curve $-1 -3.3454915028125267 -0.12 -0.25 0 1 0 I I #
coedge $-1 $969 $969 $943 $963 forward $949 $-1 #
edge $-1 $966 0 $964 3.1415926535897931 $962 $972 forward 7 unknown #
vertex $-1 $970 $973 #
straight-curve $-1 -3.25 -1.5 0 0 1 0 I I #
vertex $-1 $970 $974 #
straight-curve $-1 -4 -1.5 -4.5922738268339147e-017 0 1 0 I I #
point $-1 -4 0 0 #
coedge $-1 $962 $962 $952 $970 forward $949 $-1 #
edge $-1 $964 0 $966 3.1415926535897931 $969 $975 forward 7 unknown #
point $-1 -3.3454915028125267 0 -0.25 #
ellipse-curve $-1 -3.625 -1.5 0 0 1 0 -0.375 0 0 1 I I #
point $-1 -3.25 -1.5 0 #
point $-1 -4 -1.5 0 #
ellipse-curve $-1 -3.625 -1.5 0 0 1 0 0.375 0 0 1 I I #
End-of-ACIS-data 