600 0 1 0           
89 GICL ACIS Healer - Source: /gicl/data5/repository/PTC/V18/mfgmill18/fixture/htj.sat - 6 0 18 ACIS 6.0.3 Solaris 24 Sat Apr 13 21:41:14 2002 
1 9.999999999999999547e-07 1.000000000000000036e-10 
body $-1 $1 $-1 $-1 #
lump $-1 $-1 $2 $0 #
shell $-1 $-1 $-1 $3 $-1 $1 #
face $-1 $4 $5 $2 $-1 $6 forward single #
face $-1 $7 $8 $2 $-1 $9 reversed single #
loop $-1 $-1 $10 $3 #
plane-surface $-1 0 0 14.2240000000000002 0 -1 0 0 0 -25.39999999999999858 forward_v I I I I #
face $-1 $11 $12 $2 $-1 $13 reversed single #
loop $-1 $-1 $14 $4 #
plane-surface $-1 0 -6.832600000000002893 -4.741333333333335176 0.8660254037844388186 0 0.499999999999999889 12.69999999999999929 0 -21.99704525612474981 forward_v I I I I #
coedge $-1 $15 $16 $17 $18 forward $5 $-1 #
face $-1 $19 $20 $2 $-1 $21 reversed single #
loop $-1 $-1 $22 $7 #
cone-surface $-1 -8.215488888888879515 -6.832600000000002893 0 0 1 0 9.485488888888880865 0 0 1 I I 0 1 9.485488888888880865 forward I I I I #
coedge $-1 $23 $17 $22 $24 forward $8 $-1 #
coedge $-1 $25 $10 $26 $27 forward $5 $-1 #
coedge $-1 $10 $28 $29 $30 forward $5 $-1 #
coedge $-1 $14 $31 $10 $18 reversed $8 $-1 #
edge $-1 $32 0 $33 0.4310882009949202343 $10 $34 forward 7 unknown #
face $-1 $35 $36 $2 $-1 $37 reversed single #
loop $-1 $-1 $38 $11 #
plane-surface $-1 73.20279999999999632 4.318000000000000504 -4.000499999999999723 0 0 -1 0 -25.39999999999999858 0 forward_v I I I I #
coedge $-1 $29 $39 $14 $24 reversed $12 $-1 #
coedge $-1 $31 $14 $40 $41 forward $8 $-1 #
edge $-1 $32 0 $42 1.370000000000000107 $22 $43 forward 7 unknown #
coedge $-1 $44 $15 $45 $46 reversed $5 $-1 #
coedge $-1 $47 $48 $15 $27 reversed $49 $-1 #
edge $-1 $33 -6.993530863780513543e-17 $50 0.9094558995025400217 $15 $51 forward 7 unknown #
coedge $-1 $16 $52 $38 $53 reversed $5 $-1 #
coedge $-1 $54 $22 $16 $30 reversed $12 $-1 #
edge $-1 $55 0 $32 0.08805307313756292886 $16 $56 forward 7 unknown #
coedge $-1 $17 $23 $47 $57 reversed $8 $-1 #
vertex $-1 $30 $58 #
vertex $-1 $27 $59 #
straight-curve $-1 0 0 -4.741333333333335176 12.69999999999999574 0 -21.99704525612474626 I I #
face $-1 $60 $61 $2 $-1 $62 reversed single #
loop $-1 $-1 $63 $19 #
cone-surface $-1 15.875 34.79800000000000182 0 0 -1 0 5.956299999999999706 0 0 1 I I 0 1 5.956299999999999706 forward I I I I #
coedge $-1 $64 $65 $28 $53 forward $20 $-1 #
coedge $-1 $22 $66 $67 $68 forward $12 $-1 #
coedge $-1 $67 $69 $23 $41 reversed $70 $-1 #
edge $-1 $42 1.201851678989726307e-17 $71 0.4310882009949202343 $40 $72 forward 7 unknown #
vertex $-1 $68 $73 #
straight-curve $-1 0 0 -4.741333333333335176 0 25.39999999999999858 0 I I #
coedge $-1 $52 $25 $74 $75 reversed $5 $-1 #
coedge $-1 $76 $77 $25 $46 forward $78 $-1 #
edge $-1 $79 0 $50 0.4025000000000000799 $25 $80 forward 7 unknown #
coedge $-1 $81 $26 $31 $57 forward $49 $-1 #
coedge $-1 $26 $82 $76 $83 forward $49 $-1 #
loop $-1 $-1 $84 $85 #
vertex $-1 $46 $86 #
straight-curve $-1 5.474820152635483161 0 -14.2240000000000002 25.39999999999999858 0 0 I I #
coedge $-1 $28 $44 $87 $88 reversed $5 $-1 #
edge $-1 $55 1.551689660401301666e-16 $89 0.4361023048338052988 $28 $90 forward 7 unknown #
coedge $-1 $91 $29 $65 $92 forward $12 $-1 #
vertex $-1 $30 $93 #
ellipse-curve $-1 -8.215488888889014518 0 4.511946372076635928e-14 0 1 0 8.600610397596017975 0 -4.000500000000044132 1 I I #
edge $-1 $33 0 $71 1.370000000000000107 $47 $94 forward 7 unknown #
point $-1 0 0 -4.741333333333335176 #
point $-1 5.474820152635481385 0 -14.2240000000000002 #
face $-1 $95 $96 $2 $-1 $97 reversed single #
loop $-1 $-1 $98 $35 #
plane-surface $-1 73.20279999999999632 4.318000000000000504 -4.000499999999999723 0 0 -1 0 -25.39999999999999858 0 forward_v I I I I #
coedge $-1 $87 $99 $64 $100 forward $36 $-1 #
coedge $-1 $101 $38 $63 $100 reversed $20 $-1 #
coedge $-1 $38 $101 $54 $92 reversed $20 $-1 #
coedge $-1 $39 $102 $103 $104 forward $12 $-1 #
coedge $-1 $105 $40 $39 $68 reversed $70 $-1 #
edge $-1 $106 0 $42 1.046854009604820668 $67 $107 forward 7 unknown #
coedge $-1 $40 $108 $81 $109 reversed $70 $-1 #
loop $-1 $-1 $108 $110 #
vertex $-1 $109 $111 #
straight-curve $-1 -6.105406529267813798e-16 34.79800000000000182 -4.741333333333334288 12.69999999999999218 0 -21.99704525612474626 I I #
point $-1 0 34.79800000000000182 -4.741333333333334288 #
coedge $-1 $98 $112 $44 $75 forward $61 $-1 #
edge $-1 $113 0 $79 0.3262645689561281537 $44 $114 forward 7 unknown #
coedge $-1 $115 $45 $48 $83 reversed $78 $-1 #
coedge $-1 $45 $116 $117 $118 forward $78 $-1 #
loop $-1 $-1 $45 $119 #
vertex $-1 $75 $120 #
straight-curve $-1 28.57499999999999929 0 -4.000499999999998835 0 0 -25.39999999999999858 I I #
coedge $-1 $121 $47 $69 $109 forward $49 $-1 #
coedge $-1 $48 $122 $123 $124 forward $49 $-1 #
edge $-1 $125 0 $50 0.1199999999999999956 $48 $126 forward 7 unknown #
coedge $-1 $127 $121 $128 $129 forward $49 $-1 #
face $-1 $130 $49 $2 $-1 $131 forward single #
point $-1 28.57499999999999929 0 -14.2240000000000002 #
coedge $-1 $132 $63 $52 $88 forward $36 $-1 #
edge $-1 $89 5.006994163124566201e-16 $113 1.66874749166101255 $52 $133 forward 7 unknown #
vertex $-1 $53 $134 #
straight-curve $-1 0.3851215087069990717 0 -4.000499999999999723 25.39999999999999858 0 0 I I #
coedge $-1 $135 $54 $136 $137 reversed $12 $-1 #
edge $-1 $55 0 $138 0.17000000000000004 $65 $139 forward 7 unknown #
point $-1 0.385121508707003013 0 -4.000499999999998835 #
straight-curve $-1 5.474820152635486714 0 -14.2240000000000002 0 25.39999999999999858 0 I I #
face $-1 $140 $141 $2 $-1 $142 reversed single #
loop $-1 $-1 $143 $60 #
plane-surface $-1 0 0 14.2240000000000002 0 -1 0 0 0 -25.39999999999999858 forward_v I I I I #
coedge $-1 $144 $74 $145 $146 reversed $61 $-1 #
coedge $-1 $63 $147 $148 $149 forward $36 $-1 #
edge $-1 $150 0 $89 0.17000000000000004 $63 $151 forward 7 unknown #
coedge $-1 $65 $64 $152 $153 forward $20 $-1 #
coedge $-1 $66 $135 $154 $155 reversed $12 $-1 #
coedge $-1 $156 $157 $66 $104 reversed $158 $-1 #
edge $-1 $159 0 $106 1.370000000000000107 $103 $160 forward 7 unknown #
coedge $-1 $161 $67 $157 $162 reversed $70 $-1 #
vertex $-1 $162 $163 #
ellipse-curve $-1 -8.215488888888888397 34.79800000000000182 0 0 1 0 8.215488888888888397 0 4.741333333333335176 1 I I #
coedge $-1 $69 $164 $165 $166 reversed $70 $-1 #
edge $-1 $71 0 $167 0.5769601951493260605 $81 $168 forward 7 unknown #
face $-1 $169 $70 $2 $-1 $170 forward single #
point $-1 5.474820152635481385 34.79800000000000182 -14.2240000000000002 #
coedge $-1 $74 $171 $132 $172 forward $61 $-1 #
vertex $-1 $88 $173 #
straight-curve $-1 20.28787994851434462 0 -4.000499999999999723 25.39999999999999858 0 0 I I #
coedge $-1 $174 $76 $175 $176 forward $78 $-1 #
coedge $-1 $77 $174 $177 $178 forward $78 $-1 #
coedge $-1 $143 $145 $77 $118 reversed $96 $-1 #
edge $-1 $179 0 $79 0.3149999999999999467 $77 $180 forward 7 unknown #
face $-1 $85 $78 $2 $-1 $181 forward single #
point $-1 28.57499999999999929 0 -4.000499999999998835 #
coedge $-1 $84 $81 $182 $183 reversed $49 $-1 #
coedge $-1 $82 $184 $185 $186 reversed $49 $-1 #
coedge $-1 $187 $175 $82 $124 reversed $188 $-1 #
edge $-1 $189 0 $125 0.4990000000000001101 $82 $190 forward 7 unknown #
vertex $-1 $83 $191 #
straight-curve $-1 28.57499999999999929 -3.047999999999999599 -14.2240000000000002 0 25.39999999999999858 0 I I #
coedge $-1 $192 $84 $193 $194 reversed $49 $-1 #
coedge $-1 $195 $196 $84 $129 reversed $197 $-1 #
edge $-1 $198 0 $199 0.8733333333333334059 $84 $200 forward 7 unknown #
face $-1 $201 $197 $2 $-1 $202 reversed single #
plane-surface $-1 0 0 -14.2240000000000002 0 0 -1 0 25.39999999999999858 0 forward_v I I I I #
coedge $-1 $203 $87 $112 $172 reversed $36 $-1 #
ellipse-curve $-1 15.87499999999999645 0 0 0 -1 0 -4.412879948514346395 0 -4.000499999999998835 1 I I #
point $-1 11.4621200514856536 0 -4.000499999999999723 #
coedge $-1 $102 $91 $204 $205 reversed $12 $-1 #
coedge $-1 $152 $206 $91 $137 forward $207 $-1 #
edge $-1 $208 7.897156861275324548e-17 $138 0.87074786332969345 $136 $209 forward 7 unknown #
vertex $-1 $137 $210 #
straight-curve $-1 0.3851215087069990717 0 -4.000499999999999723 0 25.39999999999999858 0 I I #
face $-1 $211 $212 $2 $-1 $213 reversed single #
loop $-1 $-1 $214 $95 #
plane-surface $-1 73.20279999999999632 0 4.000499999999999723 0 0 1 0 25.39999999999999858 0 forward_v I I I I #
coedge $-1 $215 $117 $216 $217 reversed $96 $-1 #
coedge $-1 $218 $98 $219 $220 forward $61 $-1 #
coedge $-1 $117 $215 $98 $146 forward $96 $-1 #
edge $-1 $221 0 $79 0.4990000000000001101 $98 $222 forward 7 unknown #
coedge $-1 $99 $223 $224 $225 forward $36 $-1 #
coedge $-1 $226 $152 $99 $149 reversed $207 $-1 #
edge $-1 $227 7.115366661202695326e-31 $150 0.7364225809643875076 $99 $228 forward 7 unknown #
vertex $-1 $149 $229 #
straight-curve $-1 11.4621200514856536 4.318000000000000504 -4.000499999999999723 0 -25.39999999999999858 0 I I #
coedge $-1 $148 $136 $101 $153 reversed $207 $-1 #
edge $-1 $150 0 $138 0.4361023048338052988 $152 $230 forward 7 unknown #
coedge $-1 $231 $232 $102 $155 forward $233 $-1 #
edge $-1 $159 0 $234 0.08805307313756430276 $154 $235 forward 7 unknown #
coedge $-1 $236 $103 $232 $237 reversed $158 $-1 #
coedge $-1 $103 $236 $105 $162 forward $158 $-1 #
loop $-1 $-1 $236 $238 #
vertex $-1 $155 $239 #
straight-curve $-1 -6.344924585732769471e-15 0 4.741333333333337841 0 25.39999999999999858 0 I I #
coedge $-1 $240 $105 $241 $242 forward $70 $-1 #
edge $-1 $243 -1.748382715945127461e-17 $106 0.4310882009949202898 $105 $244 forward 7 unknown #
point $-1 0 34.79800000000000182 4.741333333333335176 #
coedge $-1 $108 $245 $246 $247 reversed $70 $-1 #
coedge $-1 $248 $182 $108 $166 forward $249 $-1 #
edge $-1 $167 0 $250 0.161658075373095067 $108 $251 forward 7 unknown #
vertex $-1 $183 $252 #
straight-curve $-1 5.474820152635481385 34.79800000000000182 -14.2240000000000002 25.39999999999999858 0 0 I I #
face $-1 $253 $249 $2 $-1 $254 reversed single #
plane-surface $-1 0 34.79800000000000182 -14.2240000000000002 0 1 0 0 0 25.39999999999999858 forward_v I I I I #
coedge $-1 $112 $218 $255 $256 forward $61 $-1 #
edge $-1 $257 0 $113 0.17000000000000004 $132 $258 forward 7 unknown #
point $-1 20.28787994851434462 0 -4.000499999999998835 #
coedge $-1 $116 $115 $259 $260 forward $78 $-1 #
coedge $-1 $123 $261 $115 $176 reversed $188 $-1 #
edge $-1 $125 0 $262 1.120000000000000107 $175 $263 forward 7 unknown #
coedge $-1 $264 $265 $116 $178 reversed $233 $-1 #
edge $-1 $266 0 $179 0.4025000000000000799 $177 $267 forward 7 unknown #
vertex $-1 $178 $268 #
straight-curve $-1 28.57499999999999929 0 4.000499999999998835 0 0 -25.39999999999999858 I I #
plane-surface $-1 28.57499999999999929 -3.047999999999999599 -14.2240000000000002 -1 0 0 0 0 25.39999999999999858 forward_v I I I I #
coedge $-1 $165 $269 $121 $183 forward $249 $-1 #
edge $-1 $198 0 $167 0.3425000000000000266 $121 $270 forward 7 unknown #
coedge $-1 $122 $271 $272 $273 reversed $49 $-1 #
coedge $-1 $274 $275 $122 $186 forward $276 $-1 #
edge $-1 $189 0 $277 0.1199999999999999956 $122 $278 forward 7 unknown #
coedge $-1 $261 $123 $275 $279 reversed $188 $-1 #
loop $-1 $-1 $123 $280 #
vertex $-1 $124 $281 #
straight-curve $-1 41.24960000000000093 -3.047999999999999599 -14.2240000000000002 -25.39999999999999858 0 0 I I #
point $-1 28.57499999999999929 -3.047999999999999599 -14.2240000000000002 #
coedge $-1 $271 $127 $282 $283 forward $49 $-1 #
coedge $-1 $284 $285 $127 $194 forward $286 $-1 #
edge $-1 $287 0 $199 0.3425000000000000266 $127 $288 forward 7 unknown #
coedge $-1 $289 $128 $269 $290 forward $197 $-1 #
coedge $-1 $128 $291 $284 $292 forward $197 $-1 #
loop $-1 $-1 $293 $130 #
vertex $-1 $183 $294 #
vertex $-1 $194 $295 #
straight-curve $-1 20.12960910942836179 26.09850000000000136 -14.2240000000000002 25.39999999999999858 0 0 I I #
face $-1 $296 $297 $2 $-1 $298 reversed single #
plane-surface $-1 22.18266666666666609 26.09850000000000136 -17.06880000000001019 0 -1 0 25.39999999999999858 0 0 forward_v I I I I #
coedge $-1 $299 $132 $300 $301 forward $36 $-1 #
coedge $-1 $302 $303 $135 $205 forward $304 $-1 #
edge $-1 $234 0 $208 0.17000000000000004 $204 $305 forward 7 unknown #
coedge $-1 $136 $226 $302 $306 forward $207 $-1 #
loop $-1 $-1 $152 $307 #
vertex $-1 $205 $308 #
ellipse-curve $-1 -8.215488888888883068 4.318000000000000504 0 0 1 0 8.600610397595881196 0 4.000499999999999723 1 I I #
point $-1 0.3851215087069990717 4.318000000000000504 -4.000499999999999723 #
face $-1 $309 $233 $2 $-1 $310 forward single #
loop $-1 $-1 $311 $140 #
cone-surface $-1 15.875 34.79800000000000182 0 0 -1 0 5.956299999999999706 0 0 1 I I 0 1 5.956299999999999706 forward I I I I #
coedge $-1 $312 $313 $314 $315 reversed $141 $-1 #
coedge $-1 $145 $143 $316 $317 forward $96 $-1 #
coedge $-1 $313 $318 $143 $217 forward $141 $-1 #
edge $-1 $319 0 $179 0.4990000000000001101 $216 $320 forward 7 unknown #
coedge $-1 $171 $144 $321 $322 reversed $61 $-1 #
coedge $-1 $323 $324 $144 $220 reversed $325 $-1 #
edge $-1 $221 0 $326 0.3272645689561279325 $219 $327 forward 7 unknown #
vertex $-1 $220 $328 #
straight-curve $-1 41.24960000000000093 0 -4.000499999999999723 -25.39999999999999858 0 0 I I #
coedge $-1 $147 $299 $329 $330 reversed $36 $-1 #
coedge $-1 $331 $332 $147 $225 reversed $212 $-1 #
edge $-1 $333 1.398706172756102709e-16 $227 0.5150000000000001243 $224 $334 forward 7 unknown #
coedge $-1 $206 $148 $332 $335 reversed $207 $-1 #
vertex $-1 $225 $336 #
ellipse-curve $-1 15.87500000000002132 4.318000000000000504 1.762479051592436008e-14 0 -1 0 -5.956300000000026351 0 -1.691979889528738315e-14 1 I I #
point $-1 11.4621200514856536 4.318000000000000504 -4.000499999999999723 #
straight-curve $-1 11.4621200514856536 4.318000000000000504 -4.000499999999999723 -25.39999999999999858 0 0 I I #
coedge $-1 $337 $154 $303 $338 forward $233 $-1 #
coedge $-1 $154 $264 $156 $237 forward $233 $-1 #
loop $-1 $-1 $231 $211 #
vertex $-1 $155 $339 #
ellipse-curve $-1 -8.215488888888883068 0 5.63993296509579491e-15 0 1 0 8.215488888888883068 0 4.741333333333329847 1 I I #
coedge $-1 $157 $156 $340 $341 reversed $158 $-1 #
edge $-1 $342 -1.748382715945127461e-17 $159 0.4310882009949202898 $232 $343 forward 7 unknown #
face $-1 $280 $158 $2 $-1 $344 reversed single #
point $-1 0 0 4.741333333333335176 #
coedge $-1 $345 $161 $346 $347 forward $70 $-1 #
coedge $-1 $340 $348 $161 $242 reversed $349 $-1 #
edge $-1 $243 3.496765431890256772e-17 $350 0.5769601951493259495 $161 $351 forward 7 unknown #
vertex $-1 $242 $352 #
straight-curve $-1 5.474820152635478721 34.79800000000000182 14.2240000000000002 -12.69999999999999218 0 -21.99704525612474271 I I #
coedge $-1 $164 $353 $354 $355 reversed $70 $-1 #
coedge $-1 $356 $357 $164 $247 forward $358 $-1 #
edge $-1 $250 5.071669413301807459e-17 $359 0.148557250934843954 $164 $360 forward 7 unknown #
coedge $-1 $269 $165 $357 $361 reversed $249 $-1 #
loop $-1 $-1 $165 $169 #
vertex $-1 $247 $362 #
straight-curve $-1 20.12960910942836179 34.79800000000000182 -14.2240000000000002 12.69999999999999574 0 21.99704525612474626 I I #
point $-1 20.12960910942836179 34.79800000000000182 -14.2240000000000002 #
face $-1 $363 $358 $2 $-1 $364 reversed single #
plane-surface $-1 20.12960910942836179 26.09850000000000136 -14.2240000000000002 -0.8660254037844388186 0 0.499999999999999889 12.69999999999999929 0 21.99704525612474981 forward_v I I I I #
coedge $-1 $365 $300 $171 $256 reversed $366 $-1 #
edge $-1 $367 2.797412345512205417e-16 $257 1.152529137912256196 $255 $368 forward 7 unknown #
vertex $-1 $301 $369 #
straight-curve $-1 20.28787994851434462 4.318000000000000504 -4.000499999999999723 0 -25.39999999999999858 0 I I #
coedge $-1 $370 $371 $174 $260 reversed $349 $-1 #
edge $-1 $262 1.223867901161589932e-16 $266 0.1200000000000001066 $259 $372 forward 7 unknown #
coedge $-1 $175 $187 $370 $373 reversed $188 $-1 #
vertex $-1 $373 $374 #
straight-curve $-1 28.57499999999999929 -3.047999999999999599 -14.2240000000000002 0 0 25.39999999999999858 I I #
coedge $-1 $232 $177 $371 $375 reversed $233 $-1 #
coedge $-1 $177 $337 $313 $376 forward $233 $-1 #
vertex $-1 $375 $377 #
straight-curve $-1 28.57499999999999929 0 14.2240000000000002 0 0 -25.39999999999999858 I I #
point $-1 28.57499999999999929 0 4.000499999999998835 #
coedge $-1 $182 $248 $195 $290 reversed $249 $-1 #
straight-curve $-1 20.12960910942836179 26.09850000000000136 -14.2240000000000002 0 25.39999999999999858 0 I I #
coedge $-1 $184 $192 $378 $379 reversed $49 $-1 #
coedge $-1 $380 $323 $184 $273 forward $325 $-1 #
edge $-1 $277 0 $381 0.7804558995025402401 $272 $382 forward 7 unknown #
coedge $-1 $316 $185 $323 $383 reversed $276 $-1 #
coedge $-1 $185 $384 $187 $279 forward $276 $-1 #
loop $-1 $-1 $385 $386 #
vertex $-1 $273 $387 #
straight-curve $-1 41.24960000000000093 -3.047999999999999599 -14.2240000000000002 0 25.39999999999999858 0 I I #
edge $-1 $388 0 $189 1.120000000000000107 $187 $389 forward 7 unknown #
face $-1 $390 $188 $2 $-1 $391 reversed single #
point $-1 41.24960000000000093 -3.047999999999999599 -14.2240000000000002 #
coedge $-1 $392 $393 $192 $283 reversed $394 $-1 #
edge $-1 $287 0 $395 0.7386182705224210165 $192 $396 forward 7 unknown #
coedge $-1 $397 $193 $196 $292 reversed $286 $-1 #
coedge $-1 $193 $397 $392 $398 reversed $286 $-1 #
loop $-1 $-1 $284 $399 #
vertex $-1 $283 $400 #
straight-curve $-1 42.31227577609502788 17.39900000000000091 -14.2240000000000002 0 25.39999999999999858 0 I I #
coedge $-1 $401 $195 $402 $403 forward $197 $-1 #
edge $-1 $198 1.211315078036891216e-16 $404 0.1616580753730952336 $195 $405 forward 7 unknown #
coedge $-1 $196 $293 $406 $407 reversed $197 $-1 #
edge $-1 $408 -1.211315078036890723e-16 $199 0.1616580753730948727 $196 $409 forward 7 unknown #
coedge $-1 $291 $410 $411 $412 reversed $197 $-1 #
point $-1 20.12960910942836179 26.09850000000000136 -14.2240000000000002 #
point $-1 42.31227577609502788 26.09850000000000136 -14.2240000000000002 #
face $-1 $413 $414 $2 $-1 $415 reversed single #
loop $-1 $-1 $416 $201 #
plane-surface $-1 44.36533333333333218 17.39900000000000091 10.66800000000000104 -0.8660254037844387076 0 -0.500000000000000111 -12.69999999999999929 0 21.99704525612473915 forward_v I I I I #
coedge $-1 $223 $203 $417 $418 reversed $36 $-1 #
coedge $-1 $255 $419 $203 $301 reversed $366 $-1 #
edge $-1 $257 -1.001398832624903651e-16 $420 0.7364225809643870635 $203 $421 forward 7 unknown #
coedge $-1 $422 $204 $206 $306 reversed $304 $-1 #
coedge $-1 $204 $422 $231 $338 reversed $304 $-1 #
loop $-1 $-1 $302 $309 #
straight-curve $-1 0.3851215087069990717 0 4.000499999999999723 0 25.39999999999999858 0 I I #
edge $-1 $423 0 $208 0.4361023048338052988 $302 $424 forward 7 unknown #
face $-1 $119 $207 $2 $-1 $425 reversed single #
point $-1 0.3851215087069990717 4.318000000000000504 4.000499999999999723 #
face $-1 $307 $304 $2 $-1 $426 reversed single #
plane-surface $-1 0 0 14.2240000000000002 0 -1 0 0 0 -25.39999999999999858 forward_v I I I I #
coedge $-1 $427 $314 $337 $428 forward $212 $-1 #
coedge $-1 $429 $214 $430 $431 reversed $141 $-1 #
coedge $-1 $214 $216 $265 $376 reversed $141 $-1 #
coedge $-1 $311 $432 $214 $315 forward $212 $-1 #
edge $-1 $433 0 $434 0.17000000000000004 $314 $435 forward 7 unknown #
coedge $-1 $385 $274 $215 $317 reversed $276 $-1 #
edge $-1 $319 0 $221 0.3149999999999999467 $316 $436 forward 7 unknown #
coedge $-1 $216 $429 $437 $438 reversed $141 $-1 #
vertex $-1 $438 $439 #
straight-curve $-1 41.24960000000000093 0 4.000499999999998835 -25.39999999999999858 0 0 I I #
coedge $-1 $440 $441 $218 $322 forward $442 $-1 #
edge $-1 $367 0 $326 0.17000000000000004 $321 $443 forward 7 unknown #
coedge $-1 $272 $219 $274 $383 forward $325 $-1 #
coedge $-1 $219 $444 $440 $445 reversed $325 $-1 #
loop $-1 $-1 $323 $446 #
vertex $-1 $220 $447 #
straight-curve $-1 41.24960000000000093 0 -4.000499999999999723 25.39999999999999858 0 0 I I #
point $-1 41.24960000000000093 0 -4.000499999999998835 #
coedge $-1 $448 $448 $223 $330 forward $449 $-1 #
edge $-1 $333 0 $450 3.141592653589792672 $223 $451 forward 7 unknown #
coedge $-1 $417 $224 $448 $452 reversed $212 $-1 #
coedge $-1 $224 $427 $226 $335 forward $212 $-1 #
vertex $-1 $452 $453 #
straight-curve $-1 9.918699999999999406 17.39900000000000446 7.294122825272225417e-16 0 -25.39999999999999858 0 I I #
edge $-1 $423 0 $227 0.7364225809643858423 $332 $454 forward 7 unknown #
point $-1 9.918699999999995853 4.318000000000000504 7.049916206369743637e-16 #
coedge $-1 $265 $231 $311 $428 reversed $233 $-1 #
edge $-1 $234 2.141768827032782442e-16 $455 0.4361023048338051322 $231 $456 forward 7 unknown #
point $-1 0.3851215087070045118 0 4.000499999999998835 #
coedge $-1 $371 $241 $236 $341 forward $349 $-1 #
edge $-1 $243 0 $342 1.370000000000000107 $340 $457 forward 7 unknown #
vertex $-1 $237 $458 #
straight-curve $-1 5.474820152635478721 0 14.2240000000000002 -12.69999999999999218 0 -21.99704525612474271 I I #
plane-surface $-1 5.474820152635478721 -6.832600000000002893 14.2240000000000002 0.8660254037844388186 0 -0.499999999999999778 -12.69999999999999929 0 -21.99704525612475337 forward_v I I I I #
coedge $-1 $353 $240 $459 $460 reversed $70 $-1 #
coedge $-1 $461 $462 $240 $347 reversed $463 $-1 #
edge $-1 $350 0 $464 0.1616580753730951225 $240 $465 forward 7 unknown #
coedge $-1 $241 $466 $461 $467 reversed $349 $-1 #
loop $-1 $-1 $241 $468 #
vertex $-1 $347 $469 #
straight-curve $-1 5.474820152635478721 34.79800000000000182 14.2240000000000002 25.39999999999999858 0 0 I I #
point $-1 5.474820152635479609 34.79800000000000182 14.2240000000000002 #
coedge $-1 $245 $345 $470 $471 reversed $70 $-1 #
coedge $-1 $472 $473 $245 $355 forward $474 $-1 #
edge $-1 $359 1.782797873960274904e-16 $475 2.160014447758205058 $245 $476 forward 7 unknown #
coedge $-1 $402 $246 $473 $477 reversed $358 $-1 #
coedge $-1 $246 $402 $248 $361 forward $358 $-1 #
loop $-1 $-1 $356 $253 #
vertex $-1 $247 $478 #
ellipse-curve $-1 43.31546666666741174 34.79800000000000182 2.989164471500771066e-13 0 1 0 -21.1328000000007421 0 -10.66800000000029947 1 I I #
edge $-1 $404 0 $250 0.3425000000000000266 $248 $479 forward 7 unknown #
point $-1 22.18266666666666609 34.79800000000000182 -10.66800000000000104 #
face $-1 $480 $474 $2 $-1 $481 reversed single #
cone-surface $-1 43.31546666666665857 26.09850000000000136 0 0 1 0 23.67279999999999163 0 0 1 I I 0 1 23.67279999999999163 forward I I I I #
coedge $-1 $482 $255 $441 $483 reversed $366 $-1 #
loop $-1 $-1 $300 $484 #
vertex $-1 $483 $485 #
straight-curve $-1 49.5621200514856497 4.318000000000000504 -4.000499999999999723 -25.39999999999999858 0 0 I I #
point $-1 20.28787994851434462 4.318000000000000504 -4.000499999999999723 #
coedge $-1 $486 $259 $261 $373 forward $349 $-1 #
coedge $-1 $259 $340 $264 $375 forward $349 $-1 #
straight-curve $-1 28.57499999999999929 -3.048000000000002707 14.2240000000000002 0 25.39999999999999858 0 I I #
edge $-1 $262 0 $388 0.4990000000000001101 $370 $487 forward 7 unknown #
point $-1 28.57499999999999929 -3.047999999999999599 14.2240000000000002 #
edge $-1 $342 0 $266 0.9094558995025401327 $264 $488 forward 7 unknown #
edge $-1 $434 0 $179 0.3262645689561281537 $265 $489 forward 7 unknown #
point $-1 28.57499999999999929 0 14.2240000000000002 #
coedge $-1 $490 $491 $271 $379 forward $492 $-1 #
edge $-1 $381 0 $395 0.6850000000000000533 $271 $493 forward 7 unknown #
coedge $-1 $494 $272 $491 $495 forward $325 $-1 #
vertex $-1 $495 $496 #
straight-curve $-1 41.24960000000000093 0 -14.2240000000000002 25.39999999999999858 0 0 I I #
edge $-1 $221 0 $277 0.4025000000000000799 $323 $497 forward 7 unknown #
coedge $-1 $275 $385 $486 $498 reversed $276 $-1 #
coedge $-1 $384 $316 $499 $500 reversed $276 $-1 #
face $-1 $501 $276 $2 $-1 $502 forward single #
point $-1 41.24960000000000093 0 -14.2240000000000002 #
vertex $-1 $498 $503 #
straight-curve $-1 41.24960000000000093 -3.047999999999999599 14.2240000000000002 0 0 -25.39999999999999858 I I #
face $-1 $399 $504 $2 $-1 $505 reversed single #
plane-surface $-1 0 -3.047999999999999599 0 0 1 0 25.39999999999999858 0 0 forward_v I I I I #
coedge $-1 $506 $282 $285 $398 forward $394 $-1 #
coedge $-1 $282 $507 $490 $508 reversed $394 $-1 #
loop $-1 $-1 $509 $296 #
vertex $-1 $379 $510 #
straight-curve $-1 42.31227577609502788 17.39900000000000091 -14.2240000000000002 25.39999999999999858 0 0 I I #
coedge $-1 $285 $284 $511 $512 reversed $286 $-1 #
edge $-1 $287 0 $513 0.1616580753730950393 $392 $514 forward 7 unknown #
face $-1 $515 $286 $2 $-1 $516 reversed single #
point $-1 42.31227577609502788 17.39900000000000091 -14.2240000000000002 #
coedge $-1 $517 $289 $518 $519 reversed $197 $-1 #
coedge $-1 $357 $356 $289 $403 reversed $358 $-1 #
edge $-1 $404 1.014333882660430394e-16 $520 0.1485572509348490333 $289 $521 forward 7 unknown #
vertex $-1 $403 $522 #
straight-curve $-1 20.12960910942836179 26.09850000000000136 -14.22400000000000375 12.6999999999999833 0 21.99704525612474981 I I #
coedge $-1 $523 $511 $291 $407 forward $524 $-1 #
edge $-1 $408 -5.071669413302137794e-17 $525 0.9349727234756048944 $291 $526 forward 7 unknown #
vertex $-1 $292 $527 #
straight-curve $-1 44.36533333333333218 26.09850000000000136 -10.66800000000000814 -12.70000000000000284 0 -21.99704525612473915 I I #
coedge $-1 $293 $528 $466 $529 reversed $197 $-1 #
coedge $-1 $530 $531 $293 $412 forward $297 $-1 #
edge $-1 $525 -2.422630156073781446e-16 $532 0.1616580753730949838 $293 $533 forward 7 unknown #
face $-1 $534 $535 $2 $-1 $536 reversed single #
loop $-1 $394 $537 $296 #
plane-surface $-1 44.36533333333333218 17.39900000000000091 -17.06879999999999953 0 -1 0 25.39999999999999858 0 0 forward_v I I I I #
coedge $-1 $531 $530 $538 $539 reversed $297 $-1 #
coedge $-1 $432 $331 $299 $418 forward $212 $-1 #
edge $-1 $450 1.398706172756102709e-16 $420 0.5150000000000001243 $417 $540 forward 7 unknown #
coedge $-1 $300 $430 $432 $541 reversed $366 $-1 #
vertex $-1 $541 $542 #
ellipse-curve $-1 15.87499999999997691 4.318000000000000504 1.691979889528738315e-14 0 -1 0 4.4128799485143686 0 -4.000500000000016598 1 I I #
coedge $-1 $303 $302 $427 $543 forward $304 $-1 #
vertex $-1 $335 $544 #
straight-curve $-1 11.4621200514856536 4.318000000000000504 4.000499999999999723 -25.39999999999999858 0 0 I I #
plane-surface $-1 73.20279999999999632 4.318000000000000504 4.000499999999999723 0 1 0 0 0 -25.39999999999999858 forward_v I I I I #
plane-surface $-1 73.20279999999999632 0 4.000499999999999723 0 0 1 0 25.39999999999999858 0 forward_v I I I I #
coedge $-1 $332 $311 $422 $543 reversed $212 $-1 #
edge $-1 $434 3.004196497874739425e-16 $455 1.66874749166101255 $337 $545 forward 7 unknown #
coedge $-1 $318 $312 $546 $547 forward $141 $-1 #
coedge $-1 $419 $482 $312 $431 forward $366 $-1 #
edge $-1 $548 0 $433 1.152529137912256196 $312 $549 forward 7 unknown #
coedge $-1 $314 $417 $419 $541 forward $212 $-1 #
vertex $-1 $315 $550 #
vertex $-1 $376 $551 #
straight-curve $-1 20.28787994851434462 4.318000000000000504 4.000499999999999723 0 -25.39999999999999858 0 I I #
straight-curve $-1 41.24960000000000093 0 4.000499999999998835 0 0 -25.39999999999999858 I I #
coedge $-1 $552 $499 $318 $438 forward $553 $-1 #
edge $-1 $319 0 $554 0.3272645689561279325 $437 $555 forward 7 unknown #
point $-1 41.24960000000000093 0 4.000499999999998835 #
coedge $-1 $556 $321 $324 $445 forward $442 $-1 #
coedge $-1 $321 $557 $365 $483 forward $442 $-1 #
loop $-1 $-1 $321 $558 #
straight-curve $-1 49.5621200514856497 4.318000000000000504 -4.000499999999999723 0 -25.39999999999999858 0 I I #
coedge $-1 $324 $494 $559 $560 reversed $325 $-1 #
edge $-1 $326 1.001398832624915237e-16 $561 1.668747491661015214 $324 $562 forward 7 unknown #
face $-1 $386 $325 $2 $-1 $563 forward single #
point $-1 49.5621200514856497 0 -4.000499999999998835 #
coedge $-1 $329 $329 $331 $452 forward $449 $-1 #
loop $-1 $-1 $329 $564 #
vertex $-1 $418 $565 #
ellipse-curve $-1 15.875 17.39900000000000091 0 0 -1 0 -5.956299999999999706 0 0 1 I I #
edge $-1 $450 -1.778841665300691348e-31 $333 3.14159265358979356 $331 $566 forward 7 unknown #
point $-1 9.918699999999999406 17.39900000000000091 0 #
ellipse-curve $-1 15.87500000000003375 4.318000000000000504 -1.97397653778352814e-14 0 -1 0 -4.412879948514380146 0 4.000500000000019263 1 I I #
vertex $-1 $428 $567 #
straight-curve $-1 0.3851215087069990717 0 4.000499999999999723 25.39999999999999858 0 0 I I #
straight-curve $-1 5.474820152635478721 34.79800000000000182 14.2240000000000002 0 -25.39999999999999858 0 I I #
point $-1 5.474820152635479609 0 14.2240000000000002 #
coedge $-1 $568 $569 $345 $460 forward $570 $-1 #
edge $-1 $571 5.071669413302007139e-17 $464 0.1485572509348469239 $345 $572 forward 7 unknown #
coedge $-1 $573 $346 $348 $467 forward $463 $-1 #
coedge $-1 $346 $573 $568 $574 forward $463 $-1 #
loop $-1 $-1 $461 $575 #
vertex $-1 $460 $576 #
straight-curve $-1 20.12960910942835824 34.79800000000000182 14.2240000000000002 12.69999999999999574 0 -21.99704525612474626 I I #
coedge $-1 $348 $577 $410 $529 forward $349 $-1 #
edge $-1 $350 0 $578 0.3425000000000000266 $348 $579 forward 7 unknown #
face $-1 $110 $349 $2 $-1 $580 forward single #
point $-1 20.12960910942835824 34.79800000000000182 14.2240000000000002 #
coedge $-1 $581 $582 $353 $471 forward $583 $-1 #
edge $-1 $475 -1.224606353822377998e-16 $571 2.16001444775820417 $353 $584 forward 7 unknown #
coedge $-1 $585 $354 $582 $586 reversed $474 $-1 #
coedge $-1 $354 $518 $356 $477 forward $474 $-1 #
loop $-1 $-1 $473 $363 #
vertex $-1 $355 $587 #
ellipse-curve $-1 15.875 34.79800000000000182 0 0 1 0 4.961444788131236905 0 -7.422602995198205988 1 I I #
edge $-1 $520 1.586880377190379522e-31 $359 0.3425000000000000266 $473 $588 forward 7 unknown #
point $-1 20.83644478813123513 34.79800000000000182 -7.422602995198205988 #
straight-curve $-1 22.18266666666666964 26.09850000000000136 -10.66800000000000104 0 25.39999999999999858 0 I I #
face $-1 $564 $583 $2 $-1 $589 reversed single #
cone-surface $-1 15.875 17.39900000000000091 0 0 1 0 8.928099999999998815 0 0 1 I I 0 1 8.928099999999998815 forward I I I I #
coedge $-1 $430 $365 $590 $591 reversed $366 $-1 #
edge $-1 $592 0 $367 0.7364225809643869525 $441 $593 forward 7 unknown #
face $-1 $594 $366 $2 $-1 $595 reversed single #
point $-1 49.56212005148564259 4.318000000000000504 -4.000499999999999723 #
coedge $-1 $596 $370 $384 $498 forward $349 $-1 #
straight-curve $-1 28.57499999999999929 -3.048000000000002707 14.2240000000000002 25.39999999999999858 0 0 I I #
straight-curve $-1 5.474820152635479609 0 14.2240000000000002 25.39999999999999858 0 0 I I #
straight-curve $-1 20.28787994851434462 0 4.000499999999999723 25.39999999999999858 0 0 I I #
coedge $-1 $597 $378 $393 $508 forward $492 $-1 #
coedge $-1 $378 $597 $380 $495 reversed $492 $-1 #
loop $-1 $-1 $378 $598 #
straight-curve $-1 61.07317984736452132 0 -14.2240000000000002 0 25.39999999999999858 0 I I #
coedge $-1 $444 $380 $599 $600 forward $325 $-1 #
edge $-1 $381 0 $601 0.4310882009949201232 $380 $602 forward 7 unknown #
point $-1 61.07317984736452132 0 -14.2240000000000002 #
straight-curve $-1 41.24960000000000093 0 -4.000499999999998835 0 0 -25.39999999999999858 I I #
edge $-1 $388 1.223867901161589932e-16 $603 0.1200000000000001066 $486 $604 forward 7 unknown #
coedge $-1 $437 $605 $385 $500 forward $553 $-1 #
edge $-1 $603 0 $319 0.4025000000000000799 $499 $606 forward 7 unknown #
face $-1 $607 $553 $2 $-1 $608 forward single #
plane-surface $-1 41.24960000000000093 -3.047999999999999599 14.2240000000000002 1 0 0 0 0 -25.39999999999999858 forward_v I I I I #
point $-1 41.24960000000000093 -3.047999999999999599 14.2240000000000002 #
loop $-1 $-1 $609 $390 #
plane-surface $-1 73.20279999999999632 0 4.000499999999999723 0 0 1 0 25.39999999999999858 0 forward_v I I I I #
coedge $-1 $538 $392 $610 $611 forward $394 $-1 #
coedge $-1 $393 $509 $612 $613 reversed $394 $-1 #
edge $-1 $395 0 $614 0.4310882009949201787 $393 $615 forward 7 unknown #
coedge $-1 $507 $616 $617 $618 reversed $394 $-1 #
point $-1 61.07317984736452132 17.39900000000000091 -14.2240000000000002 #
coedge $-1 $406 $610 $397 $512 forward $524 $-1 #
edge $-1 $513 0 $408 0.3425000000000000266 $397 $619 forward 7 unknown #
vertex $-1 $611 $620 #
straight-curve $-1 42.31227577609502788 17.39900000000000091 -14.2240000000000002 12.69999999999999041 0 21.99704525612474626 I I #
face $-1 $-1 $524 $2 $-1 $621 reversed single #
plane-surface $-1 42.31227577609502788 17.39900000000000091 -14.2240000000000002 -0.8660254037844388186 0 0.499999999999999889 12.69999999999999929 0 21.99704525612474981 forward_v I I I I #
coedge $-1 $622 $401 $623 $624 reversed $197 $-1 #
coedge $-1 $473 $625 $401 $519 forward $474 $-1 #
edge $-1 $626 0 $520 0.981578205831590167 $401 $627 forward 7 unknown #
vertex $-1 $519 $628 #
ellipse-curve $-1 43.31546666666665857 26.09850000000000136 0 0 1 0 -21.13279999999999248 0 -10.66800000000000281 1 I I #
point $-1 22.18266666666666609 26.09850000000000136 -10.66800000000000104 #
coedge $-1 $610 $406 $531 $629 reversed $524 $-1 #
loop $-1 $-1 $511 $515 #
vertex $-1 $407 $630 #
ellipse-curve $-1 65.49813333333335663 26.09850000000000136 0 0 1 0 -21.13280000000002801 0 -10.66800000000000459 1 I I #
point $-1 44.36533333333333218 26.09850000000000136 -10.66800000000000459 #
coedge $-1 $410 $622 $573 $631 forward $197 $-1 #
edge $-1 $532 0 $578 0.8733333333333335169 $466 $632 forward 7 unknown #
coedge $-1 $416 $411 $577 $633 forward $297 $-1 #
coedge $-1 $411 $416 $523 $629 forward $297 $-1 #
vertex $-1 $529 $634 #
straight-curve $-1 44.36533333333333218 26.09850000000000136 10.66800000000000814 -12.70000000000000284 0 21.99704525612473915 I I #
face $-1 $635 $636 $2 $-1 $637 reversed single #
loop $-1 $-1 $638 $413 #
cone-surface $-1 53.97499999999999432 8.699500000000000455 0 0 1 0 8.928099999999998815 0 0 1 I I 0 1 8.928099999999998815 forward I I I I #
coedge $-1 $639 $639 $640 $641 reversed $414 $-1 #
coedge $-1 $616 $506 $416 $539 forward $394 $-1 #
edge $-1 $642 0 $643 0.1616580753730953723 $538 $644 forward 7 unknown #
straight-curve $-1 21.83129999999999526 17.39900000000000446 0 0 -25.39999999999999858 0 I I #
edge $-1 $420 -7.115366661202668176e-31 $433 0.7364225809643860643 $432 $645 forward 7 unknown #
point $-1 21.83130000000000237 4.318000000000000504 -1.409983241273948727e-15 #
edge $-1 $423 0 $455 0.17000000000000004 $427 $646 forward 7 unknown #
point $-1 11.4621200514856536 4.318000000000000504 4.000499999999999723 #
ellipse-curve $-1 15.875 0 0 0 -1 0 4.412879948514346395 0 4.000499999999998835 1 I I #
coedge $-1 $590 $647 $429 $547 reversed $648 $-1 #
edge $-1 $548 0 $554 0.17000000000000004 $546 $649 forward 7 unknown #
vertex $-1 $591 $650 #
straight-curve $-1 49.5621200514856497 4.318000000000000504 4.000499999999999723 -25.39999999999999858 0 0 I I #
point $-1 20.28787994851434462 4.318000000000000504 4.000499999999999723 #
point $-1 20.28787994851434462 0 4.000499999999999723 #
coedge $-1 $651 $437 $647 $652 reversed $553 $-1 #
loop $-1 $-1 $552 $501 #
vertex $-1 $438 $653 #
straight-curve $-1 41.24960000000000093 0 4.000499999999999723 25.39999999999999858 0 0 I I #
coedge $-1 $654 $440 $655 $656 reversed $442 $-1 #
coedge $-1 $441 $657 $658 $659 forward $442 $-1 #
face $-1 $446 $442 $2 $-1 $660 reversed single #
coedge $-1 $661 $655 $444 $560 forward $662 $-1 #
edge $-1 $561 0 $663 0.3061023048338047392 $444 $664 forward 7 unknown #
vertex $-1 $445 $665 #
ellipse-curve $-1 53.97499999999999432 0 -8.459899447643691576e-15 0 -1 0 -4.412879948514346395 0 -4.000499999999990841 1 I I #
plane-surface $-1 0 0 14.2240000000000002 0 -1 0 0 0 -25.39999999999999858 forward_v I I I I #
face $-1 $666 $667 $2 $-1 $668 forward single #
point $-1 21.83129999999999526 17.39900000000000091 -2.819966482547897455e-15 #
ellipse-curve $-1 15.875 17.39900000000000091 0 0 -1 0 5.956299999999997929 0 -2.819966482547897455e-15 1 I I #
point $-1 11.46212005148565005 0 4.000500000000000611 #
coedge $-1 $669 $459 $462 $574 reversed $570 $-1 #
coedge $-1 $459 $669 $581 $670 forward $570 $-1 #
loop $-1 $-1 $568 $666 #
vertex $-1 $471 $671 #
ellipse-curve $-1 43.31546666666697831 34.79800000000000182 -1.184385922670116947e-13 0 1 0 -22.47902187853574318 0 7.422602995198323228 1 I I #
coedge $-1 $462 $461 $528 $631 reversed $463 $-1 #
edge $-1 $672 1.813577573931862499e-31 $464 0.3425000000000000266 $568 $673 forward 7 unknown #
face $-1 $238 $463 $2 $-1 $674 reversed single #
point $-1 22.18266666666666609 34.79800000000000182 10.66800000000000104 #
coedge $-1 $466 $675 $530 $633 reversed $349 $-1 #
vertex $-1 $467 $676 #
straight-curve $-1 20.12960910942835824 34.79800000000000182 14.2240000000000002 0 -25.39999999999999858 0 I I #
plane-surface $-1 0 34.79800000000000182 14.2240000000000002 0 0 1 0 -25.39999999999999858 0 forward_v I I I I #
coedge $-1 $623 $470 $569 $670 reversed $583 $-1 #
coedge $-1 $470 $677 $472 $586 forward $583 $-1 #
loop $-1 $-1 $623 $480 #
ellipse-curve $-1 15.875 34.79800000000000182 -2.819966482547897455e-15 0 1 0 -8.928099999999998815 0 2.819966482547897455e-15 1 I I #
coedge $-1 $625 $472 $678 $679 reversed $474 $-1 #
edge $-1 $680 0 $475 0.6850000000000000533 $472 $681 forward 7 unknown #
point $-1 6.946900000000000297 34.79800000000000182 -1.093340798756156652e-15 #
straight-curve $-1 20.83644478813123868 26.09850000000000136 -7.422602995198211318 -8.233478781161744463e-15 25.39999999999999858 1.646695756232348893e-14 I I #
cone-surface $-1 15.875 17.39900000000000091 0 0 1 0 8.928099999999998815 0 0 1 I I 0 1 8.928099999999998815 forward I I I I #
coedge $-1 $658 $546 $482 $591 forward $648 $-1 #
edge $-1 $548 3.004196497874748299e-16 $592 0.7364225809643919485 $590 $682 forward 7 unknown #
vertex $-1 $659 $683 #
ellipse-curve $-1 53.97500000000002274 4.318000000000000504 7.049916206369743637e-16 0 -1 0 -5.956300000000020134 0 0 1 I I #
face $-1 $684 $685 $2 $-1 $686 reversed single #
plane-surface $-1 73.20279999999999632 4.318000000000000504 4.000499999999999723 0 1 0 0 0 -25.39999999999999858 forward_v I I I I #
coedge $-1 $687 $486 $605 $688 forward $349 $-1 #
coedge $-1 $491 $490 $689 $690 reversed $492 $-1 #
face $-1 $691 $492 $2 $-1 $692 reversed single #
coedge $-1 $689 $693 $494 $600 reversed $694 $-1 #
edge $-1 $601 0 $663 0.08805307313757736176 $494 $695 forward 7 unknown #
vertex $-1 $600 $696 #
straight-curve $-1 61.07317984736452132 0 -14.2240000000000002 12.70000000000000284 0 21.99704525612473915 I I #
vertex $-1 $500 $697 #
straight-curve $-1 41.24960000000000093 -3.048000000000002707 14.2240000000000002 0 25.39999999999999858 0 I I #
coedge $-1 $499 $698 $596 $688 reversed $553 $-1 #
straight-curve $-1 41.24960000000000093 0 14.2240000000000002 0 0 -25.39999999999999858 I I #
face $-1 $484 $648 $2 $-1 $699 reversed single #
plane-surface $-1 0 0 14.2240000000000002 0 -1 0 0 0 -25.39999999999999858 forward_v I I I I #
coedge $-1 $700 $701 $702 $703 reversed $504 $-1 #
coedge $-1 $511 $523 $506 $611 reversed $524 $-1 #
edge $-1 $513 -5.071669413302148888e-17 $642 0.9349727234756058936 $506 $704 forward 7 unknown #
coedge $-1 $705 $689 $507 $613 forward $694 $-1 #
edge $-1 $614 -4.738294116765132853e-16 $706 1.046854009604815339 $507 $707 forward 7 unknown #
vertex $-1 $508 $708 #
straight-curve $-1 61.07317984736452132 17.39900000000000091 -14.2240000000000002 12.70000000000000462 0 21.99704525612473915 I I #
coedge $-1 $509 $538 $675 $709 reversed $394 $-1 #
coedge $-1 $710 $711 $509 $618 forward $712 $-1 #
edge $-1 $706 0 $713 0.4310882009949204008 $509 $714 forward 7 unknown #
straight-curve $-1 44.36533333333333218 17.39900000000000091 -10.66800000000000814 0 25.39999999999999858 0 I I #
point $-1 44.36533333333333218 17.39900000000000091 -10.66800000000000281 #
cone-surface $-1 65.49813333333332821 17.39900000000000091 0 0 1 0 23.67280000000000584 0 0 1 I I 0 1 23.67280000000000584 forward I I I I #
coedge $-1 $528 $517 $669 $715 forward $197 $-1 #
coedge $-1 $716 $581 $517 $624 forward $583 $-1 #
edge $-1 $717 -2.674196810940424682e-16 $626 0.981578205831590167 $517 $718 forward 7 unknown #
coedge $-1 $518 $585 $716 $719 forward $474 $-1 #
vertex $-1 $624 $720 #
ellipse-curve $-1 15.87500000000001066 26.09850000000000136 -5.63993296509579491e-15 0 1 0 8.92809999999998638 0 8.459899447643691576e-15 1 I I #
point $-1 20.83644478813123513 26.09850000000000136 -7.422602995198206877 #
edge $-1 $642 0 $525 0.3425000000000000266 $523 $721 forward 7 unknown #
point $-1 44.36533333333333218 26.09850000000000136 10.66800000000000104 #
edge $-1 $672 0 $578 0.1616580753730951781 $528 $722 forward 7 unknown #
straight-curve $-1 42.31227577609502788 26.09850000000000136 14.2240000000000002 -25.39999999999999858 0 0 I I #
edge $-1 $532 0 $643 0.3425000000000000266 $577 $723 forward 7 unknown #
point $-1 42.31227577609502788 26.09850000000000136 14.22400000000000375 #
face $-1 $558 $724 $2 $-1 $725 forward single #
loop $-1 $-1 $726 $534 #
cone-surface $-1 53.97499999999999432 8.699500000000000455 0 0 1 0 8.928099999999998815 0 0 1 I I 0 1 8.928099999999998815 forward I I I I #
coedge $-1 $727 $640 $728 $729 reversed $535 $-1 #
coedge $-1 $537 $537 $730 $731 reversed $414 $-1 #
coedge $-1 $638 $732 $537 $641 forward $535 $-1 #
edge $-1 $733 7.917212991693882528e-32 $734 3.141592653589792228 $537 $735 forward 7 unknown #
vertex $-1 $539 $736 #
vertex $-1 $633 $737 #
straight-curve $-1 44.36533333333333218 17.39900000000000091 10.66800000000000104 -12.70000000000000284 0 21.99704525612473915 I I #
ellipse-curve $-1 15.87499999999996447 4.318000000000000504 -2.396971510165712718e-14 0 -1 0 5.956300000000037009 0 2.255973186038317964e-14 1 I I #
straight-curve $-1 11.4621200514856536 4.318000000000000504 4.000499999999999723 0 -25.39999999999999858 0 I I #
coedge $-1 $546 $702 $552 $652 forward $648 $-1 #
loop $-1 $-1 $647 $607 #
straight-curve $-1 49.5621200514856497 4.318000000000000504 4.000499999999999723 -6.635215253053875251e-14 -25.39999999999999858 0 I I #
point $-1 49.5621200514856497 4.318000000000000504 4.000499999999999723 #
coedge $-1 $738 $552 $701 $739 forward $553 $-1 #
edge $-1 $740 -1.301818482412381414e-15 $554 1.668747491661008997 $552 $741 forward 7 unknown #
point $-1 49.5621200514856497 0 4.000500000000000611 #
coedge $-1 $742 $556 $743 $744 forward $442 $-1 #
coedge $-1 $559 $745 $556 $656 forward $662 $-1 #
edge $-1 $746 0 $561 0.17000000000000004 $556 $747 forward 7 unknown #
coedge $-1 $557 $742 $748 $749 reversed $442 $-1 #
coedge $-1 $750 $590 $557 $659 reversed $648 $-1 #
edge $-1 $751 6.993530863780513543e-17 $592 0.1725000000000000699 $658 $752 forward 7 unknown #
cone-surface $-1 53.97499999999999432 17.39900000000000091 0 0 -1 0 5.956299999999999706 0 0 1 I I 0 1 5.956299999999999706 forward I I I I #
coedge $-1 $745 $559 $693 $753 forward $662 $-1 #
loop $-1 $-1 $661 $684 #
vertex $-1 $560 $754 #
straight-curve $-1 58.38787994851434604 0 -4.000499999999999723 25.39999999999999858 0 0 I I #
point $-1 58.38787994851434604 0 -4.000499999999998835 #
face $-1 $575 $570 $2 $-1 $755 reversed single #
loop $-1 $449 $756 $564 #
plane-surface $-1 0 17.39900000000000091 -14.2240000000000002 0 1 0 25.39999999999999858 0 0 forward_v I I I I #
coedge $-1 $569 $568 $622 $715 reversed $570 $-1 #
edge $-1 $717 4.363921037273543248e-31 $571 0.3425000000000000266 $581 $757 forward 7 unknown #
point $-1 20.83644478813123513 34.79800000000000182 7.422602995198205988 #
vertex $-1 $631 $758 #
straight-curve $-1 22.18266666666666609 26.09850000000000136 10.66799999999999393 8.233478781161744463e-15 25.39999999999999858 1.646695756232348893e-14 I I #
plane-surface $-1 22.18266666666666609 26.09850000000000136 10.66800000000000104 -0.8660254037844387076 0 -0.4999999999999999445 -12.69999999999999929 0 21.99704525612474626 forward_v I I I I #
coedge $-1 $577 $687 $616 $709 forward $349 $-1 #
point $-1 20.12960910942835824 26.09850000000000136 14.2240000000000002 #
coedge $-1 $582 $716 $756 $759 reversed $583 $-1 #
coedge $-1 $756 $756 $585 $679 forward $667 $-1 #
edge $-1 $760 0 $680 3.141592653589793116 $678 $761 forward 7 unknown #
vertex $-1 $679 $762 #
straight-curve $-1 6.946900000000000297 17.39900000000000091 -1.093340798756156652e-15 0 25.39999999999999858 0 I I #
ellipse-curve $-1 53.97499999999998721 4.318000000000000504 3.524958103184872016e-15 0 -1 0 -4.412879948514334849 0 4.00049999999999617 1 I I #
point $-1 48.0187000000000026 4.318000000000000504 7.049916206369743637e-16 #
face $-1 $763 $662 $2 $-1 $764 reversed single #
loop $-1 $-1 $743 $594 #
plane-surface $-1 73.20279999999999632 4.318000000000000504 4.000499999999999723 0 1 0 0 0 -25.39999999999999858 forward_v I I I I #
coedge $-1 $675 $596 $710 $765 forward $349 $-1 #
edge $-1 $603 0 $766 0.7804558995025399071 $605 $767 forward 7 unknown #
coedge $-1 $612 $599 $597 $690 forward $694 $-1 #
edge $-1 $601 2.775557561562891351e-17 $614 0.6850000000000000533 $597 $768 forward 7 unknown #
face $-1 $468 $712 $2 $-1 $769 reversed single #
plane-surface $-1 61.07317984736452132 -5.092700000000002447 -14.2240000000000002 -0.8660254037844387076 0 0.499999999999999889 12.69999999999999929 0 21.99704525612474626 forward_v I I I I #
coedge $-1 $599 $770 $661 $753 reversed $694 $-1 #
loop $-1 $-1 $770 $763 #
ellipse-curve $-1 74.76348888888772137 0 -5.780931289223190106e-13 0 1 0 -8.215488888887719554 0 -4.741333333332763189 1 I I #
point $-1 66.54800000000000182 0 -4.741333333333341393 #
point $-1 41.24960000000000093 0 14.2240000000000002 #
coedge $-1 $605 $738 $771 $772 forward $553 $-1 #
cone-surface $-1 53.97499999999999432 17.39900000000000091 0 0 -1 0 5.956299999999999706 0 0 1 I I 0 1 5.956299999999999706 forward I I I I #
coedge $-1 $773 $609 $774 $775 reversed $504 $-1 #
coedge $-1 $609 $773 $651 $739 reversed $504 $-1 #
coedge $-1 $647 $776 $609 $703 forward $648 $-1 #
edge $-1 $777 0 $740 0.17000000000000004 $702 $778 forward 7 unknown #
ellipse-curve $-1 65.49813333333332821 17.39900000000000091 0 0 1 0 -21.13279999999999959 0 -10.66800000000000281 1 I I #
coedge $-1 $779 $612 $711 $780 reversed $694 $-1 #
vertex $-1 $613 $781 #
ellipse-curve $-1 74.76348888888894351 17.39900000000000091 -2.819966482547897455e-15 0 1 0 -8.215488888888950569 0 -4.741333333333339617 1 I I #
point $-1 66.54800000000000182 17.39900000000000091 -4.741333333333342281 #
edge $-1 $713 0 $643 0.7386182705224210165 $675 $782 forward 7 unknown #
coedge $-1 $771 $617 $687 $765 reversed $712 $-1 #
coedge $-1 $617 $771 $705 $780 forward $712 $-1 #
loop $-1 $-1 $711 $691 #
vertex $-1 $709 $783 #
straight-curve $-1 66.54800000000000182 17.39900000000000091 4.741333333333337841 -12.69999999999999218 0 21.99704525612474626 I I #
edge $-1 $717 1.521500823990645837e-16 $672 0.1485572509348491999 $622 $784 forward 7 unknown #
coedge $-1 $677 $623 $625 $719 reversed $583 $-1 #
vertex $-1 $715 $785 #
ellipse-curve $-1 15.87500000000002132 26.09850000000000136 8.459899447643691576e-15 0 1 0 4.9614447881312147 0 7.422602995198193554 1 I I #
edge $-1 $760 0 $626 0.3425000000000000266 $625 $786 forward 7 unknown #
point $-1 24.80309999999999704 26.09850000000000136 2.819966482547897455e-15 #
straight-curve $-1 44.36533333333333218 17.39900000000000091 10.66800000000000104 1.646695756232348893e-14 25.39999999999999858 -4.116739390580872231e-15 I I #
straight-curve $-1 22.18266666666666609 26.09850000000000136 10.66800000000000104 -12.70000000000000462 0 21.9970452561247356 I I #
straight-curve $-1 42.31227577609502077 26.09850000000000136 14.2240000000000002 0 -25.39999999999999858 0 I I #
loop $-1 $787 $788 $635 #
plane-surface $-1 44.36533333333333218 8.699500000000000455 -17.06879999999999953 0 1 0 25.39999999999999858 0 0 forward_v I I I I #
coedge $-1 $789 $730 $732 $790 reversed $636 $-1 #
coedge $-1 $732 $638 $788 $791 reversed $535 $-1 #
coedge $-1 $730 $789 $638 $729 forward $636 $-1 #
edge $-1 $792 0 $734 0.3425000000000000266 $728 $793 forward 7 unknown #
coedge $-1 $726 $728 $639 $731 forward $636 $-1 #
edge $-1 $734 0 $733 3.141592653589793116 $639 $794 forward 7 unknown #
coedge $-1 $640 $727 $726 $790 forward $535 $-1 #
vertex $-1 $731 $795 #
vertex $-1 $731 $796 #
ellipse-curve $-1 53.97500000000000853 17.39900000000000091 -2.819966482547897455e-15 0 1 0 -8.928100000000009473 0 2.819966482547897455e-15 1 I I #
point $-1 44.36533333333333218 17.39900000000000091 10.66800000000000104 #
point $-1 42.31227577609502077 17.39900000000000091 14.22400000000000375 #
coedge $-1 $698 $651 $779 $797 forward $553 $-1 #
edge $-1 $740 2.797412345512205417e-16 $798 0.3061023048338047392 $651 $799 forward 7 unknown #
vertex $-1 $739 $800 #
ellipse-curve $-1 53.97499999999999432 0 -1.127986593019158982e-14 0 -1 0 4.412879948514346395 0 4.000500000000010381 1 I I #
coedge $-1 $657 $654 $801 $802 reversed $442 $-1 #
coedge $-1 $803 $804 $654 $744 reversed $685 $-1 #
edge $-1 $746 -1.101538715887349383e-15 $805 0.7364225809643704102 $654 $806 forward 7 unknown #
coedge $-1 $655 $661 $803 $807 forward $662 $-1 #
vertex $-1 $744 $808 #
straight-curve $-1 58.38787994851434604 4.318000000000000504 -4.000499999999999723 0 -25.39999999999999858 0 I I #
coedge $-1 $809 $809 $657 $749 forward $787 $-1 #
edge $-1 $751 2.668262497951027497e-31 $810 3.141592653589791784 $657 $811 forward 7 unknown #
coedge $-1 $801 $658 $809 $812 reversed $648 $-1 #
vertex $-1 $812 $813 #
straight-curve $-1 48.0187000000000026 8.699500000000002231 7.294122825272225417e-16 0 -25.39999999999999858 0 I I #
edge $-1 $663 0 $814 0.17000000000000004 $693 $815 forward 7 unknown #
point $-1 66.16287849129298593 0 -4.000499999999998835 #
cone-surface $-1 43.31546666666665857 26.09850000000000136 0 0 1 0 23.67279999999999163 0 0 1 I I 0 1 23.67279999999999163 forward I I I I #
coedge $-1 $678 $678 $677 $759 forward $667 $-1 #
straight-curve $-1 20.83644478813123513 26.09850000000000136 7.422602995198196218 0 25.39999999999999858 2.881717573406610404e-14 I I #
point $-1 22.18266666666666609 26.09850000000000136 10.66800000000000104 #
edge $-1 $680 0 $760 3.141592653589793116 $756 $816 forward 7 unknown #
vertex $-1 $679 $817 #
ellipse-curve $-1 15.875 17.39900000000000091 0 0 1 0 8.928099999999997038 0 0 1 I I #
point $-1 6.946900000000000297 17.39900000000000091 0 #
face $-1 $598 $694 $2 $-1 $818 reversed single #
plane-surface $-1 73.20279999999999632 4.318000000000000504 -4.000499999999999723 0 0 -1 0 -25.39999999999999858 0 forward_v I I I I #
edge $-1 $766 0 $713 0.6850000000000000533 $687 $819 forward 7 unknown #
vertex $-1 $688 $820 #
straight-curve $-1 41.24960000000000093 0 14.2240000000000002 25.39999999999999858 0 0 I I #
straight-curve $-1 66.54800000000001603 -7.049916206369743637e-16 -4.741333333333344946 0 25.39999999999999858 0 I I #
plane-surface $-1 66.54800000000000182 -5.092700000000002447 4.741333333333337841 -0.8660254037844387076 0 -0.499999999999999889 -12.69999999999999929 0 21.99704525612474626 forward_v I I I I #
coedge $-1 $693 $821 $822 $823 reversed $694 $-1 #
coedge $-1 $711 $710 $698 $772 reversed $712 $-1 #
edge $-1 $824 0 $766 0.4310882009949202898 $698 $825 forward 7 unknown #
coedge $-1 $701 $700 $821 $826 reversed $504 $-1 #
coedge $-1 $804 $822 $700 $775 forward $685 $-1 #
edge $-1 $827 0 $777 0.3061023048338047392 $700 $828 forward 7 unknown #
coedge $-1 $702 $801 $804 $829 forward $648 $-1 #
vertex $-1 $703 $830 #
straight-curve $-1 58.38787994851434604 4.318000000000000504 4.000499999999999723 6.635215253053875251e-14 -25.39999999999999858 0 I I #
coedge $-1 $821 $705 $738 $797 reversed $694 $-1 #
edge $-1 $824 0 $706 0.6850000000000000533 $705 $831 forward 7 unknown #
point $-1 66.54800000000000182 17.39900000000000091 4.741333333333337841 #
straight-curve $-1 61.07317984736451422 17.39900000000000091 14.2240000000000002 -25.39999999999999858 0 0 I I #
point $-1 61.07317984736451422 17.39900000000000091 14.22400000000000375 #
ellipse-curve $-1 43.31546666666665857 26.09850000000000136 0 0 1 0 -22.47902187853542344 0 7.422602995198201548 1 I I #
point $-1 20.83644478813123513 26.09850000000000136 7.422602995198205988 #
straight-curve $-1 24.80309999999999704 17.39900000000000091 0 0 25.39999999999999858 0 I I #
loop $-1 $-1 $748 $635 #
coedge $-1 $832 $832 $727 $791 forward $724 $-1 #
coedge $-1 $728 $726 $832 $833 reversed $636 $-1 #
edge $-1 $834 0 $733 0.3425000000000000266 $726 $835 forward 7 unknown #
edge $-1 $834 0 $792 3.141592653589793116 $788 $836 forward 7 unknown #
vertex $-1 $833 $837 #
straight-curve $-1 62.90310000000000201 8.699500000000000455 0 0 25.39999999999999858 0 I I #
ellipse-curve $-1 53.97500000000000853 17.39900000000000091 2.819966482547897455e-15 0 1 0 8.928099999999991709 0 0 1 I I #
point $-1 45.04690000000000083 17.39900000000000091 0 #
point $-1 62.90310000000000201 17.39900000000000091 2.819966482547897455e-15 #
edge $-1 $798 2.369147058384426166e-16 $824 0.08805307313759942744 $738 $838 forward 7 unknown #
vertex $-1 $797 $839 #
straight-curve $-1 58.38787994851434604 0 4.000499999999999723 25.39999999999999858 0 0 I I #
point $-1 58.38787994851435315 0 4.000499999999999723 #
coedge $-1 $776 $750 $742 $802 forward $648 $-1 #
edge $-1 $810 6.993530863780513543e-17 $805 0.1725000000000000699 $801 $840 forward 7 unknown #
coedge $-1 $822 $743 $745 $807 reversed $685 $-1 #
coedge $-1 $743 $774 $776 $829 reversed $685 $-1 #
vertex $-1 $829 $841 #
ellipse-curve $-1 53.97499999999985221 4.318000000000000504 5.146438830649912638e-14 0 -1 0 4.412879948514503603 0 -4.000500000000051237 1 I I #
edge $-1 $814 0 $746 0.3061023048338047392 $803 $842 forward 7 unknown #
point $-1 58.38787994851434604 4.318000000000000504 -4.000499999999999723 #
coedge $-1 $748 $748 $750 $812 forward $787 $-1 #
vertex $-1 $802 $843 #
ellipse-curve $-1 53.97500000000000853 8.699500000000000455 2.819966482547897455e-15 0 -1 0 -5.956300000000009476 0 -2.819966482547897455e-15 1 I I #
edge $-1 $810 0 $751 3.141592653589792672 $750 $844 forward 7 unknown #
point $-1 48.0187000000000026 8.699500000000000455 0 #
vertex $-1 $753 $845 #
straight-curve $-1 66.16287849129298593 0 -4.000499999999999723 0 25.39999999999999858 0 I I #
ellipse-curve $-1 15.875 17.39900000000000091 0 0 1 0 -8.928099999999998815 0 0 1 I I #
point $-1 24.80309999999999704 17.39900000000000091 0 #
cone-surface $-1 74.76348888888890087 -5.092700000000002447 0 0 1 0 9.485488888888905734 0 0 1 I I 0 1 9.485488888888905734 forward I I I I #
straight-curve $-1 61.07317984736451422 0 14.2240000000000002 0 25.39999999999999858 0 I I #
point $-1 61.07317984736451422 0 14.2240000000000002 #
coedge $-1 $770 $779 $773 $826 forward $694 $-1 #
coedge $-1 $774 $803 $770 $823 forward $685 $-1 #
edge $-1 $814 3.948578430637565515e-16 $827 0.8707478633296820147 $770 $846 forward 7 unknown #
vertex $-1 $772 $847 #
straight-curve $-1 66.54800000000000182 0 4.741333333333339617 -12.69999999999999574 0 21.99704525612474271 I I #
edge $-1 $798 0 $827 0.17000000000000004 $821 $848 forward 7 unknown #
vertex $-1 $826 $849 #
straight-curve $-1 66.16287849129298593 4.318000000000000504 4.000499999999999723 -25.39999999999999858 0 0 I I #
edge $-1 $805 4.269219996721490553e-30 $777 0.7364225809643765164 $776 $850 forward 7 unknown #
point $-1 58.38787994851434604 4.318000000000000504 4.000499999999999723 #
straight-curve $-1 66.54800000000000182 0 4.741333333333337841 0 25.39999999999999858 0 I I #
coedge $-1 $788 $788 $789 $833 forward $724 $-1 #
edge $-1 $792 7.917212991693910991e-32 $834 3.141592653589793116 $832 $851 forward 7 unknown #
vertex $-1 $833 $852 #
straight-curve $-1 45.04690000000000083 8.699500000000000455 -1.093340798756156652e-15 0 25.39999999999999858 0 I I #
ellipse-curve $-1 53.97499999999999432 8.699500000000000455 0 0 1 0 -8.928099999999997038 0 0 1 I I #
point $-1 62.9030999999999878 8.699500000000000455 2.819966482547897455e-15 #
ellipse-curve $-1 74.76348888888560396 0 1.666600191185807449e-12 0 1 0 -8.600610397592621581 0 4.000499999998332612 1 I I #
point $-1 66.16287849129298593 0 4.000499999999999723 #
straight-curve $-1 59.93130000000000024 8.699500000000002231 0 0 -25.39999999999999858 0 I I #
point $-1 59.93130000000000024 4.318000000000000504 -1.409983241273948727e-15 #
straight-curve $-1 66.16287849129298593 4.318000000000000504 -4.000499999999999723 -25.39999999999999858 0 0 I I #
point $-1 59.93130000000000024 8.699500000000000455 -2.819966482547897455e-15 #
ellipse-curve $-1 53.97500000000000853 8.699500000000000455 -2.819966482547897455e-15 0 -1 0 5.9562999999999926 0 0 1 I I #
point $-1 66.16287849129298593 4.318000000000000504 -4.000499999999999723 #
ellipse-curve $-1 74.76348888888900035 4.318000000000000504 0 0 1 0 -8.600610397596005541 0 -4.000499999999999723 1 I I #
point $-1 66.54800000000000182 0 4.741333333333339617 #
straight-curve $-1 66.16287849129298593 0 4.000499999999999723 0 25.39999999999999858 0 I I #
point $-1 66.16287849129298593 4.318000000000000504 4.000499999999999723 #
ellipse-curve $-1 53.97499999999988773 4.318000000000000504 -4.088951399694451034e-14 0 -1 0 5.956300000000116057 0 3.947953075567056279e-14 1 I I #
ellipse-curve $-1 53.97499999999999432 8.699500000000000455 0 0 1 0 8.928099999999991709 0 2.819966482547897455e-15 1 I I #
point $-1 45.04690000000000083 8.699500000000000455 0 #
End-of-ACIS-data 