600 0 1 0           
97 GICL Pro/E ACIS Translator - Source: f:/data5/repository/PTC/V18/mfgmill18/fixture/vise.prt - 6 0 13 ACIS 6.0.3 NT 24 Thu Apr 04 09:59:25 2002 
1 9.9999999999999995e-007 1e-010 
body $-1 $1 $-1 $2 #
lump $-1 $-1 $3 $0 #
transform $-1 1 0 0 0 1 0 0 0 1 0 0 0 25.399999999999999 no_rotate no_reflect no_shear #
shell $-1 $-1 $-1 $4 $-1 $1 #
face $-1 $5 $6 $3 $-1 $7 reversed single #
face $-1 $8 $9 $3 $-1 $10 forward single #
loop $-1 $-1 $11 $4 #
plane-surface $-1 2.891 1.7749999999999999 1.1200000000000001 0 0 -1 -1 0 0 forward_v I I I I #
face $-1 $12 $13 $3 $-1 $14 reversed single #
loop $-1 $-1 $15 $5 #
plane-surface $-1 -8.125 -2.75 1.1200000000000001 -1 0 0 0 1 0 forward_v I I I I #
coedge $-1 $16 $17 $18 $19 reversed $6 $-1 #
face $-1 $20 $21 $3 $-1 $22 forward single #
loop $-1 $-1 $23 $8 #
plane-surface $-1 5.8710000000000004 -1.5 0.87000000000000011 0 0 -1 0 1 0 forward_v I I I I #
coedge $-1 $24 $25 $26 $27 reversed $9 $-1 #
coedge $-1 $28 $11 $29 $30 reversed $6 $-1 #
coedge $-1 $11 $31 $32 $33 forward $6 $-1 #
coedge $-1 $25 $34 $11 $19 forward $9 $-1 #
edge $-1 $35 0 $36 1.2499999999999996 $11 $37 forward 7 unknown #
face $-1 $38 $39 $3 $-1 $40 reversed single #
loop $-1 $-1 $41 $12 #
plane-surface $-1 -4.125 -1.5 1.1200000000000001 0 1 0 1 0 0 forward_v I I I I #
coedge $-1 $42 $26 $43 $44 reversed $13 $-1 #
coedge $-1 $45 $15 $46 $47 forward $9 $-1 #
coedge $-1 $15 $18 $48 $49 forward $9 $-1 #
coedge $-1 $23 $50 $15 $27 forward $13 $-1 #
edge $-1 $51 0 $52 1.25 $15 $53 forward 7 unknown #
coedge $-1 $54 $16 $55 $56 reversed $6 $-1 #
coedge $-1 $57 $58 $16 $30 forward $59 $-1 #
edge $-1 $60 0 $35 22 $16 $61 forward 7 unknown #
coedge $-1 $17 $54 $62 $63 forward $6 $-1 #
coedge $-1 $64 $48 $17 $33 reversed $21 $-1 #
edge $-1 $65 0 $36 18 $17 $66 forward 7 unknown #
coedge $-1 $18 $67 $57 $68 reversed $9 $-1 #
vertex $-1 $30 $69 #
vertex $-1 $33 $70 #
straight-curve $-1 -8.125 -2.7499999999999996 1.1200000000000001 0 1 0 I I #
face $-1 $71 $59 $3 $-1 $72 forward single #
loop $-1 $-1 $73 $20 #
plane-surface $-1 13.875 -1.5 -0.37999999999999989 0 0 1 0 -1 0 forward_v I I I I #
coedge $-1 $74 $75 $76 $77 reversed $21 $-1 #
coedge $-1 $50 $23 $78 $79 reversed $13 $-1 #
coedge $-1 $48 $74 $23 $44 forward $21 $-1 #
edge $-1 $80 0 $52 4 $43 $81 forward 7 unknown #
coedge $-1 $82 $24 $83 $84 forward $9 $-1 #
coedge $-1 $85 $86 $24 $47 reversed $87 $-1 #
edge $-1 $51 0 $88 8.0199999999999996 $24 $89 forward 7 unknown #
coedge $-1 $32 $43 $25 $49 reversed $21 $-1 #
edge $-1 $36 0 $52 0.25 $25 $90 forward 7 unknown #
coedge $-1 $26 $42 $85 $91 reversed $13 $-1 #
vertex $-1 $47 $92 #
vertex $-1 $49 $93 #
straight-curve $-1 -8.125 -0.25 0.87000000000000011 0 -1 0 I I #
coedge $-1 $31 $28 $94 $95 reversed $6 $-1 #
coedge $-1 $96 $97 $28 $56 forward $98 $-1 #
edge $-1 $99 0 $60 2.4999999999999996 $28 $100 forward 7 unknown #
coedge $-1 $101 $29 $34 $68 forward $59 $-1 #
coedge $-1 $29 $101 $96 $102 reversed $59 $-1 #
loop $-1 $-1 $58 $38 #
vertex $-1 $56 $103 #
straight-curve $-1 13.875 -2.75 1.1200000000000001 -1 0 0 I I #
coedge $-1 $104 $105 $31 $63 reversed $106 $-1 #
edge $-1 $107 0 $65 1.25 $31 $108 forward 7 unknown #
coedge $-1 $109 $32 $105 $110 forward $21 $-1 #
vertex $-1 $33 $111 #
straight-curve $-1 9.875 -1.5 1.1200000000000001 -1 0 0 I I #
coedge $-1 $34 $112 $113 $114 reversed $9 $-1 #
edge $-1 $35 0 $115 1.5 $57 $116 forward 7 unknown #
point $-1 -8.125 -2.7499999999999996 1.1200000000000001 #
point $-1 -8.125 -1.5 1.1200000000000001 #
face $-1 $117 $98 $3 $-1 $118 forward single #
plane-surface $-1 13.875 -2.75 1.1200000000000001 0 -1 0 -1 0 0 forward_v I I I I #
coedge $-1 $113 $119 $101 $120 forward $39 $-1 #
coedge $-1 $43 $41 $121 $122 reversed $21 $-1 #
coedge $-1 $41 $123 $124 $125 forward $21 $-1 #
coedge $-1 $126 $127 $41 $77 forward $39 $-1 #
edge $-1 $128 0 $129 6.9960000000000004 $41 $130 forward 7 unknown #
coedge $-1 $121 $131 $42 $79 forward $132 $-1 #
edge $-1 $133 0 $80 1.25 $78 $134 forward 7 unknown #
vertex $-1 $79 $135 #
straight-curve $-1 -4.125 -1.5 0.87000000000000011 -1 0 0 I I #
coedge $-1 $136 $45 $137 $138 reversed $9 $-1 #
coedge $-1 $139 $140 $45 $84 reversed $141 $-1 #
edge $-1 $88 0 $142 1.25 $45 $143 forward 7 unknown #
coedge $-1 $144 $46 $50 $91 forward $87 $-1 #
coedge $-1 $46 $144 $139 $145 reversed $87 $-1 #
loop $-1 $-1 $144 $146 #
vertex $-1 $84 $147 #
straight-curve $-1 -8.125 -0.25 0.87000000000000011 0 0 -1 I I #
straight-curve $-1 -8.125 -1.5 1.1200000000000001 0 0 -1 I I #
edge $-1 $51 0 $133 4 $85 $148 forward 7 unknown #
point $-1 -8.125 -0.25 0.87000000000000011 #
point $-1 -8.125 -1.5 0.87000000000000011 #
coedge $-1 $149 $150 $54 $95 forward $151 $-1 #
edge $-1 $107 0 $99 4 $54 $152 forward 7 unknown #
coedge $-1 $153 $55 $58 $102 forward $98 $-1 #
coedge $-1 $55 $154 $149 $155 reversed $98 $-1 #
loop $-1 $-1 $156 $71 #
vertex $-1 $95 $157 #
straight-curve $-1 13.875 -0.25 1.1200000000000001 0 -1 0 I I #
coedge $-1 $58 $57 $73 $120 reversed $59 $-1 #
edge $-1 $60 0 $158 1.5 $96 $159 forward 7 unknown #
point $-1 13.875 -2.7499999999999996 1.1200000000000001 #
coedge $-1 $160 $62 $150 $161 forward $106 $-1 #
coedge $-1 $62 $162 $64 $110 reversed $106 $-1 #
loop $-1 $163 $164 $165 #
vertex $-1 $63 $166 #
straight-curve $-1 9.875 -0.25 1.1200000000000001 0 -1 0 I I #
coedge $-1 $167 $64 $168 $169 reversed $21 $-1 #
edge $-1 $65 0 $170 1.5 $64 $171 forward 7 unknown #
point $-1 9.875 -1.5 1.1200000000000001 #
coedge $-1 $67 $172 $173 $174 forward $9 $-1 #
coedge $-1 $127 $73 $67 $114 forward $39 $-1 #
edge $-1 $115 0 $175 1.25 $67 $176 forward 7 unknown #
vertex $-1 $120 $177 #
straight-curve $-1 -8.125 -2.75 1.1200000000000001 0 0 -1 I I #
face $-1 $178 $179 $3 $-1 $180 forward single #
plane-surface $-1 13.875 -0.25 1.1200000000000001 1 0 0 0 -1 0 forward_v I I I I #
coedge $-1 $73 $181 $153 $182 reversed $39 $-1 #
edge $-1 $158 0 $115 22 $101 $183 forward 7 unknown #
coedge $-1 $184 $78 $74 $122 forward $132 $-1 #
edge $-1 $80 0 $128 1.25 $121 $185 forward 7 unknown #
coedge $-1 $75 $167 $186 $187 forward $21 $-1 #
coedge $-1 $188 $189 $75 $125 reversed $190 $-1 #
edge $-1 $191 0 $129 1.25 $124 $192 forward 7 unknown #
coedge $-1 $168 $76 $193 $194 reversed $39 $-1 #
coedge $-1 $76 $113 $195 $196 reversed $39 $-1 #
vertex $-1 $197 $198 #
vertex $-1 $125 $199 #
straight-curve $-1 -4.125 -1.5 -0.37999999999999989 1 0 0 I I #
coedge $-1 $78 $200 $144 $201 reversed $132 $-1 #
loop $-1 $-1 $121 $202 #
vertex $-1 $91 $203 #
straight-curve $-1 -4.125 -0.25 0.87000000000000011 0 -1 0 I I #
point $-1 -4.125 -1.5 0.87000000000000011 #
coedge $-1 $204 $82 $205 $206 reversed $9 $-1 #
coedge $-1 $207 $208 $82 $138 forward $209 $-1 #
edge $-1 $210 0 $142 0.25 $82 $211 forward 7 unknown #
coedge $-1 $212 $83 $86 $145 forward $141 $-1 #
coedge $-1 $83 $212 $207 $213 forward $141 $-1 #
loop $-1 $-1 $139 $214 #
vertex $-1 $138 $215 #
straight-curve $-1 -8.125 -0.25 -7.1499999999999995 0 -1 0 I I #
coedge $-1 $86 $85 $131 $201 forward $87 $-1 #
edge $-1 $88 0 $216 4 $86 $217 forward 7 unknown #
face $-1 $218 $87 $3 $-1 $219 forward single #
point $-1 -8.125 -0.25 -7.1499999999999995 #
straight-curve $-1 -8.125 -0.25 0.87000000000000011 1 0 0 I I #
coedge $-1 $220 $94 $97 $155 forward $151 $-1 #
coedge $-1 $94 $220 $104 $161 reversed $151 $-1 #
loop $-1 $-1 $94 $221 #
straight-curve $-1 9.875 -0.25 1.1200000000000001 1 0 0 I I #
coedge $-1 $222 $96 $119 $182 forward $98 $-1 #
coedge $-1 $97 $156 $223 $224 reversed $98 $-1 #
edge $-1 $99 0 $225 8.5199999999999996 $149 $226 forward 7 unknown #
coedge $-1 $154 $227 $228 $229 forward $98 $-1 #
point $-1 13.875 -0.25 1.1200000000000001 #
vertex $-1 $182 $230 #
straight-curve $-1 13.875 -2.75 1.1200000000000001 0 0 -1 I I #
coedge $-1 $231 $104 $232 $233 forward $106 $-1 #
edge $-1 $107 0 $234 8.5199999999999996 $150 $235 forward 7 unknown #
coedge $-1 $105 $164 $236 $237 forward $106 $-1 #
loop $-1 $238 $239 $165 #
coedge $-1 $162 $240 $241 $242 reversed $106 $-1 #
face $-1 $243 $106 $3 $-1 $244 reversed single #
point $-1 9.875 -0.25 1.1200000000000001 #
coedge $-1 $123 $109 $245 $246 reversed $21 $-1 #
coedge $-1 $181 $126 $109 $169 forward $39 $-1 #
edge $-1 $247 0 $170 4.0039999999999996 $109 $248 forward 7 unknown #
vertex $-1 $169 $249 #
straight-curve $-1 9.875 -1.5 1.1200000000000001 0 0 -1 I I #
coedge $-1 $112 $250 $251 $252 forward $9 $-1 #
coedge $-1 $253 $195 $112 $174 reversed $254 $-1 #
edge $-1 $255 0 $175 2.0099999999999998 $112 $256 forward 7 unknown #
vertex $-1 $114 $257 #
straight-curve $-1 -8.125 -2.75 -0.37999999999999989 0 1 0 I I #
point $-1 -8.125 -2.75 -0.37999999999999989 #
face $-1 $165 $258 $3 $-1 $259 forward single #
loop $-1 $-1 $260 $117 #
plane-surface $-1 13.875 -2.75 1.1200000000000001 0 -1 0 -1 0 0 forward_v I I I I #
coedge $-1 $119 $168 $261 $262 reversed $39 $-1 #
edge $-1 $158 0 $263 1.25 $153 $264 forward 7 unknown #
straight-curve $-1 13.875 -2.75 -0.37999999999999989 -1 0 0 I I #
coedge $-1 $265 $121 $266 $197 reversed $132 $-1 #
straight-curve $-1 -4.125 -1.5 0.87000000000000011 0 0 -1 I I #
coedge $-1 $267 $268 $123 $187 reversed $269 $-1 #
edge $-1 $270 0 $191 3 $123 $271 forward 7 unknown #
coedge $-1 $272 $124 $268 $273 forward $190 $-1 #
coedge $-1 $124 $274 $275 $276 forward $190 $-1 #
loop $-1 $-1 $272 $277 #
vertex $-1 $273 $278 #
straight-curve $-1 2.8710000000000004 -1.5 0.87000000000000011 0 0 -1 I I #
coedge $-1 $275 $279 $126 $194 forward $280 $-1 #
edge $-1 $247 0 $129 3 $193 $281 forward 7 unknown #
coedge $-1 $173 $266 $127 $196 forward $254 $-1 #
edge $-1 $128 0 $175 4 $195 $282 forward 7 unknown #
edge $-1 $283 0 $128 2.0099999999999998 $184 $284 forward 7 unknown #
point $-1 -4.125 -1.5 -0.37999999999999989 #
point $-1 2.8710000000000004 -1.5 -0.37999999999999989 #
coedge $-1 $131 $285 $212 $286 reversed $132 $-1 #
edge $-1 $133 0 $216 8.0199999999999996 $144 $287 forward 7 unknown #
face $-1 $288 $132 $3 $-1 $289 forward single #
point $-1 -4.125 -0.25 0.87000000000000011 #
coedge $-1 $290 $136 $260 $291 reversed $9 $-1 #
coedge $-1 $292 $293 $136 $206 forward $258 $-1 #
edge $-1 $294 0 $210 1.2499999999999996 $205 $295 forward 7 unknown #
coedge $-1 $296 $137 $140 $213 reversed $209 $-1 #
coedge $-1 $137 $297 $292 $298 reversed $209 $-1 #
loop $-1 $-1 $137 $299 #
vertex $-1 $298 $300 #
straight-curve $-1 -8.125 -1.5 -7.3999999999999995 0 0 1 I I #
coedge $-1 $140 $139 $200 $286 forward $141 $-1 #
edge $-1 $301 0 $142 4 $207 $302 forward 7 unknown #
face $-1 $146 $141 $3 $-1 $303 reversed single #
point $-1 -8.125 -1.5 -7.1499999999999995 #
vertex $-1 $145 $304 #
straight-curve $-1 -8.125 -0.25 -7.1499999999999995 1 0 0 I I #
face $-1 $221 $269 $3 $-1 $305 reversed single #
plane-surface $-1 -8.125 -0.25 1.1200000000000001 0 1 0 1 0 0 forward_v I I I I #
coedge $-1 $150 $149 $306 $307 reversed $151 $-1 #
face $-1 $-1 $151 $3 $-1 $308 forward single #
coedge $-1 $309 $153 $310 $311 reversed $98 $-1 #
coedge $-1 $293 $306 $154 $224 forward $258 $-1 #
edge $-1 $225 0 $312 2.4999999999999996 $223 $313 forward 7 unknown #
vertex $-1 $224 $314 #
straight-curve $-1 13.875 -0.25 1.1200000000000001 0 0 -1 I I #
coedge $-1 $156 $315 $316 $317 reversed $98 $-1 #
coedge $-1 $318 $319 $156 $229 reversed $179 $-1 #
edge $-1 $320 0 $312 1.5 $156 $321 forward 7 unknown #
point $-1 13.875 -2.75 -0.37999999999999989 #
coedge $-1 $240 $160 $297 $322 reversed $106 $-1 #
coedge $-1 $306 $292 $160 $233 reversed $258 $-1 #
edge $-1 $234 0 $323 1.25 $232 $324 forward 7 unknown #
vertex $-1 $307 $325 #
straight-curve $-1 9.875 -0.25 1.1200000000000001 0 0 -1 I I #
coedge $-1 $326 $261 $162 $237 reversed $327 $-1 #
edge $-1 $328 0 $170 2.0099999999999998 $162 $329 forward 7 unknown #
loop $-1 $-1 $330 $165 #
coedge $-1 $331 $331 $332 $333 reversed $163 $-1 #
coedge $-1 $164 $231 $334 $335 forward $106 $-1 #
coedge $-1 $336 $337 $164 $242 forward $338 $-1 #
edge $-1 $328 0 $339 1.5 $241 $340 forward 7 unknown #
face $-1 $341 $338 $3 $-1 $342 forward single #
plane-surface $-1 9.875 -1.5 1.1200000000000001 1 0 0 0 1 0 forward_v I I I I #
coedge $-1 $343 $344 $167 $246 forward $345 $-1 #
edge $-1 $270 0 $247 1.25 $167 $346 forward 7 unknown #
vertex $-1 $246 $347 #
straight-curve $-1 5.8710000000000004 -1.5 -0.37999999999999989 1 0 0 I I #
point $-1 9.875 -1.5 -0.37999999999999989 #
coedge $-1 $172 $348 $349 $350 reversed $9 $-1 #
coedge $-1 $351 $352 $172 $252 reversed $353 $-1 #
edge $-1 $354 0 $255 1.25 $172 $355 forward 7 unknown #
coedge $-1 $266 $173 $352 $356 reversed $254 $-1 #
loop $-1 $-1 $253 $288 #
vertex $-1 $174 $357 #
straight-curve $-1 -8.125 -1.5 -2.3899999999999997 0 0 1 I I #
point $-1 -8.125 -1.5 -0.37999999999999989 #
loop $-1 $-1 $232 $178 #
plane-surface $-1 -4.125 1.7749999999999999 -7.3999999999999995 0 0 -1 1 0 0 forward_v I I I I #
coedge $-1 $319 $318 $204 $291 forward $179 $-1 #
coedge $-1 $236 $310 $181 $262 forward $327 $-1 #
edge $-1 $263 0 $170 4 $261 $358 forward 7 unknown #
vertex $-1 $311 $359 #
straight-curve $-1 13.875 -2.75 -0.37999999999999989 0 1 0 I I #
coedge $-1 $360 $184 $361 $362 forward $132 $-1 #
coedge $-1 $195 $253 $184 $197 forward $254 $-1 #
coedge $-1 $363 $186 $344 $364 reversed $269 $-1 #
coedge $-1 $186 $363 $188 $273 reversed $269 $-1 #
loop $-1 $-1 $186 $218 #
vertex $-1 $187 $365 #
straight-curve $-1 5.8710000000000004 -1.5 0.87000000000000011 -1 0 0 I I #
coedge $-1 $366 $188 $367 $368 forward $190 $-1 #
edge $-1 $191 0 $369 1.25 $188 $370 forward 7 unknown #
coedge $-1 $189 $371 $372 $373 reversed $190 $-1 #
coedge $-1 $374 $193 $189 $276 reversed $280 $-1 #
edge $-1 $375 0 $129 2.0099999999999998 $189 $376 forward 7 unknown #
face $-1 $377 $190 $3 $-1 $378 forward single #
point $-1 2.8710000000000004 -1.5 0.87000000000000011 #
coedge $-1 $193 $374 $343 $379 forward $280 $-1 #
loop $-1 $-1 $374 $380 #
straight-curve $-1 5.8710000000000004 -1.5 -0.37999999999999989 -1 0 0 I I #
straight-curve $-1 -4.125 -1.5 -0.37999999999999989 -1 0 0 I I #
vertex $-1 $362 $381 #
straight-curve $-1 -4.125 -1.5 -2.3899999999999997 0 0 1 I I #
coedge $-1 $200 $360 $296 $382 forward $132 $-1 #
edge $-1 $216 0 $301 1.25 $200 $383 forward 7 unknown #
straight-curve $-1 -4.125 -0.25 0.87000000000000011 0 0 -1 I I #
face $-1 $384 $254 $3 $-1 $385 reversed single #
plane-surface $-1 -4.125 -0.25 1.1200000000000001 1 0 0 0 -1 0 forward_v I I I I #
coedge $-1 $386 $204 $387 $388 forward $9 $-1 #
edge $-1 $389 0 $294 1.5 $260 $390 forward 7 unknown #
coedge $-1 $232 $205 $208 $298 forward $258 $-1 #
coedge $-1 $205 $223 $319 $391 forward $258 $-1 #
vertex $-1 $206 $392 #
straight-curve $-1 -8.125 -2.7499999999999996 -7.3999999999999995 0 1 0 I I #
coedge $-1 $393 $207 $285 $382 reversed $209 $-1 #
coedge $-1 $208 $394 $231 $322 forward $209 $-1 #
edge $-1 $210 0 $323 18 $292 $395 forward 7 unknown #
face $-1 $214 $209 $3 $-1 $396 forward single #
point $-1 -8.125 -1.5 -7.3999999999999995 #
vertex $-1 $286 $397 #
straight-curve $-1 -4.125 -1.5 -7.1499999999999995 -1 0 0 I I #
plane-surface $-1 5.8710000000000004 -0.25 -7.1499999999999995 0 0 1 0 -1 0 forward_v I I I I #
point $-1 -4.125 -0.25 -7.1499999999999995 #
plane-surface $-1 5.8710000000000004 -1.5 0.87000000000000011 0 0 -1 0 1 0 forward_v I I I I #
coedge $-1 $223 $232 $220 $307 forward $258 $-1 #
edge $-1 $234 0 $225 4 $306 $398 forward 7 unknown #
plane-surface $-1 2.8710000000000004 -0.25 1.1200000000000001 0 1 0 1 0 0 forward_v I I I I #
coedge $-1 $399 $222 $400 $401 reversed $98 $-1 #
coedge $-1 $261 $326 $222 $311 forward $327 $-1 #
edge $-1 $402 0 $263 2.0099999999999998 $222 $403 forward 7 unknown #
vertex $-1 $391 $404 #
straight-curve $-1 13.875 -0.25 -7.3999999999999995 0 -1 0 I I #
point $-1 13.875 -0.25 -7.3999999999999995 #
coedge $-1 $227 $405 $406 $407 reversed $98 $-1 #
coedge $-1 $408 $409 $227 $317 forward $410 $-1 #
edge $-1 $320 0 $411 1.25 $227 $412 forward 7 unknown #
coedge $-1 $260 $228 $409 $413 forward $179 $-1 #
coedge $-1 $228 $260 $293 $391 reversed $179 $-1 #
vertex $-1 $317 $414 #
straight-curve $-1 13.875 -2.75 -5.8999999999999995 0 0 -1 I I #
edge $-1 $415 0 $323 1.5 $297 $416 forward 7 unknown #
vertex $-1 $298 $417 #
straight-curve $-1 9.875 -0.25 -7.3999999999999995 0 -1 0 I I #
point $-1 9.875 -0.25 -7.3999999999999995 #
coedge $-1 $310 $236 $418 $419 reversed $327 $-1 #
loop $-1 $-1 $261 $420 #
vertex $-1 $242 $421 #
straight-curve $-1 9.875 -1.5 -2.3899999999999997 0 0 1 I I #
coedge $-1 $422 $422 $423 $424 reversed $238 $-1 #
coedge $-1 $239 $239 $425 $426 reversed $163 $-1 #
coedge $-1 $427 $428 $239 $333 forward $429 $-1 #
edge $-1 $430 0 $431 3.1415926535897931 $239 $432 forward 7 unknown #
coedge $-1 $433 $434 $240 $335 reversed $435 $-1 #
edge $-1 $415 0 $339 2.0099999999999998 $240 $436 forward 7 unknown #
coedge $-1 $437 $241 $438 $439 reversed $338 $-1 #
coedge $-1 $241 $437 $440 $441 forward $338 $-1 #
loop $-1 $-1 $437 $243 #
vertex $-1 $439 $442 #
straight-curve $-1 9.875 -1.5 -2.3899999999999997 0 0 -1 I I #
face $-1 $443 $444 $3 $-1 $445 reversed single #
plane-surface $-1 -4.125 -1.5 1.1200000000000001 0 1 0 1 0 0 forward_v I I I I #
coedge $-1 $446 $245 $279 $379 reversed $345 $-1 #
coedge $-1 $245 $447 $267 $364 forward $345 $-1 #
loop $-1 $-1 $245 $341 #
straight-curve $-1 5.8710000000000004 -1.5 0.87000000000000011 0 0 -1 I I #
point $-1 5.8710000000000004 -1.5 -0.37999999999999989 #
coedge $-1 $250 $386 $448 $449 reversed $9 $-1 #
coedge $-1 $450 $451 $250 $350 forward $452 $-1 #
edge $-1 $354 0 $453 1.5 $349 $454 forward 7 unknown #
coedge $-1 $400 $251 $451 $455 reversed $353 $-1 #
coedge $-1 $251 $456 $253 $356 forward $353 $-1 #
loop $-1 $-1 $418 $457 #
vertex $-1 $350 $458 #
straight-curve $-1 -8.125 -2.75 -2.3899999999999997 0 1 0 I I #
edge $-1 $283 0 $255 4 $352 $459 forward 7 unknown #
point $-1 -8.125 -1.5 -2.3899999999999997 #
straight-curve $-1 13.875 -1.5 -0.37999999999999989 -1 0 0 I I #
point $-1 13.875 -1.5 -0.37999999999999989 #
coedge $-1 $285 $265 $460 $461 reversed $132 $-1 #
coedge $-1 $462 $463 $265 $362 reversed $464 $-1 #
edge $-1 $283 0 $465 1.5 $265 $466 forward 7 unknown #
coedge $-1 $268 $267 $467 $468 reversed $269 $-1 #
edge $-1 $469 0 $270 1.25 $344 $470 forward 7 unknown #
point $-1 5.8710000000000004 -1.5 0.87000000000000011 #
coedge $-1 $471 $272 $472 $473 reversed $190 $-1 #
coedge $-1 $467 $474 $272 $368 reversed $475 $-1 #
edge $-1 $369 0 $476 8.0199999999999996 $272 $477 forward 7 unknown #
vertex $-1 $273 $478 #
straight-curve $-1 2.8710000000000004 -1.5 0.87000000000000011 0 1 0 I I #
coedge $-1 $274 $471 $479 $480 forward $190 $-1 #
coedge $-1 $463 $462 $274 $373 forward $464 $-1 #
edge $-1 $375 0 $481 1.5 $274 $482 forward 7 unknown #
coedge $-1 $279 $275 $483 $484 reversed $280 $-1 #
vertex $-1 $276 $485 #
straight-curve $-1 2.8710000000000004 -1.5 -2.3899999999999997 0 0 1 I I #
face $-1 $486 $475 $3 $-1 $487 forward single #
plane-surface $-1 2.8710000000000004 -1.5 1.1200000000000001 -1 0 0 0 1 0 forward_v I I I I #
edge $-1 $488 0 $247 2.0099999999999998 $343 $489 forward 7 unknown #
face $-1 $457 $280 $3 $-1 $490 reversed single #
point $-1 -4.125 -1.5 -2.3899999999999997 #
edge $-1 $491 0 $301 1.25 $285 $492 forward 7 unknown #
straight-curve $-1 -4.125 -0.25 -7.1499999999999995 0 -1 0 I I #
face $-1 $493 $494 $3 $-1 $495 reversed single #
plane-surface $-1 13.875 -1.5 -2.3899999999999997 0 1 0 0 0 1 forward_v I I I I #
coedge $-1 $348 $290 $496 $497 forward $9 $-1 #
coedge $-1 $409 $498 $290 $388 reversed $410 $-1 #
edge $-1 $389 0 $499 1.25 $290 $500 forward 7 unknown #
vertex $-1 $413 $501 #
straight-curve $-1 -8.125 -2.75 -5.8999999999999995 0 0 -1 I I #
edge $-1 $312 0 $294 22 $293 $502 forward 7 unknown #
point $-1 -8.125 -2.7499999999999996 -7.3999999999999995 #
coedge $-1 $503 $296 $504 $505 forward $209 $-1 #
coedge $-1 $297 $506 $507 $508 forward $209 $-1 #
straight-curve $-1 -8.125 -1.5 -7.3999999999999995 1 0 0 I I #
plane-surface $-1 -4.125 -1.5 1.1200000000000001 0 1 0 1 0 0 forward_v I I I I #
point $-1 -4.125 -1.5 -7.1499999999999995 #
straight-curve $-1 9.875 -0.25 -7.3999999999999995 1 0 0 I I #
coedge $-1 $405 $309 $509 $510 forward $98 $-1 #
coedge $-1 $418 $351 $309 $401 forward $353 $-1 #
edge $-1 $511 0 $402 1.25 $309 $512 forward 7 unknown #
vertex $-1 $401 $513 #
straight-curve $-1 13.875 -1.5 -2.3899999999999997 0 0 1 I I #
point $-1 13.875 -2.7499999999999996 -7.3999999999999995 #
coedge $-1 $315 $399 $514 $515 forward $98 $-1 #
coedge $-1 $434 $433 $315 $407 forward $435 $-1 #
edge $-1 $411 0 $516 2.0099999999999998 $315 $517 forward 7 unknown #
coedge $-1 $507 $316 $433 $518 forward $410 $-1 #
coedge $-1 $316 $387 $318 $413 reversed $410 $-1 #
loop $-1 $-1 $408 $493 #
vertex $-1 $317 $519 #
straight-curve $-1 13.875 -2.75 -5.8999999999999995 0 1 0 I I #
edge $-1 $320 0 $389 22 $318 $520 forward 7 unknown #
point $-1 13.875 -2.75 -5.8999999999999995 #
vertex $-1 $322 $521 #
straight-curve $-1 9.875 -1.5 -5.8999999999999995 0 0 -1 I I #
point $-1 9.875 -1.5 -7.3999999999999995 #
coedge $-1 $440 $400 $326 $419 forward $353 $-1 #
edge $-1 $402 0 $328 4 $418 $522 forward 7 unknown #
face $-1 $523 $327 $3 $-1 $524 reversed single #
point $-1 9.875 -1.5 -2.3899999999999997 #
coedge $-1 $330 $330 $525 $526 reversed $238 $-1 #
coedge $-1 $527 $528 $330 $424 forward $529 $-1 #
edge $-1 $530 0 $531 3.1415926535897931 $330 $532 forward 7 unknown #
coedge $-1 $533 $534 $331 $426 forward $535 $-1 #
edge $-1 $431 0 $430 3.1415926535897931 $331 $536 forward 7 unknown #
coedge $-1 $537 $332 $534 $538 forward $429 $-1 #
coedge $-1 $332 $537 $533 $539 reversed $429 $-1 #
loop $-1 $-1 $428 $443 #
vertex $-1 $426 $540 #
vertex $-1 $426 $541 #
ellipse-curve $-1 9.875 -0.875 -4.8999999999999995 -1 0 0 0 0 -0.42499999999999982 1 I I #
coedge $-1 $406 $334 $408 $518 reversed $435 $-1 #
coedge $-1 $334 $406 $542 $543 forward $435 $-1 #
loop $-1 $-1 $434 $544 #
straight-curve $-1 9.875 -1.5 -5.8999999999999995 0 0 1 I I #
coedge $-1 $337 $336 $446 $545 reversed $338 $-1 #
coedge $-1 $542 $546 $336 $439 forward $547 $-1 #
edge $-1 $548 0 $339 4.0039999999999996 $336 $549 forward 7 unknown #
coedge $-1 $483 $418 $337 $441 reversed $353 $-1 #
edge $-1 $488 0 $328 4.0039999999999996 $337 $550 forward 7 unknown #
point $-1 9.875 -1.5 -3.8899999999999997 #
face $-1 $551 $429 $3 $-1 $552 forward single #
loop $-1 $553 $554 $341 #
plane-surface $-1 5.8710000000000004 -0.25 1.1200000000000001 -1 0 0 0 -1 0 forward_v I I I I #
coedge $-1 $555 $343 $437 $545 forward $345 $-1 #
coedge $-1 $344 $556 $557 $558 reversed $345 $-1 #
coedge $-1 $559 $560 $348 $449 forward $547 $-1 #
edge $-1 $453 0 $561 1.25 $348 $562 forward 7 unknown #
coedge $-1 $509 $349 $560 $563 reversed $452 $-1 #
coedge $-1 $349 $509 $351 $455 forward $452 $-1 #
loop $-1 $-1 $509 $564 #
vertex $-1 $563 $565 #
straight-curve $-1 -8.125 -2.75 -2.3899999999999997 0 0 -1 I I #
edge $-1 $511 0 $354 22 $451 $566 forward 7 unknown #
coedge $-1 $352 $483 $462 $567 reversed $353 $-1 #
face $-1 $420 $353 $3 $-1 $568 reversed single #
point $-1 -8.125 -2.75 -2.3899999999999997 #
straight-curve $-1 -4.125 -1.5 -2.3899999999999997 -1 0 0 I I #
coedge $-1 $569 $570 $360 $461 forward $494 $-1 #
edge $-1 $491 0 $465 2.0099999999999998 $360 $571 forward 7 unknown #
coedge $-1 $372 $361 $456 $567 forward $464 $-1 #
coedge $-1 $361 $372 $572 $573 reversed $464 $-1 #
loop $-1 $-1 $361 $523 #
vertex $-1 $461 $574 #
straight-curve $-1 -4.125 -1.5 -2.3899999999999997 0 0 -1 I I #
coedge $-1 $557 $367 $363 $468 forward $475 $-1 #
edge $-1 $369 0 $469 3 $467 $575 forward 7 unknown #
vertex $-1 $468 $576 #
straight-curve $-1 5.8710000000000004 -0.25 0.87000000000000011 0 -1 0 I I #
coedge $-1 $371 $366 $503 $577 reversed $190 $-1 #
coedge $-1 $578 $579 $366 $473 forward $580 $-1 #
edge $-1 $581 0 $476 1.25 $366 $582 forward 7 unknown #
coedge $-1 $367 $557 $578 $583 reversed $475 $-1 #
loop $-1 $-1 $557 $377 #
vertex $-1 $473 $584 #
straight-curve $-1 2.8710000000000004 -0.25 0.87000000000000011 0 0 -1 I I #
point $-1 2.8710000000000004 -0.25 0.87000000000000011 #
coedge $-1 $585 $586 $371 $480 reversed $587 $-1 #
edge $-1 $588 0 $481 2.0099999999999998 $371 $589 forward 7 unknown #
vertex $-1 $373 $590 #
straight-curve $-1 2.8710000000000004 -1.5 -2.3899999999999997 0 0 -1 I I #
coedge $-1 $456 $440 $374 $484 forward $353 $-1 #
edge $-1 $488 0 $375 3 $483 $591 forward 7 unknown #
point $-1 2.8710000000000004 -1.5 -2.3899999999999997 #
face $-1 $299 $580 $3 $-1 $592 reversed single #
plane-surface $-1 2.8710000000000004 -0.25 1.1200000000000001 0 1 0 1 0 0 forward_v I I I I #
vertex $-1 $441 $593 #
straight-curve $-1 5.8710000000000004 -1.5 -2.3899999999999997 0 0 1 I I #
plane-surface $-1 13.875 -1.5 -2.3899999999999997 0 1 0 0 0 1 forward_v I I I I #
vertex $-1 $382 $594 #
straight-curve $-1 -4.125 -1.5 -5.8999999999999995 0 0 -1 I I #
face $-1 $544 $410 $3 $-1 $595 reversed single #
loop $-1 $-1 $570 $384 #
plane-surface $-1 13.875 -1.5 -5.8999999999999995 0 1 0 0 0 1 forward_v I I I I #
coedge $-1 $570 $569 $386 $497 reversed $494 $-1 #
edge $-1 $499 0 $561 2.0099999999999998 $386 $596 forward 7 unknown #
coedge $-1 $387 $504 $570 $597 forward $410 $-1 #
vertex $-1 $497 $598 #
straight-curve $-1 -8.125 -2.75 -5.8999999999999995 0 1 0 I I #
point $-1 -8.125 -2.75 -5.8999999999999995 #
straight-curve $-1 13.875 -2.75 -7.3999999999999995 -1 0 0 I I #
coedge $-1 $599 $393 $471 $577 forward $209 $-1 #
coedge $-1 $498 $600 $393 $505 reversed $410 $-1 #
edge $-1 $491 0 $588 6.9960000000000004 $393 $601 forward 7 unknown #
coedge $-1 $394 $599 $602 $603 reversed $209 $-1 #
coedge $-1 $600 $408 $394 $508 reversed $410 $-1 #
edge $-1 $604 0 $415 4.0039999999999996 $394 $605 forward 7 unknown #
coedge $-1 $451 $450 $399 $510 reversed $452 $-1 #
edge $-1 $511 0 $606 1.5 $399 $607 forward 7 unknown #
vertex $-1 $510 $608 #
straight-curve $-1 13.875 -2.75 -2.3899999999999997 0 1 0 I I #
point $-1 13.875 -1.5 -2.3899999999999997 #
coedge $-1 $560 $542 $405 $515 reversed $547 $-1 #
edge $-1 $606 0 $516 1.25 $405 $609 forward 7 unknown #
vertex $-1 $407 $610 #
straight-curve $-1 13.875 -1.5 -5.8999999999999995 0 0 1 I I #
edge $-1 $411 0 $415 4 $408 $611 forward 7 unknown #
point $-1 13.875 -1.5 -5.8999999999999995 #
straight-curve $-1 13.875 -2.75 -5.8999999999999995 -1 0 0 I I #
point $-1 9.875 -1.5 -5.8999999999999995 #
straight-curve $-1 13.875 -1.5 -2.3899999999999997 -1 0 0 I I #
face $-1 $202 $464 $3 $-1 $612 forward single #
plane-surface $-1 13.875 -1.5 -2.3899999999999997 0 1 0 0 0 1 forward_v I I I I #
coedge $-1 $613 $614 $422 $526 forward $615 $-1 #
edge $-1 $531 0 $530 3.1415926535897931 $422 $616 forward 7 unknown #
coedge $-1 $617 $423 $614 $618 forward $529 $-1 #
coedge $-1 $423 $617 $613 $619 reversed $529 $-1 #
loop $-1 $-1 $528 $620 #
vertex $-1 $526 $621 #
vertex $-1 $526 $622 #
ellipse-curve $-1 9.875 -0.875 -1.3799999999999999 -1 0 0 0 0 -0.42499999999999982 1 I I #
coedge $-1 $623 $425 $428 $539 forward $535 $-1 #
coedge $-1 $425 $623 $427 $538 reversed $535 $-1 #
loop $-1 $-1 $534 $551 #
ellipse-curve $-1 9.875 -0.875 -4.8999999999999995 -1 0 0 0 0 0.42499999999999982 1 I I #
coedge $-1 $428 $427 $554 $624 reversed $429 $-1 #
edge $-1 $431 0 $625 4.0039999999999996 $534 $626 forward 7 unknown #
edge $-1 $430 0 $627 4.0039999999999996 $533 $628 forward 7 unknown #
point $-1 9.875 -0.875 -5.3249999999999993 #
point $-1 9.875 -0.875 -4.4749999999999996 #
coedge $-1 $514 $438 $434 $543 reversed $547 $-1 #
edge $-1 $516 0 $339 4 $434 $629 forward 7 unknown #
face $-1 $630 $435 $3 $-1 $631 reversed single #
edge $-1 $488 0 $548 1.5 $437 $632 forward 7 unknown #
coedge $-1 $438 $572 $586 $633 reversed $547 $-1 #
loop $-1 $-1 $560 $630 #
vertex $-1 $439 $634 #
straight-curve $-1 5.8710000000000004 -1.5 -3.8899999999999997 1 0 0 I I #
straight-curve $-1 5.8710000000000004 -1.5 -2.3899999999999997 1 0 0 I I #
face $-1 $620 $535 $3 $-1 $635 forward single #
cone-surface $-1 9.875 -0.875 -4.8999999999999995 -1 0 0 0 0 0.42499999999999999 1 I I 0 1 0.42499999999999999 forward I I I I #
loop $-1 $345 $636 $341 #
coedge $-1 $637 $637 $537 $624 forward $444 $-1 #
coedge $-1 $602 $446 $638 $639 reversed $345 $-1 #
coedge $-1 $447 $602 $640 $641 reversed $345 $-1 #
coedge $-1 $474 $467 $447 $558 forward $475 $-1 #
edge $-1 $469 0 $642 8.0199999999999996 $557 $643 forward 7 unknown #
coedge $-1 $572 $448 $569 $644 reversed $547 $-1 #
coedge $-1 $448 $514 $450 $563 forward $547 $-1 #
vertex $-1 $449 $645 #
straight-curve $-1 -8.125 -2.75 -3.8899999999999997 0 1 0 I I #
edge $-1 $606 0 $453 22 $450 $646 forward 7 unknown #
face $-1 $647 $452 $3 $-1 $648 forward single #
point $-1 -8.125 -2.75 -3.8899999999999997 #
straight-curve $-1 13.875 -2.75 -2.3899999999999997 -1 0 0 I I #
edge $-1 $283 0 $375 6.9960000000000004 $462 $649 forward 7 unknown #
plane-surface $-1 13.875 -3.25 -2.3899999999999997 0 0 -1 0 1 0 forward_v I I I I #
coedge $-1 $496 $460 $559 $644 forward $494 $-1 #
coedge $-1 $460 $496 $498 $597 reversed $494 $-1 #
straight-curve $-1 -4.125 -1.5 -5.8999999999999995 0 0 1 I I #
coedge $-1 $546 $559 $463 $573 forward $547 $-1 #
edge $-1 $465 0 $481 6.9960000000000004 $463 $650 forward 7 unknown #
point $-1 -4.125 -1.5 -3.8899999999999997 #
straight-curve $-1 2.8710000000000004 -0.25 0.87000000000000011 1 0 0 I I #
point $-1 5.8710000000000004 -0.25 0.87000000000000011 #
edge $-1 $588 0 $581 1.25 $471 $651 forward 7 unknown #
coedge $-1 $640 $472 $474 $583 forward $580 $-1 #
coedge $-1 $472 $640 $599 $652 forward $580 $-1 #
loop $-1 $-1 $578 $486 #
vertex $-1 $577 $653 #
straight-curve $-1 2.8710000000000004 -1.5 -7.1499999999999995 0 1 0 I I #
edge $-1 $476 0 $642 3 $474 $654 forward 7 unknown #
point $-1 2.8710000000000004 -0.25 -7.1499999999999995 #
coedge $-1 $638 $479 $600 $655 reversed $587 $-1 #
coedge $-1 $479 $638 $546 $633 forward $587 $-1 #
loop $-1 $-1 $585 $647 #
vertex $-1 $480 $656 #
straight-curve $-1 2.8710000000000004 -1.5 -5.8999999999999995 0 0 1 I I #
point $-1 2.8710000000000004 -1.5 -3.8899999999999997 #
straight-curve $-1 5.8710000000000004 -1.5 -2.3899999999999997 -1 0 0 I I #
plane-surface $-1 5.8710000000000004 -0.25 -7.1499999999999995 0 0 1 0 -1 0 forward_v I I I I #
point $-1 5.8710000000000004 -1.5 -2.3899999999999997 #
point $-1 -4.125 -1.5 -5.8999999999999995 #
plane-surface $-1 13.875 -2.75 -5.8999999999999995 0 0 -1 0 1 0 forward_v I I I I #
straight-curve $-1 -8.125 -1.5 -5.8999999999999995 0 0 1 I I #
edge $-1 $491 0 $499 4 $498 $657 forward 7 unknown #
point $-1 -8.125 -1.5 -5.8999999999999995 #
coedge $-1 $506 $503 $579 $652 reversed $209 $-1 #
coedge $-1 $504 $507 $585 $655 forward $410 $-1 #
straight-curve $-1 -4.125 -1.5 -5.8999999999999995 1 0 0 I I #
coedge $-1 $556 $555 $506 $603 forward $345 $-1 #
edge $-1 $604 0 $658 1.25 $506 $659 forward 7 unknown #
vertex $-1 $508 $660 #
straight-curve $-1 5.8710000000000004 -1.5 -5.8999999999999995 1 0 0 I I #
vertex $-1 $515 $661 #
straight-curve $-1 13.875 -2.75 -2.3899999999999997 0 0 -1 I I #
point $-1 13.875 -2.75 -2.3899999999999997 #
straight-curve $-1 13.875 -2.75 -3.8899999999999997 0 1 0 I I #
point $-1 13.875 -1.5 -3.8899999999999997 #
straight-curve $-1 13.875 -1.5 -5.8999999999999995 -1 0 0 I I #
plane-surface $-1 -4.125 -1.5 1.1200000000000001 0 1 0 1 0 0 forward_v I I I I #
coedge $-1 $662 $525 $528 $619 forward $615 $-1 #
coedge $-1 $525 $662 $527 $618 reversed $615 $-1 #
loop $-1 $-1 $614 $663 #
ellipse-curve $-1 9.875 -0.875 -1.3799999999999999 -1 0 0 0 0 0.42500000000000027 1 I I #
coedge $-1 $528 $527 $636 $664 reversed $529 $-1 #
edge $-1 $531 0 $665 4.0039999999999996 $614 $666 forward 7 unknown #
edge $-1 $530 0 $667 4.0039999999999996 $613 $668 forward 7 unknown #
face $-1 $663 $529 $3 $-1 $669 forward single #
point $-1 9.875 -0.875 -1.8049999999999997 #
point $-1 9.875 -0.875 -0.95499999999999963 #
coedge $-1 $534 $533 $637 $670 reversed $535 $-1 #
edge $-1 $627 0 $625 3.141592653589794 $554 $671 forward 7 unknown #
vertex $-1 $670 $672 #
straight-curve $-1 9.875 -0.875 -4.4749999999999996 -1 0 0 I I #
vertex $-1 $670 $673 #
straight-curve $-1 9.875 -0.875 -5.3249999999999993 -1 0 0 I I #
straight-curve $-1 13.875 -1.5 -3.8899999999999997 -1 0 0 I I #
face $-1 $564 $547 $3 $-1 $674 reversed single #
plane-surface $-1 13.875 -1.5 -5.8999999999999995 0 1 0 0 0 1 forward_v I I I I #
straight-curve $-1 5.8710000000000004 -1.5 -2.3899999999999997 0 0 -1 I I #
edge $-1 $548 0 $481 3 $586 $675 forward 7 unknown #
point $-1 5.8710000000000004 -1.5 -3.8899999999999997 #
cone-surface $-1 9.875 -0.875 -4.8999999999999995 -1 0 0 0 0 0.42499999999999999 1 I I 0 1 0.42499999999999999 forward I I I I #
coedge $-1 $676 $676 $617 $664 forward $553 $-1 #
coedge $-1 $554 $554 $623 $670 forward $444 $-1 #
coedge $-1 $586 $585 $555 $639 forward $587 $-1 #
edge $-1 $604 0 $548 2.0099999999999998 $555 $677 forward 7 unknown #
coedge $-1 $579 $578 $556 $641 forward $580 $-1 #
edge $-1 $642 0 $658 1.25 $556 $678 forward 7 unknown #
vertex $-1 $583 $679 #
straight-curve $-1 5.8710000000000004 -0.25 0.87000000000000011 0 0 -1 I I #
edge $-1 $465 0 $561 4 $569 $680 forward 7 unknown #
point $-1 -8.125 -1.5 -3.8899999999999997 #
straight-curve $-1 13.875 -2.75 -3.8899999999999997 -1 0 0 I I #
face $-1 $277 $587 $3 $-1 $681 reversed single #
plane-surface $-1 13.875 -2.75 1.1200000000000001 0 -1 0 -1 0 0 forward_v I I I I #
straight-curve $-1 -4.125 -1.5 -2.3899999999999997 1 0 0 I I #
straight-curve $-1 -4.125 -1.5 -3.8899999999999997 1 0 0 I I #
straight-curve $-1 2.8710000000000004 -1.5 -5.8999999999999995 0 0 -1 I I #
edge $-1 $658 0 $581 3 $599 $682 forward 7 unknown #
point $-1 2.8710000000000004 -1.5 -7.1499999999999995 #
straight-curve $-1 2.8710000000000004 -0.25 -7.1499999999999995 1 0 0 I I #
edge $-1 $604 0 $588 3 $600 $683 forward 7 unknown #
point $-1 2.8710000000000004 -1.5 -5.8999999999999995 #
straight-curve $-1 -4.125 -1.5 -5.8999999999999995 -1 0 0 I I #
vertex $-1 $603 $684 #
straight-curve $-1 5.8710000000000004 -1.5 -5.8999999999999995 0 0 -1 I I #
point $-1 5.8710000000000004 -1.5 -5.8999999999999995 #
point $-1 13.875 -2.75 -3.8899999999999997 #
coedge $-1 $614 $613 $676 $685 reversed $615 $-1 #
face $-1 $380 $615 $3 $-1 $686 forward single #
edge $-1 $667 0 $665 3.1415926535897931 $636 $687 forward 7 unknown #
vertex $-1 $685 $688 #
straight-curve $-1 9.875 -0.875 -0.95499999999999985 -1 0 0 I I #
vertex $-1 $685 $689 #
straight-curve $-1 9.875 -0.875 -1.8049999999999999 -1 0 0 I I #
cone-surface $-1 9.875 -0.875 -1.3799999999999999 -1 0 0 0 0 0.42499999999999999 1 I I 0 1 0.42499999999999999 forward I I I I #
edge $-1 $625 0 $627 3.141592653589794 $637 $690 forward 7 unknown #
ellipse-curve $-1 5.8710000000000004 -0.87500000000000022 -4.8999999999999995 -1 0 0 0 2.2204460492503131e-016 -0.42499999999999982 1 I I #
point $-1 5.8710000000000004 -0.875 -4.4749999999999996 #
point $-1 5.8710000000000004 -0.875 -5.3249999999999993 #
plane-surface $-1 13.875 -1.5 -3.8899999999999997 0 0 1 0 -1 0 forward_v I I I I #
straight-curve $-1 5.8710000000000004 -1.5 -3.8899999999999997 -1 0 0 I I #
coedge $-1 $636 $636 $662 $685 forward $553 $-1 #
straight-curve $-1 5.8710000000000004 -1.5 -5.8999999999999995 0 0 1 I I #
straight-curve $-1 5.8710000000000004 -0.25 -7.1499999999999995 0 -1 0 I I #
point $-1 5.8710000000000004 -0.25 -7.1499999999999995 #
straight-curve $-1 -4.125 -1.5 -3.8899999999999997 -1 0 0 I I #
plane-surface $-1 13.875 -1.5 -5.8999999999999995 0 1 0 0 0 1 forward_v I I I I #
straight-curve $-1 5.8710000000000004 -1.5 -7.1499999999999995 -1 0 0 I I #
straight-curve $-1 5.8710000000000004 -1.5 -5.8999999999999995 -1 0 0 I I #
point $-1 5.8710000000000004 -1.5 -7.1499999999999995 #
edge $-1 $665 0 $667 3.1415926535897931 $676 $691 forward 7 unknown #
cone-surface $-1 9.875 -0.875 -1.3799999999999999 -1 0 0 0 0 0.42499999999999999 1 I I 0 1 0.42499999999999999 forward I I I I #
ellipse-curve $-1 5.8710000000000004 -0.875 -1.3799999999999999 -1 0 0 0 0 -0.42499999999999982 1 I I #
point $-1 5.8710000000000004 -0.875 -0.95499999999999963 #
point $-1 5.8710000000000004 -0.875 -1.8049999999999997 #
ellipse-curve $-1 5.8710000000000004 -0.87499999999999978 -4.8999999999999995 -1 0 0 0 -2.2204460492503131e-016 0.42499999999999982 1 I I #
ellipse-curve $-1 5.8710000000000004 -0.875 -1.3799999999999999 -1 0 0 0 0 0.42500000000000027 1 I I #
End-of-ACIS-data 