600 0 2 0           
24 FBMach with ACIS - 6.0.3 13 ACIS 6.0.3 NT 24 Sun Mar 31 23:24:59 2002 
1 9.9999999999999995e-007 1e-010 
body $2 $3 $-1 $4 #
bdycol-kcp $-1 1 2 $5 $6 #
model_id-kcp-attrib $-1 $7 $-1 $0 1 1017635099 60 -2093219839 1 #
lump $-1 $-1 $8 $0 #
transform $-1 1 0 0 0 1 0 0 0 1 0 0 0 1 rotate no_reflect no_shear #
body $9 $10 $-1 $11 #
body $12 $13 $-1 $14 #
aggregate_advspl_attribute-aggregate_geombuild_base_attribute-aggregate_body_attribute-attrib_HH-attrib $-1 $15 $2 $0 F #
shell $-1 $-1 $-1 $16 $-1 $3 #
model_id-kcp-attrib $-1 $-1 $-1 $5 1 1017635099 60 -2093219838 1 #
lump $-1 $-1 $17 $5 #
transform $-1 1 0 0 0 1 0 0 0 1 0 0 0 1 no_rotate no_reflect no_shear #
rgb_color-st-attrib $-1 $18 $-1 $6 0.5 1 1 #
lump $-1 $-1 $19 $6 #
transform $-1 1 0 0 0 1 0 0 0 1 0 0 0 1 no_rotate no_reflect no_shear #
aggregate_secndry_attribute-aggregate_geombuild_base_attribute-aggregate_body_attribute-attrib_HH-attrib $-1 $20 $7 $0 F #
face $21 $22 $23 $8 $-1 $24 forward single #
shell $-1 $-1 $-1 $25 $-1 $10 #
model_id-kcp-attrib $-1 $-1 $12 $6 1 1017635099 90 -2091253757 1 #
shell $-1 $-1 $-1 $26 $-1 $13 #
aggregate_sharped_attribute-aggregate_geombuild_base_attribute-aggregate_body_attribute-attrib_HH-attrib $-1 $27 $15 $0 F #
model_id-kcp-attrib $-1 $28 $-1 $16 1 1017635099 60 -2093219839 2 #
face $29 $30 $31 $8 $-1 $32 forward single #
loop $-1 $33 $34 $16 #
torus-surface $-1 0 0 -22.5 0 0 -1 4.5 2.5 -1 0 0 forward_v I I I I #
face $35 $36 $37 $17 $-1 $38 forward single #
face $-1 $39 $40 $19 $-1 $41 reversed single #
aggregate_reblend_attribute-aggregate_geombuild_base_attribute-aggregate_body_attribute-attrib_HH-attrib $-1 $42 $20 $0 F #
attrib_hh_face_geombuild-attrib_entity_geombuild-individual_entity_attribute-attrib_HH-attrib $-1 $-1 $21 $16 F #
model_id-kcp-attrib $-1 $43 $-1 $22 1 1017635099 60 -2093219839 3 #
face $44 $45 $46 $8 $-1 $47 forward single #
loop $-1 $48 $49 $22 #
cone-surface $-1 0 0 0 0 0 1 7 0 0 1 I I 0 1 7 forward I I I I #
loop $-1 $-1 $50 $16 #
coedge $51 $34 $34 $52 $53 forward $23 $-1 #
model_id-kcp-attrib $-1 $-1 $-1 $25 1 1017635099 60 -2093219838 3 #
face $54 $55 $56 $17 $-1 $57 reversed single #
loop $-1 $-1 $58 $25 #
plane-surface $-1 0 0 25 0 0 1 1 0 0 forward_v I I I I #
face $-1 $59 $60 $19 $-1 $41 reversed single #
loop $-1 $-1 $61 $26 #
cone-surface $-1 -2.6244062631887405e-032 0 -25 0 0 -1 7 0 0 1 I I 0 1 7 forward I I I I #
aggregate_isospline_attribute-aggregate_geombuild_base_attribute-aggregate_body_attribute-attrib_HH-attrib $-1 $62 $27 $0 F #
attrib_hh_face_geombuild-attrib_entity_geombuild-individual_entity_attribute-attrib_HH-attrib $-1 $-1 $29 $22 F #
model_id-kcp-attrib $-1 $63 $-1 $30 1 1017635099 60 -2093219839 6 #
face $64 $-1 $65 $8 $-1 $66 forward single #
loop $-1 $-1 $67 $30 #
plane-surface $-1 0 0 -25 0 0 -1 -1 0 0 forward_v I I I I #
loop $-1 $-1 $52 $22 #
coedge $68 $49 $49 $69 $70 reversed $31 $-1 #
coedge $71 $50 $50 $67 $72 forward $33 $-1 #
attrib_hh_coedge_geombuild-attrib_entity_geombuild-individual_entity_attribute-attrib_HH-attrib $-1 $-1 $-1 $34 F #
coedge $73 $52 $52 $34 $53 reversed $48 $-1 #
edge $74 $75 -3.1415926535897998 $75 3.1415926535897865 $52 $76 forward 7 unknown #
model_id-kcp-attrib $-1 $-1 $-1 $36 1 1017635099 60 -2093219838 2 #
face $-1 $77 $78 $17 $-1 $79 reversed single #
loop $-1 $-1 $80 $36 #
plane-surface $-1 0 0 -25 0 0 1 1 0 0 forward_v I I I I #
coedge $-1 $81 $82 $83 $84 forward $37 $-1 #
face $-1 $85 $86 $19 $-1 $41 reversed single #
loop $-1 $-1 $87 $39 #
coedge $-1 $88 $89 $90 $91 forward $40 $-1 #
aggregate_analytic_solver_attribute-aggregate_geombuild_base_attribute-aggregate_body_attribute-attrib_HH-attrib $-1 $92 $42 $0 F #
model_id-kcp-attrib $-1 $93 $44 $30 1 1017635099 60 -2093219839 4 #
model_id-kcp-attrib $-1 $94 $-1 $45 1 1017635099 60 -2093219839 5 #
loop $-1 $-1 $69 $45 #
plane-surface $-1 0 0 25 0 0 1 1 0 0 forward_v I I I I #
coedge $95 $67 $67 $50 $72 reversed $46 $-1 #
attrib_hh_coedge_geombuild-attrib_entity_geombuild-individual_entity_attribute-attrib_HH-attrib $-1 $-1 $-1 $49 F #
coedge $96 $69 $69 $49 $70 forward $65 $-1 #
edge $97 $98 0 $98 6.2831853071795862 $69 $99 forward 7 unknown #
attrib_hh_coedge_geombuild-attrib_entity_geombuild-individual_entity_attribute-attrib_HH-attrib $-1 $-1 $-1 $50 F #
edge $100 $101 -3.1415926535897865 $101 3.1415926535897998 $67 $102 forward 7 unknown #
attrib_hh_coedge_geombuild-attrib_entity_geombuild-individual_entity_attribute-attrib_HH-attrib $-1 $-1 $-1 $52 F #
attrib_hh_edge_geombuild-attrib_entity_geombuild-individual_entity_attribute-attrib_HH-attrib $-1 $-1 $-1 $53 F #
vertex $103 $53 $104 #
ellipse-curve $-1 0 0 -22.5 0 0 -1 7 0 0 1 I I #
face $-1 $105 $106 $17 $-1 $107 reversed single #
loop $-1 $-1 $108 $55 #
plane-surface $-1 0 -7 0 0 1 0 0 0 1 forward_v I I I I #
coedge $-1 $109 $110 $111 $112 forward $56 $-1 #
coedge $-1 $113 $58 $114 $115 forward $37 $-1 #
coedge $-1 $58 $113 $116 $117 forward $37 $-1 #
coedge $-1 $118 $119 $58 $84 reversed $120 $-1 #
edge $-1 $121 -7 $122 7 $83 $123 forward 7 unknown #
face $-1 $124 $125 $19 $-1 $41 reversed single #
loop $-1 $-1 $126 $59 #
coedge $-1 $127 $90 $128 $129 reversed $60 $-1 #
coedge $-1 $130 $61 $131 $132 reversed $40 $-1 #
coedge $-1 $61 $130 $133 $134 reversed $40 $-1 #
coedge $-1 $87 $135 $136 $91 reversed $60 $-1 #
edge $-1 $137 -50 $138 0 $136 $139 forward 7 unknown #
aggregate_geombuild_attribute-aggregate_geombuild_base_attribute-aggregate_body_attribute-attrib_HH-attrib $-1 $140 $62 $0 #
attrib_hh_face_geombuild-attrib_entity_geombuild-individual_entity_attribute-attrib_HH-attrib $-1 $-1 $63 $30 F #
attrib_hh_face_geombuild-attrib_entity_geombuild-individual_entity_attribute-attrib_HH-attrib $-1 $-1 $64 $45 F #
attrib_hh_coedge_geombuild-attrib_entity_geombuild-individual_entity_attribute-attrib_HH-attrib $-1 $-1 $-1 $67 F #
attrib_hh_coedge_geombuild-attrib_entity_geombuild-individual_entity_attribute-attrib_HH-attrib $-1 $-1 $-1 $69 F #
attrib_hh_edge_geombuild-attrib_entity_geombuild-individual_entity_attribute-attrib_HH-attrib $-1 $-1 $-1 $70 F #
vertex $141 $70 $142 #
ellipse-curve $-1 0 0 25 0 0 1 7 0 0 1 I I #
attrib_edge_convexity-kcp-attrib $-1 $143 $-1 $72 3 #
vertex $144 $72 $145 #
ellipse-curve $-1 0 0 -25 0 0 1 4.5 0 0 1 I I #
attrib_hh_vertex_geombuild-attrib_entity_geombuild-individual_entity_attribute-attrib_HH-attrib $-1 $-1 $-1 $75 F #
point $-1 -7 -4.8880738743803899e-014 -22.5 #
face $-1 $146 $147 $17 $-1 $148 reversed single #
loop $-1 $-1 $149 $77 #
plane-surface $-1 -7 0 0 1 0 0 0 0 -1 forward_v I I I I #
coedge $-1 $150 $116 $151 $152 forward $78 $-1 #
coedge $-1 $153 $80 $150 $154 forward $56 $-1 #
coedge $-1 $80 $153 $155 $156 forward $56 $-1 #
coedge $-1 $119 $118 $80 $112 reversed $120 $-1 #
edge $-1 $157 -7 $158 7 $111 $159 forward 7 unknown #
coedge $-1 $82 $81 $160 $161 forward $37 $-1 #
coedge $-1 $162 $163 $81 $115 reversed $147 $-1 #
edge $-1 $122 -7 $164 7 $114 $165 forward 7 unknown #
coedge $-1 $108 $166 $82 $117 reversed $78 $-1 #
edge $-1 $167 -7 $121 7 $116 $168 forward 7 unknown #
coedge $-1 $111 $83 $166 $169 forward $120 $-1 #
coedge $-1 $83 $111 $162 $170 reversed $120 $-1 #
loop $-1 $-1 $118 $146 #
vertex $-1 $84 $171 #
vertex $-1 $84 $172 #
straight-curve $-1 7 0 25 0 1 0 I I #
face $-1 $173 $174 $19 $-1 $175 reversed single #
loop $-1 $-1 $176 $85 #
coedge $-1 $177 $178 $179 $180 reversed $86 $-1 #
coedge $-1 $135 $87 $181 $182 forward $60 $-1 #
coedge $-1 $183 $184 $87 $129 forward $185 $-1 #
edge $-1 $186 -3.1415926535897931 $137 -1.5707963267948966 $128 $187 forward 7 unknown #
coedge $-1 $89 $88 $188 $189 reversed $40 $-1 #
coedge $-1 $190 $191 $88 $132 forward $192 $-1 #
edge $-1 $193 0 $138 1.5707963267948966 $131 $194 forward 7 unknown #
coedge $-1 $195 $196 $89 $134 forward $197 $-1 #
edge $-1 $137 -1.5707963267948966 $198 0 $133 $187 forward 7 unknown #
coedge $-1 $90 $127 $199 $200 reversed $60 $-1 #
coedge $-1 $201 $202 $203 $91 forward $204 $-1 #
vertex $-1 $205 $206 #
vertex $-1 $207 $208 #
straight-curve $-1 -2.6244062631887405e-032 7 -25 0 0 -1 I I #
aggregate_stitch_attribute-aggregate_stitch_base_attribute-aggregate_body_attribute-attrib_HH-attrib $-1 $209 $92 $0 F #
attrib_hh_vertex_geombuild-attrib_entity_geombuild-individual_entity_attribute-attrib_HH-attrib $-1 $-1 $-1 $98 F #
point $-1 7 0 25 #
convexity-sys-attrib $-1 $210 $100 $72 #
attrib_hh_vertex_geombuild-attrib_entity_geombuild-individual_entity_attribute-attrib_HH-attrib $-1 $-1 $-1 $101 F #
point $-1 -4.5 -3.14233320495882e-014 -25 #
face $-1 $-1 $120 $17 $-1 $211 reversed single #
loop $-1 $-1 $162 $105 #
plane-surface $-1 0 7 0 0 -1 0 0 0 -1 forward_v I I I I #
coedge $-1 $212 $160 $163 $213 forward $106 $-1 #
coedge $-1 $166 $108 $109 $154 reversed $78 $-1 #
coedge $-1 $160 $212 $108 $152 reversed $106 $-1 #
edge $-1 $167 -25 $214 25 $151 $215 forward 7 unknown #
coedge $-1 $110 $109 $212 $216 forward $56 $-1 #
edge $-1 $158 -7 $214 7 $150 $217 forward 7 unknown #
coedge $-1 $163 $162 $110 $156 reversed $147 $-1 #
edge $-1 $218 -7 $157 7 $155 $219 forward 7 unknown #
vertex $-1 $112 $220 #
vertex $-1 $169 $221 #
straight-curve $-1 7 0 -25 0 -1 0 I I #
coedge $-1 $149 $151 $113 $161 reversed $106 $-1 #
edge $-1 $164 -7 $167 7 $160 $222 forward 7 unknown #
coedge $-1 $155 $114 $119 $170 forward $147 $-1 #
coedge $-1 $114 $155 $149 $213 reversed $147 $-1 #
vertex $-1 $115 $223 #
straight-curve $-1 0 7 25 -1 0 0 I I #
coedge $-1 $116 $150 $118 $169 reversed $78 $-1 #
vertex $-1 $161 $224 #
straight-curve $-1 0 -7 25 1 0 0 I I #
edge $-1 $121 -25 $158 25 $118 $225 forward 7 unknown #
edge $-1 $122 -25 $157 25 $119 $226 forward 7 unknown #
point $-1 7 -7 25 #
point $-1 7 7 25 #
face $-1 $227 $204 $19 $-1 $228 reversed single #
loop $-1 $-1 $188 $124 #
plane-surface $-1 7 0 0 -1 0 0 0 0 1 forward_v I I I I #
coedge $-1 $181 $229 $230 $231 reversed $125 $-1 #
coedge $-1 $232 $126 $233 $234 reversed $86 $-1 #
coedge $-1 $126 $232 $130 $189 forward $86 $-1 #
coedge $-1 $235 $236 $126 $180 forward $237 $-1 #
edge $-1 $238 -1.5707963267948966 $193 0 $179 $194 forward 7 unknown #
coedge $-1 $239 $176 $240 $182 reversed $125 $-1 #
edge $-1 $186 -50 $241 0 $240 $242 forward 7 unknown #
coedge $-1 $184 $128 $202 $205 forward $185 $-1 #
coedge $-1 $128 $183 $243 $244 forward $185 $-1 #
loop $-1 $-1 $128 $245 #
vertex $-1 $246 $247 #
ellipse-curve $-1 -2.6244062631887405e-032 0 25 0 0 -1 7 0 0 1 I I #
coedge $-1 $248 $249 $250 $189 forward $174 $-1 #
edge $-1 $198 -50 $193 0 $188 $251 forward 7 unknown #
coedge $-1 $191 $131 $252 $207 forward $192 $-1 #
coedge $-1 $131 $190 $248 $253 forward $192 $-1 #
loop $-1 $-1 $131 $254 #
vertex $-1 $255 $256 #
ellipse-curve $-1 -2.6244062631887405e-032 0 -25 0 0 1 7 0 0 1 I I #
coedge $-1 $196 $133 $249 $257 forward $197 $-1 #
coedge $-1 $133 $195 $258 $259 forward $197 $-1 #
loop $-1 $-1 $133 $260 #
vertex $-1 $257 $261 #
coedge $-1 $262 $263 $135 $200 forward $264 $-1 #
edge $-1 $138 1.5707963267948966 $241 3.1415926535897931 $199 $194 forward 7 unknown #
coedge $-1 $265 $136 $263 $266 reversed $204 $-1 #
coedge $-1 $136 $265 $183 $205 reversed $204 $-1 #
coedge $-1 $258 $252 $61 $91 reversed $267 $-1 #
loop $-1 $-1 $136 $173 #
edge $-1 $137 2.6244062631887405e-032 $268 7 $202 $269 forward 7 unknown #
point $-1 -2.6244062631887405e-032 7 25 #
edge $-1 $138 -2.6244062631887405e-032 $270 7 $252 $271 forward 7 unknown #
point $-1 -2.6244062631887405e-032 7 -25 #
aggregate_simgeom_attribute-aggregate_simgeom_base_attribute-aggregate_body_attribute-attrib_HH-attrib $-1 $-1 $140 $0 F #
attrib_hh_edge_geombuild-attrib_entity_geombuild-individual_entity_attribute-attrib_HH-attrib $-1 $-1 $143 $72 F #
plane-surface $-1 7 0 0 -1 0 0 0 0 1 forward_v I I I I #
coedge $-1 $151 $149 $153 $216 reversed $106 $-1 #
edge $-1 $164 -25 $218 25 $163 $272 forward 7 unknown #
vertex $-1 $216 $273 #
straight-curve $-1 -7 -7 0 0 0 -1 I I #
edge $-1 $214 -7 $218 7 $212 $274 forward 7 unknown #
straight-curve $-1 0 -7 -25 -1 0 0 I I #
vertex $-1 $156 $275 #
straight-curve $-1 0 7 -25 1 0 0 I I #
point $-1 7 7 -25 #
point $-1 7 -7 -25 #
straight-curve $-1 -7 0 25 0 -1 0 I I #
point $-1 -7 7 25 #
point $-1 -7 -7 25 #
straight-curve $-1 7 -7 0 0 0 -1 I I #
straight-curve $-1 7 7 0 0 0 -1 I I #
face $-1 $276 $277 $19 $-1 $278 reversed single #
plane-surface $-1 0 7 0 0 -1 0 0 0 -1 forward_v I I I I #
coedge $-1 $176 $239 $177 $234 forward $125 $-1 #
coedge $-1 $279 $280 $176 $231 forward $281 $-1 #
edge $-1 $241 -3.1415926535897931 $238 -1.5707963267948966 $230 $194 forward 7 unknown #
coedge $-1 $178 $177 $282 $283 reversed $86 $-1 #
coedge $-1 $284 $285 $286 $234 forward $287 $-1 #
edge $-1 $288 -50 $238 0 $233 $289 forward 7 unknown #
coedge $-1 $236 $179 $290 $255 forward $237 $-1 #
coedge $-1 $179 $235 $284 $291 forward $237 $-1 #
loop $-1 $-1 $179 $292 #
vertex $-1 $293 $294 #
coedge $-1 $229 $181 $295 $296 reversed $125 $-1 #
coedge $-1 $297 $298 $299 $182 forward $277 $-1 #
vertex $-1 $300 $301 #
straight-curve $-1 -7 0 -25 0 0 -1 I I #
coedge $-1 $302 $299 $184 $244 reversed $303 $-1 #
edge $-1 $268 -7 $186 0 $243 $304 forward 7 unknown #
face $-1 $260 $185 $19 $-1 $305 forward single #
edge $-1 $186 0 $306 7 $298 $304 forward 7 unknown #
point $-1 -7 0 25 #
coedge $-1 $307 $188 $191 $253 reversed $174 $-1 #
coedge $-1 $188 $307 $195 $257 reversed $174 $-1 #
coedge $-1 $308 $290 $178 $189 reversed $309 $-1 #
straight-curve $-1 7 0 -25 0 0 -1 I I #
coedge $-1 $203 $310 $190 $207 reversed $267 $-1 #
edge $-1 $270 -7 $193 0 $248 $311 forward 7 unknown #
face $-1 $312 $192 $19 $-1 $313 reversed single #
edge $-1 $193 0 $314 7 $290 $311 forward 7 unknown #
point $-1 7 0 -25 #
edge $-1 $198 0 $315 7 $249 $316 forward 7 unknown #
coedge $-1 $310 $203 $196 $259 reversed $267 $-1 #
edge $-1 $315 -7 $137 2.6244062631887405e-032 $258 $269 forward 7 unknown #
face $-1 $317 $197 $19 $-1 $305 forward single #
point $-1 7 0 25 #
coedge $-1 $263 $199 $318 $300 forward $264 $-1 #
coedge $-1 $199 $262 $201 $266 forward $264 $-1 #
loop $-1 $-1 $199 $312 #
coedge $-1 $202 $201 $302 $319 reversed $204 $-1 #
edge $-1 $320 -7 $138 -2.6244062631887405e-032 $201 $271 forward 7 unknown #
loop $-1 $-1 $203 $321 #
vertex $-1 $205 $322 #
straight-curve $-1 0 7 25 -1 0 0 I I #
vertex $-1 $253 $323 #
straight-curve $-1 0 7 -25 1 0 0 I I #
straight-curve $-1 -7 7 0 0 0 -1 I I #
point $-1 -7 -7 -25 #
straight-curve $-1 -7 0 -25 0 1 0 I I #
point $-1 -7 7 -25 #
face $-1 $245 $324 $19 $-1 $305 forward single #
loop $-1 $-1 $240 $227 #
plane-surface $-1 -7 0 0 1 0 0 0 0 -1 forward_v I I I I #
coedge $-1 $280 $230 $325 $293 forward $281 $-1 #
coedge $-1 $230 $279 $297 $326 forward $281 $-1 #
loop $-1 $-1 $230 $327 #
coedge $-1 $328 $329 $232 $283 forward $330 $-1 #
edge $-1 $198 0 $288 1.5707963267948966 $282 $187 forward 7 unknown #
coedge $-1 $331 $233 $236 $291 reversed $287 $-1 #
coedge $-1 $233 $331 $328 $332 reversed $287 $-1 #
coedge $-1 $333 $325 $229 $234 reversed $334 $-1 #
loop $-1 $-1 $233 $335 #
vertex $-1 $332 $336 #
straight-curve $-1 -2.6244062631887405e-032 -7 -25 0 0 -1 I I #
coedge $-1 $250 $337 $235 $255 reversed $309 $-1 #
edge $-1 $314 -7 $238 2.6244062631887405e-032 $284 $338 forward 7 unknown #
face $-1 $254 $237 $19 $-1 $313 reversed single #
edge $-1 $238 2.6244062631887405e-032 $339 7 $325 $338 forward 7 unknown #
point $-1 -2.6244062631887405e-032 -7 -25 #
coedge $-1 $340 $341 $239 $296 forward $324 $-1 #
edge $-1 $288 1.5707963267948966 $186 3.1415926535897931 $295 $187 forward 7 unknown #
coedge $-1 $342 $240 $280 $326 reversed $277 $-1 #
coedge $-1 $240 $342 $340 $246 reversed $277 $-1 #
coedge $-1 $243 $318 $127 $182 reversed $303 $-1 #
edge $-1 $241 0 $320 7 $318 $343 forward 7 unknown #
point $-1 -7 0 -25 #
coedge $-1 $318 $243 $265 $319 forward $303 $-1 #
loop $-1 $-1 $299 $344 #
straight-curve $-1 -7 0 25 0 -1 0 I I #
plane-surface $-1 0 0 25 0 0 1 1 0 0 forward_v I I I I #
vertex $-1 $246 $345 #
coedge $-1 $249 $248 $310 $346 reversed $174 $-1 #
coedge $-1 $337 $250 $329 $347 reversed $309 $-1 #
loop $-1 $-1 $250 $348 #
coedge $-1 $252 $258 $307 $346 forward $267 $-1 #
straight-curve $-1 7 0 -25 0 -1 0 I I #
face $-1 $349 $264 $19 $-1 $313 reversed single #
plane-surface $-1 0 0 -25 0 0 1 1 0 0 forward_v I I I I #
vertex $-1 $350 $351 #
vertex $-1 $257 $352 #
straight-curve $-1 7 0 25 0 1 0 I I #
face $-1 $335 $330 $19 $-1 $305 forward single #
coedge $-1 $299 $302 $262 $300 reversed $303 $-1 #
edge $-1 $268 -25 $320 25 $265 $353 forward 7 unknown #
vertex $-1 $266 $354 #
face $-1 $348 $267 $19 $-1 $228 reversed single #
point $-1 -7 7 25 #
point $-1 7 7 -25 #
loop $-1 $-1 $295 $276 #
coedge $-1 $286 $355 $279 $293 reversed $334 $-1 #
edge $-1 $339 -7 $241 0 $297 $343 forward 7 unknown #
face $-1 $292 $281 $19 $-1 $313 reversed single #
coedge $-1 $329 $282 $285 $332 forward $330 $-1 #
coedge $-1 $282 $328 $308 $347 forward $330 $-1 #
loop $-1 $-1 $282 $317 #
coedge $-1 $285 $284 $337 $350 reversed $287 $-1 #
edge $-1 $288 -2.6244062631887405e-032 $356 7 $285 $357 forward 7 unknown #
coedge $-1 $355 $286 $341 $358 reversed $334 $-1 #
loop $-1 $-1 $286 $349 #
face $-1 $327 $287 $19 $-1 $359 reversed single #
point $-1 -2.6244062631887405e-032 -7 25 #
coedge $-1 $290 $308 $331 $350 forward $309 $-1 #
straight-curve $-1 0 -7 -25 -1 0 0 I I #
vertex $-1 $326 $360 #
coedge $-1 $341 $295 $298 $246 forward $324 $-1 #
coedge $-1 $295 $340 $333 $358 forward $324 $-1 #
coedge $-1 $298 $297 $355 $361 reversed $277 $-1 #
straight-curve $-1 -7 0 -25 0 1 0 I I #
face $-1 $321 $303 $19 $-1 $278 reversed single #
point $-1 -7 -7 25 #
edge $-1 $315 -25 $270 25 $307 $362 forward 7 unknown #
edge $-1 $356 -7 $198 0 $308 $316 forward 7 unknown #
face $-1 $-1 $309 $19 $-1 $175 reversed single #
face $-1 $344 $334 $19 $-1 $359 reversed single #
edge $-1 $356 -25 $314 25 $337 $363 forward 7 unknown #
point $-1 7 -7 -25 #
point $-1 7 7 25 #
straight-curve $-1 -7 7 0 0 0 -1 I I #
point $-1 -7 7 -25 #
coedge $-1 $325 $333 $342 $361 forward $334 $-1 #
vertex $-1 $347 $364 #
straight-curve $-1 0 -7 25 1 0 0 I I #
edge $-1 $306 -7 $288 -2.6244062631887405e-032 $333 $357 forward 7 unknown #
plane-surface $-1 0 -7 0 0 1 0 0 0 1 forward_v I I I I #
point $-1 -7 -7 -25 #
edge $-1 $306 -25 $339 25 $342 $365 forward 7 unknown #
straight-curve $-1 7 7 0 0 0 -1 I I #
straight-curve $-1 7 -7 0 0 0 -1 I I #
point $-1 7 -7 25 #
straight-curve $-1 -7 -7 0 0 0 -1 I I #
End-of-ACIS-data 