105 35 1 0                              
body $-1 $1 $-1 $-1 #
lump $-1 $-1 $2 $0 #
shell $-1 $-1 $-1 $3 $1 #
face $-1 $4 $5 $2 $-1 $6 forward single #
face $-1 $7 $8 $2 $-1 $9 forward single #
loop $-1 $10 $11 $3 #
torus-surface $-1 0 0 -22.5 0 0 -1 4.5 2.5 -1 0 0 0 #
face $-1 $12 $13 $2 $-1 $14 forward single #
loop $-1 $15 $16 $4 #
cone-surface $-1 0 0 0 0 0 1 7 0 0 1 0 1 0 #
loop $-1 $-1 $17 $3 #
coedge $-1 $11 $11 $18 $19 0 $5 $-1 #
face $-1 $-1 $20 $2 $-1 $21 forward single #
loop $-1 $-1 $22 $7 #
plane-surface $-1 0 0 -25 0 0 -1 -1 0 0 0 #
loop $-1 $-1 $18 $4 #
coedge $-1 $16 $16 $23 $24 1 $8 $-1 #
coedge $-1 $17 $17 $22 $25 0 $10 $-1 #
coedge $-1 $18 $18 $11 $19 1 $15 $-1 #
edge $-1 $26 $26 $18 $27 0 #
loop $-1 $-1 $23 $12 #
plane-surface $-1 0 0 25 0 0 1 1 0 0 0 #
coedge $-1 $22 $22 $17 $25 1 $13 $-1 #
coedge $-1 $23 $23 $16 $24 0 $20 $-1 #
edge $-1 $28 $28 $23 $29 0 #
edge $-1 $30 $30 $22 $31 0 #
vertex $-1 $19 $32 #
ellipse-curve $-1 0 0 -22.5 0 0 -1 7 0 0 1 #
vertex $-1 $24 $33 #
ellipse-curve $-1 0 0 25 0 0 1 7 0 0 1 #
vertex $-1 $25 $34 #
ellipse-curve $-1 0 0 -25 -0 -0 1 4.5 0 0 1 #
point $-1 -7 -4.88807387438039e-14 -22.5 #
point $-1 7 0 25 #
point $-1 -4.5 -3.14233320495882e-14 -25 #
