600 0 2 0           
24 FBMach with ACIS - 6.0.3 13 ACIS 6.0.3 NT 24 Tue May 22 12:24:14 2001 
1 9.9999999999999995e-007 1e-010 
body $2 $3 $-1 $4 #
bdycol-kcp $-1 1 2 $5 $6 #
model_id-kcp-attrib $-1 $-1 $-1 $0 1 990548654 50 -1892548607 1 #
lump $-1 $-1 $7 $0 #
transform $-1 1 0 0 0 1 0 0 0 1 0 0 0 1 no_rotate no_reflect no_shear #
body $8 $9 $-1 $10 #
body $11 $12 $-1 $13 #
shell $-1 $-1 $-1 $14 $-1 $3 #
model_id-kcp-attrib $-1 $-1 $-1 $5 1 990548654 50 -1892548606 1 #
lump $-1 $-1 $15 $5 #
transform $-1 1 0 0 0 1 0 0 0 1 0 0 0 1 no_rotate no_reflect no_shear #
rgb_color-st-attrib $-1 $16 $-1 $6 0.5 1 1 #
lump $-1 $-1 $17 $6 #
transform $-1 1 0 0 0 1 0 0 0 1 0 0 0 1 no_rotate no_reflect no_shear #
face $18 $19 $20 $7 $-1 $21 forward single #
shell $-1 $-1 $-1 $22 $-1 $9 #
model_id-kcp-attrib $-1 $-1 $11 $6 1 990548654 80 -1890582525 1 #
shell $-1 $-1 $-1 $23 $-1 $12 #
model_id-kcp-attrib $-1 $-1 $-1 $14 1 990548654 50 -1892548607 2 #
face $24 $25 $26 $7 $-1 $27 forward single #
loop $-1 $28 $29 $14 #
torus-surface $-1 0 0 -22.5 0 0 -1 4.5 2.5 -1 0 0 forward_v I I I I #
face $30 $31 $32 $15 $-1 $33 forward single #
face $-1 $34 $35 $17 $-1 $36 reversed single #
model_id-kcp-attrib $-1 $-1 $-1 $19 1 990548654 50 -1892548607 3 #
face $37 $38 $39 $7 $-1 $40 forward single #
loop $-1 $41 $42 $19 #
cone-surface $-1 0 0 0 0 0 1 7 0 0 1 I I 0 1 7 forward I I I I #
loop $-1 $-1 $43 $14 #
coedge $-1 $29 $29 $44 $45 forward $20 $-1 #
model_id-kcp-attrib $-1 $-1 $-1 $22 1 990548654 50 -1892548606 3 #
face $46 $47 $48 $15 $-1 $49 reversed single #
loop $-1 $-1 $50 $22 #
plane-surface $-1 0 0 25 0 0 1 1 0 0 forward_v I I I I #
face $-1 $51 $52 $17 $-1 $36 reversed single #
loop $-1 $-1 $53 $23 #
cone-surface $-1 -2.6244062631887405e-032 0 -25 0 0 -1 7 0 0 1 I I 0 1 7 forward I I I I #
model_id-kcp-attrib $-1 $54 $-1 $25 1 990548654 50 -1892548607 6 #
face $55 $-1 $56 $7 $-1 $57 forward single #
loop $-1 $-1 $58 $25 #
plane-surface $-1 0 0 -25 0 0 -1 -1 0 0 forward_v I I I I #
loop $-1 $-1 $44 $19 #
coedge $-1 $42 $42 $59 $60 reversed $26 $-1 #
coedge $-1 $43 $43 $58 $61 forward $28 $-1 #
coedge $-1 $44 $44 $29 $45 reversed $41 $-1 #
edge $-1 $62 -3.1415926535897998 $62 3.1415926535897865 $44 $63 forward 7 unknown #
model_id-kcp-attrib $-1 $-1 $-1 $31 1 990548654 50 -1892548606 2 #
face $-1 $64 $65 $15 $-1 $66 reversed single #
loop $-1 $-1 $67 $31 #
plane-surface $-1 0 0 -25 0 0 1 1 0 0 forward_v I I I I #
coedge $-1 $68 $69 $70 $71 forward $32 $-1 #
face $-1 $72 $73 $17 $-1 $36 reversed single #
loop $-1 $-1 $74 $34 #
coedge $-1 $75 $76 $77 $78 forward $35 $-1 #
model_id-kcp-attrib $-1 $-1 $37 $25 1 990548654 50 -1892548607 4 #
model_id-kcp-attrib $-1 $-1 $-1 $38 1 990548654 50 -1892548607 5 #
loop $-1 $-1 $59 $38 #
plane-surface $-1 0 0 25 0 0 1 1 0 0 forward_v I I I I #
coedge $-1 $58 $58 $43 $61 reversed $39 $-1 #
coedge $-1 $59 $59 $42 $60 forward $56 $-1 #
edge $-1 $79 0 $79 6.2831853071795862 $59 $80 forward 7 unknown #
edge $81 $82 -3.1415926535897865 $82 3.1415926535897998 $58 $83 forward 7 unknown #
vertex $-1 $45 $84 #
ellipse-curve $-1 0 0 -22.5 0 0 -1 7 0 0 1 I I #
face $-1 $85 $86 $15 $-1 $87 reversed single #
loop $-1 $-1 $88 $47 #
plane-surface $-1 0 -7 0 0 1 0 0 0 1 forward_v I I I I #
coedge $-1 $89 $90 $91 $92 forward $48 $-1 #
coedge $-1 $93 $50 $94 $95 forward $32 $-1 #
coedge $-1 $50 $93 $96 $97 forward $32 $-1 #
coedge $-1 $98 $99 $50 $71 reversed $100 $-1 #
edge $-1 $101 -7 $102 7 $70 $103 forward 7 unknown #
face $-1 $104 $105 $17 $-1 $36 reversed single #
loop $-1 $-1 $106 $51 #
coedge $-1 $107 $77 $108 $109 reversed $52 $-1 #
coedge $-1 $110 $53 $111 $112 reversed $35 $-1 #
coedge $-1 $53 $110 $113 $114 reversed $35 $-1 #
coedge $-1 $74 $115 $116 $78 reversed $52 $-1 #
edge $-1 $117 -50 $118 0 $116 $119 forward 7 unknown #
vertex $-1 $60 $120 #
ellipse-curve $-1 0 0 25 0 0 1 7 0 0 1 I I #
attrib_edge_convexity-kcp-attrib $-1 $121 $-1 $61 3 #
vertex $-1 $61 $122 #
ellipse-curve $-1 0 0 -25 0 0 1 4.5 0 0 1 I I #
point $-1 -7 -4.8880738743803899e-014 -22.5 #
face $-1 $123 $124 $15 $-1 $125 reversed single #
loop $-1 $-1 $126 $64 #
plane-surface $-1 -7 0 0 1 0 0 0 0 -1 forward_v I I I I #
coedge $-1 $127 $96 $128 $129 forward $65 $-1 #
coedge $-1 $130 $67 $127 $131 forward $48 $-1 #
coedge $-1 $67 $130 $132 $133 forward $48 $-1 #
coedge $-1 $99 $98 $67 $92 reversed $100 $-1 #
edge $-1 $134 -7 $135 7 $91 $136 forward 7 unknown #
coedge $-1 $69 $68 $137 $138 forward $32 $-1 #
coedge $-1 $139 $140 $68 $95 reversed $124 $-1 #
edge $-1 $102 -7 $141 7 $94 $142 forward 7 unknown #
coedge $-1 $88 $143 $69 $97 reversed $65 $-1 #
edge $-1 $144 -7 $101 7 $96 $145 forward 7 unknown #
coedge $-1 $91 $70 $143 $146 forward $100 $-1 #
coedge $-1 $70 $91 $139 $147 reversed $100 $-1 #
loop $-1 $-1 $98 $123 #
vertex $-1 $71 $148 #
vertex $-1 $71 $149 #
straight-curve $-1 7 0 25 0 1 0 I I #
face $-1 $150 $151 $17 $-1 $152 reversed single #
loop $-1 $-1 $153 $72 #
coedge $-1 $154 $155 $156 $157 reversed $73 $-1 #
coedge $-1 $115 $74 $158 $159 forward $52 $-1 #
coedge $-1 $160 $161 $74 $109 forward $162 $-1 #
edge $-1 $163 -3.1415926535897931 $117 -1.5707963267948966 $108 $164 forward 7 unknown #
coedge $-1 $76 $75 $165 $166 reversed $35 $-1 #
coedge $-1 $167 $168 $75 $112 forward $169 $-1 #
edge $-1 $170 0 $118 1.5707963267948966 $111 $171 forward 7 unknown #
coedge $-1 $172 $173 $76 $114 forward $174 $-1 #
edge $-1 $117 -1.5707963267948966 $175 0 $113 $164 forward 7 unknown #
coedge $-1 $77 $107 $176 $177 reversed $52 $-1 #
coedge $-1 $178 $179 $180 $78 forward $181 $-1 #
vertex $-1 $182 $183 #
vertex $-1 $184 $185 #
straight-curve $-1 -2.6244062631887405e-032 7 -25 0 0 -1 I I #
point $-1 7 0 25 #
convexity-sys-attrib $-1 $-1 $81 $61 #
point $-1 -4.5 -3.14233320495882e-014 -25 #
face $-1 $-1 $100 $15 $-1 $186 reversed single #
loop $-1 $-1 $139 $85 #
plane-surface $-1 0 7 0 0 -1 0 0 0 -1 forward_v I I I I #
coedge $-1 $187 $137 $140 $188 forward $86 $-1 #
coedge $-1 $143 $88 $89 $131 reversed $65 $-1 #
coedge $-1 $137 $187 $88 $129 reversed $86 $-1 #
edge $-1 $144 -25 $189 25 $128 $190 forward 7 unknown #
coedge $-1 $90 $89 $187 $191 forward $48 $-1 #
edge $-1 $135 -7 $189 7 $127 $192 forward 7 unknown #
coedge $-1 $140 $139 $90 $133 reversed $124 $-1 #
edge $-1 $193 -7 $134 7 $132 $194 forward 7 unknown #
vertex $-1 $92 $195 #
vertex $-1 $146 $196 #
straight-curve $-1 7 0 -25 0 -1 0 I I #
coedge $-1 $126 $128 $93 $138 reversed $86 $-1 #
edge $-1 $141 -7 $144 7 $137 $197 forward 7 unknown #
coedge $-1 $132 $94 $99 $147 forward $124 $-1 #
coedge $-1 $94 $132 $126 $188 reversed $124 $-1 #
vertex $-1 $95 $198 #
straight-curve $-1 0 7 25 -1 0 0 I I #
coedge $-1 $96 $127 $98 $146 reversed $65 $-1 #
vertex $-1 $138 $199 #
straight-curve $-1 0 -7 25 1 0 0 I I #
edge $-1 $101 -25 $135 25 $98 $200 forward 7 unknown #
edge $-1 $102 -25 $134 25 $99 $201 forward 7 unknown #
point $-1 7 -7 25 #
point $-1 7 7 25 #
face $-1 $202 $181 $17 $-1 $203 reversed single #
loop $-1 $-1 $165 $104 #
plane-surface $-1 7 0 0 -1 0 0 0 0 1 forward_v I I I I #
coedge $-1 $158 $204 $205 $206 reversed $105 $-1 #
coedge $-1 $207 $106 $208 $209 reversed $73 $-1 #
coedge $-1 $106 $207 $110 $166 forward $73 $-1 #
coedge $-1 $210 $211 $106 $157 forward $212 $-1 #
edge $-1 $213 -1.5707963267948966 $170 0 $156 $171 forward 7 unknown #
coedge $-1 $214 $153 $215 $159 reversed $105 $-1 #
edge $-1 $163 -50 $216 0 $215 $217 forward 7 unknown #
coedge $-1 $161 $108 $179 $182 forward $162 $-1 #
coedge $-1 $108 $160 $218 $219 forward $162 $-1 #
loop $-1 $-1 $108 $220 #
vertex $-1 $221 $222 #
ellipse-curve $-1 -2.6244062631887405e-032 0 25 0 0 -1 7 0 0 1 I I #
coedge $-1 $223 $224 $225 $166 forward $151 $-1 #
edge $-1 $175 -50 $170 0 $165 $226 forward 7 unknown #
coedge $-1 $168 $111 $227 $184 forward $169 $-1 #
coedge $-1 $111 $167 $223 $228 forward $169 $-1 #
loop $-1 $-1 $111 $229 #
vertex $-1 $230 $231 #
ellipse-curve $-1 -2.6244062631887405e-032 0 -25 0 0 1 7 0 0 1 I I #
coedge $-1 $173 $113 $224 $232 forward $174 $-1 #
coedge $-1 $113 $172 $233 $234 forward $174 $-1 #
loop $-1 $-1 $113 $235 #
vertex $-1 $232 $236 #
coedge $-1 $237 $238 $115 $177 forward $239 $-1 #
edge $-1 $118 1.5707963267948966 $216 3.1415926535897931 $176 $171 forward 7 unknown #
coedge $-1 $240 $116 $238 $241 reversed $181 $-1 #
coedge $-1 $116 $240 $160 $182 reversed $181 $-1 #
coedge $-1 $233 $227 $53 $78 reversed $242 $-1 #
loop $-1 $-1 $116 $150 #
edge $-1 $117 2.6244062631887405e-032 $243 7 $179 $244 forward 7 unknown #
point $-1 -2.6244062631887405e-032 7 25 #
edge $-1 $118 -2.6244062631887405e-032 $245 7 $227 $246 forward 7 unknown #
point $-1 -2.6244062631887405e-032 7 -25 #
plane-surface $-1 7 0 0 -1 0 0 0 0 1 forward_v I I I I #
coedge $-1 $128 $126 $130 $191 reversed $86 $-1 #
edge $-1 $141 -25 $193 25 $140 $247 forward 7 unknown #
vertex $-1 $191 $248 #
straight-curve $-1 -7 -7 0 0 0 -1 I I #
edge $-1 $189 -7 $193 7 $187 $249 forward 7 unknown #
straight-curve $-1 0 -7 -25 -1 0 0 I I #
vertex $-1 $133 $250 #
straight-curve $-1 0 7 -25 1 0 0 I I #
point $-1 7 7 -25 #
point $-1 7 -7 -25 #
straight-curve $-1 -7 0 25 0 -1 0 I I #
point $-1 -7 7 25 #
point $-1 -7 -7 25 #
straight-curve $-1 7 -7 0 0 0 -1 I I #
straight-curve $-1 7 7 0 0 0 -1 I I #
face $-1 $251 $252 $17 $-1 $253 reversed single #
plane-surface $-1 0 7 0 0 -1 0 0 0 -1 forward_v I I I I #
coedge $-1 $153 $214 $154 $209 forward $105 $-1 #
coedge $-1 $254 $255 $153 $206 forward $256 $-1 #
edge $-1 $216 -3.1415926535897931 $213 -1.5707963267948966 $205 $171 forward 7 unknown #
coedge $-1 $155 $154 $257 $258 reversed $73 $-1 #
coedge $-1 $259 $260 $261 $209 forward $262 $-1 #
edge $-1 $263 -50 $213 0 $208 $264 forward 7 unknown #
coedge $-1 $211 $156 $265 $230 forward $212 $-1 #
coedge $-1 $156 $210 $259 $266 forward $212 $-1 #
loop $-1 $-1 $156 $267 #
vertex $-1 $268 $269 #
coedge $-1 $204 $158 $270 $271 reversed $105 $-1 #
coedge $-1 $272 $273 $274 $159 forward $252 $-1 #
vertex $-1 $275 $276 #
straight-curve $-1 -7 0 -25 0 0 -1 I I #
coedge $-1 $277 $274 $161 $219 reversed $278 $-1 #
edge $-1 $243 -7 $163 0 $218 $279 forward 7 unknown #
face $-1 $235 $162 $17 $-1 $280 forward single #
edge $-1 $163 0 $281 7 $273 $279 forward 7 unknown #
point $-1 -7 0 25 #
coedge $-1 $282 $165 $168 $228 reversed $151 $-1 #
coedge $-1 $165 $282 $172 $232 reversed $151 $-1 #
coedge $-1 $283 $265 $155 $166 reversed $284 $-1 #
straight-curve $-1 7 0 -25 0 0 -1 I I #
coedge $-1 $180 $285 $167 $184 reversed $242 $-1 #
edge $-1 $245 -7 $170 0 $223 $286 forward 7 unknown #
face $-1 $287 $169 $17 $-1 $288 reversed single #
edge $-1 $170 0 $289 7 $265 $286 forward 7 unknown #
point $-1 7 0 -25 #
edge $-1 $175 0 $290 7 $224 $291 forward 7 unknown #
coedge $-1 $285 $180 $173 $234 reversed $242 $-1 #
edge $-1 $290 -7 $117 2.6244062631887405e-032 $233 $244 forward 7 unknown #
face $-1 $292 $174 $17 $-1 $280 forward single #
point $-1 7 0 25 #
coedge $-1 $238 $176 $293 $275 forward $239 $-1 #
coedge $-1 $176 $237 $178 $241 forward $239 $-1 #
loop $-1 $-1 $176 $287 #
coedge $-1 $179 $178 $277 $294 reversed $181 $-1 #
edge $-1 $295 -7 $118 -2.6244062631887405e-032 $178 $246 forward 7 unknown #
loop $-1 $-1 $180 $296 #
vertex $-1 $182 $297 #
straight-curve $-1 0 7 25 -1 0 0 I I #
vertex $-1 $228 $298 #
straight-curve $-1 0 7 -25 1 0 0 I I #
straight-curve $-1 -7 7 0 0 0 -1 I I #
point $-1 -7 -7 -25 #
straight-curve $-1 -7 0 -25 0 1 0 I I #
point $-1 -7 7 -25 #
face $-1 $220 $299 $17 $-1 $280 forward single #
loop $-1 $-1 $215 $202 #
plane-surface $-1 -7 0 0 1 0 0 0 0 -1 forward_v I I I I #
coedge $-1 $255 $205 $300 $268 forward $256 $-1 #
coedge $-1 $205 $254 $272 $301 forward $256 $-1 #
loop $-1 $-1 $205 $302 #
coedge $-1 $303 $304 $207 $258 forward $305 $-1 #
edge $-1 $175 0 $263 1.5707963267948966 $257 $164 forward 7 unknown #
coedge $-1 $306 $208 $211 $266 reversed $262 $-1 #
coedge $-1 $208 $306 $303 $307 reversed $262 $-1 #
coedge $-1 $308 $300 $204 $209 reversed $309 $-1 #
loop $-1 $-1 $208 $310 #
vertex $-1 $307 $311 #
straight-curve $-1 -2.6244062631887405e-032 -7 -25 0 0 -1 I I #
coedge $-1 $225 $312 $210 $230 reversed $284 $-1 #
edge $-1 $289 -7 $213 2.6244062631887405e-032 $259 $313 forward 7 unknown #
face $-1 $229 $212 $17 $-1 $288 reversed single #
edge $-1 $213 2.6244062631887405e-032 $314 7 $300 $313 forward 7 unknown #
point $-1 -2.6244062631887405e-032 -7 -25 #
coedge $-1 $315 $316 $214 $271 forward $299 $-1 #
edge $-1 $263 1.5707963267948966 $163 3.1415926535897931 $270 $164 forward 7 unknown #
coedge $-1 $317 $215 $255 $301 reversed $252 $-1 #
coedge $-1 $215 $317 $315 $221 reversed $252 $-1 #
coedge $-1 $218 $293 $107 $159 reversed $278 $-1 #
edge $-1 $216 0 $295 7 $293 $318 forward 7 unknown #
point $-1 -7 0 -25 #
coedge $-1 $293 $218 $240 $294 forward $278 $-1 #
loop $-1 $-1 $274 $319 #
straight-curve $-1 -7 0 25 0 -1 0 I I #
plane-surface $-1 0 0 25 0 0 1 1 0 0 forward_v I I I I #
vertex $-1 $221 $320 #
coedge $-1 $224 $223 $285 $321 reversed $151 $-1 #
coedge $-1 $312 $225 $304 $322 reversed $284 $-1 #
loop $-1 $-1 $225 $323 #
coedge $-1 $227 $233 $282 $321 forward $242 $-1 #
straight-curve $-1 7 0 -25 0 -1 0 I I #
face $-1 $324 $239 $17 $-1 $288 reversed single #
plane-surface $-1 0 0 -25 0 0 1 1 0 0 forward_v I I I I #
vertex $-1 $325 $326 #
vertex $-1 $232 $327 #
straight-curve $-1 7 0 25 0 1 0 I I #
face $-1 $310 $305 $17 $-1 $280 forward single #
coedge $-1 $274 $277 $237 $275 reversed $278 $-1 #
edge $-1 $243 -25 $295 25 $240 $328 forward 7 unknown #
vertex $-1 $241 $329 #
face $-1 $323 $242 $17 $-1 $203 reversed single #
point $-1 -7 7 25 #
point $-1 7 7 -25 #
loop $-1 $-1 $270 $251 #
coedge $-1 $261 $330 $254 $268 reversed $309 $-1 #
edge $-1 $314 -7 $216 0 $272 $318 forward 7 unknown #
face $-1 $267 $256 $17 $-1 $288 reversed single #
coedge $-1 $304 $257 $260 $307 forward $305 $-1 #
coedge $-1 $257 $303 $283 $322 forward $305 $-1 #
loop $-1 $-1 $257 $292 #
coedge $-1 $260 $259 $312 $325 reversed $262 $-1 #
edge $-1 $263 -2.6244062631887405e-032 $331 7 $260 $332 forward 7 unknown #
coedge $-1 $330 $261 $316 $333 reversed $309 $-1 #
loop $-1 $-1 $261 $324 #
face $-1 $302 $262 $17 $-1 $334 reversed single #
point $-1 -2.6244062631887405e-032 -7 25 #
coedge $-1 $265 $283 $306 $325 forward $284 $-1 #
straight-curve $-1 0 -7 -25 -1 0 0 I I #
vertex $-1 $301 $335 #
coedge $-1 $316 $270 $273 $221 forward $299 $-1 #
coedge $-1 $270 $315 $308 $333 forward $299 $-1 #
coedge $-1 $273 $272 $330 $336 reversed $252 $-1 #
straight-curve $-1 -7 0 -25 0 1 0 I I #
face $-1 $296 $278 $17 $-1 $253 reversed single #
point $-1 -7 -7 25 #
edge $-1 $290 -25 $245 25 $282 $337 forward 7 unknown #
edge $-1 $331 -7 $175 0 $283 $291 forward 7 unknown #
face $-1 $-1 $284 $17 $-1 $152 reversed single #
face $-1 $319 $309 $17 $-1 $334 reversed single #
edge $-1 $331 -25 $289 25 $312 $338 forward 7 unknown #
point $-1 7 -7 -25 #
point $-1 7 7 25 #
straight-curve $-1 -7 7 0 0 0 -1 I I #
point $-1 -7 7 -25 #
coedge $-1 $300 $308 $317 $336 forward $309 $-1 #
vertex $-1 $322 $339 #
straight-curve $-1 0 -7 25 1 0 0 I I #
edge $-1 $281 -7 $263 -2.6244062631887405e-032 $308 $332 forward 7 unknown #
plane-surface $-1 0 -7 0 0 1 0 0 0 1 forward_v I I I I #
point $-1 -7 -7 -25 #
edge $-1 $281 -25 $314 25 $317 $340 forward 7 unknown #
straight-curve $-1 7 7 0 0 0 -1 I I #
straight-curve $-1 7 -7 0 0 0 -1 I I #
point $-1 7 -7 25 #
straight-curve $-1 -7 -7 0 0 0 -1 I I #
End-of-ACIS-data 