600 0 1 0           
81 GICL ACIS Healer - Source: /gicl/data5/repository/UMD/tmp/rbhole/rbhole.sat - 6 0 18 ACIS 6.0.3 Solaris 24 Sun Apr 14 00:33:48 2002 
1 9.999999999999999547e-07 1.000000000000000036e-10 
body $-1 $1 $-1 $-1 #
lump $-1 $-1 $2 $0 #
shell $-1 $-1 $-1 $3 $-1 $1 #
face $-1 $4 $5 $2 $-1 $6 forward single #
face $-1 $7 $8 $2 $-1 $9 forward single #
loop $-1 $10 $11 $3 #
torus-surface $-1 0 0 -22.5 0 0 -1 4.5 2.5 -1 0 0 forward_v I I I I #
face $-1 $12 $13 $2 $-1 $14 forward single #
loop $-1 $15 $16 $4 #
cone-surface $-1 0 0 0 0 0 1 7 0 0 1 I I 0 1 7 forward I I I I #
loop $-1 $-1 $17 $3 #
coedge $-1 $11 $11 $18 $19 forward $5 $-1 #
face $-1 $-1 $20 $2 $-1 $21 forward single #
loop $-1 $-1 $22 $7 #
plane-surface $-1 0 0 -25 0 0 -1 -1 0 0 forward_v I I I I #
loop $-1 $-1 $18 $4 #
coedge $-1 $16 $16 $23 $24 reversed $8 $-1 #
coedge $-1 $17 $17 $22 $25 forward $10 $-1 #
coedge $-1 $18 $18 $11 $19 reversed $15 $-1 #
edge $-1 $26 -3.141592653589799777 $26 3.141592653589786455 $18 $27 forward 7 unknown #
loop $-1 $-1 $23 $12 #
plane-surface $-1 0 0 25 0 0 1 1 0 0 forward_v I I I I #
coedge $-1 $22 $22 $17 $25 reversed $13 $-1 #
coedge $-1 $23 $23 $16 $24 forward $20 $-1 #
edge $-1 $28 0 $28 6.283185307179586232 $23 $29 forward 7 unknown #
edge $-1 $30 -3.141592653589786455 $30 3.141592653589799777 $22 $31 forward 7 unknown #
vertex $-1 $19 $32 #
ellipse-curve $-1 0 0 -22.5 0 0 -1 7 0 0 1 I I #
vertex $-1 $24 $33 #
ellipse-curve $-1 0 0 25 0 0 1 7 0 0 1 I I #
vertex $-1 $25 $34 #
ellipse-curve $-1 0 0 -25 -0 -0 1 4.5 0 0 1 I I #
point $-1 -7 -4.888073874380389853e-14 -22.5 #
point $-1 7 0 25 #
point $-1 -4.5 -3.14233320495882002e-14 -25 #
End-of-ACIS-data 