106 0 1 0           
body $-1 $1 $-1 $2 #
lump $-1 $-1 $3 $0 #
transform $-1 0.70710678118654746 0 0.70710678118654746 0.70710678118654746 0 -0.70710678118654746 0 1 0 -3.0052 5.0150 4.1302 1 0 0 0 #
shell $-1 $-1 $-1 $4 $1 #
face $-1 $5 $6 $3 $-1 $7 forward single #
face $-1 $8 $9 $3 $-1 $10 forward single #
loop $-1 $-1 $11 $4 #
plane-surface $-1 0 0 0.5789999999999999591 0 0 1 1 0 0 0 I I I I #
face $-1 $12 $13 $3 $-1 $14 forward single #
loop $-1 $15 $16 $5 #
plane-surface $-1 0 0 0 0 0 1 1 0 0 0 I I I I #
coedge $-1 $11 $11 $17 $18 0 $6 $-1 #
face $-1 $19 $20 $3 $-1 $21 forward single #
loop $-1 $22 $23 $8 #
plane-surface $-1 0 0 -0.6720000000000000417 0 0 1 1 0 0 0 I I I I #
loop $-1 $-1 $24 $5 #
coedge $-1 $16 $16 $25 $26 0 $9 $-1 #
coedge $-1 $17 $17 $11 $18 1 $27 $-1 #
edge $-1 $28 $28 $17 $29 0 #
face $-1 $30 $31 $3 $-1 $32 reversed single #
loop $-1 $33 $34 $12 #
plane-surface $-1 0 0 -1.139999999999999902 0 0 1 1 0 0 0 I I I I #
loop $-1 $-1 $35 $8 #
coedge $-1 $23 $23 $36 $37 0 $13 $-1 #
coedge $-1 $24 $24 $38 $39 0 $15 $-1 #
coedge $-1 $25 $25 $16 $26 1 $40 $-1 #
edge $-1 $41 $41 $16 $42 0 #
loop $-1 $-1 $17 $30 #
vertex $-1 $18 $43 #
ellipse-curve $-1 0 0 0.5789999999999999591 0 0 1 0.06500000000000000222 0 0 1 I I #
face $-1 $44 $45 $3 $-1 $46 forward single #
loop $-1 $-1 $47 $19 #
plane-surface $-1 0 0 -1.185999999999999943 0 0 1 1 0 0 0 I I I I #
loop $-1 $-1 $48 $12 #
coedge $-1 $34 $34 $49 $50 0 $20 $-1 #
coedge $-1 $35 $35 $51 $52 0 $22 $-1 #
coedge $-1 $36 $36 $23 $37 1 $53 $-1 #
edge $-1 $54 $54 $23 $55 0 #
coedge $-1 $38 $38 $24 $39 1 $56 $-1 #
edge $-1 $57 $57 $38 $58 0 #
loop $-1 $59 $25 $60 #
vertex $-1 $26 $61 #
ellipse-curve $-1 0 0 0 0 0 -1 0.09500000000000000111 0 0 1 I I #
point $-1 0.06500000000000000222 0 0.5789999999999999591 #
face $-1 $62 $63 $3 $-1 $64 forward single #
loop $-1 $27 $65 $30 #
cone-surface $-1 0 0 0.5190000000000000169 0 0 -1 0.125 0 0 1 I I 0.7071067811865470176 0.7071067811865480168 0 I I I I #
coedge $-1 $47 $47 $66 $67 0 $31 $-1 #
coedge $-1 $48 $48 $68 $69 0 $33 $-1 #
coedge $-1 $49 $49 $34 $50 1 $70 $-1 #
edge $-1 $71 $71 $34 $72 0 #
coedge $-1 $51 $51 $35 $52 1 $73 $-1 #
edge $-1 $74 $74 $51 $75 0 #
loop $-1 $56 $36 $76 #
vertex $-1 $37 $77 #
ellipse-curve $-1 0 0 -0.6720000000000000417 0 0 -1 0.1875 0 0 1 I I #
loop $-1 $-1 $38 $76 #
vertex $-1 $39 $78 #
ellipse-curve $-1 0 0 0 0 0 1 0.1875 0 0 1 I I #
loop $-1 $-1 $79 $60 #
face $-1 $76 $40 $3 $-1 $80 forward single #
point $-1 -0.09500000000000000111 0 0 #
face $-1 $60 $81 $3 $-1 $82 forward single #
loop $-1 $83 $84 $44 #
cone-surface $-1 0 0 -1.274250000000000105 0 0 1 -0.125 0 0 1 I I 0 1 0 I I I I #
coedge $-1 $65 $65 $85 $86 0 $45 $-1 #
coedge $-1 $66 $66 $47 $67 1 $87 $-1 #
edge $-1 $88 $88 $47 $89 0 #
coedge $-1 $68 $68 $48 $69 1 $90 $-1 #
edge $-1 $91 $91 $68 $92 0 #
loop $-1 $73 $49 $93 #
vertex $-1 $50 $94 #
ellipse-curve $-1 0 0 -1.139999999999999902 0 0 -1 0.2184999999999999998 0 0 1 I I #
loop $-1 $-1 $51 $93 #
vertex $-1 $52 $95 #
ellipse-curve $-1 0 0 -0.6720000000000000417 0 0 1 0.2184999999999999998 0 0 1 I I #
face $-1 $93 $53 $3 $-1 $96 forward single #
point $-1 -0.1875 0 -0.6720000000000000417 #
point $-1 0.1875 0 0 #
coedge $-1 $79 $79 $97 $98 1 $59 $-1 #
cone-surface $-1 0 0 -1.274250000000000105 0 0 1 -0.09500000000000000111 0 0 1 I I 0 1 0 I I I I #
loop $-1 $99 $97 $62 #
cone-surface $-1 0 0 0.08000000000000000167 0 0 1 0.125 0 0 1 I I 0.7071067811865470176 0.7071067811865480168 0 I I I I #
loop $-1 $-1 $85 $44 #
coedge $-1 $84 $84 $100 $101 0 $63 $-1 #
coedge $-1 $85 $85 $65 $86 1 $83 $-1 #
edge $-1 $102 $102 $85 $103 0 #
loop $-1 $104 $66 $105 #
vertex $-1 $67 $106 #
ellipse-curve $-1 0 0 -1.185999999999999943 0 0 -1 0.2344999999999999862 0 0 1 I I #
loop $-1 $-1 $68 $107 #
vertex $-1 $69 $108 #
ellipse-curve $-1 0 0 -1.139999999999999902 0 0 1 0.2655000000000000138 0 0 1 I I #
face $-1 $107 $70 $3 $-1 $109 forward single #
point $-1 -0.2184999999999999998 0 -1.139999999999999902 #
point $-1 0.2184999999999999998 0 -0.6720000000000000417 #
cone-surface $-1 0 0 -1.274250000000000105 0 0 1 -0.1875 0 0 1 I I 0 1 0 I I I I #
coedge $-1 $97 $97 $79 $98 0 $81 $-1 #
edge $-1 $110 $110 $79 $111 0 #
loop $-1 $-1 $100 $62 #
coedge $-1 $100 $100 $84 $101 1 $99 $-1 #
edge $-1 $112 $112 $100 $113 0 #
vertex $-1 $86 $114 #
ellipse-curve $-1 0 0 0.5190000000000000169 0 0 1 0.125 0 0 1 I I #
loop $-1 $-1 $115 $105 #
face $-1 $-1 $87 $3 $-1 $116 forward single #
point $-1 -0.2344999999999999862 0 -1.185999999999999943 #
face $-1 $105 $117 $3 $-1 $118 forward single #
point $-1 0.2655000000000000138 0 -1.139999999999999902 #
cone-surface $-1 0 0 -1.274250000000000105 0 0 1 -0.2184999999999999998 0 0 1 I I 0 1 0 I I I I #
vertex $-1 $98 $119 #
ellipse-curve $-1 0 0 0.05000000000000000278 0 0 1 0.09500000000000000111 0 0 1 I I #
vertex $-1 $101 $120 #
ellipse-curve $-1 0 0 0.08000000000000000167 0 0 1 0.125 0 0 1 I I #
point $-1 -0.125 0 0.5190000000000000169 #
coedge $-1 $115 $115 $121 $122 1 $104 $-1 #
cone-surface $-1 0 0 -1.155000000000000027 0 0 1 0.2655000000000000138 0 0 1 I I 0.707106781186549016 0.7071067811865460184 0 I I I I #
loop $-1 $90 $121 $107 #
cone-surface $-1 0 0 -1.274250000000000105 0 0 1 -0.2655000000000000138 0 0 1 I I 0 1 0 I I I I #
point $-1 -0.09500000000000000111 0 0.05000000000000000278 #
point $-1 -0.125 0 0.08000000000000000167 #
coedge $-1 $121 $121 $115 $122 0 $117 $-1 #
edge $-1 $123 $123 $115 $124 0 #
vertex $-1 $122 $125 #
ellipse-curve $-1 0 0 -1.155000000000000027 0 0 1 0.2655000000000000138 0 0 1 I I #
point $-1 -0.2655000000000000138 0 -1.155000000000000027 #
End-of-ACIS-data 