**ABCDEFGHIJKLMNOPQRSTUVWXYZabcdefghijklmnopqrstuvwxyz**************************
**PARASOLID !"#$%&'()*+,-./:;<=>?@[\]^_`{|}~0123456789**************************
**PART1;MC=sun;MC_MODEL=sun3;MC_ID=cosmos;OS=SunOS;OS_RELEASE=4.1;FRU=sdl_paraso
lid_test_sun;APPL=unknown;SITE=sdl-cambridge-u.k.;USER=kramer;FORMAT=text;GUISE=
transmit;KEY=cones2_cylinders2;FILE=cones2_cylinders2.xmt_txt;DATE=2-dec-1991;
**PART2;SCH=SCH_301017_3000;USFLD_SIZE=0;
**PART3;
**END_OF_HEADER*****************************************************************
T50 : TRANSMIT FILE created by modeller version 30101715 SCH_301017_30000 12 1 5
7 0 0 0 0 0 1e3 1e-8 2 2 0 0 3 1 4 102 17 2 cones2_cylinders213 4 43 0 1 0 5 6 7
 8 9 10 14 5 33 0 11 0 12 4 8 +16 6 6 0 13 0 14 9 18 7 3 0 15 0 0 10 52 8 38 0 5
 16 0 0 +0 0 5 0 0 -1 3 .447213595499958 .894427190999916 -1 0 0 31 9 10 0 6 17
 0 0 +0 0 0 0 0 -1 -1 0 0 4 29 10 5 0 7 0 0 0 0 -5 31 17 26 0 14 18 9 0 +0 0 3 0
 0 -1 -1 0 0 4 16 14 21 0 19 6 20 17 31 18 56 0 20 21 17 0 +0 0 5 0 0 1 1 0 0 3
 16 20 51 0 22 14 23 18 31 21 57 0 23 0 18 0 +0 0 6 0 0 -1 -1 0 0 3 16 23 52 0 2
4 20 0 21 17 24 25 24 24 0 26 23 15 25 50 0 24 27 0 17 26 28 26 26 0 24 23 15 28
 47 0 26 29 0 14 29 46 0 27 30 28 4 31 +14 27 48 0 0 29 32 4 33 +14 30 18 0 29 1
1 34 4 35 +50 31 55 0 29 0 33 0 +0 0 6 0 0 1 1 0 0 51 33 53 0 27 31 35 0 +0 0 6
 0 0 -1 3 -1 0 0 51 35 23 0 30 33 16 0 +0 0 0 0 0 1 4 1 0 0 52 16 12 0 11 35 8 0
 +0 0 -5 0 0 1 0 .624695047554424 .78086880944303 1 0 0 14 11 1 0 30 5 36 4 16 +
15 36 7 0 13 11 37 17 13 36 13 13 0 38 6 15 37 4 0 15 11 0 17 15 37 15 15 7 0 0
 17 38 39 38 38 0 13 6 15 39 20 0 38 30 0 15 34 19 0 19 30 39 17 19 34 19 19 0 4
0 14 17 40 12 40 40 0 19 14 15 12 34 0 40 5 41 15 41 35 0 42 5 0 17 42 41 42 42
 0 22 20 17 22 32 22 22 0 42 20 15 32 49 0 22 27 25 1 0 
