106 0 1 0           
body $-1 $1 $-1 $-1 #
lump $-1 $-1 $2 $0 #
shell $-1 $-1 $-1 $3 $1 #
face $-1 $4 $5 $2 $-1 $6 reversed single #
face $-1 $7 $8 $2 $-1 $6 reversed single #
loop $-1 $-1 $9 $3 #
cone-surface $-1 0 0 0 0 0 1 80 0 0 1 I I 0 1 0 I I I I #
face $-1 $10 $11 $2 $-1 $12 forward single #
loop $-1 $-1 $13 $4 #
coedge $-1 $14 $15 $16 $17 1 $5 $-1 #
face $-1 $18 $19 $2 $-1 $20 reversed single #
loop $-1 $21 $22 $7 #
cone-surface $-1 0 0 0 0 0 1 90 0 0 1 I I 0 1 0 I I I I #
coedge $-1 $23 $24 $25 $26 1 $8 $-1 #
coedge $-1 $27 $9 $28 $29 1 $5 $-1 #
coedge $-1 $9 $27 $30 $31 1 $5 $-1 #
coedge $-1 $32 $33 $9 $17 0 $34 $-1 #
edge $-1 $35 $36 $16 $37 1 #
face $-1 $38 $39 $2 $-1 $40 reversed single #
loop $-1 $41 $42 $10 #
cone-surface $-1 0 -60 0 0 0 1 10 0 0 1 I I 0 1 0 I I I I #
loop $-1 $-1 $43 $7 #
coedge $-1 $22 $22 $44 $45 1 $11 $-1 #
coedge $-1 $46 $13 $47 $48 1 $8 $-1 #
coedge $-1 $13 $46 $49 $50 1 $8 $-1 #
coedge $-1 $51 $52 $13 $26 0 $53 $-1 #
edge $-1 $54 $55 $25 $56 1 #
coedge $-1 $15 $14 $57 $58 1 $5 $-1 #
coedge $-1 $59 $60 $14 $29 0 $61 $-1 #
edge $-1 $62 $35 $28 $63 0 #
coedge $-1 $64 $65 $15 $31 0 $66 $-1 #
edge $-1 $36 $67 $30 $68 1 #
coedge $-1 $69 $16 $65 $70 0 $34 $-1 #
coedge $-1 $16 $69 $59 $71 1 $34 $-1 #
loop $-1 $-1 $69 $72 #
vertex $-1 $71 $73 #
vertex $-1 $31 $74 #
straight-curve $-1 -79.372539331937716 10 0 0 0 1 I I #
face $-1 $75 $76 $2 $-1 $77 reversed single #
loop $-1 $-1 $78 $18 #
cone-surface $-1 0 0 10 0 0 1 60 0 0 1 I I 0 1 0 I I I I #
loop $-1 $-1 $79 $10 #
coedge $-1 $80 $81 $82 $83 1 $19 $-1 #
coedge $-1 $43 $43 $84 $85 1 $21 $-1 #
coedge $-1 $44 $44 $22 $45 0 $86 $-1 #
edge $-1 $87 $87 $44 $88 0 #
coedge $-1 $24 $23 $89 $90 1 $8 $-1 #
coedge $-1 $91 $92 $23 $48 0 $66 $-1 #
edge $-1 $93 $54 $47 $68 1 #
coedge $-1 $94 $95 $24 $50 0 $61 $-1 #
edge $-1 $55 $96 $49 $63 0 #
coedge $-1 $97 $25 $95 $98 1 $53 $-1 #
coedge $-1 $25 $97 $91 $99 0 $53 $-1 #
loop $-1 $-1 $25 $100 #
vertex $-1 $48 $101 #
vertex $-1 $98 $102 #
straight-curve $-1 79.372539331937716 10 0 0 0 -1 I I #
coedge $-1 $103 $104 $27 $58 0 $105 $-1 #
edge $-1 $67 $62 $57 $106 1 #
coedge $-1 $107 $28 $33 $71 0 $61 $-1 #
coedge $-1 $28 $108 $103 $109 0 $61 $-1 #
loop $-1 $-1 $110 $111 #
vertex $-1 $58 $112 #
ellipse-curve $-1 0 0 20 0 0 -1 80 0 0 1 I I #
coedge $-1 $113 $30 $104 $114 1 $66 $-1 #
coedge $-1 $30 $115 $32 $70 1 $66 $-1 #
loop $-1 $-1 $116 $75 #
vertex $-1 $31 $117 #
ellipse-curve $-1 0 0 0 0 0 -1 80 0 0 1 I I #
coedge $-1 $33 $32 $118 $119 1 $34 $-1 #
edge $-1 $36 $120 $32 $121 0 #
edge $-1 $35 $122 $59 $123 0 #
face $-1 $124 $34 $2 $-1 $125 forward single #
point $-1 -79.372539331937716 10 20 #
point $-1 -79.372539331937716 10 0 #
face $-1 $126 $66 $2 $-1 $127 reversed single #
loop $-1 $128 $129 $38 #
cone-surface $-1 0 60 0 0 0 1 10 0 0 1 I I 0 1 0 I I I I #
coedge $-1 $130 $131 $132 $133 0 $39 $-1 #
coedge $-1 $79 $79 $134 $135 1 $41 $-1 #
coedge $-1 $132 $42 $116 $136 1 $19 $-1 #
coedge $-1 $42 $132 $137 $138 1 $19 $-1 #
coedge $-1 $139 $140 $42 $83 0 $141 $-1 #
edge $-1 $142 $143 $82 $144 0 #
coedge $-1 $84 $84 $43 $85 0 $145 $-1 #
edge $-1 $146 $146 $84 $147 0 #
loop $-1 $148 $44 $149 #
vertex $-1 $45 $150 #
ellipse-curve $-1 0 0 -20 0 0 -1 90 0 0 1 I I #
coedge $-1 $151 $152 $46 $90 0 $153 $-1 #
edge $-1 $96 $93 $89 $154 1 #
coedge $-1 $155 $47 $52 $99 1 $66 $-1 #
coedge $-1 $47 $156 $151 $157 1 $66 $-1 #
vertex $-1 $48 $158 #
coedge $-1 $159 $49 $152 $160 0 $61 $-1 #
coedge $-1 $49 $161 $51 $98 0 $61 $-1 #
vertex $-1 $160 $162 #
coedge $-1 $52 $51 $163 $164 1 $53 $-1 #
edge $-1 $165 $55 $95 $123 0 #
edge $-1 $166 $54 $52 $121 0 #
face $-1 $167 $53 $2 $-1 $125 forward single #
point $-1 79.372539331937716 10 0 #
point $-1 79.372539331937716 10 20 #
coedge $-1 $168 $57 $60 $109 1 $105 $-1 #
coedge $-1 $57 $168 $64 $114 0 $105 $-1 #
loop $-1 $-1 $168 $124 #
straight-curve $-1 -79.372539331937716 -10 0 0 0 -1 I I #
coedge $-1 $110 $59 $169 $170 0 $61 $-1 #
coedge $-1 $60 $137 $131 $171 0 $61 $-1 #
edge $-1 $172 $62 $60 $173 0 #
coedge $-1 $161 $107 $174 $175 0 $61 $-1 #
face $-1 $-1 $145 $2 $-1 $176 forward single #
point $-1 -79.372539331937716 -10 20 #
coedge $-1 $116 $64 $130 $177 1 $66 $-1 #
edge $-1 $178 $67 $104 $179 0 #
coedge $-1 $65 $180 $181 $182 1 $66 $-1 #
coedge $-1 $156 $113 $80 $136 0 $66 $-1 #
point $-1 -79.372539331937716 -10 0 #
coedge $-1 $181 $169 $69 $119 0 $183 $-1 #
edge $-1 $122 $120 $118 $184 0 #
vertex $-1 $70 $185 #
straight-curve $-1 0 10 0 1 0 0 I I #
vertex $-1 $71 $186 #
straight-curve $-1 0 10 20 1 0 0 I I #
face $-1 $187 $105 $2 $-1 $188 forward single #
plane-surface $-1 0 10 10 0 -1 0 0 0 -1 0 I I I I #
face $-1 $189 $183 $2 $-1 $40 reversed single #
plane-surface $-1 0 0 0 0 0 -1 -1 0 0 0 I I I I #
loop $-1 $-1 $190 $38 #
coedge $-1 $174 $191 $192 $193 1 $76 $-1 #
coedge $-1 $194 $78 $113 $177 0 $39 $-1 #
coedge $-1 $78 $194 $108 $171 1 $39 $-1 #
coedge $-1 $81 $80 $78 $133 1 $19 $-1 #
edge $-1 $195 $196 $78 $197 0 #
coedge $-1 $134 $134 $79 $135 0 $148 $-1 #
edge $-1 $198 $198 $134 $199 0 #
edge $-1 $196 $142 $116 $200 0 #
coedge $-1 $108 $159 $81 $138 0 $61 $-1 #
edge $-1 $143 $195 $137 $201 0 #
coedge $-1 $202 $82 $159 $203 1 $141 $-1 #
coedge $-1 $82 $202 $156 $204 0 $141 $-1 #
loop $-1 $-1 $82 $167 #
vertex $-1 $204 $205 #
vertex $-1 $203 $206 #
straight-curve $-1 9.9652172859178325 -59.166666666666671 0 0 0 1 I I #
loop $-1 $61 $84 $111 #
vertex $-1 $85 $207 #
ellipse-curve $-1 0 0 20 0 0 1 90 0 0 1 I I #
loop $-1 $208 $134 $149 #
face $-1 $111 $86 $2 $-1 $209 forward single #
point $-1 90 0 -20 #
coedge $-1 $210 $89 $92 $157 0 $153 $-1 #
coedge $-1 $89 $210 $94 $160 1 $153 $-1 #
loop $-1 $-1 $89 $187 #
straight-curve $-1 79.372539331937716 -10 0 0 0 1 I I #
coedge $-1 $180 $91 $211 $212 1 $66 $-1 #
coedge $-1 $92 $116 $140 $204 1 $66 $-1 #
edge $-1 $93 $213 $151 $179 0 #
point $-1 79.372539331937716 -10 0 #
coedge $-1 $137 $94 $139 $203 0 $61 $-1 #
edge $-1 $96 $214 $94 $173 0 #
coedge $-1 $95 $110 $215 $216 0 $61 $-1 #
point $-1 79.372539331937716 -10 20 #
coedge $-1 $215 $211 $97 $164 0 $217 $-1 #
edge $-1 $166 $165 $163 $218 0 #
vertex $-1 $216 $219 #
vertex $-1 $212 $220 #
face $-1 $149 $141 $2 $-1 $40 reversed single #
coedge $-1 $104 $103 $194 $221 1 $105 $-1 #
coedge $-1 $118 $222 $107 $170 1 $183 $-1 #
edge $-1 $122 $223 $107 $224 0 #
edge $-1 $195 $172 $108 $224 0 #
vertex $-1 $171 $225 #
straight-curve $-1 0 -10 20 -1 0 0 I I #
coedge $-1 $226 $129 $110 $175 1 $76 $-1 #
edge $-1 $223 $227 $110 $228 0 #
plane-surface $-1 0 0 20 0 0 1 1 0 0 0 I I I I #
edge $-1 $196 $178 $113 $229 0 #
vertex $-1 $177 $230 #
straight-curve $-1 0 -10 0 -1 0 0 I I #
coedge $-1 $115 $155 $191 $231 0 $66 $-1 #
coedge $-1 $222 $118 $115 $182 0 $183 $-1 #
edge $-1 $120 $232 $115 $229 0 #
loop $-1 $-1 $222 $126 #
straight-curve $-1 -59.16079783099616 10 10 0 0 -1 I I #
point $-1 -59.16079783099616 10 0 #
point $-1 -59.16079783099616 10 20 #
face $-1 $100 $153 $2 $-1 $188 forward single #
plane-surface $-1 0 -10 10 0 1 0 0 0 1 0 I I I I #
face $-1 $72 $217 $2 $-1 $40 reversed single #
coedge $-1 $190 $190 $233 $234 1 $128 $-1 #
coedge $-1 $129 $226 $180 $231 1 $76 $-1 #
coedge $-1 $211 $215 $129 $193 0 $217 $-1 #
edge $-1 $227 $235 $192 $236 0 #
coedge $-1 $131 $130 $168 $221 0 $39 $-1 #
vertex $-1 $133 $237 #
vertex $-1 $136 $238 #
straight-curve $-1 -9.9652172859178325 -59.166666666666671 0 0 0 -1 I I #
vertex $-1 $135 $239 #
ellipse-curve $-1 0 -60 -20 0 0 1 10 0 0 1 I I #
ellipse-curve $-1 0 -60 0 0 0 -1 10 0 0 1 I I #
ellipse-curve $-1 0 -60 20 0 0 -1 10 0 0 1 I I #
coedge $-1 $140 $139 $210 $240 0 $141 $-1 #
edge $-1 $214 $143 $159 $224 0 #
edge $-1 $213 $142 $156 $229 0 #
point $-1 9.9652172859178147 -59.166666666666671 0 #
point $-1 9.9652172859178325 -59.166666666666671 20 #
point $-1 90 0 20 #
loop $-1 $-1 $233 $149 #
plane-surface $-1 0 0 -20 0 0 -1 -1 0 0 0 I I I I #
coedge $-1 $152 $151 $202 $240 1 $153 $-1 #
coedge $-1 $163 $192 $155 $212 0 $217 $-1 #
edge $-1 $235 $166 $155 $229 0 #
vertex $-1 $157 $241 #
vertex $-1 $240 $242 #
coedge $-1 $192 $163 $161 $216 1 $217 $-1 #
edge $-1 $227 $165 $161 $224 0 #
loop $-1 $-1 $192 $189 #
straight-curve $-1 59.16079783099616 10 10 0 0 1 I I #
point $-1 59.16079783099616 10 20 #
point $-1 59.16079783099616 10 0 #
edge $-1 $178 $172 $194 $243 0 #
coedge $-1 $169 $181 $226 $244 0 $183 $-1 #
vertex $-1 $170 $245 #
ellipse-curve $-1 0 0 20 0 0 -1 60 0 0 1 I I #
point $-1 -59.16079783099616 -10 20 #
coedge $-1 $191 $174 $222 $244 1 $76 $-1 #
vertex $-1 $193 $246 #
ellipse-curve $-1 0 60 20 0 0 -1 10 0 0 1 I I #
ellipse-curve $-1 0 0 0 0 0 -1 60 0 0 1 I I #
point $-1 -59.16079783099616 -10 0 #
edge $-1 $235 $232 $180 $247 0 #
vertex $-1 $182 $248 #
coedge $-1 $233 $233 $190 $234 0 $208 $-1 #
edge $-1 $249 $249 $233 $250 0 #
vertex $-1 $231 $251 #
straight-curve $-1 9.9652172859178325 59.166666666666671 0 0 0 -1 I I #
point $-1 -9.9652172859178325 -59.166666666666671 20 #
point $-1 -9.9652172859178147 -59.166666666666671 0 #
point $-1 10 -60 -20 #
edge $-1 $214 $213 $202 $252 0 #
point $-1 59.16079783099616 -10 0 #
point $-1 59.16079783099616 -10 20 #
straight-curve $-1 -59.16079783099616 -10 10 0 0 1 I I #
edge $-1 $232 $223 $222 $253 0 #
point $-1 -9.9652172859178325 59.166666666666671 20 #
point $-1 9.9652172859178325 59.166666666666671 20 #
ellipse-curve $-1 0 60 0 0 0 -1 10 0 0 1 I I #
point $-1 -9.9652172859178147 59.166666666666671 0 #
vertex $-1 $234 $254 #
ellipse-curve $-1 0 60 -20 0 0 1 10 0 0 1 I I #
point $-1 9.9652172859178147 59.166666666666671 0 #
straight-curve $-1 59.16079783099616 -10 10 0 0 -1 I I #
straight-curve $-1 -9.9652172859178325 59.166666666666671 0 0 0 1 I I #
point $-1 10 60 -20 #
End-of-ACIS-data 