700 0 2 0           
24 FBMach with ACIS - 7.0.3 13 ACIS 7.0.3 NT 24 Tue May 14 09:57:02 2002 
1 9.9999999999999995e-007 1e-010 
body $2 -1 $-1 $3 $-1 $4 #
bdycol-kcp $-1 -1 1 5 $5 $6 $7 $8 $9 #
model_id-kcp-attrib $-1 -1 $-1 $-1 $0 1 1021384621 1021384621 1216610305 1 #
lump $-1 -1 $-1 $-1 $10 $0 #
transform $-1 -1 1 0 0 0 1 0 0 0 1 0 0 0 1 rotate no_reflect no_shear #
body $11 -1 $-1 $12 $-1 $13 #
body $14 -1 $-1 $15 $-1 $16 #
body $17 -1 $-1 $18 $-1 $19 #
body $20 -1 $-1 $21 $-1 $22 #
body $23 -1 $-1 $24 $-1 $25 #
shell $-1 -1 $-1 $-1 $-1 $26 $-1 $3 #
model_id-kcp-attrib $-1 -1 $-1 $-1 $5 1 1021384621 1021384621 1216610306 1 #
lump $-1 -1 $-1 $-1 $27 $5 #
transform $-1 -1 1 0 0 0 1 0 0 0 1 0 0 0 1 no_rotate no_reflect no_shear #
rgb_color-st-attrib $-1 -1 $28 $-1 $6 0.5 1 1 #
lump $-1 -1 $-1 $-1 $29 $6 #
transform $-1 -1 1 0 0 0 1 0 0 0 1 0 -60 0 1 no_rotate no_reflect no_shear #
rgb_color-st-attrib $-1 -1 $30 $-1 $7 0.5 1 1 #
lump $-1 -1 $-1 $-1 $31 $7 #
transform $-1 -1 1 0 0 0 1 0 0 0 1 0 60 0 1 no_rotate no_reflect no_shear #
rgb_color-st-attrib $-1 -1 $32 $-1 $8 0.5 1 1 #
lump $-1 -1 $-1 $-1 $33 $8 #
transform $-1 -1 1 0 0 0 1 0 0 0 1 0 0 0 1 no_rotate no_reflect no_shear #
rgb_color-st-attrib $-1 -1 $34 $-1 $9 0 0 1 #
lump $-1 -1 $-1 $-1 $35 $9 #
transform $-1 -1 1 0 0 0 1 0 0 0 1 0 0 0 1 no_rotate no_reflect no_shear #
face $36 -1 $-1 $37 $38 $10 $-1 $39 reversed single #
shell $-1 -1 $-1 $-1 $-1 $40 $-1 $12 #
model_id-kcp-attrib $-1 -1 $-1 $14 $6 1 1021384621 1021384621 1219887107 1 #
shell $-1 -1 $-1 $-1 $-1 $41 $-1 $15 #
model_id-kcp-attrib $-1 -1 $-1 $17 $7 1 1021384621 1021384621 1219887108 1 #
shell $-1 -1 $-1 $-1 $-1 $42 $-1 $18 #
model_id-kcp-attrib $-1 -1 $-1 $20 $8 1 1021384621 1021384622 1208614917 1 #
shell $-1 -1 $-1 $-1 $-1 $43 $-1 $21 #
model_id-kcp-attrib $-1 -1 $-1 $23 $9 1 1021384621 1021384622 1212874758 1 #
shell $-1 -1 $-1 $-1 $-1 $44 $-1 $24 #
model_id-kcp-attrib $-1 -1 $-1 $-1 $26 1 1021384621 1021384621 1216610305 2 #
face $45 -1 $-1 $46 $47 $10 $-1 $39 reversed single #
loop $-1 -1 $-1 $-1 $48 $26 #
cone-surface $-1 -1 $-1 0 0 0 0 0 1 80 0 0 1 I I 0 1 80 forward I I I I #
face $49 -1 $-1 $50 $51 $27 $-1 $52 forward single #
face $-1 -1 $-1 $53 $54 $29 $-1 $55 forward single #
face $-1 -1 $-1 $56 $57 $31 $-1 $58 forward single #
face $-1 -1 $-1 $59 $60 $33 $-1 $61 reversed single #
face $-1 -1 $-1 $62 $63 $35 $-1 $64 forward single #
model_id-kcp-attrib $-1 -1 $-1 $-1 $37 1 1021384621 1021384621 1216610305 3 #
face $65 -1 $-1 $66 $67 $10 $-1 $68 forward single #
loop $-1 -1 $-1 $-1 $69 $37 #
coedge $-1 -1 $-1 $70 $71 $72 $73 reversed $38 $-1 #
model_id-kcp-attrib $-1 -1 $-1 $-1 $40 1 1021384621 1021384621 1216610306 3 #
face $74 -1 $-1 $75 $76 $27 $-1 $77 reversed single #
loop $-1 -1 $-1 $-1 $78 $40 #
plane-surface $-1 -1 $-1 0 0 20 0 0 1 1 0 0 forward_v I I I I #
face $-1 -1 $-1 $79 $80 $29 $-1 $81 forward single #
loop $-1 -1 $-1 $82 $83 $41 #
cone-surface $-1 -1 $-1 0 0 0 0 0 1 10 0 0 1 I I 0 1 10 forward I I I I #
face $-1 -1 $-1 $84 $85 $31 $-1 $86 forward single #
loop $-1 -1 $-1 $87 $88 $42 #
cone-surface $-1 -1 $-1 0 0 0 0 0 1 10 0 0 1 I I 0 1 10 forward I I I I #
face $-1 -1 $-1 $89 $90 $33 $-1 $61 reversed single #
loop $-1 -1 $-1 $-1 $91 $43 #
cone-surface $-1 -1 $-1 -3.3742366240998092e-031 0 -20 0 0 -1 90 0 0 1 I I 0 1 90 forward I I I I #
face $-1 -1 $-1 $92 $93 $35 $-1 $94 forward single #
loop $-1 -1 $-1 $-1 $95 $44 #
plane-surface $-1 -1 $-1 79.372539331937716 -10 0 0 -1 0 0 0 -1 forward_v I I I I #
model_id-kcp-attrib $-1 -1 $-1 $-1 $46 1 1021384621 1021384621 1216610305 4 #
face $96 -1 $-1 $97 $98 $10 $-1 $99 reversed single #
loop $-1 -1 $-1 $100 $101 $46 #
cone-surface $-1 -1 $-1 0 0 0 0 0 1 90 0 0 1 I I 0 1 90 forward I I I I #
coedge $-1 -1 $-1 $102 $103 $104 $105 reversed $47 $-1 #
coedge $-1 -1 $-1 $106 $48 $107 $108 reversed $38 $-1 #
coedge $-1 -1 $-1 $48 $106 $109 $110 reversed $38 $-1 #
coedge $-1 -1 $-1 $111 $112 $48 $73 forward $113 $-1 #
edge $-1 -1 $-1 $114 -20 $115 0 $72 $116 reversed @7 unknown #
model_id-kcp-attrib $-1 -1 $-1 $-1 $50 1 1021384621 1021384621 1216610306 2 #
face $-1 -1 $-1 $117 $118 $27 $-1 $119 reversed single #
loop $-1 -1 $-1 $-1 $120 $50 #
plane-surface $-1 -1 $-1 0 0 -20 0 0 1 1 0 0 forward_v I I I I #
coedge $-1 -1 $-1 $121 $122 $123 $124 forward $51 $-1 #
face $-1 -1 $-1 $-1 $125 $29 $-1 $126 forward single #
loop $-1 -1 $-1 $-1 $127 $53 #
plane-surface $-1 -1 $-1 0 0 -20 0 0 -1 -1 0 0 forward_v I I I I #
loop $-1 -1 $-1 $-1 $128 $41 #
coedge $-1 -1 $-1 $83 $83 $127 $129 reversed $54 $-1 #
face $-1 -1 $-1 $-1 $130 $31 $-1 $131 forward single #
loop $-1 -1 $-1 $-1 $132 $56 #
plane-surface $-1 -1 $-1 0 0 -20 0 0 -1 -1 0 0 forward_v I I I I #
loop $-1 -1 $-1 $-1 $133 $42 #
coedge $-1 -1 $-1 $88 $88 $132 $134 reversed $57 $-1 #
face $-1 -1 $-1 $135 $136 $33 $-1 $61 reversed single #
loop $-1 -1 $-1 $-1 $137 $59 #
coedge $-1 -1 $-1 $138 $139 $140 $141 forward $60 $-1 #
face $-1 -1 $-1 $142 $143 $35 $-1 $144 forward single #
loop $-1 -1 $-1 $-1 $145 $62 #
cone-surface $-1 -1 $-1 0 0 0 0 0 1 60 0 0 1 I I 0 1 60 forward I I I I #
coedge $-1 -1 $-1 $146 $147 $148 $149 forward $63 $-1 #
model_id-kcp-attrib $-1 -1 $-1 $-1 $66 1 1021384621 1021384621 1216610305 5 #
face $150 -1 $-1 $151 $152 $10 $-1 $153 reversed single #
loop $154 -1 $-1 $155 $156 $66 #
cone-surface $-1 -1 $-1 0 -60 0 0 0 1 10 0 0 1 I I 0 1 10 forward I I I I #
loop $-1 -1 $-1 $-1 $157 $46 #
coedge $-1 -1 $-1 $101 $101 $158 $159 reversed $67 $-1 #
coedge $-1 -1 $-1 $160 $69 $161 $162 reversed $47 $-1 #
coedge $-1 -1 $-1 $69 $160 $163 $164 reversed $47 $-1 #
coedge $-1 -1 $-1 $165 $166 $69 $105 forward $167 $-1 #
edge $-1 -1 $-1 $168 0 $169 20 $104 $170 reversed @7 unknown #
coedge $-1 -1 $-1 $71 $70 $171 $172 reversed $38 $-1 #
coedge $-1 -1 $-1 $173 $174 $70 $108 forward $175 $-1 #
edge $-1 -1 $-1 $176 3.0162648224217277 $114 3.2669204847578586 $107 $177 forward @7 unknown #
coedge $-1 -1 $-1 $178 $179 $71 $110 forward $180 $-1 #
edge $181 -1 $-1 $115 -3.2669204847578586 $182 -3.0162648224217277 $109 $183 reversed @7 unknown #
coedge $-1 -1 $-1 $184 $72 $179 $185 forward $113 $-1 #
coedge $-1 -1 $-1 $72 $184 $173 $186 reversed $113 $-1 #
loop $-1 -1 $-1 $-1 $184 $187 #
vertex $-1 -1 $-1 $186 $188 #
vertex $-1 -1 $-1 $110 $189 #
straight-curve $-1 -1 $-1 -79.372539331937716 10 0 0 0 1 I I #
face $-1 -1 $-1 $190 $191 $27 $-1 $192 reversed single #
loop $-1 -1 $-1 $-1 $193 $75 #
plane-surface $-1 -1 $-1 0 -90 0 0 1 0 0 0 1 forward_v I I I I #
coedge $-1 -1 $-1 $194 $195 $196 $197 forward $76 $-1 #
coedge $-1 -1 $-1 $198 $78 $199 $200 forward $51 $-1 #
coedge $-1 -1 $-1 $78 $198 $201 $202 forward $51 $-1 #
coedge $-1 -1 $-1 $203 $204 $78 $124 reversed $205 $-1 #
edge $-1 -1 $-1 $206 -90 $207 90 $123 $208 forward @7 unknown #
loop $-1 -1 $-1 $-1 $209 $79 #
plane-surface $-1 -1 $-1 0 0 20 0 0 1 1 0 0 forward_v I I I I #
coedge $-1 -1 $-1 $127 $127 $83 $129 forward $80 $-1 #
coedge $-1 -1 $-1 $128 $128 $209 $210 reversed $82 $-1 #
edge $-1 -1 $-1 $211 0 $211 6.2831853071795862 $127 $212 forward @7 unknown #
loop $-1 -1 $-1 $-1 $213 $84 #
plane-surface $-1 -1 $-1 0 0 20 0 0 1 1 0 0 forward_v I I I I #
coedge $-1 -1 $-1 $132 $132 $88 $134 forward $85 $-1 #
coedge $-1 -1 $-1 $133 $133 $213 $214 reversed $87 $-1 #
edge $-1 -1 $-1 $215 0 $215 6.2831853071795862 $132 $216 forward @7 unknown #
face $-1 -1 $-1 $217 $218 $33 $-1 $61 reversed single #
loop $-1 -1 $-1 $-1 $219 $89 #
coedge $-1 -1 $-1 $220 $140 $221 $222 reversed $90 $-1 #
coedge $-1 -1 $-1 $223 $91 $224 $225 reversed $60 $-1 #
coedge $-1 -1 $-1 $91 $223 $226 $227 reversed $60 $-1 #
coedge $-1 -1 $-1 $137 $228 $229 $141 reversed $90 $-1 #
edge $-1 -1 $-1 $230 -40 $231 0 $229 $232 forward @7 unknown #
face $-1 -1 $-1 $233 $234 $35 $-1 $235 forward single #
loop $-1 -1 $-1 $-1 $236 $92 #
cone-surface $-1 -1 $-1 0 -60 0 0 0 1 10 0 0 1 I I 0 1 10 forward I I I I #
coedge $-1 -1 $-1 $237 $238 $239 $240 forward $93 $-1 #
coedge $-1 -1 $-1 $241 $95 $238 $242 reversed $63 $-1 #
coedge $-1 -1 $-1 $95 $241 $243 $244 forward $63 $-1 #
coedge $-1 -1 $-1 $245 $239 $95 $149 reversed $246 $-1 #
edge $-1 -1 $-1 $247 -79.372539331937716 $248 -59.16079783099616 $95 $249 forward @7 unknown #
model_id-kcp-attrib $-1 -1 $-1 $-1 $97 1 1021384621 1021384621 1216610305 6 #
face $250 -1 $-1 $251 $252 $10 $-1 $253 reversed single #
loop $254 -1 $-1 $-1 $255 $97 #
cone-surface $-1 -1 $-1 0 0 10 0 0 1 60 0 0 1 I I 0 1 60 forward I I I I #
model_id-kcp-attrib $-1 -1 $-1 $-1 $98 1 1021384621 1021384621 1216610305 20 #
loop $256 -1 $-1 $-1 $257 $66 #
coedge $-1 -1 $-1 $258 $259 $260 $261 reversed $98 $-1 #
coedge $-1 -1 $-1 $157 $157 $262 $263 reversed $100 $-1 #
coedge $-1 -1 $-1 $158 $158 $101 $159 forward $264 $-1 #
edge $265 -1 $-1 $266 0 $266 6.2831853071795862 $158 $267 forward @7 unknown #
coedge $-1 -1 $-1 $103 $102 $268 $269 reversed $47 $-1 #
coedge $-1 -1 $-1 $270 $271 $102 $162 forward $180 $-1 #
edge $272 -1 $-1 $273 -0.1253278311680654 $168 0.1253278311680654 $161 $183 reversed @7 unknown #
coedge $-1 -1 $-1 $274 $275 $103 $164 forward $175 $-1 #
edge $-1 -1 $-1 $169 -0.1253278311680654 $276 0.1253278311680654 $163 $177 forward @7 unknown #
coedge $-1 -1 $-1 $277 $104 $275 $278 reversed $167 $-1 #
coedge $-1 -1 $-1 $104 $277 $270 $279 forward $167 $-1 #
loop $-1 -1 $-1 $-1 $104 $280 #
vertex $-1 -1 $-1 $162 $281 #
vertex $-1 -1 $-1 $278 $282 #
straight-curve $-1 -1 $-1 79.372539331937716 10 0 0 0 -1 I I #
coedge $-1 -1 $-1 $283 $284 $106 $172 forward $285 $-1 #
edge $-1 -1 $-1 $182 0 $176 20 $171 $286 reversed @7 unknown #
coedge $-1 -1 $-1 $287 $107 $112 $186 forward $175 $-1 #
coedge $-1 -1 $-1 $107 $288 $283 $289 forward $175 $-1 #
loop $290 -1 $-1 $-1 $291 $292 #
vertex $-1 -1 $-1 $172 $293 #
ellipse-curve $-1 -1 $-1 0 0 20 0 0 -1 80 0 0 1 I I #
coedge $-1 -1 $-1 $294 $109 $284 $295 reversed $180 $-1 #
coedge $-1 -1 $-1 $109 $296 $111 $185 reversed $180 $-1 #
loop $297 -1 $-1 $-1 $298 $251 #
attrib_edge_convexity-kcp-attrib $-1 -1 $299 $-1 $110 2 #
vertex $-1 -1 $-1 $110 $300 #
ellipse-curve $-1 -1 $-1 0 0 0 0 0 -1 80 0 0 1 I I #
coedge $-1 -1 $-1 $112 $111 $301 $302 reversed $113 $-1 #
edge $303 -1 $-1 $115 -79.372539331937716 $304 -59.16079783099616 $111 $305 forward @7 unknown #
edge $-1 -1 $-1 $114 -79.372539331937716 $306 -59.16079783099616 $173 $307 forward @7 unknown #
face $308 -1 $-1 $309 $113 $10 $-1 $310 forward single #
point $-1 -1 $-1 -79.372539331937716 10 20 #
point $-1 -1 $-1 -79.372539331937716 10 0 #
face $-1 -1 $-1 $311 $312 $27 $-1 $313 reversed single #
loop $-1 -1 $-1 $-1 $314 $117 #
plane-surface $-1 -1 $-1 -90 0 0 1 0 0 0 0 -1 forward_v I I I I #
coedge $-1 -1 $-1 $315 $201 $316 $317 forward $118 $-1 #
coedge $-1 -1 $-1 $318 $120 $315 $319 forward $76 $-1 #
coedge $-1 -1 $-1 $120 $318 $320 $321 forward $76 $-1 #
coedge $-1 -1 $-1 $204 $203 $120 $197 reversed $205 $-1 #
edge $-1 -1 $-1 $322 -90 $323 90 $196 $324 forward @7 unknown #
coedge $-1 -1 $-1 $122 $121 $325 $326 forward $51 $-1 #
coedge $-1 -1 $-1 $327 $328 $121 $200 reversed $312 $-1 #
edge $-1 -1 $-1 $207 -90 $329 90 $199 $330 forward @7 unknown #
coedge $-1 -1 $-1 $193 $331 $122 $202 reversed $118 $-1 #
edge $-1 -1 $-1 $332 -90 $206 90 $201 $333 forward @7 unknown #
coedge $-1 -1 $-1 $196 $123 $331 $334 forward $205 $-1 #
coedge $-1 -1 $-1 $123 $196 $327 $335 reversed $205 $-1 #
loop $-1 -1 $-1 $-1 $203 $311 #
vertex $-1 -1 $-1 $124 $336 #
vertex $-1 -1 $-1 $124 $337 #
straight-curve $-1 -1 $-1 90 0 20 0 1 0 I I #
coedge $-1 -1 $-1 $209 $209 $128 $210 forward $125 $-1 #
edge $-1 -1 $-1 $338 0 $338 6.2831853071795862 $209 $339 forward @7 unknown #
vertex $-1 -1 $-1 $129 $340 #
ellipse-curve $-1 -1 $-1 0 0 -20 0 0 -1 10 0 0 1 I I #
coedge $-1 -1 $-1 $213 $213 $133 $214 forward $130 $-1 #
edge $-1 -1 $-1 $341 0 $341 6.2831853071795862 $213 $342 forward @7 unknown #
vertex $-1 -1 $-1 $134 $343 #
ellipse-curve $-1 -1 $-1 0 0 -20 0 0 -1 10 0 0 1 I I #
face $-1 -1 $-1 $344 $345 $33 $-1 $346 reversed single #
loop $-1 -1 $-1 $-1 $347 $135 #
coedge $-1 -1 $-1 $348 $349 $350 $351 reversed $136 $-1 #
coedge $-1 -1 $-1 $228 $137 $352 $353 forward $90 $-1 #
coedge $-1 -1 $-1 $354 $355 $137 $222 forward $356 $-1 #
edge $-1 -1 $-1 $357 -3.1415926535897931 $230 -1.5707963267948966 $221 $358 forward @7 unknown #
coedge $-1 -1 $-1 $139 $138 $359 $360 reversed $60 $-1 #
coedge $-1 -1 $-1 $361 $362 $138 $225 forward $363 $-1 #
edge $-1 -1 $-1 $364 0 $231 1.5707963267948966 $224 $365 forward @7 unknown #
coedge $-1 -1 $-1 $366 $367 $139 $227 forward $368 $-1 #
edge $-1 -1 $-1 $230 -1.5707963267948966 $369 0 $226 $358 forward @7 unknown #
coedge $-1 -1 $-1 $140 $220 $370 $371 reversed $90 $-1 #
coedge $-1 -1 $-1 $372 $373 $374 $141 forward $375 $-1 #
vertex $-1 -1 $-1 $376 $377 #
vertex $-1 -1 $-1 $378 $379 #
straight-curve $-1 -1 $-1 -3.3742366240998092e-031 90 -20 0 0 -1 I I #
face $-1 -1 $-1 $380 $381 $35 $-1 $382 forward single #
loop $-1 -1 $-1 $-1 $383 $142 #
cone-surface $-1 -1 $-1 0 0 0 0 0 1 60 0 0 1 I I 0 1 60 forward I I I I #
coedge $-1 -1 $-1 $384 $385 $386 $387 forward $143 $-1 #
coedge $-1 -1 $-1 $388 $145 $385 $389 reversed $93 $-1 #
coedge $-1 -1 $-1 $145 $388 $146 $242 forward $93 $-1 #
coedge $-1 -1 $-1 $148 $386 $145 $240 reversed $246 $-1 #
edge $-1 -1 $-1 $248 0.16744807921968935 $390 1.403936153573667 $145 $391 forward @7 unknown #
coedge $-1 -1 $-1 $147 $146 $392 $393 reversed $63 $-1 #
edge $394 -1 $-1 $395 0 $248 20 $238 $396 forward @7 unknown #
coedge $-1 -1 $-1 $397 $398 $147 $244 reversed $399 $-1 #
edge $-1 -1 $-1 $400 0 $247 20 $147 $401 forward @7 unknown #
coedge $-1 -1 $-1 $402 $148 $398 $403 reversed $246 $-1 #
loop $-1 -1 $-1 $-1 $148 $404 #
vertex $-1 -1 $-1 $244 $405 #
vertex $-1 -1 $-1 $242 $406 #
straight-curve $-1 -1 $-1 0 -10 20 -1 0 0 I I #
model_id-kcp-attrib $-1 -1 $-1 $-1 $151 1 1021384621 1021384621 1216610305 7 #
face $407 -1 $-1 $408 $180 $10 $-1 $409 reversed single #
loop $410 -1 $-1 $411 $412 $151 #
cone-surface $-1 -1 $-1 0 60 0 0 0 1 10 0 0 1 I I 0 1 10 forward I I I I #
model_id-kcp-attrib $-1 -1 $-1 $-1 $152 1 1021384621 1021384621 1216610305 24 #
coedge $-1 -1 $-1 $413 $414 $415 $416 forward $152 $-1 #
model_id-kcp-attrib $-1 -1 $-1 $-1 $155 1 1021384621 1021384621 1216610305 21 #
coedge $-1 -1 $-1 $257 $257 $417 $418 reversed $155 $-1 #
coedge $-1 -1 $-1 $415 $156 $298 $419 reversed $98 $-1 #
coedge $-1 -1 $-1 $156 $415 $420 $421 reversed $98 $-1 #
coedge $-1 -1 $-1 $422 $423 $156 $261 forward $424 $-1 #
edge $425 -1 $-1 $426 0 $427 20 $260 $428 forward @7 unknown #
coedge $-1 -1 $-1 $262 $262 $157 $263 forward $429 $-1 #
edge $-1 -1 $-1 $430 0 $430 6.2831853071795862 $262 $431 forward @7 unknown #
loop $-1 -1 $-1 $432 $158 $433 #
attrib_edge_convexity-kcp-attrib $-1 -1 $434 $-1 $159 1 #
vertex $-1 -1 $-1 $159 $435 #
ellipse-curve $-1 -1 $-1 0 0 -20 0 0 -1 90 0 0 1 I I #
coedge $-1 -1 $-1 $436 $437 $160 $269 forward $438 $-1 #
edge $-1 -1 $-1 $276 -20 $273 0 $268 $439 reversed @7 unknown #
coedge $-1 -1 $-1 $440 $161 $166 $279 reversed $180 $-1 #
coedge $-1 -1 $-1 $161 $441 $436 $442 reversed $180 $-1 #
attrib_edge_convexity-kcp-attrib $-1 -1 $443 $-1 $162 2 #
vertex $-1 -1 $-1 $162 $444 #
coedge $-1 -1 $-1 $445 $163 $437 $446 forward $175 $-1 #
coedge $-1 -1 $-1 $163 $447 $165 $278 forward $175 $-1 #
vertex $-1 -1 $-1 $446 $448 #
coedge $-1 -1 $-1 $166 $165 $449 $450 reversed $167 $-1 #
edge $-1 -1 $-1 $451 59.16079783099616 $169 79.372539331937716 $275 $307 forward @7 unknown #
edge $452 -1 $-1 $453 59.16079783099616 $168 79.372539331937716 $166 $305 forward @7 unknown #
face $454 -1 $-1 $455 $167 $10 $-1 $310 forward single #
point $-1 -1 $-1 79.372539331937716 10 0 #
point $-1 -1 $-1 79.372539331937716 10 20 #
coedge $-1 -1 $-1 $456 $171 $174 $289 reversed $285 $-1 #
coedge $-1 -1 $-1 $171 $456 $178 $295 forward $285 $-1 #
loop $-1 -1 $-1 $-1 $456 $309 #
straight-curve $-1 -1 $-1 -79.372539331937716 -10 0 0 0 -1 I I #
coedge $-1 -1 $-1 $291 $173 $457 $458 forward $175 $-1 #
coedge $-1 -1 $-1 $174 $420 $414 $459 forward $175 $-1 #
edge $-1 -1 $-1 $460 59.16079783099616 $176 79.372539331937716 $174 $461 forward @7 unknown #
model_id-kcp-attrib $-1 -1 $-1 $-1 $175 1 1021384621 1021384621 1216610305 25 #
coedge $-1 -1 $-1 $447 $287 $462 $463 forward $175 $-1 #
face $464 -1 $-1 $-1 $429 $10 $-1 $465 forward single #
point $-1 -1 $-1 -79.372539331937716 -10 20 #
coedge $-1 -1 $-1 $298 $178 $413 $466 reversed $180 $-1 #
edge $467 -1 $-1 $468 59.16079783099616 $182 79.372539331937716 $284 $469 forward @7 unknown #
coedge $-1 -1 $-1 $179 $470 $471 $472 reversed $180 $-1 #
model_id-kcp-attrib $-1 -1 $-1 $-1 $180 1 1021384621 1021384621 1216610305 23 #
coedge $-1 -1 $-1 $441 $294 $258 $419 forward $180 $-1 #
convexity-sys-attrib $-1 -1 $-1 $181 $110 #
point $-1 -1 $-1 -79.372539331937716 -10 0 #
coedge $-1 -1 $-1 $471 $457 $184 $302 forward $473 $-1 #
edge $-1 -1 $-1 $306 -10 $304 10 $301 $474 forward @7 unknown #
attrib_edge_convexity-kcp-attrib $-1 -1 $475 $-1 $185 2 #
vertex $-1 -1 $-1 $185 $476 #
straight-curve $-1 -1 $-1 0 10 0 1 0 0 I I #
vertex $-1 -1 $-1 $186 $477 #
straight-curve $-1 -1 $-1 0 10 20 1 0 0 I I #
model_id-kcp-attrib $-1 -1 $-1 $-1 $187 1 1021384621 1021384621 1216610305 11 #
face $478 -1 $-1 $479 $285 $10 $-1 $480 forward single #
plane-surface $-1 -1 $-1 0 10 10 0 -1 0 0 0 -1 forward_v I I I I #
face $-1 -1 $-1 $-1 $205 $27 $-1 $481 reversed single #
loop $-1 -1 $-1 $-1 $327 $190 #
plane-surface $-1 -1 $-1 0 90 0 0 -1 0 0 0 -1 forward_v I I I I #
coedge $-1 -1 $-1 $482 $325 $328 $483 forward $191 $-1 #
coedge $-1 -1 $-1 $331 $193 $194 $319 reversed $118 $-1 #
coedge $-1 -1 $-1 $325 $482 $193 $317 reversed $191 $-1 #
edge $-1 -1 $-1 $332 -20 $484 20 $316 $485 forward @7 unknown #
coedge $-1 -1 $-1 $195 $194 $482 $486 forward $76 $-1 #
edge $-1 -1 $-1 $323 -90 $484 90 $315 $487 forward @7 unknown #
coedge $-1 -1 $-1 $328 $327 $195 $321 reversed $312 $-1 #
edge $-1 -1 $-1 $488 -90 $322 90 $320 $489 forward @7 unknown #
vertex $-1 -1 $-1 $197 $490 #
vertex $-1 -1 $-1 $334 $491 #
straight-curve $-1 -1 $-1 90 0 -20 0 -1 0 I I #
coedge $-1 -1 $-1 $314 $316 $198 $326 reversed $191 $-1 #
edge $-1 -1 $-1 $329 -90 $332 90 $325 $492 forward @7 unknown #
coedge $-1 -1 $-1 $320 $199 $204 $335 forward $312 $-1 #
coedge $-1 -1 $-1 $199 $320 $314 $483 reversed $312 $-1 #
vertex $-1 -1 $-1 $200 $493 #
straight-curve $-1 -1 $-1 0 90 20 -1 0 0 I I #
coedge $-1 -1 $-1 $201 $315 $203 $334 reversed $118 $-1 #
vertex $-1 -1 $-1 $326 $494 #
straight-curve $-1 -1 $-1 0 -90 20 1 0 0 I I #
edge $-1 -1 $-1 $206 -20 $323 20 $203 $495 forward @7 unknown #
edge $-1 -1 $-1 $207 -20 $322 20 $204 $496 forward @7 unknown #
point $-1 -1 $-1 90 -90 20 #
point $-1 -1 $-1 90 90 20 #
vertex $-1 -1 $-1 $210 $497 #
ellipse-curve $-1 -1 $-1 0 0 20 0 0 1 10 0 0 1 I I #
point $-1 -1 $-1 10 0 -20 #
vertex $-1 -1 $-1 $214 $498 #
ellipse-curve $-1 -1 $-1 0 0 20 0 0 1 10 0 0 1 I I #
point $-1 -1 $-1 10 0 -20 #
face $-1 -1 $-1 $499 $375 $33 $-1 $500 reversed single #
loop $-1 -1 $-1 $-1 $359 $217 #
plane-surface $-1 -1 $-1 90 0 0 -1 0 0 0 0 1 forward_v I I I I #
coedge $-1 -1 $-1 $352 $501 $502 $503 reversed $218 $-1 #
coedge $-1 -1 $-1 $504 $219 $505 $506 reversed $136 $-1 #
coedge $-1 -1 $-1 $219 $504 $223 $360 forward $136 $-1 #
coedge $-1 -1 $-1 $507 $508 $219 $351 forward $509 $-1 #
edge $-1 -1 $-1 $510 -1.5707963267948966 $364 0 $350 $365 forward @7 unknown #
coedge $-1 -1 $-1 $511 $347 $512 $353 reversed $218 $-1 #
edge $-1 -1 $-1 $357 -40 $513 0 $512 $514 forward @7 unknown #
coedge $-1 -1 $-1 $355 $221 $373 $376 forward $356 $-1 #
coedge $-1 -1 $-1 $221 $354 $515 $516 forward $356 $-1 #
loop $-1 -1 $-1 $-1 $221 $517 #
vertex $-1 -1 $-1 $518 $519 #
ellipse-curve $-1 -1 $-1 -3.3742366240998092e-031 0 20 0 0 -1 90 0 0 1 I I #
coedge $-1 -1 $-1 $520 $521 $522 $360 forward $345 $-1 #
edge $-1 -1 $-1 $369 -40 $364 0 $359 $523 forward @7 unknown #
coedge $-1 -1 $-1 $362 $224 $524 $378 forward $363 $-1 #
coedge $-1 -1 $-1 $224 $361 $520 $525 forward $363 $-1 #
loop $-1 -1 $-1 $-1 $224 $526 #
vertex $-1 -1 $-1 $527 $528 #
ellipse-curve $-1 -1 $-1 -3.3742366240998092e-031 0 -20 0 0 1 90 0 0 1 I I #
coedge $-1 -1 $-1 $367 $226 $521 $529 forward $368 $-1 #
coedge $-1 -1 $-1 $226 $366 $530 $531 forward $368 $-1 #
loop $-1 -1 $-1 $-1 $226 $532 #
vertex $-1 -1 $-1 $529 $533 #
coedge $-1 -1 $-1 $534 $535 $228 $371 forward $536 $-1 #
edge $-1 -1 $-1 $231 1.5707963267948966 $513 3.1415926535897931 $370 $365 forward @7 unknown #
coedge $-1 -1 $-1 $537 $229 $535 $538 reversed $375 $-1 #
coedge $-1 -1 $-1 $229 $537 $354 $376 reversed $375 $-1 #
coedge $-1 -1 $-1 $530 $524 $91 $141 reversed $539 $-1 #
loop $-1 -1 $-1 $-1 $229 $344 #
edge $-1 -1 $-1 $230 3.3742366240998092e-031 $540 90 $373 $541 forward @7 unknown #
point $-1 -1 $-1 -3.3742366240998092e-031 90 20 #
edge $-1 -1 $-1 $231 -3.3742366240998092e-031 $542 90 $524 $543 forward @7 unknown #
point $-1 -1 $-1 -3.3742366240998092e-031 90 -20 #
face $-1 -1 $-1 $544 $545 $35 $-1 $546 forward single #
loop $-1 -1 $-1 $-1 $547 $233 #
plane-surface $-1 -1 $-1 -59.160797830996174 -10 0 0 -1 0 0 0 -1 forward_v I I I I #
coedge $-1 -1 $-1 $548 $549 $550 $551 forward $234 $-1 #
coedge $-1 -1 $-1 $552 $236 $549 $553 reversed $143 $-1 #
coedge $-1 -1 $-1 $236 $552 $237 $389 forward $143 $-1 #
coedge $-1 -1 $-1 $239 $550 $236 $387 reversed $246 $-1 #
edge $-1 -1 $-1 $390 -0.083430086610614657 $554 3.2250227402004077 $236 $555 forward @7 unknown #
coedge $-1 -1 $-1 $238 $237 $556 $557 reversed $93 $-1 #
edge $-1 -1 $-1 $558 0 $390 20 $385 $559 forward @7 unknown #
vertex $-1 -1 $-1 $389 $560 #
ellipse-curve $-1 -1 $-1 0 0 20 0 0 -1 60 0 0 1 I I #
coedge $-1 -1 $-1 $556 $561 $241 $393 forward $562 $-1 #
edge $563 -1 $-1 $400 -79.372539331937716 $395 -59.16079783099616 $241 $564 forward @7 unknown #
convexity-sys-attrib $-1 -1 $-1 $-1 $242 #
vertex $-1 -1 $-1 $393 $565 #
straight-curve $-1 -1 $-1 59.16079783099616 -10 0 0 0 1 I I #
coedge $-1 -1 $-1 $566 $243 $561 $567 reversed $399 $-1 #
coedge $-1 -1 $-1 $243 $566 $245 $403 forward $399 $-1 #
loop $-1 -1 $-1 $-1 $398 $568 #
vertex $-1 -1 $-1 $567 $569 #
straight-curve $-1 -1 $-1 79.372539331937716 -10 0 0 0 1 I I #
coedge $-1 -1 $-1 $570 $245 $571 $572 reversed $246 $-1 #
edge $-1 -1 $-1 $573 -0.1253278311680654 $247 0.1253278311680654 $398 $574 forward @7 unknown #
face $-1 -1 $-1 $575 $246 $35 $-1 $576 forward single #
point $-1 -1 $-1 79.372539331937716 -10 20 #
point $-1 -1 $-1 59.16079783099616 -10 20 #
model_id-kcp-attrib $-1 -1 $-1 $-1 $251 1 1021384621 1021384621 1216610305 8 #
face $577 -1 $-1 $578 $473 $10 $-1 $153 reversed single #
plane-surface $-1 -1 $-1 0 0 0 0 0 -1 -1 0 0 forward_v I I I I #
model_id-kcp-attrib $-1 -1 $-1 $-1 $252 1 1021384621 1021384621 1216610305 28 #
loop $579 -1 $-1 $-1 $580 $151 #
coedge $-1 -1 $-1 $462 $581 $582 $583 reversed $252 $-1 #
coedge $-1 -1 $-1 $584 $255 $294 $466 forward $152 $-1 #
coedge $-1 -1 $-1 $255 $584 $288 $459 reversed $152 $-1 #
coedge $-1 -1 $-1 $259 $258 $255 $416 reversed $98 $-1 #
edge $585 -1 $-1 $586 -20 $587 0 $255 $588 forward @7 unknown #
coedge $-1 -1 $-1 $417 $417 $257 $418 forward $432 $-1 #
edge $589 -1 $-1 $590 0 $590 6.2831853071795862 $417 $591 forward @7 unknown #
edge $592 -1 $-1 $587 -3.0581625669791785 $426 -0.083430086610614684 $298 $593 forward @7 unknown #
coedge $-1 -1 $-1 $288 $445 $259 $421 forward $175 $-1 #
edge $594 -1 $-1 $427 -0.083430086610614532 $586 3.2250227402004077 $420 $595 forward @7 unknown #
coedge $-1 -1 $-1 $596 $260 $445 $597 reversed $424 $-1 #
coedge $-1 -1 $-1 $260 $596 $441 $598 forward $424 $-1 #
loop $599 -1 $-1 $-1 $260 $455 #
attrib_edge_convexity-kcp-attrib $-1 -1 $600 $-1 $261 1 #
vertex $-1 -1 $-1 $598 $601 #
vertex $-1 -1 $-1 $597 $602 #
straight-curve $-1 -1 $-1 9.9652172859178325 -59.166666666666671 0 0 0 1 I I #
loop $-1 -1 $-1 $175 $262 $292 #
vertex $-1 -1 $-1 $263 $603 #
ellipse-curve $-1 -1 $-1 0 0 20 0 0 1 90 0 0 1 I I #
loop $604 -1 $-1 $605 $417 $433 #
face $606 -1 $-1 $292 $264 $10 $-1 $607 forward single #
convexity-sys-attrib $-1 -1 $-1 $265 $159 #
point $-1 -1 $-1 90 0 -20 #
coedge $-1 -1 $-1 $608 $268 $271 $442 forward $438 $-1 #
coedge $-1 -1 $-1 $268 $608 $274 $446 reversed $438 $-1 #
loop $-1 -1 $-1 $-1 $268 $479 #
straight-curve $-1 -1 $-1 79.372539331937716 -10 0 0 0 1 I I #
coedge $-1 -1 $-1 $470 $270 $609 $610 reversed $180 $-1 #
coedge $-1 -1 $-1 $271 $298 $423 $598 reversed $180 $-1 #
edge $611 -1 $-1 $273 -79.372539331937716 $612 -59.16079783099616 $436 $469 forward @7 unknown #
convexity-sys-attrib $-1 -1 $-1 $272 $162 #
point $-1 -1 $-1 79.372539331937716 -10 0 #
coedge $-1 -1 $-1 $420 $274 $422 $597 forward $175 $-1 #
edge $-1 -1 $-1 $276 -79.372539331937716 $613 -59.16079783099616 $274 $461 forward @7 unknown #
coedge $-1 -1 $-1 $275 $291 $614 $615 forward $175 $-1 #
point $-1 -1 $-1 79.372539331937716 -10 20 #
coedge $-1 -1 $-1 $614 $609 $277 $450 forward $616 $-1 #
edge $-1 -1 $-1 $453 -10 $451 10 $449 $617 forward @7 unknown #
vertex $-1 -1 $-1 $615 $618 #
attrib_edge_convexity-kcp-attrib $-1 -1 $619 $-1 $279 2 #
vertex $-1 -1 $-1 $610 $620 #
model_id-kcp-attrib $-1 -1 $-1 $-1 $280 1 1021384621 1021384621 1216610305 14 #
face $621 -1 $-1 $433 $424 $10 $-1 $153 reversed single #
coedge $-1 -1 $-1 $284 $283 $584 $622 reversed $285 $-1 #
coedge $-1 -1 $-1 $301 $623 $287 $458 reversed $473 $-1 #
edge $-1 -1 $-1 $306 -2.9741445743701038 $624 -1.7376565000161268 $287 $625 forward @7 unknown #
edge $-1 -1 $-1 $586 1.7376565000161268 $460 2.9741445743701038 $288 $625 forward @7 unknown #
vertex $-1 -1 $-1 $459 $626 #
straight-curve $-1 -1 $-1 0 -10 20 -1 0 0 I I #
coedge $-1 -1 $-1 $627 $412 $291 $463 reversed $252 $-1 #
edge $628 -1 $-1 $624 3.0581625669791785 $629 6.3666153937902008 $291 $630 forward @7 unknown #
model_id-kcp-attrib $-1 -1 $-1 $-1 $292 1 1021384621 1021384621 1216610305 17 #
plane-surface $-1 -1 $-1 0 0 20 0 0 1 1 0 0 forward_v I I I I #
edge $631 -1 $-1 $587 1.7376565000161264 $468 2.9741445743701038 $294 $632 forward @7 unknown #
attrib_edge_convexity-kcp-attrib $-1 -1 $633 $-1 $295 2 #
vertex $-1 -1 $-1 $466 $634 #
straight-curve $-1 -1 $-1 0 -10 0 -1 0 0 I I #
coedge $-1 -1 $-1 $296 $440 $581 $635 forward $180 $-1 #
coedge $-1 -1 $-1 $623 $301 $296 $472 forward $473 $-1 #
edge $636 -1 $-1 $304 -2.9741445743701038 $637 -1.7376565000161264 $296 $632 forward @7 unknown #
loop $638 -1 $-1 $-1 $623 $408 #
straight-curve $-1 -1 $-1 -59.16079783099616 10 10 0 0 -1 I I #
convexity-sys-attrib $-1 -1 $-1 $303 $185 #
point $-1 -1 $-1 -59.16079783099616 10 0 #
point $-1 -1 $-1 -59.16079783099616 10 20 #
model_id-kcp-attrib $-1 -1 $-1 $-1 $309 1 1021384621 1021384621 1216610305 12 #
face $639 -1 $-1 $280 $438 $10 $-1 $480 forward single #
plane-surface $-1 -1 $-1 0 -10 10 0 1 0 0 0 1 forward_v I I I I #
plane-surface $-1 -1 $-1 90 0 0 -1 0 0 0 0 1 forward_v I I I I #
coedge $-1 -1 $-1 $316 $314 $318 $486 reversed $191 $-1 #
edge $-1 -1 $-1 $329 -20 $488 20 $328 $640 forward @7 unknown #
vertex $-1 -1 $-1 $486 $641 #
straight-curve $-1 -1 $-1 -90 -90 0 0 0 -1 I I #
edge $-1 -1 $-1 $484 -90 $488 90 $482 $642 forward @7 unknown #
straight-curve $-1 -1 $-1 0 -90 -20 -1 0 0 I I #
vertex $-1 -1 $-1 $321 $643 #
straight-curve $-1 -1 $-1 0 90 -20 1 0 0 I I #
point $-1 -1 $-1 90 90 -20 #
point $-1 -1 $-1 90 -90 -20 #
straight-curve $-1 -1 $-1 -90 0 20 0 -1 0 I I #
point $-1 -1 $-1 -90 90 20 #
point $-1 -1 $-1 -90 -90 20 #
straight-curve $-1 -1 $-1 90 -90 0 0 0 -1 I I #
straight-curve $-1 -1 $-1 90 90 0 0 0 -1 I I #
point $-1 -1 $-1 10 0 20 #
point $-1 -1 $-1 10 0 20 #
face $-1 -1 $-1 $644 $645 $33 $-1 $646 reversed single #
plane-surface $-1 -1 $-1 0 90 0 0 -1 0 0 0 -1 forward_v I I I I #
coedge $-1 -1 $-1 $347 $511 $348 $506 forward $218 $-1 #
coedge $-1 -1 $-1 $647 $648 $347 $503 forward $649 $-1 #
edge $-1 -1 $-1 $513 -3.1415926535897931 $510 -1.5707963267948966 $502 $365 forward @7 unknown #
coedge $-1 -1 $-1 $349 $348 $650 $651 reversed $136 $-1 #
coedge $-1 -1 $-1 $652 $653 $654 $506 forward $655 $-1 #
edge $-1 -1 $-1 $656 -40 $510 0 $505 $657 forward @7 unknown #
coedge $-1 -1 $-1 $508 $350 $658 $527 forward $509 $-1 #
coedge $-1 -1 $-1 $350 $507 $652 $659 forward $509 $-1 #
loop $-1 -1 $-1 $-1 $350 $660 #
vertex $-1 -1 $-1 $661 $662 #
coedge $-1 -1 $-1 $501 $352 $663 $664 reversed $218 $-1 #
coedge $-1 -1 $-1 $665 $666 $667 $353 forward $645 $-1 #
vertex $-1 -1 $-1 $668 $669 #
straight-curve $-1 -1 $-1 -90 0 -20 0 0 -1 I I #
coedge $-1 -1 $-1 $670 $667 $355 $516 reversed $671 $-1 #
edge $-1 -1 $-1 $540 -90 $357 0 $515 $672 forward @7 unknown #
face $-1 -1 $-1 $532 $356 $33 $-1 $673 forward single #
edge $-1 -1 $-1 $357 0 $674 90 $666 $672 forward @7 unknown #
point $-1 -1 $-1 -90 0 20 #
coedge $-1 -1 $-1 $675 $359 $362 $525 reversed $345 $-1 #
coedge $-1 -1 $-1 $359 $675 $366 $529 reversed $345 $-1 #
coedge $-1 -1 $-1 $676 $658 $349 $360 reversed $677 $-1 #
straight-curve $-1 -1 $-1 90 0 -20 0 0 -1 I I #
coedge $-1 -1 $-1 $374 $678 $361 $378 reversed $539 $-1 #
edge $-1 -1 $-1 $542 -90 $364 0 $520 $679 forward @7 unknown #
face $-1 -1 $-1 $680 $363 $33 $-1 $681 reversed single #
edge $-1 -1 $-1 $364 0 $682 90 $658 $679 forward @7 unknown #
point $-1 -1 $-1 90 0 -20 #
edge $-1 -1 $-1 $369 0 $683 90 $521 $684 forward @7 unknown #
coedge $-1 -1 $-1 $678 $374 $367 $531 reversed $539 $-1 #
edge $-1 -1 $-1 $683 -90 $230 3.3742366240998092e-031 $530 $541 forward @7 unknown #
face $-1 -1 $-1 $685 $368 $33 $-1 $673 forward single #
point $-1 -1 $-1 90 0 20 #
coedge $-1 -1 $-1 $535 $370 $686 $668 forward $536 $-1 #
coedge $-1 -1 $-1 $370 $534 $372 $538 forward $536 $-1 #
loop $-1 -1 $-1 $-1 $370 $680 #
coedge $-1 -1 $-1 $373 $372 $670 $687 reversed $375 $-1 #
edge $-1 -1 $-1 $688 -90 $231 -3.3742366240998092e-031 $372 $543 forward @7 unknown #
loop $-1 -1 $-1 $-1 $374 $689 #
vertex $-1 -1 $-1 $376 $690 #
straight-curve $-1 -1 $-1 0 90 20 -1 0 0 I I #
vertex $-1 -1 $-1 $525 $691 #
straight-curve $-1 -1 $-1 0 90 -20 1 0 0 I I #
face $-1 -1 $-1 $692 $693 $35 $-1 $694 forward single #
loop $-1 -1 $-1 $-1 $695 $380 #
cone-surface $-1 -1 $-1 0 0 0 0 0 1 80 0 0 1 I I 0 1 80 forward I I I I #
coedge $-1 -1 $-1 $696 $697 $698 $699 forward $381 $-1 #
coedge $-1 -1 $-1 $700 $383 $697 $701 reversed $234 $-1 #
coedge $-1 -1 $-1 $383 $700 $384 $553 forward $234 $-1 #
coedge $-1 -1 $-1 $386 $698 $383 $551 reversed $246 $-1 #
edge $-1 -1 $-1 $554 1.7376565000161264 $702 2.9741445743701038 $383 $703 forward @7 unknown #
coedge $-1 -1 $-1 $385 $384 $704 $705 reversed $143 $-1 #
edge $-1 -1 $-1 $706 0 $554 20 $549 $707 forward @7 unknown #
vertex $-1 -1 $-1 $553 $708 #
ellipse-curve $-1 -1 $-1 0 -60 20 0 0 -1 10 0 0 1 I I #
coedge $-1 -1 $-1 $704 $392 $388 $557 forward $562 $-1 #
edge $709 -1 $-1 $395 0.16744807921968935 $558 1.403936153573667 $388 $710 forward @7 unknown #
vertex $-1 -1 $-1 $557 $711 #
straight-curve $-1 -1 $-1 9.9652172859178165 -59.166666666666671 0 0 0 1 I I #
point $-1 -1 $-1 9.9652172859178165 -59.166666666666671 20 #
coedge $-1 -1 $-1 $392 $712 $397 $567 forward $562 $-1 #
loop $-1 -1 $-1 $-1 $561 $575 #
convexity-sys-attrib $-1 -1 $-1 $-1 $393 #
straight-curve $-1 -1 $-1 0 -10 0 -1 0 0 I I #
point $-1 -1 $-1 59.16079783099616 -10 0 #
coedge $-1 -1 $-1 $398 $397 $713 $714 forward $399 $-1 #
edge $715 -1 $-1 $716 -0.1253278311680654 $400 0.1253278311680654 $397 $717 forward @7 unknown #
face $-1 -1 $-1 $404 $399 $35 $-1 $718 forward single #
point $-1 -1 $-1 79.372539331937716 -10 0 #
coedge $-1 -1 $-1 $719 $402 $720 $721 reversed $246 $-1 #
coedge $-1 -1 $-1 $713 $722 $402 $572 forward $723 $-1 #
edge $-1 -1 $-1 $724 59.16079783099616 $573 79.372539331937716 $571 $725 forward @7 unknown #
vertex $-1 -1 $-1 $714 $726 #
ellipse-curve $-1 -1 $-1 0 0 20 0 0 -1 80 0 0 1 I I #
face $-1 -1 $-1 $-1 $562 $35 $-1 $727 reversed single #
plane-surface $-1 -1 $-1 4.8849813083506888e-015 -1.9428902930940239e-015 20 0 0 1 1 0 0 forward_v I I I I #
model_id-kcp-attrib $-1 -1 $-1 $-1 $408 1 1021384621 1021384621 1216610305 9 #
face $728 -1 $-1 $187 $616 $10 $-1 $153 reversed single #
model_id-kcp-attrib $-1 -1 $-1 $-1 $411 1 1021384621 1021384621 1216610305 29 #
coedge $-1 -1 $-1 $580 $580 $729 $730 reversed $411 $-1 #
coedge $-1 -1 $-1 $412 $627 $470 $635 reversed $252 $-1 #
coedge $-1 -1 $-1 $609 $614 $412 $583 forward $616 $-1 #
edge $731 -1 $-1 $629 -20 $732 0 $582 $733 forward @7 unknown #
coedge $-1 -1 $-1 $414 $413 $456 $622 forward $152 $-1 #
attrib_edge_convexity-kcp-attrib $-1 -1 $734 $-1 $416 1 #
vertex $-1 -1 $-1 $416 $735 #
vertex $-1 -1 $-1 $419 $736 #
straight-curve $-1 -1 $-1 -9.9652172859178325 -59.166666666666671 0 0 0 -1 I I #
attrib_edge_convexity-kcp-attrib $-1 -1 $737 $-1 $418 1 #
vertex $-1 -1 $-1 $418 $738 #
ellipse-curve $-1 -1 $-1 0 -60 -20 0 0 1 10 0 0 1 I I #
attrib_edge_convexity-kcp-attrib $-1 -1 $739 $-1 $419 1 #
ellipse-curve $-1 -1 $-1 0 -60 0 0 0 -1 10 0 0 1 I I #
attrib_edge_convexity-kcp-attrib $-1 -1 $740 $-1 $421 1 #
ellipse-curve $-1 -1 $-1 0 -60 20 0 0 -1 10 0 0 1 I I #
coedge $-1 -1 $-1 $423 $422 $608 $741 forward $424 $-1 #
edge $-1 -1 $-1 $613 0.16744807921968935 $427 1.4039361535736665 $445 $625 forward @7 unknown #
edge $742 -1 $-1 $612 0.16744807921968935 $426 1.403936153573667 $441 $632 forward @7 unknown #
model_id-kcp-attrib $-1 -1 $-1 $-1 $424 1 1021384621 1021384621 1216610305 22 #
convexity-sys-attrib $-1 -1 $-1 $425 $261 #
point $-1 -1 $-1 9.9652172859178147 -59.166666666666671 0 #
point $-1 -1 $-1 9.9652172859178325 -59.166666666666671 20 #
point $-1 -1 $-1 90 0 20 #
model_id-kcp-attrib $-1 -1 $-1 $-1 $432 1 1021384621 1021384621 1216610305 26 #
loop $743 -1 $-1 $-1 $729 $433 #
model_id-kcp-attrib $-1 -1 $-1 $-1 $433 1 1021384621 1021384621 1216610305 16 #
plane-surface $-1 -1 $-1 0 0 -20 0 0 -1 -1 0 0 forward_v I I I I #
coedge $-1 -1 $-1 $437 $436 $596 $741 reversed $438 $-1 #
coedge $-1 -1 $-1 $449 $582 $440 $610 forward $616 $-1 #
edge $744 -1 $-1 $732 -1.403936153573667 $453 -0.16744807921968935 $440 $632 forward @7 unknown #
attrib_edge_convexity-kcp-attrib $-1 -1 $745 $-1 $442 2 #
vertex $-1 -1 $-1 $442 $746 #
vertex $-1 -1 $-1 $741 $747 #
coedge $-1 -1 $-1 $582 $449 $447 $615 reversed $616 $-1 #
edge $-1 -1 $-1 $629 -1.4039361535736665 $451 -0.16744807921968935 $447 $625 forward @7 unknown #
loop $748 -1 $-1 $-1 $582 $578 #
straight-curve $-1 -1 $-1 59.16079783099616 10 10 0 0 1 I I #
point $-1 -1 $-1 59.16079783099616 10 20 #
convexity-sys-attrib $-1 -1 $-1 $452 $279 #
point $-1 -1 $-1 59.16079783099616 10 0 #
model_id-kcp-attrib $-1 -1 $-1 $-1 $455 1 1021384621 1021384621 1216610305 15 #
edge $-1 -1 $-1 $468 -10 $460 10 $584 $749 forward @7 unknown #
coedge $-1 -1 $-1 $457 $471 $627 $750 forward $473 $-1 #
vertex $-1 -1 $-1 $458 $751 #
ellipse-curve $-1 -1 $-1 0 0 20 0 0 -1 60 0 0 1 I I #
point $-1 -1 $-1 -59.16079783099616 -10 20 #
coedge $-1 -1 $-1 $581 $462 $623 $750 reversed $252 $-1 #
attrib_edge_convexity-kcp-attrib $-1 -1 $752 $-1 $463 1 #
vertex $-1 -1 $-1 $583 $753 #
ellipse-curve $-1 -1 $-1 0 60 20 0 0 -1 10 0 0 1 I I #
attrib_edge_convexity-kcp-attrib $-1 -1 $754 $-1 $466 2 #
ellipse-curve $-1 -1 $-1 0 0 0 0 0 -1 60 0 0 1 I I #
convexity-sys-attrib $-1 -1 $-1 $467 $295 #
point $-1 -1 $-1 -59.16079783099616 -10 0 #
edge $755 -1 $-1 $732 0.083430086610614684 $637 3.0581625669791785 $470 $756 forward @7 unknown #
attrib_edge_convexity-kcp-attrib $-1 -1 $757 $-1 $472 2 #
vertex $-1 -1 $-1 $472 $758 #
model_id-kcp-attrib $-1 -1 $-1 $-1 $473 1 1021384621 1021384621 1216610305 32 #
model_id-kcp-attrib $-1 -1 $-1 $-1 $479 1 1021384621 1021384621 1216610305 13 #
straight-curve $-1 -1 $-1 -90 90 0 0 0 -1 I I #
point $-1 -1 $-1 -90 -90 -20 #
straight-curve $-1 -1 $-1 -90 0 -20 0 1 0 I I #
point $-1 -1 $-1 -90 90 -20 #
face $-1 -1 $-1 $517 $759 $33 $-1 $673 forward single #
loop $-1 -1 $-1 $-1 $512 $499 #
plane-surface $-1 -1 $-1 -90 0 0 1 0 0 0 0 -1 forward_v I I I I #
coedge $-1 -1 $-1 $648 $502 $760 $661 forward $649 $-1 #
coedge $-1 -1 $-1 $502 $647 $665 $761 forward $649 $-1 #
loop $-1 -1 $-1 $-1 $502 $762 #
coedge $-1 -1 $-1 $763 $764 $504 $651 forward $765 $-1 #
edge $-1 -1 $-1 $369 0 $656 1.5707963267948966 $650 $358 forward @7 unknown #
coedge $-1 -1 $-1 $766 $505 $508 $659 reversed $655 $-1 #
coedge $-1 -1 $-1 $505 $766 $763 $767 reversed $655 $-1 #
coedge $-1 -1 $-1 $768 $760 $501 $506 reversed $769 $-1 #
loop $-1 -1 $-1 $-1 $505 $770 #
vertex $-1 -1 $-1 $767 $771 #
straight-curve $-1 -1 $-1 -3.3742366240998092e-031 -90 -20 0 0 -1 I I #
coedge $-1 -1 $-1 $522 $772 $507 $527 reversed $677 $-1 #
edge $-1 -1 $-1 $682 -90 $510 3.3742366240998092e-031 $652 $773 forward @7 unknown #
face $-1 -1 $-1 $526 $509 $33 $-1 $681 reversed single #
edge $-1 -1 $-1 $510 3.3742366240998092e-031 $774 90 $760 $773 forward @7 unknown #
point $-1 -1 $-1 -3.3742366240998092e-031 -90 -20 #
coedge $-1 -1 $-1 $775 $776 $511 $664 forward $759 $-1 #
edge $-1 -1 $-1 $656 1.5707963267948966 $357 3.1415926535897931 $663 $358 forward @7 unknown #
coedge $-1 -1 $-1 $777 $512 $648 $761 reversed $645 $-1 #
coedge $-1 -1 $-1 $512 $777 $775 $518 reversed $645 $-1 #
coedge $-1 -1 $-1 $515 $686 $220 $353 reversed $671 $-1 #
edge $-1 -1 $-1 $513 0 $688 90 $686 $778 forward @7 unknown #
point $-1 -1 $-1 -90 0 -20 #
coedge $-1 -1 $-1 $686 $515 $537 $687 forward $671 $-1 #
loop $-1 -1 $-1 $-1 $667 $779 #
straight-curve $-1 -1 $-1 -90 0 20 0 -1 0 I I #
plane-surface $-1 -1 $-1 0 0 20 0 0 1 1 0 0 forward_v I I I I #
vertex $-1 -1 $-1 $518 $780 #
coedge $-1 -1 $-1 $521 $520 $678 $781 reversed $345 $-1 #
coedge $-1 -1 $-1 $772 $522 $764 $782 reversed $677 $-1 #
loop $-1 -1 $-1 $-1 $522 $783 #
coedge $-1 -1 $-1 $524 $530 $675 $781 forward $539 $-1 #
straight-curve $-1 -1 $-1 90 0 -20 0 -1 0 I I #
face $-1 -1 $-1 $784 $536 $33 $-1 $681 reversed single #
plane-surface $-1 -1 $-1 0 0 -20 0 0 1 1 0 0 forward_v I I I I #
vertex $-1 -1 $-1 $785 $786 #
vertex $-1 -1 $-1 $529 $787 #
straight-curve $-1 -1 $-1 90 0 20 0 1 0 I I #
face $-1 -1 $-1 $770 $765 $33 $-1 $673 forward single #
coedge $-1 -1 $-1 $667 $670 $534 $668 reversed $671 $-1 #
edge $-1 -1 $-1 $540 -20 $688 20 $537 $788 forward @7 unknown #
vertex $-1 -1 $-1 $538 $789 #
face $-1 -1 $-1 $783 $539 $33 $-1 $500 reversed single #
point $-1 -1 $-1 -90 90 20 #
point $-1 -1 $-1 90 90 -20 #
face $-1 -1 $-1 $790 $791 $35 $-1 $792 forward single #
loop $-1 -1 $-1 $-1 $793 $544 #
plane-surface $-1 -1 $-1 -79.372539331937716 10 0 0 1 0 0 0 1 forward_v I I I I #
coedge $-1 -1 $-1 $794 $795 $796 $797 forward $545 $-1 #
coedge $-1 -1 $-1 $798 $547 $795 $799 reversed $381 $-1 #
coedge $-1 -1 $-1 $547 $798 $548 $701 forward $381 $-1 #
coedge $-1 -1 $-1 $550 $796 $547 $699 reversed $246 $-1 #
edge $-1 -1 $-1 $702 59.160797830996174 $800 79.372539331937716 $547 $801 forward @7 unknown #
coedge $-1 -1 $-1 $549 $548 $802 $803 reversed $234 $-1 #
edge $-1 -1 $-1 $804 0 $702 20 $697 $805 forward @7 unknown #
vertex $-1 -1 $-1 $701 $806 #
ellipse-curve $-1 -1 $-1 0 0 20 0 0 -1 60 0 0 1 I I #
coedge $-1 -1 $-1 $802 $556 $552 $705 forward $562 $-1 #
edge $807 -1 $-1 $558 -0.08343008661061467 $706 3.2250227402004077 $552 $808 forward @7 unknown #
vertex $-1 -1 $-1 $705 $809 #
straight-curve $-1 -1 $-1 -9.9652172859178165 -59.166666666666671 0 0 0 1 I I #
point $-1 -1 $-1 -9.9652172859178165 -59.166666666666671 20 #
convexity-sys-attrib $-1 -1 $-1 $-1 $557 #
ellipse-curve $-1 -1 $-1 0 0 0 0 0 -1 60 0 0 1 I I #
point $-1 -1 $-1 9.9652172859178147 -59.166666666666671 0 #
coedge $-1 -1 $-1 $561 $810 $811 $812 forward $562 $-1 #
coedge $-1 -1 $-1 $811 $571 $566 $714 reversed $723 $-1 #
edge $-1 -1 $-1 $716 0 $573 20 $566 $813 forward @7 unknown #
convexity-sys-attrib $-1 -1 $-1 $-1 $567 #
vertex $-1 -1 $-1 $567 $814 #
ellipse-curve $-1 -1 $-1 0 0 0 0 0 -1 80 0 0 1 I I #
cone-surface $-1 -1 $-1 0 0 0 0 0 1 80 0 0 1 I I 0 1 80 forward I I I I #
coedge $-1 -1 $-1 $815 $570 $816 $817 reversed $246 $-1 #
coedge $-1 -1 $-1 $818 $819 $570 $721 forward $820 $-1 #
edge $-1 -1 $-1 $821 -1.403936153573667 $724 -0.16744807921968935 $720 $822 forward @7 unknown #
coedge $-1 -1 $-1 $571 $811 $818 $823 forward $723 $-1 #
loop $-1 -1 $-1 $-1 $571 $824 #
vertex $-1 -1 $-1 $823 $825 #
straight-curve $-1 -1 $-1 0 10 20 1 0 0 I I #
point $-1 -1 $-1 79.372539331937716 10 20 #
plane-surface $-1 -1 $-1 4.8849813083506888e-015 -1.9428902930940239e-015 0 0 0 1 1 0 0 forward_v I I I I #
model_id-kcp-attrib $-1 -1 $-1 $-1 $578 1 1021384621 1021384621 1216610305 10 #
coedge $-1 -1 $-1 $729 $729 $580 $730 forward $605 $-1 #
edge $826 -1 $-1 $827 0 $827 6.2831853071795862 $729 $828 forward @7 unknown #
attrib_edge_convexity-kcp-attrib $-1 -1 $829 $-1 $583 1 #
vertex $-1 -1 $-1 $635 $830 #
straight-curve $-1 -1 $-1 9.9652172859178325 59.166666666666671 0 0 0 -1 I I #
convexity-sys-attrib $-1 -1 $-1 $585 $416 #
point $-1 -1 $-1 -9.9652172859178325 -59.166666666666671 20 #
point $-1 -1 $-1 -9.9652172859178147 -59.166666666666671 0 #
convexity-sys-attrib $-1 -1 $-1 $589 $418 #
point $-1 -1 $-1 10 -60 -20 #
convexity-sys-attrib $-1 -1 $-1 $592 $419 #
convexity-sys-attrib $-1 -1 $-1 $594 $421 #
edge $-1 -1 $-1 $613 -10 $612 10 $596 $831 forward @7 unknown #
attrib_edge_convexity-kcp-attrib $-1 -1 $832 $-1 $598 2 #
model_id-kcp-attrib $-1 -1 $-1 $-1 $605 1 1021384621 1021384621 1216610305 34 #
attrib_edge_convexity-kcp-attrib $-1 -1 $833 $-1 $610 2 #
convexity-sys-attrib $-1 -1 $-1 $611 $442 #
point $-1 -1 $-1 59.16079783099616 -10 0 #
point $-1 -1 $-1 59.16079783099616 -10 20 #
model_id-kcp-attrib $-1 -1 $-1 $-1 $616 1 1021384621 1021384621 1216610305 30 #
straight-curve $-1 -1 $-1 -59.16079783099616 -10 10 0 0 1 I I #
edge $834 -1 $-1 $637 0 $624 20 $623 $835 forward @7 unknown #
point $-1 -1 $-1 -9.9652172859178325 59.166666666666671 20 #
convexity-sys-attrib $-1 -1 $-1 $628 $463 #
point $-1 -1 $-1 9.9652172859178325 59.166666666666671 20 #
convexity-sys-attrib $-1 -1 $-1 $631 $466 #
attrib_edge_convexity-kcp-attrib $-1 -1 $836 $-1 $635 1 #
ellipse-curve $-1 -1 $-1 0 60 0 0 0 -1 10 0 0 1 I I #
convexity-sys-attrib $-1 -1 $-1 $636 $472 #
point $-1 -1 $-1 -9.9652172859178147 59.166666666666671 0 #
loop $-1 -1 $-1 $-1 $663 $644 #
coedge $-1 -1 $-1 $654 $837 $647 $661 reversed $769 $-1 #
edge $-1 -1 $-1 $774 -90 $513 0 $665 $778 forward @7 unknown #
face $-1 -1 $-1 $660 $649 $33 $-1 $681 reversed single #
coedge $-1 -1 $-1 $764 $650 $653 $767 forward $765 $-1 #
coedge $-1 -1 $-1 $650 $763 $676 $782 forward $765 $-1 #
loop $-1 -1 $-1 $-1 $650 $685 #
coedge $-1 -1 $-1 $653 $652 $772 $785 reversed $655 $-1 #
edge $-1 -1 $-1 $656 -3.3742366240998092e-031 $838 90 $653 $839 forward @7 unknown #
coedge $-1 -1 $-1 $837 $654 $776 $840 reversed $769 $-1 #
loop $-1 -1 $-1 $-1 $654 $784 #
face $-1 -1 $-1 $762 $655 $33 $-1 $841 reversed single #
point $-1 -1 $-1 -3.3742366240998092e-031 -90 20 #
coedge $-1 -1 $-1 $658 $676 $766 $785 forward $677 $-1 #
straight-curve $-1 -1 $-1 0 -90 -20 -1 0 0 I I #
vertex $-1 -1 $-1 $761 $842 #
coedge $-1 -1 $-1 $776 $663 $666 $518 forward $759 $-1 #
coedge $-1 -1 $-1 $663 $775 $768 $840 forward $759 $-1 #
coedge $-1 -1 $-1 $666 $665 $837 $843 reversed $645 $-1 #
straight-curve $-1 -1 $-1 -90 0 -20 0 1 0 I I #
face $-1 -1 $-1 $689 $671 $33 $-1 $646 reversed single #
point $-1 -1 $-1 -90 -90 20 #
edge $-1 -1 $-1 $683 -20 $542 20 $675 $844 forward @7 unknown #
edge $-1 -1 $-1 $838 -90 $369 0 $676 $684 forward @7 unknown #
face $-1 -1 $-1 $-1 $677 $33 $-1 $346 reversed single #
face $-1 -1 $-1 $779 $769 $33 $-1 $841 reversed single #
edge $-1 -1 $-1 $838 -20 $682 20 $772 $845 forward @7 unknown #
point $-1 -1 $-1 90 -90 -20 #
point $-1 -1 $-1 90 90 20 #
straight-curve $-1 -1 $-1 -90 90 0 0 0 -1 I I #
point $-1 -1 $-1 -90 90 -20 #
face $-1 -1 $-1 $846 $847 $35 $-1 $848 forward single #
loop $-1 -1 $-1 $-1 $849 $692 #
cone-surface $-1 -1 $-1 0 0 0 0 0 1 60 0 0 1 I I 0 1 60 forward I I I I #
coedge $-1 -1 $-1 $850 $851 $852 $853 forward $693 $-1 #
coedge $-1 -1 $-1 $854 $695 $851 $855 reversed $545 $-1 #
coedge $-1 -1 $-1 $695 $854 $696 $799 forward $545 $-1 #
coedge $-1 -1 $-1 $698 $852 $695 $797 reversed $246 $-1 #
edge $-1 -1 $-1 $800 3.0162648224217277 $856 3.2669204847578586 $695 $857 forward @7 unknown #
coedge $-1 -1 $-1 $697 $696 $858 $859 reversed $381 $-1 #
edge $-1 -1 $-1 $860 0 $800 20 $795 $861 forward @7 unknown #
vertex $-1 -1 $-1 $799 $862 #
straight-curve $-1 -1 $-1 0 -10 20 -1 0 0 I I #
coedge $-1 -1 $-1 $858 $704 $700 $803 forward $562 $-1 #
edge $863 -1 $-1 $706 1.7376565000161264 $804 2.9741445743701038 $700 $864 forward @7 unknown #
vertex $-1 -1 $-1 $803 $865 #
straight-curve $-1 -1 $-1 -59.160797830996174 -10 0 0 0 1 I I #
point $-1 -1 $-1 -59.160797830996174 -10 20 #
convexity-sys-attrib $-1 -1 $-1 $-1 $705 #
ellipse-curve $-1 -1 $-1 0 -60 0 0 0 -1 10 0 0 1 I I #
point $-1 -1 $-1 -9.9652172859178147 -59.166666666666671 0 #
coedge $-1 -1 $-1 $712 $866 $867 $868 forward $562 $-1 #
coedge $-1 -1 $-1 $722 $713 $712 $812 reversed $723 $-1 #
edge $869 -1 $-1 $870 59.16079783099616 $716 79.372539331937716 $811 $871 forward @7 unknown #
straight-curve $-1 -1 $-1 79.372539331937716 10 0 0 0 1 I I #
point $-1 -1 $-1 79.372539331937716 10 0 #
coedge $-1 -1 $-1 $852 $719 $849 $872 reversed $246 $-1 #
coedge $-1 -1 $-1 $873 $874 $719 $817 forward $847 $-1 #
edge $-1 -1 $-1 $875 3.0581625669791785 $821 6.3666153937902008 $816 $876 forward @7 unknown #
coedge $-1 -1 $-1 $867 $720 $722 $823 reversed $820 $-1 #
coedge $-1 -1 $-1 $720 $867 $873 $877 forward $820 $-1 #
loop $-1 -1 $-1 $-1 $720 $846 #
vertex $-1 -1 $-1 $877 $878 #
ellipse-curve $-1 -1 $-1 0 0 20 0 0 -1 60 0 0 1 I I #
edge $-1 -1 $-1 $870 0 $724 20 $722 $879 forward @7 unknown #
face $-1 -1 $-1 $568 $723 $35 $-1 $880 forward single #
point $-1 -1 $-1 59.16079783099616 10 20 #
attrib_edge_convexity-kcp-attrib $-1 -1 $881 $-1 $730 1 #
vertex $-1 -1 $-1 $730 $882 #
ellipse-curve $-1 -1 $-1 0 60 -20 0 0 1 10 0 0 1 I I #
convexity-sys-attrib $-1 -1 $-1 $731 $583 #
point $-1 -1 $-1 9.9652172859178147 59.166666666666671 0 #
straight-curve $-1 -1 $-1 59.16079783099616 -10 10 0 0 -1 I I #
convexity-sys-attrib $-1 -1 $-1 $742 $598 #
convexity-sys-attrib $-1 -1 $-1 $744 $610 #
attrib_edge_convexity-kcp-attrib $-1 -1 $883 $-1 $750 1 #
straight-curve $-1 -1 $-1 -9.9652172859178325 59.166666666666671 0 0 0 1 I I #
convexity-sys-attrib $-1 -1 $-1 $755 $635 #
coedge $-1 -1 $-1 $760 $768 $777 $843 forward $769 $-1 #
vertex $-1 -1 $-1 $782 $884 #
straight-curve $-1 -1 $-1 0 -90 20 1 0 0 I I #
edge $-1 -1 $-1 $674 -90 $656 -3.3742366240998092e-031 $768 $839 forward @7 unknown #
plane-surface $-1 -1 $-1 0 -90 0 0 1 0 0 0 1 forward_v I I I I #
point $-1 -1 $-1 -90 -90 -20 #
edge $-1 -1 $-1 $674 -20 $774 20 $777 $885 forward @7 unknown #
straight-curve $-1 -1 $-1 90 90 0 0 0 -1 I I #
straight-curve $-1 -1 $-1 90 -90 0 0 0 -1 I I #
face $-1 -1 $-1 $824 $820 $35 $-1 $886 forward single #
loop $-1 -1 $-1 $-1 $816 $790 #
cone-surface $-1 -1 $-1 0 60 0 0 0 1 10 0 0 1 I I 0 1 10 forward I I I I #
coedge $-1 -1 $-1 $887 $888 $815 $872 forward $791 $-1 #
coedge $-1 -1 $-1 $889 $793 $888 $890 reversed $693 $-1 #
coedge $-1 -1 $-1 $793 $889 $794 $855 forward $693 $-1 #
coedge $-1 -1 $-1 $796 $815 $793 $853 reversed $246 $-1 #
edge $-1 -1 $-1 $856 -79.372539331937716 $891 -59.160797830996174 $793 $892 forward @7 unknown #
coedge $-1 -1 $-1 $795 $794 $893 $894 reversed $545 $-1 #
edge $-1 -1 $-1 $895 0 $856 20 $851 $896 forward @7 unknown #
vertex $-1 -1 $-1 $855 $897 #
ellipse-curve $-1 -1 $-1 0 0 20 0 0 -1 80 0 0 1 I I #
coedge $-1 -1 $-1 $893 $802 $798 $859 forward $562 $-1 #
edge $898 -1 $-1 $804 59.16079783099616 $860 79.372539331937716 $798 $899 forward @7 unknown #
vertex $-1 -1 $-1 $859 $900 #
straight-curve $-1 -1 $-1 -79.372539331937716 -10 0 0 0 1 I I #
point $-1 -1 $-1 -79.372539331937716 -10 20 #
convexity-sys-attrib $-1 -1 $-1 $-1 $803 #
ellipse-curve $-1 -1 $-1 0 0 0 0 0 -1 60 0 0 1 I I #
point $-1 -1 $-1 -59.16079783099616 -10 0 #
coedge $-1 -1 $-1 $810 $901 $902 $903 forward $562 $-1 #
coedge $-1 -1 $-1 $819 $818 $810 $868 reversed $820 $-1 #
edge $904 -1 $-1 $905 -1.403936153573667 $870 -0.16744807921968935 $867 $906 forward @7 unknown #
convexity-sys-attrib $-1 -1 $-1 $-1 $812 #
vertex $-1 -1 $-1 $868 $907 #
straight-curve $-1 -1 $-1 0 10 0 1 0 0 I I #
edge $-1 -1 $-1 $891 -2.9741445743701038 $875 -1.7376565000161264 $849 $908 forward @7 unknown #
coedge $-1 -1 $-1 $902 $816 $819 $877 reversed $847 $-1 #
coedge $-1 -1 $-1 $816 $902 $887 $909 forward $847 $-1 #
vertex $-1 -1 $-1 $909 $910 #
ellipse-curve $-1 -1 $-1 0 60 20 0 0 -1 10 0 0 1 I I #
edge $-1 -1 $-1 $905 0 $821 20 $819 $911 forward @7 unknown #
point $-1 -1 $-1 9.9652172859178165 59.166666666666671 20 #
straight-curve $-1 -1 $-1 59.16079783099616 10 0 0 0 1 I I #
plane-surface $-1 -1 $-1 59.16079783099616 10 0 0 1 0 0 0 1 forward_v I I I I #
convexity-sys-attrib $-1 -1 $-1 $826 $730 #
point $-1 -1 $-1 10 60 -20 #
convexity-sys-attrib $-1 -1 $-1 $834 $750 #
point $-1 -1 $-1 90 -90 20 #
straight-curve $-1 -1 $-1 -90 -90 0 0 0 -1 I I #
cone-surface $-1 -1 $-1 0 0 0 0 0 1 60 0 0 1 I I 0 1 60 forward I I I I #
coedge $-1 -1 $-1 $912 $849 $874 $909 reversed $791 $-1 #
coedge $-1 -1 $-1 $849 $912 $850 $890 forward $791 $-1 #
coedge $-1 -1 $-1 $851 $850 $913 $914 reversed $693 $-1 #
edge $-1 -1 $-1 $915 0 $891 20 $888 $916 forward @7 unknown #
vertex $-1 -1 $-1 $890 $917 #
straight-curve $-1 -1 $-1 0 10 20 1 0 0 I I #
coedge $-1 -1 $-1 $913 $858 $854 $894 forward $562 $-1 #
edge $918 -1 $-1 $860 3.0162648224217277 $895 3.2669204847578586 $854 $919 forward @7 unknown #
vertex $-1 -1 $-1 $894 $920 #
straight-curve $-1 -1 $-1 -79.372539331937716 10 0 0 0 1 I I #
point $-1 -1 $-1 -79.372539331937716 10 20 #
convexity-sys-attrib $-1 -1 $-1 $-1 $859 #
straight-curve $-1 -1 $-1 0 -10 0 -1 0 0 I I #
point $-1 -1 $-1 -79.372539331937716 -10 0 #
coedge $-1 -1 $-1 $866 $913 $912 $921 forward $562 $-1 #
coedge $-1 -1 $-1 $874 $873 $866 $903 reversed $847 $-1 #
edge $922 -1 $-1 $923 3.0581625669791785 $905 6.3666153937902008 $902 $924 forward @7 unknown #
convexity-sys-attrib $-1 -1 $-1 $-1 $868 #
vertex $-1 -1 $-1 $903 $925 #
ellipse-curve $-1 -1 $-1 0 0 0 0 0 -1 60 0 0 1 I I #
point $-1 -1 $-1 59.16079783099616 10 0 #
ellipse-curve $-1 -1 $-1 0 0 20 0 0 -1 60 0 0 1 I I #
edge $-1 -1 $-1 $923 0 $875 20 $874 $926 forward @7 unknown #
point $-1 -1 $-1 -9.9652172859178165 59.166666666666671 20 #
straight-curve $-1 -1 $-1 9.9652172859178165 59.166666666666671 0 0 0 1 I I #
coedge $-1 -1 $-1 $888 $887 $901 $921 reversed $791 $-1 #
coedge $-1 -1 $-1 $901 $893 $889 $914 forward $562 $-1 #
edge $927 -1 $-1 $895 -79.372539331937716 $915 -59.16079783099616 $889 $928 forward @7 unknown #
vertex $-1 -1 $-1 $914 $929 #
straight-curve $-1 -1 $-1 -59.160797830996174 10 0 0 0 1 I I #
point $-1 -1 $-1 -59.160797830996174 10 20 #
convexity-sys-attrib $-1 -1 $-1 $-1 $894 #
ellipse-curve $-1 -1 $-1 0 0 0 0 0 -1 80 0 0 1 I I #
point $-1 -1 $-1 -79.372539331937716 10 0 #
edge $930 -1 $-1 $915 -2.9741445743701038 $923 -1.7376565000161264 $912 $931 forward @7 unknown #
convexity-sys-attrib $-1 -1 $-1 $-1 $903 #
vertex $-1 -1 $-1 $921 $932 #
ellipse-curve $-1 -1 $-1 0 60 0 0 0 -1 10 0 0 1 I I #
point $-1 -1 $-1 9.9652172859178147 59.166666666666671 0 #
straight-curve $-1 -1 $-1 -9.9652172859178165 59.166666666666671 0 0 0 1 I I #
convexity-sys-attrib $-1 -1 $-1 $-1 $914 #
straight-curve $-1 -1 $-1 0 10 0 1 0 0 I I #
point $-1 -1 $-1 -59.16079783099616 10 0 #
convexity-sys-attrib $-1 -1 $-1 $-1 $921 #
ellipse-curve $-1 -1 $-1 0 0 0 0 0 -1 60 0 0 1 I I #
point $-1 -1 $-1 -9.9652172859178147 59.166666666666671 0 #
End-of-ACIS-data 