600 0 2 0           
24 FBMach with ACIS - 6.0.3 13 ACIS 6.0.3 NT 24 Wed May 23 20:25:43 2001 
1 9.9999999999999995e-007 1e-010 
body $2 $3 $-1 $4 #
bdycol-kcp $-1 1 5 $5 $6 $7 $8 $9 #
model_id-kcp-attrib $-1 $-1 $-1 $0 1 990663943 60 -1422131199 1 #
lump $-1 $-1 $10 $0 #
transform $-1 1 0 0 0 1 0 0 0 1 0 0 0 1 no_rotate no_reflect no_shear #
body $11 $12 $-1 $13 #
body $14 $15 $-1 $16 #
body $17 $18 $-1 $19 #
body $20 $21 $-1 $22 #
body $23 $24 $-1 $25 #
shell $-1 $-1 $-1 $26 $-1 $3 #
model_id-kcp-attrib $-1 $-1 $-1 $5 1 990663943 60 -1422131198 1 #
lump $-1 $-1 $27 $5 #
transform $-1 1 0 0 0 1 0 0 0 1 0 0 0 1 no_rotate no_reflect no_shear #
rgb_color-st-attrib $-1 $28 $-1 $6 0.5 1 1 #
lump $-1 $-1 $29 $6 #
transform $-1 1 0 0 0 1 0 0 0 1 0 -60 0 1 no_rotate no_reflect no_shear #
rgb_color-st-attrib $-1 $30 $-1 $7 0.5 1 1 #
lump $-1 $-1 $31 $7 #
transform $-1 1 0 0 0 1 0 0 0 1 0 60 0 1 no_rotate no_reflect no_shear #
rgb_color-st-attrib $-1 $32 $-1 $8 0.5 1 1 #
lump $-1 $-1 $33 $8 #
transform $-1 1 0 0 0 1 0 0 0 1 0 0 0 1 no_rotate no_reflect no_shear #
rgb_color-st-attrib $-1 $34 $-1 $9 0 0 1 #
lump $-1 $-1 $35 $9 #
transform $-1 1 0 0 0 1 0 0 0 1 0 0 0 1 no_rotate no_reflect no_shear #
face $36 $37 $38 $10 $-1 $39 reversed single #
shell $-1 $-1 $-1 $40 $-1 $12 #
model_id-kcp-attrib $-1 $-1 $14 $6 1 990663943 100 -1419509757 1 #
shell $-1 $-1 $-1 $41 $-1 $15 #
model_id-kcp-attrib $-1 $-1 $17 $7 1 990663943 100 -1419509756 1 #
shell $-1 $-1 $-1 $42 $-1 $18 #
model_id-kcp-attrib $-1 $-1 $20 $8 1 990663943 160 -1415577595 1 #
shell $-1 $-1 $-1 $43 $-1 $21 #
model_id-kcp-attrib $-1 $-1 $23 $9 1 990663943 460 -1412694010 1 #
shell $-1 $-1 $-1 $44 $-1 $24 #
model_id-kcp-attrib $-1 $-1 $-1 $26 1 990663943 60 -1422131199 2 #
face $45 $46 $47 $10 $-1 $39 reversed single #
loop $-1 $-1 $48 $26 #
cone-surface $-1 0 0 0 0 0 1 80 0 0 1 I I 0 1 80 forward I I I I #
face $49 $50 $51 $27 $-1 $52 forward single #
face $-1 $53 $54 $29 $-1 $55 forward single #
face $-1 $56 $57 $31 $-1 $58 forward single #
face $-1 $59 $60 $33 $-1 $61 reversed single #
face $-1 $62 $63 $35 $-1 $64 forward single #
model_id-kcp-attrib $-1 $-1 $-1 $37 1 990663943 60 -1422131199 3 #
face $65 $66 $67 $10 $-1 $68 forward single #
loop $-1 $-1 $69 $37 #
coedge $-1 $70 $71 $72 $73 reversed $38 $-1 #
model_id-kcp-attrib $-1 $-1 $-1 $40 1 990663943 60 -1422131198 3 #
face $74 $75 $76 $27 $-1 $77 reversed single #
loop $-1 $-1 $78 $40 #
plane-surface $-1 0 0 20 0 0 1 1 0 0 forward_v I I I I #
face $-1 $79 $80 $29 $-1 $81 forward single #
loop $-1 $82 $83 $41 #
cone-surface $-1 0 0 0 0 0 1 10 0 0 1 I I 0 1 10 forward I I I I #
face $-1 $84 $85 $31 $-1 $86 forward single #
loop $-1 $87 $88 $42 #
cone-surface $-1 0 0 0 0 0 1 10 0 0 1 I I 0 1 10 forward I I I I #
face $-1 $89 $90 $33 $-1 $61 reversed single #
loop $-1 $-1 $91 $43 #
cone-surface $-1 -3.3742366240998092e-031 0 -20 0 0 -1 90 0 0 1 I I 0 1 90 forward I I I I #
face $-1 $92 $93 $35 $-1 $94 forward single #
loop $-1 $-1 $95 $44 #
plane-surface $-1 79.372539331937716 -10 0 0 -1 0 0 0 -1 forward_v I I I I #
model_id-kcp-attrib $-1 $-1 $-1 $46 1 990663943 60 -1422131199 4 #
face $96 $97 $98 $10 $-1 $99 reversed single #
loop $-1 $100 $101 $46 #
cone-surface $-1 0 0 0 0 0 1 90 0 0 1 I I 0 1 90 forward I I I I #
coedge $-1 $102 $103 $104 $105 reversed $47 $-1 #
coedge $-1 $106 $48 $107 $108 reversed $38 $-1 #
coedge $-1 $48 $106 $109 $110 reversed $38 $-1 #
coedge $-1 $111 $112 $48 $73 forward $113 $-1 #
edge $-1 $114 -20 $115 0 $72 $116 reversed 7 unknown #
model_id-kcp-attrib $-1 $-1 $-1 $50 1 990663943 60 -1422131198 2 #
face $-1 $117 $118 $27 $-1 $119 reversed single #
loop $-1 $-1 $120 $50 #
plane-surface $-1 0 0 -20 0 0 1 1 0 0 forward_v I I I I #
coedge $-1 $121 $122 $123 $124 forward $51 $-1 #
face $-1 $-1 $125 $29 $-1 $126 forward single #
loop $-1 $-1 $127 $53 #
plane-surface $-1 0 0 -20 0 0 -1 -1 0 0 forward_v I I I I #
loop $-1 $-1 $128 $41 #
coedge $-1 $83 $83 $127 $129 reversed $54 $-1 #
face $-1 $-1 $130 $31 $-1 $131 forward single #
loop $-1 $-1 $132 $56 #
plane-surface $-1 0 0 -20 0 0 -1 -1 0 0 forward_v I I I I #
loop $-1 $-1 $133 $42 #
coedge $-1 $88 $88 $132 $134 reversed $57 $-1 #
face $-1 $135 $136 $33 $-1 $61 reversed single #
loop $-1 $-1 $137 $59 #
coedge $-1 $138 $139 $140 $141 forward $60 $-1 #
face $-1 $142 $143 $35 $-1 $144 forward single #
loop $-1 $-1 $145 $62 #
cone-surface $-1 0 0 0 0 0 1 60 0 0 1 I I 0 1 60 forward I I I I #
coedge $-1 $146 $147 $148 $149 forward $63 $-1 #
model_id-kcp-attrib $-1 $-1 $-1 $66 1 990663943 60 -1422131199 5 #
face $150 $151 $152 $10 $-1 $153 reversed single #
loop $154 $155 $156 $66 #
cone-surface $-1 0 -60 0 0 0 1 10 0 0 1 I I 0 1 10 forward I I I I #
loop $-1 $-1 $157 $46 #
coedge $-1 $101 $101 $158 $159 reversed $67 $-1 #
coedge $-1 $160 $69 $161 $162 reversed $47 $-1 #
coedge $-1 $69 $160 $163 $164 reversed $47 $-1 #
coedge $-1 $165 $166 $69 $105 forward $167 $-1 #
edge $-1 $168 0 $169 20 $104 $170 reversed 7 unknown #
coedge $-1 $71 $70 $171 $172 reversed $38 $-1 #
coedge $-1 $173 $174 $70 $108 forward $175 $-1 #
edge $-1 $176 3.0162648224217277 $114 3.2669204847578586 $107 $177 forward 7 unknown #
coedge $-1 $178 $179 $71 $110 forward $180 $-1 #
edge $-1 $115 -3.2669204847578586 $181 -3.0162648224217277 $109 $182 reversed 7 unknown #
coedge $-1 $183 $72 $179 $184 forward $113 $-1 #
coedge $-1 $72 $183 $173 $185 reversed $113 $-1 #
loop $-1 $-1 $183 $186 #
vertex $-1 $185 $187 #
vertex $-1 $110 $188 #
straight-curve $-1 -79.372539331937716 10 0 0 0 1 I I #
face $-1 $189 $190 $27 $-1 $191 reversed single #
loop $-1 $-1 $192 $75 #
plane-surface $-1 0 -90 0 0 1 0 0 0 1 forward_v I I I I #
coedge $-1 $193 $194 $195 $196 forward $76 $-1 #
coedge $-1 $197 $78 $198 $199 forward $51 $-1 #
coedge $-1 $78 $197 $200 $201 forward $51 $-1 #
coedge $-1 $202 $203 $78 $124 reversed $204 $-1 #
edge $-1 $205 -90 $206 90 $123 $207 forward 7 unknown #
loop $-1 $-1 $208 $79 #
plane-surface $-1 0 0 20 0 0 1 1 0 0 forward_v I I I I #
coedge $-1 $127 $127 $83 $129 forward $80 $-1 #
coedge $-1 $128 $128 $208 $209 reversed $82 $-1 #
edge $-1 $210 0 $210 6.2831853071795862 $127 $211 forward 7 unknown #
loop $-1 $-1 $212 $84 #
plane-surface $-1 0 0 20 0 0 1 1 0 0 forward_v I I I I #
coedge $-1 $132 $132 $88 $134 forward $85 $-1 #
coedge $-1 $133 $133 $212 $213 reversed $87 $-1 #
edge $-1 $214 0 $214 6.2831853071795862 $132 $215 forward 7 unknown #
face $-1 $216 $217 $33 $-1 $61 reversed single #
loop $-1 $-1 $218 $89 #
coedge $-1 $219 $140 $220 $221 reversed $90 $-1 #
coedge $-1 $222 $91 $223 $224 reversed $60 $-1 #
coedge $-1 $91 $222 $225 $226 reversed $60 $-1 #
coedge $-1 $137 $227 $228 $141 reversed $90 $-1 #
edge $-1 $229 -40 $230 0 $228 $231 forward 7 unknown #
face $-1 $232 $233 $35 $-1 $234 forward single #
loop $-1 $-1 $235 $92 #
cone-surface $-1 0 -60 0 0 0 1 10 0 0 1 I I 0 1 10 forward I I I I #
coedge $-1 $236 $237 $238 $239 forward $93 $-1 #
coedge $-1 $240 $95 $237 $241 reversed $63 $-1 #
coedge $-1 $95 $240 $242 $243 forward $63 $-1 #
coedge $-1 $244 $238 $95 $149 reversed $245 $-1 #
edge $-1 $246 -79.372539331937716 $247 -59.16079783099616 $95 $248 forward 7 unknown #
model_id-kcp-attrib $-1 $-1 $-1 $97 1 990663943 60 -1422131199 6 #
face $249 $250 $251 $10 $-1 $252 reversed single #
loop $253 $-1 $254 $97 #
cone-surface $-1 0 0 10 0 0 1 60 0 0 1 I I 0 1 60 forward I I I I #
model_id-kcp-attrib $-1 $-1 $-1 $98 1 990663943 60 -1422131199 20 #
loop $255 $-1 $256 $66 #
coedge $-1 $257 $258 $259 $260 reversed $98 $-1 #
coedge $-1 $157 $157 $261 $262 reversed $100 $-1 #
coedge $-1 $158 $158 $101 $159 forward $263 $-1 #
edge $264 $265 0 $265 6.2831853071795862 $158 $266 forward 7 unknown #
coedge $-1 $103 $102 $267 $268 reversed $47 $-1 #
coedge $-1 $269 $270 $102 $162 forward $180 $-1 #
edge $-1 $271 -0.1253278311680654 $168 0.1253278311680654 $161 $182 reversed 7 unknown #
coedge $-1 $272 $273 $103 $164 forward $175 $-1 #
edge $-1 $169 -0.1253278311680654 $274 0.1253278311680654 $163 $177 forward 7 unknown #
coedge $-1 $275 $104 $273 $276 reversed $167 $-1 #
coedge $-1 $104 $275 $269 $277 forward $167 $-1 #
loop $-1 $-1 $104 $278 #
vertex $-1 $162 $279 #
vertex $-1 $276 $280 #
straight-curve $-1 79.372539331937716 10 0 0 0 -1 I I #
coedge $-1 $281 $282 $106 $172 forward $283 $-1 #
edge $-1 $181 0 $176 20 $171 $284 reversed 7 unknown #
coedge $-1 $285 $107 $112 $185 forward $175 $-1 #
coedge $-1 $107 $286 $281 $287 forward $175 $-1 #
loop $288 $-1 $289 $290 #
vertex $-1 $172 $291 #
ellipse-curve $-1 0 0 20 0 0 -1 80 0 0 1 I I #
coedge $-1 $292 $109 $282 $293 reversed $180 $-1 #
coedge $-1 $109 $294 $111 $184 reversed $180 $-1 #
loop $295 $-1 $296 $250 #
vertex $-1 $110 $297 #
ellipse-curve $-1 0 0 0 0 0 -1 80 0 0 1 I I #
coedge $-1 $112 $111 $298 $299 reversed $113 $-1 #
edge $-1 $115 -79.372539331937716 $300 -59.16079783099616 $111 $301 forward 7 unknown #
edge $-1 $114 -79.372539331937716 $302 -59.16079783099616 $173 $303 forward 7 unknown #
face $304 $305 $113 $10 $-1 $306 forward single #
point $-1 -79.372539331937716 10 20 #
point $-1 -79.372539331937716 10 0 #
face $-1 $307 $308 $27 $-1 $309 reversed single #
loop $-1 $-1 $310 $117 #
plane-surface $-1 -90 0 0 1 0 0 0 0 -1 forward_v I I I I #
coedge $-1 $311 $200 $312 $313 forward $118 $-1 #
coedge $-1 $314 $120 $311 $315 forward $76 $-1 #
coedge $-1 $120 $314 $316 $317 forward $76 $-1 #
coedge $-1 $203 $202 $120 $196 reversed $204 $-1 #
edge $-1 $318 -90 $319 90 $195 $320 forward 7 unknown #
coedge $-1 $122 $121 $321 $322 forward $51 $-1 #
coedge $-1 $323 $324 $121 $199 reversed $308 $-1 #
edge $-1 $206 -90 $325 90 $198 $326 forward 7 unknown #
coedge $-1 $192 $327 $122 $201 reversed $118 $-1 #
edge $-1 $328 -90 $205 90 $200 $329 forward 7 unknown #
coedge $-1 $195 $123 $327 $330 forward $204 $-1 #
coedge $-1 $123 $195 $323 $331 reversed $204 $-1 #
loop $-1 $-1 $202 $307 #
vertex $-1 $124 $332 #
vertex $-1 $124 $333 #
straight-curve $-1 90 0 20 0 1 0 I I #
coedge $-1 $208 $208 $128 $209 forward $125 $-1 #
edge $-1 $334 0 $334 6.2831853071795862 $208 $335 forward 7 unknown #
vertex $-1 $129 $336 #
ellipse-curve $-1 0 0 -20 0 0 -1 10 0 0 1 I I #
coedge $-1 $212 $212 $133 $213 forward $130 $-1 #
edge $-1 $337 0 $337 6.2831853071795862 $212 $338 forward 7 unknown #
vertex $-1 $134 $339 #
ellipse-curve $-1 0 0 -20 0 0 -1 10 0 0 1 I I #
face $-1 $340 $341 $33 $-1 $342 reversed single #
loop $-1 $-1 $343 $135 #
coedge $-1 $344 $345 $346 $347 reversed $136 $-1 #
coedge $-1 $227 $137 $348 $349 forward $90 $-1 #
coedge $-1 $350 $351 $137 $221 forward $352 $-1 #
edge $-1 $353 -3.1415926535897931 $229 -1.5707963267948966 $220 $354 forward 7 unknown #
coedge $-1 $139 $138 $355 $356 reversed $60 $-1 #
coedge $-1 $357 $358 $138 $224 forward $359 $-1 #
edge $-1 $360 0 $230 1.5707963267948966 $223 $361 forward 7 unknown #
coedge $-1 $362 $363 $139 $226 forward $364 $-1 #
edge $-1 $229 -1.5707963267948966 $365 0 $225 $354 forward 7 unknown #
coedge $-1 $140 $219 $366 $367 reversed $90 $-1 #
coedge $-1 $368 $369 $370 $141 forward $371 $-1 #
vertex $-1 $372 $373 #
vertex $-1 $374 $375 #
straight-curve $-1 -3.3742366240998092e-031 90 -20 0 0 -1 I I #
face $-1 $376 $377 $35 $-1 $378 forward single #
loop $-1 $-1 $379 $142 #
cone-surface $-1 0 0 0 0 0 1 60 0 0 1 I I 0 1 60 forward I I I I #
coedge $-1 $380 $381 $382 $383 forward $143 $-1 #
coedge $-1 $384 $145 $381 $385 reversed $93 $-1 #
coedge $-1 $145 $384 $146 $241 forward $93 $-1 #
coedge $-1 $148 $382 $145 $239 reversed $245 $-1 #
edge $-1 $247 0.16744807921968935 $386 1.403936153573667 $145 $387 forward 7 unknown #
coedge $-1 $147 $146 $388 $389 reversed $63 $-1 #
edge $390 $391 0 $247 20 $237 $392 forward 7 unknown #
coedge $-1 $393 $394 $147 $243 reversed $395 $-1 #
edge $-1 $396 0 $246 20 $147 $397 forward 7 unknown #
coedge $-1 $398 $148 $394 $399 reversed $245 $-1 #
loop $-1 $-1 $148 $400 #
vertex $-1 $243 $401 #
vertex $-1 $241 $402 #
straight-curve $-1 0 -10 20 -1 0 0 I I #
model_id-kcp-attrib $-1 $-1 $-1 $151 1 990663943 60 -1422131199 7 #
face $403 $404 $180 $10 $-1 $405 reversed single #
loop $406 $407 $408 $151 #
cone-surface $-1 0 60 0 0 0 1 10 0 0 1 I I 0 1 10 forward I I I I #
model_id-kcp-attrib $-1 $-1 $-1 $152 1 990663943 60 -1422131199 24 #
coedge $-1 $409 $410 $411 $412 forward $152 $-1 #
model_id-kcp-attrib $-1 $-1 $-1 $155 1 990663943 60 -1422131199 21 #
coedge $-1 $256 $256 $413 $414 reversed $155 $-1 #
coedge $-1 $411 $156 $296 $415 reversed $98 $-1 #
coedge $-1 $156 $411 $416 $417 reversed $98 $-1 #
coedge $-1 $418 $419 $156 $260 forward $420 $-1 #
edge $421 $422 0 $423 20 $259 $424 forward 7 unknown #
coedge $-1 $261 $261 $157 $262 forward $425 $-1 #
edge $-1 $426 0 $426 6.2831853071795862 $261 $427 forward 7 unknown #
loop $-1 $428 $158 $429 #
attrib_edge_convexity-kcp-attrib $-1 $430 $-1 $159 1 #
vertex $-1 $159 $431 #
ellipse-curve $-1 0 0 -20 0 0 -1 90 0 0 1 I I #
coedge $-1 $432 $433 $160 $268 forward $434 $-1 #
edge $-1 $274 -20 $271 0 $267 $435 reversed 7 unknown #
coedge $-1 $436 $161 $166 $277 reversed $180 $-1 #
coedge $-1 $161 $437 $432 $438 reversed $180 $-1 #
vertex $-1 $162 $439 #
coedge $-1 $440 $163 $433 $441 forward $175 $-1 #
coedge $-1 $163 $442 $165 $276 forward $175 $-1 #
vertex $-1 $441 $443 #
coedge $-1 $166 $165 $444 $445 reversed $167 $-1 #
edge $-1 $446 59.16079783099616 $169 79.372539331937716 $273 $303 forward 7 unknown #
edge $-1 $447 59.16079783099616 $168 79.372539331937716 $166 $301 forward 7 unknown #
face $448 $449 $167 $10 $-1 $306 forward single #
point $-1 79.372539331937716 10 0 #
point $-1 79.372539331937716 10 20 #
coedge $-1 $450 $171 $174 $287 reversed $283 $-1 #
coedge $-1 $171 $450 $178 $293 forward $283 $-1 #
loop $-1 $-1 $450 $305 #
straight-curve $-1 -79.372539331937716 -10 0 0 0 -1 I I #
coedge $-1 $289 $173 $451 $452 forward $175 $-1 #
coedge $-1 $174 $416 $410 $453 forward $175 $-1 #
edge $-1 $454 59.16079783099616 $176 79.372539331937716 $174 $455 forward 7 unknown #
model_id-kcp-attrib $-1 $456 $-1 $175 1 990663943 60 -1422131199 31 #
coedge $-1 $442 $285 $457 $458 forward $175 $-1 #
face $459 $-1 $425 $10 $-1 $460 forward single #
point $-1 -79.372539331937716 -10 20 #
coedge $-1 $296 $178 $409 $461 reversed $180 $-1 #
edge $-1 $462 59.16079783099616 $181 79.372539331937716 $282 $463 forward 7 unknown #
coedge $-1 $179 $464 $465 $466 reversed $180 $-1 #
model_id-kcp-attrib $-1 $467 $-1 $180 1 990663943 60 -1422131199 33 #
coedge $-1 $437 $292 $257 $415 forward $180 $-1 #
point $-1 -79.372539331937716 -10 0 #
coedge $-1 $465 $451 $183 $299 forward $468 $-1 #
edge $-1 $302 -10 $300 10 $298 $469 forward 7 unknown #
vertex $-1 $184 $470 #
straight-curve $-1 0 10 0 1 0 0 I I #
vertex $-1 $185 $471 #
straight-curve $-1 0 10 20 1 0 0 I I #
model_id-kcp-attrib $-1 $-1 $-1 $186 1 990663943 60 -1422131199 11 #
face $472 $473 $283 $10 $-1 $474 forward single #
plane-surface $-1 0 10 10 0 -1 0 0 0 -1 forward_v I I I I #
face $-1 $-1 $204 $27 $-1 $475 reversed single #
loop $-1 $-1 $323 $189 #
plane-surface $-1 0 90 0 0 -1 0 0 0 -1 forward_v I I I I #
coedge $-1 $476 $321 $324 $477 forward $190 $-1 #
coedge $-1 $327 $192 $193 $315 reversed $118 $-1 #
coedge $-1 $321 $476 $192 $313 reversed $190 $-1 #
edge $-1 $328 -20 $478 20 $312 $479 forward 7 unknown #
coedge $-1 $194 $193 $476 $480 forward $76 $-1 #
edge $-1 $319 -90 $478 90 $311 $481 forward 7 unknown #
coedge $-1 $324 $323 $194 $317 reversed $308 $-1 #
edge $-1 $482 -90 $318 90 $316 $483 forward 7 unknown #
vertex $-1 $196 $484 #
vertex $-1 $330 $485 #
straight-curve $-1 90 0 -20 0 -1 0 I I #
coedge $-1 $310 $312 $197 $322 reversed $190 $-1 #
edge $-1 $325 -90 $328 90 $321 $486 forward 7 unknown #
coedge $-1 $316 $198 $203 $331 forward $308 $-1 #
coedge $-1 $198 $316 $310 $477 reversed $308 $-1 #
vertex $-1 $199 $487 #
straight-curve $-1 0 90 20 -1 0 0 I I #
coedge $-1 $200 $311 $202 $330 reversed $118 $-1 #
vertex $-1 $322 $488 #
straight-curve $-1 0 -90 20 1 0 0 I I #
edge $-1 $205 -20 $319 20 $202 $489 forward 7 unknown #
edge $-1 $206 -20 $318 20 $203 $490 forward 7 unknown #
point $-1 90 -90 20 #
point $-1 90 90 20 #
vertex $-1 $209 $491 #
ellipse-curve $-1 0 0 20 0 0 1 10 0 0 1 I I #
point $-1 10 0 -20 #
vertex $-1 $213 $492 #
ellipse-curve $-1 0 0 20 0 0 1 10 0 0 1 I I #
point $-1 10 0 -20 #
face $-1 $493 $371 $33 $-1 $494 reversed single #
loop $-1 $-1 $355 $216 #
plane-surface $-1 90 0 0 -1 0 0 0 0 1 forward_v I I I I #
coedge $-1 $348 $495 $496 $497 reversed $217 $-1 #
coedge $-1 $498 $218 $499 $500 reversed $136 $-1 #
coedge $-1 $218 $498 $222 $356 forward $136 $-1 #
coedge $-1 $501 $502 $218 $347 forward $503 $-1 #
edge $-1 $504 -1.5707963267948966 $360 0 $346 $361 forward 7 unknown #
coedge $-1 $505 $343 $506 $349 reversed $217 $-1 #
edge $-1 $353 -40 $507 0 $506 $508 forward 7 unknown #
coedge $-1 $351 $220 $369 $372 forward $352 $-1 #
coedge $-1 $220 $350 $509 $510 forward $352 $-1 #
loop $-1 $-1 $220 $511 #
vertex $-1 $512 $513 #
ellipse-curve $-1 -3.3742366240998092e-031 0 20 0 0 -1 90 0 0 1 I I #
coedge $-1 $514 $515 $516 $356 forward $341 $-1 #
edge $-1 $365 -40 $360 0 $355 $517 forward 7 unknown #
coedge $-1 $358 $223 $518 $374 forward $359 $-1 #
coedge $-1 $223 $357 $514 $519 forward $359 $-1 #
loop $-1 $-1 $223 $520 #
vertex $-1 $521 $522 #
ellipse-curve $-1 -3.3742366240998092e-031 0 -20 0 0 1 90 0 0 1 I I #
coedge $-1 $363 $225 $515 $523 forward $364 $-1 #
coedge $-1 $225 $362 $524 $525 forward $364 $-1 #
loop $-1 $-1 $225 $526 #
vertex $-1 $523 $527 #
coedge $-1 $528 $529 $227 $367 forward $530 $-1 #
edge $-1 $230 1.5707963267948966 $507 3.1415926535897931 $366 $361 forward 7 unknown #
coedge $-1 $531 $228 $529 $532 reversed $371 $-1 #
coedge $-1 $228 $531 $350 $372 reversed $371 $-1 #
coedge $-1 $524 $518 $91 $141 reversed $533 $-1 #
loop $-1 $-1 $228 $340 #
edge $-1 $229 3.3742366240998092e-031 $534 90 $369 $535 forward 7 unknown #
point $-1 -3.3742366240998092e-031 90 20 #
edge $-1 $230 -3.3742366240998092e-031 $536 90 $518 $537 forward 7 unknown #
point $-1 -3.3742366240998092e-031 90 -20 #
face $-1 $538 $539 $35 $-1 $540 forward single #
loop $-1 $-1 $541 $232 #
plane-surface $-1 -59.160797830996174 -10 0 0 -1 0 0 0 -1 forward_v I I I I #
coedge $-1 $542 $543 $544 $545 forward $233 $-1 #
coedge $-1 $546 $235 $543 $547 reversed $143 $-1 #
coedge $-1 $235 $546 $236 $385 forward $143 $-1 #
coedge $-1 $238 $544 $235 $383 reversed $245 $-1 #
edge $-1 $386 -0.083430086610614657 $548 3.2250227402004077 $235 $549 forward 7 unknown #
coedge $-1 $237 $236 $550 $551 reversed $93 $-1 #
edge $-1 $552 0 $386 20 $381 $553 forward 7 unknown #
vertex $-1 $385 $554 #
ellipse-curve $-1 0 0 20 0 0 -1 60 0 0 1 I I #
coedge $-1 $550 $555 $240 $389 forward $556 $-1 #
edge $557 $396 -79.372539331937716 $391 -59.16079783099616 $240 $558 forward 7 unknown #
convexity-sys-attrib $-1 $-1 $-1 $241 #
vertex $-1 $389 $559 #
straight-curve $-1 59.16079783099616 -10 0 0 0 1 I I #
coedge $-1 $560 $242 $555 $561 reversed $395 $-1 #
coedge $-1 $242 $560 $244 $399 forward $395 $-1 #
loop $-1 $-1 $394 $562 #
vertex $-1 $561 $563 #
straight-curve $-1 79.372539331937716 -10 0 0 0 1 I I #
coedge $-1 $564 $244 $565 $566 reversed $245 $-1 #
edge $-1 $567 -0.1253278311680654 $246 0.1253278311680654 $394 $568 forward 7 unknown #
face $-1 $569 $245 $35 $-1 $570 forward single #
point $-1 79.372539331937716 -10 20 #
point $-1 59.16079783099616 -10 20 #
model_id-kcp-attrib $-1 $-1 $-1 $250 1 990663943 60 -1422131199 8 #
face $571 $572 $468 $10 $-1 $153 reversed single #
plane-surface $-1 0 0 0 0 0 -1 -1 0 0 forward_v I I I I #
model_id-kcp-attrib $-1 $-1 $-1 $251 1 990663943 60 -1422131199 28 #
loop $573 $-1 $574 $151 #
coedge $-1 $457 $575 $576 $577 reversed $251 $-1 #
coedge $-1 $578 $254 $292 $461 forward $152 $-1 #
coedge $-1 $254 $578 $286 $453 reversed $152 $-1 #
coedge $-1 $258 $257 $254 $412 reversed $98 $-1 #
edge $579 $580 -20 $581 0 $254 $582 forward 7 unknown #
coedge $-1 $413 $413 $256 $414 forward $428 $-1 #
edge $583 $584 0 $584 6.2831853071795862 $413 $585 forward 7 unknown #
edge $586 $581 -3.0581625669791785 $422 -0.08343008661061467 $296 $587 forward 7 unknown #
coedge $-1 $286 $440 $258 $417 forward $175 $-1 #
edge $588 $423 -0.083430086610614532 $580 3.2250227402004077 $416 $589 forward 7 unknown #
coedge $-1 $590 $259 $440 $591 reversed $420 $-1 #
coedge $-1 $259 $590 $437 $592 forward $420 $-1 #
loop $593 $-1 $259 $449 #
attrib_edge_convexity-kcp-attrib $-1 $594 $-1 $260 1 #
vertex $-1 $592 $595 #
vertex $-1 $591 $596 #
straight-curve $-1 9.9652172859178325 -59.166666666666671 0 0 0 1 I I #
loop $-1 $175 $261 $290 #
vertex $-1 $262 $597 #
ellipse-curve $-1 0 0 20 0 0 1 90 0 0 1 I I #
loop $598 $599 $413 $429 #
face $600 $290 $263 $10 $-1 $601 forward single #
convexity-sys-attrib $-1 $-1 $264 $159 #
point $-1 90 0 -20 #
coedge $-1 $602 $267 $270 $438 forward $434 $-1 #
coedge $-1 $267 $602 $272 $441 reversed $434 $-1 #
loop $-1 $-1 $267 $473 #
straight-curve $-1 79.372539331937716 -10 0 0 0 1 I I #
coedge $-1 $464 $269 $603 $604 reversed $180 $-1 #
coedge $-1 $270 $296 $419 $592 reversed $180 $-1 #
edge $-1 $271 -79.372539331937716 $605 -59.16079783099616 $432 $463 forward 7 unknown #
point $-1 79.372539331937716 -10 0 #
coedge $-1 $416 $272 $418 $591 forward $175 $-1 #
edge $-1 $274 -79.372539331937716 $606 -59.16079783099616 $272 $455 forward 7 unknown #
coedge $-1 $273 $289 $607 $608 forward $175 $-1 #
point $-1 79.372539331937716 -10 20 #
coedge $-1 $607 $603 $275 $445 forward $609 $-1 #
edge $-1 $447 -10 $446 10 $444 $610 forward 7 unknown #
vertex $-1 $608 $611 #
vertex $-1 $604 $612 #
model_id-kcp-attrib $-1 $-1 $-1 $278 1 990663943 60 -1422131199 14 #
face $613 $429 $420 $10 $-1 $153 reversed single #
coedge $-1 $282 $281 $578 $614 reversed $283 $-1 #
coedge $-1 $298 $615 $285 $452 reversed $468 $-1 #
edge $-1 $302 -2.9741445743701038 $616 -1.7376565000161266 $285 $617 forward 7 unknown #
edge $-1 $580 1.7376565000161266 $454 2.9741445743701038 $286 $617 forward 7 unknown #
vertex $-1 $453 $618 #
straight-curve $-1 0 -10 20 -1 0 0 I I #
model_id-kcp-attrib $-1 $-1 $288 $175 1 990663943 60 -1422131199 25 #
coedge $-1 $619 $408 $289 $458 reversed $251 $-1 #
edge $620 $616 3.0581625669791785 $621 6.3666153937902008 $289 $622 forward 7 unknown #
model_id-kcp-attrib $-1 $623 $-1 $290 1 990663943 60 -1422131199 27 #
plane-surface $-1 0 0 20 0 0 1 1 0 0 forward_v I I I I #
edge $-1 $581 1.7376565000161264 $462 2.9741445743701038 $292 $624 forward 7 unknown #
vertex $-1 $461 $625 #
straight-curve $-1 0 -10 0 -1 0 0 I I #
coedge $-1 $294 $436 $575 $626 forward $180 $-1 #
coedge $-1 $615 $298 $294 $466 forward $468 $-1 #
edge $-1 $300 -2.9741445743701038 $627 -1.7376565000161264 $294 $624 forward 7 unknown #
model_id-kcp-attrib $-1 $-1 $295 $180 1 990663943 60 -1422131199 23 #
loop $628 $-1 $615 $404 #
straight-curve $-1 -59.16079783099616 10 10 0 0 -1 I I #
point $-1 -59.16079783099616 10 0 #
point $-1 -59.16079783099616 10 20 #
model_id-kcp-attrib $-1 $-1 $-1 $305 1 990663943 60 -1422131199 12 #
face $629 $278 $434 $10 $-1 $474 forward single #
plane-surface $-1 0 -10 10 0 1 0 0 0 1 forward_v I I I I #
plane-surface $-1 90 0 0 -1 0 0 0 0 1 forward_v I I I I #
coedge $-1 $312 $310 $314 $480 reversed $190 $-1 #
edge $-1 $325 -20 $482 20 $324 $630 forward 7 unknown #
vertex $-1 $480 $631 #
straight-curve $-1 -90 -90 0 0 0 -1 I I #
edge $-1 $478 -90 $482 90 $476 $632 forward 7 unknown #
straight-curve $-1 0 -90 -20 -1 0 0 I I #
vertex $-1 $317 $633 #
straight-curve $-1 0 90 -20 1 0 0 I I #
point $-1 90 90 -20 #
point $-1 90 -90 -20 #
straight-curve $-1 -90 0 20 0 -1 0 I I #
point $-1 -90 90 20 #
point $-1 -90 -90 20 #
straight-curve $-1 90 -90 0 0 0 -1 I I #
straight-curve $-1 90 90 0 0 0 -1 I I #
point $-1 10 0 20 #
point $-1 10 0 20 #
face $-1 $634 $635 $33 $-1 $636 reversed single #
plane-surface $-1 0 90 0 0 -1 0 0 0 -1 forward_v I I I I #
coedge $-1 $343 $505 $344 $500 forward $217 $-1 #
coedge $-1 $637 $638 $343 $497 forward $639 $-1 #
edge $-1 $507 -3.1415926535897931 $504 -1.5707963267948966 $496 $361 forward 7 unknown #
coedge $-1 $345 $344 $640 $641 reversed $136 $-1 #
coedge $-1 $642 $643 $644 $500 forward $645 $-1 #
edge $-1 $646 -40 $504 0 $499 $647 forward 7 unknown #
coedge $-1 $502 $346 $648 $521 forward $503 $-1 #
coedge $-1 $346 $501 $642 $649 forward $503 $-1 #
loop $-1 $-1 $346 $650 #
vertex $-1 $651 $652 #
coedge $-1 $495 $348 $653 $654 reversed $217 $-1 #
coedge $-1 $655 $656 $657 $349 forward $635 $-1 #
vertex $-1 $658 $659 #
straight-curve $-1 -90 0 -20 0 0 -1 I I #
coedge $-1 $660 $657 $351 $510 reversed $661 $-1 #
edge $-1 $534 -90 $353 0 $509 $662 forward 7 unknown #
face $-1 $526 $352 $33 $-1 $663 forward single #
edge $-1 $353 0 $664 90 $656 $662 forward 7 unknown #
point $-1 -90 0 20 #
coedge $-1 $665 $355 $358 $519 reversed $341 $-1 #
coedge $-1 $355 $665 $362 $523 reversed $341 $-1 #
coedge $-1 $666 $648 $345 $356 reversed $667 $-1 #
straight-curve $-1 90 0 -20 0 0 -1 I I #
coedge $-1 $370 $668 $357 $374 reversed $533 $-1 #
edge $-1 $536 -90 $360 0 $514 $669 forward 7 unknown #
face $-1 $670 $359 $33 $-1 $671 reversed single #
edge $-1 $360 0 $672 90 $648 $669 forward 7 unknown #
point $-1 90 0 -20 #
edge $-1 $365 0 $673 90 $515 $674 forward 7 unknown #
coedge $-1 $668 $370 $363 $525 reversed $533 $-1 #
edge $-1 $673 -90 $229 3.3742366240998092e-031 $524 $535 forward 7 unknown #
face $-1 $675 $364 $33 $-1 $663 forward single #
point $-1 90 0 20 #
coedge $-1 $529 $366 $676 $658 forward $530 $-1 #
coedge $-1 $366 $528 $368 $532 forward $530 $-1 #
loop $-1 $-1 $366 $670 #
coedge $-1 $369 $368 $660 $677 reversed $371 $-1 #
edge $-1 $678 -90 $230 -3.3742366240998092e-031 $368 $537 forward 7 unknown #
loop $-1 $-1 $370 $679 #
vertex $-1 $372 $680 #
straight-curve $-1 0 90 20 -1 0 0 I I #
vertex $-1 $519 $681 #
straight-curve $-1 0 90 -20 1 0 0 I I #
face $-1 $682 $683 $35 $-1 $684 forward single #
loop $-1 $-1 $685 $376 #
cone-surface $-1 0 0 0 0 0 1 80 0 0 1 I I 0 1 80 forward I I I I #
coedge $-1 $686 $687 $688 $689 forward $377 $-1 #
coedge $-1 $690 $379 $687 $691 reversed $233 $-1 #
coedge $-1 $379 $690 $380 $547 forward $233 $-1 #
coedge $-1 $382 $688 $379 $545 reversed $245 $-1 #
edge $-1 $548 1.7376565000161264 $692 2.9741445743701038 $379 $693 forward 7 unknown #
coedge $-1 $381 $380 $694 $695 reversed $143 $-1 #
edge $-1 $696 0 $548 20 $543 $697 forward 7 unknown #
vertex $-1 $547 $698 #
ellipse-curve $-1 0 -60 20 0 0 -1 10 0 0 1 I I #
coedge $-1 $694 $388 $384 $551 forward $556 $-1 #
edge $699 $391 0.16744807921968935 $552 1.403936153573667 $384 $700 forward 7 unknown #
vertex $-1 $551 $701 #
straight-curve $-1 9.9652172859178165 -59.166666666666671 0 0 0 1 I I #
point $-1 9.9652172859178165 -59.166666666666671 20 #
coedge $-1 $388 $702 $393 $561 forward $556 $-1 #
loop $-1 $-1 $555 $569 #
convexity-sys-attrib $-1 $-1 $-1 $389 #
straight-curve $-1 0 -10 0 -1 0 0 I I #
point $-1 59.16079783099616 -10 0 #
coedge $-1 $394 $393 $703 $704 forward $395 $-1 #
edge $705 $706 -0.1253278311680654 $396 0.1253278311680654 $393 $707 forward 7 unknown #
face $-1 $400 $395 $35 $-1 $708 forward single #
point $-1 79.372539331937716 -10 0 #
coedge $-1 $709 $398 $710 $711 reversed $245 $-1 #
coedge $-1 $703 $712 $398 $566 forward $713 $-1 #
edge $-1 $714 59.16079783099616 $567 79.372539331937716 $565 $715 forward 7 unknown #
vertex $-1 $704 $716 #
ellipse-curve $-1 0 0 20 0 0 -1 80 0 0 1 I I #
face $-1 $-1 $556 $35 $-1 $717 reversed single #
plane-surface $-1 4.8849813083506888e-015 -1.9428902930940239e-015 20 0 0 1 1 0 0 forward_v I I I I #
model_id-kcp-attrib $-1 $-1 $-1 $404 1 990663943 60 -1422131199 9 #
face $718 $186 $609 $10 $-1 $153 reversed single #
model_id-kcp-attrib $-1 $-1 $-1 $407 1 990663943 60 -1422131199 29 #
coedge $-1 $574 $574 $719 $720 reversed $407 $-1 #
coedge $-1 $408 $619 $464 $626 reversed $251 $-1 #
coedge $-1 $603 $607 $408 $577 forward $609 $-1 #
edge $721 $621 -20 $722 0 $576 $723 forward 7 unknown #
coedge $-1 $410 $409 $450 $614 forward $152 $-1 #
attrib_edge_convexity-kcp-attrib $-1 $724 $-1 $412 1 #
vertex $-1 $412 $725 #
vertex $-1 $415 $726 #
straight-curve $-1 -9.9652172859178325 -59.166666666666671 0 0 0 -1 I I #
attrib_edge_convexity-kcp-attrib $-1 $727 $-1 $414 1 #
vertex $-1 $414 $728 #
ellipse-curve $-1 0 -60 -20 0 0 1 10 0 0 1 I I #
attrib_edge_convexity-kcp-attrib $-1 $729 $-1 $415 1 #
ellipse-curve $-1 0 -60 0 0 0 -1 10 0 0 1 I I #
attrib_edge_convexity-kcp-attrib $-1 $730 $-1 $417 1 #
ellipse-curve $-1 0 -60 20 0 0 -1 10 0 0 1 I I #
coedge $-1 $419 $418 $602 $731 forward $420 $-1 #
edge $-1 $606 0.16744807921968935 $423 1.4039361535736665 $440 $617 forward 7 unknown #
edge $-1 $605 0.16744807921968935 $422 1.403936153573667 $437 $624 forward 7 unknown #
model_id-kcp-attrib $-1 $-1 $-1 $420 1 990663943 60 -1422131199 22 #
convexity-sys-attrib $-1 $-1 $421 $260 #
point $-1 9.9652172859178147 -59.166666666666671 0 #
point $-1 9.9652172859178325 -59.166666666666671 20 #
point $-1 90 0 20 #
model_id-kcp-attrib $-1 $-1 $-1 $428 1 990663943 60 -1422131199 26 #
loop $732 $-1 $719 $429 #
model_id-kcp-attrib $-1 $733 $-1 $429 1 990663943 60 -1422131199 18 #
plane-surface $-1 0 0 -20 0 0 -1 -1 0 0 forward_v I I I I #
coedge $-1 $433 $432 $590 $731 reversed $434 $-1 #
coedge $-1 $444 $576 $436 $604 forward $609 $-1 #
edge $-1 $722 -1.403936153573667 $447 -0.16744807921968935 $436 $624 forward 7 unknown #
vertex $-1 $438 $734 #
vertex $-1 $731 $735 #
coedge $-1 $576 $444 $442 $608 reversed $609 $-1 #
edge $-1 $621 -1.4039361535736665 $446 -0.16744807921968935 $442 $617 forward 7 unknown #
loop $736 $-1 $576 $572 #
straight-curve $-1 59.16079783099616 10 10 0 0 1 I I #
point $-1 59.16079783099616 10 20 #
point $-1 59.16079783099616 10 0 #
model_id-kcp-attrib $-1 $-1 $-1 $449 1 990663943 60 -1422131199 15 #
edge $-1 $462 -10 $454 10 $578 $737 forward 7 unknown #
coedge $-1 $451 $465 $619 $738 forward $468 $-1 #
vertex $-1 $452 $739 #
ellipse-curve $-1 0 0 20 0 0 -1 60 0 0 1 I I #
point $-1 -59.16079783099616 -10 20 #
coedge $-1 $575 $457 $615 $738 reversed $251 $-1 #
attrib_edge_convexity-kcp-attrib $-1 $740 $-1 $458 1 #
vertex $-1 $577 $741 #
ellipse-curve $-1 0 60 20 0 0 -1 10 0 0 1 I I #
model_id-kcp-attrib $-1 $742 $459 $290 1 990663943 60 -1422131199 19 #
ellipse-curve $-1 0 0 0 0 0 -1 60 0 0 1 I I #
point $-1 -59.16079783099616 -10 0 #
edge $743 $722 0.08343008661061467 $627 3.0581625669791785 $464 $744 forward 7 unknown #
vertex $-1 $466 $745 #
model_id-kcp-attrib $-1 $-1 $-1 $468 1 990663943 60 -1422131199 32 #
model_id-kcp-attrib $-1 $-1 $-1 $473 1 990663943 60 -1422131199 13 #
straight-curve $-1 -90 90 0 0 0 -1 I I #
point $-1 -90 -90 -20 #
straight-curve $-1 -90 0 -20 0 1 0 I I #
point $-1 -90 90 -20 #
face $-1 $511 $746 $33 $-1 $663 forward single #
loop $-1 $-1 $506 $493 #
plane-surface $-1 -90 0 0 1 0 0 0 0 -1 forward_v I I I I #
coedge $-1 $638 $496 $747 $651 forward $639 $-1 #
coedge $-1 $496 $637 $655 $748 forward $639 $-1 #
loop $-1 $-1 $496 $749 #
coedge $-1 $750 $751 $498 $641 forward $752 $-1 #
edge $-1 $365 0 $646 1.5707963267948966 $640 $354 forward 7 unknown #
coedge $-1 $753 $499 $502 $649 reversed $645 $-1 #
coedge $-1 $499 $753 $750 $754 reversed $645 $-1 #
coedge $-1 $755 $747 $495 $500 reversed $756 $-1 #
loop $-1 $-1 $499 $757 #
vertex $-1 $754 $758 #
straight-curve $-1 -3.3742366240998092e-031 -90 -20 0 0 -1 I I #
coedge $-1 $516 $759 $501 $521 reversed $667 $-1 #
edge $-1 $672 -90 $504 3.3742366240998092e-031 $642 $760 forward 7 unknown #
face $-1 $520 $503 $33 $-1 $671 reversed single #
edge $-1 $504 3.3742366240998092e-031 $761 90 $747 $760 forward 7 unknown #
point $-1 -3.3742366240998092e-031 -90 -20 #
coedge $-1 $762 $763 $505 $654 forward $746 $-1 #
edge $-1 $646 1.5707963267948966 $353 3.1415926535897931 $653 $354 forward 7 unknown #
coedge $-1 $764 $506 $638 $748 reversed $635 $-1 #
coedge $-1 $506 $764 $762 $512 reversed $635 $-1 #
coedge $-1 $509 $676 $219 $349 reversed $661 $-1 #
edge $-1 $507 0 $678 90 $676 $765 forward 7 unknown #
point $-1 -90 0 -20 #
coedge $-1 $676 $509 $531 $677 forward $661 $-1 #
loop $-1 $-1 $657 $766 #
straight-curve $-1 -90 0 20 0 -1 0 I I #
plane-surface $-1 0 0 20 0 0 1 1 0 0 forward_v I I I I #
vertex $-1 $512 $767 #
coedge $-1 $515 $514 $668 $768 reversed $341 $-1 #
coedge $-1 $759 $516 $751 $769 reversed $667 $-1 #
loop $-1 $-1 $516 $770 #
coedge $-1 $518 $524 $665 $768 forward $533 $-1 #
straight-curve $-1 90 0 -20 0 -1 0 I I #
face $-1 $771 $530 $33 $-1 $671 reversed single #
plane-surface $-1 0 0 -20 0 0 1 1 0 0 forward_v I I I I #
vertex $-1 $772 $773 #
vertex $-1 $523 $774 #
straight-curve $-1 90 0 20 0 1 0 I I #
face $-1 $757 $752 $33 $-1 $663 forward single #
coedge $-1 $657 $660 $528 $658 reversed $661 $-1 #
edge $-1 $534 -20 $678 20 $531 $775 forward 7 unknown #
vertex $-1 $532 $776 #
face $-1 $770 $533 $33 $-1 $494 reversed single #
point $-1 -90 90 20 #
point $-1 90 90 -20 #
face $-1 $777 $778 $35 $-1 $779 forward single #
loop $-1 $-1 $780 $538 #
plane-surface $-1 -79.372539331937716 10 0 0 1 0 0 0 1 forward_v I I I I #
coedge $-1 $781 $782 $783 $784 forward $539 $-1 #
coedge $-1 $785 $541 $782 $786 reversed $377 $-1 #
coedge $-1 $541 $785 $542 $691 forward $377 $-1 #
coedge $-1 $544 $783 $541 $689 reversed $245 $-1 #
edge $-1 $692 59.160797830996174 $787 79.372539331937716 $541 $788 forward 7 unknown #
coedge $-1 $543 $542 $789 $790 reversed $233 $-1 #
edge $-1 $791 0 $692 20 $687 $792 forward 7 unknown #
vertex $-1 $691 $793 #
ellipse-curve $-1 0 0 20 0 0 -1 60 0 0 1 I I #
coedge $-1 $789 $550 $546 $695 forward $556 $-1 #
edge $794 $552 -0.08343008661061467 $696 3.2250227402004077 $546 $795 forward 7 unknown #
vertex $-1 $695 $796 #
straight-curve $-1 -9.9652172859178165 -59.166666666666671 0 0 0 1 I I #
point $-1 -9.9652172859178165 -59.166666666666671 20 #
convexity-sys-attrib $-1 $-1 $-1 $551 #
ellipse-curve $-1 0 0 0 0 0 -1 60 0 0 1 I I #
point $-1 9.9652172859178147 -59.166666666666671 0 #
coedge $-1 $555 $797 $798 $799 forward $556 $-1 #
coedge $-1 $798 $565 $560 $704 reversed $713 $-1 #
edge $-1 $706 0 $567 20 $560 $800 forward 7 unknown #
convexity-sys-attrib $-1 $-1 $-1 $561 #
vertex $-1 $561 $801 #
ellipse-curve $-1 0 0 0 0 0 -1 80 0 0 1 I I #
cone-surface $-1 0 0 0 0 0 1 80 0 0 1 I I 0 1 80 forward I I I I #
coedge $-1 $802 $564 $803 $804 reversed $245 $-1 #
coedge $-1 $805 $806 $564 $711 forward $807 $-1 #
edge $-1 $808 -1.403936153573667 $714 -0.16744807921968935 $710 $809 forward 7 unknown #
coedge $-1 $565 $798 $805 $810 forward $713 $-1 #
loop $-1 $-1 $565 $811 #
vertex $-1 $810 $812 #
straight-curve $-1 0 10 20 1 0 0 I I #
point $-1 79.372539331937716 10 20 #
plane-surface $-1 4.8849813083506888e-015 -1.9428902930940239e-015 0 0 0 1 1 0 0 forward_v I I I I #
model_id-kcp-attrib $-1 $-1 $-1 $572 1 990663943 60 -1422131199 10 #
coedge $-1 $719 $719 $574 $720 forward $599 $-1 #
edge $813 $814 0 $814 6.2831853071795862 $719 $815 forward 7 unknown #
attrib_edge_convexity-kcp-attrib $-1 $816 $-1 $577 1 #
vertex $-1 $626 $817 #
straight-curve $-1 9.9652172859178325 59.166666666666671 0 0 0 -1 I I #
convexity-sys-attrib $-1 $-1 $579 $412 #
point $-1 -9.9652172859178325 -59.166666666666671 20 #
point $-1 -9.9652172859178147 -59.166666666666671 0 #
convexity-sys-attrib $-1 $-1 $583 $414 #
point $-1 10 -60 -20 #
convexity-sys-attrib $-1 $-1 $586 $415 #
convexity-sys-attrib $-1 $-1 $588 $417 #
edge $-1 $606 -10 $605 10 $590 $818 forward 7 unknown #
model_id-kcp-attrib $-1 $-1 $-1 $599 1 990663943 60 -1422131199 34 #
model_id-kcp-attrib $-1 $-1 $600 $429 1 990663943 60 -1422131199 16 #
point $-1 59.16079783099616 -10 0 #
point $-1 59.16079783099616 -10 20 #
model_id-kcp-attrib $-1 $-1 $-1 $609 1 990663943 60 -1422131199 30 #
straight-curve $-1 -59.16079783099616 -10 10 0 0 1 I I #
edge $819 $627 0 $616 20 $615 $820 forward 7 unknown #
point $-1 -9.9652172859178325 59.166666666666671 20 #
convexity-sys-attrib $-1 $-1 $620 $458 #
point $-1 9.9652172859178325 59.166666666666671 20 #
model_id-kcp-attrib $-1 $-1 $623 $290 1 990663943 60 -1422131199 17 #
attrib_edge_convexity-kcp-attrib $-1 $821 $-1 $626 1 #
ellipse-curve $-1 0 60 0 0 0 -1 10 0 0 1 I I #
point $-1 -9.9652172859178147 59.166666666666671 0 #
loop $-1 $-1 $653 $634 #
coedge $-1 $644 $822 $637 $651 reversed $756 $-1 #
edge $-1 $761 -90 $507 0 $655 $765 forward 7 unknown #
face $-1 $650 $639 $33 $-1 $671 reversed single #
coedge $-1 $751 $640 $643 $754 forward $752 $-1 #
coedge $-1 $640 $750 $666 $769 forward $752 $-1 #
loop $-1 $-1 $640 $675 #
coedge $-1 $643 $642 $759 $772 reversed $645 $-1 #
edge $-1 $646 -3.3742366240998092e-031 $823 90 $643 $824 forward 7 unknown #
coedge $-1 $822 $644 $763 $825 reversed $756 $-1 #
loop $-1 $-1 $644 $771 #
face $-1 $749 $645 $33 $-1 $826 reversed single #
point $-1 -3.3742366240998092e-031 -90 20 #
coedge $-1 $648 $666 $753 $772 forward $667 $-1 #
straight-curve $-1 0 -90 -20 -1 0 0 I I #
vertex $-1 $748 $827 #
coedge $-1 $763 $653 $656 $512 forward $746 $-1 #
coedge $-1 $653 $762 $755 $825 forward $746 $-1 #
coedge $-1 $656 $655 $822 $828 reversed $635 $-1 #
straight-curve $-1 -90 0 -20 0 1 0 I I #
face $-1 $679 $661 $33 $-1 $636 reversed single #
point $-1 -90 -90 20 #
edge $-1 $673 -20 $536 20 $665 $829 forward 7 unknown #
edge $-1 $823 -90 $365 0 $666 $674 forward 7 unknown #
face $-1 $-1 $667 $33 $-1 $342 reversed single #
face $-1 $766 $756 $33 $-1 $826 reversed single #
edge $-1 $823 -20 $672 20 $759 $830 forward 7 unknown #
point $-1 90 -90 -20 #
point $-1 90 90 20 #
straight-curve $-1 -90 90 0 0 0 -1 I I #
point $-1 -90 90 -20 #
face $-1 $831 $832 $35 $-1 $833 forward single #
loop $-1 $-1 $834 $682 #
cone-surface $-1 0 0 0 0 0 1 60 0 0 1 I I 0 1 60 forward I I I I #
coedge $-1 $835 $836 $837 $838 forward $683 $-1 #
coedge $-1 $839 $685 $836 $840 reversed $539 $-1 #
coedge $-1 $685 $839 $686 $786 forward $539 $-1 #
coedge $-1 $688 $837 $685 $784 reversed $245 $-1 #
edge $-1 $787 3.0162648224217277 $841 3.2669204847578586 $685 $842 forward 7 unknown #
coedge $-1 $687 $686 $843 $844 reversed $377 $-1 #
edge $-1 $845 0 $787 20 $782 $846 forward 7 unknown #
vertex $-1 $786 $847 #
straight-curve $-1 0 -10 20 -1 0 0 I I #
coedge $-1 $843 $694 $690 $790 forward $556 $-1 #
edge $848 $696 1.7376565000161264 $791 2.9741445743701038 $690 $849 forward 7 unknown #
vertex $-1 $790 $850 #
straight-curve $-1 -59.160797830996174 -10 0 0 0 1 I I #
point $-1 -59.160797830996174 -10 20 #
convexity-sys-attrib $-1 $-1 $-1 $695 #
ellipse-curve $-1 0 -60 0 0 0 -1 10 0 0 1 I I #
point $-1 -9.9652172859178147 -59.166666666666671 0 #
coedge $-1 $702 $851 $852 $853 forward $556 $-1 #
coedge $-1 $712 $703 $702 $799 reversed $713 $-1 #
edge $854 $855 59.16079783099616 $706 79.372539331937716 $798 $856 forward 7 unknown #
straight-curve $-1 79.372539331937716 10 0 0 0 1 I I #
point $-1 79.372539331937716 10 0 #
coedge $-1 $837 $709 $834 $857 reversed $245 $-1 #
coedge $-1 $858 $859 $709 $804 forward $832 $-1 #
edge $-1 $860 3.0581625669791785 $808 6.3666153937902008 $803 $861 forward 7 unknown #
coedge $-1 $852 $710 $712 $810 reversed $807 $-1 #
coedge $-1 $710 $852 $858 $862 forward $807 $-1 #
loop $-1 $-1 $710 $831 #
vertex $-1 $862 $863 #
ellipse-curve $-1 0 0 20 0 0 -1 60 0 0 1 I I #
edge $-1 $855 0 $714 20 $712 $864 forward 7 unknown #
face $-1 $562 $713 $35 $-1 $865 forward single #
point $-1 59.16079783099616 10 20 #
attrib_edge_convexity-kcp-attrib $-1 $866 $-1 $720 1 #
vertex $-1 $720 $867 #
ellipse-curve $-1 0 60 -20 0 0 1 10 0 0 1 I I #
convexity-sys-attrib $-1 $-1 $721 $577 #
point $-1 9.9652172859178147 59.166666666666671 0 #
straight-curve $-1 59.16079783099616 -10 10 0 0 -1 I I #
attrib_edge_convexity-kcp-attrib $-1 $868 $-1 $738 1 #
straight-curve $-1 -9.9652172859178325 59.166666666666671 0 0 0 1 I I #
convexity-sys-attrib $-1 $-1 $743 $626 #
coedge $-1 $747 $755 $764 $828 forward $756 $-1 #
vertex $-1 $769 $869 #
straight-curve $-1 0 -90 20 1 0 0 I I #
edge $-1 $664 -90 $646 -3.3742366240998092e-031 $755 $824 forward 7 unknown #
plane-surface $-1 0 -90 0 0 1 0 0 0 1 forward_v I I I I #
point $-1 -90 -90 -20 #
edge $-1 $664 -20 $761 20 $764 $870 forward 7 unknown #
straight-curve $-1 90 90 0 0 0 -1 I I #
straight-curve $-1 90 -90 0 0 0 -1 I I #
face $-1 $811 $807 $35 $-1 $871 forward single #
loop $-1 $-1 $803 $777 #
cone-surface $-1 0 60 0 0 0 1 10 0 0 1 I I 0 1 10 forward I I I I #
coedge $-1 $872 $873 $802 $857 forward $778 $-1 #
coedge $-1 $874 $780 $873 $875 reversed $683 $-1 #
coedge $-1 $780 $874 $781 $840 forward $683 $-1 #
coedge $-1 $783 $802 $780 $838 reversed $245 $-1 #
edge $-1 $841 -79.372539331937716 $876 -59.160797830996174 $780 $877 forward 7 unknown #
coedge $-1 $782 $781 $878 $879 reversed $539 $-1 #
edge $-1 $880 0 $841 20 $836 $881 forward 7 unknown #
vertex $-1 $840 $882 #
ellipse-curve $-1 0 0 20 0 0 -1 80 0 0 1 I I #
coedge $-1 $878 $789 $785 $844 forward $556 $-1 #
edge $883 $791 59.16079783099616 $845 79.372539331937716 $785 $884 forward 7 unknown #
vertex $-1 $844 $885 #
straight-curve $-1 -79.372539331937716 -10 0 0 0 1 I I #
point $-1 -79.372539331937716 -10 20 #
convexity-sys-attrib $-1 $-1 $-1 $790 #
ellipse-curve $-1 0 0 0 0 0 -1 60 0 0 1 I I #
point $-1 -59.16079783099616 -10 0 #
coedge $-1 $797 $886 $887 $888 forward $556 $-1 #
coedge $-1 $806 $805 $797 $853 reversed $807 $-1 #
edge $889 $890 -1.403936153573667 $855 -0.16744807921968935 $852 $891 forward 7 unknown #
convexity-sys-attrib $-1 $-1 $-1 $799 #
vertex $-1 $853 $892 #
straight-curve $-1 0 10 0 1 0 0 I I #
edge $-1 $876 -2.9741445743701038 $860 -1.7376565000161264 $834 $893 forward 7 unknown #
coedge $-1 $887 $803 $806 $862 reversed $832 $-1 #
coedge $-1 $803 $887 $872 $894 forward $832 $-1 #
vertex $-1 $894 $895 #
ellipse-curve $-1 0 60 20 0 0 -1 10 0 0 1 I I #
edge $-1 $890 0 $808 20 $806 $896 forward 7 unknown #
point $-1 9.9652172859178165 59.166666666666671 20 #
straight-curve $-1 59.16079783099616 10 0 0 0 1 I I #
plane-surface $-1 59.16079783099616 10 0 0 1 0 0 0 1 forward_v I I I I #
convexity-sys-attrib $-1 $-1 $813 $720 #
point $-1 10 60 -20 #
convexity-sys-attrib $-1 $-1 $819 $738 #
point $-1 90 -90 20 #
straight-curve $-1 -90 -90 0 0 0 -1 I I #
cone-surface $-1 0 0 0 0 0 1 60 0 0 1 I I 0 1 60 forward I I I I #
coedge $-1 $897 $834 $859 $894 reversed $778 $-1 #
coedge $-1 $834 $897 $835 $875 forward $778 $-1 #
coedge $-1 $836 $835 $898 $899 reversed $683 $-1 #
edge $-1 $900 0 $876 20 $873 $901 forward 7 unknown #
vertex $-1 $875 $902 #
straight-curve $-1 0 10 20 1 0 0 I I #
coedge $-1 $898 $843 $839 $879 forward $556 $-1 #
edge $903 $845 3.0162648224217277 $880 3.2669204847578586 $839 $904 forward 7 unknown #
vertex $-1 $879 $905 #
straight-curve $-1 -79.372539331937716 10 0 0 0 1 I I #
point $-1 -79.372539331937716 10 20 #
convexity-sys-attrib $-1 $-1 $-1 $844 #
straight-curve $-1 0 -10 0 -1 0 0 I I #
point $-1 -79.372539331937716 -10 0 #
coedge $-1 $851 $898 $897 $906 forward $556 $-1 #
coedge $-1 $859 $858 $851 $888 reversed $832 $-1 #
edge $907 $908 3.0581625669791785 $890 6.3666153937902008 $887 $909 forward 7 unknown #
convexity-sys-attrib $-1 $-1 $-1 $853 #
vertex $-1 $888 $910 #
ellipse-curve $-1 0 0 0 0 0 -1 60 0 0 1 I I #
point $-1 59.16079783099616 10 0 #
ellipse-curve $-1 0 0 20 0 0 -1 60 0 0 1 I I #
edge $-1 $908 0 $860 20 $859 $911 forward 7 unknown #
point $-1 -9.9652172859178165 59.166666666666671 20 #
straight-curve $-1 9.9652172859178165 59.166666666666671 0 0 0 1 I I #
coedge $-1 $873 $872 $886 $906 reversed $778 $-1 #
coedge $-1 $886 $878 $874 $899 forward $556 $-1 #
edge $912 $880 -79.372539331937716 $900 -59.16079783099616 $874 $913 forward 7 unknown #
vertex $-1 $899 $914 #
straight-curve $-1 -59.160797830996174 10 0 0 0 1 I I #
point $-1 -59.160797830996174 10 20 #
convexity-sys-attrib $-1 $-1 $-1 $879 #
ellipse-curve $-1 0 0 0 0 0 -1 80 0 0 1 I I #
point $-1 -79.372539331937716 10 0 #
edge $915 $900 -2.9741445743701038 $908 -1.7376565000161264 $897 $916 forward 7 unknown #
convexity-sys-attrib $-1 $-1 $-1 $888 #
vertex $-1 $906 $917 #
ellipse-curve $-1 0 60 0 0 0 -1 10 0 0 1 I I #
point $-1 9.9652172859178147 59.166666666666671 0 #
straight-curve $-1 -9.9652172859178165 59.166666666666671 0 0 0 1 I I #
convexity-sys-attrib $-1 $-1 $-1 $899 #
straight-curve $-1 0 10 0 1 0 0 I I #
point $-1 -59.16079783099616 10 0 #
convexity-sys-attrib $-1 $-1 $-1 $906 #
ellipse-curve $-1 0 0 0 0 0 -1 60 0 0 1 I I #
point $-1 -9.9652172859178147 59.166666666666671 0 #
End-of-ACIS-data 