600 0 1 0           
81 GICL ACIS Healer - Source: /gicl/data5/repository/Heriot_Watt/ex06/ex06.sat - 6 0 18 ACIS 6.0.3 Solaris 24 Sat Apr 13 23:39:13 2002 
1 9.999999999999999547e-07 1.000000000000000036e-10 
body $-1 $1 $-1 $-1 #
lump $-1 $-1 $2 $0 #
shell $-1 $-1 $-1 $3 $-1 $1 #
face $-1 $4 $5 $2 $-1 $6 reversed single #
face $-1 $7 $8 $2 $-1 $6 reversed single #
loop $-1 $-1 $9 $3 #
cone-surface $-1 0 0 0 0 0 1 80 0 0 1 I I 0 1 80 forward I I I I #
face $-1 $10 $11 $2 $-1 $12 forward single #
loop $-1 $-1 $13 $4 #
coedge $-1 $14 $15 $16 $17 reversed $5 $-1 #
face $-1 $18 $19 $2 $-1 $20 reversed single #
loop $-1 $21 $22 $7 #
cone-surface $-1 0 0 0 0 0 1 90 0 0 1 I I 0 1 90 forward I I I I #
coedge $-1 $23 $24 $25 $26 reversed $8 $-1 #
coedge $-1 $27 $9 $28 $29 reversed $5 $-1 #
coedge $-1 $9 $27 $30 $31 reversed $5 $-1 #
coedge $-1 $32 $33 $9 $17 forward $34 $-1 #
edge $-1 $35 -20 $36 -0 $16 $37 reversed 7 unknown #
face $-1 $38 $39 $2 $-1 $40 reversed single #
loop $-1 $41 $42 $10 #
cone-surface $-1 0 -60 0 0 0 1 10 0 0 1 I I 0 1 10 forward I I I I #
loop $-1 $-1 $43 $7 #
coedge $-1 $22 $22 $44 $45 reversed $11 $-1 #
coedge $-1 $46 $13 $47 $48 reversed $8 $-1 #
coedge $-1 $13 $46 $49 $50 reversed $8 $-1 #
coedge $-1 $51 $52 $13 $26 forward $53 $-1 #
edge $-1 $54 -0 $55 20 $25 $56 reversed 7 unknown #
coedge $-1 $15 $14 $57 $58 reversed $5 $-1 #
coedge $-1 $59 $60 $14 $29 forward $61 $-1 #
edge $-1 $62 3.016264822421727665 $35 3.266920484757858567 $28 $63 forward 7 unknown #
coedge $-1 $64 $65 $15 $31 forward $66 $-1 #
edge $-1 $36 -3.266920484757858567 $67 -3.016264822421727665 $30 $68 reversed 7 unknown #
coedge $-1 $69 $16 $65 $70 forward $34 $-1 #
coedge $-1 $16 $69 $59 $71 reversed $34 $-1 #
loop $-1 $-1 $69 $72 #
vertex $-1 $71 $73 #
vertex $-1 $31 $74 #
straight-curve $-1 -79.37253933193771616 10 0 0 0 1 I I #
face $-1 $75 $76 $2 $-1 $77 reversed single #
loop $-1 $-1 $78 $18 #
cone-surface $-1 0 0 10 0 0 1 60 0 0 1 I I 0 1 60 forward I I I I #
loop $-1 $-1 $79 $10 #
coedge $-1 $80 $81 $82 $83 reversed $19 $-1 #
coedge $-1 $43 $43 $84 $85 reversed $21 $-1 #
coedge $-1 $44 $44 $22 $45 forward $86 $-1 #
edge $-1 $87 0 $87 6.283185307179586232 $44 $88 forward 7 unknown #
coedge $-1 $24 $23 $89 $90 reversed $8 $-1 #
coedge $-1 $91 $92 $23 $48 forward $66 $-1 #
edge $-1 $93 -0.1253278311680653956 $54 0.1253278311680653956 $47 $68 reversed 7 unknown #
coedge $-1 $94 $95 $24 $50 forward $61 $-1 #
edge $-1 $55 -0.1253278311680653956 $96 0.1253278311680653956 $49 $63 forward 7 unknown #
coedge $-1 $97 $25 $95 $98 reversed $53 $-1 #
coedge $-1 $25 $97 $91 $99 forward $53 $-1 #
loop $-1 $-1 $25 $100 #
vertex $-1 $48 $101 #
vertex $-1 $98 $102 #
straight-curve $-1 79.37253933193771616 10 0 0 0 -1 I I #
coedge $-1 $103 $104 $27 $58 forward $105 $-1 #
edge $-1 $67 -0 $62 20 $57 $106 reversed 7 unknown #
coedge $-1 $107 $28 $33 $71 forward $61 $-1 #
coedge $-1 $28 $108 $103 $109 forward $61 $-1 #
loop $-1 $-1 $110 $111 #
vertex $-1 $58 $112 #
ellipse-curve $-1 0 0 20 0 0 -1 80 0 0 1 I I #
coedge $-1 $113 $30 $104 $114 reversed $66 $-1 #
coedge $-1 $30 $115 $32 $70 reversed $66 $-1 #
loop $-1 $-1 $116 $75 #
vertex $-1 $31 $117 #
ellipse-curve $-1 0 0 0 0 0 -1 80 0 0 1 I I #
coedge $-1 $33 $32 $118 $119 reversed $34 $-1 #
edge $-1 $36 -79.37253933193771616 $120 -59.16079783099615952 $32 $121 forward 7 unknown #
edge $-1 $35 -79.37253933193771616 $122 -59.16079783099615952 $59 $123 forward 7 unknown #
face $-1 $124 $34 $2 $-1 $125 forward single #
point $-1 -79.37253933193771616 10 20 #
point $-1 -79.37253933193771616 10 0 #
face $-1 $126 $66 $2 $-1 $127 reversed single #
loop $-1 $128 $129 $38 #
cone-surface $-1 0 60 0 0 0 1 10 0 0 1 I I 0 1 10 forward I I I I #
coedge $-1 $130 $131 $132 $133 forward $39 $-1 #
coedge $-1 $79 $79 $134 $135 reversed $41 $-1 #
coedge $-1 $132 $42 $116 $136 reversed $19 $-1 #
coedge $-1 $42 $132 $137 $138 reversed $19 $-1 #
coedge $-1 $139 $140 $42 $83 forward $141 $-1 #
edge $-1 $142 0 $143 20 $82 $144 forward 7 unknown #
coedge $-1 $84 $84 $43 $85 forward $145 $-1 #
edge $-1 $146 0 $146 6.283185307179586232 $84 $147 forward 7 unknown #
loop $-1 $148 $44 $149 #
vertex $-1 $45 $150 #
ellipse-curve $-1 0 0 -20 0 0 -1 90 0 0 1 I I #
coedge $-1 $151 $152 $46 $90 forward $153 $-1 #
edge $-1 $96 -20 $93 -0 $89 $154 reversed 7 unknown #
coedge $-1 $155 $47 $52 $99 reversed $66 $-1 #
coedge $-1 $47 $156 $151 $157 reversed $66 $-1 #
vertex $-1 $48 $158 #
coedge $-1 $159 $49 $152 $160 forward $61 $-1 #
coedge $-1 $49 $161 $51 $98 forward $61 $-1 #
vertex $-1 $160 $162 #
coedge $-1 $52 $51 $163 $164 reversed $53 $-1 #
edge $-1 $165 59.16079783099615952 $55 79.37253933193771616 $95 $123 forward 7 unknown #
edge $-1 $166 59.16079783099615952 $54 79.37253933193771616 $52 $121 forward 7 unknown #
face $-1 $167 $53 $2 $-1 $125 forward single #
point $-1 79.37253933193771616 10 0 #
point $-1 79.37253933193771616 10 20 #
coedge $-1 $168 $57 $60 $109 reversed $105 $-1 #
coedge $-1 $57 $168 $64 $114 forward $105 $-1 #
loop $-1 $-1 $168 $124 #
straight-curve $-1 -79.37253933193771616 -10 0 0 0 -1 I I #
coedge $-1 $110 $59 $169 $170 forward $61 $-1 #
coedge $-1 $60 $137 $131 $171 forward $61 $-1 #
edge $-1 $172 59.16079783099615952 $62 79.37253933193771616 $60 $173 forward 7 unknown #
coedge $-1 $161 $107 $174 $175 forward $61 $-1 #
face $-1 $-1 $145 $2 $-1 $176 forward single #
point $-1 -79.37253933193771616 -10 20 #
coedge $-1 $116 $64 $130 $177 reversed $66 $-1 #
edge $-1 $178 59.16079783099615952 $67 79.37253933193771616 $104 $179 forward 7 unknown #
coedge $-1 $65 $180 $181 $182 reversed $66 $-1 #
coedge $-1 $156 $113 $80 $136 forward $66 $-1 #
point $-1 -79.37253933193771616 -10 0 #
coedge $-1 $181 $169 $69 $119 forward $183 $-1 #
edge $-1 $122 -10 $120 10 $118 $184 forward 7 unknown #
vertex $-1 $70 $185 #
straight-curve $-1 0 10 0 1 0 0 I I #
vertex $-1 $71 $186 #
straight-curve $-1 0 10 20 1 0 0 I I #
face $-1 $187 $105 $2 $-1 $188 forward single #
plane-surface $-1 0 10 10 0 -1 0 0 0 -1 forward_v I I I I #
face $-1 $189 $183 $2 $-1 $40 reversed single #
plane-surface $-1 0 0 0 0 0 -1 -1 0 0 forward_v I I I I #
loop $-1 $-1 $190 $38 #
coedge $-1 $174 $191 $192 $193 reversed $76 $-1 #
coedge $-1 $194 $78 $113 $177 forward $39 $-1 #
coedge $-1 $78 $194 $108 $171 reversed $39 $-1 #
coedge $-1 $81 $80 $78 $133 reversed $19 $-1 #
edge $-1 $195 -20 $196 0 $78 $197 forward 7 unknown #
coedge $-1 $134 $134 $79 $135 forward $148 $-1 #
edge $-1 $198 0 $198 6.283185307179586232 $134 $199 forward 7 unknown #
edge $-1 $196 -3.058162566979178543 $142 -0.08343008661061468434 $116 $200 forward 7 unknown #
coedge $-1 $108 $159 $81 $138 forward $61 $-1 #
edge $-1 $143 -0.08343008661061453168 $195 3.225022740200407689 $137 $201 forward 7 unknown #
coedge $-1 $202 $82 $159 $203 reversed $141 $-1 #
coedge $-1 $82 $202 $156 $204 forward $141 $-1 #
loop $-1 $-1 $82 $167 #
vertex $-1 $204 $205 #
vertex $-1 $203 $206 #
straight-curve $-1 9.965217285917832513 -59.1666666666666714 0 0 0 1 I I #
loop $-1 $61 $84 $111 #
vertex $-1 $85 $207 #
ellipse-curve $-1 0 0 20 0 0 1 90 0 0 1 I I #
loop $-1 $208 $134 $149 #
face $-1 $111 $86 $2 $-1 $209 forward single #
point $-1 90 0 -20 #
coedge $-1 $210 $89 $92 $157 forward $153 $-1 #
coedge $-1 $89 $210 $94 $160 reversed $153 $-1 #
loop $-1 $-1 $89 $187 #
straight-curve $-1 79.37253933193771616 -10 0 0 0 1 I I #
coedge $-1 $180 $91 $211 $212 reversed $66 $-1 #
coedge $-1 $92 $116 $140 $204 reversed $66 $-1 #
edge $-1 $93 -79.37253933193771616 $213 -59.16079783099615952 $151 $179 forward 7 unknown #
point $-1 79.37253933193771616 -10 0 #
coedge $-1 $137 $94 $139 $203 forward $61 $-1 #
edge $-1 $96 -79.37253933193771616 $214 -59.16079783099615952 $94 $173 forward 7 unknown #
coedge $-1 $95 $110 $215 $216 forward $61 $-1 #
point $-1 79.37253933193771616 -10 20 #
coedge $-1 $215 $211 $97 $164 forward $217 $-1 #
edge $-1 $166 -10 $165 10 $163 $218 forward 7 unknown #
vertex $-1 $216 $219 #
vertex $-1 $212 $220 #
face $-1 $149 $141 $2 $-1 $40 reversed single #
coedge $-1 $104 $103 $194 $221 reversed $105 $-1 #
coedge $-1 $118 $222 $107 $170 reversed $183 $-1 #
edge $-1 $122 -2.974144574370103822 $223 -1.737656500016126815 $107 $224 forward 7 unknown #
edge $-1 $195 1.737656500016126815 $172 2.974144574370103822 $108 $224 forward 7 unknown #
vertex $-1 $171 $225 #
straight-curve $-1 0 -10 20 -1 0 0 I I #
coedge $-1 $226 $129 $110 $175 reversed $76 $-1 #
edge $-1 $223 3.058162566979178543 $227 6.366615393790200805 $110 $228 forward 7 unknown #
plane-surface $-1 0 0 20 0 0 1 1 0 0 forward_v I I I I #
edge $-1 $196 1.737656500016126371 $178 2.974144574370103822 $113 $229 forward 7 unknown #
vertex $-1 $177 $230 #
straight-curve $-1 0 -10 0 -1 0 0 I I #
coedge $-1 $115 $155 $191 $231 forward $66 $-1 #
coedge $-1 $222 $118 $115 $182 forward $183 $-1 #
edge $-1 $120 -2.974144574370103822 $232 -1.737656500016126371 $115 $229 forward 7 unknown #
loop $-1 $-1 $222 $126 #
straight-curve $-1 -59.16079783099615952 10 10 0 0 -1 I I #
point $-1 -59.16079783099615952 10 0 #
point $-1 -59.16079783099615952 10 20 #
face $-1 $100 $153 $2 $-1 $188 forward single #
plane-surface $-1 0 -10 10 0 1 0 0 0 1 forward_v I I I I #
face $-1 $72 $217 $2 $-1 $40 reversed single #
coedge $-1 $190 $190 $233 $234 reversed $128 $-1 #
coedge $-1 $129 $226 $180 $231 reversed $76 $-1 #
coedge $-1 $211 $215 $129 $193 forward $217 $-1 #
edge $-1 $227 -20 $235 0 $192 $236 forward 7 unknown #
coedge $-1 $131 $130 $168 $221 forward $39 $-1 #
vertex $-1 $133 $237 #
vertex $-1 $136 $238 #
straight-curve $-1 -9.965217285917832513 -59.1666666666666714 0 0 0 -1 I I #
vertex $-1 $135 $239 #
ellipse-curve $-1 0 -60 -20 0 0 1 10 0 0 1 I I #
ellipse-curve $-1 0 -60 0 0 0 -1 10 0 0 1 I I #
ellipse-curve $-1 0 -60 20 0 0 -1 10 0 0 1 I I #
coedge $-1 $140 $139 $210 $240 forward $141 $-1 #
edge $-1 $214 0.1674480792196893497 $143 1.403936153573666523 $159 $224 forward 7 unknown #
edge $-1 $213 0.1674480792196893497 $142 1.403936153573666967 $156 $229 forward 7 unknown #
point $-1 9.965217285917814749 -59.1666666666666714 0 #
point $-1 9.965217285917832513 -59.1666666666666714 20 #
point $-1 90 0 20 #
loop $-1 $-1 $233 $149 #
plane-surface $-1 0 0 -20 0 0 -1 -1 0 0 forward_v I I I I #
coedge $-1 $152 $151 $202 $240 reversed $153 $-1 #
coedge $-1 $163 $192 $155 $212 forward $217 $-1 #
edge $-1 $235 -1.403936153573666967 $166 -0.1674480792196893497 $155 $229 forward 7 unknown #
vertex $-1 $157 $241 #
vertex $-1 $240 $242 #
coedge $-1 $192 $163 $161 $216 reversed $217 $-1 #
edge $-1 $227 -1.403936153573666523 $165 -0.1674480792196893497 $161 $224 forward 7 unknown #
loop $-1 $-1 $192 $189 #
straight-curve $-1 59.16079783099615952 10 10 0 0 1 I I #
point $-1 59.16079783099615952 10 20 #
point $-1 59.16079783099615952 10 0 #
edge $-1 $178 -10 $172 10 $194 $243 forward 7 unknown #
coedge $-1 $169 $181 $226 $244 forward $183 $-1 #
vertex $-1 $170 $245 #
ellipse-curve $-1 0 0 20 0 0 -1 60 0 0 1 I I #
point $-1 -59.16079783099615952 -10 20 #
coedge $-1 $191 $174 $222 $244 reversed $76 $-1 #
vertex $-1 $193 $246 #
ellipse-curve $-1 0 60 20 0 0 -1 10 0 0 1 I I #
ellipse-curve $-1 0 0 0 0 0 -1 60 0 0 1 I I #
point $-1 -59.16079783099615952 -10 0 #
edge $-1 $235 0.08343008661061468434 $232 3.058162566979178543 $180 $247 forward 7 unknown #
vertex $-1 $182 $248 #
coedge $-1 $233 $233 $190 $234 forward $208 $-1 #
edge $-1 $249 0 $249 6.283185307179586232 $233 $250 forward 7 unknown #
vertex $-1 $231 $251 #
straight-curve $-1 9.965217285917832513 59.1666666666666714 0 0 0 -1 I I #
point $-1 -9.965217285917832513 -59.1666666666666714 20 #
point $-1 -9.965217285917814749 -59.1666666666666714 0 #
point $-1 10 -60 -20 #
edge $-1 $214 -10 $213 10 $202 $252 forward 7 unknown #
point $-1 59.16079783099615952 -10 0 #
point $-1 59.16079783099615952 -10 20 #
straight-curve $-1 -59.16079783099615952 -10 10 0 0 1 I I #
edge $-1 $232 0 $223 20 $222 $253 forward 7 unknown #
point $-1 -9.965217285917832513 59.1666666666666714 20 #
point $-1 9.965217285917832513 59.1666666666666714 20 #
ellipse-curve $-1 0 60 0 0 0 -1 10 0 0 1 I I #
point $-1 -9.965217285917814749 59.1666666666666714 0 #
vertex $-1 $234 $254 #
ellipse-curve $-1 0 60 -20 0 0 1 10 0 0 1 I I #
point $-1 9.965217285917814749 59.1666666666666714 0 #
straight-curve $-1 59.16079783099615952 -10 10 0 0 -1 I I #
straight-curve $-1 -9.965217285917832513 59.1666666666666714 0 0 0 1 I I #
point $-1 10 60 -20 #
End-of-ACIS-data 