600 0 1 0           
104 GICL Pro/E ACIS Translator - Source: f:/data5/repository/PTC/V18/robot_18/complete/effector2.prt.3 - 6 0 13 ACIS 6.0.3 NT 24 Thu Apr 04 13:29:37 2002 
1 9.9999999999999995e-007 1e-010 
body $-1 $1 $-1 $2 #
lump $-1 $-1 $3 $0 #
transform $-1 1 0 0 0 1 0 0 0 1 0 0 0 25.399999999999999 no_rotate no_reflect no_shear #
shell $-1 $-1 $-1 $4 $-1 $1 #
face $-1 $5 $6 $3 $-1 $7 reversed single #
face $-1 $8 $9 $3 $-1 $10 forward single #
loop $-1 $-1 $11 $4 #
plane-surface $-1 0 0 0 0 0 1 1 0 0 forward_v I I I I #
face $-1 $12 $13 $3 $-1 $14 forward single #
loop $-1 $-1 $15 $5 #
plane-surface $-1 3.3332952604675703 0.5877498890880829 0 -0.17364817766693033 0.98480775301220813 0 -0.98480775301220813 -0.17364817766693033 0 forward_v I I I I #
coedge $-1 $16 $17 $18 $19 reversed $6 $-1 #
face $-1 $20 $21 $3 $-1 $22 forward single #
loop $-1 $-1 $23 $8 #
plane-surface $-1 0 0 0 -1 0 0 0 -1 0 forward_v I I I I #
coedge $-1 $24 $18 $25 $26 forward $9 $-1 #
coedge $-1 $27 $11 $28 $29 reversed $6 $-1 #
coedge $-1 $11 $30 $31 $32 reversed $6 $-1 #
coedge $-1 $15 $33 $11 $19 forward $9 $-1 #
edge $-1 $34 0 $35 3.3847167127513971 $11 $36 forward 7 unknown #
face $-1 $37 $38 $3 $-1 $39 reversed single #
loop $-1 $-1 $40 $12 #
plane-surface $-1 0 -1 0 0.25881904510252052 -0.96592582628906842 0 0.96592582628906831 0.25881904510252046 0 forward_v I I I I #
coedge $-1 $41 $31 $42 $43 forward $13 $-1 #
coedge $-1 $33 $15 $44 $45 reversed $9 $-1 #
coedge $-1 $31 $41 $15 $26 reversed $13 $-1 #
edge $-1 $35 0 $46 1 $25 $47 forward 7 unknown #
coedge $-1 $48 $16 $49 $50 reversed $6 $-1 #
coedge $-1 $51 $52 $16 $29 forward $53 $-1 #
edge $-1 $54 0 $34 0.88614645553582416 $16 $55 forward 7 unknown #
coedge $-1 $17 $56 $57 $58 reversed $6 $-1 #
coedge $-1 $23 $25 $17 $32 forward $13 $-1 #
edge $-1 $35 0 $59 1 $17 $60 forward 7 unknown #
coedge $-1 $18 $24 $51 $61 reversed $9 $-1 #
vertex $-1 $29 $62 #
vertex $-1 $32 $63 #
straight-curve $-1 3.3332952604675703 0.5877498890880829 0 -0.98480775301220813 -0.1736481776669303 0 I I #
face $-1 $64 $65 $3 $-1 $66 forward single #
loop $-1 $-1 $67 $20 #
cone-surface $-1 2.7747047612756299 -0.51533914508392487 0 0 0 1 0.25 0 0 1 I I 0 1 0.25 forward I I I I #
coedge $-1 $68 $57 $69 $70 forward $21 $-1 #
coedge $-1 $25 $23 $71 $72 reversed $13 $-1 #
coedge $-1 $57 $68 $23 $43 reversed $21 $-1 #
edge $-1 $59 0 $73 1 $23 $74 forward 7 unknown #
coedge $-1 $71 $75 $24 $45 forward $76 $-1 #
edge $-1 $77 0 $46 3.3847167127513971 $44 $78 forward 7 unknown #
vertex $-1 $72 $79 #
straight-curve $-1 4.4408920985006262e-016 1.1102230246251565e-016 0 0 0 1 I I #
coedge $-1 $80 $27 $81 $82 reversed $6 $-1 #
coedge $-1 $83 $84 $27 $50 forward $85 $-1 #
edge $-1 $86 0 $54 3.7501198204882851 $27 $87 forward 7 unknown #
coedge $-1 $88 $28 $33 $61 forward $53 $-1 #
coedge $-1 $28 $88 $83 $89 reversed $53 $-1 #
loop $-1 $-1 $51 $90 #
vertex $-1 $50 $91 #
ellipse-curve $-1 3.5069434381345008 -0.39705786392412512 0 0 0 1 0.65305656186549932 0.75730913569322078 0 1 I I #
coedge $-1 $30 $80 $92 $93 reversed $6 $-1 #
coedge $-1 $40 $42 $30 $58 forward $21 $-1 #
edge $-1 $59 0 $94 2.8055984489113293 $30 $95 forward 7 unknown #
vertex $-1 $32 $96 #
straight-curve $-1 0 0 0 0 -1 0 I I #
edge $-1 $34 0 $77 1 $51 $97 forward 7 unknown #
point $-1 3.3332952604675703 0.5877498890880829 0 #
point $-1 0 0 0 #
face $-1 $98 $99 $3 $-1 $100 forward single #
loop $-1 $-1 $101 $37 #
plane-surface $-1 2.8997047612756299 -0.29883279413781527 0 -0.50000000000000011 -0.86602540378443871 0 0.86602540378443849 -0.5 0 forward_v I I I I #
coedge $-1 $102 $92 $103 $104 forward $38 $-1 #
coedge $-1 $42 $40 $105 $106 reversed $21 $-1 #
coedge $-1 $92 $102 $40 $70 reversed $38 $-1 #
edge $-1 $94 0 $107 1 $40 $108 forward 7 unknown #
coedge $-1 $105 $44 $41 $72 forward $76 $-1 #
edge $-1 $46 0 $73 1 $71 $109 forward 7 unknown #
vertex $-1 $72 $110 #
straight-curve $-1 0 -1 0 0 0 1 I I #
coedge $-1 $44 $111 $88 $112 forward $76 $-1 #
loop $-1 $-1 $105 $113 #
vertex $-1 $45 $114 #
straight-curve $-1 3.3332952604675703 0.5877498890880829 1 -0.98480775301220813 -0.1736481776669303 0 I I #
point $-1 0 0 1 #
coedge $-1 $56 $48 $115 $116 reversed $6 $-1 #
coedge $-1 $117 $118 $48 $82 forward $99 $-1 #
edge $-1 $119 0 $86 1 $48 $120 forward 7 unknown #
coedge $-1 $121 $49 $52 $89 forward $85 $-1 #
coedge $-1 $49 $121 $117 $122 reversed $85 $-1 #
loop $-1 $-1 $83 $98 #
vertex $-1 $82 $123 #
straight-curve $-1 7 -2.0887890847826469 0 -0.75730913569322089 0.65305656186549932 0 I I #
coedge $-1 $52 $51 $75 $112 reversed $53 $-1 #
edge $-1 $54 0 $124 1 $83 $125 forward 7 unknown #
face $-1 $113 $53 $3 $-1 $126 forward single #
point $-1 4.1600000000000001 0.36025127176909566 0 #
coedge $-1 $67 $69 $56 $93 forward $38 $-1 #
edge $-1 $94 0 $127 0.78539816339742952 $56 $128 forward 7 unknown #
vertex $-1 $58 $129 #
straight-curve $-1 0 -1 0 0.96592582628906842 0.25881904510252052 0 I I #
point $-1 0 -1 0 #
straight-curve $-1 3.3332952604675703 0.5877498890880829 0 0 0 1 I I #
face $-1 $90 $85 $3 $-1 $130 forward single #
loop $-1 $-1 $117 $64 #
plane-surface $-1 6 -2.0887890847826469 0 0 -1 0 1 0 0 forward_v I I I I #
coedge $-1 $131 $115 $118 $132 forward $65 $-1 #
coedge $-1 $69 $67 $133 $134 reversed $38 $-1 #
coedge $-1 $115 $131 $67 $104 reversed $65 $-1 #
edge $-1 $127 -9.2444637330587321e-033 $135 1 $67 $136 forward 7 unknown #
coedge $-1 $133 $71 $68 $106 forward $76 $-1 #
edge $-1 $73 0 $107 2.8055984489113248 $105 $137 forward 7 unknown #
vertex $-1 $134 $138 #
straight-curve $-1 2.7100000000000004 -0.27385768851165826 0 0 0 1 I I #
straight-curve $-1 0 0 1 0 -1 0 I I #
point $-1 0 -1 1 #
coedge $-1 $75 $139 $121 $140 forward $76 $-1 #
edge $-1 $124 0 $77 0.88614645553582549 $75 $141 forward 7 unknown #
face $-1 $-1 $76 $3 $-1 $142 forward single #
point $-1 3.3332952604675703 0.5877498890880829 1 #
coedge $-1 $101 $103 $80 $116 forward $65 $-1 #
edge $-1 $127 0 $119 3.5799125812896624 $80 $143 forward 7 unknown #
coedge $-1 $144 $81 $84 $122 forward $99 $-1 #
coedge $-1 $81 $144 $101 $132 reversed $99 $-1 #
vertex $-1 $116 $145 #
straight-curve $-1 6 -2.0887890847826469 0 1 0 0 I I #
coedge $-1 $84 $83 $111 $140 reversed $85 $-1 #
edge $-1 $86 0 $146 1 $117 $147 forward 7 unknown #
point $-1 7 -2.0887890847826469 0 #
vertex $-1 $112 $148 #
straight-curve $-1 4.1600000000000001 0.36025127176909599 0 0 0 1 I I #
cone-surface $-1 3.5069434381345008 -0.39705786392412512 0 0 0 1 1 0 0 1 I I 0 1 1 forward I I I I #
vertex $-1 $93 $149 #
ellipse-curve $-1 2.7747047612756299 -0.51533914508392487 0 0 0 -1 -0.064704761275625966 0.24148145657226761 0 1 I I #
point $-1 2.710000000000004 -0.27385768851165726 0 #
plane-surface $-1 7 -2.0887890847826469 0 0.65305656186549932 0.757309135693221 0 -0.75730913569322089 0.65305656186549921 0 forward_v I I I I #
coedge $-1 $103 $101 $150 $151 reversed $65 $-1 #
edge $-1 $119 0 $152 1 $101 $153 forward 7 unknown #
coedge $-1 $150 $105 $102 $134 forward $76 $-1 #
edge $-1 $107 -1.5876189252140234e-014 $135 0.7853981633974445 $133 $154 forward 7 unknown #
vertex $-1 $151 $155 #
straight-curve $-1 2.8997047612756299 -0.29883279413781522 0 0 -5.5511151231257827e-017 1 I I #
straight-curve $-1 0 -1 1 0.96592582628906842 0.25881904510252052 0 I I #
point $-1 2.71 -0.2738576885116577 1 #
coedge $-1 $111 $150 $144 $156 forward $76 $-1 #
edge $-1 $146 0 $124 3.7501198204882851 $111 $157 forward 7 unknown #
ellipse-curve $-1 3.5069434381345013 -0.39705786392412357 1 0 0 1 0.65305656186549887 0.75730913569321923 0 1 I I #
plane-surface $-1 0 0 1 0 0 1 1 0 0 forward_v I I I I #
straight-curve $-1 2.8997047612756295 -0.29883279413781505 0 0.8660254037844386 -0.5 0 I I #
coedge $-1 $118 $117 $139 $156 reversed $99 $-1 #
point $-1 6 -2.0887890847826469 0 #
vertex $-1 $140 $158 #
straight-curve $-1 7 -2.0887890847826469 0 0 0 1 I I #
point $-1 4.1600000000000001 0.36025127176909566 1 #
point $-1 2.8997047612756295 -0.29883279413781505 0 #
coedge $-1 $139 $133 $131 $151 forward $76 $-1 #
edge $-1 $135 4.9561483973922861e-016 $152 3.5799125812896624 $150 $159 forward 7 unknown #
vertex $-1 $156 $160 #
straight-curve $-1 6.0000000000000009 -2.088789084782646 0 0 0 1 I I #
ellipse-curve $-1 2.7747047612756313 -0.51533914508392076 1 0 0 -1 -0.064704761275627298 0.2414814565722635 0 1 I I #
point $-1 2.8997047612756299 -0.29883279413781527 1 #
edge $-1 $152 0 $146 1 $139 $161 forward 7 unknown #
straight-curve $-1 7 -2.0887890847826469 1 -0.75730913569322089 0.65305656186549932 0 I I #
point $-1 7 -2.0887890847826469 1 #
straight-curve $-1 2.8997047612756295 -0.29883279413781505 1 0.8660254037844386 -0.5 0 I I #
point $-1 6 -2.0887890847826469 1 #
straight-curve $-1 6 -2.0887890847826469 1 1 0 0 I I #
End-of-ACIS-data 