600 0 1 0           
102 GICL Pro/E ACIS Translator - Source: f:/data5/repository/PTC/V18/robot_18/complete/payload.prt.5 - 6 0 13 ACIS 6.0.3 NT 24 Thu Apr 04 13:29:38 2002 
1 9.9999999999999995e-007 1e-010 
body $-1 $1 $-1 $2 #
lump $-1 $-1 $3 $0 #
transform $-1 1 0 0 0 1 0 0 0 1 0 0 0 25.399999999999999 no_rotate no_reflect no_shear #
shell $-1 $-1 $-1 $4 $-1 $1 #
face $-1 $5 $6 $3 $-1 $7 reversed single #
face $-1 $8 $9 $3 $-1 $10 reversed single #
loop $-1 $11 $12 $4 #
plane-surface $-1 -1 -1.5887890847826469 -6 0 -1 0 -1 0 0 forward_v I I I I #
face $-1 $13 $14 $3 $-1 $15 reversed single #
loop $-1 $-1 $16 $5 #
cone-surface $-1 6.5 -1.5887890847826469 -8.5 0 -1 0 -1 0 0 1 I I 0 1 1 forward I I I I #
loop $-1 $17 $18 $4 #
coedge $-1 $19 $19 $20 $21 reversed $6 $-1 #
face $-1 $22 $23 $3 $-1 $24 reversed single #
loop $-1 $-1 $25 $8 #
cone-surface $-1 6.5 -1.5887890847826469 -8.5 0 -1 0 -1 0 0 1 I I 0 1 1 forward I I I I #
coedge $-1 $26 $20 $27 $28 forward $9 $-1 #
loop $-1 $-1 $29 $4 #
coedge $-1 $30 $30 $31 $32 reversed $11 $-1 #
coedge $-1 $12 $12 $33 $34 reversed $6 $-1 #
coedge $-1 $16 $35 $12 $21 forward $9 $-1 #
edge $-1 $36 0 $37 3.1415926535897931 $12 $38 forward 7 unknown #
face $-1 $39 $40 $3 $-1 $41 reversed single #
loop $-1 $42 $43 $13 #
plane-surface $-1 0 -3.4112109152173531 -6 0 1 0 0 0 -1 forward_v I I I I #
coedge $-1 $44 $33 $35 $45 forward $14 $-1 #
coedge $-1 $35 $16 $43 $46 reversed $9 $-1 #
coedge $-1 $33 $44 $16 $28 reversed $14 $-1 #
edge $-1 $37 0 $47 1.8224218304347062 $27 $48 forward 7 unknown #
coedge $-1 $49 $50 $51 $52 reversed $17 $-1 #
coedge $-1 $18 $18 $53 $54 reversed $11 $-1 #
coedge $-1 $55 $56 $18 $32 forward $40 $-1 #
edge $-1 $57 0 $58 3.1415926535897931 $18 $59 forward 7 unknown #
coedge $-1 $25 $27 $19 $34 forward $14 $-1 #
edge $-1 $37 0 $36 3.1415926535897931 $19 $60 forward 7 unknown #
coedge $-1 $20 $26 $25 $45 reversed $9 $-1 #
vertex $-1 $34 $61 #
vertex $-1 $34 $62 #
ellipse-curve $-1 6.5 -1.5887890847826469 -8.5 0 1 0 1 0 0 1 I I #
face $-1 $63 $64 $3 $-1 $65 reversed single #
loop $-1 $-1 $55 $22 #
cone-surface $-1 -7.5 -1.5887890847826469 -8.5 0 -1 0 -1 0 0 1 I I 0 1 1 forward I I I I #
loop $-1 $66 $67 $13 #
coedge $-1 $68 $68 $26 $46 forward $23 $-1 #
coedge $-1 $27 $25 $68 $69 reversed $14 $-1 #
edge $-1 $36 0 $70 1.8224218304347062 $25 $71 forward 7 unknown #
edge $-1 $70 0 $47 3.1415926535897931 $43 $72 forward 7 unknown #
vertex $-1 $69 $73 #
straight-curve $-1 5.5 -1.5887890847826469 -8.5 0 -1 0 I I #
coedge $-1 $74 $29 $75 $76 reversed $17 $-1 #
coedge $-1 $29 $74 $77 $78 reversed $17 $-1 #
coedge $-1 $79 $80 $29 $52 forward $81 $-1 #
edge $-1 $82 0 $83 20 $29 $84 forward 7 unknown #
coedge $-1 $85 $86 $30 $54 forward $64 $-1 #
edge $-1 $58 0 $57 3.1415926535897931 $30 $87 forward 7 unknown #
coedge $-1 $88 $31 $86 $89 forward $40 $-1 #
coedge $-1 $31 $88 $85 $90 reversed $40 $-1 #
vertex $-1 $54 $91 #
vertex $-1 $54 $92 #
ellipse-curve $-1 -7.5 -1.5887890847826469 -8.5 0 1 0 1 0 0 1 I I #
ellipse-curve $-1 6.5 -1.5887890847826469 -8.5 0 1 0 -1 0 0 1 I I #
point $-1 7.5 -1.5887890847826469 -8.5 #
point $-1 5.5 -1.5887890847826469 -8.5 #
face $-1 $93 $94 $3 $-1 $95 forward single #
loop $-1 $-1 $85 $39 #
cone-surface $-1 -7.5 -1.5887890847826469 -8.5 0 -1 0 -1 0 0 1 I I 0 1 1 forward I I I I #
loop $-1 $-1 $96 $13 #
coedge $-1 $97 $97 $88 $98 forward $42 $-1 #
coedge $-1 $43 $43 $44 $69 forward $23 $-1 #
edge $-1 $47 0 $70 3.1415926535897931 $68 $99 forward 7 unknown #
vertex $-1 $69 $100 #
straight-curve $-1 7.5 -1.5887890847826469 -8.5 0 -1 0 I I #
ellipse-curve $-1 6.5 -3.4112109152173531 -8.5 0 1 0 1 0 0 1 I I #
point $-1 5.5 -3.4112109152173531 -8.5 #
coedge $-1 $50 $49 $101 $102 reversed $17 $-1 #
coedge $-1 $103 $104 $49 $76 forward $105 $-1 #
edge $-1 $106 0 $82 5 $49 $107 forward 7 unknown #
coedge $-1 $108 $109 $50 $78 forward $110 $-1 #
edge $-1 $83 0 $111 5 $50 $112 forward 7 unknown #
coedge $-1 $113 $51 $109 $114 forward $81 $-1 #
coedge $-1 $51 $113 $103 $115 reversed $81 $-1 #
loop $-1 $-1 $79 $116 #
vertex $-1 $76 $117 #
vertex $-1 $78 $118 #
straight-curve $-1 -10.5 -1.5887890847826469 -11 1 0 0 I I #
coedge $-1 $119 $53 $56 $90 forward $64 $-1 #
coedge $-1 $53 $119 $55 $89 reversed $64 $-1 #
ellipse-curve $-1 -7.5 -1.5887890847826469 -8.5 0 1 0 -1 0 0 1 I I #
coedge $-1 $56 $55 $67 $98 reversed $40 $-1 #
edge $-1 $58 0 $120 1.8224218304347062 $86 $121 forward 7 unknown #
edge $-1 $57 0 $122 1.8224218304347062 $85 $123 forward 7 unknown #
point $-1 -6.5 -1.5887890847826469 -8.5 #
point $-1 -8.5 -1.5887890847826469 -8.5 #
face $-1 $116 $105 $3 $-1 $124 forward single #
loop $-1 $-1 $125 $63 #
plane-surface $-1 9.5 -1.5887890847826469 -6 0 0 1 -1 0 0 forward_v I I I I #
coedge $-1 $126 $127 $128 $129 forward $66 $-1 #
coedge $-1 $67 $67 $119 $130 forward $42 $-1 #
edge $-1 $122 0 $120 3.1415926535897931 $67 $131 forward 7 unknown #
ellipse-curve $-1 6.5 -3.4112109152173531 -8.5 0 1 0 -1 0 0 1 I I #
point $-1 7.5 -3.4112109152173531 -8.5 #
coedge $-1 $125 $132 $74 $102 forward $94 $-1 #
edge $-1 $111 0 $106 20 $74 $133 forward 7 unknown #
coedge $-1 $134 $75 $80 $115 forward $105 $-1 #
coedge $-1 $75 $134 $125 $135 reversed $105 $-1 #
loop $-1 $-1 $103 $93 #
vertex $-1 $102 $136 #
straight-curve $-1 -10.5 -1.5887890847826469 -6 0 0 -1 I I #
coedge $-1 $137 $77 $132 $138 forward $110 $-1 #
coedge $-1 $77 $137 $79 $114 reversed $110 $-1 #
loop $-1 $-1 $108 $139 #
vertex $-1 $78 $140 #
straight-curve $-1 9.5 -1.5887890847826469 -11 0 0 1 I I #
coedge $-1 $80 $79 $141 $142 reversed $81 $-1 #
edge $-1 $83 0 $143 1.8224218304347062 $109 $144 forward 7 unknown #
edge $-1 $82 0 $145 1.8224218304347062 $103 $146 forward 7 unknown #
face $-1 $139 $81 $3 $-1 $147 forward single #
point $-1 -10.5 -1.5887890847826469 -11 #
point $-1 9.5 -1.5887890847826469 -11 #
coedge $-1 $86 $85 $97 $130 reversed $64 $-1 #
vertex $-1 $130 $148 #
straight-curve $-1 -8.5 -1.5887890847826469 -8.5 0 -1 0 I I #
vertex $-1 $130 $149 #
straight-curve $-1 -6.5 -1.5887890847826469 -8.5 0 -1 0 I I #
plane-surface $-1 -10.5 -1.5887890847826469 -6 -1 0 0 0 0 -1 forward_v I I I I #
coedge $-1 $128 $101 $104 $135 forward $94 $-1 #
coedge $-1 $141 $96 $134 $150 forward $66 $-1 #
coedge $-1 $96 $141 $137 $151 forward $66 $-1 #
coedge $-1 $132 $125 $96 $129 reversed $94 $-1 #
edge $-1 $152 0 $153 20 $96 $154 forward 7 unknown #
edge $-1 $120 0 $122 3.1415926535897931 $97 $155 forward 7 unknown #
ellipse-curve $-1 -7.5 -3.4112109152173531 -8.5 0 1 0 1 0 0 1 I I #
coedge $-1 $101 $128 $108 $138 reversed $94 $-1 #
straight-curve $-1 9.5 -1.5887890847826469 -6 -1 0 0 I I #
coedge $-1 $104 $103 $126 $150 reversed $105 $-1 #
edge $-1 $106 0 $153 1.8224218304347062 $125 $156 forward 7 unknown #
point $-1 -10.5 -1.5887890847826469 -6 #
coedge $-1 $109 $108 $127 $151 reversed $110 $-1 #
edge $-1 $111 0 $152 1.8224218304347062 $108 $157 forward 7 unknown #
face $-1 $-1 $110 $3 $-1 $158 forward single #
point $-1 9.5 -1.5887890847826469 -6 #
coedge $-1 $127 $126 $113 $142 forward $66 $-1 #
edge $-1 $145 0 $143 20 $141 $159 forward 7 unknown #
vertex $-1 $151 $160 #
straight-curve $-1 9.5 -1.5887890847826469 -11 0 -1 0 I I #
vertex $-1 $142 $161 #
straight-curve $-1 -10.5 -1.5887890847826469 -11 0 -1 0 I I #
plane-surface $-1 -10.5 -1.5887890847826469 -11 0 0 -1 1 0 0 forward_v I I I I #
point $-1 -8.5 -3.4112109152173531 -8.5 #
point $-1 -6.5 -3.4112109152173531 -8.5 #
edge $-1 $153 0 $145 5 $126 $162 forward 7 unknown #
edge $-1 $143 0 $152 5 $127 $163 forward 7 unknown #
vertex $-1 $151 $164 #
vertex $-1 $150 $165 #
straight-curve $-1 9.5 -3.4112109152173531 -6 -1 0 0 I I #
ellipse-curve $-1 -7.5 -3.4112109152173531 -8.5 0 1 0 -1 0 0 1 I I #
straight-curve $-1 -10.5 -1.5887890847826469 -6 0 -1 0 I I #
straight-curve $-1 9.5 -1.5887890847826469 -6 0 -1 0 I I #
plane-surface $-1 9.5 -1.5887890847826469 -11 1 0 0 0 0 1 forward_v I I I I #
straight-curve $-1 -10.5 -3.4112109152173531 -11 1 0 0 I I #
point $-1 9.5 -3.4112109152173531 -11 #
point $-1 -10.5 -3.4112109152173531 -11 #
straight-curve $-1 -10.5 -3.4112109152173531 -6 0 0 -1 I I #
straight-curve $-1 9.5 -3.4112109152173531 -11 0 0 1 I I #
point $-1 9.5 -3.4112109152173531 -6 #
point $-1 -10.5 -3.4112109152173531 -6 #
End-of-ACIS-data 