600 0 1 0           
104 GICL Pro/E ACIS Translator - Source: f:/data5/repository/PTC/V18/robot_18/complete/upper_arm.prt.5 - 6 0 13 ACIS 6.0.3 NT 24 Thu Apr 04 13:29:36 2002 
1 9.9999999999999995e-007 1e-010 
body $-1 $1 $-1 $2 #
lump $-1 $-1 $3 $0 #
transform $-1 1 0 0 0 1 0 0 0 1 0 0 0 25.399999999999999 no_rotate no_reflect no_shear #
shell $-1 $-1 $-1 $4 $-1 $1 #
face $-1 $5 $6 $3 $-1 $7 reversed single #
face $-1 $8 $9 $3 $-1 $10 forward single #
loop $-1 $11 $12 $4 #
plane-surface $-1 0 0 12 0 0 1 0 1 0 forward_v I I I I #
face $-1 $13 $14 $3 $-1 $15 forward single #
loop $-1 $-1 $16 $5 #
plane-surface $-1 -4 -6 12 1 0 0 0 1 0 forward_v I I I I #
loop $-1 $-1 $17 $4 #
coedge $-1 $18 $19 $20 $21 reversed $6 $-1 #
face $-1 $22 $23 $3 $-1 $24 forward single #
loop $-1 $-1 $25 $8 #
plane-surface $-1 -4 1 12 0 -1 0 1 0 0 forward_v I I I I #
coedge $-1 $26 $20 $27 $28 forward $9 $-1 #
coedge $-1 $29 $30 $31 $32 forward $11 $-1 #
coedge $-1 $33 $12 $34 $35 reversed $6 $-1 #
coedge $-1 $12 $33 $36 $37 reversed $6 $-1 #
coedge $-1 $16 $38 $12 $21 forward $9 $-1 #
edge $-1 $39 0 $40 7 $12 $41 forward 7 unknown #
face $-1 $42 $43 $3 $-1 $44 forward single #
loop $-1 $-1 $45 $13 #
plane-surface $-1 3 1 12 -1 0 0 0 -1 0 forward_v I I I I #
coedge $-1 $46 $36 $47 $48 forward $14 $-1 #
coedge $-1 $38 $16 $49 $50 reversed $9 $-1 #
coedge $-1 $36 $46 $16 $28 reversed $14 $-1 #
edge $-1 $40 0 $51 8 $27 $52 forward 7 unknown #
coedge $-1 $53 $17 $54 $55 reversed $11 $-1 #
coedge $-1 $17 $56 $57 $58 reversed $11 $-1 #
coedge $-1 $59 $60 $17 $32 reversed $61 $-1 #
edge $-1 $62 0 $63 1.5707963267948948 $17 $64 forward 7 unknown #
coedge $-1 $19 $18 $65 $66 reversed $6 $-1 #
coedge $-1 $67 $68 $18 $35 forward $43 $-1 #
edge $-1 $69 0 $39 7 $18 $70 forward 7 unknown #
coedge $-1 $25 $27 $19 $37 forward $14 $-1 #
edge $-1 $40 0 $71 7 $19 $72 forward 7 unknown #
coedge $-1 $20 $26 $67 $73 reversed $9 $-1 #
vertex $-1 $35 $74 #
vertex $-1 $37 $75 #
straight-curve $-1 -4 -6 12 0 1 0 I I #
face $-1 $76 $77 $3 $-1 $78 forward single #
loop $-1 $-1 $67 $22 #
plane-surface $-1 3 -6 12 0 1 0 -1 0 0 forward_v I I I I #
coedge $-1 $79 $65 $68 $80 forward $23 $-1 #
coedge $-1 $27 $25 $81 $82 reversed $14 $-1 #
coedge $-1 $65 $79 $25 $48 reversed $23 $-1 #
edge $-1 $71 0 $83 8 $25 $84 forward 7 unknown #
coedge $-1 $81 $85 $26 $50 forward $77 $-1 #
edge $-1 $86 0 $51 7 $49 $87 forward 7 unknown #
vertex $-1 $82 $88 #
straight-curve $-1 -4 1 12 0 0 1 I I #
coedge $-1 $89 $29 $90 $91 forward $11 $-1 #
coedge $-1 $92 $93 $29 $55 forward $94 $-1 #
edge $-1 $95 0 $63 7 $29 $96 forward 7 unknown #
coedge $-1 $30 $97 $98 $99 forward $11 $-1 #
coedge $-1 $100 $101 $30 $58 forward $102 $-1 #
edge $-1 $62 0 $103 7 $30 $104 forward 7 unknown #
coedge $-1 $105 $31 $101 $106 forward $61 $-1 #
coedge $-1 $31 $105 $92 $107 reversed $61 $-1 #
loop $-1 $-1 $105 $108 #
vertex $-1 $58 $109 #
vertex $-1 $55 $110 #
ellipse-curve $-1 -4 -5.9999999999999991 12 0 0 -1 0 -0.50000000000000089 0 1 I I #
coedge $-1 $45 $47 $33 $66 forward $23 $-1 #
edge $-1 $71 0 $69 7 $33 $111 forward 7 unknown #
coedge $-1 $112 $34 $38 $73 forward $43 $-1 #
coedge $-1 $34 $112 $45 $80 reversed $43 $-1 #
vertex $-1 $66 $113 #
straight-curve $-1 3 -6 12 -1 0 0 I I #
vertex $-1 $37 $114 #
straight-curve $-1 -4 1 12 1 0 0 I I #
edge $-1 $39 0 $86 8 $67 $115 forward 7 unknown #
point $-1 -4 -6 12 #
point $-1 -4 1 12 #
face $-1 $116 $117 $3 $-1 $118 forward single #
loop $-1 $119 $120 $42 #
plane-surface $-1 0 0 20 0 0 1 0 1 0 forward_v I I I I #
coedge $-1 $47 $45 $120 $121 reversed $23 $-1 #
edge $-1 $69 0 $122 8 $45 $123 forward 7 unknown #
coedge $-1 $120 $49 $46 $82 forward $77 $-1 #
edge $-1 $51 0 $83 7 $81 $124 forward 7 unknown #
vertex $-1 $82 $125 #
straight-curve $-1 3 1 12 0 0 1 I I #
coedge $-1 $49 $120 $112 $126 forward $77 $-1 #
vertex $-1 $50 $127 #
straight-curve $-1 -4 -6 20 0 1 0 I I #
point $-1 -4 1 20 #
coedge $-1 $128 $53 $129 $130 reversed $11 $-1 #
coedge $-1 $131 $132 $53 $91 reversed $133 $-1 #
edge $-1 $95 0 $134 1.5707963267948939 $53 $135 forward 7 unknown #
coedge $-1 $136 $54 $60 $107 forward $94 $-1 #
coedge $-1 $54 $136 $131 $137 reversed $94 $-1 #
loop $-1 $-1 $92 $138 #
vertex $-1 $91 $139 #
straight-curve $-1 -4.5 1 12 0 -1 0 I I #
coedge $-1 $56 $128 $140 $141 reversed $11 $-1 #
coedge $-1 $142 $143 $56 $99 reversed $117 $-1 #
edge $-1 $144 0 $103 1.5707963267948966 $56 $145 forward 7 unknown #
coedge $-1 $146 $57 $143 $147 forward $102 $-1 #
coedge $-1 $57 $146 $59 $106 reversed $102 $-1 #
loop $-1 $-1 $100 $116 #
vertex $-1 $58 $148 #
straight-curve $-1 -4 -6.5 12 1 0 0 I I #
coedge $-1 $60 $59 $149 $150 forward $61 $-1 #
edge $-1 $62 0 $151 8 $101 $152 forward 7 unknown #
edge $-1 $63 0 $153 8 $92 $154 forward 7 unknown #
face $-1 $138 $61 $3 $-1 $155 forward single #
point $-1 -4 -6.5 12 #
point $-1 -4.5 -6 12 #
straight-curve $-1 3 1 12 0 -1 0 I I #
coedge $-1 $68 $67 $85 $126 reversed $43 $-1 #
point $-1 3 -6 12 #
point $-1 3 1 12 #
straight-curve $-1 -4 -6 12 0 0 1 I I #
face $-1 $108 $102 $3 $-1 $156 forward single #
loop $-1 $-1 $157 $76 #
cone-surface $-1 3 -6 12 0 0 -1 0.5 0 0 1 I I 0 1 0.5 forward I I I I #
loop $-1 $-1 $158 $42 #
coedge $-1 $85 $81 $79 $121 forward $77 $-1 #
edge $-1 $83 0 $122 7 $120 $159 forward 7 unknown #
vertex $-1 $126 $160 #
straight-curve $-1 3 -6 12 0 0 1 I I #
straight-curve $-1 -4 1 20 1 0 0 I I #
point $-1 3 1 20 #
edge $-1 $122 0 $86 7 $85 $161 forward 7 unknown #
point $-1 -4 -6 20 #
coedge $-1 $97 $89 $162 $163 forward $11 $-1 #
coedge $-1 $164 $165 $89 $130 forward $166 $-1 #
edge $-1 $167 0 $134 7 $89 $168 forward 7 unknown #
coedge $-1 $169 $90 $93 $137 forward $133 $-1 #
coedge $-1 $90 $169 $164 $170 reversed $133 $-1 #
loop $-1 $-1 $169 $171 #
vertex $-1 $130 $172 #
ellipse-curve $-1 -3.9999999999999991 0.99999999999999956 12 0 0 -1 -0.50000000000000089 4.4408920985006262e-016 0 1 I I #
coedge $-1 $93 $92 $173 $174 reversed $94 $-1 #
edge $-1 $95 0 $175 8 $93 $176 forward 7 unknown #
face $-1 $171 $94 $3 $-1 $177 forward single #
point $-1 -4.5 1 12 #
coedge $-1 $178 $179 $97 $141 forward $180 $-1 #
edge $-1 $144 0 $181 7 $97 $182 forward 7 unknown #
coedge $-1 $157 $98 $179 $183 forward $117 $-1 #
coedge $-1 $98 $157 $100 $147 reversed $117 $-1 #
vertex $-1 $99 $184 #
ellipse-curve $-1 3 -6 12 0 0 -1 0.5 0 0 1 I I #
coedge $-1 $101 $100 $185 $186 reversed $102 $-1 #
edge $-1 $103 0 $187 8 $100 $188 forward 7 unknown #
point $-1 3 -6.5 12 #
coedge $-1 $185 $173 $105 $150 reversed $119 $-1 #
edge $-1 $151 0 $153 1.5707963267948948 $149 $189 forward 7 unknown #
vertex $-1 $186 $190 #
straight-curve $-1 -4 -6.5 12 0 0 1 I I #
vertex $-1 $150 $191 #
straight-curve $-1 -4.5 -6 12 0 0 1 I I #
cone-surface $-1 -4 -6 12 0 0 -1 0 -0.5 0 1 I I 0 1 0.5 forward I I I I #
plane-surface $-1 -4.5 -6.5 12 0 -1 0 1 0 0 forward_v I I I I #
coedge $-1 $143 $142 $158 $192 forward $117 $-1 #
coedge $-1 $193 $185 $157 $192 reversed $119 $-1 #
straight-curve $-1 3 1 20 0 -1 0 I I #
point $-1 3 -6 20 #
straight-curve $-1 3 -6 20 -1 0 0 I I #
coedge $-1 $194 $195 $128 $163 reversed $196 $-1 #
edge $-1 $167 0 $181 1.5707963267948974 $128 $197 forward 7 unknown #
coedge $-1 $198 $129 $132 $170 forward $166 $-1 #
coedge $-1 $129 $198 $194 $199 reversed $166 $-1 #
loop $-1 $-1 $164 $200 #
vertex $-1 $163 $201 #
straight-curve $-1 3 1.5 12 -1 0 0 I I #
coedge $-1 $132 $131 $202 $203 forward $133 $-1 #
edge $-1 $134 0 $204 8 $164 $205 forward 7 unknown #
face $-1 $200 $133 $3 $-1 $206 forward single #
point $-1 -4 1.5 12 #
coedge $-1 $149 $202 $136 $174 forward $119 $-1 #
edge $-1 $175 0 $153 7 $173 $207 forward 7 unknown #
vertex $-1 $174 $208 #
straight-curve $-1 -4.5 1 12 0 0 1 I I #
plane-surface $-1 -4.5 1.5 12 -1 0 0 0 -1 0 forward_v I I I I #
coedge $-1 $209 $140 $195 $210 forward $180 $-1 #
coedge $-1 $140 $209 $142 $183 reversed $180 $-1 #
loop $-1 $-1 $178 $211 #
vertex $-1 $141 $212 #
straight-curve $-1 3.5 -6 12 0 1 0 I I #
edge $-1 $144 0 $213 8 $179 $214 forward 7 unknown #
point $-1 3.5 -6 12 #
coedge $-1 $158 $149 $146 $186 forward $119 $-1 #
edge $-1 $151 0 $187 7 $185 $215 forward 7 unknown #
vertex $-1 $186 $216 #
straight-curve $-1 3 -6.5 12 0 0 1 I I #
ellipse-curve $-1 -4 -5.9999999999999991 20 0 0 -1 0 -0.50000000000000089 0 1 I I #
point $-1 -4 -6.5 20 #
point $-1 -4.5 -6 20 #
edge $-1 $213 0 $187 1.5707963267948966 $158 $217 forward 7 unknown #
coedge $-1 $218 $158 $209 $219 forward $119 $-1 #
coedge $-1 $220 $162 $165 $199 forward $196 $-1 #
coedge $-1 $162 $220 $178 $210 reversed $196 $-1 #
loop $-1 $-1 $220 $221 #
ellipse-curve $-1 3 1.0000000000000004 12 0 0 -1 0 0.49999999999999956 0 1 I I #
coedge $-1 $165 $164 $222 $223 reversed $166 $-1 #
edge $-1 $167 0 $224 8 $165 $225 forward 7 unknown #
face $-1 $221 $166 $3 $-1 $226 forward single #
point $-1 3 1.5 12 #
coedge $-1 $173 $222 $169 $203 reversed $119 $-1 #
edge $-1 $175 0 $204 1.5707963267948939 $202 $227 forward 7 unknown #
vertex $-1 $203 $228 #
straight-curve $-1 -4 1.5 12 0 0 1 I I #
cone-surface $-1 -4 1 12 0 0 -1 -0.5 0 0 1 I I 0 1 0.5 forward I I I I #
straight-curve $-1 -4.5 1 20 0 -1 0 I I #
point $-1 -4.5 1 20 #
coedge $-1 $179 $178 $193 $219 reversed $180 $-1 #
edge $-1 $181 0 $229 8 $178 $230 forward 7 unknown #
face $-1 $-1 $180 $3 $-1 $231 forward single #
point $-1 3.5 1 12 #
vertex $-1 $219 $232 #
straight-curve $-1 3.5 -6 12 0 0 1 I I #
straight-curve $-1 -4 -6.5 20 1 0 0 I I #
point $-1 3 -6.5 20 #
ellipse-curve $-1 3 -6 20 0 0 -1 0.5 0 0 1 I I #
coedge $-1 $222 $193 $220 $233 reversed $119 $-1 #
edge $-1 $213 0 $229 7 $193 $234 forward 7 unknown #
coedge $-1 $195 $194 $218 $233 forward $196 $-1 #
face $-1 $211 $196 $3 $-1 $235 forward single #
coedge $-1 $202 $218 $198 $223 forward $119 $-1 #
edge $-1 $224 0 $204 7 $222 $236 forward 7 unknown #
vertex $-1 $223 $237 #
straight-curve $-1 3 1.5 12 0 0 1 I I #
plane-surface $-1 3.5 1.5 12 0 1 0 -1 0 0 forward_v I I I I #
ellipse-curve $-1 -3.9999999999999991 0.99999999999999956 20 0 0 -1 -0.50000000000000089 4.4408920985006262e-016 0 1 I I #
point $-1 -4 1.5 20 #
vertex $-1 $233 $238 #
straight-curve $-1 3.5 1 12 0 0 1 I I #
plane-surface $-1 3.5 -6.5 12 1 0 0 0 1 0 forward_v I I I I #
point $-1 3.5 -6 20 #
edge $-1 $224 0 $229 1.5707963267948974 $218 $239 forward 7 unknown #
straight-curve $-1 3.5 -6 20 0 1 0 I I #
cone-surface $-1 3 1 12 0 0 -1 0 0.5 0 1 I I 0 1 0.5 forward I I I I #
straight-curve $-1 3 1.5 20 -1 0 0 I I #
point $-1 3 1.5 20 #
point $-1 3.5 1 20 #
ellipse-curve $-1 3 1.0000000000000004 20 0 0 -1 0 0.49999999999999956 0 1 I I #
End-of-ACIS-data 