600 0 1 0           
101 GICL ACIS Healer - Source: /gicl/data5/repository/NIST/Manfred_Osti/t40/plate_t40/plate_t40.sat - 6 0 18 ACIS 6.0.3 Solaris 24 Sun Apr 14 00:36:31 2002 
1 9.999999999999999547e-07 1.000000000000000036e-10 
body $-1 $1 $-1 $-1 #
lump $-1 $-1 $2 $0 #
shell $-1 $-1 $-1 $3 $-1 $1 #
face $-1 $4 $5 $2 $-1 $6 reversed single #
face $-1 $7 $8 $2 $-1 $9 forward single #
loop $-1 $-1 $10 $3 #
plane-surface $-1 0 0 0 0 0 1 1 0 0 forward_v I I I I #
face $-1 $11 $12 $2 $-1 $13 forward single #
loop $-1 $-1 $14 $4 #
plane-surface $-1 0 0 29 0 0 1 1 0 0 forward_v I I I I #
coedge $-1 $15 $16 $17 $18 forward $5 $-1 #
face $-1 $19 $20 $2 $-1 $21 forward single #
loop $-1 $-1 $17 $7 #
plane-surface $-1 0 0 0 -1 0 0 0 0 1 forward_v I I I I #
coedge $-1 $22 $23 $24 $25 reversed $8 $-1 #
coedge $-1 $26 $10 $27 $28 forward $5 $-1 #
coedge $-1 $10 $26 $29 $30 forward $5 $-1 #
coedge $-1 $31 $32 $10 $18 reversed $12 $-1 #
edge $-1 $33 -0.125 $34 0 $17 $35 forward 7 unknown #
face $-1 $36 $37 $2 $-1 $38 forward single #
loop $-1 $-1 $29 $11 #
plane-surface $-1 0 -0.125 0 0 -1 0 0 0 -1 forward_v I I I I #
coedge $-1 $39 $14 $40 $41 reversed $8 $-1 #
coedge $-1 $14 $39 $42 $43 reversed $8 $-1 #
coedge $-1 $32 $31 $14 $25 forward $12 $-1 #
edge $-1 $44 -0.125 $45 0 $24 $46 forward 7 unknown #
coedge $-1 $16 $15 $47 $48 forward $5 $-1 #
coedge $-1 $49 $50 $15 $28 reversed $51 $-1 #
edge $-1 $34 -4.187999999999999723 $52 0 $27 $53 forward 7 unknown #
coedge $-1 $54 $55 $16 $30 reversed $20 $-1 #
edge $-1 $56 -4.187999999999999723 $33 0 $29 $57 forward 7 unknown #
coedge $-1 $24 $17 $55 $58 reversed $12 $-1 #
coedge $-1 $17 $24 $49 $59 forward $12 $-1 #
vertex $-1 $58 $60 #
vertex $-1 $59 $61 #
straight-curve $-1 0 0 0 0 1 0 I I #
face $-1 $-1 $51 $2 $-1 $62 forward single #
loop $-1 $-1 $47 $19 #
plane-surface $-1 4.187999999999999723 -0.125 0 1 0 0 0 0 -1 forward_v I I I I #
coedge $-1 $23 $22 $63 $64 reversed $8 $-1 #
coedge $-1 $55 $54 $22 $41 forward $20 $-1 #
edge $-1 $65 -4.187999999999999723 $44 0 $40 $66 forward 7 unknown #
coedge $-1 $50 $49 $23 $43 forward $51 $-1 #
edge $-1 $45 -4.187999999999999723 $67 0 $42 $68 forward 7 unknown #
vertex $-1 $58 $69 #
vertex $-1 $59 $70 #
straight-curve $-1 0 0 29 0 1 0 I I #
coedge $-1 $71 $72 $26 $48 reversed $37 $-1 #
edge $-1 $52 -0.125 $56 0 $47 $73 forward 7 unknown #
coedge $-1 $42 $27 $32 $59 reversed $51 $-1 #
coedge $-1 $27 $42 $71 $74 forward $51 $-1 #
loop $-1 $-1 $27 $36 #
vertex $-1 $74 $75 #
straight-curve $-1 4.187999999999999723 0 0 1 0 0 I I #
coedge $-1 $40 $29 $72 $76 reversed $20 $-1 #
coedge $-1 $29 $40 $31 $58 forward $20 $-1 #
vertex $-1 $76 $77 #
straight-curve $-1 0 -0.125 0 -1 0 0 I I #
edge $-1 $44 -29 $33 0 $55 $78 forward 7 unknown #
edge $-1 $45 -29 $34 0 $49 $79 forward 7 unknown #
point $-1 0 -0.125 0 #
point $-1 0 0 0 #
plane-surface $-1 4.187999999999999723 0 0 0 1 0 0 0 1 forward_v I I I I #
coedge $-1 $72 $71 $39 $64 forward $37 $-1 #
edge $-1 $67 -0.125 $65 0 $63 $80 forward 7 unknown #
vertex $-1 $76 $81 #
straight-curve $-1 0 -0.125 29 -1 0 0 I I #
vertex $-1 $74 $82 #
straight-curve $-1 4.187999999999999723 0 29 1 0 0 I I #
point $-1 0 -0.125 29 #
point $-1 0 0 29 #
coedge $-1 $63 $47 $50 $74 reversed $37 $-1 #
coedge $-1 $47 $63 $54 $76 forward $37 $-1 #
straight-curve $-1 4.187999999999999723 -0.125 0 0 -1 0 I I #
edge $-1 $67 -29 $52 0 $50 $83 forward 7 unknown #
point $-1 4.187999999999999723 0 0 #
edge $-1 $65 -29 $56 0 $72 $84 forward 7 unknown #
point $-1 4.187999999999999723 -0.125 0 #
straight-curve $-1 0 -0.125 0 0 0 -1 I I #
straight-curve $-1 0 0 0 0 0 -1 I I #
straight-curve $-1 4.187999999999999723 -0.125 29 0 -1 0 I I #
point $-1 4.187999999999999723 -0.125 29 #
point $-1 4.187999999999999723 0 29 #
straight-curve $-1 4.187999999999999723 0 0 0 0 -1 I I #
straight-curve $-1 4.187999999999999723 -0.125 0 0 0 -1 I I #
End-of-ACIS-data 