600 0 2 0           
24 FBMach with ACIS - 6.0.3 13 ACIS 6.0.3 NT 24 Tue May 22 15:33:35 2001 
1 9.9999999999999995e-007 1e-010 
body $2 $3 $-1 $4 #
bdycol-kcp $-1 1 1 $5 #
model_id-kcp-attrib $-1 $-1 $-1 $0 1 990560015 40 -30932991 1 #
lump $-1 $-1 $6 $0 #
transform $-1 1 0 0 0 1 0 0 0 1 0 0 0 1 no_rotate no_reflect no_shear #
body $7 $8 $-1 $9 #
shell $-1 $-1 $-1 $10 $-1 $3 #
model_id-kcp-attrib $-1 $-1 $-1 $5 1 990560015 40 -30932990 1 #
lump $-1 $-1 $11 $5 #
transform $-1 1 0 0 0 1 0 0 0 1 2.0939999999999999 -0.0625 14.5 1 no_rotate no_reflect no_shear #
face $12 $13 $14 $6 $-1 $15 reversed single #
shell $-1 $-1 $-1 $16 $-1 $8 #
model_id-kcp-attrib $-1 $-1 $-1 $10 1 990560015 40 -30932991 2 #
face $17 $18 $19 $6 $-1 $20 forward single #
loop $-1 $-1 $21 $10 #
plane-surface $-1 0 0 0 0 0 1 1 0 0 forward_v I I I I #
face $22 $23 $24 $11 $-1 $25 forward single #
model_id-kcp-attrib $-1 $-1 $-1 $13 1 990560015 40 -30932991 3 #
face $26 $27 $28 $6 $-1 $29 forward single #
loop $-1 $-1 $30 $13 #
plane-surface $-1 0 0 29 0 0 1 1 0 0 forward_v I I I I #
coedge $-1 $31 $32 $33 $34 forward $14 $-1 #
model_id-kcp-attrib $-1 $-1 $-1 $16 1 990560015 40 -30932990 3 #
face $35 $36 $37 $11 $-1 $38 reversed single #
loop $-1 $-1 $39 $16 #
plane-surface $-1 0 0 14.5 0 0 1 1 0 0 forward_v I I I I #
model_id-kcp-attrib $-1 $-1 $-1 $18 1 990560015 40 -30932991 4 #
face $40 $41 $42 $6 $-1 $43 forward single #
loop $-1 $-1 $33 $18 #
plane-surface $-1 0 0 0 -1 0 0 0 0 1 forward_v I I I I #
coedge $-1 $44 $45 $46 $47 reversed $19 $-1 #
coedge $-1 $48 $21 $49 $50 forward $14 $-1 #
coedge $-1 $21 $48 $51 $52 forward $14 $-1 #
coedge $-1 $53 $54 $21 $34 reversed $28 $-1 #
edge $55 $56 -0.125 $57 0 $33 $58 forward 7 unknown #
model_id-kcp-attrib $-1 $-1 $-1 $23 1 990560015 40 -30932990 2 #
face $59 $60 $61 $11 $-1 $62 reversed single #
loop $-1 $-1 $63 $23 #
plane-surface $-1 0 0 -14.5 0 0 1 1 0 0 forward_v I I I I #
coedge $-1 $64 $65 $66 $67 forward $24 $-1 #
model_id-kcp-attrib $-1 $-1 $-1 $27 1 990560015 40 -30932991 5 #
face $68 $69 $70 $6 $-1 $71 forward single #
loop $-1 $-1 $51 $27 #
plane-surface $-1 0 -0.125 0 0 -1 0 0 0 -1 forward_v I I I I #
coedge $-1 $72 $30 $73 $74 reversed $19 $-1 #
coedge $-1 $30 $72 $75 $76 reversed $19 $-1 #
coedge $-1 $54 $53 $30 $47 forward $28 $-1 #
edge $77 $78 -0.125 $79 0 $46 $80 forward 7 unknown #
coedge $-1 $32 $31 $81 $82 forward $14 $-1 #
coedge $-1 $83 $84 $31 $50 reversed $85 $-1 #
edge $86 $57 -4.1879999999999997 $87 0 $49 $88 forward 7 unknown #
coedge $-1 $89 $90 $32 $52 reversed $42 $-1 #
edge $91 $92 -4.1879999999999997 $56 0 $51 $93 forward 7 unknown #
coedge $-1 $46 $33 $90 $94 reversed $28 $-1 #
coedge $-1 $33 $46 $83 $95 forward $28 $-1 #
attrib_edge_convexity-kcp-attrib $-1 $96 $-1 $34 1 #
vertex $-1 $94 $97 #
vertex $-1 $95 $98 #
straight-curve $-1 0 0 0 0 1 0 I I #
model_id-kcp-attrib $-1 $-1 $-1 $36 1 990560015 40 -30932990 5 #
face $99 $100 $101 $11 $-1 $102 reversed single #
loop $-1 $-1 $103 $36 #
plane-surface $-1 0 -0.0625 0 0 1 0 0 0 1 forward_v I I I I #
coedge $-1 $104 $105 $106 $107 forward $37 $-1 #
coedge $-1 $108 $39 $109 $110 forward $24 $-1 #
coedge $-1 $39 $108 $111 $112 forward $24 $-1 #
coedge $-1 $113 $114 $39 $67 reversed $115 $-1 #
edge $-1 $116 -0.0625 $117 0.0625 $66 $118 forward 7 unknown #
model_id-kcp-attrib $-1 $-1 $-1 $41 1 990560015 40 -30932991 6 #
face $119 $-1 $85 $6 $-1 $120 forward single #
loop $-1 $-1 $81 $41 #
plane-surface $-1 4.1879999999999997 -0.125 0 1 0 0 0 0 -1 forward_v I I I I #
coedge $-1 $45 $44 $121 $122 reversed $19 $-1 #
coedge $-1 $90 $89 $44 $74 forward $42 $-1 #
edge $123 $124 -4.1879999999999997 $78 0 $73 $125 forward 7 unknown #
coedge $-1 $84 $83 $45 $76 forward $85 $-1 #
edge $-1 $79 -4.1879999999999997 $126 0 $75 $127 forward 7 unknown #
attrib_edge_convexity-kcp-attrib $-1 $128 $-1 $47 1 #
vertex $-1 $94 $129 #
vertex $-1 $95 $130 #
straight-curve $-1 0 0 29 0 1 0 I I #
coedge $-1 $131 $132 $48 $82 reversed $70 $-1 #
edge $133 $87 -0.125 $92 0 $81 $134 forward 7 unknown #
coedge $-1 $75 $49 $54 $95 reversed $85 $-1 #
coedge $-1 $49 $75 $131 $135 forward $85 $-1 #
loop $-1 $-1 $49 $69 #
attrib_edge_convexity-kcp-attrib $-1 $136 $-1 $50 1 #
vertex $-1 $135 $137 #
straight-curve $-1 4.1879999999999997 0 0 1 0 0 I I #
coedge $-1 $73 $51 $132 $138 reversed $42 $-1 #
coedge $-1 $51 $73 $53 $94 forward $42 $-1 #
attrib_edge_convexity-kcp-attrib $-1 $139 $-1 $52 1 #
vertex $-1 $138 $140 #
straight-curve $-1 0 -0.125 0 -1 0 0 I I #
edge $141 $78 -29 $56 0 $90 $142 forward 7 unknown #
edge $143 $79 -29 $57 0 $83 $144 forward 7 unknown #
convexity-sys-attrib $-1 $-1 $55 $34 #
point $-1 0 -0.125 0 #
point $-1 0 0 0 #
model_id-kcp-attrib $-1 $-1 $-1 $60 1 990560015 40 -30932990 4 #
face $145 $146 $147 $11 $-1 $148 reversed single #
loop $-1 $-1 $149 $60 #
plane-surface $-1 -2.0939999999999999 0 0 1 0 0 0 0 -1 forward_v I I I I #
coedge $-1 $150 $111 $151 $152 forward $61 $-1 #
coedge $-1 $153 $63 $150 $154 forward $37 $-1 #
coedge $-1 $63 $153 $155 $156 forward $37 $-1 #
coedge $-1 $114 $113 $63 $107 reversed $115 $-1 #
edge $-1 $157 -0.0625 $158 0.0625 $106 $159 forward 7 unknown #
coedge $-1 $65 $64 $160 $161 forward $24 $-1 #
coedge $-1 $162 $163 $64 $110 reversed $147 $-1 #
edge $-1 $117 -2.0939999999999999 $164 2.0939999999999999 $109 $165 forward 7 unknown #
coedge $-1 $103 $166 $65 $112 reversed $61 $-1 #
edge $-1 $167 -2.0939999999999999 $116 2.0939999999999999 $111 $168 forward 7 unknown #
coedge $-1 $106 $66 $166 $169 forward $115 $-1 #
coedge $-1 $66 $106 $162 $170 reversed $115 $-1 #
loop $-1 $-1 $113 $146 #
vertex $-1 $67 $171 #
vertex $-1 $67 $172 #
straight-curve $-1 2.0939999999999999 0 14.5 0 1 0 I I #
model_id-kcp-attrib $-1 $-1 $-1 $69 1 990560015 40 -30932991 7 #
plane-surface $-1 4.1879999999999997 0 0 0 1 0 0 0 1 forward_v I I I I #
coedge $-1 $132 $131 $72 $122 forward $70 $-1 #
edge $-1 $126 -0.125 $124 0 $121 $173 forward 7 unknown #
attrib_edge_convexity-kcp-attrib $-1 $174 $-1 $74 1 #
vertex $-1 $138 $175 #
straight-curve $-1 0 -0.125 29 -1 0 0 I I #
vertex $-1 $135 $176 #
straight-curve $-1 4.1879999999999997 0 29 1 0 0 I I #
convexity-sys-attrib $-1 $-1 $77 $47 #
point $-1 0 -0.125 29 #
point $-1 0 0 29 #
coedge $-1 $121 $81 $84 $135 reversed $70 $-1 #
coedge $-1 $81 $121 $89 $138 forward $70 $-1 #
attrib_edge_convexity-kcp-attrib $-1 $177 $-1 $82 1 #
straight-curve $-1 4.1879999999999997 -0.125 0 0 -1 0 I I #
edge $-1 $126 -29 $87 0 $84 $178 forward 7 unknown #
convexity-sys-attrib $-1 $-1 $86 $50 #
point $-1 4.1879999999999997 0 0 #
edge $179 $124 -29 $92 0 $132 $180 forward 7 unknown #
convexity-sys-attrib $-1 $-1 $91 $52 #
point $-1 4.1879999999999997 -0.125 0 #
attrib_edge_convexity-kcp-attrib $-1 $181 $-1 $94 1 #
straight-curve $-1 0 -0.125 0 0 0 -1 I I #
attrib_edge_convexity-kcp-attrib $-1 $182 $-1 $95 1 #
straight-curve $-1 0 0 0 0 0 -1 I I #
model_id-kcp-attrib $-1 $-1 $-1 $100 1 990560015 40 -30932990 7 #
face $183 $-1 $115 $11 $-1 $184 reversed single #
loop $-1 $-1 $162 $100 #
plane-surface $-1 0 0.0625 0 0 -1 0 0 0 -1 forward_v I I I I #
coedge $-1 $185 $160 $163 $186 forward $101 $-1 #
coedge $-1 $166 $103 $104 $154 reversed $61 $-1 #
coedge $-1 $160 $185 $103 $152 reversed $101 $-1 #
edge $-1 $167 -14.5 $187 14.5 $151 $188 forward 7 unknown #
coedge $-1 $105 $104 $185 $189 forward $37 $-1 #
edge $-1 $158 -2.0939999999999999 $187 2.0939999999999999 $150 $190 forward 7 unknown #
coedge $-1 $163 $162 $105 $156 reversed $147 $-1 #
edge $-1 $191 -2.0939999999999999 $157 2.0939999999999999 $155 $192 forward 7 unknown #
vertex $-1 $107 $193 #
vertex $-1 $169 $194 #
straight-curve $-1 2.0939999999999999 0 -14.5 0 -1 0 I I #
coedge $-1 $149 $151 $108 $161 reversed $101 $-1 #
edge $-1 $164 -0.0625 $167 0.0625 $160 $195 forward 7 unknown #
coedge $-1 $155 $109 $114 $170 forward $147 $-1 #
coedge $-1 $109 $155 $149 $186 reversed $147 $-1 #
vertex $-1 $110 $196 #
straight-curve $-1 0 0.0625 14.5 -1 0 0 I I #
coedge $-1 $111 $150 $113 $169 reversed $61 $-1 #
vertex $-1 $161 $197 #
straight-curve $-1 0 -0.0625 14.5 1 0 0 I I #
edge $-1 $116 -14.5 $158 14.5 $113 $198 forward 7 unknown #
edge $-1 $117 -14.5 $157 14.5 $114 $199 forward 7 unknown #
point $-1 2.0939999999999999 -0.0625 14.5 #
point $-1 2.0939999999999999 0.0625 14.5 #
straight-curve $-1 4.1879999999999997 -0.125 29 0 -1 0 I I #
convexity-sys-attrib $-1 $-1 $123 $74 #
point $-1 4.1879999999999997 -0.125 29 #
point $-1 4.1879999999999997 0 29 #
convexity-sys-attrib $-1 $-1 $133 $82 #
straight-curve $-1 4.1879999999999997 0 0 0 0 -1 I I #
attrib_edge_convexity-kcp-attrib $-1 $200 $-1 $138 1 #
straight-curve $-1 4.1879999999999997 -0.125 0 0 0 -1 I I #
convexity-sys-attrib $-1 $-1 $141 $94 #
convexity-sys-attrib $-1 $-1 $143 $95 #
model_id-kcp-attrib $-1 $-1 $-1 $146 1 990560015 40 -30932990 6 #
plane-surface $-1 2.0939999999999999 0 0 -1 0 0 0 0 1 forward_v I I I I #
coedge $-1 $151 $149 $153 $189 reversed $101 $-1 #
edge $-1 $164 -14.5 $191 14.5 $163 $201 forward 7 unknown #
vertex $-1 $189 $202 #
straight-curve $-1 -2.0939999999999999 -0.0625 0 0 0 -1 I I #
edge $-1 $187 -0.0625 $191 0.0625 $185 $203 forward 7 unknown #
straight-curve $-1 0 -0.0625 -14.5 -1 0 0 I I #
vertex $-1 $156 $204 #
straight-curve $-1 0 0.0625 -14.5 1 0 0 I I #
point $-1 2.0939999999999999 0.0625 -14.5 #
point $-1 2.0939999999999999 -0.0625 -14.5 #
straight-curve $-1 -2.0939999999999999 0 14.5 0 -1 0 I I #
point $-1 -2.0939999999999999 0.0625 14.5 #
point $-1 -2.0939999999999999 -0.0625 14.5 #
straight-curve $-1 2.0939999999999999 -0.0625 0 0 0 -1 I I #
straight-curve $-1 2.0939999999999999 0.0625 0 0 0 -1 I I #
convexity-sys-attrib $-1 $-1 $179 $138 #
straight-curve $-1 -2.0939999999999999 0.0625 0 0 0 -1 I I #
point $-1 -2.0939999999999999 -0.0625 -14.5 #
straight-curve $-1 -2.0939999999999999 0 -14.5 0 1 0 I I #
point $-1 -2.0939999999999999 0.0625 -14.5 #
End-of-ACIS-data 