105 85 1 0                              
body $-1 $1 $-1 $-1 #
lump $-1 $-1 $2 $0 #
shell $-1 $-1 $-1 $3 $1 #
face $-1 $4 $5 $2 $-1 $6 reversed single #
face $-1 $7 $8 $2 $-1 $9 forward single #
loop $-1 $-1 $10 $3 #
plane-surface $-1 0 0 0 0 0 1 1 0 0 0 #
face $-1 $11 $12 $2 $-1 $13 forward single #
loop $-1 $-1 $14 $4 #
plane-surface $-1 0 0 29 0 0 1 1 0 0 0 #
coedge $-1 $15 $16 $17 $18 0 $5 $-1 #
face $-1 $19 $20 $2 $-1 $21 forward single #
loop $-1 $-1 $17 $7 #
plane-surface $-1 0 0 0 -1 0 0 0 0 1 0 #
coedge $-1 $22 $23 $24 $25 1 $8 $-1 #
coedge $-1 $26 $10 $27 $28 0 $5 $-1 #
coedge $-1 $10 $26 $29 $30 0 $5 $-1 #
coedge $-1 $31 $32 $10 $18 1 $12 $-1 #
edge $-1 $33 $34 $17 $35 0 #
face $-1 $36 $37 $2 $-1 $38 forward single #
loop $-1 $-1 $29 $11 #
plane-surface $-1 0 -0.125 0 0 -1 0 0 0 -1 0 #
coedge $-1 $39 $14 $40 $41 1 $8 $-1 #
coedge $-1 $14 $39 $42 $43 1 $8 $-1 #
coedge $-1 $32 $31 $14 $25 0 $12 $-1 #
edge $-1 $44 $45 $24 $46 0 #
coedge $-1 $16 $15 $47 $48 0 $5 $-1 #
coedge $-1 $49 $50 $15 $28 1 $51 $-1 #
edge $-1 $34 $52 $27 $53 0 #
coedge $-1 $54 $55 $16 $30 1 $20 $-1 #
edge $-1 $56 $33 $29 $57 0 #
coedge $-1 $24 $17 $55 $58 1 $12 $-1 #
coedge $-1 $17 $24 $49 $59 0 $12 $-1 #
vertex $-1 $58 $60 #
vertex $-1 $59 $61 #
straight-curve $-1 0 0 0 0 1 0 #
face $-1 $-1 $51 $2 $-1 $62 forward single #
loop $-1 $-1 $47 $19 #
plane-surface $-1 4.188 -0.125 0 1 0 0 0 0 -1 0 #
coedge $-1 $23 $22 $63 $64 1 $8 $-1 #
coedge $-1 $55 $54 $22 $41 0 $20 $-1 #
edge $-1 $65 $44 $40 $66 0 #
coedge $-1 $50 $49 $23 $43 0 $51 $-1 #
edge $-1 $45 $67 $42 $68 0 #
vertex $-1 $58 $69 #
vertex $-1 $59 $70 #
straight-curve $-1 0 0 29 0 1 0 #
coedge $-1 $71 $72 $26 $48 1 $37 $-1 #
edge $-1 $52 $56 $47 $73 0 #
coedge $-1 $42 $27 $32 $59 1 $51 $-1 #
coedge $-1 $27 $42 $71 $74 0 $51 $-1 #
loop $-1 $-1 $27 $36 #
vertex $-1 $74 $75 #
straight-curve $-1 4.188 0 0 1 0 0 #
coedge $-1 $40 $29 $72 $76 1 $20 $-1 #
coedge $-1 $29 $40 $31 $58 0 $20 $-1 #
vertex $-1 $76 $77 #
straight-curve $-1 0 -0.125 0 -1 0 0 #
edge $-1 $44 $33 $55 $78 0 #
edge $-1 $45 $34 $49 $79 0 #
point $-1 0 -0.125 0 #
point $-1 0 0 0 #
plane-surface $-1 4.188 0 0 0 1 0 0 0 1 0 #
coedge $-1 $72 $71 $39 $64 0 $37 $-1 #
edge $-1 $67 $65 $63 $80 0 #
vertex $-1 $76 $81 #
straight-curve $-1 0 -0.125 29 -1 0 0 #
vertex $-1 $74 $82 #
straight-curve $-1 4.188 0 29 1 0 0 #
point $-1 0 -0.125 29 #
point $-1 0 0 29 #
coedge $-1 $63 $47 $50 $74 1 $37 $-1 #
coedge $-1 $47 $63 $54 $76 0 $37 $-1 #
straight-curve $-1 4.188 -0.125 0 0 -1 0 #
edge $-1 $67 $52 $50 $83 0 #
point $-1 4.188 0 0 #
edge $-1 $65 $56 $72 $84 0 #
point $-1 4.188 -0.125 0 #
straight-curve $-1 0 -0.125 0 0 0 -1 #
straight-curve $-1 0 0 0 0 0 -1 #
straight-curve $-1 4.188 -0.125 29 0 -1 0 #
point $-1 4.188 -0.125 29 #
point $-1 4.188 0 29 #
straight-curve $-1 4.188 0 0 0 0 -1 #
straight-curve $-1 4.188 -0.125 0 0 0 -1 #
