105 891 1 0                             
body $-1 $1 $-1 $2 #
lump $-1 $-1 $3 $0 #
transform $-1 1 0 0 0 1 0 0 0 1 0 0 0 1 0 0 0 #
shell $-1 $-1 $-1 $4 $1 #
face $-1 $5 $6 $3 $-1 $7 reversed single #
face $-1 $8 $9 $3 $-1 $10 forward single #
loop $-1 $-1 $11 $4 #
cone-surface $-1 9.97625981893233 -20 25 0 0 1 -4.32879227876207 19.5259201423987 0 1 0 -1 0 #
face $-1 $12 $13 $3 $-1 $14 reversed single #
loop $-1 $-1 $15 $5 #
plane-surface $-1 10 3.5527136788005e-15 25 0 1 0 0 0 1 0 #
coedge $-1 $16 $17 $18 $19 1 $6 $-1 #
face $-1 $20 $21 $3 $-1 $22 forward single #
loop $-1 $-1 $23 $8 #
cone-surface $-1 32 3 25 0 0 -1 2.12132034355964 -2.12132034355964 0 1 0 1 0 #
coedge $-1 $24 $25 $26 $27 1 $9 $-1 #
coedge $-1 $28 $11 $29 $30 1 $6 $-1 #
coedge $-1 $11 $31 $32 $33 1 $6 $-1 #
coedge $-1 $34 $35 $11 $19 0 $36 $-1 #
edge $-1 $37 $38 $18 $39 0 #
face $-1 $40 $41 $3 $-1 $42 reversed single #
loop $-1 $-1 $43 $12 #
plane-surface $-1 35 12.5 25 -1 0 0 0 0 1 0 #
coedge $-1 $44 $45 $46 $47 1 $13 $-1 #
coedge $-1 $48 $15 $31 $49 0 $9 $-1 #
coedge $-1 $15 $48 $44 $50 0 $9 $-1 #
coedge $-1 $46 $32 $15 $27 0 $51 $-1 #
edge $-1 $52 $53 $26 $54 0 #
coedge $-1 $31 $16 $55 $56 1 $6 $-1 #
coedge $-1 $57 $58 $16 $30 0 $59 $-1 #
edge $-1 $60 $37 $29 $61 0 #
coedge $-1 $17 $28 $24 $49 1 $6 $-1 #
coedge $-1 $26 $62 $17 $33 0 $51 $-1 #
edge $-1 $38 $52 $32 $63 0 #
coedge $-1 $64 $18 $62 $65 1 $36 $-1 #
coedge $-1 $18 $66 $57 $67 0 $36 $-1 #
loop $-1 $-1 $18 $68 #
vertex $-1 $19 $69 #
vertex $-1 $65 $70 #
intcurve-curve $-1 0 { surfintcur nubs 3 open 5 
	5.06163103237156 3 6.04843477404399 2 6.71088455729671 2 7.37333434054943 2 7.48799809582832 3 
	1.52389458411832 -1.87384425926701 40.1174546917427 
	1.81457914063766 -1.73829582445465 40.0244345604483 
	2.09893054952117 -1.61428909038809 39.9039822693546 
	2.55403193571972 -1.42718123245249 39.6588298021727 
	2.74010491980273 -1.35393128018861 39.5436695074658 
	3.1040385165332 -1.21675238947831 39.2815626652039 
	3.28188219575451 -1.15280569986518 39.1346018968974 
	3.47845089407881 -1.08494196020535 38.9472723324334 
	3.50715556178283 -1.07510664170194 38.91925130941 
	3.53553390593267 -1.06545353821183 38.8908729652601 
	0.001 
	cone -6.03961325396085e-14 -25 35.3553390593274 0 1 0 -8.88178419700125e-15 0 5 1 -0 -1 0 
	cone 9.97625981893233 -20 25 0 0 1 -4.32879227876207 19.5259201423987 0 1 -0 1 0 
	nullbs 
	nullbs 
	} #
face $-1 $71 $72 $3 $-1 $73 forward single #
loop $-1 $-1 $74 $20 #
cone-surface $-1 32 22 25 0 0 -1 2.12132034355964 2.12132034355965 0 1 0 1 0 #
coedge $-1 $75 $76 $77 $78 1 $21 $-1 #
coedge $-1 $79 $23 $25 $50 1 $13 $-1 #
coedge $-1 $23 $79 $75 $80 1 $13 $-1 #
coedge $-1 $77 $26 $23 $47 0 $51 $-1 #
edge $-1 $53 $81 $46 $82 0 #
coedge $-1 $25 $24 $83 $84 1 $9 $-1 #
edge $-1 $52 $85 $24 $86 0 #
edge $-1 $87 $53 $25 $88 0 #
loop $-1 $-1 $32 $89 #
vertex $-1 $33 $90 #
vertex $-1 $27 $91 #
straight-curve $-1 17.4632034355964 3.5527136788005e-15 24.9632034355964 0.707106781186549 0 -0.707106781186546 #
coedge $-1 $92 $83 $28 $56 0 $93 $-1 #
edge $-1 $85 $60 $55 $94 0 #
coedge $-1 $95 $29 $35 $67 1 $59 $-1 #
coedge $-1 $29 $96 $92 $97 1 $59 $-1 #
loop $-1 $-1 $57 $98 #
vertex $-1 $56 $99 #
straight-curve $-1 1.52389458411832 -1.87384425926701 25 0 0 -1 #
coedge $-1 $32 $100 $34 $65 0 $51 $-1 #
ellipse-curve $-1 9.97625981893233 -20 32.4501470522605 -0.707106781186546 0 -0.707106781186549 -20 8.88178419700125e-16 19.9999999999999 0.707106781186549 #
coedge $-1 $66 $34 $101 $102 1 $36 $-1 #
edge $-1 $103 $38 $62 $104 0 #
coedge $-1 $35 $64 $105 $106 0 $36 $-1 #
edge $-1 $107 $37 $35 $108 0 #
face $-1 $109 $36 $3 $-1 $110 reversed single #
point $-1 1.52389458411832 -1.87384425926701 40.1174546917427 #
point $-1 3.53553390593267 -1.06545353821183 38.8908729652601 #
face $-1 $111 $112 $3 $-1 $113 reversed single #
loop $-1 $-1 $114 $40 #
plane-surface $-1 10 25 25 0 -1 0 0 0 -1 0 #
coedge $-1 $115 $116 $117 $118 1 $41 $-1 #
coedge $-1 $119 $43 $45 $80 0 $21 $-1 #
coedge $-1 $43 $119 $115 $120 0 $21 $-1 #
coedge $-1 $117 $46 $43 $78 0 $51 $-1 #
edge $-1 $81 $121 $77 $122 0 #
coedge $-1 $45 $44 $123 $124 1 $13 $-1 #
edge $-1 $81 $125 $75 $126 0 #
vertex $-1 $78 $127 #
ellipse-curve $-1 32 3 10.4264068711929 0.707106781186546 -0 0.707106781186549 3 6.66133814775094e-16 -2.99999999999999 0.707106781186549 #
coedge $-1 $55 $123 $48 $84 0 $93 $-1 #
edge $-1 $87 $85 $83 $128 0 #
vertex $-1 $56 $129 #
straight-curve $-1 9.97625981893233 0 25 0 0 1 #
vertex $-1 $84 $130 #
straight-curve $-1 32 -7.105427357601e-15 25 0 0 -1 #
face $-1 $131 $51 $3 $-1 $132 forward single #
point $-1 9.97625981893233 0 32.4501470522605 #
point $-1 32 -7.105427357601e-15 10.4264068711929 #
coedge $-1 $133 $55 $58 $97 0 $93 $-1 #
loop $-1 $-1 $134 $135 #
ellipse-curve $-1 9.97625981893233 -20 50 0 0 1 -4.32879227876207 19.5259201423987 0 1 #
coedge $-1 $96 $57 $136 $137 1 $59 $-1 #
coedge $-1 $58 $95 $138 $139 0 $59 $-1 #
edge $-1 $60 $140 $92 $141 0 #
face $-1 $142 $59 $3 $-1 $143 forward single #
point $-1 1.52389458411832 -1.87384425926701 50 #
coedge $-1 $62 $144 $145 $146 1 $51 $-1 #
coedge $-1 $145 $147 $64 $102 0 $148 $-1 #
edge $-1 $149 $103 $101 $150 0 #
vertex $-1 $146 $151 #
straight-curve $-1 3.53553390593267 0 38.8908729652601 0 1 0 #
coedge $-1 $152 $136 $66 $106 1 $153 $-1 #
edge $-1 $149 $107 $105 $154 1 #
vertex $-1 $106 $155 #
ellipse-curve $-1 -6.03961325396085e-14 -2.58444797406234 35.3553390593274 -0.4226182617407 0.90630778703665 0 5 2.331538290775 8.88178419700125e-15 0.906307787036649 #
face $-1 $156 $157 $3 $-1 $158 forward single #
cone-surface $-1 -6.03961325396085e-14 -25 35.3553390593274 0 1 0 -8.88178419700125e-15 0 5 1 0 1 0 #
face $-1 $159 $160 $3 $-1 $161 forward single #
loop $-1 $-1 $162 $71 #
cone-surface $-1 0.853813013262464 35 25 0 -0 -1 -5.37299608346823 -8.43391445812886 0 1 0 -1 0 #
coedge $-1 $163 $164 $165 $166 1 $72 $-1 #
coedge $-1 $167 $74 $76 $120 1 $41 $-1 #
coedge $-1 $74 $167 $163 $168 1 $41 $-1 #
coedge $-1 $165 $77 $74 $118 0 $51 $-1 #
edge $-1 $121 $169 $117 $170 0 #
coedge $-1 $76 $75 $171 $172 1 $21 $-1 #
edge $-1 $173 $121 $76 $174 0 #
vertex $-1 $118 $175 #
straight-curve $-1 35 -6.25 7.4264068711929 0 1 0 #
coedge $-1 $83 $171 $79 $124 0 $93 $-1 #
edge $-1 $125 $87 $123 $176 0 #
vertex $-1 $172 $177 #
straight-curve $-1 35 3 25 0 0 1 #
point $-1 35 3 7.4264068711929 #
straight-curve $-1 5 3.5527136788005e-15 50 -1 0 0 #
point $-1 9.97625981893233 0 50 #
point $-1 32 3.5527136788005e-15 50 #
face $-1 $178 $179 $3 $-1 $110 reversed single #
plane-surface $-1 21.2132034355964 -25 21.2132034355965 -0.707106781186546 0 -0.707106781186549 -0.707106781186549 0 0.707106781186546 0 #
coedge $-1 $180 $92 $181 $182 0 $93 $-1 #
coedge $-1 $183 $184 $185 $186 0 $93 $-1 #
face $-1 $187 $93 $3 $-1 $188 forward single #
coedge $-1 $105 $189 $95 $137 0 $153 $-1 #
edge $-1 $190 $107 $136 $191 0 #
coedge $-1 $192 $181 $96 $139 1 $193 $-1 #
edge $-1 $190 $140 $96 $194 0 #
vertex $-1 $182 $195 #
straight-curve $-1 -2.1525143625468 -3.58818190560651 50 -0.90630778703665 -0.4226182617407 0 #
face $-1 $89 $196 $3 $-1 $197 forward single #
plane-surface $-1 -5.29492972962386 -5.0535142563785 25 -0.4226182617407 0.90630778703665 0 0 0 1 0 #
coedge $-1 $100 $198 $199 $200 0 $51 $-1 #
coedge $-1 $201 $101 $100 $146 0 $148 $-1 #
edge $-1 $103 $202 $145 $203 0 #
coedge $-1 $101 $204 $152 $205 0 $148 $-1 #
loop $-1 $206 $207 $208 #
vertex $-1 $102 $209 #
ellipse-curve $-1 -6.03961325396085e-14 -75 35.3553390593274 0 1 -0 -8.88178419700125e-15 0 5 1 #
point $-1 3.53553390593267 -75 38.8908729652601 #
coedge $-1 $210 $105 $147 $205 1 $153 $-1 #
loop $-1 $-1 $136 $156 #
straight-curve $-1 -3.5355339059328 -25 38.8908729652601 0 -1 -0 #
point $-1 -3.5355339059328 -4.23309451006543 38.8908729652601 #
face $-1 $211 $153 $3 $-1 $212 reversed single #
loop $-1 $-1 $213 $109 #
plane-surface $-1 21.2132034355965 -25 -21.2132034355964 -0.707106781186549 0 0.707106781186546 0.707106781186546 0 0.707106781186549 0 #
face $-1 $214 $215 $3 $-1 $216 reversed single #
loop $-1 $-1 $217 $111 #
plane-surface $-1 -4.53153893518325 22.8869086912965 25 -0.90630778703665 -0.4226182617407 0 0 0 1 0 #
coedge $-1 $218 $219 $220 $221 1 $112 $-1 #
coedge $-1 $222 $114 $116 $168 0 $72 $-1 #
coedge $-1 $114 $223 $224 $225 1 $72 $-1 #
coedge $-1 $226 $117 $114 $166 0 $51 $-1 #
edge $-1 $169 $227 $165 $228 0 #
coedge $-1 $116 $115 $229 $230 1 $41 $-1 #
edge $-1 $169 $231 $163 $232 0 #
vertex $-1 $166 $233 #
ellipse-curve $-1 32 22 10.4264068711929 0.707106781186546 -0 0.707106781186549 3 0 -2.99999999999999 0.707106781186549 #
coedge $-1 $123 $229 $119 $172 0 $93 $-1 #
edge $-1 $173 $125 $171 $234 0 #
vertex $-1 $230 $235 #
straight-curve $-1 35 22 25 0 0 -1 #
point $-1 35 22 7.4264068711929 #
ellipse-curve $-1 32 3 50 -0 -0 -1 2.12132034355964 -2.12132034355964 0 1 #
point $-1 35 3 50 #
face $-1 $135 $236 $3 $-1 $212 reversed single #
loop $-1 $-1 $224 $131 #
coedge $-1 $237 $133 $238 $239 0 $93 $-1 #
coedge $-1 $138 $240 $133 $182 1 $193 $-1 #
edge $-1 $140 $241 $133 $242 0 #
coedge $-1 $243 $134 $244 $245 0 $93 $-1 #
coedge $-1 $134 $246 $247 $248 0 $93 $-1 #
coedge $-1 $249 $250 $134 $186 1 $215 $-1 #
edge $-1 $251 $252 $134 $253 0 #
face $-1 $254 $255 $3 $-1 $256 reversed single #
plane-surface $-1 0 0 50 0 0 1 1 0 0 0 #
coedge $-1 $136 $257 $192 $258 0 $153 $-1 #
vertex $-1 $258 $259 #
straight-curve $-1 -17.3063382852396 -10.6545260510906 25.1200685859533 0.671542934237817 0.313145613014973 0.671542934237819 #
coedge $-1 $240 $138 $189 $258 1 $193 $-1 #
loop $-1 $-1 $192 $260 #
straight-curve $-1 -13.904853706472 -9.06838774291515 25 0 0 1 #
point $-1 -13.904853706472 -9.06838774291515 50 #
loop $-1 $-1 $261 $142 #
plane-surface $-1 -27.1892336110995 12.321452147779 25 0.90630778703665 0.4226182617407 0 0 0 -1 0 #
coedge $-1 $144 $226 $262 $263 0 $51 $-1 #
coedge $-1 $264 $265 $144 $200 1 $266 $-1 #
edge $-1 $267 $202 $144 $268 0 #
coedge $-1 $207 $145 $265 $269 0 $148 $-1 #
vertex $-1 $269 $270 #
straight-curve $-1 21.2132034355964 -75 21.2132034355965 0.707106781186549 -0 -0.707106781186546 #
coedge $-1 $147 $271 $272 $273 0 $148 $-1 #
edge $-1 $274 $149 $147 $275 0 #
loop $-1 $-1 $276 $208 #
coedge $-1 $277 $201 $278 $279 0 $148 $-1 #
face $-1 $280 $148 $3 $-1 $281 reversed single #
point $-1 -3.5355339059328 -75 38.8908729652601 #
coedge $-1 $282 $152 $283 $284 0 $153 $-1 #
face $-1 $285 $286 $3 $-1 $287 reversed single #
plane-surface $-1 -21.2132034355965 -25 21.2132034355964 -0.707106781186549 0 0.707106781186546 0.707106781186546 0 0.707106781186549 0 #
coedge $-1 $288 $289 $290 $291 1 $157 $-1 #
face $-1 $292 $293 $3 $-1 $294 forward single #
loop $-1 $-1 $249 $159 #
cone-surface $-1 -16.5480640545886 41.5578252208807 25 0 0 -1 1.026060429977 2.81907786235773 0 1 0 1 0 #
coedge $-1 $295 $296 $297 $298 1 $160 $-1 #
coedge $-1 $299 $162 $223 $300 1 $112 $-1 #
coedge $-1 $162 $301 $302 $303 1 $112 $-1 #
coedge $-1 $304 $224 $162 $221 0 $179 $-1 #
edge $-1 $305 $306 $220 $307 0 #
coedge $-1 $223 $163 $308 $309 1 $72 $-1 #
coedge $-1 $164 $222 $218 $300 0 $72 $-1 #
coedge $-1 $220 $310 $164 $225 0 $179 $-1 #
edge $-1 $227 $305 $224 $311 0 #
coedge $-1 $198 $165 $310 $312 0 $51 $-1 #
vertex $-1 $225 $313 #
straight-curve $-1 17.4632034355964 25 24.9632034355964 -0.707106781186549 0 0.707106781186546 #
coedge $-1 $171 $308 $167 $230 0 $93 $-1 #
edge $-1 $231 $173 $229 $314 0 #
vertex $-1 $309 $315 #
straight-curve $-1 32 25 25 0 0 1 #
point $-1 32 25 10.4264068711929 #
straight-curve $-1 35 6.25 50 0 -1 0 #
point $-1 35 22 50 #
loop $-1 $-1 $302 $178 #
coedge $-1 $316 $180 $317 $318 0 $93 $-1 #
coedge $-1 $319 $320 $180 $239 1 $196 $-1 #
edge $-1 $241 $321 $180 $322 0 #
coedge $-1 $181 $192 $319 $323 1 $193 $-1 #
vertex $-1 $182 $324 #
ellipse-curve $-1 -15.1727084916941 -6.3494643818052 50 -0 -0 -1 -1.026060429977 -2.81907786235773 0 1 #
coedge $-1 $308 $183 $299 $325 0 $93 $-1 #
coedge $-1 $326 $295 $183 $245 1 $160 $-1 #
edge $-1 $252 $327 $183 $328 0 #
coedge $-1 $184 $329 $330 $331 0 $93 $-1 #
coedge $-1 $332 $333 $184 $248 1 $334 $-1 #
edge $-1 $335 $251 $184 $336 0 #
coedge $-1 $250 $185 $333 $337 1 $215 $-1 #
coedge $-1 $185 $249 $326 $338 1 $215 $-1 #
vertex $-1 $248 $339 #
vertex $-1 $186 $340 #
ellipse-curve $-1 -16.5480640545886 41.5578252208807 50 -0 -0 -1 1.026060429977 2.81907786235773 0 1 #
face $-1 $341 $334 $3 $-1 $256 reversed single #
loop $-1 $-1 $342 $187 #
plane-surface $-1 21.0725155194563 29.0035257275746 8.30578780485842 0.53864836885441 -0.518022030372011 0.664463024388673 0.743064395257167 -0.0796504470882288 -0.664463024388676 0 #
coedge $-1 $189 $343 $261 $344 0 $153 $-1 #
edge $-1 $345 $190 $189 $346 0 #
point $-1 -13.904853706472 -9.06838774291515 28.5215531647208 #
face $-1 $98 $193 $3 $-1 $347 reversed single #
coedge $-1 $348 $319 $257 $344 1 $196 $-1 #
coedge $-1 $349 $350 $198 $263 1 $351 $-1 #
edge $-1 $352 $267 $198 $353 0 #
coedge $-1 $354 $199 $350 $355 1 $266 $-1 #
coedge $-1 $199 $356 $201 $269 1 $266 $-1 #
loop $-1 $-1 $357 $341 #
vertex $-1 $263 $358 #
straight-curve $-1 38.8908729652601 0 3.5355339059328 0 -1 0 #
edge $-1 $202 $359 $201 $360 0 #
point $-1 38.8908729652601 -75 3.5355339059328 #
coedge $-1 $204 $277 $361 $362 0 $148 $-1 #
coedge $-1 $363 $283 $204 $273 1 $286 $-1 #
edge $-1 $364 $274 $204 $365 0 #
vertex $-1 $205 $366 #
straight-curve $-1 -21.2132034355965 -75 21.2132034355964 0.707106781186546 0 0.707106781186549 #
coedge $-1 $367 $368 $369 $370 0 $206 $-1 #
coedge $-1 $271 $207 $371 $372 0 $148 $-1 #
coedge $-1 $289 $373 $207 $279 1 $157 $-1 #
edge $-1 $359 $374 $207 $375 0 #
face $-1 $376 $377 $3 $-1 $378 reversed single #
plane-surface $-1 0 -75 0 0 1 -0 -0 0 1 0 #
coedge $-1 $379 $210 $380 $381 1 $153 $-1 #
coedge $-1 $272 $382 $210 $284 1 $286 $-1 #
edge $-1 $274 $383 $210 $384 0 #
face $-1 $385 $386 $3 $-1 $387 forward single #
loop $-1 $-1 $363 $211 #
cone-surface $-1 -35.3553390593274 -25 -6.03961325396085e-14 0 -1 0 -5 0 -8.88178419700125e-15 1 0 1 0 #
coedge $-1 $388 $213 $389 $390 1 $157 $-1 #
coedge $-1 $213 $278 $356 $391 0 $157 $-1 #
coedge $-1 $392 $393 $213 $291 0 $394 $-1 #
edge $-1 $395 $396 $290 $397 0 #
face $-1 $260 $398 $3 $-1 $399 reversed single #
loop $-1 $-1 $400 $214 #
plane-surface $-1 -26.4258428166589 40.261875095454 25 0.4226182617407 -0.90630778703665 0 0 0 -1 0 #
coedge $-1 $244 $217 $301 $401 0 $160 $-1 #
coedge $-1 $217 $326 $402 $403 1 $160 $-1 #
coedge $-1 $404 $302 $217 $298 0 $236 $-1 #
edge $-1 $405 $406 $297 $407 0 #
coedge $-1 $301 $218 $243 $325 1 $112 $-1 #
edge $-1 $408 $305 $223 $409 0 #
coedge $-1 $219 $299 $295 $401 1 $112 $-1 #
coedge $-1 $297 $410 $219 $303 0 $236 $-1 #
edge $-1 $306 $405 $302 $411 0 #
coedge $-1 $412 $220 $410 $413 0 $179 $-1 #
vertex $-1 $221 $414 #
vertex $-1 $303 $415 #
intcurve-curve $-1 0 { surfintcur nubs 3 open 6 
	6.77983003959245 3 7.6205951096969 2 8.60252349506903 2 9.58445188044117 2 10.5663802658133 2 
	11.5201706603637 3 
	0.853813013262464 25 40.2819000645706 
	0.56683517645064 25 40.331635653215 
	0.279231629948317 25.0125879672424 40.3553390593274 
	-0.326114242003449 25.0644626136248 40.3553390593274 
	-0.659906362239769 25.1095699279543 40.3229418642501 
	-1.31763703147544 25.2328736027353 40.1902523664023 
	-1.64159459703689 25.3110343813946 40.0900212723489 
	-2.25806385195546 25.4910917568825 39.8289500639008 
	-2.55112647056685 25.5930635443046 39.6679272498259 
	-3.08271422331464 25.8030945023551 39.3047074544948 
	-3.32259853262058 25.9107894504811 39.1038083385723 
	-3.5355339059328 26.0148103179203 38.8908729652601 
	0.001 
	cone -6.03961325396085e-14 -25 35.3553390593274 0 1 0 -8.88178419700125e-15 0 5 1 -0 -1 0 
	cone 0.853813013262464 35 25 0 -0 -1 -5.37299608346823 -8.43391445812886 0 1 -0 1 0 
	nullbs 
	nullbs 
	} #
coedge $-1 $229 $243 $222 $309 0 $93 $-1 #
edge $-1 $408 $231 $308 $416 0 #
coedge $-1 $224 $417 $226 $312 1 $179 $-1 #
ellipse-curve $-1 -6.03961325396085e-14 25 35.3553390593274 0 -1 0 -8.88178419700125e-15 0 5 1 #
edge $-1 $227 $352 $226 $104 0 #
point $-1 3.53553390593267 25 38.8908729652601 #
ellipse-curve $-1 32 22 50 -0 -0 -1 2.12132034355964 2.12132034355965 0 1 #
point $-1 32 25 50 #
coedge $-1 $418 $237 $419 $420 0 $93 $-1 #
coedge $-1 $342 $421 $237 $318 1 $255 $-1 #
edge $-1 $321 $422 $237 $336 0 #
coedge $-1 $261 $238 $240 $323 0 $196 $-1 #
coedge $-1 $238 $423 $342 $424 1 $196 $-1 #
vertex $-1 $239 $425 #
straight-curve $-1 -22.4014558416059 2.05402958723813 50 -0.4226182617407 0.90630778703665 0 #
edge $-1 $241 $345 $319 $426 0 #
point $-1 -17.8916318528041 -7.6173191670273 50 #
edge $-1 $327 $408 $243 $427 0 #
coedge $-1 $296 $244 $250 $338 0 $160 $-1 #
vertex $-1 $325 $428 #
straight-curve $-1 0.256238834310374 12.6194861307556 50 0.4226182617407 -0.90630778703665 0 #
coedge $-1 $246 $429 $430 $431 0 $93 $-1 #
coedge $-1 $432 $433 $246 $331 1 $434 $-1 #
edge $-1 $435 $335 $246 $436 0 #
coedge $-1 $437 $247 $433 $438 0 $334 $-1 #
coedge $-1 $247 $402 $249 $337 0 $334 $-1 #
loop $-1 $-1 $402 $254 #
vertex $-1 $331 $439 #
straight-curve $-1 -17.9554388466643 41.9024334648636 50 -0.693171919388577 -0.720772287321839 0 #
edge $-1 $440 $251 $333 $441 0 #
edge $-1 $252 $440 $326 $442 0 #
point $-1 -15.5620231696875 44.3911489534082 50 #
point $-1 -13.8291406934787 42.8256800061028 50 #
face $-1 $443 $266 $3 $-1 $444 reversed single #
coedge $-1 $421 $317 $320 $424 0 $255 $-1 #
coedge $-1 $257 $445 $446 $447 0 $153 $-1 #
edge $-1 $448 $345 $257 $449 0 #
vertex $-1 $258 $450 #
ellipse-curve $-1 -15.1727084916941 -6.3494643818052 27.2536983794987 -0.707106781186549 0 0.707106781186546 -3 3.33066907387547e-16 -3.00000000000001 0.707106781186546 #
cone-surface $-1 -15.1727084916941 -6.3494643818052 25 0 -0 -1 -1.026060429977 -2.81907786235773 0 1 0 1 0 #
coedge $-1 $451 $261 $452 $453 0 $196 $-1 #
coedge $-1 $454 $262 $417 $455 0 $351 $-1 #
coedge $-1 $262 $456 $264 $355 0 $351 $-1 #
loop $-1 $-1 $457 $458 #
vertex $-1 $455 $459 #
straight-curve $-1 21.2132034355964 50 21.2132034355965 0.707106781186549 0 -0.707106781186546 #
coedge $-1 $460 $264 $461 $462 1 $266 $-1 #
edge $-1 $463 $267 $350 $464 0 #
coedge $-1 $265 $357 $289 $391 1 $266 $-1 #
coedge $-1 $356 $465 $392 $466 1 $266 $-1 #
point $-1 38.8908729652601 50 3.5355339059328 #
vertex $-1 $279 $467 #
ellipse-curve $-1 35.3553390593274 -75 6.03961325396085e-14 0 1 -0 5 0 8.88178419700125e-15 1 #
coedge $-1 $468 $469 $271 $362 1 $386 $-1 #
edge $-1 $470 $364 $271 $471 0 #
coedge $-1 $382 $272 $469 $472 1 $286 $-1 #
vertex $-1 $273 $473 #
ellipse-curve $-1 -35.3553390593274 -75 -6.03961325396085e-14 0 1 -0 -5 0 -8.88178419700125e-15 1 #
point $-1 -38.8908729652601 -75 3.53553390593267 #
coedge $-1 $474 $276 $475 $476 1 $206 $-1 #
coedge $-1 $276 $474 $477 $478 1 $206 $-1 #
coedge $-1 $479 $480 $276 $370 1 $377 $-1 #
edge $-1 $481 $482 $369 $483 0 #
coedge $-1 $484 $485 $277 $372 1 $486 $-1 #
edge $-1 $374 $470 $277 $487 0 #
coedge $-1 $278 $488 $484 $489 1 $157 $-1 #
vertex $-1 $279 $490 #
straight-curve $-1 21.2132034355965 -75 -21.2132034355964 -0.707106781186546 0 -0.707106781186549 #
face $-1 $491 $492 $3 $-1 $493 reversed single #
loop $-1 $-1 $494 $280 #
plane-surface $-1 -50 0 0 1 0 0 0 0 -1 0 #
coedge $-1 $445 $282 $495 $496 1 $153 $-1 #
coedge $-1 $497 $498 $282 $381 0 $499 $-1 #
edge $-1 $500 $383 $380 $501 0 #
coedge $-1 $283 $363 $497 $502 1 $286 $-1 #
vertex $-1 $381 $503 #
straight-curve $-1 -38.8908729652601 -25 3.53553390593267 0 1 0 #
face $-1 $504 $486 $3 $-1 $505 reversed single #
loop $-1 $-1 $468 $285 #
plane-surface $-1 -21.2132034355964 -25 -21.2132034355965 0.707106781186546 0 0.707106781186549 0.707106781186549 0 -0.707106781186546 0 #
coedge $-1 $506 $288 $507 $508 1 $157 $-1 #
coedge $-1 $509 $510 $288 $390 0 $511 $-1 #
edge $-1 $512 $395 $389 $513 0 #
edge $-1 $359 $396 $289 $514 0 #
coedge $-1 $515 $290 $357 $466 0 $394 $-1 #
coedge $-1 $290 $516 $509 $517 0 $394 $-1 #
loop $-1 $-1 $290 $518 #
vertex $-1 $517 $519 #
vertex $-1 $291 $520 #
straight-curve $-1 26.5656891269437 3.71722592841022 -15.8607177442492 0.367755110567893 0.854114955554809 0.367755110567894 #
loop $-1 $-1 $446 $292 #
cone-surface $-1 -33.7679120082849 33.5280782478074 25 0 0 -1 -2.81907786235773 1.026060429977 0 1 0 1 0 #
coedge $-1 $521 $522 $445 $523 1 $293 $-1 #
edge $-1 $405 $327 $295 $524 0 #
coedge $-1 $333 $525 $296 $403 0 $334 $-1 #
edge $-1 $406 $440 $402 $526 0 #
coedge $-1 $410 $297 $525 $527 1 $236 $-1 #
vertex $-1 $303 $528 #
vertex $-1 $527 $529 #
straight-curve $-1 -0.25540767001654 13.7167156001392 42.1709992011764 -0.389281620635025 0.834817129478987 -0.389281620635027 #
vertex $-1 $325 $530 #
straight-curve $-1 0.853813013262464 25 25 0 0 -1 #
coedge $-1 $302 $404 $304 $413 1 $236 $-1 #
ellipse-curve $-1 0.853813013262464 35 43.2802198844554 0.707106781186549 -0 -0.707106781186546 -10 0 -10 0.707106781186546 #
coedge $-1 $531 $304 $437 $532 1 $179 $-1 #
edge $-1 $306 $533 $410 $154 1 #
point $-1 0.853813013262464 25 40.2819000645706 #
point $-1 -3.5355339059328 26.0148103179203 38.8908729652601 #
straight-curve $-1 5 25 50 1 0 -0 #
coedge $-1 $310 $531 $349 $455 1 $179 $-1 #
coedge $-1 $477 $316 $479 $534 0 $93 $-1 #
coedge $-1 $535 $536 $316 $420 1 $537 $-1 #
edge $-1 $422 $538 $316 $539 0 #
coedge $-1 $317 $342 $535 $540 0 $255 $-1 #
vertex $-1 $420 $541 #
coedge $-1 $320 $542 $543 $544 1 $196 $-1 #
edge $-1 $321 $545 $342 $546 0 #
point $-1 -33.4635692007956 25.7768082414817 50 #
straight-curve $-1 -17.8916318528041 -7.6173191670273 25 0 0 -1 #
ellipse-curve $-1 0.853813013262464 35 50 0 0 1 -5.37299608346823 -8.43391445812886 0 1 #
point $-1 -8.20926485710403 30.773817382593 50 #
coedge $-1 $329 $547 $548 $549 0 $93 $-1 #
coedge $-1 $550 $551 $329 $431 1 $552 $-1 #
edge $-1 $553 $435 $329 $554 0 #
coedge $-1 $555 $330 $551 $556 1 $434 $-1 #
coedge $-1 $330 $557 $332 $438 1 $434 $-1 #
loop $-1 $-1 $555 $558 #
vertex $-1 $331 $559 #
ellipse-curve $-1 -24.3908921410943 48.7236753676046 50 -0 -0 -1 10.4748160442652 -1.12281490866471 0 0.664463024388676 #
coedge $-1 $525 $332 $412 $532 0 $334 $-1 #
edge $-1 $335 $560 $332 $561 0 #
point $-1 -15.4189027923133 44.5399680253829 50 #
vertex $-1 $337 $562 #
ellipse-curve $-1 -16.5480640545886 41.5578252208807 48.5904485818288 0.53864836885441 -0.518022030372011 0.664463024388673 -2.16231686196552 2.07951575816573 3.37409809664337 0.664463024388673 #
straight-curve $-1 -13.8291406934787 42.8256800061028 25 0 0 -1 #
face $-1 $563 $564 $3 $-1 $158 forward single #
cone-surface $-1 35.3553390593274 -25 6.03961325396085e-14 0 -1 0 5 0 8.88178419700125e-15 1 0 1 0 #
coedge $-1 $343 $379 $400 $523 0 $153 $-1 #
coedge $-1 $565 $452 $343 $447 1 $398 $-1 #
edge $-1 $566 $448 $343 $567 0 #
vertex $-1 $447 $568 #
straight-curve $-1 -19.4795512126383 -4.21201511065181 22.9468556585546 0.389281620635025 -0.834817129478987 0.389281620635027 #
point $-1 -17.8916318528041 -7.6173191670273 24.5347750183888 #
coedge $-1 $542 $348 $569 $570 1 $196 $-1 #
coedge $-1 $446 $571 $348 $453 1 $398 $-1 #
edge $-1 $448 $572 $348 $573 0 #
coedge $-1 $457 $349 $555 $574 1 $351 $-1 #
edge $-1 $352 $575 $349 $576 0 #
coedge $-1 $350 $457 $577 $578 0 $351 $-1 #
coedge $-1 $456 $454 $579 $580 1 $351 $-1 #
face $-1 $68 $351 $3 $-1 $581 forward single #
point $-1 3.53553390593267 50 38.8908729652601 #
coedge $-1 $465 $354 $582 $583 1 $266 $-1 #
coedge $-1 $577 $584 $354 $462 0 $564 $-1 #
edge $-1 $585 $463 $461 $514 0 #
vertex $-1 $578 $586 #
ellipse-curve $-1 35.3553390593274 50 6.03961325396085e-14 0 -1 0 5 0 8.88178419700125e-15 1 #
coedge $-1 $357 $460 $587 $588 1 $266 $-1 #
edge $-1 $396 $589 $392 $590 0 #
point $-1 38.8908729652601 -75 -3.53553390593267 #
coedge $-1 $591 $361 $485 $592 0 $386 $-1 #
coedge $-1 $361 $591 $363 $472 0 $386 $-1 #
vertex $-1 $362 $593 #
straight-curve $-1 -21.2132034355964 -75 -21.2132034355965 -0.707106781186549 0 0.707106781186546 #
edge $-1 $594 $364 $469 $595 0 #
point $-1 -38.8908729652601 -75 -3.5355339059328 #
coedge $-1 $368 $367 $596 $597 1 $206 $-1 #
coedge $-1 $598 $599 $367 $476 0 $600 $-1 #
edge $-1 $601 $482 $367 $602 0 #
coedge $-1 $603 $418 $368 $478 0 $93 $-1 #
edge $-1 $481 $604 $368 $605 0 #
coedge $-1 $606 $369 $418 $534 1 $377 $-1 #
coedge $-1 $369 $607 $598 $608 1 $377 $-1 #
vertex $-1 $534 $609 #
vertex $-1 $608 $610 #
straight-curve $-1 -50 -75 0 0 0 -1 #
coedge $-1 $611 $371 $373 $489 0 $486 $-1 #
coedge $-1 $371 $611 $468 $592 1 $486 $-1 #
loop $-1 $-1 $484 $385 #
ellipse-curve $-1 6.03961325396085e-14 -75 -35.3553390593274 0 1 -0 8.88178419700125e-15 0 -5 1 #
coedge $-1 $373 $612 $613 $614 1 $157 $-1 #
edge $-1 $374 $615 $373 $616 1 #
point $-1 3.5355339059328 -75 -38.8908729652601 #
face $-1 $-1 $617 $3 $-1 $618 reversed single #
loop $-1 $-1 $619 $376 #
plane-surface $-1 0 75 0 0 -1 0 0 0 -1 0 #
coedge $-1 $620 $621 $622 $623 0 $377 $-1 #
coedge $-1 $624 $625 $379 $496 0 $626 $-1 #
edge $-1 $627 $500 $495 $628 0 #
coedge $-1 $629 $380 $382 $502 0 $499 $-1 #
coedge $-1 $380 $613 $624 $630 1 $499 $-1 #
loop $-1 $-1 $498 $563 #
vertex $-1 $630 $631 #
straight-curve $-1 -21.2132034355965 50 21.2132034355964 -0.707106781186546 0 -0.707106781186549 #
edge $-1 $383 $594 $497 $632 0 #
point $-1 -38.8908729652601 50 3.53553390593267 #
face $-1 $558 $552 $3 $-1 $633 forward single #
cone-surface $-1 6.03961325396085e-14 -25 -35.3553390593274 0 1 0 8.88178419700125e-15 0 -5 1 0 1 0 #
coedge $-1 $612 $388 $634 $635 1 $157 $-1 #
coedge $-1 $636 $637 $388 $508 0 $638 $-1 #
edge $-1 $639 $512 $507 $640 0 #
coedge $-1 $641 $389 $393 $517 1 $511 $-1 #
coedge $-1 $389 $641 $636 $642 1 $511 $-1 #
loop $-1 $-1 $389 $643 #
vertex $-1 $508 $644 #
ellipse-curve $-1 27.7105460496591 19.8891064975359 -14.7158608215337 -0.707106781186549 0 0.707106781186546 2.84593451103693 -5.76783721920519 2.84593451103694 0.995272183137579 #
straight-curve $-1 38.8908729652601 -25 -3.53553390593267 0 1 0 #
coedge $-1 $516 $392 $645 $646 0 $394 $-1 #
coedge $-1 $393 $515 $647 $648 1 $394 $-1 #
edge $-1 $649 $395 $393 $650 0 #
face $-1 $651 $394 $3 $-1 $256 reversed single #
point $-1 31.9460267189977 16.213114282513 -10.4803801521951 #
point $-1 38.8908729652601 32.3425897745098 -3.53553390593267 #
coedge $-1 $522 $400 $625 $652 1 $293 $-1 #
coedge $-1 $400 $521 $565 $653 0 $293 $-1 #
edge $-1 $627 $566 $445 $654 0 #
straight-curve $-1 -8.20926485710403 30.773817382593 25 0 0 1 #
coedge $-1 $402 $437 $404 $527 0 $334 $-1 #
straight-curve $-1 -2.38810913693725 18.2903086553316 18.9720618995126 -0.291582725542509 0.625301172826949 0.723863217345959 #
edge $-1 $533 $406 $525 $655 0 #
point $-1 -8.20926485710403 30.773817382593 34.2171420140889 #
point $-1 -8.43722529583683 31.2626801210579 33.9891815753561 #
point $-1 0.853813013262464 25 50 #
coedge $-1 $417 $412 $557 $656 1 $179 $-1 #
edge $-1 $560 $533 $437 $657 0 #
vertex $-1 $532 $658 #
edge $-1 $538 $481 $479 $659 0 #
coedge $-1 $543 $419 $421 $540 1 $537 $-1 #
coedge $-1 $419 $660 $606 $661 1 $537 $-1 #
loop $-1 $-1 $543 $662 #
vertex $-1 $420 $663 #
ellipse-curve $-1 -44.660752607843 27.6467198769668 50 -0 -0 -1 10.4748160442652 -1.12281490866471 0 0.664463024388676 #
edge $-1 $545 $422 $421 $650 0 #
point $-1 -35.688763259062 23.4630125347452 50 #
coedge $-1 $423 $451 $664 $665 1 $196 $-1 #
coedge $-1 $660 $535 $423 $544 0 $537 $-1 #
edge $-1 $545 $666 $543 $667 0 #
vertex $-1 $424 $668 #
straight-curve $-1 -22.9075842386854 3.13942543744152 23.7944378470572 0.291582725542509 -0.625301172826949 -0.723863217345959 #
coedge $-1 $429 $669 $670 $671 0 $93 $-1 #
coedge $-1 $672 $673 $429 $549 1 $674 $-1 #
edge $-1 $675 $553 $429 $676 0 #
coedge $-1 $677 $430 $673 $678 0 $552 $-1 #
coedge $-1 $430 $579 $432 $556 0 $552 $-1 #
loop $-1 $-1 $582 $504 #
vertex $-1 $431 $679 #
straight-curve $-1 16.5486396963594 37.8525899425238 50 0.90630778703665 -0.4226182617407 0 #
coedge $-1 $557 $432 $454 $574 0 $434 $-1 #
edge $-1 $680 $435 $551 $681 0 #
coedge $-1 $433 $555 $531 $656 0 $434 $-1 #
face $-1 $682 $434 $3 $-1 $683 reversed single #
point $-1 -18.9336220154312 54.3982403073917 50 #
vertex $-1 $438 $684 #
straight-curve $-1 26.2352219250286 40.0749853428835 12.7520496680921 0.743064395257167 -0.0796504470882288 -0.664463024388676 #
point $-1 -13.8291406934787 42.8256800061028 47.3747798481358 #
face $-1 $458 $499 $3 $-1 $581 forward single #
loop $-1 $-1 $584 $443 #
coedge $-1 $685 $446 $522 $653 1 $398 $-1 #
vertex $-1 $523 $686 #
ellipse-curve $-1 -33.7679120082849 33.5280782478074 8.65849486290787 -0.707106781186549 0 0.707106781186546 -3 2.22044604925031e-16 -3.00000000000001 0.707106781186546 #
point $-1 -36.4868353693949 32.2602234625853 5.93957150179791 #
coedge $-1 $687 $688 $451 $570 0 $689 $-1 #
edge $-1 $690 $572 $569 $691 0 #
coedge $-1 $452 $685 $687 $692 1 $398 $-1 #
vertex $-1 $692 $693 #
straight-curve $-1 -36.4868353693949 32.2602234625853 25 0 0 1 #
edge $-1 $680 $575 $555 $694 0 #
vertex $-1 $574 $695 #
ellipse-curve $-1 -6.03961325396085e-14 50 35.3553390593274 0 -1 0 -8.88178419700125e-15 0 5 1 #
coedge $-1 $584 $461 $456 $578 1 $564 $-1 #
edge $-1 $696 $463 $456 $697 0 #
coedge $-1 $551 $698 $457 $580 0 $552 $-1 #
edge $-1 $696 $680 $579 $699 0 #
plane-surface $-1 0 50 0 0 -1 0 0.707106781186549 0 -0.707106781186546 0 #
coedge $-1 $698 $700 $460 $583 0 $552 $-1 #
edge $-1 $701 $585 $582 $702 0 #
coedge $-1 $461 $577 $698 $703 1 $564 $-1 #
vertex $-1 $703 $704 #
point $-1 38.8908729652601 50 -3.53553390593267 #
coedge $-1 $705 $645 $465 $588 0 $706 $-1 #
edge $-1 $589 $701 $587 $707 0 #
vertex $-1 $588 $708 #
ellipse-curve $-1 35.3553390593274 33.2012829466616 6.03961325396085e-14 0.53864836885441 -0.518022030372011 0.664463024388673 3.148637925855 8.25608975468369 3.88408022726971 0.518022030372011 #
coedge $-1 $469 $468 $629 $709 1 $386 $-1 #
edge $-1 $470 $710 $468 $711 0 #
point $-1 -3.53553390593267 -75 -38.8908729652601 #
vertex $-1 $502 $712 #
straight-curve $-1 -38.8908729652601 -25 -3.5355339059328 0 -1 0 #
coedge $-1 $713 $714 $474 $597 0 $617 $-1 #
edge $-1 $604 $601 $596 $715 0 #
coedge $-1 $716 $475 $480 $608 0 $600 $-1 #
coedge $-1 $475 $717 $713 $718 0 $600 $-1 #
loop $-1 $-1 $719 $720 #
vertex $-1 $597 $721 #
straight-curve $-1 0 -75 -50 -1 0 0 #
coedge $-1 $722 $477 $714 $723 0 $93 $-1 #
vertex $-1 $723 $724 #
straight-curve $-1 0 -75 50 1 0 0 #
coedge $-1 $725 $479 $536 $661 0 $377 $-1 #
coedge $-1 $480 $620 $726 $727 0 $377 $-1 #
edge $-1 $482 $728 $480 $729 0 #
point $-1 -50 -75 50 #
point $-1 -50 -75 -50 #
coedge $-1 $485 $484 $730 $731 1 $486 $-1 #
coedge $-1 $488 $506 $732 $733 1 $157 $-1 #
coedge $-1 $498 $730 $488 $614 0 $499 $-1 #
edge $-1 $615 $734 $613 $697 0 #
vertex $-1 $731 $735 #
straight-curve $-1 3.5355339059328 -25 -38.8908729652601 0 -1 -0 #
loop $-1 $-1 $736 $491 #
plane-surface $-1 50 0 0 -1 0 0 0 -0 1 0 #
coedge $-1 $737 $738 $739 $740 0 $492 $-1 #
coedge $-1 $607 $494 $669 $741 1 $377 $-1 #
coedge $-1 $494 $725 $742 $743 0 $377 $-1 #
coedge $-1 $744 $670 $494 $623 1 $626 $-1 #
edge $-1 $745 $746 $494 $747 0 #
coedge $-1 $732 $495 $498 $630 0 $626 $-1 #
coedge $-1 $495 $748 $521 $652 0 $626 $-1 #
loop $-1 $-1 $625 $749 #
vertex $-1 $652 $750 #
straight-curve $-1 -34.2562267850504 19.5582843649954 8.17018008614239 0.367755110567893 0.854114955554809 0.367755110567894 #
coedge $-1 $730 $497 $591 $709 0 $499 $-1 #
edge $-1 $500 $734 $624 $751 0 #
point $-1 -21.1489788362594 50 21.2774280349334 #
ellipse-curve $-1 -35.3553390593274 50 -6.03961325396085e-14 0 -1 0 -5 0 -8.88178419700125e-15 1 #
plane-surface $-1 22.2820361481182 52.5118159000077 6.84040286651339 -0.397131261967103 -0.851650739639146 -0.342020143325669 -0.53864836885441 0.518022030372011 -0.664463024388673 0 #
coedge $-1 $752 $753 $506 $635 0 $754 $-1 #
edge $-1 $755 $639 $634 $756 0 #
coedge $-1 $757 $507 $510 $642 0 $638 $-1 #
coedge $-1 $507 $758 $752 $759 0 $638 $-1 #
loop $-1 $-1 $507 $760 #
vertex $-1 $759 $761 #
straight-curve $-1 27.6219129119108 11.7466997938018 -14.804493959282 0.602665796539472 -0.523056283169303 0.602665796539474 #
coedge $-1 $510 $509 $762 $763 1 $511 $-1 #
edge $-1 $512 $764 $636 $765 0 #
face $-1 $760 $511 $3 $-1 $766 reversed single #
point $-1 25.1342877388146 13.9057205718673 -17.2921191323782 #
coedge $-1 $587 $767 $515 $646 1 $706 $-1 #
edge $-1 $589 $768 $515 $561 0 #
coedge $-1 $769 $762 $516 $648 0 $617 $-1 #
edge $-1 $649 $768 $647 $770 0 #
vertex $-1 $763 $771 #
straight-curve $-1 15.909809113884 17.9320661122657 3.85952594162472 -0.743064395257167 0.0796504470882288 0.664463024388676 #
face $-1 $662 $772 $3 $-1 $773 forward single #
edge $-1 $774 $627 $625 $775 0 #
edge $-1 $774 $566 $522 $776 0 #
straight-curve $-1 -28.9078453458466 39.1044983085337 13.5185615253463 -0.671542934237817 -0.313145613014973 -0.671542934237819 #
straight-curve $-1 -19.0973570120709 6.50441663164049 23.3290498591219 -0.367755110567893 -0.854114955554809 -0.367755110567894 #
edge $-1 $575 $560 $557 $777 0 #
ellipse-curve $-1 -6.03961325396085e-14 41.788214668179 35.3553390593274 0.53864836885441 -0.518022030372011 0.664463024388673 3.148637925855 8.25608975468369 3.88408022726971 0.518022030372011 #
point $-1 -3.5355339059328 42.6469078403308 38.8908729652601 #
straight-curve $-1 -50 0 50 0 -1 0 #
coedge $-1 $536 $543 $778 $779 1 $537 $-1 #
edge $-1 $538 $780 $606 $781 0 #
face $-1 $782 $537 $3 $-1 $766 reversed single #
point $-1 -50 21.9178255774739 50 #
coedge $-1 $783 $778 $542 $665 0 $772 $-1 #
edge $-1 $666 $690 $664 $784 0 #
vertex $-1 $779 $785 #
ellipse-curve $-1 -33.792268891175 26.4817070022696 40.2811847708071 0.90630778703665 0.4226182617407 0 2.32366469139818 -4.98311501164709 -9.45933932595698 0.639783314195953 #
point $-1 -32.210783899745 23.0902014934661 46.8899213868896 #
coedge $-1 $547 $722 $620 $741 0 $93 $-1 #
coedge $-1 $622 $786 $547 $671 1 $626 $-1 #
edge $-1 $746 $675 $547 $787 0 #
coedge $-1 $788 $548 $786 $789 1 $674 $-1 #
coedge $-1 $548 $788 $550 $678 1 $674 $-1 #
loop $-1 $-1 $548 $790 #
vertex $-1 $549 $791 #
ellipse-curve $-1 -38.4897325463217 55.2980726196672 50 -0 -0 -1 -10.4748160442652 1.12281490866471 0 0.664463024388676 #
coedge $-1 $700 $550 $792 $793 1 $552 $-1 #
edge $-1 $553 $794 $550 $795 0 #
point $-1 -33.0324624206585 60.9726375594543 50 #
vertex $-1 $574 $796 #
straight-curve $-1 25.2446021768175 49.6626947329616 10.4949495006511 -0.743064395257167 0.0796504470882288 0.664463024388676 #
face $-1 $797 $706 $3 $-1 $683 reversed single #
cone-surface $-1 22.4646833430478 43.7011395554876 8.10080849737141 -0.743064395257167 0.0796504470882287 0.664463024388676 4.63187285855095 1.65137785904914 4.9818375112865 1 0 1 0 #
point $-1 -3.270911533959 43.2378023703902 39.1370235698352 #
coedge $-1 $571 $565 $748 $798 1 $398 $-1 #
point $-1 -35.035766793507 36.2470016089173 7.39064007768576 #
coedge $-1 $799 $569 $571 $692 0 $689 $-1 #
coedge $-1 $569 $742 $783 $800 1 $689 $-1 #
loop $-1 $-1 $687 $797 #
vertex $-1 $665 $801 #
ellipse-curve $-1 -36.2774595919934 31.8112156589607 29.896027231249 0.90630778703665 0.4226182617407 0 2.32366469139818 -4.98311501164709 -9.45933932595698 0.639783314195952 #
edge $-1 $572 $802 $687 $803 0 #
point $-1 -36.4868353693949 32.2602234625853 20.7740981832152 #
ellipse-curve $-1 -36.2978107560292 50 60.6474044571753 0 -1 0 65.5116121455554 0 -58.5817921254972 0.0796504470882288 #
point $-1 -3.04144566368974 50 39.3239166728841 #
vertex $-1 $580 $804 #
straight-curve $-1 21.2132034355965 50 -21.2132034355964 0.707106781186546 0 0.707106781186549 #
coedge $-1 $579 $582 $584 $703 0 $552 $-1 #
straight-curve $-1 22.3215094307152 50 13.0491418428175 -0.652573532601737 0 0.757725401809713 #
coedge $-1 $582 $677 $705 $805 0 $552 $-1 #
vertex $-1 $805 $806 #
ellipse-curve $-1 35.3553390593274 49.1627179873997 6.03961325396085e-14 0.397131261967103 0.851650739639146 0.342020143325669 3.78862700904856 -3.07702273832509 3.26286766300868 0.851650739639146 #
edge $-1 $585 $696 $698 $807 0 #
point $-1 38.8908729652601 48.9339302702268 -3.53553390593267 #
coedge $-1 $767 $587 $700 $805 1 $706 $-1 #
loop $-1 $-1 $587 $682 #
intcurve-curve $-1 0 { surfintcur nubs 3 open 13 
	2.83883565682124 3 3.72804700235335 2 4.55694463407998 2 5.3858422658066 2 6.21473989753323 2 
	7.04363752925985 2 8.63647990470496 2 9.43290109242751 2 10.2293222801501 2 11.8221646555952 2 
	13.4150070310403 2 14.2781297107632 2 14.525579079457 3 
	40.3537258624913 38.5615967886565 0.127001440767083 
	40.3489032067689 38.8000434771637 0.316806364028862 
	40.3334184214369 39.0452542569438 0.497712715019061 
	40.2895661520557 39.5292874365212 0.823769077804237 
	40.2621745613339 39.7670388321469 0.970310541055831 
	40.2020987504075 40.2505721393704 1.23590359392677 
	40.1693911266249 40.4963228412521 1.35500670561755 
	40.1079157484489 40.99721176304 1.5569710135835 
	40.0791937722983 41.2522274392459 1.63982076582667 
	40.037241774237 41.7749760684069 1.75601892530571 
	40.024248652234 42.0427622957977 1.78921301506117 
	40.024248652234 42.850008964855 1.78921301506117 
	40.0744982982228 43.3465853318197 1.66530751715497 
	40.1664122442986 44.0567877399257 1.36546779367874 
	40.1993671027682 44.2877856607554 1.2466162048548 
	40.2602059294865 44.7401418045628 0.980275791534976 
	40.2880981412467 44.9614802516419 0.832755263785524 
	40.352816643315 45.6111177929431 0.357199881781138 
	40.369908651561 46.0244244869065 -0.00306764720328939 
	40.3112452022054 46.7955153452052 -0.764795371538532 
	40.2357815053438 47.1530052803003 -1.16657579234676 
	40.0307258361228 47.6461347924024 -1.78703650500176 
	39.9380512091198 47.8169209540146 -2.01631778771659 
	39.7886027267451 48.0225975678452 -2.31336609202401 
	39.7533932007021 48.0675438484982 -2.3796812609358 
	39.7162570509296 48.1114512765575 -2.44589334814899 
	0.001 
	cone 35.3553390593274 -25 6.03961325396085e-14 0 -1 0 5 0 8.88178419700125e-15 1 0 1 0 
	cone 22.4646833430478 43.7011395554876 8.10080849737141 -0.743064395257167 0.0796504470882287 0.664463024388676 4.63187285855095 1.65137785904914 4.9818375112865 1 -0 -1 0 
	nullbs 
	nullbs 
	} #
point $-1 40.3537258624913 38.5615967886565 0.127001440767083 #
edge $-1 $594 $710 $629 $808 0 #
vertex $-1 $709 $809 #
straight-curve $-1 -3.53553390593267 -25 -38.8908729652601 0 1 0 #
point $-1 -38.8908729652601 50 -3.5355339059328 #
coedge $-1 $810 $596 $599 $718 1 $617 $-1 #
coedge $-1 $596 $739 $603 $723 1 $617 $-1 #
straight-curve $-1 50 -75 0 0 0 -1 #
coedge $-1 $811 $598 $737 $812 0 $600 $-1 #
coedge $-1 $599 $813 $758 $814 0 $600 $-1 #
edge $-1 $815 $601 $713 $816 0 #
coedge $-1 $813 $811 $817 $818 0 $600 $-1 #
face $-1 $208 $600 $3 $-1 $819 reversed single #
point $-1 50 -75 -50 #
coedge $-1 $669 $603 $738 $820 0 $93 $-1 #
edge $-1 $604 $821 $714 $822 0 #
point $-1 50 -75 50 #
coedge $-1 $621 $606 $823 $824 0 $377 $-1 #
coedge $-1 $738 $737 $607 $727 1 $492 $-1 #
edge $-1 $825 $728 $726 $826 0 #
vertex $-1 $812 $827 #
straight-curve $-1 -50 0 -50 0 1 0 #
coedge $-1 $613 $629 $611 $731 0 $499 $-1 #
edge $-1 $710 $615 $730 $828 0 #
coedge $-1 $829 $624 $612 $733 0 $626 $-1 #
edge $-1 $734 $755 $732 $830 0 #
vertex $-1 $630 $831 #
point $-1 3.5355339059328 50 -38.8908729652601 #
coedge $-1 $832 $833 $834 $835 0 $617 $-1 #
coedge $-1 $726 $619 $716 $812 1 $492 $-1 #
coedge $-1 $619 $726 $722 $820 1 $492 $-1 #
coedge $-1 $714 $832 $619 $740 1 $617 $-1 #
edge $-1 $821 $836 $739 $837 0 #
edge $-1 $825 $746 $620 $659 0 #
coedge $-1 $688 $799 $621 $743 1 $689 $-1 #
edge $-1 $838 $745 $621 $839 0 #
coedge $-1 $748 $622 $799 $840 0 $626 $-1 #
vertex $-1 $743 $841 #
vertex $-1 $741 $842 #
straight-curve $-1 -50 8.27673331727473 12.1376932292342 -0 0.788651435233222 0.614840559579945 #
coedge $-1 $625 $744 $685 $798 0 $626 $-1 #
face $-1 $790 $626 $3 $-1 $843 forward single #
point $-1 -25.0696087676012 40.8942974187801 17.3567981035916 #
straight-curve $-1 6.34828301766289 50 -1.01328597312556 0.776816045453942 0 -0.629727585171 #
coedge $-1 $844 $634 $637 $759 1 $754 $-1 #
coedge $-1 $634 $844 $829 $845 1 $754 $-1 #
loop $-1 $-1 $634 $782 #
vertex $-1 $733 $846 #
ellipse-curve $-1 21.054790712127 25.6656656925719 -21.3716161590659 -0.707106781186549 0 0.707106781186546 -2.8459345110369 5.76783721920522 -2.84593451103691 0.995272183137579 #
coedge $-1 $758 $636 $810 $847 1 $638 $-1 #
coedge $-1 $637 $757 $717 $814 1 $638 $-1 #
edge $-1 $848 $639 $637 $849 0 #
face $-1 $720 $638 $3 $-1 $773 forward single #
point $-1 18.4785324012825 19.6822797669033 -23.9478744699103 #
coedge $-1 $647 $810 $641 $763 0 $617 $-1 #
edge $-1 $764 $649 $762 $850 0 #
vertex $-1 $763 $851 #
straight-curve $-1 9.35935169813336 15.5966651473958 -3.18585623237568 0.743064395257167 -0.0796504470882288 -0.664463024388676 #
cone-surface $-1 12.1392705319031 21.5582203248698 -0.791715229095999 0.743064395257167 -0.0796504470882287 -0.664463024388676 0.700473941537411 -6.77953432577016 1.59601083421484 1 0 1 0 #
coedge $-1 $645 $705 $769 $852 1 $706 $-1 #
vertex $-1 $852 $853 #
coedge $-1 $792 $647 $767 $852 0 $617 $-1 #
straight-curve $-1 50 29.3409782572573 -14.8812578552076 0 0.788651435233222 0.614840559579945 #
point $-1 50 14.2778754893084 -26.6246036745392 #
loop $-1 $-1 $664 $651 #
plane-surface $-1 6.39678566943411 18.4457863144419 -6.84040286651339 0.397131261967103 0.851650739639146 0.342020143325669 0.53864836885441 -0.518022030372011 0.664463024388673 0 #
vertex $-1 $652 $854 #
straight-curve $-1 -11.108493129684 47.4044725571284 11.1145876716066 0.839964377156262 0.39168182164536 -0.375559843035786 #
straight-curve $-1 -35.035766793507 36.2470016089173 25 0 0 -1 #
intcurve-curve $-1 0 { surfintcur nubs 3 open 7 
	1.13085598481518 3 2.10421247118952 2 3.15631870678429 2 4.20842494237905 2 5.67831968730444 2 
	7.14821443222983 2 7.90797434521673 3 
	-3.04144566368974 50 39.3239166728841 
	-2.91968310853735 49.6924129902089 39.4172332793435 
	-2.80904033208778 49.3694225318417 39.4931357711168 
	-2.61711223836596 48.6810354626119 39.6173606512898 
	-2.53901588225869 48.3139124154917 39.6631146027198 
	-2.43591057818982 47.5826373707277 39.7222454532241 
	-2.41098954661654 47.218475266433 39.7356506242855 
	-2.41098954661654 46.3778082729263 39.7356506242855 
	-2.45996450552005 45.8752265624178 39.7098035107863 
	-2.654301323407 44.8850793098012 39.5941443598937 
	-2.79931365318758 44.3974749424652 39.5040778109756 
	-3.06691007380206 43.6954256766803 39.3059007085123 
	-3.16637874974631 43.4624708469195 39.2274376402337 
	-3.270911533959 43.2378023703902 39.1370235698352 
	0.001 
	cone -6.03961325396085e-14 -25 35.3553390593274 0 1 0 -8.88178419700125e-15 0 5 1 0 1 0 
	cone 22.4646833430478 43.7011395554876 8.10080849737141 -0.743064395257167 0.0796504470882287 0.664463024388676 4.63187285855095 1.65137785904914 4.9818375112865 1 -0 -1 0 
	nullbs 
	nullbs 
	} #
coedge $-1 $664 $823 $660 $779 0 $772 $-1 #
edge $-1 $780 $666 $778 $765 0 #
vertex $-1 $661 $855 #
ellipse-curve $-1 -50 28.2190436817601 54.7744616654982 1 0 0 0 1.12122028034806 9.35348696361672 0.743064395257167 #
face $-1 $749 $754 $3 $-1 $856 reversed single #
coedge $-1 $823 $664 $688 $800 0 $772 $-1 #
straight-curve $-1 -33.6909138742961 26.2643504671445 20.2380980531699 -0.208236545871685 0.446564713724833 -0.870182450650028 #
point $-1 -30.7198232445154 19.8928260501187 32.6537425525701 #
coedge $-1 $670 $834 $672 $789 0 $626 $-1 #
straight-curve $-1 -42.0673047786102 65.0909892432631 50 0.693171919388577 0.720772287321839 -0 #
coedge $-1 $673 $672 $833 $857 1 $674 $-1 #
edge $-1 $858 $675 $786 $859 0 #
face $-1 $643 $674 $3 $-1 $860 reversed single #
point $-1 -47.4617218951027 59.4817799618889 50 #
coedge $-1 $833 $769 $677 $793 0 $617 $-1 #
edge $-1 $861 $794 $792 $862 0 #
vertex $-1 $793 $863 #
straight-curve $-1 19.319470119419 55.3609370670538 3.18585623237568 0.743064395257167 -0.0796504470882288 -0.664463024388676 #
point $-1 22.0978585811251 50 13.3088304777444 #
face $-1 $518 $689 $3 $-1 $856 reversed single #
edge $-1 $802 $774 $748 $864 0 #
coedge $-1 $742 $687 $744 $840 1 $689 $-1 #
edge $-1 $690 $838 $783 $849 0 #
point $-1 -33.2050139453339 25.2223347068099 22.268585013012 #
vertex $-1 $840 $865 #
intcurve-curve $-1 0 { surfintcur nubs 3 open 7 
	3.63055507931925 3 4.12320523487258 2 4.72900951154912 2 5.33481378822565 2 5.9326535797349 2 
	6.53049337124415 2 6.6170136743325 3 
	-36.4868353693949 32.2602234625853 20.7740981832152 
	-36.5518949969907 32.3997442842102 20.8555415006668 
	-36.6073679647535 32.547037970256 20.935019079299 
	-36.7047175129241 32.8855054147246 21.1060866335321 
	-36.7405249117259 33.0792658409958 21.1964393213408 
	-36.7735951052017 33.4670113236926 21.3669555923329 
	-36.7708521429579 33.6609780757739 21.447161911969 
	-36.7310591390234 34.0322096944907 21.5940524463451 
	-36.6930349320051 34.2228162736319 21.6660870718271 
	-36.5767122930427 34.6002937129605 21.8017301290276 
	-36.4984470138412 34.7871575002588 21.8653866679239 
	-36.3872790621575 34.9908759406369 21.9294186371468 
	-36.372831566764 35.0164526024327 21.9373530869051 
	-36.3579987910314 35.0418320117472 21.9451149073519 
	0.001 
	cone -33.7679120082849 33.5280782478074 25 0 0 -1 -2.81907786235773 1.026060429977 0 1 0 1 0 
	cone 6.21413847450458 27.2564626589619 -8.10080849737141 -0.743064395257167 0.0796504470882287 0.664463024388676 -4.63187285855095 -1.65137785904914 -4.9818375112865 1 -0 -1 0 
	nullbs 
	nullbs 
	} #
point $-1 37.6625467152294 50 -4.76386015596344 #
edge $-1 $861 $701 $700 $681 0 #
point $-1 39.7162570509296 48.1114512765575 -2.44589334814899 #
straight-curve $-1 42.4274249303595 45.8645413373859 0.00101805916676589 -0.602665796539472 0.523056283169303 -0.602665796539474 #
straight-curve $-1 -21.2132034355964 50 -21.2132034355965 0.707106781186549 0 -0.707106781186546 #
point $-1 -3.53553390593267 50 -38.8908729652601 #
coedge $-1 $762 $713 $757 $847 0 $617 $-1 #
coedge $-1 $719 $716 $832 $866 0 $600 $-1 #
edge $-1 $728 $836 $737 $867 0 #
coedge $-1 $717 $719 $844 $868 0 $600 $-1 #
edge $-1 $848 $815 $717 $869 0 #
vertex $-1 $847 $870 #
straight-curve $-1 50 0 -50 0 -1 0 #
coedge $-1 $834 $829 $719 $818 1 $626 $-1 #
edge $-1 $871 $872 $719 $873 0 #
plane-surface $-1 0 0 -50 0 0 1 1 0 0 0 #
edge $-1 $821 $825 $738 $874 0 #
vertex $-1 $723 $875 #
straight-curve $-1 50 0 50 0 1 0 #
coedge $-1 $778 $783 $725 $824 1 $772 $-1 #
edge $-1 $780 $838 $725 $876 0 #
vertex $-1 $820 $877 #
straight-curve $-1 -50 75 0 0 0 -1 #
point $-1 -50 75 -50 #
ellipse-curve $-1 6.03961325396085e-14 50 -35.3553390593274 0 -1 0 8.88178419700125e-15 0 -5 1 #
coedge $-1 $817 $732 $753 $845 0 $626 $-1 #
straight-curve $-1 11.4068193539642 16.7710936617651 -31.0195875172287 -0.367755110567893 -0.854114955554809 -0.367755110567894 #
point $-1 25.7141441994001 50 -16.7122626717927 #
coedge $-1 $739 $736 $811 $866 1 $617 $-1 #
coedge $-1 $736 $792 $788 $857 0 $617 $-1 #
coedge $-1 $786 $817 $736 $835 1 $626 $-1 #
edge $-1 $858 $871 $736 $878 0 #
vertex $-1 $866 $879 #
straight-curve $-1 50 75 0 0 0 -1 #
vertex $-1 $824 $880 #
ellipse-curve $-1 -50 33.2821601499907 42.1669969614622 1 0 0 0 -1.12122028034806 -9.35348696361672 0.743064395257167 #
edge $-1 $745 $802 $744 $881 0 #
point $-1 -50 36.5041433570465 34.1440648770756 #
point $-1 -50 56.8424339867381 50 #
plane-surface $-1 7.60630629809605 41.9540764868749 -8.30578780485842 0.53864836885441 -0.518022030372011 0.664463024388673 0.743064395257167 -0.0796504470882288 -0.664463024388676 0 #
coedge $-1 $753 $752 $813 $868 1 $754 $-1 #
edge $-1 $755 $872 $829 $881 0 #
point $-1 16.8193100427884 29.3416579075948 -25.6070968284045 #
edge $-1 $815 $764 $810 $882 0 #
vertex $-1 $814 $883 #
straight-curve $-1 3.43421964073485 21.2949074814879 -10.4949495006511 -0.743064395257167 0.0796504470882288 0.664463024388676 #
ellipse-curve $-1 50 17.4998586963642 -34.6475357589257 -1 0 0 0 1.12122028034806 9.35348696361672 0.743064395257167 #
point $-1 50 11.2403188766546 -39.5275357101401 #
edge $-1 $768 $861 $769 $884 0 #
point $-1 50 37.5275948196586 -8.49888957002884 #
point $-1 -35.035766793507 36.2470016089173 21.8128070078629 #
point $-1 -50 21.9595038620504 49.8944617142839 #
cone-surface $-1 6.21413847450458 27.2564626589619 -8.10080849737141 -0.743064395257167 0.0796504470882287 0.664463024388676 -4.63187285855095 -1.65137785904914 -4.9818375112865 1 0 1 0 #
edge $-1 $794 $858 $833 $885 0 #
vertex $-1 $857 $886 #
straight-curve $-1 12.7690127036684 53.0255361021838 -3.85952594162472 -0.743064395257167 0.0796504470882288 0.664463024388676 #
cone-surface $-1 16.5395512856493 49.3993818895797 0.791715229095999 0.743064395257167 -0.0796504470882287 -0.664463024388676 -0.700473941537411 6.77953432577016 -1.59601083421484 1 0 1 0 #
vertex $-1 $852 $887 #
straight-curve $-1 50 38.9181011852781 8.50529670010377 0 0.372667652282915 -0.927964881308523 #
point $-1 50 52.0722343146546 -24.2492864072371 #
ellipse-curve $-1 -33.7679120082849 33.5280782478074 18.6653179299321 -0.53864836885441 0.518022030372011 -0.664463024388673 -2.16231686196552 2.07951575816573 3.37409809664337 0.664463024388673 #
point $-1 -36.3579987910314 35.0418320117472 21.9451149073519 #
edge $-1 $836 $871 $832 $816 0 #
straight-curve $-1 0 75 -50 1 0 0 #
edge $-1 $872 $848 $813 $888 0 #
straight-curve $-1 13.9410480539788 32.2605916195757 -50 0.90630778703665 -0.4226182617407 0 #
point $-1 50 15.4460261821029 -50 #
vertex $-1 $866 $889 #
vertex $-1 $868 $890 #
straight-curve $-1 22.0184686645698 3.45923762838013 -50 -0.693171919388577 -0.720772287321839 0 #
straight-curve $-1 0 75 50 -1 0 0 #
point $-1 50 75 50 #
straight-curve $-1 -50 38.6280381115907 8.38880832121961 0 0.372667652282915 -0.927964881308523 #
point $-1 -50 75 50 #
straight-curve $-1 50 47.5848410439955 -38.2825256258128 -0 -0.788651435233222 -0.614840559579945 #
point $-1 50 75 -50 #
point $-1 -50 27.022620330281 37.2869970102479 #
straight-curve $-1 2.44359989252371 30.882616871566 -12.7520496680921 0.743064395257167 -0.0796504470882288 -0.664463024388676 #
straight-curve $-1 50 -1.52659196707236 -7.73715939708789 0 -0.372667652282915 0.927964881308523 #
point $-1 47.6124438329836 16.5593619070579 -50 #
ellipse-curve $-1 50 40.7495780267144 -16.5218216544154 -1 0 0 0 1.12122028034806 9.35348696361672 0.743064395257167 #
ellipse-curve $-1 50 45.812694494945 -29.1292863584514 -1 0 0 0 -1.12122028034806 -9.35348696361672 0.743064395257167 #
point $-1 50 49.0346777020008 -37.152218442838 #
point $-1 50 47.009117846424 -11.6418217032011 #
ellipse-curve $-1 53.0697139586467 22.233926846845 -50 0 0 1 -10.4748160442652 1.12281490866471 0 0.664463024388676 #
point $-1 50 32.5549233872543 -50 #
point $-1 44.0977246098657 26.4176341890666 -50 #
