200 852 1 0         
7 Unknown 13 ACIS 4.0.1 NT 24 Tue Jan 12 10:31:01 1999 
-1 9.9999999999999995e-007 1e-010 
body $-1 $1 $-1 $-1 #
lump $-1 $-1 $2 $0 #
shell $-1 $-1 $-1 $3 $-1 $1 #
face $4 $5 $6 $2 $-1 $7 forward single #
color-adesk-attrib $-1 $-1 $-1 $3 256 #
face $8 $9 $10 $2 $-1 $11 reversed single #
loop $-1 $-1 $12 $3 #
cone-surface $-1 274.37513914963108 163.73135440773717 106.58930729180759 0 0 -1 -8.9802561210691731 -8.9802561210691323 0 1 I I 0 -1 forward I I I I #
color-adesk-attrib $-1 $-1 $-1 $5 256 #
face $13 $14 $15 $2 $-1 $16 reversed single #
loop $-1 $-1 $17 $5 #
plane-surface $-1 480.87713914963103 151.03135440773718 87.539307291807518 0 0 -1 -1 0 0 forward_v I I I I #
coedge $-1 $18 $19 $20 $21 0 $6 $-1 #
color-adesk-attrib $-1 $-1 $-1 $9 256 #
face $22 $23 $24 $2 $-1 $25 forward single #
loop $-1 $-1 $26 $9 #
plane-surface $-1 480.87713914963103 151.03135440773718 106.58930729180759 0 -1 0 0 0 -1 forward_v I I I I #
coedge $-1 $27 $28 $19 $29 0 $10 $-1 #
coedge $-1 $30 $12 $31 $32 1 $6 $-1 #
coedge $-1 $12 $30 $17 $29 1 $6 $-1 #
coedge $-1 $33 $34 $12 $21 1 $35 $-1 #
edge $36 $37 $38 $20 $39 forward #
color-adesk-attrib $-1 $-1 $-1 $14 256 #
face $40 $41 $42 $2 $-1 $43 reversed single #
loop $-1 $-1 $44 $14 #
cone-surface $-1 274.37513914963108 43.08135440773718 87.539307291807532 0 0 1 -8.9802561210691678 8.9802561210691376 0 1 I I 0 -1 forward I I I I #
coedge $-1 $45 $46 $30 $47 1 $15 $-1 #
coedge $-1 $48 $17 $46 $49 1 $10 $-1 #
coedge $-1 $17 $50 $33 $51 1 $10 $-1 #
edge $52 $37 $53 $17 $54 forward #
coedge $-1 $19 $18 $26 $47 0 $6 $-1 #
coedge $-1 $55 $56 $18 $32 0 $57 $-1 #
edge $58 $59 $38 $31 $60 forward #
coedge $-1 $61 $20 $28 $51 0 $35 $-1 #
coedge $-1 $20 $61 $55 $62 1 $35 $-1 #
loop $-1 $-1 $20 $63 #
color-adesk-attrib $-1 $-1 $-1 $21 256 #
vertex $-1 $29 $64 #
vertex $-1 $62 $65 #
straight-curve $-1 261.67513914963104 163.73135440773717 106.58930729180759 0 0 1 F -58.420000000000066 F 39.370000000000005 #
color-adesk-attrib $-1 $-1 $-1 $23 256 #
face $66 $67 $68 $2 $-1 $69 reversed single #
loop $-1 $-1 $70 $23 #
plane-surface $-1 480.87713914963103 55.781354407737183 87.539307291807532 0 1 0 0 0 1 forward_v I I I I #
coedge $-1 $71 $72 $73 $74 0 $24 $-1 #
coedge $-1 $75 $26 $56 $76 1 $15 $-1 #
coedge $-1 $26 $75 $27 $49 0 $15 $-1 #
edge $77 $59 $53 $26 $78 forward #
coedge $-1 $50 $27 $79 $80 1 $10 $-1 #
edge $81 $82 $53 $27 $83 forward #
coedge $-1 $28 $48 $84 $85 1 $10 $-1 #
edge $86 $37 $87 $28 $88 forward #
color-adesk-attrib $-1 $-1 $-1 $29 256 #
vertex $-1 $49 $89 #
ellipse-curve $-1 274.37513914963108 163.73135440773717 87.539307291807518 0 0 1 -8.9802561210691731 -8.9802561210691323 0 1 I I #
coedge $-1 $90 $31 $34 $62 0 $57 $-1 #
coedge $-1 $31 $91 $45 $76 0 $57 $-1 #
loop $-1 $-1 $92 $93 #
color-adesk-attrib $-1 $-1 $-1 $32 256 #
vertex $-1 $76 $94 #
ellipse-curve $-1 274.37513914963108 163.73135440773717 106.58930729180753 1.9460259794867514e-016 0 -1 -8.9802561210691731 -8.9802561210691323 0 1 I I #
coedge $-1 $34 $33 $95 $96 1 $35 $-1 #
edge $97 $38 $98 $55 $99 forward #
face $100 $101 $35 $2 $-1 $102 forward single #
point $-1 261.67513914963104 163.73135440773717 87.539307291807518 #
point $-1 261.67513914963104 163.73135440773717 106.58930729180754 #
color-adesk-attrib $-1 $-1 $-1 $41 256 #
face $103 $104 $105 $2 $-1 $106 reversed single #
loop $-1 $107 $108 $41 #
cone-surface $-1 468.17713914963105 103.40635440773718 400.71484617719932 0 0 1 -2 0 0 1 I I 0 1 forward I I I I #
coedge $-1 $109 $110 $111 $112 1 $42 $-1 #
coedge $-1 $111 $44 $113 $114 1 $24 $-1 #
coedge $-1 $44 $111 $115 $116 1 $24 $-1 #
coedge $-1 $117 $118 $44 $74 1 $119 $-1 #
edge $120 $121 $122 $73 $123 forward #
coedge $-1 $46 $45 $124 $125 1 $15 $-1 #
edge $126 $127 $59 $56 $128 forward #
color-adesk-attrib $-1 $-1 $-1 $47 256 #
straight-curve $-1 274.37513914963108 151.03135440773718 106.58930729180759 0 0 -1 F -39.370000000000005 F 58.420000000000066 #
coedge $-1 $124 $129 $48 $80 0 $130 $-1 #
edge $131 $132 $82 $79 $133 forward #
color-adesk-attrib $-1 $-1 $-1 $49 256 #
vertex $-1 $125 $134 #
straight-curve $-1 480.87713914963103 151.03135440773718 87.539307291807518 -1 0 0 I I #
coedge $-1 $135 $95 $50 $85 0 $136 $-1 #
edge $137 $87 $132 $84 $138 forward #
color-adesk-attrib $-1 $-1 $-1 $51 256 #
vertex $-1 $85 $139 #
straight-curve $-1 261.67513914963104 158.96885440773718 87.539307291807518 0 1 0 I I #
point $-1 274.37513914963108 151.03135440773718 87.539307291807518 #
coedge $-1 $140 $55 $141 $142 1 $57 $-1 #
coedge $-1 $56 $92 $143 $144 1 $57 $-1 #
coedge $-1 $91 $145 $146 $147 0 $57 $-1 #
face $148 $149 $57 $2 $-1 $150 forward single #
point $-1 274.37513914963108 151.03135440773718 106.58930729180754 #
coedge $-1 $84 $141 $61 $96 0 $136 $-1 #
edge $151 $98 $87 $95 $152 forward #
color-adesk-attrib $-1 $-1 $-1 $62 256 #
vertex $-1 $142 $153 #
straight-curve $-1 261.67513914963104 158.96885440773718 106.58930729180754 0 1 0 I I #
color-adesk-attrib $-1 $-1 $-1 $63 256 #
face $154 $155 $136 $2 $-1 $156 reversed single #
plane-surface $-1 261.67513914963104 151.03135440773718 106.58930729180759 1 0 0 0 0 -1 forward_v I I I I #
color-adesk-attrib $-1 $-1 $-1 $67 256 #
face $157 $158 $159 $2 $-1 $160 reversed single #
loop $-1 $161 $162 $67 #
cone-surface $-1 240.40213914963101 52.6063544077372 400.71484617719932 0 0 1 -4 0 0 1 I I 0 1 forward I I I I #
loop $-1 $-1 $163 $41 #
coedge $-1 $108 $108 $164 $165 1 $68 $-1 #
coedge $-1 $166 $70 $167 $168 1 $42 $-1 #
coedge $-1 $70 $166 $169 $170 1 $42 $-1 #
coedge $-1 $72 $71 $70 $112 0 $24 $-1 #
edge $171 $172 $173 $70 $174 forward #
coedge $-1 $175 $167 $71 $114 0 $176 $-1 #
edge $177 $172 $122 $113 $178 forward #
coedge $-1 $169 $179 $72 $116 0 $57 $-1 #
edge $180 $121 $173 $115 $181 forward #
coedge $-1 $182 $73 $179 $183 1 $119 $-1 #
coedge $-1 $73 $182 $175 $184 0 $119 $-1 #
loop $-1 $-1 $73 $185 #
color-adesk-attrib $-1 $-1 $-1 $74 256 #
vertex $-1 $183 $186 #
vertex $-1 $184 $187 #
straight-curve $-1 261.67513914963104 43.08135440773718 87.539307291807532 0 0 -1 F -58.420000000000002 F 39.369999999999997 #
coedge $-1 $143 $79 $75 $125 0 $130 $-1 #
edge $188 $82 $127 $124 $189 forward #
color-adesk-attrib $-1 $-1 $-1 $76 256 #
vertex $-1 $125 $190 #
straight-curve $-1 334.82713914963102 151.03135440773718 106.58930729180756 -1 0 -1.9460259794867514e-016 I I #
coedge $-1 $79 $191 $135 $192 1 $130 $-1 #
loop $-1 $-1 $193 $194 #
color-adesk-attrib $-1 $-1 $-1 $80 256 #
vertex $-1 $80 $195 #
straight-curve $-1 480.87713914963103 158.96885440773718 87.539307291807518 0 -1 0 I I #
point $-1 480.87713914963103 151.03135440773718 87.539307291807518 #
coedge $-1 $196 $84 $129 $192 0 $136 $-1 #
loop $-1 $-1 $95 $101 #
color-adesk-attrib $-1 $-1 $-1 $85 256 #
straight-curve $-1 407.85213914963106 166.90635440773718 87.539307291807518 1 0 0 I I #
point $-1 261.67513914963104 166.90635440773718 87.539307291807518 #
coedge $-1 $197 $90 $198 $199 0 $57 $-1 #
coedge $-1 $95 $200 $90 $142 0 $136 $-1 #
edge $201 $202 $98 $141 $203 forward #
coedge $-1 $193 $124 $91 $144 0 $130 $-1 #
edge $204 $127 $205 $143 $206 forward #
coedge $-1 $92 $207 $208 $209 0 $57 $-1 #
coedge $-1 $210 $211 $92 $147 1 $212 $-1 #
edge $213 $214 $205 $92 $215 forward #
color-adesk-attrib $-1 $-1 $-1 $93 256 #
face $216 $217 $218 $2 $-1 $219 forward single #
plane-surface $-1 188.77713914963101 166.90635440773718 106.58930729180753 -1.9460259794867514e-016 0 1 1 0 1.9460259794867514e-016 forward_v I I I I #
color-adesk-attrib $-1 $-1 $-1 $96 256 #
straight-curve $-1 261.67513914963104 166.90635440773718 100.23930729180758 0 0 -1 I I #
point $-1 261.67513914963104 166.90635440773718 106.58930729180759 #
color-adesk-attrib $-1 $-1 $-1 $101 256 #
face $220 $185 $176 $2 $-1 $221 reversed single #
plane-surface $-1 334.82713914963102 166.90635440773718 93.889307291807569 0 -1 0 0 0 -1 forward_v I I I I #
color-adesk-attrib $-1 $-1 $-1 $104 256 #
face $222 $223 $224 $2 $-1 $225 reversed single #
loop $-1 $226 $227 $104 #
cone-surface $-1 240.40213914963101 52.6063544077372 85.68930729180758 0 0 1 -6 0 0 1 I I 0 1 forward I I I I #
loop $-1 $-1 $228 $67 #
coedge $-1 $162 $162 $229 $230 1 $105 $-1 #
coedge $-1 $163 $163 $231 $232 1 $107 $-1 #
coedge $-1 $164 $164 $108 $165 0 $233 $-1 #
edge $234 $235 $235 $164 $236 forward #
coedge $-1 $110 $109 $237 $238 1 $42 $-1 #
coedge $-1 $113 $239 $109 $168 0 $176 $-1 #
edge $240 $241 $172 $109 $242 forward #
coedge $-1 $243 $115 $110 $170 0 $57 $-1 #
edge $244 $173 $245 $169 $246 forward #
color-adesk-attrib $-1 $-1 $-1 $112 256 #
vertex $-1 $168 $247 #
vertex $-1 $170 $248 #
straight-curve $-1 274.37513914963108 55.781354407737183 87.539307291807532 0 0 1 F -39.369999999999997 F 58.420000000000002 #
coedge $-1 $249 $113 $118 $184 1 $176 $-1 #
loop $-1 $-1 $113 $155 #
color-adesk-attrib $-1 $-1 $-1 $114 256 #
ellipse-curve $-1 274.37513914963108 43.08135440773718 87.539307291807532 0 0 1 -8.9802561210691678 8.9802561210691376 0 1 I I #
coedge $-1 $115 $197 $117 $183 0 $57 $-1 #
color-adesk-attrib $-1 $-1 $-1 $116 256 #
ellipse-curve $-1 274.37513914963108 43.08135440773718 106.58930729180753 1.9460259794867514e-016 0 -1 -8.9802561210691678 8.9802561210691376 0 1 I I #
coedge $-1 $118 $117 $250 $251 1 $119 $-1 #
edge $252 $253 $121 $179 $254 forward #
edge $255 $256 $122 $175 $257 forward #
face $258 $259 $119 $2 $-1 $260 forward single #
point $-1 261.67513914963104 43.08135440773718 106.58930729180754 #
point $-1 261.67513914963104 43.08135440773718 87.539307291807532 #
color-adesk-attrib $-1 $-1 $-1 $125 256 #
straight-curve $-1 480.87713914963103 151.03135440773718 106.58930729180759 0 0 1 I I #
point $-1 480.87713914963103 151.03135440773718 106.58930729180759 #
coedge $-1 $129 $261 $262 $263 1 $130 $-1 #
edge $264 $132 $265 $135 $266 forward #
coedge $-1 $267 $143 $211 $268 0 $130 $-1 #
face $269 $63 $130 $2 $-1 $270 forward single #
point $-1 480.87713914963103 166.90635440773718 87.539307291807518 #
coedge $-1 $271 $135 $272 $273 0 $136 $-1 #
coedge $-1 $179 $140 $274 $275 0 $57 $-1 #
coedge $-1 $276 $277 $140 $199 1 $278 $-1 #
edge $279 $202 $280 $140 $281 forward #
coedge $-1 $141 $282 $276 $283 0 $136 $-1 #
color-adesk-attrib $-1 $-1 $-1 $142 256 #
vertex $-1 $199 $284 #
straight-curve $-1 334.82713914963102 166.90635440773718 106.58930729180756 1 0 1.9460259794867514e-016 I I #
color-adesk-attrib $-1 $-1 $-1 $144 256 #
vertex $-1 $144 $285 #
straight-curve $-1 480.87713914963103 166.90635440773718 106.58930729180759 0 -1 0 I I #
coedge $-1 $145 $286 $287 $288 0 $57 $-1 #
coedge $-1 $289 $290 $145 $209 1 $291 $-1 #
edge $292 $293 $214 $145 $294 forward #
coedge $-1 $295 $146 $290 $296 1 $212 $-1 #
coedge $-1 $146 $295 $193 $268 1 $212 $-1 #
loop $-1 $-1 $210 $297 #
color-adesk-attrib $-1 $-1 $-1 $147 256 #
vertex $-1 $147 $298 #
straight-curve $-1 334.82713914963102 110.3913544077372 106.58930729180756 1 0 1.9460259794867514e-016 I I #
color-adesk-attrib $-1 $-1 $-1 $149 256 #
face $299 $-1 $300 $2 $-1 $301 forward single #
loop $-1 $302 $231 $149 #
plane-surface $-1 480.87713914963103 166.90635440773718 81.18930729180758 0 0 -1 -1 0 0 forward_v I I I I #
color-adesk-attrib $-1 $-1 $-1 $155 256 #
plane-surface $-1 480.87713914963103 39.906354407737183 87.539307291807532 0 0 -1 -1 0 0 forward_v I I I I #
color-adesk-attrib $-1 $-1 $-1 $158 256 #
face $303 $304 $305 $2 $-1 $306 reversed single #
loop $-1 $307 $308 $158 #
plane-surface $-1 240.40213914963101 52.6063544077372 90.18930729180758 0 0 1 -1 0 0 forward_v I I I I #
loop $-1 $-1 $309 $104 #
coedge $-1 $227 $227 $310 $311 1 $159 $-1 #
coedge $-1 $228 $228 $308 $312 0 $161 $-1 #
coedge $-1 $229 $229 $162 $230 0 $313 $-1 #
edge $314 $315 $315 $229 $316 forward #
coedge $-1 $231 $231 $163 $232 0 $218 $-1 #
edge $317 $318 $318 $231 $319 forward #
loop $-1 $320 $164 $321 #
color-adesk-attrib $-1 $-1 $-1 $165 256 #
vertex $-1 $165 $322 #
ellipse-curve $-1 468.17713914963105 103.40635440773718 94.589307291807586 0 0 -1 -2 0 0 1 I I #
coedge $-1 $323 $324 $166 $238 0 $130 $-1 #
edge $325 $245 $241 $237 $326 forward #
coedge $-1 $167 $249 $323 $327 1 $176 $-1 #
color-adesk-attrib $-1 $-1 $-1 $168 256 #
vertex $-1 $327 $328 #
straight-curve $-1 480.87713914963103 55.781354407737183 87.539307291807532 -1 0 0 I I #
coedge $-1 $329 $169 $324 $330 1 $57 $-1 #
color-adesk-attrib $-1 $-1 $-1 $170 256 #
vertex $-1 $330 $331 #
straight-curve $-1 334.82713914963102 55.781354407737183 106.58930729180756 1 0 1.9460259794867514e-016 I I #
point $-1 274.37513914963108 55.781354407737183 87.539307291807532 #
point $-1 274.37513914963108 55.781354407737183 106.58930729180754 #
coedge $-1 $239 $175 $332 $333 1 $176 $-1 #
coedge $-1 $274 $332 $182 $251 0 $334 $-1 #
edge $335 $256 $253 $250 $336 forward #
color-adesk-attrib $-1 $-1 $-1 $183 256 #
vertex $-1 $275 $337 #
straight-curve $-1 261.67513914963104 103.40635440773718 106.58930729180754 0 1 0 I I #
color-adesk-attrib $-1 $-1 $-1 $184 256 #
vertex $-1 $333 $338 #
straight-curve $-1 261.67513914963104 47.843854407737183 87.539307291807532 0 1 0 I I #
color-adesk-attrib $-1 $-1 $-1 $185 256 #
face $339 $340 $334 $2 $-1 $341 reversed single #
plane-surface $-1 261.67513914963104 39.906354407737183 87.539307291807532 1 0 0 0 0 -1 forward_v I I I I #
coedge $-1 $191 $323 $342 $343 0 $130 $-1 #
coedge $-1 $344 $272 $191 $263 0 $345 $-1 #
edge $346 $265 $347 $262 $348 forward #
color-adesk-attrib $-1 $-1 $-1 $192 256 #
vertex $-1 $192 $349 #
straight-curve $-1 480.87713914963103 166.90635440773718 93.889307291807597 0 0 -1 I I #
coedge $-1 $350 $193 $351 $352 0 $130 $-1 #
edge $353 $205 $354 $193 $355 forward #
color-adesk-attrib $-1 $-1 $-1 $194 256 #
plane-surface $-1 480.87713914963103 166.90635440773718 106.58930729180759 1 0 0 0 0 -1 forward_v I I I I #
coedge $-1 $356 $196 $357 $358 0 $136 $-1 #
coedge $-1 $262 $359 $196 $273 1 $345 $-1 #
edge $360 $265 $361 $196 $362 forward #
coedge $-1 $363 $250 $197 $275 1 $334 $-1 #
edge $364 $280 $253 $197 $365 forward #
coedge $-1 $366 $198 $200 $283 1 $278 $-1 #
coedge $-1 $198 $366 $363 $367 1 $278 $-1 #
loop $-1 $-1 $277 $368 #
color-adesk-attrib $-1 $-1 $-1 $199 256 #
vertex $-1 $367 $369 #
straight-curve $-1 249.92713914963099 166.90635440773718 106.58930729180754 0 -1 0 I I #
coedge $-1 $200 $370 $371 $372 0 $136 $-1 #
edge $373 $374 $202 $200 $375 forward #
point $-1 249.92713914963099 166.90635440773718 106.58930729180753 #
point $-1 480.87713914963103 110.39135440773718 106.58930729180759 #
coedge $-1 $207 $329 $376 $377 0 $57 $-1 #
coedge $-1 $378 $379 $207 $288 1 $380 $-1 #
edge $381 $382 $293 $207 $383 forward #
coedge $-1 $384 $208 $379 $385 0 $291 $-1 #
coedge $-1 $208 $384 $210 $296 0 $291 $-1 #
loop $-1 $-1 $289 $386 #
color-adesk-attrib $-1 $-1 $-1 $209 256 #
vertex $-1 $288 $387 #
ellipse-curve $-1 267.67513914963104 104.39135440773718 106.58930729180753 1.9460259794867514e-016 0 -1 -4.2426406871192857 4.2426406871192857 0 1 I I #
coedge $-1 $211 $210 $388 $389 1 $212 $-1 #
edge $390 $391 $214 $210 $392 forward #
face $393 $394 $212 $2 $-1 $395 reversed single #
point $-1 267.67513914963104 110.3913544077372 106.58930729180754 #
color-adesk-attrib $-1 $-1 $-1 $217 256 #
loop $-1 $-1 $396 $217 #
plane-surface $-1 188.77713914963101 166.90635440773718 81.18930729180758 -1 0 0 0 0 1 forward_v I I I I #
loop $-1 $397 $310 $149 #
color-adesk-attrib $-1 $-1 $-1 $223 256 #
face $398 $399 $400 $2 $-1 $401 reversed single #
loop $-1 $402 $403 $223 #
cone-surface $-1 240.40213914963101 154.20635440773719 400.71484617719932 0 0 1 -4 0 0 1 I I 0 1 forward I I I I #
loop $-1 $-1 $404 $158 #
coedge $-1 $308 $308 $228 $312 1 $224 $-1 #
coedge $-1 $309 $309 $404 $405 0 $226 $-1 #
coedge $-1 $310 $310 $227 $311 0 $302 $-1 #
edge $406 $407 $407 $310 $408 forward #
edge $409 $410 $410 $308 $411 forward #
loop $-1 $412 $229 $340 #
color-adesk-attrib $-1 $-1 $-1 $230 256 #
vertex $-1 $230 $413 #
ellipse-curve $-1 240.40213914963101 52.6063544077372 98.651807291807529 0 0 -1 -4 0 0 1 I I #
color-adesk-attrib $-1 $-1 $-1 $232 256 #
vertex $-1 $232 $414 #
ellipse-curve $-1 468.17713914963105 103.40635440773718 81.189307291807609 0 0 1 -2 0 0 1 I I #
loop $-1 $-1 $415 $321 #
face $416 $417 $233 $2 $-1 $418 reversed single #
point $-1 470.17713914963105 103.4063544077372 94.589307291807586 #
coedge $-1 $261 $237 $239 $327 0 $130 $-1 #
coedge $-1 $237 $419 $243 $330 0 $130 $-1 #
color-adesk-attrib $-1 $-1 $-1 $238 256 #
straight-curve $-1 480.87713914963103 55.781354407737183 97.064307291807552 0 0 -1 I I #
edge $420 $241 $421 $323 $422 forward #
point $-1 480.87713914963103 55.781354407737183 87.539307291807532 #
coedge $-1 $286 $243 $423 $424 0 $57 $-1 #
edge $425 $426 $245 $324 $206 forward #
point $-1 480.87713914963103 55.781354407737183 106.58930729180753 #
coedge $-1 $250 $342 $249 $333 0 $334 $-1 #
edge $427 $421 $256 $332 $428 forward #
loop $-1 $-1 $332 $259 #
color-adesk-attrib $-1 $-1 $-1 $251 256 #
straight-curve $-1 261.67513914963104 39.906354407737183 97.064307291807552 0 0 1 I I #
point $-1 261.67513914963104 39.906354407737183 106.58930729180753 #
point $-1 261.67513914963104 39.906354407737183 87.539307291807532 #
color-adesk-attrib $-1 $-1 $-1 $259 256 #
face $429 $430 $313 $2 $-1 $431 reversed single #
plane-surface $-1 480.87713914963103 39.906354407737183 106.58930729180759 0 1 0 0 0 1 forward_v I I I I #
coedge $-1 $332 $432 $261 $343 1 $334 $-1 #
edge $433 $421 $347 $261 $434 forward #
coedge $-1 $359 $262 $432 $435 0 $345 $-1 #
loop $-1 $-1 $344 $149 #
color-adesk-attrib $-1 $-1 $-1 $263 256 #
vertex $-1 $263 $436 #
straight-curve $-1 480.87713914963103 166.90635440773718 81.18930729180758 0 -1 0 I I #
point $-1 480.87713914963103 166.90635440773718 81.18930729180758 #
coedge $-1 $437 $267 $438 $439 0 $130 $-1 #
coedge $-1 $388 $440 $267 $352 1 $441 $-1 #
edge $442 $354 $443 $267 $444 forward #
color-adesk-attrib $-1 $-1 $-1 $268 256 #
vertex $-1 $352 $445 #
straight-curve $-1 480.87713914963103 110.3913544077372 103.58930729180759 0 0 -1 I I #
coedge $-1 $370 $271 $446 $447 0 $136 $-1 #
coedge $-1 $448 $449 $271 $358 1 $300 $-1 #
edge $450 $361 $451 $271 $452 forward #
coedge $-1 $272 $344 $448 $453 1 $345 $-1 #
color-adesk-attrib $-1 $-1 $-1 $273 256 #
vertex $-1 $273 $454 #
straight-curve $-1 334.82713914963102 166.90635440773718 81.18930729180758 -1 0 0 I I #
coedge $-1 $455 $274 $277 $367 0 $334 $-1 #
color-adesk-attrib $-1 $-1 $-1 $275 256 #
straight-curve $-1 334.82713914963102 39.906354407737183 106.58930729180756 1 0 1.9460259794867514e-016 I I #
coedge $-1 $277 $276 $456 $457 0 $278 $-1 #
edge $458 $280 $459 $363 $460 forward #
face $461 $462 $278 $2 $-1 $463 reversed single #
point $-1 249.92713914963099 39.906354407737183 106.58930729180754 #
coedge $-1 $282 $356 $464 $465 0 $136 $-1 #
coedge $-1 $466 $456 $282 $372 1 $467 $-1 #
edge $468 $469 $374 $282 $470 forward #
color-adesk-attrib $-1 $-1 $-1 $283 256 #
vertex $-1 $283 $471 #
straight-curve $-1 249.92713914963102 166.90635440773718 100.23930729180755 0 0 1 I I #
coedge $-1 $472 $473 $286 $377 1 $474 $-1 #
edge $475 $476 $382 $286 $477 forward #
coedge $-1 $478 $287 $473 $479 1 $380 $-1 #
coedge $-1 $287 $480 $289 $385 1 $380 $-1 #
loop $-1 $-1 $481 $482 #
color-adesk-attrib $-1 $-1 $-1 $288 256 #
vertex $-1 $288 $483 #
straight-curve $-1 261.67513914963104 131.66385440773718 106.58930729180754 0 1 0 I I #
coedge $-1 $290 $289 $484 $485 1 $291 $-1 #
edge $486 $293 $487 $379 $488 forward #
face $489 $297 $291 $2 $-1 $490 forward single #
point $-1 261.67513914963104 104.39135440773718 106.58930729180754 #
coedge $-1 $484 $351 $295 $389 0 $441 $-1 #
edge $491 $354 $391 $295 $492 forward #
color-adesk-attrib $-1 $-1 $-1 $296 256 #
vertex $-1 $389 $493 #
straight-curve $-1 267.67513914963104 110.39135440773718 103.58930729180759 0 0 1 F -21.599999999999994 F 21.599999999999994 #
color-adesk-attrib $-1 $-1 $-1 $297 256 #
face $494 $495 $474 $2 $-1 $496 forward single #
plane-surface $-1 480.87713914963103 110.39135440773718 100.58930729180759 0 1 0 0 0 1 forward_v I I I I #
coedge $-1 $449 $448 $497 $498 0 $300 $-1 #
loop $-1 $499 $500 $149 #
color-adesk-attrib $-1 $-1 $-1 $304 256 #
face $501 $502 $503 $2 $-1 $504 reversed single #
loop $-1 $505 $506 $304 #
cone-surface $-1 240.40213914963101 154.20635440773719 85.68930729180758 0 0 1 -6 0 0 1 I I 0 1 forward I I I I #
loop $-1 $-1 $507 $223 #
coedge $-1 $403 $403 $508 $509 1 $305 $-1 #
coedge $-1 $404 $404 $309 $405 1 $307 $-1 #
edge $510 $511 $511 $404 $512 forward #
color-adesk-attrib $-1 $-1 $-1 $311 256 #
vertex $-1 $311 $513 #
ellipse-curve $-1 240.40213914963101 52.6063544077372 81.18930729180758 0 0 1 -6 0 0 1 I I #
color-adesk-attrib $-1 $-1 $-1 $312 256 #
vertex $-1 $312 $514 #
ellipse-curve $-1 240.40213914963101 52.6063544077372 90.18930729180758 0 0 -1 -4 0 0 1 I I #
loop $-1 $515 $508 $340 #
point $-1 244.40213914963101 52.606354407737228 98.651807291807529 #
point $-1 466.17713914963105 103.40635440773718 81.189307291807552 #
coedge $-1 $516 $517 $518 $519 0 $320 $-1 #
color-adesk-attrib $-1 $-1 $-1 $321 256 #
face $520 $386 $521 $2 $-1 $522 reversed single #
plane-surface $-1 480.87713914963103 92.992354407737182 94.589307291807586 0 0 -1 -1 0 0 forward_v I I I I #
coedge $-1 $324 $523 $524 $525 0 $130 $-1 #
color-adesk-attrib $-1 $-1 $-1 $327 256 #
vertex $-1 $333 $526 #
straight-curve $-1 480.87713914963103 103.40635440773718 87.539307291807518 0 -1 0 I I #
coedge $-1 $524 $527 $329 $424 1 $528 $-1 #
edge $529 $426 $476 $329 $530 forward #
color-adesk-attrib $-1 $-1 $-1 $330 256 #
vertex $-1 $525 $531 #
color-adesk-attrib $-1 $-1 $-1 $333 256 #
straight-curve $-1 480.87713914963103 39.906354407737183 87.539307291807518 -1 0 0 I I #
color-adesk-attrib $-1 $-1 $-1 $340 256 #
face $532 $368 $533 $2 $-1 $534 reversed single #
plane-surface $-1 249.92713914963099 166.90635440773718 98.651807291807529 0 0 -1 -1 0 0 forward_v I I I I #
coedge $-1 $342 $497 $344 $435 1 $334 $-1 #
color-adesk-attrib $-1 $-1 $-1 $343 256 #
straight-curve $-1 480.87713914963103 39.906354407737183 93.889307291807597 0 0 -1 I I #
edge $535 $347 $536 $344 $537 forward #
point $-1 480.87713914963103 39.906354407737183 81.18930729180758 #
coedge $-1 $538 $350 $539 $540 0 $130 $-1 #
coedge $-1 $541 $542 $350 $439 1 $543 $-1 #
edge $544 $443 $545 $350 $546 forward #
coedge $-1 $351 $547 $541 $548 1 $441 $-1 #
loop $-1 $-1 $547 $549 #
color-adesk-attrib $-1 $-1 $-1 $352 256 #
vertex $-1 $439 $550 #
straight-curve $-1 480.87713914963103 140.36335440773718 100.58930729180759 0 1 0 I I #
point $-1 480.87713914963103 110.39135440773718 100.58930729180759 #
coedge $-1 $551 $552 $356 $447 1 $553 $-1 #
edge $554 $451 $555 $356 $203 forward #
coedge $-1 $396 $357 $359 $453 0 $300 $-1 #
coedge $-1 $357 $396 $551 $556 1 $300 $-1 #
color-adesk-attrib $-1 $-1 $-1 $358 256 #
vertex $-1 $447 $557 #
straight-curve $-1 188.77713914963101 166.90635440773718 93.88930729180754 0 0 1 I I #
edge $558 $361 $536 $448 $559 forward #
point $-1 188.77713914963101 166.90635440773718 81.18930729180758 #
coedge $-1 $560 $363 $561 $562 0 $334 $-1 #
coedge $-1 $371 $561 $366 $457 1 $467 $-1 #
edge $563 $374 $459 $456 $564 forward #
color-adesk-attrib $-1 $-1 $-1 $367 256 #
vertex $-1 $367 $565 #
straight-curve $-1 249.92713914963099 39.906354407737183 106.58930729180756 0 0 -1 I I #
color-adesk-attrib $-1 $-1 $-1 $368 256 #
face $566 $93 $553 $2 $-1 $150 forward single #
plane-surface $-1 249.92713914963099 166.90635440773718 106.58930729180753 1 0 0 0 0 -1 forward_v I I I I #
coedge $-1 $567 $568 $370 $465 1 $533 $-1 #
edge $569 $555 $469 $370 $570 forward #
coedge $-1 $561 $371 $568 $571 0 $467 $-1 #
loop $-1 $-1 $561 $340 #
color-adesk-attrib $-1 $-1 $-1 $372 256 #
vertex $-1 $372 $572 #
straight-curve $-1 292.37713914963103 166.90635440773718 98.651807291807529 1 0 0 I I #
point $-1 249.92713914963099 166.90635440773718 98.651807291807529 #
coedge $-1 $573 $376 $527 $574 0 $474 $-1 #
coedge $-1 $376 $573 $378 $479 0 $474 $-1 #
loop $-1 $-1 $473 $394 #
color-adesk-attrib $-1 $-1 $-1 $377 256 #
vertex $-1 $424 $575 #
ellipse-curve $-1 267.67513914963104 102.4213544077372 106.58930729180769 1.9460259794867514e-016 0 -1 -4.2426406871192857 -4.2426406871192857 0 1 I I #
coedge $-1 $576 $378 $577 $578 0 $380 $-1 #
edge $579 $580 $382 $378 $581 forward #
coedge $-1 $379 $481 $582 $583 0 $380 $-1 #
coedge $-1 $480 $584 $585 $586 1 $380 $-1 #
face $587 $194 $380 $2 $-1 $588 forward single #
point $-1 261.67513914963104 102.4213544077372 106.58930729180754 #
coedge $-1 $582 $388 $384 $485 0 $441 $-1 #
edge $589 $391 $487 $484 $590 forward #
color-adesk-attrib $-1 $-1 $-1 $385 256 #
vertex $-1 $583 $591 #
straight-curve $-1 261.67513914963104 104.39135440773718 103.58930729180759 0 0 -1 F -21.599999999999994 F 21.599999999999994 #
color-adesk-attrib $-1 $-1 $-1 $386 256 #
cone-surface $-1 267.67513914963104 104.39135440773718 103.58930729180759 0 0 1 -4.2426406871192857 4.2426406871192857 0 1 I I 0 -1 forward I I I I #
color-adesk-attrib $-1 $-1 $-1 $389 256 #
straight-curve $-1 480.87713914963103 110.39135440773718 100.58930729180759 -1 0 0 I I #
point $-1 267.67513914963104 110.39135440773718 100.58930729180759 #
color-adesk-attrib $-1 $-1 $-1 $394 256 #
face $592 $593 $528 $2 $-1 $594 reversed single #
cone-surface $-1 267.67513914963104 102.4213544077372 106.58930729180759 0 -2.3684757858670005e-015 -1 -4.2426406871192857 -4.2426406871192857 0 1 I I 0 -1 forward I I I I #
coedge $-1 $432 $595 $396 $498 1 $334 $-1 #
edge $596 $536 $597 $396 $598 forward #
loop $-1 $599 $600 $149 #
coedge $-1 $500 $500 $506 $601 0 $397 $-1 #
color-adesk-attrib $-1 $-1 $-1 $399 256 #
face $602 $603 $604 $2 $-1 $605 reversed single #
loop $-1 $606 $607 $399 #
plane-surface $-1 240.40213914963101 154.20635440773719 90.18930729180758 0 0 1 -1 0 0 forward_v I I I I #
loop $-1 $-1 $608 $304 #
coedge $-1 $506 $506 $500 $601 1 $400 $-1 #
coedge $-1 $507 $507 $607 $609 0 $402 $-1 #
coedge $-1 $508 $508 $403 $509 0 $412 $-1 #
edge $610 $611 $611 $508 $612 forward #
color-adesk-attrib $-1 $-1 $-1 $405 256 #
vertex $-1 $405 $613 #
ellipse-curve $-1 240.40213914963101 52.6063544077372 90.18930729180758 0 0 1 -6 0 0 1 I I #
point $-1 234.40213914963101 52.6063544077372 81.18930729180758 #
point $-1 244.40213914963101 52.606354407737228 90.18930729180758 #
loop $-1 $614 $615 $340 #
coedge $-1 $616 $415 $584 $617 1 $320 $-1 #
coedge $-1 $415 $539 $542 $618 0 $320 $-1 #
coedge $-1 $619 $585 $415 $519 1 $620 $-1 #
edge $621 $622 $623 $415 $624 forward #
color-adesk-attrib $-1 $-1 $-1 $417 256 #
loop $-1 $-1 $625 $417 #
plane-surface $-1 480.87713914963103 92.992354407737182 100.58930729180759 0 -1 0 0 0 -1 forward_v I I I I #
coedge $-1 $419 $538 $626 $627 0 $130 $-1 #
coedge $-1 $628 $423 $419 $525 1 $528 $-1 #
edge $629 $630 $426 $419 $631 forward #
point $-1 480.87713914963103 39.906354407737183 87.539307291807532 #
coedge $-1 $423 $628 $472 $574 1 $528 $-1 #
loop $-1 $-1 $527 $495 #
color-adesk-attrib $-1 $-1 $-1 $424 256 #
straight-curve $-1 334.82713914963102 96.421354407737184 106.58930729180756 -1 -4.6091154110824825e-031 -1.9460259794867514e-016 I I #
point $-1 480.87713914963103 96.421354407737198 106.58930729180759 #
color-adesk-attrib $-1 $-1 $-1 $430 256 #
loop $-1 $-1 $632 $430 #
plane-surface $-1 199.12713914963101 166.90635440773718 98.651807291807529 -1 0 0 0 0 1 forward_v I I I I #
color-adesk-attrib $-1 $-1 $-1 $435 256 #
vertex $-1 $453 $633 #
straight-curve $-1 334.82713914963102 39.906354407737183 81.18930729180758 -1 0 0 I I #
coedge $-1 $523 $437 $634 $635 0 $130 $-1 #
coedge $-1 $517 $636 $437 $540 1 $320 $-1 #
edge $637 $545 $638 $437 $639 forward #
coedge $-1 $640 $438 $440 $548 0 $543 $-1 #
coedge $-1 $438 $640 $517 $618 1 $543 $-1 #
loop $-1 $-1 $640 $641 #
color-adesk-attrib $-1 $-1 $-1 $439 256 #
vertex $-1 $540 $642 #
straight-curve $-1 480.87713914963103 113.82035440773717 100.58930729180759 0 0 -1 I I #
coedge $-1 $440 $582 $643 $644 0 $441 $-1 #
edge $645 $443 $646 $440 $647 forward #
face $648 $641 $441 $2 $-1 $649 reversed single #
point $-1 480.87713914963103 113.82035440773718 100.58930729180759 #
coedge $-1 $650 $446 $449 $556 0 $553 $-1 #
coedge $-1 $446 $650 $567 $651 0 $553 $-1 #
loop $-1 $-1 $552 $462 #
color-adesk-attrib $-1 $-1 $-1 $447 256 #
vertex $-1 $447 $652 #
edge $653 $451 $597 $551 $654 forward #
point $-1 188.77713914963101 166.90635440773718 106.58930729180753 #
color-adesk-attrib $-1 $-1 $-1 $453 256 #
straight-curve $-1 188.77713914963101 166.90635440773718 81.18930729180758 0 -1 0 I I #
coedge $-1 $595 $455 $632 $655 0 $334 $-1 #
coedge $-1 $456 $466 $455 $562 1 $467 $-1 #
edge $656 $459 $657 $455 $658 forward #
color-adesk-attrib $-1 $-1 $-1 $457 256 #
straight-curve $-1 249.92713914963099 166.90635440773718 98.651807291807529 0 -1 0 I I #
point $-1 249.92713914963099 39.906354407737183 98.651807291807529 #
color-adesk-attrib $-1 $-1 $-1 $462 256 #
coedge $-1 $632 $464 $552 $651 1 $533 $-1 #
coedge $-1 $464 $632 $466 $571 1 $533 $-1 #
color-adesk-attrib $-1 $-1 $-1 $465 256 #
straight-curve $-1 199.12713914963098 166.90635440773718 96.270557291807549 0 0 -1 I I #
edge $659 $469 $657 $568 $660 forward #
point $-1 199.12713914963101 166.90635440773718 98.651807291807529 #
coedge $-1 $473 $472 $661 $662 1 $474 $-1 #
edge $663 $476 $664 $527 $665 forward #
point $-1 267.67513914963104 96.421354407737184 106.58930729180754 #
coedge $-1 $584 $478 $666 $667 1 $380 $-1 #
coedge $-1 $661 $668 $478 $578 1 $669 $-1 #
edge $670 $580 $671 $478 $672 forward #
color-adesk-attrib $-1 $-1 $-1 $479 256 #
vertex $-1 $578 $673 #
straight-curve $-1 261.67513914963104 102.4213544077372 106.58930729180759 0 2.3684757858670005e-015 1 F -24.600000000000037 F 18.600000000000037 #
coedge $-1 $547 $484 $480 $583 1 $441 $-1 #
edge $674 $675 $487 $582 $676 forward #
coedge $-1 $481 $576 $516 $617 0 $380 $-1 #
coedge $-1 $518 $643 $481 $586 0 $620 $-1 #
edge $677 $675 $623 $481 $678 forward #
color-adesk-attrib $-1 $-1 $-1 $482 256 #
plane-surface $-1 261.67513914963104 96.421354407737198 106.58930729180759 1 0 0 0 0 -1 forward_v I I I I #
color-adesk-attrib $-1 $-1 $-1 $485 256 #
ellipse-curve $-1 267.67513914963104 104.39135440773718 100.58930729180759 0 0 1 -4.2426406871192857 4.2426406871192857 0 1 I I #
point $-1 261.67513914963104 104.39135440773718 100.58930729180759 #
color-adesk-attrib $-1 $-1 $-1 $495 256 #
face $679 $482 $669 $2 $-1 $680 reversed single #
plane-surface $-1 480.87713914963103 96.421354407737198 106.58930729180759 0 -1 2.3684757858670005e-015 0 -2.3684757858670005e-015 -1 forward_v I I I I #
coedge $-1 $497 $560 $650 $681 1 $334 $-1 #
color-adesk-attrib $-1 $-1 $-1 $498 256 #
vertex $-1 $556 $682 #
straight-curve $-1 188.77713914963101 39.906354407737183 93.88930729180754 0 0 1 I I #
loop $-1 $345 $683 $149 #
coedge $-1 $600 $600 $684 $685 0 $499 $-1 #
edge $686 $687 $687 $500 $688 forward #
color-adesk-attrib $-1 $-1 $-1 $502 256 #
face $689 $690 $691 $2 $-1 $692 reversed single #
loop $-1 $693 $694 $502 #
cone-surface $-1 208.65213914963101 52.6063544077372 400.71484617719932 0 0 1 -4 0 0 1 I I 0 1 forward I I I I #
loop $-1 $-1 $695 $399 #
coedge $-1 $607 $607 $507 $609 1 $503 $-1 #
coedge $-1 $608 $608 $695 $696 0 $505 $-1 #
edge $697 $698 $698 $607 $699 forward #
color-adesk-attrib $-1 $-1 $-1 $509 256 #
vertex $-1 $509 $700 #
ellipse-curve $-1 240.40213914963101 154.20635440773719 98.651807291807529 0 0 -1 -4 0 0 1 I I #
point $-1 234.40213914963101 52.6063544077372 90.18930729180758 #
loop $-1 $467 $701 $340 #
coedge $-1 $615 $615 $694 $702 0 $515 $-1 #
coedge $-1 $636 $516 $703 $704 0 $320 $-1 #
edge $705 $706 $623 $516 $707 forward #
edge $708 $545 $622 $542 $709 forward #
coedge $-1 $643 $518 $640 $710 0 $620 $-1 #
loop $-1 $-1 $585 $711 #
color-adesk-attrib $-1 $-1 $-1 $519 256 #
vertex $-1 $618 $712 #
vertex $-1 $617 $713 #
ellipse-curve $-1 269.67513914963104 105.82035440773718 94.589307291807586 0 0 1 -5.6568542494923797 5.6568542494923797 0 1 I I #
coedge $-1 $714 $715 $716 $717 1 $521 $-1 #
coedge $-1 $718 $719 $523 $627 1 $669 $-1 #
edge $720 $721 $630 $523 $722 forward #
coedge $-1 $527 $524 $719 $723 0 $528 $-1 #
color-adesk-attrib $-1 $-1 $-1 $525 256 #
vertex $-1 $525 $724 #
straight-curve $-1 480.87713914963103 96.421354407737184 106.58930729180767 0 2.3684757858670005e-015 1 I I #
coedge $-1 $568 $567 $560 $655 1 $533 $-1 #
point $-1 188.77713914963101 39.906354407737183 81.18930729180758 #
coedge $-1 $715 $714 $538 $635 1 $521 $-1 #
edge $725 $638 $721 $538 $726 forward #
coedge $-1 $539 $616 $715 $727 1 $320 $-1 #
color-adesk-attrib $-1 $-1 $-1 $540 256 #
vertex $-1 $635 $728 #
straight-curve $-1 480.87713914963103 129.94935440773719 94.589307291807586 0 -1 0 I I #
coedge $-1 $542 $541 $619 $710 1 $543 $-1 #
face $729 $730 $543 $2 $-1 $731 reversed single #
point $-1 480.87713914963103 113.82035440773718 94.589307291807586 #
coedge $-1 $585 $619 $547 $644 1 $620 $-1 #
edge $732 $675 $646 $547 $733 forward #
color-adesk-attrib $-1 $-1 $-1 $548 256 #
vertex $-1 $548 $734 #
straight-curve $-1 480.87713914963103 113.82035440773718 100.58930729180759 -1 0 0 I I #
color-adesk-attrib $-1 $-1 $-1 $549 256 #
plane-surface $-1 480.87713914963103 113.82035440773718 100.58930729180759 0 0 1 1 0 0 forward_v I I I I #
coedge $-1 $552 $551 $595 $681 0 $553 $-1 #
edge $735 $736 $555 $552 $737 forward #
point $-1 199.12713914963101 166.90635440773718 106.58930729180753 #
color-adesk-attrib $-1 $-1 $-1 $556 256 #
straight-curve $-1 188.77713914963101 166.90635440773718 106.58930729180753 0 -1 0 I I #
edge $738 $657 $736 $560 $739 forward #
color-adesk-attrib $-1 $-1 $-1 $562 256 #
vertex $-1 $562 $740 #
straight-curve $-1 365.40213914963101 39.906354407737183 98.651807291807529 -1 0 0 I I #
color-adesk-attrib $-1 $-1 $-1 $571 256 #
straight-curve $-1 199.12713914963101 166.90635440773718 98.651807291807529 0 -1 0 I I #
coedge $-1 $719 $577 $573 $662 0 $669 $-1 #
edge $741 $580 $664 $661 $742 forward #
color-adesk-attrib $-1 $-1 $-1 $574 256 #
vertex $-1 $723 $743 #
straight-curve $-1 267.67513914963104 96.421354407737198 106.5893072918076 0 -2.3684757858670005e-015 -1 F -18.600000000000037 F 24.600000000000037 #
coedge $-1 $744 $703 $576 $667 0 $745 $-1 #
edge $746 $706 $671 $576 $747 forward #
coedge $-1 $577 $718 $744 $748 0 $669 $-1 #
loop $-1 $-1 $668 $593 #
color-adesk-attrib $-1 $-1 $-1 $578 256 #
vertex $-1 $578 $749 #
straight-curve $-1 261.67513914963104 96.421354407737198 100.58930729180759 0 -1 0 I I #
point $-1 261.67513914963104 102.42135440773718 100.58930729180759 #
color-adesk-attrib $-1 $-1 $-1 $583 256 #
vertex $-1 $586 $750 #
straight-curve $-1 261.67513914963104 112.10585440773718 100.58930729180759 0 -1 0 I I #
color-adesk-attrib $-1 $-1 $-1 $586 256 #
straight-curve $-1 261.67513914963104 105.82035440773718 100.58930729180759 0 0 -1 F -24.799999999999997 F 30.799999999999997 #
color-adesk-attrib $-1 $-1 $-1 $593 256 #
plane-surface $-1 480.87713914963103 96.421354407737184 100.58930729180759 0 0 1 1 0 0 forward_v I I I I #
edge $751 $597 $736 $650 $365 forward #
point $-1 188.77713914963101 39.906354407737183 106.58930729180753 #
coedge $-1 $683 $683 $752 $753 0 $599 $-1 #
coedge $-1 $684 $684 $600 $685 1 $691 $-1 #
edge $754 $755 $755 $600 $756 forward #
color-adesk-attrib $-1 $-1 $-1 $601 256 #
vertex $-1 $601 $757 #
ellipse-curve $-1 240.40213914963101 154.20635440773719 81.18930729180758 0 0 1 -6 0 0 1 I I #
color-adesk-attrib $-1 $-1 $-1 $603 256 #
face $758 $759 $760 $2 $-1 $761 reversed single #
loop $-1 $762 $684 $603 #
cone-surface $-1 208.65213914963101 52.6063544077372 85.68930729180758 0 0 1 -6 0 0 1 I I 0 1 forward I I I I #
loop $-1 $-1 $763 $502 #
coedge $-1 $694 $694 $615 $702 1 $604 $-1 #
coedge $-1 $695 $695 $608 $696 1 $606 $-1 #
edge $764 $765 $765 $695 $766 forward #
color-adesk-attrib $-1 $-1 $-1 $609 256 #
vertex $-1 $609 $767 #
ellipse-curve $-1 240.40213914963101 154.20635440773719 90.18930729180758 0 0 -1 -4 0 0 1 I I #
point $-1 244.40213914963101 154.20635440773722 98.651807291807529 #
coedge $-1 $701 $701 $768 $769 0 $614 $-1 #
edge $770 $771 $771 $615 $772 forward #
coedge $-1 $666 $716 $616 $704 1 $745 $-1 #
edge $773 $706 $774 $616 $775 forward #
color-adesk-attrib $-1 $-1 $-1 $617 256 #
vertex $-1 $667 $776 #
straight-curve $-1 261.67513914963104 103.40635440773718 94.589307291807586 0 1 0 I I #
color-adesk-attrib $-1 $-1 $-1 $618 256 #
straight-curve $-1 480.87713914963103 113.82035440773718 94.589307291807586 -1 0 0 I I #
edge $777 $622 $646 $640 $778 forward #
face $779 $549 $620 $2 $-1 $780 forward single #
point $-1 269.67513914963104 113.82035440773718 94.589307291807586 #
point $-1 261.67513914963104 105.82035440773718 94.589307291807586 #
coedge $-1 $634 $625 $718 $781 1 $521 $-1 #
coedge $-1 $625 $634 $636 $727 0 $521 $-1 #
coedge $-1 $703 $744 $625 $717 0 $745 $-1 #
edge $782 $783 $774 $625 $784 forward #
coedge $-1 $668 $626 $714 $781 0 $669 $-1 #
coedge $-1 $626 $661 $628 $723 1 $669 $-1 #
color-adesk-attrib $-1 $-1 $-1 $627 256 #
vertex $-1 $627 $785 #
straight-curve $-1 480.87713914963103 131.66385440773718 100.58930729180759 0 1 0 I I #
edge $786 $630 $664 $719 $787 forward #
point $-1 480.87713914963103 96.421354407737184 100.58930729180759 #
color-adesk-attrib $-1 $-1 $-1 $635 256 #
straight-curve $-1 480.87713914963103 92.992354407737196 103.58930729180759 0 0 1 I I #
edge $788 $638 $774 $636 $789 forward #
point $-1 480.87713914963103 92.992354407737182 94.589307291807586 #
color-adesk-attrib $-1 $-1 $-1 $641 256 #
face $790 $321 $745 $2 $-1 $791 forward single #
plane-surface $-1 480.87713914963103 113.82035440773718 94.589307291807586 0 1 0 0 0 1 forward_v I I I I #
color-adesk-attrib $-1 $-1 $-1 $644 256 #
ellipse-curve $-1 269.67513914963104 105.82035440773718 100.58930729180759 0 0 -1 -5.6568542494923797 5.6568542494923797 0 1 I I #
point $-1 269.67513914963104 113.82035440773718 100.58930729180759 #
color-adesk-attrib $-1 $-1 $-1 $651 256 #
vertex $-1 $681 $792 #
straight-curve $-1 199.12713914963103 166.90635440773718 106.58930729180753 0 1 0 I I #
color-adesk-attrib $-1 $-1 $-1 $655 256 #
straight-curve $-1 199.12713914963103 39.906354407737183 102.62055729180756 0 0 1 I I #
point $-1 199.12713914963101 39.906354407737183 98.651807291807529 #
color-adesk-attrib $-1 $-1 $-1 $662 256 #
ellipse-curve $-1 267.67513914963104 102.42135440773718 100.58930729180757 0 0 1 -4.2426406871192857 -4.2426406871192857 0 1 I I #
point $-1 267.67513914963104 96.421354407737184 100.58930729180759 #
coedge $-1 $716 $666 $668 $748 1 $745 $-1 #
loop $-1 $-1 $666 $730 #
color-adesk-attrib $-1 $-1 $-1 $667 256 #
straight-curve $-1 261.67513914963104 100.99235440773718 103.58930729180759 0 0 1 F -33.799999999999997 F 21.799999999999997 #
edge $793 $783 $671 $668 $794 forward #
point $-1 261.67513914963104 100.99235440773718 100.58930729180759 #
point $-1 261.67513914963104 105.82035440773718 100.58930729180759 #
color-adesk-attrib $-1 $-1 $-1 $681 256 #
coedge $-1 $752 $752 $683 $753 1 $795 $-1 #
edge $796 $797 $797 $683 $798 forward #
color-adesk-attrib $-1 $-1 $-1 $685 256 #
vertex $-1 $685 $799 #
ellipse-curve $-1 208.65213914963101 52.6063544077372 81.18930729180758 0 0 1 -6 0 0 1 I I #
point $-1 234.40213914963101 154.20635440773719 81.18930729180758 #
color-adesk-attrib $-1 $-1 $-1 $690 256 #
face $800 $801 $802 $2 $-1 $803 reversed single #
loop $-1 $804 $805 $690 #
plane-surface $-1 208.65213914963101 52.6063544077372 90.18930729180758 0 0 1 -1 0 0 forward_v I I I I #
loop $-1 $-1 $806 $603 #
coedge $-1 $763 $763 $805 $807 0 $693 $-1 #
color-adesk-attrib $-1 $-1 $-1 $696 256 #
vertex $-1 $696 $808 #
ellipse-curve $-1 240.40213914963101 154.20635440773719 90.18930729180758 0 0 1 -6 0 0 1 I I #
point $-1 244.40213914963101 154.20635440773722 90.18930729180758 #
coedge $-1 $768 $768 $701 $769 1 $802 $-1 #
edge $809 $810 $810 $701 $811 forward #
color-adesk-attrib $-1 $-1 $-1 $702 256 #
vertex $-1 $702 $812 #
ellipse-curve $-1 208.65213914963101 52.6063544077372 98.651807291807529 0 0 -1 -4 0 0 1 I I #
color-adesk-attrib $-1 $-1 $-1 $704 256 #
vertex $-1 $727 $813 #
ellipse-curve $-1 269.67513914963104 100.99235440773718 94.589307291807586 0 0 1 -5.6568542494923797 -5.6568542494923797 0 1 I I #
point $-1 261.67513914963104 100.99235440773718 94.589307291807586 #
color-adesk-attrib $-1 $-1 $-1 $710 256 #
straight-curve $-1 269.67513914963104 113.82035440773718 100.58930729180759 0 0 1 F -30.799999999999997 F 24.799999999999997 #
color-adesk-attrib $-1 $-1 $-1 $711 256 #
cone-surface $-1 269.67513914963104 105.82035440773718 100.58930729180759 0 0 1 -5.6568542494923797 5.6568542494923797 0 1 I I 0 -1 forward I I I I #
edge $814 $721 $783 $714 $815 forward #
color-adesk-attrib $-1 $-1 $-1 $717 256 #
vertex $-1 $781 $816 #
straight-curve $-1 269.67513914963104 92.992354407737182 103.58930729180759 0 0 -1 F -21.799999999999997 F 33.799999999999997 #
point $-1 480.87713914963103 92.992354407737182 100.58930729180759 #
color-adesk-attrib $-1 $-1 $-1 $723 256 #
straight-curve $-1 480.87713914963103 96.421354407737184 100.58930729180759 -1 0 0 I I #
color-adesk-attrib $-1 $-1 $-1 $727 256 #
straight-curve $-1 480.87713914963103 92.992354407737182 94.589307291807586 -1 0 0 I I #
color-adesk-attrib $-1 $-1 $-1 $730 256 #
cone-surface $-1 269.67513914963104 100.99235440773718 103.58930729180759 0 0 -1 -5.6568542494923797 -5.6568542494923797 0 1 I I 0 -1 forward I I I I #
point $-1 199.12713914963101 39.906354407737183 106.58930729180753 #
color-adesk-attrib $-1 $-1 $-1 $748 256 #
ellipse-curve $-1 269.67513914963104 100.99235440773718 100.58930729180759 0 0 -1 -5.6568542494923797 -5.6568542494923797 0 1 I I #
loop $-1 $817 $752 $801 #
color-adesk-attrib $-1 $-1 $-1 $753 256 #
vertex $-1 $753 $818 #
ellipse-curve $-1 208.65213914963101 154.20635440773719 81.18930729180758 0 0 1 -6 0 0 1 I I #
point $-1 202.65213914963101 52.6063544077372 81.18930729180758 #
color-adesk-attrib $-1 $-1 $-1 $759 256 #
face $819 $820 $795 $2 $-1 $821 reversed single #
loop $-1 $822 $768 $759 #
cone-surface $-1 208.65213914963101 154.20635440773719 400.71484617719932 0 0 1 -4 0 0 1 I I 0 1 forward I I I I #
loop $-1 $-1 $823 $690 #
coedge $-1 $805 $805 $763 $807 1 $760 $-1 #
coedge $-1 $806 $806 $823 $824 0 $762 $-1 #
edge $825 $826 $826 $805 $827 forward #
point $-1 234.40213914963101 154.20635440773719 90.18930729180758 #
color-adesk-attrib $-1 $-1 $-1 $769 256 #
vertex $-1 $769 $828 #
ellipse-curve $-1 208.65213914963101 154.20635440773719 98.651807291807529 0 0 -1 -4 0 0 1 I I #
point $-1 212.65213914963101 52.606354407737228 98.651807291807529 #
point $-1 269.67513914963104 92.992354407737182 94.589307291807586 #
color-adesk-attrib $-1 $-1 $-1 $781 256 #
straight-curve $-1 480.87713914963103 92.992354407737182 100.58930729180759 -1 0 0 I I #
point $-1 269.67513914963104 92.992354407737182 100.58930729180759 #
loop $-1 $-1 $829 $801 #
point $-1 202.65213914963101 154.20635440773719 81.18930729180758 #
color-adesk-attrib $-1 $-1 $-1 $801 256 #
face $830 $711 $831 $2 $-1 $832 reversed single #
cone-surface $-1 208.65213914963101 154.20635440773719 85.68930729180758 0 0 1 -6 0 0 1 I I 0 1 forward I I I I #
loop $-1 $-1 $833 $759 #
coedge $-1 $823 $823 $806 $824 1 $804 $-1 #
edge $834 $835 $835 $823 $836 forward #
color-adesk-attrib $-1 $-1 $-1 $807 256 #
vertex $-1 $807 $837 #
ellipse-curve $-1 208.65213914963101 52.6063544077372 90.18930729180758 0 0 -1 -4 0 0 1 I I #
point $-1 212.65213914963101 154.20635440773722 98.651807291807529 #
coedge $-1 $829 $829 $838 $839 0 $817 $-1 #
color-adesk-attrib $-1 $-1 $-1 $820 256 #
loop $-1 $840 $841 $820 #
plane-surface $-1 208.65213914963101 154.20635440773719 90.18930729180758 0 0 1 -1 0 0 forward_v I I I I #
coedge $-1 $833 $833 $841 $842 0 $822 $-1 #
color-adesk-attrib $-1 $-1 $-1 $824 256 #
vertex $-1 $824 $843 #
ellipse-curve $-1 208.65213914963101 52.6063544077372 90.18930729180758 0 0 1 -6 0 0 1 I I #
point $-1 212.65213914963101 52.606354407737228 90.18930729180758 #
coedge $-1 $838 $838 $829 $839 1 $840 $-1 #
edge $844 $845 $845 $838 $846 forward #
loop $-1 $-1 $838 $820 #
coedge $-1 $841 $841 $833 $842 1 $831 $-1 #
edge $847 $848 $848 $841 $849 forward #
point $-1 202.65213914963101 52.6063544077372 90.18930729180758 #
color-adesk-attrib $-1 $-1 $-1 $839 256 #
vertex $-1 $839 $850 #
ellipse-curve $-1 208.65213914963101 154.20635440773719 90.18930729180758 0 0 1 -6 0 0 1 I I #
color-adesk-attrib $-1 $-1 $-1 $842 256 #
vertex $-1 $842 $851 #
ellipse-curve $-1 208.65213914963101 154.20635440773719 90.18930729180758 0 0 -1 -4 0 0 1 I I #
point $-1 202.65213914963101 154.20635440773719 90.18930729180758 #
point $-1 212.65213914963101 154.20635440773722 90.18930729180758 #
