106 0 1 0           
body $-1 $1 $-1 $-1 #
lump $-1 $-1 $2 $0 #
shell $-1 $-1 $-1 $3 $1 #
face $-1 $4 $5 $2 $-1 $6 forward single #
face $-1 $7 $8 $2 $-1 $9 forward single #
loop $-1 $-1 $10 $3 #
plane-surface $-1 -40 0 15 1 0 0 0 0 -1 0 I I I I #
face $-1 $11 $12 $2 $-1 $13 forward single #
loop $-1 $-1 $14 $4 #
plane-surface $-1 -30 0 10 0 0 1 1 0 0 0 I I I I #
coedge $-1 $15 $16 $17 $18 1 $5 $-1 #
face $-1 $19 $20 $2 $-1 $21 forward single #
loop $-1 $-1 $22 $7 #
plane-surface $-1 -20 0 15 -1 0 0 0 0 1 0 I I I I #
coedge $-1 $23 $24 $25 $26 1 $8 $-1 #
coedge $-1 $27 $10 $24 $28 0 $5 $-1 #
coedge $-1 $10 $27 $29 $30 1 $5 $-1 #
coedge $-1 $31 $25 $10 $18 0 $20 $-1 #
edge $-1 $32 $33 $17 $34 0 #
face $-1 $35 $36 $2 $-1 $37 forward single #
loop $-1 $-1 $38 $11 #
plane-surface $-1 -30 -10 10 0 -1 0 0 0 -1 0 I I I I #
coedge $-1 $39 $40 $38 $41 1 $12 $-1 #
coedge $-1 $42 $14 $40 $43 1 $8 $-1 #
coedge $-1 $14 $42 $15 $28 1 $8 $-1 #
coedge $-1 $17 $38 $14 $26 0 $20 $-1 #
edge $-1 $44 $32 $25 $45 0 #
coedge $-1 $16 $15 $46 $47 1 $5 $-1 #
edge $-1 $32 $48 $15 $49 0 #
coedge $-1 $50 $51 $16 $30 0 $36 $-1 #
edge $-1 $33 $52 $29 $53 0 #
coedge $-1 $54 $17 $51 $55 1 $20 $-1 #
vertex $-1 $26 $56 #
vertex $-1 $55 $57 #
straight-curve $-1 -40 -10 12.5 0 0 1 I I #
face $-1 $58 $59 $2 $-1 $60 forward single #
loop $-1 $61 $29 $19 #
plane-surface $-1 0 0 20 0 0 1 1 0 0 0 I I I I #
coedge $-1 $25 $62 $22 $41 0 $20 $-1 #
coedge $-1 $63 $22 $64 $65 1 $12 $-1 #
coedge $-1 $22 $63 $23 $43 0 $12 $-1 #
edge $-1 $66 $44 $38 $67 0 #
coedge $-1 $24 $23 $68 $69 1 $8 $-1 #
edge $-1 $70 $44 $40 $71 0 #
vertex $-1 $26 $72 #
straight-curve $-1 -30 -10 10 -1 0 0 I I #
coedge $-1 $68 $73 $27 $47 0 $74 $-1 #
edge $-1 $52 $48 $46 $75 0 #
vertex $-1 $69 $76 #
straight-curve $-1 -40 0 10 0 1 0 I I #
coedge $-1 $77 $29 $73 $78 0 $36 $-1 #
coedge $-1 $29 $79 $31 $55 0 $36 $-1 #
vertex $-1 $47 $80 #
straight-curve $-1 -40 0 20 0 1 0 I I #
coedge $-1 $81 $31 $82 $83 1 $20 $-1 #
edge $-1 $84 $33 $51 $85 0 #
point $-1 -40 -10 10 #
point $-1 -40 -10 20 #
face $-1 $86 $87 $2 $-1 $88 forward single #
loop $-1 $-1 $89 $35 #
plane-surface $-1 40 0 15 -1 0 0 0 0 1 0 I I I I #
loop $-1 $-1 $90 $19 #
coedge $-1 $38 $91 $92 $93 1 $20 $-1 #
coedge $-1 $40 $39 $94 $95 1 $12 $-1 #
coedge $-1 $92 $96 $39 $65 0 $97 $-1 #
edge $-1 $98 $66 $64 $99 0 #
vertex $-1 $65 $100 #
straight-curve $-1 -20 -10 12.5 0 0 -1 I I #
coedge $-1 $94 $46 $42 $69 0 $74 $-1 #
edge $-1 $48 $70 $68 $101 0 #
vertex $-1 $69 $102 #
straight-curve $-1 -20 0 10 0 -1 0 I I #
point $-1 -20 -10 10 #
coedge $-1 $46 $103 $50 $78 1 $74 $-1 #
loop $-1 $-1 $94 $104 #
straight-curve $-1 -40 10 12.5 0 0 -1 I I #
point $-1 -40 10 10 #
coedge $-1 $105 $50 $106 $107 0 $36 $-1 #
edge $-1 $52 $108 $50 $109 0 #
coedge $-1 $51 $110 $111 $112 0 $36 $-1 #
point $-1 -40 10 20 #
coedge $-1 $91 $54 $113 $114 0 $20 $-1 #
coedge $-1 $111 $115 $54 $83 0 $116 $-1 #
edge $-1 $117 $84 $54 $118 0 #
vertex $-1 $55 $119 #
straight-curve $-1 -15 -10 20 1 0 0 I I #
face $-1 $120 $121 $2 $-1 $122 forward single #
loop $-1 $-1 $123 $58 #
plane-surface $-1 30 0 10 0 0 1 1 0 0 0 I I I I #
coedge $-1 $124 $125 $126 $127 1 $59 $-1 #
coedge $-1 $128 $129 $130 $131 1 $61 $-1 #
coedge $-1 $62 $81 $132 $133 1 $20 $-1 #
coedge $-1 $134 $64 $62 $93 0 $97 $-1 #
edge $-1 $66 $135 $92 $85 0 #
coedge $-1 $136 $68 $63 $95 0 $74 $-1 #
edge $-1 $70 $98 $94 $137 0 #
coedge $-1 $64 $138 $136 $139 0 $97 $-1 #
loop $-1 $-1 $64 $140 #
vertex $-1 $139 $141 #
straight-curve $-1 -20 0 20 0 -1 0 I I #
point $-1 -20 -10 20 #
straight-curve $-1 -30 10 10 1 0 0 I I #
point $-1 -20 10 10 #
coedge $-1 $73 $142 $143 $144 1 $74 $-1 #
face $-1 $145 $74 $2 $-1 $146 forward single #
coedge $-1 $147 $77 $148 $149 0 $36 $-1 #
coedge $-1 $143 $150 $77 $107 1 $151 $-1 #
edge $-1 $108 $152 $77 $153 0 #
vertex $-1 $78 $154 #
straight-curve $-1 -15 10 20 -1 0 0 I I #
coedge $-1 $79 $155 $156 $157 0 $36 $-1 #
coedge $-1 $158 $82 $79 $112 1 $116 $-1 #
edge $-1 $159 $84 $79 $160 0 #
coedge $-1 $161 $162 $81 $114 1 $163 $-1 #
edge $-1 $117 $164 $81 $165 0 #
coedge $-1 $82 $158 $161 $166 1 $116 $-1 #
loop $-1 $-1 $82 $167 #
vertex $-1 $166 $168 #
straight-curve $-1 -45 -10 10 0 0 1 F -25.5 F 25.5 #
point $-1 -45 -10 20 #
face $-1 $169 $170 $2 $-1 $171 forward single #
loop $-1 $-1 $172 $86 #
plane-surface $-1 20 0 15 1 0 0 0 0 -1 0 I I I I #
coedge $-1 $173 $174 $175 $176 1 $87 $-1 #
coedge $-1 $177 $89 $174 $178 0 $59 $-1 #
coedge $-1 $89 $177 $179 $180 1 $59 $-1 #
coedge $-1 $181 $175 $89 $127 0 $170 $-1 #
edge $-1 $182 $183 $126 $184 0 #
coedge $-1 $185 $90 $186 $187 0 $61 $-1 #
coedge $-1 $90 $188 $189 $190 0 $61 $-1 #
coedge $-1 $191 $192 $90 $131 0 $193 $-1 #
edge $-1 $194 $195 $90 $196 0 #
coedge $-1 $197 $198 $91 $133 0 $199 $-1 #
edge $-1 $135 $164 $91 $200 0 #
coedge $-1 $201 $92 $198 $202 0 $97 $-1 #
vertex $-1 $93 $203 #
coedge $-1 $204 $94 $96 $139 1 $74 $-1 #
straight-curve $-1 -20 10 12.5 0 0 1 I I #
coedge $-1 $96 $205 $206 $207 0 $97 $-1 #
edge $-1 $208 $98 $96 $109 0 #
face $-1 $209 $97 $2 $-1 $37 forward single #
point $-1 -20 10 20 #
coedge $-1 $103 $204 $210 $211 0 $74 $-1 #
coedge $-1 $212 $106 $103 $144 0 $151 $-1 #
edge $-1 $108 $213 $103 $214 0 #
face $-1 $215 $216 $2 $-1 $217 forward single #
plane-surface $-1 -30 10 10 0 1 0 0 0 1 0 I I I I #
coedge $-1 $218 $105 $219 $220 0 $36 $-1 #
coedge $-1 $221 $222 $105 $149 1 $223 $-1 #
edge $-1 $152 $224 $105 $225 0 #
coedge $-1 $106 $212 $221 $226 0 $151 $-1 #
loop $-1 $-1 $150 $227 #
vertex $-1 $149 $228 #
ellipse-curve $-1 -45 15 20 0 0 -1 -3.5355339059327373 -3.5355339059327373 0 1 I I #
point $-1 -45 10 20 #
coedge $-1 $110 $229 $230 $231 0 $36 $-1 #
coedge $-1 $232 $233 $110 $157 1 $234 $-1 #
edge $-1 $235 $159 $110 $236 0 #
coedge $-1 $115 $111 $233 $237 0 $116 $-1 #
vertex $-1 $157 $238 #
ellipse-curve $-1 -45 -15 20 0 0 -1 -3.5355339059327373 3.5355339059327373 0 1 I I #
coedge $-1 $239 $113 $115 $166 0 $163 $-1 #
coedge $-1 $113 $240 $197 $241 0 $163 $-1 #
loop $-1 $-1 $242 $243 #
vertex $-1 $114 $244 #
straight-curve $-1 -30 -10 0 1 0 0 I I #
edge $-1 $117 $245 $161 $246 0 #
face $-1 $247 $116 $2 $-1 $248 forward single #
point $-1 -45 -10 0 #
face $-1 $249 $250 $2 $-1 $251 forward single #
loop $-1 $-1 $252 $120 #
plane-surface $-1 30 10 10 0 1 0 0 0 1 0 I I I I #
coedge $-1 $253 $254 $252 $255 1 $121 $-1 #
coedge $-1 $256 $123 $254 $257 1 $87 $-1 #
coedge $-1 $123 $256 $124 $178 1 $87 $-1 #
coedge $-1 $126 $252 $123 $176 0 $170 $-1 #
edge $-1 $258 $182 $175 $259 0 #
coedge $-1 $125 $124 $260 $261 1 $59 $-1 #
edge $-1 $182 $262 $124 $263 0 #
coedge $-1 $264 $265 $125 $180 0 $36 $-1 #
edge $-1 $183 $266 $179 $267 0 #
coedge $-1 $268 $126 $265 $269 1 $170 $-1 #
vertex $-1 $176 $270 #
vertex $-1 $269 $271 #
straight-curve $-1 40 10 12.5 0 0 1 I I #
coedge $-1 $272 $128 $273 $274 1 $61 $-1 #
coedge $-1 $275 $276 $128 $187 1 $277 $-1 #
edge $-1 $194 $278 $186 $279 0 #
coedge $-1 $129 $280 $281 $282 1 $61 $-1 #
coedge $-1 $283 $284 $129 $190 1 $285 $-1 #
edge $-1 $286 $195 $189 $287 0 #
coedge $-1 $288 $130 $284 $289 0 $193 $-1 #
coedge $-1 $130 $288 $275 $290 0 $193 $-1 #
loop $-1 $-1 $192 $291 #
vertex $-1 $290 $292 #
vertex $-1 $190 $293 #
ellipse-curve $-1 50 -50 20 0 0 -1 7.0710678118654746 -7.0710678118654746 0 1 I I #
coedge $-1 $294 $132 $162 $241 1 $199 $-1 #
coedge $-1 $132 $294 $134 $202 1 $199 $-1 #
loop $-1 $-1 $294 $295 #
straight-curve $-1 -15 -10 10 0 0 -1 F -25.5 F 25.5 #
coedge $-1 $296 $134 $297 $298 0 $97 $-1 #
edge $-1 $135 $299 $134 $300 0 #
point $-1 -15 -10 20 #
coedge $-1 $142 $136 $301 $302 1 $74 $-1 #
coedge $-1 $138 $303 $304 $305 0 $97 $-1 #
coedge $-1 $306 $301 $138 $207 1 $307 $-1 #
edge $-1 $308 $208 $138 $309 0 #
vertex $-1 $139 $310 #
face $-1 $311 $312 $2 $-1 $313 forward single #
coedge $-1 $314 $315 $142 $211 1 $316 $-1 #
edge $-1 $317 $213 $142 $318 0 #
coedge $-1 $150 $143 $315 $319 1 $151 $-1 #
vertex $-1 $211 $320 #
straight-curve $-1 -45 10 10 0 0 -1 F -25.5 F 25.5 #
face $-1 $321 $322 $2 $-1 $323 forward single #
loop $-1 $-1 $324 $145 #
cone-surface $-1 15 45 10 0 0 -1 -3.5355339059327373 3.5355339059327373 0 1 I I 0 -1 0 I I I I #
coedge $-1 $325 $147 $326 $327 0 $36 $-1 #
coedge $-1 $328 $329 $147 $220 1 $330 $-1 #
edge $-1 $224 $331 $147 $332 0 #
coedge $-1 $333 $148 $150 $226 1 $223 $-1 #
coedge $-1 $148 $333 $328 $334 1 $223 $-1 #
loop $-1 $-1 $222 $335 #
vertex $-1 $149 $336 #
straight-curve $-1 -50 15 20 0 1 0 I I #
edge $-1 $337 $152 $221 $338 0 #
face $-1 $339 $151 $2 $-1 $340 forward single #
point $-1 -50 15 20 #
coedge $-1 $155 $341 $342 $343 0 $36 $-1 #
coedge $-1 $344 $345 $155 $231 1 $346 $-1 #
edge $-1 $347 $235 $155 $348 0 #
coedge $-1 $349 $156 $345 $350 1 $234 $-1 #
coedge $-1 $156 $349 $158 $237 1 $234 $-1 #
loop $-1 $-1 $232 $351 #
vertex $-1 $157 $352 #
straight-curve $-1 -50 -15 20 0 1 0 I I #
edge $-1 $159 $245 $233 $353 0 #
point $-1 -50 -15 20 #
coedge $-1 $242 $161 $349 $354 1 $163 $-1 #
coedge $-1 $162 $355 $356 $357 1 $163 $-1 #
edge $-1 $358 $164 $162 $359 0 #
coedge $-1 $360 $239 $361 $362 0 $163 $-1 #
face $-1 $363 $163 $2 $-1 $364 forward single #
point $-1 -15 -10 0 #
vertex $-1 $354 $365 #
ellipse-curve $-1 -45 -15 0 0 0 1 -3.5355339059327373 3.5355339059327373 0 1 I I #
face $-1 $243 $366 $2 $-1 $367 forward single #
cone-surface $-1 -45 -15 10 0 0 -1 -3.5355339059327373 3.5355339059327373 0 1 I I 0 -1 0 I I I I #
face $-1 $368 $369 $2 $-1 $370 forward single #
loop $-1 $-1 $371 $169 #
plane-surface $-1 0 -40 15 0 1 0 0 0 1 0 I I I I #
coedge $-1 $175 $372 $172 $255 0 $170 $-1 #
coedge $-1 $373 $172 $374 $375 1 $121 $-1 #
coedge $-1 $172 $373 $173 $257 0 $121 $-1 #
edge $-1 $376 $258 $252 $377 0 #
coedge $-1 $174 $173 $378 $379 1 $87 $-1 #
edge $-1 $380 $258 $254 $381 0 #
vertex $-1 $176 $382 #
straight-curve $-1 30 10 10 1 0 0 I I #
coedge $-1 $378 $383 $177 $261 0 $384 $-1 #
edge $-1 $266 $262 $260 $385 0 #
vertex $-1 $379 $386 #
straight-curve $-1 40 0 10 0 -1 0 I I #
coedge $-1 $387 $179 $383 $388 0 $36 $-1 #
coedge $-1 $179 $389 $181 $269 0 $36 $-1 #
vertex $-1 $261 $390 #
straight-curve $-1 40 0 20 0 -1 0 I I #
coedge $-1 $391 $181 $392 $393 1 $170 $-1 #
edge $-1 $394 $183 $265 $395 0 #
point $-1 40 10 10 #
point $-1 40 10 20 #
coedge $-1 $396 $185 $397 $398 0 $61 $-1 #
coedge $-1 $399 $400 $185 $274 0 $401 $-1 #
edge $-1 $402 $278 $185 $403 0 #
coedge $-1 $404 $186 $192 $290 1 $277 $-1 #
coedge $-1 $186 $404 $399 $405 1 $277 $-1 #
loop $-1 $-1 $275 $406 #
vertex $-1 $187 $407 #
straight-curve $-1 60 0 20 0 1 0 I I #
coedge $-1 $188 $396 $408 $409 0 $61 $-1 #
coedge $-1 $410 $411 $188 $282 0 $412 $-1 #
edge $-1 $286 $413 $188 $414 0 #
coedge $-1 $415 $189 $411 $416 1 $285 $-1 #
coedge $-1 $189 $415 $191 $289 1 $285 $-1 #
loop $-1 $-1 $284 $417 #
vertex $-1 $282 $418 #
straight-curve $-1 0 -60 20 1 0 0 I I #
coedge $-1 $192 $191 $419 $420 0 $193 $-1 #
edge $-1 $195 $421 $284 $422 0 #
edge $-1 $423 $194 $275 $424 0 #
face $-1 $406 $193 $2 $-1 $425 forward single #
point $-1 60 -50 20 #
point $-1 50 -60 20 #
coedge $-1 $198 $197 $426 $427 0 $199 $-1 #
face $-1 $335 $199 $2 $-1 $428 forward single #
coedge $-1 $429 $201 $430 $431 0 $97 $-1 #
coedge $-1 $426 $432 $201 $298 1 $433 $-1 #
edge $-1 $299 $434 $201 $435 0 #
vertex $-1 $298 $436 #
ellipse-curve $-1 -15 -15 20 0 0 -1 3.5355339059327373 3.5355339059327373 0 1 I I #
coedge $-1 $206 $437 $204 $302 0 $307 $-1 #
edge $-1 $317 $208 $204 $438 0 #
coedge $-1 $205 $439 $440 $441 0 $97 $-1 #
coedge $-1 $442 $443 $205 $305 1 $444 $-1 #
edge $-1 $445 $308 $205 $446 0 #
coedge $-1 $437 $206 $443 $447 0 $307 $-1 #
loop $-1 $-1 $301 $448 #
vertex $-1 $305 $449 #
ellipse-curve $-1 -15 15 20 0 0 -1 3.5355339059327373 -3.5355339059327373 0 1 I I #
point $-1 -15 10 20 #
face $-1 $450 $451 $2 $-1 $452 reversed single #
loop $-1 $-1 $453 $209 #
cone-surface $-1 -50 50 0 0 0 -1 -7.0710678118654746 7.0710678118654746 0 1 I I 0 1 0 I I I I #
coedge $-1 $454 $210 $437 $455 0 $316 $-1 #
coedge $-1 $210 $456 $212 $319 0 $316 $-1 #
loop $-1 $-1 $457 $339 #
vertex $-1 $455 $458 #
straight-curve $-1 -30 10 0 -1 0 0 I I #
edge $-1 $337 $213 $315 $459 0 #
point $-1 -45 10 0 #
face $-1 $460 $461 $2 $-1 $462 forward single #
loop $-1 $-1 $463 $215 #
plane-surface $-1 30 30 0 0 0 1 1 0 0 0 I I I I #
coedge $-1 $464 $465 $466 $467 0 $216 $-1 #
coedge $-1 $468 $218 $469 $470 0 $36 $-1 #
coedge $-1 $471 $472 $218 $327 1 $473 $-1 #
edge $-1 $331 $474 $218 $475 0 #
coedge $-1 $476 $219 $222 $334 0 $330 $-1 #
coedge $-1 $219 $476 $471 $477 0 $330 $-1 #
loop $-1 $-1 $329 $478 #
vertex $-1 $327 $479 #
ellipse-curve $-1 -45 45 20 0 0 -1 -3.5355339059327373 3.5355339059327373 0 1 I I #
coedge $-1 $222 $221 $456 $480 0 $223 $-1 #
edge $-1 $224 $481 $222 $482 0 #
face $-1 $483 $223 $2 $-1 $484 forward single #
point $-1 -50 45 20 #
vertex $-1 $319 $485 #
straight-curve $-1 -50 15 10 0 0 1 F -25.5 F 25.5 #
face $-1 $104 $316 $2 $-1 $486 forward single #
cone-surface $-1 -45 15 10 0 0 -1 -3.5355339059327373 -3.5355339059327373 0 1 I I 0 -1 0 I I I I #
coedge $-1 $229 $487 $488 $489 0 $36 $-1 #
coedge $-1 $490 $491 $229 $343 1 $492 $-1 #
edge $-1 $493 $347 $229 $494 0 #
coedge $-1 $361 $230 $491 $495 0 $346 $-1 #
coedge $-1 $230 $361 $232 $350 0 $346 $-1 #
loop $-1 $-1 $345 $496 #
vertex $-1 $343 $497 #
ellipse-curve $-1 -45 -45 20 0 0 -1 -3.5355339059327373 -3.5355339059327373 0 1 I I #
coedge $-1 $233 $232 $239 $354 0 $234 $-1 #
edge $-1 $498 $235 $232 $499 0 #
face $-1 $478 $234 $2 $-1 $500 forward single #
point $-1 -50 -45 20 #
straight-curve $-1 -50 -15 10 0 0 -1 F -25.5 F 25.5 #
edge $-1 $498 $245 $349 $501 0 #
coedge $-1 $240 $360 $502 $503 0 $163 $-1 #
coedge $-1 $504 $426 $240 $357 0 $433 $-1 #
edge $-1 $358 $505 $356 $506 0 #
vertex $-1 $241 $507 #
ellipse-curve $-1 -15 -15 0 0 0 1 3.5355339059327373 3.5355339059327373 0 1 I I #
coedge $-1 $355 $242 $508 $509 1 $163 $-1 #
coedge $-1 $345 $344 $242 $362 1 $346 $-1 #
edge $-1 $498 $510 $242 $511 0 #
face $-1 $227 $433 $2 $-1 $512 forward single #
plane-surface $-1 -30 -30 0 0 0 1 1 0 0 0 I I I I #
point $-1 -50 -15 0 #
loop $-1 $-1 $513 $247 #
cone-surface $-1 -15 -45 10 0 0 -1 3.5355339059327373 -3.5355339059327373 0 1 I I 0 -1 0 I I I I #
face $-1 $514 $515 $2 $-1 $516 forward single #
loop $-1 $-1 $517 $249 #
plane-surface $-1 0 -30 10 0 0 1 1 0 0 0 I I I I #
coedge $-1 $518 $519 $520 $521 1 $250 $-1 #
coedge $-1 $252 $522 $523 $524 1 $170 $-1 #
coedge $-1 $254 $253 $525 $526 1 $121 $-1 #
coedge $-1 $523 $527 $253 $375 0 $97 $-1 #
edge $-1 $528 $376 $374 $529 0 #
vertex $-1 $375 $530 #
straight-curve $-1 20 10 12.5 0 0 -1 I I #
coedge $-1 $525 $260 $256 $379 0 $384 $-1 #
edge $-1 $262 $380 $378 $531 0 #
vertex $-1 $379 $532 #
straight-curve $-1 20 0 10 0 1 0 I I #
point $-1 20 10 10 #
coedge $-1 $260 $533 $264 $388 1 $384 $-1 #
loop $-1 $-1 $525 $534 #
straight-curve $-1 40 -10 12.5 0 0 -1 I I #
point $-1 40 -10 10 #
coedge $-1 $535 $264 $536 $537 0 $36 $-1 #
edge $-1 $266 $538 $264 $539 0 #
coedge $-1 $265 $540 $541 $542 0 $36 $-1 #
point $-1 40 -10 20 #
coedge $-1 $522 $268 $543 $544 0 $170 $-1 #
coedge $-1 $541 $545 $268 $393 0 $546 $-1 #
edge $-1 $547 $394 $268 $548 0 #
vertex $-1 $269 $549 #
straight-curve $-1 15 10 20 -1 0 0 I I #
coedge $-1 $280 $272 $550 $551 1 $61 $-1 #
coedge $-1 $552 $553 $272 $398 1 $451 $-1 #
edge $-1 $402 $554 $397 $555 0 #
coedge $-1 $556 $273 $276 $405 0 $401 $-1 #
coedge $-1 $273 $556 $552 $557 0 $401 $-1 #
loop $-1 $-1 $400 $450 #
vertex $-1 $557 $558 #
ellipse-curve $-1 50 50 20 0 0 -1 7.0710678118654746 7.0710678118654746 0 1 I I #
coedge $-1 $276 $275 $559 $560 1 $277 $-1 #
edge $-1 $278 $561 $276 $562 0 #
face $-1 $563 $277 $2 $-1 $564 reversed single #
point $-1 60 50 20 #
coedge $-1 $565 $566 $280 $409 1 $567 $-1 #
edge $-1 $568 $413 $408 $569 0 #
coedge $-1 $570 $281 $566 $571 0 $412 $-1 #
coedge $-1 $281 $570 $283 $416 0 $412 $-1 #
loop $-1 $-1 $411 $572 #
vertex $-1 $409 $573 #
ellipse-curve $-1 -50 -50 20 0 0 -1 -7.0710678118654746 -7.0710678118654746 0 1 I I #
coedge $-1 $284 $283 $574 $575 1 $285 $-1 #
edge $-1 $576 $286 $283 $577 0 #
face $-1 $-1 $285 $2 $-1 $578 reversed single #
point $-1 -50 -60 20 #
coedge $-1 $574 $559 $288 $420 1 $579 $-1 #
edge $-1 $421 $423 $419 $580 0 #
vertex $-1 $420 $581 #
straight-curve $-1 50 -60 0 0 0 -1 F -51 F 51 #
vertex $-1 $560 $582 #
straight-curve $-1 60 -50 0 0 0 1 F -51 F 51 #
cone-surface $-1 50 -50 0 0 0 -1 7.0710678118654746 -7.0710678118654746 0 1 I I 0 1 0 I I I I #
coedge $-1 $356 $297 $294 $427 1 $433 $-1 #
edge $-1 $358 $299 $426 $583 0 #
cone-surface $-1 -15 -15 10 0 0 -1 3.5355339059327373 3.5355339059327373 0 1 I I 0 -1 0 I I I I #
coedge $-1 $584 $296 $585 $586 0 $97 $-1 #
coedge $-1 $587 $588 $296 $431 1 $515 $-1 #
edge $-1 $434 $589 $296 $590 0 #
coedge $-1 $297 $591 $587 $592 0 $433 $-1 #
loop $-1 $-1 $432 $363 #
vertex $-1 $298 $593 #
straight-curve $-1 -10 -15 20 0 -1 0 I I #
point $-1 -10 -15 20 #
coedge $-1 $301 $306 $314 $455 1 $307 $-1 #
straight-curve $-1 -15 10 10 0 0 1 F -25.5 F 25.5 #
coedge $-1 $303 $594 $595 $596 0 $97 $-1 #
coedge $-1 $597 $598 $303 $441 1 $599 $-1 #
edge $-1 $600 $445 $303 $601 0 #
coedge $-1 $602 $304 $598 $603 0 $444 $-1 #
coedge $-1 $304 $604 $306 $447 1 $444 $-1 #
loop $-1 $-1 $605 $606 #
vertex $-1 $603 $607 #
straight-curve $-1 -10 15 20 0 -1 0 I I #
edge $-1 $308 $608 $443 $609 0 #
face $-1 $295 $307 $2 $-1 $610 forward single #
point $-1 -10 15 20 #
face $-1 $611 $401 $2 $-1 $612 forward single #
loop $-1 $-1 $553 $311 #
plane-surface $-1 0 60 0 0 -1 0 0 0 -1 0 I I I I #
coedge $-1 $550 $613 $565 $614 0 $312 $-1 #
coedge $-1 $615 $314 $604 $616 1 $316 $-1 #
edge $-1 $317 $608 $314 $617 0 #
coedge $-1 $315 $457 $333 $480 1 $316 $-1 #
coedge $-1 $456 $618 $476 $619 0 $316 $-1 #
point $-1 -15 10 0 #
ellipse-curve $-1 -45 15 0 0 0 1 -3.5355339059327373 -3.5355339059327373 0 1 I I #
face $-1 $534 $620 $2 $-1 $621 forward single #
loop $-1 $-1 $622 $321 #
cone-surface $-1 45 -15 10 0 0 -1 3.5355339059327373 3.5355339059327373 0 1 I I 0 -1 0 I I I I #
coedge $-1 $623 $624 $625 $626 0 $322 $-1 #
coedge $-1 $627 $324 $628 $629 1 $216 $-1 #
coedge $-1 $324 $627 $630 $631 1 $216 $-1 #
coedge $-1 $632 $633 $324 $467 1 $634 $-1 #
edge $-1 $635 $636 $466 $637 0 #
coedge $-1 $638 $325 $639 $640 0 $36 $-1 #
coedge $-1 $641 $642 $325 $470 1 $643 $-1 #
edge $-1 $474 $644 $325 $645 0 #
coedge $-1 $646 $326 $329 $477 1 $473 $-1 #
coedge $-1 $326 $646 $641 $647 1 $473 $-1 #
loop $-1 $-1 $471 $648 #
vertex $-1 $327 $649 #
straight-curve $-1 -15 50 20 1 0 0 I I #
coedge $-1 $329 $328 $457 $619 1 $330 $-1 #
edge $-1 $650 $331 $471 $651 0 #
face $-1 $648 $330 $2 $-1 $652 forward single #
point $-1 -45 50 20 #
edge $-1 $337 $481 $333 $653 0 #
vertex $-1 $480 $654 #
straight-curve $-1 -50 45 10 0 0 -1 F -25.5 F 25.5 #
face $-1 $655 $492 $2 $-1 $656 forward single #
plane-surface $-1 -50 30 10 1 0 0 0 0 -1 0 I I I I #
point $-1 -50 15 0 #
plane-surface $-1 -30 30 0 0 0 1 1 0 0 0 I I I I #
coedge $-1 $341 $657 $658 $659 0 $36 $-1 #
coedge $-1 $660 $513 $341 $489 1 $366 $-1 #
edge $-1 $661 $493 $341 $662 0 #
coedge $-1 $508 $342 $513 $663 1 $492 $-1 #
coedge $-1 $342 $508 $344 $495 1 $492 $-1 #
loop $-1 $-1 $491 $483 #
vertex $-1 $343 $664 #
straight-curve $-1 -15 -50 20 -1 0 0 I I #
edge $-1 $347 $510 $491 $665 0 #
face $-1 $351 $346 $2 $-1 $666 forward single #
point $-1 -45 -50 20 #
vertex $-1 $362 $667 #
straight-curve $-1 -50 -45 10 0 0 1 F -25.5 F 25.5 #
plane-surface $-1 -50 -30 10 1 0 0 0 0 -1 0 I I I I #
straight-curve $-1 -50 -30 0 0 1 0 I I #
coedge $-1 $513 $660 $355 $503 1 $366 $-1 #
edge $-1 $668 $505 $355 $669 0 #
coedge $-1 $658 $356 $660 $670 1 $433 $-1 #
vertex $-1 $357 $671 #
straight-curve $-1 -10 -30 0 0 -1 0 I I #
point $-1 -10 -15 0 #
coedge $-1 $491 $490 $360 $509 0 $492 $-1 #
edge $-1 $668 $510 $508 $672 0 #
vertex $-1 $509 $673 #
ellipse-curve $-1 -45 -45 0 0 0 1 -3.5355339059327373 -3.5355339059327373 0 1 I I #
plane-surface $-1 -10 -30 10 -1 0 0 0 0 1 0 I I I I #
coedge $-1 $488 $502 $490 $663 0 $366 $-1 #
face $-1 $674 $675 $2 $-1 $676 forward single #
loop $-1 $-1 $588 $368 #
plane-surface $-1 0 -20 15 0 -1 0 0 0 -1 0 I I I I #
coedge $-1 $677 $678 $679 $680 1 $369 $-1 #
coedge $-1 $681 $371 $678 $682 0 $250 $-1 #
coedge $-1 $371 $681 $657 $683 1 $250 $-1 #
coedge $-1 $684 $679 $371 $521 0 $675 $-1 #
edge $-1 $685 $686 $520 $687 0 #
coedge $-1 $372 $391 $688 $689 1 $170 $-1 #
coedge $-1 $594 $374 $372 $524 0 $97 $-1 #
edge $-1 $376 $690 $523 $395 0 #
coedge $-1 $691 $378 $373 $526 0 $384 $-1 #
edge $-1 $380 $528 $525 $692 0 #
coedge $-1 $374 $584 $691 $693 0 $97 $-1 #
vertex $-1 $693 $694 #
straight-curve $-1 20 0 20 0 1 0 I I #
point $-1 20 10 20 #
straight-curve $-1 30 -10 10 -1 0 0 I I #
point $-1 20 -10 10 #
coedge $-1 $383 $695 $696 $697 1 $384 $-1 #
face $-1 $698 $384 $2 $-1 $699 forward single #
coedge $-1 $700 $387 $701 $702 0 $36 $-1 #
coedge $-1 $696 $622 $387 $537 1 $461 $-1 #
edge $-1 $538 $703 $387 $704 0 #
vertex $-1 $388 $705 #
straight-curve $-1 15 -10 20 1 0 0 I I #
coedge $-1 $389 $706 $707 $708 0 $36 $-1 #
coedge $-1 $709 $392 $389 $542 1 $546 $-1 #
edge $-1 $710 $394 $389 $711 0 #
coedge $-1 $712 $713 $391 $544 1 $322 $-1 #
edge $-1 $547 $714 $391 $715 0 #
coedge $-1 $392 $709 $712 $716 1 $546 $-1 #
loop $-1 $-1 $392 $717 #
vertex $-1 $716 $718 #
straight-curve $-1 45 10 10 0 0 1 F -25.5 F 25.5 #
point $-1 45 10 20 #
coedge $-1 $719 $453 $396 $551 0 $312 $-1 #
edge $-1 $568 $554 $396 $720 0 #
coedge $-1 $721 $397 $400 $557 1 $451 $-1 #
coedge $-1 $397 $721 $719 $722 1 $451 $-1 #
vertex $-1 $398 $723 #
straight-curve $-1 0 60 20 -1 0 0 I I #
coedge $-1 $400 $399 $724 $725 0 $401 $-1 #
edge $-1 $726 $402 $552 $727 0 #
point $-1 50 60 20 #
coedge $-1 $419 $724 $404 $560 0 $579 $-1 #
edge $-1 $561 $423 $404 $728 0 #
vertex $-1 $725 $729 #
straight-curve $-1 60 50 0 0 0 -1 F -51 F 51 #
face $-1 $572 $579 $2 $-1 $730 reversed single #
plane-surface $-1 60 0 0 -1 0 0 0 0 1 0 I I I I #
coedge $-1 $731 $408 $453 $614 1 $567 $-1 #
coedge $-1 $408 $731 $410 $571 1 $567 $-1 #
loop $-1 $-1 $566 $732 #
vertex $-1 $551 $733 #
straight-curve $-1 -60 0 20 0 -1 0 I I #
coedge $-1 $411 $410 $734 $735 0 $412 $-1 #
edge $-1 $413 $736 $566 $737 0 #
face $-1 $732 $412 $2 $-1 $738 forward single #
point $-1 -60 -50 20 #
coedge $-1 $734 $419 $415 $575 0 $579 $-1 #
edge $-1 $421 $576 $415 $739 0 #
vertex $-1 $575 $740 #
straight-curve $-1 -50 -60 0 0 0 1 F -51 F 51 #
plane-surface $-1 0 -60 0 0 1 0 0 0 1 0 I I I I #
loop $-1 $-1 $419 $563 #
ellipse-curve $-1 50 -50 -20 0 0 1 7.0710678118654746 -7.0710678118654746 0 1 I I #
point $-1 50 -60 -20 #
point $-1 60 -50 -20 #
straight-curve $-1 -10 -15 10 0 0 1 F -25.5 F 25.5 #
coedge $-1 $527 $429 $741 $742 0 $97 $-1 #
coedge $-1 $743 $744 $429 $586 1 $675 $-1 #
edge $-1 $589 $745 $429 $746 0 #
coedge $-1 $747 $430 $432 $592 1 $515 $-1 #
coedge $-1 $430 $747 $743 $748 1 $515 $-1 #
vertex $-1 $431 $749 #
straight-curve $-1 0 -20 20 1 0 0 I I #
coedge $-1 $432 $750 $751 $752 0 $433 $-1 #
edge $-1 $753 $434 $432 $754 0 #
point $-1 -10 -20 20 #
coedge $-1 $439 $523 $755 $756 0 $97 $-1 #
coedge $-1 $757 $758 $439 $596 1 $759 $-1 #
edge $-1 $760 $600 $439 $761 0 #
coedge $-1 $762 $440 $758 $763 1 $599 $-1 #
coedge $-1 $440 $762 $442 $603 1 $599 $-1 #
loop $-1 $-1 $597 $674 #
vertex $-1 $596 $764 #
straight-curve $-1 0 20 20 -1 0 0 I I #
coedge $-1 $605 $442 $765 $766 0 $444 $-1 #
edge $-1 $445 $767 $442 $768 0 #
coedge $-1 $443 $769 $454 $616 0 $444 $-1 #
coedge $-1 $639 $602 $770 $771 0 $444 $-1 #
face $-1 $772 $444 $2 $-1 $773 forward single #
point $-1 -10 20 20 #
vertex $-1 $616 $774 #
straight-curve $-1 -10 15 10 0 0 -1 F -25.5 F 25.5 #
cone-surface $-1 -15 15 10 0 0 -1 3.5355339059327373 -3.5355339059327373 0 1 I I 0 -1 0 I I I I #
face $-1 $775 $776 $2 $-1 $777 forward single #
cone-surface $-1 50 50 0 0 0 -1 7.0710678118654746 7.0710678118654746 0 1 I I 0 1 0 I I I I #
coedge $-1 $453 $719 $778 $779 0 $312 $-1 #
edge $-1 $780 $568 $565 $781 0 #
coedge $-1 $618 $454 $782 $783 0 $316 $-1 #
edge $-1 $784 $608 $604 $785 0 #
ellipse-curve $-1 -15 15 0 0 0 1 3.5355339059327373 -3.5355339059327373 0 1 I I #
coedge $-1 $457 $615 $646 $786 1 $316 $-1 #
edge $-1 $650 $481 $457 $787 0 #
loop $-1 $-1 $788 $460 #
plane-surface $-1 30 -30 0 0 0 1 1 0 0 0 I I I I #
coedge $-1 $536 $789 $790 $791 0 $461 $-1 #
coedge $-1 $630 $463 $632 $792 1 $322 $-1 #
coedge $-1 $463 $712 $793 $794 1 $322 $-1 #
coedge $-1 $795 $796 $463 $626 1 $776 $-1 #
edge $-1 $797 $798 $463 $799 0 #
coedge $-1 $465 $464 $800 $801 0 $216 $-1 #
coedge $-1 $802 $803 $464 $629 0 $36 $-1 #
edge $-1 $804 $636 $628 $805 0 #
coedge $-1 $806 $623 $465 $631 0 $322 $-1 #
edge $-1 $635 $807 $630 $808 0 #
coedge $-1 $809 $466 $623 $792 0 $634 $-1 #
coedge $-1 $466 $809 $802 $810 1 $634 $-1 #
loop $-1 $-1 $809 $655 #
vertex $-1 $631 $811 #
vertex $-1 $810 $812 #
straight-curve $-1 15 50 10 0 0 1 F -25.5 F 25.5 #
coedge $-1 $803 $468 $813 $814 0 $36 $-1 #
coedge $-1 $769 $605 $468 $640 1 $444 $-1 #
edge $-1 $644 $815 $468 $446 0 #
coedge $-1 $782 $469 $472 $647 0 $643 $-1 #
coedge $-1 $469 $782 $769 $816 0 $643 $-1 #
loop $-1 $-1 $642 $698 #
vertex $-1 $640 $817 #
ellipse-curve $-1 -15 45 20 0 0 -1 3.5355339059327373 3.5355339059327373 0 1 I I #
coedge $-1 $472 $471 $618 $786 0 $473 $-1 #
edge $-1 $474 $818 $472 $819 0 #
face $-1 $820 $473 $2 $-1 $821 forward single #
point $-1 -15 50 20 #
vertex $-1 $619 $822 #
straight-curve $-1 -45 50 10 0 0 1 F -25.5 F 25.5 #
cone-surface $-1 -45 45 10 0 0 -1 -3.5355339059327373 3.5355339059327373 0 1 I I 0 -1 0 I I I I #
straight-curve $-1 -50 30 0 0 1 0 I I #
point $-1 -50 45 0 #
face $-1 $823 $634 $2 $-1 $824 forward single #
plane-surface $-1 -30 -50 10 0 1 0 0 0 1 0 I I I I #
coedge $-1 $487 $825 $519 $683 0 $36 $-1 #
coedge $-1 $750 $504 $487 $659 1 $433 $-1 #
edge $-1 $826 $661 $487 $435 0 #
coedge $-1 $502 $488 $504 $670 0 $366 $-1 #
vertex $-1 $659 $827 #
ellipse-curve $-1 -15 -45 20 0 0 -1 3.5355339059327373 -3.5355339059327373 0 1 I I #
edge $-1 $668 $493 $490 $828 0 #
point $-1 -15 -50 20 #
straight-curve $-1 -45 -50 10 0 0 -1 F -25.5 F 25.5 #
cone-surface $-1 -45 -45 10 0 0 -1 -3.5355339059327373 -3.5355339059327373 0 1 I I 0 -1 0 I I I I #
point $-1 -50 -45 0 #
vertex $-1 $503 $829 #
ellipse-curve $-1 -15 -45 0 0 0 1 3.5355339059327373 -3.5355339059327373 0 1 I I #
edge $-1 $661 $505 $504 $830 0 #
point $-1 -10 -45 0 #
straight-curve $-1 -30 -50 0 -1 0 0 I I #
point $-1 -45 -50 0 #
face $-1 $831 $599 $2 $-1 $832 forward single #
loop $-1 $-1 $743 $514 #
plane-surface $-1 10 -30 10 1 0 0 0 0 -1 0 I I I I #
coedge $-1 $751 $517 $747 $833 1 $369 $-1 #
coedge $-1 $517 $751 $518 $682 1 $369 $-1 #
coedge $-1 $520 $743 $517 $680 0 $675 $-1 #
edge $-1 $834 $685 $679 $835 0 #
coedge $-1 $519 $518 $750 $836 1 $250 $-1 #
edge $-1 $685 $837 $518 $838 0 #
edge $-1 $686 $826 $657 $839 0 #
coedge $-1 $840 $520 $825 $841 1 $675 $-1 #
vertex $-1 $680 $842 #
vertex $-1 $841 $843 #
straight-curve $-1 10 -40 12.5 0 0 1 I I #
coedge $-1 $844 $755 $522 $689 0 $845 $-1 #
edge $-1 $690 $714 $522 $846 0 #
vertex $-1 $524 $847 #
coedge $-1 $848 $525 $527 $693 1 $384 $-1 #
straight-curve $-1 20 -10 12.5 0 0 1 I I #
edge $-1 $849 $528 $527 $539 0 #
point $-1 20 -10 20 #
coedge $-1 $533 $848 $850 $851 0 $384 $-1 #
coedge $-1 $789 $536 $533 $697 0 $461 $-1 #
edge $-1 $538 $852 $533 $853 0 #
face $-1 $606 $643 $2 $-1 $854 forward single #
plane-surface $-1 30 -10 10 0 -1 0 0 0 -1 0 I I I I #
coedge $-1 $855 $535 $856 $857 0 $36 $-1 #
coedge $-1 $790 $858 $535 $702 1 $859 $-1 #
edge $-1 $703 $860 $535 $861 0 #
vertex $-1 $702 $862 #
ellipse-curve $-1 45 -15 20 0 0 -1 3.5355339059327373 3.5355339059327373 0 1 I I #
point $-1 45 -10 20 #
coedge $-1 $540 $802 $863 $864 0 $36 $-1 #
coedge $-1 $865 $866 $540 $708 1 $867 $-1 #
edge $-1 $868 $710 $540 $869 0 #
coedge $-1 $545 $541 $866 $870 0 $546 $-1 #
vertex $-1 $708 $871 #
ellipse-curve $-1 45 15 20 0 0 -1 3.5355339059327373 -3.5355339059327373 0 1 I I #
coedge $-1 $624 $543 $545 $716 0 $322 $-1 #
coedge $-1 $543 $806 $844 $872 0 $322 $-1 #
vertex $-1 $544 $873 #
straight-curve $-1 30 10 0 -1 0 0 I I #
edge $-1 $547 $874 $712 $875 0 #
face $-1 $167 $546 $2 $-1 $876 forward single #
point $-1 45 10 0 #
coedge $-1 $613 $550 $553 $722 0 $312 $-1 #
ellipse-curve $-1 -50 50 20 0 0 -1 -7.0710678118654746 7.0710678118654746 0 1 I I #
coedge $-1 $553 $552 $877 $878 1 $451 $-1 #
edge $-1 $554 $879 $553 $880 0 #
point $-1 -50 60 20 #
coedge $-1 $559 $877 $556 $725 1 $579 $-1 #
edge $-1 $561 $726 $724 $881 0 #
vertex $-1 $878 $882 #
straight-curve $-1 50 60 0 0 0 1 F -51 F 51 #
straight-curve $-1 60 0 -20 0 -1 0 I I #
point $-1 60 50 -20 #
plane-surface $-1 0 0 -20 0 0 1 1 0 0 0 I I I I #
coedge $-1 $566 $565 $883 $884 1 $567 $-1 #
face $-1 $140 $567 $2 $-1 $885 reversed single #
point $-1 -60 50 20 #
coedge $-1 $883 $574 $570 $735 1 $579 $-1 #
edge $-1 $736 $576 $734 $886 0 #
vertex $-1 $571 $887 #
straight-curve $-1 -60 -50 0 0 0 -1 F -51 F 51 #
cone-surface $-1 -50 -50 0 0 0 -1 -7.0710678118654746 -7.0710678118654746 0 1 I I 0 1 0 I I I I #
straight-curve $-1 0 -60 -20 -1 0 0 I I #
point $-1 -50 -60 -20 #
coedge $-1 $888 $889 $584 $742 1 $890 $-1 #
edge $-1 $745 $849 $584 $891 0 #
coedge $-1 $679 $585 $588 $748 0 $675 $-1 #
coedge $-1 $585 $892 $888 $893 1 $675 $-1 #
vertex $-1 $586 $894 #
straight-curve $-1 10 -15 20 0 1 0 I I #
coedge $-1 $588 $587 $677 $833 0 $515 $-1 #
edge $-1 $589 $834 $743 $895 0 #
point $-1 10 -20 20 #
coedge $-1 $591 $658 $681 $836 0 $433 $-1 #
coedge $-1 $678 $677 $591 $752 1 $369 $-1 #
edge $-1 $837 $753 $591 $896 0 #
vertex $-1 $752 $897 #
straight-curve $-1 -10 -20 12.5 0 0 1 I I #
coedge $-1 $688 $898 $594 $756 1 $845 $-1 #
edge $-1 $690 $760 $594 $899 0 #
coedge $-1 $900 $595 $898 $901 1 $759 $-1 #
coedge $-1 $595 $902 $597 $763 0 $759 $-1 #
loop $-1 $-1 $903 $904 #
vertex $-1 $596 $905 #
straight-curve $-1 10 15 20 0 1 0 I I #
coedge $-1 $598 $597 $906 $907 0 $599 $-1 #
edge $-1 $908 $600 $758 $909 0 #
point $-1 10 20 20 #
coedge $-1 $906 $910 $602 $766 1 $911 $-1 #
edge $-1 $767 $912 $602 $913 0 #
vertex $-1 $766 $914 #
straight-curve $-1 -10 20 12.5 0 0 -1 I I #
coedge $-1 $604 $639 $642 $816 1 $444 $-1 #
coedge $-1 $915 $813 $605 $771 1 $916 $-1 #
edge $-1 $912 $815 $605 $917 0 #
face $-1 $918 $890 $2 $-1 $919 forward single #
plane-surface $-1 -10 30 10 -1 0 0 0 0 1 0 I I I I #
point $-1 -10 15 0 #
face $-1 $496 $867 $2 $-1 $920 forward single #
loop $-1 $-1 $795 $611 #
cone-surface $-1 45 45 10 0 0 -1 3.5355339059327373 3.5355339059327373 0 1 I I 0 -1 0 I I I I #
coedge $-1 $877 $883 $613 $779 1 $579 $-1 #
edge $-1 $879 $780 $778 $921 0 #
vertex $-1 $884 $922 #
straight-curve $-1 -60 50 0 0 0 1 F -51 F 51 #
coedge $-1 $642 $641 $615 $783 1 $643 $-1 #
edge $-1 $784 $818 $615 $923 0 #
vertex $-1 $783 $924 #
straight-curve $-1 -10 30 0 0 -1 0 I I #
edge $-1 $650 $818 $646 $925 0 #
ellipse-curve $-1 -45 45 0 0 0 1 -3.5355339059327373 3.5355339059327373 0 1 I I #
coedge $-1 $926 $927 $928 $929 0 $620 $-1 #
coedge $-1 $622 $696 $930 $931 1 $461 $-1 #
coedge $-1 $932 $701 $622 $791 1 $859 $-1 #
edge $-1 $933 $703 $790 $934 0 #
edge $-1 $635 $798 $632 $935 0 #
coedge $-1 $866 $865 $624 $794 0 $867 $-1 #
edge $-1 $797 $874 $793 $936 0 #
coedge $-1 $863 $625 $865 $937 0 $776 $-1 #
coedge $-1 $625 $863 $809 $938 0 $776 $-1 #
vertex $-1 $626 $939 #
vertex $-1 $792 $940 #
ellipse-curve $-1 45 45 0 0 0 1 3.5355339059327373 3.5355339059327373 0 1 I I #
coedge $-1 $941 $900 $627 $801 1 $759 $-1 #
edge $-1 $804 $807 $800 $942 0 #
coedge $-1 $706 $628 $633 $810 0 $36 $-1 #
coedge $-1 $628 $638 $941 $943 0 $36 $-1 #
vertex $-1 $943 $944 #
ellipse-curve $-1 15 45 20 0 0 -1 -3.5355339059327373 3.5355339059327373 0 1 I I #
coedge $-1 $713 $630 $900 $945 1 $322 $-1 #
vertex $-1 $945 $946 #
ellipse-curve $-1 15 45 0 0 0 1 -3.5355339059327373 3.5355339059327373 0 1 I I #
coedge $-1 $633 $632 $796 $938 1 $634 $-1 #
edge $-1 $636 $947 $802 $948 0 #
point $-1 15 50 0 #
point $-1 15 50 20 #
coedge $-1 $770 $949 $638 $814 1 $916 $-1 #
edge $-1 $815 $950 $638 $951 0 #
vertex $-1 $640 $952 #
edge $-1 $784 $644 $769 $953 0 #
point $-1 -10 45 20 #
vertex $-1 $786 $954 #
straight-curve $-1 -15 50 10 0 0 -1 F -25.5 F 25.5 #
face $-1 $955 $956 $2 $-1 $957 forward single #
plane-surface $-1 -30 50 10 0 -1 0 0 0 -1 0 I I I I #
point $-1 -45 50 0 #
face $-1 $417 $859 $2 $-1 $958 forward single #
plane-surface $-1 30 50 10 0 -1 0 0 0 -1 0 I I I I #
coedge $-1 $657 $959 $684 $841 0 $36 $-1 #
vertex $-1 $836 $960 #
point $-1 -10 -45 20 #
straight-curve $-1 -15 -50 10 0 0 1 F -25.5 F 25.5 #
point $-1 -15 -50 0 #
straight-curve $-1 -10 -45 10 0 0 -1 F -25.5 F 25.5 #
face $-1 $961 $911 $2 $-1 $962 forward single #
plane-surface $-1 0 20 15 0 1 0 0 0 1 0 I I I I #
edge $-1 $753 $834 $747 $963 0 #
vertex $-1 $680 $964 #
straight-curve $-1 10 -30 10 0 -1 0 I I #
edge $-1 $826 $837 $750 $965 0 #
vertex $-1 $752 $966 #
straight-curve $-1 0 -40 10 -1 0 0 I I #
straight-curve $-1 0 -40 20 -1 0 0 I I #
coedge $-1 $892 $684 $967 $968 1 $675 $-1 #
edge $-1 $969 $686 $825 $746 0 #
point $-1 10 -40 10 #
point $-1 10 -40 20 #
coedge $-1 $898 $688 $713 $872 1 $845 $-1 #
loop $-1 $-1 $898 $918 #
straight-curve $-1 15 10 10 0 0 -1 F -25.5 F 25.5 #
point $-1 15 10 20 #
coedge $-1 $695 $691 $889 $970 1 $384 $-1 #
vertex $-1 $693 $971 #
coedge $-1 $972 $930 $695 $851 1 $620 $-1 #
edge $-1 $973 $852 $695 $974 0 #
vertex $-1 $851 $975 #
straight-curve $-1 45 -10 10 0 0 -1 F -25.5 F 25.5 #
cone-surface $-1 -15 45 10 0 0 -1 3.5355339059327373 3.5355339059327373 0 1 I I 0 -1 0 I I I I #
coedge $-1 $959 $700 $976 $977 0 $36 $-1 #
coedge $-1 $978 $979 $700 $857 1 $956 $-1 #
edge $-1 $860 $980 $700 $981 0 #
coedge $-1 $701 $932 $978 $982 1 $859 $-1 #
loop $-1 $-1 $858 $823 #
vertex $-1 $702 $983 #
straight-curve $-1 50 -15 20 0 -1 0 I I #
point $-1 50 -15 20 #
coedge $-1 $796 $795 $706 $864 1 $776 $-1 #
edge $-1 $947 $868 $706 $984 0 #
coedge $-1 $793 $707 $795 $937 1 $867 $-1 #
coedge $-1 $707 $793 $709 $870 1 $867 $-1 #
loop $-1 $-1 $865 $775 #
vertex $-1 $708 $985 #
straight-curve $-1 50 15 20 0 -1 0 I I #
edge $-1 $710 $874 $866 $986 0 #
point $-1 50 15 20 #
edge $-1 $987 $714 $713 $988 0 #
point $-1 15 10 0 #
vertex $-1 $794 $989 #
ellipse-curve $-1 45 15 0 0 0 1 3.5355339059327373 -3.5355339059327373 0 1 I I #
cone-surface $-1 45 15 10 0 0 -1 3.5355339059327373 -3.5355339059327373 0 1 I I 0 -1 0 I I I I #
coedge $-1 $724 $778 $721 $878 0 $579 $-1 #
edge $-1 $879 $726 $721 $990 0 #
vertex $-1 $722 $991 #
straight-curve $-1 -50 60 0 0 0 -1 F -51 F 51 #
ellipse-curve $-1 50 50 -20 0 0 1 7.0710678118654746 7.0710678118654746 0 1 I I #
point $-1 50 60 -20 #
coedge $-1 $778 $734 $731 $884 0 $579 $-1 #
edge $-1 $736 $780 $731 $992 0 #
plane-surface $-1 -60 0 0 1 0 0 0 0 -1 0 I I I I #
ellipse-curve $-1 -50 -50 -20 0 0 1 -7.0710678118654746 -7.0710678118654746 0 1 I I #
point $-1 -60 -50 -20 #
coedge $-1 $993 $741 $744 $893 0 $890 $-1 #
coedge $-1 $741 $993 $848 $970 0 $890 $-1 #
loop $-1 $-1 $889 $772 #
ellipse-curve $-1 15 -15 20 0 0 -1 -3.5355339059327373 3.5355339059327373 0 1 I I #
coedge $-1 $744 $840 $994 $995 0 $675 $-1 #
edge $-1 $745 $996 $744 $997 0 #
point $-1 10 -15 20 #
straight-curve $-1 10 -20 12.5 0 0 -1 I I #
straight-curve $-1 -10 -30 10 0 1 0 I I #
point $-1 -10 -20 10 #
coedge $-1 $755 $844 $757 $901 0 $845 $-1 #
ellipse-curve $-1 15 15 20 0 0 -1 -3.5355339059327373 -3.5355339059327373 0 1 I I #
coedge $-1 $800 $757 $806 $945 0 $759 $-1 #
edge $-1 $987 $760 $757 $998 0 #
coedge $-1 $758 $903 $999 $1000 0 $759 $-1 #
coedge $-1 $902 $941 $949 $1001 0 $759 $-1 #
face $-1 $291 $759 $2 $-1 $1002 forward single #
point $-1 10 15 20 #
coedge $-1 $999 $765 $762 $907 1 $911 $-1 #
edge $-1 $908 $767 $762 $1003 0 #
vertex $-1 $1000 $1004 #
straight-curve $-1 10 20 12.5 0 0 1 I I #
coedge $-1 $765 $999 $915 $1005 1 $911 $-1 #
loop $-1 $-1 $999 $831 #
vertex $-1 $766 $1006 #
straight-curve $-1 -10 30 10 0 1 0 I I #
point $-1 -10 20 10 #
coedge $-1 $949 $770 $910 $1005 0 $916 $-1 #
loop $-1 $-1 $949 $961 #
straight-curve $-1 -10 40 12.5 0 0 1 I I #
face $-1 $448 $845 $2 $-1 $1007 forward single #
cone-surface $-1 15 -15 10 0 0 -1 -3.5355339059327373 3.5355339059327373 0 1 I I 0 -1 0 I I I I #
plane-surface $-1 50 30 10 -1 0 0 0 0 1 0 I I I I #
ellipse-curve $-1 -50 50 -20 0 0 1 -7.0710678118654746 7.0710678118654746 0 1 I I #
point $-1 -60 50 -20 #
ellipse-curve $-1 -15 45 0 0 0 1 3.5355339059327373 3.5355339059327373 0 1 I I #
point $-1 -10 45 0 #
straight-curve $-1 -30 50 0 1 0 0 I I #
coedge $-1 $930 $788 $932 $1008 1 $620 $-1 #
coedge $-1 $788 $1009 $1010 $1011 1 $620 $-1 #
coedge $-1 $979 $978 $788 $929 1 $956 $-1 #
edge $-1 $1012 $1013 $788 $1014 0 #
coedge $-1 $850 $926 $789 $931 0 $620 $-1 #
edge $-1 $933 $852 $930 $1015 0 #
coedge $-1 $858 $790 $926 $1008 0 $859 $-1 #
vertex $-1 $931 $1016 #
straight-curve $-1 50 -15 10 0 0 1 F -25.5 F 25.5 #
straight-curve $-1 30 50 0 1 0 0 I I #
straight-curve $-1 50 30 0 0 -1 0 I I #
edge $-1 $797 $868 $865 $1017 0 #
edge $-1 $947 $798 $809 $1018 0 #
point $-1 50 45 0 #
point $-1 45 50 0 #
coedge $-1 $903 $800 $803 $943 1 $759 $-1 #
straight-curve $-1 10 45 10 0 0 -1 F -25.5 F 25.5 #
edge $-1 $950 $804 $803 $761 0 #
point $-1 10 45 20 #
edge $-1 $987 $807 $900 $1019 0 #
point $-1 10 45 0 #
vertex $-1 $810 $1020 #
straight-curve $-1 15 50 20 1 0 0 I I #
coedge $-1 $813 $915 $903 $1001 1 $916 $-1 #
vertex $-1 $814 $1021 #
straight-curve $-1 0 40 20 1 0 0 I I #
point $-1 -10 40 20 #
straight-curve $-1 -10 45 10 0 0 1 F -25.5 F 25.5 #
point $-1 -15 50 0 #
face $-1 $1022 $1023 $2 $-1 $1024 forward single #
loop $-1 $-1 $979 $820 #
cone-surface $-1 45 -45 10 0 0 -1 3.5355339059327373 -3.5355339059327373 0 1 I I 0 -1 0 I I I I #
plane-surface $-1 50 -30 10 -1 0 0 0 0 1 0 I I I I #
coedge $-1 $825 $855 $1025 $1026 0 $36 $-1 #
point $-1 -10 -40 20 #
face $-1 $904 $916 $2 $-1 $1027 forward single #
plane-surface $-1 0 30 10 0 0 1 1 0 0 0 I I I I #
straight-curve $-1 0 -20 10 1 0 0 I I #
point $-1 10 -20 10 #
straight-curve $-1 -10 -40 12.5 0 0 -1 I I #
point $-1 -10 -40 10 #
coedge $-1 $1025 $1028 $840 $968 0 $1029 $-1 #
edge $-1 $1030 $969 $840 $1031 0 #
vertex $-1 $841 $1032 #
edge $-1 $973 $849 $848 $1033 0 #
point $-1 15 -10 20 #
coedge $-1 $994 $850 $993 $1034 0 $620 $-1 #
vertex $-1 $1034 $1035 #
straight-curve $-1 30 -10 0 1 0 0 I I #
point $-1 45 -10 0 #
coedge $-1 $1036 $1037 $855 $977 1 $1023 $-1 #
edge $-1 $980 $1038 $855 $1039 0 #
coedge $-1 $928 $856 $858 $982 0 $956 $-1 #
coedge $-1 $856 $928 $1036 $1040 0 $956 $-1 #
vertex $-1 $977 $1041 #
ellipse-curve $-1 45 -45 20 0 0 -1 3.5355339059327373 -3.5355339059327373 0 1 I I #
edge $-1 $860 $1013 $858 $1042 0 #
point $-1 50 -45 20 #
ellipse-curve $-1 45 45 20 0 0 -1 3.5355339059327373 3.5355339059327373 0 1 I I #
point $-1 50 45 20 #
straight-curve $-1 50 15 10 0 0 -1 F -25.5 F 25.5 #
vertex $-1 $872 $1043 #
ellipse-curve $-1 15 15 0 0 0 1 -3.5355339059327373 -3.5355339059327373 0 1 I I #
point $-1 50 15 0 #
straight-curve $-1 0 60 -20 1 0 0 I I #
point $-1 -50 60 -20 #
straight-curve $-1 -60 0 -20 0 1 0 I I #
coedge $-1 $889 $888 $972 $1034 1 $890 $-1 #
coedge $-1 $1009 $972 $892 $995 1 $620 $-1 #
edge $-1 $1030 $996 $892 $1044 0 #
vertex $-1 $995 $1045 #
straight-curve $-1 10 -15 10 0 0 -1 F -25.5 F 25.5 #
straight-curve $-1 10 15 10 0 0 1 F -25.5 F 25.5 #
coedge $-1 $910 $906 $902 $1000 1 $911 $-1 #
edge $-1 $1046 $908 $902 $1047 0 #
edge $-1 $950 $1046 $903 $1048 0 #
plane-surface $-1 10 30 10 1 0 0 0 0 -1 0 I I I I #
straight-curve $-1 0 20 10 -1 0 0 I I #
point $-1 10 20 10 #
edge $-1 $912 $1046 $915 $1049 0 #
point $-1 -10 40 10 #
cone-surface $-1 15 15 10 0 0 -1 -3.5355339059327373 -3.5355339059327373 0 1 I I 0 -1 0 I I I I #
edge $-1 $933 $1013 $932 $1050 0 #
coedge $-1 $927 $994 $1028 $1051 0 $620 $-1 #
coedge $-1 $1037 $1036 $927 $1011 0 $1023 $-1 #
edge $-1 $1012 $1052 $1010 $1053 0 #
vertex $-1 $929 $1054 #
vertex $-1 $1008 $1055 #
ellipse-curve $-1 45 -45 0 0 0 1 3.5355339059327373 -3.5355339059327373 0 1 I I #
ellipse-curve $-1 45 -15 0 0 0 1 3.5355339059327373 3.5355339059327373 0 1 I I #
point $-1 50 -15 0 #
straight-curve $-1 50 45 10 0 0 1 F -25.5 F 25.5 #
straight-curve $-1 45 50 10 0 0 -1 F -25.5 F 25.5 #
straight-curve $-1 10 30 0 0 1 0 I I #
point $-1 45 50 20 #
point $-1 10 40 20 #
face $-1 $717 $1029 $2 $-1 $1056 forward single #
loop $-1 $-1 $1036 $955 #
plane-surface $-1 30 -50 10 0 1 0 0 0 1 0 I I I I #
coedge $-1 $1057 $967 $959 $1026 1 $1029 $-1 #
edge $-1 $1038 $969 $959 $1058 0 #
plane-surface $-1 0 40 15 0 -1 0 0 0 -1 0 I I I I #
coedge $-1 $967 $1057 $1009 $1051 1 $1029 $-1 #
loop $-1 $-1 $967 $1022 #
vertex $-1 $1051 $1059 #
straight-curve $-1 10 -45 10 0 0 1 F -25.5 F 25.5 #
point $-1 10 -45 20 #
straight-curve $-1 15 -10 10 0 0 1 F -25.5 F 25.5 #
edge $-1 $973 $996 $972 $1060 0 #
point $-1 15 -10 0 #
coedge $-1 $1010 $976 $979 $1040 1 $1023 $-1 #
coedge $-1 $976 $1010 $1057 $1061 1 $1023 $-1 #
vertex $-1 $977 $1062 #
straight-curve $-1 15 -50 20 -1 0 0 I I #
edge $-1 $1012 $980 $1036 $1063 0 #
point $-1 45 -50 20 #
straight-curve $-1 50 -45 10 0 0 -1 F -25.5 F 25.5 #
point $-1 10 15 0 #
straight-curve $-1 10 -30 0 0 1 0 I I #
point $-1 10 -15 0 #
vertex $-1 $1000 $1064 #
straight-curve $-1 10 30 10 0 -1 0 I I #
straight-curve $-1 10 40 12.5 0 0 -1 I I #
straight-curve $-1 0 40 10 1 0 0 I I #
straight-curve $-1 50 -30 0 0 -1 0 I I #
edge $-1 $1030 $1052 $1009 $1065 0 #
vertex $-1 $1011 $1066 #
straight-curve $-1 30 -50 0 -1 0 0 I I #
point $-1 45 -50 0 #
point $-1 50 -45 0 #
cone-surface $-1 15 -45 10 0 0 -1 -3.5355339059327373 -3.5355339059327373 0 1 I I 0 -1 0 I I I I #
coedge $-1 $1028 $1025 $1037 $1061 0 $1029 $-1 #
ellipse-curve $-1 15 -45 20 0 0 -1 -3.5355339059327373 -3.5355339059327373 0 1 I I #
point $-1 10 -45 0 #
ellipse-curve $-1 15 -15 0 0 0 1 -3.5355339059327373 3.5355339059327373 0 1 I I #
edge $-1 $1038 $1052 $1037 $1067 0 #
point $-1 15 -50 20 #
straight-curve $-1 45 -50 10 0 0 1 F -25.5 F 25.5 #
point $-1 10 40 10 #
ellipse-curve $-1 15 -45 0 0 0 1 -3.5355339059327373 -3.5355339059327373 0 1 I I #
point $-1 15 -50 0 #
straight-curve $-1 15 -50 10 0 0 -1 F -25.5 F 25.5 #
End-of-ACIS-data 