600 0 1 0           
81 GICL ACIS Healer - Source: /gicl/data5/repository/Heriot_Watt/ex43/ex43.sat - 6 0 18 ACIS 6.0.3 Solaris 24 Sat Apr 13 23:38:25 2002 
1 9.999999999999999547e-07 1.000000000000000036e-10 
body $-1 $1 $-1 $-1 #
lump $-1 $-1 $2 $0 #
shell $-1 $-1 $-1 $3 $-1 $1 #
face $-1 $4 $5 $2 $-1 $6 forward single #
face $-1 $7 $8 $2 $-1 $9 forward single #
loop $-1 $-1 $10 $3 #
plane-surface $-1 -40 0 15 1 0 0 0 0 -1 forward_v I I I I #
face $-1 $11 $12 $2 $-1 $13 forward single #
loop $-1 $-1 $14 $4 #
plane-surface $-1 -30 0 10 0 0 1 1 0 0 forward_v I I I I #
coedge $-1 $15 $16 $17 $18 reversed $5 $-1 #
face $-1 $19 $20 $2 $-1 $21 forward single #
loop $-1 $-1 $22 $7 #
plane-surface $-1 -20 0 15 -1 0 0 0 0 1 forward_v I I I I #
coedge $-1 $23 $24 $25 $26 reversed $8 $-1 #
coedge $-1 $27 $10 $24 $28 forward $5 $-1 #
coedge $-1 $10 $27 $29 $30 reversed $5 $-1 #
coedge $-1 $31 $25 $10 $18 forward $20 $-1 #
edge $-1 $32 -2.5 $33 7.5 $17 $34 forward 7 unknown #
face $-1 $35 $36 $2 $-1 $37 forward single #
loop $-1 $-1 $38 $11 #
plane-surface $-1 -30 -10 10 0 -1 0 0 0 -1 forward_v I I I I #
coedge $-1 $39 $40 $38 $41 reversed $12 $-1 #
coedge $-1 $42 $14 $40 $43 reversed $8 $-1 #
coedge $-1 $14 $42 $15 $28 reversed $8 $-1 #
coedge $-1 $17 $38 $14 $26 forward $20 $-1 #
edge $-1 $44 -10 $32 10 $25 $45 forward 7 unknown #
coedge $-1 $16 $15 $46 $47 reversed $5 $-1 #
edge $-1 $32 -10 $48 10 $15 $49 forward 7 unknown #
coedge $-1 $50 $51 $16 $30 forward $36 $-1 #
edge $-1 $33 -10 $52 10 $29 $53 forward 7 unknown #
coedge $-1 $54 $17 $51 $55 reversed $20 $-1 #
vertex $-1 $26 $56 #
vertex $-1 $55 $57 #
straight-curve $-1 -40 -10 12.5 0 0 1 I I #
face $-1 $58 $59 $2 $-1 $60 forward single #
loop $-1 $61 $29 $19 #
plane-surface $-1 0 0 20 0 0 1 1 0 0 forward_v I I I I #
coedge $-1 $25 $62 $22 $41 forward $20 $-1 #
coedge $-1 $63 $22 $64 $65 reversed $12 $-1 #
coedge $-1 $22 $63 $23 $43 forward $12 $-1 #
edge $-1 $66 -7.5 $44 2.5 $38 $67 forward 7 unknown #
coedge $-1 $24 $23 $68 $69 reversed $8 $-1 #
edge $-1 $70 -10 $44 10 $40 $71 forward 7 unknown #
vertex $-1 $26 $72 #
straight-curve $-1 -30 -10 10 -1 0 0 I I #
coedge $-1 $68 $73 $27 $47 forward $74 $-1 #
edge $-1 $52 -7.5 $48 2.5 $46 $75 forward 7 unknown #
vertex $-1 $69 $76 #
straight-curve $-1 -40 0 10 0 1 0 I I #
coedge $-1 $77 $29 $73 $78 forward $36 $-1 #
coedge $-1 $29 $79 $31 $55 forward $36 $-1 #
vertex $-1 $47 $80 #
straight-curve $-1 -40 0 20 0 1 0 I I #
coedge $-1 $81 $31 $82 $83 reversed $20 $-1 #
edge $-1 $84 -30 $33 -25 $51 $85 forward 7 unknown #
point $-1 -40 -10 10 #
point $-1 -40 -10 20 #
face $-1 $86 $87 $2 $-1 $88 forward single #
loop $-1 $-1 $89 $35 #
plane-surface $-1 40 0 15 -1 0 0 0 0 1 forward_v I I I I #
loop $-1 $-1 $90 $19 #
coedge $-1 $38 $91 $92 $93 reversed $20 $-1 #
coedge $-1 $40 $39 $94 $95 reversed $12 $-1 #
coedge $-1 $92 $96 $39 $65 forward $97 $-1 #
edge $-1 $98 -10 $66 10 $64 $99 forward 7 unknown #
vertex $-1 $65 $100 #
straight-curve $-1 -20 -10 12.5 0 0 -1 I I #
coedge $-1 $94 $46 $42 $69 forward $74 $-1 #
edge $-1 $48 -10 $70 10 $68 $101 forward 7 unknown #
vertex $-1 $69 $102 #
straight-curve $-1 -20 0 10 0 -1 0 I I #
point $-1 -20 -10 10 #
coedge $-1 $46 $103 $50 $78 reversed $74 $-1 #
loop $-1 $-1 $94 $104 #
straight-curve $-1 -40 10 12.5 0 0 -1 I I #
point $-1 -40 10 10 #
coedge $-1 $105 $50 $106 $107 forward $36 $-1 #
edge $-1 $52 25 $108 30 $50 $109 forward 7 unknown #
coedge $-1 $51 $110 $111 $112 forward $36 $-1 #
point $-1 -40 10 20 #
coedge $-1 $91 $54 $113 $114 forward $20 $-1 #
coedge $-1 $111 $115 $54 $83 forward $116 $-1 #
edge $-1 $117 -10 $84 10 $54 $118 forward 7 unknown #
vertex $-1 $55 $119 #
straight-curve $-1 -15 -10 20 1 0 0 I I #
face $-1 $120 $121 $2 $-1 $122 forward single #
loop $-1 $-1 $123 $58 #
plane-surface $-1 30 0 10 0 0 1 1 0 0 forward_v I I I I #
coedge $-1 $124 $125 $126 $127 reversed $59 $-1 #
coedge $-1 $128 $129 $130 $131 reversed $61 $-1 #
coedge $-1 $62 $81 $132 $133 reversed $20 $-1 #
coedge $-1 $134 $64 $62 $93 forward $97 $-1 #
edge $-1 $66 -5 $135 0 $92 $85 forward 7 unknown #
coedge $-1 $136 $68 $63 $95 forward $74 $-1 #
edge $-1 $70 -2.5 $98 7.5 $94 $137 forward 7 unknown #
coedge $-1 $64 $138 $136 $139 forward $97 $-1 #
loop $-1 $-1 $64 $140 #
vertex $-1 $139 $141 #
straight-curve $-1 -20 0 20 0 -1 0 I I #
point $-1 -20 -10 20 #
straight-curve $-1 -30 10 10 1 0 0 I I #
point $-1 -20 10 10 #
coedge $-1 $73 $142 $143 $144 reversed $74 $-1 #
face $-1 $145 $74 $2 $-1 $146 forward single #
coedge $-1 $147 $77 $148 $149 forward $36 $-1 #
coedge $-1 $143 $150 $77 $107 reversed $151 $-1 #
edge $-1 $108 -0.785398163397448279 $152 0.785398163397448279 $77 $153 forward 7 unknown #
vertex $-1 $78 $154 #
straight-curve $-1 -15 10 20 -1 0 0 I I #
coedge $-1 $79 $155 $156 $157 forward $36 $-1 #
coedge $-1 $158 $82 $79 $112 reversed $116 $-1 #
edge $-1 $159 -0.785398163397448279 $84 0.785398163397448279 $79 $160 forward 7 unknown #
coedge $-1 $161 $162 $81 $114 reversed $163 $-1 #
edge $-1 $117 -15 $164 15 $81 $165 forward 7 unknown #
coedge $-1 $82 $158 $161 $166 reversed $116 $-1 #
loop $-1 $-1 $82 $167 #
vertex $-1 $166 $168 #
straight-curve $-1 -45 -10 10 0 0 1 F -25.5 F 25.5 #
point $-1 -45 -10 20 #
face $-1 $169 $170 $2 $-1 $171 forward single #
loop $-1 $-1 $172 $86 #
plane-surface $-1 20 0 15 1 0 0 0 0 -1 forward_v I I I I #
coedge $-1 $173 $174 $175 $176 reversed $87 $-1 #
coedge $-1 $177 $89 $174 $178 forward $59 $-1 #
coedge $-1 $89 $177 $179 $180 reversed $59 $-1 #
coedge $-1 $181 $175 $89 $127 forward $170 $-1 #
edge $-1 $182 -2.5 $183 7.5 $126 $184 forward 7 unknown #
coedge $-1 $185 $90 $186 $187 forward $61 $-1 #
coedge $-1 $90 $188 $189 $190 forward $61 $-1 #
coedge $-1 $191 $192 $90 $131 forward $193 $-1 #
edge $-1 $194 -0.785398163397448279 $195 0.785398163397448279 $90 $196 forward 7 unknown #
coedge $-1 $197 $198 $91 $133 forward $199 $-1 #
edge $-1 $135 -10 $164 10 $91 $200 forward 7 unknown #
coedge $-1 $201 $92 $198 $202 forward $97 $-1 #
vertex $-1 $93 $203 #
coedge $-1 $204 $94 $96 $139 reversed $74 $-1 #
straight-curve $-1 -20 10 12.5 0 0 1 I I #
coedge $-1 $96 $205 $206 $207 forward $97 $-1 #
edge $-1 $208 0 $98 5 $96 $109 forward 7 unknown #
face $-1 $209 $97 $2 $-1 $37 forward single #
point $-1 -20 10 20 #
coedge $-1 $103 $204 $210 $211 forward $74 $-1 #
coedge $-1 $212 $106 $103 $144 forward $151 $-1 #
edge $-1 $108 -10 $213 10 $103 $214 forward 7 unknown #
face $-1 $215 $216 $2 $-1 $217 forward single #
plane-surface $-1 -30 10 10 0 1 0 0 0 1 forward_v I I I I #
coedge $-1 $218 $105 $219 $220 forward $36 $-1 #
coedge $-1 $221 $222 $105 $149 reversed $223 $-1 #
edge $-1 $152 0 $224 30 $105 $225 forward 7 unknown #
coedge $-1 $106 $212 $221 $226 forward $151 $-1 #
loop $-1 $-1 $150 $227 #
vertex $-1 $149 $228 #
ellipse-curve $-1 -45 15 20 0 0 -1 -3.535533905932737309 -3.535533905932737309 0 1 I I #
point $-1 -45 10 20 #
coedge $-1 $110 $229 $230 $231 forward $36 $-1 #
coedge $-1 $232 $233 $110 $157 reversed $234 $-1 #
edge $-1 $235 -30 $159 0 $110 $236 forward 7 unknown #
coedge $-1 $115 $111 $233 $237 forward $116 $-1 #
vertex $-1 $157 $238 #
ellipse-curve $-1 -45 -15 20 0 0 -1 -3.535533905932737309 3.535533905932737309 0 1 I I #
coedge $-1 $239 $113 $115 $166 forward $163 $-1 #
coedge $-1 $113 $240 $197 $241 forward $163 $-1 #
loop $-1 $-1 $242 $243 #
vertex $-1 $114 $244 #
straight-curve $-1 -30 -10 0 1 0 0 I I #
edge $-1 $117 -0.785398163397448279 $245 0.785398163397448279 $161 $246 forward 7 unknown #
face $-1 $247 $116 $2 $-1 $248 forward single #
point $-1 -45 -10 0 #
face $-1 $249 $250 $2 $-1 $251 forward single #
loop $-1 $-1 $252 $120 #
plane-surface $-1 30 10 10 0 1 0 0 0 1 forward_v I I I I #
coedge $-1 $253 $254 $252 $255 reversed $121 $-1 #
coedge $-1 $256 $123 $254 $257 reversed $87 $-1 #
coedge $-1 $123 $256 $124 $178 reversed $87 $-1 #
coedge $-1 $126 $252 $123 $176 forward $170 $-1 #
edge $-1 $258 -10 $182 10 $175 $259 forward 7 unknown #
coedge $-1 $125 $124 $260 $261 reversed $59 $-1 #
edge $-1 $182 -10 $262 10 $124 $263 forward 7 unknown #
coedge $-1 $264 $265 $125 $180 forward $36 $-1 #
edge $-1 $183 -10 $266 10 $179 $267 forward 7 unknown #
coedge $-1 $268 $126 $265 $269 reversed $170 $-1 #
vertex $-1 $176 $270 #
vertex $-1 $269 $271 #
straight-curve $-1 40 10 12.5 0 0 1 I I #
coedge $-1 $272 $128 $273 $274 reversed $61 $-1 #
coedge $-1 $275 $276 $128 $187 reversed $277 $-1 #
edge $-1 $194 -50 $278 50 $186 $279 forward 7 unknown #
coedge $-1 $129 $280 $281 $282 reversed $61 $-1 #
coedge $-1 $283 $284 $129 $190 reversed $285 $-1 #
edge $-1 $286 -50 $195 50 $189 $287 forward 7 unknown #
coedge $-1 $288 $130 $284 $289 forward $193 $-1 #
coedge $-1 $130 $288 $275 $290 forward $193 $-1 #
loop $-1 $-1 $192 $291 #
vertex $-1 $290 $292 #
vertex $-1 $190 $293 #
ellipse-curve $-1 50 -50 20 0 0 -1 7.071067811865474617 -7.071067811865474617 0 1 I I #
coedge $-1 $294 $132 $162 $241 reversed $199 $-1 #
coedge $-1 $132 $294 $134 $202 reversed $199 $-1 #
loop $-1 $-1 $294 $295 #
straight-curve $-1 -15 -10 10 0 0 -1 F -25.5 F 25.5 #
coedge $-1 $296 $134 $297 $298 forward $97 $-1 #
edge $-1 $135 -0.785398163397448279 $299 0.785398163397448279 $134 $300 forward 7 unknown #
point $-1 -15 -10 20 #
coedge $-1 $142 $136 $301 $302 reversed $74 $-1 #
coedge $-1 $138 $303 $304 $305 forward $97 $-1 #
coedge $-1 $306 $301 $138 $207 reversed $307 $-1 #
edge $-1 $308 -0.785398163397448279 $208 0.785398163397448279 $138 $309 forward 7 unknown #
vertex $-1 $139 $310 #
face $-1 $311 $312 $2 $-1 $313 forward single #
coedge $-1 $314 $315 $142 $211 reversed $316 $-1 #
edge $-1 $317 -15 $213 15 $142 $318 forward 7 unknown #
coedge $-1 $150 $143 $315 $319 reversed $151 $-1 #
vertex $-1 $211 $320 #
straight-curve $-1 -45 10 10 0 0 -1 F -25.5 F 25.5 #
face $-1 $321 $322 $2 $-1 $323 forward single #
loop $-1 $-1 $324 $145 #
cone-surface $-1 15 45 10 0 0 -1 -3.535533905932737309 3.535533905932737309 0 1 I I 0 -1 5 forward I I I I #
coedge $-1 $325 $147 $326 $327 forward $36 $-1 #
coedge $-1 $328 $329 $147 $220 reversed $330 $-1 #
edge $-1 $224 -0.785398163397448279 $331 0.785398163397448279 $147 $332 forward 7 unknown #
coedge $-1 $333 $148 $150 $226 reversed $223 $-1 #
coedge $-1 $148 $333 $328 $334 reversed $223 $-1 #
loop $-1 $-1 $222 $335 #
vertex $-1 $149 $336 #
straight-curve $-1 -50 15 20 0 1 0 I I #
edge $-1 $337 -10 $152 10 $221 $338 forward 7 unknown #
face $-1 $339 $151 $2 $-1 $340 forward single #
point $-1 -50 15 20 #
coedge $-1 $155 $341 $342 $343 forward $36 $-1 #
coedge $-1 $344 $345 $155 $231 reversed $346 $-1 #
edge $-1 $347 -0.785398163397448279 $235 0.785398163397448279 $155 $348 forward 7 unknown #
coedge $-1 $349 $156 $345 $350 reversed $234 $-1 #
coedge $-1 $156 $349 $158 $237 reversed $234 $-1 #
loop $-1 $-1 $232 $351 #
vertex $-1 $157 $352 #
straight-curve $-1 -50 -15 20 0 1 0 I I #
edge $-1 $159 -10 $245 10 $233 $353 forward 7 unknown #
point $-1 -50 -15 20 #
coedge $-1 $242 $161 $349 $354 reversed $163 $-1 #
coedge $-1 $162 $355 $356 $357 reversed $163 $-1 #
edge $-1 $358 -0.785398163397448279 $164 0.785398163397448279 $162 $359 forward 7 unknown #
coedge $-1 $360 $239 $361 $362 forward $163 $-1 #
face $-1 $363 $163 $2 $-1 $364 forward single #
point $-1 -15 -10 0 #
vertex $-1 $354 $365 #
ellipse-curve $-1 -45 -15 0 0 0 1 -3.535533905932737309 3.535533905932737309 0 1 I I #
face $-1 $243 $366 $2 $-1 $367 forward single #
cone-surface $-1 -45 -15 10 0 0 -1 -3.535533905932737309 3.535533905932737309 0 1 I I 0 -1 5 forward I I I I #
face $-1 $368 $369 $2 $-1 $370 forward single #
loop $-1 $-1 $371 $169 #
plane-surface $-1 0 -40 15 0 1 0 0 0 1 forward_v I I I I #
coedge $-1 $175 $372 $172 $255 forward $170 $-1 #
coedge $-1 $373 $172 $374 $375 reversed $121 $-1 #
coedge $-1 $172 $373 $173 $257 forward $121 $-1 #
edge $-1 $376 -7.5 $258 2.5 $252 $377 forward 7 unknown #
coedge $-1 $174 $173 $378 $379 reversed $87 $-1 #
edge $-1 $380 -10 $258 10 $254 $381 forward 7 unknown #
vertex $-1 $176 $382 #
straight-curve $-1 30 10 10 1 0 0 I I #
coedge $-1 $378 $383 $177 $261 forward $384 $-1 #
edge $-1 $266 -7.5 $262 2.5 $260 $385 forward 7 unknown #
vertex $-1 $379 $386 #
straight-curve $-1 40 0 10 0 -1 0 I I #
coedge $-1 $387 $179 $383 $388 forward $36 $-1 #
coedge $-1 $179 $389 $181 $269 forward $36 $-1 #
vertex $-1 $261 $390 #
straight-curve $-1 40 0 20 0 -1 0 I I #
coedge $-1 $391 $181 $392 $393 reversed $170 $-1 #
edge $-1 $394 -30 $183 -25 $265 $395 forward 7 unknown #
point $-1 40 10 10 #
point $-1 40 10 20 #
coedge $-1 $396 $185 $397 $398 forward $61 $-1 #
coedge $-1 $399 $400 $185 $274 forward $401 $-1 #
edge $-1 $402 -0.785398163397448279 $278 0.785398163397448279 $185 $403 forward 7 unknown #
coedge $-1 $404 $186 $192 $290 reversed $277 $-1 #
coedge $-1 $186 $404 $399 $405 reversed $277 $-1 #
loop $-1 $-1 $275 $406 #
vertex $-1 $187 $407 #
straight-curve $-1 60 0 20 0 1 0 I I #
coedge $-1 $188 $396 $408 $409 forward $61 $-1 #
coedge $-1 $410 $411 $188 $282 forward $412 $-1 #
edge $-1 $286 -0.785398163397448279 $413 0.785398163397448279 $188 $414 forward 7 unknown #
coedge $-1 $415 $189 $411 $416 reversed $285 $-1 #
coedge $-1 $189 $415 $191 $289 reversed $285 $-1 #
loop $-1 $-1 $284 $417 #
vertex $-1 $282 $418 #
straight-curve $-1 0 -60 20 1 0 0 I I #
coedge $-1 $192 $191 $419 $420 forward $193 $-1 #
edge $-1 $195 -20 $421 20 $284 $422 forward 7 unknown #
edge $-1 $423 -20 $194 20 $275 $424 forward 7 unknown #
face $-1 $406 $193 $2 $-1 $425 forward single #
point $-1 60 -50 20 #
point $-1 50 -60 20 #
coedge $-1 $198 $197 $426 $427 forward $199 $-1 #
face $-1 $335 $199 $2 $-1 $428 forward single #
coedge $-1 $429 $201 $430 $431 forward $97 $-1 #
coedge $-1 $426 $432 $201 $298 reversed $433 $-1 #
edge $-1 $299 0 $434 5 $201 $435 forward 7 unknown #
vertex $-1 $298 $436 #
ellipse-curve $-1 -15 -15 20 0 0 -1 3.535533905932737309 3.535533905932737309 0 1 I I #
coedge $-1 $206 $437 $204 $302 forward $307 $-1 #
edge $-1 $317 -10 $208 10 $204 $438 forward 7 unknown #
coedge $-1 $205 $439 $440 $441 forward $97 $-1 #
coedge $-1 $442 $443 $205 $305 reversed $444 $-1 #
edge $-1 $445 -5 $308 0 $205 $446 forward 7 unknown #
coedge $-1 $437 $206 $443 $447 forward $307 $-1 #
loop $-1 $-1 $301 $448 #
vertex $-1 $305 $449 #
ellipse-curve $-1 -15 15 20 0 0 -1 3.535533905932737309 -3.535533905932737309 0 1 I I #
point $-1 -15 10 20 #
face $-1 $450 $451 $2 $-1 $452 reversed single #
loop $-1 $-1 $453 $209 #
cone-surface $-1 -50 50 0 0 0 -1 -7.071067811865474617 7.071067811865474617 0 1 I I 0 1 10 forward I I I I #
coedge $-1 $454 $210 $437 $455 forward $316 $-1 #
coedge $-1 $210 $456 $212 $319 forward $316 $-1 #
loop $-1 $-1 $457 $339 #
vertex $-1 $455 $458 #
straight-curve $-1 -30 10 0 -1 0 0 I I #
edge $-1 $337 -0.785398163397448279 $213 0.785398163397448279 $315 $459 forward 7 unknown #
point $-1 -45 10 0 #
face $-1 $460 $461 $2 $-1 $462 forward single #
loop $-1 $-1 $463 $215 #
plane-surface $-1 30 30 0 0 0 1 1 0 0 forward_v I I I I #
coedge $-1 $464 $465 $466 $467 forward $216 $-1 #
coedge $-1 $468 $218 $469 $470 forward $36 $-1 #
coedge $-1 $471 $472 $218 $327 reversed $473 $-1 #
edge $-1 $331 -30 $474 0 $218 $475 forward 7 unknown #
coedge $-1 $476 $219 $222 $334 forward $330 $-1 #
coedge $-1 $219 $476 $471 $477 forward $330 $-1 #
loop $-1 $-1 $329 $478 #
vertex $-1 $327 $479 #
ellipse-curve $-1 -45 45 20 0 0 -1 -3.535533905932737309 3.535533905932737309 0 1 I I #
coedge $-1 $222 $221 $456 $480 forward $223 $-1 #
edge $-1 $224 -10 $481 10 $222 $482 forward 7 unknown #
face $-1 $483 $223 $2 $-1 $484 forward single #
point $-1 -50 45 20 #
vertex $-1 $319 $485 #
straight-curve $-1 -50 15 10 0 0 1 F -25.5 F 25.5 #
face $-1 $104 $316 $2 $-1 $486 forward single #
cone-surface $-1 -45 15 10 0 0 -1 -3.535533905932737309 -3.535533905932737309 0 1 I I 0 -1 5 forward I I I I #
coedge $-1 $229 $487 $488 $489 forward $36 $-1 #
coedge $-1 $490 $491 $229 $343 reversed $492 $-1 #
edge $-1 $493 0 $347 30 $229 $494 forward 7 unknown #
coedge $-1 $361 $230 $491 $495 forward $346 $-1 #
coedge $-1 $230 $361 $232 $350 forward $346 $-1 #
loop $-1 $-1 $345 $496 #
vertex $-1 $343 $497 #
ellipse-curve $-1 -45 -45 20 0 0 -1 -3.535533905932737309 -3.535533905932737309 0 1 I I #
coedge $-1 $233 $232 $239 $354 forward $234 $-1 #
edge $-1 $498 -10 $235 10 $232 $499 forward 7 unknown #
face $-1 $478 $234 $2 $-1 $500 forward single #
point $-1 -50 -45 20 #
straight-curve $-1 -50 -15 10 0 0 -1 F -25.5 F 25.5 #
edge $-1 $498 -15 $245 15 $349 $501 forward 7 unknown #
coedge $-1 $240 $360 $502 $503 forward $163 $-1 #
coedge $-1 $504 $426 $240 $357 forward $433 $-1 #
edge $-1 $358 -15 $505 15 $356 $506 forward 7 unknown #
vertex $-1 $241 $507 #
ellipse-curve $-1 -15 -15 0 0 0 1 3.535533905932737309 3.535533905932737309 0 1 I I #
coedge $-1 $355 $242 $508 $509 reversed $163 $-1 #
coedge $-1 $345 $344 $242 $362 reversed $346 $-1 #
edge $-1 $498 -0.785398163397448279 $510 0.785398163397448279 $242 $511 forward 7 unknown #
face $-1 $227 $433 $2 $-1 $512 forward single #
plane-surface $-1 -30 -30 0 0 0 1 1 0 0 forward_v I I I I #
point $-1 -50 -15 0 #
loop $-1 $-1 $513 $247 #
cone-surface $-1 -15 -45 10 0 0 -1 3.535533905932737309 -3.535533905932737309 0 1 I I 0 -1 5 forward I I I I #
face $-1 $514 $515 $2 $-1 $516 forward single #
loop $-1 $-1 $517 $249 #
plane-surface $-1 0 -30 10 0 0 1 1 0 0 forward_v I I I I #
coedge $-1 $518 $519 $520 $521 reversed $250 $-1 #
coedge $-1 $252 $522 $523 $524 reversed $170 $-1 #
coedge $-1 $254 $253 $525 $526 reversed $121 $-1 #
coedge $-1 $523 $527 $253 $375 forward $97 $-1 #
edge $-1 $528 -10 $376 10 $374 $529 forward 7 unknown #
vertex $-1 $375 $530 #
straight-curve $-1 20 10 12.5 0 0 -1 I I #
coedge $-1 $525 $260 $256 $379 forward $384 $-1 #
edge $-1 $262 -10 $380 10 $378 $531 forward 7 unknown #
vertex $-1 $379 $532 #
straight-curve $-1 20 0 10 0 1 0 I I #
point $-1 20 10 10 #
coedge $-1 $260 $533 $264 $388 reversed $384 $-1 #
loop $-1 $-1 $525 $534 #
straight-curve $-1 40 -10 12.5 0 0 -1 I I #
point $-1 40 -10 10 #
coedge $-1 $535 $264 $536 $537 forward $36 $-1 #
edge $-1 $266 25 $538 30 $264 $539 forward 7 unknown #
coedge $-1 $265 $540 $541 $542 forward $36 $-1 #
point $-1 40 -10 20 #
coedge $-1 $522 $268 $543 $544 forward $170 $-1 #
coedge $-1 $541 $545 $268 $393 forward $546 $-1 #
edge $-1 $547 -10 $394 10 $268 $548 forward 7 unknown #
vertex $-1 $269 $549 #
straight-curve $-1 15 10 20 -1 0 0 I I #
coedge $-1 $280 $272 $550 $551 reversed $61 $-1 #
coedge $-1 $552 $553 $272 $398 reversed $451 $-1 #
edge $-1 $402 -50 $554 50 $397 $555 forward 7 unknown #
coedge $-1 $556 $273 $276 $405 forward $401 $-1 #
coedge $-1 $273 $556 $552 $557 forward $401 $-1 #
loop $-1 $-1 $400 $450 #
vertex $-1 $557 $558 #
ellipse-curve $-1 50 50 20 0 0 -1 7.071067811865474617 7.071067811865474617 0 1 I I #
coedge $-1 $276 $275 $559 $560 reversed $277 $-1 #
edge $-1 $278 -20 $561 20 $276 $562 forward 7 unknown #
face $-1 $563 $277 $2 $-1 $564 reversed single #
point $-1 60 50 20 #
coedge $-1 $565 $566 $280 $409 reversed $567 $-1 #
edge $-1 $568 -50 $413 50 $408 $569 forward 7 unknown #
coedge $-1 $570 $281 $566 $571 forward $412 $-1 #
coedge $-1 $281 $570 $283 $416 forward $412 $-1 #
loop $-1 $-1 $411 $572 #
vertex $-1 $409 $573 #
ellipse-curve $-1 -50 -50 20 0 0 -1 -7.071067811865474617 -7.071067811865474617 0 1 I I #
coedge $-1 $284 $283 $574 $575 reversed $285 $-1 #
edge $-1 $576 -20 $286 20 $283 $577 forward 7 unknown #
face $-1 $-1 $285 $2 $-1 $578 reversed single #
point $-1 -50 -60 20 #
coedge $-1 $574 $559 $288 $420 reversed $579 $-1 #
edge $-1 $421 -0.785398163397448279 $423 0.785398163397448279 $419 $580 forward 7 unknown #
vertex $-1 $420 $581 #
straight-curve $-1 50 -60 0 0 0 -1 F -51 F 51 #
vertex $-1 $560 $582 #
straight-curve $-1 60 -50 0 0 0 1 F -51 F 51 #
cone-surface $-1 50 -50 0 0 0 -1 7.071067811865474617 -7.071067811865474617 0 1 I I 0 1 10 forward I I I I #
coedge $-1 $356 $297 $294 $427 reversed $433 $-1 #
edge $-1 $358 -10 $299 10 $426 $583 forward 7 unknown #
cone-surface $-1 -15 -15 10 0 0 -1 3.535533905932737309 3.535533905932737309 0 1 I I 0 -1 5 forward I I I I #
coedge $-1 $584 $296 $585 $586 forward $97 $-1 #
coedge $-1 $587 $588 $296 $431 reversed $515 $-1 #
edge $-1 $434 -10 $589 10 $296 $590 forward 7 unknown #
coedge $-1 $297 $591 $587 $592 forward $433 $-1 #
loop $-1 $-1 $432 $363 #
vertex $-1 $298 $593 #
straight-curve $-1 -10 -15 20 0 -1 0 I I #
point $-1 -10 -15 20 #
coedge $-1 $301 $306 $314 $455 reversed $307 $-1 #
straight-curve $-1 -15 10 10 0 0 1 F -25.5 F 25.5 #
coedge $-1 $303 $594 $595 $596 forward $97 $-1 #
coedge $-1 $597 $598 $303 $441 reversed $599 $-1 #
edge $-1 $600 -10 $445 10 $303 $601 forward 7 unknown #
coedge $-1 $602 $304 $598 $603 forward $444 $-1 #
coedge $-1 $304 $604 $306 $447 reversed $444 $-1 #
loop $-1 $-1 $605 $606 #
vertex $-1 $603 $607 #
straight-curve $-1 -10 15 20 0 -1 0 I I #
edge $-1 $308 -10 $608 10 $443 $609 forward 7 unknown #
face $-1 $295 $307 $2 $-1 $610 forward single #
point $-1 -10 15 20 #
face $-1 $611 $401 $2 $-1 $612 forward single #
loop $-1 $-1 $553 $311 #
plane-surface $-1 0 60 0 0 -1 0 0 0 -1 forward_v I I I I #
coedge $-1 $550 $613 $565 $614 forward $312 $-1 #
coedge $-1 $615 $314 $604 $616 reversed $316 $-1 #
edge $-1 $317 -0.785398163397448279 $608 0.785398163397448279 $314 $617 forward 7 unknown #
coedge $-1 $315 $457 $333 $480 reversed $316 $-1 #
coedge $-1 $456 $618 $476 $619 forward $316 $-1 #
point $-1 -15 10 0 #
ellipse-curve $-1 -45 15 0 0 0 1 -3.535533905932737309 -3.535533905932737309 0 1 I I #
face $-1 $534 $620 $2 $-1 $621 forward single #
loop $-1 $-1 $622 $321 #
cone-surface $-1 45 -15 10 0 0 -1 3.535533905932737309 3.535533905932737309 0 1 I I 0 -1 5 forward I I I I #
coedge $-1 $623 $624 $625 $626 forward $322 $-1 #
coedge $-1 $627 $324 $628 $629 reversed $216 $-1 #
coedge $-1 $324 $627 $630 $631 reversed $216 $-1 #
coedge $-1 $632 $633 $324 $467 reversed $634 $-1 #
edge $-1 $635 -10 $636 10 $466 $637 forward 7 unknown #
coedge $-1 $638 $325 $639 $640 forward $36 $-1 #
coedge $-1 $641 $642 $325 $470 reversed $643 $-1 #
edge $-1 $474 -0.785398163397448279 $644 0.785398163397448279 $325 $645 forward 7 unknown #
coedge $-1 $646 $326 $329 $477 reversed $473 $-1 #
coedge $-1 $326 $646 $641 $647 reversed $473 $-1 #
loop $-1 $-1 $471 $648 #
vertex $-1 $327 $649 #
straight-curve $-1 -15 50 20 1 0 0 I I #
coedge $-1 $329 $328 $457 $619 reversed $330 $-1 #
edge $-1 $650 -10 $331 10 $471 $651 forward 7 unknown #
face $-1 $648 $330 $2 $-1 $652 forward single #
point $-1 -45 50 20 #
edge $-1 $337 -15 $481 15 $333 $653 forward 7 unknown #
vertex $-1 $480 $654 #
straight-curve $-1 -50 45 10 0 0 -1 F -25.5 F 25.5 #
face $-1 $655 $492 $2 $-1 $656 forward single #
plane-surface $-1 -50 30 10 1 0 0 0 0 -1 forward_v I I I I #
point $-1 -50 15 0 #
plane-surface $-1 -30 30 0 0 0 1 1 0 0 forward_v I I I I #
coedge $-1 $341 $657 $658 $659 forward $36 $-1 #
coedge $-1 $660 $513 $341 $489 reversed $366 $-1 #
edge $-1 $661 -0.785398163397448279 $493 0.785398163397448279 $341 $662 forward 7 unknown #
coedge $-1 $508 $342 $513 $663 reversed $492 $-1 #
coedge $-1 $342 $508 $344 $495 reversed $492 $-1 #
loop $-1 $-1 $491 $483 #
vertex $-1 $343 $664 #
straight-curve $-1 -15 -50 20 -1 0 0 I I #
edge $-1 $347 -10 $510 10 $491 $665 forward 7 unknown #
face $-1 $351 $346 $2 $-1 $666 forward single #
point $-1 -45 -50 20 #
vertex $-1 $362 $667 #
straight-curve $-1 -50 -45 10 0 0 1 F -25.5 F 25.5 #
plane-surface $-1 -50 -30 10 1 0 0 0 0 -1 forward_v I I I I #
straight-curve $-1 -50 -30 0 0 1 0 I I #
coedge $-1 $513 $660 $355 $503 reversed $366 $-1 #
edge $-1 $668 -0.785398163397448279 $505 0.785398163397448279 $355 $669 forward 7 unknown #
coedge $-1 $658 $356 $660 $670 reversed $433 $-1 #
vertex $-1 $357 $671 #
straight-curve $-1 -10 -30 0 0 -1 0 I I #
point $-1 -10 -15 0 #
coedge $-1 $491 $490 $360 $509 forward $492 $-1 #
edge $-1 $668 -15 $510 15 $508 $672 forward 7 unknown #
vertex $-1 $509 $673 #
ellipse-curve $-1 -45 -45 0 0 0 1 -3.535533905932737309 -3.535533905932737309 0 1 I I #
plane-surface $-1 -10 -30 10 -1 0 0 0 0 1 forward_v I I I I #
coedge $-1 $488 $502 $490 $663 forward $366 $-1 #
face $-1 $674 $675 $2 $-1 $676 forward single #
loop $-1 $-1 $588 $368 #
plane-surface $-1 0 -20 15 0 -1 0 0 0 -1 forward_v I I I I #
coedge $-1 $677 $678 $679 $680 reversed $369 $-1 #
coedge $-1 $681 $371 $678 $682 forward $250 $-1 #
coedge $-1 $371 $681 $657 $683 reversed $250 $-1 #
coedge $-1 $684 $679 $371 $521 forward $675 $-1 #
edge $-1 $685 -2.5 $686 7.5 $520 $687 forward 7 unknown #
coedge $-1 $372 $391 $688 $689 reversed $170 $-1 #
coedge $-1 $594 $374 $372 $524 forward $97 $-1 #
edge $-1 $376 -5 $690 0 $523 $395 forward 7 unknown #
coedge $-1 $691 $378 $373 $526 forward $384 $-1 #
edge $-1 $380 -2.5 $528 7.5 $525 $692 forward 7 unknown #
coedge $-1 $374 $584 $691 $693 forward $97 $-1 #
vertex $-1 $693 $694 #
straight-curve $-1 20 0 20 0 1 0 I I #
point $-1 20 10 20 #
straight-curve $-1 30 -10 10 -1 0 0 I I #
point $-1 20 -10 10 #
coedge $-1 $383 $695 $696 $697 reversed $384 $-1 #
face $-1 $698 $384 $2 $-1 $699 forward single #
coedge $-1 $700 $387 $701 $702 forward $36 $-1 #
coedge $-1 $696 $622 $387 $537 reversed $461 $-1 #
edge $-1 $538 -0.785398163397448279 $703 0.785398163397448279 $387 $704 forward 7 unknown #
vertex $-1 $388 $705 #
straight-curve $-1 15 -10 20 1 0 0 I I #
coedge $-1 $389 $706 $707 $708 forward $36 $-1 #
coedge $-1 $709 $392 $389 $542 reversed $546 $-1 #
edge $-1 $710 -0.785398163397448279 $394 0.785398163397448279 $389 $711 forward 7 unknown #
coedge $-1 $712 $713 $391 $544 reversed $322 $-1 #
edge $-1 $547 -15 $714 15 $391 $715 forward 7 unknown #
coedge $-1 $392 $709 $712 $716 reversed $546 $-1 #
loop $-1 $-1 $392 $717 #
vertex $-1 $716 $718 #
straight-curve $-1 45 10 10 0 0 1 F -25.5 F 25.5 #
point $-1 45 10 20 #
coedge $-1 $719 $453 $396 $551 forward $312 $-1 #
edge $-1 $568 -0.785398163397448279 $554 0.785398163397448279 $396 $720 forward 7 unknown #
coedge $-1 $721 $397 $400 $557 reversed $451 $-1 #
coedge $-1 $397 $721 $719 $722 reversed $451 $-1 #
vertex $-1 $398 $723 #
straight-curve $-1 0 60 20 -1 0 0 I I #
coedge $-1 $400 $399 $724 $725 forward $401 $-1 #
edge $-1 $726 -20 $402 20 $552 $727 forward 7 unknown #
point $-1 50 60 20 #
coedge $-1 $419 $724 $404 $560 forward $579 $-1 #
edge $-1 $561 -50 $423 50 $404 $728 forward 7 unknown #
vertex $-1 $725 $729 #
straight-curve $-1 60 50 0 0 0 -1 F -51 F 51 #
face $-1 $572 $579 $2 $-1 $730 reversed single #
plane-surface $-1 60 0 0 -1 0 0 0 0 1 forward_v I I I I #
coedge $-1 $731 $408 $453 $614 reversed $567 $-1 #
coedge $-1 $408 $731 $410 $571 reversed $567 $-1 #
loop $-1 $-1 $566 $732 #
vertex $-1 $551 $733 #
straight-curve $-1 -60 0 20 0 -1 0 I I #
coedge $-1 $411 $410 $734 $735 forward $412 $-1 #
edge $-1 $413 -20 $736 20 $566 $737 forward 7 unknown #
face $-1 $732 $412 $2 $-1 $738 forward single #
point $-1 -60 -50 20 #
coedge $-1 $734 $419 $415 $575 forward $579 $-1 #
edge $-1 $421 -50 $576 50 $415 $739 forward 7 unknown #
vertex $-1 $575 $740 #
straight-curve $-1 -50 -60 0 0 0 1 F -51 F 51 #
plane-surface $-1 0 -60 0 0 1 0 0 0 1 forward_v I I I I #
loop $-1 $-1 $419 $563 #
ellipse-curve $-1 50 -50 -20 0 0 1 7.071067811865474617 -7.071067811865474617 0 1 I I #
point $-1 50 -60 -20 #
point $-1 60 -50 -20 #
straight-curve $-1 -10 -15 10 0 0 1 F -25.5 F 25.5 #
coedge $-1 $527 $429 $741 $742 forward $97 $-1 #
coedge $-1 $743 $744 $429 $586 reversed $675 $-1 #
edge $-1 $589 -5 $745 0 $429 $746 forward 7 unknown #
coedge $-1 $747 $430 $432 $592 reversed $515 $-1 #
coedge $-1 $430 $747 $743 $748 reversed $515 $-1 #
vertex $-1 $431 $749 #
straight-curve $-1 0 -20 20 1 0 0 I I #
coedge $-1 $432 $750 $751 $752 forward $433 $-1 #
edge $-1 $753 -2.5 $434 7.5 $432 $754 forward 7 unknown #
point $-1 -10 -20 20 #
coedge $-1 $439 $523 $755 $756 forward $97 $-1 #
coedge $-1 $757 $758 $439 $596 reversed $759 $-1 #
edge $-1 $760 0 $600 5 $439 $761 forward 7 unknown #
coedge $-1 $762 $440 $758 $763 reversed $599 $-1 #
coedge $-1 $440 $762 $442 $603 reversed $599 $-1 #
loop $-1 $-1 $597 $674 #
vertex $-1 $596 $764 #
straight-curve $-1 0 20 20 -1 0 0 I I #
coedge $-1 $605 $442 $765 $766 forward $444 $-1 #
edge $-1 $445 -7.5 $767 2.5 $442 $768 forward 7 unknown #
coedge $-1 $443 $769 $454 $616 forward $444 $-1 #
coedge $-1 $639 $602 $770 $771 forward $444 $-1 #
face $-1 $772 $444 $2 $-1 $773 forward single #
point $-1 -10 20 20 #
vertex $-1 $616 $774 #
straight-curve $-1 -10 15 10 0 0 -1 F -25.5 F 25.5 #
cone-surface $-1 -15 15 10 0 0 -1 3.535533905932737309 -3.535533905932737309 0 1 I I 0 -1 5 forward I I I I #
face $-1 $775 $776 $2 $-1 $777 forward single #
cone-surface $-1 50 50 0 0 0 -1 7.071067811865474617 7.071067811865474617 0 1 I I 0 1 10 forward I I I I #
coedge $-1 $453 $719 $778 $779 forward $312 $-1 #
edge $-1 $780 -20 $568 20 $565 $781 forward 7 unknown #
coedge $-1 $618 $454 $782 $783 forward $316 $-1 #
edge $-1 $784 -15 $608 15 $604 $785 forward 7 unknown #
ellipse-curve $-1 -15 15 0 0 0 1 3.535533905932737309 -3.535533905932737309 0 1 I I #
coedge $-1 $457 $615 $646 $786 reversed $316 $-1 #
edge $-1 $650 -0.785398163397448279 $481 0.785398163397448279 $457 $787 forward 7 unknown #
loop $-1 $-1 $788 $460 #
plane-surface $-1 30 -30 0 0 0 1 1 0 0 forward_v I I I I #
coedge $-1 $536 $789 $790 $791 forward $461 $-1 #
coedge $-1 $630 $463 $632 $792 reversed $322 $-1 #
coedge $-1 $463 $712 $793 $794 reversed $322 $-1 #
coedge $-1 $795 $796 $463 $626 reversed $776 $-1 #
edge $-1 $797 -0.785398163397448279 $798 0.785398163397448279 $463 $799 forward 7 unknown #
coedge $-1 $465 $464 $800 $801 forward $216 $-1 #
coedge $-1 $802 $803 $464 $629 forward $36 $-1 #
edge $-1 $804 -0.785398163397448279 $636 0.785398163397448279 $628 $805 forward 7 unknown #
coedge $-1 $806 $623 $465 $631 forward $322 $-1 #
edge $-1 $635 -0.785398163397448279 $807 0.785398163397448279 $630 $808 forward 7 unknown #
coedge $-1 $809 $466 $623 $792 forward $634 $-1 #
coedge $-1 $466 $809 $802 $810 reversed $634 $-1 #
loop $-1 $-1 $809 $655 #
vertex $-1 $631 $811 #
vertex $-1 $810 $812 #
straight-curve $-1 15 50 10 0 0 1 F -25.5 F 25.5 #
coedge $-1 $803 $468 $813 $814 forward $36 $-1 #
coedge $-1 $769 $605 $468 $640 reversed $444 $-1 #
edge $-1 $644 -30 $815 -25 $468 $446 forward 7 unknown #
coedge $-1 $782 $469 $472 $647 forward $643 $-1 #
coedge $-1 $469 $782 $769 $816 forward $643 $-1 #
loop $-1 $-1 $642 $698 #
vertex $-1 $640 $817 #
ellipse-curve $-1 -15 45 20 0 0 -1 3.535533905932737309 3.535533905932737309 0 1 I I #
coedge $-1 $472 $471 $618 $786 forward $473 $-1 #
edge $-1 $474 -10 $818 10 $472 $819 forward 7 unknown #
face $-1 $820 $473 $2 $-1 $821 forward single #
point $-1 -15 50 20 #
vertex $-1 $619 $822 #
straight-curve $-1 -45 50 10 0 0 1 F -25.5 F 25.5 #
cone-surface $-1 -45 45 10 0 0 -1 -3.535533905932737309 3.535533905932737309 0 1 I I 0 -1 5 forward I I I I #
straight-curve $-1 -50 30 0 0 1 0 I I #
point $-1 -50 45 0 #
face $-1 $823 $634 $2 $-1 $824 forward single #
plane-surface $-1 -30 -50 10 0 1 0 0 0 1 forward_v I I I I #
coedge $-1 $487 $825 $519 $683 forward $36 $-1 #
coedge $-1 $750 $504 $487 $659 reversed $433 $-1 #
edge $-1 $826 25 $661 30 $487 $435 forward 7 unknown #
coedge $-1 $502 $488 $504 $670 forward $366 $-1 #
vertex $-1 $659 $827 #
ellipse-curve $-1 -15 -45 20 0 0 -1 3.535533905932737309 -3.535533905932737309 0 1 I I #
edge $-1 $668 -10 $493 10 $490 $828 forward 7 unknown #
point $-1 -15 -50 20 #
straight-curve $-1 -45 -50 10 0 0 -1 F -25.5 F 25.5 #
cone-surface $-1 -45 -45 10 0 0 -1 -3.535533905932737309 -3.535533905932737309 0 1 I I 0 -1 5 forward I I I I #
point $-1 -50 -45 0 #
vertex $-1 $503 $829 #
ellipse-curve $-1 -15 -45 0 0 0 1 3.535533905932737309 -3.535533905932737309 0 1 I I #
edge $-1 $661 -10 $505 10 $504 $830 forward 7 unknown #
point $-1 -10 -45 0 #
straight-curve $-1 -30 -50 0 -1 0 0 I I #
point $-1 -45 -50 0 #
face $-1 $831 $599 $2 $-1 $832 forward single #
loop $-1 $-1 $743 $514 #
plane-surface $-1 10 -30 10 1 0 0 0 0 -1 forward_v I I I I #
coedge $-1 $751 $517 $747 $833 reversed $369 $-1 #
coedge $-1 $517 $751 $518 $682 reversed $369 $-1 #
coedge $-1 $520 $743 $517 $680 forward $675 $-1 #
edge $-1 $834 -10 $685 10 $679 $835 forward 7 unknown #
coedge $-1 $519 $518 $750 $836 reversed $250 $-1 #
edge $-1 $685 -10 $837 10 $518 $838 forward 7 unknown #
edge $-1 $686 -10 $826 10 $657 $839 forward 7 unknown #
coedge $-1 $840 $520 $825 $841 reversed $675 $-1 #
vertex $-1 $680 $842 #
vertex $-1 $841 $843 #
straight-curve $-1 10 -40 12.5 0 0 1 I I #
coedge $-1 $844 $755 $522 $689 forward $845 $-1 #
edge $-1 $690 -10 $714 10 $522 $846 forward 7 unknown #
vertex $-1 $524 $847 #
coedge $-1 $848 $525 $527 $693 reversed $384 $-1 #
straight-curve $-1 20 -10 12.5 0 0 1 I I #
edge $-1 $849 0 $528 5 $527 $539 forward 7 unknown #
point $-1 20 -10 20 #
coedge $-1 $533 $848 $850 $851 forward $384 $-1 #
coedge $-1 $789 $536 $533 $697 forward $461 $-1 #
edge $-1 $538 -10 $852 10 $533 $853 forward 7 unknown #
face $-1 $606 $643 $2 $-1 $854 forward single #
plane-surface $-1 30 -10 10 0 -1 0 0 0 -1 forward_v I I I I #
coedge $-1 $855 $535 $856 $857 forward $36 $-1 #
coedge $-1 $790 $858 $535 $702 reversed $859 $-1 #
edge $-1 $703 0 $860 30 $535 $861 forward 7 unknown #
vertex $-1 $702 $862 #
ellipse-curve $-1 45 -15 20 0 0 -1 3.535533905932737309 3.535533905932737309 0 1 I I #
point $-1 45 -10 20 #
coedge $-1 $540 $802 $863 $864 forward $36 $-1 #
coedge $-1 $865 $866 $540 $708 reversed $867 $-1 #
edge $-1 $868 -30 $710 0 $540 $869 forward 7 unknown #
coedge $-1 $545 $541 $866 $870 forward $546 $-1 #
vertex $-1 $708 $871 #
ellipse-curve $-1 45 15 20 0 0 -1 3.535533905932737309 -3.535533905932737309 0 1 I I #
coedge $-1 $624 $543 $545 $716 forward $322 $-1 #
coedge $-1 $543 $806 $844 $872 forward $322 $-1 #
vertex $-1 $544 $873 #
straight-curve $-1 30 10 0 -1 0 0 I I #
edge $-1 $547 -0.785398163397448279 $874 0.785398163397448279 $712 $875 forward 7 unknown #
face $-1 $167 $546 $2 $-1 $876 forward single #
point $-1 45 10 0 #
coedge $-1 $613 $550 $553 $722 forward $312 $-1 #
ellipse-curve $-1 -50 50 20 0 0 -1 -7.071067811865474617 7.071067811865474617 0 1 I I #
coedge $-1 $553 $552 $877 $878 reversed $451 $-1 #
edge $-1 $554 -20 $879 20 $553 $880 forward 7 unknown #
point $-1 -50 60 20 #
coedge $-1 $559 $877 $556 $725 reversed $579 $-1 #
edge $-1 $561 -0.785398163397448279 $726 0.785398163397448279 $724 $881 forward 7 unknown #
vertex $-1 $878 $882 #
straight-curve $-1 50 60 0 0 0 1 F -51 F 51 #
straight-curve $-1 60 0 -20 0 -1 0 I I #
point $-1 60 50 -20 #
plane-surface $-1 0 0 -20 0 0 1 1 0 0 forward_v I I I I #
coedge $-1 $566 $565 $883 $884 reversed $567 $-1 #
face $-1 $140 $567 $2 $-1 $885 reversed single #
point $-1 -60 50 20 #
coedge $-1 $883 $574 $570 $735 reversed $579 $-1 #
edge $-1 $736 -0.785398163397448279 $576 0.785398163397448279 $734 $886 forward 7 unknown #
vertex $-1 $571 $887 #
straight-curve $-1 -60 -50 0 0 0 -1 F -51 F 51 #
cone-surface $-1 -50 -50 0 0 0 -1 -7.071067811865474617 -7.071067811865474617 0 1 I I 0 1 10 forward I I I I #
straight-curve $-1 0 -60 -20 -1 0 0 I I #
point $-1 -50 -60 -20 #
coedge $-1 $888 $889 $584 $742 reversed $890 $-1 #
edge $-1 $745 -0.785398163397448279 $849 0.785398163397448279 $584 $891 forward 7 unknown #
coedge $-1 $679 $585 $588 $748 forward $675 $-1 #
coedge $-1 $585 $892 $888 $893 reversed $675 $-1 #
vertex $-1 $586 $894 #
straight-curve $-1 10 -15 20 0 1 0 I I #
coedge $-1 $588 $587 $677 $833 forward $515 $-1 #
edge $-1 $589 -7.5 $834 2.5 $743 $895 forward 7 unknown #
point $-1 10 -20 20 #
coedge $-1 $591 $658 $681 $836 forward $433 $-1 #
coedge $-1 $678 $677 $591 $752 reversed $369 $-1 #
edge $-1 $837 -10 $753 10 $591 $896 forward 7 unknown #
vertex $-1 $752 $897 #
straight-curve $-1 -10 -20 12.5 0 0 1 I I #
coedge $-1 $688 $898 $594 $756 reversed $845 $-1 #
edge $-1 $690 -0.785398163397448279 $760 0.785398163397448279 $594 $899 forward 7 unknown #
coedge $-1 $900 $595 $898 $901 reversed $759 $-1 #
coedge $-1 $595 $902 $597 $763 forward $759 $-1 #
loop $-1 $-1 $903 $904 #
vertex $-1 $596 $905 #
straight-curve $-1 10 15 20 0 1 0 I I #
coedge $-1 $598 $597 $906 $907 forward $599 $-1 #
edge $-1 $908 -2.5 $600 7.5 $758 $909 forward 7 unknown #
point $-1 10 20 20 #
coedge $-1 $906 $910 $602 $766 reversed $911 $-1 #
edge $-1 $767 -10 $912 10 $602 $913 forward 7 unknown #
vertex $-1 $766 $914 #
straight-curve $-1 -10 20 12.5 0 0 -1 I I #
coedge $-1 $604 $639 $642 $816 reversed $444 $-1 #
coedge $-1 $915 $813 $605 $771 reversed $916 $-1 #
edge $-1 $912 -2.5 $815 7.5 $605 $917 forward 7 unknown #
face $-1 $918 $890 $2 $-1 $919 forward single #
plane-surface $-1 -10 30 10 -1 0 0 0 0 1 forward_v I I I I #
point $-1 -10 15 0 #
face $-1 $496 $867 $2 $-1 $920 forward single #
loop $-1 $-1 $795 $611 #
cone-surface $-1 45 45 10 0 0 -1 3.535533905932737309 3.535533905932737309 0 1 I I 0 -1 5 forward I I I I #
coedge $-1 $877 $883 $613 $779 reversed $579 $-1 #
edge $-1 $879 -0.785398163397448279 $780 0.785398163397448279 $778 $921 forward 7 unknown #
vertex $-1 $884 $922 #
straight-curve $-1 -60 50 0 0 0 1 F -51 F 51 #
coedge $-1 $642 $641 $615 $783 reversed $643 $-1 #
edge $-1 $784 -0.785398163397448279 $818 0.785398163397448279 $615 $923 forward 7 unknown #
vertex $-1 $783 $924 #
straight-curve $-1 -10 30 0 0 -1 0 I I #
edge $-1 $650 -15 $818 15 $646 $925 forward 7 unknown #
ellipse-curve $-1 -45 45 0 0 0 1 -3.535533905932737309 3.535533905932737309 0 1 I I #
coedge $-1 $926 $927 $928 $929 forward $620 $-1 #
coedge $-1 $622 $696 $930 $931 reversed $461 $-1 #
coedge $-1 $932 $701 $622 $791 reversed $859 $-1 #
edge $-1 $933 -10 $703 10 $790 $934 forward 7 unknown #
edge $-1 $635 -15 $798 15 $632 $935 forward 7 unknown #
coedge $-1 $866 $865 $624 $794 forward $867 $-1 #
edge $-1 $797 -15 $874 15 $793 $936 forward 7 unknown #
coedge $-1 $863 $625 $865 $937 forward $776 $-1 #
coedge $-1 $625 $863 $809 $938 forward $776 $-1 #
vertex $-1 $626 $939 #
vertex $-1 $792 $940 #
ellipse-curve $-1 45 45 0 0 0 1 3.535533905932737309 3.535533905932737309 0 1 I I #
coedge $-1 $941 $900 $627 $801 reversed $759 $-1 #
edge $-1 $804 -10 $807 10 $800 $942 forward 7 unknown #
coedge $-1 $706 $628 $633 $810 forward $36 $-1 #
coedge $-1 $628 $638 $941 $943 forward $36 $-1 #
vertex $-1 $943 $944 #
ellipse-curve $-1 15 45 20 0 0 -1 -3.535533905932737309 3.535533905932737309 0 1 I I #
coedge $-1 $713 $630 $900 $945 reversed $322 $-1 #
vertex $-1 $945 $946 #
ellipse-curve $-1 15 45 0 0 0 1 -3.535533905932737309 3.535533905932737309 0 1 I I #
coedge $-1 $633 $632 $796 $938 reversed $634 $-1 #
edge $-1 $636 0 $947 30 $802 $948 forward 7 unknown #
point $-1 15 50 0 #
point $-1 15 50 20 #
coedge $-1 $770 $949 $638 $814 reversed $916 $-1 #
edge $-1 $815 -10 $950 10 $638 $951 forward 7 unknown #
vertex $-1 $640 $952 #
edge $-1 $784 -10 $644 10 $769 $953 forward 7 unknown #
point $-1 -10 45 20 #
vertex $-1 $786 $954 #
straight-curve $-1 -15 50 10 0 0 -1 F -25.5 F 25.5 #
face $-1 $955 $956 $2 $-1 $957 forward single #
plane-surface $-1 -30 50 10 0 -1 0 0 0 -1 forward_v I I I I #
point $-1 -45 50 0 #
face $-1 $417 $859 $2 $-1 $958 forward single #
plane-surface $-1 30 50 10 0 -1 0 0 0 -1 forward_v I I I I #
coedge $-1 $657 $959 $684 $841 forward $36 $-1 #
vertex $-1 $836 $960 #
point $-1 -10 -45 20 #
straight-curve $-1 -15 -50 10 0 0 1 F -25.5 F 25.5 #
point $-1 -15 -50 0 #
straight-curve $-1 -10 -45 10 0 0 -1 F -25.5 F 25.5 #
face $-1 $961 $911 $2 $-1 $962 forward single #
plane-surface $-1 0 20 15 0 1 0 0 0 1 forward_v I I I I #
edge $-1 $753 -10 $834 10 $747 $963 forward 7 unknown #
vertex $-1 $680 $964 #
straight-curve $-1 10 -30 10 0 -1 0 I I #
edge $-1 $826 -7.5 $837 2.5 $750 $965 forward 7 unknown #
vertex $-1 $752 $966 #
straight-curve $-1 0 -40 10 -1 0 0 I I #
straight-curve $-1 0 -40 20 -1 0 0 I I #
coedge $-1 $892 $684 $967 $968 reversed $675 $-1 #
edge $-1 $969 -30 $686 -25 $825 $746 forward 7 unknown #
point $-1 10 -40 10 #
point $-1 10 -40 20 #
coedge $-1 $898 $688 $713 $872 reversed $845 $-1 #
loop $-1 $-1 $898 $918 #
straight-curve $-1 15 10 10 0 0 -1 F -25.5 F 25.5 #
point $-1 15 10 20 #
coedge $-1 $695 $691 $889 $970 reversed $384 $-1 #
vertex $-1 $693 $971 #
coedge $-1 $972 $930 $695 $851 reversed $620 $-1 #
edge $-1 $973 -15 $852 15 $695 $974 forward 7 unknown #
vertex $-1 $851 $975 #
straight-curve $-1 45 -10 10 0 0 -1 F -25.5 F 25.5 #
cone-surface $-1 -15 45 10 0 0 -1 3.535533905932737309 3.535533905932737309 0 1 I I 0 -1 5 forward I I I I #
coedge $-1 $959 $700 $976 $977 forward $36 $-1 #
coedge $-1 $978 $979 $700 $857 reversed $956 $-1 #
edge $-1 $860 -0.785398163397448279 $980 0.785398163397448279 $700 $981 forward 7 unknown #
coedge $-1 $701 $932 $978 $982 reversed $859 $-1 #
loop $-1 $-1 $858 $823 #
vertex $-1 $702 $983 #
straight-curve $-1 50 -15 20 0 -1 0 I I #
point $-1 50 -15 20 #
coedge $-1 $796 $795 $706 $864 reversed $776 $-1 #
edge $-1 $947 -0.785398163397448279 $868 0.785398163397448279 $706 $984 forward 7 unknown #
coedge $-1 $793 $707 $795 $937 reversed $867 $-1 #
coedge $-1 $707 $793 $709 $870 reversed $867 $-1 #
loop $-1 $-1 $865 $775 #
vertex $-1 $708 $985 #
straight-curve $-1 50 15 20 0 -1 0 I I #
edge $-1 $710 -10 $874 10 $866 $986 forward 7 unknown #
point $-1 50 15 20 #
edge $-1 $987 -0.785398163397448279 $714 0.785398163397448279 $713 $988 forward 7 unknown #
point $-1 15 10 0 #
vertex $-1 $794 $989 #
ellipse-curve $-1 45 15 0 0 0 1 3.535533905932737309 -3.535533905932737309 0 1 I I #
cone-surface $-1 45 15 10 0 0 -1 3.535533905932737309 -3.535533905932737309 0 1 I I 0 -1 5 forward I I I I #
coedge $-1 $724 $778 $721 $878 forward $579 $-1 #
edge $-1 $879 -50 $726 50 $721 $990 forward 7 unknown #
vertex $-1 $722 $991 #
straight-curve $-1 -50 60 0 0 0 -1 F -51 F 51 #
ellipse-curve $-1 50 50 -20 0 0 1 7.071067811865474617 7.071067811865474617 0 1 I I #
point $-1 50 60 -20 #
coedge $-1 $778 $734 $731 $884 forward $579 $-1 #
edge $-1 $736 -50 $780 50 $731 $992 forward 7 unknown #
plane-surface $-1 -60 0 0 1 0 0 0 0 -1 forward_v I I I I #
ellipse-curve $-1 -50 -50 -20 0 0 1 -7.071067811865474617 -7.071067811865474617 0 1 I I #
point $-1 -60 -50 -20 #
coedge $-1 $993 $741 $744 $893 forward $890 $-1 #
coedge $-1 $741 $993 $848 $970 forward $890 $-1 #
loop $-1 $-1 $889 $772 #
ellipse-curve $-1 15 -15 20 0 0 -1 -3.535533905932737309 3.535533905932737309 0 1 I I #
coedge $-1 $744 $840 $994 $995 forward $675 $-1 #
edge $-1 $745 -10 $996 10 $744 $997 forward 7 unknown #
point $-1 10 -15 20 #
straight-curve $-1 10 -20 12.5 0 0 -1 I I #
straight-curve $-1 -10 -30 10 0 1 0 I I #
point $-1 -10 -20 10 #
coedge $-1 $755 $844 $757 $901 forward $845 $-1 #
ellipse-curve $-1 15 15 20 0 0 -1 -3.535533905932737309 -3.535533905932737309 0 1 I I #
coedge $-1 $800 $757 $806 $945 forward $759 $-1 #
edge $-1 $987 -10 $760 10 $757 $998 forward 7 unknown #
coedge $-1 $758 $903 $999 $1000 forward $759 $-1 #
coedge $-1 $902 $941 $949 $1001 forward $759 $-1 #
face $-1 $291 $759 $2 $-1 $1002 forward single #
point $-1 10 15 20 #
coedge $-1 $999 $765 $762 $907 reversed $911 $-1 #
edge $-1 $908 -10 $767 10 $762 $1003 forward 7 unknown #
vertex $-1 $1000 $1004 #
straight-curve $-1 10 20 12.5 0 0 1 I I #
coedge $-1 $765 $999 $915 $1005 reversed $911 $-1 #
loop $-1 $-1 $999 $831 #
vertex $-1 $766 $1006 #
straight-curve $-1 -10 30 10 0 1 0 I I #
point $-1 -10 20 10 #
coedge $-1 $949 $770 $910 $1005 forward $916 $-1 #
loop $-1 $-1 $949 $961 #
straight-curve $-1 -10 40 12.5 0 0 1 I I #
face $-1 $448 $845 $2 $-1 $1007 forward single #
cone-surface $-1 15 -15 10 0 0 -1 -3.535533905932737309 3.535533905932737309 0 1 I I 0 -1 5 forward I I I I #
plane-surface $-1 50 30 10 -1 0 0 0 0 1 forward_v I I I I #
ellipse-curve $-1 -50 50 -20 0 0 1 -7.071067811865474617 7.071067811865474617 0 1 I I #
point $-1 -60 50 -20 #
ellipse-curve $-1 -15 45 0 0 0 1 3.535533905932737309 3.535533905932737309 0 1 I I #
point $-1 -10 45 0 #
straight-curve $-1 -30 50 0 1 0 0 I I #
coedge $-1 $930 $788 $932 $1008 reversed $620 $-1 #
coedge $-1 $788 $1009 $1010 $1011 reversed $620 $-1 #
coedge $-1 $979 $978 $788 $929 reversed $956 $-1 #
edge $-1 $1012 -0.785398163397448279 $1013 0.785398163397448279 $788 $1014 forward 7 unknown #
coedge $-1 $850 $926 $789 $931 forward $620 $-1 #
edge $-1 $933 -0.785398163397448279 $852 0.785398163397448279 $930 $1015 forward 7 unknown #
coedge $-1 $858 $790 $926 $1008 forward $859 $-1 #
vertex $-1 $931 $1016 #
straight-curve $-1 50 -15 10 0 0 1 F -25.5 F 25.5 #
straight-curve $-1 30 50 0 1 0 0 I I #
straight-curve $-1 50 30 0 0 -1 0 I I #
edge $-1 $797 -10 $868 10 $865 $1017 forward 7 unknown #
edge $-1 $947 -10 $798 10 $809 $1018 forward 7 unknown #
point $-1 50 45 0 #
point $-1 45 50 0 #
coedge $-1 $903 $800 $803 $943 reversed $759 $-1 #
straight-curve $-1 10 45 10 0 0 -1 F -25.5 F 25.5 #
edge $-1 $950 25 $804 30 $803 $761 forward 7 unknown #
point $-1 10 45 20 #
edge $-1 $987 -15 $807 15 $900 $1019 forward 7 unknown #
point $-1 10 45 0 #
vertex $-1 $810 $1020 #
straight-curve $-1 15 50 20 1 0 0 I I #
coedge $-1 $813 $915 $903 $1001 reversed $916 $-1 #
vertex $-1 $814 $1021 #
straight-curve $-1 0 40 20 1 0 0 I I #
point $-1 -10 40 20 #
straight-curve $-1 -10 45 10 0 0 1 F -25.5 F 25.5 #
point $-1 -15 50 0 #
face $-1 $1022 $1023 $2 $-1 $1024 forward single #
loop $-1 $-1 $979 $820 #
cone-surface $-1 45 -45 10 0 0 -1 3.535533905932737309 -3.535533905932737309 0 1 I I 0 -1 5 forward I I I I #
plane-surface $-1 50 -30 10 -1 0 0 0 0 1 forward_v I I I I #
coedge $-1 $825 $855 $1025 $1026 forward $36 $-1 #
point $-1 -10 -40 20 #
face $-1 $904 $916 $2 $-1 $1027 forward single #
plane-surface $-1 0 30 10 0 0 1 1 0 0 forward_v I I I I #
straight-curve $-1 0 -20 10 1 0 0 I I #
point $-1 10 -20 10 #
straight-curve $-1 -10 -40 12.5 0 0 -1 I I #
point $-1 -10 -40 10 #
coedge $-1 $1025 $1028 $840 $968 forward $1029 $-1 #
edge $-1 $1030 -10 $969 10 $840 $1031 forward 7 unknown #
vertex $-1 $841 $1032 #
edge $-1 $973 -10 $849 10 $848 $1033 forward 7 unknown #
point $-1 15 -10 20 #
coedge $-1 $994 $850 $993 $1034 forward $620 $-1 #
vertex $-1 $1034 $1035 #
straight-curve $-1 30 -10 0 1 0 0 I I #
point $-1 45 -10 0 #
coedge $-1 $1036 $1037 $855 $977 reversed $1023 $-1 #
edge $-1 $980 -30 $1038 0 $855 $1039 forward 7 unknown #
coedge $-1 $928 $856 $858 $982 forward $956 $-1 #
coedge $-1 $856 $928 $1036 $1040 forward $956 $-1 #
vertex $-1 $977 $1041 #
ellipse-curve $-1 45 -45 20 0 0 -1 3.535533905932737309 -3.535533905932737309 0 1 I I #
edge $-1 $860 -10 $1013 10 $858 $1042 forward 7 unknown #
point $-1 50 -45 20 #
ellipse-curve $-1 45 45 20 0 0 -1 3.535533905932737309 3.535533905932737309 0 1 I I #
point $-1 50 45 20 #
straight-curve $-1 50 15 10 0 0 -1 F -25.5 F 25.5 #
vertex $-1 $872 $1043 #
ellipse-curve $-1 15 15 0 0 0 1 -3.535533905932737309 -3.535533905932737309 0 1 I I #
point $-1 50 15 0 #
straight-curve $-1 0 60 -20 1 0 0 I I #
point $-1 -50 60 -20 #
straight-curve $-1 -60 0 -20 0 1 0 I I #
coedge $-1 $889 $888 $972 $1034 reversed $890 $-1 #
coedge $-1 $1009 $972 $892 $995 reversed $620 $-1 #
edge $-1 $1030 -15 $996 15 $892 $1044 forward 7 unknown #
vertex $-1 $995 $1045 #
straight-curve $-1 10 -15 10 0 0 -1 F -25.5 F 25.5 #
straight-curve $-1 10 15 10 0 0 1 F -25.5 F 25.5 #
coedge $-1 $910 $906 $902 $1000 reversed $911 $-1 #
edge $-1 $1046 -10 $908 10 $902 $1047 forward 7 unknown #
edge $-1 $950 -7.5 $1046 2.5 $903 $1048 forward 7 unknown #
plane-surface $-1 10 30 10 1 0 0 0 0 -1 forward_v I I I I #
straight-curve $-1 0 20 10 -1 0 0 I I #
point $-1 10 20 10 #
edge $-1 $912 -10 $1046 10 $915 $1049 forward 7 unknown #
point $-1 -10 40 10 #
cone-surface $-1 15 15 10 0 0 -1 -3.535533905932737309 -3.535533905932737309 0 1 I I 0 -1 5 forward I I I I #
edge $-1 $933 -15 $1013 15 $932 $1050 forward 7 unknown #
coedge $-1 $927 $994 $1028 $1051 forward $620 $-1 #
coedge $-1 $1037 $1036 $927 $1011 forward $1023 $-1 #
edge $-1 $1012 -15 $1052 15 $1010 $1053 forward 7 unknown #
vertex $-1 $929 $1054 #
vertex $-1 $1008 $1055 #
ellipse-curve $-1 45 -45 0 0 0 1 3.535533905932737309 -3.535533905932737309 0 1 I I #
ellipse-curve $-1 45 -15 0 0 0 1 3.535533905932737309 3.535533905932737309 0 1 I I #
point $-1 50 -15 0 #
straight-curve $-1 50 45 10 0 0 1 F -25.5 F 25.5 #
straight-curve $-1 45 50 10 0 0 -1 F -25.5 F 25.5 #
straight-curve $-1 10 30 0 0 1 0 I I #
point $-1 45 50 20 #
point $-1 10 40 20 #
face $-1 $717 $1029 $2 $-1 $1056 forward single #
loop $-1 $-1 $1036 $955 #
plane-surface $-1 30 -50 10 0 1 0 0 0 1 forward_v I I I I #
coedge $-1 $1057 $967 $959 $1026 reversed $1029 $-1 #
edge $-1 $1038 -0.785398163397448279 $969 0.785398163397448279 $959 $1058 forward 7 unknown #
plane-surface $-1 0 40 15 0 -1 0 0 0 -1 forward_v I I I I #
coedge $-1 $967 $1057 $1009 $1051 reversed $1029 $-1 #
loop $-1 $-1 $967 $1022 #
vertex $-1 $1051 $1059 #
straight-curve $-1 10 -45 10 0 0 1 F -25.5 F 25.5 #
point $-1 10 -45 20 #
straight-curve $-1 15 -10 10 0 0 1 F -25.5 F 25.5 #
edge $-1 $973 -0.785398163397448279 $996 0.785398163397448279 $972 $1060 forward 7 unknown #
point $-1 15 -10 0 #
coedge $-1 $1010 $976 $979 $1040 reversed $1023 $-1 #
coedge $-1 $976 $1010 $1057 $1061 reversed $1023 $-1 #
vertex $-1 $977 $1062 #
straight-curve $-1 15 -50 20 -1 0 0 I I #
edge $-1 $1012 -10 $980 10 $1036 $1063 forward 7 unknown #
point $-1 45 -50 20 #
straight-curve $-1 50 -45 10 0 0 -1 F -25.5 F 25.5 #
point $-1 10 15 0 #
straight-curve $-1 10 -30 0 0 1 0 I I #
point $-1 10 -15 0 #
vertex $-1 $1000 $1064 #
straight-curve $-1 10 30 10 0 -1 0 I I #
straight-curve $-1 10 40 12.5 0 0 -1 I I #
straight-curve $-1 0 40 10 1 0 0 I I #
straight-curve $-1 50 -30 0 0 -1 0 I I #
edge $-1 $1030 -0.785398163397448279 $1052 0.785398163397448279 $1009 $1065 forward 7 unknown #
vertex $-1 $1011 $1066 #
straight-curve $-1 30 -50 0 -1 0 0 I I #
point $-1 45 -50 0 #
point $-1 50 -45 0 #
cone-surface $-1 15 -45 10 0 0 -1 -3.535533905932737309 -3.535533905932737309 0 1 I I 0 -1 5 forward I I I I #
coedge $-1 $1028 $1025 $1037 $1061 forward $1029 $-1 #
ellipse-curve $-1 15 -45 20 0 0 -1 -3.535533905932737309 -3.535533905932737309 0 1 I I #
point $-1 10 -45 0 #
ellipse-curve $-1 15 -15 0 0 0 1 -3.535533905932737309 3.535533905932737309 0 1 I I #
edge $-1 $1038 -10 $1052 10 $1037 $1067 forward 7 unknown #
point $-1 15 -50 20 #
straight-curve $-1 45 -50 10 0 0 1 F -25.5 F 25.5 #
point $-1 10 40 10 #
ellipse-curve $-1 15 -45 0 0 0 1 -3.535533905932737309 -3.535533905932737309 0 1 I I #
point $-1 15 -50 0 #
straight-curve $-1 15 -50 10 0 0 -1 F -25.5 F 25.5 #
End-of-ACIS-data 