600 0 1 0           
105 GICL ACIS Healer - Source: /gicl/data5/repository/ICEM-CDC/Fixture_Models/StepClamp1/StepClamp1.sat - 6 0 18 ACIS 6.0.3 Solaris 24 Sat Apr 13 23:06:22 2002 
1 9.999999999999999547e-07 1.000000000000000036e-10 
body $-1 $1 $-1 $2 #
lump $-1 $-1 $3 $0 #
transform $-1 1 0 0 0 1 0 0 0 1 0 0 0 1 no_rotate no_reflect no_shear #
shell $-1 $-1 $-1 $4 $-1 $1 #
face $5 $6 $7 $3 $-1 $8 reversed single #
face_name-twe-attrib $-1 $-1 $-1 $4 1 #
face $9 $10 $11 $3 $-1 $12 forward single #
loop $13 $14 $15 $4 #
plane-surface $16 0 0 0 0 0 1 1 0 0 forward_v I I I I #
face_name-twe-attrib $-1 $-1 $-1 $6 2 #
face $17 $18 $19 $3 $-1 $20 forward single #
loop $21 $22 $23 $6 #
plane-surface $24 0 0 0.5 0 0 1 1 0 0 forward_v I I I I #
loop_type-twe-attrib $-1 $-1 $-1 $7 1 #
loop $25 $-1 $26 $4 #
coedge $-1 $27 $28 $29 $30 forward $7 $-1 #
surf-twe-attrib $-1 $-1 $-1 $8 4 #
face_name-twe-attrib $-1 $-1 $-1 $10 3 #
face $31 $32 $33 $3 $-1 $34 forward single #
loop $35 $-1 $36 $10 #
plane-surface $37 0 0 0 -1 0 0 0 0 1 forward_v I I I I #
loop_type-twe-attrib $-1 $-1 $-1 $11 1 #
loop $38 $-1 $39 $6 #
coedge $-1 $40 $41 $42 $43 reversed $11 $-1 #
surf-twe-attrib $-1 $-1 $-1 $12 6 #
loop_type-twe-attrib $-1 $-1 $-1 $14 0 #
coedge $-1 $44 $45 $46 $47 forward $14 $-1 #
coedge $-1 $48 $15 $49 $50 forward $7 $-1 #
coedge $-1 $15 $48 $51 $52 forward $7 $-1 #
coedge $-1 $53 $54 $15 $30 reversed $55 $-1 #
edge $56 $57 -0.8125 $58 0 $29 $59 forward 7 unknown #
face_name-twe-attrib $-1 $-1 $-1 $18 4 #
face $60 $61 $62 $3 $-1 $63 forward single #
loop $64 $-1 $65 $18 #
plane-surface $66 0 -1 0 0 -1 0 0 0 -1 forward_v I I I I #
loop_type-twe-attrib $-1 $-1 $-1 $19 0 #
coedge $-1 $67 $68 $69 $70 reversed $19 $-1 #
surf-twe-attrib $-1 $-1 $-1 $20 10 #
loop_type-twe-attrib $-1 $-1 $-1 $22 0 #
coedge $-1 $71 $72 $73 $74 reversed $22 $-1 #
coedge $-1 $75 $23 $76 $77 reversed $11 $-1 #
coedge $-1 $23 $75 $78 $79 reversed $11 $-1 #
coedge $-1 $54 $53 $23 $43 forward $55 $-1 #
edge $80 $81 -0.8125 $82 0 $42 $83 forward 7 unknown #
coedge $-1 $84 $26 $85 $86 forward $14 $-1 #
coedge $-1 $26 $84 $87 $88 reversed $14 $-1 #
coedge $-1 $89 $90 $26 $47 reversed $62 $-1 #
edge $91 $92 -2.0625 $93 0 $46 $94 forward 7 unknown #
coedge $-1 $28 $27 $95 $96 forward $7 $-1 #
coedge $-1 $97 $98 $27 $50 reversed $99 $-1 #
edge $100 $58 -3.141592653589793116 $101 0 $49 $102 forward 7 unknown #
coedge $-1 $103 $104 $28 $52 reversed $105 $-1 #
edge $106 $107 -3.141592653589793116 $57 0 $51 $108 forward 7 unknown #
coedge $-1 $42 $29 $104 $109 reversed $55 $-1 #
coedge $-1 $29 $42 $97 $110 forward $55 $-1 #
loop $111 $-1 $29 $61 #
edge_name-twe-attrib $-1 $-1 $-1 $30 6 8704 #
vertex $-1 $109 $112 #
vertex $-1 $110 $113 #
straight-curve $114 0.875 -0.28125 0 -1 0 0 I I #
face_name-twe-attrib $-1 $-1 $-1 $32 5 #
face $115 $116 $55 $3 $-1 $117 forward single #
loop $118 $-1 $119 $32 #
plane-surface $120 2.5 0 0 0 1 0 0 0 1 forward_v I I I I #
loop_type-twe-attrib $-1 $-1 $-1 $33 0 #
coedge $-1 $121 $122 $123 $124 reversed $33 $-1 #
surf-twe-attrib $-1 $-1 $-1 $34 18 #
coedge $-1 $125 $36 $126 $127 reversed $19 $-1 #
coedge $-1 $36 $125 $128 $129 forward $19 $-1 #
coedge $-1 $130 $131 $36 $70 forward $132 $-1 #
edge $133 $134 -0.4375 $135 0 $69 $136 forward 7 unknown #
coedge $-1 $137 $39 $138 $139 reversed $22 $-1 #
coedge $-1 $39 $140 $141 $142 forward $22 $-1 #
coedge $-1 $143 $121 $39 $74 forward $33 $-1 #
edge $144 $145 -1.75 $146 0 $73 $147 forward 7 unknown #
coedge $-1 $41 $40 $148 $149 reversed $11 $-1 #
coedge $-1 $104 $103 $40 $77 forward $105 $-1 #
edge $150 $151 -3.141592653589793116 $81 0 $76 $152 forward 7 unknown #
coedge $-1 $98 $97 $41 $79 forward $99 $-1 #
edge $153 $82 -3.141592653589793116 $154 0 $78 $155 forward 7 unknown #
edge_name-twe-attrib $-1 $-1 $-1 $43 7 8704 #
vertex $-1 $109 $156 #
vertex $-1 $110 $157 #
straight-curve $158 0.875 -0.28125 0.5 -1 0 0 I I #
coedge $-1 $45 $44 $159 $160 forward $14 $-1 #
coedge $-1 $161 $162 $44 $86 reversed $163 $-1 #
edge $164 $93 -1 $165 0 $85 $166 forward 7 unknown #
coedge $-1 $131 $130 $45 $88 forward $132 $-1 #
edge $167 $92 -1 $168 0 $87 $169 forward 7 unknown #
coedge $-1 $170 $46 $171 $172 reversed $62 $-1 #
coedge $-1 $46 $173 $161 $174 forward $62 $-1 #
edge_name-twe-attrib $-1 $-1 $-1 $47 4 8704 #
vertex $-1 $175 $176 #
vertex $-1 $174 $177 #
straight-curve $178 2.5 0 0 1 0 0 I I #
coedge $-1 $179 $180 $48 $96 reversed $181 $-1 #
edge $182 $101 -0.8125 $107 0 $95 $183 forward 7 unknown #
coedge $-1 $78 $49 $54 $110 reversed $99 $-1 #
coedge $-1 $49 $78 $179 $184 forward $99 $-1 #
loop $185 $-1 $49 $186 #
edge_name-twe-attrib $-1 $-1 $-1 $50 14 8704 #
vertex $-1 $184 $187 #
ellipse-curve $188 0.875 -0.5 0 0 0 1 0 -0.21875 0 1 I I #
coedge $-1 $76 $51 $180 $189 reversed $105 $-1 #
coedge $-1 $51 $76 $53 $109 forward $105 $-1 #
loop $190 $-1 $51 $116 #
edge_name-twe-attrib $-1 $-1 $-1 $52 8 8704 #
vertex $-1 $189 $191 #
ellipse-curve $192 1.6875 -0.5 0 0 0 1 0 0.21875 0 1 I I #
edge $193 $81 -0.5 $57 0 $104 $194 forward 7 unknown #
edge $195 $82 -0.5 $58 0 $97 $196 forward 7 unknown #
loop_type-twe-attrib $-1 $-1 $-1 $55 0 #
point $-1 1.6875 -0.28125 0 #
point $-1 0.875 -0.28125 0 #
cur-twe-attrib $-1 $-1 $-1 $59 30 #
face_name-twe-attrib $-1 $-1 $-1 $61 6 #
face $197 $198 $105 $3 $-1 $199 reversed single #
plane-surface $200 0.875 -0.28125 0 0 -1 0 0 0 -1 forward_v I I I I #
loop_type-twe-attrib $-1 $-1 $-1 $62 0 #
coedge $-1 $201 $202 $203 $204 forward $62 $-1 #
surf-twe-attrib $-1 $-1 $-1 $63 32 #
coedge $-1 $73 $65 $205 $206 reversed $33 $-1 #
coedge $-1 $65 $207 $208 $209 reversed $33 $-1 #
coedge $-1 $210 $211 $65 $124 forward $212 $-1 #
edge $213 $214 -0.078125 $215 0 $123 $216 forward 7 unknown #
coedge $-1 $68 $67 $140 $217 forward $19 $-1 #
coedge $-1 $218 $141 $67 $127 forward $219 $-1 #
edge $220 $221 -0.25 $134 0 $126 $222 forward 7 unknown #
coedge $-1 $223 $224 $68 $129 reversed $225 $-1 #
edge $226 $227 -0.25 $135 0 $128 $228 forward 7 unknown #
coedge $-1 $87 $69 $224 $175 reversed $132 $-1 #
coedge $-1 $69 $87 $218 $229 reversed $132 $-1 #
loop $230 $-1 $130 $231 #
edge_name-twe-attrib $-1 $-1 $-1 $70 27 8448 #
vertex $-1 $229 $232 #
vertex $-1 $175 $233 #
straight-curve $234 0 -0.28125 0.25 0 1 0 I I #
coedge $-1 $235 $71 $170 $236 reversed $22 $-1 #
coedge $-1 $205 $237 $71 $139 forward $238 $-1 #
edge $239 $240 -1 $145 0 $138 $241 forward 7 unknown #
coedge $-1 $72 $235 $125 $217 reversed $22 $-1 #
coedge $-1 $126 $242 $72 $142 reversed $219 $-1 #
edge $243 $221 -0.5201036555341636003 $146 0 $141 $244 forward 7 unknown #
coedge $-1 $159 $73 $242 $245 forward $33 $-1 #
edge_name-twe-attrib $-1 $-1 $-1 $74 2 8704 #
vertex $-1 $206 $246 #
vertex $-1 $245 $247 #
straight-curve $248 0.4375 -1 0.5 -1 0 0 I I #
coedge $-1 $180 $179 $75 $149 forward $181 $-1 #
edge $249 $154 -0.8125 $151 0 $148 $250 forward 7 unknown #
edge_name-twe-attrib $-1 $-1 $-1 $77 9 8704 #
vertex $-1 $189 $251 #
ellipse-curve $252 1.6875 -0.5 0.5 0 0 1 0 0.21875 0 1 I I #
edge_name-twe-attrib $-1 $-1 $-1 $79 16 8704 #
vertex $-1 $184 $253 #
ellipse-curve $254 0.875 -0.5 0.5 0 0 1 0 -0.21875 0 1 I I #
point $-1 1.6875 -0.28125 0.5 #
point $-1 0.875 -0.28125 0.5 #
cur-twe-attrib $-1 $-1 $-1 $83 43 #
coedge $-1 $255 $143 $84 $160 reversed $33 $-1 #
edge $256 $165 -2.0625 $168 0 $159 $257 forward 7 unknown #
coedge $-1 $258 $85 $90 $174 reversed $163 $-1 #
coedge $-1 $85 $258 $255 $259 forward $163 $-1 #
loop $260 $-1 $258 $261 #
edge_name-twe-attrib $-1 $-1 $-1 $86 48 9216 #
vertex $-1 $259 $262 #
straight-curve $263 2.5 -1 0 0 -1 0 I I #
edge_name-twe-attrib $-1 $-1 $-1 $88 25 8448 #
vertex $-1 $229 $264 #
straight-curve $265 0.4375 -1 0 0 -1 0 I I #
coedge $-1 $202 $89 $137 $236 forward $62 $-1 #
coedge $-1 $224 $223 $89 $172 forward $225 $-1 #
edge $266 $267 -0.5 $92 0 $171 $268 forward 7 unknown #
coedge $-1 $90 $269 $270 $271 forward $62 $-1 #
edge $272 $273 -0.1474059551883844521 $93 0 $161 $274 forward 7 unknown #
edge $275 $92 -0.5770682910193559723 $135 0 $130 $276 forward 7 unknown #
point $-1 0.4375 0 0 #
point $-1 2.5 0 0 #
cur-twe-attrib $-1 $-1 $-1 $94 47 #
coedge $-1 $148 $95 $98 $184 reversed $181 $-1 #
coedge $-1 $95 $148 $103 $189 forward $181 $-1 #
loop $277 $-1 $95 $198 #
edge_name-twe-attrib $-1 $-1 $-1 $96 11 8704 #
straight-curve $278 1.6875 -0.71875 0 1 0 0 I I #
edge $279 $154 -0.5 $101 0 $98 $280 forward 7 unknown #
loop_type-twe-attrib $-1 $-1 $-1 $99 0 #
face $281 $282 $99 $3 $-1 $283 reversed single #
point $-1 0.875 -0.71875 0 #
cur-twe-attrib $-1 $-1 $-1 $102 50 #
edge $284 $151 -0.5 $107 0 $180 $285 forward 7 unknown #
loop_type-twe-attrib $-1 $-1 $-1 $105 0 #
point $-1 1.6875 -0.71875 0 #
cur-twe-attrib $-1 $-1 $-1 $108 52 #
edge_name-twe-attrib $-1 $-1 $-1 $109 10 20480 #
straight-curve $286 1.6875 -0.28125 0 0 0 -1 I I #
edge_name-twe-attrib $-1 $-1 $-1 $110 15 20480 #
straight-curve $287 0.875 -0.28125 0 0 0 -1 I I #
face_name-twe-attrib $-1 $-1 $-1 $116 7 #
face $288 $186 $181 $3 $-1 $289 forward single #
cone-surface $290 1.6875 -0.5 0 0 0 1 0.21875 0 0 1 I I 0 1 0.21875 forward I I I I #
surf-twe-attrib $-1 $-1 $-1 $117 61 #
coedge $-1 $291 $119 $292 $293 forward $62 $-1 #
coedge $-1 $119 $170 $237 $294 forward $62 $-1 #
coedge $-1 $211 $210 $119 $204 reversed $212 $-1 #
edge $295 $296 -0.078125 $297 0 $203 $298 forward 7 unknown #
coedge $-1 $299 $138 $121 $206 forward $238 $-1 #
edge $300 $145 -0.125 $214 0 $205 $301 forward 7 unknown #
coedge $-1 $122 $302 $303 $304 reversed $33 $-1 #
coedge $-1 $305 $306 $122 $209 forward $307 $-1 #
edge $308 $215 -0.125 $309 0 $208 $310 forward 7 unknown #
coedge $-1 $203 $123 $306 $311 reversed $212 $-1 #
coedge $-1 $123 $203 $299 $312 forward $212 $-1 #
loop $313 $-1 $123 $314 #
edge_name-twe-attrib $-1 $-1 $-1 $124 39 8704 #
vertex $-1 $312 $315 #
vertex $-1 $311 $316 #
straight-curve $317 2.265625 -1 0.375 1 0 0 I I #
edge $318 $221 -0.4375 $227 0 $125 $319 forward 7 unknown #
coedge $-1 $242 $126 $131 $229 forward $219 $-1 #
loop $320 $-1 $218 $282 #
edge_name-twe-attrib $-1 $-1 $-1 $127 20 8448 #
vertex $-1 $127 $321 #
straight-curve $322 0 -0.71875 0.25 0 0 -1 I I #
coedge $-1 $171 $128 $235 $323 reversed $225 $-1 #
coedge $-1 $128 $171 $130 $175 forward $225 $-1 #
loop $324 $-1 $224 $325 #
edge_name-twe-attrib $-1 $-1 $-1 $129 21 8448 #
vertex $-1 $129 $326 #
straight-curve $327 0 -0.28125 0.25 0 0 -1 I I #
edge $328 $134 -0.5770682910193559723 $168 0 $131 $329 forward 7 unknown #
loop_type-twe-attrib $-1 $-1 $-1 $132 0 #
face $330 $331 $132 $3 $-1 $332 reversed single #
point $-1 0 -0.71875 0.25 #
point $-1 0 -0.28125 0.25 #
cur-twe-attrib $-1 $-1 $-1 $136 70 #
coedge $-1 $140 $137 $223 $323 forward $22 $-1 #
edge $333 $267 -1.75 $240 0 $170 $334 forward 7 unknown #
coedge $-1 $138 $299 $202 $294 reversed $238 $-1 #
loop $335 $-1 $205 $336 #
edge_name-twe-attrib $-1 $-1 $-1 $139 45 8704 #
vertex $-1 $294 $337 #
straight-curve $338 2.1875 -1 0.5 0 -1 0 I I #
coedge $-1 $141 $218 $143 $245 reversed $219 $-1 #
edge_name-twe-attrib $-1 $-1 $-1 $142 19 8704 #
straight-curve $339 0.4375 -1 0.5 0.8411784753765539913 -0.5407575913134989865 0 I I #
edge $340 $146 -0.5 $168 0 $242 $341 forward 7 unknown #
point $-1 2.1875 -1 0.5 #
point $-1 0.4375 -1 0.5 #
cur-twe-attrib $-1 $-1 $-1 $147 74 #
edge_name-twe-attrib $-1 $-1 $-1 $149 12 8704 #
straight-curve $342 1.6875 -0.71875 0.5 1 0 0 I I #
point $-1 1.6875 -0.71875 0.5 #
cur-twe-attrib $-1 $-1 $-1 $152 77 #
point $-1 0.875 -0.71875 0.5 #
cur-twe-attrib $-1 $-1 $-1 $155 79 #
coedge $-1 $343 $159 $162 $259 reversed $33 $-1 #
edge_name-twe-attrib $-1 $-1 $-1 $160 3 8704 #
straight-curve $344 0.4375 -1 0 -1 0 0 I I #
coedge $-1 $162 $161 $345 $346 forward $163 $-1 #
edge $347 $348 -0.1474059551883844521 $165 0 $162 $349 forward 7 unknown #
loop_type-twe-attrib $-1 $-1 $-1 $163 0 #
face $350 $-1 $163 $3 $-1 $351 reversed single #
point $-1 2.5 -1 0 #
cur-twe-attrib $-1 $-1 $-1 $166 86 #
point $-1 0.4375 -1 0 #
cur-twe-attrib $-1 $-1 $-1 $169 88 #
edge_name-twe-attrib $-1 $-1 $-1 $172 23 8448 #
vertex $-1 $172 $352 #
straight-curve $353 0.4375 0 0 0 0 -1 I I #
coedge $-1 $173 $291 $354 $355 forward $62 $-1 #
coedge $-1 $356 $345 $173 $271 reversed $357 $-1 #
edge $358 $359 -0.078125 $273 0 $270 $360 forward 7 unknown #
edge_name-twe-attrib $-1 $-1 $-1 $174 49 8704 #
vertex $-1 $346 $361 #
straight-curve $362 2.5 0 0 0.5299989400031800413 0 -0.8479983040050880216 I I #
edge_name-twe-attrib $-1 $-1 $-1 $175 24 8448 #
straight-curve $363 0 -0.28125 0.25 -0.7581425055034349825 -0.4873773249664939966 0.4332242888591060215 I I #
loop_type-twe-attrib $-1 $-1 $-1 $181 0 #
cur-twe-attrib $-1 $-1 $-1 $183 96 #
edge_name-twe-attrib $-1 $-1 $-1 $184 17 20480 #
straight-curve $364 0.875 -0.71875 0 0 0 -1 I I #
face_name-twe-attrib $-1 $-1 $-1 $186 9 #
face $365 $325 $219 $3 $-1 $366 reversed single #
cone-surface $367 0.875 -0.5 0 0 0 1 0.21875 0 0 1 I I 0 1 0.21875 forward I I I I #
edge_name-twe-attrib $-1 $-1 $-1 $189 13 20480 #
straight-curve $368 1.6875 -0.71875 0 0 0 -1 I I #
cur-twe-attrib $-1 $-1 $-1 $194 109 #
cur-twe-attrib $-1 $-1 $-1 $196 110 #
face_name-twe-attrib $-1 $-1 $-1 $198 8 #
plane-surface $369 1.6875 -0.71875 0 0 1 0 0 0 1 forward_v I I I I #
surf-twe-attrib $-1 $-1 $-1 $199 116 #
coedge $-1 $269 $201 $370 $371 forward $62 $-1 #
coedge $-1 $306 $305 $201 $293 reversed $307 $-1 #
edge $372 $297 -0.125 $373 0 $292 $374 forward 7 unknown #
edge $375 $240 -0.125 $296 0 $237 $376 forward 7 unknown #
edge_name-twe-attrib $-1 $-1 $-1 $204 41 8704 #
vertex $-1 $312 $377 #
vertex $-1 $311 $378 #
straight-curve $379 2.265625 0 0.375 1 0 0 I I #
coedge $-1 $237 $205 $211 $312 reversed $238 $-1 #
edge_name-twe-attrib $-1 $-1 $-1 $206 42 8704 #
straight-curve $380 2.1875 -1 0.375 0 0 -1 I I #
coedge $-1 $207 $343 $381 $382 reversed $33 $-1 #
coedge $-1 $383 $384 $207 $304 forward $385 $-1 #
edge $386 $309 -0.078125 $387 0 $303 $388 forward 7 unknown #
coedge $-1 $292 $208 $384 $389 reversed $307 $-1 #
coedge $-1 $208 $292 $210 $311 forward $307 $-1 #
loop $390 $-1 $306 $391 #
edge_name-twe-attrib $-1 $-1 $-1 $209 36 8704 #
vertex $-1 $389 $392 #
straight-curve $393 2.265625 -1 0.25 0 0 -1 I I #
edge $394 $297 -1 $215 0 $210 $395 forward 7 unknown #
edge $396 $296 -1 $214 0 $299 $397 forward 7 unknown #
loop_type-twe-attrib $-1 $-1 $-1 $212 0 #
face $398 $336 $212 $3 $-1 $399 reversed single #
point $-1 2.1875 -1 0.375 #
point $-1 2.265625 -1 0.375 #
cur-twe-attrib $-1 $-1 $-1 $216 124 #
edge_name-twe-attrib $-1 $-1 $-1 $217 1 8704 #
straight-curve $400 0 -0.28125 0.5 0 1 0 I I #
loop_type-twe-attrib $-1 $-1 $-1 $219 0 #
point $-1 0 -0.71875 0.5 #
cur-twe-attrib $-1 $-1 $-1 $222 127 #
edge $401 $267 -0.5201036555341636003 $227 0 $223 $402 forward 7 unknown #
loop_type-twe-attrib $-1 $-1 $-1 $225 0 #
face $403 $231 $225 $3 $-1 $404 reversed single #
point $-1 0 -0.28125 0.5 #
cur-twe-attrib $-1 $-1 $-1 $228 129 #
edge_name-twe-attrib $-1 $-1 $-1 $229 26 8448 #
straight-curve $405 0.4375 -1 0 0.7581425055034349825 -0.4873773249664939966 -0.4332242888591060215 I I #
face_name-twe-attrib $-1 $-1 $-1 $231 12 #
face $406 $407 $357 $3 $-1 $408 reversed single #
plane-surface $409 0 -1.100000000000000089 0.25 0.4961389383568340361 0 0.8682431421244590775 0.8682431421244589664 0 -0.4961389383568339806 forward_v I I I I #
edge_name-twe-attrib $-1 $-1 $-1 $236 5 8704 #
straight-curve $410 2.1875 0 0.5 1 0 0 I I #
loop_type-twe-attrib $-1 $-1 $-1 $238 0 #
face $411 $261 $238 $3 $-1 $412 reversed single #
point $-1 2.1875 0 0.5 #
cur-twe-attrib $-1 $-1 $-1 $241 139 #
cur-twe-attrib $-1 $-1 $-1 $244 142 #
edge_name-twe-attrib $-1 $-1 $-1 $245 18 8448 #
straight-curve $413 0.4375 -1 0 0 0 -1 I I #
cur-twe-attrib $-1 $-1 $-1 $250 149 #
coedge $-1 $302 $255 $414 $415 reversed $33 $-1 #
cur-twe-attrib $-1 $-1 $-1 $257 160 #
coedge $-1 $270 $414 $258 $346 reversed $357 $-1 #
edge $416 $273 -1 $348 0 $258 $417 forward 7 unknown #
edge_name-twe-attrib $-1 $-1 $-1 $259 47 8704 #
vertex $-1 $346 $418 #
straight-curve $419 2.5 -1 0 0.5299989400031800413 0 -0.8479983040050880216 I I #
face_name-twe-attrib $-1 $-1 $-1 $261 19 #
plane-surface $420 2.5 -1.100000000000000089 0 -0.8479983040050880216 0 -0.5299989400031800413 -0.5299989400031800413 0 0.8479983040050880216 forward_v I I I I #
point $-1 0.4375 0 0.5 #
cur-twe-attrib $-1 $-1 $-1 $268 172 #
coedge $-1 $421 $422 $269 $355 reversed $423 $-1 #
edge $424 $425 -0.125 $359 0 $354 $426 forward 7 unknown #
coedge $-1 $414 $270 $422 $427 forward $357 $-1 #
loop $428 $-1 $414 $331 #
edge_name-twe-attrib $-1 $-1 $-1 $271 29 8704 #
vertex $-1 $427 $429 #
straight-curve $430 2.421875 0 0.125 1 0 0 I I #
point $-1 2.421875 0 0.125 #
cur-twe-attrib $-1 $-1 $-1 $274 174 #
cur-twe-attrib $-1 $-1 $-1 $276 175 #
cur-twe-attrib $-1 $-1 $-1 $280 184 #
face_name-twe-attrib $-1 $-1 $-1 $282 10 #
plane-surface $431 0.4375 -1 -0.05000000000000000278 0.5407575913134987644 0.8411784753765536582 0 0 0 -1 forward_v I I I I #
surf-twe-attrib $-1 $-1 $-1 $283 186 #
cur-twe-attrib $-1 $-1 $-1 $285 189 #
surf-twe-attrib $-1 $-1 $-1 $289 198 #
coedge $-1 $384 $383 $291 $371 reversed $385 $-1 #
edge $432 $373 -0.078125 $425 0 $370 $433 forward 7 unknown #
edge_name-twe-attrib $-1 $-1 $-1 $293 38 8704 #
vertex $-1 $389 $434 #
straight-curve $435 2.265625 0 0.25 0 0 -1 I I #
edge_name-twe-attrib $-1 $-1 $-1 $294 44 8704 #
straight-curve $436 2.1875 0 0.375 0 0 -1 I I #
point $-1 2.1875 0 0.375 #
point $-1 2.265625 0 0.375 #
cur-twe-attrib $-1 $-1 $-1 $298 204 #
cur-twe-attrib $-1 $-1 $-1 $301 206 #
coedge $-1 $422 $421 $302 $382 forward $423 $-1 #
edge $437 $387 -0.125 $438 0 $381 $439 forward 7 unknown #
coedge $-1 $370 $303 $421 $440 reversed $385 $-1 #
coedge $-1 $303 $370 $305 $389 forward $385 $-1 #
loop $441 $-1 $303 $442 #
edge_name-twe-attrib $-1 $-1 $-1 $304 33 8704 #
vertex $-1 $440 $443 #
straight-curve $444 2.34375 -1 0.25 1 0 0 I I #
edge $445 $373 -1 $309 0 $305 $446 forward 7 unknown #
loop_type-twe-attrib $-1 $-1 $-1 $307 0 #
face $447 $314 $307 $3 $-1 $448 reversed single #
point $-1 2.265625 -1 0.25 #
cur-twe-attrib $-1 $-1 $-1 $310 209 #
edge_name-twe-attrib $-1 $-1 $-1 $311 40 8704 #
straight-curve $449 2.265625 -1 0.375 0 -1 0 I I #
edge_name-twe-attrib $-1 $-1 $-1 $312 43 4608 #
straight-curve $450 2.1875 -1 0.375 0 -1 0 I I #
face_name-twe-attrib $-1 $-1 $-1 $314 17 #
plane-surface $451 2.265625 -1.100000000000000089 0.375 0 0 -1 -1 0 0 forward_v I I I I #
cur-twe-attrib $-1 $-1 $-1 $319 217 #
edge_name-twe-attrib $-1 $-1 $-1 $323 22 8704 #
straight-curve $452 0 -0.28125 0.5 -0.8411784753765539913 -0.5407575913134989865 0 I I #
face_name-twe-attrib $-1 $-1 $-1 $325 11 #
plane-surface $453 0 -0.28125 -0.05000000000000000278 0.5407575913134987644 -0.8411784753765536582 0 0 0 -1 forward_v I I I I #
cur-twe-attrib $-1 $-1 $-1 $329 229 #
face_name-twe-attrib $-1 $-1 $-1 $331 13 #
face $454 $442 $423 $3 $-1 $455 reversed single #
plane-surface $456 2.421875 -1.100000000000000089 0.125 0 0 -1 -1 0 0 forward_v I I I I #
surf-twe-attrib $-1 $-1 $-1 $332 231 #
cur-twe-attrib $-1 $-1 $-1 $334 236 #
face_name-twe-attrib $-1 $-1 $-1 $336 18 #
plane-surface $457 2.1875 -1.100000000000000089 0.375 -1 0 0 0 0 1 forward_v I I I I #
cur-twe-attrib $-1 $-1 $-1 $341 245 #
coedge $-1 $345 $356 $343 $415 forward $357 $-1 #
edge $458 $438 -0.078125 $348 0 $414 $459 forward 7 unknown #
edge_name-twe-attrib $-1 $-1 $-1 $346 46 8448 #
straight-curve $460 2.421875 -1 0.125 0 -1 0 I I #
point $-1 2.421875 -1 0.125 #
cur-twe-attrib $-1 $-1 $-1 $349 259 #
surf-twe-attrib $-1 $-1 $-1 $351 261 #
coedge $-1 $381 $354 $383 $440 forward $423 $-1 #
coedge $-1 $354 $381 $356 $427 reversed $423 $-1 #
loop $461 $-1 $421 $407 #
edge_name-twe-attrib $-1 $-1 $-1 $355 32 8704 #
vertex $-1 $440 $462 #
straight-curve $463 2.34375 0 0.125 0 0 -1 I I #
edge $464 $359 -1 $438 0 $422 $465 forward 7 unknown #
loop_type-twe-attrib $-1 $-1 $-1 $357 0 #
point $-1 2.34375 0 0.125 #
cur-twe-attrib $-1 $-1 $-1 $360 271 #
surf-twe-attrib $-1 $-1 $-1 $366 282 #
edge_name-twe-attrib $-1 $-1 $-1 $371 35 8704 #
straight-curve $466 2.34375 0 0.25 1 0 0 I I #
point $-1 2.265625 0 0.25 #
cur-twe-attrib $-1 $-1 $-1 $374 293 #
cur-twe-attrib $-1 $-1 $-1 $376 294 #
edge_name-twe-attrib $-1 $-1 $-1 $382 30 8704 #
vertex $-1 $427 $467 #
straight-curve $468 2.34375 -1 0.125 0 0 -1 I I #
edge $469 $425 -1 $387 0 $383 $470 forward 7 unknown #
loop_type-twe-attrib $-1 $-1 $-1 $385 0 #
face $471 $391 $385 $3 $-1 $472 reversed single #
point $-1 2.34375 -1 0.25 #
cur-twe-attrib $-1 $-1 $-1 $388 304 #
edge_name-twe-attrib $-1 $-1 $-1 $389 37 4608 #
straight-curve $473 2.265625 -1 0.25 0 -1 0 I I #
face_name-twe-attrib $-1 $-1 $-1 $391 16 #
plane-surface $474 2.265625 -1.100000000000000089 0.25 -1 0 0 0 0 1 forward_v I I I I #
cur-twe-attrib $-1 $-1 $-1 $395 311 #
cur-twe-attrib $-1 $-1 $-1 $397 312 #
surf-twe-attrib $-1 $-1 $-1 $399 314 #
cur-twe-attrib $-1 $-1 $-1 $402 323 #
surf-twe-attrib $-1 $-1 $-1 $404 325 #
face_name-twe-attrib $-1 $-1 $-1 $407 14 #
plane-surface $475 2.34375 -1.100000000000000089 0.125 -1 0 0 0 0 1 forward_v I I I I #
surf-twe-attrib $-1 $-1 $-1 $408 331 #
surf-twe-attrib $-1 $-1 $-1 $412 336 #
edge_name-twe-attrib $-1 $-1 $-1 $415 28 8704 #
straight-curve $476 2.421875 -1 0.125 1 0 0 I I #
cur-twe-attrib $-1 $-1 $-1 $417 346 #
loop_type-twe-attrib $-1 $-1 $-1 $423 0 #
point $-1 2.34375 0 0.25 #
cur-twe-attrib $-1 $-1 $-1 $426 355 #
edge_name-twe-attrib $-1 $-1 $-1 $427 31 4608 #
straight-curve $477 2.34375 -1 0.125 0 -1 0 I I #
cur-twe-attrib $-1 $-1 $-1 $433 371 #
point $-1 2.34375 -1 0.125 #
cur-twe-attrib $-1 $-1 $-1 $439 382 #
edge_name-twe-attrib $-1 $-1 $-1 $440 34 8704 #
straight-curve $478 2.34375 -1 0.25 0 -1 0 I I #
face_name-twe-attrib $-1 $-1 $-1 $442 15 #
plane-surface $479 2.34375 -1.100000000000000089 0.25 0 0 -1 -1 0 0 forward_v I I I I #
cur-twe-attrib $-1 $-1 $-1 $446 389 #
surf-twe-attrib $-1 $-1 $-1 $448 391 #
surf-twe-attrib $-1 $-1 $-1 $455 407 #
cur-twe-attrib $-1 $-1 $-1 $459 415 #
cur-twe-attrib $-1 $-1 $-1 $465 427 #
cur-twe-attrib $-1 $-1 $-1 $470 440 #
surf-twe-attrib $-1 $-1 $-1 $472 442 #
End-of-ACIS-data 