104 480 0 0                             
body $-1 $1 $-1 $2 #
lump $-1 $-1 $3 $0 #
transform $-1 1 0 0 0 1 0 0 0 1 0 0 0 1 0 0 0 #
shell $-1 $-1 $-1 $4 $1 #
face $5 $6 $7 $3 $-1 $8 1 #
face_name-twe-attrib $-1 $-1 $-1 $4 1 #
face $9 $10 $11 $3 $-1 $12 0 #
loop $13 $14 $15 $4 #
plane-surface $16 0 0 0 0 0 1 1 0 0 0 #
face_name-twe-attrib $-1 $-1 $-1 $6 2 #
face $17 $18 $19 $3 $-1 $20 0 #
loop $21 $22 $23 $6 #
plane-surface $24 0 0 0.5 0 0 1 1 0 0 0 #
loop_type-twe-attrib $-1 $-1 $-1 $7 1 #
loop $25 $-1 $26 $4 #
coedge $-1 $27 $28 $29 $30 0 $7 $-1 #
surf-twe-attrib $-1 $-1 $-1 $8 4 #
face_name-twe-attrib $-1 $-1 $-1 $10 3 #
face $31 $32 $33 $3 $-1 $34 0 #
loop $35 $-1 $36 $10 #
plane-surface $37 0 0 0 -1 0 0 0 0 1 0 #
loop_type-twe-attrib $-1 $-1 $-1 $11 1 #
loop $38 $-1 $39 $6 #
coedge $-1 $40 $41 $42 $43 1 $11 $-1 #
surf-twe-attrib $-1 $-1 $-1 $12 6 #
loop_type-twe-attrib $-1 $-1 $-1 $14 0 #
coedge $-1 $44 $45 $46 $47 0 $14 $-1 #
coedge $-1 $48 $15 $49 $50 0 $7 $-1 #
coedge $-1 $15 $48 $51 $52 0 $7 $-1 #
coedge $-1 $53 $54 $15 $30 1 $55 $-1 #
edge $56 $57 $58 $29 $59 0 #
face_name-twe-attrib $-1 $-1 $-1 $18 4 #
face $60 $61 $62 $3 $-1 $63 0 #
loop $64 $-1 $65 $18 #
plane-surface $66 0 -1 0 0 -1 0 0 0 -1 0 #
loop_type-twe-attrib $-1 $-1 $-1 $19 0 #
coedge $-1 $67 $68 $69 $70 1 $19 $-1 #
surf-twe-attrib $-1 $-1 $-1 $20 10 #
loop_type-twe-attrib $-1 $-1 $-1 $22 0 #
coedge $-1 $71 $72 $73 $74 1 $22 $-1 #
coedge $-1 $75 $23 $76 $77 1 $11 $-1 #
coedge $-1 $23 $75 $78 $79 1 $11 $-1 #
coedge $-1 $54 $53 $23 $43 0 $55 $-1 #
edge $80 $81 $82 $42 $83 0 #
coedge $-1 $84 $26 $85 $86 0 $14 $-1 #
coedge $-1 $26 $84 $87 $88 1 $14 $-1 #
coedge $-1 $89 $90 $26 $47 1 $62 $-1 #
edge $91 $92 $93 $46 $94 0 #
coedge $-1 $28 $27 $95 $96 0 $7 $-1 #
coedge $-1 $97 $98 $27 $50 1 $99 $-1 #
edge $100 $58 $101 $49 $102 0 #
coedge $-1 $103 $104 $28 $52 1 $105 $-1 #
edge $106 $107 $57 $51 $108 0 #
coedge $-1 $42 $29 $104 $109 1 $55 $-1 #
coedge $-1 $29 $42 $97 $110 0 $55 $-1 #
loop $111 $-1 $29 $61 #
edge_name-twe-attrib $-1 $-1 $-1 $30 6 8704 #
vertex $-1 $109 $112 #
vertex $-1 $110 $113 #
straight-curve $114 0.875 -0.28125 0 -1 0 0 #
face_name-twe-attrib $-1 $-1 $-1 $32 5 #
face $115 $116 $55 $3 $-1 $117 0 #
loop $118 $-1 $119 $32 #
plane-surface $120 2.5 0 0 0 1 0 0 0 1 0 #
loop_type-twe-attrib $-1 $-1 $-1 $33 0 #
coedge $-1 $121 $122 $123 $124 1 $33 $-1 #
surf-twe-attrib $-1 $-1 $-1 $34 18 #
coedge $-1 $125 $36 $126 $127 1 $19 $-1 #
coedge $-1 $36 $125 $128 $129 0 $19 $-1 #
coedge $-1 $130 $131 $36 $70 0 $132 $-1 #
edge $133 $134 $135 $69 $136 0 #
coedge $-1 $137 $39 $138 $139 1 $22 $-1 #
coedge $-1 $39 $140 $141 $142 0 $22 $-1 #
coedge $-1 $143 $121 $39 $74 0 $33 $-1 #
edge $144 $145 $146 $73 $147 0 #
coedge $-1 $41 $40 $148 $149 1 $11 $-1 #
coedge $-1 $104 $103 $40 $77 0 $105 $-1 #
edge $150 $151 $81 $76 $152 0 #
coedge $-1 $98 $97 $41 $79 0 $99 $-1 #
edge $153 $82 $154 $78 $155 0 #
edge_name-twe-attrib $-1 $-1 $-1 $43 7 8704 #
vertex $-1 $109 $156 #
vertex $-1 $110 $157 #
straight-curve $158 0.875 -0.28125 0.5 -1 0 0 #
coedge $-1 $45 $44 $159 $160 0 $14 $-1 #
coedge $-1 $161 $162 $44 $86 1 $163 $-1 #
edge $164 $93 $165 $85 $166 0 #
coedge $-1 $131 $130 $45 $88 0 $132 $-1 #
edge $167 $92 $168 $87 $169 0 #
coedge $-1 $170 $46 $171 $172 1 $62 $-1 #
coedge $-1 $46 $173 $161 $174 0 $62 $-1 #
edge_name-twe-attrib $-1 $-1 $-1 $47 4 8704 #
vertex $-1 $175 $176 #
vertex $-1 $174 $177 #
straight-curve $178 2.5 0 0 1 0 0 #
coedge $-1 $179 $180 $48 $96 1 $181 $-1 #
edge $182 $101 $107 $95 $183 0 #
coedge $-1 $78 $49 $54 $110 1 $99 $-1 #
coedge $-1 $49 $78 $179 $184 0 $99 $-1 #
loop $185 $-1 $49 $186 #
edge_name-twe-attrib $-1 $-1 $-1 $50 14 8704 #
vertex $-1 $184 $187 #
ellipse-curve $188 0.875 -0.5 0 0 0 1 0 -0.21875 0 1 #
coedge $-1 $76 $51 $180 $189 1 $105 $-1 #
coedge $-1 $51 $76 $53 $109 0 $105 $-1 #
loop $190 $-1 $51 $116 #
edge_name-twe-attrib $-1 $-1 $-1 $52 8 8704 #
vertex $-1 $189 $191 #
ellipse-curve $192 1.6875 -0.5 0 0 0 1 0 0.21875 0 1 #
edge $193 $81 $57 $104 $194 0 #
edge $195 $82 $58 $97 $196 0 #
loop_type-twe-attrib $-1 $-1 $-1 $55 0 #
point $-1 1.6875 -0.28125 0 #
point $-1 0.875 -0.28125 0 #
cur-twe-attrib $-1 $-1 $-1 $59 30 #
face_name-twe-attrib $-1 $-1 $-1 $61 6 #
face $197 $198 $105 $3 $-1 $199 1 #
plane-surface $200 0.875 -0.28125 0 0 -1 0 0 0 -1 0 #
loop_type-twe-attrib $-1 $-1 $-1 $62 0 #
coedge $-1 $201 $202 $203 $204 0 $62 $-1 #
surf-twe-attrib $-1 $-1 $-1 $63 32 #
coedge $-1 $73 $65 $205 $206 1 $33 $-1 #
coedge $-1 $65 $207 $208 $209 1 $33 $-1 #
coedge $-1 $210 $211 $65 $124 0 $212 $-1 #
edge $213 $214 $215 $123 $216 0 #
coedge $-1 $68 $67 $140 $217 0 $19 $-1 #
coedge $-1 $218 $141 $67 $127 0 $219 $-1 #
edge $220 $221 $134 $126 $222 0 #
coedge $-1 $223 $224 $68 $129 1 $225 $-1 #
edge $226 $227 $135 $128 $228 0 #
coedge $-1 $87 $69 $224 $175 1 $132 $-1 #
coedge $-1 $69 $87 $218 $229 1 $132 $-1 #
loop $230 $-1 $130 $231 #
edge_name-twe-attrib $-1 $-1 $-1 $70 27 8448 #
vertex $-1 $229 $232 #
vertex $-1 $175 $233 #
straight-curve $234 0 -0.28125 0.25 0 1 0 #
coedge $-1 $235 $71 $170 $236 1 $22 $-1 #
coedge $-1 $205 $237 $71 $139 0 $238 $-1 #
edge $239 $240 $145 $138 $241 0 #
coedge $-1 $72 $235 $125 $217 1 $22 $-1 #
coedge $-1 $126 $242 $72 $142 1 $219 $-1 #
edge $243 $221 $146 $141 $244 0 #
coedge $-1 $159 $73 $242 $245 0 $33 $-1 #
edge_name-twe-attrib $-1 $-1 $-1 $74 2 8704 #
vertex $-1 $206 $246 #
vertex $-1 $245 $247 #
straight-curve $248 0.4375 -1 0.5 -1 0 0 #
coedge $-1 $180 $179 $75 $149 0 $181 $-1 #
edge $249 $154 $151 $148 $250 0 #
edge_name-twe-attrib $-1 $-1 $-1 $77 9 8704 #
vertex $-1 $189 $251 #
ellipse-curve $252 1.6875 -0.5 0.5 0 0 1 0 0.21875 0 1 #
edge_name-twe-attrib $-1 $-1 $-1 $79 16 8704 #
vertex $-1 $184 $253 #
ellipse-curve $254 0.875 -0.5 0.5 0 0 1 0 -0.21875 0 1 #
point $-1 1.6875 -0.28125 0.5 #
point $-1 0.875 -0.28125 0.5 #
cur-twe-attrib $-1 $-1 $-1 $83 43 #
coedge $-1 $255 $143 $84 $160 1 $33 $-1 #
edge $256 $165 $168 $159 $257 0 #
coedge $-1 $258 $85 $90 $174 1 $163 $-1 #
coedge $-1 $85 $258 $255 $259 0 $163 $-1 #
loop $260 $-1 $258 $261 #
edge_name-twe-attrib $-1 $-1 $-1 $86 48 9216 #
vertex $-1 $259 $262 #
straight-curve $263 2.5 -1 0 0 -1 0 #
edge_name-twe-attrib $-1 $-1 $-1 $88 25 8448 #
vertex $-1 $229 $264 #
straight-curve $265 0.4375 -1 0 0 -1 0 #
coedge $-1 $202 $89 $137 $236 0 $62 $-1 #
coedge $-1 $224 $223 $89 $172 0 $225 $-1 #
edge $266 $267 $92 $171 $268 0 #
coedge $-1 $90 $269 $270 $271 0 $62 $-1 #
edge $272 $273 $93 $161 $274 0 #
edge $275 $92 $135 $130 $276 0 #
point $-1 0.4375 0 0 #
point $-1 2.5 0 0 #
cur-twe-attrib $-1 $-1 $-1 $94 47 #
coedge $-1 $148 $95 $98 $184 1 $181 $-1 #
coedge $-1 $95 $148 $103 $189 0 $181 $-1 #
loop $277 $-1 $95 $198 #
edge_name-twe-attrib $-1 $-1 $-1 $96 11 8704 #
straight-curve $278 1.6875 -0.71875 0 1 0 0 #
edge $279 $154 $101 $98 $280 0 #
loop_type-twe-attrib $-1 $-1 $-1 $99 0 #
face $281 $282 $99 $3 $-1 $283 1 #
point $-1 0.875 -0.71875 0 #
cur-twe-attrib $-1 $-1 $-1 $102 50 #
edge $284 $151 $107 $180 $285 0 #
loop_type-twe-attrib $-1 $-1 $-1 $105 0 #
point $-1 1.6875 -0.71875 0 #
cur-twe-attrib $-1 $-1 $-1 $108 52 #
edge_name-twe-attrib $-1 $-1 $-1 $109 10 20480 #
straight-curve $286 1.6875 -0.28125 0 0 0 -1 #
edge_name-twe-attrib $-1 $-1 $-1 $110 15 20480 #
straight-curve $287 0.875 -0.28125 0 0 0 -1 #
face_name-twe-attrib $-1 $-1 $-1 $116 7 #
face $288 $186 $181 $3 $-1 $289 0 #
cone-surface $290 1.6875 -0.5 0 0 0 1 0.21875 0 0 1 0 1 0 #
surf-twe-attrib $-1 $-1 $-1 $117 61 #
coedge $-1 $291 $119 $292 $293 0 $62 $-1 #
coedge $-1 $119 $170 $237 $294 0 $62 $-1 #
coedge $-1 $211 $210 $119 $204 1 $212 $-1 #
edge $295 $296 $297 $203 $298 0 #
coedge $-1 $299 $138 $121 $206 0 $238 $-1 #
edge $300 $145 $214 $205 $301 0 #
coedge $-1 $122 $302 $303 $304 1 $33 $-1 #
coedge $-1 $305 $306 $122 $209 0 $307 $-1 #
edge $308 $215 $309 $208 $310 0 #
coedge $-1 $203 $123 $306 $311 1 $212 $-1 #
coedge $-1 $123 $203 $299 $312 0 $212 $-1 #
loop $313 $-1 $123 $314 #
edge_name-twe-attrib $-1 $-1 $-1 $124 39 8704 #
vertex $-1 $312 $315 #
vertex $-1 $311 $316 #
straight-curve $317 2.265625 -1 0.375 1 0 0 #
edge $318 $221 $227 $125 $319 0 #
coedge $-1 $242 $126 $131 $229 0 $219 $-1 #
loop $320 $-1 $218 $282 #
edge_name-twe-attrib $-1 $-1 $-1 $127 20 8448 #
vertex $-1 $127 $321 #
straight-curve $322 0 -0.71875 0.25 0 0 -1 #
coedge $-1 $171 $128 $235 $323 1 $225 $-1 #
coedge $-1 $128 $171 $130 $175 0 $225 $-1 #
loop $324 $-1 $224 $325 #
edge_name-twe-attrib $-1 $-1 $-1 $129 21 8448 #
vertex $-1 $129 $326 #
straight-curve $327 0 -0.28125 0.25 0 0 -1 #
edge $328 $134 $168 $131 $329 0 #
loop_type-twe-attrib $-1 $-1 $-1 $132 0 #
face $330 $331 $132 $3 $-1 $332 1 #
point $-1 0 -0.71875 0.25 #
point $-1 0 -0.28125 0.25 #
cur-twe-attrib $-1 $-1 $-1 $136 70 #
coedge $-1 $140 $137 $223 $323 0 $22 $-1 #
edge $333 $267 $240 $170 $334 0 #
coedge $-1 $138 $299 $202 $294 1 $238 $-1 #
loop $335 $-1 $205 $336 #
edge_name-twe-attrib $-1 $-1 $-1 $139 45 8704 #
vertex $-1 $294 $337 #
straight-curve $338 2.1875 -1 0.5 0 -1 0 #
coedge $-1 $141 $218 $143 $245 1 $219 $-1 #
edge_name-twe-attrib $-1 $-1 $-1 $142 19 8704 #
straight-curve $339 0.4375 -1 0.5 0.841178475376554 -0.540757591313499 0 #
edge $340 $146 $168 $242 $341 0 #
point $-1 2.1875 -1 0.5 #
point $-1 0.4375 -1 0.5 #
cur-twe-attrib $-1 $-1 $-1 $147 74 #
edge_name-twe-attrib $-1 $-1 $-1 $149 12 8704 #
straight-curve $342 1.6875 -0.71875 0.5 1 0 0 #
point $-1 1.6875 -0.71875 0.5 #
cur-twe-attrib $-1 $-1 $-1 $152 77 #
point $-1 0.875 -0.71875 0.5 #
cur-twe-attrib $-1 $-1 $-1 $155 79 #
coedge $-1 $343 $159 $162 $259 1 $33 $-1 #
edge_name-twe-attrib $-1 $-1 $-1 $160 3 8704 #
straight-curve $344 0.4375 -1 0 -1 0 0 #
coedge $-1 $162 $161 $345 $346 0 $163 $-1 #
edge $347 $348 $165 $162 $349 0 #
loop_type-twe-attrib $-1 $-1 $-1 $163 0 #
face $350 $-1 $163 $3 $-1 $351 1 #
point $-1 2.5 -1 0 #
cur-twe-attrib $-1 $-1 $-1 $166 86 #
point $-1 0.4375 -1 0 #
cur-twe-attrib $-1 $-1 $-1 $169 88 #
edge_name-twe-attrib $-1 $-1 $-1 $172 23 8448 #
vertex $-1 $172 $352 #
straight-curve $353 0.4375 0 0 0 0 -1 #
coedge $-1 $173 $291 $354 $355 0 $62 $-1 #
coedge $-1 $356 $345 $173 $271 1 $357 $-1 #
edge $358 $359 $273 $270 $360 0 #
edge_name-twe-attrib $-1 $-1 $-1 $174 49 8704 #
vertex $-1 $346 $361 #
straight-curve $362 2.5 0 0 0.52999894000318 0 -0.847998304005088 #
edge_name-twe-attrib $-1 $-1 $-1 $175 24 8448 #
straight-curve $363 0 -0.28125 0.25 -0.758142505503435 -0.487377324966494 0.433224288859106 #
loop_type-twe-attrib $-1 $-1 $-1 $181 0 #
cur-twe-attrib $-1 $-1 $-1 $183 96 #
edge_name-twe-attrib $-1 $-1 $-1 $184 17 20480 #
straight-curve $364 0.875 -0.71875 0 0 0 -1 #
face_name-twe-attrib $-1 $-1 $-1 $186 9 #
face $365 $325 $219 $3 $-1 $366 1 #
cone-surface $367 0.875 -0.5 0 0 0 1 0.21875 0 0 1 0 1 0 #
edge_name-twe-attrib $-1 $-1 $-1 $189 13 20480 #
straight-curve $368 1.6875 -0.71875 0 0 0 -1 #
cur-twe-attrib $-1 $-1 $-1 $194 109 #
cur-twe-attrib $-1 $-1 $-1 $196 110 #
face_name-twe-attrib $-1 $-1 $-1 $198 8 #
plane-surface $369 1.6875 -0.71875 0 0 1 0 0 0 1 0 #
surf-twe-attrib $-1 $-1 $-1 $199 116 #
coedge $-1 $269 $201 $370 $371 0 $62 $-1 #
coedge $-1 $306 $305 $201 $293 1 $307 $-1 #
edge $372 $297 $373 $292 $374 0 #
edge $375 $240 $296 $237 $376 0 #
edge_name-twe-attrib $-1 $-1 $-1 $204 41 8704 #
vertex $-1 $312 $377 #
vertex $-1 $311 $378 #
straight-curve $379 2.265625 0 0.375 1 0 0 #
coedge $-1 $237 $205 $211 $312 1 $238 $-1 #
edge_name-twe-attrib $-1 $-1 $-1 $206 42 8704 #
straight-curve $380 2.1875 -1 0.375 0 0 -1 #
coedge $-1 $207 $343 $381 $382 1 $33 $-1 #
coedge $-1 $383 $384 $207 $304 0 $385 $-1 #
edge $386 $309 $387 $303 $388 0 #
coedge $-1 $292 $208 $384 $389 1 $307 $-1 #
coedge $-1 $208 $292 $210 $311 0 $307 $-1 #
loop $390 $-1 $306 $391 #
edge_name-twe-attrib $-1 $-1 $-1 $209 36 8704 #
vertex $-1 $389 $392 #
straight-curve $393 2.265625 -1 0.25 0 0 -1 #
edge $394 $297 $215 $210 $395 0 #
edge $396 $296 $214 $299 $397 0 #
loop_type-twe-attrib $-1 $-1 $-1 $212 0 #
face $398 $336 $212 $3 $-1 $399 1 #
point $-1 2.1875 -1 0.375 #
point $-1 2.265625 -1 0.375 #
cur-twe-attrib $-1 $-1 $-1 $216 124 #
edge_name-twe-attrib $-1 $-1 $-1 $217 1 8704 #
straight-curve $400 0 -0.28125 0.5 0 1 0 #
loop_type-twe-attrib $-1 $-1 $-1 $219 0 #
point $-1 0 -0.71875 0.5 #
cur-twe-attrib $-1 $-1 $-1 $222 127 #
edge $401 $267 $227 $223 $402 0 #
loop_type-twe-attrib $-1 $-1 $-1 $225 0 #
face $403 $231 $225 $3 $-1 $404 1 #
point $-1 0 -0.28125 0.5 #
cur-twe-attrib $-1 $-1 $-1 $228 129 #
edge_name-twe-attrib $-1 $-1 $-1 $229 26 8448 #
straight-curve $405 0.4375 -1 0 0.758142505503435 -0.487377324966494 -0.433224288859106 #
face_name-twe-attrib $-1 $-1 $-1 $231 12 #
face $406 $407 $357 $3 $-1 $408 1 #
plane-surface $409 0 -1.1 0.25 0.496138938356834 0 0.868243142124459 0.868243142124459 0 -0.496138938356834 0 #
edge_name-twe-attrib $-1 $-1 $-1 $236 5 8704 #
straight-curve $410 2.1875 0 0.5 1 0 0 #
loop_type-twe-attrib $-1 $-1 $-1 $238 0 #
face $411 $261 $238 $3 $-1 $412 1 #
point $-1 2.1875 0 0.5 #
cur-twe-attrib $-1 $-1 $-1 $241 139 #
cur-twe-attrib $-1 $-1 $-1 $244 142 #
edge_name-twe-attrib $-1 $-1 $-1 $245 18 8448 #
straight-curve $413 0.4375 -1 0 0 0 -1 #
cur-twe-attrib $-1 $-1 $-1 $250 149 #
coedge $-1 $302 $255 $414 $415 1 $33 $-1 #
cur-twe-attrib $-1 $-1 $-1 $257 160 #
coedge $-1 $270 $414 $258 $346 1 $357 $-1 #
edge $416 $273 $348 $258 $417 0 #
edge_name-twe-attrib $-1 $-1 $-1 $259 47 8704 #
vertex $-1 $346 $418 #
straight-curve $419 2.5 -1 0 0.52999894000318 0 -0.847998304005088 #
face_name-twe-attrib $-1 $-1 $-1 $261 19 #
plane-surface $420 2.5 -1.1 0 -0.847998304005088 0 -0.52999894000318 -0.52999894000318 0 0.847998304005088 0 #
point $-1 0.4375 0 0.5 #
cur-twe-attrib $-1 $-1 $-1 $268 172 #
coedge $-1 $421 $422 $269 $355 1 $423 $-1 #
edge $424 $425 $359 $354 $426 0 #
coedge $-1 $414 $270 $422 $427 0 $357 $-1 #
loop $428 $-1 $414 $331 #
edge_name-twe-attrib $-1 $-1 $-1 $271 29 8704 #
vertex $-1 $427 $429 #
straight-curve $430 2.421875 0 0.125 1 0 0 #
point $-1 2.421875 0 0.125 #
cur-twe-attrib $-1 $-1 $-1 $274 174 #
cur-twe-attrib $-1 $-1 $-1 $276 175 #
cur-twe-attrib $-1 $-1 $-1 $280 184 #
face_name-twe-attrib $-1 $-1 $-1 $282 10 #
plane-surface $431 0.4375 -1 -0.05 0.540757591313499 0.841178475376554 0 0 0 -1 0 #
surf-twe-attrib $-1 $-1 $-1 $283 186 #
cur-twe-attrib $-1 $-1 $-1 $285 189 #
surf-twe-attrib $-1 $-1 $-1 $289 198 #
coedge $-1 $384 $383 $291 $371 1 $385 $-1 #
edge $432 $373 $425 $370 $433 0 #
edge_name-twe-attrib $-1 $-1 $-1 $293 38 8704 #
vertex $-1 $389 $434 #
straight-curve $435 2.265625 0 0.25 0 0 -1 #
edge_name-twe-attrib $-1 $-1 $-1 $294 44 8704 #
straight-curve $436 2.1875 0 0.375 0 0 -1 #
point $-1 2.1875 0 0.375 #
point $-1 2.265625 0 0.375 #
cur-twe-attrib $-1 $-1 $-1 $298 204 #
cur-twe-attrib $-1 $-1 $-1 $301 206 #
coedge $-1 $422 $421 $302 $382 0 $423 $-1 #
edge $437 $387 $438 $381 $439 0 #
coedge $-1 $370 $303 $421 $440 1 $385 $-1 #
coedge $-1 $303 $370 $305 $389 0 $385 $-1 #
loop $441 $-1 $303 $442 #
edge_name-twe-attrib $-1 $-1 $-1 $304 33 8704 #
vertex $-1 $440 $443 #
straight-curve $444 2.34375 -1 0.25 1 0 0 #
edge $445 $373 $309 $305 $446 0 #
loop_type-twe-attrib $-1 $-1 $-1 $307 0 #
face $447 $314 $307 $3 $-1 $448 1 #
point $-1 2.265625 -1 0.25 #
cur-twe-attrib $-1 $-1 $-1 $310 209 #
edge_name-twe-attrib $-1 $-1 $-1 $311 40 8704 #
straight-curve $449 2.265625 -1 0.375 0 -1 0 #
edge_name-twe-attrib $-1 $-1 $-1 $312 43 4608 #
straight-curve $450 2.1875 -1 0.375 0 -1 0 #
face_name-twe-attrib $-1 $-1 $-1 $314 17 #
plane-surface $451 2.265625 -1.1 0.375 0 0 -1 -1 0 0 0 #
cur-twe-attrib $-1 $-1 $-1 $319 217 #
edge_name-twe-attrib $-1 $-1 $-1 $323 22 8704 #
straight-curve $452 0 -0.28125 0.5 -0.841178475376554 -0.540757591313499 0 #
face_name-twe-attrib $-1 $-1 $-1 $325 11 #
plane-surface $453 0 -0.28125 -0.05 0.540757591313499 -0.841178475376554 0 0 0 -1 0 #
cur-twe-attrib $-1 $-1 $-1 $329 229 #
face_name-twe-attrib $-1 $-1 $-1 $331 13 #
face $454 $442 $423 $3 $-1 $455 1 #
plane-surface $456 2.421875 -1.1 0.125 0 0 -1 -1 0 0 0 #
surf-twe-attrib $-1 $-1 $-1 $332 231 #
cur-twe-attrib $-1 $-1 $-1 $334 236 #
face_name-twe-attrib $-1 $-1 $-1 $336 18 #
plane-surface $457 2.1875 -1.1 0.375 -1 0 0 0 0 1 0 #
cur-twe-attrib $-1 $-1 $-1 $341 245 #
coedge $-1 $345 $356 $343 $415 0 $357 $-1 #
edge $458 $438 $348 $414 $459 0 #
edge_name-twe-attrib $-1 $-1 $-1 $346 46 8448 #
straight-curve $460 2.421875 -1 0.125 0 -1 0 #
point $-1 2.421875 -1 0.125 #
cur-twe-attrib $-1 $-1 $-1 $349 259 #
surf-twe-attrib $-1 $-1 $-1 $351 261 #
coedge $-1 $381 $354 $383 $440 0 $423 $-1 #
coedge $-1 $354 $381 $356 $427 1 $423 $-1 #
loop $461 $-1 $421 $407 #
edge_name-twe-attrib $-1 $-1 $-1 $355 32 8704 #
vertex $-1 $440 $462 #
straight-curve $463 2.34375 0 0.125 0 0 -1 #
edge $464 $359 $438 $422 $465 0 #
loop_type-twe-attrib $-1 $-1 $-1 $357 0 #
point $-1 2.34375 0 0.125 #
cur-twe-attrib $-1 $-1 $-1 $360 271 #
surf-twe-attrib $-1 $-1 $-1 $366 282 #
edge_name-twe-attrib $-1 $-1 $-1 $371 35 8704 #
straight-curve $466 2.34375 0 0.25 1 0 0 #
point $-1 2.265625 0 0.25 #
cur-twe-attrib $-1 $-1 $-1 $374 293 #
cur-twe-attrib $-1 $-1 $-1 $376 294 #
edge_name-twe-attrib $-1 $-1 $-1 $382 30 8704 #
vertex $-1 $427 $467 #
straight-curve $468 2.34375 -1 0.125 0 0 -1 #
edge $469 $425 $387 $383 $470 0 #
loop_type-twe-attrib $-1 $-1 $-1 $385 0 #
face $471 $391 $385 $3 $-1 $472 1 #
point $-1 2.34375 -1 0.25 #
cur-twe-attrib $-1 $-1 $-1 $388 304 #
edge_name-twe-attrib $-1 $-1 $-1 $389 37 4608 #
straight-curve $473 2.265625 -1 0.25 0 -1 0 #
face_name-twe-attrib $-1 $-1 $-1 $391 16 #
plane-surface $474 2.265625 -1.1 0.25 -1 0 0 0 0 1 0 #
cur-twe-attrib $-1 $-1 $-1 $395 311 #
cur-twe-attrib $-1 $-1 $-1 $397 312 #
surf-twe-attrib $-1 $-1 $-1 $399 314 #
cur-twe-attrib $-1 $-1 $-1 $402 323 #
surf-twe-attrib $-1 $-1 $-1 $404 325 #
face_name-twe-attrib $-1 $-1 $-1 $407 14 #
plane-surface $475 2.34375 -1.1 0.125 -1 0 0 0 0 1 0 #
surf-twe-attrib $-1 $-1 $-1 $408 331 #
surf-twe-attrib $-1 $-1 $-1 $412 336 #
edge_name-twe-attrib $-1 $-1 $-1 $415 28 8704 #
straight-curve $476 2.421875 -1 0.125 1 0 0 #
cur-twe-attrib $-1 $-1 $-1 $417 346 #
loop_type-twe-attrib $-1 $-1 $-1 $423 0 #
point $-1 2.34375 0 0.25 #
cur-twe-attrib $-1 $-1 $-1 $426 355 #
edge_name-twe-attrib $-1 $-1 $-1 $427 31 4608 #
straight-curve $477 2.34375 -1 0.125 0 -1 0 #
cur-twe-attrib $-1 $-1 $-1 $433 371 #
point $-1 2.34375 -1 0.125 #
cur-twe-attrib $-1 $-1 $-1 $439 382 #
edge_name-twe-attrib $-1 $-1 $-1 $440 34 8704 #
straight-curve $478 2.34375 -1 0.25 0 -1 0 #
face_name-twe-attrib $-1 $-1 $-1 $442 15 #
plane-surface $479 2.34375 -1.1 0.25 0 0 -1 -1 0 0 0 #
cur-twe-attrib $-1 $-1 $-1 $446 389 #
surf-twe-attrib $-1 $-1 $-1 $448 391 #
surf-twe-attrib $-1 $-1 $-1 $455 407 #
cur-twe-attrib $-1 $-1 $-1 $459 415 #
cur-twe-attrib $-1 $-1 $-1 $465 427 #
cur-twe-attrib $-1 $-1 $-1 $470 440 #
surf-twe-attrib $-1 $-1 $-1 $472 442 #
