105 473 1 0                             
body $-1 $1 $-1 $-1 #
lump $-1 $-1 $2 $0 #
shell $-1 $-1 $-1 $3 $1 #
face $-1 $4 $5 $2 $-1 $6 reversed single #
face $-1 $7 $8 $2 $-1 $9 reversed single #
loop $-1 $-1 $10 $3 #
plane-surface $-1 275.590551181102 66.9291338582677 177.165354330709 0 -1 -6.12303176911189e-17 0 6.12303176911189e-17 -1 0 #
face $-1 $11 $12 $2 $-1 $13 reversed single #
loop $-1 $-1 $14 $4 #
cone-surface $-1 275.590551181102 66.9291338582677 177.165354330709 0 1 6.12303176911189e-17 59.0551181102362 -0 0 1 0 1 0 #
coedge $-1 $15 $15 $14 $16 0 $5 $-1 #
face $-1 $17 $18 $2 $-1 $19 reversed single #
loop $-1 $-1 $20 $7 #
cone-surface $-1 275.590551181102 66.9291338582677 177.165354330709 0 1 6.12303176911189e-17 59.0551181102362 -0 0 1 0 1 0 #
coedge $-1 $21 $22 $10 $16 1 $8 $-1 #
coedge $-1 $10 $10 $23 $24 1 $5 $-1 #
edge $-1 $25 $26 $10 $27 0 #
face $-1 $28 $29 $2 $-1 $30 reversed single #
loop $-1 $-1 $31 $11 #
plane-surface $-1 275.590551181102 66.9291338582677 177.165354330709 0 -1 -6.12303176911189e-17 0 6.12303176911189e-17 -1 0 #
coedge $-1 $32 $33 $31 $34 1 $12 $-1 #
coedge $-1 $35 $14 $36 $37 1 $8 $-1 #
coedge $-1 $14 $35 $38 $39 1 $8 $-1 #
coedge $-1 $38 $36 $15 $24 0 $40 $-1 #
edge $-1 $25 $26 $15 $41 0 #
vertex $-1 $16 $42 #
vertex $-1 $16 $43 #
ellipse-curve $-1 275.590551181102 66.9291338582677 177.165354330709 0 1 6.12303176911189e-17 3.3143784230806e-13 -3.61596364317631e-15 59.0551181102362 1 #
face $-1 $44 $40 $2 $-1 $45 reversed single #
loop $-1 $46 $47 $17 #
cone-surface $-1 78.740157480315 0 177.165354330709 0 1 6.12303176911189e-17 59.0551181102362 -0 0 1 0 1 0 #
coedge $-1 $48 $48 $20 $34 0 $18 $-1 #
coedge $-1 $49 $20 $50 $51 1 $12 $-1 #
coedge $-1 $20 $49 $52 $53 1 $12 $-1 #
edge $-1 $54 $55 $20 $56 0 #
coedge $-1 $22 $21 $57 $58 1 $8 $-1 #
coedge $-1 $23 $59 $21 $37 0 $40 $-1 #
edge $-1 $60 $25 $21 $61 0 #
coedge $-1 $62 $23 $22 $39 0 $40 $-1 #
edge $-1 $26 $63 $22 $64 0 #
loop $-1 $-1 $23 $28 #
straight-curve $-1 255.905511811024 66.9291338582677 216.535433070866 1 0 0 #
point $-1 231.573465009847 66.9291338582677 216.535433070866 #
point $-1 319.607637352358 66.9291338582677 216.535433070866 #
face $-1 $65 $66 $2 $-1 $67 reversed single #
plane-surface $-1 255.905511811024 88.5826771653543 216.535433070866 0 0 1 1 0 0 0 #
loop $-1 $-1 $68 $17 #
coedge $-1 $47 $47 $69 $70 1 $29 $-1 #
coedge $-1 $31 $31 $71 $72 1 $18 $-1 #
coedge $-1 $33 $32 $73 $74 1 $12 $-1 #
coedge $-1 $71 $75 $32 $51 0 $76 $-1 #
edge $-1 $77 $54 $32 $78 0 #
coedge $-1 $79 $71 $33 $53 0 $76 $-1 #
edge $-1 $55 $80 $33 $81 0 #
vertex $-1 $34 $82 #
vertex $-1 $34 $83 #
ellipse-curve $-1 275.590551181102 66.9291338582677 177.165354330709 0 1 6.12303176911189e-17 3.3143784230806e-13 3.61596364317631e-15 -59.0551181102362 1 #
coedge $-1 $84 $85 $35 $58 0 $86 $-1 #
edge $-1 $63 $60 $35 $87 0 #
coedge $-1 $36 $88 $84 $89 1 $40 $-1 #
vertex $-1 $37 $90 #
straight-curve $-1 231.573465009847 66.9291338582677 216.535433070866 0 -1 -6.12303176911189e-17 #
coedge $-1 $91 $38 $85 $92 1 $40 $-1 #
vertex $-1 $58 $93 #
straight-curve $-1 319.607637352358 66.9291338582677 216.535433070866 0 1 6.12303176911189e-17 #
face $-1 $94 $95 $2 $-1 $96 reversed single #
loop $-1 $-1 $97 $44 #
plane-surface $-1 255.905511811024 88.5826771653543 137.795275590551 0 0 -1 -1 0 0 0 #
coedge $-1 $98 $99 $100 $101 1 $46 $-1 #
coedge $-1 $69 $69 $47 $70 0 $102 $-1 #
edge $-1 $103 $103 $47 $104 0 #
coedge $-1 $52 $50 $48 $72 0 $76 $-1 #
edge $-1 $54 $55 $48 $105 0 #
coedge $-1 $106 $107 $49 $74 0 $108 $-1 #
edge $-1 $80 $77 $49 $109 0 #
coedge $-1 $50 $110 $106 $111 1 $76 $-1 #
loop $-1 $-1 $71 $112 #
vertex $-1 $51 $113 #
straight-curve $-1 319.607637352358 66.9291338582677 137.795275590551 0 -1 -6.12303176911189e-17 #
coedge $-1 $114 $52 $107 $115 1 $76 $-1 #
vertex $-1 $74 $116 #
straight-curve $-1 231.573465009847 66.9291338582677 137.795275590551 0 1 6.12303176911189e-17 #
point $-1 319.607637352358 66.9291338582677 137.795275590551 #
point $-1 231.573465009847 66.9291338582677 137.795275590551 #
coedge $-1 $117 $57 $59 $89 0 $86 $-1 #
coedge $-1 $57 $118 $62 $92 0 $86 $-1 #
loop $-1 $-1 $85 $119 #
ellipse-curve $-1 275.590551181102 78.740157480315 177.165354330709 0 -1 0 3.2194105500682e-13 0 59.0551181102362 1 #
coedge $-1 $59 $120 $121 $122 0 $40 $-1 #
edge $-1 $60 $123 $59 $124 0 #
point $-1 231.573465009847 78.740157480315 216.535433070866 #
coedge $-1 $125 $62 $126 $127 1 $40 $-1 #
edge $-1 $128 $63 $62 $129 0 #
point $-1 319.607637352358 78.740157480315 216.535433070866 #
face $-1 $112 $130 $2 $-1 $131 reversed single #
loop $-1 $-1 $132 $65 #
plane-surface $-1 255.905511811024 59.0551181102362 137.795275590551 0 -1 0 0 0 -1 0 #
coedge $-1 $133 $134 $135 $136 0 $66 $-1 #
coedge $-1 $137 $68 $138 $139 1 $46 $-1 #
coedge $-1 $68 $140 $141 $142 1 $46 $-1 #
coedge $-1 $143 $144 $68 $101 0 $145 $-1 #
edge $-1 $146 $147 $68 $148 0 #
loop $-1 $149 $69 $150 #
vertex $-1 $70 $151 #
ellipse-curve $-1 78.740157480315 0 177.165354330709 0 1 6.12303176911189e-17 59.0551181102362 0 0 1 #
straight-curve $-1 255.905511811024 66.9291338582677 137.795275590551 -1 0 0 #
coedge $-1 $152 $73 $75 $111 0 $108 $-1 #
coedge $-1 $73 $153 $79 $115 0 $108 $-1 #
loop $-1 $-1 $107 $154 #
ellipse-curve $-1 275.590551181102 78.740157480315 177.165354330709 0 -1 0 3.34378194424506e-13 0 -59.0551181102362 1 #
coedge $-1 $75 $155 $156 $157 1 $76 $-1 #
edge $-1 $77 $158 $75 $159 0 #
face $-1 $160 $76 $2 $-1 $161 reversed single #
point $-1 319.607637352358 78.740157480315 137.795275590551 #
coedge $-1 $162 $79 $163 $164 0 $76 $-1 #
edge $-1 $165 $80 $79 $166 0 #
point $-1 231.573465009847 78.740157480315 137.795275590551 #
coedge $-1 $167 $84 $137 $168 0 $86 $-1 #
coedge $-1 $85 $169 $170 $171 1 $86 $-1 #
face $-1 $172 $86 $2 $-1 $173 reversed single #
coedge $-1 $88 $174 $175 $176 0 $40 $-1 #
coedge $-1 $177 $137 $88 $122 1 $46 $-1 #
edge $-1 $178 $123 $121 $179 0 #
vertex $-1 $168 $180 #
straight-curve $-1 255.905511811024 78.740157480315 216.535433070866 -1 0 0 #
coedge $-1 $174 $91 $181 $182 0 $40 $-1 #
coedge $-1 $170 $183 $91 $127 0 $184 $-1 #
edge $-1 $185 $128 $91 $186 0 #
vertex $-1 $92 $187 #
straight-curve $-1 255.905511811024 78.740157480315 216.535433070866 -1 0 0 #
loop $-1 $-1 $188 $94 #
plane-surface $-1 255.905511811024 88.5826771653543 216.535433070866 0 0 1 1 0 0 0 #
coedge $-1 $189 $190 $162 $191 1 $95 $-1 #
coedge $-1 $192 $97 $193 $194 0 $66 $-1 #
coedge $-1 $97 $192 $195 $196 0 $66 $-1 #
coedge $-1 $197 $198 $97 $136 1 $199 $-1 #
edge $-1 $200 $201 $97 $202 0 #
coedge $-1 $121 $98 $117 $168 1 $46 $-1 #
coedge $-1 $203 $204 $98 $139 0 $205 $-1 #
edge $-1 $206 $146 $98 $207 0 #
coedge $-1 $99 $193 $198 $208 1 $46 $-1 #
coedge $-1 $209 $188 $99 $142 0 $130 $-1 #
edge $-1 $147 $210 $99 $211 0 #
coedge $-1 $212 $100 $188 $213 1 $145 $-1 #
coedge $-1 $100 $214 $203 $215 1 $145 $-1 #
loop $-1 $-1 $100 $216 #
vertex $-1 $101 $217 #
vertex $-1 $101 $218 #
ellipse-curve $-1 78.740157480315 118.110236220472 177.165354330709 0 -1 -6.12303176911189e-17 -24.1091510116456 -3.30090809081037e-15 53.909700541847 1 #
loop $-1 $-1 $219 $150 #
face $-1 $220 $102 $2 $-1 $221 forward single #
point $-1 137.795275590551 0 177.165354330709 #
coedge $-1 $222 $106 $223 $224 1 $108 $-1 #
coedge $-1 $107 $225 $226 $227 0 $108 $-1 #
face $-1 $228 $108 $2 $-1 $229 reversed single #
coedge $-1 $110 $230 $231 $232 0 $76 $-1 #
coedge $-1 $233 $223 $110 $157 0 $234 $-1 #
edge $-1 $158 $235 $110 $236 0 #
vertex $-1 $157 $237 #
straight-curve $-1 255.905511811024 78.740157480315 137.795275590551 1 0 0 #
face $-1 $119 $199 $2 $-1 $238 reversed single #
plane-surface $-1 255.905511811024 88.5826771653543 137.795275590551 0 0 -1 -1 0 0 0 #
coedge $-1 $230 $114 $132 $191 0 $76 $-1 #
coedge $-1 $226 $177 $114 $164 1 $46 $-1 #
edge $-1 $165 $239 $163 $240 0 #
vertex $-1 $164 $241 #
straight-curve $-1 255.905511811024 78.740157480315 137.795275590551 1 0 0 #
coedge $-1 $169 $117 $204 $242 0 $86 $-1 #
edge $-1 $123 $206 $137 $243 0 #
coedge $-1 $118 $167 $244 $245 1 $86 $-1 #
coedge $-1 $246 $126 $118 $171 0 $184 $-1 #
edge $-1 $128 $247 $118 $248 0 #
face $-1 $249 $205 $2 $-1 $250 reversed single #
plane-surface $-1 255.905511811024 78.740157480315 0 0 -1 0 0 0 -1 0 #
coedge $-1 $120 $125 $251 $252 0 $40 $-1 #
coedge $-1 $190 $189 $120 $176 1 $95 $-1 #
edge $-1 $253 $178 $120 $254 0 #
coedge $-1 $163 $121 $189 $255 1 $46 $-1 #
vertex $-1 $122 $256 #
straight-curve $-1 122.757243651571 0 216.535433070866 0 1 6.12303176911189e-17 #
point $-1 122.757243651571 78.740157480315 216.535433070866 #
coedge $-1 $257 $258 $125 $182 1 $259 $-1 #
edge $-1 $185 $260 $125 $261 0 #
coedge $-1 $126 $246 $257 $262 1 $184 $-1 #
loop $-1 $-1 $183 $249 #
vertex $-1 $127 $263 #
straight-curve $-1 433.070866141732 98.4251968503937 216.535433070866 0 -1 0 #
point $-1 433.070866141732 78.740157480315 216.535433070866 #
coedge $-1 $141 $264 $143 $213 0 $130 $-1 #
coedge $-1 $175 $132 $177 $255 0 $95 $-1 #
coedge $-1 $132 $175 $265 $266 1 $95 $-1 #
edge $-1 $239 $267 $132 $268 0 #
coedge $-1 $134 $133 $269 $270 0 $66 $-1 #
coedge $-1 $140 $271 $133 $194 1 $46 $-1 #
edge $-1 $201 $272 $193 $273 0 #
coedge $-1 $274 $275 $134 $196 1 $276 $-1 #
edge $-1 $277 $200 $134 $278 0 #
coedge $-1 $279 $135 $275 $280 0 $199 $-1 #
coedge $-1 $135 $279 $140 $208 0 $199 $-1 #
loop $-1 $-1 $279 $160 #
vertex $-1 $136 $281 #
vertex $-1 $194 $282 #
straight-curve $-1 255.905511811024 59.0551181102362 137.795275590551 1 0 0 #
coedge $-1 $283 $138 $144 $215 0 $205 $-1 #
coedge $-1 $138 $283 $167 $242 1 $205 $-1 #
loop $-1 $-1 $204 $172 #
vertex $-1 $139 $284 #
straight-curve $-1 78.740157480315 -3.61596364317631e-15 236.220472440945 0 1 6.12303176911189e-17 #
edge $-1 $210 $201 $140 $285 0 #
coedge $-1 $264 $141 $279 $286 0 $130 $-1 #
vertex $-1 $208 $287 #
straight-curve $-1 34.7230713090593 0 216.535433070866 0 -1 -6.12303176911189e-17 #
coedge $-1 $214 $143 $288 $289 0 $145 $-1 #
edge $-1 $290 $147 $188 $291 0 #
coedge $-1 $144 $212 $292 $293 0 $145 $-1 #
edge $-1 $146 $294 $203 $295 0 #
face $-1 $296 $145 $2 $-1 $297 forward single #
point $-1 78.740157480315 118.110236220472 236.220472440945 #
point $-1 34.7230713090593 118.110236220472 216.535433070866 #
coedge $-1 $298 $299 $300 $301 0 $149 $-1 #
face $-1 $302 $276 $2 $-1 $303 forward single #
plane-surface $-1 255.905511811024 0 0 0 -1 0 0 0 -1 0 #
coedge $-1 $225 $152 $304 $305 1 $108 $-1 #
coedge $-1 $156 $306 $152 $224 0 $234 $-1 #
edge $-1 $307 $158 $152 $308 0 #
coedge $-1 $153 $222 $309 $310 0 $108 $-1 #
coedge $-1 $311 $163 $153 $227 1 $46 $-1 #
edge $-1 $312 $165 $226 $313 0 #
face $-1 $314 $315 $2 $-1 $316 reversed single #
plane-surface $-1 255.905511811024 78.740157480315 0 0 -1 0 0 0 -1 0 #
coedge $-1 $155 $162 $317 $318 0 $76 $-1 #
coedge $-1 $319 $320 $155 $232 1 $321 $-1 #
edge $-1 $322 $235 $155 $323 0 #
coedge $-1 $306 $156 $320 $324 1 $234 $-1 #
loop $-1 $-1 $223 $314 #
vertex $-1 $232 $325 #
straight-curve $-1 433.070866141732 98.4251968503937 137.795275590551 0 1 0 #
point $-1 433.070866141732 78.740157480315 137.795275590551 #
plane-surface $-1 255.905511811024 59.0551181102362 137.795275590551 0 -1 0 0 0 -1 0 #
vertex $-1 $255 $326 #
straight-curve $-1 122.757243651571 0 137.795275590551 0 -1 -6.12303176911189e-17 #
point $-1 122.757243651571 78.740157480315 137.795275590551 #
edge $-1 $206 $327 $167 $328 0 #
ellipse-curve $-1 78.740157480315 78.740157480315 177.165354330709 0 -1 0 24.1091510116457 0 53.9097005418469 1 #
coedge $-1 $329 $330 $169 $245 0 $331 $-1 #
edge $-1 $247 $327 $169 $332 0 #
coedge $-1 $183 $170 $330 $333 1 $184 $-1 #
vertex $-1 $245 $334 #
straight-curve $-1 433.070866141732 78.740157480315 0 0 0 1 #
face $-1 $216 $184 $2 $-1 $335 reversed single #
plane-surface $-1 78.740157480315 98.4251968503937 0 -1 0 0 0 -0 1 0 #
coedge $-1 $336 $265 $174 $252 1 $337 $-1 #
edge $-1 $260 $253 $174 $338 0 #
vertex $-1 $252 $339 #
straight-curve $-1 255.905511811024 59.0551181102362 216.535433070866 -1 0 0 #
edge $-1 $239 $178 $177 $340 0 #
point $-1 122.757243651571 59.0551181102362 216.535433070866 #
coedge $-1 $341 $181 $183 $262 0 $259 $-1 #
coedge $-1 $181 $341 $336 $342 1 $259 $-1 #
loop $-1 $-1 $181 $296 #
vertex $-1 $182 $343 #
straight-curve $-1 255.905511811024 118.110236220472 216.535433070866 1 0 0 #
edge $-1 $185 $344 $183 $345 0 #
point $-1 433.070866141732 118.110236220472 216.535433070866 #
coedge $-1 $188 $209 $346 $347 0 $130 $-1 #
coedge $-1 $251 $317 $190 $266 0 $337 $-1 #
edge $-1 $267 $253 $190 $348 0 #
vertex $-1 $191 $349 #
straight-curve $-1 255.905511811024 59.0551181102362 137.795275590551 1 0 0 #
coedge $-1 $350 $351 $192 $270 1 $352 $-1 #
edge $-1 $272 $277 $192 $353 0 #
coedge $-1 $193 $311 $350 $354 1 $46 $-1 #
vertex $-1 $354 $355 #
straight-curve $-1 34.7230713090593 0 137.795275590551 0 1 6.12303176911189e-17 #
coedge $-1 $356 $195 $351 $357 1 $276 $-1 #
coedge $-1 $195 $346 $197 $280 1 $276 $-1 #
loop $-1 $-1 $346 $220 #
vertex $-1 $270 $358 #
straight-curve $-1 0 88.5826771653543 137.795275590551 0 -1 0 #
coedge $-1 $198 $197 $209 $286 1 $199 $-1 #
edge $-1 $200 $359 $197 $360 0 #
point $-1 0 59.0551181102362 137.795275590551 #
point $-1 34.7230713090593 59.0551181102362 137.795275590551 #
coedge $-1 $204 $203 $329 $361 1 $205 $-1 #
point $-1 78.740157480315 78.740157480315 236.220472440945 #
ellipse-curve $-1 78.740157480315 59.0551181102362 177.165354330709 0 -1 0 -59.0551181102362 0 -3.70776453416825e-13 1 #
edge $-1 $210 $359 $209 $362 0 #
point $-1 34.7230713090593 59.0551181102362 216.535433070866 #
coedge $-1 $346 $363 $212 $289 1 $276 $-1 #
edge $-1 $290 $364 $212 $365 0 #
vertex $-1 $213 $366 #
straight-curve $-1 255.905511811024 118.110236220472 216.535433070866 1 0 0 #
coedge $-1 $367 $329 $214 $293 1 $331 $-1 #
edge $-1 $364 $294 $214 $368 0 #
vertex $-1 $215 $369 #
straight-curve $-1 78.740157480315 118.110236220472 0 0 0 1 #
face $-1 $154 $259 $2 $-1 $370 forward single #
plane-surface $-1 255.905511811024 118.110236220472 0 0 1 0 0 0 1 0 #
coedge $-1 $371 $219 $372 $373 0 $149 $-1 #
coedge $-1 $219 $371 $374 $375 0 $149 $-1 #
coedge $-1 $376 $377 $219 $301 1 $337 $-1 #
edge $-1 $378 $379 $219 $380 0 #
face $-1 $381 $321 $2 $-1 $382 forward single #
plane-surface $-1 0 59.0551181102362 0 -1 0 0 0 -0 1 0 #
coedge $-1 $383 $384 $222 $305 0 $385 $-1 #
edge $-1 $386 $307 $222 $387 0 #
coedge $-1 $223 $233 $383 $388 1 $234 $-1 #
vertex $-1 $224 $389 #
straight-curve $-1 433.070866141732 78.740157480315 0 0 0 1 #
coedge $-1 $390 $391 $225 $310 1 $315 $-1 #
edge $-1 $386 $312 $225 $392 0 #
coedge $-1 $271 $226 $391 $393 1 $46 $-1 #
vertex $-1 $227 $394 #
ellipse-curve $-1 78.740157480315 78.740157480315 177.165354330709 0 -1 0 24.1091510116454 0 -53.9097005418471 1 #
face $-1 $395 $234 $2 $-1 $396 reversed single #
loop $-1 $-1 $397 $228 #
plane-surface $-1 78.740157480315 98.4251968503937 0 -1 0 0 0 -0 1 0 #
coedge $-1 $265 $398 $230 $318 1 $337 $-1 #
edge $-1 $267 $322 $230 $399 0 #
coedge $-1 $400 $231 $398 $401 1 $321 $-1 #
coedge $-1 $231 $400 $233 $324 0 $321 $-1 #
loop $-1 $-1 $231 $302 #
vertex $-1 $318 $402 #
straight-curve $-1 255.905511811024 118.110236220472 137.795275590551 -1 0 0 #
edge $-1 $403 $235 $233 $404 0 #
point $-1 433.070866141732 118.110236220472 137.795275590551 #
point $-1 122.757243651571 59.0551181102362 137.795275590551 #
vertex $-1 $242 $405 #
straight-curve $-1 78.740157480315 78.740157480315 0 0 0 1 #
coedge $-1 $292 $244 $283 $361 0 $331 $-1 #
coedge $-1 $244 $406 $246 $333 0 $331 $-1 #
loop $-1 $-1 $329 $407 #
straight-curve $-1 255.905511811024 78.740157480315 354.330708661417 -1 0 0 #
edge $-1 $344 $247 $246 $408 0 #
point $-1 433.070866141732 78.740157480315 354.330708661417 #
plane-surface $-1 433.070866141732 98.4251968503937 0 1 0 0 0 0 -1 0 #
coedge $-1 $377 $251 $258 $342 0 $337 $-1 #
loop $-1 $-1 $251 $409 #
straight-curve $-1 511.811023622047 88.5826771653543 216.535433070866 0 -1 0 #
point $-1 511.811023622047 59.0551181102362 216.535433070866 #
ellipse-curve $-1 78.740157480315 59.0551181102362 177.165354330709 0 -1 0 59.0551181102362 0 -3.70776453416825e-13 1 #
coedge $-1 $258 $257 $406 $410 0 $259 $-1 #
edge $-1 $260 $411 $258 $412 0 #
point $-1 511.811023622047 118.110236220472 216.535433070866 #
vertex $-1 $262 $413 #
straight-curve $-1 433.070866141732 118.110236220472 0 0 0 1 #
coedge $-1 $275 $288 $264 $347 1 $276 $-1 #
edge $-1 $359 $290 $264 $414 0 #
straight-curve $-1 511.811023622047 59.0551181102362 137.795275590551 0 0 1 #
point $-1 511.811023622047 59.0551181102362 137.795275590551 #
coedge $-1 $415 $269 $271 $354 0 $352 $-1 #
coedge $-1 $269 $416 $274 $357 0 $352 $-1 #
loop $-1 $-1 $350 $395 #
straight-curve $-1 255.905511811024 118.110236220472 137.795275590551 -1 0 0 #
edge $-1 $272 $417 $271 $418 0 #
point $-1 34.7230713090593 118.110236220472 137.795275590551 #
coedge $-1 $419 $274 $420 $421 0 $276 $-1 #
edge $-1 $422 $277 $351 $423 0 #
point $-1 0 118.110236220472 137.795275590551 #
vertex $-1 $286 $424 #
straight-curve $-1 0 59.0551181102362 137.795275590551 0 0 1 #
edge $-1 $327 $294 $283 $425 0 #
straight-curve $-1 255.905511811024 59.0551181102362 216.535433070866 -1 0 0 #
coedge $-1 $288 $419 $367 $426 0 $276 $-1 #
vertex $-1 $289 $427 #
straight-curve $-1 0 118.110236220472 0 0 0 1 #
point $-1 0 118.110236220472 216.535433070866 #
coedge $-1 $372 $292 $363 $426 1 $331 $-1 #
straight-curve $-1 255.905511811024 118.110236220472 354.330708661417 1 0 0 #
point $-1 78.740157480315 118.110236220472 354.330708661417 #
plane-surface $-1 255.905511811024 118.110236220472 0 0 1 0 0 0 1 0 #
coedge $-1 $299 $298 $419 $428 1 $149 $-1 #
coedge $-1 $429 $367 $298 $373 1 $331 $-1 #
edge $-1 $379 $430 $372 $431 0 #
coedge $-1 $420 $432 $299 $375 1 $385 $-1 #
edge $-1 $433 $378 $299 $434 0 #
coedge $-1 $398 $300 $432 $435 0 $337 $-1 #
coedge $-1 $300 $336 $429 $436 0 $337 $-1 #
vertex $-1 $301 $437 #
vertex $-1 $373 $438 #
straight-curve $-1 511.811023622047 0 0 0 0 1 #
face $-1 $409 $385 $2 $-1 $439 forward single #
plane-surface $-1 255.905511811024 118.110236220472 0 0 1 0 0 0 1 0 #
coedge $-1 $440 $304 $306 $388 0 $385 $-1 #
coedge $-1 $304 $441 $390 $442 0 $385 $-1 #
loop $-1 $-1 $384 $381 #
vertex $-1 $305 $443 #
straight-curve $-1 255.905511811024 78.740157480315 0 1 0 0 #
edge $-1 $307 $403 $306 $444 0 #
point $-1 433.070866141732 78.740157480315 0 #
coedge $-1 $397 $309 $384 $442 1 $315 $-1 #
coedge $-1 $309 $397 $311 $393 0 $315 $-1 #
straight-curve $-1 78.740157480315 78.740157480315 0 0 0 1 #
edge $-1 $417 $312 $311 $445 0 #
point $-1 78.740157480315 78.740157480315 118.110236220472 #
face $-1 $407 $352 $2 $-1 $446 forward single #
plane-surface $-1 433.070866141732 98.4251968503937 0 1 0 0 0 0 -1 0 #
coedge $-1 $391 $390 $415 $447 0 $315 $-1 #
coedge $-1 $317 $376 $319 $401 0 $337 $-1 #
straight-curve $-1 511.811023622047 88.5826771653543 137.795275590551 0 1 0 #
coedge $-1 $320 $319 $440 $448 0 $321 $-1 #
edge $-1 $449 $322 $319 $450 0 #
point $-1 511.811023622047 118.110236220472 137.795275590551 #
vertex $-1 $324 $451 #
straight-curve $-1 433.070866141732 118.110236220472 0 0 0 1 #
point $-1 78.740157480315 78.740157480315 354.330708661417 #
coedge $-1 $330 $429 $341 $410 1 $331 $-1 #
face $-1 $150 $331 $2 $-1 $452 forward single #
straight-curve $-1 433.070866141732 98.4251968503937 354.330708661417 0 -1 0 #
face $-1 $-1 $337 $2 $-1 $453 forward single #
edge $-1 $344 $411 $341 $454 0 #
vertex $-1 $410 $455 #
straight-curve $-1 511.811023622047 118.110236220472 0 0 0 1 #
point $-1 433.070866141732 118.110236220472 354.330708661417 #
straight-curve $-1 0 88.5826771653543 216.535433070866 0 1 0 #
coedge $-1 $416 $350 $397 $447 1 $352 $-1 #
coedge $-1 $351 $415 $441 $456 0 $352 $-1 #
vertex $-1 $393 $457 #
ellipse-curve $-1 78.740157480315 118.110236220472 177.165354330709 0 -1 -6.12303176911189e-17 -24.1091510116453 3.30090809081038e-15 -53.9097005418471 1 #
coedge $-1 $363 $356 $371 $428 0 $276 $-1 #
coedge $-1 $441 $374 $356 $421 1 $385 $-1 #
edge $-1 $422 $433 $356 $458 0 #
vertex $-1 $456 $459 #
straight-curve $-1 0 118.110236220472 0 0 0 1 #
point $-1 0 59.0551181102362 216.535433070866 #
straight-curve $-1 78.740157480315 98.4251968503937 354.330708661417 0 1 0 #
edge $-1 $430 $364 $367 $460 0 #
point $-1 0 118.110236220472 354.330708661417 #
edge $-1 $433 $430 $371 $461 0 #
coedge $-1 $406 $372 $377 $436 1 $331 $-1 #
vertex $-1 $426 $462 #
straight-curve $-1 255.905511811024 0 354.330708661417 -1 0 0 #
coedge $-1 $374 $440 $376 $435 1 $385 $-1 #
vertex $-1 $428 $463 #
straight-curve $-1 255.905511811024 0 0 1 0 0 #
edge $-1 $378 $449 $432 $464 0 #
edge $-1 $411 $379 $429 $465 0 #
point $-1 511.811023622047 0 0 #
point $-1 511.811023622047 0 354.330708661417 #
plane-surface $-1 255.905511811024 59.0551181102362 0 0 0 -1 -1 0 0 0 #
coedge $-1 $432 $383 $400 $448 1 $385 $-1 #
coedge $-1 $384 $420 $416 $456 1 $385 $-1 #
edge $-1 $466 $386 $390 $467 0 #
point $-1 78.740157480315 78.740157480315 0 #
straight-curve $-1 433.070866141732 98.4251968503937 0 0 1 0 #
straight-curve $-1 78.740157480315 3.61596364317631e-15 118.110236220472 0 -1 -6.12303176911189e-17 #
plane-surface $-1 255.905511811024 118.110236220472 0 0 1 0 0 0 1 0 #
edge $-1 $466 $417 $397 $468 0 #
edge $-1 $449 $403 $400 $469 0 #
vertex $-1 $401 $470 #
straight-curve $-1 511.811023622047 118.110236220472 0 0 0 1 #
point $-1 433.070866141732 118.110236220472 0 #
plane-surface $-1 255.905511811024 59.0551181102362 354.330708661417 0 0 1 1 0 0 0 #
plane-surface $-1 511.811023622047 59.0551181102362 0 1 0 0 0 0 -1 0 #
straight-curve $-1 255.905511811024 118.110236220472 354.330708661417 1 0 0 #
point $-1 511.811023622047 118.110236220472 354.330708661417 #
edge $-1 $466 $422 $416 $471 0 #
point $-1 78.740157480315 118.110236220472 118.110236220472 #
straight-curve $-1 0 59.0551181102362 0 0 -1 0 #
point $-1 0 118.110236220472 0 #
straight-curve $-1 0 59.0551181102362 354.330708661417 0 1 0 #
straight-curve $-1 0 0 0 0 0 1 #
point $-1 0 0 354.330708661417 #
point $-1 0 0 0 #
straight-curve $-1 511.811023622047 59.0551181102362 0 0 1 0 #
straight-curve $-1 511.811023622047 59.0551181102362 354.330708661417 0 -1 0 #
vertex $-1 $447 $472 #
straight-curve $-1 78.740157480315 98.4251968503937 0 0 -1 0 #
straight-curve $-1 78.740157480315 118.110236220472 0 0 0 1 #
straight-curve $-1 255.905511811024 118.110236220472 0 -1 0 0 #
point $-1 511.811023622047 118.110236220472 0 #
straight-curve $-1 255.905511811024 118.110236220472 0 -1 0 0 #
point $-1 78.740157480315 118.110236220472 0 #
