600 0 1 0           
92 GICL ACIS Healer - Source: /gicl/data5/repository/UIUC/sigman96Stock/sigman96Stock.sat - 6 0 18 ACIS 6.0.3 Solaris 24 Sun Apr 14 00:06:26 2002 
1 9.999999999999999547e-07 1.000000000000000036e-10 
body $1 $2 $-1 $-1 #
named_string_attribute-named_attribute-st-attrib $-1 $3 $-1 $0 4 name 5 stock #
lump $-1 $-1 $4 $0 #
rgb_color-st-attrib $-1 $-1 $1 $0 0 1 0 #
shell $-1 $-1 $-1 $5 $-1 $2 #
face $-1 $6 $7 $4 $-1 $8 forward single #
face $-1 $9 $10 $4 $-1 $11 reversed single #
loop $-1 $-1 $12 $5 #
plane-surface $-1 5.250000000000000888 5 2.904737509655562988 0.9682458365518542553 -1.185759164520979713e-16 -0.2499999999999999445 0.2499999999999999445 -3.061616997868382402e-17 0.9682458365518542553 forward_v I I I I #
face $-1 $13 $14 $4 $-1 $15 reversed single #
loop $-1 $-1 $16 $6 #
plane-surface $-1 3 5 0 0 0 1 1 0 0 forward_v I I I I #
coedge $-1 $17 $18 $19 $20 reversed $7 $-1 #
face $-1 $21 $22 $4 $-1 $23 forward single #
loop $-1 $-1 $24 $9 #
plane-surface $-1 3 0 2 0 1 0 0 0 1 forward_v I I I I #
coedge $-1 $25 $26 $27 $28 forward $10 $-1 #
coedge $-1 $27 $12 $24 $29 reversed $7 $-1 #
coedge $-1 $12 $27 $30 $31 reversed $7 $-1 #
coedge $-1 $32 $33 $12 $20 forward $34 $-1 #
edge $-1 $35 -5 $36 5 $19 $37 forward 7 unknown #
face $-1 $38 $39 $4 $-1 $40 reversed single #
loop $-1 $-1 $41 $13 #
plane-surface $-1 0.75 5 2.904737509655562988 -0.9682458365518542553 0 -0.2499999999999999445 -0.2499999999999999445 0 0.9682458365518542553 forward_v I I I I #
coedge $-1 $42 $43 $17 $29 forward $14 $-1 #
coedge $-1 $44 $16 $43 $45 forward $10 $-1 #
coedge $-1 $16 $44 $46 $47 forward $10 $-1 #
coedge $-1 $18 $17 $16 $28 reversed $7 $-1 #
edge $-1 $48 -5 $49 5 $16 $50 forward 7 unknown #
edge $-1 $49 -2.280745836551854477 $35 1.850436399402723531 $24 $51 forward 7 unknown #
coedge $-1 $46 $52 $18 $31 forward $39 $-1 #
edge $-1 $36 -1.850436399402723975 $48 2.280745836551854033 $30 $53 forward 7 unknown #
coedge $-1 $54 $19 $52 $55 forward $34 $-1 #
coedge $-1 $19 $54 $42 $56 forward $34 $-1 #
loop $-1 $-1 $19 $38 #
vertex $-1 $29 $57 #
vertex $-1 $55 $58 #
straight-curve $-1 5.532795558988645723 5 4 1.224646799147353207e-16 1 0 I I #
face $-1 $-1 $34 $4 $-1 $59 forward single #
loop $-1 $-1 $30 $21 #
plane-surface $-1 3 10 2 0 -1 0 0 0 -1 forward_v I I I I #
coedge $-1 $60 $61 $54 $62 reversed $22 $-1 #
coedge $-1 $63 $24 $33 $56 reversed $14 $-1 #
coedge $-1 $24 $63 $25 $45 reversed $14 $-1 #
coedge $-1 $26 $25 $64 $65 forward $10 $-1 #
edge $-1 $49 -1.5 $66 1.5 $43 $67 forward 7 unknown #
coedge $-1 $68 $30 $26 $47 reversed $39 $-1 #
edge $-1 $69 -1.5 $48 1.500000000000001776 $46 $70 forward 7 unknown #
vertex $-1 $28 $71 #
vertex $-1 $45 $72 #
straight-curve $-1 4.5 5 0 -1.224646799147353207e-16 -1 0 I I #
straight-curve $-1 5.07018645913796373 0 2.208322660474308918 0.2499999999999999445 0 0.9682458365518542553 I I #
coedge $-1 $30 $68 $32 $55 reversed $39 $-1 #
straight-curve $-1 5.070186459137964619 10 2.208322660474308474 -0.2499999999999999445 -0 -0.9682458365518542553 I I #
coedge $-1 $33 $32 $41 $62 forward $34 $-1 #
edge $-1 $36 -2.532795558988645723 $73 2.532795558988644391 $52 $74 forward 7 unknown #
edge $-1 $75 -2.532795558988644391 $35 2.532795558988643947 $42 $76 forward 7 unknown #
point $-1 5.532795558988643947 0 4 #
point $-1 5.532795558988645723 10 4 #
plane-surface $-1 3 5 4 0 0 1 1 0 0 forward_v I I I I #
coedge $-1 $64 $41 $68 $77 reversed $22 $-1 #
coedge $-1 $41 $64 $63 $78 reversed $22 $-1 #
edge $-1 $73 -5 $75 5 $54 $79 forward 7 unknown #
coedge $-1 $43 $42 $61 $78 forward $14 $-1 #
coedge $-1 $61 $60 $44 $65 reversed $22 $-1 #
edge $-1 $66 -5 $69 5 $44 $80 forward 7 unknown #
vertex $-1 $65 $81 #
straight-curve $-1 3 0 0 -1 0 0 I I #
coedge $-1 $52 $46 $60 $77 forward $39 $-1 #
vertex $-1 $47 $82 #
straight-curve $-1 3 10 0 1 0 0 I I #
point $-1 4.500000000000001776 10 0 #
point $-1 4.5 0 0 #
vertex $-1 $77 $83 #
straight-curve $-1 3 10 4 -1 0 0 I I #
vertex $-1 $56 $84 #
straight-curve $-1 3 0 4 1 0 0 I I #
edge $-1 $69 -2.280745836551854477 $73 1.850436399402723531 $68 $85 forward 7 unknown #
edge $-1 $75 -1.850436399402723531 $66 2.280745836551854477 $63 $86 forward 7 unknown #
straight-curve $-1 0.4672044410113551649 5 4 0 -1 0 I I #
straight-curve $-1 1.500000000000000444 5 0 0 1 0 I I #
point $-1 1.5 0 0 #
point $-1 1.5 10 0 #
point $-1 0.467204441011355609 10 4 #
point $-1 0.467204441011355609 0 4 #
straight-curve $-1 0.9298135408620362696 10 2.208322660474308918 -0.2499999999999999445 0 0.9682458365518542553 I I #
straight-curve $-1 0.9298135408620362696 0 2.208322660474308918 0.2499999999999999445 0 -0.9682458365518542553 I I #
End-of-ACIS-data 