600 0 2 0           
24 FBMach with ACIS - 6.0.3 13 ACIS 6.0.3 NT 24 Tue May 22 15:47:08 2001 
1 9.9999999999999995e-007 1e-010 
body $2 $3 $-1 $4 #
bdycol-kcp $-1 1 3 $5 $6 $7 #
model_id-kcp-attrib $-1 $8 $-1 $0 1 990560828 50 221380609 1 #
lump $-1 $-1 $9 $0 #
transform $-1 1 -7.7037197775489434e-033 0 -7.7037197775489434e-033 1 0 0 0 1 3.0000000000000009 4.9999999999999991 1.9999999999999996 1 rotate no_reflect no_shear #
body $10 $11 $-1 $12 #
body $13 $14 $-1 $15 #
body $16 $17 $-1 $18 #
named_string_attribute-named_attribute-st-attrib $-1 $19 $2 $0 4 name 5 stock #
shell $-1 $-1 $-1 $20 $-1 $3 #
model_id-kcp-attrib $-1 $-1 $-1 $5 1 990560828 50 221380610 1 #
lump $-1 $-1 $21 $5 #
transform $-1 1 0 0 0 1 0 0 0 1 3.0000000000000004 5 2 1 no_rotate no_reflect no_shear #
rgb_color-st-attrib $-1 $22 $-1 $6 0.5 0.5 1 #
lump $-1 $-1 $23 $6 #
transform $-1 1 0 0 0 1 0 0 0 1 3.0000000000000004 5 2 1 no_rotate no_reflect no_shear #
rgb_color-st-attrib $-1 $24 $-1 $7 0.5 0.5 1 #
lump $-1 $-1 $25 $7 #
transform $-1 1 0 0 0 1 0 0 0 1 3.0000000000000004 5 2 1 no_rotate no_reflect no_shear #
rgb_color-st-attrib $-1 $-1 $8 $0 0 1 0 #
face $26 $27 $28 $9 $-1 $29 forward single #
shell $-1 $-1 $-1 $30 $-1 $11 #
model_id-kcp-attrib $-1 $-1 $13 $6 1 990560828 200 231211011 1 #
shell $-1 $-1 $-1 $31 $-1 $14 #
model_id-kcp-attrib $-1 $-1 $16 $7 1 990560828 210 231866372 1 #
shell $-1 $-1 $-1 $32 $-1 $17 #
model_id-kcp-attrib $-1 $-1 $-1 $20 1 990560828 50 221380609 2 #
face $33 $34 $35 $9 $-1 $36 reversed single #
loop $-1 $-1 $37 $20 #
plane-surface $-1 2.2500000000000009 1.1857591645209797e-016 0.90473750965556299 0.96824583655185426 -1.1857591645209797e-016 -0.24999999999999994 0.24999999999999994 -3.0616169978683824e-017 0.96824583655185426 forward_v I I I I #
face $38 $39 $40 $21 $-1 $41 forward single #
face $-1 $42 $43 $23 $-1 $44 reversed single #
face $-1 $45 $46 $25 $-1 $47 reversed single #
model_id-kcp-attrib $-1 $-1 $-1 $27 1 990560828 50 221380609 3 #
face $48 $49 $50 $9 $-1 $51 reversed single #
loop $-1 $-1 $52 $27 #
plane-surface $-1 0 0 -2 0 0 1 1 0 0 forward_v I I I I #
coedge $-1 $53 $54 $55 $56 reversed $28 $-1 #
model_id-kcp-attrib $-1 $-1 $-1 $30 1 990560828 50 221380610 5 #
face $57 $58 $59 $21 $-1 $60 reversed single #
loop $-1 $-1 $61 $30 #
plane-surface $-1 0 0 2 0 0 1 1 0 0 forward_v I I I I #
face $-1 $62 $63 $23 $-1 $64 reversed single #
loop $-1 $-1 $65 $31 #
plane-surface $-1 2.0163977794943229 5.2312513604547338e-016 4.4408920985006262e-016 0.96824583655185426 -1.1857591645209797e-016 -0.24999999999999994 1.2246467991473532e-016 1 0 forward_v I I I I #
face $-1 $66 $67 $25 $-1 $68 reversed single #
loop $-1 $-1 $69 $32 #
plane-surface $-1 -2.0163977794943246 0 0 -0.96824583655185426 0 -0.24999999999999994 0 -1 0 forward_v I I I I #
model_id-kcp-attrib $-1 $-1 $-1 $34 1 990560828 50 221380609 4 #
face $70 $71 $72 $9 $-1 $73 forward single #
loop $-1 $-1 $74 $34 #
plane-surface $-1 0 -5 0 0 1 0 0 0 1 forward_v I I I I #
coedge $-1 $75 $76 $77 $78 forward $35 $-1 #
coedge $-1 $77 $37 $74 $79 reversed $28 $-1 #
coedge $-1 $37 $77 $80 $81 reversed $28 $-1 #
coedge $-1 $82 $83 $37 $56 forward $84 $-1 #
edge $85 $86 -5 $87 5 $55 $88 forward 7 unknown #
model_id-kcp-attrib $-1 $-1 $-1 $39 1 990560828 50 221380610 2 #
face $89 $90 $91 $21 $-1 $92 reversed single #
loop $-1 $-1 $93 $39 #
plane-surface $-1 0 0 -2 0 0 1 1 0 0 forward_v I I I I #
coedge $-1 $94 $95 $96 $97 forward $40 $-1 #
face $-1 $98 $99 $23 $-1 $100 reversed single #
loop $-1 $-1 $101 $42 #
plane-surface $-1 0 -5 0 0 1 0 0 0 1 forward_v I I I I #
coedge $-1 $102 $103 $101 $104 forward $43 $-1 #
face $-1 $105 $106 $25 $-1 $107 forward single #
loop $-1 $-1 $108 $45 #
plane-surface $-1 0 5 0 0 -1 0 0 0 -1 forward_v I I I I #
coedge $-1 $109 $110 $111 $112 forward $46 $-1 #
model_id-kcp-attrib $-1 $-1 $-1 $49 1 990560828 50 221380609 5 #
face $113 $114 $115 $9 $-1 $116 reversed single #
loop $-1 $-1 $117 $49 #
plane-surface $-1 -2.25 0 0.90473750965556299 -0.96824583655185426 0 -0.24999999999999994 -0.24999999999999994 0 0.96824583655185426 forward_v I I I I #
coedge $-1 $118 $119 $53 $79 forward $50 $-1 #
coedge $-1 $120 $52 $119 $121 forward $35 $-1 #
coedge $-1 $52 $120 $122 $123 forward $35 $-1 #
coedge $-1 $54 $53 $52 $78 reversed $28 $-1 #
edge $124 $125 -5 $126 5 $52 $127 forward 7 unknown #
edge $128 $126 -2.2807458365518545 $86 1.8504363994027235 $74 $129 forward 7 unknown #
coedge $-1 $122 $130 $54 $81 forward $115 $-1 #
edge $131 $87 -1.8504363994027235 $125 2.280745836551854 $80 $132 forward 7 unknown #
coedge $-1 $133 $55 $130 $134 forward $84 $-1 #
coedge $-1 $55 $133 $118 $135 forward $84 $-1 #
loop $-1 $-1 $55 $114 #
attrib_edge_convexity-kcp-attrib $-1 $136 $-1 $56 1 #
vertex $-1 $79 $137 #
vertex $-1 $134 $138 #
straight-curve $-1 2.5327955589886457 -1.1311727429088132e-016 2 1.2246467991473532e-016 1 0 I I #
model_id-kcp-attrib $-1 $-1 $-1 $58 1 990560828 50 221380610 3 #
face $-1 $139 $140 $21 $-1 $141 reversed single #
loop $-1 $-1 $142 $58 #
plane-surface $-1 0 -5 0 0 1 0 0 0 1 forward_v I I I I #
coedge $-1 $143 $144 $145 $146 forward $59 $-1 #
coedge $-1 $147 $61 $148 $149 forward $40 $-1 #
coedge $-1 $61 $147 $150 $151 forward $40 $-1 #
coedge $-1 $152 $153 $61 $97 reversed $154 $-1 #
edge $-1 $155 -5 $156 5 $96 $157 forward 7 unknown #
face $-1 $158 $159 $23 $-1 $160 reversed single #
loop $-1 $-1 $161 $62 #
plane-surface $-1 0 5 0 0 -1 0 0 0 -1 forward_v I I I I #
coedge $-1 $162 $163 $65 $104 reversed $63 $-1 #
coedge $-1 $164 $65 $165 $166 forward $43 $-1 #
coedge $-1 $65 $164 $167 $168 forward $43 $-1 #
edge $169 $170 -1.8135413955404991 $171 2.3176408404140787 $101 $172 forward 7 unknown #
face $-1 $173 $174 $25 $-1 $175 reversed single #
loop $-1 $-1 $176 $66 #
plane-surface $-1 1.3125000000000013 5 -2.7261843774138912 -0.24999999999999994 3.0616169978683824e-017 -0.96824583655185426 0.96824583655185426 -1.1857591645209797e-016 -0.24999999999999994 forward_v I I I I #
coedge $-1 $177 $178 $109 $179 reversed $67 $-1 #
coedge $-1 $180 $69 $108 $179 forward $46 $-1 #
coedge $-1 $69 $180 $181 $182 forward $46 $-1 #
coedge $-1 $183 $184 $69 $112 reversed $106 $-1 #
edge $185 $186 -7.5000000000000018 $187 2.4999999999999996 $111 $188 forward 7 unknown #
model_id-kcp-attrib $-1 $-1 $-1 $71 1 990560828 50 221380609 6 #
face $189 $-1 $84 $9 $-1 $190 forward single #
loop $-1 $-1 $80 $71 #
plane-surface $-1 0 5 0 0 -1 0 0 0 -1 forward_v I I I I #
coedge $-1 $191 $192 $133 $193 reversed $72 $-1 #
coedge $-1 $194 $74 $83 $135 reversed $50 $-1 #
coedge $-1 $74 $194 $75 $121 reversed $50 $-1 #
coedge $-1 $76 $75 $195 $196 forward $35 $-1 #
edge $197 $126 -1.5000000000000002 $198 1.5 $119 $199 forward 7 unknown #
coedge $-1 $200 $80 $76 $123 reversed $115 $-1 #
edge $201 $202 -1.5 $125 1.5000000000000016 $122 $203 forward 7 unknown #
attrib_edge_convexity-kcp-attrib $-1 $204 $-1 $78 1 #
vertex $-1 $78 $205 #
vertex $-1 $121 $206 #
straight-curve $-1 1.5 1.3363703258023262e-017 -2 -1.2246467991473532e-016 -1 0 I I #
attrib_edge_convexity-kcp-attrib $-1 $207 $-1 $79 1 #
straight-curve $-1 2.0701864591379637 -5 0.20832266047430889 0.24999999999999994 0 0.96824583655185426 I I #
coedge $-1 $80 $200 $82 $134 reversed $115 $-1 #
attrib_edge_convexity-kcp-attrib $-1 $208 $-1 $81 1 #
straight-curve $-1 2.0701864591379651 5 0.20832266047430861 -0.24999999999999994 0 -0.96824583655185426 I I #
coedge $-1 $83 $82 $117 $193 forward $84 $-1 #
edge $-1 $87 -2.5327955589886457 $209 2.5327955589886444 $130 $210 forward 7 unknown #
edge $211 $212 -2.5327955589886444 $86 2.5327955589886444 $118 $213 forward 7 unknown #
convexity-sys-attrib $-1 $-1 $85 $56 #
point $-1 2.5327955589886444 -5 2 #
point $-1 2.5327955589886457 5 2 #
face $214 $215 $216 $21 $-1 $217 reversed single #
loop $-1 $-1 $218 $90 #
plane-surface $-1 -2.5327955589886453 0 0 1 0 0 0 0 -1 forward_v I I I I #
coedge $-1 $219 $150 $220 $221 forward $91 $-1 #
coedge $-1 $222 $93 $219 $223 forward $59 $-1 #
coedge $-1 $93 $222 $224 $225 forward $59 $-1 #
coedge $-1 $153 $152 $93 $146 reversed $154 $-1 #
edge $-1 $226 -5 $227 5 $145 $228 forward 7 unknown #
coedge $-1 $95 $94 $229 $230 forward $40 $-1 #
coedge $-1 $231 $232 $94 $149 reversed $216 $-1 #
edge $-1 $156 -2.5327955589886453 $233 2.5327955589886453 $148 $234 forward 7 unknown #
coedge $-1 $142 $235 $95 $151 reversed $91 $-1 #
edge $-1 $236 -2.5327955589886453 $155 2.5327955589886453 $150 $237 forward 7 unknown #
coedge $-1 $145 $96 $235 $238 forward $154 $-1 #
coedge $-1 $96 $145 $231 $239 reversed $154 $-1 #
loop $-1 $-1 $152 $215 #
vertex $-1 $97 $240 #
vertex $-1 $97 $241 #
straight-curve $-1 2.5327955589886453 0 2 0 1 0 I I #
face $-1 $-1 $242 $23 $-1 $243 reversed single #
loop $-1 $-1 $167 $98 #
plane-surface $-1 0 0 -2 0 0 1 1 0 0 forward_v I I I I #
coedge $-1 $244 $245 $164 $246 reversed $99 $-1 #
coedge $-1 $163 $101 $247 $248 reversed $63 $-1 #
coedge $-1 $101 $162 $249 $250 reversed $63 $-1 #
coedge $-1 $103 $102 $161 $246 forward $43 $-1 #
coedge $-1 $249 $251 $102 $166 reversed $242 $-1 #
edge $252 $171 -5 $253 5 $165 $254 forward 7 unknown #
coedge $-1 $255 $247 $103 $168 reversed $159 $-1 #
edge $256 $257 -5 $170 5 $167 $258 forward 7 unknown #
convexity-sys-attrib $-1 $-1 $-1 $104 #
vertex $-1 $104 $259 #
vertex $-1 $166 $260 #
straight-curve $-1 1.9533853488851247 -5 -0.2440460943534723 0.24999999999999994 0 0.96824583655185426 I I #
face $-1 $-1 $261 $25 $-1 $262 reversed single #
loop $-1 $-1 $181 $105 #
plane-surface $-1 0 -5 0 0 1 0 0 0 1 forward_v I I I I #
coedge $-1 $184 $183 $263 $264 reversed $106 $-1 #
coedge $-1 $178 $108 $184 $265 forward $67 $-1 #
coedge $-1 $108 $177 $266 $267 reversed $67 $-1 #
edge $268 $187 -1.8135413955404986 $269 2.3176408404140791 $108 $270 forward 7 unknown #
coedge $-1 $110 $109 $271 $272 forward $46 $-1 #
coedge $-1 $273 $274 $110 $182 reversed $174 $-1 #
edge $275 $276 -2.3176408404140791 $186 1.8135413955404982 $181 $277 forward 7 unknown #
coedge $-1 $176 $111 $274 $278 reversed $106 $-1 #
coedge $-1 $111 $176 $177 $265 reversed $106 $-1 #
convexity-sys-attrib $-1 $-1 $-1 $112 #
vertex $-1 $278 $279 #
vertex $-1 $179 $280 #
straight-curve $-1 -1.5000000000000024 2.5000000000000004 -2 1.2246467991473532e-016 1 0 I I #
model_id-kcp-attrib $-1 $-1 $-1 $114 1 990560828 50 221380609 7 #
plane-surface $-1 0 0 2 0 0 1 1 0 0 forward_v I I I I #
coedge $-1 $195 $117 $200 $281 reversed $72 $-1 #
coedge $-1 $117 $195 $194 $282 reversed $72 $-1 #
edge $283 $209 -5 $212 5 $133 $284 forward 7 unknown #
coedge $-1 $119 $118 $192 $282 forward $50 $-1 #
coedge $-1 $192 $191 $120 $196 reversed $72 $-1 #
edge $285 $198 -5 $202 5 $120 $286 forward 7 unknown #
attrib_edge_convexity-kcp-attrib $-1 $287 $-1 $121 1 #
vertex $-1 $196 $288 #
straight-curve $-1 0 -5 -2 -1 0 0 I I #
coedge $-1 $130 $122 $191 $281 forward $115 $-1 #
attrib_edge_convexity-kcp-attrib $-1 $289 $-1 $123 1 #
vertex $-1 $123 $290 #
straight-curve $-1 0 5 -2 1 0 0 I I #
convexity-sys-attrib $-1 $-1 $124 $78 #
point $-1 1.5000000000000016 5 -2 #
point $-1 1.5000000000000002 -5 -2 #
convexity-sys-attrib $-1 $-1 $128 $79 #
convexity-sys-attrib $-1 $-1 $131 $81 #
vertex $-1 $281 $291 #
straight-curve $-1 0 5 2 -1 0 0 I I #
attrib_edge_convexity-kcp-attrib $-1 $292 $-1 $135 1 #
vertex $-1 $135 $293 #
straight-curve $-1 0 -5 2 1 0 0 I I #
model_id-kcp-attrib $-1 $-1 $-1 $139 1 990560828 50 221380610 4 #
face $-1 $-1 $154 $21 $-1 $294 reversed single #
loop $-1 $-1 $231 $139 #
plane-surface $-1 0 5 0 0 -1 0 0 0 -1 forward_v I I I I #
coedge $-1 $295 $229 $232 $296 forward $140 $-1 #
coedge $-1 $235 $142 $143 $223 reversed $91 $-1 #
coedge $-1 $229 $295 $142 $221 reversed $140 $-1 #
edge $-1 $236 -2 $297 2 $220 $298 forward 7 unknown #
coedge $-1 $144 $143 $295 $299 forward $59 $-1 #
edge $-1 $227 -2.5327955589886453 $297 2.5327955589886453 $219 $300 forward 7 unknown #
coedge $-1 $232 $231 $144 $225 reversed $216 $-1 #
edge $-1 $301 -2.5327955589886453 $226 2.5327955589886453 $224 $302 forward 7 unknown #
vertex $-1 $146 $303 #
vertex $-1 $238 $304 #
straight-curve $-1 2.5327955589886453 0 -2 0 -1 0 I I #
coedge $-1 $218 $220 $147 $230 reversed $140 $-1 #
edge $-1 $233 -5 $236 5 $229 $305 forward 7 unknown #
coedge $-1 $224 $148 $153 $239 forward $216 $-1 #
coedge $-1 $148 $224 $218 $296 reversed $216 $-1 #
vertex $-1 $149 $306 #
straight-curve $-1 0 5 2 -1 0 0 I I #
coedge $-1 $150 $219 $152 $238 reversed $91 $-1 #
vertex $-1 $230 $307 #
straight-curve $-1 0 -5 2 1 0 0 I I #
edge $-1 $155 -2 $227 2 $152 $308 forward 7 unknown #
edge $-1 $156 -2 $226 2 $153 $309 forward 7 unknown #
point $-1 2.5327955589886453 -5 2 #
point $-1 2.5327955589886453 5 2 #
loop $-1 $-1 $249 $158 #
plane-surface $-1 2.5327955589886453 0 0 -1 0 0 0 0 1 forward_v I I I I #
coedge $-1 $245 $161 $251 $310 forward $99 $-1 #
coedge $-1 $161 $244 $255 $311 reversed $99 $-1 #
edge $312 $253 -2.3176408404140791 $257 1.8135413955404989 $161 $313 forward 7 unknown #
coedge $-1 $167 $314 $162 $248 forward $159 $-1 #
edge $-1 $315 -2.5327955589886453 $170 -1.5000000000000002 $162 $316 forward 7 unknown #
coedge $-1 $317 $165 $163 $250 forward $242 $-1 #
edge $-1 $171 -2 $315 2 $249 $318 forward 7 unknown #
coedge $-1 $165 $317 $244 $310 reversed $242 $-1 #
convexity-sys-attrib $-1 $-1 $-1 $166 #
vertex $-1 $166 $319 #
straight-curve $-1 2.5327955589886453 0 2 0 1 0 I I #
coedge $-1 $314 $167 $245 $311 forward $159 $-1 #
convexity-sys-attrib $-1 $-1 $-1 $168 #
vertex $-1 $311 $320 #
straight-curve $-1 1.5000000000000009 2.0133430247391128e-016 -2 -1.2246467991473532e-016 -1 0 I I #
point $-1 1.5000000000000002 -5 -2 #
point $-1 2.5327955589886453 -5 2 #
loop $-1 $-1 $263 $173 #
plane-surface $-1 -2.5327955589886453 0 0 1 0 0 0 0 -1 forward_v I I I I #
coedge $-1 $321 $266 $176 $264 forward $261 $-1 #
edge $-1 $322 -2.5000000000000009 $323 7.5 $263 $324 forward 7 unknown #
edge $-1 $187 1.9285531322416742 $322 2.99521979890834 $177 $325 forward 7 unknown #
coedge $-1 $263 $271 $178 $267 forward $261 $-1 #
edge $-1 $269 -2 $322 1.7333333333333336 $178 $326 forward 7 unknown #
convexity-sys-attrib $-1 $-1 $-1 $179 #
vertex $-1 $179 $327 #
straight-curve $-1 -1.9533853488851269 5 -0.24404609435347291 -0.24999999999999994 0 0.96824583655185426 I I #
coedge $-1 $266 $321 $180 $272 reversed $261 $-1 #
edge $328 $269 -5 $276 5 $271 $329 forward 7 unknown #
coedge $-1 $274 $181 $321 $330 forward $174 $-1 #
coedge $-1 $181 $273 $183 $278 forward $174 $-1 #
convexity-sys-attrib $-1 $-1 $-1 $182 #
vertex $-1 $272 $331 #
straight-curve $-1 -1.9533853488851269 -5 -0.24404609435347291 0.24999999999999994 0 -0.96824583655185426 I I #
edge $-1 $323 -2.99521979890834 $186 -1.928553132241676 $274 $332 forward 7 unknown #
point $-1 -1.5000000000000031 -5.0000000000000009 -2 #
point $-1 -1.5000000000000013 5 -2 #
edge $333 $202 -2.2807458365518545 $209 1.8504363994027235 $200 $334 forward 7 unknown #
edge $335 $212 -1.8504363994027235 $198 2.2807458365518545 $194 $336 forward 7 unknown #
attrib_edge_convexity-kcp-attrib $-1 $337 $-1 $193 1 #
straight-curve $-1 -2.5327955589886448 0 2 0 -1 0 I I #
attrib_edge_convexity-kcp-attrib $-1 $338 $-1 $196 1 #
straight-curve $-1 -1.4999999999999996 0 -2 0 1 0 I I #
convexity-sys-attrib $-1 $-1 $197 $121 #
point $-1 -1.5 -5 -2 #
convexity-sys-attrib $-1 $-1 $201 $123 #
point $-1 -1.5 5 -2 #
point $-1 -2.5327955589886444 5 2 #
convexity-sys-attrib $-1 $-1 $211 $135 #
point $-1 -2.5327955589886444 -5 2 #
plane-surface $-1 2.5327955589886453 0 0 -1 0 0 0 0 1 forward_v I I I I #
coedge $-1 $220 $218 $222 $299 reversed $140 $-1 #
edge $-1 $233 -2 $301 2 $232 $339 forward 7 unknown #
vertex $-1 $299 $340 #
straight-curve $-1 -2.5327955589886453 -5 0 0 0 -1 I I #
edge $-1 $297 -5 $301 5 $295 $341 forward 7 unknown #
straight-curve $-1 0 -5 -2 -1 0 0 I I #
vertex $-1 $225 $342 #
straight-curve $-1 0 5 -2 1 0 0 I I #
point $-1 2.5327955589886453 5 -2 #
point $-1 2.5327955589886453 -5 -2 #
straight-curve $-1 -2.5327955589886453 0 2 0 -1 0 I I #
point $-1 -2.5327955589886453 5 2 #
point $-1 -2.5327955589886453 -5 2 #
straight-curve $-1 2.5327955589886453 -5 0 0 0 -1 I I #
straight-curve $-1 2.5327955589886453 5 0 0 0 -1 I I #
edge $-1 $253 -2 $343 2 $251 $344 forward 7 unknown #
edge $-1 $257 1.5000000000000013 $343 2.5327955589886453 $245 $345 forward 7 unknown #
convexity-sys-attrib $-1 $-1 $-1 $246 #
straight-curve $-1 1.9533853488851258 5 -0.2440460943534726 -0.24999999999999994 0 -0.96824583655185426 I I #
coedge $-1 $247 $255 $317 $346 forward $159 $-1 #
vertex $-1 $250 $347 #
straight-curve $-1 0 -5 -2 -1 0 0 I I #
coedge $-1 $251 $249 $314 $346 reversed $242 $-1 #
straight-curve $-1 2.5327955589886453 -5 0 0 0 -1 I I #
point $-1 2.5327955589886453 5 2 #
point $-1 1.5000000000000013 5 -2 #
coedge $-1 $271 $263 $273 $330 reversed $261 $-1 #
vertex $-1 $265 $348 #
vertex $-1 $264 $349 #
straight-curve $-1 -2.5327955589886448 2.5 -1.7333333333333334 0 -1 -3.1620244387226113e-017 I I #
straight-curve $-1 0.36731354086203716 5 -2.4821382830604186 -0.96824583655185426 0 0.24999999999999994 I I #
straight-curve $-1 -2.5327955589886453 5 0 0 0 -1 I I #
point $-1 -2.5327955589886453 5 2 #
convexity-sys-attrib $-1 $-1 $-1 $272 #
straight-curve $-1 -2.5327955589886453 0 2 0 -1 0 I I #
edge $-1 $276 -2 $323 1.7333333333333341 $321 $350 forward 7 unknown #
point $-1 -2.5327955589886453 -5 2 #
straight-curve $-1 0.36731354086203705 -5 -2.4821382830604186 0.96824583655185426 0 -0.24999999999999994 I I #
attrib_edge_convexity-kcp-attrib $-1 $351 $-1 $281 1 #
straight-curve $-1 -2.0701864591379637 5 0.20832266047430886 -0.24999999999999994 0 0.96824583655185426 I I #
attrib_edge_convexity-kcp-attrib $-1 $352 $-1 $282 1 #
straight-curve $-1 -2.0701864591379637 -5 0.20832266047430886 0.24999999999999994 0 -0.96824583655185426 I I #
convexity-sys-attrib $-1 $-1 $283 $193 #
convexity-sys-attrib $-1 $-1 $285 $196 #
straight-curve $-1 -2.5327955589886453 5 0 0 0 -1 I I #
point $-1 -2.5327955589886453 -5 -2 #
straight-curve $-1 -2.5327955589886453 0 -2 0 1 0 I I #
point $-1 -2.5327955589886453 5 -2 #
vertex $-1 $346 $353 #
straight-curve $-1 2.5327955589886453 5 0 0 0 -1 I I #
straight-curve $-1 0 5 -2 1 0 0 I I #
edge $-1 $343 -5 $315 5 $317 $354 forward 7 unknown #
point $-1 2.5327955589886453 -5 -2 #
point $-1 -2.5327955589886453 5.0000000000000009 -1.7333333333333336 #
point $-1 -2.5327955589886453 -5 -1.7333333333333341 #
straight-curve $-1 -2.5327955589886453 -5 0 0 0 -1 I I #
convexity-sys-attrib $-1 $-1 $333 $281 #
convexity-sys-attrib $-1 $-1 $335 $282 #
point $-1 2.5327955589886453 5 -2 #
straight-curve $-1 2.5327955589886453 0 -2 0 -1 0 I I #
End-of-ACIS-data 