600 0 2 0           
24 FBMach with ACIS - 6.0.3 13 ACIS 6.0.3 NT 24 Mon Apr 01 16:23:02 2002 
1 9.9999999999999995e-007 1e-010 
body $2 $3 $-1 $4 #
bdycol-kcp $-1 1 3 $5 $6 $7 #
model_id-kcp-attrib $-1 $8 $-1 $0 1 1017696182 60 1748762625 1 #
lump $-1 $-1 $9 $0 #
transform $-1 1 -7.7037197775489434e-033 0 -7.7037197775489434e-033 1 0 0 0 1 0 0 0 1 rotate no_reflect no_shear #
body $10 $11 $-1 $12 #
body $13 $14 $-1 $15 #
body $16 $17 $-1 $18 #
aggregate_advspl_attribute-aggregate_geombuild_base_attribute-aggregate_body_attribute-attrib_HH-attrib $-1 $19 $2 $0 F #
shell $-1 $-1 $-1 $20 $-1 $3 #
model_id-kcp-attrib $-1 $-1 $-1 $5 1 1017696182 60 1748762626 1 #
lump $-1 $-1 $21 $5 #
transform $-1 1 0 0 0 1 0 0 0 1 3.0000000000000009 5 2 1 no_rotate no_reflect no_shear #
rgb_color-st-attrib $-1 $22 $-1 $6 0.5 0.5 1 #
lump $-1 $-1 $23 $6 #
transform $-1 1 0 0 0 1 0 0 0 1 3.0000000000000009 5 2 1 no_rotate no_reflect no_shear #
rgb_color-st-attrib $-1 $24 $-1 $7 0.5 0.5 1 #
lump $-1 $-1 $25 $7 #
transform $-1 1 0 0 0 1 0 0 0 1 3.0000000000000009 5 2 1 no_rotate no_reflect no_shear #
aggregate_secndry_attribute-aggregate_geombuild_base_attribute-aggregate_body_attribute-attrib_HH-attrib $-1 $26 $8 $0 F #
face $27 $28 $29 $9 $-1 $30 forward single #
shell $-1 $-1 $-1 $31 $-1 $11 #
model_id-kcp-attrib $-1 $-1 $13 $6 1 1017696182 220 1759248387 1 #
shell $-1 $-1 $-1 $32 $-1 $14 #
model_id-kcp-attrib $-1 $-1 $16 $7 1 1017696182 230 1759903748 1 #
shell $-1 $-1 $-1 $33 $-1 $17 #
aggregate_sharped_attribute-aggregate_geombuild_base_attribute-aggregate_body_attribute-attrib_HH-attrib $-1 $34 $19 $0 F #
model_id-kcp-attrib $-1 $35 $-1 $20 1 1017696182 60 1748762625 2 #
face $36 $37 $38 $9 $-1 $39 reversed single #
loop $-1 $-1 $40 $20 #
plane-surface $-1 5.2500000000000009 5 2.904737509655563 0.96824583655185426 -1.1857591645209797e-016 -0.24999999999999994 0.24999999999999994 -3.0616169978683824e-017 0.96824583655185426 forward_v I I I I #
face $41 $42 $43 $21 $-1 $44 forward single #
face $-1 $45 $46 $23 $-1 $47 reversed single #
face $-1 $48 $49 $25 $-1 $50 reversed single #
aggregate_reblend_attribute-aggregate_geombuild_base_attribute-aggregate_body_attribute-attrib_HH-attrib $-1 $51 $26 $0 F #
attrib_hh_face_geombuild-attrib_entity_geombuild-individual_entity_attribute-attrib_HH-attrib $-1 $-1 $27 $20 F #
model_id-kcp-attrib $-1 $52 $-1 $28 1 1017696182 60 1748762625 3 #
face $53 $54 $55 $9 $-1 $56 reversed single #
loop $-1 $-1 $57 $28 #
plane-surface $-1 3 5 0 0 0 1 1 0 0 forward_v I I I I #
coedge $58 $59 $60 $61 $62 reversed $29 $-1 #
model_id-kcp-attrib $-1 $-1 $-1 $31 1 1017696182 60 1748762626 5 #
face $63 $64 $65 $21 $-1 $66 reversed single #
loop $-1 $-1 $67 $31 #
plane-surface $-1 0 0 2 0 0 1 1 0 0 forward_v I I I I #
face $-1 $68 $69 $23 $-1 $70 reversed single #
loop $-1 $-1 $71 $32 #
plane-surface $-1 2.0163977794943229 5.2312513604547338e-016 4.4408920985006262e-016 0.96824583655185426 -1.1857591645209797e-016 -0.24999999999999994 1.2246467991473532e-016 1 0 forward_v I I I I #
face $-1 $72 $73 $25 $-1 $74 reversed single #
loop $-1 $-1 $75 $33 #
plane-surface $-1 -2.0163977794943264 0 0 -0.96824583655185426 0 -0.24999999999999994 0 -1 0 forward_v I I I I #
aggregate_isospline_attribute-aggregate_geombuild_base_attribute-aggregate_body_attribute-attrib_HH-attrib $-1 $76 $34 $0 F #
attrib_hh_face_geombuild-attrib_entity_geombuild-individual_entity_attribute-attrib_HH-attrib $-1 $-1 $36 $28 F #
model_id-kcp-attrib $-1 $77 $-1 $37 1 1017696182 60 1748762625 4 #
face $78 $79 $80 $9 $-1 $81 forward single #
loop $-1 $-1 $82 $37 #
plane-surface $-1 3 0 2 0 1 0 0 0 1 forward_v I I I I #
coedge $83 $84 $85 $86 $87 forward $38 $-1 #
attrib_hh_coedge_geombuild-attrib_entity_geombuild-individual_entity_attribute-attrib_HH-attrib $-1 $-1 $-1 $40 F #
coedge $88 $86 $40 $82 $89 reversed $29 $-1 #
coedge $90 $40 $86 $91 $92 reversed $29 $-1 #
coedge $93 $94 $95 $40 $62 forward $96 $-1 #
edge $97 $98 -5 $99 5 $61 $100 forward 7 unknown #
model_id-kcp-attrib $-1 $-1 $-1 $42 1 1017696182 60 1748762626 2 #
face $101 $102 $103 $21 $-1 $104 reversed single #
loop $-1 $-1 $105 $42 #
plane-surface $-1 0 0 -2 0 0 1 1 0 0 forward_v I I I I #
coedge $-1 $106 $107 $108 $109 forward $43 $-1 #
face $-1 $110 $111 $23 $-1 $112 reversed single #
loop $-1 $-1 $113 $45 #
plane-surface $-1 0 -5 0 0 1 0 0 0 1 forward_v I I I I #
coedge $-1 $114 $115 $113 $116 forward $46 $-1 #
face $-1 $117 $118 $25 $-1 $119 forward single #
loop $-1 $-1 $120 $48 #
plane-surface $-1 0 5 0 0 -1 0 0 0 -1 forward_v I I I I #
coedge $-1 $121 $122 $123 $124 forward $49 $-1 #
aggregate_analytic_solver_attribute-aggregate_geombuild_base_attribute-aggregate_body_attribute-attrib_HH-attrib $-1 $125 $51 $0 F #
attrib_hh_face_geombuild-attrib_entity_geombuild-individual_entity_attribute-attrib_HH-attrib $-1 $-1 $53 $37 F #
model_id-kcp-attrib $-1 $126 $-1 $54 1 1017696182 60 1748762625 5 #
face $127 $128 $129 $9 $-1 $130 reversed single #
loop $-1 $-1 $131 $54 #
plane-surface $-1 0.75 5 2.904737509655563 -0.96824583655185426 0 -0.24999999999999994 -0.24999999999999994 0 0.96824583655185426 forward_v I I I I #
coedge $132 $133 $134 $59 $89 forward $55 $-1 #
attrib_hh_coedge_geombuild-attrib_entity_geombuild-individual_entity_attribute-attrib_HH-attrib $-1 $-1 $-1 $57 F #
coedge $135 $136 $57 $134 $137 forward $38 $-1 #
coedge $138 $57 $136 $139 $140 forward $38 $-1 #
coedge $141 $60 $59 $57 $87 reversed $29 $-1 #
edge $142 $143 -5 $144 5 $57 $145 forward 7 unknown #
attrib_hh_coedge_geombuild-attrib_entity_geombuild-individual_entity_attribute-attrib_HH-attrib $-1 $-1 $-1 $59 F #
edge $146 $144 -2.2807458365518545 $98 1.8504363994027235 $82 $147 forward 7 unknown #
attrib_hh_coedge_geombuild-attrib_entity_geombuild-individual_entity_attribute-attrib_HH-attrib $-1 $-1 $-1 $60 F #
coedge $148 $139 $149 $60 $92 forward $129 $-1 #
edge $150 $99 -1.850436399402724 $143 2.280745836551854 $91 $151 forward 7 unknown #
attrib_hh_coedge_geombuild-attrib_entity_geombuild-individual_entity_attribute-attrib_HH-attrib $-1 $-1 $-1 $61 F #
coedge $152 $153 $61 $149 $154 forward $96 $-1 #
coedge $155 $61 $153 $133 $156 forward $96 $-1 #
loop $-1 $-1 $61 $128 #
attrib_edge_convexity-kcp-attrib $-1 $157 $-1 $62 1 #
vertex $158 $89 $159 #
vertex $160 $154 $161 #
straight-curve $-1 5.5327955589886457 5 4 1.2246467991473532e-016 1 0 I I #
model_id-kcp-attrib $-1 $-1 $-1 $64 1 1017696182 60 1748762626 3 #
face $-1 $162 $163 $21 $-1 $164 reversed single #
loop $-1 $-1 $165 $64 #
plane-surface $-1 0 -5 0 0 1 0 0 0 1 forward_v I I I I #
coedge $-1 $166 $167 $168 $169 forward $65 $-1 #
coedge $-1 $170 $67 $171 $172 forward $43 $-1 #
coedge $-1 $67 $170 $173 $174 forward $43 $-1 #
coedge $-1 $175 $176 $67 $109 reversed $177 $-1 #
edge $-1 $178 -5 $179 5 $108 $180 forward 7 unknown #
face $-1 $181 $182 $23 $-1 $183 reversed single #
loop $-1 $-1 $184 $68 #
plane-surface $-1 0 5 0 0 -1 0 0 0 -1 forward_v I I I I #
coedge $-1 $185 $186 $71 $116 reversed $69 $-1 #
coedge $-1 $187 $71 $188 $189 forward $46 $-1 #
coedge $-1 $71 $187 $190 $191 forward $46 $-1 #
edge $192 $193 -1.8135413955404991 $194 2.3176408404140791 $113 $195 forward 7 unknown #
face $-1 $196 $197 $25 $-1 $198 reversed single #
loop $-1 $-1 $199 $72 #
plane-surface $-1 1.3125000000000009 5 -2.7261843774138907 -0.24999999999999994 3.0616169978683824e-017 -0.96824583655185426 0.96824583655185426 -1.1857591645209797e-016 -0.24999999999999994 forward_v I I I I #
coedge $-1 $200 $201 $121 $202 reversed $73 $-1 #
coedge $-1 $203 $75 $120 $202 forward $49 $-1 #
coedge $-1 $75 $203 $204 $205 forward $49 $-1 #
coedge $-1 $206 $207 $75 $124 reversed $118 $-1 #
edge $208 $209 -7.5000000000000018 $210 2.4999999999999996 $123 $211 forward 7 unknown #
aggregate_geombuild_attribute-aggregate_geombuild_base_attribute-aggregate_body_attribute-attrib_HH-attrib $-1 $212 $76 $0 #
attrib_hh_face_geombuild-attrib_entity_geombuild-individual_entity_attribute-attrib_HH-attrib $-1 $-1 $78 $54 F #
model_id-kcp-attrib $-1 $213 $-1 $79 1 1017696182 60 1748762625 6 #
face $214 $-1 $96 $9 $-1 $215 forward single #
loop $-1 $-1 $91 $79 #
plane-surface $-1 3 10 2 0 -1 0 0 0 -1 forward_v I I I I #
coedge $216 $217 $218 $153 $219 reversed $80 $-1 #
attrib_hh_coedge_geombuild-attrib_entity_geombuild-individual_entity_attribute-attrib_HH-attrib $-1 $-1 $-1 $82 F #
coedge $220 $221 $82 $95 $156 reversed $55 $-1 #
coedge $222 $82 $221 $84 $137 reversed $55 $-1 #
attrib_hh_coedge_geombuild-attrib_entity_geombuild-individual_entity_attribute-attrib_HH-attrib $-1 $-1 $-1 $84 F #
coedge $223 $85 $84 $224 $225 forward $38 $-1 #
edge $226 $144 -1.5 $227 1.5 $134 $228 forward 7 unknown #
attrib_hh_coedge_geombuild-attrib_entity_geombuild-individual_entity_attribute-attrib_HH-attrib $-1 $-1 $-1 $85 F #
coedge $229 $230 $91 $85 $140 reversed $129 $-1 #
edge $231 $232 -1.5 $143 1.5000000000000018 $139 $233 forward 7 unknown #
attrib_hh_coedge_geombuild-attrib_entity_geombuild-individual_entity_attribute-attrib_HH-attrib $-1 $-1 $-1 $86 F #
attrib_edge_convexity-kcp-attrib $-1 $234 $-1 $87 1 #
vertex $235 $87 $236 #
vertex $237 $137 $238 #
straight-curve $-1 4.5 5 0 -1.2246467991473532e-016 -1 0 I I #
attrib_edge_convexity-kcp-attrib $-1 $239 $-1 $89 1 #
straight-curve $-1 5.0701864591379637 0 2.2083226604743089 0.24999999999999994 0 0.96824583655185426 I I #
attrib_hh_coedge_geombuild-attrib_entity_geombuild-individual_entity_attribute-attrib_HH-attrib $-1 $-1 $-1 $91 F #
coedge $240 $91 $230 $94 $154 reversed $129 $-1 #
attrib_edge_convexity-kcp-attrib $-1 $241 $-1 $92 1 #
straight-curve $-1 5.0701864591379646 10 2.2083226604743085 -0.24999999999999994 0 -0.96824583655185426 I I #
attrib_hh_coedge_geombuild-attrib_entity_geombuild-individual_entity_attribute-attrib_HH-attrib $-1 $-1 $-1 $94 F #
coedge $242 $95 $94 $131 $219 forward $96 $-1 #
edge $243 $99 -2.5327955589886457 $244 2.5327955589886444 $149 $245 forward 7 unknown #
attrib_hh_coedge_geombuild-attrib_entity_geombuild-individual_entity_attribute-attrib_HH-attrib $-1 $-1 $-1 $95 F #
edge $246 $247 -2.5327955589886444 $98 2.5327955589886439 $133 $248 forward 7 unknown #
convexity-sys-attrib $-1 $249 $97 $62 #
attrib_hh_vertex_geombuild-attrib_entity_geombuild-individual_entity_attribute-attrib_HH-attrib $-1 $-1 $-1 $98 F #
point $-1 5.5327955589886439 0 4 #
attrib_hh_vertex_geombuild-attrib_entity_geombuild-individual_entity_attribute-attrib_HH-attrib $-1 $-1 $-1 $99 F #
point $-1 5.5327955589886457 10 4 #
face $250 $251 $252 $21 $-1 $253 reversed single #
loop $-1 $-1 $254 $102 #
plane-surface $-1 -2.5327955589886457 0 0 1 0 0 0 0 -1 forward_v I I I I #
coedge $-1 $255 $173 $256 $257 forward $103 $-1 #
coedge $-1 $258 $105 $255 $259 forward $65 $-1 #
coedge $-1 $105 $258 $260 $261 forward $65 $-1 #
coedge $-1 $176 $175 $105 $169 reversed $177 $-1 #
edge $-1 $262 -5 $263 5 $168 $264 forward 7 unknown #
coedge $-1 $107 $106 $265 $266 forward $43 $-1 #
coedge $-1 $267 $268 $106 $172 reversed $252 $-1 #
edge $-1 $179 -2.5327955589886457 $269 2.5327955589886457 $171 $270 forward 7 unknown #
coedge $-1 $165 $271 $107 $174 reversed $103 $-1 #
edge $-1 $272 -2.5327955589886457 $178 2.5327955589886457 $173 $273 forward 7 unknown #
coedge $-1 $168 $108 $271 $274 forward $177 $-1 #
coedge $-1 $108 $168 $267 $275 reversed $177 $-1 #
loop $-1 $-1 $175 $251 #
vertex $-1 $109 $276 #
vertex $-1 $109 $277 #
straight-curve $-1 2.5327955589886457 0 2 0 1 0 I I #
face $-1 $-1 $278 $23 $-1 $279 reversed single #
loop $-1 $-1 $190 $110 #
plane-surface $-1 0 0 -2 0 0 1 1 0 0 forward_v I I I I #
coedge $-1 $280 $281 $187 $282 reversed $111 $-1 #
coedge $-1 $186 $113 $283 $284 reversed $69 $-1 #
coedge $-1 $113 $185 $285 $286 reversed $69 $-1 #
coedge $-1 $115 $114 $184 $282 forward $46 $-1 #
coedge $-1 $285 $287 $114 $189 reversed $278 $-1 #
edge $288 $194 -5 $289 5 $188 $290 forward 7 unknown #
coedge $-1 $291 $283 $115 $191 reversed $182 $-1 #
edge $292 $293 -5 $193 5 $190 $294 forward 7 unknown #
convexity-sys-attrib $-1 $-1 $-1 $116 #
vertex $-1 $116 $295 #
vertex $-1 $189 $296 #
straight-curve $-1 1.9533853488851247 -5 -0.2440460943534723 0.24999999999999994 0 0.96824583655185426 I I #
face $-1 $-1 $297 $25 $-1 $298 reversed single #
loop $-1 $-1 $204 $117 #
plane-surface $-1 0 -5 0 0 1 0 0 0 1 forward_v I I I I #
coedge $-1 $207 $206 $299 $300 reversed $118 $-1 #
coedge $-1 $201 $120 $207 $301 forward $73 $-1 #
coedge $-1 $120 $200 $302 $303 reversed $73 $-1 #
edge $304 $210 -1.8135413955404995 $305 2.3176408404140787 $120 $306 forward 7 unknown #
coedge $-1 $122 $121 $307 $308 forward $49 $-1 #
coedge $-1 $309 $310 $122 $205 reversed $197 $-1 #
edge $311 $312 -2.3176408404140787 $209 1.8135413955404991 $204 $313 forward 7 unknown #
coedge $-1 $199 $123 $310 $314 reversed $118 $-1 #
coedge $-1 $123 $199 $200 $301 reversed $118 $-1 #
convexity-sys-attrib $-1 $-1 $-1 $124 #
vertex $-1 $314 $315 #
vertex $-1 $202 $316 #
straight-curve $-1 -1.4999999999999991 2.5000000000000004 -2 1.2246467991473532e-016 1 0 I I #
aggregate_stitch_attribute-aggregate_stitch_base_attribute-aggregate_body_attribute-attrib_HH-attrib $-1 $317 $125 $0 F #
attrib_hh_face_geombuild-attrib_entity_geombuild-individual_entity_attribute-attrib_HH-attrib $-1 $-1 $127 $79 F #
model_id-kcp-attrib $-1 $318 $-1 $128 1 1017696182 60 1748762625 7 #
plane-surface $-1 3 5 4 0 0 1 1 0 0 forward_v I I I I #
attrib_hh_coedge_geombuild-attrib_entity_geombuild-individual_entity_attribute-attrib_HH-attrib $-1 $-1 $-1 $131 F #
coedge $319 $224 $131 $230 $320 reversed $80 $-1 #
coedge $321 $131 $224 $221 $322 reversed $80 $-1 #
edge $323 $244 -5 $247 5 $153 $324 forward 7 unknown #
attrib_hh_coedge_geombuild-attrib_entity_geombuild-individual_entity_attribute-attrib_HH-attrib $-1 $-1 $-1 $133 F #
coedge $325 $134 $133 $218 $322 forward $55 $-1 #
attrib_hh_coedge_geombuild-attrib_entity_geombuild-individual_entity_attribute-attrib_HH-attrib $-1 $-1 $-1 $134 F #
attrib_hh_coedge_geombuild-attrib_entity_geombuild-individual_entity_attribute-attrib_HH-attrib $-1 $-1 $-1 $136 F #
coedge $326 $218 $217 $136 $225 reversed $80 $-1 #
edge $327 $227 -5 $232 5 $136 $328 forward 7 unknown #
attrib_edge_convexity-kcp-attrib $-1 $329 $-1 $137 1 #
vertex $330 $225 $331 #
straight-curve $-1 3 0 0 -1 0 0 I I #
attrib_hh_coedge_geombuild-attrib_entity_geombuild-individual_entity_attribute-attrib_HH-attrib $-1 $-1 $-1 $139 F #
coedge $332 $149 $139 $217 $320 forward $129 $-1 #
attrib_edge_convexity-kcp-attrib $-1 $333 $-1 $140 1 #
vertex $334 $140 $335 #
straight-curve $-1 3 10 0 1 0 0 I I #
convexity-sys-attrib $-1 $336 $142 $87 #
attrib_hh_vertex_geombuild-attrib_entity_geombuild-individual_entity_attribute-attrib_HH-attrib $-1 $-1 $-1 $143 F #
point $-1 4.5000000000000018 10 0 #
attrib_hh_vertex_geombuild-attrib_entity_geombuild-individual_entity_attribute-attrib_HH-attrib $-1 $-1 $-1 $144 F #
point $-1 4.5 0 0 #
convexity-sys-attrib $-1 $337 $146 $89 #
attrib_hh_coedge_geombuild-attrib_entity_geombuild-individual_entity_attribute-attrib_HH-attrib $-1 $-1 $-1 $149 F #
convexity-sys-attrib $-1 $338 $150 $92 #
attrib_hh_coedge_geombuild-attrib_entity_geombuild-individual_entity_attribute-attrib_HH-attrib $-1 $-1 $-1 $153 F #
attrib_hh_edge_geombuild-attrib_entity_geombuild-individual_entity_attribute-attrib_HH-attrib $-1 $-1 $-1 $154 F #
vertex $339 $320 $340 #
straight-curve $-1 3 10 4 -1 0 0 I I #
attrib_edge_convexity-kcp-attrib $-1 $341 $-1 $156 1 #
vertex $342 $156 $343 #
straight-curve $-1 3 0 4 1 0 0 I I #
attrib_hh_edge_geombuild-attrib_entity_geombuild-individual_entity_attribute-attrib_HH-attrib $-1 $-1 $157 $62 F #
model_id-kcp-attrib $-1 $-1 $-1 $162 1 1017696182 60 1748762626 4 #
face $-1 $-1 $177 $21 $-1 $344 reversed single #
loop $-1 $-1 $267 $162 #
plane-surface $-1 0 5 0 0 -1 0 0 0 -1 forward_v I I I I #
coedge $-1 $345 $265 $268 $346 forward $163 $-1 #
coedge $-1 $271 $165 $166 $259 reversed $103 $-1 #
coedge $-1 $265 $345 $165 $257 reversed $163 $-1 #
edge $-1 $272 -2 $347 2 $256 $348 forward 7 unknown #
coedge $-1 $167 $166 $345 $349 forward $65 $-1 #
edge $-1 $263 -2.5327955589886457 $347 2.5327955589886457 $255 $350 forward 7 unknown #
coedge $-1 $268 $267 $167 $261 reversed $252 $-1 #
edge $-1 $351 -2.5327955589886457 $262 2.5327955589886457 $260 $352 forward 7 unknown #
vertex $-1 $169 $353 #
vertex $-1 $274 $354 #
straight-curve $-1 2.5327955589886457 0 -2 0 -1 0 I I #
coedge $-1 $254 $256 $170 $266 reversed $163 $-1 #
edge $-1 $269 -5 $272 5 $265 $355 forward 7 unknown #
coedge $-1 $260 $171 $176 $275 forward $252 $-1 #
coedge $-1 $171 $260 $254 $346 reversed $252 $-1 #
vertex $-1 $172 $356 #
straight-curve $-1 0 5 2 -1 0 0 I I #
coedge $-1 $173 $255 $175 $274 reversed $103 $-1 #
vertex $-1 $266 $357 #
straight-curve $-1 0 -5 2 1 0 0 I I #
edge $-1 $178 -2 $263 2 $175 $358 forward 7 unknown #
edge $-1 $179 -2 $262 2 $176 $359 forward 7 unknown #
point $-1 2.5327955589886457 -5 2 #
point $-1 2.5327955589886457 5 2 #
loop $-1 $-1 $285 $181 #
plane-surface $-1 2.5327955589886457 0 0 -1 0 0 0 0 1 forward_v I I I I #
coedge $-1 $281 $184 $287 $360 forward $111 $-1 #
coedge $-1 $184 $280 $291 $361 reversed $111 $-1 #
edge $362 $289 -2.3176408404140791 $293 1.8135413955404989 $184 $363 forward 7 unknown #
coedge $-1 $190 $364 $185 $284 forward $182 $-1 #
edge $-1 $365 -2.5327955589886457 $193 -1.5000000000000002 $185 $366 forward 7 unknown #
coedge $-1 $367 $188 $186 $286 forward $278 $-1 #
edge $-1 $194 -2 $365 2 $285 $368 forward 7 unknown #
coedge $-1 $188 $367 $280 $360 reversed $278 $-1 #
convexity-sys-attrib $-1 $-1 $-1 $189 #
vertex $-1 $189 $369 #
straight-curve $-1 2.5327955589886457 0 2 0 1 0 I I #
coedge $-1 $364 $190 $281 $361 forward $182 $-1 #
convexity-sys-attrib $-1 $-1 $-1 $191 #
vertex $-1 $361 $370 #
straight-curve $-1 1.5000000000000009 2.0133430247391128e-016 -2 -1.2246467991473532e-016 -1 0 I I #
point $-1 1.5000000000000002 -5 -2 #
point $-1 2.5327955589886457 -5 2 #
loop $-1 $-1 $299 $196 #
plane-surface $-1 -2.5327955589886457 0 0 1 0 0 0 0 -1 forward_v I I I I #
coedge $-1 $371 $302 $199 $300 forward $297 $-1 #
edge $-1 $372 -2.5000000000000009 $373 7.5 $299 $374 forward 7 unknown #
edge $-1 $210 1.9285531322416725 $372 2.9952197989083404 $200 $375 forward 7 unknown #
coedge $-1 $299 $307 $201 $303 forward $297 $-1 #
edge $-1 $305 -2 $372 1.7333333333333332 $201 $376 forward 7 unknown #
convexity-sys-attrib $-1 $-1 $-1 $202 #
vertex $-1 $202 $377 #
straight-curve $-1 -1.9533853488851287 5 -0.24404609435347313 -0.24999999999999994 0 0.96824583655185426 I I #
coedge $-1 $302 $371 $203 $308 reversed $297 $-1 #
edge $378 $305 -5 $312 5 $307 $379 forward 7 unknown #
coedge $-1 $310 $204 $371 $380 forward $197 $-1 #
coedge $-1 $204 $309 $206 $314 forward $197 $-1 #
convexity-sys-attrib $-1 $-1 $-1 $205 #
vertex $-1 $308 $381 #
straight-curve $-1 -1.9533853488851287 -5 -0.24404609435347313 0.24999999999999994 0 -0.96824583655185426 I I #
edge $-1 $373 -2.99521979890834 $209 -1.9285531322416742 $310 $382 forward 7 unknown #
point $-1 -1.5000000000000018 -5.0000000000000009 -2 #
point $-1 -1.5 5 -2 #
aggregate_simgeom_attribute-aggregate_simgeom_base_attribute-aggregate_body_attribute-attrib_HH-attrib $-1 $383 $212 $0 F #
attrib_hh_face_geombuild-attrib_entity_geombuild-individual_entity_attribute-attrib_HH-attrib $-1 $-1 $214 $128 F #
attrib_hh_coedge_geombuild-attrib_entity_geombuild-individual_entity_attribute-attrib_HH-attrib $-1 $-1 $-1 $217 F #
edge $384 $232 -2.2807458365518545 $244 1.8504363994027235 $230 $385 forward 7 unknown #
attrib_hh_coedge_geombuild-attrib_entity_geombuild-individual_entity_attribute-attrib_HH-attrib $-1 $-1 $-1 $218 F #
edge $386 $247 -1.8504363994027235 $227 2.2807458365518545 $221 $387 forward 7 unknown #
attrib_edge_convexity-kcp-attrib $-1 $388 $-1 $219 1 #
straight-curve $-1 0.46720444101135516 5 4 0 -1 0 I I #
attrib_hh_coedge_geombuild-attrib_entity_geombuild-individual_entity_attribute-attrib_HH-attrib $-1 $-1 $-1 $221 F #
attrib_hh_coedge_geombuild-attrib_entity_geombuild-individual_entity_attribute-attrib_HH-attrib $-1 $-1 $-1 $224 F #
attrib_edge_convexity-kcp-attrib $-1 $389 $-1 $225 1 #
straight-curve $-1 1.5000000000000004 5 0 0 1 0 I I #
convexity-sys-attrib $-1 $390 $226 $137 #
attrib_hh_vertex_geombuild-attrib_entity_geombuild-individual_entity_attribute-attrib_HH-attrib $-1 $-1 $-1 $227 F #
point $-1 1.5 0 0 #
attrib_hh_coedge_geombuild-attrib_entity_geombuild-individual_entity_attribute-attrib_HH-attrib $-1 $-1 $-1 $230 F #
convexity-sys-attrib $-1 $391 $231 $140 #
attrib_hh_vertex_geombuild-attrib_entity_geombuild-individual_entity_attribute-attrib_HH-attrib $-1 $-1 $-1 $232 F #
point $-1 1.5 10 0 #
attrib_hh_edge_geombuild-attrib_entity_geombuild-individual_entity_attribute-attrib_HH-attrib $-1 $-1 $234 $87 F #
attrib_hh_edge_geombuild-attrib_entity_geombuild-individual_entity_attribute-attrib_HH-attrib $-1 $-1 $239 $89 F #
attrib_hh_edge_geombuild-attrib_entity_geombuild-individual_entity_attribute-attrib_HH-attrib $-1 $-1 $241 $92 F #
attrib_hh_vertex_geombuild-attrib_entity_geombuild-individual_entity_attribute-attrib_HH-attrib $-1 $-1 $-1 $244 F #
point $-1 0.46720444101135561 10 4 #
convexity-sys-attrib $-1 $392 $246 $156 #
attrib_hh_vertex_geombuild-attrib_entity_geombuild-individual_entity_attribute-attrib_HH-attrib $-1 $-1 $-1 $247 F #
point $-1 0.46720444101135561 0 4 #
plane-surface $-1 2.5327955589886457 0 0 -1 0 0 0 0 1 forward_v I I I I #
coedge $-1 $256 $254 $258 $349 reversed $163 $-1 #
edge $-1 $269 -2 $351 2 $268 $393 forward 7 unknown #
vertex $-1 $349 $394 #
straight-curve $-1 -2.5327955589886457 -5 0 0 0 -1 I I #
edge $-1 $347 -5 $351 5 $345 $395 forward 7 unknown #
straight-curve $-1 0 -5 -2 -1 0 0 I I #
vertex $-1 $261 $396 #
straight-curve $-1 0 5 -2 1 0 0 I I #
point $-1 2.5327955589886457 5 -2 #
point $-1 2.5327955589886457 -5 -2 #
straight-curve $-1 -2.5327955589886457 0 2 0 -1 0 I I #
point $-1 -2.5327955589886457 5 2 #
point $-1 -2.5327955589886457 -5 2 #
straight-curve $-1 2.5327955589886457 -5 0 0 0 -1 I I #
straight-curve $-1 2.5327955589886457 5 0 0 0 -1 I I #
edge $-1 $289 -2 $397 2 $287 $398 forward 7 unknown #
edge $-1 $293 1.5000000000000013 $397 2.5327955589886457 $281 $399 forward 7 unknown #
convexity-sys-attrib $-1 $-1 $-1 $282 #
straight-curve $-1 1.9533853488851258 5 -0.2440460943534726 -0.24999999999999994 0 -0.96824583655185426 I I #
coedge $-1 $283 $291 $367 $400 forward $182 $-1 #
vertex $-1 $286 $401 #
straight-curve $-1 0 -5 -2 -1 0 0 I I #
coedge $-1 $287 $285 $364 $400 reversed $278 $-1 #
straight-curve $-1 2.5327955589886457 -5 0 0 0 -1 I I #
point $-1 2.5327955589886457 5 2 #
point $-1 1.5000000000000013 5 -2 #
coedge $-1 $307 $299 $309 $380 reversed $297 $-1 #
vertex $-1 $301 $402 #
vertex $-1 $300 $403 #
straight-curve $-1 -2.5327955589886453 2.5 -1.7333333333333329 0 -1 -3.1620244387226113e-017 I I #
straight-curve $-1 0.36731354086203694 5 -2.4821382830604182 -0.96824583655185426 0 0.24999999999999994 I I #
straight-curve $-1 -2.5327955589886457 5 0 0 0 -1 I I #
point $-1 -2.5327955589886457 5 2 #
convexity-sys-attrib $-1 $-1 $-1 $308 #
straight-curve $-1 -2.5327955589886457 0 2 0 -1 0 I I #
edge $-1 $312 -2 $373 1.7333333333333336 $371 $404 forward 7 unknown #
point $-1 -2.5327955589886457 -5 2 #
straight-curve $-1 0.36731354086203682 -5 -2.4821382830604186 0.96824583655185426 0 -0.24999999999999994 I I #
named_string_attribute-named_attribute-st-attrib $-1 $405 $317 $0 4 name 5 stock #
attrib_edge_convexity-kcp-attrib $-1 $406 $-1 $320 1 #
straight-curve $-1 0.92981354086203627 10 2.2083226604743089 -0.24999999999999994 0 0.96824583655185426 I I #
attrib_edge_convexity-kcp-attrib $-1 $407 $-1 $322 1 #
straight-curve $-1 0.92981354086203627 0 2.2083226604743089 0.24999999999999994 0 -0.96824583655185426 I I #
convexity-sys-attrib $-1 $408 $323 $219 #
convexity-sys-attrib $-1 $409 $327 $225 #
attrib_hh_edge_geombuild-attrib_entity_geombuild-individual_entity_attribute-attrib_HH-attrib $-1 $-1 $329 $137 F #
attrib_hh_edge_geombuild-attrib_entity_geombuild-individual_entity_attribute-attrib_HH-attrib $-1 $-1 $333 $140 F #
attrib_hh_edge_geombuild-attrib_entity_geombuild-individual_entity_attribute-attrib_HH-attrib $-1 $-1 $341 $156 F #
straight-curve $-1 -2.5327955589886457 5 0 0 0 -1 I I #
point $-1 -2.5327955589886457 -5 -2 #
straight-curve $-1 -2.5327955589886457 0 -2 0 1 0 I I #
point $-1 -2.5327955589886457 5 -2 #
vertex $-1 $400 $410 #
straight-curve $-1 2.5327955589886457 5 0 0 0 -1 I I #
straight-curve $-1 0 5 -2 1 0 0 I I #
edge $-1 $397 -5 $365 5 $367 $411 forward 7 unknown #
point $-1 2.5327955589886457 -5 -2 #
point $-1 -2.5327955589886457 5.0000000000000009 -1.7333333333333332 #
point $-1 -2.5327955589886457 -5 -1.7333333333333336 #
straight-curve $-1 -2.5327955589886457 -5 0 0 0 -1 I I #
rgb_color-st-attrib $-1 $-1 $383 $0 0 1 0 #
convexity-sys-attrib $-1 $412 $384 $320 #
convexity-sys-attrib $-1 $413 $386 $322 #
attrib_hh_edge_geombuild-attrib_entity_geombuild-individual_entity_attribute-attrib_HH-attrib $-1 $-1 $388 $219 F #
attrib_hh_edge_geombuild-attrib_entity_geombuild-individual_entity_attribute-attrib_HH-attrib $-1 $-1 $389 $225 F #
point $-1 2.5327955589886457 5 -2 #
straight-curve $-1 2.5327955589886457 0 -2 0 -1 0 I I #
attrib_hh_edge_geombuild-attrib_entity_geombuild-individual_entity_attribute-attrib_HH-attrib $-1 $-1 $406 $320 F #
attrib_hh_edge_geombuild-attrib_entity_geombuild-individual_entity_attribute-attrib_HH-attrib $-1 $-1 $407 $322 F #
End-of-ACIS-data 