**ABCDEFGHIJKLMNOPQRSTUVWXYZabcdefghijklmnopqrstuvwxyz**************************
**PARASOLID !"#$%&'()*+,-./:;<=>?@[\]^_`{|}~0123456789**************************
**PART1;MC=sun;MC_MODEL=Sun-3;MC_ID=unknown;OS=SunOS;OS_RELEASE=unknown;FRU=sdl_
parasolid_test_sun;APPL=unknown;SITE=sdl-cambridge-u.k.;USER=kramer;FORMAT=text;
GUISE=transmit;KEY=hyp_test;FILE=hyp_test.xmt_txt;DATE=21-mar-1991;
**PART2;SCH=SCH_210_1012;USFLD_SIZE=0;
**PART3;
**END_OF_HEADER*****************************************************************
T47 : TRANSMIT FILE created by modeller version 22012 SCH_210_10120 12 1 101 0 0
 0 0 0 1e3 1e-8 2 2 0 0 0 1 3 102 8 2 hyp_test13 3 2 0 1 0 4 5 6 7 8 9 14 4 37 0
 10 0 11 3 7 -16 5 46 0 12 0 13 8 18 6 59 0 12 0 14 9 50 7 72 0 4 15 0 1 +5 0 0
 -1 0 0 38 8 77 0 5 16 0 0 +15 7 17 18 29 9 90 0 6 19 0 5 10.90871211463562 12 2
9 19 17 0 14 20 9 5 -10.9087121146357 12 18 14 15 0 21 6 22 19 29 20 5 0 22 0 19
 0 0 0 18 22 3 0 23 14 0 20 17 23 24 23 23 22 0 0 15 24 4 0 23 25 0 14 25 1 0 0
 10 26 3 27 +14 10 9 0 25 4 28 3 29 +15 26 20 0 21 25 24 52 27 12 0 25 29 15 0 +
0 0 0 0 0 1 0 .707106781186548 .707106781186548 50 29 11 0 10 0 27 0 +0 0 12 0 0
 1 52 15 0 0 3 27 7 1 +0 0 0 0 0 1 0 .707106781186548 .707106781186548 17 21 26
 30 30 14 12 5 17 30 26 21 21 6 31 32 17 12 11 33 33 6 21 5 15 11 38 0 33 4 0 17
 33 11 12 12 14 34 13 17 34 28 31 31 6 33 13 16 13 24 0 33 5 32 16 16 32 16 0 30
 13 0 35 30 16 26 0 13 35 8 0 +5 0 12 0 -1 0 31 35 18 0 32 0 16 0 +0 0 12 0 0 -1
 12 15 28 25 0 34 10 0 17 31 28 34 34 14 30 32 41 1 17 L5 -1054.271771787754 105
4.283628246446 41 1 18 L5 1054.271771787754 1054.283628246446 1 0 
