  0
SECTION
  2
HEADER
  9
$ACADVER
  1
AC1009
  9
$INSBASE
 10
0.0
 20
0.0
 30
0.0
  9
$EXTMIN
 10
-2.0
 20
-2.0
 30
0.0
  9
$EXTMAX
 10
18.0
 20
18.0
 30
3.0
  9
$LIMMIN
 10
0.0
 20
0.0
  9
$LIMMAX
 10
12.0
 20
9.0
  9
$ORTHOMODE
 70
     0
  9
$REGENMODE
 70
     1
  9
$FILLMODE
 70
     1
  9
$QTEXTMODE
 70
     0
  9
$MIRRTEXT
 70
     1
  9
$DRAGMODE
 70
     2
  9
$LTSCALE
 40
1.0
  9
$OSMODE
 70
     0
  9
$ATTMODE
 70
     1
  9
$TEXTSIZE
 40
0.2
  9
$TRACEWID
 40
0.05
  9
$TEXTSTYLE
  7
STANDARD
  9
$CLAYER
  8
0
  9
$CELTYPE
  6
BYLAYER
  9
$CECOLOR
 62
   256
  9
$DIMSCALE
 40
1.0
  9
$DIMASZ
 40
0.18
  9
$DIMEXO
 40
0.0625
  9
$DIMDLI
 40
0.38
  9
$DIMRND
 40
0.0
  9
$DIMDLE
 40
0.0
  9
$DIMEXE
 40
0.18
  9
$DIMTP
 40
0.0
  9
$DIMTM
 40
0.0
  9
$DIMTXT
 40
0.18
  9
$DIMCEN
 40
0.09
  9
$DIMTSZ
 40
0.0
  9
$DIMTOL
 70
     0
  9
$DIMLIM
 70
     0
  9
$DIMTIH
 70
     1
  9
$DIMTOH
 70
     1
  9
$DIMSE1
 70
     0
  9
$DIMSE2
 70
     0
  9
$DIMTAD
 70
     0
  9
$DIMZIN
 70
     0
  9
$DIMBLK
  1

  9
$DIMASO
 70
     1
  9
$DIMSHO
 70
     1
  9
$DIMPOST
  1

  9
$DIMAPOST
  1

  9
$DIMALT
 70
     0
  9
$DIMALTD
 70
     2
  9
$DIMALTF
 40
25.4
  9
$DIMLFAC
 40
1.0
  9
$DIMTOFL
 70
     0
  9
$DIMTVP
 40
0.0
  9
$DIMTIX
 70
     0
  9
$DIMSOXD
 70
     0
  9
$DIMSAH
 70
     0
  9
$DIMBLK1
  1

  9
$DIMBLK2
  1

  9
$DIMSTYLE
  2
*UNNAMED
  9
$DIMCLRD
 70
     0
  9
$DIMCLRE
 70
     0
  9
$DIMCLRT
 70
     0
  9
$DIMTFAC
 40
1.0
  9
$DIMGAP
 40
0.09
  9
$LUNITS
 70
     2
  9
$LUPREC
 70
     4
  9
$SKETCHINC
 40
0.1
  9
$FILLETRAD
 40
0.0
  9
$AUNITS
 70
     0
  9
$AUPREC
 70
     0
  9
$MENU
  1
acad
  9
$ELEVATION
 40
0.0
  9
$PELEVATION
 40
0.0
  9
$THICKNESS
 40
0.0
  9
$LIMCHECK
 70
     0
  9
$BLIPMODE
 70
     1
  9
$CHAMFERA
 40
0.0
  9
$CHAMFERB
 40
0.0
  9
$SKPOLY
 70
     0
  9
$TDCREATE
 40
2449411.036376551
  9
$TDUPDATE
 40
2449411.036376551
  9
$TDINDWG
 40
0.0000000000
  9
$TDUSRTIMER
 40
0.0000000000
  9
$USRTIMER
 70
     1
  9
$ANGBASE
 50
0.0
  9
$ANGDIR
 70
     0
  9
$PDMODE
 70
     0
  9
$PDSIZE
 40
0.0
  9
$PLINEWID
 40
0.0
  9
$COORDS
 70
     1
  9
$SPLFRAME
 70
     0
  9
$SPLINETYPE
 70
     6
  9
$SPLINESEGS
 70
     8
  9
$ATTDIA
 70
     0
  9
$ATTREQ
 70
     1
  9
$HANDLING
 70
     1
  9
$HANDSEED
  5
4B
  9
$SURFTAB1
 70
     6
  9
$SURFTAB2
 70
     6
  9
$SURFTYPE
 70
     6
  9
$SURFU
 70
     6
  9
$SURFV
 70
     6
  9
$UCSNAME
  2

  9
$UCSORG
 10
0.0
 20
0.0
 30
0.0
  9
$UCSXDIR
 10
1.0
 20
0.0
 30
0.0
  9
$UCSYDIR
 10
0.0
 20
1.0
 30
0.0
  9
$PUCSNAME
  2

  9
$PUCSORG
 10
0.0
 20
0.0
 30
0.0
  9
$PUCSXDIR
 10
1.0
 20
0.0
 30
0.0
  9
$PUCSYDIR
 10
0.0
 20
1.0
 30
0.0
  9
$USERI1
 70
     0
  9
$USERI2
 70
     0
  9
$USERI3
 70
     0
  9
$USERI4
 70
     0
  9
$USERI5
 70
     0
  9
$USERR1
 40
0.0
  9
$USERR2
 40
0.0
  9
$USERR3
 40
0.0
  9
$USERR4
 40
0.0
  9
$USERR5
 40
0.0
  9
$WORLDVIEW
 70
     1
  9
$SHADEDGE
 70
     3
  9
$SHADEDIF
 70
    70
  9
$TILEMODE
 70
     1
  9
$MAXACTVP
 70
    16
  9
$PINSBASE
 10
0.0
 20
0.0
 30
0.0
  9
$PLIMCHECK
 70
     0
  9
$PEXTMIN
 10
1.000000E+20
 20
1.000000E+20
 30
1.000000E+20
  9
$PEXTMAX
 10
-1.000000E+20
 20
-1.000000E+20
 30
-1.000000E+20
  9
$PLIMMIN
 10
0.0
 20
0.0
  9
$PLIMMAX
 10
12.0
 20
9.0
  9
$UNITMODE
 70
     0
  9
$VISRETAIN
 70
     0
  9
$PLINEGEN
 70
     0
  9
$PSLTSCALE
 70
     1
  9
$TREEDEPTH
 70
  3020
  9
$DWGCODEPAGE
  3
ascii
  0
ENDSEC
  0
SECTION
  2
TABLES
  0
TABLE
  2
VPORT
 70
     2
  0
VPORT
  2
*ACTIVE
 70
     0
 10
0.0
 20
0.0
 11
1.0
 21
1.0
 12
-3.577709
 22
-1.446847
 13
0.0
 23
0.0
 14
1.0
 24
1.0
 15
0.0
 25
0.0
 16
1.0
 26
2.0
 36
1.0
 17
0.0
 27
0.0
 37
0.0
 40
16.824319
 41
1.594883
 42
50.0
 43
0.0
 44
0.0
 50
0.0
 51
0.0
 71
     0
 72
   100
 73
     1
 74
     1
 75
     0
 76
     0
 77
     0
 78
     0
  0
ENDTAB
  0
TABLE
  2
LTYPE
 70
     1
  0
LTYPE
  2
CONTINUOUS
 70
    64
  3
Solid line
 72
    65
 73
     0
 40
0.0
  0
ENDTAB
  0
TABLE
  2
LAYER
 70
     2
  0
LAYER
  2
0
 70
    64
 62
     7
  6
CONTINUOUS
  0
LAYER
  2
AME_FRZ
 70
    65
 62
     7
  6
CONTINUOUS
  0
ENDTAB
  0
TABLE
  2
STYLE
 70
     1
  0
STYLE
  2
STANDARD
 70
     0
 40
0.0
 41
1.0
 50
0.0
 71
     0
 42
0.2
  3
txt
  4

  0
ENDTAB
  0
TABLE
  2
VIEW
 70
     0
  0
ENDTAB
  0
TABLE
  2
UCS
 70
     0
  0
ENDTAB
  0
TABLE
  2
APPID
 70
     3
  0
APPID
  2
ACAD
 70
    64
  0
APPID
  2
AME_SOL
 70
    64
  0
APPID
  2
AVE_INVOKE
 70
    64
  0
ENDTAB
  0
TABLE
  2
DIMSTYLE
 70
     0
  0
ENDTAB
  0
ENDSEC
  0
SECTION
  2
BLOCKS
  0
BLOCK
  8
0
  5
1
  2
AME_NIL
 70
    64
 10
0.0
 20
0.0
 30
0.0
  1
AME_NIL
  3
AME_NIL
  0
ENDBLK
  8
0
  5
2
  0
BLOCK
  8
0
  5
4
  2
AME_SOL
 70
    64
 10
0.0
 20
0.0
 30
0.0
  1
AME_SOL
  3
AME_SOL
  0
ENDBLK
  8
0
  5
5
  0
BLOCK
  8
0
  5
25
  2
*U4
 70
    65
 10
0.0
 20
0.0
 30
0.0
  1
*U
  3
*U
  0
LINE
  8
0
 62
     7
  5
26
 10
17.0
 20
13.0
 30
0.0
 11
17.0
 21
13.0
 31
3.0
1001
AME_SOL
1070
     1
1071
       38
  0
LINE
  8
0
 62
     7
  5
27
 10
17.0
 20
3.641101
 30
3.0
 11
17.0
 21
0.0
 31
3.0
1001
AME_SOL
1070
     1
1071
       37
  0
LINE
  8
0
 62
     7
  5
28
 10
17.0
 20
13.0
 30
3.0
 11
17.0
 21
12.358899
 31
3.0
1001
AME_SOL
1070
     1
1071
       36
  0
LINE
  8
0
 62
     7
  5
29
 10
16.660254
 20
13.0
 30
3.0
 11
17.0
 21
13.0
 31
3.0
1001
AME_SOL
1070
     1
1071
       35
  0
LINE
  8
0
 62
     7
  5
2A
 10
0.0
 20
13.0
 30
0.0
 11
0.0
 21
13.0
 31
1.0
1001
AME_SOL
1070
     1
1071
       34
  0
LINE
  8
0
 62
     7
  5
2B
 10
0.0
 20
2.0
 30
3.0
 11
0.0
 21
0.0
 31
3.0
1001
AME_SOL
1070
     1
1071
       33
  0
LINE
  8
0
 62
     7
  5
2C
 10
0.0
 20
0.0
 30
0.0
 11
0.0
 21
0.0
 31
3.0
1001
AME_SOL
1070
     1
1071
       32
  0
LINE
  8
0
 62
     7
  5
2D
 10
17.0
 20
0.0
 30
3.0
 11
17.0
 21
0.0
 31
0.0
1001
AME_SOL
1070
     1
1071
       31
  0
LINE
  8
0
 62
     7
  5
2E
 10
14.0
 20
0.0
 30
3.0
 11
17.0
 21
0.0
 31
3.0
1001
AME_SOL
1070
     1
1071
       30
  0
LINE
  8
0
 62
     7
  5
2F
 10
0.0
 20
0.0
 30
3.0
 11
2.0
 21
0.0
 31
3.0
1001
AME_SOL
1070
     1
1071
       29
  0
LINE
  8
0
 62
     7
  5
30
 10
0.0
 20
0.0
 30
0.0
 11
17.0
 21
0.0
 31
0.0
1001
AME_SOL
1070
     1
1071
       28
  0
LINE
  8
0
 62
     7
  5
31
 10
0.0
 20
13.0
 30
0.0
 11
0.0
 21
0.0
 31
0.0
1001
AME_SOL
1070
     1
1071
       27
  0
LINE
  8
0
 62
     7
  5
32
 10
17.0
 20
0.0
 30
0.0
 11
17.0
 21
13.0
 31
0.0
1001
AME_SOL
1070
     1
1071
       26
  0
LINE
  8
0
 62
     7
  5
33
 10
17.0
 20
13.0
 30
0.0
 11
0.0
 21
13.0
 31
0.0
1001
AME_SOL
1070
     1
1071
       25
  0
LINE
  8
0
 62
     7
  5
34
 10
2.0
 20
0.0
 30
1.0
 11
14.0
 21
0.0
 31
1.0
1001
AME_SOL
1070
     1
1071
       24
  0
LINE
  8
0
 62
     7
  5
35
 10
0.0
 20
13.0
 30
1.0
 11
0.0
 21
2.0
 31
1.0
1001
AME_SOL
1070
     1
1071
       23
  0
LINE
  8
0
 62
     7
  5
36
 10
17.0
 20
3.641101
 30
1.0
 11
17.0
 21
12.358899
 31
1.0
1001
AME_SOL
1070
     1
1071
       22
  0
LINE
  8
0
 62
     7
  5
37
 10
16.660254
 20
13.0
 30
1.0
 11
0.0
 21
13.0
 31
1.0
1001
AME_SOL
1070
     1
1071
       21
  0
ARC
  8
0
 62
     7
  5
38
 10
8.0
 20
8.0
 30
1.0
 40
10.0
 50
25.841933
 51
30.0
1001
AME_SOL
1070
     1
1071
       20
  0
ARC
  8
0
 62
     7
  5
39
 10
8.0
 20
8.0
 30
1.0
 40
10.0
 50
306.869898
 51
334.158067
1001
AME_SOL
1070
     1
1071
       19
  0
ARC
  8
0
 62
     7
  5
3A
 10
8.0
 20
8.0
 30
1.0
 40
10.0
 50
216.869898
 51
233.130102
1001
AME_SOL
1070
     1
1071
       18
  0
LINE
  8
0
 62
     7
  5
3B
 10
2.0
 20
0.0
 30
1.0
 11
2.0
 21
0.0
 31
3.0
1001
AME_SOL
1070
     1
1071
       17
  0
LINE
  8
0
 62
     7
  5
3C
 10
14.0
 20
0.0
 30
1.0
 11
14.0
 21
0.0
 31
3.0
1001
AME_SOL
1070
     1
1071
       16
  0
LINE
  8
0
 62
     7
  5
3D
 10
0.0
 20
2.0
 30
1.0
 11
0.0
 21
2.0
 31
3.0
1001
AME_SOL
1070
     1
1071
       15
  0
LINE
  8
0
 62
     7
  5
3E
 10
17.0
 20
3.641101
 30
1.0
 11
17.0
 21
3.641101
 31
3.0
1001
AME_SOL
1070
     1
1071
       14
  0
LINE
  8
0
 62
     7
  5
3F
 10
17.0
 20
12.358899
 30
1.0
 11
17.0
 21
12.358899
 31
3.0
1001
AME_SOL
1070
     1
1071
       13
  0
LINE
  8
0
 62
     7
  5
40
 10
16.660254
 20
13.0
 30
1.0
 11
16.660254
 21
13.0
 31
3.0
1001
AME_SOL
1070
     1
1071
       12
  0
ARC
  8
0
 62
     7
  5
41
 10
8.0
 20
8.0
 30
3.0
 40
10.0
 50
25.841933
 51
30.0
1001
AME_SOL
1070
     1
1071
       11
  0
ARC
  8
0
 62
     7
  5
42
 10
8.0
 20
8.0
 30
3.0
 40
10.0
 50
306.869898
 51
334.158067
1001
AME_SOL
1070
     1
1071
       10
  0
ARC
  8
0
 62
     7
  5
43
 10
8.0
 20
8.0
 30
3.0
 40
10.0
 50
216.869898
 51
233.130102
1001
AME_SOL
1070
     1
1071
        9
  0
ENDBLK
  8
0
  5
44
  0
BLOCK
  8
0
  5
48
  2
AME_JNK
 70
     0
 10
0.0
 20
0.0
 30
0.0
  1
AME_JNK
  3
AME_JNK
  0
ENDBLK
  8
0
  5
49
  0
ENDSEC
  0
SECTION
  2
ENTITIES
  0
INSERT
  8
AME_FRZ
  5
3
  2
AME_NIL
 10
0.0
 20
0.0
 30
0.0
  0
INSERT
  8
AME_FRZ
  5
6
  2
AME_SOL
 10
0.0
 20
0.0
 30
0.0
1001
AME_SOL
1000
R2.1
1000
AME2
1000
sq cm
1070
     3
1070
     0
1070
     3
1000
wire
1040
45.0
1000
U
1040
1.0
1000
cm
1000
gm
1000
MILD_STEEL
1070
    25
1000
CSG
1070
     1
1070
     3
1070
     3
1070
     3
1070
     0
1000
cu cm
1070
     1
1070
     0
1005
3
  0
INSERT
  8
AME_FRZ
  5
15
  2
AME_NIL
 10
0.0
 20
0.0
 30
0.0
1001
AME_SOL
1002
{
1070
     1
1071
  2388864
1070
  1536
1070
     1
1010
17.0
1020
13.0
1030
3.0
1005
0
1005
0
1005
45
1040
0.0
1040
1.0
1070
     0
1000
MILD_STEEL
1000
0
1010
0.0
1020
0.0
1030
0.0
1010
0.0
1020
0.0
1030
1.0
1040
0.0
1002
}
1001
AVE_INVOKE
1000
SOLAVEMESH
  0
INSERT
  8
AME_FRZ
  5
21
  2
AME_NIL
 10
8.0
 20
8.0
 30
1.0
1001
AME_SOL
1002
{
1070
     1
1071
  2403536
1070
  1538
1070
     1
1010
10.0
1020
10.0
1030
2.0
1005
0
1005
0
1005
45
1040
0.0
1040
1.0
1070
     0
1000
MILD_STEEL
1000
0
1010
8.0
1020
8.0
1030
1.0
1010
0.0
1020
0.0
1030
1.0
1040
0.0
1002
}
1001
AVE_INVOKE
1000
SOLAVEMESH
  0
INSERT
  8
0
  5
45
  2
*U4
 10
0.0
 20
0.0
 30
0.0
1001
AME_SOL
1002
{
1070
     1
1071
  2422256
1070
  1543
1070
     1
1070
     0
1005
15
1005
21
1005
0
1005
46
1005
0
1040
0.0
1040
1.0
1070
     0
1000
MILD_STEEL
1000
0
1002
}
1001
AVE_INVOKE
1000
SOLAVEMESH
  0
INSERT
  8
AME_FRZ
  5
46
  2
AME_NIL
 10
1.0
 20
1.0
 30
1.0
1001
AME_SOL
1004
C7CF01005501AA01A901A701A3019B018D017B016201480107005C004901A900210063014A012900FB004B0130011A010A01CB00CA0006002D0052008F008E0195007C016401AD000A00650147004C011A0092009C018F018A007D0166014D01300031014D005F004E0132011B010C0019001C0134003700
1004
33011D0164009A001E016E006F000800900124007E0167011600C600680120002800A4019D01910102007F01800096009201800169018B004F01A00034011F01B7000B01C800120004006A01A800670081016B0145004E0005009E01FF009301BF008201A3006C0150013501C100BA000B00EE00A801A501
1004
9F01940183016D015101AE00A6005201EF006800550084016E01E00053013601EC000300D50075004000A001950185016F0154013701DC00AA003801BE007E0055013901F500F2003A019F006A00700156013B018C0071003C0120011000170021012600BB0057013D012201ED0073002301E100DF003E01
1004
24018500610025017A0083008601710158013F012601B600D80027010C0115001B000D0127002F00400128010E01910090000F01F600E60029011001BC00E4001101D9006500590141012A0112016600D2001301D10078002B011401D000980015019700010109000D0042012C011601020100011C000301
1004
1D001E001701040123002C0005013300F9002D0118010601F7004800070150005800190108016C006D0009019B00700072015A015D0069005B012B00FA0096010100F000A601A1019701870173015C01FC0043017600EA00560074011400B500880175015D01AC00E8005E01320088002500980189017601
1004
A200FD0077015F0144011800AB004501DD002E0060014601F8004A0047012E01220038002F0160006B003F00A20199012A008A0178011F00A40082009A018B015A00FE008C017901C000B8007A0161018400EB003100000060D1560D15010156B00C6360755C0BADD0B134BA31B97C42C4D2E8C6E5F1DB82
1004
3D05E04708D063CC25D94911A0C7984BB2928589A5D18DC1695B8154515142C4D2E8C6E5F10B134BA31B97C64200FA495C8504D88D063CC25D94911A0C7984BB2928589A5D18DC1695AC196950E8D31B5A061D832DFF5DBFFFFFFFD76FFFF1E4FE3C9FD76CBFF193F8C9FFFFFF60CB7FD76FFFFFFFF5DBFF
1004
FC793F8F27F5DB2FFC64FE327FFFFF5CE149834579347FEBB7FFFFFFFAEDFFFF7C546F8F27F5DB22A4BF558D41E52143536A4BF558D41E5214314D6FE2930647268FFD76FFFFFFFF5DBFF5426318C6744FF7CFD76C8A92FD56350794850D4DA92FD56350794850C535BF8A4C1ADC9A3FF5DBFFFFFFFD76FF
1004
FF6527F1E4FEBB645497EAB1A83CA4286A6D497EAB1A83CA428629ADFC5260FC9A3FF5DBFFFFFFFD76FFD5098C6319D13FB293FAED91525FAAC6A0F290A1A9B525FAAC6A0F290A18A6B7F02A8A00A16269746372F88589A5D18DCBE321007D24AE42826C46831E612ECA488D063CC25D9495047D5EDA8E85
1004
76D6BF0B5110234C6D6818F7E16FFAEDFFFFFF25FAE77F25F8F27F1E4FEBB65FFFFFFFFFFEFC2DFF5DBFFFFFE4BF5CEFE4BF1E4FE3C9FD76CBFFFFFFFFFF5CE02A8A53DDB823D05E0473B7047A0BC08E76E08F417811C50D063CC25DFD2385860E0C0D712EDC11E82F026D6BF0B57751AB75ACA5B7E16FFF
1004
FAEDFFFEBB7FFFFFFFFFE5FFFFFFFFFFEFC2DFFFF5DBFFFD76FFFFFFFFFFCBFFFFFFFFFF5DB02A8A2EEDC11E82F0239DB823D05E0473B7047A0BC08E286831E612EFE976E08F41781368589A5D18DC1695AFC2D64BE8D5BAD7F5B7E16FFAEDFFFFFFFFFEBB7FFFFFE5FFFFFFFFFFEFC2DFF5DBFFFFFFFFFD
1004
76FFFFFFCBFFFFFFFFFF5DB02A8A066EDC11E82F0239DB823D05E0473B7047A0BC08E76E08F4178136385860E0C0D7128589A5D18DC1695AFC2D1F3C356EB450B6FC2DFFFFFF5DBFFFD76FFFFFFFFCBFFFFFFFFFFDF85BFFFFFEBB7FFFAEDFFFFFFFF97FFFFFFFFFEBB60551555D76E08F417811CEDC11E8
1004
2F0239A97E9088D6A2C009286831E612EFE91C2C3070606B8942C4D2E8C6E0B4AD7E16B2CAD9D6EB551D6DF85BFEB9DFC97F25FC97EB9DFC97EFE95BEE27F1692FFFFFFFFFFF7E16FFAE77F25FC97F25FAE77F25FBFA56FB89FC5A4BFFFFFFFFFF5DB02A8A066EDC11E82F0239143E6FA0751008976E08F4
1004
17811C50D063CC25DFD2385860E0C0D7128589A5D18DC1695AFC2D2920D9D6EB5AB5B7E16FFC97F25FAE77EB9DFC97F25FBFA56FB89FC5A4BFFFFFFFFFFDF85BFF25FC97EB9DFAE77F25FC97EFE95BEE27F1692FFFFFFFFFFD76C0AA28BB04AC80404AF1425DB823D05E0473B7047A0BC08E286831E612EF
1004
E91C2C3070606B8942C4D2E8C6E0B4AD7E16BEAB59D6EB40D5B7E16FFC97EB9DFC97F25FC97EB9DFBFA56FB89FC5A4BFFFFFFFFFFDF85BFF25FAE77F25FC97F25FAE77EFE95BEE27F1692FFFFFFFFFFD76DD4FDDB823D05E0473B7047A0BC08E6A5FA42235A8B0024A1A0C7984BBFA470B0C1C181AE250B1
1004
34BA31B82D2D794E29E6BEA55808ABE16284FD0FA9A540B3E116023553648DD698C543A359656CF916595B3950E8D5B98C633011FFAEDFFFFFFFEBB7FFF8F27F1E4FE2D253FF193F8C96BCA714F35F52AC0455F0B1427E87D4D2A059F1D4FDDB823D05E0473B7047A0BC08E6A5FA42235A8B0024A1A0C798
1004
4BBFA470B0C1C181AE250B134BA31B82D25AA5D4E972B642983826AC3E0A8CD52807116023B5F67D698C543A359656CF916595B3950E8D5B98C633011FFAEDFFFFFFFEBB7FFF8F27F1E4FE2D253FF193F8C92D52EA74B95B214C1C13561F05466A94039D4FDDB823D05E0473B7047A0BC08E6A5FA42235A8
1004
B0024A1A0C7984BBFA470B0C1C181AE250B134BA31B82D213561F05466A9406CAD4C81AD740E7C223645808C79578CFAD318A8746B2CAD9F22CB2B672A1D1AB7318C66023FF5DBFFFFFFFD76FFFF1E4FE3C9FC5A4A7FE327F19213561F05466A9406CAD4C81AD740E7C2236EA7EEDC11E82F0239143E6FA0
1004
751008964200FA495C8504D943418F30977F48E1618383035C4A162697463705A7FFFA489346955EB3E632D2A1D1A5241B3E44A874694906CE6318CB7268FFD76FFFFFFFF5DBFF51155957C830320214256FB89FD76C8FFFF4BA9FB04AC80404AF1425DB823D05E047321007D24AE42826CA1A0C7984BBFA
1004
470B0C1C181AE250B134BA31B82D3FFFD2449A355D0AE67D698C543A35F55ACF917D56B3950E8D5B98C631347FEBB7FFFFFFFAEDFFFEFE957A96650AD3E0A60FA7F5DB23FFFD2EA7EC12B201012BC50976E08F417811CC8401F492B90A09B286831E612EFE91C2C3070606B8942C4D2E8C6E0B4FFFF49126
1004
8DAF0AF67CC65A543A35F55ACF912A1D1AFAAD67318C65B9347FEBB7FFFFFFFAEDFFFEFE91C1582AD55956E3CAAF4FEBB647FFFA5D4FDDB823D05E0473B7047A0BC08E64200FA495C8504DBB7047A0BC09B1C2C3070606B8942C4D2E8C6E0B4FFFF491268EABF67D698C543A347CF0DC88F9E1A543A356E6
1004
318C4D1FFAEDFFFFFFFEBB7FFFFFD3FAED91FFFE9753F76E08F417811CEDC11E82F023990803E925721413650D063CC25DFD2EDC11E82F026D0B134BA31B82D3FFFD2449A3555558B3EB4C62A1D1AC97D1B9164BE8D2A1D1AB7318C6268FFD76FFFFFFFF5DBFF318C63195C9FA516A99FAED91FFFE9753F7
1004
6E08F417811CEDC11E82F023990803E925721413650D063CC25DFD2EDC11E82F026D0B134BA31B82D3FFFD2449A32A55933E632D2A1D1AC97D1B912A1D1AC97D1A6318CB7268FFD76FFFFFFFF5DBFF457F4FD28B54CFD76C8FFFF4BA9FA16269746372F88589A5D18DCBE321007D24AE42826C46831E612E
1004
CA488D063CC25D9495047D5EDA8E8576DAF29C53CD7D4AB01157C2C509FA1F534A8167C22C046FAAB367CC65A543A3511023722543A35110234C6318C6319808FFD76FFFFFFFF5DBFFFC793F8F27F5DB29FF8C9FC64B5E538A79AFA956022AF858A13F43EA69502CF8EA7E8589A5D18DCBE216269746372F
1004
8C8401F492B90A09B11A0C7984BB29223418F30976525411F57B6A3A15DB2D52EA74B95B214C1C13561F05466A940388B011AA17467CC65A543A3511023722543A35110234C6318C6319808FFD76FFFFFFFF5DBFFFC793F8F27F5DB29FF8C9FC6496A9753A5CAD90A60E09AB0F82A3354A01CEA7E8589A5D
1004
18DCBE216269746372F8C8401F492B90A09B11A0C7984BB29223418F30976525411F57B6A3A15DB09AB0F82A3354A03656A640D6BA073E111B22C046D60F33E632D2A1D1A88811B912A1D1A88811A6318C6318CC047FEBB7FFFFFFFAEDFFFE3C9FC793FAED94FFC64FE32426AC3E0A8CD5280D95A99035AE
1004
81CF8446DD4FDDB823D05E0472287CDF40EA20112C8401F492B90A09B286831E612EFE91C2C3070606B895047D5EDA8E8576D16298AE68152EAA51F3F022489346D435C67D698C88811A5241B3E44A4836744408D5B98C631347FFFEBB7FFFFFFFAE77E044ADF713FAED91458A62B9A054BAA947CFC08975
1004
3F60959008095E284BB7047A0BC08E64200FA495C8504D943418F30977F48E1618383035C4A823EAF6D4742BB6A94290AC154A7C57AA2BE2A88AB548552150A134B6449A31F55A33EB4C644408D7D56B3E45F55ACE88811AB7318C6268FFD76FFFFFFFFFF5CEFDFD3FB34FEBB645528521582A94F8AF5457
1004
C551156A90AA42A142696DD4FDDB823D05E0473B7047A0BC08E64200FA495C8504DBB7047A0BC09B1C2C3070606B895047D5EDA8E8576D6FB5C7CFE9224D1B5D199F5A632220468F9E1B911F3C351102356E6318C4D1FFAE77FFFFFFFFEB9DFFFA944FEBB6456FB5C7CFE9753F76E08F417811CEDC11E82F
1004
023990803E925721413650D063CC25DFD2EDC11E82F026D411F57B6A3A15DBFEF9F8C9224D1AAE59B3EB4C644408D64BE8DC8B25F46A22046ADCC63189A3FFFF5CEFFFFFFFD73BF5289FFFD76C8FF7CFC64BA9FBB7047A0BC08E450F9BE81D440225DB823D05E047143418F30977F48E1618383035C4BB70
1004
47A0BC09BFC06F9F80D2449A355DA9667CC65ABBA8D2920D9F22BBA8D2920D9D6EB7268FFFFD76FFFFFFFF5CEFC0695BEE27FC8FE037CFC069753F60959008095E284BB7047A0BC08E76E08F417811C50D063CC25DFD2385860E0C0D712EDC11E82F026D6F879F16F8792449A341AA333E632D5DD46BEAB5
1004
9F22BBA8D7D56B3ADD6E4D1FFAEDFFFFFFFFFEB9DFBFA56F8793FE456F879F16F8792EA7EEDC11E82F0239DB823D05E0473B7047A0BC08E76E08F4178136385860E0C0D712EDC11E82F026D6FB8F9FC911268D54C7D9F3196AEEA347CF0DC8AEEA347CF0D5BADC9A3FF5CEFFFFFFFFFD73BFFFFFC8ADF71F
1004
3F92753F76E08F417811CEDC11E82F0239DB823D05E047143418F30977F4BB7047A0BC09B76E08F4178137FFFBFA489346CB0233E632D5DD46B25F46E457751AC97D1AB75B9347FFFEB9DFFFFFFFAE77FFFFF91FFFDFD2EA7EEDC11E82F0239DB823D05E047352FD2111AD45801250D063CC25DFD2EDC11E
1004
82F026D0B134BA31B82D3F80DF16F879F089346AAAE33E632D64BE8D6595B3E4592FA359656CEB75B9347FFFFFEBB7FFFAE77FFE034FFFE2D247F01BE2DF0F3E3A9FBB7047A0BC08E76E08F417811CD4BF48446B516004943418F30977F4BB7047A0BC09B42C4D2E8C6E0B498C6318CA889FC069224D1952
1004
B99F3196B25F46B2CAD9F22C97D1ACB2B675BADC9A3FFFFFF5DBFFFD73BFFF01A7FFF169226318C632A227F01A5D4FD825640202578A12EDC11E82F0239DB823D05E047143418F30977F4BB7047A0BC09B42C4D2E8C6E0B4FED61DFB58D91268DF556ACF98CB592FA35F55ACF9164BE8D7D56B3ADD6E4D1F
1004
FAEDFFFFFFFEB9DFFFBFA7FFF6B1B23FB5877ED636EA7EEDC11E82F0239DB823D05E0473B7047A0BC08E76E08F4178136EDC11E82F026D0B134BA31B82D3FFF8B491268CA680D67CC65AC97D1A3E786E4592FA347CF0D5BADC9A3FF5CEFFFFFFFD73BFFFFFFFC8FFFE2D2EA7EEDC11E82F0239DB823D05E0
1004
47352FD2111AD458012EDC11E82F026C70B0C1C181AE250B134BA31B82D2B7CA6D2B7C3C9224D1AA16AD9F31968F9E1ACB2B67C88F9E1ACB2B675BADC9A3FFFFFF5DBFD73BFFFFFD6F8793F8B4915BE53695BE1E4BA9FBB7047A0BC08E450F9BE81D440225DB823D05E0473B7047A0BC09B1C2C3070606B8
1004
942C4D2E8C6E0B4FED61DFA21C449A364AA3B3E632D1F3C34A48367C88F9E1A5241B3ADD6E4D1FFFFAEDFFFEB9DFFFFFEB7DC4FED63647F6B0EFD10E753F76E08F417811C8A1F37D03A88044B52FD2111AD45801250D063CC25DFD2385860E0C0D7128589A5D18DC169554203CA9CA9EA122CEFE4889346D
1004
60A19F3196B2CAD9CA48367C8B2CAD9CA483675BADC9A3FFFF5DBFFFFFFFD76FF7F4ADF713F8B491554203CA9CA9EA122CEFE49D4FD825640202578A12EDC11E82F0239A97E9088D6A2C009286831E612EFE91C2C3070606B8942C4D2E8C6E0B4FFAA82A4B540154B53EA9AD91268C5B299F3196B2CAD9DF
1004
55ACF916595B3BEAB59D6EB7268FFD76FFFFFF92FFFD76FF7F4ADF713F8B491FF5505496A802A96A7D535B753F60959008095E284BB7047A0BC08E6A5FA42235A8B0024A1A0C7984BBFA470B0C1C181AE250B134BA31B82D20552CCA15A7C14C6B895BEE2489346D42AD99F3196B2CAD9DF55ACF916595B3
1004
BEAB59D6EB7268FFD76FFFFFF92FFFD76FF7F4ADF713F8B49102A96650AD3E0A635C4ADF712EA7EC12B201012BC509450F9BE81D440225DB823D05E047143418F30977F48E1618383035C4A162697463705A7F16F9FC911268C7C5533E632D2920D9DF55ACF912920D9DF55ACEB75B9347FEBB7FFFFFFFAE
1004
DFFFEFE95BEE27F16923F8B7CFE4854B015607
1005
47
  0
INSERT
  8
AME_FRZ
  5
47
  2
AME_NIL
 10
1.0
 20
1.0
 30
1.0
1001
AME_SOL
1004

1005
0
  0
ENDSEC
  0
EOF
