106 0 1 0           
body $1 $2 $-1 $3 #
ref_vt-lwd-attrib $-1 $-1 $-1 $0 $4 $-1 #
lump $5 $-1 $6 $0 #
transform $-1 1 0 0 0 1 0 0 0 1 -18 9.5 0 1 0 0 0 #
refinement $-1 0 8 0 0 1.7362124919891357 25 0 4 0 #
ref_vt-lwd-attrib $-1 $-1 $-1 $2 $4 $-1 #
shell $7 $-1 $-1 $8 $2 #
ref_vt-lwd-attrib $-1 $-1 $-1 $6 $4 $-1 #
face $-1 $9 $10 $6 $-1 $11 forward single #
face $12 $13 $14 $6 $-1 $15 forward single #
loop $-1 $16 $17 $8 #
cone-surface $-1 18 -9.5 0 0 0 1 2 0 0 1 I I 0 1 0 I I I I #
ref_vt-lwd-attrib $-1 $-1 $-1 $9 $4 $-1 #
face $18 $19 $20 $6 $-1 $21 forward single #
loop $-1 $-1 $22 $9 #
cone-surface $-1 17.551449595620696 -16.300000000000168 -5.7669999999999996e-13 -9.9999999999999998e-17 8.5999999999999993e-15 -1 0 7.5000000000000027 6.4500000000000015e-14 1 I I 0 1 0 I I I I #
loop $-1 $-1 $23 $8 #
coedge $-1 $24 $25 $26 $27 0 $10 $-1 #
ref_vt-lwd-attrib $-1 $-1 $-1 $13 $4 $-1 #
face $28 $29 $30 $6 $-1 $31 reversed single #
loop $-1 $-1 $32 $13 #
plane-surface $-1 157.55999999999989 40.350000000000023 -8.4100000000000003e-14 9.9999999999999998e-17 -8.5999999999999993e-15 1 1 0 -9.9999999999999998e-17 0 I I I I #
coedge $-1 $33 $34 $35 $36 1 $14 $-1 #
coedge $-1 $23 $23 $37 $38 0 $16 $-1 #
coedge $-1 $39 $17 $40 $41 0 $10 $-1 #
coedge $-1 $17 $42 $43 $44 0 $10 $-1 #
coedge $-1 $45 $45 $17 $27 1 $46 $-1 #
edge $-1 $47 $48 $26 $49 0 #
ref_vt-lwd-attrib $-1 $-1 $-1 $19 $4 $-1 #
face $50 $51 $52 $6 $-1 $53 forward single #
loop $-1 $-1 $54 $19 #
cone-surface $-1 17.551449595620696 -16.300000000000168 -5.7669999999999996e-13 -9.9999999999999998e-17 8.5999999999999993e-15 -1 0 6.1899999999999977 5.3233999999999978e-14 1 I I 0 1 0 I I I I #
coedge $-1 $55 $56 $57 $58 1 $20 $-1 #
coedge $-1 $59 $22 $56 $60 0 $14 $-1 #
coedge $-1 $22 $59 $61 $62 1 $14 $-1 #
coedge $-1 $63 $57 $22 $36 0 $10 $-1 #
edge $-1 $64 $65 $22 $66 0 #
coedge $-1 $37 $37 $23 $38 1 $67 $-1 #
edge $-1 $68 $68 $37 $69 0 #
coedge $-1 $70 $24 $71 $72 0 $10 $-1 #
coedge $-1 $73 $74 $24 $41 1 $75 $-1 #
edge $-1 $48 $76 $40 $77 0 #
coedge $-1 $25 $78 $79 $80 0 $10 $-1 #
coedge $-1 $74 $73 $25 $44 1 $75 $-1 #
edge $-1 $81 $47 $43 $82 0 #
coedge $-1 $26 $26 $73 $83 1 $46 $-1 #
loop $-1 $-1 $26 $84 #
vertex $-1 $83 $85 #
vertex $-1 $27 $86 #
ellipse-curve $-1 18 -9.5 -8.4100000000000003e-14 -9.9999999999999998e-17 8.5999999999999993e-15 -1 2 0 0 1 I I #
ref_vt-lwd-attrib $-1 $-1 $-1 $29 $4 $-1 #
face $87 $84 $75 $6 $-1 $88 reversed single #
loop $-1 $-1 $71 $29 #
plane-surface $-1 157.55999999999977 40.350000000000051 -2.2100000000000919 9.9999999999999998e-17 -8.5999999999999993e-15 1 1 0 -9.9999999999999998e-17 0 I I I I #
coedge $-1 $89 $90 $70 $91 1 $30 $-1 #
coedge $-1 $92 $32 $90 $93 1 $20 $-1 #
coedge $-1 $32 $94 $33 $60 1 $20 $-1 #
coedge $-1 $35 $70 $32 $58 0 $10 $-1 #
edge $-1 $95 $64 $32 $96 0 #
coedge $-1 $34 $33 $97 $98 0 $14 $-1 #
edge $-1 $64 $99 $33 $100 0 #
coedge $-1 $101 $102 $34 $62 0 $103 $-1 #
edge $-1 $65 $104 $34 $105 0 #
coedge $-1 $106 $35 $102 $107 0 $10 $-1 #
vertex $-1 $58 $108 #
vertex $-1 $36 $109 #
straight-curve $-1 16.078226819982707 -8.9461156758255242 3.6544946802049799e-15 0 0 -1 I I #
loop $-1 $-1 $37 $110 #
vertex $-1 $38 $111 #
ellipse-curve $-1 18 -9.5 -5.5000000000000844 9.9999999999999998e-17 -8.5999999999999993e-15 1 2 0 0 1 I I #
coedge $-1 $57 $39 $54 $91 0 $10 $-1 #
coedge $-1 $112 $113 $39 $72 1 $52 $-1 #
edge $-1 $76 $114 $71 $115 0 #
coedge $-1 $43 $40 $45 $83 0 $75 $-1 #
coedge $-1 $40 $43 $112 $116 1 $75 $-1 #
loop $-1 $-1 $40 $51 #
vertex $-1 $41 $117 #
straight-curve $-1 17.800250156447408 -11.49000000000018 0 0 0 -1 I I #
coedge $-1 $42 $118 $119 $120 0 $10 $-1 #
coedge $-1 $121 $112 $42 $80 1 $52 $-1 #
edge $-1 $122 $81 $79 $115 0 #
vertex $-1 $116 $123 #
straight-curve $-1 18.199749843552592 -11.49000000000018 0 0 0 1 I I #
edge $-1 $48 $47 $73 $124 0 #
face $125 $110 $46 $6 $-1 $126 forward single #
point $-1 18.199749843552592 -11.49000000000018 -5.2439497498435546e-13 #
point $-1 17.800250156447408 -11.49000000000018 -5.243550250156449e-13 #
ref_vt-lwd-attrib $-1 $-1 $-1 $51 $4 $-1 #
plane-surface $-1 91.249999999998408 -11.49000000000018 -5.3170000000000005e-13 0 -1 -8.5999999999999993e-15 0 8.5999999999999993e-15 -1 0 I I I I #
coedge $-1 $127 $54 $113 $128 1 $30 $-1 #
coedge $-1 $54 $127 $55 $93 0 $30 $-1 #
edge $-1 $114 $95 $54 $129 0 #
coedge $-1 $130 $55 $131 $132 1 $20 $-1 #
edge $-1 $133 $95 $90 $134 0 #
coedge $-1 $56 $135 $136 $137 1 $20 $-1 #
vertex $-1 $93 $138 #
ellipse-curve $-1 18 -9.5 -8.4100000000000003e-14 -9.9999999999999998e-17 8.5999999999999993e-15 -1 2 0 0 1 I I #
coedge $-1 $136 $139 $59 $98 1 $140 $-1 #
edge $-1 $99 $104 $59 $141 0 #
vertex $-1 $60 $142 #
ellipse-curve $-1 17.551449595620696 -16.300000000000168 -5.7669999999999996e-13 -9.9999999999999998e-17 8.5999999999999993e-15 -1 0 -7.5000000000000027 -6.4500000000000015e-14 1 I I #
coedge $-1 $143 $61 $139 $144 0 $103 $-1 #
coedge $-1 $61 $143 $63 $107 1 $103 $-1 #
loop $-1 $-1 $102 $145 #
vertex $-1 $98 $146 #
ellipse-curve $-1 17.551449595620696 -16.300000000000153 -2.5000000000005769 -9.9999999999999998e-17 8.5999999999999993e-15 -1 0 -7.5000000000000027 -6.4500000000000015e-14 1 I I #
coedge $-1 $118 $63 $147 $148 0 $10 $-1 #
edge $-1 $65 $149 $102 $150 0 #
point $-1 16.078226819982703 -8.9461156758255242 -5.7539891217430271e-13 #
point $-1 16.07822681998271 -8.94611567582551 -2.5000000000005755 #
face $151 $145 $67 $6 $-1 $152 forward single #
point $-1 16 -9.4999999999999858 -5.5000000000000844 #
coedge $-1 $79 $71 $74 $116 0 $52 $-1 #
coedge $-1 $71 $121 $89 $128 0 $52 $-1 #
vertex $-1 $128 $153 #
ellipse-curve $-1 18 -9.5 -2.2100000000000919 -9.9999999999999998e-17 8.5999999999999993e-15 -1 2 0 0 1 I I #
edge $-1 $76 $81 $74 $154 0 #
point $-1 17.800250156447337 -11.490000000000173 -2.2100000000005324 #
coedge $-1 $78 $106 $130 $155 0 $10 $-1 #
coedge $-1 $131 $156 $78 $120 1 $157 $-1 #
edge $-1 $158 $122 $119 $159 0 #
coedge $-1 $113 $79 $156 $160 0 $52 $-1 #
vertex $-1 $80 $161 #
point $-1 18.199749843552663 -11.490000000000173 -2.2100000000005329 #
straight-curve $-1 91.249999999998408 -11.49000000000018 -5.3170000000000005e-13 1 0 -9.9999999999999998e-17 I I #
ref_vt-lwd-attrib $-1 $-1 $-1 $84 $4 $-1 #
plane-surface $-1 157.55999999999989 40.350000000000023 -8.4100000000000003e-14 9.9999999999999998e-17 -8.5999999999999993e-15 1 1 0 -9.9999999999999998e-17 0 I I I I #
coedge $-1 $90 $89 $162 $163 1 $30 $-1 #
edge $-1 $164 $114 $89 $165 0 #
straight-curve $-1 16.154078524544126 -10.269788221818718 -7.6282682909048463e-15 0 0 1 I I #
coedge $-1 $135 $92 $118 $155 1 $20 $-1 #
coedge $-1 $162 $119 $92 $132 0 $157 $-1 #
edge $-1 $158 $133 $131 $166 0 #
vertex $-1 $132 $167 #
ellipse-curve $-1 17.551449595620696 -16.300000000000168 -5.7669999999999996e-13 9.9999999999999998e-17 -8.5999999999999993e-15 1 0 6.1899999999999977 5.3233999999999978e-14 1 I I #
coedge $-1 $94 $130 $168 $169 1 $20 $-1 #
coedge $-1 $170 $97 $94 $137 0 $140 $-1 #
edge $-1 $99 $171 $136 $172 0 #
point $-1 16.154078524544133 -10.269788221818718 -5.7550731826919047e-13 #
coedge $-1 $97 $170 $101 $144 1 $140 $-1 #
loop $-1 $-1 $170 $173 #
straight-curve $-1 17.551449595620696 -8.8000000000001677 -5.1159999999999996e-13 -9.9999999999999998e-17 8.5999999999999993e-15 -1 I I #
point $-1 17.551449595620696 -8.8000000000001677 -5.1159999999999996e-13 #
coedge $-1 $102 $101 $174 $175 0 $103 $-1 #
edge $-1 $104 $176 $139 $177 0 #
face $178 $179 $103 $6 $-1 $180 forward single #
point $-1 17.551449595620696 -8.8000000000001535 -2.500000000000512 #
coedge $-1 $174 $168 $106 $148 1 $181 $-1 #
edge $-1 $149 $182 $147 $183 0 #
vertex $-1 $175 $184 #
ellipse-curve $-1 18 -9.5 -2.5000000000000839 -9.9999999999999998e-17 8.5999999999999993e-15 -1 2 0 0 1 I I #
ref_vt-lwd-attrib $-1 $-1 $-1 $110 $4 $-1 #
plane-surface $-1 157.55999999999989 40.350000000000051 -5.5000000000000844 -9.9999999999999998e-17 8.5999999999999993e-15 -1 -1 0 9.9999999999999998e-17 0 I I I I #
point $-1 16.154078524544136 -10.269788221818731 -2.2100000000005835 #
straight-curve $-1 91.249999999998408 -11.490000000000173 -2.21000000000054 1 0 -9.9999999999999998e-17 I I #
edge $-1 $182 $158 $130 $96 0 #
coedge $-1 $119 $162 $121 $160 1 $157 $-1 #
loop $-1 $-1 $119 $179 #
vertex $-1 $120 $185 #
straight-curve $-1 19.90470470152194 -10.110000000000177 0 0 0 -1 I I #
edge $-1 $122 $164 $156 $186 0 #
point $-1 19.90470470152194 -10.110000000000177 -2.2100000000004507 #
coedge $-1 $156 $131 $127 $163 0 $157 $-1 #
edge $-1 $133 $164 $162 $187 0 #
vertex $-1 $163 $188 #
ellipse-curve $-1 17.551449595620696 -16.300000000000182 -2.2100000000005848 9.9999999999999998e-17 -8.5999999999999993e-15 1 0 6.1899999999999977 5.3233999999999978e-14 1 I I #
straight-curve $-1 91.249999999998408 -10.110000000000177 -5.3540000000000002e-13 -1 0 9.9999999999999998e-17 I I #
point $-1 17.551449595620696 -10.110000000000177 -5.0799999999999996e-13 #
coedge $-1 $147 $189 $135 $169 0 $181 $-1 #
edge $-1 $171 $182 $168 $190 0 #
coedge $-1 $139 $136 $189 $191 0 $140 $-1 #
vertex $-1 $169 $192 #
straight-curve $-1 17.551449595620696 -150.89999999999219 -1.1254e-12 0 1 4.2999999999999997e-15 I I #
face $193 $-1 $140 $6 $-1 $194 reversed single #
coedge $-1 $189 $147 $143 $175 1 $181 $-1 #
edge $-1 $176 $149 $174 $195 0 #
vertex $-1 $175 $196 #
straight-curve $-1 17.551449595620696 -150.89999999999219 -2.5000000000011249 0 1 4.2999999999999997e-15 I I #
ref_vt-lwd-attrib $-1 $-1 $-1 $145 $4 $-1 #
face $197 $198 $157 $6 $-1 $199 reversed single #
plane-surface $-1 157.55999999999989 40.35000000000003 -2.5000000000000839 9.9999999999999998e-17 -8.5999999999999993e-15 1 1 0 -9.9999999999999998e-17 0 I I I I #
loop $-1 $-1 $147 $198 #
vertex $-1 $169 $200 #
straight-curve $-1 19.873499399519591 -8.800000000000189 0 0 0 1 I I #
point $-1 19.873499399519581 -8.8000000000001606 -2.5000000000004468 #
point $-1 19.90470470152194 -10.110000000000177 -5.2826547047015242e-13 #
straight-curve $-1 91.249999999998408 -10.110000000000177 -2.2100000000004578 -1 0 9.9999999999999998e-17 I I #
straight-curve $-1 17.551449595620696 -10.110000000000092 -20.641989969335611 -9.9999999999999998e-17 4.2999999999999997e-15 -1 I I #
point $-1 17.551449595620696 -10.110000000000191 -2.210000000000488 #
coedge $-1 $168 $174 $170 $191 1 $181 $-1 #
straight-curve $-1 91.249999999998408 -8.800000000000189 -4.5369999999999998e-13 1 0 -9.9999999999999998e-17 I I #
edge $-1 $171 $176 $189 $201 0 #
point $-1 17.551449595620696 -8.8000000000001677 -5.1159999999999996e-13 #
ref_vt-lwd-attrib $-1 $-1 $-1 $173 $4 $-1 #
plane-surface $-1 17.551449595620696 -150.89999999999219 -1.1254e-12 1 0 -9.9999999999999998e-17 -9.9999999999999998e-17 0 -1 0 I I I I #
straight-curve $-1 91.249999999998408 -8.8000000000001606 -2.5000000000004539 1 0 -9.9999999999999998e-17 I I #
point $-1 17.551449595620696 -8.8000000000001819 -2.500000000000512 #
ref_vt-lwd-attrib $-1 $-1 $-1 $179 $4 $-1 #
face $202 $173 $181 $6 $-1 $203 reversed single #
plane-surface $-1 91.249999999998408 -10.110000000000177 -5.3540000000000002e-13 0 1 8.5999999999999993e-15 0 -8.5999999999999993e-15 1 0 I I I I #
point $-1 19.873499399519591 -8.800000000000189 -4.4656234993995207e-13 #
straight-curve $-1 17.551449595620696 -8.8000000000001677 -5.1159999999999996e-13 -9.9999999999999998e-17 8.5999999999999993e-15 -1 I I #
ref_vt-lwd-attrib $-1 $-1 $-1 $198 $4 $-1 #
plane-surface $-1 91.249999999998408 -8.800000000000189 -4.5369999999999998e-13 0 -1 -8.5999999999999993e-15 0 8.5999999999999993e-15 -1 0 I I I I #
End-of-ACIS-data 