600 0 2 0           
24 FBMach with ACIS - 6.0.3 13 ACIS 6.0.3 NT 24 Wed May 23 20:17:55 2001 
1 9.9999999999999995e-007 1e-010 
body $2 $3 $-1 $4 #
bdycol-kcp $-1 1 2 $5 $6 #
model_id-kcp-attrib $-1 $7 $-1 $0 1 990663475 60 -398721023 1 #
lump $8 $-1 $9 $0 #
transform $-1 1 0 0 0 1 0 0 0 1 -18 9.5 0 1 rotate no_reflect no_shear #
body $10 $11 $-1 $12 #
body $13 $14 $-1 $15 #
ref_vt-eye-attrib $-1 $-1 $2 $0 $16 $-1 #
ref_vt-eye-attrib $-1 $-1 $-1 $3 $16 $-1 #
shell $17 $-1 $-1 $18 $-1 $3 #
model_id-kcp-attrib $-1 $-1 $-1 $5 1 990663475 60 -398721022 1 #
lump $-1 $-1 $19 $5 #
transform $-1 1 0 0 0 1 0 0 0 1 0 0.34999999999992326 -2.7500000000000897 1 no_rotate no_reflect no_shear #
rgb_color-st-attrib $-1 $20 $-1 $6 0.5 1 1 #
lump $-1 $-1 $21 $6 #
transform $-1 1 0 0 0 1 0 0 0 1 0 0.34999999999992326 -2.7500000000000897 1 no_rotate no_reflect no_shear #
eye_refinement $-1 5 grid  1 3 tri 3 4 surf 0 3 adj 0 4 grad 0 9 postcheck 0 4 stol 1.7362124919891357 4 ntol 25 4 dsil 0 8 flatness 0 7 pixarea 0 4 hmax 0 6 gridar 0 5 mgrid 10000 5 ugrid 0 5 vgrid 0 10 end_fields #
ref_vt-eye-attrib $-1 $-1 $-1 $9 $16 $-1 #
face $22 $23 $24 $9 $-1 $25 forward single #
shell $-1 $-1 $-1 $26 $-1 $11 #
model_id-kcp-attrib $-1 $-1 $13 $6 1 990663475 100 -396099581 1 #
shell $-1 $-1 $-1 $27 $-1 $14 #
model_id-kcp-attrib $-1 $-1 $-1 $18 1 990663475 60 -398721023 2 #
face $28 $29 $30 $9 $-1 $31 forward single #
loop $-1 $32 $33 $18 #
cone-surface $-1 18 -9.5 0 0 0 1 2 0 0 1 I I 0 1 2 forward I I I I #
face $34 $35 $36 $19 $-1 $37 forward single #
face $-1 $38 $39 $21 $-1 $40 reversed single #
model_id-kcp-attrib $-1 $41 $-1 $23 1 990663475 60 -398721023 3 #
face $42 $43 $44 $9 $-1 $45 forward single #
loop $-1 $-1 $46 $23 #
cone-surface $-1 17.551449595620696 -16.300000000000168 -5.7669999999999996e-013 -9.9999999999999998e-017 8.5999999999999993e-015 -1 0 7.5000000000000027 6.4500000000000015e-014 1 I I 0 1 7.5000000000000027 forward I I I I #
loop $-1 $-1 $47 $18 #
coedge $-1 $48 $49 $50 $51 forward $24 $-1 #
model_id-kcp-attrib $-1 $52 $-1 $26 1 990663475 60 -398721022 3 #
face $53 $54 $55 $19 $-1 $56 reversed single #
loop $-1 $-1 $57 $26 #
plane-surface $-1 0 0 2.7500000000000115 0 0 1 1 0 0 forward_v I I I I #
face $-1 $58 $59 $21 $-1 $40 reversed single #
loop $-1 $-1 $60 $27 #
cone-surface $-1 -1.7980089385763627e-029 -0.34999999999997122 2.749999999999591 0 -8.5999999999999993e-015 1 2 -1.3766765505351941e-014 -1.1839418334602669e-028 1 I I 0 1 2 forward I I I I #
ref_vt-eye-attrib $-1 $-1 $28 $23 $16 $-1 #
model_id-kcp-attrib $-1 $61 $-1 $29 1 990663475 60 -398721023 14 #
face $62 $63 $64 $9 $-1 $65 reversed single #
loop $-1 $-1 $66 $29 #
plane-surface $-1 157.55999999999989 40.350000000000023 -8.4100000000000003e-014 9.9999999999999998e-017 -8.5999999999999993e-015 1 1 0 -9.9999999999999998e-017 forward_v I I I I #
coedge $-1 $67 $68 $69 $70 reversed $30 $-1 #
coedge $-1 $47 $47 $71 $72 forward $32 $-1 #
coedge $-1 $73 $33 $74 $75 forward $24 $-1 #
coedge $-1 $33 $76 $77 $78 forward $24 $-1 #
coedge $-1 $79 $79 $33 $51 reversed $80 $-1 #
edge $-1 $81 1.4707546131842559 $82 1.6708380404055372 $50 $83 forward 7 unknown #
model_id-kcp-attrib $-1 $-1 $34 $26 1 990663475 60 -398721022 2 #
model_id-kcp-attrib $-1 $-1 $-1 $35 1 990663475 60 -398721022 4 #
face $-1 $84 $85 $19 $-1 $86 reversed single #
loop $-1 $-1 $87 $35 #
plane-surface $-1 0 0 -2.7500000000000115 0 0 1 1 0 0 forward_v I I I I #
coedge $-1 $88 $89 $90 $91 forward $36 $-1 #
face $-1 $92 $93 $21 $-1 $40 reversed single #
loop $-1 $-1 $94 $38 #
coedge $-1 $95 $96 $97 $98 reversed $39 $-1 #
model_id-kcp-attrib $-1 $99 $42 $29 1 990663475 60 -398721023 4 #
model_id-kcp-attrib $-1 $100 $-1 $43 1 990663475 60 -398721023 5 #
face $101 $102 $103 $9 $-1 $104 forward single #
loop $-1 $-1 $105 $43 #
cone-surface $-1 17.551449595620696 -16.300000000000168 -5.7669999999999996e-013 -9.9999999999999998e-017 8.5999999999999993e-015 -1 0 6.1899999999999977 5.3233999999999978e-014 1 I I 0 1 6.1899999999999977 forward I I I I #
coedge $-1 $106 $107 $108 $109 reversed $44 $-1 #
coedge $-1 $110 $46 $107 $111 forward $30 $-1 #
coedge $-1 $46 $110 $112 $113 reversed $30 $-1 #
coedge $-1 $114 $108 $46 $70 forward $24 $-1 #
edge $-1 $115 5.7905340685450766e-013 $116 2.5000000000005791 $46 $117 forward 7 unknown #
coedge $-1 $71 $71 $47 $72 reversed $118 $-1 #
edge $-1 $119 -3.1415926535898002 $119 3.141592653589786 $71 $120 forward 7 unknown #
coedge $-1 $121 $48 $122 $123 forward $24 $-1 #
coedge $-1 $124 $125 $48 $75 reversed $126 $-1 #
edge $-1 $82 5.243550250156449e-013 $127 2.2100000000005324 $74 $128 forward 7 unknown #
coedge $-1 $49 $129 $130 $131 forward $24 $-1 #
coedge $-1 $125 $124 $49 $78 reversed $126 $-1 #
edge $-1 $132 -2.2100000000005329 $81 -5.2439497498435546e-013 $77 $133 forward 7 unknown #
coedge $-1 $50 $50 $124 $134 reversed $80 $-1 #
loop $-1 $-1 $50 $135 #
vertex $-1 $134 $136 #
vertex $-1 $51 $137 #
ellipse-curve $-1 18 -9.5 -8.4100000000000003e-014 -9.9999999999999998e-017 8.5999999999999993e-015 -1 2 0 0 1 I I #
face $-1 $138 $139 $19 $-1 $140 reversed single #
loop $-1 $-1 $141 $54 #
plane-surface $-1 0 -2.3499999999999233 0 0 1 0 0 0 1 forward_v I I I I #
coedge $-1 $142 $143 $144 $145 forward $55 $-1 #
coedge $-1 $146 $57 $147 $148 forward $36 $-1 #
coedge $-1 $57 $146 $149 $150 forward $36 $-1 #
coedge $-1 $151 $152 $57 $91 reversed $153 $-1 #
edge $-1 $154 -2.3499999999999233 $155 2.3499999999999233 $90 $156 forward 7 unknown #
face $-1 $157 $158 $21 $-1 $159 reversed single #
loop $-1 $-1 $160 $58 #
coedge $-1 $161 $162 $163 $164 reversed $59 $-1 #
coedge $-1 $165 $60 $166 $167 reversed $39 $-1 #
coedge $-1 $60 $165 $162 $168 forward $39 $-1 #
coedge $-1 $169 $170 $60 $98 forward $171 $-1 #
edge $-1 $172 -3.1415926535897998 $173 -6.8833827526759706e-015 $97 $174 forward 7 unknown #
ref_vt-eye-attrib $-1 $-1 $61 $29 $16 $-1 #
ref_vt-eye-attrib $-1 $-1 $62 $43 $16 $-1 #
model_id-kcp-attrib $-1 $175 $-1 $63 1 990663475 60 -398721023 6 #
face $176 $135 $126 $9 $-1 $177 reversed single #
loop $-1 $-1 $122 $63 #
plane-surface $-1 157.55999999999977 40.350000000000051 -2.2100000000000919 9.9999999999999998e-017 -8.5999999999999993e-015 1 1 0 -9.9999999999999998e-017 forward_v I I I I #
coedge $-1 $178 $179 $121 $180 reversed $64 $-1 #
coedge $-1 $181 $66 $179 $182 reversed $44 $-1 #
coedge $-1 $66 $183 $67 $111 reversed $44 $-1 #
coedge $-1 $69 $121 $66 $109 forward $24 $-1 #
edge $184 $185 2.7464995614029317 $115 3.4222029878207687 $66 $186 forward 7 unknown #
coedge $-1 $68 $67 $187 $188 forward $30 $-1 #
edge $189 $115 2.943877305352069 $190 3.1415926535897931 $67 $191 forward 7 unknown #
coedge $-1 $192 $193 $68 $113 forward $194 $-1 #
edge $-1 $116 2.9438773053520699 $195 3.1415926535897931 $68 $196 forward 7 unknown #
coedge $-1 $197 $69 $193 $198 forward $24 $-1 #
vertex $-1 $109 $199 #
vertex $-1 $70 $200 #
straight-curve $-1 16.078226819982707 -8.9461156758255242 3.6544946802049799e-015 0 0 -1 I I #
loop $-1 $-1 $71 $201 #
vertex $-1 $72 $202 #
ellipse-curve $-1 18 -9.5 -5.5000000000000844 9.9999999999999998e-017 -8.5999999999999993e-015 1 2 0 0 1 I I #
coedge $-1 $108 $73 $105 $180 forward $24 $-1 #
coedge $-1 $203 $204 $73 $123 reversed $103 $-1 #
edge $-1 $127 1.6708380404055729 $205 2.7464995614029251 $122 $206 forward 7 unknown #
coedge $-1 $77 $74 $79 $134 forward $126 $-1 #
coedge $-1 $74 $77 $203 $207 reversed $126 $-1 #
loop $-1 $-1 $74 $102 #
vertex $-1 $75 $208 #
straight-curve $-1 17.800250156447408 -11.49000000000018 0 0 0 -1 I I #
coedge $-1 $76 $209 $210 $211 forward $24 $-1 #
coedge $-1 $212 $203 $76 $131 reversed $103 $-1 #
edge $-1 $213 0.30993842927833848 $132 1.4707546131842204 $130 $206 forward 7 unknown #
vertex $-1 $207 $214 #
straight-curve $-1 18.199749843552592 -11.49000000000018 0 0 0 1 I I #
edge $-1 $82 -73.449749843551004 $81 -73.050250156445813 $124 $215 forward 7 unknown #
face $216 $201 $80 $9 $-1 $217 forward single #
point $-1 18.199749843552592 -11.49000000000018 -5.2439497498435546e-013 #
point $-1 17.800250156447408 -11.49000000000018 -5.243550250156449e-013 #
face $-1 $218 $219 $19 $-1 $220 reversed single #
loop $-1 $-1 $221 $84 #
plane-surface $-1 -2 0 0 1 0 0 0 0 -1 forward_v I I I I #
coedge $-1 $222 $149 $223 $224 forward $85 $-1 #
coedge $-1 $225 $87 $222 $226 forward $55 $-1 #
coedge $-1 $87 $225 $227 $228 forward $55 $-1 #
coedge $-1 $152 $151 $87 $145 reversed $153 $-1 #
edge $-1 $229 -2.3499999999999233 $230 2.3499999999999233 $144 $231 forward 7 unknown #
coedge $-1 $89 $88 $232 $233 forward $36 $-1 #
coedge $-1 $234 $235 $88 $148 reversed $219 $-1 #
edge $-1 $155 -2 $236 2 $147 $237 forward 7 unknown #
coedge $-1 $141 $238 $89 $150 reversed $85 $-1 #
edge $-1 $239 -2 $154 2 $149 $240 forward 7 unknown #
coedge $-1 $144 $90 $238 $241 forward $153 $-1 #
coedge $-1 $90 $144 $234 $242 reversed $153 $-1 #
loop $-1 $-1 $151 $218 #
vertex $-1 $91 $243 #
vertex $-1 $91 $244 #
straight-curve $-1 2 0 2.7500000000000115 0 1 0 I I #
face $-1 $245 $246 $21 $-1 $247 reversed single #
loop $-1 $-1 $248 $92 #
plane-surface $-1 2 0 0 -1 0 0 0 0 1 forward_v I I I I #
coedge $-1 $249 $250 $251 $252 reversed $93 $-1 #
coedge $-1 $253 $94 $250 $254 forward $59 $-1 #
coedge $-1 $94 $253 $255 $168 reversed $59 $-1 #
coedge $-1 $256 $257 $94 $164 forward $258 $-1 #
edge $-1 $259 -1.5707963267948897 $260 6.8833827526759706e-015 $163 $261 forward 7 unknown #
coedge $-1 $96 $95 $262 $263 reversed $39 $-1 #
coedge $-1 $264 $265 $266 $167 forward $267 $-1 #
edge $-1 $268 -5.4999999999996021 $172 4.205524817280093e-013 $166 $269 forward 7 unknown #
edge $-1 $260 -5.4999999999996021 $173 4.205524817280093e-013 $255 $270 forward 7 unknown #
coedge $-1 $271 $97 $272 $273 forward $171 $-1 #
coedge $-1 $97 $271 $264 $274 forward $171 $-1 #
loop $-1 $-1 $97 $275 #
vertex $-1 $276 $277 #
vertex $-1 $273 $278 #
ellipse-curve $-1 -1.7980089385763627e-029 -0.34999999999997122 2.7500000000000084 0 0 -1 2 -1.3766765505351941e-014 -1.1839418334602669e-028 1 I I #
ref_vt-eye-attrib $-1 $-1 $101 $63 $16 $-1 #
model_id-kcp-attrib $-1 $279 $-1 $102 1 990663475 60 -398721023 7 #
plane-surface $-1 91.249999999998408 -11.49000000000018 -5.3170000000000005e-013 0 -1 -8.5999999999999993e-015 0 8.5999999999999993e-015 -1 forward_v I I I I #
coedge $-1 $280 $105 $204 $281 reversed $64 $-1 #
coedge $-1 $105 $280 $106 $182 forward $64 $-1 #
edge $-1 $205 -2.2100000000005759 $185 -5.6787904997828566e-013 $105 $282 forward 7 unknown #
coedge $-1 $283 $106 $284 $285 reversed $44 $-1 #
edge $286 $287 2.4985460420032482e-031 $185 0.22770928808991217 $179 $288 forward 7 unknown #
coedge $-1 $107 $289 $290 $291 reversed $44 $-1 #
attrib_edge_convexity-kcp-attrib $-1 $292 $-1 $109 1 #
vertex $-1 $182 $293 #
ellipse-curve $-1 18 -9.5 -8.4100000000000003e-014 -9.9999999999999998e-017 8.5999999999999993e-015 -1 2 0 0 1 I I #
coedge $-1 $290 $294 $110 $188 reversed $295 $-1 #
edge $-1 $190 0 $195 2.5000000000000004 $110 $296 forward 7 unknown #
attrib_edge_convexity-kcp-attrib $-1 $297 $-1 $111 1 #
vertex $-1 $111 $298 #
ellipse-curve $-1 17.551449595620696 -16.300000000000168 -5.7669999999999996e-013 -9.9999999999999998e-017 8.5999999999999993e-015 -1 0 -7.5000000000000027 -6.4500000000000015e-014 1 I I #
coedge $-1 $299 $112 $294 $300 forward $194 $-1 #
coedge $-1 $112 $299 $114 $198 reversed $194 $-1 #
loop $-1 $-1 $193 $301 #
vertex $-1 $188 $302 #
ellipse-curve $-1 17.551449595620696 -16.300000000000153 -2.5000000000005769 -9.9999999999999998e-017 8.5999999999999993e-015 -1 0 -7.5000000000000027 -6.4500000000000015e-014 1 I I #
coedge $-1 $209 $114 $303 $304 forward $24 $-1 #
edge $-1 $116 -2.86098231935881 $305 -0.35757110364542433 $193 $306 forward 7 unknown #
point $-1 16.078226819982703 -8.9461156758255242 -5.7539891217430271e-013 #
point $-1 16.07822681998271 -8.94611567582551 -2.5000000000005755 #
face $307 $301 $118 $9 $-1 $308 forward single #
point $-1 16 -9.4999999999999858 -5.5000000000000844 #
coedge $-1 $130 $122 $125 $207 forward $103 $-1 #
coedge $-1 $122 $212 $178 $281 forward $103 $-1 #
vertex $-1 $281 $309 #
ellipse-curve $-1 18 -9.5 -2.2100000000000919 -9.9999999999999998e-017 8.5999999999999993e-015 -1 2 0 0 1 I I #
edge $-1 $127 -73.449749843551075 $132 -73.050250156445742 $125 $310 forward 7 unknown #
point $-1 17.800250156447337 -11.490000000000173 -2.2100000000005324 #
coedge $-1 $129 $197 $283 $311 forward $24 $-1 #
coedge $-1 $284 $312 $129 $211 reversed $313 $-1 #
edge $-1 $314 5.2826547047015242e-013 $213 2.2100000000004507 $210 $315 forward 7 unknown #
coedge $-1 $204 $130 $312 $316 forward $103 $-1 #
vertex $-1 $131 $317 #
point $-1 18.199749843552663 -11.490000000000173 -2.2100000000005329 #
straight-curve $-1 91.249999999998408 -11.49000000000018 -5.3170000000000005e-013 1 0 -9.9999999999999998e-017 I I #
model_id-kcp-attrib $-1 $318 $-1 $135 1 990663475 60 -398721023 8 #
plane-surface $-1 157.55999999999989 40.350000000000023 -8.4100000000000003e-014 9.9999999999999998e-017 -8.5999999999999993e-015 1 1 0 -9.9999999999999998e-017 forward_v I I I I #
face $-1 $-1 $153 $19 $-1 $319 reversed single #
loop $-1 $-1 $234 $138 #
plane-surface $-1 0 2.3499999999999233 0 0 -1 0 0 0 -1 forward_v I I I I #
coedge $-1 $320 $232 $235 $321 forward $139 $-1 #
coedge $-1 $238 $141 $142 $226 reversed $85 $-1 #
coedge $-1 $232 $320 $141 $224 reversed $139 $-1 #
edge $-1 $239 -2.7500000000000115 $322 2.7500000000000115 $223 $323 forward 7 unknown #
coedge $-1 $143 $142 $320 $324 forward $55 $-1 #
edge $-1 $230 -2 $322 2 $222 $325 forward 7 unknown #
coedge $-1 $235 $234 $143 $228 reversed $219 $-1 #
edge $-1 $326 -2 $229 2 $227 $327 forward 7 unknown #
vertex $-1 $145 $328 #
vertex $-1 $241 $329 #
straight-curve $-1 2 0 -2.7500000000000115 0 -1 0 I I #
coedge $-1 $221 $223 $146 $233 reversed $139 $-1 #
edge $-1 $236 -2.3499999999999233 $239 2.3499999999999233 $232 $330 forward 7 unknown #
coedge $-1 $227 $147 $152 $242 forward $219 $-1 #
coedge $-1 $147 $227 $221 $321 reversed $219 $-1 #
vertex $-1 $148 $331 #
straight-curve $-1 0 2.3499999999999233 2.7500000000000115 -1 0 0 I I #
coedge $-1 $149 $222 $151 $241 reversed $85 $-1 #
vertex $-1 $233 $332 #
straight-curve $-1 0 -2.3499999999999233 2.7500000000000115 1 0 0 I I #
edge $-1 $154 -2.7500000000000115 $230 2.7500000000000115 $151 $333 forward 7 unknown #
edge $-1 $155 -2.7500000000000115 $229 2.7500000000000115 $152 $334 forward 7 unknown #
point $-1 2 -2.3499999999999233 2.7500000000000115 #
point $-1 2 2.3499999999999233 2.7500000000000115 #
face $-1 $275 $335 $21 $-1 $336 forward single #
loop $-1 $-1 $266 $157 #
plane-surface $-1 -2 0 0 1 0 0 0 0 -1 forward_v I I I I #
coedge $-1 $337 $272 $96 $168 reversed $158 $-1 #
coedge $-1 $338 $160 $95 $167 forward $93 $-1 #
coedge $-1 $160 $338 $339 $254 reversed $93 $-1 #
coedge $-1 $340 $341 $160 $252 forward $342 $-1 #
edge $-1 $268 -3.1415926535897865 $259 -1.5707963267948897 $251 $261 forward 7 unknown #
coedge $-1 $162 $161 $343 $344 reversed $59 $-1 #
edge $-1 $259 -5.4999999999995861 $345 4.3742787170231168e-013 $339 $346 forward 7 unknown #
coedge $-1 $347 $348 $248 $168 forward $349 $-1 #
coedge $-1 $257 $163 $348 $350 forward $258 $-1 #
coedge $-1 $163 $256 $351 $352 forward $258 $-1 #
loop $-1 $-1 $163 $353 #
vertex $-1 $354 $355 #
vertex $-1 $350 $356 #
ellipse-curve $-1 -1.7980089385763627e-029 -0.34999999999992393 -2.7500000000000138 0 0 1 2 -1.3766765505351941e-014 -1.1839418334602669e-028 1 I I #
coedge $-1 $357 $358 $165 $263 forward $359 $-1 #
edge $-1 $260 6.8833827526759706e-015 $268 3.1415926535897998 $262 $261 forward 7 unknown #
coedge $-1 $360 $166 $170 $274 reversed $267 $-1 #
coedge $-1 $166 $360 $357 $361 reversed $267 $-1 #
coedge $-1 $362 $363 $249 $167 reversed $246 $-1 #
loop $-1 $-1 $166 $364 #
vertex $-1 $361 $365 #
straight-curve $-1 -2 -0.34999999999997122 2.749999999999591 0 -8.5999999999999993e-015 1 I I #
straight-curve $-1 2 -0.34999999999997122 2.749999999999591 0 -8.5999999999999993e-015 1 I I #
coedge $-1 $170 $169 $366 $367 forward $171 $-1 #
coedge $-1 $248 $368 $169 $273 reversed $158 $-1 #
edge $-1 $173 -0.34999999999997122 $369 2.3499999999999233 $272 $370 forward 7 unknown #
edge $-1 $371 -2.3499999999999233 $172 0.34999999999997122 $264 $372 forward 7 unknown #
face $-1 $373 $171 $21 $-1 $336 forward single #
edge $-1 $172 0.34999999999997122 $374 2.3499999999999233 $363 $372 forward 7 unknown #
point $-1 -2 -0.34999999999997122 2.7500000000000115 #
point $-1 2 -0.34999999999997122 2.7500000000000115 #
ref_vt-eye-attrib $-1 $-1 $176 $102 $16 $-1 #
coedge $-1 $179 $178 $375 $376 reversed $64 $-1 #
edge $-1 $377 7.0399754034432639e-031 $205 0.22770928808991148 $178 $378 forward 7 unknown #
straight-curve $-1 16.154078524544126 -10.269788221818718 -7.6282682909048463e-015 0 0 1 I I #
coedge $-1 $289 $181 $209 $311 reversed $44 $-1 #
coedge $-1 $375 $210 $181 $285 forward $313 $-1 #
edge $379 $314 71.345295298476472 $287 73.698550404377713 $284 $380 forward 7 unknown #
attrib_edge_convexity-kcp-attrib $-1 $381 $-1 $182 1 #
vertex $-1 $285 $382 #
ellipse-curve $-1 17.551449595620696 -16.300000000000168 -5.7669999999999996e-013 9.9999999999999998e-017 -8.5999999999999993e-015 1 0 6.1899999999999977 5.3233999999999978e-014 1 I I #
coedge $-1 $183 $283 $383 $384 reversed $44 $-1 #
coedge $-1 $385 $187 $183 $291 forward $295 $-1 #
edge $386 $190 142.09999999999201 $387 144.09999999999201 $290 $388 forward 7 unknown #
convexity-sys-attrib $-1 $-1 $184 $109 #
point $-1 16.154078524544133 -10.269788221818718 -5.7550731826919047e-013 #
coedge $-1 $187 $385 $192 $300 reversed $295 $-1 #
loop $-1 $-1 $385 $389 #
straight-curve $-1 17.551449595620696 -8.8000000000001677 -5.1159999999999996e-013 -9.9999999999999998e-017 8.5999999999999993e-015 -1 I I #
convexity-sys-attrib $-1 $-1 $189 $111 #
point $-1 17.551449595620696 -8.8000000000001677 -5.1159999999999996e-013 #
coedge $-1 $193 $192 $390 $391 forward $194 $-1 #
edge $-1 $195 142.09999999999201 $392 144.09999999999204 $294 $393 forward 7 unknown #
face $394 $395 $194 $9 $-1 $396 forward single #
point $-1 17.551449595620696 -8.8000000000001535 -2.500000000000512 #
coedge $-1 $390 $383 $197 $304 reversed $397 $-1 #
edge $-1 $305 -2.5000000000004468 $398 -4.4656234993995207e-013 $303 $399 forward 7 unknown #
vertex $-1 $391 $400 #
ellipse-curve $-1 18 -9.5 -2.5000000000000839 -9.9999999999999998e-017 8.5999999999999993e-015 -1 2 0 0 1 I I #
model_id-kcp-attrib $-1 $401 $-1 $201 1 990663475 60 -398721023 9 #
plane-surface $-1 157.55999999999989 40.350000000000051 -5.5000000000000844 -9.9999999999999998e-017 8.5999999999999993e-015 -1 -1 0 9.9999999999999998e-017 forward_v I I I I #
point $-1 16.154078524544136 -10.269788221818731 -2.2100000000005835 #
straight-curve $-1 91.249999999998408 -11.490000000000173 -2.21000000000054 1 0 -9.9999999999999998e-017 I I #
edge $402 $398 -0.35757110364540917 $314 0.30993842927833848 $283 $186 forward 7 unknown #
coedge $-1 $210 $375 $212 $316 reversed $313 $-1 #
loop $-1 $-1 $210 $395 #
vertex $-1 $211 $403 #
straight-curve $-1 19.90470470152194 -10.110000000000177 0 0 0 -1 I I #
edge $-1 $213 71.345295298476472 $377 73.698550404377713 $312 $404 forward 7 unknown #
point $-1 19.90470470152194 -10.110000000000177 -2.2100000000004507 #
ref_vt-eye-attrib $-1 $-1 $216 $135 $16 $-1 #
plane-surface $-1 2 0 0 -1 0 0 0 0 1 forward_v I I I I #
coedge $-1 $223 $221 $225 $324 reversed $139 $-1 #
edge $-1 $236 -2.7500000000000115 $326 2.7500000000000115 $235 $405 forward 7 unknown #
vertex $-1 $324 $406 #
straight-curve $-1 -2 -2.3499999999999233 0 0 0 -1 I I #
edge $-1 $322 -2.3499999999999233 $326 2.3499999999999233 $320 $407 forward 7 unknown #
straight-curve $-1 0 -2.3499999999999233 -2.7500000000000115 -1 0 0 I I #
vertex $-1 $228 $408 #
straight-curve $-1 0 2.3499999999999233 -2.7500000000000115 1 0 0 I I #
point $-1 2 2.3499999999999233 -2.7500000000000115 #
point $-1 2 -2.3499999999999233 -2.7500000000000115 #
straight-curve $-1 -2 0 2.7500000000000115 0 -1 0 I I #
point $-1 -2 2.3499999999999233 2.7500000000000115 #
point $-1 -2 -2.3499999999999233 2.7500000000000115 #
straight-curve $-1 2 -2.3499999999999233 0 0 0 -1 I I #
straight-curve $-1 2 2.3499999999999233 0 0 0 -1 I I #
loop $-1 $-1 $409 $245 #
plane-surface $-1 0 0 2.7500000000000115 0 0 1 1 0 0 forward_v I I I I #
coedge $-1 $368 $248 $358 $410 reversed $158 $-1 #
coedge $-1 $250 $249 $409 $411 reversed $93 $-1 #
coedge $-1 $412 $413 $414 $254 forward $415 $-1 #
coedge $-1 $341 $251 $413 $354 forward $342 $-1 #
coedge $-1 $251 $340 $362 $416 forward $342 $-1 #
loop $-1 $-1 $251 $417 #
coedge $-1 $418 $419 $253 $344 forward $420 $-1 #
edge $-1 $173 -6.8833827526759706e-015 $345 1.5707963267948897 $343 $174 forward 7 unknown #
vertex $-1 $421 $422 #
straight-curve $-1 -1.7980089385763627e-029 -2.3499999999999233 2.7499999999995741 0 -8.5999999999999993e-015 1 I I #
coedge $-1 $423 $255 $419 $424 reversed $349 $-1 #
coedge $-1 $255 $423 $256 $350 reversed $349 $-1 #
loop $-1 $-1 $255 $425 #
edge $-1 $260 0.34999999999992393 $426 2.3499999999999233 $348 $427 forward 7 unknown #
coedge $-1 $428 $414 $257 $352 reversed $429 $-1 #
edge $-1 $426 -2 $259 1.7980089385763627e-029 $351 $430 forward 7 unknown #
face $-1 $431 $258 $21 $-1 $432 reversed single #
edge $-1 $259 1.7980089385763627e-029 $433 2 $413 $430 forward 7 unknown #
point $-1 -1.7980089385763627e-029 -2.3499999999999228 -2.750000000000012 #
point $-1 2 -0.34999999999992393 -2.7500000000000111 #
coedge $-1 $434 $262 $265 $361 forward $359 $-1 #
coedge $-1 $262 $434 $337 $410 forward $359 $-1 #
loop $-1 $-1 $262 $431 #
coedge $-1 $265 $264 $435 $436 forward $267 $-1 #
edge $-1 $268 -0.34999999999992393 $437 2.3499999999999233 $265 $438 forward 7 unknown #
coedge $-1 $439 $266 $341 $416 reversed $246 $-1 #
coedge $-1 $266 $439 $440 $276 reversed $246 $-1 #
face $-1 $441 $267 $21 $-1 $247 reversed single #
point $-1 -2 -0.34999999999992393 -2.7500000000000111 #
coedge $-1 $442 $435 $271 $367 reversed $443 $-1 #
edge $-1 $369 -2 $371 2 $366 $444 forward 7 unknown #
coedge $-1 $272 $337 $442 $445 reversed $158 $-1 #
vertex $-1 $273 $446 #
straight-curve $-1 2 0 2.7500000000000115 0 1 0 I I #
vertex $-1 $367 $447 #
straight-curve $-1 -2 0 2.7500000000000115 0 -1 0 I I #
face $-1 $448 $420 $21 $-1 $336 forward single #
vertex $-1 $276 $449 #
coedge $-1 $312 $284 $280 $376 forward $313 $-1 #
edge $-1 $287 -20.641989969335103 $377 -18.431989969335124 $375 $450 forward 7 unknown #
vertex $-1 $376 $451 #
ellipse-curve $-1 17.551449595620696 -16.300000000000182 -2.2100000000005848 9.9999999999999998e-017 -8.5999999999999993e-015 1 0 6.1899999999999977 5.3233999999999978e-014 1 I I #
attrib_edge_convexity-kcp-attrib $-1 $452 $-1 $285 1 #
straight-curve $-1 91.249999999998408 -10.110000000000177 -5.3540000000000002e-013 -1 0 9.9999999999999998e-017 I I #
convexity-sys-attrib $-1 $-1 $286 $182 #
point $-1 17.551449595620696 -10.110000000000177 -5.0799999999999996e-013 #
coedge $-1 $303 $453 $289 $384 forward $397 $-1 #
edge $454 $387 -73.698550404377713 $398 -71.376500600478821 $383 $455 forward 7 unknown #
coedge $-1 $294 $290 $453 $456 forward $295 $-1 #
attrib_edge_convexity-kcp-attrib $-1 $457 $-1 $291 1 #
vertex $-1 $384 $458 #
straight-curve $-1 17.551449595620696 -150.89999999999219 -1.1254e-012 0 1 4.2999999999999997e-015 I I #
face $459 $-1 $295 $9 $-1 $460 reversed single #
coedge $-1 $453 $303 $299 $391 reversed $397 $-1 #
edge $-1 $392 -73.698550404377713 $305 -71.376500600478835 $390 $461 forward 7 unknown #
vertex $-1 $391 $462 #
straight-curve $-1 17.551449595620696 -150.89999999999219 -2.5000000000011249 0 1 4.2999999999999997e-015 I I #
model_id-kcp-attrib $-1 $463 $-1 $301 1 990663475 60 -398721023 10 #
face $464 $465 $313 $9 $-1 $466 reversed single #
plane-surface $-1 157.55999999999989 40.35000000000003 -2.5000000000000839 9.9999999999999998e-017 -8.5999999999999993e-015 1 1 0 -9.9999999999999998e-017 forward_v I I I I #
loop $-1 $-1 $303 $465 #
vertex $-1 $384 $467 #
straight-curve $-1 19.873499399519591 -8.800000000000189 0 0 0 1 I I #
point $-1 19.873499399519581 -8.8000000000001606 -2.5000000000004468 #
ref_vt-eye-attrib $-1 $-1 $307 $201 $16 $-1 #
attrib_edge_convexity-kcp-attrib $-1 $468 $-1 $311 1 #
point $-1 19.90470470152194 -10.110000000000177 -5.2826547047015242e-013 #
straight-curve $-1 91.249999999998408 -10.110000000000177 -2.2100000000004578 -1 0 9.9999999999999998e-017 I I #
straight-curve $-1 -2 2.3499999999999233 0 0 0 -1 I I #
point $-1 -2 -2.3499999999999233 -2.7500000000000115 #
straight-curve $-1 -2 0 -2.7500000000000115 0 1 0 I I #
point $-1 -2 2.3499999999999233 -2.7500000000000115 #
coedge $-1 $440 $469 $338 $411 forward $335 $-1 #
edge $-1 $470 -2.3499999999999233 $260 0.34999999999992393 $337 $427 forward 7 unknown #
edge $-1 $345 1.5707963267948897 $172 3.1415926535897865 $409 $174 forward 7 unknown #
coedge $-1 $471 $339 $469 $472 reversed $415 $-1 #
coedge $-1 $339 $471 $340 $354 reversed $415 $-1 #
coedge $-1 $351 $473 $161 $254 reversed $429 $-1 #
loop $-1 $-1 $339 $474 #
edge $-1 $433 -2.3499999999999233 $268 -0.34999999999992393 $362 $438 forward 7 unknown #
face $-1 $353 $342 $21 $-1 $432 reversed single #
coedge $-1 $419 $343 $473 $421 forward $420 $-1 #
coedge $-1 $343 $418 $347 $424 forward $420 $-1 #
loop $-1 $-1 $343 $373 #
edge $-1 $345 -1.7980089385763627e-029 $475 2 $473 $476 forward 7 unknown #
point $-1 -1.7980089385763627e-029 -2.3499999999999233 2.7500000000000115 #
coedge $-1 $348 $347 $428 $477 forward $349 $-1 #
edge $-1 $475 -2.3499999999999233 $173 -0.34999999999997122 $347 $370 forward 7 unknown #
face $-1 $-1 $349 $21 $-1 $159 reversed single #
vertex $-1 $477 $478 #
straight-curve $-1 2 0 -2.7500000000000115 0 -1 0 I I #
coedge $-1 $473 $351 $423 $477 reversed $429 $-1 #
loop $-1 $-1 $414 $448 #
straight-curve $-1 0 -2.3499999999999233 -2.7500000000000115 -1 0 0 I I #
face $-1 $474 $359 $21 $-1 $432 reversed single #
plane-surface $-1 0 0 -2.7500000000000115 0 0 1 1 0 0 forward_v I I I I #
vertex $-1 $416 $479 #
coedge $-1 $358 $357 $480 $481 forward $359 $-1 #
coedge $-1 $366 $480 $360 $436 reversed $443 $-1 #
edge $-1 $371 -2.7500000000000115 $437 2.7500000000000115 $435 $482 forward 7 unknown #
vertex $-1 $481 $483 #
straight-curve $-1 -2 0 -2.7500000000000115 0 1 0 I I #
coedge $-1 $363 $362 $471 $484 reversed $246 $-1 #
coedge $-1 $469 $409 $363 $276 forward $335 $-1 #
face $-1 $425 $443 $21 $-1 $485 reversed single #
coedge $-1 $480 $366 $368 $445 forward $443 $-1 #
loop $-1 $-1 $442 $441 #
straight-curve $-1 0 2.3499999999999233 2.7500000000000115 -1 0 0 I I #
edge $-1 $369 -2.7500000000000115 $470 2.7500000000000115 $368 $486 forward 7 unknown #
point $-1 2 2.3499999999999233 2.7500000000000115 #
point $-1 -2 2.3499999999999233 2.7500000000000115 #
face $-1 $417 $429 $21 $-1 $487 reversed single #
point $-1 -2 -2.3499999999999233 2.7500000000000115 #
straight-curve $-1 17.551449595620696 -10.110000000000092 -20.641989969335611 -9.9999999999999998e-017 4.2999999999999997e-015 -1 I I #
point $-1 17.551449595620696 -10.110000000000191 -2.210000000000488 #
convexity-sys-attrib $-1 $-1 $379 $285 #
coedge $-1 $383 $390 $385 $456 reversed $397 $-1 #
attrib_edge_convexity-kcp-attrib $-1 $488 $-1 $384 1 #
straight-curve $-1 91.249999999998408 -8.800000000000189 -4.5369999999999998e-013 1 0 -9.9999999999999998e-017 I I #
edge $-1 $387 0 $392 2.5000000000000004 $453 $489 forward 7 unknown #
convexity-sys-attrib $-1 $-1 $386 $291 #
point $-1 17.551449595620696 -8.8000000000001677 -5.1159999999999996e-013 #
model_id-kcp-attrib $-1 $490 $-1 $389 1 990663475 60 -398721023 13 #
plane-surface $-1 17.551449595620696 -150.89999999999219 -1.1254e-012 1 0 -9.9999999999999998e-017 -9.9999999999999998e-017 0 -1 forward_v I I I I #
straight-curve $-1 91.249999999998408 -8.8000000000001606 -2.5000000000004539 1 0 -9.9999999999999998e-017 I I #
point $-1 17.551449595620696 -8.8000000000001819 -2.500000000000512 #
ref_vt-eye-attrib $-1 $-1 $394 $301 $16 $-1 #
model_id-kcp-attrib $-1 $491 $-1 $395 1 990663475 60 -398721023 11 #
face $492 $389 $397 $9 $-1 $493 reversed single #
plane-surface $-1 91.249999999998408 -10.110000000000177 -5.3540000000000002e-013 0 1 8.5999999999999993e-015 0 -8.5999999999999993e-015 1 forward_v I I I I #
point $-1 19.873499399519591 -8.800000000000189 -4.4656234993995207e-013 #
convexity-sys-attrib $-1 $-1 $402 $311 #
coedge $-1 $409 $440 $412 $472 forward $335 $-1 #
vertex $-1 $410 $494 #
coedge $-1 $413 $412 $439 $484 forward $415 $-1 #
edge $-1 $374 -2 $345 -1.7980089385763627e-029 $412 $476 forward 7 unknown #
coedge $-1 $414 $428 $418 $421 reversed $429 $-1 #
face $-1 $364 $415 $21 $-1 $487 reversed single #
vertex $-1 $424 $495 #
straight-curve $-1 0 -2.3499999999999233 2.7500000000000115 1 0 0 I I #
edge $-1 $475 -2.7500000000000115 $426 2.7500000000000115 $423 $496 forward 7 unknown #
point $-1 2 -2.3499999999999233 -2.7500000000000115 #
point $-1 -2 -2.3499999999999233 -2.7500000000000115 #
coedge $-1 $435 $442 $434 $481 reversed $443 $-1 #
edge $-1 $437 -2 $470 2 $480 $497 forward 7 unknown #
straight-curve $-1 -2 2.3499999999999233 0 0 0 -1 I I #
point $-1 -2 2.3499999999999233 -2.7500000000000115 #
edge $-1 $374 -2.7500000000000115 $433 2.7500000000000115 $439 $498 forward 7 unknown #
plane-surface $-1 0 2.3499999999999233 0 0 -1 0 0 0 -1 forward_v I I I I #
straight-curve $-1 2 2.3499999999999233 0 0 0 -1 I I #
plane-surface $-1 0 -2.3499999999999233 0 0 1 0 0 0 1 forward_v I I I I #
convexity-sys-attrib $-1 $-1 $454 $384 #
straight-curve $-1 17.551449595620696 -8.8000000000001677 -5.1159999999999996e-013 -9.9999999999999998e-017 8.5999999999999993e-015 -1 I I #
ref_vt-eye-attrib $-1 $-1 $459 $389 $16 $-1 #
ref_vt-eye-attrib $-1 $-1 $464 $395 $16 $-1 #
model_id-kcp-attrib $-1 $499 $-1 $465 1 990663475 60 -398721023 12 #
plane-surface $-1 91.249999999998408 -8.800000000000189 -4.5369999999999998e-013 0 -1 -8.5999999999999993e-015 0 8.5999999999999993e-015 -1 forward_v I I I I #
point $-1 2 2.3499999999999233 -2.7500000000000115 #
point $-1 2 -2.3499999999999233 2.7500000000000115 #
straight-curve $-1 2 -2.3499999999999233 0 0 0 -1 I I #
straight-curve $-1 0 2.3499999999999233 -2.7500000000000115 1 0 0 I I #
straight-curve $-1 -2 -2.3499999999999233 0 0 0 -1 I I #
ref_vt-eye-attrib $-1 $-1 $492 $465 $16 $-1 #
End-of-ACIS-data 