104 369 0 0                             
body $-1 $1 $-1 $-1 #
lump $-1 $-1 $2 $0 #
shell $-1 $-1 $-1 $3 $1 #
face $-1 $4 $5 $2 $-1 $6 0 #
face $-1 $7 $8 $2 $-1 $9 0 #
loop $-1 $-1 $10 $3 #
plane-surface $-1 -25 0 0 1 0 0 0 1 3.49148133884313e-15 0 #
face $-1 $11 $12 $2 $-1 $13 0 #
loop $-1 $-1 $14 $4 #
plane-surface $-1 25 0 0 -1 -0 0 0 -1 -3.49148133884313e-15 0 #
coedge $-1 $15 $16 $17 $18 1 $5 $-1 #
face $-1 $19 $20 $2 $-1 $21 0 #
loop $-1 $-1 $22 $7 #
plane-surface $-1 5.76094420909117e-14 -16.5 37.5 -3.49148133884313e-15 1 0 -0 0 -1 0 #
coedge $-1 $23 $24 $25 $26 1 $8 $-1 #
coedge $-1 $27 $10 $28 $29 0 $5 $-1 #
coedge $-1 $10 $27 $30 $31 0 $5 $-1 #
coedge $-1 $32 $33 $10 $18 0 $34 $-1 #
edge $-1 $35 $36 $17 $37 0 #
face $-1 $38 $34 $2 $-1 $21 0 #
loop $-1 $-1 $39 $11 #
plane-surface $-1 0 0 25 0 0 1 1 0 0 0 #
coedge $-1 $40 $28 $33 $41 0 $12 $-1 #
coedge $-1 $42 $14 $43 $44 0 $8 $-1 #
coedge $-1 $14 $42 $45 $46 0 $8 $-1 #
coedge $-1 $47 $48 $14 $26 0 $49 $-1 #
edge $-1 $50 $51 $25 $52 0 #
coedge $-1 $16 $15 $53 $54 1 $5 $-1 #
coedge $-1 $22 $55 $15 $29 1 $12 $-1 #
edge $-1 $35 $56 $15 $57 0 #
coedge $-1 $58 $59 $16 $31 1 $60 $-1 #
edge $-1 $61 $36 $16 $62 0 #
coedge $-1 $63 $17 $59 $64 1 $34 $-1 #
coedge $-1 $17 $63 $22 $41 1 $34 $-1 #
loop $-1 $-1 $17 $19 #
vertex $-1 $41 $65 #
vertex $-1 $64 $66 #
straight-curve $-1 -25 0 25 0 1 0 #
face $-1 $67 $49 $2 $-1 $21 0 #
coedge $-1 $68 $69 $70 $71 0 $20 $-1 #
coedge $-1 $72 $22 $73 $74 1 $12 $-1 #
edge $-1 $35 $75 $22 $76 0 #
coedge $-1 $24 $23 $77 $78 1 $8 $-1 #
coedge $-1 $79 $58 $23 $44 1 $60 $-1 #
edge $-1 $50 $80 $23 $81 0 #
coedge $-1 $55 $82 $24 $46 1 $12 $-1 #
edge $-1 $83 $51 $24 $84 0 #
coedge $-1 $85 $25 $82 $86 1 $49 $-1 #
coedge $-1 $25 $85 $79 $87 1 $49 $-1 #
loop $-1 $-1 $25 $38 #
vertex $-1 $87 $88 #
vertex $-1 $86 $89 #
straight-curve $-1 25 0 25 0 -1 0 #
coedge $-1 $90 $91 $27 $54 0 $92 $-1 #
edge $-1 $61 $56 $53 $93 0 #
coedge $-1 $28 $45 $90 $94 1 $12 $-1 #
vertex $-1 $94 $95 #
straight-curve $-1 -25 -16.5 -5.76094420909117e-14 0 3.49148133884313e-15 -1 #
coedge $-1 $43 $30 $91 $96 1 $60 $-1 #
coedge $-1 $30 $97 $32 $64 0 $60 $-1 #
loop $-1 $-1 $98 $67 #
vertex $-1 $96 $99 #
straight-curve $-1 -25 16.5 5.76094420909117e-14 0 -3.49148133884313e-15 1 #
coedge $-1 $33 $32 $100 $101 1 $34 $-1 #
edge $-1 $102 $36 $59 $103 0 #
point $-1 -25 -16.5000000000001 25 #
point $-1 -25 16.4999999999999 25 #
face $-1 $104 $60 $2 $-1 $105 0 #
coedge $-1 $106 $39 $107 $108 1 $20 $-1 #
coedge $-1 $39 $106 $109 $110 1 $20 $-1 #
coedge $-1 $111 $112 $39 $71 1 $60 $-1 #
edge $-1 $113 $114 $39 $115 0 #
coedge $-1 $116 $40 $117 $118 1 $12 $-1 #
coedge $-1 $100 $119 $40 $74 0 $120 $-1 #
edge $-1 $121 $75 $73 $122 0 #
vertex $-1 $101 $123 #
straight-curve $-1 5.76094420909117e-14 -16.5 25 -1 -3.49148133884313e-15 0 #
coedge $-1 $91 $90 $42 $78 0 $92 $-1 #
edge $-1 $83 $80 $77 $124 0 #
coedge $-1 $125 $43 $48 $87 0 $60 $-1 #
vertex $-1 $96 $126 #
straight-curve $-1 25 16.5 5.76094420909117e-14 0 3.49148133884313e-15 -1 #
coedge $-1 $45 $127 $47 $86 0 $12 $-1 #
vertex $-1 $94 $128 #
straight-curve $-1 25 -16.5 -5.76094420909117e-14 0 -3.49148133884313e-15 1 #
coedge $-1 $48 $47 $129 $130 1 $49 $-1 #
edge $-1 $131 $51 $82 $76 0 #
edge $-1 $50 $132 $79 $103 0 #
point $-1 25 16.4999999999999 25 #
point $-1 25 -16.5000000000001 25 #
coedge $-1 $77 $53 $55 $94 0 $92 $-1 #
coedge $-1 $53 $77 $58 $96 0 $92 $-1 #
loop $-1 $133 $91 $134 #
straight-curve $-1 -25 0 -50 0 -1 0 #
edge $-1 $56 $83 $90 $135 0 #
point $-1 -25 -16.4999999999998 -50.0000000000001 #
edge $-1 $80 $61 $91 $136 0 #
coedge $-1 $59 $98 $137 $138 1 $60 $-1 #
coedge $-1 $97 $111 $139 $140 1 $60 $-1 #
point $-1 -25 16.5000000000002 -49.9999999999999 #
coedge $-1 $137 $73 $63 $101 0 $120 $-1 #
edge $-1 $75 $102 $100 $141 0 #
vertex $-1 $101 $142 #
straight-curve $-1 -5.76094420909117e-14 16.5 25 1 3.49148133884313e-15 0 #
face $-1 $143 $120 $2 $-1 $144 1 #
plane-surface $-1 -5.76094420909117e-14 16.5 37.5 3.49148133884313e-15 -1 0 0 0 1 0 #
coedge $-1 $69 $68 $145 $146 1 $20 $-1 #
coedge $-1 $147 $148 $68 $108 0 $149 $-1 #
edge $-1 $150 $114 $107 $151 0 #
coedge $-1 $152 $153 $69 $110 0 $154 $-1 #
edge $-1 $113 $155 $109 $156 0 #
coedge $-1 $98 $70 $153 $157 1 $60 $-1 #
coedge $-1 $70 $158 $147 $159 1 $60 $-1 #
vertex $-1 $157 $160 #
vertex $-1 $108 $161 #
straight-curve $-1 0 16.4999999999999 25 1 0 -0 #
coedge $-1 $162 $72 $163 $164 1 $12 $-1 #
coedge $-1 $165 $166 $72 $118 0 $167 $-1 #
edge $-1 $168 $121 $117 $169 0 #
coedge $-1 $73 $170 $165 $171 1 $120 $-1 #
loop $-1 $-1 $73 $104 #
vertex $-1 $118 $172 #
straight-curve $-1 -50 -16.5000000000002 18.75 0 0 -1 #
point $-1 -49.9999999999999 -16.5000000000002 25 #
straight-curve $-1 25 0 -50 -0 1 0 #
coedge $-1 $158 $79 $173 $174 1 $60 $-1 #
point $-1 25 16.5000000000002 -49.9999999999999 #
coedge $-1 $82 $175 $176 $177 1 $12 $-1 #
point $-1 25 -16.4999999999998 -50.0000000000001 #
coedge $-1 $176 $173 $85 $130 0 $178 $-1 #
edge $-1 $132 $131 $129 $179 0 #
vertex $-1 $130 $180 #
vertex $-1 $130 $181 #
loop $-1 $-1 $182 $134 #
face $-1 $183 $92 $2 $-1 $184 1 #
straight-curve $-1 0 -16.4999999999998 -50 1 0 -0 #
straight-curve $-1 0 16.5000000000002 -50 -1 -0 0 #
coedge $-1 $185 $100 $97 $138 0 $120 $-1 #
edge $-1 $102 $186 $137 $187 0 #
coedge $-1 $188 $189 $98 $140 0 $190 $-1 #
edge $-1 $186 $191 $139 $192 0 #
straight-curve $-1 -50 0 25 0 1 0 #
point $-1 -50.0000000000001 16.4999999999998 25 #
face $-1 $193 $190 $2 $-1 $194 0 #
plane-surface $-1 -50 0 0 1 0 0 0 0 -1 0 #
coedge $-1 $195 $196 $106 $146 0 $197 $-1 #
edge $-1 $155 $150 $145 $198 0 #
coedge $-1 $199 $107 $112 $159 0 $149 $-1 #
coedge $-1 $107 $199 $195 $200 1 $149 $-1 #
loop $-1 $-1 $147 $201 #
vertex $-1 $146 $202 #
straight-curve $-1 16.5 0 25 0 -1 0 #
coedge $-1 $203 $109 $196 $204 1 $154 $-1 #
coedge $-1 $109 $203 $111 $157 0 $154 $-1 #
loop $-1 $-1 $153 $193 #
vertex $-1 $146 $205 #
straight-curve $-1 -16.5 0 25 0 1 0 #
edge $-1 $191 $113 $153 $206 0 #
coedge $-1 $112 $125 $207 $208 1 $60 $-1 #
edge $-1 $114 $209 $147 $210 0 #
point $-1 -16.5 16.4999999999999 25 #
point $-1 16.5 16.5000000000001 25 #
coedge $-1 $211 $116 $212 $213 1 $12 $-1 #
coedge $-1 $214 $215 $116 $164 0 $216 $-1 #
edge $-1 $217 $168 $163 $218 0 #
coedge $-1 $219 $117 $119 $171 0 $167 $-1 #
coedge $-1 $117 $219 $214 $220 0 $167 $-1 #
loop $-1 $-1 $117 $221 #
vertex $-1 $220 $222 #
straight-curve $-1 5.76094420909117e-14 -16.5 50 -1 -3.49148133884313e-15 0 #
coedge $-1 $119 $223 $224 $225 1 $120 $-1 #
edge $-1 $121 $226 $119 $227 0 #
point $-1 -49.9999999999999 -16.5000000000002 50 #
coedge $-1 $129 $228 $125 $174 0 $178 $-1 #
edge $-1 $229 $132 $173 $230 0 #
coedge $-1 $127 $211 $231 $232 1 $12 $-1 #
coedge $-1 $233 $129 $127 $177 0 $178 $-1 #
edge $-1 $131 $234 $176 $235 0 #
loop $-1 $-1 $176 $236 #
straight-curve $-1 50 0 25 0 -1 0 #
point $-1 50.0000000000001 -16.4999999999998 25 #
point $-1 49.9999999999999 16.5000000000002 25 #
coedge $-1 $237 $238 $239 $240 0 $133 $-1 #
face $-1 $236 $197 $2 $-1 $241 1 #
plane-surface $-1 0 0 -50 0 0 1 1 0 0 0 #
coedge $-1 $242 $137 $189 $243 1 $120 $-1 #
vertex $-1 $243 $244 #
straight-curve $-1 -50 16.4999999999998 18.75 -0 0 1 #
coedge $-1 $245 $139 $203 $246 0 $190 $-1 #
coedge $-1 $139 $245 $185 $243 0 $190 $-1 #
loop $-1 $-1 $139 $143 #
vertex $-1 $157 $247 #
straight-curve $-1 -5.76094420909117e-14 16.5 50 1 3.49148133884313e-15 -0 #
face $-1 $201 $154 $2 $-1 $248 0 #
plane-surface $-1 0 0 50 0 0 1 1 0 0 0 #
coedge $-1 $249 $145 $148 $200 0 $197 $-1 #
coedge $-1 $145 $250 $152 $204 0 $197 $-1 #
loop $-1 $-1 $195 $183 #
straight-curve $-1 0 50 25 1 0 -0 #
coedge $-1 $148 $147 $251 $252 1 $149 $-1 #
edge $-1 $150 $253 $195 $254 0 #
face $-1 $255 $149 $2 $-1 $256 0 #
point $-1 16.5 50 25 #
coedge $-1 $153 $152 $188 $246 1 $154 $-1 #
edge $-1 $257 $155 $196 $258 0 #
point $-1 -16.5 50 25 #
straight-curve $-1 -16.5 16.4999999999999 37.5 0 0 -1 #
coedge $-1 $259 $251 $158 $208 0 $260 $-1 #
edge $-1 $209 $229 $207 $261 0 #
vertex $-1 $252 $262 #
straight-curve $-1 16.5 16.5000000000001 37.5 0 0 1 #
coedge $-1 $175 $162 $263 $264 1 $12 $-1 #
coedge $-1 $265 $266 $162 $213 0 $267 $-1 #
edge $-1 $268 $217 $212 $269 0 #
coedge $-1 $270 $163 $166 $220 1 $216 $-1 #
coedge $-1 $163 $270 $265 $271 0 $216 $-1 #
loop $-1 $-1 $163 $272 #
vertex $-1 $271 $273 #
straight-curve $-1 -16.5 -16.5000000000001 37.5 0 -0 1 #
coedge $-1 $166 $165 $274 $275 0 $167 $-1 #
edge $-1 $276 $168 $166 $277 0 #
face $-1 $278 $167 $2 $-1 $194 0 #
point $-1 -16.5 -16.5000000000001 50 #
coedge $-1 $170 $242 $279 $280 1 $120 $-1 #
coedge $-1 $281 $274 $170 $225 0 $282 $-1 #
edge $-1 $226 $283 $170 $284 0 #
vertex $-1 $171 $285 #
straight-curve $-1 -50 0 50 0 -1 0 #
coedge $-1 $173 $286 $259 $287 1 $178 $-1 #
vertex $-1 $174 $288 #
straight-curve $-1 50 16.5000000000002 18.75 -0 -0 -1 #
coedge $-1 $289 $290 $175 $232 0 $291 $-1 #
edge $-1 $234 $292 $231 $293 0 #
coedge $-1 $294 $176 $290 $295 1 $178 $-1 #
vertex $-1 $295 $296 #
straight-curve $-1 50 -16.4999999999998 18.75 0 0 1 #
face $-1 $-1 $178 $2 $-1 $297 1 #
coedge $-1 $279 $182 $281 $298 0 $133 $-1 #
coedge $-1 $182 $279 $299 $300 0 $133 $-1 #
coedge $-1 $286 $294 $182 $240 1 $178 $-1 #
edge $-1 $301 $302 $239 $303 0 #
plane-surface $-1 0 50 0 0 -1 0 0 0 -1 0 #
coedge $-1 $223 $185 $304 $305 0 $120 $-1 #
edge $-1 $306 $186 $185 $227 0 #
point $-1 -50.0000000000001 16.4999999999998 50 #
coedge $-1 $189 $188 $250 $307 0 $190 $-1 #
edge $-1 $191 $257 $188 $277 0 #
point $-1 -16.5 16.4999999999999 50 #
plane-surface $-1 -16.5 0 37.5 1 0 0 0 0 -1 0 #
coedge $-1 $308 $195 $309 $310 1 $197 $-1 #
coedge $-1 $196 $304 $245 $307 1 $197 $-1 #
coedge $-1 $207 $309 $199 $252 0 $260 $-1 #
edge $-1 $253 $209 $251 $311 0 #
vertex $-1 $310 $312 #
straight-curve $-1 16.5 50 18.75 0 0 1 #
face $-1 $313 $260 $2 $-1 $194 0 #
plane-surface $-1 16.5 0 37.5 -1 0 0 0 0 1 0 #
vertex $-1 $204 $314 #
straight-curve $-1 -16.5 50 18.75 0 0 -1 #
coedge $-1 $309 $207 $228 $287 0 $260 $-1 #
loop $-1 $-1 $207 $255 #
straight-curve $-1 -5.76094420909117e-14 16.5 50 1 3.49148133884313e-15 -0 #
point $-1 16.5 16.5000000000001 50 #
coedge $-1 $315 $316 $211 $264 0 $317 $-1 #
edge $-1 $292 $268 $263 $318 0 #
coedge $-1 $319 $212 $215 $271 1 $267 $-1 #
coedge $-1 $212 $319 $315 $320 1 $267 $-1 #
loop $-1 $-1 $212 $313 #
vertex $-1 $264 $321 #
straight-curve $-1 0 -16.5000000000001 25 -1 -0 0 #
coedge $-1 $215 $214 $322 $323 1 $216 $-1 #
edge $-1 $324 $217 $215 $156 0 #
face $-1 $325 $216 $2 $-1 $248 0 #
point $-1 -16.5 -16.5000000000001 25 #
coedge $-1 $224 $322 $219 $275 1 $282 $-1 #
edge $-1 $226 $276 $274 $326 0 #
vertex $-1 $275 $327 #
straight-curve $-1 -16.5 0 50 0 1 0 #
face $-1 $134 $291 $2 $-1 $194 0 #
coedge $-1 $238 $237 $223 $280 0 $133 $-1 #
edge $-1 $283 $328 $223 $329 0 #
coedge $-1 $330 $224 $237 $298 1 $282 $-1 #
loop $-1 $-1 $331 $332 #
vertex $-1 $280 $333 #
straight-curve $-1 -50 -50 0 0 0 -1 #
point $-1 -50 -50 50 #
coedge $-1 $228 $239 $308 $334 1 $178 $-1 #
edge $-1 $229 $335 $228 $336 0 #
point $-1 49.9999999999999 16.5000000000002 50 #
coedge $-1 $337 $231 $316 $338 0 $291 $-1 #
coedge $-1 $231 $337 $233 $295 0 $291 $-1 #
loop $-1 $-1 $231 $278 #
vertex $-1 $232 $339 #
straight-curve $-1 5.76094420909117e-14 -16.5 50 -1 -3.49148133884313e-15 0 #
coedge $-1 $239 $233 $330 $340 0 $178 $-1 #
edge $-1 $341 $234 $233 $336 0 #
point $-1 50.0000000000001 -16.4999999999998 50 #
plane-surface $-1 50 0 0 -1 0 0 0 -0 1 0 #
edge $-1 $302 $283 $281 $342 0 #
coedge $-1 $304 $308 $238 $300 1 $197 $-1 #
edge $-1 $328 $301 $299 $343 0 #
vertex $-1 $240 $344 #
vertex $-1 $340 $345 #
straight-curve $-1 50 0 -50 0 -1 0 #
coedge $-1 $250 $299 $242 $305 1 $197 $-1 #
edge $-1 $306 $328 $304 $346 0 #
vertex $-1 $307 $347 #
edge $-1 $257 $306 $250 $348 0 #
coedge $-1 $299 $249 $286 $334 0 $197 $-1 #
coedge $-1 $251 $259 $249 $310 0 $260 $-1 #
edge $-1 $335 $253 $249 $348 0 #
straight-curve $-1 16.5 0 50 0 -1 0 #
point $-1 16.5 50 50 #
face $-1 $272 $267 $2 $-1 $21 0 #
point $-1 -16.5 50 50 #
coedge $-1 $349 $263 $266 $320 0 $317 $-1 #
coedge $-1 $263 $349 $289 $338 1 $317 $-1 #
loop $-1 $-1 $263 $325 #
straight-curve $-1 16.5 -16.4999999999999 37.5 0 0 -1 #
coedge $-1 $266 $265 $350 $351 1 $267 $-1 #
edge $-1 $268 $352 $315 $151 0 #
point $-1 16.5 -16.4999999999999 25 #
coedge $-1 $274 $350 $270 $323 0 $282 $-1 #
edge $-1 $324 $276 $322 $353 0 #
vertex $-1 $351 $354 #
face $-1 $332 $317 $2 $-1 $256 0 #
straight-curve $-1 0 -50 50 1 0 0 #
point $-1 -16.5 -50 50 #
vertex $-1 $300 $355 #
straight-curve $-1 -50 0 -50 0 1 0 #
coedge $-1 $356 $281 $294 $340 1 $282 $-1 #
coedge $-1 $350 $356 $349 $357 0 $282 $-1 #
face $-1 $221 $282 $2 $-1 $358 1 #
point $-1 -50 -50 -50 #
edge $-1 $335 $301 $286 $359 0 #
vertex $-1 $287 $360 #
straight-curve $-1 50 0 50 0 1 0 #
coedge $-1 $290 $289 $356 $361 0 $291 $-1 #
edge $-1 $292 $362 $289 $311 0 #
point $-1 16.5 -16.4999999999999 50 #
edge $-1 $341 $302 $294 $363 0 #
vertex $-1 $295 $364 #
straight-curve $-1 0 -50 -50 -1 0 0 #
straight-curve $-1 0 50 -50 1 0 0 #
point $-1 50 50 -50 #
point $-1 50 -50 -50 #
straight-curve $-1 -50 50 0 0 0 -1 #
point $-1 -50 50 50 #
straight-curve $-1 0 50 50 -1 0 0 #
coedge $-1 $316 $315 $331 $357 1 $317 $-1 #
coedge $-1 $322 $331 $319 $351 0 $282 $-1 #
edge $-1 $352 $324 $350 $365 0 #
vertex $-1 $351 $366 #
straight-curve $-1 -16.5 -50 18.75 -0 0 1 #
point $-1 -16.5 -50 25 #
point $-1 -50 50 -50 #
coedge $-1 $331 $330 $337 $361 1 $282 $-1 #
edge $-1 $362 $352 $331 $367 0 #
plane-surface $-1 0 -50 0 0 1 -0 -0 0 1 0 #
straight-curve $-1 50 50 0 0 0 -1 #
point $-1 50 50 50 #
edge $-1 $362 $341 $356 $326 0 #
vertex $-1 $338 $368 #
straight-curve $-1 50 -50 0 0 0 -1 #
point $-1 50 -50 50 #
straight-curve $-1 0 -50 25 -1 0 0 #
point $-1 16.5 -50 25 #
straight-curve $-1 16.5 -50 18.75 -0 0 -1 #
point $-1 16.5 -50 50 #
