106 0 1 0           
body $-1 $1 $-1 $2 #
lump $-1 $-1 $3 $0 #
transform $-1 0.70710678118654746 0 0.70710678118654746 0 1 0 -0.70710678118654746 0 0.70710678118654746 -4.2893 -4.3750 4.8401 0.99999999999999989 0 0 0 #
shell $-1 $-1 $-1 $4 $1 #
face $-1 $5 $6 $3 $-1 $7 reversed single #
face $-1 $8 $9 $3 $-1 $10 reversed single #
loop $-1 $-1 $11 $4 #
plane-surface $-1 0.072170000000000012 -0.10001000000000002 -0.125 0.8660217547228608 0 -0.50000632030679104 -0.50000632030679104 0 -0.8660217547228608 0 I I I I #
face $-1 $12 $13 $3 $-1 $14 reversed single #
loop $-1 $-1 $15 $5 #
plane-surface $-1 -0.072169999999999998 -0.10001000000000002 -0.125 0 0 -1 -1 0 0 0 I I I I #
coedge $-1 $16 $17 $18 $19 1 $6 $-1 #
face $-1 $20 $21 $3 $-1 $22 reversed single #
loop $-1 $-1 $23 $8 #
plane-surface $-1 -0.14434000000000002 -0.10001000000000002 0 -0.8660217547228608 0 -0.50000632030679104 -0.50000632030679104 0 0.8660217547228608 0 I I I I #
coedge $-1 $24 $25 $26 $27 1 $9 $-1 #
coedge $-1 $28 $11 $29 $30 0 $6 $-1 #
coedge $-1 $11 $28 $24 $31 1 $6 $-1 #
coedge $-1 $26 $32 $11 $19 0 $33 $-1 #
edge $-1 $34 $35 $18 $36 0 #
face $-1 $37 $38 $3 $-1 $39 reversed single #
loop $-1 $-1 $40 $12 #
plane-surface $-1 -0.072169999999999998 -0.10001000000000002 0.125 -0.8660217547228608 0 0.50000632030679104 0.50000632030679104 0 0.8660217547228608 0 I I I I #
coedge $-1 $41 $42 $43 $44 1 $13 $-1 #
coedge $-1 $45 $15 $17 $31 0 $9 $-1 #
coedge $-1 $15 $45 $41 $46 1 $9 $-1 #
coedge $-1 $43 $18 $15 $27 0 $33 $-1 #
edge $-1 $35 $47 $26 $48 0 #
coedge $-1 $17 $16 $49 $50 1 $6 $-1 #
coedge $-1 $51 $52 $16 $30 1 $38 $-1 #
edge $-1 $34 $53 $29 $54 0 #
edge $-1 $35 $55 $17 $56 0 #
coedge $-1 $18 $57 $51 $58 0 $33 $-1 #
loop $-1 $59 $60 $61 #
vertex $-1 $19 $62 #
vertex $-1 $27 $63 #
straight-curve $-1 0.090212043860576005 0 -0.093750790043342164 -0.50000632030679104 0 -0.8660217547228608 I I #
face $-1 $64 $65 $3 $-1 $66 reversed single #
loop $-1 $-1 $51 $20 #
plane-surface $-1 0.14434000000000002 -0.10001000000000002 0 0.8660217547228608 0 0.50000632030679104 0.50000632030679104 0 -0.8660217547228608 0 I I I I #
coedge $-1 $67 $68 $60 $69 1 $21 $-1 #
coedge $-1 $70 $23 $25 $46 0 $13 $-1 #
coedge $-1 $23 $70 $67 $71 1 $13 $-1 #
coedge $-1 $60 $26 $23 $44 0 $33 $-1 #
edge $-1 $47 $72 $43 $73 0 #
coedge $-1 $25 $24 $74 $75 1 $9 $-1 #
edge $-1 $47 $76 $25 $77 0 #
vertex $-1 $44 $78 #
straight-curve $-1 -0.036084999999999999 0 -0.125 -1 0 0 I I #
coedge $-1 $79 $74 $28 $50 0 $80 $-1 #
edge $-1 $55 $53 $28 $81 0 #
coedge $-1 $82 $29 $32 $58 1 $38 $-1 #
coedge $-1 $29 $82 $79 $83 1 $38 $-1 #
vertex $-1 $30 $84 #
straight-curve $-1 0.14434000000000002 -0.10001000000000002 0 0 1 0 I I #
vertex $-1 $31 $85 #
straight-curve $-1 0.072170000000000012 -0.10001000000000002 -0.125 0 1 0 I I #
coedge $-1 $32 $60 $86 $87 0 $33 $-1 #
edge $-1 $88 $34 $32 $89 0 #
loop $-1 $-1 $90 $61 #
coedge $-1 $57 $43 $40 $69 0 $33 $-1 #
face $-1 $91 $33 $3 $-1 $92 forward single #
point $-1 0.14434000000000002 0 0 #
point $-1 0.072170000000000012 0 -0.125 #
face $-1 $93 $80 $3 $-1 $94 forward single #
loop $-1 $-1 $86 $37 #
plane-surface $-1 0.072170000000000012 -0.10001000000000002 0.125 0 0 1 1 0 0 0 I I I I #
coedge $-1 $95 $40 $42 $71 0 $21 $-1 #
coedge $-1 $40 $95 $96 $97 1 $21 $-1 #
edge $-1 $72 $98 $60 $99 0 #
coedge $-1 $42 $41 $100 $101 1 $13 $-1 #
edge $-1 $72 $102 $42 $103 0 #
vertex $-1 $69 $104 #
straight-curve $-1 -0.126297043860576 0 -0.031250790043342164 -0.50000632030679104 0 0.8660217547228608 I I #
coedge $-1 $49 $100 $45 $75 0 $80 $-1 #
edge $-1 $76 $55 $45 $105 0 #
vertex $-1 $46 $106 #
straight-curve $-1 -0.072169999999999998 -0.10001000000000002 -0.125 0 1 0 I I #
point $-1 -0.072169999999999998 0 -0.125 #
coedge $-1 $107 $49 $52 $83 0 $80 $-1 #
loop $-1 $-1 $108 $64 #
straight-curve $-1 0.14434000000000002 0.125 0 0.50000632030679093 0 0.86602175472286069 I I #
coedge $-1 $52 $51 $109 $110 0 $38 $-1 #
edge $-1 $53 $111 $52 $112 0 #
point $-1 0.14434000000000002 0.125 0 #
point $-1 0.072170000000000012 0.125 -0.125 #
coedge $-1 $96 $109 $57 $87 1 $65 $-1 #
edge $-1 $98 $88 $57 $113 0 #
vertex $-1 $58 $114 #
straight-curve $-1 0.126297043860576 0 0.031250790043342164 0.50000632030679104 0 -0.8660217547228608 I I #
coedge $-1 $90 $90 $115 $116 0 $59 $-1 #
face $-1 $-1 $117 $3 $-1 $118 forward single #
plane-surface $-1 0 0 0 0 -1 0 0 0 -1 0 I I I I #
face $-1 $119 $120 $3 $-1 $121 forward single #
plane-surface $-1 -0.072169999999999998 0.125 0.125 0 -1 0 0 0 -1 0 I I I I #
coedge $-1 $68 $67 $108 $122 1 $21 $-1 #
coedge $-1 $123 $86 $68 $97 0 $65 $-1 #
edge $-1 $98 $124 $68 $125 0 #
vertex $-1 $69 $126 #
straight-curve $-1 -0.090212043860575991 0 0.093750790043342164 0.50000632030679104 0 0.8660217547228608 I I #
coedge $-1 $74 $108 $70 $101 0 $80 $-1 #
edge $-1 $102 $76 $70 $127 0 #
vertex $-1 $71 $128 #
straight-curve $-1 -0.14434000000000002 -0.10001000000000002 0 0 1 0 I I #
point $-1 -0.14434000000000002 0 0 #
straight-curve $-1 0.072170000000000012 0.125 -0.125 1 0 0 I I #
point $-1 -0.072169999999999998 0.125 -0.125 #
coedge $-1 $108 $79 $123 $129 0 $80 $-1 #
coedge $-1 $100 $107 $95 $122 0 $80 $-1 #
coedge $-1 $86 $123 $82 $110 1 $65 $-1 #
edge $-1 $88 $111 $109 $130 0 #
vertex $-1 $110 $131 #
straight-curve $-1 0.072170000000000012 0.125 0.125 -0.50000632030679093 0 0.86602175472286069 I I #
straight-curve $-1 0.036085000000000006 0 0.125 1 0 0 I I #
point $-1 0.072170000000000012 0 0.125 #
coedge $-1 $115 $115 $90 $116 1 $132 $-1 #
edge $-1 $133 $133 $90 $134 0 #
loop $-1 $135 $136 $91 #
plane-surface $-1 0 0.25 0 0 1 0 0 0 1 0 I I I I #
face $-1 $137 $138 $3 $-1 $139 forward single #
loop $-1 $140 $141 $93 #
cone-surface $-1 0 0.625 0 0 1 0 0 0 0.125 1 I I 0 1 0 I I I I #
edge $-1 $124 $102 $95 $142 0 #
coedge $-1 $109 $96 $107 $129 1 $65 $-1 #
vertex $-1 $97 $143 #
straight-curve $-1 -0.072169999999999998 -0.10001000000000002 0.125 0 1 0 I I #
point $-1 -0.072169999999999998 0 0.125 #
straight-curve $-1 -0.072169999999999998 0.125 -0.125 0.50000632030679093 0 -0.86602175472286069 I I #
point $-1 -0.14434000000000002 0.125 0 #
edge $-1 $111 $124 $123 $144 0 #
straight-curve $-1 0.072170000000000012 -0.10001000000000002 0.125 0 1 0 I I #
point $-1 0.072170000000000012 0.125 0.125 #
loop $-1 $145 $115 $137 #
vertex $-1 $116 $146 #
ellipse-curve $-1 0 0 0 0 -1 0 0 0 0.18750000000000003 1 I I #
loop $-1 $-1 $147 $91 #
coedge $-1 $136 $136 $141 $148 0 $117 $-1 #
face $-1 $61 $132 $3 $-1 $149 forward single #
loop $-1 $-1 $150 $119 #
plane-surface $-1 0 1 0 0 1 0 0 0 1 0 I I I I #
loop $-1 $-1 $151 $93 #
coedge $-1 $141 $141 $136 $148 1 $120 $-1 #
straight-curve $-1 -0.14434000000000002 0.125 0 -0.50000632030679093 0 -0.86602175472286069 I I #
point $-1 -0.072169999999999998 0.125 0.125 #
straight-curve $-1 -0.072169999999999998 0.125 0.125 -1 0 0 I I #
loop $-1 $-1 $152 $137 #
point $-1 0 0 0.18750000000000003 #
coedge $-1 $147 $147 $152 $153 0 $135 $-1 #
edge $-1 $154 $154 $136 $155 0 #
cone-surface $-1 0 0.125 0 0 1 0 0 0 0.18750000000000003 1 I I 0 1 0 I I I I #
coedge $-1 $150 $150 $151 $156 0 $138 $-1 #
coedge $-1 $151 $151 $150 $156 1 $140 $-1 #
coedge $-1 $152 $152 $147 $153 1 $145 $-1 #
edge $-1 $157 $157 $147 $158 0 #
vertex $-1 $148 $159 #
ellipse-curve $-1 0 0.25 0 0 -1 0 0 0 0.125 1 I I #
edge $-1 $160 $160 $150 $161 0 #
vertex $-1 $153 $162 #
ellipse-curve $-1 0 0.25 0 0 1 0 0 0 0.18750000000000003 1 I I #
point $-1 0 0.24999999999999994 0.125 #
vertex $-1 $156 $163 #
ellipse-curve $-1 0 1 0 0 1 0 0 0 0.125 1 I I #
point $-1 0 0.25 0.18750000000000003 #
point $-1 0 1 0.125 #
End-of-ACIS-data 