600 0 1 0           
88 GICL ACIS Healer - Source: /gicl/data5/repository/CMU/Tools/0.2in_allen_wrench.sat - 6 0 18 ACIS 6.0.3 Solaris 24 Sat Apr 13 00:31:50 2002 
1 9.999999999999999547e-07 1.000000000000000036e-10 
body $-1 $1 $-1 $-1 #
lump $-1 $-1 $2 $0 #
shell $-1 $-1 $-1 $3 $-1 $1 #
face $-1 $4 $5 $2 $-1 $6 reversed single #
face $-1 $7 $8 $2 $-1 $9 reversed single #
loop $-1 $-1 $10 $3 #
plane-surface $-1 0.0243683999999999984 0.9999999997632035287 -0.3999999999835558429 0 1 0 0 0 0.04000000000000000777 forward_v I I I I #
face $-1 $11 $12 $2 $-1 $13 reversed single #
loop $-1 $-1 $14 $4 #
plane-surface $-1 -0.09110200000000000242 0.9999999997632035287 -0.3999999999835558429 0.8660262547301302849 0.4999985261159313743 1.354003295480770993e-16 4.747029936395591686e-13 -8.222021030164942123e-13 -0.04000000000000000777 forward_v I I I I #
coedge $-1 $15 $16 $17 $18 reversed $5 $-1 #
face $-1 $19 $20 $2 $-1 $21 reversed single #
loop $-1 $-1 $22 $7 #
plane-surface $-1 -0.1488368000000000191 1.099999999763203729 -0.3999999999753336977 0.8660262547301302849 -0.4999985261159313743 -4.111036173456957043e-11 -1.898804407373553475e-12 0 -0.04000000000000000777 forward_v I I I I #
coedge $-1 $23 $24 $25 $26 reversed $8 $-1 #
coedge $-1 $27 $10 $28 $29 reversed $5 $-1 #
coedge $-1 $10 $27 $23 $30 forward $5 $-1 #
coedge $-1 $25 $31 $10 $18 forward $32 $-1 #
edge $-1 $33 -0.0121841998291075549 $34 0.1032861999999994534 $10 $35 forward 7 unknown #
face $-1 $36 $37 $2 $-1 $38 reversed single #
loop $-1 $-1 $39 $11 #
plane-surface $-1 -0.09110200000000000242 1.199999999763203817 -0.3999999999671116635 0 -1 -8.222096583748244544e-11 0 3.288838633499298528e-12 -0.04000000000000000777 forward_v I I I I #
coedge $-1 $40 $41 $42 $43 reversed $12 $-1 #
coedge $-1 $44 $14 $16 $30 reversed $8 $-1 #
coedge $-1 $14 $44 $40 $45 forward $8 $-1 #
coedge $-1 $42 $17 $14 $26 forward $32 $-1 #
edge $-1 $34 -0.06382719284061233456 $46 0.05164274770889246829 $14 $47 forward 7 unknown #
coedge $-1 $16 $15 $48 $49 forward $5 $-1 #
coedge $-1 $50 $51 $15 $29 forward $52 $-1 #
edge $-1 $53 2.192557246871728825e-11 $33 3.600000000038369397 $15 $54 reversed 7 unknown #
edge $-1 $55 1.644412384038673736e-11 $34 3.600000000032888892 $23 $56 reversed 7 unknown #
coedge $-1 $17 $57 $50 $58 forward $32 $-1 #
loop $-1 $-1 $17 $59 #
vertex $-1 $29 $60 #
vertex $-1 $30 $61 #
straight-curve $-1 0.01218419999999999746 0.9999999997632034177 -4.000000000016443735 -1 0 0 I I #
face $-1 $62 $52 $2 $-1 $63 reversed single #
loop $-1 $-1 $64 $19 #
plane-surface $-1 0.0243683999999999984 1.199999999763203817 -0.3999999999671116635 -0.8660262547301302849 -0.4999985261159313743 -4.111036173456957043e-11 -1.898804407373553475e-12 0 0.04000000000000000777 forward_v I I I I #
coedge $-1 $65 $66 $67 $68 reversed $20 $-1 #
coedge $-1 $69 $22 $24 $45 reversed $12 $-1 #
coedge $-1 $22 $69 $65 $70 forward $12 $-1 #
coedge $-1 $67 $25 $22 $43 forward $32 $-1 #
edge $-1 $46 -0.0805104031976706519 $71 0.03495953735183304767 $22 $72 forward 7 unknown #
coedge $-1 $24 $23 $73 $74 forward $8 $-1 #
edge $-1 $75 -1.370348279294843239e-12 $46 3.600000000031518432 $40 $76 reversed 7 unknown #
vertex $-1 $45 $77 #
straight-curve $-1 -0.1230155023464229586 1.055276024528896794 -4.000000000011899814 -0.4999985261159313743 0.8660262547301302849 7.120551510452890887e-11 I I #
coedge $-1 $78 $79 $27 $49 reversed $80 $-1 #
edge $-1 $53 -0.05773520000000000041 $55 0.05773520000000000735 $48 $81 forward 7 unknown #
coedge $-1 $82 $28 $31 $58 reversed $52 $-1 #
coedge $-1 $28 $82 $83 $84 forward $52 $-1 #
loop $-1 $-1 $50 $36 #
vertex $-1 $85 $86 #
straight-curve $-1 0.02436839999999994982 0.9999999997632036397 -0.3999999999780744497 4.747011018433882556e-11 -0 1 I I #
vertex $-1 $87 $88 #
straight-curve $-1 -0.09110199999999997467 0.9999999997632035287 -0.3999999999835558429 -1.563466798016075444e-16 0 1 I I #
coedge $-1 $31 $67 $64 $89 forward $32 $-1 #
edge $-1 $90 0.02277557321617179609 $33 0.1382455139365689756 $50 $91 forward 7 unknown #
face $-1 $92 $32 $2 $-1 $93 forward single #
point $-1 0.02436839982910755237 0.9999999997632034177 -4.000000000016443735 #
point $-1 -0.09110199999999946119 0.9999999997632035287 -4.000000000016444623 #
face $-1 $94 $95 $2 $-1 $96 reversed single #
plane-surface $-1 0.08210320000000001506 1.099999999763203729 -0.3999999999753336977 -0.8660262547301302849 0.4999985261159313743 4.111036173456957043e-11 1.898804407373553475e-12 0 0.04000000000000000777 forward_v I I I I #
coedge $-1 $97 $98 $57 $89 reversed $37 $-1 #
coedge $-1 $99 $39 $41 $70 reversed $20 $-1 #
coedge $-1 $39 $99 $97 $100 forward $20 $-1 #
coedge $-1 $57 $42 $39 $68 forward $32 $-1 #
edge $-1 $71 -0.04555099999999995958 $101 0.06991940000000008981 $39 $102 forward 7 unknown #
coedge $-1 $41 $40 $103 $104 forward $12 $-1 #
edge $-1 $105 -1.825672187593828553e-26 $71 3.600000000032888448 $65 $106 reversed 7 unknown #
vertex $-1 $70 $107 #
straight-curve $-1 -0.1085817171496112621 1.169724122859293391 -4.000000000002489564 0.4999985261159313743 0.8660262547301302849 7.120551510452890887e-11 I I #
coedge $-1 $108 $109 $44 $74 reversed $110 $-1 #
edge $-1 $55 -0.0577349701893053735 $75 0.05773497018930559554 $73 $111 forward 7 unknown #
vertex $-1 $112 $113 #
straight-curve $-1 -0.1488368000000001301 1.099999999763203729 -0.3999999999767041015 2.373497691882951187e-11 -4.111061831946991129e-11 1 I I #
point $-1 -0.148836800085445975 1.099999999911202009 -4.000000000008222756 #
coedge $-1 $114 $48 $115 $85 reversed $80 $-1 #
coedge $-1 $48 $114 $108 $87 forward $80 $-1 #
loop $-1 $-1 $48 $94 #
straight-curve $-1 -0.03336680000000000895 0.9999999997632035287 -0.4000000000000000222 -1 0 0 I I #
coedge $-1 $51 $50 $98 $116 reversed $52 $-1 #
coedge $-1 $117 $115 $51 $84 reversed $95 $-1 #
edge $-1 $118 -0.05773497018930561636 $53 0.05773497018930536656 $83 $119 forward 7 unknown #
edge $-1 $120 3.699940358476703574e-10 $53 1.570796326794896558 $78 $121 reversed 7 unknown #
point $-1 0.02436839999999999146 0.9999999997632036397 -0.4000000000000000222 #
edge $-1 $122 3.699940358476703574e-10 $55 1.570796326794896336 $108 $123 reversed 7 unknown #
point $-1 -0.0911020000000000163 0.9999999997632036397 -0.3999999999999999667 #
edge $-1 $101 0.00609208201626787807 $90 0.1215620223948790102 $64 $124 forward 7 unknown #
vertex $-1 $116 $125 #
straight-curve $-1 0.09349095303953135205 1.119724244430932325 -4.000000000006600054 -0.4999985261159313743 -0.8660262547301302849 -7.120551510452890887e-11 I I #
face $-1 $-1 $126 $2 $-1 $127 reversed single #
plane-surface $-1 -4.440892098500626254e-18 1.199999999999999956 -4 0 8.222096583748244544e-11 -1 -0.04000000000000000777 0 0 forward_v I I I I #
face $-1 $128 $80 $2 $-1 $129 reversed single #
loop $-1 $-1 $83 $62 #
cone-surface $-1 0.05323579999999999979 0.7999999999999998224 -0.4000000000000000222 -1 0 0 0 0 0.2499999997632037507 1 I I -0.8660262547301302849 0.4999985261159313743 0.2499999997632037507 forward I I I I #
coedge $-1 $130 $64 $66 $100 reversed $37 $-1 #
coedge $-1 $64 $130 $82 $116 forward $37 $-1 #
coedge $-1 $66 $65 $131 $132 forward $20 $-1 #
edge $-1 $133 -1.825672187593828553e-26 $101 3.600000000032888448 $97 $134 reversed 7 unknown #
vertex $-1 $100 $135 #
straight-curve $-1 -0.04555100000000000121 1.20000000005919949 -4 1 0 0 I I #
coedge $-1 $136 $137 $69 $104 reversed $138 $-1 #
edge $-1 $75 -0.05773497018930529717 $105 0.0577349701893058731 $103 $139 forward 7 unknown #
vertex $-1 $140 $141 #
straight-curve $-1 -0.09110199999999996079 1.199999999763203817 -0.3999999999671116635 0 -8.222096583748244544e-11 1 I I #
point $-1 -0.09110199999999996079 1.20000000005919949 -4 #
coedge $-1 $142 $73 $79 $87 reversed $110 $-1 #
coedge $-1 $73 $142 $136 $112 forward $110 $-1 #
loop $-1 $-1 $73 $128 #
straight-curve $-1 -0.1199693999999999761 1.049999999763203462 -0.3999999999999999667 -0.4999985261159313743 0.8660262547301302849 1.922964577683967201e-16 I I #
edge $-1 $143 3.69994035701648319e-10 $75 1.570796326712675661 $136 $144 reversed 7 unknown #
point $-1 -0.1488367999999999913 1.099999999763203506 -0.3999999999753337532 #
coedge $-1 $79 $78 $145 $146 forward $80 $-1 #
coedge $-1 $83 $147 $78 $85 forward $95 $-1 #
edge $-1 $118 -1.82567218759382884e-26 $90 3.600000000032888003 $82 $148 reversed 7 unknown #
coedge $-1 $147 $83 $149 $150 reversed $95 $-1 #
vertex $-1 $150 $151 #
straight-curve $-1 0.05323579999999992346 1.049999999763203462 -0.399999999979444798 -0.4999985261159315408 -0.8660262547301301739 -7.120545534705961278e-11 I I #
vertex $-1 $152 $153 #
ellipse-curve $-1 0.02436839999999999146 0.7999999999999998224 -0.4000000000000000222 1 -0 -0 0 0 0.1999999997632037618 1 I I #
vertex $-1 $154 $155 #
ellipse-curve $-1 -0.0911020000000000163 0.7999999999999998224 -0.4000000000000000222 1 -0 -0 0 0 0.1999999997632037618 1 I I #
straight-curve $-1 0.02132236797088880864 1.205275903031256535 -3.999999999999566125 0.4999985261159313743 -0.8660262547301302849 -7.120551510452890887e-11 I I #
point $-1 0.08210320000000001506 1.100000000059199179 -4.000000000008221868 #
loop $-1 $-1 $156 $92 #
plane-surface $-1 -0.03336680000000000895 0 -0.09999999994080094323 0 1 0 -0.04000000000000000083 0 0 forward_v I I I I #
face $-1 $157 $110 $2 $-1 $158 reversed single #
cone-surface $-1 -0.03336680000000000895 0.7999999999999998224 -0.4000000000000000222 -1 0 0 0 0 0.1999999997632037618 1 I I 0 1 0.1999999997632037618 forward I I I I #
coedge $-1 $98 $97 $159 $160 forward $37 $-1 #
coedge $-1 $161 $162 $99 $132 reversed $163 $-1 #
edge $-1 $105 -0.05773519999999997265 $133 0.05773519999999997959 $131 $164 forward 7 unknown #
vertex $-1 $165 $166 #
straight-curve $-1 0.02436840000000004003 1.199999999763203817 -0.3999999999671116635 0 -8.222096583748244544e-11 1 I I #
point $-1 0.0243684000000000886 1.200000000059199268 -4 #
coedge $-1 $167 $103 $109 $112 reversed $138 $-1 #
coedge $-1 $103 $167 $161 $140 forward $138 $-1 #
loop $-1 $-1 $103 $157 #
straight-curve $-1 -0.1199694000000001842 1.149999999763203329 -0.3999999999712227083 0.4999985261159314853 0.8660262547301300629 7.120545532778972955e-11 I I #
edge $-1 $168 3.699940356286372739e-10 $105 1.570796326712675661 $161 $169 reversed 7 unknown #
point $-1 -0.09110199999999998854 1.199999999763203595 -0.3999999999671116635 #
coedge $-1 $109 $108 $170 $171 forward $110 $-1 #
vertex $-1 $172 $173 #
ellipse-curve $-1 -0.1488367999999999913 0.7999999999999998224 -0.4000000000000000222 1 -0 -0 0 0 0.2999999997632037396 1 I I #
coedge $-1 $174 $175 $114 $146 reversed $176 $-1 #
edge $-1 $120 -0.05773520000000002816 $122 0.05773520000000000735 $145 $177 forward 7 unknown #
coedge $-1 $115 $117 $178 $179 forward $95 $-1 #
straight-curve $-1 0.08210320000000007057 1.099999999763203729 -0.3999999999753337532 0 -8.222096583748245836e-11 1 I I #
coedge $-1 $159 $180 $117 $150 forward $181 $-1 #
edge $-1 $182 3.699944057759902398e-10 $118 1.570796326712675661 $117 $183 reversed 7 unknown #
point $-1 0.0821031999999999873 1.099999999763203506 -0.3999999999753337532 #
edge $-1 $184 1.849970842839597025e-11 $120 0.8000000000924983867 $174 $185 reversed 7 unknown #
point $-1 0.02436840000000001921 0.8000000000739986294 -0.2000000002367962881 #
edge $-1 $186 -4.846761401677896532e-27 $122 0.8000000000739986294 $187 $188 reversed 7 unknown #
point $-1 -0.0911020000000000163 0.8000000000739986294 -0.2000000002367962881 #
coedge $-1 $189 $190 $191 $192 forward $126 $-1 #
face $-1 $193 $138 $2 $-1 $194 reversed single #
cone-surface $-1 -0.1199694000000000038 0.7999999999999998224 -0.4000000000000000222 -1 0 0 0 0 0.2499999997632037507 1 I I 0.8660262547301302849 0.4999985261159311523 0.2499999997632037507 forward I I I I #
coedge $-1 $195 $149 $130 $160 reversed $181 $-1 #
edge $-1 $133 -0.05773497018930568575 $118 0.0577349701893054984 $159 $196 forward 7 unknown #
coedge $-1 $197 $131 $137 $140 reversed $163 $-1 #
coedge $-1 $131 $197 $195 $165 forward $163 $-1 #
loop $-1 $-1 $131 $193 #
straight-curve $-1 -0.03336680000000001589 1.199999999763203817 -0.3999999999671116635 1 0 0 I I #
edge $-1 $198 3.69994313184393637e-10 $133 1.570796326712675661 $195 $199 reversed 7 unknown #
point $-1 0.0243683999999999637 1.199999999763203595 -0.3999999999671116635 #
coedge $-1 $137 $136 $200 $201 forward $138 $-1 #
vertex $-1 $202 $203 #
ellipse-curve $-1 -0.09110199999999998854 0.7999999999999998224 -0.4000000000000000222 1 -0 -0 0 0 0.3999999997632037729 1 I I #
coedge $-1 $187 $204 $142 $171 reversed $205 $-1 #
edge $-1 $122 -0.05773497018930540819 $143 0.05773497018930569963 $170 $206 forward 7 unknown #
edge $-1 $207 -1.849970842839596702e-11 $143 0.8000000000924982757 $208 $209 reversed 7 unknown #
point $-1 -0.1488368000000000191 0.800000000110998033 -0.1000000002367962826 #
coedge $-1 $210 $145 $211 $152 reversed $176 $-1 #
coedge $-1 $145 $210 $187 $154 forward $176 $-1 #
loop $-1 $-1 $145 $212 #
straight-curve $-1 -0.03336680000000000895 0.8000000000739986294 -0.2000000002367962881 -1 0 0 I I #
coedge $-1 $213 $211 $147 $179 reversed $214 $-1 #
edge $-1 $182 -0.05773497018930558167 $120 0.05773497018930550534 $178 $215 forward 7 unknown #
coedge $-1 $149 $195 $216 $217 forward $181 $-1 #
loop $-1 $-1 $159 $218 #
vertex $-1 $219 $220 #
ellipse-curve $-1 0.0821031999999999873 0.7999999999999998224 -0.4000000000000000222 1 -0 -0 0 0 0.2999999997632037396 1 I I #
vertex $-1 $221 $222 #
straight-curve $-1 0.02436840000000001574 -1.849970842839597025e-11 -0.199999999940800921 0 -1 3.699941685679193663e-10 I I #
vertex $-1 $223 $224 #
coedge $-1 $225 $170 $175 $154 reversed $205 $-1 #
straight-curve $-1 -0.09110200000000000242 4.846761401677896532e-27 -0.1999999999408009488 0 -1 3.699941685679193663e-10 I I #
coedge $-1 $226 $156 $227 $228 forward $126 $-1 #
coedge $-1 $156 $229 $230 $231 forward $126 $-1 #
coedge $-1 $232 $233 $156 $192 reversed $234 $-1 #
edge $-1 $235 -0.08660280000000000755 $236 0.02886759999999999327 $191 $237 reversed 7 unknown #
face $-1 $218 $163 $2 $-1 $238 reversed single #
cone-surface $-1 -0.1199694000000000038 0.7999999999999998224 -0.4000000000000000222 -1 0 0 0 0 0.3499999997632037285 1 I I 0.8660262547301302849 -0.4999985261159311523 0.3499999997632037285 forward I I I I #
coedge $-1 $180 $159 $162 $165 reversed $181 $-1 #
straight-curve $-1 0.05323580000000016632 1.149999999763203551 -0.3999999999712227083 0.4999985261159312633 -0.8660262547301302849 -7.120545532778969078e-11 I I #
coedge $-1 $162 $161 $239 $240 forward $163 $-1 #
vertex $-1 $241 $242 #
ellipse-curve $-1 0.0243683999999999637 0.7999999999999998224 -0.4000000000000000222 1 -0 -0 0 0 0.3999999997632037729 1 I I #
coedge $-1 $208 $243 $167 $201 reversed $244 $-1 #
edge $-1 $143 -0.05773497018930535268 $168 0.05773497018930572738 $200 $245 forward 7 unknown #
edge $-1 $236 -1.849970842839597025e-11 $168 0.8000000001294976792 $233 $246 reversed 7 unknown #
point $-1 -0.09110200000000000242 0.8000000001479974365 -2.367963047866794568e-10 #
coedge $-1 $170 $225 $208 $172 forward $205 $-1 #
loop $-1 $-1 $170 $247 #
straight-curve $-1 -0.1199693999999999483 0.8000000000924983867 -0.1500000002367964103 -0.4999985261159313743 3.204247413582260548e-10 0.8660262547301302849 I I #
vertex $-1 $228 $248 #
coedge $-1 $227 $200 $204 $172 reversed $244 $-1 #
straight-curve $-1 -0.1488368000000000191 1.849970842839596702e-11 -0.09999999994080094323 0 -1 3.699941685679193663e-10 I I #
coedge $-1 $175 $174 $249 $221 reversed $176 $-1 #
coedge $-1 $178 $250 $174 $152 forward $214 $-1 #
face $-1 $247 $176 $2 $-1 $251 reversed single #
coedge $-1 $250 $178 $252 $219 reversed $214 $-1 #
loop $-1 $-1 $178 $253 #
straight-curve $-1 0.05323579999999999979 0.8000000000924983867 -0.150000000236796327 -0.4999985261159314298 -3.204247413582259514e-10 -0.8660262547301301739 I I #
coedge $-1 $254 $252 $180 $217 reversed $255 $-1 #
edge $-1 $198 -0.05773497018930581759 $182 0.05773497018930533187 $216 $256 forward 7 unknown #
face $-1 $257 $181 $2 $-1 $258 reversed single #
edge $-1 $259 1.849970842839597672e-11 $182 0.8000000001294979013 $213 $260 reversed 7 unknown #
point $-1 0.08210320000000002894 0.800000000110998144 -0.1000000002367963103 #
edge $-1 $186 -0.08660279999999999367 $184 0.02886760000000002102 $210 $261 reversed 7 unknown #
point $-1 0.02436840000000001574 0 -0.199999999940800921 #
edge $-1 $207 -0.08660238509460885248 $186 0.02886755528400226922 $225 $262 reversed 7 unknown #
point $-1 -0.09110200000000000242 0 -0.1999999999408009488 #
coedge $-1 $204 $187 $226 $223 reversed $205 $-1 #
coedge $-1 $249 $189 $225 $223 forward $126 $-1 #
coedge $-1 $243 $208 $189 $228 reversed $244 $-1 #
edge $-1 $236 -0.08660252547330780926 $207 0.02886741490530330898 $227 $263 reversed 7 unknown #
coedge $-1 $190 $249 $250 $264 forward $126 $-1 #
coedge $-1 $252 $254 $190 $231 reversed $255 $-1 #
edge $-1 $259 -0.08660238509460888023 $235 0.02886755528400225188 $230 $265 reversed 7 unknown #
coedge $-1 $239 $191 $254 $241 forward $234 $-1 #
coedge $-1 $191 $239 $243 $202 reversed $234 $-1 #
loop $-1 $-1 $239 $266 #
vertex $-1 $192 $267 #
vertex $-1 $192 $268 #
straight-curve $-1 -0.06223440000000000916 0 5.919906232572684671e-11 1 -0 0 I I #
cone-surface $-1 -0.03336680000000000895 0.7999999999999998224 -0.4000000000000000222 -1 0 0 0 0 0.3999999997632037729 1 I I 0 -1 0.3999999997632037729 forward I I I I #
coedge $-1 $233 $232 $197 $240 reversed $234 $-1 #
edge $-1 $168 -0.05773519999999998653 $198 0.05773519999999998653 $239 $269 forward 7 unknown #
edge $-1 $235 1.281142607874404363e-27 $198 0.8000000001479975476 $254 $270 reversed 7 unknown #
point $-1 0.02436839999999996717 0.8000000001479975476 -2.36796290908891649e-10 #
coedge $-1 $200 $227 $233 $202 forward $244 $-1 #
loop $-1 $-1 $200 $271 #
straight-curve $-1 -0.119969400000000101 0.8000000001294977903 -0.05000000023679646022 0.4999985261159313743 3.204246863296663135e-10 0.8660262547301301739 I I #
straight-curve $-1 -0.09110200000000000242 1.849970842839597025e-11 5.919906231888205639e-11 0 -1 3.699941685679193663e-10 I I #
face $-1 $271 $205 $2 $-1 $272 reversed single #
point $-1 -0.1488368000000000191 0 -0.09999999994080094323 #
coedge $-1 $229 $226 $210 $221 forward $126 $-1 #
coedge $-1 $211 $213 $229 $264 reversed $214 $-1 #
plane-surface $-1 0.0243683999999999984 0 -0.1999999999408009488 0 3.699941685679193663e-10 1 0.04000000000000000777 0 0 forward_v I I I I #
coedge $-1 $216 $230 $213 $219 forward $255 $-1 #
face $-1 $212 $214 $2 $-1 $273 reversed single #
coedge $-1 $230 $216 $232 $241 reversed $255 $-1 #
loop $-1 $-1 $216 $257 #
straight-curve $-1 0.05323580000000011081 0.8000000001294977903 -0.05000000023679651573 0.4999985261159314298 -3.204246863296663651e-10 -0.8660262547301301739 I I #
face $-1 $253 $255 $2 $-1 $274 reversed single #
cone-surface $-1 0.05323579999999999979 0.7999999999999998224 -0.4000000000000000222 -1 0 0 0 0 0.3499999997632037285 1 I I -0.8660262547301302849 -0.4999985261159311523 0.3499999997632037285 forward I I I I #
vertex $-1 $264 $275 #
straight-curve $-1 0.08210320000000001506 -1.849970842839597672e-11 -0.09999999994080095711 0 -1 3.699941685679193663e-10 I I #
straight-curve $-1 -0.004499200000000005278 0 -0.199999999940800921 -1 0 0 I I #
straight-curve $-1 -0.1055357350945713146 0 -0.1749999391549814931 -0.4999985261159313743 0 0.8660262547301302849 I I #
straight-curve $-1 -0.1344031350945713021 0 -0.07500006072662038226 0.4999985261159313743 -0 0.8660262547301302849 I I #
edge $-1 $184 -0.0866025254733077815 $259 0.02886741490530329163 $250 $276 reversed 7 unknown #
straight-curve $-1 0.03880213509457129673 0 -0.02500006072662038295 0.4999985261159313743 0 -0.8660262547301302849 I I #
face $-1 $59 $234 $2 $-1 $277 reversed single #
point $-1 0.02436840000000000533 1.281142607874404363e-27 5.919906578832900834e-11 #
point $-1 -0.09110200000000000242 0 5.919906232572684671e-11 #
straight-curve $-1 -0.03336680000000001589 0.8000000001479974365 -2.367963047866794568e-10 1 0 0 I I #
straight-curve $-1 0.02436840000000000533 0 5.919906578832900834e-11 0 -1 3.699941685679193663e-10 I I #
face $-1 $266 $244 $2 $-1 $278 reversed single #
plane-surface $-1 -0.09110200000000000242 0 -0.1999999999408009488 0.8660262547301302849 1.849965389554491442e-10 0.4999985261159313743 0.01999994104463725941 0 -0.03464105018920522056 forward_v I I I I #
plane-surface $-1 0.08210320000000001506 0 -0.09999999994080094323 -0.8660262547301302849 1.849965389554491442e-10 0.4999985261159313743 0.01999994104463725941 0 0.03464105018920522056 forward_v I I I I #
plane-surface $-1 0.0243683999999999984 0 5.919906697086710998e-11 -0.8660262547301302849 -1.849965389554491442e-10 -0.4999985261159313743 -0.01999994104463725941 0 0.03464105018920522056 forward_v I I I I #
point $-1 0.08210320000000001506 0 -0.09999999994080095711 #
straight-curve $-1 0.067669535094571312 0 -0.1249999391549815042 -0.4999985261159313743 0 -0.8660262547301302849 I I #
plane-surface $-1 -0.09110200000000000242 0 5.919906697086710998e-11 0 -3.699941685679193663e-10 -1 -0.04000000000000000777 0 0 forward_v I I I I #
plane-surface $-1 -0.1488368000000000191 0 -0.09999999994080094323 0.8660262547301302849 -1.849965389554491442e-10 -0.4999985261159313743 -0.01999994104463725941 0 -0.03464105018920522056 forward_v I I I I #
End-of-ACIS-data 