700 0 2 0           
24 FBMach with ACIS - 7.0.3 13 ACIS 7.0.3 NT 24 Mon May 13 17:09:47 2002 
1 9.9999999999999995e-007 1e-010 
body $2 -1 $-1 $3 $-1 $4 #
bdycol-kcp $-1 -1 1 3 $5 $6 $7 #
model_id-kcp-attrib $-1 -1 $-1 $-1 $0 1 1021324186 1021324186 -1678442495 1 #
lump $-1 -1 $-1 $-1 $8 $0 #
transform $-1 -1 1 0 0 0 1 0 0 0 1 0 0 0 1 rotate no_reflect no_shear #
body $9 -1 $-1 $10 $-1 $11 #
body $12 -1 $-1 $13 $-1 $14 #
body $15 -1 $-1 $16 $-1 $17 #
shell $-1 -1 $-1 $-1 $-1 $18 $-1 $3 #
rgb_color-st-attrib $-1 -1 $19 $-1 $5 0.5 1 1 #
lump $-1 -1 $-1 $-1 $20 $5 #
transform $-1 -1 1 0 0 0 1 0 0 0 1 0 0 0 1 no_rotate no_reflect no_shear #
rgb_color-st-attrib $-1 -1 $21 $-1 $6 1 0 0 #
lump $-1 -1 $-1 $-1 $22 $6 #
transform $-1 -1 1 0 0 0 -3.8285889215894375e-016 1 0 -1 -3.8285889215894375e-016 0 -240.24001293413113 -1.5000000000000635 1 rotate no_reflect no_shear #
model_id-kcp-attrib $-1 -1 $-1 $-1 $7 1 1021324186 1021324186 -1678442494 1 #
lump $-1 -1 $-1 $-1 $23 $7 #
transform $-1 -1 1 0 0 0 1 0 0 0 1 0 -54.330127018922191 -1.5 1 no_rotate no_reflect no_shear #
face $24 -1 $-1 $25 $26 $8 $-1 $27 reversed single #
model_id-kcp-attrib $-1 -1 $-1 $9 $5 1 1021324186 1021324186 -1689976829 1 #
shell $-1 -1 $-1 $-1 $-1 $28 $-1 $10 #
model_id-kcp-attrib $-1 -1 $-1 $12 $6 1 1021324186 1021324186 -1681391612 1 #
shell $-1 -1 $-1 $-1 $-1 $29 $-1 $13 #
shell $-1 -1 $-1 $-1 $-1 $30 $-1 $16 #
model_id-kcp-attrib $-1 -1 $-1 $-1 $18 1 1021324186 1021324186 -1678442495 2 #
face $31 -1 $-1 $32 $33 $8 $-1 $34 reversed single #
loop $-1 -1 $-1 $-1 $35 $18 #
plane-surface $-1 -1 $-1 -5 -2.8868000000000014 0 -0.49999332992119139 -0.86602925472198611 0 0 0 -1 forward_v I I I I #
face $-1 -1 $-1 $36 $37 $20 $-1 $38 forward single #
face $-1 -1 $-1 $39 $40 $22 $-1 $41 reversed single #
face $42 -1 $-1 $43 $44 $23 $-1 $45 forward single #
model_id-kcp-attrib $-1 -1 $-1 $-1 $25 1 1021324186 1021324186 -1678442495 3 #
face $46 -1 $-1 $47 $48 $8 $-1 $49 reversed single #
loop $-1 -1 $-1 $-1 $50 $25 #
plane-surface $-1 -1 $-1 0 -5.7735000000000012 0 0.49999332992119139 -0.86602925472198611 0 0 0 -1 forward_v I I I I #
coedge $-1 -1 $-1 $51 $52 $53 $54 reversed $26 $-1 #
face $-1 -1 $-1 $55 $56 $20 $-1 $57 forward single #
loop $-1 -1 $-1 $-1 $58 $28 #
plane-surface $-1 -1 $-1 0 5.7734999999999994 0 -0.49999332992119161 0.866029254721986 0 0 0 1 forward_v I I I I #
face $-1 -1 $-1 $59 $60 $22 $-1 $61 reversed single #
loop $-1 -1 $-1 $-1 $62 $29 #
plane-surface $-1 -1 $-1 0 1.7079844595457617e-014 -121.57975889628676 0 -3.8285889215894375e-016 -1 0 1 -3.8285889215894375e-016 forward_v I I I I #
model_id-kcp-attrib $-1 -1 $-1 $-1 $30 1 1021324186 1021324186 -1678442494 2 #
face $63 -1 $-1 $64 $65 $23 $-1 $66 reversed single #
loop $-1 -1 $-1 $-1 $67 $30 #
plane-surface $-1 -1 $-1 0 0 1.5 0 0 1 1 0 0 forward_v I I I I #
model_id-kcp-attrib $-1 -1 $-1 $-1 $32 1 1021324186 1021324186 -1678442495 4 #
face $68 -1 $-1 $69 $70 $8 $-1 $71 reversed single #
loop $-1 -1 $-1 $-1 $72 $32 #
plane-surface $-1 -1 $-1 5 -2.8868000000000014 0 1 0 0 0 0 -1 forward_v I I I I #
coedge $-1 -1 $-1 $73 $74 $75 $76 reversed $33 $-1 #
coedge $-1 -1 $-1 $77 $35 $78 $79 reversed $26 $-1 #
coedge $-1 -1 $-1 $35 $77 $73 $80 forward $26 $-1 #
coedge $-1 -1 $-1 $75 $81 $35 $54 forward $82 $-1 #
edge $-1 -1 $-1 $83 -15.193199337229482 $84 -9.4197223181360474 $53 $85 forward @7 unknown #
face $-1 -1 $-1 $86 $87 $20 $-1 $88 forward single #
loop $-1 -1 $-1 $-1 $89 $36 #
plane-surface $-1 -1 $-1 -5 2.8867999999999983 0 -1 0 0 0 0 1 forward_v I I I I #
coedge $-1 -1 $-1 $90 $91 $92 $93 forward $37 $-1 #
face $-1 -1 $-1 $94 $95 $22 $-1 $96 forward single #
loop $-1 -1 $-1 $-1 $97 $39 #
plane-surface $-1 -1 $-1 0 -1.5000000000000075 -185.90988591520895 0 1 -3.8285889215894375e-016 1 0 0 forward_v I I I I #
coedge $-1 -1 $-1 $98 $99 $100 $101 forward $40 $-1 #
model_id-kcp-attrib $-1 -1 $-1 $-1 $43 1 1021324186 1021324186 -1678442494 3 #
face $-1 -1 $-1 $102 $103 $23 $-1 $104 reversed single #
loop $-1 -1 $-1 $-1 $105 $43 #
plane-surface $-1 -1 $-1 0 0 -1.5 0 0 1 1 0 0 forward_v I I I I #
coedge $-1 -1 $-1 $106 $107 $108 $109 forward $44 $-1 #
model_id-kcp-attrib $-1 -1 $-1 $-1 $47 1 1021324186 1021324186 -1678442495 5 #
face $110 -1 $-1 $111 $112 $8 $-1 $113 reversed single #
loop $-1 -1 $-1 $-1 $114 $47 #
plane-surface $-1 -1 $-1 5 2.8867999999999983 0 0.49999332992119161 0.866029254721986 0 0 0 1 forward_v I I I I #
coedge $-1 -1 $-1 $115 $116 $117 $118 reversed $48 $-1 #
coedge $-1 -1 $-1 $119 $50 $52 $80 reversed $33 $-1 #
coedge $-1 -1 $-1 $50 $119 $115 $120 forward $33 $-1 #
coedge $-1 -1 $-1 $117 $53 $50 $76 forward $82 $-1 #
edge $-1 -1 $-1 $84 12.306460827682763 $121 18.079937846776197 $75 $122 forward @7 unknown #
coedge $-1 -1 $-1 $52 $51 $123 $124 reversed $26 $-1 #
coedge $-1 -1 $-1 $125 $126 $51 $79 forward $127 $-1 #
edge $-1 -1 $-1 $128 0 $83 3 $51 $129 forward @7 unknown #
edge $-1 -1 $-1 $130 0 $84 3 $73 $131 forward @7 unknown #
coedge $-1 -1 $-1 $53 $132 $125 $133 forward $82 $-1 #
loop $-1 -1 $-1 $134 $135 $136 #
vertex $-1 -1 $-1 $133 $137 #
vertex $-1 -1 $-1 $54 $138 #
straight-curve $-1 -1 $-1 8.1577550988634204 -10.483298328777806 -3 0.86602925472198611 -0.49999332992119139 0 I I #
face $-1 -1 $-1 $139 $140 $20 $-1 $141 forward single #
loop $-1 -1 $-1 $-1 $142 $55 #
plane-surface $-1 -1 $-1 -5 -2.8868000000000018 0 -0.49999332992119139 -0.86602925472198611 0 0 0 -1 forward_v I I I I #
coedge $-1 -1 $-1 $143 $144 $145 $146 forward $56 $-1 #
coedge $-1 -1 $-1 $147 $58 $144 $148 reversed $37 $-1 #
coedge $-1 -1 $-1 $58 $147 $149 $150 forward $37 $-1 #
coedge $-1 -1 $-1 $151 $145 $58 $93 reversed $152 $-1 #
edge $-1 -1 $-1 $153 -15.19317231798277 $154 -9.4196952988893337 $58 $155 forward @7 unknown #
face $-1 -1 $-1 $156 $157 $22 $-1 $158 reversed single #
loop $-1 -1 $-1 $-1 $159 $59 #
plane-surface $-1 -1 $-1 0 1.4999999999999925 -185.90988591520895 0 1 -3.8285889215894375e-016 1 0 0 forward_v I I I I #
coedge $-1 -1 $-1 $160 $161 $162 $163 forward $60 $-1 #
coedge $-1 -1 $-1 $164 $62 $161 $165 reversed $40 $-1 #
coedge $-1 -1 $-1 $62 $164 $166 $167 reversed $40 $-1 #
coedge $-1 -1 $-1 $168 $162 $62 $101 reversed $169 $-1 #
edge $-1 -1 $-1 $170 -1.5000000000000318 $171 1.4999999999999682 $100 $172 forward @7 unknown #
face $-1 -1 $-1 $173 $174 $23 $-1 $175 reversed single #
loop $-1 -1 $-1 $-1 $176 $64 #
plane-surface $-1 -1 $-1 0 -64.330127018922184 0 0 1 0 0 0 1 forward_v I I I I #
coedge $-1 -1 $-1 $177 $178 $179 $180 forward $65 $-1 #
coedge $-1 -1 $-1 $181 $67 $182 $183 forward $44 $-1 #
coedge $-1 -1 $-1 $67 $181 $184 $185 forward $44 $-1 #
coedge $-1 -1 $-1 $186 $187 $67 $109 reversed $188 $-1 #
edge $-1 -1 $-1 $189 -64.330127018922184 $190 64.330127018922184 $108 $191 forward @7 unknown #
model_id-kcp-attrib $-1 -1 $-1 $-1 $69 1 1021324186 1021324186 -1678442495 6 #
face $192 -1 $-1 $193 $127 $8 $-1 $194 reversed single #
loop $-1 -1 $-1 $-1 $195 $69 #
plane-surface $-1 -1 $-1 0 5.7734999999999994 0 -0.49999332992119161 0.866029254721986 0 0 0 1 forward_v I I I I #
coedge $-1 -1 $-1 $196 $197 $135 $198 reversed $70 $-1 #
coedge $-1 -1 $-1 $199 $72 $74 $120 reversed $48 $-1 #
coedge $-1 -1 $-1 $72 $199 $196 $200 forward $48 $-1 #
coedge $-1 -1 $-1 $135 $75 $72 $118 forward $82 $-1 #
edge $-1 -1 $-1 $121 26.0566 $201 31.830199999999998 $117 $202 forward @7 unknown #
coedge $-1 -1 $-1 $74 $73 $203 $204 reversed $33 $-1 #
edge $-1 -1 $-1 $205 0 $121 3 $115 $206 forward @7 unknown #
vertex $-1 -1 $-1 $76 $207 #
straight-curve $-1 -1 $-1 -10.65775509886342 -11.926648328777805 -3 0.86602925472198611 0.49999332992119139 0 I I #
coedge $-1 -1 $-1 $208 $203 $77 $124 forward $209 $-1 #
edge $210 -1 $-1 $130 9.4197223181360474 $128 15.193199337229482 $123 $211 forward @7 unknown #
coedge $-1 -1 $-1 $212 $78 $81 $133 reversed $127 $-1 #
coedge $-1 -1 $-1 $78 $212 $208 $213 reversed $127 $-1 #
loop $-1 -1 $-1 $-1 $125 $111 #
vertex $-1 -1 $-1 $213 $214 #
straight-curve $-1 -1 $-1 -5 -2.8868000000000014 0 0 0 -1 I I #
vertex $-1 -1 $-1 $124 $215 #
straight-curve $-1 -1 $-1 0 -5.7735000000000012 0 0 0 -1 I I #
coedge $-1 -1 $-1 $81 $135 $195 $216 forward $82 $-1 #
edge $-1 -1 $-1 $217 -28.943399999999997 $83 -23.169799999999999 $81 $218 forward @7 unknown #
loop $-1 -1 $-1 $-1 $219 $136 #
coedge $-1 -1 $-1 $132 $117 $114 $198 forward $82 $-1 #
face $220 -1 $-1 $221 $82 $8 $-1 $222 reversed single #
point $-1 -1 $-1 -5 -2.8868000000000014 -3 #
point $-1 -1 $-1 0 -5.7735000000000012 -3 #
face $-1 -1 $-1 $223 $224 $20 $-1 $225 forward single #
loop $-1 -1 $-1 $-1 $226 $86 #
plane-surface $-1 -1 $-1 0 -5.7735000000000012 0 0.49999332992119139 -0.86602925472198611 0 0 0 -1 forward_v I I I I #
coedge $-1 -1 $-1 $227 $228 $229 $230 forward $87 $-1 #
coedge $-1 -1 $-1 $231 $89 $228 $232 reversed $56 $-1 #
coedge $-1 -1 $-1 $89 $231 $90 $148 forward $56 $-1 #
coedge $-1 -1 $-1 $92 $229 $89 $146 reversed $152 $-1 #
edge $-1 -1 $-1 $154 -28.943399999999997 $233 -23.169799999999999 $89 $234 forward @7 unknown #
coedge $-1 -1 $-1 $91 $90 $235 $236 forward $37 $-1 #
edge $-1 -1 $-1 $237 0 $154 3 $144 $238 forward @7 unknown #
coedge $-1 -1 $-1 $239 $240 $91 $150 reversed $241 $-1 #
edge $-1 -1 $-1 $242 0 $153 3 $91 $243 forward @7 unknown #
coedge $-1 -1 $-1 $244 $92 $240 $245 reversed $152 $-1 #
loop $-1 -1 $-1 $-1 $92 $246 #
vertex $-1 -1 $-1 $150 $247 #
vertex $-1 -1 $-1 $148 $248 #
straight-curve $-1 -1 $-1 -13.157731699405325 -1.8229848193346747 -3 -0.866029254721986 -0.49999332992119161 0 I I #
face $-1 -1 $-1 $249 $250 $22 $-1 $251 reversed single #
loop $-1 -1 $-1 $-1 $252 $94 #
plane-surface $-1 -1 $-1 0 0 -130.24001293413113 0 0 1 1 0 0 forward_v I I I I #
coedge $-1 -1 $-1 $166 $253 $168 $254 forward $95 $-1 #
coedge $-1 -1 $-1 $255 $97 $256 $257 forward $60 $-1 #
coedge $-1 -1 $-1 $97 $255 $98 $165 forward $60 $-1 #
coedge $-1 -1 $-1 $100 $258 $97 $163 reversed $169 $-1 #
edge $-1 -1 $-1 $171 28.624815938682289 $259 37.285069976526657 $162 $260 forward @7 unknown #
coedge $-1 -1 $-1 $99 $98 $261 $262 forward $40 $-1 #
edge $-1 -1 $-1 $263 -5 $171 5 $98 $264 forward @7 unknown #
coedge $-1 -1 $-1 $265 $159 $99 $167 forward $95 $-1 #
edge $-1 -1 $-1 $170 -5 $266 5 $99 $267 forward @7 unknown #
coedge $-1 -1 $-1 $258 $100 $159 $254 reversed $169 $-1 #
loop $-1 -1 $-1 $-1 $168 $249 #
vertex $-1 -1 $-1 $101 $268 #
vertex $-1 -1 $-1 $101 $269 #
straight-curve $-1 -1 $-1 -5 -1.4734023602263108e-014 -121.57975889628676 0 -1 3.8285889215894375e-016 I I #
face $-1 -1 $-1 $270 $271 $23 $-1 $272 reversed single #
loop $-1 -1 $-1 $-1 $273 $102 #
plane-surface $-1 -1 $-1 -10 0 0 1 0 0 0 0 -1 forward_v I I I I #
coedge $-1 -1 $-1 $274 $184 $275 $276 forward $103 $-1 #
coedge $-1 -1 $-1 $277 $105 $274 $278 forward $65 $-1 #
coedge $-1 -1 $-1 $105 $277 $279 $280 forward $65 $-1 #
coedge $-1 -1 $-1 $187 $186 $105 $180 reversed $188 $-1 #
edge $-1 -1 $-1 $281 -64.330127018922184 $282 64.330127018922184 $179 $283 forward @7 unknown #
coedge $-1 -1 $-1 $107 $106 $284 $285 forward $44 $-1 #
coedge $-1 -1 $-1 $286 $287 $106 $183 reversed $271 $-1 #
edge $-1 -1 $-1 $190 -10 $288 10 $182 $289 forward @7 unknown #
coedge $-1 -1 $-1 $176 $290 $107 $185 reversed $103 $-1 #
edge $-1 -1 $-1 $291 -10 $189 10 $184 $292 forward @7 unknown #
coedge $-1 -1 $-1 $179 $108 $290 $293 forward $188 $-1 #
coedge $-1 -1 $-1 $108 $179 $286 $294 reversed $188 $-1 #
loop $-1 -1 $-1 $-1 $186 $270 #
vertex $-1 -1 $-1 $109 $295 #
vertex $-1 -1 $-1 $109 $296 #
straight-curve $-1 -1 $-1 10 0 1.5 0 1 0 I I #
model_id-kcp-attrib $-1 -1 $-1 $-1 $111 1 1021324186 1021324186 -1678442495 7 #
face $297 -1 $-1 $298 $299 $8 $-1 $300 reversed single #
plane-surface $-1 -1 $-1 -5 2.8867999999999983 0 -1 0 0 0 0 1 forward_v I I I I #
coedge $-1 -1 $-1 $301 $302 $132 $216 reversed $112 $-1 #
coedge $-1 -1 $-1 $303 $114 $116 $200 reversed $70 $-1 #
coedge $-1 -1 $-1 $114 $303 $301 $304 forward $70 $-1 #
edge $-1 -1 $-1 $201 12.306433808436051 $305 18.079910827529485 $135 $306 forward @7 unknown #
coedge $-1 -1 $-1 $116 $115 $307 $308 reversed $48 $-1 #
edge $-1 -1 $-1 $309 0 $201 3 $196 $310 forward @7 unknown #
vertex $-1 -1 $-1 $198 $311 #
straight-curve $-1 -1 $-1 5 -28.9434 -3 0 1 0 I I #
coedge $-1 -1 $-1 $123 $307 $119 $204 forward $209 $-1 #
edge $312 -1 $-1 $205 -18.079937846776197 $130 -12.306460827682763 $203 $313 forward @7 unknown #
vertex $-1 -1 $-1 $204 $314 #
straight-curve $-1 -1 $-1 5 -2.8868000000000014 0 0 0 -1 I I #
point $-1 -1 $-1 5 -2.8868000000000014 -3 #
coedge $-1 -1 $-1 $315 $123 $126 $213 forward $209 $-1 #
loop $-1 -1 $-1 $316 $317 $318 #
attrib_edge_convexity-kcp-attrib $-1 -1 $319 $-1 $124 1 #
straight-curve $-1 -1 $-1 8.1577550988634204 -10.483298328777806 0 -0.86602925472198611 0.49999332992119139 0 I I #
coedge $-1 -1 $-1 $126 $125 $302 $320 reversed $127 $-1 #
edge $321 -1 $-1 $128 23.169799999999999 $322 28.943399999999997 $208 $323 forward @7 unknown #
point $-1 -1 $-1 -5 -2.8868000000000014 0 #
point $-1 -1 $-1 0 -5.7735000000000012 0 #
edge $-1 -1 $-1 $305 -15.19317231798277 $217 -9.4196952988893337 $132 $324 forward @7 unknown #
vertex $-1 -1 $-1 $216 $325 #
straight-curve $-1 -1 $-1 -5 -26.0566 -3 0 -1 0 I I #
coedge $-1 -1 $-1 $326 $327 $328 $329 forward $134 $-1 #
model_id-kcp-attrib $-1 -1 $-1 $-1 $136 1 1021324186 1021324186 -1678442495 14 #
face $330 -1 $-1 $331 $332 $8 $-1 $333 forward single #
plane-surface $-1 -1 $-1 8.8817841970012523e-016 -55 -3 0 0 1 0 -1 0 forward_v I I I I #
face $-1 -1 $-1 $246 $241 $20 $-1 $334 forward single #
loop $-1 -1 $-1 $-1 $335 $139 #
plane-surface $-1 -1 $-1 5 -2.8868000000000018 0 1 0 0 0 0 -1 forward_v I I I I #
coedge $-1 -1 $-1 $336 $337 $338 $339 forward $140 $-1 #
coedge $-1 -1 $-1 $340 $142 $337 $341 reversed $87 $-1 #
coedge $-1 -1 $-1 $142 $340 $143 $232 forward $87 $-1 #
coedge $-1 -1 $-1 $145 $338 $142 $230 reversed $152 $-1 #
edge $-1 -1 $-1 $233 -15.193199337229482 $342 -9.4197223181360474 $142 $343 forward @7 unknown #
coedge $-1 -1 $-1 $144 $143 $344 $345 forward $56 $-1 #
edge $-1 -1 $-1 $346 0 $233 3 $228 $347 forward @7 unknown #
vertex $-1 -1 $-1 $232 $348 #
straight-curve $-1 -1 $-1 -5 -26.0566 -3 0 -1 0 I I #
coedge $-1 -1 $-1 $344 $349 $147 $236 reversed $350 $-1 #
edge $-1 -1 $-1 $237 9.4196952988893337 $242 15.19317231798277 $147 $351 forward @7 unknown #
vertex $-1 -1 $-1 $345 $352 #
straight-curve $-1 -1 $-1 -5 2.8867999999999983 0 0 0 -1 I I #
coedge $-1 -1 $-1 $353 $149 $349 $354 forward $241 $-1 #
coedge $-1 -1 $-1 $149 $353 $151 $245 forward $241 $-1 #
loop $-1 -1 $-1 $-1 $240 $223 #
vertex $-1 -1 $-1 $354 $355 #
straight-curve $-1 -1 $-1 0 5.7734999999999994 0 0 0 -1 I I #
coedge $-1 -1 $-1 $338 $151 $335 $356 reversed $152 $-1 #
edge $-1 -1 $-1 $357 12.306433808436051 $153 18.079910827529485 $240 $358 forward @7 unknown #
face $-1 -1 $-1 $359 $152 $20 $-1 $360 reversed single #
point $-1 -1 $-1 0 5.7734999999999994 -3 #
point $-1 -1 $-1 -5 2.8867999999999983 -3 #
face $-1 -1 $-1 $-1 $169 $22 $-1 $361 reversed single #
loop $-1 -1 $-1 $-1 $362 $156 #
plane-surface $-1 -1 $-1 5 0 0 -1 0 0 0 0 1 forward_v I I I I #
coedge $-1 -1 $-1 $363 $364 $253 $365 reversed $157 $-1 #
coedge $-1 -1 $-1 $159 $265 $252 $365 forward $95 $-1 #
edge $-1 -1 $-1 $366 -37.285069976526657 $170 -28.624815938682289 $168 $367 forward @7 unknown #
coedge $-1 -1 $-1 $161 $160 $368 $369 forward $60 $-1 #
coedge $-1 -1 $-1 $364 $363 $160 $257 reversed $157 $-1 #
edge $370 -1 $-1 $259 -5 $371 5 $256 $372 forward @7 unknown #
coedge $-1 -1 $-1 $162 $168 $364 $373 reversed $169 $-1 #
vertex $-1 -1 $-1 $373 $374 #
straight-curve $-1 -1 $-1 -5 -1.499999999999972 -92.954942957604473 0 -3.8285889215894375e-016 -1 I I #
coedge $-1 -1 $-1 $368 $362 $164 $262 reversed $250 $-1 #
edge $-1 -1 $-1 $263 -1.4999999999999682 $266 1.5000000000000318 $261 $375 forward @7 unknown #
vertex $-1 -1 $-1 $262 $376 #
straight-curve $-1 -1 $-1 0 -1.4999999999999829 -121.57975889628676 -1 0 0 I I #
coedge $-1 -1 $-1 $253 $166 $362 $377 forward $95 $-1 #
vertex $-1 -1 $-1 $262 $378 #
straight-curve $-1 -1 $-1 0 1.5000000000000171 -121.57975889628676 1 0 0 I I #
point $-1 -1 $-1 -5 1.5000000000000171 -121.57975889628676 #
point $-1 -1 $-1 -5 -1.4999999999999829 -121.57975889628676 #
face $-1 -1 $-1 $-1 $188 $23 $-1 $379 reversed single #
loop $-1 -1 $-1 $-1 $286 $173 #
plane-surface $-1 -1 $-1 0 64.330127018922184 0 0 -1 0 0 0 -1 forward_v I I I I #
coedge $-1 -1 $-1 $380 $284 $287 $381 forward $174 $-1 #
coedge $-1 -1 $-1 $290 $176 $177 $278 reversed $103 $-1 #
coedge $-1 -1 $-1 $284 $380 $176 $276 reversed $174 $-1 #
edge $-1 -1 $-1 $291 -1.5 $382 1.5 $275 $383 forward @7 unknown #
coedge $-1 -1 $-1 $178 $177 $380 $384 forward $65 $-1 #
edge $-1 -1 $-1 $282 -10 $382 10 $274 $385 forward @7 unknown #
coedge $-1 -1 $-1 $287 $286 $178 $280 reversed $271 $-1 #
edge $-1 -1 $-1 $386 -10 $281 10 $279 $387 forward @7 unknown #
vertex $-1 -1 $-1 $180 $388 #
vertex $-1 -1 $-1 $293 $389 #
straight-curve $-1 -1 $-1 10 0 -1.5 0 -1 0 I I #
coedge $-1 -1 $-1 $273 $275 $181 $285 reversed $174 $-1 #
edge $-1 -1 $-1 $288 -64.330127018922184 $291 64.330127018922184 $284 $390 forward @7 unknown #
coedge $-1 -1 $-1 $279 $182 $187 $294 forward $271 $-1 #
coedge $-1 -1 $-1 $182 $279 $273 $381 reversed $271 $-1 #
vertex $-1 -1 $-1 $183 $391 #
straight-curve $-1 -1 $-1 0 64.330127018922184 1.5 -1 0 0 I I #
coedge $-1 -1 $-1 $184 $274 $186 $293 reversed $103 $-1 #
vertex $-1 -1 $-1 $285 $392 #
straight-curve $-1 -1 $-1 0 -64.330127018922184 1.5 1 0 0 I I #
edge $-1 -1 $-1 $189 -1.5 $282 1.5 $186 $393 forward @7 unknown #
edge $-1 -1 $-1 $190 -1.5 $281 1.5 $187 $394 forward @7 unknown #
point $-1 -1 $-1 10 -64.330127018922184 1.5 #
point $-1 -1 $-1 10 64.330127018922184 1.5 #
model_id-kcp-attrib $-1 -1 $-1 $-1 $193 1 1021324186 1021324186 -1678442495 8 #
face $395 -1 $-1 $396 $397 $8 $-1 $398 reversed single #
loop $-1 -1 $-1 $-1 $328 $193 #
plane-surface $-1 -1 $-1 -5 -110 0 -1 0 0 0 0 1 forward_v I I I I #
coedge $-1 -1 $-1 $399 $195 $197 $304 reversed $112 $-1 #
coedge $-1 -1 $-1 $195 $399 $212 $320 forward $112 $-1 #
coedge $-1 -1 $-1 $197 $196 $317 $400 reversed $70 $-1 #
edge $-1 -1 $-1 $401 0 $305 3 $301 $402 forward @7 unknown #
vertex $-1 -1 $-1 $198 $403 #
straight-curve $-1 -1 $-1 15.657731699405327 -3.26633481933467 -3 -0.866029254721986 0.49999332992119161 0 I I #
coedge $-1 -1 $-1 $203 $317 $199 $308 forward $209 $-1 #
edge $404 -1 $-1 $309 -31.830199999999998 $205 -26.0566 $307 $405 forward @7 unknown #
vertex $-1 -1 $-1 $400 $406 #
straight-curve $-1 -1 $-1 5 2.8867999999999983 0 0 0 -1 I I #
point $-1 -1 $-1 5 2.8867999999999983 -3 #
attrib_edge_convexity-kcp-attrib $-1 -1 $407 $-1 $204 1 #
straight-curve $-1 -1 $-1 -10.65775509886342 -11.926648328777805 0 -0.86602925472198611 -0.49999332992119139 0 I I #
point $-1 -1 $-1 5 -2.8868000000000014 0 #
coedge $-1 -1 $-1 $317 $208 $399 $408 forward $209 $-1 #
loop $-1 -1 $-1 $-1 $409 $318 #
coedge $-1 -1 $-1 $307 $315 $303 $400 forward $209 $-1 #
face $410 -1 $-1 $411 $209 $8 $-1 $412 forward single #
convexity-sys-attrib $-1 -1 $-1 $210 $124 #
edge $-1 -1 $-1 $322 0 $217 3 $212 $413 forward @7 unknown #
attrib_edge_convexity-kcp-attrib $-1 -1 $414 $-1 $213 1 #
vertex $-1 -1 $-1 $408 $415 #
straight-curve $-1 -1 $-1 -5 -26.0566 0 0 1 0 I I #
straight-curve $-1 -1 $-1 -13.157731699405325 -1.8229848193346747 -3 -0.866029254721986 -0.49999332992119161 0 I I #
point $-1 -1 $-1 -5 2.8867999999999983 -3 #
coedge $-1 -1 $-1 $416 $219 $417 $418 forward $134 $-1 #
coedge $-1 -1 $-1 $219 $419 $420 $421 forward $134 $-1 #
coedge $-1 -1 $-1 $422 $423 $219 $329 reversed $299 $-1 #
edge $-1 -1 $-1 $424 27.5 $425 36.160254037844382 $219 $426 forward @7 unknown #
model_id-kcp-attrib $-1 -1 $-1 $-1 $221 1 1021324186 1021324186 -1678442495 15 #
face $427 -1 $-1 $428 $429 $8 $-1 $430 reversed single #
loop $-1 -1 $-1 $-1 $431 $221 #
cone-surface $-1 -1 $-1 0 0 -1.5 0 0 1 7.0710678118654746 7.0710678118654746 0 1 I I 0 1 10 forward I I I I #
plane-surface $-1 -1 $-1 5 2.8867999999999983 0 0.49999332992119161 0.866029254721986 0 0 0 1 forward_v I I I I #
coedge $-1 -1 $-1 $432 $433 $244 $356 forward $224 $-1 #
coedge $-1 -1 $-1 $434 $226 $433 $435 reversed $140 $-1 #
coedge $-1 -1 $-1 $226 $434 $227 $341 forward $140 $-1 #
coedge $-1 -1 $-1 $229 $244 $226 $339 reversed $152 $-1 #
edge $-1 -1 $-1 $342 12.306460827682763 $436 18.079937846776197 $226 $437 forward @7 unknown #
coedge $-1 -1 $-1 $228 $227 $438 $439 forward $87 $-1 #
edge $-1 -1 $-1 $440 0 $342 3 $337 $441 forward @7 unknown #
vertex $-1 -1 $-1 $341 $442 #
straight-curve $-1 -1 $-1 8.1577550988634204 -10.483298328777806 -3 0.86602925472198611 -0.49999332992119139 0 I I #
coedge $-1 -1 $-1 $438 $235 $231 $345 reversed $350 $-1 #
edge $-1 -1 $-1 $346 23.169799999999999 $237 28.943399999999997 $231 $443 forward @7 unknown #
vertex $-1 -1 $-1 $439 $444 #
straight-curve $-1 -1 $-1 -5 -2.8868000000000018 0 0 0 -1 I I #
point $-1 -1 $-1 -5 -2.8868000000000018 -3 #
coedge $-1 -1 $-1 $235 $445 $239 $354 reversed $350 $-1 #
loop $-1 -1 $-1 $-1 $349 $359 #
straight-curve $-1 -1 $-1 -13.157731699405325 -1.8229848193346747 0 0.866029254721986 0.49999332992119161 0 I I #
point $-1 -1 $-1 -5 2.8867999999999983 0 #
coedge $-1 -1 $-1 $240 $239 $432 $446 forward $241 $-1 #
edge $-1 -1 $-1 $242 -18.079910827529485 $447 -12.306433808436051 $239 $448 forward @7 unknown #
point $-1 -1 $-1 0 5.7734999999999994 0 #
edge $-1 -1 $-1 $436 26.0566 $357 31.830199999999998 $335 $449 forward @7 unknown #
vertex $-1 -1 $-1 $446 $450 #
straight-curve $-1 -1 $-1 15.657731699405327 -3.26633481933467 -3 -0.866029254721986 0.49999332992119161 0 I I #
face $-1 -1 $-1 $-1 $350 $20 $-1 $451 forward single #
plane-surface $-1 -1 $-1 2.2204460492503131e-016 1.1102230246251565e-016 -3 0 0 1 1 0 0 forward_v I I I I #
plane-surface $-1 -1 $-1 -5 0 0 1 0 0 0 0 -1 forward_v I I I I #
coedge $-1 -1 $-1 $261 $452 $265 $377 reversed $250 $-1 #
coedge $-1 -1 $-1 $256 $252 $452 $453 forward $157 $-1 #
coedge $-1 -1 $-1 $252 $256 $258 $373 forward $157 $-1 #
edge $454 -1 $-1 $455 -5 $366 5 $252 $456 forward @7 unknown #
vertex $-1 -1 $-1 $365 $457 #
straight-curve $-1 -1 $-1 -5 1.500000000000028 -92.954942957604473 0 3.8285889215894375e-016 1 I I #
coedge $-1 -1 $-1 $452 $261 $255 $369 reversed $250 $-1 #
edge $-1 -1 $-1 $371 -37.285069976526657 $263 -28.624815938682289 $368 $458 forward @7 unknown #
convexity-sys-attrib $-1 -1 $-1 $-1 $257 #
vertex $-1 -1 $-1 $369 $459 #
straight-curve $-1 -1 $-1 0 -1.4999999999999862 -130.24001293413113 1 0 0 I I #
edge $460 -1 $-1 $259 -1.4999999999999862 $366 1.5000000000000138 $258 $461 forward @7 unknown #
point $-1 -1 $-1 -5 -1.4999999999999862 -130.24001293413113 #
straight-curve $-1 -1 $-1 5 -1.4734023602263108e-014 -121.57975889628676 0 1 -3.8285889215894375e-016 I I #
point $-1 -1 $-1 5 -1.4999999999999829 -121.57975889628676 #
edge $-1 -1 $-1 $266 28.624815938682289 $455 37.285069976526657 $362 $462 forward @7 unknown #
point $-1 -1 $-1 5 1.5000000000000171 -121.57975889628676 #
plane-surface $-1 -1 $-1 10 0 0 -1 0 0 0 0 1 forward_v I I I I #
coedge $-1 -1 $-1 $275 $273 $277 $384 reversed $174 $-1 #
edge $-1 -1 $-1 $288 -1.5 $386 1.5 $287 $463 forward @7 unknown #
vertex $-1 -1 $-1 $384 $464 #
straight-curve $-1 -1 $-1 -10 -64.330127018922184 0 0 0 -1 I I #
edge $-1 -1 $-1 $382 -64.330127018922184 $386 64.330127018922184 $380 $465 forward @7 unknown #
straight-curve $-1 -1 $-1 0 -64.330127018922184 -1.5 -1 0 0 I I #
vertex $-1 -1 $-1 $280 $466 #
straight-curve $-1 -1 $-1 0 64.330127018922184 -1.5 1 0 0 I I #
point $-1 -1 $-1 10 64.330127018922184 -1.5 #
point $-1 -1 $-1 10 -64.330127018922184 -1.5 #
straight-curve $-1 -1 $-1 -10 0 1.5 0 -1 0 I I #
point $-1 -1 $-1 -10 64.330127018922184 1.5 #
point $-1 -1 $-1 -10 -64.330127018922184 1.5 #
straight-curve $-1 -1 $-1 10 -64.330127018922184 0 0 0 -1 I I #
straight-curve $-1 -1 $-1 10 64.330127018922184 0 0 0 -1 I I #
model_id-kcp-attrib $-1 -1 $-1 $-1 $298 1 1021324186 1021324186 -1678442495 9 #
face $467 -1 $-1 $318 $468 $8 $-1 $469 reversed single #
loop $-1 -1 $-1 $-1 $470 $298 #
plane-surface $-1 -1 $-1 5 -120 0 1 0 0 0 0 -1 forward_v I I I I #
coedge $-1 -1 $-1 $302 $301 $315 $408 reversed $112 $-1 #
edge $471 -1 $-1 $401 -18.079910827529485 $309 -12.306433808436051 $317 $472 forward @7 unknown #
vertex $-1 -1 $-1 $400 $473 #
straight-curve $-1 -1 $-1 0 5.7734999999999994 0 0 0 -1 I I #
point $-1 -1 $-1 0 5.7734999999999994 -3 #
attrib_edge_convexity-kcp-attrib $-1 -1 $474 $-1 $308 1 #
straight-curve $-1 -1 $-1 5 -28.9434 0 0 -1 0 I I #
point $-1 -1 $-1 5 2.8867999999999983 0 #
convexity-sys-attrib $-1 -1 $-1 $312 $204 #
edge $475 -1 $-1 $322 9.4196952988893337 $401 15.19317231798277 $315 $476 forward @7 unknown #
coedge $-1 -1 $-1 $477 $478 $479 $480 forward $316 $-1 #
model_id-kcp-attrib $-1 -1 $-1 $-1 $318 1 1021324186 1021324186 -1678442495 11 #
face $481 -1 $-1 $482 $483 $8 $-1 $484 forward single #
plane-surface $-1 -1 $-1 8.8817841970012523e-016 -55 0 0 0 1 0 -1 0 forward_v I I I I #
straight-curve $-1 -1 $-1 -5 2.8867999999999983 0 0 0 -1 I I #
convexity-sys-attrib $-1 -1 $-1 $321 $213 #
point $-1 -1 $-1 -5 2.8867999999999983 0 #
coedge $-1 -1 $-1 $485 $326 $486 $487 forward $134 $-1 #
coedge $-1 -1 $-1 $488 $489 $326 $418 reversed $490 $-1 #
edge $-1 -1 $-1 $425 2.0943951023931957 $491 4.1887902047863914 $326 $492 forward @7 unknown #
coedge $-1 -1 $-1 $327 $493 $470 $494 forward $134 $-1 #
coedge $-1 -1 $-1 $495 $496 $327 $421 reversed $468 $-1 #
edge $497 -1 $-1 $498 -2.4999999999999996 $424 7.5 $327 $499 forward @7 unknown #
coedge $-1 -1 $-1 $479 $328 $496 $500 reversed $299 $-1 #
coedge $-1 -1 $-1 $328 $479 $488 $501 reversed $299 $-1 #
vertex $-1 -1 $-1 $329 $502 #
vertex $-1 -1 $-1 $418 $503 #
straight-curve $-1 -1 $-1 -5 -82.5 -3 0 -1 0 I I #
model_id-kcp-attrib $-1 -1 $-1 $-1 $331 1 1021324186 1021324186 -1678442495 16 #
face $504 -1 $-1 $-1 $505 $8 $-1 $506 reversed single #
loop $-1 -1 $-1 $-1 $507 $331 #
plane-surface $-1 -1 $-1 -4.9999999999999991 -55 -1.5 1 0 0 0 0 1 forward_v I I I I #
coedge $-1 -1 $-1 $508 $509 $510 $511 reversed $332 $-1 #
coedge $-1 -1 $-1 $512 $335 $353 $446 reversed $224 $-1 #
coedge $-1 -1 $-1 $335 $512 $336 $435 forward $224 $-1 #
coedge $-1 -1 $-1 $337 $336 $513 $514 forward $140 $-1 #
edge $-1 -1 $-1 $515 0 $436 3 $433 $516 forward @7 unknown #
vertex $-1 -1 $-1 $435 $517 #
straight-curve $-1 -1 $-1 -10.65775509886342 -11.926648328777805 -3 0.86602925472198611 0.49999332992119139 0 I I #
coedge $-1 -1 $-1 $513 $344 $340 $439 reversed $350 $-1 #
edge $-1 -1 $-1 $440 9.4197223181360474 $346 15.193199337229482 $340 $518 forward @7 unknown #
vertex $-1 -1 $-1 $514 $519 #
straight-curve $-1 -1 $-1 0 -5.7735000000000012 0 0 0 -1 I I #
point $-1 -1 $-1 0 -5.7735000000000012 -3 #
straight-curve $-1 -1 $-1 -5 -26.0566 0 0 1 0 I I #
point $-1 -1 $-1 -5 -2.8868000000000014 0 #
coedge $-1 -1 $-1 $349 $513 $512 $520 reversed $350 $-1 #
edge $-1 -1 $-1 $447 0 $357 3 $353 $521 forward @7 unknown #
vertex $-1 -1 $-1 $354 $522 #
straight-curve $-1 -1 $-1 15.657731699405327 -3.26633481933467 0 0.866029254721986 -0.49999332992119161 0 I I #
straight-curve $-1 -1 $-1 5 -28.9434 -3 0 1 0 I I #
point $-1 -1 $-1 5 2.8867999999999983 -3 #
plane-surface $-1 -1 $-1 2.2204460492503131e-016 1.1102230246251565e-016 0 0 0 1 1 0 0 forward_v I I I I #
coedge $-1 -1 $-1 $362 $368 $363 $453 reversed $250 $-1 #
edge $523 -1 $-1 $455 -1.5000000000000138 $371 1.4999999999999862 $452 $524 forward @7 unknown #
convexity-sys-attrib $-1 -1 $-1 $-1 $365 #
vertex $-1 -1 $-1 $453 $525 #
straight-curve $-1 -1 $-1 0 1.5000000000000138 -130.24001293413113 -1 0 0 I I #
point $-1 -1 $-1 -5 1.5000000000000138 -130.24001293413113 #
straight-curve $-1 -1 $-1 5 -1.499999999999972 -92.954942957604473 0 3.8285889215894375e-016 1 I I #
point $-1 -1 $-1 5 -1.4999999999999862 -130.24001293413113 #
convexity-sys-attrib $-1 -1 $-1 $-1 $373 #
straight-curve $-1 -1 $-1 -5 0 -130.24001293413113 0 1 0 I I #
straight-curve $-1 -1 $-1 5 1.500000000000028 -92.954942957604473 0 -3.8285889215894375e-016 -1 I I #
straight-curve $-1 -1 $-1 -10 64.330127018922184 0 0 0 -1 I I #
point $-1 -1 $-1 -10 -64.330127018922184 -1.5 #
straight-curve $-1 -1 $-1 -10 0 -1.5 0 1 0 I I #
point $-1 -1 $-1 -10 64.330127018922184 -1.5 #
model_id-kcp-attrib $-1 -1 $-1 $-1 $396 1 1021324186 1021324186 -1678442495 10 #
loop $-1 -1 $-1 $-1 $420 $396 #
plane-surface $-1 -1 $-1 5 -110 0 0 1 0 0 0 1 forward_v I I I I #
coedge $-1 -1 $-1 $526 $527 $419 $494 reversed $397 $-1 #
attrib_edge_convexity-kcp-attrib $-1 -1 $528 $-1 $400 1 #
straight-curve $-1 -1 $-1 15.657731699405327 -3.26633481933467 0 0.866029254721986 -0.49999332992119161 0 I I #
point $-1 -1 $-1 0 5.7734999999999994 0 #
convexity-sys-attrib $-1 -1 $-1 $404 $308 #
attrib_edge_convexity-kcp-attrib $-1 -1 $529 $-1 $408 1 #
straight-curve $-1 -1 $-1 -13.157731699405325 -1.8229848193346747 0 0.866029254721986 0.49999332992119161 0 I I #
coedge $-1 -1 $-1 $530 $409 $531 $532 forward $316 $-1 #
coedge $-1 -1 $-1 $409 $533 $534 $535 forward $316 $-1 #
coedge $-1 -1 $-1 $423 $422 $409 $480 reversed $299 $-1 #
edge $536 -1 $-1 $537 -36.160254037844382 $538 -27.5 $409 $539 forward @7 unknown #
model_id-kcp-attrib $-1 -1 $-1 $-1 $411 1 1021324186 1021324186 -1678442495 12 #
face $540 -1 $-1 $136 $490 $8 $-1 $484 forward single #
loop $-1 -1 $-1 $-1 $541 $411 #
cone-surface $-1 -1 $-1 0 -110 -1.5 0 0 1 10 0 0 1 I I 0 1 10 forward I I I I #
coedge $-1 -1 $-1 $542 $416 $509 $543 forward $134 $-1 #
coedge $-1 -1 $-1 $507 $510 $416 $487 reversed $429 $-1 #
edge $544 -1 $-1 $491 -46.339745962155604 $545 46.339745962155611 $486 $546 forward @7 unknown #
coedge $-1 -1 $-1 $534 $417 $423 $501 forward $490 $-1 #
coedge $-1 -1 $-1 $417 $534 $507 $547 reversed $490 $-1 #
loop $-1 -1 $-1 $-1 $488 $482 #
vertex $-1 -1 $-1 $487 $548 #
ellipse-curve $-1 -1 $-1 0 -110 -3 0 0 -1 10 0 0 1 I I #
coedge $-1 -1 $-1 $419 $542 $549 $550 forward $134 $-1 #
edge $-1 -1 $-1 $551 -31.160254037844382 $498 -22.5 $419 $552 forward @7 unknown #
coedge $-1 -1 $-1 $531 $420 $527 $553 reversed $468 $-1 #
coedge $-1 -1 $-1 $420 $531 $422 $500 forward $468 $-1 #
attrib_edge_convexity-kcp-attrib $-1 -1 $554 $-1 $421 1 #
vertex $-1 -1 $-1 $494 $555 #
straight-curve $-1 -1 $-1 2.5000000000000004 -110 -3 -1 0 0 I I #
edge $556 -1 $-1 $538 0 $424 3 $422 $557 forward @7 unknown #
edge $-1 -1 $-1 $425 -1.5 $537 1.5 $488 $558 forward @7 unknown #
point $-1 -1 $-1 -5 -110 -3 #
point $-1 -1 $-1 -5 -118.66025403784438 -3 #
model_id-kcp-attrib $-1 -1 $-1 $-1 $428 1 1021324186 1021324186 -1678442495 17 #
loop $-1 -1 $-1 $-1 $559 $428 #
plane-surface $-1 -1 $-1 5.0000000000000009 -55 -1.5 -1 0 0 0 0 -1 forward_v I I I I #
coedge $-1 -1 $-1 $560 $486 $489 $547 forward $429 $-1 #
coedge $-1 -1 $-1 $561 $431 $562 $563 reversed $332 $-1 #
coedge $-1 -1 $-1 $431 $561 $485 $543 reversed $332 $-1 #
coedge $-1 -1 $-1 $486 $560 $431 $511 forward $429 $-1 #
edge $564 -1 $-1 $565 -1.5 $545 1.5 $510 $566 forward @7 unknown #
coedge $-1 -1 $-1 $433 $432 $445 $520 forward $224 $-1 #
coedge $-1 -1 $-1 $445 $438 $434 $514 reversed $350 $-1 #
edge $-1 -1 $-1 $515 -18.079937846776197 $440 -12.306460827682763 $434 $567 forward @7 unknown #
vertex $-1 -1 $-1 $520 $568 #
straight-curve $-1 -1 $-1 5 -2.8868000000000018 0 0 0 -1 I I #
point $-1 -1 $-1 5 -2.8868000000000018 -3 #
straight-curve $-1 -1 $-1 8.1577550988634204 -10.483298328777806 0 -0.86602925472198611 0.49999332992119139 0 I I #
point $-1 -1 $-1 0 -5.7735000000000012 0 #
edge $-1 -1 $-1 $447 -31.830199999999998 $515 -26.0566 $512 $569 forward @7 unknown #
straight-curve $-1 -1 $-1 5 2.8867999999999983 0 0 0 -1 I I #
point $-1 -1 $-1 5 2.8867999999999983 0 #
convexity-sys-attrib $-1 -1 $-1 $-1 $453 #
straight-curve $-1 -1 $-1 5 0 -130.24001293413113 0 -1 0 I I #
point $-1 -1 $-1 5 1.5000000000000138 -130.24001293413113 #
coedge $-1 -1 $-1 $570 $470 $541 $571 reversed $397 $-1 #
coedge $-1 -1 $-1 $470 $570 $495 $553 forward $397 $-1 #
convexity-sys-attrib $-1 -1 $-1 $471 $400 #
convexity-sys-attrib $-1 -1 $-1 $475 $408 #
coedge $-1 -1 $-1 $572 $477 $570 $573 forward $316 $-1 #
coedge $-1 -1 $-1 $496 $495 $477 $532 reversed $468 $-1 #
edge $574 -1 $-1 $538 -7.5 $575 2.4999999999999996 $477 $576 forward @7 unknown #
coedge $-1 -1 $-1 $478 $562 $560 $577 forward $316 $-1 #
coedge $-1 -1 $-1 $489 $488 $478 $535 reversed $490 $-1 #
edge $578 -1 $-1 $579 2.0943951023931948 $537 4.1887902047863905 $478 $580 forward @7 unknown #
attrib_edge_convexity-kcp-attrib $-1 -1 $581 $-1 $480 1 #
vertex $-1 -1 $-1 $501 $582 #
vertex $-1 -1 $-1 $480 $583 #
straight-curve $-1 -1 $-1 -5 -82.5 0 0 1 0 I I #
model_id-kcp-attrib $-1 -1 $-1 $-1 $482 1 1021324186 1021324186 -1678442495 13 #
coedge $-1 -1 $-1 $549 $584 $526 $571 forward $483 $-1 #
coedge $-1 -1 $-1 $493 $485 $585 $586 forward $134 $-1 #
edge $-1 -1 $-1 $545 2.8797932657906435 $587 8.1157810217736319 $485 $588 forward @7 unknown #
attrib_edge_convexity-kcp-attrib $-1 -1 $589 $-1 $487 1 #
vertex $-1 -1 $-1 $543 $590 #
straight-curve $-1 -1 $-1 -4.9999999999999991 -55 -3 0 1 0 I I #
edge $591 -1 $-1 $491 -1.5 $579 1.5 $507 $592 forward @7 unknown #
point $-1 -1 $-1 -4.9999999999999991 -101.3397459621556 -3 #
coedge $-1 -1 $-1 $593 $541 $493 $550 reversed $483 $-1 #
edge $-1 -1 $-1 $594 -1.0471975511965974 $551 1.0471975511965974 $493 $492 forward @7 unknown #
vertex $-1 -1 $-1 $571 $595 #
straight-curve $-1 -1 $-1 5 -87.5 -3 0 1 0 I I #
edge $596 -1 $-1 $575 0 $498 3 $495 $597 forward @7 unknown #
convexity-sys-attrib $-1 -1 $-1 $497 $421 #
point $-1 -1 $-1 5 -110 -3 #
attrib_edge_convexity-kcp-attrib $-1 -1 $598 $-1 $500 2 #
straight-curve $-1 -1 $-1 -5 -110 0 0 0 -1 I I #
straight-curve $-1 -1 $-1 -5 -118.66025403784438 -1.5 0 0 1 I I #
coedge $-1 -1 $-1 $585 $599 $593 $600 forward $505 $-1 #
coedge $-1 -1 $-1 $510 $507 $533 $577 reversed $429 $-1 #
coedge $-1 -1 $-1 $509 $508 $601 $602 reversed $332 $-1 #
coedge $-1 -1 $-1 $533 $603 $508 $563 forward $316 $-1 #
edge $604 -1 $-1 $605 -1.8325957145940459 $565 3.4033920413889427 $562 $606 forward @7 unknown #
attrib_edge_convexity-kcp-attrib $-1 -1 $607 $-1 $511 2 #
vertex $-1 -1 $-1 $577 $608 #
straight-curve $-1 -1 $-1 -4.9999999999999991 -8.6602540378443891 -1.5 0 0 -1 I I #
straight-curve $-1 -1 $-1 -10.65775509886342 -11.926648328777805 0 -0.86602925472198611 -0.49999332992119139 0 I I #
point $-1 -1 $-1 5 -2.8868000000000014 0 #
straight-curve $-1 -1 $-1 5 -28.9434 0 0 -1 0 I I #
coedge $-1 -1 $-1 $527 $526 $530 $573 reversed $397 $-1 #
edge $-1 -1 $-1 $609 -1.5 $551 1.5 $541 $610 forward @7 unknown #
coedge $-1 -1 $-1 $603 $530 $584 $611 forward $316 $-1 #
edge $612 -1 $-1 $575 22.5 $609 31.160254037844382 $530 $613 forward @7 unknown #
attrib_edge_convexity-kcp-attrib $-1 -1 $614 $-1 $532 1 #
vertex $-1 -1 $-1 $573 $615 #
straight-curve $-1 -1 $-1 2.5000000000000004 -110 0 1 0 0 I I #
edge $616 -1 $-1 $565 -46.339745962155611 $579 46.339745962155604 $560 $617 forward @7 unknown #
attrib_edge_convexity-kcp-attrib $-1 -1 $618 $-1 $535 1 #
vertex $-1 -1 $-1 $535 $619 #
ellipse-curve $-1 -1 $-1 0 -110 0 0 0 1 10 0 0 1 I I #
convexity-sys-attrib $-1 -1 $-1 $536 $480 #
point $-1 -1 $-1 -5 -118.66025403784438 0 #
point $-1 -1 $-1 -5 -110 0 #
coedge $-1 -1 $-1 $541 $593 $572 $611 reversed $483 $-1 #
coedge $-1 -1 $-1 $601 $559 $542 $586 reversed $505 $-1 #
edge $620 -1 $-1 $587 -46.339745962155618 $594 46.339745962155618 $585 $621 forward @7 unknown #
vertex $-1 -1 $-1 $586 $622 #
ellipse-curve $-1 -1 $-1 0 0 -3 0 0 -1 7.0710678118654746 7.0710678118654746 0 1 I I #
convexity-sys-attrib $-1 -1 $-1 $544 $487 #
point $-1 -1 $-1 -4.9999999999999991 -8.6602540378443891 -3 #
attrib_edge_convexity-kcp-attrib $-1 -1 $623 $-1 $547 2 #
straight-curve $-1 -1 $-1 -4.9999999999999991 -101.3397459621556 -1.5 0 0 1 I I #
coedge $-1 -1 $-1 $584 $549 $559 $600 reversed $483 $-1 #
vertex $-1 -1 $-1 $550 $624 #
point $-1 -1 $-1 5 -118.66025403784438 -3 #
attrib_edge_convexity-kcp-attrib $-1 -1 $625 $-1 $553 2 #
straight-curve $-1 -1 $-1 5 -110 0 0 0 -1 I I #
convexity-sys-attrib $-1 -1 $-1 $556 $500 #
coedge $-1 -1 $-1 $559 $601 $603 $626 reversed $505 $-1 #
edge $627 -1 $-1 $628 -1.5 $594 1.5 $559 $629 forward @7 unknown #
coedge $-1 -1 $-1 $599 $585 $561 $602 forward $505 $-1 #
edge $630 -1 $-1 $587 -1.5 $605 1.5 $601 $631 forward @7 unknown #
coedge $-1 -1 $-1 $562 $572 $599 $626 forward $316 $-1 #
attrib_edge_convexity-kcp-attrib $-1 -1 $632 $-1 $563 1 #
vertex $-1 -1 $-1 $563 $633 #
ellipse-curve $-1 -1 $-1 0 0 -2.2204460492503131e-016 0 0 1 7.0710678118654746 7.0710678118654746 0 1 I I #
convexity-sys-attrib $-1 -1 $-1 $564 $511 #
point $-1 -1 $-1 -4.9999999999999991 -8.6602540378443891 0 #
vertex $-1 -1 $-1 $611 $634 #
straight-curve $-1 -1 $-1 5 -118.66025403784438 -1.5 0 0 -1 I I #
edge $635 -1 $-1 $609 -1.0471975511965974 $628 1.0471975511965974 $572 $580 forward @7 unknown #
attrib_edge_convexity-kcp-attrib $-1 -1 $636 $-1 $573 1 #
straight-curve $-1 -1 $-1 5 -87.5 0 0 -1 0 I I #
convexity-sys-attrib $-1 -1 $-1 $574 $532 #
point $-1 -1 $-1 5 -110 0 #
attrib_edge_convexity-kcp-attrib $-1 -1 $637 $-1 $577 1 #
straight-curve $-1 -1 $-1 -4.9999999999999991 -55 0 0 -1 0 I I #
convexity-sys-attrib $-1 -1 $-1 $578 $535 #
point $-1 -1 $-1 -4.9999999999999991 -101.3397459621556 0 #
attrib_edge_convexity-kcp-attrib $-1 -1 $638 $-1 $586 1 #
straight-curve $-1 -1 $-1 5.0000000000000009 -55 -3 0 -1 0 I I #
point $-1 -1 $-1 5.0000000000000009 -8.660254037844382 -3 #
convexity-sys-attrib $-1 -1 $-1 $591 $547 #
point $-1 -1 $-1 5.0000000000000009 -101.33974596215562 -3 #
convexity-sys-attrib $-1 -1 $-1 $596 $553 #
edge $639 -1 $-1 $628 -46.339745962155618 $605 46.339745962155618 $599 $640 forward @7 unknown #
attrib_edge_convexity-kcp-attrib $-1 -1 $641 $-1 $600 2 #
vertex $-1 -1 $-1 $626 $642 #
straight-curve $-1 -1 $-1 5.0000000000000009 -101.33974596215562 -1.5 0 0 -1 I I #
attrib_edge_convexity-kcp-attrib $-1 -1 $643 $-1 $602 2 #
straight-curve $-1 -1 $-1 5.0000000000000009 -8.660254037844382 -1.5 0 0 1 I I #
convexity-sys-attrib $-1 -1 $-1 $604 $563 #
point $-1 -1 $-1 5.0000000000000009 -8.660254037844382 0 #
point $-1 -1 $-1 5 -118.66025403784438 0 #
attrib_edge_convexity-kcp-attrib $-1 -1 $644 $-1 $611 1 #
convexity-sys-attrib $-1 -1 $-1 $612 $573 #
convexity-sys-attrib $-1 -1 $-1 $616 $577 #
convexity-sys-attrib $-1 -1 $-1 $620 $586 #
attrib_edge_convexity-kcp-attrib $-1 -1 $645 $-1 $626 1 #
straight-curve $-1 -1 $-1 5.0000000000000009 -55 0 0 1 0 I I #
convexity-sys-attrib $-1 -1 $-1 $627 $600 #
point $-1 -1 $-1 5.0000000000000009 -101.33974596215562 0 #
convexity-sys-attrib $-1 -1 $-1 $630 $602 #
convexity-sys-attrib $-1 -1 $-1 $635 $611 #
convexity-sys-attrib $-1 -1 $-1 $639 $626 #
End-of-ACIS-data 