600 0 1 0           
93 GICL ACIS Healer - Source: /gicl/data5/repository/CMU/Tools/10mm_combination_wrench.sat - 6 0 18 ACIS 6.0.3 Solaris 24 Sat Apr 13 00:31:56 2002 
1 9.999999999999999547e-07 1.000000000000000036e-10 
body $-1 $1 $-1 $-1 #
lump $-1 $-1 $2 $0 #
shell $-1 $-1 $-1 $3 $-1 $1 #
face $-1 $4 $5 $2 $-1 $6 reversed single #
face $-1 $7 $8 $2 $-1 $9 reversed single #
loop $-1 $-1 $10 $3 #
plane-surface $-1 -5 -2.886800000000001365 0 -0.4999933299211913873 -0.8660292547219861081 0 0 0 -1 forward_v I I I I #
face $-1 $11 $12 $2 $-1 $13 reversed single #
loop $-1 $-1 $14 $4 #
plane-surface $-1 0 -5.773500000000001187 0 0.4999933299211913873 -0.8660292547219861081 0 0 0 -1 forward_v I I I I #
coedge $-1 $15 $16 $17 $18 reversed $5 $-1 #
face $-1 $19 $20 $2 $-1 $21 reversed single #
loop $-1 $-1 $22 $7 #
plane-surface $-1 5 -2.886800000000001365 0 1 0 0 0 0 -1 forward_v I I I I #
coedge $-1 $23 $24 $25 $26 reversed $8 $-1 #
coedge $-1 $27 $10 $28 $29 reversed $5 $-1 #
coedge $-1 $10 $27 $23 $30 forward $5 $-1 #
coedge $-1 $25 $31 $10 $18 forward $32 $-1 #
edge $-1 $33 -15.19319933722948157 $34 -9.419722318136047434 $17 $35 forward 7 unknown #
face $-1 $36 $37 $2 $-1 $38 reversed single #
loop $-1 $-1 $39 $11 #
plane-surface $-1 5 2.886799999999998256 0 0.4999933299211916093 0.8660292547219859971 0 0 0 1 forward_v I I I I #
coedge $-1 $40 $41 $42 $43 reversed $12 $-1 #
coedge $-1 $44 $14 $16 $30 reversed $8 $-1 #
coedge $-1 $14 $44 $40 $45 forward $8 $-1 #
coedge $-1 $42 $17 $14 $26 forward $32 $-1 #
edge $-1 $34 12.30646082768276273 $46 18.07993784677619686 $25 $47 forward 7 unknown #
coedge $-1 $16 $15 $48 $49 reversed $5 $-1 #
coedge $-1 $50 $51 $15 $29 forward $52 $-1 #
edge $-1 $53 0 $33 3 $15 $54 forward 7 unknown #
edge $-1 $55 0 $34 3 $23 $56 forward 7 unknown #
coedge $-1 $17 $57 $50 $58 forward $32 $-1 #
loop $-1 $59 $60 $61 #
vertex $-1 $58 $62 #
vertex $-1 $18 $63 #
straight-curve $-1 8.157755098863420429 -10.48329832877780632 -3 0.8660292547219861081 -0.4999933299211913873 0 I I #
face $-1 $64 $52 $2 $-1 $65 reversed single #
loop $-1 $-1 $66 $19 #
plane-surface $-1 0 5.77349999999999941 0 -0.4999933299211916093 0.8660292547219859971 0 0 0 1 forward_v I I I I #
coedge $-1 $67 $68 $60 $69 reversed $20 $-1 #
coedge $-1 $70 $22 $24 $45 reversed $12 $-1 #
coedge $-1 $22 $70 $67 $71 forward $12 $-1 #
coedge $-1 $60 $25 $22 $43 forward $32 $-1 #
edge $-1 $46 26.05659999999999954 $72 31.83019999999999783 $42 $73 forward 7 unknown #
coedge $-1 $24 $23 $74 $75 reversed $8 $-1 #
edge $-1 $76 0 $46 3 $40 $77 forward 7 unknown #
vertex $-1 $26 $78 #
straight-curve $-1 -10.65775509886342043 -11.92664832877780512 -3 0.8660292547219861081 0.4999933299211913873 0 I I #
coedge $-1 $79 $74 $27 $49 forward $80 $-1 #
edge $-1 $55 9.419722318136047434 $53 15.19319933722948157 $48 $81 forward 7 unknown #
coedge $-1 $82 $28 $31 $58 reversed $52 $-1 #
coedge $-1 $28 $82 $79 $83 reversed $52 $-1 #
loop $-1 $-1 $50 $36 #
vertex $-1 $83 $84 #
straight-curve $-1 -5 -2.886800000000001365 0 0 0 -1 I I #
vertex $-1 $49 $85 #
straight-curve $-1 0 -5.773500000000001187 0 0 0 -1 I I #
coedge $-1 $31 $60 $66 $86 forward $32 $-1 #
edge $-1 $87 -28.94339999999999691 $33 -23.16979999999999862 $31 $88 forward 7 unknown #
loop $-1 $-1 $89 $61 #
coedge $-1 $57 $42 $39 $69 forward $32 $-1 #
face $-1 $90 $32 $2 $-1 $91 reversed single #
point $-1 -5 -2.886800000000001365 -3 #
point $-1 0 -5.773500000000001187 -3 #
face $-1 $92 $93 $2 $-1 $94 reversed single #
plane-surface $-1 -5 2.886799999999998256 0 -1 0 0 0 0 1 forward_v I I I I #
coedge $-1 $95 $96 $57 $86 reversed $37 $-1 #
coedge $-1 $97 $39 $41 $71 reversed $20 $-1 #
coedge $-1 $39 $97 $95 $98 forward $20 $-1 #
edge $-1 $72 12.30643380843605073 $99 18.07991082752948486 $60 $100 forward 7 unknown #
coedge $-1 $41 $40 $101 $102 reversed $12 $-1 #
edge $-1 $103 0 $72 3 $67 $104 forward 7 unknown #
vertex $-1 $69 $105 #
straight-curve $-1 5 -28.94340000000000046 -3 0 1 0 I I #
coedge $-1 $48 $101 $44 $75 forward $80 $-1 #
edge $-1 $76 -18.07993784677619686 $55 -12.30646082768276273 $74 $106 forward 7 unknown #
vertex $-1 $75 $107 #
straight-curve $-1 5 -2.886800000000001365 0 0 0 -1 I I #
point $-1 5 -2.886800000000001365 -3 #
coedge $-1 $108 $48 $51 $83 forward $80 $-1 #
loop $-1 $109 $110 $111 #
straight-curve $-1 8.157755098863420429 -10.48329832877780632 0 -0.8660292547219861081 0.4999933299211913873 0 I I #
coedge $-1 $51 $50 $96 $112 reversed $52 $-1 #
edge $-1 $53 23.16979999999999862 $113 28.94339999999999691 $79 $114 forward 7 unknown #
point $-1 -5 -2.886800000000001365 0 #
point $-1 0 -5.773500000000001187 0 #
edge $-1 $99 -15.19317231798276957 $87 -9.419695298889333657 $57 $115 forward 7 unknown #
vertex $-1 $86 $116 #
straight-curve $-1 -5 -26.05659999999999954 -3 0 -1 0 I I #
coedge $-1 $117 $118 $119 $120 forward $59 $-1 #
face $-1 $121 $122 $2 $-1 $123 forward single #
plane-surface $-1 8.881784197001252323e-16 -55 -3 0 0 1 0 -1 0 forward_v I I I I #
face $-1 $124 $125 $2 $-1 $126 reversed single #
loop $-1 $-1 $119 $64 #
plane-surface $-1 -5 -110 0 -1 0 0 0 0 1 forward_v I I I I #
coedge $-1 $127 $66 $68 $98 reversed $37 $-1 #
coedge $-1 $66 $127 $82 $112 forward $37 $-1 #
coedge $-1 $68 $67 $110 $128 reversed $20 $-1 #
edge $-1 $129 0 $99 3 $95 $130 forward 7 unknown #
vertex $-1 $69 $131 #
straight-curve $-1 15.65773169940532661 -3.266334819334669959 -3 -0.8660292547219859971 0.4999933299211916093 0 I I #
coedge $-1 $74 $110 $70 $102 forward $80 $-1 #
edge $-1 $103 -31.83019999999999783 $76 -26.05659999999999954 $101 $132 forward 7 unknown #
vertex $-1 $128 $133 #
straight-curve $-1 5 2.886799999999998256 0 0 0 -1 I I #
point $-1 5 2.886799999999998256 -3 #
straight-curve $-1 -10.65775509886342043 -11.92664832877780512 0 -0.8660292547219861081 -0.4999933299211913873 0 I I #
point $-1 5 -2.886800000000001365 0 #
coedge $-1 $110 $79 $127 $134 forward $80 $-1 #
loop $-1 $-1 $135 $111 #
coedge $-1 $101 $108 $97 $128 forward $80 $-1 #
face $-1 $136 $80 $2 $-1 $137 forward single #
edge $-1 $113 0 $87 3 $82 $138 forward 7 unknown #
vertex $-1 $134 $139 #
straight-curve $-1 -5 -26.05659999999999954 0 0 1 0 I I #
straight-curve $-1 -13.15773169940532483 -1.822984819334674711 -3 -0.8660292547219859971 -0.4999933299211916093 0 I I #
point $-1 -5 2.886799999999998256 -3 #
coedge $-1 $140 $89 $141 $142 forward $59 $-1 #
coedge $-1 $89 $143 $144 $145 forward $59 $-1 #
coedge $-1 $146 $147 $89 $120 reversed $93 $-1 #
edge $-1 $148 27.5 $149 36.16025403784438197 $89 $150 forward 7 unknown #
face $-1 $151 $152 $2 $-1 $153 reversed single #
loop $-1 $-1 $154 $90 #
cone-surface $-1 0 0 -1.5 0 0 1 7.071067811865474617 7.071067811865474617 0 1 I I 0 1 10 forward I I I I #
face $-1 $111 $155 $2 $-1 $156 reversed single #
loop $-1 $-1 $157 $92 #
plane-surface $-1 5 -120 0 1 0 0 0 0 -1 forward_v I I I I #
coedge $-1 $96 $95 $108 $134 reversed $37 $-1 #
edge $-1 $129 -18.07991082752948486 $103 -12.30643380843605073 $110 $158 forward 7 unknown #
vertex $-1 $128 $159 #
straight-curve $-1 0 5.77349999999999941 0 0 0 -1 I I #
point $-1 0 5.77349999999999941 -3 #
straight-curve $-1 5 -28.94340000000000046 0 0 -1 0 I I #
point $-1 5 2.886799999999998256 0 #
edge $-1 $113 9.419695298889333657 $129 15.19317231798276957 $108 $160 forward 7 unknown #
coedge $-1 $161 $162 $163 $164 forward $109 $-1 #
face $-1 $165 $166 $2 $-1 $167 forward single #
plane-surface $-1 8.881784197001252323e-16 -55 0 0 0 1 0 -1 0 forward_v I I I I #
straight-curve $-1 -5 2.886799999999998256 0 0 0 -1 I I #
point $-1 -5 2.886799999999998256 0 #
coedge $-1 $168 $117 $169 $170 forward $59 $-1 #
coedge $-1 $171 $172 $117 $142 reversed $173 $-1 #
edge $-1 $149 2.094395102393195707 $174 4.188790204786391413 $117 $175 forward 7 unknown #
coedge $-1 $118 $176 $157 $177 forward $59 $-1 #
coedge $-1 $178 $179 $118 $145 reversed $155 $-1 #
edge $-1 $180 -2.499999999999999556 $148 7.5 $118 $181 forward 7 unknown #
coedge $-1 $163 $119 $179 $182 reversed $93 $-1 #
coedge $-1 $119 $163 $171 $183 reversed $93 $-1 #
vertex $-1 $120 $184 #
vertex $-1 $142 $185 #
straight-curve $-1 -5 -82.5 -3 0 -1 0 I I #
face $-1 $-1 $186 $2 $-1 $187 reversed single #
loop $-1 $-1 $188 $121 #
plane-surface $-1 -4.999999999999999112 -55 -1.5 1 0 0 0 0 1 forward_v I I I I #
coedge $-1 $189 $190 $191 $192 reversed $122 $-1 #
loop $-1 $-1 $144 $124 #
plane-surface $-1 5 -110 0 0 1 0 0 0 1 forward_v I I I I #
coedge $-1 $193 $194 $143 $177 reversed $125 $-1 #
straight-curve $-1 15.65773169940532661 -3.266334819334669959 0 0.8660292547219859971 -0.4999933299211916093 0 I I #
point $-1 0 5.77349999999999941 0 #
straight-curve $-1 -13.15773169940532483 -1.822984819334674711 0 0.8660292547219859971 0.4999933299211916093 0 I I #
coedge $-1 $195 $135 $196 $197 forward $109 $-1 #
coedge $-1 $135 $198 $199 $200 forward $109 $-1 #
coedge $-1 $147 $146 $135 $164 reversed $93 $-1 #
edge $-1 $201 -36.16025403784438197 $202 -27.5 $135 $203 forward 7 unknown #
face $-1 $61 $173 $2 $-1 $167 forward single #
loop $-1 $-1 $204 $136 #
cone-surface $-1 0 -110 -1.5 0 0 1 10 0 0 1 I I 0 1 10 forward I I I I #
coedge $-1 $205 $140 $190 $206 forward $59 $-1 #
coedge $-1 $188 $191 $140 $170 reversed $152 $-1 #
edge $-1 $174 -46.33974596215560382 $207 46.33974596215561093 $169 $208 forward 7 unknown #
coedge $-1 $199 $141 $147 $183 forward $173 $-1 #
coedge $-1 $141 $199 $188 $209 reversed $173 $-1 #
loop $-1 $-1 $171 $165 #
vertex $-1 $170 $210 #
ellipse-curve $-1 0 -110 -3 0 0 -1 10 0 0 1 I I #
coedge $-1 $143 $205 $211 $212 forward $59 $-1 #
edge $-1 $213 -31.16025403784438197 $180 -22.5 $143 $214 forward 7 unknown #
coedge $-1 $196 $144 $194 $215 reversed $155 $-1 #
coedge $-1 $144 $196 $146 $182 forward $155 $-1 #
vertex $-1 $177 $216 #
straight-curve $-1 2.500000000000000444 -110 -3 -1 0 0 I I #
edge $-1 $202 0 $148 3 $146 $217 forward 7 unknown #
edge $-1 $149 -1.5 $201 1.5 $171 $218 forward 7 unknown #
point $-1 -5 -110 -3 #
point $-1 -5 -118.660254037844382 -3 #
loop $-1 $-1 $219 $151 #
plane-surface $-1 5.000000000000000888 -55 -1.5 -1 0 0 0 0 -1 forward_v I I I I #
coedge $-1 $220 $169 $172 $209 forward $152 $-1 #
coedge $-1 $221 $154 $222 $223 reversed $122 $-1 #
coedge $-1 $154 $221 $168 $206 reversed $122 $-1 #
coedge $-1 $169 $220 $154 $192 forward $152 $-1 #
edge $-1 $224 -1.5 $207 1.5 $191 $225 forward 7 unknown #
coedge $-1 $226 $157 $204 $227 reversed $125 $-1 #
coedge $-1 $157 $226 $178 $215 forward $125 $-1 #
coedge $-1 $228 $161 $226 $229 forward $109 $-1 #
coedge $-1 $179 $178 $161 $197 reversed $155 $-1 #
edge $-1 $202 -7.5 $230 2.499999999999999556 $161 $231 forward 7 unknown #
coedge $-1 $162 $222 $220 $232 forward $109 $-1 #
coedge $-1 $172 $171 $162 $200 reversed $173 $-1 #
edge $-1 $233 2.094395102393194819 $201 4.188790204786390525 $162 $234 forward 7 unknown #
vertex $-1 $183 $235 #
vertex $-1 $164 $236 #
straight-curve $-1 -5 -82.5 0 0 1 0 I I #
coedge $-1 $211 $237 $193 $227 forward $166 $-1 #
coedge $-1 $176 $168 $238 $239 forward $59 $-1 #
edge $-1 $207 2.879793265790643542 $240 8.11578102177363192 $168 $241 forward 7 unknown #
vertex $-1 $206 $242 #
straight-curve $-1 -4.999999999999999112 -55 -3 0 1 0 I I #
edge $-1 $174 -1.5 $233 1.5 $188 $243 forward 7 unknown #
point $-1 -4.999999999999999112 -101.3397459621556038 -3 #
coedge $-1 $244 $204 $176 $212 reversed $166 $-1 #
edge $-1 $245 -1.047197551196597409 $213 1.047197551196597409 $176 $175 forward 7 unknown #
vertex $-1 $227 $246 #
straight-curve $-1 5 -87.5 -3 0 1 0 I I #
edge $-1 $230 0 $180 3 $178 $247 forward 7 unknown #
point $-1 5 -110 -3 #
straight-curve $-1 -5 -110 0 0 0 -1 I I #
straight-curve $-1 -5 -118.660254037844382 -1.5 0 0 1 I I #
coedge $-1 $238 $248 $244 $249 forward $186 $-1 #
coedge $-1 $191 $188 $198 $232 reversed $152 $-1 #
coedge $-1 $190 $189 $250 $251 reversed $122 $-1 #
coedge $-1 $198 $252 $189 $223 forward $109 $-1 #
edge $-1 $253 -1.83259571459404591 $224 3.40339204138894269 $222 $254 forward 7 unknown #
vertex $-1 $232 $255 #
straight-curve $-1 -4.999999999999999112 -8.660254037844389075 -1.5 0 0 -1 I I #
coedge $-1 $194 $193 $195 $229 reversed $125 $-1 #
edge $-1 $256 -1.5 $213 1.5 $204 $257 forward 7 unknown #
coedge $-1 $252 $195 $237 $258 forward $109 $-1 #
edge $-1 $230 22.5 $256 31.16025403784438197 $195 $259 forward 7 unknown #
vertex $-1 $229 $260 #
straight-curve $-1 2.500000000000000444 -110 0 1 0 0 I I #
edge $-1 $224 -46.33974596215561093 $233 46.33974596215560382 $220 $261 forward 7 unknown #
vertex $-1 $200 $262 #
ellipse-curve $-1 0 -110 0 0 0 1 10 0 0 1 I I #
point $-1 -5 -118.660254037844382 0 #
point $-1 -5 -110 0 #
coedge $-1 $204 $244 $228 $258 reversed $166 $-1 #
coedge $-1 $250 $219 $205 $239 reversed $186 $-1 #
edge $-1 $240 -46.33974596215561803 $245 46.33974596215561803 $238 $263 forward 7 unknown #
vertex $-1 $239 $264 #
ellipse-curve $-1 0 0 -3 0 0 -1 7.071067811865474617 7.071067811865474617 0 1 I I #
point $-1 -4.999999999999999112 -8.660254037844389075 -3 #
straight-curve $-1 -4.999999999999999112 -101.3397459621556038 -1.5 0 0 1 I I #
coedge $-1 $237 $211 $219 $249 reversed $166 $-1 #
vertex $-1 $212 $265 #
point $-1 5 -118.660254037844382 -3 #
straight-curve $-1 5 -110 0 0 0 -1 I I #
coedge $-1 $219 $250 $252 $266 reversed $186 $-1 #
edge $-1 $267 -1.5 $245 1.5 $219 $268 forward 7 unknown #
coedge $-1 $248 $238 $221 $251 forward $186 $-1 #
edge $-1 $240 -1.5 $253 1.5 $250 $269 forward 7 unknown #
coedge $-1 $222 $228 $248 $266 forward $109 $-1 #
vertex $-1 $223 $270 #
ellipse-curve $-1 0 0 -2.220446049250313081e-16 0 0 1 7.071067811865474617 7.071067811865474617 0 1 I I #
point $-1 -4.999999999999999112 -8.660254037844389075 0 #
vertex $-1 $258 $271 #
straight-curve $-1 5 -118.660254037844382 -1.5 0 0 -1 I I #
edge $-1 $256 -1.047197551196597409 $267 1.047197551196597409 $228 $234 forward 7 unknown #
straight-curve $-1 5 -87.5 0 0 -1 0 I I #
point $-1 5 -110 0 #
straight-curve $-1 -4.999999999999999112 -55 0 0 -1 0 I I #
point $-1 -4.999999999999999112 -101.3397459621556038 0 #
straight-curve $-1 5.000000000000000888 -55 -3 0 -1 0 I I #
point $-1 5.000000000000000888 -8.660254037844381969 -3 #
point $-1 5.000000000000000888 -101.339745962155618 -3 #
edge $-1 $267 -46.33974596215561803 $253 46.33974596215561803 $248 $272 forward 7 unknown #
vertex $-1 $266 $273 #
straight-curve $-1 5.000000000000000888 -101.339745962155618 -1.5 0 0 -1 I I #
straight-curve $-1 5.000000000000000888 -8.660254037844381969 -1.5 0 0 1 I I #
point $-1 5.000000000000000888 -8.660254037844381969 0 #
point $-1 5 -118.660254037844382 0 #
straight-curve $-1 5.000000000000000888 -55 0 0 1 0 I I #
point $-1 5.000000000000000888 -101.339745962155618 0 #
End-of-ACIS-data 