700 0 2 0           
24 FBMach with ACIS - 7.0.3 13 ACIS 7.0.3 NT 24 Mon May 13 17:09:49 2002 
1 9.9999999999999995e-007 1e-010 
body $2 -1 $-1 $3 $-1 $4 #
bdycol-kcp $-1 -1 1 3 $5 $6 $7 #
model_id-kcp-attrib $-1 -1 $-1 $-1 $0 1 1021324188 1021324188 -634781695 1 #
lump $-1 -1 $-1 $-1 $8 $0 #
transform $-1 -1 1 0 0 0 1 0 0 0 1 0 0 0 1 rotate no_reflect no_shear #
body $9 -1 $-1 $10 $-1 $11 #
body $12 -1 $-1 $13 $-1 $14 #
body $15 -1 $-1 $16 $-1 $17 #
shell $-1 -1 $-1 $-1 $-1 $18 $-1 $3 #
model_id-kcp-attrib $-1 -1 $-1 $-1 $5 1 1021324188 1021324188 -634781694 1 #
lump $-1 -1 $-1 $-1 $19 $5 #
transform $-1 -1 1 0 0 0 1 0 0 0 1 0 -81.49519052838329 -2.25 1 no_rotate no_reflect no_shear #
rgb_color-st-attrib $-1 -1 $20 $-1 $6 0.5 1 1 #
lump $-1 -1 $-1 $-1 $21 $6 #
transform $-1 -1 1 0 0 0 1 0 0 0 1 0 0 0 1 no_rotate no_reflect no_shear #
rgb_color-st-attrib $-1 -1 $22 $-1 $7 1 0 0 #
lump $-1 -1 $-1 $-1 $23 $7 #
transform $-1 -1 1 0 0 0 -3.8285889215894375e-016 1 0 -1 -3.8285889215894375e-016 0 -360.36001940119672 -2.2500000000000813 1 rotate no_reflect no_shear #
face $24 -1 $-1 $25 $26 $8 $-1 $27 reversed single #
shell $-1 -1 $-1 $-1 $-1 $28 $-1 $10 #
model_id-kcp-attrib $-1 -1 $-1 $12 $6 1 1021324188 1021324188 -629538813 1 #
shell $-1 -1 $-1 $-1 $-1 $29 $-1 $13 #
model_id-kcp-attrib $-1 -1 $-1 $15 $7 1 1021324188 1021324188 -620953596 1 #
shell $-1 -1 $-1 $-1 $-1 $30 $-1 $16 #
model_id-kcp-attrib $-1 -1 $-1 $-1 $18 1 1021324188 1021324188 -634781695 2 #
face $31 -1 $-1 $32 $33 $8 $-1 $34 reversed single #
loop $-1 -1 $-1 $-1 $35 $18 #
plane-surface $-1 -1 $-1 -7.5 -4.3300999999999998 0 -0.50000632030679104 -0.8660217547228608 0 0 0 1 forward_v I I I I #
face $36 -1 $-1 $37 $38 $19 $-1 $39 forward single #
face $-1 -1 $-1 $40 $41 $21 $-1 $42 forward single #
face $-1 -1 $-1 $43 $44 $23 $-1 $45 reversed single #
model_id-kcp-attrib $-1 -1 $-1 $-1 $25 1 1021324188 1021324188 -634781695 3 #
face $46 -1 $-1 $47 $48 $8 $-1 $49 reversed single #
loop $-1 -1 $-1 $-1 $50 $25 #
plane-surface $-1 -1 $-1 0 -8.6602999999999994 0 0.50000632030679104 -0.8660217547228608 0 0 0 -1 forward_v I I I I #
coedge $-1 -1 $-1 $51 $52 $53 $54 reversed $26 $-1 #
model_id-kcp-attrib $-1 -1 $-1 $-1 $28 1 1021324188 1021324188 -634781694 2 #
face $55 -1 $-1 $56 $57 $19 $-1 $58 reversed single #
loop $-1 -1 $-1 $-1 $59 $28 #
plane-surface $-1 -1 $-1 0 0 2.25 0 0 1 1 0 0 forward_v I I I I #
face $-1 -1 $-1 $60 $61 $21 $-1 $62 forward single #
loop $-1 -1 $-1 $-1 $63 $29 #
plane-surface $-1 -1 $-1 0 8.6602999999999994 0 -0.50000632030679093 0.8660217547228608 0 0 0 1 forward_v I I I I #
face $-1 -1 $-1 $64 $65 $23 $-1 $66 reversed single #
loop $-1 -1 $-1 $-1 $67 $30 #
plane-surface $-1 -1 $-1 0 1.11868675730594e-014 -182.36963834443011 0 -3.8285889215894375e-016 -1 0 1 -3.8285889215894375e-016 forward_v I I I I #
model_id-kcp-attrib $-1 -1 $-1 $-1 $32 1 1021324188 1021324188 -634781695 4 #
face $68 -1 $-1 $69 $70 $8 $-1 $71 reversed single #
loop $-1 -1 $-1 $-1 $72 $32 #
plane-surface $-1 -1 $-1 7.5 -4.3300999999999998 0 1 0 0 0 0 -1 forward_v I I I I #
coedge $-1 -1 $-1 $73 $74 $75 $76 reversed $33 $-1 #
coedge $-1 -1 $-1 $77 $35 $78 $79 reversed $26 $-1 #
coedge $-1 -1 $-1 $35 $77 $73 $80 forward $26 $-1 #
coedge $-1 -1 $-1 $75 $81 $35 $54 forward $82 $-1 #
edge $-1 -1 $-1 $83 -22.790303609085644 $84 -14.13001308047172 $53 $85 forward @7 unknown #
model_id-kcp-attrib $-1 -1 $-1 $-1 $37 1 1021324188 1021324188 -634781694 3 #
face $-1 -1 $-1 $86 $87 $19 $-1 $88 reversed single #
loop $-1 -1 $-1 $-1 $89 $37 #
plane-surface $-1 -1 $-1 0 0 -2.25 0 0 1 1 0 0 forward_v I I I I #
coedge $-1 -1 $-1 $90 $91 $92 $93 forward $38 $-1 #
face $-1 -1 $-1 $94 $95 $21 $-1 $96 forward single #
loop $-1 -1 $-1 $-1 $97 $40 #
plane-surface $-1 -1 $-1 -7.5 4.3301000000000007 0 -1 0 0 0 0 1 forward_v I I I I #
coedge $-1 -1 $-1 $98 $99 $100 $101 forward $41 $-1 #
face $-1 -1 $-1 $102 $103 $23 $-1 $104 forward single #
loop $-1 -1 $-1 $-1 $105 $43 #
plane-surface $-1 -1 $-1 0 -2.2500000000000258 -278.8648288728134 0 1 -3.8285889215894375e-016 1 0 0 forward_v I I I I #
coedge $-1 -1 $-1 $106 $107 $108 $109 forward $44 $-1 #
model_id-kcp-attrib $-1 -1 $-1 $-1 $47 1 1021324188 1021324188 -634781695 5 #
face $110 -1 $-1 $111 $112 $8 $-1 $113 reversed single #
loop $-1 -1 $-1 $-1 $114 $47 #
plane-surface $-1 -1 $-1 7.5 4.3301000000000007 0 0.50000632030679093 0.8660217547228608 0 0 0 -1 forward_v I I I I #
coedge $-1 -1 $-1 $115 $116 $117 $118 reversed $48 $-1 #
coedge $-1 -1 $-1 $119 $50 $52 $80 reversed $33 $-1 #
coedge $-1 -1 $-1 $50 $119 $115 $120 forward $33 $-1 #
coedge $-1 -1 $-1 $117 $53 $50 $76 forward $82 $-1 #
edge $-1 -1 $-1 $84 18.46015834477868 $121 27.120448873392604 $75 $122 forward @7 unknown #
coedge $-1 -1 $-1 $52 $51 $123 $124 reversed $26 $-1 #
coedge $-1 -1 $-1 $125 $126 $51 $79 forward $127 $-1 #
edge $-1 -1 $-1 $128 0 $83 4.5 $51 $129 forward @7 unknown #
edge $-1 -1 $-1 $130 0 $84 4.5 $73 $131 forward @7 unknown #
coedge $-1 -1 $-1 $53 $132 $125 $133 forward $82 $-1 #
loop $-1 -1 $-1 $134 $135 $136 #
vertex $-1 -1 $-1 $133 $137 #
vertex $-1 -1 $-1 $54 $138 #
straight-curve $-1 -1 $-1 12.236898722207094 -15.725395846253484 -4.5 0.8660217547228608 -0.50000632030679104 0 I I #
face $-1 -1 $-1 $139 $140 $19 $-1 $141 reversed single #
loop $-1 -1 $-1 $-1 $142 $56 #
plane-surface $-1 -1 $-1 0 -96.49519052838329 0 0 1 0 0 0 1 forward_v I I I I #
coedge $-1 -1 $-1 $143 $144 $145 $146 forward $57 $-1 #
coedge $-1 -1 $-1 $147 $59 $148 $149 forward $38 $-1 #
coedge $-1 -1 $-1 $59 $147 $150 $151 forward $38 $-1 #
coedge $-1 -1 $-1 $152 $153 $59 $93 reversed $154 $-1 #
edge $-1 -1 $-1 $155 -96.49519052838329 $156 96.49519052838329 $92 $157 forward @7 unknown #
face $-1 -1 $-1 $158 $159 $21 $-1 $160 forward single #
loop $-1 -1 $-1 $-1 $161 $60 #
plane-surface $-1 -1 $-1 -7.5 -4.3300999999999998 0 -0.50000632030679104 -0.8660217547228608 0 0 0 1 forward_v I I I I #
coedge $-1 -1 $-1 $162 $163 $164 $165 forward $61 $-1 #
coedge $-1 -1 $-1 $166 $63 $163 $167 reversed $41 $-1 #
coedge $-1 -1 $-1 $63 $166 $168 $169 forward $41 $-1 #
coedge $-1 -1 $-1 $170 $164 $63 $101 reversed $171 $-1 #
edge $-1 -1 $-1 $172 -22.790363080531577 $173 -14.130072551917657 $63 $174 forward @7 unknown #
face $-1 -1 $-1 $175 $176 $23 $-1 $177 reversed single #
loop $-1 -1 $-1 $-1 $178 $64 #
plane-surface $-1 -1 $-1 0 2.2499999999999742 -278.8648288728134 0 1 -3.8285889215894375e-016 1 0 0 forward_v I I I I #
coedge $-1 -1 $-1 $179 $180 $181 $182 forward $65 $-1 #
coedge $-1 -1 $-1 $183 $67 $180 $184 reversed $44 $-1 #
coedge $-1 -1 $-1 $67 $183 $185 $186 reversed $44 $-1 #
coedge $-1 -1 $-1 $187 $181 $67 $109 reversed $188 $-1 #
edge $-1 -1 $-1 $189 -2.2500000000000404 $190 2.2499999999999596 $108 $191 forward @7 unknown #
model_id-kcp-attrib $-1 -1 $-1 $-1 $69 1 1021324188 1021324188 -634781695 6 #
face $192 -1 $-1 $193 $127 $8 $-1 $194 reversed single #
loop $-1 -1 $-1 $-1 $195 $69 #
plane-surface $-1 -1 $-1 0 8.6602999999999994 0 -0.50000632030679093 0.8660217547228608 0 0 0 1 forward_v I I I I #
coedge $-1 -1 $-1 $196 $197 $135 $198 reversed $70 $-1 #
coedge $-1 -1 $-1 $199 $72 $74 $120 reversed $48 $-1 #
coedge $-1 -1 $-1 $72 $199 $196 $200 forward $48 $-1 #
coedge $-1 -1 $-1 $135 $75 $72 $118 forward $82 $-1 #
edge $-1 -1 $-1 $121 39.084949999999999 $201 47.745150000000002 $117 $202 forward @7 unknown #
coedge $-1 -1 $-1 $74 $73 $203 $204 reversed $33 $-1 #
edge $-1 -1 $-1 $205 0 $121 4.5 $115 $206 forward @7 unknown #
vertex $-1 -1 $-1 $76 $207 #
straight-curve $-1 -1 $-1 -15.986898722207091 -17.89049584625349 -4.5 0.8660217547228608 0.50000632030679104 0 I I #
coedge $-1 -1 $-1 $208 $203 $77 $124 forward $209 $-1 #
edge $210 -1 $-1 $130 14.13001308047172 $128 22.790303609085644 $123 $211 forward @7 unknown #
coedge $-1 -1 $-1 $212 $78 $81 $133 reversed $127 $-1 #
coedge $-1 -1 $-1 $78 $212 $208 $213 reversed $127 $-1 #
loop $-1 -1 $-1 $-1 $125 $111 #
vertex $-1 -1 $-1 $213 $214 #
straight-curve $-1 -1 $-1 -7.5 -4.3300999999999998 0 0 0 -1 I I #
vertex $-1 -1 $-1 $124 $215 #
straight-curve $-1 -1 $-1 0 -8.6602999999999994 0 0 0 -1 I I #
coedge $-1 -1 $-1 $81 $135 $195 $216 forward $82 $-1 #
edge $-1 -1 $-1 $217 -43.415050000000001 $83 -34.754849999999998 $81 $218 forward @7 unknown #
loop $-1 -1 $-1 $-1 $219 $136 #
coedge $-1 -1 $-1 $132 $117 $114 $198 forward $82 $-1 #
face $220 -1 $-1 $221 $82 $8 $-1 $222 reversed single #
point $-1 -1 $-1 -7.5 -4.3300999999999998 -4.5 #
point $-1 -1 $-1 0 -8.6602999999999994 -4.5 #
face $-1 -1 $-1 $223 $224 $19 $-1 $225 reversed single #
loop $-1 -1 $-1 $-1 $226 $86 #
plane-surface $-1 -1 $-1 -15 0 0 1 0 0 0 0 -1 forward_v I I I I #
coedge $-1 -1 $-1 $227 $150 $228 $229 forward $87 $-1 #
coedge $-1 -1 $-1 $230 $89 $227 $231 forward $57 $-1 #
coedge $-1 -1 $-1 $89 $230 $232 $233 forward $57 $-1 #
coedge $-1 -1 $-1 $153 $152 $89 $146 reversed $154 $-1 #
edge $-1 -1 $-1 $234 -96.49519052838329 $235 96.49519052838329 $145 $236 forward @7 unknown #
coedge $-1 -1 $-1 $91 $90 $237 $238 forward $38 $-1 #
coedge $-1 -1 $-1 $239 $240 $90 $149 reversed $224 $-1 #
edge $-1 -1 $-1 $156 -15 $241 15 $148 $242 forward @7 unknown #
coedge $-1 -1 $-1 $142 $243 $91 $151 reversed $87 $-1 #
edge $-1 -1 $-1 $244 -15 $155 15 $150 $245 forward @7 unknown #
coedge $-1 -1 $-1 $145 $92 $243 $246 forward $154 $-1 #
coedge $-1 -1 $-1 $92 $145 $239 $247 reversed $154 $-1 #
loop $-1 -1 $-1 $-1 $152 $223 #
vertex $-1 -1 $-1 $93 $248 #
vertex $-1 -1 $-1 $93 $249 #
straight-curve $-1 -1 $-1 15 0 2.25 0 1 0 I I #
face $-1 -1 $-1 $250 $251 $21 $-1 $252 forward single #
loop $-1 -1 $-1 $-1 $253 $94 #
plane-surface $-1 -1 $-1 0 -8.6602999999999994 0 0.50000632030679104 -0.8660217547228608 0 0 0 -1 forward_v I I I I #
coedge $-1 -1 $-1 $254 $255 $256 $257 forward $95 $-1 #
coedge $-1 -1 $-1 $258 $97 $255 $259 reversed $61 $-1 #
coedge $-1 -1 $-1 $97 $258 $98 $167 forward $61 $-1 #
coedge $-1 -1 $-1 $100 $256 $97 $165 reversed $171 $-1 #
edge $-1 -1 $-1 $173 -43.415050000000001 $260 -34.754849999999998 $97 $261 forward @7 unknown #
coedge $-1 -1 $-1 $99 $98 $262 $263 forward $41 $-1 #
edge $-1 -1 $-1 $264 0 $173 4.5 $163 $265 forward @7 unknown #
coedge $-1 -1 $-1 $266 $267 $99 $169 reversed $268 $-1 #
edge $-1 -1 $-1 $269 0 $172 4.5 $99 $270 forward @7 unknown #
coedge $-1 -1 $-1 $271 $100 $267 $272 reversed $171 $-1 #
loop $-1 -1 $-1 $-1 $100 $273 #
vertex $-1 -1 $-1 $169 $274 #
vertex $-1 -1 $-1 $167 $275 #
straight-curve $-1 -1 $-1 -19.736950225773061 -2.7350255823523284 -4.5 -0.8660217547228608 -0.50000632030679093 0 I I #
face $-1 -1 $-1 $276 $277 $23 $-1 $278 reversed single #
loop $-1 -1 $-1 $-1 $279 $102 #
plane-surface $-1 -1 $-1 0 0 -195.36001940119672 0 0 1 1 0 0 forward_v I I I I #
coedge $-1 -1 $-1 $185 $280 $187 $281 forward $103 $-1 #
coedge $-1 -1 $-1 $282 $105 $283 $284 forward $65 $-1 #
coedge $-1 -1 $-1 $105 $282 $106 $184 forward $65 $-1 #
coedge $-1 -1 $-1 $108 $285 $105 $182 reversed $188 $-1 #
edge $-1 -1 $-1 $190 42.937223908023412 $286 55.927604964789992 $181 $287 forward @7 unknown #
coedge $-1 -1 $-1 $107 $106 $288 $289 forward $44 $-1 #
edge $-1 -1 $-1 $290 -7.5 $190 7.5 $106 $291 forward @7 unknown #
coedge $-1 -1 $-1 $292 $178 $107 $186 forward $103 $-1 #
edge $-1 -1 $-1 $189 -7.5 $293 7.5 $107 $294 forward @7 unknown #
coedge $-1 -1 $-1 $285 $108 $178 $281 reversed $188 $-1 #
loop $-1 -1 $-1 $-1 $187 $276 #
vertex $-1 -1 $-1 $109 $295 #
vertex $-1 -1 $-1 $109 $296 #
straight-curve $-1 -1 $-1 -7.5 -2.9317485063458174e-014 -182.36963834443011 0 -1 3.8285889215894375e-016 I I #
model_id-kcp-attrib $-1 -1 $-1 $-1 $111 1 1021324188 1021324188 -634781695 7 #
face $297 -1 $-1 $298 $299 $8 $-1 $300 reversed single #
plane-surface $-1 -1 $-1 -7.5 4.3301000000000007 0 -1 0 0 0 0 1 forward_v I I I I #
coedge $-1 -1 $-1 $301 $302 $132 $216 reversed $112 $-1 #
coedge $-1 -1 $-1 $303 $114 $116 $200 reversed $70 $-1 #
coedge $-1 -1 $-1 $114 $303 $301 $304 forward $70 $-1 #
edge $-1 -1 $-1 $201 18.46021781622462 $305 27.120508344838541 $135 $306 forward @7 unknown #
coedge $-1 -1 $-1 $116 $115 $307 $308 reversed $48 $-1 #
edge $-1 -1 $-1 $309 0 $201 4.5 $196 $310 forward @7 unknown #
vertex $-1 -1 $-1 $198 $311 #
straight-curve $-1 -1 $-1 7.5 -43.415050000000001 -4.5 0 1 0 I I #
coedge $-1 -1 $-1 $123 $307 $119 $204 forward $209 $-1 #
edge $312 -1 $-1 $205 -27.120448873392604 $130 -18.46015834477868 $203 $313 forward @7 unknown #
vertex $-1 -1 $-1 $204 $314 #
straight-curve $-1 -1 $-1 7.5 -4.3300999999999998 0 0 0 -1 I I #
point $-1 -1 $-1 7.5 -4.3300999999999998 -4.5 #
coedge $-1 -1 $-1 $315 $123 $126 $213 forward $209 $-1 #
loop $-1 -1 $-1 $316 $317 $318 #
attrib_edge_convexity-kcp-attrib $-1 -1 $319 $-1 $124 1 #
straight-curve $-1 -1 $-1 12.236898722207094 -15.725395846253484 0 -0.8660217547228608 0.50000632030679104 0 I I #
coedge $-1 -1 $-1 $126 $125 $302 $320 reversed $127 $-1 #
edge $321 -1 $-1 $128 34.754849999999998 $322 43.415050000000001 $208 $323 forward @7 unknown #
point $-1 -1 $-1 -7.5 -4.3300999999999998 0 #
point $-1 -1 $-1 0 -8.6602999999999994 0 #
edge $-1 -1 $-1 $305 -22.790363080531577 $217 -14.130072551917657 $132 $324 forward @7 unknown #
vertex $-1 -1 $-1 $216 $325 #
straight-curve $-1 -1 $-1 -7.5 -39.084949999999999 -4.5 0 -1 0 I I #
coedge $-1 -1 $-1 $326 $327 $328 $329 forward $134 $-1 #
model_id-kcp-attrib $-1 -1 $-1 $-1 $136 1 1021324188 1021324188 -634781695 14 #
face $330 -1 $-1 $331 $332 $8 $-1 $333 forward single #
plane-surface $-1 -1 $-1 1.3322676295501878e-015 -82.5 -4.5 0 0 1 0 -1.5 0 forward_v I I I I #
face $-1 -1 $-1 $-1 $154 $19 $-1 $334 reversed single #
loop $-1 -1 $-1 $-1 $239 $139 #
plane-surface $-1 -1 $-1 0 96.49519052838329 0 0 -1 0 0 0 -1 forward_v I I I I #
coedge $-1 -1 $-1 $335 $237 $240 $336 forward $140 $-1 #
coedge $-1 -1 $-1 $243 $142 $143 $231 reversed $87 $-1 #
coedge $-1 -1 $-1 $237 $335 $142 $229 reversed $140 $-1 #
edge $-1 -1 $-1 $244 -2.25 $337 2.25 $228 $338 forward @7 unknown #
coedge $-1 -1 $-1 $144 $143 $335 $339 forward $57 $-1 #
edge $-1 -1 $-1 $235 -15 $337 15 $227 $340 forward @7 unknown #
coedge $-1 -1 $-1 $240 $239 $144 $233 reversed $224 $-1 #
edge $-1 -1 $-1 $341 -15 $234 15 $232 $342 forward @7 unknown #
vertex $-1 -1 $-1 $146 $343 #
vertex $-1 -1 $-1 $246 $344 #
straight-curve $-1 -1 $-1 15 0 -2.25 0 -1 0 I I #
coedge $-1 -1 $-1 $226 $228 $147 $238 reversed $140 $-1 #
edge $-1 -1 $-1 $241 -96.49519052838329 $244 96.49519052838329 $237 $345 forward @7 unknown #
coedge $-1 -1 $-1 $232 $148 $153 $247 forward $224 $-1 #
coedge $-1 -1 $-1 $148 $232 $226 $336 reversed $224 $-1 #
vertex $-1 -1 $-1 $149 $346 #
straight-curve $-1 -1 $-1 0 96.49519052838329 2.25 -1 0 0 I I #
coedge $-1 -1 $-1 $150 $227 $152 $246 reversed $87 $-1 #
vertex $-1 -1 $-1 $238 $347 #
straight-curve $-1 -1 $-1 0 -96.49519052838329 2.25 1 0 0 I I #
edge $-1 -1 $-1 $155 -2.25 $235 2.25 $152 $348 forward @7 unknown #
edge $-1 -1 $-1 $156 -2.25 $234 2.25 $153 $349 forward @7 unknown #
point $-1 -1 $-1 15 -96.49519052838329 2.25 #
point $-1 -1 $-1 15 96.49519052838329 2.25 #
face $-1 -1 $-1 $273 $268 $21 $-1 $350 forward single #
loop $-1 -1 $-1 $-1 $351 $158 #
plane-surface $-1 -1 $-1 7.5 -4.3300999999999998 0 1 0 0 0 0 -1 forward_v I I I I #
coedge $-1 -1 $-1 $352 $353 $354 $355 forward $159 $-1 #
coedge $-1 -1 $-1 $356 $161 $353 $357 reversed $95 $-1 #
coedge $-1 -1 $-1 $161 $356 $162 $259 forward $95 $-1 #
coedge $-1 -1 $-1 $164 $354 $161 $257 reversed $171 $-1 #
edge $-1 -1 $-1 $260 -22.790303609085644 $358 -14.13001308047172 $161 $359 forward @7 unknown #
coedge $-1 -1 $-1 $163 $162 $360 $361 forward $61 $-1 #
edge $-1 -1 $-1 $362 0 $260 4.5 $255 $363 forward @7 unknown #
vertex $-1 -1 $-1 $259 $364 #
straight-curve $-1 -1 $-1 -7.5 -39.084949999999999 -4.5 0 -1 0 I I #
coedge $-1 -1 $-1 $360 $365 $166 $263 reversed $366 $-1 #
edge $-1 -1 $-1 $264 14.130072551917657 $269 22.790363080531577 $166 $367 forward @7 unknown #
vertex $-1 -1 $-1 $361 $368 #
straight-curve $-1 -1 $-1 -7.5 4.3301000000000007 0 0 0 -1 I I #
coedge $-1 -1 $-1 $369 $168 $365 $370 forward $268 $-1 #
coedge $-1 -1 $-1 $168 $369 $170 $272 forward $268 $-1 #
loop $-1 -1 $-1 $-1 $267 $250 #
vertex $-1 -1 $-1 $370 $371 #
straight-curve $-1 -1 $-1 0 8.6602999999999994 0 0 0 -1 I I #
coedge $-1 -1 $-1 $354 $170 $351 $372 reversed $171 $-1 #
edge $-1 -1 $-1 $373 18.46021781622462 $172 27.120508344838541 $267 $374 forward @7 unknown #
face $-1 -1 $-1 $375 $171 $21 $-1 $376 reversed single #
point $-1 -1 $-1 0 8.6602999999999994 -4.5 #
point $-1 -1 $-1 -7.5 4.3301000000000007 -4.5 #
face $-1 -1 $-1 $-1 $188 $23 $-1 $377 reversed single #
loop $-1 -1 $-1 $-1 $378 $175 #
plane-surface $-1 -1 $-1 7.5 0 0 -1 0 0 0 0 1 forward_v I I I I #
coedge $-1 -1 $-1 $379 $380 $280 $381 reversed $176 $-1 #
coedge $-1 -1 $-1 $178 $292 $279 $381 forward $103 $-1 #
edge $-1 -1 $-1 $382 -55.927604964789992 $189 -42.937223908023412 $187 $383 forward @7 unknown #
coedge $-1 -1 $-1 $180 $179 $384 $385 forward $65 $-1 #
coedge $-1 -1 $-1 $380 $379 $179 $284 reversed $176 $-1 #
edge $386 -1 $-1 $286 -7.5 $387 7.5 $283 $388 forward @7 unknown #
coedge $-1 -1 $-1 $181 $187 $380 $389 reversed $188 $-1 #
vertex $-1 -1 $-1 $389 $390 #
straight-curve $-1 -1 $-1 -7.5 -2.2499999999999725 -139.4324144364067 0 -3.8285889215894375e-016 -1 I I #
coedge $-1 -1 $-1 $384 $378 $183 $289 reversed $277 $-1 #
edge $-1 -1 $-1 $290 -2.2499999999999596 $293 2.2500000000000404 $288 $391 forward @7 unknown #
vertex $-1 -1 $-1 $289 $392 #
straight-curve $-1 -1 $-1 0 -2.2499999999999889 -182.36963834443011 -1 0 0 I I #
coedge $-1 -1 $-1 $280 $185 $378 $393 forward $103 $-1 #
vertex $-1 -1 $-1 $289 $394 #
straight-curve $-1 -1 $-1 0 2.2500000000000111 -182.36963834443011 1 0 0 I I #
point $-1 -1 $-1 -7.5 2.2500000000000111 -182.36963834443011 #
point $-1 -1 $-1 -7.5 -2.2499999999999889 -182.36963834443011 #
model_id-kcp-attrib $-1 -1 $-1 $-1 $193 1 1021324188 1021324188 -634781695 8 #
face $395 -1 $-1 $396 $397 $8 $-1 $398 reversed single #
loop $-1 -1 $-1 $-1 $328 $193 #
plane-surface $-1 -1 $-1 -7.5 -165 0 -1 0 0 0 0 1.5 forward_v I I I I #
coedge $-1 -1 $-1 $399 $195 $197 $304 reversed $112 $-1 #
coedge $-1 -1 $-1 $195 $399 $212 $320 forward $112 $-1 #
coedge $-1 -1 $-1 $197 $196 $317 $400 reversed $70 $-1 #
edge $-1 -1 $-1 $401 0 $305 4.5 $301 $402 forward @7 unknown #
vertex $-1 -1 $-1 $198 $403 #
straight-curve $-1 -1 $-1 23.486950225773061 -4.9001255823523309 -4.5 -0.8660217547228608 0.50000632030679093 0 I I #
coedge $-1 -1 $-1 $203 $317 $199 $308 forward $209 $-1 #
edge $404 -1 $-1 $309 -47.745150000000002 $205 -39.084949999999999 $307 $405 forward @7 unknown #
vertex $-1 -1 $-1 $400 $406 #
straight-curve $-1 -1 $-1 7.5 4.3301000000000007 0 0 0 -1 I I #
point $-1 -1 $-1 7.5 4.3301000000000007 -4.5 #
attrib_edge_convexity-kcp-attrib $-1 -1 $407 $-1 $204 1 #
straight-curve $-1 -1 $-1 -15.986898722207091 -17.89049584625349 0 -0.8660217547228608 -0.50000632030679104 0 I I #
point $-1 -1 $-1 7.5 -4.3300999999999998 0 #
coedge $-1 -1 $-1 $317 $208 $399 $408 forward $209 $-1 #
loop $-1 -1 $-1 $-1 $409 $318 #
coedge $-1 -1 $-1 $307 $315 $303 $400 forward $209 $-1 #
face $410 -1 $-1 $411 $209 $8 $-1 $412 forward single #
convexity-sys-attrib $-1 -1 $-1 $210 $124 #
edge $-1 -1 $-1 $322 0 $217 4.5 $212 $413 forward @7 unknown #
attrib_edge_convexity-kcp-attrib $-1 -1 $414 $-1 $213 1 #
vertex $-1 -1 $-1 $408 $415 #
straight-curve $-1 -1 $-1 -7.5 -39.084949999999999 0 0 1 0 I I #
straight-curve $-1 -1 $-1 -19.736950225773061 -2.7350255823523284 -4.5 -0.8660217547228608 -0.50000632030679093 0 I I #
point $-1 -1 $-1 -7.5 4.3301000000000007 -4.5 #
coedge $-1 -1 $-1 $416 $219 $417 $418 forward $134 $-1 #
coedge $-1 -1 $-1 $219 $419 $420 $421 forward $134 $-1 #
coedge $-1 -1 $-1 $422 $423 $219 $329 reversed $299 $-1 #
edge $-1 -1 $-1 $424 27.5 $425 36.160254037844389 $219 $426 forward @7 unknown #
model_id-kcp-attrib $-1 -1 $-1 $-1 $221 1 1021324188 1021324188 -634781695 15 #
face $427 -1 $-1 $428 $429 $8 $-1 $430 reversed single #
loop $-1 -1 $-1 $-1 $431 $221 #
cone-surface $-1 -1 $-1 0 0 -2.25 0 0 1 10.606601717798211 10.606601717798211 0 1 I I 0 1 14.999999999999998 forward I I I I #
plane-surface $-1 -1 $-1 15 0 0 -1 0 0 0 0 1 forward_v I I I I #
coedge $-1 -1 $-1 $228 $226 $230 $339 reversed $140 $-1 #
edge $-1 -1 $-1 $241 -2.25 $341 2.25 $240 $432 forward @7 unknown #
vertex $-1 -1 $-1 $339 $433 #
straight-curve $-1 -1 $-1 -15 -96.49519052838329 0 0 0 -1 I I #
edge $-1 -1 $-1 $337 -96.49519052838329 $341 96.49519052838329 $335 $434 forward @7 unknown #
straight-curve $-1 -1 $-1 0 -96.49519052838329 -2.25 -1 0 0 I I #
vertex $-1 -1 $-1 $233 $435 #
straight-curve $-1 -1 $-1 0 96.49519052838329 -2.25 1 0 0 I I #
point $-1 -1 $-1 15 96.49519052838329 -2.25 #
point $-1 -1 $-1 15 -96.49519052838329 -2.25 #
straight-curve $-1 -1 $-1 -15 0 2.25 0 -1 0 I I #
point $-1 -1 $-1 -15 96.49519052838329 2.25 #
point $-1 -1 $-1 -15 -96.49519052838329 2.25 #
straight-curve $-1 -1 $-1 15 -96.49519052838329 0 0 0 -1 I I #
straight-curve $-1 -1 $-1 15 96.49519052838329 0 0 0 -1 I I #
plane-surface $-1 -1 $-1 7.5 4.3301000000000007 0 0.50000632030679093 0.8660217547228608 0 0 0 -1 forward_v I I I I #
coedge $-1 -1 $-1 $436 $437 $271 $372 forward $251 $-1 #
coedge $-1 -1 $-1 $438 $253 $437 $439 reversed $159 $-1 #
coedge $-1 -1 $-1 $253 $438 $254 $357 forward $159 $-1 #
coedge $-1 -1 $-1 $256 $271 $253 $355 reversed $171 $-1 #
edge $-1 -1 $-1 $358 18.46015834477868 $440 27.120448873392604 $253 $441 forward @7 unknown #
coedge $-1 -1 $-1 $255 $254 $442 $443 forward $95 $-1 #
edge $-1 -1 $-1 $444 0 $358 4.5 $353 $445 forward @7 unknown #
vertex $-1 -1 $-1 $357 $446 #
straight-curve $-1 -1 $-1 12.236898722207094 -15.725395846253484 -4.5 0.8660217547228608 -0.50000632030679104 0 I I #
coedge $-1 -1 $-1 $442 $262 $258 $361 reversed $366 $-1 #
edge $-1 -1 $-1 $362 34.754849999999998 $264 43.415050000000001 $258 $447 forward @7 unknown #
vertex $-1 -1 $-1 $443 $448 #
straight-curve $-1 -1 $-1 -7.5 -4.3300999999999998 0 0 0 -1 I I #
point $-1 -1 $-1 -7.5 -4.3300999999999998 -4.5 #
coedge $-1 -1 $-1 $262 $449 $266 $370 reversed $366 $-1 #
loop $-1 -1 $-1 $-1 $365 $375 #
straight-curve $-1 -1 $-1 -19.736950225773061 -2.7350255823523284 0 0.8660217547228608 0.50000632030679093 0 I I #
point $-1 -1 $-1 -7.5 4.3301000000000007 0 #
coedge $-1 -1 $-1 $267 $266 $436 $450 forward $268 $-1 #
edge $-1 -1 $-1 $269 -27.120508344838541 $451 -18.46021781622462 $266 $452 forward @7 unknown #
point $-1 -1 $-1 0 8.6602999999999994 0 #
edge $-1 -1 $-1 $440 39.084949999999999 $373 47.745150000000002 $351 $453 forward @7 unknown #
vertex $-1 -1 $-1 $450 $454 #
straight-curve $-1 -1 $-1 23.486950225773061 -4.9001255823523309 -4.5 -0.8660217547228608 0.50000632030679093 0 I I #
face $-1 -1 $-1 $-1 $366 $21 $-1 $455 forward single #
plane-surface $-1 -1 $-1 1.1102230246251565e-016 2.886579864025407e-015 -4.5 0 0 1 1 0 0 forward_v I I I I #
plane-surface $-1 -1 $-1 -7.5 0 0 1 0 0 0 0 -1 forward_v I I I I #
coedge $-1 -1 $-1 $288 $456 $292 $393 reversed $277 $-1 #
coedge $-1 -1 $-1 $283 $279 $456 $457 forward $176 $-1 #
coedge $-1 -1 $-1 $279 $283 $285 $389 forward $176 $-1 #
edge $458 -1 $-1 $459 -7.5 $382 7.5 $279 $460 forward @7 unknown #
vertex $-1 -1 $-1 $381 $461 #
straight-curve $-1 -1 $-1 -7.5 2.2500000000000275 -139.4324144364067 0 3.8285889215894375e-016 1 I I #
coedge $-1 -1 $-1 $456 $288 $282 $385 reversed $277 $-1 #
edge $-1 -1 $-1 $387 -55.927604964789992 $290 -42.937223908023412 $384 $462 forward @7 unknown #
convexity-sys-attrib $-1 -1 $-1 $-1 $284 #
vertex $-1 -1 $-1 $385 $463 #
straight-curve $-1 -1 $-1 0 -2.2499999999999938 -195.36001940119672 1 0 0 I I #
edge $464 -1 $-1 $286 -2.2499999999999938 $382 2.2500000000000062 $285 $465 forward @7 unknown #
point $-1 -1 $-1 -7.5 -2.2499999999999938 -195.36001940119669 #
straight-curve $-1 -1 $-1 7.5 -2.9317485063458174e-014 -182.36963834443011 0 1 -3.8285889215894375e-016 I I #
point $-1 -1 $-1 7.5 -2.2499999999999889 -182.36963834443011 #
edge $-1 -1 $-1 $293 42.937223908023412 $459 55.927604964789992 $378 $466 forward @7 unknown #
point $-1 -1 $-1 7.5 2.2500000000000111 -182.36963834443011 #
model_id-kcp-attrib $-1 -1 $-1 $-1 $298 1 1021324188 1021324188 -634781695 9 #
face $467 -1 $-1 $318 $468 $8 $-1 $469 reversed single #
loop $-1 -1 $-1 $-1 $470 $298 #
plane-surface $-1 -1 $-1 7.5 -180 0 1 0 0 0 0 -1.5 forward_v I I I I #
coedge $-1 -1 $-1 $302 $301 $315 $408 reversed $112 $-1 #
edge $471 -1 $-1 $401 -27.120508344838541 $309 -18.46021781622462 $317 $472 forward @7 unknown #
vertex $-1 -1 $-1 $400 $473 #
straight-curve $-1 -1 $-1 0 8.6602999999999994 0 0 0 -1 I I #
point $-1 -1 $-1 0 8.6602999999999994 -4.5 #
attrib_edge_convexity-kcp-attrib $-1 -1 $474 $-1 $308 1 #
straight-curve $-1 -1 $-1 7.5 -43.415050000000001 0 0 -1 0 I I #
point $-1 -1 $-1 7.5 4.3301000000000007 0 #
convexity-sys-attrib $-1 -1 $-1 $312 $204 #
edge $475 -1 $-1 $322 14.130072551917657 $401 22.790363080531577 $315 $476 forward @7 unknown #
coedge $-1 -1 $-1 $477 $478 $479 $480 forward $316 $-1 #
model_id-kcp-attrib $-1 -1 $-1 $-1 $318 1 1021324188 1021324188 -634781695 11 #
face $481 -1 $-1 $482 $483 $8 $-1 $484 forward single #
plane-surface $-1 -1 $-1 1.3322676295501878e-015 -82.5 0 0 0 1 0 -1.5 0 forward_v I I I I #
straight-curve $-1 -1 $-1 -7.5 4.3301000000000007 0 0 0 -1 I I #
convexity-sys-attrib $-1 -1 $-1 $321 $213 #
point $-1 -1 $-1 -7.5 4.3301000000000007 0 #
coedge $-1 -1 $-1 $485 $326 $486 $487 forward $134 $-1 #
coedge $-1 -1 $-1 $488 $489 $326 $418 reversed $490 $-1 #
edge $-1 -1 $-1 $425 2.0943951023931957 $491 4.1887902047863905 $326 $492 forward @7 unknown #
coedge $-1 -1 $-1 $327 $493 $470 $494 forward $134 $-1 #
coedge $-1 -1 $-1 $495 $496 $327 $421 reversed $468 $-1 #
edge $497 -1 $-1 $498 -2.4999999999999996 $424 7.5 $327 $499 forward @7 unknown #
coedge $-1 -1 $-1 $479 $328 $496 $500 reversed $299 $-1 #
coedge $-1 -1 $-1 $328 $479 $488 $501 reversed $299 $-1 #
vertex $-1 -1 $-1 $329 $502 #
vertex $-1 -1 $-1 $418 $503 #
straight-curve $-1 -1 $-1 -7.5 -123.75 -4.5 0 -1.5 0 I I #
model_id-kcp-attrib $-1 -1 $-1 $-1 $331 1 1021324188 1021324188 -634781695 16 #
face $504 -1 $-1 $-1 $505 $8 $-1 $506 reversed single #
loop $-1 -1 $-1 $-1 $507 $331 #
plane-surface $-1 -1 $-1 -7.4999999999999982 -82.5 -2.25 1 0 0 0 0 1.5 forward_v I I I I #
coedge $-1 -1 $-1 $508 $509 $510 $511 reversed $332 $-1 #
straight-curve $-1 -1 $-1 -15 96.49519052838329 0 0 0 -1 I I #
point $-1 -1 $-1 -15 -96.49519052838329 -2.25 #
straight-curve $-1 -1 $-1 -15 0 -2.25 0 1 0 I I #
point $-1 -1 $-1 -15 96.49519052838329 -2.25 #
coedge $-1 -1 $-1 $512 $351 $369 $450 reversed $251 $-1 #
coedge $-1 -1 $-1 $351 $512 $352 $439 forward $251 $-1 #
coedge $-1 -1 $-1 $353 $352 $513 $514 forward $159 $-1 #
edge $-1 -1 $-1 $515 0 $440 4.5 $437 $516 forward @7 unknown #
vertex $-1 -1 $-1 $439 $517 #
straight-curve $-1 -1 $-1 -15.986898722207091 -17.89049584625349 -4.5 0.8660217547228608 0.50000632030679104 0 I I #
coedge $-1 -1 $-1 $513 $360 $356 $443 reversed $366 $-1 #
edge $-1 -1 $-1 $444 14.13001308047172 $362 22.790303609085644 $356 $518 forward @7 unknown #
vertex $-1 -1 $-1 $514 $519 #
straight-curve $-1 -1 $-1 0 -8.6602999999999994 0 0 0 -1 I I #
point $-1 -1 $-1 0 -8.6602999999999994 -4.5 #
straight-curve $-1 -1 $-1 -7.5 -39.084949999999999 0 0 1 0 I I #
point $-1 -1 $-1 -7.5 -4.3300999999999998 0 #
coedge $-1 -1 $-1 $365 $513 $512 $520 reversed $366 $-1 #
edge $-1 -1 $-1 $451 0 $373 4.5 $369 $521 forward @7 unknown #
vertex $-1 -1 $-1 $370 $522 #
straight-curve $-1 -1 $-1 23.486950225773061 -4.9001255823523309 0 0.8660217547228608 -0.50000632030679093 0 I I #
straight-curve $-1 -1 $-1 7.5 -43.415050000000001 -4.5 0 1 0 I I #
point $-1 -1 $-1 7.5 4.3301000000000007 -4.5 #
plane-surface $-1 -1 $-1 1.1102230246251565e-016 2.886579864025407e-015 0 0 0 1 1 0 0 forward_v I I I I #
coedge $-1 -1 $-1 $378 $384 $379 $457 reversed $277 $-1 #
edge $523 -1 $-1 $459 -2.2500000000000062 $387 2.2499999999999938 $456 $524 forward @7 unknown #
convexity-sys-attrib $-1 -1 $-1 $-1 $381 #
vertex $-1 -1 $-1 $457 $525 #
straight-curve $-1 -1 $-1 0 2.2500000000000062 -195.36001940119672 -1 0 0 I I #
point $-1 -1 $-1 -7.5 2.2500000000000062 -195.36001940119669 #
straight-curve $-1 -1 $-1 7.5 -2.2499999999999725 -139.4324144364067 0 3.8285889215894375e-016 1 I I #
point $-1 -1 $-1 7.5 -2.2499999999999938 -195.36001940119669 #
convexity-sys-attrib $-1 -1 $-1 $-1 $389 #
straight-curve $-1 -1 $-1 -7.5 0 -195.36001940119672 0 1 0 I I #
straight-curve $-1 -1 $-1 7.5 2.2500000000000275 -139.4324144364067 0 -3.8285889215894375e-016 -1 I I #
model_id-kcp-attrib $-1 -1 $-1 $-1 $396 1 1021324188 1021324188 -634781695 10 #
loop $-1 -1 $-1 $-1 $420 $396 #
plane-surface $-1 -1 $-1 7.5 -165 0 0 1 0 0 0 1.5 forward_v I I I I #
coedge $-1 -1 $-1 $526 $527 $419 $494 reversed $397 $-1 #
attrib_edge_convexity-kcp-attrib $-1 -1 $528 $-1 $400 1 #
straight-curve $-1 -1 $-1 23.486950225773061 -4.9001255823523309 0 0.8660217547228608 -0.50000632030679093 0 I I #
point $-1 -1 $-1 0 8.6602999999999994 0 #
convexity-sys-attrib $-1 -1 $-1 $404 $308 #
attrib_edge_convexity-kcp-attrib $-1 -1 $529 $-1 $408 1 #
straight-curve $-1 -1 $-1 -19.736950225773061 -2.7350255823523284 0 0.8660217547228608 0.50000632030679093 0 I I #
coedge $-1 -1 $-1 $530 $409 $531 $532 forward $316 $-1 #
coedge $-1 -1 $-1 $409 $533 $534 $535 forward $316 $-1 #
coedge $-1 -1 $-1 $423 $422 $409 $480 reversed $299 $-1 #
edge $536 -1 $-1 $537 -36.160254037844389 $538 -27.5 $409 $539 forward @7 unknown #
model_id-kcp-attrib $-1 -1 $-1 $-1 $411 1 1021324188 1021324188 -634781695 12 #
face $540 -1 $-1 $136 $490 $8 $-1 $484 forward single #
loop $-1 -1 $-1 $-1 $541 $411 #
cone-surface $-1 -1 $-1 0 -165 -2.25 0 0 1 15 0 0 1 I I 0 1 15 forward I I I I #
coedge $-1 -1 $-1 $542 $416 $509 $543 forward $134 $-1 #
coedge $-1 -1 $-1 $507 $510 $416 $487 reversed $429 $-1 #
edge $544 -1 $-1 $491 -46.339745962155611 $545 46.339745962155611 $486 $546 forward @7 unknown #
coedge $-1 -1 $-1 $534 $417 $423 $501 forward $490 $-1 #
coedge $-1 -1 $-1 $417 $534 $507 $547 reversed $490 $-1 #
loop $-1 -1 $-1 $-1 $488 $482 #
vertex $-1 -1 $-1 $487 $548 #
ellipse-curve $-1 -1 $-1 0 -165 -4.5 0 0 -1 15 0 0 1 I I #
coedge $-1 -1 $-1 $419 $542 $549 $550 forward $134 $-1 #
edge $-1 -1 $-1 $551 -31.160254037844386 $498 -22.5 $419 $552 forward @7 unknown #
coedge $-1 -1 $-1 $531 $420 $527 $553 reversed $468 $-1 #
coedge $-1 -1 $-1 $420 $531 $422 $500 forward $468 $-1 #
attrib_edge_convexity-kcp-attrib $-1 -1 $554 $-1 $421 1 #
vertex $-1 -1 $-1 $494 $555 #
straight-curve $-1 -1 $-1 3.7500000000000009 -165 -4.5 -1.5 0 0 I I #
edge $556 -1 $-1 $538 0 $424 3 $422 $557 forward @7 unknown #
edge $-1 -1 $-1 $425 -1.5 $537 1.5 $488 $558 forward @7 unknown #
point $-1 -1 $-1 -7.5 -165 -4.5 #
point $-1 -1 $-1 -7.5 -177.99038105676658 -4.5 #
model_id-kcp-attrib $-1 -1 $-1 $-1 $428 1 1021324188 1021324188 -634781695 17 #
loop $-1 -1 $-1 $-1 $559 $428 #
plane-surface $-1 -1 $-1 7.5000000000000018 -82.5 -2.25 -1 0 0 0 0 -1.5 forward_v I I I I #
coedge $-1 -1 $-1 $560 $486 $489 $547 forward $429 $-1 #
coedge $-1 -1 $-1 $561 $431 $562 $563 reversed $332 $-1 #
coedge $-1 -1 $-1 $431 $561 $485 $543 reversed $332 $-1 #
coedge $-1 -1 $-1 $486 $560 $431 $511 forward $429 $-1 #
edge $564 -1 $-1 $565 -1.5 $545 1.5 $510 $566 forward @7 unknown #
coedge $-1 -1 $-1 $437 $436 $449 $520 forward $251 $-1 #
coedge $-1 -1 $-1 $449 $442 $438 $514 reversed $366 $-1 #
edge $-1 -1 $-1 $515 -27.120448873392604 $444 -18.46015834477868 $438 $567 forward @7 unknown #
vertex $-1 -1 $-1 $520 $568 #
straight-curve $-1 -1 $-1 7.5 -4.3300999999999998 0 0 0 -1 I I #
point $-1 -1 $-1 7.5 -4.3300999999999998 -4.5 #
straight-curve $-1 -1 $-1 12.236898722207094 -15.725395846253484 0 -0.8660217547228608 0.50000632030679104 0 I I #
point $-1 -1 $-1 0 -8.6602999999999994 0 #
edge $-1 -1 $-1 $451 -47.745150000000002 $515 -39.084949999999999 $512 $569 forward @7 unknown #
straight-curve $-1 -1 $-1 7.5 4.3301000000000007 0 0 0 -1 I I #
point $-1 -1 $-1 7.5 4.3301000000000007 0 #
convexity-sys-attrib $-1 -1 $-1 $-1 $457 #
straight-curve $-1 -1 $-1 7.5 0 -195.36001940119672 0 -1 0 I I #
point $-1 -1 $-1 7.5 2.2500000000000062 -195.36001940119669 #
coedge $-1 -1 $-1 $570 $470 $541 $571 reversed $397 $-1 #
coedge $-1 -1 $-1 $470 $570 $495 $553 forward $397 $-1 #
convexity-sys-attrib $-1 -1 $-1 $471 $400 #
convexity-sys-attrib $-1 -1 $-1 $475 $408 #
coedge $-1 -1 $-1 $572 $477 $570 $573 forward $316 $-1 #
coedge $-1 -1 $-1 $496 $495 $477 $532 reversed $468 $-1 #
edge $574 -1 $-1 $538 -7.5 $575 2.4999999999999996 $477 $576 forward @7 unknown #
coedge $-1 -1 $-1 $478 $562 $560 $577 forward $316 $-1 #
coedge $-1 -1 $-1 $489 $488 $478 $535 reversed $490 $-1 #
edge $578 -1 $-1 $579 2.0943951023931957 $537 4.1887902047863905 $478 $580 forward @7 unknown #
attrib_edge_convexity-kcp-attrib $-1 -1 $581 $-1 $480 1 #
vertex $-1 -1 $-1 $501 $582 #
vertex $-1 -1 $-1 $480 $583 #
straight-curve $-1 -1 $-1 -7.5 -123.75 0 0 1.5 0 I I #
model_id-kcp-attrib $-1 -1 $-1 $-1 $482 1 1021324188 1021324188 -634781695 13 #
coedge $-1 -1 $-1 $549 $584 $526 $571 forward $483 $-1 #
coedge $-1 -1 $-1 $493 $485 $585 $586 forward $134 $-1 #
edge $-1 -1 $-1 $545 2.8797932657906435 $587 8.1157810217736319 $485 $588 forward @7 unknown #
attrib_edge_convexity-kcp-attrib $-1 -1 $589 $-1 $487 1 #
vertex $-1 -1 $-1 $543 $590 #
straight-curve $-1 -1 $-1 -7.4999999999999982 -82.5 -4.5 0 1.5 0 I I #
edge $591 -1 $-1 $491 -1.5 $579 1.5 $507 $592 forward @7 unknown #
point $-1 -1 $-1 -7.4999999999999982 -152.00961894323342 -4.5 #
coedge $-1 -1 $-1 $593 $541 $493 $550 reversed $483 $-1 #
edge $-1 -1 $-1 $594 -1.0471975511965976 $551 1.0471975511965979 $493 $492 forward @7 unknown #
vertex $-1 -1 $-1 $571 $595 #
straight-curve $-1 -1 $-1 7.5 -131.25 -4.5 0 1.5 0 I I #
edge $596 -1 $-1 $575 0 $498 3 $495 $597 forward @7 unknown #
convexity-sys-attrib $-1 -1 $-1 $497 $421 #
point $-1 -1 $-1 7.5 -165 -4.5 #
attrib_edge_convexity-kcp-attrib $-1 -1 $598 $-1 $500 2 #
straight-curve $-1 -1 $-1 -7.5 -165 0 0 0 -1.5 I I #
straight-curve $-1 -1 $-1 -7.5 -177.99038105676658 -2.25 0 0 1.5 I I #
coedge $-1 -1 $-1 $585 $599 $593 $600 forward $505 $-1 #
coedge $-1 -1 $-1 $510 $507 $533 $577 reversed $429 $-1 #
coedge $-1 -1 $-1 $509 $508 $601 $602 reversed $332 $-1 #
coedge $-1 -1 $-1 $533 $603 $508 $563 forward $316 $-1 #
edge $604 -1 $-1 $605 -1.8325957145940459 $565 3.4033920413889427 $562 $606 forward @7 unknown #
attrib_edge_convexity-kcp-attrib $-1 -1 $607 $-1 $511 2 #
vertex $-1 -1 $-1 $577 $608 #
straight-curve $-1 -1 $-1 -7.4999999999999982 -12.990381056766584 -2.25 0 0 -1.5 I I #
straight-curve $-1 -1 $-1 -15.986898722207091 -17.89049584625349 0 -0.8660217547228608 -0.50000632030679104 0 I I #
point $-1 -1 $-1 7.5 -4.3300999999999998 0 #
straight-curve $-1 -1 $-1 7.5 -43.415050000000001 0 0 -1 0 I I #
coedge $-1 -1 $-1 $527 $526 $530 $573 reversed $397 $-1 #
edge $-1 -1 $-1 $609 -1.5 $551 1.5 $541 $610 forward @7 unknown #
coedge $-1 -1 $-1 $603 $530 $584 $611 forward $316 $-1 #
edge $612 -1 $-1 $575 22.5 $609 31.160254037844386 $530 $613 forward @7 unknown #
attrib_edge_convexity-kcp-attrib $-1 -1 $614 $-1 $532 1 #
vertex $-1 -1 $-1 $573 $615 #
straight-curve $-1 -1 $-1 3.7500000000000009 -165 0 1.5 0 0 I I #
edge $616 -1 $-1 $565 -46.339745962155611 $579 46.339745962155611 $560 $617 forward @7 unknown #
attrib_edge_convexity-kcp-attrib $-1 -1 $618 $-1 $535 1 #
vertex $-1 -1 $-1 $535 $619 #
ellipse-curve $-1 -1 $-1 0 -165 0 0 0 1 15 0 0 1 I I #
convexity-sys-attrib $-1 -1 $-1 $536 $480 #
point $-1 -1 $-1 -7.5 -177.99038105676658 0 #
point $-1 -1 $-1 -7.5 -165 0 #
coedge $-1 -1 $-1 $541 $593 $572 $611 reversed $483 $-1 #
coedge $-1 -1 $-1 $601 $559 $542 $586 reversed $505 $-1 #
edge $620 -1 $-1 $587 -46.339745962155611 $594 46.339745962155611 $585 $621 forward @7 unknown #
vertex $-1 -1 $-1 $586 $622 #
ellipse-curve $-1 -1 $-1 0 0 -4.5 0 0 -1 10.606601717798211 10.606601717798211 0 1 I I #
convexity-sys-attrib $-1 -1 $-1 $544 $487 #
point $-1 -1 $-1 -7.4999999999999982 -12.990381056766584 -4.5 #
attrib_edge_convexity-kcp-attrib $-1 -1 $623 $-1 $547 2 #
straight-curve $-1 -1 $-1 -7.4999999999999982 -152.00961894323342 -2.25 0 0 1.5 I I #
coedge $-1 -1 $-1 $584 $549 $559 $600 reversed $483 $-1 #
vertex $-1 -1 $-1 $550 $624 #
point $-1 -1 $-1 7.5 -177.99038105676658 -4.5 #
attrib_edge_convexity-kcp-attrib $-1 -1 $625 $-1 $553 2 #
straight-curve $-1 -1 $-1 7.5 -165 0 0 0 -1.5 I I #
convexity-sys-attrib $-1 -1 $-1 $556 $500 #
coedge $-1 -1 $-1 $559 $601 $603 $626 reversed $505 $-1 #
edge $627 -1 $-1 $628 -1.5 $594 1.5 $559 $629 forward @7 unknown #
coedge $-1 -1 $-1 $599 $585 $561 $602 forward $505 $-1 #
edge $630 -1 $-1 $587 -1.5 $605 1.5 $601 $631 forward @7 unknown #
coedge $-1 -1 $-1 $562 $572 $599 $626 forward $316 $-1 #
attrib_edge_convexity-kcp-attrib $-1 -1 $632 $-1 $563 1 #
vertex $-1 -1 $-1 $563 $633 #
ellipse-curve $-1 -1 $-1 0 0 -3.3306690738754696e-016 0 0 1 10.606601717798211 10.606601717798211 0 1 I I #
convexity-sys-attrib $-1 -1 $-1 $564 $511 #
point $-1 -1 $-1 -7.4999999999999982 -12.990381056766584 0 #
vertex $-1 -1 $-1 $611 $634 #
straight-curve $-1 -1 $-1 7.5 -177.99038105676658 -2.25 0 0 -1.5 I I #
edge $635 -1 $-1 $609 -1.0471975511965979 $628 1.0471975511965976 $572 $580 forward @7 unknown #
attrib_edge_convexity-kcp-attrib $-1 -1 $636 $-1 $573 1 #
straight-curve $-1 -1 $-1 7.5 -131.25 0 0 -1.5 0 I I #
convexity-sys-attrib $-1 -1 $-1 $574 $532 #
point $-1 -1 $-1 7.5 -165 0 #
attrib_edge_convexity-kcp-attrib $-1 -1 $637 $-1 $577 1 #
straight-curve $-1 -1 $-1 -7.4999999999999982 -82.5 0 0 -1.5 0 I I #
convexity-sys-attrib $-1 -1 $-1 $578 $535 #
point $-1 -1 $-1 -7.4999999999999982 -152.00961894323342 0 #
attrib_edge_convexity-kcp-attrib $-1 -1 $638 $-1 $586 1 #
straight-curve $-1 -1 $-1 7.5000000000000018 -82.5 -4.5 0 -1.5 0 I I #
point $-1 -1 $-1 7.5000000000000018 -12.990381056766573 -4.5 #
convexity-sys-attrib $-1 -1 $-1 $591 $547 #
point $-1 -1 $-1 7.5000000000000018 -152.00961894323342 -4.5 #
convexity-sys-attrib $-1 -1 $-1 $596 $553 #
edge $639 -1 $-1 $628 -46.339745962155611 $605 46.339745962155611 $599 $640 forward @7 unknown #
attrib_edge_convexity-kcp-attrib $-1 -1 $641 $-1 $600 2 #
vertex $-1 -1 $-1 $626 $642 #
straight-curve $-1 -1 $-1 7.5000000000000018 -152.00961894323342 -2.25 0 0 -1.5 I I #
attrib_edge_convexity-kcp-attrib $-1 -1 $643 $-1 $602 2 #
straight-curve $-1 -1 $-1 7.5000000000000018 -12.990381056766573 -2.25 0 0 1.5 I I #
convexity-sys-attrib $-1 -1 $-1 $604 $563 #
point $-1 -1 $-1 7.5000000000000018 -12.990381056766573 0 #
point $-1 -1 $-1 7.5 -177.99038105676658 0 #
attrib_edge_convexity-kcp-attrib $-1 -1 $644 $-1 $611 1 #
convexity-sys-attrib $-1 -1 $-1 $612 $573 #
convexity-sys-attrib $-1 -1 $-1 $616 $577 #
convexity-sys-attrib $-1 -1 $-1 $620 $586 #
attrib_edge_convexity-kcp-attrib $-1 -1 $645 $-1 $626 1 #
straight-curve $-1 -1 $-1 7.5000000000000018 -82.5 0 0 1.5 0 I I #
convexity-sys-attrib $-1 -1 $-1 $627 $600 #
point $-1 -1 $-1 7.5000000000000018 -152.00961894323342 0 #
convexity-sys-attrib $-1 -1 $-1 $630 $602 #
convexity-sys-attrib $-1 -1 $-1 $635 $611 #
convexity-sys-attrib $-1 -1 $-1 $639 $626 #
End-of-ACIS-data 