106 0 1 0           
body $-1 $1 $-1 $2 #
lump $-1 $-1 $3 $0 #
transform $-1 1 0 0 0 1 0 0 0 1 -2.2204460492503131e-016 -3.8000000000000012 7.3998830392812266e-010 1.0000000000000002 0 0 0 #
shell $-1 $-1 $-1 $4 $1 #
face $-1 $5 $6 $3 $-1 $7 reversed single #
face $-1 $8 $9 $3 $-1 $10 reversed single #
loop $-1 $-1 $11 $4 #
plane-surface $-1 -0.74757999999999991 26.09484999704004 -5.0000000005965655 0 1 4.3528767518445611e-011 0 -4.3528767518445611e-011 1 0 I I I I #
face $-1 $12 $13 $3 $-1 $14 reversed single #
loop $-1 $-1 $15 $5 #
plane-surface $-1 -2.4796399999999998 26.09484999704004 -5.0000000005965655 0.86602675472949475 0.49999766008722446 2.1764281905703586e-011 2.5131188830882833e-011 0 -1 0 I I I I #
coedge $-1 $16 $17 $18 $19 1 $6 $-1 #
face $-1 $20 $21 $3 $-1 $22 reversed single #
loop $-1 $-1 $23 $8 #
plane-surface $-1 -3.3456599999999996 27.59484999704004 -5.0000000005312719 0.86602675472949464 -0.49999766008722452 -2.1764281905703589e-011 -2.5131188830882839e-011 0 -1 0 I I I I #
coedge $-1 $24 $25 $26 $27 1 $9 $-1 #
coedge $-1 $28 $11 $29 $30 1 $6 $-1 #
coedge $-1 $11 $28 $24 $31 0 $6 $-1 #
coedge $-1 $26 $32 $11 $19 0 $33 $-1 #
edge $-1 $34 $35 $11 $36 0 #
face $-1 $37 $38 $3 $-1 $39 reversed single #
loop $-1 $-1 $40 $12 #
plane-surface $-1 -2.4796399999999998 29.09484999704004 -5.0000000004659784 0 -1 -4.3528767518445611e-011 0 4.3528767518445611e-011 -1 0 I I I I #
coedge $-1 $41 $42 $43 $44 1 $13 $-1 #
coedge $-1 $45 $15 $17 $31 1 $9 $-1 #
coedge $-1 $15 $45 $41 $46 0 $9 $-1 #
coedge $-1 $43 $18 $15 $27 0 $33 $-1 #
edge $-1 $35 $47 $15 $48 0 #
coedge $-1 $17 $16 $49 $50 0 $6 $-1 #
coedge $-1 $51 $52 $16 $30 0 $53 $-1 #
edge $-1 $54 $34 $16 $55 0 #
edge $-1 $56 $35 $24 $57 0 #
coedge $-1 $18 $58 $51 $59 0 $33 $-1 #
loop $-1 $-1 $18 $60 #
vertex $-1 $30 $61 #
vertex $-1 $31 $62 #
straight-curve $-1 -2.4796399999999998 26.094850000739982 -90.000000001146219 -0.99999999999999989 0 0 I I #
face $-1 $63 $53 $3 $-1 $64 reversed single #
loop $-1 $-1 $65 $20 #
plane-surface $-1 -0.74757999999999991 29.09484999704004 -5.0000000004659784 -0.86602675472949464 -0.49999766008722463 -2.1764281905703592e-011 -2.5131188830882846e-011 0 1 0 I I I I #
coedge $-1 $66 $67 $68 $69 1 $21 $-1 #
coedge $-1 $70 $23 $25 $46 1 $13 $-1 #
coedge $-1 $23 $70 $66 $71 0 $13 $-1 #
coedge $-1 $68 $26 $23 $44 0 $33 $-1 #
edge $-1 $47 $72 $23 $73 0 #
coedge $-1 $25 $24 $74 $75 0 $9 $-1 #
edge $-1 $76 $47 $41 $77 0 #
vertex $-1 $46 $78 #
straight-curve $-1 -3.3456599999999996 27.594850000739982 -90.00000000078883 -0.49999766008722435 0.86602675472949453 2.0634234759980696e-010 I I #
coedge $-1 $79 $80 $28 $50 1 $81 $-1 #
edge $-1 $54 $56 $49 $82 0 #
coedge $-1 $83 $29 $32 $59 1 $53 $-1 #
coedge $-1 $29 $83 $84 $85 0 $53 $-1 #
loop $-1 $-1 $51 $37 #
vertex $-1 $86 $87 #
straight-curve $-1 -0.74757999999999991 26.09484999704004 -5.0000000005965655 0 4.3528767518445611e-011 -1 I I #
vertex $-1 $88 $89 #
straight-curve $-1 -2.4796399999999998 26.09484999704004 -5.0000000005965655 0 4.3528767518445611e-011 -1 I I #
coedge $-1 $32 $68 $65 $90 0 $33 $-1 #
edge $-1 $91 $34 $51 $92 0 #
face $-1 $93 $33 $3 $-1 $94 forward single #
point $-1 -0.74757999999999991 26.094850000739985 -90.000000000814182 #
point $-1 -2.4796399999999998 26.094850000739985 -90.000000000814182 #
face $-1 $95 $96 $3 $-1 $97 reversed single #
plane-surface $-1 0.11843999999999999 27.59484999704004 -5.0000000005312719 -0.86602675472949464 0.49999766008722457 2.1764281905703589e-011 2.5131188830882839e-011 0 1 0 I I I I #
coedge $-1 $98 $99 $58 $90 1 $38 $-1 #
coedge $-1 $100 $40 $42 $71 1 $21 $-1 #
coedge $-1 $40 $100 $98 $101 0 $21 $-1 #
coedge $-1 $58 $43 $40 $69 0 $33 $-1 #
edge $-1 $72 $102 $40 $103 0 #
coedge $-1 $42 $41 $104 $105 0 $13 $-1 #
edge $-1 $106 $72 $66 $107 0 #
vertex $-1 $71 $108 #
straight-curve $-1 -2.4796399999999998 29.094850000739982 -90.000000000431442 0.49999766008722452 0.86602675472949464 2.0634234759980699e-010 I I #
coedge $-1 $109 $110 $45 $75 1 $111 $-1 #
edge $-1 $56 $76 $74 $112 0 #
vertex $-1 $113 $114 #
straight-curve $-1 -3.3456599999999996 27.59484999704004 -5.0000000005312719 0 4.3528767518445611e-011 -1 I I #
point $-1 -3.3456599999999996 27.594850000739985 -90.000000000748884 #
coedge $-1 $115 $49 $116 $86 1 $81 $-1 #
coedge $-1 $49 $115 $109 $88 0 $81 $-1 #
loop $-1 $-1 $49 $95 #
straight-curve $-1 -2.4796399999999998 26.09484999704004 -5.0000000009286154 -0.99999999999999989 0 0 I I #
coedge $-1 $52 $51 $99 $117 1 $53 $-1 #
coedge $-1 $118 $116 $52 $85 1 $96 $-1 #
edge $-1 $119 $54 $84 $120 0 #
edge $-1 $121 $54 $79 $122 0 #
point $-1 -0.74757999999999991 26.09484999704004 -5.0000000005965655 #
edge $-1 $123 $56 $109 $124 0 #
point $-1 -2.4796399999999998 26.09484999704004 -5.0000000005965655 #
edge $-1 $102 $91 $65 $125 0 #
vertex $-1 $117 $126 #
straight-curve $-1 -0.74757999999999991 26.094850000739982 -90.000000001146219 -0.49999766008722452 -0.86602675472949453 -2.0634234759980696e-010 I I #
face $-1 $-1 $127 $3 $-1 $128 reversed single #
plane-surface $-1 0 27.799999999999994 -90.000000000739959 0 4.3528767518445611e-011 -1 -1 0 0 0 I I I I #
face $-1 $129 $81 $3 $-1 $130 reversed single #
loop $-1 $-1 $84 $63 #
cone-surface $-1 -0.31456999999999996 22.799999999999994 -5.0000000007399876 -1 0 0 0 0 4.0448499970400462 1 I I -0.86602675472949464 0.49999766008722457 0 I I I I #
coedge $-1 $131 $65 $67 $101 1 $38 $-1 #
coedge $-1 $65 $131 $83 $117 0 $38 $-1 #
coedge $-1 $67 $66 $132 $133 0 $21 $-1 #
edge $-1 $134 $102 $98 $135 0 #
vertex $-1 $101 $136 #
straight-curve $-1 -0.74757999999999991 29.094850000739982 -90.000000000431442 0.99999999999999989 0 0 I I #
coedge $-1 $137 $138 $70 $105 1 $139 $-1 #
edge $-1 $76 $106 $104 $140 0 #
vertex $-1 $141 $142 #
straight-curve $-1 -2.4796399999999998 29.09484999704004 -5.0000000004659784 0 4.3528767518445611e-011 -1 I I #
point $-1 -2.4796399999999998 29.094850000739985 -90.000000000683599 #
coedge $-1 $143 $74 $80 $88 1 $111 $-1 #
coedge $-1 $74 $143 $137 $113 0 $111 $-1 #
loop $-1 $-1 $74 $129 #
straight-curve $-1 -3.3456599999999996 27.59484999704004 -5.0000000005712195 -0.49999766008722435 0.86602675472949453 2.0634234759980696e-010 I I #
edge $-1 $144 $76 $137 $145 0 #
point $-1 -3.3456599999999996 27.59484999704004 -5.0000000005312719 #
coedge $-1 $80 $79 $146 $147 0 $81 $-1 #
coedge $-1 $84 $148 $79 $86 0 $96 $-1 #
edge $-1 $119 $91 $83 $149 0 #
coedge $-1 $148 $84 $150 $151 1 $96 $-1 #
vertex $-1 $151 $152 #
straight-curve $-1 -0.74757999999999991 26.09484999704004 -5.0000000009286154 -0.49999766008722452 -0.86602675472949453 -2.0634234759980696e-010 I I #
vertex $-1 $153 $154 #
ellipse-curve $-1 -0.74757999999999991 22.799999999999994 -5.0000000007399876 -1 0 0 0 0 3.2948499970400462 1 F 1.9473423402211781e-010 F 1.5707963267513674 #
vertex $-1 $155 $156 #
ellipse-curve $-1 -2.4796399999999998 22.799999999999994 -5.0000000007399876 -1 0 0 0 0 3.2948499970400462 1 F 1.9473423402211781e-010 F 1.5707963267513674 #
straight-curve $-1 0.11843999999999999 27.594850000739982 -90.00000000078883 0.49999766008722457 -0.86602675472949453 -2.0634234759980696e-010 I I #
point $-1 0.11843999999999999 27.594850000739985 -90.000000000748884 #
loop $-1 $-1 $157 $93 #
plane-surface $-1 -1.6136099999999998 3.8000000000000003 -0.20515000000000003 0 1 0 -0.99999999999999989 0 0 0 I I I I #
face $-1 $158 $111 $3 $-1 $159 reversed single #
cone-surface $-1 -1.61361 22.799999999999994 -5.0000000007399876 -1 0 0 0 0 3.2948499970400462 1 I I 0 1 0 I I I I #
coedge $-1 $99 $98 $160 $161 0 $38 $-1 #
coedge $-1 $162 $163 $100 $133 1 $164 $-1 #
edge $-1 $106 $134 $132 $165 0 #
vertex $-1 $166 $167 #
straight-curve $-1 -0.74757999999999991 29.09484999704004 -5.0000000004659784 0 4.3528767518445611e-011 -1 I I #
point $-1 -0.74757999999999991 29.094850000739985 -90.000000000683599 #
coedge $-1 $168 $104 $110 $113 1 $139 $-1 #
coedge $-1 $104 $168 $162 $141 0 $139 $-1 #
loop $-1 $-1 $104 $158 #
straight-curve $-1 -2.4796399999999998 29.09484999704004 -5.0000000002138272 0.49999766008722452 0.86602675472949464 2.0634234759980699e-010 I I #
edge $-1 $169 $106 $162 $170 0 #
point $-1 -2.4796399999999998 29.09484999704004 -5.0000000004659784 #
coedge $-1 $110 $109 $171 $172 0 $111 $-1 #
vertex $-1 $173 $174 #
ellipse-curve $-1 -3.3456599999999996 22.799999999999994 -5.0000000007399876 -1 0 0 0 0 4.7948499970400462 1 F 1.9473407028897102e-010 F 1.5707963267513674 #
coedge $-1 $175 $176 $115 $147 1 $177 $-1 #
edge $-1 $121 $123 $146 $178 0 #
coedge $-1 $116 $118 $179 $180 0 $96 $-1 #
straight-curve $-1 0.11843999999999999 27.59484999704004 -5.0000000005312719 0 4.3528767518445611e-011 -1 I I #
coedge $-1 $160 $181 $118 $151 0 $182 $-1 #
edge $-1 $183 $119 $118 $184 0 #
point $-1 0.11843999999999999 27.59484999704004 -5.0000000005312719 #
edge $-1 $185 $121 $175 $186 0 #
point $-1 -0.74757999999999991 22.800000000641614 -1.7051500036999414 #
edge $-1 $187 $123 $188 $189 0 #
point $-1 -2.4796399999999998 22.800000000641614 -1.7051500036999414 #
coedge $-1 $190 $191 $192 $193 0 $127 $-1 #
face $-1 $194 $139 $3 $-1 $195 reversed single #
cone-surface $-1 -2.9126499999999997 22.799999999999994 -5.0000000007399876 -1 0 0 0 0 4.0448499970400462 1 I I 0.86602675472949475 0.49999766008722446 0 I I I I #
coedge $-1 $196 $150 $131 $161 1 $182 $-1 #
edge $-1 $134 $119 $160 $197 0 #
coedge $-1 $198 $132 $138 $141 1 $164 $-1 #
coedge $-1 $132 $198 $196 $166 0 $164 $-1 #
loop $-1 $-1 $132 $194 #
straight-curve $-1 -0.74757999999999991 29.09484999704004 -5.0000000002138272 0.99999999999999989 0 0 I I #
edge $-1 $199 $134 $196 $200 0 #
point $-1 -0.74757999999999991 29.09484999704004 -5.0000000004659784 #
coedge $-1 $138 $137 $201 $202 0 $139 $-1 #
vertex $-1 $203 $204 #
ellipse-curve $-1 -2.4796399999999998 22.799999999999994 -5.0000000007399876 -1 0 0 0 0 6.2948499970400462 1 F 1.9473398458777747e-010 F 1.5707963267513676 #
coedge $-1 $188 $205 $143 $172 1 $206 $-1 #
edge $-1 $123 $144 $171 $207 0 #
edge $-1 $208 $144 $209 $210 0 #
point $-1 -3.3456599999999996 22.800000000933714 -0.20515000369994138 #
coedge $-1 $211 $146 $212 $153 1 $177 $-1 #
coedge $-1 $146 $211 $188 $155 0 $177 $-1 #
loop $-1 $-1 $146 $213 #
straight-curve $-1 -2.4796399999999998 22.800000000973665 -1.7051500036999414 -0.99999999999999989 0 0 I I #
coedge $-1 $214 $212 $148 $180 1 $215 $-1 #
edge $-1 $183 $121 $179 $216 0 #
coedge $-1 $150 $196 $217 $218 0 $182 $-1 #
loop $-1 $-1 $160 $219 #
vertex $-1 $220 $221 #
ellipse-curve $-1 0.11843999999999999 22.799999999999994 -5.0000000007399876 -1 0 0 0 0 4.7948499970400462 1 F 1.9473407028897102e-010 F 1.5707963267513674 #
vertex $-1 $222 $223 #
straight-curve $-1 -0.74757999999999991 3.8000000000000003 -1.7051499999999999 0 1 -1.9473375688751233e-010 I I #
vertex $-1 $224 $225 #
coedge $-1 $226 $171 $176 $155 1 $206 $-1 #
straight-curve $-1 -2.4796399999999998 3.8000000000000003 -1.7051499999999999 0 1 -1.9473375688751233e-010 I I #
coedge $-1 $227 $157 $228 $229 0 $127 $-1 #
coedge $-1 $157 $230 $231 $232 0 $127 $-1 #
coedge $-1 $233 $234 $157 $193 1 $235 $-1 #
edge $-1 $236 $237 $192 $238 0 #
face $-1 $219 $164 $3 $-1 $239 reversed single #
cone-surface $-1 -2.9126499999999997 22.799999999999994 -5.0000000007399876 -1 0 0 0 0 5.5448499970400462 1 I I 0.86602675472949464 -0.49999766008722452 0 I I I I #
coedge $-1 $181 $160 $163 $166 1 $182 $-1 #
straight-curve $-1 0.11843999999999999 27.59484999704004 -5.0000000005712195 0.49999766008722457 -0.86602675472949453 -2.0634234759980696e-010 I I #
coedge $-1 $163 $162 $240 $241 0 $164 $-1 #
vertex $-1 $242 $243 #
ellipse-curve $-1 -0.74757999999999991 22.799999999999994 -5.0000000007399876 -1 0 0 0 0 6.2948499970400462 1 F 1.9473398458777747e-010 F 1.5707963267513676 #
coedge $-1 $209 $244 $168 $202 1 $245 $-1 #
edge $-1 $144 $169 $201 $246 0 #
edge $-1 $237 $169 $234 $247 0 #
point $-1 -2.4796399999999998 22.800000001225815 1.2948499963000584 #
coedge $-1 $171 $226 $209 $173 0 $206 $-1 #
loop $-1 $-1 $171 $248 #
straight-curve $-1 -3.3456599999999996 22.800000000973665 -0.20515000369994138 -0.49999766008722435 0 0.86602675472949453 I I #
vertex $-1 $229 $249 #
coedge $-1 $228 $201 $205 $173 1 $245 $-1 #
straight-curve $-1 -3.3456599999999996 3.8000000000000003 -0.20515 0 1 -1.9473375688751233e-010 I I #
coedge $-1 $176 $175 $250 $222 1 $177 $-1 #
coedge $-1 $179 $251 $175 $153 0 $215 $-1 #
face $-1 $248 $177 $3 $-1 $252 reversed single #
coedge $-1 $251 $179 $253 $220 1 $215 $-1 #
loop $-1 $-1 $179 $254 #
straight-curve $-1 -0.74757999999999991 22.800000000973665 -1.7051500036999414 -0.49999766008722452 0 -0.86602675472949453 I I #
coedge $-1 $255 $253 $181 $218 1 $256 $-1 #
edge $-1 $199 $183 $217 $257 0 #
face $-1 $258 $182 $3 $-1 $259 reversed single #
edge $-1 $260 $183 $214 $261 0 #
point $-1 0.11843999999999999 22.800000000933714 -0.20515000369994138 #
edge $-1 $187 $185 $211 $262 0 #
point $-1 -0.74757999999999991 3.8000000000000003 -1.7051499999999999 #
edge $-1 $208 $187 $226 $263 0 #
point $-1 -2.4796399999999998 3.8000000000000003 -1.7051499999999999 #
coedge $-1 $205 $188 $227 $224 1 $206 $-1 #
coedge $-1 $250 $190 $226 $224 0 $127 $-1 #
coedge $-1 $244 $209 $190 $229 1 $245 $-1 #
edge $-1 $237 $208 $228 $264 0 #
coedge $-1 $191 $250 $251 $265 0 $127 $-1 #
coedge $-1 $253 $255 $191 $232 1 $256 $-1 #
edge $-1 $260 $236 $231 $266 0 #
coedge $-1 $240 $192 $255 $242 0 $235 $-1 #
coedge $-1 $192 $240 $244 $203 1 $235 $-1 #
loop $-1 $-1 $240 $267 #
vertex $-1 $193 $268 #
vertex $-1 $193 $269 #
straight-curve $-1 -0.74757999999999991 3.8000000000000003 1.2948499999999998 -0.99999999999999989 0 0 I I #
cone-surface $-1 -1.61361 22.799999999999994 -5.0000000007399876 -1 0 0 0 0 6.2948499970400462 1 I I 0 -1 0 I I I I #
coedge $-1 $234 $233 $198 $241 1 $235 $-1 #
edge $-1 $169 $199 $240 $270 0 #
edge $-1 $236 $199 $255 $271 0 #
point $-1 -0.74757999999999991 22.800000001225815 1.2948499963000584 #
coedge $-1 $201 $228 $234 $203 0 $245 $-1 #
loop $-1 $-1 $201 $272 #
straight-curve $-1 -2.4796399999999998 22.800000000973665 1.2948499963000584 0.49999766008722452 0 0.86602675472949464 I I #
straight-curve $-1 -2.4796399999999998 3.8000000000000003 1.2948499999999998 0 1 -1.9473375688751233e-010 I I #
face $-1 $272 $206 $3 $-1 $273 reversed single #
point $-1 -3.3456599999999996 3.8000000000000003 -0.20515 #
coedge $-1 $230 $227 $211 $222 0 $127 $-1 #
coedge $-1 $212 $214 $230 $265 1 $215 $-1 #
plane-surface $-1 -0.74757999999999991 3.8000000000000003 -1.7051499999999999 0 1.9473375688751233e-010 1 1 0 0 0 I I I I #
coedge $-1 $217 $231 $214 $220 0 $256 $-1 #
face $-1 $213 $215 $3 $-1 $274 reversed single #
coedge $-1 $231 $217 $233 $242 1 $256 $-1 #
loop $-1 $-1 $217 $258 #
straight-curve $-1 0.11843999999999999 22.800000000973665 -0.20515000369994138 0.49999766008722457 0 -0.86602675472949453 I I #
face $-1 $254 $256 $3 $-1 $275 reversed single #
cone-surface $-1 -0.31456999999999996 22.799999999999994 -5.0000000007399876 -1 0 0 0 0 5.5448499970400462 1 I I -0.86602675472949464 -0.49999766008722463 0 I I I I #
vertex $-1 $265 $276 #
straight-curve $-1 0.11843999999999999 3.8000000000000003 -0.20515 0 1 -1.9473375688751233e-010 I I #
straight-curve $-1 -2.4796399999999998 3.8000000000000003 -1.7051499999999999 0.99999999999999989 0 0 I I #
straight-curve $-1 -3.3456599999999996 3.8000000000000003 -0.20515 0.49999766008722435 0 -0.86602675472949453 I I #
straight-curve $-1 -2.4796399999999998 3.8000000000000003 1.2948499999999998 -0.49999766008722452 0 -0.86602675472949464 I I #
edge $-1 $185 $260 $251 $277 0 #
straight-curve $-1 0.11843999999999999 3.8000000000000003 -0.20515 -0.49999766008722457 0 0.86602675472949453 I I #
face $-1 $60 $235 $3 $-1 $278 reversed single #
point $-1 -0.74757999999999991 3.8000000000000003 1.2948499999999998 #
point $-1 -2.4796399999999998 3.8000000000000003 1.2948499999999998 #
straight-curve $-1 -0.74757999999999991 22.800000000973665 1.2948499963000584 0.99999999999999989 0 0 I I #
straight-curve $-1 -0.74757999999999991 3.8000000000000003 1.2948499999999998 0 1 -1.9473375688751233e-010 I I #
face $-1 $267 $245 $3 $-1 $279 reversed single #
plane-surface $-1 -2.4796399999999998 3.8000000000000003 -1.7051499999999999 0.86602675472949475 9.7366422783750591e-011 0.49999766008722446 0.49999766008722446 0 -0.86602675472949475 0 I I I I #
plane-surface $-1 0.11843999999999999 3.8000000000000003 -0.20515 -0.86602675472949464 9.7366422783750617e-011 0.49999766008722457 0.49999766008722457 0 0.86602675472949464 0 I I I I #
plane-surface $-1 -0.74757999999999991 3.8000000000000003 1.2948499999999998 -0.86602675472949464 -9.736642278375063e-011 -0.49999766008722463 -0.49999766008722463 0 0.86602675472949464 0 I I I I #
point $-1 0.11843999999999999 3.8000000000000003 -0.20515 #
straight-curve $-1 -0.74757999999999991 3.8000000000000003 -1.7051499999999999 0.49999766008722452 0 0.86602675472949453 I I #
plane-surface $-1 -2.4796399999999998 3.8000000000000003 1.2948499999999998 0 -1.9473375688751233e-010 -1 -1 0 0 0 I I I I #
plane-surface $-1 -3.3456599999999996 3.8000000000000003 -0.20515 0.86602675472949464 -9.7366422783750604e-011 -0.49999766008722452 -0.49999766008722452 0 -0.86602675472949464 0 I I I I #
End-of-ACIS-data 