106 0 1 0           
body $-1 $1 $-1 $2 #
lump $-1 $-1 $3 $0 #
transform $-1 1 0 0 0 1 0 0 0 1 -1.1102230246251565e-016 -4 1.4799766742716779e-009 1.0000000000000002 0 0 0 #
shell $-1 $-1 $-1 $4 $1 #
face $-1 $5 $6 $3 $-1 $7 reversed single #
face $-1 $8 $9 $3 $-1 $10 reversed single #
loop $-1 $-1 $11 $4 #
plane-surface $-1 0.60920999999999992 28.999999994080085 -10.000000001068871 0 1 8.2220965837482445e-011 0 -8.2220965837482445e-011 1 0 I I I I #
face $-1 $12 $13 $3 $-1 $14 reversed single #
loop $-1 $-1 $15 $5 #
plane-surface $-1 -2.2775499999999997 28.999999994080085 -10.000000001068871 0.86602625473013028 0.49999852611593137 4.111036173456957e-011 4.7470110184338826e-011 0 -1 0 I I I I #
coedge $-1 $16 $17 $18 $19 1 $6 $-1 #
face $-1 $20 $21 $3 $-1 $22 reversed single #
loop $-1 $-1 $23 $8 #
plane-surface $-1 -3.72092 31.499999994080085 -10.000000000863318 0.86602625473013028 -0.49999852611593137 -4.111036173456957e-011 -4.7470110184338826e-011 0 -1 0 I I I I #
coedge $-1 $24 $25 $26 $27 1 $9 $-1 #
coedge $-1 $28 $11 $29 $30 1 $6 $-1 #
coedge $-1 $11 $28 $24 $31 0 $6 $-1 #
coedge $-1 $26 $32 $11 $19 0 $33 $-1 #
edge $-1 $34 $35 $11 $36 0 #
face $-1 $37 $38 $3 $-1 $39 reversed single #
loop $-1 $-1 $40 $12 #
plane-surface $-1 -2.2775499999999997 33.999999994080085 -10.000000000657767 0 -1 -8.2220965837482445e-011 0 8.2220965837482445e-011 -1 0 I I I I #
coedge $-1 $41 $42 $43 $44 1 $13 $-1 #
coedge $-1 $45 $15 $17 $31 1 $9 $-1 #
coedge $-1 $15 $45 $41 $46 0 $9 $-1 #
coedge $-1 $43 $18 $15 $27 0 $33 $-1 #
edge $-1 $35 $47 $15 $48 0 #
coedge $-1 $17 $16 $49 $50 0 $6 $-1 #
coedge $-1 $51 $52 $16 $30 0 $53 $-1 #
edge $-1 $54 $34 $16 $55 0 #
edge $-1 $56 $35 $24 $57 0 #
coedge $-1 $18 $58 $51 $59 0 $33 $-1 #
loop $-1 $-1 $18 $60 #
vertex $-1 $30 $61 #
vertex $-1 $31 $62 #
straight-curve $-1 -2.2775499999999997 29.000000001479972 -100.00000000374102 -0.99999999999999989 0 0 I I #
face $-1 $63 $53 $3 $-1 $64 reversed single #
loop $-1 $-1 $65 $20 #
plane-surface $-1 0.60920999999999992 33.999999994080085 -10.000000000657767 -0.86602625473013028 -0.49999852611593137 -4.111036173456957e-011 -4.7470110184338826e-011 0 1 0 I I I I #
coedge $-1 $66 $67 $68 $69 1 $21 $-1 #
coedge $-1 $70 $23 $25 $46 1 $13 $-1 #
coedge $-1 $23 $70 $66 $71 0 $13 $-1 #
coedge $-1 $68 $26 $23 $44 0 $33 $-1 #
edge $-1 $47 $72 $23 $73 0 #
coedge $-1 $25 $24 $74 $75 0 $9 $-1 #
edge $-1 $76 $47 $41 $77 0 #
vertex $-1 $46 $78 #
straight-curve $-1 -3.72092 31.500000001479972 -100.00000000261049 -0.49999852611593126 0.86602625473013006 3.9163005706494427e-010 I I #
coedge $-1 $79 $80 $28 $50 1 $81 $-1 #
edge $-1 $54 $56 $49 $82 0 #
coedge $-1 $83 $29 $32 $59 1 $53 $-1 #
coedge $-1 $29 $83 $84 $85 0 $53 $-1 #
loop $-1 $-1 $51 $37 #
vertex $-1 $86 $87 #
straight-curve $-1 0.60920999999999992 28.999999994080085 -10.000000001068871 0 8.2220965837482445e-011 -1 I I #
vertex $-1 $88 $89 #
straight-curve $-1 -2.2775499999999997 28.999999994080085 -10.000000001068871 0 8.2220965837482445e-011 -1 I I #
coedge $-1 $32 $68 $65 $90 0 $33 $-1 #
edge $-1 $91 $34 $51 $92 0 #
face $-1 $93 $33 $3 $-1 $94 forward single #
point $-1 0.60920999999999992 29.000000001479972 -100.00000000189105 #
point $-1 -2.2775499999999997 29.000000001479972 -100.00000000189105 #
face $-1 $95 $96 $3 $-1 $97 reversed single #
plane-surface $-1 2.0525799999999998 31.499999994080085 -10.000000000863318 -0.86602625473013028 0.49999852611593137 4.111036173456957e-011 4.7470110184338826e-011 0 1 0 I I I I #
coedge $-1 $98 $99 $58 $90 1 $38 $-1 #
coedge $-1 $100 $40 $42 $71 1 $21 $-1 #
coedge $-1 $40 $100 $98 $101 0 $21 $-1 #
coedge $-1 $58 $43 $40 $69 0 $33 $-1 #
edge $-1 $72 $102 $40 $103 0 #
coedge $-1 $42 $41 $104 $105 0 $13 $-1 #
edge $-1 $106 $72 $66 $107 0 #
vertex $-1 $71 $108 #
straight-curve $-1 -2.2775499999999997 34.000000001479968 -100.00000000147995 0.49999852611593126 0.86602625473013006 3.9163005706494427e-010 I I #
coedge $-1 $109 $110 $45 $75 1 $111 $-1 #
edge $-1 $56 $76 $74 $112 0 #
vertex $-1 $113 $114 #
straight-curve $-1 -3.72092 31.499999994080085 -10.000000000863318 0 8.2220965837482445e-011 -1 I I #
point $-1 -3.72092 31.500000001479972 -100.00000000168549 #
coedge $-1 $115 $49 $116 $86 1 $81 $-1 #
coedge $-1 $49 $115 $109 $88 0 $81 $-1 #
loop $-1 $-1 $49 $95 #
straight-curve $-1 -2.2775499999999997 28.999999994080081 -10.00000000291884 -0.99999999999999989 0 0 I I #
coedge $-1 $52 $51 $99 $117 1 $53 $-1 #
coedge $-1 $118 $116 $52 $85 1 $96 $-1 #
edge $-1 $119 $54 $84 $120 0 #
edge $-1 $121 $54 $79 $122 0 #
point $-1 0.60920999999999992 28.999999994080085 -10.000000001068871 #
edge $-1 $123 $56 $109 $124 0 #
point $-1 -2.2775499999999997 28.999999994080085 -10.000000001068871 #
edge $-1 $102 $91 $65 $125 0 #
vertex $-1 $117 $126 #
straight-curve $-1 0.60920999999999992 29.000000001479972 -100.00000000374102 -0.49999852611593126 -0.86602625473013006 -3.9163005706494427e-010 I I #
face $-1 $-1 $127 $3 $-1 $128 reversed single #
plane-surface $-1 0 33.999999999999993 -100.00000000147995 0 8.2220965837482445e-011 -1 -1 0 0 0 I I I I #
face $-1 $129 $81 $3 $-1 $130 reversed single #
loop $-1 $-1 $84 $63 #
cone-surface $-1 1.3308949999999999 23.999999999999993 -10.000000001479975 -1 0 0 0 0 6.2499999940800928 1 I I -0.86602625473013028 0.49999852611593137 0 I I I I #
coedge $-1 $131 $65 $67 $101 1 $38 $-1 #
coedge $-1 $65 $131 $83 $117 0 $38 $-1 #
coedge $-1 $67 $66 $132 $133 0 $21 $-1 #
edge $-1 $134 $102 $98 $135 0 #
vertex $-1 $101 $136 #
straight-curve $-1 0.60920999999999992 34.000000001479968 -100.00000000147995 0.99999999999999989 0 0 I I #
coedge $-1 $137 $138 $70 $105 1 $139 $-1 #
edge $-1 $76 $106 $104 $140 0 #
vertex $-1 $141 $142 #
straight-curve $-1 -2.2775499999999997 33.999999994080085 -10.000000000657767 0 8.2220965837482445e-011 -1 I I #
point $-1 -2.2775499999999997 34.000000001479968 -100.00000000147995 #
coedge $-1 $143 $74 $80 $88 1 $111 $-1 #
coedge $-1 $74 $143 $137 $113 0 $111 $-1 #
loop $-1 $-1 $74 $129 #
straight-curve $-1 -3.72092 31.499999994080081 -10.000000001788303 -0.49999852611593126 0.86602625473013006 3.9163005706494427e-010 I I #
edge $-1 $144 $76 $137 $145 0 #
point $-1 -3.72092 31.499999994080085 -10.000000000863318 #
coedge $-1 $80 $79 $146 $147 0 $81 $-1 #
coedge $-1 $84 $148 $79 $86 0 $96 $-1 #
edge $-1 $119 $91 $83 $149 0 #
coedge $-1 $148 $84 $150 $151 1 $96 $-1 #
vertex $-1 $151 $152 #
straight-curve $-1 0.60920999999999992 28.999999994080081 -10.00000000291884 -0.49999852611593126 -0.86602625473013006 -3.9163005706494427e-010 I I #
vertex $-1 $153 $154 #
ellipse-curve $-1 0.60920999999999992 23.999999999999993 -10.000000001479975 -1 0 0 0 0 4.9999999940800928 1 F 3.6999452434580175e-010 F 1.5707963267126759 #
vertex $-1 $155 $156 #
ellipse-curve $-1 -2.2775499999999997 23.999999999999993 -10.000000001479975 -1 0 0 0 0 4.9999999940800928 1 F 3.6999452434580175e-010 F 1.5707963267126759 #
straight-curve $-1 2.0525799999999998 31.500000001479972 -100.00000000261049 0.49999852611593126 -0.86602625473013006 -3.9163005706494427e-010 I I #
point $-1 2.0525799999999998 31.500000001479972 -100.00000000168549 #
loop $-1 $-1 $157 $93 #
plane-surface $-1 -0.83416999999999986 3.9999999999999996 -2.4999999999999996 0 1 0 -0.99999999999999989 0 0 0 I I I I #
face $-1 $158 $111 $3 $-1 $159 reversed single #
cone-surface $-1 -0.83416999999999986 23.999999999999993 -10.000000001479975 -1 0 0 0 0 4.9999999940800928 1 I I 0 1 0 I I I I #
coedge $-1 $99 $98 $160 $161 0 $38 $-1 #
coedge $-1 $162 $163 $100 $133 1 $164 $-1 #
edge $-1 $106 $134 $132 $165 0 #
vertex $-1 $166 $167 #
straight-curve $-1 0.60920999999999992 33.999999994080085 -10.000000000657767 0 8.2220965837482445e-011 -1 I I #
point $-1 0.60920999999999992 34.000000001479968 -100.00000000147995 #
coedge $-1 $168 $104 $110 $113 1 $139 $-1 #
coedge $-1 $104 $168 $162 $141 0 $139 $-1 #
loop $-1 $-1 $104 $158 #
straight-curve $-1 -2.2775499999999997 33.999999994080078 -10.000000000657765 0.49999852611593126 0.86602625473013006 3.9163005706494427e-010 I I #
edge $-1 $169 $106 $162 $170 0 #
point $-1 -2.2775499999999997 33.999999994080085 -10.000000000657767 #
coedge $-1 $110 $109 $171 $172 0 $111 $-1 #
vertex $-1 $173 $174 #
ellipse-curve $-1 -3.72092 23.999999999999993 -10.000000001479975 -1 0 0 0 0 7.4999999940800919 1 F 3.6999428735220082e-010 F 1.5707963267126757 #
coedge $-1 $175 $176 $115 $147 1 $177 $-1 #
edge $-1 $121 $123 $146 $178 0 #
coedge $-1 $116 $118 $179 $180 0 $96 $-1 #
straight-curve $-1 2.0525799999999998 31.499999994080085 -10.000000000863318 0 8.2220965837482445e-011 -1 I I #
coedge $-1 $160 $181 $118 $151 0 $182 $-1 #
edge $-1 $183 $119 $118 $184 0 #
point $-1 2.0525799999999998 31.499999994080085 -10.000000000863318 #
edge $-1 $185 $121 $175 $186 0 #
point $-1 0.60920999999999992 24.000000001849966 -5.0000000073998825 #
edge $-1 $187 $123 $188 $189 0 #
point $-1 -2.2775499999999997 24.000000001849966 -5.0000000073998825 #
coedge $-1 $190 $191 $192 $193 0 $127 $-1 #
face $-1 $194 $139 $3 $-1 $195 reversed single #
cone-surface $-1 -2.9992349999999997 23.999999999999993 -10.000000001479975 -1 0 0 0 0 6.2499999940800928 1 I I 0.86602625473013028 0.49999852611593137 0 I I I I #
coedge $-1 $196 $150 $131 $161 1 $182 $-1 #
edge $-1 $134 $119 $160 $197 0 #
coedge $-1 $198 $132 $138 $141 1 $164 $-1 #
coedge $-1 $132 $198 $196 $166 0 $164 $-1 #
loop $-1 $-1 $132 $194 #
straight-curve $-1 0.60920999999999992 33.999999994080078 -10.000000000657765 0.99999999999999989 0 0 I I #
edge $-1 $199 $134 $196 $200 0 #
point $-1 0.60920999999999992 33.999999994080085 -10.000000000657767 #
coedge $-1 $138 $137 $201 $202 0 $139 $-1 #
vertex $-1 $203 $204 #
ellipse-curve $-1 -2.2775499999999997 23.999999999999993 -10.000000001479975 -1 0 0 0 0 9.9999999940800919 1 F 3.699941688554004e-010 F 1.5707963267126759 #
coedge $-1 $188 $205 $143 $172 1 $206 $-1 #
edge $-1 $123 $144 $171 $207 0 #
edge $-1 $208 $144 $209 $210 0 #
point $-1 -3.72092 24.00000000277495 -2.5000000073998829 #
coedge $-1 $211 $146 $212 $153 1 $177 $-1 #
coedge $-1 $146 $211 $188 $155 0 $177 $-1 #
loop $-1 $-1 $146 $213 #
straight-curve $-1 -2.2775499999999997 24.000000003699935 -5.0000000073998825 -0.99999999999999989 0 0 I I #
coedge $-1 $214 $212 $148 $180 1 $215 $-1 #
edge $-1 $183 $121 $179 $216 0 #
coedge $-1 $150 $196 $217 $218 0 $182 $-1 #
loop $-1 $-1 $160 $219 #
vertex $-1 $220 $221 #
ellipse-curve $-1 2.0525799999999998 23.999999999999993 -10.000000001479975 -1 0 0 0 0 7.4999999940800919 1 F 3.6999428735220082e-010 F 1.5707963267126757 #
vertex $-1 $222 $223 #
straight-curve $-1 0.60920999999999992 3.9999999999999996 -4.9999999999999991 0 1 -3.6999416856791937e-010 I I #
vertex $-1 $224 $225 #
coedge $-1 $226 $171 $176 $155 1 $206 $-1 #
straight-curve $-1 -2.2775499999999997 3.9999999999999996 -4.9999999999999991 0 1 -3.6999416856791937e-010 I I #
coedge $-1 $227 $157 $228 $229 0 $127 $-1 #
coedge $-1 $157 $230 $231 $232 0 $127 $-1 #
coedge $-1 $233 $234 $157 $193 1 $235 $-1 #
edge $-1 $236 $237 $192 $238 0 #
face $-1 $219 $164 $3 $-1 $239 reversed single #
cone-surface $-1 -2.9992349999999997 23.999999999999993 -10.000000001479975 -1 0 0 0 0 8.7499999940800919 1 I I 0.86602625473013028 -0.49999852611593137 0 I I I I #
coedge $-1 $181 $160 $163 $166 1 $182 $-1 #
straight-curve $-1 2.0525799999999998 31.499999994080081 -10.000000001788303 0.49999852611593126 -0.86602625473013006 -3.9163005706494427e-010 I I #
coedge $-1 $163 $162 $240 $241 0 $164 $-1 #
vertex $-1 $242 $243 #
ellipse-curve $-1 0.60920999999999992 23.999999999999993 -10.000000001479975 -1 0 0 0 0 9.9999999940800919 1 F 3.699941688554004e-010 F 1.5707963267126759 #
coedge $-1 $209 $244 $168 $202 1 $245 $-1 #
edge $-1 $144 $169 $201 $246 0 #
edge $-1 $237 $169 $234 $247 0 #
point $-1 -2.2775499999999997 24.000000003699935 -7.3998833727273417e-009 #
coedge $-1 $171 $226 $209 $173 0 $206 $-1 #
loop $-1 $-1 $171 $248 #
straight-curve $-1 -3.72092 24.000000003699935 -2.5000000073998829 -0.49999852611593126 0 0.86602625473013006 I I #
vertex $-1 $229 $249 #
coedge $-1 $228 $201 $205 $173 1 $245 $-1 #
straight-curve $-1 -3.72092 3.9999999999999996 -2.4999999999999996 0 1 -3.6999416856791937e-010 I I #
coedge $-1 $176 $175 $250 $222 1 $177 $-1 #
coedge $-1 $179 $251 $175 $153 0 $215 $-1 #
face $-1 $248 $177 $3 $-1 $252 reversed single #
coedge $-1 $251 $179 $253 $220 1 $215 $-1 #
loop $-1 $-1 $179 $254 #
straight-curve $-1 0.60920999999999992 24.000000003699935 -5.0000000073998825 -0.49999852611593126 0 -0.86602625473013006 I I #
coedge $-1 $255 $253 $181 $218 1 $256 $-1 #
edge $-1 $199 $183 $217 $257 0 #
face $-1 $258 $182 $3 $-1 $259 reversed single #
edge $-1 $260 $183 $214 $261 0 #
point $-1 2.0525799999999998 24.00000000277495 -2.5000000073998829 #
edge $-1 $187 $185 $211 $262 0 #
point $-1 0.60920999999999992 3.9999999999999996 -4.9999999999999991 #
edge $-1 $208 $187 $226 $263 0 #
point $-1 -2.2775499999999997 3.9999999999999996 -4.9999999999999991 #
coedge $-1 $205 $188 $227 $224 1 $206 $-1 #
coedge $-1 $250 $190 $226 $224 0 $127 $-1 #
coedge $-1 $244 $209 $190 $229 1 $245 $-1 #
edge $-1 $237 $208 $228 $264 0 #
coedge $-1 $191 $250 $251 $265 0 $127 $-1 #
coedge $-1 $253 $255 $191 $232 1 $256 $-1 #
edge $-1 $260 $236 $231 $266 0 #
coedge $-1 $240 $192 $255 $242 0 $235 $-1 #
coedge $-1 $192 $240 $244 $203 1 $235 $-1 #
loop $-1 $-1 $240 $267 #
vertex $-1 $193 $268 #
vertex $-1 $193 $269 #
straight-curve $-1 0.60920999999999992 3.9999999999999996 0 -0.99999999999999989 0 0 I I #
cone-surface $-1 -0.83416999999999986 23.999999999999993 -10.000000001479975 -1 0 0 0 0 9.9999999940800919 1 I I 0 -1 0 I I I I #
coedge $-1 $234 $233 $198 $241 1 $235 $-1 #
edge $-1 $169 $199 $240 $270 0 #
edge $-1 $236 $199 $255 $271 0 #
point $-1 0.60920999999999992 24.000000003699935 -7.3998833727273417e-009 #
coedge $-1 $201 $228 $234 $203 0 $245 $-1 #
loop $-1 $-1 $201 $272 #
straight-curve $-1 -2.2775499999999997 24.000000003699935 -7.3998833727273433e-009 0.49999852611593126 0 0.86602625473013006 I I #
straight-curve $-1 -2.2775499999999997 3.9999999999999996 0 0 1 -3.6999416856791937e-010 I I #
face $-1 $272 $206 $3 $-1 $273 reversed single #
point $-1 -3.72092 3.9999999999999996 -2.4999999999999996 #
coedge $-1 $230 $227 $211 $222 0 $127 $-1 #
coedge $-1 $212 $214 $230 $265 1 $215 $-1 #
plane-surface $-1 0.60920999999999992 3.9999999999999996 -4.9999999999999991 0 3.6999416856791937e-010 1 1 0 0 0 I I I I #
coedge $-1 $217 $231 $214 $220 0 $256 $-1 #
face $-1 $213 $215 $3 $-1 $274 reversed single #
coedge $-1 $231 $217 $233 $242 1 $256 $-1 #
loop $-1 $-1 $217 $258 #
straight-curve $-1 2.0525799999999998 24.000000003699935 -2.5000000073998829 0.49999852611593126 0 -0.86602625473013006 I I #
face $-1 $254 $256 $3 $-1 $275 reversed single #
cone-surface $-1 1.3308949999999999 23.999999999999993 -10.000000001479975 -1 0 0 0 0 8.7499999940800919 1 I I -0.86602625473013028 -0.49999852611593137 0 I I I I #
vertex $-1 $265 $276 #
straight-curve $-1 2.0525799999999998 3.9999999999999996 -2.4999999999999996 0 1 -3.6999416856791937e-010 I I #
straight-curve $-1 -2.2775499999999997 3.9999999999999996 -4.9999999999999991 0.99999999999999989 0 0 I I #
straight-curve $-1 -3.72092 3.9999999999999996 -2.4999999999999996 0.49999852611593126 0 -0.86602625473013006 I I #
straight-curve $-1 -2.2775499999999997 3.9999999999999996 0 -0.49999852611593126 0 -0.86602625473013006 I I #
edge $-1 $185 $260 $251 $277 0 #
straight-curve $-1 2.0525799999999998 3.9999999999999996 -2.4999999999999996 -0.49999852611593126 0 0.86602625473013006 I I #
face $-1 $60 $235 $3 $-1 $278 reversed single #
point $-1 0.60920999999999992 3.9999999999999996 0 #
point $-1 -2.2775499999999997 3.9999999999999996 0 #
straight-curve $-1 0.60920999999999992 24.000000003699935 -7.3998833727273433e-009 0.99999999999999989 0 0 I I #
straight-curve $-1 0.60920999999999992 3.9999999999999996 0 0 1 -3.6999416856791937e-010 I I #
face $-1 $267 $245 $3 $-1 $279 reversed single #
plane-surface $-1 -2.2775499999999997 3.9999999999999996 -4.9999999999999991 0.86602625473013028 1.8499653895544914e-010 0.49999852611593137 0.49999852611593137 0 -0.86602625473013028 0 I I I I #
plane-surface $-1 2.0525799999999998 3.9999999999999996 -2.4999999999999996 -0.86602625473013028 1.8499653895544914e-010 0.49999852611593137 0.49999852611593137 0 0.86602625473013028 0 I I I I #
plane-surface $-1 0.60920999999999992 3.9999999999999996 0 -0.86602625473013028 -1.8499653895544914e-010 -0.49999852611593137 -0.49999852611593137 0 0.86602625473013028 0 I I I I #
point $-1 2.0525799999999998 3.9999999999999996 -2.4999999999999996 #
straight-curve $-1 0.60920999999999992 3.9999999999999996 -4.9999999999999991 0.49999852611593126 0 0.86602625473013006 I I #
plane-surface $-1 -2.2775499999999997 3.9999999999999996 0 0 -3.6999416856791937e-010 -1 -1 0 0 0 I I I I #
plane-surface $-1 -3.72092 3.9999999999999996 -2.4999999999999996 0.86602625473013028 -1.8499653895544914e-010 -0.49999852611593137 -0.49999852611593137 0 -0.86602625473013028 0 I I I I #
End-of-ACIS-data 