700 0 2 0           
24 FBMach with ACIS - 7.0.3 13 ACIS 7.0.3 NT 24 Mon May 13 17:11:36 2002 
1 9.9999999999999995e-007 1e-010 
body $2 -1 $-1 $3 $-1 $4 #
bdycol-kcp $-1 -1 1 3 $5 $6 $7 #
model_id-kcp-attrib $-1 -1 $-1 $-1 $0 1 1021324292 1021324292 123863041 1 #
lump $-1 -1 $-1 $-1 $8 $0 #
transform $-1 -1 1.0000000000000004 7.3180281051654224e-022 0 7.3177696112239996e-022 1.0000000000000004 0 0 0 1 0 -1.0658141036401503e-014 0 1 rotate no_reflect no_shear #
body $9 -1 $-1 $10 $-1 $11 #
body $12 -1 $-1 $13 $-1 $14 #
body $15 -1 $-1 $16 $-1 $17 #
shell $-1 -1 $-1 $-1 $-1 $18 $-1 $3 #
model_id-kcp-attrib $-1 -1 $-1 $-1 $5 1 1021324292 1021324292 123863042 1 #
lump $-1 -1 $-1 $-1 $19 $5 #
transform $-1 -1 1 0 0 0 1 0 0 0 1 -0.83417000106807349 15.000000000739989 -49.999999999465565 1 no_rotate no_reflect no_shear #
rgb_color-st-attrib $-1 -1 $20 $-1 $6 0.5 0.5 1 #
lump $-1 -1 $-1 $-1 $21 $6 #
transform $-1 -1 1 0 0 0 1 0 0 0 1 -0.83417000106807349 15.000000000739989 -49.999999999465565 1 no_rotate no_reflect no_shear #
rgb_color-st-attrib $-1 -1 $22 $-1 $7 0.5 0.5 1 #
lump $-1 -1 $-1 $-1 $23 $7 #
transform $-1 -1 1 0 0 0 1 0 0 0 1 -0.83417000106807349 15.000000000739989 -49.999999999465565 1 no_rotate no_reflect no_shear #
face $24 -1 $-1 $25 $26 $8 $-1 $27 reversed single #
shell $-1 -1 $-1 $-1 $-1 $28 $-1 $10 #
model_id-kcp-attrib $-1 -1 $-1 $12 $6 1 1021324292 1021324293 118292484 1 #
shell $-1 -1 $-1 $-1 $-1 $29 $-1 $13 #
model_id-kcp-attrib $-1 -1 $-1 $15 $7 1 1021324292 1021324293 133758979 1 #
shell $-1 -1 $-1 $-1 $-1 $30 $-1 $16 #
model_id-kcp-attrib $-1 -1 $-1 $-1 $18 1 1021324292 1021324292 123863041 2 #
face $31 -1 $-1 $32 $33 $8 $-1 $34 reversed single #
loop $-1 -1 $-1 $-1 $35 $18 #
plane-surface $-1 -1 $-1 0.60920999999999992 24.999999994080092 -9.999999999588896 0 1 0 0 0 1.0000000000000002 forward_v I I I I #
face $36 -1 $-1 $37 $38 $19 $-1 $39 forward single #
face $-1 -1 $-1 $40 $41 $21 $-1 $42 reversed single #
face $-1 -1 $-1 $43 $44 $23 $-1 $45 reversed single #
model_id-kcp-attrib $-1 -1 $-1 $-1 $25 1 1021324292 1021324292 123863041 3 #
face $46 -1 $-1 $47 $48 $8 $-1 $49 reversed single #
loop $-1 -1 $-1 $-1 $50 $25 #
plane-surface $-1 -1 $-1 -2.2775500000000002 24.999999994080092 -9.999999999588896 0.86602625473013028 0.49999852611593137 1.354003295480771e-016 1.186757484098898e-011 -2.0555052575412355e-011 -1.0000000000000002 forward_v I I I I #
coedge $-1 -1 $-1 $51 $52 $53 $54 reversed $26 $-1 #
model_id-kcp-attrib $-1 -1 $-1 $-1 $28 1 1021324292 1021324292 123863042 3 #
face $55 -1 $-1 $56 $57 $19 $-1 $58 reversed single #
loop $-1 -1 $-1 $-1 $59 $28 #
plane-surface $-1 -1 $-1 0 0 50.000000000945541 0 0 1 1 0 0 forward_v I I I I #
face $-1 -1 $-1 $60 $61 $21 $-1 $62 reversed single #
loop $-1 -1 $-1 $-1 $63 $29 #
plane-surface $-1 -1 $-1 2.1650650010680579 13.749999997040042 -5.000000000226116 0.86602625473013028 0.49999852611593137 4.111036173456957e-011 -0.49999852611593137 0.86602625473013028 0 forward_v I I I I #
face $-1 -1 $-1 $64 $65 $23 $-1 $66 reversed single #
loop $-1 -1 $-1 $-1 $67 $30 #
plane-surface $-1 -1 $-1 -2.1650649991989326 13.749999996577564 -5.0000000002261018 -0.86602625473013028 0.49999852611593137 4.111036173456957e-011 -0.49999852611593137 -0.86602625473013028 0 forward_v I I I I #
model_id-kcp-attrib $-1 -1 $-1 $-1 $32 1 1021324292 1021324292 123863041 4 #
face $68 -1 $-1 $69 $70 $8 $-1 $71 reversed single #
loop $-1 -1 $-1 $-1 $72 $32 #
plane-surface $-1 -1 $-1 -3.7209200000000009 27.499999994080092 -9.9999999993833431 0.86602625473013028 -0.49999852611593137 -4.111036173456957e-011 -4.7470110184338838e-011 0 -1.0000000000000002 forward_v I I I I #
coedge $-1 -1 $-1 $73 $74 $75 $76 reversed $33 $-1 #
coedge $-1 -1 $-1 $77 $35 $78 $79 reversed $26 $-1 #
coedge $-1 -1 $-1 $35 $77 $73 $80 forward $26 $-1 #
coedge $-1 -1 $-1 $75 $81 $35 $54 forward $82 $-1 #
edge $83 -1 $-1 $84 -0.30460499572769029 $85 2.5821549999999847 $35 $86 forward @7 unknown #
model_id-kcp-attrib $-1 -1 $-1 $-1 $37 1 1021324292 1021324292 123863042 4 #
face $87 -1 $-1 $88 $89 $19 $-1 $90 reversed single #
loop $-1 -1 $-1 $-1 $91 $37 #
plane-surface $-1 -1 $-1 0 0 -50.000000000945541 0 0 1 1 0 0 forward_v I I I I #
coedge $-1 -1 $-1 $92 $93 $94 $95 forward $38 $-1 #
face $-1 -1 $-1 $96 $97 $21 $-1 $98 forward single #
loop $-1 -1 $-1 $-1 $99 $40 #
plane-surface $-1 -1 $-1 0 15.000000000739989 0 0 -1 0 0 0 -1 forward_v I I I I #
coedge $-1 -1 $-1 $100 $101 $102 $103 forward $41 $-1 #
face $-1 -1 $-1 $104 $105 $23 $-1 $106 reversed single #
loop $-1 -1 $-1 $-1 $107 $43 #
plane-surface $-1 -1 $-1 0 15.000000000739989 0 0 -1 0 0 0 -1 forward_v I I I I #
coedge $-1 -1 $-1 $108 $109 $110 $111 forward $44 $-1 #
model_id-kcp-attrib $-1 -1 $-1 $-1 $47 1 1021324292 1021324292 123863041 5 #
face $112 -1 $-1 $113 $114 $8 $-1 $115 reversed single #
loop $-1 -1 $-1 $-1 $116 $47 #
plane-surface $-1 -1 $-1 -2.2775500000000002 29.999999994080092 -9.9999999991777919 0 -1 -8.2220965837482445e-011 0 8.2220965837482458e-011 -1.0000000000000002 forward_v I I I I #
coedge $-1 -1 $-1 $117 $118 $119 $120 reversed $48 $-1 #
coedge $-1 -1 $-1 $121 $50 $52 $80 reversed $33 $-1 #
coedge $-1 -1 $-1 $50 $121 $117 $122 forward $33 $-1 #
coedge $-1 -1 $-1 $119 $53 $50 $76 forward $82 $-1 #
edge $123 -1 $-1 $85 -1.5956798210153125 $124 1.2910686927223023 $50 $125 forward @7 unknown #
coedge $-1 -1 $-1 $52 $51 $126 $127 forward $26 $-1 #
coedge $-1 -1 $-1 $128 $129 $51 $79 forward $130 $-1 #
edge $131 -1 $-1 $132 5.4813931171793229e-010 $84 90.000000000959247 $51 $133 reversed @7 unknown #
edge $134 -1 $-1 $135 4.1110226334239997e-010 $85 90.000000000822212 $73 $136 reversed @7 unknown #
coedge $-1 -1 $-1 $53 $137 $128 $138 forward $82 $-1 #
loop $-1 -1 $-1 $-1 $53 $139 #
attrib_edge_convexity-kcp-attrib $-1 -1 $140 $-1 $54 1 #
vertex $-1 -1 $-1 $79 $141 #
vertex $-1 -1 $-1 $80 $142 #
straight-curve $-1 -1 $-1 0.3046049999999999 24.999999994080092 -100.00000000041111 -1 0 0 I I #
model_id-kcp-attrib $-1 -1 $-1 $-1 $56 1 1021324292 1021324292 123863042 5 #
face $-1 -1 $-1 $143 $144 $19 $-1 $145 reversed single #
loop $-1 -1 $-1 $-1 $146 $56 #
plane-surface $-1 -1 $-1 0 -15.000000000739989 0 0 1 0 0 0 1 forward_v I I I I #
coedge $-1 -1 $-1 $147 $148 $149 $150 forward $57 $-1 #
coedge $-1 -1 $-1 $151 $59 $152 $153 forward $38 $-1 #
coedge $-1 -1 $-1 $59 $151 $154 $155 forward $38 $-1 #
coedge $-1 -1 $-1 $156 $157 $59 $95 reversed $158 $-1 #
edge $-1 -1 $-1 $159 -15.000000000739989 $160 15.000000000739989 $94 $161 forward @7 unknown #
face $-1 -1 $-1 $162 $163 $21 $-1 $164 reversed single #
loop $-1 -1 $-1 $-1 $102 $60 #
plane-surface $-1 -1 $-1 2.8867500010680742 14.999999992723447 47.500000003412168 0.86602625473013017 -4.1110361733935789e-011 0.49999852611593143 -7.3181680638928002e-022 1 8.2220965837482433e-011 forward_v I I I I #
coedge $-1 -1 $-1 $165 $166 $100 $167 reversed $61 $-1 #
coedge $-1 -1 $-1 $168 $63 $99 $167 forward $41 $-1 #
coedge $-1 -1 $-1 $63 $168 $169 $170 forward $41 $-1 #
coedge $-1 -1 $-1 $171 $172 $63 $103 reversed $97 $-1 #
edge $173 -1 $-1 $174 15.820806998388955 $175 19.639617936569376 $102 $176 forward @7 unknown #
face $-1 -1 $-1 $177 $178 $23 $-1 $179 forward single #
loop $-1 -1 $-1 $-1 $110 $64 #
plane-surface $-1 -1 $-1 0 0 -50.000000000945541 0 0 1 1 0 0 forward_v I I I I #
coedge $-1 -1 $-1 $180 $181 $108 $182 reversed $65 $-1 #
coedge $-1 -1 $-1 $183 $67 $107 $182 forward $44 $-1 #
coedge $-1 -1 $-1 $67 $183 $184 $185 forward $44 $-1 #
coedge $-1 -1 $-1 $186 $187 $67 $111 reversed $105 $-1 #
edge $188 -1 $-1 $189 3.9692915902486732 $190 6.8560401039862722 $110 $191 forward @7 unknown #
model_id-kcp-attrib $-1 -1 $-1 $-1 $69 1 1021324292 1021324292 123863041 6 #
face $192 -1 $-1 $193 $130 $8 $-1 $194 reversed single #
loop $-1 -1 $-1 $-1 $195 $69 #
plane-surface $-1 -1 $-1 0.60920999999999992 29.999999994080092 -9.9999999991777919 -0.86602625473013028 -0.49999852611593137 -4.111036173456957e-011 -4.7470110184338838e-011 0 1.0000000000000002 forward_v I I I I #
coedge $-1 -1 $-1 $196 $197 $198 $199 reversed $70 $-1 #
coedge $-1 -1 $-1 $200 $72 $74 $122 reversed $48 $-1 #
coedge $-1 -1 $-1 $72 $200 $196 $201 forward $48 $-1 #
coedge $-1 -1 $-1 $198 $75 $72 $120 forward $82 $-1 #
edge $202 -1 $-1 $124 -2.012760079941764 $203 0.87398843379581814 $72 $204 forward @7 unknown #
coedge $-1 -1 $-1 $74 $73 $205 $206 forward $33 $-1 #
edge $207 -1 $-1 $208 -3.4258818004673263e-011 $124 90.000000000787949 $117 $209 reversed @7 unknown #
attrib_edge_convexity-kcp-attrib $-1 -1 $210 $-1 $76 1 #
vertex $-1 -1 $-1 $122 $211 #
straight-curve $-1 -1 $-1 -3.0753875586605739 26.381900613222427 -100.00000000029749 -0.49999852611593137 0.86602625473013028 7.1205515104528909e-011 I I #
coedge $-1 -1 $-1 $212 $213 $77 $127 reversed $214 $-1 #
edge $215 -1 $-1 $132 -1.4433799999999997 $135 1.4433799999999994 $126 $216 forward @7 unknown #
coedge $-1 -1 $-1 $217 $78 $81 $138 reversed $130 $-1 #
coedge $-1 -1 $-1 $78 $217 $218 $219 forward $130 $-1 #
loop $-1 -1 $-1 $-1 $128 $113 #
attrib_edge_convexity-kcp-attrib $-1 -1 $220 $-1 $79 1 #
vertex $-1 -1 $-1 $221 $222 #
straight-curve $-1 -1 $-1 0.60921000000000014 24.999999994080092 -9.9999999994518607 4.7470110184338826e-011 0 1 I I #
attrib_edge_convexity-kcp-attrib $-1 -1 $223 $-1 $80 1 #
vertex $-1 -1 $-1 $224 $225 #
straight-curve $-1 -1 $-1 -2.2775499999999993 24.999999994080092 -9.999999999588896 -1.5634667980160754e-016 0 1 I I #
coedge $-1 -1 $-1 $81 $198 $195 $226 forward $82 $-1 #
edge $227 -1 $-1 $228 0.56938933040429218 $84 3.4561378484142153 $128 $229 forward @7 unknown #
face $230 -1 $-1 $231 $82 $8 $-1 $232 forward single #
convexity-sys-attrib $-1 -1 $-1 $83 $54 #
point $-1 -1 $-1 0.60920999572769019 24.999999994080092 -100.00000000041111 #
point $-1 -1 $-1 -2.2775499999999846 24.999999994080092 -100.00000000041111 #
face $233 -1 $-1 $234 $235 $19 $-1 $236 reversed single #
loop $-1 -1 $-1 $-1 $237 $88 #
plane-surface $-1 -1 $-1 -2.8867500010680751 0 0 1 0 0 0 0 -1 forward_v I I I I #
coedge $-1 -1 $-1 $238 $154 $239 $240 forward $89 $-1 #
coedge $-1 -1 $-1 $241 $91 $238 $242 forward $57 $-1 #
coedge $-1 -1 $-1 $91 $241 $243 $244 forward $57 $-1 #
coedge $-1 -1 $-1 $157 $156 $91 $150 reversed $158 $-1 #
edge $-1 -1 $-1 $245 -15.000000000739989 $246 15.000000000739989 $149 $247 forward @7 unknown #
coedge $-1 -1 $-1 $93 $92 $248 $249 forward $38 $-1 #
coedge $-1 -1 $-1 $250 $251 $92 $153 reversed $235 $-1 #
edge $-1 -1 $-1 $160 -2.8867500010680751 $252 2.8867500010680751 $152 $253 forward @7 unknown #
coedge $-1 -1 $-1 $146 $254 $93 $155 reversed $89 $-1 #
edge $-1 -1 $-1 $255 -2.8867500010680751 $159 2.8867500010680751 $154 $256 forward @7 unknown #
coedge $-1 -1 $-1 $149 $94 $254 $257 forward $158 $-1 #
coedge $-1 -1 $-1 $94 $149 $250 $258 reversed $158 $-1 #
loop $-1 -1 $-1 $-1 $156 $234 #
vertex $-1 -1 $-1 $95 $259 #
vertex $-1 -1 $-1 $95 $260 #
straight-curve $-1 -1 $-1 2.8867500010680751 0 50.000000000945541 0 1 0 I I #
face $-1 -1 $-1 $-1 $261 $21 $-1 $262 reversed single #
loop $-1 -1 $-1 $-1 $169 $96 #
plane-surface $-1 -1 $-1 2.8867500010680751 0 0 -1 0 0 0 0 1 forward_v I I I I #
coedge $-1 -1 $-1 $263 $99 $172 $264 forward $61 $-1 #
coedge $-1 -1 $-1 $99 $263 $265 $266 reversed $61 $-1 #
edge $267 -1 $-1 $175 -52.500000001041471 $268 47.50000000084961 $99 $269 forward @7 unknown #
coedge $-1 -1 $-1 $101 $100 $270 $271 forward $41 $-1 #
coedge $-1 -1 $-1 $272 $273 $101 $170 reversed $163 $-1 #
edge $274 -1 $-1 $275 -47.500000001294978 $174 50.000000002857185 $169 $276 forward @7 unknown #
coedge $-1 -1 $-1 $172 $102 $273 $277 reversed $97 $-1 #
coedge $-1 -1 $-1 $102 $171 $165 $264 reversed $97 $-1 #
convexity-sys-attrib $-1 -1 $-1 $-1 $103 #
vertex $-1 -1 $-1 $103 $278 #
vertex $-1 -1 $-1 $103 $279 #
straight-curve $-1 -1 $-1 8.8664328359185287 2.1428448032037526 37.142844811983807 -0.37796319969388231 0.65465403822790713 0.65465403833555946 I I #
face $-1 -1 $-1 $-1 $280 $23 $-1 $281 reversed single #
loop $-1 -1 $-1 $-1 $282 $104 #
plane-surface $-1 -1 $-1 -1.443379998931928 14.999999992517894 50.000000003412168 -0.86602625473013017 -4.1110361735203339e-011 0.49999852611593137 7.3181680638928002e-022 -1 -8.2220965837482433e-011 forward_v I I I I #
coedge $-1 -1 $-1 $283 $107 $187 $284 reversed $65 $-1 #
coedge $-1 -1 $-1 $107 $283 $285 $286 forward $65 $-1 #
edge $287 -1 $-1 $190 -47.500000000849617 $288 52.500000003508092 $107 $289 forward @7 unknown #
coedge $-1 -1 $-1 $109 $108 $282 $290 forward $44 $-1 #
coedge $-1 -1 $-1 $291 $292 $109 $185 reversed $280 $-1 #
edge $293 -1 $-1 $294 -49.999999999157247 $189 47.500000001294985 $184 $295 forward @7 unknown #
coedge $-1 -1 $-1 $187 $110 $292 $296 forward $105 $-1 #
coedge $-1 -1 $-1 $110 $186 $180 $284 forward $105 $-1 #
convexity-sys-attrib $-1 -1 $-1 $-1 $111 #
vertex $-1 -1 $-1 $296 $297 #
vertex $-1 -1 $-1 $111 $298 #
straight-curve $-1 -1 $-1 -4.8713899459167731 9.0624892672051871 -50.000000000945541 0.49999852611593137 0.86602625473013028 0 I I #
model_id-kcp-attrib $-1 -1 $-1 $-1 $113 1 1021324292 1021324292 123863041 7 #
face $299 -1 $-1 $300 $301 $8 $-1 $302 reversed single #
plane-surface $-1 -1 $-1 2.0525800000000003 27.499999994080092 -9.9999999993833431 -0.86602625473013028 0.49999852611593137 4.111036173456957e-011 4.7470110184338838e-011 0 1.0000000000000002 forward_v I I I I #
coedge $-1 -1 $-1 $303 $304 $137 $226 reversed $114 $-1 #
coedge $-1 -1 $-1 $305 $116 $118 $201 reversed $70 $-1 #
coedge $-1 -1 $-1 $116 $305 $303 $306 forward $70 $-1 #
coedge $-1 -1 $-1 $137 $119 $116 $199 forward $82 $-1 #
edge $307 -1 $-1 $203 -1.1387750000000005 $308 1.7479849999999992 $116 $309 forward @7 unknown #
coedge $-1 -1 $-1 $118 $117 $310 $311 forward $48 $-1 #
edge $312 -1 $-1 $313 -1.7763568394002505e-015 $203 90.000000000822212 $196 $314 reversed @7 unknown #
attrib_edge_convexity-kcp-attrib $-1 -1 $315 $-1 $120 1 #
vertex $-1 -1 $-1 $201 $316 #
straight-curve $-1 -1 $-1 -2.7145429287402814 29.243103071482331 -100.00000000006223 0.49999852611593137 0.86602625473013028 7.1205515104528909e-011 I I #
coedge $-1 -1 $-1 $317 $318 $121 $206 reversed $319 $-1 #
edge $320 -1 $-1 $135 -1.4433742547326351 $208 1.443374254732642 $205 $321 forward @7 unknown #
attrib_edge_convexity-kcp-attrib $-1 -1 $322 $-1 $122 1 #
vertex $-1 -1 $-1 $323 $324 #
straight-curve $-1 -1 $-1 -3.7209200000000009 27.499999994080092 -9.9999999994176019 2.3734976918829512e-011 -4.1110618319469911e-011 1 I I #
convexity-sys-attrib $-1 -1 $-1 $123 $76 #
point $-1 -1 $-1 -3.7209200021361477 27.499999997780048 -100.00000000020555 #
coedge $-1 -1 $-1 $325 $126 $326 $221 reversed $214 $-1 #
coedge $-1 -1 $-1 $126 $325 $317 $224 forward $214 $-1 #
loop $-1 -1 $-1 $-1 $126 $300 #
attrib_edge_convexity-kcp-attrib $-1 -1 $327 $-1 $127 4 #
straight-curve $-1 -1 $-1 -0.83417000000000019 24.999999994080092 -10 -1 0 0 I I #
coedge $-1 -1 $-1 $129 $128 $304 $328 reversed $130 $-1 #
coedge $-1 -1 $-1 $329 $326 $129 $219 reversed $301 $-1 #
edge $330 -1 $-1 $331 -1.4433742547326385 $132 1.4433742547326389 $218 $332 forward @7 unknown #
convexity-sys-attrib $-1 -1 $-1 $131 $79 #
edge $333 -1 $-1 $334 3.699945243458017e-010 $132 1.5707963267948966 $212 $335 reversed @7 unknown #
point $-1 -1 $-1 0.60920999999999947 24.999999994080092 -10 #
convexity-sys-attrib $-1 -1 $-1 $134 $80 #
edge $336 -1 $-1 $337 3.699945243458017e-010 $135 1.5707963267948963 $317 $338 reversed @7 unknown #
point $-1 -1 $-1 -2.2775499999999997 24.999999994080092 -9.9999999999999982 #
edge $339 -1 $-1 $308 0.15230205040669129 $228 3.0390505598719697 $195 $340 forward @7 unknown #
attrib_edge_convexity-kcp-attrib $-1 -1 $341 $-1 $138 1 #
vertex $-1 -1 $-1 $328 $342 #
straight-curve $-1 -1 $-1 2.3372738259882846 27.993106110773304 -100.00000000016502 -0.49999852611593137 -0.86602625473013028 -7.1205515104528909e-011 I I #
model_id-kcp-attrib $-1 -1 $-1 $-1 $139 1 1021324292 1021324292 123863041 20 #
face $343 -1 $-1 $-1 $344 $8 $-1 $345 reversed single #
plane-surface $-1 -1 $-1 -1.1102230246251565e-016 30 -100 0 8.2220965837482445e-011 -1 -1.0000000000000002 0 0 forward_v I I I I #
model_id-kcp-attrib $-1 -1 $-1 $-1 $143 1 1021324292 1021324292 123863042 2 #
face $-1 -1 $-1 $-1 $158 $19 $-1 $346 reversed single #
loop $-1 -1 $-1 $-1 $250 $143 #
plane-surface $-1 -1 $-1 0 15.000000000739989 0 0 -1 0 0 0 -1 forward_v I I I I #
coedge $-1 -1 $-1 $347 $248 $251 $348 forward $144 $-1 #
coedge $-1 -1 $-1 $254 $146 $147 $242 reversed $89 $-1 #
coedge $-1 -1 $-1 $248 $347 $146 $240 reversed $144 $-1 #
edge $-1 -1 $-1 $255 -50.000000000945541 $349 50.000000000945541 $239 $350 forward @7 unknown #
coedge $-1 -1 $-1 $148 $147 $347 $351 forward $57 $-1 #
edge $-1 -1 $-1 $246 -2.8867500010680751 $349 2.8867500010680751 $238 $352 forward @7 unknown #
coedge $-1 -1 $-1 $251 $250 $148 $244 reversed $235 $-1 #
edge $-1 -1 $-1 $353 -2.8867500010680751 $245 2.8867500010680751 $243 $354 forward @7 unknown #
vertex $-1 -1 $-1 $150 $355 #
vertex $-1 -1 $-1 $257 $356 #
straight-curve $-1 -1 $-1 2.8867500010680751 0 -50.000000000945541 0 -1 0 I I #
coedge $-1 -1 $-1 $237 $239 $151 $249 reversed $144 $-1 #
edge $-1 -1 $-1 $252 -15.000000000739989 $255 15.000000000739989 $248 $357 forward @7 unknown #
coedge $-1 -1 $-1 $243 $152 $157 $258 forward $235 $-1 #
coedge $-1 -1 $-1 $152 $243 $237 $348 reversed $235 $-1 #
vertex $-1 -1 $-1 $153 $358 #
straight-curve $-1 -1 $-1 0 15.000000000739989 50.000000000945541 -1 0 0 I I #
coedge $-1 -1 $-1 $154 $238 $156 $257 reversed $89 $-1 #
vertex $-1 -1 $-1 $249 $359 #
straight-curve $-1 -1 $-1 0 -15.000000000739989 50.000000000945541 1 0 0 I I #
edge $-1 -1 $-1 $159 -50.000000000945541 $246 50.000000000945541 $156 $360 forward @7 unknown #
edge $-1 -1 $-1 $160 -50.000000000945541 $245 50.000000000945541 $157 $361 forward @7 unknown #
point $-1 -1 $-1 2.8867500010680751 -15.000000000739989 50.000000000945541 #
point $-1 -1 $-1 2.8867500010680751 15.000000000739989 50.000000000945541 #
loop $-1 -1 $-1 $-1 $270 $162 #
plane-surface $-1 -1 $-1 0 0 -50.000000000945541 0 0 1 1 0 0 forward_v I I I I #
coedge $-1 -1 $-1 $166 $165 $362 $363 forward $61 $-1 #
edge $-1 -1 $-1 $175 -22.733186685035569 $364 -19.846438178418502 $165 $365 forward @7 unknown #
coedge $-1 -1 $-1 $366 $270 $166 $266 forward $261 $-1 #
edge $-1 -1 $-1 $268 1.4433800010680558 $367 2.8867500010680751 $166 $368 forward @7 unknown #
convexity-sys-attrib $-1 -1 $-1 $-1 $167 #
vertex $-1 -1 $-1 $266 $369 #
straight-curve $-1 -1 $-1 1.4433799988132254 15.000000000739989 -2.5000000000959286 4.7470110184338826e-011 0 -1 I I #
coedge $-1 -1 $-1 $265 $366 $168 $271 reversed $261 $-1 #
edge $370 -1 $-1 $268 -6.8560401031852267 $275 -3.9692915937199125 $270 $371 forward @7 unknown #
coedge $-1 -1 $-1 $362 $169 $366 $372 reversed $163 $-1 #
coedge $-1 -1 $-1 $169 $362 $171 $277 forward $163 $-1 #
convexity-sys-attrib $-1 -1 $-1 $-1 $170 #
vertex $-1 -1 $-1 $170 $373 #
straight-curve $-1 -1 $-1 2.8867500010680751 12.499999996834461 -2.4999999996505649 0 -8.2220965837482445e-011 1 I I #
edge $-1 -1 $-1 $364 -7.500000006331013 $174 -4.9999999983144372 $273 $374 forward @7 unknown #
point $-1 -1 $-1 2.8867500010680747 12.499999992723414 47.500000003206623 #
point $-1 -1 $-1 1.4433800024921761 15.000000000739989 50.000000000945541 #
loop $-1 -1 $-1 $-1 $184 $177 #
plane-surface $-1 -1 $-1 -2.8867500010680751 0 0 1 0 0 0 0 -1 forward_v I I I I #
coedge $-1 -1 $-1 $285 $375 $183 $290 reversed $178 $-1 #
coedge $-1 -1 $-1 $181 $180 $376 $377 reversed $65 $-1 #
edge $-1 -1 $-1 $378 -2.8867500010680751 $190 -1.4433799989319196 $180 $379 forward @7 unknown #
coedge $-1 -1 $-1 $375 $282 $181 $286 reversed $178 $-1 #
edge $-1 -1 $-1 $380 18.403063919947598 $288 21.289812433685178 $181 $381 forward @7 unknown #
convexity-sys-attrib $-1 -1 $-1 $-1 $182 #
vertex $-1 -1 $-1 $182 $382 #
straight-curve $-1 -1 $-1 -1.443379996677089 15.000000000739989 -2.5000000000959215 4.7470110184338826e-011 0 1 I I #
edge $383 -1 $-1 $288 -18.548530019301023 $294 -14.729719073315829 $282 $384 forward @7 unknown #
coedge $-1 -1 $-1 $376 $184 $375 $385 forward $280 $-1 #
coedge $-1 -1 $-1 $184 $376 $186 $296 reversed $280 $-1 #
convexity-sys-attrib $-1 -1 $-1 $-1 $185 #
vertex $-1 -1 $-1 $385 $386 #
straight-curve $-1 -1 $-1 -2.8867500010680756 12.499999993134551 -2.4999999996505577 0 8.2220965837482445e-011 -1 I I #
edge $-1 -1 $-1 $189 12.499999997040048 $378 15.000000000739989 $292 $387 forward @7 unknown #
point $-1 -1 $-1 -2.8867500010680751 12.499999997040048 -50.000000000945541 #
point $-1 -1 $-1 -1.4433799989319196 15.000000000739989 -50.000000000945541 #
model_id-kcp-attrib $-1 -1 $-1 $-1 $193 1 1021324292 1021324292 123863041 8 #
face $388 -1 $-1 $389 $214 $8 $-1 $390 reversed single #
loop $-1 -1 $-1 $-1 $218 $193 #
cone-surface $-1 -1 $-1 1.3308949999999999 19.999999999999996 -10 -1 0 0 0 0 6.2499999940800945 1 I I -0.86602625473013028 0.49999852611593137 6.2499999940800945 forward I I I I #
coedge $-1 -1 $-1 $391 $195 $197 $306 reversed $114 $-1 #
coedge $-1 -1 $-1 $195 $391 $217 $328 forward $114 $-1 #
coedge $-1 -1 $-1 $197 $196 $392 $393 forward $70 $-1 #
edge $394 -1 $-1 $395 -1.7763568394002505e-015 $308 90.000000000822226 $303 $396 reversed @7 unknown #
attrib_edge_convexity-kcp-attrib $-1 -1 $397 $-1 $199 1 #
vertex $-1 -1 $-1 $306 $398 #
straight-curve $-1 -1 $-1 -1.1387750000000001 30.000000001479975 -100 1 0 0 I I #
coedge $-1 -1 $-1 $399 $400 $200 $311 reversed $401 $-1 #
edge $402 -1 $-1 $208 -1.4433742547326303 $313 1.4433742547326465 $310 $403 forward @7 unknown #
attrib_edge_convexity-kcp-attrib $-1 -1 $404 $-1 $201 1 #
vertex $-1 -1 $-1 $405 $406 #
straight-curve $-1 -1 $-1 -2.2775500000000006 29.999999994080092 -9.9999999991777919 0 -8.2220965837482445e-011 1 I I #
convexity-sys-attrib $-1 -1 $-1 $202 $120 #
point $-1 -1 $-1 -2.2775500000000006 30.000000001479975 -100 #
coedge $-1 -1 $-1 $407 $205 $213 $224 reversed $319 $-1 #
coedge $-1 -1 $-1 $205 $407 $399 $323 forward $319 $-1 #
loop $-1 -1 $-1 $-1 $205 $389 #
attrib_edge_convexity-kcp-attrib $-1 -1 $408 $-1 $206 4 #
straight-curve $-1 -1 $-1 -2.9992349999999988 26.249999994080088 -9.9999999999999982 -0.49999852611593132 0.86602625473013017 2.4613946594354774e-016 I I #
convexity-sys-attrib $-1 -1 $-1 $207 $122 #
edge $409 -1 $-1 $410 3.6999428735220077e-010 $208 1.5707963267126757 $399 $411 reversed @7 unknown #
point $-1 -1 $-1 -3.7209199999999996 27.499999994080092 -9.9999999993833431 #
coedge $-1 -1 $-1 $213 $212 $412 $413 forward $214 $-1 #
coedge $-1 -1 $-1 $218 $414 $212 $221 forward $301 $-1 #
convexity-sys-attrib $-1 -1 $-1 $215 $127 #
edge $415 -1 $-1 $331 -1.7763568394002505e-015 $228 90.000000000822212 $217 $416 reversed @7 unknown #
coedge $-1 -1 $-1 $414 $218 $417 $418 reversed $301 $-1 #
attrib_edge_convexity-kcp-attrib $-1 -1 $419 $-1 $219 4 #
vertex $-1 -1 $-1 $418 $420 #
straight-curve $-1 -1 $-1 1.3308949999999999 26.249999994080092 -9.9999999994861195 -0.49999852611593121 -0.86602625473013017 -7.1205439963342945e-011 I I #
attrib_edge_convexity-kcp-attrib $-1 -1 $421 $-1 $221 1 #
vertex $-1 -1 $-1 $422 $423 #
ellipse-curve $-1 -1 $-1 0.60920999999999947 19.999999999999996 -10 1 0 0 0 0 4.9999999940800937 1 I I #
attrib_edge_convexity-kcp-attrib $-1 -1 $424 $-1 $224 1 #
vertex $-1 -1 $-1 $425 $426 #
ellipse-curve $-1 -1 $-1 -2.2775499999999997 19.999999999999996 -10 1 0 0 0 0 4.9999999940800937 1 I I #
attrib_edge_convexity-kcp-attrib $-1 -1 $427 $-1 $226 1 #
straight-curve $-1 -1 $-1 0.53305919927221923 30.131897575781405 -99.999999999989171 0.49999852611593137 -0.86602625473013028 -7.1205515104528909e-011 I I #
convexity-sys-attrib $-1 -1 $-1 $227 $138 #
point $-1 -1 $-1 2.0525800000000012 27.500000001479979 -100.00000000020556 #
model_id-kcp-attrib $-1 -1 $-1 $-1 $231 1 1021324292 1021324292 123863041 21 #
loop $-1 -1 $-1 $-1 $428 $231 #
plane-surface $-1 -1 $-1 -0.83417000000000019 0 -2.4999999985200234 0 1 0 -1 0 0 forward_v I I I I #
plane-surface $-1 -1 $-1 2.8867500010680751 0 0 -1 0 0 0 0 1 forward_v I I I I #
coedge $-1 -1 $-1 $239 $237 $241 $351 reversed $144 $-1 #
edge $-1 -1 $-1 $252 -50.000000000945541 $353 50.000000000945541 $251 $429 forward @7 unknown #
vertex $-1 -1 $-1 $351 $430 #
straight-curve $-1 -1 $-1 -2.8867500010680751 -15.000000000739989 0 0 0 -1 I I #
edge $-1 -1 $-1 $349 -15.000000000739989 $353 15.000000000739989 $347 $431 forward @7 unknown #
straight-curve $-1 -1 $-1 0 -15.000000000739989 -50.000000000945541 -1 0 0 I I #
vertex $-1 -1 $-1 $244 $432 #
straight-curve $-1 -1 $-1 0 15.000000000739989 -50.000000000945541 1 0 0 I I #
point $-1 -1 $-1 2.8867500010680751 15.000000000739989 -50.000000000945541 #
point $-1 -1 $-1 2.8867500010680751 -15.000000000739989 -50.000000000945541 #
straight-curve $-1 -1 $-1 -2.8867500010680751 0 50.000000000945541 0 -1 0 I I #
point $-1 -1 $-1 -2.8867500010680751 15.000000000739989 50.000000000945541 #
point $-1 -1 $-1 -2.8867500010680751 -15.000000000739989 50.000000000945541 #
straight-curve $-1 -1 $-1 2.8867500010680751 -15.000000000739989 0 0 0 -1 I I #
straight-curve $-1 -1 $-1 2.8867500010680751 15.000000000739989 0 0 0 -1 I I #
coedge $-1 -1 $-1 $273 $272 $263 $363 reversed $163 $-1 #
edge $-1 -1 $-1 $364 -47.500000003412168 $367 50.000000000945541 $362 $433 forward @7 unknown #
vertex $-1 -1 $-1 $363 $434 #
straight-curve $-1 -1 $-1 12.809939838928278 15.000000000739989 30.312463478023325 0.49999852611593143 0 -0.86602625473013017 I I #
coedge $-1 -1 $-1 $270 $265 $272 $372 forward $261 $-1 #
vertex $-1 -1 $-1 $372 $435 #
straight-curve $-1 -1 $-1 0 15.000000000739989 -50.000000000945541 1 0 0 I I #
point $-1 -1 $-1 1.4433800010680558 15.000000000739989 -50.000000000945541 #
convexity-sys-attrib $-1 -1 $-1 $-1 $271 #
straight-curve $-1 -1 $-1 4.8713899476523883 9.0624892678989131 -50.000000000945541 0.49999852611593137 -0.86602625473013028 0 I I #
edge $-1 -1 $-1 $367 -15.000000000739989 $275 -12.500000000739957 $272 $436 forward @7 unknown #
point $-1 -1 $-1 2.8867500010680751 12.500000000739957 -50.000000000945541 #
straight-curve $-1 -1 $-1 2.8867500010680747 7.4999999944089764 47.500000002795517 0 -1 -8.2220965836214869e-011 I I #
coedge $-1 -1 $-1 $282 $285 $291 $385 reversed $178 $-1 #
coedge $-1 -1 $-1 $292 $291 $283 $377 forward $280 $-1 #
edge $-1 -1 $-1 $380 -47.499999999712244 $378 50.000000000945541 $283 $437 forward @7 unknown #
vertex $-1 -1 $-1 $284 $438 #
straight-curve $-1 -1 $-1 0 15.000000000739989 -50.000000000945541 1 0 0 I I #
vertex $-1 -1 $-1 $377 $439 #
straight-curve $-1 -1 $-1 -12.088254837059148 15.000000000739989 31.562463477560836 0.49999852611593137 0 0.86602625473013017 I I #
point $-1 -1 $-1 -1.443379998931928 15.000000000739989 50.000000003412168 #
convexity-sys-attrib $-1 -1 $-1 $-1 $290 #
straight-curve $-1 -1 $-1 -8.454041752610534 2.8571299157146672 37.857129924612167 -0.37796319969388231 -0.65465403822790713 -0.65465403833555957 I I #
edge $-1 -1 $-1 $294 4.9999999946145266 $380 7.5000000063310139 $291 $440 forward @7 unknown #
point $-1 -1 $-1 -2.8867500010680747 12.499999989023502 47.499999999506691 #
straight-curve $-1 -1 $-1 -2.8867500010680751 0 -50.000000000945541 0 1 0 I I #
model_id-kcp-attrib $-1 -1 $-1 $-1 $300 1 1021324292 1021324292 123863041 9 #
face $441 -1 $-1 $442 $319 $8 $-1 $443 reversed single #
cone-surface $-1 -1 $-1 -0.83417000000000019 19.999999999999996 -10 -1 0 0 0 0 4.9999999940800937 1 I I 0 1 4.9999999940800937 forward I I I I #
coedge $-1 -1 $-1 $304 $303 $444 $445 forward $114 $-1 #
coedge $-1 -1 $-1 $446 $447 $305 $393 reversed $448 $-1 #
edge $449 -1 $-1 $313 -1.4433799999999999 $395 1.4433800000000008 $392 $450 forward @7 unknown #
attrib_edge_convexity-kcp-attrib $-1 -1 $451 $-1 $306 1 #
vertex $-1 -1 $-1 $452 $453 #
straight-curve $-1 -1 $-1 0.60920999999999914 29.999999994080092 -9.9999999991777919 0 -8.2220965837482445e-011 1 I I #
convexity-sys-attrib $-1 -1 $-1 $307 $199 #
point $-1 -1 $-1 0.60920999999999914 30.000000001479979 -100.00000000000001 #
coedge $-1 -1 $-1 $454 $310 $318 $323 reversed $401 $-1 #
coedge $-1 -1 $-1 $310 $454 $446 $405 forward $401 $-1 #
loop $-1 -1 $-1 $-1 $310 $442 #
attrib_edge_convexity-kcp-attrib $-1 -1 $455 $-1 $311 3 #
straight-curve $-1 -1 $-1 -2.9992350000000036 28.749999994080085 -9.9999999992805666 0.49999852611593149 0.86602625473013006 7.1205510269634783e-011 I I #
convexity-sys-attrib $-1 -1 $-1 $312 $201 #
edge $-1 -1 $-1 $456 3.6999416885540035e-010 $313 1.5707963267126757 $446 $457 reversed @7 unknown #
point $-1 -1 $-1 -2.2775500000000002 29.999999994080092 -9.9999999991777901 #
coedge $-1 -1 $-1 $318 $317 $458 $459 forward $319 $-1 #
convexity-sys-attrib $-1 -1 $-1 $320 $206 #
attrib_edge_convexity-kcp-attrib $-1 -1 $460 $-1 $323 1 #
vertex $-1 -1 $-1 $461 $462 #
ellipse-curve $-1 -1 $-1 -3.7209199999999996 19.999999999999996 -10 1 0 0 0 0 7.4999999940800937 1 I I #
coedge $-1 -1 $-1 $463 $464 $325 $413 reversed $465 $-1 #
edge $466 -1 $-1 $334 -1.4433800000000006 $337 1.4433799999999999 $412 $467 forward @7 unknown #
coedge $-1 -1 $-1 $326 $329 $468 $469 forward $301 $-1 #
attrib_edge_convexity-kcp-attrib $-1 -1 $470 $-1 $328 1 #
straight-curve $-1 -1 $-1 2.0525800000000007 27.499999994080092 -9.9999999993833448 0 -8.2220965837482458e-011 1 I I #
coedge $-1 -1 $-1 $444 $471 $329 $418 forward $472 $-1 #
edge $473 -1 $-1 $474 3.6999428735220077e-010 $331 1.5707963267126757 $329 $475 reversed @7 unknown #
convexity-sys-attrib $-1 -1 $-1 $330 $219 #
point $-1 -1 $-1 2.0525799999999998 27.499999994080092 -9.9999999993833431 #
convexity-sys-attrib $-1 -1 $-1 $333 $221 #
edge $476 -1 $-1 $477 4.6249271070989912e-010 $334 20.000000002312461 $463 $478 reversed @7 unknown #
point $-1 -1 $-1 0.60921000000000036 20.000000001849969 -5.0000000059199063 #
convexity-sys-attrib $-1 -1 $-1 $336 $224 #
edge $479 -1 $-1 $480 0 $337 20.000000001849969 $481 $482 reversed @7 unknown #
point $-1 -1 $-1 -2.2775500000000002 20.000000001849969 -5.0000000059199063 #
convexity-sys-attrib $-1 -1 $-1 $339 $226 #
coedge $-1 -1 $-1 $483 $484 $485 $486 forward $344 $-1 #
straight-curve $-1 -1 $-1 -2.8867500010680751 15.000000000739989 0 0 0 -1 I I #
point $-1 -1 $-1 -2.8867500010680751 -15.000000000739989 -50.000000000945541 #
straight-curve $-1 -1 $-1 -2.8867500010680751 0 -50.000000000945541 0 1 0 I I #
point $-1 -1 $-1 -2.8867500010680751 15.000000000739989 -50.000000000945541 #
straight-curve $-1 -1 $-1 2.8867500010680751 15.000000000739989 0 0 0 -1 I I #
point $-1 -1 $-1 2.8867500010680742 15.000000000739989 47.500000003412168 #
point $-1 -1 $-1 2.8867500010680751 15.000000000739989 -50.000000000945541 #
straight-curve $-1 -1 $-1 2.8867500010680751 0 -50.000000000945541 0 -1 0 I I #
straight-curve $-1 -1 $-1 -2.8867500010680751 15.000000000739989 0 0 0 -1 I I #
point $-1 -1 $-1 -2.8867500010680751 15.000000000739989 -50.000000000945541 #
point $-1 -1 $-1 -2.8867500010680751 15.000000000739989 47.499999999712244 #
straight-curve $-1 -1 $-1 -2.8867500010680747 7.4999999944089755 47.499999999095586 0 1 8.2220965838749996e-011 I I #
model_id-kcp-attrib $-1 -1 $-1 $-1 $389 1 1021324292 1021324292 123863041 10 #
face $487 -1 $-1 $488 $401 $8 $-1 $489 reversed single #
cone-surface $-1 -1 $-1 -2.9992350000000001 19.999999999999996 -10 -1 0 0 0 0 6.2499999940800945 1 I I 0.86602625473013028 0.49999852611593115 6.2499999940800945 forward I I I I #
coedge $-1 -1 $-1 $490 $417 $391 $445 reversed $472 $-1 #
edge $491 -1 $-1 $395 -1.4433742547326427 $331 1.4433742547326343 $444 $492 forward @7 unknown #
coedge $-1 -1 $-1 $493 $392 $400 $405 reversed $448 $-1 #
coedge $-1 -1 $-1 $392 $493 $490 $452 forward $448 $-1 #
loop $-1 -1 $-1 $-1 $392 $488 #
attrib_edge_convexity-kcp-attrib $-1 -1 $494 $-1 $393 3 #
straight-curve $-1 -1 $-1 -0.8341700000000003 29.999999994080092 -9.9999999991777901 1 0 0 I I #
convexity-sys-attrib $-1 -1 $-1 $394 $306 #
edge $-1 -1 $-1 $495 3.6999416885540035e-010 $395 1.5707963267126757 $490 $496 reversed @7 unknown #
point $-1 -1 $-1 0.60921000000000036 29.999999994080092 -9.9999999991777901 #
coedge $-1 -1 $-1 $400 $399 $497 $498 forward $401 $-1 #
convexity-sys-attrib $-1 -1 $-1 $402 $311 #
vertex $-1 -1 $-1 $499 $500 #
ellipse-curve $-1 -1 $-1 -2.2775500000000002 19.999999999999996 -10 1 0 0 0 0 9.9999999940800937 1 I I #
coedge $-1 -1 $-1 $481 $501 $407 $459 reversed $502 $-1 #
edge $503 -1 $-1 $337 -1.4433742547326358 $410 1.4433742547326422 $458 $504 forward @7 unknown #
convexity-sys-attrib $-1 -1 $-1 $409 $323 #
edge $505 -1 $-1 $506 -4.6249271070989943e-010 $410 20.000000002312461 $507 $508 reversed @7 unknown #
point $-1 -1 $-1 -3.7209200000000009 20.000000002774954 -2.5000000059199059 #
coedge $-1 -1 $-1 $509 $412 $510 $422 reversed $465 $-1 #
coedge $-1 -1 $-1 $412 $509 $481 $425 forward $465 $-1 #
loop $-1 -1 $-1 $-1 $412 $511 #
attrib_edge_convexity-kcp-attrib $-1 -1 $512 $-1 $413 4 #
straight-curve $-1 -1 $-1 -0.83417000000000019 20.000000001849969 -5.0000000059199063 -1 0 0 I I #
coedge $-1 -1 $-1 $513 $510 $414 $469 reversed $514 $-1 #
edge $515 -1 $-1 $474 -1.4433742547326383 $334 1.4433742547326385 $468 $516 forward @7 unknown #
convexity-sys-attrib $-1 -1 $-1 $415 $328 #
coedge $-1 -1 $-1 $417 $490 $517 $518 forward $472 $-1 #
loop $-1 -1 $-1 $-1 $444 $519 #
attrib_edge_convexity-kcp-attrib $-1 -1 $520 $-1 $418 1 #
vertex $-1 -1 $-1 $521 $522 #
ellipse-curve $-1 -1 $-1 2.0525799999999998 19.999999999999996 -10 1 0 0 0 0 7.4999999940800937 1 I I #
attrib_edge_convexity-kcp-attrib $-1 -1 $523 $-1 $422 1 #
vertex $-1 -1 $-1 $524 $525 #
straight-curve $-1 -1 $-1 0.60921000000000036 -4.6249271070989912e-010 -4.999999998520023 0 -1 3.6999416856791937e-010 I I #
attrib_edge_convexity-kcp-attrib $-1 -1 $526 $-1 $425 1 #
vertex $-1 -1 $-1 $527 $528 #
coedge $-1 -1 $-1 $529 $458 $464 $425 reversed $502 $-1 #
straight-curve $-1 -1 $-1 -2.2775500000000002 -2.5849394142282115e-026 -4.999999998520023 0 -1 3.6999416856791937e-010 I I #
coedge $-1 -1 $-1 $530 $428 $531 $532 forward $344 $-1 #
coedge $-1 -1 $-1 $428 $533 $534 $535 forward $344 $-1 #
coedge $-1 -1 $-1 $536 $537 $428 $486 reversed $538 $-1 #
edge $539 -1 $-1 $540 -2.1650700000000005 $541 0.72169000000000039 $485 $542 reversed @7 unknown #
model_id-kcp-attrib $-1 -1 $-1 $-1 $442 1 1021324292 1021324292 123863041 11 #
face $543 -1 $-1 $519 $448 $8 $-1 $544 reversed single #
cone-surface $-1 -1 $-1 -2.9992350000000001 19.999999999999996 -10 -1 0 0 0 0 8.7499999940800937 1 I I 0.86602625473013028 -0.49999852611593115 8.7499999940800937 forward I I I I #
coedge $-1 -1 $-1 $471 $444 $447 $452 reversed $472 $-1 #
attrib_edge_convexity-kcp-attrib $-1 -1 $545 $-1 $445 3 #
straight-curve $-1 -1 $-1 1.3308950000000026 28.749999994080088 -9.9999999992805666 0.49999852611593132 -0.86602625473013017 -7.1205510269634744e-011 I I #
coedge $-1 -1 $-1 $447 $446 $546 $547 forward $448 $-1 #
convexity-sys-attrib $-1 -1 $-1 $449 $393 #
vertex $-1 -1 $-1 $548 $549 #
ellipse-curve $-1 -1 $-1 0.60921000000000036 19.999999999999996 -10 1 0 0 0 0 9.9999999940800937 1 I I #
coedge $-1 -1 $-1 $507 $550 $454 $498 reversed $551 $-1 #
edge $552 -1 $-1 $410 -1.443374254732632 $456 1.4433742547326447 $497 $553 forward @7 unknown #
edge $554 -1 $-1 $541 -4.6249271070989922e-010 $456 20.000000003237446 $537 $555 reversed @7 unknown #
point $-1 -1 $-1 -2.2775500000000006 20.000000003699938 -5.9199063429105081e-009 #
coedge $-1 -1 $-1 $458 $529 $507 $461 forward $502 $-1 #
loop $-1 -1 $-1 $-1 $458 $556 #
attrib_edge_convexity-kcp-attrib $-1 -1 $557 $-1 $459 4 #
straight-curve $-1 -1 $-1 -2.9992349999999992 20.000000002312461 -3.750000005919909 -0.49999852611593137 3.2042484904424234e-010 0.86602625473013017 I I #
attrib_edge_convexity-kcp-attrib $-1 -1 $558 $-1 $461 1 #
vertex $-1 -1 $-1 $532 $559 #
coedge $-1 -1 $-1 $531 $497 $501 $461 reversed $551 $-1 #
straight-curve $-1 -1 $-1 -3.7209200000000004 4.6249271070989943e-010 -2.4999999985200225 0 -1 3.6999416856791937e-010 I I #
coedge $-1 -1 $-1 $464 $463 $560 $524 reversed $465 $-1 #
coedge $-1 -1 $-1 $468 $561 $463 $422 forward $514 $-1 #
face $562 -1 $-1 $556 $465 $8 $-1 $563 reversed single #
convexity-sys-attrib $-1 -1 $-1 $466 $413 #
coedge $-1 -1 $-1 $561 $468 $564 $521 reversed $514 $-1 #
loop $-1 -1 $-1 $-1 $468 $565 #
attrib_edge_convexity-kcp-attrib $-1 -1 $566 $-1 $469 4 #
straight-curve $-1 -1 $-1 1.3308950000000004 20.000000002312461 -3.7500000059199063 -0.49999852611593137 -3.2042484904424219e-010 -0.86602625473013006 I I #
coedge $-1 -1 $-1 $567 $564 $471 $518 reversed $568 $-1 #
edge $569 -1 $-1 $495 -1.4433742547326442 $474 1.4433742547326334 $517 $570 forward @7 unknown #
face $571 -1 $-1 $572 $472 $8 $-1 $573 reversed single #
convexity-sys-attrib $-1 -1 $-1 $473 $418 #
edge $574 -1 $-1 $575 4.6249271070989922e-010 $474 20.000000003237446 $513 $576 reversed @7 unknown #
point $-1 -1 $-1 2.0525800000000007 20.000000002774954 -2.5000000059199068 #
convexity-sys-attrib $-1 -1 $-1 $476 $422 #
edge $577 -1 $-1 $480 -2.1650700000000001 $477 0.7216900000000005 $509 $578 reversed @7 unknown #
point $-1 -1 $-1 0.60921000000000036 0 -4.999999998520023 #
convexity-sys-attrib $-1 -1 $-1 $479 $425 #
edge $579 -1 $-1 $506 -2.1650596273652218 $480 0.72168888210005622 $529 $580 reversed @7 unknown #
point $-1 -1 $-1 -2.2775500000000002 -2.5849394142282115e-026 -4.999999998520023 #
coedge $-1 -1 $-1 $501 $481 $530 $527 reversed $502 $-1 #
coedge $-1 -1 $-1 $560 $483 $529 $527 forward $344 $-1 #
coedge $-1 -1 $-1 $550 $507 $483 $532 reversed $551 $-1 #
edge $581 -1 $-1 $541 -2.1650631368326949 $506 0.72168537263258181 $531 $582 reversed @7 unknown #
coedge $-1 -1 $-1 $484 $560 $561 $583 forward $344 $-1 #
coedge $-1 -1 $-1 $564 $567 $484 $535 reversed $568 $-1 #
edge $584 -1 $-1 $575 -2.1650596273652214 $540 0.72168888210005644 $534 $585 reversed @7 unknown #
coedge $-1 -1 $-1 $546 $485 $567 $548 forward $538 $-1 #
coedge $-1 -1 $-1 $485 $546 $550 $499 reversed $538 $-1 #
loop $-1 -1 $-1 $-1 $546 $586 #
attrib_edge_convexity-kcp-attrib $-1 -1 $587 $-1 $486 1 #
vertex $-1 -1 $-1 $486 $588 #
vertex $-1 -1 $-1 $486 $589 #
straight-curve $-1 -1 $-1 -1.5558600000000002 0 1.4799765858987467e-009 1 0 0 I I #
model_id-kcp-attrib $-1 -1 $-1 $-1 $488 1 1021324292 1021324292 123863041 12 #
cone-surface $-1 -1 $-1 -0.83417000000000019 19.999999999999996 -10 -1 0 0 0 0 9.9999999940800937 1 I I 0 -1 9.9999999940800937 forward I I I I #
convexity-sys-attrib $-1 -1 $-1 $491 $445 #
coedge $-1 -1 $-1 $537 $536 $493 $547 reversed $538 $-1 #
edge $590 -1 $-1 $456 -1.4433800000000003 $495 1.4433799999999999 $546 $591 forward @7 unknown #
edge $592 -1 $-1 $540 5.6242501558034976e-026 $495 20.000000003699938 $567 $593 reversed @7 unknown #
point $-1 -1 $-1 0.60920999999999947 20.000000003699938 -5.9199070090443229e-009 #
coedge $-1 -1 $-1 $497 $531 $537 $499 forward $551 $-1 #
loop $-1 -1 $-1 $-1 $497 $594 #
attrib_edge_convexity-kcp-attrib $-1 -1 $595 $-1 $498 3 #
straight-curve $-1 -1 $-1 -2.9992350000000036 20.000000003237446 -1.2500000059199117 0.49999852611593143 3.2042470830640431e-010 0.86602625473013006 I I #
attrib_edge_convexity-kcp-attrib $-1 -1 $596 $-1 $499 1 #
straight-curve $-1 -1 $-1 -2.2775500000000006 4.6249271070989922e-010 1.479976585727627e-009 0 -1 3.6999416856791937e-010 I I #
face $597 -1 $-1 $594 $502 $8 $-1 $598 reversed single #
convexity-sys-attrib $-1 -1 $-1 $503 $459 #
convexity-sys-attrib $-1 -1 $-1 $505 $461 #
point $-1 -1 $-1 -3.7209200000000004 0 -2.4999999985200225 #
coedge $-1 -1 $-1 $533 $530 $509 $524 forward $344 $-1 #
coedge $-1 -1 $-1 $510 $513 $533 $583 reversed $514 $-1 #
model_id-kcp-attrib $-1 -1 $-1 $-1 $511 1 1021324292 1021324292 123863041 16 #
plane-surface $-1 -1 $-1 0.60920999999999992 0 -4.999999998520023 0 3.6999416856791937e-010 1 1.0000000000000002 0 0 forward_v I I I I #
coedge $-1 -1 $-1 $517 $534 $513 $521 forward $568 $-1 #
face $599 -1 $-1 $511 $514 $8 $-1 $600 reversed single #
convexity-sys-attrib $-1 -1 $-1 $515 $469 #
coedge $-1 -1 $-1 $534 $517 $536 $548 reversed $568 $-1 #
loop $-1 -1 $-1 $-1 $517 $572 #
attrib_edge_convexity-kcp-attrib $-1 -1 $601 $-1 $518 3 #
straight-curve $-1 -1 $-1 1.3308950000000026 20.000000003237446 -1.2500000059199117 0.49999852611593143 -3.2042470830640431e-010 -0.86602625473013006 I I #
model_id-kcp-attrib $-1 -1 $-1 $-1 $519 1 1021324292 1021324292 123863041 13 #
face $602 -1 $-1 $565 $568 $8 $-1 $603 reversed single #
cone-surface $-1 -1 $-1 1.3308949999999999 19.999999999999996 -10 -1 0 0 0 0 8.7499999940800937 1 I I -0.86602625473013028 -0.49999852611593115 8.7499999940800937 forward I I I I #
attrib_edge_convexity-kcp-attrib $-1 -1 $604 $-1 $521 1 #
vertex $-1 -1 $-1 $583 $605 #
straight-curve $-1 -1 $-1 2.0525800000000003 -4.6249271070989922e-010 -2.4999999985200234 0 -1 3.6999416856791937e-010 I I #
attrib_edge_convexity-kcp-attrib $-1 -1 $606 $-1 $524 1 #
straight-curve $-1 -1 $-1 -0.11248000000000014 0 -4.999999998520023 -1 0 0 I I #
attrib_edge_convexity-kcp-attrib $-1 -1 $607 $-1 $527 1 #
straight-curve $-1 -1 $-1 -2.6383933773642827 -2.5849394142282115e-026 -4.3749984788745371 -0.49999852611593137 0 0.86602625473013028 I I #
attrib_edge_convexity-kcp-attrib $-1 -1 $608 $-1 $532 1 #
straight-curve $-1 -1 $-1 -3.3600783773642831 0 -1.8750015181655093 0.49999852611593137 0 0.86602625473013028 I I #
edge $609 -1 $-1 $477 -2.1650631368326945 $575 0.7216853726325827 $561 $610 reversed @7 unknown #
attrib_edge_convexity-kcp-attrib $-1 -1 $611 $-1 $535 1 #
straight-curve $-1 -1 $-1 0.97005337736428232 2.5849394142282115e-026 -0.62500151816550953 0.49999852611593137 0 -0.86602625473013028 I I #
face $612 -1 $-1 $139 $538 $8 $-1 $613 reversed single #
convexity-sys-attrib $-1 -1 $-1 $539 $486 #
point $-1 -1 $-1 0.60921000000000014 8.2091895700317091e-026 1.479976807772232e-009 #
point $-1 -1 $-1 -2.2775500000000006 0 1.4799765858987467e-009 #
attrib_edge_convexity-kcp-attrib $-1 -1 $614 $-1 $547 3 #
straight-curve $-1 -1 $-1 -0.8341700000000003 20.000000003699938 -5.9199063429105081e-009 1 0 0 I I #
attrib_edge_convexity-kcp-attrib $-1 -1 $615 $-1 $548 1 #
straight-curve $-1 -1 $-1 0.60921000000000014 2.5849394142282115e-026 1.479976807772232e-009 0 -1 3.6999416856791937e-010 I I #
face $616 -1 $-1 $586 $551 $8 $-1 $617 reversed single #
convexity-sys-attrib $-1 -1 $-1 $552 $498 #
convexity-sys-attrib $-1 -1 $-1 $554 $499 #
model_id-kcp-attrib $-1 -1 $-1 $-1 $556 1 1021324292 1021324292 123863041 17 #
plane-surface $-1 -1 $-1 -2.2775500000000002 0 -4.999999998520023 0.86602625473013028 1.8499653895544914e-010 0.49999852611593137 0.49999852611593149 0 -0.86602625473013051 forward_v I I I I #
model_id-kcp-attrib $-1 -1 $-1 $-1 $565 1 1021324292 1021324292 123863041 15 #
plane-surface $-1 -1 $-1 2.0525800000000003 0 -2.4999999985200234 -0.86602625473013028 1.8499653895544914e-010 0.49999852611593137 0.49999852611593149 0 0.86602625473013051 forward_v I I I I #
convexity-sys-attrib $-1 -1 $-1 $569 $518 #
model_id-kcp-attrib $-1 -1 $-1 $-1 $572 1 1021324292 1021324292 123863041 14 #
plane-surface $-1 -1 $-1 0.60920999999999992 0 1.4799766742716779e-009 -0.86602625473013028 -1.8499653895544914e-010 -0.49999852611593137 -0.49999852611593149 0 0.86602625473013051 forward_v I I I I #
convexity-sys-attrib $-1 -1 $-1 $574 $521 #
point $-1 -1 $-1 2.0525800000000003 0 -2.4999999985200234 #
convexity-sys-attrib $-1 -1 $-1 $577 $524 #
convexity-sys-attrib $-1 -1 $-1 $579 $527 #
convexity-sys-attrib $-1 -1 $-1 $581 $532 #
attrib_edge_convexity-kcp-attrib $-1 -1 $618 $-1 $583 1 #
straight-curve $-1 -1 $-1 1.6917383773642827 0 -3.1249984788745375 -0.49999852611593137 0 -0.86602625473013028 I I #
convexity-sys-attrib $-1 -1 $-1 $584 $535 #
model_id-kcp-attrib $-1 -1 $-1 $-1 $586 1 1021324292 1021324292 123863041 19 #
plane-surface $-1 -1 $-1 -2.2775500000000002 0 1.4799766742716779e-009 0 -3.6999416856791937e-010 -1 -1.0000000000000002 0 0 forward_v I I I I #
convexity-sys-attrib $-1 -1 $-1 $590 $547 #
convexity-sys-attrib $-1 -1 $-1 $592 $548 #
model_id-kcp-attrib $-1 -1 $-1 $-1 $594 1 1021324292 1021324292 123863041 18 #
plane-surface $-1 -1 $-1 -3.7209200000000009 0 -2.4999999985200234 0.86602625473013028 -1.8499653895544914e-010 -0.49999852611593137 -0.49999852611593149 0 -0.86602625473013051 forward_v I I I I #
convexity-sys-attrib $-1 -1 $-1 $609 $583 #
End-of-ACIS-data 