600 0 1 0           
86 GICL ACIS Healer - Source: /gicl/data5/repository/CMU/Tools/5mm_allen_wrench.sat - 6 0 18 ACIS 6.0.3 Solaris 24 Sat Apr 13 00:32:04 2002 
1 9.999999999999999547e-07 1.000000000000000036e-10 
body $-1 $1 $-1 $-1 #
lump $-1 $-1 $2 $0 #
shell $-1 $-1 $-1 $3 $-1 $1 #
face $-1 $4 $5 $2 $-1 $6 reversed single #
face $-1 $7 $8 $2 $-1 $9 reversed single #
loop $-1 $-1 $10 $3 #
plane-surface $-1 0.6092099999999999183 24.99999999408009188 -9.99999999958889596 0 1 0 0 0 1.000000000000000222 forward_v I I I I #
face $-1 $11 $12 $2 $-1 $13 reversed single #
loop $-1 $-1 $14 $4 #
plane-surface $-1 -2.277550000000000185 24.99999999408009188 -9.99999999958889596 0.8660262547301302849 0.4999985261159313743 1.354003295480770993e-16 1.186757484098897962e-11 -2.055505257541235521e-11 -1.000000000000000222 forward_v I I I I #
coedge $-1 $15 $16 $17 $18 reversed $5 $-1 #
face $-1 $19 $20 $2 $-1 $21 reversed single #
loop $-1 $-1 $22 $7 #
plane-surface $-1 -3.720920000000000893 27.49999999408009188 -9.999999999383343052 0.8660262547301302849 -0.4999985261159313743 -4.111036173456957043e-11 -4.747011018433883849e-11 0 -1.000000000000000222 forward_v I I I I #
coedge $-1 $23 $24 $25 $26 reversed $8 $-1 #
coedge $-1 $27 $10 $28 $29 reversed $5 $-1 #
coedge $-1 $10 $27 $23 $30 forward $5 $-1 #
coedge $-1 $25 $31 $10 $18 forward $32 $-1 #
edge $-1 $33 -0.3046049957276902864 $34 2.582154999999984657 $10 $35 forward 7 unknown #
face $-1 $36 $37 $2 $-1 $38 reversed single #
loop $-1 $-1 $39 $11 #
plane-surface $-1 -2.277550000000000185 29.99999999408009188 -9.999999999177791921 0 -1 -8.222096583748244544e-11 0 8.222096583748245836e-11 -1.000000000000000222 forward_v I I I I #
coedge $-1 $40 $41 $42 $43 reversed $12 $-1 #
coedge $-1 $44 $14 $16 $30 reversed $8 $-1 #
coedge $-1 $14 $44 $40 $45 forward $8 $-1 #
coedge $-1 $42 $17 $14 $26 forward $32 $-1 #
edge $-1 $34 -1.595679821015312472 $46 1.291068692722302291 $14 $47 forward 7 unknown #
coedge $-1 $16 $15 $48 $49 forward $5 $-1 #
coedge $-1 $50 $51 $15 $29 forward $52 $-1 #
edge $-1 $53 5.481393117179322871e-10 $33 90.0000000009592469 $15 $54 reversed 7 unknown #
edge $-1 $55 4.11102263342399965e-10 $34 90.00000000082221163 $23 $56 reversed 7 unknown #
coedge $-1 $17 $57 $50 $58 forward $32 $-1 #
loop $-1 $-1 $17 $59 #
vertex $-1 $29 $60 #
vertex $-1 $30 $61 #
straight-curve $-1 0.3046049999999999036 24.99999999408009188 -100.0000000004111058 -1 0 0 I I #
face $-1 $62 $52 $2 $-1 $63 reversed single #
loop $-1 $-1 $64 $19 #
plane-surface $-1 0.6092099999999999183 29.99999999408009188 -9.999999999177791921 -0.8660262547301302849 -0.4999985261159313743 -4.111036173456957043e-11 -4.747011018433883849e-11 0 1.000000000000000222 forward_v I I I I #
coedge $-1 $65 $66 $67 $68 reversed $20 $-1 #
coedge $-1 $69 $22 $24 $45 reversed $12 $-1 #
coedge $-1 $22 $69 $65 $70 forward $12 $-1 #
coedge $-1 $67 $25 $22 $43 forward $32 $-1 #
edge $-1 $46 -2.01276007994176398 $71 0.8739884337958181426 $22 $72 forward 7 unknown #
coedge $-1 $24 $23 $73 $74 forward $8 $-1 #
edge $-1 $75 -3.425881800467326277e-11 $46 90.00000000078794926 $40 $76 reversed 7 unknown #
vertex $-1 $45 $77 #
straight-curve $-1 -3.075387558660573895 26.38190061322242741 -100.00000000029749 -0.4999985261159313743 0.8660262547301302849 7.120551510452890887e-11 I I #
coedge $-1 $78 $79 $27 $49 reversed $80 $-1 #
edge $-1 $53 -1.443379999999999663 $55 1.443379999999999441 $48 $81 forward 7 unknown #
coedge $-1 $82 $28 $31 $58 reversed $52 $-1 #
coedge $-1 $28 $82 $83 $84 forward $52 $-1 #
loop $-1 $-1 $50 $36 #
vertex $-1 $85 $86 #
straight-curve $-1 0.6092100000000001403 24.99999999408009188 -9.999999999451860688 4.747011018433882556e-11 -0 1 I I #
vertex $-1 $87 $88 #
straight-curve $-1 -2.277549999999999297 24.99999999408009188 -9.99999999958889596 -1.563466798016075444e-16 0 1 I I #
coedge $-1 $31 $67 $64 $89 forward $32 $-1 #
edge $-1 $90 0.5693893304042921821 $33 3.456137848414215341 $50 $91 forward 7 unknown #
face $-1 $92 $32 $2 $-1 $93 forward single #
point $-1 0.60920999572769019 24.99999999408009188 -100.0000000004111058 #
point $-1 -2.277549999999984642 24.99999999408009188 -100.0000000004111058 #
face $-1 $94 $95 $2 $-1 $96 reversed single #
plane-surface $-1 2.052580000000000293 27.49999999408009188 -9.999999999383343052 -0.8660262547301302849 0.4999985261159313743 4.111036173456957043e-11 4.747011018433883849e-11 0 1.000000000000000222 forward_v I I I I #
coedge $-1 $97 $98 $57 $89 reversed $37 $-1 #
coedge $-1 $99 $39 $41 $70 reversed $20 $-1 #
coedge $-1 $39 $99 $97 $100 forward $20 $-1 #
coedge $-1 $57 $42 $39 $68 forward $32 $-1 #
edge $-1 $71 -1.138775000000000537 $101 1.747984999999999234 $39 $102 forward 7 unknown #
coedge $-1 $41 $40 $103 $104 forward $12 $-1 #
edge $-1 $105 -1.776356839400250465e-15 $71 90.00000000082221163 $65 $106 reversed 7 unknown #
vertex $-1 $70 $107 #
straight-curve $-1 -2.714542928740281358 29.24310307148233079 -100.0000000000622293 0.4999985261159313743 0.8660262547301302849 7.120551510452890887e-11 I I #
coedge $-1 $108 $109 $44 $74 reversed $110 $-1 #
edge $-1 $55 -1.443374254732635142 $75 1.443374254732642026 $73 $111 forward 7 unknown #
vertex $-1 $112 $113 #
straight-curve $-1 -3.720920000000000893 27.49999999408009188 -9.99999999941760187 2.373497691882951187e-11 -4.111061831946991129e-11 1 I I #
point $-1 -3.720920002136147708 27.49999999778004778 -100.0000000002055458 #
coedge $-1 $114 $48 $115 $85 reversed $80 $-1 #
coedge $-1 $48 $114 $108 $87 forward $80 $-1 #
loop $-1 $-1 $48 $94 #
straight-curve $-1 -0.8341700000000001891 24.99999999408009188 -10 -1 0 0 I I #
coedge $-1 $51 $50 $98 $116 reversed $52 $-1 #
coedge $-1 $117 $115 $51 $84 reversed $95 $-1 #
edge $-1 $118 -1.443374254732638473 $53 1.443374254732638917 $83 $119 forward 7 unknown #
edge $-1 $120 3.699945243458016991e-10 $53 1.570796326794896558 $78 $121 reversed 7 unknown #
point $-1 0.6092099999999994742 24.99999999408009188 -10 #
edge $-1 $122 3.699945243458016991e-10 $55 1.570796326794896336 $108 $123 reversed 7 unknown #
point $-1 -2.277549999999999741 24.99999999408009188 -9.999999999999998224 #
edge $-1 $101 0.1523020504066912861 $90 3.039050559871969703 $64 $124 forward 7 unknown #
vertex $-1 $116 $125 #
straight-curve $-1 2.337273825988284592 27.99310611077330435 -100.0000000001650164 -0.4999985261159313743 -0.8660262547301302849 -7.120551510452890887e-11 I I #
face $-1 $-1 $126 $2 $-1 $127 reversed single #
plane-surface $-1 -1.11022302462515654e-16 30 -100 0 8.222096583748244544e-11 -1 -1.000000000000000222 0 0 forward_v I I I I #
face $-1 $128 $80 $2 $-1 $129 reversed single #
loop $-1 $-1 $83 $62 #
cone-surface $-1 1.330894999999999939 19.99999999999999645 -10 -1 0 0 0 0 6.249999994080094545 1 I I -0.8660262547301302849 0.4999985261159313743 6.249999994080094545 forward I I I I #
coedge $-1 $130 $64 $66 $100 reversed $37 $-1 #
coedge $-1 $64 $130 $82 $116 forward $37 $-1 #
coedge $-1 $66 $65 $131 $132 forward $20 $-1 #
edge $-1 $133 -1.776356839400250465e-15 $101 90.00000000082222584 $97 $134 reversed 7 unknown #
vertex $-1 $100 $135 #
straight-curve $-1 -1.138775000000000093 30.00000000147997525 -100 1 0 0 I I #
coedge $-1 $136 $137 $69 $104 reversed $138 $-1 #
edge $-1 $75 -1.443374254732630257 $105 1.443374254732646467 $103 $139 forward 7 unknown #
vertex $-1 $140 $141 #
straight-curve $-1 -2.27755000000000063 29.99999999408009188 -9.999999999177791921 0 -8.222096583748244544e-11 1 I I #
point $-1 -2.27755000000000063 30.00000000147997525 -100 #
coedge $-1 $142 $73 $79 $87 reversed $110 $-1 #
coedge $-1 $73 $142 $136 $112 forward $110 $-1 #
loop $-1 $-1 $73 $128 #
straight-curve $-1 -2.999234999999998763 26.24999999408008833 -9.999999999999998224 -0.4999985261159313188 0.8660262547301301739 2.461394659435477426e-16 I I #
edge $-1 $143 3.699942873522007673e-10 $75 1.570796326712675661 $136 $144 reversed 7 unknown #
point $-1 -3.720919999999999561 27.49999999408009188 -9.999999999383343052 #
coedge $-1 $79 $78 $145 $146 forward $80 $-1 #
coedge $-1 $83 $147 $78 $85 forward $95 $-1 #
edge $-1 $118 -1.776356839400250465e-15 $90 90.00000000082221163 $82 $148 reversed 7 unknown #
coedge $-1 $147 $83 $149 $150 reversed $95 $-1 #
vertex $-1 $150 $151 #
straight-curve $-1 1.330894999999999939 26.24999999408009188 -9.999999999486119506 -0.4999985261159312078 -0.8660262547301301739 -7.120543996334294505e-11 I I #
vertex $-1 $152 $153 #
ellipse-curve $-1 0.6092099999999994742 19.99999999999999645 -10 1 -0 -0 0 0 4.999999994080093657 1 I I #
vertex $-1 $154 $155 #
ellipse-curve $-1 -2.277549999999999741 19.99999999999999645 -10 1 -0 -0 0 0 4.999999994080093657 1 I I #
straight-curve $-1 0.5330591992722192307 30.13189757578140515 -99.99999999998917133 0.4999985261159313743 -0.8660262547301302849 -7.120551510452890887e-11 I I #
point $-1 2.052580000000001181 27.50000000147997881 -100.00000000020556 #
loop $-1 $-1 $156 $92 #
plane-surface $-1 -0.8341700000000001891 0 -2.499999998520023414 0 1 0 -1 0 0 forward_v I I I I #
face $-1 $157 $110 $2 $-1 $158 reversed single #
cone-surface $-1 -0.8341700000000001891 19.99999999999999645 -10 -1 0 0 0 0 4.999999994080093657 1 I I 0 1 4.999999994080093657 forward I I I I #
coedge $-1 $98 $97 $159 $160 forward $37 $-1 #
coedge $-1 $161 $162 $99 $132 reversed $163 $-1 #
edge $-1 $105 -1.443379999999999885 $133 1.443380000000000773 $131 $164 forward 7 unknown #
vertex $-1 $165 $166 #
straight-curve $-1 0.6092099999999991411 29.99999999408009188 -9.999999999177791921 0 -8.222096583748244544e-11 1 I I #
point $-1 0.6092099999999991411 30.00000000147997881 -100.0000000000000142 #
coedge $-1 $167 $103 $109 $112 reversed $138 $-1 #
coedge $-1 $103 $167 $161 $140 forward $138 $-1 #
loop $-1 $-1 $103 $157 #
straight-curve $-1 -2.999235000000003648 28.74999999408008478 -9.999999999280566598 0.4999985261159314853 0.8660262547301300629 7.12055102696347831e-11 I I #
edge $-1 $168 3.69994168855400353e-10 $105 1.570796326712675661 $161 $169 reversed 7 unknown #
point $-1 -2.277550000000000185 29.99999999408009188 -9.999999999177790144 #
coedge $-1 $109 $108 $170 $171 forward $110 $-1 #
vertex $-1 $172 $173 #
ellipse-curve $-1 -3.720919999999999561 19.99999999999999645 -10 1 -0 -0 0 0 7.499999994080093657 1 I I #
coedge $-1 $174 $175 $114 $146 reversed $176 $-1 #
edge $-1 $120 -1.443380000000000551 $122 1.443379999999999885 $145 $177 forward 7 unknown #
coedge $-1 $115 $117 $178 $179 forward $95 $-1 #
straight-curve $-1 2.052580000000000737 27.49999999408009188 -9.999999999383344829 0 -8.222096583748245836e-11 1 I I #
coedge $-1 $159 $180 $117 $150 forward $181 $-1 #
edge $-1 $182 3.699942873522007673e-10 $118 1.570796326712675661 $117 $183 reversed 7 unknown #
point $-1 2.052579999999999849 27.49999999408009188 -9.999999999383343052 #
edge $-1 $184 4.624927107098991174e-10 $120 20.00000000231246133 $174 $185 reversed 7 unknown #
point $-1 0.6092100000000003623 20.00000000184996907 -5.000000005919906343 #
edge $-1 $186 -0 $122 20.00000000184996907 $187 $188 reversed 7 unknown #
point $-1 -2.277550000000000185 20.00000000184996907 -5.000000005919906343 #
coedge $-1 $189 $190 $191 $192 forward $126 $-1 #
face $-1 $193 $138 $2 $-1 $194 reversed single #
cone-surface $-1 -2.999235000000000095 19.99999999999999645 -10 -1 0 0 0 0 6.249999994080094545 1 I I 0.8660262547301302849 0.4999985261159311523 6.249999994080094545 forward I I I I #
coedge $-1 $195 $149 $130 $160 reversed $181 $-1 #
edge $-1 $133 -1.443374254732642692 $118 1.443374254732634254 $159 $196 forward 7 unknown #
coedge $-1 $197 $131 $137 $140 reversed $163 $-1 #
coedge $-1 $131 $197 $195 $165 forward $163 $-1 #
loop $-1 $-1 $131 $193 #
straight-curve $-1 -0.8341700000000003001 29.99999999408009188 -9.999999999177790144 1 0 0 I I #
edge $-1 $198 3.69994168855400353e-10 $133 1.570796326712675661 $195 $199 reversed 7 unknown #
point $-1 0.6092100000000003623 29.99999999408009188 -9.999999999177790144 #
coedge $-1 $137 $136 $200 $201 forward $138 $-1 #
vertex $-1 $202 $203 #
ellipse-curve $-1 -2.277550000000000185 19.99999999999999645 -10 1 -0 -0 0 0 9.999999994080093657 1 I I #
coedge $-1 $187 $204 $142 $171 reversed $205 $-1 #
edge $-1 $122 -1.443374254732635809 $143 1.443374254732642248 $170 $206 forward 7 unknown #
edge $-1 $207 -4.624927107098994276e-10 $143 20.00000000231246133 $208 $209 reversed 7 unknown #
point $-1 -3.720920000000000893 20.0000000027749536 -2.500000005919905899 #
coedge $-1 $210 $145 $211 $152 reversed $176 $-1 #
coedge $-1 $145 $210 $187 $154 forward $176 $-1 #
loop $-1 $-1 $145 $212 #
straight-curve $-1 -0.8341700000000001891 20.00000000184996907 -5.000000005919906343 -1 0 0 I I #
coedge $-1 $213 $211 $147 $179 reversed $214 $-1 #
edge $-1 $182 -1.443374254732638251 $120 1.443374254732638473 $178 $215 forward 7 unknown #
coedge $-1 $149 $195 $216 $217 forward $181 $-1 #
loop $-1 $-1 $159 $218 #
vertex $-1 $219 $220 #
ellipse-curve $-1 2.052579999999999849 19.99999999999999645 -10 1 -0 -0 0 0 7.499999994080093657 1 I I #
vertex $-1 $221 $222 #
straight-curve $-1 0.6092100000000003623 -4.624927107098991174e-10 -4.99999999852002297 0 -1 3.699941685679193663e-10 I I #
vertex $-1 $223 $224 #
coedge $-1 $225 $170 $175 $154 reversed $205 $-1 #
straight-curve $-1 -2.277550000000000185 -2.584939414228211484e-26 -4.99999999852002297 0 -1 3.699941685679193663e-10 I I #
coedge $-1 $226 $156 $227 $228 forward $126 $-1 #
coedge $-1 $156 $229 $230 $231 forward $126 $-1 #
coedge $-1 $232 $233 $156 $192 reversed $234 $-1 #
edge $-1 $235 -2.165070000000000494 $236 0.7216900000000003867 $191 $237 reversed 7 unknown #
face $-1 $218 $163 $2 $-1 $238 reversed single #
cone-surface $-1 -2.999235000000000095 19.99999999999999645 -10 -1 0 0 0 0 8.749999994080093657 1 I I 0.8660262547301302849 -0.4999985261159311523 8.749999994080093657 forward I I I I #
coedge $-1 $180 $159 $162 $165 reversed $181 $-1 #
straight-curve $-1 1.330895000000002604 28.74999999408008833 -9.999999999280566598 0.4999985261159313188 -0.8660262547301301739 -7.120551026963474432e-11 I I #
coedge $-1 $162 $161 $239 $240 forward $163 $-1 #
vertex $-1 $241 $242 #
ellipse-curve $-1 0.6092100000000003623 19.99999999999999645 -10 1 -0 -0 0 0 9.999999994080093657 1 I I #
coedge $-1 $208 $243 $167 $201 reversed $244 $-1 #
edge $-1 $143 -1.443374254732632034 $168 1.44337425473264469 $200 $245 forward 7 unknown #
edge $-1 $236 -4.624927107098992208e-10 $168 20.00000000323744587 $233 $246 reversed 7 unknown #
point $-1 -2.27755000000000063 20.00000000369993813 -5.919906342910508101e-09 #
coedge $-1 $170 $225 $208 $172 forward $205 $-1 #
loop $-1 $-1 $170 $247 #
straight-curve $-1 -2.999234999999999207 20.00000000231246133 -3.750000005919909007 -0.4999985261159313743 3.204248490442423411e-10 0.8660262547301301739 I I #
vertex $-1 $228 $248 #
coedge $-1 $227 $200 $204 $172 reversed $244 $-1 #
straight-curve $-1 -3.720920000000000449 4.624927107098994276e-10 -2.499999998520022526 0 -1 3.699941685679193663e-10 I I #
coedge $-1 $175 $174 $249 $221 reversed $176 $-1 #
coedge $-1 $178 $250 $174 $152 forward $214 $-1 #
face $-1 $247 $176 $2 $-1 $251 reversed single #
coedge $-1 $250 $178 $252 $219 reversed $214 $-1 #
loop $-1 $-1 $178 $253 #
straight-curve $-1 1.330895000000000383 20.00000000231246133 -3.750000005919906343 -0.4999985261159313743 -3.20424849044242186e-10 -0.8660262547301300629 I I #
coedge $-1 $254 $252 $180 $217 reversed $255 $-1 #
edge $-1 $198 -1.443374254732644246 $182 1.443374254732633366 $216 $256 forward 7 unknown #
face $-1 $257 $181 $2 $-1 $258 reversed single #
edge $-1 $259 4.624927107098992208e-10 $182 20.00000000323744587 $213 $260 reversed 7 unknown #
point $-1 2.052580000000000737 20.0000000027749536 -2.500000005919906787 #
edge $-1 $186 -2.16507000000000005 $184 0.7216900000000004978 $210 $261 reversed 7 unknown #
point $-1 0.6092100000000003623 0 -4.99999999852002297 #
edge $-1 $207 -2.165059627365221839 $186 0.7216888821000562171 $225 $262 reversed 7 unknown #
point $-1 -2.277550000000000185 -2.584939414228211484e-26 -4.99999999852002297 #
coedge $-1 $204 $187 $226 $223 reversed $205 $-1 #
coedge $-1 $249 $189 $225 $223 forward $126 $-1 #
coedge $-1 $243 $208 $189 $228 reversed $244 $-1 #
edge $-1 $236 -2.165063136832694912 $207 0.7216853726325818119 $227 $263 reversed 7 unknown #
coedge $-1 $190 $249 $250 $264 forward $126 $-1 #
coedge $-1 $252 $254 $190 $231 reversed $255 $-1 #
edge $-1 $259 -2.165059627365221395 $235 0.7216888821000564391 $230 $265 reversed 7 unknown #
coedge $-1 $239 $191 $254 $241 forward $234 $-1 #
coedge $-1 $191 $239 $243 $202 reversed $234 $-1 #
loop $-1 $-1 $239 $266 #
vertex $-1 $192 $267 #
vertex $-1 $192 $268 #
straight-curve $-1 -1.555860000000000243 0 1.479976585898746706e-09 1 -0 0 I I #
cone-surface $-1 -0.8341700000000001891 19.99999999999999645 -10 -1 0 0 0 0 9.999999994080093657 1 I I 0 -1 9.999999994080093657 forward I I I I #
coedge $-1 $233 $232 $197 $240 reversed $234 $-1 #
edge $-1 $168 -1.443380000000000329 $198 1.443379999999999885 $239 $269 forward 7 unknown #
edge $-1 $235 5.624250155803497608e-26 $198 20.00000000369993813 $254 $270 reversed 7 unknown #
point $-1 0.6092099999999994742 20.00000000369993813 -5.919907009044322876e-09 #
coedge $-1 $200 $227 $233 $202 forward $244 $-1 #
loop $-1 $-1 $200 $271 #
straight-curve $-1 -2.999235000000003648 20.00000000323744587 -1.250000005919911672 0.4999985261159314298 3.204247083064043142e-10 0.8660262547301300629 I I #
straight-curve $-1 -2.27755000000000063 4.624927107098992208e-10 1.479976585727627025e-09 0 -1 3.699941685679193663e-10 I I #
face $-1 $271 $205 $2 $-1 $272 reversed single #
point $-1 -3.720920000000000449 0 -2.499999998520022526 #
coedge $-1 $229 $226 $210 $221 forward $126 $-1 #
coedge $-1 $211 $213 $229 $264 reversed $214 $-1 #
plane-surface $-1 0.6092099999999999183 0 -4.99999999852002297 0 3.699941685679193663e-10 1 1.000000000000000222 0 0 forward_v I I I I #
coedge $-1 $216 $230 $213 $219 forward $255 $-1 #
face $-1 $212 $214 $2 $-1 $273 reversed single #
coedge $-1 $230 $216 $232 $241 reversed $255 $-1 #
loop $-1 $-1 $216 $257 #
straight-curve $-1 1.330895000000002604 20.00000000323744587 -1.250000005919911672 0.4999985261159314298 -3.204247083064043142e-10 -0.8660262547301300629 I I #
face $-1 $253 $255 $2 $-1 $274 reversed single #
cone-surface $-1 1.330894999999999939 19.99999999999999645 -10 -1 0 0 0 0 8.749999994080093657 1 I I -0.8660262547301302849 -0.4999985261159311523 8.749999994080093657 forward I I I I #
vertex $-1 $264 $275 #
straight-curve $-1 2.052580000000000293 -4.624927107098992208e-10 -2.499999998520023414 0 -1 3.699941685679193663e-10 I I #
straight-curve $-1 -0.1124800000000001354 0 -4.99999999852002297 -1 0 0 I I #
straight-curve $-1 -2.638393377364282699 -2.584939414228211484e-26 -4.374998478874537078 -0.4999985261159313743 0 0.8660262547301302849 I I #
straight-curve $-1 -3.360078377364283053 0 -1.875001518165509307 0.4999985261159313743 -0 0.8660262547301302849 I I #
edge $-1 $184 -2.165063136832694468 $259 0.7216853726325827001 $250 $276 reversed 7 unknown #
straight-curve $-1 0.970053377364282321 2.584939414228211484e-26 -0.6250015181655095287 0.4999985261159313743 0 -0.8660262547301302849 I I #
face $-1 $59 $234 $2 $-1 $277 reversed single #
point $-1 0.6092100000000001403 8.209189570031709092e-26 1.47997680777223195e-09 #
point $-1 -2.27755000000000063 0 1.479976585898746706e-09 #
straight-curve $-1 -0.8341700000000003001 20.00000000369993813 -5.919906342910508101e-09 1 0 0 I I #
straight-curve $-1 0.6092100000000001403 2.584939414228211484e-26 1.47997680777223195e-09 0 -1 3.699941685679193663e-10 I I #
face $-1 $266 $244 $2 $-1 $278 reversed single #
plane-surface $-1 -2.277550000000000185 0 -4.99999999852002297 0.8660262547301302849 1.849965389554491442e-10 0.4999985261159313743 0.4999985261159314853 0 -0.8660262547301305069 forward_v I I I I #
plane-surface $-1 2.052580000000000293 0 -2.499999998520023414 -0.8660262547301302849 1.849965389554491442e-10 0.4999985261159313743 0.4999985261159314853 0 0.8660262547301305069 forward_v I I I I #
plane-surface $-1 0.6092099999999999183 0 1.479976674271677879e-09 -0.8660262547301302849 -1.849965389554491442e-10 -0.4999985261159313743 -0.4999985261159314853 0 0.8660262547301305069 forward_v I I I I #
point $-1 2.052580000000000293 0 -2.499999998520023414 #
straight-curve $-1 1.691738377364282675 0 -3.124998478874537522 -0.4999985261159313743 0 -0.8660262547301302849 I I #
plane-surface $-1 -2.277550000000000185 0 1.479976674271677879e-09 0 -3.699941685679193663e-10 -1 -1.000000000000000222 0 0 forward_v I I I I #
plane-surface $-1 -3.720920000000000893 0 -2.499999998520023414 0.8660262547301302849 -1.849965389554491442e-10 -0.4999985261159313743 -0.4999985261159314853 0 -0.8660262547301305069 forward_v I I I I #
End-of-ACIS-data 