600 0 1 0           
94 GICL ACIS Healer - Source: /gicl/data5/repository/CMU/Tools/8mm_flathead_screwdriver.sat - 6 0 18 ACIS 6.0.3 Solaris 24 Sat Apr 13 00:32:13 2002 
1 9.999999999999999547e-07 1.000000000000000036e-10 
body $-1 $1 $-1 $-1 #
lump $-1 $2 $3 $0 #
lump $-1 $-1 $4 $0 #
shell $-1 $-1 $-1 $5 $-1 $1 #
shell $-1 $-1 $-1 $6 $-1 $2 #
face $-1 $7 $8 $3 $-1 $9 reversed single #
face $-1 $10 $11 $4 $-1 $12 forward single #
face $-1 $13 $14 $3 $-1 $15 forward single #
loop $-1 $-1 $16 $5 #
plane-surface $-1 4.399999999999994138 -231.0000000000001137 -4.440898911303130413e-16 -0.999999999999999778 0 1.665334536937734811e-16 0 -0.999999999999999889 0 forward_v I I I I #
face $-1 $17 $18 $4 $-1 $19 forward single #
loop $-1 $20 $21 $6 #
cone-surface $-1 0 -50.00000000000002842 0 0 1 0 -2.66453934678187805e-15 0 15.99999999999999289 1 I I 0 1 15.99999999999999467 forward I I I I #
face $-1 $22 $23 $3 $-1 $24 forward single #
loop $-1 $-1 $25 $7 #
plane-surface $-1 4.399999999999994138 -230.0000000000001137 6.999999999999999112 0.9989341128889919208 -0.04615883562961979603 -1.665334536937734811e-16 1.665337091738673781e-16 0 -0.9999999999999995559 forward_v I I I I #
coedge $-1 $26 $27 $28 $29 reversed $8 $-1 #
face $-1 $-1 $30 $4 $-1 $31 forward single #
loop $-1 $-1 $32 $10 #
plane-surface $-1 0 -100.0000000000000142 0 0 -1 0 1.665337091738673781e-16 0 -0.9999999999999995559 forward_v I I I I #
loop $-1 $-1 $33 $6 #
coedge $-1 $21 $21 $32 $34 reversed $11 $-1 #
face $-1 $35 $36 $3 $-1 $37 forward single #
loop $-1 $-1 $38 $13 #
plane-surface $-1 6.656859999999999111 -202.8000000000000398 -8.881797822606260825e-16 0 -1 0 0.9999999999999995559 0 -1.665337091738673781e-16 forward_v I I I I #
coedge $-1 $39 $40 $41 $42 reversed $14 $-1 #
coedge $-1 $43 $16 $44 $45 forward $8 $-1 #
coedge $-1 $16 $43 $46 $47 reversed $8 $-1 #
coedge $-1 $48 $49 $16 $29 forward $50 $-1 #
edge $-1 $51 -0.9999984658954987893 $52 -0.9996456218864785415 $28 $53 forward 7 unknown #
loop $-1 $-1 $54 $17 #
plane-surface $-1 0 -2.842170943040400743e-14 0 0 1 0 -1.665337091738673781e-16 0 0.9999999999999995559 forward_v I I I I #
coedge $-1 $32 $32 $21 $34 forward $18 $-1 #
coedge $-1 $33 $33 $54 $55 reversed $20 $-1 #
edge $-1 $56 0 $56 6.283185307179586232 $32 $57 forward 7 unknown #
face $-1 $58 $59 $3 $-1 $60 reversed single #
loop $-1 $-1 $61 $22 #
plane-surface $-1 -6.594890000000001251 -202.8000000000000966 8.881797822606260825e-16 0 -1 0 0.9999999999999995559 0 -1.665337091738673781e-16 forward_v I I I I #
coedge $-1 $62 $63 $64 $65 reversed $23 $-1 #
coedge $-1 $66 $25 $63 $67 forward $14 $-1 #
coedge $-1 $25 $44 $68 $69 reversed $14 $-1 #
coedge $-1 $70 $64 $25 $42 forward $71 $-1 #
edge $-1 $72 5.290574520883819076 $73 29.07261002953424978 $41 $74 forward 7 unknown #
coedge $-1 $27 $26 $75 $76 reversed $8 $-1 #
coedge $-1 $40 $77 $26 $45 reversed $14 $-1 #
edge $-1 $51 -0.7999999999999967137 $78 0.7999999999999960476 $26 $79 reversed 7 unknown #
coedge $-1 $80 $81 $27 $47 forward $82 $-1 #
edge $-1 $52 -0.7999987727164863394 $83 0.7999987727164918905 $46 $84 forward 7 unknown #
coedge $-1 $85 $28 $81 $86 reversed $50 $-1 #
coedge $-1 $28 $85 $87 $88 forward $50 $-1 #
loop $-1 $-1 $28 $89 #
vertex $-1 $29 $90 #
vertex $-1 $47 $91 #
straight-curve $-1 4.399999999999994138 -231 -0.7999999999999970468 0 -1.000001534106740975 0 I I #
coedge $-1 $54 $54 $33 $55 forward $30 $-1 #
edge $-1 $92 0 $92 6.283185307179586232 $54 $93 forward 7 unknown #
vertex $-1 $34 $94 #
ellipse-curve $-1 0 -100.0000000000000142 0 0 -1 0 -2.66453934678187805e-15 0 15.99999999999999289 1 I I #
face $-1 $95 $96 $3 $-1 $97 forward single #
loop $-1 $-1 $98 $35 #
plane-surface $-1 -4.400000000000000355 -231.0000000000001137 8.881797822606260825e-16 0.999999999999999778 0 -1.665334536937734811e-16 0 0.999999999999999889 0 forward_v I I I I #
coedge $-1 $99 $100 $101 $102 reversed $36 $-1 #
coedge $-1 $63 $38 $103 $104 reversed $23 $-1 #
coedge $-1 $38 $62 $39 $67 reversed $23 $-1 #
coedge $-1 $41 $105 $38 $65 forward $71 $-1 #
edge $-1 $106 -1.646448186894962085 $72 -1.646444046493253266 $64 $107 forward 7 unknown #
coedge $-1 $77 $39 $108 $109 reversed $14 $-1 #
edge $-1 $72 -2.927710616058360478e-06 $110 2.927710617834720282e-06 $63 $111 reversed 7 unknown #
coedge $-1 $87 $112 $40 $69 forward $113 $-1 #
edge $-1 $73 24.39447928021753853 $51 27.87936386595559313 $68 $114 forward 7 unknown #
coedge $-1 $115 $41 $112 $116 forward $71 $-1 #
loop $-1 $-1 $41 $117 #
vertex $-1 $42 $118 #
vertex $-1 $116 $119 #
straight-curve $-1 5.900807390812761177 -197.5206776967146993 0.2439444631021444043 -0.0461098109193654182 -0.9978731577158470589 -0.0461098109193654182 I I #
coedge $-1 $120 $121 $43 $76 forward $122 $-1 #
edge $-1 $83 0.9996456218864785415 $78 0.9999984658954987893 $75 $123 forward 7 unknown #
coedge $-1 $44 $66 $124 $125 reversed $14 $-1 #
vertex $-1 $126 $127 #
straight-curve $-1 4.399999999999994138 -230.0000000000001137 -4.440898911303130413e-16 1.665337091738673781e-16 0 -0.9999999999999995559 I I #
coedge $-1 $128 $46 $121 $129 forward $82 $-1 #
coedge $-1 $46 $128 $48 $86 forward $82 $-1 #
loop $-1 $-1 $46 $130 #
vertex $-1 $129 $131 #
straight-curve $-1 4.399999999999994138 -230.0003528445504344 -4.440898911303130413e-16 0 0 1.000001534106740753 I I #
coedge $-1 $49 $48 $98 $132 forward $50 $-1 #
edge $-1 $133 -4.399993249940696849 $52 4.399993249940689743 $81 $134 forward 7 unknown #
coedge $-1 $135 $68 $49 $88 reversed $113 $-1 #
edge $-1 $136 -4.40000000000000302 $51 4.399999999999995914 $49 $137 reversed 7 unknown #
face $-1 $130 $50 $3 $-1 $138 reversed single #
point $-1 4.399999999999995026 -230.0000000000001137 -0.7999999999999968248 #
point $-1 4.399999999999994138 -230.0003528445504344 -0.7999999999999966027 #
vertex $-1 $55 $139 #
ellipse-curve $-1 0 -2.842170943040400743e-14 0 0 1 0 -2.66453934678187805e-15 0 15.99999999999999289 1 I I #
point $-1 -2.66453934678187805e-15 -100.0000000000000142 15.99999999999999289 #
face $-1 $140 $141 $3 $-1 $142 reversed single #
loop $-1 $-1 $143 $58 #
plane-surface $-1 -5.594890000000003027 -202.8000000000000966 7.000000000000002665 -0.9990364815831820344 -0.04388745226025473484 1.665334536937734811e-16 -1.665337091738673781e-16 0 0.9999999999999995559 forward_v I I I I #
coedge $-1 $144 $145 $85 $132 reversed $59 $-1 #
coedge $-1 $100 $61 $146 $147 reversed $36 $-1 #
coedge $-1 $61 $99 $148 $149 reversed $36 $-1 #
coedge $-1 $150 $151 $61 $102 forward $141 $-1 #
edge $-1 $152 1.580715036483376412 $153 1.668357856898253777 $101 $154 forward 7 unknown #
coedge $-1 $155 $108 $62 $104 forward $156 $-1 #
edge $-1 $110 1.646444046493252822 $106 1.646448186894961641 $103 $157 forward 7 unknown #
coedge $-1 $64 $158 $155 $159 forward $71 $-1 #
vertex $-1 $104 $160 #
straight-curve $-1 4.492646463855307637 -202.8000000000000398 -1.164216463855308747 -0.7071078659638269093 0 -0.7071078659638269093 I I #
coedge $-1 $103 $161 $66 $109 forward $156 $-1 #
edge $-1 $162 -28.74984234341965816 $110 -4.967806834769180391 $108 $163 forward 7 unknown #
vertex $-1 $109 $164 #
straight-curve $-1 5.656859999999999999 -202.8000000000000398 -1.332269673390939025e-15 1.665337091738673781e-16 0 -0.9999999999999995559 I I #
coedge $-1 $68 $165 $70 $116 reversed $113 $-1 #
loop $-1 $-1 $68 $140 #
straight-curve $-1 5.682211923170338075 -202.2513531258586283 -3.172729147371008196 -0.04599143399882586747 -0.9953113352068363451 0.0851070045492838545 I I #
coedge $-1 $166 $70 $167 $168 forward $71 $-1 #
edge $-1 $73 -57.84712179248424491 $169 -4.127226021837591574 $70 $170 forward 7 unknown #
face $-1 $-1 $71 $3 $-1 $171 reversed single #
point $-1 5.656859999999999999 -202.8000000000000398 -2.927710617390628954e-06 #
point $-1 4.560274839418489989 -226.531454869927444 -1.096588088292126173 #
coedge $-1 $172 $75 $173 $126 forward $122 $-1 #
coedge $-1 $75 $172 $80 $129 reversed $122 $-1 #
loop $-1 $-1 $75 $174 #
straight-curve $-1 4.399999999999994138 -231 0.8000000000000014877 0 1.000001534106740975 0 I I #
coedge $-1 $175 $173 $77 $125 forward $176 $-1 #
edge $-1 $78 -0.001680535153293217891 $162 3.483204050584708167 $124 $177 forward 7 unknown #
edge $-1 $78 -4.399999999999996803 $178 4.40000000000000302 $120 $179 reversed 7 unknown #
point $-1 4.399999999999995026 -230.0000000000001137 0.7999999999999952704 #
coedge $-1 $81 $80 $144 $180 forward $82 $-1 #
edge $-1 $83 -4.399993249940690632 $181 4.399993249940695961 $80 $182 forward 7 unknown #
face $-1 $174 $82 $3 $-1 $183 reversed single #
point $-1 4.399999999999995026 -230.0003528445504344 0.8000000000000012657 #
edge $-1 $133 0.9996456218864785415 $136 0.9999984658954987893 $85 $184 forward 7 unknown #
vertex $-1 $86 $185 #
straight-curve $-1 3.885786547390238988e-16 -230.0003528445504344 -0.7999999999999968248 1.000001534106740753 0 0 I I #
coedge $-1 $186 $87 $187 $188 forward $113 $-1 #
vertex $-1 $88 $189 #
straight-curve $-1 7.216460730867587044e-16 -229.9999999999999432 -0.7999999999999970468 -0.9999999999999995559 0 1.665337091738673781e-16 I I #
plane-surface $-1 7.216460730867587044e-16 -230.9999999999999432 -0.7999999999999970468 -1.665334536937734811e-16 0 0.999999999999999778 0 -0.999999999999999889 0 forward_v I I I I #
point $-1 -2.66453934678187805e-15 -2.842170943040400743e-14 15.99999999999999289 #
face $-1 $190 $113 $3 $-1 $191 forward single #
loop $-1 $-1 $151 $95 #
plane-surface $-1 -2.828431463855307637 -165.0002531276122681 -2.828431463855307637 0.7071067811865473507 0 0.7071067811865473507 0 1.000001534106740975 0 forward_v I I I I #
coedge $-1 $187 $146 $151 $192 reversed $96 $-1 #
coedge $-1 $193 $98 $128 $180 reversed $59 $-1 #
coedge $-1 $98 $193 $194 $195 forward $59 $-1 #
coedge $-1 $143 $196 $99 $147 forward $96 $-1 #
edge $-1 $197 -0.06197292771061550104 $152 0.06197292771061372468 $99 $198 reversed 7 unknown #
coedge $-1 $199 $200 $100 $149 forward $201 $-1 #
edge $-1 $153 -1.668357856898254221 $197 -1.580715036483376856 $148 $202 forward 7 unknown #
coedge $-1 $203 $101 $200 $204 reversed $141 $-1 #
coedge $-1 $101 $205 $143 $192 forward $141 $-1 #
vertex $-1 $192 $206 #
vertex $-1 $149 $207 #
straight-curve $-1 -4.47715396385530795 -202.8000000000000966 -1.179708963855307324 -0.7071078659638270203 0 0.7071078659638270203 I I #
coedge $-1 $208 $103 $105 $159 reversed $156 $-1 #
loop $-1 $-1 $103 $209 #
straight-curve $-1 4.492646463855307637 -202.8000000000000398 1.164216463855307859 0.7071078659638270203 0 -0.7071078659638270203 I I #
coedge $-1 $105 $166 $210 $211 reversed $71 $-1 #
edge $-1 $212 -65 $106 37.79968888363024604 $155 $213 forward 7 unknown #
point $-1 5.656862927710616162 -202.8000000000000398 -4.440898911303130413e-16 #
coedge $-1 $108 $214 $175 $215 forward $156 $-1 #
vertex $-1 $125 $216 #
straight-curve $-1 5.885924633835133868 -197.8427589068665498 -0.2290617061245179553 0.04610981091936542514 0.997873157715847281 -0.04610981091936542514 I I #
point $-1 5.656859999999999999 -202.8000000000000398 2.927710616502449264e-06 #
coedge $-1 $112 $186 $217 $218 forward $113 $-1 #
coedge $-1 $158 $115 $219 $220 reversed $71 $-1 #
coedge $-1 $217 $221 $115 $168 reversed $222 $-1 #
edge $-1 $169 1.646433439907806884 $223 1.646451722423444286 $115 $224 forward 7 unknown #
vertex $-1 $116 $225 #
straight-curve $-1 -0.350345749617267499 -169.1026173605888516 -6.007208677327883883 -0.08488962694897239647 0.9927691426957044873 -0.08488962694897239647 I I #
plane-surface $-1 2.828431463855308081 -165.0002531276122681 -2.828431463855308081 -0.7071067811865474617 0 0.7071067811865474617 0 -1.000001534106740975 0 forward_v I I I I #
coedge $-1 $121 $120 $193 $226 forward $122 $-1 #
coedge $-1 $124 $227 $120 $126 reversed $176 $-1 #
face $-1 $228 $122 $3 $-1 $229 reversed single #
coedge $-1 $230 $124 $161 $215 reversed $176 $-1 #
loop $-1 $-1 $124 $231 #
straight-curve $-1 4.400077290221575232 -229.9983273443128269 0.8001430253129286907 0.04599143399882587441 0.9953113352068363451 0.08510700454928384062 I I #
vertex $-1 $226 $232 #
straight-curve $-1 -5.551123639128913016e-17 -229.9999999999999432 0.8000000000000014877 0.9999999999999995559 0 -1.665337091738673781e-16 I I #
edge $-1 $181 -0.7999987727164910023 $133 0.7999987727164874496 $128 $233 forward 7 unknown #
vertex $-1 $226 $234 #
straight-curve $-1 -1.110224727825782603e-16 -230.0003528445504344 0.8000000000000013767 -1.000001534106740753 0 0 I I #
plane-surface $-1 0 -230.0003528445504344 0 0 1 0 -0.7071078659638270203 0 0.7071078659638270203 forward_v I I I I #
straight-curve $-1 -4.399999999999999467 -231 -0.7999999999999968248 0 1.000001534106740975 0 I I #
point $-1 -4.400000000000001243 -230.0003528445504344 -0.7999999999999968248 #
coedge $-1 $165 $135 $205 $235 reversed $113 $-1 #
coedge $-1 $194 $143 $135 $188 reversed $96 $-1 #
edge $-1 $136 -41.76491867197847085 $236 -38.2190553313528909 $135 $237 forward 7 unknown #
point $-1 -4.400000000000000355 -230.0000000000001137 -0.7999999999999966027 #
face $-1 $89 $201 $3 $-1 $238 reversed single #
plane-surface $-1 -6.999999999999999112 -173.2000000000000171 -5.656849999999995937 1.665334536937734811e-16 -0.08519702629393963167 -0.9963641235565787735 0.9999999999999995559 0 -1.665337091738673781e-16 forward_v I I I I #
edge $-1 $236 -42.61299949453430003 $152 -18.89699714678549469 $151 $239 forward 7 unknown #
coedge $-1 $145 $144 $172 $226 reversed $59 $-1 #
coedge $-1 $240 $187 $145 $195 reversed $96 $-1 #
edge $-1 $178 -0.7999999999999958256 $136 0.799999999999997824 $145 $241 reversed 7 unknown #
coedge $-1 $146 $240 $199 $242 reversed $96 $-1 #
vertex $-1 $242 $243 #
straight-curve $-1 -5.594890000000001251 -202.8000000000000966 -4.440898911303130413e-16 -1.665337091738673781e-16 0 0.9999999999999995559 I I #
coedge $-1 $244 $148 $196 $242 forward $201 $-1 #
coedge $-1 $148 $245 $150 $204 forward $201 $-1 #
loop $-1 $-1 $148 $190 #
straight-curve $-1 -4.47715396385530795 -202.8000000000000966 1.179708963855308212 0.7071078659638269093 0 0.7071078659638269093 I I #
coedge $-1 $219 $150 $246 $247 reversed $141 $-1 #
edge $-1 $248 -65 $153 37.79968888363030288 $200 $249 forward 7 unknown #
coedge $-1 $151 $250 $186 $235 forward $141 $-1 #
point $-1 -5.594890000000001251 -202.8000000000000966 -0.06197292771061414102 #
point $-1 -5.656862927710616162 -202.8000000000000966 4.440898911303130413e-16 #
coedge $-1 $251 $155 $252 $253 reversed $156 $-1 #
face $-1 $254 $156 $3 $-1 $255 reversed single #
coedge $-1 $246 $252 $158 $211 forward $256 $-1 #
edge $-1 $212 -4.000000000000000888 $257 4.000000000000000888 $158 $258 forward 7 unknown #
vertex $-1 $253 $259 #
straight-curve $-1 5.656862927710616162 -165.0002531276122681 -4.440898911303130413e-16 0 -1.000001534106740975 0 I I #
coedge $-1 $161 $251 $260 $261 forward $156 $-1 #
edge $-1 $262 -24.27347858355237165 $162 29.44641718709434031 $161 $263 forward 7 unknown #
point $-1 4.560274839418487325 -226.5314548699275008 1.096588088292127727 #
coedge $-1 $221 $167 $165 $218 reversed $222 $-1 #
edge $-1 $264 -1.292771061788235654e-05 $169 1.292771061610599801e-05 $217 $265 reversed 7 unknown #
coedge $-1 $250 $203 $166 $220 forward $141 $-1 #
edge $-1 $257 -65 $223 8.199734293120039652 $166 $266 forward 7 unknown #
coedge $-1 $167 $217 $250 $267 reversed $222 $-1 #
loop $-1 $-1 $167 $228 #
vertex $-1 $267 $268 #
straight-curve $-1 1.164218963855308875 -173.1999999999999602 -4.492643963855307732 -0.7071078659638269093 0 -0.7071078659638269093 I I #
point $-1 1.292771061743826225e-05 -173.1999999999999602 -5.65684999999999949 #
edge $-1 $178 -0.9999984658954987893 $181 -0.9996456218864785415 $172 $269 forward 7 unknown #
coedge $-1 $173 $270 $240 $271 forward $176 $-1 #
face $-1 $272 $222 $3 $-1 $273 forward single #
plane-surface $-1 -5.551123639128913016e-17 -230.9999999999999432 0.8000000000000014877 1.665334536937734811e-16 0 -0.999999999999999778 0 0.999999999999999889 0 forward_v I I I I #
coedge $-1 $270 $175 $274 $275 forward $176 $-1 #
face $-1 $209 $176 $3 $-1 $276 forward single #
point $-1 -4.400000000000001243 -230.0000000000001137 0.7999999999999963807 #
straight-curve $-1 -4.399999999999999467 -230.0003528445504344 4.440898911303130413e-16 0 0 -1.000001534106740753 I I #
point $-1 -4.400000000000000355 -230.0003528445504344 0.8000000000000012657 #
edge $-1 $264 3.533000456407072498 $236 57.19139965925283065 $205 $277 forward 7 unknown #
vertex $-1 $188 $278 #
straight-curve $-1 -6.226307041601010006 -188.4266739770629613 -4.354848741100380671 -0.04372825566703041067 0.9954125937477315 -0.08511566295675473959 I I #
plane-surface $-1 -2.828431463855308081 -165.0002531276122681 2.828431463855308081 0.7071067811865474617 0 -0.7071067811865474617 0 1.000001534106740975 0 forward_v I I I I #
straight-curve $-1 -6.423434782736291204 -183.9393365996644718 0.766571855025675486 -0.04384531448570540973 0.9980772740680625699 0.04384531448570540973 I I #
coedge $-1 $196 $194 $227 $271 reversed $96 $-1 #
straight-curve $-1 -4.400000000000000355 -230.0000000000001137 8.881797822606260825e-16 -1.665337091738673781e-16 0 0.9999999999999995559 I I #
edge $-1 $197 18.59008088707089357 $279 42.30608323481973088 $199 $280 forward 7 unknown #
point $-1 -5.594890000000001251 -202.8000000000000966 0.0619729277106150292 #
coedge $-1 $281 $199 $270 $282 forward $201 $-1 #
coedge $-1 $200 $283 $284 $285 reversed $201 $-1 #
coedge $-1 $284 $210 $203 $247 forward $256 $-1 #
edge $-1 $257 -4.000000000000000888 $248 4.000000000000000888 $203 $286 forward 7 unknown #
vertex $-1 $285 $287 #
straight-curve $-1 -5.656862927710616162 -165.0002531276122681 4.440898911303130413e-16 0 -1.000001534106740975 0 I I #
coedge $-1 $205 $219 $221 $267 forward $141 $-1 #
coedge $-1 $214 $208 $283 $288 forward $156 $-1 #
coedge $-1 $210 $284 $208 $253 forward $256 $-1 #
edge $-1 $289 -4.000000000000000888 $212 4.000000000000000888 $208 $290 forward 7 unknown #
face $-1 $117 $256 $3 $-1 $291 forward single #
plane-surface $-1 2.828431463855307637 -165.0002531276122681 2.828431463855307637 -0.7071067811865473507 0 -0.7071067811865473507 0 -1.000001534106740975 0 forward_v I I I I #
loop $-1 $-1 $284 $254 #
vertex $-1 $211 $292 #
straight-curve $-1 2.828431463855308081 -100.0001534106741019 -2.828431463855308081 -0.7071078659638269093 0 -0.7071078659638269093 I I #
point $-1 5.656862927710616162 -100.0001534106741019 -4.440898911303130413e-16 #
coedge $-1 $293 $274 $214 $261 reversed $294 $-1 #
edge $-1 $295 -1.646451722423442732 $262 -1.646433439907806884 $214 $296 forward 7 unknown #
vertex $-1 $215 $297 #
straight-curve $-1 2.060579469422239907 -197.2979605236357941 3.596283458288375812 0.08488962694897241035 -0.9927691426957044873 -0.08488962694897241035 I I #
vertex $-1 $235 $298 #
straight-curve $-1 1.332269673390939025e-15 -173.1999999999999602 -5.65684999999999949 -0.9999999999999995559 0 1.665337091738673781e-16 I I #
straight-curve $-1 4.440898911303130413e-16 -165.0002531276122681 -5.656862927710616162 0 -1.000001534106740975 0 I I #
edge $-1 $223 -1.646451722423442954 $264 -1.646433439907805774 $250 $299 forward 7 unknown #
point $-1 4.440898911303130413e-16 -173.1999999999999602 -5.656862927710616162 #
straight-curve $-1 -4.399999999999999467 -231 0.8000000000000017097 0 -1.000001534106740975 0 I I #
coedge $-1 $227 $230 $244 $282 reversed $176 $-1 #
edge $-1 $279 10.33853584925026503 $178 13.88439918987581656 $227 $300 forward 7 unknown #
face $-1 $231 $294 $3 $-1 $301 forward single #
plane-surface $-1 1.332269673390939025e-15 -173.1999999999999602 -6.656849999999998602 0 -1 0 1.665337091738673781e-16 0 -0.9999999999999995559 forward_v I I I I #
coedge $-1 $260 $293 $230 $275 reversed $294 $-1 #
edge $-1 $262 -1.292771061610599801e-05 $302 1.29277106152178162e-05 $274 $303 reversed 7 unknown #
plane-surface $-1 -7 -230 0.800000000000003042 -1.665334536937734811e-16 -0.08519702629393963167 0.9963641235565787735 -0.9999999999999995559 0 1.665337091738673781e-16 forward_v I I I I #
straight-curve $-1 0.2999021630443289288 -169.692546165749178 -5.956765090754944758 -0.08488962694897241035 -0.9927691426957044873 0.08488962694897241035 I I #
point $-1 -4.555054418719228337 -226.4704029750330108 -1.101808508991386937 #
vertex $-1 $282 $304 #
straight-curve $-1 -6.409977942808327001 -184.2456627435275891 -0.7531150150977110602 0.04384531448570541667 -0.9980772740680626809 0.04384531448570541667 I I #
coedge $-1 $283 $244 $293 $305 forward $201 $-1 #
edge $-1 $279 -28.79069505386288697 $302 24.86770414898289516 $244 $306 forward 7 unknown #
coedge $-1 $245 $281 $251 $288 reversed $201 $-1 #
coedge $-1 $252 $246 $245 $285 forward $256 $-1 #
edge $-1 $248 -4.000000000000000888 $289 4.000000000000000888 $245 $307 forward 7 unknown #
straight-curve $-1 -2.828431463855307637 -100.0001534106741019 -2.828431463855307637 -0.7071078659638270203 0 0.7071078659638270203 I I #
point $-1 -5.656862927710616162 -100.0001534106741019 4.440898911303130413e-16 #
edge $-1 $289 -65 $295 8.199734293120039652 $283 $308 forward 7 unknown #
vertex $-1 $285 $309 #
straight-curve $-1 2.828431463855307637 -100.0001534106741019 2.828431463855307637 0.7071078659638270203 0 -0.7071078659638270203 I I #
plane-surface $-1 0 -100.0001534106741019 0 0 1 0 -0.7071078659638270203 0 0.7071078659638270203 forward_v I I I I #
point $-1 4.440898911303130413e-16 -100.0001534106741019 -5.656862927710616162 #
coedge $-1 $274 $260 $281 $305 reversed $294 $-1 #
loop $-1 $-1 $293 $272 #
vertex $-1 $261 $310 #
straight-curve $-1 1.164218963855307321 -173.1999999999999602 4.49264396385530862 0.7071078659638270203 0 -0.7071078659638270203 I I #
point $-1 1.292771061521781281e-05 -173.1999999999999602 5.656850000000000378 #
point $-1 -1.292771061655008213e-05 -173.1999999999999602 -5.65684999999999949 #
straight-curve $-1 -1.164218963855307765 -173.1999999999999602 -4.49264396385530862 -0.7071078659638270203 0 0.7071078659638270203 I I #
straight-curve $-1 -5.007140557558003024 -216.1792941897769254 1.981779841802502995 0.04372825566703041067 -0.9954125937477315 -0.08511566295675473959 I I #
plane-surface $-1 -8.881797822606260825e-16 -173.1999999999999602 6.656850000000001266 0 -1 0 1.665337091738673781e-16 0 -0.9999999999999995559 forward_v I I I I #
vertex $-1 $282 $311 #
straight-curve $-1 -8.881797822606260825e-16 -173.1999999999999602 5.656850000000000378 0.9999999999999995559 0 -1.665337091738673781e-16 I I #
point $-1 -4.555054418719226561 -226.4704029750330392 1.101808508991389601 #
edge $-1 $302 1.646433439907807328 $295 1.646451722423443176 $281 $312 forward 7 unknown #
straight-curve $-1 -2.111023055995181252 -197.8878893287961205 3.545839871715435354 0.08488962694897239647 0.9927691426957044873 0.08488962694897239647 I I #
straight-curve $-1 -2.828431463855308081 -100.0001534106741019 2.828431463855308081 0.7071078659638269093 0 0.7071078659638269093 I I #
straight-curve $-1 -4.440898911303130413e-16 -165.0002531276122681 5.656862927710616162 0 -1.000001534106740975 0 I I #
point $-1 -4.440898911303130413e-16 -100.0001534106741019 5.656862927710616162 #
point $-1 -4.440898911303130413e-16 -173.1999999999999602 5.656862927710616162 #
point $-1 -1.292771061610599123e-05 -173.1999999999999602 5.656850000000000378 #
straight-curve $-1 -1.164218963855308209 -173.1999999999999602 4.49264396385530862 0.7071078659638269093 0 0.7071078659638269093 I I #
End-of-ACIS-data 