700 0 2 0           
24 FBMach with ACIS - 7.0.3 13 ACIS 7.0.3 NT 24 Mon May 13 17:14:33 2002 
1 9.9999999999999995e-007 1e-010 
body $2 -1 $-1 $3 $-1 $4 #
bdycol-kcp $-1 -1 1 4 $5 $6 $7 $8 #
model_id-kcp-attrib $-1 -1 $-1 $-1 $0 1 1021324472 1021324472 1286602753 1 #
lump $-1 -1 $-1 $9 $10 $0 #
transform $-1 -1 1 0 0 0 1 0 0 0 1 0 0 0 1 rotate no_reflect no_shear #
body $11 -1 $-1 $12 $-1 $13 #
body $14 -1 $-1 $15 $-1 $16 #
body $17 -1 $-1 $18 $-1 $19 #
body $20 -1 $-1 $21 $-1 $22 #
lump $-1 -1 $-1 $-1 $23 $0 #
shell $-1 -1 $-1 $-1 $-1 $24 $-1 $3 #
rgb_color-st-attrib $-1 -1 $25 $-1 $5 0.5 1 1 #
lump $-1 -1 $-1 $-1 $26 $5 #
transform $-1 -1 1 0 0 0 1 0 0 0 1 0 -115.00017642227523 0 1 no_rotate no_reflect no_shear #
model_id-kcp-attrib $-1 -1 $-1 $-1 $6 1 1021324472 1021324472 1286602754 1 #
lump $-1 -1 $-1 $-1 $27 $6 #
transform $-1 -1 1 0 0 0 1 0 0 0 1 0 -115.00017642227523 0 1 no_rotate no_reflect no_shear #
rgb_color-st-attrib $-1 -1 $28 $-1 $7 0 0 1 #
lump $-1 -1 $-1 $-1 $29 $7 #
transform $-1 -1 1 0 0 0 1 0 0 0 1 0 -115.00017642227523 0 1 no_rotate no_reflect no_shear #
rgb_color-st-attrib $-1 -1 $30 $-1 $8 0.5 0.5 1 #
lump $-1 -1 $-1 $-1 $31 $8 #
transform $-1 -1 1 0 0 0 1 0 0 0 1 0 -115.00017642227523 0 1 no_rotate no_reflect no_shear #
shell $-1 -1 $-1 $-1 $-1 $32 $-1 $9 #
face $33 -1 $-1 $34 $35 $10 $-1 $36 reversed single #
model_id-kcp-attrib $-1 -1 $-1 $11 $5 1 1021324472 1021324472 1279066115 1 #
shell $-1 -1 $-1 $-1 $-1 $37 $-1 $12 #
shell $-1 -1 $-1 $-1 $-1 $38 $-1 $15 #
model_id-kcp-attrib $-1 -1 $-1 $17 $7 1 1021324472 1021324472 1288241156 1 #
shell $-1 -1 $-1 $-1 $-1 $39 $-1 $18 #
model_id-kcp-attrib $-1 -1 $-1 $20 $8 1 1021324472 1021324472 1290207237 1 #
shell $-1 -1 $-1 $-1 $-1 $40 $-1 $21 #
face $41 -1 $-1 $42 $43 $23 $-1 $44 forward single #
model_id-kcp-attrib $-1 -1 $-1 $-1 $24 1 1021324472 1021324472 1286602753 2 #
face $45 -1 $-1 $46 $47 $10 $-1 $48 forward single #
loop $-1 -1 $-1 $-1 $49 $24 #
plane-surface $-1 -1 $-1 4.3999999999999941 -231.00000000000011 -4.4408989113031304e-016 -1 0 1.6653345369377353e-016 0 -0.99999999999999989 0 forward_v I I I I #
face $-1 -1 $-1 $50 $51 $26 $-1 $52 reversed single #
face $-1 -1 $-1 $53 $54 $27 $-1 $55 forward single #
face $-1 -1 $-1 $56 $57 $29 $-1 $58 reversed single #
face $-1 -1 $-1 $59 $60 $31 $-1 $61 reversed single #
model_id-kcp-attrib $-1 -1 $-1 $-1 $32 1 1021324472 1021324472 1286602753 20 #
face $62 -1 $-1 $63 $64 $23 $-1 $65 forward single #
loop $-1 -1 $-1 $66 $67 $32 #
cone-surface $-1 -1 $-1 0 -50.000000000000028 0 0 1 0 -2.6645393467818781e-015 0 15.999999999999993 1 I I 0 1 15.999999999999995 forward I I I I #
model_id-kcp-attrib $-1 -1 $-1 $-1 $34 1 1021324472 1021324472 1286602753 3 #
face $68 -1 $-1 $69 $70 $10 $-1 $71 forward single #
loop $-1 -1 $-1 $-1 $72 $34 #
plane-surface $-1 -1 $-1 4.3999999999999941 -230.00000000000011 6.9999999999999991 0.99893411288899225 -0.04615883562961981 -1.6653345369377353e-016 1.6653370917386738e-016 0 -0.99999999999999956 forward_v I I I I #
coedge $-1 -1 $-1 $73 $74 $75 $76 reversed $35 $-1 #
face $-1 -1 $-1 $77 $78 $26 $-1 $52 reversed single #
loop $-1 -1 $-1 $-1 $79 $37 #
cone-surface $-1 -1 $-1 0 -115.0001764222752 4.9960036108132084e-016 0 -1 0 4.6239095128976801e-015 0 -15.999999999999993 1 I I 0 1 15.999999999999993 forward I I I I #
face $-1 -1 $-1 $80 $81 $27 $-1 $82 reversed single #
loop $-1 -1 $-1 $-1 $83 $38 #
plane-surface $-1 -1 $-1 0 0 15.999999999999993 0 0 1 1 0 0 forward_v I I I I #
face $-1 -1 $-1 $84 $85 $29 $-1 $86 forward single #
loop $-1 -1 $-1 $-1 $87 $39 #
plane-surface $-1 -1 $-1 0 15.000023011601144 0 0 1 0 -1 0 0 forward_v I I I I #
face $-1 -1 $-1 $88 $89 $31 $-1 $90 forward single #
loop $-1 -1 $-1 $-1 $91 $40 #
plane-surface $-1 -1 $-1 0 15.000176422275189 0 0 -1 0 1 0 0 forward_v I I I I #
model_id-kcp-attrib $-1 -1 $-1 $-1 $42 1 1021324472 1021324472 1286602753 21 #
face $92 -1 $-1 $-1 $93 $23 $-1 $94 forward single #
loop $-1 -1 $-1 $-1 $95 $42 #
plane-surface $-1 -1 $-1 0 -100.00000000000001 0 0 -1 0 1.6653370917386738e-016 0 -0.99999999999999956 forward_v I I I I #
loop $-1 -1 $-1 $-1 $96 $32 #
coedge $-1 -1 $-1 $67 $67 $95 $97 reversed $43 $-1 #
model_id-kcp-attrib $-1 -1 $-1 $-1 $46 1 1021324472 1021324472 1286602753 4 #
face $98 -1 $-1 $99 $100 $10 $-1 $101 forward single #
loop $-1 -1 $-1 $-1 $102 $46 #
plane-surface $-1 -1 $-1 6.6568599999999991 -202.80000000000004 -8.8817978226062608e-016 0 -1 0 0.99999999999999956 0 -1.6653370917386738e-016 forward_v I I I I #
coedge $-1 -1 $-1 $103 $104 $105 $106 reversed $47 $-1 #
coedge $-1 -1 $-1 $107 $49 $108 $109 forward $35 $-1 #
coedge $-1 -1 $-1 $49 $107 $110 $111 reversed $35 $-1 #
coedge $-1 -1 $-1 $112 $113 $49 $76 forward $114 $-1 #
edge $115 -1 $-1 $116 -0.99999846589549879 $117 -0.99964562188647854 $75 $118 forward @7 unknown #
face $-1 -1 $-1 $119 $120 $26 $-1 $52 reversed single #
loop $-1 -1 $-1 $-1 $121 $50 #
coedge $-1 -1 $-1 $122 $123 $124 $125 reversed $51 $-1 #
face $126 -1 $-1 $127 $128 $27 $-1 $129 reversed single #
loop $-1 -1 $-1 $-1 $130 $53 #
plane-surface $-1 -1 $-1 0 0 -15.999999999999993 0 0 1 1 0 0 forward_v I I I I #
coedge $-1 -1 $-1 $131 $132 $133 $134 forward $54 $-1 #
face $-1 -1 $-1 $-1 $135 $29 $-1 $136 reversed single #
loop $-1 -1 $-1 $137 $138 $56 #
cone-surface $-1 -1 $-1 0 -115.0001764222752 4.9960036108132084e-016 0 -1 0 4.6239095128976801e-015 0 -15.999999999999993 1 I I 0 1 15.999999999999993 forward I I I I #
coedge $-1 -1 $-1 $87 $87 $139 $140 forward $57 $-1 #
face $-1 -1 $-1 $-1 $141 $31 $-1 $142 reversed single #
loop $-1 -1 $-1 $143 $144 $59 #
cone-surface $-1 -1 $-1 0 -115.0001764222752 4.9960036108132084e-016 0 -1 0 4.6239095128976801e-015 0 -15.999999999999993 1 I I 0 1 15.999999999999993 forward I I I I #
coedge $-1 -1 $-1 $91 $91 $145 $146 forward $60 $-1 #
model_id-kcp-attrib $-1 -1 $-1 $-1 $63 1 1021324472 1021324472 1286602753 22 #
loop $-1 -1 $-1 $-1 $147 $63 #
plane-surface $-1 -1 $-1 0 -2.8421709430404007e-014 0 0 1 0 -1.6653370917386738e-016 0 0.99999999999999956 forward_v I I I I #
coedge $-1 -1 $-1 $95 $95 $67 $97 forward $64 $-1 #
coedge $-1 -1 $-1 $96 $96 $147 $148 reversed $66 $-1 #
edge $149 -1 $-1 $150 0 $150 6.2831853071795862 $95 $151 forward @7 unknown #
model_id-kcp-attrib $-1 -1 $-1 $-1 $69 1 1021324472 1021324472 1286602753 5 #
face $152 -1 $-1 $153 $154 $10 $-1 $155 reversed single #
loop $-1 -1 $-1 $-1 $156 $69 #
plane-surface $-1 -1 $-1 -6.5948900000000013 -202.8000000000001 8.8817978226062608e-016 0 -1 0 0.99999999999999956 0 -1.6653370917386738e-016 forward_v I I I I #
coedge $-1 -1 $-1 $157 $158 $159 $160 reversed $70 $-1 #
coedge $-1 -1 $-1 $161 $72 $158 $162 forward $47 $-1 #
coedge $-1 -1 $-1 $72 $108 $163 $164 reversed $47 $-1 #
coedge $-1 -1 $-1 $165 $159 $72 $106 forward $166 $-1 #
edge $167 -1 $-1 $168 5.2905745208838191 $169 29.07261002953425 $105 $170 forward @7 unknown #
coedge $-1 -1 $-1 $74 $73 $171 $172 reversed $35 $-1 #
coedge $-1 -1 $-1 $104 $173 $73 $109 reversed $47 $-1 #
edge $174 -1 $-1 $116 -0.79999999999999671 $175 0.79999999999999605 $73 $176 reversed @7 unknown #
coedge $-1 -1 $-1 $177 $178 $74 $111 forward $179 $-1 #
edge $180 -1 $-1 $117 -0.79999877271648634 $181 0.79999877271649189 $110 $182 forward @7 unknown #
coedge $-1 -1 $-1 $183 $75 $178 $184 reversed $114 $-1 #
coedge $-1 -1 $-1 $75 $183 $185 $186 forward $114 $-1 #
loop $-1 -1 $-1 $-1 $75 $187 #
attrib_edge_convexity-kcp-attrib $-1 -1 $188 $-1 $76 1 #
vertex $-1 -1 $-1 $76 $189 #
vertex $-1 -1 $-1 $111 $190 #
straight-curve $-1 -1 $-1 4.3999999999999941 -231 -0.79999999999999705 0 -1.000001534106741 0 I I #
face $-1 -1 $-1 $191 $192 $26 $-1 $52 reversed single #
loop $-1 -1 $-1 $-1 $193 $77 #
coedge $-1 -1 $-1 $194 $195 $196 $197 reversed $78 $-1 #
coedge $-1 -1 $-1 $198 $79 $199 $200 forward $51 $-1 #
coedge $-1 -1 $-1 $79 $198 $201 $202 reversed $51 $-1 #
coedge $-1 -1 $-1 $203 $204 $79 $125 forward $205 $-1 #
edge $-1 -1 $-1 $206 1.5707963267948963 $207 3.1415926535897931 $124 $208 forward @7 unknown #
model_id-kcp-attrib $-1 -1 $-1 $-1 $80 1 1021324472 1021324472 1286602754 2 #
face $-1 -1 $-1 $209 $210 $27 $-1 $211 reversed single #
loop $-1 -1 $-1 $-1 $212 $80 #
plane-surface $-1 -1 $-1 0 -115.0001764222752 0 0 1 0 0 0 1 forward_v I I I I #
coedge $-1 -1 $-1 $213 $214 $215 $216 forward $81 $-1 #
coedge $-1 -1 $-1 $217 $83 $218 $219 forward $54 $-1 #
coedge $-1 -1 $-1 $83 $217 $220 $221 forward $54 $-1 #
coedge $-1 -1 $-1 $222 $223 $83 $134 reversed $224 $-1 #
edge $-1 -1 $-1 $225 -115.0001764222752 $226 115.0001764222752 $133 $227 forward @7 unknown #
loop $-1 -1 $-1 $-1 $228 $84 #
plane-surface $-1 -1 $-1 0 115.0001764222752 0 0 -1 0 0 0 -1 forward_v I I I I #
loop $-1 -1 $-1 $-1 $139 $56 #
coedge $-1 -1 $-1 $138 $138 $228 $229 reversed $85 $-1 #
coedge $-1 -1 $-1 $139 $139 $87 $140 reversed $137 $-1 #
edge $230 -1 $-1 $231 -3.1415926535897931 $231 3.1415926535897931 $139 $232 forward @7 unknown #
loop $-1 -1 $-1 $-1 $233 $88 #
plane-surface $-1 -1 $-1 0 -115.0001764222752 0 0 1 0 0 0 1 forward_v I I I I #
loop $-1 -1 $-1 $-1 $145 $59 #
coedge $-1 -1 $-1 $144 $144 $233 $234 reversed $89 $-1 #
coedge $-1 -1 $-1 $145 $145 $91 $146 reversed $143 $-1 #
edge $235 -1 $-1 $236 -3.1415926535897931 $236 3.1415926535897931 $145 $237 forward @7 unknown #
coedge $-1 -1 $-1 $147 $147 $96 $148 forward $93 $-1 #
edge $-1 -1 $-1 $238 0 $238 6.2831853071795862 $147 $239 forward @7 unknown #
attrib_edge_convexity-kcp-attrib $-1 -1 $240 $-1 $97 1 #
vertex $-1 -1 $-1 $97 $241 #
ellipse-curve $-1 -1 $-1 0 -100.00000000000001 0 0 -1 0 -2.6645393467818781e-015 0 15.999999999999993 1 I I #
model_id-kcp-attrib $-1 -1 $-1 $-1 $99 1 1021324472 1021324472 1286602753 6 #
face $242 -1 $-1 $243 $244 $10 $-1 $245 forward single #
loop $-1 -1 $-1 $-1 $246 $99 #
plane-surface $-1 -1 $-1 -4.4000000000000004 -231.00000000000011 8.8817978226062608e-016 1 0 -1.6653345369377353e-016 0 0.99999999999999989 0 forward_v I I I I #
coedge $-1 -1 $-1 $247 $248 $249 $250 reversed $100 $-1 #
coedge $-1 -1 $-1 $158 $102 $251 $252 reversed $70 $-1 #
coedge $-1 -1 $-1 $102 $157 $103 $162 reversed $70 $-1 #
coedge $-1 -1 $-1 $105 $253 $102 $160 forward $166 $-1 #
edge $-1 -1 $-1 $254 -1.6464481868949621 $168 -1.6464440464932533 $159 $255 forward @7 unknown #
coedge $-1 -1 $-1 $173 $103 $256 $257 reversed $47 $-1 #
edge $258 -1 $-1 $168 -2.9277106160583605e-006 $259 2.9277106178347203e-006 $158 $260 reversed @7 unknown #
coedge $-1 -1 $-1 $185 $261 $104 $164 forward $262 $-1 #
edge $263 -1 $-1 $169 24.394479280217539 $116 27.879363865955593 $163 $264 forward @7 unknown #
coedge $-1 -1 $-1 $265 $105 $261 $266 forward $166 $-1 #
loop $-1 -1 $-1 $-1 $105 $267 #
attrib_edge_convexity-kcp-attrib $-1 -1 $268 $-1 $106 1 #
vertex $-1 -1 $-1 $106 $269 #
vertex $-1 -1 $-1 $266 $270 #
straight-curve $-1 -1 $-1 5.9008073908127612 -197.5206776967147 0.2439444631021444 -0.046109810919365418 -0.99787315771584706 -0.046109810919365418 I I #
coedge $-1 -1 $-1 $271 $272 $107 $172 forward $273 $-1 #
edge $274 -1 $-1 $181 0.99964562188647854 $175 0.99999846589549879 $171 $275 forward @7 unknown #
coedge $-1 -1 $-1 $108 $161 $276 $277 reversed $47 $-1 #
attrib_edge_convexity-kcp-attrib $-1 -1 $278 $-1 $109 2 #
vertex $-1 -1 $-1 $279 $280 #
straight-curve $-1 -1 $-1 4.3999999999999941 -230.00000000000011 -4.4408989113031304e-016 1.6653370917386738e-016 0 -0.99999999999999956 I I #
coedge $-1 -1 $-1 $281 $110 $272 $282 forward $179 $-1 #
coedge $-1 -1 $-1 $110 $281 $112 $184 forward $179 $-1 #
loop $-1 -1 $-1 $-1 $110 $283 #
attrib_edge_convexity-kcp-attrib $-1 -1 $284 $-1 $111 1 #
vertex $-1 -1 $-1 $282 $285 #
straight-curve $-1 -1 $-1 4.3999999999999941 -230.00035284455043 -4.4408989113031304e-016 0 0 1.0000015341067408 I I #
coedge $-1 -1 $-1 $113 $112 $246 $286 forward $114 $-1 #
edge $287 -1 $-1 $288 -4.3999932499406968 $117 4.3999932499406897 $178 $289 forward @7 unknown #
coedge $-1 -1 $-1 $290 $163 $113 $186 reversed $262 $-1 #
edge $291 -1 $-1 $292 -4.400000000000003 $116 4.3999999999999959 $113 $293 reversed @7 unknown #
face $294 -1 $-1 $283 $114 $10 $-1 $295 reversed single #
convexity-sys-attrib $-1 -1 $-1 $115 $76 #
point $-1 -1 $-1 4.399999999999995 -230.00000000000011 -0.79999999999999682 #
point $-1 -1 $-1 4.3999999999999941 -230.00035284455043 -0.7999999999999966 #
face $-1 -1 $-1 $296 $297 $26 $-1 $298 forward single #
loop $-1 -1 $-1 $-1 $299 $119 #
coedge $-1 -1 $-1 $300 $301 $299 $302 forward $120 $-1 #
coedge $-1 -1 $-1 $303 $121 $304 $305 reversed $78 $-1 #
coedge $-1 -1 $-1 $121 $303 $123 $202 forward $78 $-1 #
coedge $-1 -1 $-1 $306 $307 $121 $197 forward $308 $-1 #
edge $-1 -1 $-1 $309 1.570796326794897 $310 3.1415926535897931 $196 $311 forward @7 unknown #
coedge $-1 -1 $-1 $123 $122 $312 $313 reversed $51 $-1 #
coedge $-1 -1 $-1 $301 $300 $314 $200 reversed $120 $-1 #
edge $-1 -1 $-1 $206 -230.00035284455041 $315 0 $314 $316 forward @7 unknown #
coedge $-1 -1 $-1 $317 $318 $319 $202 forward $320 $-1 #
edge $-1 -1 $-1 $207 -230.00035284455041 $310 0 $201 $321 forward @7 unknown #
coedge $-1 -1 $-1 $204 $124 $318 $322 reversed $205 $-1 #
coedge $-1 -1 $-1 $124 $203 $323 $324 forward $205 $-1 #
loop $-1 -1 $-1 $-1 $124 $325 #
vertex $-1 -1 $-1 $326 $327 #
vertex $-1 -1 $-1 $328 $329 #
ellipse-curve $-1 -1 $-1 0 115.0001764222752 4.9960036108132084e-016 0 -1 0 4.6239095128976801e-015 0 -15.999999999999993 1 I I #
face $330 -1 $-1 $331 $332 $27 $-1 $333 reversed single #
loop $-1 -1 $-1 $-1 $334 $127 #
plane-surface $-1 -1 $-1 -15.999999999999993 0 0 1 0 0 0 0 -1 forward_v I I I I #
coedge $-1 -1 $-1 $335 $220 $336 $337 forward $128 $-1 #
coedge $-1 -1 $-1 $338 $130 $335 $339 forward $81 $-1 #
coedge $-1 -1 $-1 $130 $338 $340 $341 forward $81 $-1 #
coedge $-1 -1 $-1 $223 $222 $130 $216 reversed $224 $-1 #
edge $-1 -1 $-1 $342 -115.0001764222752 $343 115.0001764222752 $215 $344 forward @7 unknown #
coedge $-1 -1 $-1 $132 $131 $345 $346 forward $54 $-1 #
coedge $-1 -1 $-1 $347 $348 $131 $219 reversed $332 $-1 #
edge $-1 -1 $-1 $226 -15.999999999999993 $349 15.999999999999993 $218 $350 forward @7 unknown #
coedge $-1 -1 $-1 $212 $351 $132 $221 reversed $128 $-1 #
edge $-1 -1 $-1 $352 -15.999999999999993 $225 15.999999999999993 $220 $353 forward @7 unknown #
coedge $-1 -1 $-1 $215 $133 $351 $354 forward $224 $-1 #
coedge $-1 -1 $-1 $133 $215 $347 $355 reversed $224 $-1 #
loop $-1 -1 $-1 $-1 $222 $331 #
vertex $-1 -1 $-1 $134 $356 #
vertex $-1 -1 $-1 $134 $357 #
straight-curve $-1 -1 $-1 15.999999999999993 0 15.999999999999993 0 1 0 I I #
coedge $-1 -1 $-1 $228 $228 $138 $229 forward $135 $-1 #
edge $-1 -1 $-1 $358 -3.1415926535897931 $358 3.1415926535897931 $228 $359 forward @7 unknown #
convexity-sys-attrib $-1 -1 $-1 $-1 $140 #
vertex $-1 -1 $-1 $140 $360 #
ellipse-curve $-1 -1 $-1 0 15.000023011601129 4.9960036108132084e-016 0 -1 0 4.6239095128976801e-015 0 -15.999999999999993 1 I I #
coedge $-1 -1 $-1 $233 $233 $144 $234 forward $141 $-1 #
edge $-1 -1 $-1 $361 1.5707963267948963 $361 7.8539816339744828 $233 $362 forward @7 unknown #
convexity-sys-attrib $-1 -1 $-1 $-1 $146 #
vertex $-1 -1 $-1 $146 $363 #
ellipse-curve $-1 -1 $-1 0 15.000176422275175 4.9960036108132084e-016 0 1 0 4.6239095128976801e-015 0 -15.999999999999993 1 I I #
vertex $-1 -1 $-1 $148 $364 #
ellipse-curve $-1 -1 $-1 0 -2.8421709430404007e-014 0 0 1 0 -2.6645393467818781e-015 0 15.999999999999993 1 I I #
convexity-sys-attrib $-1 -1 $-1 $149 $97 #
point $-1 -1 $-1 -2.6645393467818781e-015 -100.00000000000001 15.999999999999993 #
model_id-kcp-attrib $-1 -1 $-1 $-1 $153 1 1021324472 1021324472 1286602753 7 #
face $365 -1 $-1 $366 $367 $10 $-1 $368 reversed single #
loop $-1 -1 $-1 $-1 $369 $153 #
plane-surface $-1 -1 $-1 -5.594890000000003 -202.8000000000001 7.0000000000000027 -0.99903648158318215 -0.043887452260254742 1.6653345369377351e-016 -1.6653370917386738e-016 0 0.99999999999999956 forward_v I I I I #
coedge $-1 -1 $-1 $370 $371 $183 $286 reversed $154 $-1 #
coedge $-1 -1 $-1 $248 $156 $372 $373 reversed $100 $-1 #
coedge $-1 -1 $-1 $156 $247 $374 $375 reversed $100 $-1 #
coedge $-1 -1 $-1 $376 $377 $156 $250 forward $367 $-1 #
edge $378 -1 $-1 $379 1.5807150364833764 $380 1.6683578568982538 $249 $381 forward @7 unknown #
coedge $-1 -1 $-1 $382 $256 $157 $252 forward $383 $-1 #
edge $-1 -1 $-1 $259 1.6464440464932528 $254 1.6464481868949616 $251 $384 forward @7 unknown #
coedge $-1 -1 $-1 $159 $385 $382 $386 forward $166 $-1 #
vertex $-1 -1 $-1 $252 $387 #
straight-curve $-1 -1 $-1 4.4926464638553076 -202.80000000000004 -1.1642164638553087 -0.70710786596382691 0 -0.70710786596382691 I I #
coedge $-1 -1 $-1 $251 $388 $161 $257 forward $383 $-1 #
edge $389 -1 $-1 $390 -28.749842343419658 $259 -4.9678068347691804 $256 $391 forward @7 unknown #
attrib_edge_convexity-kcp-attrib $-1 -1 $392 $-1 $162 2 #
vertex $-1 -1 $-1 $257 $393 #
straight-curve $-1 -1 $-1 5.65686 -202.80000000000004 -1.332269673390939e-015 1.6653370917386738e-016 0 -0.99999999999999956 I I #
coedge $-1 -1 $-1 $163 $394 $165 $266 reversed $262 $-1 #
loop $-1 -1 $-1 $-1 $163 $366 #
attrib_edge_convexity-kcp-attrib $-1 -1 $395 $-1 $164 1 #
straight-curve $-1 -1 $-1 5.6822119231703381 -202.25135312585863 -3.1727291473710082 -0.045991433998825867 -0.99531133520683635 0.085107004549283854 I I #
coedge $-1 -1 $-1 $396 $165 $397 $398 forward $166 $-1 #
edge $399 -1 $-1 $169 -57.847121792484245 $400 -4.1272260218375916 $165 $401 forward @7 unknown #
face $402 -1 $-1 $-1 $166 $10 $-1 $403 reversed single #
convexity-sys-attrib $-1 -1 $-1 $167 $106 #
point $-1 -1 $-1 5.65686 -202.80000000000004 -2.927710617390629e-006 #
point $-1 -1 $-1 4.56027483941849 -226.53145486992744 -1.0965880882921262 #
coedge $-1 -1 $-1 $404 $171 $405 $279 forward $273 $-1 #
coedge $-1 -1 $-1 $171 $404 $177 $282 reversed $273 $-1 #
loop $-1 -1 $-1 $-1 $171 $406 #
attrib_edge_convexity-kcp-attrib $-1 -1 $407 $-1 $172 1 #
straight-curve $-1 -1 $-1 4.3999999999999941 -231 0.80000000000000149 0 1.000001534106741 0 I I #
coedge $-1 -1 $-1 $408 $405 $173 $277 forward $409 $-1 #
edge $410 -1 $-1 $175 -0.0016805351532932179 $390 3.4832040505847082 $276 $411 forward @7 unknown #
convexity-sys-attrib $-1 -1 $-1 $174 $109 #
edge $412 -1 $-1 $175 -4.3999999999999968 $413 4.400000000000003 $271 $414 reversed @7 unknown #
point $-1 -1 $-1 4.399999999999995 -230.00000000000011 0.79999999999999527 #
coedge $-1 -1 $-1 $178 $177 $370 $415 forward $179 $-1 #
edge $416 -1 $-1 $181 -4.3999932499406906 $417 4.399993249940696 $177 $418 forward @7 unknown #
face $419 -1 $-1 $406 $179 $10 $-1 $420 reversed single #
convexity-sys-attrib $-1 -1 $-1 $180 $111 #
point $-1 -1 $-1 4.399999999999995 -230.00035284455043 0.80000000000000127 #
edge $421 -1 $-1 $288 0.99964562188647854 $292 0.99999846589549879 $183 $422 forward @7 unknown #
attrib_edge_convexity-kcp-attrib $-1 -1 $423 $-1 $184 1 #
vertex $-1 -1 $-1 $184 $424 #
straight-curve $-1 -1 $-1 3.885786547390239e-016 -230.00035284455043 -0.79999999999999682 1.0000015341067408 0 0 I I #
coedge $-1 -1 $-1 $425 $185 $426 $427 forward $262 $-1 #
attrib_edge_convexity-kcp-attrib $-1 -1 $428 $-1 $186 2 #
vertex $-1 -1 $-1 $186 $429 #
straight-curve $-1 -1 $-1 7.216460730867587e-016 -229.99999999999994 -0.79999999999999705 -0.99999999999999956 0 1.6653370917386738e-016 I I #
model_id-kcp-attrib $-1 -1 $-1 $-1 $187 1 1021324472 1021324472 1286602753 11 #
plane-surface $-1 -1 $-1 7.216460730867587e-016 -230.99999999999994 -0.79999999999999705 -1.6653345369377353e-016 0 1 0 -0.99999999999999989 0 forward_v I I I I #
face $-1 -1 $-1 $430 $431 $26 $-1 $432 reversed single #
loop $-1 -1 $-1 $-1 $319 $191 #
plane-surface $-1 -1 $-1 0 0 15.999999999999993 0 0 1 1 0 0 forward_v I I I I #
coedge $-1 -1 $-1 $433 $434 $435 $302 reversed $192 $-1 #
coedge $-1 -1 $-1 $199 $193 $436 $437 reversed $120 $-1 #
coedge $-1 -1 $-1 $193 $199 $438 $439 reversed $120 $-1 #
edge $-1 -1 $-1 $440 -230.00035284455041 $441 0 $435 $442 forward @7 unknown #
coedge $-1 -1 $-1 $195 $194 $443 $444 reversed $78 $-1 #
coedge $-1 -1 $-1 $445 $446 $447 $305 forward $448 $-1 #
edge $-1 -1 $-1 $449 -230.00035284455041 $309 0 $304 $450 forward @7 unknown #
coedge $-1 -1 $-1 $307 $196 $451 $452 reversed $308 $-1 #
coedge $-1 -1 $-1 $196 $306 $445 $453 forward $308 $-1 #
loop $-1 -1 $-1 $-1 $196 $454 #
vertex $-1 -1 $-1 $455 $456 #
vertex $-1 -1 $-1 $457 $458 #
ellipse-curve $-1 -1 $-1 0 -115.0001764222752 4.9960036108132084e-016 0 1 0 4.6239095128976801e-015 0 -15.999999999999993 1 I I #
coedge $-1 -1 $-1 $459 $460 $198 $313 forward $461 $-1 #
edge $-1 -1 $-1 $310 -3.1415926535897931 $315 -1.5707963267948963 $312 $311 forward @7 unknown #
coedge $-1 -1 $-1 $462 $463 $464 $200 forward $431 $-1 #
vertex $-1 -1 $-1 $465 $466 #
straight-curve $-1 -1 $-1 15.999999999999993 -115.0001764222752 4.9960036108132084e-016 0 -1 0 I I #
coedge $-1 -1 $-1 $467 $201 $460 $457 forward $320 $-1 #
coedge $-1 -1 $-1 $201 $467 $203 $322 forward $320 $-1 #
coedge $-1 -1 $-1 $468 $451 $195 $202 reversed $297 $-1 #
loop $-1 -1 $-1 $-1 $201 $469 #
straight-curve $-1 -1 $-1 0 -115.0001764222752 15.999999999999993 0 -1 0 I I #
edge $-1 -1 $-1 $470 -15.999999999999993 $207 0 $203 $471 forward @7 unknown #
coedge $-1 -1 $-1 $472 $464 $204 $324 reversed $473 $-1 #
edge $-1 -1 $-1 $470 -15.999999999999993 $206 -4.9960036108132084e-016 $323 $474 forward @7 unknown #
face $-1 -1 $-1 $475 $205 $26 $-1 $476 reversed single #
edge $-1 -1 $-1 $206 -4.9960036108132084e-016 $477 15.999999999999993 $463 $474 forward @7 unknown #
point $-1 -1 $-1 15.999999999999993 115.0001764222752 4.9960036108132084e-016 #
edge $-1 -1 $-1 $207 0 $478 15.999999999999993 $479 $471 forward @7 unknown #
point $-1 -1 $-1 0 115.0001764222752 15.999999999999993 #
model_id-kcp-attrib $-1 -1 $-1 $-1 $209 1 1021324472 1021324472 1286602754 3 #
face $-1 -1 $-1 $-1 $224 $27 $-1 $480 reversed single #
loop $-1 -1 $-1 $-1 $347 $209 #
plane-surface $-1 -1 $-1 0 115.0001764222752 0 0 -1 0 0 0 -1 forward_v I I I I #
coedge $-1 -1 $-1 $481 $345 $348 $482 forward $210 $-1 #
coedge $-1 -1 $-1 $351 $212 $213 $339 reversed $128 $-1 #
coedge $-1 -1 $-1 $345 $481 $212 $337 reversed $210 $-1 #
edge $-1 -1 $-1 $352 -15.999999999999993 $483 15.999999999999993 $336 $484 forward @7 unknown #
coedge $-1 -1 $-1 $214 $213 $481 $485 forward $81 $-1 #
edge $-1 -1 $-1 $343 -15.999999999999993 $483 15.999999999999993 $335 $486 forward @7 unknown #
coedge $-1 -1 $-1 $348 $347 $214 $341 reversed $332 $-1 #
edge $-1 -1 $-1 $487 -15.999999999999993 $342 15.999999999999993 $340 $488 forward @7 unknown #
vertex $-1 -1 $-1 $216 $489 #
vertex $-1 -1 $-1 $354 $490 #
straight-curve $-1 -1 $-1 15.999999999999993 0 -15.999999999999993 0 -1 0 I I #
coedge $-1 -1 $-1 $334 $336 $217 $346 reversed $210 $-1 #
edge $-1 -1 $-1 $349 -115.0001764222752 $352 115.0001764222752 $345 $491 forward @7 unknown #
coedge $-1 -1 $-1 $340 $218 $223 $355 forward $332 $-1 #
coedge $-1 -1 $-1 $218 $340 $334 $482 reversed $332 $-1 #
vertex $-1 -1 $-1 $219 $492 #
straight-curve $-1 -1 $-1 0 115.0001764222752 15.999999999999993 -1 0 0 I I #
coedge $-1 -1 $-1 $220 $335 $222 $354 reversed $128 $-1 #
vertex $-1 -1 $-1 $346 $493 #
straight-curve $-1 -1 $-1 0 -115.0001764222752 15.999999999999993 1 0 0 I I #
edge $-1 -1 $-1 $225 -15.999999999999993 $343 15.999999999999993 $222 $494 forward @7 unknown #
edge $-1 -1 $-1 $226 -15.999999999999993 $342 15.999999999999993 $223 $495 forward @7 unknown #
point $-1 -1 $-1 15.999999999999993 -115.0001764222752 15.999999999999993 #
point $-1 -1 $-1 15.999999999999993 115.0001764222752 15.999999999999993 #
vertex $-1 -1 $-1 $229 $496 #
ellipse-curve $-1 -1 $-1 0 115.0001764222752 4.9960036108132084e-016 0 1 0 4.6239095128976801e-015 0 -15.999999999999993 1 I I #
point $-1 -1 $-1 -6.5832796790134829e-015 15.000023011601129 15.999999999999993 #
vertex $-1 -1 $-1 $234 $497 #
ellipse-curve $-1 -1 $-1 0 -115.0001764222752 4.9960036108132084e-016 0 -1 0 4.6239095128976801e-015 0 -15.999999999999993 1 I I #
point $-1 -1 $-1 -2.6645393467818773e-015 15.000176422275175 15.999999999999993 #
point $-1 -1 $-1 -2.6645393467818781e-015 -2.8421709430404007e-014 15.999999999999993 #
model_id-kcp-attrib $-1 -1 $-1 $-1 $243 1 1021324472 1021324472 1286602753 8 #
face $498 -1 $-1 $499 $262 $10 $-1 $500 forward single #
loop $-1 -1 $-1 $-1 $377 $243 #
plane-surface $-1 -1 $-1 -2.8284314638553076 -165.00025312761227 -2.8284314638553076 0.70710678118654746 0 0.70710678118654746 0 1.000001534106741 0 forward_v I I I I #
coedge $-1 -1 $-1 $426 $372 $377 $501 reversed $244 $-1 #
coedge $-1 -1 $-1 $502 $246 $281 $415 reversed $154 $-1 #
coedge $-1 -1 $-1 $246 $502 $503 $504 forward $154 $-1 #
coedge $-1 -1 $-1 $369 $505 $247 $373 forward $244 $-1 #
edge $506 -1 $-1 $507 -0.061972927710615501 $379 0.061972927710613725 $247 $508 reversed @7 unknown #
coedge $-1 -1 $-1 $509 $510 $248 $375 forward $511 $-1 #
edge $512 -1 $-1 $380 -1.6683578568982542 $507 -1.5807150364833769 $374 $513 forward @7 unknown #
coedge $-1 -1 $-1 $514 $249 $510 $515 reversed $367 $-1 #
coedge $-1 -1 $-1 $249 $516 $369 $501 forward $367 $-1 #
attrib_edge_convexity-kcp-attrib $-1 -1 $517 $-1 $250 1 #
vertex $-1 -1 $-1 $501 $518 #
vertex $-1 -1 $-1 $375 $519 #
straight-curve $-1 -1 $-1 -4.4771539638553079 -202.8000000000001 -1.1797089638553073 -0.70710786596382702 0 0.70710786596382702 I I #
coedge $-1 -1 $-1 $520 $251 $253 $386 reversed $383 $-1 #
loop $-1 -1 $-1 $-1 $251 $521 #
straight-curve $-1 -1 $-1 4.4926464638553076 -202.80000000000004 1.1642164638553079 0.70710786596382702 0 -0.70710786596382702 I I #
coedge $-1 -1 $-1 $253 $396 $522 $523 reversed $166 $-1 #
edge $-1 -1 $-1 $524 -65 $254 37.799688883630246 $382 $525 forward @7 unknown #
point $-1 -1 $-1 5.6568629277106162 -202.80000000000004 -4.4408989113031304e-016 #
coedge $-1 -1 $-1 $256 $526 $408 $527 forward $383 $-1 #
attrib_edge_convexity-kcp-attrib $-1 -1 $528 $-1 $257 1 #
vertex $-1 -1 $-1 $277 $529 #
straight-curve $-1 -1 $-1 5.8859246338351339 -197.84275890686655 -0.22906170612451796 0.046109810919365425 0.99787315771584728 -0.046109810919365425 I I #
convexity-sys-attrib $-1 -1 $-1 $258 $162 #
point $-1 -1 $-1 5.65686 -202.80000000000004 2.9277106165024493e-006 #
coedge $-1 -1 $-1 $261 $425 $530 $531 forward $262 $-1 #
convexity-sys-attrib $-1 -1 $-1 $263 $164 #
coedge $-1 -1 $-1 $385 $265 $532 $533 reversed $166 $-1 #
coedge $-1 -1 $-1 $530 $534 $265 $398 reversed $535 $-1 #
edge $536 -1 $-1 $400 1.6464334399078069 $537 1.6464517224234443 $265 $538 forward @7 unknown #
attrib_edge_convexity-kcp-attrib $-1 -1 $539 $-1 $266 1 #
vertex $-1 -1 $-1 $266 $540 #
straight-curve $-1 -1 $-1 -0.3503457496172675 -169.10261736058885 -6.0072086773278839 -0.084889626948972396 0.99276914269570449 -0.084889626948972396 I I #
model_id-kcp-attrib $-1 -1 $-1 $-1 $267 1 1021324472 1021324472 1286602753 19 #
plane-surface $-1 -1 $-1 2.8284314638553081 -165.00025312761227 -2.8284314638553081 -0.70710678118654757 0 0.70710678118654757 0 -1.000001534106741 0 forward_v I I I I #
coedge $-1 -1 $-1 $272 $271 $502 $541 forward $273 $-1 #
coedge $-1 -1 $-1 $276 $542 $271 $279 reversed $409 $-1 #
face $543 -1 $-1 $544 $273 $10 $-1 $545 reversed single #
convexity-sys-attrib $-1 -1 $-1 $274 $172 #
coedge $-1 -1 $-1 $546 $276 $388 $527 reversed $409 $-1 #
loop $-1 -1 $-1 $-1 $276 $547 #
attrib_edge_convexity-kcp-attrib $-1 -1 $548 $-1 $277 1 #
straight-curve $-1 -1 $-1 4.4000772902215752 -229.99832734431283 0.80014302531292869 0.045991433998825874 0.99531133520683635 0.085107004549283841 I I #
attrib_edge_convexity-kcp-attrib $-1 -1 $549 $-1 $279 2 #
vertex $-1 -1 $-1 $541 $550 #
straight-curve $-1 -1 $-1 -5.551123639128913e-017 -229.99999999999994 0.80000000000000149 0.99999999999999956 0 -1.6653370917386738e-016 I I #
edge $551 -1 $-1 $417 -0.799998772716491 $288 0.79999877271648745 $281 $552 forward @7 unknown #
attrib_edge_convexity-kcp-attrib $-1 -1 $553 $-1 $282 1 #
vertex $-1 -1 $-1 $541 $554 #
straight-curve $-1 -1 $-1 -1.1102247278257826e-016 -230.00035284455043 0.80000000000000138 -1.0000015341067408 0 0 I I #
model_id-kcp-attrib $-1 -1 $-1 $-1 $283 1 1021324472 1021324472 1286602753 12 #
plane-surface $-1 -1 $-1 0 -230.00035284455043 0 0 1 0 -0.70710786596382702 0 0.70710786596382702 forward_v I I I I #
attrib_edge_convexity-kcp-attrib $-1 -1 $555 $-1 $286 1 #
straight-curve $-1 -1 $-1 -4.3999999999999995 -231 -0.79999999999999682 0 1.000001534106741 0 I I #
convexity-sys-attrib $-1 -1 $-1 $287 $184 #
point $-1 -1 $-1 -4.4000000000000012 -230.00035284455043 -0.79999999999999682 #
coedge $-1 -1 $-1 $394 $290 $516 $556 reversed $262 $-1 #
coedge $-1 -1 $-1 $503 $369 $290 $427 reversed $244 $-1 #
edge $557 -1 $-1 $292 -41.764918671978471 $558 -38.219055331352891 $290 $559 forward @7 unknown #
convexity-sys-attrib $-1 -1 $-1 $291 $186 #
point $-1 -1 $-1 -4.4000000000000004 -230.00000000000011 -0.7999999999999966 #
face $-1 -1 $-1 $560 $561 $26 $-1 $562 reversed single #
loop $-1 -1 $-1 $-1 $314 $296 #
plane-surface $-1 -1 $-1 15.999999999999993 0 0 -1 0 0 0 0 1 forward_v I I I I #
coedge $-1 -1 $-1 $563 $299 $564 $565 reversed $192 $-1 #
coedge $-1 -1 $-1 $299 $563 $566 $567 reversed $192 $-1 #
coedge $-1 -1 $-1 $568 $569 $570 $302 forward $571 $-1 #
coedge $-1 -1 $-1 $572 $573 $300 $437 forward $574 $-1 #
edge $-1 -1 $-1 $315 -1.5707963267948963 $441 2.889943445561051e-016 $436 $311 forward @7 unknown #
coedge $-1 -1 $-1 $575 $576 $301 $439 forward $577 $-1 #
edge $-1 -1 $-1 $440 -2.889943445561051e-016 $206 1.5707963267948963 $438 $208 forward @7 unknown #
vertex $-1 -1 $-1 $578 $579 #
vertex $-1 -1 $-1 $580 $581 #
straight-curve $-1 -1 $-1 0 -115.0001764222752 -15.999999999999993 0 -1 0 I I #
coedge $-1 -1 $-1 $582 $479 $303 $444 forward $583 $-1 #
edge $-1 -1 $-1 $207 -3.1415926535897931 $449 -1.570796326794897 $443 $208 forward @7 unknown #
coedge $-1 -1 $-1 $584 $304 $307 $453 reversed $448 $-1 #
coedge $-1 -1 $-1 $304 $584 $582 $585 forward $448 $-1 #
coedge $-1 -1 $-1 $586 $587 $563 $305 reversed $561 $-1 #
loop $-1 -1 $-1 $-1 $304 $588 #
vertex $-1 -1 $-1 $589 $590 #
straight-curve $-1 -1 $-1 -15.999999999999993 -115.0001764222752 4.9960036108132084e-016 0 -1 0 I I #
coedge $-1 -1 $-1 $319 $591 $306 $452 forward $297 $-1 #
edge $-1 -1 $-1 $592 -15.999999999999993 $310 0 $306 $593 forward @7 unknown #
edge $-1 -1 $-1 $592 -15.999999999999993 $309 -4.9960036108132084e-016 $445 $594 forward @7 unknown #
face $-1 -1 $-1 $595 $308 $26 $-1 $596 reversed single #
edge $-1 -1 $-1 $309 -4.9960036108132084e-016 $597 15.999999999999993 $587 $594 forward @7 unknown #
point $-1 -1 $-1 -15.999999999999993 -115.0001764222752 4.9960036108132084e-016 #
edge $-1 -1 $-1 $310 0 $598 15.999999999999993 $460 $593 forward @7 unknown #
point $-1 -1 $-1 0 -115.0001764222752 15.999999999999993 #
coedge $-1 -1 $-1 $460 $312 $599 $600 reversed $461 $-1 #
coedge $-1 -1 $-1 $312 $459 $317 $457 reversed $461 $-1 #
loop $-1 -1 $-1 $-1 $312 $595 #
coedge $-1 -1 $-1 $601 $314 $573 $465 forward $431 $-1 #
coedge $-1 -1 $-1 $314 $601 $575 $326 reversed $431 $-1 #
coedge $-1 -1 $-1 $323 $599 $122 $200 reversed $473 $-1 #
edge $-1 -1 $-1 $315 -4.9960036108132084e-016 $602 15.999999999999993 $462 $603 forward @7 unknown #
point $-1 -1 $-1 15.999999999999993 -115.0001764222752 4.9960036108132084e-016 #
coedge $-1 -1 $-1 $318 $317 $472 $604 forward $320 $-1 #
coedge $-1 -1 $-1 $591 $319 $479 $328 forward $297 $-1 #
face $-1 -1 $-1 $605 $320 $26 $-1 $298 forward single #
vertex $-1 -1 $-1 $604 $606 #
straight-curve $-1 -1 $-1 0 115.0001764222752 15.999999999999993 -1 0 0 I I #
coedge $-1 -1 $-1 $599 $323 $467 $604 reversed $473 $-1 #
loop $-1 -1 $-1 $-1 $464 $607 #
straight-curve $-1 -1 $-1 15.999999999999993 115.0001764222752 0 0 0 -1 I I #
face $-1 -1 $-1 $608 $583 $26 $-1 $476 reversed single #
plane-surface $-1 -1 $-1 0 115.0001764222752 0 0 -1 0 0 0 -1 forward_v I I I I #
vertex $-1 -1 $-1 $609 $610 #
vertex $-1 -1 $-1 $328 $611 #
coedge $-1 -1 $-1 $443 $582 $468 $328 reversed $583 $-1 #
plane-surface $-1 -1 $-1 15.999999999999993 0 0 -1 0 0 0 0 1 forward_v I I I I #
coedge $-1 -1 $-1 $336 $334 $338 $485 reversed $210 $-1 #
edge $-1 -1 $-1 $349 -15.999999999999993 $487 15.999999999999993 $348 $612 forward @7 unknown #
vertex $-1 -1 $-1 $485 $613 #
straight-curve $-1 -1 $-1 -15.999999999999993 -115.0001764222752 0 0 0 -1 I I #
edge $-1 -1 $-1 $483 -115.0001764222752 $487 115.0001764222752 $481 $614 forward @7 unknown #
straight-curve $-1 -1 $-1 0 -115.0001764222752 -15.999999999999993 -1 0 0 I I #
vertex $-1 -1 $-1 $341 $615 #
straight-curve $-1 -1 $-1 0 115.0001764222752 -15.999999999999993 1 0 0 I I #
point $-1 -1 $-1 15.999999999999993 115.0001764222752 -15.999999999999993 #
point $-1 -1 $-1 15.999999999999993 -115.0001764222752 -15.999999999999993 #
straight-curve $-1 -1 $-1 -15.999999999999993 0 15.999999999999993 0 -1 0 I I #
point $-1 -1 $-1 -15.999999999999993 115.0001764222752 15.999999999999993 #
point $-1 -1 $-1 -15.999999999999993 -115.0001764222752 15.999999999999993 #
straight-curve $-1 -1 $-1 15.999999999999993 -115.0001764222752 0 0 0 -1 I I #
straight-curve $-1 -1 $-1 15.999999999999993 115.0001764222752 0 0 0 -1 I I #
point $-1 -1 $-1 0 115.0001764222752 15.999999999999993 #
point $-1 -1 $-1 15.999999999999993 -115.0001764222752 4.9960036108132084e-016 #
model_id-kcp-attrib $-1 -1 $-1 $-1 $366 1 1021324472 1021324472 1286602753 9 #
face $616 -1 $-1 $187 $511 $10 $-1 $617 reversed single #
plane-surface $-1 -1 $-1 -6.9999999999999991 -173.20000000000002 -5.6568499999999959 1.6653345369377353e-016 -0.085197026293939646 -0.996364123556579 0.99999999999999956 0 -1.6653370917386738e-016 forward_v I I I I #
edge $618 -1 $-1 $558 -42.6129994945343 $379 -18.896997146785495 $377 $619 forward @7 unknown #
coedge $-1 -1 $-1 $371 $370 $404 $541 reversed $154 $-1 #
coedge $-1 -1 $-1 $620 $426 $371 $504 reversed $244 $-1 #
edge $621 -1 $-1 $413 -0.79999999999999583 $292 0.79999999999999782 $371 $622 reversed @7 unknown #
coedge $-1 -1 $-1 $372 $620 $509 $623 reversed $244 $-1 #
attrib_edge_convexity-kcp-attrib $-1 -1 $624 $-1 $373 2 #
vertex $-1 -1 $-1 $623 $625 #
straight-curve $-1 -1 $-1 -5.5948900000000013 -202.8000000000001 -4.4408989113031304e-016 -1.6653370917386738e-016 0 0.99999999999999956 I I #
coedge $-1 -1 $-1 $626 $374 $505 $623 forward $511 $-1 #
coedge $-1 -1 $-1 $374 $627 $376 $515 forward $511 $-1 #
loop $-1 -1 $-1 $-1 $374 $499 #
attrib_edge_convexity-kcp-attrib $-1 -1 $628 $-1 $375 1 #
straight-curve $-1 -1 $-1 -4.4771539638553079 -202.8000000000001 1.1797089638553082 0.70710786596382691 0 0.70710786596382691 I I #
coedge $-1 -1 $-1 $532 $376 $629 $630 reversed $367 $-1 #
edge $-1 -1 $-1 $631 -65 $380 37.799688883630303 $510 $632 forward @7 unknown #
coedge $-1 -1 $-1 $377 $633 $425 $556 forward $367 $-1 #
convexity-sys-attrib $-1 -1 $-1 $378 $250 #
point $-1 -1 $-1 -5.5948900000000013 -202.8000000000001 -0.061972927710614141 #
point $-1 -1 $-1 -5.6568629277106162 -202.8000000000001 4.4408989113031304e-016 #
coedge $-1 -1 $-1 $634 $382 $635 $636 reversed $383 $-1 #
face $637 -1 $-1 $638 $383 $10 $-1 $639 reversed single #
coedge $-1 -1 $-1 $629 $635 $385 $523 forward $640 $-1 #
edge $-1 -1 $-1 $524 -4.0000000000000009 $641 4.0000000000000009 $385 $642 forward @7 unknown #
vertex $-1 -1 $-1 $636 $643 #
straight-curve $-1 -1 $-1 5.6568629277106162 -165.00025312761227 -4.4408989113031304e-016 0 -1.000001534106741 0 I I #
coedge $-1 -1 $-1 $388 $634 $644 $645 forward $383 $-1 #
edge $646 -1 $-1 $647 -24.273478583552372 $390 29.44641718709434 $388 $648 forward @7 unknown #
convexity-sys-attrib $-1 -1 $-1 $389 $257 #
point $-1 -1 $-1 4.5602748394184873 -226.5314548699275 1.0965880882921277 #
coedge $-1 -1 $-1 $534 $397 $394 $531 reversed $535 $-1 #
edge $649 -1 $-1 $650 -1.2927710617882357e-005 $400 1.2927710616105998e-005 $530 $651 reversed @7 unknown #
coedge $-1 -1 $-1 $633 $514 $396 $533 forward $367 $-1 #
edge $-1 -1 $-1 $641 -65 $537 8.1997342931200397 $396 $652 forward @7 unknown #
coedge $-1 -1 $-1 $397 $530 $633 $653 reversed $535 $-1 #
loop $-1 -1 $-1 $-1 $397 $544 #
attrib_edge_convexity-kcp-attrib $-1 -1 $654 $-1 $398 1 #
vertex $-1 -1 $-1 $653 $655 #
straight-curve $-1 -1 $-1 1.1642189638553089 -173.19999999999996 -4.4926439638553077 -0.70710786596382691 0 -0.70710786596382691 I I #
convexity-sys-attrib $-1 -1 $-1 $399 $266 #
point $-1 -1 $-1 1.2927710617438262e-005 -173.19999999999996 -5.6568499999999995 #
edge $656 -1 $-1 $413 -0.99999846589549879 $417 -0.99964562188647854 $404 $657 forward @7 unknown #
coedge $-1 -1 $-1 $405 $658 $620 $659 forward $409 $-1 #
model_id-kcp-attrib $-1 -1 $-1 $-1 $406 1 1021324472 1021324472 1286602753 13 #
face $660 -1 $-1 $661 $535 $10 $-1 $662 forward single #
plane-surface $-1 -1 $-1 -5.551123639128913e-017 -230.99999999999994 0.80000000000000149 1.6653345369377353e-016 0 -1 0 0.99999999999999989 0 forward_v I I I I #
coedge $-1 -1 $-1 $658 $408 $663 $664 forward $409 $-1 #
face $665 -1 $-1 $521 $409 $10 $-1 $666 forward single #
convexity-sys-attrib $-1 -1 $-1 $410 $277 #
convexity-sys-attrib $-1 -1 $-1 $412 $279 #
point $-1 -1 $-1 -4.4000000000000012 -230.00000000000011 0.79999999999999638 #
attrib_edge_convexity-kcp-attrib $-1 -1 $667 $-1 $415 1 #
straight-curve $-1 -1 $-1 -4.3999999999999995 -230.00035284455043 4.4408989113031304e-016 0 0 -1.0000015341067408 I I #
convexity-sys-attrib $-1 -1 $-1 $416 $282 #
point $-1 -1 $-1 -4.4000000000000004 -230.00035284455043 0.80000000000000127 #
convexity-sys-attrib $-1 -1 $-1 $421 $286 #
edge $668 -1 $-1 $650 3.5330004564070725 $558 57.191399659252831 $516 $669 forward @7 unknown #
attrib_edge_convexity-kcp-attrib $-1 -1 $670 $-1 $427 1 #
vertex $-1 -1 $-1 $427 $671 #
straight-curve $-1 -1 $-1 -6.22630704160101 -188.42667397706296 -4.3548487411003807 -0.043728255667030411 0.9954125937477315 -0.08511566295675474 I I #
face $-1 -1 $-1 $454 $672 $26 $-1 $596 reversed single #
loop $-1 -1 $-1 $-1 $447 $430 #
plane-surface $-1 -1 $-1 -15.999999999999993 0 0 1 0 0 0 0 -1 forward_v I I I I #
coedge $-1 -1 $-1 $434 $433 $194 $305 forward $192 $-1 #
coedge $-1 -1 $-1 $673 $674 $433 $565 forward $675 $-1 #
edge $-1 -1 $-1 $449 -1.570796326794897 $440 -2.889943445561051e-016 $564 $208 forward @7 unknown #
coedge $-1 -1 $-1 $676 $677 $434 $567 forward $672 $-1 #
edge $-1 -1 $-1 $441 2.889943445561051e-016 $309 1.570796326794897 $566 $311 forward @7 unknown #
coedge $-1 -1 $-1 $678 $435 $677 $580 forward $571 $-1 #
coedge $-1 -1 $-1 $435 $678 $673 $679 forward $571 $-1 #
coedge $-1 -1 $-1 $680 $681 $193 $302 reversed $682 $-1 #
loop $-1 -1 $-1 $-1 $435 $605 #
coedge $-1 -1 $-1 $573 $436 $681 $683 reversed $574 $-1 #
coedge $-1 -1 $-1 $436 $572 $462 $465 reversed $574 $-1 #
loop $-1 -1 $-1 $-1 $436 $684 #
coedge $-1 -1 $-1 $576 $438 $463 $326 forward $577 $-1 #
coedge $-1 -1 $-1 $438 $575 $680 $578 reversed $577 $-1 #
loop $-1 -1 $-1 $-1 $438 $685 #
edge $-1 -1 $-1 $440 0 $477 15.999999999999993 $576 $686 forward @7 unknown #
point $-1 -1 $-1 0 115.0001764222752 -15.999999999999993 #
edge $-1 -1 $-1 $441 0 $597 15.999999999999993 $677 $687 forward @7 unknown #
point $-1 -1 $-1 0 -115.0001764222752 -15.999999999999993 #
coedge $-1 -1 $-1 $479 $443 $446 $585 reversed $583 $-1 #
loop $-1 -1 $-1 $-1 $443 $475 #
coedge $-1 -1 $-1 $446 $445 $591 $688 reversed $448 $-1 #
edge $-1 -1 $-1 $478 -15.999999999999993 $449 -4.9960036108132084e-016 $582 $689 forward @7 unknown #
coedge $-1 -1 $-1 $690 $447 $674 $589 forward $561 $-1 #
coedge $-1 -1 $-1 $447 $690 $676 $455 reversed $561 $-1 #
face $-1 -1 $-1 $607 $448 $26 $-1 $562 reversed single #
edge $-1 -1 $-1 $449 -4.9960036108132084e-016 $691 15.999999999999993 $674 $689 forward @7 unknown #
point $-1 -1 $-1 -15.999999999999993 115.0001764222752 4.9960036108132084e-016 #
coedge $-1 -1 $-1 $451 $468 $584 $688 forward $297 $-1 #
vertex $-1 -1 $-1 $688 $692 #
straight-curve $-1 -1 $-1 0 -115.0001764222752 15.999999999999993 1 0 0 I I #
straight-curve $-1 -1 $-1 -15.999999999999993 -115.0001764222752 0 0 0 -1 I I #
face $-1 -1 $-1 $684 $461 $26 $-1 $596 reversed single #
plane-surface $-1 -1 $-1 0 -115.0001764222752 0 0 1 0 0 0 1 forward_v I I I I #
vertex $-1 -1 $-1 $693 $694 #
vertex $-1 -1 $-1 $604 $695 #
coedge $-1 -1 $-1 $464 $472 $459 $600 forward $473 $-1 #
edge $-1 -1 $-1 $598 -15.999999999999993 $315 -4.9960036108132084e-016 $599 $603 forward @7 unknown #
coedge $-1 -1 $-1 $463 $462 $696 $609 reversed $431 $-1 #
vertex $-1 -1 $-1 $465 $697 #
straight-curve $-1 -1 $-1 15.999999999999993 -115.0001764222752 0 0 0 -1 I I #
edge $-1 -1 $-1 $598 -115.0001764222752 $470 115.0001764222752 $472 $698 forward @7 unknown #
face $-1 -1 $-1 $588 $571 $26 $-1 $699 reversed single #
point $-1 -1 $-1 15.999999999999993 115.0001764222752 15.999999999999993 #
face $-1 -1 $-1 $-1 $473 $26 $-1 $432 reversed single #
face $-1 -1 $-1 $700 $675 $26 $-1 $476 reversed single #
edge $-1 -1 $-1 $477 -115.0001764222752 $602 115.0001764222752 $601 $701 forward @7 unknown #
point $-1 -1 $-1 15.999999999999993 115.0001764222752 -15.999999999999993 #
point $-1 -1 $-1 -15.999999999999993 115.0001764222752 15.999999999999993 #
straight-curve $-1 -1 $-1 -15.999999999999993 115.0001764222752 0 0 0 -1 I I #
point $-1 -1 $-1 -15.999999999999993 -115.0001764222752 -15.999999999999993 #
straight-curve $-1 -1 $-1 -15.999999999999993 0 -15.999999999999993 0 1 0 I I #
point $-1 -1 $-1 -15.999999999999993 115.0001764222752 -15.999999999999993 #
model_id-kcp-attrib $-1 -1 $-1 $-1 $499 1 1021324472 1021324472 1286602753 10 #
plane-surface $-1 -1 $-1 -2.8284314638553081 -165.00025312761227 2.8284314638553081 0.70710678118654757 0 -0.70710678118654757 0 1.000001534106741 0 forward_v I I I I #
attrib_edge_convexity-kcp-attrib $-1 -1 $702 $-1 $501 1 #
straight-curve $-1 -1 $-1 -6.4234347827362912 -183.93933659966447 0.76657185502567549 -0.04384531448570541 0.99807727406806257 0.04384531448570541 I I #
coedge $-1 -1 $-1 $505 $503 $542 $659 reversed $244 $-1 #
attrib_edge_convexity-kcp-attrib $-1 -1 $703 $-1 $504 2 #
straight-curve $-1 -1 $-1 -4.4000000000000004 -230.00000000000011 8.8817978226062608e-016 -1.6653370917386738e-016 0 0.99999999999999956 I I #
edge $704 -1 $-1 $507 18.590080887070894 $705 42.306083234819731 $509 $706 forward @7 unknown #
convexity-sys-attrib $-1 -1 $-1 $506 $373 #
point $-1 -1 $-1 -5.5948900000000013 -202.8000000000001 0.061972927710615029 #
coedge $-1 -1 $-1 $707 $509 $658 $708 forward $511 $-1 #
coedge $-1 -1 $-1 $510 $709 $710 $711 reversed $511 $-1 #
convexity-sys-attrib $-1 -1 $-1 $512 $375 #
coedge $-1 -1 $-1 $710 $522 $514 $630 forward $640 $-1 #
edge $-1 -1 $-1 $641 -4.0000000000000009 $631 4.0000000000000009 $514 $712 forward @7 unknown #
vertex $-1 -1 $-1 $711 $713 #
straight-curve $-1 -1 $-1 -5.6568629277106162 -165.00025312761227 4.4408989113031304e-016 0 -1.000001534106741 0 I I #
coedge $-1 -1 $-1 $516 $532 $534 $653 forward $367 $-1 #
coedge $-1 -1 $-1 $526 $520 $709 $714 forward $383 $-1 #
coedge $-1 -1 $-1 $522 $710 $520 $636 forward $640 $-1 #
edge $-1 -1 $-1 $715 -4.0000000000000009 $524 4.0000000000000009 $520 $716 forward @7 unknown #
model_id-kcp-attrib $-1 -1 $-1 $-1 $521 1 1021324472 1021324472 1286602753 17 #
face $717 -1 $-1 $267 $640 $10 $-1 $718 forward single #
plane-surface $-1 -1 $-1 2.8284314638553076 -165.00025312761227 2.8284314638553076 -0.70710678118654746 0 -0.70710678118654746 0 -1.000001534106741 0 forward_v I I I I #
loop $-1 -1 $-1 $-1 $710 $638 #
vertex $-1 -1 $-1 $523 $719 #
straight-curve $-1 -1 $-1 2.8284314638553081 -100.0001534106741 -2.8284314638553081 -0.70710786596382691 0 -0.70710786596382691 I I #
point $-1 -1 $-1 5.6568629277106162 -100.0001534106741 -4.4408989113031304e-016 #
coedge $-1 -1 $-1 $720 $663 $526 $645 reversed $721 $-1 #
edge $722 -1 $-1 $723 -1.6464517224234427 $647 -1.6464334399078069 $526 $724 forward @7 unknown #
attrib_edge_convexity-kcp-attrib $-1 -1 $725 $-1 $527 1 #
vertex $-1 -1 $-1 $527 $726 #
straight-curve $-1 -1 $-1 2.0605794694222399 -197.29796052363579 3.5962834582883758 0.08488962694897241 -0.99276914269570449 -0.08488962694897241 I I #
attrib_edge_convexity-kcp-attrib $-1 -1 $727 $-1 $531 2 #
vertex $-1 -1 $-1 $556 $728 #
straight-curve $-1 -1 $-1 1.332269673390939e-015 -173.19999999999996 -5.6568499999999995 -0.99999999999999956 0 1.6653370917386738e-016 I I #
straight-curve $-1 -1 $-1 4.4408989113031304e-016 -165.00025312761227 -5.6568629277106162 0 -1.000001534106741 0 I I #
edge $729 -1 $-1 $537 -1.646451722423443 $650 -1.6464334399078058 $633 $730 forward @7 unknown #
convexity-sys-attrib $-1 -1 $-1 $536 $398 #
point $-1 -1 $-1 4.4408989113031304e-016 -173.19999999999996 -5.6568629277106162 #
attrib_edge_convexity-kcp-attrib $-1 -1 $731 $-1 $541 1 #
straight-curve $-1 -1 $-1 -4.3999999999999995 -231 0.80000000000000171 0 -1.000001534106741 0 I I #
coedge $-1 -1 $-1 $542 $546 $626 $708 reversed $409 $-1 #
edge $732 -1 $-1 $705 10.338535849250265 $413 13.884399189875817 $542 $733 forward @7 unknown #
model_id-kcp-attrib $-1 -1 $-1 $-1 $544 1 1021324472 1021324472 1286602753 14 #
face $734 -1 $-1 $547 $721 $10 $-1 $735 forward single #
plane-surface $-1 -1 $-1 1.332269673390939e-015 -173.19999999999996 -6.6568499999999986 0 -1 0 1.6653370917386738e-016 0 -0.99999999999999956 forward_v I I I I #
coedge $-1 -1 $-1 $644 $720 $546 $664 reversed $721 $-1 #
edge $736 -1 $-1 $647 -1.2927710616105998e-005 $737 1.2927710615217816e-005 $663 $738 reversed @7 unknown #
model_id-kcp-attrib $-1 -1 $-1 $-1 $547 1 1021324472 1021324472 1286602753 16 #
plane-surface $-1 -1 $-1 -7 -230 0.80000000000000304 -1.6653345369377353e-016 -0.085197026293939646 0.996364123556579 -0.99999999999999956 0 1.6653370917386738e-016 forward_v I I I I #
convexity-sys-attrib $-1 -1 $-1 $551 $415 #
attrib_edge_convexity-kcp-attrib $-1 -1 $739 $-1 $556 1 #
straight-curve $-1 -1 $-1 0.29990216304432893 -169.69254616574918 -5.9567650907549448 -0.08488962694897241 -0.99276914269570449 0.08488962694897241 I I #
convexity-sys-attrib $-1 -1 $-1 $557 $427 #
point $-1 -1 $-1 -4.5550544187192283 -226.47040297503301 -1.1018085089913869 #
loop $-1 -1 $-1 $-1 $566 $560 #
coedge $-1 -1 $-1 $674 $564 $569 $679 reversed $675 $-1 #
coedge $-1 -1 $-1 $564 $673 $586 $589 reversed $675 $-1 #
loop $-1 -1 $-1 $-1 $564 $608 #
coedge $-1 -1 $-1 $677 $566 $587 $455 forward $672 $-1 #
coedge $-1 -1 $-1 $566 $676 $568 $580 reversed $672 $-1 #
coedge $-1 -1 $-1 $569 $568 $690 $693 forward $571 $-1 #
edge $-1 -1 $-1 $691 -15.999999999999993 $440 0 $673 $686 forward @7 unknown #
coedge $-1 -1 $-1 $696 $570 $576 $578 forward $682 $-1 #
coedge $-1 -1 $-1 $570 $696 $572 $683 forward $682 $-1 #
loop $-1 -1 $-1 $-1 $570 $700 #
edge $-1 -1 $-1 $602 -15.999999999999993 $441 0 $572 $687 forward @7 unknown #
face $-1 -1 $-1 $685 $574 $26 $-1 $596 reversed single #
face $-1 -1 $-1 $325 $577 $26 $-1 $476 reversed single #
straight-curve $-1 -1 $-1 0 115.0001764222752 -15.999999999999993 1 0 0 I I #
straight-curve $-1 -1 $-1 0 -115.0001764222752 -15.999999999999993 -1 0 0 I I #
edge $-1 -1 $-1 $478 -115.0001764222752 $592 115.0001764222752 $584 $740 forward @7 unknown #
straight-curve $-1 -1 $-1 -15.999999999999993 115.0001764222752 0 0 0 -1 I I #
coedge $-1 -1 $-1 $587 $586 $678 $693 reversed $561 $-1 #
vertex $-1 -1 $-1 $679 $741 #
point $-1 -1 $-1 -15.999999999999993 -115.0001764222752 15.999999999999993 #
edge $-1 -1 $-1 $597 -115.0001764222752 $691 115.0001764222752 $690 $742 forward @7 unknown #
point $-1 -1 $-1 -15.999999999999993 -115.0001764222752 -15.999999999999993 #
point $-1 -1 $-1 15.999999999999993 -115.0001764222752 15.999999999999993 #
coedge $-1 -1 $-1 $681 $680 $601 $609 forward $682 $-1 #
point $-1 -1 $-1 15.999999999999993 -115.0001764222752 -15.999999999999993 #
straight-curve $-1 -1 $-1 15.999999999999993 0 15.999999999999993 0 1 0 I I #
plane-surface $-1 -1 $-1 0 0 -15.999999999999993 0 0 1 1 0 0 forward_v I I I I #
face $-1 -1 $-1 $469 $682 $26 $-1 $699 reversed single #
straight-curve $-1 -1 $-1 15.999999999999993 0 -15.999999999999993 0 -1 0 I I #
convexity-sys-attrib $-1 -1 $-1 $618 $501 #
convexity-sys-attrib $-1 -1 $-1 $621 $504 #
attrib_edge_convexity-kcp-attrib $-1 -1 $743 $-1 $623 1 #
vertex $-1 -1 $-1 $708 $744 #
straight-curve $-1 -1 $-1 -6.409977942808327 -184.24566274352759 -0.75311501509771106 0.043845314485705417 -0.99807727406806268 0.043845314485705417 I I #
coedge $-1 -1 $-1 $709 $626 $720 $745 forward $511 $-1 #
edge $746 -1 $-1 $705 -28.790695053862887 $737 24.867704148982895 $626 $747 forward @7 unknown #
coedge $-1 -1 $-1 $627 $707 $634 $714 reversed $511 $-1 #
coedge $-1 -1 $-1 $635 $629 $627 $711 forward $640 $-1 #
edge $-1 -1 $-1 $631 -4.0000000000000009 $715 4.0000000000000009 $627 $748 forward @7 unknown #
straight-curve $-1 -1 $-1 -2.8284314638553076 -100.0001534106741 -2.8284314638553076 -0.70710786596382702 0 0.70710786596382702 I I #
point $-1 -1 $-1 -5.6568629277106162 -100.0001534106741 4.4408989113031304e-016 #
edge $-1 -1 $-1 $715 -65 $723 8.1997342931200397 $709 $749 forward @7 unknown #
vertex $-1 -1 $-1 $711 $750 #
straight-curve $-1 -1 $-1 2.8284314638553076 -100.0001534106741 2.8284314638553076 0.70710786596382702 0 -0.70710786596382702 I I #
model_id-kcp-attrib $-1 -1 $-1 $-1 $638 1 1021324472 1021324472 1286602753 18 #
plane-surface $-1 -1 $-1 0 -100.0001534106741 0 0 1 0 -0.70710786596382702 0 0.70710786596382702 forward_v I I I I #
point $-1 -1 $-1 4.4408989113031304e-016 -100.0001534106741 -5.6568629277106162 #
coedge $-1 -1 $-1 $663 $644 $707 $745 reversed $721 $-1 #
loop $-1 -1 $-1 $-1 $720 $661 #
attrib_edge_convexity-kcp-attrib $-1 -1 $751 $-1 $645 1 #
vertex $-1 -1 $-1 $645 $752 #
straight-curve $-1 -1 $-1 1.1642189638553073 -173.19999999999996 4.4926439638553086 0.70710786596382702 0 -0.70710786596382702 I I #
convexity-sys-attrib $-1 -1 $-1 $646 $527 #
point $-1 -1 $-1 1.2927710615217813e-005 -173.19999999999996 5.6568500000000004 #
convexity-sys-attrib $-1 -1 $-1 $649 $531 #
point $-1 -1 $-1 -1.2927710616550082e-005 -173.19999999999996 -5.6568499999999995 #
attrib_edge_convexity-kcp-attrib $-1 -1 $753 $-1 $653 1 #
straight-curve $-1 -1 $-1 -1.1642189638553078 -173.19999999999996 -4.4926439638553086 -0.70710786596382702 0 0.70710786596382702 I I #
convexity-sys-attrib $-1 -1 $-1 $656 $541 #
attrib_edge_convexity-kcp-attrib $-1 -1 $754 $-1 $659 1 #
straight-curve $-1 -1 $-1 -5.007140557558003 -216.17929418977693 1.981779841802503 0.043728255667030411 -0.9954125937477315 -0.08511566295675474 I I #
model_id-kcp-attrib $-1 -1 $-1 $-1 $661 1 1021324472 1021324472 1286602753 15 #
plane-surface $-1 -1 $-1 -8.8817978226062608e-016 -173.19999999999996 6.6568500000000013 0 -1 0 1.6653370917386738e-016 0 -0.99999999999999956 forward_v I I I I #
attrib_edge_convexity-kcp-attrib $-1 -1 $755 $-1 $664 2 #
vertex $-1 -1 $-1 $708 $756 #
straight-curve $-1 -1 $-1 -8.8817978226062608e-016 -173.19999999999996 5.6568500000000004 0.99999999999999956 0 -1.6653370917386738e-016 I I #
convexity-sys-attrib $-1 -1 $-1 $668 $556 #
straight-curve $-1 -1 $-1 -15.999999999999993 0 15.999999999999993 0 -1 0 I I #
point $-1 -1 $-1 -15.999999999999993 115.0001764222752 -15.999999999999993 #
straight-curve $-1 -1 $-1 -15.999999999999993 0 -15.999999999999993 0 1 0 I I #
convexity-sys-attrib $-1 -1 $-1 $704 $623 #
point $-1 -1 $-1 -4.5550544187192266 -226.47040297503304 1.1018085089913896 #
edge $757 -1 $-1 $737 1.6464334399078073 $723 1.6464517224234432 $707 $758 forward @7 unknown #
attrib_edge_convexity-kcp-attrib $-1 -1 $759 $-1 $708 1 #
straight-curve $-1 -1 $-1 -2.1110230559951813 -197.88788932879612 3.5458398717154354 0.084889626948972396 0.99276914269570449 0.084889626948972396 I I #
straight-curve $-1 -1 $-1 -2.8284314638553081 -100.0001534106741 2.8284314638553081 0.70710786596382691 0 0.70710786596382691 I I #
straight-curve $-1 -1 $-1 -4.4408989113031304e-016 -165.00025312761227 5.6568629277106162 0 -1.000001534106741 0 I I #
point $-1 -1 $-1 -4.4408989113031304e-016 -100.0001534106741 5.6568629277106162 #
convexity-sys-attrib $-1 -1 $-1 $722 $645 #
point $-1 -1 $-1 -4.4408989113031304e-016 -173.19999999999996 5.6568629277106162 #
convexity-sys-attrib $-1 -1 $-1 $729 $653 #
convexity-sys-attrib $-1 -1 $-1 $732 $659 #
convexity-sys-attrib $-1 -1 $-1 $736 $664 #
point $-1 -1 $-1 -1.2927710616105991e-005 -173.19999999999996 5.6568500000000004 #
attrib_edge_convexity-kcp-attrib $-1 -1 $760 $-1 $745 1 #
straight-curve $-1 -1 $-1 -1.1642189638553082 -173.19999999999996 4.4926439638553086 0.70710786596382691 0 0.70710786596382691 I I #
convexity-sys-attrib $-1 -1 $-1 $746 $708 #
convexity-sys-attrib $-1 -1 $-1 $757 $745 #
End-of-ACIS-data 