106 0 1 0           
body $-1 $1 $-1 $2 #
lump $-1 $-1 $3 $0 #
transform $-1 0 0 1 0.70710678118654746 0.70710678118654757 0 -0.70710678118654746 0.70710678118654757 0 -62.225513121984861 105.22551312198489 0 1.0000015341067412 1 0 0 #
shell $-1 $-1 $-1 $4 $1 #
face $-1 $5 $6 $3 $-1 $7 forward single #
face $-1 $8 $9 $3 $-1 $10 forward single #
loop $-1 $11 $12 $4 #
cone-surface $-1 0 -27.57712216002637 -115.57715174132373 0 0.70710678118654757 0.70710678118654757 1.9999969317912243 0 0 1 I I 0 1 0 I I I I #
face $-1 $13 $14 $3 $-1 $15 forward single #
loop $-1 $-1 $16 $5 #
plane-surface $-1 0 -30.405544945670098 -118.40557452696746 0 -0.70710678118654757 -0.70710678118654757 -0.99999846589561214 0 0 0 I I I I #
loop $-1 $-1 $17 $4 #
coedge $-1 $12 $12 $16 $18 1 $6 $-1 #
face $-1 $19 $20 $3 $-1 $21 forward single #
loop $-1 $22 $23 $8 #
cone-surface $-1 3.9442984751301798e-031 -19.445406651300647 -107.44543623259801 0 0.70710678118654757 0.70710678118654757 4.7499927130041577 0 0 1 I I 0.34425464915842319 0.93887631588660869 0 I I I I #
coedge $-1 $16 $16 $12 $18 0 $9 $-1 #
coedge $-1 $17 $17 $23 $24 1 $11 $-1 #
edge $-1 $25 $25 $16 $26 0 #
face $-1 $27 $28 $3 $-1 $29 forward single #
loop $-1 $30 $31 $13 #
cone-surface $-1 0 7.0710569641093244 -80.928972617188037 0 0.70710678118654757 0.70710678118654757 9.9999846589561212 0 0 1 I I 0 1 0 I I I I #
loop $-1 $-1 $32 $8 #
coedge $-1 $23 $23 $17 $24 0 $14 $-1 #
edge $-1 $33 $33 $23 $34 1 #
vertex $-1 $18 $35 #
ellipse-curve $-1 0 -30.405544945670098 -118.40557452696746 0 -0.70710678118654757 -0.70710678118654757 1.9999969317912243 0 0 1 I I #
face $-1 $36 $37 $3 $-1 $38 forward single #
loop $-1 $39 $40 $19 #
plane-surface $-1 0 -14.142113928218635 -102.14214350951599 0 -0.70710678118654757 -0.70710678118654757 -0.99999846589561214 0 0 0 I I I I #
loop $-1 $41 $42 $13 #
coedge $-1 $31 $31 $43 $44 1 $20 $-1 #
coedge $-1 $32 $32 $40 $45 1 $22 $-1 #
vertex $-1 $24 $46 #
ellipse-curve $-1 3.9442984751301798e-031 -24.748699374382639 -112.74872895568001 0 -0.70710678118654757 -0.70710678118654757 1.9999969317912243 0 0 1 I I #
point $-1 1.9999969317912243 -30.405544945670098 -118.40557452696746 #
face $-1 $47 $48 $3 $-1 $49 forward single #
loop $-1 $50 $43 $27 #
cone-surface $-1 0 31.112650642081004 -56.887378939216347 0 0.70710678118654757 0.70710678118654757 12.499980823695152 0 0 1 I I 0.52999894000318015 0.84799830400508791 0 I I I I #
loop $-1 $-1 $51 $19 #
coedge $-1 $40 $40 $32 $45 0 $28 $-1 #
loop $-1 $-1 $52 $13 #
coedge $-1 $42 $42 $51 $53 1 $30 $-1 #
coedge $-1 $43 $43 $31 $44 0 $37 $-1 #
edge $-1 $54 $54 $43 $55 1 #
edge $-1 $56 $56 $40 $57 0 #
point $-1 1.9999969317912243 -24.748699374382639 -112.74872895568001 #
face $-1 $58 $59 $3 $-1 $60 forward single #
loop $-1 $61 $62 $36 #
cone-surface $-1 0 48.08318735594338 -39.916842225353975 0 0.70710678118654757 0.70710678118654757 14.999976988434184 0 0 1 I I 0 1 0 I I I I #
loop $-1 $-1 $63 $27 #
coedge $-1 $51 $51 $42 $53 0 $39 $-1 #
coedge $-1 $64 $65 $66 $67 1 $41 $-1 #
edge $-1 $68 $68 $51 $69 0 #
vertex $-1 $44 $70 #
ellipse-curve $-1 0 28.28422785643728 -59.715801724860071 0 -0.70710678118654757 -0.70710678118654757 9.9999846589561212 0 0 1 I I #
vertex $-1 $45 $71 #
ellipse-curve $-1 3.9442984751301798e-031 -14.142113928218627 -102.14214350951599 0 0.70710678118654757 0.70710678118654757 7.4999884942171056 0 0 1 I I #
face $-1 $72 $73 $3 $-1 $74 forward single #
loop $-1 $-1 $75 $47 #
plane-surface $-1 0 62.225301284162015 -25.77472829713534 0 0.70710678118654757 0.70710678118654757 0.99999846589561214 0 0 0 I I I I #
loop $-1 $-1 $76 $36 #
coedge $-1 $62 $62 $63 $77 1 $48 $-1 #
coedge $-1 $63 $63 $62 $77 0 $50 $-1 #
coedge $-1 $78 $52 $79 $80 1 $41 $-1 #
coedge $-1 $52 $78 $81 $82 1 $41 $-1 #
coedge $-1 $83 $84 $52 $67 0 $85 $-1 #
edge $-1 $86 $87 $66 $88 0 #
vertex $-1 $53 $89 #
ellipse-curve $-1 0 -14.142113928218635 -102.14214350951599 0 -0.70710678118654757 -0.70710678118654757 9.9999846589561212 0 0 1 I I #
point $-1 9.9999846589561212 28.28422785643728 -59.715801724860071 #
point $-1 7.4999884942170922 -14.142113928218658 -102.14214350951602 #
face $-1 $90 $91 $3 $-1 $92 forward single #
loop $-1 $-1 $79 $58 #
plane-surface $-1 0 0 -88.000000000000014 0 0 -1 -1 0 0 0 I I I I #
coedge $-1 $75 $75 $76 $93 0 $59 $-1 #
coedge $-1 $76 $76 $75 $93 1 $61 $-1 #
edge $-1 $94 $94 $62 $95 0 #
coedge $-1 $65 $64 $96 $97 1 $41 $-1 #
coedge $-1 $98 $98 $64 $80 0 $73 $-1 #
edge $-1 $99 $86 $79 $100 0 #
coedge $-1 $101 $101 $65 $82 0 $102 $-1 #
edge $-1 $87 $103 $81 $100 0 #
coedge $-1 $96 $66 $101 $104 1 $85 $-1 #
coedge $-1 $66 $96 $98 $105 1 $85 $-1 #
loop $-1 $-1 $96 $72 #
vertex $-1 $105 $106 #
vertex $-1 $67 $107 #
intcurve-curve $-1 0 { surfintcur nubs 3 open 43 
	8.2130681773431196 3 8.2187189284029252 2 8.2370529562941464 2 8.2553869841853675 2 8.3266504731161 2 
	8.3979139620468324 2 8.6788361403147931 2 8.9597583185827556 2 9.9398736796770315 2 10.919989040771307 2 
	12.216060737111995 2 13.512132433452685 2 14.808204129793374 2 16.104275826134064 2 17.210852567593719 2 
	18.317429309053377 2 19.424006050513036 2 20.530582791972691 2 21.305627735305762 2 22.080672678638834 2 
	22.855717621971905 2 23.630762565304977 2 24.405807508637981 2 25.180852451970985 2 25.955897395303985 2 
	26.730942338636989 2 27.837519080096719 2 28.944095821556445 2 30.050672563016175 2 31.157249304475904 2 
	32.453321000816601 2 33.74939269715729 2 35.045464393497987 2 36.341536089838684 2 37.321651450932961 2 
	38.301766812027232 2 38.582688990295182 2 38.863611168563139 2 38.934874657493815 2 39.00613814642449 2 
	39.024472174315761 2 39.042806202207025 2 39.048456953266637 3 
	-9.9999692444789705 -0.024801400660203227 -88 
	-9.9999657567318518 -0.026207666555754155 -87.998597084690402 
	-9.9999616891536647 -0.027720915908414918 -87.997324124181191 
	-9.9999431556804481 -0.034064607195881044 -87.992458316522232 
	-9.999922314879349 -0.039852647893796916 -87.989125088053569 
	-9.9998681763957116 -0.051691398137894418 -87.982870215917316 
	-9.9998348700636299 -0.057733189932458739 -87.97993170802269 
	-9.9996639972451948 -0.084743731937824057 -87.967189268747376 
	-9.9994374245395985 -0.1087591465464155 -87.956920665118602 
	-9.9987993033955878 -0.15681150970950336 -87.936417625772421 
	-9.998387739073646 -0.18089355143771502 -87.926289035477254 
	-9.996192319717494 -0.28912950781583746 -87.880882030257723 
	-9.9930688955450631 -0.38421934346138537 -87.841423424105585 
	-9.9839504290571366 -0.57426847830278904 -87.762522791095535 
	-9.9779552917838572 -0.66925100578346353 -87.723136737165447 
	-9.9486055935362803 -1.0566000408673286 -87.562544237765351 
	-9.908998560520816 -1.3863802680795381 -87.425922861091536 
	-9.7951758038814827 -2.0407924175654646 -87.154808118549838 
	-9.7209468754573862 -2.3654275405971346 -87.020328022752807 
	-9.5336640701923621 -3.0447040440792348 -86.738941620874698 
	-9.3983845739464762 -3.4431084019542006 -86.573909723552916 
	-9.0684002062888656 -4.2365960116588841 -86.245224718217131 
	-8.8736794909856371 -4.6316737008811284 -86.081574088102712 
	-8.4313787366705917 -5.3950386086163249 -85.765371400934583 
	-8.1836388617147584 -5.7635710328409191 -85.612717813789757 
	-7.6500685909024675 -6.4550094209161317 -85.326310636661006 
	-7.3642279092687337 -6.7779086139531746 -85.192559863032614 
	-6.8207497086533415 -7.321385147067816 -84.96744215398283 
	-6.5445613039459163 -7.570573873831675 -84.864223838933825 
	-5.9501579453279136 -8.0461476413207915 -84.667233042262083 
	-5.6319273024880729 -8.2725159440505287 -84.573467492659873 
	-4.9682685536860189 -8.6873144740506412 -84.401651064397655 
	-4.6226267116441999 -8.8758621101155875 -84.323551552644346 
	-3.923224028927971 -9.2064064179165648 -84.186634740074794 
	-3.5694623607326541 -9.3484015950787089 -84.127818058234936 
	-2.98095458517703 -9.5487949305878246 -84.044811935683555 
	-2.7234143952713361 -9.6259340170575172 -84.012859698435335 
	-2.1903902796325476 -9.7610338638900522 -83.956899197666615 
	-1.9149025858753843 -9.8189819346511982 -83.932896190267144 
	-1.3594432716413571 -9.9111640152743341 -83.894712916763069 
	-1.0793730002499613 -9.9454121490861187 -83.880526800241142 
	-0.52882508013041851 -9.989825470121259 -83.862130103334152 
	-0.2583483144442878 -10.000000000000002 -83.85791565307872 
	0.25834831444440398 -9.9999999999999982 -83.85791565307872 
	0.52882508013051188 -9.9898254701212519 -83.862130103334152 
	1.0793730002500066 -9.9454121490861116 -83.880526800241142 
	1.3594432716413778 -9.9111640152743341 -83.894712916763069 
	1.9149025858753563 -9.8189819346512053 -83.932896190267158 
	2.1903902796324966 -9.7610338638900647 -83.956899197666601 
	2.7234143952712389 -9.6259340170575438 -84.012859698435321 
	2.9809545851769128 -9.5487949305878601 -84.044811935683526 
	3.5694623607325431 -9.3484015950787516 -84.127818058234908 
	3.9232240289278812 -9.2064064179166039 -84.18663474007478 
	4.6226267116441617 -8.8758621101156088 -84.323551552644332 
	4.9682685536859994 -8.6873144740506483 -84.40165106439764 
	5.631927302488096 -8.2725159440505109 -84.573467492659887 
	5.9501579453279554 -8.0461476413207613 -84.667233042262112 
	6.5445613039459909 -7.570573873831612 -84.864223838933853 
	6.8207497086534321 -7.3213851470677334 -84.967442153982859 
	7.3642279092688341 -6.7779086139530653 -85.192559863032642 
	7.6500685909025563 -6.4550094209160251 -85.326310636661077 
	8.1836388617148383 -5.7635710328408045 -85.612717813789828 
	8.4313787366706663 -5.3950386086162041 -85.76537140093464 
	8.8736794909857011 -4.6316737008810023 -86.081574088102769 
	9.0684002062889295 -4.2365960116587473 -86.245224718217187 
	9.3983845739465313 -3.4431084019540488 -86.573909723552973 
	9.5336640701924118 -3.0447040440790833 -86.738941620874769 
	9.7209468754574253 -2.3654275405969782 -87.020328022752892 
	9.7951758038815164 -2.0407924175653118 -87.154808118549937 
	9.9089985605208373 -1.386380268079386 -87.425922861091607 
	9.948605593536298 -1.0566000408671683 -87.562544237765422 
	9.9779552917838679 -0.66925100578330654 -87.723136737165504 
	9.9839504290571455 -0.57426847830265981 -87.762522791095662 
	9.9930688955450684 -0.38421934346125236 -87.841423424105685 
	9.9961923197174993 -0.28912950781567509 -87.880882030257737 
	9.9983877390736495 -0.18089355143755401 -87.926289035477225 
	9.9987993033955878 -0.15681150970939084 -87.936417625772449 
	9.9994374245395985 -0.10875914654634171 -87.956920665118616 
	9.9996639972451966 -0.08474373193779472 -87.967189268747433 
	9.9998348700636299 -0.057733189932447269 -87.979931708022804 
	9.9998681763957133 -0.051691398138119765 -87.982870215917899 
	9.9999223148793508 -0.039852647894011647 -87.98912508805418 
	9.9999431556804481 -0.034064607195859915 -87.992458316522431 
	9.9999616891536647 -0.027720915908475741 -87.997324124181404 
	9.9999657567318536 -0.026207666555710472 -87.998597084690445 
	9.9999692444789705 -0.024801400660203227 -88 
	0.001 
	cone 0 7.0710569641093244 -80.928972617188037 0 0.70710678118654757 0.70710678118654757 9.9999846589561212 0 0 1 I I 0 1 0 I I I I 
	cone 0 0 -58.000000000000014 0 0 1 10 0 0 1 I I 0 1 0 I I I I 
	nullbs 
	nullbs 
	} I I #
point $-1 9.9999846589561212 -14.142113928218635 -102.14214350951599 #
face $-1 $108 $102 $3 $-1 $74 forward single #
loop $-1 $85 $109 $72 #
cone-surface $-1 0 0 -58.000000000000014 0 0 1 10 0 0 1 I I 0 1 0 I I I I #
edge $-1 $110 $110 $75 $111 0 #
vertex $-1 $77 $112 #
ellipse-curve $-1 0 33.941073427724746 -54.058956153572609 0 -0.70710678118654757 -0.70710678118654757 14.999976988434184 0 0 1 I I #
coedge $-1 $84 $83 $78 $97 0 $85 $-1 #
edge $-1 $103 $99 $96 $113 0 #
coedge $-1 $79 $79 $84 $105 0 $73 $-1 #
vertex $-1 $80 $114 #
ellipse-curve $-1 0 2.9581297347647251e-005 -88.000000000000014 0 0 1 0 14.142113928218636 0 0.70710678118654746 I I #
coedge $-1 $81 $81 $83 $104 0 $102 $-1 #
loop $-1 $-1 $81 $90 #
vertex $-1 $104 $115 #
edge $-1 $103 $87 $101 $116 0 #
edge $-1 $86 $99 $98 $116 0 #
point $-1 -9.9999692444789705 -0.024801400660203227 -88 #
point $-1 9.9999692444789705 -0.024801400660203227 -88 #
face $-1 $117 $118 $3 $-1 $119 forward single #
coedge $-1 $109 $109 $120 $121 1 $91 $-1 #
vertex $-1 $93 $122 #
ellipse-curve $-1 0 62.225301284162015 -25.77472829713534 0 0.70710678118654757 0.70710678118654757 14.999976988434184 0 0 1 I I #
point $-1 14.999976988434184 33.941073427724746 -54.058956153572609 #
intcurve-curve $-1 0 { surfintcur nubs 3 open 39 
	-56.235514502585424 3 -56.227790624857697 2 -56.216886476616054 2 -56.194869901768442 2 -56.17285332692083 2 
	-56.085303958970357 2 -55.741361444973222 2 -54.38628476619639 2 -52.049743813915299 2 -49.713202861634201 2 
	-46.928761855945787 2 -44.144320850257373 2 -41.359879844568951 2 -38.575438838880537 2 -35.061089271912053 2 
	-31.546739704943569 2 -30.687165588284699 2 -29.82759147162583 2 -28.96801735496696 2 -28.108443238308091 2 
	-27.248869121649136 2 -26.389295004990188 2 -25.529720888331241 2 -24.670146771672293 2 -21.155797204704044 2 
	-17.64144763773578 2 -14.857006632047387 2 -12.072565626359008 2 -9.2881246206706294 2 -6.5036836149822363 2 
	-4.1671426627011385 2 -1.8306017104200549 2 -0.47552503164320115 2 -0.13158251764576789 2 -0.044033149695437146 2 
	-0.022016574847725678 2 0 3 0.010904148241672964 2 0.018628025969387507 3 
	9.9999693910359291 0.024742238065505399 -88 
	9.9999740770284209 0.022848319602376151 -87.998101547458177 
	9.9999777576725712 0.021126654015784663 -87.995912367146815 
	9.999983631850121 0.01817573474641616 -87.990073973475205 
	9.9999846589561212 0.017516296475647467 -87.986148000902276 
	9.9999846589561212 0.017516296475645794 -87.975174426539184 
	9.9999811820349347 0.019531585268795896 -87.96753609053755 
	9.9999713158072634 0.024058368343065614 -87.952250657054435 
	9.9999646101206636 0.026721118801335902 -87.944648761920078 
	9.9999283441994784 0.03913432411747262 -87.910301038417487 
	9.9998691435121376 0.052315450416820203 -87.877856669147562 
	9.9995278974637234 0.10625756250502791 -87.744524822056647 
	9.9988317294053282 0.15900446767894921 -87.617462979577667 
	9.9944440424151395 0.37532099797685703 -87.094081094386212 
	9.9845071292860492 0.58278170333633283 -86.593422965172678 
	9.9488459701744603 1.0534276178301984 -85.457004268953568 
	9.9097562124073519 1.3809012503041571 -84.666390409941314 
	9.796384882060881 2.0349446427229729 -83.087341334490006 
	9.7220249384274116 2.3615173960231091 -82.298912985706039 
	9.542917210039537 3.0111428184626083 -80.730558529482096 
	9.4199021709194177 3.3809057566969241 -79.837864577049416 
	9.1145721438966447 4.1339636282906591 -78.019810477833985 
	8.9322325275902266 4.5172571361204801 -77.094453876842408 
	8.5048243470556191 5.2781013336021623 -75.257606615129447 
	8.2596957533617577 5.6556852523963617 -74.346035759830457 
	7.7087171323488537 6.3863158234826471 -72.582133153499413 
	7.4027834062176723 6.7393532353002676 -71.729823720468389 
	6.6523723247891331 7.4897620143162573 -69.918173412741069 
	6.127707133422458 7.939483747261832 -68.832447497697629 
	4.8499027290701999 8.7785329325630812 -66.806800969798303 
	4.0985195384637159 9.1682518384837959 -65.865935289869554 
	3.009307991359166 9.5391402856130476 -64.970530472720867 
	2.7748064257385092 9.6108065347859384 -64.797512672723897 
	2.2733097628010688 9.7416228462247236 -64.481693856343909 
	2.0062441744213686 9.80073332926586 -64.338988392662372 
	1.4512015889062526 9.8981516339411968 -64.103799582426632 
	1.1626927112156176 9.9364767578345621 -64.011274464395882 
	0.58036687103433016 9.9874220396580284 -63.888281562704215 
	0.28652470555302562 9.9999999999999982 -63.857915653078734 
	-0.28652470555291576 10.000000000000002 -63.85791565307872 
	-0.58036687103424911 9.9874220396580355 -63.888281562704186 
	-1.1626927112155923 9.9364767578345656 -64.011274464395854 
	-1.4512015889062564 9.8981516339411968 -64.103799582426632 
	-2.0062441744214201 9.8007333292658494 -64.338988392662401 
	-2.2733097628011469 9.7416228462247023 -64.481693856343952 
	-2.7748064257386078 9.6108065347859064 -64.797512672723968 
	-3.0093079913592877 9.5391402856130121 -64.970530472720952 
	-4.0985195384637763 9.1682518384837621 -65.86593528986964 
	-4.8499027290702097 8.7785329325630705 -66.806800969798331 
	-6.12770713342241 7.9394837472618667 -68.832447497697544 
	-6.6523723247890452 7.4897620143163337 -69.918173412740899 
	-7.4027834062175746 6.739353235300376 -71.729823720468133 
	-7.7087171323487631 6.3863158234827564 -72.582133153499143 
	-8.2596957533616759 5.6556852523964816 -74.346035759830144 
	-8.5048243470555391 5.2781013336022937 -75.257606615129134 
	-8.9322325275901537 4.5172571361206231 -77.094453876842095 
	-9.1145721438965808 4.1339636282907959 -78.019810477833659 
	-9.4199021709193644 3.3809057566970715 -79.837864577049061 
	-9.5429172100394872 3.0111428184627611 -80.730558529481726 
	-9.7220249384273743 2.3615173960232632 -82.298912985705655 
	-9.7963848820608508 2.0349446427231199 -83.087341334489651 
	-9.9097562124073306 1.3809012503043085 -84.666390409940959 
	-9.9488459701744425 1.0534276178303581 -85.45700426895317 
	-9.9845071292860403 0.58278170333649015 -86.593422965172294 
	-9.9944440424151324 0.37532099797701646 -87.094081094385842 
	-9.9988317294053264 0.15900446767909124 -87.617462979577397 
	-9.9995278974637234 0.10625756250508897 -87.744524822056491 
	-9.9998691435121376 0.052315450416831277 -87.877856669147434 
	-9.9999283441994784 0.039134324117497982 -87.910301038417302 
	-9.9999646101206636 0.026721118801314316 -87.944648761919879 
	-9.9999713158072634 0.024058368343072036 -87.952250657054321 
	-9.9999811820349347 0.019531585268763699 -87.967536090537479 
	-9.9999846589561212 0.017516296475645794 -87.975174426539155 
	-9.9999846589561212 0.017516296475646911 -87.982513284821721 
	-9.9999846589561212 0.017516296475647467 -87.986148000902276 
	-9.999983631850121 0.018175734746390351 -87.990073973475234 
	-9.9999777576725712 0.021126654015776226 -87.995912367146857 
	-9.9999740770284209 0.022848319602380589 -87.998101547458177 
	-9.9999693910359291 0.024742238065505399 -88 
	0.001 
	cone 0 7.0710569641093244 -80.928972617188037 0 0.70710678118654757 0.70710678118654757 9.9999846589561212 0 0 1 I I 0 1 0 I I I I 
	cone 0 0 -58.000000000000014 0 0 1 10 0 0 1 I I 0 1 0 I I I I 
	nullbs 
	nullbs 
	} I I #
point $-1 -9.9999693910359291 0.024742238065505399 -88 #
point $-1 9.9999693910359291 0.024742238065505399 -88 #
ellipse-curve $-1 0 0 -88.000000000000014 0 0 -1 10 0 0 1 I I #
face $-1 $123 $124 $3 $-1 $125 forward single #
loop $-1 $126 $120 $108 #
cone-surface $-1 0 0 -24.000000000000014 0 0 1 12.5 0 0 1 I I 0.52999894000318015 0.84799830400508791 0 I I I I #
coedge $-1 $120 $120 $109 $121 0 $118 $-1 #
edge $-1 $127 $127 $120 $128 1 #
point $-1 14.999976988434184 62.225301284162015 -25.77472829713534 #
face $-1 $-1 $129 $3 $-1 $130 forward single #
loop $-1 $131 $132 $117 #
cone-surface $-1 0 0 0 0 0 1 15.000000000000002 0 0 1 I I 0 1 0 I I I I #
loop $-1 $-1 $133 $108 #
vertex $-1 $121 $134 #
ellipse-curve $-1 0 0 -28.000000000000014 0 0 -1 10 0 0 1 I I #
loop $-1 $-1 $135 $123 #
plane-surface $-1 0 0 20 0 0 1 1 0 0 0 I I I I #
loop $-1 $-1 $136 $117 #
coedge $-1 $132 $132 $133 $137 1 $124 $-1 #
coedge $-1 $133 $133 $132 $137 0 $126 $-1 #
point $-1 10 0 -28.000000000000014 #
coedge $-1 $135 $135 $136 $138 0 $129 $-1 #
coedge $-1 $136 $136 $135 $138 1 $131 $-1 #
edge $-1 $139 $139 $132 $140 0 #
edge $-1 $141 $141 $135 $142 0 #
vertex $-1 $137 $143 #
ellipse-curve $-1 0 0 -20 0 0 -1 15.000000000000002 0 0 1 I I #
vertex $-1 $138 $144 #
ellipse-curve $-1 0 0 20 0 0 1 15.000000000000002 0 0 1 I I #
point $-1 15.000000000000002 0 -20 #
point $-1 15.000000000000002 0 20 #
End-of-ACIS-data 