600 0 1 0           
82 GICL ACIS Healer - Source: /gicl/data5/repository/CMU/Tools/brazing_tool.sat - 6 0 18 ACIS 6.0.3 Solaris 24 Sat Apr 13 00:32:17 2002 
1 9.999999999999999547e-07 1.000000000000000036e-10 
body $-1 $1 $-1 $-1 #
lump $-1 $-1 $2 $0 #
shell $-1 $-1 $-1 $3 $-1 $1 #
face $-1 $4 $5 $2 $-1 $6 forward single #
face $-1 $7 $8 $2 $-1 $9 forward single #
loop $-1 $10 $11 $3 #
cone-surface $-1 -2.131628207280300558e-14 4 0 0 1.000000000000000222 0 0 0 1.999999999999999778 1 I I 0 1 1.999999999999999778 forward I I I I #
face $-1 $12 $13 $2 $-1 $14 forward single #
loop $-1 $-1 $15 $4 #
plane-surface $-1 -7.105427357601001859e-15 -1.421085471520200372e-14 0 0 -1.000000000000000222 0 0 0 -0.999999999999999889 forward_v I I I I #
loop $-1 $-1 $16 $3 #
coedge $-1 $11 $11 $15 $17 reversed $5 $-1 #
face $-1 $18 $19 $2 $-1 $20 forward single #
loop $-1 $21 $22 $7 #
cone-surface $-1 -7.105427357601001859e-15 15.50000000000001421 3.944304526105059903e-31 0 1.000000000000000222 0 0 0 4.749999999999999112 1 I I 0.3442546491584231871 0.9388763158866086922 4.749999999999999112 forward I I I I #
coedge $-1 $15 $15 $11 $17 forward $8 $-1 #
coedge $-1 $16 $16 $22 $23 reversed $10 $-1 #
edge $-1 $24 -7.105427357601003436e-15 $24 6.283185307179579127 $15 $25 forward 7 unknown #
face $-1 $26 $27 $2 $-1 $28 forward single #
loop $-1 $29 $30 $12 #
cone-surface $-1 -7.105427357601001859e-15 53.00000000000003553 0 0 1.000000000000000222 0 0 0 9.999999999999998224 1 I I 0 1 9.999999999999998224 forward I I I I #
loop $-1 $-1 $31 $7 #
coedge $-1 $22 $22 $16 $23 forward $13 $-1 #
edge $-1 $32 -6.283185307179579127 $32 7.105427357601003436e-15 $22 $33 reversed 7 unknown #
vertex $-1 $17 $34 #
ellipse-curve $-1 -2.131628207280300558e-14 -1.598721155460225418e-14 0 0 -1.000000000000000222 0 0 0 1.999999999999999778 1 I I #
face $-1 $35 $36 $2 $-1 $37 forward single #
loop $-1 $38 $39 $18 #
plane-surface $-1 -2.131628207280300558e-14 23.00000000000004263 0 0 -1.000000000000000222 0 0 0 -0.999999999999999889 forward_v I I I I #
loop $-1 $40 $41 $12 #
coedge $-1 $30 $30 $42 $43 reversed $19 $-1 #
coedge $-1 $31 $31 $39 $44 reversed $21 $-1 #
vertex $-1 $23 $45 #
ellipse-curve $-1 -2.131628207280300558e-14 8.000000000000021316 0 -0 -1.000000000000000222 -0 0 0 1.999999999999999778 1 I I #
point $-1 -7.105427357601001859e-15 -1.421085471520200372e-14 1.999999999999999778 #
face $-1 $46 $47 $2 $-1 $48 forward single #
loop $-1 $49 $42 $26 #
cone-surface $-1 -2.131628207280300558e-14 87.00000000000004263 0 0 1.000000000000000222 0 0 0 12.49999999999999822 1 I I 0.5299989400031801523 0.8479983040050879106 12.49999999999999822 forward I I I I #
loop $-1 $-1 $50 $18 #
coedge $-1 $39 $39 $31 $44 forward $27 $-1 #
loop $-1 $-1 $51 $12 #
coedge $-1 $41 $41 $50 $52 reversed $29 $-1 #
coedge $-1 $42 $42 $30 $43 forward $36 $-1 #
edge $-1 $53 -6.283185307179588008 $53 -1.421085471520200845e-15 $42 $54 reversed 7 unknown #
edge $-1 $55 -6.283185307179588008 $55 -1.894780628693600864e-15 $39 $56 reversed 7 unknown #
point $-1 -7.105427357601001859e-15 8 1.999999999999999778 #
face $-1 $57 $58 $2 $-1 $59 forward single #
loop $-1 $60 $61 $35 #
cone-surface $-1 -2.131628207280300558e-14 111.0000000000000568 0 0 1.000000000000000222 0 0 0 15 1 I I 0 1 15 forward I I I I #
loop $-1 $-1 $62 $26 #
coedge $-1 $50 $50 $41 $52 forward $38 $-1 #
coedge $-1 $63 $64 $65 $66 reversed $40 $-1 #
edge $-1 $67 1.421085471520200845e-15 $67 6.283185307179588008 $50 $68 forward 7 unknown #
vertex $-1 $43 $69 #
ellipse-curve $-1 -7.105427357601001859e-15 83.00000000000005684 0 -0 -1.000000000000000222 -0 0 0 9.999999999999998224 1 I I #
vertex $-1 $44 $70 #
ellipse-curve $-1 -7.105427357601001859e-15 23.00000000000004619 3.944304526105059903e-31 0 -1.000000000000000222 0 0 0 7.500000000000010658 1 I I #
face $-1 $71 $72 $2 $-1 $73 forward single #
loop $-1 $-1 $74 $46 #
plane-surface $-1 -2.131628207280300558e-14 131.0000000000000568 0 0 1.000000000000000222 0 0 0 0.999999999999999889 forward_v I I I I #
loop $-1 $-1 $75 $35 #
coedge $-1 $61 $61 $62 $76 reversed $47 $-1 #
coedge $-1 $62 $62 $61 $76 forward $49 $-1 #
coedge $-1 $64 $51 $77 $78 forward $40 $-1 #
coedge $-1 $51 $63 $79 $80 reversed $40 $-1 #
coedge $-1 $79 $77 $51 $66 forward $81 $-1 #
edge $-1 $82 1.57291430817875777 $83 4.71027099900082824 $65 $84 forward 7 unknown #
vertex $-1 $52 $85 #
ellipse-curve $-1 -7.105427357601001859e-15 23.00000000000002842 0 0 -1.000000000000000222 0 0 0 9.999999999999998224 1 I I #
point $-1 -2.131628207280300558e-14 83.00000000000005684 9.999999999999998224 #
point $-1 -2.131628207280300558e-14 23.00000000000001421 7.5 #
face $-1 $86 $87 $2 $-1 $88 forward single #
loop $-1 $81 $89 $57 #
cone-surface $-1 -21.2132568960828749 64.21325689608289622 0 -0.7071067811865474617 0.7071067811865475727 0 0 0 9.999999999999998224 1 I I 0 1 10.00001534106741197 forward I I I I #
coedge $-1 $74 $74 $75 $90 forward $58 $-1 #
coedge $-1 $75 $75 $74 $90 reversed $60 $-1 #
edge $-1 $91 -6.283185307179586232 $91 -0 $61 $92 reversed 7 unknown #
coedge $-1 $65 $79 $63 $78 reversed $81 $-1 #
edge $-1 $82 -1.57291430817875777 $93 -1.568685486989806366 $77 $94 reversed 7 unknown #
coedge $-1 $77 $65 $64 $80 forward $81 $-1 #
edge $-1 $83 -56.23551450258542417 $93 0.01862802596938750721 $79 $95 forward 7 unknown #
loop $-1 $-1 $79 $57 #
vertex $-1 $78 $96 #
vertex $-1 $80 $97 #
ellipse-curve $-1 -7.105427357601001859e-15 43.00000000000002842 0 -0.3826834323650892822 0.9238795325112869605 0 10.00000000000000355 4.142135623730945682 -0 0.9238795325112864054 I I #
point $-1 -2.131628207280300558e-14 23.00000000000004263 9.999999999999998224 #
face $-1 $98 $99 $2 $-1 $100 forward single #
loop $-1 $101 $102 $71 #
cone-surface $-1 -45.25492433885300159 88.2549243388530158 0 -0.7071067811865474617 0.7071067811865475727 0 0 0 12.49999999999999822 1 I I 0.5299989400031801523 0.8479983040050877996 12.50001917633426451 forward I I I I #
coedge $-1 $89 $89 $102 $103 reversed $72 $-1 #
edge $-1 $104 0 $104 6.283185307179586232 $74 $105 forward 7 unknown #
vertex $-1 $76 $106 #
ellipse-curve $-1 -2.131628207280300558e-14 91.00000000000002842 0 0 1.000000000000000222 0 0 0 15 1 I I #
vertex $-1 $78 $107 #
ellipse-curve $-1 -7.105427357601001859e-15 43.00000000000002842 0 -0.3826834323650892822 0.9238795325112869605 0 10.00000000000000355 4.142135623730945682 -0 0.9238795325112864054 I I #
intcurve-curve $-1 forward { exactcur full nubs 3 open 39 
	-56.23551450258542417 3 -56.22779062485769686 2 -56.21688647661605387 2 -56.19486990176844188 2 -56.17285332692082989 2 
	-56.08530395897035703 2 -55.74136144497322221 2 -54.38628476619638974 2 -52.04974381391529903 2 -49.71320286163420121 2 
	-46.92876185594578686 2 -44.14432085025737251 2 -41.35987984456895106 2 -38.57543883888053671 2 -35.06108927191205282 2 
	-31.54673970494356894 2 -30.68716558828469942 2 -29.82759147162582991 2 -28.9680173549669604 2 -28.10844323830809088 2 
	-27.2488691216491361 2 -26.38929500499018843 2 -25.52972088833124076 2 -24.67014677167229308 2 -21.15579720470404368 2 
	-17.64144763773578006 2 -14.85700663204738703 2 -12.07256562635900821 2 -9.288124620670629383 2 -6.50368361498223635 2 
	-4.167142662701138534 2 -1.830601710420054928 2 -0.4755250316432011459 2 -0.1315825176457678936 2 -0.04403314969543714597 2 
	-0.02201657484772567841 2 0 3 0.01090414824167296355 2 0.01862802596938750721 3 
	-0.02117979800372493324 42.9912270404185719 9.999977570782672132 
	-0.02386141337197811296 42.99123024650128144 9.999982256782352863 
	-0.02662680326899247163 42.99156082984062266 9.999985937432150251 
	-0.03182457684930306563 42.9942944095955113 9.999992000073282483 
	-0.03404973818889533987 42.99729602558729624 9.999993215635429422 
	-0.04079202020210614954 43.00574735022947692 9.999993404090000482 
	-0.04375090237724643671 43.01326532814923098 9.9999901156180524 
	-0.05034120997183610946 43.02796652621142215 9.999980437829817603 
	-0.05281649928675591354 43.0359165617435977 9.999973920587500231 
	-0.06730935089585865505 43.06967340622338725 9.999937843065250576 
	-0.07991332278766227759 43.10262737692120538 9.999878830741661062 
	-0.1350332101481923619 43.23574209043925975 9.99953777262430954 
	-0.1865646681385468852 43.36357809416602294 9.998841791952491675 
	-0.4026757772120743706 43.88731648609182656 9.994454286685693134 
	-0.608980763162950911 44.38872470794782998 9.984517546766889851 
	-1.078736715328824092 45.52578455918736466 9.948856521401847175 
	-1.405209593821650671 46.3170848431453237 9.909766892121448123 
	-2.058271169618502761 47.89681391649315856 9.79639557630582658 
	-2.383835675387863784 48.68593179022745687 9.722035707050839193 
	-3.032458983129526775 50.25497463287216959 9.5429278923471621 
	-3.40121039788896784 51.14835965459532474 9.419912852963413741 
	-4.153260388925394508 52.96710497732053824 9.114582545986358753 
	-4.535540247212091813 53.8931535869548668 8.932242838406077468 
	-5.295373258994536592 55.73069347499074411 8.504834190636270108 
	-5.671942403382342235 56.64295678008915758 8.259705409343551352 
	-6.401559968447693372 58.40755263564098243 7.708726131525201808 
	-6.753581923166683154 59.26055469474043491 7.402792124513601024 
	-7.502976937069286478 61.07289865193302347 6.652380080328934575 
	-7.951683278279900513 62.15931758549400143 6.127714272524423578 
	-8.789718374226108466 64.18565828178329014 4.849908096338386265 
	-9.178421374691112078 65.12721693265996237 4.098523941484455868 
	-9.548293807021982715 66.02331468434019257 3.009310911867699723 
	-9.618943067100660826 66.19702452407638305 2.774809174951181845 
	-9.748742574830925989 66.51353556006507972 2.273311931118901619 
	-9.806836024460185541 66.65693302736191583 2.006246121486652711 
	-9.903237413903084985 66.89281395848337297 1.45120287293153627 
	-9.940545437356160363 66.98603101770348189 1.162693741092058364 
	-9.990473657352270109 67.10971589935077475 0.5803671960153453657 
	-10.00203443747333232 67.14077367149198494 0.2865247682033652543 
	-10.00101721873668126 67.14146549538428133 -0.286525333566969409 
	-9.987422001142284955 67.11179137102769232 -0.5803677613789783862 
	-9.936476562409509938 66.98879831327266743 -1.162694494910318399 
	-9.898151320219753302 66.89627307794484068 -1.451203815204396674 
	-9.800732712040172601 66.6610839707156515 -2.006247252214132359 
	-9.741622043674247777 66.51837832731109756 -2.273313250300978972 
	-9.610805317207301357 66.20255911521465464 -2.774810682587851129 
	-9.539138838391949093 66.02954109937076055 -3.009312607958963603 
	-9.168249187324413185 65.13413517158281252 -4.098525826030229524 
	-8.778528968122778053 64.19326834459849351 -4.849910169338680355 
	-7.939476653439946574 62.16761947220162199 -6.127716533979231883 
	-7.489753093492680591 61.08189236253301857 -6.652382530238273972 
	-6.739340860853459958 59.27024022923281166 -7.402794762877501711 
	-6.386301687397811122 58.41792999402566267 -7.708728958343681548 
	-5.655666903595815143 56.65402596236616972 -8.259708424616611921 
	-5.27808054047134334 55.74245448116005974 -8.504837394363903513 
	-4.517230309952218192 53.90560641701647882 -8.932246230588289038 
	-4.133933232928868051 52.98024963127446085 -9.114586126623150264 
	-3.380866023155782329 51.16219613244156506 -9.41991662205478697 
	-3.011097389659688872 50.26950293461070629 -9.542931849893109941 
	-2.361456863181366828 48.70115191585831838 -9.722039853051370528 
	-2.03487513867532499 47.91272586601627381 -9.796399910760937857 
	-1.380796344141806742 46.33368861656073534 -9.909771415031139341 
	-1.053306246912327993 45.54308015649511532 -9.948861232766113005 
	-0.5825330760097813254 44.40671212914786281 -9.984522446585735622 
	-0.3752108713222312986 43.90599573118414156 -9.994459374959111742 
	-0.1580825435119805888 43.38294916315054905 -9.998847068680486672 
	-0.1055338667849383683 43.25580498331594015 -9.999543237806879148 
	-0.04939676068775611384 43.12338209369013242 -9.99988448437880173 
	-0.03577557005931453205 43.0911199468846533 -9.999943685156962303 
	-0.02026549971358804214 43.05805492629713882 -9.999979951133783018 
	-0.01677299166191659197 43.05079671465722413 -9.99998665683067145 
	-0.009165465330660538257 43.03678734048725829 -9.999996523073477306 
	-0.005189364418804132129 43.02996118645979351 -9.999999999999998224 
	-7.105427357601001859e-15 43.02477182204099648 -9.999999999999998224 
	0.002570136331094374782 43.0222016857098879 -9.999999999999998224 
	0.00581251640735302999 43.0198918936103496 -9.999998972892422344 
	0.01202750872435842666 43.01785013774776445 -9.999993098705861172 
	0.01479289862134436362 43.01751955440845876 -9.999989418056063784 
	0.01747451398959753988 43.01751634832574922 -9.999984732056383052 
	0 
	null_surface 
	null_surface 
	nullbs 
	nullbs 
	I I 
	0 
	37 -56.22779062485769686 -56.21688647661605387 -56.19486990176844188 -56.17285332692082989 -56.08530395897035703 -55.74136144497322221 -54.38628476619638974 -52.04974381391529903 -49.71320286163420121 -46.92876185594578686 -44.14432085025737251 -41.35987984456895106 -38.57543883888053671 -35.06108927191205282 -31.54673970494356894 -30.68716558828469942 -29.82759147162582991 -28.9680173549669604 -28.10844323830809088 -27.2488691216491361 -26.38929500499018843 -25.52972088833124076 -24.67014677167229308 -21.15579720470404368 -17.64144763773578006 -14.85700663204738703 -12.07256562635900821 -9.288124620670629383 -6.50368361498223635 -4.167142662701138534 -1.830601710420054928 -0.4755250316432011459 -0.1315825176457678936 -0.04403314969543714597 -0.02201657484772567841 0 0.01090414824167296355 
	0 
	F 1 F 0 } I I #
point $-1 -0.02117979800372799676 42.9912270404185648 -9.999977570782670355 #
point $-1 -0.02117979800372799676 42.9912270404185648 9.999977570782670355 #
face $-1 $-1 $108 $2 $-1 $109 forward single #
loop $-1 $110 $111 $86 #
cone-surface $-1 -62.22551312198486073 105.2255131219848892 0 -0.7071067811865474617 0.7071067811865475727 0 0 0 15 1 I I 0 1 15.00002301160112061 forward I I I I #
loop $-1 $-1 $112 $71 #
coedge $-1 $102 $102 $89 $103 forward $87 $-1 #
edge $-1 $113 -6.28318530717958712 $113 -5.024295867788082111e-16 $102 $114 reversed 7 unknown #
vertex $-1 $90 $115 #
ellipse-curve $-1 -2.131628207280300558e-14 131.0000000000000568 0 0 1.000000000000000222 0 0 0 15 1 I I #
point $-1 -2.131628207280300558e-14 91.00000000000005684 15 #
point $-1 0.02110838237564533967 43.00874337825977989 -9.99997772178485711 #
loop $-1 $-1 $116 $98 #
plane-surface $-1 -76.36767044126141002 119.3676704412614384 0 -0.7071067811865474617 0.7071067811865475727 0 0 0 1.000001534106741197 forward_v I I I I #
loop $-1 $-1 $117 $86 #
coedge $-1 $111 $111 $112 $118 reversed $99 $-1 #
coedge $-1 $112 $112 $111 $118 forward $101 $-1 #
vertex $-1 $103 $119 #
ellipse-curve $-1 -42.42649721410680286 85.42649721410683128 0 0.7071067811865474617 -0.7071067811865475727 -0 0 0 9.999999999999998224 1 I I #
point $-1 -2.131628207280300558e-14 131.0000000000000568 15 #
coedge $-1 $116 $116 $117 $120 forward $108 $-1 #
coedge $-1 $117 $117 $116 $120 reversed $110 $-1 #
edge $-1 $121 -6.283185307179586232 $121 -0 $111 $122 reversed 7 unknown #
point $-1 -42.42649721410680996 85.42649721410683128 9.999999999999998224 #
edge $-1 $123 0 $123 6.283185307179586232 $116 $124 forward 7 unknown #
vertex $-1 $118 $125 #
ellipse-curve $-1 -48.0833514635991861 91.08335146359921453 0 -0.7071067811865474617 0.7071067811865475727 0 0 0 15 1 I I #
vertex $-1 $120 $126 #
ellipse-curve $-1 -76.36767044126141002 119.3676704412614384 0 -0.7071067811865474617 0.7071067811865475727 0 0 0 15 1 I I #
point $-1 -48.0833514635991861 91.08335146359921453 14.99999999999999822 #
point $-1 -76.36767044126141002 119.3676704412614384 14.99999999999999822 #
End-of-ACIS-data 