600 0 1 0           
81 GICL ACIS Healer - Source: /gicl/data5/repository/CMU/Tools/hex_wrench1.sat - 6 0 18 ACIS 6.0.3 Solaris 24 Sat Apr 13 00:32:22 2002 
1 9.999999999999999547e-07 1.000000000000000036e-10 
body $-1 $1 $-1 $-1 #
lump $-1 $-1 $2 $0 #
shell $-1 $-1 $-1 $3 $-1 $1 #
face $4 $5 $6 $2 $-1 $7 forward single #
pid_name-sg-attrib $-1 $-1 $-1 $3 7 rwilson 843156660 103 1 #
face $8 $9 $10 $2 $-1 $11 forward single #
loop $-1 $-1 $12 $3 #
plane-surface $-1 20.5 -2.202682480856310576e-13 62 1 0 0 0 1 3.552713678800500929e-15 forward_v I I I I #
pid_name-sg-attrib $-1 $-1 $-1 $5 7 rwilson 843156660 104 1 #
face $13 $14 $15 $2 $-1 $16 forward single #
loop $-1 $-1 $17 $5 #
plane-surface $-1 4 -1.732050807569097461 61.99999999999999289 0 -0.8660254037844369313 -0.5000000000000029976 1 0 0 forward_v I I I I #
coedge $-1 $18 $19 $20 $21 reversed $6 $-1 #
pid_name-sg-attrib $-1 $-1 $-1 $9 7 rwilson 843156660 105 1 #
face $22 $23 $24 $2 $-1 $25 forward single #
loop $-1 $-1 $26 $9 #
plane-surface $-1 4 -0.866025403784664416 63.5 0 -0.866025403784440484 0.4999999999999968359 1 0 0 forward_v I I I I #
coedge $-1 $27 $28 $29 $30 reversed $10 $-1 #
coedge $-1 $31 $12 $27 $32 reversed $6 $-1 #
coedge $-1 $12 $33 $34 $35 reversed $6 $-1 #
coedge $-1 $36 $26 $12 $21 forward $15 $-1 #
edge $-1 $37 -1.732050807568880746 $38 -0 $12 $39 reversed 7 unknown #
pid_name-sg-attrib $-1 $-1 $-1 $14 7 rwilson 843156660 106 1 #
face $40 $41 $42 $2 $-1 $43 forward single #
loop $-1 $-1 $44 $14 #
plane-surface $-1 4 0.8660254037842132213 63.5 0 -3.552713678800500929e-15 1 0 -1 -3.552713678800500929e-15 forward_v I I I I #
coedge $-1 $20 $45 $46 $47 reversed $15 $-1 #
coedge $-1 $46 $17 $18 $32 forward $10 $-1 #
coedge $-1 $17 $46 $48 $49 forward $10 $50 #
coedge $-1 $51 $52 $17 $30 forward $53 $-1 #
edge $-1 $54 -16.5 $55 -0 $17 $56 reversed 7 unknown #
coedge $-1 $57 $18 $52 $58 reversed $6 $-1 #
edge $-1 $54 -1.732050807568873863 $37 -0 $18 $59 reversed 7 unknown #
coedge $-1 $19 $57 $60 $61 reversed $6 $-1 #
coedge $-1 $62 $44 $19 $35 forward $24 $-1 #
edge $-1 $38 -1.732050807568877637 $63 -0 $19 $64 reversed 7 unknown #
coedge $-1 $45 $20 $44 $65 forward $15 $-1 #
vertex $-1 $47 $66 #
vertex $-1 $65 $67 #
straight-curve $-1 20.5 -0.866025403784664416 63.5 0 -0.4999999999999968359 -0.866025403784440484 I I #
pid_name-sg-attrib $-1 $-1 $-1 $23 7 rwilson 843156660 107 1 #
face $68 $69 $70 $2 $-1 $71 forward single #
loop $-1 $-1 $72 $23 #
plane-surface $-1 4 1.732050807568656925 62.00000000000000711 0 0.8660254037844369313 0.5000000000000029976 -1 0 0 forward_v I I I I #
coedge $-1 $34 $73 $36 $65 reversed $24 $-1 #
coedge $-1 $26 $36 $74 $75 forward $15 $76 #
coedge $-1 $28 $27 $26 $47 forward $10 $-1 #
edge $-1 $37 -16.5 $77 -0 $26 $78 reversed 7 unknown #
coedge $-1 $79 $80 $28 $49 reversed $81 $82 #
edge $-1 $77 0 $55 1.732050807568873863 $48 $83 forward 7 unknown #
pcurve $-1 0 forward { exppc nubs 1 open 2 
	0 1 1.732050807568873863 1 
	0 0 
	0 -1.732050807568877193 
	0.001000000000000000021 
	plane 4 -1.732050807569097461 61.99999999999999289 0 -0.8660254037844369313 -0.5000000000000029976 1 0 0 forward_v I I I I 
	} 0 0 #
coedge $-1 $84 $29 $85 $86 forward $53 $87 #
coedge $-1 $29 $84 $31 $58 forward $53 $-1 #
loop $-1 $-1 $84 $69 #
vertex $-1 $30 $88 #
vertex $-1 $30 $89 #
straight-curve $-1 4 -0.8660254037846537578 60.5 1 0 0 I I #
coedge $-1 $33 $31 $90 $91 reversed $6 $-1 #
edge $-1 $92 -1.732050807568877637 $54 -0 $31 $93 reversed 7 unknown #
straight-curve $-1 20.5 -1.732050807569097461 61.99999999999999289 0 0.5000000000000029976 -0.8660254037844369313 I I #
coedge $-1 $94 $72 $33 $61 forward $42 $-1 #
edge $-1 $63 -1.732050807568873863 $95 -0 $33 $96 reversed 7 unknown #
coedge $-1 $73 $34 $72 $97 reversed $24 $98 #
vertex $-1 $97 $99 #
straight-curve $-1 20.5 0.8660254037842132213 63.5 0 -1 -3.552713678800500929e-15 I I #
edge $-1 $38 -16.5 $100 -0 $44 $101 reversed 7 unknown #
point $-1 20.5 -1.732050807569097461 61.99999999999999289 #
point $-1 20.5 -0.866025403784664416 63.5 #
pid_name-sg-attrib $-1 $-1 $-1 $41 7 rwilson 843156660 108 1 #
face $102 $103 $53 $2 $-1 $104 forward single #
loop $-1 $-1 $105 $41 #
plane-surface $-1 4 0.8660254037842238795 60.5 0 0.866025403784440484 -0.4999999999999968359 -1 0 0 forward_v I I I I #
coedge $-1 $60 $106 $62 $97 forward $42 $107 #
coedge $-1 $44 $62 $108 $109 forward $24 $110 #
coedge $-1 $111 $112 $45 $75 reversed $113 $114 #
edge $-1 $100 0 $77 1.732050807568880746 $74 $115 forward 7 unknown #
pcurve $-1 0 forward { exppc nubs 1 open 2 
	0 1 1.732050807568880746 1 
	0 0 
	0 -1.732050807568877193 
	0.001000000000000000021 
	plane 4 -0.866025403784664416 63.5 0 -0.866025403784440484 0.4999999999999968359 1 0 0 forward_v I I I I 
	} 0 0 #
vertex $-1 $47 $116 #
straight-curve $-1 4 -1.732050807569097461 61.99999999999999289 1 0 0 I I #
coedge $-1 $117 $48 $112 $118 forward $81 $-1 #
coedge $-1 $48 $117 $119 $120 reversed $81 $-1 #
loop $-1 $-1 $80 $121 #
pcurve $-1 0 forward { exppc nubs 1 open 2 
	-1.732050807568873863 1 0 1 
	0.5119661282874145014 1.570796326794896558 
	1.511966128287414168 1.570796326794896558 
	0.001000000000001332288 
	cone 4 -0.4226497308105807704 58 0 -1 -3.552713678800500929e-15 1.732050807568877859 0 0 1 I I -0.8660254037844387076 -0.499999999999999889 1.732050807568877859 forward I I I I 
	} 0 0 #
straight-curve $-1 4 -1.732050807569097461 61.99999999999999289 0 0.5000000000000031086 -0.8660254037844369313 I I #
coedge $-1 $52 $51 $122 $123 reversed $53 $-1 #
coedge $-1 $119 $124 $51 $86 reversed $125 $126 #
edge $-1 $55 0 $127 1.732050807568877637 $85 $128 forward 7 unknown #
pcurve $-1 0 forward { exppc nubs 1 open 2 
	0 1 1.732050807568877637 1 
	0 0 
	1.732050807568877637 0 
	0.001000000000000000021 
	plane 4 -0.8660254037846537578 60.5 0 3.552713678800500929e-15 -1 0 1 3.552713678800500929e-15 forward_v I I I I 
	} 0 0 #
point $-1 20.5 -0.8660254037846537578 60.5 #
point $-1 4 -0.8660254037846537578 60.5 #
coedge $-1 $122 $105 $57 $91 forward $70 $-1 #
edge $-1 $95 -1.732050807568880746 $92 -0 $57 $129 reversed 7 unknown #
vertex $-1 $123 $130 #
straight-curve $-1 20.5 -0.8660254037846537578 60.5 0 1 3.552713678800500929e-15 I I #
coedge $-1 $106 $60 $105 $131 forward $42 $-1 #
vertex $-1 $131 $132 #
straight-curve $-1 20.5 1.732050807568656925 62.00000000000000711 0 -0.5000000000000029976 0.8660254037844369313 I I #
edge $-1 $133 0 $63 16.5 $62 $134 forward 7 unknown #
pcurve $-1 0 forward { exppc nubs 1 open 2 
	-16.5 1 0 1 
	0 16.5 
	0 0 
	0.001000000000000888199 
	plane 4 0.8660254037842132213 63.5 0 -3.552713678800500929e-15 1 0 -1 -3.552713678800500929e-15 forward_v I I I I 
	} 0 0 #
point $-1 20.5 0.8660254037842132213 63.5 #
vertex $-1 $65 $135 #
straight-curve $-1 4 -0.866025403784664416 63.5 1 0 0 I I #
pid_name-sg-attrib $-1 $-1 $-1 $69 7 rwilson 843156660 109 1 #
face $136 $121 $125 $2 $-1 $137 reversed single #
plane-surface $-1 4 -0.8660254037846537578 60.5 0 3.552713678800500929e-15 -1 0 1 3.552713678800500929e-15 forward_v I I I I #
coedge $-1 $90 $138 $94 $131 reversed $70 $-1 #
coedge $-1 $72 $94 $139 $140 forward $42 $141 #
pcurve $-1 0 forward { exppc nubs 1 open 2 
	0 1 16.5 1 
	0 1.732050807568877193 
	-16.5 1.732050807568877193 
	0.001000000000000111043 
	plane 4 1.732050807568656925 62.00000000000000711 0 0.8660254037844369313 0.5000000000000029976 -1 0 0 forward_v I I I I 
	} 0 0 #
coedge $-1 $142 $143 $73 $109 reversed $144 $145 #
edge $-1 $133 0 $100 1.732050807568877637 $108 $146 forward 7 unknown #
pcurve $-1 0 forward { exppc nubs 1 open 2 
	0 1 1.732050807568877637 1 
	0 0 
	1.732050807568877637 0 
	0.001000000000000000021 
	plane 4 0.8660254037842132213 63.5 0 -3.552713678800500929e-15 1 0 -1 -3.552713678800500929e-15 forward_v I I I I 
	} 0 0 #
coedge $-1 $147 $74 $143 $148 forward $113 $-1 #
coedge $-1 $74 $147 $79 $118 reversed $113 $-1 #
loop $-1 $-1 $112 $149 #
pcurve $-1 0 forward { exppc nubs 1 open 2 
	-1.732050807568880746 1 0 1 
	1.511966128287414168 -1.570796326794896558 
	2.511966128287413724 -1.570796326794896558 
	0.001000000000000000021 
	cone 4 -3.041451884327585731 57.99999999999998579 0 1 3.552713678800500929e-15 1.732050807568877859 0 0 1 I I 0.8660254037844387076 0.499999999999999889 1.732050807568877859 forward I I I I 
	} 0 0 #
straight-curve $-1 4 -0.866025403784664416 63.5 0 -0.4999999999999968359 -0.866025403784440484 I I #
point $-1 4 -1.732050807569097461 61.99999999999999289 #
coedge $-1 $80 $79 $150 $151 forward $81 $152 #
edge $-1 $77 -1.570796326794896558 $153 -0 $112 $154 reversed 7 unknown #
coedge $-1 $155 $85 $80 $120 forward $125 $-1 #
edge $-1 $55 -1.570796326794896558 $156 -0 $80 $157 reversed 7 unknown #
face $158 $149 $81 $2 $-1 $159 reversed single #
coedge $-1 $138 $90 $84 $123 forward $70 $-1 #
edge $-1 $92 -16.5 $127 -0 $84 $160 reversed 7 unknown #
coedge $-1 $85 $155 $161 $162 reversed $125 $-1 #
loop $-1 $-1 $124 $103 #
pcurve $-1 0 forward { exppc nubs 1 open 2 
	-1.732050807568877637 1 0 1 
	0.746410161513775483 -1.570796326794896558 
	0.05358983848622447116 -1.570796326794896558 
	0.001000000000000111043 
	cone 4 -1.000000000000206057 58 0 1 3.552713678800500929e-15 2.5 0 0 1 I I 0 -1 2.5 forward I I I I 
	} 0 0 #
vertex $-1 $123 $163 #
straight-curve $-1 4 -0.8660254037846537578 60.5 0 1 3.552713678800500929e-15 I I #
straight-curve $-1 20.5 0.8660254037842238795 60.5 0 0.4999999999999968359 0.866025403784440484 I I #
point $-1 20.5 0.8660254037842238795 60.5 #
edge $-1 $95 -16.5 $164 -0 $105 $165 reversed 7 unknown #
point $-1 20.5 1.732050807568656925 62.00000000000000711 #
vertex $-1 $97 $166 #
straight-curve $-1 4 0.8660254037842132213 63.5 1 0 0 I I #
point $-1 4 -0.866025403784664416 63.5 #
pid_name-sg-attrib $-1 $-1 $-1 $103 7 rwilson 843156660 110 1 #
cone-surface $-1 4 -1.000000000000206057 58 0 1 3.552713678800500929e-15 2.5 0 0 1 I I 0 1 2.5 forward I I I I #
coedge $-1 $105 $122 $167 $168 forward $70 $169 #
coedge $-1 $170 $171 $106 $140 reversed $172 $173 #
edge $-1 $164 0 $133 1.732050807568873863 $139 $174 forward 7 unknown #
pcurve $-1 0 forward { exppc nubs 1 open 2 
	0 1 1.732050807568873863 1 
	0 0 
	0 1.732050807568877193 
	0.001000000000000000021 
	plane 4 1.732050807568656925 62.00000000000000711 0 0.8660254037844369313 0.5000000000000029976 -1 0 0 forward_v I I I I 
	} 0 0 #
coedge $-1 $175 $108 $171 $176 reversed $144 $177 #
coedge $-1 $108 $175 $111 $148 reversed $144 $-1 #
loop $-1 $-1 $143 $178 #
pcurve $-1 0 forward { exppc nubs 1 open 2 
	-1.732050807568877637 1 0 1 
	0.02435901749373839756 -1.570796326794896558 
	0.3392773461426252246 -1.570796326794896558 
	0.001000000000000000021 
	cone 4 -1.000000000000206057 58 0 1 3.552713678800500929e-15 5.5 0 0 1 I I 0 1 5.5 forward I I I I 
	} 0 0 #
straight-curve $-1 4 0.8660254037842132213 63.5 0 -1 -3.552713678800500929e-15 I I #
coedge $-1 $112 $111 $179 $180 forward $113 $181 #
edge $-1 $100 -1.570796326794896558 $182 -0 $143 $183 reversed 7 unknown #
face $184 $178 $113 $2 $-1 $185 forward single #
coedge $-1 $186 $187 $117 $151 reversed $188 $189 #
edge $-1 $153 0 $156 1.732050807568877193 $150 $190 forward 7 unknown #
pcurve $-1 0 forward { exppc nubs 1 open 2 
	0 1 1.732050807568877193 1 
	1.511966128287414168 -3.141592653589793116 
	0.5119661282874145014 -3.141592653589793116 
	0.00100000000002842173 
	cone 4 -0.4226497308105807704 58 0 -1 -3.552713678800500929e-15 1.732050807568877859 0 0 1 I I -0.8660254037844387076 -0.499999999999999889 1.732050807568877859 forward I I I I 
	} 0 0 #
vertex $-1 $118 $191 #
ellipse-curve $-1 4 -1.732050807569083251 57.99999999999999289 0 1 3.552713678800500929e-15 -4 0 0 1 F 0 F 1.570796326794896558 #
coedge $-1 $124 $119 $192 $193 forward $125 $194 #
vertex $-1 $120 $195 #
ellipse-curve $-1 4 -0.866025403784644876 58 0 1 3.552713678800500929e-15 -2.5 0 0 1 F 0 F 1.570796326794896558 #
pid_name-sg-attrib $-1 $-1 $-1 $121 7 rwilson 843156660 111 1 #
cone-surface $-1 4 -0.4226497308105807704 58 0 -1 -3.552713678800500929e-15 1.732050807568877859 0 0 1 I I 0.8660254037844387076 0.499999999999999889 1.732050807568877859 forward I I I I #
straight-curve $-1 4 0.8660254037842238795 60.5 1 0 0 I I #
coedge $-1 $196 $167 $124 $162 forward $197 $-1 #
edge $-1 $127 -1.570796326794896558 $198 -0 $124 $199 reversed 7 unknown #
point $-1 4 0.8660254037842238795 60.5 #
vertex $-1 $131 $200 #
straight-curve $-1 4 1.732050807568656925 62.00000000000000711 1 0 0 I I #
point $-1 4 0.8660254037842132213 63.5 #
coedge $-1 $161 $201 $138 $168 reversed $197 $202 #
edge $-1 $127 0 $164 1.732050807568880746 $167 $203 forward 7 unknown #
pcurve $-1 0 forward { exppc nubs 1 open 2 
	0 1 1.732050807568880746 1 
	0 0 
	0 1.732050807568877193 
	0.001000000000000000021 
	plane 4 0.8660254037842238795 60.5 0 0.866025403784440484 -0.4999999999999968359 -1 0 0 forward_v I I I I 
	} 0 0 #
coedge $-1 $204 $139 $201 $205 forward $172 $-1 #
coedge $-1 $139 $204 $142 $176 forward $172 $206 #
loop $-1 $-1 $171 $207 #
pcurve $-1 0 forward { exppc nubs 1 open 2 
	-1.732050807568873863 1 0 1 
	2.511966128287413724 1.570796326794896558 
	1.511966128287414168 1.570796326794896558 
	0.001000000000001776378 
	cone 4 3.041451884327173616 58.00000000000001421 0 -1 -3.552713678800500929e-15 1.732050807568877859 0 0 1 I I 0.8660254037844387076 0.499999999999999889 1.732050807568877859 forward I I I I 
	} 0 0 #
straight-curve $-1 4 1.732050807568656925 62.00000000000000711 0 -0.5000000000000029976 0.8660254037844369313 I I #
coedge $-1 $143 $142 $208 $209 forward $144 $210 #
edge $-1 $211 0 $133 1.570796326794896558 $142 $212 forward 7 unknown #
pcurve $-1 0 forward { exppc nubs 1 open 2 
	-1.570796326794896558 1 4.440892098500626162e-16 1 
	0.3392773461426252801 -1.570796326794896558 
	0.3392773461426252801 -3.141592653589793116 
	0.001000000000000222065 
	cone 4 -1.000000000000206057 58 0 1 3.552713678800500929e-15 5.5 0 0 1 I I 0 1 5.5 forward I I I I 
	} 0 0 #
face $213 $207 $144 $2 $-1 $214 forward single #
coedge $-1 $215 $216 $147 $180 reversed $217 $218 #
edge $-1 $182 0 $153 1.732050807568877193 $179 $219 forward 7 unknown #
pcurve $-1 0 forward { exppc nubs 1 open 2 
	0 1 1.732050807568877193 1 
	2.511966128287413724 -3.141592653589793116 
	1.511966128287414168 -3.141592653589793116 
	0.001000000000042632585 
	cone 4 -3.041451884327585731 57.99999999999998579 0 1 3.552713678800500929e-15 1.732050807568877859 0 0 1 I I 0.8660254037844387076 0.499999999999999889 1.732050807568877859 forward I I I I 
	} 0 0 #
vertex $-1 $148 $220 #
ellipse-curve $-1 4 -0.866025403784644876 58 0 1 3.552713678800500929e-15 -5.5 0 0 1 F 0 F 1.570796326794896558 #
pid_name-sg-attrib $-1 $-1 $-1 $149 7 rwilson 843156660 112 1 #
cone-surface $-1 4 -3.041451884327585731 57.99999999999998579 0 1 3.552713678800500929e-15 1.732050807568877859 0 0 1 I I 0.8660254037844387076 0.499999999999999889 1.732050807568877859 forward I I I I #
coedge $-1 $221 $150 $216 $222 forward $188 $-1 #
coedge $-1 $150 $221 $223 $224 reversed $188 $-1 #
loop $-1 $-1 $187 $225 #
pcurve $-1 0 forward { exppc nubs 1 open 2 
	-1.732050807568877193 1 0 1 
	1.732050807568877193 58 
	0 58 
	0.001000000000000248303 
	plane 0 -1.732050807568877193 -6.153480596427404212e-15 0.499999999999999889 -0.8660254037844387076 -3.076740298213702501e-15 0.8660254037844387076 0.499999999999999889 1.77635683940025007e-15 forward_v I I I I 
	} 0 0 #
straight-curve $-1 0 -1.732050807569083251 57.99999999999999289 0.8660254037844387076 0.5 1.776356839400250465e-15 I I #
point $-1 0 -1.732050807569083251 57.99999999999999289 #
coedge $-1 $223 $226 $155 $193 reversed $227 $228 #
edge $-1 $156 0 $198 1.732050807568877637 $192 $229 forward 7 unknown #
pcurve $-1 0 forward { exppc nubs 1 open 2 
	0 1 1.732050807568877637 1 
	0.05358983848622447116 -3.141592653589793116 
	0.746410161513775483 -3.141592653589793116 
	0.001000000000021316303 
	cone 4 -1.000000000000206057 58 0 1 3.552713678800500929e-15 2.5 0 0 1 I I 0 -1 2.5 forward I I I I 
	} 0 0 #
point $-1 1.5 -0.866025403784644876 58 #
coedge $-1 $201 $161 $230 $231 forward $197 $232 #
loop $-1 $-1 $201 $233 #
vertex $-1 $162 $234 #
ellipse-curve $-1 4 0.8660254037842327612 58 0 1 3.552713678800500929e-15 -2.5 0 0 1 F 0 F 1.570796326794896558 #
point $-1 4 1.732050807568656925 62.00000000000000711 #
coedge $-1 $167 $196 $170 $205 reversed $197 $-1 #
pcurve $-1 0 forward { exppc nubs 1 open 2 
	-1.732050807568880746 1 0 1 
	1.511966128287414168 -1.570796326794896558 
	0.5119661282874145014 -1.570796326794896558 
	0.001000000000001332288 
	cone 4 0.4226497308101688777 58 0 1 3.552713678800500929e-15 1.732050807568877859 0 0 1 I I -0.8660254037844387076 -0.499999999999999889 1.732050807568877859 forward I I I I 
	} 0 0 #
straight-curve $-1 4 0.8660254037842238795 60.5 0 0.4999999999999967804 0.866025403784440595 I I #
coedge $-1 $171 $170 $235 $236 forward $172 $237 #
edge $-1 $164 -1.570796326794896558 $238 -0 $201 $239 reversed 7 unknown #
pcurve $-1 0 forward { exppc nubs 2 open 7 
	0 2 0.2617993877991493523 2 0.5235987755982987046 2 0.785398163397448168 2 1.047197551196597409 2 
	1.308996938995746984 2 1.570796326794896336 2 
	2.511966128287413724 3.141592653589800221 
	2.511966128287413724 3.018321529163245032 
	2.511966128287413724 2.895050404736689398 
	2.511966128287414612 2.762826155514719328 
	2.511966128287415057 2.630601906292749259 
	2.511966128287415501 2.493398198242546826 
	2.511966128287415501 2.356194490192344837 
	2.511966128287413724 2.218990782142142848 
	2.511966128287411948 2.081787074091940859 
	2.511966128287412836 1.94956282486997079 
	2.511966128287413724 1.817338575648000942 
	2.511966128287413724 1.694067451221448639 
	2.511966128287413724 1.570796326794896558 
	0.001000000000000000021 
	cone 4 3.041451884327173616 58.00000000000001421 0 -1 -3.552713678800500929e-15 1.732050807568877859 0 0 1 I I 0.8660254037844387076 0.499999999999999889 1.732050807568877859 forward I I I I 
	} 0 0 #
face $240 $233 $172 $2 $-1 $241 forward single #
coedge $-1 $242 $243 $175 $209 reversed $244 $245 #
edge $-1 $211 -2.220446049250313081e-16 $182 1.732050807568877637 $208 $246 forward 7 unknown #
pcurve $-1 0 forward { exppc nubs 1 open 2 
	-2.220446049250313081e-16 1 1.732050807568877415 1 
	0.3392773461426252801 -3.141592653589793116 
	0.02435901749373839756 -3.141592653589793116 
	0.001000000000042632585 
	cone 4 -1.000000000000206057 58 0 1 3.552713678800500929e-15 5.5 0 0 1 I I 0 1 5.5 forward I I I I 
	} 0 0 #
vertex $-1 $176 $247 #
ellipse-curve $-1 4 0.8660254037842329833 58 0 1 3.552713678800500929e-15 -5.5 0 0 1 F 0 F 1.570796326794896558 #
pid_name-sg-attrib $-1 $-1 $-1 $178 7 rwilson 843156660 113 1 #
cone-surface $-1 4 -1.000000000000206057 58 0 1 3.552713678800500929e-15 5.5 0 0 1 I I 0 1 5.5 forward I I I I #
coedge $-1 $248 $179 $243 $249 forward $217 $-1 #
coedge $-1 $179 $248 $186 $222 reversed $217 $-1 #
loop $-1 $-1 $216 $250 #
pcurve $-1 0 forward { exppc nubs 1 open 2 
	-1.732050807568877193 1 0 1 
	1.732050807568877193 58 
	0 58 
	0.001000000000000222065 
	plane -1.5 -0.8660254037844388186 -3.076740298213702895e-15 -0.499999999999999889 -0.8660254037844387076 -3.076740298213702501e-15 0.8660254037844387076 -0.499999999999999889 -1.77635683940025007e-15 forward_v I I I I 
	} 0 0 #
straight-curve $-1 -1.5 -0.866025403784644876 58 0.8660254037844387076 -0.499999999999999889 -1.77635683940025007e-15 I I #
point $-1 -1.5 -0.866025403784644876 58 #
coedge $-1 $187 $186 $251 $252 forward $188 $253 #
edge $-1 $153 -58 $254 -0 $216 $255 reversed 7 unknown #
coedge $-1 $256 $192 $187 $224 forward $227 $-1 #
edge $-1 $156 -58 $257 -0 $187 $258 reversed 7 unknown #
face $259 $250 $188 $2 $-1 $260 forward single #
coedge $-1 $192 $256 $261 $262 reversed $227 $-1 #
loop $-1 $-1 $226 $263 #
pcurve $-1 0 forward { exppc nubs 1 open 2 
	-1.732050807568877637 1 0 1 
	1.732050807568877637 58 
	0 58 
	0.001000000000000111043 
	plane 1.5 -0.8660254037844388186 -3.076740298213702895e-15 1 0 0 0 1 3.552713678800500929e-15 forward_v I I I I 
	} 0 0 #
straight-curve $-1 1.5 -0.866025403784644876 58 0 1 3.552713678800500929e-15 I I #
coedge $-1 $261 $264 $196 $231 reversed $265 $266 #
edge $-1 $198 0 $238 1.732050807568877193 $230 $267 forward 7 unknown #
pcurve $-1 0 forward { exppc nubs 1 open 2 
	0 1 1.732050807568877193 1 
	0.5119661282874145014 -3.141592653589793116 
	1.511966128287414168 -3.141592653589793116 
	0.00100000000002842173 
	cone 4 0.4226497308101688777 58 0 1 3.552713678800500929e-15 1.732050807568877859 0 0 1 I I -0.8660254037844387076 -0.499999999999999889 1.732050807568877859 forward I I I I 
	} 0 0 #
face $268 $269 $197 $2 $-1 $270 reversed single #
point $-1 1.5 0.8660254037842327612 58 #
coedge $-1 $271 $272 $204 $236 reversed $273 $274 #
edge $-1 $238 -0 $211 1.732050807568876971 $235 $275 forward 7 unknown #
pcurve $-1 0 forward { exppc nubs 1 open 2 
	0 1 1.732050807568876971 1 
	1.511966128287414168 -3.141592653589793116 
	2.511966128287413724 -3.141592653589793116 
	0.001000000000035527158 
	cone 4 3.041451884327173616 58.00000000000001421 0 -1 -3.552713678800500929e-15 1.732050807568877859 0 0 1 I I 0.8660254037844387076 0.499999999999999889 1.732050807568877859 forward I I I I 
	} 0 0 #
vertex $-1 $205 $276 #
ellipse-curve $-1 4 1.732050807568671136 58.00000000000000711 0 1 3.552713678800500929e-15 -4 0 0 1 F 0 F 1.570796326794896558 #
pid_name-sg-attrib $-1 $-1 $-1 $207 7 rwilson 843156660 114 1 #
cone-surface $-1 4 3.041451884327173616 58.00000000000001421 0 -1 -3.552713678800500929e-15 1.732050807568877859 0 0 1 I I 0.8660254037844387076 0.499999999999999889 1.732050807568877859 forward I I I I #
coedge $-1 $277 $208 $272 $278 reversed $244 $279 #
coedge $-1 $208 $277 $215 $249 reversed $244 $-1 #
loop $-1 $-1 $243 $280 #
pcurve $-1 0 forward { exppc nubs 1 open 2 
	-1.732050807568877637 1 2.220446049250313081e-16 1 
	1.732050807568877637 58 
	-2.220446049250313081e-16 58 
	0.001000000000000111043 
	plane -1.5 0.8660254037844388186 3.076740298213702895e-15 -1 0 0 0 -1 -3.552713678800500929e-15 forward_v I I I I 
	} 0 0 #
straight-curve $-1 -1.5 0.8660254037842327612 58 0 -1 -3.552713678800500929e-15 I I #
point $-1 -1.5 0.8660254037842329833 58 #
coedge $-1 $216 $215 $281 $282 forward $217 $283 #
edge $-1 $182 -58 $284 -0 $243 $285 reversed 7 unknown #
face $286 $280 $217 $2 $-1 $287 forward single #
coedge $-1 $281 $288 $221 $252 reversed $289 $290 #
edge $-1 $254 0 $257 1.732050807568877193 $251 $291 forward 7 unknown #
pcurve $-1 0 forward { exppc nubs 1 open 2 
	0 1 1.732050807568877193 1 
	0 0 
	1.732050807568877193 0 
	0.001000000000000000021 
	plane 0 -1.732050807568877193 -6.153480596427404212e-15 0.499999999999999889 -0.8660254037844387076 -3.076740298213702501e-15 0.8660254037844387076 0.499999999999999889 1.77635683940025007e-15 forward_v I I I I 
	} 0 0 #
vertex $-1 $222 $292 #
straight-curve $-1 0 -1.732050807568877193 -6.153480596427404212e-15 0 -3.552713678800500929e-15 1 I I #
coedge $-1 $226 $223 $288 $293 forward $227 $294 #
vertex $-1 $224 $295 #
straight-curve $-1 1.5 -0.8660254037844388186 -3.076740298213702895e-15 0 -3.552713678800500929e-15 1 I I #
pid_name-sg-attrib $-1 $-1 $-1 $225 7 rwilson 843156660 118 1 #
plane-surface $-1 0 -1.732050807568877193 -6.153480596427404212e-15 0.499999999999999889 -0.8660254037844387076 -3.076740298213702501e-15 0.8660254037844387076 0.499999999999999889 1.77635683940025007e-15 forward_v I I I I #
coedge $-1 $296 $230 $226 $262 forward $265 $-1 #
edge $-1 $198 -58 $297 -0 $226 $298 reversed 7 unknown #
face $299 $225 $227 $2 $-1 $300 forward single #
coedge $-1 $230 $296 $271 $301 reversed $265 $-1 #
loop $-1 $-1 $264 $269 #
pcurve $-1 0 forward { exppc nubs 1 open 2 
	-1.732050807568877193 1 0 1 
	1.732050807568877193 58 
	0 58 
	0.001000000000000222065 
	plane 1.5 0.8660254037844388186 3.076740298213702895e-15 0.499999999999999889 0.8660254037844387076 3.076740298213702501e-15 -0.8660254037844387076 0.499999999999999889 1.77635683940025007e-15 forward_v I I I I 
	} 0 0 #
straight-curve $-1 1.5 0.8660254037842327612 58 -0.8660254037844387076 0.499999999999999889 1.77635683940025007e-15 I I #
pid_name-sg-attrib $-1 $-1 $-1 $233 7 rwilson 843156660 115 1 #
face $302 $263 $265 $2 $-1 $303 forward single #
cone-surface $-1 4 0.4226497308101688777 58 0 1 3.552713678800500929e-15 1.732050807568877859 0 0 1 I I 0.8660254037844387076 0.499999999999999889 1.732050807568877859 forward I I I I #
coedge $-1 $304 $235 $264 $301 forward $273 $-1 #
coedge $-1 $235 $304 $242 $278 forward $273 $305 #
loop $-1 $-1 $272 $306 #
pcurve $-1 0 forward { exppc nubs 1 open 2 
	-1.732050807568876971 1 2.220446049250313081e-16 1 
	1.732050807568876749 58 
	0 58 
	0.001000000000000248303 
	plane 0 1.732050807568877193 6.153480596427404212e-15 -0.499999999999999889 0.8660254037844387076 3.076740298213702501e-15 -0.8660254037844387076 -0.499999999999999889 -1.77635683940025007e-15 forward_v I I I I 
	} 0 0 #
straight-curve $-1 0 1.732050807568671136 58.00000000000000711 -0.8660254037844387076 -0.499999999999999889 -1.77635683940025007e-15 I I #
point $-1 0 1.732050807568671136 58.00000000000000711 #
coedge $-1 $243 $242 $307 $308 forward $244 $309 #
edge $-1 $310 0 $211 58 $242 $311 forward 7 unknown #
pcurve $-1 0 forward { exppc nubs 1 open 2 
	-58 1 0 1 
	0 58 
	0 0 
	0.001000000000003552734 
	plane -1.5 0.8660254037844388186 3.076740298213702895e-15 -1 0 0 0 -1 -3.552713678800500929e-15 forward_v I I I I 
	} 0 0 #
face $312 $306 $244 $2 $-1 $313 forward single #
coedge $-1 $307 $251 $248 $282 reversed $289 $314 #
edge $-1 $284 0 $254 1.732050807568877193 $281 $315 forward 7 unknown #
pcurve $-1 0 forward { exppc nubs 1 open 2 
	0 1 1.732050807568877193 1 
	0 0 
	1.732050807568877193 0 
	0.001000000000000000021 
	plane -1.5 -0.8660254037844388186 -3.076740298213702895e-15 -0.499999999999999889 -0.8660254037844387076 -3.076740298213702501e-15 0.8660254037844387076 -0.499999999999999889 -1.77635683940025007e-15 forward_v I I I I 
	} 0 0 #
vertex $-1 $249 $316 #
straight-curve $-1 -1.5 -0.8660254037844388186 -3.076740298213702895e-15 0 -3.552713678800500929e-15 1 I I #
pid_name-sg-attrib $-1 $-1 $-1 $250 7 rwilson 843156660 119 1 #
plane-surface $-1 -1.5 -0.8660254037844388186 -3.076740298213702895e-15 -0.499999999999999889 -0.8660254037844387076 -3.076740298213702501e-15 0.8660254037844387076 -0.499999999999999889 -1.77635683940025007e-15 forward_v I I I I #
coedge $-1 $251 $317 $256 $293 reversed $289 $318 #
loop $-1 $-1 $319 $320 #
pcurve $-1 0 forward { exppc nubs 1 open 2 
	-1.732050807568877193 1 0 1 
	0.8660254037844388186 1.5 
	1.732050807568877193 0 
	0.001000000000000355422 
	plane 0 0 0 0 3.552713678800500929e-15 -1 0 -1 -3.552713678800500929e-15 reverse_v I I I I 
	} 0 0 #
straight-curve $-1 0 -1.732050807568877193 -6.153480596427404212e-15 0.8660254037844387076 0.499999999999999889 1.77635683940025007e-15 I I #
point $-1 0 -1.732050807568877193 -6.153480596427404212e-15 #
edge $-1 $257 0 $297 1.732050807568877637 $288 $321 forward 7 unknown #
pcurve $-1 0 forward { exppc nubs 1 open 2 
	0 1 1.732050807568877637 1 
	0 0 
	1.732050807568877637 0 
	0.001000000000000000021 
	plane 1.5 -0.8660254037844388186 -3.076740298213702895e-15 1 0 0 0 1 3.552713678800500929e-15 forward_v I I I I 
	} 0 0 #
point $-1 1.5 -0.8660254037844388186 -3.076740298213702895e-15 #
coedge $-1 $264 $261 $317 $322 forward $265 $323 #
vertex $-1 $262 $324 #
straight-curve $-1 1.5 0.8660254037844388186 3.076740298213702895e-15 0 -3.552713678800500929e-15 1 I I #
pid_name-sg-attrib $-1 $-1 $-1 $263 7 rwilson 843156660 117 1 #
plane-surface $-1 1.5 -0.8660254037844388186 -3.076740298213702895e-15 1 0 0 0 1 3.552713678800500929e-15 forward_v I I I I #
edge $-1 $238 -58 $325 -0 $264 $326 reversed 7 unknown #
pid_name-sg-attrib $-1 $-1 $-1 $269 7 rwilson 843156660 116 1 #
plane-surface $-1 1.5 0.8660254037844388186 3.076740298213702895e-15 0.499999999999999889 0.8660254037844387076 3.076740298213702501e-15 -0.8660254037844387076 0.499999999999999889 1.77635683940025007e-15 forward_v I I I I #
coedge $-1 $272 $271 $319 $327 forward $273 $328 #
pcurve $-1 0 forward { exppc nubs 1 open 2 
	0 1 58 1 
	1.732050807568877193 0 
	1.732050807568877193 58 
	0.001000000000000248303 
	plane 0 1.732050807568877193 6.153480596427404212e-15 -0.499999999999999889 0.8660254037844387076 3.076740298213702501e-15 -0.8660254037844387076 -0.499999999999999889 -1.77635683940025007e-15 forward_v I I I I 
	} 0 0 #
face $329 $320 $273 $2 $-1 $330 forward single #
coedge $-1 $319 $281 $277 $308 reversed $289 $331 #
edge $-1 $310 0 $284 1.732050807568877637 $307 $332 forward 7 unknown #
pcurve $-1 0 forward { exppc nubs 1 open 2 
	0 1 1.732050807568877637 1 
	0 0 
	1.732050807568877637 0 
	0.001000000000000000021 
	plane -1.5 0.8660254037844388186 3.076740298213702895e-15 -1 0 0 0 -1 -3.552713678800500929e-15 forward_v I I I I 
	} 0 0 #
vertex $-1 $278 $333 #
straight-curve $-1 -1.5 0.8660254037844388186 3.076740298213702895e-15 0 -3.552713678800500929e-15 1 I I #
pid_name-sg-attrib $-1 $-1 $-1 $280 7 rwilson 843156660 120 1 #
plane-surface $-1 -1.5 0.8660254037844388186 3.076740298213702895e-15 -1 0 0 0 -1 -3.552713678800500929e-15 forward_v I I I I #
pcurve $-1 0 forward { exppc nubs 1 open 2 
	-1.732050807568877193 1 0 1 
	1.732050807568877193 0 
	0.8660254037844388186 -1.5 
	0.001000000000000474251 
	plane 0 0 0 0 3.552713678800500929e-15 -1 0 -1 -3.552713678800500929e-15 reverse_v I I I I 
	} 0 0 #
straight-curve $-1 -1.5 -0.8660254037844388186 -3.076740298213702895e-15 0.8660254037844387076 -0.499999999999999889 -1.77635683940025007e-15 I I #
point $-1 -1.5 -0.8660254037844388186 -3.076740298213702895e-15 #
coedge $-1 $288 $319 $296 $322 reversed $289 $334 #
pcurve $-1 0 forward { exppc nubs 1 open 2 
	-1.732050807568877637 1 0 1 
	-0.8660254037844388186 1.5 
	0.8660254037844388186 1.5 
	0.001000000000000222065 
	plane 0 0 0 0 3.552713678800500929e-15 -1 0 -1 -3.552713678800500929e-15 reverse_v I I I I 
	} 0 0 #
coedge $-1 $317 $307 $304 $327 reversed $289 $335 #
face $336 $-1 $289 $2 $-1 $337 reversed single #
straight-curve $-1 1.5 -0.8660254037844388186 -3.076740298213702895e-15 0 1 3.552713678800500929e-15 I I #
edge $-1 $297 0 $325 1.732050807568877193 $317 $338 forward 7 unknown #
pcurve $-1 0 forward { exppc nubs 1 open 2 
	0 1 1.732050807568877193 1 
	0 0 
	1.732050807568877193 0 
	0.001000000000000000021 
	plane 1.5 0.8660254037844388186 3.076740298213702895e-15 0.499999999999999889 0.8660254037844387076 3.076740298213702501e-15 -0.8660254037844387076 0.499999999999999889 1.77635683940025007e-15 forward_v I I I I 
	} 0 0 #
point $-1 1.5 0.8660254037844388186 3.076740298213702895e-15 #
vertex $-1 $301 $339 #
straight-curve $-1 0 1.732050807568877193 6.153480596427404212e-15 0 -3.552713678800500929e-15 1 I I #
edge $-1 $325 -0 $310 1.732050807568877193 $319 $340 forward 7 unknown #
pcurve $-1 0 forward { exppc nubs 1 open 2 
	0 1 1.732050807568877193 1 
	0 0 
	1.732050807568877193 0 
	0.001000000000000000021 
	plane 0 1.732050807568877193 6.153480596427404212e-15 -0.499999999999999889 0.8660254037844387076 3.076740298213702501e-15 -0.8660254037844387076 -0.499999999999999889 -1.77635683940025007e-15 forward_v I I I I 
	} 0 0 #
pid_name-sg-attrib $-1 $-1 $-1 $306 7 rwilson 843156660 121 1 #
plane-surface $-1 0 1.732050807568877193 6.153480596427404212e-15 -0.499999999999999889 0.8660254037844387076 3.076740298213702501e-15 -0.8660254037844387076 -0.499999999999999889 -1.77635683940025007e-15 forward_v I I I I #
pcurve $-1 0 forward { exppc nubs 1 open 2 
	-1.732050807568877637 1 0 1 
	0.8660254037844388186 -1.5 
	-0.8660254037844388186 -1.5 
	0.001000000000000222065 
	plane 0 0 0 0 3.552713678800500929e-15 -1 0 -1 -3.552713678800500929e-15 reverse_v I I I I 
	} 0 0 #
straight-curve $-1 -1.5 0.8660254037844388186 3.076740298213702895e-15 0 -1 -3.552713678800500929e-15 I I #
point $-1 -1.5 0.8660254037844388186 3.076740298213702895e-15 #
pcurve $-1 0 forward { exppc nubs 1 open 2 
	-1.732050807568877193 1 0 1 
	-1.732050807568877193 0 
	-0.8660254037844388186 1.5 
	0.001000000000000474251 
	plane 0 0 0 0 3.552713678800500929e-15 -1 0 -1 -3.552713678800500929e-15 reverse_v I I I I 
	} 0 0 #
pcurve $-1 0 forward { exppc nubs 1 open 2 
	-1.732050807568877193 1 0 1 
	-0.8660254037844388186 -1.5 
	-1.732050807568877193 0 
	0.001000000000000355422 
	plane 0 0 0 0 3.552713678800500929e-15 -1 0 -1 -3.552713678800500929e-15 reverse_v I I I I 
	} 0 0 #
pid_name-sg-attrib $-1 $-1 $-1 $320 7 rwilson 843156660 122 1 #
plane-surface $-1 0 0 0 0 -3.552713678800500929e-15 1 0 -1 -3.552713678800500929e-15 forward_v I I I I #
straight-curve $-1 1.5 0.8660254037844388186 3.076740298213702895e-15 -0.8660254037844387076 0.499999999999999889 1.77635683940025007e-15 I I #
point $-1 0 1.732050807568877193 6.153480596427404212e-15 #
straight-curve $-1 0 1.732050807568877193 6.153480596427404212e-15 -0.8660254037844387076 -0.499999999999999889 -1.77635683940025007e-15 I I #
End-of-ACIS-data 