201 0 1 0           
7 Unknown 16 ACIS 2.1 Solaris 24 Thu Jan 30 10:54:02 1997 
-1 9.999999999999999547e-07 1.000000000000000036e-10 
body $1 $2 $-1 $3 #
display_attribute-st-attrib $-1 $4 $-1 $0 2 #
lump $-1 $-1 $5 $0 #
transform $-1 -0.01745240643728354982 -3.614175986376988089e-15 0.9998476951563912696 -0.9998476951563912696 -3.490169180221541548e-15 -0.01745240643728354982 3.552713678800500929e-15 -1 -3.552713678800500929e-15 4.06666200891879992 -9.414446178710391793e-14 30.5659721978811163 9.999980000000000757 rotate no_reflect no_shear #
id_attribute-st-attrib $-1 $-1 $1 $0 14 #
shell $-1 $-1 $-1 $6 $-1 $2 #
face $7 $8 $9 $5 $-1 $10 reversed single #
pid_name-sg-attrib $-1 $-1 $-1 $6 7 114 119 105 108 115 111 110 815244532 1 1 #
face $11 $12 $13 $5 $-1 $14 reversed single #
loop $-1 $-1 $15 $6 #
plane-surface $-1 3.435918366722818362 -0.05673623014813855558 -2.842170943040400901e-15 0.9993908270190957621 -0.03489949670250104552 0 -2.479758386364568815e-16 -7.101098923236973534e-15 1 forward_v I I I I #
pid_name-sg-attrib $-1 $-1 $-1 $8 7 114 119 105 108 115 111 110 815244532 2 1 #
face $16 $17 $18 $5 $-1 $19 forward single #
loop $-1 $-1 $20 $8 #
plane-surface $-1 4.224961179327345384 -0.3844730756158679652 -4.973799150320700197e-15 0.03489949670250104552 0.9993908270190957621 7.105427357601001859e-15 -2.479758386364568815e-16 -7.101098923236973534e-15 1 forward_v I I I I #
coedge $-1 $21 $22 $23 $24 1 $9 $-1 #
pid_name-sg-attrib $-1 $-1 $-1 $12 7 114 119 105 108 115 111 110 815244532 3 1 #
face $25 $26 $27 $5 $-1 $28 reversed single #
loop $-1 $29 $30 $12 #
torus-surface $-1 10.05537643854103713 6.116008283878067608 4.263256414560601115e-14 2.479758386364568815e-16 7.101098923236973534e-15 -1 8 0.4500000000000000111 0.9993908270190957621 -0.03489949670250104552 0 forward_v I I I I #
coedge $-1 $31 $32 $33 $34 1 $13 $-1 #
coedge $-1 $35 $15 $36 $37 1 $9 $-1 #
coedge $-1 $15 $35 $38 $39 1 $9 $-1 #
coedge $-1 $40 $41 $15 $24 0 $42 $-1 #
edge $-1 $43 $44 $23 $45 forward #
pid_name-sg-attrib $-1 $-1 $-1 $17 7 114 119 105 108 115 111 110 815244532 4 1 #
face $46 $47 $48 $5 $-1 $49 reversed single #
loop $-1 $-1 $50 $17 #
plane-surface $-1 7.743768771915680915 0.09301318213683640312 -7.105427357600952949e-16 -0.03489949670250104552 -0.9993908270190957621 -7.105427357601001859e-15 2.479758386364568815e-16 7.101098923236973534e-15 -1 forward_v I I I I #
loop $-1 $-1 $51 $12 #
coedge $-1 $30 $30 $52 $53 1 $18 $-1 #
coedge $-1 $54 $20 $55 $56 1 $13 $-1 #
coedge $-1 $20 $54 $57 $58 1 $13 $-1 #
coedge $-1 $51 $59 $20 $34 0 $29 $-1 #
edge $-1 $60 $61 $33 $62 forward #
coedge $-1 $22 $21 $54 $63 0 $9 $-1 #
coedge $-1 $64 $57 $21 $37 0 $65 $-1 #
edge $-1 $66 $43 $21 $67 forward #
coedge $-1 $55 $68 $22 $39 0 $69 $-1 #
edge $-1 $44 $70 $22 $71 forward #
coedge $-1 $72 $23 $68 $73 0 $42 $-1 #
coedge $-1 $23 $72 $64 $74 0 $42 $-1 #
loop $-1 $-1 $23 $75 #
vertex $-1 $74 $76 #
vertex $-1 $73 $77 #
straight-curve $-1 3.433885206868311446 -0.1149583107064528487 0 0 0 1 I I #
pid_name-sg-attrib $-1 $-1 $-1 $26 7 114 119 105 108 115 111 110 815244532 5 1 #
face $78 $79 $80 $5 $-1 $81 reversed single #
loop $-1 $-1 $52 $26 #
plane-surface $-1 12.08397975834035698 -4.561293274610349613 -3.268496584496460603e-14 -0.9993908270190957621 0.03489949670250104552 0 2.479758386364568815e-16 7.101098923236973534e-15 -1 forward_v I I I I #
coedge $-1 $82 $83 $84 $85 1 $27 $-1 #
coedge $-1 $86 $33 $87 $88 0 $29 $-1 #
coedge $-1 $52 $52 $30 $53 0 $48 $-1 #
edge $-1 $89 $89 $30 $90 forward #
coedge $-1 $32 $31 $35 $63 1 $13 $-1 #
coedge $-1 $91 $38 $31 $56 0 $69 $-1 #
edge $-1 $70 $60 $31 $92 forward #
coedge $-1 $36 $87 $32 $58 0 $65 $-1 #
edge $-1 $61 $66 $32 $93 forward #
coedge $-1 $33 $86 $91 $94 0 $29 $-1 #
vertex $-1 $94 $95 #
vertex $-1 $88 $96 #
intcurve-curve $-1 forward { surfintcur nubs 3 open 11 
	-0.4461410128109797313 3 -0.3221706999933959814 2 -0.2308785350332218655 2 -0.1395863700730473056 2 -0.0697931850365236528 2 
	0 3 0.06979318503652050254 2 0.1395863700730410051 2 0.2308785350332144826 2 0.3221706999933879878 2 
	0.4461410128116338747 3 
	4.954661838142906838 -0.4099547841203451393 0.3499999999999950373 
	4.91391836146042138 -0.4085319905628236326 0.3306297042533838382 
	4.875055547336518025 -0.4071748711890018635 0.3076900307174283977 
	4.817329715664536494 -0.4051590407274646699 0.2651186300318660871 
	4.792000968546405559 -0.4042745413878378047 0.2433395409346065796 
	4.747069664626073049 -0.4027055056806717603 0.194745194239264896 
	4.727531810758943465 -0.4020232287894139889 0.167870078057196781 
	4.701866983957541102 -0.4011269932886364353 0.1207141772503002169 
	4.691962390715835873 -0.4007811172711338576 0.0972141963561028305 
	4.67883742318892093 -0.400322783305539498 0.04849474605891321982 
	4.675657425317932159 -0.4002117353329014415 0.023264395012169585 
	4.675657425317932159 -0.4002117353329012195 -4.973799150320700197e-15 
	4.675657425317932159 -0.4002117353329009974 -0.02326439501217847372 
	4.678837423188918265 -0.4003227833055386098 -0.04849474605892142159 
	4.691962390715833209 -0.4007811172711325254 -0.09721419635610899224 
	4.701866983957539325 -0.4011269932886344369 -0.1207141772503049354 
	4.7275318107589408 -0.4020232287894108802 -0.1678700780572007778 
	4.747069664626069496 -0.4027055056806688738 -0.1947451942392695867 
	4.79200096854640023 -0.4042745413878340299 -0.2433395409346112426 
	4.817329715664531165 -0.405159040727460229 -0.2651186300318707501 
	4.875055547336687667 -0.4071748711890034178 -0.3076900307175646776 
	4.913918361460202888 -0.408531990562810976 -0.3306297042532897468 
	4.954661838142906838 -0.4099547841203402543 -0.3500000000000049183 
	0.001000000000000000021 
	torus 10.05537643854103713 6.116008283878067608 4.263256414560601115e-14 2.479758386364568815e-16 7.101098923236973534e-15 -1 8 -0.4500000000000000111 0.9993908270190957621 -0.03489949670250104552 0 forward_v I I I I 
	plane 4.224961179327345384 -0.3844730756158679652 -4.973799150320700197e-15 -0.03489949670250104552 -0.9993908270190957621 -7.105427357601001859e-15 -2.479758386364568815e-16 -7.101098923236973534e-15 1 reverse_v I I I I 
	nullbs 
	nullbs 
	I I } I I #
edge $-1 $66 $70 $54 $97 forward #
coedge $-1 $98 $36 $41 $74 1 $65 $-1 #
loop $-1 $-1 $99 $100 #
vertex $-1 $58 $101 #
straight-curve $-1 3.435918366722818362 -0.05673623014813611309 -0.3500000000000028089 0.03489949670250104552 0.9993908270190957621 7.105427357601001859e-15 I I #
coedge $-1 $38 $102 $40 $73 1 $69 $-1 #
loop $-1 $-1 $103 $104 #
vertex $-1 $56 $105 #
straight-curve $-1 3.435918366722818362 -0.05673623014814099808 0.3499999999999971467 -0.03489949670250104552 -0.9993908270190957621 -7.105427357601001859e-15 I I #
coedge $-1 $41 $40 $106 $107 1 $42 $-1 #
edge $-1 $44 $108 $68 $109 reversed #
edge $-1 $110 $43 $64 $111 reversed #
face $112 $100 $42 $5 $-1 $113 forward single #
point $-1 3.43388520686831189 -0.1149583107064502396 -0.3500000000000031974 #
point $-1 3.43388520686831189 -0.1149583107064551246 0.3499999999999967581 #
pid_name-sg-attrib $-1 $-1 $-1 $47 7 114 119 105 108 115 111 110 815244532 6 1 #
face $114 $115 $116 $5 $-1 $117 forward single #
loop $-1 $-1 $118 $47 #
plane-surface $-1 0.001979812187938512907 0.4634233642831283584 0 0.03489949670250104552 0.9993908270190957621 7.105427357601001859e-15 -2.479758386364568815e-16 -7.101098923236973534e-15 1 forward_v I I I I #
coedge $-1 $119 $50 $120 $121 1 $27 $-1 #
coedge $-1 $50 $119 $122 $123 1 $27 $-1 #
coedge $-1 $124 $125 $50 $85 0 $126 $-1 #
edge $-1 $127 $128 $84 $129 forward #
coedge $-1 $59 $51 $119 $130 1 $29 $-1 #
coedge $-1 $57 $122 $51 $88 1 $65 $-1 #
edge $-1 $61 $131 $51 $132 forward #
vertex $-1 $53 $133 #
intcurve-curve $-1 forward { surfintcur nubs 3 periodic 33 
	0 3 0.08214656252099054867 2 0.1642931250419810973 2 0.2482356475682227503 2 0.3321781700944644311 2 
	0.4184713574694830518 2 0.504764544844501728 2 0.5932919842258077558 2 0.6818194236071137837 2 0.7705833428126167561 2 
	0.8593472620181198396 2 0.9461833983081247013 2 1.033019534598129674 2 1.117231273396827707 2 1.201443012195525961 2 
	1.283383940397512246 2 1.365324868599498531 2 1.447265796801485038 2 1.529206725003471323 2 1.613418463802169134 2 
	1.697630202600866944 2 1.784466338890871695 2 1.871302475180876446 2 1.960066394386379196 2 2.048830313591881946 2 
	2.13735775297318753 2 2.225885192354493558 2 2.312178379729513455 2 2.398471567104533353 2 2.482414089630774257 2 
	2.56635661215701516 2 2.64850317467800922 2 2.73064973719900328 3 
	12.17115849434249952 -2.064820909568556573 -1.493565040150406859e-14 
	12.17115849434249952 -2.064820909568556573 -0.02738218750701178553 
	12.17125553315513109 -2.062042081551789696 -0.05727390374313558186 
	12.17167260217081903 -2.050098787582081084 -0.1157566757571669297 
	12.17199254023303112 -2.040936960197754502 -0.1443482710070129182 
	12.17274735286410881 -2.019321954513025652 -0.1953118530546075204 
	12.17325538993199352 -2.0047736763599735 -0.2223131949102199745 
	12.17446124926286899 -1.970242383137486009 -0.2725938139565478591 
	12.17515887619324566 -1.9502649616622314 -0.2958769371232795597 
	12.17657726009761632 -1.90964776092426769 -0.3354781122565040907 
	12.17743244915690326 -1.885158350417737161 -0.3553319488771496393 
	12.17926913841872683 -1.832562451514159196 -0.3894870507617371747 
	12.18025049780112568 -1.804459995678203921 -0.4037945329910406222 
	12.18213638875332983 -1.750455144706934973 -0.4256056589018174519 
	12.18321717986918706 -1.719505336567320963 -0.4349917199350473718 
	12.18542329127581425 -1.656330571556786424 -0.4471869113128440487 
	12.18654858491338011 -1.62410637793379653 -0.4500000000000113909 
	12.18861104464150813 -1.56504525877332501 -0.4500000000000117795 
	12.18973929131068168 -1.532736501389292627 -0.4471718080354757374 
	12.19195146178845413 -1.46938822728281826 -0.4349500549795785043 
	12.19303537134647009 -1.438349118643666102 -0.4255543762105154504 
	12.19493062080618095 -1.38407627508106934 -0.4037135942239463704 
	12.19591900296712161 -1.355772713180090516 -0.389362189055317276 
	12.19776998605761698 -1.302767492578249087 -0.3551049288610242938 
	12.19863243990316626 -1.278070045812286004 -0.3351925493291844083 
	12.20006159520096212 -1.237144392723983799 -0.2955205448112521727 
	12.20076421814530576 -1.217023904127348288 -0.2722291408077128216 
	12.20197975749006147 -1.182215411575582298 -0.2219035472841937306 
	12.20249241606949298 -1.167534790647344334 -0.1948642453505901595 
	12.20325195043752942 -1.14578457210718776 -0.1439352439418390139 
	12.20357340087431197 -1.136579435981576403 -0.1154366270889381346 
	12.20399265881489725 -1.124573459404098141 -0.05712622671469944763 
	12.20409033071268645 -1.121776502200373837 -0.02731364273400686479 
	12.20409033071268645 -1.121776502200374281 0.0273136427339840844 
	12.20399265881489725 -1.12457345940409903 0.05712622671467673663 
	12.20357340087431197 -1.136579435981576403 0.1154366270889156942 
	12.20325195043752942 -1.145784572107188204 0.1439352439418165042 
	12.20249241606949298 -1.167534790647344334 0.1948642453505674832 
	12.20197975749006147 -1.182215411575581854 0.2219035472841709433 
	12.20076421814530576 -1.217023904127346512 0.272229140807689507 
	12.20006159520096212 -1.237144392723983799 0.2955205448112291911 
	12.19863243990316626 -1.278070045812285116 0.3351925493291613156 
	12.19776998605761698 -1.302767492578249975 0.3551049288610010346 
	12.19591900296712161 -1.355772713180089628 0.3893621890552941833 
	12.19493062080618095 -1.384076275081067564 0.4037135942239230002 
	12.19303537134647009 -1.438349118643665214 0.4255543762104921357 
	12.19195146178845413 -1.469388227282817372 0.4349500549795556892 
	12.18973929131068168 -1.532736501389291739 0.4471718080354527003 
	12.18861104464150813 -1.565045258773324122 0.4499999999999884093 
	12.18654858491338189 -1.624106377933794754 0.4499999999999885203 
	12.18542329127581603 -1.656330571556785536 0.4471869113128209006 
	12.18321717986918706 -1.719505336567320075 0.4349917199350243346 
	12.18213638875332983 -1.750455144706934085 0.4256056589017940817 
	12.18025049780112568 -1.804459995678201256 0.4037945329910174186 
	12.17926913841872683 -1.83256245151415742 0.3894870507617149702 
	12.17743244915690326 -1.885158350417736273 0.3553319488771275458 
	12.17657726009761632 -1.909647760924266802 0.3354781122564811646 
	12.17515887619324566 -1.950264961662233176 0.2958769371232566336 
	12.17446124926286899 -1.970242383137487785 0.2725938139565226015 
	12.17325538993199352 -2.004773676359975276 0.2223131949101949667 
	12.17274735286410881 -2.01932195451302654 0.1953118530545846776 
	12.17199254023303112 -2.040936960197754502 0.144348271006989215 
	12.17167260217081903 -2.050098787582081084 0.1157566757571424493 
	12.17125553315513109 -2.062042081551792361 0.05727390374310846466 
	12.17115849434249952 -2.064820909568556573 0.02738218750698311402 
	12.17115849434249952 -2.064820909568556573 -1.493565040150406859e-14 
	0.001000000000000000021 
	torus 10.05537643854103713 6.116008283878067608 4.263256414560601115e-14 2.479758386364568815e-16 7.101098923236973534e-15 -1 8 -0.4500000000000000111 0.9993908270190957621 -0.03489949670250104552 0 forward_v I I I I 
	plane 12.08397975834035698 -4.561293274610349613 -3.268496584496460603e-14 0.9993908270190957621 -0.03489949670250104552 0 2.479758386364568815e-16 7.101098923236973534e-15 -1 reverse_v I I I I 
	nullbs 
	nullbs 
	I I } I I #
coedge $-1 $120 $55 $59 $94 1 $69 $-1 #
straight-curve $-1 4.224961179327345384 -0.3844730756158704077 0.3499999999999950373 0.9993908270190957621 -0.03489949670250104552 0 I I #
straight-curve $-1 4.224961179327345384 -0.3844730756158655227 -0.3500000000000049183 -0.9993908270190957621 0.03489949670250104552 0 I I #
edge $-1 $134 $60 $59 $135 forward #
point $-1 4.954661838142906838 -0.4099547841203451393 0.3499999999999950373 #
point $-1 4.954661838142906838 -0.4099547841203402543 -0.3500000000000049183 #
straight-curve $-1 3.425448517712068153 -0.3565534782538669623 -4.973799150320700197e-15 -2.479758386364568815e-16 -7.101098923236973534e-15 1 I I #
coedge $-1 $136 $64 $137 $138 0 $65 $-1 #
coedge $-1 $139 $140 $141 $142 0 $65 $-1 #
face $143 $144 $65 $5 $-1 $145 reversed single #
point $-1 3.425448517712068153 -0.3565534782538645198 -0.3500000000000049183 #
coedge $-1 $68 $146 $147 $148 0 $69 $-1 #
coedge $-1 $149 $150 $151 $152 0 $69 $-1 #
face $153 $154 $69 $5 $-1 $155 forward single #
point $-1 3.425448517712068153 -0.3565534782538694047 0.3499999999999950373 #
coedge $-1 $147 $137 $72 $107 0 $156 $-1 #
edge $-1 $110 $108 $106 $157 forward #
vertex $-1 $148 $158 #
ellipse-curve $-1 3.25 0.3499999999999999778 0.3499999999999999778 0 0 1 0.5 0 0 1 I I #
vertex $-1 $138 $159 #
ellipse-curve $-1 3.25 0.3499999999999999778 -0.3499999999999999778 0 0 -1 0.5 0 0 1 I I #
pid_name-sg-attrib $-1 $-1 $-1 $75 7 114 119 105 108 115 111 110 815244532 14 1 #
cone-surface $-1 3.25 0.3499999999999999778 0 0 0 1 0.5 0 0 1 I I 0 1 forward I I I I #
pid_name-sg-attrib $-1 $-1 $-1 $79 7 114 119 105 108 115 111 110 815244532 7 1 #
face $160 $161 $162 $5 $-1 $163 reversed single #
loop $-1 $-1 $164 $79 #
cone-surface $-1 -0.3478069772687450989 0.4756381881290037139 1.278976924368180524e-14 -0.9993908270190957621 0.03489949670250104552 3.552713678800500929e-15 -0.01570477351612547048 -0.4497258721585931096 -3.197442310920450915e-15 0.6666666666666666297 I I -0.127521742539526195 0.9918357753074259486 forward I I I I #
coedge $-1 $165 $166 $167 $168 1 $80 $-1 #
coedge $-1 $83 $82 $86 $130 0 $27 $-1 #
coedge $-1 $169 $91 $82 $121 0 $69 $-1 #
edge $-1 $134 $127 $82 $170 forward #
coedge $-1 $87 $171 $83 $123 0 $65 $-1 #
edge $-1 $128 $131 $83 $172 forward #
coedge $-1 $173 $84 $171 $174 0 $126 $-1 #
coedge $-1 $84 $173 $169 $175 0 $126 $-1 #
loop $-1 $-1 $84 $176 #
vertex $-1 $175 $177 #
vertex $-1 $174 $178 #
straight-curve $-1 3.736109566292724171 0.2329637254578767747 0 0 0 -1 I I #
edge $-1 $134 $131 $86 $179 forward #
vertex $-1 $130 $180 #
ellipse-curve $-1 10.05537643854103713 6.116008283878070273 -0.3499999999999573452 2.479758386364568815e-16 7.101098923236973534e-15 -1 8.277797028489098707 -0.2890670419313427497 0 1 I I #
point $-1 12.17115849434249952 -2.064820909568554796 -1.493565040150405597e-14 #
vertex $-1 $130 $181 #
ellipse-curve $-1 10.05537643854103713 6.116008283878064944 0.3500000000000426104 -2.479758386364568815e-16 -7.101098923236973534e-15 1 8.277797028489098707 -0.2890670419313427497 0 1 I I #
coedge $-1 $182 $98 $183 $184 0 $65 $-1 #
coedge $-1 $106 $185 $98 $138 1 $156 $-1 #
edge $-1 $110 $186 $137 $187 forward #
coedge $-1 $188 $99 $189 $190 0 $65 $-1 #
coedge $-1 $99 $191 $192 $193 1 $65 $-1 #
coedge $-1 $194 $195 $99 $142 1 $196 $-1 #
edge $-1 $197 $198 $141 $199 forward #
pid_name-sg-attrib $-1 $-1 $-1 $100 7 114 119 105 108 115 111 110 815244532 15 1 #
face $200 $201 $196 $5 $-1 $202 reversed single #
plane-surface $-1 0 0 -0.3499999999999999778 0 0 1 1 0 0 forward_v I I I I #
coedge $-1 $102 $149 $203 $204 0 $69 $-1 #
coedge $-1 $185 $106 $102 $148 1 $156 $-1 #
edge $-1 $205 $108 $147 $206 forward #
coedge $-1 $146 $103 $207 $208 1 $69 $-1 #
coedge $-1 $103 $209 $210 $211 1 $69 $-1 #
coedge $-1 $212 $213 $103 $152 1 $214 $-1 #
edge $-1 $215 $216 $151 $217 forward #
pid_name-sg-attrib $-1 $-1 $-1 $104 7 114 119 105 108 115 111 110 815244532 24 1 #
face $218 $219 $220 $5 $-1 $221 reversed single #
plane-surface $-1 0 0 0.3499999999999999778 0 0 1 1 0 0 forward_v I I I I #
loop $-1 $-1 $106 $219 #
straight-curve $-1 3.049999999999999822 -0.1082575694955839607 0 0 0 1 I I #
point $-1 3.049999999999999822 -0.1082575694955839607 0.3499999999999999778 #
point $-1 3.049999999999999822 -0.1082575694955839607 -0.3499999999999999778 #
pid_name-sg-attrib $-1 $-1 $-1 $115 7 114 119 105 108 115 111 110 815244532 8 1 #
face $222 $223 $224 $5 $-1 $225 reversed single #
loop $-1 $-1 $226 $115 #
plane-surface $-1 -3.033947386374427957 0.9196536186824399994 2.486899575160350493e-15 0.9993908270190957621 -0.03489949670250104552 0 -2.479758386364568815e-16 -7.101098923236973534e-15 1 forward_v I I I I #
coedge $-1 $227 $228 $226 $229 0 $116 $-1 #
coedge $-1 $230 $118 $209 $231 1 $80 $-1 #
coedge $-1 $118 $232 $233 $234 1 $80 $-1 #
coedge $-1 $235 $210 $118 $168 0 $236 $-1 #
edge $-1 $237 $238 $167 $239 forward #
coedge $-1 $240 $120 $125 $175 1 $69 $-1 #
straight-curve $-1 4.245900877348845803 0.2151614205955867387 0.3499999999999992562 -0.9993908270190957621 0.03489949670250104552 0 I I #
coedge $-1 $122 $241 $124 $174 1 $65 $-1 #
straight-curve $-1 4.245900877348845803 0.2151614205955916237 -0.3500000000000006994 0.9993908270190957621 -0.03489949670250104552 0 I I #
coedge $-1 $125 $124 $242 $243 1 $126 $-1 #
edge $-1 $128 $244 $171 $111 reversed #
edge $-1 $245 $127 $169 $109 reversed #
face $246 $75 $126 $5 $-1 $113 forward single #
point $-1 3.736109566292724171 0.2329637254578734717 0.3499999999999992562 #
point $-1 3.736109566292724171 0.2329637254578783567 -0.3500000000000006994 #
intcurve-curve $-1 forward { surfintcur nubs 3 open 25 
	0.4235211892574475834 3 0.4385859903536890037 2 0.5524240093152297248 2 0.6963668337721540258 2 0.8403096582290783267 2 
	0.9898260554563672597 2 1.139342452683656193 2 1.265296951016526616 2 1.39125144934939704 2 1.485576070739877297 2 
	1.579900692130357553 2 1.650471386754170489 2 1.721042081377983424 2 1.791612776001796359 2 1.862183470625609072 2 
	1.956508092016090661 2 2.05083271340657225 2 2.176787211739442895 2 2.302741710072313097 2 2.452258107299603473 2 
	2.60177450452689385 2 2.745717328983816596 2 2.889660153440739343 2 3.003498172402279121 2 3.018562973498514435 3 
	4.24273554145851417 0.2152719565605778484 0.3499999999178802779 
	4.247535107194048365 0.2151043520318666191 0.3526254133790140965 
	4.252374765000044299 0.2149353474572045508 0.3551960841537488145 
	4.294050190664104427 0.2134800095241192741 0.3766973723066811552 
	4.332696729080564246 0.2121304426644239349 0.3922491753211788668 
	4.414305831531674329 0.2092805900093001048 0.4189937653582297972 
	4.465483749630799082 0.2074934177282928838 0.431125404058265882 
	4.56922677569633251 0.2038706314286820032 0.4466057798792356648 
	4.621785099935298291 0.2020352543030604631 0.449999999999999345 
	4.719545251353753912 0.198621394589898248 0.4499999999999991784 
	4.774116767668756367 0.1967157152478469229 0.4463308219138600319 
	4.881980102652723197 0.1929490445902607432 0.4304465427978942382 
	4.93527064275876981 0.191088097923126865 0.4182227502221537163 
	5.02298604982660013 0.1880250084120365095 0.391237491055005715 
	5.066139621287393702 0.1865180524903086168 0.3750207672081407595 
	5.148932933159665382 0.1836268463309589372 0.3355137820323673137 
	5.18854657244237405 0.182243507564838314 0.3121687781199888323 
	5.247889369063035048 0.1801712114430529255 0.2689765292162051291 
	5.274270289601601824 0.1792499693979455744 0.2467143460322068216 
	5.321322251186193952 0.1776068786933158172 0.1970673128238882299 
	5.341925531840665542 0.1768873962788074516 0.1696182098983737008 
	5.368840786536311249 0.1759474948737694833 0.1217031970647585865 
	5.379186859719099267 0.1755862020370096976 0.09807963184723271499 
	5.392955275495398659 0.1751053983634193179 0.0489974241265891744 
	5.39632338126200306 0.1749877815183190632 0.0235235648746004028 
	5.39632338126200306 0.1749877815183195073 -0.0235235648746082264 
	5.392955275495396883 0.1751053983634190958 -0.0489974241265970778 
	5.379186859719097491 0.1755862020370101417 -0.09807963184724043104 
	5.368840786536308585 0.1759474948737712596 -0.1217031970647657751 
	5.341925531840662877 0.1768873962788100052 -0.1696182098983806952 
	5.321322251186189511 0.1776068786933188148 -0.1970673128238950023 
	5.274270289601597383 0.1792499693979493491 -0.2467143460322135939 
	5.247889369063027942 0.1801712114430569223 -0.2689765292162115129 
	5.188546572442366944 0.182243507564842977 -0.3121687781199948275 
	5.148932933159657388 0.1836268463309638221 -0.3355137820323745301 
	5.06613962128738482 0.1865180524903141679 -0.3750207672081470878 
	5.022986049826592136 0.1880250084120422827 -0.3912374910550104334 
	4.935270642758761817 0.1910880979231330823 -0.4182227502221579907 
	4.881980102652714315 0.1929490445902671825 -0.4304465427978972913 
	4.774116767668745709 0.1967157152478536952 -0.4463308219138624189 
	4.719545251353742366 0.1986213945899051314 -0.4500000000000011213 
	4.621785099935287633 0.2020352543030672354 -0.4500000000000003442 
	4.569226775696321852 0.2038706314286887755 -0.4466057798792363864 
	4.465483749630789312 0.2074934177282995451 -0.431125404058265882 
	4.414305831531665447 0.2092805900093064331 -0.418993765358228909 
	4.332696729080556253 0.2121304426644298191 -0.3922491753211772569 
	4.294050190664095545 0.2134800095241249362 -0.376697372306679934 
	4.25237476500003897 0.2149353474572097689 -0.3551960841537484259 
	4.247535107194044812 0.2151043520318718372 -0.3526254133790145406 
	4.242735541458513282 0.2152719565605827334 -0.3499999999178820542 
	0.001000000000000000021 
	torus 10.05537643854103713 6.116008283878067608 4.263256414560601115e-14 2.479758386364568815e-16 7.101098923236973534e-15 -1 8 -0.4500000000000000111 0.9993908270190957621 -0.03489949670250104552 0 forward_v I I I I 
	plane 7.743768771915680915 0.09301318213683640312 -7.105427357600952949e-16 0.03489949670250104552 0.9993908270190957621 7.105427357601001859e-15 2.479758386364568815e-16 7.101098923236973534e-15 -1 reverse_v I I I I 
	nullbs 
	nullbs 
	I I } I I #
point $-1 4.242735541458513282 0.2152719565605827334 -0.3499999999178820542 #
point $-1 4.24273554145851417 0.2152719565605778484 0.3499999999178802779 #
coedge $-1 $247 $136 $248 $249 1 $65 $-1 #
coedge $-1 $250 $251 $136 $184 1 $220 $-1 #
edge $-1 $186 $252 $183 $253 forward #
coedge $-1 $137 $147 $250 $254 0 $156 $-1 #
vertex $-1 $254 $255 #
straight-curve $-1 3.049999999999999822 0 -0.3499999999999999778 0 -1 0 I I #
coedge $-1 $241 $139 $256 $257 1 $65 $-1 #
coedge $-1 $258 $259 $139 $190 1 $260 $-1 #
edge $-1 $198 $261 $189 $262 forward #
coedge $-1 $140 $263 $264 $265 0 $65 $-1 #
coedge $-1 $266 $267 $140 $193 0 $268 $-1 #
edge $-1 $197 $269 $140 $111 reversed #
coedge $-1 $270 $141 $267 $271 0 $196 $-1 #
coedge $-1 $141 $270 $258 $272 0 $196 $-1 #
loop $-1 $-1 $194 $144 #
vertex $-1 $193 $273 #
vertex $-1 $190 $274 #
straight-curve $-1 3.450000000000000178 0.75 -0.3499999999999999778 0 1 0 I I #
pid_name-sg-attrib $-1 $-1 $-1 $144 7 114 119 105 108 115 111 110 815244532 16 1 #
face $275 $276 $260 $5 $-1 $277 reversed single #
plane-surface $-1 3.450000000000000178 0.75 0 1 0 0 0 0 -1 forward_v I I I I #
coedge $-1 $251 $250 $146 $204 1 $220 $-1 #
edge $-1 $278 $205 $203 $279 forward #
vertex $-1 $148 $280 #
straight-curve $-1 3.049999999999999822 0 0.3499999999999999778 0 1 0 I I #
coedge $-1 $281 $282 $149 $208 0 $283 $-1 #
edge $-1 $278 $216 $149 $284 forward #
coedge $-1 $150 $285 $165 $231 0 $69 $-1 #
coedge $-1 $167 $286 $150 $211 0 $236 $-1 #
edge $-1 $215 $237 $150 $109 reversed #
coedge $-1 $287 $151 $286 $288 0 $214 $-1 #
coedge $-1 $151 $289 $281 $290 1 $214 $-1 #
loop $-1 $-1 $212 $291 #
vertex $-1 $152 $292 #
vertex $-1 $152 $293 #
straight-curve $-1 0 0.3499999999999999778 0.3499999999999999778 -1 0 0 I I #
pid_name-sg-attrib $-1 $-1 $-1 $154 7 114 119 105 108 115 111 110 815244532 25 1 #
face $294 $-1 $156 $5 $-1 $295 reversed single #
loop $-1 $-1 $251 $154 #
plane-surface $-1 0 -0.3499999999999999778 0 0 1 0 0 0 1 forward_v I I I I #
pid_name-sg-attrib $-1 $-1 $-1 $161 7 114 119 105 108 115 111 110 815244532 9 1 #
face $296 $297 $298 $5 $-1 $299 reversed single #
loop $-1 $-1 $300 $161 #
plane-surface $-1 0.02640945987968924477 1.16299694319649527 4.973799150320700986e-15 -0.03489949670250104552 -0.9993908270190957621 -7.105427357601001859e-15 2.479758386364568815e-16 7.101098923236973534e-15 -1 forward_v I I I I #
coedge $-1 $301 $301 $164 $229 1 $162 $-1 #
coedge $-1 $302 $164 $230 $303 0 $116 $-1 #
coedge $-1 $164 $304 $232 $305 0 $116 $-1 #
edge $-1 $306 $307 $226 $308 forward #
coedge $-1 $309 $165 $227 $303 1 $80 $-1 #
edge $-1 $310 $237 $165 $311 forward #
coedge $-1 $166 $309 $228 $305 1 $80 $-1 #
coedge $-1 $312 $313 $166 $234 0 $65 $-1 #
edge $-1 $238 $314 $166 $315 forward #
coedge $-1 $286 $167 $313 $316 0 $236 $-1 #
loop $-1 $-1 $167 $317 #
vertex $-1 $211 $318 #
vertex $-1 $316 $319 #
straight-curve $-1 2.750304586490452063 0.3674497483512504936 0 0 0 -1 I I #
coedge $-1 $320 $169 $321 $322 0 $69 $-1 #
coedge $-1 $171 $188 $323 $324 0 $65 $-1 #
coedge $-1 $323 $321 $173 $243 0 $325 $-1 #
edge $-1 $245 $244 $173 $326 reversed #
vertex $-1 $174 $327 #
vertex $-1 $175 $328 #
pid_name-sg-attrib $-1 $-1 $-1 $176 7 114 119 105 108 115 111 110 815244532 13 1 #
coedge $-1 $313 $182 $287 $329 0 $65 $-1 #
coedge $-1 $282 $330 $182 $249 0 $283 $-1 #
edge $-1 $331 $252 $182 $332 forward #
coedge $-1 $203 $183 $185 $254 1 $220 $-1 #
coedge $-1 $183 $203 $282 $333 1 $220 $-1 #
vertex $-1 $184 $334 #
straight-curve $-1 0 -0.3499999999999999778 -0.3499999999999999778 -1 0 0 I I #
edge $-1 $205 $186 $185 $335 forward #
point $-1 3.049999999999999822 -0.3499999999999999778 -0.3499999999999999778 #
coedge $-1 $336 $337 $188 $257 0 $338 $-1 #
edge $-1 $339 $261 $256 $340 forward #
coedge $-1 $341 $189 $195 $272 1 $260 $-1 #
coedge $-1 $189 $341 $336 $342 1 $260 $-1 #
loop $-1 $-1 $259 $201 #
vertex $-1 $257 $343 #
straight-curve $-1 4.25 1.049999999999999822 -0.3499999999999999778 1 0 0 I I #
coedge $-1 $191 $312 $344 $345 0 $65 $-1 #
coedge $-1 $346 $347 $191 $265 1 $298 $-1 #
edge $-1 $348 $269 $264 $349 forward #
coedge $-1 $350 $192 $347 $351 0 $268 $-1 #
coedge $-1 $192 $350 $194 $271 1 $268 $-1 #
loop $-1 $-1 $266 $297 #
vertex $-1 $193 $352 #
coedge $-1 $195 $194 $353 $354 1 $196 $-1 #
edge $-1 $197 $355 $267 $356 reversed #
edge $-1 $357 $198 $258 $358 forward #
point $-1 3.450000000000000178 0.8082575694955839163 -0.3499999999999999778 #
point $-1 3.450000000000000178 1.049999999999999822 -0.3499999999999999778 #
pid_name-sg-attrib $-1 $-1 $-1 $201 7 114 119 105 108 115 111 110 815244532 17 1 #
face $359 $360 $361 $5 $-1 $362 forward single #
plane-surface $-1 4.25 1.049999999999999822 0 0 -1 0 0 0 -1 forward_v I I I I #
vertex $-1 $208 $363 #
straight-curve $-1 0 -0.3499999999999999778 0.3499999999999999778 1 0 0 I I #
point $-1 3.049999999999999822 -0.3499999999999999778 0.3499999999999999778 #
coedge $-1 $364 $207 $213 $290 0 $283 $-1 #
coedge $-1 $207 $248 $251 $333 0 $283 $-1 #
loop $-1 $-1 $364 $365 #
intcurve-curve $-1 forward { exactcur nurbs 2 open 2 
	0.03677297726939005029 2 2.906029690159755319 2 
	2.955555555555560154 -0.3499999999999999778 0.3499999999999999778 1.008673469387754595 
	0.2333333333334580706 0.0874999999999910294 0.3499999999999999778 1.344897959183626091 
	0.2333333333334566828 0.3499999999999999778 0.3499999999999999778 1.344897959183626091 
	0 
	null_surface 
	null_surface 
	nullbs 
	nullbs 
	I I F 1 F 0 } I I #
coedge $-1 $209 $366 $302 $367 1 $69 $-1 #
coedge $-1 $210 $235 $212 $288 1 $236 $-1 #
coedge $-1 $368 $212 $247 $329 1 $214 $-1 #
edge $-1 $215 $369 $212 $370 forward #
coedge $-1 $213 $368 $371 $372 1 $214 $-1 #
edge $-1 $216 $373 $213 $374 forward #
face $375 $365 $214 $5 $-1 $376 reversed single #
point $-1 2.75 0.3499999999999999778 0.3499999999999999778 #
point $-1 0.2333333333334566828 0.3499999999999999778 0.3499999999999999778 #
pid_name-sg-attrib $-1 $-1 $-1 $219 7 114 119 105 108 115 111 110 815244532 26 1 #
plane-surface $-1 3.049999999999999822 0 0 -1 0 0 0 0 1 forward_v I I I I #
pid_name-sg-attrib $-1 $-1 $-1 $223 7 114 119 105 108 115 111 110 815244532 10 1 #
face $377 $317 $268 $5 $-1 $113 forward single #
loop $-1 $-1 $347 $223 #
plane-surface $-1 3.062336658442055715 0.7067666887971837397 2.486899575160350493e-15 -0.9993908270190957621 0.03489949670250104552 0 2.479758386364568815e-16 7.101098923236973534e-15 -1 forward_v I I I I #
coedge $-1 $378 $344 $379 $380 1 $224 $-1 #
coedge $-1 $226 $226 $309 $381 0 $162 $-1 #
coedge $-1 $379 $227 $285 $367 0 $116 $-1 #
edge $-1 $307 $310 $230 $382 forward #
coedge $-1 $228 $379 $312 $383 0 $116 $-1 #
edge $-1 $314 $306 $232 $384 forward #
vertex $-1 $229 $385 #
vertex $-1 $381 $386 #
ellipse-curve $-1 -3.046162210220303201 0.5698668292257564882 2.238209617644315522e-14 0.9993908270190957621 -0.03489949670250104552 0 -0.00358966251797153673 -0.1027944850648212921 -7.308439567818174197e-16 0.6666666666666666297 I I #
coedge $-1 $232 $230 $301 $381 1 $80 $-1 #
vertex $-1 $303 $387 #
straight-curve $-1 0.001979812187938426171 0.4634233642831258604 0.3499999999999999778 0.9993908270190957621 -0.03489949670250104552 0 I I #
coedge $-1 $263 $233 $304 $383 1 $65 $-1 #
coedge $-1 $233 $247 $235 $316 1 $65 $-1 #
vertex $-1 $234 $388 #
straight-curve $-1 0.001979812187938599644 0.4634233642831308564 -0.3499999999999999778 -0.9993908270190957621 0.03489949670250104552 0 I I #
edge $-1 $238 $369 $313 $111 reversed #
face $389 $176 $236 $5 $-1 $113 forward single #
point $-1 2.750304586490452063 0.3674497483512479956 0.3499999999999999778 #
point $-1 2.750304586490452063 0.3674497483512529916 -0.3499999999999999778 #
coedge $-1 $390 $240 $391 $392 1 $69 $-1 #
coedge $-1 $242 $393 $240 $322 1 $325 $-1 #
edge $-1 $245 $394 $321 $395 forward #
coedge $-1 $393 $242 $241 $324 1 $325 $-1 #
edge $-1 $339 $244 $323 $396 forward #
loop $-1 $-1 $242 $360 #
straight-curve $-1 3.739897948556635932 0.4499999999999992895 0 0 0 1 I I #
point $-1 3.739897948556635487 0.4500000000000001776 -0.3499999999999999778 #
point $-1 3.739897948556635487 0.4500000000000001776 0.3499999999999999778 #
edge $-1 $331 $369 $287 $397 forward #
coedge $-1 $248 $364 $368 $398 0 $283 $-1 #
vertex $-1 $398 $399 #
intcurve-curve $-1 forward { exactcur nurbs 2 open 2 
	2.906029690159993795 2 5.775286403050602146 2 
	0.2333333333332096582 0.3499999999999999778 -0.3499999999999999778 1.344897959183718239 
	0.2333333333332105741 0.08750000000000809908 -0.3500000000000000333 1.344897959183718239 
	2.955555555555548608 -0.3499999999999999778 -0.3499999999999999778 1.008673469387755262 
	0 
	null_surface 
	null_surface 
	nullbs 
	nullbs 
	I I F 1 F 0 } I I #
edge $-1 $252 $278 $251 $400 forward #
point $-1 2.955555555555548608 -0.3499999999999999778 -0.3499999999999999778 #
straight-curve $-1 3.049999999999999822 -0.3499999999999999778 0 0 0 -1 I I #
coedge $-1 $391 $256 $259 $342 0 $338 $-1 #
coedge $-1 $256 $391 $393 $401 1 $338 $-1 #
loop $-1 $-1 $391 $276 #
vertex $-1 $401 $402 #
ellipse-curve $-1 9.849999999999999645 -5.650000000000000355 -0.3499999999999999778 0 0 -1 8.282842712474618452 0 0 1 I I #
coedge $-1 $259 $258 $390 $403 1 $260 $-1 #
edge $-1 $261 $404 $336 $405 forward #
point $-1 4.980145443691989193 1.049999999999999822 -0.3499999999999999778 #
coedge $-1 $300 $406 $263 $345 1 $224 $-1 #
edge $-1 $407 $348 $344 $408 forward #
coedge $-1 $409 $264 $406 $410 0 $298 $-1 #
coedge $-1 $264 $409 $266 $351 1 $298 $-1 #
vertex $-1 $265 $411 #
straight-curve $-1 3.062336658442055715 0.7067666887971861822 -0.3499999999999974798 -0.03489949670250104552 -0.9993908270190957621 -7.105427357601001859e-15 I I #
coedge $-1 $267 $266 $412 $413 0 $268 $-1 #
edge $-1 $269 $414 $266 $415 forward #
point $-1 3.066114793131687666 0.8149583107064550802 -0.3499999999999967026 #
coedge $-1 $412 $390 $270 $354 0 $69 $-1 #
edge $-1 $357 $355 $270 $416 forward #
vertex $-1 $413 $417 #
straight-curve $-1 3.450000000000000178 0.8082575694955839163 0 0 0 -1 I I #
vertex $-1 $403 $418 #
straight-curve $-1 3.450000000000000178 1.049999999999999822 0 0 0 -1 I I #
pid_name-sg-attrib $-1 $-1 $-1 $276 7 114 119 105 108 115 111 110 815244532 18 1 #
face $419 $420 $325 $5 $-1 $421 reversed single #
loop $-1 $338 $422 $276 #
torus-surface $-1 9.849999999999999645 -5.650000000000000355 0 0 0 1 8 0.4500000000000000111 1 0 0 forward_v I I I I #
point $-1 2.955555555555560154 -0.3499999999999999778 0.3499999999999999778 #
coedge $-1 $330 $281 $423 $424 0 $283 $-1 #
face $425 $426 $283 $5 $-1 $427 forward single #
coedge $-1 $285 $428 $378 $429 0 $69 $-1 #
edge $-1 $310 $430 $285 $431 forward #
coedge $-1 $289 $287 $330 $398 1 $214 $-1 #
vertex $-1 $329 $432 #
straight-curve $-1 2.75 0.3499999999999999778 0 0 0 -1 I I #
coedge $-1 $423 $423 $289 $372 0 $433 $-1 #
edge $-1 $373 $434 $289 $435 forward #
vertex $-1 $424 $436 #
straight-curve $-1 -0.3500000000000011435 0.3499999999999999778 0.2999999999999872213 -0.9963466490417506316 0 -0.08540114134643932153 I I #
pid_name-sg-attrib $-1 $-1 $-1 $291 7 114 119 105 108 115 111 110 815244532 21 1 #
plane-surface $-1 0 0.3499999999999999778 0 0 -1 0 0 0 -1 forward_v I I I I #
pid_name-sg-attrib $-1 $-1 $-1 $297 7 114 119 105 108 115 111 110 815244532 11 1 #
coedge $-1 $406 $300 $366 $429 1 $224 $-1 #
coedge $-1 $304 $302 $300 $380 0 $116 $-1 #
edge $-1 $430 $407 $300 $437 forward #
edge $-1 $306 $307 $309 $438 forward #
straight-curve $-1 -0.3478069772687440997 0.4756381881290016045 0.3000000000000127565 0.9957397015835405263 -0.03477199659278116389 0.08540114134643224386 I I #
edge $-1 $407 $314 $312 $439 forward #
straight-curve $-1 -0.3478069772687460981 0.4756381881290058788 -0.2999999999999872213 -0.9957397015835399712 0.03477199659277993571 0.08540114134643932153 I I #
point $-1 -3.046162210220303201 0.5698668292257570434 -0.06857142857140624548 #
point $-1 -3.046162210220303201 0.5698668292257560442 0.06857142857145093195 #
point $-1 0.2351710051589371853 0.4552801483858799347 0.3499999999999999778 #
point $-1 0.2351710051591842376 0.4552801483858763265 -0.3499999999999999778 #
pid_name-sg-attrib $-1 $-1 $-1 $317 7 114 119 105 108 115 111 110 815244532 12 1 #
coedge $-1 $353 $320 $341 $403 0 $69 $-1 #
coedge $-1 $337 $336 $320 $392 0 $338 $-1 #
edge $-1 $404 $394 $391 $440 forward #
coedge $-1 $321 $323 $337 $401 0 $325 $-1 #
vertex $-1 $401 $441 #
straight-curve $-1 4.25 0.4500000000000001776 0.3499999999999999778 1 0 0 I I #
straight-curve $-1 4.25 0.4500000000000001776 -0.3499999999999999778 -1 0 0 I I #
straight-curve $-1 0 0.3499999999999999778 -0.3499999999999999778 1 0 0 I I #
edge $-1 $434 $331 $368 $442 forward #
point $-1 0.2333333333332096582 0.3499999999999999778 -0.3499999999999999778 #
intcurve-curve $-1 forward { exactcur nurbs 2 open 2 
	0.04390574233335247517 2 2.956528861273687969 2 
	2.955555555555548608 -0.3499999999999999778 -0.3499999999999999778 1.007709750566894158 
	0.505555555556577052 -0.3499999999999999778 -1.556602069463508542e-13 1.259637188208480696 
	2.955555555555560154 -0.3499999999999999778 0.3499999999999999778 1.007709750567156837 
	0 
	null_surface 
	null_surface 
	nullbs 
	nullbs 
	I I F 1 F 0 } I I #
edge $-1 $339 $394 $337 $443 forward #
point $-1 4.246832734697222556 0.4499999999999992895 -0.3499999999178809995 #
edge $-1 $404 $357 $341 $444 forward #
vertex $-1 $392 $445 #
intcurve-curve $-1 forward { surfintcur nubs 3 open 11 
	-0.4461410128109797313 3 -0.3221706999933959814 2 -0.2308785350332218655 2 -0.1395863700730473056 2 -0.0697931850365236528 2 
	0 3 0.06979318503652050254 2 0.1395863700730410051 2 0.2308785350332144826 2 0.3221706999933879878 2 
	0.4461410128116338747 3 
	4.980145443691989193 1.049999999999999822 -0.3499999999999999778 
	4.939377132055577491 1.049999999999999822 -0.3306297042533887787 
	4.900490629324888658 1.049999999999999822 -0.3076900307174333382 
	4.842729611201317397 1.049999999999999822 -0.2651186300318710276 
	4.817385425089783624 1.049999999999999822 -0.2433395409346115479 
	4.772426733549307798 1.049999999999999822 -0.1947451942392698643 
	4.752876970494742892 1.049999999999999822 -0.1678700780572017492 
	4.727196499844483313 1.049999999999999822 -0.1207141772503051991 
	4.717285869314435054 1.050000000000000711 -0.09721419635610781262 
	4.704152901538392051 1.050000000000000711 -0.04849474605891819501 
	4.700970965317830874 1.049999999999999822 -0.02326439501217455672 
	4.700970965317830874 1.049999999999999822 0 
	4.700970965317830874 1.049999999999999822 0.023264395012173502 
	4.704152901538389386 1.050000000000000711 0.04849474605891644641 
	4.717285869314432389 1.050000000000000711 0.09721419635610401011 
	4.727196499844481536 1.049999999999999822 0.1207141772502999533 
	4.752876970494740227 1.049999999999998934 0.1678700780571958096 
	4.772426733549304245 1.049999999999999822 0.1947451942392646185 
	4.817385425089778295 1.049999999999999822 0.2433395409346062743 
	4.842729611201312068 1.049999999999998934 0.2651186300318658096 
	4.900490629325059189 1.049999999999999822 0.3076900307175597371 
	4.939377132055358999 1.049999999999999822 0.3306297042532848063 
	4.980145443691989193 1.049999999999999822 0.3499999999999999778 
	0.001000000000000000021 
	torus 9.849999999999999645 -5.650000000000000355 0 0 0 1 8 -0.4500000000000000111 1 0 0 forward_v I I I I 
	plane 4.25 1.049999999999999822 0 0 1 0 0 0 -1 reverse_v I I I I 
	nullbs 
	nullbs 
	I I } I I #
coedge $-1 $344 $378 $346 $410 1 $224 $-1 #
vertex $-1 $383 $446 #
straight-curve $-1 0.02640945987968933151 1.162996943196497934 -0.3499999999999949818 0.9993908270190957621 -0.03489949670250104552 0 I I #
coedge $-1 $347 $346 $428 $447 1 $298 $-1 #
edge $-1 $348 $448 $346 $449 forward #
point $-1 3.074551482287930959 1.056553478253869693 -0.3499999999999949818 #
coedge $-1 $428 $353 $350 $413 1 $69 $-1 #
edge $-1 $414 $355 $412 $109 reversed #
vertex $-1 $413 $450 #
straight-curve $-1 3.066114793131687666 0.8149583107064524157 0 0 0 1 I I #
straight-curve $-1 3.450000000000000178 0.75 0.3499999999999999778 0 -1 0 I I #
point $-1 3.450000000000000178 0.8082575694955839163 0.3499999999999999778 #
point $-1 3.450000000000000178 1.049999999999999822 0.3499999999999999778 #
pid_name-sg-attrib $-1 $-1 $-1 $360 7 114 119 105 108 115 111 110 815244532 19 1 #
face $451 $291 $452 $5 $-1 $453 reversed single #
plane-surface $-1 7.75 0.4499999999999992895 0 0 1 0 0 0 1 forward_v I I I I #
coedge $-1 $422 $422 $454 $455 1 $361 $-1 #
coedge $-1 $371 $371 $364 $424 1 $433 $-1 #
edge $-1 $373 $434 $423 $456 forward #
pid_name-sg-attrib $-1 $-1 $-1 $365 7 114 119 105 108 115 111 110 815244532 22 1 #
face $457 $104 $433 $5 $-1 $458 reversed single #
cone-surface $-1 -0.3500000000000000888 0.3499999999999999778 -1.278976924368180366e-14 -1 0 -3.552713678800500929e-15 0 0.4500000000000000111 0 0.6666666666666666297 I I -0.127521742539526195 0.9918357753074259486 forward I I I I #
coedge $-1 $366 $412 $409 $447 0 $69 $-1 #
edge $-1 $448 $430 $378 $459 forward #
vertex $-1 $429 $460 #
intcurve-curve $-1 forward { exactcur nurbs 2 open 2 
	2.906029690159993795 2 5.775286403050602146 2 
	0.2351710051589371853 0.4552801483858799347 0.3499999999999999778 1.344897959183718239 
	0.2443321230433443403 0.7176202404783844635 0.3500000000000019207 1.344897959183718239 
	2.980164570847231964 1.059849541831323405 0.3500000000000049738 1.008673469387755262 
	0 
	null_surface 
	null_surface 
	nullbs 
	nullbs 
	I I F 1 F 0 } I I #
point $-1 2.75 0.3499999999999999778 -0.3499999999999999778 #
loop $-1 $-1 $423 $426 #
vertex $-1 $372 $461 #
straight-curve $-1 -3.049999999999999822 0.3499999999999999778 0 0 0 -1 I I #
point $-1 -3.049999999999999822 0.3499999999999999778 0.06857142857140624548 #
intcurve-curve $-1 forward { exactcur nurbs 2 open 2 
	0.04390574233335247517 2 2.956528861273687969 2 
	2.980164570847231964 1.059849541831323405 0.3500000000000049738 1.007709750566894158 
	0.5316570446514752302 1.145353308752417476 1.606340060966715757e-13 1.259637188208480696 
	2.98016457084724351 1.059849541831328068 -0.3499999999999949818 1.007709750567156837 
	0 
	null_surface 
	null_surface 
	nullbs 
	nullbs 
	I I F 1 F 0 } I I #
straight-curve $-1 -3.046162210220303201 0.5698668292257564882 0 -2.479758386364568815e-16 -7.101098923236973534e-15 1 I I #
intcurve-curve $-1 forward { exactcur nurbs 2 open 2 
	0.03677297726939005029 2 2.906029690159755319 2 
	2.98016457084724351 1.059849541831328068 -0.3499999999999949818 1.008673469387754595 
	0.2443321230435924474 0.7176202404783977862 -0.3499999999999980904 1.344897959183626091 
	0.2351710051591842376 0.4552801483858763265 -0.3499999999999999778 1.344897959183626091 
	0 
	null_surface 
	null_surface 
	nullbs 
	nullbs 
	I I F 1 F 0 } I I #
ellipse-curve $-1 9.849999999999999645 -5.650000000000000355 0.3499999999999999778 0 0 1 8.282842712474618452 0 0 1 I I #
point $-1 4.246832734697221667 0.4499999999999992895 0.3499999999178813326 #
straight-curve $-1 -0.3499999999999990341 0.3499999999999999778 -0.3000000000000127565 0.9963466490417511867 0 -0.08540114134643224386 I I #
intcurve-curve $-1 forward { surfintcur nubs 3 open 25 
	0.4235211892574475834 3 0.4385859903536890037 2 0.5524240093152297248 2 0.6963668337721540258 2 0.8403096582290783267 2 
	0.9898260554563672597 2 1.139342452683656193 2 1.265296951016526616 2 1.39125144934939704 2 1.485576070739877297 2 
	1.579900692130357553 2 1.650471386754170489 2 1.721042081377983424 2 1.791612776001796359 2 1.862183470625609072 2 
	1.956508092016090661 2 2.05083271340657225 2 2.176787211739442895 2 2.302741710072313097 2 2.452258107299603473 2 
	2.60177450452689385 2 2.745717328983816596 2 2.889660153440739343 2 3.003498172402279121 2 3.018562973498514435 3 
	4.246832734697222556 0.4499999999999992895 -0.3499999999178809995 
	4.251635225980687771 0.4499999999999992895 -0.3526254133790148182 
	4.256477833772507324 0.4499999999999992895 -0.3551960841537495361 
	4.298178662454682275 0.4499999999999992895 -0.3766973723066818769 
	4.336848757648303021 0.4499999999999992895 -0.3922491753211795884 
	4.418507604462543981 0.4499999999999992895 -0.4189937653582305188 
	4.469716717769872005 0.4499999999999992895 -0.4311254040582666036 
	4.573522979805486166 0.4499999999999992895 -0.4466057798792363864 
	4.626113340671347274 0.4499999999999992895 -0.4500000000000000666 
	4.723933081232751796 0.4499999999999992895 -0.4499999999999999001 
	4.778537861304402057 0.4499999999999992895 -0.4463308219138607535 
	4.886466943769260496 0.4499999999999992895 -0.4304465427978949599 
	4.939789966820209877 0.4499999999999992895 -0.418222750222154438 
	5.027558840314337196 0.4499999999999992895 -0.3912374910550064366 
	5.070738715788588813 0.4499999999999992895 -0.3750207672081414811 
	5.153582493852092661 0.4499999999999992895 -0.3355137820323680353 
	5.193220279402781969 0.4499999999999992895 -0.3121687781199895539 
	5.252599248086799122 0.4499999999999992895 -0.2689765292162058508 
	5.278996248965077243 0.4499999999999992895 -0.2467143460322075155 
	5.326076890804602115 0.4499999999999992895 -0.1970673128238889238 
	5.346692730071333166 0.4499999999999992895 -0.1696182098983743947 
	5.373624390807030693 0.4499999999999992895 -0.1217031970647592942 
	5.383976770379741872 0.4499999999999984013 -0.09807963184723342276 
	5.397753578615382075 0.4499999999999984013 -0.0489974241265898891 
	5.401123737391653634 0.4499999999999992895 -0.02352356487460111403 
	5.401123737391653634 0.4499999999999992895 0.02352356487460751516 
	5.397753578615380299 0.4499999999999992895 0.04899742412659636309 
	5.383976770379740096 0.4499999999999992895 0.09807963184723972327 
	5.373624390807028028 0.4499999999999992895 0.1217031970647650674 
	5.346692730071330502 0.4499999999999992895 0.1696182098983800013 
	5.326076890804597674 0.4499999999999992895 0.1970673128238943084 
	5.278996248965072802 0.4499999999999992895 0.2467143460322129001 
	5.252599248086792016 0.4499999999999992895 0.2689765292162107913 
	5.193220279402774864 0.4499999999999992895 0.3121687781199941059 
	5.153582493852084667 0.4499999999999992895 0.3355137820323738085 
	5.070738715788579931 0.4499999999999992895 0.3750207672081463661 
	5.027558840314329203 0.4499999999999992895 0.3912374910550097118 
	4.939789966820201883 0.4499999999999992895 0.418222750222157269 
	4.886466943769251614 0.4499999999999992895 0.4304465427978965697 
	4.778537861304391399 0.4499999999999992895 0.4463308219138616972 
	4.72393308123274025 0.4499999999999992895 0.4500000000000003997 
	4.626113340671336616 0.4499999999999992895 0.4499999999999996225 
	4.573522979805475508 0.4499999999999992895 0.4466057798792356648 
	4.469716717769862235 0.4499999999999992895 0.4311254040582651603 
	4.418507604462535099 0.4499999999999992895 0.4189937653582281873 
	4.336848757648295027 0.4499999999999992895 0.3922491753211765353 
	4.298178662454673393 0.4499999999999992895 0.3766973723066792124 
	4.256477833772501995 0.4499999999999992895 0.3551960841537477043 
	4.251635225980684218 0.4499999999999992895 0.352625413379013819 
	4.246832734697221667 0.4499999999999992895 0.3499999999178813326 
	0.001000000000000000021 
	torus 9.849999999999999645 -5.650000000000000355 0 0 0 1 8 -0.4500000000000000111 1 0 0 forward_v I I I I 
	plane 7.75 0.4499999999999992895 0 0 -1 0 0 0 1 reverse_v I I I I 
	nullbs 
	nullbs 
	I I } I I #
straight-curve $-1 4.25 1.049999999999999822 0.3499999999999999778 -1 0 0 I I #
point $-1 4.980145443691989193 1.049999999999999822 0.3499999999999999778 #
point $-1 2.98016457084724351 1.059849541831328068 -0.3499999999999949818 #
edge $-1 $414 $448 $409 $462 forward #
vertex $-1 $410 $463 #
straight-curve $-1 3.074551482287930959 1.056553478253867251 4.973799150320700986e-15 -2.479758386364568815e-16 -7.101098923236973534e-15 1 I I #
point $-1 3.066114793131687666 0.8149583107064500842 0.350000000000003253 #
pid_name-sg-attrib $-1 $-1 $-1 $420 7 114 119 105 108 115 111 110 815244532 20 1 #
loop $-1 $-1 $454 $420 #
plane-surface $-1 12.25 4.949999999999999289 0 -1 0 0 0 0 1 forward_v I I I I #
coedge $-1 $454 $454 $422 $455 0 $452 $-1 #
edge $-1 $464 $464 $422 $465 forward #
ellipse-curve $-1 -3.049999999999999822 0.3499999999999999778 -2.238209617644315522e-14 1 0 0 0 0.1028571428571428692 0 0.6666666666666666297 I I #
pid_name-sg-attrib $-1 $-1 $-1 $426 7 114 119 105 108 115 111 110 815244532 23 1 #
plane-surface $-1 -3.049999999999999822 0 0 1 0 0 0 0 -1 forward_v I I I I #
straight-curve $-1 0.02640945987968915804 1.162996943196492827 0.3500000000000049738 -0.9993908270190957621 0.03489949670250104552 0 I I #
point $-1 2.980164570847231964 1.059849541831323405 0.3500000000000049738 #
point $-1 -3.049999999999999822 0.3499999999999999778 -0.06857142857145093195 #
straight-curve $-1 3.062336658442055715 0.7067666887971811862 0.3500000000000024758 0.03489949670250104552 0.9993908270190957621 7.105427357601001859e-15 I I #
point $-1 3.074551482287930959 1.056553478253864586 0.3500000000000049738 #
vertex $-1 $455 $466 #
intcurve-curve $-1 forward { surfintcur nubs 3 periodic 33 
	0 3 0.08214656252099054867 2 0.1642931250419810973 2 0.2482356475682227503 2 0.3321781700944644311 2 
	0.4184713574694830518 2 0.504764544844501728 2 0.5932919842258077558 2 0.6818194236071137837 2 0.7705833428126167561 2 
	0.8593472620181198396 2 0.9461833983081247013 2 1.033019534598129674 2 1.117231273396827707 2 1.201443012195525961 2 
	1.283383940397512246 2 1.365324868599498531 2 1.447265796801485038 2 1.529206725003471323 2 1.613418463802169134 2 
	1.697630202600866944 2 1.784466338890871695 2 1.871302475180876446 2 1.960066394386379196 2 2.048830313591881946 2 
	2.13735775297318753 2 2.225885192354493558 2 2.312178379729513455 2 2.398471567104533353 2 2.482414089630774257 2 
	2.56635661215701516 2 2.64850317467800922 2 2.73064973719900328 3 
	12.25 2.45200592446092891 0 
	12.25 2.45200592446092891 0.02738218750699684956 
	12.25 2.44922540262538746 0.05727390374312066323 
	12.25 2.437274828688931194 0.1157566757571520943 
	12.25 2.428107416764955673 0.1443482710069981523 
	12.25 2.406479235776743053 0.195311853054592921 
	12.25 2.391922089803685481 0.2223131949102054861 
	12.25 2.357369748228283157 0.2725938139565335927 
	12.25 2.337380149629663784 0.2958769371232654599 
	12.25 2.296738190908556021 0.3354781122564902685 
	12.25 2.272233853021470296 0.3553319488771359835 
	12.25 2.219605894587574291 0.3894870507617239075 
	12.25 2.191486309059881066 0.4037945329910275216 
	12.25 2.137448539739594366 0.4256056589018047398 
	12.25 2.106479866320879246 0.4349917199350348818 
	12.25 2.043266593492503169 0.4471869113128320028 
	12.25 2.011022757796006033 0.4499999999999996225 
	12.25 1.951925638267068663 0.4500000000000003997 
	12.25 1.919597187264170834 0.4471718080354645797 
	12.25 1.856210299578374467 0.4349500549795677906 
	12.25 1.825152271227510781 0.4255543762105049588 
	12.25 1.770846345962539203 0.4037135942239362674 
	12.25 1.742525531786767168 0.389362189055307395 
	12.25 1.689488002154900137 0.3551049288610148014 
	12.25 1.664775501201065211 0.3351925493291750824 
	12.25 1.623824902114247237 0.2955205448112431244 
	12.25 1.603692149188497673 0.2722291408077039399 
	12.25 1.568862439318546187 0.2219035472841850709 
	12.25 1.554172869901518261 0.1948642453505816108 
	12.25 1.532409393639651896 0.1439352439418306318 
	12.25 1.523198646575795401 0.1154366270889297941 
	12.25 1.511185351823741918 0.05712622671469119728 
	12.25 1.508386689750699894 0.02731364273399863526 
	12.25 1.508386689750699894 -0.02731364273399231393 
	12.25 1.511185351823741918 -0.05712622671468498697 
	12.25 1.523198646575793624 -0.1154366270889240348 
	12.25 1.532409393639650119 -0.1439352439418248863 
	12.25 1.554172869901515597 -0.1948642453505760319 
	12.25 1.568862439318542634 -0.2219035472841796031 
	12.25 1.603692149188492344 -0.2722291408076983887 
	12.25 1.623824902114242796 -0.2955205448112382394 
	12.25 1.664775501201059882 -0.3351925493291706415 
	12.25 1.689488002154895696 -0.355104928861010527 
	12.25 1.742525531786760951 -0.3893621890553040643 
	12.25 1.770846345962532098 -0.4037135942239331032 
	12.25 1.825152271227503675 -0.4255543762105026273 
	12.25 1.856210299578367362 -0.4349500549795664028 
	12.25 1.919597187264163729 -0.447171808035463858 
	12.25 1.951925638267061558 -0.4499999999999997891 
	12.25 2.011022757795998039 -0.4500000000000002887 
	12.25 2.043266593492496064 -0.4471869113128329465 
	12.25 2.106479866320872141 -0.4349917199350368247 
	12.25 2.137448539739587261 -0.4256056589018067937 
	12.25 2.191486309059873072 -0.4037945329910305192 
	12.25 2.219605894587567185 -0.3894870507617282374 
	12.25 2.272233853021464078 -0.3553319488771412016 
	12.25 2.296738190908550692 -0.3354781122564949869 
	12.25 2.337380149629661119 -0.2958769371232707335 
	12.25 2.357369748228281381 -0.2725938139565368679 
	12.25 2.391922089803683704 -0.2223131949102094551 
	12.25 2.406479235776741277 -0.195311853054599277 
	12.25 2.428107416764953896 -0.1443482710070039809 
	12.25 2.437274828688929418 -0.1157566757571572846 
	12.25 2.449225402625389236 -0.05727390374312338328 
	12.25 2.45200592446092891 -0.02738218750699804999 
	12.25 2.45200592446092891 0 
	0.001000000000000000021 
	torus 9.849999999999999645 -5.650000000000000355 0 0 0 1 8 -0.4500000000000000111 1 0 0 forward_v I I I I 
	plane 12.25 4.949999999999999289 0 1 0 0 0 0 1 reverse_v I I I I 
	nullbs 
	nullbs 
	I I } I I #
point $-1 12.25 2.452005924460927133 0 #
End-of-ACIS-data 