600 0 1 0           
82 GICL ACIS Healer - Source: /gicl/data5/repository/CMU/Tools/part_rack106.sat - 6 0 18 ACIS 6.0.3 Solaris 24 Sat Apr 13 00:32:37 2002 
1 9.999999999999999547e-07 1.000000000000000036e-10 
body $-1 $1 $-1 $-1 #
lump $-1 $-1 $2 $0 #
shell $-1 $-1 $-1 $3 $-1 $1 #
face $-1 $4 $5 $2 $-1 $6 forward single #
face $-1 $7 $8 $2 $-1 $6 forward single #
loop $-1 $-1 $9 $3 #
plane-surface $-1 0 0 10 0 0 1 1 0 0 forward_v I I I I #
face $-1 $10 $11 $2 $-1 $6 forward single #
loop $-1 $-1 $12 $4 #
coedge $-1 $13 $14 $15 $16 reversed $5 $-1 #
face $-1 $17 $18 $2 $-1 $19 reversed single #
loop $-1 $-1 $20 $7 #
coedge $-1 $21 $22 $23 $24 reversed $8 $-1 #
coedge $-1 $25 $9 $26 $27 forward $5 $-1 #
coedge $-1 $9 $25 $28 $29 forward $5 $-1 #
coedge $-1 $30 $31 $9 $16 forward $32 $-1 #
edge $-1 $33 -150 $34 150 $15 $35 forward 7 unknown #
face $-1 $36 $37 $2 $-1 $38 reversed single #
loop $-1 $-1 $39 $10 #
plane-surface $-1 0 0 0 0 0 1 1 0 0 forward_v I I I I #
coedge $-1 $40 $41 $42 $43 reversed $11 $-1 #
coedge $-1 $44 $12 $45 $46 forward $8 $-1 #
coedge $-1 $12 $44 $47 $48 forward $8 $-1 #
coedge $-1 $49 $50 $12 $24 forward $51 $-1 #
edge $-1 $52 -150 $53 150 $23 $54 forward 7 unknown #
coedge $-1 $14 $13 $55 $56 reversed $5 $-1 #
coedge $-1 $57 $58 $13 $27 reversed $59 $-1 #
edge $-1 $33 155 $60 445 $26 $61 forward 7 unknown #
coedge $-1 $62 $63 $14 $29 reversed $64 $-1 #
edge $-1 $65 -445 $34 -155 $28 $66 forward 7 unknown #
coedge $-1 $67 $15 $63 $68 reversed $32 $-1 #
coedge $-1 $15 $67 $57 $69 forward $32 $-1 #
loop $-1 $-1 $15 $70 #
vertex $-1 $69 $71 #
vertex $-1 $29 $72 #
straight-curve $-1 -155 0 10 0 -1 0 I I #
face $-1 $70 $51 $2 $-1 $73 reversed single #
loop $-1 $-1 $74 $17 #
plane-surface $-1 455 0 255 -1 0 0 0 0 1 forward_v I I I I #
coedge $-1 $75 $76 $77 $78 forward $18 $-1 #
coedge $-1 $79 $20 $80 $81 forward $11 $-1 #
coedge $-1 $20 $79 $82 $83 forward $11 $-1 #
coedge $-1 $84 $85 $20 $43 forward $86 $-1 #
edge $-1 $87 -150 $88 150 $42 $89 forward 7 unknown #
coedge $-1 $22 $21 $90 $91 reversed $8 $-1 #
coedge $-1 $92 $93 $21 $46 reversed $94 $-1 #
edge $-1 $52 -145 $95 145 $45 $61 forward 7 unknown #
coedge $-1 $96 $97 $22 $48 reversed $98 $-1 #
edge $-1 $99 -145 $53 145 $47 $66 forward 7 unknown #
coedge $-1 $100 $23 $97 $101 reversed $51 $-1 #
coedge $-1 $23 $100 $92 $102 forward $51 $-1 #
loop $-1 $-1 $23 $36 #
vertex $-1 $102 $103 #
vertex $-1 $48 $104 #
straight-curve $-1 145 0 10 0 -1 0 I I #
coedge $-1 $105 $106 $25 $56 forward $107 $-1 #
edge $-1 $65 -150 $60 150 $55 $108 forward 7 unknown #
coedge $-1 $109 $26 $31 $69 reversed $59 $-1 #
coedge $-1 $26 $109 $105 $110 forward $59 $-1 #
loop $-1 $111 $57 $112 #
vertex $-1 $27 $113 #
straight-curve $-1 0 150 10 -1 0 0 I I #
coedge $-1 $114 $28 $106 $115 reversed $64 $-1 #
coedge $-1 $28 $114 $30 $68 forward $64 $-1 #
loop $-1 $116 $28 $117 #
vertex $-1 $115 $118 #
straight-curve $-1 0 -150 10 1 0 0 I I #
coedge $-1 $31 $30 $119 $120 forward $32 $-1 #
edge $-1 $121 155 $34 245 $30 $122 forward 7 unknown #
edge $-1 $123 155 $33 245 $57 $124 forward 7 unknown #
face $-1 $125 $32 $2 $-1 $126 reversed single #
point $-1 -155 150 10 #
point $-1 -155 -150 10 #
plane-surface $-1 145 0 255 1 0 0 0 0 -1 forward_v I I I I #
coedge $-1 $127 $77 $128 $129 reversed $37 $-1 #
coedge $-1 $130 $39 $131 $132 forward $18 $-1 #
coedge $-1 $39 $130 $133 $134 forward $18 $-1 #
coedge $-1 $74 $135 $39 $78 reversed $37 $-1 #
edge $-1 $136 -150 $137 150 $77 $138 forward 7 unknown #
coedge $-1 $41 $40 $139 $140 reversed $11 $-1 #
coedge $-1 $141 $142 $40 $81 reversed $143 $-1 #
edge $-1 $87 -445 $144 -155 $80 $61 forward 7 unknown #
coedge $-1 $145 $146 $41 $83 reversed $147 $-1 #
edge $-1 $148 155 $88 445 $82 $66 forward 7 unknown #
coedge $-1 $149 $42 $146 $150 reversed $86 $-1 #
coedge $-1 $42 $149 $141 $151 forward $86 $-1 #
loop $-1 $-1 $42 $152 #
vertex $-1 $151 $153 #
vertex $-1 $83 $154 #
straight-curve $-1 445 0 10 0 -1 0 I I #
coedge $-1 $155 $156 $44 $91 forward $157 $-1 #
edge $-1 $99 -150 $95 150 $90 $158 forward 7 unknown #
coedge $-1 $159 $45 $50 $102 reversed $94 $-1 #
coedge $-1 $45 $159 $155 $160 forward $94 $-1 #
loop $-1 $59 $92 $112 #
vertex $-1 $46 $161 #
coedge $-1 $162 $47 $156 $163 reversed $98 $-1 #
coedge $-1 $47 $162 $49 $101 forward $98 $-1 #
loop $-1 $64 $47 $117 #
vertex $-1 $163 $164 #
coedge $-1 $50 $49 $165 $166 forward $51 $-1 #
edge $-1 $167 155 $53 245 $49 $168 forward 7 unknown #
edge $-1 $169 155 $52 245 $92 $170 forward 7 unknown #
point $-1 145 150 10 #
point $-1 145 -150 10 #
coedge $-1 $171 $55 $58 $110 reversed $107 $-1 #
coedge $-1 $55 $171 $62 $115 forward $107 $-1 #
loop $-1 $-1 $55 $125 #
straight-curve $-1 -445 0 10 0 1 0 I I #
coedge $-1 $58 $57 $172 $173 reversed $59 $-1 #
edge $-1 $174 155 $60 245 $105 $175 forward 7 unknown #
loop $-1 $176 $177 $112 #
face $-1 $178 $143 $2 $-1 $179 reversed single #
point $-1 -445 150 10 #
coedge $-1 $63 $62 $180 $181 reversed $64 $-1 #
edge $-1 $182 155 $65 245 $106 $183 forward 7 unknown #
loop $-1 $184 $185 $117 #
face $-1 $186 $187 $2 $-1 $188 reversed single #
point $-1 -445 -150 10 #
coedge $-1 $180 $172 $67 $120 reversed $189 $-1 #
edge $-1 $121 -150 $123 150 $67 $190 forward 7 unknown #
vertex $-1 $68 $191 #
straight-curve $-1 -155 -150 255 0 0 -1 I I #
vertex $-1 $69 $192 #
straight-curve $-1 -155 150 255 0 0 -1 I I #
face $-1 $112 $107 $2 $-1 $193 reversed single #
plane-surface $-1 -155 0 255 1 0 0 0 0 -1 forward_v I I I I #
coedge $-1 $135 $74 $194 $195 reversed $37 $-1 #
coedge $-1 $133 $196 $74 $129 forward $197 $-1 #
edge $-1 $198 -5 $136 505 $74 $199 forward 7 unknown #
coedge $-1 $76 $75 $200 $201 forward $18 $-1 #
coedge $-1 $202 $203 $75 $132 reversed $187 $-1 #
edge $-1 $137 -455 $204 455 $131 $205 forward 7 unknown #
coedge $-1 $206 $128 $76 $134 reversed $197 $-1 #
edge $-1 $207 -455 $136 455 $133 $208 forward 7 unknown #
coedge $-1 $77 $127 $202 $209 forward $37 $-1 #
vertex $-1 $78 $210 #
vertex $-1 $209 $211 #
straight-curve $-1 455 0 0 0 -1 0 I I #
coedge $-1 $212 $213 $79 $140 forward $214 $-1 #
edge $-1 $148 -150 $144 150 $139 $215 forward 7 unknown #
coedge $-1 $216 $80 $85 $151 reversed $143 $-1 #
coedge $-1 $80 $216 $212 $217 forward $143 $-1 #
loop $-1 $94 $141 $112 #
vertex $-1 $81 $218 #
coedge $-1 $219 $82 $213 $220 reversed $147 $-1 #
coedge $-1 $82 $219 $84 $150 forward $147 $-1 #
loop $-1 $98 $82 $117 #
vertex $-1 $220 $221 #
coedge $-1 $85 $84 $222 $223 forward $86 $-1 #
edge $-1 $224 155 $88 245 $84 $225 forward 7 unknown #
edge $-1 $226 155 $87 245 $141 $227 forward 7 unknown #
face $-1 $228 $86 $2 $-1 $229 reversed single #
point $-1 445 150 10 #
point $-1 445 -150 10 #
coedge $-1 $230 $90 $93 $160 reversed $157 $-1 #
coedge $-1 $90 $230 $96 $163 forward $157 $-1 #
loop $-1 $-1 $90 $231 #
straight-curve $-1 -145 0 10 0 1 0 I I #
coedge $-1 $93 $92 $232 $233 reversed $94 $-1 #
edge $-1 $234 155 $95 245 $155 $235 forward 7 unknown #
point $-1 -145 150 10 #
coedge $-1 $97 $96 $236 $237 reversed $98 $-1 #
edge $-1 $238 155 $99 245 $156 $239 forward 7 unknown #
point $-1 -145 -150 10 #
coedge $-1 $236 $232 $100 $166 reversed $240 $-1 #
edge $-1 $167 -150 $169 150 $100 $241 forward 7 unknown #
vertex $-1 $101 $242 #
straight-curve $-1 145 -150 255 0 0 -1 I I #
vertex $-1 $102 $243 #
straight-curve $-1 145 150 255 0 0 -1 I I #
coedge $-1 $106 $105 $244 $245 forward $107 $-1 #
coedge $-1 $119 $244 $109 $173 forward $189 $-1 #
edge $-1 $174 -445 $123 -155 $109 $246 forward 7 unknown #
vertex $-1 $110 $247 #
straight-curve $-1 -445 150 255 0 0 -1 I I #
loop $-1 $248 $249 $112 #
coedge $-1 $250 $251 $252 $253 reversed $111 $-1 #
face $-1 $254 $255 $2 $-1 $256 forward single #
plane-surface $-1 -450 150 255 0 -1 0 0 0 -1 forward_v I I I I #
coedge $-1 $244 $119 $114 $181 forward $189 $-1 #
edge $-1 $121 155 $182 445 $114 $257 forward 7 unknown #
vertex $-1 $115 $258 #
straight-curve $-1 -445 -150 255 0 0 -1 I I #
loop $-1 $259 $260 $117 #
coedge $-1 $261 $262 $263 $264 reversed $116 $-1 #
face $-1 $265 $266 $2 $-1 $193 reversed single #
loop $-1 $147 $202 $117 #
plane-surface $-1 -450 -150 255 0 1 0 0 0 1 forward_v I I I I #
loop $-1 $-1 $119 $267 #
straight-curve $-1 -155 0 100 0 1 0 I I #
point $-1 -155 -150 100 #
point $-1 -155 150 100 #
plane-surface $-1 -445 0 255 -1 0 0 0 0 1 forward_v I I I I #
coedge $-1 $268 $269 $127 $195 forward $270 $-1 #
edge $-1 $271 -150 $198 150 $127 $272 forward 7 unknown #
coedge $-1 $128 $206 $268 $273 reversed $197 $-1 #
loop $-1 $-1 $128 $112 #
vertex $-1 $195 $274 #
straight-curve $-1 455 150 505 0 0 -1 I I #
coedge $-1 $275 $276 $130 $201 reversed $277 $-1 #
edge $-1 $204 -150 $207 150 $200 $278 forward 7 unknown #
coedge $-1 $279 $131 $135 $209 reversed $187 $-1 #
coedge $-1 $131 $279 $275 $280 forward $187 $-1 #
vertex $-1 $201 $281 #
straight-curve $-1 0 -150 0 -1 0 0 I I #
coedge $-1 $196 $133 $276 $282 reversed $197 $-1 #
vertex $-1 $134 $283 #
straight-curve $-1 0 150 0 1 0 0 I I #
edge $-1 $271 -255 $137 255 $135 $284 forward 7 unknown #
point $-1 455 150 0 #
point $-1 455 -150 0 #
coedge $-1 $285 $139 $142 $217 reversed $214 $-1 #
coedge $-1 $139 $285 $145 $220 forward $214 $-1 #
loop $-1 $-1 $139 $228 #
straight-curve $-1 155 0 10 0 1 0 I I #
coedge $-1 $142 $141 $286 $287 reversed $143 $-1 #
edge $-1 $288 155 $144 245 $212 $289 forward 7 unknown #
point $-1 155 150 10 #
coedge $-1 $146 $145 $290 $291 reversed $147 $-1 #
edge $-1 $292 155 $148 245 $213 $293 forward 7 unknown #
point $-1 155 -150 10 #
coedge $-1 $290 $286 $149 $223 reversed $294 $-1 #
edge $-1 $224 -150 $226 150 $149 $295 forward 7 unknown #
vertex $-1 $150 $296 #
straight-curve $-1 445 -150 255 0 0 -1 I I #
vertex $-1 $151 $297 #
straight-curve $-1 445 150 255 0 0 -1 I I #
face $-1 $231 $214 $2 $-1 $298 reversed single #
plane-surface $-1 445 0 255 1 0 0 0 0 -1 forward_v I I I I #
coedge $-1 $156 $155 $299 $300 forward $157 $-1 #
face $-1 $301 $157 $2 $-1 $302 reversed single #
coedge $-1 $165 $299 $159 $233 forward $240 $-1 #
edge $-1 $234 -145 $169 145 $159 $246 forward 7 unknown #
vertex $-1 $160 $303 #
straight-curve $-1 -145 150 255 0 0 -1 I I #
coedge $-1 $299 $165 $162 $237 forward $240 $-1 #
edge $-1 $167 -145 $238 145 $162 $257 forward 7 unknown #
vertex $-1 $163 $304 #
straight-curve $-1 -145 -150 255 0 0 -1 I I #
loop $-1 $-1 $165 $305 #
straight-curve $-1 145 0 100 0 1 0 I I #
point $-1 145 -150 100 #
point $-1 145 150 100 #
coedge $-1 $172 $180 $171 $245 reversed $189 $-1 #
edge $-1 $174 -150 $182 150 $171 $306 forward 7 unknown #
straight-curve $-1 0 150 100 1 0 0 I I #
point $-1 -445 150 100 #
loop $-1 $307 $308 $112 #
coedge $-1 $309 $310 $311 $312 reversed $176 $-1 #
coedge $-1 $313 $177 $314 $315 reversed $111 $-1 #
coedge $-1 $177 $313 $316 $317 reversed $111 $-1 #
coedge $-1 $318 $319 $177 $253 forward $320 $-1 #
edge $-1 $321 -45 $322 45 $177 $227 forward 7 unknown #
face $-1 $323 $324 $2 $-1 $256 forward single #
loop $-1 $-1 $325 $178 #
plane-surface $-1 0 0 110 0 0 1 1 0 0 forward_v I I I I #
straight-curve $-1 0 -150 100 -1 0 0 I I #
point $-1 -445 -150 100 #
loop $-1 $326 $327 $117 #
coedge $-1 $328 $329 $330 $331 reversed $184 $-1 #
coedge $-1 $332 $185 $333 $334 reversed $116 $-1 #
coedge $-1 $185 $332 $335 $336 forward $116 $-1 #
coedge $-1 $337 $338 $185 $264 forward $339 $-1 #
edge $-1 $340 155 $341 445 $185 $342 forward 7 unknown #
face $-1 $343 $344 $2 $-1 $193 reversed single #
loop $-1 $-1 $345 $186 #
face $-1 $305 $189 $2 $-1 $346 reversed single #
coedge $-1 $347 $194 $196 $273 forward $270 $-1 #
coedge $-1 $194 $347 $279 $348 forward $270 $-1 #
loop $-1 $-1 $194 $349 #
vertex $-1 $195 $350 #
straight-curve $-1 455 0 510 0 1 0 I I #
edge $-1 $198 -455 $351 455 $196 $352 forward 7 unknown #
point $-1 455 150 510 #
coedge $-1 $353 $200 $203 $280 reversed $277 $-1 #
coedge $-1 $200 $353 $206 $282 forward $277 $-1 #
loop $-1 $-1 $275 $354 #
straight-curve $-1 -455 0 0 0 1 0 I I #
coedge $-1 $203 $202 $269 $348 reversed $187 $-1 #
edge $-1 $355 -5 $204 505 $275 $356 forward 7 unknown #
point $-1 -455 -150 0 #
edge $-1 $351 -255 $207 255 $206 $357 forward 7 unknown #
point $-1 -455 150 0 #
straight-curve $-1 455 -150 255 0 0 -1 I I #
coedge $-1 $213 $212 $358 $359 forward $214 $-1 #
coedge $-1 $222 $358 $216 $287 forward $294 $-1 #
edge $-1 $288 155 $226 445 $216 $246 forward 7 unknown #
vertex $-1 $217 $360 #
straight-curve $-1 155 150 255 0 0 -1 I I #
coedge $-1 $358 $222 $219 $291 forward $294 $-1 #
edge $-1 $224 -445 $292 -155 $219 $257 forward 7 unknown #
vertex $-1 $220 $361 #
straight-curve $-1 155 -150 255 0 0 -1 I I #
loop $-1 $-1 $222 $362 #
straight-curve $-1 445 0 100 0 1 0 I I #
point $-1 445 -150 100 #
point $-1 445 150 100 #
plane-surface $-1 155 0 255 -1 0 0 0 0 1 forward_v I I I I #
coedge $-1 $232 $236 $230 $300 reversed $240 $-1 #
edge $-1 $234 -150 $238 150 $230 $363 forward 7 unknown #
face $-1 $364 $365 $2 $-1 $366 forward single #
plane-surface $-1 -145 0 255 -1 0 0 0 0 1 forward_v I I I I #
point $-1 -145 150 100 #
point $-1 -145 -150 100 #
face $-1 $362 $240 $2 $-1 $346 reversed single #
straight-curve $-1 -445 0 100 0 -1 0 I I #
loop $-1 $367 $368 $112 #
coedge $-1 $369 $370 $371 $372 reversed $248 $-1 #
coedge $-1 $373 $249 $374 $375 reversed $176 $-1 #
coedge $-1 $249 $373 $376 $377 reversed $176 $-1 #
coedge $-1 $378 $379 $249 $312 forward $380 $-1 #
edge $-1 $381 -45 $382 45 $249 $170 forward 7 unknown #
coedge $-1 $251 $250 $383 $384 forward $111 $-1 #
coedge $-1 $385 $386 $250 $315 forward $387 $-1 #
edge $-1 $388 155 $321 445 $250 $389 forward 7 unknown #
coedge $-1 $390 $391 $251 $317 forward $392 $-1 #
edge $-1 $322 -445 $393 -155 $251 $394 forward 7 unknown #
coedge $-1 $395 $252 $391 $396 forward $320 $-1 #
coedge $-1 $252 $395 $385 $397 forward $320 $-1 #
loop $-1 $-1 $318 $398 #
vertex $-1 $253 $399 #
vertex $-1 $253 $400 #
face $-1 $267 $339 $2 $-1 $256 forward single #
loop $-1 $-1 $401 $254 #
coedge $-1 $402 $403 $404 $405 reversed $255 $-1 #
loop $-1 $406 $407 $117 #
coedge $-1 $408 $409 $403 $410 reversed $259 $-1 #
coedge $-1 $411 $260 $412 $413 reversed $184 $-1 #
coedge $-1 $260 $411 $414 $415 forward $184 $-1 #
coedge $-1 $401 $416 $260 $331 forward $324 $-1 #
edge $-1 $417 -145 $418 145 $260 $342 forward 7 unknown #
coedge $-1 $262 $261 $419 $420 reversed $116 $-1 #
coedge $-1 $421 $422 $261 $334 forward $423 $-1 #
edge $-1 $424 55 $340 145 $333 $293 forward 7 unknown #
coedge $-1 $425 $426 $262 $336 reversed $427 $-1 #
edge $-1 $428 55 $341 145 $335 $225 forward 7 unknown #
coedge $-1 $429 $263 $426 $430 reversed $339 $-1 #
coedge $-1 $263 $429 $421 $431 reversed $339 $-1 #
loop $-1 $-1 $337 $323 #
vertex $-1 $334 $432 #
vertex $-1 $264 $433 #
straight-curve $-1 0 -150 110 1 0 0 I I #
face $-1 $434 $435 $2 $-1 $436 reversed single #
loop $-1 $-1 $437 $265 #
coedge $-1 $438 $439 $440 $441 forward $266 $-1 #
plane-surface $-1 0 0 100 0 0 1 1 0 0 forward_v I I I I #
coedge $-1 $269 $268 $353 $442 forward $270 $-1 #
edge $-1 $355 -455 $271 455 $279 $443 forward 7 unknown #
face $-1 $444 $270 $2 $-1 $445 forward single #
point $-1 455 -150 510 #
vertex $-1 $273 $446 #
straight-curve $-1 0 150 510 -1 0 0 I I #
coedge $-1 $276 $275 $347 $442 reversed $277 $-1 #
face $-1 $447 $277 $2 $-1 $448 reversed single #
vertex $-1 $442 $449 #
straight-curve $-1 -455 -150 505 0 0 -1 I I #
straight-curve $-1 -455 150 255 0 0 -1 I I #
coedge $-1 $286 $290 $285 $359 reversed $294 $-1 #
edge $-1 $288 -150 $292 150 $285 $450 forward 7 unknown #
point $-1 155 150 100 #
point $-1 155 -150 100 #
face $-1 $152 $294 $2 $-1 $346 reversed single #
straight-curve $-1 -145 0 100 0 -1 0 I I #
face $-1 $451 $452 $2 $-1 $366 forward single #
loop $-1 $-1 $453 $301 #
plane-surface $-1 0 0 210 0 0 1 1 0 0 forward_v I I I I #
loop $-1 $454 $455 $112 #
coedge $-1 $456 $457 $458 $459 reversed $307 $-1 #
coedge $-1 $460 $308 $461 $462 reversed $248 $-1 #
coedge $-1 $308 $460 $463 $464 reversed $248 $-1 #
coedge $-1 $465 $466 $308 $372 forward $467 $-1 #
edge $-1 $468 -45 $469 45 $308 $124 forward 7 unknown #
coedge $-1 $310 $309 $470 $471 forward $176 $-1 #
coedge $-1 $472 $473 $309 $375 forward $474 $-1 #
edge $-1 $475 -145 $381 145 $309 $389 forward 7 unknown #
coedge $-1 $476 $477 $310 $377 forward $452 $-1 #
edge $-1 $382 -145 $478 145 $310 $394 forward 7 unknown #
coedge $-1 $479 $311 $477 $480 forward $380 $-1 #
coedge $-1 $311 $479 $472 $481 forward $380 $-1 #
loop $-1 $-1 $378 $482 #
vertex $-1 $312 $483 #
vertex $-1 $312 $484 #
coedge $-1 $485 $486 $313 $384 reversed $487 $-1 #
edge $-1 $388 -45 $393 45 $383 $289 forward 7 unknown #
coedge $-1 $488 $314 $319 $397 reversed $387 $-1 #
coedge $-1 $314 $488 $485 $489 reversed $387 $-1 #
loop $-1 $-1 $385 $490 #
vertex $-1 $384 $491 #
straight-curve $-1 0 150 300 1 0 0 I I #
coedge $-1 $492 $316 $486 $493 reversed $392 $-1 #
coedge $-1 $316 $492 $318 $396 reversed $392 $-1 #
loop $-1 $-1 $391 $451 #
vertex $-1 $317 $494 #
straight-curve $-1 0 150 210 -1 0 0 I I #
coedge $-1 $319 $318 $495 $496 reversed $320 $-1 #
edge $-1 $322 -150 $497 150 $318 $498 forward 7 unknown #
edge $-1 $499 -150 $321 150 $319 $500 forward 7 unknown #
face $-1 $482 $320 $2 $-1 $229 reversed single #
point $-1 445 150 300 #
point $-1 445 150 210 #
coedge $-1 $501 $330 $502 $503 reversed $324 $-1 #
coedge $-1 $504 $325 $505 $506 forward $255 $-1 #
coedge $-1 $325 $504 $327 $410 forward $255 $-1 #
coedge $-1 $507 $508 $325 $405 forward $509 $-1 #
edge $-1 $510 -150 $511 150 $404 $512 forward 7 unknown #
loop $-1 $513 $514 $117 #
coedge $-1 $515 $495 $492 $516 reversed $326 $-1 #
coedge $-1 $517 $327 $518 $519 reversed $259 $-1 #
coedge $-1 $327 $517 $507 $520 forward $259 $-1 #
edge $-1 $521 -445 $511 -155 $327 $342 forward 7 unknown #
coedge $-1 $329 $328 $522 $523 reversed $184 $-1 #
coedge $-1 $524 $525 $328 $413 forward $526 $-1 #
edge $-1 $527 55 $417 145 $412 $239 forward 7 unknown #
coedge $-1 $528 $502 $329 $415 reversed $529 $-1 #
edge $-1 $530 55 $418 145 $414 $168 forward 7 unknown #
coedge $-1 $330 $501 $524 $531 reversed $324 $-1 #
vertex $-1 $413 $532 #
vertex $-1 $331 $533 #
coedge $-1 $534 $535 $332 $420 forward $536 $-1 #
edge $-1 $428 -445 $424 -155 $332 $537 forward 7 unknown #
coedge $-1 $538 $333 $338 $431 forward $423 $-1 #
coedge $-1 $333 $538 $534 $539 forward $423 $-1 #
loop $-1 $-1 $421 $540 #
vertex $-1 $334 $541 #
coedge $-1 $542 $335 $535 $543 forward $427 $-1 #
coedge $-1 $335 $542 $337 $430 forward $427 $-1 #
loop $-1 $-1 $426 $544 #
vertex $-1 $336 $545 #
coedge $-1 $338 $337 $546 $547 forward $339 $-1 #
edge $-1 $548 -150 $341 150 $426 $549 forward 7 unknown #
edge $-1 $340 -150 $550 150 $421 $551 forward 7 unknown #
point $-1 155 -150 110 #
point $-1 445 -150 110 #
face $-1 $349 $552 $2 $-1 $436 reversed single #
loop $-1 $-1 $553 $343 #
plane-surface $-1 0 0 500 0 0 1 1 0 0 forward_v I I I I #
coedge $-1 $554 $555 $556 $557 forward $344 $-1 #
coedge $-1 $558 $345 $559 $560 reversed $266 $-1 #
coedge $-1 $345 $558 $561 $562 forward $266 $-1 #
coedge $-1 $563 $564 $345 $441 reversed $565 $-1 #
edge $-1 $566 -150 $567 150 $345 $568 forward 7 unknown #
edge $-1 $351 -150 $355 150 $353 $569 forward 7 unknown #
straight-curve $-1 0 -150 510 1 0 0 I I #
face $-1 $570 $571 $2 $-1 $436 reversed single #
plane-surface $-1 0 0 510 0 0 1 1 0 0 forward_v I I I I #
point $-1 -455 150 510 #
face $-1 $572 $573 $2 $-1 $193 reversed single #
plane-surface $-1 -455 0 255 1 0 0 0 0 -1 forward_v I I I I #
point $-1 -455 -150 510 #
straight-curve $-1 155 0 100 0 -1 0 I I #
face $-1 $574 $392 $2 $-1 $366 forward single #
loop $-1 $-1 $477 $364 #
coedge $-1 $463 $575 $465 $576 reversed $365 $-1 #
loop $-1 $577 $578 $112 #
coedge $-1 $579 $580 $581 $582 reversed $367 $-1 #
coedge $-1 $583 $368 $584 $585 reversed $307 $-1 #
coedge $-1 $368 $583 $586 $587 reversed $307 $-1 #
coedge $-1 $588 $589 $368 $459 forward $590 $-1 #
edge $-1 $591 -245 $592 -155 $368 $227 forward 7 unknown #
coedge $-1 $370 $369 $593 $594 forward $248 $-1 #
coedge $-1 $595 $596 $369 $462 forward $597 $-1 #
edge $-1 $598 -445 $468 -155 $369 $389 forward 7 unknown #
coedge $-1 $599 $453 $370 $464 forward $365 $-1 #
edge $-1 $469 155 $600 445 $370 $394 forward 7 unknown #
coedge $-1 $601 $371 $453 $576 forward $467 $-1 #
coedge $-1 $371 $601 $595 $602 forward $467 $-1 #
loop $-1 $-1 $465 $603 #
vertex $-1 $372 $604 #
vertex $-1 $372 $605 #
coedge $-1 $606 $607 $373 $471 reversed $608 $-1 #
edge $-1 $475 -45 $478 45 $470 $235 forward 7 unknown #
coedge $-1 $609 $374 $379 $481 reversed $474 $-1 #
coedge $-1 $374 $609 $606 $610 reversed $474 $-1 #
loop $-1 $-1 $472 $611 #
vertex $-1 $471 $612 #
coedge $-1 $613 $376 $607 $614 reversed $452 $-1 #
coedge $-1 $376 $613 $378 $480 reversed $452 $-1 #
vertex $-1 $377 $615 #
coedge $-1 $379 $378 $616 $617 reversed $380 $-1 #
edge $-1 $382 -150 $618 150 $378 $619 forward 7 unknown #
edge $-1 $620 -150 $381 150 $379 $621 forward 7 unknown #
face $-1 $622 $380 $2 $-1 $73 reversed single #
point $-1 145 150 300 #
point $-1 145 150 210 #
coedge $-1 $623 $383 $386 $489 forward $487 $-1 #
coedge $-1 $383 $623 $390 $493 forward $487 $-1 #
loop $-1 $-1 $486 $622 #
coedge $-1 $386 $385 $624 $625 forward $387 $-1 #
edge $-1 $388 -150 $626 150 $485 $627 forward 7 unknown #
face $-1 $398 $387 $2 $-1 $628 reversed single #
point $-1 155 150 300 #
coedge $-1 $391 $390 $407 $516 forward $392 $-1 #
edge $-1 $629 -150 $393 150 $486 $630 forward 7 unknown #
point $-1 155 150 210 #
coedge $-1 $407 $624 $395 $496 forward $326 $-1 #
edge $-1 $499 -45 $497 45 $395 $225 forward 7 unknown #
vertex $-1 $516 $631 #
straight-curve $-1 445 0 210 0 -1 0 I I #
vertex $-1 $496 $632 #
straight-curve $-1 445 0 300 0 1 0 I I #
coedge $-1 $416 $401 $633 $634 forward $324 $-1 #
coedge $-1 $414 $635 $401 $503 forward $529 $-1 #
edge $-1 $636 -150 $418 150 $502 $637 forward 7 unknown #
coedge $-1 $403 $402 $638 $639 reversed $255 $-1 #
coedge $-1 $640 $641 $402 $506 reversed $642 $-1 #
edge $-1 $510 155 $643 445 $505 $644 forward 7 unknown #
coedge $-1 $645 $404 $409 $520 reversed $509 $-1 #
coedge $-1 $404 $645 $640 $646 forward $509 $-1 #
loop $-1 $-1 $404 $647 #
vertex $-1 $646 $648 #
vertex $-1 $410 $649 #
straight-curve $-1 -155 0 110 0 -1 0 I I #
loop $-1 $650 $651 $117 #
coedge $-1 $652 $616 $613 $653 reversed $406 $-1 #
coedge $-1 $624 $407 $623 $654 reversed $326 $-1 #
edge $-1 $629 155 $497 445 $407 $655 forward 7 unknown #
coedge $-1 $409 $408 $656 $657 reversed $259 $-1 #
coedge $-1 $638 $658 $408 $519 forward $659 $-1 #
edge $-1 $660 55 $521 145 $518 $183 forward 7 unknown #
edge $-1 $661 55 $511 145 $507 $122 forward 7 unknown #
vertex $-1 $519 $662 #
coedge $-1 $663 $664 $411 $523 forward $665 $-1 #
edge $-1 $530 -145 $527 145 $411 $537 forward 7 unknown #
coedge $-1 $666 $412 $416 $531 forward $526 $-1 #
coedge $-1 $412 $666 $663 $667 forward $526 $-1 #
loop $-1 $-1 $524 $668 #
vertex $-1 $413 $669 #
coedge $-1 $635 $414 $664 $670 forward $529 $-1 #
loop $-1 $-1 $502 $671 #
vertex $-1 $415 $672 #
edge $-1 $417 -150 $673 150 $524 $674 forward 7 unknown #
point $-1 -145 -150 110 #
point $-1 145 -150 110 #
coedge $-1 $675 $419 $422 $539 reversed $536 $-1 #
coedge $-1 $419 $675 $425 $543 reversed $536 $-1 #
loop $-1 $-1 $535 $676 #
straight-curve $-1 0 -150 200 -1 0 0 I I #
coedge $-1 $422 $421 $677 $678 reversed $423 $-1 #
edge $-1 $679 -150 $424 150 $422 $680 forward 7 unknown #
face $-1 $647 $423 $2 $-1 $298 reversed single #
point $-1 155 -150 200 #
coedge $-1 $426 $425 $681 $682 forward $427 $-1 #
edge $-1 $428 -150 $683 150 $425 $684 forward 7 unknown #
face $-1 $671 $427 $2 $-1 $229 reversed single #
point $-1 445 -150 200 #
coedge $-1 $681 $677 $429 $547 reversed $685 $-1 #
edge $-1 $548 -445 $550 -155 $546 $644 forward 7 unknown #
vertex $-1 $682 $686 #
straight-curve $-1 445 0 110 0 -1 0 I I #
vertex $-1 $547 $687 #
straight-curve $-1 155 0 110 0 1 0 I I #
loop $-1 $-1 $688 $434 #
coedge $-1 $689 $690 $691 $692 reversed $435 $-1 #
coedge $-1 $693 $437 $694 $695 reversed $344 $-1 #
coedge $-1 $437 $693 $696 $697 forward $344 $-1 #
coedge $-1 $698 $699 $437 $557 reversed $700 $-1 #
edge $-1 $701 -150 $702 150 $437 $703 forward 7 unknown #
coedge $-1 $439 $438 $704 $705 forward $266 $-1 #
coedge $-1 $706 $707 $438 $560 forward $577 $-1 #
edge $-1 $708 -145 $567 -55 $438 $175 forward 7 unknown #
coedge $-1 $709 $710 $439 $562 reversed $711 $-1 #
edge $-1 $712 -145 $566 -55 $439 $183 forward 7 unknown #
coedge $-1 $713 $440 $710 $714 forward $565 $-1 #
coedge $-1 $440 $713 $706 $715 forward $565 $-1 #
loop $-1 $-1 $713 $716 #
vertex $-1 $562 $717 #
vertex $-1 $715 $718 #
straight-curve $-1 -445 0 310 0 1 0 I I #
straight-curve $-1 -455 0 510 0 -1 0 I I #
face $-1 $719 $590 $2 $-1 $229 reversed single #
loop $-1 $-1 $720 $444 #
face $-1 $721 $700 $2 $-1 $722 forward single #
loop $-1 $-1 $723 $447 #
face $-1 $724 $725 $2 $-1 $726 reversed single #
coedge $-1 $453 $599 $651 $727 forward $365 $-1 #
edge $-1 $469 -150 $728 150 $465 $729 forward 7 unknown #
loop $-1 $730 $731 $112 #
coedge $-1 $732 $733 $734 $735 reversed $454 $-1 #
coedge $-1 $736 $455 $689 $737 reversed $367 $-1 #
coedge $-1 $455 $736 $738 $739 reversed $367 $-1 #
coedge $-1 $740 $741 $455 $582 forward $742 $-1 #
edge $-1 $743 -245 $744 -155 $455 $170 forward 7 unknown #
coedge $-1 $457 $456 $745 $746 forward $307 $-1 #
coedge $-1 $747 $688 $456 $585 forward $552 $-1 #
edge $-1 $748 155 $591 445 $456 $749 forward 7 unknown #
coedge $-1 $750 $751 $457 $587 forward $752 $-1 #
edge $-1 $592 -445 $753 -155 $457 $754 forward 7 unknown #
coedge $-1 $755 $458 $751 $756 forward $590 $-1 #
coedge $-1 $458 $755 $747 $757 forward $590 $-1 #
loop $-1 $-1 $588 $570 #
vertex $-1 $459 $758 #
vertex $-1 $459 $759 #
coedge $-1 $760 $723 $460 $594 reversed $573 $-1 #
edge $-1 $598 -45 $600 45 $593 $175 forward 7 unknown #
coedge $-1 $761 $461 $466 $602 reversed $597 $-1 #
coedge $-1 $461 $761 $760 $762 reversed $597 $-1 #
loop $-1 $-1 $595 $763 #
vertex $-1 $594 $764 #
coedge $-1 $575 $463 $723 $765 reversed $365 $-1 #
vertex $-1 $464 $766 #
coedge $-1 $466 $465 $767 $768 reversed $467 $-1 #
edge $-1 $769 -150 $468 150 $466 $770 forward 7 unknown #
face $-1 $771 $467 $2 $-1 $126 reversed single #
point $-1 -155 150 300 #
point $-1 -155 150 210 #
coedge $-1 $772 $470 $473 $610 forward $608 $-1 #
coedge $-1 $470 $772 $476 $614 forward $608 $-1 #
loop $-1 $-1 $607 $771 #
coedge $-1 $473 $472 $773 $774 forward $474 $-1 #
edge $-1 $475 -150 $775 150 $606 $776 forward 7 unknown #
face $-1 $490 $474 $2 $-1 $628 reversed single #
point $-1 -145 150 300 #
coedge $-1 $477 $476 $514 $653 forward $452 $-1 #
edge $-1 $777 -150 $478 150 $607 $778 forward 7 unknown #
point $-1 -145 150 210 #
coedge $-1 $514 $773 $479 $617 forward $406 $-1 #
edge $-1 $620 -45 $618 45 $479 $168 forward 7 unknown #
vertex $-1 $653 $779 #
straight-curve $-1 145 0 210 0 -1 0 I I #
vertex $-1 $617 $780 #
straight-curve $-1 145 0 300 0 1 0 I I #
face $-1 $603 $487 $2 $-1 $298 reversed single #
coedge $-1 $486 $485 $515 $654 forward $487 $-1 #
coedge $-1 $495 $515 $488 $625 reversed $326 $-1 #
edge $-1 $499 -445 $626 -155 $624 $781 forward 7 unknown #
vertex $-1 $654 $782 #
straight-curve $-1 155 0 300 0 -1 0 I I #
plane-surface $-1 0 0 300 0 0 1 1 0 0 forward_v I I I I #
vertex $-1 $654 $783 #
straight-curve $-1 155 0 210 0 1 0 I I #
point $-1 445 -150 210 #
point $-1 445 -150 300 #
coedge $-1 $784 $785 $501 $634 reversed $786 $-1 #
edge $-1 $636 -145 $673 145 $633 $644 forward 7 unknown #
coedge $-1 $502 $528 $784 $787 forward $529 $-1 #
vertex $-1 $787 $788 #
straight-curve $-1 145 0 110 0 -1 0 I I #
coedge $-1 $789 $518 $504 $639 forward $659 $-1 #
edge $-1 $521 -150 $643 150 $638 $790 forward 7 unknown #
coedge $-1 $791 $505 $508 $646 reversed $642 $-1 #
coedge $-1 $505 $791 $789 $792 forward $642 $-1 #
loop $-1 $786 $640 $112 #
vertex $-1 $506 $793 #
straight-curve $-1 0 150 110 -1 0 0 I I #
coedge $-1 $508 $507 $794 $795 forward $509 $-1 #
edge $-1 $796 55 $510 145 $640 $124 forward 7 unknown #
face $-1 $668 $509 $2 $-1 $126 reversed single #
point $-1 -155 150 110 #
point $-1 -155 -150 110 #
loop $-1 $797 $798 $117 #
coedge $-1 $799 $767 $575 $727 reversed $513 $-1 #
coedge $-1 $773 $514 $772 $800 reversed $406 $-1 #
edge $-1 $777 -145 $618 145 $514 $655 forward 7 unknown #
edge $-1 $626 -45 $629 45 $623 $293 forward 7 unknown #
straight-curve $-1 0 -150 210 1 0 0 I I #
coedge $-1 $801 $794 $517 $657 forward $725 $-1 #
edge $-1 $661 155 $660 445 $517 $537 forward 7 unknown #
coedge $-1 $518 $789 $801 $802 forward $659 $-1 #
loop $-1 $-1 $638 $803 #
vertex $-1 $519 $804 #
vertex $-1 $520 $805 #
point $-1 -445 -150 110 #
coedge $-1 $806 $522 $525 $667 reversed $665 $-1 #
coedge $-1 $522 $806 $528 $670 reversed $665 $-1 #
loop $-1 $-1 $664 $724 #
coedge $-1 $525 $524 $785 $807 reversed $526 $-1 #
edge $-1 $808 -150 $527 150 $525 $809 forward 7 unknown #
face $-1 $803 $526 $2 $-1 $302 reversed single #
point $-1 -145 -150 200 #
edge $-1 $530 -150 $810 150 $528 $811 forward 7 unknown #
face $-1 $540 $529 $2 $-1 $73 reversed single #
point $-1 145 -150 200 #
vertex $-1 $634 $812 #
straight-curve $-1 -145 0 110 0 1 0 I I #
coedge $-1 $535 $534 $813 $814 forward $536 $-1 #
face $-1 $544 $536 $2 $-1 $726 reversed single #
coedge $-1 $546 $813 $538 $678 forward $685 $-1 #
edge $-1 $679 55 $550 145 $538 $289 forward 7 unknown #
vertex $-1 $678 $815 #
straight-curve $-1 155 0 200 0 -1 0 I I #
coedge $-1 $813 $546 $542 $682 reversed $685 $-1 #
edge $-1 $683 55 $548 145 $681 $227 forward 7 unknown #
vertex $-1 $682 $816 #
straight-curve $-1 445 0 200 0 1 0 I I #
loop $-1 $197 $681 $112 #
point $-1 445 150 110 #
point $-1 155 150 110 #
coedge $-1 $584 $817 $818 $819 reversed $552 $-1 #
coedge $-1 $820 $553 $579 $737 forward $435 $-1 #
coedge $-1 $553 $820 $821 $822 forward $435 $-1 #
coedge $-1 $823 $824 $553 $692 forward $825 $-1 #
edge $-1 $826 -150 $827 150 $691 $828 forward 7 unknown #
coedge $-1 $555 $554 $720 $829 forward $344 $-1 #
coedge $-1 $733 $732 $554 $695 forward $454 $-1 #
edge $-1 $830 -245 $702 -155 $554 $175 forward 7 unknown #
coedge $-1 $831 $832 $555 $697 reversed $833 $-1 #
edge $-1 $834 -245 $701 -155 $555 $183 forward 7 unknown #
coedge $-1 $835 $556 $832 $836 forward $700 $-1 #
coedge $-1 $556 $835 $733 $837 forward $700 $-1 #
loop $-1 $-1 $835 $572 #
vertex $-1 $697 $838 #
vertex $-1 $837 $839 #
straight-curve $-1 -445 0 410 0 1 0 I I #
coedge $-1 $840 $841 $558 $705 reversed $842 $-1 #
edge $-1 $708 -150 $712 150 $558 $843 forward 7 unknown #
coedge $-1 $731 $559 $564 $715 reversed $577 $-1 #
coedge $-1 $559 $731 $840 $844 reversed $577 $-1 #
vertex $-1 $560 $845 #
coedge $-1 $846 $561 $841 $847 reversed $711 $-1 #
coedge $-1 $561 $846 $563 $714 reversed $711 $-1 #
loop $-1 $848 $710 $117 #
vertex $-1 $562 $849 #
coedge $-1 $564 $563 $850 $851 reversed $565 $-1 #
edge $-1 $566 -445 $852 -155 $710 $853 forward 7 unknown #
edge $-1 $854 155 $567 445 $706 $855 forward 7 unknown #
face $-1 $856 $565 $2 $-1 $857 forward single #
point $-1 -445 -150 310 #
point $-1 -445 150 310 #
face $-1 $858 $742 $2 $-1 $73 reversed single #
coedge $-1 $859 $860 $693 $829 reversed $571 $-1 #
face $-1 $861 $862 $2 $-1 $722 forward single #
plane-surface $-1 0 0 410 0 0 1 1 0 0 forward_v I I I I #
coedge $-1 $593 $863 $599 $765 forward $573 $-1 #
face $-1 $676 $665 $2 $-1 $726 reversed single #
loop $-1 $-1 $794 $574 #
plane-surface $-1 0 0 200 0 0 1 1 0 0 forward_v I I I I #
edge $-1 $864 -445 $728 -155 $651 $655 forward 7 unknown #
vertex $-1 $727 $865 #
straight-curve $-1 -155 0 210 0 -1 0 I I #
loop $-1 $866 $867 $112 #
coedge $-1 $707 $706 $868 $869 reversed $577 $-1 #
coedge $-1 $694 $578 $859 $870 reversed $454 $-1 #
coedge $-1 $578 $694 $699 $837 reversed $454 $-1 #
coedge $-1 $871 $872 $578 $735 forward $873 $-1 #
edge $-1 $874 -245 $875 -155 $578 $124 forward 7 unknown #
coedge $-1 $580 $579 $824 $876 forward $367 $-1 #
edge $-1 $826 -145 $743 145 $579 $749 forward 7 unknown #
coedge $-1 $877 $878 $580 $739 forward $862 $-1 #
edge $-1 $744 -145 $879 145 $580 $754 forward 7 unknown #
coedge $-1 $880 $581 $878 $881 forward $742 $-1 #
coedge $-1 $581 $880 $820 $882 forward $742 $-1 #
loop $-1 $-1 $740 $719 #
vertex $-1 $582 $883 #
vertex $-1 $582 $884 #
coedge $-1 $818 $885 $583 $746 reversed $886 $-1 #
edge $-1 $748 -245 $753 -155 $745 $289 forward 7 unknown #
coedge $-1 $817 $584 $589 $757 reversed $552 $-1 #
vertex $-1 $746 $887 #
straight-curve $-1 0 150 500 1 0 0 I I #
coedge $-1 $888 $586 $885 $889 reversed $752 $-1 #
coedge $-1 $586 $888 $588 $756 reversed $752 $-1 #
loop $-1 $-1 $751 $861 #
vertex $-1 $587 $890 #
straight-curve $-1 0 150 410 -1 0 0 I I #
coedge $-1 $589 $588 $891 $892 reversed $590 $-1 #
edge $-1 $592 -150 $893 150 $588 $894 forward 7 unknown #
edge $-1 $895 -150 $591 150 $589 $896 forward 7 unknown #
point $-1 445 150 500 #
point $-1 445 150 410 #
coedge $-1 $863 $593 $596 $762 forward $573 $-1 #
coedge $-1 $596 $595 $897 $898 forward $597 $-1 #
edge $-1 $598 -150 $899 150 $760 $900 forward 7 unknown #
face $-1 $611 $597 $2 $-1 $628 reversed single #
point $-1 -445 150 300 #
edge $-1 $864 -150 $600 150 $723 $901 forward 7 unknown #
point $-1 -445 150 210 #
coedge $-1 $651 $897 $601 $768 forward $513 $-1 #
edge $-1 $769 -45 $728 45 $601 $122 forward 7 unknown #
vertex $-1 $768 $902 #
straight-curve $-1 -155 0 300 0 1 0 I I #
face $-1 $354 $608 $2 $-1 $302 reversed single #
coedge $-1 $607 $606 $652 $800 forward $608 $-1 #
coedge $-1 $616 $652 $609 $774 reversed $406 $-1 #
edge $-1 $620 -145 $775 145 $773 $781 forward 7 unknown #
vertex $-1 $800 $903 #
straight-curve $-1 -145 0 300 0 -1 0 I I #
vertex $-1 $800 $904 #
straight-curve $-1 -145 0 210 0 1 0 I I #
point $-1 145 -150 210 #
point $-1 145 -150 300 #
straight-curve $-1 0 -150 300 -1 0 0 I I #
point $-1 155 -150 300 #
point $-1 155 -150 210 #
coedge $-1 $905 $633 $635 $787 reversed $786 $-1 #
coedge $-1 $633 $905 $666 $807 forward $786 $-1 #
loop $-1 $685 $784 $112 #
edge $-1 $810 55 $636 145 $784 $170 forward 7 unknown #
point $-1 145 150 110 #
coedge $-1 $658 $638 $641 $792 reversed $659 $-1 #
straight-curve $-1 -445 0 110 0 1 0 I I #
coedge $-1 $641 $640 $906 $907 reversed $642 $-1 #
edge $-1 $908 55 $643 145 $789 $175 forward 7 unknown #
point $-1 -445 150 110 #
coedge $-1 $656 $906 $645 $795 reversed $725 $-1 #
edge $-1 $661 -150 $796 150 $645 $909 forward 7 unknown #
vertex $-1 $646 $910 #
loop $-1 $711 $911 $117 #
coedge $-1 $912 $913 $914 $915 reversed $650 $-1 #
coedge $-1 $897 $651 $863 $916 reversed $513 $-1 #
edge $-1 $775 -45 $777 45 $772 $239 forward 7 unknown #
coedge $-1 $906 $656 $658 $802 reversed $725 $-1 #
edge $-1 $908 -150 $660 150 $658 $917 forward 7 unknown #
face $-1 $716 $659 $2 $-1 $193 reversed single #
point $-1 -445 -150 200 #
point $-1 -155 -150 200 #
coedge $-1 $664 $663 $905 $918 forward $665 $-1 #
edge $-1 $808 55 $673 145 $666 $235 forward 7 unknown #
vertex $-1 $807 $919 #
straight-curve $-1 -145 0 200 0 -1 0 I I #
vertex $-1 $787 $920 #
straight-curve $-1 145 0 200 0 1 0 I I #
point $-1 -145 150 110 #
coedge $-1 $677 $681 $675 $814 reversed $685 $-1 #
edge $-1 $679 155 $683 445 $813 $921 forward 7 unknown #
point $-1 155 150 200 #
point $-1 445 150 200 #
coedge $-1 $688 $747 $922 $923 forward $552 $-1 #
coedge $-1 $924 $745 $688 $819 forward $886 $-1 #
edge $-1 $748 -150 $925 150 $818 $926 forward 7 unknown #
coedge $-1 $690 $689 $741 $882 reversed $435 $-1 #
coedge $-1 $927 $928 $690 $822 reversed $929 $-1 #
edge $-1 $930 -145 $827 145 $821 $931 forward 7 unknown #
coedge $-1 $932 $691 $928 $933 forward $825 $-1 #
coedge $-1 $691 $932 $736 $876 reversed $825 $-1 #
loop $-1 $-1 $932 $934 #
vertex $-1 $876 $935 #
vertex $-1 $933 $936 #
straight-curve $-1 -145 0 500 0 -1 0 I I #
edge $-1 $830 -150 $834 150 $693 $937 forward 7 unknown #
vertex $-1 $695 $938 #
coedge $-1 $939 $696 $860 $940 reversed $833 $-1 #
coedge $-1 $696 $939 $698 $836 reversed $833 $-1 #
loop $-1 $-1 $832 $117 #
vertex $-1 $697 $941 #
coedge $-1 $699 $698 $871 $942 reversed $700 $-1 #
edge $-1 $701 -445 $943 -155 $832 $944 forward 7 unknown #
edge $-1 $875 155 $702 445 $733 $754 forward 7 unknown #
point $-1 -445 -150 410 #
point $-1 -445 150 410 #
coedge $-1 $945 $704 $707 $844 forward $842 $-1 #
coedge $-1 $704 $945 $709 $847 forward $842 $-1 #
loop $-1 $-1 $945 $946 #
straight-curve $-1 -445 0 400 0 -1 0 I I #
edge $-1 $708 -445 $947 -155 $707 $948 forward 7 unknown #
point $-1 -445 150 400 #
coedge $-1 $710 $709 $949 $950 forward $711 $-1 #
edge $-1 $951 155 $712 445 $709 $952 forward 7 unknown #
loop $-1 $929 $953 $117 #
point $-1 -445 -150 400 #
coedge $-1 $949 $868 $713 $851 forward $954 $-1 #
edge $-1 $854 -150 $852 150 $850 $955 forward 7 unknown #
vertex $-1 $714 $956 #
straight-curve $-1 0 -150 310 1 0 0 I I #
vertex $-1 $869 $957 #
straight-curve $-1 0 150 310 -1 0 0 I I #
face $-1 $958 $959 $2 $-1 $857 forward single #
plane-surface $-1 0 0 310 0 0 1 1 0 0 forward_v I I I I #
face $-1 $960 $886 $2 $-1 $298 reversed single #
coedge $-1 $961 $720 $732 $870 forward $571 $-1 #
coedge $-1 $720 $961 $831 $940 forward $571 $-1 #
face $-1 $946 $752 $2 $-1 $722 forward single #
loop $-1 $-1 $878 $721 #
coedge $-1 $723 $760 $799 $916 forward $573 $-1 #
vertex $-1 $916 $962 #
point $-1 -155 -150 210 #
loop $-1 $642 $963 $112 #
coedge $-1 $964 $965 $966 $967 reversed $730 $-1 #
coedge $-1 $850 $968 $731 $869 forward $954 $-1 #
edge $-1 $947 -145 $854 -55 $731 $124 forward 7 unknown #
edge $-1 $830 -445 $874 -155 $732 $749 forward 7 unknown #
coedge $-1 $969 $734 $835 $942 forward $873 $-1 #
coedge $-1 $734 $969 $961 $970 forward $873 $-1 #
loop $-1 $-1 $871 $960 #
vertex $-1 $735 $971 #
vertex $-1 $735 $972 #
edge $-1 $826 -245 $879 -155 $824 $235 forward 7 unknown #
coedge $-1 $973 $738 $932 $974 reversed $862 $-1 #
coedge $-1 $738 $973 $740 $881 reversed $862 $-1 #
vertex $-1 $739 $975 #
coedge $-1 $741 $740 $927 $976 reversed $742 $-1 #
edge $-1 $744 -150 $977 150 $740 $978 forward 7 unknown #
edge $-1 $930 -150 $743 150 $741 $979 forward 7 unknown #
point $-1 145 150 500 #
point $-1 145 150 410 #
coedge $-1 $745 $924 $750 $889 forward $886 $-1 #
loop $-1 $-1 $885 $858 #
point $-1 155 150 500 #
coedge $-1 $751 $750 $953 $980 forward $752 $-1 #
edge $-1 $981 -150 $753 150 $885 $982 forward 7 unknown #
point $-1 155 150 410 #
coedge $-1 $953 $922 $755 $892 forward $848 $-1 #
edge $-1 $895 -245 $893 -155 $755 $225 forward 7 unknown #
vertex $-1 $980 $983 #
straight-curve $-1 445 0 410 0 -1 0 I I #
vertex $-1 $892 $984 #
straight-curve $-1 445 0 500 0 1 0 I I #
coedge $-1 $767 $799 $761 $898 reversed $513 $-1 #
edge $-1 $769 155 $899 445 $897 $781 forward 7 unknown #
vertex $-1 $916 $985 #
straight-curve $-1 -445 0 300 0 -1 0 I I #
straight-curve $-1 -445 0 210 0 1 0 I I #
point $-1 -155 -150 300 #
point $-1 -145 -150 300 #
point $-1 -145 -150 210 #
coedge $-1 $785 $784 $806 $918 reversed $786 $-1 #
coedge $-1 $794 $801 $791 $907 forward $725 $-1 #
edge $-1 $908 -445 $796 -155 $791 $921 forward 7 unknown #
vertex $-1 $792 $986 #
straight-curve $-1 -155 0 200 0 1 0 I I #
point $-1 -155 150 200 #
coedge $-1 $987 $988 $989 $990 reversed $797 $-1 #
coedge $-1 $991 $798 $992 $993 reversed $650 $-1 #
coedge $-1 $798 $991 $994 $995 forward $650 $-1 #
coedge $-1 $996 $997 $798 $915 forward $998 $-1 #
edge $-1 $999 155 $1000 445 $798 $853 forward 7 unknown #
edge $-1 $899 -45 $864 45 $863 $183 forward 7 unknown #
straight-curve $-1 -445 0 200 0 -1 0 I I #
edge $-1 $808 -145 $810 145 $905 $921 forward 7 unknown #
point $-1 -145 150 200 #
point $-1 145 150 200 #
straight-curve $-1 0 150 200 1 0 0 I I #
coedge $-1 $891 $1001 $817 $923 reversed $848 $-1 #
edge $-1 $895 -445 $925 -155 $922 $931 forward 7 unknown #
coedge $-1 $885 $818 $1001 $1002 forward $886 $-1 #
vertex $-1 $1002 $1003 #
straight-curve $-1 155 0 500 0 -1 0 I I #
coedge $-1 $1004 $821 $880 $976 forward $929 $-1 #
coedge $-1 $821 $1004 $823 $933 reversed $929 $-1 #
loop $-1 $833 $1004 $117 #
vertex $-1 $976 $1005 #
straight-curve $-1 0 -150 500 -1 0 0 I I #
coedge $-1 $824 $823 $877 $974 forward $825 $-1 #
edge $-1 $827 -245 $1006 -155 $823 $239 forward 7 unknown #
face $-1 $-1 $825 $2 $-1 $302 reversed single #
point $-1 -145 150 500 #
point $-1 -145 -150 500 #
straight-curve $-1 -445 0 500 0 -1 0 I I #
point $-1 -445 150 500 #
coedge $-1 $832 $831 $969 $1007 forward $833 $-1 #
edge $-1 $1008 155 $834 445 $831 $931 forward 7 unknown #
point $-1 -445 -150 500 #
edge $-1 $875 -150 $943 150 $871 $1009 forward 7 unknown #
vertex $-1 $836 $1010 #
straight-curve $-1 0 -150 410 1 0 0 I I #
coedge $-1 $841 $840 $968 $1011 reversed $842 $-1 #
face $-1 $1012 $842 $2 $-1 $1013 reversed single #
vertex $-1 $869 $1014 #
straight-curve $-1 0 150 400 1 0 0 I I #
coedge $-1 $968 $850 $846 $950 reversed $954 $-1 #
edge $-1 $951 -145 $852 -55 $949 $122 forward 7 unknown #
vertex $-1 $950 $1015 #
straight-curve $-1 0 -150 400 -1 0 0 I I #
coedge $-1 $1001 $891 $888 $980 reversed $848 $-1 #
loop $-1 $-1 $850 $1016 #
straight-curve $-1 -155 0 310 0 -1 0 I I #
point $-1 -155 -150 310 #
point $-1 -155 150 310 #
face $-1 $763 $998 $2 $-1 $857 forward single #
loop $-1 $-1 $1017 $856 #
face $-1 $934 $873 $2 $-1 $126 reversed single #
coedge $-1 $860 $859 $872 $970 reversed $571 $-1 #
point $-1 -445 -150 210 #
coedge $-1 $1018 $1019 $1020 $1021 reversed $866 $-1 #
coedge $-1 $1022 $867 $1023 $1024 reversed $730 $-1 #
coedge $-1 $867 $1022 $1025 $1026 reversed $730 $-1 #
coedge $-1 $1027 $1028 $867 $967 forward $1029 $-1 #
edge $-1 $1030 -145 $1031 -55 $867 $170 forward 7 unknown #
coedge $-1 $868 $949 $945 $1011 forward $954 $-1 #
coedge $-1 $872 $871 $939 $1007 reversed $873 $-1 #
edge $-1 $1008 -150 $874 150 $872 $1032 forward 7 unknown #
point $-1 -155 150 500 #
point $-1 -155 150 410 #
coedge $-1 $878 $877 $1004 $1033 forward $862 $-1 #
edge $-1 $1006 -150 $879 150 $932 $1034 forward 7 unknown #
point $-1 -145 150 410 #
edge $-1 $930 -245 $977 -155 $880 $168 forward 7 unknown #
vertex $-1 $1033 $1035 #
straight-curve $-1 145 0 410 0 -1 0 I I #
straight-curve $-1 145 0 500 0 1 0 I I #
edge $-1 $981 155 $893 445 $953 $944 forward 7 unknown #
vertex $-1 $1002 $1036 #
straight-curve $-1 155 0 410 0 1 0 I I #
point $-1 445 -150 410 #
point $-1 445 -150 500 #
point $-1 -445 -150 300 #
point $-1 -445 150 200 #
coedge $-1 $1037 $911 $1038 $1039 reversed $797 $-1 #
coedge $-1 $911 $1037 $1040 $1041 forward $797 $-1 #
coedge $-1 $1017 $1042 $911 $990 forward $959 $-1 #
edge $-1 $1043 -145 $1044 145 $911 $853 forward 7 unknown #
coedge $-1 $913 $912 $1045 $1046 reversed $650 $-1 #
coedge $-1 $1047 $1048 $912 $993 forward $1049 $-1 #
edge $-1 $1050 -145 $999 -55 $992 $293 forward 7 unknown #
coedge $-1 $1051 $1052 $913 $995 reversed $1053 $-1 #
edge $-1 $1054 -145 $1000 -55 $994 $225 forward 7 unknown #
coedge $-1 $1055 $914 $1052 $1056 reversed $998 $-1 #
coedge $-1 $914 $1055 $1047 $1057 reversed $998 $-1 #
loop $-1 $-1 $996 $958 #
vertex $-1 $993 $1058 #
vertex $-1 $915 $1059 #
coedge $-1 $922 $953 $924 $1002 reversed $848 $-1 #
edge $-1 $925 -245 $981 -155 $924 $293 forward 7 unknown #
point $-1 155 -150 500 #
coedge $-1 $928 $927 $973 $1033 reversed $929 $-1 #
point $-1 145 -150 500 #
vertex $-1 $933 $1060 #
edge $-1 $1008 -245 $943 -155 $969 $122 forward 7 unknown #
vertex $-1 $1007 $1061 #
straight-curve $-1 -155 0 410 0 -1 0 I I #
point $-1 -155 -150 410 #
edge $-1 $951 -150 $947 150 $968 $1062 forward 7 unknown #
face $-1 $1063 $1064 $2 $-1 $1013 reversed single #
plane-surface $-1 0 0 400 0 0 1 1 0 0 forward_v I I I I #
point $-1 -155 150 400 #
point $-1 -155 -150 400 #
face $-1 $1065 $954 $2 $-1 $126 reversed single #
coedge $-1 $1025 $989 $1027 $1066 reversed $959 $-1 #
coedge $-1 $1067 $963 $1068 $1069 reversed $866 $-1 #
coedge $-1 $963 $1067 $1055 $1070 reversed $866 $-1 #
coedge $-1 $1052 $1051 $963 $1021 forward $1053 $-1 #
edge $-1 $1071 -145 $1072 -55 $963 $227 forward 7 unknown #
coedge $-1 $965 $964 $1073 $1074 forward $730 $-1 #
coedge $-1 $1075 $1076 $964 $1024 forward $1064 $-1 #
edge $-1 $1077 -145 $1030 145 $964 $948 forward 7 unknown #
coedge $-1 $1042 $1017 $965 $1026 forward $959 $-1 #
edge $-1 $1031 -145 $1078 145 $965 $855 forward 7 unknown #
coedge $-1 $1040 $966 $1017 $1066 forward $1029 $-1 #
coedge $-1 $966 $1040 $1075 $1079 forward $1029 $-1 #
loop $-1 $-1 $1027 $1080 #
vertex $-1 $967 $1081 #
vertex $-1 $967 $1082 #
straight-curve $-1 -155 0 500 0 1 0 I I #
edge $-1 $1006 -145 $977 145 $1004 $944 forward 7 unknown #
straight-curve $-1 -145 0 410 0 1 0 I I #
point $-1 145 -150 410 #
point $-1 155 -150 410 #
coedge $-1 $988 $987 $1083 $1084 reversed $797 $-1 #
coedge $-1 $1085 $1086 $987 $1039 forward $1087 $-1 #
edge $-1 $1088 -145 $1043 -55 $1038 $239 forward 7 unknown #
coedge $-1 $1028 $1027 $988 $1041 reversed $1029 $-1 #
edge $-1 $1089 -145 $1044 -55 $1040 $168 forward 7 unknown #
coedge $-1 $989 $1025 $1085 $1090 reversed $959 $-1 #
vertex $-1 $1039 $1091 #
vertex $-1 $990 $1092 #
coedge $-1 $1093 $1094 $991 $1046 forward $1095 $-1 #
edge $-1 $1054 -445 $1050 -155 $991 $952 forward 7 unknown #
coedge $-1 $1096 $992 $997 $1057 forward $1049 $-1 #
coedge $-1 $992 $1096 $1093 $1097 forward $1049 $-1 #
loop $-1 $-1 $1047 $1098 #
vertex $-1 $993 $1099 #
coedge $-1 $1020 $994 $1094 $1100 forward $1053 $-1 #
coedge $-1 $994 $1020 $996 $1056 forward $1053 $-1 #
loop $-1 $-1 $1052 $1101 #
vertex $-1 $995 $1102 #
coedge $-1 $997 $996 $1019 $1070 forward $998 $-1 #
edge $-1 $1072 -150 $1000 150 $1052 $1103 forward 7 unknown #
edge $-1 $999 -150 $1104 150 $1047 $1105 forward 7 unknown #
point $-1 155 -150 310 #
point $-1 445 -150 310 #
point $-1 -145 -150 410 #
point $-1 -155 -150 500 #
straight-curve $-1 -155 0 400 0 1 0 I I #
face $-1 $1101 $1095 $2 $-1 $1013 reversed single #
loop $-1 $-1 $1075 $1012 #
face $-1 $117 $1087 $2 $-1 $302 reversed single #
edge $-1 $1031 -150 $1044 150 $1027 $1106 forward 7 unknown #
coedge $-1 $1019 $1018 $1096 $1107 forward $866 $-1 #
coedge $-1 $1094 $1093 $1018 $1069 forward $1095 $-1 #
edge $-1 $1108 155 $1071 445 $1018 $948 forward 7 unknown #
edge $-1 $1072 -445 $1104 -155 $1019 $855 forward 7 unknown #
vertex $-1 $1021 $1109 #
vertex $-1 $1021 $1110 #
coedge $-1 $1086 $1085 $1022 $1074 reversed $1087 $-1 #
edge $-1 $1077 -145 $1078 -55 $1073 $235 forward 7 unknown #
coedge $-1 $1083 $1023 $1028 $1079 reversed $1064 $-1 #
coedge $-1 $1023 $1083 $1086 $1111 reversed $1064 $-1 #
vertex $-1 $1074 $1112 #
vertex $-1 $1026 $1113 #
edge $-1 $1089 -150 $1030 150 $1028 $1114 forward 7 unknown #
face $-1 $1098 $1029 $2 $-1 $73 reversed single #
point $-1 145 150 400 #
point $-1 145 150 310 #
coedge $-1 $1076 $1075 $1037 $1084 forward $1064 $-1 #
edge $-1 $1089 -145 $1088 145 $1037 $952 forward 7 unknown #
coedge $-1 $1073 $1038 $1042 $1090 forward $1087 $-1 #
coedge $-1 $1038 $1073 $1076 $1111 forward $1087 $-1 #
loop $-1 $-1 $1085 $1065 #
vertex $-1 $1039 $1115 #
vertex $-1 $1041 $1116 #
edge $-1 $1043 -150 $1078 150 $1085 $1117 forward 7 unknown #
point $-1 -145 -150 310 #
point $-1 145 -150 310 #
coedge $-1 $1068 $1045 $1048 $1097 reversed $1095 $-1 #
coedge $-1 $1045 $1068 $1051 $1100 reversed $1095 $-1 #
loop $-1 $-1 $1094 $1063 #
coedge $-1 $1048 $1047 $1067 $1107 reversed $1049 $-1 #
edge $-1 $1108 -150 $1050 150 $1048 $1118 forward 7 unknown #
face $-1 $1016 $1049 $2 $-1 $298 reversed single #
point $-1 155 -150 400 #
edge $-1 $1054 -150 $1071 150 $1051 $1119 forward 7 unknown #
face $-1 $1080 $1053 $2 $-1 $229 reversed single #
point $-1 445 -150 400 #
straight-curve $-1 445 0 310 0 -1 0 I I #
vertex $-1 $1070 $1120 #
straight-curve $-1 155 0 310 0 1 0 I I #
straight-curve $-1 145 0 310 0 -1 0 I I #
edge $-1 $1108 -145 $1104 -55 $1096 $289 forward 7 unknown #
vertex $-1 $1107 $1121 #
point $-1 445 150 400 #
point $-1 445 150 310 #
edge $-1 $1077 -150 $1088 150 $1086 $1122 forward 7 unknown #
point $-1 -145 150 400 #
point $-1 -145 150 310 #
straight-curve $-1 145 0 400 0 1 0 I I #
point $-1 -145 -150 400 #
point $-1 145 -150 400 #
straight-curve $-1 -145 0 310 0 1 0 I I #
straight-curve $-1 155 0 400 0 -1 0 I I #
straight-curve $-1 445 0 400 0 1 0 I I #
point $-1 155 150 310 #
point $-1 155 150 400 #
straight-curve $-1 -145 0 400 0 -1 0 I I #
End-of-ACIS-data 