106 0 1 0           
body $-1 $1 $-1 $-1 #
lump $-1 $-1 $2 $0 #
shell $-1 $-1 $-1 $3 $1 #
face $-1 $4 $5 $2 $-1 $6 forward single #
face $-1 $7 $8 $2 $-1 $9 forward single #
loop $-1 $10 $11 $3 #
plane-surface $-1 0 0 0 0 -1 0 0 0 -1 0 I I I I #
face $-1 $12 $13 $2 $-1 $14 forward single #
loop $-1 $15 $16 $4 #
cone-surface $-1 0 7.5 0 0 1 0 0 0 15 1 I I 0 1 0 I I I I #
loop $-1 $-1 $17 $3 #
coedge $-1 $11 $11 $18 $19 0 $5 $-1 #
face $-1 $20 $21 $2 $-1 $22 reversed single #
loop $-1 $-1 $23 $7 #
plane-surface $-1 0 15 0 0 1 0 0 0 1 0 I I I I #
loop $-1 $24 $18 $4 #
coedge $-1 $16 $16 $23 $25 1 $8 $-1 #
coedge $-1 $17 $17 $26 $27 1 $10 $-1 #
coedge $-1 $18 $18 $11 $19 1 $15 $-1 #
edge $-1 $28 $28 $11 $29 0 #
face $-1 $30 $31 $2 $-1 $32 reversed single #
loop $-1 $-1 $33 $12 #
plane-surface $-1 0 12.5 -95 0 -1 0 0 0 -1 0 I I I I #
coedge $-1 $23 $23 $16 $25 0 $13 $-1 #
loop $-1 $-1 $34 $4 #
edge $-1 $35 $35 $23 $36 0 #
coedge $-1 $26 $26 $17 $27 0 $37 $-1 #
edge $-1 $38 $38 $26 $39 1 #
vertex $-1 $19 $40 #
ellipse-curve $-1 0 0 0 0 -1 0 0 0 15 1 I I #
face $-1 $41 $42 $2 $-1 $43 reversed single #
loop $-1 $-1 $44 $20 #
plane-surface $-1 10 7.5 -95 -1 0 0 0 0 1 0 I I I I #
coedge $-1 $45 $46 $47 $48 0 $21 $-1 #
coedge $-1 $49 $50 $51 $52 1 $24 $-1 #
vertex $-1 $25 $53 #
ellipse-curve $-1 0 15 0 0 1 0 0 0 15 1 I I #
loop $-1 $-1 $26 $54 #
vertex $-1 $27 $55 #
ellipse-curve $-1 0 0 0 0 1 0 0 0 7.5 1 I I #
point $-1 0 0 15 #
face $-1 $56 $57 $2 $-1 $58 reversed single #
loop $-1 $-1 $59 $30 #
plane-surface $-1 0 7.5 -190 0 0 1 1 0 0 0 I I I I #
coedge $-1 $60 $61 $49 $62 0 $31 $-1 #
coedge $-1 $63 $33 $61 $64 0 $21 $-1 #
coedge $-1 $33 $63 $65 $66 1 $21 $-1 #
coedge $-1 $50 $49 $33 $48 1 $24 $-1 #
edge $-1 $67 $68 $33 $69 0 #
coedge $-1 $47 $34 $44 $62 1 $24 $-1 #
coedge $-1 $34 $47 $70 $71 1 $24 $-1 #
coedge $-1 $72 $73 $34 $52 0 $57 $-1 #
edge $-1 $74 $75 $51 $76 0 #
point $-1 0 15 15 #
face $-1 $77 $78 $2 $-1 $79 forward single #
point $-1 0 0 7.5 #
face $-1 $80 $81 $2 $-1 $82 reversed single #
loop $-1 $-1 $51 $41 #
plane-surface $-1 0 2.5 -95 0 1 0 0 0 1 0 I I I I #
coedge $-1 $83 $84 $85 $86 0 $42 $-1 #
coedge $-1 $85 $44 $73 $87 0 $31 $-1 #
coedge $-1 $44 $85 $45 $64 1 $31 $-1 #
edge $-1 $68 $74 $44 $88 0 #
coedge $-1 $46 $45 $84 $89 1 $21 $-1 #
edge $-1 $68 $90 $61 $91 0 #
coedge $-1 $92 $70 $46 $66 0 $81 $-1 #
edge $-1 $67 $93 $46 $94 0 #
vertex $-1 $66 $95 #
vertex $-1 $64 $96 #
ellipse-curve $-1 0 12.5 0 0 -1 0 0 0 15 1 I I #
coedge $-1 $65 $97 $50 $71 0 $81 $-1 #
edge $-1 $75 $67 $70 $98 0 #
coedge $-1 $99 $51 $97 $100 0 $57 $-1 #
coedge $-1 $51 $99 $60 $87 1 $57 $-1 #
vertex $-1 $87 $101 #
vertex $-1 $100 $102 #
ellipse-curve $-1 0 2.5 0 0 1 0 0 0 15 1 I I #
face $-1 $-1 $103 $2 $-1 $104 forward single #
loop $-1 $37 $105 $54 #
cone-surface $-1 0 -10 0 0 1 0 0 0 7.5 1 I I 0 1 0 I I I I #
face $-1 $106 $107 $2 $-1 $108 reversed single #
loop $-1 $-1 $70 $56 #
plane-surface $-1 -10 7.5 -95 1 0 0 0 0 -1 0 I I I I #
coedge $-1 $109 $59 $99 $110 0 $42 $-1 #
coedge $-1 $59 $109 $63 $89 0 $42 $-1 #
coedge $-1 $61 $60 $59 $86 1 $31 $-1 #
edge $-1 $90 $111 $85 $112 0 #
edge $-1 $74 $111 $60 $113 0 #
straight-curve $-1 10 7.5 -11.180339887498945 0 -1 0 I I #
edge $-1 $93 $90 $63 $114 0 #
vertex $-1 $86 $115 #
straight-curve $-1 10 12.5 -95 0 0 -1 I I #
coedge $-1 $97 $65 $109 $116 1 $81 $-1 #
vertex $-1 $89 $117 #
straight-curve $-1 -10 12.5 -95 0 0 -1 I I #
point $-1 -10 12.5 -11.180339887498945 #
point $-1 10 12.5 -11.180339887498945 #
coedge $-1 $70 $92 $72 $100 1 $81 $-1 #
straight-curve $-1 -10 7.5 -11.180339887498945 0 1 0 I I #
coedge $-1 $73 $72 $83 $110 1 $57 $-1 #
edge $-1 $75 $118 $97 $119 0 #
point $-1 10 2.5 -11.180339887498945 #
point $-1 -10 2.5 -11.180339887498945 #
loop $-1 $120 $121 $77 #
plane-surface $-1 0 -20 0 0 -1 0 0 0 -1 0 I I I I #
coedge $-1 $105 $105 $122 $123 1 $78 $-1 #
face $-1 $124 $125 $2 $-1 $126 reversed single #
loop $-1 $-1 $127 $80 #
plane-surface $-1 -2.8868 -20 5 -0.86602925472198611 0 0.4999933299211915 0.4999933299211915 0 0.86602925472198611 0 I I I I #
coedge $-1 $84 $83 $92 $116 0 $42 $-1 #
edge $-1 $111 $118 $99 $128 0 #
vertex $-1 $87 $129 #
straight-curve $-1 10 7.5 -190 0 -1 0 I I #
straight-curve $-1 10 2.5 -95 0 0 -1 I I #
straight-curve $-1 0 12.5 -190 1 0 0 I I #
point $-1 10 12.5 -190 #
edge $-1 $118 $93 $92 $130 0 #
point $-1 -10 12.5 -190 #
vertex $-1 $116 $131 #
straight-curve $-1 -10 2.5 -95 0 0 -1 I I #
loop $-1 $-1 $122 $77 #
coedge $-1 $132 $133 $134 $135 0 $103 $-1 #
coedge $-1 $122 $122 $105 $123 0 $120 $-1 #
edge $-1 $136 $136 $122 $137 0 #
face $-1 $138 $139 $2 $-1 $140 reversed single #
loop $-1 $-1 $141 $106 #
plane-surface $-1 -5.7735000000000003 -20 0 -0.86602925472198611 0 -0.4999933299211915 -0.4999933299211915 0 0.86602925472198611 0 I I I I #
coedge $-1 $142 $143 $144 $145 1 $107 $-1 #
straight-curve $-1 0 2.5 -190 -1 0 0 I I #
point $-1 10 2.5 -190 #
straight-curve $-1 -10 7.5 -190 0 1 0 I I #
point $-1 -10 2.5 -190 #
coedge $-1 $146 $121 $147 $148 0 $103 $-1 #
coedge $-1 $121 $149 $150 $151 0 $103 $-1 #
coedge $-1 $143 $142 $121 $135 1 $107 $-1 #
edge $-1 $152 $153 $121 $154 0 #
vertex $-1 $123 $155 #
ellipse-curve $-1 0 -20 0 0 -1 0 0 0 7.5 1 I I #
face $-1 $156 $157 $2 $-1 $158 reversed single #
loop $-1 $-1 $159 $124 #
plane-surface $-1 -2.8868 -20 -5 0 0 -1 -1 0 0 0 I I I I #
coedge $-1 $160 $161 $162 $163 1 $125 $-1 #
coedge $-1 $134 $127 $164 $165 1 $107 $-1 #
coedge $-1 $127 $134 $160 $166 0 $107 $-1 #
coedge $-1 $162 $167 $127 $145 0 $168 $-1 #
edge $-1 $169 $170 $127 $171 0 #
coedge $-1 $172 $132 $173 $174 0 $103 $-1 #
coedge $-1 $164 $175 $132 $148 1 $176 $-1 #
edge $-1 $153 $177 $132 $178 0 #
coedge $-1 $133 $172 $179 $180 0 $103 $-1 #
coedge $-1 $161 $160 $133 $151 1 $125 $-1 #
edge $-1 $181 $152 $133 $182 0 #
vertex $-1 $135 $183 #
vertex $-1 $135 $184 #
straight-curve $-1 -3.6084817547215695 -20 3.7499883002709513 0.4999933299211915 0 0.86602925472198611 I I #
point $-1 0 -20 7.5 #
face $-1 $185 $186 $2 $-1 $187 reversed single #
loop $-1 $-1 $188 $138 #
plane-surface $-1 2.8868 -20 -5 0.86602925472198611 0 -0.4999933299211915 -0.4999933299211915 0 -0.86602925472198611 0 I I I I #
coedge $-1 $189 $190 $191 $192 1 $139 $-1 #
coedge $-1 $150 $141 $143 $166 1 $125 $-1 #
coedge $-1 $141 $150 $189 $193 0 $125 $-1 #
coedge $-1 $191 $144 $141 $163 0 $168 $-1 #
edge $-1 $170 $194 $141 $195 0 #
coedge $-1 $196 $147 $142 $165 0 $176 $-1 #
edge $-1 $153 $169 $142 $197 0 #
edge $-1 $152 $170 $160 $198 0 #
coedge $-1 $144 $199 $196 $200 0 $168 $-1 #
loop $-1 $-1 $144 $201 #
vertex $-1 $165 $202 #
vertex $-1 $166 $203 #
straight-curve $-1 -5.7735000000000003 -12 0 -0.49999332992119144 0 -0.866029254721986 I I #
coedge $-1 $149 $146 $204 $205 0 $103 $-1 #
coedge $-1 $206 $207 $146 $174 1 $186 $-1 #
edge $-1 $177 $208 $146 $209 0 #
coedge $-1 $147 $196 $206 $210 1 $176 $-1 #
loop $-1 $-1 $196 $185 #
vertex $-1 $174 $211 #
straight-curve $-1 1.4434 -20 5 1 0 0 I I #
coedge $-1 $190 $189 $149 $180 1 $139 $-1 #
edge $-1 $212 $181 $149 $213 0 #
vertex $-1 $151 $214 #
straight-curve $-1 -5.0518317547215696 -20 -1.2499883002709511 -0.4999933299211915 0 0.86602925472198611 I I #
point $-1 -5.7735000000000003 -20 0 #
point $-1 -2.8868 -20 5 #
face $-1 $201 $176 $2 $-1 $215 reversed single #
loop $-1 $-1 $216 $156 #
plane-surface $-1 5.7735000000000003 -20 0 0.86602925472198611 0 0.4999933299211915 0.4999933299211915 0 -0.86602925472198611 0 I I I I #
coedge $-1 $217 $218 $219 $220 1 $157 $-1 #
coedge $-1 $179 $159 $161 $193 1 $139 $-1 #
coedge $-1 $159 $179 $217 $221 0 $139 $-1 #
coedge $-1 $219 $162 $159 $192 0 $168 $-1 #
edge $-1 $194 $222 $159 $223 0 #
edge $-1 $181 $194 $189 $224 0 #
vertex $-1 $193 $225 #
straight-curve $-1 -2.8868 -12 -5 0.49999332992119144 0 -0.866029254721986 I I #
coedge $-1 $175 $164 $167 $200 1 $176 $-1 #
straight-curve $-1 -2.8868 -20 5 0 1 0 I I #
straight-curve $-1 -5.7735000000000003 -20 0 0 1 0 I I #
coedge $-1 $167 $219 $216 $226 0 $168 $-1 #
edge $-1 $227 $169 $196 $228 0 #
face $-1 $54 $168 $2 $-1 $229 forward single #
point $-1 -2.8868 -12 5 #
point $-1 -5.7735000000000003 -12 0 #
coedge $-1 $218 $217 $172 $205 1 $157 $-1 #
edge $-1 $208 $212 $172 $230 0 #
coedge $-1 $216 $173 $175 $210 0 $186 $-1 #
coedge $-1 $173 $216 $218 $231 1 $186 $-1 #
vertex $-1 $205 $232 #
straight-curve $-1 5.0518317547215696 -20 1.2499883002709511 0.4999933299211915 0 -0.86602925472198611 I I #
edge $-1 $177 $227 $175 $233 0 #
point $-1 2.8868 -20 5 #
vertex $-1 $180 $234 #
straight-curve $-1 -1.4434 -20 -5 -1 0 0 I I #
point $-1 -2.8868 -20 -5 #
plane-surface $-1 2.8868 -20 5 0 0 1 1 0 0 0 I I I I #
coedge $-1 $207 $206 $199 $226 1 $186 $-1 #
coedge $-1 $204 $188 $190 $221 1 $157 $-1 #
coedge $-1 $188 $204 $207 $231 0 $157 $-1 #
coedge $-1 $199 $191 $188 $220 0 $168 $-1 #
edge $-1 $222 $235 $188 $236 0 #
edge $-1 $212 $222 $217 $237 0 #
vertex $-1 $221 $238 #
straight-curve $-1 2.8868 -12 -5 1 0 0 I I #
straight-curve $-1 -2.8868 -20 -5 0 1 0 I I #
point $-1 -2.8868 -12 -5 #
edge $-1 $235 $227 $216 $239 0 #
vertex $-1 $210 $240 #
straight-curve $-1 -2.8868 -12 5 -1 0 0 I I #
plane-surface $-1 -2.8868 -12 5 0 -1 0 0 0 -1 0 I I I I #
straight-curve $-1 3.6084817547215695 -20 -3.7499883002709513 -0.4999933299211915 0 -0.86602925472198611 I I #
edge $-1 $208 $235 $207 $241 0 #
point $-1 5.7735000000000003 -20 0 #
straight-curve $-1 2.8868 -20 5 0 1 0 I I #
point $-1 2.8868 -20 -5 #
vertex $-1 $231 $242 #
straight-curve $-1 5.7735000000000003 -12 0 0.49999332992119144 0 0.866029254721986 I I #
straight-curve $-1 2.8868 -20 -5 0 1 0 I I #
point $-1 2.8868 -12 -5 #
straight-curve $-1 2.8868 -12 5 -0.49999332992119144 0 0.866029254721986 I I #
point $-1 2.8868 -12 5 #
straight-curve $-1 5.7735000000000003 -20 0 0 1 0 I I #
point $-1 5.7735000000000003 -12 0 #
End-of-ACIS-data 