700 0 2 0           
24 FBMach with ACIS - 7.0.3 13 ACIS 7.0.3 NT 24 Mon May 13 17:16:59 2002 
1 9.9999999999999995e-007 1e-010 
body $2 -1 $-1 $3 $-1 $4 #
bdycol-kcp $-1 -1 1 5 $5 $6 $7 $8 $9 #
model_id-kcp-attrib $-1 -1 $-1 $-1 $0 1 1021324617 1021324617 -617218047 1 #
lump $-1 -1 $-1 $-1 $10 $0 #
transform $-1 -1 1 0 0 0 1 0 0 0 1 0 0 0 1 rotate no_reflect no_shear #
body $11 -1 $-1 $12 $-1 $13 #
body $14 -1 $-1 $15 $-1 $16 #
body $17 -1 $-1 $18 $-1 $19 #
body $20 -1 $-1 $21 $-1 $22 #
body $23 -1 $-1 $24 $-1 $25 #
shell $-1 -1 $-1 $-1 $-1 $26 $-1 $3 #
model_id-kcp-attrib $-1 -1 $-1 $-1 $5 1 1021324617 1021324617 -617218046 1 #
lump $-1 -1 $-1 $-1 $27 $5 #
transform $-1 -1 1 0 0 0 1 0 0 0 1 0 -2.5 -87.5 1 no_rotate no_reflect no_shear #
rgb_color-st-attrib $-1 -1 $28 $-1 $6 1 0.5 1 #
lump $-1 -1 $-1 $-1 $29 $6 #
transform $-1 -1 1 0 0 0 1 0 0 0 1 0 -2.5 -87.5 1 no_rotate no_reflect no_shear #
rgb_color-st-attrib $-1 -1 $30 $-1 $7 0 0 1 #
lump $-1 -1 $-1 $-1 $31 $7 #
transform $-1 -1 1 0 0 0 1 0 0 0 1 0 -2.5 -87.5 1 no_rotate no_reflect no_shear #
rgb_color-st-attrib $-1 -1 $32 $-1 $8 1 0.5 1 #
lump $-1 -1 $-1 $-1 $33 $8 #
transform $-1 -1 1 0 0 0 1 0 0 0 1 0 -2.5 -87.5 1 no_rotate no_reflect no_shear #
rgb_color-st-attrib $-1 -1 $34 $-1 $9 1 0.5 1 #
lump $-1 -1 $-1 $-1 $35 $9 #
transform $-1 -1 1 0 0 0 1 0 0 0 1 0 -2.5 -87.5 1 no_rotate no_reflect no_shear #
face $36 -1 $-1 $37 $38 $10 $-1 $39 forward single #
shell $-1 -1 $-1 $-1 $-1 $40 $-1 $12 #
model_id-kcp-attrib $-1 -1 $-1 $14 $6 1 1021324617 1021324618 -620429306 1 #
shell $-1 -1 $-1 $-1 $-1 $41 $-1 $15 #
model_id-kcp-attrib $-1 -1 $-1 $17 $7 1 1021324617 1021324618 -618004477 1 #
shell $-1 -1 $-1 $-1 $-1 $42 $-1 $18 #
model_id-kcp-attrib $-1 -1 $-1 $20 $8 1 1021324617 1021324618 -611844091 1 #
shell $-1 -1 $-1 $-1 $-1 $43 $-1 $21 #
model_id-kcp-attrib $-1 -1 $-1 $23 $9 1 1021324617 1021324618 -606207996 1 #
shell $-1 -1 $-1 $-1 $-1 $44 $-1 $24 #
model_id-kcp-attrib $-1 -1 $-1 $-1 $26 1 1021324617 1021324617 -617218047 2 #
face $45 -1 $-1 $46 $47 $10 $-1 $48 forward single #
loop $-1 -1 $-1 $49 $50 $26 #
plane-surface $-1 -1 $-1 0 0 0 0 -1 0 0 0 -1 forward_v I I I I #
face $-1 -1 $-1 $51 $52 $27 $-1 $53 forward single #
face $-1 -1 $-1 $54 $55 $29 $-1 $56 forward single #
face $-1 -1 $-1 $57 $58 $31 $-1 $59 forward single #
face $-1 -1 $-1 $60 $61 $33 $-1 $62 reversed single #
face $-1 -1 $-1 $63 $64 $35 $-1 $65 reversed single #
model_id-kcp-attrib $-1 -1 $-1 $-1 $37 1 1021324617 1021324617 -617218047 3 #
face $66 -1 $-1 $67 $68 $10 $-1 $69 forward single #
loop $-1 -1 $-1 $70 $71 $37 #
cone-surface $-1 -1 $-1 0 7.5 0 0 1 0 0 0 15 1 I I 0 1 15 forward I I I I #
loop $-1 -1 $-1 $-1 $72 $26 #
coedge $-1 -1 $-1 $50 $50 $73 $74 forward $38 $-1 #
face $75 -1 $-1 $76 $77 $27 $-1 $78 reversed single #
loop $-1 -1 $-1 $-1 $79 $40 #
plane-surface $-1 -1 $-1 0 0 102.5 0 0 1 1 0 0 forward_v I I I I #
face $-1 -1 $-1 $80 $81 $29 $-1 $82 forward single #
loop $-1 -1 $-1 $-1 $83 $41 #
plane-surface $-1 -1 $-1 -15 2.5 87.5 -1 0 0 0 0 1 forward_v I I I I #
face $-1 -1 $-1 $84 $85 $31 $-1 $86 forward single #
loop $-1 -1 $-1 $-1 $87 $42 #
plane-surface $-1 -1 $-1 -2.8868 -9.5 92.5 0 0 1 1 0 0 forward_v I I I I #
face $-1 -1 $-1 $88 $89 $33 $-1 $90 forward single #
loop $-1 -1 $-1 $-1 $91 $43 #
plane-surface $-1 -1 $-1 0 -17.5 0 0 1 0 0 0 1 forward_v I I I I #
face $-1 -1 $-1 $92 $93 $35 $-1 $94 forward single #
loop $-1 -1 $-1 $-1 $95 $44 #
plane-surface $-1 -1 $-1 0 17.5 0 0 -1 0 0 0 -1 forward_v I I I I #
model_id-kcp-attrib $-1 -1 $-1 $-1 $46 1 1021324617 1021324617 -617218047 4 #
face $96 -1 $-1 $97 $98 $10 $-1 $99 reversed single #
loop $-1 -1 $-1 $-1 $100 $46 #
plane-surface $-1 -1 $-1 0 15 0 0 1 0 0 0 1 forward_v I I I I #
loop $-1 -1 $-1 $101 $73 $37 #
coedge $-1 -1 $-1 $71 $71 $100 $102 reversed $47 $-1 #
coedge $-1 -1 $-1 $72 $72 $103 $104 reversed $49 $-1 #
coedge $-1 -1 $-1 $73 $73 $50 $74 reversed $70 $-1 #
edge $105 -1 $-1 $106 0 $106 6.2831853071795862 $50 $107 forward @7 unknown #
model_id-kcp-attrib $-1 -1 $-1 $-1 $51 1 1021324617 1021324617 -617218046 3 #
face $108 -1 $-1 $109 $110 $27 $-1 $111 reversed single #
loop $-1 -1 $-1 $-1 $112 $51 #
plane-surface $-1 -1 $-1 0 0 -102.5 0 0 1 1 0 0 forward_v I I I I #
coedge $-1 -1 $-1 $113 $114 $115 $116 forward $52 $-1 #
face $-1 -1 $-1 $117 $118 $29 $-1 $119 forward single #
loop $-1 -1 $-1 $-1 $120 $54 #
plane-surface $-1 -1 $-1 -15 2.5 102.5 0 0 1 1 0 0 forward_v I I I I #
coedge $-1 -1 $-1 $121 $122 $123 $124 forward $55 $-1 #
face $-1 -1 $-1 $125 $126 $31 $-1 $127 forward single #
loop $-1 -1 $-1 $-1 $128 $57 #
plane-surface $-1 -1 $-1 2.8867999999999991 -9.5 92.5 0.86602925472198611 0 0.4999933299211915 0.4999933299211915 0 -0.86602925472198611 forward_v I I I I #
coedge $-1 -1 $-1 $129 $130 $131 $132 forward $58 $-1 #
face $-1 -1 $-1 $133 $134 $33 $-1 $135 forward single #
loop $-1 -1 $-1 $-1 $136 $60 #
plane-surface $-1 -1 $-1 15 5 -102.5 0 0 -1 -1 0 0 forward_v I I I I #
coedge $-1 -1 $-1 $137 $138 $139 $140 forward $61 $-1 #
face $-1 -1 $-1 $141 $142 $35 $-1 $143 forward single #
loop $-1 -1 $-1 $-1 $144 $63 #
plane-surface $-1 -1 $-1 -15 15 -102.5 0 0 -1 -1 0 0 forward_v I I I I #
coedge $-1 -1 $-1 $145 $146 $147 $148 forward $64 $-1 #
model_id-kcp-attrib $-1 -1 $-1 $-1 $67 1 1021324617 1021324617 -617218047 5 #
face $149 -1 $-1 $150 $151 $10 $-1 $152 reversed single #
loop $-1 -1 $-1 $-1 $153 $67 #
plane-surface $-1 -1 $-1 0 12.5 -95 0 -1 0 0 0 -1 forward_v I I I I #
coedge $-1 -1 $-1 $100 $100 $71 $102 forward $68 $-1 #
loop $-1 -1 $-1 $-1 $154 $37 #
edge $155 -1 $-1 $156 0 $156 6.2831853071795862 $100 $157 forward @7 unknown #
coedge $-1 -1 $-1 $103 $103 $72 $104 forward $158 $-1 #
edge $159 -1 $-1 $160 -6.2831853071795862 $160 0 $103 $161 reversed @7 unknown #
attrib_edge_convexity-kcp-attrib $-1 -1 $162 $-1 $74 1 #
vertex $-1 -1 $-1 $74 $163 #
ellipse-curve $-1 -1 $-1 0 0 0 0 -1 0 0 0 15 1 I I #
model_id-kcp-attrib $-1 -1 $-1 $-1 $76 1 1021324617 1021324617 -617218046 4 #
face $-1 -1 $-1 $164 $165 $27 $-1 $166 reversed single #
loop $-1 -1 $-1 $-1 $167 $76 #
plane-surface $-1 -1 $-1 0 -17.5 0 0 1 0 0 0 1 forward_v I I I I #
coedge $-1 -1 $-1 $168 $169 $170 $171 forward $77 $-1 #
coedge $-1 -1 $-1 $172 $79 $173 $174 forward $52 $-1 #
coedge $-1 -1 $-1 $79 $172 $175 $176 forward $52 $-1 #
coedge $-1 -1 $-1 $177 $178 $79 $116 reversed $179 $-1 #
edge $-1 -1 $-1 $180 -17.5 $181 17.5 $115 $182 forward @7 unknown #
face $-1 -1 $-1 $183 $184 $29 $-1 $185 forward single #
loop $-1 -1 $-1 $-1 $186 $80 #
plane-surface $-1 -1 $-1 15 2.5 102.5 1 0 0 0 0 -1 forward_v I I I I #
coedge $-1 -1 $-1 $187 $188 $189 $190 forward $81 $-1 #
coedge $-1 -1 $-1 $191 $83 $188 $192 reversed $55 $-1 #
coedge $-1 -1 $-1 $83 $191 $193 $194 forward $55 $-1 #
coedge $-1 -1 $-1 $195 $189 $83 $124 reversed $196 $-1 #
edge $-1 -1 $-1 $197 43.75 $198 58.75 $83 $199 forward @7 unknown #
face $-1 -1 $-1 $200 $201 $31 $-1 $202 forward single #
loop $-1 -1 $-1 $-1 $203 $84 #
plane-surface $-1 -1 $-1 5.7735000000000003 -9.5 87.5 0.86602925472198611 0 -0.4999933299211915 -0.4999933299211915 0 -0.86602925472198611 forward_v I I I I #
coedge $-1 -1 $-1 $204 $205 $206 $207 forward $85 $-1 #
coedge $-1 -1 $-1 $208 $87 $205 $209 reversed $58 $-1 #
coedge $-1 -1 $-1 $87 $208 $210 $211 forward $58 $-1 #
coedge $-1 -1 $-1 $212 $206 $87 $132 reversed $213 $-1 #
edge $-1 -1 $-1 $214 -4.3301999999999996 $215 1.4433999999999991 $87 $216 forward @7 unknown #
face $-1 -1 $-1 $217 $218 $33 $-1 $219 forward single #
loop $-1 -1 $-1 $-1 $220 $88 #
plane-surface $-1 -1 $-1 -15 5 -102.5 -1 0 0 0 0 1 forward_v I I I I #
coedge $-1 -1 $-1 $221 $222 $223 $224 reversed $89 $-1 #
coedge $-1 -1 $-1 $223 $91 $220 $225 forward $61 $-1 #
coedge $-1 -1 $-1 $91 $223 $226 $227 forward $61 $-1 #
coedge $-1 -1 $-1 $228 $229 $91 $140 reversed $218 $-1 #
edge $-1 -1 $-1 $230 1.5707963267948966 $231 4.7123889803846897 $139 $232 forward @7 unknown #
face $-1 -1 $-1 $233 $234 $35 $-1 $235 forward single #
loop $-1 -1 $-1 $-1 $236 $92 #
plane-surface $-1 -1 $-1 15 15 -102.5 1 0 0 0 0 -1 forward_v I I I I #
coedge $-1 -1 $-1 $237 $238 $239 $240 reversed $93 $-1 #
coedge $-1 -1 $-1 $239 $95 $236 $241 forward $64 $-1 #
coedge $-1 -1 $-1 $95 $239 $242 $243 forward $64 $-1 #
coedge $-1 -1 $-1 $244 $245 $95 $148 reversed $246 $-1 #
edge $-1 -1 $-1 $247 1.5707963267948966 $248 4.7123889803846897 $147 $249 forward @7 unknown #
model_id-kcp-attrib $-1 -1 $-1 $-1 $97 1 1021324617 1021324617 -617218047 6 #
face $250 -1 $-1 $251 $252 $10 $-1 $253 reversed single #
loop $-1 -1 $-1 $-1 $254 $97 #
plane-surface $-1 -1 $-1 10 7.5 -95 -1 0 0 0 0 1 forward_v I I I I #
coedge $-1 -1 $-1 $255 $256 $257 $258 forward $98 $-1 #
coedge $-1 -1 $-1 $259 $260 $261 $262 reversed $101 $-1 #
attrib_edge_convexity-kcp-attrib $-1 -1 $263 $-1 $102 1 #
vertex $-1 -1 $-1 $102 $264 #
ellipse-curve $-1 -1 $-1 0 15 0 0 1 0 0 0 15 1 I I #
loop $-1 -1 $-1 $-1 $103 $265 #
attrib_edge_convexity-kcp-attrib $-1 -1 $266 $-1 $104 2 #
vertex $-1 -1 $-1 $104 $267 #
ellipse-curve $-1 -1 $-1 0 0 0 0 1 0 0 0 7.5 1 I I #
convexity-sys-attrib $-1 -1 $-1 $105 $74 #
point $-1 -1 $-1 0 0 15 #
face $268 -1 $-1 $269 $270 $27 $-1 $271 reversed single #
loop $-1 -1 $-1 $-1 $272 $109 #
plane-surface $-1 -1 $-1 -15 0 0 1 0 0 0 0 -1 forward_v I I I I #
coedge $-1 -1 $-1 $273 $175 $274 $275 forward $110 $-1 #
coedge $-1 -1 $-1 $276 $112 $273 $277 forward $77 $-1 #
coedge $-1 -1 $-1 $112 $276 $278 $279 forward $77 $-1 #
coedge $-1 -1 $-1 $178 $177 $112 $171 reversed $179 $-1 #
edge $-1 -1 $-1 $280 -17.5 $281 17.5 $170 $282 forward @7 unknown #
coedge $-1 -1 $-1 $114 $113 $283 $284 forward $52 $-1 #
coedge $-1 -1 $-1 $285 $286 $113 $174 reversed $270 $-1 #
edge $-1 -1 $-1 $181 -15 $287 15 $173 $288 forward @7 unknown #
coedge $-1 -1 $-1 $167 $289 $114 $176 reversed $110 $-1 #
edge $-1 -1 $-1 $290 -15 $180 15 $175 $291 forward @7 unknown #
coedge $-1 -1 $-1 $170 $115 $289 $292 forward $179 $-1 #
coedge $-1 -1 $-1 $115 $170 $285 $293 reversed $179 $-1 #
loop $-1 -1 $-1 $-1 $177 $269 #
vertex $-1 -1 $-1 $116 $294 #
vertex $-1 -1 $-1 $116 $295 #
straight-curve $-1 -1 $-1 15 0 102.5 0 1 0 I I #
face $-1 -1 $-1 $296 $297 $29 $-1 $298 forward single #
loop $-1 -1 $-1 $-1 $299 $117 #
cone-surface $-1 -1 $-1 0 2.5 87.5 0 -1 0 0 0 15 1 I I 0 1 15 forward I I I I #
coedge $-1 -1 $-1 $300 $301 $302 $303 forward $118 $-1 #
coedge $-1 -1 $-1 $304 $120 $301 $305 reversed $81 $-1 #
coedge $-1 -1 $-1 $120 $304 $121 $192 forward $81 $-1 #
coedge $-1 -1 $-1 $123 $302 $120 $190 reversed $196 $-1 #
edge $-1 -1 $-1 $198 -15 $306 15 $120 $307 forward @7 unknown #
coedge $-1 -1 $-1 $122 $121 $308 $309 reversed $55 $-1 #
edge $-1 -1 $-1 $310 0 $198 20 $188 $311 forward @7 unknown #
coedge $-1 -1 $-1 $312 $299 $122 $194 reversed $184 $-1 #
edge $-1 -1 $-1 $313 0 $197 20 $122 $314 forward @7 unknown #
coedge $-1 -1 $-1 $302 $123 $299 $315 reversed $196 $-1 #
loop $-1 -1 $-1 $-1 $123 $296 #
vertex $-1 -1 $-1 $194 $316 #
vertex $-1 -1 $-1 $192 $317 #
straight-curve $-1 -1 $-1 -15 -17.5 43.75 0 0 1 I I #
face $-1 -1 $-1 $318 $319 $31 $-1 $320 forward single #
loop $-1 -1 $-1 $-1 $321 $125 #
plane-surface $-1 -1 $-1 2.8867999999999991 -9.5 82.5 0 0 -1 -1 0 0 forward_v I I I I #
coedge $-1 -1 $-1 $322 $323 $324 $325 forward $126 $-1 #
coedge $-1 -1 $-1 $326 $128 $323 $327 reversed $85 $-1 #
coedge $-1 -1 $-1 $128 $326 $129 $209 forward $85 $-1 #
coedge $-1 -1 $-1 $131 $324 $128 $207 reversed $213 $-1 #
edge $-1 -1 $-1 $215 -4.3301212739434298 $328 1.4433557451500045 $128 $329 forward @7 unknown #
coedge $-1 -1 $-1 $130 $129 $330 $331 reversed $58 $-1 #
edge $332 -1 $-1 $333 0 $215 8 $205 $334 forward @7 unknown #
coedge $-1 -1 $-1 $335 $336 $130 $211 reversed $337 $-1 #
edge $-1 -1 $-1 $338 0 $214 8 $130 $339 forward @7 unknown #
coedge $-1 -1 $-1 $340 $131 $336 $341 reversed $213 $-1 #
loop $-1 -1 $-1 $-1 $131 $342 #
vertex $-1 -1 $-1 $211 $343 #
vertex $-1 -1 $-1 $209 $344 #
straight-curve $-1 -1 $-1 1.4434 -17.5 92.5 1 0 0 I I #
face $-1 -1 $-1 $345 $346 $33 $-1 $347 forward single #
loop $-1 -1 $-1 $-1 $228 $133 #
cone-surface $-1 -1 $-1 0 5 87.5 0 -1 0 0 0 15 1 I I 0 -1 15 forward I I I I #
coedge $-1 -1 $-1 $348 $349 $137 $225 reversed $134 $-1 #
coedge $-1 -1 $-1 $350 $136 $349 $351 reversed $89 $-1 #
coedge $-1 -1 $-1 $136 $350 $352 $353 forward $89 $-1 #
coedge $-1 -1 $-1 $138 $137 $136 $224 forward $61 $-1 #
edge $-1 -1 $-1 $354 -22.5 $355 7.5 $136 $356 forward @7 unknown #
edge $-1 -1 $-1 $231 -138.75 $354 51.25 $220 $357 forward @7 unknown #
coedge $-1 -1 $-1 $352 $358 $138 $227 reversed $346 $-1 #
edge $-1 -1 $-1 $355 -146.25 $230 43.75 $226 $359 forward @7 unknown #
coedge $-1 -1 $-1 $360 $139 $358 $361 reversed $218 $-1 #
coedge $-1 -1 $-1 $139 $360 $348 $362 forward $218 $-1 #
vertex $-1 -1 $-1 $140 $363 #
vertex $-1 -1 $-1 $140 $364 #
ellipse-curve $-1 -1 $-1 0 -17.5 87.5 0 1 0 0 0 15 1 I I #
face $-1 -1 $-1 $365 $246 $35 $-1 $366 forward single #
loop $-1 -1 $-1 $-1 $242 $141 #
plane-surface $-1 -1 $-1 -15 15 87.5 -1 0 0 0 0 1 forward_v I I I I #
coedge $-1 -1 $-1 $367 $368 $145 $241 reversed $142 $-1 #
coedge $-1 -1 $-1 $369 $144 $368 $370 reversed $93 $-1 #
coedge $-1 -1 $-1 $144 $369 $371 $372 forward $93 $-1 #
coedge $-1 -1 $-1 $146 $145 $144 $240 forward $64 $-1 #
edge $-1 -1 $-1 $373 -22.5 $374 7.5 $144 $375 forward @7 unknown #
edge $-1 -1 $-1 $248 -138.75 $373 51.25 $236 $376 forward @7 unknown #
coedge $-1 -1 $-1 $371 $377 $146 $243 reversed $234 $-1 #
edge $-1 -1 $-1 $374 -146.25 $247 43.75 $242 $378 forward @7 unknown #
coedge $-1 -1 $-1 $379 $147 $377 $380 reversed $246 $-1 #
coedge $-1 -1 $-1 $147 $379 $367 $381 forward $246 $-1 #
loop $-1 -1 $-1 $-1 $147 $233 #
vertex $-1 -1 $-1 $148 $382 #
vertex $-1 -1 $-1 $148 $383 #
ellipse-curve $-1 -1 $-1 0 17.5 87.5 0 -1 0 0 0 15 1 I I #
model_id-kcp-attrib $-1 -1 $-1 $-1 $150 1 1021324617 1021324617 -617218047 7 #
face $384 -1 $-1 $385 $386 $10 $-1 $387 reversed single #
loop $-1 -1 $-1 $-1 $388 $150 #
plane-surface $-1 -1 $-1 0 7.5 -190 0 0 1 1 0 0 forward_v I I I I #
coedge $-1 -1 $-1 $389 $390 $259 $391 forward $151 $-1 #
coedge $-1 -1 $-1 $392 $153 $390 $393 forward $98 $-1 #
coedge $-1 -1 $-1 $153 $392 $394 $395 reversed $98 $-1 #
coedge $-1 -1 $-1 $260 $259 $153 $258 reversed $101 $-1 #
edge $396 -1 $-1 $397 2.4118649973628266 $398 3.8713203098167597 $153 $399 forward @7 unknown #
coedge $-1 -1 $-1 $257 $154 $254 $391 reversed $101 $-1 #
coedge $-1 -1 $-1 $154 $257 $400 $401 reversed $101 $-1 #
coedge $-1 -1 $-1 $402 $403 $154 $262 forward $386 $-1 #
edge $404 -1 $-1 $405 2.4118649973628266 $406 3.8713203098167597 $261 $407 forward @7 unknown #
convexity-sys-attrib $-1 -1 $-1 $155 $102 #
point $-1 -1 $-1 0 15 15 #
face $408 -1 $-1 $409 $410 $10 $-1 $411 forward single #
convexity-sys-attrib $-1 -1 $-1 $159 $104 #
point $-1 -1 $-1 0 0 7.5 #
model_id-kcp-attrib $-1 -1 $-1 $-1 $164 1 1021324617 1021324617 -617218046 2 #
face $-1 -1 $-1 $-1 $179 $27 $-1 $412 reversed single #
loop $-1 -1 $-1 $-1 $285 $164 #
plane-surface $-1 -1 $-1 0 17.5 0 0 -1 0 0 0 -1 forward_v I I I I #
coedge $-1 -1 $-1 $413 $283 $286 $414 forward $165 $-1 #
coedge $-1 -1 $-1 $289 $167 $168 $277 reversed $110 $-1 #
coedge $-1 -1 $-1 $283 $413 $167 $275 reversed $165 $-1 #
edge $-1 -1 $-1 $290 -102.5 $415 102.5 $274 $416 forward @7 unknown #
coedge $-1 -1 $-1 $169 $168 $413 $417 forward $77 $-1 #
edge $-1 -1 $-1 $281 -15 $415 15 $273 $418 forward @7 unknown #
coedge $-1 -1 $-1 $286 $285 $169 $279 reversed $270 $-1 #
edge $-1 -1 $-1 $419 -15 $280 15 $278 $420 forward @7 unknown #
vertex $-1 -1 $-1 $171 $421 #
vertex $-1 -1 $-1 $292 $422 #
straight-curve $-1 -1 $-1 15 0 -102.5 0 -1 0 I I #
coedge $-1 -1 $-1 $272 $274 $172 $284 reversed $165 $-1 #
edge $-1 -1 $-1 $287 -17.5 $290 17.5 $283 $423 forward @7 unknown #
coedge $-1 -1 $-1 $278 $173 $178 $293 forward $270 $-1 #
coedge $-1 -1 $-1 $173 $278 $272 $414 reversed $270 $-1 #
vertex $-1 -1 $-1 $174 $424 #
straight-curve $-1 -1 $-1 0 17.5 102.5 -1 0 0 I I #
coedge $-1 -1 $-1 $175 $273 $177 $292 reversed $110 $-1 #
vertex $-1 -1 $-1 $284 $425 #
straight-curve $-1 -1 $-1 0 -17.5 102.5 1 0 0 I I #
edge $-1 -1 $-1 $180 -102.5 $281 102.5 $177 $426 forward @7 unknown #
edge $-1 -1 $-1 $181 -102.5 $280 102.5 $178 $427 forward @7 unknown #
point $-1 -1 $-1 15 -17.5 102.5 #
point $-1 -1 $-1 15 17.5 102.5 #
face $-1 -1 $-1 $428 $429 $29 $-1 $430 reversed single #
loop $-1 -1 $-1 $431 $432 $183 #
cone-surface $-1 -1 $-1 0 2.5 87.5 0 -1 0 0 0 7.5 1 I I 0 -1 7.5 forward I I I I #
coedge $-1 -1 $-1 $193 $433 $195 $315 forward $184 $-1 #
coedge $-1 -1 $-1 $434 $186 $433 $435 reversed $118 $-1 #
coedge $-1 -1 $-1 $186 $434 $187 $305 forward $118 $-1 #
coedge $-1 -1 $-1 $189 $195 $186 $303 reversed $196 $-1 #
edge $-1 -1 $-1 $306 -58.75 $436 -43.75 $186 $437 forward @7 unknown #
coedge $-1 -1 $-1 $188 $187 $438 $439 reversed $81 $-1 #
edge $-1 -1 $-1 $440 0 $306 20 $301 $441 forward @7 unknown #
vertex $-1 -1 $-1 $305 $442 #
straight-curve $-1 -1 $-1 0 -17.5 102.5 1 0 0 I I #
coedge $-1 -1 $-1 $438 $443 $191 $309 forward $444 $-1 #
edge $445 -1 $-1 $313 43.75 $310 58.75 $191 $446 forward @7 unknown #
vertex $-1 -1 $-1 $309 $447 #
straight-curve $-1 -1 $-1 -15 2.5 102.5 0 -1 0 I I #
coedge $-1 -1 $-1 $433 $193 $443 $448 reversed $184 $-1 #
vertex $-1 -1 $-1 $448 $449 #
straight-curve $-1 -1 $-1 -15 2.5 87.5 0 -1 0 I I #
edge $-1 -1 $-1 $436 1.5707963267948966 $197 4.7123889803846897 $299 $450 forward @7 unknown #
point $-1 -1 $-1 -15 -17.5 87.5 #
point $-1 -1 $-1 -15 -17.5 102.5 #
face $-1 -1 $-1 $342 $337 $31 $-1 $451 forward single #
loop $-1 -1 $-1 $-1 $452 $200 #
plane-surface $-1 -1 $-1 -2.8868 -9.5 82.5 -0.86602925472198611 0 -0.4999933299211915 -0.4999933299211915 0 0.86602925472198611 forward_v I I I I #
coedge $-1 -1 $-1 $453 $454 $455 $456 forward $201 $-1 #
coedge $-1 -1 $-1 $457 $203 $454 $458 reversed $126 $-1 #
coedge $-1 -1 $-1 $203 $457 $204 $327 forward $126 $-1 #
coedge $-1 -1 $-1 $206 $455 $203 $325 reversed $213 $-1 #
edge $-1 -1 $-1 $328 -4.3300942546967214 $459 1.4433827643967132 $203 $460 forward @7 unknown #
coedge $-1 -1 $-1 $205 $204 $461 $462 reversed $85 $-1 #
edge $-1 -1 $-1 $463 0 $328 8 $323 $464 forward @7 unknown #
vertex $-1 -1 $-1 $327 $465 #
straight-curve $-1 -1 $-1 5.0518317547215696 -17.5 88.749988300270957 0.4999933299211915 0 -0.86602925472198611 I I #
coedge $-1 -1 $-1 $461 $466 $208 $331 forward $467 $-1 #
edge $468 -1 $-1 $338 -4.3301999999999996 $333 1.4434 $208 $469 forward @7 unknown #
convexity-sys-attrib $-1 -1 $-1 $-1 $209 #
vertex $-1 -1 $-1 $331 $470 #
straight-curve $-1 -1 $-1 2.8867999999999991 -9.5 92.5 0 -1 0 I I #
coedge $-1 -1 $-1 $471 $210 $466 $472 reversed $337 $-1 #
coedge $-1 -1 $-1 $210 $471 $212 $341 forward $337 $-1 #
loop $-1 -1 $-1 $-1 $336 $318 #
vertex $-1 -1 $-1 $472 $473 #
straight-curve $-1 -1 $-1 -2.8868 -9.5 92.5 0 -1 0 I I #
coedge $-1 -1 $-1 $455 $212 $452 $474 reversed $213 $-1 #
edge $-1 -1 $-1 $475 -4.3300942546967214 $214 1.4433827643967128 $336 $476 forward @7 unknown #
face $-1 -1 $-1 $477 $213 $31 $-1 $478 reversed single #
point $-1 -1 $-1 -2.8868 -17.5 92.5 #
point $-1 -1 $-1 2.8867999999999991 -17.5 92.5 #
face $-1 -1 $-1 $-1 $479 $33 $-1 $480 forward single #
loop $-1 -1 $-1 $-1 $226 $217 #
plane-surface $-1 -1 $-1 15 5 87.5 1 0 0 0 0 -1 forward_v I I I I #
coedge $-1 -1 $-1 $481 $220 $229 $362 reversed $134 $-1 #
coedge $-1 -1 $-1 $220 $481 $221 $351 forward $134 $-1 #
coedge $-1 -1 $-1 $222 $221 $482 $483 reversed $89 $-1 #
edge $-1 -1 $-1 $484 0 $354 22.5 $349 $485 forward @7 unknown #
coedge $-1 -1 $-1 $486 $226 $222 $353 reversed $346 $-1 #
edge $-1 -1 $-1 $487 0 $355 22.5 $222 $488 forward @7 unknown #
vertex $-1 -1 $-1 $225 $489 #
vertex $-1 -1 $-1 $227 $490 #
straight-curve $-1 -1 $-1 7.5 -17.5 -102.5 1 0 0 I I #
straight-curve $-1 -1 $-1 -15 -17.5 -51.25 0 0 -1 I I #
coedge $-1 -1 $-1 $226 $486 $228 $361 forward $346 $-1 #
straight-curve $-1 -1 $-1 15 -17.5 43.75 0 0 1 I I #
coedge $-1 -1 $-1 $229 $228 $491 $492 reversed $218 $-1 #
edge $-1 -1 $-1 $493 0 $230 22.5 $358 $494 forward @7 unknown #
edge $-1 -1 $-1 $495 0 $231 22.5 $229 $496 forward @7 unknown #
point $-1 -1 $-1 15 -17.5 87.5 #
point $-1 -1 $-1 -15 -17.5 87.5 #
face $-1 -1 $-1 $-1 $497 $35 $-1 $498 reversed single #
cone-surface $-1 -1 $-1 0 15 87.5 0 1 0 0 0 15 1 I I 0 -1 15 forward I I I I #
coedge $-1 -1 $-1 $499 $236 $245 $381 reversed $142 $-1 #
coedge $-1 -1 $-1 $236 $499 $237 $370 forward $142 $-1 #
coedge $-1 -1 $-1 $238 $237 $500 $501 reversed $93 $-1 #
edge $-1 -1 $-1 $502 0 $373 2.5 $368 $503 forward @7 unknown #
coedge $-1 -1 $-1 $504 $242 $238 $372 reversed $234 $-1 #
edge $-1 -1 $-1 $505 0 $374 2.5 $238 $506 forward @7 unknown #
vertex $-1 -1 $-1 $241 $507 #
vertex $-1 -1 $-1 $243 $508 #
straight-curve $-1 -1 $-1 -7.5 17.5 -102.5 -1 0 0 I I #
straight-curve $-1 -1 $-1 15 17.5 -51.25 0 0 -1 I I #
coedge $-1 -1 $-1 $242 $504 $244 $380 forward $234 $-1 #
straight-curve $-1 -1 $-1 -15 17.5 43.75 0 0 1 I I #
coedge $-1 -1 $-1 $245 $244 $509 $510 reversed $246 $-1 #
edge $-1 -1 $-1 $511 0 $247 2.5 $377 $512 forward @7 unknown #
edge $-1 -1 $-1 $513 0 $248 2.5 $245 $514 forward @7 unknown #
point $-1 -1 $-1 -15 17.5 87.5 #
point $-1 -1 $-1 15 17.5 87.5 #
model_id-kcp-attrib $-1 -1 $-1 $-1 $251 1 1021324617 1021324617 -617218047 8 #
face $515 -1 $-1 $516 $517 $10 $-1 $518 reversed single #
loop $-1 -1 $-1 $-1 $261 $251 #
plane-surface $-1 -1 $-1 0 2.5 -95 0 1 0 0 0 1 forward_v I I I I #
coedge $-1 -1 $-1 $519 $520 $521 $522 forward $252 $-1 #
coedge $-1 -1 $-1 $521 $254 $403 $523 forward $151 $-1 #
coedge $-1 -1 $-1 $254 $521 $255 $393 reversed $151 $-1 #
edge $524 -1 $-1 $398 -5 $405 5 $254 $525 forward @7 unknown #
coedge $-1 -1 $-1 $256 $255 $520 $526 reversed $98 $-1 #
edge $527 -1 $-1 $398 -83.819660112501055 $528 95 $390 $529 forward @7 unknown #
coedge $-1 -1 $-1 $530 $400 $256 $395 forward $517 $-1 #
edge $531 -1 $-1 $397 -83.819660112501055 $532 95 $256 $533 forward @7 unknown #
attrib_edge_convexity-kcp-attrib $-1 -1 $534 $-1 $258 2 #
vertex $-1 -1 $-1 $395 $535 #
vertex $-1 -1 $-1 $393 $536 #
ellipse-curve $-1 -1 $-1 0 12.5 0 0 -1 0 0 0 15 1 I I #
coedge $-1 -1 $-1 $394 $537 $260 $401 forward $517 $-1 #
edge $538 -1 $-1 $406 -5 $397 5 $400 $539 forward @7 unknown #
coedge $-1 -1 $-1 $540 $261 $537 $541 forward $386 $-1 #
coedge $-1 -1 $-1 $261 $540 $389 $523 reversed $386 $-1 #
attrib_edge_convexity-kcp-attrib $-1 -1 $542 $-1 $262 2 #
vertex $-1 -1 $-1 $523 $543 #
vertex $-1 -1 $-1 $541 $544 #
ellipse-curve $-1 -1 $-1 0 2.5 0 0 1 0 0 0 15 1 I I #
model_id-kcp-attrib $-1 -1 $-1 $-1 $265 1 1021324617 1021324617 -617218047 17 #
face $545 -1 $-1 $-1 $546 $10 $-1 $547 forward single #
loop $-1 -1 $-1 $158 $548 $265 #
cone-surface $-1 -1 $-1 0 -10 0 0 1 0 0 0 7.5 1 I I 0 1 7.5 forward I I I I #
plane-surface $-1 -1 $-1 15 0 0 -1 0 0 0 0 1 forward_v I I I I #
coedge $-1 -1 $-1 $274 $272 $276 $417 reversed $165 $-1 #
edge $-1 -1 $-1 $287 -102.5 $419 102.5 $286 $549 forward @7 unknown #
vertex $-1 -1 $-1 $417 $550 #
straight-curve $-1 -1 $-1 -15 -17.5 0 0 0 -1 I I #
edge $-1 -1 $-1 $415 -17.5 $419 17.5 $413 $551 forward @7 unknown #
straight-curve $-1 -1 $-1 0 -17.5 -102.5 -1 0 0 I I #
vertex $-1 -1 $-1 $279 $552 #
straight-curve $-1 -1 $-1 0 17.5 -102.5 1 0 0 I I #
point $-1 -1 $-1 15 17.5 -102.5 #
point $-1 -1 $-1 15 -17.5 -102.5 #
straight-curve $-1 -1 $-1 -15 0 102.5 0 -1 0 I I #
point $-1 -1 $-1 -15 17.5 102.5 #
point $-1 -1 $-1 -15 -17.5 102.5 #
straight-curve $-1 -1 $-1 15 -17.5 0 0 0 -1 I I #
straight-curve $-1 -1 $-1 15 17.5 0 0 0 -1 I I #
face $-1 -1 $-1 $-1 $553 $29 $-1 $554 forward single #
loop $-1 -1 $-1 $196 $555 $296 #
plane-surface $-1 -1 $-1 4.4408920985006262e-016 -17.5 89.454058606557382 0 1 0 0 0 1 forward_v I I I I #
loop $-1 -1 $-1 $-1 $556 $183 #
coedge $-1 -1 $-1 $432 $432 $555 $557 forward $297 $-1 #
coedge $-1 -1 $-1 $299 $312 $300 $435 forward $184 $-1 #
coedge $-1 -1 $-1 $301 $300 $558 $559 reversed $118 $-1 #
edge $-1 -1 $-1 $560 0 $436 20 $433 $561 forward @7 unknown #
vertex $-1 -1 $-1 $435 $562 #
straight-curve $-1 -1 $-1 15 -17.5 43.75 0 0 -1 I I #
coedge $-1 -1 $-1 $558 $308 $304 $439 forward $444 $-1 #
edge $563 -1 $-1 $310 -15 $440 15 $304 $564 forward @7 unknown #
vertex $-1 -1 $-1 $439 $565 #
straight-curve $-1 -1 $-1 15 2.5 102.5 0 -1 0 I I #
point $-1 -1 $-1 15 -17.5 102.5 #
coedge $-1 -1 $-1 $308 $558 $312 $448 forward $444 $-1 #
loop $-1 -1 $-1 $-1 $443 $428 #
convexity-sys-attrib $-1 -1 $-1 $-1 $309 #
straight-curve $-1 -1 $-1 -15 2.5 43.75 0 0 1 I I #
point $-1 -1 $-1 -15 2.5 102.5 #
edge $566 -1 $-1 $560 1.5707963267948966 $313 4.7123889803846897 $312 $567 forward @7 unknown #
point $-1 -1 $-1 -15 2.5 87.5 #
ellipse-curve $-1 -1 $-1 0 -17.5 87.5 0 1 0 0 0 15 1 I I #
plane-surface $-1 -1 $-1 -5.7735000000000003 -9.5 87.5 -0.86602925472198611 0 0.4999933299211915 0.4999933299211915 0 0.86602925472198611 forward_v I I I I #
coedge $-1 -1 $-1 $568 $569 $340 $474 forward $319 $-1 #
coedge $-1 -1 $-1 $570 $321 $569 $571 reversed $201 $-1 #
coedge $-1 -1 $-1 $321 $570 $322 $458 forward $201 $-1 #
coedge $-1 -1 $-1 $324 $340 $321 $456 reversed $213 $-1 #
edge $-1 -1 $-1 $459 -4.3301999999999996 $572 1.4434 $321 $573 forward @7 unknown #
coedge $-1 -1 $-1 $323 $322 $574 $575 reversed $126 $-1 #
edge $-1 -1 $-1 $576 0 $459 8 $454 $577 forward @7 unknown #
vertex $-1 -1 $-1 $458 $578 #
straight-curve $-1 -1 $-1 3.6084817547215695 -17.5 83.750011699729043 -0.4999933299211915 0 -0.86602925472198611 I I #
coedge $-1 -1 $-1 $574 $330 $326 $462 forward $467 $-1 #
edge $579 -1 $-1 $333 -4.3301212739434298 $463 1.4433557451500045 $326 $580 forward @7 unknown #
vertex $-1 -1 $-1 $462 $581 #
straight-curve $-1 -1 $-1 5.7735000000000003 -9.5 87.5 0 -1 0 I I #
point $-1 -1 $-1 5.7735000000000003 -17.5 87.5 #
coedge $-1 -1 $-1 $330 $582 $335 $472 forward $467 $-1 #
loop $-1 -1 $-1 $-1 $466 $477 #
convexity-sys-attrib $-1 -1 $-1 $-1 $331 #
straight-curve $-1 -1 $-1 1.4434 -9.5 92.5 1 0 0 I I #
point $-1 -1 $-1 2.8868 -9.5 92.5 #
coedge $-1 -1 $-1 $336 $335 $568 $583 forward $337 $-1 #
edge $584 -1 $-1 $585 -4.3300942546967214 $338 1.4433827643967128 $335 $586 forward @7 unknown #
point $-1 -1 $-1 -2.8868 -9.5 92.5 #
edge $-1 -1 $-1 $572 -4.3301212739434298 $475 1.4433557451500045 $452 $587 forward @7 unknown #
vertex $-1 -1 $-1 $583 $588 #
straight-curve $-1 -1 $-1 -3.6084817547215695 -17.5 91.249988300270957 0.4999933299211915 0 0.86602925472198611 I I #
face $-1 -1 $-1 $-1 $467 $31 $-1 $589 forward single #
plane-surface $-1 -1 $-1 3.3643599709988399e-017 -17.5 87.5 0 1 0 0 0 1 forward_v I I I I #
loop $-1 -1 $-1 $-1 $491 $345 #
plane-surface $-1 -1 $-1 0 5 -4.8288449039319943 0 1 0 0 0 1 forward_v I I I I #
coedge $-1 -1 $-1 $349 $348 $590 $591 reversed $134 $-1 #
coedge $-1 -1 $-1 $590 $592 $350 $483 forward $479 $-1 #
edge $593 -1 $-1 $487 -15 $484 15 $350 $594 forward @7 unknown #
vertex $-1 -1 $-1 $483 $595 #
straight-curve $-1 -1 $-1 -15 5 -102.5 0 -1 0 I I #
coedge $-1 -1 $-1 $358 $352 $592 $596 reversed $346 $-1 #
vertex $-1 -1 $-1 $596 $597 #
straight-curve $-1 -1 $-1 15 5 -102.5 0 -1 0 I I #
point $-1 -1 $-1 -15 -17.5 -102.5 #
point $-1 -1 $-1 15 -17.5 -102.5 #
coedge $-1 -1 $-1 $592 $590 $360 $492 forward $479 $-1 #
edge $598 -1 $-1 $495 1.5707963267948966 $493 4.7123889803846897 $360 $599 forward @7 unknown #
vertex $-1 -1 $-1 $492 $600 #
straight-curve $-1 -1 $-1 15 5 87.5 0 -1 0 I I #
vertex $-1 -1 $-1 $492 $601 #
straight-curve $-1 -1 $-1 -15 5 87.5 0 -1 0 I I #
loop $-1 -1 $-1 $-1 $509 $365 #
plane-surface $-1 -1 $-1 0 15 -4.8288449039319943 0 1 0 0 0 1 forward_v I I I I #
coedge $-1 -1 $-1 $368 $367 $602 $603 reversed $142 $-1 #
coedge $-1 -1 $-1 $602 $604 $369 $501 forward $497 $-1 #
edge $605 -1 $-1 $505 -15 $502 15 $369 $606 forward @7 unknown #
vertex $-1 -1 $-1 $501 $607 #
straight-curve $-1 -1 $-1 15 15 -102.5 0 1 0 I I #
coedge $-1 -1 $-1 $377 $371 $604 $608 reversed $234 $-1 #
vertex $-1 -1 $-1 $608 $609 #
straight-curve $-1 -1 $-1 -15 15 -102.5 0 1 0 I I #
point $-1 -1 $-1 15 17.5 -102.5 #
point $-1 -1 $-1 -15 17.5 -102.5 #
coedge $-1 -1 $-1 $604 $602 $379 $510 forward $497 $-1 #
edge $610 -1 $-1 $513 1.5707963267948966 $511 4.7123889803846897 $379 $611 forward @7 unknown #
vertex $-1 -1 $-1 $510 $612 #
straight-curve $-1 -1 $-1 -15 15 87.5 0 1 0 I I #
vertex $-1 -1 $-1 $510 $613 #
straight-curve $-1 -1 $-1 15 15 87.5 0 1 0 I I #
model_id-kcp-attrib $-1 -1 $-1 $-1 $385 1 1021324617 1021324617 -617218047 9 #
face $614 -1 $-1 $615 $616 $10 $-1 $617 reversed single #
loop $-1 -1 $-1 $-1 $400 $385 #
plane-surface $-1 -1 $-1 -10 7.5 -95 1 0 0 0 0 -1 forward_v I I I I #
coedge $-1 -1 $-1 $618 $388 $540 $619 forward $252 $-1 #
coedge $-1 -1 $-1 $388 $618 $392 $526 forward $252 $-1 #
coedge $-1 -1 $-1 $390 $389 $388 $522 reversed $151 $-1 #
edge $620 -1 $-1 $528 -5 $621 5 $521 $622 forward @7 unknown #
edge $623 -1 $-1 $405 -83.819660112501055 $621 95 $389 $624 forward @7 unknown #
attrib_edge_convexity-kcp-attrib $-1 -1 $625 $-1 $391 2 #
straight-curve $-1 -1 $-1 10 7.5 -11.180339887498945 0 -1 0 I I #
edge $626 -1 $-1 $532 -10 $528 10 $392 $627 forward @7 unknown #
attrib_edge_convexity-kcp-attrib $-1 -1 $628 $-1 $393 1 #
vertex $-1 -1 $-1 $522 $629 #
straight-curve $-1 -1 $-1 10 12.5 -95 0 0 -1 I I #
coedge $-1 -1 $-1 $537 $394 $618 $630 reversed $517 $-1 #
attrib_edge_convexity-kcp-attrib $-1 -1 $631 $-1 $395 1 #
vertex $-1 -1 $-1 $526 $632 #
straight-curve $-1 -1 $-1 -10 12.5 -95 0 0 -1 I I #
convexity-sys-attrib $-1 -1 $-1 $396 $258 #
point $-1 -1 $-1 -10 12.5 -11.180339887498945 #
point $-1 -1 $-1 10 12.5 -11.180339887498945 #
coedge $-1 -1 $-1 $400 $530 $402 $541 reversed $517 $-1 #
attrib_edge_convexity-kcp-attrib $-1 -1 $633 $-1 $401 2 #
straight-curve $-1 -1 $-1 -10 7.5 -11.180339887498945 0 1 0 I I #
coedge $-1 -1 $-1 $403 $402 $519 $619 reversed $386 $-1 #
edge $634 -1 $-1 $406 -83.819660112501055 $635 95 $537 $636 forward @7 unknown #
convexity-sys-attrib $-1 -1 $-1 $404 $262 #
point $-1 -1 $-1 10 2.5 -11.180339887498945 #
point $-1 -1 $-1 -10 2.5 -11.180339887498945 #
model_id-kcp-attrib $-1 -1 $-1 $-1 $409 1 1021324617 1021324617 -617218047 18 #
loop $-1 -1 $-1 $637 $638 $409 #
plane-surface $-1 -1 $-1 0 -20 0 0 -1 0 0 0 -1 forward_v I I I I #
coedge $-1 -1 $-1 $548 $548 $639 $640 reversed $410 $-1 #
straight-curve $-1 -1 $-1 -15 17.5 0 0 0 -1 I I #
point $-1 -1 $-1 -15 -17.5 -102.5 #
straight-curve $-1 -1 $-1 -15 0 -102.5 0 1 0 I I #
point $-1 -1 $-1 -15 17.5 -102.5 #
loop $-1 -1 $-1 $444 $641 $428 #
plane-surface $-1 -1 $-1 4.4408920985006262e-016 2.5 89.454058606557382 0 1 0 0 0 1 forward_v I I I I #
coedge $-1 -1 $-1 $555 $555 $432 $557 reversed $429 $-1 #
coedge $-1 -1 $-1 $556 $556 $641 $642 reversed $431 $-1 #
edge $-1 -1 $-1 $643 0 $643 6.2831853071795862 $432 $644 forward @7 unknown #
coedge $-1 -1 $-1 $443 $438 $434 $559 forward $444 $-1 #
edge $645 -1 $-1 $440 -58.75 $560 -43.75 $434 $646 forward @7 unknown #
vertex $-1 -1 $-1 $448 $647 #
straight-curve $-1 -1 $-1 15 2.5 87.5 0 -1 0 I I #
point $-1 -1 $-1 15 -17.5 87.5 #
convexity-sys-attrib $-1 -1 $-1 $-1 $439 #
straight-curve $-1 -1 $-1 0 2.5 102.5 1 0 0 I I #
point $-1 -1 $-1 15 2.5 102.5 #
convexity-sys-attrib $-1 -1 $-1 $-1 $448 #
ellipse-curve $-1 -1 $-1 0 2.5 87.5 0 1 0 0 0 15 1 I I #
coedge $-1 -1 $-1 $648 $452 $471 $583 reversed $319 $-1 #
coedge $-1 -1 $-1 $452 $648 $453 $571 forward $319 $-1 #
coedge $-1 -1 $-1 $454 $453 $649 $650 reversed $201 $-1 #
edge $-1 -1 $-1 $651 0 $572 8 $569 $652 forward @7 unknown #
vertex $-1 -1 $-1 $571 $653 #
straight-curve $-1 -1 $-1 -1.4434 -17.5 82.5 -1 0 0 I I #
coedge $-1 -1 $-1 $649 $461 $457 $575 forward $467 $-1 #
edge $654 -1 $-1 $463 -4.3300942546967214 $576 1.4433827643967128 $457 $655 forward @7 unknown #
vertex $-1 -1 $-1 $575 $656 #
straight-curve $-1 -1 $-1 2.8867999999999991 -9.5 82.5 0 -1 0 I I #
point $-1 -1 $-1 2.8867999999999991 -17.5 82.5 #
convexity-sys-attrib $-1 -1 $-1 $-1 $462 #
straight-curve $-1 -1 $-1 5.0518317547215696 -9.5 88.749988300270957 0.4999933299211915 0 -0.86602925472198611 I I #
point $-1 -1 $-1 5.7735000000000003 -9.5 87.5 #
coedge $-1 -1 $-1 $466 $649 $648 $657 forward $467 $-1 #
edge $-1 -1 $-1 $585 0 $475 8 $471 $658 forward @7 unknown #
convexity-sys-attrib $-1 -1 $-1 $-1 $472 #
vertex $-1 -1 $-1 $472 $659 #
straight-curve $-1 -1 $-1 -3.6084817547215695 -9.5 91.249988300270957 0.4999933299211915 0 0.86602925472198611 I I #
straight-curve $-1 -1 $-1 -5.0518317547215696 -17.5 86.250011699729043 -0.4999933299211915 0 0.86602925472198611 I I #
point $-1 -1 $-1 -5.7735000000000003 -17.5 87.5 #
plane-surface $-1 -1 $-1 3.3643599709988399e-017 -9.5 87.5 0 1 0 0 0 1 forward_v I I I I #
coedge $-1 -1 $-1 $491 $482 $481 $591 forward $479 $-1 #
edge $660 -1 $-1 $484 -95.954915028125271 $495 94.045084971874729 $481 $661 forward @7 unknown #
coedge $-1 -1 $-1 $482 $491 $486 $596 forward $479 $-1 #
convexity-sys-attrib $-1 -1 $-1 $-1 $483 #
straight-curve $-1 -1 $-1 4.4408920985006262e-016 5 -102.5 -1 0 0 I I #
point $-1 -1 $-1 -15 5 -102.5 #
edge $662 -1 $-1 $493 -94.045084971874729 $487 95.954915028125271 $486 $663 forward @7 unknown #
point $-1 -1 $-1 15 5 -102.5 #
convexity-sys-attrib $-1 -1 $-1 $-1 $492 #
ellipse-curve $-1 -1 $-1 0 5 87.5 0 -1 0 0 0 15 1 I I #
point $-1 -1 $-1 15 5 87.5 #
point $-1 -1 $-1 -15 5 87.5 #
coedge $-1 -1 $-1 $509 $500 $499 $603 forward $497 $-1 #
edge $664 -1 $-1 $502 -95.954915028125271 $513 94.045084971874729 $499 $665 forward @7 unknown #
coedge $-1 -1 $-1 $500 $509 $504 $608 forward $497 $-1 #
convexity-sys-attrib $-1 -1 $-1 $-1 $501 #
straight-curve $-1 -1 $-1 -4.4408920985006262e-016 15 -102.5 1 0 0 I I #
point $-1 -1 $-1 15 15 -102.5 #
edge $666 -1 $-1 $511 -94.045084971874729 $505 95.954915028125271 $504 $667 forward @7 unknown #
point $-1 -1 $-1 -15 15 -102.5 #
convexity-sys-attrib $-1 -1 $-1 $-1 $510 #
ellipse-curve $-1 -1 $-1 0 15 87.5 0 1 0 0 0 15 1 I I #
point $-1 -1 $-1 -15 15 87.5 #
point $-1 -1 $-1 15 15 87.5 #
model_id-kcp-attrib $-1 -1 $-1 $-1 $516 1 1021324617 1021324617 -617218047 10 #
face $668 -1 $-1 $669 $670 $10 $-1 $671 reversed single #
loop $-1 -1 $-1 $-1 $672 $516 #
plane-surface $-1 -1 $-1 -2.8868 -20 5 -0.86602925472198611 0 0.4999933299211915 0.4999933299211915 0 0.86602925472198611 forward_v I I I I #
coedge $-1 -1 $-1 $520 $519 $530 $630 forward $252 $-1 #
edge $673 -1 $-1 $621 -10 $635 10 $540 $674 forward @7 unknown #
attrib_edge_convexity-kcp-attrib $-1 -1 $675 $-1 $522 1 #
vertex $-1 -1 $-1 $523 $676 #
straight-curve $-1 -1 $-1 10 7.5 -190 0 -1 0 I I #
attrib_edge_convexity-kcp-attrib $-1 -1 $677 $-1 $523 1 #
straight-curve $-1 -1 $-1 10 2.5 -95 0 0 -1 I I #
convexity-sys-attrib $-1 -1 $-1 $524 $391 #
attrib_edge_convexity-kcp-attrib $-1 -1 $678 $-1 $526 1 #
straight-curve $-1 -1 $-1 0 12.5 -190 1 0 0 I I #
convexity-sys-attrib $-1 -1 $-1 $527 $393 #
point $-1 -1 $-1 10 12.5 -190 #
edge $679 -1 $-1 $635 -5 $532 5 $530 $680 forward @7 unknown #
convexity-sys-attrib $-1 -1 $-1 $531 $395 #
point $-1 -1 $-1 -10 12.5 -190 #
convexity-sys-attrib $-1 -1 $-1 $538 $401 #
attrib_edge_convexity-kcp-attrib $-1 -1 $681 $-1 $541 1 #
vertex $-1 -1 $-1 $630 $682 #
straight-curve $-1 -1 $-1 -10 2.5 -95 0 0 -1 I I #
loop $-1 -1 $-1 $-1 $639 $409 #
coedge $-1 -1 $-1 $683 $684 $685 $686 forward $546 $-1 #
coedge $-1 -1 $-1 $639 $639 $548 $640 forward $637 $-1 #
edge $-1 -1 $-1 $687 0 $687 6.2831853071795862 $639 $688 forward @7 unknown #
coedge $-1 -1 $-1 $641 $641 $556 $642 forward $553 $-1 #
edge $689 -1 $-1 $690 0 $690 6.2831853071795862 $556 $691 forward @7 unknown #
vertex $-1 -1 $-1 $557 $692 #
ellipse-curve $-1 -1 $-1 0 -17.5 87.5 0 -1 0 0 0 7.5 1 I I #
convexity-sys-attrib $-1 -1 $-1 $-1 $559 #
straight-curve $-1 -1 $-1 15 2.5 43.75 0 0 -1 I I #
point $-1 -1 $-1 15 2.5 87.5 #
coedge $-1 -1 $-1 $569 $568 $582 $657 reversed $319 $-1 #
coedge $-1 -1 $-1 $582 $574 $570 $650 forward $467 $-1 #
edge $693 -1 $-1 $576 -4.3301999999999996 $651 1.4434 $570 $694 forward @7 unknown #
vertex $-1 -1 $-1 $650 $695 #
straight-curve $-1 -1 $-1 -2.8868 -9.5 82.5 0 -1 0 I I #
point $-1 -1 $-1 -2.8868 -17.5 82.5 #
convexity-sys-attrib $-1 -1 $-1 $-1 $575 #
straight-curve $-1 -1 $-1 3.6084817547215695 -9.5 83.750011699729043 -0.4999933299211915 0 -0.86602925472198611 I I #
point $-1 -1 $-1 2.8868 -9.5 82.5 #
edge $696 -1 $-1 $651 -4.3301212739434298 $585 1.4433557451500045 $648 $697 forward @7 unknown #
straight-curve $-1 -1 $-1 -5.7735000000000003 -9.5 87.5 0 -1 0 I I #
point $-1 -1 $-1 -5.7735000000000003 -9.5 87.5 #
convexity-sys-attrib $-1 -1 $-1 $-1 $591 #
straight-curve $-1 -1 $-1 -15 5 -6.5450849718747364 0 0 1 I I #
convexity-sys-attrib $-1 -1 $-1 $-1 $596 #
straight-curve $-1 -1 $-1 15 5 -6.5450849718747364 0 0 -1 I I #
convexity-sys-attrib $-1 -1 $-1 $-1 $603 #
straight-curve $-1 -1 $-1 15 15 -6.5450849718747364 0 0 1 I I #
convexity-sys-attrib $-1 -1 $-1 $-1 $608 #
straight-curve $-1 -1 $-1 -15 15 -6.5450849718747364 0 0 -1 I I #
model_id-kcp-attrib $-1 -1 $-1 $-1 $615 1 1021324617 1021324617 -617218047 11 #
face $698 -1 $-1 $699 $700 $10 $-1 $701 reversed single #
loop $-1 -1 $-1 $-1 $702 $615 #
plane-surface $-1 -1 $-1 -5.7735000000000003 -20 0 -0.86602925472198611 0 -0.4999933299211915 -0.4999933299211915 0 0.86602925472198611 forward_v I I I I #
coedge $-1 -1 $-1 $703 $704 $705 $706 reversed $616 $-1 #
attrib_edge_convexity-kcp-attrib $-1 -1 $707 $-1 $619 1 #
straight-curve $-1 -1 $-1 0 2.5 -190 -1 0 0 I I #
convexity-sys-attrib $-1 -1 $-1 $620 $522 #
point $-1 -1 $-1 10 2.5 -190 #
convexity-sys-attrib $-1 -1 $-1 $623 $523 #
convexity-sys-attrib $-1 -1 $-1 $626 $526 #
attrib_edge_convexity-kcp-attrib $-1 -1 $708 $-1 $630 1 #
straight-curve $-1 -1 $-1 -10 7.5 -190 0 1 0 I I #
convexity-sys-attrib $-1 -1 $-1 $634 $541 #
point $-1 -1 $-1 -10 2.5 -190 #
coedge $-1 -1 $-1 $709 $638 $710 $711 forward $546 $-1 #
coedge $-1 -1 $-1 $638 $712 $713 $714 forward $546 $-1 #
coedge $-1 -1 $-1 $704 $703 $638 $686 reversed $616 $-1 #
edge $-1 -1 $-1 $715 -4.3300942546967169 $716 1.4433827643967172 $638 $717 forward @7 unknown #
vertex $-1 -1 $-1 $640 $718 #
ellipse-curve $-1 -1 $-1 0 -20 0 0 -1 0 0 0 7.5 1 I I #
convexity-sys-attrib $-1 -1 $-1 $-1 $642 #
vertex $-1 -1 $-1 $642 $719 #
ellipse-curve $-1 -1 $-1 0 2.5 87.5 0 -1 0 0 0 7.5 1 I I #
point $-1 -1 $-1 0 -17.5 95 #
convexity-sys-attrib $-1 -1 $-1 $-1 $650 #
straight-curve $-1 -1 $-1 -1.4434 -9.5 82.5 -1 0 0 I I #
point $-1 -1 $-1 -2.8868 -9.5 82.5 #
convexity-sys-attrib $-1 -1 $-1 $-1 $657 #
straight-curve $-1 -1 $-1 -5.0518317547215696 -9.5 86.250011699729043 -0.4999933299211915 0 0.86602925472198611 I I #
model_id-kcp-attrib $-1 -1 $-1 $-1 $669 1 1021324617 1021324617 -617218047 12 #
face $720 -1 $-1 $721 $722 $10 $-1 $723 reversed single #
loop $-1 -1 $-1 $-1 $724 $669 #
plane-surface $-1 -1 $-1 -2.8868 -20 -5 0 0 -1 -1 0 0 forward_v I I I I #
coedge $-1 -1 $-1 $725 $726 $727 $728 reversed $670 $-1 #
coedge $-1 -1 $-1 $685 $672 $729 $730 reversed $616 $-1 #
coedge $-1 -1 $-1 $672 $685 $725 $731 forward $616 $-1 #
coedge $-1 -1 $-1 $727 $732 $672 $706 forward $733 $-1 #
edge $734 -1 $-1 $735 -5.773477019093435 $736 0 $672 $737 forward @7 unknown #
convexity-sys-attrib $-1 -1 $-1 $673 $619 #
convexity-sys-attrib $-1 -1 $-1 $679 $630 #
coedge $-1 -1 $-1 $738 $683 $739 $740 forward $546 $-1 #
coedge $-1 -1 $-1 $729 $741 $683 $711 reversed $742 $-1 #
edge $-1 -1 $-1 $716 -4.3301999999999996 $743 1.4434 $683 $744 forward @7 unknown #
coedge $-1 -1 $-1 $684 $738 $745 $746 forward $546 $-1 #
coedge $-1 -1 $-1 $726 $725 $684 $714 reversed $670 $-1 #
edge $-1 -1 $-1 $747 -4.3301212739434343 $715 1.4433557451499996 $684 $748 forward @7 unknown #
vertex $-1 -1 $-1 $686 $749 #
vertex $-1 -1 $-1 $686 $750 #
straight-curve $-1 -1 $-1 -3.6084817547215695 -20 3.7499883002709513 0.4999933299211915 0 0.86602925472198611 I I #
point $-1 -1 $-1 0 -20 7.5 #
point $-1 -1 $-1 0 2.5 95 #
model_id-kcp-attrib $-1 -1 $-1 $-1 $699 1 1021324617 1021324617 -617218047 13 #
face $751 -1 $-1 $752 $753 $10 $-1 $754 reversed single #
loop $-1 -1 $-1 $-1 $755 $699 #
plane-surface $-1 -1 $-1 2.8868 -20 -5 0.86602925472198611 0 -0.4999933299211915 -0.4999933299211915 0 -0.86602925472198611 forward_v I I I I #
coedge $-1 -1 $-1 $756 $757 $758 $759 reversed $700 $-1 #
coedge $-1 -1 $-1 $713 $702 $704 $731 reversed $670 $-1 #
coedge $-1 -1 $-1 $702 $713 $756 $760 forward $670 $-1 #
coedge $-1 -1 $-1 $758 $705 $702 $728 forward $733 $-1 #
edge $761 -1 $-1 $736 -5.773477019093435 $762 0 $702 $763 forward @7 unknown #
coedge $-1 -1 $-1 $764 $710 $703 $730 forward $742 $-1 #
edge $-1 -1 $-1 $716 0 $735 8 $703 $765 forward @7 unknown #
edge $-1 -1 $-1 $715 0 $736 8 $725 $766 forward @7 unknown #
coedge $-1 -1 $-1 $705 $767 $764 $768 forward $733 $-1 #
loop $-1 -1 $-1 $-1 $705 $769 #
attrib_edge_convexity-kcp-attrib $-1 -1 $770 $-1 $706 2 #
vertex $-1 -1 $-1 $730 $771 #
vertex $-1 -1 $-1 $731 $772 #
straight-curve $-1 -1 $-1 -5.7735000000000003 -12 0 -0.49999332992119144 0 -0.866029254721986 I I #
coedge $-1 -1 $-1 $712 $709 $773 $774 forward $546 $-1 #
coedge $-1 -1 $-1 $775 $776 $709 $740 reversed $753 $-1 #
edge $-1 -1 $-1 $743 -4.3301212739434343 $777 1.4433557451499996 $709 $778 forward @7 unknown #
coedge $-1 -1 $-1 $710 $764 $775 $779 reversed $742 $-1 #
loop $-1 -1 $-1 $-1 $764 $752 #
vertex $-1 -1 $-1 $740 $780 #
straight-curve $-1 -1 $-1 1.4434 -20 5 1 0 0 I I #
coedge $-1 -1 $-1 $757 $756 $712 $746 reversed $700 $-1 #
edge $-1 -1 $-1 $781 -4.3301999999999996 $747 1.4434 $712 $782 forward @7 unknown #
vertex $-1 -1 $-1 $714 $783 #
straight-curve $-1 -1 $-1 -5.0518317547215696 -20 -1.2499883002709511 -0.4999933299211915 0 0.86602925472198611 I I #
point $-1 -1 $-1 -5.7735000000000003 -20 0 #
point $-1 -1 $-1 -2.8868 -20 5 #
model_id-kcp-attrib $-1 -1 $-1 $-1 $721 1 1021324617 1021324617 -617218047 14 #
face $784 -1 $-1 $769 $742 $10 $-1 $785 reversed single #
loop $-1 -1 $-1 $-1 $786 $721 #
plane-surface $-1 -1 $-1 5.7735000000000003 -20 0 0.86602925472198611 0 0.4999933299211915 0.4999933299211915 0 -0.86602925472198611 forward_v I I I I #
coedge $-1 -1 $-1 $787 $788 $789 $790 reversed $722 $-1 #
coedge $-1 -1 $-1 $745 $724 $726 $760 reversed $700 $-1 #
coedge $-1 -1 $-1 $724 $745 $787 $791 forward $700 $-1 #
coedge $-1 -1 $-1 $789 $727 $724 $759 forward $733 $-1 #
edge $792 -1 $-1 $762 -5.7736000000000001 $793 0 $724 $794 forward @7 unknown #
edge $-1 -1 $-1 $747 0 $762 8 $756 $795 forward @7 unknown #
attrib_edge_convexity-kcp-attrib $-1 -1 $796 $-1 $728 2 #
vertex $-1 -1 $-1 $760 $797 #
straight-curve $-1 -1 $-1 -2.8868 -12 -5 0.49999332992119144 0 -0.866029254721986 I I #
coedge $-1 -1 $-1 $741 $729 $732 $768 reversed $742 $-1 #
straight-curve $-1 -1 $-1 -2.8868 -20 5 0 1 0 I I #
straight-curve $-1 -1 $-1 -5.7735000000000003 -20 0 0 1 0 I I #
coedge $-1 -1 $-1 $732 $789 $786 $798 forward $733 $-1 #
edge $799 -1 $-1 $800 -5.7736000000000001 $735 0 $764 $801 forward @7 unknown #
face $802 -1 $-1 $265 $733 $10 $-1 $803 forward single #
convexity-sys-attrib $-1 -1 $-1 $734 $706 #
point $-1 -1 $-1 -2.8868 -12 5 #
point $-1 -1 $-1 -5.7735000000000003 -12 0 #
coedge $-1 -1 $-1 $788 $787 $738 $774 reversed $722 $-1 #
edge $-1 -1 $-1 $777 -4.3300942546967169 $781 1.4433827643967172 $738 $804 forward @7 unknown #
coedge $-1 -1 $-1 $786 $739 $741 $779 forward $753 $-1 #
coedge $-1 -1 $-1 $739 $786 $788 $805 reversed $753 $-1 #
vertex $-1 -1 $-1 $774 $806 #
straight-curve $-1 -1 $-1 5.0518317547215696 -20 1.2499883002709511 0.4999933299211915 0 -0.86602925472198611 I I #
edge $-1 -1 $-1 $743 0 $800 8 $741 $807 forward @7 unknown #
point $-1 -1 $-1 2.8868 -20 5 #
vertex $-1 -1 $-1 $746 $808 #
straight-curve $-1 -1 $-1 -1.4434 -20 -5 -1 0 0 I I #
point $-1 -1 $-1 -2.8868 -20 -5 #
model_id-kcp-attrib $-1 -1 $-1 $-1 $752 1 1021324617 1021324617 -617218047 15 #
plane-surface $-1 -1 $-1 2.8868 -20 5 0 0 1 1 0 0 forward_v I I I I #
coedge $-1 -1 $-1 $776 $775 $767 $798 reversed $753 $-1 #
coedge $-1 -1 $-1 $773 $755 $757 $791 reversed $722 $-1 #
coedge $-1 -1 $-1 $755 $773 $776 $805 forward $722 $-1 #
coedge $-1 -1 $-1 $767 $758 $755 $790 forward $733 $-1 #
edge $809 -1 $-1 $793 -5.773477019093435 $810 0 $755 $811 forward @7 unknown #
edge $-1 -1 $-1 $781 0 $793 8 $787 $812 forward @7 unknown #
attrib_edge_convexity-kcp-attrib $-1 -1 $813 $-1 $759 2 #
vertex $-1 -1 $-1 $791 $814 #
straight-curve $-1 -1 $-1 2.8868 -12 -5 1 0 0 I I #
straight-curve $-1 -1 $-1 -2.8868 -20 -5 0 1 0 I I #
convexity-sys-attrib $-1 -1 $-1 $761 $728 #
point $-1 -1 $-1 -2.8868 -12 -5 #
edge $815 -1 $-1 $810 -5.773477019093435 $800 0 $786 $816 forward @7 unknown #
attrib_edge_convexity-kcp-attrib $-1 -1 $817 $-1 $768 2 #
vertex $-1 -1 $-1 $779 $818 #
straight-curve $-1 -1 $-1 -2.8868 -12 5 -1 0 0 I I #
model_id-kcp-attrib $-1 -1 $-1 $-1 $769 1 1021324617 1021324617 -617218047 16 #
plane-surface $-1 -1 $-1 -2.8868 -12 5 0 -1 0 0 0 -1 forward_v I I I I #
straight-curve $-1 -1 $-1 3.6084817547215695 -20 -3.7499883002709513 -0.4999933299211915 0 -0.86602925472198611 I I #
edge $-1 -1 $-1 $777 0 $810 8 $776 $819 forward @7 unknown #
point $-1 -1 $-1 5.7735000000000003 -20 0 #
straight-curve $-1 -1 $-1 2.8868 -20 5 0 1 0 I I #
point $-1 -1 $-1 2.8868 -20 -5 #
attrib_edge_convexity-kcp-attrib $-1 -1 $820 $-1 $790 2 #
vertex $-1 -1 $-1 $805 $821 #
straight-curve $-1 -1 $-1 5.7735000000000003 -12 0 0.49999332992119144 0 0.866029254721986 I I #
straight-curve $-1 -1 $-1 2.8868 -20 -5 0 1 0 I I #
convexity-sys-attrib $-1 -1 $-1 $792 $759 #
point $-1 -1 $-1 2.8868 -12 -5 #
attrib_edge_convexity-kcp-attrib $-1 -1 $822 $-1 $798 2 #
straight-curve $-1 -1 $-1 2.8868 -12 5 -0.49999332992119144 0 0.866029254721986 I I #
convexity-sys-attrib $-1 -1 $-1 $799 $768 #
point $-1 -1 $-1 2.8868 -12 5 #
straight-curve $-1 -1 $-1 5.7735000000000003 -20 0 0 1 0 I I #
convexity-sys-attrib $-1 -1 $-1 $809 $790 #
point $-1 -1 $-1 5.7735000000000003 -12 0 #
convexity-sys-attrib $-1 -1 $-1 $815 $798 #
End-of-ACIS-data 