106 0 1 0           
body $-1 $1 $-1 $2 #
lump $-1 $-1 $3 $0 #
transform $-1 0 0 1 1 0 0 0 1 0 0 20 0 1 1 0 0 #
shell $-1 $-1 $-1 $4 $1 #
face $-1 $5 $6 $3 $-1 $7 forward single #
face $-1 $8 $9 $3 $-1 $10 forward single #
loop $-1 $11 $12 $4 #
cone-surface $-1 0 0 -11 0 0 1 3 0 0 1 I I 0.21693045781865616 0.97618706018395285 0 I I I I #
face $-1 $13 $14 $3 $-1 $15 forward single #
loop $-1 $-1 $16 $5 #
plane-surface $-1 0 0 -20 0 0 -1 -1 0 0 0 I I I I #
loop $-1 $-1 $17 $4 #
coedge $-1 $12 $12 $16 $18 1 $6 $-1 #
face $-1 $19 $20 $3 $-1 $21 forward single #
loop $-1 $22 $23 $8 #
plane-surface $-1 0 0 2 0 0 -1 -1 0 0 0 I I I I #
coedge $-1 $16 $16 $12 $18 0 $9 $-1 #
coedge $-1 $17 $17 $24 $25 0 $11 $-1 #
edge $-1 $26 $26 $16 $27 0 #
face $-1 $28 $29 $3 $-1 $30 forward single #
loop $-1 $31 $32 $13 #
cone-surface $-1 0 0 17 0 0 1 12 0 0 1 I I 0 1 0 I I I I #
loop $-1 $-1 $33 $8 #
coedge $-1 $23 $23 $32 $34 0 $14 $-1 #
coedge $-1 $24 $24 $17 $25 1 $35 $-1 #
edge $-1 $36 $36 $24 $37 0 #
vertex $-1 $18 $38 #
ellipse-curve $-1 0 0 -20 0 0 -1 1 0 0 1 I I #
face $-1 $39 $40 $3 $-1 $41 forward single #
loop $-1 $42 $43 $19 #
cone-surface $-1 0 0 43 0 0 1 22 0 0 1 I I 0 1 0 I I I I #
loop $-1 $-1 $44 $13 #
coedge $-1 $32 $32 $23 $34 1 $20 $-1 #
coedge $-1 $33 $33 $45 $46 1 $22 $-1 #
edge $-1 $47 $47 $23 $48 0 #
loop $-1 $49 $24 $50 #
vertex $-1 $25 $51 #
ellipse-curve $-1 0 0 -2 0 0 -1 5 0 0 1 I I #
point $-1 1 0 -20 #
face $-1 $52 $53 $3 $-1 $54 forward single #
loop $-1 $55 $56 $28 #
plane-surface $-1 0 0 32 0 0 -1 -1 0 0 0 I I I I #
loop $-1 $-1 $57 $19 #
coedge $-1 $43 $43 $58 $59 1 $29 $-1 #
coedge $-1 $44 $44 $56 $60 1 $31 $-1 #
coedge $-1 $45 $45 $33 $46 0 $49 $-1 #
edge $-1 $61 $61 $45 $62 1 #
vertex $-1 $34 $63 #
ellipse-curve $-1 0 0 2 0 0 -1 12 0 0 1 I I #
loop $-1 $-1 $45 $50 #
face $-1 $-1 $35 $3 $-1 $64 forward single #
point $-1 5 0 -2 #
face $-1 $65 $66 $3 $-1 $67 forward single #
loop $-1 $68 $69 $39 #
cone-surface $-1 0 0 64 0 0 1 17 0 0 1 I I -0.44721359549995793 0.89442719099991586 0 I I I I #
loop $-1 $-1 $58 $28 #
coedge $-1 $56 $56 $44 $60 0 $40 $-1 #
coedge $-1 $57 $57 $69 $70 0 $42 $-1 #
coedge $-1 $58 $58 $43 $59 0 $55 $-1 #
edge $-1 $71 $71 $58 $72 0 #
edge $-1 $73 $73 $56 $74 0 #
vertex $-1 $46 $75 #
ellipse-curve $-1 0 0 2 0 0 1 5 0 0 1 I I #
point $-1 12 0 2 #
cone-surface $-1 0 0 0 0 0 1 5 0 0 1 I I 0 1 0 I I I I #
face $-1 $50 $76 $3 $-1 $77 forward single #
loop $-1 $78 $79 $52 #
cone-surface $-1 0 0 129 0 0 1 12 0 0 1 I I 0 1 0 I I I I #
loop $-1 $-1 $80 $39 #
coedge $-1 $69 $69 $57 $70 1 $53 $-1 #
edge $-1 $81 $81 $69 $82 0 #
vertex $-1 $59 $83 #
ellipse-curve $-1 0 0 32 0 0 -1 22 0 0 1 I I #
vertex $-1 $60 $84 #
ellipse-curve $-1 0 0 32 0 0 1 12 0 0 1 I I #
point $-1 5 0 2 #
loop $-1 $-1 $85 $65 #
plane-surface $-1 0 0 184 0 0 1 1 0 0 0 I I I I #
loop $-1 $-1 $86 $52 #
coedge $-1 $79 $79 $80 $87 0 $66 $-1 #
coedge $-1 $80 $80 $79 $87 1 $68 $-1 #
vertex $-1 $70 $88 #
ellipse-curve $-1 0 0 54 0 0 -1 22 0 0 1 I I #
point $-1 22 0 32 #
point $-1 12 0 32 #
coedge $-1 $85 $85 $86 $89 0 $76 $-1 #
coedge $-1 $86 $86 $85 $89 1 $78 $-1 #
edge $-1 $90 $90 $79 $91 1 #
point $-1 22 0 54 #
edge $-1 $92 $92 $85 $93 0 #
vertex $-1 $87 $94 #
ellipse-curve $-1 0 0 74 0 0 -1 12 0 0 1 I I #
vertex $-1 $89 $95 #
ellipse-curve $-1 0 0 184 0 0 1 12 0 0 1 I I #
point $-1 12 0 74 #
point $-1 12 0 184 #
End-of-ACIS-data 