700 0 2 0           
24 FBMach with ACIS - 7.0.3 13 ACIS 7.0.3 NT 24 Mon May 13 17:17:05 2002 
1 9.9999999999999995e-007 1e-010 
body $2 -1 $-1 $3 $-1 $4 #
bdycol-kcp $-1 -1 1 3 $5 $6 $7 #
model_id-kcp-attrib $-1 -1 $-1 $-1 $0 1 1021324625 1021324625 -62783487 1 #
lump $-1 -1 $-1 $-1 $8 $0 #
transform $-1 -1 1 0 0 0 1 0 0 0 1 0 0 0 1 rotate no_reflect no_shear #
body $9 -1 $-1 $10 $-1 $11 #
body $12 -1 $-1 $13 $-1 $14 #
body $15 -1 $-1 $16 $-1 $17 #
shell $-1 -1 $-1 $-1 $-1 $18 $-1 $3 #
rgb_color-st-attrib $-1 -1 $19 $-1 $5 1 0.5 1 #
lump $-1 -1 $-1 $-1 $20 $5 #
transform $-1 -1 1 0 0 0 1 0 0 0 1 0 0 -5 1 no_rotate no_reflect no_shear #
model_id-kcp-attrib $-1 -1 $-1 $-1 $6 1 1021324625 1021324625 -62783486 1 #
lump $-1 -1 $-1 $-1 $21 $6 #
transform $-1 -1 1 0 0 0 1 0 0 0 1 0 0 -5 1 no_rotate no_reflect no_shear #
rgb_color-st-attrib $-1 -1 $22 $-1 $7 1 0.5 1 #
lump $-1 -1 $-1 $-1 $23 $7 #
transform $-1 -1 1 0 0 0 1 0 0 0 1 0 0 -5 1 no_rotate no_reflect no_shear #
face $24 -1 $-1 $25 $26 $8 $-1 $27 forward single #
model_id-kcp-attrib $-1 -1 $-1 $9 $5 1 1021324625 1021324625 -63766525 1 #
shell $-1 -1 $-1 $-1 $-1 $28 $-1 $10 #
shell $-1 -1 $-1 $-1 $-1 $29 $-1 $13 #
model_id-kcp-attrib $-1 -1 $-1 $15 $7 1 1021324625 1021324625 -58523644 1 #
shell $-1 -1 $-1 $-1 $-1 $30 $-1 $16 #
model_id-kcp-attrib $-1 -1 $-1 $-1 $18 1 1021324625 1021324625 -62783487 2 #
face $31 -1 $-1 $32 $33 $8 $-1 $34 forward single #
loop $-1 -1 $-1 $-1 $35 $18 #
plane-surface $-1 -1 $-1 900 50 -5 0 1 0 0 0 1 forward_v I I I I #
face $-1 -1 $-1 $36 $37 $20 $-1 $38 forward single #
face $39 -1 $-1 $40 $41 $21 $-1 $42 forward single #
face $-1 -1 $-1 $43 $44 $23 $-1 $45 forward single #
model_id-kcp-attrib $-1 -1 $-1 $-1 $25 1 1021324625 1021324625 -62783487 3 #
face $46 -1 $-1 $47 $48 $8 $-1 $49 forward single #
loop $-1 -1 $-1 $-1 $50 $25 #
plane-surface $-1 -1 $-1 750 150 -5 1 0 0 0 0 -1 forward_v I I I I #
coedge $-1 -1 $-1 $51 $52 $53 $54 reversed $26 $-1 #
face $-1 -1 $-1 $55 $56 $20 $-1 $57 forward single #
loop $-1 -1 $-1 $-1 $58 $28 #
plane-surface $-1 -1 $-1 -750 50 5 0 0 1 1 0 0 forward_v I I I I #
model_id-kcp-attrib $-1 -1 $-1 $-1 $29 1 1021324625 1021324625 -62783486 2 #
face $59 -1 $-1 $60 $61 $21 $-1 $62 reversed single #
loop $-1 -1 $-1 $-1 $63 $29 #
plane-surface $-1 -1 $-1 0 0 5 0 0 1 1 0 0 forward_v I I I I #
face $-1 -1 $-1 $64 $65 $23 $-1 $66 forward single #
loop $-1 -1 $-1 $-1 $67 $30 #
plane-surface $-1 -1 $-1 750 50 -5 0 0 -1 -1 0 0 forward_v I I I I #
model_id-kcp-attrib $-1 -1 $-1 $-1 $32 1 1021324625 1021324625 -62783487 4 #
face $68 -1 $-1 $69 $70 $8 $-1 $71 reversed single #
loop $-1 -1 $-1 $-1 $72 $32 #
plane-surface $-1 -1 $-1 0 0 0 0 0 1 1 0 0 forward_v I I I I #
coedge $-1 -1 $-1 $73 $74 $75 $76 reversed $33 $-1 #
coedge $-1 -1 $-1 $77 $35 $72 $78 reversed $26 $-1 #
coedge $-1 -1 $-1 $35 $77 $79 $80 reversed $26 $-1 #
coedge $-1 -1 $-1 $74 $73 $35 $54 forward $33 $-1 #
edge $81 -1 $-1 $82 -5 $83 5 $53 $84 forward @7 unknown #
face $-1 -1 $-1 $85 $86 $20 $-1 $87 forward single #
loop $-1 -1 $-1 $-1 $88 $36 #
plane-surface $-1 -1 $-1 -1050 50 5 -1 0 0 0 0 1 forward_v I I I I #
coedge $-1 -1 $-1 $89 $90 $91 $92 forward $37 $-1 #
model_id-kcp-attrib $-1 -1 $-1 $-1 $40 1 1021324625 1021324625 -62783486 5 #
face $93 -1 $-1 $94 $95 $21 $-1 $96 reversed single #
loop $-1 -1 $-1 $-1 $97 $40 #
plane-surface $-1 -1 $-1 0 0 -5 0 0 1 1 0 0 forward_v I I I I #
coedge $-1 -1 $-1 $98 $99 $100 $101 forward $41 $-1 #
face $-1 -1 $-1 $102 $103 $23 $-1 $104 forward single #
loop $-1 -1 $-1 $-1 $105 $43 #
plane-surface $-1 -1 $-1 1050 50 -5 1 0 0 0 0 -1 forward_v I I I I #
coedge $-1 -1 $-1 $106 $107 $108 $109 forward $44 $-1 #
model_id-kcp-attrib $-1 -1 $-1 $-1 $47 1 1021324625 1021324625 -62783487 5 #
face $110 -1 $-1 $111 $112 $8 $-1 $113 forward single #
loop $-1 -1 $-1 $-1 $75 $47 #
plane-surface $-1 -1 $-1 0 250 -5 0 -1 0 0 0 -1 forward_v I I I I #
coedge $-1 -1 $-1 $114 $115 $51 $78 forward $48 $-1 #
coedge $-1 -1 $-1 $53 $50 $114 $116 reversed $33 $-1 #
coedge $-1 -1 $-1 $50 $53 $117 $118 reversed $33 $-1 #
coedge $-1 -1 $-1 $119 $120 $50 $76 forward $70 $-1 #
edge $121 -1 $-1 $122 -5 $123 5 $75 $124 forward @7 unknown #
coedge $-1 -1 $-1 $52 $51 $125 $126 reversed $26 $-1 #
edge $127 -1 $-1 $128 -600 $82 -300 $72 $129 forward @7 unknown #
coedge $-1 -1 $-1 $130 $117 $52 $80 forward $131 $-1 #
edge $132 -1 $-1 $83 300 $133 600 $79 $134 forward @7 unknown #
attrib_edge_convexity-kcp-attrib $-1 -1 $135 $-1 $54 2 #
vertex $-1 -1 $-1 $78 $136 #
vertex $-1 -1 $-1 $80 $137 #
straight-curve $-1 -1 $-1 750 50 -5 0 0 -1 I I #
face $-1 -1 $-1 $138 $139 $20 $-1 $140 forward single #
loop $-1 -1 $-1 $-1 $141 $55 #
plane-surface $-1 -1 $-1 -1050 50 -5 0 0 -1 -1 0 0 forward_v I I I I #
coedge $-1 -1 $-1 $142 $143 $144 $145 forward $56 $-1 #
coedge $-1 -1 $-1 $146 $58 $143 $147 reversed $37 $-1 #
coedge $-1 -1 $-1 $58 $146 $148 $149 forward $37 $-1 #
coedge $-1 -1 $-1 $150 $144 $58 $92 reversed $151 $-1 #
edge $-1 -1 $-1 $152 300 $153 600 $58 $154 forward @7 unknown #
model_id-kcp-attrib $-1 -1 $-1 $-1 $60 1 1021324625 1021324625 -62783486 6 #
face $155 -1 $-1 $156 $157 $21 $-1 $158 reversed single #
loop $-1 -1 $-1 $-1 $159 $60 #
plane-surface $-1 -1 $-1 0 -250 0 0 1 0 0 0 1 forward_v I I I I #
coedge $-1 -1 $-1 $160 $161 $162 $163 forward $61 $-1 #
coedge $-1 -1 $-1 $164 $63 $165 $166 forward $41 $-1 #
coedge $-1 -1 $-1 $63 $164 $167 $168 forward $41 $-1 #
coedge $-1 -1 $-1 $169 $170 $63 $101 reversed $171 $-1 #
edge $-1 -1 $-1 $172 -250 $173 250 $100 $174 forward @7 unknown #
face $-1 -1 $-1 $175 $176 $23 $-1 $177 forward single #
loop $-1 -1 $-1 $-1 $178 $64 #
plane-surface $-1 -1 $-1 1050 50 5 0 0 1 1 0 0 forward_v I I I I #
coedge $-1 -1 $-1 $179 $180 $181 $182 forward $65 $-1 #
coedge $-1 -1 $-1 $183 $67 $180 $184 reversed $44 $-1 #
coedge $-1 -1 $-1 $67 $183 $185 $186 forward $44 $-1 #
coedge $-1 -1 $-1 $187 $181 $67 $109 reversed $188 $-1 #
edge $-1 -1 $-1 $189 300 $190 600 $67 $191 forward @7 unknown #
model_id-kcp-attrib $-1 -1 $-1 $-1 $69 1 1021324625 1021324625 -62783487 6 #
face $192 -1 $-1 $193 $194 $8 $-1 $195 forward single #
loop $-1 -1 $-1 $-1 $196 $69 #
plane-surface $-1 -1 $-1 -900 50 -5 0 1 0 0 0 1 forward_v I I I I #
coedge $-1 -1 $-1 $197 $72 $73 $116 forward $48 $-1 #
coedge $-1 -1 $-1 $72 $198 $199 $200 forward $48 $-1 #
edge $201 -1 $-1 $82 -25 $122 175 $114 $202 forward @7 unknown #
coedge $-1 -1 $-1 $79 $203 $74 $118 forward $131 $-1 #
edge $204 -1 $-1 $123 -175 $83 25 $117 $205 forward @7 unknown #
coedge $-1 -1 $-1 $206 $75 $203 $207 reversed $70 $-1 #
coedge $-1 -1 $-1 $75 $206 $197 $208 reversed $70 $-1 #
attrib_edge_convexity-kcp-attrib $-1 -1 $209 $-1 $76 1 #
vertex $-1 -1 $-1 $208 $210 #
vertex $-1 -1 $-1 $76 $211 #
straight-curve $-1 -1 $-1 750 250 -5 0 0 -1 I I #
coedge $-1 -1 $-1 $199 $212 $77 $126 forward $213 $-1 #
edge $214 -1 $-1 $133 -5 $128 5 $125 $215 forward @7 unknown #
attrib_edge_convexity-kcp-attrib $-1 -1 $216 $-1 $78 1 #
vertex $-1 -1 $-1 $126 $217 #
straight-curve $-1 -1 $-1 450 50 0 -1 0 0 I I #
coedge $-1 -1 $-1 $218 $79 $212 $219 forward $131 $-1 #
loop $-1 -1 $-1 $-1 $79 $220 #
attrib_edge_convexity-kcp-attrib $-1 -1 $221 $-1 $80 1 #
vertex $-1 -1 $-1 $219 $222 #
straight-curve $-1 -1 $-1 450 50 -10 1 0 0 I I #
convexity-sys-attrib $-1 -1 $-1 $81 $54 #
point $-1 -1 $-1 750 50 0 #
point $-1 -1 $-1 750 50 -10 #
face $-1 -1 $-1 $223 $151 $20 $-1 $224 forward single #
loop $-1 -1 $-1 $-1 $225 $85 #
plane-surface $-1 -1 $-1 -750 50 -5 1 0 0 0 0 -1 forward_v I I I I #
coedge $-1 -1 $-1 $226 $227 $228 $229 forward $86 $-1 #
coedge $-1 -1 $-1 $230 $88 $227 $231 reversed $56 $-1 #
coedge $-1 -1 $-1 $88 $230 $89 $147 forward $56 $-1 #
coedge $-1 -1 $-1 $91 $228 $88 $145 reversed $151 $-1 #
edge $-1 -1 $-1 $153 -5 $232 5 $88 $233 forward @7 unknown #
coedge $-1 -1 $-1 $90 $89 $234 $235 reversed $37 $-1 #
edge $-1 -1 $-1 $236 0 $153 200 $143 $237 forward @7 unknown #
coedge $-1 -1 $-1 $238 $225 $90 $149 reversed $139 $-1 #
edge $-1 -1 $-1 $239 0 $152 200 $90 $240 forward @7 unknown #
coedge $-1 -1 $-1 $228 $91 $225 $241 reversed $151 $-1 #
loop $-1 -1 $-1 $-1 $91 $138 #
vertex $-1 -1 $-1 $149 $242 #
vertex $-1 -1 $-1 $147 $243 #
straight-curve $-1 -1 $-1 -450 250 5 -1 0 0 I I #
model_id-kcp-attrib $-1 -1 $-1 $-1 $94 1 1021324625 1021324625 -62783486 4 #
face $244 -1 $-1 $245 $246 $21 $-1 $247 reversed single #
loop $-1 -1 $-1 $-1 $248 $94 #
plane-surface $-1 -1 $-1 -1050 0 0 1 0 0 0 0 -1 forward_v I I I I #
coedge $-1 -1 $-1 $249 $167 $250 $251 forward $95 $-1 #
coedge $-1 -1 $-1 $252 $97 $249 $253 forward $61 $-1 #
coedge $-1 -1 $-1 $97 $252 $254 $255 forward $61 $-1 #
coedge $-1 -1 $-1 $170 $169 $97 $163 reversed $171 $-1 #
edge $-1 -1 $-1 $256 -250 $257 250 $162 $258 forward @7 unknown #
coedge $-1 -1 $-1 $99 $98 $259 $260 forward $41 $-1 #
coedge $-1 -1 $-1 $261 $262 $98 $166 reversed $246 $-1 #
edge $-1 -1 $-1 $173 -1050 $263 1050 $165 $264 forward @7 unknown #
coedge $-1 -1 $-1 $159 $265 $99 $168 reversed $95 $-1 #
edge $-1 -1 $-1 $266 -1050 $172 1050 $167 $267 forward @7 unknown #
coedge $-1 -1 $-1 $162 $100 $265 $268 forward $171 $-1 #
coedge $-1 -1 $-1 $100 $162 $261 $269 reversed $171 $-1 #
loop $-1 -1 $-1 $-1 $169 $245 #
vertex $-1 -1 $-1 $101 $270 #
vertex $-1 -1 $-1 $101 $271 #
straight-curve $-1 -1 $-1 1050 0 5 0 1 0 I I #
face $-1 -1 $-1 $272 $188 $23 $-1 $273 forward single #
loop $-1 -1 $-1 $-1 $274 $102 #
plane-surface $-1 -1 $-1 750 50 5 -1 0 0 0 0 1 forward_v I I I I #
coedge $-1 -1 $-1 $275 $276 $277 $278 forward $103 $-1 #
coedge $-1 -1 $-1 $279 $105 $276 $280 reversed $65 $-1 #
coedge $-1 -1 $-1 $105 $279 $106 $184 forward $65 $-1 #
coedge $-1 -1 $-1 $108 $277 $105 $182 reversed $188 $-1 #
edge $-1 -1 $-1 $190 -5 $281 5 $105 $282 forward @7 unknown #
coedge $-1 -1 $-1 $107 $106 $283 $284 reversed $44 $-1 #
edge $-1 -1 $-1 $285 0 $190 200 $180 $286 forward @7 unknown #
coedge $-1 -1 $-1 $287 $274 $107 $186 reversed $176 $-1 #
edge $-1 -1 $-1 $288 0 $189 200 $107 $289 forward @7 unknown #
coedge $-1 -1 $-1 $277 $108 $274 $290 reversed $188 $-1 #
loop $-1 -1 $-1 $-1 $108 $175 #
vertex $-1 -1 $-1 $186 $291 #
vertex $-1 -1 $-1 $184 $292 #
straight-curve $-1 -1 $-1 450 250 -5 1 0 0 I I #
model_id-kcp-attrib $-1 -1 $-1 $-1 $111 1 1021324625 1021324625 -62783487 7 #
face $293 -1 $-1 $220 $294 $8 $-1 $295 reversed single #
loop $-1 -1 $-1 $-1 $296 $111 #
plane-surface $-1 -1 $-1 -750 150 -5 -1 0 0 0 0 1 forward_v I I I I #
coedge $-1 -1 $-1 $297 $298 $299 $300 reversed $112 $-1 #
coedge $-1 -1 $-1 $301 $114 $120 $208 forward $48 $-1 #
coedge $-1 -1 $-1 $115 $302 $303 $304 forward $48 $-1 #
coedge $-1 -1 $-1 $305 $125 $115 $200 reversed $213 $-1 #
edge $306 -1 $-1 $307 -250 $128 50 $199 $308 forward @7 unknown #
attrib_edge_convexity-kcp-attrib $-1 -1 $309 $-1 $116 1 #
straight-curve $-1 -1 $-1 750 75 0 0 1 0 I I #
coedge $-1 -1 $-1 $117 $310 $119 $207 forward $131 $-1 #
attrib_edge_convexity-kcp-attrib $-1 -1 $311 $-1 $118 1 #
straight-curve $-1 -1 $-1 750 75 -10 0 -1 0 I I #
coedge $-1 -1 $-1 $120 $119 $312 $313 forward $70 $-1 #
edge $314 -1 $-1 $315 -750 $123 750 $119 $316 forward @7 unknown #
edge $317 -1 $-1 $122 -750 $318 750 $120 $319 forward @7 unknown #
convexity-sys-attrib $-1 -1 $-1 $121 $76 #
point $-1 -1 $-1 750 250 0 #
point $-1 -1 $-1 750 250 -10 #
coedge $-1 -1 $-1 $125 $305 $130 $219 reversed $213 $-1 #
loop $-1 -1 $-1 $-1 $125 $320 #
attrib_edge_convexity-kcp-attrib $-1 -1 $321 $-1 $126 1 #
straight-curve $-1 -1 $-1 1050 50 -5 0 0 1 I I #
convexity-sys-attrib $-1 -1 $-1 $127 $78 #
point $-1 -1 $-1 1050 50 0 #
coedge $-1 -1 $-1 $322 $130 $323 $324 forward $131 $-1 #
edge $-1 -1 $-1 $133 -50 $325 250 $212 $326 forward @7 unknown #
face $327 -1 $-1 $328 $131 $8 $-1 $329 reversed single #
convexity-sys-attrib $-1 -1 $-1 $132 $80 #
point $-1 -1 $-1 1050 50 -10 #
face $-1 -1 $-1 $-1 $330 $20 $-1 $331 reversed single #
plane-surface $-1 -1 $-1 -900 250 0 0 1 0 0 0 1 forward_v I I I I #
coedge $-1 -1 $-1 $148 $332 $150 $241 forward $139 $-1 #
coedge $-1 -1 $-1 $333 $141 $332 $334 reversed $86 $-1 #
coedge $-1 -1 $-1 $141 $333 $142 $231 forward $86 $-1 #
coedge $-1 -1 $-1 $144 $150 $141 $229 reversed $151 $-1 #
edge $-1 -1 $-1 $232 -600 $335 -300 $141 $336 forward @7 unknown #
coedge $-1 -1 $-1 $143 $142 $337 $338 reversed $56 $-1 #
edge $-1 -1 $-1 $339 0 $232 200 $227 $340 forward @7 unknown #
vertex $-1 -1 $-1 $231 $341 #
straight-curve $-1 -1 $-1 -1050 250 0 0 0 -1 I I #
coedge $-1 -1 $-1 $337 $342 $146 $235 forward $330 $-1 #
edge $343 -1 $-1 $239 300 $236 600 $146 $344 forward @7 unknown #
vertex $-1 -1 $-1 $235 $345 #
straight-curve $-1 -1 $-1 -1050 50 5 0 1 0 I I #
coedge $-1 -1 $-1 $332 $148 $342 $346 reversed $139 $-1 #
vertex $-1 -1 $-1 $346 $347 #
straight-curve $-1 -1 $-1 -750 50 5 0 1 0 I I #
edge $-1 -1 $-1 $335 -5 $152 5 $225 $348 forward @7 unknown #
point $-1 -1 $-1 -750 250 5 #
point $-1 -1 $-1 -1050 250 5 #
model_id-kcp-attrib $-1 -1 $-1 $-1 $156 1 1021324625 1021324625 -62783486 3 #
face $349 -1 $-1 $-1 $171 $21 $-1 $350 reversed single #
loop $-1 -1 $-1 $-1 $261 $156 #
plane-surface $-1 -1 $-1 0 250 0 0 -1 0 0 0 -1 forward_v I I I I #
coedge $-1 -1 $-1 $351 $259 $262 $352 forward $157 $-1 #
coedge $-1 -1 $-1 $265 $159 $160 $253 reversed $95 $-1 #
coedge $-1 -1 $-1 $259 $351 $159 $251 reversed $157 $-1 #
edge $-1 -1 $-1 $266 -5 $353 5 $250 $354 forward @7 unknown #
coedge $-1 -1 $-1 $161 $160 $351 $355 forward $61 $-1 #
edge $-1 -1 $-1 $257 -1050 $353 1050 $249 $356 forward @7 unknown #
coedge $-1 -1 $-1 $262 $261 $161 $255 reversed $246 $-1 #
edge $-1 -1 $-1 $357 -1050 $256 1050 $254 $358 forward @7 unknown #
vertex $-1 -1 $-1 $163 $359 #
vertex $-1 -1 $-1 $268 $360 #
straight-curve $-1 -1 $-1 1050 0 -5 0 -1 0 I I #
coedge $-1 -1 $-1 $248 $250 $164 $260 reversed $157 $-1 #
edge $-1 -1 $-1 $263 -250 $266 250 $259 $361 forward @7 unknown #
coedge $-1 -1 $-1 $254 $165 $170 $269 forward $246 $-1 #
coedge $-1 -1 $-1 $165 $254 $248 $352 reversed $246 $-1 #
vertex $-1 -1 $-1 $166 $362 #
straight-curve $-1 -1 $-1 0 250 5 -1 0 0 I I #
coedge $-1 -1 $-1 $167 $249 $169 $268 reversed $95 $-1 #
vertex $-1 -1 $-1 $260 $363 #
straight-curve $-1 -1 $-1 0 -250 5 1 0 0 I I #
edge $-1 -1 $-1 $172 -5 $257 5 $169 $364 forward @7 unknown #
edge $-1 -1 $-1 $173 -5 $256 5 $170 $365 forward @7 unknown #
point $-1 -1 $-1 1050 -250 5 #
point $-1 -1 $-1 1050 250 5 #
face $-1 -1 $-1 $-1 $366 $23 $-1 $367 reversed single #
plane-surface $-1 -1 $-1 900 250 0 0 1 0 0 0 1 forward_v I I I I #
coedge $-1 -1 $-1 $185 $368 $187 $290 forward $176 $-1 #
coedge $-1 -1 $-1 $369 $178 $368 $370 reversed $103 $-1 #
coedge $-1 -1 $-1 $178 $369 $179 $280 forward $103 $-1 #
coedge $-1 -1 $-1 $181 $187 $178 $278 reversed $188 $-1 #
edge $-1 -1 $-1 $281 -600 $371 -300 $178 $372 forward @7 unknown #
coedge $-1 -1 $-1 $180 $179 $373 $374 reversed $65 $-1 #
edge $-1 -1 $-1 $375 0 $281 200 $276 $376 forward @7 unknown #
vertex $-1 -1 $-1 $280 $377 #
straight-curve $-1 -1 $-1 1050 250 0 0 0 1 I I #
coedge $-1 -1 $-1 $373 $378 $183 $284 forward $366 $-1 #
edge $379 -1 $-1 $288 300 $285 600 $183 $380 forward @7 unknown #
vertex $-1 -1 $-1 $284 $381 #
straight-curve $-1 -1 $-1 1050 50 -5 0 1 0 I I #
coedge $-1 -1 $-1 $368 $185 $378 $382 reversed $176 $-1 #
vertex $-1 -1 $-1 $382 $383 #
straight-curve $-1 -1 $-1 750 50 -5 0 1 0 I I #
edge $-1 -1 $-1 $371 -5 $189 5 $274 $384 forward @7 unknown #
point $-1 -1 $-1 750 250 -5 #
point $-1 -1 $-1 1050 250 -5 #
model_id-kcp-attrib $-1 -1 $-1 $-1 $193 1 1021324625 1021324625 -62783487 8 #
loop $-1 -1 $-1 $-1 $299 $193 #
plane-surface $-1 -1 $-1 -1050 0 -5 1 0 0 0 0 -1 forward_v I I I I #
coedge $-1 -1 $-1 $385 $386 $387 $388 reversed $194 $-1 #
coedge $-1 -1 $-1 $387 $196 $389 $390 reversed $112 $-1 #
coedge $-1 -1 $-1 $196 $387 $391 $392 reversed $112 $-1 #
coedge $-1 -1 $-1 $393 $394 $196 $300 forward $294 $-1 #
edge $395 -1 $-1 $396 -5 $397 5 $299 $398 forward @7 unknown #
coedge $-1 -1 $-1 $389 $197 $385 $399 forward $48 $-1 #
coedge $-1 -1 $-1 $198 $389 $394 $400 forward $48 $-1 #
coedge $-1 -1 $-1 $401 $402 $198 $304 reversed $403 $-1 #
edge $404 -1 $-1 $405 -1050 $307 1050 $303 $406 forward @7 unknown #
coedge $-1 -1 $-1 $212 $199 $402 $407 forward $213 $-1 #
attrib_edge_convexity-kcp-attrib $-1 -1 $408 $-1 $200 1 #
vertex $-1 -1 $-1 $200 $409 #
straight-curve $-1 -1 $-1 1050 0 0 0 1 0 I I #
convexity-sys-attrib $-1 -1 $-1 $201 $116 #
coedge $-1 -1 $-1 $203 $391 $386 $410 forward $131 $-1 #
convexity-sys-attrib $-1 -1 $-1 $204 $118 #
coedge $-1 -1 $-1 $386 $385 $206 $313 reversed $194 $-1 #
edge $411 -1 $-1 $315 -5 $318 5 $206 $412 forward @7 unknown #
attrib_edge_convexity-kcp-attrib $-1 -1 $413 $-1 $207 1 #
vertex $-1 -1 $-1 $207 $414 #
straight-curve $-1 -1 $-1 0 250 -10 1 0 0 I I #
attrib_edge_convexity-kcp-attrib $-1 -1 $415 $-1 $208 1 #
vertex $-1 -1 $-1 $313 $416 #
straight-curve $-1 -1 $-1 0 250 0 -1 0 0 I I #
face $417 -1 $-1 $-1 $213 $8 $-1 $418 reversed single #
convexity-sys-attrib $-1 -1 $-1 $214 $126 #
coedge $-1 -1 $-1 $391 $218 $393 $419 forward $131 $-1 #
coedge $-1 -1 $-1 $402 $401 $218 $324 reversed $403 $-1 #
edge $-1 -1 $-1 $325 -1050 $420 1050 $323 $421 forward @7 unknown #
vertex $-1 -1 $-1 $407 $422 #
straight-curve $-1 -1 $-1 1050 0 -10 0 -1 0 I I #
model_id-kcp-attrib $-1 -1 $-1 $-1 $220 1 1021324625 1021324625 -62783487 9 #
face $423 -1 $-1 $320 $403 $8 $-1 $424 reversed single #
plane-surface $-1 -1 $-1 0 0 -10 0 0 1 1 0 0 forward_v I I I I #
loop $-1 -1 $-1 $-1 $342 $223 #
plane-surface $-1 -1 $-1 -900 50 0 0 1 0 0 0 1 forward_v I I I I #
coedge $-1 -1 $-1 $225 $238 $226 $334 forward $139 $-1 #
coedge $-1 -1 $-1 $227 $226 $425 $426 reversed $86 $-1 #
edge $-1 -1 $-1 $427 0 $335 200 $332 $428 forward @7 unknown #
vertex $-1 -1 $-1 $334 $429 #
straight-curve $-1 -1 $-1 -450 250 -5 1 0 0 I I #
coedge $-1 -1 $-1 $425 $234 $230 $338 forward $330 $-1 #
edge $430 -1 $-1 $236 -5 $339 5 $230 $431 forward @7 unknown #
vertex $-1 -1 $-1 $338 $432 #
straight-curve $-1 -1 $-1 -1050 50 -5 0 1 0 I I #
point $-1 -1 $-1 -1050 250 -5 #
coedge $-1 -1 $-1 $234 $425 $238 $346 forward $330 $-1 #
convexity-sys-attrib $-1 -1 $-1 $-1 $235 #
straight-curve $-1 -1 $-1 -450 50 5 -1 0 0 I I #
point $-1 -1 $-1 -1050 50 5 #
edge $433 -1 $-1 $427 -5 $239 5 $238 $434 forward @7 unknown #
point $-1 -1 $-1 -750 50 5 #
straight-curve $-1 -1 $-1 -750 250 0 0 0 1 I I #
model_id-kcp-attrib $-1 -1 $-1 $-1 $245 1 1021324625 1021324625 -62783486 7 #
plane-surface $-1 -1 $-1 1050 0 0 -1 0 0 0 0 1 forward_v I I I I #
coedge $-1 -1 $-1 $250 $248 $252 $355 reversed $157 $-1 #
edge $-1 -1 $-1 $263 -5 $357 5 $262 $435 forward @7 unknown #
vertex $-1 -1 $-1 $355 $436 #
straight-curve $-1 -1 $-1 -1050 -250 0 0 0 -1 I I #
edge $-1 -1 $-1 $353 -250 $357 250 $351 $437 forward @7 unknown #
straight-curve $-1 -1 $-1 0 -250 -5 -1 0 0 I I #
vertex $-1 -1 $-1 $255 $438 #
straight-curve $-1 -1 $-1 0 250 -5 1 0 0 I I #
point $-1 -1 $-1 1050 250 -5 #
point $-1 -1 $-1 1050 -250 -5 #
straight-curve $-1 -1 $-1 -1050 0 5 0 -1 0 I I #
point $-1 -1 $-1 -1050 250 5 #
point $-1 -1 $-1 -1050 -250 5 #
straight-curve $-1 -1 $-1 1050 -250 0 0 0 -1 I I #
straight-curve $-1 -1 $-1 1050 250 0 0 0 -1 I I #
loop $-1 -1 $-1 $-1 $378 $272 #
plane-surface $-1 -1 $-1 900 50 0 0 1 0 0 0 1 forward_v I I I I #
coedge $-1 -1 $-1 $274 $287 $275 $370 forward $176 $-1 #
coedge $-1 -1 $-1 $276 $275 $439 $440 reversed $103 $-1 #
edge $-1 -1 $-1 $441 0 $371 200 $368 $442 forward @7 unknown #
vertex $-1 -1 $-1 $370 $443 #
straight-curve $-1 -1 $-1 450 250 5 -1 0 0 I I #
coedge $-1 -1 $-1 $439 $283 $279 $374 forward $366 $-1 #
edge $444 -1 $-1 $285 -5 $375 5 $279 $445 forward @7 unknown #
vertex $-1 -1 $-1 $374 $446 #
straight-curve $-1 -1 $-1 1050 50 5 0 1 0 I I #
point $-1 -1 $-1 1050 250 5 #
coedge $-1 -1 $-1 $283 $439 $287 $382 forward $366 $-1 #
convexity-sys-attrib $-1 -1 $-1 $-1 $284 #
straight-curve $-1 -1 $-1 450 50 -5 1 0 0 I I #
point $-1 -1 $-1 1050 50 -5 #
edge $447 -1 $-1 $441 -5 $288 5 $287 $448 forward @7 unknown #
point $-1 -1 $-1 750 50 -5 #
straight-curve $-1 -1 $-1 750 250 0 0 0 -1 I I #
coedge $-1 -1 $-1 $312 $296 $301 $399 reversed $194 $-1 #
coedge $-1 -1 $-1 $296 $312 $310 $410 reversed $194 $-1 #
coedge $-1 -1 $-1 $298 $297 $296 $388 forward $112 $-1 #
edge $449 -1 $-1 $450 -5 $451 5 $296 $452 forward @7 unknown #
coedge $-1 -1 $-1 $302 $301 $297 $390 forward $48 $-1 #
edge $453 -1 $-1 $450 300 $396 600 $389 $454 forward @7 unknown #
coedge $-1 -1 $-1 $310 $322 $298 $392 forward $131 $-1 #
edge $455 -1 $-1 $397 -600 $451 -300 $391 $456 forward @7 unknown #
coedge $-1 -1 $-1 $457 $299 $322 $419 reversed $294 $-1 #
coedge $-1 -1 $-1 $299 $457 $302 $400 reversed $294 $-1 #
attrib_edge_convexity-kcp-attrib $-1 -1 $458 $-1 $300 1 #
vertex $-1 -1 $-1 $400 $459 #
vertex $-1 -1 $-1 $300 $460 #
straight-curve $-1 -1 $-1 -1050 50 -5 0 0 -1 I I #
edge $461 -1 $-1 $318 -175 $450 25 $301 $462 forward @7 unknown #
edge $463 -1 $-1 $396 -50 $405 250 $394 $464 forward @7 unknown #
coedge $-1 -1 $-1 $323 $303 $457 $465 forward $403 $-1 #
coedge $-1 -1 $-1 $303 $323 $305 $407 reversed $403 $-1 #
loop $-1 -1 $-1 $-1 $401 $328 #
attrib_edge_convexity-kcp-attrib $-1 -1 $466 $-1 $304 1 #
vertex $-1 -1 $-1 $400 $467 #
straight-curve $-1 -1 $-1 0 -250 0 1 0 0 I I #
edge $-1 -1 $-1 $307 -5 $325 5 $305 $468 forward @7 unknown #
convexity-sys-attrib $-1 -1 $-1 $306 $200 #
point $-1 -1 $-1 1050 -250 0 #
edge $469 -1 $-1 $451 -25 $315 175 $310 $470 forward @7 unknown #
attrib_edge_convexity-kcp-attrib $-1 -1 $471 $-1 $313 1 #
straight-curve $-1 -1 $-1 -750 250 -5 0 0 1 I I #
convexity-sys-attrib $-1 -1 $-1 $314 $207 #
point $-1 -1 $-1 -750 250 -10 #
convexity-sys-attrib $-1 -1 $-1 $317 $208 #
point $-1 -1 $-1 -750 250 0 #
model_id-kcp-attrib $-1 -1 $-1 $-1 $320 1 1021324625 1021324625 -62783487 11 #
plane-surface $-1 -1 $-1 1050 0 -5 -1 0 0 0 0 1 forward_v I I I I #
edge $472 -1 $-1 $420 -250 $397 50 $393 $473 forward @7 unknown #
vertex $-1 -1 $-1 $419 $474 #
straight-curve $-1 -1 $-1 0 -250 -10 -1 0 0 I I #
point $-1 -1 $-1 1050 -250 -10 #
model_id-kcp-attrib $-1 -1 $-1 $-1 $328 1 1021324625 1021324625 -62783487 10 #
plane-surface $-1 -1 $-1 0 -250 -5 0 1 0 0 0 1 forward_v I I I I #
coedge $-1 -1 $-1 $342 $337 $333 $426 forward $330 $-1 #
edge $475 -1 $-1 $339 -600 $427 -300 $333 $476 forward @7 unknown #
vertex $-1 -1 $-1 $346 $477 #
straight-curve $-1 -1 $-1 -750 50 -5 0 1 0 I I #
point $-1 -1 $-1 -750 250 -5 #
convexity-sys-attrib $-1 -1 $-1 $-1 $338 #
straight-curve $-1 -1 $-1 -1050 50 0 0 0 -1 I I #
point $-1 -1 $-1 -1050 50 -5 #
convexity-sys-attrib $-1 -1 $-1 $-1 $346 #
straight-curve $-1 -1 $-1 -750 50 0 0 0 1 I I #
straight-curve $-1 -1 $-1 -1050 250 0 0 0 -1 I I #
point $-1 -1 $-1 -1050 -250 -5 #
straight-curve $-1 -1 $-1 -1050 0 -5 0 1 0 I I #
point $-1 -1 $-1 -1050 250 -5 #
coedge $-1 -1 $-1 $378 $373 $369 $440 forward $366 $-1 #
edge $478 -1 $-1 $375 -600 $441 -300 $369 $479 forward @7 unknown #
vertex $-1 -1 $-1 $382 $480 #
straight-curve $-1 -1 $-1 750 50 5 0 1 0 I I #
point $-1 -1 $-1 750 250 5 #
convexity-sys-attrib $-1 -1 $-1 $-1 $374 #
straight-curve $-1 -1 $-1 1050 50 0 0 0 1 I I #
point $-1 -1 $-1 1050 50 5 #
convexity-sys-attrib $-1 -1 $-1 $-1 $382 #
straight-curve $-1 -1 $-1 750 50 0 0 0 -1 I I #
attrib_edge_convexity-kcp-attrib $-1 -1 $481 $-1 $388 2 #
vertex $-1 -1 $-1 $390 $482 #
vertex $-1 -1 $-1 $392 $483 #
straight-curve $-1 -1 $-1 -750 50 -5 0 0 -1 I I #
attrib_edge_convexity-kcp-attrib $-1 -1 $484 $-1 $390 1 #
straight-curve $-1 -1 $-1 -450 50 0 -1 0 0 I I #
attrib_edge_convexity-kcp-attrib $-1 -1 $485 $-1 $392 1 #
straight-curve $-1 -1 $-1 -450 50 -10 1 0 0 I I #
coedge $-1 -1 $-1 $394 $393 $401 $465 reversed $294 $-1 #
convexity-sys-attrib $-1 -1 $-1 $395 $300 #
point $-1 -1 $-1 -1050 50 0 #
point $-1 -1 $-1 -1050 50 -10 #
attrib_edge_convexity-kcp-attrib $-1 -1 $486 $-1 $399 1 #
straight-curve $-1 -1 $-1 -750 75 0 0 -1 0 I I #
attrib_edge_convexity-kcp-attrib $-1 -1 $487 $-1 $400 1 #
straight-curve $-1 -1 $-1 -1050 0 0 0 -1 0 I I #
edge $488 -1 $-1 $405 -5 $420 5 $457 $489 forward @7 unknown #
convexity-sys-attrib $-1 -1 $-1 $404 $304 #
point $-1 -1 $-1 -1050 -250 0 #
straight-curve $-1 -1 $-1 1050 -250 -5 0 0 -1 I I #
attrib_edge_convexity-kcp-attrib $-1 -1 $490 $-1 $410 1 #
straight-curve $-1 -1 $-1 -750 75 -10 0 1 0 I I #
convexity-sys-attrib $-1 -1 $-1 $411 $313 #
attrib_edge_convexity-kcp-attrib $-1 -1 $491 $-1 $419 1 #
straight-curve $-1 -1 $-1 -1050 0 -10 0 1 0 I I #
point $-1 -1 $-1 -1050 -250 -10 #
convexity-sys-attrib $-1 -1 $-1 $-1 $426 #
straight-curve $-1 -1 $-1 -450 50 -5 1 0 0 I I #
point $-1 -1 $-1 -750 50 -5 #
convexity-sys-attrib $-1 -1 $-1 $-1 $440 #
straight-curve $-1 -1 $-1 450 50 5 -1 0 0 I I #
point $-1 -1 $-1 750 50 5 #
convexity-sys-attrib $-1 -1 $-1 $449 $388 #
point $-1 -1 $-1 -750 50 0 #
point $-1 -1 $-1 -750 50 -10 #
convexity-sys-attrib $-1 -1 $-1 $453 $390 #
convexity-sys-attrib $-1 -1 $-1 $455 $392 #
convexity-sys-attrib $-1 -1 $-1 $461 $399 #
convexity-sys-attrib $-1 -1 $-1 $463 $400 #
attrib_edge_convexity-kcp-attrib $-1 -1 $492 $-1 $465 1 #
straight-curve $-1 -1 $-1 -1050 -250 -5 0 0 -1 I I #
convexity-sys-attrib $-1 -1 $-1 $469 $410 #
convexity-sys-attrib $-1 -1 $-1 $472 $419 #
convexity-sys-attrib $-1 -1 $-1 $488 $465 #
End-of-ACIS-data 