600 0 1 0           
79 GICL ACIS Healer - Source: /gicl/data5/repository/CMU/Tools/tool_rack.sat - 6 0 18 ACIS 6.0.3 Solaris 24 Sat Apr 13 00:32:52 2002 
1 9.999999999999999547e-07 1.000000000000000036e-10 
body $1 $2 $-1 $-1 #
rgb_color-st-attrib $-1 $-1 $-1 $0 0 1 0 #
lump $-1 $-1 $3 $0 #
shell $-1 $-1 $-1 $4 $-1 $2 #
face $-1 $5 $6 $3 $-1 $7 reversed single #
face $-1 $8 $9 $3 $-1 $7 reversed single #
loop $-1 $-1 $10 $4 #
plane-surface $-1 145 0 255 1 0 0 0 0 -1 forward_v I I I I #
face $-1 $11 $12 $3 $-1 $7 reversed single #
loop $-1 $-1 $13 $5 #
coedge $-1 $14 $15 $16 $17 reversed $6 $-1 #
face $-1 $18 $19 $3 $-1 $7 reversed single #
loop $-1 $-1 $20 $8 #
coedge $-1 $21 $22 $23 $24 reversed $9 $-1 #
coedge $-1 $25 $10 $26 $27 forward $6 $-1 #
coedge $-1 $10 $25 $28 $29 reversed $6 $-1 #
coedge $-1 $30 $31 $10 $17 forward $32 $-1 #
edge $-1 $33 -150 $34 150 $16 $35 forward 7 unknown #
face $-1 $36 $37 $3 $-1 $7 reversed single #
loop $-1 $-1 $38 $11 #
coedge $-1 $39 $40 $41 $42 reversed $12 $-1 #
coedge $-1 $43 $13 $44 $45 forward $9 $-1 #
coedge $-1 $13 $43 $46 $47 reversed $9 $-1 #
coedge $-1 $48 $49 $13 $24 forward $50 $-1 #
edge $-1 $51 -150 $52 150 $23 $53 forward 7 unknown #
coedge $-1 $15 $14 $54 $55 reversed $6 $-1 #
coedge $-1 $56 $57 $14 $27 reversed $58 $-1 #
edge $-1 $33 155 $59 245 $26 $60 forward 7 unknown #
coedge $-1 $61 $62 $15 $29 forward $63 $-1 #
edge $-1 $34 155 $64 245 $15 $65 forward 7 unknown #
coedge $-1 $66 $16 $62 $67 forward $32 $-1 #
coedge $-1 $16 $66 $56 $68 forward $32 $-1 #
loop $-1 $-1 $16 $69 #
vertex $-1 $68 $70 #
vertex $-1 $67 $71 #
straight-curve $-1 145 0 100 0 -1 0 I I #
face $-1 $72 $73 $3 $-1 $74 reversed single #
loop $-1 $-1 $75 $18 #
coedge $-1 $76 $77 $78 $79 reversed $19 $-1 #
coedge $-1 $80 $20 $81 $82 forward $12 $-1 #
coedge $-1 $20 $80 $83 $84 reversed $12 $-1 #
coedge $-1 $85 $86 $20 $42 forward $87 $-1 #
edge $-1 $88 -150 $89 150 $41 $90 forward 7 unknown #
coedge $-1 $22 $21 $91 $92 reversed $9 $-1 #
coedge $-1 $93 $94 $21 $45 reversed $95 $-1 #
edge $-1 $51 55 $96 145 $44 $60 forward 7 unknown #
coedge $-1 $97 $98 $22 $47 forward $99 $-1 #
edge $-1 $52 55 $100 145 $22 $65 forward 7 unknown #
coedge $-1 $101 $23 $98 $102 forward $50 $-1 #
coedge $-1 $23 $101 $93 $103 forward $50 $-1 #
loop $-1 $-1 $23 $104 #
vertex $-1 $103 $105 #
vertex $-1 $102 $106 #
straight-curve $-1 145 0 200 0 -1 0 I I #
coedge $-1 $107 $108 $25 $55 forward $109 $-1 #
edge $-1 $64 -150 $59 150 $54 $110 forward 7 unknown #
coedge $-1 $111 $26 $31 $68 reversed $58 $-1 #
coedge $-1 $26 $111 $107 $112 reversed $58 $-1 #
loop $-1 $113 $56 $114 #
vertex $-1 $112 $115 #
straight-curve $-1 145 150 255 0 0 -1 I I #
coedge $-1 $116 $28 $108 $117 reversed $63 $-1 #
coedge $-1 $28 $116 $30 $67 reversed $63 $-1 #
loop $-1 $-1 $28 $118 #
vertex $-1 $117 $119 #
straight-curve $-1 145 -150 255 0 0 -1 I I #
coedge $-1 $31 $30 $120 $121 forward $32 $-1 #
edge $-1 $34 -145 $122 145 $62 $123 forward 7 unknown #
edge $-1 $124 -145 $33 145 $56 $125 forward 7 unknown #
face $-1 $126 $32 $3 $-1 $127 reversed single #
point $-1 145 150 100 #
point $-1 145 -150 100 #
face $-1 $128 $129 $3 $-1 $130 reversed single #
loop $-1 $-1 $131 $36 #
plane-surface $-1 155 0 255 -1 0 0 0 0 1 forward_v I I I I #
coedge $-1 $132 $133 $134 $135 reversed $37 $-1 #
coedge $-1 $136 $38 $137 $138 forward $19 $-1 #
coedge $-1 $38 $136 $139 $140 reversed $19 $-1 #
coedge $-1 $141 $142 $38 $79 forward $143 $-1 #
edge $-1 $144 -150 $145 150 $78 $146 forward 7 unknown #
coedge $-1 $40 $39 $147 $148 reversed $12 $-1 #
coedge $-1 $149 $150 $39 $82 reversed $151 $-1 #
edge $-1 $88 -45 $152 45 $81 $60 forward 7 unknown #
coedge $-1 $153 $154 $40 $84 forward $155 $-1 #
edge $-1 $89 -45 $156 45 $40 $65 forward 7 unknown #
coedge $-1 $157 $41 $154 $158 forward $87 $-1 #
coedge $-1 $41 $157 $149 $159 forward $87 $-1 #
loop $-1 $-1 $41 $160 #
vertex $-1 $159 $161 #
vertex $-1 $158 $162 #
straight-curve $-1 145 0 300 0 -1 0 I I #
coedge $-1 $163 $164 $43 $92 forward $165 $-1 #
edge $-1 $100 -150 $96 150 $91 $166 forward 7 unknown #
coedge $-1 $167 $44 $49 $103 reversed $95 $-1 #
coedge $-1 $44 $167 $163 $168 reversed $95 $-1 #
loop $-1 $58 $93 $114 #
vertex $-1 $168 $169 #
coedge $-1 $170 $46 $164 $171 reversed $99 $-1 #
coedge $-1 $46 $170 $48 $102 reversed $99 $-1 #
loop $-1 $63 $46 $118 #
vertex $-1 $171 $172 #
coedge $-1 $49 $48 $173 $174 forward $50 $-1 #
edge $-1 $52 -145 $175 145 $98 $176 forward 7 unknown #
edge $-1 $177 -145 $51 145 $93 $178 forward 7 unknown #
face $-1 $69 $50 $3 $-1 $179 reversed single #
point $-1 145 150 200 #
point $-1 145 -150 200 #
coedge $-1 $180 $54 $57 $112 forward $109 $-1 #
coedge $-1 $54 $180 $61 $117 forward $109 $-1 #
loop $-1 $-1 $54 $181 #
straight-curve $-1 145 0 10 0 1 0 I I #
coedge $-1 $57 $56 $182 $183 forward $58 $-1 #
edge $-1 $59 -145 $184 145 $57 $185 forward 7 unknown #
loop $-1 $-1 $186 $114 #
face $-1 $187 $188 $3 $-1 $189 reversed single #
point $-1 145 150 10 #
coedge $-1 $62 $61 $190 $191 reversed $63 $-1 #
edge $-1 $192 -145 $64 145 $61 $193 forward 7 unknown #
face $-1 $-1 $194 $3 $-1 $195 reversed single #
point $-1 145 -150 10 #
coedge $-1 $190 $182 $66 $121 reversed $196 $-1 #
edge $-1 $122 -150 $124 150 $66 $197 forward 7 unknown #
vertex $-1 $67 $198 #
straight-curve $-1 0 -150 100 -1 0 0 I I #
vertex $-1 $68 $199 #
straight-curve $-1 0 150 100 1 0 0 I I #
face $-1 $114 $200 $3 $-1 $201 reversed single #
plane-surface $-1 0 0 100 0 0 1 1 0 0 forward_v I I I I #
face $-1 $160 $143 $3 $-1 $202 reversed single #
loop $-1 $-1 $134 $72 #
plane-surface $-1 0 0 500 0 0 1 1 0 0 forward_v I I I I #
coedge $-1 $203 $204 $205 $206 forward $73 $-1 #
coedge $-1 $207 $75 $208 $209 forward $37 $-1 #
coedge $-1 $75 $207 $210 $211 reversed $37 $-1 #
coedge $-1 $212 $213 $75 $135 forward $129 $-1 #
edge $-1 $214 -150 $215 150 $134 $216 forward 7 unknown #
coedge $-1 $77 $76 $217 $218 reversed $19 $-1 #
coedge $-1 $219 $220 $76 $138 reversed $221 $-1 #
edge $-1 $144 -145 $222 -55 $137 $60 forward 7 unknown #
coedge $-1 $223 $224 $77 $140 forward $225 $-1 #
edge $-1 $145 -145 $226 -55 $77 $65 forward 7 unknown #
coedge $-1 $227 $78 $224 $228 forward $143 $-1 #
coedge $-1 $78 $227 $219 $229 forward $143 $-1 #
loop $-1 $-1 $78 $128 #
vertex $-1 $229 $230 #
vertex $-1 $228 $231 #
straight-curve $-1 145 0 400 0 -1 0 I I #
coedge $-1 $232 $233 $80 $148 forward $234 $-1 #
edge $-1 $156 -150 $152 150 $147 $235 forward 7 unknown #
coedge $-1 $236 $81 $86 $159 reversed $151 $-1 #
coedge $-1 $81 $236 $232 $237 reversed $151 $-1 #
loop $-1 $95 $149 $114 #
vertex $-1 $237 $238 #
coedge $-1 $239 $83 $233 $240 reversed $155 $-1 #
coedge $-1 $83 $239 $85 $158 reversed $155 $-1 #
loop $-1 $99 $83 $118 #
vertex $-1 $240 $241 #
coedge $-1 $86 $85 $242 $243 forward $87 $-1 #
edge $-1 $89 -145 $244 145 $154 $245 forward 7 unknown #
edge $-1 $246 -145 $88 145 $149 $247 forward 7 unknown #
face $-1 $104 $87 $3 $-1 $248 reversed single #
point $-1 145 150 300 #
point $-1 145 -150 300 #
coedge $-1 $249 $91 $94 $168 forward $165 $-1 #
coedge $-1 $91 $249 $97 $171 forward $165 $-1 #
loop $-1 $-1 $91 $250 #
straight-curve $-1 145 0 110 0 1 0 I I #
coedge $-1 $94 $93 $251 $252 forward $95 $-1 #
edge $-1 $96 -145 $253 145 $94 $254 forward 7 unknown #
point $-1 145 150 110 #
coedge $-1 $98 $97 $255 $256 reversed $99 $-1 #
edge $-1 $257 -145 $100 145 $97 $258 forward 7 unknown #
point $-1 145 -150 110 #
coedge $-1 $255 $251 $101 $174 reversed $259 $-1 #
edge $-1 $175 -150 $177 150 $101 $260 forward 7 unknown #
vertex $-1 $102 $261 #
straight-curve $-1 0 -150 200 -1 0 0 I I #
vertex $-1 $103 $262 #
straight-curve $-1 0 150 200 1 0 0 I I #
plane-surface $-1 0 0 200 0 0 1 1 0 0 forward_v I I I I #
coedge $-1 $108 $107 $263 $264 forward $109 $-1 #
face $-1 $118 $109 $3 $-1 $265 forward single #
coedge $-1 $120 $263 $111 $183 reversed $196 $-1 #
edge $-1 $124 155 $184 245 $182 $266 forward 7 unknown #
vertex $-1 $112 $267 #
straight-curve $-1 0 150 10 -1 0 0 I I #
coedge $-1 $268 $269 $270 $271 reversed $113 $-1 #
face $-1 $272 $273 $3 $-1 $274 reversed single #
loop $-1 $221 $275 $114 #
plane-surface $-1 0 150 5 0 -1 0 0 0 -1 forward_v I I I I #
coedge $-1 $263 $120 $116 $191 forward $196 $-1 #
edge $-1 $122 155 $192 245 $190 $276 forward 7 unknown #
vertex $-1 $117 $277 #
straight-curve $-1 0 -150 10 1 0 0 I I #
loop $-1 $278 $279 $118 #
plane-surface $-1 0 -150 5 0 1 0 0 0 1 forward_v I I I I #
loop $-1 $-1 $263 $280 #
straight-curve $-1 -145 0 100 0 1 0 I I #
point $-1 -145 -150 100 #
point $-1 -145 150 100 #
loop $-1 $-1 $281 $126 #
plane-surface $-1 0 0 0 0 0 1 1 0 0 forward_v I I I I #
plane-surface $-1 0 0 400 0 0 1 1 0 0 forward_v I I I I #
coedge $-1 $282 $131 $283 $284 reversed $73 $-1 #
coedge $-1 $131 $282 $285 $286 reversed $73 $-1 #
coedge $-1 $279 $287 $131 $206 reversed $194 $-1 #
edge $-1 $288 -255 $289 255 $131 $290 forward 7 unknown #
coedge $-1 $133 $132 $291 $292 reversed $37 $-1 #
coedge $-1 $275 $293 $132 $209 reversed $188 $-1 #
edge $-1 $214 -245 $294 -155 $208 $60 forward 7 unknown #
coedge $-1 $295 $296 $133 $211 forward $278 $-1 #
edge $-1 $215 -245 $297 -155 $133 $65 forward 7 unknown #
coedge $-1 $298 $134 $296 $299 forward $129 $-1 #
coedge $-1 $134 $298 $275 $300 forward $129 $-1 #
vertex $-1 $300 $301 #
vertex $-1 $299 $302 #
straight-curve $-1 145 0 500 0 -1 0 I I #
coedge $-1 $303 $304 $136 $218 forward $305 $-1 #
edge $-1 $226 -150 $222 150 $217 $306 forward 7 unknown #
coedge $-1 $307 $137 $142 $229 reversed $221 $-1 #
coedge $-1 $137 $307 $303 $308 reversed $221 $-1 #
loop $-1 $151 $219 $114 #
vertex $-1 $308 $309 #
coedge $-1 $310 $139 $304 $311 reversed $225 $-1 #
coedge $-1 $139 $310 $141 $228 reversed $225 $-1 #
loop $-1 $155 $139 $118 #
vertex $-1 $311 $312 #
coedge $-1 $142 $141 $313 $314 forward $143 $-1 #
edge $-1 $145 -145 $315 145 $224 $316 forward 7 unknown #
edge $-1 $317 -145 $144 145 $219 $318 forward 7 unknown #
point $-1 145 150 400 #
point $-1 145 -150 400 #
coedge $-1 $319 $147 $150 $237 forward $234 $-1 #
coedge $-1 $147 $319 $153 $240 forward $234 $-1 #
loop $-1 $-1 $147 $320 #
straight-curve $-1 145 0 210 0 1 0 I I #
coedge $-1 $150 $149 $321 $322 forward $151 $-1 #
edge $-1 $152 -145 $323 145 $150 $324 forward 7 unknown #
point $-1 145 150 210 #
coedge $-1 $154 $153 $325 $326 reversed $155 $-1 #
edge $-1 $327 -145 $156 145 $153 $328 forward 7 unknown #
point $-1 145 -150 210 #
coedge $-1 $325 $321 $157 $243 reversed $329 $-1 #
edge $-1 $244 -150 $246 150 $157 $330 forward 7 unknown #
vertex $-1 $158 $331 #
straight-curve $-1 0 -150 300 -1 0 0 I I #
vertex $-1 $159 $332 #
straight-curve $-1 0 150 300 1 0 0 I I #
plane-surface $-1 0 0 300 0 0 1 1 0 0 forward_v I I I I #
coedge $-1 $164 $163 $333 $334 forward $165 $-1 #
face $-1 $181 $165 $3 $-1 $335 forward single #
coedge $-1 $173 $333 $167 $252 reversed $259 $-1 #
edge $-1 $177 55 $253 145 $251 $266 forward 7 unknown #
vertex $-1 $168 $336 #
straight-curve $-1 0 150 110 -1 0 0 I I #
coedge $-1 $333 $173 $170 $256 forward $259 $-1 #
edge $-1 $175 55 $257 145 $255 $276 forward 7 unknown #
vertex $-1 $171 $337 #
straight-curve $-1 0 -150 110 1 0 0 I I #
loop $-1 $-1 $333 $338 #
straight-curve $-1 -145 0 200 0 1 0 I I #
point $-1 -145 -150 200 #
point $-1 -145 150 200 #
coedge $-1 $182 $190 $180 $264 reversed $196 $-1 #
edge $-1 $184 -150 $192 150 $180 $339 forward 7 unknown #
plane-surface $-1 0 0 10 0 0 1 1 0 0 forward_v I I I I #
straight-curve $-1 -145 150 255 0 0 -1 I I #
point $-1 -145 150 10 #
coedge $-1 $340 $186 $282 $341 forward $113 $-1 #
coedge $-1 $186 $340 $342 $343 reversed $113 $-1 #
coedge $-1 $344 $285 $186 $271 forward $345 $-1 #
edge $-1 $346 -155 $347 155 $186 $348 forward 7 unknown #
face $-1 $349 $350 $3 $-1 $274 reversed single #
loop $-1 $-1 $351 $187 #
plane-surface $-1 -145 0 255 -1 0 0 0 0 1 forward_v I I I I #
coedge $-1 $352 $208 $213 $300 reversed $188 $-1 #
straight-curve $-1 -145 -150 255 0 0 -1 I I #
point $-1 -145 -150 10 #
loop $-1 $225 $210 $118 #
coedge $-1 $353 $205 $354 $355 reversed $194 $-1 #
face $-1 $356 $196 $3 $-1 $274 reversed single #
coedge $-1 $357 $283 $287 $358 forward $200 $-1 #
coedge $-1 $204 $203 $268 $341 reversed $73 $-1 #
coedge $-1 $281 $359 $203 $284 forward $200 $-1 #
edge $-1 $360 -150 $289 150 $203 $361 forward 7 unknown #
coedge $-1 $270 $354 $204 $286 forward $345 $-1 #
edge $-1 $288 -150 $346 150 $204 $362 forward 7 unknown #
coedge $-1 $205 $353 $281 $358 reversed $194 $-1 #
vertex $-1 $286 $363 #
vertex $-1 $206 $364 #
straight-curve $-1 155 -150 255 0 0 -1 I I #
coedge $-1 $365 $366 $207 $292 forward $367 $-1 #
edge $-1 $297 -150 $294 150 $291 $368 forward 7 unknown #
coedge $-1 $208 $352 $365 $369 reversed $188 $-1 #
vertex $-1 $369 $370 #
coedge $-1 $371 $210 $366 $372 reversed $278 $-1 #
coedge $-1 $210 $371 $212 $299 reversed $278 $-1 #
vertex $-1 $372 $373 #
coedge $-1 $213 $212 $374 $375 forward $129 $-1 #
edge $-1 $215 -145 $376 145 $296 $377 forward 7 unknown #
edge $-1 $378 -145 $214 145 $275 $379 forward 7 unknown #
point $-1 145 150 500 #
point $-1 145 -150 500 #
coedge $-1 $380 $217 $220 $308 forward $305 $-1 #
coedge $-1 $217 $380 $223 $311 forward $305 $-1 #
loop $-1 $-1 $217 $381 #
straight-curve $-1 145 0 310 0 1 0 I I #
coedge $-1 $220 $219 $382 $383 forward $221 $-1 #
edge $-1 $222 -145 $384 145 $220 $385 forward 7 unknown #
point $-1 145 150 310 #
coedge $-1 $224 $223 $386 $387 reversed $225 $-1 #
edge $-1 $388 -145 $226 145 $223 $389 forward 7 unknown #
point $-1 145 -150 310 #
coedge $-1 $386 $382 $227 $314 reversed $350 $-1 #
edge $-1 $315 -150 $317 150 $227 $390 forward 7 unknown #
vertex $-1 $228 $391 #
straight-curve $-1 0 -150 400 -1 0 0 I I #
vertex $-1 $229 $392 #
straight-curve $-1 0 150 400 1 0 0 I I #
coedge $-1 $233 $232 $393 $394 forward $234 $-1 #
face $-1 $250 $234 $3 $-1 $395 forward single #
coedge $-1 $242 $393 $236 $322 reversed $329 $-1 #
edge $-1 $246 -45 $323 45 $321 $266 forward 7 unknown #
vertex $-1 $237 $396 #
straight-curve $-1 0 150 210 -1 0 0 I I #
coedge $-1 $393 $242 $239 $326 forward $329 $-1 #
edge $-1 $244 -45 $327 45 $325 $276 forward 7 unknown #
vertex $-1 $240 $397 #
straight-curve $-1 0 -150 210 1 0 0 I I #
loop $-1 $-1 $393 $349 #
straight-curve $-1 -145 0 300 0 1 0 I I #
point $-1 -145 -150 300 #
point $-1 -145 150 300 #
coedge $-1 $251 $255 $249 $334 reversed $259 $-1 #
edge $-1 $253 -150 $257 150 $249 $398 forward 7 unknown #
plane-surface $-1 0 0 110 0 0 1 1 0 0 forward_v I I I I #
point $-1 -145 150 110 #
point $-1 -145 -150 110 #
face $-1 $280 $259 $3 $-1 $274 reversed single #
straight-curve $-1 -145 0 10 0 -1 0 I I #
coedge $-1 $269 $268 $359 $399 reversed $113 $-1 #
edge $-1 $346 -255 $360 255 $282 $400 forward 7 unknown #
coedge $-1 $401 $402 $269 $343 forward $403 $-1 #
edge $-1 $347 -255 $404 255 $269 $405 forward 7 unknown #
coedge $-1 $354 $270 $402 $406 forward $345 $-1 #
loop $-1 $-1 $270 $407 #
vertex $-1 $286 $408 #
vertex $-1 $271 $409 #
straight-curve $-1 0 150 510 -1 0 0 I I #
face $-1 $338 $329 $3 $-1 $274 reversed single #
loop $-1 $-1 $410 $272 #
coedge $-1 $411 $412 $413 $414 reversed $273 $-1 #
coedge $-1 $293 $275 $411 $415 forward $188 $-1 #
coedge $-1 $287 $279 $416 $417 forward $194 $-1 #
coedge $-1 $285 $344 $279 $355 forward $345 $-1 #
edge $-1 $418 -305 $288 5 $279 $419 forward 7 unknown #
face $-1 $407 $403 $3 $-1 $420 reversed single #
coedge $-1 $359 $281 $401 $421 forward $200 $-1 #
edge $-1 $289 -5 $422 305 $287 $423 forward 7 unknown #
coedge $-1 $283 $357 $340 $399 forward $200 $-1 #
vertex $-1 $284 $424 #
straight-curve $-1 155 0 0 0 -1 0 I I #
straight-curve $-1 155 0 510 0 1 0 I I #
point $-1 155 -150 510 #
point $-1 155 -150 0 #
coedge $-1 $413 $291 $293 $369 forward $367 $-1 #
coedge $-1 $291 $413 $295 $372 forward $367 $-1 #
loop $-1 $-1 $291 $425 #
straight-curve $-1 145 0 410 0 1 0 I I #
edge $-1 $294 -145 $426 145 $293 $427 forward 7 unknown #
point $-1 145 150 410 #
coedge $-1 $296 $295 $412 $428 reversed $278 $-1 #
edge $-1 $429 -145 $297 145 $295 $430 forward 7 unknown #
point $-1 145 -150 410 #
coedge $-1 $412 $411 $298 $375 reversed $273 $-1 #
edge $-1 $376 -150 $378 150 $298 $431 forward 7 unknown #
vertex $-1 $299 $432 #
straight-curve $-1 0 -150 500 -1 0 0 I I #
vertex $-1 $300 $433 #
straight-curve $-1 0 150 500 1 0 0 I I #
coedge $-1 $304 $303 $410 $434 forward $305 $-1 #
face $-1 $320 $305 $3 $-1 $435 forward single #
coedge $-1 $313 $410 $307 $383 reversed $350 $-1 #
edge $-1 $317 -145 $384 -55 $382 $266 forward 7 unknown #
vertex $-1 $308 $436 #
straight-curve $-1 0 150 310 -1 0 0 I I #
coedge $-1 $410 $313 $310 $387 forward $350 $-1 #
edge $-1 $315 -145 $388 -55 $386 $276 forward 7 unknown #
vertex $-1 $311 $437 #
straight-curve $-1 0 -150 310 1 0 0 I I #
straight-curve $-1 -145 0 400 0 1 0 I I #
point $-1 -145 -150 400 #
point $-1 -145 150 400 #
coedge $-1 $321 $325 $319 $394 reversed $329 $-1 #
edge $-1 $323 -150 $327 150 $319 $438 forward 7 unknown #
plane-surface $-1 0 0 210 0 0 1 1 0 0 forward_v I I I I #
point $-1 -145 150 210 #
point $-1 -145 -150 210 #
straight-curve $-1 -145 0 110 0 -1 0 I I #
edge $-1 $404 -305 $360 5 $340 $439 forward 7 unknown #
straight-curve $-1 155 150 255 0 0 -1 I I #
coedge $-1 $416 $342 $357 $421 reversed $403 $-1 #
coedge $-1 $342 $416 $344 $406 reversed $403 $-1 #
loop $-1 $-1 $342 $356 #
vertex $-1 $399 $440 #
straight-curve $-1 -155 150 255 0 0 -1 I I #
edge $-1 $347 -150 $418 150 $402 $441 forward 7 unknown #
face $-1 $425 $345 $3 $-1 $442 forward single #
point $-1 155 150 510 #
point $-1 -155 150 510 #
coedge $-1 $382 $386 $380 $434 reversed $350 $-1 #
coedge $-1 $374 $351 $352 $415 reversed $273 $-1 #
coedge $-1 $351 $374 $371 $428 forward $273 $-1 #
coedge $-1 $366 $365 $351 $414 forward $367 $-1 #
edge $-1 $426 -150 $429 150 $413 $443 forward 7 unknown #
edge $-1 $378 -245 $426 -155 $411 $266 forward 7 unknown #
coedge $-1 $402 $401 $353 $417 reversed $403 $-1 #
edge $-1 $418 -255 $422 255 $416 $444 forward 7 unknown #
vertex $-1 $406 $445 #
straight-curve $-1 150 -150 510 1 0 0 I I #
plane-surface $-1 -155 0 255 1 0 0 0 0 -1 forward_v I I I I #
edge $-1 $422 -150 $404 150 $401 $446 forward 7 unknown #
vertex $-1 $421 $447 #
straight-curve $-1 150 -150 0 -1 0 0 I I #
point $-1 155 150 0 #
face $-1 $381 $367 $3 $-1 $448 forward single #
vertex $-1 $369 $449 #
straight-curve $-1 0 150 410 -1 0 0 I I #
edge $-1 $376 -245 $429 -155 $412 $276 forward 7 unknown #
vertex $-1 $372 $450 #
straight-curve $-1 0 -150 410 1 0 0 I I #
straight-curve $-1 -145 0 500 0 1 0 I I #
point $-1 -145 -150 500 #
point $-1 -145 150 500 #
edge $-1 $384 -150 $388 150 $380 $451 forward 7 unknown #
plane-surface $-1 0 0 310 0 0 1 1 0 0 forward_v I I I I #
point $-1 -145 150 310 #
point $-1 -145 -150 310 #
straight-curve $-1 -145 0 210 0 -1 0 I I #
straight-curve $-1 150 150 0 1 0 0 I I #
point $-1 -155 150 0 #
straight-curve $-1 -155 0 510 0 -1 0 I I #
plane-surface $-1 0 0 510 0 0 1 1 0 0 forward_v I I I I #
straight-curve $-1 -145 0 410 0 -1 0 I I #
straight-curve $-1 -155 -150 255 0 0 -1 I I #
point $-1 -155 -150 510 #
straight-curve $-1 -155 0 0 0 1 0 I I #
point $-1 -155 -150 0 #
plane-surface $-1 0 0 410 0 0 1 1 0 0 forward_v I I I I #
point $-1 -145 150 410 #
point $-1 -145 -150 410 #
straight-curve $-1 -145 0 310 0 -1 0 I I #
End-of-ACIS-data 