104 204 0 0                             
body $-1 $1 $-1 $2 #
lump $-1 $-1 $3 $0 #
transform $-1 1 0 0 0 1 0 0 0 1 0 0 0 1 0 0 0 #
shell $-1 $-1 $-1 $4 $1 #
face $5 $6 $7 $3 $-1 $8 1 #
face_name-twe-attrib $-1 $-1 $-1 $4 1 #
face $9 $10 $11 $3 $-1 $12 0 #
loop $13 $14 $15 $4 #
plane-surface $16 0 0 0 0 1 0 0 0 1 0 #
face_name-twe-attrib $-1 $-1 $-1 $6 2 #
face $17 $18 $19 $3 $-1 $20 0 #
loop $21 $22 $23 $6 #
plane-surface $24 0 0.5 0 0 1 0 0 0 1 0 #
loop_type-twe-attrib $-1 $-1 $-1 $7 0 #
loop $25 $-1 $26 $4 #
coedge $-1 $27 $28 $29 $30 0 $7 $-1 #
surf-twe-attrib $-1 $-1 $-1 $8 4 #
face_name-twe-attrib $-1 $-1 $-1 $10 3 #
face $31 $32 $33 $3 $-1 $34 0 #
loop $35 $-1 $29 $10 #
plane-surface $36 0.375 0 0.25 1 0 0 0 0 -1 0 #
loop_type-twe-attrib $-1 $-1 $-1 $11 0 #
loop $37 $-1 $38 $6 #
coedge $-1 $39 $40 $41 $42 1 $11 $-1 #
surf-twe-attrib $-1 $-1 $-1 $12 6 #
loop_type-twe-attrib $-1 $-1 $-1 $14 1 #
coedge $-1 $26 $26 $43 $44 0 $14 $-1 #
coedge $-1 $45 $15 $46 $47 0 $7 $-1 #
coedge $-1 $15 $45 $48 $49 0 $7 $-1 #
coedge $-1 $50 $51 $15 $30 1 $19 $-1 #
edge $52 $53 $54 $29 $55 0 #
face_name-twe-attrib $-1 $-1 $-1 $18 4 #
face $56 $57 $58 $3 $-1 $59 0 #
loop $60 $-1 $48 $18 #
plane-surface $61 0.375 0 -0.25 0 0 -1 -1 0 0 0 #
loop_type-twe-attrib $-1 $-1 $-1 $19 0 #
surf-twe-attrib $-1 $-1 $-1 $20 10 #
loop_type-twe-attrib $-1 $-1 $-1 $22 1 #
coedge $-1 $38 $38 $62 $63 1 $22 $-1 #
coedge $-1 $64 $23 $65 $66 1 $11 $-1 #
coedge $-1 $23 $64 $67 $68 1 $11 $-1 #
coedge $-1 $51 $50 $23 $42 0 $19 $-1 #
edge $69 $70 $71 $41 $72 0 #
coedge $-1 $43 $43 $26 $44 1 $73 $-1 #
edge $74 $75 $75 $43 $76 0 #
coedge $-1 $28 $27 $77 $78 0 $7 $-1 #
coedge $-1 $79 $80 $27 $47 1 $81 $-1 #
edge $82 $54 $83 $46 $84 0 #
coedge $-1 $85 $86 $28 $49 1 $33 $-1 #
edge $87 $88 $53 $48 $89 0 #
coedge $-1 $41 $29 $86 $90 1 $19 $-1 #
coedge $-1 $29 $41 $79 $91 0 $19 $-1 #
edge_name-twe-attrib $-1 $-1 $-1 $30 1 8704 #
vertex $-1 $90 $92 #
vertex $-1 $91 $93 #
straight-curve $94 0.375 0 0.25 0 0 1 #
face_name-twe-attrib $-1 $-1 $-1 $32 5 #
face $95 $96 $81 $3 $-1 $97 0 #
loop $98 $-1 $77 $32 #
plane-surface $99 -0.375 0 -0.25 -1 0 0 0 0 1 0 #
loop_type-twe-attrib $-1 $-1 $-1 $33 0 #
surf-twe-attrib $-1 $-1 $-1 $34 18 #
coedge $-1 $62 $62 $38 $63 0 $100 $-1 #
edge $101 $102 $102 $62 $103 0 #
coedge $-1 $40 $39 $104 $105 1 $11 $-1 #
coedge $-1 $86 $85 $39 $66 0 $33 $-1 #
edge $106 $107 $70 $65 $108 0 #
coedge $-1 $80 $79 $40 $68 0 $81 $-1 #
edge $109 $71 $110 $67 $111 0 #
edge_name-twe-attrib $-1 $-1 $-1 $42 2 8704 #
vertex $-1 $90 $112 #
vertex $-1 $91 $113 #
straight-curve $114 0.375 0.5 0.25 0 0 1 #
loop $115 $-1 $43 $116 #
edge_name-twe-attrib $-1 $-1 $-1 $44 17 8704 #
vertex $-1 $44 $117 #
ellipse-curve $118 0 0 0 -2e-15 1 0 0.133 2.66e-16 0 1 #
coedge $-1 $119 $120 $45 $78 1 $58 $-1 #
edge $121 $83 $88 $77 $122 0 #
coedge $-1 $67 $46 $51 $91 1 $81 $-1 #
coedge $-1 $46 $67 $119 $123 0 $81 $-1 #
loop $124 $-1 $46 $57 #
edge_name-twe-attrib $-1 $-1 $-1 $47 9 8704 #
vertex $-1 $123 $125 #
straight-curve $126 -0.375 0 0.25 -1 0 0 #
coedge $-1 $65 $48 $120 $127 1 $33 $-1 #
coedge $-1 $48 $65 $50 $90 0 $33 $-1 #
edge_name-twe-attrib $-1 $-1 $-1 $49 3 8704 #
vertex $-1 $127 $128 #
straight-curve $129 0.375 0 -0.25 1 0 0 #
edge $130 $70 $53 $86 $131 0 #
edge $132 $71 $54 $79 $133 0 #
point $-1 0.375 0 -0.25 #
point $-1 0.375 0 0.25 #
cur-twe-attrib $-1 $-1 $-1 $55 30 #
face_name-twe-attrib $-1 $-1 $-1 $57 6 #
face $134 $135 $136 $3 $-1 $137 1 #
plane-surface $138 -0.375 0 0.25 0 0 1 1 0 0 0 #
loop_type-twe-attrib $-1 $-1 $-1 $58 0 #
surf-twe-attrib $-1 $-1 $-1 $59 32 #
loop $139 $140 $62 $135 #
edge_name-twe-attrib $-1 $-1 $-1 $63 14 8704 #
vertex $-1 $63 $141 #
ellipse-curve $142 0 0.5 0 0 1 0 -0.21875 0 0 1 #
coedge $-1 $120 $119 $64 $105 0 $58 $-1 #
edge $143 $110 $107 $104 $144 0 #
edge_name-twe-attrib $-1 $-1 $-1 $66 4 8704 #
vertex $-1 $127 $145 #
straight-curve $146 0.375 0.5 -0.25 1 0 0 #
edge_name-twe-attrib $-1 $-1 $-1 $68 11 8704 #
vertex $-1 $123 $147 #
straight-curve $148 -0.375 0.5 0.25 -1 0 0 #
point $-1 0.375 0.5 -0.25 #
point $-1 0.375 0.5 0.25 #
cur-twe-attrib $-1 $-1 $-1 $72 42 #
loop_type-twe-attrib $-1 $-1 $-1 $73 1 #
face $149 $-1 $150 $3 $-1 $151 1 #
point $-1 -0.133 2.66e-16 0 #
cur-twe-attrib $-1 $-1 $-1 $76 44 #
coedge $-1 $104 $77 $80 $123 1 $58 $-1 #
coedge $-1 $77 $104 $85 $127 0 $58 $-1 #
edge_name-twe-attrib $-1 $-1 $-1 $78 6 8704 #
straight-curve $152 -0.375 0 -0.25 0 0 -1 #
edge $153 $110 $83 $80 $154 0 #
loop_type-twe-attrib $-1 $-1 $-1 $81 0 #
point $-1 -0.375 0 0.25 #
cur-twe-attrib $-1 $-1 $-1 $84 47 #
edge $155 $107 $88 $120 $156 0 #
point $-1 -0.375 0 -0.25 #
cur-twe-attrib $-1 $-1 $-1 $89 49 #
edge_name-twe-attrib $-1 $-1 $-1 $90 5 8704 #
straight-curve $157 0.375 0 -0.25 0 -1 0 #
edge_name-twe-attrib $-1 $-1 $-1 $91 10 8704 #
straight-curve $158 0.375 0 0.25 0 -1 0 #
face_name-twe-attrib $-1 $-1 $-1 $96 7 #
face $159 $160 $100 $3 $-1 $161 1 #
loop $162 $163 $164 $96 #
plane-surface $165 0 0.25 0 0 -1 0 0 0 -1 0 #
surf-twe-attrib $-1 $-1 $-1 $97 57 #
loop_type-twe-attrib $-1 $-1 $-1 $100 0 #
loop $166 $-1 $167 $135 #
point $-1 -0.21875 0.5 0 #
cur-twe-attrib $-1 $-1 $-1 $103 63 #
edge_name-twe-attrib $-1 $-1 $-1 $105 7 8704 #
straight-curve $168 -0.375 0.5 -0.25 0 0 -1 #
point $-1 -0.375 0.5 -0.25 #
cur-twe-attrib $-1 $-1 $-1 $108 66 #
point $-1 -0.375 0.5 0.25 #
cur-twe-attrib $-1 $-1 $-1 $111 68 #
face_name-twe-attrib $-1 $-1 $-1 $116 10 #
loop $169 $73 $170 $116 #
cone-surface $171 0 0.525 0 0 -1 0 -0.133 0 0 1 0 1 0 #
cur-twe-attrib $-1 $-1 $-1 $122 78 #
edge_name-twe-attrib $-1 $-1 $-1 $123 12 8704 #
straight-curve $172 -0.375 0 0.25 0 -1 0 #
edge_name-twe-attrib $-1 $-1 $-1 $127 8 8704 #
straight-curve $173 -0.375 0 -0.25 0 -1 0 #
cur-twe-attrib $-1 $-1 $-1 $131 90 #
cur-twe-attrib $-1 $-1 $-1 $133 91 #
face_name-twe-attrib $-1 $-1 $-1 $135 8 #
face $174 $116 $175 $3 $-1 $176 1 #
cone-surface $177 0 0.525 0 0 -1 0 -0.21875 0 0 1 0 1 0 #
loop_type-twe-attrib $-1 $-1 $-1 $136 1 #
loop $178 $-1 $179 $96 #
coedge $-1 $164 $164 $180 $181 0 $136 $-1 #
surf-twe-attrib $-1 $-1 $-1 $137 96 #
loop_type-twe-attrib $-1 $-1 $-1 $140 1 #
coedge $-1 $167 $167 $179 $182 1 $140 $-1 #
cur-twe-attrib $-1 $-1 $-1 $144 105 #
loop_type-twe-attrib $-1 $-1 $-1 $150 0 #
coedge $-1 $170 $170 $183 $184 1 $150 $-1 #
surf-twe-attrib $-1 $-1 $-1 $151 116 #
cur-twe-attrib $-1 $-1 $-1 $154 123 #
cur-twe-attrib $-1 $-1 $-1 $156 127 #
face_name-twe-attrib $-1 $-1 $-1 $160 9 #
loop $185 $186 $180 $160 #
cone-surface $187 0 0.25 0 0 1 0 -0.139 0 0 1 0.499999999999998 0.86602540378444 0 #
surf-twe-attrib $-1 $-1 $-1 $161 135 #
loop_type-twe-attrib $-1 $-1 $-1 $163 0 #
coedge $-1 $179 $179 $167 $182 0 $163 $-1 #
coedge $-1 $180 $180 $164 $181 1 $175 $-1 #
edge $188 $189 $189 $180 $190 0 #
edge $191 $192 $192 $179 $193 0 #
coedge $-1 $183 $183 $170 $184 0 $186 $-1 #
edge $194 $195 $195 $170 $196 0 #
loop_type-twe-attrib $-1 $-1 $-1 $175 0 #
loop $197 $-1 $183 $160 #
surf-twe-attrib $-1 $-1 $-1 $176 160 #
edge_name-twe-attrib $-1 $-1 $-1 $181 15 8448 #
vertex $-1 $181 $198 #
ellipse-curve $199 0 0.25 0 0 -1 0 -0.139 0 0 1 #
edge_name-twe-attrib $-1 $-1 $-1 $182 13 4608 #
vertex $-1 $182 $200 #
ellipse-curve $201 0 0.25 0 0 1 0 -0.21875 0 0 1 #
edge_name-twe-attrib $-1 $-1 $-1 $184 16 8448 #
vertex $-1 $184 $202 #
ellipse-curve $203 0 0.239607695154587 0 0 -1 0 -0.133 0 0 1 #
loop_type-twe-attrib $-1 $-1 $-1 $186 1 #
point $-1 -0.139 0.25 0 #
cur-twe-attrib $-1 $-1 $-1 $190 181 #
point $-1 0.21875 0.25 2.67891441100363e-17 #
cur-twe-attrib $-1 $-1 $-1 $193 182 #
point $-1 0.133 0.239607695154587 -1.6287799618902e-17 #
cur-twe-attrib $-1 $-1 $-1 $196 184 #
