700 0 2 0           
24 FBMach with ACIS - 7.0.3 13 ACIS 7.0.3 NT 24 Tue May 14 12:04:47 2002 
1 9.9999999999999995e-007 1e-010 
body $2 -1 $-1 $3 $-1 $4 #
bdycol-kcp $-1 -1 1 4 $5 $6 $7 $8 #
model_id-kcp-attrib $-1 -1 $-1 $-1 $0 1 1021392286 1021392286 407502849 1 #
lump $-1 -1 $-1 $-1 $9 $0 #
transform $-1 -1 1 0 0 0 1 0 0 0 1 0 0 0 1 rotate no_reflect no_shear #
body $10 -1 $-1 $11 $-1 $12 #
body $13 -1 $-1 $14 $-1 $15 #
body $16 -1 $-1 $17 $-1 $18 #
body $19 -1 $-1 $20 $-1 $21 #
shell $-1 -1 $-1 $-1 $-1 $22 $-1 $3 #
model_id-kcp-attrib $-1 -1 $-1 $-1 $5 1 1021392286 1021392286 407502850 1 #
lump $-1 -1 $-1 $-1 $23 $5 #
transform $-1 -1 1 0 0 0 1 0 0 0 1 0 0.24999999999999986 0 1 no_rotate no_reflect no_shear #
rgb_color-st-attrib $-1 -1 $24 $-1 $6 1 1 0.5 #
lump $-1 -1 $-1 $-1 $25 $6 #
transform $-1 -1 1 0 0 0 0 1 0 -1 0 0 0.12962246887396234 0 1 rotate no_reflect no_shear #
rgb_color-st-attrib $-1 -1 $26 $-1 $7 0.5 1 1 #
lump $-1 -1 $-1 $-1 $27 $7 #
transform $-1 -1 1 0 0 0 -3.8285889215894375e-016 1 0 -1 -3.8285889215894375e-016 0 0.375 -5.7428833823841563e-017 1 rotate no_reflect no_shear #
rgb_color-st-attrib $-1 -1 $28 $-1 $8 0.5 1 1 #
lump $-1 -1 $-1 $-1 $29 $8 #
transform $-1 -1 1 0 0 0 -3.8285889215894375e-016 1 0 -1 -3.8285889215894375e-016 0 0.12499999999999989 -1.5314355686357755e-016 1 rotate no_reflect no_shear #
face $30 -1 $-1 $31 $32 $9 $-1 $33 reversed single #
shell $-1 -1 $-1 $-1 $-1 $34 $-1 $11 #
model_id-kcp-attrib $-1 -1 $-1 $13 $6 1 1021392286 1021392286 408813571 1 #
shell $-1 -1 $-1 $-1 $-1 $35 $-1 $14 #
model_id-kcp-attrib $-1 -1 $-1 $16 $7 1 1021392286 1021392286 411435012 1 #
shell $-1 -1 $-1 $-1 $-1 $36 $-1 $17 #
model_id-kcp-attrib $-1 -1 $-1 $19 $8 1 1021392286 1021392286 412090373 1 #
shell $-1 -1 $-1 $-1 $-1 $37 $-1 $20 #
model_id-kcp-attrib $-1 -1 $38 $-1 $22 1 1021392286 1021392286 407502849 2 #
face $39 -1 $-1 $40 $41 $9 $-1 $42 forward single #
loop $43 -1 $-1 $44 $45 $22 #
plane-surface $46 -1 $-1 0 0 0 0 1 0 0 0 1 forward_v I I I I #
face $47 -1 $-1 $48 $49 $23 $-1 $50 forward single #
face $-1 -1 $-1 $51 $52 $25 $-1 $53 reversed single #
face $-1 -1 $-1 $54 $55 $27 $-1 $56 forward single #
face $-1 -1 $-1 $57 $58 $29 $-1 $59 forward single #
face_name-twe-attrib $-1 -1 $-1 $30 $22 1 #
model_id-kcp-attrib $-1 -1 $60 $-1 $31 1 1021392286 1021392286 407502849 3 #
face $61 -1 $-1 $62 $63 $9 $-1 $64 forward single #
loop $65 -1 $-1 $66 $67 $31 #
plane-surface $68 -1 $-1 0 0.5 0 0 1 0 0 0 1 forward_v I I I I #
loop_type-twe-attrib $-1 -1 $-1 $-1 $32 0 #
loop $69 -1 $-1 $-1 $70 $22 #
coedge $-1 -1 $-1 $71 $72 $73 $74 forward $32 $-1 #
surf-twe-attrib $-1 -1 $-1 $-1 $33 4 #
model_id-kcp-attrib $-1 -1 $-1 $-1 $34 1 1021392286 1021392286 407502850 7 #
face $75 -1 $-1 $76 $77 $23 $-1 $78 reversed single #
loop $-1 -1 $-1 $-1 $79 $34 #
plane-surface $-1 -1 $-1 0 0 0.25 0 0 1 1 0 0 forward_v I I I I #
face $-1 -1 $-1 $80 $81 $25 $-1 $82 forward single #
loop $-1 -1 $-1 $83 $84 $35 #
cone-surface $-1 -1 $-1 0 0 0 0 0 1 0.13300000000000001 0 0 1 I I 0 1 0.13300000000000001 forward I I I I #
face $-1 -1 $-1 $85 $86 $27 $-1 $87 forward single #
loop $-1 -1 $-1 $88 $89 $36 #
cone-surface $-1 -1 $-1 0 0 0 0 0 1 0.21875 0 0 1 I I 0 1 0.21875 forward I I I I #
face $-1 -1 $-1 $90 $91 $29 $-1 $92 forward single #
loop $-1 -1 $-1 $93 $94 $37 #
cone-surface $-1 -1 $-1 0 0 0 0 0 1 0.13300000000000001 0 0 1 I I 0 1 0.13300000000000001 forward I I I I #
face_name-twe-attrib $-1 -1 $-1 $39 $31 2 #
model_id-kcp-attrib $-1 -1 $95 $-1 $40 1 1021392286 1021392286 407502849 4 #
face $96 -1 $-1 $97 $98 $9 $-1 $99 forward single #
loop $100 -1 $-1 $-1 $73 $40 #
plane-surface $101 -1 $-1 0.375 0 0.25 1 0 0 0 0 -1 forward_v I I I I #
loop_type-twe-attrib $-1 -1 $-1 $-1 $41 0 #
loop $102 -1 $-1 $-1 $103 $31 #
coedge $-1 -1 $-1 $104 $105 $106 $107 reversed $41 $-1 #
surf-twe-attrib $-1 -1 $-1 $-1 $42 6 #
model_id-kcp-attrib $-1 -1 $108 $-1 $44 1 1021392286 1021392286 407502849 18 #
coedge $-1 -1 $-1 $70 $70 $109 $110 forward $44 $-1 #
coedge $-1 -1 $-1 $111 $45 $112 $113 forward $32 $-1 #
coedge $-1 -1 $-1 $45 $111 $114 $115 forward $32 $-1 #
coedge $-1 -1 $-1 $116 $117 $45 $74 reversed $63 $-1 #
edge $118 -1 $-1 $119 -0.5 $120 0 $73 $121 forward @7 unknown #
model_id-kcp-attrib $-1 -1 $-1 $-1 $48 1 1021392286 1021392286 407502850 5 #
face $122 -1 $-1 $123 $124 $23 $-1 $125 reversed single #
loop $-1 -1 $-1 $-1 $126 $48 #
plane-surface $-1 -1 $-1 0 0 -0.25 0 0 1 1 0 0 forward_v I I I I #
coedge $-1 -1 $-1 $127 $128 $129 $130 forward $49 $-1 #
face $-1 -1 $-1 $-1 $131 $25 $-1 $132 forward single #
loop $-1 -1 $-1 $133 $134 $51 #
cone-surface $-1 -1 $-1 0 0 0 0 0 1 0.069500000000000006 0 0 1 I I -0.49999999999999789 0.86602540378443982 0.069500000000000006 forward I I I I #
loop $-1 -1 $-1 $-1 $135 $35 #
coedge $-1 -1 $-1 $84 $84 $134 $136 reversed $52 $-1 #
face $-1 -1 $-1 $-1 $137 $27 $-1 $138 forward single #
loop $-1 -1 $-1 $-1 $139 $54 #
plane-surface $-1 -1 $-1 0 0 -0.12500000000000011 0 0 -1 -1 0 0 forward_v I I I I #
loop $-1 -1 $-1 $-1 $140 $36 #
coedge $-1 -1 $-1 $89 $89 $139 $141 reversed $55 $-1 #
face $-1 -1 $-1 $-1 $142 $29 $-1 $143 forward single #
loop $-1 -1 $-1 $-1 $144 $57 #
plane-surface $-1 -1 $-1 0 0 -0.12500000000000017 0 0 -1 -1 0 0 forward_v I I I I #
loop $-1 -1 $-1 $-1 $145 $37 #
coedge $-1 -1 $-1 $94 $94 $144 $146 reversed $58 $-1 #
face_name-twe-attrib $-1 -1 $-1 $61 $40 3 #
model_id-kcp-attrib $-1 -1 $147 $-1 $62 1 1021392286 1021392286 407502849 5 #
face $148 -1 $-1 $149 $150 $9 $-1 $151 forward single #
loop $152 -1 $-1 $-1 $114 $62 #
plane-surface $153 -1 $-1 0.375 0 -0.25 0 0 -1 -1 0 0 forward_v I I I I #
loop_type-twe-attrib $-1 -1 $-1 $-1 $63 0 #
surf-twe-attrib $-1 -1 $-1 $-1 $64 10 #
loop_type-twe-attrib $-1 -1 $-1 $-1 $66 1 #
coedge $-1 -1 $-1 $103 $103 $154 $155 reversed $66 $-1 #
coedge $-1 -1 $-1 $156 $67 $157 $158 reversed $41 $-1 #
coedge $-1 -1 $-1 $67 $156 $159 $160 reversed $41 $-1 #
coedge $-1 -1 $-1 $117 $116 $67 $107 forward $63 $-1 #
edge $161 -1 $-1 $162 -0.5 $163 0 $106 $164 forward @7 unknown #
loop_type-twe-attrib $-1 -1 $-1 $69 $44 1 #
coedge $-1 -1 $-1 $109 $109 $70 $110 reversed $165 $-1 #
edge $166 -1 $-1 $167 -3.1415926535897931 $167 3.1415926535897931 $109 $168 forward @7 unknown #
coedge $-1 -1 $-1 $72 $71 $169 $170 forward $32 $-1 #
coedge $-1 -1 $-1 $171 $172 $71 $113 reversed $173 $-1 #
edge $174 -1 $-1 $120 -0.75 $175 0 $112 $176 forward @7 unknown #
coedge $-1 -1 $-1 $177 $178 $72 $115 reversed $98 $-1 #
edge $179 -1 $-1 $180 -0.75 $119 0 $114 $181 forward @7 unknown #
coedge $-1 -1 $-1 $106 $73 $178 $182 reversed $63 $-1 #
coedge $-1 -1 $-1 $73 $106 $171 $183 forward $63 $-1 #
attrib_edge_convexity-kcp-attrib $-1 -1 $184 $-1 $74 1 #
vertex $-1 -1 $-1 $182 $185 #
vertex $-1 -1 $-1 $183 $186 #
straight-curve $187 -1 $-1 0.375 0 0.25 0 0 1 I I #
model_id-kcp-attrib $-1 -1 $-1 $-1 $76 1 1021392286 1021392286 407502850 2 #
face $188 -1 $-1 $189 $190 $23 $-1 $191 reversed single #
loop $-1 -1 $-1 $-1 $192 $76 #
plane-surface $-1 -1 $-1 0 -0.25000000000000011 0 0 1 0 0 0 1 forward_v I I I I #
coedge $-1 -1 $-1 $193 $194 $195 $196 forward $77 $-1 #
coedge $-1 -1 $-1 $197 $79 $198 $199 forward $49 $-1 #
coedge $-1 -1 $-1 $79 $197 $200 $201 forward $49 $-1 #
coedge $-1 -1 $-1 $202 $203 $79 $130 reversed $204 $-1 #
edge $-1 -1 $-1 $205 -0.25000000000000011 $206 0.25000000000000011 $129 $207 forward @7 unknown #
loop $-1 -1 $-1 $208 $209 $80 #
plane-surface $-1 -1 $-1 0 0 -0.12037753112603765 0 0 -1 -1 0 0 forward_v I I I I #
loop $-1 -1 $-1 $-1 $210 $51 #
coedge $-1 -1 $-1 $134 $134 $84 $136 forward $81 $-1 #
coedge $-1 -1 $-1 $135 $135 $209 $211 reversed $83 $-1 #
edge $-1 -1 $-1 $212 -3.1415926535897931 $212 3.1415926535897931 $134 $213 forward @7 unknown #
loop $-1 -1 $-1 $-1 $214 $85 #
plane-surface $-1 -1 $-1 0 0 0.12500000000000011 0 0 1 1 0 0 forward_v I I I I #
coedge $-1 -1 $-1 $139 $139 $89 $141 forward $86 $-1 #
coedge $-1 -1 $-1 $140 $140 $214 $215 reversed $88 $-1 #
edge $-1 -1 $-1 $216 0 $216 6.2831853071795862 $139 $217 forward @7 unknown #
loop $-1 -1 $-1 $-1 $218 $90 #
plane-surface $-1 -1 $-1 0 0 0.12500000000000017 0 0 1 1 0 0 forward_v I I I I #
coedge $-1 -1 $-1 $144 $144 $94 $146 forward $91 $-1 #
coedge $-1 -1 $-1 $145 $145 $218 $219 reversed $93 $-1 #
edge $-1 -1 $-1 $220 0 $220 6.2831853071795862 $144 $221 forward @7 unknown #
face_name-twe-attrib $-1 -1 $-1 $96 $62 4 #
model_id-kcp-attrib $-1 -1 $222 $-1 $97 1 1021392286 1021392286 407502849 6 #
face $223 -1 $-1 $224 $173 $9 $-1 $225 forward single #
loop $226 -1 $-1 $-1 $169 $97 #
plane-surface $227 -1 $-1 -0.375 0 -0.25 -1 0 0 0 0 1 forward_v I I I I #
loop_type-twe-attrib $-1 -1 $-1 $-1 $98 0 #
surf-twe-attrib $-1 -1 $-1 $-1 $99 18 #
coedge $-1 -1 $-1 $154 $154 $103 $155 forward $228 $-1 #
edge $229 -1 $-1 $230 0 $230 6.2831853071795862 $154 $231 forward @7 unknown #
coedge $-1 -1 $-1 $105 $104 $232 $233 reversed $41 $-1 #
coedge $-1 -1 $-1 $178 $177 $104 $158 forward $98 $-1 #
edge $234 -1 $-1 $235 -0.75 $162 0 $157 $236 forward @7 unknown #
coedge $-1 -1 $-1 $172 $171 $105 $160 forward $173 $-1 #
edge $237 -1 $-1 $163 -0.75 $238 0 $159 $239 forward @7 unknown #
attrib_edge_convexity-kcp-attrib $-1 -1 $240 $-1 $107 1 #
vertex $-1 -1 $-1 $182 $241 #
vertex $-1 -1 $-1 $183 $242 #
straight-curve $243 -1 $-1 0.375 0.5 0.25 0 0 1 I I #
loop $244 -1 $-1 $-1 $109 $245 #
attrib_edge_convexity-kcp-attrib $-1 -1 $246 $-1 $110 1 #
vertex $247 -1 $-1 $110 $248 #
ellipse-curve $249 -1 $-1 0 0 0 -2.0000000000000002e-015 1 0 0.13300000000000001 2.6599999999999998e-016 0 1 I I #
coedge $-1 -1 $-1 $250 $251 $111 $170 reversed $150 $-1 #
edge $252 -1 $-1 $175 -0.5 $180 0 $169 $253 forward @7 unknown #
coedge $-1 -1 $-1 $159 $112 $117 $183 reversed $173 $-1 #
coedge $-1 -1 $-1 $112 $159 $250 $254 forward $173 $-1 #
loop $255 -1 $-1 $-1 $112 $149 #
attrib_edge_convexity-kcp-attrib $-1 -1 $256 $-1 $113 1 #
vertex $-1 -1 $-1 $254 $257 #
straight-curve $258 -1 $-1 -0.375 0 0.25 -1 0 0 I I #
coedge $-1 -1 $-1 $157 $114 $251 $259 reversed $98 $-1 #
coedge $-1 -1 $-1 $114 $157 $116 $182 forward $98 $-1 #
attrib_edge_convexity-kcp-attrib $-1 -1 $260 $-1 $115 1 #
vertex $-1 -1 $-1 $259 $261 #
straight-curve $262 -1 $-1 0.375 0 -0.25 1 0 0 I I #
edge $263 -1 $-1 $162 -0.5 $119 0 $178 $264 forward @7 unknown #
edge $265 -1 $-1 $163 -0.5 $120 0 $171 $266 forward @7 unknown #
convexity-sys-attrib $-1 -1 $267 $118 $74 #
point $-1 -1 $-1 0.375 0 -0.25 #
point $-1 -1 $-1 0.375 0 0.25 #
cur-twe-attrib $-1 -1 $-1 $-1 $121 30 #
model_id-kcp-attrib $-1 -1 $-1 $-1 $123 1 1021392286 1021392286 407502850 6 #
face $268 -1 $-1 $269 $270 $23 $-1 $271 reversed single #
loop $-1 -1 $-1 $-1 $272 $123 #
plane-surface $-1 -1 $-1 -0.375 0 0 1 0 0 0 0 -1 forward_v I I I I #
coedge $-1 -1 $-1 $273 $200 $274 $275 forward $124 $-1 #
coedge $-1 -1 $-1 $276 $126 $273 $277 forward $77 $-1 #
coedge $-1 -1 $-1 $126 $276 $278 $279 forward $77 $-1 #
coedge $-1 -1 $-1 $203 $202 $126 $196 reversed $204 $-1 #
edge $-1 -1 $-1 $280 -0.25000000000000011 $281 0.25000000000000011 $195 $282 forward @7 unknown #
coedge $-1 -1 $-1 $128 $127 $283 $284 forward $49 $-1 #
coedge $-1 -1 $-1 $285 $286 $127 $199 reversed $270 $-1 #
edge $-1 -1 $-1 $206 -0.375 $287 0.375 $198 $288 forward @7 unknown #
coedge $-1 -1 $-1 $192 $289 $128 $201 reversed $124 $-1 #
edge $-1 -1 $-1 $290 -0.375 $205 0.375 $200 $291 forward @7 unknown #
coedge $-1 -1 $-1 $195 $129 $289 $292 forward $204 $-1 #
coedge $-1 -1 $-1 $129 $195 $285 $293 reversed $204 $-1 #
loop $-1 -1 $-1 $-1 $202 $269 #
vertex $-1 -1 $-1 $130 $294 #
vertex $-1 -1 $-1 $130 $295 #
straight-curve $-1 -1 $-1 0.375 0 0.25 0 1 0 I I #
loop $-1 -1 $-1 $-1 $296 $80 #
coedge $-1 -1 $-1 $209 $209 $135 $211 forward $131 $-1 #
coedge $-1 -1 $-1 $210 $210 $296 $297 reversed $133 $-1 #
edge $-1 -1 $-1 $298 0 $298 6.2831853071795862 $209 $299 forward @7 unknown #
vertex $-1 -1 $-1 $136 $300 #
ellipse-curve $-1 -1 $-1 0 0 -0.10998522628062432 0 0 -1 0.13300000000000001 0 0 1 I I #
coedge $-1 -1 $-1 $214 $214 $140 $215 forward $137 $-1 #
edge $-1 -1 $-1 $301 0 $301 6.2831853071795862 $214 $302 forward @7 unknown #
vertex $-1 -1 $-1 $141 $303 #
ellipse-curve $-1 -1 $-1 0 0 -0.12500000000000011 0 0 -1 0.21875 0 0 1 I I #
coedge $-1 -1 $-1 $218 $218 $145 $219 forward $142 $-1 #
edge $-1 -1 $-1 $304 0 $304 6.2831853071795862 $218 $305 forward @7 unknown #
vertex $-1 -1 $-1 $146 $306 #
ellipse-curve $-1 -1 $-1 0 0 -0.12500000000000017 0 0 -1 0.13300000000000001 0 0 1 I I #
face_name-twe-attrib $-1 -1 $-1 $148 $97 5 #
model_id-kcp-attrib $-1 -1 $307 $-1 $149 1 1021392286 1021392286 407502849 7 #
face $308 -1 $-1 $309 $310 $9 $-1 $311 reversed single #
plane-surface $312 -1 $-1 -0.375 0 0.25 0 0 1 1 0 0 forward_v I I I I #
loop_type-twe-attrib $-1 -1 $-1 $-1 $150 0 #
surf-twe-attrib $-1 -1 $-1 $-1 $151 32 #
loop $313 -1 $-1 $314 $154 $309 #
attrib_edge_convexity-kcp-attrib $-1 -1 $315 $-1 $155 1 #
vertex $-1 -1 $-1 $155 $316 #
ellipse-curve $317 -1 $-1 0 0.5 0 0 1 0 -0.21875 0 0 1 I I #
coedge $-1 -1 $-1 $251 $250 $156 $233 forward $150 $-1 #
edge $318 -1 $-1 $238 -0.5 $235 0 $232 $319 forward @7 unknown #
attrib_edge_convexity-kcp-attrib $-1 -1 $320 $-1 $158 1 #
vertex $-1 -1 $-1 $259 $321 #
straight-curve $322 -1 $-1 0.375 0.5 -0.25 1 0 0 I I #
edge_name-twe-attrib $-1 -1 $-1 $-1 $160 11 8704 #
vertex $-1 -1 $-1 $254 $323 #
straight-curve $324 -1 $-1 -0.375 0.5 0.25 -1 0 0 I I #
convexity-sys-attrib $-1 -1 $325 $161 $107 #
point $-1 -1 $-1 0.375 0.5 -0.25 #
point $-1 -1 $-1 0.375 0.5 0.25 #
cur-twe-attrib $-1 -1 $-1 $-1 $164 42 #
model_id-kcp-attrib $-1 -1 $326 $-1 $165 1 1021392286 1021392286 407502849 15 #
face $327 -1 $-1 $-1 $328 $9 $-1 $329 reversed single #
convexity-sys-attrib $-1 -1 $330 $166 $110 #
model_id-kcp-attrib $-1 -1 $-1 $-1 $167 1 1021392286 1021392286 407502849 21 #
point $-1 -1 $-1 -0.13300000000000001 2.6599999999999998e-016 0 #
cur-twe-attrib $-1 -1 $-1 $-1 $168 44 #
coedge $-1 -1 $-1 $232 $169 $172 $254 reversed $150 $-1 #
coedge $-1 -1 $-1 $169 $232 $177 $259 forward $150 $-1 #
attrib_edge_convexity-kcp-attrib $-1 -1 $331 $-1 $170 1 #
straight-curve $332 -1 $-1 -0.375 0 -0.25 0 0 -1 I I #
edge $333 -1 $-1 $238 -0.5 $175 0 $172 $334 forward @7 unknown #
loop_type-twe-attrib $-1 -1 $-1 $-1 $173 0 #
convexity-sys-attrib $-1 -1 $335 $174 $113 #
point $-1 -1 $-1 -0.375 0 0.25 #
cur-twe-attrib $-1 -1 $-1 $-1 $176 47 #
edge $336 -1 $-1 $235 -0.5 $180 0 $251 $337 forward @7 unknown #
convexity-sys-attrib $-1 -1 $338 $179 $115 #
point $-1 -1 $-1 -0.375 0 -0.25 #
cur-twe-attrib $-1 -1 $-1 $-1 $181 49 #
attrib_edge_convexity-kcp-attrib $-1 -1 $339 $-1 $182 1 #
straight-curve $340 -1 $-1 0.375 0 -0.25 0 -1 0 I I #
attrib_edge_convexity-kcp-attrib $-1 -1 $341 $-1 $183 1 #
straight-curve $342 -1 $-1 0.375 0 0.25 0 -1 0 I I #
edge_name-twe-attrib $-1 -1 $-1 $184 $74 1 8704 #
model_id-kcp-attrib $-1 -1 $-1 $-1 $189 1 1021392286 1021392286 407502850 3 #
face $343 -1 $-1 $-1 $204 $23 $-1 $344 reversed single #
loop $-1 -1 $-1 $-1 $285 $189 #
plane-surface $-1 -1 $-1 0 0.25000000000000011 0 0 -1 0 0 0 -1 forward_v I I I I #
coedge $-1 -1 $-1 $345 $283 $286 $346 forward $190 $-1 #
coedge $-1 -1 $-1 $289 $192 $193 $277 reversed $124 $-1 #
coedge $-1 -1 $-1 $283 $345 $192 $275 reversed $190 $-1 #
edge $-1 -1 $-1 $290 -0.25 $347 0.25 $274 $348 forward @7 unknown #
coedge $-1 -1 $-1 $194 $193 $345 $349 forward $77 $-1 #
edge $-1 -1 $-1 $281 -0.375 $347 0.375 $273 $350 forward @7 unknown #
coedge $-1 -1 $-1 $286 $285 $194 $279 reversed $270 $-1 #
edge $-1 -1 $-1 $351 -0.375 $280 0.375 $278 $352 forward @7 unknown #
vertex $-1 -1 $-1 $196 $353 #
vertex $-1 -1 $-1 $292 $354 #
straight-curve $-1 -1 $-1 0.375 0 -0.25 0 -1 0 I I #
coedge $-1 -1 $-1 $272 $274 $197 $284 reversed $190 $-1 #
edge $-1 -1 $-1 $287 -0.25000000000000011 $290 0.25000000000000011 $283 $355 forward @7 unknown #
coedge $-1 -1 $-1 $278 $198 $203 $293 forward $270 $-1 #
coedge $-1 -1 $-1 $198 $278 $272 $346 reversed $270 $-1 #
vertex $-1 -1 $-1 $199 $356 #
straight-curve $-1 -1 $-1 0 0.25000000000000011 0.25 -1 0 0 I I #
coedge $-1 -1 $-1 $200 $273 $202 $292 reversed $124 $-1 #
vertex $-1 -1 $-1 $284 $357 #
straight-curve $-1 -1 $-1 0 -0.25000000000000011 0.25 1 0 0 I I #
edge $-1 -1 $-1 $205 -0.25 $281 0.25 $202 $358 forward @7 unknown #
edge $-1 -1 $-1 $206 -0.25 $280 0.25 $203 $359 forward @7 unknown #
point $-1 -1 $-1 0.375 -0.25000000000000011 0.25 #
point $-1 -1 $-1 0.375 0.25000000000000011 0.25 #
coedge $-1 -1 $-1 $296 $296 $210 $297 forward $208 $-1 #
edge $-1 -1 $-1 $360 0 $360 6.2831853071795862 $296 $361 forward @7 unknown #
vertex $-1 -1 $-1 $211 $362 #
ellipse-curve $-1 -1 $-1 0 0 -0.12037753112603765 0 0 1 0.13300000000000001 0 0 1 I I #
point $-1 -1 $-1 -0.13300000000000001 1.6287264505837618e-017 -0.10998522628062432 #
vertex $-1 -1 $-1 $215 $363 #
ellipse-curve $-1 -1 $-1 0 0 0.12500000000000011 0 0 1 0.21875 0 0 1 I I #
point $-1 -1 $-1 0.21875 0 -0.12500000000000011 #
vertex $-1 -1 $-1 $219 $364 #
ellipse-curve $-1 -1 $-1 0 0 0.12500000000000017 0 0 1 0.13300000000000001 0 0 1 I I #
point $-1 -1 $-1 0.13300000000000001 0 -0.12500000000000017 #
face_name-twe-attrib $-1 -1 $-1 $223 $149 6 #
model_id-kcp-attrib $-1 -1 $365 $-1 $224 1 1021392286 1021392286 407502849 8 #
face $366 -1 $-1 $367 $228 $9 $-1 $368 reversed single #
loop $369 -1 $-1 $370 $371 $224 #
plane-surface $372 -1 $-1 0 0.25 0 0 -1 0 0 0 -1 forward_v I I I I #
surf-twe-attrib $-1 -1 $-1 $-1 $225 57 #
loop_type-twe-attrib $-1 -1 $-1 $-1 $228 0 #
loop $373 -1 $-1 $-1 $374 $309 #
convexity-sys-attrib $-1 -1 $375 $229 $155 #
point $-1 -1 $-1 -0.21875 0.5 0 #
cur-twe-attrib $-1 -1 $-1 $-1 $231 63 #
edge_name-twe-attrib $-1 -1 $-1 $-1 $233 7 8704 #
straight-curve $376 -1 $-1 -0.375 0.5 -0.25 0 0 -1 I I #
convexity-sys-attrib $-1 -1 $377 $234 $158 #
point $-1 -1 $-1 -0.375 0.5 -0.25 #
cur-twe-attrib $-1 -1 $-1 $-1 $236 66 #
point $-1 -1 $-1 -0.375 0.5 0.25 #
cur-twe-attrib $-1 -1 $-1 $-1 $239 68 #
edge_name-twe-attrib $-1 -1 $-1 $240 $107 2 8704 #
loop_type-twe-attrib $-1 -1 $-1 $244 $165 1 #
model_id-kcp-attrib $-1 -1 $378 $-1 $245 1 1021392286 1021392286 407502849 11 #
loop $379 -1 $-1 $165 $380 $245 #
cone-surface $381 -1 $-1 0 0.52500000000000002 0 0 -1 0 -0.13300000000000001 0 0 1 I I 0 1 0.13300000000000001 forward I I I I #
edge_name-twe-attrib $-1 -1 $-1 $246 $110 17 8704 #
convexity-sys-attrib $-1 -1 $382 $252 $170 #
cur-twe-attrib $-1 -1 $-1 $-1 $253 78 #
edge_name-twe-attrib $-1 -1 $-1 $-1 $254 12 8704 #
straight-curve $383 -1 $-1 -0.375 0 0.25 0 -1 0 I I #
edge_name-twe-attrib $-1 -1 $-1 $256 $113 9 8704 #
attrib_edge_convexity-kcp-attrib $-1 -1 $384 $-1 $259 1 #
straight-curve $385 -1 $-1 -0.375 0 -0.25 0 -1 0 I I #
edge_name-twe-attrib $-1 -1 $-1 $260 $115 3 8704 #
convexity-sys-attrib $-1 -1 $386 $263 $182 #
cur-twe-attrib $-1 -1 $-1 $-1 $264 90 #
convexity-sys-attrib $-1 -1 $387 $265 $183 #
cur-twe-attrib $-1 -1 $-1 $-1 $266 91 #
model_id-kcp-attrib $-1 -1 $-1 $-1 $269 1 1021392286 1021392286 407502850 4 #
plane-surface $-1 -1 $-1 0.375 0 0 -1 0 0 0 0 1 forward_v I I I I #
coedge $-1 -1 $-1 $274 $272 $276 $349 reversed $190 $-1 #
edge $-1 -1 $-1 $287 -0.25 $351 0.25 $286 $388 forward @7 unknown #
vertex $-1 -1 $-1 $349 $389 #
straight-curve $-1 -1 $-1 -0.375 -0.25000000000000011 0 0 0 -1 I I #
edge $-1 -1 $-1 $347 -0.25000000000000011 $351 0.25000000000000011 $345 $390 forward @7 unknown #
straight-curve $-1 -1 $-1 0 -0.25000000000000011 -0.25 -1 0 0 I I #
vertex $-1 -1 $-1 $279 $391 #
straight-curve $-1 -1 $-1 0 0.25000000000000011 -0.25 1 0 0 I I #
point $-1 -1 $-1 0.375 0.25000000000000011 -0.25 #
point $-1 -1 $-1 0.375 -0.25000000000000011 -0.25 #
straight-curve $-1 -1 $-1 -0.375 0 0.25 0 -1 0 I I #
point $-1 -1 $-1 -0.375 0.25000000000000011 0.25 #
point $-1 -1 $-1 -0.375 -0.25000000000000011 0.25 #
straight-curve $-1 -1 $-1 0.375 -0.25000000000000011 0 0 0 -1 I I #
straight-curve $-1 -1 $-1 0.375 0.25000000000000011 0 0 0 -1 I I #
vertex $-1 -1 $-1 $297 $392 #
ellipse-curve $-1 -1 $-1 0 0 -0.12037753112603765 0 0 -1 0.13900000000000001 0 0 1 I I #
point $-1 -1 $-1 0.13300000000000001 0 -0.12037753112603765 #
point $-1 -1 $-1 0.21875 0 0.12500000000000011 #
point $-1 -1 $-1 0.13300000000000001 0 0.12500000000000017 #
face_name-twe-attrib $-1 -1 $-1 $308 $224 7 #
model_id-kcp-attrib $-1 -1 $393 $-1 $309 1 1021392286 1021392286 407502849 9 #
face $394 -1 $-1 $245 $395 $9 $-1 $396 reversed single #
cone-surface $397 -1 $-1 0 0.52500000000000002 0 0 -1 0 -0.21875 0 0 1 I I 0 1 0.21875 forward I I I I #
model_id-kcp-attrib $-1 -1 $398 $-1 $310 1 1021392286 1021392286 407502849 19 #
loop $399 -1 $-1 $-1 $400 $224 #
coedge $-1 -1 $-1 $371 $371 $401 $402 forward $310 $-1 #
surf-twe-attrib $-1 -1 $-1 $-1 $311 96 #
loop_type-twe-attrib $-1 -1 $-1 $-1 $314 1 #
coedge $-1 -1 $-1 $374 $374 $400 $403 reversed $314 $-1 #
edge_name-twe-attrib $-1 -1 $-1 $315 $155 14 8704 #
cur-twe-attrib $-1 -1 $-1 $-1 $319 105 #
edge_name-twe-attrib $-1 -1 $-1 $320 $158 4 8704 #
face_name-twe-attrib $-1 -1 $-1 $327 $245 10 #
model_id-kcp-attrib $-1 -1 $404 $-1 $328 1 1021392286 1021392286 407502849 14 #
coedge $-1 -1 $-1 $380 $380 $405 $406 reversed $328 $-1 #
surf-twe-attrib $-1 -1 $-1 $-1 $329 116 #
edge_name-twe-attrib $-1 -1 $-1 $331 $170 6 8704 #
cur-twe-attrib $-1 -1 $-1 $-1 $334 123 #
convexity-sys-attrib $-1 -1 $407 $336 $259 #
cur-twe-attrib $-1 -1 $-1 $-1 $337 127 #
edge_name-twe-attrib $-1 -1 $-1 $339 $182 5 8704 #
edge_name-twe-attrib $-1 -1 $-1 $341 $183 10 8704 #
straight-curve $-1 -1 $-1 -0.375 0.25000000000000011 0 0 0 -1 I I #
point $-1 -1 $-1 -0.375 -0.25000000000000011 -0.25 #
straight-curve $-1 -1 $-1 -0.375 0 -0.25 0 1 0 I I #
point $-1 -1 $-1 -0.375 0.25000000000000011 -0.25 #
point $-1 -1 $-1 0.13900000000000001 0 -0.12037753112603765 #
face_name-twe-attrib $-1 -1 $-1 $366 $309 8 #
model_id-kcp-attrib $-1 -1 $408 $-1 $367 1 1021392286 1021392286 407502849 10 #
loop $409 -1 $-1 $410 $401 $367 #
cone-surface $411 -1 $-1 0 0.25 0 0 1 0 -0.13900000000000001 0 0 1 I I 0.499999999999998 0.86602540378444004 0.13900000000000001 forward I I I I #
surf-twe-attrib $-1 -1 $-1 $-1 $368 135 #
loop_type-twe-attrib $-1 -1 $-1 $369 $310 1 #
loop_type-twe-attrib $-1 -1 $-1 $-1 $370 0 #
coedge $-1 -1 $-1 $400 $400 $374 $403 forward $370 $-1 #
coedge $-1 -1 $-1 $401 $401 $371 $402 reversed $395 $-1 #
edge $412 -1 $-1 $413 0 $413 6.2831853071795862 $401 $414 forward @7 unknown #
edge $415 -1 $-1 $416 -3.1415926535897931 $416 3.1415926535897931 $400 $417 forward @7 unknown #
loop_type-twe-attrib $-1 -1 $-1 $379 $328 0 #
coedge $-1 -1 $-1 $405 $405 $380 $406 forward $410 $-1 #
edge $418 -1 $-1 $419 -3.1415926535897931 $419 3.1415926535897931 $380 $420 forward @7 unknown #
edge_name-twe-attrib $-1 -1 $-1 $384 $259 8 8704 #
face_name-twe-attrib $-1 -1 $-1 $394 $367 9 #
model_id-kcp-attrib $-1 -1 $421 $-1 $395 1 1021392286 1021392286 407502849 16 #
loop $422 -1 $-1 $-1 $405 $367 #
surf-twe-attrib $-1 -1 $-1 $-1 $396 160 #
attrib_edge_convexity-kcp-attrib $-1 -1 $423 $-1 $402 1 #
vertex $-1 -1 $-1 $402 $424 #
ellipse-curve $425 -1 $-1 0 0.25 0 0 -1 0 -0.13900000000000001 0 0 1 I I #
attrib_edge_convexity-kcp-attrib $-1 -1 $426 $-1 $403 2 #
vertex $-1 -1 $-1 $403 $427 #
ellipse-curve $428 -1 $-1 0 0.25 0 0 1 0 -0.21875 0 0 1 I I #
attrib_edge_convexity-kcp-attrib $-1 -1 $429 $-1 $406 1 #
vertex $430 -1 $-1 $406 $431 #
ellipse-curve $432 -1 $-1 0 0.23960769515458699 0 0 -1 0 -0.13300000000000001 0 0 1 I I #
loop_type-twe-attrib $-1 -1 $-1 $409 $395 0 #
model_id-kcp-attrib $-1 -1 $433 $-1 $410 1 1021392286 1021392286 407502849 17 #
convexity-sys-attrib $-1 -1 $434 $412 $402 #
point $-1 -1 $-1 -0.13900000000000001 0.25 0 #
cur-twe-attrib $-1 -1 $-1 $-1 $414 181 #
convexity-sys-attrib $-1 -1 $435 $415 $403 #
point $-1 -1 $-1 0.21875 0.25 2.6789144110036299e-017 #
cur-twe-attrib $-1 -1 $-1 $-1 $417 182 #
convexity-sys-attrib $-1 -1 $436 $418 $406 #
model_id-kcp-attrib $-1 -1 $-1 $-1 $419 1 1021392286 1021392286 407502849 20 #
point $-1 -1 $-1 0.13300000000000001 0.23960769515458699 -1.6287799618902e-017 #
cur-twe-attrib $-1 -1 $-1 $-1 $420 184 #
loop_type-twe-attrib $-1 -1 $-1 $422 $410 1 #
edge_name-twe-attrib $-1 -1 $-1 $423 $402 15 8448 #
edge_name-twe-attrib $-1 -1 $-1 $426 $403 13 4608 #
edge_name-twe-attrib $-1 -1 $-1 $429 $406 16 8448 #
End-of-ACIS-data 