600 0 2 0           
24 FBMach with ACIS - 6.0.3 13 ACIS 6.0.3 NT 24 Wed May 23 21:58:50 2001 
1 9.9999999999999995e-007 1e-010 
body $2 $3 $-1 $4 #
bdycol-kcp $-1 1 4 $5 $6 $7 $8 #
model_id-kcp-attrib $-1 $-1 $-1 $0 1 990669530 50 405929985 1 #
lump $-1 $-1 $9 $0 #
transform $-1 1 0 0 0 1 0 0 0 1 0 0 0 1 no_rotate no_reflect no_shear #
body $10 $11 $-1 $12 #
body $13 $14 $-1 $15 #
body $16 $17 $-1 $18 #
body $19 $20 $-1 $21 #
shell $-1 $-1 $-1 $22 $-1 $3 #
model_id-kcp-attrib $-1 $-1 $-1 $5 1 990669530 50 405929986 1 #
lump $-1 $-1 $23 $5 #
transform $-1 1 0 0 0 1 0 0 0 1 0 0.24999999999999986 0 1 no_rotate no_reflect no_shear #
rgb_color-st-attrib $-1 $24 $-1 $6 1 1 0.5 #
lump $-1 $-1 $25 $6 #
transform $-1 1 0 0 0 0 1 0 -1 0 0 0.12962246887396234 0 1 rotate no_reflect no_shear #
rgb_color-st-attrib $-1 $26 $-1 $7 0.5 1 1 #
lump $-1 $-1 $27 $7 #
transform $-1 1 0 0 0 -3.8285889215894375e-016 1 0 -1 -3.8285889215894375e-016 0 0.375 -5.7428833823841563e-017 1 rotate no_reflect no_shear #
rgb_color-st-attrib $-1 $28 $-1 $8 0.5 1 1 #
lump $-1 $-1 $29 $8 #
transform $-1 1 0 0 0 -3.8285889215894375e-016 1 0 -1 -3.8285889215894375e-016 0 0.12499999999999989 -1.5314355686357755e-016 1 rotate no_reflect no_shear #
face $30 $31 $32 $9 $-1 $33 reversed single #
shell $-1 $-1 $-1 $34 $-1 $11 #
model_id-kcp-attrib $-1 $-1 $13 $6 1 990669530 60 406585347 1 #
shell $-1 $-1 $-1 $35 $-1 $14 #
model_id-kcp-attrib $-1 $-1 $16 $7 1 990669530 100 409206788 1 #
shell $-1 $-1 $-1 $36 $-1 $17 #
model_id-kcp-attrib $-1 $-1 $19 $8 1 990669530 100 409206789 1 #
shell $-1 $-1 $-1 $37 $-1 $20 #
model_id-kcp-attrib $-1 $38 $-1 $22 1 990669530 50 405929985 13 #
face $39 $40 $41 $9 $-1 $42 forward single #
loop $43 $44 $45 $22 #
plane-surface $46 0 0 0 0 1 0 0 0 1 forward_v I I I I #
face $47 $48 $49 $23 $-1 $50 forward single #
face $-1 $51 $52 $25 $-1 $53 reversed single #
face $-1 $54 $55 $27 $-1 $56 forward single #
face $-1 $57 $58 $29 $-1 $59 forward single #
model_id-kcp-attrib $-1 $60 $30 $22 1 990669530 50 405929985 2 #
model_id-kcp-attrib $-1 $61 $-1 $31 1 990669530 50 405929985 12 #
face $62 $63 $64 $9 $-1 $65 forward single #
loop $66 $67 $68 $31 #
plane-surface $69 0 0.5 0 0 1 0 0 0 1 forward_v I I I I #
loop_type-twe-attrib $-1 $-1 $-1 $32 0 #
loop $70 $-1 $71 $22 #
coedge $-1 $72 $73 $74 $75 forward $32 $-1 #
surf-twe-attrib $-1 $-1 $-1 $33 4 #
model_id-kcp-attrib $-1 $-1 $-1 $34 1 990669530 50 405929986 7 #
face $76 $77 $78 $23 $-1 $79 reversed single #
loop $-1 $-1 $80 $34 #
plane-surface $-1 0 0 0.25 0 0 1 1 0 0 forward_v I I I I #
face $-1 $81 $82 $25 $-1 $83 forward single #
loop $-1 $84 $85 $35 #
cone-surface $-1 0 0 0 0 0 1 0.13300000000000001 0 0 1 I I 0 1 0.13300000000000001 forward I I I I #
face $-1 $86 $87 $27 $-1 $88 forward single #
loop $-1 $89 $90 $36 #
cone-surface $-1 0 0 0 0 0 1 0.21875 0 0 1 I I 0 1 0.21875 forward I I I I #
face $-1 $91 $92 $29 $-1 $93 forward single #
loop $-1 $94 $95 $37 #
cone-surface $-1 0 0 0 0 0 1 0.13300000000000001 0 0 1 I I 0 1 0.13300000000000001 forward I I I I #
face_name-twe-attrib $-1 $-1 $38 $22 1 #
model_id-kcp-attrib $-1 $96 $39 $31 1 990669530 50 405929985 3 #
model_id-kcp-attrib $-1 $97 $-1 $40 1 990669530 50 405929985 4 #
face $98 $99 $100 $9 $-1 $101 forward single #
loop $102 $-1 $74 $40 #
plane-surface $103 0.375 0 0.25 1 0 0 0 0 -1 forward_v I I I I #
loop_type-twe-attrib $-1 $-1 $-1 $41 0 #
loop $104 $-1 $105 $31 #
coedge $-1 $106 $107 $108 $109 reversed $41 $-1 #
surf-twe-attrib $-1 $-1 $-1 $42 6 #
model_id-kcp-attrib $-1 $110 $-1 $44 1 990669530 50 405929985 18 #
coedge $-1 $71 $71 $111 $112 forward $44 $-1 #
coedge $-1 $113 $45 $114 $115 forward $32 $-1 #
coedge $-1 $45 $113 $116 $117 forward $32 $-1 #
coedge $-1 $118 $119 $45 $75 reversed $64 $-1 #
edge $120 $121 -0.5 $122 0 $74 $123 forward 7 unknown #
model_id-kcp-attrib $-1 $-1 $-1 $48 1 990669530 50 405929986 5 #
face $124 $125 $126 $23 $-1 $127 reversed single #
loop $-1 $-1 $128 $48 #
plane-surface $-1 0 0 -0.25 0 0 1 1 0 0 forward_v I I I I #
coedge $-1 $129 $130 $131 $132 forward $49 $-1 #
face $-1 $-1 $133 $25 $-1 $134 forward single #
loop $-1 $135 $136 $51 #
cone-surface $-1 0 0 0 0 0 1 0.069500000000000006 0 0 1 I I -0.49999999999999789 0.86602540378443982 0.069500000000000006 forward I I I I #
loop $-1 $-1 $137 $35 #
coedge $-1 $85 $85 $136 $138 reversed $52 $-1 #
face $-1 $-1 $139 $27 $-1 $140 forward single #
loop $-1 $-1 $141 $54 #
plane-surface $-1 0 0 -0.12500000000000011 0 0 -1 -1 0 0 forward_v I I I I #
loop $-1 $-1 $142 $36 #
coedge $-1 $90 $90 $141 $143 reversed $55 $-1 #
face $-1 $-1 $144 $29 $-1 $145 forward single #
loop $-1 $-1 $146 $57 #
plane-surface $-1 0 0 -0.12500000000000017 0 0 -1 -1 0 0 forward_v I I I I #
loop $-1 $-1 $147 $37 #
coedge $-1 $95 $95 $146 $148 reversed $58 $-1 #
face_name-twe-attrib $-1 $-1 $61 $31 2 #
face_name-twe-attrib $-1 $-1 $62 $40 3 #
model_id-kcp-attrib $-1 $149 $-1 $63 1 990669530 50 405929985 5 #
face $150 $151 $152 $9 $-1 $153 forward single #
loop $154 $-1 $116 $63 #
plane-surface $155 0.375 0 -0.25 0 0 -1 -1 0 0 forward_v I I I I #
loop_type-twe-attrib $-1 $-1 $-1 $64 0 #
surf-twe-attrib $-1 $-1 $-1 $65 10 #
loop_type-twe-attrib $-1 $-1 $-1 $67 1 #
coedge $-1 $105 $105 $156 $157 reversed $67 $-1 #
coedge $-1 $158 $68 $159 $160 reversed $41 $-1 #
coedge $-1 $68 $158 $161 $162 reversed $41 $-1 #
coedge $-1 $119 $118 $68 $109 forward $64 $-1 #
edge $163 $164 -0.5 $165 0 $108 $166 forward 7 unknown #
loop_type-twe-attrib $-1 $-1 $70 $44 1 #
coedge $-1 $111 $111 $71 $112 reversed $167 $-1 #
edge $168 $169 -3.1415926535897931 $169 3.1415926535897931 $111 $170 forward 7 unknown #
coedge $-1 $73 $72 $171 $172 forward $32 $-1 #
coedge $-1 $173 $174 $72 $115 reversed $175 $-1 #
edge $176 $122 -0.75 $177 0 $114 $178 forward 7 unknown #
coedge $-1 $179 $180 $73 $117 reversed $100 $-1 #
edge $181 $182 -0.75 $121 0 $116 $183 forward 7 unknown #
coedge $-1 $108 $74 $180 $184 reversed $64 $-1 #
coedge $-1 $74 $108 $173 $185 forward $64 $-1 #
attrib_edge_convexity-kcp-attrib $-1 $186 $-1 $75 1 #
vertex $-1 $184 $187 #
vertex $-1 $185 $188 #
straight-curve $189 0.375 0 0.25 0 0 1 I I #
model_id-kcp-attrib $-1 $-1 $-1 $77 1 990669530 50 405929986 2 #
face $190 $191 $192 $23 $-1 $193 reversed single #
loop $-1 $-1 $194 $77 #
plane-surface $-1 0 -0.25000000000000011 0 0 1 0 0 0 1 forward_v I I I I #
coedge $-1 $195 $196 $197 $198 forward $78 $-1 #
coedge $-1 $199 $80 $200 $201 forward $49 $-1 #
coedge $-1 $80 $199 $202 $203 forward $49 $-1 #
coedge $-1 $204 $205 $80 $132 reversed $206 $-1 #
edge $-1 $207 -0.25000000000000011 $208 0.25000000000000011 $131 $209 forward 7 unknown #
loop $-1 $210 $211 $81 #
plane-surface $-1 0 0 -0.12037753112603765 0 0 -1 -1 0 0 forward_v I I I I #
loop $-1 $-1 $212 $51 #
coedge $-1 $136 $136 $85 $138 forward $82 $-1 #
coedge $-1 $137 $137 $211 $213 reversed $84 $-1 #
edge $-1 $214 -3.1415926535897931 $214 3.1415926535897931 $136 $215 forward 7 unknown #
loop $-1 $-1 $216 $86 #
plane-surface $-1 0 0 0.12500000000000011 0 0 1 1 0 0 forward_v I I I I #
coedge $-1 $141 $141 $90 $143 forward $87 $-1 #
coedge $-1 $142 $142 $216 $217 reversed $89 $-1 #
edge $-1 $218 0 $218 6.2831853071795862 $141 $219 forward 7 unknown #
loop $-1 $-1 $220 $91 #
plane-surface $-1 0 0 0.12500000000000017 0 0 1 1 0 0 forward_v I I I I #
coedge $-1 $146 $146 $95 $148 forward $92 $-1 #
coedge $-1 $147 $147 $220 $221 reversed $94 $-1 #
edge $-1 $222 0 $222 6.2831853071795862 $146 $223 forward 7 unknown #
face_name-twe-attrib $-1 $-1 $98 $63 4 #
model_id-kcp-attrib $-1 $224 $-1 $99 1 990669530 50 405929985 6 #
face $225 $226 $175 $9 $-1 $227 forward single #
loop $228 $-1 $171 $99 #
plane-surface $229 -0.375 0 -0.25 -1 0 0 0 0 1 forward_v I I I I #
loop_type-twe-attrib $-1 $-1 $-1 $100 0 #
surf-twe-attrib $-1 $-1 $-1 $101 18 #
coedge $-1 $156 $156 $105 $157 forward $230 $-1 #
edge $231 $232 0 $232 6.2831853071795862 $156 $233 forward 7 unknown #
coedge $-1 $107 $106 $234 $235 reversed $41 $-1 #
coedge $-1 $180 $179 $106 $160 forward $100 $-1 #
edge $236 $237 -0.75 $164 0 $159 $238 forward 7 unknown #
coedge $-1 $174 $173 $107 $162 forward $175 $-1 #
edge $239 $165 -0.75 $240 0 $161 $241 forward 7 unknown #
attrib_edge_convexity-kcp-attrib $-1 $242 $-1 $109 1 #
vertex $-1 $184 $243 #
vertex $-1 $185 $244 #
straight-curve $245 0.375 0.5 0.25 0 0 1 I I #
loop $246 $-1 $111 $247 #
attrib_edge_convexity-kcp-attrib $-1 $248 $-1 $112 1 #
vertex $249 $112 $250 #
ellipse-curve $251 0 0 0 -2.0000000000000002e-015 1 0 0.13300000000000001 2.6599999999999998e-016 0 1 I I #
coedge $-1 $252 $253 $113 $172 reversed $152 $-1 #
edge $254 $177 -0.5 $182 0 $171 $255 forward 7 unknown #
coedge $-1 $161 $114 $119 $185 reversed $175 $-1 #
coedge $-1 $114 $161 $252 $256 forward $175 $-1 #
loop $257 $-1 $114 $151 #
attrib_edge_convexity-kcp-attrib $-1 $258 $-1 $115 1 #
vertex $-1 $256 $259 #
straight-curve $260 -0.375 0 0.25 -1 0 0 I I #
coedge $-1 $159 $116 $253 $261 reversed $100 $-1 #
coedge $-1 $116 $159 $118 $184 forward $100 $-1 #
attrib_edge_convexity-kcp-attrib $-1 $262 $-1 $117 1 #
vertex $-1 $261 $263 #
straight-curve $264 0.375 0 -0.25 1 0 0 I I #
edge $265 $164 -0.5 $121 0 $180 $266 forward 7 unknown #
edge $267 $165 -0.5 $122 0 $173 $268 forward 7 unknown #
convexity-sys-attrib $-1 $269 $120 $75 #
point $-1 0.375 0 -0.25 #
point $-1 0.375 0 0.25 #
cur-twe-attrib $-1 $-1 $-1 $123 30 #
model_id-kcp-attrib $-1 $-1 $-1 $125 1 990669530 50 405929986 6 #
face $270 $271 $272 $23 $-1 $273 reversed single #
loop $-1 $-1 $274 $125 #
plane-surface $-1 -0.375 0 0 1 0 0 0 0 -1 forward_v I I I I #
coedge $-1 $275 $202 $276 $277 forward $126 $-1 #
coedge $-1 $278 $128 $275 $279 forward $78 $-1 #
coedge $-1 $128 $278 $280 $281 forward $78 $-1 #
coedge $-1 $205 $204 $128 $198 reversed $206 $-1 #
edge $-1 $282 -0.25000000000000011 $283 0.25000000000000011 $197 $284 forward 7 unknown #
coedge $-1 $130 $129 $285 $286 forward $49 $-1 #
coedge $-1 $287 $288 $129 $201 reversed $272 $-1 #
edge $-1 $208 -0.375 $289 0.375 $200 $290 forward 7 unknown #
coedge $-1 $194 $291 $130 $203 reversed $126 $-1 #
edge $-1 $292 -0.375 $207 0.375 $202 $293 forward 7 unknown #
coedge $-1 $197 $131 $291 $294 forward $206 $-1 #
coedge $-1 $131 $197 $287 $295 reversed $206 $-1 #
loop $-1 $-1 $204 $271 #
vertex $-1 $132 $296 #
vertex $-1 $132 $297 #
straight-curve $-1 0.375 0 0.25 0 1 0 I I #
loop $-1 $-1 $298 $81 #
coedge $-1 $211 $211 $137 $213 forward $133 $-1 #
coedge $-1 $212 $212 $298 $299 reversed $135 $-1 #
edge $-1 $300 0 $300 6.2831853071795862 $211 $301 forward 7 unknown #
vertex $-1 $138 $302 #
ellipse-curve $-1 0 0 -0.10998522628062432 0 0 -1 0.13300000000000001 0 0 1 I I #
coedge $-1 $216 $216 $142 $217 forward $139 $-1 #
edge $-1 $303 0 $303 6.2831853071795862 $216 $304 forward 7 unknown #
vertex $-1 $143 $305 #
ellipse-curve $-1 0 0 -0.12500000000000011 0 0 -1 0.21875 0 0 1 I I #
coedge $-1 $220 $220 $147 $221 forward $144 $-1 #
edge $-1 $306 0 $306 6.2831853071795862 $220 $307 forward 7 unknown #
vertex $-1 $148 $308 #
ellipse-curve $-1 0 0 -0.12500000000000017 0 0 -1 0.13300000000000001 0 0 1 I I #
face_name-twe-attrib $-1 $-1 $150 $99 5 #
model_id-kcp-attrib $-1 $309 $-1 $151 1 990669530 50 405929985 7 #
face $310 $311 $312 $9 $-1 $313 reversed single #
plane-surface $314 -0.375 0 0.25 0 0 1 1 0 0 forward_v I I I I #
loop_type-twe-attrib $-1 $-1 $-1 $152 0 #
surf-twe-attrib $-1 $-1 $-1 $153 32 #
loop $315 $316 $156 $311 #
attrib_edge_convexity-kcp-attrib $-1 $317 $-1 $157 1 #
vertex $-1 $157 $318 #
ellipse-curve $319 0 0.5 0 0 1 0 -0.21875 0 0 1 I I #
coedge $-1 $253 $252 $158 $235 forward $152 $-1 #
edge $320 $240 -0.5 $237 0 $234 $321 forward 7 unknown #
attrib_edge_convexity-kcp-attrib $-1 $322 $-1 $160 1 #
vertex $-1 $261 $323 #
straight-curve $324 0.375 0.5 -0.25 1 0 0 I I #
edge_name-twe-attrib $-1 $-1 $-1 $162 11 8704 #
vertex $-1 $256 $325 #
straight-curve $326 -0.375 0.5 0.25 -1 0 0 I I #
convexity-sys-attrib $-1 $327 $163 $109 #
point $-1 0.375 0.5 -0.25 #
point $-1 0.375 0.5 0.25 #
cur-twe-attrib $-1 $-1 $-1 $166 42 #
model_id-kcp-attrib $-1 $328 $-1 $167 1 990669530 50 405929985 15 #
face $329 $-1 $330 $9 $-1 $331 reversed single #
convexity-sys-attrib $-1 $332 $168 $112 #
model_id-kcp-attrib $-1 $-1 $-1 $169 1 990669530 50 405929985 21 #
point $-1 -0.13300000000000001 2.6599999999999998e-016 0 #
cur-twe-attrib $-1 $-1 $-1 $170 44 #
coedge $-1 $234 $171 $174 $256 reversed $152 $-1 #
coedge $-1 $171 $234 $179 $261 forward $152 $-1 #
attrib_edge_convexity-kcp-attrib $-1 $333 $-1 $172 1 #
straight-curve $334 -0.375 0 -0.25 0 0 -1 I I #
edge $335 $240 -0.5 $177 0 $174 $336 forward 7 unknown #
loop_type-twe-attrib $-1 $-1 $-1 $175 0 #
convexity-sys-attrib $-1 $337 $176 $115 #
point $-1 -0.375 0 0.25 #
cur-twe-attrib $-1 $-1 $-1 $178 47 #
edge $338 $237 -0.5 $182 0 $253 $339 forward 7 unknown #
convexity-sys-attrib $-1 $340 $181 $117 #
point $-1 -0.375 0 -0.25 #
cur-twe-attrib $-1 $-1 $-1 $183 49 #
attrib_edge_convexity-kcp-attrib $-1 $341 $-1 $184 1 #
straight-curve $342 0.375 0 -0.25 0 -1 0 I I #
attrib_edge_convexity-kcp-attrib $-1 $343 $-1 $185 1 #
straight-curve $344 0.375 0 0.25 0 -1 0 I I #
edge_name-twe-attrib $-1 $-1 $186 $75 1 8704 #
model_id-kcp-attrib $-1 $-1 $-1 $191 1 990669530 50 405929986 3 #
face $345 $-1 $206 $23 $-1 $346 reversed single #
loop $-1 $-1 $287 $191 #
plane-surface $-1 0 0.25000000000000011 0 0 -1 0 0 0 -1 forward_v I I I I #
coedge $-1 $347 $285 $288 $348 forward $192 $-1 #
coedge $-1 $291 $194 $195 $279 reversed $126 $-1 #
coedge $-1 $285 $347 $194 $277 reversed $192 $-1 #
edge $-1 $292 -0.25 $349 0.25 $276 $350 forward 7 unknown #
coedge $-1 $196 $195 $347 $351 forward $78 $-1 #
edge $-1 $283 -0.375 $349 0.375 $275 $352 forward 7 unknown #
coedge $-1 $288 $287 $196 $281 reversed $272 $-1 #
edge $-1 $353 -0.375 $282 0.375 $280 $354 forward 7 unknown #
vertex $-1 $198 $355 #
vertex $-1 $294 $356 #
straight-curve $-1 0.375 0 -0.25 0 -1 0 I I #
coedge $-1 $274 $276 $199 $286 reversed $192 $-1 #
edge $-1 $289 -0.25000000000000011 $292 0.25000000000000011 $285 $357 forward 7 unknown #
coedge $-1 $280 $200 $205 $295 forward $272 $-1 #
coedge $-1 $200 $280 $274 $348 reversed $272 $-1 #
vertex $-1 $201 $358 #
straight-curve $-1 0 0.25000000000000011 0.25 -1 0 0 I I #
coedge $-1 $202 $275 $204 $294 reversed $126 $-1 #
vertex $-1 $286 $359 #
straight-curve $-1 0 -0.25000000000000011 0.25 1 0 0 I I #
edge $-1 $207 -0.25 $283 0.25 $204 $360 forward 7 unknown #
edge $-1 $208 -0.25 $282 0.25 $205 $361 forward 7 unknown #
point $-1 0.375 -0.25000000000000011 0.25 #
point $-1 0.375 0.25000000000000011 0.25 #
coedge $-1 $298 $298 $212 $299 forward $210 $-1 #
edge $-1 $362 0 $362 6.2831853071795862 $298 $363 forward 7 unknown #
vertex $-1 $213 $364 #
ellipse-curve $-1 0 0 -0.12037753112603765 0 0 1 0.13300000000000001 0 0 1 I I #
point $-1 -0.13300000000000001 1.6287264505837618e-017 -0.10998522628062432 #
vertex $-1 $217 $365 #
ellipse-curve $-1 0 0 0.12500000000000011 0 0 1 0.21875 0 0 1 I I #
point $-1 0.21875 0 -0.12500000000000011 #
vertex $-1 $221 $366 #
ellipse-curve $-1 0 0 0.12500000000000017 0 0 1 0.13300000000000001 0 0 1 I I #
point $-1 0.13300000000000001 0 -0.12500000000000017 #
face_name-twe-attrib $-1 $-1 $225 $151 6 #
model_id-kcp-attrib $-1 $367 $-1 $226 1 990669530 50 405929985 8 #
face $368 $369 $230 $9 $-1 $370 reversed single #
loop $371 $372 $373 $226 #
plane-surface $374 0 0.25 0 0 -1 0 0 0 -1 forward_v I I I I #
surf-twe-attrib $-1 $-1 $-1 $227 57 #
loop_type-twe-attrib $-1 $-1 $-1 $230 0 #
loop $375 $-1 $376 $311 #
convexity-sys-attrib $-1 $377 $231 $157 #
point $-1 -0.21875 0.5 0 #
cur-twe-attrib $-1 $-1 $-1 $233 63 #
edge_name-twe-attrib $-1 $-1 $-1 $235 7 8704 #
straight-curve $378 -0.375 0.5 -0.25 0 0 -1 I I #
convexity-sys-attrib $-1 $379 $236 $160 #
point $-1 -0.375 0.5 -0.25 #
cur-twe-attrib $-1 $-1 $-1 $238 66 #
point $-1 -0.375 0.5 0.25 #
cur-twe-attrib $-1 $-1 $-1 $241 68 #
edge_name-twe-attrib $-1 $-1 $242 $109 2 8704 #
loop_type-twe-attrib $-1 $-1 $246 $167 1 #
model_id-kcp-attrib $-1 $380 $-1 $247 1 990669530 50 405929985 11 #
loop $381 $167 $382 $247 #
cone-surface $383 0 0.52500000000000002 0 0 -1 0 -0.13300000000000001 0 0 1 I I 0 1 0.13300000000000001 forward I I I I #
edge_name-twe-attrib $-1 $-1 $248 $112 17 8704 #
convexity-sys-attrib $-1 $384 $254 $172 #
cur-twe-attrib $-1 $-1 $-1 $255 78 #
edge_name-twe-attrib $-1 $-1 $-1 $256 12 8704 #
straight-curve $385 -0.375 0 0.25 0 -1 0 I I #
edge_name-twe-attrib $-1 $-1 $258 $115 9 8704 #
attrib_edge_convexity-kcp-attrib $-1 $386 $-1 $261 1 #
straight-curve $387 -0.375 0 -0.25 0 -1 0 I I #
edge_name-twe-attrib $-1 $-1 $262 $117 3 8704 #
convexity-sys-attrib $-1 $388 $265 $184 #
cur-twe-attrib $-1 $-1 $-1 $266 90 #
convexity-sys-attrib $-1 $389 $267 $185 #
cur-twe-attrib $-1 $-1 $-1 $268 91 #
model_id-kcp-attrib $-1 $-1 $-1 $271 1 990669530 50 405929986 4 #
plane-surface $-1 0.375 0 0 -1 0 0 0 0 1 forward_v I I I I #
coedge $-1 $276 $274 $278 $351 reversed $192 $-1 #
edge $-1 $289 -0.25 $353 0.25 $288 $390 forward 7 unknown #
vertex $-1 $351 $391 #
straight-curve $-1 -0.375 -0.25000000000000011 0 0 0 -1 I I #
edge $-1 $349 -0.25000000000000011 $353 0.25000000000000011 $347 $392 forward 7 unknown #
straight-curve $-1 0 -0.25000000000000011 -0.25 -1 0 0 I I #
vertex $-1 $281 $393 #
straight-curve $-1 0 0.25000000000000011 -0.25 1 0 0 I I #
point $-1 0.375 0.25000000000000011 -0.25 #
point $-1 0.375 -0.25000000000000011 -0.25 #
straight-curve $-1 -0.375 0 0.25 0 -1 0 I I #
point $-1 -0.375 0.25000000000000011 0.25 #
point $-1 -0.375 -0.25000000000000011 0.25 #
straight-curve $-1 0.375 -0.25000000000000011 0 0 0 -1 I I #
straight-curve $-1 0.375 0.25000000000000011 0 0 0 -1 I I #
vertex $-1 $299 $394 #
ellipse-curve $-1 0 0 -0.12037753112603765 0 0 -1 0.13900000000000001 0 0 1 I I #
point $-1 0.13300000000000001 0 -0.12037753112603765 #
point $-1 0.21875 0 0.12500000000000011 #
point $-1 0.13300000000000001 0 0.12500000000000017 #
face_name-twe-attrib $-1 $-1 $310 $226 7 #
model_id-kcp-attrib $-1 $395 $-1 $311 1 990669530 50 405929985 9 #
face $396 $247 $397 $9 $-1 $398 reversed single #
cone-surface $399 0 0.52500000000000002 0 0 -1 0 -0.21875 0 0 1 I I 0 1 0.21875 forward I I I I #
model_id-kcp-attrib $-1 $400 $-1 $312 1 990669530 50 405929985 19 #
loop $401 $-1 $402 $226 #
coedge $-1 $373 $373 $403 $404 forward $312 $-1 #
surf-twe-attrib $-1 $-1 $-1 $313 96 #
loop_type-twe-attrib $-1 $-1 $-1 $316 1 #
coedge $-1 $376 $376 $402 $405 reversed $316 $-1 #
edge_name-twe-attrib $-1 $-1 $317 $157 14 8704 #
cur-twe-attrib $-1 $-1 $-1 $321 105 #
edge_name-twe-attrib $-1 $-1 $322 $160 4 8704 #
face_name-twe-attrib $-1 $-1 $329 $247 10 #
model_id-kcp-attrib $-1 $406 $-1 $330 1 990669530 50 405929985 14 #
coedge $-1 $382 $382 $407 $408 reversed $330 $-1 #
surf-twe-attrib $-1 $-1 $-1 $331 116 #
edge_name-twe-attrib $-1 $-1 $333 $172 6 8704 #
cur-twe-attrib $-1 $-1 $-1 $336 123 #
convexity-sys-attrib $-1 $409 $338 $261 #
cur-twe-attrib $-1 $-1 $-1 $339 127 #
edge_name-twe-attrib $-1 $-1 $341 $184 5 8704 #
edge_name-twe-attrib $-1 $-1 $343 $185 10 8704 #
straight-curve $-1 -0.375 0.25000000000000011 0 0 0 -1 I I #
point $-1 -0.375 -0.25000000000000011 -0.25 #
straight-curve $-1 -0.375 0 -0.25 0 1 0 I I #
point $-1 -0.375 0.25000000000000011 -0.25 #
point $-1 0.13900000000000001 0 -0.12037753112603765 #
face_name-twe-attrib $-1 $-1 $368 $311 8 #
model_id-kcp-attrib $-1 $410 $-1 $369 1 990669530 50 405929985 10 #
loop $411 $412 $403 $369 #
cone-surface $413 0 0.25 0 0 1 0 -0.13900000000000001 0 0 1 I I 0.499999999999998 0.86602540378444004 0.13900000000000001 forward I I I I #
surf-twe-attrib $-1 $-1 $-1 $370 135 #
loop_type-twe-attrib $-1 $-1 $371 $312 1 #
loop_type-twe-attrib $-1 $-1 $-1 $372 0 #
coedge $-1 $402 $402 $376 $405 forward $372 $-1 #
coedge $-1 $403 $403 $373 $404 reversed $397 $-1 #
edge $414 $415 0 $415 6.2831853071795862 $403 $416 forward 7 unknown #
edge $417 $418 -3.1415926535897931 $418 3.1415926535897931 $402 $419 forward 7 unknown #
loop_type-twe-attrib $-1 $-1 $381 $330 0 #
coedge $-1 $407 $407 $382 $408 forward $412 $-1 #
edge $420 $421 -3.1415926535897931 $421 3.1415926535897931 $382 $422 forward 7 unknown #
edge_name-twe-attrib $-1 $-1 $386 $261 8 8704 #
face_name-twe-attrib $-1 $-1 $396 $369 9 #
model_id-kcp-attrib $-1 $423 $-1 $397 1 990669530 50 405929985 16 #
loop $424 $-1 $407 $369 #
surf-twe-attrib $-1 $-1 $-1 $398 160 #
attrib_edge_convexity-kcp-attrib $-1 $425 $-1 $404 1 #
vertex $-1 $404 $426 #
ellipse-curve $427 0 0.25 0 0 -1 0 -0.13900000000000001 0 0 1 I I #
attrib_edge_convexity-kcp-attrib $-1 $428 $-1 $405 2 #
vertex $-1 $405 $429 #
ellipse-curve $430 0 0.25 0 0 1 0 -0.21875 0 0 1 I I #
attrib_edge_convexity-kcp-attrib $-1 $431 $-1 $408 1 #
vertex $432 $408 $433 #
ellipse-curve $434 0 0.23960769515458699 0 0 -1 0 -0.13300000000000001 0 0 1 I I #
loop_type-twe-attrib $-1 $-1 $411 $397 0 #
model_id-kcp-attrib $-1 $435 $-1 $412 1 990669530 50 405929985 17 #
convexity-sys-attrib $-1 $436 $414 $404 #
point $-1 -0.13900000000000001 0.25 0 #
cur-twe-attrib $-1 $-1 $-1 $416 181 #
convexity-sys-attrib $-1 $437 $417 $405 #
point $-1 0.21875 0.25 2.6789144110036299e-017 #
cur-twe-attrib $-1 $-1 $-1 $419 182 #
convexity-sys-attrib $-1 $438 $420 $408 #
model_id-kcp-attrib $-1 $-1 $-1 $421 1 990669530 50 405929985 20 #
point $-1 0.13300000000000001 0.23960769515458699 -1.6287799618902e-017 #
cur-twe-attrib $-1 $-1 $-1 $422 184 #
loop_type-twe-attrib $-1 $-1 $424 $412 1 #
edge_name-twe-attrib $-1 $-1 $425 $404 15 8448 #
edge_name-twe-attrib $-1 $-1 $428 $405 13 4608 #
edge_name-twe-attrib $-1 $-1 $431 $408 16 8448 #
End-of-ACIS-data 