  0
SECTION
  2
HEADER
  9
$ACADVER
  1
AC1009
  9
$INSBASE
 10
0.0
 20
0.0
 30
0.0
  9
$EXTMIN
 10
0.0
 20
0.0
 30
0.0
  9
$EXTMAX
 10
6.0
 20
6.0
 30
4.0
  9
$LIMMIN
 10
0.0
 20
0.0
  9
$LIMMAX
 10
12.0
 20
9.0
  9
$ORTHOMODE
 70
     0
  9
$REGENMODE
 70
     1
  9
$FILLMODE
 70
     1
  9
$QTEXTMODE
 70
     0
  9
$MIRRTEXT
 70
     1
  9
$DRAGMODE
 70
     2
  9
$LTSCALE
 40
1.0
  9
$OSMODE
 70
     0
  9
$ATTMODE
 70
     1
  9
$TEXTSIZE
 40
0.2
  9
$TRACEWID
 40
0.05
  9
$TEXTSTYLE
  7
STANDARD
  9
$CLAYER
  8
0
  9
$CELTYPE
  6
BYLAYER
  9
$CECOLOR
 62
   256
  9
$DIMSCALE
 40
1.0
  9
$DIMASZ
 40
0.18
  9
$DIMEXO
 40
0.0625
  9
$DIMDLI
 40
0.38
  9
$DIMRND
 40
0.0
  9
$DIMDLE
 40
0.0
  9
$DIMEXE
 40
0.18
  9
$DIMTP
 40
0.0
  9
$DIMTM
 40
0.0
  9
$DIMTXT
 40
0.18
  9
$DIMCEN
 40
0.09
  9
$DIMTSZ
 40
0.0
  9
$DIMTOL
 70
     0
  9
$DIMLIM
 70
     0
  9
$DIMTIH
 70
     1
  9
$DIMTOH
 70
     1
  9
$DIMSE1
 70
     0
  9
$DIMSE2
 70
     0
  9
$DIMTAD
 70
     0
  9
$DIMZIN
 70
     0
  9
$DIMBLK
  1

  9
$DIMASO
 70
     1
  9
$DIMSHO
 70
     1
  9
$DIMPOST
  1

  9
$DIMAPOST
  1

  9
$DIMALT
 70
     0
  9
$DIMALTD
 70
     2
  9
$DIMALTF
 40
25.4
  9
$DIMLFAC
 40
1.0
  9
$DIMTOFL
 70
     0
  9
$DIMTVP
 40
0.0
  9
$DIMTIX
 70
     0
  9
$DIMSOXD
 70
     0
  9
$DIMSAH
 70
     0
  9
$DIMBLK1
  1

  9
$DIMBLK2
  1

  9
$DIMSTYLE
  2
*UNNAMED
  9
$DIMCLRD
 70
     0
  9
$DIMCLRE
 70
     0
  9
$DIMCLRT
 70
     0
  9
$DIMTFAC
 40
1.0
  9
$DIMGAP
 40
0.09
  9
$LUNITS
 70
     2
  9
$LUPREC
 70
     4
  9
$SKETCHINC
 40
0.1
  9
$FILLETRAD
 40
0.0
  9
$AUNITS
 70
     0
  9
$AUPREC
 70
     0
  9
$MENU
  1
acad
  9
$ELEVATION
 40
0.0
  9
$PELEVATION
 40
0.0
  9
$THICKNESS
 40
0.0
  9
$LIMCHECK
 70
     0
  9
$BLIPMODE
 70
     1
  9
$CHAMFERA
 40
0.0
  9
$CHAMFERB
 40
0.0
  9
$SKPOLY
 70
     0
  9
$TDCREATE
 40
2449377.537475093
  9
$TDUPDATE
 40
2449377.537475093
  9
$TDINDWG
 40
0.0000000000
  9
$TDUSRTIMER
 40
0.0000000000
  9
$USRTIMER
 70
     1
  9
$ANGBASE
 50
0.0
  9
$ANGDIR
 70
     0
  9
$PDMODE
 70
     0
  9
$PDSIZE
 40
0.0
  9
$PLINEWID
 40
0.0
  9
$COORDS
 70
     1
  9
$SPLFRAME
 70
     0
  9
$SPLINETYPE
 70
     6
  9
$SPLINESEGS
 70
     8
  9
$ATTDIA
 70
     0
  9
$ATTREQ
 70
     1
  9
$HANDLING
 70
     1
  9
$HANDSEED
  5
5A
  9
$SURFTAB1
 70
     6
  9
$SURFTAB2
 70
     6
  9
$SURFTYPE
 70
     6
  9
$SURFU
 70
     6
  9
$SURFV
 70
     6
  9
$UCSNAME
  2

  9
$UCSORG
 10
0.0
 20
0.0
 30
0.0
  9
$UCSXDIR
 10
1.0
 20
0.0
 30
0.0
  9
$UCSYDIR
 10
0.0
 20
1.0
 30
0.0
  9
$PUCSNAME
  2

  9
$PUCSORG
 10
0.0
 20
0.0
 30
0.0
  9
$PUCSXDIR
 10
1.0
 20
0.0
 30
0.0
  9
$PUCSYDIR
 10
0.0
 20
1.0
 30
0.0
  9
$USERI1
 70
     0
  9
$USERI2
 70
     0
  9
$USERI3
 70
     0
  9
$USERI4
 70
     0
  9
$USERI5
 70
     0
  9
$USERR1
 40
0.0
  9
$USERR2
 40
0.0
  9
$USERR3
 40
0.0
  9
$USERR4
 40
0.0
  9
$USERR5
 40
0.0
  9
$WORLDVIEW
 70
     1
  9
$SHADEDGE
 70
     3
  9
$SHADEDIF
 70
    70
  9
$TILEMODE
 70
     1
  9
$MAXACTVP
 70
    16
  9
$PINSBASE
 10
0.0
 20
0.0
 30
0.0
  9
$PLIMCHECK
 70
     0
  9
$PEXTMIN
 10
1.000000E+20
 20
1.000000E+20
 30
1.000000E+20
  9
$PEXTMAX
 10
-1.000000E+20
 20
-1.000000E+20
 30
-1.000000E+20
  9
$PLIMMIN
 10
0.0
 20
0.0
  9
$PLIMMAX
 10
12.0
 20
9.0
  9
$UNITMODE
 70
     0
  9
$VISRETAIN
 70
     0
  9
$PLINEGEN
 70
     0
  9
$PSLTSCALE
 70
     1
  9
$TREEDEPTH
 70
  3020
  9
$DWGCODEPAGE
  3
ascii
  0
ENDSEC
  0
SECTION
  2
TABLES
  0
TABLE
  2
VPORT
 70
     2
  0
VPORT
  2
*ACTIVE
 70
     0
 10
0.0
 20
0.0
 11
1.0
 21
1.0
 12
7.896686
 22
4.951264
 13
0.0
 23
0.0
 14
1.0
 24
1.0
 15
0.0
 25
0.0
 16
0.0
 26
0.0
 36
1.0
 17
0.0
 27
0.0
 37
0.0
 40
9.902529
 41
1.594883
 42
50.0
 43
0.0
 44
0.0
 50
0.0
 51
0.0
 71
     0
 72
   100
 73
     1
 74
     1
 75
     0
 76
     0
 77
     0
 78
     0
  0
ENDTAB
  0
TABLE
  2
LTYPE
 70
     1
  0
LTYPE
  2
CONTINUOUS
 70
    64
  3
Solid line
 72
    65
 73
     0
 40
0.0
  0
ENDTAB
  0
TABLE
  2
LAYER
 70
     2
  0
LAYER
  2
0
 70
    64
 62
     7
  6
CONTINUOUS
  0
LAYER
  2
AME_FRZ
 70
    65
 62
     7
  6
CONTINUOUS
  0
ENDTAB
  0
TABLE
  2
STYLE
 70
     1
  0
STYLE
  2
STANDARD
 70
     0
 40
0.0
 41
1.0
 50
0.0
 71
     0
 42
0.2
  3
txt
  4

  0
ENDTAB
  0
TABLE
  2
VIEW
 70
     0
  0
ENDTAB
  0
TABLE
  2
UCS
 70
     0
  0
ENDTAB
  0
TABLE
  2
APPID
 70
     3
  0
APPID
  2
ACAD
 70
    64
  0
APPID
  2
AME_SOL
 70
    64
  0
APPID
  2
AVE_INVOKE
 70
    64
  0
ENDTAB
  0
TABLE
  2
DIMSTYLE
 70
     0
  0
ENDTAB
  0
ENDSEC
  0
SECTION
  2
BLOCKS
  0
BLOCK
  8
0
  5
1
  2
AME_NIL
 70
    64
 10
0.0
 20
0.0
 30
0.0
  1
AME_NIL
  3
AME_NIL
  0
ENDBLK
  8
0
  5
2
  0
BLOCK
  8
0
  5
4
  2
AME_SOL
 70
    64
 10
0.0
 20
0.0
 30
0.0
  1
AME_SOL
  3
AME_SOL
  0
ENDBLK
  8
0
  5
5
  0
BLOCK
  8
0
  5
37
  2
*U5
 70
    65
 10
0.0
 20
0.0
 30
0.0
  1
*U
  3
*U
  0
LINE
  8
0
 62
     7
  5
38
 10
6.0
 20
6.0
 30
0.0
 11
6.0
 21
6.0
 31
2.0
1001
AME_SOL
1070
     1
1071
       33
  0
LINE
  8
0
 62
     7
  5
39
 10
6.0
 20
4.0
 30
4.0
 11
6.0
 21
0.0
 31
4.0
1001
AME_SOL
1070
     1
1071
       32
  0
LINE
  8
0
 62
     7
  5
3A
 10
0.0
 20
6.0
 30
0.0
 11
0.0
 21
6.0
 31
2.0
1001
AME_SOL
1070
     1
1071
       31
  0
LINE
  8
0
 62
     7
  5
3B
 10
0.0
 20
4.0
 30
4.0
 11
0.0
 21
0.0
 31
4.0
1001
AME_SOL
1070
     1
1071
       30
  0
LINE
  8
0
 62
     7
  5
3C
 10
0.0
 20
0.0
 30
0.0
 11
0.0
 21
0.0
 31
4.0
1001
AME_SOL
1070
     1
1071
       29
  0
LINE
  8
0
 62
     7
  5
3D
 10
6.0
 20
0.0
 30
4.0
 11
6.0
 21
0.0
 31
0.0
1001
AME_SOL
1070
     1
1071
       28
  0
LINE
  8
0
 62
     7
  5
3E
 10
0.0
 20
0.0
 30
4.0
 11
6.0
 21
0.0
 31
4.0
1001
AME_SOL
1070
     1
1071
       27
  0
LINE
  8
0
 62
     7
  5
3F
 10
0.0
 20
0.0
 30
0.0
 11
6.0
 21
0.0
 31
0.0
1001
AME_SOL
1070
     1
1071
       26
  0
LINE
  8
0
 62
     7
  5
40
 10
0.0
 20
6.0
 30
0.0
 11
0.0
 21
0.0
 31
0.0
1001
AME_SOL
1070
     1
1071
       25
  0
LINE
  8
0
 62
     7
  5
41
 10
6.0
 20
0.0
 30
0.0
 11
6.0
 21
6.0
 31
0.0
1001
AME_SOL
1070
     1
1071
       24
  0
LINE
  8
0
 62
     7
  5
42
 10
6.0
 20
6.0
 30
0.0
 11
0.0
 21
6.0
 31
0.0
1001
AME_SOL
1070
     1
1071
       23
  0
LINE
  8
0
 62
     7
  5
43
 10
0.0
 20
4.0
 30
2.0
 11
0.0
 21
4.0
 31
4.0
1001
AME_SOL
1070
     1
1071
       22
  0
LINE
  8
0
 62
     7
  5
44
 10
6.0
 20
4.0
 30
4.0
 11
6.0
 21
4.0
 31
2.0
1001
AME_SOL
1070
     1
1071
       21
  0
LINE
  8
0
 62
     7
  5
45
 10
4.732051
 20
4.0
 30
4.0
 11
6.0
 21
4.0
 31
4.0
1001
AME_SOL
1070
     1
1071
       20
  0
LINE
  8
0
 62
     7
  5
46
 10
0.0
 20
4.0
 30
4.0
 11
1.267949
 21
4.0
 31
4.0
1001
AME_SOL
1070
     1
1071
       19
  0
LINE
  8
0
 62
     7
  5
47
 10
0.0
 20
6.0
 30
2.0
 11
0.0
 21
4.0
 31
2.0
1001
AME_SOL
1070
     1
1071
       18
  0
LINE
  8
0
 62
     7
  5
48
 10
6.0
 20
4.0
 30
2.0
 11
6.0
 21
6.0
 31
2.0
1001
AME_SOL
1070
     1
1071
       17
  0
LINE
  8
0
 62
     7
  5
49
 10
6.0
 20
6.0
 30
2.0
 11
0.0
 21
6.0
 31
2.0
1001
AME_SOL
1070
     1
1071
       16
  0
LINE
  8
0
 62
     7
  5
4A
 10
4.732051
 20
4.0
 30
2.0
 11
6.0
 21
4.0
 31
2.0
1001
AME_SOL
1070
     1
1071
       15
  0
LINE
  8
0
 62
     7
  5
4B
 10
0.0
 20
4.0
 30
2.0
 11
1.267949
 21
4.0
 31
2.0
1001
AME_SOL
1070
     1
1071
       14
  0
ARC
  8
0
 62
     7
  5
4C
 10
3.0
 20
3.0
 30
4.0
 40
2.0
 50
150.0
 51
30.0
1001
AME_SOL
1070
     1
1071
       13
  0
LINE
  8
0
 62
     7
  5
4D
 10
4.732051
 20
4.0
 30
2.0
 11
4.732051
 21
4.0
 31
4.0
1001
AME_SOL
1070
     1
1071
       12
  0
LINE
  8
0
 62
     7
  5
4E
 10
1.267949
 20
4.0
 30
2.0
 11
1.267949
 21
4.0
 31
4.0
1001
AME_SOL
1070
     1
1071
       11
  0
ARC
  8
0
 62
     7
  5
4F
 10
3.0
 20
3.0
 30
2.0
 40
2.0
 50
150.0
 51
30.0
1001
AME_SOL
1070
     1
1071
       10
  0
LINE
  8
0
 62
     7
  5
50
 10
1.0
 20
3.0
 30
2.0
 11
1.0
 21
3.0
 31
4.0
1001
AME_SOL
1070
     0
1071
        1
  0
LINE
  8
0
 62
     7
  5
51
 10
3.0
 20
1.0
 30
2.0
 11
3.0
 21
1.0
 31
4.0
1001
AME_SOL
1070
     0
1071
        1
  0
LINE
  8
0
 62
     7
  5
52
 10
5.0
 20
3.0
 30
2.0
 11
5.0
 21
3.0
 31
4.0
1001
AME_SOL
1070
     0
1071
        1
  0
ENDBLK
  8
0
  5
53
  0
BLOCK
  8
0
  5
57
  2
AME_JNK
 70
     0
 10
0.0
 20
0.0
 30
0.0
  1
AME_JNK
  3
AME_JNK
  0
ENDBLK
  8
0
  5
58
  0
ENDSEC
  0
SECTION
  2
ENTITIES
  0
INSERT
  8
AME_FRZ
  5
3
  2
AME_NIL
 10
0.0
 20
0.0
 30
0.0
  0
INSERT
  8
AME_FRZ
  5
6
  2
AME_SOL
 10
0.0
 20
0.0
 30
0.0
1001
AME_SOL
1000
R2.1
1000
AME2
1000
sq cm
1070
     3
1070
     0
1070
     3
1000
wire
1040
45.0
1000
U
1040
1.0
1000
cm
1000
gm
1000
MILD_STEEL
1070
    25
1000
CSG
1070
     1
1070
     3
1070
     3
1070
     3
1070
     0
1000
cu cm
1070
     1
1070
     0
1005
3
  0
INSERT
  8
AME_FRZ
  5
15
  2
AME_NIL
 10
0.0
 20
0.0
 30
0.0
1001
AME_SOL
1002
{
1070
     1
1071
  2388904
1070
  1536
1070
     1
1010
6.0
1020
6.0
1030
4.0
1005
0
1005
0
1005
54
1040
0.0
1040
1.0
1070
     0
1000
MILD_STEEL
1000
0
1010
0.0
1020
0.0
1030
0.0
1010
0.0
1020
0.0
1030
1.0
1040
0.0
1002
}
1001
AVE_INVOKE
1000
SOLAVEMESH
  0
INSERT
  8
AME_FRZ
  5
26
  2
AME_NIL
 10
0.0
 20
4.0
 30
2.0
1001
AME_SOL
1002
{
1070
     1
1071
  2405024
1070
  1536
1070
     1
1010
6.0
1020
2.0
1030
2.0
1005
0
1005
0
1005
35
1040
0.0
1040
1.0
1070
     0
1000
MILD_STEEL
1000
0
1010
0.0
1020
4.0
1030
2.0
1010
0.0
1020
0.0
1030
1.0
1040
0.0
1002
}
1001
AVE_INVOKE
1000
SOLAVEMESH
  0
INSERT
  8
AME_FRZ
  5
32
  2
AME_NIL
 10
3.0
 20
3.0
 30
2.0
1001
AME_SOL
1002
{
1070
     1
1071
  2401624
1070
  1538
1070
     1
1010
2.0
1020
2.0
1030
2.0
1005
0
1005
0
1005
35
1040
0.0
1040
1.0
1070
     0
1000
MILD_STEEL
1000
0
1010
3.0
1020
3.0
1030
2.0
1010
0.0
1020
0.0
1030
1.0
1040
0.0
1002
}
1001
AVE_INVOKE
1000
SOLAVEMESH
  0
INSERT
  8
AME_FRZ
  5
35
  2
AME_NIL
 10
0.0
 20
0.0
 30
0.0
1001
AME_SOL
1002
{
1070
     1
1071
  2428800
1070
   775
1070
     0
1070
     2
1005
26
1005
32
1005
0
1005
0
1005
54
1040
0.0
1040
1.0
1070
     0
1000
MILD_STEEL
1000
0
1010
0.0
1020
0.0
1030
0.0
1010
0.0
1020
0.0
1030
1.0
1040
0.0
1002
}
  0
INSERT
  8
0
  5
54
  2
*U5
 10
0.0
 20
0.0
 30
0.0
1001
AME_SOL
1002
{
1070
     1
1071
  2431368
1070
  1543
1070
     1
1070
     0
1005
15
1005
35
1005
0
1005
55
1005
0
1040
0.0
1040
1.0
1070
     0
1000
MILD_STEEL
1000
0
1002
}
1001
AVE_INVOKE
1000
SOLAVEMESH
  0
INSERT
  8
AME_FRZ
  5
55
  2
AME_NIL
 10
1.0
 20
1.0
 30
1.0
1001
AME_SOL
1004
C7CF01000D018601850183017F0177016A017C005C014B01050054004C0144003501B5001F006B01FD005D014D013601C300250109002800F2004E01ED00DF0078016C0125005F006D015E01F8004F01E00037012601C100520076008900800179016E015F018000080002006F0160015001EE00A4009600
1004
07007A01700161015101380183002701D1001701130016003901280118018500F40019012A00BA00C5007500620152013A01DA0014003B01B000DC0053013C01A000E1003D0129011A01B3009E001E008800F000840181017B017101BF00240072010F00630154014E00840055013E01700017003F012A01
1004
1B010E01A900FA000600B60004007C0173013F00640110005601400172008D0041016B0061007401650157014201A700EF0043012B012D007A002C011C0121008B001D01AB00EB00580144012D011E01360038001F01730049002E0120014D00560021010F01F700D8001001B80001010001190045012F01
1004
220111010201F900F60003012000F500120104012E002F0005013900D400230113010601450046000701470048001401080195004A0009014B005500DB00010082017D01750166017F003C0067017E001800FF007E014000760168010300590146013001240115010A01570059000B015A005B0016010C01
1004
A3005C000D015D006800B700E2004701FB003101CF00600069015A0148013201EA00580033014C009000C0005B014901E800FE004A01FC003401D600120000007C1E3E0F13C1ECBDFCD6B71B56B032AFDE31384C046483C62709808C9078C4E13011920900D1472D9B9201A28E5B372403451CB54E5FBD83
1004
53F1C1E9F83830B150707A7E0E0C2C5431A4490341B5AA2403451CB34B9201A28E59A5C900D1472D5397BE098F9BD28DADD7AD957DF04CFF3A9FFFFFFF9D4FFFC8BBF22EFEE04FF77F77FFFFFBE099FE753FFFFFFF3A9FFF9177E45DFDC09FEEFEEFFFFFCE82D47C3CA99FF3A9FFFFFFF9D4FF3B5AD6B4B7
1004
2FF34BBFB89832B55CB75782AB03C195AAE5BABC15582FAFFFBEFF93C195AAE5BABC15581FFDF7FC195AAE5BABC15582FFAD47C17E54CFF9D4FFFFFFFCEA7FAFF34BBF22EFEE260CAD572DD5E0AAC0F0656AB96EAF05560BEBFFEFBFE4F0656AB96EAF055607FF7DFEE0656AB96EAF05560ABFFFFEE26613
1004
F5AD309FAD6AFFFFFB96A3E04F2A67FCEA7FFFFFFE753FCED6B5AD2DCBFCEA7F7130656AB96EAF055607832B55CB75782AB05F5FFF7DFF27832B55CB75782AB03FFBEFF7032B55CB75782AB055FFFFF713309FAD6984FD6B57FFFFDCB51F079CA99FF3A9FFFFFFF9D4FF5FE7516C5F22EFEE260CAD572DD5
1004
E0AAC0F0656AB96EAF05560BEBFFEFBFE4F0656AB96EAF055607FF7DFEE0656AB96EAF05560ABFFFFEE26613F5AD309FAD6AFFFFFB9EC1A9E6383D3F0706162A0E0F4FC1C1858A863489206836B5448068A3966972403451CB34B8DD18FD41FF4AE5E9A986A58236B726B645F4D4CFF3A9FFFFFC87E743F9
1004
0FC8BBF22EFEE04FFFFFFFFFF955F4D4CFFFF3A9FFF9D4FFFFFFFD53BFB813FFFFFFFFFE9A99FFFE753FFF3A9FFFFFFFAA77F7027FFFFFFFFF3A0F60D2378C4E13011920F52D77071D2718D22481A0DAD51201A28E5B372403451CB54E48068A396A9CBD353068246D6EBD6D8BE9A99FE753FFFFFFFFF3A9
1004
FFFAA77F7027FFFFFFFFFD3533FCEA7FFFFFFFFE753FFF54EFEE04FFFFFFFFFE741EC1A9FBC62709808C9078C4E13011920F189C26023241201A28E5B372403451CB66E78C4E13011928BD3531F8FF235FAF4F15F4D4CFFFF3A9FFF9D4FFFFFFFFFF04FFFFFFFFFFA6A67FFF9D4FFFCEA7FFFFFFFFF827FF
1004
FFFFFFF3A8F60D4FDE31384C046483C62709808C9078C4E13011920900D1472D9B9E31384C0464A2403451CB54E5E9A98F7BDC8D7EBD6C0BE9A99FE753FFFFFFFFF3A9FFFFFE09FFFFFFFFFF4D4CFF3A9FFFFFFFFF9D4FFFFFF04FFFFFFFFFE751EC1A9E6F189C26023241E31384C046483C62709808C907
1004
8C4E13011928900D1472D9B9201A28E5AA72F4D4C37BF91AFD78C5F4D4CFFFFFF3A9FFF9D4FFFFFFFF04FFFFFFFFFFA6A67FFFFF9D4FFFCEA7FFFFFFF827FFFFFFFFF3A8F60D4F378C4E13011920F189C26023241EA5AEE0E3A4E48068A396CDC900D1472D9B9201A28E5AA72F4D4C4E1AD1AFD7AD62FA6A
1004
67F9D0FE43F90FE43F3A1FC87ECDDFB377EA9C09FFFFFFFFFF4D4CFF3A1FC87F21FC87E743F90FD9BBF66EFD53813FFFFFFFFF9D47B06A7EF189C2602324034C1360DC6275CF189C26023241201A28E5B372403451CB66E48068A396A9CBD353061D1AFD7AD857D3533FE43F90FCE87E743F90FE43F66EFD
1004
9BBF54E04FFFFFFFFFFA6A67FC87F21F9D0FCE87F21FC87ECDDFB377EA9C09FFFFFFFFFCEA3D8353CC34C1360DC6275CF189C26023241E31384C046482403451CB66E48068A396CDC900D1472D5397A6A60C0F46BF5EB635F4D4CFF90FCE87F21FC87F21F9D0FD9BBF66EFD53813FFFFFFFFFE9A99FF21F9
1004
D0FE43F90FE43F3A1FB377ECDDFAA7027FFFFFFFFF3A85250383D3F0706162A0E0F4FC1C1858A863489206836B5448068A3966972403451CB34B8DD18FD41FF4AE0CD6406057B2CC0C9F535692C8B446D1B0EA137F1920B6613B5ABDF37A519A9608F26F9BD28CD4B046D6B5AD6B5AFE33ACD7C9F17E2CA9
1004
EACF51687C690FF5A1F1A5166BE4F8BF1654F567A9FC87E45DF9177F727FFDDFDC19AC80C0AF6598193EA6AD2591688DA361D429281C1E9F83830B151EA5AEE0E3A4E31A4490341B5AA2403451CB34B9201A28E5AA72403451CB54EFFFEE2654CAD72D9D1EBDAD7CDE94634123C98D048DF37A51B5AD6B5A
1004
D69533FE753FFFFFFF3A9FEB54DC2C13A6216998953F54EFEE27FFFDC5250383D3F0706162A3D4B5DC1C749C63489206836B5448068A3966972403451CB54E48068A396A9DFFFDC4CA997A38D88F6B57BE6F4A31A091E4DF37A518D048DAD6B5AD6B4A99FF3A9FFFFFFF9D4FF314618C398B3721CFFBBF54
1004
EFEE27FFFDC5250383D3F0706162A0E0F4FC1C1858A8F52D77071D272403451CB34B9201A28E59A5C900D1472D538335901815ECB30327D4D5A4B22D11B46C3A84DFC648A78A3D7B5AF9BD28D386B47934E1AD1BE6F4A35FB5AD6BF8CEB35F27C5F8B2A7AB3D45A1F1A43FD687C69459AF93E2FC5953D59E
1004
A7F21F9177E45DFAA727FFDDFDC19AC80C0AF6598193EA6AD2591688DA361D4292878C4E13011920F52D77071D2718D22481A0DAD51201A28E5B372403451CB54E37463F507FD2BBFD6A9B858274C42D3312A132A656B5E888F5ED69A9608C68247931A0919A9608DAD6B5AD6B4A99FFFF3A1FFFFFFF9D0F
1004
FFD53BFB89FFAD5370B04E9885A66254292878C4E13011920F52D77071D2718D22481A0DAD51201A28E5B372403451CB54E37463F507FD2B8C518630E62CDC873FEEFD9B899532E5BA3D7B5A6A58231A091E4C682466A58236B5AD6B5AD2A67FFFCE87FFFFFFE743FFF54EFEE26628C31873166E439FF77E
1004
CDC5250F189C2602324034C1360DC6275C63489206836B5448068A396CDC900D1472D9B8DD18FD41FF4AEFC8BEFE45C4CA997E2D6A3D7B5A6A58231874793187466A58235FB5AD69533FFFE753FFFFFFF3A1F9177ECDDFDC4FF22FBF9171494069826C1B8C4EB9EA5AEE0E3A4E31A4490341B5AA2403451C
1004
B66E48068A396CDC6E8C7EA0FFA573CF9D07EB5AD6B562A132A6608275ED69A9608C607A3C98C0F466A58235FB5AD69533FE753FFFFFFFFF3A1FB372FF34BBFB89BCF9D07EB5AD6B562A14943C62709808C907A96BB838E938C691240D06D6A8F189C26023251201A28E5B371BA31FA83FE95CBFD53EFF7D
1004
2654CB96A89D7B5A6A582337BF91E4CDEFE466A58235FB5AD69533FE743FFFFFFFFF3A1FFFDDFDC4D7FAA7DFEFA5250F189C26023241EA5AEE0E3A4E7A96BB838E939201A28E5B372403451CB54E48068A396A9DF917D59CF93E2FC5953D7B204CA995B5ADBC4EBDAD1A091A70D68F269C35A31A091AFDAD
1004
6B4A99FFFFFF3A9FFF9D0FFFC8BBF54EFD5389FE45F5673E4F8BF1654F5EC814943C62709808C907A96BB838E939EA5AEE0E3A4E48068A396CDC900D1472D539201A28E5AA72CE7C9F17E2CA9EBD94FC8B899532FAB6813AF6B4682469C35A3C9A70D68C68246BF6B5AD2A67FFFFFCEA7FFE743FFF22EFD5
1004
3BF54E26B39F27C5F8B2A7AF653F22E29280D304D837189D73D4B5DC1C749C63489206836B5448068A396CDC900D1472D539201A28E5AA73F5AD6B5AB1417F9D42654C9D6D2275ED68D048C607A3C98C0F46341235FB5AD69533FE753FFFFFFF3A1FFFB377EA9DF917137EB5AD6B56282FF3A85250F189C2
1004
6023241EA5AEE0E3A4E31A4490341B5AA3C62709808C9448068A396A9C900D1472D53BF3A9F917132A64696D4275ED68D048CDEFE479337BF918D048D7ED6B5A54CFF9D0FFFFFFFCE87FFFFEA9DF9D427F9D4FC8B8A4A1E31384C04648069826C1B8C4EB9E31384C046482403451CB66E48068A396CDCF18
1004
9C26023253F22FBF917132A6552D313B5ABDF8FF2318747937E3FC8C61D1AFD7E54CFFFF9D4FFFFFFFCE87E45DFB377F93FC8BEFE45C52501A609B06E313AE78C4E13011920F189C26023241201A28E5B372403451CB66E78C4E13011929F917DFC8B899532E5B689DAD5EFC7F918C0F47937E3FC8C607A3
1004
5FAFCA99FF3A9FFFFFFFFF9D0FD9BBF22EFF27F917DFC8B8A4A1E31384C046483C62709808C9078C4E13011920F189C26023251201A28E5B373C62709808C94FD9BEFF204CA994E2DB84ED6AF7E3FC8CDEFE47937E3FC8CDEFE46BF5F9533FE743FFFFFFFFF3A1FFFFFE4FF66FBFC814943C62709808C907
1004
8C4E13011920F189C26023241201A28E5B373C62709808C9478C4E13011929FFFB37132A64D8F909DAD5EFC7F91BDEF723C9BF1FE46F7BDC8D7EBF2A67FFFCE87FFFFFFE743FFFFFC9FFFECDC5250F189C26023241E31384C046483D4B5DC1C749C900D1472D9B9E31384C0464A2403451CB54EFC8BEFE45
1004
C4CA9918F4013B5ABDEF7B91A70D68F26F7BDC8D386B46BF5F9533FFFFFE753FFF3A1FFF9177FFEA9C4FF22FBF9171494069826C1B8C4EB9E31384C046483C62709808C9048068A396CDCF189C26023251201A28E5AA77F7DFEE2654C866F4113B5ABDEF7B918C0F47937BDEE46303D1AFD7E54CFF9D4FFF
1004
FFFFCE87FFECDDFFFDC4FFBEFF714943C62709808C9078C4E13011920F189C26023241E31384C0464A3C62709808C9448068A396A9DFFFAA7132A65F17A109DAD5EF7BDC8CDEFE47937BDEE466F7F235FAFCA99FF3A1FFFFFFF9D0FFFFFFFF27FFFAA714943C62709808C9078C4E13011920F52D77071D27
1004
3C62709808C9448068A396CDC900D1472D539FAD6B5AD58A1F917132A64DEF4313B5ABCDEFE469C35A3C99BDFC8D386B46BF5F9533FFFFFE753F3A1FFFFFFF9177EA9C4DFAD6B5AD58A1F91714943C62709808C900D304D837189D73C62709808C9078C4E13011928900D1472D9B9201A28E5AA77F7DFF26
1004
54CAD73D144ED6AF37BF918C3A3C99BDFC8C61D1AFD7E54CFFFF9D4FFFCE87FFFFFFECDDFDC4FFBEFF9494069826C1B8C4EB9E31384C046483D4B5DC1C749C900D1472D9B9201A28E5B372403451CB54E5FF77ECDC4CA997E3D184ED6AF4E1AD18C0F47934E1AD18C0F46BF5F9533FE753FFFFF90FFFCEA7
1004
ECDDFB377EA9C4D7FDDFB371494069826C1B8C4EB834C1360DC6275CF189C26023241201A28E5B372403451CB66E48068A396A9DFAA7DFEFA4CA9966289DAD5E30E8C607A3C98C3A3181E8D7EBF2A67FCEA7FFFFFFE753FFF66EFD9BBF54E27FAA7DFEFAB5F7F2D796
1005
56
  0
INSERT
  8
AME_FRZ
  5
56
  2
AME_NIL
 10
1.0
 20
1.0
 30
1.0
1001
AME_SOL
1004

1005
0
  0
ENDSEC
  0
EOF
