**ABCDEFGHIJKLMNOPQRSTUVWXYZabcdefghijklmnopqrstuvwxyz**************************
**PARASOLID !"#$%&'()*+,-./:;<=>?@[\]^_`{|}~0123456789**************************
**PART1;MC=sparc;MC_MODEL=sun4c;MC_ID=chaos;OS=SunOS;OS_RELEASE=4.1.2;FRU=sdl_pa
rasolid_test_sparc;APPL=unknown;SITE=sdl-cambridge-u.k.;USER=brown;FORMAT=text;G
UISE=transmit;KEY=stitcharm;FILE=stitcharm.xmt_txt;DATE=13-feb-1992;
**PART2;SCH=SCH_401021_4039;USFLD_SIZE=0;
**PART3;
**END_OF_HEADER*****************************************************************
T50 : TRANSMIT FILE created by modeller version 40102115 SCH_401021_40390 12 1 5
98 2 3 0 0 0 1e3 1e-8 4 2 0 5 0 1 6 1e-8 0 0 81 1 2 598 7 1 0 0 0 0 8 70 3 0 1 0
 0 4 1 20 4 9 9 1 102 9 4 stitcharm13 6 1 0 1 0 10 11 12 13 14 15 14 10 -149 0 1
6 0 17 6 18 -16 11 -410 0 19 0 20 21 18 12 -279 0 22 0 23 24 50 13 597 0 25 26 0
 0 +.163 -.5055 .5055 0 .707106781186548 -.707106781186548 0 .707106781186548 .7
07106781186548 30 14 560 0 27 28 0 0 +1e-8 0 .3 1.311 -1 0 0 29 15 478 0 29 30 0
 .163 .3 1.311 18 29 -999 0 31 32 0 15 29 30 477 0 32 33 15 .163 .32 1.331 18 32
 -995 0 34 35 29 30 29 33 476 0 35 36 30 -.163 .32 1.331 18 35 -991 0 37 38 32 3
3 29 36 475 0 38 39 33 -.163 .3 1.311 18 38 -987 0 40 41 35 36 29 39 474 0 41 42
 36 .163 .4457258883248735 .83 18 41 -967 0 43 44 38 39 29 42 473 0 44 45 39 -.1
63 .4457258883248735 .83 18 44 -963 0 46 47 41 42 29 45 472 0 47 48 42 .163 -.9
 .83 18 47 -943 0 49 50 44 45 29 48 471 0 50 51 45 -.163 -.9 .83 18 50 -939 0 52
 53 47 48 29 51 470 0 53 54 48 -.0563489130329947 -.297302173934011 .83 18 53 -9
35 0 55 56 50 51 29 54 469 0 56 57 51 .163 .65 1.183 18 56 -927 0 58 59 53 54 29
 57 468 0 59 60 54 -.163 .65 1.183 18 59 -915 0 61 62 56 57 29 60 467 0 62 63 57
 -.2175 -.83 1.486 18 62 -859 0 64 65 59 60 29 63 466 0 65 66 60 -.2175 -.9 1.41
6 18 65 -855 0 67 68 62 63 29 66 465 0 68 69 63 .2175 -.83 1.486 18 68 -851 0 70
 71 65 66 29 69 464 0 71 72 66 .2175 -.9 1.416 18 71 -847 0 73 74 68 69 29 72 46
3 0 74 75 69 -.075 -.83 1.486 18 74 -843 0 76 77 71 72 29 75 462 0 77 78 72 .075
 -.83 1.486 18 77 -839 0 79 80 74 75 29 78 461 0 80 81 75 -.075 -.9 1.416 18 80
 -835 0 82 83 77 78 29 81 460 0 83 84 78 .075 -.9 1.416 18 83 -831 0 85 86 80 81
 29 84 459 0 86 87 81 -.163 .65 1.331 18 86 -743 0 88 89 83 84 29 87 458 0 89 90
 84 -.163 .3 1.266 18 89 -735 0 91 92 86 87 29 90 457 0 92 93 87 -.163 -.245 1.2
66 18 92 -731 0 94 95 89 90 29 93 456 0 95 96 90 -.163 -.245 1.486 18 95 -727 0
 97 98 92 93 29 96 455 0 98 99 93 -.163 -.7 1.486 18 98 -723 0 100 101 95 96 29
 99 454 0 101 102 96 -.163 -.7 1.271 18 101 -719 0 103 104 98 99 29 102 453 0 10
4 105 99 -.163 -.9 1.271 18 104 -715 0 106 107 101 102 29 105 452 0 107 108 102
 -.2175 -.9 1.271 18 107 -699 0 109 110 104 105 29 108 451 0 110 111 105 -.2175
 -.7 1.271 18 110 -695 0 112 113 107 108 29 111 450 0 113 114 108 -.2175 -.7 1.4
86 18 113 -691 0 115 116 110 111 29 114 449 0 116 117 111 .163 -.9 1.271 18 116
 -639 0 118 119 113 114 29 117 448 0 119 120 114 .163 -.7 1.271 18 119 -635 0 12
1 122 116 117 29 120 447 0 122 123 117 .163 -.7 1.486 18 122 -631 0 124 125 119
 120 29 123 446 0 125 126 120 .163 -.245 1.486 18 125 -627 0 127 128 122 123 29
 126 445 0 128 129 123 .163 -.245 1.266 18 128 -623 0 130 131 125 126 29 129 444
 0 131 132 126 .163 .3 1.266 18 131 -619 0 133 134 128 129 29 132 443 0 134 135
 129 .163 .65 1.331 18 134 -611 0 136 137 131 132 29 135 442 0 137 138 132 .2175
 -.9 1.271 18 137 -603 0 139 140 134 135 29 138 441 0 140 141 135 .2175 -.7 1.27
1 18 140 -599 0 142 143 137 138 29 141 440 0 143 144 138 .2175 -.7 1.486 18 143
 -595 0 145 146 140 141 29 144 439 0 146 147 141 -.2175 -.787862927022752 1.3557
25854045504 18 146 -527 0 148 149 143 144 29 147 438 0 149 150 144 .2175 -.83213
7072977248 1.444274145954496 18 149 -467 0 151 152 146 147 29 150 437 0 152 153
 147 0 -.284 1.136 18 152 -431 0 154 155 149 150 29 153 436 0 155 156 150 0 -.36
55 1.136 18 155 -427 0 157 158 152 153 29 156 435 0 158 159 153 -.075 -.78786292
7022752 1.355725854045504 18 158 -411 0 160 161 155 156 29 159 434 0 161 162 156
 .075 -.832137072977248 1.444274145954496 18 161 -407 0 163 164 158 159 29 162 4
33 0 164 165 159 .03 -.709 1.121 18 164 -387 0 166 167 161 162 29 165 432 0 167
 168 162 .03 -.709 1.271 18 167 -383 0 169 170 164 165 29 168 431 0 170 171 165
 -.075 -.9 1.271 18 170 -375 0 172 173 167 168 29 171 430 0 173 174 168 .075 -.9
 1.271 18 173 -371 0 175 176 170 171 29 174 429 0 176 177 171 .075 -.725 1.486 1
8 176 -359 0 178 179 173 174 29 177 428 0 179 180 174 -.075 -.725 1.486 18 179 -
355 0 181 182 176 177 29 180 427 0 182 183 177 -.075 -.725 1.271 18 182 -351 0 1
84 185 179 180 29 183 426 0 185 186 180 .075 -.725 1.271 18 185 -347 0 187 188 1
82 183 29 186 425 0 188 189 183 0 .5245 .986 18 188 -319 0 190 191 185 186 29 18
9 424 0 191 192 186 .0199010049997481 .440197990000504 1.141 18 191 -315 0 193 1
94 188 189 29 192 423 0 194 195 189 0 -.3655 1.296 18 194 -303 0 196 197 191 192
 29 195 422 0 197 198 192 0 .606 1.141 18 197 -295 0 199 200 194 195 29 198 421
 0 200 201 195 0 .606 1.331 18 200 -291 0 202 23 197 198 29 201 420 0 23 24 198
 0 -.284 1.296 18 23 -283 0 203 12 200 201 29 24 419 0 12 0 201 0 -.284 1.486 17
 203 17 203 203 23 204 20 0 15 17 363 0 203 10 205 17 204 206 204 204 23 203 20
 0 16 20 -414 0 203 11 207 208 16 207 -422 0 209 20 210 211 31 208 480 0 20 21 2
11 0 +1e-8 0 -.41 1.296 0 0 -1 -1 0 0 .126 31 21 479 0 11 0 208 0 +1e-8 0 -.41 1
.486 0 0 -1 -1 0 0 .126 31 211 481 0 207 208 212 0 +1e-8 0 .48 1.331 0 0 -1 -1 0
 0 .126 31 212 482 0 210 211 213 0 +1e-8 0 .48 1.141 0 0 -1 -1 0 0 .126 16 210 -
426 0 199 207 214 212 31 213 483 0 214 212 215 0 +1e-8 0 -.41 1.296 0 0 -1 -1 0
 0 .0445 16 214 -434 0 196 210 216 213 31 215 484 0 216 213 217 0 +1e-8 0 .48 1.
141 0 0 1 1 0 0 .0445 16 216 -446 0 218 214 219 215 31 217 485 0 219 215 220 0 +
1e-8 0 .48 .986 0 0 -1 -1 0 0 .0445 16 219 -450 0 190 216 221 217 31 220 486 0 2
21 217 222 0 +1e-8 0 -.725 1.486 0 0 -1 -1 0 0 .075 16 221 -486 0 223 219 224 22
0 30 222 487 0 224 220 225 0 +1e-8 -.075 -.9 0 0 0 1 16 224 -494 0 226 221 227 2
22 30 225 488 0 227 222 228 0 +1e-8 .075 0 1.486 0 -1 0 16 227 -498 0 229 224 23
0 225 30 228 489 0 230 225 231 0 +1e-8 0 -.9 1.271 -1 0 0 16 230 -506 0 232 227
 233 228 31 231 490 0 233 228 234 0 +1e-8 0 -.725 1.271 0 0 -1 -1 0 0 .075 16 23
3 -510 0 187 230 235 231 30 234 491 0 235 231 236 0 +1e-8 .075 -.725 1.271 0 0 -
1 16 235 -514 0 237 233 238 234 30 236 492 0 238 234 239 0 +1e-8 -.075 -.725 1.2
71 0 0 -1 16 238 -518 0 184 235 240 236 30 239 493 0 240 236 241 0 +1e-8 .075 0
 1.271 0 -1 0 16 240 -522 0 242 238 243 239 30 241 494 0 243 239 244 0 +1e-8 -.0
75 0 1.271 0 1 0 16 243 -526 0 245 240 246 241 31 244 495 0 246 241 247 0 +1e-8
 .03 -.735 1.271 0 0 -1 -1 0 0 .026 16 246 -534 0 169 243 248 244 31 247 496 0 2
48 244 249 0 +1e-8 .03 -.735 1.121 0 0 -1 -1 0 0 .026 16 248 -538 0 166 246 250
 247 31 249 497 0 250 247 251 0 +1e-8 .075 -.81 1.4 -1 0 0 0 0 1 .0495 16 250 -5
58 0 252 248 253 249 31 251 498 0 253 249 254 0 +1e-8 -.075 -.81 1.4 1 0 0 0 0 -
1 .0495 16 253 -562 0 255 250 256 251 31 254 499 0 256 251 257 0 +1e-8 0 -.41 1.
136 0 0 -1 -1 0 0 .0445 16 256 -582 0 157 253 258 254 31 257 500 0 258 254 259 0
 +1e-8 0 -.41 1.136 0 0 -1 -1 0 0 .126 16 258 -586 0 260 256 261 257 31 259 501
 0 261 257 262 0 +1e-8 .2175 -.81 1.4 -1 0 0 0 0 1 .0495 16 261 -630 0 263 258 2
64 259 30 262 502 0 264 259 265 0 +1e-8 .2175 -.9 0 0 0 1 16 264 -638 0 266 261
 267 262 30 265 503 0 267 262 268 0 +1e-8 -.2175 0 1.486 0 -1 0 16 267 -718 0 26
9 264 270 265 31 268 504 0 270 265 271 0 +1e-8 -.2175 -.81 1.4 1 0 0 0 0 -1 .049
5 16 270 -726 0 272 267 273 268 30 271 505 0 273 268 274 0 +1e-8 0 .65 1.331 -1
 0 0 16 273 -754 0 275 270 276 271 30 274 506 0 276 271 277 0 +1e-8 0 .3 1.266 1
 0 0 16 276 -766 0 278 273 279 274 30 277 507 0 279 274 280 0 +1e-8 0 -.245 1.48
6 -1 0 0 16 279 -778 0 281 276 282 277 30 280 508 0 282 277 283 0 +1e-8 0 -.7 1.
486 -1 0 0 16 282 -818 0 284 279 285 280 30 283 509 0 285 280 286 0 +1e-8 .2175
 -.7 1.271 0 0 -1 16 285 -822 0 287 282 288 283 30 286 510 0 288 283 289 0 +1e-8
 0 -.9 1.271 -1 0 0 16 288 -826 0 118 285 290 286 30 289 511 0 290 286 291 0 +1e
-8 .2175 0 1.271 0 -1 0 16 290 -830 0 292 288 293 289 30 291 512 0 293 289 294 0
 +1e-8 .163 0 1.486 0 -1 0 16 293 -846 0 295 290 296 291 30 294 513 0 296 291 29
7 0 +1e-8 .163 -.9 0 0 0 -1 16 296 -850 0 298 293 299 294 30 297 514 0 299 294 3
00 0 +1e-8 .163 0 1.331 0 -1 0 16 299 -854 0 301 296 302 297 30 300 515 0 302 29
7 303 0 +1e-8 .163 0 1.266 0 -1 0 16 302 -858 0 304 299 305 300 30 303 516 0 305
 300 306 0 +1e-8 .163 -.245 0 0 0 1 16 305 -862 0 307 302 308 303 30 306 517 0 3
08 303 309 0 +1e-8 0 -.7 1.271 -1 0 0 16 308 -874 0 121 305 310 306 30 309 518 0
 310 306 311 0 +1e-8 .163 -.7 0 0 0 -1 16 310 -878 0 312 308 313 309 30 311 519
 0 313 309 314 0 +1e-8 .163 0 1.271 0 -1 0 16 313 -882 0 315 310 316 311 30 314
 520 0 316 311 317 0 +1e-8 0 -.245 1.266 -1 0 0 16 316 -918 0 94 313 318 314 30
 317 521 0 318 314 319 0 +1e-8 -.413 -.7 1.486 -1 0 0 16 318 -958 0 320 316 321
 317 30 319 522 0 321 317 322 0 +1e-8 -.2175 -.7 1.271 0 0 1 16 321 -962 0 323 3
18 324 319 30 322 523 0 324 319 325 0 +1e-8 -.413 -.9 1.271 -1 0 0 16 324 -966 0
 326 321 327 322 30 325 524 0 327 322 328 0 +1e-8 -.2175 0 1.271 0 1 0 16 327 -9
70 0 329 324 330 325 30 328 525 0 330 325 331 0 +1e-8 -.163 0 1.486 0 -1 0 16 33
0 -986 0 100 327 332 328 30 331 526 0 332 328 333 0 +1e-8 -.163 0 1.266 0 -1 0 1
6 332 -998 0 334 330 335 331 30 333 527 0 335 331 336 0 +1e-8 -.163 -.245 0 0 0
 1 16 335 -1002 0 97 332 337 333 30 336 528 0 337 333 338 0 +1e-8 -.163 .3 0 0 0
 -1 16 337 -1006 0 339 335 340 336 30 338 529 0 340 336 341 0 +1e-8 -.413 -.7 1.
271 -1 0 0 16 340 -1014 0 342 337 343 338 30 341 530 0 343 338 344 0 +1e-8 -.163
 0 1.271 0 -1 0 16 343 -1022 0 106 340 345 341 30 344 531 0 345 341 346 0 +1e-8
 -.163 -.7 0 0 0 -1 16 345 -1026 0 103 343 347 344 30 346 532 0 347 344 348 0 +1
e-8 -.163 .65 0 0 0 1 16 347 -1038 0 88 345 349 346 30 348 533 0 349 346 350 0 +
1e-8 -.075 0 1.486 0 1 0 16 349 -1098 0 351 347 352 348 30 350 534 0 352 348 353
 0 +1e-8 .2175 0 1.486 0 1 0 16 352 -1106 0 354 349 355 350 30 353 535 0 355 350
 356 0 +1e-8 .075 -.9 0 0 0 1 16 355 -1118 0 85 352 357 353 30 356 536 0 357 353
 358 0 +1e-8 -.2175 -.9 0 0 0 1 16 357 -1126 0 67 355 359 356 30 358 537 0 359 3
56 360 0 +1e-8 .2175 -.83 1.486 1 0 0 16 359 -1162 0 361 357 362 358 30 360 538
 0 362 358 363 0 +1e-8 .2175 -.83 1.486 1 0 0 16 362 -1166 0 364 359 365 360 30
 363 539 0 365 360 366 0 +1e-8 .2175 -.9 1.416 1 0 0 16 365 -1170 0 367 362 368
 363 30 366 540 0 368 363 369 0 +1e-8 .2175 -.9 1.416 1 0 0 16 368 -1174 0 370 3
65 371 366 31 369 541 0 371 366 372 0 +1e-8 -.2175 -.83 1.416 1 0 -1e-16 -1e-16
 0 -1 .07 16 371 -1178 0 373 368 374 369 31 372 542 0 374 369 375 0 +1e-8 .2175
 -.83 1.416 1 0 -1e-16 -1e-16 0 -1 .07 16 374 -1182 0 73 371 376 372 31 375 543
 0 376 372 377 0 +1e-8 .075 -.83 1.416 -1 0 0 0 0 1 .07 16 376 -1186 0 79 374 37
8 375 31 377 544 0 378 375 379 0 +1e-8 -.075 -.83 1.416 1 0 0 0 0 -1 .07 16 378
 -1190 0 82 376 380 377 30 379 545 0 380 377 381 0 +1e-8 .163 .65 0 0 0 1 16 380
 -1226 0 382 378 383 379 30 381 546 0 383 379 384 0 +1e-8 -.163 -.02590414052697
64 .0149902132998747 0 -.500863071341813 -.865526535564361 16 383 -1266 0 385 38
0 386 381 30 384 547 0 386 381 387 0 +1e-8 0 .65 1.183 -1 0 0 16 386 -1270 0 61
 383 388 384 30 387 548 0 388 384 389 0 +1e-8 -.163 -.9 0 0 0 -1 16 388 -1298 0
 52 386 390 387 31 389 549 0 390 387 391 0 +1e-8 0 -.41 .83 0 0 -1 -1 0 0 .126 1
6 390 -1330 0 55 388 392 389 30 391 550 0 392 389 393 0 +1e-8 0 -.9 .83 1 0 0 16
 392 -1338 0 49 390 394 391 30 393 551 0 394 391 395 0 +1e-8 .163 0 .83 0 1 0 16
 394 -1354 0 396 392 397 393 30 395 552 0 397 393 398 0 +1e-8 -.163 0 .83 0 -1 0
 16 397 -1374 0 399 394 400 395 30 398 553 0 400 395 401 0 +1e-8 .163 .445725888
3248735 .83 -1 0 0 16 400 -1390 0 402 397 403 398 30 401 554 0 403 398 404 0 +1e
-8 .163 -.0259041405269764 .0149902132998747 0 -.500863071341813 -.8655265355643
61 16 403 -1402 0 405 400 406 401 30 404 555 0 406 401 407 0 +1e-8 .163 .3 0 0 0
 -1 16 406 -1406 0 408 403 409 404 30 407 556 0 409 404 410 0 +1e-8 -.163 0 1.33
1 0 -1 0 16 409 -1418 0 37 406 411 407 30 410 557 0 411 407 412 0 +1e-8 -.163 -.
5055 .5055 0 .707106781186548 .707106781186548 16 411 -1438 0 413 409 414 410 30
 412 558 0 414 410 28 0 +1e-8 .163 -.5055 .5055 0 .707106781186548 .707106781186
548 16 414 -1442 0 415 411 416 412 30 28 559 0 416 412 14 0 +1e-8 0 .32 1.331 -1
 0 0 16 416 -1446 0 417 414 27 28 17 417 418 419 415 35 34 416 0 16 27 -1450 0 4
0 416 0 14 17 40 420 339 31 38 421 27 0 15 420 413 0 31 422 0 17 339 420 278 40
 89 423 337 0 17 31 420 40 278 29 408 406 0 17 421 418 415 419 29 40 27 0 15 418
 418 0 415 25 0 17 415 418 417 421 32 424 414 0 17 419 418 421 417 38 413 411 0
 17 413 425 426 423 35 419 411 0 15 425 417 0 423 427 0 17 426 425 428 413 86 37
 409 0 17 423 425 413 429 38 339 337 0 17 429 425 423 430 89 334 332 0 17 430 42
5 429 431 92 97 335 0 17 334 432 433 91 92 429 332 0 15 432 401 0 91 434 0 17 43
3 432 133 334 128 94 316 0 17 91 432 334 133 89 278 276 0 17 133 432 91 433 131
 304 302 0 17 278 420 31 339 131 91 276 0 17 304 435 307 408 128 133 302 0 15 43
5 416 0 301 436 0 17 307 435 295 304 125 130 305 0 17 408 435 304 424 131 31 406
 0 17 424 435 408 301 29 415 414 0 17 301 435 424 382 32 437 299 0 17 382 435 30
1 438 134 58 380 0 17 437 439 275 34 134 301 299 0 15 439 414 0 37 440 441 17 27
5 439 37 437 86 136 273 0 17 34 439 437 37 32 417 416 0 17 37 439 34 275 35 426
 409 0 17 136 442 58 88 134 275 273 0 15 442 409 0 58 443 0 17 58 442 61 136 56
 382 380 0 17 88 442 136 61 86 428 347 0 17 61 442 88 58 59 444 386 0 17 428 425
 385 426 59 88 347 0 17 385 425 399 428 44 445 383 0 17 399 425 446 385 50 46 39
7 0 17 445 447 444 402 59 385 383 0 15 447 412 0 444 448 0 17 444 447 405 445 56
 61 386 0 17 402 447 445 405 44 43 400 0 17 405 447 402 444 41 438 403 0 17 43 4
49 450 46 41 402 400 0 15 449 410 0 46 451 452 17 450 449 453 43 47 396 394 0 17
 46 449 43 453 44 399 397 0 17 453 449 46 450 50 49 392 0 17 49 454 455 52 47 45
3 392 0 15 454 406 0 49 456 0 17 455 454 457 49 116 298 296 0 17 52 454 49 458 5
0 446 388 0 17 458 454 52 459 104 326 324 0 17 446 425 460 399 104 52 388 0 17 4
60 425 461 446 101 106 343 0 17 461 425 431 460 98 103 345 0 17 106 462 326 463
 104 460 343 0 15 462 405 0 329 464 0 17 326 462 329 106 107 458 324 0 17 463 46
2 106 329 101 342 340 0 17 329 462 463 326 110 109 327 0 17 342 465 323 103 110
 463 340 0 15 465 404 0 323 466 0 17 323 465 467 342 113 112 321 0 17 103 465 34
2 467 101 461 345 0 17 467 465 103 323 98 320 318 0 17 320 468 269 100 113 467 3
18 0 15 468 402 0 361 469 470 17 269 468 364 320 62 115 267 0 17 100 468 320 281
 98 431 330 0 17 281 468 100 471 95 127 279 0 17 431 425 430 461 95 100 330 0 17
 471 468 281 284 125 295 293 0 17 127 472 130 97 125 281 279 0 15 472 400 0 94 4
73 0 17 130 472 94 127 128 307 305 0 17 97 472 127 94 95 430 335 0 17 94 472 97
 130 92 433 316 0 14 473 -377 0 434 474 472 6 475 -14 434 -381 0 469 473 432 6 4
76 -14 474 -357 0 473 477 478 6 479 -50 475 582 0 473 479 476 0 +0 -.245 1.266 0
 -1 0 0 0 -1 50 479 581 0 474 480 475 0 +.25 0 1.271 0 0 1 1 0 0 50 476 583 0 43
4 475 481 0 +-.25 -.245 1.266 0 0 -1 -1 0 0 50 481 584 0 469 476 482 0 +0 0 1.48
6 0 0 -1 -1 0 0 14 469 -397 0 466 434 468 6 481 -50 482 585 0 466 481 483 0 +-.1
63 -.7 0 0 -1 0 0 0 -1 14 466 -401 0 464 469 465 6 482 -50 483 586 0 464 482 484
 0 +-.163 0 1.271 0 0 1 1 0 0 14 464 -405 0 456 466 462 6 483 -50 484 587 0 456
 483 485 0 +0 -.9 .536 0 1 0 0 0 1 14 456 -461 0 486 464 454 6 484 -51 485 588 0
 486 484 487 0 +.2175 -.83 1.416 -1 0 0 .07 0 0 1 14 486 -473 0 488 456 489 6 48
5 +51 487 589 0 488 485 490 0 +.2175 -.83 1.416 -1 0 0 .07 0 0 1 14 488 -477 0 4
43 486 491 6 487 +50 490 590 0 443 487 492 0 +0 .65 .536 0 -1 0 0 0 -1 14 443 -5
01 0 451 488 442 6 490 -50 492 591 0 451 490 493 0 +0 0 .83 0 0 1 1 0 0 14 451 -
549 0 448 443 449 6 492 -50 493 592 0 448 492 494 0 +.163 -.0259041405269763 .01
49902132998747 0 -.865526535564361 .500863071341814 0 -.500863071341814 -.865526
535564361 14 448 -553 0 422 451 447 6 493 -50 494 593 0 422 493 495 0 +0 .3 1.26
6 0 1 0 0 0 1 14 422 -557 0 440 448 420 6 494 -50 495 594 0 440 494 496 0 +-.25
 -.22 1.331 0 0 -1 -1 0 0 14 440 -561 0 436 422 439 6 495 -50 496 595 0 436 495
 26 0 +.163 0 .536 -1 0 0 0 0 1 14 436 -565 0 427 440 435 6 496 -50 26 596 0 427
 496 13 0 +-.163 .65 0 1 0 0 0 0 -1 14 427 -569 0 25 436 425 6 26 -14 25 -573 0
 0 427 418 6 13 -15 491 408 0 370 488 0 17 370 491 497 373 80 498 368 0 17 497 4
91 499 370 74 82 378 0 17 373 491 370 499 65 64 371 0 17 498 454 459 226 65 370
 368 0 17 459 454 458 498 107 67 357 0 17 226 454 498 232 80 500 224 0 17 232 45
4 226 501 170 175 230 0 17 500 502 245 82 170 226 224 0 15 502 383 0 82 503 0 17
 245 502 504 500 182 172 243 0 17 82 502 500 76 80 497 378 0 17 76 502 82 504 74
 351 349 0 17 504 502 76 245 179 184 238 0 17 351 468 223 364 179 76 349 0 17 22
3 468 229 351 176 181 221 0 17 364 468 351 269 74 499 362 0 17 499 491 373 497 6
2 364 362 0 17 229 468 361 223 77 505 227 0 17 181 506 184 178 179 223 221 0 15
 506 376 0 178 507 0 17 184 506 187 181 182 504 238 0 17 178 506 181 187 176 237
 235 0 17 187 506 178 184 185 508 233 0 17 237 509 242 505 185 178 235 0 15 509
 385 0 79 510 0 17 242 509 85 237 173 511 240 0 17 505 509 237 79 176 229 227 0
 17 79 509 505 85 77 512 376 0 17 85 509 79 242 83 501 355 0 17 512 489 367 513
 83 79 376 0 15 489 407 0 513 486 0 17 367 489 514 512 71 515 365 0 17 513 489 5
12 514 77 361 359 0 17 514 489 513 367 68 73 374 0 17 361 468 354 229 68 513 359
 0 17 354 468 284 361 143 70 352 0 17 284 468 471 354 122 516 282 0 17 70 517 73
 145 68 354 352 0 15 517 393 0 73 518 0 17 73 517 139 70 71 514 374 0 17 145 517
 70 142 143 287 285 0 17 142 517 145 139 140 292 290 0 17 287 519 121 516 140 14
5 285 0 15 519 398 0 287 477 0 17 121 519 124 287 119 520 308 0 17 516 519 287 1
24 143 284 282 0 17 124 519 516 121 122 312 310 0 17 312 435 315 295 119 124 310
 0 17 315 435 298 312 116 521 313 0 17 295 435 312 307 122 471 293 0 17 298 435
 396 315 47 455 296 0 17 521 478 520 118 119 315 313 0 15 478 399 0 292 474 0 17
 520 478 292 521 140 121 308 0 17 118 478 521 292 116 457 288 0 17 292 478 118 5
20 137 142 290 0 17 457 454 266 455 137 118 288 0 17 266 454 515 457 71 139 264
 0 17 515 454 501 266 83 367 365 0 17 139 517 142 73 137 266 264 0 17 501 454 23
2 515 173 85 355 0 17 396 435 438 298 41 450 394 0 17 438 435 382 396 56 405 403
 0 14 477 -353 0 474 522 519 6 480 -14 522 -309 0 477 523 524 6 525 -50 480 580
 0 477 525 479 0 +.25 -.7 0 0 -1 0 0 0 -1 50 525 579 0 522 526 480 0 +-.2175 0 1
.271 1 0 0 0 0 -1 51 526 578 0 523 527 525 0 +.25 -.81 1.4 -1 0 0 .0495 0 0 1 14
 523 -293 0 522 518 528 6 526 -50 527 577 0 518 529 526 0 +.2175 0 1.271 -1 0 0
 0 0 1 14 518 -281 0 523 530 531 6 527 -51 529 576 0 530 532 527 0 +.25 -.81 1.4
 -1 0 0 .0495 0 0 1 14 530 -277 0 518 533 534 6 529 -50 532 575 0 533 535 529 0
 +0 -.41 1.136 0 0 -1 -1 0 0 14 533 -261 0 530 536 537 6 532 +51 535 574 0 536 5
38 532 0 +0 -.41 0 0 0 1 .126 1 0 0 14 536 -257 0 533 510 539 6 535 -50 538 573
 0 510 540 535 0 +.075 0 1.271 1 0 0 0 0 -1 14 510 -241 0 536 503 541 6 538 -50
 540 572 0 503 542 538 0 +-.075 0 1.271 -1 0 0 0 0 1 14 503 -237 0 510 543 544 6
 540 -50 542 571 0 543 545 540 0 +.03 -.735 1.121 0 0 -1 -1 0 0 14 543 -225 0 50
3 546 547 6 542 -51 545 570 0 546 548 542 0 +.03 -.735 1.121 0 0 1 .026 1 0 0 14
 546 -221 0 543 549 550 6 545 -50 548 569 0 549 551 545 0 +-.075 -.9 1.271 0 0 -
1 -1 0 0 14 549 -217 0 546 507 552 6 548 -51 551 568 0 507 553 548 0 +0 -.725 1.
271 0 0 1 .075 1 0 0 14 507 -201 0 549 554 506 6 551 -50 553 567 0 554 555 551 0
 +0 .48 .986 0 0 -1 -1 0 0 14 554 -189 0 507 556 557 6 553 -51 555 566 0 556 558
 553 0 +0 .48 .986 0 0 1 .0445 1 0 0 14 556 -185 0 554 559 560 6 555 -50 558 565
 0 559 561 555 0 +0 .48 1.141 0 0 -1 -1 0 0 14 559 -181 0 556 562 563 6 558 -51
 561 564 0 562 564 558 0 +0 -.41 1.136 0 0 1 .0445 1 0 0 14 562 -173 0 559 565 5
66 6 561 -50 564 563 0 565 567 561 0 +0 -.41 1.296 0 0 -1 -1 0 0 14 565 -169 0 5
62 16 568 6 564 -51 567 562 0 16 18 564 0 +0 .48 1.141 0 0 1 .126 1 0 0 14 16 -1
61 0 565 10 569 6 567 -51 18 561 0 10 0 567 0 +0 -.41 1.296 0 0 1 .126 1 0 0 15
 569 365 0 199 16 570 17 199 569 199 199 197 571 210 0 15 570 366 0 202 16 0 17
 202 570 202 202 200 209 207 0 17 209 441 209 209 200 202 207 0 15 441 415 0 209
 440 0 17 571 572 571 571 197 199 210 0 15 572 372 0 571 559 0 15 568 367 0 196
 565 206 17 196 568 196 196 194 573 214 0 15 206 368 0 204 565 0 17 573 574 573
 573 194 196 214 0 15 574 370 0 573 562 0 15 566 369 0 157 562 574 17 157 566 15
7 157 155 575 256 0 17 575 576 575 575 155 157 256 0 15 576 389 0 575 533 0 15 5
63 371 0 193 559 572 17 193 563 193 193 191 218 216 0 17 218 560 218 218 191 193
 216 0 15 560 373 0 218 556 577 15 577 374 0 190 556 0 17 190 577 190 190 188 57
8 219 0 17 578 557 578 578 188 190 219 0 15 557 375 0 578 554 0 15 552 377 0 169
 549 579 17 169 552 169 169 167 580 246 0 15 579 378 0 511 549 0 17 511 579 508
 175 185 242 240 0 17 508 579 172 511 182 187 233 0 17 175 579 511 172 173 232 2
30 0 17 172 579 175 508 170 245 243 0 17 580 581 580 580 167 169 246 0 15 581 38
0 0 580 546 0 15 550 379 0 166 546 581 17 166 550 166 166 164 582 248 0 17 582 5
47 582 582 164 166 248 0 15 547 381 0 582 543 0 15 544 382 0 160 503 502 17 160
 544 160 160 158 255 253 0 17 255 583 255 255 158 160 253 0 15 583 395 0 255 523
 0 15 541 384 0 163 510 509 17 163 541 163 163 161 252 250 0 17 252 584 252 252
 161 163 250 0 15 584 391 0 252 530 0 15 539 386 0 154 536 585 17 154 539 154 15
4 152 260 258 0 15 585 387 0 55 536 0 17 55 585 55 55 53 586 390 0 17 586 452 58
6 586 53 55 390 0 15 452 411 0 586 451 0 17 260 537 260 260 152 154 258 0 15 537
 388 0 260 533 576 15 534 390 0 151 530 584 17 151 534 151 151 149 263 261 0 17
 263 531 263 263 149 151 261 0 15 531 392 0 263 518 517 15 528 394 0 148 523 583
 17 148 528 148 148 146 272 270 0 17 272 524 272 272 146 148 270 0 15 524 396 0
 272 522 587 15 587 397 0 64 522 0 17 64 587 115 67 62 373 371 0 17 115 587 112
 64 113 269 267 0 17 67 587 64 109 65 459 357 0 17 109 587 67 112 107 329 327 0
 17 112 587 109 115 110 323 321 0 15 470 403 0 19 469 0 17 19 470 19 19 12 22 11
 0 17 22 205 22 22 12 19 11 0 15 205 364 0 22 10 0 74 20 9 1 0 2 0 0 0 0 0 0 0 0
 0 0 0 0 0 0 0 0 0 0 0 80 1 7 588 8017 589 0 0 0 0 0 0 0 0 TTTTTTTTTTTT3 84 7 8
 armop3079 13 589 SDL/TYSA_NAME1 0 
