104 741 0 0                             
body $-1 $1 $-1 $2 #
lump $-1 $-1 $3 $0 #
transform $-1 1 0 0 0 1 0 0 0 1 0 0 0 1 0 0 0 #
shell $-1 $-1 $-1 $4 $1 #
face $-1 $5 $6 $3 $-1 $7 0 #
face $-1 $8 $9 $3 $-1 $10 0 #
loop $-1 $-1 $11 $4 #
plane-surface $-1 0.3015 -2.5 0 1 0 0 0 0 -1 0 #
face $-1 $12 $13 $3 $-1 $10 0 #
loop $-1 $-1 $14 $5 #
plane-surface $-1 0.375 -0.0499999999999999 0.75 0 1 0 0 0 1 0 #
coedge $-1 $15 $16 $17 $18 0 $6 $-1 #
face $-1 $19 $20 $3 $-1 $21 1 #
loop $-1 $-1 $22 $8 #
coedge $-1 $23 $24 $25 $26 1 $9 $-1 #
coedge $-1 $27 $11 $28 $29 0 $6 $-1 #
coedge $-1 $11 $30 $31 $32 1 $6 $-1 #
coedge $-1 $33 $34 $11 $18 1 $35 $-1 #
edge $-1 $36 $37 $17 $38 1 #
face $-1 $39 $40 $3 $-1 $41 1 #
loop $-1 $-1 $42 $12 #
cone-surface $-1 0.079 -0.11 0.487 0 1 0 0.078 0 0 1 0 1 0 #
coedge $-1 $43 $44 $45 $46 1 $13 $-1 #
coedge $-1 $47 $14 $48 $49 1 $9 $-1 #
coedge $-1 $14 $47 $50 $51 1 $9 $-1 #
coedge $-1 $52 $53 $14 $26 0 $54 $-1 #
edge $-1 $55 $56 $14 $57 1 #
coedge $-1 $58 $15 $59 $60 0 $6 $-1 #
coedge $-1 $61 $62 $15 $29 1 $63 $-1 #
edge $-1 $37 $64 $28 $65 1 #
coedge $-1 $16 $66 $67 $68 0 $6 $-1 #
coedge $-1 $69 $70 $16 $32 0 $71 $-1 #
edge $-1 $36 $72 $16 $73 1 #
coedge $-1 $74 $17 $70 $75 1 $35 $-1 #
coedge $-1 $17 $76 $61 $77 0 $35 $-1 #
loop $-1 $-1 $76 $78 #
vertex $-1 $32 $79 #
vertex $-1 $18 $80 #
straight-curve $-1 0.3015 -0.357 0.537 0 -1 0 #
face $-1 $81 $82 $3 $-1 $83 0 #
loop $-1 $-1 $84 $19 #
plane-surface $-1 0.375 -0.11 0.409 0 0 -1 -1 0 0 0 #
coedge $-1 $85 $86 $87 $88 1 $20 $-1 #
coedge $-1 $89 $22 $90 $91 1 $13 $-1 #
coedge $-1 $22 $89 $92 $93 1 $13 $-1 #
coedge $-1 $94 $95 $22 $46 0 $96 $-1 #
edge $-1 $97 $98 $22 $99 1 #
coedge $-1 $24 $23 $100 $101 1 $9 $-1 #
coedge $-1 $102 $103 $23 $49 0 $104 $-1 #
edge $-1 $105 $55 $23 $106 1 #
coedge $-1 $107 $108 $24 $51 0 $6 $-1 #
edge $-1 $56 $109 $24 $110 1 #
coedge $-1 $111 $25 $108 $112 1 $54 $-1 #
coedge $-1 $25 $111 $102 $113 0 $54 $-1 #
loop $-1 $-1 $111 $114 #
vertex $-1 $113 $115 #
vertex $-1 $112 $116 #
straight-curve $-1 0.3015 -0.0499999999999999 0.634 -1 0 0 #
coedge $-1 $108 $27 $117 $118 0 $6 $-1 #
coedge $-1 $119 $120 $27 $60 1 $121 $-1 #
edge $-1 $64 $122 $59 $123 0 #
coedge $-1 $124 $28 $34 $77 1 $63 $-1 #
coedge $-1 $28 $125 $119 $126 1 $63 $-1 #
loop $-1 $-1 $61 $127 #
vertex $-1 $60 $128 #
straight-curve $-1 0.3015 -0.357 0.565 0 0 -1 #
coedge $-1 $30 $107 $129 $130 0 $6 $-1 #
coedge $-1 $131 $132 $30 $68 1 $133 $-1 #
edge $-1 $134 $72 $67 $135 0 #
coedge $-1 $136 $31 $132 $137 0 $71 $-1 #
coedge $-1 $31 $138 $33 $75 0 $71 $-1 #
loop $-1 $-1 $31 $139 #
vertex $-1 $32 $140 #
ellipse-curve $-1 0.3015 -0.343 0.494 1 0 0 0 0 0.125 1 #
coedge $-1 $76 $33 $141 $142 1 $35 $-1 #
edge $-1 $143 $36 $33 $144 1 #
coedge $-1 $34 $74 $145 $146 1 $35 $-1 #
edge $-1 $147 $37 $61 $148 1 #
face $-1 $127 $35 $3 $-1 $149 1 #
point $-1 0.3015 -0.46037120600897 0.537 #
point $-1 0.3015 -0.357 0.537 #
face $-1 $150 $151 $3 $-1 $152 0 #
loop $-1 $-1 $153 $39 #
plane-surface $-1 0.119 -0.11 0.116 0 0 1 1 0 0 0 #
coedge $-1 $154 $155 $156 $157 0 $40 $-1 #
coedge $-1 $158 $42 $125 $159 0 $20 $-1 #
coedge $-1 $42 $158 $160 $161 0 $20 $-1 #
coedge $-1 $120 $119 $42 $88 0 $121 $-1 #
edge $-1 $162 $163 $42 $164 1 #
coedge $-1 $44 $43 $153 $165 1 $13 $-1 #
coedge $-1 $166 $167 $43 $91 0 $151 $-1 #
edge $-1 $168 $97 $43 $169 1 #
coedge $-1 $170 $171 $44 $93 0 $172 $-1 #
edge $-1 $98 $173 $44 $174 1 #
coedge $-1 $175 $45 $171 $176 1 $96 $-1 #
coedge $-1 $45 $175 $166 $177 0 $96 $-1 #
loop $-1 $-1 $175 $178 #
vertex $-1 $177 $179 #
vertex $-1 $176 $180 #
straight-curve $-1 0.3015 -0.0499999999999999 0.0659999999999999 -1 0 0 #
coedge $-1 $181 $182 $47 $101 0 $183 $-1 #
edge $-1 $109 $105 $47 $184 1 #
coedge $-1 $185 $48 $53 $113 1 $104 $-1 #
coedge $-1 $48 $186 $181 $187 1 $104 $-1 #
loop $-1 $-1 $48 $188 #
vertex $-1 $187 $189 #
straight-curve $-1 0.119 -0.0499999999999999 0.634 0 0 1 #
coedge $-1 $66 $50 $182 $190 0 $6 $-1 #
coedge $-1 $50 $58 $52 $112 0 $6 $-1 #
vertex $-1 $190 $191 #
straight-curve $-1 0.3015 -0.0499999999999999 0.684 0 0 -1 #
coedge $-1 $53 $52 $192 $193 0 $54 $-1 #
edge $-1 $194 $56 $52 $195 0 #
edge $-1 $196 $55 $102 $197 0 #
face $-1 $198 $54 $3 $-1 $199 0 #
point $-1 0.119 -0.0499999999999999 0.634 #
point $-1 0.3015 -0.0499999999999999 0.634 #
coedge $-1 $200 $192 $58 $118 1 $201 $-1 #
edge $-1 $122 $194 $117 $202 1 #
coedge $-1 $87 $59 $62 $126 0 $121 $-1 #
coedge $-1 $59 $87 $200 $203 0 $121 $-1 #
loop $-1 $-1 $119 $204 #
vertex $-1 $60 $205 #
straight-curve $-1 0.3015 -0.357 0.565 0 1 0 #
coedge $-1 $206 $61 $207 $208 1 $63 $-1 #
coedge $-1 $62 $206 $85 $159 1 $63 $-1 #
edge $-1 $64 $162 $62 $209 1 #
face $-1 $204 $63 $3 $-1 $210 0 #
point $-1 0.3015 -0.357 0.565 #
coedge $-1 $211 $212 $66 $130 1 $213 $-1 #
edge $-1 $214 $134 $129 $215 1 #
coedge $-1 $216 $67 $212 $217 1 $133 $-1 #
coedge $-1 $67 $218 $69 $137 1 $133 $-1 #
loop $-1 $-1 $132 $219 #
vertex $-1 $130 $220 #
straight-curve $-1 0.3015 -0.328 0.619 0 -1 0 #
coedge $-1 $138 $69 $221 $222 0 $71 $-1 #
edge $-1 $72 $223 $132 $224 1 #
coedge $-1 $70 $136 $225 $226 0 $71 $-1 #
face $-1 $219 $71 $3 $-1 $227 0 #
point $-1 0.3015 -0.343 0.619 #
coedge $-1 $225 $228 $74 $142 0 $229 $-1 #
edge $-1 $230 $143 $74 $231 1 #
vertex $-1 $226 $232 #
intcurve-curve $-1 0 { exactcur nubs 3 open 7 
	0 3 0.166666666666667 2 0.333333333333333 2 0.5 2 0.666666666666667 2 
	0.833333333333333 2 1 3 
	0.3015 -0.46037120600897 0.537 
	0.297557622278669 -0.46037120600897 0.537 
	0.293566198770939 -0.46054460923031 0.536535983407828 
	0.28567010585716 -0.461227536156099 0.534599420962935 
	0.281765436451111 -0.461737059860548 0.533126875110214 
	0.274468007196614 -0.462938548808774 0.52926367419767 
	0.271075247348167 -0.463630514052552 0.526873019137848 
	0.265108253681767 -0.464963140677766 0.521528294462002 
	0.262534019863813 -0.465603802059203 0.51857422484598 
	0.2581405487669 -0.466710956553466 0.51219304873538 
	0.256321311487941 -0.467177449666292 0.508765942240803 
	0.253517224391264 -0.467821971389559 0.501578818081282 
	0.252532374573547 -0.468 0.497818800416339 
	0.251992424822054 -0.468 0.494000000000001 
	0 
	null_surface 
	null_surface 
	nullbs 
	nullbs 
	} #
coedge $-1 $233 $207 $76 $146 0 $172 $-1 #
edge $-1 $147 $230 $76 $234 0 #
vertex $-1 $146 $235 #
ellipse-curve $-1 0.3015 -0.357 0.487 0 -1 0 0 0 0.05 1 #
cone-surface $-1 0.3015 -0.357 0.487 0 -1 0 0.05 0 0 1 0 1 0 #
face $-1 $236 $183 $3 $-1 $237 0 #
loop $-1 $-1 $90 $81 #
plane-surface $-1 0.119 -0.11 0.0659999999999999 -1 0 0 0 0 1 0 #
coedge $-1 $238 $239 $89 $165 0 $82 $-1 #
coedge $-1 $240 $84 $158 $241 0 $40 $-1 #
coedge $-1 $84 $240 $242 $243 1 $40 $-1 #
coedge $-1 $244 $160 $84 $157 1 $201 $-1 #
edge $-1 $245 $246 $156 $247 0 #
coedge $-1 $86 $85 $154 $241 1 $20 $-1 #
edge $-1 $162 $248 $125 $249 1 #
coedge $-1 $156 $200 $86 $161 1 $201 $-1 #
edge $-1 $246 $163 $160 $250 0 #
vertex $-1 $88 $251 #
vertex $-1 $88 $252 #
straight-curve $-1 0.079 -0.11 0.565 0 -1 0 #
edge $-1 $173 $168 $89 $253 1 #
coedge $-1 $254 $90 $95 $177 1 $151 $-1 #
coedge $-1 $90 $255 $238 $256 1 $151 $-1 #
vertex $-1 $256 $257 #
straight-curve $-1 0.119 -0.0499999999999999 0.0659999999999999 0 0 1 #
coedge $-1 $258 $92 $239 $259 0 $172 $-1 #
coedge $-1 $92 $260 $94 $176 0 $172 $-1 #
loop $-1 $-1 $261 $198 #
vertex $-1 $259 $262 #
straight-curve $-1 0.3015 -0.0499999999999999 0.116 0 0 -1 #
coedge $-1 $95 $94 $263 $264 1 $96 $-1 #
edge $-1 $265 $98 $94 $266 0 #
edge $-1 $267 $97 $166 $268 0 #
face $-1 $269 $96 $3 $-1 $270 0 #
point $-1 0.119 -0.0499999999999999 0.0659999999999999 #
point $-1 0.3015 -0.0499999999999999 0.0659999999999999 #
coedge $-1 $271 $100 $103 $187 0 $183 $-1 #
coedge $-1 $100 $271 $107 $190 1 $183 $-1 #
loop $-1 $-1 $100 $150 #
straight-curve $-1 0.119 -0.0499999999999999 0.684 1 0 0 #
coedge $-1 $272 $102 $273 $274 0 $104 $-1 #
coedge $-1 $103 $272 $275 $276 1 $104 $-1 #
edge $-1 $105 $277 $103 $278 0 #
face $-1 $114 $104 $3 $-1 $279 0 #
point $-1 0.119 -0.0499999999999999 0.684 #
edge $-1 $109 $214 $182 $280 1 #
point $-1 0.3015 -0.0499999999999999 0.684 #
coedge $-1 $117 $273 $111 $193 1 $201 $-1 #
edge $-1 $194 $196 $192 $281 0 #
vertex $-1 $112 $282 #
straight-curve $-1 0.3015 -0.11 0.634 0 1 0 #
vertex $-1 $113 $283 #
straight-curve $-1 0.119 -0.11 0.634 0 1 0 #
face $-1 $78 $172 $3 $-1 $7 0 #
plane-surface $-1 0.375 -0.11 0.634 0 0 -1 -1 0 0 0 #
coedge $-1 $160 $117 $120 $203 1 $201 $-1 #
loop $-1 $284 $200 $285 #
straight-curve $-1 0.3015 -0.11 0.634 0 0 -1 #
edge $-1 $163 $122 $200 $286 0 #
face $-1 $285 $121 $3 $-1 $287 1 #
point $-1 0.3015 -0.11 0.565 #
coedge $-1 $125 $124 $240 $288 1 $63 $-1 #
coedge $-1 $145 $242 $124 $208 0 $172 $-1 #
edge $-1 $289 $147 $124 $290 1 #
straight-curve $-1 0.079 -0.357 0.565 1 0 0 #
plane-surface $-1 0.375 -0.357 0.75 0 1 0 0 0 1 0 #
coedge $-1 $275 $129 $271 $291 0 $213 $-1 #
coedge $-1 $129 $275 $131 $217 0 $213 $-1 #
loop $-1 $-1 $211 $236 #
vertex $-1 $130 $292 #
ellipse-curve $-1 0.3015 -0.328 0.879 1 0 0 0 0 -0.26 1 #
coedge $-1 $293 $131 $272 $294 0 $133 $-1 #
edge $-1 $295 $134 $131 $296 0 #
coedge $-1 $132 $297 $298 $299 1 $133 $-1 #
face $-1 $300 $133 $3 $-1 $301 0 #
point $-1 0.3015 -0.328 0.619 #
coedge $-1 $298 $302 $136 $222 1 $303 $-1 #
edge $-1 $223 $304 $221 $305 1 #
vertex $-1 $222 $306 #
straight-curve $-1 -0.061 -0.343 0.619 1 0 0 #
coedge $-1 $307 $141 $138 $226 1 $229 $-1 #
edge $-1 $304 $143 $225 $308 1 #
cone-surface $-1 0.3015 -0.343 0.494 1 0 0 0 -0.125 0 1 0 1 0 #
coedge $-1 $141 $309 $233 $310 0 $229 $-1 #
loop $-1 $-1 $225 $311 #
vertex $-1 $310 $312 #
ellipse-curve $-1 0.3015 -0.468 0.487 0 -1 0 -0.0495075751779462 0 0.00700000000000001 1 #
point $-1 0.251992424822054 -0.468 0.494 #
coedge $-1 $261 $145 $228 $310 1 $172 $-1 #
straight-curve $-1 0.3015 -0.357 0.437 0 -1 0 #
point $-1 0.3015 -0.357 0.437 #
face $-1 $311 $213 $3 $-1 $313 1 #
plane-surface $-1 0.119 -0.11 0.684 0 0 1 1 0 0 0 #
coedge $-1 $314 $153 $167 $256 0 $82 $-1 #
coedge $-1 $153 $314 $170 $259 1 $82 $-1 #
coedge $-1 $155 $154 $206 $288 0 $40 $-1 #
edge $-1 $246 $248 $158 $315 0 #
coedge $-1 $207 $258 $155 $243 0 $172 $-1 #
edge $-1 $245 $289 $155 $316 1 #
coedge $-1 $317 $156 $258 $318 1 $201 $-1 #
vertex $-1 $243 $319 #
vertex $-1 $241 $320 #
straight-curve $-1 0.3015 -0.11 0.409 -1 0 0 #
vertex $-1 $241 $321 #
ellipse-curve $-1 0.079 -0.357 0.487 0 1 -1.42336285208353e-15 0 -1.11022302462516e-16 -0.078 1 #
ellipse-curve $-1 0.079 -0.11 0.487 0 1 0 0 0 -0.078 1 #
point $-1 0.079 -0.357 0.565 #
point $-1 0.079 -0.11 0.565 #
straight-curve $-1 0.119 -0.0499999999999999 0.116 1 0 0 #
coedge $-1 $322 $166 $323 $324 1 $151 $-1 #
coedge $-1 $167 $322 $325 $326 0 $151 $-1 #
edge $-1 $168 $327 $167 $328 1 #
point $-1 0.119 -0.0499999999999999 0.116 #
coedge $-1 $242 $170 $244 $318 0 $172 $-1 #
edge $-1 $173 $329 $239 $330 1 #
coedge $-1 $171 $331 $332 $333 0 $172 $-1 #
coedge $-1 $331 $233 $334 $335 1 $172 $-1 #
point $-1 0.3015 -0.0499999999999999 0.116 #
coedge $-1 $332 $323 $175 $264 0 $336 $-1 #
edge $-1 $267 $265 $175 $337 0 #
vertex $-1 $333 $338 #
straight-curve $-1 0.3015 -0.156026164780801 0.0659999999999999 0 1 0 #
vertex $-1 $264 $339 #
straight-curve $-1 0.119 -0.156026164780801 0.0659999999999999 0 1 0 #
face $-1 $188 $340 $3 $-1 $10 0 #
plane-surface $-1 0.375 -0.11 0.0659999999999999 0 0 -1 -1 0 0 0 #
coedge $-1 $182 $181 $211 $291 1 $183 $-1 #
coedge $-1 $186 $185 $216 $294 1 $104 $-1 #
coedge $-1 $192 $341 $185 $274 1 $201 $-1 #
edge $-1 $196 $342 $273 $343 0 #
coedge $-1 $212 $211 $186 $276 0 $213 $-1 #
edge $-1 $277 $295 $186 $344 1 #
vertex $-1 $291 $345 #
straight-curve $-1 0.119 -0.0499999999999999 0.684 0 -1 -1.04712174293999e-15 #
plane-surface $-1 0.119 -0.11 0.634 -1 0 0 0 0 1 0 #
straight-curve $-1 0.3015 -0.156026164780802 0.684 0 1 0 #
straight-curve $-1 0.3015 -0.11 0.634 -1 0 0 #
point $-1 0.3015 -0.11 0.634 #
point $-1 0.119 -0.11 0.634 #
loop $-1 $-1 $346 $285 #
face $-1 $-1 $201 $3 $-1 $347 1 #
straight-curve $-1 0.079 -0.11 0.565 1 0 0 #
plane-surface $-1 0.079 -0.11 0.565 0 0 1 1 0 0 0 #
edge $-1 $248 $289 $206 $348 1 #
vertex $-1 $243 $349 #
straight-curve $-1 0.3015 -0.357 0.437 0 0 -1 #
edge $-1 $214 $277 $271 $350 1 #
point $-1 0.3015 -0.156026164780802 0.684 #
coedge $-1 $351 $216 $341 $352 0 $133 $-1 #
edge $-1 $295 $342 $272 $353 1 #
vertex $-1 $217 $354 #
straight-curve $-1 0.119 -0.328 0.619 1 0 0 #
coedge $-1 $218 $351 $355 $356 1 $133 $-1 #
coedge $-1 $357 $221 $218 $299 0 $303 $-1 #
edge $-1 $223 $358 $218 $359 0 #
face $-1 $360 $361 $3 $-1 $362 1 #
plane-surface $-1 -0.221 -0.87 0.619 0 0 1 1 0 0 0 #
coedge $-1 $221 $363 $307 $364 1 $303 $-1 #
loop $-1 $-1 $363 $365 #
vertex $-1 $226 $366 #
ellipse-curve $-1 -0.061 -0.343 0.494 -1 -4.44089209850063e-16 0 5.55111512312578e-17 -0.125 0 1 #
point $-1 -0.061 -0.343 0.619 #
coedge $-1 $309 $225 $302 $364 0 $229 $-1 #
straight-curve $-1 0.251992424822054 -0.468 0.494 -1 0 0 #
coedge $-1 $228 $307 $367 $368 1 $229 $-1 #
edge $-1 $369 $230 $233 $370 0 #
face $-1 $371 $229 $3 $-1 $372 1 #
point $-1 0.3015 -0.468 0.437 #
cone-surface $-1 -0.221 -0.328 0.879 1 0 0 0 0.26 0 1 0 1 0 #
coedge $-1 $239 $238 $317 $373 0 $82 $-1 #
straight-curve $-1 0.079 -0.11 0.409 0 -1 0 #
straight-curve $-1 0.3015 -0.357 0.409 0 1 0 #
coedge $-1 $325 $244 $314 $373 1 $201 $-1 #
edge $-1 $329 $245 $244 $374 1 #
point $-1 0.3015 -0.11 0.409 #
point $-1 0.079 -0.11 0.409 #
point $-1 0.079 -0.357 0.409 #
coedge $-1 $255 $254 $375 $376 1 $151 $-1 #
coedge $-1 $263 $377 $254 $324 0 $336 $-1 #
edge $-1 $378 $267 $254 $379 0 #
coedge $-1 $380 $317 $255 $326 1 $201 $-1 #
edge $-1 $381 $327 $325 $382 1 #
vertex $-1 $256 $383 #
straight-curve $-1 0.119 -0.11 0.116 0 1 0 #
vertex $-1 $259 $384 #
straight-curve $-1 0.3015 -0.11 0.116 0 1 0 #
coedge $-1 $260 $261 $385 $386 0 $172 $-1 #
coedge $-1 $377 $263 $260 $333 1 $336 $-1 #
edge $-1 $387 $265 $332 $388 0 #
coedge $-1 $367 $389 $261 $335 0 $390 $-1 #
edge $-1 $391 $369 $261 $392 1 #
loop $-1 $-1 $377 $393 #
straight-curve $-1 0.119 -0.156026164780801 0.066 1 0 0 #
point $-1 0.3015 -0.156026164780801 0.0659999999999999 #
point $-1 0.119 -0.156026164780801 0.066 #
loop $-1 $-1 $394 $269 #
coedge $-1 $273 $395 $293 $352 1 $201 $-1 #
vertex $-1 $294 $396 #
straight-curve $-1 0.119 -0.11 0.634 0 0 -1 #
ellipse-curve $-1 0.119 -0.328 0.879 1 0 -1.06752213906265e-16 -2.77555756156289e-17 0 -0.26 1 #
point $-1 0.119 -0.156026164780802 0.684 #
coedge $-1 $397 $398 $399 $400 1 $284 $-1 #
plane-surface $-1 0.375 -0.11 0.75 0 -1 0 0 0 -1 0 #
straight-curve $-1 0.3015 -0.357 0.409 -1 0 0 #
point $-1 0.3015 -0.357 0.409 #
straight-curve $-1 0.119 -0.156026164780802 0.684 1 0 0 #
coedge $-1 $297 $293 $401 $402 0 $133 $-1 #
edge $-1 $342 $403 $341 $404 1 #
straight-curve $-1 0.119 -0.11 0.619 0 -1 0 #
point $-1 0.119 -0.328 0.619 #
coedge $-1 $405 $406 $297 $356 0 $361 $-1 #
edge $-1 $358 $407 $297 $408 1 #
coedge $-1 $409 $298 $406 $410 0 $303 $-1 #
vertex $-1 $410 $411 #
straight-curve $-1 -0.0609999999999999 -0.343 0.619 0 -1 0 #
face $-1 $393 $412 $3 $-1 $413 1 #
loop $-1 $-1 $355 $300 #
plane-surface $-1 -0.221 -0.698 0.9252 0 1 0 0 0 1 0 #
coedge $-1 $302 $409 $414 $415 1 $303 $-1 #
edge $-1 $304 $416 $302 $417 1 #
face $-1 $139 $418 $3 $-1 $419 0 #
point $-1 -0.061 -0.468 0.494 #
coedge $-1 $414 $334 $309 $368 0 $390 $-1 #
edge $-1 $369 $416 $309 $420 0 #
vertex $-1 $368 $421 #
straight-curve $-1 0.3015 -0.468 0.256 0 0 1 #
face $-1 $422 $390 $3 $-1 $423 0 #
plane-surface $-1 0.3015 -0.468 0.256 0 1 0 0 0 1 0 #
edge $-1 $327 $329 $317 $424 0 #
straight-curve $-1 0.3015 -0.11 0.409 0 0 -1 #
coedge $-1 $425 $426 $322 $376 0 $412 $-1 #
edge $-1 $381 $378 $322 $427 0 #
coedge $-1 $323 $332 $425 $428 0 $336 $-1 #
vertex $-1 $428 $429 #
ellipse-curve $-1 0.119 -0.328 -0.129 -1 0 -1.06752213906265e-16 -2.77555756156289e-17 0 0.26 1 #
coedge $-1 $430 $325 $426 $431 1 $201 $-1 #
vertex $-1 $376 $432 #
straight-curve $-1 0.119 -0.11 0.116 0 0 1 #
point $-1 0.119 -0.11 0.116 #
point $-1 0.3015 -0.11 0.116 #
coedge $-1 $433 $425 $331 $386 1 $412 $-1 #
edge $-1 $391 $387 $385 $434 1 #
vertex $-1 $333 $435 #
ellipse-curve $-1 0.3015 -0.328 -0.129 -1 0 0 0 0 0.26 1 #
coedge $-1 $334 $414 $433 $436 0 $390 $-1 #
loop $-1 $-1 $334 $371 #
vertex $-1 $335 $437 #
ellipse-curve $-1 0.3015 -0.343 0.256 1 0 0 0 -0.125 0 1 #
face $-1 $178 $336 $3 $-1 $438 1 #
coedge $-1 $439 $440 $441 $442 1 $340 $-1 #
coedge $-1 $341 $443 $444 $445 1 $201 $-1 #
point $-1 0.119 -0.11 0.619 #
coedge $-1 $446 $346 $447 $448 1 $284 $-1 #
coedge $-1 $346 $446 $449 $450 1 $284 $-1 #
coedge $-1 $451 $452 $346 $400 0 $453 $-1 #
edge $-1 $454 $455 $346 $456 0 #
coedge $-1 $444 $457 $351 $402 1 $458 $-1 #
edge $-1 $403 $407 $401 $459 1 #
vertex $-1 $402 $460 #
straight-curve $-1 -0.221 -0.11 0.619 1 0 0 #
coedge $-1 $461 $355 $457 $462 0 $361 $-1 #
coedge $-1 $355 $461 $357 $410 1 $361 $-1 #
vertex $-1 $356 $463 #
straight-curve $-1 -0.221 -0.698 0.619 1 0 0 #
coedge $-1 $363 $357 $464 $465 0 $303 $-1 #
edge $-1 $358 $466 $406 $467 0 #
point $-1 -0.0609999999999999 -0.698 0.619 #
loop $-1 $-1 $468 $360 #
plane-surface $-1 -0.221 -0.87 0.131 0 0 1 1 0 0 0 #
coedge $-1 $389 $367 $363 $415 0 $390 $-1 #
edge $-1 $416 $469 $363 $470 1 #
vertex $-1 $368 $471 #
straight-curve $-1 -0.0609999999999999 -0.468 0.256 0 0 1 #
loop $-1 $303 $472 $365 #
plane-surface $-1 -0.0609999999999999 -2.5 0 1 0 0 0 0 -1 0 #
straight-curve $-1 0.3015 -0.468 0.256 -1 0 0 #
point $-1 0.3015 -0.468 0.256 #
face $-1 $473 $474 $3 $-1 $475 0 #
cone-surface $-1 0.3015 -0.343 0.256 1 0 0 0 -0.125 0 1 0 1 0 #
straight-curve $-1 0.119 -0.11 0.116 1 0 0 #
coedge $-1 $385 $375 $377 $428 1 $412 $-1 #
coedge $-1 $375 $476 $380 $431 0 $412 $-1 #
straight-curve $-1 0.119 -0.11 0.131 0 -1 0 #
edge $-1 $387 $378 $425 $477 1 #
point $-1 0.119 -0.328 0.131 #
coedge $-1 $478 $380 $479 $480 1 $201 $-1 #
edge $-1 $481 $381 $380 $482 0 #
point $-1 0.119 -0.11 0.131 #
coedge $-1 $464 $385 $389 $436 1 $412 $-1 #
straight-curve $-1 0.3015 -0.328 0.131 0 -1 0 #
point $-1 0.3015 -0.328 0.131 #
edge $-1 $469 $391 $433 $483 0 #
point $-1 0.3015 -0.343 0.131 #
cone-surface $-1 -0.221 -0.328 -0.129 -1 0 0 0 0.26 0 1 0 1 0 #
coedge $-1 $484 $394 $485 $486 1 $340 $-1 #
coedge $-1 $394 $484 $487 $488 1 $340 $-1 #
coedge $-1 $489 $490 $394 $442 0 $491 $-1 #
edge $-1 $492 $493 $394 $494 1 #
coedge $-1 $395 $495 $496 $497 1 $201 $-1 #
coedge $-1 $498 $401 $395 $445 0 $458 $-1 #
edge $-1 $403 $499 $395 $500 0 #
coedge $-1 $398 $397 $501 $502 1 $284 $-1 #
coedge $-1 $503 $504 $397 $448 0 $505 $-1 #
edge $-1 $506 $454 $397 $507 0 #
coedge $-1 $508 $509 $398 $450 0 $510 $-1 #
edge $-1 $455 $511 $398 $512 0 #
coedge $-1 $513 $399 $509 $514 0 $453 $-1 #
coedge $-1 $399 $513 $503 $515 0 $453 $-1 #
loop $-1 $-1 $451 $473 #
vertex $-1 $515 $516 #
vertex $-1 $514 $517 #
straight-curve $-1 0.116500000000001 -0.11 0.185 -1 0 0 #
coedge $-1 $401 $518 $405 $462 1 $458 $-1 #
loop $-1 $519 $401 $520 #
straight-curve $-1 -0.221 -0.698 0.619 0 1 0 #
point $-1 -0.221 -0.11 0.619 #
coedge $-1 $406 $405 $468 $521 0 $361 $-1 #
edge $-1 $407 $522 $457 $523 1 #
point $-1 -0.221 -0.698 0.619 #
coedge $-1 $468 $433 $409 $465 1 $412 $-1 #
edge $-1 $466 $469 $464 $524 1 #
vertex $-1 $410 $525 #
straight-curve $-1 -0.0609999999999999 -0.698 0.619 0 0 -1 #
coedge $-1 $476 $464 $461 $521 1 $412 $-1 #
vertex $-1 $415 $526 #
ellipse-curve $-1 -0.061 -0.343 0.256 -1 0 -4.44089209850063e-16 5.55111512312578e-17 0 -0.125 1 #
point $-1 -0.061 -0.468 0.256 #
coedge $-1 $472 $472 $527 $528 0 $418 $-1 #
face $-1 $529 $453 $3 $-1 $530 1 #
loop $-1 $-1 $531 $422 #
plane-surface $-1 0.375 -0.357 0.75 0 1 0 0 0 1 0 #
coedge $-1 $426 $468 $518 $532 0 $412 $-1 #
straight-curve $-1 0.119 -0.328 0.131 1 0 0 #
coedge $-1 $495 $430 $533 $534 1 $201 $-1 #
coedge $-1 $518 $535 $430 $480 0 $458 $-1 #
edge $-1 $536 $481 $430 $537 0 #
vertex $-1 $532 $538 #
straight-curve $-1 -0.221 -0.11 0.131 1 0 0 #
straight-curve $-1 -0.061 -0.343 0.131 1 0 0 #
coedge $-1 $440 $439 $539 $540 1 $340 $-1 #
coedge $-1 $541 $542 $439 $486 0 $543 $-1 #
edge $-1 $544 $492 $439 $545 1 #
coedge $-1 $535 $498 $440 $488 0 $458 $-1 #
edge $-1 $493 $546 $440 $547 1 #
coedge $-1 $496 $441 $498 $548 0 $491 $-1 #
coedge $-1 $441 $496 $541 $549 1 $491 $-1 #
loop $-1 $-1 $490 $550 #
vertex $-1 $549 $551 #
vertex $-1 $548 $552 #
straight-curve $-1 -0.221 -0.0499999999999999 0.465 1 0 0 #
coedge $-1 $443 $478 $553 $554 1 $201 $-1 #
coedge $-1 $490 $489 $443 $497 0 $491 $-1 #
edge $-1 $499 $555 $443 $556 0 #
coedge $-1 $487 $444 $489 $548 1 $458 $-1 #
vertex $-1 $548 $557 #
straight-curve $-1 -0.221 -0.11 0.619 0 0 -1 #
coedge $-1 $558 $559 $446 $502 0 $560 $-1 #
edge $-1 $511 $506 $446 $561 0 #
coedge $-1 $562 $447 $452 $515 1 $505 $-1 #
coedge $-1 $447 $562 $558 $563 0 $505 $-1 #
loop $-1 $-1 $503 $529 #
vertex $-1 $563 $564 #
ellipse-curve $-1 0.1165 -0.11 0.263 0 1 0 0 0 0.078 1 #
coedge $-1 $565 $449 $559 $566 1 $510 $-1 #
coedge $-1 $449 $565 $451 $514 1 $510 $-1 #
loop $-1 $-1 $508 $567 #
vertex $-1 $566 $568 #
ellipse-curve $-1 -0.00249999999999995 -0.11 0.263 0 1 0 0 0 -0.078 1 #
coedge $-1 $452 $451 $569 $570 0 $453 $-1 #
edge $-1 $455 $571 $509 $572 0 #
edge $-1 $573 $454 $503 $574 1 #
point $-1 0.1165 -0.11 0.185 #
point $-1 -0.00249999999999994 -0.11 0.185 #
coedge $-1 $457 $479 $476 $532 1 $458 $-1 #
loop $-1 $575 $576 $520 #
face $-1 $577 $458 $3 $-1 $578 0 #
edge $-1 $522 $466 $468 $579 0 #
vertex $-1 $521 $580 #
straight-curve $-1 -0.221 -0.698 0.131 0 0 1 #
straight-curve $-1 -0.0609999999999999 -0.343 0.131 0 -1 0 #
point $-1 -0.0609999999999999 -0.698 0.131 #
point $-1 -0.0609999999999999 -0.343 0.131 #
coedge $-1 $527 $527 $472 $528 1 $581 $-1 #
edge $-1 $582 $582 $527 $583 1 #
face $-1 $584 $505 $3 $-1 $585 1 #
plane-surface $-1 0.1165 -0.11 0.185 0 0 -1 -1 0 0 0 #
coedge $-1 $586 $587 $588 $589 1 $474 $-1 #
edge $-1 $522 $481 $518 $590 1 #
coedge $-1 $591 $592 $478 $534 0 $593 $-1 #
edge $-1 $594 $536 $478 $595 0 #
coedge $-1 $479 $487 $591 $596 1 $458 $-1 #
vertex $-1 $596 $597 #
straight-curve $-1 -0.221 -0.11 0.285 0 0 -1 #
point $-1 -0.221 -0.11 0.131 #
coedge $-1 $592 $591 $484 $540 0 $593 $-1 #
edge $-1 $546 $544 $484 $598 1 #
coedge $-1 $553 $485 $490 $549 0 $543 $-1 #
coedge $-1 $485 $553 $592 $599 1 $543 $-1 #
loop $-1 $-1 $542 $600 #
vertex $-1 $599 $601 #
straight-curve $-1 -0.171 -0.0499999999999999 0.465 0 0 -1 #
vertex $-1 $596 $602 #
straight-curve $-1 -0.221 -0.0499999999999999 0.285 0 0 1 #
edge $-1 $493 $499 $498 $603 1 #
edge $-1 $492 $555 $490 $604 1 #
face $-1 $520 $491 $3 $-1 $605 0 #
point $-1 -0.171 -0.0499999999999999 0.465 #
point $-1 -0.221 -0.0499999999999999 0.465 #
coedge $-1 $542 $541 $495 $554 0 $543 $-1 #
edge $-1 $555 $594 $495 $606 0 #
vertex $-1 $549 $607 #
straight-curve $-1 -0.221 -0.11 0.465 1 0 0 #
point $-1 -0.221 -0.11 0.465 #
coedge $-1 $588 $501 $504 $563 1 $560 $-1 #
coedge $-1 $501 $588 $508 $566 0 $560 $-1 #
loop $-1 $-1 $558 $584 #
straight-curve $-1 -0.00249999999999995 -0.11 0.341 1 0 0 #
coedge $-1 $504 $503 $586 $608 0 $505 $-1 #
edge $-1 $609 $506 $558 $610 1 #
point $-1 0.1165 -0.11 0.341 #
coedge $-1 $509 $508 $587 $611 0 $510 $-1 #
edge $-1 $612 $511 $508 $613 1 #
face $-1 $614 $615 $3 $-1 $616 1 #
point $-1 -0.00249999999999996 -0.11 0.341 #
coedge $-1 $587 $586 $513 $570 1 $474 $-1 #
edge $-1 $571 $573 $569 $617 1 #
vertex $-1 $514 $618 #
straight-curve $-1 -0.00249999999999994 -0.11 0.185 0 -1 0 #
vertex $-1 $515 $619 #
straight-curve $-1 0.1165 -0.11 0.185 0 -1 0 #
loop $-1 $-1 $620 $520 #
coedge $-1 $621 $622 $623 $624 1 $519 $-1 #
face $-1 $365 $625 $3 $-1 $626 1 #
plane-surface $-1 -0.221 -0.11 0.285 -1 0 0 0 0 1 0 #
straight-curve $-1 -0.221 -0.698 0.131 1 0 0 #
point $-1 -0.221 -0.698 0.131 #
loop $-1 $-1 $527 $577 #
vertex $-1 $528 $627 #
ellipse-curve $-1 -0.0609999999999999 -0.584 0.375 1 -4.78544407166015e-16 0 -2.77555756156289e-17 -0.0580000000000001 0 1 #
face $-1 $567 $560 $3 $-1 $628 1 #
cone-surface $-1 0.1165 -0.11 0.263 0 1 0 0.078 0 0 1 0 1 0 #
coedge $-1 $569 $531 $562 $608 1 $474 $-1 #
coedge $-1 $531 $569 $565 $611 1 $474 $-1 #
coedge $-1 $559 $558 $531 $589 0 $560 $-1 #
edge $-1 $609 $612 $531 $629 1 #
straight-curve $-1 -0.221 -0.11 0.131 0 -1 0 #
coedge $-1 $539 $533 $535 $596 0 $593 $-1 #
coedge $-1 $533 $539 $542 $599 0 $593 $-1 #
loop $-1 $-1 $591 $630 #
vertex $-1 $599 $631 #
straight-curve $-1 -0.171 -0.11 0.285 -1 0 0 #
edge $-1 $536 $546 $535 $632 0 #
point $-1 -0.221 -0.11 0.285 #
straight-curve $-1 -0.171 -0.0499999999999999 0.285 -1 0 0 #
edge $-1 $544 $594 $542 $633 1 #
face $-1 $550 $543 $3 $-1 $634 0 #
point $-1 -0.171 -0.0499999999999999 0.285 #
point $-1 -0.221 -0.0499999999999999 0.285 #
straight-curve $-1 -0.221 -0.11 0.465 0 1 0 #
straight-curve $-1 -0.171 -0.11 0.465 0 1 0 #
plane-surface $-1 -0.221 -0.11 0.465 0 0 1 1 0 0 0 #
straight-curve $-1 -0.171 -0.11 0.465 0 0 -1 #
point $-1 -0.171 -0.11 0.465 #
edge $-1 $573 $609 $586 $635 1 #
vertex $-1 $563 $636 #
straight-curve $-1 0.1165 -0.11 0.341 0 -1 0 #
edge $-1 $612 $571 $587 $637 1 #
vertex $-1 $566 $638 #
straight-curve $-1 -0.00249999999999996 -0.11 0.341 0 -1 0 #
face $-1 $639 $640 $3 $-1 $641 1 #
loop $-1 $510 $642 $567 #
cone-surface $-1 -0.00249999999999995 -0.11 0.263 0 1 0 0.078 0 0 1 0 1 0 #
straight-curve $-1 0.1165 -0.357 0.185 -1 0 0 #
point $-1 -0.00249999999999994 -0.357 0.185 #
point $-1 0.1165 -0.357 0.185 #
coedge $-1 $620 $620 $643 $644 1 $575 $-1 #
coedge $-1 $645 $576 $646 $647 1 $519 $-1 #
coedge $-1 $576 $645 $648 $649 1 $519 $-1 #
coedge $-1 $650 $651 $576 $624 0 $652 $-1 #
edge $-1 $653 $654 $576 $655 0 #
loop $-1 $581 $643 $577 #
cone-surface $-1 -0.221 -0.584 0.375 1 0 0 0 0.058 0 1 0 1 0 #
point $-1 -0.0609999999999999 -0.526 0.375 #
plane-surface $-1 -0.00249999999999995 -0.11 0.341 0 0 1 1 0 0 0 #
straight-curve $-1 -0.00249999999999995 -0.357 0.341 1 0 0 #
face $-1 $600 $593 $3 $-1 $656 0 #
point $-1 -0.171 -0.11 0.285 #
straight-curve $-1 -0.221 -0.11 0.285 0 1 0 #
straight-curve $-1 -0.171 -0.11 0.285 0 1 0 #
plane-surface $-1 -0.171 -0.11 0.465 1 0 0 0 0 -1 0 #
ellipse-curve $-1 0.1165 -0.357 0.263 0 1 1.42336285208353e-15 0 -1.11022302462516e-16 0.078 1 #
point $-1 0.1165 -0.357 0.341 #
ellipse-curve $-1 -0.00249999999999995 -0.357 0.263 0 1 -1.42336285208353e-15 0 -1.11022302462516e-16 -0.078 1 #
point $-1 -0.00249999999999996 -0.357 0.341 #
face $-1 $657 $658 $3 $-1 $659 0 #
loop $-1 $660 $661 $614 #
cone-surface $-1 -0.301 -0.276 0.263 1 0 0 0 0.0475 0 1 0 1 0 #
coedge $-1 $662 $662 $663 $664 1 $615 $-1 #
coedge $-1 $643 $643 $620 $644 0 $625 $-1 #
edge $-1 $665 $665 $620 $666 1 #
coedge $-1 $622 $621 $667 $668 1 $519 $-1 #
coedge $-1 $669 $670 $621 $647 0 $671 $-1 #
edge $-1 $672 $653 $621 $673 0 #
coedge $-1 $674 $675 $622 $649 0 $676 $-1 #
edge $-1 $654 $677 $622 $678 0 #
coedge $-1 $679 $623 $675 $680 0 $652 $-1 #
coedge $-1 $623 $679 $669 $681 0 $652 $-1 #
loop $-1 $-1 $650 $682 #
vertex $-1 $681 $683 #
vertex $-1 $680 $684 #
ellipse-curve $-1 -0.221 -0.2755 0.28 -1 0 0 0 0.1 -2.22044604925031e-16 1 #
plane-surface $-1 -0.171 -0.11 0.285 0 0 -1 -1 0 0 0 #
face $-1 $685 $671 $3 $-1 $686 0 #
loop $-1 $687 $688 $639 #
plane-surface $-1 -0.301 -0.11 0.285 -1 0 0 0 0 1 0 #
loop $-1 $-1 $689 $614 #
coedge $-1 $661 $661 $688 $690 0 $640 $-1 #
coedge $-1 $642 $642 $689 $691 1 $615 $-1 #
coedge $-1 $689 $689 $642 $664 0 $660 $-1 #
edge $-1 $692 $693 $642 $694 1 #
vertex $-1 $644 $695 #
ellipse-curve $-1 -0.221 -0.584 0.375 1 0 0 0 -0.0580000000000001 1.11022302462516e-16 1 #
coedge $-1 $696 $697 $645 $668 0 $698 $-1 #
edge $-1 $677 $672 $645 $699 0 #
coedge $-1 $700 $646 $651 $681 1 $671 $-1 #
coedge $-1 $646 $700 $696 $701 0 $671 $-1 #
loop $-1 $-1 $669 $657 #
vertex $-1 $701 $702 #
straight-curve $-1 -0.221 -0.1755 0.47 0 0 -1 #
coedge $-1 $703 $648 $697 $704 1 $676 $-1 #
coedge $-1 $648 $703 $650 $680 1 $676 $-1 #
loop $-1 $-1 $674 $705 #
vertex $-1 $704 $706 #
straight-curve $-1 -0.221 -0.3755 0.28 0 0 1 #
coedge $-1 $651 $650 $707 $708 0 $652 $-1 #
edge $-1 $654 $709 $675 $710 0 #
edge $-1 $711 $653 $669 $712 1 #
face $-1 $630 $652 $3 $-1 $713 0 #
point $-1 -0.221 -0.1755 0.28 #
point $-1 -0.221 -0.3755 0.28 #
face $-1 $705 $698 $3 $-1 $714 0 #
plane-surface $-1 -0.221 -0.1755 0.47 0 1 0 0 0 1 0 #
loop $-1 $-1 $715 $639 #
coedge $-1 $688 $688 $661 $690 1 $658 $-1 #
coedge $-1 $663 $663 $662 $691 0 $660 $-1 #
edge $-1 $716 $716 $688 $717 1 #
edge $-1 $693 $692 $662 $718 1 #
vertex $-1 $664 $719 #
vertex $-1 $691 $720 #
intcurve-curve $-1 0 { exactcur nubs 3 open 14 
	0 3 0.0769230769230769 2 0.153846153846154 2 0.230769230769231 2 0.307692307692308 2 
	0.384615384615385 2 0.461538461538462 2 0.538461538461539 2 0.615384615384615 2 0.692307692307692 2 
	0.769230769230769 2 0.846153846153846 2 0.923076923076923 2 1 3 
	-0.0805 -0.2285 0.263 
	-0.0805 -0.2285 0.259319084034866 
	-0.0802453548630725 -0.228914015700829 0.255639334484459 
	-0.0791781442300905 -0.230697580956672 0.248238664525037 
	-0.078365578734036 -0.232067130511686 0.244517744116021 
	-0.0762971959515702 -0.235742928719867 0.237470281679163 
	-0.0750413786651589 -0.238049177373033 0.23414373965132 
	-0.0723612226627477 -0.243470322735474 0.228157758521358 
	-0.0709368839467479 -0.246585219444749 0.225498319419238 
	-0.0683706154740928 -0.253189265711651 0.221144919058375 
	-0.0672286857174375 -0.256678415269278 0.219450957799632 
	-0.0654897070584956 -0.263683192652938 0.216972191693485 
	-0.0648926581562091 -0.267198820478971 0.216187386846081 
	-0.0642955918487178 -0.274231343226826 0.21540245183262 
	-0.0642955744435131 -0.277748238148648 0.215402321666563 
	-0.0648879956471101 -0.284766469667204 0.216181361313828 
	-0.0654804342559119 -0.288267806263938 0.216960531127149 
	-0.067209864459968 -0.295256983761542 0.219422575298875 
	-0.0683468560552223 -0.298744824662413 0.22110544965728 
	-0.0709181792521449 -0.305371388804114 0.225465964217123 
	-0.0723525108538133 -0.308510112044945 0.22814360441856 
	-0.0750383277187066 -0.313946618715043 0.234131603776252 
	-0.0762898129819316 -0.316244402144311 0.237441962932505 
	-0.0783615240372108 -0.319925204434411 0.244507187718327 
	-0.0791817498292649 -0.321308223295244 0.248262053347895 
	-0.0802509878106595 -0.323095621078038 0.255680531911519 
	-0.0805 -0.3235 0.259344144845574 
	-0.0805 -0.3235 0.263 
	0 
	null_surface 
	null_surface 
	nullbs 
	nullbs 
	} #
point $-1 -0.221 -0.642 0.375 #
coedge $-1 $721 $667 $670 $701 1 $698 $-1 #
coedge $-1 $667 $721 $674 $704 0 $698 $-1 #
loop $-1 $-1 $696 $685 #
ellipse-curve $-1 -0.221 -0.2755 0.47 -1 0 0 0 -0.1 -4.44089209850063e-16 1 #
coedge $-1 $670 $669 $722 $723 0 $671 $-1 #
edge $-1 $724 $672 $696 $725 1 #
point $-1 -0.221 -0.1755 0.47 #
coedge $-1 $675 $674 $726 $727 0 $676 $-1 #
edge $-1 $728 $677 $674 $729 1 #
face $-1 $682 $676 $3 $-1 $730 0 #
point $-1 -0.221 -0.3755 0.47 #
coedge $-1 $726 $722 $679 $708 1 $687 $-1 #
edge $-1 $709 $711 $707 $731 1 #
vertex $-1 $680 $732 #
straight-curve $-1 -0.221 -0.3755 0.28 -1 0 0 #
vertex $-1 $681 $733 #
straight-curve $-1 -0.221 -0.1755 0.28 -1 0 0 #
cone-surface $-1 -0.221 -0.2755 0.28 -1 0 0 0 0.1 0 1 0 1 0 #
cone-surface $-1 -0.221 -0.2755 0.47 -1 0 0 0 0.1 0 1 0 1 0 #
coedge $-1 $722 $726 $721 $734 1 $687 $-1 #
vertex $-1 $690 $735 #
ellipse-curve $-1 -0.301 -0.276 0.263 1 0 0 0 0.0475 0 1 #
intcurve-curve $-1 0 { exactcur nubs 3 open 14 
	0 3 0.0769230769230769 2 0.153846153846154 2 0.230769230769231 2 0.307692307692308 2 
	0.384615384615385 2 0.461538461538462 2 0.538461538461539 2 0.615384615384615 2 0.692307692307692 2 
	0.769230769230769 2 0.846153846153846 2 0.923076923076923 2 1 3 
	-0.0805 -0.3235 0.263 
	-0.0805 -0.3235 0.266685472046529 
	-0.0802448628095727 -0.323085214521358 0.270368972024609 
	-0.0791750977952683 -0.321297274258717 0.277777715465834 
	-0.0783604699713911 -0.319924119474718 0.281502958928978 
	-0.0762895824302822 -0.316243203066893 0.288552254340015 
	-0.0750333227130505 -0.313935441443068 0.291876306287908 
	-0.0723539854785981 -0.3085141542553 0.297856373444992 
	-0.0709309079613775 -0.305400628691359 0.300512388654184 
	-0.0683671592818872 -0.298800624792407 0.304860334209049 
	-0.0672264881196175 -0.295314146457397 0.306552264554724 
	-0.0654891319677873 -0.288313050925715 0.309028539112634 
	-0.0648924469782267 -0.284798433729043 0.30981288332487 
	-0.0642956294014325 -0.277769362393141 0.310597506384737 
	-0.0642954968141989 -0.27425490825391 0.310597785232368 
	-0.0648872522445956 -0.267240085139736 0.309819611661428 
	-0.0654791402622259 -0.263739716164793 0.309041159242857 
	-0.0672065027911354 -0.256754356742827 0.306582367568185 
	-0.0683419773024145 -0.253269366295805 0.304902028312083 
	-0.0709105781942273 -0.246646579931674 0.300547649740261 
	-0.0723437045747609 -0.243508784014565 0.297873610424541 
	-0.0750288963922634 -0.238071350136971 0.291891917048259 
	-0.0762809618292323 -0.235771712176486 0.288584262987696 
	-0.0783556755325677 -0.232084819622192 0.281516493911173 
	-0.0791783237989342 -0.230697565028383 0.277756378895213 
	-0.0802504860326503 -0.228905155217287 0.270328518523618 
	-0.0805 -0.2285 0.266660773167983 
	-0.0805 -0.2285 0.263 
	0 
	null_surface 
	null_surface 
	nullbs 
	nullbs 
	} #
point $-1 -0.0805 -0.3235 0.263 #
point $-1 -0.0804999999999999 -0.2285 0.263 #
coedge $-1 $697 $696 $715 $734 0 $698 $-1 #
coedge $-1 $707 $715 $700 $723 1 $687 $-1 #
edge $-1 $711 $724 $722 $736 1 #
vertex $-1 $701 $737 #
straight-curve $-1 -0.221 -0.1755 0.47 -1 0 0 #
coedge $-1 $715 $707 $703 $727 1 $687 $-1 #
edge $-1 $728 $709 $726 $738 1 #
vertex $-1 $704 $739 #
straight-curve $-1 -0.221 -0.3755 0.47 -1 0 0 #
plane-surface $-1 -0.221 -0.3755 0.28 0 -1 0 0 0 -1 0 #
ellipse-curve $-1 -0.301 -0.2755 0.28 -1 -5.55111512312578e-16 0 -5.55111512312578e-17 0.1 0 1 #
point $-1 -0.301 -0.3755 0.28 #
point $-1 -0.301 -0.1755 0.28 #
edge $-1 $724 $728 $715 $740 1 #
point $-1 -0.301 -0.2285 0.263 #
straight-curve $-1 -0.301 -0.1755 0.47 0 0 -1 #
point $-1 -0.301 -0.1755 0.47 #
straight-curve $-1 -0.301 -0.3755 0.28 0 0 1 #
point $-1 -0.301 -0.3755 0.47 #
ellipse-curve $-1 -0.301 -0.2755 0.47 -1 5.55111512312578e-16 0 -5.55111512312578e-17 -0.1 0 1 #
