700 0 2 0           
24 FBMach with ACIS - 7.0.3 13 ACIS 7.0.3 NT 24 Tue May 14 09:20:16 2002 
1 9.9999999999999995e-007 1e-010 
body $2 -1 $-1 $3 $-1 $4 #
bdycol-kcp $-1 -1 1 2 $5 $6 #
model_id-kcp-attrib $-1 -1 $-1 $-1 $0 1 1021382415 1021382415 -1088815103 1 #
lump $-1 -1 $-1 $-1 $7 $0 #
transform $-1 -1 1 0 0 0 1 0 0 0 1 0 0 0 1 rotate no_reflect no_shear #
body $8 -1 $-1 $9 $-1 $10 #
body $11 -1 $-1 $12 $-1 $13 #
shell $-1 -1 $-1 $-1 $-1 $14 $-1 $3 #
model_id-kcp-attrib $-1 -1 $-1 $-1 $5 1 1021382415 1021382415 -1087504382 1 #
lump $-1 -1 $-1 $-1 $15 $5 #
transform $-1 -1 1 0 0 0 1 0 0 0 1 20 -15 4.428090415820634 1 no_rotate no_reflect no_shear #
rgb_color-st-attrib $-1 -1 $16 $-1 $6 0.5 1 1 #
lump $-1 -1 $-1 $-1 $17 $6 #
transform $-1 -1 1 0 0 0 1 0 0 0 1 0 0 10 1 no_rotate no_reflect no_shear #
face $18 -1 $-1 $19 $20 $7 $-1 $21 forward single #
shell $-1 -1 $-1 $-1 $-1 $22 $-1 $9 #
model_id-kcp-attrib $-1 -1 $-1 $11 $6 1 1021382415 1021382415 -1079640061 1 #
shell $-1 -1 $-1 $-1 $-1 $23 $-1 $12 #
model_id-kcp-attrib $-1 -1 $-1 $-1 $14 1 1021382415 1021382415 -1088815103 2 #
face $24 -1 $-1 $25 $26 $7 $-1 $27 forward single #
loop $-1 -1 $-1 $-1 $28 $14 #
plane-surface $-1 -1 $-1 0 -59.5 0 0 -1 0 0 0 -1 forward_v I I I I #
face $-1 -1 $-1 $29 $30 $15 $-1 $31 forward single #
face $-1 -1 $-1 $32 $33 $17 $-1 $34 forward single #
model_id-kcp-attrib $-1 -1 $-1 $-1 $19 1 1021382415 1021382415 -1088815103 3 #
face $35 -1 $-1 $36 $37 $7 $-1 $38 forward single #
loop $-1 -1 $-1 $-1 $39 $19 #
plane-surface $-1 -1 $-1 0.5 -60 0 -1 0 0 0 0 1 forward_v I I I I #
coedge $-1 -1 $-1 $40 $41 $42 $43 reversed $20 $-1 #
face $44 -1 $-1 $45 $46 $15 $-1 $47 reversed single #
loop $-1 -1 $-1 $-1 $48 $22 #
plane-surface $-1 -1 $-1 0 0 54.428090415820634 0 0 1 1 0 0 forward_v I I I I #
face $-1 -1 $-1 $49 $50 $17 $-1 $51 forward single #
loop $-1 -1 $-1 $52 $53 $23 #
cone-surface $-1 -1 $-1 0 0 0 0 0 1 20 0 0 1 I I 0 1 20 forward I I I I #
model_id-kcp-attrib $-1 -1 $-1 $-1 $25 1 1021382415 1021382415 -1088815103 4 #
face $54 -1 $-1 $55 $56 $7 $-1 $57 forward single #
loop $-1 -1 $-1 $-1 $58 $25 #
plane-surface $-1 -1 $-1 0 -60.5 0 0 1 0 0 0 1 forward_v I I I I #
coedge $-1 -1 $-1 $59 $60 $61 $62 reversed $26 $-1 #
coedge $-1 -1 $-1 $63 $28 $64 $65 forward $20 $-1 #
coedge $-1 -1 $-1 $28 $63 $59 $66 reversed $20 $-1 #
coedge $-1 -1 $-1 $61 $67 $28 $43 forward $68 $-1 #
edge $-1 -1 $-1 $69 3.1131792811450447 $70 3.1700060260345415 $42 $71 forward @7 unknown #
model_id-kcp-attrib $-1 -1 $-1 $-1 $29 1 1021382415 1021382415 -1087504382 2 #
face $-1 -1 $-1 $72 $73 $15 $-1 $74 reversed single #
loop $-1 -1 $-1 $-1 $75 $29 #
plane-surface $-1 -1 $-1 0 0 -54.428090415820634 0 0 1 1 0 0 forward_v I I I I #
coedge $-1 -1 $-1 $76 $77 $78 $79 forward $30 $-1 #
face $-1 -1 $-1 $-1 $80 $17 $-1 $81 forward single #
loop $-1 -1 $-1 $-1 $82 $32 #
plane-surface $-1 -1 $-1 0 0 -10 0 0 -1 -1 0 0 forward_v I I I I #
loop $-1 -1 $-1 $-1 $83 $23 #
coedge $-1 -1 $-1 $53 $53 $82 $84 reversed $33 $-1 #
model_id-kcp-attrib $-1 -1 $-1 $-1 $36 1 1021382415 1021382415 -1088815103 5 #
face $85 -1 $-1 $86 $68 $7 $-1 $87 forward single #
loop $-1 -1 $-1 $-1 $88 $36 #
plane-surface $-1 -1 $-1 -0.5 -60 0 1 0 0 0 0 -1 forward_v I I I I #
coedge $-1 -1 $-1 $89 $90 $91 $92 reversed $37 $-1 #
coedge $-1 -1 $-1 $93 $39 $41 $66 forward $26 $-1 #
coedge $-1 -1 $-1 $39 $93 $89 $94 reversed $26 $-1 #
coedge $-1 -1 $-1 $91 $42 $39 $62 forward $68 $-1 #
edge $-1 -1 $-1 $70 0.49513280021576755 $95 0.55290797971682826 $61 $96 forward @7 unknown #
coedge $-1 -1 $-1 $41 $40 $97 $98 reversed $20 $-1 #
coedge $-1 -1 $-1 $88 $99 $40 $65 reversed $56 $-1 #
edge $-1 -1 $-1 $69 -17.592612085759182 $100 17.592612085759182 $40 $101 forward @7 unknown #
edge $-1 -1 $-1 $70 -17.592612085759182 $102 17.592612085759182 $59 $103 forward @7 unknown #
coedge $-1 -1 $-1 $42 $91 $88 $104 forward $68 $-1 #
loop $-1 -1 $-1 $105 $91 $55 #
vertex $-1 -1 $-1 $104 $106 #
vertex $-1 -1 $-1 $43 $107 #
ellipse-curve $-1 -1 $-1 0 -59.5 0 0 1 0 0 0 -17.599715906798043 1 I I #
face $108 -1 $-1 $109 $110 $15 $-1 $111 reversed single #
loop $-1 -1 $-1 $-1 $112 $45 #
plane-surface $-1 -1 $-1 0 -55 0 0 1 0 0 0 1 forward_v I I I I #
coedge $-1 -1 $-1 $113 $114 $115 $116 forward $46 $-1 #
coedge $-1 -1 $-1 $117 $48 $118 $119 forward $30 $-1 #
coedge $-1 -1 $-1 $48 $117 $120 $121 forward $30 $-1 #
coedge $-1 -1 $-1 $122 $123 $48 $79 reversed $124 $-1 #
edge $-1 -1 $-1 $125 -55 $126 55 $78 