106 0 1 0           
body $-1 $1 $-1 $-1 #
lump $-1 $-1 $2 $0 #
shell $-1 $-1 $-1 $3 $1 #
face $-1 $4 $5 $2 $-1 $6 forward single #
face $-1 $7 $8 $2 $-1 $9 forward single #
loop $-1 $-1 $10 $3 #
plane-surface $-1 0 -59.5 0 0 -1 0 0 0 -1 0 I I I I #
face $-1 $11 $12 $2 $-1 $13 forward single #
loop $-1 $-1 $14 $4 #
plane-surface $-1 0.5 -60 0 -1 0 0 0 0 1 0 I I I I #
coedge $-1 $15 $16 $17 $18 1 $5 $-1 #
face $-1 $19 $20 $2 $-1 $21 forward single #
loop $-1 $-1 $22 $7 #
plane-surface $-1 0 -60.5 0 0 1 0 0 0 1 0 I I I I #
coedge $-1 $23 $24 $25 $26 1 $8 $-1 #
coedge $-1 $27 $10 $28 $29 0 $5 $-1 #
coedge $-1 $10 $27 $23 $30 1 $5 $-1 #
coedge $-1 $25 $31 $10 $18 0 $32 $-1 #
edge $-1 $33 $34 $17 $35 0 #
face $-1 $36 $32 $2 $-1 $37 forward single #
loop $-1 $-1 $38 $11 #
plane-surface $-1 -0.5 -60 0 1 0 0 0 0 -1 0 I I I I #
coedge $-1 $39 $40 $41 $42 1 $12 $-1 #
coedge $-1 $43 $14 $16 $30 0 $8 $-1 #
coedge $-1 $14 $43 $39 $44 1 $8 $-1 #
coedge $-1 $41 $17 $14 $26 0 $32 $-1 #
edge $-1 $34 $45 $25 $46 0 #
coedge $-1 $16 $15 $47 $48 1 $5 $-1 #
coedge $-1 $38 $49 $15 $29 1 $20 $-1 #
edge $-1 $33 $50 $15 $51 0 #
edge $-1 $34 $52 $23 $53 0 #
coedge $-1 $17 $41 $38 $54 0 $32 $-1 #
loop $-1 $55 $41 $19 #
vertex $-1 $54 $56 #
vertex $-1 $18 $57 #
ellipse-curve $-1 0 -59.5 0 0 1 0 0 0 -17.599715906798043 1 I I #
face $-1 $58 $59 $2 $-1 $60 forward single #
sphere-surface $-1 0 -50 0 20 1 0 0 0 0 1 0 I I I I #
coedge $-1 $61 $28 $31 $54 1 $20 $-1 #
coedge $-1 $62 $22 $24 $44 0 $12 $-1 #
coedge $-1 $22 $62 $61 $63 1 $12 $-1 #
coedge $-1 $31 $25 $22 $42 0 $32 $-1 #
edge $-1 $45 $64 $41 $65 0 #
coedge $-1 $24 $23 $66 $67 1 $8 $-1 #
edge $-1 $45 $68 $24 $69 0 #
vertex $-1 $42 $70 #
ellipse-curve $-1 0.5 -50 0 1 0 0 0 0 19.993749023132207 1 I I #
coedge $-1 $71 $66 $27 $48 0 $55 $-1 #
edge $-1 $52 $50 $47 $35 0 #
coedge $-1 $28 $61 $71 $72 1 $20 $-1 #
vertex $-1 $72 $73 #
straight-curve $-1 -0.5 -59.5 0 0 0 -1 I I #
vertex $-1 $48 $74 #
straight-curve $-1 0.5 -59.5 0 0 0 -1 I I #
edge $-1 $64 $33 $31 $75 0 #
loop $-1 $76 $77 $19 #
point $-1 -0.5 -59.5 17.592612085759182 #
point $-1 0.5 -59.5 17.592612085759182 #
face $-1 $78 $79 $2 $-1 $80 forward single #
loop $-1 $81 $82 $36 #
cone-surface $-1 70 0 0 0 0 1 10 0 0 1 I I 0 1 0 I I I I #
coedge $-1 $49 $38 $40 $63 0 $20 $-1 #
coedge $-1 $40 $39 $77 $83 1 $12 $-1 #
edge $-1 $64 $84 $61 $85 0 #
vertex $-1 $42 $86 #
ellipse-curve $-1 0 -60.5 0 0 -1 0 0 0 17.022044530549202 1 I I #
coedge $-1 $47 $77 $43 $67 0 $55 $-1 #
edge $-1 $68 $52 $66 $46 0 #
vertex $-1 $83 $87 #
straight-curve $-1 0.5 -60.5 0 0 0 -1 I I #
point $-1 0.5 -60.5 17.014699527173555 #
coedge $-1 $77 $47 $49 $72 0 $55 $-1 #
edge $-1 $50 $84 $71 $75 0 #
point $-1 -0.5 -59.5 -17.592612085759182 #
point $-1 0.5 -59.5 -17.592612085759182 #
ellipse-curve $-1 -0.5 -50 0 -1 0 0 0 0 -19.993749023132207 1 I I #
loop $-1 $-1 $88 $19 #
coedge $-1 $66 $71 $62 $83 0 $55 $-1 #
face $-1 $89 $90 $2 $-1 $91 forward single #
loop $-1 $-1 $92 $58 #
plane-surface $-1 70 0 -50 0 0 -1 -1 0 0 0 I I I I #
loop $-1 $93 $94 $36 #
coedge $-1 $82 $82 $95 $96 1 $59 $-1 #
edge $-1 $84 $68 $77 $65 0 #
vertex $-1 $83 $97 #
straight-curve $-1 -0.5 -60.5 0 0 0 -1 I I #
point $-1 -0.5 -60.5 17.014699527173555 #
point $-1 0.5 -60.5 -17.014699527173555 #
coedge $-1 $88 $88 $98 $99 1 $76 $-1 #
face $-1 $100 $101 $2 $-1 $102 forward single #
loop $-1 $-1 $103 $78 #
plane-surface $-1 70 0 50 0 0 1 1 0 0 0 I I I I #
coedge $-1 $92 $92 $104 $105 0 $79 $-1 #
loop $-1 $106 $104 $36 #
coedge $-1 $94 $94 $107 $108 1 $81 $-1 #
coedge $-1 $95 $95 $82 $96 0 $109 $-1 #
edge $-1 $110 $110 $95 $111 0 #
point $-1 -0.5 -60.5 -17.014699527173555 #
coedge $-1 $98 $98 $88 $99 0 $112 $-1 #
edge $-1 $113 $113 $98 $114 0 #
face $-1 $115 $116 $2 $-1 $102 forward single #
loop $-1 $109 $117 $89 #
torus-surface $-1 50 0 0 0 -1 6.1232329394368592e-17 20 5 1 0 0 0 I I I I #
coedge $-1 $103 $103 $118 $119 0 $90 $-1 #
coedge $-1 $104 $104 $92 $105 1 $93 $-1 #
edge $-1 $120 $120 $92 $121 0 #
loop $-1 $-1 $118 $36 #
coedge $-1 $107 $107 $94 $108 0 $116 $-1 #
edge $-1 $122 $122 $107 $123 0 #
loop $-1 $-1 $95 $89 #
vertex $-1 $96 $124 #
intcurve-curve $-1 0 { surfintcur nubs 3 periodic 49 
	0 3 0.98140116041384506 2 1.9628023208276901 2 2.3429623137252542 2 2.7231223066228183 2 
	3.5687938211534513 2 4.4144653356840848 2 4.9856765102010261 2 5.5568876847179673 2 6.1282154883744786 2 
	6.6995432920309899 2 7.8421988993440115 2 8.6429601275174228 2 9.4437213556908333 2 10.244482583864244 2 
	11.045243812037654 2 11.76925912905868 2 12.493274446079706 2 13.21728976310073 2 13.941305080121756 2 
	14.3284586471319 2 14.715612214142045 2 15.589349200045007 2 16.026217692996489 2 16.463086185947969 2 
	16.899954678899448 2 17.336823171850931 2 18.210560157753893 2 18.597713724764034 2 18.984867291774179 2 
	19.708882608795204 2 20.432897925816228 2 21.156913242837255 2 21.88092855985828 2 22.68168978803169 2 
	23.482451016205104 2 24.283212244378515 2 25.083973472551925 2 26.226629079864949 2 26.797956883521458 2 
	27.36928468717797 2 27.940495861694906 2 28.511707036211845 2 29.357378550742482 2 30.203050065273118 2 
	30.583210058170678 2 30.963370051068242 2 31.944771211482092 2 32.926172371895937 3 
	60.000000000000007 7.2274960788647724e-17 11.180339887498951 
	60.000000000000007 -0.32713372013794823 11.180339887498951 
	60.017281337706322 -0.68393893296609298 11.210833231820958 
	60.089504309963786 -1.3800433179886533 11.343161727895785 
	60.144226362084332 -1.7193356079314872 11.445152791027246 
	60.229284501185973 -2.1323652873216337 11.612946694520536 
	60.257196954118726 -2.2568576384535524 11.66890350505167 
	60.31663891835241 -2.4996271234594358 11.791377166794678 
	60.348136232257161 -2.6179045022037037 11.85790915687747 
	60.443906373890783 -2.956341035144578 12.065878712044036 
	60.521865688868907 -3.1967403941632724 12.244028818483779 
	60.680867511373272 -3.6342742346252606 12.646181239065919 
	60.761444722684885 -3.8314681761314553 12.870302683659784 
	60.879335305506743 -4.1021509703536116 13.238941361480517 
	60.929851781533138 -4.2124060198415201 13.40936812817986 
	61.024117964430197 -4.4097046307122545 13.764940885500254 
	61.067760845683196 -4.4968209769193317 13.950074798381317 
	61.140245956418013 -4.6380013008365495 14.296279866126042 
	61.174429473561965 -4.7024755343764291 14.481607976208823 
	61.234396196773552 -4.8133316149595231 14.867578542003608 
	61.260162764588785 -4.8597306511466183 15.068218645401259 
	61.321379730723024 -4.9687522136558027 15.677356501694193 
	61.339745962155611 -4.9999999999999982 16.093645489323332 
	61.339745962155611 -5 16.741451101152144 
	61.331200611907533 -4.9852951135825627 17.019837292235046 
	61.296163621694973 -4.9238686517452814 17.583550659512838 
	61.269697234132607 -4.8771705098475806 17.868881958202785 
	61.201745109017395 -4.7534923162764908 18.431202884218187 
	61.160278205116924 -4.6764790492029169 18.7083423469197 
	61.067908492392334 -4.4975414402778551 19.240496765017294 
	61.017045275278434 -4.395595257908993 19.49551124775688 
	60.917985476097883 -4.1867716288608712 19.948177686884513 
	60.865866935964775 -4.0727354913922733 20.167612721398434 
	60.755538305851104 -3.8156898720403434 20.599578330487393 
	60.697355464208258 -3.6726609956289051 20.812104323004093 
	60.580423884818458 -3.3614312625285079 21.216525604370496 
	60.521676382330718 -3.1931147231980028 21.408520250022079 
	60.409483102874823 -2.8384125644244107 21.761003901502203 
	60.356075133015494 -2.6519918360103221 21.921469608872918 
	60.282076525684118 -2.3607050523523965 22.137952153935824 
	60.254711299553556 -2.2459009757780191 22.216704678970519 
	60.203085621805194 -2.0087786635302427 22.363055702489159 
	60.178858533827388 -1.8864294024561394 22.430615695715808 
	60.111951376736684 -1.5149010609994766 22.615384650793956 
	60.069853633089174 -1.2192405510110136 22.728240501037206 
	60.027770202453219 -0.76040879489529767 22.839922798712934 
	60.017129026297937 -0.60494458187713529 22.867922763179291 
	60.003243829929204 -0.29755150997862367 22.904399807054613 
	60 -0.14562283098382584 22.912878474779198 
	60 0.14562283098382683 22.912878474779198 
	60.003243829929204 0.2975515099786249 22.904399807054613 
	60.017129026297937 0.60494458187713684 22.867922763179291 
	60.027770202453212 0.76040879489529911 22.839922798712934 
	60.069853633089174 1.2192405510110154 22.728240501037206 
	60.111951376736684 1.5149010609994789 22.615384650793956 
	60.178858533827388 1.8864294024561405 22.430615695715808 
	60.203085621805194 2.0087786635302427 22.363055702489163 
	60.254711299553556 2.2459009757780168 22.216704678970522 
	60.282076525684118 2.3607050523523965 22.137952153935828 
	60.356075133015494 2.6519918360103212 21.921469608872922 
	60.409483102874823 2.8384125644244089 21.761003901502214 
	60.521676382330718 3.1931147231980046 21.408520250022086 
	60.580423884818458 3.3614312625285097 21.216525604370496 
	60.697355464208258 3.6726609956289078 20.812104323004096 
	60.755538305851104 3.8156898720403443 20.599578330487397 
	60.865866935964775 4.0727354913922742 20.167612721398438 
	60.917985476097883 4.1867716288608712 19.948177686884517 
	61.017045275278434 4.3955952579089939 19.495511247756887 
	61.067908492392334 4.4975414402778542 19.240496765017298 
	61.160278205116924 4.6764790492029169 18.7083423469197 
	61.201745109017395 4.7534923162764917 18.431202884218187 
	61.269697234132607 4.8771705098475806 17.868881958202778 
	61.296163621694973 4.9238686517452841 17.583550659512834 
	61.331200611907533 4.9852951135825645 17.019837292235046 
	61.339745962155611 5.0000000000000018 16.741451101152144 
	61.339745962155611 5 16.093645489323332 
	61.321379730723038 4.9687522136558053 15.67735650169419 
	61.260162764588799 4.8597306511466218 15.068218645401256 
	61.234396196773552 4.8133316149595249 14.867578542003606 
	61.174429473561965 4.7024755343764308 14.481607976208823 
	61.140245956418013 4.6380013008365513 14.29627986612604 
	61.067760845683196 4.4968209769193344 13.950074798381319 
	61.024117964430197 4.4097046307122563 13.764940885500254 
	60.929851781533138 4.2124060198415245 13.409368128179866 
	60.87933530550675 4.1021509703536161 13.238941361480521 
	60.761444722684899 3.8314681761314597 12.870302683659787 
	60.680867511373272 3.6342742346252654 12.646181239065927 
	60.521865688868907 3.1967403941632746 12.244028818483782 
	60.443906373890783 2.956341035144582 12.065878712044036 
	60.348136232257161 2.6179045022037082 11.857909156877472 
	60.316638918352403 2.4996271234594416 11.791377166794682 
	60.257196954118719 2.2568576384535604 11.668903505051675 
	60.22928450118598 2.1323652873216403 11.612946694520538 
	60.144226362084339 1.7193356079314923 11.445152791027246 
	60.089504309963786 1.3800433179886566 11.343161727895787 
	60.017281337706322 0.68393893296609432 11.210833231820958 
	60.000000000000007 0.32713372013794911 11.180339887498951 
	60.000000000000007 7.2274960788647724e-17 11.180339887498951 
	0.001 
	cone 70 0 0 0 0 1 10 0 0 1 I I 0 1 0 I I I I 
	torus 50 0 0 0 -1 6.1232329394368592e-17 20 5 1 0 0 0 I I I I 
	nullbs 
	nullbs 
	} I I #
loop $-1 $125 $98 $126 #
vertex $-1 $99 $127 #
ellipse-curve $-1 0 -40 0 0 1 0 0 0 17.320508075688775 1 I I #
face $-1 $128 $129 $2 $-1 $130 forward single #
loop $-1 $131 $107 $100 #
coedge $-1 $117 $117 $132 $133 1 $101 $-1 #
coedge $-1 $118 $118 $103 $119 1 $106 $-1 #
edge $-1 $134 $134 $103 $135 0 #
vertex $-1 $105 $136 #
ellipse-curve $-1 70 0 -50 0 0 -1 10 0 0 1 I I #
vertex $-1 $108 $137 #
intcurve-curve $-1 0 { surfintcur nubs 3 periodic 49 
	0 3 0.98140116041384529 2 1.9628023208276906 2 2.3429623137252547 2 2.7231223066228187 2 
	3.5687938211534518 2 4.4144653356840848 2 4.9856765102010261 2 5.5568876847179673 2 6.1282154883744786 2 
	6.6995432920309899 2 7.8421988993440115 2 8.6429601275174228 2 9.4437213556908333 2 10.244482583864244 2 
	11.045243812037654 2 11.76925912905868 2 12.493274446079706 2 13.21728976310073 2 13.941305080121756 2 
	14.3284586471319 2 14.715612214142045 2 15.589349200045007 2 16.026217692996489 2 16.463086185947969 2 
	16.899954678899448 2 17.336823171850931 2 18.210560157753889 2 18.597713724764034 2 18.984867291774176 2 
	19.7088826087952 2 20.432897925816228 2 21.156913242837252 2 21.880928559858276 2 22.681689788031687 2 
	23.482451016205097 2 24.283212244378511 2 25.083973472551921 2 26.226629079864942 2 26.797956883521454 2 
	27.369284687177966 2 27.940495861694906 2 28.511707036211842 2 29.357378550742478 2 30.203050065273114 2 
	30.583210058170675 2 30.963370051068235 2 31.944771211482085 2 32.92617237189593 3 
	60.000000000000007 -1.2969215486760195e-15 -11.180339887498951 
	60.000000000000007 0.32713372013794711 -11.180339887498951 
	60.017281337706322 0.68393893296609209 -11.210833231820958 
	60.089504309963786 1.3800433179886529 -11.343161727895785 
	60.144226362084332 1.719335607931487 -11.445152791027246 
	60.229284501185973 2.1323652873216337 -11.612946694520536 
	60.257196954118726 2.2568576384535524 -11.66890350505167 
	60.31663891835241 2.4996271234594358 -11.791377166794678 
	60.348136232257161 2.6179045022037037 -11.85790915687747 
	60.443906373890783 2.956341035144578 -12.065878712044036 
	60.521865688868907 3.1967403941632733 -12.24402881848378 
	60.680867511373272 3.634274234625261 -12.646181239065921 
	60.761444722684885 3.8314681761314553 -12.870302683659784 
	60.879335305506743 4.1021509703536116 -13.238941361480517 
	60.929851781533138 4.2124060198415201 -13.40936812817986 
	61.024117964430197 4.4097046307122545 -13.764940885500254 
	61.067760845683196 4.4968209769193317 -13.950074798381317 
	61.140245956418013 4.6380013008365495 -14.296279866126042 
	61.174429473561965 4.7024755343764291 -14.481607976208823 
	61.234396196773552 4.8133316149595231 -14.867578542003608 
	61.260162764588785 4.8597306511466183 -15.068218645401259 
	61.321379730723024 4.9687522136558027 -15.677356501694193 
	61.339745962155611 4.9999999999999982 -16.093645489323332 
	61.339745962155611 5 -16.741451101152144 
	61.331200611907533 4.9852951135825627 -17.019837292235046 
	61.296163621694973 4.9238686517452814 -17.583550659512838 
	61.269697234132607 4.8771705098475806 -17.868881958202785 
	61.201745109017395 4.7534923162764908 -18.431202884218187 
	61.160278205116924 4.6764790492029169 -18.7083423469197 
	61.067908492392334 4.4975414402778551 -19.240496765017294 
	61.017045275278434 4.395595257908993 -19.49551124775688 
	60.917985476097883 4.1867716288608712 -19.948177686884513 
	60.865866935964775 4.0727354913922733 -20.167612721398434 
	60.755538305851104 3.8156898720403434 -20.599578330487393 
	60.697355464208258 3.6726609956289051 -20.812104323004093 
	60.580423884818458 3.3614312625285079 -21.216525604370496 
	60.521676382330718 3.1931147231980028 -21.408520250022079 
	60.409483102874823 2.8384125644244103 -21.761003901502203 
	60.356075133015494 2.6519918360103216 -21.921469608872918 
	60.282076525684118 2.360705052352396 -22.137952153935824 
	60.254711299553556 2.2459009757780182 -22.216704678970519 
	60.203085621805194 2.0087786635302418 -22.363055702489159 
	60.178858533827388 1.8864294024561392 -22.430615695715808 
	60.111951376736684 1.5149010609994766 -22.615384650793956 
	60.069853633089174 1.2192405510110134 -22.728240501037206 
	60.027770202453219 0.76040879489529667 -22.839922798712934 
	60.017129026297937 0.60494458187713407 -22.867922763179291 
	60.003243829929204 0.29755150997862201 -22.904399807054613 
	60 0.14562283098382406 -22.912878474779198 
	60 -0.1456228309838288 -22.912878474779198 
	60.003243829929204 -0.29755150997862689 -22.904399807054613 
	60.017129026297937 -0.60494458187713906 -22.867922763179291 
	60.027770202453212 -0.76040879489530178 -22.839922798712934 
	60.069853633089174 -1.2192405510110171 -22.728240501037206 
	60.111951376736684 -1.5149010609994795 -22.615384650793956 
	60.178858533827395 -1.8864294024561419 -22.430615695715808 
	60.203085621805194 -2.0087786635302423 -22.363055702489159 
	60.254711299553556 -2.2459009757780182 -22.216704678970519 
	60.282076525684118 -2.3607050523523974 -22.137952153935828 
	60.356075133015494 -2.6519918360103221 -21.921469608872918 
	60.409483102874823 -2.8384125644244138 -21.761003901502214 
	60.521676382330718 -3.1931147231980068 -21.408520250022086 
	60.580423884818458 -3.3614312625285114 -21.216525604370492 
	60.697355464208258 -3.6726609956289078 -20.812104323004093 
	60.755538305851104 -3.8156898720403452 -20.599578330487393 
	60.865866935964775 -4.0727354913922742 -20.167612721398438 
	60.917985476097883 -4.1867716288608712 -19.948177686884517 
	61.017045275278434 -4.3955952579089939 -19.495511247756887 
	61.067908492392334 -4.4975414402778542 -19.240496765017298 
	61.160278205116924 -4.6764790492029169 -18.7083423469197 
	61.201745109017395 -4.7534923162764926 -18.431202884218187 
	61.269697234132607 -4.8771705098475824 -17.868881958202781 
	61.296163621694973 -4.9238686517452832 -17.583550659512841 
	61.331200611907533 -4.9852951135825654 -17.019837292235049 
	61.339745962155611 -5.0000000000000018 -16.741451101152144 
	61.339745962155611 -5 -16.093645489323332 
	61.321379730723038 -4.9687522136558062 -15.677356501694195 
	61.260162764588799 -4.8597306511466218 -15.068218645401261 
	61.234396196773552 -4.8133316149595249 -14.867578542003608 
	61.174429473561965 -4.7024755343764308 -14.481607976208823 
	61.140245956418013 -4.6380013008365513 -14.296279866126042 
	61.067760845683196 -4.4968209769193335 -13.950074798381317 
	61.024117964430197 -4.4097046307122554 -13.764940885500252 
	60.929851781533138 -4.2124060198415219 -13.409368128179862 
	60.87933530550675 -4.1021509703536152 -13.238941361480521 
	60.761444722684899 -3.8314681761314597 -12.870302683659787 
	60.680867511373272 -3.6342742346252632 -12.646181239065932 
	60.521865688868907 -3.1967403941632719 -12.244028818483788 
	60.443906373890783 -2.9563410351445807 -12.065878712044036 
	60.348136232257161 -2.6179045022037055 -11.857909156877472 
	60.31663891835241 -2.4996271234594398 -11.791377166794684 
	60.257196954118726 -2.256857638453559 -11.668903505051677 
	60.22928450118598 -2.1323652873216394 -11.612946694520538 
	60.144226362084339 -1.7193356079314925 -11.445152791027246 
	60.089504309963786 -1.3800433179886569 -11.343161727895787 
	60.017281337706322 -0.68393893296609498 -11.210833231820958 
	60.000000000000007 -0.32713372013795006 -11.180339887498951 
	60.000000000000007 -1.2969215486760195e-15 -11.180339887498951 
	0.001 
	cone 70 0 0 0 0 1 10 0 0 1 I I 0 1 0 I I I I 
	torus 50 0 0 0 -1 6.1232329394368592e-17 20 5 1 0 0 0 I I I I 
	nullbs 
	nullbs 
	} I I #
point $-1 60 7.2274960788647724e-17 11.180339887498945 #
loop $-1 $-1 $138 $126 #
face $-1 $139 $112 $2 $-1 $140 reversed single #
point $-1 1.2094846181701132e-13 -40 -17.320508075688775 #
face $-1 $141 $142 $2 $-1 $143 forward single #
loop $-1 $-1 $144 $115 #
plane-surface $-1 0 20 40 0 -1 0 0 0 -1 0 I I I I #
loop $-1 $-1 $145 $100 #
coedge $-1 $132 $132 $117 $133 0 $146 $-1 #
edge $-1 $147 $147 $132 $148 0 #
vertex $-1 $119 $149 #
ellipse-curve $-1 70 0 50 0 0 1 10 0 0 1 I I #
point $-1 80 0 -50 #
point $-1 60 -1.2969215486760195e-15 -11.180339887498945 #
coedge $-1 $150 $151 $152 $153 0 $125 $-1 #
face $-1 $154 $155 $2 $-1 $156 reversed single #
plane-surface $-1 0 -40 0 0 1 0 0 0 1 0 I I I I #
face $-1 $157 $158 $2 $-1 $159 forward single #
loop $-1 $-1 $160 $128 #
plane-surface $-1 20 0 40 -1 0 0 0 0 1 0 I I I I #
coedge $-1 $161 $162 $163 $164 1 $129 $-1 #
coedge $-1 $145 $145 $165 $166 1 $131 $-1 #
loop $-1 $167 $132 $168 #
vertex $-1 $133 $169 #
intcurve-curve $-1 0 { surfintcur nubs 3 periodic 35 
	0 3 0.89530041387567172 2 1.7906008277513434 2 2.7271082509051157 2 3.6636156740588874 2 
	4.6667112024506698 2 5.6698067308424527 2 6.7674655552640575 2 7.8651243796856622 2 9.0073147801760562 2 
	10.149505180666448 2 11.266687372252903 2 12.383869563839358 2 13.380669751200905 2 14.37746993856245 2 
	15.23319068387918 2 15.661051056537545 2 16.08891142919591 2 16.516771801854276 2 16.944632174512641 2 
	17.800352919829372 2 18.797153107190915 2 19.793953294552455 2 20.91113548613891 2 22.028317677725362 2 
	23.170508078215754 2 24.31269847870615 2 25.410357303127753 2 26.508016127549361 2 27.511111655941146 2 
	28.514207184332932 2 29.450714607486706 2 30.38722203064048 2 31.282522444516182 2 32.177822858391885 3 
	40 1.4030089221408177e-15 22.912878474779198 
	40 0.29843347129189202 22.912878474779198 
	40 0.62407896066062118 22.881764221854187 
	40 1.2605670918085419 22.748402285376937 
	40 1.5714203135972149 22.646205101361339 
	40 2.131460880399306 22.402914917144489 
	40 2.4306637264947732 22.236986386127388 
	40 2.9861122092774388 21.843934719528793 
	40 3.2424436231192 21.616932815602365 
	40 3.6868994948729839 21.147395169233739 
	40 3.9126179812875077 20.858647783640734 
	40 4.2991304496396436 20.240117824269134 
	40 4.4601087901256689 19.910450473193357 
	40 4.7141819065862087 19.257917756747261 
	40 4.8251722527264853 18.872423966598348 
	40 4.9679654792796457 18.08664120770116 
	40 4.9999999999999973 17.686394350496037 
	40 5.0000000000000044 16.939777942192038 
	40 4.9652813843929087 16.523554082067065 
	40 4.8181020468188072 15.704936111828403 
	40 4.7057563785590721 15.302521320380107 
	40 4.4465265961464464 14.595417384202502 
	40 4.2766367471581423 14.22368024250386 
	40 3.8698984896301303 13.519347631209207 
	40 3.6328912217764522 13.18684391169421 
	40 3.1744501651694663 12.651700350783653 
	40 2.9160277789982811 12.39436268185011 
	40 2.351149798101396 11.941303554162205 
	40 2.0443365294279268 11.746028226753712 
	40 1.49028147784191 11.473378511649162 
	40 1.197909210188999 11.362218209345118 
	40 0.74605488975482226 11.252180213282276 
	40 0.59325092907263055 11.224594771685931 
	40 0.2915334443636991 11.188675465077237 
	40 0.14262012421949083 11.180339887498951 
	40 -0.14262012421941944 11.180339887498947 
	40 -0.29153344436362699 11.188675465077234 
	40 -0.59325092907255872 11.22459477168592 
	40 -0.74605488975475076 11.252180213282262 
	40 -1.1979092101889295 11.362218209345096 
	40 -1.4902814778418434 11.473378511649134 
	40 -2.0443365294278637 11.746028226753676 
	40 -2.3511497981013334 11.941303554162168 
	40 -2.9160277789982212 12.394362681850062 
	40 -3.1744501651694099 12.651700350783594 
	40 -3.6328912217764016 13.186843911694144 
	40 -3.8698984896300854 13.519347631209138 
	40 -4.276636747158105 14.223680242503784 
	40 -4.4465265961464118 14.595417384202424 
	40 -4.7057563785590446 15.302521320380025 
	40 -4.8181020468187841 15.704936111828316 
	40 -4.9652813843928962 16.52355408206698 
	40 -4.9999999999999982 16.939777942191952 
	40 -5 17.686394350495959 
	40 -4.9679654792796528 18.086641207701081 
	40 -4.8251722527265031 18.872423966598269 
	40 -4.7141819065862318 19.257917756747187 
	40 -4.4601087901256991 19.910450473193286 
	40 -4.2991304496396765 20.240117824269067 
	40 -3.9126179812875477 20.858647783640674 
	40 -3.6868994948730274 21.147395169233683 
	40 -3.2424436231192484 21.616932815602315 
	39.999999999999993 -2.9861122092774899 21.843934719528747 
	39.999999999999993 -2.4306637264948279 22.236986386127349 
	40 -2.1314608803993638 22.402914917144461 
	40 -1.5714203135972655 22.646205101361325 
	40.000000000000007 -1.2605670918085816 22.748402285376926 
	40.000000000000007 -0.62407896066063984 22.881764221854183 
	40 -0.29843347129189962 22.912878474779198 
	40 1.4030089221408177e-15 22.912878474779198 
	0.001 
	torus 50 0 0 0 -1 6.1232329394368592e-17 20 5 1 0 0 0 I I I I 
	plane 40 0 0 1 0 0 0 0 1 1 I I I I 
	nullbs 
	nullbs 
	} I I #
point $-1 80 0 50 #
coedge $-1 $170 $138 $171 $172 1 $125 $-1 #
coedge $-1 $138 $170 $173 $174 1 $125 $-1 #
coedge $-1 $175 $176 $138 $153 1 $155 $-1 #
edge $-1 $177 $178 $152 $179 0 #
face $-1 $168 $180 $2 $-1 $181 reversed single #
loop $-1 $-1 $182 $139 #
plane-surface $-1 -40 0 0 1 0 0 0 0 -1 0 I I I I #
face $-1 $183 $184 $2 $-1 $185 forward single #
loop $-1 $-1 $186 $141 #
plane-surface $-1 -20 0 40 1 0 0 0 0 -1 0 I I I I #
coedge $-1 $187 $188 $189 $190 1 $142 $-1 #
coedge $-1 $191 $144 $192 $193 0 $129 $-1 #
coedge $-1 $144 $194 $195 $196 1 $129 $-1 #
coedge $-1 $195 $197 $144 $164 0 $198 $199 #
edge $-1 $200 $201 $163 $202 0 #
coedge $-1 $165 $165 $145 $166 0 $167 $-1 #
edge $-1 $203 $203 $165 $204 0 #
loop $-1 $205 $165 $168 #
face $-1 $-1 $146 $2 $-1 $206 reversed single #
point $-1 40 1.4030089221408177e-15 22.912878474779205 #
coedge $-1 $151 $150 $207 $208 1 $125 $-1 #
coedge $-1 $209 $210 $150 $172 0 $211 $-1 #
edge $-1 $212 $178 $150 $213 0 #
coedge $-1 $214 $215 $151 $174 0 $216 $217 #
edge $-1 $177 $218 $151 $219 0 #
coedge $-1 $182 $152 $215 $220 1 $155 $-1 #
coedge $-1 $152 $182 $209 $221 1 $155 $-1 #
vertex $-1 $220 $222 #
vertex $-1 $221 $223 #
straight-curve $-1 -40 -40 0 0 0 -1 I I #
loop $-1 $-1 $224 $154 #
plane-surface $-1 0 40 0 0 -1 0 0 0 -1 0 I I I I #
coedge $-1 $176 $175 $225 $226 0 $155 $-1 #
face $-1 $227 $228 $2 $-1 $229 forward single #
loop $-1 $-1 $230 $157 #
plane-surface $-1 0 -20 40 0 1 0 0 0 1 0 I I I I #
coedge $-1 $231 $232 $233 $234 1 $158 $-1 #
coedge $-1 $235 $160 $194 $236 0 $142 $-1 #
coedge $-1 $160 $237 $238 $239 1 $142 $-1 #
coedge $-1 $238 $195 $160 $190 0 $198 $240 #
edge $-1 $241 $242 $189 $243 0 #
coedge $-1 $244 $161 $245 $246 0 $129 $-1 #
coedge $-1 $232 $247 $161 $193 1 $158 $-1 #
edge $-1 $200 $248 $161 $249 0 #
coedge $-1 $162 $244 $187 $236 1 $129 $-1 #
coedge $-1 $189 $163 $162 $196 0 $198 $250 #
edge $-1 $201 $241 $195 $251 0 #
coedge $-1 $163 $233 $232 $252 0 $198 $253 #
loop $-1 $216 $254 $255 #
pcurve $-1 2 $202 0 0 #
vertex $-1 $252 $256 #
vertex $-1 $164 $257 #
intcurve-curve $-1 0 { surfintcur nubs 3 open 2 
	-38.692257033179033 3 -19.343481860004331 3 
	-20 20.000000000000004 40.864562911578339 
	-13.683366881971518 20.000000000000004 40.344614525377246 
	-6.8420090035550603 20 39.005877672650726 
	-7.4044346924427655e-10 20 39.034189206532524 
	3.368352106928529e-05 
	plane 0 20 40 0 1 0 0 0 -1 1 I I I I 
	spline 0 { exactsur nubs 3 3 open open none none 3 3 
	0 3 40 1 80 3 
	0 3 40 1 80 3 
	-40 -40 40 
	-30.571909584179366 -40 49.428090415820634 
	0 -40 40 
	30.571909584179366 -40 30.571909584179366 
	40 -40 40 
	-40 -30.571909584179366 49.428090415820634 
	-30.571909584179366 -30.571909584179366 58.856180831641268 
	0 -30.571909584179359 47.856742013183862 
	30.571909584179366 -30.571909584179366 43.142696805273545 
	40 -30.571909584179366 49.428090415820634 
	-40 0 40 
	-30.571909584179359 0 47.856742013183862 
	0 0 30.571909584179366 
	30.571909584179359 0 32.143257986816138 
	40 0 30.571909584179366 
	-40 30.571909584179366 30.571909584179366 
	-30.571909584179366 30.571909584179366 43.142696805273545 
	0 30.571909584179359 32.143257986816138 
	30.571909584179366 30.571909584179366 52.570787221094179 
	40 30.571909584179366 49.428090415820634 
	-40 40 40 
	-30.571909584179366 40 49.428090415820634 
	0 40 30.571909584179366 
	30.571909584179366 40 49.428090415820634 
	40 40 40 
	0 
	} I I I I 
	nullbs 
	nubs 3 open 2 
	-38.692257033179033 3 -19.343481860004331 3 
	22.096640099100362 57.903359900899638 
	27.746600002525241 57.903359900899638 
	33.900689726888359 57.903359900899638 
	40 57.903359900899638 
	
	} I I #
vertex $-1 $166 $258 #
intcurve-curve $-1 0 { surfintcur nubs 3 periodic 35 
	0 3 0.89530041387570325 2 1.7906008277514065 2 2.7271082509051814 2 3.6636156740589558 2 
	4.6667112024507418 2 5.6698067308425273 2 6.767465555264133 2 7.8651243796857386 2 9.0073147801761326 2 
	10.149505180666527 2 11.266687372252981 2 12.383869563839434 2 13.380669751200976 2 14.377469938562518 2 
	15.233190683879247 2 15.661051056537612 2 16.088911429195978 2 16.516771801854343 2 16.944632174512709 2 
	17.800352919829439 2 18.797153107190987 2 19.793953294552534 2 20.911135486138988 2 22.028317677725443 2 
	23.170508078215835 2 24.312698478706228 2 25.410357303127832 2 26.508016127549435 2 27.511111655941217 2 
	28.514207184332999 2 29.450714607486773 2 30.387222030640544 2 31.282522444516214 2 32.177822858391885 3 
	40 -1.4030089221408177e-15 -22.912878474779198 
	40 -0.29843347129190251 -22.912878474779198 
	40 -0.62407896066064272 -22.881764221854183 
	40 -1.2605670918085845 -22.748402285376926 
	40 -1.5714203135972682 -22.646205101361325 
	40 -2.1314608803993664 -22.402914917144457 
	40 -2.4306637264948301 -22.236986386127349 
	40 -2.9861122092774921 -21.843934719528747 
	40 -3.2424436231192511 -21.616932815602315 
	40 -3.6868994948730305 -21.147395169233683 
	39.999999999999993 -3.9126179812875543 -20.85864778364067 
	39.999999999999993 -4.2991304496396827 -20.240117824269063 
	40 -4.4601087901257008 -19.910450473193286 
	40 -4.7141819065862336 -19.257917756747187 
	40 -4.8251722527265049 -18.872423966598269 
	40 -4.9679654792796555 -18.086641207701078 
	40 -5.0000000000000018 -17.686394350495956 
	40 -5 -16.939777942191956 
	40 -4.965281384392898 -16.52355408206698 
	40 -4.8181020468187858 -15.704936111828317 
	40 -4.7057563785590464 -15.302521320380027 
	40 -4.4465265961464127 -14.595417384202424 
	40 -4.2766367471581068 -14.223680242503786 
	40 -3.8698984896300872 -13.51934763120914 
	40 -3.6328912217764024 -13.186843911694144 
	40 -3.1744501651694113 -12.651700350783592 
	40 -2.9160277789982247 -12.394362681850055 
	40 -2.3511497981013378 -11.941303554162161 
	40 -2.0443365294278646 -11.746028226753676 
	40 -1.4902814778418447 -11.473378511649134 
	40 -1.1979092101889313 -11.362218209345096 
	40 -0.74605488975475287 -11.252180213282262 
	40 -0.59325092907256083 -11.22459477168592 
	40 -0.29153344436362877 -11.188675465077234 
	40 -0.14262012421942097 -11.180339887498947 
	40 0.14262012421948933 -11.180339887498951 
	40 0.29153344436369732 -11.188675465077237 
	40 0.59325092907262844 -11.224594771685931 
	40 0.74605488975481982 -11.252180213282276 
	40 1.197909210188997 -11.362218209345118 
	40 1.4902814778419087 -11.473378511649162 
	40 2.0443365294279259 -11.746028226753712 
	40 2.3511497981013947 -11.941303554162209 
	40 2.9160277789982789 -12.394362681850113 
	40 3.1744501651694645 -12.651700350783653 
	40 3.6328912217764504 -13.18684391169421 
	40 3.8698984896301285 -13.519347631209207 
	40 4.2766367471581406 -14.22368024250386 
	40 4.4465265961464446 -14.595417384202502 
	40 4.7057563785590704 -15.302521320380109 
	40 4.8181020468188054 -15.704936111828403 
	40 4.9652813843929069 -16.523554082067065 
	40 5.0000000000000027 -16.939777942192038 
	40 4.9999999999999956 -17.686394350496037 
	40 4.9679654792796439 -18.08664120770116 
	40 4.8251722527264835 -18.872423966598348 
	40 4.7141819065862069 -19.257917756747261 
	40 4.4601087901256671 -19.910450473193357 
	40 4.2991304496396419 -20.240117824269134 
	40 3.9126179812875059 -20.858647783640734 
	40 3.6868994948729812 -21.147395169233739 
	40 3.2424436231191969 -21.616932815602365 
	40 2.9861122092774361 -21.843934719528793 
	40 2.4306637264947706 -22.236986386127388 
	40 2.1314608803993029 -22.402914917144489 
	40 1.5714203135972122 -22.646205101361339 
	40 1.2605670918085394 -22.748402285376937 
	40 0.6240789606606183 -22.881764221854187 
	40 0.29843347129188913 -22.912878474779198 
	40 -1.4030089221408177e-15 -22.912878474779198 
	0.001 
	torus 50 0 0 0 -1 6.1232329394368592e-17 20 5 1 0 0 0 I I I I 
	plane 40 0 0 1 0 0 0 0 1 1 I I I I 
	nullbs 
	nullbs 
	} I I #
loop $-1 $-1 $207 $168 #
plane-surface $-1 40 0 0 -1 0 0 0 0 1 0 I I I I #
coedge $-1 $259 $260 $170 $208 0 $205 $-1 #
edge $-1 $218 $212 $207 $261 0 #
coedge $-1 $262 $171 $176 $221 0 $211 $-1 #
coedge $-1 $171 $262 $259 $263 0 $211 $-1 #
loop $-1 $-1 $210 $264 #
vertex $-1 $208 $265 #
straight-curve $-1 0 -40 -40 -1 0 0 I I #
coedge $-1 $266 $173 $260 $267 0 $216 $268 #
coedge $-1 $173 $266 $175 $220 0 $216 $269 #
loop $-1 $-1 $214 $255 #
pcurve $-1 1 $219 0 0 #
vertex $-1 $267 $270 #
intcurve-curve $-1 0 { exactcur nubs 3 open 3 
	0 3 40 1 80 3 
	-40 -40 40 
	-30.571909584179366 -40 49.428090415820634 
	0 -40 40 
	30.571909584179366 -40 30.571909584179366 
	40 -40 40 
	0 
	spline 0 { ref 4 } I I I I 
	plane 0 -40 0 0 -1 0 0 0 1 1 I I I I 
	nubs 1 open 2 
	0 1 80 1 
	0 0 
	80 0 
	
	nullbs 
	} I I #
edge $-1 $271 $177 $175 $272 1 #
edge $-1 $178 $273 $176 $274 0 #
point $-1 -40 -40 40 #
point $-1 -40 -40 -40 #
coedge $-1 $275 $276 $277 $278 0 $180 $-1 #
coedge $-1 $276 $275 $182 $226 1 $180 $-1 #
edge $-1 $271 $273 $225 $279 0 #
face $-1 $280 $281 $2 $-1 $229 forward single #
loop $-1 $-1 $282 $183 #
plane-surface $-1 0 0 20 0 0 1 1 0 0 0 I I I I #
coedge $-1 $283 $284 $285 $286 1 $184 $-1 #
coedge $-1 $287 $186 $288 $289 0 $158 $-1 #
coedge $-1 $186 $192 $197 $252 1 $158 $-1 #
coedge $-1 $197 $254 $186 $234 0 $198 $290 #
edge $-1 $291 $292 $233 $293 0 #
coedge $-1 $294 $187 $295 $296 0 $142 $-1 #
edge $-1 $241 $297 $187 $298 0 #
coedge $-1 $188 $294 $283 $299 1 $142 $-1 #
coedge $-1 $285 $189 $188 $239 0 $198 $300 #
edge $-1 $242 $301 $238 $302 0 #
pcurve $-1 2 $243 0 0 #
vertex $-1 $196 $303 #
vertex $-1 $190 $304 #
intcurve-curve $-1 0 { surfintcur nubs 3 open 2 
	-38.022777577318038 3 -19.013989651011808 3 
	20 20 41.7349204298053 
	20 13.680045226196594 40.457169133276366 
	20 6.8401372105386402 39.062492995132281 
	20 4.3659867198763497e-10 39.034189206537398 
	3.3683521062114736e-05 
	plane 20 0 40 1 0 0 0 0 1 1 I I I I 
	spline 0 { ref 4 } I I I I 
	nullbs 
	nubs 3 open 2 
	-38.022777577318038 3 -19.013989651011808 3 
	57.903359900899638 57.903359900899638 
	57.903359900899638 52.183387163371464 
	57.903359900899638 46.068049216921558 
	57.903359900899638 40 
	
	} I I #
coedge $-1 $194 $191 $305 $306 0 $129 $-1 #
coedge $-1 $307 $308 $191 $246 1 $309 $-1 #
edge $-1 $248 $310 $191 $311 0 #
coedge $-1 $192 $287 $307 $312 0 $158 $-1 #
vertex $-1 $246 $313 #
straight-curve $-1 -20 20 40 0 0 -1 I I #
pcurve $-1 2 $251 0 0 #
intcurve-curve $-1 0 { surfintcur nubs 3 open 2 
	-19.343481860004331 3 0 3 
	-7.4044346924427655e-10 20 39.034189206532524 
	6.8401372093616004 20 39.062492995127407 
	13.680045226196594 20 40.457169133276366 
	20 20 41.7349204298053 
	3.368352106928529e-05 
	plane 0 20 40 0 1 0 0 0 -1 1 I I I I 
	spline 0 { ref 4 } I I I I 
	nullbs 
	nubs 3 open 2 
	-19.343481860004331 3 0 3 
	40 57.903359900899638 
	46.068049216921558 57.903359900899638 
	52.183387163371464 57.903359900899638 
	57.903359900899638 57.903359900899638 
	
	} I I #
edge $-1 $292 $200 $197 $314 0 #
pcurve $-1 2 $314 0 0 #
coedge $-1 $233 $285 $284 $315 0 $198 $316 #
face $-1 $264 $198 $2 $-1 $317 forward single #
point $-1 -20 20 40.864562911578346 #
point $-1 -7.4044346924427655e-10 20 39.034189206532524 #
point $-1 40 -1.4030089221408177e-15 -22.912878474779205 #
coedge $-1 $277 $207 $210 $263 1 $205 $-1 #
coedge $-1 $207 $277 $214 $267 1 $205 $-1 #
straight-curve $-1 40 -40 0 0 0 -1 I I #
coedge $-1 $210 $209 $275 $318 0 $211 $-1 #
edge $-1 $319 $212 $259 $320 0 #
face $-1 $126 $211 $2 $-1 $321 reversed single #
point $-1 40 -40 -40 #
coedge $-1 $215 $214 $276 $322 0 $216 $323 #
edge $-1 $218 $324 $260 $325 0 #
pcurve $-1 1 $325 0 0 #
pcurve $-1 -2 $272 0 0 #
point $-1 40 -40 40 #
vertex $-1 $322 $326 #
intcurve-curve $-1 0 { exactcur nubs 3 open 3 
	0 3 40 1 80 3 
	-40 -40 40 
	-40 -30.571909584179366 49.428090415820634 
	-40 0 40 
	-40 30.571909584179366 30.571909584179366 
	-40 40 40 
	0 
	plane -40 0 0 -1 0 0 0 0 -1 1 I I I I 
	spline 0 { ref 4 } I I I I 
	nullbs 
	nubs 1 open 2 
	0 1 80 1 
	0 0 
	0 80 
	
	} I I #
vertex $-1 $318 $327 #
straight-curve $-1 -40 0 -40 0 1 0 I I #
coedge $-1 $225 $224 $262 $318 1 $180 $-1 #
coedge $-1 $224 $225 $266 $322 1 $180 $-1 #
coedge $-1 $260 $259 $224 $278 1 $205 $-1 #
edge $-1 $324 $319 $277 $328 0 #
straight-curve $-1 -40 40 0 0 0 -1 I I #
face $-1 $329 $309 $2 $-1 $229 forward single #
loop $-1 $-1 $330 $227 #
coedge $-1 $331 $332 $333 $334 1 $228 $-1 #
coedge $-1 $335 $230 $237 $299 0 $184 $-1 #
coedge $-1 $230 $288 $254 $315 1 $184 $-1 #
coedge $-1 $254 $238 $230 $286 0 $198 $336 #
edge $-1 $301 $337 $285 $338 0 #
coedge $-1 $247 $231 $339 $340 0 $158 $-1 #
coedge $-1 $284 $341 $231 $289 1 $184 $-1 #
edge $-1 $291 $342 $231 $343 0 #
pcurve $-1 2 $293 0 0 #
vertex $-1 $315 $344 #
vertex $-1 $234 $345 #
intcurve-curve $-1 0 { surfintcur nubs 3 open 2 
	-40.956591980197793 3 -19.909182736893566 3 
	-19.999999999999993 -20 49.056415249976268 
	-19.999999999999993 -13.682902711745136 47.959999107374685 
	-20 -6.8421589528463658 45.767271507802306 
	-20 2.6398307927869134e-15 44.095926169198968 
	0.00038305347816553642 
	plane -20 0 40 -1 0 0 0 0 -1 1 I I I I 
	spline 0 { ref 4 } I I I I 
	nullbs 
	nubs 3 open 2 
	-40.956591980197793 3 -19.909182736893566 3 
	22.096640099100362 22.096640099100362 
	22.096640099100362 27.667261082673171 
	22.096640099100362 33.880450587159174 
	22.096640099100362 40 
	
	} I I #
coedge $-1 $237 $235 $332 $346 0 $142 $-1 #
coedge $-1 $305 $330 $235 $296 1 $281 $-1 #
edge $-1 $297 $347 $235 $348 0 #
vertex $-1 $296 $349 #
straight-curve $-1 20 20 40 0 0 -1 I I #
edge $-1 $301 $350 $237 $351 0 #
pcurve $-1 2 $302 0 0 #
vertex $-1 $286 $352 #
intcurve-curve $-1 0 { surfintcur nubs 3 open 2 
	-19.013989651011808 3 0 3 
	20 4.3659867198763497e-10 39.034189206537398 
	20 -6.8420090023780196 39.0058776726556 
	20.000000000000004 -13.683366881971535 40.344614525377246 
	20.000000000000004 -20 40.864562911578339 
	3.3683521062114736e-05 
	plane 20 0 40 1 0 0 0 0 1 1 I I I I 
	spline 0 { ref 4 } I I I I 
	nullbs 
	nubs 3 open 2 
	-19.013989651011808 3 0 3 
	57.903359900899638 40 
	57.903359900899638 33.900689726888359 
	57.903359900899638 27.746600002525227 
	57.903359900899638 22.096640099100362 
	
	} I I #
point $-1 20 20 41.7349204298053 #
point $-1 20 4.3659867198763497e-10 39.034189206537398 #
coedge $-1 $330 $295 $244 $306 1 $281 $-1 #
edge $-1 $310 $297 $244 $311 0 #
coedge $-1 $308 $245 $247 $312 1 $309 $-1 #
coedge $-1 $245 $307 $353 $354 1 $309 $-1 #
loop $-1 $-1 $308 $280 #
vertex $-1 $355 $356 #
straight-curve $-1 0 20 20 1 0 0 I I #
edge $-1 $357 $248 $247 $358 0 #
point $-1 -20 20 20 #
intcurve-curve $-1 0 { surfintcur nubs 3 open 2 
	-19.909182736893566 3 0 3 
	-20 2.6398307927869134e-15 44.095926169198968 
	-20 6.4721406483995976 42.514965805951654 
	-20 13.377579933678117 41.295005763329868 
	-20 20.000000000000004 40.864562911578339 
	0.00038305347816553642 
	plane -20 0 40 -1 0 0 0 0 -1 1 I I I I 
	spline 0 { ref 4 } I I I I 
	nullbs 
	nubs 3 open 2 
	-19.909182736893566 3 0 3 
	22.096640099100362 40 
	22.096640099100362 45.887647281648441 
	22.096640099100362 52.038725050392401 
	22.096640099100362 57.903359900899638 
	
	} I I #
edge $-1 $337 $291 $254 $359 0 #
pcurve $-1 2 $359 0 0 #
spline-surface $-1 0 { ref 4 } I I I I #
edge $-1 $273 $319 $275 $360 0 #
vertex $-1 $263 $361 #
straight-curve $-1 40 0 -40 0 -1 0 I I #
plane-surface $-1 0 0 -40 0 0 1 1 0 0 0 I I I I #
edge $-1 $324 $271 $276 $362 1 #
pcurve $-1 -2 $362 0 0 #
vertex $-1 $267 $363 #
intcurve-curve $-1 0 { exactcur nubs 3 open 3 
	0 3 40 1 80 3 
	40 -40 40 
	40 -30.571909584179366 49.428090415820634 
	40 0 30.571909584179366 
	40 30.571909584179366 49.428090415820634 
	40 40 40 
	0 
	spline 0 { ref 4 } I I I I 
	plane 40 0 0 1 0 0 0 0 1 1 I I I I 
	nubs 1 open 2 
	0 1 80 1 
	80 0 
	80 80 
	
	nullbs 
	} I I #
point $-1 -40 40 40 #
point $-1 -40 40 -40 #
straight-curve $-1 40 40 0 0 0 -1 I I #
face $-1 $364 $365 $2 $-1 $229 forward single #
coedge $-1 $295 $305 $366 $355 1 $281 $-1 #
coedge $-1 $332 $282 $335 $367 1 $228 $-1 #
coedge $-1 $282 $331 $294 $346 1 $228 $-1 #
coedge $-1 $366 $368 $282 $334 0 $369 $-1 #
edge $-1 $370 $347 $333 $371 0 #
coedge $-1 $341 $283 $331 $367 0 $184 $-1 #
pcurve $-1 2 $338 0 0 #
vertex $-1 $286 $372 #
intcurve-curve $-1 0 { surfintcur nubs 3 open 2 
	-37.429048246439038 3 -19.234620312429051 3 
	20.000000000000004 -20 40.864562911578339 
	13.377579933678117 -20 41.295005763329868 
	6.4721406483995905 -20 42.514965805951654 
	-7.3323204256298138e-15 -20 44.095926169198968 
	0.00038305347816578806 
	plane 0 -20 40 0 -1 0 0 0 1 1 I I I I 
	spline 0 { ref 4 } I I I I 
	nullbs 
	nubs 3 open 2 
	-37.429048246439038 3 -19.234620312429051 3 
	57.903359900899638 22.096640099100362 
	52.038725050392394 22.096640099100362 
	45.887647281648441 22.096640099100362 
	40 22.096640099100362 
	
	} I I #
coedge $-1 $373 $374 $287 $340 1 $365 $-1 #
edge $-1 $342 $357 $287 $358 0 #
coedge $-1 $288 $335 $373 $375 0 $184 $-1 #
vertex $-1 $340 $376 #
straight-curve $-1 -20 -20 40 0 0 -1 I I #
point $-1 -20 -20 49.056415249976276 #
point $-1 -20 2.6398307927869134e-15 44.095926169198968 #
edge $-1 $347 $350 $294 $348 0 #
vertex $-1 $334 $377 #
straight-curve $-1 20 0 20 0 -1 0 I I #
point $-1 20 20 20 #
vertex $-1 $299 $378 #
straight-curve $-1 20 -20 40 0 0 -1 I I #
point $-1 20 -20 40.864562911578346 #
coedge $-1 $368 $366 $308 $354 0 $369 $-1 #
edge $-1 $310 $357 $353 $371 0 #
edge $-1 $347 $310 $366 $371 0 #
point $-1 0 20 20 #
vertex $-1 $354 $379 #
straight-curve $-1 -20 0 20 0 1 0 I I #
intcurve-curve $-1 0 { surfintcur nubs 3 open 2 
	-19.234620312429051 3 0 3 
	-7.3323204256298138e-15 -20 44.095926169198968 
	-6.8421589528463835 -20 45.767271507802306 
	-13.682902711745133 -20 47.959999107374685 
	-19.999999999999993 -20 49.056415249976268 
	0.00038305347816578806 
	plane 0 -20 40 0 -1 0 0 0 1 1 I I I I 
	spline 0 { ref 4 } I I I I 
	nullbs 
	nubs 3 open 2 
	-19.234620312429051 3 0 3 
	40 22.096640099100362 
	33.88045058715916 22.096640099100362 
	27.667261082673171 22.096640099100362 
	22.096640099100362 22.096640099100362 
	
	} I I #
straight-curve $-1 0 40 -40 1 0 0 I I #
point $-1 40 40 -40 #
intcurve-curve $-1 0 { exactcur nubs 3 open 3 
	0 3 40 1 80 3 
	-40 40 40 
	-30.571909584179366 40 49.428090415820634 
	0 40 30.571909584179366 
	30.571909584179366 40 49.428090415820634 
	40 40 40 
	0 
	plane 0 40 0 0 1 0 0 0 -1 1 I I I I 
	spline 0 { ref 4 } I I I I 
	nullbs 
	nubs 1 open 2 
	0 1 80 1 
	0 80 
	80 80 
	
	} I I #
point $-1 40 40 40 #
face $-1 $380 $369 $2 $-1 $381 reversed single #
loop $-1 $-1 $374 $329 #
coedge $-1 $353 $333 $330 $355 0 $369 $-1 #
edge $-1 $350 $370 $335 $382 0 #
coedge $-1 $333 $353 $374 $383 0 $369 $-1 #
loop $-1 $384 $333 $364 #
vertex $-1 $334 $385 #
ellipse-curve $-1 0 0 20 0 0 1 20 0 0 1 I I #
point $-1 -7.3323204256298138e-15 -20 44.095926169198968 #
coedge $-1 $374 $339 $341 $375 1 $365 $-1 #
coedge $-1 $339 $373 $368 $383 1 $365 $-1 #
edge $-1 $370 $342 $341 $382 0 #
point $-1 -20 -20 20 #
point $-1 20 0 20 #
point $-1 20 -20 20 #
point $-1 -20 0 20 #
face $-1 $386 $387 $2 $-1 $388 reversed single #
cone-surface $-1 0 0 40 0 0 1 20 0 0 1 I I 0 1 0 I I I I #
straight-curve $-1 0 -20 20 -1 0 0 I I #
edge $-1 $357 $370 $368 $371 0 #
loop $-1 $-1 $389 $364 #
point $-1 0 -20 20 #
face $-1 $390 $391 $2 $-1 $392 forward single #
loop $-1 $393 $394 $380 #
plane-surface $-1 0 0 0 0 0 -1 -1 0 0 0 I I I I #
coedge $-1 $389 $389 $395 $396 0 $384 $-1 #
face $-1 $397 $398 $2 $-1 $399 forward single #
loop $-1 $-1 $400 $386 #
plane-surface $-1 0 -10 30 0 1 0 0 0 1 0 I I I I #
loop $-1 $-1 $395 $380 #
coedge $-1 $401 $402 $403 $404 1 $387 $-1 #
coedge $-1 $395 $395 $389 $396 1 $393 $-1 #
edge $-1 $405 $405 $395 $406 0 #
face $-1 $407 $408 $2 $-1 $409 forward single #
loop $-1 $-1 $410 $390 #
plane-surface $-1 10 0 30 -1 0 0 0 0 1 0 I I I I #
coedge $-1 $411 $412 $413 $414 0 $391 $-1 #
coedge $-1 $413 $394 $410 $415 1 $387 $-1 #
coedge $-1 $394 $413 $416 $417 1 $387 $-1 #
coedge $-1 $418 $419 $394 $404 0 $408 $-1 #
edge $-1 $420 $421 $403 $422 0 #
vertex $-1 $396 $423 #
ellipse-curve $-1 0 0 0 0 0 -1 20 0 0 1 I I #
face $-1 $424 $425 $2 $-1 $426 forward single #
loop $-1 $-1 $403 $397 #
plane-surface $-1 0 10 30 0 -1 0 0 0 -1 0 I I I I #
coedge $-1 $427 $428 $401 $415 0 $398 $-1 #
coedge $-1 $429 $400 $428 $430 0 $391 $-1 #
coedge $-1 $400 $429 $431 $432 1 $391 $-1 #
coedge $-1 $402 $401 $400 $414 1 $387 $-1 #
edge $-1 $433 $434 $400 $435 0 #
edge $-1 $434 $420 $410 $436 0 #
coedge $-1 $431 $437 $402 $417 0 $438 $-1 #
edge $-1 $421 $433 $416 $439 0 #
coedge $-1 $440 $403 $437 $441 0 $408 $-1 #
coedge $-1 $403 $440 $427 $442 1 $408 $-1 #
vertex $-1 $404 $443 #
vertex $-1 $404 $444 #
straight-curve $-1 0 10 0 -1 0 0 I I #
point $-1 20 0 0 #
face $-1 $255 $438 $2 $-1 $445 forward single #
loop $-1 $-1 $446 $407 #
plane-surface $-1 0 0 -10 0 0 1 1 0 0 0 I I I I #
coedge $-1 $447 $410 $419 $442 0 $398 $-1 #
coedge $-1 $410 $447 $411 $430 1 $398 $-1 #
coedge $-1 $412 $411 $448 $449 0 $391 $-1 #
edge $-1 $434 $450 $428 $451 0 #
coedge $-1 $452 $416 $412 $432 0 $438 $-1 #
edge $-1 $433 $453 $431 $454 0 #
vertex $-1 $417 $455 #
vertex $-1 $415 $456 #
straight-curve $-1 0 -10 0 1 0 0 I I #
straight-curve $-1 10 0 0 0 1 0 I I #
coedge $-1 $416 $452 $418 $441 1 $438 $-1 #
loop $-1 $-1 $416 $424 #
straight-curve $-1 -10 0 0 0 -1 0 I I #
coedge $-1 $419 $418 $457 $458 0 $408 $-1 #
edge $-1 $421 $459 $418 $460 0 #
edge $-1 $420 $461 $427 $462 0 #
point $-1 10 10 0 #
point $-1 -10 10 0 #
plane-surface $-1 -10 0 30 1 0 0 0 0 -1 0 I I I I #
coedge $-1 $457 $448 $447 $463 1 $425 $-1 #
coedge $-1 $428 $427 $446 $463 0 $398 $-1 #
coedge $-1 $446 $464 $429 $449 1 $425 $-1 #
edge $-1 $450 $453 $429 $465 0 #
vertex $-1 $430 $466 #
straight-curve $-1 10 -10 30 0 0 -1 I I #
coedge $-1 $437 $431 $464 $467 0 $438 $-1 #
vertex $-1 $467 $468 #
straight-curve $-1 -10 -10 30 0 0 -1 I I #
point $-1 -10 -10 0 #
point $-1 10 -10 0 #
coedge $-1 $464 $446 $440 $458 1 $425 $-1 #
edge $-1 $459 $461 $440 $469 0 #
vertex $-1 $458 $470 #
straight-curve $-1 -10 10 30 0 0 -1 I I #
vertex $-1 $463 $471 #
straight-curve $-1 10 10 30 0 0 -1 I I #
edge $-1 $461 $450 $447 $472 0 #
coedge $-1 $448 $457 $452 $467 1 $425 $-1 #
straight-curve $-1 0 -10 -10 -1 0 0 I I #
point $-1 10 -10 -10 #
edge $-1 $453 $459 $452 $473 0 #
point $-1 -10 -10 -10 #
straight-curve $-1 0 10 -10 1 0 0 I I #
point $-1 -10 10 -10 #
point $-1 10 10 -10 #
straight-curve $-1 10 0 -10 0 -1 0 I I #
straight-curve $-1 -10 0 -10 0 1 0 I I #
End-of-ACIS-data 