600 0 1 0           
81 GICL ACIS Healer - Source: /gicl/data5/repository/Heriot_Watt/ex17/ex17.sat - 6 0 18 ACIS 6.0.3 Solaris 24 Sat Apr 13 23:38:58 2002 
1 9.999999999999999547e-07 1.000000000000000036e-10 
body $-1 $1 $-1 $-1 #
lump $-1 $-1 $2 $0 #
shell $-1 $-1 $-1 $3 $-1 $1 #
face $-1 $4 $5 $2 $-1 $6 forward single #
face $-1 $7 $8 $2 $-1 $9 forward single #
loop $-1 $-1 $10 $3 #
plane-surface $-1 0 -59.5 0 0 -1 0 0 0 -1 forward_v I I I I #
face $-1 $11 $12 $2 $-1 $13 forward single #
loop $-1 $-1 $14 $4 #
plane-surface $-1 0.5 -60 0 -1 0 0 0 0 1 forward_v I I I I #
coedge $-1 $15 $16 $17 $18 reversed $5 $-1 #
face $-1 $19 $20 $2 $-1 $21 forward single #
loop $-1 $-1 $22 $7 #
plane-surface $-1 0 -60.5 0 0 1 0 0 0 1 forward_v I I I I #
coedge $-1 $23 $24 $25 $26 reversed $8 $-1 #
coedge $-1 $27 $10 $28 $29 forward $5 $-1 #
coedge $-1 $10 $27 $23 $30 reversed $5 $-1 #
coedge $-1 $25 $31 $10 $18 forward $32 $-1 #
edge $-1 $33 3.113179281145044719 $34 3.170006026034541513 $17 $35 forward 7 unknown #
face $-1 $36 $32 $2 $-1 $37 forward single #
loop $-1 $-1 $38 $11 #
plane-surface $-1 -0.5 -60 0 1 0 0 0 0 -1 forward_v I I I I #
coedge $-1 $39 $40 $41 $42 reversed $12 $-1 #
coedge $-1 $43 $14 $16 $30 forward $8 $-1 #
coedge $-1 $14 $43 $39 $44 reversed $8 $-1 #
coedge $-1 $41 $17 $14 $26 forward $32 $-1 #
edge $-1 $34 0.4951328002157675545 $45 0.5529079797168282573 $25 $46 forward 7 unknown #
coedge $-1 $16 $15 $47 $48 reversed $5 $-1 #
coedge $-1 $38 $49 $15 $29 reversed $20 $-1 #
edge $-1 $33 -17.59261208575918189 $50 17.59261208575918189 $15 $51 forward 7 unknown #
edge $-1 $34 -17.59261208575918189 $52 17.59261208575918189 $23 $53 forward 7 unknown #
coedge $-1 $17 $41 $38 $54 forward $32 $-1 #
loop $-1 $55 $41 $19 #
vertex $-1 $54 $56 #
vertex $-1 $18 $57 #
ellipse-curve $-1 0 -59.5 0 0 1 0 0 0 -17.59971590679804265 1 I I #
face $-1 $58 $59 $2 $-1 $60 forward single #
sphere-surface $-1 0 -50 0 20 1 0 0 0 0 1 forward_v I I I I #
coedge $-1 $61 $28 $31 $54 reversed $20 $-1 #
coedge $-1 $62 $22 $24 $44 forward $12 $-1 #
coedge $-1 $22 $62 $61 $63 reversed $12 $-1 #
coedge $-1 $31 $25 $22 $42 forward $32 $-1 #
edge $-1 $45 -0.02937790041012585535 $64 0.02937790041012585535 $41 $65 forward 7 unknown #
coedge $-1 $24 $23 $66 $67 reversed $8 $-1 #
edge $-1 $45 -17.01469952717355483 $68 17.01469952717355483 $24 $69 forward 7 unknown #
vertex $-1 $42 $70 #
ellipse-curve $-1 0.5 -50 0 1 0 0 0 0 19.99374902313220659 1 I I #
coedge $-1 $71 $66 $27 $48 forward $55 $-1 #
edge $-1 $52 -0.02841337244474857748 $50 0.02841337244474857748 $47 $35 forward 7 unknown #
coedge $-1 $28 $61 $71 $72 reversed $20 $-1 #
vertex $-1 $72 $73 #
straight-curve $-1 -0.5 -59.5 0 0 0 -1 I I #
vertex $-1 $48 $74 #
straight-curve $-1 0.5 -59.5 0 0 0 -1 I I #
edge $-1 $64 2.588684673872965192 $33 2.646459853374025784 $31 $75 forward 7 unknown #
loop $-1 $76 $77 $19 #
point $-1 -0.5 -59.5 17.59261208575918189 #
point $-1 0.5 -59.5 17.59261208575918189 #
face $-1 $78 $79 $2 $-1 $80 forward single #
loop $-1 $81 $82 $36 #
cone-surface $-1 70 0 0 0 0 1 10 0 0 1 I I 0 1 10 forward I I I I #
coedge $-1 $49 $38 $40 $63 forward $20 $-1 #
coedge $-1 $40 $39 $77 $83 reversed $12 $-1 #
edge $-1 $64 -17.01469952717355483 $84 17.01469952717355483 $61 $85 forward 7 unknown #
vertex $-1 $42 $86 #
ellipse-curve $-1 0 -60.5 0 0 -1 0 0 0 17.02204453054920208 1 I I #
coedge $-1 $47 $77 $43 $67 forward $55 $-1 #
edge $-1 $68 2.588684673872965192 $52 2.646459853374025784 $66 $46 forward 7 unknown #
vertex $-1 $83 $87 #
straight-curve $-1 0.5 -60.5 0 0 0 -1 I I #
point $-1 0.5 -60.5 17.01469952717355483 #
coedge $-1 $77 $47 $49 $72 forward $55 $-1 #
edge $-1 $50 0.4951328002157675545 $84 0.5529079797168282573 $71 $75 forward 7 unknown #
point $-1 -0.5 -59.5 -17.59261208575918189 #
point $-1 0.5 -59.5 -17.59261208575918189 #
ellipse-curve $-1 -0.5 -50 0 -1 0 0 0 0 -19.99374902313220659 1 I I #
loop $-1 $-1 $88 $19 #
coedge $-1 $66 $71 $62 $83 forward $55 $-1 #
face $-1 $89 $90 $2 $-1 $91 forward single #
loop $-1 $-1 $92 $58 #
plane-surface $-1 70 0 -50 0 0 -1 -1 0 0 forward_v I I I I #
loop $-1 $93 $94 $36 #
coedge $-1 $82 $82 $95 $96 reversed $59 $-1 #
edge $-1 $84 3.112214753179667337 $68 3.170970553999918895 $77 $65 forward 7 unknown #
vertex $-1 $83 $97 #
straight-curve $-1 -0.5 -60.5 0 0 0 -1 I I #
point $-1 -0.5 -60.5 17.01469952717355483 #
point $-1 0.5 -60.5 -17.01469952717355483 #
coedge $-1 $88 $88 $98 $99 reversed $76 $-1 #
face $-1 $100 $101 $2 $-1 $102 forward single #
loop $-1 $-1 $103 $78 #
plane-surface $-1 70 0 50 0 0 1 1 0 0 forward_v I I I I #
coedge $-1 $92 $92 $104 $105 forward $79 $-1 #
loop $-1 $106 $104 $36 #
coedge $-1 $94 $94 $107 $108 reversed $81 $-1 #
coedge $-1 $95 $95 $82 $96 forward $109 $-1 #
edge $-1 $110 0 $110 32.92617237189593737 $95 $111 forward 7 unknown #
point $-1 -0.5 -60.5 -17.01469952717355483 #
coedge $-1 $98 $98 $88 $99 forward $112 $-1 #
edge $-1 $113 -3.141592653589799777 $113 3.141592653589786455 $98 $114 forward 7 unknown #
face $-1 $115 $116 $2 $-1 $102 forward single #
loop $-1 $109 $117 $89 #
torus-surface $-1 50 0 0 0 -1 6.123232939436859187e-17 20 5 1 0 0 forward_v I I I I #
coedge $-1 $103 $103 $118 $119 forward $90 $-1 #
coedge $-1 $104 $104 $92 $105 reversed $93 $-1 #
edge $-1 $120 0 $120 6.283185307179586232 $92 $121 forward 7 unknown #
loop $-1 $-1 $118 $36 #
coedge $-1 $107 $107 $94 $108 forward $116 $-1 #
edge $-1 $122 0 $122 32.92617237189593027 $107 $123 forward 7 unknown #
loop $-1 $-1 $95 $89 #
vertex $-1 $96 $124 #
intcurve-curve $-1 forward { surfintcur full nubs 3 periodic 49 
	0 3 0.981401160413845064 2 1.962802320827690128 2 2.342962313725254209 2 2.723122306622818289 2 
	3.56879382115345134 2 4.414465335684084835 2 4.98567651020102609 2 5.556887684717967346 2 6.128215488374478603 2 
	6.699543292030989861 2 7.842198899344011487 2 8.642960127517422819 2 9.443721355690833263 2 10.24448258386424371 2 
	11.04524381203765415 2 11.7692591290586801 2 12.49327444607970605 2 13.21728976310073023 2 13.94130508012175618 2 
	14.32845864713189954 2 14.71561221414204468 2 15.58934920004500668 2 16.02621769299648946 2 16.46308618594796869 2 
	16.89995467889944791 2 17.33682317185093069 2 18.2105601577538927 2 18.59771372476403428 2 18.98486729177417942 2 
	19.70888260879520359 2 20.43289792581622777 2 21.1569132428372555 2 21.88092855985827967 2 22.68168978803169011 2 
	23.48245101620510411 2 24.28321224437851455 2 25.083973472551925 2 26.22662907986494929 2 26.79795688352145788 2 
	27.36928468717797003 2 27.94049586169490595 2 28.51170703621184543 2 29.35737855074248159 2 30.20305006527311775 2 
	30.58321005817067828 2 30.96337005106824236 2 31.94477121148209164 2 32.92617237189593737 3 
	60.00000000000000711 7.227496078864772375e-17 11.1803398874989508 
	60.00000000000000711 -0.3271337201379482251 11.1803398874989508 
	60.01728133770632212 -0.6839389329660929828 11.21083323182095803 
	60.089504309963786 -1.380043317988653317 11.34316172789578481 
	60.14422636208433204 -1.719335607931487209 11.4451527910272457 
	60.22928450118597254 -2.132365287321633662 11.61294669452053618 
	60.25719695411872578 -2.256857638453552362 11.66890350505167007 
	60.31663891835241031 -2.499627123459435829 11.79137716679467829 
	60.34813623225716128 -2.617904502203703743 11.85790915687747038 
	60.44390637389078336 -2.956341035144578022 12.06587871204403584 
	60.52186568886890683 -3.196740394163272381 12.24402881848377866 
	60.68086751137327184 -3.634274234625260558 12.6461812390659194 
	60.76144472268488528 -3.831468176131455294 12.87030268365978358 
	60.87933530550674277 -4.102150970353611648 13.23894136148051714 
	60.92985178153313797 -4.212406019841520077 13.40936812817986024 
	61.02411796443019654 -4.409704630712254492 13.76494088550025374 
	61.06776084568319618 -4.496820976919331692 13.95007479838131736 
	61.14024595641801341 -4.63800130083654949 14.29627986612604218 
	61.1744294735619647 -4.702475534376429067 14.48160797620882256 
	61.23439619677355239 -4.813331614959523108 14.86757854200360818 
	61.26016276458878451 -4.859730651146618285 15.06821864540125944 
	61.32137973072302373 -4.968752213655802663 15.67735650169419337 
	61.33974596215561093 -4.999999999999998224 16.0936454893233325 
	61.33974596215561093 -5 16.74145110115214408 
	61.33120061190753347 -4.98529511358256272 17.01983729223504582 
	61.29616362169497279 -4.923868651745281433 17.58355065951283791 
	61.26969723413260738 -4.877170509847580604 17.86888195820278469 
	61.20174510901739495 -4.753492316276490826 18.43120288421818742 
	61.16027820511692425 -4.676479049202916904 18.70834234691970011 
	61.0679084923923341 -4.497541440277855074 19.24049676501729422 
	61.01704527527843425 -4.39559525790899297 19.49551124775688038 
	60.91798547609788272 -4.186771628860871175 19.94817768688451309 
	60.8658669359647746 -4.07273549139227331 20.16761272139843442 
	60.75553830585110404 -3.815689872040343378 20.59957833048739317 
	60.69735546420825756 -3.672660995628905134 20.81210432300409252 
	60.58042388481845819 -3.361431262528507879 21.21652560437049573 
	60.52167638233071756 -3.193114723198002824 21.40852025002207881 
	60.40948310287482315 -2.8384125644244107 21.76100390150220321 
	60.35607513301549432 -2.651991836010322068 21.9214696088729184 
	60.28207652568411845 -2.360705052352396471 22.13795215393582438 
	60.25471129955355565 -2.24590097577801906 22.21670467897051893 
	60.20308562180519374 -2.008778663530242703 22.36305570248915942 
	60.17885853382738759 -1.886429402456139437 22.43061569571580804 
	60.11195137673668398 -1.514901060999476634 22.61538465079395621 
	60.06985363308917414 -1.219240551011013585 22.72824050103720595 
	60.02777020245321893 -0.7604087948952976683 22.83992279871293363 
	60.01712902629793689 -0.6049445818771352901 22.86792276317929051 
	60.00324382992920391 -0.2975515099786236739 22.90439980705461309 
	60 -0.145622830983825835 22.91287847477919826 
	60 0.1456228309838268342 22.91287847477919826 
	60.00324382992920391 0.2975515099786248951 22.90439980705461309 
	60.01712902629793689 0.6049445818771368444 22.86792276317929051 
	60.02777020245321182 0.7604087948952991116 22.83992279871293363 
	60.06985363308917414 1.219240551011015361 22.72824050103720595 
	60.11195137673668398 1.514901060999478855 22.61538465079395621 
	60.17885853382738759 1.886429402456140547 22.43061569571580804 
	60.20308562180519374 2.008778663530242703 22.36305570248916297 
	60.25471129955355565 2.245900975778016839 22.21670467897052248 
	60.28207652568411845 2.360705052352396471 22.13795215393582794 
	60.35607513301549432 2.65199183601032118 21.92146960887292195 
	60.40948310287482315 2.838412564424408924 21.76100390150221386 
	60.52167638233071756 3.193114723198004601 21.40852025002208592 
	60.58042388481845819 3.361431262528509656 21.21652560437049573 
	60.69735546420825756 3.672660995628907799 20.81210432300409607 
	60.75553830585110404 3.815689872040344266 20.59957833048739673 
	60.8658669359647746 4.072735491392274199 20.16761272139843797 
	60.91798547609788272 4.186771628860871175 19.94817768688451665 
	61.01704527527843425 4.395595257908993858 19.49551124775688749 
	61.0679084923923341 4.497541440277854186 19.24049676501729778 
	61.16027820511692425 4.676479049202916904 18.70834234691970011 
	61.20174510901739495 4.753492316276491714 18.43120288421818742 
	61.26969723413260738 4.877170509847580604 17.86888195820277758 
	61.29616362169497279 4.923868651745284097 17.58355065951283436 
	61.33120061190753347 4.985295113582564497 17.01983729223504582 
	61.33974596215561093 5.000000000000001776 16.74145110115214408 
	61.33974596215561093 5 16.0936454893233325 
	61.32137973072303794 4.968752213655805328 15.67735650169418982 
	61.26016276458879872 4.859730651146621838 15.06821864540125588 
	61.23439619677355239 4.813331614959524885 14.8675785420036064 
	61.1744294735619647 4.702475534376430844 14.48160797620882256 
	61.14024595641801341 4.638001300836551266 14.2962798661260404 
	61.06776084568319618 4.496820976919334356 13.95007479838131914 
	61.02411796443019654 4.409704630712256268 13.76494088550025374 
	60.92985178153313797 4.212406019841524518 13.40936812817986556 
	60.87933530550674988 4.102150970353616088 13.2389413614805207 
	60.76144472268489949 3.831468176131459735 12.87030268365978714 
	60.68086751137327184 3.634274234625265443 12.6461812390659265 
	60.52186568886890683 3.196740394163274601 12.24402881848378222 
	60.44390637389078336 2.956341035144582019 12.06587871204403584 
	60.34813623225716128 2.617904502203708184 11.85790915687747216 
	60.31663891835240321 2.499627123459441602 11.79137716679468184 
	60.25719695411871868 2.256857638453560355 11.6689035050516754 
	60.22928450118597965 2.132365287321640324 11.61294669452053796 
	60.14422636208433914 1.719335607931492316 11.4451527910272457 
	60.089504309963786 1.380043317988656648 11.34316172789578658 
	60.01728133770632212 0.6839389329660943151 11.21083323182095803 
	60.00000000000000711 0.3271337201379491133 11.1803398874989508 
	60.00000000000000711 7.227496078864772375e-17 11.1803398874989508 
	0.001000000000000000021 
	cone 70 0 0 0 0 1 10 0 0 1 I I 0 1 10 forward I I I I 
	torus 50 0 0 0 -1 6.123232939436859187e-17 20 5 1 0 0 forward_v I I I I 
	nullbs 
	nullbs 
	I I 
	0 
	0 
	0 
	} I I #
loop $-1 $125 $98 $126 #
vertex $-1 $99 $127 #
ellipse-curve $-1 0 -40 0 0 1 0 0 0 17.3205080756887746 1 I I #
face $-1 $128 $129 $2 $-1 $130 forward single #
loop $-1 $131 $107 $100 #
coedge $-1 $117 $117 $132 $133 reversed $101 $-1 #
coedge $-1 $118 $118 $103 $119 reversed $106 $-1 #
edge $-1 $134 0 $134 6.283185307179586232 $103 $135 forward 7 unknown #
vertex $-1 $105 $136 #
ellipse-curve $-1 70 0 -50 0 0 -1 10 0 0 1 I I #
vertex $-1 $108 $137 #
intcurve-curve $-1 forward { surfintcur full nubs 3 periodic 49 
	0 3 0.981401160413845286 2 1.962802320827690572 2 2.342962313725254653 2 2.723122306622818734 2 
	3.568793821153451784 2 4.414465335684084835 2 4.98567651020102609 2 5.556887684717967346 2 6.128215488374478603 2 
	6.699543292030989861 2 7.842198899344011487 2 8.642960127517422819 2 9.443721355690833263 2 10.24448258386424371 2 
	11.04524381203765415 2 11.7692591290586801 2 12.49327444607970605 2 13.21728976310073023 2 13.94130508012175618 2 
	14.32845864713189954 2 14.71561221414204468 2 15.58934920004500668 2 16.02621769299648946 2 16.46308618594796869 2 
	16.89995467889944791 2 17.33682317185093069 2 18.21056015775388914 2 18.59771372476403428 2 18.98486729177417587 2 
	19.70888260879520004 2 20.43289792581622777 2 21.15691324283725194 2 21.88092855985827612 2 22.68168978803168656 2 
	23.48245101620509701 2 24.283212244378511 2 25.08397347255192145 2 26.22662907986494218 2 26.79795688352145433 2 
	27.36928468717796648 2 27.94049586169490595 2 28.51170703621184188 2 29.35737855074247804 2 30.2030500652731142 2 
	30.58321005817067473 2 30.96337005106823526 2 31.94477121148208454 2 32.92617237189593027 3 
	60.00000000000000711 -1.296921548676019537e-15 -11.1803398874989508 
	60.00000000000000711 0.3271337201379471149 -11.1803398874989508 
	60.01728133770632212 0.6839389329660920946 -11.21083323182095803 
	60.089504309963786 1.380043317988652873 -11.34316172789578481 
	60.14422636208433204 1.719335607931486987 -11.4451527910272457 
	60.22928450118597254 2.132365287321633662 -11.61294669452053618 
	60.25719695411872578 2.256857638453552362 -11.66890350505167007 
	60.31663891835241031 2.499627123459435829 -11.79137716679467829 
	60.34813623225716128 2.617904502203703743 -11.85790915687747038 
	60.44390637389078336 2.956341035144578022 -12.06587871204403584 
	60.52186568886890683 3.196740394163273269 -12.24402881848378044 
	60.68086751137327184 3.634274234625261002 -12.64618123906592118 
	60.76144472268488528 3.831468176131455294 -12.87030268365978358 
	60.87933530550674277 4.102150970353611648 -13.23894136148051714 
	60.92985178153313797 4.212406019841520077 -13.40936812817986024 
	61.02411796443019654 4.409704630712254492 -13.76494088550025374 
	61.06776084568319618 4.496820976919331692 -13.95007479838131736 
	61.14024595641801341 4.63800130083654949 -14.29627986612604218 
	61.1744294735619647 4.702475534376429067 -14.48160797620882256 
	61.23439619677355239 4.813331614959523108 -14.86757854200360818 
	61.26016276458878451 4.859730651146618285 -15.06821864540125944 
	61.32137973072302373 4.968752213655802663 -15.67735650169419337 
	61.33974596215561093 4.999999999999998224 -16.0936454893233325 
	61.33974596215561093 5 -16.74145110115214408 
	61.33120061190753347 4.98529511358256272 -17.01983729223504582 
	61.29616362169497279 4.923868651745281433 -17.58355065951283791 
	61.26969723413260738 4.877170509847580604 -17.86888195820278469 
	61.20174510901739495 4.753492316276490826 -18.43120288421818742 
	61.16027820511692425 4.676479049202916904 -18.70834234691970011 
	61.0679084923923341 4.497541440277855074 -19.24049676501729422 
	61.01704527527843425 4.39559525790899297 -19.49551124775688038 
	60.91798547609788272 4.186771628860871175 -19.94817768688451309 
	60.8658669359647746 4.07273549139227331 -20.16761272139843442 
	60.75553830585110404 3.815689872040343378 -20.59957833048739317 
	60.69735546420825756 3.672660995628905134 -20.81210432300409252 
	60.58042388481845819 3.361431262528507879 -21.21652560437049573 
	60.52167638233071756 3.193114723198002824 -21.40852025002207881 
	60.40948310287482315 2.838412564424410256 -21.76100390150220321 
	60.35607513301549432 2.651991836010321624 -21.9214696088729184 
	60.28207652568411845 2.360705052352396027 -22.13795215393582438 
	60.25471129955355565 2.245900975778018172 -22.21670467897051893 
	60.20308562180519374 2.008778663530241815 -22.36305570248915942 
	60.17885853382738759 1.886429402456139215 -22.43061569571580804 
	60.11195137673668398 1.514901060999476634 -22.61538465079395621 
	60.06985363308917414 1.219240551011013363 -22.72824050103720595 
	60.02777020245321893 0.7604087948952966691 -22.83992279871293363 
	60.01712902629793689 0.6049445818771340688 -22.86792276317929051 
	60.00324382992920391 0.2975515099786220086 -22.90439980705461309 
	60 0.1456228309838240587 -22.91287847477919826 
	60 -0.1456228309838288049 -22.91287847477919826 
	60.00324382992920391 -0.2975515099786268935 -22.90439980705461309 
	60.01712902629793689 -0.6049445818771390648 -22.86792276317929051 
	60.02777020245321182 -0.7604087948953017762 -22.83992279871293363 
	60.06985363308917414 -1.219240551011017137 -22.72824050103720595 
	60.11195137673668398 -1.514901060999479521 -22.61538465079395621 
	60.17885853382739469 -1.886429402456141879 -22.43061569571580804 
	60.20308562180519374 -2.008778663530242259 -22.36305570248915942 
	60.25471129955355565 -2.245900975778018172 -22.21670467897051893 
	60.28207652568411845 -2.36070505235239736 -22.13795215393582794 
	60.35607513301549432 -2.651991836010322068 -21.9214696088729184 
	60.40948310287482315 -2.838412564424413809 -21.76100390150221386 
	60.52167638233071756 -3.193114723198006821 -21.40852025002208592 
	60.58042388481845819 -3.361431262528511432 -21.21652560437049218 
	60.69735546420825756 -3.672660995628907799 -20.81210432300409252 
	60.75553830585110404 -3.815689872040345154 -20.59957833048739317 
	60.8658669359647746 -4.072735491392274199 -20.16761272139843797 
	60.91798547609788272 -4.186771628860871175 -19.94817768688451665 
	61.01704527527843425 -4.395595257908993858 -19.49551124775688749 
	61.0679084923923341 -4.497541440277854186 -19.24049676501729778 
	61.16027820511692425 -4.676479049202916904 -18.70834234691970011 
	61.20174510901739495 -4.753492316276492602 -18.43120288421818742 
	61.26969723413260738 -4.87717050984758238 -17.86888195820278114 
	61.29616362169497279 -4.923868651745283209 -17.58355065951284146 
	61.33120061190753347 -4.985295113582565385 -17.01983729223504938 
	61.33974596215561093 -5.000000000000001776 -16.74145110115214408 
	61.33974596215561093 -5 -16.0936454893233325 
	61.32137973072303794 -4.968752213655806216 -15.67735650169419515 
	61.26016276458879872 -4.859730651146621838 -15.06821864540126121 
	61.23439619677355239 -4.813331614959524885 -14.86757854200360818 
	61.1744294735619647 -4.702475534376430844 -14.48160797620882256 
	61.14024595641801341 -4.638001300836551266 -14.29627986612604218 
	61.06776084568319618 -4.496820976919333468 -13.95007479838131736 
	61.02411796443019654 -4.40970463071225538 -13.76494088550025197 
	60.92985178153313797 -4.212406019841521854 -13.40936812817986201 
	60.87933530550674988 -4.1021509703536152 -13.2389413614805207 
	60.76144472268489949 -3.831468176131459735 -12.87030268365978714 
	60.68086751137327184 -3.634274234625263222 -12.64618123906593183 
	60.52186568886890683 -3.196740394163271937 -12.24402881848378755 
	60.44390637389078336 -2.956341035144580687 -12.06587871204403584 
	60.34813623225716128 -2.617904502203705519 -11.85790915687747216 
	60.31663891835241031 -2.499627123459439826 -11.79137716679468362 
	60.25719695411872578 -2.256857638453559023 -11.66890350505167717 
	60.22928450118597965 -2.132365287321639435 -11.61294669452053796 
	60.14422636208433914 -1.719335607931492538 -11.4451527910272457 
	60.089504309963786 -1.38004331798865687 -11.34316172789578658 
	60.01728133770632212 -0.6839389329660949812 -11.21083323182095803 
	60.00000000000000711 -0.327133720137950057 -11.1803398874989508 
	60.00000000000000711 -1.296921548676019537e-15 -11.1803398874989508 
	0.001000000000000000021 
	cone 70 0 0 0 0 1 10 0 0 1 I I 0 1 10 forward I I I I 
	torus 50 0 0 0 -1 6.123232939436859187e-17 20 5 1 0 0 forward_v I I I I 
	nullbs 
	nullbs 
	I I 
	0 
	0 
	0 
	} I I #
point $-1 60 7.227496078864772375e-17 11.18033988749894547 #
loop $-1 $-1 $138 $126 #
face $-1 $139 $112 $2 $-1 $140 reversed single #
point $-1 1.209484618170113223e-13 -40 -17.3205080756887746 #
face $-1 $141 $142 $2 $-1 $143 forward single #
loop $-1 $-1 $144 $115 #
plane-surface $-1 0 20 40 0 -1 0 0 0 -1 forward_v I I I I #
loop $-1 $-1 $145 $100 #
coedge $-1 $132 $132 $117 $133 forward $146 $-1 #
edge $-1 $147 0 $147 32.17782285839188461 $132 $148 forward 7 unknown #
vertex $-1 $119 $149 #
ellipse-curve $-1 70 0 50 0 0 1 10 0 0 1 I I #
point $-1 80 0 -50 #
point $-1 60 -1.296921548676019537e-15 -11.18033988749894547 #
coedge $-1 $150 $151 $152 $153 forward $125 $-1 #
face $-1 $154 $155 $2 $-1 $156 reversed single #
plane-surface $-1 0 -40 0 0 1 0 0 0 1 forward_v I I I I #
face $-1 $157 $158 $2 $-1 $159 forward single #
loop $-1 $-1 $160 $128 #
plane-surface $-1 20 0 40 -1 0 0 0 0 1 forward_v I I I I #
coedge $-1 $161 $162 $163 $164 reversed $129 $-1 #
coedge $-1 $145 $145 $165 $166 reversed $131 $-1 #
loop $-1 $167 $132 $168 #
vertex $-1 $133 $169 #
intcurve-curve $-1 forward { surfintcur full nubs 3 periodic 35 
	0 3 0.895300413875671719 2 1.790600827751343438 2 2.727108250905115661 2 3.663615674058887439 2 
	4.666711202450669838 2 5.66980673084245268 2 6.767465555264057464 2 7.865124379685662248 2 9.007314780176056246 2 
	10.14950518066644847 2 11.26668737225290329 2 12.38386956383935811 2 13.38066975120090518 2 14.37746993856245048 2 
	15.23319068387917952 2 15.66105105653754492 2 16.08891142919591033 2 16.51677180185427574 2 16.94463217451264114 2 
	17.80035291982937196 2 18.79715310719091548 2 19.79395329455245545 2 20.91113548613891027 2 22.02831767772536153 2 
	23.17050807821575376 2 24.31269847870614953 2 25.41035730312775343 2 26.50801612754936087 2 27.51111165594114638 2 
	28.51420718433293189 2 29.45071460748670589 2 30.38722203064047989 2 31.28252244451618225 2 32.17782285839188461 3 
	40 1.403008922140817717e-15 22.91287847477919826 
	40 0.2984334712918920163 22.91287847477919826 
	40 0.6240789606606211848 22.88176422185418701 
	40 1.260567091808541873 22.74840228537693676 
	40 1.571420313597214902 22.64620510136133902 
	40 2.131460880399306035 22.40291491714448924 
	40 2.430663726494773247 22.23698638612738776 
	40 2.986112209277438811 21.84393471952879295 
	40 3.24244362311919998 21.61693281560236457 
	40 3.686899494872983851 21.14739516923373941 
	40 3.912617981287507707 20.85864778364073402 
	40 4.299130449639643636 20.24011782426913442 
	40 4.460108790125668854 19.91045047319335737 
	40 4.714181906586208726 19.25791775674726125 
	40 4.825172252726485311 18.87242396659834753 
	40 4.967965479279645713 18.08664120770115957 
	40 4.999999999999997335 17.68639435049603748 
	40 5.000000000000004441 16.93977794219203759 
	40 4.96528138439290867 16.523554082067065 
	40 4.81810204681880716 15.70493611182840255 
	40 4.705756378559072139 15.30252132038010693 
	40 4.446526596146446408 14.59541738420250212 
	40 4.276636747158142349 14.22368024250386043 
	40 3.869898489630130278 13.51934763120920735 
	40 3.632891221776452184 13.18684391169420955 
	40 3.17445016516946632 12.65170035078365274 
	40 2.916027778998281139 12.39436268185010981 
	40 2.351149798101396016 11.94130355416220546 
	40 2.044336529427926763 11.74602822675371172 
	40 1.490281477841910007 11.47337851164916245 
	40 1.197909210188998985 11.36221820934511761 
	40 0.7460548897548222591 11.25218021328227636 
	40 0.5932509290726305506 11.22459477168593089 
	40 0.2915334443636991013 11.18867546507723709 
	40 0.1426201242194908292 11.1803398874989508 
	40 -0.1426201242194194418 11.18033988749894725 
	40 -0.2915334443636269923 11.18867546507723354 
	40 -0.5932509290725587192 11.22459477168592024 
	40 -0.7460548897547507607 11.25218021328226214 
	40 -1.197909210188929485 11.3622182093450963 
	40 -1.490281477841843394 11.47337851164913403 
	40 -2.044336529427863702 11.74602822675367619 
	40 -2.351149798101333399 11.94130355416216815 
	40 -2.916027778998221187 12.39436268185006185 
	40 -3.174450165169409921 12.65170035078359412 
	40 -3.632891221776401558 13.18684391169414383 
	40 -3.869898489630085425 13.51934763120913807 
	40 -4.276636747158105045 14.22368024250378404 
	40 -4.446526596146411769 14.59541738420242396 
	40 -4.705756378559044606 15.30252132038002522 
	40 -4.818102046818784068 15.7049361118283155 
	40 -4.965281384392896236 16.52355408206697973 
	40 -4.999999999999998224 16.93977794219195232 
	40 -5 17.68639435049595932 
	40 -4.967965479279652818 18.08664120770108141 
	40 -4.825172252726503075 18.87242396659826937 
	40 -4.714181906586231818 19.25791775674718664 
	40 -4.460108790125699052 19.91045047319328631 
	40 -4.299130449639676499 20.24011782426906692 
	40 -3.912617981287547675 20.85864778364067362 
	40 -3.686899494873027372 21.14739516923368257 
	40 -3.242443623119248386 21.61693281560231483 
	39.99999999999999289 -2.986112209277489882 21.84393471952874677 
	39.99999999999999289 -2.43066372649482787 22.23698638612734868 
	40 -2.131460880399363766 22.40291491714446082 
	40 -1.571420313597265528 22.64620510136132481 
	40.00000000000000711 -1.260567091808581619 22.7484022853769261 
	40.00000000000000711 -0.6240789606606398365 22.88176422185418346 
	40 -0.2984334712918996213 22.91287847477919826 
	40 1.403008922140817717e-15 22.91287847477919826 
	0.001000000000000000021 
	torus 50 0 0 0 -1 6.123232939436859187e-17 20 5 1 0 0 forward_v I I I I 
	plane 40 0 0 1 0 0 0 0 1 reverse_v I I I I 
	nullbs 
	nullbs 
	I I 
	0 
	0 
	0 
	} I I #
point $-1 80 0 50 #
coedge $-1 $170 $138 $171 $172 reversed $125 $-1 #
coedge $-1 $138 $170 $173 $174 reversed $125 $-1 #
coedge $-1 $175 $176 $138 $153 reversed $155 $-1 #
edge $-1 $177 -40 $178 40 $152 $179 forward 7 unknown #
face $-1 $168 $180 $2 $-1 $181 reversed single #
loop $-1 $-1 $182 $139 #
plane-surface $-1 -40 0 0 1 0 0 0 0 -1 forward_v I I I I #
face $-1 $183 $184 $2 $-1 $185 forward single #
loop $-1 $-1 $186 $141 #
plane-surface $-1 -20 0 40 1 0 0 0 0 -1 forward_v I I I I #
coedge $-1 $187 $188 $189 $190 reversed $142 $-1 #
coedge $-1 $191 $144 $192 $193 forward $129 $-1 #
coedge $-1 $144 $194 $195 $196 reversed $129 $-1 #
coedge $-1 $195 $197 $144 $164 forward $198 $199 #
edge $-1 $200 -38.69225703317903253 $201 -19.34348186000433145 $163 $202 forward 7 unknown #
coedge $-1 $165 $165 $145 $166 forward $167 $-1 #
edge $-1 $203 0 $203 32.17782285839188461 $165 $204 forward 7 unknown #
loop $-1 $205 $165 $168 #
face $-1 $-1 $146 $2 $-1 $206 reversed single #
point $-1 40 1.403008922140817717e-15 22.91287847477920536 #
coedge $-1 $151 $150 $207 $208 reversed $125 $-1 #
coedge $-1 $209 $210 $150 $172 forward $211 $-1 #
edge $-1 $212 -40 $178 40 $150 $213 forward 7 unknown #
coedge $-1 $214 $215 $151 $174 forward $216 $217 #
edge $-1 $177 0 $218 80 $151 $219 forward 7 unknown #
coedge $-1 $182 $152 $215 $220 reversed $155 $-1 #
coedge $-1 $152 $182 $209 $221 reversed $155 $-1 #
vertex $-1 $220 $222 #
vertex $-1 $221 $223 #
straight-curve $-1 -40 -40 0 0 0 -1 I I #
loop $-1 $-1 $224 $154 #
plane-surface $-1 0 40 0 0 -1 0 0 0 -1 forward_v I I I I #
coedge $-1 $176 $175 $225 $226 forward $155 $-1 #
face $-1 $227 $228 $2 $-1 $229 forward single #
loop $-1 $-1 $230 $157 #
plane-surface $-1 0 -20 40 0 1 0 0 0 1 forward_v I I I I #
coedge $-1 $231 $232 $233 $234 reversed $158 $-1 #
coedge $-1 $235 $160 $194 $236 forward $142 $-1 #
coedge $-1 $160 $237 $238 $239 reversed $142 $-1 #
coedge $-1 $238 $195 $160 $190 forward $198 $240 #
edge $-1 $241 -38.02277757731803831 $242 -19.01398965101180849 $189 $243 forward 7 unknown #
coedge $-1 $244 $161 $245 $246 forward $129 $-1 #
coedge $-1 $232 $247 $161 $193 reversed $158 $-1 #
edge $-1 $200 -0.8645629115783464158 $248 20 $161 $249 forward 7 unknown #
coedge $-1 $162 $244 $187 $236 reversed $129 $-1 #
coedge $-1 $189 $163 $162 $196 forward $198 $250 #
edge $-1 $201 -19.34348186000433145 $241 0 $195 $251 forward 7 unknown #
coedge $-1 $163 $233 $232 $252 forward $198 $253 #
loop $-1 $216 $254 $255 #
pcurve $-1 0 forward { exppc nubs 1 open 2 
	-38.69225703317903253 1 -19.34348186000433145 1 
	22.09664009910036242 57.90335990089963758 
	40 57.90335990089963758 
	3.368352107639071777e-05 
	spline forward { exactsur full nubs 3 3 open open none none 3 3 
	0 3 40 1 80 3 
	0 3 40 1 80 3 
	-40 -40 40 
	-30.57190958417936599 -40 49.42809041582063401 
	0 -40 40 
	30.57190958417936599 -40 30.57190958417936599 
	40 -40 40 
	-40 -30.57190958417936599 49.42809041582063401 
	-30.57190958417936599 -30.57190958417936599 58.85618083164126801 
	0 -30.57190958417935889 47.85674201318386167 
	30.57190958417936599 -30.57190958417936599 43.14269680527354467 
	40 -30.57190958417936599 49.42809041582063401 
	-40 0 40 
	-30.57190958417935889 0 47.85674201318386167 
	0 0 30.57190958417936599 
	30.57190958417935889 0 32.14325798681613833 
	40 0 30.57190958417936599 
	-40 30.57190958417936599 30.57190958417936599 
	-30.57190958417936599 30.57190958417936599 43.14269680527354467 
	0 30.57190958417935889 32.14325798681613833 
	30.57190958417936599 30.57190958417936599 52.57078722109417868 
	40 30.57190958417936599 49.42809041582063401 
	-40 40 40 
	-30.57190958417936599 40 49.42809041582063401 
	0 40 30.57190958417936599 
	30.57190958417936599 40 49.42809041582063401 
	40 40 40 
	0 
	0 
	0 
	1 40 
	0 
	0 
	1 40 
	F 1 F 0 F 1 F 0 } I I I I 
	} 0 0 #
vertex $-1 $252 $256 #
vertex $-1 $164 $257 #
intcurve-curve $-1 forward { surfintcur full nubs 3 open 2 
	-38.69225703317903253 3 -19.34348186000433145 3 
	-20 20.00000000000000355 40.86456291157833931 
	-13.68336688197151751 20.00000000000000355 40.34461452537724568 
	-6.842009003555060254 20 39.00587767265072614 
	-7.404434692442765519e-10 20 39.034189206532524 
	3.368352106928529041e-05 
	plane 0 20 40 0 1 0 0 0 -1 reverse_v I I I I 
	spline forward { ref 4 } I I I I 
	nullbs 
	nubs 3 open 2 
	-38.69225703317903253 3 -19.34348186000433145 3 
	22.09664009910036242 57.90335990089963758 
	27.74660000252524128 57.90335990089963758 
	33.90068972688835913 57.90335990089963758 
	40 57.90335990089963758 
	
	I I 
	0 
	0 
	0 
	} I I #
vertex $-1 $166 $258 #
intcurve-curve $-1 forward { surfintcur full nubs 3 periodic 35 
	0 3 0.8953004138757032493 2 1.790600827751406499 2 2.727108250905181386 2 3.663615674058955829 2 
	4.66671120245074178 2 5.669806730842527287 2 6.767465555264132959 2 7.865124379685738631 2 9.007314780176132629 2 
	10.14950518066652663 2 11.26668737225298145 2 12.38386956383943449 2 13.38066975120097624 2 14.37746993856251798 2 
	15.23319068387924702 2 15.66105105653761242 2 16.08891142919597783 2 16.51677180185434324 2 16.94463217451270864 2 
	17.80035291982943946 2 18.79715310719098653 2 19.79395329455253361 2 20.91113548613898843 2 22.02831767772544325 2 
	23.17050807821583547 2 24.31269847870622769 2 25.41035730312783159 2 26.50801612754943548 2 27.51111165594121744 2 
	28.51420718433299939 2 29.45071460748677339 2 30.38722203064054384 2 31.28252244451621422 2 32.17782285839188461 3 
	40 -1.403008922140817717e-15 -22.91287847477919826 
	40 -0.2984334712919025079 -22.91287847477919826 
	40 -0.6240789606606427231 -22.88176422185418346 
	40 -1.260567091808584506 -22.7484022853769261 
	40 -1.571420313597268192 -22.64620510136132481 
	40 -2.131460880399366431 -22.40291491714445726 
	40 -2.43066372649483009 -22.23698638612734868 
	40 -2.986112209277492102 -21.84393471952874677 
	40 -3.24244362311925105 -21.61693281560231483 
	40 -3.686899494873030481 -21.14739516923368257 
	39.99999999999999289 -3.912617981287554336 -20.85864778364067007 
	39.99999999999999289 -4.299130449639682716 -20.24011782426906336 
	40 -4.460108790125700828 -19.91045047319328631 
	40 -4.714181906586233595 -19.25791775674718664 
	40 -4.825172252726504851 -18.87242396659826937 
	40 -4.967965479279655483 -18.08664120770107786 
	40 -5.000000000000001776 -17.68639435049595576 
	40 -5 -16.93977794219195587 
	40 -4.965281384392898012 -16.52355408206697973 
	40 -4.818102046818785844 -15.70493611182831728 
	40 -4.705756378559046382 -15.30252132038002699 
	40 -4.446526596146412658 -14.59541738420242396 
	40 -4.276636747158106822 -14.22368024250378582 
	40 -3.869898489630087202 -13.51934763120913985 
	40 -3.632891221776402446 -13.18684391169414383 
	40 -3.174450165169411253 -12.65170035078359234 
	40 -2.91602777899822474 -12.39436268185005474 
	40 -2.35114979810133784 -11.94130355416216105 
	40 -2.044336529427864591 -11.74602822675367619 
	40 -1.490281477841844726 -11.47337851164913403 
	40 -1.197909210188931262 -11.3622182093450963 
	40 -0.7460548897547528702 -11.25218021328226214 
	40 -0.5932509290725608286 -11.22459477168592024 
	40 -0.2915334443636287687 -11.18867546507723354 
	40 -0.1426201242194209684 -11.18033988749894725 
	40 0.1426201242194893304 -11.1803398874989508 
	40 0.291533444363697325 -11.18867546507723709 
	40 0.5932509290726284412 -11.22459477168593089 
	40 0.7460548897548198166 -11.25218021328227636 
	40 1.197909210188996987 -11.36221820934511761 
	40 1.490281477841908675 -11.47337851164916245 
	40 2.044336529427925875 -11.74602822675371172 
	40 2.351149798101394683 -11.94130355416220901 
	40 2.916027778998278919 -12.39436268185011336 
	40 3.174450165169464544 -12.65170035078365274 
	40 3.632891221776450408 -13.18684391169420955 
	40 3.869898489630128502 -13.51934763120920735 
	40 4.276636747158140572 -14.22368024250386043 
	40 4.446526596146444632 -14.59541738420250212 
	40 4.705756378559070363 -15.3025213203801087 
	40 4.818102046818805384 -15.70493611182840255 
	40 4.965281384392906894 -16.523554082067065 
	40 5.000000000000002665 -16.93977794219203759 
	40 4.999999999999995559 -17.68639435049603748 
	40 4.967965479279643937 -18.08664120770115957 
	40 4.825172252726483535 -18.87242396659834753 
	40 4.714181906586206949 -19.25791775674726125 
	40 4.460108790125667078 -19.91045047319335737 
	40 4.29913044963964186 -20.24011782426913442 
	40 3.912617981287505931 -20.85864778364073402 
	40 3.686899494872981187 -21.14739516923373941 
	40 3.242443623119196872 -21.61693281560236457 
	40 2.986112209277436147 -21.84393471952879295 
	40 2.430663726494770582 -22.23698638612738776 
	40 2.131460880399302926 -22.40291491714448924 
	40 1.571420313597212237 -22.64620510136133902 
	40 1.260567091808539431 -22.74840228537693676 
	40 0.6240789606606182982 -22.88176422185418701 
	40 0.2984334712918891297 -22.91287847477919826 
	40 -1.403008922140817717e-15 -22.91287847477919826 
	0.001000000000000000021 
	torus 50 0 0 0 -1 6.123232939436859187e-17 20 5 1 0 0 forward_v I I I I 
	plane 40 0 0 1 0 0 0 0 1 reverse_v I I I I 
	nullbs 
	nullbs 
	I I 
	0 
	0 
	0 
	} I I #
loop $-1 $-1 $207 $168 #
plane-surface $-1 40 0 0 -1 0 0 0 0 1 forward_v I I I I #
coedge $-1 $259 $260 $170 $208 forward $205 $-1 #
edge $-1 $218 -40 $212 40 $207 $261 forward 7 unknown #
coedge $-1 $262 $171 $176 $221 forward $211 $-1 #
coedge $-1 $171 $262 $259 $263 forward $211 $-1 #
loop $-1 $-1 $210 $264 #
vertex $-1 $208 $265 #
straight-curve $-1 0 -40 -40 -1 0 0 I I #
coedge $-1 $266 $173 $260 $267 forward $216 $268 #
coedge $-1 $173 $266 $175 $220 forward $216 $269 #
loop $-1 $-1 $214 $255 #
pcurve $-1 0 forward { exppc nubs 1 open 2 
	0 1 80 1 
	0 0 
	80 0 
	0 
	spline forward { ref 4 } I I I I 
	} 0 0 #
vertex $-1 $267 $270 #
intcurve-curve $-1 forward { exactcur full nubs 3 open 3 
	0 3 40 1 80 3 
	-40 -40 40 
	-30.57190958417936599 -40 49.42809041582063401 
	0 -40 40 
	30.57190958417936599 -40 30.57190958417936599 
	40 -40 40 
	0 
	spline forward { ref 4 } I I I I 
	plane 0 -40 0 0 -1 0 0 0 1 reverse_v I I I I 
	nubs 1 open 2 
	0 1 80 1 
	0 0 
	80 0 
	
	nullbs 
	I I 
	0 
	0 
	0 
	F 1 F 0 } I I #
edge $-1 $271 -80 $177 -0 $175 $272 reversed 7 unknown #
edge $-1 $178 -40 $273 40 $176 $274 forward 7 unknown #
point $-1 -40 -40 40 #
point $-1 -40 -40 -40 #
coedge $-1 $275 $276 $277 $278 forward $180 $-1 #
coedge $-1 $276 $275 $182 $226 reversed $180 $-1 #
edge $-1 $271 -40 $273 40 $225 $279 forward 7 unknown #
face $-1 $280 $281 $2 $-1 $229 forward single #
loop $-1 $-1 $282 $183 #
plane-surface $-1 0 0 20 0 0 1 1 0 0 forward_v I I I I #
coedge $-1 $283 $284 $285 $286 reversed $184 $-1 #
coedge $-1 $287 $186 $288 $289 forward $158 $-1 #
coedge $-1 $186 $192 $197 $252 reversed $158 $-1 #
coedge $-1 $197 $254 $186 $234 forward $198 $290 #
edge $-1 $291 -40.95659198019779268 $292 -19.9091827368935661 $233 $293 forward 7 unknown #
coedge $-1 $294 $187 $295 $296 forward $142 $-1 #
edge $-1 $241 -1.734920429805299591 $297 20 $187 $298 forward 7 unknown #
coedge $-1 $188 $294 $283 $299 reversed $142 $-1 #
coedge $-1 $285 $189 $188 $239 forward $198 $300 #
edge $-1 $242 -19.01398965101180849 $301 0 $238 $302 forward 7 unknown #
pcurve $-1 0 forward { exppc nubs 1 open 2 
	-38.02277757731803831 1 -19.01398965101180849 1 
	57.90335990089963758 57.90335990089963758 
	57.90335990089963758 40 
	3.368352107492422591e-05 
	spline forward { ref 4 } I I I I 
	} 0 0 #
vertex $-1 $196 $303 #
vertex $-1 $190 $304 #
intcurve-curve $-1 forward { surfintcur full nubs 3 open 2 
	-38.02277757731803831 3 -19.01398965101180849 3 
	20 20 41.73492042980529959 
	20 13.68004522619659369 40.45716913327636632 
	20 6.840137210538640211 39.06249299513228124 
	20 4.365986719876349738e-10 39.03418920653739832 
	3.368352106211473638e-05 
	plane 20 0 40 1 0 0 0 0 1 reverse_v I I I I 
	spline forward { ref 4 } I I I I 
	nullbs 
	nubs 3 open 2 
	-38.02277757731803831 3 -19.01398965101180849 3 
	57.90335990089963758 57.90335990089963758 
	57.90335990089963758 52.18338716337146366 
	57.90335990089963758 46.0680492169215583 
	57.90335990089963758 40 
	
	I I 
	0 
	0 
	0 
	} I I #
coedge $-1 $194 $191 $305 $306 forward $129 $-1 #
coedge $-1 $307 $308 $191 $246 reversed $309 $-1 #
edge $-1 $248 -20 $310 0 $191 $311 forward 7 unknown #
coedge $-1 $192 $287 $307 $312 forward $158 $-1 #
vertex $-1 $246 $313 #
straight-curve $-1 -20 20 40 0 0 -1 I I #
pcurve $-1 0 forward { exppc nubs 1 open 2 
	-19.34348186000433145 1 0 1 
	40 57.90335990089963758 
	57.90335990089963758 57.90335990089963758 
	3.368352107994343145e-05 
	spline forward { ref 4 } I I I I 
	} 0 0 #
intcurve-curve $-1 forward { surfintcur full nubs 3 open 2 
	-19.34348186000433145 3 0 3 
	-7.404434692442765519e-10 20 39.034189206532524 
	6.840137209361600412 20 39.06249299512740691 
	13.68004522619659369 20 40.45716913327636632 
	20 20 41.73492042980529959 
	3.368352106928529041e-05 
	plane 0 20 40 0 1 0 0 0 -1 reverse_v I I I I 
	spline forward { ref 4 } I I I I 
	nullbs 
	nubs 3 open 2 
	-19.34348186000433145 3 0 3 
	40 57.90335990089963758 
	46.0680492169215583 57.90335990089963758 
	52.18338716337146366 57.90335990089963758 
	57.90335990089963758 57.90335990089963758 
	
	I I 
	0 
	0 
	1 -19.34348185930635822 
	} I I #
edge $-1 $292 -19.9091827368935661 $200 0 $197 $314 forward 7 unknown #
pcurve $-1 0 forward { exppc nubs 1 open 2 
	-19.9091827368935661 1 0 1 
	22.09664009910036242 40 
	22.09664009910036242 57.90335990089963758 
	0.0003830534781655364155 
	spline forward { ref 4 } I I I I 
	} 0 0 #
coedge $-1 $233 $285 $284 $315 forward $198 $316 #
face $-1 $264 $198 $2 $-1 $317 forward single #
point $-1 -20 20 40.86456291157834642 #
point $-1 -7.404434692442765519e-10 20 39.034189206532524 #
point $-1 40 -1.403008922140817717e-15 -22.91287847477920536 #
coedge $-1 $277 $207 $210 $263 reversed $205 $-1 #
coedge $-1 $207 $277 $214 $267 reversed $205 $-1 #
straight-curve $-1 40 -40 0 0 0 -1 I I #
coedge $-1 $210 $209 $275 $318 forward $211 $-1 #
edge $-1 $319 -40 $212 40 $259 $320 forward 7 unknown #
face $-1 $126 $211 $2 $-1 $321 reversed single #
point $-1 40 -40 -40 #
coedge $-1 $215 $214 $276 $322 forward $216 $323 #
edge $-1 $218 0 $324 80 $260 $325 forward 7 unknown #
pcurve $-1 0 forward { exppc nubs 1 open 2 
	0 1 80 1 
	80 0 
	80 80 
	0 
	spline forward { ref 4 } I I I I 
	} 0 0 #
pcurve $-1 0 reversed { exppc nubs 1 open 2 
	0 1 80 1 
	0 0 
	0 80 
	0 
	spline forward { ref 4 } I I I I 
	} 0 0 #
point $-1 40 -40 40 #
vertex $-1 $322 $326 #
intcurve-curve $-1 forward { exactcur full nubs 3 open 3 
	0 3 40 1 80 3 
	-40 -40 40 
	-40 -30.57190958417936599 49.42809041582063401 
	-40 0 40 
	-40 30.57190958417936599 30.57190958417936599 
	-40 40 40 
	0 
	plane -40 0 0 -1 0 0 0 0 -1 reverse_v I I I I 
	spline forward { ref 4 } I I I I 
	nullbs 
	nubs 1 open 2 
	0 1 80 1 
	0 0 
	0 80 
	
	I I 
	0 
	0 
	0 
	F 1 F 0 } I I #
vertex $-1 $318 $327 #
straight-curve $-1 -40 0 -40 0 1 0 I I #
coedge $-1 $225 $224 $262 $318 reversed $180 $-1 #
coedge $-1 $224 $225 $266 $322 reversed $180 $-1 #
coedge $-1 $260 $259 $224 $278 reversed $205 $-1 #
edge $-1 $324 -40 $319 40 $277 $328 forward 7 unknown #
straight-curve $-1 -40 40 0 0 0 -1 I I #
face $-1 $329 $309 $2 $-1 $229 forward single #
loop $-1 $-1 $330 $227 #
coedge $-1 $331 $332 $333 $334 reversed $228 $-1 #
coedge $-1 $335 $230 $237 $299 forward $184 $-1 #
coedge $-1 $230 $288 $254 $315 reversed $184 $-1 #
coedge $-1 $254 $238 $230 $286 forward $198 $336 #
edge $-1 $301 -37.42904824643903794 $337 -19.23462031242905113 $285 $338 forward 7 unknown #
coedge $-1 $247 $231 $339 $340 forward $158 $-1 #
coedge $-1 $284 $341 $231 $289 reversed $184 $-1 #
edge $-1 $291 -9.056415249976275561 $342 20 $231 $343 forward 7 unknown #
pcurve $-1 0 forward { exppc nubs 1 open 2 
	-40.95659198019779268 1 -19.9091827368935661 1 
	22.09664009910036242 22.09664009910036242 
	22.09664009910036242 40 
	0.0003830534781655364155 
	spline forward { ref 4 } I I I I 
	} 0 0 #
vertex $-1 $315 $344 #
vertex $-1 $234 $345 #
intcurve-curve $-1 forward { surfintcur full nubs 3 open 2 
	-40.95659198019779268 3 -19.9091827368935661 3 
	-19.99999999999999289 -20 49.05641524997626846 
	-19.99999999999999289 -13.68290271174513606 47.95999910737468497 
	-20 -6.842158952846365771 45.76727150780230602 
	-20 2.639830792786913443e-15 44.09592616919896813 
	0.0003830534781655364155 
	plane -20 0 40 -1 0 0 0 0 -1 reverse_v I I I I 
	spline forward { ref 4 } I I I I 
	nullbs 
	nubs 3 open 2 
	-40.95659198019779268 3 -19.9091827368935661 3 
	22.09664009910036242 22.09664009910036242 
	22.09664009910036242 27.6672610826731713 
	22.09664009910036242 33.88045058715917435 
	22.09664009910036242 40 
	
	I I 
	0 
	0 
	0 
	} I I #
coedge $-1 $237 $235 $332 $346 forward $142 $-1 #
coedge $-1 $305 $330 $235 $296 reversed $281 $-1 #
edge $-1 $297 -20 $347 0 $235 $348 forward 7 unknown #
vertex $-1 $296 $349 #
straight-curve $-1 20 20 40 0 0 -1 I I #
edge $-1 $301 -0.8645629115783464158 $350 20 $237 $351 forward 7 unknown #
pcurve $-1 0 forward { exppc nubs 1 open 2 
	-19.01398965101180849 1 0 1 
	57.90335990089963758 40 
	57.90335990089963758 22.09664009910036242 
	3.368352107277287742e-05 
	spline forward { ref 4 } I I I I 
	} 0 0 #
vertex $-1 $286 $352 #
intcurve-curve $-1 forward { surfintcur full nubs 3 open 2 
	-19.01398965101180849 3 0 3 
	20 4.365986719876349738e-10 39.03418920653739832 
	20 -6.842009002378019566 39.00587767265560046 
	20.00000000000000355 -13.68336688197153528 40.34461452537724568 
	20.00000000000000355 -20 40.86456291157833931 
	3.368352106211473638e-05 
	plane 20 0 40 1 0 0 0 0 1 reverse_v I I I I 
	spline forward { ref 4 } I I I I 
	nullbs 
	nubs 3 open 2 
	-19.01398965101180849 3 0 3 
	57.90335990089963758 40 
	57.90335990089963758 33.90068972688835913 
	57.90335990089963758 27.74660000252522707 
	57.90335990089963758 22.09664009910036242 
	
	I I 
	0 
	0 
	1 -19.01398965060737112 
	} I I #
point $-1 20 20 41.73492042980529959 #
point $-1 20 4.365986719876349738e-10 39.03418920653739832 #
coedge $-1 $330 $295 $244 $306 reversed $281 $-1 #
edge $-1 $310 0 $297 20 $244 $311 forward 7 unknown #
coedge $-1 $308 $245 $247 $312 reversed $309 $-1 #
coedge $-1 $245 $307 $353 $354 reversed $309 $-1 #
loop $-1 $-1 $308 $280 #
vertex $-1 $355 $356 #
straight-curve $-1 0 20 20 1 0 0 I I #
edge $-1 $357 0 $248 20 $247 $358 forward 7 unknown #
point $-1 -20 20 20 #
intcurve-curve $-1 forward { surfintcur full nubs 3 open 2 
	-19.9091827368935661 3 0 3 
	-20 2.639830792786913443e-15 44.09592616919896813 
	-20 6.472140648399597573 42.51496580595165398 
	-20 13.37757993367811693 41.29500576332986839 
	-20 20.00000000000000355 40.86456291157833931 
	0.0003830534781655364155 
	plane -20 0 40 -1 0 0 0 0 -1 reverse_v I I I I 
	spline forward { ref 4 } I I I I 
	nullbs 
	nubs 3 open 2 
	-19.9091827368935661 3 0 3 
	22.09664009910036242 40 
	22.09664009910036242 45.88764728164844087 
	22.09664009910036242 52.03872505039240082 
	22.09664009910036242 57.90335990089963758 
	
	I I 
	0 
	0 
	0 
	} I I #
edge $-1 $337 -19.23462031242905113 $291 0 $254 $359 forward 7 unknown #
pcurve $-1 0 forward { exppc nubs 1 open 2 
	-19.23462031242905113 1 0 1 
	40 22.09664009910036242 
	22.09664009910036242 22.09664009910036242 
	0.0003830534781657880588 
	spline forward { ref 4 } I I I I 
	} 0 0 #
spline-surface $-1 forward { ref 4 } I I I I #
edge $-1 $273 -40 $319 40 $275 $360 forward 7 unknown #
vertex $-1 $263 $361 #
straight-curve $-1 40 0 -40 0 -1 0 I I #
plane-surface $-1 0 0 -40 0 0 1 1 0 0 forward_v I I I I #
edge $-1 $324 -80 $271 -0 $276 $362 reversed 7 unknown #
pcurve $-1 0 reversed { exppc nubs 1 open 2 
	0 1 80 1 
	0 80 
	80 80 
	0 
	spline forward { ref 4 } I I I I 
	} 0 0 #
vertex $-1 $267 $363 #
intcurve-curve $-1 forward { exactcur full nubs 3 open 3 
	0 3 40 1 80 3 
	40 -40 40 
	40 -30.57190958417936599 49.42809041582063401 
	40 0 30.57190958417936599 
	40 30.57190958417936599 49.42809041582063401 
	40 40 40 
	0 
	spline forward { ref 4 } I I I I 
	plane 40 0 0 1 0 0 0 0 1 reverse_v I I I I 
	nubs 1 open 2 
	0 1 80 1 
	80 0 
	80 80 
	
	nullbs 
	I I 
	0 
	0 
	1 40 
	F 1 F 0 } I I #
point $-1 -40 40 40 #
point $-1 -40 40 -40 #
straight-curve $-1 40 40 0 0 0 -1 I I #
face $-1 $364 $365 $2 $-1 $229 forward single #
coedge $-1 $295 $305 $366 $355 reversed $281 $-1 #
coedge $-1 $332 $282 $335 $367 reversed $228 $-1 #
coedge $-1 $282 $331 $294 $346 reversed $228 $-1 #
coedge $-1 $366 $368 $282 $334 forward $369 $-1 #
edge $-1 $370 -1.570796326794896558 $347 0 $333 $371 forward 7 unknown #
coedge $-1 $341 $283 $331 $367 forward $184 $-1 #
pcurve $-1 0 forward { exppc nubs 1 open 2 
	-37.42904824643903794 1 -19.23462031242905113 1 
	57.90335990089963758 22.09664009910036242 
	40 22.09664009910036242 
	0.0003830534781657880588 
	spline forward { ref 4 } I I I I 
	} 0 0 #
vertex $-1 $286 $372 #
intcurve-curve $-1 forward { surfintcur full nubs 3 open 2 
	-37.42904824643903794 3 -19.23462031242905113 3 
	20.00000000000000355 -20 40.86456291157833931 
	13.37757993367811693 -20 41.29500576332986839 
	6.472140648399590468 -20 42.51496580595165398 
	-7.332320425629813844e-15 -20 44.09592616919896813 
	0.0003830534781657880588 
	plane 0 -20 40 0 -1 0 0 0 1 reverse_v I I I I 
	spline forward { ref 4 } I I I I 
	nullbs 
	nubs 3 open 2 
	-37.42904824643903794 3 -19.23462031242905113 3 
	57.90335990089963758 22.09664009910036242 
	52.03872505039239371 22.09664009910036242 
	45.88764728164844087 22.09664009910036242 
	40 22.09664009910036242 
	
	I I 
	0 
	0 
	0 
	} I I #
coedge $-1 $373 $374 $287 $340 reversed $365 $-1 #
edge $-1 $342 -20 $357 0 $287 $358 forward 7 unknown #
coedge $-1 $288 $335 $373 $375 forward $184 $-1 #
vertex $-1 $340 $376 #
straight-curve $-1 -20 -20 40 0 0 -1 I I #
point $-1 -20 -20 49.05641524997627556 #
point $-1 -20 2.639830792786913443e-15 44.09592616919896813 #
edge $-1 $347 0 $350 20 $294 $348 forward 7 unknown #
vertex $-1 $334 $377 #
straight-curve $-1 20 0 20 0 -1 0 I I #
point $-1 20 20 20 #
vertex $-1 $299 $378 #
straight-curve $-1 20 -20 40 0 0 -1 I I #
point $-1 20 -20 40.86456291157834642 #
coedge $-1 $368 $366 $308 $354 forward $369 $-1 #
edge $-1 $310 1.570796326794896558 $357 3.141592653589793116 $353 $371 forward 7 unknown #
edge $-1 $347 0 $310 1.570796326794896558 $366 $371 forward 7 unknown #
point $-1 0 20 20 #
vertex $-1 $354 $379 #
straight-curve $-1 -20 0 20 0 1 0 I I #
intcurve-curve $-1 forward { surfintcur full nubs 3 open 2 
	-19.23462031242905113 3 0 3 
	-7.332320425629813844e-15 -20 44.09592616919896813 
	-6.842158952846383535 -20 45.76727150780230602 
	-13.68290271174513251 -20 47.95999910737468497 
	-19.99999999999999289 -20 49.05641524997626846 
	0.0003830534781657880588 
	plane 0 -20 40 0 -1 0 0 0 1 reverse_v I I I I 
	spline forward { ref 4 } I I I I 
	nullbs 
	nubs 3 open 2 
	-19.23462031242905113 3 0 3 
	40 22.09664009910036242 
	33.88045058715916014 22.09664009910036242 
	27.6672610826731713 22.09664009910036242 
	22.09664009910036242 22.09664009910036242 
	
	I I 
	0 
	0 
	0 
	} I I #
straight-curve $-1 0 40 -40 1 0 0 I I #
point $-1 40 40 -40 #
intcurve-curve $-1 forward { exactcur full nubs 3 open 3 
	0 3 40 1 80 3 
	-40 40 40 
	-30.57190958417936599 40 49.42809041582063401 
	0 40 30.57190958417936599 
	30.57190958417936599 40 49.42809041582063401 
	40 40 40 
	0 
	plane 0 40 0 0 1 0 0 0 -1 reverse_v I I I I 
	spline forward { ref 4 } I I I I 
	nullbs 
	nubs 1 open 2 
	0 1 80 1 
	0 80 
	80 80 
	
	I I 
	0 
	0 
	1 40 
	F 1 F 0 } I I #
point $-1 40 40 40 #
face $-1 $380 $369 $2 $-1 $381 reversed single #
loop $-1 $-1 $374 $329 #
coedge $-1 $353 $333 $330 $355 forward $369 $-1 #
edge $-1 $350 -20 $370 0 $335 $382 forward 7 unknown #
coedge $-1 $333 $353 $374 $383 forward $369 $-1 #
loop $-1 $384 $333 $364 #
vertex $-1 $334 $385 #
ellipse-curve $-1 0 0 20 0 0 1 20 0 0 1 I I #
point $-1 -7.332320425629813844e-15 -20 44.09592616919896813 #
coedge $-1 $374 $339 $341 $375 reversed $365 $-1 #
coedge $-1 $339 $373 $368 $383 reversed $365 $-1 #
edge $-1 $370 0 $342 20 $341 $382 forward 7 unknown #
point $-1 -20 -20 20 #
point $-1 20 0 20 #
point $-1 20 -20 20 #
point $-1 -20 0 20 #
face $-1 $386 $387 $2 $-1 $388 reversed single #
cone-surface $-1 0 0 40 0 0 1 20 0 0 1 I I 0 1 20 forward I I I I #
straight-curve $-1 0 -20 20 -1 0 0 I I #
edge $-1 $357 -3.141592653589793116 $370 -1.570796326794896558 $368 $371 forward 7 unknown #
loop $-1 $-1 $389 $364 #
point $-1 0 -20 20 #
face $-1 $390 $391 $2 $-1 $392 forward single #
loop $-1 $393 $394 $380 #
plane-surface $-1 0 0 0 0 0 -1 -1 0 0 forward_v I I I I #
coedge $-1 $389 $389 $395 $396 forward $384 $-1 #
face $-1 $397 $398 $2 $-1 $399 forward single #
loop $-1 $-1 $400 $386 #
plane-surface $-1 0 -10 30 0 1 0 0 0 1 forward_v I I I I #
loop $-1 $-1 $395 $380 #
coedge $-1 $401 $402 $403 $404 reversed $387 $-1 #
coedge $-1 $395 $395 $389 $396 reversed $393 $-1 #
edge $-1 $405 0 $405 6.283185307179586232 $395 $406 forward 7 unknown #
face $-1 $407 $408 $2 $-1 $409 forward single #
loop $-1 $-1 $410 $390 #
plane-surface $-1 10 0 30 -1 0 0 0 0 1 forward_v I I I I #
coedge $-1 $411 $412 $413 $414 forward $391 $-1 #
coedge $-1 $413 $394 $410 $415 reversed $387 $-1 #
coedge $-1 $394 $413 $416 $417 reversed $387 $-1 #
coedge $-1 $418 $419 $394 $404 forward $408 $-1 #
edge $-1 $420 -10 $421 10 $403 $422 forward 7 unknown #
vertex $-1 $396 $423 #
ellipse-curve $-1 0 0 0 0 0 -1 20 0 0 1 I I #
face $-1 $424 $425 $2 $-1 $426 forward single #
loop $-1 $-1 $403 $397 #
plane-surface $-1 0 10 30 0 -1 0 0 0 -1 forward_v I I I I #
coedge $-1 $427 $428 $401 $415 forward $398 $-1 #
coedge $-1 $429 $400 $428 $430 forward $391 $-1 #
coedge $-1 $400 $429 $431 $432 reversed $391 $-1 #
coedge $-1 $402 $401 $400 $414 reversed $387 $-1 #
edge $-1 $433 -10 $434 10 $400 $435 forward 7 unknown #
edge $-1 $434 -10 $420 10 $410 $436 forward 7 unknown #
coedge $-1 $431 $437 $402 $417 forward $438 $-1 #
edge $-1 $421 -10 $433 10 $416 $439 forward 7 unknown #
coedge $-1 $440 $403 $437 $441 forward $408 $-1 #
coedge $-1 $403 $440 $427 $442 reversed $408 $-1 #
vertex $-1 $404 $443 #
vertex $-1 $404 $444 #
straight-curve $-1 0 10 0 -1 0 0 I I #
point $-1 20 0 0 #
face $-1 $255 $438 $2 $-1 $445 forward single #
loop $-1 $-1 $446 $407 #
plane-surface $-1 0 0 -10 0 0 1 1 0 0 forward_v I I I I #
coedge $-1 $447 $410 $419 $442 forward $398 $-1 #
coedge $-1 $410 $447 $411 $430 reversed $398 $-1 #
coedge $-1 $412 $411 $448 $449 forward $391 $-1 #
edge $-1 $434 30 $450 40 $428 $451 forward 7 unknown #
coedge $-1 $452 $416 $412 $432 forward $438 $-1 #
edge $-1 $433 30 $453 40 $431 $454 forward 7 unknown #
vertex $-1 $417 $455 #
vertex $-1 $415 $456 #
straight-curve $-1 0 -10 0 1 0 0 I I #
straight-curve $-1 10 0 0 0 1 0 I I #
coedge $-1 $416 $452 $418 $441 reversed $438 $-1 #
loop $-1 $-1 $416 $424 #
straight-curve $-1 -10 0 0 0 -1 0 I I #
coedge $-1 $419 $418 $457 $458 forward $408 $-1 #
edge $-1 $421 30 $459 40 $418 $460 forward 7 unknown #
edge $-1 $420 30 $461 40 $427 $462 forward 7 unknown #
point $-1 10 10 0 #
point $-1 -10 10 0 #
plane-surface $-1 -10 0 30 1 0 0 0 0 -1 forward_v I I I I #
coedge $-1 $457 $448 $447 $463 reversed $425 $-1 #
coedge $-1 $428 $427 $446 $463 forward $398 $-1 #
coedge $-1 $446 $464 $429 $449 reversed $425 $-1 #
edge $-1 $450 -10 $453 10 $429 $465 forward 7 unknown #
vertex $-1 $430 $466 #
straight-curve $-1 10 -10 30 0 0 -1 I I #
coedge $-1 $437 $431 $464 $467 forward $438 $-1 #
vertex $-1 $467 $468 #
straight-curve $-1 -10 -10 30 0 0 -1 I I #
point $-1 -10 -10 0 #
point $-1 10 -10 0 #
coedge $-1 $464 $446 $440 $458 reversed $425 $-1 #
edge $-1 $459 -10 $461 10 $440 $469 forward 7 unknown #
vertex $-1 $458 $470 #
straight-curve $-1 -10 10 30 0 0 -1 I I #
vertex $-1 $463 $471 #
straight-curve $-1 10 10 30 0 0 -1 I I #
edge $-1 $461 -10 $450 10 $447 $472 forward 7 unknown #
coedge $-1 $448 $457 $452 $467 reversed $425 $-1 #
straight-curve $-1 0 -10 -10 -1 0 0 I I #
point $-1 10 -10 -10 #
edge $-1 $453 -10 $459 10 $452 $473 forward 7 unknown #
point $-1 -10 -10 -10 #
straight-curve $-1 0 10 -10 1 0 0 I I #
point $-1 -10 10 -10 #
point $-1 10 10 -10 #
straight-curve $-1 10 0 -10 0 -1 0 I I #
straight-curve $-1 -10 0 -10 0 1 0 I I #
End-of-ACIS-data 