600 0 1 0           
89 GICL ACIS Healer - Source: /gicl/data5/repository/UMD/drill-trace3/drill-trace3.sat - 6 0 18 ACIS 6.0.3 Solaris 24 Sun Apr 14 00:35:38 2002 
1 9.999999999999999547e-07 1.000000000000000036e-10 
body $-1 $1 $-1 $-1 #
lump $-1 $-1 $2 $0 #
shell $-1 $-1 $-1 $3 $-1 $1 #
face $-1 $4 $5 $2 $-1 $6 reversed single #
face $-1 $7 $8 $2 $-1 $9 reversed single #
loop $-1 $-1 $10 $3 #
sphere-surface $-1 0 10 -19.99999999999999645 3 -3.491481338843133355e-15 0 -1 1 0 -3.491481338843133355e-15 forward_v I I I I #
face $-1 $11 $12 $2 $-1 $13 reversed single #
loop $-1 $14 $15 $4 #
cone-surface $-1 25 10 -20.00000000000008527 1 0 -3.491481338843133355e-15 -1.047444401652940007e-14 0 -3 1 I I 0 1 3 forward I I I I #
coedge $-1 $10 $10 $16 $17 forward $5 $-1 #
face $-1 $18 $19 $2 $-1 $20 reversed single #
loop $-1 $-1 $21 $7 #
sphere-surface $-1 5 10 -10 3 -3.491481338843133355e-15 0 -1 1 0 -3.491481338843133355e-15 forward_v I I I I #
loop $-1 $-1 $16 $4 #
coedge $-1 $15 $15 $22 $23 reversed $8 $-1 #
coedge $-1 $16 $16 $10 $17 reversed $14 $-1 #
edge $-1 $24 -6.283185307179586232 $24 -0 $16 $25 reversed 7 unknown #
face $-1 $26 $27 $2 $-1 $28 reversed single #
loop $-1 $-1 $29 $11 #
sphere-surface $-1 -5 10 0 3 -3.491481338843133355e-15 0 -1 1 0 -3.491481338843133355e-15 forward_v I I I I #
coedge $-1 $21 $21 $30 $31 reversed $12 $-1 #
coedge $-1 $22 $22 $15 $23 forward $32 $-1 #
edge $-1 $33 -3.141592653589800221 $33 3.141592653589786011 $22 $34 forward 7 unknown #
vertex $-1 $17 $35 #
ellipse-curve $-1 0 10 -19.99999999999999645 -1 0 3.491481338843133355e-15 -1.047444401652940007e-14 0 -3 1 I I #
face $-1 $36 $37 $2 $-1 $38 reversed single #
loop $-1 $39 $40 $18 #
cone-surface $-1 20 10 -8.728703347107833388e-14 1 0 -3.491481338843133355e-15 -1.047444401652940007e-14 0 -3 1 I I 0 1 3 forward I I I I #
coedge $-1 $29 $29 $41 $42 forward $19 $-1 #
coedge $-1 $30 $30 $21 $31 forward $43 $-1 #
edge $-1 $44 -3.141592653589793116 $44 3.141592653589793116 $30 $45 forward 7 unknown #
loop $-1 $43 $22 $46 #
vertex $-1 $23 $47 #
ellipse-curve $-1 4.999999999999928946 10 -20.00000000000001421 -1 -0 -0 -1.047444401652940007e-14 0 -3 1 I I #
point $-1 -1.065814103640150279e-14 10 -22.99999999999999645 #
face $-1 $48 $49 $2 $-1 $50 reversed single #
loop $-1 $-1 $51 $26 #
sphere-surface $-1 0 10 10 3 -3.491481338843133355e-15 0 -1 1 0 -3.491481338843133355e-15 forward_v I I I I #
loop $-1 $-1 $41 $18 #
coedge $-1 $40 $40 $52 $53 reversed $27 $-1 #
coedge $-1 $41 $41 $29 $42 reversed $39 $-1 #
edge $-1 $54 -6.283185307179586232 $54 -0 $41 $55 reversed 7 unknown #
loop $-1 $56 $30 $46 #
vertex $-1 $31 $57 #
ellipse-curve $-1 5 10 -10 -1 -0 -0 0 0 3 1 I I #
face $-1 $58 $32 $2 $-1 $59 forward single #
point $-1 4.999999999999939604 9.999999999999978684 -17.00000000000001421 #
face $-1 $60 $61 $2 $-1 $62 forward single #
loop $-1 $63 $64 $36 #
cone-surface $-1 25 10 9.999999999999912959 1 0 -3.491481338843133355e-15 -1.047444401652940007e-14 0 -3 1 I I 0 1 3 forward I I I I #
coedge $-1 $51 $51 $65 $66 forward $37 $-1 #
coedge $-1 $52 $52 $40 $53 forward $56 $-1 #
edge $-1 $67 -3.141592653589800221 $67 3.141592653589786011 $52 $68 forward 7 unknown #
vertex $-1 $42 $69 #
ellipse-curve $-1 -5 10 0 -1 0 3.491481338843133355e-15 -1.047444401652940007e-14 0 -3 1 I I #
loop $-1 $70 $52 $46 #
point $-1 4.999999999999989342 10 -13 #
face $-1 $71 $72 $2 $-1 $73 forward single #
plane-surface $-1 5 0 0 1 0 0 0 0 -1 forward_v I I I I #
face $-1 $74 $75 $2 $-1 $76 forward single #
loop $-1 $-1 $77 $48 #
cone-surface $-1 15 30 -30 1 -0 -0 0 3.535533905932737309 -3.535533905932737309 1 I I 0 -1 5 forward I I I I #
loop $-1 $-1 $65 $36 #
coedge $-1 $64 $64 $78 $79 reversed $49 $-1 #
coedge $-1 $65 $65 $51 $66 reversed $63 $-1 #
edge $-1 $80 -6.283185307179586232 $80 -0 $65 $81 reversed 7 unknown #
vertex $-1 $53 $82 #
ellipse-curve $-1 5 10 -3.491481338843133355e-14 -1 -0 -0 -1.047444401652940007e-14 0 -3 1 I I #
point $-1 -5.000000000000010658 10 -3 #
loop $-1 $83 $78 $46 #
face $-1 $84 $85 $2 $-1 $86 forward single #
loop $-1 $-1 $87 $58 #
plane-surface $-1 15 -35 0 0 1 0 0 0 1 forward_v I I I I #
face $-1 $46 $88 $2 $-1 $89 forward single #
loop $-1 $-1 $90 $60 #
plane-surface $-1 15 0 -35 0 0 1 1 0 0 forward_v I I I I #
coedge $-1 $91 $92 $93 $94 forward $61 $-1 #
coedge $-1 $78 $78 $64 $79 forward $70 $-1 #
edge $-1 $95 -3.141592653589800221 $95 3.141592653589786011 $78 $96 forward 7 unknown #
vertex $-1 $66 $97 #
ellipse-curve $-1 0 10 10 -1 0 3.491481338843133355e-15 -1.047444401652940007e-14 0 -3 1 I I #
point $-1 5.000000000000010658 9.999999999999978684 2.999999999999964917 #
loop $-1 $-1 $98 $46 #
face $-1 $99 $100 $2 $-1 $101 forward single #
loop $-1 $-1 $102 $71 #
cone-surface $-1 15 -30 -30 -1 -0 -0 0 -3.535533905932737309 -3.535533905932737309 1 I I 0 -1 5 forward I I I I #
coedge $-1 $103 $104 $105 $106 reversed $72 $-1 #
loop $-1 $-1 $105 $74 #
cone-surface $-1 15 -30 30 1 -0 -0 0 -3.535533905932737309 3.535533905932737309 1 I I 0 -1 5 forward I I I I #
coedge $-1 $107 $108 $109 $110 reversed $75 $-1 #
coedge $-1 $109 $77 $98 $111 reversed $61 $-1 #
coedge $-1 $77 $109 $112 $113 reversed $61 $-1 #
coedge $-1 $114 $115 $77 $94 reversed $116 $-1 #
edge $-1 $117 5 $118 10 $93 $119 forward 7 unknown #
vertex $-1 $79 $120 #
ellipse-curve $-1 5.000000000000035527 10 9.999999999999982236 -1 -0 -0 -1.047444401652940007e-14 0 -3 1 I I #
point $-1 -1.065814103640150279e-14 10 7 #
coedge $-1 $121 $122 $91 $111 forward $83 $-1 #
face $-1 $123 $124 $2 $-1 $125 reversed single #
loop $-1 $-1 $126 $84 #
cone-surface $-1 15 30 30 -1 -0 0 0 3.535533905932737309 3.535533905932737309 1 I I 0 -1 5 forward I I I I #
coedge $-1 $127 $128 $129 $130 forward $85 $-1 #
coedge $-1 $129 $87 $131 $132 reversed $72 $-1 #
coedge $-1 $87 $129 $133 $134 reversed $72 $-1 #
coedge $-1 $135 $136 $87 $106 forward $88 $-1 #
edge $-1 $137 5 $138 10 $87 $139 forward 7 unknown #
coedge $-1 $140 $90 $122 $141 reversed $75 $-1 #
coedge $-1 $90 $140 $142 $143 reversed $75 $-1 #
coedge $-1 $92 $91 $90 $110 forward $61 $-1 #
edge $-1 $144 -10 $145 -5 $90 $146 forward 7 unknown #
edge $-1 $144 -0.785398163397448279 $118 0.785398163397448279 $98 $147 forward 7 unknown #
coedge $-1 $142 $148 $92 $113 forward $149 $-1 #
edge $-1 $117 -0.785398163397448279 $145 0.785398163397448279 $112 $150 forward 7 unknown #
coedge $-1 $151 $93 $148 $152 reversed $116 $-1 #
coedge $-1 $93 $151 $121 $153 forward $116 $-1 #
loop $-1 $-1 $93 $123 #
vertex $-1 $152 $154 #
vertex $-1 $153 $155 #
straight-curve $-1 15 35 -30 -1 -0 0 F -10.5 F 25.5 #
point $-1 5.000000000000046185 9.999999999999978684 12.99999999999998224 #
coedge $-1 $156 $98 $115 $153 reversed $83 $-1 #
coedge $-1 $98 $157 $107 $141 forward $83 $-1 #
face $-1 $158 $116 $2 $-1 $159 forward single #
loop $-1 $-1 $160 $99 #
plane-surface $-1 15 0 35 0 0 1 1 0 0 forward_v I I I I #
coedge $-1 $161 $162 $151 $163 forward $100 $-1 #
coedge $-1 $164 $102 $165 $166 reversed $85 $-1 #
coedge $-1 $102 $164 $157 $167 reversed $85 $-1 #
coedge $-1 $104 $103 $102 $130 reversed $72 $-1 #
edge $-1 $168 -10 $169 -5 $129 $170 forward 7 unknown #
coedge $-1 $171 $165 $103 $132 forward $149 $-1 #
edge $-1 $169 -30 $137 30 $131 $172 forward 7 unknown #
coedge $-1 $157 $173 $104 $134 forward $83 $-1 #
edge $-1 $138 -30 $168 30 $133 $174 forward 7 unknown #
coedge $-1 $175 $105 $173 $176 reversed $88 $-1 #
coedge $-1 $105 $175 $171 $177 reversed $88 $-1 #
vertex $-1 $132 $178 #
vertex $-1 $106 $179 #
straight-curve $-1 15 -35 30 -1 0 0 F -10.5 F 25.5 #
coedge $-1 $108 $107 $164 $180 reversed $75 $-1 #
edge $-1 $181 -30 $144 30 $122 $182 forward 7 unknown #
coedge $-1 $165 $112 $108 $143 forward $149 $-1 #
edge $-1 $145 -30 $183 30 $142 $184 forward 7 unknown #
vertex $-1 $141 $185 #
vertex $-1 $143 $186 #
straight-curve $-1 15 30 -35 1 -0 -0 F -25.5 F 10.5 #
ellipse-curve $-1 5 30 -30 1 0 0 0 3.535533905932737309 -3.535533905932737309 1 I I #
coedge $-1 $112 $187 $114 $152 forward $149 $-1 #
loop $-1 $188 $142 $189 #
ellipse-curve $-1 10 30 -30 -1 0 0 0 3.535533905932737309 -3.535533905932737309 1 I I #
coedge $-1 $115 $114 $126 $163 reversed $116 $-1 #
edge $-1 $190 -30 $117 30 $148 $191 forward 7 unknown #
edge $-1 $192 -30 $118 30 $115 $193 forward 7 unknown #
point $-1 10 35 -30 #
point $-1 5 35 -30 #
coedge $-1 $194 $121 $162 $195 forward $83 $-1 #
coedge $-1 $122 $133 $128 $167 forward $83 $-1 #
face $-1 $196 $197 $2 $-1 $198 forward single #
plane-surface $-1 15 35 0 0 -1 0 0 0 -1 forward_v I I I I #
coedge $-1 $199 $200 $175 $201 reversed $124 $-1 #
coedge $-1 $202 $126 $187 $203 reversed $100 $-1 #
coedge $-1 $126 $202 $156 $195 reversed $100 $-1 #
edge $-1 $192 -10 $190 -5 $151 $204 forward 7 unknown #
coedge $-1 $128 $127 $140 $180 forward $85 $-1 #
coedge $-1 $131 $142 $127 $166 forward $149 $-1 #
edge $-1 $183 -0.785398163397448279 $169 0.785398163397448279 $165 $205 forward 7 unknown #
edge $-1 $168 -0.785398163397448279 $181 0.785398163397448279 $157 $206 forward 7 unknown #
vertex $-1 $134 $207 #
vertex $-1 $132 $208 #
straight-curve $-1 15 -35 -30 1 -0 -0 F -25.5 F 10.5 #
coedge $-1 $209 $131 $136 $177 forward $149 $-1 #
straight-curve $-1 10 -35 0 0 -0 1 I I #
coedge $-1 $133 $194 $135 $176 forward $83 $-1 #
straight-curve $-1 5 -35 0 0 0 -1 I I #
coedge $-1 $136 $135 $160 $201 forward $88 $-1 #
edge $-1 $210 -0.785398163397448279 $138 0.785398163397448279 $173 $211 forward 7 unknown #
edge $-1 $137 -0.785398163397448279 $212 0.785398163397448279 $171 $213 forward 7 unknown #
point $-1 10 -35 30 #
point $-1 5 -35 30 #
edge $-1 $183 5 $181 10 $140 $214 forward 7 unknown #
vertex $-1 $167 $215 #
straight-curve $-1 5 0 -35 0 1 0 I I #
vertex $-1 $143 $216 #
straight-curve $-1 10 0 -35 0 -1 0 I I #
point $-1 5 30 -35 #
point $-1 10 30 -35 #
coedge $-1 $148 $209 $161 $203 forward $149 $-1 #
loop $-1 $-1 $217 $189 #
face $-1 $-1 $149 $2 $-1 $218 reversed single #
vertex $-1 $152 $219 #
straight-curve $-1 10 35 0 -0 -0 -1 I I #
vertex $-1 $195 $220 #
straight-curve $-1 5 35 0 0 0 -1 I I #
coedge $-1 $173 $156 $199 $221 forward $83 $-1 #
edge $-1 $192 -0.785398163397448279 $222 0.785398163397448279 $156 $223 forward 7 unknown #
face $-1 $224 $225 $2 $-1 $226 reversed single #
loop $-1 $-1 $227 $158 #
plane-surface $-1 0 0 45 0 0 1 1 0 0 forward_v I I I I #
coedge $-1 $228 $160 $194 $221 reversed $124 $-1 #
coedge $-1 $160 $228 $209 $229 reversed $124 $-1 #
edge $-1 $210 -10 $212 -5 $160 $230 forward 7 unknown #
coedge $-1 $162 $161 $228 $231 forward $100 $-1 #
edge $-1 $232 -0.785398163397448279 $190 0.785398163397448279 $187 $233 forward 7 unknown #
straight-curve $-1 15 35 30 1 -0 -0 F -25.5 F 10.5 #
ellipse-curve $-1 10 -30 -30 -1 0 0 0 -3.535533905932737309 -3.535533905932737309 1 I I #
ellipse-curve $-1 5 -30 -30 1 0 0 0 -3.535533905932737309 -3.535533905932737309 1 I I #
point $-1 5 -35 -30 #
point $-1 10 -35 -30 #
coedge $-1 $187 $171 $200 $229 forward $149 $-1 #
vertex $-1 $221 $234 #
ellipse-curve $-1 5 -30 30 1 0 0 0 -3.535533905932737309 3.535533905932737309 1 I I #
vertex $-1 $229 $235 #
ellipse-curve $-1 10 -30 30 -1 0 0 0 -3.535533905932737309 3.535533905932737309 1 I I #
straight-curve $-1 15 -30 -35 -1 0 0 F -10.5 F 25.5 #
point $-1 5 -30 -35 #
point $-1 10 -30 -35 #
coedge $-1 $236 $237 $238 $239 forward $188 $-1 #
plane-surface $-1 10 0 0 -1 0 0 0 -0 1 forward_v I I I I #
point $-1 10 35 30 #
point $-1 5 35 30 #
edge $-1 $222 -30 $210 30 $194 $240 forward 7 unknown #
vertex $-1 $231 $241 #
ellipse-curve $-1 5 30 30 1 0 0 0 3.535533905932737309 3.535533905932737309 1 I I #
face $-1 $242 $243 $2 $-1 $244 reversed single #
loop $-1 $-1 $245 $196 #
plane-surface $-1 0 0 -45 0 0 1 1 0 0 forward_v I I I I #
coedge $-1 $246 $247 $237 $248 forward $197 $-1 #
coedge $-1 $200 $199 $202 $231 reversed $124 $-1 #
edge $-1 $212 -30 $232 30 $209 $249 forward 7 unknown #
straight-curve $-1 15 -30 35 1 0 0 F -25.5 F 10.5 #
edge $-1 $232 5 $222 10 $228 $250 forward 7 unknown #
vertex $-1 $229 $251 #
ellipse-curve $-1 10 30 30 -1 0 0 0 3.535533905932737309 3.535533905932737309 1 I I #
point $-1 5 -30 35 #
point $-1 10 -30 35 #
coedge $-1 $252 $217 $245 $253 reversed $188 $-1 #
coedge $-1 $217 $252 $227 $248 reversed $188 $-1 #
coedge $-1 $254 $255 $217 $239 reversed $243 $-1 #
edge $-1 $256 -45 $257 45 $217 $258 forward 7 unknown #
straight-curve $-1 5 0 35 0 -1 0 I I #
point $-1 5 30 35 #
face $-1 $259 $260 $2 $-1 $261 reversed single #
loop $-1 $-1 $262 $224 #
plane-surface $-1 0 -45 0 0 1 -0 -0 0 1 forward_v I I I I #
coedge $-1 $263 $264 $236 $253 forward $225 $-1 #
coedge $-1 $265 $227 $266 $267 forward $197 $-1 #
coedge $-1 $227 $265 $254 $268 forward $197 $-1 #
edge $-1 $256 -45 $269 45 $237 $270 forward 7 unknown #
straight-curve $-1 10 0 35 0 1 -0 I I #
straight-curve $-1 15 30 35 -1 0 0 F -10.5 F 25.5 #
point $-1 10 30 35 #
coedge $-1 $237 $236 $271 $272 reversed $188 $-1 #
edge $-1 $273 -45 $257 45 $236 $274 forward 7 unknown #
coedge $-1 $262 $238 $247 $268 reversed $243 $-1 #
coedge $-1 $238 $262 $263 $275 reversed $243 $-1 #
vertex $-1 $248 $276 #
vertex $-1 $239 $277 #
straight-curve $-1 10 -45 0 0 0 -1 I I #
face $-1 $189 $278 $2 $-1 $279 reversed single #
loop $-1 $-1 $280 $242 #
plane-surface $-1 -10 0 0 1 0 0 0 0 -1 forward_v I I I I #
coedge $-1 $255 $254 $281 $282 forward $243 $-1 #
coedge $-1 $283 $245 $255 $275 forward $225 $-1 #
coedge $-1 $245 $283 $284 $285 forward $225 $-1 #
coedge $-1 $247 $246 $286 $287 forward $197 $-1 #
coedge $-1 $271 $288 $246 $267 reversed $278 $-1 #
edge $-1 $269 -10 $289 10 $266 $290 forward 7 unknown #
edge $-1 $291 -10 $256 10 $254 $292 forward 7 unknown #
vertex $-1 $248 $293 #
straight-curve $-1 10 0 45 0 1 0 I I #
coedge $-1 $284 $266 $252 $272 forward $278 $-1 #
edge $-1 $269 -45 $273 45 $252 $294 forward 7 unknown #
vertex $-1 $253 $295 #
straight-curve $-1 10 0 -45 0 -1 0 I I #
edge $-1 $257 -10 $296 10 $255 $297 forward 7 unknown #
point $-1 10 -45 45 #
point $-1 10 -45 -45 #
loop $-1 $-1 $271 $259 #
plane-surface $-1 0 45 0 0 -1 0 0 0 -1 forward_v I I I I #
coedge $-1 $298 $286 $288 $299 forward $260 $-1 #
coedge $-1 $286 $298 $262 $282 reversed $260 $-1 #
edge $-1 $291 -45 $296 45 $281 $300 forward 7 unknown #
coedge $-1 $264 $263 $298 $301 forward $225 $-1 #
coedge $-1 $288 $271 $264 $285 reversed $278 $-1 #
edge $-1 $302 -10 $273 10 $284 $303 forward 7 unknown #
coedge $-1 $280 $281 $265 $287 reversed $260 $-1 #
edge $-1 $289 -45 $291 45 $286 $304 forward 7 unknown #
coedge $-1 $266 $284 $280 $299 reversed $278 $-1 #
vertex $-1 $267 $305 #
straight-curve $-1 0 45 45 -1 0 0 I I #
vertex $-1 $287 $306 #
straight-curve $-1 0 -45 45 1 0 0 I I #
point $-1 10 45 45 #
straight-curve $-1 10 45 0 0 0 -1 I I #
point $-1 10 45 -45 #
vertex $-1 $301 $307 #
straight-curve $-1 0 -45 -45 -1 0 0 I I #
coedge $-1 $281 $280 $283 $301 reversed $260 $-1 #
edge $-1 $289 -45 $302 45 $288 $308 forward 7 unknown #
straight-curve $-1 -10 -45 0 0 0 -1 I I #
edge $-1 $296 -45 $302 45 $298 $309 forward 7 unknown #
vertex $-1 $285 $310 #
straight-curve $-1 0 45 -45 1 0 0 I I #
straight-curve $-1 -10 0 45 0 -1 0 I I #
point $-1 -10 45 45 #
point $-1 -10 -45 45 #
point $-1 -10 -45 -45 #
straight-curve $-1 -10 45 0 0 0 -1 I I #
straight-curve $-1 -10 0 -45 0 1 0 I I #
point $-1 -10 45 -45 #
End-of-ACIS-data 