600 0 2 0           
24 FBMach with ACIS - 6.0.3 13 ACIS 6.0.3 NT 24 Tue May 22 12:37:16 2001 
1 9.9999999999999995e-007 1e-010 
body $2 $3 $-1 $4 #
bdycol-kcp $-1 1 2 $5 $6 #
model_id-kcp-attrib $-1 $-1 $-1 $0 1 990549435 50 -1187905535 1 #
lump $-1 $-1 $7 $0 #
transform $-1 1 0 0 0 1 0 0 0 1 0 0 0 1 no_rotate no_reflect no_shear #
body $8 $9 $-1 $10 #
body $11 $12 $-1 $13 #
shell $-1 $-1 $-1 $14 $-1 $3 #
model_id-kcp-attrib $-1 $-1 $-1 $5 1 990549435 50 -1187905534 1 #
lump $-1 $-1 $15 $5 #
transform $-1 1 0 0 0 1 0 0 0 1 0 0 0 1 no_rotate no_reflect no_shear #
rgb_color-st-attrib $-1 $16 $-1 $6 0 0 1 #
lump $-1 $-1 $17 $6 #
transform $-1 1 0 0 0 1 0 0 0 1 0 0 0 1 no_rotate no_reflect no_shear #
face $18 $19 $20 $7 $-1 $21 reversed single #
shell $-1 $-1 $-1 $22 $-1 $9 #
model_id-kcp-attrib $-1 $-1 $11 $6 1 990549435 520 -1190658045 1 #
shell $-1 $-1 $-1 $23 $-1 $12 #
model_id-kcp-attrib $-1 $-1 $-1 $14 1 990549435 50 -1187905535 2 #
face $24 $25 $26 $7 $-1 $27 reversed single #
loop $-1 $-1 $28 $14 #
sphere-surface $-1 0 10 -19.999999999999996 3 -3.4914813388431334e-015 0 -1 1 0 -3.4914813388431334e-015 forward_v I I I I #
face $29 $30 $31 $15 $-1 $32 forward single #
face $-1 $33 $34 $17 $-1 $35 forward single #
model_id-kcp-attrib $-1 $-1 $-1 $19 1 990549435 50 -1187905535 3 #
face $36 $37 $38 $7 $-1 $39 reversed single #
loop $-1 $40 $41 $19 #
cone-surface $-1 25 10 -20.000000000000085 1 0 -3.4914813388431334e-015 -1.04744440165294e-014 0 -3 1 I I 0 1 3 forward I I I I #
coedge $-1 $28 $28 $42 $43 forward $20 $-1 #
model_id-kcp-attrib $-1 $-1 $-1 $22 1 990549435 50 -1187905534 2 #
face $44 $45 $46 $15 $-1 $47 reversed single #
loop $-1 $-1 $48 $22 #
plane-surface $-1 0 0 45 0 0 1 1 0 0 forward_v I I I I #
face $-1 $49 $50 $17 $-1 $51 forward single #
loop $-1 $-1 $52 $23 #
plane-surface $-1 5 35 30 0 1 0 0 0 1 forward_v I I I I #
model_id-kcp-attrib $-1 $-1 $-1 $25 1 990549435 50 -1187905535 4 #
face $53 $54 $55 $7 $-1 $56 reversed single #
loop $-1 $-1 $57 $25 #
sphere-surface $-1 5 10 -10 3 -3.4914813388431334e-015 0 -1 1 0 -3.4914813388431334e-015 forward_v I I I I #
loop $-1 $-1 $42 $19 #
coedge $-1 $41 $41 $58 $59 reversed $26 $-1 #
coedge $-1 $42 $42 $28 $43 reversed $40 $-1 #
edge $-1 $60 -6.2831853071795862 $60 0 $42 $61 reversed 7 unknown #
model_id-kcp-attrib $-1 $-1 $-1 $30 1 990549435 50 -1187905534 3 #
face $62 $63 $64 $15 $-1 $65 reversed single #
loop $-1 $-1 $66 $30 #
plane-surface $-1 0 0 -45 0 0 1 1 0 0 forward_v I I I I #
coedge $-1 $67 $68 $69 $70 forward $31 $-1 #
face $-1 $71 $72 $17 $-1 $73 forward single #
loop $-1 $-1 $74 $33 #
cone-surface $-1 5 30 -30 1 0 0 0 3.5355339059327373 -3.5355339059327373 1 I I 0 1 5 forward I I I I #
coedge $-1 $75 $76 $77 $78 forward $34 $-1 #
model_id-kcp-attrib $-1 $-1 $-1 $37 1 990549435 50 -1187905535 5 #
face $79 $80 $81 $7 $-1 $82 reversed single #
loop $-1 $-1 $83 $37 #
sphere-surface $-1 -5 10 0 3 -3.4914813388431334e-015 0 -1 1 0 -3.4914813388431334e-015 forward_v I I I I #
coedge $-1 $57 $57 $84 $85 reversed $38 $-1 #
coedge $-1 $58 $58 $41 $59 forward $86 $-1 #
edge $-1 $87 -3.1415926535898002 $87 3.141592653589786 $58 $88 forward 7 unknown #
vertex $-1 $43 $89 #
ellipse-curve $-1 0 10 -19.999999999999996 -1 0 3.4914813388431334e-015 -1.04744440165294e-014 0 -3 1 I I #
model_id-kcp-attrib $-1 $-1 $-1 $45 1 990549435 50 -1187905534 4 #
face $90 $91 $92 $15 $-1 $93 reversed single #
loop $-1 $-1 $94 $45 #
plane-surface $-1 0 -45 0 0 1 0 0 0 1 forward_v I I I I #
coedge $-1 $95 $96 $97 $98 forward $46 $-1 #
coedge $-1 $99 $48 $100 $101 forward $31 $-1 #
coedge $-1 $48 $99 $102 $103 forward $31 $-1 #
coedge $-1 $104 $105 $48 $70 reversed $106 $-1 #
edge $-1 $107 -45 $108 45 $69 $109 forward 7 unknown #
face $-1 $110 $111 $17 $-1 $112 forward single #
loop $-1 $-1 $113 $49 #
plane-surface $-1 5 30 -35 0 0 -1 -1 0 0 forward_v I I I I #
coedge $-1 $114 $115 $116 $117 forward $50 $-1 #
coedge $-1 $118 $52 $115 $119 reversed $34 $-1 #
coedge $-1 $52 $118 $120 $121 forward $34 $-1 #
coedge $-1 $122 $116 $52 $78 reversed $123 $-1 #
edge $-1 $124 -30 $125 30 $52 $126 forward 7 unknown #
model_id-kcp-attrib $-1 $-1 $-1 $54 1 990549435 50 -1187905535 6 #
face $127 $128 $129 $7 $-1 $130 reversed single #
loop $-1 $131 $132 $54 #
cone-surface $-1 20 10 -8.7287033471078334e-014 1 0 -3.4914813388431334e-015 -1.04744440165294e-014 0 -3 1 I I 0 1 3 forward I I I I #
coedge $-1 $83 $83 $133 $134 forward $55 $-1 #
coedge $-1 $84 $84 $57 $85 forward $135 $-1 #
edge $-1 $136 -3.1415926535897931 $136 3.1415926535897931 $84 $137 forward 7 unknown #
loop $-1 $135 $58 $138 #
vertex $-1 $59 $139 #
ellipse-curve $-1 4.9999999999999289 10 -20.000000000000014 -1 0 0 -1.04744440165294e-014 0 -3 1 I I #
point $-1 -1.0658141036401503e-014 10 -22.999999999999996 #
model_id-kcp-attrib $-1 $-1 $-1 $63 1 990549435 50 -1187905534 5 #
face $140 $141 $142 $15 $-1 $143 reversed single #
loop $-1 $-1 $144 $63 #
plane-surface $-1 -10 0 0 1 0 0 0 0 -1 forward_v I I I I #
coedge $-1 $145 $102 $146 $147 forward $64 $-1 #
coedge $-1 $148 $66 $145 $149 forward $46 $-1 #
coedge $-1 $66 $148 $150 $151 forward $46 $-1 #
coedge $-1 $105 $104 $66 $98 reversed $106 $-1 #
edge $-1 $152 -45 $153 45 $97 $154 forward 7 unknown #
coedge $-1 $68 $67 $155 $156 forward $31 $-1 #
coedge $-1 $157 $158 $67 $101 reversed $142 $-1 #
edge $-1 $108 -10 $159 10 $100 $160 forward 7 unknown #
coedge $-1 $94 $161 $68 $103 reversed $64 $-1 #
edge $-1 $162 -10 $107 10 $102 $163 forward 7 unknown #
coedge $-1 $97 $69 $161 $164 forward $106 $-1 #
coedge $-1 $69 $97 $157 $165 reversed $106 $-1 #
loop $-1 $-1 $104 $141 #
vertex $-1 $70 $166 #
vertex $-1 $70 $167 #
straight-curve $-1 10 0 45 0 1 0 I I #
face $-1 $168 $169 $17 $-1 $170 forward single #
loop $-1 $-1 $171 $71 #
cone-surface $-1 5 -30 -30 1 0 0 0 -3.5355339059327373 -3.5355339059327373 1 I I 0 1 5 forward I I I I #
coedge $-1 $172 $173 $174 $175 forward $72 $-1 #
coedge $-1 $176 $74 $173 $177 reversed $50 $-1 #
coedge $-1 $74 $176 $75 $119 forward $50 $-1 #
coedge $-1 $77 $174 $74 $117 reversed $123 $-1 #
edge $-1 $125 -0.78539816339744828 $178 0.78539816339744828 $74 $179 forward 7 unknown #
coedge $-1 $76 $75 $180 $181 reversed $34 $-1 #
edge $182 $183 0 $125 5 $115 $184 forward 7 unknown #
coedge $-1 $185 $186 $76 $121 reversed $187 $-1 #
edge $-1 $188 0 $124 5 $76 $189 forward 7 unknown #
coedge $-1 $190 $77 $186 $191 reversed $123 $-1 #
loop $-1 $-1 $77 $192 #
vertex $-1 $121 $193 #
vertex $-1 $119 $194 #
straight-curve $-1 10 35 0 0 0 -1 I I #
model_id-kcp-attrib $-1 $-1 $-1 $80 1 990549435 50 -1187905535 7 #
face $195 $196 $197 $7 $-1 $198 reversed single #
loop $-1 $-1 $199 $80 #
sphere-surface $-1 0 10 10 3 -3.4914813388431334e-015 0 -1 1 0 -3.4914813388431334e-015 forward_v I I I I #
loop $-1 $-1 $133 $54 #
coedge $-1 $132 $132 $200 $201 reversed $81 $-1 #
coedge $-1 $133 $133 $83 $134 reversed $131 $-1 #
edge $-1 $202 -6.2831853071795862 $202 0 $133 $203 reversed 7 unknown #
loop $-1 $204 $84 $138 #
vertex $-1 $85 $205 #
ellipse-curve $-1 5 10 -10 -1 0 0 0 0 3 1 I I #
face $206 $207 $86 $7 $-1 $208 forward single #
point $-1 4.9999999999999396 9.9999999999999787 -17.000000000000014 #
model_id-kcp-attrib $-1 $-1 $-1 $91 1 990549435 50 -1187905534 6 #
face $209 $-1 $106 $15 $-1 $210 reversed single #
loop $-1 $-1 $157 $91 #
plane-surface $-1 0 45 0 0 -1 0 0 0 -1 forward_v I I I I #
coedge $-1 $211 $155 $158 $212 forward $92 $-1 #
coedge $-1 $161 $94 $95 $149 reversed $64 $-1 #
coedge $-1 $155 $211 $94 $147 reversed $92 $-1 #
edge $-1 $162 -45 $213 45 $146 $214 forward 7 unknown #
coedge $-1 $96 $95 $211 $215 forward $46 $-1 #
edge $-1 $153 -10 $213 10 $145 $216 forward 7 unknown #
coedge $-1 $158 $157 $96 $151 reversed $142 $-1 #
edge $-1 $217 -10 $152 10 $150 $218 forward 7 unknown #
vertex $-1 $98 $219 #
vertex $-1 $164 $220 #
straight-curve $-1 10 0 -45 0 -1 0 I I #
coedge $-1 $144 $146 $99 $156 reversed $92 $-1 #
edge $-1 $159 -45 $162 45 $155 $221 forward 7 unknown #
coedge $-1 $150 $100 $105 $165 forward $142 $-1 #
coedge $-1 $100 $150 $144 $212 reversed $142 $-1 #
vertex $-1 $101 $222 #
straight-curve $-1 0 45 45 -1 0 0 I I #
coedge $-1 $102 $145 $104 $164 reversed $64 $-1 #
vertex $-1 $156 $223 #
straight-curve $-1 0 -45 45 1 0 0 I I #
edge $-1 $107 -45 $153 45 $104 $224 forward 7 unknown #
edge $-1 $108 -45 $152 45 $105 $225 forward 7 unknown #
point $-1 10 -45 45 #
point $-1 10 45 45 #
face $-1 $226 $227 $17 $-1 $228 forward single #
loop $-1 $-1 $229 $110 #
plane-surface $-1 5 -35 -30 0 -1 0 0 0 -1 forward_v I I I I #
coedge $-1 $230 $231 $232 $233 forward $111 $-1 #
coedge $-1 $234 $113 $231 $235 reversed $72 $-1 #
coedge $-1 $113 $234 $114 $177 forward $72 $-1 #
coedge $-1 $116 $232 $113 $175 reversed $123 $-1 #
edge $-1 $178 -30 $236 30 $113 $237 forward 7 unknown #
coedge $-1 $115 $114 $238 $239 reversed $50 $-1 #
edge $-1 $240 0 $178 5 $173 $241 forward 7 unknown #
vertex $-1 $177 $242 #
ellipse-curve $-1 10 30 -30 -1 0 0 0 3.5355339059327373 -3.5355339059327373 1 I I #
coedge $-1 $238 $243 $118 $181 forward $244 $-1 #
edge $245 $188 -30 $183 30 $118 $246 forward 7 unknown #
convexity-sys-attrib $-1 $-1 $-1 $119 #
vertex $-1 $181 $247 #
straight-curve $-1 5 35 -30 1 0 0 I I #
coedge $-1 $248 $120 $243 $249 reversed $187 $-1 #
coedge $-1 $120 $248 $122 $191 forward $187 $-1 #
loop $-1 $-1 $186 $250 #
vertex $-1 $249 $251 #
straight-curve $-1 5 35 30 1 0 0 I I #
coedge $-1 $252 $122 $253 $254 reversed $123 $-1 #
edge $-1 $255 -0.78539816339744828 $124 0.78539816339744828 $186 $256 forward 7 unknown #
face $-1 $257 $123 $17 $-1 $258 forward single #
point $-1 10 35 30 #
point $-1 10 35 -30 #
model_id-kcp-attrib $-1 $-1 $-1 $128 1 990549435 50 -1187905535 8 #
face $259 $260 $261 $7 $-1 $262 forward single #
loop $-1 $263 $264 $128 #
cone-surface $-1 25 10 9.999999999999913 1 0 -3.4914813388431334e-015 -1.04744440165294e-014 0 -3 1 I I 0 1 3 forward I I I I #
coedge $-1 $199 $199 $265 $266 forward $129 $-1 #
coedge $-1 $200 $200 $132 $201 forward $204 $-1 #
edge $-1 $267 -3.1415926535898002 $267 3.141592653589786 $200 $268 forward 7 unknown #
vertex $-1 $134 $269 #
ellipse-curve $-1 -5 10 0 -1 0 3.4914813388431334e-015 -1.04744440165294e-014 0 -3 1 I I #
loop $-1 $270 $200 $138 #
point $-1 4.9999999999999893 10 -13 #
model_id-kcp-attrib $-1 $-1 $-1 $138 1 990549435 50 -1187905535 12 #
face $271 $272 $273 $7 $-1 $274 forward single #
plane-surface $-1 5 0 0 1 0 0 0 0 -1 forward_v I I I I #
model_id-kcp-attrib $-1 $-1 $-1 $141 1 990549435 50 -1187905534 7 #
plane-surface $-1 10 0 0 -1 0 0 0 0 1 forward_v I I I I #
coedge $-1 $146 $144 $148 $215 reversed $92 $-1 #
edge $-1 $159 -45 $217 45 $158 $275 forward 7 unknown #
vertex $-1 $215 $276 #
straight-curve $-1 -10 -45 0 0 0 -1 I I #
edge $-1 $213 -45 $217 45 $211 $277 forward 7 unknown #
straight-curve $-1 0 -45 -45 -1 0 0 I I #
vertex $-1 $151 $278 #
straight-curve $-1 0 45 -45 1 0 0 I I #
point $-1 10 45 -45 #
point $-1 10 -45 -45 #
straight-curve $-1 -10 0 45 0 -1 0 I I #
point $-1 -10 45 45 #
point $-1 -10 -45 45 #
straight-curve $-1 10 -45 0 0 0 -1 I I #
straight-curve $-1 10 45 0 0 0 -1 I I #
face $-1 $250 $279 $17 $-1 $280 forward single #
loop $-1 $-1 $281 $168 #
cone-surface $-1 5 -30 30 1 0 0 0 -3.5355339059327373 3.5355339059327373 1 I I 0 1 5 forward I I I I #
coedge $-1 $282 $283 $284 $285 forward $169 $-1 #
coedge $-1 $286 $171 $283 $287 reversed $111 $-1 #
coedge $-1 $171 $286 $172 $235 forward $111 $-1 #
coedge $-1 $174 $284 $171 $233 reversed $123 $-1 #
edge $-1 $236 -0.78539816339744828 $288 0.78539816339744828 $171 $289 forward 7 unknown #
coedge $-1 $173 $172 $290 $291 reversed $72 $-1 #
edge $-1 $292 0 $236 5 $231 $293 forward 7 unknown #
vertex $-1 $235 $294 #
straight-curve $-1 10 0 -35 0 -1 0 I I #
coedge $-1 $290 $180 $176 $239 forward $244 $-1 #
edge $295 $183 -0.78539816339744828 $240 0.78539816339744828 $176 $296 forward 7 unknown #
vertex $-1 $239 $297 #
straight-curve $-1 5 30 -35 1 0 0 I I #
point $-1 10 30 -35 #
coedge $-1 $180 $298 $185 $249 forward $244 $-1 #
loop $-1 $-1 $243 $257 #
convexity-sys-attrib $-1 $-1 $-1 $181 #
straight-curve $-1 5 35 0 0 0 -1 I I #
point $-1 5 35 -30 #
coedge $-1 $186 $185 $299 $300 forward $187 $-1 #
edge $301 $302 -0.78539816339744828 $188 0.78539816339744828 $185 $303 forward 7 unknown #
face $-1 $192 $187 $17 $-1 $304 forward single #
point $-1 5 35 30 #
coedge $-1 $284 $190 $281 $305 reversed $123 $-1 #
coedge $-1 $299 $306 $190 $254 forward $279 $-1 #
edge $-1 $307 -30 $255 30 $253 $308 forward 7 unknown #
vertex $-1 $300 $309 #
ellipse-curve $-1 10 30 30 -1 0 0 0 3.5355339059327373 3.5355339059327373 1 I I #
face $-1 $-1 $244 $17 $-1 $310 reversed single #
plane-surface $-1 10 8.8817841970012523e-016 -5.5511151231257827e-016 1 0 0 0 0 -1 forward_v I I I I #
model_id-kcp-attrib $-1 $-1 $-1 $196 1 990549435 50 -1187905535 9 #
face $311 $312 $313 $7 $-1 $314 forward single #
loop $-1 $-1 $315 $196 #
cone-surface $-1 15 30 -30 1 0 0 0 3.5355339059327373 -3.5355339059327373 1 I I 0 -1 5 forward I I I I #
loop $-1 $-1 $265 $128 #
coedge $-1 $264 $264 $316 $317 reversed $197 $-1 #
coedge $-1 $265 $265 $199 $266 reversed $263 $-1 #
edge $-1 $318 -6.2831853071795862 $318 0 $265 $319 reversed 7 unknown #
vertex $-1 $201 $320 #
ellipse-curve $-1 5 10 -3.4914813388431334e-014 -1 0 0 -1.04744440165294e-014 0 -3 1 I I #
point $-1 -5.0000000000000107 10 -3 #
loop $-1 $321 $316 $138 #
model_id-kcp-attrib $-1 $-1 $-1 $207 1 990549435 50 -1187905535 13 #
face $322 $323 $324 $7 $-1 $325 forward single #
loop $-1 $-1 $326 $207 #
plane-surface $-1 15 -35 0 0 1 0 0 0 1 forward_v I I I I #
straight-curve $-1 -10 45 0 0 0 -1 I I #
point $-1 -10 -45 -45 #
straight-curve $-1 -10 0 -45 0 1 0 I I #
point $-1 -10 45 -45 #
loop $-1 $-1 $253 $226 #
plane-surface $-1 5 -30 35 0 0 1 1 0 0 forward_v I I I I #
coedge $-1 $327 $328 $252 $305 forward $227 $-1 #
coedge $-1 $329 $229 $328 $330 reversed $169 $-1 #
coedge $-1 $229 $329 $230 $287 forward $169 $-1 #
coedge $-1 $232 $252 $229 $285 reversed $123 $-1 #
edge $-1 $288 -30 $331 30 $229 $332 forward 7 unknown #
coedge $-1 $231 $230 $333 $334 reversed $111 $-1 #
edge $-1 $335 0 $288 5 $283 $336 forward 7 unknown #
vertex $-1 $287 $337 #
ellipse-curve $-1 10 -30 -30 -1 0 0 0 -3.5355339059327373 -3.5355339059327373 1 I I #
coedge $-1 $333 $238 $234 $291 forward $244 $-1 #
edge $338 $240 -30 $292 30 $234 $339 forward 7 unknown #
vertex $-1 $291 $340 #
straight-curve $-1 5 -30 -35 1 0 0 I I #
point $-1 10 -30 -35 #
convexity-sys-attrib $-1 $-1 $-1 $239 #
ellipse-curve $-1 5 30 -30 -1 0 0 0 3.5355339059327373 -3.5355339059327373 1 I I #
point $-1 5 30 -35 #
coedge $-1 $243 $341 $342 $343 forward $244 $-1 #
coedge $-1 $342 $253 $248 $300 reversed $279 $-1 #
edge $-1 $302 0 $255 5 $248 $344 forward 7 unknown #
convexity-sys-attrib $-1 $-1 $-1 $249 #
vertex $-1 $249 $345 #
ellipse-curve $-1 5 30 30 -1 0 0 0 3.5355339059327373 3.5355339059327373 1 I I #
cone-surface $-1 5 30 30 1 0 0 0 3.5355339059327373 3.5355339059327373 1 I I 0 1 5 forward I I I I #
edge $-1 $331 -0.78539816339744828 $307 0.78539816339744828 $281 $346 forward 7 unknown #
coedge $-1 $253 $342 $327 $347 forward $279 $-1 #
vertex $-1 $347 $348 #
straight-curve $-1 10 0 35 0 1 0 I I #
point $-1 10 30 35 #
plane-surface $-1 5 8.8817841970012523e-016 -5.5511151231257827e-016 1 0 0 0 0 -1 forward_v I I I I #
model_id-kcp-attrib $-1 $-1 $-1 $260 1 990549435 50 -1187905535 10 #
face $349 $138 $350 $7 $-1 $351 forward single #
loop $-1 $-1 $352 $260 #
plane-surface $-1 15 0 -35 0 0 1 1 0 0 forward_v I I I I #
coedge $-1 $353 $354 $355 $356 forward $261 $-1 #
coedge $-1 $316 $316 $264 $317 forward $270 $-1 #
edge $-1 $357 -3.1415926535898002 $357 3.141592653589786 $316 $358 forward 7 unknown #
vertex $-1 $266 $359 #
ellipse-curve $-1 0 10 10 -1 0 3.4914813388431334e-015 -1.04744440165294e-014 0 -3 1 I I #
point $-1 5.0000000000000107 9.9999999999999787 2.9999999999999649 #
loop $-1 $-1 $360 $138 #
model_id-kcp-attrib $-1 $-1 $-1 $272 1 990549435 50 -1187905535 14 #
face $361 $362 $363 $7 $-1 $364 forward single #
loop $-1 $-1 $365 $272 #
cone-surface $-1 15 -30 -30 -1 0 0 0 -3.5355339059327373 -3.5355339059327373 1 I I 0 -1 5 forward I I I I #
coedge $-1 $366 $367 $368 $369 reversed $273 $-1 #
coedge $-1 $370 $281 $306 $347 reversed $227 $-1 #
coedge $-1 $281 $370 $282 $330 forward $227 $-1 #
coedge $-1 $283 $282 $371 $372 reversed $169 $-1 #
edge $-1 $373 0 $331 5 $328 $374 forward 7 unknown #
vertex $-1 $330 $375 #
straight-curve $-1 10 -35 0 0 0 1 I I #
coedge $-1 $371 $290 $286 $334 forward $244 $-1 #
edge $376 $292 -0.78539816339744828 $335 0.78539816339744828 $286 $377 forward 7 unknown #
vertex $-1 $334 $378 #
straight-curve $-1 5 -35 -30 1 0 0 I I #
point $-1 10 -35 -30 #
convexity-sys-attrib $-1 $-1 $-1 $291 #
straight-curve $-1 5 0 -35 0 -1 0 I I #
point $-1 5 -30 -35 #
coedge $-1 $298 $371 $370 $379 forward $244 $-1 #
coedge $-1 $306 $299 $298 $343 reversed $279 $-1 #
edge $380 $381 -30 $302 30 $342 $382 forward 7 unknown #
straight-curve $-1 5 30 35 1 0 0 I I #
point $-1 5 30 35 #
ellipse-curve $-1 10 -30 30 -1 0 0 0 -3.5355339059327373 3.5355339059327373 1 I I #
edge $-1 $381 0 $307 5 $306 $383 forward 7 unknown #
point $-1 10 -30 35 #
model_id-kcp-attrib $-1 $-1 $-1 $312 1 990549435 50 -1187905535 11 #
loop $-1 $-1 $368 $312 #
cone-surface $-1 15 -30 30 1 0 0 0 -3.5355339059327373 3.5355339059327373 1 I I 0 -1 5 forward I I I I #
coedge $-1 $384 $385 $386 $387 reversed $313 $-1 #
coedge $-1 $386 $315 $360 $388 reversed $261 $-1 #
coedge $-1 $315 $386 $389 $390 reversed $261 $-1 #
coedge $-1 $391 $392 $315 $356 reversed $393 $-1 #
edge $-1 $394 5 $395 10 $355 $396 forward 7 unknown #
vertex $-1 $317 $397 #
ellipse-curve $-1 5.0000000000000355 10 9.9999999999999822 -1 0 0 -1.04744440165294e-014 0 -3 1 I I #
point $-1 -1.0658141036401503e-014 10 7 #
coedge $-1 $398 $399 $353 $388 forward $321 $-1 #
model_id-kcp-attrib $-1 $-1 $-1 $323 1 990549435 50 -1187905535 15 #
face $400 $401 $402 $7 $-1 $403 reversed single #
loop $-1 $-1 $404 $323 #
cone-surface $-1 15 30 30 -1 0 0 0 3.5355339059327373 3.5355339059327373 1 I I 0 -1 5 forward I I I I #
coedge $-1 $405 $406 $407 $408 forward $324 $-1 #
coedge $-1 $407 $326 $409 $410 reversed $273 $-1 #
coedge $-1 $326 $407 $411 $412 reversed $273 $-1 #
coedge $-1 $413 $414 $326 $369 forward $350 $-1 #
edge $-1 $415 5 $416 10 $326 $417 forward 7 unknown #
coedge $-1 $328 $327 $341 $379 reversed $227 $-1 #
coedge $-1 $341 $333 $329 $372 forward $244 $-1 #
edge $418 $335 -30 $373 30 $329 $419 forward 7 unknown #
vertex $-1 $372 $420 #
straight-curve $-1 5 -35 30 1 0 0 I I #
point $-1 10 -35 30 #
convexity-sys-attrib $-1 $-1 $-1 $334 #
ellipse-curve $-1 5 -30 -30 -1 0 0 0 -3.5355339059327373 -3.5355339059327373 1 I I #
point $-1 5 -35 -30 #
edge $421 $373 -0.78539816339744828 $381 0.78539816339744828 $370 $422 forward 7 unknown #
convexity-sys-attrib $-1 $-1 $-1 $343 #
vertex $-1 $379 $423 #
straight-curve $-1 5 0 35 0 1 0 I I #
straight-curve $-1 5 -30 35 1 0 0 I I #
coedge $-1 $424 $352 $399 $425 reversed $313 $-1 #
coedge $-1 $352 $424 $426 $427 reversed $313 $-1 #
coedge $-1 $354 $353 $352 $387 forward $261 $-1 #
edge $-1 $428 -10 $429 -5 $352 $430 forward 7 unknown #
edge $-1 $428 -0.78539816339744828 $395 0.78539816339744828 $360 $431 forward 7 unknown #
coedge $-1 $426 $432 $354 $390 forward $433 $-1 #
edge $-1 $394 -0.78539816339744828 $429 0.78539816339744828 $389 $434 forward 7 unknown #
coedge $-1 $435 $355 $432 $436 reversed $393 $-1 #
coedge $-1 $355 $435 $398 $437 forward $393 $-1 #
loop $-1 $-1 $355 $401 #
vertex $-1 $436 $438 #
vertex $-1 $437 $439 #
straight-curve $-1 15 35 -30 -1 0 0 F -10.5 F 25.5 #
point $-1 5.0000000000000462 9.9999999999999787 12.999999999999982 #
coedge $-1 $440 $360 $392 $437 reversed $321 $-1 #
coedge $-1 $360 $441 $384 $425 forward $321 $-1 #
model_id-kcp-attrib $-1 $-1 $-1 $362 1 990549435 50 -1187905535 16 #
face $442 $443 $393 $7 $-1 $444 forward single #
loop $-1 $-1 $445 $362 #
plane-surface $-1 15 0 35 0 0 1 1 0 0 forward_v I I I I #
coedge $-1 $446 $447 $435 $448 forward $363 $-1 #
coedge $-1 $449 $365 $450 $451 reversed $324 $-1 #
coedge $-1 $365 $449 $441 $452 reversed $324 $-1 #
coedge $-1 $367 $366 $365 $408 reversed $273 $-1 #
edge $-1 $453 -10 $454 -5 $407 $455 forward 7 unknown #
coedge $-1 $456 $450 $366 $410 forward $433 $-1 #
edge $-1 $454 -30 $415 30 $409 $457 forward 7 unknown #
coedge $-1 $441 $458 $367 $412 forward $321 $-1 #
edge $-1 $416 -30 $453 30 $411 $459 forward 7 unknown #
coedge $-1 $460 $368 $458 $461 reversed $350 $-1 #
coedge $-1 $368 $460 $456 $462 reversed $350 $-1 #
vertex $-1 $410 $463 #
vertex $-1 $369 $464 #
straight-curve $-1 15 -35 30 -1 0 0 F -10.5 F 25.5 #
convexity-sys-attrib $-1 $-1 $-1 $372 #
straight-curve $-1 5 -35 0 0 0 1 I I #
point $-1 5 -35 30 #
convexity-sys-attrib $-1 $-1 $-1 $379 #
ellipse-curve $-1 5 -30 30 -1 0 0 0 -3.5355339059327373 3.5355339059327373 1 I I #
point $-1 5 -30 35 #
coedge $-1 $385 $384 $449 $465 reversed $313 $-1 #
edge $-1 $466 -30 $428 30 $399 $467 forward 7 unknown #
coedge $-1 $450 $389 $385 $427 forward $433 $-1 #
edge $-1 $429 -30 $468 30 $426 $469 forward 7 unknown #
vertex $-1 $425 $470 #
vertex $-1 $427 $471 #
straight-curve $-1 15 30 -35 1 0 0 F -25.5 F 10.5 #
ellipse-curve $-1 5 30 -30 1 0 0 0 3.5355339059327373 -3.5355339059327373 1 I I #
coedge $-1 $389 $472 $391 $436 forward $433 $-1 #
loop $-1 $473 $426 $474 #
ellipse-curve $-1 10 30 -30 -1 0 0 0 3.5355339059327373 -3.5355339059327373 1 I I #
coedge $-1 $392 $391 $404 $448 reversed $393 $-1 #
edge $-1 $475 -30 $394 30 $432 $476 forward 7 unknown #
edge $-1 $477 -30 $395 30 $392 $478 forward 7 unknown #
point $-1 10 35 -30 #
point $-1 5 35 -30 #
coedge $-1 $479 $398 $447 $480 forward $321 $-1 #
coedge $-1 $399 $411 $406 $452 forward $321 $-1 #
model_id-kcp-attrib $-1 $-1 $-1 $401 1 990549435 50 -1187905535 17 #
face $481 $482 $483 $7 $-1 $484 forward single #
plane-surface $-1 15 35 0 0 -1 0 0 0 -1 forward_v I I I I #
coedge $-1 $485 $486 $460 $487 reversed $402 $-1 #
coedge $-1 $488 $404 $472 $489 reversed $363 $-1 #
coedge $-1 $404 $488 $440 $480 reversed $363 $-1 #
edge $-1 $477 -10 $475 -5 $435 $490 forward 7 unknown #
coedge $-1 $406 $405 $424 $465 forward $324 $-1 #
coedge $-1 $409 $426 $405 $451 forward $433 $-1 #
edge $-1 $468 -0.78539816339744828 $454 0.78539816339744828 $450 $491 forward 7 unknown #
edge $-1 $453 -0.78539816339744828 $466 0.78539816339744828 $441 $492 forward 7 unknown #
vertex $-1 $412 $493 #
vertex $-1 $410 $494 #
straight-curve $-1 15 -35 -30 1 0 0 F -25.5 F 10.5 #
coedge $-1 $495 $409 $414 $462 forward $433 $-1 #
straight-curve $-1 10 -35 0 0 0 1 I I #
coedge $-1 $411 $479 $413 $461 forward $321 $-1 #
straight-curve $-1 5 -35 0 0 0 -1 I I #
coedge $-1 $414 $413 $445 $487 forward $350 $-1 #
edge $-1 $496 -0.78539816339744828 $416 0.78539816339744828 $458 $497 forward 7 unknown #
edge $-1 $415 -0.78539816339744828 $498 0.78539816339744828 $456 $499 forward 7 unknown #
point $-1 10 -35 30 #
point $-1 5 -35 30 #
edge $-1 $468 5 $466 10 $424 $500 forward 7 unknown #
vertex $-1 $452 $501 #
straight-curve $-1 5 0 -35 0 1 0 I I #
vertex $-1 $427 $502 #
straight-curve $-1 10 0 -35 0 -1 0 I I #
point $-1 5 30 -35 #
point $-1 10 30 -35 #
coedge $-1 $432 $495 $446 $489 forward $433 $-1 #
loop $-1 $-1 $503 $474 #
face $504 $-1 $433 $7 $-1 $505 reversed single #
vertex $-1 $436 $506 #
straight-curve $-1 10 35 0 0 0 -1 I I #
vertex $-1 $480 $507 #
straight-curve $-1 5 35 0 0 0 -1 I I #
coedge $-1 $458 $440 $485 $508 forward $321 $-1 #
edge $-1 $477 -0.78539816339744828 $509 0.78539816339744828 $440 $510 forward 7 unknown #
model_id-kcp-attrib $-1 $-1 $-1 $443 1 990549435 50 -1187905535 18 #
face $511 $512 $513 $7 $-1 $514 reversed single #
loop $-1 $-1 $515 $443 #
plane-surface $-1 0 0 45 0 0 1 1 0 0 forward_v I I I I #
coedge $-1 $516 $445 $479 $508 reversed $402 $-1 #
coedge $-1 $445 $516 $495 $517 reversed $402 $-1 #
edge $-1 $496 -10 $498 -5 $445 $518 forward 7 unknown #
coedge $-1 $447 $446 $516 $519 forward $363 $-1 #
edge $-1 $520 -0.78539816339744828 $475 0.78539816339744828 $472 $521 forward 7 unknown #
straight-curve $-1 15 35 30 1 0 0 F -25.5 F 10.5 #
ellipse-curve $-1 10 -30 -30 -1 0 0 0 -3.5355339059327373 -3.5355339059327373 1 I I #
ellipse-curve $-1 5 -30 -30 1 0 0 0 -3.5355339059327373 -3.5355339059327373 1 I I #
point $-1 5 -35 -30 #
point $-1 10 -35 -30 #
coedge $-1 $472 $456 $486 $517 forward $433 $-1 #
vertex $-1 $508 $522 #
ellipse-curve $-1 5 -30 30 1 0 0 0 -3.5355339059327373 3.5355339059327373 1 I I #
vertex $-1 $517 $523 #
ellipse-curve $-1 10 -30 30 -1 0 0 0 -3.5355339059327373 3.5355339059327373 1 I I #
straight-curve $-1 15 -30 -35 -1 0 0 F -10.5 F 25.5 #
point $-1 5 -30 -35 #
point $-1 10 -30 -35 #
coedge $-1 $524 $525 $526 $527 forward $473 $-1 #
model_id-kcp-attrib $-1 $-1 $-1 $474 1 990549435 50 -1187905535 23 #
plane-surface $-1 10 0 0 -1 0 0 0 0 1 forward_v I I I I #
point $-1 10 35 30 #
point $-1 5 35 30 #
edge $-1 $509 -30 $496 30 $479 $528 forward 7 unknown #
vertex $-1 $519 $529 #
ellipse-curve $-1 5 30 30 1 0 0 0 3.5355339059327373 3.5355339059327373 1 I I #
model_id-kcp-attrib $-1 $-1 $-1 $482 1 990549435 50 -1187905535 19 #
face $530 $531 $532 $7 $-1 $533 reversed single #
loop $-1 $-1 $534 $482 #
plane-surface $-1 0 0 -45 0 0 1 1 0 0 forward_v I I I I #
coedge $-1 $535 $536 $525 $537 forward $483 $-1 #
coedge $-1 $486 $485 $488 $519 reversed $402 $-1 #
edge $-1 $498 -30 $520 30 $495 $538 forward 7 unknown #
straight-curve $-1 15 -30 35 1 0 0 F -25.5 F 10.5 #
edge $-1 $520 5 $509 10 $516 $539 forward 7 unknown #
vertex $-1 $517 $540 #
ellipse-curve $-1 10 30 30 -1 0 0 0 3.5355339059327373 3.5355339059327373 1 I I #
point $-1 5 -30 35 #
point $-1 10 -30 35 #
coedge $-1 $541 $503 $534 $542 reversed $473 $-1 #
coedge $-1 $503 $541 $515 $537 reversed $473 $-1 #
coedge $-1 $543 $544 $503 $527 reversed $532 $-1 #
edge $545 $546 -45 $547 45 $503 $548 forward 7 unknown #
straight-curve $-1 5 0 35 0 -1 0 I I #
point $-1 5 30 35 #
model_id-kcp-attrib $-1 $-1 $-1 $512 1 990549435 50 -1187905535 20 #
face $549 $550 $551 $7 $-1 $552 reversed single #
loop $-1 $-1 $553 $512 #
plane-surface $-1 0 -45 0 0 1 0 0 0 1 forward_v I I I I #
coedge $-1 $554 $555 $524 $542 forward $513 $-1 #
coedge $-1 $556 $515 $557 $558 forward $483 $-1 #
coedge $-1 $515 $556 $543 $559 forward $483 $-1 #
edge $560 $546 -45 $561 45 $525 $562 forward 7 unknown #
straight-curve $-1 10 0 35 0 1 0 I I #
straight-curve $-1 15 30 35 -1 0 0 F -10.5 F 25.5 #
point $-1 10 30 35 #
coedge $-1 $525 $524 $563 $564 reversed $473 $-1 #
edge $-1 $565 -45 $547 45 $524 $566 forward 7 unknown #
coedge $-1 $553 $526 $536 $559 reversed $532 $-1 #
coedge $-1 $526 $553 $554 $567 reversed $532 $-1 #
attrib_edge_convexity-kcp-attrib $-1 $568 $-1 $527 1 #
vertex $-1 $537 $569 #
vertex $-1 $527 $570 #
straight-curve $-1 10 -45 0 0 0 -1 I I #
model_id-kcp-attrib $-1 $-1 $-1 $531 1 990549435 50 -1187905535 21 #
face $571 $474 $572 $7 $-1 $573 reversed single #
loop $-1 $-1 $574 $531 #
plane-surface $-1 -10 0 0 1 0 0 0 0 -1 forward_v I I I I #
coedge $-1 $544 $543 $575 $576 forward $532 $-1 #
coedge $-1 $577 $534 $544 $567 forward $513 $-1 #
coedge $-1 $534 $577 $578 $579 forward $513 $-1 #
coedge $-1 $536 $535 $580 $581 forward $483 $-1 #
coedge $-1 $563 $582 $535 $558 reversed $572 $-1 #
edge $583 $561 -10 $584 10 $557 $585 forward 7 unknown #
edge $586 $587 -10 $546 10 $543 $588 forward 7 unknown #
attrib_edge_convexity-kcp-attrib $-1 $589 $-1 $537 1 #
vertex $-1 $537 $590 #
straight-curve $-1 10 0 45 0 1 0 I I #
coedge $-1 $578 $557 $541 $564 forward $572 $-1 #
edge $-1 $561 -45 $565 45 $541 $591 forward 7 unknown #
vertex $-1 $542 $592 #
straight-curve $-1 10 0 -45 0 -1 0 I I #
edge $593 $547 -10 $594 10 $544 $595 forward 7 unknown #
convexity-sys-attrib $-1 $-1 $545 $527 #
point $-1 10 -45 45 #
point $-1 10 -45 -45 #
model_id-kcp-attrib $-1 $-1 $-1 $550 1 990549435 50 -1187905535 22 #
loop $-1 $-1 $563 $550 #
plane-surface $-1 0 45 0 0 -1 0 0 0 -1 forward_v I I I I #
coedge $-1 $596 $580 $582 $597 forward $551 $-1 #
coedge $-1 $580 $596 $553 $576 reversed $551 $-1 #
edge $598 $587 -45 $594 45 $575 $599 forward 7 unknown #
coedge $-1 $555 $554 $596 $600 forward $513 $-1 #
coedge $-1 $582 $563 $555 $579 reversed $572 $-1 #
edge $-1 $601 -10 $565 10 $578 $602 forward 7 unknown #
coedge $-1 $574 $575 $556 $581 reversed $551 $-1 #
edge $603 $584 -45 $587 45 $580 $604 forward 7 unknown #
coedge $-1 $557 $578 $574 $597 reversed $572 $-1 #
attrib_edge_convexity-kcp-attrib $-1 $605 $-1 $558 1 #
vertex $-1 $558 $606 #
straight-curve $-1 0 45 45 -1 0 0 I I #
attrib_edge_convexity-kcp-attrib $-1 $607 $-1 $559 1 #
vertex $-1 $581 $608 #
straight-curve $-1 0 -45 45 1 0 0 I I #
convexity-sys-attrib $-1 $-1 $560 $537 #
point $-1 10 45 45 #
straight-curve $-1 10 45 0 0 0 -1 I I #
point $-1 10 45 -45 #
attrib_edge_convexity-kcp-attrib $-1 $609 $-1 $567 1 #
vertex $-1 $600 $610 #
straight-curve $-1 0 -45 -45 -1 0 0 I I #
coedge $-1 $575 $574 $577 $600 reversed $551 $-1 #
edge $611 $584 -45 $601 45 $582 $612 forward 7 unknown #
attrib_edge_convexity-kcp-attrib $-1 $613 $-1 $576 1 #
straight-curve $-1 -10 -45 0 0 0 -1 I I #
edge $614 $594 -45 $601 45 $596 $615 forward 7 unknown #
vertex $-1 $579 $616 #
straight-curve $-1 0 45 -45 1 0 0 I I #
attrib_edge_convexity-kcp-attrib $-1 $617 $-1 $581 1 #
straight-curve $-1 -10 0 45 0 -1 0 I I #
convexity-sys-attrib $-1 $-1 $583 $558 #
point $-1 -10 45 45 #
convexity-sys-attrib $-1 $-1 $586 $559 #
point $-1 -10 -45 45 #
convexity-sys-attrib $-1 $-1 $593 $567 #
point $-1 -10 -45 -45 #
attrib_edge_convexity-kcp-attrib $-1 $618 $-1 $597 1 #
straight-curve $-1 -10 45 0 0 0 -1 I I #
convexity-sys-attrib $-1 $-1 $598 $576 #
attrib_edge_convexity-kcp-attrib $-1 $619 $-1 $600 1 #
straight-curve $-1 -10 0 -45 0 1 0 I I #
point $-1 -10 45 -45 #
convexity-sys-attrib $-1 $-1 $603 $581 #
convexity-sys-attrib $-1 $-1 $611 $597 #
convexity-sys-attrib $-1 $-1 $614 $600 #
End-of-ACIS-data 