106 0 1 0           
body $-1 $1 $-1 $-1 #
lump $-1 $-1 $2 $0 #
shell $-1 $-1 $-1 $3 $1 #
face $-1 $4 $5 $2 $-1 $6 reversed single #
face $-1 $7 $8 $2 $-1 $9 reversed single #
loop $-1 $-1 $10 $3 #
sphere-surface $-1 0 10 -19.99999999999999645 3 -3.491481338843133355e-15 0 -1 1 0 -3.491481338843133355e-15 0 I I I I #
face $-1 $11 $12 $2 $-1 $13 reversed single #
loop $-1 $14 $15 $4 #
cone-surface $-1 25 10 -20.00000000000008527 1 0 -3.491481338843133355e-15 -1.047444401652940007e-14 0 -3 1 I I 0 1 0 I I I I #
coedge $-1 $10 $10 $16 $17 0 $5 $-1 #
face $-1 $18 $19 $2 $-1 $20 reversed single #
loop $-1 $-1 $21 $7 #
sphere-surface $-1 5 10 -10 3 -3.491481338843133355e-15 0 -1 1 0 -3.491481338843133355e-15 0 I I I I #
loop $-1 $-1 $16 $4 #
coedge $-1 $15 $15 $22 $23 1 $8 $-1 #
coedge $-1 $16 $16 $10 $17 1 $14 $-1 #
edge $-1 $24 $24 $16 $25 1 #
face $-1 $26 $27 $2 $-1 $28 reversed single #
loop $-1 $-1 $29 $11 #
sphere-surface $-1 -5 10 0 3 -3.491481338843133355e-15 0 -1 1 0 -3.491481338843133355e-15 0 I I I I #
coedge $-1 $21 $21 $30 $31 1 $12 $-1 #
coedge $-1 $22 $22 $15 $23 0 $32 $-1 #
edge $-1 $33 $33 $22 $34 0 #
vertex $-1 $17 $35 #
ellipse-curve $-1 0 10 -19.99999999999999645 -1 0 3.491481338843133355e-15 -1.047444401652940007e-14 0 -3 1 I I #
face $-1 $36 $37 $2 $-1 $38 reversed single #
loop $-1 $39 $40 $18 #
cone-surface $-1 20 10 -8.728703347107833388e-14 1 0 -3.491481338843133355e-15 -1.047444401652940007e-14 0 -3 1 I I 0 1 0 I I I I #
coedge $-1 $29 $29 $41 $42 0 $19 $-1 #
coedge $-1 $30 $30 $21 $31 0 $43 $-1 #
edge $-1 $44 $44 $30 $45 0 #
loop $-1 $43 $22 $46 #
vertex $-1 $23 $47 #
ellipse-curve $-1 4.999999999999928946 10 -20.00000000000001421 -1 -0 -0 -1.047444401652940007e-14 0 -3 1 I I #
point $-1 -1.065814103640150279e-14 10 -22.99999999999999645 #
face $-1 $48 $49 $2 $-1 $50 reversed single #
loop $-1 $-1 $51 $26 #
sphere-surface $-1 0 10 10 3 -3.491481338843133355e-15 0 -1 1 0 -3.491481338843133355e-15 0 I I I I #
loop $-1 $-1 $41 $18 #
coedge $-1 $40 $40 $52 $53 1 $27 $-1 #
coedge $-1 $41 $41 $29 $42 1 $39 $-1 #
edge $-1 $54 $54 $41 $55 1 #
loop $-1 $56 $30 $46 #
vertex $-1 $31 $57 #
ellipse-curve $-1 5 10 -10 -1 -0 -0 0 0 3 1 I I #
face $-1 $58 $32 $2 $-1 $59 forward single #
point $-1 4.999999999999939604 9.999999999999978684 -17.00000000000001421 #
face $-1 $60 $61 $2 $-1 $62 forward single #
loop $-1 $63 $64 $36 #
cone-surface $-1 25 10 9.999999999999912959 1 0 -3.491481338843133355e-15 -1.047444401652940007e-14 0 -3 1 I I 0 1 0 I I I I #
coedge $-1 $51 $51 $65 $66 0 $37 $-1 #
coedge $-1 $52 $52 $40 $53 0 $56 $-1 #
edge $-1 $67 $67 $52 $68 0 #
vertex $-1 $42 $69 #
ellipse-curve $-1 -5 10 0 -1 0 3.491481338843133355e-15 -1.047444401652940007e-14 0 -3 1 I I #
loop $-1 $70 $52 $46 #
point $-1 4.999999999999989342 10 -13 #
face $-1 $71 $72 $2 $-1 $73 forward single #
plane-surface $-1 5 0 0 1 0 0 0 0 -1 0 I I I I #
face $-1 $74 $75 $2 $-1 $76 forward single #
loop $-1 $-1 $77 $48 #
cone-surface $-1 15 30 -30 1 -0 -0 0 3.535533905932737309 -3.535533905932737309 1 I I 0 -1 0 I I I I #
loop $-1 $-1 $65 $36 #
coedge $-1 $64 $64 $78 $79 1 $49 $-1 #
coedge $-1 $65 $65 $51 $66 1 $63 $-1 #
edge $-1 $80 $80 $65 $81 1 #
vertex $-1 $53 $82 #
ellipse-curve $-1 5 10 -3.491481338843133355e-14 -1 -0 -0 -1.047444401652940007e-14 0 -3 1 I I #
point $-1 -5.000000000000010658 10 -3 #
loop $-1 $83 $78 $46 #
face $-1 $84 $85 $2 $-1 $86 forward single #
loop $-1 $-1 $87 $58 #
plane-surface $-1 15 -35 0 0 1 0 0 0 1 0 I I I I #
face $-1 $46 $88 $2 $-1 $89 forward single #
loop $-1 $-1 $90 $60 #
plane-surface $-1 15 0 -35 0 0 1 1 0 0 0 I I I I #
coedge $-1 $91 $92 $93 $94 0 $61 $-1 #
coedge $-1 $78 $78 $64 $79 0 $70 $-1 #
edge $-1 $95 $95 $78 $96 0 #
vertex $-1 $66 $97 #
ellipse-curve $-1 0 10 10 -1 0 3.491481338843133355e-15 -1.047444401652940007e-14 0 -3 1 I I #
point $-1 5.000000000000010658 9.999999999999978684 2.999999999999964917 #
loop $-1 $-1 $98 $46 #
face $-1 $99 $100 $2 $-1 $101 forward single #
loop $-1 $-1 $102 $71 #
cone-surface $-1 15 -30 -30 -1 -0 -0 0 -3.535533905932737309 -3.535533905932737309 1 I I 0 -1 0 I I I I #
coedge $-1 $103 $104 $105 $106 1 $72 $-1 #
loop $-1 $-1 $105 $74 #
cone-surface $-1 15 -30 30 1 -0 -0 0 -3.535533905932737309 3.535533905932737309 1 I I 0 -1 0 I I I I #
coedge $-1 $107 $108 $109 $110 1 $75 $-1 #
coedge $-1 $109 $77 $98 $111 1 $61 $-1 #
coedge $-1 $77 $109 $112 $113 1 $61 $-1 #
coedge $-1 $114 $115 $77 $94 1 $116 $-1 #
edge $-1 $117 $118 $93 $119 0 #
vertex $-1 $79 $120 #
ellipse-curve $-1 5.000000000000035527 10 9.999999999999982236 -1 -0 -0 -1.047444401652940007e-14 0 -3 1 I I #
point $-1 -1.065814103640150279e-14 10 7 #
coedge $-1 $121 $122 $91 $111 0 $83 $-1 #
face $-1 $123 $124 $2 $-1 $125 reversed single #
loop $-1 $-1 $126 $84 #
cone-surface $-1 15 30 30 -1 -0 0 0 3.535533905932737309 3.535533905932737309 1 I I 0 -1 0 I I I I #
coedge $-1 $127 $128 $129 $130 0 $85 $-1 #
coedge $-1 $129 $87 $131 $132 1 $72 $-1 #
coedge $-1 $87 $129 $133 $134 1 $72 $-1 #
coedge $-1 $135 $136 $87 $106 0 $88 $-1 #
edge $-1 $137 $138 $87 $139 0 #
coedge $-1 $140 $90 $122 $141 1 $75 $-1 #
coedge $-1 $90 $140 $142 $143 1 $75 $-1 #
coedge $-1 $92 $91 $90 $110 0 $61 $-1 #
edge $-1 $144 $145 $90 $146 0 #
edge $-1 $144 $118 $98 $147 0 #
coedge $-1 $142 $148 $92 $113 0 $149 $-1 #
edge $-1 $117 $145 $112 $150 0 #
coedge $-1 $151 $93 $148 $152 1 $116 $-1 #
coedge $-1 $93 $151 $121 $153 0 $116 $-1 #
loop $-1 $-1 $93 $123 #
vertex $-1 $152 $154 #
vertex $-1 $153 $155 #
straight-curve $-1 15 35 -30 -1 -0 0 F -10.5 F 25.5 #
point $-1 5.000000000000046185 9.999999999999978684 12.99999999999998224 #
coedge $-1 $156 $98 $115 $153 1 $83 $-1 #
coedge $-1 $98 $157 $107 $141 0 $83 $-1 #
face $-1 $158 $116 $2 $-1 $159 forward single #
loop $-1 $-1 $160 $99 #
plane-surface $-1 15 0 35 0 0 1 1 0 0 0 I I I I #
coedge $-1 $161 $162 $151 $163 0 $100 $-1 #
coedge $-1 $164 $102 $165 $166 1 $85 $-1 #
coedge $-1 $102 $164 $157 $167 1 $85 $-1 #
coedge $-1 $104 $103 $102 $130 1 $72 $-1 #
edge $-1 $168 $169 $129 $170 0 #
coedge $-1 $171 $165 $103 $132 0 $149 $-1 #
edge $-1 $169 $137 $131 $172 0 #
coedge $-1 $157 $173 $104 $134 0 $83 $-1 #
edge $-1 $138 $168 $133 $174 0 #
coedge $-1 $175 $105 $173 $176 1 $88 $-1 #
coedge $-1 $105 $175 $171 $177 1 $88 $-1 #
vertex $-1 $132 $178 #
vertex $-1 $106 $179 #
straight-curve $-1 15 -35 30 -1 0 0 F -10.5 F 25.5 #
coedge $-1 $108 $107 $164 $180 1 $75 $-1 #
edge $-1 $181 $144 $122 $182 0 #
coedge $-1 $165 $112 $108 $143 0 $149 $-1 #
edge $-1 $145 $183 $142 $184 0 #
vertex $-1 $141 $185 #
vertex $-1 $143 $186 #
straight-curve $-1 15 30 -35 1 -0 -0 F -25.5 F 10.5 #
ellipse-curve $-1 5 30 -30 1 0 0 0 3.535533905932737309 -3.535533905932737309 1 I I #
coedge $-1 $112 $187 $114 $152 0 $149 $-1 #
loop $-1 $188 $142 $189 #
ellipse-curve $-1 10 30 -30 -1 0 0 0 3.535533905932737309 -3.535533905932737309 1 I I #
coedge $-1 $115 $114 $126 $163 1 $116 $-1 #
edge $-1 $190 $117 $148 $191 0 #
edge $-1 $192 $118 $115 $193 0 #
point $-1 10 35 -30 #
point $-1 5 35 -30 #
coedge $-1 $194 $121 $162 $195 0 $83 $-1 #
coedge $-1 $122 $133 $128 $167 0 $83 $-1 #
face $-1 $196 $197 $2 $-1 $198 forward single #
plane-surface $-1 15 35 0 0 -1 0 0 0 -1 0 I I I I #
coedge $-1 $199 $200 $175 $201 1 $124 $-1 #
coedge $-1 $202 $126 $187 $203 1 $100 $-1 #
coedge $-1 $126 $202 $156 $195 1 $100 $-1 #
edge $-1 $192 $190 $151 $204 0 #
coedge $-1 $128 $127 $140 $180 0 $85 $-1 #
coedge $-1 $131 $142 $127 $166 0 $149 $-1 #
edge $-1 $183 $169 $165 $205 0 #
edge $-1 $168 $181 $157 $206 0 #
vertex $-1 $134 $207 #
vertex $-1 $132 $208 #
straight-curve $-1 15 -35 -30 1 -0 -0 F -25.5 F 10.5 #
coedge $-1 $209 $131 $136 $177 0 $149 $-1 #
straight-curve $-1 10 -35 0 0 -0 1 I I #
coedge $-1 $133 $194 $135 $176 0 $83 $-1 #
straight-curve $-1 5 -35 0 0 0 -1 I I #
coedge $-1 $136 $135 $160 $201 0 $88 $-1 #
edge $-1 $210 $138 $173 $211 0 #
edge $-1 $137 $212 $171 $213 0 #
point $-1 10 -35 30 #
point $-1 5 -35 30 #
edge $-1 $183 $181 $140 $214 0 #
vertex $-1 $167 $215 #
straight-curve $-1 5 0 -35 0 1 0 I I #
vertex $-1 $143 $216 #
straight-curve $-1 10 0 -35 0 -1 0 I I #
point $-1 5 30 -35 #
point $-1 10 30 -35 #
coedge $-1 $148 $209 $161 $203 0 $149 $-1 #
loop $-1 $-1 $217 $189 #
face $-1 $-1 $149 $2 $-1 $218 reversed single #
vertex $-1 $152 $219 #
straight-curve $-1 10 35 0 -0 -0 -1 I I #
vertex $-1 $195 $220 #
straight-curve $-1 5 35 0 0 0 -1 I I #
coedge $-1 $173 $156 $199 $221 0 $83 $-1 #
edge $-1 $192 $222 $156 $223 0 #
face $-1 $224 $225 $2 $-1 $226 reversed single #
loop $-1 $-1 $227 $158 #
plane-surface $-1 0 0 45 0 0 1 1 0 0 0 I I I I #
coedge $-1 $228 $160 $194 $221 1 $124 $-1 #
coedge $-1 $160 $228 $209 $229 1 $124 $-1 #
edge $-1 $210 $212 $160 $230 0 #
coedge $-1 $162 $161 $228 $231 0 $100 $-1 #
edge $-1 $232 $190 $187 $233 0 #
straight-curve $-1 15 35 30 1 -0 -0 F -25.5 F 10.5 #
ellipse-curve $-1 10 -30 -30 -1 0 0 0 -3.535533905932737309 -3.535533905932737309 1 I I #
ellipse-curve $-1 5 -30 -30 1 0 0 0 -3.535533905932737309 -3.535533905932737309 1 I I #
point $-1 5 -35 -30 #
point $-1 10 -35 -30 #
coedge $-1 $187 $171 $200 $229 0 $149 $-1 #
vertex $-1 $221 $234 #
ellipse-curve $-1 5 -30 30 1 0 0 0 -3.535533905932737309 3.535533905932737309 1 I I #
vertex $-1 $229 $235 #
ellipse-curve $-1 10 -30 30 -1 0 0 0 -3.535533905932737309 3.535533905932737309 1 I I #
straight-curve $-1 15 -30 -35 -1 0 0 F -10.5 F 25.5 #
point $-1 5 -30 -35 #
point $-1 10 -30 -35 #
coedge $-1 $236 $237 $238 $239 0 $188 $-1 #
plane-surface $-1 10 0 0 -1 0 0 0 -0 1 0 I I I I #
point $-1 10 35 30 #
point $-1 5 35 30 #
edge $-1 $222 $210 $194 $240 0 #
vertex $-1 $231 $241 #
ellipse-curve $-1 5 30 30 1 0 0 0 3.535533905932737309 3.535533905932737309 1 I I #
face $-1 $242 $243 $2 $-1 $244 reversed single #
loop $-1 $-1 $245 $196 #
plane-surface $-1 0 0 -45 0 0 1 1 0 0 0 I I I I #
coedge $-1 $246 $247 $237 $248 0 $197 $-1 #
coedge $-1 $200 $199 $202 $231 1 $124 $-1 #
edge $-1 $212 $232 $209 $249 0 #
straight-curve $-1 15 -30 35 1 0 0 F -25.5 F 10.5 #
edge $-1 $232 $222 $228 $250 0 #
vertex $-1 $229 $251 #
ellipse-curve $-1 10 30 30 -1 0 0 0 3.535533905932737309 3.535533905932737309 1 I I #
point $-1 5 -30 35 #
point $-1 10 -30 35 #
coedge $-1 $252 $217 $245 $253 1 $188 $-1 #
coedge $-1 $217 $252 $227 $248 1 $188 $-1 #
coedge $-1 $254 $255 $217 $239 1 $243 $-1 #
edge $-1 $256 $257 $217 $258 0 #
straight-curve $-1 5 0 35 0 -1 0 I I #
point $-1 5 30 35 #
face $-1 $259 $260 $2 $-1 $261 reversed single #
loop $-1 $-1 $262 $224 #
plane-surface $-1 0 -45 0 0 1 -0 -0 0 1 0 I I I I #
coedge $-1 $263 $264 $236 $253 0 $225 $-1 #
coedge $-1 $265 $227 $266 $267 0 $197 $-1 #
coedge $-1 $227 $265 $254 $268 0 $197 $-1 #
edge $-1 $256 $269 $237 $270 0 #
straight-curve $-1 10 0 35 0 1 -0 I I #
straight-curve $-1 15 30 35 -1 0 0 F -10.5 F 25.5 #
point $-1 10 30 35 #
coedge $-1 $237 $236 $271 $272 1 $188 $-1 #
edge $-1 $273 $257 $236 $274 0 #
coedge $-1 $262 $238 $247 $268 1 $243 $-1 #
coedge $-1 $238 $262 $263 $275 1 $243 $-1 #
vertex $-1 $248 $276 #
vertex $-1 $239 $277 #
straight-curve $-1 10 -45 0 0 0 -1 I I #
face $-1 $189 $278 $2 $-1 $279 reversed single #
loop $-1 $-1 $280 $242 #
plane-surface $-1 -10 0 0 1 0 0 0 0 -1 0 I I I I #
coedge $-1 $255 $254 $281 $282 0 $243 $-1 #
coedge $-1 $283 $245 $255 $275 0 $225 $-1 #
coedge $-1 $245 $283 $284 $285 0 $225 $-1 #
coedge $-1 $247 $246 $286 $287 0 $197 $-1 #
coedge $-1 $271 $288 $246 $267 1 $278 $-1 #
edge $-1 $269 $289 $266 $290 0 #
edge $-1 $291 $256 $254 $292 0 #
vertex $-1 $248 $293 #
straight-curve $-1 10 0 45 0 1 0 I I #
coedge $-1 $284 $266 $252 $272 0 $278 $-1 #
edge $-1 $269 $273 $252 $294 0 #
vertex $-1 $253 $295 #
straight-curve $-1 10 0 -45 0 -1 0 I I #
edge $-1 $257 $296 $255 $297 0 #
point $-1 10 -45 45 #
point $-1 10 -45 -45 #
loop $-1 $-1 $271 $259 #
plane-surface $-1 0 45 0 0 -1 0 0 0 -1 0 I I I I #
coedge $-1 $298 $286 $288 $299 0 $260 $-1 #
coedge $-1 $286 $298 $262 $282 1 $260 $-1 #
edge $-1 $291 $296 $281 $300 0 #
coedge $-1 $264 $263 $298 $301 0 $225 $-1 #
coedge $-1 $288 $271 $264 $285 1 $278 $-1 #
edge $-1 $302 $273 $284 $303 0 #
coedge $-1 $280 $281 $265 $287 1 $260 $-1 #
edge $-1 $289 $291 $286 $304 0 #
coedge $-1 $266 $284 $280 $299 1 $278 $-1 #
vertex $-1 $267 $305 #
straight-curve $-1 0 45 45 -1 0 0 I I #
vertex $-1 $287 $306 #
straight-curve $-1 0 -45 45 1 0 0 I I #
point $-1 10 45 45 #
straight-curve $-1 10 45 0 0 0 -1 I I #
point $-1 10 45 -45 #
vertex $-1 $301 $307 #
straight-curve $-1 0 -45 -45 -1 0 0 I I #
coedge $-1 $281 $280 $283 $301 1 $260 $-1 #
edge $-1 $289 $302 $288 $308 0 #
straight-curve $-1 -10 -45 0 0 0 -1 I I #
edge $-1 $296 $302 $298 $309 0 #
vertex $-1 $285 $310 #
straight-curve $-1 0 45 -45 1 0 0 I I #
straight-curve $-1 -10 0 45 0 -1 0 I I #
point $-1 -10 45 45 #
point $-1 -10 -45 45 #
point $-1 -10 -45 -45 #
straight-curve $-1 -10 45 0 0 0 -1 I I #
straight-curve $-1 -10 0 -45 0 1 0 I I #
point $-1 -10 45 -45 #
End-of-ACIS-data 