600 0 2 0           
24 FBMach with ACIS - 6.0.3 13 ACIS 6.0.3 NT 24 Mon Apr 01 00:09:12 2002 
1 9.9999999999999995e-007 1e-010 
body $2 $3 $-1 $4 #
bdycol-kcp $-1 1 2 $5 $6 #
model_id-kcp-attrib $-1 $7 $-1 $0 1 1017637751 100 -2107375615 1 #
lump $-1 $-1 $8 $0 #
transform $-1 1 0 0 0 1 0 0 0 1 0 0 0 1 rotate no_reflect no_shear #
body $9 $10 $-1 $11 #
body $12 $13 $-1 $14 #
aggregate_advspl_attribute-aggregate_geombuild_base_attribute-aggregate_body_attribute-attrib_HH-attrib $-1 $15 $2 $0 F #
shell $-1 $-1 $-1 $16 $-1 $3 #
model_id-kcp-attrib $-1 $-1 $-1 $5 1 1017637751 100 -2107375614 1 #
lump $-1 $-1 $17 $5 #
transform $-1 1 0 0 0 1 0 0 0 1 0 0 0 1 no_rotate no_reflect no_shear #
rgb_color-st-attrib $-1 $18 $-1 $6 0 0 1 #
lump $-1 $-1 $19 $6 #
transform $-1 1 0 0 0 1 0 0 0 1 0 0 0 1 no_rotate no_reflect no_shear #
aggregate_secndry_attribute-aggregate_geombuild_base_attribute-aggregate_body_attribute-attrib_HH-attrib $-1 $20 $7 $0 F #
face $21 $22 $23 $8 $-1 $24 reversed single #
shell $-1 $-1 $-1 $25 $-1 $10 #
model_id-kcp-attrib $-1 $-1 $12 $6 1 1017637751 590 -2108817405 1 #
shell $-1 $-1 $-1 $26 $-1 $13 #
aggregate_sharped_attribute-aggregate_geombuild_base_attribute-aggregate_body_attribute-attrib_HH-attrib $-1 $27 $15 $0 F #
model_id-kcp-attrib $-1 $28 $-1 $16 1 1017637751 100 -2107375615 2 #
face $29 $30 $31 $8 $-1 $32 reversed single #
loop $-1 $-1 $33 $16 #
sphere-surface $-1 0 10 -19.999999999999996 3 -3.4914813388431334e-015 0 -1 1 0 -3.4914813388431334e-015 forward_v I I I I #
face $34 $35 $36 $17 $-1 $37 forward single #
face $-1 $38 $39 $19 $-1 $40 forward single #
aggregate_reblend_attribute-aggregate_geombuild_base_attribute-aggregate_body_attribute-attrib_HH-attrib $-1 $41 $20 $0 F #
attrib_hh_face_geombuild-attrib_entity_geombuild-individual_entity_attribute-attrib_HH-attrib $-1 $-1 $21 $16 F #
model_id-kcp-attrib $-1 $42 $-1 $22 1 1017637751 100 -2107375615 3 #
face $43 $44 $45 $8 $-1 $46 reversed single #
loop $-1 $47 $48 $22 #
cone-surface $-1 25 10 -20.000000000000085 1 0 -3.4914813388431334e-015 -1.04744440165294e-014 0 -3 1 I I 0 1 3 forward I I I I #
coedge $49 $33 $33 $50 $51 forward $23 $-1 #
model_id-kcp-attrib $-1 $-1 $-1 $25 1 1017637751 100 -2107375614 2 #
face $52 $53 $54 $17 $-1 $55 reversed single #
loop $-1 $-1 $56 $25 #
plane-surface $-1 0 0 45 0 0 1 1 0 0 forward_v I I I I #
face $-1 $57 $58 $19 $-1 $59 forward single #
loop $-1 $-1 $60 $26 #
plane-surface $-1 5 35 30 0 1 0 0 0 1 forward_v I I I I #
aggregate_isospline_attribute-aggregate_geombuild_base_attribute-aggregate_body_attribute-attrib_HH-attrib $-1 $61 $27 $0 F #
attrib_hh_face_geombuild-attrib_entity_geombuild-individual_entity_attribute-attrib_HH-attrib $-1 $-1 $29 $22 F #
model_id-kcp-attrib $-1 $62 $-1 $30 1 1017637751 100 -2107375615 4 #
face $63 $64 $65 $8 $-1 $66 reversed single #
loop $-1 $-1 $67 $30 #
sphere-surface $-1 5 10 -10 3 -3.4914813388431334e-015 0 -1 1 0 -3.4914813388431334e-015 forward_v I I I I #
loop $-1 $-1 $50 $22 #
coedge $68 $48 $48 $69 $70 reversed $31 $-1 #
attrib_hh_coedge_geombuild-attrib_entity_geombuild-individual_entity_attribute-attrib_HH-attrib $-1 $-1 $-1 $33 F #
coedge $71 $50 $50 $33 $51 reversed $47 $-1 #
edge $72 $73 -6.2831853071795862 $73 0 $50 $74 reversed 7 unknown #
model_id-kcp-attrib $-1 $-1 $-1 $35 1 1017637751 100 -2107375614 3 #
face $75 $76 $77 $17 $-1 $78 reversed single #
loop $-1 $-1 $79 $35 #
plane-surface $-1 0 0 -45 0 0 1 1 0 0 forward_v I I I I #
coedge $-1 $80 $81 $82 $83 forward $36 $-1 #
face $-1 $84 $85 $19 $-1 $86 forward single #
loop $-1 $-1 $87 $38 #
cone-surface $-1 5 30 -30 1 0 0 0 3.5355339059327373 -3.5355339059327373 1 I I 0 1 5 forward I I I I #
coedge $-1 $88 $89 $90 $91 forward $39 $-1 #
aggregate_analytic_solver_attribute-aggregate_geombuild_base_attribute-aggregate_body_attribute-attrib_HH-attrib $-1 $92 $41 $0 F #
attrib_hh_face_geombuild-attrib_entity_geombuild-individual_entity_attribute-attrib_HH-attrib $-1 $-1 $43 $30 F #
model_id-kcp-attrib $-1 $93 $-1 $44 1 1017637751 100 -2107375615 5 #
face $94 $95 $96 $8 $-1 $97 reversed single #
loop $-1 $-1 $98 $44 #
sphere-surface $-1 -5 10 0 3 -3.4914813388431334e-015 0 -1 1 0 -3.4914813388431334e-015 forward_v I I I I #
coedge $99 $67 $67 $100 $101 reversed $45 $-1 #
attrib_hh_coedge_geombuild-attrib_entity_geombuild-individual_entity_attribute-attrib_HH-attrib $-1 $-1 $-1 $48 F #
coedge $102 $69 $69 $48 $70 forward $103 $-1 #
edge $104 $105 -3.1415926535898002 $105 3.141592653589786 $69 $106 forward 7 unknown #
attrib_hh_coedge_geombuild-attrib_entity_geombuild-individual_entity_attribute-attrib_HH-attrib $-1 $-1 $-1 $50 F #
attrib_hh_edge_geombuild-attrib_entity_geombuild-individual_entity_attribute-attrib_HH-attrib $-1 $-1 $-1 $51 F #
vertex $107 $51 $108 #
ellipse-curve $-1 0 10 -19.999999999999996 -1 0 3.4914813388431334e-015 -1.04744440165294e-014 0 -3 1 I I #
model_id-kcp-attrib $-1 $-1 $-1 $53 1 1017637751 100 -2107375614 4 #
face $109 $110 $111 $17 $-1 $112 reversed single #
loop $-1 $-1 $113 $53 #
plane-surface $-1 0 -45 0 0 1 0 0 0 1 forward_v I I I I #
coedge $-1 $114 $115 $116 $117 forward $54 $-1 #
coedge $-1 $118 $56 $119 $120 forward $36 $-1 #
coedge $-1 $56 $118 $121 $122 forward $36 $-1 #
coedge $-1 $123 $124 $56 $83 reversed $125 $-1 #
edge $-1 $126 -45 $127 45 $82 $128 forward 7 unknown #
face $-1 $129 $130 $19 $-1 $131 forward single #
loop $-1 $-1 $132 $57 #
plane-surface $-1 5 30 -35 0 0 -1 -1 0 0 forward_v I I I I #
coedge $-1 $133 $134 $135 $136 forward $58 $-1 #
coedge $-1 $137 $60 $134 $138 reversed $39 $-1 #
coedge $-1 $60 $137 $139 $140 forward $39 $-1 #
coedge $-1 $141 $135 $60 $91 reversed $142 $-1 #
edge $-1 $143 -30 $144 30 $60 $145 forward 7 unknown #
aggregate_geombuild_attribute-aggregate_geombuild_base_attribute-aggregate_body_attribute-attrib_HH-attrib $-1 $146 $61 $0 #
attrib_hh_face_geombuild-attrib_entity_geombuild-individual_entity_attribute-attrib_HH-attrib $-1 $-1 $63 $44 F #
model_id-kcp-attrib $-1 $147 $-1 $64 1 1017637751 100 -2107375615 6 #
face $148 $149 $150 $8 $-1 $151 reversed single #
loop $-1 $152 $153 $64 #
cone-surface $-1 20 10 -8.7287033471078334e-014 1 0 -3.4914813388431334e-015 -1.04744440165294e-014 0 -3 1 I I 0 1 3 forward I I I I #
coedge $154 $98 $98 $155 $156 forward $65 $-1 #
attrib_hh_coedge_geombuild-attrib_entity_geombuild-individual_entity_attribute-attrib_HH-attrib $-1 $-1 $-1 $67 F #
coedge $157 $100 $100 $67 $101 forward $158 $-1 #
edge $159 $160 -3.1415926535897931 $160 3.1415926535897931 $100 $161 forward 7 unknown #
attrib_hh_coedge_geombuild-attrib_entity_geombuild-individual_entity_attribute-attrib_HH-attrib $-1 $-1 $-1 $69 F #
loop $-1 $158 $69 $162 #
attrib_hh_edge_geombuild-attrib_entity_geombuild-individual_entity_attribute-attrib_HH-attrib $-1 $-1 $-1 $70 F #
vertex $163 $70 $164 #
ellipse-curve $-1 4.9999999999999289 10 -20.000000000000014 -1 0 0 -1.04744440165294e-014 0 -3 1 I I #
attrib_hh_vertex_geombuild-attrib_entity_geombuild-individual_entity_attribute-attrib_HH-attrib $-1 $-1 $-1 $73 F #
point $-1 -1.0658141036401503e-014 10 -22.999999999999996 #
model_id-kcp-attrib $-1 $-1 $-1 $76 1 1017637751 100 -2107375614 5 #
face $165 $166 $167 $17 $-1 $168 reversed single #
loop $-1 $-1 $169 $76 #
plane-surface $-1 -10 0 0 1 0 0 0 0 -1 forward_v I I I I #
coedge $-1 $170 $121 $171 $172 forward $77 $-1 #
coedge $-1 $173 $79 $170 $174 forward $54 $-1 #
coedge $-1 $79 $173 $175 $176 forward $54 $-1 #
coedge $-1 $124 $123 $79 $117 reversed $125 $-1 #
edge $-1 $177 -45 $178 45 $116 $179 forward 7 unknown #
coedge $-1 $81 $80 $180 $181 forward $36 $-1 #
coedge $-1 $182 $183 $80 $120 reversed $167 $-1 #
edge $-1 $127 -10 $184 10 $119 $185 forward 7 unknown #
coedge $-1 $113 $186 $81 $122 reversed $77 $-1 #
edge $-1 $187 -10 $126 10 $121 $188 forward 7 unknown #
coedge $-1 $116 $82 $186 $189 forward $125 $-1 #
coedge $-1 $82 $116 $182 $190 reversed $125 $-1 #
loop $-1 $-1 $123 $166 #
vertex $-1 $83 $191 #
vertex $-1 $83 $192 #
straight-curve $-1 10 0 45 0 1 0 I I #
face $-1 $193 $194 $19 $-1 $195 forward single #
loop $-1 $-1 $196 $84 #
cone-surface $-1 5 -30 -30 1 0 0 0 -3.5355339059327373 -3.5355339059327373 1 I I 0 1 5 forward I I I I #
coedge $-1 $197 $198 $199 $200 forward $85 $-1 #
coedge $-1 $201 $87 $198 $202 reversed $58 $-1 #
coedge $-1 $87 $201 $88 $138 forward $58 $-1 #
coedge $-1 $90 $199 $87 $136 reversed $142 $-1 #
edge $-1 $144 -0.78539816339744828 $203 0.78539816339744828 $87 $204 forward 7 unknown #
coedge $-1 $89 $88 $205 $206 reversed $39 $-1 #
edge $207 $208 0 $144 5 $134 $209 forward 7 unknown #
coedge $-1 $210 $211 $89 $140 reversed $212 $-1 #
edge $-1 $213 0 $143 5 $89 $214 forward 7 unknown #
coedge $-1 $215 $90 $211 $216 reversed $142 $-1 #
loop $-1 $-1 $90 $217 #
vertex $-1 $140 $218 #
vertex $-1 $138 $219 #
straight-curve $-1 10 35 0 0 0 -1 I I #
aggregate_stitch_attribute-aggregate_stitch_base_attribute-aggregate_body_attribute-attrib_HH-attrib $-1 $220 $92 $0 F #
attrib_hh_face_geombuild-attrib_entity_geombuild-individual_entity_attribute-attrib_HH-attrib $-1 $-1 $94 $64 F #
model_id-kcp-attrib $-1 $221 $-1 $95 1 1017637751 100 -2107375615 7 #
face $222 $223 $224 $8 $-1 $225 reversed single #
loop $-1 $-1 $226 $95 #
sphere-surface $-1 0 10 10 3 -3.4914813388431334e-015 0 -1 1 0 -3.4914813388431334e-015 forward_v I I I I #
loop $-1 $-1 $155 $64 #
coedge $227 $153 $153 $228 $229 reversed $96 $-1 #
attrib_hh_coedge_geombuild-attrib_entity_geombuild-individual_entity_attribute-attrib_HH-attrib $-1 $-1 $-1 $98 F #
coedge $230 $155 $155 $98 $156 reversed $152 $-1 #
edge $231 $232 -6.2831853071795862 $232 0 $155 $233 reversed 7 unknown #
attrib_hh_coedge_geombuild-attrib_entity_geombuild-individual_entity_attribute-attrib_HH-attrib $-1 $-1 $-1 $100 F #
loop $-1 $234 $100 $162 #
attrib_hh_edge_geombuild-attrib_entity_geombuild-individual_entity_attribute-attrib_HH-attrib $-1 $-1 $-1 $101 F #
vertex $235 $101 $236 #
ellipse-curve $-1 5 10 -10 -1 0 0 0 0 3 1 I I #
face $237 $238 $103 $8 $-1 $239 forward single #
attrib_hh_vertex_geombuild-attrib_entity_geombuild-individual_entity_attribute-attrib_HH-attrib $-1 $-1 $-1 $105 F #
point $-1 4.9999999999999396 9.9999999999999787 -17.000000000000014 #
model_id-kcp-attrib $-1 $-1 $-1 $110 1 1017637751 100 -2107375614 6 #
face $240 $-1 $125 $17 $-1 $241 reversed single #
loop $-1 $-1 $182 $110 #
plane-surface $-1 0 45 0 0 -1 0 0 0 -1 forward_v I I I I #
coedge $-1 $242 $180 $183 $243 forward $111 $-1 #
coedge $-1 $186 $113 $114 $174 reversed $77 $-1 #
coedge $-1 $180 $242 $113 $172 reversed $111 $-1 #
edge $-1 $187 -45 $244 45 $171 $245 forward 7 unknown #
coedge $-1 $115 $114 $242 $246 forward $54 $-1 #
edge $-1 $178 -10 $244 10 $170 $247 forward 7 unknown #
coedge $-1 $183 $182 $115 $176 reversed $167 $-1 #
edge $-1 $248 -10 $177 10 $175 $249 forward 7 unknown #
vertex $-1 $117 $250 #
vertex $-1 $189 $251 #
straight-curve $-1 10 0 -45 0 -1 0 I I #
coedge $-1 $169 $171 $118 $181 reversed $111 $-1 #
edge $-1 $184 -45 $187 45 $180 $252 forward 7 unknown #
coedge $-1 $175 $119 $124 $190 forward $167 $-1 #
coedge $-1 $119 $175 $169 $243 reversed $167 $-1 #
vertex $-1 $120 $253 #
straight-curve $-1 0 45 45 -1 0 0 I I #
coedge $-1 $121 $170 $123 $189 reversed $77 $-1 #
vertex $-1 $181 $254 #
straight-curve $-1 0 -45 45 1 0 0 I I #
edge $-1 $126 -45 $178 45 $123 $255 forward 7 unknown #
edge $-1 $127 -45 $177 45 $124 $256 forward 7 unknown #
point $-1 10 -45 45 #
point $-1 10 45 45 #
face $-1 $257 $258 $19 $-1 $259 forward single #
loop $-1 $-1 $260 $129 #
plane-surface $-1 5 -35 -30 0 -1 0 0 0 -1 forward_v I I I I #
coedge $-1 $261 $262 $263 $264 forward $130 $-1 #
coedge $-1 $265 $132 $262 $266 reversed $85 $-1 #
coedge $-1 $132 $265 $133 $202 forward $85 $-1 #
coedge $-1 $135 $263 $132 $200 reversed $142 $-1 #
edge $-1 $203 -30 $267 30 $132 $268 forward 7 unknown #
coedge $-1 $134 $133 $269 $270 reversed $58 $-1 #
edge $-1 $271 0 $203 5 $198 $272 forward 7 unknown #
vertex $-1 $202 $273 #
ellipse-curve $-1 10 30 -30 -1 0 0 0 3.5355339059327373 -3.5355339059327373 1 I I #
coedge $-1 $269 $274 $137 $206 forward $275 $-1 #
edge $276 $213 -30 $208 30 $137 $277 forward 7 unknown #
convexity-sys-attrib $-1 $-1 $-1 $138 #
vertex $-1 $206 $278 #
straight-curve $-1 5 35 -30 1 0 0 I I #
coedge $-1 $279 $139 $274 $280 reversed $212 $-1 #
coedge $-1 $139 $279 $141 $216 forward $212 $-1 #
loop $-1 $-1 $211 $281 #
vertex $-1 $280 $282 #
straight-curve $-1 5 35 30 1 0 0 I I #
coedge $-1 $283 $141 $284 $285 reversed $142 $-1 #
edge $-1 $286 -0.78539816339744828 $143 0.78539816339744828 $211 $287 forward 7 unknown #
face $-1 $288 $142 $19 $-1 $289 forward single #
point $-1 10 35 30 #
point $-1 10 35 -30 #
aggregate_simgeom_attribute-aggregate_simgeom_base_attribute-aggregate_body_attribute-attrib_HH-attrib $-1 $-1 $146 $0 F #
attrib_hh_face_geombuild-attrib_entity_geombuild-individual_entity_attribute-attrib_HH-attrib $-1 $-1 $148 $95 F #
model_id-kcp-attrib $-1 $290 $-1 $149 1 1017637751 100 -2107375615 8 #
face $291 $292 $293 $8 $-1 $294 forward single #
loop $-1 $295 $296 $149 #
cone-surface $-1 25 10 9.999999999999913 1 0 -3.4914813388431334e-015 -1.04744440165294e-014 0 -3 1 I I 0 1 3 forward I I I I #
coedge $297 $226 $226 $298 $299 forward $150 $-1 #
attrib_hh_coedge_geombuild-attrib_entity_geombuild-individual_entity_attribute-attrib_HH-attrib $-1 $-1 $-1 $153 F #
coedge $300 $228 $228 $153 $229 forward $234 $-1 #
edge $301 $302 -3.1415926535898002 $302 3.141592653589786 $228 $303 forward 7 unknown #
attrib_hh_coedge_geombuild-attrib_entity_geombuild-individual_entity_attribute-attrib_HH-attrib $-1 $-1 $-1 $155 F #
attrib_hh_edge_geombuild-attrib_entity_geombuild-individual_entity_attribute-attrib_HH-attrib $-1 $-1 $-1 $156 F #
vertex $304 $156 $305 #
ellipse-curve $-1 -5 10 0 -1 0 3.4914813388431334e-015 -1.04744440165294e-014 0 -3 1 I I #
loop $-1 $306 $228 $162 #
attrib_hh_vertex_geombuild-attrib_entity_geombuild-individual_entity_attribute-attrib_HH-attrib $-1 $-1 $-1 $160 F #
point $-1 4.9999999999999893 10 -13 #
model_id-kcp-attrib $-1 $307 $-1 $162 1 1017637751 100 -2107375615 12 #
face $308 $309 $310 $8 $-1 $311 forward single #
plane-surface $-1 5 0 0 1 0 0 0 0 -1 forward_v I I I I #
model_id-kcp-attrib $-1 $-1 $-1 $166 1 1017637751 100 -2107375614 7 #
plane-surface $-1 10 0 0 -1 0 0 0 0 1 forward_v I I I I #
coedge $-1 $171 $169 $173 $246 reversed $111 $-1 #
edge $-1 $184 -45 $248 45 $183 $312 forward 7 unknown #
vertex $-1 $246 $313 #
straight-curve $-1 -10 -45 0 0 0 -1 I I #
edge $-1 $244 -45 $248 45 $242 $314 forward 7 unknown #
straight-curve $-1 0 -45 -45 -1 0 0 I I #
vertex $-1 $176 $315 #
straight-curve $-1 0 45 -45 1 0 0 I I #
point $-1 10 45 -45 #
point $-1 10 -45 -45 #
straight-curve $-1 -10 0 45 0 -1 0 I I #
point $-1 -10 45 45 #
point $-1 -10 -45 45 #
straight-curve $-1 10 -45 0 0 0 -1 I I #
straight-curve $-1 10 45 0 0 0 -1 I I #
face $-1 $281 $316 $19 $-1 $317 forward single #
loop $-1 $-1 $318 $193 #
cone-surface $-1 5 -30 30 1 0 0 0 -3.5355339059327373 3.5355339059327373 1 I I 0 1 5 forward I I I I #
coedge $-1 $319 $320 $321 $322 forward $194 $-1 #
coedge $-1 $323 $196 $320 $324 reversed $130 $-1 #
coedge $-1 $196 $323 $197 $266 forward $130 $-1 #
coedge $-1 $199 $321 $196 $264 reversed $142 $-1 #
edge $-1 $267 -0.78539816339744828 $325 0.78539816339744828 $196 $326 forward 7 unknown #
coedge $-1 $198 $197 $327 $328 reversed $85 $-1 #
edge $-1 $329 0 $267 5 $262 $330 forward 7 unknown #
vertex $-1 $266 $331 #
straight-curve $-1 10 0 -35 0 -1 0 I I #
coedge $-1 $327 $205 $201 $270 forward $275 $-1 #
edge $332 $208 -0.78539816339744828 $271 0.78539816339744828 $201 $333 forward 7 unknown #
vertex $-1 $270 $334 #
straight-curve $-1 5 30 -35 1 0 0 I I #
point $-1 10 30 -35 #
coedge $-1 $205 $335 $210 $280 forward $275 $-1 #
loop $-1 $-1 $274 $288 #
convexity-sys-attrib $-1 $-1 $-1 $206 #
straight-curve $-1 5 35 0 0 0 -1 I I #
point $-1 5 35 -30 #
coedge $-1 $211 $210 $336 $337 forward $212 $-1 #
edge $338 $339 -0.78539816339744828 $213 0.78539816339744828 $210 $340 forward 7 unknown #
face $-1 $217 $212 $19 $-1 $341 forward single #
point $-1 5 35 30 #
coedge $-1 $321 $215 $318 $342 reversed $142 $-1 #
coedge $-1 $336 $343 $215 $285 forward $316 $-1 #
edge $-1 $344 -30 $286 30 $284 $345 forward 7 unknown #
vertex $-1 $337 $346 #
ellipse-curve $-1 10 30 30 -1 0 0 0 3.5355339059327373 3.5355339059327373 1 I I #
face $-1 $-1 $275 $19 $-1 $347 reversed single #
plane-surface $-1 10 8.8817841970012523e-016 -5.5511151231257827e-016 1 0 0 0 0 -1 forward_v I I I I #
attrib_hh_face_geombuild-attrib_entity_geombuild-individual_entity_attribute-attrib_HH-attrib $-1 $-1 $222 $149 F #
model_id-kcp-attrib $-1 $348 $-1 $223 1 1017637751 100 -2107375615 9 #
face $349 $350 $351 $8 $-1 $352 forward single #
loop $-1 $-1 $353 $223 #
cone-surface $-1 15 30 -30 1 0 0 0 3.5355339059327373 -3.5355339059327373 1 I I 0 -1 5 forward I I I I #
loop $-1 $-1 $298 $149 #
coedge $354 $296 $296 $355 $356 reversed $224 $-1 #
attrib_hh_coedge_geombuild-attrib_entity_geombuild-individual_entity_attribute-attrib_HH-attrib $-1 $-1 $-1 $226 F #
coedge $357 $298 $298 $226 $299 reversed $295 $-1 #
edge $358 $359 -6.2831853071795862 $359 0 $298 $360 reversed 7 unknown #
attrib_hh_coedge_geombuild-attrib_entity_geombuild-individual_entity_attribute-attrib_HH-attrib $-1 $-1 $-1 $228 F #
attrib_hh_edge_geombuild-attrib_entity_geombuild-individual_entity_attribute-attrib_HH-attrib $-1 $-1 $-1 $229 F #
vertex $361 $229 $362 #
ellipse-curve $-1 5 10 -3.4914813388431334e-014 -1 0 0 -1.04744440165294e-014 0 -3 1 I I #
attrib_hh_vertex_geombuild-attrib_entity_geombuild-individual_entity_attribute-attrib_HH-attrib $-1 $-1 $-1 $232 F #
point $-1 -5.0000000000000107 10 -3 #
loop $-1 $363 $355 $162 #
attrib_hh_face_geombuild-attrib_entity_geombuild-individual_entity_attribute-attrib_HH-attrib $-1 $-1 $237 $162 F #
model_id-kcp-attrib $-1 $364 $-1 $238 1 1017637751 100 -2107375615 13 #
face $365 $366 $367 $8 $-1 $368 forward single #
loop $-1 $-1 $369 $238 #
plane-surface $-1 15 -35 0 0 1 0 0 0 1 forward_v I I I I #
straight-curve $-1 -10 45 0 0 0 -1 I I #
point $-1 -10 -45 -45 #
straight-curve $-1 -10 0 -45 0 1 0 I I #
point $-1 -10 45 -45 #
loop $-1 $-1 $284 $257 #
plane-surface $-1 5 -30 35 0 0 1 1 0 0 forward_v I I I I #
coedge $-1 $370 $371 $283 $342 forward $258 $-1 #
coedge $-1 $372 $260 $371 $373 reversed $194 $-1 #
coedge $-1 $260 $372 $261 $324 forward $194 $-1 #
coedge $-1 $263 $283 $260 $322 reversed $142 $-1 #
edge $-1 $325 -30 $374 30 $260 $375 forward 7 unknown #
coedge $-1 $262 $261 $376 $377 reversed $130 $-1 #
edge $-1 $378 0 $325 5 $320 $379 forward 7 unknown #
vertex $-1 $324 $380 #
ellipse-curve $-1 10 -30 -30 -1 0 0 0 -3.5355339059327373 -3.5355339059327373 1 I I #
coedge $-1 $376 $269 $265 $328 forward $275 $-1 #
edge $381 $271 -30 $329 30 $265 $382 forward 7 unknown #
vertex $-1 $328 $383 #
straight-curve $-1 5 -30 -35 1 0 0 I I #
point $-1 10 -30 -35 #
convexity-sys-attrib $-1 $-1 $-1 $270 #
ellipse-curve $-1 5 30 -30 -1 0 0 0 3.5355339059327373 -3.5355339059327373 1 I I #
point $-1 5 30 -35 #
coedge $-1 $274 $384 $385 $386 forward $275 $-1 #
coedge $-1 $385 $284 $279 $337 reversed $316 $-1 #
edge $-1 $339 0 $286 5 $279 $387 forward 7 unknown #
convexity-sys-attrib $-1 $-1 $-1 $280 #
vertex $-1 $280 $388 #
ellipse-curve $-1 5 30 30 -1 0 0 0 3.5355339059327373 3.5355339059327373 1 I I #
cone-surface $-1 5 30 30 1 0 0 0 3.5355339059327373 3.5355339059327373 1 I I 0 1 5 forward I I I I #
edge $-1 $374 -0.78539816339744828 $344 0.78539816339744828 $318 $389 forward 7 unknown #
coedge $-1 $284 $385 $370 $390 forward $316 $-1 #
vertex $-1 $390 $391 #
straight-curve $-1 10 0 35 0 1 0 I I #
point $-1 10 30 35 #
plane-surface $-1 5 8.8817841970012523e-016 -5.5511151231257827e-016 1 0 0 0 0 -1 forward_v I I I I #
attrib_hh_face_geombuild-attrib_entity_geombuild-individual_entity_attribute-attrib_HH-attrib $-1 $-1 $291 $223 F #
model_id-kcp-attrib $-1 $392 $-1 $292 1 1017637751 100 -2107375615 10 #
face $393 $162 $394 $8 $-1 $395 forward single #
loop $-1 $-1 $396 $292 #
plane-surface $-1 15 0 -35 0 0 1 1 0 0 forward_v I I I I #
coedge $397 $398 $399 $400 $401 forward $293 $-1 #
attrib_hh_coedge_geombuild-attrib_entity_geombuild-individual_entity_attribute-attrib_HH-attrib $-1 $-1 $-1 $296 F #
coedge $402 $355 $355 $296 $356 forward $306 $-1 #
edge $403 $404 -3.1415926535898002 $404 3.141592653589786 $355 $405 forward 7 unknown #
attrib_hh_coedge_geombuild-attrib_entity_geombuild-individual_entity_attribute-attrib_HH-attrib $-1 $-1 $-1 $298 F #
attrib_hh_edge_geombuild-attrib_entity_geombuild-individual_entity_attribute-attrib_HH-attrib $-1 $-1 $-1 $299 F #
vertex $406 $299 $407 #
ellipse-curve $-1 0 10 10 -1 0 3.4914813388431334e-015 -1.04744440165294e-014 0 -3 1 I I #
attrib_hh_vertex_geombuild-attrib_entity_geombuild-individual_entity_attribute-attrib_HH-attrib $-1 $-1 $-1 $302 F #
point $-1 5.0000000000000107 9.9999999999999787 2.9999999999999649 #
loop $-1 $-1 $408 $162 #
attrib_hh_face_geombuild-attrib_entity_geombuild-individual_entity_attribute-attrib_HH-attrib $-1 $-1 $308 $238 F #
model_id-kcp-attrib $-1 $409 $-1 $309 1 1017637751 100 -2107375615 14 #
face $410 $411 $412 $8 $-1 $413 forward single #
loop $-1 $-1 $414 $309 #
cone-surface $-1 15 -30 -30 -1 0 0 0 -3.5355339059327373 -3.5355339059327373 1 I I 0 -1 5 forward I I I I #
coedge $415 $416 $417 $418 $419 reversed $310 $-1 #
coedge $-1 $420 $318 $343 $390 reversed $258 $-1 #
coedge $-1 $318 $420 $319 $373 forward $258 $-1 #
coedge $-1 $320 $319 $421 $422 reversed $194 $-1 #
edge $-1 $423 0 $374 5 $371 $424 forward 7 unknown #
vertex $-1 $373 $425 #
straight-curve $-1 10 -35 0 0 0 1 I I #
coedge $-1 $421 $327 $323 $377 forward $275 $-1 #
edge $426 $329 -0.78539816339744828 $378 0.78539816339744828 $323 $427 forward 7 unknown #
vertex $-1 $377 $428 #
straight-curve $-1 5 -35 -30 1 0 0 I I #
point $-1 10 -35 -30 #
convexity-sys-attrib $-1 $-1 $-1 $328 #
straight-curve $-1 5 0 -35 0 -1 0 I I #
point $-1 5 -30 -35 #
coedge $-1 $335 $421 $420 $429 forward $275 $-1 #
coedge $-1 $343 $336 $335 $386 reversed $316 $-1 #
edge $430 $431 -30 $339 30 $385 $432 forward 7 unknown #
straight-curve $-1 5 30 35 1 0 0 I I #
point $-1 5 30 35 #
ellipse-curve $-1 10 -30 30 -1 0 0 0 -3.5355339059327373 3.5355339059327373 1 I I #
edge $-1 $431 0 $344 5 $343 $433 forward 7 unknown #
point $-1 10 -30 35 #
attrib_hh_face_geombuild-attrib_entity_geombuild-individual_entity_attribute-attrib_HH-attrib $-1 $-1 $349 $292 F #
model_id-kcp-attrib $-1 $434 $-1 $350 1 1017637751 100 -2107375615 11 #
loop $-1 $-1 $418 $350 #
cone-surface $-1 15 -30 30 1 0 0 0 -3.5355339059327373 3.5355339059327373 1 I I 0 -1 5 forward I I I I #
coedge $435 $436 $437 $438 $439 reversed $351 $-1 #
attrib_hh_coedge_geombuild-attrib_entity_geombuild-individual_entity_attribute-attrib_HH-attrib $-1 $-1 $-1 $353 F #
coedge $440 $438 $353 $408 $441 reversed $293 $-1 #
coedge $442 $353 $438 $443 $444 reversed $293 $-1 #
coedge $445 $446 $447 $353 $401 reversed $448 $-1 #
edge $449 $450 5 $451 10 $400 $452 forward 7 unknown #
attrib_hh_coedge_geombuild-attrib_entity_geombuild-individual_entity_attribute-attrib_HH-attrib $-1 $-1 $-1 $355 F #
attrib_hh_edge_geombuild-attrib_entity_geombuild-individual_entity_attribute-attrib_HH-attrib $-1 $-1 $-1 $356 F #
vertex $453 $356 $454 #
ellipse-curve $-1 5.0000000000000355 10 9.9999999999999822 -1 0 0 -1.04744440165294e-014 0 -3 1 I I #
attrib_hh_vertex_geombuild-attrib_entity_geombuild-individual_entity_attribute-attrib_HH-attrib $-1 $-1 $-1 $359 F #
point $-1 -1.0658141036401503e-014 10 7 #
coedge $455 $456 $457 $398 $441 forward $363 $-1 #
attrib_hh_face_geombuild-attrib_entity_geombuild-individual_entity_attribute-attrib_HH-attrib $-1 $-1 $365 $309 F #
model_id-kcp-attrib $-1 $458 $-1 $366 1 1017637751 100 -2107375615 15 #
face $459 $460 $461 $8 $-1 $462 reversed single #
loop $-1 $-1 $463 $366 #
cone-surface $-1 15 30 30 -1 0 0 0 3.5355339059327373 3.5355339059327373 1 I I 0 -1 5 forward I I I I #
coedge $464 $465 $466 $467 $468 forward $367 $-1 #
attrib_hh_coedge_geombuild-attrib_entity_geombuild-individual_entity_attribute-attrib_HH-attrib $-1 $-1 $-1 $369 F #
coedge $469 $467 $369 $470 $471 reversed $310 $-1 #
coedge $472 $369 $467 $473 $474 reversed $310 $-1 #
coedge $475 $476 $477 $369 $419 forward $394 $-1 #
edge $478 $479 5 $480 10 $369 $481 forward 7 unknown #
coedge $-1 $371 $370 $384 $429 reversed $258 $-1 #
coedge $-1 $384 $376 $372 $422 forward $275 $-1 #
edge $482 $378 -30 $423 30 $372 $483 forward 7 unknown #
vertex $-1 $422 $484 #
straight-curve $-1 5 -35 30 1 0 0 I I #
point $-1 10 -35 30 #
convexity-sys-attrib $-1 $-1 $-1 $377 #
ellipse-curve $-1 5 -30 -30 -1 0 0 0 -3.5355339059327373 -3.5355339059327373 1 I I #
point $-1 5 -35 -30 #
edge $485 $423 -0.78539816339744828 $431 0.78539816339744828 $420 $486 forward 7 unknown #
convexity-sys-attrib $-1 $-1 $-1 $386 #
vertex $-1 $429 $487 #
straight-curve $-1 5 0 35 0 1 0 I I #
straight-curve $-1 5 -30 35 1 0 0 I I #
attrib_hh_face_geombuild-attrib_entity_geombuild-individual_entity_attribute-attrib_HH-attrib $-1 $-1 $393 $350 F #
attrib_hh_coedge_geombuild-attrib_entity_geombuild-individual_entity_attribute-attrib_HH-attrib $-1 $-1 $-1 $396 F #
coedge $488 $489 $396 $457 $490 reversed $351 $-1 #
coedge $491 $396 $489 $492 $493 reversed $351 $-1 #
coedge $494 $399 $398 $396 $439 forward $293 $-1 #
edge $495 $496 -10 $497 -5 $396 $498 forward 7 unknown #
attrib_hh_coedge_geombuild-attrib_entity_geombuild-individual_entity_attribute-attrib_HH-attrib $-1 $-1 $-1 $398 F #
edge $499 $496 -0.78539816339744828 $451 0.78539816339744828 $408 $500 forward 7 unknown #
attrib_hh_coedge_geombuild-attrib_entity_geombuild-individual_entity_attribute-attrib_HH-attrib $-1 $-1 $-1 $399 F #
coedge $501 $492 $502 $399 $444 forward $503 $-1 #
edge $504 $450 -0.78539816339744828 $497 0.78539816339744828 $443 $505 forward 7 unknown #
attrib_hh_coedge_geombuild-attrib_entity_geombuild-individual_entity_attribute-attrib_HH-attrib $-1 $-1 $-1 $400 F #
coedge $506 $507 $400 $502 $508 reversed $448 $-1 #
coedge $509 $400 $507 $456 $510 forward $448 $-1 #
loop $-1 $-1 $400 $460 #
attrib_hh_edge_geombuild-attrib_entity_geombuild-individual_entity_attribute-attrib_HH-attrib $-1 $-1 $-1 $401 F #
vertex $511 $508 $512 #
vertex $513 $510 $514 #
straight-curve $-1 15 35 -30 -1 0 0 F -10.5 F 25.5 #
attrib_hh_vertex_geombuild-attrib_entity_geombuild-individual_entity_attribute-attrib_HH-attrib $-1 $-1 $-1 $404 F #
point $-1 5.0000000000000462 9.9999999999999787 12.999999999999982 #
attrib_hh_coedge_geombuild-attrib_entity_geombuild-individual_entity_attribute-attrib_HH-attrib $-1 $-1 $-1 $408 F #
coedge $515 $516 $408 $447 $510 reversed $363 $-1 #
coedge $517 $408 $518 $436 $490 forward $363 $-1 #
attrib_hh_face_geombuild-attrib_entity_geombuild-individual_entity_attribute-attrib_HH-attrib $-1 $-1 $410 $366 F #
model_id-kcp-attrib $-1 $519 $-1 $411 1 1017637751 100 -2107375615 16 #
face $520 $521 $448 $8 $-1 $522 forward single #
loop $-1 $-1 $523 $411 #
plane-surface $-1 15 0 35 0 0 1 1 0 0 forward_v I I I I #
coedge $524 $525 $526 $507 $527 forward $412 $-1 #
attrib_hh_coedge_geombuild-attrib_entity_geombuild-individual_entity_attribute-attrib_HH-attrib $-1 $-1 $-1 $414 F #
coedge $528 $529 $414 $530 $531 reversed $367 $-1 #
coedge $532 $414 $529 $518 $533 reversed $367 $-1 #
coedge $534 $417 $416 $414 $468 reversed $310 $-1 #
edge $535 $536 -10 $537 -5 $467 $538 forward 7 unknown #
attrib_hh_coedge_geombuild-attrib_entity_geombuild-individual_entity_attribute-attrib_HH-attrib $-1 $-1 $-1 $416 F #
coedge $539 $540 $530 $416 $471 forward $503 $-1 #
edge $541 $537 -30 $479 30 $470 $542 forward 7 unknown #
attrib_hh_coedge_geombuild-attrib_entity_geombuild-individual_entity_attribute-attrib_HH-attrib $-1 $-1 $-1 $417 F #
coedge $543 $518 $544 $417 $474 forward $363 $-1 #
edge $545 $480 -30 $536 30 $473 $546 forward 7 unknown #
attrib_hh_coedge_geombuild-attrib_entity_geombuild-individual_entity_attribute-attrib_HH-attrib $-1 $-1 $-1 $418 F #
coedge $547 $548 $418 $544 $549 reversed $394 $-1 #
coedge $550 $418 $548 $540 $551 reversed $394 $-1 #
attrib_hh_edge_geombuild-attrib_entity_geombuild-individual_entity_attribute-attrib_HH-attrib $-1 $-1 $-1 $419 F #
vertex $552 $471 $553 #
vertex $554 $419 $555 #
straight-curve $-1 15 -35 30 -1 0 0 F -10.5 F 25.5 #
convexity-sys-attrib $-1 $-1 $-1 $422 #
straight-curve $-1 5 -35 0 0 0 1 I I #
point $-1 5 -35 30 #
convexity-sys-attrib $-1 $-1 $-1 $429 #
ellipse-curve $-1 5 -30 30 -1 0 0 0 -3.5355339059327373 3.5355339059327373 1 I I #
point $-1 5 -30 35 #
attrib_hh_coedge_geombuild-attrib_entity_geombuild-individual_entity_attribute-attrib_HH-attrib $-1 $-1 $-1 $436 F #
coedge $556 $437 $436 $529 $557 reversed $351 $-1 #
edge $558 $559 -30 $496 30 $457 $560 forward 7 unknown #
attrib_hh_coedge_geombuild-attrib_entity_geombuild-individual_entity_attribute-attrib_HH-attrib $-1 $-1 $-1 $437 F #
coedge $561 $530 $443 $437 $493 forward $503 $-1 #
edge $562 $497 -30 $563 30 $492 $564 forward 7 unknown #
attrib_hh_coedge_geombuild-attrib_entity_geombuild-individual_entity_attribute-attrib_HH-attrib $-1 $-1 $-1 $438 F #
attrib_hh_edge_geombuild-attrib_entity_geombuild-individual_entity_attribute-attrib_HH-attrib $-1 $-1 $-1 $439 F #
vertex $565 $490 $566 #
vertex $567 $493 $568 #
straight-curve $-1 15 30 -35 1 0 0 F -25.5 F 10.5 #
attrib_hh_edge_geombuild-attrib_entity_geombuild-individual_entity_attribute-attrib_HH-attrib $-1 $-1 $-1 $441 F #
ellipse-curve $-1 5 30 -30 1 0 0 0 3.5355339059327373 -3.5355339059327373 1 I I #
attrib_hh_coedge_geombuild-attrib_entity_geombuild-individual_entity_attribute-attrib_HH-attrib $-1 $-1 $-1 $443 F #
coedge $569 $443 $570 $446 $508 forward $503 $-1 #
loop $-1 $571 $492 $572 #
attrib_hh_edge_geombuild-attrib_entity_geombuild-individual_entity_attribute-attrib_HH-attrib $-1 $-1 $-1 $444 F #
ellipse-curve $-1 10 30 -30 -1 0 0 0 3.5355339059327373 -3.5355339059327373 1 I I #
attrib_hh_coedge_geombuild-attrib_entity_geombuild-individual_entity_attribute-attrib_HH-attrib $-1 $-1 $-1 $446 F #
coedge $573 $447 $446 $463 $527 reversed $448 $-1 #
edge $574 $575 -30 $450 30 $502 $576 forward 7 unknown #
attrib_hh_coedge_geombuild-attrib_entity_geombuild-individual_entity_attribute-attrib_HH-attrib $-1 $-1 $-1 $447 F #
edge $577 $578 -30 $451 30 $447 $579 forward 7 unknown #
attrib_hh_vertex_geombuild-attrib_entity_geombuild-individual_entity_attribute-attrib_HH-attrib $-1 $-1 $-1 $450 F #
point $-1 10 35 -30 #
attrib_hh_vertex_geombuild-attrib_entity_geombuild-individual_entity_attribute-attrib_HH-attrib $-1 $-1 $-1 $451 F #
point $-1 5 35 -30 #
attrib_hh_coedge_geombuild-attrib_entity_geombuild-individual_entity_attribute-attrib_HH-attrib $-1 $-1 $-1 $456 F #
coedge $580 $581 $456 $526 $582 forward $363 $-1 #
attrib_hh_coedge_geombuild-attrib_entity_geombuild-individual_entity_attribute-attrib_HH-attrib $-1 $-1 $-1 $457 F #
coedge $583 $457 $473 $466 $533 forward $363 $-1 #
attrib_hh_face_geombuild-attrib_entity_geombuild-individual_entity_attribute-attrib_HH-attrib $-1 $-1 $459 $411 F #
model_id-kcp-attrib $-1 $584 $-1 $460 1 1017637751 100 -2107375615 17 #
face $585 $586 $587 $8 $-1 $588 forward single #
plane-surface $-1 15 35 0 0 -1 0 0 0 -1 forward_v I I I I #
coedge $589 $590 $591 $548 $592 reversed $461 $-1 #
attrib_hh_coedge_geombuild-attrib_entity_geombuild-individual_entity_attribute-attrib_HH-attrib $-1 $-1 $-1 $463 F #
coedge $593 $594 $463 $570 $595 reversed $412 $-1 #
coedge $596 $463 $594 $516 $582 reversed $412 $-1 #
edge $597 $578 -10 $575 -5 $507 $598 forward 7 unknown #
attrib_hh_coedge_geombuild-attrib_entity_geombuild-individual_entity_attribute-attrib_HH-attrib $-1 $-1 $-1 $465 F #
coedge $599 $466 $465 $489 $557 forward $367 $-1 #
coedge $600 $470 $492 $465 $531 forward $503 $-1 #
edge $601 $563 -0.78539816339744828 $537 0.78539816339744828 $530 $602 forward 7 unknown #
attrib_hh_coedge_geombuild-attrib_entity_geombuild-individual_entity_attribute-attrib_HH-attrib $-1 $-1 $-1 $466 F #
edge $603 $536 -0.78539816339744828 $559 0.78539816339744828 $518 $604 forward 7 unknown #
attrib_hh_coedge_geombuild-attrib_entity_geombuild-individual_entity_attribute-attrib_HH-attrib $-1 $-1 $-1 $467 F #
attrib_hh_edge_geombuild-attrib_entity_geombuild-individual_entity_attribute-attrib_HH-attrib $-1 $-1 $-1 $468 F #
vertex $605 $474 $606 #
vertex $607 $471 $608 #
straight-curve $-1 15 -35 -30 1 0 0 F -25.5 F 10.5 #
attrib_hh_coedge_geombuild-attrib_entity_geombuild-individual_entity_attribute-attrib_HH-attrib $-1 $-1 $-1 $470 F #
coedge $609 $610 $470 $477 $551 forward $503 $-1 #
attrib_hh_edge_geombuild-attrib_entity_geombuild-individual_entity_attribute-attrib_HH-attrib $-1 $-1 $-1 $471 F #
straight-curve $-1 10 -35 0 0 0 1 I I #
attrib_hh_coedge_geombuild-attrib_entity_geombuild-individual_entity_attribute-attrib_HH-attrib $-1 $-1 $-1 $473 F #
coedge $611 $473 $581 $476 $549 forward $363 $-1 #
attrib_hh_edge_geombuild-attrib_entity_geombuild-individual_entity_attribute-attrib_HH-attrib $-1 $-1 $-1 $474 F #
straight-curve $-1 5 -35 0 0 0 -1 I I #
attrib_hh_coedge_geombuild-attrib_entity_geombuild-individual_entity_attribute-attrib_HH-attrib $-1 $-1 $-1 $476 F #
coedge $612 $477 $476 $523 $592 forward $394 $-1 #
edge $613 $614 -0.78539816339744828 $480 0.78539816339744828 $544 $615 forward 7 unknown #
attrib_hh_coedge_geombuild-attrib_entity_geombuild-individual_entity_attribute-attrib_HH-attrib $-1 $-1 $-1 $477 F #
edge $616 $479 -0.78539816339744828 $617 0.78539816339744828 $540 $618 forward 7 unknown #
attrib_hh_vertex_geombuild-attrib_entity_geombuild-individual_entity_attribute-attrib_HH-attrib $-1 $-1 $-1 $479 F #
point $-1 10 -35 30 #
attrib_hh_vertex_geombuild-attrib_entity_geombuild-individual_entity_attribute-attrib_HH-attrib $-1 $-1 $-1 $480 F #
point $-1 5 -35 30 #
attrib_hh_coedge_geombuild-attrib_entity_geombuild-individual_entity_attribute-attrib_HH-attrib $-1 $-1 $-1 $489 F #
edge $619 $563 5 $559 10 $489 $620 forward 7 unknown #
attrib_hh_edge_geombuild-attrib_entity_geombuild-individual_entity_attribute-attrib_HH-attrib $-1 $-1 $-1 $490 F #
vertex $621 $533 $622 #
straight-curve $-1 5 0 -35 0 1 0 I I #
attrib_hh_coedge_geombuild-attrib_entity_geombuild-individual_entity_attribute-attrib_HH-attrib $-1 $-1 $-1 $492 F #
attrib_hh_edge_geombuild-attrib_entity_geombuild-individual_entity_attribute-attrib_HH-attrib $-1 $-1 $-1 $493 F #
vertex $623 $493 $624 #
straight-curve $-1 10 0 -35 0 -1 0 I I #
attrib_hh_vertex_geombuild-attrib_entity_geombuild-individual_entity_attribute-attrib_HH-attrib $-1 $-1 $-1 $496 F #
point $-1 5 30 -35 #
attrib_hh_vertex_geombuild-attrib_entity_geombuild-individual_entity_attribute-attrib_HH-attrib $-1 $-1 $-1 $497 F #
point $-1 10 30 -35 #
attrib_hh_coedge_geombuild-attrib_entity_geombuild-individual_entity_attribute-attrib_HH-attrib $-1 $-1 $-1 $502 F #
coedge $625 $502 $610 $525 $595 forward $503 $-1 #
loop $-1 $-1 $626 $572 #
face $627 $-1 $503 $8 $-1 $628 reversed single #
attrib_hh_coedge_geombuild-attrib_entity_geombuild-individual_entity_attribute-attrib_HH-attrib $-1 $-1 $-1 $507 F #
attrib_hh_edge_geombuild-attrib_entity_geombuild-individual_entity_attribute-attrib_HH-attrib $-1 $-1 $-1 $508 F #
vertex $629 $508 $630 #
straight-curve $-1 10 35 0 0 0 -1 I I #
attrib_hh_edge_geombuild-attrib_entity_geombuild-individual_entity_attribute-attrib_HH-attrib $-1 $-1 $-1 $510 F #
vertex $631 $582 $632 #
straight-curve $-1 5 35 0 0 0 -1 I I #
attrib_hh_coedge_geombuild-attrib_entity_geombuild-individual_entity_attribute-attrib_HH-attrib $-1 $-1 $-1 $516 F #
coedge $633 $544 $516 $590 $634 forward $363 $-1 #
edge $635 $578 -0.78539816339744828 $636 0.78539816339744828 $516 $637 forward 7 unknown #
attrib_hh_coedge_geombuild-attrib_entity_geombuild-individual_entity_attribute-attrib_HH-attrib $-1 $-1 $-1 $518 F #
attrib_hh_face_geombuild-attrib_entity_geombuild-individual_entity_attribute-attrib_HH-attrib $-1 $-1 $520 $460 F #
model_id-kcp-attrib $-1 $638 $-1 $521 1 1017637751 100 -2107375615 18 #
face $639 $640 $641 $8 $-1 $642 reversed single #
loop $-1 $-1 $643 $521 #
plane-surface $-1 0 0 45 0 0 1 1 0 0 forward_v I I I I #
attrib_hh_coedge_geombuild-attrib_entity_geombuild-individual_entity_attribute-attrib_HH-attrib $-1 $-1 $-1 $523 F #
coedge $644 $645 $523 $581 $634 reversed $461 $-1 #
coedge $646 $523 $645 $610 $647 reversed $461 $-1 #
edge $648 $614 -10 $617 -5 $523 $649 forward 7 unknown #
attrib_hh_coedge_geombuild-attrib_entity_geombuild-individual_entity_attribute-attrib_HH-attrib $-1 $-1 $-1 $525 F #
coedge $650 $526 $525 $645 $651 forward $412 $-1 #
edge $652 $653 -0.78539816339744828 $575 0.78539816339744828 $570 $654 forward 7 unknown #
attrib_hh_coedge_geombuild-attrib_entity_geombuild-individual_entity_attribute-attrib_HH-attrib $-1 $-1 $-1 $526 F #
attrib_hh_edge_geombuild-attrib_entity_geombuild-individual_entity_attribute-attrib_HH-attrib $-1 $-1 $-1 $527 F #
straight-curve $-1 15 35 30 1 0 0 F -25.5 F 10.5 #
attrib_hh_coedge_geombuild-attrib_entity_geombuild-individual_entity_attribute-attrib_HH-attrib $-1 $-1 $-1 $529 F #
attrib_hh_coedge_geombuild-attrib_entity_geombuild-individual_entity_attribute-attrib_HH-attrib $-1 $-1 $-1 $530 F #
attrib_hh_edge_geombuild-attrib_entity_geombuild-individual_entity_attribute-attrib_HH-attrib $-1 $-1 $-1 $531 F #
ellipse-curve $-1 10 -30 -30 -1 0 0 0 -3.5355339059327373 -3.5355339059327373 1 I I #
attrib_hh_edge_geombuild-attrib_entity_geombuild-individual_entity_attribute-attrib_HH-attrib $-1 $-1 $-1 $533 F #
ellipse-curve $-1 5 -30 -30 1 0 0 0 -3.5355339059327373 -3.5355339059327373 1 I I #
attrib_hh_vertex_geombuild-attrib_entity_geombuild-individual_entity_attribute-attrib_HH-attrib $-1 $-1 $-1 $536 F #
point $-1 5 -35 -30 #
attrib_hh_vertex_geombuild-attrib_entity_geombuild-individual_entity_attribute-attrib_HH-attrib $-1 $-1 $-1 $537 F #
point $-1 10 -35 -30 #
attrib_hh_coedge_geombuild-attrib_entity_geombuild-individual_entity_attribute-attrib_HH-attrib $-1 $-1 $-1 $540 F #
coedge $655 $570 $540 $591 $647 forward $503 $-1 #
attrib_hh_coedge_geombuild-attrib_entity_geombuild-individual_entity_attribute-attrib_HH-attrib $-1 $-1 $-1 $544 F #
attrib_hh_coedge_geombuild-attrib_entity_geombuild-individual_entity_attribute-attrib_HH-attrib $-1 $-1 $-1 $548 F #
attrib_hh_edge_geombuild-attrib_entity_geombuild-individual_entity_attribute-attrib_HH-attrib $-1 $-1 $-1 $549 F #
vertex $656 $634 $657 #
ellipse-curve $-1 5 -30 30 1 0 0 0 -3.5355339059327373 3.5355339059327373 1 I I #
attrib_hh_edge_geombuild-attrib_entity_geombuild-individual_entity_attribute-attrib_HH-attrib $-1 $-1 $-1 $551 F #
vertex $658 $647 $659 #
ellipse-curve $-1 10 -30 30 -1 0 0 0 -3.5355339059327373 3.5355339059327373 1 I I #
attrib_hh_edge_geombuild-attrib_entity_geombuild-individual_entity_attribute-attrib_HH-attrib $-1 $-1 $-1 $557 F #
straight-curve $-1 15 -30 -35 -1 0 0 F -10.5 F 25.5 #
attrib_hh_vertex_geombuild-attrib_entity_geombuild-individual_entity_attribute-attrib_HH-attrib $-1 $-1 $-1 $559 F #
point $-1 5 -30 -35 #
attrib_hh_vertex_geombuild-attrib_entity_geombuild-individual_entity_attribute-attrib_HH-attrib $-1 $-1 $-1 $563 F #
point $-1 10 -30 -35 #
attrib_hh_coedge_geombuild-attrib_entity_geombuild-individual_entity_attribute-attrib_HH-attrib $-1 $-1 $-1 $570 F #
coedge $660 $661 $662 $663 $664 forward $571 $-1 #
model_id-kcp-attrib $-1 $665 $-1 $572 1 1017637751 100 -2107375615 23 #
plane-surface $-1 10 0 0 -1 0 0 0 0 1 forward_v I I I I #
attrib_hh_vertex_geombuild-attrib_entity_geombuild-individual_entity_attribute-attrib_HH-attrib $-1 $-1 $-1 $575 F #
point $-1 10 35 30 #
attrib_hh_vertex_geombuild-attrib_entity_geombuild-individual_entity_attribute-attrib_HH-attrib $-1 $-1 $-1 $578 F #
point $-1 5 35 30 #
attrib_hh_coedge_geombuild-attrib_entity_geombuild-individual_entity_attribute-attrib_HH-attrib $-1 $-1 $-1 $581 F #
edge $666 $636 -30 $614 30 $581 $667 forward 7 unknown #
attrib_hh_edge_geombuild-attrib_entity_geombuild-individual_entity_attribute-attrib_HH-attrib $-1 $-1 $-1 $582 F #
vertex $668 $651 $669 #
ellipse-curve $-1 5 30 30 1 0 0 0 3.5355339059327373 3.5355339059327373 1 I I #
attrib_hh_face_geombuild-attrib_entity_geombuild-individual_entity_attribute-attrib_HH-attrib $-1 $-1 $585 $521 F #
model_id-kcp-attrib $-1 $670 $-1 $586 1 1017637751 100 -2107375615 19 #
face $671 $672 $673 $8 $-1 $674 reversed single #
loop $-1 $-1 $675 $586 #
plane-surface $-1 0 0 -45 0 0 1 1 0 0 forward_v I I I I #
coedge $676 $677 $678 $662 $679 forward $587 $-1 #
attrib_hh_coedge_geombuild-attrib_entity_geombuild-individual_entity_attribute-attrib_HH-attrib $-1 $-1 $-1 $590 F #
coedge $680 $591 $590 $594 $651 reversed $461 $-1 #
attrib_hh_coedge_geombuild-attrib_entity_geombuild-individual_entity_attribute-attrib_HH-attrib $-1 $-1 $-1 $591 F #
edge $681 $617 -30 $653 30 $610 $682 forward 7 unknown #
attrib_hh_edge_geombuild-attrib_entity_geombuild-individual_entity_attribute-attrib_HH-attrib $-1 $-1 $-1 $592 F #
straight-curve $-1 15 -30 35 1 0 0 F -25.5 F 10.5 #
attrib_hh_coedge_geombuild-attrib_entity_geombuild-individual_entity_attribute-attrib_HH-attrib $-1 $-1 $-1 $594 F #
edge $683 $653 5 $636 10 $645 $684 forward 7 unknown #
attrib_hh_edge_geombuild-attrib_entity_geombuild-individual_entity_attribute-attrib_HH-attrib $-1 $-1 $-1 $595 F #
vertex $685 $647 $686 #
ellipse-curve $-1 10 30 30 -1 0 0 0 3.5355339059327373 3.5355339059327373 1 I I #
attrib_hh_coedge_geombuild-attrib_entity_geombuild-individual_entity_attribute-attrib_HH-attrib $-1 $-1 $-1 $610 F #
attrib_hh_vertex_geombuild-attrib_entity_geombuild-individual_entity_attribute-attrib_HH-attrib $-1 $-1 $-1 $614 F #
point $-1 5 -30 35 #
attrib_hh_vertex_geombuild-attrib_entity_geombuild-individual_entity_attribute-attrib_HH-attrib $-1 $-1 $-1 $617 F #
point $-1 10 -30 35 #
attrib_hh_coedge_geombuild-attrib_entity_geombuild-individual_entity_attribute-attrib_HH-attrib $-1 $-1 $-1 $626 F #
coedge $687 $688 $626 $675 $689 reversed $571 $-1 #
coedge $690 $626 $688 $643 $679 reversed $571 $-1 #
coedge $691 $692 $693 $626 $664 reversed $673 $-1 #
edge $694 $695 -45 $696 45 $626 $697 forward 7 unknown #
attrib_hh_face_geombuild-attrib_entity_geombuild-individual_entity_attribute-attrib_HH-attrib $-1 $-1 $627 $572 F #
attrib_hh_edge_geombuild-attrib_entity_geombuild-individual_entity_attribute-attrib_HH-attrib $-1 $-1 $-1 $634 F #
straight-curve $-1 5 0 35 0 -1 0 I I #
attrib_hh_vertex_geombuild-attrib_entity_geombuild-individual_entity_attribute-attrib_HH-attrib $-1 $-1 $-1 $636 F #
point $-1 5 30 35 #
attrib_hh_face_geombuild-attrib_entity_geombuild-individual_entity_attribute-attrib_HH-attrib $-1 $-1 $639 $586 F #
model_id-kcp-attrib $-1 $698 $-1 $640 1 1017637751 100 -2107375615 20 #
face $699 $700 $701 $8 $-1 $702 reversed single #
loop $-1 $-1 $703 $640 #
plane-surface $-1 0 -45 0 0 1 0 0 0 1 forward_v I I I I #
coedge $704 $705 $706 $661 $689 forward $641 $-1 #
attrib_hh_coedge_geombuild-attrib_entity_geombuild-individual_entity_attribute-attrib_HH-attrib $-1 $-1 $-1 $643 F #
coedge $707 $708 $643 $709 $710 forward $587 $-1 #
coedge $711 $643 $708 $692 $712 forward $587 $-1 #
edge $713 $695 -45 $714 45 $662 $715 forward 7 unknown #
attrib_hh_coedge_geombuild-attrib_entity_geombuild-individual_entity_attribute-attrib_HH-attrib $-1 $-1 $-1 $645 F #
attrib_hh_edge_geombuild-attrib_entity_geombuild-individual_entity_attribute-attrib_HH-attrib $-1 $-1 $-1 $647 F #
straight-curve $-1 10 0 35 0 1 0 I I #
attrib_hh_edge_geombuild-attrib_entity_geombuild-individual_entity_attribute-attrib_HH-attrib $-1 $-1 $-1 $651 F #
straight-curve $-1 15 30 35 -1 0 0 F -10.5 F 25.5 #
attrib_hh_vertex_geombuild-attrib_entity_geombuild-individual_entity_attribute-attrib_HH-attrib $-1 $-1 $-1 $653 F #
point $-1 10 30 35 #
attrib_hh_coedge_geombuild-attrib_entity_geombuild-individual_entity_attribute-attrib_HH-attrib $-1 $-1 $-1 $661 F #
coedge $716 $662 $661 $717 $718 reversed $571 $-1 #
edge $719 $720 -45 $696 45 $661 $721 forward 7 unknown #
attrib_hh_coedge_geombuild-attrib_entity_geombuild-individual_entity_attribute-attrib_HH-attrib $-1 $-1 $-1 $662 F #
attrib_hh_coedge_geombuild-attrib_entity_geombuild-individual_entity_attribute-attrib_HH-attrib $-1 $-1 $-1 $663 F #
coedge $722 $703 $663 $678 $712 reversed $673 $-1 #
coedge $723 $663 $703 $705 $724 reversed $673 $-1 #
attrib_edge_convexity-kcp-attrib $-1 $725 $-1 $664 1 #
vertex $726 $679 $727 #
vertex $728 $664 $729 #
straight-curve $-1 10 -45 0 0 0 -1 I I #
attrib_hh_face_geombuild-attrib_entity_geombuild-individual_entity_attribute-attrib_HH-attrib $-1 $-1 $671 $640 F #
model_id-kcp-attrib $-1 $730 $-1 $672 1 1017637751 100 -2107375615 21 #
face $731 $572 $732 $8 $-1 $733 reversed single #
loop $-1 $-1 $734 $672 #
plane-surface $-1 -10 0 0 1 0 0 0 0 -1 forward_v I I I I #
coedge $735 $693 $692 $736 $737 forward $673 $-1 #
attrib_hh_coedge_geombuild-attrib_entity_geombuild-individual_entity_attribute-attrib_HH-attrib $-1 $-1 $-1 $675 F #
coedge $738 $739 $675 $693 $724 forward $641 $-1 #
coedge $740 $675 $739 $741 $742 forward $641 $-1 #
attrib_hh_coedge_geombuild-attrib_entity_geombuild-individual_entity_attribute-attrib_HH-attrib $-1 $-1 $-1 $677 F #
coedge $743 $678 $677 $744 $745 forward $587 $-1 #
coedge $746 $717 $747 $677 $710 reversed $732 $-1 #
edge $748 $714 -10 $749 10 $709 $750 forward 7 unknown #
attrib_hh_coedge_geombuild-attrib_entity_geombuild-individual_entity_attribute-attrib_HH-attrib $-1 $-1 $-1 $678 F #
edge $751 $752 -10 $695 10 $692 $753 forward 7 unknown #
attrib_edge_convexity-kcp-attrib $-1 $754 $-1 $679 1 #
vertex $755 $679 $756 #
straight-curve $-1 10 0 45 0 1 0 I I #
attrib_hh_coedge_geombuild-attrib_entity_geombuild-individual_entity_attribute-attrib_HH-attrib $-1 $-1 $-1 $688 F #
coedge $757 $741 $709 $688 $718 forward $732 $-1 #
edge $758 $714 -45 $720 45 $688 $759 forward 7 unknown #
attrib_hh_edge_geombuild-attrib_entity_geombuild-individual_entity_attribute-attrib_HH-attrib $-1 $-1 $-1 $689 F #
vertex $760 $689 $761 #
straight-curve $-1 10 0 -45 0 -1 0 I I #
attrib_hh_coedge_geombuild-attrib_entity_geombuild-individual_entity_attribute-attrib_HH-attrib $-1 $-1 $-1 $692 F #
attrib_hh_coedge_geombuild-attrib_entity_geombuild-individual_entity_attribute-attrib_HH-attrib $-1 $-1 $-1 $693 F #
edge $762 $696 -10 $763 10 $693 $764 forward 7 unknown #
convexity-sys-attrib $-1 $765 $694 $664 #
attrib_hh_vertex_geombuild-attrib_entity_geombuild-individual_entity_attribute-attrib_HH-attrib $-1 $-1 $-1 $695 F #
point $-1 10 -45 45 #
attrib_hh_vertex_geombuild-attrib_entity_geombuild-individual_entity_attribute-attrib_HH-attrib $-1 $-1 $-1 $696 F #
point $-1 10 -45 -45 #
attrib_hh_face_geombuild-attrib_entity_geombuild-individual_entity_attribute-attrib_HH-attrib $-1 $-1 $699 $672 F #
model_id-kcp-attrib $-1 $766 $-1 $700 1 1017637751 100 -2107375615 22 #
loop $-1 $-1 $717 $700 #
plane-surface $-1 0 45 0 0 -1 0 0 0 -1 forward_v I I I I #
coedge $767 $768 $744 $747 $769 forward $701 $-1 #
attrib_hh_coedge_geombuild-attrib_entity_geombuild-individual_entity_attribute-attrib_HH-attrib $-1 $-1 $-1 $703 F #
coedge $770 $744 $768 $703 $737 reversed $701 $-1 #
edge $771 $752 -45 $763 45 $736 $772 forward 7 unknown #
attrib_hh_coedge_geombuild-attrib_entity_geombuild-individual_entity_attribute-attrib_HH-attrib $-1 $-1 $-1 $705 F #
coedge $773 $706 $705 $768 $774 forward $641 $-1 #
attrib_hh_coedge_geombuild-attrib_entity_geombuild-individual_entity_attribute-attrib_HH-attrib $-1 $-1 $-1 $706 F #
coedge $775 $747 $717 $706 $742 reversed $732 $-1 #
edge $776 $777 -10 $720 10 $741 $778 forward 7 unknown #
attrib_hh_coedge_geombuild-attrib_entity_geombuild-individual_entity_attribute-attrib_HH-attrib $-1 $-1 $-1 $708 F #
coedge $779 $734 $736 $708 $745 reversed $701 $-1 #
edge $780 $749 -45 $752 45 $744 $781 forward 7 unknown #
attrib_hh_coedge_geombuild-attrib_entity_geombuild-individual_entity_attribute-attrib_HH-attrib $-1 $-1 $-1 $709 F #
coedge $782 $709 $741 $734 $769 reversed $732 $-1 #
attrib_edge_convexity-kcp-attrib $-1 $783 $-1 $710 1 #
vertex $784 $710 $785 #
straight-curve $-1 0 45 45 -1 0 0 I I #
attrib_edge_convexity-kcp-attrib $-1 $786 $-1 $712 1 #
vertex $787 $745 $788 #
straight-curve $-1 0 -45 45 1 0 0 I I #
convexity-sys-attrib $-1 $789 $713 $679 #
attrib_hh_vertex_geombuild-attrib_entity_geombuild-individual_entity_attribute-attrib_HH-attrib $-1 $-1 $-1 $714 F #
point $-1 10 45 45 #
attrib_hh_coedge_geombuild-attrib_entity_geombuild-individual_entity_attribute-attrib_HH-attrib $-1 $-1 $-1 $717 F #
attrib_hh_edge_geombuild-attrib_entity_geombuild-individual_entity_attribute-attrib_HH-attrib $-1 $-1 $-1 $718 F #
straight-curve $-1 10 45 0 0 0 -1 I I #
attrib_hh_vertex_geombuild-attrib_entity_geombuild-individual_entity_attribute-attrib_HH-attrib $-1 $-1 $-1 $720 F #
point $-1 10 45 -45 #
attrib_edge_convexity-kcp-attrib $-1 $790 $-1 $724 1 #
vertex $791 $774 $792 #
straight-curve $-1 0 -45 -45 -1 0 0 I I #
attrib_hh_edge_geombuild-attrib_entity_geombuild-individual_entity_attribute-attrib_HH-attrib $-1 $-1 $725 $664 F #
attrib_hh_face_geombuild-attrib_entity_geombuild-individual_entity_attribute-attrib_HH-attrib $-1 $-1 $731 $700 F #
attrib_hh_coedge_geombuild-attrib_entity_geombuild-individual_entity_attribute-attrib_HH-attrib $-1 $-1 $-1 $734 F #
coedge $793 $736 $734 $739 $774 reversed $701 $-1 #
edge $794 $749 -45 $777 45 $747 $795 forward 7 unknown #
attrib_hh_coedge_geombuild-attrib_entity_geombuild-individual_entity_attribute-attrib_HH-attrib $-1 $-1 $-1 $736 F #
attrib_edge_convexity-kcp-attrib $-1 $796 $-1 $737 1 #
straight-curve $-1 -10 -45 0 0 0 -1 I I #
attrib_hh_coedge_geombuild-attrib_entity_geombuild-individual_entity_attribute-attrib_HH-attrib $-1 $-1 $-1 $739 F #
edge $797 $763 -45 $777 45 $768 $798 forward 7 unknown #
attrib_hh_coedge_geombuild-attrib_entity_geombuild-individual_entity_attribute-attrib_HH-attrib $-1 $-1 $-1 $741 F #
attrib_hh_edge_geombuild-attrib_entity_geombuild-individual_entity_attribute-attrib_HH-attrib $-1 $-1 $-1 $742 F #
vertex $799 $742 $800 #
straight-curve $-1 0 45 -45 1 0 0 I I #
attrib_hh_coedge_geombuild-attrib_entity_geombuild-individual_entity_attribute-attrib_HH-attrib $-1 $-1 $-1 $744 F #
attrib_edge_convexity-kcp-attrib $-1 $801 $-1 $745 1 #
straight-curve $-1 -10 0 45 0 -1 0 I I #
attrib_hh_coedge_geombuild-attrib_entity_geombuild-individual_entity_attribute-attrib_HH-attrib $-1 $-1 $-1 $747 F #
convexity-sys-attrib $-1 $802 $748 $710 #
attrib_hh_vertex_geombuild-attrib_entity_geombuild-individual_entity_attribute-attrib_HH-attrib $-1 $-1 $-1 $749 F #
point $-1 -10 45 45 #
convexity-sys-attrib $-1 $803 $751 $712 #
attrib_hh_vertex_geombuild-attrib_entity_geombuild-individual_entity_attribute-attrib_HH-attrib $-1 $-1 $-1 $752 F #
point $-1 -10 -45 45 #
attrib_hh_edge_geombuild-attrib_entity_geombuild-individual_entity_attribute-attrib_HH-attrib $-1 $-1 $754 $679 F #
convexity-sys-attrib $-1 $804 $762 $724 #
attrib_hh_vertex_geombuild-attrib_entity_geombuild-individual_entity_attribute-attrib_HH-attrib $-1 $-1 $-1 $763 F #
point $-1 -10 -45 -45 #
attrib_hh_coedge_geombuild-attrib_entity_geombuild-individual_entity_attribute-attrib_HH-attrib $-1 $-1 $-1 $768 F #
attrib_edge_convexity-kcp-attrib $-1 $805 $-1 $769 1 #
straight-curve $-1 -10 45 0 0 0 -1 I I #
convexity-sys-attrib $-1 $806 $771 $737 #
attrib_edge_convexity-kcp-attrib $-1 $807 $-1 $774 1 #
straight-curve $-1 -10 0 -45 0 1 0 I I #
attrib_hh_vertex_geombuild-attrib_entity_geombuild-individual_entity_attribute-attrib_HH-attrib $-1 $-1 $-1 $777 F #
point $-1 -10 45 -45 #
convexity-sys-attrib $-1 $808 $780 $745 #
attrib_hh_edge_geombuild-attrib_entity_geombuild-individual_entity_attribute-attrib_HH-attrib $-1 $-1 $783 $710 F #
attrib_hh_edge_geombuild-attrib_entity_geombuild-individual_entity_attribute-attrib_HH-attrib $-1 $-1 $786 $712 F #
attrib_hh_edge_geombuild-attrib_entity_geombuild-individual_entity_attribute-attrib_HH-attrib $-1 $-1 $790 $724 F #
convexity-sys-attrib $-1 $809 $794 $769 #
attrib_hh_edge_geombuild-attrib_entity_geombuild-individual_entity_attribute-attrib_HH-attrib $-1 $-1 $796 $737 F #
convexity-sys-attrib $-1 $810 $797 $774 #
attrib_hh_edge_geombuild-attrib_entity_geombuild-individual_entity_attribute-attrib_HH-attrib $-1 $-1 $801 $745 F #
attrib_hh_edge_geombuild-attrib_entity_geombuild-individual_entity_attribute-attrib_HH-attrib $-1 $-1 $805 $769 F #
attrib_hh_edge_geombuild-attrib_entity_geombuild-individual_entity_attribute-attrib_HH-attrib $-1 $-1 $807 $774 F #
End-of-ACIS-data 