105 914 1 0                             
body $-1 $1 $-1 $-1 #
lump $-1 $-1 $2 $0 #
shell $-1 $-1 $-1 $3 $1 #
face $-1 $4 $5 $2 $-1 $6 reversed single #
face $-1 $7 $8 $2 $-1 $9 reversed single #
loop $-1 $-1 $10 $3 #
cone-surface $-1 -17.5 0 10 0 0 1 2.5 0 0 1 0 1 0 #
face $-1 $11 $12 $2 $-1 $13 forward single #
loop $-1 $-1 $14 $4 #
cone-surface $-1 17.5 0 10 0 0 1 2.5 0 0 1 0 1 0 #
coedge $-1 $15 $16 $17 $18 1 $5 $-1 #
face $-1 $19 $20 $2 $-1 $21 forward single #
loop $-1 $22 $23 $7 #
plane-surface $-1 0 0 12.5 0 0 1 1 0 0 0 #
coedge $-1 $24 $25 $26 $27 1 $8 $-1 #
coedge $-1 $28 $10 $29 $30 0 $5 $-1 #
coedge $-1 $10 $28 $23 $31 1 $5 $-1 #
coedge $-1 $32 $33 $10 $18 0 $34 $-1 #
edge $-1 $35 $36 $17 $37 1 #
face $-1 $38 $34 $2 $-1 $39 forward single #
loop $-1 $-1 $40 $11 #
plane-surface $-1 0 0 7.5 0 0 1 1 0 0 0 #
loop $-1 $-1 $41 $7 #
coedge $-1 $42 $43 $16 $31 0 $12 $-1 #
coedge $-1 $44 $14 $45 $46 0 $8 $-1 #
coedge $-1 $14 $47 $48 $49 1 $8 $-1 #
coedge $-1 $50 $51 $14 $27 0 $52 $-1 #
edge $-1 $53 $54 $26 $55 1 #
coedge $-1 $16 $15 $56 $57 0 $5 $-1 #
coedge $-1 $58 $59 $15 $30 1 $60 $-1 #
edge $-1 $35 $61 $29 $62 0 #
edge $-1 $36 $63 $23 $64 0 #
coedge $-1 $65 $17 $43 $66 1 $34 $-1 #
coedge $-1 $17 $65 $58 $67 0 $34 $-1 #
loop $-1 $-1 $65 $19 #
vertex $-1 $67 $68 #
vertex $-1 $66 $69 #
straight-curve $-1 -17.5 -2.5 10 0 0 -1 #
face $-1 $70 $71 $2 $-1 $39 forward single #
plane-surface $-1 0 -2.5 10 0 1 0 0 0 1 0 #
coedge $-1 $72 $45 $51 $73 1 $20 $-1 #
coedge $-1 $74 $75 $76 $77 0 $22 $-1 #
coedge $-1 $78 $23 $79 $80 0 $12 $-1 #
coedge $-1 $23 $81 $32 $66 0 $12 $-1 #
coedge $-1 $82 $24 $83 $84 0 $8 $-1 #
coedge $-1 $40 $83 $24 $46 1 $20 $-1 #
edge $-1 $53 $85 $45 $86 0 #
coedge $-1 $25 $82 $87 $88 1 $8 $-1 #
coedge $-1 $87 $89 $25 $49 0 $12 $-1 #
edge $-1 $54 $90 $48 $91 0 #
coedge $-1 $92 $26 $89 $93 1 $52 $-1 #
coedge $-1 $26 $92 $40 $73 0 $52 $-1 #
loop $-1 $-1 $92 $94 #
vertex $-1 $73 $95 #
vertex $-1 $93 $96 #
straight-curve $-1 17.5 2.5 10 0 0 -1 #
coedge $-1 $97 $79 $28 $57 1 $98 $-1 #
edge $-1 $61 $63 $56 $99 1 #
coedge $-1 $100 $29 $33 $67 1 $60 $-1 #
coedge $-1 $29 $100 $97 $101 1 $60 $-1 #
loop $-1 $-1 $58 $102 #
vertex $-1 $101 $103 #
ellipse-curve $-1 -17.5 0 7.5 0 0 -1 2.5 0 0 1 #
vertex $-1 $31 $104 #
ellipse-curve $-1 -17.5 0 12.5 -0 -0 -1 2.5 0 0 1 #
coedge $-1 $33 $32 $105 $106 1 $34 $-1 #
edge $-1 $107 $36 $43 $108 0 #
edge $-1 $109 $35 $33 $110 0 #
point $-1 -17.5 -2.5 7.5 #
point $-1 -17.5 -2.5 12.5 #
face $-1 $102 $98 $2 $-1 $111 forward single #
loop $-1 $-1 $112 $38 #
coedge $-1 $113 $40 $114 $115 1 $20 $-1 #
edge $-1 $116 $53 $51 $117 0 #
coedge $-1 $118 $41 $119 $120 0 $22 $-1 #
coedge $-1 $41 $121 $122 $123 0 $22 $-1 #
coedge $-1 $124 $125 $41 $77 1 $126 $-1 #
edge $-1 $127 $128 $41 $129 0 #
coedge $-1 $89 $42 $130 $131 0 $12 $-1 #
coedge $-1 $56 $132 $42 $80 1 $98 $-1 #
edge $-1 $63 $133 $42 $134 0 #
coedge $-1 $43 $135 $136 $137 0 $12 $-1 #
coedge $-1 $47 $44 $138 $139 0 $8 $-1 #
coedge $-1 $45 $113 $44 $84 1 $20 $-1 #
edge $-1 $85 $140 $83 $86 0 #
vertex $-1 $46 $141 #
ellipse-curve $-1 17.5 0 7.5 0 0 -1 2.5 0 0 1 #
coedge $-1 $135 $48 $47 $88 0 $12 $-1 #
edge $-1 $90 $142 $87 $91 0 #
coedge $-1 $48 $78 $50 $93 0 $12 $-1 #
vertex $-1 $49 $143 #
ellipse-curve $-1 17.5 0 12.5 -0 -0 -1 2.5 0 0 1 #
coedge $-1 $51 $50 $144 $145 1 $52 $-1 #
edge $-1 $146 $54 $89 $134 0 #
face $-1 $147 $52 $2 $-1 $111 forward single #
point $-1 17.5 2.5 7.5 #
point $-1 17.5 2.5 12.5 #
coedge $-1 $132 $56 $59 $101 0 $98 $-1 #
loop $-1 $-1 $132 $70 #
straight-curve $-1 -17.5 2.5 10 0 0 -1 #
coedge $-1 $59 $58 $148 $149 1 $60 $-1 #
edge $-1 $61 $150 $97 $117 0 #
face $-1 $94 $60 $2 $-1 $21 forward single #
point $-1 -17.5 2.5 7.5 #
point $-1 -17.5 2.5 12.5 #
coedge $-1 $136 $148 $65 $106 0 $151 $-1 #
edge $-1 $109 $107 $105 $152 0 #
vertex $-1 $137 $153 #
straight-curve $-1 0 -2.5 12.5 -1 0 0 #
vertex $-1 $149 $154 #
straight-curve $-1 0 -2.5 7.5 -1 0 0 #
plane-surface $-1 0 2.5 10 0 -1 0 0 0 -1 0 #
coedge $-1 $155 $156 $157 $158 1 $71 $-1 #
coedge $-1 $83 $72 $156 $159 1 $20 $-1 #
coedge $-1 $144 $157 $72 $115 0 $151 $-1 #
edge $-1 $160 $116 $114 $161 0 #
vertex $-1 $115 $162 #
straight-curve $-1 0 2.5 7.5 1 0 0 #
coedge $-1 $163 $74 $164 $165 0 $22 $-1 #
coedge $-1 $166 $167 $74 $120 1 $168 $-1 #
edge $-1 $128 $169 $74 $170 0 #
coedge $-1 $75 $171 $172 $173 0 $22 $-1 #
coedge $-1 $174 $175 $75 $123 1 $176 $-1 #
edge $-1 $177 $127 $75 $178 0 #
coedge $-1 $179 $76 $175 $180 1 $126 $-1 #
coedge $-1 $76 $179 $166 $181 1 $126 $-1 #
loop $-1 $-1 $124 $182 #
vertex $-1 $123 $183 #
vertex $-1 $120 $184 #
straight-curve $-1 -7.5 6.25 12.5 0 -1 0 #
coedge $-1 $185 $144 $78 $131 1 $151 $-1 #
edge $-1 $133 $146 $78 $186 0 #
coedge $-1 $79 $97 $185 $187 1 $98 $-1 #
vertex $-1 $187 $188 #
straight-curve $-1 0 2.5 12.5 1 0 -0 #
coedge $-1 $81 $87 $155 $189 0 $12 $-1 #
coedge $-1 $157 $105 $81 $137 1 $151 $-1 #
edge $-1 $190 $107 $81 $186 0 #
coedge $-1 $156 $155 $82 $139 1 $71 $-1 #
edge $-1 $140 $142 $138 $191 1 #
vertex $-1 $139 $192 #
point $-1 20 0 7.5 #
vertex $-1 $189 $193 #
point $-1 20 0 12.5 #
coedge $-1 $130 $114 $92 $145 0 $151 $-1 #
edge $-1 $116 $146 $144 $194 0 #
vertex $-1 $131 $195 #
face $-1 $196 $151 $2 $-1 $197 reversed single #
coedge $-1 $105 $185 $100 $149 0 $151 $-1 #
edge $-1 $150 $109 $148 $198 0 #
vertex $-1 $149 $199 #
loop $-1 $200 $144 $147 #
straight-curve $-1 -4.33012701892219 -2.5 0 -0 -0 1 #
point $-1 -4.33012701892219 -2.5 12.5 #
point $-1 -4.33012701892219 -2.5 7.5 #
coedge $-1 $138 $112 $135 $189 1 $71 $-1 #
coedge $-1 $112 $138 $113 $159 0 $71 $-1 #
coedge $-1 $114 $136 $112 $158 0 $151 $-1 #
edge $-1 $190 $160 $157 $201 0 #
edge $-1 $140 $160 $156 $110 0 #
vertex $-1 $115 $202 #
ellipse-curve $-1 0 0 7.5 0 0 1 5 0 0 1 #
point $-1 4.33012701892219 2.5 7.5 #
coedge $-1 $203 $118 $204 $205 0 $22 $-1 #
coedge $-1 $206 $207 $118 $165 1 $208 $-1 #
edge $-1 $169 $209 $118 $210 0 #
coedge $-1 $211 $119 $125 $181 0 $168 $-1 #
coedge $-1 $119 $211 $206 $212 1 $168 $-1 #
loop $-1 $-1 $167 $213 #
vertex $-1 $120 $214 #
straight-curve $-1 -5 10 12.5 -1 0 0 #
coedge $-1 $121 $215 $216 $217 0 $22 $-1 #
coedge $-1 $218 $219 $121 $173 1 $220 $-1 #
edge $-1 $221 $177 $121 $222 0 #
coedge $-1 $223 $122 $219 $224 0 $176 $-1 #
coedge $-1 $122 $223 $124 $180 0 $176 $-1 #
loop $-1 $225 $175 $226 #
vertex $-1 $224 $227 #
straight-curve $-1 0 12.5 12.5 -1 0 0 #
coedge $-1 $125 $124 $228 $229 1 $126 $-1 #
edge $-1 $230 $127 $175 $231 0 #
edge $-1 $128 $232 $125 $233 0 #
face $-1 $234 $126 $2 $-1 $235 forward single #
point $-1 -7.5 12.5 12.5 #
point $-1 -7.5 10 12.5 #
coedge $-1 $148 $130 $132 $187 0 $151 $-1 #
ellipse-curve $-1 0 0 12.5 -0 -0 -1 5 0 0 1 #
edge $-1 $133 $150 $185 $236 0 #
point $-1 -4.33012701892219 2.5 12.5 #
edge $-1 $142 $190 $135 $108 0 #
vertex $-1 $158 $237 #
straight-curve $-1 17.5 -2.5 10 0 0 -1 #
point $-1 17.5 -2.5 7.5 #
point $-1 17.5 -2.5 12.5 #
straight-curve $-1 4.33012701892219 2.5 0 0 0 1 #
point $-1 4.33012701892219 2.5 12.5 #
face $-1 $213 $238 $2 $-1 $239 reversed single #
cone-surface $-1 0 0 0 0 0 1 5 0 0 1 0 1 0 #
ellipse-curve $-1 0 0 7.5 0 0 1 5 0 0 1 #
point $-1 -4.33012701892219 2.5 7.5 #
loop $-1 $240 $241 $147 #
straight-curve $-1 4.33012701892219 -2.5 0 -0 0 -1 #
point $-1 4.33012701892219 -2.5 7.5 #
coedge $-1 $242 $163 $243 $244 0 $22 $-1 #
coedge $-1 $245 $246 $163 $205 1 $247 $-1 #
edge $-1 $209 $248 $204 $249 0 #
coedge $-1 $250 $164 $167 $212 0 $208 $-1 #
coedge $-1 $164 $250 $245 $251 1 $208 $-1 #
loop $-1 $-1 $250 $234 #
vertex $-1 $251 $252 #
straight-curve $-1 -12.5 6.25 12.5 0 1 0 #
coedge $-1 $167 $166 $253 $254 1 $168 $-1 #
edge $-1 $169 $255 $206 $256 0 #
face $-1 $182 $168 $2 $-1 $257 forward single #
point $-1 -12.5 10 12.5 #
coedge $-1 $171 $258 $259 $260 0 $22 $-1 #
coedge $-1 $261 $262 $171 $217 1 $263 $-1 #
edge $-1 $264 $221 $171 $265 0 #
coedge $-1 $266 $172 $262 $267 0 $220 $-1 #
coedge $-1 $172 $266 $174 $224 1 $220 $-1 #
loop $-1 $-1 $219 $268 #
vertex $-1 $217 $269 #
straight-curve $-1 7.5 6.25 12.5 0 1 0 #
coedge $-1 $175 $174 $270 $271 1 $176 $-1 #
edge $-1 $177 $272 $174 $273 0 #
loop $-1 $-1 $274 $226 #
face $-1 $275 $176 $2 $-1 $276 forward single #
point $-1 7.5 12.5 12.5 #
coedge $-1 $270 $253 $179 $229 0 $277 $-1 #
edge $-1 $232 $230 $228 $278 0 #
vertex $-1 $229 $279 #
straight-curve $-1 -7.5 12.5 0 0 -0 1 #
vertex $-1 $254 $280 #
straight-curve $-1 -7.5 10 0 0 0 -1 #
face $-1 $268 $208 $2 $-1 $281 forward single #
plane-surface $-1 -7.5 12.5 0 -1 0 0 0 0 1 0 #
straight-curve $-1 -4.33012701892219 2.5 0 0 -0 -1 #
point $-1 4.33012701892219 -2.5 12.5 #
loop $-1 $282 $283 $196 #
cone-surface $-1 0 0 0 0 -1 -3.49148133884313e-15 2.5 0 0 1 0 1 0 #
loop $-1 $284 $285 $147 #
coedge $-1 $241 $241 $286 $287 1 $200 $-1 #
coedge $-1 $288 $203 $289 $290 0 $22 $-1 #
coedge $-1 $291 $292 $203 $244 1 $293 $-1 #
edge $-1 $248 $294 $203 $295 0 #
coedge $-1 $296 $204 $207 $251 0 $247 $-1 #
coedge $-1 $204 $297 $291 $298 0 $247 $-1 #
loop $-1 $-1 $297 $299 #
vertex $-1 $205 $300 #
straight-curve $-1 0 25 12.5 -1 0 0 #
coedge $-1 $207 $206 $301 $302 1 $208 $-1 #
edge $-1 $209 $303 $245 $304 0 #
point $-1 -12.5 25 12.5 #
coedge $-1 $228 $301 $211 $254 0 $277 $-1 #
edge $-1 $255 $232 $253 $305 0 #
vertex $-1 $254 $306 #
straight-curve $-1 -12.5 10 0 0 0 -1 #
plane-surface $-1 -10 10 0 0 1 0 0 0 1 0 #
coedge $-1 $215 $307 $308 $309 0 $22 $-1 #
coedge $-1 $310 $311 $215 $260 1 $312 $-1 #
edge $-1 $313 $264 $215 $314 0 #
coedge $-1 $315 $216 $311 $316 0 $263 $-1 #
coedge $-1 $216 $315 $218 $267 1 $263 $-1 #
loop $-1 $-1 $262 $317 #
vertex $-1 $217 $318 #
straight-curve $-1 5 10 12.5 -1 0 0 #
coedge $-1 $219 $218 $319 $320 1 $220 $-1 #
edge $-1 $221 $321 $218 $322 0 #
face $-1 $317 $220 $2 $-1 $323 forward single #
point $-1 7.5 10 12.5 #
coedge $-1 $319 $228 $223 $271 0 $277 $-1 #
edge $-1 $230 $272 $270 $324 0 #
vertex $-1 $271 $325 #
straight-curve $-1 7.5 12.5 0 0 0 -1 #
coedge $-1 $274 $274 $283 $326 0 $225 $-1 #
face $-1 $327 $328 $2 $-1 $239 reversed single #
plane-surface $-1 0 12.5 0 0 1 0 0 0 1 0 #
loop $-1 $-1 $228 $329 #
straight-curve $-1 -7.5 6.25 -12.5 0 1 -0 #
point $-1 -7.5 12.5 -12.5 #
point $-1 -7.5 10 -12.5 #
plane-surface $-1 -12.5 18.75 0 1 0 0 0 0 -1 0 #
loop $-1 $-1 $330 $196 #
coedge $-1 $283 $283 $274 $326 1 $238 $-1 #
loop $-1 $-1 $331 $147 #
coedge $-1 $285 $285 $330 $332 1 $240 $-1 #
coedge $-1 $286 $286 $241 $287 0 $328 $-1 #
edge $-1 $333 $333 $286 $334 0 #
coedge $-1 $335 $242 $336 $337 0 $22 $-1 #
coedge $-1 $338 $339 $242 $290 1 $340 $-1 #
edge $-1 $294 $341 $242 $342 0 #
coedge $-1 $343 $243 $246 $298 1 $293 $-1 #
coedge $-1 $243 $343 $338 $344 1 $293 $-1 #
loop $-1 $-1 $343 $345 #
vertex $-1 $244 $346 #
straight-curve $-1 -40 6.25 12.5 0 -1 0 #
coedge $-1 $347 $245 $348 $349 1 $247 $-1 #
coedge $-1 $246 $350 $351 $352 0 $247 $-1 #
edge $-1 $353 $248 $246 $354 0 #
face $-1 $345 $247 $2 $-1 $355 reversed single #
point $-1 -40 25 12.5 #
coedge $-1 $253 $348 $250 $302 0 $277 $-1 #
edge $-1 $303 $255 $301 $356 0 #
vertex $-1 $349 $357 #
straight-curve $-1 -12.5 25 0 0 0 -1 #
straight-curve $-1 -5 10 -12.5 1 0 0 #
point $-1 -12.5 10 -12.5 #
coedge $-1 $258 $358 $359 $360 0 $22 $-1 #
coedge $-1 $361 $362 $258 $309 1 $363 $-1 #
edge $-1 $364 $313 $308 $249 0 #
coedge $-1 $365 $259 $362 $366 1 $312 $-1 #
coedge $-1 $259 $365 $261 $316 1 $312 $-1 #
loop $-1 $-1 $259 $367 #
vertex $-1 $309 $368 #
straight-curve $-1 12.5 6.25 12.5 0 -1 0 #
coedge $-1 $262 $261 $369 $370 1 $263 $-1 #
edge $-1 $264 $371 $311 $372 0 #
face $-1 $226 $263 $2 $-1 $373 forward single #
point $-1 12.5 10 12.5 #
coedge $-1 $369 $270 $266 $320 0 $277 $-1 #
edge $-1 $272 $321 $319 $374 0 #
vertex $-1 $370 $375 #
straight-curve $-1 7.5 10 0 0 0 -1 #
plane-surface $-1 7.5 12.5 0 1 0 0 0 0 -1 0 #
straight-curve $-1 0 12.5 -12.5 1 0 0 #
point $-1 7.5 12.5 -12.5 #
edge $-1 $376 $376 $274 $377 0 #
face $-1 $378 $379 $2 $-1 $380 reversed single #
loop $-1 $381 $286 $275 #
face $-1 $382 $383 $2 $-1 $384 reversed single #
coedge $-1 $330 $330 $285 $332 0 $282 $-1 #
coedge $-1 $331 $331 $385 $386 1 $284 $-1 #
edge $-1 $387 $387 $330 $388 0 #
vertex $-1 $287 $389 #
intcurve-curve $-1 0 { surfintcur nubs 3 periodic 33 
	0 3 0.481144001101835 2 0.96228800220367 2 1.4434320033055 2 1.92457600440734 2 
	2.40440838356493 2 2.88424076272251 2 3.3640731418801 2 3.84390552103768 2 4.32373790019527 2 
	4.80357027935285 2 5.28340265851044 2 5.76323503766803 2 6.24437903876987 2 6.72552303987171 2 
	7.20666704097356 2 7.6878110420754 2 8.16895504317724 2 8.65009904427908 2 9.13124304538093 2 
	9.61238704648277 2 10.0922194256403 2 10.5720518047979 2 11.0518841839555 2 11.5317165631131 2 
	12.0115489422707 2 12.4913813214283 2 12.9712137005858 2 13.4510460797434 2 13.9321900808453 2 
	14.4133340819471 2 14.894478083049 2 15.3756220841508 3 
	2.5 -4.33012701892219 -1.51185576813873e-14 
	2.5 -4.33012701892219 -0.160381333700627 
	2.48432427213263 -4.33929860157679 -0.325048322818159 
	2.41958766094199 -4.3757256527009 -0.650476024724436 
	2.37055341447907 -4.40292020019968 -0.811248852061054 
	2.24223232105341 -4.46963342083436 -1.11805354986672 
	2.1628432961407 -4.50911901986659 -1.2643831327677 
	1.98040421788999 -4.59217209939108 -1.53445591896048 
	1.87732826164699 -4.63566145116975 -1.65820564428576 
	1.65850431374103 -4.71836912932183 -1.87702959219172 
	1.53490261327584 -4.7606584107697 -1.98006286024377 
	1.2647692524622 -4.83943728897178 -2.16262195086547 
	1.11822959364501 -4.87586655716818 -2.2421619660268 
	0.810984990363109 -4.93627546630715 -2.37066049845749 
	0.649987126190965 -4.96026824556004 -2.41972168102792 
	0.324469833432869 -4.99214018827348 -2.48440246440733 
	0.159944126385879 -5 -2.50000000000002 
	-0.159944126385844 -5 -2.50000000000002 
	-0.324469833432833 -4.99214018827349 -2.48440246440734 
	-0.64998712619093 -4.96026824556004 -2.41972168102792 
	-0.810984990363075 -4.93627546630715 -2.3706604984575 
	-1.11822959364498 -4.87586655716818 -2.24216196602682 
	-1.26476925246217 -4.83943728897179 -2.16262195086549 
	-1.53490261327581 -4.76065841076971 -1.98006286024379 
	-1.65850431374101 -4.71836912932184 -1.87702959219175 
	-1.87732826164697 -4.63566145116976 -1.65820564428578 
	-1.98040421788997 -4.59217209939108 -1.5344559189605 
	-2.16284329614069 -4.5091190198666 -1.26438313276772 
	-2.2422323210534 -4.46963342083436 -1.11805354986674 
	-2.37055341447906 -4.40292020019968 -0.811248852061067 
	-2.41958766094199 -4.3757256527009 -0.650476024724447 
	-2.48432427213263 -4.33929860157679 -0.325048322818164 
	-2.5 -4.33012701892219 -0.16038133370063 
	-2.5 -4.33012701892219 0.160381333700598 
	-2.48432427213263 -4.33929860157679 0.325048322818132 
	-2.41958766094199 -4.3757256527009 0.650476024724414 
	-2.37055341447906 -4.40292020019968 0.811248852061034 
	-2.2422323210534 -4.46963342083436 1.1180535498667 
	-2.16284329614069 -4.5091190198666 1.26438313276768 
	-1.98040421788998 -4.59217209939108 1.53445591896047 
	-1.87732826164698 -4.63566145116976 1.65820564428574 
	-1.65850431374101 -4.71836912932184 1.87702959219171 
	-1.53490261327582 -4.76065841076971 1.98006286024375 
	-1.26476925246218 -4.83943728897179 2.16262195086545 
	-1.11822959364499 -4.87586655716818 2.24216196602678 
	-0.810984990363087 -4.93627546630715 2.37066049845746 
	-0.649987126190944 -4.96026824556004 2.41972168102789 
	-0.324469833432849 -4.99214018827349 2.4844024644073 
	-0.159944126385861 -5 2.49999999999998 
	0.159944126385861 -5 2.49999999999998 
	0.32446983343285 -4.99214018827349 2.4844024644073 
	0.649987126190944 -4.96026824556004 2.41972168102789 
	0.810984990363087 -4.93627546630715 2.37066049845746 
	1.11822959364499 -4.87586655716818 2.24216196602678 
	1.26476925246218 -4.83943728897179 2.16262195086545 
	1.53490261327582 -4.76065841076971 1.98006286024375 
	1.65850431374101 -4.71836912932184 1.87702959219171 
	1.87732826164698 -4.63566145116976 1.65820564428574 
	1.98040421788998 -4.59217209939108 1.53445591896047 
	2.16284329614069 -4.5091190198666 1.26438313276768 
	2.2422323210534 -4.46963342083436 1.1180535498667 
	2.37055341447906 -4.40292020019968 0.811248852061034 
	2.41958766094199 -4.3757256527009 0.650476024724414 
	2.48432427213263 -4.33929860157679 0.325048322818133 
	2.5 -4.33012701892219 0.160381333700599 
	2.5 -4.33012701892219 -1.51185576813873e-14 
	0.001 
	cone 0 0 0 0 -1 -3.49148133884313e-15 2.5 0 0 1 -0 -1 0 
	cone 0 0 0 0 0 1 5 0 0 1 -0 -1 0 
	nullbs 
	nullbs 
	} #
coedge $-1 $390 $288 $391 $392 0 $22 $-1 #
coedge $-1 $393 $394 $288 $337 1 $395 $-1 #
edge $-1 $341 $396 $288 $397 0 #
coedge $-1 $398 $289 $292 $344 0 $340 $-1 #
coedge $-1 $289 $398 $393 $399 1 $340 $-1 #
loop $-1 $-1 $398 $400 #
vertex $-1 $290 $401 #
straight-curve $-1 -22.5 0 12.5 1 0 -0 #
coedge $-1 $292 $291 $402 $403 0 $293 $-1 #
edge $-1 $294 $404 $338 $405 0 #
face $-1 $400 $293 $2 $-1 $406 forward single #
point $-1 -40 0 12.5 #
coedge $-1 $407 $296 $408 $409 1 $247 $-1 #
coedge $-1 $301 $410 $296 $349 0 $277 $-1 #
edge $-1 $411 $303 $296 $412 0 #
coedge $-1 $297 $413 $414 $415 0 $247 $-1 #
coedge $-1 $414 $402 $297 $352 1 $379 $-1 #
edge $-1 $416 $353 $297 $417 0 #
vertex $-1 $352 $418 #
straight-curve $-1 -40 25 3.125 0 0 1 #
plane-surface $-1 0 25 0 0 -1 0 0 0 -1 0 #
straight-curve $-1 -12.5 6.25 -12.5 0 -1 0 #
point $-1 -12.5 25 -12.5 #
coedge $-1 $307 $419 $420 $421 0 $22 $-1 #
coedge $-1 $422 $423 $307 $360 1 $424 $-1 #
edge $-1 $425 $364 $307 $426 0 #
coedge $-1 $427 $308 $423 $428 0 $363 $-1 #
coedge $-1 $308 $429 $310 $366 0 $363 $-1 #
loop $-1 $-1 $427 $430 #
vertex $-1 $428 $431 #
coedge $-1 $311 $310 $432 $433 1 $312 $-1 #
edge $-1 $434 $313 $362 $435 0 #
face $-1 $299 $312 $2 $-1 $436 forward single #
point $-1 12.5 25 12.5 #
coedge $-1 $432 $319 $315 $370 0 $277 $-1 #
edge $-1 $321 $371 $369 $437 0 #
vertex $-1 $370 $438 #
straight-curve $-1 12.5 10 0 0 0 -1 #
plane-surface $-1 10 10 0 0 1 0 0 0 1 0 #
straight-curve $-1 7.5 6.25 -12.5 0 -1 0 #
point $-1 7.5 10 -12.5 #
vertex $-1 $326 $439 #
ellipse-curve $-1 0 12.5 4.36435167355392e-14 -0 -1 -0 2.5 0 0 1 #
face $-1 $440 $441 $2 $-1 $442 forward single #
loop $-1 $-1 $402 $327 #
cone-surface $-1 -40 0 0 0 -1 -3.49148133884313e-15 2.5 0 0 1 0 1 0 #
loop $-1 $-1 $443 $275 #
face $-1 $-1 $444 $2 $-1 $445 reversed single #
loop $-1 $277 $385 $329 #
plane-surface $-1 0 0 -12.5 0 0 1 1 0 0 0 #
coedge $-1 $385 $385 $331 $386 0 $383 $-1 #
edge $-1 $446 $446 $385 $447 0 #
vertex $-1 $332 $448 #
intcurve-curve $-1 0 { surfintcur nubs 3 periodic 33 
	0 3 0.481144001101842 2 0.962288002203684 2 1.44343200330553 2 1.92457600440737 2 
	2.40440838356495 2 2.88424076272253 2 3.36407314188012 2 3.8439055210377 2 4.32373790019528 2 
	4.80357027935287 2 5.28340265851045 2 5.76323503766804 2 6.24437903876988 2 6.72552303987172 2 
	7.20666704097356 2 7.6878110420754 2 8.16895504317725 2 8.65009904427909 2 9.13124304538093 2 
	9.61238704648278 2 10.0922194256404 2 10.5720518047979 2 11.0518841839555 2 11.5317165631131 2 
	12.0115489422707 2 12.4913813214283 2 12.9712137005859 2 13.4510460797435 2 13.9321900808453 2 
	14.4133340819471 2 14.894478083049 2 15.3756220841508 3 
	2.5 4.33012701892219 1.51185576813873e-14 
	2.5 4.33012701892219 0.160381333700629 
	2.48432427213263 4.33929860157679 0.325048322818163 
	2.41958766094199 4.3757256527009 0.650476024724445 
	2.37055341447906 4.40292020019968 0.811248852061064 
	2.2422323210534 4.46963342083436 1.11805354986673 
	2.16284329614069 4.5091190198666 1.26438313276771 
	1.98040421788998 4.59217209939108 1.5344559189605 
	1.87732826164698 4.63566145116976 1.65820564428578 
	1.65850431374101 4.71836912932184 1.87702959219174 
	1.53490261327582 4.76065841076971 1.98006286024378 
	1.26476925246218 4.83943728897179 2.16262195086548 
	1.11822959364499 4.87586655716818 2.24216196602681 
	0.810984990363088 4.93627546630715 2.37066049845749 
	0.649987126190945 4.96026824556004 2.41972168102792 
	0.32446983343285 4.99214018827349 2.48440246440734 
	0.159944126385861 5 2.50000000000002 
	-0.159944126385861 5 2.50000000000002 
	-0.324469833432849 4.99214018827349 2.48440246440734 
	-0.649987126190944 4.96026824556004 2.41972168102792 
	-0.810984990363088 4.93627546630715 2.37066049845749 
	-1.11822959364499 4.87586655716818 2.24216196602681 
	-1.26476925246218 4.83943728897179 2.16262195086548 
	-1.53490261327582 4.76065841076971 1.98006286024378 
	-1.65850431374101 4.71836912932184 1.87702959219174 
	-1.87732826164698 4.63566145116976 1.65820564428578 
	-1.98040421788998 4.59217209939108 1.5344559189605 
	-2.16284329614069 4.5091190198666 1.26438313276771 
	-2.2422323210534 4.46963342083436 1.11805354986673 
	-2.37055341447906 4.40292020019968 0.811248852061064 
	-2.41958766094199 4.3757256527009 0.650476024724445 
	-2.48432427213263 4.33929860157679 0.325048322818163 
	-2.5 4.33012701892219 0.160381333700629 
	-2.5 4.33012701892219 -0.160381333700599 
	-2.48432427213263 4.33929860157679 -0.325048322818134 
	-2.41958766094199 4.3757256527009 -0.650476024724416 
	-2.37055341447906 4.40292020019968 -0.811248852061036 
	-2.2422323210534 4.46963342083436 -1.11805354986671 
	-2.16284329614069 4.5091190198666 -1.26438313276769 
	-1.98040421788997 4.59217209939108 -1.53445591896047 
	-1.87732826164697 4.63566145116976 -1.65820564428575 
	-1.65850431374101 4.71836912932184 -1.87702959219171 
	-1.53490261327581 4.76065841076971 -1.98006286024376 
	-1.26476925246217 4.83943728897179 -2.16262195086545 
	-1.11822959364498 4.87586655716818 -2.24216196602678 
	-0.810984990363075 4.93627546630715 -2.37066049845746 
	-0.64998712619093 4.96026824556004 -2.41972168102789 
	-0.324469833432833 4.99214018827349 -2.4844024644073 
	-0.159944126385845 5 -2.49999999999998 
	0.159944126385879 5 -2.49999999999998 
	0.324469833432868 4.99214018827349 -2.4844024644073 
	0.649987126190964 4.96026824556004 -2.41972168102788 
	0.810984990363108 4.93627546630715 -2.37066049845745 
	1.11822959364501 4.87586655716818 -2.24216196602677 
	1.2647692524622 4.83943728897178 -2.16262195086543 
	1.53490261327584 4.7606584107697 -1.98006286024373 
	1.65850431374103 4.71836912932183 -1.87702959219169 
	1.87732826164699 4.63566145116975 -1.65820564428573 
	1.98040421788999 4.59217209939108 -1.53445591896045 
	2.1628432961407 4.50911901986659 -1.26438313276767 
	2.24223232105341 4.46963342083436 -1.11805354986669 
	2.37055341447907 4.40292020019968 -0.811248852061023 
	2.41958766094199 4.3757256527009 -0.650476024724404 
	2.48432427213263 4.33929860157679 -0.325048322818128 
	2.5 4.33012701892219 -0.160381333700596 
	2.5 4.33012701892219 1.51185576813873e-14 
	0.001 
	cone 0 0 0 0 -1 -3.49148133884313e-15 2.5 0 0 1 -0 -1 0 
	cone 0 0 0 0 0 1 5 0 0 1 -0 -1 0 
	nullbs 
	nullbs 
	} #
point $-1 2.5 -4.33012701892219 -1.51185576813873e-14 #
coedge $-1 $449 $335 $450 $451 0 $22 $-1 #
coedge $-1 $452 $453 $335 $392 1 $454 $-1 #
edge $-1 $396 $455 $335 $456 0 #
coedge $-1 $457 $336 $339 $399 0 $395 $-1 #
coedge $-1 $336 $458 $452 $459 0 $395 $-1 #
loop $-1 $-1 $394 $460 #
vertex $-1 $392 $461 #
ellipse-curve $-1 -37.5 -10 12.5 -0 -0 -1 7.07106781186547 7.07106781186547 0 1 #
coedge $-1 $339 $338 $462 $463 0 $340 $-1 #
edge $-1 $341 $464 $339 $465 0 #
face $-1 $466 $340 $2 $-1 $442 forward single #
point $-1 -37.5 0 12.5 #
coedge $-1 $351 $462 $343 $403 1 $379 $-1 #
edge $-1 $353 $404 $343 $467 0 #
vertex $-1 $344 $468 #
straight-curve $-1 -40 0 3.125 -0 -0 -1 #
plane-surface $-1 -40 12.5 6.25 -1 0 0 0 0 1 0 #
coedge $-1 $469 $347 $470 $471 1 $247 $-1 #
coedge $-1 $472 $473 $347 $409 0 $444 $-1 #
edge $-1 $474 $411 $347 $475 0 #
coedge $-1 $348 $476 $472 $477 0 $277 $-1 #
vertex $-1 $349 $478 #
straight-curve $-1 0 25 -12.5 1 0 0 #
coedge $-1 $350 $479 $480 $481 0 $247 $-1 #
coedge $-1 $482 $351 $350 $415 1 $379 $-1 #
edge $-1 $483 $416 $350 $417 0 #
vertex $-1 $415 $484 #
ellipse-curve $-1 -40 25 8.72870334710783e-14 0 -1 0 2.5 0 0 1 #
point $-1 -40 25 2.50000000000009 #
coedge $-1 $358 $485 $486 $487 0 $22 $-1 #
coedge $-1 $488 $489 $358 $421 1 $490 $-1 #
edge $-1 $491 $425 $358 $492 0 #
coedge $-1 $493 $359 $489 $494 1 $424 $-1 #
coedge $-1 $359 $493 $361 $428 1 $424 $-1 #
loop $-1 $-1 $493 $495 #
vertex $-1 $421 $496 #
straight-curve $-1 40 6.25 12.5 0 1 0 #
coedge $-1 $497 $361 $498 $499 0 $363 $-1 #
edge $-1 $364 $500 $361 $501 0 #
coedge $-1 $362 $502 $503 $504 1 $363 $-1 #
face $-1 $505 $363 $2 $-1 $355 reversed single #
point $-1 40 25 12.5 #
coedge $-1 $503 $369 $365 $433 0 $277 $-1 #
edge $-1 $371 $434 $432 $506 0 #
vertex $-1 $433 $507 #
straight-curve $-1 12.5 25 0 0 0 1 #
plane-surface $-1 12.5 18.75 0 -1 0 0 0 0 1 0 #
straight-curve $-1 5 10 -12.5 1 0 0 #
point $-1 12.5 10 -12.5 #
point $-1 -2.5 12.5 6.11009234297548e-14 #
face $-1 $508 $509 $2 $-1 $510 forward single #
loop $-1 $-1 $511 $378 #
plane-surface $-1 -45 0 0 0 -1 0 0 0 -1 0 #
coedge $-1 $443 $443 $512 $513 1 $381 $-1 #
loop $-1 $-1 $514 $382 #
plane-surface $-1 -62.5 0 0 1 0 0 0 0 -1 0 #
vertex $-1 $386 $515 #
ellipse-curve $-1 0 0 -12.5 0 0 1 5 0 0 1 #
point $-1 2.5 4.33012701892219 1.51185576813873e-14 #
coedge $-1 $516 $390 $517 $518 0 $22 $-1 #
coedge $-1 $519 $520 $390 $451 1 $521 $-1 #
edge $-1 $455 $522 $450 $523 0 #
coedge $-1 $524 $391 $394 $459 1 $454 $-1 #
coedge $-1 $391 $524 $519 $525 1 $454 $-1 #
loop $-1 $-1 $452 $526 #
vertex $-1 $525 $527 #
straight-curve $-1 -27.5 -6.25 12.5 0 -1 0 #
coedge $-1 $458 $393 $528 $529 0 $395 $-1 #
coedge $-1 $394 $457 $530 $531 1 $395 $-1 #
edge $-1 $532 $396 $452 $533 0 #
face $-1 $526 $395 $2 $-1 $534 forward single #
point $-1 -27.5 -10 12.5 #
coedge $-1 $402 $535 $398 $463 1 $379 $-1 #
edge $-1 $404 $464 $398 $536 0 #
vertex $-1 $399 $537 #
straight-curve $-1 -37.5 0 0 0 0 -1 #
face $-1 $538 $539 $2 $-1 $13 forward single #
straight-curve $-1 -40 -8.47596519962462e-15 2.5 0 -1 -3.49148133884313e-15 #
point $-1 -40 0 2.5 #
coedge $-1 $479 $407 $540 $541 0 $247 $-1 #
coedge $-1 $542 $543 $407 $471 0 $539 $-1 #
edge $-1 $544 $474 $407 $249 0 #
coedge $-1 $514 $408 $410 $477 1 $444 $-1 #
coedge $-1 $408 $514 $542 $545 1 $444 $-1 #
vertex $-1 $471 $546 #
straight-curve $-1 -62.5 25 0 0 0 -1 #
coedge $-1 $410 $530 $547 $548 0 $277 $-1 #
edge $-1 $549 $411 $472 $550 0 #
point $-1 -62.5 25 -12.5 #
coedge $-1 $413 $469 $551 $552 0 $247 $-1 #
coedge $-1 $553 $554 $413 $481 1 $509 $-1 #
edge $-1 $555 $483 $413 $556 0 #
coedge $-1 $535 $414 $554 $557 1 $379 $-1 #
vertex $-1 $481 $558 #
point $-1 -37.5 25 8.72870334710783e-14 #
coedge $-1 $419 $559 $560 $561 0 $22 $-1 #
coedge $-1 $562 $563 $419 $487 1 $564 $-1 #
edge $-1 $565 $491 $419 $566 0 #
coedge $-1 $567 $420 $563 $568 1 $490 $-1 #
coedge $-1 $420 $567 $422 $494 0 $490 $-1 #
loop $-1 $-1 $567 $569 #
vertex $-1 $421 $570 #
straight-curve $-1 22.5 0 12.5 1 0 -0 #
coedge $-1 $423 $422 $571 $572 0 $424 $-1 #
edge $-1 $573 $425 $489 $574 0 #
face $-1 $575 $424 $2 $-1 $576 forward single #
point $-1 40 0 12.5 #
coedge $-1 $577 $427 $578 $579 0 $363 $-1 #
coedge $-1 $571 $580 $427 $499 1 $581 $-1 #
edge $-1 $500 $582 $427 $583 0 #
vertex $-1 $428 $584 #
straight-curve $-1 40 25 3.125 0 0 -1 #
coedge $-1 $429 $585 $586 $587 0 $363 $-1 #
coedge $-1 $588 $432 $429 $504 0 $277 $-1 #
edge $-1 $434 $589 $429 $412 0 #
face $-1 $590 $591 $2 $-1 $592 forward single #
straight-curve $-1 12.5 6.25 -12.5 0 1 -0 #
point $-1 12.5 25 -12.5 #
face $-1 $569 $581 $2 $-1 $593 reversed single #
loop $-1 $-1 $554 $440 #
plane-surface $-1 -47.5 12.5 0 0 0 1 1 0 0 0 #
coedge $-1 $594 $528 $535 $595 0 $441 $-1 #
coedge $-1 $512 $512 $443 $513 0 $596 $-1 #
edge $-1 $597 $597 $512 $598 0 #
coedge $-1 $473 $472 $599 $600 0 $444 $-1 #
point $-1 5 0 -12.5 #
coedge $-1 $601 $449 $602 $603 0 $22 $-1 #
coedge $-1 $604 $605 $449 $518 1 $606 $-1 #
edge $-1 $522 $607 $449 $608 0 #
coedge $-1 $609 $450 $453 $525 0 $521 $-1 #
coedge $-1 $450 $610 $604 $611 0 $521 $-1 #
loop $-1 $-1 $520 $612 #
vertex $-1 $451 $613 #
straight-curve $-1 0 -25 12.5 1 0 0 #
coedge $-1 $453 $452 $614 $615 1 $454 $-1 #
edge $-1 $455 $616 $519 $617 0 #
face $-1 $618 $454 $2 $-1 $619 forward single #
point $-1 -27.5 -25 12.5 #
coedge $-1 $511 $547 $457 $529 1 $441 $-1 #
edge $-1 $464 $620 $528 $465 0 #
coedge $-1 $476 $614 $458 $531 0 $277 $-1 #
edge $-1 $532 $620 $530 $621 0 #
vertex $-1 $615 $622 #
straight-curve $-1 -27.5 -10 0 0 0 1 #
cone-surface $-1 -37.5 -10 0 -0 -0 -1 7.07106781186547 7.07106781186547 0 1 0 -1 0 #
coedge $-1 $462 $482 $511 $595 1 $379 $-1 #
ellipse-curve $-1 -40 0 0 -0 1 -0 2.5 0 0 1 #
point $-1 -37.5 0 0 #
face $-1 $623 $624 $2 $-1 $625 forward single #
loop $-1 $-1 $543 $466 #
coedge $-1 $626 $627 $469 $541 1 $628 $-1 #
edge $-1 $544 $629 $469 $630 0 #
coedge $-1 $631 $470 $473 $545 0 $539 $-1 #
coedge $-1 $470 $631 $626 $632 0 $539 $-1 #
vertex $-1 $541 $633 #
edge $-1 $474 $634 $473 $635 0 #
point $-1 -62.5 25 12.5 #
coedge $-1 $528 $599 $476 $548 1 $441 $-1 #
edge $-1 $620 $549 $476 $636 0 #
vertex $-1 $548 $637 #
straight-curve $-1 -62.5 0 -12.5 0 1 0 #
coedge $-1 $638 $639 $479 $552 1 $640 $-1 #
edge $-1 $629 $555 $479 $641 0 #
coedge $-1 $642 $480 $639 $643 0 $509 $-1 #
coedge $-1 $480 $642 $482 $557 0 $509 $-1 #
vertex $-1 $552 $644 #
straight-curve $-1 -23.75 25 0 1 0 -0 #
edge $-1 $645 $483 $554 $646 0 #
point $-1 -42.5 25 0 #
coedge $-1 $485 $647 $648 $649 0 $22 $-1 #
coedge $-1 $650 $651 $485 $561 1 $652 $-1 #
edge $-1 $653 $565 $485 $654 0 #
coedge $-1 $655 $486 $651 $656 0 $564 $-1 #
coedge $-1 $486 $657 $488 $568 0 $564 $-1 #
loop $-1 $-1 $657 $658 #
vertex $-1 $561 $659 #
ellipse-curve $-1 37.5 -10 12.5 -0 -0 -1 -7.07106781186547 7.07106781186547 0 1 #
coedge $-1 $489 $488 $660 $661 0 $490 $-1 #
edge $-1 $662 $491 $488 $663 0 #
face $-1 $495 $490 $2 $-1 $664 forward single #
point $-1 37.5 0 12.5 #
coedge $-1 $660 $498 $493 $572 1 $581 $-1 #
edge $-1 $573 $500 $493 $665 0 #
vertex $-1 $572 $666 #
straight-curve $-1 40 0 3.125 -0 0 1 #
face $-1 $667 $640 $2 $-1 $668 reversed single #
plane-surface $-1 40 12.5 6.25 1 0 0 0 0 -1 0 #
coedge $-1 $669 $497 $670 $671 0 $363 $-1 #
coedge $-1 $672 $673 $497 $579 1 $624 $-1 #
edge $-1 $582 $674 $497 $675 0 #
coedge $-1 $498 $676 $672 $677 1 $581 $-1 #
loop $-1 $-1 $580 $508 #
vertex $-1 $499 $678 #
ellipse-curve $-1 40 25 8.72870334710783e-14 0 -1 0 2.5 0 0 1 #
point $-1 40 25 2.50000000000009 #
coedge $-1 $502 $679 $680 $681 1 $363 $-1 #
coedge $-1 $682 $683 $502 $587 1 $684 $-1 #
edge $-1 $685 $589 $586 $686 0 #
coedge $-1 $687 $503 $683 $688 0 $277 $-1 #
vertex $-1 $688 $689 #
face $-1 $690 $691 $2 $-1 $692 forward single #
loop $-1 $-1 $693 $505 #
cone-surface $-1 15 -17.5 3.75 -0 -0 -1 3.53553390593274 3.53553390593274 0 1 0 -1 0 #
cone-surface $-1 40 0 0 0 -1 -3.49148133884313e-15 2.5 0 0 1 0 1 0 #
coedge $-1 $694 $511 $642 $695 0 $441 $-1 #
edge $-1 $464 $645 $511 $536 0 #
loop $-1 $696 $512 $690 #
vertex $-1 $513 $697 #
ellipse-curve $-1 0 -12.5 -4.36435167355391e-14 -0 1 -0 2.5 0 0 1 #
coedge $-1 $547 $698 $514 $600 1 $441 $-1 #
edge $-1 $549 $634 $514 $699 0 #
coedge $-1 $700 $516 $701 $702 0 $22 $-1 #
coedge $-1 $703 $704 $516 $603 1 $705 $-1 #
edge $-1 $607 $706 $516 $707 0 #
coedge $-1 $708 $517 $520 $611 1 $606 $-1 #
coedge $-1 $517 $708 $703 $709 1 $606 $-1 #
loop $-1 $-1 $605 $710 #
vertex $-1 $518 $711 #
straight-curve $-1 -20 -9.375 12.5 0 1 0 #
coedge $-1 $712 $519 $713 $714 1 $521 $-1 #
coedge $-1 $520 $715 $716 $717 0 $521 $-1 #
edge $-1 $718 $522 $520 $719 0 #
face $-1 $720 $521 $2 $-1 $721 reversed single #
point $-1 -20 -25 12.5 #
coedge $-1 $530 $713 $524 $615 0 $277 $-1 #
edge $-1 $616 $532 $614 $722 0 #
vertex $-1 $714 $723 #
straight-curve $-1 -27.5 -25 0 -0 0 -1 #
face $-1 $612 $724 $2 $-1 $13 forward single #
plane-surface $-1 -27.5 -12.5 0 -1 0 0 0 0 1 0 #
vertex $-1 $548 $725 #
ellipse-curve $-1 -37.5 -10 -12.5 0 0 1 7.07106781186547 7.07106781186547 0 1 #
point $-1 -27.5 -10 -12.5 #
face $-1 $726 $727 $2 $-1 $728 forward single #
loop $-1 $-1 $672 $538 #
plane-surface $-1 47.5 12.5 0 0 0 1 1 0 0 0 #
coedge $-1 $729 $540 $543 $632 1 $628 $-1 #
coedge $-1 $540 $729 $638 $730 0 $628 $-1 #
loop $-1 $-1 $627 $667 #
vertex $-1 $541 $731 #
straight-curve $-1 -55 25 3.125 0 0 -1 #
coedge $-1 $543 $542 $698 $732 0 $539 $-1 #
edge $-1 $733 $544 $543 $734 0 #
point $-1 -55 25 12.5 #
vertex $-1 $545 $735 #
straight-curve $-1 -62.5 0 12.5 0 -1 0 #
straight-curve $-1 -22.5 0 -12.5 -1 0 0 #
point $-1 -62.5 0 -12.5 #
coedge $-1 $736 $551 $627 $730 1 $640 $-1 #
coedge $-1 $551 $736 $553 $643 1 $640 $-1 #
loop $-1 $-1 $639 $575 #
ellipse-curve $-1 -55 25 8.72870334710783e-14 0 -1 0 2.5 0 0 1 #
coedge $-1 $554 $553 $594 $695 1 $509 $-1 #
edge $-1 $555 $737 $553 $738 0 #
point $-1 -52.5 25 8.72870334710783e-14 #
vertex $-1 $557 $739 #
straight-curve $-1 -42.5 -7.61902621218115e-29 0 -0 1 3.49148133884313e-15 #
coedge $-1 $559 $700 $740 $741 0 $22 $-1 #
coedge $-1 $715 $712 $559 $649 1 $521 $-1 #
edge $-1 $742 $653 $648 $523 0 #
coedge $-1 $743 $560 $712 $744 1 $652 $-1 #
coedge $-1 $560 $743 $562 $656 1 $652 $-1 #
loop $-1 $-1 $651 $745 #
vertex $-1 $649 $746 #
straight-curve $-1 27.5 -6.25 12.5 0 1 0 #
coedge $-1 $657 $562 $747 $748 1 $564 $-1 #
edge $-1 $565 $749 $651 $750 0 #
coedge $-1 $563 $655 $751 $752 0 $564 $-1 #
face $-1 $745 $564 $2 $-1 $753 forward single #
point $-1 27.5 -10 12.5 #
coedge $-1 $676 $571 $567 $661 1 $581 $-1 #
edge $-1 $662 $573 $567 $754 0 #
vertex $-1 $752 $755 #
straight-curve $-1 37.5 0 0 0 0 1 #
plane-surface $-1 45 0 0 0 -1 0 0 0 -1 0 #
straight-curve $-1 40 -8.47596519962462e-15 2.5 -0 1 3.49148133884313e-15 #
point $-1 40 0 2.5 #
face $-1 $756 $628 $2 $-1 $757 forward single #
cone-surface $-1 -55 0 0 0 -1 -3.49148133884313e-15 2.5 0 0 1 0 1 0 #
coedge $-1 $679 $577 $758 $759 0 $363 $-1 #
coedge $-1 $760 $758 $577 $671 1 $761 $-1 #
edge $-1 $674 $762 $577 $763 0 #
coedge $-1 $764 $578 $580 $677 0 $624 $-1 #
coedge $-1 $578 $764 $760 $765 0 $624 $-1 #
vertex $-1 $579 $766 #
straight-curve $-1 23.75 25 0 1 0 -0 #
coedge $-1 $580 $660 $767 $768 1 $581 $-1 #
edge $-1 $582 $769 $672 $770 0 #
point $-1 42.5 25 8.72870334710783e-14 #
coedge $-1 $585 $669 $771 $772 0 $363 $-1 #
coedge $-1 $773 $774 $585 $681 0 $724 $-1 #
edge $-1 $685 $775 $585 $249 0 #
coedge $-1 $776 $586 $774 $777 1 $684 $-1 #
coedge $-1 $586 $776 $588 $688 1 $684 $-1 #
loop $-1 $-1 $776 $720 #
vertex $-1 $777 $778 #
straight-curve $-1 62.5 25 0 0 0 -1 #
coedge $-1 $747 $588 $779 $780 0 $277 $-1 #
edge $-1 $589 $781 $683 $782 0 #
point $-1 62.5 25 -12.5 #
face $-1 $783 $596 $2 $-1 $784 forward single #
loop $-1 $-1 $785 $590 #
plane-surface $-1 0 -18.75 -5 0 0 1 1 0 0 0 #
coedge $-1 $786 $787 $788 $789 0 $591 $-1 #
coedge $-1 $790 $594 $736 $791 0 $441 $-1 #
edge $-1 $645 $737 $594 $792 0 #
loop $-1 $-1 $793 $690 #
point $-1 -2.5 -12.5 -6.11009234297548e-14 #
coedge $-1 $599 $790 $631 $732 1 $441 $-1 #
straight-curve $-1 -62.5 0 0 -0 0 1 #
coedge $-1 $647 $601 $786 $794 0 $22 $-1 #
coedge $-1 $795 $793 $601 $702 1 $696 $-1 #
edge $-1 $706 $796 $601 $797 0 #
coedge $-1 $798 $602 $605 $709 0 $705 $-1 #
coedge $-1 $602 $798 $795 $799 0 $705 $-1 #
loop $-1 $-1 $704 $783 #
vertex $-1 $702 $800 #
ellipse-curve $-1 -15 -17.5 12.5 -0 -0 -1 -3.53553390593274 3.53553390593274 0 1 #
coedge $-1 $605 $604 $801 $802 0 $606 $-1 #
edge $-1 $607 $803 $605 $804 0 #
face $-1 $805 $606 $2 $-1 $806 forward single #
point $-1 -20 -17.5 12.5 #
coedge $-1 $648 $609 $650 $744 0 $521 $-1 #
coedge $-1 $614 $807 $609 $714 0 $277 $-1 #
edge $-1 $808 $616 $609 $809 0 #
coedge $-1 $610 $648 $810 $811 0 $521 $-1 #
coedge $-1 $812 $801 $610 $717 1 $691 $-1 #
edge $-1 $813 $718 $610 $814 0 #
vertex $-1 $717 $815 #
straight-curve $-1 -20 -25 1.875 -0 0 1 #
face $-1 $329 $684 $2 $-1 $816 reversed single #
plane-surface $-1 0 -25 0 0 1 -0 -0 0 1 0 #
straight-curve $-1 -27.5 -6.25 -12.5 0 1 -0 #
point $-1 -27.5 -25 -12.5 #
loop $-1 $-1 $773 $618 #
point $-1 -37.5 0 -12.5 #
face $-1 $658 $817 $2 $-1 $664 forward single #
loop $-1 $-1 $818 $623 #
plane-surface $-1 55 12.5 6.25 -1 0 0 0 0 1 0 #
coedge $-1 $627 $626 $790 $819 1 $628 $-1 #
edge $-1 $820 $629 $627 $821 0 #
point $-1 -55 25 2.50000000000009 #
edge $-1 $634 $733 $631 $342 0 #
vertex $-1 $732 $822 #
straight-curve $-1 -55 6.25 12.5 0 1 0 #
point $-1 -62.5 0 12.5 #
coedge $-1 $639 $638 $694 $791 1 $640 $-1 #
vertex $-1 $695 $823 #
straight-curve $-1 -52.5 -7.61902621218115e-29 0 0 -1 -3.49148133884313e-15 #
point $-1 -42.5 0 0 #
coedge $-1 $788 $810 $647 $741 1 $824 $-1 #
edge $-1 $825 $742 $647 $826 0 #
vertex $-1 $811 $827 #
coedge $-1 $651 $650 $807 $828 1 $652 $-1 #
edge $-1 $808 $653 $712 $829 0 #
face $-1 $460 $652 $2 $-1 $830 forward single #
point $-1 27.5 -25 12.5 #
coedge $-1 $807 $687 $655 $748 0 $277 $-1 #
edge $-1 $831 $749 $747 $832 0 #
vertex $-1 $828 $833 #
straight-curve $-1 27.5 -10 0 0 0 -1 #
coedge $-1 $779 $767 $657 $752 1 $817 $-1 #
edge $-1 $831 $662 $751 $663 0 #
cone-surface $-1 37.5 -10 0 -0 0 -1 -7.07106781186547 7.07106781186547 0 1 0 -1 0 #
ellipse-curve $-1 40 0 0 -0 1 -0 2.5 0 0 1 #
point $-1 37.5 0 0 #
face $-1 $430 $761 $2 $-1 $834 reversed single #
plane-surface $-1 -55 12.5 6.25 1 0 0 0 0 -1 0 #
coedge $-1 $670 $835 $669 $759 1 $761 $-1 #
edge $-1 $762 $836 $669 $763 0 #
coedge $-1 $837 $670 $673 $765 1 $761 $-1 #
loop $-1 $-1 $760 $756 #
vertex $-1 $671 $838 #
ellipse-curve $-1 55 25 8.72870334710783e-14 0 -1 0 2.5 0 0 1 #
coedge $-1 $673 $672 $839 $840 1 $624 $-1 #
edge $-1 $841 $674 $673 $842 0 #
point $-1 52.5 25 0 #
coedge $-1 $751 $839 $676 $768 0 $817 $-1 #
edge $-1 $769 $662 $767 $754 0 #
vertex $-1 $840 $843 #
straight-curve $-1 42.5 -7.61902621218115e-29 0 0 -1 -3.49148133884313e-15 #
coedge $-1 $818 $844 $679 $772 1 $727 $-1 #
edge $-1 $836 $775 $679 $845 0 #
coedge $-1 $846 $680 $844 $847 0 $724 $-1 #
coedge $-1 $680 $846 $682 $777 0 $724 $-1 #
vertex $-1 $681 $848 #
coedge $-1 $683 $682 $849 $850 0 $684 $-1 #
edge $-1 $851 $685 $682 $852 0 #
point $-1 62.5 25 12.5 #
coedge $-1 $849 $751 $687 $780 1 $817 $-1 #
edge $-1 $781 $831 $687 $853 0 #
vertex $-1 $688 $854 #
straight-curve $-1 62.5 0 -12.5 0 -1 0 #
face $-1 $710 $705 $2 $-1 $855 forward single #
plane-surface $-1 0 -12.5 3.75 0 -1 0 0 0 -1 0 #
coedge $-1 $856 $812 $787 $857 0 $691 $-1 #
coedge $-1 $858 $693 $700 $794 1 $591 $-1 #
coedge $-1 $693 $858 $785 $857 1 $591 $-1 #
coedge $-1 $859 $740 $693 $789 1 $824 $-1 #
edge $-1 $860 $825 $788 $861 0 #
coedge $-1 $698 $694 $729 $819 0 $441 $-1 #
edge $-1 $737 $820 $694 $862 0 #
straight-curve $-1 -46.25 0 0 -1 0 0 #
coedge $-1 $701 $863 $858 $864 1 $696 $-1 #
edge $-1 $796 $825 $700 $865 0 #
coedge $-1 $863 $701 $704 $799 1 $696 $-1 #
vertex $-1 $702 $866 #
straight-curve $-1 0 -12.5 12.5 1 0 -0 #
coedge $-1 $704 $703 $867 $868 1 $705 $-1 #
edge $-1 $869 $706 $795 $870 0 #
point $-1 -15 -12.5 12.5 #
coedge $-1 $716 $867 $708 $802 1 $691 $-1 #
edge $-1 $718 $803 $708 $871 0 #
vertex $-1 $802 $872 #
straight-curve $-1 -20 -17.5 3.75 0 0 -1 #
face $-1 $367 $824 $2 $-1 $873 forward single #
plane-surface $-1 -20 -18.75 3.75 1 0 0 0 0 -1 0 #
coedge $-1 $713 $747 $743 $828 0 $277 $-1 #
vertex $-1 $744 $874 #
straight-curve $-1 0 -25 -12.5 -1 0 0 #
coedge $-1 $740 $859 $715 $811 1 $824 $-1 #
edge $-1 $742 $813 $715 $875 0 #
coedge $-1 $785 $716 $859 $876 1 $691 $-1 #
vertex $-1 $717 $877 #
straight-curve $-1 0 -25 -5 -1 0 0 #
point $-1 -20 -25 -5 #
plane-surface $-1 62.5 0 0 -1 0 0 0 -0 1 0 #
loop $-1 $-1 $767 $726 #
coedge $-1 $878 $771 $835 $879 0 $727 $-1 #
edge $-1 $820 $733 $790 $880 0 #
vertex $-1 $730 $881 #
straight-curve $-1 -55 -8.47596519962462e-15 2.5 -0 1 3.49148133884313e-15 #
point $-1 -55 0 12.5 #
point $-1 -52.5 0 0 #
loop $-1 $-1 $788 $805 #
vertex $-1 $741 $882 #
straight-curve $-1 20 -9.375 12.5 0 -1 0 #
point $-1 20 -25 12.5 #
edge $-1 $749 $808 $807 $883 0 #
straight-curve $-1 27.5 -25 0 -0 0 1 #
plane-surface $-1 27.5 -12.5 0 1 0 0 0 0 -1 0 #
vertex $-1 $780 $884 #
ellipse-curve $-1 37.5 -10 -12.5 0 0 1 -7.07106781186547 7.07106781186547 0 1 #
point $-1 27.5 -10 -12.5 #
cone-surface $-1 55 0 0 0 -1 -3.49148133884313e-15 2.5 0 0 1 0 1 0 #
coedge $-1 $758 $837 $818 $879 1 $761 $-1 #
vertex $-1 $879 $885 #
coedge $-1 $835 $760 $886 $887 1 $761 $-1 #
point $-1 57.5 25 8.72870334710783e-14 #
coedge $-1 $767 $886 $764 $840 0 $817 $-1 #
edge $-1 $841 $769 $839 $888 0 #
vertex $-1 $887 $889 #
straight-curve $-1 52.5 -7.61902621218115e-29 0 -0 1 3.49148133884313e-15 #
point $-1 42.5 0 0 #
coedge $-1 $771 $878 $773 $847 1 $727 $-1 #
straight-curve $-1 55 25 3.125 0 0 1 #
coedge $-1 $774 $773 $890 $891 0 $724 $-1 #
edge $-1 $775 $892 $773 $893 0 #
point $-1 55 25 12.5 #
coedge $-1 $890 $779 $776 $850 1 $817 $-1 #
edge $-1 $851 $781 $776 $894 0 #
vertex $-1 $850 $895 #
straight-curve $-1 62.5 0 12.5 0 1 0 #
straight-curve $-1 22.5 0 -12.5 -1 0 0 #
point $-1 62.5 0 -12.5 #
cone-surface $-1 -15 -17.5 3.75 -0 0 -1 -3.53553390593274 3.53553390593274 0 1 0 -1 0 #
coedge $-1 $867 $785 $863 $896 1 $691 $-1 #
edge $-1 $860 $897 $785 $898 0 #
coedge $-1 $787 $786 $793 $864 0 $591 $-1 #
coedge $-1 $810 $788 $812 $876 0 $824 $-1 #
vertex $-1 $857 $899 #
straight-curve $-1 20 -17.5 3.75 0 0 1 #
ellipse-curve $-1 -55 0 0 -0 1 -0 2.5 0 0 1 #
coedge $-1 $793 $795 $856 $896 0 $696 $-1 #
edge $-1 $796 $897 $793 $900 0 #
ellipse-curve $-1 15 -17.5 12.5 -0 -0 -1 3.53553390593274 3.53553390593274 0 1 #
point $-1 15 -12.5 12.5 #
coedge $-1 $801 $856 $798 $868 0 $691 $-1 #
edge $-1 $869 $803 $867 $901 0 #
vertex $-1 $868 $902 #
straight-curve $-1 -15 -12.5 3.75 0 0 1 #
straight-curve $-1 -20 -18.75 -5 0 1 0 #
point $-1 -20 -17.5 -5 #
plane-surface $-1 20 -18.75 3.75 -1 0 0 0 0 1 0 #
point $-1 27.5 -25 -12.5 #
straight-curve $-1 20 -25 1.875 -0 0 -1 #
edge $-1 $860 $813 $859 $903 0 #
point $-1 20 -25 -5 #
coedge $-1 $844 $818 $904 $905 1 $727 $-1 #
edge $-1 $836 $906 $818 $907 0 #
straight-curve $-1 -55 0 3.125 -0 0 1 #
point $-1 -55 0 2.5 #
point $-1 20 -17.5 12.5 #
straight-curve $-1 27.5 -6.25 -12.5 0 -1 0 #
point $-1 37.5 0 -12.5 #
point $-1 55 25 2.50000000000009 #
coedge $-1 $839 $904 $837 $887 0 $817 $-1 #
edge $-1 $906 $841 $886 $908 0 #
straight-curve $-1 46.25 0 0 -1 0 0 #
point $-1 52.5 0 0 #
coedge $-1 $904 $849 $846 $891 1 $817 $-1 #
edge $-1 $892 $851 $846 $492 0 #
vertex $-1 $847 $909 #
straight-curve $-1 55 6.25 12.5 0 -1 0 #
straight-curve $-1 62.5 0 0 -0 -0 -1 #
point $-1 62.5 0 12.5 #
edge $-1 $869 $897 $863 $910 0 #
vertex $-1 $896 $911 #
ellipse-curve $-1 15 -17.5 -5 0 0 1 3.53553390593274 3.53553390593274 0 1 #
point $-1 20 -17.5 -5 #
straight-curve $-1 15 -12.5 3.75 0 0 -1 #
ellipse-curve $-1 -15 -17.5 -5 0 0 1 -3.53553390593274 3.53553390593274 0 1 #
point $-1 -15 -12.5 -5 #
straight-curve $-1 20 -18.75 -5 0 -1 0 #
coedge $-1 $886 $890 $878 $905 0 $817 $-1 #
edge $-1 $892 $906 $904 $912 0 #
vertex $-1 $905 $913 #
straight-curve $-1 55 -8.47596519962462e-15 2.5 0 -1 -3.49148133884313e-15 #
ellipse-curve $-1 55 0 0 -0 1 -0 2.5 0 0 1 #
point $-1 55 0 12.5 #
straight-curve $-1 0 -12.5 -5 1 0 0 #
point $-1 15 -12.5 -5 #
straight-curve $-1 55 0 3.125 -0 -0 -1 #
point $-1 55 0 2.5 #
