600 0 1 0           
91 GICL ACIS Healer - Source: /gicl/data5/repository/UMD/bracket2-Part/bracket2-Part.sat - 6 0 18 ACIS 6.0.3 Solaris 24 Sun Apr 14 00:36:02 2002 
1 9.999999999999999547e-07 1.000000000000000036e-10 
body $-1 $1 $-1 $-1 #
lump $-1 $-1 $2 $0 #
shell $-1 $-1 $-1 $3 $-1 $1 #
face $-1 $4 $5 $2 $-1 $6 reversed single #
face $-1 $7 $8 $2 $-1 $9 reversed single #
loop $-1 $-1 $10 $3 #
cone-surface $-1 -17.5 0 10 0 0 1 2.5 0 0 1 I I 0 1 2.5 forward I I I I #
face $-1 $11 $12 $2 $-1 $13 forward single #
loop $-1 $-1 $14 $4 #
cone-surface $-1 17.5 0 10 0 0 1 2.5 0 0 1 I I 0 1 2.5 forward I I I I #
coedge $-1 $15 $16 $17 $18 reversed $5 $-1 #
face $-1 $19 $20 $2 $-1 $21 forward single #
loop $-1 $22 $23 $7 #
plane-surface $-1 0 0 12.5 0 0 1 1 0 0 forward_v I I I I #
coedge $-1 $24 $25 $26 $27 reversed $8 $-1 #
coedge $-1 $28 $10 $29 $30 forward $5 $-1 #
coedge $-1 $10 $28 $23 $31 reversed $5 $-1 #
coedge $-1 $32 $33 $10 $18 forward $34 $-1 #
edge $-1 $35 -2.5 $36 2.5 $17 $37 reversed 7 unknown #
face $-1 $38 $34 $2 $-1 $39 forward single #
loop $-1 $-1 $40 $11 #
plane-surface $-1 0 0 7.5 0 0 1 1 0 0 forward_v I I I I #
loop $-1 $-1 $41 $7 #
coedge $-1 $42 $43 $16 $31 forward $12 $-1 #
coedge $-1 $44 $14 $45 $46 forward $8 $-1 #
coedge $-1 $14 $47 $48 $49 reversed $8 $-1 #
coedge $-1 $50 $51 $14 $27 forward $52 $-1 #
edge $-1 $53 -2.5 $54 2.5 $26 $55 reversed 7 unknown #
coedge $-1 $16 $15 $56 $57 forward $5 $-1 #
coedge $-1 $58 $59 $15 $30 reversed $60 $-1 #
edge $-1 $35 1.570796326794896558 $61 4.712388980384689674 $29 $62 forward 7 unknown #
edge $-1 $36 1.570796326794896558 $63 4.712388980384689674 $23 $64 forward 7 unknown #
coedge $-1 $65 $17 $43 $66 reversed $34 $-1 #
coedge $-1 $17 $65 $58 $67 forward $34 $-1 #
loop $-1 $-1 $65 $19 #
vertex $-1 $67 $68 #
vertex $-1 $66 $69 #
straight-curve $-1 -17.5 -2.5 10 0 0 -1 I I #
face $-1 $70 $71 $2 $-1 $39 forward single #
plane-surface $-1 0 -2.5 10 0 1 0 0 0 1 forward_v I I I I #
coedge $-1 $72 $45 $51 $73 reversed $20 $-1 #
coedge $-1 $74 $75 $76 $77 forward $22 $-1 #
coedge $-1 $78 $23 $79 $80 forward $12 $-1 #
coedge $-1 $23 $81 $32 $66 forward $12 $-1 #
coedge $-1 $82 $24 $83 $84 forward $8 $-1 #
coedge $-1 $40 $83 $24 $46 reversed $20 $-1 #
edge $-1 $53 -1.570796326794896558 $85 0 $45 $86 forward 7 unknown #
coedge $-1 $25 $82 $87 $88 reversed $8 $-1 #
coedge $-1 $87 $89 $25 $49 forward $12 $-1 #
edge $-1 $54 -1.570796326794896558 $90 0 $48 $91 forward 7 unknown #
coedge $-1 $92 $26 $89 $93 reversed $52 $-1 #
coedge $-1 $26 $92 $40 $73 forward $52 $-1 #
loop $-1 $-1 $92 $94 #
vertex $-1 $73 $95 #
vertex $-1 $93 $96 #
straight-curve $-1 17.5 2.5 10 0 0 -1 I I #
coedge $-1 $97 $79 $28 $57 reversed $98 $-1 #
edge $-1 $61 -2.5 $63 2.5 $56 $99 reversed 7 unknown #
coedge $-1 $100 $29 $33 $67 reversed $60 $-1 #
coedge $-1 $29 $100 $97 $101 reversed $60 $-1 #
loop $-1 $-1 $58 $102 #
vertex $-1 $101 $103 #
ellipse-curve $-1 -17.5 0 7.5 0 0 -1 2.5 0 0 1 I I #
vertex $-1 $31 $104 #
ellipse-curve $-1 -17.5 0 12.5 -0 -0 -1 2.5 0 0 1 I I #
coedge $-1 $33 $32 $105 $106 reversed $34 $-1 #
edge $-1 $107 4.330127018922190096 $36 17.5 $43 $108 forward 7 unknown #
edge $-1 $109 4.330127018922190096 $35 17.5 $33 $110 forward 7 unknown #
point $-1 -17.5 -2.5 7.5 #
point $-1 -17.5 -2.5 12.5 #
face $-1 $102 $98 $2 $-1 $111 forward single #
loop $-1 $-1 $112 $38 #
coedge $-1 $113 $40 $114 $115 reversed $20 $-1 #
edge $-1 $116 4.330127018922190096 $53 17.5 $51 $117 forward 7 unknown #
coedge $-1 $118 $41 $119 $120 forward $22 $-1 #
coedge $-1 $41 $121 $122 $123 forward $22 $-1 #
coedge $-1 $124 $125 $41 $77 reversed $126 $-1 #
edge $-1 $127 -6.25 $128 -3.75 $41 $129 forward 7 unknown #
coedge $-1 $89 $42 $130 $131 forward $12 $-1 #
coedge $-1 $56 $132 $42 $80 reversed $98 $-1 #
edge $-1 $63 -17.5 $133 -4.330127018922190096 $42 $134 forward 7 unknown #
coedge $-1 $43 $135 $136 $137 forward $12 $-1 #
coedge $-1 $47 $44 $138 $139 forward $8 $-1 #
coedge $-1 $45 $113 $44 $84 reversed $20 $-1 #
edge $-1 $85 0 $140 1.570796326794896558 $83 $86 forward 7 unknown #
vertex $-1 $46 $141 #
ellipse-curve $-1 17.5 0 7.5 0 0 -1 2.5 0 0 1 I I #
coedge $-1 $135 $48 $47 $88 forward $12 $-1 #
edge $-1 $90 0 $142 1.570796326794896558 $87 $91 forward 7 unknown #
coedge $-1 $48 $78 $50 $93 forward $12 $-1 #
vertex $-1 $49 $143 #
ellipse-curve $-1 17.5 0 12.5 -0 -0 -1 2.5 0 0 1 I I #
coedge $-1 $51 $50 $144 $145 reversed $52 $-1 #
edge $-1 $146 4.330127018922190096 $54 17.5 $89 $134 forward 7 unknown #
face $-1 $147 $52 $2 $-1 $111 forward single #
point $-1 17.5 2.5 7.5 #
point $-1 17.5 2.5 12.5 #
coedge $-1 $132 $56 $59 $101 forward $98 $-1 #
loop $-1 $-1 $132 $70 #
straight-curve $-1 -17.5 2.5 10 0 0 -1 I I #
coedge $-1 $59 $58 $148 $149 reversed $60 $-1 #
edge $-1 $61 -17.5 $150 -4.330127018922190096 $97 $117 forward 7 unknown #
face $-1 $94 $60 $2 $-1 $21 forward single #
point $-1 -17.5 2.5 7.5 #
point $-1 -17.5 2.5 12.5 #
coedge $-1 $136 $148 $65 $106 forward $151 $-1 #
edge $-1 $109 7.5 $107 12.5 $105 $152 forward 7 unknown #
vertex $-1 $137 $153 #
straight-curve $-1 0 -2.5 12.5 -1 0 0 I I #
vertex $-1 $149 $154 #
straight-curve $-1 0 -2.5 7.5 -1 0 0 I I #
plane-surface $-1 0 2.5 10 0 -1 0 0 0 -1 forward_v I I I I #
coedge $-1 $155 $156 $157 $158 reversed $71 $-1 #
coedge $-1 $83 $72 $156 $159 reversed $20 $-1 #
coedge $-1 $144 $157 $72 $115 forward $151 $-1 #
edge $-1 $160 -0.5235987755982991487 $116 0.5235987755982991487 $114 $161 forward 7 unknown #
vertex $-1 $115 $162 #
straight-curve $-1 0 2.5 7.5 1 0 0 I I #
coedge $-1 $163 $74 $164 $165 forward $22 $-1 #
coedge $-1 $166 $167 $74 $120 reversed $168 $-1 #
edge $-1 $128 2.5 $169 7.5 $74 $170 forward 7 unknown #
coedge $-1 $75 $171 $172 $173 forward $22 $-1 #
coedge $-1 $174 $175 $75 $123 reversed $176 $-1 #
edge $-1 $177 -7.5 $127 7.5 $75 $178 forward 7 unknown #
coedge $-1 $179 $76 $175 $180 reversed $126 $-1 #
coedge $-1 $76 $179 $166 $181 reversed $126 $-1 #
loop $-1 $-1 $124 $182 #
vertex $-1 $123 $183 #
vertex $-1 $120 $184 #
straight-curve $-1 -7.5 6.25 12.5 0 -1 0 I I #
coedge $-1 $185 $144 $78 $131 reversed $151 $-1 #
edge $-1 $133 -2.617993877991493967 $146 -0.5235987755982991487 $78 $186 forward 7 unknown #
coedge $-1 $79 $97 $185 $187 reversed $98 $-1 #
vertex $-1 $187 $188 #
straight-curve $-1 0 2.5 12.5 1 0 -0 I I #
coedge $-1 $81 $87 $155 $189 forward $12 $-1 #
coedge $-1 $157 $105 $81 $137 reversed $151 $-1 #
edge $-1 $190 0.5235987755982991487 $107 2.617993877991493967 $81 $186 forward 7 unknown #
coedge $-1 $156 $155 $82 $139 reversed $71 $-1 #
edge $-1 $140 -2.5 $142 2.5 $138 $191 reversed 7 unknown #
vertex $-1 $139 $192 #
point $-1 20 0 7.5 #
vertex $-1 $189 $193 #
point $-1 20 0 12.5 #
coedge $-1 $130 $114 $92 $145 forward $151 $-1 #
edge $-1 $116 7.5 $146 12.5 $144 $194 forward 7 unknown #
vertex $-1 $131 $195 #
face $-1 $196 $151 $2 $-1 $197 reversed single #
coedge $-1 $105 $185 $100 $149 forward $151 $-1 #
edge $-1 $150 2.617993877991493967 $109 3.665191429188092265 $148 $198 forward 7 unknown #
vertex $-1 $149 $199 #
loop $-1 $200 $144 $147 #
straight-curve $-1 -4.330127018922190096 -2.5 0 -0 -0 1 I I #
point $-1 -4.330127018922190096 -2.5 12.5 #
point $-1 -4.330127018922190096 -2.5 7.5 #
coedge $-1 $138 $112 $135 $189 reversed $71 $-1 #
coedge $-1 $112 $138 $113 $159 forward $71 $-1 #
coedge $-1 $114 $136 $112 $158 forward $151 $-1 #
edge $-1 $190 -12.5 $160 -7.5 $157 $201 forward 7 unknown #
edge $-1 $140 -17.5 $160 -4.330127018922190096 $156 $110 forward 7 unknown #
vertex $-1 $115 $202 #
ellipse-curve $-1 0 0 7.5 0 0 1 5 0 0 1 I I #
point $-1 4.330127018922190096 2.5 7.5 #
coedge $-1 $203 $118 $204 $205 forward $22 $-1 #
coedge $-1 $206 $207 $118 $165 reversed $208 $-1 #
edge $-1 $169 3.75 $209 18.75 $118 $210 forward 7 unknown #
coedge $-1 $211 $119 $125 $181 forward $168 $-1 #
coedge $-1 $119 $211 $206 $212 reversed $168 $-1 #
loop $-1 $-1 $167 $213 #
vertex $-1 $120 $214 #
straight-curve $-1 -5 10 12.5 -1 0 0 I I #
coedge $-1 $121 $215 $216 $217 forward $22 $-1 #
coedge $-1 $218 $219 $121 $173 reversed $220 $-1 #
edge $-1 $221 3.75 $177 6.25 $121 $222 forward 7 unknown #
coedge $-1 $223 $122 $219 $224 forward $176 $-1 #
coedge $-1 $122 $223 $124 $180 forward $176 $-1 #
loop $-1 $225 $175 $226 #
vertex $-1 $224 $227 #
straight-curve $-1 0 12.5 12.5 -1 0 0 I I #
coedge $-1 $125 $124 $228 $229 reversed $126 $-1 #
edge $-1 $230 -12.5 $127 12.5 $175 $231 forward 7 unknown #
edge $-1 $128 -12.5 $232 12.5 $125 $233 forward 7 unknown #
face $-1 $234 $126 $2 $-1 $235 forward single #
point $-1 -7.5 12.5 12.5 #
point $-1 -7.5 10 12.5 #
coedge $-1 $148 $130 $132 $187 forward $151 $-1 #
ellipse-curve $-1 0 0 12.5 -0 -0 -1 5 0 0 1 I I #
edge $-1 $133 -12.5 $150 -7.5 $185 $236 forward 7 unknown #
point $-1 -4.330127018922190096 2.5 12.5 #
edge $-1 $142 -17.5 $190 -4.330127018922190096 $135 $108 forward 7 unknown #
vertex $-1 $158 $237 #
straight-curve $-1 17.5 -2.5 10 0 0 -1 I I #
point $-1 17.5 -2.5 7.5 #
point $-1 17.5 -2.5 12.5 #
straight-curve $-1 4.330127018922190096 2.5 0 0 0 1 I I #
point $-1 4.330127018922190096 2.5 12.5 #
face $-1 $213 $238 $2 $-1 $239 reversed single #
cone-surface $-1 0 0 0 0 0 1 5 0 0 1 I I 0 1 5 forward I I I I #
ellipse-curve $-1 0 0 7.5 0 0 1 5 0 0 1 I I #
point $-1 -4.330127018922190096 2.5 7.5 #
loop $-1 $240 $241 $147 #
straight-curve $-1 4.330127018922190096 -2.5 0 -0 0 -1 I I #
point $-1 4.330127018922190096 -2.5 7.5 #
coedge $-1 $242 $163 $243 $244 forward $22 $-1 #
coedge $-1 $245 $246 $163 $205 reversed $247 $-1 #
edge $-1 $209 12.5 $248 40 $204 $249 forward 7 unknown #
coedge $-1 $250 $164 $167 $212 forward $208 $-1 #
coedge $-1 $164 $250 $245 $251 reversed $208 $-1 #
loop $-1 $-1 $250 $234 #
vertex $-1 $251 $252 #
straight-curve $-1 -12.5 6.25 12.5 0 1 0 I I #
coedge $-1 $167 $166 $253 $254 reversed $168 $-1 #
edge $-1 $169 -12.5 $255 12.5 $206 $256 forward 7 unknown #
face $-1 $182 $168 $2 $-1 $257 forward single #
point $-1 -12.5 10 12.5 #
coedge $-1 $171 $258 $259 $260 forward $22 $-1 #
coedge $-1 $261 $262 $171 $217 reversed $263 $-1 #
edge $-1 $264 -7.5 $221 -2.5 $171 $265 forward 7 unknown #
coedge $-1 $266 $172 $262 $267 forward $220 $-1 #
coedge $-1 $172 $266 $174 $224 reversed $220 $-1 #
loop $-1 $-1 $219 $268 #
vertex $-1 $217 $269 #
straight-curve $-1 7.5 6.25 12.5 0 1 0 I I #
coedge $-1 $175 $174 $270 $271 reversed $176 $-1 #
edge $-1 $177 -12.5 $272 12.5 $174 $273 forward 7 unknown #
loop $-1 $-1 $274 $226 #
face $-1 $275 $176 $2 $-1 $276 forward single #
point $-1 7.5 12.5 12.5 #
coedge $-1 $270 $253 $179 $229 forward $277 $-1 #
edge $-1 $232 3.75 $230 6.25 $228 $278 forward 7 unknown #
vertex $-1 $229 $279 #
straight-curve $-1 -7.5 12.5 0 0 -0 1 I I #
vertex $-1 $254 $280 #
straight-curve $-1 -7.5 10 0 0 0 -1 I I #
face $-1 $268 $208 $2 $-1 $281 forward single #
plane-surface $-1 -7.5 12.5 0 -1 0 0 0 0 1 forward_v I I I I #
straight-curve $-1 -4.330127018922190096 2.5 0 0 -0 -1 I I #
point $-1 4.330127018922190096 -2.5 12.5 #
loop $-1 $282 $283 $196 #
cone-surface $-1 0 0 0 0 -1 -3.491481338843129805e-15 2.5 0 0 1 I I 0 1 2.5 forward I I I I #
loop $-1 $284 $285 $147 #
coedge $-1 $241 $241 $286 $287 reversed $200 $-1 #
coedge $-1 $288 $203 $289 $290 forward $22 $-1 #
coedge $-1 $291 $292 $203 $244 reversed $293 $-1 #
edge $-1 $248 -18.75 $294 6.25 $203 $295 forward 7 unknown #
coedge $-1 $296 $204 $207 $251 forward $247 $-1 #
coedge $-1 $204 $297 $291 $298 forward $247 $-1 #
loop $-1 $-1 $297 $299 #
vertex $-1 $205 $300 #
straight-curve $-1 0 25 12.5 -1 0 0 I I #
coedge $-1 $207 $206 $301 $302 reversed $208 $-1 #
edge $-1 $209 -12.5 $303 12.5 $245 $304 forward 7 unknown #
point $-1 -12.5 25 12.5 #
coedge $-1 $228 $301 $211 $254 forward $277 $-1 #
edge $-1 $255 -7.5 $232 -2.5 $253 $305 forward 7 unknown #
vertex $-1 $254 $306 #
straight-curve $-1 -12.5 10 0 0 0 -1 I I #
plane-surface $-1 -10 10 0 0 1 0 0 0 1 forward_v I I I I #
coedge $-1 $215 $307 $308 $309 forward $22 $-1 #
coedge $-1 $310 $311 $215 $260 reversed $312 $-1 #
edge $-1 $313 -18.75 $264 -3.75 $215 $314 forward 7 unknown #
coedge $-1 $315 $216 $311 $316 forward $263 $-1 #
coedge $-1 $216 $315 $218 $267 reversed $263 $-1 #
loop $-1 $-1 $262 $317 #
vertex $-1 $217 $318 #
straight-curve $-1 5 10 12.5 -1 0 0 I I #
coedge $-1 $219 $218 $319 $320 reversed $220 $-1 #
edge $-1 $221 -12.5 $321 12.5 $218 $322 forward 7 unknown #
face $-1 $317 $220 $2 $-1 $323 forward single #
point $-1 7.5 10 12.5 #
coedge $-1 $319 $228 $223 $271 forward $277 $-1 #
edge $-1 $230 -7.5 $272 7.5 $270 $324 forward 7 unknown #
vertex $-1 $271 $325 #
straight-curve $-1 7.5 12.5 0 0 0 -1 I I #
coedge $-1 $274 $274 $283 $326 forward $225 $-1 #
face $-1 $327 $328 $2 $-1 $239 reversed single #
plane-surface $-1 0 12.5 0 0 1 0 0 0 1 forward_v I I I I #
loop $-1 $-1 $228 $329 #
straight-curve $-1 -7.5 6.25 -12.5 0 1 -0 I I #
point $-1 -7.5 12.5 -12.5 #
point $-1 -7.5 10 -12.5 #
plane-surface $-1 -12.5 18.75 0 1 0 0 0 0 -1 forward_v I I I I #
loop $-1 $-1 $330 $196 #
coedge $-1 $283 $283 $274 $326 reversed $238 $-1 #
loop $-1 $-1 $331 $147 #
coedge $-1 $285 $285 $330 $332 reversed $240 $-1 #
coedge $-1 $286 $286 $241 $287 forward $328 $-1 #
edge $-1 $333 0 $333 15.37562208415080001 $286 $334 forward 7 unknown #
coedge $-1 $335 $242 $336 $337 forward $22 $-1 #
coedge $-1 $338 $339 $242 $290 reversed $340 $-1 #
edge $-1 $294 -17.5 $341 -15 $242 $342 forward 7 unknown #
coedge $-1 $343 $243 $246 $298 reversed $293 $-1 #
coedge $-1 $243 $343 $338 $344 reversed $293 $-1 #
loop $-1 $-1 $343 $345 #
vertex $-1 $244 $346 #
straight-curve $-1 -40 6.25 12.5 0 -1 0 I I #
coedge $-1 $347 $245 $348 $349 reversed $247 $-1 #
coedge $-1 $246 $350 $351 $352 forward $247 $-1 #
edge $-1 $353 -0.6249999999999098499 $248 9.375 $246 $354 forward 7 unknown #
face $-1 $345 $247 $2 $-1 $355 reversed single #
point $-1 -40 25 12.5 #
coedge $-1 $253 $348 $250 $302 forward $277 $-1 #
edge $-1 $303 -18.75 $255 -3.75 $301 $356 forward 7 unknown #
vertex $-1 $349 $357 #
straight-curve $-1 -12.5 25 0 0 0 -1 I I #
straight-curve $-1 -5 10 -12.5 1 0 0 I I #
point $-1 -12.5 10 -12.5 #
coedge $-1 $258 $358 $359 $360 forward $22 $-1 #
coedge $-1 $361 $362 $258 $309 reversed $363 $-1 #
edge $-1 $364 -40 $313 -12.5 $308 $249 forward 7 unknown #
coedge $-1 $365 $259 $362 $366 reversed $312 $-1 #
coedge $-1 $259 $365 $261 $316 reversed $312 $-1 #
loop $-1 $-1 $259 $367 #
vertex $-1 $309 $368 #
straight-curve $-1 12.5 6.25 12.5 0 -1 0 I I #
coedge $-1 $262 $261 $369 $370 reversed $263 $-1 #
edge $-1 $264 -12.5 $371 12.5 $311 $372 forward 7 unknown #
face $-1 $226 $263 $2 $-1 $373 forward single #
point $-1 12.5 10 12.5 #
coedge $-1 $369 $270 $266 $320 forward $277 $-1 #
edge $-1 $272 -6.25 $321 -3.75 $319 $374 forward 7 unknown #
vertex $-1 $370 $375 #
straight-curve $-1 7.5 10 0 0 0 -1 I I #
plane-surface $-1 7.5 12.5 0 1 0 0 0 0 -1 forward_v I I I I #
straight-curve $-1 0 12.5 -12.5 1 0 0 I I #
point $-1 7.5 12.5 -12.5 #
edge $-1 $376 -3.141592653589799777 $376 3.141592653589786455 $274 $377 forward 7 unknown #
face $-1 $378 $379 $2 $-1 $380 reversed single #
loop $-1 $381 $286 $275 #
face $-1 $382 $383 $2 $-1 $384 reversed single #
coedge $-1 $330 $330 $285 $332 forward $282 $-1 #
coedge $-1 $331 $331 $385 $386 reversed $284 $-1 #
edge $-1 $387 0 $387 15.37562208415080001 $330 $388 forward 7 unknown #
vertex $-1 $287 $389 #
intcurve-curve $-1 forward { surfintcur full nubs 3 periodic 33 
	0 3 0.4811440011018349727 2 0.9622880022036699454 2 1.443432003305499922 2 1.924576004407339891 2 
	2.404408383564930141 2 2.884240762722510176 2 3.364073141880099982 2 3.843905521037680018 2 4.323737900195269823 2 
	4.803570279352849859 2 5.283402658510439664 2 5.763235037668030358 2 6.244379038769870327 2 6.725523039871710296 2 
	7.206667040973560034 2 7.687811042075400003 2 8.168955043177239972 2 8.650099044279080829 2 9.131243045380930567 2 
	9.612387046482769648 2 10.09221942564029995 2 10.57205180479789952 2 11.05188418395550087 2 11.53171656311310045 2 
	12.01154894227070002 2 12.4913813214282996 2 12.9712137005857997 2 13.45104607974339928 2 13.93219008084530053 2 
	14.41333408194710053 2 14.89447808304900001 2 15.37562208415080001 3 
	2.5 -4.330127018922190096 -1.511855768138730075e-14 
	2.5 -4.330127018922190096 -0.1603813337006269879 
	2.484324272132630185 -4.339298601576789594 -0.3250483228181589856 
	2.419587660941989959 -4.375725652700899637 -0.6504760247244359972 
	2.370553414479069865 -4.40292020019967989 -0.8112488520610540155 
	2.242232321053410082 -4.469633420834360216 -1.118053549866719898 
	2.162843296140700033 -4.50911901986659025 -1.26438313276769998 
	1.980404217889990104 -4.592172099391079954 -1.534455918960480059 
	1.87732826164698996 -4.635661451169750258 -1.658205644285760005 
	1.658504313741030023 -4.718369129321829725 -1.877029592191719942 
	1.5349026132758401 -4.760658410769700311 -1.980062860243769984 
	1.264769252462200066 -4.839437288971780049 -2.162621950865470044 
	1.118229593645009956 -4.875866557168180293 -2.242161966026800179 
	0.810984990363109004 -4.936275466307150417 -2.37066049845748994 
	0.6499871261909649922 -4.960268245560039979 -2.419721681027919846 
	0.3244698334328690037 -4.992140188273480383 -2.484402464407330147 
	0.1599441263858789875 -5 -2.500000000000019984 
	-0.1599441263858439877 -5 -2.500000000000019984 
	-0.324469833432832977 -4.992140188273490153 -2.484402464407339917 
	-0.6499871261909300202 -4.960268245560039979 -2.419721681027919846 
	-0.8109849903630750312 -4.936275466307150417 -2.370660498457500154 
	-1.11822959364497998 -4.875866557168180293 -2.242161966026820163 
	-1.26476925246217009 -4.839437288971789819 -2.162621950865490028 
	-1.534902613275809902 -4.760658410769710081 -1.980062860243789968 
	-1.658504313741010039 -4.718369129321840383 -1.877029592191749918 
	-1.877328261646969976 -4.635661451169760028 -1.658205644285779989 
	-1.980404217889969898 -4.592172099391079954 -1.534455918960500043 
	-2.162843296140689819 -4.50911901986660002 -1.264383132767719964 
	-2.242232321053399868 -4.469633420834360216 -1.118053549866740104 
	-2.370553414479060095 -4.40292020019967989 -0.8112488520610670051 
	-2.419587660941989959 -4.375725652700899637 -0.6504760247244469884 
	-2.484324272132630185 -4.339298601576789594 -0.3250483228181639817 
	-2.5 -4.330127018922190096 -0.1603813337006300133 
	-2.5 -4.330127018922190096 0.1603813337005980111 
	-2.484324272132630185 -4.339298601576789594 0.3250483228181320072 
	-2.419587660941989959 -4.375725652700899637 0.6504760247244140148 
	-2.370553414479060095 -4.40292020019967989 0.8112488520610340315 
	-2.242232321053399868 -4.469633420834360216 1.118053549866699914 
	-2.162843296140689819 -4.50911901986660002 1.264383132767679996 
	-1.98040421788997989 -4.592172099391079954 1.534455918960470067 
	-1.877328261646979968 -4.635661451169760028 1.658205644285740021 
	-1.658504313741010039 -4.718369129321840383 1.87702959219170995 
	-1.534902613275819894 -4.760658410769710081 1.98006286024375 
	-1.264769252462180082 -4.839437288971789819 2.16262195086545006 
	-1.118229593644989972 -4.875866557168180293 2.242161966026780195 
	-0.8109849903630870216 -4.936275466307150417 2.370660498457460186 
	-0.649987126190944009 -4.960268245560039979 2.419721681027890092 
	-0.3244698334328490197 -4.992140188273490153 2.484402464407299949 
	-0.1599441263858610018 -5 2.499999999999980016 
	0.1599441263858610018 -5 2.499999999999980016 
	0.3244698334328500189 -4.992140188273490153 2.484402464407299949 
	0.649987126190944009 -4.960268245560039979 2.419721681027890092 
	0.8109849903630870216 -4.936275466307150417 2.370660498457460186 
	1.118229593644989972 -4.875866557168180293 2.242161966026780195 
	1.264769252462180082 -4.839437288971789819 2.16262195086545006 
	1.534902613275819894 -4.760658410769710081 1.98006286024375 
	1.658504313741010039 -4.718369129321840383 1.87702959219170995 
	1.877328261646979968 -4.635661451169760028 1.658205644285740021 
	1.98040421788997989 -4.592172099391079954 1.534455918960470067 
	2.162843296140689819 -4.50911901986660002 1.264383132767679996 
	2.242232321053399868 -4.469633420834360216 1.118053549866699914 
	2.370553414479060095 -4.40292020019967989 0.8112488520610340315 
	2.419587660941989959 -4.375725652700899637 0.6504760247244140148 
	2.484324272132630185 -4.339298601576789594 0.3250483228181330064 
	2.5 -4.330127018922190096 0.1603813337005990103 
	2.5 -4.330127018922190096 -1.511855768138730075e-14 
	0.001000000000000000021 
	cone 0 0 0 0 -1 -3.491481338843129805e-15 2.5 0 0 1 I I -0 -1 2.5 forward I I I I 
	cone 0 0 0 0 0 1 5 0 0 1 I I -0 -1 5 forward I I I I 
	nullbs 
	nullbs 
	I I 
	0 
	0 
	0 
	} I I #
coedge $-1 $390 $288 $391 $392 forward $22 $-1 #
coedge $-1 $393 $394 $288 $337 reversed $395 $-1 #
edge $-1 $341 -0.785398163397448279 $396 0.785398163397448279 $288 $397 forward 7 unknown #
coedge $-1 $398 $289 $292 $344 forward $340 $-1 #
coedge $-1 $289 $398 $393 $399 reversed $340 $-1 #
loop $-1 $-1 $398 $400 #
vertex $-1 $290 $401 #
straight-curve $-1 -22.5 0 12.5 1 0 -0 I I #
coedge $-1 $292 $291 $402 $403 forward $293 $-1 #
edge $-1 $294 -9.375 $404 0.625 $338 $405 forward 7 unknown #
face $-1 $400 $293 $2 $-1 $406 forward single #
point $-1 -40 0 12.5 #
coedge $-1 $407 $296 $408 $409 reversed $247 $-1 #
coedge $-1 $301 $410 $296 $349 forward $277 $-1 #
edge $-1 $411 -62.5 $303 -12.5 $296 $412 forward 7 unknown #
coedge $-1 $297 $413 $414 $415 forward $247 $-1 #
coedge $-1 $414 $402 $297 $352 reversed $379 $-1 #
edge $-1 $416 0 $353 1.570796326794896558 $297 $417 forward 7 unknown #
vertex $-1 $352 $418 #
straight-curve $-1 -40 25 3.125 0 0 1 I I #
plane-surface $-1 0 25 0 0 -1 0 0 0 -1 forward_v I I I I #
straight-curve $-1 -12.5 6.25 -12.5 0 -1 0 I I #
point $-1 -12.5 25 -12.5 #
coedge $-1 $307 $419 $420 $421 forward $22 $-1 #
coedge $-1 $422 $423 $307 $360 reversed $424 $-1 #
edge $-1 $425 -6.25 $364 18.75 $307 $426 forward 7 unknown #
coedge $-1 $427 $308 $423 $428 forward $363 $-1 #
coedge $-1 $308 $429 $310 $366 forward $363 $-1 #
loop $-1 $-1 $427 $430 #
vertex $-1 $428 $431 #
coedge $-1 $311 $310 $432 $433 reversed $312 $-1 #
edge $-1 $434 -12.5 $313 12.5 $362 $435 forward 7 unknown #
face $-1 $299 $312 $2 $-1 $436 forward single #
point $-1 12.5 25 12.5 #
coedge $-1 $432 $319 $315 $370 forward $277 $-1 #
edge $-1 $321 2.5 $371 7.5 $369 $437 forward 7 unknown #
vertex $-1 $370 $438 #
straight-curve $-1 12.5 10 0 0 0 -1 I I #
plane-surface $-1 10 10 0 0 1 0 0 0 1 forward_v I I I I #
straight-curve $-1 7.5 6.25 -12.5 0 -1 0 I I #
point $-1 7.5 10 -12.5 #
vertex $-1 $326 $439 #
ellipse-curve $-1 0 12.5 4.36435167355391985e-14 -0 -1 -0 2.5 0 0 1 I I #
face $-1 $440 $441 $2 $-1 $442 forward single #
loop $-1 $-1 $402 $327 #
cone-surface $-1 -40 0 0 0 -1 -3.491481338843129805e-15 2.5 0 0 1 I I 0 1 2.5 forward I I I I #
loop $-1 $-1 $443 $275 #
face $-1 $-1 $444 $2 $-1 $445 reversed single #
loop $-1 $277 $385 $329 #
plane-surface $-1 0 0 -12.5 0 0 1 1 0 0 forward_v I I I I #
coedge $-1 $385 $385 $331 $386 forward $383 $-1 #
edge $-1 $446 0 $446 6.283185307179586232 $385 $447 forward 7 unknown #
vertex $-1 $332 $448 #
intcurve-curve $-1 forward { surfintcur full nubs 3 periodic 33 
	0 3 0.4811440011018420226 2 0.9622880022036840453 2 1.443432003305529898 2 1.924576004407370089 2 
	2.404408383564950125 2 2.88424076272253016 2 3.364073141880119966 2 3.843905521037700002 2 4.323737900195279593 2 
	4.803570279352870287 2 5.283402658510450323 2 5.763235037668040128 2 6.244379038769880097 2 6.725523039871720066 2 
	7.206667040973560034 2 7.687811042075400003 2 8.16895504317725063 2 8.650099044279089711 2 9.131243045380930567 2 
	9.612387046482780306 2 10.09221942564039942 2 10.57205180479789952 2 11.05188418395550087 2 11.53171656311310045 2 
	12.01154894227070002 2 12.4913813214282996 2 12.97121370058589918 2 13.45104607974350053 2 13.93219008084530053 2 
	14.41333408194710053 2 14.89447808304900001 2 15.37562208415080001 3 
	2.5 4.330127018922190096 1.511855768138730075e-14 
	2.5 4.330127018922190096 0.1603813337006289863 
	2.484324272132630185 4.339298601576789594 0.3250483228181629825 
	2.419587660941989959 4.375725652700899637 0.65047602472444499 
	2.370553414479060095 4.40292020019967989 0.8112488520610640075 
	2.242232321053399868 4.469633420834360216 1.11805354986672989 
	2.162843296140689819 4.50911901986660002 1.264383132767709972 
	1.98040421788997989 4.592172099391079954 1.534455918960500043 
	1.877328261646979968 4.635661451169760028 1.658205644285779989 
	1.658504313741010039 4.718369129321840383 1.877029592191739926 
	1.534902613275819894 4.760658410769710081 1.980062860243779976 
	1.264769252462180082 4.839437288971789819 2.162621950865479814 
	1.118229593644989972 4.875866557168180293 2.242161966026809949 
	0.8109849903630880208 4.936275466307150417 2.37066049845748994 
	0.6499871261909450082 4.960268245560039979 2.419721681027919846 
	0.3244698334328500189 4.992140188273490153 2.484402464407339917 
	0.1599441263858610018 5 2.500000000000019984 
	-0.1599441263858610018 5 2.500000000000019984 
	-0.3244698334328490197 4.992140188273490153 2.484402464407339917 
	-0.649987126190944009 4.960268245560039979 2.419721681027919846 
	-0.8109849903630880208 4.936275466307150417 2.37066049845748994 
	-1.118229593644989972 4.875866557168180293 2.242161966026809949 
	-1.264769252462180082 4.839437288971789819 2.162621950865479814 
	-1.534902613275819894 4.760658410769710081 1.980062860243779976 
	-1.658504313741010039 4.718369129321840383 1.877029592191739926 
	-1.877328261646979968 4.635661451169760028 1.658205644285779989 
	-1.98040421788997989 4.592172099391079954 1.534455918960500043 
	-2.162843296140689819 4.50911901986660002 1.264383132767709972 
	-2.242232321053399868 4.469633420834360216 1.11805354986672989 
	-2.370553414479060095 4.40292020019967989 0.8112488520610640075 
	-2.419587660941989959 4.375725652700899637 0.65047602472444499 
	-2.484324272132630185 4.339298601576789594 0.3250483228181629825 
	-2.5 4.330127018922190096 0.1603813337006289863 
	-2.5 4.330127018922190096 -0.1603813337005990103 
	-2.484324272132630185 4.339298601576789594 -0.3250483228181340056 
	-2.419587660941989959 4.375725652700899637 -0.6504760247244160132 
	-2.370553414479060095 4.40292020019967989 -0.8112488520610360299 
	-2.242232321053399868 4.469633420834360216 -1.118053549866709906 
	-2.162843296140689819 4.50911901986660002 -1.264383132767689988 
	-1.980404217889969898 4.592172099391079954 -1.534455918960470067 
	-1.877328261646969976 4.635661451169760028 -1.658205644285750013 
	-1.658504313741010039 4.718369129321840383 -1.87702959219170995 
	-1.534902613275809902 4.760658410769710081 -1.980062860243759992 
	-1.26476925246217009 4.839437288971789819 -2.16262195086545006 
	-1.11822959364497998 4.875866557168180293 -2.242161966026780195 
	-0.8109849903630750312 4.936275466307150417 -2.370660498457460186 
	-0.6499871261909300202 4.960268245560039979 -2.419721681027890092 
	-0.324469833432832977 4.992140188273490153 -2.484402464407299949 
	-0.1599441263858449869 5 -2.499999999999980016 
	0.1599441263858789875 5 -2.499999999999980016 
	0.3244698334328680045 4.992140188273490153 -2.484402464407299949 
	0.649987126190963993 4.960268245560039979 -2.419721681027879878 
	0.8109849903631080048 4.936275466307150417 -2.370660498457449972 
	1.118229593645009956 4.875866557168180293 -2.242161966026769981 
	1.264769252462200066 4.839437288971780049 -2.162621950865430076 
	1.5349026132758401 4.760658410769700311 -1.980062860243730016 
	1.658504313741030023 4.718369129321829725 -1.877029592191689966 
	1.87732826164698996 4.635661451169750258 -1.658205644285730029 
	1.980404217889990104 4.592172099391079954 -1.534455918960450083 
	2.162843296140700033 4.50911901986659025 -1.264383132767670004 
	2.242232321053410082 4.469633420834360216 -1.118053549866689922 
	2.370553414479069865 4.40292020019967989 -0.8112488520610230402 
	2.419587660941989959 4.375725652700899637 -0.6504760247244040228 
	2.484324272132630185 4.339298601576789594 -0.3250483228181280104 
	2.5 4.330127018922190096 -0.1603813337005960127 
	2.5 4.330127018922190096 1.511855768138730075e-14 
	0.001000000000000000021 
	cone 0 0 0 0 -1 -3.491481338843129805e-15 2.5 0 0 1 I I -0 -1 2.5 forward I I I I 
	cone 0 0 0 0 0 1 5 0 0 1 I I -0 -1 5 forward I I I I 
	nullbs 
	nullbs 
	I I 
	0 
	0 
	0 
	} I I #
point $-1 2.5 -4.330127018922190096 -1.511855768138730075e-14 #
coedge $-1 $449 $335 $450 $451 forward $22 $-1 #
coedge $-1 $452 $453 $335 $392 reversed $454 $-1 #
edge $-1 $396 3.75 $455 18.75 $335 $456 forward 7 unknown #
coedge $-1 $457 $336 $339 $399 forward $395 $-1 #
coedge $-1 $336 $458 $452 $459 forward $395 $-1 #
loop $-1 $-1 $394 $460 #
vertex $-1 $392 $461 #
ellipse-curve $-1 -37.5 -10 12.5 -0 -0 -1 7.071067811865470176 7.071067811865470176 0 1 I I #
coedge $-1 $339 $338 $462 $463 forward $340 $-1 #
edge $-1 $341 -12.5 $464 0 $339 $465 forward 7 unknown #
face $-1 $466 $340 $2 $-1 $442 forward single #
point $-1 -37.5 0 12.5 #
coedge $-1 $351 $462 $343 $403 reversed $379 $-1 #
edge $-1 $353 -25.00000000000000711 $404 -8.475965199624620172e-15 $343 $467 forward 7 unknown #
vertex $-1 $344 $468 #
straight-curve $-1 -40 0 3.125 -0 -0 -1 I I #
plane-surface $-1 -40 12.5 6.25 -1 0 0 0 0 1 forward_v I I I I #
coedge $-1 $469 $347 $470 $471 reversed $247 $-1 #
coedge $-1 $472 $473 $347 $409 forward $444 $-1 #
edge $-1 $474 -12.5 $411 12.5 $347 $475 forward 7 unknown #
coedge $-1 $348 $476 $472 $477 forward $277 $-1 #
vertex $-1 $349 $478 #
straight-curve $-1 0 25 -12.5 1 0 0 I I #
coedge $-1 $350 $479 $480 $481 forward $247 $-1 #
coedge $-1 $482 $351 $350 $415 reversed $379 $-1 #
edge $-1 $483 -3.141592653589758477 $416 0 $350 $417 forward 7 unknown #
vertex $-1 $415 $484 #
ellipse-curve $-1 -40 25 8.728703347107829602e-14 0 -1 0 2.5 0 0 1 I I #
point $-1 -40 25 2.50000000000009015 #
coedge $-1 $358 $485 $486 $487 forward $22 $-1 #
coedge $-1 $488 $489 $358 $421 reversed $490 $-1 #
edge $-1 $491 15 $425 17.5 $358 $492 forward 7 unknown #
coedge $-1 $493 $359 $489 $494 reversed $424 $-1 #
coedge $-1 $359 $493 $361 $428 reversed $424 $-1 #
loop $-1 $-1 $493 $495 #
vertex $-1 $421 $496 #
straight-curve $-1 40 6.25 12.5 0 1 0 I I #
coedge $-1 $497 $361 $498 $499 forward $363 $-1 #
edge $-1 $364 -9.375 $500 0.6249999999999098499 $361 $501 forward 7 unknown #
coedge $-1 $362 $502 $503 $504 reversed $363 $-1 #
face $-1 $505 $363 $2 $-1 $355 reversed single #
point $-1 40 25 12.5 #
coedge $-1 $503 $369 $365 $433 forward $277 $-1 #
edge $-1 $371 3.75 $434 18.75 $432 $506 forward 7 unknown #
vertex $-1 $433 $507 #
straight-curve $-1 12.5 25 0 0 0 1 I I #
plane-surface $-1 12.5 18.75 0 -1 0 0 0 0 1 forward_v I I I I #
straight-curve $-1 5 10 -12.5 1 0 0 I I #
point $-1 12.5 10 -12.5 #
point $-1 -2.5 12.5 6.110092342975480216e-14 #
face $-1 $508 $509 $2 $-1 $510 forward single #
loop $-1 $-1 $511 $378 #
plane-surface $-1 -45 0 0 0 -1 0 0 0 -1 forward_v I I I I #
coedge $-1 $443 $443 $512 $513 reversed $381 $-1 #
loop $-1 $-1 $514 $382 #
plane-surface $-1 -62.5 0 0 1 0 0 0 0 -1 forward_v I I I I #
vertex $-1 $386 $515 #
ellipse-curve $-1 0 0 -12.5 0 0 1 5 0 0 1 I I #
point $-1 2.5 4.330127018922190096 1.511855768138730075e-14 #
coedge $-1 $516 $390 $517 $518 forward $22 $-1 #
coedge $-1 $519 $520 $390 $451 reversed $521 $-1 #
edge $-1 $455 -27.5 $522 -20 $450 $523 forward 7 unknown #
coedge $-1 $524 $391 $394 $459 reversed $454 $-1 #
coedge $-1 $391 $524 $519 $525 reversed $454 $-1 #
loop $-1 $-1 $452 $526 #
vertex $-1 $525 $527 #
straight-curve $-1 -27.5 -6.25 12.5 0 -1 0 I I #
coedge $-1 $458 $393 $528 $529 forward $395 $-1 #
coedge $-1 $394 $457 $530 $531 reversed $395 $-1 #
edge $-1 $532 -12.5 $396 12.5 $452 $533 forward 7 unknown #
face $-1 $526 $395 $2 $-1 $534 forward single #
point $-1 -27.5 -10 12.5 #
coedge $-1 $402 $535 $398 $463 reversed $379 $-1 #
edge $-1 $404 -1.570796326794896558 $464 0 $398 $536 forward 7 unknown #
vertex $-1 $399 $537 #
straight-curve $-1 -37.5 0 0 0 0 -1 I I #
face $-1 $538 $539 $2 $-1 $13 forward single #
straight-curve $-1 -40 -8.475965199624620172e-15 2.5 0 -1 -3.491481338843129805e-15 I I #
point $-1 -40 0 2.5 #
coedge $-1 $479 $407 $540 $541 forward $247 $-1 #
coedge $-1 $542 $543 $407 $471 forward $539 $-1 #
edge $-1 $544 55 $474 62.5 $407 $249 forward 7 unknown #
coedge $-1 $514 $408 $410 $477 reversed $444 $-1 #
coedge $-1 $408 $514 $542 $545 reversed $444 $-1 #
vertex $-1 $471 $546 #
straight-curve $-1 -62.5 25 0 0 0 -1 I I #
coedge $-1 $410 $530 $547 $548 forward $277 $-1 #
edge $-1 $549 0 $411 25 $472 $550 forward 7 unknown #
point $-1 -62.5 25 -12.5 #
coedge $-1 $413 $469 $551 $552 forward $247 $-1 #
coedge $-1 $553 $554 $413 $481 reversed $509 $-1 #
edge $-1 $555 -28.75 $483 -18.75 $413 $556 forward 7 unknown #
coedge $-1 $535 $414 $554 $557 reversed $379 $-1 #
vertex $-1 $481 $558 #
point $-1 -37.5 25 8.728703347107829602e-14 #
coedge $-1 $419 $559 $560 $561 forward $22 $-1 #
coedge $-1 $562 $563 $419 $487 reversed $564 $-1 #
edge $-1 $565 -0.785398163397448279 $491 0.785398163397448279 $419 $566 forward 7 unknown #
coedge $-1 $567 $420 $563 $568 reversed $490 $-1 #
coedge $-1 $420 $567 $422 $494 forward $490 $-1 #
loop $-1 $-1 $567 $569 #
vertex $-1 $421 $570 #
straight-curve $-1 22.5 0 12.5 1 0 -0 I I #
coedge $-1 $423 $422 $571 $572 forward $424 $-1 #
edge $-1 $573 -0.625 $425 9.375 $489 $574 forward 7 unknown #
face $-1 $575 $424 $2 $-1 $576 forward single #
point $-1 40 0 12.5 #
coedge $-1 $577 $427 $578 $579 forward $363 $-1 #
coedge $-1 $571 $580 $427 $499 reversed $581 $-1 #
edge $-1 $500 1.570796326794896558 $582 6.283185307179586232 $427 $583 forward 7 unknown #
vertex $-1 $428 $584 #
straight-curve $-1 40 25 3.125 0 0 -1 I I #
coedge $-1 $429 $585 $586 $587 forward $363 $-1 #
coedge $-1 $588 $432 $429 $504 forward $277 $-1 #
edge $-1 $434 12.5 $589 62.5 $429 $412 forward 7 unknown #
face $-1 $590 $591 $2 $-1 $592 forward single #
straight-curve $-1 12.5 6.25 -12.5 0 1 -0 I I #
point $-1 12.5 25 -12.5 #
face $-1 $569 $581 $2 $-1 $593 reversed single #
loop $-1 $-1 $554 $440 #
plane-surface $-1 -47.5 12.5 0 0 0 1 1 0 0 forward_v I I I I #
coedge $-1 $594 $528 $535 $595 forward $441 $-1 #
coedge $-1 $512 $512 $443 $513 forward $596 $-1 #
edge $-1 $597 -3.141592653589799777 $597 3.141592653589786455 $512 $598 forward 7 unknown #
coedge $-1 $473 $472 $599 $600 forward $444 $-1 #
point $-1 5 0 -12.5 #
coedge $-1 $601 $449 $602 $603 forward $22 $-1 #
coedge $-1 $604 $605 $449 $518 reversed $606 $-1 #
edge $-1 $522 -15.625 $607 -8.125 $449 $608 forward 7 unknown #
coedge $-1 $609 $450 $453 $525 forward $521 $-1 #
coedge $-1 $450 $610 $604 $611 forward $521 $-1 #
loop $-1 $-1 $520 $612 #
vertex $-1 $451 $613 #
straight-curve $-1 0 -25 12.5 1 0 0 I I #
coedge $-1 $453 $452 $614 $615 reversed $454 $-1 #
edge $-1 $455 -12.5 $616 12.5 $519 $617 forward 7 unknown #
face $-1 $618 $454 $2 $-1 $619 forward single #
point $-1 -27.5 -25 12.5 #
coedge $-1 $511 $547 $457 $529 reversed $441 $-1 #
edge $-1 $464 0 $620 12.5 $528 $465 forward 7 unknown #
coedge $-1 $476 $614 $458 $531 forward $277 $-1 #
edge $-1 $532 -0.785398163397448279 $620 0.785398163397448279 $530 $621 forward 7 unknown #
vertex $-1 $615 $622 #
straight-curve $-1 -27.5 -10 0 0 0 1 I I #
cone-surface $-1 -37.5 -10 0 -0 -0 -1 7.071067811865470176 7.071067811865470176 0 1 I I 0 -1 9.999999999999992895 forward I I I I #
coedge $-1 $462 $482 $511 $595 reversed $379 $-1 #
ellipse-curve $-1 -40 0 0 -0 1 -0 2.5 0 0 1 I I #
point $-1 -37.5 0 0 #
face $-1 $623 $624 $2 $-1 $625 forward single #
loop $-1 $-1 $543 $466 #
coedge $-1 $626 $627 $469 $541 reversed $628 $-1 #
edge $-1 $544 -9.375 $629 0.6249999999999098499 $469 $630 forward 7 unknown #
coedge $-1 $631 $470 $473 $545 forward $539 $-1 #
coedge $-1 $470 $631 $626 $632 forward $539 $-1 #
vertex $-1 $541 $633 #
edge $-1 $474 -25 $634 0 $473 $635 forward 7 unknown #
point $-1 -62.5 25 12.5 #
coedge $-1 $528 $599 $476 $548 reversed $441 $-1 #
edge $-1 $620 15 $549 40 $476 $636 forward 7 unknown #
vertex $-1 $548 $637 #
straight-curve $-1 -62.5 0 -12.5 0 1 0 I I #
coedge $-1 $638 $639 $479 $552 reversed $640 $-1 #
edge $-1 $629 1.570796326794896558 $555 6.283185307179586232 $479 $641 forward 7 unknown #
coedge $-1 $642 $480 $639 $643 forward $509 $-1 #
coedge $-1 $480 $642 $482 $557 forward $509 $-1 #
vertex $-1 $552 $644 #
straight-curve $-1 -23.75 25 0 1 0 -0 I I #
edge $-1 $645 7.619026212181150377e-29 $483 25 $554 $646 forward 7 unknown #
point $-1 -42.5 25 0 #
coedge $-1 $485 $647 $648 $649 forward $22 $-1 #
coedge $-1 $650 $651 $485 $561 reversed $652 $-1 #
edge $-1 $653 -18.75 $565 -3.75 $485 $654 forward 7 unknown #
coedge $-1 $655 $486 $651 $656 forward $564 $-1 #
coedge $-1 $486 $657 $488 $568 forward $564 $-1 #
loop $-1 $-1 $657 $658 #
vertex $-1 $561 $659 #
ellipse-curve $-1 37.5 -10 12.5 -0 -0 -1 -7.071067811865470176 7.071067811865470176 0 1 I I #
coedge $-1 $489 $488 $660 $661 forward $490 $-1 #
edge $-1 $662 0 $491 12.5 $488 $663 forward 7 unknown #
face $-1 $495 $490 $2 $-1 $664 forward single #
point $-1 37.5 0 12.5 #
coedge $-1 $660 $498 $493 $572 reversed $581 $-1 #
edge $-1 $573 8.475965199624620172e-15 $500 25.00000000000000711 $493 $665 forward 7 unknown #
vertex $-1 $572 $666 #
straight-curve $-1 40 0 3.125 -0 0 1 I I #
face $-1 $667 $640 $2 $-1 $668 reversed single #
plane-surface $-1 40 12.5 6.25 1 0 0 0 0 -1 forward_v I I I I #
coedge $-1 $669 $497 $670 $671 forward $363 $-1 #
coedge $-1 $672 $673 $497 $579 reversed $624 $-1 #
edge $-1 $582 18.75 $674 28.75 $497 $675 forward 7 unknown #
coedge $-1 $498 $676 $672 $677 reversed $581 $-1 #
loop $-1 $-1 $580 $508 #
vertex $-1 $499 $678 #
ellipse-curve $-1 40 25 8.728703347107829602e-14 0 -1 0 2.5 0 0 1 I I #
point $-1 40 25 2.50000000000009015 #
coedge $-1 $502 $679 $680 $681 reversed $363 $-1 #
coedge $-1 $682 $683 $502 $587 reversed $684 $-1 #
edge $-1 $685 -12.5 $589 12.5 $586 $686 forward 7 unknown #
coedge $-1 $687 $503 $683 $688 forward $277 $-1 #
vertex $-1 $688 $689 #
face $-1 $690 $691 $2 $-1 $692 forward single #
loop $-1 $-1 $693 $505 #
cone-surface $-1 15 -17.5 3.75 -0 -0 -1 3.535533905932739973 3.535533905932739973 0 1 I I 0 -1 5.000000000000003553 forward I I I I #
cone-surface $-1 40 0 0 0 -1 -3.491481338843129805e-15 2.5 0 0 1 I I 0 1 2.5 forward I I I I #
coedge $-1 $694 $511 $642 $695 forward $441 $-1 #
edge $-1 $464 0 $645 3.141592653589793116 $511 $536 forward 7 unknown #
loop $-1 $696 $512 $690 #
vertex $-1 $513 $697 #
ellipse-curve $-1 0 -12.5 -4.364351673553909752e-14 -0 1 -0 2.5 0 0 1 I I #
coedge $-1 $547 $698 $514 $600 reversed $441 $-1 #
edge $-1 $549 -12.5 $634 12.5 $514 $699 forward 7 unknown #
coedge $-1 $700 $516 $701 $702 forward $22 $-1 #
coedge $-1 $703 $704 $516 $603 reversed $705 $-1 #
edge $-1 $607 -0.785398163397448279 $706 0.785398163397448279 $516 $707 forward 7 unknown #
coedge $-1 $708 $517 $520 $611 reversed $606 $-1 #
coedge $-1 $517 $708 $703 $709 reversed $606 $-1 #
loop $-1 $-1 $605 $710 #
vertex $-1 $518 $711 #
straight-curve $-1 -20 -9.375 12.5 0 1 0 I I #
coedge $-1 $712 $519 $713 $714 reversed $521 $-1 #
coedge $-1 $520 $715 $716 $717 forward $521 $-1 #
edge $-1 $718 -6.875 $522 10.625 $520 $719 forward 7 unknown #
face $-1 $720 $521 $2 $-1 $721 reversed single #
point $-1 -20 -25 12.5 #
coedge $-1 $530 $713 $524 $615 forward $277 $-1 #
edge $-1 $616 -18.75 $532 -3.75 $614 $722 forward 7 unknown #
vertex $-1 $714 $723 #
straight-curve $-1 -27.5 -25 0 -0 0 -1 I I #
face $-1 $612 $724 $2 $-1 $13 forward single #
plane-surface $-1 -27.5 -12.5 0 -1 0 0 0 0 1 forward_v I I I I #
vertex $-1 $548 $725 #
ellipse-curve $-1 -37.5 -10 -12.5 0 0 1 7.071067811865470176 7.071067811865470176 0 1 I I #
point $-1 -27.5 -10 -12.5 #
face $-1 $726 $727 $2 $-1 $728 forward single #
loop $-1 $-1 $672 $538 #
plane-surface $-1 47.5 12.5 0 0 0 1 1 0 0 forward_v I I I I #
coedge $-1 $729 $540 $543 $632 reversed $628 $-1 #
coedge $-1 $540 $729 $638 $730 forward $628 $-1 #
loop $-1 $-1 $627 $667 #
vertex $-1 $541 $731 #
straight-curve $-1 -55 25 3.125 0 0 -1 I I #
coedge $-1 $543 $542 $698 $732 forward $539 $-1 #
edge $-1 $733 -6.25 $544 18.75 $543 $734 forward 7 unknown #
point $-1 -55 25 12.5 #
vertex $-1 $545 $735 #
straight-curve $-1 -62.5 0 12.5 0 -1 0 I I #
straight-curve $-1 -22.5 0 -12.5 -1 0 0 I I #
point $-1 -62.5 0 -12.5 #
coedge $-1 $736 $551 $627 $730 reversed $640 $-1 #
coedge $-1 $551 $736 $553 $643 reversed $640 $-1 #
loop $-1 $-1 $639 $575 #
ellipse-curve $-1 -55 25 8.728703347107829602e-14 0 -1 0 2.5 0 0 1 I I #
coedge $-1 $554 $553 $594 $695 reversed $509 $-1 #
edge $-1 $555 -25 $737 -7.619026212181150377e-29 $553 $738 forward 7 unknown #
point $-1 -52.5 25 8.728703347107829602e-14 #
vertex $-1 $557 $739 #
straight-curve $-1 -42.5 -7.619026212181150377e-29 0 -0 1 3.491481338843129805e-15 I I #
coedge $-1 $559 $700 $740 $741 forward $22 $-1 #
coedge $-1 $715 $712 $559 $649 reversed $521 $-1 #
edge $-1 $742 20 $653 27.5 $648 $523 forward 7 unknown #
coedge $-1 $743 $560 $712 $744 reversed $652 $-1 #
coedge $-1 $560 $743 $562 $656 reversed $652 $-1 #
loop $-1 $-1 $651 $745 #
vertex $-1 $649 $746 #
straight-curve $-1 27.5 -6.25 12.5 0 1 0 I I #
coedge $-1 $657 $562 $747 $748 reversed $564 $-1 #
edge $-1 $565 -12.5 $749 12.5 $651 $750 forward 7 unknown #
coedge $-1 $563 $655 $751 $752 forward $564 $-1 #
face $-1 $745 $564 $2 $-1 $753 forward single #
point $-1 27.5 -10 12.5 #
coedge $-1 $676 $571 $567 $661 reversed $581 $-1 #
edge $-1 $662 -3.141592653589793116 $573 -1.570796326794896558 $567 $754 forward 7 unknown #
vertex $-1 $752 $755 #
straight-curve $-1 37.5 0 0 0 0 1 I I #
plane-surface $-1 45 0 0 0 -1 0 0 0 -1 forward_v I I I I #
straight-curve $-1 40 -8.475965199624620172e-15 2.5 -0 1 3.491481338843129805e-15 I I #
point $-1 40 0 2.5 #
face $-1 $756 $628 $2 $-1 $757 forward single #
cone-surface $-1 -55 0 0 0 -1 -3.491481338843129805e-15 2.5 0 0 1 I I 0 1 2.5 forward I I I I #
coedge $-1 $679 $577 $758 $759 forward $363 $-1 #
coedge $-1 $760 $758 $577 $671 reversed $761 $-1 #
edge $-1 $674 -3.141592653589758477 $762 0 $577 $763 forward 7 unknown #
coedge $-1 $764 $578 $580 $677 forward $624 $-1 #
coedge $-1 $578 $764 $760 $765 forward $624 $-1 #
vertex $-1 $579 $766 #
straight-curve $-1 23.75 25 0 1 0 -0 I I #
coedge $-1 $580 $660 $767 $768 reversed $581 $-1 #
edge $-1 $582 -25 $769 -7.619026212181150377e-29 $672 $770 forward 7 unknown #
point $-1 42.5 25 8.728703347107829602e-14 #
coedge $-1 $585 $669 $771 $772 forward $363 $-1 #
coedge $-1 $773 $774 $585 $681 forward $724 $-1 #
edge $-1 $685 -62.5 $775 -55 $585 $249 forward 7 unknown #
coedge $-1 $776 $586 $774 $777 reversed $684 $-1 #
coedge $-1 $586 $776 $588 $688 reversed $684 $-1 #
loop $-1 $-1 $776 $720 #
vertex $-1 $777 $778 #
straight-curve $-1 62.5 25 0 0 0 -1 I I #
coedge $-1 $747 $588 $779 $780 forward $277 $-1 #
edge $-1 $589 -25 $781 0 $683 $782 forward 7 unknown #
point $-1 62.5 25 -12.5 #
face $-1 $783 $596 $2 $-1 $784 forward single #
loop $-1 $-1 $785 $590 #
plane-surface $-1 0 -18.75 -5 0 0 1 1 0 0 forward_v I I I I #
coedge $-1 $786 $787 $788 $789 forward $591 $-1 #
coedge $-1 $790 $594 $736 $791 forward $441 $-1 #
edge $-1 $645 -3.75 $737 6.25 $594 $792 forward 7 unknown #
loop $-1 $-1 $793 $690 #
point $-1 -2.5 -12.5 -6.110092342975480216e-14 #
coedge $-1 $599 $790 $631 $732 reversed $441 $-1 #
straight-curve $-1 -62.5 0 0 -0 0 1 I I #
coedge $-1 $647 $601 $786 $794 forward $22 $-1 #
coedge $-1 $795 $793 $601 $702 reversed $696 $-1 #
edge $-1 $706 -15 $796 15 $601 $797 forward 7 unknown #
coedge $-1 $798 $602 $605 $709 forward $705 $-1 #
coedge $-1 $602 $798 $795 $799 forward $705 $-1 #
loop $-1 $-1 $704 $783 #
vertex $-1 $702 $800 #
ellipse-curve $-1 -15 -17.5 12.5 -0 -0 -1 -3.535533905932739973 3.535533905932739973 0 1 I I #
coedge $-1 $605 $604 $801 $802 forward $606 $-1 #
edge $-1 $607 -8.75 $803 8.75 $605 $804 forward 7 unknown #
face $-1 $805 $606 $2 $-1 $806 forward single #
point $-1 -20 -17.5 12.5 #
coedge $-1 $648 $609 $650 $744 forward $521 $-1 #
coedge $-1 $614 $807 $609 $714 forward $277 $-1 #
edge $-1 $808 -27.5 $616 27.5 $609 $809 forward 7 unknown #
coedge $-1 $610 $648 $810 $811 forward $521 $-1 #
coedge $-1 $812 $801 $610 $717 reversed $691 $-1 #
edge $-1 $813 -20 $718 20 $610 $814 forward 7 unknown #
vertex $-1 $717 $815 #
straight-curve $-1 -20 -25 1.875 -0 0 1 I I #
face $-1 $329 $684 $2 $-1 $816 reversed single #
plane-surface $-1 0 -25 0 0 1 -0 -0 0 1 forward_v I I I I #
straight-curve $-1 -27.5 -6.25 -12.5 0 1 -0 I I #
point $-1 -27.5 -25 -12.5 #
loop $-1 $-1 $773 $618 #
point $-1 -37.5 0 -12.5 #
face $-1 $658 $817 $2 $-1 $664 forward single #
loop $-1 $-1 $818 $623 #
plane-surface $-1 55 12.5 6.25 -1 0 0 0 0 1 forward_v I I I I #
coedge $-1 $627 $626 $790 $819 reversed $628 $-1 #
edge $-1 $820 8.475965199624620172e-15 $629 25.00000000000000711 $627 $821 forward 7 unknown #
point $-1 -55 25 2.50000000000009015 #
edge $-1 $634 -40 $733 -32.5 $631 $342 forward 7 unknown #
vertex $-1 $732 $822 #
straight-curve $-1 -55 6.25 12.5 0 1 0 I I #
point $-1 -62.5 0 12.5 #
coedge $-1 $639 $638 $694 $791 reversed $640 $-1 #
vertex $-1 $695 $823 #
straight-curve $-1 -52.5 -7.619026212181150377e-29 0 0 -1 -3.491481338843129805e-15 I I #
point $-1 -42.5 0 0 #
coedge $-1 $788 $810 $647 $741 reversed $824 $-1 #
edge $-1 $825 8.125 $742 15.625 $647 $826 forward 7 unknown #
vertex $-1 $811 $827 #
coedge $-1 $651 $650 $807 $828 reversed $652 $-1 #
edge $-1 $808 -12.5 $653 12.5 $712 $829 forward 7 unknown #
face $-1 $460 $652 $2 $-1 $830 forward single #
point $-1 27.5 -25 12.5 #
coedge $-1 $807 $687 $655 $748 forward $277 $-1 #
edge $-1 $831 -0.785398163397448279 $749 0.785398163397448279 $747 $832 forward 7 unknown #
vertex $-1 $828 $833 #
straight-curve $-1 27.5 -10 0 0 0 -1 I I #
coedge $-1 $779 $767 $657 $752 reversed $817 $-1 #
edge $-1 $831 -12.5 $662 0 $751 $663 forward 7 unknown #
cone-surface $-1 37.5 -10 0 -0 0 -1 -7.071067811865470176 7.071067811865470176 0 1 I I 0 -1 9.999999999999992895 forward I I I I #
ellipse-curve $-1 40 0 0 -0 1 -0 2.5 0 0 1 I I #
point $-1 37.5 0 0 #
face $-1 $430 $761 $2 $-1 $834 reversed single #
plane-surface $-1 -55 12.5 6.25 1 0 0 0 0 -1 forward_v I I I I #
coedge $-1 $670 $835 $669 $759 reversed $761 $-1 #
edge $-1 $762 0 $836 1.570796326794896558 $669 $763 forward 7 unknown #
coedge $-1 $837 $670 $673 $765 reversed $761 $-1 #
loop $-1 $-1 $760 $756 #
vertex $-1 $671 $838 #
ellipse-curve $-1 55 25 8.728703347107829602e-14 0 -1 0 2.5 0 0 1 I I #
coedge $-1 $673 $672 $839 $840 reversed $624 $-1 #
edge $-1 $841 7.619026212181150377e-29 $674 25 $673 $842 forward 7 unknown #
point $-1 52.5 25 0 #
coedge $-1 $751 $839 $676 $768 forward $817 $-1 #
edge $-1 $769 0 $662 3.141592653589793116 $767 $754 forward 7 unknown #
vertex $-1 $840 $843 #
straight-curve $-1 42.5 -7.619026212181150377e-29 0 0 -1 -3.491481338843129805e-15 I I #
coedge $-1 $818 $844 $679 $772 reversed $727 $-1 #
edge $-1 $836 -0.6249999999999098499 $775 9.375 $679 $845 forward 7 unknown #
coedge $-1 $846 $680 $844 $847 forward $724 $-1 #
coedge $-1 $680 $846 $682 $777 forward $724 $-1 #
vertex $-1 $681 $848 #
coedge $-1 $683 $682 $849 $850 forward $684 $-1 #
edge $-1 $851 0 $685 25 $682 $852 forward 7 unknown #
point $-1 62.5 25 12.5 #
coedge $-1 $849 $751 $687 $780 reversed $817 $-1 #
edge $-1 $781 -40 $831 -15 $687 $853 forward 7 unknown #
vertex $-1 $688 $854 #
straight-curve $-1 62.5 0 -12.5 0 -1 0 I I #
face $-1 $710 $705 $2 $-1 $855 forward single #
plane-surface $-1 0 -12.5 3.75 0 -1 0 0 0 -1 forward_v I I I I #
coedge $-1 $856 $812 $787 $857 forward $691 $-1 #
coedge $-1 $858 $693 $700 $794 reversed $591 $-1 #
coedge $-1 $693 $858 $785 $857 reversed $591 $-1 #
coedge $-1 $859 $740 $693 $789 reversed $824 $-1 #
edge $-1 $860 -8.75 $825 8.75 $788 $861 forward 7 unknown #
coedge $-1 $698 $694 $729 $819 forward $441 $-1 #
edge $-1 $737 0 $820 4.712388980384689674 $694 $862 forward 7 unknown #
straight-curve $-1 -46.25 0 0 -1 0 0 I I #
coedge $-1 $701 $863 $858 $864 reversed $696 $-1 #
edge $-1 $796 -0.785398163397448279 $825 0.785398163397448279 $700 $865 forward 7 unknown #
coedge $-1 $863 $701 $704 $799 reversed $696 $-1 #
vertex $-1 $702 $866 #
straight-curve $-1 0 -12.5 12.5 1 0 -0 I I #
coedge $-1 $704 $703 $867 $868 reversed $705 $-1 #
edge $-1 $869 -8.75 $706 8.75 $795 $870 forward 7 unknown #
point $-1 -15 -12.5 12.5 #
coedge $-1 $716 $867 $708 $802 reversed $691 $-1 #
edge $-1 $718 -6.25 $803 1.25 $708 $871 forward 7 unknown #
vertex $-1 $802 $872 #
straight-curve $-1 -20 -17.5 3.75 0 0 -1 I I #
face $-1 $367 $824 $2 $-1 $873 forward single #
plane-surface $-1 -20 -18.75 3.75 1 0 0 0 0 -1 forward_v I I I I #
coedge $-1 $713 $747 $743 $828 forward $277 $-1 #
vertex $-1 $744 $874 #
straight-curve $-1 0 -25 -12.5 -1 0 0 I I #
coedge $-1 $740 $859 $715 $811 reversed $824 $-1 #
edge $-1 $742 -10.625 $813 6.875 $715 $875 forward 7 unknown #
coedge $-1 $785 $716 $859 $876 reversed $691 $-1 #
vertex $-1 $717 $877 #
straight-curve $-1 0 -25 -5 -1 0 0 I I #
point $-1 -20 -25 -5 #
plane-surface $-1 62.5 0 0 -1 0 0 0 -0 1 forward_v I I I I #
loop $-1 $-1 $767 $726 #
coedge $-1 $878 $771 $835 $879 forward $727 $-1 #
edge $-1 $820 -0.625 $733 9.375 $790 $880 forward 7 unknown #
vertex $-1 $730 $881 #
straight-curve $-1 -55 -8.475965199624620172e-15 2.5 -0 1 3.491481338843129805e-15 I I #
point $-1 -55 0 12.5 #
point $-1 -52.5 0 0 #
loop $-1 $-1 $788 $805 #
vertex $-1 $741 $882 #
straight-curve $-1 20 -9.375 12.5 0 -1 0 I I #
point $-1 20 -25 12.5 #
edge $-1 $749 3.75 $808 18.75 $807 $883 forward 7 unknown #
straight-curve $-1 27.5 -25 0 -0 0 1 I I #
plane-surface $-1 27.5 -12.5 0 1 0 0 0 0 -1 forward_v I I I I #
vertex $-1 $780 $884 #
ellipse-curve $-1 37.5 -10 -12.5 0 0 1 -7.071067811865470176 7.071067811865470176 0 1 I I #
point $-1 27.5 -10 -12.5 #
cone-surface $-1 55 0 0 0 -1 -3.491481338843129805e-15 2.5 0 0 1 I I 0 1 2.5 forward I I I I #
coedge $-1 $758 $837 $818 $879 reversed $761 $-1 #
vertex $-1 $879 $885 #
coedge $-1 $835 $760 $886 $887 reversed $761 $-1 #
point $-1 57.5 25 8.728703347107829602e-14 #
coedge $-1 $767 $886 $764 $840 forward $817 $-1 #
edge $-1 $841 -6.25 $769 3.75 $839 $888 forward 7 unknown #
vertex $-1 $887 $889 #
straight-curve $-1 52.5 -7.619026212181150377e-29 0 -0 1 3.491481338843129805e-15 I I #
point $-1 42.5 0 0 #
coedge $-1 $771 $878 $773 $847 reversed $727 $-1 #
straight-curve $-1 55 25 3.125 0 0 1 I I #
coedge $-1 $774 $773 $890 $891 forward $724 $-1 #
edge $-1 $775 -18.75 $892 6.25 $773 $893 forward 7 unknown #
point $-1 55 25 12.5 #
coedge $-1 $890 $779 $776 $850 reversed $817 $-1 #
edge $-1 $851 -12.5 $781 12.5 $776 $894 forward 7 unknown #
vertex $-1 $850 $895 #
straight-curve $-1 62.5 0 12.5 0 1 0 I I #
straight-curve $-1 22.5 0 -12.5 -1 0 0 I I #
point $-1 62.5 0 -12.5 #
cone-surface $-1 -15 -17.5 3.75 -0 0 -1 -3.535533905932739973 3.535533905932739973 0 1 I I 0 -1 5.000000000000003553 forward I I I I #
coedge $-1 $867 $785 $863 $896 reversed $691 $-1 #
edge $-1 $860 -0.785398163397448279 $897 0.785398163397448279 $785 $898 forward 7 unknown #
coedge $-1 $787 $786 $793 $864 forward $591 $-1 #
coedge $-1 $810 $788 $812 $876 forward $824 $-1 #
vertex $-1 $857 $899 #
straight-curve $-1 20 -17.5 3.75 0 0 1 I I #
ellipse-curve $-1 -55 0 0 -0 1 -0 2.5 0 0 1 I I #
coedge $-1 $793 $795 $856 $896 forward $696 $-1 #
edge $-1 $796 -8.75 $897 8.75 $793 $900 forward 7 unknown #
ellipse-curve $-1 15 -17.5 12.5 -0 -0 -1 3.535533905932739973 3.535533905932739973 0 1 I I #
point $-1 15 -12.5 12.5 #
coedge $-1 $801 $856 $798 $868 forward $691 $-1 #
edge $-1 $869 -0.785398163397448279 $803 0.785398163397448279 $867 $901 forward 7 unknown #
vertex $-1 $868 $902 #
straight-curve $-1 -15 -12.5 3.75 0 0 1 I I #
straight-curve $-1 -20 -18.75 -5 0 1 0 I I #
point $-1 -20 -17.5 -5 #
plane-surface $-1 20 -18.75 3.75 -1 0 0 0 0 1 forward_v I I I I #
point $-1 27.5 -25 -12.5 #
straight-curve $-1 20 -25 1.875 -0 0 -1 I I #
edge $-1 $860 -1.25 $813 6.25 $859 $903 forward 7 unknown #
point $-1 20 -25 -5 #
coedge $-1 $844 $818 $904 $905 reversed $727 $-1 #
edge $-1 $836 -25.00000000000000711 $906 -8.475965199624620172e-15 $818 $907 forward 7 unknown #
straight-curve $-1 -55 0 3.125 -0 0 1 I I #
point $-1 -55 0 2.5 #
point $-1 20 -17.5 12.5 #
straight-curve $-1 27.5 -6.25 -12.5 0 -1 0 I I #
point $-1 37.5 0 -12.5 #
point $-1 55 25 2.50000000000009015 #
coedge $-1 $839 $904 $837 $887 forward $817 $-1 #
edge $-1 $906 -1.570796326794896558 $841 3.141592653589793116 $886 $908 forward 7 unknown #
straight-curve $-1 46.25 0 0 -1 0 0 I I #
point $-1 52.5 0 0 #
coedge $-1 $904 $849 $846 $891 reversed $817 $-1 #
edge $-1 $892 32.5 $851 40 $846 $492 forward 7 unknown #
vertex $-1 $847 $909 #
straight-curve $-1 55 6.25 12.5 0 -1 0 I I #
straight-curve $-1 62.5 0 0 -0 -0 -1 I I #
point $-1 62.5 0 12.5 #
edge $-1 $869 -15 $897 15 $863 $910 forward 7 unknown #
vertex $-1 $896 $911 #
ellipse-curve $-1 15 -17.5 -5 0 0 1 3.535533905932739973 3.535533905932739973 0 1 I I #
point $-1 20 -17.5 -5 #
straight-curve $-1 15 -12.5 3.75 0 0 -1 I I #
ellipse-curve $-1 -15 -17.5 -5 0 0 1 -3.535533905932739973 3.535533905932739973 0 1 I I #
point $-1 -15 -12.5 -5 #
straight-curve $-1 20 -18.75 -5 0 -1 0 I I #
coedge $-1 $886 $890 $878 $905 forward $817 $-1 #
edge $-1 $892 -9.375 $906 0.625 $904 $912 forward 7 unknown #
vertex $-1 $905 $913 #
straight-curve $-1 55 -8.475965199624620172e-15 2.5 0 -1 -3.491481338843129805e-15 I I #
ellipse-curve $-1 55 0 0 -0 1 -0 2.5 0 0 1 I I #
point $-1 55 0 12.5 #
straight-curve $-1 0 -12.5 -5 1 0 0 I I #
point $-1 15 -12.5 -5 #
straight-curve $-1 55 0 3.125 -0 -0 -1 I I #
point $-1 55 0 2.5 #
End-of-ACIS-data 