  0
SECTION
  2
HEADER
  9
$ACADVER
  1
AC1009
  9
$INSBASE
 10
0.0
 20
0.0
 30
0.0
  9
$EXTMIN
 10
-6.0
 20
-2.0
 30
0.0
  9
$EXTMAX
 10
14.0
 20
18.0
 30
3.0
  9
$LIMMIN
 10
0.0
 20
0.0
  9
$LIMMAX
 10
12.0
 20
9.0
  9
$ORTHOMODE
 70
     0
  9
$REGENMODE
 70
     1
  9
$FILLMODE
 70
     1
  9
$QTEXTMODE
 70
     0
  9
$MIRRTEXT
 70
     1
  9
$DRAGMODE
 70
     2
  9
$LTSCALE
 40
1.0
  9
$OSMODE
 70
     0
  9
$ATTMODE
 70
     1
  9
$TEXTSIZE
 40
0.2
  9
$TRACEWID
 40
0.05
  9
$TEXTSTYLE
  7
STANDARD
  9
$CLAYER
  8
0
  9
$CELTYPE
  6
BYLAYER
  9
$CECOLOR
 62
   256
  9
$DIMSCALE
 40
1.0
  9
$DIMASZ
 40
0.18
  9
$DIMEXO
 40
0.0625
  9
$DIMDLI
 40
0.38
  9
$DIMRND
 40
0.0
  9
$DIMDLE
 40
0.0
  9
$DIMEXE
 40
0.18
  9
$DIMTP
 40
0.0
  9
$DIMTM
 40
0.0
  9
$DIMTXT
 40
0.18
  9
$DIMCEN
 40
0.09
  9
$DIMTSZ
 40
0.0
  9
$DIMTOL
 70
     0
  9
$DIMLIM
 70
     0
  9
$DIMTIH
 70
     1
  9
$DIMTOH
 70
     1
  9
$DIMSE1
 70
     0
  9
$DIMSE2
 70
     0
  9
$DIMTAD
 70
     0
  9
$DIMZIN
 70
     0
  9
$DIMBLK
  1

  9
$DIMASO
 70
     1
  9
$DIMSHO
 70
     1
  9
$DIMPOST
  1

  9
$DIMAPOST
  1

  9
$DIMALT
 70
     0
  9
$DIMALTD
 70
     2
  9
$DIMALTF
 40
25.4
  9
$DIMLFAC
 40
1.0
  9
$DIMTOFL
 70
     0
  9
$DIMTVP
 40
0.0
  9
$DIMTIX
 70
     0
  9
$DIMSOXD
 70
     0
  9
$DIMSAH
 70
     0
  9
$DIMBLK1
  1

  9
$DIMBLK2
  1

  9
$DIMSTYLE
  2
*UNNAMED
  9
$DIMCLRD
 70
     0
  9
$DIMCLRE
 70
     0
  9
$DIMCLRT
 70
     0
  9
$DIMTFAC
 40
1.0
  9
$DIMGAP
 40
0.09
  9
$LUNITS
 70
     2
  9
$LUPREC
 70
     4
  9
$SKETCHINC
 40
0.1
  9
$FILLETRAD
 40
0.0
  9
$AUNITS
 70
     0
  9
$AUPREC
 70
     0
  9
$MENU
  1
acad
  9
$ELEVATION
 40
0.0
  9
$PELEVATION
 40
0.0
  9
$THICKNESS
 40
0.0
  9
$LIMCHECK
 70
     0
  9
$BLIPMODE
 70
     1
  9
$CHAMFERA
 40
0.0
  9
$CHAMFERB
 40
0.0
  9
$SKPOLY
 70
     0
  9
$TDCREATE
 40
2449408.805633761
  9
$TDUPDATE
 40
2449408.806389907
  9
$TDINDWG
 40
0.0007561458
  9
$TDUSRTIMER
 40
0.0007561458
  9
$USRTIMER
 70
     1
  9
$ANGBASE
 50
0.0
  9
$ANGDIR
 70
     0
  9
$PDMODE
 70
     0
  9
$PDSIZE
 40
0.0
  9
$PLINEWID
 40
0.0
  9
$COORDS
 70
     1
  9
$SPLFRAME
 70
     0
  9
$SPLINETYPE
 70
     6
  9
$SPLINESEGS
 70
     8
  9
$ATTDIA
 70
     0
  9
$ATTREQ
 70
     1
  9
$HANDLING
 70
     1
  9
$HANDSEED
  5
40
  9
$SURFTAB1
 70
     6
  9
$SURFTAB2
 70
     6
  9
$SURFTYPE
 70
     6
  9
$SURFU
 70
     6
  9
$SURFV
 70
     6
  9
$UCSNAME
  2

  9
$UCSORG
 10
0.0
 20
0.0
 30
0.0
  9
$UCSXDIR
 10
1.0
 20
0.0
 30
0.0
  9
$UCSYDIR
 10
0.0
 20
1.0
 30
0.0
  9
$PUCSNAME
  2

  9
$PUCSORG
 10
0.0
 20
0.0
 30
0.0
  9
$PUCSXDIR
 10
1.0
 20
0.0
 30
0.0
  9
$PUCSYDIR
 10
0.0
 20
1.0
 30
0.0
  9
$USERI1
 70
     0
  9
$USERI2
 70
     0
  9
$USERI3
 70
     0
  9
$USERI4
 70
     0
  9
$USERI5
 70
     0
  9
$USERR1
 40
0.0
  9
$USERR2
 40
0.0
  9
$USERR3
 40
0.0
  9
$USERR4
 40
0.0
  9
$USERR5
 40
0.0
  9
$WORLDVIEW
 70
     1
  9
$SHADEDGE
 70
     3
  9
$SHADEDIF
 70
    70
  9
$TILEMODE
 70
     1
  9
$MAXACTVP
 70
    16
  9
$PINSBASE
 10
0.0
 20
0.0
 30
0.0
  9
$PLIMCHECK
 70
     0
  9
$PEXTMIN
 10
1.000000E+20
 20
1.000000E+20
 30
1.000000E+20
  9
$PEXTMAX
 10
-1.000000E+20
 20
-1.000000E+20
 30
-1.000000E+20
  9
$PLIMMIN
 10
0.0
 20
0.0
  9
$PLIMMAX
 10
12.0
 20
9.0
  9
$UNITMODE
 70
     0
  9
$VISRETAIN
 70
     0
  9
$PLINEGEN
 70
     0
  9
$PSLTSCALE
 70
     1
  9
$TREEDEPTH
 70
  3020
  9
$DWGCODEPAGE
  3
ascii
  0
ENDSEC
  0
SECTION
  2
TABLES
  0
TABLE
  2
VPORT
 70
     2
  0
VPORT
  2
*ACTIVE
 70
     0
 10
0.0
 20
0.0
 11
1.0
 21
1.0
 12
0.0
 22
-0.71655
 13
0.0
 23
0.0
 14
1.0
 24
1.0
 15
0.0
 25
0.0
 16
1.0
 26
2.0
 36
1.0
 17
0.0
 27
0.0
 37
0.0
 40
16.824319
 41
1.594883
 42
50.0
 43
0.0
 44
0.0
 50
0.0
 51
0.0
 71
     0
 72
   100
 73
     1
 74
     1
 75
     0
 76
     0
 77
     0
 78
     0
  0
ENDTAB
  0
TABLE
  2
LTYPE
 70
     1
  0
LTYPE
  2
CONTINUOUS
 70
    64
  3
Solid line
 72
    65
 73
     0
 40
0.0
  0
ENDTAB
  0
TABLE
  2
LAYER
 70
     2
  0
LAYER
  2
0
 70
    64
 62
     7
  6
CONTINUOUS
  0
LAYER
  2
AME_FRZ
 70
    65
 62
     7
  6
CONTINUOUS
  0
ENDTAB
  0
TABLE
  2
STYLE
 70
     1
  0
STYLE
  2
STANDARD
 70
     0
 40
0.0
 41
1.0
 50
0.0
 71
     0
 42
0.2
  3
txt
  4

  0
ENDTAB
  0
TABLE
  2
VIEW
 70
     0
  0
ENDTAB
  0
TABLE
  2
UCS
 70
     0
  0
ENDTAB
  0
TABLE
  2
APPID
 70
     3
  0
APPID
  2
ACAD
 70
    64
  0
APPID
  2
AME_SOL
 70
    64
  0
APPID
  2
AVE_INVOKE
 70
    64
  0
ENDTAB
  0
TABLE
  2
DIMSTYLE
 70
     0
  0
ENDTAB
  0
ENDSEC
  0
SECTION
  2
BLOCKS
  0
BLOCK
  8
0
  5
1
  2
AME_NIL
 70
    64
 10
0.0
 20
0.0
 30
0.0
  1
AME_NIL
  3
AME_NIL
  0
ENDBLK
  8
0
  5
2
  0
BLOCK
  8
0
  5
4
  2
AME_SOL
 70
    64
 10
0.0
 20
0.0
 30
0.0
  1
AME_SOL
  3
AME_SOL
  0
ENDBLK
  8
0
  5
5
  0
BLOCK
  8
0
  5
26
  2
*U4
 70
    65
 10
0.0
 20
0.0
 30
0.0
  1
*U
  3
*U
  0
LINE
  8
0
 62
     7
  5
27
 10
12.0
 20
12.0
 30
0.0
 11
12.0
 21
12.0
 31
1.0
1001
AME_SOL
1070
     1
1071
       26
  0
LINE
  8
0
 62
     7
  5
28
 10
12.0
 20
2.0
 30
3.0
 11
12.0
 21
0.0
 31
3.0
1001
AME_SOL
1070
     1
1071
       25
  0
LINE
  8
0
 62
     7
  5
29
 10
0.0
 20
12.0
 30
0.0
 11
0.0
 21
12.0
 31
1.0
1001
AME_SOL
1070
     1
1071
       24
  0
LINE
  8
0
 62
     7
  5
2A
 10
0.0
 20
0.0
 30
0.0
 11
0.0
 21
0.0
 31
1.0
1001
AME_SOL
1070
     1
1071
       23
  0
LINE
  8
0
 62
     7
  5
2B
 10
12.0
 20
0.0
 30
3.0
 11
12.0
 21
0.0
 31
0.0
1001
AME_SOL
1070
     1
1071
       22
  0
LINE
  8
0
 62
     7
  5
2C
 10
10.0
 20
0.0
 30
3.0
 11
12.0
 21
0.0
 31
3.0
1001
AME_SOL
1070
     1
1071
       21
  0
LINE
  8
0
 62
     7
  5
2D
 10
0.0
 20
0.0
 30
0.0
 11
12.0
 21
0.0
 31
0.0
1001
AME_SOL
1070
     1
1071
       20
  0
LINE
  8
0
 62
     7
  5
2E
 10
0.0
 20
12.0
 30
0.0
 11
0.0
 21
0.0
 31
0.0
1001
AME_SOL
1070
     1
1071
       19
  0
LINE
  8
0
 62
     7
  5
2F
 10
12.0
 20
0.0
 30
0.0
 11
12.0
 21
12.0
 31
0.0
1001
AME_SOL
1070
     1
1071
       18
  0
LINE
  8
0
 62
     7
  5
30
 10
12.0
 20
12.0
 30
0.0
 11
0.0
 21
12.0
 31
0.0
1001
AME_SOL
1070
     1
1071
       17
  0
LINE
  8
0
 62
     7
  5
31
 10
0.0
 20
0.0
 30
1.0
 11
10.0
 21
0.0
 31
1.0
1001
AME_SOL
1070
     1
1071
       16
  0
LINE
  8
0
 62
     7
  5
32
 10
0.0
 20
12.0
 30
1.0
 11
0.0
 21
0.0
 31
1.0
1001
AME_SOL
1070
     1
1071
       15
  0
LINE
  8
0
 62
     7
  5
33
 10
12.0
 20
2.0
 30
1.0
 11
12.0
 21
12.0
 31
1.0
1001
AME_SOL
1070
     1
1071
       14
  0
LINE
  8
0
 62
     7
  5
34
 10
12.0
 20
12.0
 30
1.0
 11
0.0
 21
12.0
 31
1.0
1001
AME_SOL
1070
     1
1071
       13
  0
ARC
  8
0
 62
     7
  5
35
 10
4.0
 20
8.0
 30
1.0
 40
10.0
 50
306.869898
 51
323.130102
1001
AME_SOL
1070
     1
1071
       12
  0
LINE
  8
0
 62
     7
  5
36
 10
10.0
 20
0.0
 30
1.0
 11
10.0
 21
0.0
 31
3.0
1001
AME_SOL
1070
     1
1071
       11
  0
LINE
  8
0
 62
     7
  5
37
 10
12.0
 20
2.0
 30
1.0
 11
12.0
 21
2.0
 31
3.0
1001
AME_SOL
1070
     1
1071
       10
  0
ARC
  8
0
 62
     7
  5
38
 10
4.0
 20
8.0
 30
3.0
 40
10.0
 50
306.869898
 51
323.130102
1001
AME_SOL
1070
     1
1071
        9
  0
ENDBLK
  8
0
  5
39
  0
BLOCK
  8
0
  5
3D
  2
AME_JNK
 70
     0
 10
0.0
 20
0.0
 30
0.0
  1
AME_JNK
  3
AME_JNK
  0
ENDBLK
  8
0
  5
3E
  0
ENDSEC
  0
SECTION
  2
ENTITIES
  0
INSERT
  8
AME_FRZ
  5
3
  2
AME_NIL
 10
0.0
 20
0.0
 30
0.0
  0
INSERT
  8
AME_FRZ
  5
6
  2
AME_SOL
 10
0.0
 20
0.0
 30
0.0
1001
AME_SOL
1000
R2.1
1000
AME2
1000
sq cm
1070
     3
1070
     0
1070
     3
1000
wire
1040
45.0
1000
U
1040
1.0
1000
cm
1000
gm
1000
MILD_STEEL
1070
    25
1000
CSG
1070
     1
1070
     3
1070
     3
1070
     3
1070
     0
1000
cu cm
1070
     1
1070
     0
1005
3
  0
INSERT
  8
AME_FRZ
  5
15
  2
AME_NIL
 10
0.0
 20
0.0
 30
0.0
1001
AME_SOL
1002
{
1070
     1
1071
  2480744
1070
  1536
1070
     1
1010
12.0
1020
12.0
1030
3.0
1005
0
1005
0
1005
3A
1040
0.0
1040
1.0
1070
     0
1000
MILD_STEEL
1000
0
1010
0.0
1020
0.0
1030
0.0
1010
0.0
1020
0.0
1030
1.0
1040
0.0
1002
}
1001
AVE_INVOKE
1000
SOLAVEMESH
  0
INSERT
  8
AME_FRZ
  5
22
  2
AME_NIL
 10
4.0
 20
8.0
 30
1.0
1001
AME_SOL
1002
{
1070
     1
1071
  2464712
1070
  1538
1070
     1
1010
10.0
1020
10.0
1030
2.0
1005
0
1005
0
1005
3A
1040
0.0
1040
1.0
1070
     0
1000
MILD_STEEL
1000
0
1010
4.0
1020
8.0
1030
1.0
1010
0.0
1020
0.0
1030
1.0
1040
0.0
1002
}
1001
AVE_INVOKE
1000
SOLAVEMESH
  0
INSERT
  8
0
  5
3A
  2
*U4
 10
0.0
 20
0.0
 30
0.0
1001
AME_SOL
1002
{
1070
     1
1071
  2399688
1070
  1543
1070
     1
1070
     0
1005
15
1005
22
1005
0
1005
3B
1005
0
1040
0.0
1040
1.0
1070
     0
1000
MILD_STEEL
1000
0
1002
}
1001
AVE_INVOKE
1000
SOLAVEMESH
  0
INSERT
  8
AME_FRZ
  5
3B
  2
AME_NIL
 10
1.0
 20
1.0
 30
1.0
1001
AME_SOL
1004
C7CF0100FD007E017D017B0177016F016201020054014201FB002A0190005D0043013D002B017E00780063012800550144012C018C00EB002D017200C40045012E01190161001D001A01AF00ED002F011B01AC0026001C01E400BB00700164015601460130011D01E100BE001E01DF00DA0031011F019E00
1004
3B0020018F004F0047013201210197004D002201670010013000E800330123011101B100010100010B00120102010D00F7000301170019002401130104017900210005012300E900140106012D002E0007012F0031008E0065013C00570148013401250115010801D70070000901D600D50016010A01D300
1004
D2000B01D1004800FE00EE00C00078017101660158014901A40035016A0022004A0136018700910037013800260117010C01CB00CA000D015200BC00120003006701240059017C008900720168015A0175004B01F2001E005B014C013801EA00E0003901880027012C00DE00070040007C01790173016901
1004
5C015F004D0105008400FD006A017F005D0108004E013A01EF0051003B01D800280118010E01B700B0000F01A900060004007401FF006B015E01960080005F014F014E00200050013C01830076003D01A3002901FC0032007A017501F0006C010100BF0076016D0160015101F800180052013E01D000A800
1004
3F01CF00B400610153014001270010004101A0004A000F006E013F0025000000341268253E811AAFCA52B23A1354D6B872E0396C8F76E23C4562293E671E48CC4527C56DD965202E6CD63A610541D06C95FCE0CC4527CCD31DAE08649FC39701CB647BB711E22B1149F338F76F26908889C79D965202E6CD
1004
63A610541D06C95FCE0CC4527CCD31DA9A1707BADFA95B5238E685CFF63DFFFFFFFB1EFFFDD27FD74FFB1E42FE51FF28FFFFFFE685CFF63DFFFFFFFB1EFFFDD27FD74FFB1E42FE51FF28FFFFFFB1B124D04F5863FD8F7FFFFFFEC7BFD4A5294A1361EE8FAE9FF63C04341905B8AF8300E108341905B8AF83
1004
00E40D7F124D0075863FD8F7FFFFFFEC7BFC4C294A529D9C72A5294A537FB1E021A0C82DC57C18070841A0C82DC57C1807206BF892686BAC31FEC7BFFFFFFF63DFFF9AC7FD74FFB1E021A0C82DC57C18070841A0C82DC57C1807206BF89268F5863FD8F7FFFFFFEC7BFC4C294A529D9FF5FCFFB1E021A0C8
1004
2DC57C18070841A0C82DC57C1807206BF821921439701CB647BB711E22B1149F338F76F26908889C79D965202E6CD63A610541D06C95FCE0F348229D6331E6A86B8E44EBF52B6A473D0D73FD8F7FFFFF5BFB1BFEB7F749FF5D3FEC790BFFFFFFFFFE86B9FEC7BFFFFFADFD8DFF5BFBA4FFAE9FF63C85FFFF
1004
FFFFFD8D821927F24662293E2B648CC4527C56C91988A4F8ADBB2CA405CD8477659480B9B08E48CC4527C579AA1AE27886FDAED57F6B435CFFFF63DFFFB1EFFFFFFFFFF42FFFFFFFFFFA1AE7FFFB1EFFFD8F7FFFFFFFFFA17FFFFFFFFF63C08649F724662293E2B648CC4527C56C91988A4F8ADBB2CA405C
1004
D84724662293E2BC0CC4527CCD31DAA1AE2D73956BB513F6B435CFF63DFFFFFFFFFB1EFFFFFF42FFFFFFFFFFA1AE7FB1EFFFFFFFFFD8F7FFFFFA17FFFFFFFFF63C08649FC91988A4F8AD92331149F15B24662293E2B648CC4527C579D965202E6C238331149F334C76A86B86A5855AED44B35A1AE7FFFFFB
1004
1EFFFD8F7FFFFFFFA17FFFFFFFFFD0D73FFFFFD8F7FFEC7BFFFFFFFD0BFFFFFFFFFB1E04322648CC4527C56C91988A4F8AD86DD80B443100D9DD965202E6C23BB2CA405CD8470662293E6698ED50D71741455AED44F9AD0D73FD8DFF5BFD6FF5BFB1BFEB7F08FF847FD31D0BFFFFFFFFFE86B9FEC6FFADFE
1004
B7FADFD8DFF5BF847FC23FE98E85FFFFFFFFFD8F021927F24662293E2B664BCBA97AE0E8392331149F15B7659480B9B08EECB290173611C1988A4F99A63B5435C23114AB5DA89EB5A1AE7FD6FF5BFB1BFD8DFF5BFD6FE11FF08FFA63A17FFFFFFFFFD0D73FEB7FADFD8DFEC6FFADFEB7F08FF847FD31D0BF
1004
FFFFFFFFB1E04324FB992F2EA5EB83A0E48CC4527C56C91988A4F8ADBB2CA405CD8477659480B9B08E0CC4527CCD31DAA1AE395CC55AED44F1AD0D73FEB7F637FD6FF5BFD6FEC6FF08FF847FD31D0BFFFFFFFFFE86B9FF5BFB1BFEB7FADFEB7F637F847FC23FE98E85FFFFFFFFFD8F100E92331149F15B24
1004
662293E2B61B7602D10C403677659480B9B08EECB290173611C1988A4F99A6388E1F87084250781DB66B8881EAF8461203E6C0AFC60D49F0576AA50F75BF5D0515C0AE828A8F75BF6BA94A52FC63FD8F7FFFFFFEC7BFFF749FF5D3FE98E9FFF28FF94711C3F0E1084A0F03B6CD71103D5F08C2407CD900E9
1004
92F2EA5EB83A0E48CC4527C56DDBC9A4222271E7659480B9B08EECB290173611C1988A4F99A63FFB5F9C0AC30691382BA94D47BADFB95CC57023DD6FDCAE62AA5294D75863FD8F7FFFFFFEC7BFFF08E4FE7FD8F01FF6BF3900E92331149F15B24662293E2B6EDE4D2111138F3B2CA405CD84724662293E2B
1004
C0CC4527CCD31FFDAFCE0561812CE42BB55287BADFAD7395C0AD73951EEB7ED75294A5863FD8F7FFFFFFEC7BFD4A5294A13A3FE6B91DFEC780FFB5F9C807439701CB647BB711E22B1149F338F76F26908889C79D965202E6CD63A610541D06C95FCE0F348229D6331E11C3F0E1084A0F03B6CD71103D5F08
1004
C2407CD815F8C03C4E5FEA5351EEB7EE44EBFC08F75BF72275FA94A5294A52FC63FD8F7FFFFFFEC7BFFF749FF5D3FEC793FFE51FF28E2387E1C210941E076D9AE2207ABE118480F9B201D24662293E2B664BCBA97AE0E83BB793484444E3CECB290173611DD965202E6C2383CD208A758CC79AFBA47FEBA7
1004
02B0C03C70CAED54A72275F9188A570246229572275FB5D4A529618FFFF63DFFFFFFFB1BFD74FF8471CA94A52938F016BEE91FFAE9C8074C979752F5C1D0724662293E2B6EDE4D2111138F3B2CA405CD8477659480B9B08E0F348229D6331EFD7478E54A5294A780AC309E13B2BB5529C89D7EE57315C0B9
1004
5CC55C89D7ED75294A5863FD8F7FFFFFFFFEC6FF08ED7CA38E54A52949C780FEBA3C72A5294A53C403A48CC4527C56C91988A4F8ADBB793484444E3C48CC4527C579D965202E6C2383CD208A758CC79AFAE8FFDD2702B0C0973415DAA94E44EBF352C2B81352C2AE44EBF6BA94A52C31FEC6FFFFFFFFFF63
1004
7FFFBA4FFB1E02D7D747FEE93900E92331149F15B24662293E2B6EDE4D2111138F3B2CA405CD84724662293E2BC0F348229D6331EFE3DAFAE9C0AC30E41C22BB5529C89D7EB5CE5702B5CE55C89D7ED75294A5863FFFD8DFFFFFFFEC6FF9FFFF63C07F8F6BEBA7201D24662293E2B664BCBA97AE0E839233
1004
1149F15B7659480B9B08EECB290173611C91988A4F8AF7EE23FF713815860D238057529AA7886FC8C452B814F10DF9188A55AED75863FFFD8F7FFFFFFEC6FF713FE11FFC0FEE23FF713900E992F2EA5EB83A0E48CC4527C56C91988A4F8ADBB2CA405CD8477659480B9B08E48CC4527C57BF711FFB89C0AC
1004
30C4F15D4A6A9E21BF72B98AE053C437EE573156BB5D618FF63DFFFFFFFFFB1BFC23FEE27FF03FB88FFDC4E403A48CC4527C56C91988A4F8AD92331149F15B24662293E2BCECB290173611C91988A4F8AF7E10FFEB40AC30EA1C62BA94D53C437E6A5857029E21BF352C2AD76BAC31FEC6FFFFFFFFFF637F
1004
FFFFE07F087FF5A403A48CC4527C56C91988A4F8AD92331149F15B7659480B9B08E48CC4527C57891988A4F8AF7FFE11C0AC30EA1C52BA94D53C437EB5CE57029E21BF5AE72AD76BAC31FFFEC6FFFFFFFF637FFFFFE07FFF08E403A48CC4527C56C91988A4F8AD86DD80B443100D9DD965202E6C23923311
1004
49F15E0662293E6698ED7DD27FDC4E056184F91C42BA94D56B9CAAE828AE056B9CAAE828AB5DAEB0C7FFFFFB1EFFFD8DFFFEE27FFFD31C0B5F749FF713900E992F2EA5EB83A0E48CC4527C56C91988A4F8ADBB2CA405CD84724662293E2BC0CC4527CCD31FF706FF70780AC3025D33FD4A6AB5CE55CAE62B
1004
815AE72AE573156BB5D618FF63DFFFFFFFB1BFFFC23FFFEE0F01FDC1BFDC1E201D24662293E2B648CC4527C56C91988A4F8AD92331149F15E24662293E2BC0CC4527CCD31FFFF63C05618701337FA94D56B9CA9A9615C0AD7395352C2AD76BAC31FEC6FFFFFFFF637FFFFFFFE07FFF63C403A48CC4527C56
1004
CC979752F5C1D0724662293E2B648CC4527C579D965202E6C238331149F334C7FDC1B6BE696C0AC30984D1FEA535352C2A462295C09A961523114AB5DAEB0C7FFFB1EFFFD8DFFFFFFFE11FF70780FEE0DB5F34B6403A64BCBA97AE0E8392331149F15B0DBB016886201B3BB2CA405CD8477659480B9B08E0
1004
CC4527CCD31FF28FF84702B0C0E3BA5FEA5355D051572B98AE05741455CAE62AD76BAC31FEC7BFFFFFADFFFD8F7E11FF08FFA6381FCA3FE11C8074C979752F5C1D07325E5D4BD70741C91988A4F8ADBB2CA405CD8477659480B9B08E0CC4527CCD31FF4C3DAFC78158607048F7FA94D48C452AE57315C091
1004
88A55CAE62AD76BAC31FEC7BFFFFFFF63DFFF847FC23FE98E07F4C3DAFC789BAFC265E
1005
3C
  0
INSERT
  8
AME_FRZ
  5
3C
  2
AME_NIL
 10
1.0
 20
1.0
 30
1.0
1001
AME_SOL
1004

1005
0
  0
ENDSEC
  0
EOF
