700 0 2 0           
24 FBMach with ACIS - 7.0.3 13 ACIS 7.0.3 NT 24 Tue May 14 12:10:45 2002 
1 9.9999999999999995e-007 1e-010 
body $2 -1 $-1 $3 $-1 $4 #
bdycol-kcp $-1 -1 1 4 $5 $6 $7 $8 #
model_id-kcp-attrib $-1 -1 $9 $-1 $0 1 1021392645 1021392645 1704394753 1 #
lump $-1 -1 $-1 $-1 $10 $0 #
transform $-1 -1 1 0 0 0 1 0 0 0 1 0 0 0 1 rotate no_reflect no_shear #
body $11 -1 $-1 $12 $-1 $13 #
body $14 -1 $-1 $15 $-1 $16 #
body $17 -1 $-1 $18 $-1 $19 #
body $20 -1 $-1 $21 $-1 $22 #
brep_non_volatile_id-cdc-attrib $-1 -1 $-1 $2 $0 1 #
shell $-1 -1 $-1 $-1 $-1 $23 $-1 $3 #
rgb_color-st-attrib $-1 -1 $24 $-1 $5 0.5 1 1 #
lump $-1 -1 $-1 $-1 $25 $5 #
transform $-1 -1 1 0 0 0 1 0 0 0 1 80.000000000000099 -2.042810365310288e-014 4 1 no_rotate no_reflect no_shear #
model_id-kcp-attrib $-1 -1 $-1 $-1 $6 1 1021392645 1021392645 1704394754 1 #
lump $-1 -1 $-1 $-1 $26 $6 #
transform $-1 -1 1 0 0 0 1 0 0 0 1 80.000000000000099 -2.042810365310288e-014 4 1 no_rotate no_reflect no_shear #
rgb_color-st-attrib $-1 -1 $27 $-1 $7 1 1 0.5 #
lump $-1 -1 $-1 $-1 $28 $7 #
transform $-1 -1 1 0 0 0 1 -6.1232329394299172e-017 0 6.1232329394299172e-017 1 80.000000000000099 -1.7889908946555649e-014 43.5 1 rotate no_reflect no_shear #
rgb_color-st-attrib $-1 -1 $29 $-1 $8 1 1 0.5 #
lump $-1 -1 $-1 $-1 $30 $8 #
transform $-1 -1 1 0 0 0 -1 6.1232329394299172e-017 0 -6.1232329394299172e-017 -1 80.000000000000099 -2.2727262968710749e-014 -35.5 1 rotate no_reflect no_shear #
face $31 -1 $-1 $32 $33 $10 $-1 $34 forward single #
model_id-kcp-attrib $-1 -1 $-1 $11 $5 1 1021392645 1021392645 1694892037 1 #
shell $-1 -1 $-1 $-1 $-1 $35 $-1 $12 #
shell $-1 -1 $-1 $-1 $-1 $36 $-1 $15 #
model_id-kcp-attrib $-1 -1 $-1 $17 $7 1 1021392645 1021392645 1705050115 1 #
shell $-1 -1 $-1 $-1 $-1 $37 $-1 $18 #
model_id-kcp-attrib $-1 -1 $-1 $20 $8 1 1021392645 1021392645 1705050116 1 #
shell $-1 -1 $-1 $-1 $-1 $38 $-1 $21 #
model_id-kcp-attrib $-1 -1 $39 $-1 $23 1 1021392645 1021392645 1704394753 2 #
face $40 -1 $-1 $41 $42 $10 $-1 $43 forward single #
loop $44 -1 $-1 $-1 $45 $23 #
plane-surface $46 -1 $-1 78.000000000000099 -1.78592927818585e-014 44 0 6.1232329394368604e-017 1 0 -1 6.1232329394368604e-017 forward_v I I I I #
face $-1 -1 $-1 $47 $48 $25 $-1 $49 reversed single #
face $50 -1 $-1 $51 $52 $26 $-1 $53 forward single #
face $-1 -1 $-1 $54 $55 $28 $-1 $56 reversed single #
face $-1 -1 $-1 $57 $58 $30 $-1 $59 reversed single #
face_name-twe-attrib $-1 -1 $60 $31 $23 1 #
model_id-kcp-attrib $-1 -1 $61 $-1 $32 1 1021392645 1021392645 1704394753 3 #
face $62 -1 $-1 $63 $64 $10 $-1 $65 forward single #
loop $66 -1 $-1 $67 $68 $32 #
cone-surface $69 -1 $-1 80.000000000000099 -1.7889908946555599e-014 43.5 0 6.1232329394368604e-017 1 -4.5 0 0 1 I I -0.70710678118654802 0.70710678118654702 4.5 forward I I I I #
loop_type-twe-attrib $-1 -1 $-1 $-1 $33 0 #
coedge $-1 -1 $-1 $45 $45 $68 $70 forward $33 $-1 #
surf-twe-attrib $-1 -1 $-1 $-1 $34 5 #
face $-1 -1 $-1 $71 $72 $25 $-1 $49 reversed single #
loop $-1 -1 $-1 $-1 $73 $35 #
cone-surface $-1 -1 $-1 0 2.5688108712443995e-015 40 0 6.1232329394368604e-017 1 5 6.1230317691118863e-016 -3.7492749817844253e-032 1 I I 0 1 5 forward I I I I #
model_id-kcp-attrib $-1 -1 $-1 $-1 $36 1 1021392645 1021392645 1704394754 2 #
face $74 -1 $-1 $75 $76 $26 $-1 $77 reversed single #
loop $-1 -1 $-1 $-1 $78 $36 #
plane-surface $-1 -1 $-1 0 0 40 0 0 1 1 0 0 forward_v I I I I #
face $-1 -1 $-1 $79 $80 $28 $-1 $81 forward single #
loop $-1 -1 $-1 $82 $83 $37 #
cone-surface $-1 -1 $-1 0 0 2 0 0 1 2.5 0 0 1 I I -0.70710678118654802 0.70710678118654702 2.5 forward I I I I #
face $-1 -1 $-1 $84 $85 $30 $-1 $86 forward single #
loop $-1 -1 $-1 $87 $88 $38 #
cone-surface $-1 -1 $-1 0 0 2 0 0 1 2.5 0 0 1 I I -0.70710678118654802 0.70710678118654702 2.5 forward I I I I #
primitive_order-cdc-attrib $-1 -1 $-1 $39 $23 0 8 #
face_name-twe-attrib $-1 -1 $89 $40 $32 2 #
model_id-kcp-attrib $-1 -1 $90 $-1 $41 1 1021392645 1021392645 1704394753 4 #
face $91 -1 $-1 $92 $93 $10 $-1 $94 forward single #
loop $95 -1 $-1 $96 $97 $41 #
cone-surface $98 -1 $-1 80.000000000000099 -2.0308585957633199e-014 4 0 6.1232329394368604e-017 1 -5 0 0 1 I I 0 1 5 forward I I I I #
loop_type-twe-attrib $-1 -1 $-1 $-1 $42 0 #
loop $99 -1 $-1 $-1 $100 $32 #
coedge $-1 -1 $-1 $68 $68 $45 $70 reversed $42 $-1 #
surf-twe-attrib $-1 -1 $-1 $-1 $43 7 #
edge $101 -1 $-1 $102 0 $102 6.2831853071795862 $45 $103 forward @7 unknown #
face $-1 -1 $-1 $104 $105 $25 $-1 $49 reversed single #
loop $-1 -1 $-1 $-1 $106 $47 #
coedge $-1 -1 $-1 $107 $108 $109 $110 reversed $48 $-1 #
model_id-kcp-attrib $-1 -1 $-1 $-1 $51 1 1021392645 1021392645 1704394754 3 #
face $-1 -1 $-1 $111 $112 $26 $-1 $113 reversed single #
loop $-1 -1 $-1 $-1 $114 $51 #
plane-surface $-1 -1 $-1 0 0 -40 0 0 1 1 0 0 forward_v I I I I #
coedge $-1 -1 $-1 $115 $116 $117 $118 forward $52 $-1 #
face $-1 -1 $-1 $-1 $119 $28 $-1 $120 forward single #
loop $-1 -1 $-1 $121 $122 $54 #
cone-surface $-1 -1 $-1 0 0 0 0 0 1 5 0 0 1 I I 0 1 5 forward I I I I #
loop $-1 -1 $-1 $-1 $123 $37 #
coedge $-1 -1 $-1 $83 $83 $124 $125 reversed $55 $-1 #
face $-1 -1 $-1 $-1 $126 $30 $-1 $127 forward single #
loop $-1 -1 $-1 $128 $129 $57 #
cone-surface $-1 -1 $-1 0 0 0 0 0 1 5 0 0 1 I I 0 1 5 forward I I I I #
loop $-1 -1 $-1 $-1 $130 $38 #
coedge $-1 -1 $-1 $88 $88 $131 $132 reversed $58 $-1 #
primitive_order-cdc-attrib $-1 -1 $-1 $61 $32 0 8 #
face_name-twe-attrib $-1 -1 $133 $62 $41 3 #
model_id-kcp-attrib $-1 -1 $134 $-1 $63 1 1021392645 1021392645 1704394753 5 #
face $135 -1 $-1 $-1 $136 $10 $-1 $137 forward single #
loop $138 -1 $-1 $139 $140 $63 #
cone-surface $141 -1 $-1 80.000000000000099 -2.27272629687108e-014 -35.5 0 6.1232329394368604e-017 1 -4.5 0 0 1 I I 0.70710678118654802 0.70710678118654702 4.5 forward I I I I #
loop_type-twe-attrib $-1 -1 $-1 $-1 $64 0 #
loop $142 -1 $-1 $-1 $143 $41 #
coedge $-1 -1 $-1 $97 $97 $100 $144 reversed $64 $-1 #
surf-twe-attrib $-1 -1 $-1 $-1 $65 12 #
loop_type-twe-attrib $-1 -1 $-1 $-1 $67 1 #
coedge $-1 -1 $-1 $100 $100 $97 $144 forward $67 $-1 #
attrib_edge_convexity-kcp-attrib $-1 -1 $145 $-1 $70 1 #
vertex $-1 -1 $-1 $70 $146 #
ellipse-curve $147 -1 $-1 80.000000000000099 -1.78592927818585e-014 44 0 6.1232329394368604e-017 1 -4 0 0 1 I I #
face $-1 -1 $-1 $148 $149 $25 $-1 $49 reversed single #
loop $-1 -1 $-1 $-1 $150 $71 #
coedge $-1 -1 $-1 $151 $152 $153 $154 reversed $72 $-1 #
coedge $-1 -1 $-1 $155 $73 $156 $157 reversed $48 $-1 #
coedge $-1 -1 $-1 $73 $155 $158 $159 reversed $48 $-1 #
coedge $-1 -1 $-1 $160 $161 $162 $110 forward $163 $-1 #
edge $-1 -1 $-1 $164 -80 $165 0 $109 $166 forward @7 unknown #
face $-1 -1 $-1 $167 $168 $26 $-1 $169 reversed single #
loop $-1 -1 $-1 $-1 $170 $75 #
plane-surface $-1 -1 $-1 0 -5.0000000000000027 0 0 1 0 0 0 1 forward_v I I I I #
coedge $-1 -1 $-1 $171 $172 $173 $174 forward $76 $-1 #
coedge $-1 -1 $-1 $175 $78 $176 $177 forward $52 $-1 #
coedge $-1 -1 $-1 $78 $175 $178 $179 forward $52 $-1 #
coedge $-1 -1 $-1 $180 $181 $78 $118 reversed $182 $-1 #
edge $-1 -1 $-1 $183 -5.0000000000000027 $184 5.0000000000000027 $117 $185 forward @7 unknown #
loop $-1 -1 $-1 $186 $124 $79 #
plane-surface $-1 -1 $-1 0 0 0.5 0 0 1 1 0 0 forward_v I I I I #
loop $-1 -1 $-1 $-1 $187 $54 #
coedge $-1 -1 $-1 $122 $122 $123 $188 reversed $80 $-1 #
coedge $-1 -1 $-1 $123 $123 $122 $188 forward $82 $-1 #
coedge $-1 -1 $-1 $124 $124 $83 $125 forward $119 $-1 #
edge $-1 -1 $-1 $189 -3.1415926535897931 $189 3.1415926535897931 $124 $190 forward @7 unknown #
loop $-1 -1 $-1 $191 $131 $84 #
plane-surface $-1 -1 $-1 0 0 0.5 0 0 1 1 0 0 forward_v I I I I #
loop $-1 -1 $-1 $-1 $192 $57 #
coedge $-1 -1 $-1 $129 $129 $130 $193 reversed $85 $-1 #
coedge $-1 -1 $-1 $130 $130 $129 $193 forward $87 $-1 #
coedge $-1 -1 $-1 $131 $131 $88 $132 forward $126 $-1 #
edge $-1 -1 $-1 $194 -3.1415926535897931 $194 3.1415926535897931 $131 $195 forward @7 unknown #
primitive_order-cdc-attrib $-1 -1 $-1 $90 $41 0 8 #
face_name-twe-attrib $-1 -1 $196 $91 $63 4 #
model_id-kcp-attrib $-1 -1 $197 $-1 $92 1 1021392645 1021392645 1704394753 6 #
loop $198 -1 $-1 $-1 $199 $92 #
plane-surface $200 -1 $-1 78.000000000000099 -2.2757879133407899e-014 -36 0 -6.1232329394368604e-017 -1 0 1 -6.1232329394368604e-017 forward_v I I I I #
loop_type-twe-attrib $-1 -1 $-1 $-1 $93 0 #
loop $201 -1 $-1 $-1 $202 $63 #
coedge $-1 -1 $-1 $140 $140 $143 $203 reversed $93 $-1 #
surf-twe-attrib $-1 -1 $-1 $-1 $94 20 #
loop_type-twe-attrib $-1 -1 $-1 $-1 $96 1 #
coedge $-1 -1 $-1 $143 $143 $140 $203 forward $96 $-1 #
edge $204 -1 $-1 $205 0 $205 6.2831853071795862 $100 $206 forward @7 unknown #
convexity-sys-attrib $-1 -1 $207 $101 $70 #
point $-1 -1 $-1 76.000000000000099 -1.78592927818585e-014 44 #
cur-twe-attrib $-1 -1 $-1 $-1 $103 27 #
face $-1 -1 $-1 $208 $209 $25 $-1 $210 reversed single #
loop $-1 -1 $-1 $-1 $211 $104 #
coedge $-1 -1 $-1 $212 $213 $214 $215 reversed $105 $-1 #
coedge $-1 -1 $-1 $216 $106 $217 $218 reversed $72 $-1 #
coedge $-1 -1 $-1 $106 $216 $73 $110 forward $72 $-1 #
coedge $-1 -1 $-1 $219 $220 $106 $154 forward $221 $-1 #
edge $-1 -1 $-1 $222 -3.1415926535897931 $165 -1.5707963267948966 $153 $223 forward @7 unknown #
coedge $-1 -1 $-1 $108 $107 $213 $224 forward $48 $-1 #
coedge $-1 -1 $-1 $225 $226 $107 $157 forward $227 $-1 #
edge $-1 -1 $-1 $228 -1.2246063538223773e-016 $164 1.5707963267948966 $156 $229 forward @7 unknown #
coedge $-1 -1 $-1 $230 $231 $108 $159 forward $232 $-1 #
edge $-1 -1 $-1 $165 -1.5707963267948966 $233 1.2246063538223773e-016 $158 $223 forward @7 unknown #
coedge $-1 -1 $-1 $234 $109 $231 $235 reversed $163 $-1 #
coedge $-1 -1 $-1 $109 $234 $225 $236 reversed $163 $-1 #
coedge $-1 -1 $-1 $237 $238 $152 $110 reversed $239 $-1 #
loop $-1 -1 $-1 $-1 $109 $240 #
vertex $-1 -1 $-1 $236 $241 #
vertex $-1 -1 $-1 $242 $243 #
straight-curve $-1 -1 $-1 0 5.0000000000000027 40 0 6.1232329394368604e-017 1 I I #
face $-1 -1 $-1 $244 $245 $26 $-1 $246 reversed single #
loop $-1 -1 $-1 $-1 $247 $111 #
plane-surface $-1 -1 $-1 -5 0 0 1 0 0 0 0 -1 forward_v I I I I #
coedge $-1 -1 $-1 $248 $178 $249 $250 forward $112 $-1 #
coedge $-1 -1 $-1 $251 $114 $248 $252 forward $76 $-1 #
coedge $-1 -1 $-1 $114 $251 $253 $254 forward $76 $-1 #
coedge $-1 -1 $-1 $181 $180 $114 $174 reversed $182 $-1 #
edge $-1 -1 $-1 $255 -5.0000000000000027 $256 5.0000000000000027 $173 $257 forward @7 unknown #
coedge $-1 -1 $-1 $116 $115 $258 $259 forward $52 $-1 #
coedge $-1 -1 $-1 $260 $261 $115 $177 reversed $245 $-1 #
edge $-1 -1 $-1 $184 -5 $262 5 $176 $263 forward @7 unknown #
coedge $-1 -1 $-1 $170 $264 $116 $179 reversed $112 $-1 #
edge $-1 -1 $-1 $265 -5 $183 5 $178 $266 forward @7 unknown #
coedge $-1 -1 $-1 $173 $117 $264 $267 forward $182 $-1 #
coedge $-1 -1 $-1 $117 $173 $260 $268 reversed $182 $-1 #
loop $-1 -1 $-1 $-1 $180 $244 #
vertex $-1 -1 $-1 $118 $269 #
vertex $-1 -1 $-1 $118 $270 #
straight-curve $-1 -1 $-1 5 0 40 0 1 0 I I #
loop $-1 -1 $-1 $-1 $271 $79 #
coedge $-1 -1 $-1 $187 $187 $271 $272 reversed $121 $-1 #
edge $-1 -1 $-1 $273 0 $273 6.2831853071795862 $122 $274 forward @7 unknown #
vertex $-1 -1 $-1 $125 $275 #
ellipse-curve $-1 -1 $-1 0 0 0.5 0 0 -1 4.0000000000000018 0 0 1 I I #
loop $-1 -1 $-1 $-1 $276 $84 #
coedge $-1 -1 $-1 $192 $192 $276 $277 reversed $128 $-1 #
edge $-1 -1 $-1 $278 0 $278 6.2831853071795862 $129 $279 forward @7 unknown #
vertex $-1 -1 $-1 $132 $280 #
ellipse-curve $-1 -1 $-1 0 0 0.5 0 0 -1 4.0000000000000018 0 0 1 I I #
primitive_order-cdc-attrib $-1 -1 $-1 $134 $63 0 8 #
face_name-twe-attrib $-1 -1 $281 $135 $92 5 #
loop_type-twe-attrib $-1 -1 $-1 $-1 $136 0 #
coedge $-1 -1 $-1 $199 $199 $202 $282 reversed $136 $-1 #
surf-twe-attrib $-1 -1 $-1 $-1 $137 30 #
loop_type-twe-attrib $-1 -1 $-1 $-1 $139 1 #
coedge $-1 -1 $-1 $202 $202 $199 $282 forward $139 $-1 #
edge $283 -1 $-1 $284 0 $284 6.2831853071795862 $143 $285 forward @7 unknown #
attrib_edge_convexity-kcp-attrib $-1 -1 $286 $-1 $144 1 #
vertex $-1 -1 $-1 $144 $287 #
ellipse-curve $288 -1 $-1 80.000000000000099 -1.7920525111252799e-014 43 0 6.1232329394368604e-017 1 -5 0 0 1 I I #
edge_name-twe-attrib $-1 -1 $-1 $145 $70 1 8448 #
face $-1 -1 $-1 $289 $239 $25 $-1 $290 reversed single #
loop $-1 -1 $-1 $-1 $291 $148 #
plane-surface $-1 -1 $-1 5 0 0 -1 0 0 0 0 1 forward_v I I I I #
coedge $-1 -1 $-1 $292 $293 $294 $295 reversed $149 $-1 #
coedge $-1 -1 $-1 $296 $150 $293 $297 forward $105 $-1 #
coedge $-1 -1 $-1 $150 $296 $298 $224 reversed $105 $-1 #
coedge $-1 -1 $-1 $299 $300 $150 $215 forward $301 $-1 #
edge $-1 -1 $-1 $302 -1.5707963267948968 $228 -1.2246063538223773e-016 $214 $229 forward @7 unknown #
coedge $-1 -1 $-1 $152 $151 $303 $304 reversed $72 $-1 #
coedge $-1 -1 $-1 $305 $306 $307 $218 forward $308 $-1 #
edge $-1 -1 $-1 $309 -80 $222 0 $217 $310 forward @7 unknown #
coedge $-1 -1 $-1 $220 $153 $238 $242 forward $221 $-1 #
coedge $-1 -1 $-1 $153 $219 $305 $311 forward $221 $-1 #
loop $-1 -1 $-1 $-1 $153 $312 #
vertex $-1 -1 $-1 $313 $314 #
ellipse-curve $-1 -1 $-1 0 2.5688108712443995e-015 40 0 0 -1 5 6.1230317691118863e-016 -3.7492749817844253e-032 1 I I #
edge $-1 -1 $-1 $228 -80 $233 0 $298 $315 forward @7 unknown #
coedge $-1 -1 $-1 $226 $156 $161 $236 forward $227 $-1 #
coedge $-1 -1 $-1 $156 $225 $316 $317 forward $227 $-1 #
loop $-1 -1 $-1 $-1 $156 $318 #
vertex $-1 -1 $-1 $319 $320 #
ellipse-curve $-1 -1 $-1 0 -2.3297754803050886e-015 -40 0 0 1 5 6.1230317691118863e-016 -3.7492749817844253e-032 1 I I #
coedge $-1 -1 $-1 $231 $158 $321 $322 forward $232 $-1 #
coedge $-1 -1 $-1 $158 $230 $160 $235 forward $232 $-1 #
loop $-1 -1 $-1 $-1 $158 $323 #
vertex $-1 -1 $-1 $322 $324 #
coedge $-1 -1 $-1 $161 $160 $325 $326 forward $163 $-1 #
edge $-1 -1 $-1 $327 -5 $165 0 $160 $328 forward @7 unknown #
edge $-1 -1 $-1 $164 0 $329 5 $161 $330 forward @7 unknown #
coedge $-1 -1 $-1 $331 $162 $332 $333 reversed $239 $-1 #
coedge $-1 -1 $-1 $162 $331 $219 $242 reversed $239 $-1 #
loop $-1 -1 $-1 $-1 $162 $208 #
face $-1 -1 $-1 $334 $163 $25 $-1 $290 reversed single #
point $-1 -1 $-1 0 5.0000000000000018 -40 #
edge $-1 -1 $-1 $165 0 $335 5 $238 $328 forward @7 unknown #
point $-1 -1 $-1 0 5.0000000000000027 40 #
face $-1 -1 $-1 $-1 $182 $26 $-1 $336 reversed single #
loop $-1 -1 $-1 $-1 $260 $167 #
plane-surface $-1 -1 $-1 0 5.0000000000000027 0 0 -1 0 0 0 -1 forward_v I I I I #
coedge $-1 -1 $-1 $337 $258 $261 $338 forward $168 $-1 #
coedge $-1 -1 $-1 $264 $170 $171 $252 reversed $112 $-1 #
coedge $-1 -1 $-1 $258 $337 $170 $250 reversed $168 $-1 #
edge $-1 -1 $-1 $265 -40 $339 40 $249 $340 forward @7 unknown #
coedge $-1 -1 $-1 $172 $171 $337 $341 forward $76 $-1 #
edge $-1 -1 $-1 $256 -5 $339 5 $248 $342 forward @7 unknown #
coedge $-1 -1 $-1 $261 $260 $172 $254 reversed $245 $-1 #
edge $-1 -1 $-1 $343 -5 $255 5 $253 $344 forward @7 unknown #
vertex $-1 -1 $-1 $174 $345 #
vertex $-1 -1 $-1 $267 $346 #
straight-curve $-1 -1 $-1 5 0 -40 0 -1 0 I I #
coedge $-1 -1 $-1 $247 $249 $175 $259 reversed $168 $-1 #
edge $-1 -1 $-1 $262 -5.0000000000000027 $265 5.0000000000000027 $258 $347 forward @7 unknown #
coedge $-1 -1 $-1 $253 $176 $181 $268 forward $245 $-1 #
coedge $-1 -1 $-1 $176 $253 $247 $338 reversed $245 $-1 #
vertex $-1 -1 $-1 $177 $348 #
straight-curve $-1 -1 $-1 0 5.0000000000000027 40 -1 0 0 I I #
coedge $-1 -1 $-1 $178 $248 $180 $267 reversed $112 $-1 #
vertex $-1 -1 $-1 $259 $349 #
straight-curve $-1 -1 $-1 0 -5.0000000000000027 40 1 0 0 I I #
edge $-1 -1 $-1 $183 -40 $256 40 $180 $350 forward @7 unknown #
edge $-1 -1 $-1 $184 -40 $255 40 $181 $351 forward @7 unknown #
point $-1 -1 $-1 5 -5.0000000000000027 40 #
point $-1 -1 $-1 5 5.0000000000000027 40 #
coedge $-1 -1 $-1 $271 $271 $187 $272 forward $186 $-1 #
edge $-1 -1 $-1 $352 0 $352 6.2831853071795862 $271 $353 forward @7 unknown #
vertex $-1 -1 $-1 $188 $354 #
ellipse-curve $-1 -1 $-1 0 0 -0.5 0 0 -1 5 0 0 1 I I #
point $-1 -1 $-1 -4.0000000000000018 4.898425415289511e-016 0.5 #
coedge $-1 -1 $-1 $276 $276 $192 $277 forward $191 $-1 #
edge $-1 -1 $-1 $355 0 $355 6.2831853071795862 $276 $356 forward @7 unknown #
vertex $-1 -1 $-1 $193 $357 #
ellipse-curve $-1 -1 $-1 0 0 -0.5 0 0 -1 5 0 0 1 I I #
point $-1 -1 $-1 -4.0000000000000018 4.898425415289511e-016 0.5 #
primitive_order-cdc-attrib $-1 -1 $-1 $197 $92 0 8 #
edge $358 -1 $-1 $359 0 $359 6.2831853071795862 $202 $360 forward @7 unknown #
attrib_edge_convexity-kcp-attrib $-1 -1 $361 $-1 $203 1 #
vertex $-1 -1 $-1 $203 $362 #
ellipse-curve $363 -1 $-1 80.000000000000099 -2.26966468040136e-014 -35 0 6.1232329394368604e-017 1 -5 0 0 1 I I #
convexity-sys-attrib $-1 -1 $364 $204 $144 #
point $-1 -1 $-1 75.000000000000099 -1.7920525111252799e-014 43 #
cur-twe-attrib $-1 -1 $-1 $-1 $206 52 #
face $-1 -1 $-1 $365 $366 $25 $-1 $367 reversed single #
plane-surface $-1 -1 $-1 0 5.0000000000000027 0 0 -1 0 0 0 -1 forward_v I I I I #
coedge $-1 -1 $-1 $316 $321 $155 $224 reversed $209 $-1 #
coedge $-1 -1 $-1 $368 $211 $151 $218 forward $149 $-1 #
coedge $-1 -1 $-1 $211 $368 $369 $297 reversed $149 $-1 #
coedge $-1 -1 $-1 $370 $371 $211 $295 forward $372 $-1 #
edge $-1 -1 $-1 $309 -3.1415926535897931 $302 -1.5707963267948968 $294 $229 forward @7 unknown #
coedge $-1 -1 $-1 $213 $212 $373 $374 reversed $105 $-1 #
edge $-1 -1 $-1 $302 -80 $375 0 $369 $376 forward @7 unknown #
coedge $-1 -1 $-1 $377 $378 $291 $224 forward $379 $-1 #
coedge $-1 -1 $-1 $300 $214 $378 $319 forward $301 $-1 #
coedge $-1 -1 $-1 $214 $299 $380 $381 forward $301 $-1 #
loop $-1 -1 $-1 $-1 $214 $382 #
vertex $-1 -1 $-1 $383 $384 #
coedge $-1 -1 $-1 $385 $332 $216 $304 forward $386 $-1 #
edge $-1 -1 $-1 $164 1.5707963267948966 $309 3.1415926535897931 $303 $229 forward @7 unknown #
coedge $-1 -1 $-1 $387 $217 $220 $311 reversed $308 $-1 #
coedge $-1 -1 $-1 $217 $387 $385 $388 reversed $308 $-1 #
coedge $-1 -1 $-1 $389 $390 $292 $218 reversed $366 $-1 #
loop $-1 -1 $-1 $-1 $217 $391 #
vertex $-1 -1 $-1 $388 $392 #
straight-curve $-1 -1 $-1 -5 2.5688108712443995e-015 40 0 6.1232329394368604e-017 1 I I #
edge $-1 -1 $-1 $335 -5.0000000000000027 $222 -2.5688108712443995e-015 $305 $393 forward @7 unknown #
face $-1 -1 $-1 $323 $221 $25 $-1 $394 forward single #
edge $-1 -1 $-1 $222 -2.5688108712443995e-015 $395 5.0000000000000027 $390 $393 forward @7 unknown #
point $-1 -1 $-1 -5 2.5688108712443995e-015 40 #
straight-curve $-1 -1 $-1 5 2.5688108712443995e-015 40 0 6.1232329394368604e-017 1 I I #
coedge $-1 -1 $-1 $325 $291 $226 $317 reversed $209 $-1 #
edge $-1 -1 $-1 $329 -5.0000000000000027 $228 2.3297754803050886e-015 $316 $396 forward @7 unknown #
face $-1 -1 $-1 $397 $227 $25 $-1 $398 reversed single #
edge $-1 -1 $-1 $228 2.3297754803050886e-015 $399 5.0000000000000027 $378 $396 forward @7 unknown #
point $-1 -1 $-1 5 -2.3297754803050886e-015 -40 #
coedge $-1 -1 $-1 $291 $325 $230 $322 reversed $209 $-1 #
edge $-1 -1 $-1 $233 2.5688108712443995e-015 $327 5.0000000000000027 $321 $400 forward @7 unknown #
face $-1 -1 $-1 $401 $232 $25 $-1 $394 forward single #
point $-1 -1 $-1 5 2.5688108712443995e-015 40 #
coedge $-1 -1 $-1 $321 $316 $234 $326 reversed $209 $-1 #
edge $-1 -1 $-1 $327 -40 $329 40 $325 $402 forward @7 unknown #
vertex $-1 -1 $-1 $322 $403 #
straight-curve $-1 -1 $-1 0 5.0000000000000027 40 -1 0 0 I I #
vertex $-1 -1 $-1 $317 $404 #
straight-curve $-1 -1 $-1 0 5.0000000000000027 -40 1 0 0 I I #
coedge $-1 -1 $-1 $238 $237 $387 $405 reversed $239 $-1 #
coedge $-1 -1 $-1 $303 $385 $237 $333 forward $386 $-1 #
edge $-1 -1 $-1 $406 -5 $164 0 $237 $330 forward @7 unknown #
face $-1 -1 $-1 $-1 $379 $25 $-1 $210 reversed single #
vertex $-1 -1 $-1 $242 $407 #
plane-surface $-1 -1 $-1 5 0 0 -1 0 0 0 0 1 forward_v I I I I #
coedge $-1 -1 $-1 $249 $247 $251 $341 reversed $168 $-1 #
edge $-1 -1 $-1 $262 -40 $343 40 $261 $408 forward @7 unknown #
vertex $-1 -1 $-1 $341 $409 #
straight-curve $-1 -1 $-1 -5 -5.0000000000000027 0 0 0 -1 I I #
edge $-1 -1 $-1 $339 -5.0000000000000027 $343 5.0000000000000027 $337 $410 forward @7 unknown #
straight-curve $-1 -1 $-1 0 -5.0000000000000027 -40 -1 0 0 I I #
vertex $-1 -1 $-1 $254 $411 #
straight-curve $-1 -1 $-1 0 5.0000000000000027 -40 1 0 0 I I #
point $-1 -1 $-1 5 5.0000000000000027 -40 #
point $-1 -1 $-1 5 -5.0000000000000027 -40 #
straight-curve $-1 -1 $-1 -5 0 40 0 -1 0 I I #
point $-1 -1 $-1 -5 5.0000000000000027 40 #
point $-1 -1 $-1 -5 -5.0000000000000027 40 #
straight-curve $-1 -1 $-1 5 -5.0000000000000027 0 0 0 -1 I I #
straight-curve $-1 -1 $-1 5 5.0000000000000027 0 0 0 -1 I I #
vertex $-1 -1 $-1 $272 $412 #
ellipse-curve $-1 -1 $-1 0 0 0.5 0 0 1 5 0 0 1 I I #
point $-1 -1 $-1 5 0 -0.5 #
vertex $-1 -1 $-1 $277 $413 #
ellipse-curve $-1 -1 $-1 0 0 0.5 0 0 1 5 0 0 1 I I #
point $-1 -1 $-1 5 0 -0.5 #
attrib_edge_convexity-kcp-attrib $-1 -1 $414 $-1 $282 1 #
vertex $-1 -1 $-1 $282 $415 #
ellipse-curve $416 -1 $-1 80.000000000000099 -2.2757879133407899e-014 -36 0 6.1232329394368604e-017 1 -4 0 0 1 I I #
convexity-sys-attrib $-1 -1 $417 $283 $203 #
point $-1 -1 $-1 75.000000000000099 -2.26966468040136e-014 -35 #
cur-twe-attrib $-1 -1 $-1 $-1 $285 61 #
edge_name-twe-attrib $-1 -1 $-1 $286 $144 2 8448 #
face $-1 -1 $-1 $312 $418 $25 $-1 $394 forward single #
loop $-1 -1 $-1 $-1 $307 $289 #
plane-surface $-1 -1 $-1 -5 0 0 1 0 0 0 0 -1 forward_v I I I I #
coedge $-1 -1 $-1 $293 $292 $419 $420 reversed $149 $-1 #
coedge $-1 -1 $-1 $421 $422 $423 $297 forward $424 $-1 #
coedge $-1 -1 $-1 $371 $294 $422 $383 forward $372 $-1 #
coedge $-1 -1 $-1 $294 $370 $389 $425 forward $372 $-1 #
loop $-1 -1 $-1 $-1 $294 $426 #
coedge $-1 -1 $-1 $427 $428 $296 $374 forward $429 $-1 #
edge $-1 -1 $-1 $233 1.2246063538223773e-016 $375 1.5707963267948968 $373 $223 forward @7 unknown #
vertex $-1 -1 $-1 $430 $431 #
straight-curve $-1 -1 $-1 0 -5.0000000000000027 40 0 6.1232329394368604e-017 1 I I #
coedge $-1 -1 $-1 $432 $298 $428 $433 reversed $379 $-1 #
coedge $-1 -1 $-1 $298 $432 $299 $319 reversed $379 $-1 #
loop $-1 -1 $-1 $-1 $298 $334 #
coedge $-1 -1 $-1 $434 $423 $300 $381 reversed $435 $-1 #
edge $-1 -1 $-1 $399 -5 $302 0 $380 $436 forward @7 unknown #
face $-1 -1 $-1 $318 $301 $25 $-1 $398 reversed single #
edge $-1 -1 $-1 $302 0 $437 5 $422 $436 forward @7 unknown #
point $-1 -1 $-1 0 -5.0000000000000036 -40 #
coedge $-1 -1 $-1 $332 $303 $306 $388 forward $386 $-1 #
loop $-1 -1 $-1 $-1 $303 $397 #
coedge $-1 -1 $-1 $306 $305 $331 $405 forward $308 $-1 #
edge $-1 -1 $-1 $309 -2.3297754803050886e-015 $406 5.0000000000000027 $306 $438 forward @7 unknown #
coedge $-1 -1 $-1 $439 $307 $371 $425 reversed $366 $-1 #
coedge $-1 -1 $-1 $307 $439 $440 $313 reversed $366 $-1 #
face $-1 -1 $-1 $240 $308 $25 $-1 $367 reversed single #
point $-1 -1 $-1 -5 -2.3297754803050886e-015 -40 #
straight-curve $-1 -1 $-1 -5 0 40 0 -1 0 I I #
plane-surface $-1 -1 $-1 0 0 40 0 0 1 1 0 0 forward_v I I I I #
vertex $-1 -1 $-1 $313 $441 #
straight-curve $-1 -1 $-1 5 0 -40 0 -1 0 I I #
face $-1 -1 $-1 $442 $386 $25 $-1 $398 reversed single #
plane-surface $-1 -1 $-1 0 0 -40 0 0 1 1 0 0 forward_v I I I I #
vertex $-1 -1 $-1 $443 $444 #
straight-curve $-1 -1 $-1 5 0 40 0 1 0 I I #
face $-1 -1 $-1 $445 $429 $25 $-1 $394 forward single #
straight-curve $-1 -1 $-1 5 5.0000000000000027 0 0 0 -1 I I #
point $-1 -1 $-1 5 5.0000000000000027 40 #
point $-1 -1 $-1 5 5.0000000000000027 -40 #
edge $-1 -1 $-1 $335 -40 $406 40 $331 $446 forward @7 unknown #
vertex $-1 -1 $-1 $333 $447 #
point $-1 -1 $-1 -5 5.0000000000000027 40 #
straight-curve $-1 -1 $-1 -5 5.0000000000000027 0 0 0 -1 I I #
point $-1 -1 $-1 -5 -5.0000000000000027 -40 #
straight-curve $-1 -1 $-1 -5 0 -40 0 1 0 I I #
point $-1 -1 $-1 -5 5.0000000000000027 -40 #
point $-1 -1 $-1 5 0 0.5 #
point $-1 -1 $-1 5 0 0.5 #
convexity-sys-attrib $-1 -1 $448 $358 $282 #
point $-1 -1 $-1 76.000000000000099 -2.2757879133407899e-014 -36 #
cur-twe-attrib $-1 -1 $-1 $-1 $360 65 #
edge_name-twe-attrib $-1 -1 $-1 $361 $203 3 8448 #
loop $-1 -1 $-1 $-1 $419 $365 #
coedge $-1 -1 $-1 $440 $449 $368 $420 forward $418 $-1 #
edge $-1 -1 $-1 $375 1.5707963267948968 $222 3.1415926535897931 $419 $223 forward @7 unknown #
coedge $-1 -1 $-1 $450 $369 $449 $451 reversed $424 $-1 #
coedge $-1 -1 $-1 $369 $450 $370 $383 reversed $424 $-1 #
coedge $-1 -1 $-1 $380 $452 $212 $297 reversed $435 $-1 #
loop $-1 -1 $-1 $-1 $369 $442 #
edge $-1 -1 $-1 $437 -5.0000000000000027 $309 -2.3297754803050886e-015 $389 $438 forward @7 unknown #
face $-1 -1 $-1 $382 $372 $25 $-1 $398 reversed single #
coedge $-1 -1 $-1 $428 $373 $452 $430 forward $429 $-1 #
coedge $-1 -1 $-1 $373 $427 $377 $433 forward $429 $-1 #
loop $-1 -1 $-1 $-1 $373 $401 #
edge $-1 -1 $-1 $375 0 $453 5 $452 $454 forward @7 unknown #
point $-1 -1 $-1 0 -5.0000000000000027 40 #
coedge $-1 -1 $-1 $378 $377 $434 $443 forward $379 $-1 #
edge $-1 -1 $-1 $453 -5.0000000000000027 $233 2.5688108712443995e-015 $377 $400 forward @7 unknown #
coedge $-1 -1 $-1 $452 $380 $432 $443 reversed $435 $-1 #
loop $-1 -1 $-1 $-1 $423 $445 #
straight-curve $-1 -1 $-1 0 -5.0000000000000027 -40 -1 0 0 I I #
vertex $-1 -1 $-1 $425 $455 #
straight-curve $-1 -1 $-1 -5 0 -40 0 1 0 I I #
coedge $-1 -1 $-1 $390 $389 $450 $456 reversed $366 $-1 #
coedge $-1 -1 $-1 $449 $419 $390 $313 forward $418 $-1 #
point $-1 -1 $-1 -5 -5.0000000000000027 40 #
face $-1 -1 $-1 $391 $424 $25 $-1 $457 reversed single #
edge $-1 -1 $-1 $453 -40 $399 40 $432 $458 forward @7 unknown #
point $-1 -1 $-1 5 -5.0000000000000027 -40 #
face $-1 -1 $-1 $426 $435 $25 $-1 $457 reversed single #
straight-curve $-1 -1 $-1 -5 5.0000000000000027 0 0 0 -1 I I #
point $-1 -1 $-1 -5 5.0000000000000027 -40 #
edge_name-twe-attrib $-1 -1 $-1 $414 $282 4 8448 #
coedge $-1 -1 $-1 $419 $440 $421 $451 forward $418 $-1 #
coedge $-1 -1 $-1 $422 $421 $439 $456 forward $424 $-1 #
edge $-1 -1 $-1 $395 -5 $375 0 $421 $454 forward @7 unknown #
coedge $-1 -1 $-1 $423 $434 $427 $430 reversed $435 $-1 #
vertex $-1 -1 $-1 $433 $459 #
straight-curve $-1 -1 $-1 0 -5.0000000000000027 40 1 0 0 I I #
point $-1 -1 $-1 -5 -5.0000000000000027 -40 #
edge $-1 -1 $-1 $395 -40 $437 40 $439 $460 forward @7 unknown #
plane-surface $-1 -1 $-1 0 -5.0000000000000027 0 0 1 0 0 0 1 forward_v I I I I #
straight-curve $-1 -1 $-1 5 -5.0000000000000027 0 0 0 -1 I I #
point $-1 -1 $-1 5 -5.0000000000000027 40 #
straight-curve $-1 -1 $-1 -5 -5.0000000000000027 0 0 0 -1 I I #
End-of-ACIS-data 