#define _width 66
#define _height 255
static char _bits[] = {
 0x00,0xc0,0xff,0x03,0x00,0x00,0x00,0x00,0x00,0x00,0x38,0x00,0x04,0x00,0x00,
 0x00,0x00,0x00,0x00,0x38,0x00,0x04,0x00,0x00,0x00,0x00,0x00,0x00,0x04,0x00,
 0x38,0x00,0x00,0x00,0x00,0x00,0x80,0x03,0x00,0xc0,0x01,0x00,0x00,0x00,0x00,
 0x80,0x03,0x00,0xc0,0x01,0x00,0x00,0x00,0x00,0x70,0x00,0x00,0x00,0x0e,0x00,
 0x00,0x00,0x00,0x70,0x00,0x00,0x00,0x12,0x00,0x00,0x00,0x00,0x70,0x00,0x00,
 0x00,0x12,0x00,0x00,0x00,0x00,0x48,0x00,0x00,0x00,0x12,0x00,0x00,0x00,0x00,
 0x48,0x00,0x00,0x00,0x12,0x00,0x00,0x00,0x00,0x48,0x00,0x00,0x00,0x12,0x00,
 0x00,0x00,0x00,0x88,0x00,0x00,0x00,0x11,0x00,0x00,0x00,0x00,0x08,0x07,0x00,
 0xf8,0x10,0x00,0x00,0x00,0x00,0x08,0x38,0x00,0x07,0x1c,0x00,0x00,0x00,0x00,
 0x08,0x38,0x00,0x07,0x1c,0x00,0x00,0x00,0x00,0x78,0xc0,0xff,0x00,0x1c,0x00,
 0x00,0x00,0x00,0x88,0x03,0x00,0xc0,0x13,0x00,0x00,0x00,0x00,0x88,0x03,0x00,
 0xc0,0x13,0x00,0x00,0x00,0x00,0x08,0x3c,0x00,0x38,0x10,0x00,0x00,0x00,0x00,
 0x08,0xc0,0xff,0x07,0x10,0x00,0x00,0x00,0x00,0x08,0xc0,0xff,0x07,0x10,0x00,
 0x00,0x00,0x00,0x08,0x00,0x00,0x00,0x10,0x00,0x00,0x00,0x00,0x08,0x00,0x00,
 0x00,0x10,0x00,0x00,0x00,0x00,0x08,0x00,0x00,0x00,0x10,0x00,0x00,0x00,0x00,
 0x08,0x00,0x00,0x00,0x10,0x00,0x00,0x00,0x00,0x08,0x00,0x00,0x00,0x10,0x00,
 0x00,0x00,0x00,0x08,0x00,0x00,0x00,0x10,0x00,0x00,0x00,0x00,0x08,0x00,0x00,
 0x00,0x10,0x00,0x00,0x00,0x00,0x08,0x00,0x00,0x00,0x10,0x00,0x00,0x00,0x00,
 0x08,0x00,0x00,0x00,0x10,0x00,0x00,0x00,0x00,0x08,0x00,0x00,0x00,0x10,0x00,
 0x00,0x00,0x00,0x08,0x00,0x00,0x00,0x10,0x00,0x00,0x00,0x00,0x08,0x00,0x00,
 0x00,0x10,0x00,0x00,0x00,0x00,0x08,0x00,0x00,0x00,0x10,0x00,0x00,0x00,0x00,
 0x08,0x00,0x00,0x00,0x10,0x00,0x00,0x00,0x00,0x08,0x00,0x00,0x00,0x10,0x00,
 0x00,0x00,0x00,0x08,0x00,0x00,0x00,0x10,0x00,0x00,0x00,0x00,0x08,0x00,0x00,
 0x00,0x10,0x00,0x00,0x00,0x00,0x08,0x00,0x00,0x00,0x10,0x00,0x00,0x00,0x00,
 0x08,0x00,0x00,0x00,0x10,0x00,0x00,0x00,0x00,0x08,0x00,0x00,0x00,0x10,0x00,
 0x00,0x00,0x00,0x08,0x00,0x00,0x00,0x10,0x00,0x00,0x00,0x00,0x08,0x00,0x00,
 0x00,0x10,0x00,0x00,0x00,0x00,0x08,0x00,0x00,0x00,0x10,0x00,0x00,0x00,0x00,
 0x08,0x00,0x00,0x00,0x10,0x00,0x00,0x00,0x00,0x08,0x00,0x00,0x00,0x10,0x00,
 0x00,0x00,0x00,0x08,0x00,0x00,0x00,0x10,0x00,0x00,0x00,0x00,0x08,0x00,0x00,
 0x00,0x10,0x00,0x00,0x00,0x00,0x08,0x00,0x00,0x00,0x10,0x00,0x00,0x00,0x00,
 0x08,0x00,0x00,0x00,0x10,0x00,0x00,0x00,0x00,0x08,0x00,0x00,0x00,0x10,0x00,
 0x00,0x00,0x00,0x08,0x00,0x00,0x00,0x10,0x00,0x00,0x00,0x00,0x08,0x00,0x00,
 0x00,0x10,0x00,0x00,0x00,0x00,0x08,0x00,0x00,0x00,0x10,0x00,0x00,0x00,0x00,
 0x08,0x00,0x00,0x00,0x10,0x00,0x00,0x00,0x00,0x08,0x00,0x00,0x00,0x10,0x00,
 0x00,0x00,0x00,0x08,0x00,0x00,0x00,0x10,0x00,0x00,0x00,0x00,0x08,0x00,0x00,
 0x00,0x10,0x00,0x00,0x00,0x00,0x08,0x00,0x00,0x00,0x10,0x00,0x00,0x00,0x00,
 0x08,0x00,0x00,0x00,0x10,0x00,0x00,0x00,0x00,0x08,0x00,0x00,0x00,0x10,0x00,
 0x00,0x00,0x00,0x08,0x00,0x00,0x00,0x10,0x00,0x00,0x00,0x00,0x08,0x00,0x00,
 0x00,0x10,0x00,0x00,0x00,0x00,0x08,0x00,0x00,0x00,0x10,0x00,0x00,0x00,0x00,
 0x08,0x00,0x00,0x00,0x10,0x00,0x00,0x00,0x00,0x08,0x00,0x00,0x00,0x10,0x00,
 0x00,0x00,0x00,0x08,0x00,0x00,0x00,0x10,0x00,0x00,0x00,0x00,0x08,0x00,0x00,
 0x00,0x10,0x00,0x00,0x00,0x00,0x08,0x00,0x00,0x00,0x10,0x00,0x00,0x00,0x00,
 0x08,0x00,0x00,0x00,0x10,0x00,0x00,0x00,0x00,0x08,0x00,0x00,0x00,0x10,0x00,
 0x00,0x00,0x00,0x08,0x00,0x00,0x00,0x10,0x00,0x00,0x00,0x00,0x08,0x00,0x00,
 0x00,0x10,0x00,0x00,0x00,0x00,0x08,0x00,0x00,0x00,0x10,0x00,0x00,0x00,0x00,
 0x08,0x00,0x00,0x00,0x10,0x00,0x00,0x00,0x00,0x08,0x00,0x00,0x00,0x10,0x00,
 0x00,0x00,0x00,0x08,0x00,0x00,0x00,0x10,0x00,0x00,0x00,0x00,0x08,0x00,0x00,
 0x00,0x10,0x00,0x00,0x00,0x00,0x08,0x00,0x00,0x00,0x10,0x00,0x00,0x00,0x00,
 0x08,0x00,0x00,0x00,0x10,0x00,0x00,0x00,0x00,0x08,0x00,0x00,0x00,0x10,0x00,
 0x00,0x00,0x00,0x08,0x00,0x00,0x00,0x10,0x00,0x00,0x00,0x00,0x08,0x00,0x00,
 0x00,0x10,0x00,0x00,0x00,0x00,0x08,0x00,0x00,0x00,0x10,0x00,0x00,0x00,0x00,
 0x08,0x00,0x00,0x00,0x10,0x00,0x00,0x00,0x00,0x08,0x00,0x00,0x00,0x10,0x00,
 0x00,0x00,0x00,0x08,0x00,0x00,0x00,0x10,0x00,0x00,0x00,0x00,0x08,0x00,0x00,
 0x00,0x10,0x00,0x00,0x00,0x00,0x08,0x00,0x00,0x00,0x10,0x00,0x00,0x00,0x00,
 0x08,0x00,0x00,0x00,0x10,0x00,0x00,0x00,0x00,0x08,0x00,0x00,0x00,0x10,0x00,
 0x00,0x00,0x00,0x08,0x00,0x00,0x00,0x10,0x00,0x00,0x00,0x00,0x08,0x00,0x00,
 0x00,0x10,0x00,0x00,0x00,0x00,0x08,0x00,0x00,0x00,0x10,0x00,0x00,0x00,0x00,
 0x08,0x00,0x00,0x00,0x10,0x00,0x00,0x00,0x00,0x08,0x00,0x00,0x00,0x10,0x00,
 0x00,0x00,0x00,0x08,0x00,0x00,0x00,0x10,0x00,0x00,0x00,0x00,0x08,0x00,0x00,
 0x00,0x10,0x00,0x00,0x00,0x00,0x08,0x00,0x00,0x00,0x10,0x00,0x00,0x00,0x00,
 0x08,0x00,0x00,0x00,0x10,0x00,0x00,0x00,0x00,0x08,0x00,0x00,0x00,0x10,0x00,
 0x00,0x00,0x00,0x08,0x00,0x00,0x00,0x10,0x00,0x00,0x00,0x00,0x08,0x00,0x00,
 0x00,0x10,0x00,0x00,0x00,0x00,0x08,0x00,0x00,0x00,0x10,0x00,0x00,0x00,0x00,
 0x08,0x00,0x00,0x00,0x10,0x00,0x00,0x00,0x00,0x08,0x00,0x00,0x00,0x10,0x00,
 0x00,0x00,0x00,0x08,0x00,0x00,0x00,0x10,0x00,0x00,0x00,0x00,0x08,0x00,0x00,
 0x00,0x10,0x00,0x00,0x00,0x00,0x08,0x00,0x00,0x00,0x10,0x00,0x00,0x00,0x00,
 0x08,0x00,0x00,0x00,0x10,0x00,0x00,0x00,0x00,0x08,0x00,0x00,0x00,0x10,0x00,
 0x00,0x00,0x00,0x08,0x00,0x00,0x00,0x10,0x00,0x00,0x00,0x00,0x08,0x00,0x00,
 0x00,0x10,0x00,0x00,0x00,0x00,0x08,0x00,0x00,0x00,0x10,0x00,0x00,0x00,0x00,
 0x08,0x00,0x00,0x00,0x10,0x00,0x00,0x00,0x00,0x08,0x00,0x00,0x00,0x10,0x00,
 0x00,0x00,0x00,0x08,0x00,0x00,0x00,0x10,0x00,0x00,0x00,0x00,0x08,0x00,0x00,
 0x00,0x10,0x00,0x00,0x00,0x00,0x08,0x00,0x00,0x00,0x10,0x00,0x00,0x00,0x00,
 0x08,0x00,0x00,0x00,0x10,0x00,0x00,0x00,0x00,0x08,0x00,0x00,0x00,0x10,0x00,
 0x00,0x00,0x00,0x08,0x00,0x00,0x00,0x10,0x00,0x00,0x00,0x00,0x08,0x00,0x00,
 0x00,0x10,0x00,0x00,0x00,0x00,0x08,0x00,0x00,0x00,0x10,0x00,0x00,0x00,0x00,
 0x08,0x00,0x00,0x00,0x10,0x00,0x00,0x00,0x00,0x08,0x00,0x00,0x00,0x10,0x00,
 0x00,0x00,0x00,0x08,0x00,0x00,0x00,0x10,0x00,0x00,0x00,0x00,0x08,0x00,0x00,
 0x00,0x10,0x00,0x00,0x00,0x00,0x08,0x00,0x00,0x00,0x10,0x00,0x00,0x00,0x00,
 0x08,0x00,0x00,0x00,0x10,0x00,0x00,0x00,0x00,0x08,0x00,0x00,0x00,0x10,0x00,
 0x00,0x00,0x00,0x08,0x00,0x00,0x00,0x10,0x00,0x00,0x00,0x00,0x08,0x00,0x00,
 0x00,0x10,0x00,0x00,0x00,0x00,0x08,0x00,0x00,0x00,0x10,0x00,0x00,0x00,0x00,
 0x08,0x00,0x00,0x00,0x10,0x00,0x00,0x00,0x00,0x08,0x00,0x00,0x00,0x10,0x00,
 0x00,0x00,0x00,0x08,0x00,0x00,0x00,0x10,0x00,0x00,0x00,0x00,0x08,0x00,0x00,
 0x00,0x10,0x00,0x00,0x00,0x00,0x08,0x00,0x00,0x00,0x10,0x00,0x00,0x00,0x00,
 0x08,0x00,0x00,0x00,0x10,0x00,0x00,0x00,0x00,0x08,0x00,0x00,0x00,0x10,0x00,
 0x00,0x00,0x00,0x08,0x00,0x00,0x00,0x10,0x00,0x00,0x00,0x00,0x08,0x00,0x00,
 0x00,0x10,0x00,0x00,0x00,0x00,0x08,0x00,0x00,0x00,0x10,0x00,0x00,0x00,0x00,
 0x08,0x00,0x00,0x00,0x10,0x00,0x00,0x00,0x00,0x08,0x00,0x00,0x00,0x10,0x00,
 0x00,0x00,0x00,0x08,0x00,0x00,0x00,0x10,0x00,0x00,0x00,0x00,0x08,0x00,0x00,
 0x00,0x10,0x00,0x00,0x00,0x00,0x08,0x00,0x00,0x00,0x10,0x00,0x00,0x00,0x00,
 0x08,0x00,0x00,0x00,0x10,0x00,0x00,0x00,0x00,0x08,0x00,0x00,0x00,0x10,0x00,
 0x00,0x00,0x00,0x08,0x00,0x00,0x00,0x10,0x00,0x00,0x00,0x00,0x08,0x00,0x00,
 0x00,0x10,0x00,0x00,0x00,0x00,0x08,0x00,0x00,0x00,0x10,0x00,0x00,0x00,0x00,
 0x08,0x00,0x00,0x00,0x10,0x00,0x00,0x00,0x00,0x08,0x00,0x00,0x00,0x10,0x00,
 0x00,0x00,0x00,0x08,0x00,0x00,0x00,0x10,0x00,0x00,0x00,0x00,0x08,0x00,0x00,
 0x00,0x10,0x00,0x00,0x00,0x00,0x08,0x00,0x00,0x00,0x10,0x00,0x00,0x00,0x00,
 0x08,0x00,0x00,0x00,0x10,0x00,0x00,0x00,0x00,0x08,0x00,0x00,0x00,0x10,0x00,
 0x00,0x00,0x00,0x08,0x00,0x00,0x00,0x10,0x00,0x00,0x00,0x00,0x08,0x00,0x00,
 0x00,0x10,0x00,0x00,0x00,0x00,0x08,0x00,0x00,0x00,0x10,0x00,0x00,0x00,0x00,
 0x08,0x00,0x00,0x00,0x10,0x00,0x00,0x00,0x00,0x08,0x00,0x00,0x00,0x10,0x00,
 0x00,0x00,0x00,0x08,0x00,0x00,0x00,0x10,0x00,0x00,0x00,0x00,0x08,0x00,0x00,
 0x00,0x10,0x00,0x00,0x00,0x00,0x08,0x00,0x00,0x00,0x10,0x00,0x00,0x00,0x00,
 0x08,0x00,0x00,0x00,0x10,0x00,0x00,0x00,0x00,0x08,0x00,0x00,0x00,0x10,0x00,
 0x00,0x00,0x00,0x08,0x00,0x00,0x00,0x10,0x00,0x00,0x00,0x00,0x08,0x00,0x00,
 0x00,0x10,0x00,0x00,0x00,0x00,0x08,0x00,0x00,0x00,0x10,0x00,0x00,0x00,0x00,
 0x08,0x00,0x00,0x00,0x10,0x00,0x00,0x00,0x00,0x08,0x00,0x00,0x00,0x10,0x00,
 0x00,0x00,0x00,0x08,0x00,0x00,0x00,0x10,0x00,0x00,0x00,0x00,0x08,0x00,0x00,
 0x00,0x10,0x00,0x00,0x00,0x00,0x08,0x00,0x00,0x00,0x10,0x00,0x00,0x00,0x00,
 0x08,0x00,0x00,0x00,0x10,0x00,0x00,0x00,0x00,0x08,0x00,0x00,0x00,0x10,0x00,
 0x00,0x00,0x00,0x08,0x00,0x00,0x00,0x10,0x00,0x00,0x00,0x00,0x08,0x00,0x00,
 0x00,0x10,0x00,0x00,0x00,0x00,0x08,0x00,0x00,0x00,0x10,0x00,0x00,0x00,0x00,
 0x08,0x00,0x00,0x00,0x10,0x00,0x00,0x00,0x00,0x08,0x00,0x00,0x00,0x10,0x00,
 0x00,0x00,0x00,0x08,0x00,0x00,0x00,0x10,0x00,0x00,0x00,0x00,0x08,0x00,0x00,
 0x00,0x10,0x00,0x00,0x00,0x00,0x08,0x00,0x00,0x00,0x10,0x00,0x00,0x00,0x00,
 0x08,0x00,0x00,0x00,0x10,0x00,0x00,0x00,0x00,0x08,0x00,0x00,0x00,0x10,0x00,
 0x00,0x00,0x00,0x08,0x00,0x00,0x00,0x10,0x00,0x00,0x00,0x00,0x08,0x00,0x00,
 0x00,0x10,0x00,0x00,0x00,0x00,0x08,0x00,0x00,0x00,0x10,0x00,0x00,0x00,0x00,
 0x08,0x00,0x00,0x00,0x10,0x00,0x00,0x00,0x00,0x08,0x00,0x00,0x00,0x10,0x00,
 0x00,0x00,0x00,0x08,0x00,0x00,0x00,0x10,0x00,0x00,0x00,0x00,0x08,0x00,0x00,
 0x00,0x10,0x00,0x00,0x00,0x00,0x08,0x00,0x00,0x00,0x10,0x00,0x00,0x00,0x00,
 0x08,0x00,0x00,0x00,0x10,0x00,0x00,0x00,0x00,0x08,0x00,0x00,0x00,0x10,0x00,
 0x00,0x00,0x00,0x08,0x00,0x00,0x00,0x10,0x00,0x00,0x00,0x00,0x08,0x00,0x00,
 0x00,0x10,0x00,0x00,0x00,0x00,0x08,0x00,0x00,0x00,0x10,0x00,0x00,0x00,0x00,
 0x08,0x00,0x00,0x00,0x10,0x00,0x00,0x00,0x00,0x08,0x00,0x00,0x00,0x10,0x00,
 0x00,0x00,0x00,0x08,0x00,0x00,0x00,0x10,0x00,0x00,0x00,0x00,0x08,0x00,0x00,
 0x00,0x10,0x00,0x00,0x00,0x00,0x08,0x00,0x00,0x00,0x10,0x00,0x00,0x00,0x00,
 0x08,0x00,0x00,0x00,0x10,0x00,0x00,0x00,0x00,0x08,0x00,0x00,0x00,0x10,0x00,
 0x00,0x00,0x00,0x08,0x00,0x00,0x00,0x10,0x00,0x00,0x00,0x00,0x08,0x00,0x00,
 0x00,0x10,0x00,0x00,0x00,0x00,0x08,0x00,0x00,0x00,0x10,0x00,0x00,0x00,0x00,
 0x08,0x00,0x00,0x00,0x10,0x00,0x00,0x00,0x00,0x08,0x00,0x00,0x00,0x10,0x00,
 0x00,0x00,0x00,0x08,0x00,0x00,0x00,0x10,0x00,0x00,0x00,0x00,0x08,0x00,0x00,
 0x00,0x10,0x00,0x00,0x00,0x00,0x08,0x00,0x00,0x00,0x10,0x00,0x00,0x00,0x00,
 0x08,0x00,0x00,0x00,0x10,0x00,0x00,0x00,0x00,0x08,0x00,0x00,0x00,0x10,0x00,
 0x00,0x00,0x00,0x08,0x00,0x00,0x00,0x10,0x00,0x00,0x00,0x00,0x08,0x00,0x00,
 0x00,0x10,0x00,0x00,0x00,0x00,0x08,0x00,0x00,0x00,0x10,0x00,0x00,0x00,0x00,
 0x08,0x00,0x00,0x00,0x10,0x00,0x00,0x00,0x00,0x08,0x00,0x00,0x00,0x10,0x00,
 0x00,0x00,0x00,0x08,0x00,0x00,0x00,0x10,0x00,0x00,0x00,0x00,0x08,0x00,0x00,
 0x00,0x10,0x00,0x00,0x00,0x00,0x08,0x00,0x00,0x00,0x10,0x00,0x00,0x00,0x00,
 0x08,0x00,0x00,0x00,0x10,0x00,0x00,0x00,0x00,0x08,0x00,0x00,0x00,0x10,0x00,
 0x00,0x00,0x00,0x08,0x00,0x00,0x00,0x10,0x00,0x00,0x00,0x00,0x30,0x00,0x00,
 0x00,0x10,0x00,0x00,0x00,0x00,0x30,0x00,0x00,0x00,0x10,0x00,0x00,0x00,0x00,
 0x30,0x00,0x00,0x00,0x0e,0x00,0x00,0x00,0x00,0xc0,0x03,0x00,0xc0,0x01,0x00,
 0x00,0x00,0x00,0xc0,0x03,0x00,0xc0,0x01,0x00,0x00,0x00,0x00,0x00,0x1f,0x00,
 0xfc,0x00,0x00,0x00,0x00,0x00,0x00,0xe0,0xff,0x1f,0x00,0x00,0x00,0x00,0x00,
 0x00,0xe0,0xff,0x1f,0x00,0x00,0x00,0x00,0x00,0x00,0x00,0x78,0x00,0x00,0x00,
 0x00,0x00,0x00,0x7f,0xc0,0x0f,0x03,0xfc,0xf7,0x1f,0x01,0x02,0x81,0x20,0x10,
 0x03,0x00,0x34,0x00,0x07,0x02,0x81,0x20,0x10,0x03,0x00,0x34,0x00,0x07,0x02,
 0x81,0x18,0x60,0x03,0x00,0x33,0x00,0x09,0x02,0x81,0x18,0x60,0x03,0x80,0x30,
 0x00,0x09,0x02,0x81,0x18,0x60,0x03,0x80,0x30,0x00,0x09,0x02,0x7f,0x18,0x60,
 0x03,0xe0,0xf0,0x1f,0x31,0x02,0x81,0x18,0x60,0x03,0x60,0x30,0x00,0x41,0x02,
 0x81,0x18,0x60,0x03,0x60,0x30,0x00,0x41,0x02,0x81,0x18,0x60,0x03,0x10,0x30,
 0x00,0x41,0x02,0x81,0x20,0x10,0x03,0x0c,0x30,0x00,0x81,0x03,0x7f,0xc0,0x0f,
 0xff,0xfc,0xf7,0x1f,0x01,0x02,0x7f,0xc0,0x0f,0xff,0xfc,0xf7,0x1f,0x01,0x02};
