104 78 0 0                              
body $1 $2 $-1 $3 #
brep_non_volatile_id-cdc-attrib $-1 $-1 $-1 $0 1 #
lump $-1 $-1 $4 $0 #
transform $-1 1 0 0 0 1 0 0 0 1 0 0 0 1 0 0 0 #
shell $-1 $-1 $-1 $5 $2 #
face $6 $7 $8 $4 $-1 $9 0 #
face_name-twe-attrib $-1 $10 $-1 $5 1 #
face $11 $12 $13 $4 $-1 $14 0 #
loop $15 $-1 $16 $5 #
plane-surface $17 78.0000000000001 -1.78592927818585e-14 44 0 6.12323293943686e-17 1 0 -1 6.12323293943686e-17 0 #
primitive_order-cdc-attrib $-1 $-1 $6 $5 0 8 #
face_name-twe-attrib $-1 $18 $-1 $7 2 #
face $19 $20 $21 $4 $-1 $22 0 #
loop $23 $24 $25 $7 #
cone-surface $26 80.0000000000001 -1.78899089465556e-14 43.5 0 6.12323293943686e-17 1 -4.5 0 0 1 -0.707106781186548 0.707106781186547 0 #
loop_type-twe-attrib $-1 $-1 $-1 $8 0 #
coedge $-1 $16 $16 $25 $27 0 $8 $-1 #
surf-twe-attrib $-1 $-1 $-1 $9 5 #
primitive_order-cdc-attrib $-1 $-1 $11 $7 0 8 #
face_name-twe-attrib $-1 $28 $-1 $12 3 #
face $29 $30 $31 $4 $-1 $32 0 #
loop $33 $34 $35 $12 #
cone-surface $36 80.0000000000001 -2.03085859576332e-14 4 0 6.12323293943686e-17 1 -5 0 0 1 0 1 0 #
loop_type-twe-attrib $-1 $-1 $-1 $13 0 #
loop $37 $-1 $38 $7 #
coedge $-1 $25 $25 $16 $27 1 $13 $-1 #
surf-twe-attrib $-1 $-1 $-1 $14 7 #
edge $39 $40 $40 $16 $41 0 #
primitive_order-cdc-attrib $-1 $-1 $19 $12 0 8 #
face_name-twe-attrib $-1 $42 $-1 $20 4 #
face $43 $-1 $44 $4 $-1 $45 0 #
loop $46 $47 $48 $20 #
cone-surface $49 80.0000000000001 -2.27272629687108e-14 -35.5 0 6.12323293943686e-17 1 -4.5 0 0 1 0.707106781186548 0.707106781186547 0 #
loop_type-twe-attrib $-1 $-1 $-1 $21 0 #
loop $50 $-1 $51 $12 #
coedge $-1 $35 $35 $38 $52 1 $21 $-1 #
surf-twe-attrib $-1 $-1 $-1 $22 12 #
loop_type-twe-attrib $-1 $-1 $-1 $24 1 #
coedge $-1 $38 $38 $35 $52 0 $24 $-1 #
edge_name-twe-attrib $-1 $-1 $-1 $27 1 8448 #
vertex $-1 $27 $53 #
ellipse-curve $54 80.0000000000001 -1.78592927818585e-14 44 0 6.12323293943686e-17 1 -4 0 0 1 #
primitive_order-cdc-attrib $-1 $-1 $29 $20 0 8 #
face_name-twe-attrib $-1 $55 $-1 $30 5 #
loop $56 $-1 $57 $30 #
plane-surface $58 78.0000000000001 -2.27578791334079e-14 -36 0 -6.12323293943686e-17 -1 0 1 -6.12323293943686e-17 0 #
loop_type-twe-attrib $-1 $-1 $-1 $31 0 #
loop $59 $-1 $60 $20 #
coedge $-1 $48 $48 $51 $61 1 $31 $-1 #
surf-twe-attrib $-1 $-1 $-1 $32 20 #
loop_type-twe-attrib $-1 $-1 $-1 $34 1 #
coedge $-1 $51 $51 $48 $61 0 $34 $-1 #
edge $62 $63 $63 $38 $64 0 #
point $-1 76.0000000000001 -1.78592927818585e-14 44 #
cur-twe-attrib $-1 $-1 $-1 $41 27 #
primitive_order-cdc-attrib $-1 $-1 $43 $30 0 8 #
loop_type-twe-attrib $-1 $-1 $-1 $44 0 #
coedge $-1 $57 $57 $60 $65 1 $44 $-1 #
surf-twe-attrib $-1 $-1 $-1 $45 30 #
loop_type-twe-attrib $-1 $-1 $-1 $47 1 #
coedge $-1 $60 $60 $57 $65 0 $47 $-1 #
edge $66 $67 $67 $51 $68 0 #
edge_name-twe-attrib $-1 $-1 $-1 $52 2 8448 #
vertex $-1 $52 $69 #
ellipse-curve $70 80.0000000000001 -1.79205251112528e-14 43 0 6.12323293943686e-17 1 -5 0 0 1 #
edge $71 $72 $72 $60 $73 0 #
edge_name-twe-attrib $-1 $-1 $-1 $61 3 8448 #
vertex $-1 $61 $74 #
ellipse-curve $75 80.0000000000001 -2.26966468040136e-14 -35 0 6.12323293943686e-17 1 -5 0 0 1 #
point $-1 75.0000000000001 -1.79205251112528e-14 43 #
cur-twe-attrib $-1 $-1 $-1 $64 52 #
edge_name-twe-attrib $-1 $-1 $-1 $65 4 8448 #
vertex $-1 $65 $76 #
ellipse-curve $77 80.0000000000001 -2.27578791334079e-14 -36 0 6.12323293943686e-17 1 -4 0 0 1 #
point $-1 75.0000000000001 -2.26966468040136e-14 -35 #
cur-twe-attrib $-1 $-1 $-1 $68 61 #
point $-1 76.0000000000001 -2.27578791334079e-14 -36 #
cur-twe-attrib $-1 $-1 $-1 $73 65 #
