600 0 2 0           
24 FBMach with ACIS - 6.0.3 13 ACIS 6.0.3 NT 24 Tue May 22 15:34:08 2001 
1 9.9999999999999995e-007 1e-010 
body $2 $3 $-1 $4 #
bdycol-kcp $-1 1 3 $5 $6 $7 #
model_id-kcp-attrib $-1 $-1 $-1 $0 1 990560048 40 1126694913 1 #
lump $-1 $-1 $8 $0 #
transform $-1 1 0 0 0 1 0 0 0 1 0 0 0 1 no_rotate no_reflect no_shear #
body $9 $10 $-1 $11 #
body $12 $13 $-1 $14 #
body $15 $16 $-1 $17 #
shell $-1 $-1 $-1 $18 $-1 $3 #
model_id-kcp-attrib $-1 $-1 $-1 $5 1 990560048 40 1126694914 1 #
lump $-1 $-1 $19 $5 #
transform $-1 1 0 0 0 1 0 0 0 1 0 0 0.047 1 no_rotate no_reflect no_shear #
rgb_color-st-attrib $-1 $20 $-1 $6 0.5 1 1 #
lump $-1 $-1 $21 $6 #
transform $-1 -1 0 -1.2246063538223773e-016 0 1 0 1.2246063538223773e-016 0 -1 5.7556498629651732e-018 0 0.047 1 rotate no_reflect no_shear #
rgb_color-st-attrib $-1 $22 $-1 $7 0.5 1 1 #
lump $-1 $-1 $23 $7 #
transform $-1 1 0 0 0 1 0 0 0 1 0 0 0.047 1 no_rotate no_reflect no_shear #
face $24 $25 $26 $8 $-1 $27 reversed single #
shell $-1 $-1 $-1 $28 $-1 $10 #
model_id-kcp-attrib $-1 $-1 $12 $6 1 990560048 60 1128005635 1 #
shell $-1 $-1 $-1 $29 $-1 $13 #
model_id-kcp-attrib $-1 $-1 $15 $7 1 990560048 90 1129971716 1 #
shell $-1 $-1 $-1 $30 $-1 $16 #
model_id-kcp-attrib $-1 $31 $-1 $18 1 990560048 40 1126694913 6 #
face $32 $33 $34 $8 $-1 $35 forward single #
loop $-1 $36 $37 $18 #
plane-surface $-1 0 0 0 0 0 1 1 0 0 forward_v I I I I #
face $38 $39 $40 $19 $-1 $41 forward single #
face $-1 $42 $43 $21 $-1 $44 forward single #
face $-1 $45 $46 $23 $-1 $47 reversed single #
model_id-kcp-attrib $-1 $-1 $24 $18 1 990560048 40 1126694913 2 #
model_id-kcp-attrib $-1 $48 $-1 $25 1 990560048 40 1126694913 7 #
face $49 $50 $51 $8 $-1 $52 forward single #
loop $-1 $53 $54 $25 #
plane-surface $-1 0 0 0.094 0 0 1 1 0 0 forward_v I I I I #
loop $55 $-1 $56 $18 #
coedge $-1 $37 $37 $57 $58 forward $26 $-1 #
model_id-kcp-attrib $-1 $-1 $-1 $28 1 990560048 40 1126694914 3 #
face $59 $60 $61 $19 $-1 $62 reversed single #
loop $-1 $-1 $63 $28 #
plane-surface $-1 0 0 0.047 0 0 1 1 0 0 forward_v I I I I #
face $-1 $64 $65 $21 $-1 $66 forward single #
loop $-1 $67 $68 $29 #
cone-surface $-1 0 0 0 0 0 1 0.125 0 0 1 I I 0 1 0.125 forward I I I I #
face $-1 $69 $70 $23 $-1 $47 reversed single #
loop $-1 $-1 $71 $30 #
cone-surface $-1 -7.0296596335412692e-034 0 -0.047 0 0 -1 0.1875 0 0 1 I I 0 1 0.1875 forward I I I I #
model_id-kcp-attrib $-1 $-1 $32 $25 1 990560048 40 1126694913 3 #
model_id-kcp-attrib $-1 $-1 $-1 $33 1 990560048 40 1126694913 4 #
face $72 $-1 $73 $8 $-1 $74 reversed single #
loop $-1 $75 $76 $33 #
cone-surface $-1 0 0 0 0 0 1 0.1875 0 0 1 I I 0 1 0.1875 forward I I I I #
loop $77 $-1 $78 $25 #
coedge $-1 $54 $54 $76 $79 reversed $34 $-1 #
model_id-kcp-attrib $-1 $-1 $-1 $36 1 990560048 40 1126694913 11 #
coedge $-1 $56 $56 $80 $81 forward $36 $-1 #
coedge $-1 $57 $57 $37 $58 reversed $75 $-1 #
edge $82 $83 -3.1415926535897931 $83 3.1415926535897931 $57 $84 forward 7 unknown #
model_id-kcp-attrib $-1 $-1 $-1 $39 1 990560048 40 1126694914 2 #
face $-1 $85 $86 $19 $-1 $87 reversed single #
loop $-1 $-1 $88 $39 #
plane-surface $-1 0 0 -0.047 0 0 1 1 0 0 forward_v I I I I #
coedge $-1 $89 $90 $91 $92 forward $40 $-1 #
face $-1 $-1 $93 $21 $-1 $94 forward single #
loop $-1 $-1 $95 $42 #
plane-surface $-1 0 0 -0.047000000000000014 0 0 -1 -1 0 0 forward_v I I I I #
loop $-1 $-1 $96 $29 #
coedge $-1 $68 $68 $95 $97 reversed $43 $-1 #
face $-1 $98 $99 $23 $-1 $47 reversed single #
loop $-1 $-1 $100 $45 #
coedge $-1 $101 $102 $103 $104 forward $46 $-1 #
model_id-kcp-attrib $-1 $-1 $-1 $50 1 990560048 40 1126694913 5 #
loop $105 $106 $107 $50 #
cone-surface $-1 0 0 0.094 0 0 -1 -0.125 0 0 1 I I 0 1 0.125 forward I I I I #
loop $-1 $-1 $57 $33 #
coedge $-1 $76 $76 $54 $79 forward $51 $-1 #
model_id-kcp-attrib $-1 $-1 $-1 $53 1 990560048 40 1126694913 10 #
coedge $-1 $78 $78 $107 $108 reversed $53 $-1 #
edge $-1 $109 0 $109 6.2831853071795862 $76 $110 forward 7 unknown #
coedge $-1 $80 $80 $56 $81 reversed $106 $-1 #
edge $111 $112 -3.1415926535897931 $112 3.1415926535897931 $80 $113 forward 7 unknown #
attrib_edge_convexity-kcp-attrib $-1 $114 $-1 $58 1 #
vertex $-1 $58 $115 #
ellipse-curve $-1 0 0 0 0 0 -1 -0.1875 0 0 1 I I #
face $-1 $116 $117 $19 $-1 $118 reversed single #
loop $-1 $-1 $119 $60 #
plane-surface $-1 0 -0.1875 0 0 1 0 0 0 1 forward_v I I I I #
coedge $-1 $120 $121 $122 $123 forward $61 $-1 #
coedge $-1 $124 $63 $125 $126 forward $40 $-1 #
coedge $-1 $63 $124 $127 $128 forward $40 $-1 #
coedge $-1 $129 $130 $63 $92 reversed $131 $-1 #
edge $-1 $132 -0.1875 $133 0.1875 $91 $134 forward 7 unknown #
loop $-1 $-1 $135 $64 #
plane-surface $-1 0 0 0.047000000000000014 0 0 1 1 0 0 forward_v I I I I #
coedge $-1 $95 $95 $68 $97 forward $65 $-1 #
coedge $-1 $96 $96 $135 $136 reversed $67 $-1 #
edge $-1 $137 0 $137 6.2831853071795862 $95 $138 forward 7 unknown #
face $-1 $139 $140 $23 $-1 $47 reversed single #
loop $-1 $-1 $141 $69 #
coedge $-1 $142 $103 $143 $144 reversed $70 $-1 #
coedge $-1 $145 $71 $146 $147 reversed $46 $-1 #
coedge $-1 $71 $145 $148 $149 reversed $46 $-1 #
coedge $-1 $100 $150 $151 $104 reversed $70 $-1 #
edge $-1 $152 -0.094 $153 0 $151 $154 forward 7 unknown #
model_id-kcp-attrib $-1 $-1 $-1 $73 1 990560048 40 1126694913 8 #
loop $155 $-1 $80 $50 #
coedge $-1 $107 $107 $78 $108 forward $73 $-1 #
edge $156 $157 0 $157 6.2831853071795862 $107 $158 forward 7 unknown #
vertex $-1 $79 $159 #
ellipse-curve $-1 0 0 0.094 0 0 -1 0.1875 0 0 1 I I #
attrib_edge_convexity-kcp-attrib $-1 $160 $-1 $81 1 #
vertex $161 $81 $162 #
ellipse-curve $-1 0 0 0 0 0 1 0.125 0 0 1 I I #
convexity-sys-attrib $-1 $-1 $82 $58 #
point $-1 0.1875 0 0 #
face $-1 $163 $164 $19 $-1 $165 reversed single #
loop $-1 $-1 $166 $85 #
plane-surface $-1 -0.1875 0 0 1 0 0 0 0 -1 forward_v I I I I #
coedge $-1 $167 $127 $168 $169 forward $86 $-1 #
coedge $-1 $170 $88 $167 $171 forward $61 $-1 #
coedge $-1 $88 $170 $172 $173 forward $61 $-1 #
coedge $-1 $130 $129 $88 $123 reversed $131 $-1 #
edge $-1 $174 -0.1875 $175 0.1875 $122 $176 forward 7 unknown #
coedge $-1 $90 $89 $177 $178 forward $40 $-1 #
coedge $-1 $179 $180 $89 $126 reversed $164 $-1 #
edge $-1 $133 -0.1875 $181 0.1875 $125 $182 forward 7 unknown #
coedge $-1 $119 $183 $90 $128 reversed $86 $-1 #
edge $-1 $184 -0.1875 $132 0.1875 $127 $185 forward 7 unknown #
coedge $-1 $122 $91 $183 $186 forward $131 $-1 #
coedge $-1 $91 $122 $179 $187 reversed $131 $-1 #
loop $-1 $-1 $129 $163 #
vertex $-1 $92 $188 #
vertex $-1 $92 $189 #
straight-curve $-1 0.1875 0 0.047 0 1 0 I I #
coedge $-1 $135 $135 $96 $136 forward $93 $-1 #
edge $-1 $190 0 $190 6.2831853071795862 $135 $191 forward 7 unknown #
vertex $-1 $97 $192 #
ellipse-curve $-1 0 0 -0.047000000000000014 0 0 -1 0.125 0 0 1 I I #
face $-1 $193 $194 $23 $-1 $195 reversed single #
loop $-1 $-1 $196 $98 #
coedge $-1 $197 $198 $199 $200 reversed $99 $-1 #
coedge $-1 $150 $100 $201 $202 forward $70 $-1 #
coedge $-1 $203 $204 $100 $144 forward $205 $-1 #
edge $-1 $206 -3.1415926535897931 $152 -1.5707963267948966 $143 $207 forward 7 unknown #
coedge $-1 $102 $101 $208 $209 reversed $46 $-1 #
coedge $-1 $210 $211 $101 $147 forward $212 $-1 #
edge $-1 $213 0 $153 1.5707963267948966 $146 $214 forward 7 unknown #
coedge $-1 $215 $216 $102 $149 forward $217 $-1 #
edge $-1 $152 -1.5707963267948966 $218 0 $148 $207 forward 7 unknown #
coedge $-1 $103 $142 $219 $220 reversed $70 $-1 #
coedge $-1 $221 $222 $223 $104 forward $224 $-1 #
vertex $-1 $225 $226 #
vertex $-1 $227 $228 #
straight-curve $-1 -7.0296596335412692e-034 0.1875 -0.047 0 0 -1 I I #
model_id-kcp-attrib $-1 $-1 $-1 $106 1 990560048 40 1126694913 9 #
attrib_edge_convexity-kcp-attrib $-1 $229 $-1 $108 1 #
vertex $230 $108 $231 #
ellipse-curve $-1 0 0 0.094 0 0 1 -0.125 0 0 1 I I #
point $-1 0.1875 0 0.094 #
convexity-sys-attrib $-1 $-1 $111 $81 #
model_id-kcp-attrib $-1 $-1 $-1 $112 1 990560048 40 1126694913 13 #
point $-1 -0.125 0 0 #
face $-1 $-1 $131 $19 $-1 $232 reversed single #
loop $-1 $-1 $179 $116 #
plane-surface $-1 0 0.1875 0 0 -1 0 0 0 -1 forward_v I I I I #
coedge $-1 $233 $177 $180 $234 forward $117 $-1 #
coedge $-1 $183 $119 $120 $171 reversed $86 $-1 #
coedge $-1 $177 $233 $119 $169 reversed $117 $-1 #
edge $-1 $184 -0.047 $235 0.047 $168 $236 forward 7 unknown #
coedge $-1 $121 $120 $233 $237 forward $61 $-1 #
edge $-1 $175 -0.1875 $235 0.1875 $167 $238 forward 7 unknown #
coedge $-1 $180 $179 $121 $173 reversed $164 $-1 #
edge $-1 $239 -0.1875 $174 0.1875 $172 $240 forward 7 unknown #
vertex $-1 $123 $241 #
vertex $-1 $186 $242 #
straight-curve $-1 0.1875 0 -0.047 0 -1 0 I I #
coedge $-1 $166 $168 $124 $178 reversed $117 $-1 #
edge $-1 $181 -0.1875 $184 0.1875 $177 $243 forward 7 unknown #
coedge $-1 $172 $125 $130 $187 forward $164 $-1 #
coedge $-1 $125 $172 $166 $234 reversed $164 $-1 #
vertex $-1 $126 $244 #
straight-curve $-1 0 0.1875 0.047 -1 0 0 I I #
coedge $-1 $127 $167 $129 $186 reversed $86 $-1 #
vertex $-1 $178 $245 #
straight-curve $-1 0 -0.1875 0.047 1 0 0 I I #
edge $-1 $132 -0.047 $175 0.047 $129 $246 forward 7 unknown #
edge $-1 $133 -0.047 $174 0.047 $130 $247 forward 7 unknown #
point $-1 0.1875 -0.1875 0.047 #
point $-1 0.1875 0.1875 0.047 #
vertex $-1 $136 $248 #
ellipse-curve $-1 0 0 0.047000000000000014 0 0 1 0.125 0 0 1 I I #
point $-1 0.125 0 -0.047000000000000014 #
face $-1 $249 $224 $23 $-1 $250 reversed single #
loop $-1 $-1 $208 $139 #
plane-surface $-1 0.1875 0 0 -1 0 0 0 0 1 forward_v I I I I #
coedge $-1 $201 $251 $252 $253 reversed $140 $-1 #
coedge $-1 $254 $141 $255 $256 reversed $99 $-1 #
coedge $-1 $141 $254 $145 $209 forward $99 $-1 #
coedge $-1 $257 $258 $141 $200 forward $259 $-1 #
edge $-1 $260 -1.5707963267948966 $213 0 $199 $214 forward 7 unknown #
coedge $-1 $261 $196 $262 $202 reversed $140 $-1 #
edge $-1 $206 -0.094 $263 0 $262 $264 forward 7 unknown #
coedge $-1 $204 $143 $222 $225 forward $205 $-1 #
coedge $-1 $143 $203 $265 $266 forward $205 $-1 #
loop $-1 $-1 $143 $267 #
vertex $-1 $268 $269 #
ellipse-curve $-1 -7.0296596335412692e-034 0 0.047 0 0 -1 0.1875 0 0 1 I I #
coedge $-1 $270 $271 $272 $209 forward $194 $-1 #
edge $-1 $218 -0.094 $213 0 $208 $273 forward 7 unknown #
coedge $-1 $211 $146 $274 $227 forward $212 $-1 #
coedge $-1 $146 $210 $270 $275 forward $212 $-1 #
loop $-1 $-1 $146 $276 #
vertex $-1 $277 $278 #
ellipse-curve $-1 -7.0296596335412692e-034 0 -0.047 0 0 1 0.1875 0 0 1 I I #
coedge $-1 $216 $148 $271 $279 forward $217 $-1 #
coedge $-1 $148 $215 $280 $281 forward $217 $-1 #
loop $-1 $-1 $148 $282 #
vertex $-1 $279 $283 #
coedge $-1 $284 $285 $150 $220 forward $286 $-1 #
edge $-1 $153 1.5707963267948966 $263 3.1415926535897931 $219 $214 forward 7 unknown #
coedge $-1 $287 $151 $285 $288 reversed $224 $-1 #
coedge $-1 $151 $287 $203 $225 reversed $224 $-1 #
coedge $-1 $280 $274 $71 $104 reversed $289 $-1 #
loop $-1 $-1 $151 $193 #
edge $-1 $152 7.0296596335412692e-034 $290 0.1875 $222 $291 forward 7 unknown #
point $-1 -7.0296596335412692e-034 0.1875 0.047 #
edge $-1 $153 -7.0296596335412692e-034 $292 0.1875 $274 $293 forward 7 unknown #
point $-1 -7.0296596335412692e-034 0.1875 -0.047 #
convexity-sys-attrib $-1 $-1 $156 $108 #
model_id-kcp-attrib $-1 $-1 $-1 $157 1 990560048 40 1126694913 12 #
point $-1 -0.125 0 0.094 #
plane-surface $-1 0.1875 0 0 -1 0 0 0 0 1 forward_v I I I I #
coedge $-1 $168 $166 $170 $237 reversed $117 $-1 #
edge $-1 $181 -0.047 $239 0.047 $180 $294 forward 7 unknown #
vertex $-1 $237 $295 #
straight-curve $-1 -0.1875 -0.1875 0 0 0 -1 I I #
edge $-1 $235 -0.1875 $239 0.1875 $233 $296 forward 7 unknown #
straight-curve $-1 0 -0.1875 -0.047 -1 0 0 I I #
vertex $-1 $173 $297 #
straight-curve $-1 0 0.1875 -0.047 1 0 0 I I #
point $-1 0.1875 0.1875 -0.047 #
point $-1 0.1875 -0.1875 -0.047 #
straight-curve $-1 -0.1875 0 0.047 0 -1 0 I I #
point $-1 -0.1875 0.1875 0.047 #
point $-1 -0.1875 -0.1875 0.047 #
straight-curve $-1 0.1875 -0.1875 0 0 0 -1 I I #
straight-curve $-1 0.1875 0.1875 0 0 0 -1 I I #
point $-1 0.125 0 0.047000000000000014 #
face $-1 $298 $299 $23 $-1 $300 reversed single #
plane-surface $-1 0 0.1875 0 0 -1 0 0 0 -1 forward_v I I I I #
coedge $-1 $196 $261 $197 $256 forward $140 $-1 #
coedge $-1 $301 $302 $196 $253 forward $303 $-1 #
edge $-1 $263 -3.1415926535897931 $260 -1.5707963267948966 $252 $214 forward 7 unknown #
coedge $-1 $198 $197 $304 $305 reversed $99 $-1 #
coedge $-1 $306 $307 $308 $256 forward $309 $-1 #
edge $-1 $310 -0.094 $260 0 $255 $311 forward 7 unknown #
coedge $-1 $258 $199 $312 $277 forward $259 $-1 #
coedge $-1 $199 $257 $306 $313 forward $259 $-1 #
loop $-1 $-1 $199 $314 #
vertex $-1 $315 $316 #
coedge $-1 $251 $201 $317 $318 reversed $140 $-1 #
coedge $-1 $319 $320 $321 $202 forward $299 $-1 #
vertex $-1 $322 $323 #
straight-curve $-1 -0.1875 0 -0.047 0 0 -1 I I #
coedge $-1 $324 $321 $204 $266 reversed $325 $-1 #
edge $-1 $290 -0.1875 $206 0 $265 $326 forward 7 unknown #
face $-1 $282 $205 $23 $-1 $327 forward single #
edge $-1 $206 0 $328 0.1875 $320 $326 forward 7 unknown #
point $-1 -0.1875 0 0.047 #
coedge $-1 $329 $208 $211 $275 reversed $194 $-1 #
coedge $-1 $208 $329 $215 $279 reversed $194 $-1 #
coedge $-1 $330 $312 $198 $209 reversed $331 $-1 #
straight-curve $-1 0.1875 0 -0.047 0 0 -1 I I #
coedge $-1 $223 $332 $210 $227 reversed $289 $-1 #
edge $-1 $292 -0.1875 $213 0 $270 $333 forward 7 unknown #
face $-1 $334 $212 $23 $-1 $335 reversed single #
edge $-1 $213 0 $336 0.1875 $312 $333 forward 7 unknown #
point $-1 0.1875 0 -0.047 #
edge $-1 $218 0 $337 0.1875 $271 $338 forward 7 unknown #
coedge $-1 $332 $223 $216 $281 reversed $289 $-1 #
edge $-1 $337 -0.1875 $152 7.0296596335412692e-034 $280 $291 forward 7 unknown #
face $-1 $339 $217 $23 $-1 $327 forward single #
point $-1 0.1875 0 0.047 #
coedge $-1 $285 $219 $340 $322 forward $286 $-1 #
coedge $-1 $219 $284 $221 $288 forward $286 $-1 #
loop $-1 $-1 $219 $334 #
coedge $-1 $222 $221 $324 $341 reversed $224 $-1 #
edge $-1 $342 -0.1875 $153 -7.0296596335412692e-034 $221 $293 forward 7 unknown #
loop $-1 $-1 $223 $343 #
vertex $-1 $225 $344 #
straight-curve $-1 0 0.1875 0.047 -1 0 0 I I #
vertex $-1 $275 $345 #
straight-curve $-1 0 0.1875 -0.047 1 0 0 I I #
straight-curve $-1 -0.1875 0.1875 0 0 0 -1 I I #
point $-1 -0.1875 -0.1875 -0.047 #
straight-curve $-1 -0.1875 0 -0.047 0 1 0 I I #
point $-1 -0.1875 0.1875 -0.047 #
face $-1 $267 $346 $23 $-1 $327 forward single #
loop $-1 $-1 $262 $249 #
plane-surface $-1 -0.1875 0 0 1 0 0 0 0 -1 forward_v I I I I #
coedge $-1 $302 $252 $347 $315 forward $303 $-1 #
coedge $-1 $252 $301 $319 $348 forward $303 $-1 #
loop $-1 $-1 $252 $349 #
coedge $-1 $350 $351 $254 $305 forward $352 $-1 #
edge $-1 $218 0 $310 1.5707963267948966 $304 $207 forward 7 unknown #
coedge $-1 $353 $255 $258 $313 reversed $309 $-1 #
coedge $-1 $255 $353 $350 $354 reversed $309 $-1 #
coedge $-1 $355 $347 $251 $256 reversed $356 $-1 #
loop $-1 $-1 $255 $357 #
vertex $-1 $354 $358 #
straight-curve $-1 -7.0296596335412692e-034 -0.1875 -0.047 0 0 -1 I I #
coedge $-1 $272 $359 $257 $277 reversed $331 $-1 #
edge $-1 $336 -0.1875 $260 7.0296596335412692e-034 $306 $360 forward 7 unknown #
face $-1 $276 $259 $23 $-1 $335 reversed single #
edge $-1 $260 7.0296596335412692e-034 $361 0.1875 $347 $360 forward 7 unknown #
point $-1 -7.0296596335412692e-034 -0.1875 -0.047 #
coedge $-1 $362 $363 $261 $318 forward $346 $-1 #
edge $-1 $310 1.5707963267948966 $206 3.1415926535897931 $317 $207 forward 7 unknown #
coedge $-1 $364 $262 $302 $348 reversed $299 $-1 #
coedge $-1 $262 $364 $362 $268 reversed $299 $-1 #
coedge $-1 $265 $340 $142 $202 reversed $325 $-1 #
edge $-1 $263 0 $342 0.1875 $340 $365 forward 7 unknown #
point $-1 -0.1875 0 -0.047 #
coedge $-1 $340 $265 $287 $341 forward $325 $-1 #
loop $-1 $-1 $321 $366 #
straight-curve $-1 -0.1875 0 0.047 0 -1 0 I I #
plane-surface $-1 0 0 0.047 0 0 1 1 0 0 forward_v I I I I #
vertex $-1 $268 $367 #
coedge $-1 $271 $270 $332 $368 reversed $194 $-1 #
coedge $-1 $359 $272 $351 $369 reversed $331 $-1 #
loop $-1 $-1 $272 $370 #
coedge $-1 $274 $280 $329 $368 forward $289 $-1 #
straight-curve $-1 0.1875 0 -0.047 0 -1 0 I I #
face $-1 $371 $286 $23 $-1 $335 reversed single #
plane-surface $-1 0 0 -0.047 0 0 1 1 0 0 forward_v I I I I #
vertex $-1 $372 $373 #
vertex $-1 $279 $374 #
straight-curve $-1 0.1875 0 0.047 0 1 0 I I #
face $-1 $357 $352 $23 $-1 $327 forward single #
coedge $-1 $321 $324 $284 $322 reversed $325 $-1 #
edge $-1 $290 -0.047 $342 0.047 $287 $375 forward 7 unknown #
vertex $-1 $288 $376 #
face $-1 $370 $289 $23 $-1 $250 reversed single #
point $-1 -0.1875 0.1875 0.047 #
point $-1 0.1875 0.1875 -0.047 #
loop $-1 $-1 $317 $298 #
coedge $-1 $308 $377 $301 $315 reversed $356 $-1 #
edge $-1 $361 -0.1875 $263 0 $319 $365 forward 7 unknown #
face $-1 $314 $303 $23 $-1 $335 reversed single #
coedge $-1 $351 $304 $307 $354 forward $352 $-1 #
coedge $-1 $304 $350 $330 $369 forward $352 $-1 #
loop $-1 $-1 $304 $339 #
coedge $-1 $307 $306 $359 $372 reversed $309 $-1 #
edge $-1 $310 -7.0296596335412692e-034 $378 0.1875 $307 $379 forward 7 unknown #
coedge $-1 $377 $308 $363 $380 reversed $356 $-1 #
loop $-1 $-1 $308 $371 #
face $-1 $349 $309 $23 $-1 $381 reversed single #
point $-1 -7.0296596335412692e-034 -0.1875 0.047 #
coedge $-1 $312 $330 $353 $372 forward $331 $-1 #
straight-curve $-1 0 -0.1875 -0.047 -1 0 0 I I #
vertex $-1 $348 $382 #
coedge $-1 $363 $317 $320 $268 forward $346 $-1 #
coedge $-1 $317 $362 $355 $380 forward $346 $-1 #
coedge $-1 $320 $319 $377 $383 reversed $299 $-1 #
straight-curve $-1 -0.1875 0 -0.047 0 1 0 I I #
face $-1 $343 $325 $23 $-1 $300 reversed single #
point $-1 -0.1875 -0.1875 0.047 #
edge $-1 $337 -0.047 $292 0.047 $329 $384 forward 7 unknown #
edge $-1 $378 -0.1875 $218 0 $330 $338 forward 7 unknown #
face $-1 $-1 $331 $23 $-1 $195 reversed single #
face $-1 $366 $356 $23 $-1 $381 reversed single #
edge $-1 $378 -0.047 $336 0.047 $359 $385 forward 7 unknown #
point $-1 0.1875 -0.1875 -0.047 #
point $-1 0.1875 0.1875 0.047 #
straight-curve $-1 -0.1875 0.1875 0 0 0 -1 I I #
point $-1 -0.1875 0.1875 -0.047 #
coedge $-1 $347 $355 $364 $383 forward $356 $-1 #
vertex $-1 $369 $386 #
straight-curve $-1 0 -0.1875 0.047 1 0 0 I I #
edge $-1 $328 -0.1875 $310 -7.0296596335412692e-034 $355 $379 forward 7 unknown #
plane-surface $-1 0 -0.1875 0 0 1 0 0 0 1 forward_v I I I I #
point $-1 -0.1875 -0.1875 -0.047 #
edge $-1 $328 -0.047 $361 0.047 $364 $387 forward 7 unknown #
straight-curve $-1 0.1875 0.1875 0 0 0 -1 I I #
straight-curve $-1 0.1875 -0.1875 0 0 0 -1 I I #
point $-1 0.1875 -0.1875 0.047 #
straight-curve $-1 -0.1875 -0.1875 0 0 0 -1 I I #
End-of-ACIS-data 