600 0 1 0           
112 GICL ACIS Healer - Source: /gicl/data5/repository/NIST/Manfred_Osti/spectrometer/spacer_220/spacer_220.sat - 6 0 18 ACIS 6.0.3 Solaris 24 Sun Apr 14 00:37:04 2002 
1 9.999999999999999547e-07 1.000000000000000036e-10 
body $-1 $1 $-1 $-1 #
lump $-1 $-1 $2 $0 #
shell $-1 $-1 $-1 $3 $-1 $1 #
face $-1 $4 $5 $2 $-1 $6 reversed single #
face $-1 $7 $8 $2 $-1 $9 forward single #
loop $-1 $10 $11 $3 #
plane-surface $-1 0 0 0 0 0 1 1 0 0 forward_v I I I I #
face $-1 $12 $13 $2 $-1 $14 forward single #
loop $-1 $15 $16 $4 #
plane-surface $-1 0 0 0.09400000000000000022 0 0 1 1 0 0 forward_v I I I I #
loop $-1 $-1 $17 $3 #
coedge $-1 $11 $11 $18 $19 forward $5 $-1 #
face $-1 $-1 $20 $2 $-1 $21 reversed single #
loop $-1 $22 $23 $7 #
cone-surface $-1 0 0 0 0 0 1 0.1875 0 0 1 I I 0 1 0.1875 forward I I I I #
loop $-1 $-1 $24 $4 #
coedge $-1 $16 $16 $23 $25 reversed $8 $-1 #
coedge $-1 $17 $17 $26 $27 forward $10 $-1 #
coedge $-1 $18 $18 $11 $19 reversed $22 $-1 #
edge $-1 $28 -3.141592653589793116 $28 3.141592653589793116 $18 $29 forward 7 unknown #
loop $-1 $30 $31 $12 #
cone-surface $-1 0 0 0.09400000000000000022 0 0 -1 -0.125 0 0 1 I I 0 1 0.125 forward I I I I #
loop $-1 $-1 $18 $7 #
coedge $-1 $23 $23 $16 $25 forward $13 $-1 #
coedge $-1 $24 $24 $31 $32 reversed $15 $-1 #
edge $-1 $33 0 $33 6.283185307179586232 $23 $34 forward 7 unknown #
coedge $-1 $26 $26 $17 $27 reversed $30 $-1 #
edge $-1 $35 -3.141592653589793116 $35 3.141592653589793116 $26 $36 forward 7 unknown #
vertex $-1 $19 $37 #
ellipse-curve $-1 0 0 0 0 0 -1 -0.1875 0 0 1 I I #
loop $-1 $-1 $26 $12 #
coedge $-1 $31 $31 $24 $32 forward $20 $-1 #
edge $-1 $38 0 $38 6.283185307179586232 $31 $39 forward 7 unknown #
vertex $-1 $25 $40 #
ellipse-curve $-1 0 0 0.09400000000000000022 0 0 -1 0.1875 0 0 1 I I #
vertex $-1 $27 $41 #
ellipse-curve $-1 0 0 0 0 0 1 0.125 0 0 1 I I #
point $-1 0.1875 0 0 #
vertex $-1 $32 $42 #
ellipse-curve $-1 0 0 0.09400000000000000022 0 0 1 -0.125 0 0 1 I I #
point $-1 0.1875 0 0.09400000000000000022 #
point $-1 -0.125 0 0 #
point $-1 -0.125 0 0.09400000000000000022 #
End-of-ACIS-data 