700 0 2 0           
24 FBMach with ACIS - 7.0.3 13 ACIS 7.0.3 NT 24 Tue May 14 14:20:14 2002 
1 9.9999999999999995e-007 1e-010 
body $2 -1 $-1 $3 $-1 $4 #
bdycol-kcp $-1 -1 1 3 $5 $6 $7 #
model_id-kcp-attrib $-1 -1 $-1 $-1 $0 1 1021400414 1021400414 -1376583679 1 #
lump $-1 -1 $-1 $-1 $8 $0 #
transform $-1 -1 1 0 0 0 1 0 0 0 1 0 0 0 1 rotate no_reflect no_shear #
body $9 -1 $-1 $10 $-1 $11 #
body $12 -1 $-1 $13 $-1 $14 #
body $15 -1 $-1 $16 $-1 $17 #
shell $-1 -1 $-1 $-1 $-1 $18 $-1 $3 #
rgb_color-st-attrib $-1 -1 $19 $-1 $5 0.5 1 1 #
lump $-1 -1 $-1 $-1 $20 $5 #
transform $-1 -1 -1 0 -1.2246063538223773e-016 0 1 0 1.2246063538223773e-016 0 -1 5.7556498629651732e-018 0 0.047 1 rotate no_reflect no_shear #
rgb_color-st-attrib $-1 -1 $21 $-1 $6 0.5 1 1 #
lump $-1 -1 $-1 $-1 $22 $6 #
transform $-1 -1 1 0 0 0 1 0 0 0 1 0 0 0.047 1 no_rotate no_reflect no_shear #
model_id-kcp-attrib $-1 -1 $-1 $-1 $7 1 1021400414 1021400414 -1376583678 1 #
lump $-1 -1 $-1 $-1 $23 $7 #
transform $-1 -1 1 0 0 0 1 0 0 0 1 0 0 0.047 1 no_rotate no_reflect no_shear #
face $24 -1 $-1 $25 $26 $8 $-1 $27 reversed single #
model_id-kcp-attrib $-1 -1 $-1 $9 $5 1 1021400414 1021400414 -1392050173 1 #
shell $-1 -1 $-1 $-1 $-1 $28 $-1 $10 #
model_id-kcp-attrib $-1 -1 $-1 $12 $6 1 1021400414 1021400414 -1390084092 1 #
shell $-1 -1 $-1 $-1 $-1 $29 $-1 $13 #
shell $-1 -1 $-1 $-1 $-1 $30 $-1 $16 #
model_id-kcp-attrib $-1 -1 $-1 $-1 $18 1 1021400414 1021400414 -1376583679 2 #
face $31 -1 $-1 $32 $33 $8 $-1 $34 forward single #
loop $-1 -1 $-1 $35 $36 $18 #
plane-surface $-1 -1 $-1 0 0 0 0 0 1 1 0 0 forward_v I I I I #
face $-1 -1 $-1 $37 $38 $20 $-1 $39 forward single #
face $-1 -1 $-1 $40 $41 $22 $-1 $42 reversed single #
face $43 -1 $-1 $44 $45 $23 $-1 $46 forward single #
model_id-kcp-attrib $-1 -1 $-1 $-1 $25 1 1021400414 1021400414 -1376583679 3 #
face $47 -1 $-1 $48 $49 $8 $-1 $50 forward single #
loop $-1 -1 $-1 $51 $52 $25 #
plane-surface $-1 -1 $-1 0 0 0.094 0 0 1 1 0 0 forward_v I I I I #
loop $53 -1 $-1 $-1 $54 $18 #
coedge $-1 -1 $-1 $36 $36 $55 $56 forward $26 $-1 #
face $-1 -1 $-1 $57 $58 $20 $-1 $59 forward single #
loop $-1 -1 $-1 $60 $61 $28 #
cone-surface $-1 -1 $-1 0 0 0 0 0 1 0.125 0 0 1 I I 0 1 0.125 forward I I I I #
face $-1 -1 $-1 $62 $63 $22 $-1 $42 reversed single #
loop $-1 -1 $-1 $-1 $64 $29 #
cone-surface $-1 -1 $-1 -7.0296596335412692e-034 0 -0.047 0 0 -1 0.1875 0 0 1 I I 0 1 0.1875 forward I I I I #
model_id-kcp-attrib $-1 -1 $-1 $-1 $30 1 1021400414 1021400414 -1376583678 3 #
face $65 -1 $-1 $66 $67 $23 $-1 $68 reversed single #
loop $-1 -1 $-1 $-1 $69 $30 #
plane-surface $-1 -1 $-1 0 0 0.047 0 0 1 1 0 0 forward_v I I I I #
model_id-kcp-attrib $-1 -1 $-1 $-1 $32 1 1021400414 1021400414 -1376583679 4 #
face $70 -1 $-1 $-1 $71 $8 $-1 $72 reversed single #
loop $-1 -1 $-1 $73 $74 $32 #
cone-surface $-1 -1 $-1 0 0 0 0 0 1 0.1875 0 0 1 I I 0 1 0.1875 forward I I I I #
loop $75 -1 $-1 $-1 $76 $25 #
coedge $-1 -1 $-1 $52 $52 $74 $77 reversed $33 $-1 #
model_id-kcp-attrib $-1 -1 $-1 $-1 $35 1 1021400414 1021400414 -1376583679 11 #
coedge $-1 -1 $-1 $54 $54 $78 $79 forward $35 $-1 #
coedge $-1 -1 $-1 $55 $55 $36 $56 reversed $73 $-1 #
edge $80 -1 $-1 $81 -3.1415926535897931 $81 3.1415926535897931 $55 $82 forward @7 unknown #
face $-1 -1 $-1 $-1 $83 $20 $-1 $84 forward single #
loop $-1 -1 $-1 $-1 $85 $37 #
plane-surface $-1 -1 $-1 0 0 -0.047000000000000014 0 0 -1 -1 0 0 forward_v I I I I #
loop $-1 -1 $-1 $-1 $86 $28 #
coedge $-1 -1 $-1 $61 $61 $85 $87 reversed $38 $-1 #
face $-1 -1 $-1 $88 $89 $22 $-1 $42 reversed single #
loop $-1 -1 $-1 $-1 $90 $40 #
coedge $-1 -1 $-1 $91 $92 $93 $94 forward $41 $-1 #
model_id-kcp-attrib $-1 -1 $-1 $-1 $44 1 1021400414 1021400414 -1376583678 2 #
face $-1 -1 $-1 $95 $96 $23 $-1 $97 reversed single #
loop $-1 -1 $-1 $-1 $98 $44 #
plane-surface $-1 -1 $-1 0 0 -0.047 0 0 1 1 0 0 forward_v I I I I #
coedge $-1 -1 $-1 $99 $100 $101 $102 forward $45 $-1 #
model_id-kcp-attrib $-1 -1 $-1 $-1 $48 1 1021400414 1021400414 -1376583679 5 #
loop $103 -1 $-1 $104 $105 $48 #
cone-surface $-1 -1 $-1 0 0 0.094 0 0 -1 -0.125 0 0 1 I I 0 1 0.125 forward I I I I #
loop $-1 -1 $-1 $-1 $55 $32 #
coedge $-1 -1 $-1 $74 $74 $52 $77 forward $49 $-1 #
model_id-kcp-attrib $-1 -1 $-1 $-1 $51 1 1021400414 1021400414 -1376583679 10 #
coedge $-1 -1 $-1 $76 $76 $105 $106 reversed $51 $-1 #
edge $-1 -1 $-1 $107 0 $107 6.2831853071795862 $74 $108 forward @7 unknown #
coedge $-1 -1 $-1 $78 $78 $54 $79 reversed $104 $-1 #
edge $109 -1 $-1 $110 -3.1415926535897931 $110 3.1415926535897931 $78 $111 forward @7 unknown #
attrib_edge_convexity-kcp-attrib $-1 -1 $112 $-1 $56 1 #
vertex $-1 -1 $-1 $56 $113 #
ellipse-curve $-1 -1 $-1 0 0 0 0 0 -1 -0.1875 0 0 1 I I #
loop $-1 -1 $-1 $-1 $114 $57 #
plane-surface $-1 -1 $-1 0 0 0.047000000000000014 0 0 1 1 0 0 forward_v I I I I #
coedge $-1 -1 $-1 $85 $85 $61 $87 forward $58 $-1 #
coedge $-1 -1 $-1 $86 $86 $114 $115 reversed $60 $-1 #
edge $-1 -1 $-1 $116 0 $116 6.2831853071795862 $85 $117 forward @7 unknown #
face $-1 -1 $-1 $118 $119 $22 $-1 $42 reversed single #
loop $-1 -1 $-1 $-1 $120 $62 #
coedge $-1 -1 $-1 $121 $93 $122 $123 reversed $63 $-1 #
coedge $-1 -1 $-1 $124 $64 $125 $126 reversed $41 $-1 #
coedge $-1 -1 $-1 $64 $124 $127 $128 reversed $41 $-1 #
coedge $-1 -1 $-1 $90 $129 $130 $94 reversed $63 $-1 #
edge $-1 -1 $-1 $131 -0.094 $132 0 $130 $133 forward @7 unknown #
face $-1 -1 $-1 $134 $135 $23 $-1 $136 reversed single #
loop $-1 -1 $-1 $-1 $137 $66 #
plane-surface $-1 -1 $-1 0 -0.1875 0 0 1 0 0 0 1 forward_v I I I I #
coedge $-1 -1 $-1 $138 $139 $140 $141 forward $67 $-1 #
coedge $-1 -1 $-1 $142 $69 $143 $144 forward $45 $-1 #
coedge $-1 -1 $-1 $69 $142 $145 $146 forward $45 $-1 #
coedge $-1 -1 $-1 $147 $148 $69 $102 reversed $149 $-1 #
edge $-1 -1 $-1 $150 -0.1875 $151 0.1875 $101 $152 forward @7 unknown #
model_id-kcp-attrib $-1 -1 $-1 $-1 $71 1 1021400414 1021400414 -1376583679 8 #
loop $153 -1 $-1 $-1 $78 $48 #
coedge $-1 -1 $-1 $105 $105 $76 $106 forward $71 $-1 #
edge $154 -1 $-1 $155 0 $155 6.2831853071795862 $105 $156 forward @7 unknown #
vertex $-1 -1 $-1 $77 $157 #
ellipse-curve $-1 -1 $-1 0 0 0.094 0 0 -1 0.1875 0 0 1 I I #
attrib_edge_convexity-kcp-attrib $-1 -1 $158 $-1 $79 1 #
vertex $159 -1 $-1 $79 $160 #
ellipse-curve $-1 -1 $-1 0 0 0 0 0 1 0.125 0 0 1 I I #
convexity-sys-attrib $-1 -1 $-1 $80 $56 #
point $-1 -1 $-1 0.1875 0 0 #
coedge $-1 -1 $-1 $114 $114 $86 $115 forward $83 $-1 #
edge $-1 -1 $-1 $161 0 $161 6.2831853071795862 $114 $162 forward @7 unknown #
vertex $-1 -1 $-1 $87 $163 #
ellipse-curve $-1 -1 $-1 0 0 -0.047000000000000014 0 0 -1 0.125 0 0 1 I I #
face $-1 -1 $-1 $164 $165 $22 $-1 $166 reversed single #
loop $-1 -1 $-1 $-1 $167 $88 #
coedge $-1 -1 $-1 $168 $169 $170 $171 reversed $89 $-1 #
coedge $-1 -1 $-1 $129 $90 $172 $173 forward $63 $-1 #
coedge $-1 -1 $-1 $174 $175 $90 $123 forward $176 $-1 #
edge $-1 -1 $-1 $177 -3.1415926535897931 $131 -1.5707963267948966 $122 $178 forward @7 unknown #
coedge $-1 -1 $-1 $92 $91 $179 $180 reversed $41 $-1 #
coedge $-1 -1 $-1 $181 $182 $91 $126 forward $183 $-1 #
edge $-1 -1 $-1 $184 0 $132 1.5707963267948966 $125 $185 forward @7 unknown #
coedge $-1 -1 $-1 $186 $187 $92 $128 forward $188 $-1 #
edge $-1 -1 $-1 $131 -1.5707963267948966 $189 0 $127 $178 forward @7 unknown #
coedge $-1 -1 $-1 $93 $121 $190 $191 reversed $63 $-1 #
coedge $-1 -1 $-1 $192 $193 $194 $94 forward $195 $-1 #
vertex $-1 -1 $-1 $196 $197 #
vertex $-1 -1 $-1 $198 $199 #
straight-curve $-1 -1 $-1 -7.0296596335412692e-034 0.1875 -0.047 0 0 -1 I I #
face $-1 -1 $-1 $200 $201 $23 $-1 $202 reversed single #
loop $-1 -1 $-1 $-1 $203 $95 #
plane-surface $-1 -1 $-1 -0.1875 0 0 1 0 0 0 0 -1 forward_v I I I I #
coedge $-1 -1 $-1 $204 $145 $205 $206 forward $96 $-1 #
coedge $-1 -1 $-1 $207 $98 $204 $208 forward $67 $-1 #
coedge $-1 -1 $-1 $98 $207 $209 $210 forward $67 $-1 #
coedge $-1 -1 $-1 $148 $147 $98 $141 reversed $149 $-1 #
edge $-1 -1 $-1 $211 -0.1875 $212 0.1875 $140 $213 forward @7 unknown #
coedge $-1 -1 $-1 $100 $99 $214 $215 forward $45 $-1 #
coedge $-1 -1 $-1 $216 $217 $99 $144 reversed $201 $-1 #
edge $-1 -1 $-1 $151 -0.1875 $218 0.1875 $143 $219 forward @7 unknown #
coedge $-1 -1 $-1 $137 $220 $100 $146 reversed $96 $-1 #
edge $-1 -1 $-1 $221 -0.1875 $150 0.1875 $145 $222 forward @7 unknown #
coedge $-1 -1 $-1 $140 $101 $220 $223 forward $149 $-1 #
coedge $-1 -1 $-1 $101 $140 $216 $224 reversed $149 $-1 #
loop $-1 -1 $-1 $-1 $147 $200 #
vertex $-1 -1 $-1 $102 $225 #
vertex $-1 -1 $-1 $102 $226 #
straight-curve $-1 -1 $-1 0.1875 0 0.047 0 1 0 I I #
model_id-kcp-attrib $-1 -1 $-1 $-1 $104 1 1021400414 1021400414 -1376583679 9 #
attrib_edge_convexity-kcp-attrib $-1 -1 $227 $-1 $106 1 #
vertex $228 -1 $-1 $106 $229 #
ellipse-curve $-1 -1 $-1 0 0 0.094 0 0 1 -0.125 0 0 1 I I #
point $-1 -1 $-1 0.1875 0 0.094 #
convexity-sys-attrib $-1 -1 $-1 $109 $79 #
model_id-kcp-attrib $-1 -1 $-1 $-1 $110 1 1021400414 1021400414 -1376583679 13 #
point $-1 -1 $-1 -0.125 0 0 #
vertex $-1 -1 $-1 $115 $230 #
ellipse-curve $-1 -1 $-1 0 0 0.047000000000000014 0 0 1 0.125 0 0 1 I I #
point $-1 -1 $-1 0.125 0 -0.047000000000000014 #
face $-1 -1 $-1 $231 $195 $22 $-1 $232 reversed single #
loop $-1 -1 $-1 $-1 $179 $118 #
plane-surface $-1 -1 $-1 0.1875 0 0 -1 0 0 0 0 1 forward_v I I I I #
coedge $-1 -1 $-1 $172 $233 $234 $235 reversed $119 $-1 #
coedge $-1 -1 $-1 $236 $120 $237 $238 reversed $89 $-1 #
coedge $-1 -1 $-1 $120 $236 $124 $180 forward $89 $-1 #
coedge $-1 -1 $-1 $239 $240 $120 $171 forward $241 $-1 #
edge $-1 -1 $-1 $242 -1.5707963267948966 $184 0 $170 $185 forward @7 unknown #
coedge $-1 -1 $-1 $243 $167 $244 $173 reversed $119 $-1 #
edge $-1 -1 $-1 $177 -0.094 $245 0 $244 $246 forward @7 unknown #
coedge $-1 -1 $-1 $175 $122 $193 $196 forward $176 $-1 #
coedge $-1 -1 $-1 $122 $174 $247 $248 forward $176 $-1 #
loop $-1 -1 $-1 $-1 $122 $249 #
vertex $-1 -1 $-1 $250 $251 #
ellipse-curve $-1 -1 $-1 -7.0296596335412692e-034 0 0.047 0 0 -1 0.1875 0 0 1 I I #
coedge $-1 -1 $-1 $252 $253 $254 $180 forward $165 $-1 #
edge $-1 -1 $-1 $189 -0.094 $184 0 $179 $255 forward @7 unknown #
coedge $-1 -1 $-1 $182 $125 $256 $198 forward $183 $-1 #
coedge $-1 -1 $-1 $125 $181 $252 $257 forward $183 $-1 #
loop $-1 -1 $-1 $-1 $125 $258 #
vertex $-1 -1 $-1 $259 $260 #
ellipse-curve $-1 -1 $-1 -7.0296596335412692e-034 0 -0.047 0 0 1 0.1875 0 0 1 I I #
coedge $-1 -1 $-1 $187 $127 $253 $261 forward $188 $-1 #
coedge $-1 -1 $-1 $127 $186 $262 $263 forward $188 $-1 #
loop $-1 -1 $-1 $-1 $127 $264 #
vertex $-1 -1 $-1 $261 $265 #
coedge $-1 -1 $-1 $266 $267 $129 $191 forward $268 $-1 #
edge $-1 -1 $-1 $132 1.5707963267948966 $245 3.1415926535897931 $190 $185 forward @7 unknown #
coedge $-1 -1 $-1 $269 $130 $267 $270 reversed $195 $-1 #
coedge $-1 -1 $-1 $130 $269 $174 $196 reversed $195 $-1 #
coedge $-1 -1 $-1 $262 $256 $64 $94 reversed $271 $-1 #
loop $-1 -1 $-1 $-1 $130 $164 #
edge $-1 -1 $-1 $131 7.0296596335412692e-034 $272 0.1875 $193 $273 forward @7 unknown #
point $-1 -1 $-1 -7.0296596335412692e-034 0.1875 0.047 #
edge $-1 -1 $-1 $132 -7.0296596335412692e-034 $274 0.1875 $256 $275 forward @7 unknown #
point $-1 -1 $-1 -7.0296596335412692e-034 0.1875 -0.047 #
face $-1 -1 $-1 $-1 $149 $23 $-1 $276 reversed single #
loop $-1 -1 $-1 $-1 $216 $134 #
plane-surface $-1 -1 $-1 0 0.1875 0 0 -1 0 0 0 -1 forward_v I I I I #
coedge $-1 -1 $-1 $277 $214 $217 $278 forward $135 $-1 #
coedge $-1 -1 $-1 $220 $137 $138 $208 reversed $96 $-1 #
coedge $-1 -1 $-1 $214 $277 $137 $206 reversed $135 $-1 #
edge $-1 -1 $-1 $221 -0.047 $279 0.047 $205 $280 forward @7 unknown #
coedge $-1 -1 $-1 $139 $138 $277 $281 forward $67 $-1 #
edge $-1 -1 $-1 $212 -0.1875 $279 0.1875 $204 $282 forward @7 unknown #
coedge $-1 -1 $-1 $217 $216 $139 $210 reversed $201 $-1 #
edge $-1 -1 $-1 $283 -0.1875 $211 0.1875 $209 $284 forward @7 unknown #
vertex $-1 -1 $-1 $141 $285 #
vertex $-1 -1 $-1 $223 $286 #
straight-curve $-1 -1 $-1 0.1875 0 -0.047 0 -1 0 I I #
coedge $-1 -1 $-1 $203 $205 $142 $215 reversed $135 $-1 #
edge $-1 -1 $-1 $218 -0.1875 $221 0.1875 $214 $287 forward @7 unknown #
coedge $-1 -1 $-1 $209 $143 $148 $224 forward $201 $-1 #
coedge $-1 -1 $-1 $143 $209 $203 $278 reversed $201 $-1 #
vertex $-1 -1 $-1 $144 $288 #
straight-curve $-1 -1 $-1 0 0.1875 0.047 -1 0 0 I I #
coedge $-1 -1 $-1 $145 $204 $147 $223 reversed $96 $-1 #
vertex $-1 -1 $-1 $215 $289 #
straight-curve $-1 -1 $-1 0 -0.1875 0.047 1 0 0 I I #
edge $-1 -1 $-1 $150 -0.047 $212 0.047 $147 $290 forward @7 unknown #
edge $-1 -1 $-1 $151 -0.047 $211 0.047 $148 $291 forward @7 unknown #
point $-1 -1 $-1 0.1875 -0.1875 0.047 #
point $-1 -1 $-1 0.1875 0.1875 0.047 #
convexity-sys-attrib $-1 -1 $-1 $154 $106 #
model_id-kcp-attrib $-1 -1 $-1 $-1 $155 1 1021400414 1021400414 -1376583679 12 #
point $-1 -1 $-1 -0.125 0 0.094 #
point $-1 -1 $-1 0.125 0 0.047000000000000014 #
face $-1 -1 $-1 $292 $293 $22 $-1 $294 reversed single #
plane-surface $-1 -1 $-1 0 0.1875 0 0 -1 0 0 0 -1 forward_v I I I I #
coedge $-1 -1 $-1 $167 $243 $168 $238 forward $119 $-1 #
coedge $-1 -1 $-1 $295 $296 $167 $235 forward $297 $-1 #
edge $-1 -1 $-1 $245 -3.1415926535897931 $242 -1.5707963267948966 $234 $185 forward @7 unknown #
coedge $-1 -1 $-1 $169 $168 $298 $299 reversed $89 $-1 #
coedge $-1 -1 $-1 $300 $301 $302 $238 forward $303 $-1 #
edge $-1 -1 $-1 $304 -0.094 $242 0 $237 $305 forward @7 unknown #
coedge $-1 -1 $-1 $240 $170 $306 $259 forward $241 $-1 #
coedge $-1 -1 $-1 $170 $239 $300 $307 forward $241 $-1 #
loop $-1 -1 $-1 $-1 $170 $308 #
vertex $-1 -1 $-1 $309 $310 #
coedge $-1 -1 $-1 $233 $172 $311 $312 reversed $119 $-1 #
coedge $-1 -1 $-1 $313 $314 $315 $173 forward $293 $-1 #
vertex $-1 -1 $-1 $316 $317 #
straight-curve $-1 -1 $-1 -0.1875 0 -0.047 0 0 -1 I I #
coedge $-1 -1 $-1 $318 $315 $175 $248 reversed $319 $-1 #
edge $-1 -1 $-1 $272 -0.1875 $177 0 $247 $320 forward @7 unknown #
face $-1 -1 $-1 $264 $176 $22 $-1 $321 forward single #
edge $-1 -1 $-1 $177 0 $322 0.1875 $314 $320 forward @7 unknown #
point $-1 -1 $-1 -0.1875 0 0.047 #
coedge $-1 -1 $-1 $323 $179 $182 $257 reversed $165 $-1 #
coedge $-1 -1 $-1 $179 $323 $186 $261 reversed $165 $-1 #
coedge $-1 -1 $-1 $324 $306 $169 $180 reversed $325 $-1 #
straight-curve $-1 -1 $-1 0.1875 0 -0.047 0 0 -1 I I #
coedge $-1 -1 $-1 $194 $326 $181 $198 reversed $271 $-1 #
edge $-1 -1 $-1 $274 -0.1875 $184 0 $252 $327 forward @7 unknown #
face $-1 -1 $-1 $328 $183 $22 $-1 $329 reversed single #
edge $-1 -1 $-1 $184 0 $330 0.1875 $306 $327 forward @7 unknown #
point $-1 -1 $-1 0.1875 0 -0.047 #
edge $-1 -1 $-1 $189 0 $331 0.1875 $253 $332 forward @7 unknown #
coedge $-1 -1 $-1 $326 $194 $187 $263 reversed $271 $-1 #
edge $-1 -1 $-1 $331 -0.1875 $131 7.0296596335412692e-034 $262 $273 forward @7 unknown #
face $-1 -1 $-1 $333 $188 $22 $-1 $321 forward single #
point $-1 -1 $-1 0.1875 0 0.047 #
coedge $-1 -1 $-1 $267 $190 $334 $316 forward $268 $-1 #
coedge $-1 -1 $-1 $190 $266 $192 $270 forward $268 $-1 #
loop $-1 -1 $-1 $-1 $190 $328 #
coedge $-1 -1 $-1 $193 $192 $318 $335 reversed $195 $-1 #
edge $-1 -1 $-1 $336 -0.1875 $132 -7.0296596335412692e-034 $192 $275 forward @7 unknown #
loop $-1 -1 $-1 $-1 $194 $337 #
vertex $-1 -1 $-1 $196 $338 #
straight-curve $-1 -1 $-1 0 0.1875 0.047 -1 0 0 I I #
vertex $-1 -1 $-1 $257 $339 #
straight-curve $-1 -1 $-1 0 0.1875 -0.047 1 0 0 I I #
plane-surface $-1 -1 $-1 0.1875 0 0 -1 0 0 0 0 1 forward_v I I I I #
coedge $-1 -1 $-1 $205 $203 $207 $281 reversed $135 $-1 #
edge $-1 -1 $-1 $218 -0.047 $283 0.047 $217 $340 forward @7 unknown #
vertex $-1 -1 $-1 $281 $341 #
straight-curve $-1 -1 $-1 -0.1875 -0.1875 0 0 0 -1 I I #
edge $-1 -1 $-1 $279 -0.1875 $283 0.1875 $277 $342 forward @7 unknown #
straight-curve $-1 -1 $-1 0 -0.1875 -0.047 -1 0 0 I I #
vertex $-1 -1 $-1 $210 $343 #
straight-curve $-1 -1 $-1 0 0.1875 -0.047 1 0 0 I I #
point $-1 -1 $-1 0.1875 0.1875 -0.047 #
point $-1 -1 $-1 0.1875 -0.1875 -0.047 #
straight-curve $-1 -1 $-1 -0.1875 0 0.047 0 -1 0 I I #
point $-1 -1 $-1 -0.1875 0.1875 0.047 #
point $-1 -1 $-1 -0.1875 -0.1875 0.047 #
straight-curve $-1 -1 $-1 0.1875 -0.1875 0 0 0 -1 I I #
straight-curve $-1 -1 $-1 0.1875 0.1875 0 0 0 -1 I I #
face $-1 -1 $-1 $249 $344 $22 $-1 $321 forward single #
loop $-1 -1 $-1 $-1 $244 $231 #
plane-surface $-1 -1 $-1 -0.1875 0 0 1 0 0 0 0 -1 forward_v I I I I #
coedge $-1 -1 $-1 $296 $234 $345 $309 forward $297 $-1 #
coedge $-1 -1 $-1 $234 $295 $313 $346 forward $297 $-1 #
loop $-1 -1 $-1 $-1 $234 $347 #
coedge $-1 -1 $-1 $348 $349 $236 $299 forward $350 $-1 #
edge $-1 -1 $-1 $189 0 $304 1.5707963267948966 $298 $178 forward @7 unknown #
coedge $-1 -1 $-1 $351 $237 $240 $307 reversed $303 $-1 #
coedge $-1 -1 $-1 $237 $351 $348 $352 reversed $303 $-1 #
coedge $-1 -1 $-1 $353 $345 $233 $238 reversed $354 $-1 #
loop $-1 -1 $-1 $-1 $237 $355 #
vertex $-1 -1 $-1 $352 $356 #
straight-curve $-1 -1 $-1 -7.0296596335412692e-034 -0.1875 -0.047 0 0 -1 I I #
coedge $-1 -1 $-1 $254 $357 $239 $259 reversed $325 $-1 #
edge $-1 -1 $-1 $330 -0.1875 $242 7.0296596335412692e-034 $300 $358 forward @7 unknown #
face $-1 -1 $-1 $258 $241 $22 $-1 $329 reversed single #
edge $-1 -1 $-1 $242 7.0296596335412692e-034 $359 0.1875 $345 $358 forward @7 unknown #
point $-1 -1 $-1 -7.0296596335412692e-034 -0.1875 -0.047 #
coedge $-1 -1 $-1 $360 $361 $243 $312 forward $344 $-1 #
edge $-1 -1 $-1 $304 1.5707963267948966 $177 3.1415926535897931 $311 $178 forward @7 unknown #
coedge $-1 -1 $-1 $362 $244 $296 $346 reversed $293 $-1 #
coedge $-1 -1 $-1 $244 $362 $360 $250 reversed $293 $-1 #
coedge $-1 -1 $-1 $247 $334 $121 $173 reversed $319 $-1 #
edge $-1 -1 $-1 $245 0 $336 0.1875 $334 $363 forward @7 unknown #
point $-1 -1 $-1 -0.1875 0 -0.047 #
coedge $-1 -1 $-1 $334 $247 $269 $335 forward $319 $-1 #
loop $-1 -1 $-1 $-1 $315 $364 #
straight-curve $-1 -1 $-1 -0.1875 0 0.047 0 -1 0 I I #
plane-surface $-1 -1 $-1 0 0 0.047 0 0 1 1 0 0 forward_v I I I I #
vertex $-1 -1 $-1 $250 $365 #
coedge $-1 -1 $-1 $253 $252 $326 $366 reversed $165 $-1 #
coedge $-1 -1 $-1 $357 $254 $349 $367 reversed $325 $-1 #
loop $-1 -1 $-1 $-1 $254 $368 #
coedge $-1 -1 $-1 $256 $262 $323 $366 forward $271 $-1 #
straight-curve $-1 -1 $-1 0.1875 0 -0.047 0 -1 0 I I #
face $-1 -1 $-1 $369 $268 $22 $-1 $329 reversed single #
plane-surface $-1 -1 $-1 0 0 -0.047 0 0 1 1 0 0 forward_v I I I I #
vertex $-1 -1 $-1 $370 $371 #
vertex $-1 -1 $-1 $261 $372 #
straight-curve $-1 -1 $-1 0.1875 0 0.047 0 1 0 I I #
face $-1 -1 $-1 $355 $350 $22 $-1 $321 forward single #
coedge $-1 -1 $-1 $315 $318 $266 $316 reversed $319 $-1 #
edge $-1 -1 $-1 $272 -0.047 $336 0.047 $269 $373 forward @7 unknown #
vertex $-1 -1 $-1 $270 $374 #
face $-1 -1 $-1 $368 $271 $22 $-1 $232 reversed single #
point $-1 -1 $-1 -0.1875 0.1875 0.047 #
point $-1 -1 $-1 0.1875 0.1875 -0.047 #
straight-curve $-1 -1 $-1 -0.1875 0.1875 0 0 0 -1 I I #
point $-1 -1 $-1 -0.1875 -0.1875 -0.047 #
straight-curve $-1 -1 $-1 -0.1875 0 -0.047 0 1 0 I I #
point $-1 -1 $-1 -0.1875 0.1875 -0.047 #
loop $-1 -1 $-1 $-1 $311 $292 #
coedge $-1 -1 $-1 $302 $375 $295 $309 reversed $354 $-1 #
edge $-1 -1 $-1 $359 -0.1875 $245 0 $313 $363 forward @7 unknown #
face $-1 -1 $-1 $308 $297 $22 $-1 $329 reversed single #
coedge $-1 -1 $-1 $349 $298 $301 $352 forward $350 $-1 #
coedge $-1 -1 $-1 $298 $348 $324 $367 forward $350 $-1 #
loop $-1 -1 $-1 $-1 $298 $333 #
coedge $-1 -1 $-1 $301 $300 $357 $370 reversed $303 $-1 #
edge $-1 -1 $-1 $304 -7.0296596335412692e-034 $376 0.1875 $301 $377 forward @7 unknown #
coedge $-1 -1 $-1 $375 $302 $361 $378 reversed $354 $-1 #
loop $-1 -1 $-1 $-1 $302 $369 #
face $-1 -1 $-1 $347 $303 $22 $-1 $379 reversed single #
point $-1 -1 $-1 -7.0296596335412692e-034 -0.1875 0.047 #
coedge $-1 -1 $-1 $306 $324 $351 $370 forward $325 $-1 #
straight-curve $-1 -1 $-1 0 -0.1875 -0.047 -1 0 0 I I #
vertex $-1 -1 $-1 $346 $380 #
coedge $-1 -1 $-1 $361 $311 $314 $250 forward $344 $-1 #
coedge $-1 -1 $-1 $311 $360 $353 $378 forward $344 $-1 #
coedge $-1 -1 $-1 $314 $313 $375 $381 reversed $293 $-1 #
straight-curve $-1 -1 $-1 -0.1875 0 -0.047 0 1 0 I I #
face $-1 -1 $-1 $337 $319 $22 $-1 $294 reversed single #
point $-1 -1 $-1 -0.1875 -0.1875 0.047 #
edge $-1 -1 $-1 $331 -0.047 $274 0.047 $323 $382 forward @7 unknown #
edge $-1 -1 $-1 $376 -0.1875 $189 0 $324 $332 forward @7 unknown #
face $-1 -1 $-1 $-1 $325 $22 $-1 $166 reversed single #
face $-1 -1 $-1 $364 $354 $22 $-1 $379 reversed single #
edge $-1 -1 $-1 $376 -0.047 $330 0.047 $357 $383 forward @7 unknown #
point $-1 -1 $-1 0.1875 -0.1875 -0.047 #
point $-1 -1 $-1 0.1875 0.1875 0.047 #
straight-curve $-1 -1 $-1 -0.1875 0.1875 0 0 0 -1 I I #
point $-1 -1 $-1 -0.1875 0.1875 -0.047 #
coedge $-1 -1 $-1 $345 $353 $362 $381 forward $354 $-1 #
vertex $-1 -1 $-1 $367 $384 #
straight-curve $-1 -1 $-1 0 -0.1875 0.047 1 0 0 I I #
edge $-1 -1 $-1 $322 -0.1875 $304 -7.0296596335412692e-034 $353 $377 forward @7 unknown #
plane-surface $-1 -1 $-1 0 -0.1875 0 0 1 0 0 0 1 forward_v I I I I #
point $-1 -1 $-1 -0.1875 -0.1875 -0.047 #
edge $-1 -1 $-1 $322 -0.047 $359 0.047 $362 $385 forward @7 unknown #
straight-curve $-1 -1 $-1 0.1875 0.1875 0 0 0 -1 I I #
straight-curve $-1 -1 $-1 0.1875 -0.1875 0 0 0 -1 I I #
point $-1 -1 $-1 0.1875 -0.1875 0.047 #
straight-curve $-1 -1 $-1 -0.1875 -0.1875 0 0 0 -1 I I #
End-of-ACIS-data 