107 0 1 0           
body $1 $2 $-1 $3 #
display_attribute-st-attrib $-1 $4 $-1 $0 1 #
lump $-1 $-1 $5 $0 #
transform $-1 1 0 0 0 1 0 0 0 1 15 15 5 1 1 0 0 #
named_string_attribute-named_attribute-st-attrib $-1 $6 $1 $0 4 name12 pocketIsland#
shell $-1 $-1 $-1 $7 $-1 $2 #
rgb_color-st-attrib $-1 $8 $4 $0 0 1 0 #
face $-1 $9 $10 $5 $-1 $11 forward single #
id_attribute-st-attrib $-1 $-1 $6 $0 1 #
face $12 $13 $14 $5 $-1 $15 forward single #
loop $-1 $-1 $16 $7 #
cone-surface $-1 -5 -5 1.25 -0 -0 -1 -3.535533905932737309 -3.535533905932737309 0 1 I I 0 -1 0 I I I I #
id_attribute-st-attrib $-1 $-1 $-1 $9 0 #
face $-1 $17 $18 $5 $-1 $19 forward single #
loop $-1 $20 $21 $9 #
plane-surface $-1 0 0 -2.5 0 0 1 1 0 0 0 I I I I #
coedge $-1 $22 $23 $24 $25 0 $10 $-1 #
face $-1 $26 $27 $5 $-1 $28 forward single #
loop $-1 $-1 $29 $13 #
plane-surface $-1 0 -10 1.25 0 1 0 0 0 1 0 I I I I #
loop $-1 $-1 $30 $9 #
coedge $-1 $31 $32 $33 $34 0 $14 $-1 #
coedge $-1 $35 $16 $36 $37 1 $10 $-1 #
coedge $-1 $16 $35 $30 $38 1 $10 $-1 #
coedge $-1 $39 $40 $16 $25 1 $41 $-1 #
edge $-1 $42 $43 $24 $44 0 #
face $-1 $45 $46 $5 $-1 $47 forward single #
loop $-1 $-1 $48 $17 #
cone-surface $-1 -5 5 1.25 0 0 -1 -3.535533905932737309 3.535533905932737309 0 1 I I 0 -1 0 I I I I #
coedge $-1 $49 $50 $35 $51 1 $18 $-1 #
coedge $-1 $52 $53 $23 $38 0 $20 $-1 #
coedge $-1 $54 $21 $55 $56 0 $14 $-1 #
coedge $-1 $21 $54 $57 $58 0 $14 $-1 #
coedge $-1 $59 $60 $21 $34 1 $61 $-1 #
edge $62 $63 $64 $21 $65 0 #
coedge $-1 $23 $22 $29 $51 0 $10 $-1 #
coedge $-1 $66 $67 $22 $37 0 $68 $-1 #
edge $69 $70 $43 $36 $71 0 #
edge $-1 $42 $72 $30 $73 0 #
coedge $-1 $74 $24 $53 $75 0 $41 $-1 #
coedge $-1 $24 $74 $66 $76 1 $41 $-1 #
loop $-1 $-1 $24 $77 #
vertex $-1 $75 $78 #
vertex $-1 $76 $79 #
straight-curve $-1 -10 -5 1.25 -0 -0 1 F -19.25 F 19.25 #
face $-1 $80 $81 $5 $-1 $82 forward single #
loop $-1 $-1 $83 $26 #
plane-surface $-1 0 10 1.25 0 -1 0 0 0 -1 0 I I I I #
coedge $-1 $84 $85 $83 $86 0 $27 $-1 #
coedge $-1 $87 $29 $67 $88 1 $18 $-1 #
coedge $-1 $29 $87 $52 $89 0 $18 $-1 #
edge $-1 $70 $72 $29 $90 0 #
coedge $-1 $91 $30 $50 $89 1 $20 $-1 #
coedge $-1 $30 $92 $39 $75 1 $20 $-1 #
coedge $-1 $32 $31 $93 $94 0 $14 $-1 #
coedge $-1 $95 $96 $31 $56 1 $97 $-1 #
edge $98 $64 $99 $31 $100 0 #
coedge $-1 $101 $102 $32 $58 1 $103 $-1 #
edge $104 $105 $63 $32 $106 0 #
coedge $-1 $107 $33 $102 $108 1 $61 $-1 #
coedge $-1 $33 $107 $95 $109 0 $61 $-1 #
loop $-1 $-1 $60 $110 #
ptlist-eye-attrib $-1 $-1 $-1 $34 #
vertex $-1 $34 $111 #
vertex $-1 $34 $112 #
straight-curve $-1 0 -5 -2.5 -1 0 0 I I #
coedge $-1 $113 $36 $40 $76 0 $68 $-1 #
coedge $-1 $36 $114 $49 $88 0 $68 $-1 #
loop $-1 $115 $67 $116 #
id_attribute-st-attrib $-1 $-1 $-1 $37 0 #
vertex $-1 $37 $117 #
ellipse-curve $-1 -5 -5 5 -0 -0 -1 -3.535533905932737309 -3.535533905932737309 0 1 I I #
vertex $-1 $51 $118 #
ellipse-curve $-1 -5 -5 -2.5 0 0 1 -3.535533905932737309 -3.535533905932737309 0 1 I I #
coedge $-1 $40 $39 $119 $120 1 $41 $-1 #
edge $121 $42 $122 $39 $123 0 #
edge $124 $43 $125 $66 $126 0 #
face $127 $116 $41 $5 $-1 $128 forward single #
point $-1 -10 -5 -2.5 #
point $-1 -10 -5 5 #
face $-1 $129 $130 $5 $-1 $131 forward single #
loop $-1 $-1 $132 $45 #
cone-surface $-1 5 5 1.25 -0 -0 -1 3.535533905932737309 3.535533905932737309 0 1 I I 0 -1 0 I I I I #
coedge $-1 $133 $134 $48 $86 1 $46 $-1 #
coedge $-1 $119 $48 $113 $135 1 $27 $-1 #
coedge $-1 $48 $119 $92 $136 1 $27 $-1 #
edge $-1 $137 $138 $83 $139 0 #
coedge $-1 $50 $49 $140 $141 1 $18 $-1 #
edge $142 $143 $70 $67 $144 0 #
edge $145 $146 $72 $50 $147 0 #
straight-curve $-1 -5 -10 1.25 0 0 -1 F -19.25 F 19.25 #
coedge $-1 $148 $52 $149 $150 0 $20 $-1 #
coedge $-1 $53 $151 $85 $136 0 $20 $-1 #
coedge $-1 $152 $153 $54 $94 1 $154 $-1 #
edge $155 $99 $105 $54 $156 0 #
coedge $-1 $157 $55 $60 $109 1 $97 $-1 #
coedge $-1 $55 $157 $152 $158 0 $97 $-1 #
loop $-1 $-1 $96 $159 #
ptlist-eye-attrib $-1 $-1 $-1 $56 #
vertex $-1 $56 $160 #
straight-curve $-1 -5 0 -2.5 0 1 0 I I #
coedge $-1 $161 $57 $153 $162 1 $103 $-1 #
coedge $-1 $57 $161 $59 $108 0 $103 $-1 #
loop $-1 $-1 $102 $163 #
ptlist-eye-attrib $-1 $-1 $-1 $58 #
vertex $-1 $94 $164 #
straight-curve $-1 5 0 -2.5 0 -1 0 I I #
coedge $-1 $60 $59 $165 $166 1 $61 $-1 #
edge $167 $168 $63 $102 $169 0 #
edge $170 $171 $64 $95 $172 0 #
face $173 $159 $61 $5 $-1 $174 reversed single #
point $-1 5 -5 -2.5 #
point $-1 -5 -5 -2.5 #
coedge $-1 $175 $66 $84 $135 0 $68 $-1 #
coedge $-1 $67 $176 $177 $178 0 $68 $-1 #
loop $-1 $-1 $179 $116 #
face $180 $181 $68 $5 $-1 $182 forward single #
point $-1 -5 -10 5 #
point $-1 -5 -10 -2.5 #
coedge $-1 $85 $84 $74 $120 0 $27 $-1 #
edge $-1 $125 $122 $74 $183 0 #
ptlist-eye-attrib $-1 $-1 $-1 $75 #
vertex $-1 $136 $184 #
straight-curve $-1 -10 0 -2.5 0 1 0 I I #
id_attribute-st-attrib $-1 $185 $-1 $76 0 #
vertex $-1 $135 $186 #
straight-curve $-1 -10 0 5 0 1 0 I I #
fmesh-eye-attrib $-1 $-1 $-1 $77 #
plane-surface $-1 -10 0 1.25 1 0 0 0 0 -1 0 I I I I #
face $187 $188 $189 $5 $-1 $190 forward single #
loop $-1 $-1 $191 $80 #
plane-surface $-1 10 0 1.25 -1 0 0 0 0 1 0 I I I I #
coedge $-1 $192 $193 $191 $194 0 $81 $-1 #
coedge $-1 $195 $83 $151 $196 0 $46 $-1 #
coedge $-1 $83 $195 $175 $197 1 $46 $-1 #
edge $198 $125 $138 $113 $199 0 #
edge $-1 $137 $122 $92 $200 0 #
vertex $-1 $196 $201 #
vertex $-1 $197 $202 #
straight-curve $-1 -5 10 1.25 -0 -0 1 F -19.25 F 19.25 #
coedge $-1 $177 $149 $87 $141 0 $189 $-1 #
edge $-1 $146 $143 $87 $203 0 #
id_attribute-st-attrib $-1 $204 $-1 $88 0 #
vertex $-1 $88 $205 #
straight-curve $-1 0 -10 5 -1 0 0 I I #
ptlist-eye-attrib $-1 $-1 $-1 $89 #
vertex $-1 $89 $206 #
straight-curve $-1 0 -10 -2.5 -1 0 0 I I #
coedge $-1 $207 $91 $208 $209 1 $20 $-1 #
coedge $-1 $140 $210 $91 $150 1 $189 $-1 #
edge $-1 $146 $211 $91 $212 0 #
coedge $-1 $92 $207 $133 $196 1 $20 $-1 #
coedge $-1 $213 $93 $96 $158 1 $154 $-1 #
coedge $-1 $93 $213 $101 $162 0 $154 $-1 #
loop $-1 $-1 $153 $214 #
ptlist-eye-attrib $-1 $-1 $-1 $94 #
straight-curve $-1 0 5 -2.5 1 0 -0 I I #
coedge $-1 $96 $95 $215 $216 1 $97 $-1 #
edge $217 $218 $99 $152 $219 0 #
face $220 $214 $97 $5 $-1 $221 reversed single #
point $-1 -5 5 -2.5 #
coedge $-1 $102 $101 $222 $223 1 $103 $-1 #
edge $224 $225 $105 $101 $226 0 #
face $227 $77 $103 $5 $-1 $228 reversed single #
point $-1 5 5 -2.5 #
coedge $-1 $222 $215 $107 $166 0 $229 $-1 #
edge $230 $171 $168 $107 $231 0 #
ptlist-eye-attrib $-1 $-1 $-1 $108 #
vertex $-1 $223 $232 #
straight-curve $-1 5 -5 0 0 0 -1 I I #
ptlist-eye-attrib $-1 $-1 $-1 $109 #
vertex $-1 $216 $233 #
straight-curve $-1 -5 -5 0 0 0 -1 I I #
fmesh-eye-attrib $-1 $-1 $-1 $110 #
plane-surface $-1 0 -5 0 0 1 0 0 0 1 0 I I I I #
coedge $-1 $234 $113 $134 $197 0 $68 $-1 #
coedge $-1 $114 $234 $235 $236 0 $68 $-1 #
coedge $-1 $210 $140 $114 $178 1 $189 $-1 #
edge $-1 $237 $143 $114 $238 0 #
coedge $-1 $239 $240 $241 $242 0 $115 $-1 #
fmesh-eye-attrib $-1 $243 $-1 $116 #
face $244 $245 $246 $5 $-1 $247 reversed single #
plane-surface $-1 0 0 5 0 0 1 1 0 0 0 I I I I #
straight-curve $-1 -10 5 1.25 0 -0 -1 F -19.25 F 19.25 #
point $-1 -10 5 -2.5 #
ptlist-eye-attrib $-1 $-1 $124 $76 #
point $-1 -10 5 5 #
id_attribute-st-attrib $-1 $-1 $-1 $129 0 #
face $248 $110 $229 $5 $-1 $249 forward single #
loop $-1 $-1 $140 $129 #
cone-surface $-1 5 -5 1.25 0 0 -1 3.535533905932737309 -3.535533905932737309 0 1 I I 0 -1 0 I I I I #
coedge $-1 $208 $235 $132 $194 1 $130 $-1 #
coedge $-1 $250 $132 $234 $251 1 $81 $-1 #
coedge $-1 $132 $250 $207 $252 1 $81 $-1 #
edge $-1 $253 $254 $191 $255 0 #
coedge $-1 $134 $133 $250 $256 1 $46 $-1 #
edge $257 $137 $258 $133 $259 0 #
edge $260 $138 $261 $175 $262 0 #
id_attribute-st-attrib $-1 $-1 $-1 $135 0 #
ellipse-curve $-1 -5 5 5 -0 -0 -1 -3.535533905932737309 3.535533905932737309 0 1 I I #
ellipse-curve $-1 -5 5 -2.5 0 0 1 -3.535533905932737309 3.535533905932737309 0 1 I I #
point $-1 -5 10 -2.5 #
point $-1 -5 10 5 #
straight-curve $-1 5 -10 1.25 0 -0 1 F -19.25 F 19.25 #
ptlist-eye-attrib $-1 $-1 $142 $88 #
point $-1 5 -10 5 #
point $-1 5 -10 -2.5 #
coedge $-1 $151 $148 $193 $252 0 $20 $-1 #
coedge $-1 $263 $191 $148 $209 0 $130 $-1 #
edge $264 $253 $211 $208 $265 0 #
coedge $-1 $149 $177 $263 $266 0 $189 $-1 #
vertex $-1 $150 $267 #
ellipse-curve $-1 5 -5 -2.5 0 0 1 3.535533905932737309 -3.535533905932737309 0 1 I I #
coedge $-1 $153 $152 $268 $269 1 $154 $-1 #
face $270 $163 $154 $5 $-1 $271 reversed single #
coedge $-1 $165 $268 $157 $216 0 $229 $-1 #
edge $272 $218 $171 $157 $273 0 #
ptlist-eye-attrib $-1 $-1 $-1 $158 #
vertex $-1 $269 $274 #
straight-curve $-1 -5 5 0 0 0 -1 I I #
fmesh-eye-attrib $-1 $-1 $-1 $159 #
plane-surface $-1 -5 0 0 1 0 0 0 0 -1 0 I I I I #
coedge $-1 $268 $165 $161 $223 0 $229 $-1 #
edge $275 $168 $225 $161 $276 0 #
ptlist-eye-attrib $-1 $-1 $-1 $162 #
vertex $-1 $223 $277 #
straight-curve $-1 5 5 0 0 0 -1 I I #
fmesh-eye-attrib $-1 $-1 $-1 $163 #
plane-surface $-1 5 0 0 -1 0 0 0 0 1 0 I I I I #
loop $-1 $-1 $222 $188 #
ptlist-eye-attrib $-1 $-1 $-1 $166 #
straight-curve $-1 0 -5 2.5 1 0 0 I I #
point $-1 5 -5 2.5 #
point $-1 -5 -5 2.5 #
coedge $-1 $176 $175 $192 $251 0 $68 $-1 #
coedge $-1 $191 $263 $176 $236 1 $130 $-1 #
edge $278 $254 $237 $176 $279 0 #
vertex $-1 $178 $280 #
ellipse-curve $-1 5 -5 5 -0 -0 -1 3.535533905932737309 -3.535533905932737309 0 1 I I #
coedge $-1 $281 $179 $282 $283 0 $115 $-1 #
coedge $-1 $179 $281 $284 $285 0 $115 $-1 #
coedge $-1 $286 $287 $179 $242 1 $288 $-1 #
edge $289 $290 $291 $241 $292 0 #
id_attribute-st-attrib $-1 $-1 $180 $116 0 #
fmesh-eye-attrib $-1 $293 $-1 $181 #
face $294 $295 $296 $5 $-1 $297 reversed single #
loop $-1 $-1 $298 $181 #
plane-surface $-1 0 0 -5 0 0 1 1 0 0 0 I I I I #
fmesh-eye-attrib $-1 $-1 $-1 $188 #
plane-surface $-1 0 0 2.5 0 0 1 1 0 0 0 I I I I #
coedge $-1 $193 $192 $195 $256 0 $81 $-1 #
edge $299 $261 $254 $234 $300 0 #
edge $-1 $253 $258 $207 $301 0 #
vertex $-1 $209 $302 #
vertex $-1 $236 $303 #
straight-curve $-1 10 5 1.25 -0 0 1 F -19.25 F 19.25 #
edge $-1 $261 $258 $195 $304 0 #
ptlist-eye-attrib $-1 $-1 $-1 $196 #
vertex $-1 $252 $305 #
straight-curve $-1 0 10 -2.5 1 0 0 I I #
id_attribute-st-attrib $-1 $306 $-1 $197 0 #
vertex $-1 $251 $307 #
straight-curve $-1 0 10 5 1 0 -0 I I #
coedge $-1 $235 $208 $210 $266 1 $130 $-1 #
ptlist-eye-attrib $-1 $-1 $-1 $209 #
straight-curve $-1 10 0 -2.5 0 -1 0 I I #
edge $-1 $237 $211 $263 $308 0 #
point $-1 10 -5 -2.5 #
coedge $-1 $215 $222 $213 $269 0 $229 $-1 #
edge $309 $225 $218 $213 $310 0 #
fmesh-eye-attrib $-1 $-1 $-1 $214 #
plane-surface $-1 0 5 0 0 -1 0 0 0 -1 0 I I I I #
ptlist-eye-attrib $-1 $-1 $-1 $216 #
straight-curve $-1 -5 0 2.5 0 -1 0 I I #
point $-1 -5 5 2.5 #
ptlist-eye-attrib $-1 $-1 $-1 $223 #
straight-curve $-1 5 0 2.5 0 1 0 I I #
point $-1 5 5 2.5 #
id_attribute-st-attrib $-1 $311 $-1 $236 0 #
straight-curve $-1 10 0 5 0 -1 0 I I #
point $-1 10 -5 5 #
coedge $-1 $240 $239 $312 $313 0 $115 $-1 #
coedge $-1 $314 $315 $239 $283 1 $316 $-1 #
edge $317 $291 $318 $282 $319 0 #
coedge $-1 $320 $321 $240 $285 1 $296 $-1 #
edge $322 $323 $290 $284 $324 0 #
coedge $-1 $325 $241 $321 $326 0 $288 $-1 #
coedge $-1 $241 $325 $314 $327 1 $288 $-1 #
loop $-1 $-1 $286 $328 #
id_attribute-st-attrib $-1 $329 $-1 $242 0 #
vertex $-1 $242 $330 #
vertex $-1 $242 $331 #
straight-curve $-1 15 0 5 0 1 0 I I #
id_attribute-st-attrib $-1 $-1 $244 $181 0 #
fmesh-eye-attrib $-1 $-1 $-1 $245 #
face $332 $333 $334 $5 $-1 $335 reversed single #
loop $-1 $-1 $320 $245 #
plane-surface $-1 0 -15 0 0 1 -0 -0 0 1 0 I I I I #
coedge $-1 $336 $337 $325 $338 0 $246 $-1 #
id_attribute-st-attrib $-1 $-1 $-1 $251 0 #
ellipse-curve $-1 5 5 5 -0 -0 -1 3.535533905932737309 3.535533905932737309 0 1 I I #
ellipse-curve $-1 5 5 -2.5 0 0 1 3.535533905932737309 3.535533905932737309 0 1 I I #
point $-1 10 5 -2.5 #
point $-1 10 5 5 #
straight-curve $-1 5 10 1.25 -0 0 -1 F -19.25 F 19.25 #
point $-1 5 10 -2.5 #
ptlist-eye-attrib $-1 $-1 $260 $197 #
point $-1 5 10 5 #
straight-curve $-1 10 -5 1.25 0 0 -1 F -19.25 F 19.25 #
ptlist-eye-attrib $-1 $-1 $-1 $269 #
straight-curve $-1 0 5 2.5 -1 0 0 I I #
ptlist-eye-attrib $-1 $-1 $278 $236 #
coedge $-1 $339 $340 $281 $313 1 $334 $-1 #
edge $341 $318 $323 $312 $342 0 #
coedge $-1 $343 $282 $287 $327 0 $316 $-1 #
coedge $-1 $282 $343 $339 $344 1 $316 $-1 #
loop $-1 $-1 $314 $333 #
id_attribute-st-attrib $-1 $345 $-1 $283 0 #
vertex $-1 $283 $346 #
straight-curve $-1 0 15 5 -1 0 0 I I #
coedge $-1 $347 $284 $340 $348 0 $296 $-1 #
coedge $-1 $284 $347 $286 $326 1 $296 $-1 #
id_attribute-st-attrib $-1 $349 $-1 $285 0 #
vertex $-1 $313 $350 #
straight-curve $-1 0 -15 5 1 0 0 I I #
coedge $-1 $287 $286 $298 $338 1 $288 $-1 #
edge $351 $290 $352 $286 $353 0 #
edge $354 $291 $355 $287 $356 0 #
face $357 $-1 $288 $5 $-1 $358 reversed single #
ptlist-eye-attrib $-1 $-1 $289 $242 #
point $-1 15 -15 5 #
point $-1 15 15 5 #
fmesh-eye-attrib $-1 $-1 $-1 $295 #
face $359 $328 $316 $5 $-1 $360 reversed single #
loop $-1 $-1 $339 $295 #
plane-surface $-1 -15 0 0 1 0 0 0 0 -1 0 I I I I #
coedge $-1 $361 $298 $347 $362 0 $246 $-1 #
coedge $-1 $298 $361 $343 $363 0 $246 $-1 #
edge $364 $355 $352 $325 $365 0 #
coedge $-1 $366 $312 $315 $344 0 $334 $-1 #
coedge $-1 $312 $366 $320 $348 1 $334 $-1 #
id_attribute-st-attrib $-1 $367 $-1 $313 0 #
straight-curve $-1 -15 0 5 0 -1 0 I I #
coedge $-1 $315 $314 $337 $363 1 $316 $-1 #
edge $368 $318 $369 $315 $370 0 #
ptlist-eye-attrib $-1 $-1 $317 $283 #
point $-1 -15 15 5 #
coedge $-1 $321 $320 $336 $362 1 $296 $-1 #
edge $371 $323 $372 $340 $373 0 #
ptlist-eye-attrib $-1 $-1 $322 $285 #
point $-1 -15 -15 5 #
ptlist-eye-attrib $-1 $-1 $-1 $326 #
vertex $-1 $326 $374 #
straight-curve $-1 15 -15 0 0 0 -1 I I #
ptlist-eye-attrib $-1 $-1 $-1 $327 #
vertex $-1 $338 $375 #
straight-curve $-1 15 15 0 0 0 -1 I I #
fmesh-eye-attrib $-1 $-1 $-1 $328 #
plane-surface $-1 15 0 0 -1 0 0 0 -0 1 0 I I I I #
fmesh-eye-attrib $-1 $-1 $-1 $333 #
plane-surface $-1 0 15 0 0 -1 0 0 0 -1 0 I I I I #
coedge $-1 $337 $336 $366 $376 0 $246 $-1 #
edge $377 $352 $372 $347 $378 0 #
edge $379 $369 $355 $343 $380 0 #
ptlist-eye-attrib $-1 $-1 $-1 $338 #
straight-curve $-1 15 0 -5 0 -1 0 I I #
coedge $-1 $340 $339 $361 $376 1 $334 $-1 #
ptlist-eye-attrib $-1 $-1 $341 $313 #
ptlist-eye-attrib $-1 $-1 $-1 $344 #
vertex $-1 $363 $381 #
straight-curve $-1 -15 15 0 0 0 -1 I I #
ptlist-eye-attrib $-1 $-1 $-1 $348 #
vertex $-1 $376 $382 #
straight-curve $-1 -15 -15 0 0 0 -1 I I #
point $-1 15 -15 -5 #
point $-1 15 15 -5 #
edge $383 $372 $369 $366 $384 0 #
ptlist-eye-attrib $-1 $-1 $-1 $362 #
straight-curve $-1 0 -15 -5 -1 0 0 I I #
ptlist-eye-attrib $-1 $-1 $-1 $363 #
straight-curve $-1 0 15 -5 1 0 0 I I #
point $-1 -15 15 -5 #
point $-1 -15 -15 -5 #
ptlist-eye-attrib $-1 $-1 $-1 $376 #
straight-curve $-1 -15 0 -5 0 1 0 I I #
End-of-ACIS-data 