600 0 2 0           
24 FBMach with ACIS - 6.0.3 13 ACIS 6.0.3 NT 24 Mon Apr 01 16:20:03 2002 
1 9.9999999999999995e-007 1e-010 
body $2 $3 $-1 $4 #
bdycol-kcp $-1 1 1 $5 #
model_id-kcp-attrib $-1 $6 $-1 $0 1 1017696002 60 1765539841 1 #
lump $-1 $-1 $7 $0 #
transform $-1 1 0 0 0 1 0 0 0 1 0 0 0 1 rotate no_reflect no_shear #
body $8 $9 $-1 $10 #
aggregate_advspl_attribute-aggregate_geombuild_base_attribute-aggregate_body_attribute-attrib_HH-attrib $-1 $11 $2 $0 F #
shell $-1 $-1 $-1 $12 $-1 $3 #
model_id-kcp-attrib $-1 $-1 $-1 $5 1 1017696002 70 1766195202 1 #
lump $-1 $-1 $13 $5 #
transform $-1 1 0 0 0 1 0 0 0 1 -0.14250000000000002 0 0.00019454763116605323 1 no_rotate no_reflect no_shear #
aggregate_secndry_attribute-aggregate_geombuild_base_attribute-aggregate_body_attribute-attrib_HH-attrib $-1 $14 $6 $0 F #
face $15 $16 $17 $7 $-1 $18 forward single #
shell $-1 $-1 $-1 $19 $-1 $9 #
aggregate_sharped_attribute-aggregate_geombuild_base_attribute-aggregate_body_attribute-attrib_HH-attrib $-1 $20 $11 $0 F #
model_id-kcp-attrib $-1 $21 $-1 $12 1 1017696002 60 1765539841 2 #
face $22 $23 $24 $7 $-1 $25 forward single #
loop $-1 $-1 $26 $12 #
plane-surface $-1 -0.30892098958974001 0 0.045539237926160499 -0.9999984769132878 0 0.0017453283658986696 0.0017453283658986701 0 0.99999847691328803 forward_v I I I I #
face $-1 $27 $28 $13 $-1 $29 forward single #
aggregate_reblend_attribute-aggregate_geombuild_base_attribute-aggregate_body_attribute-attrib_HH-attrib $-1 $30 $14 $0 F #
attrib_hh_face_geombuild-attrib_entity_geombuild-individual_entity_attribute-attrib_HH-attrib $-1 $31 $15 $12 F #
model_id-kcp-attrib $-1 $32 $-1 $16 1 1017696002 60 1765539841 3 #
face $33 $34 $35 $7 $-1 $36 forward single #
loop $-1 $37 $38 $16 #
cone-surface $-1 -0.27266241667010599 0 0.045475954713951001 -0.9999984769132878 0 0.0017453283658986696 8.7266418294933506e-006 0 0.0049999923845664403 1 I I 0 1 0.0050000000000000018 forward I I I I #
coedge $39 $26 $26 $40 $41 reversed $17 $-1 #
face $-1 $42 $43 $13 $-1 $44 reversed single #
loop $-1 $-1 $45 $19 #
plane-surface $-1 0 0 0.095194547631166054 0 0 1 1 0 0 forward_v I I I I #
aggregate_isospline_attribute-aggregate_geombuild_base_attribute-aggregate_body_attribute-attrib_HH-attrib $-1 $46 $20 $0 F #
pid_name-sg-attrib $-1 $-1 $21 $12 7 rwilson 784252905 1244 1 #
attrib_hh_face_geombuild-attrib_entity_geombuild-individual_entity_attribute-attrib_HH-attrib $-1 $47 $22 $16 F #
model_id-kcp-attrib $-1 $48 $-1 $23 1 1017696002 60 1765539841 4 #
face $49 $50 $51 $7 $-1 $52 forward single #
loop $-1 $53 $54 $23 #
torus-surface $-1 -0.27261878346095902 0 0.070475916636783195 0 1 0 0.025000000000000001 0.0050000000000000001 0 0 1 forward_v I I I I #
loop $-1 $-1 $40 $16 #
coedge $55 $38 $38 $54 $56 forward $24 $-1 #
attrib_hh_coedge_geombuild-attrib_entity_geombuild-individual_entity_attribute-attrib_HH-attrib $-1 $-1 $-1 $26 F #
coedge $57 $40 $40 $26 $41 forward $37 $-1 #
edge $58 $59 -6.2831853071795862 $59 0 $26 $60 reversed 7 unknown #
face $-1 $61 $62 $13 $-1 $63 reversed single #
loop $-1 $-1 $64 $27 #
plane-surface $-1 0 0 -0.095194547631166054 0 0 1 1 0 0 forward_v I I I I #
coedge $-1 $65 $66 $67 $68 forward $28 $-1 #
aggregate_analytic_solver_attribute-aggregate_geombuild_base_attribute-aggregate_body_attribute-attrib_HH-attrib $-1 $69 $30 $0 F #
pid_name-sg-attrib $-1 $-1 $32 $16 7 rwilson 784252905 1245 1 #
attrib_hh_face_geombuild-attrib_entity_geombuild-individual_entity_attribute-attrib_HH-attrib $-1 $70 $33 $23 F #
model_id-kcp-attrib $-1 $71 $-1 $34 1 1017696002 60 1765539841 5 #
face $72 $73 $74 $7 $-1 $75 forward single #
loop $-1 $76 $77 $34 #
torus-surface $-1 -0.222878214020064 0 0.065389095262332095 0 -1 0 0.025000000000000001 0.0050000000000000001 0 0 -1 forward_v I I I I #
loop $-1 $-1 $78 $23 #
coedge $79 $54 $54 $38 $56 reversed $35 $-1 #
attrib_hh_coedge_geombuild-attrib_entity_geombuild-individual_entity_attribute-attrib_HH-attrib $-1 $-1 $-1 $38 F #
edge $80 $81 -3.1415926535897931 $81 3.1415926535897931 $54 $82 forward 7 unknown #
attrib_hh_coedge_geombuild-attrib_entity_geombuild-individual_entity_attribute-attrib_HH-attrib $-1 $-1 $-1 $40 F #
attrib_hh_edge_geombuild-attrib_entity_geombuild-individual_entity_attribute-attrib_HH-attrib $-1 $-1 $-1 $41 F #
vertex $83 $41 $84 #
ellipse-curve $-1 -0.30892098958974001 0 0.045539237926160499 -0.9999984769132878 0 0.0017453283658985796 8.7266418294928999e-006 0 0.0049999923845664403 1 I I #
face $85 $86 $87 $13 $-1 $88 reversed single #
loop $-1 $-1 $89 $42 #
plane-surface $-1 0 -0.0050000000000000131 0 0 1 0 0 0 1 forward_v I I I I #
coedge $-1 $90 $91 $92 $93 forward $43 $-1 #
coedge $-1 $94 $45 $95 $96 forward $28 $-1 #
coedge $-1 $45 $94 $97 $98 forward $28 $-1 #
coedge $-1 $99 $100 $45 $68 reversed $101 $-1 #
edge $-1 $102 -0.0050000000000000131 $103 0.0050000000000000131 $67 $104 forward 7 unknown #
aggregate_geombuild_attribute-aggregate_geombuild_base_attribute-aggregate_body_attribute-attrib_HH-attrib $-1 $105 $46 $0 #
pid_name-sg-attrib $-1 $-1 $48 $23 7 rwilson 784252905 1246 1 #
attrib_hh_face_geombuild-attrib_entity_geombuild-individual_entity_attribute-attrib_HH-attrib $-1 $106 $49 $34 F #
model_id-kcp-attrib $-1 $107 $-1 $50 1 1017696002 60 1765539841 6 #
face $108 $109 $110 $7 $-1 $111 forward single #
loop $-1 $112 $113 $50 #
torus-surface $-1 -0.17312019129551101 0 0.070302258657013797 0 1 0 0.025000000000000001 0.0050000000000000001 0 0 1 forward_v I I I I #
loop $-1 $-1 $114 $34 #
coedge $115 $77 $77 $113 $116 forward $51 $-1 #
coedge $117 $78 $78 $114 $118 forward $53 $-1 #
attrib_hh_coedge_geombuild-attrib_entity_geombuild-individual_entity_attribute-attrib_HH-attrib $-1 $-1 $-1 $54 F #
attrib_hh_edge_geombuild-attrib_entity_geombuild-individual_entity_attribute-attrib_HH-attrib $-1 $-1 $-1 $56 F #
vertex $119 $56 $120 #
ellipse-curve $-1 -0.27266241667010599 0 0.045475954713951001 -0.9999984769132878 0 0.0017453283658985796 8.7266418294928999e-006 0 0.0049999923845664403 1 I I #
attrib_hh_vertex_geombuild-attrib_entity_geombuild-individual_entity_attribute-attrib_HH-attrib $-1 $-1 $-1 $59 F #
point $-1 -0.30891226294791102 0 0.0505392303107269 #
model_id-kcp-attrib $-1 $-1 $-1 $61 1 1017696002 70 1766195202 2 #
face $-1 $121 $122 $13 $-1 $123 reversed single #
loop $-1 $-1 $124 $61 #
plane-surface $-1 -0.1925 0 0 1 0 0 0 0 -1 forward_v I I I I #
coedge $-1 $125 $97 $126 $127 forward $62 $-1 #
coedge $-1 $128 $64 $125 $129 forward $43 $-1 #
coedge $-1 $64 $128 $130 $131 forward $43 $-1 #
coedge $-1 $100 $99 $64 $93 reversed $101 $-1 #
edge $-1 $132 -0.0050000000000000131 $133 0.0050000000000000131 $92 $134 forward 7 unknown #
coedge $-1 $66 $65 $135 $136 forward $28 $-1 #
coedge $-1 $137 $138 $65 $96 reversed $122 $-1 #
edge $-1 $103 -0.1925 $139 0.1925 $95 $140 forward 7 unknown #
coedge $-1 $89 $141 $66 $98 reversed $62 $-1 #
edge $-1 $142 -0.1925 $102 0.1925 $97 $143 forward 7 unknown #
coedge $-1 $92 $67 $141 $144 forward $101 $-1 #
coedge $-1 $67 $92 $137 $145 reversed $101 $-1 #
loop $-1 $-1 $99 $121 #
vertex $-1 $68 $146 #
vertex $-1 $68 $147 #
straight-curve $-1 0.1925 0 0.095194547631166054 0 1 0 I I #
aggregate_stitch_attribute-aggregate_stitch_base_attribute-aggregate_body_attribute-attrib_HH-attrib $-1 $148 $69 $0 F #
pid_name-sg-attrib $-1 $-1 $71 $34 7 rwilson 784252905 1247 1 #
attrib_hh_face_geombuild-attrib_entity_geombuild-individual_entity_attribute-attrib_HH-attrib $-1 $149 $72 $50 F #
model_id-kcp-attrib $-1 $150 $-1 $73 1 1017696002 60 1765539841 7 #
face $151 $152 $153 $7 $-1 $154 forward single #
loop $-1 $155 $156 $73 #
cone-surface $-1 7.8539776465436098e-005 0 0.044999931461098 -0.9999984769132878 0 0.0017453283658985096 8.7266418294925408e-006 0 0.0049999923845664403 1 I I 0 1 0.0050000000000000018 forward I I I I #
loop $-1 $-1 $157 $50 #
coedge $158 $113 $113 $77 $116 reversed $74 $-1 #
coedge $159 $114 $114 $78 $118 reversed $76 $-1 #
attrib_hh_coedge_geombuild-attrib_entity_geombuild-individual_entity_attribute-attrib_HH-attrib $-1 $-1 $-1 $77 F #
edge $160 $161 -3.1415926535897931 $161 3.1415926535897931 $113 $162 forward 7 unknown #
attrib_hh_coedge_geombuild-attrib_entity_geombuild-individual_entity_attribute-attrib_HH-attrib $-1 $-1 $-1 $78 F #
edge $163 $164 -3.1415926535897931 $164 3.1415926535897931 $114 $165 forward 7 unknown #
attrib_hh_vertex_geombuild-attrib_entity_geombuild-individual_entity_attribute-attrib_HH-attrib $-1 $-1 $-1 $81 F #
point $-1 -0.27267114331193598 -6.1230317691118901e-019 0.0404759623293846 #
face $-1 $-1 $101 $13 $-1 $166 reversed single #
loop $-1 $-1 $137 $86 #
plane-surface $-1 0 0.0050000000000000131 0 0 -1 0 0 0 -1 forward_v I I I I #
coedge $-1 $167 $135 $138 $168 forward $87 $-1 #
coedge $-1 $141 $89 $90 $129 reversed $62 $-1 #
coedge $-1 $135 $167 $89 $127 reversed $87 $-1 #
edge $-1 $142 -0.095194547631166054 $169 0.095194547631166054 $126 $170 forward 7 unknown #
coedge $-1 $91 $90 $167 $171 forward $43 $-1 #
edge $-1 $133 -0.1925 $169 0.1925 $125 $172 forward 7 unknown #
coedge $-1 $138 $137 $91 $131 reversed $122 $-1 #
edge $-1 $173 -0.1925 $132 0.1925 $130 $174 forward 7 unknown #
vertex $-1 $93 $175 #
vertex $-1 $144 $176 #
straight-curve $-1 0.1925 0 -0.095194547631166054 0 -1 0 I I #
coedge $-1 $124 $126 $94 $136 reversed $87 $-1 #
edge $-1 $139 -0.0050000000000000131 $142 0.0050000000000000131 $135 $177 forward 7 unknown #
coedge $-1 $130 $95 $100 $145 forward $122 $-1 #
coedge $-1 $95 $130 $124 $168 reversed $122 $-1 #
vertex $-1 $96 $178 #
straight-curve $-1 0 0.0050000000000000131 0.095194547631166054 -1 0 0 I I #
coedge $-1 $97 $125 $99 $144 reversed $62 $-1 #
vertex $-1 $136 $179 #
straight-curve $-1 0 -0.0050000000000000131 0.095194547631166054 1 0 0 I I #
edge $-1 $102 -0.095194547631166054 $133 0.095194547631166054 $99 $180 forward 7 unknown #
edge $-1 $103 -0.095194547631166054 $132 0.095194547631166054 $100 $181 forward 7 unknown #
point $-1 0.1925 -0.0050000000000000131 0.095194547631166054 #
point $-1 0.1925 0.0050000000000000131 0.095194547631166054 #
aggregate_simgeom_attribute-aggregate_simgeom_base_attribute-aggregate_body_attribute-attrib_HH-attrib $-1 $-1 $105 $0 F #
pid_name-sg-attrib $-1 $-1 $107 $50 7 rwilson 784252905 1248 1 #
attrib_hh_face_geombuild-attrib_entity_geombuild-individual_entity_attribute-attrib_HH-attrib $-1 $182 $108 $73 F #
model_id-kcp-attrib $-1 $183 $-1 $109 1 1017696002 60 1765539841 8 #
face $184 $185 $186 $7 $-1 $187 forward single #
loop $-1 $188 $189 $109 #
torus-surface $-1 0 0 2.0816681711721701e-017 0 -1 0 0.044999999999999998 0.0050000000000000001 0 0 -1 forward_v I I I I #
loop $-1 $-1 $190 $73 #
coedge $191 $156 $156 $189 $192 forward $110 $-1 #
coedge $193 $157 $157 $190 $194 forward $112 $-1 #
attrib_hh_coedge_geombuild-attrib_entity_geombuild-individual_entity_attribute-attrib_HH-attrib $-1 $-1 $-1 $113 F #
attrib_hh_coedge_geombuild-attrib_entity_geombuild-individual_entity_attribute-attrib_HH-attrib $-1 $-1 $-1 $114 F #
attrib_hh_edge_geombuild-attrib_entity_geombuild-individual_entity_attribute-attrib_HH-attrib $-1 $-1 $-1 $116 F #
vertex $195 $116 $196 #
ellipse-curve $-1 -0.197999202657788 0 0.067845676959673001 -0.098263267893633835 0 0.99516045449106549 0.0049758022724553401 0 0.00049131633946816701 1 I I #
attrib_hh_edge_geombuild-attrib_entity_geombuild-individual_entity_attribute-attrib_HH-attrib $-1 $-1 $-1 $118 F #
vertex $197 $118 $198 #
ellipse-curve $-1 -0.247748498740512 0 0.0679325059495577 -0.10173642748902199 -7.7037197775489401e-032 -0.994811388817886 0.0049740569440894196 -1.2246063538223799e-018 -0.00050868213744510705 1 I I #
plane-surface $-1 0.1925 0 0 -1 0 0 0 0 1 forward_v I I I I #
coedge $-1 $126 $124 $128 $171 reversed $87 $-1 #
edge $-1 $139 -0.095194547631166054 $173 0.095194547631166054 $138 $199 forward 7 unknown #
vertex $-1 $171 $200 #
straight-curve $-1 -0.1925 -0.0050000000000000131 0 0 0 -1 I I #
edge $-1 $169 -0.0050000000000000131 $173 0.0050000000000000131 $167 $201 forward 7 unknown #
straight-curve $-1 0 -0.0050000000000000131 -0.095194547631166054 -1 0 0 I I #
vertex $-1 $131 $202 #
straight-curve $-1 0 0.0050000000000000131 -0.095194547631166054 1 0 0 I I #
point $-1 0.1925 0.0050000000000000131 -0.095194547631166054 #
point $-1 0.1925 -0.0050000000000000131 -0.095194547631166054 #
straight-curve $-1 -0.1925 0 0.095194547631166054 0 -1 0 I I #
point $-1 -0.1925 0.0050000000000000131 0.095194547631166054 #
point $-1 -0.1925 -0.0050000000000000131 0.095194547631166054 #
straight-curve $-1 0.1925 -0.0050000000000000131 0 0 0 -1 I I #
straight-curve $-1 0.1925 0.0050000000000000131 0 0 0 -1 I I #
pid_name-sg-attrib $-1 $-1 $150 $73 7 rwilson 784252905 1249 1 #
attrib_hh_face_geombuild-attrib_entity_geombuild-individual_entity_attribute-attrib_HH-attrib $-1 $203 $151 $109 F #
model_id-kcp-attrib $-1 $204 $-1 $152 1 1017696002 60 1765539841 9 #
face $205 $206 $207 $7 $-1 $208 forward single #
loop $-1 $209 $210 $152 #
cone-surface $-1 -0.050250628144668998 0 -0.044999999999999998 1 0 8.6736173798840293e-018 4.3368086899420198e-020 0 -0.0050000000000000001 1 I I 0 1 0.0050000000000000001 forward I I I I #
loop $-1 $-1 $211 $109 #
coedge $212 $189 $189 $156 $192 reversed $153 $-1 #
coedge $213 $190 $190 $157 $194 reversed $155 $-1 #
attrib_hh_coedge_geombuild-attrib_entity_geombuild-individual_entity_attribute-attrib_HH-attrib $-1 $-1 $-1 $156 F #
edge $214 $215 -3.1415926535897931 $215 3.1415926535897931 $189 $216 forward 7 unknown #
attrib_hh_coedge_geombuild-attrib_entity_geombuild-individual_entity_attribute-attrib_HH-attrib $-1 $-1 $-1 $157 F #
edge $217 $218 -3.1415926535897931 $218 3.1415926535897931 $190 $219 forward 7 unknown #
attrib_hh_vertex_geombuild-attrib_entity_geombuild-individual_entity_attribute-attrib_HH-attrib $-1 $-1 $-1 $161 F #
point $-1 -0.20297500493024301 -6.1230317691118901e-019 0.067354360620204806 #
attrib_hh_vertex_geombuild-attrib_entity_geombuild-individual_entity_attribute-attrib_HH-attrib $-1 $-1 $-1 $164 F #
point $-1 -0.252722555684601 6.1230317691118901e-019 0.068441188087002794 #
straight-curve $-1 -0.1925 0.0050000000000000131 0 0 0 -1 I I #
point $-1 -0.1925 -0.0050000000000000131 -0.095194547631166054 #
straight-curve $-1 -0.1925 0 -0.095194547631166054 0 1 0 I I #
point $-1 -0.1925 0.0050000000000000131 -0.095194547631166054 #
pid_name-sg-attrib $-1 $-1 $183 $109 7 rwilson 784252905 1250 1 #
attrib_hh_face_geombuild-attrib_entity_geombuild-individual_entity_attribute-attrib_HH-attrib $-1 $220 $184 $152 F #
model_id-kcp-attrib $-1 $221 $-1 $185 1 1017696002 60 1765539841 10 #
face $222 $223 $224 $7 $-1 $225 forward single #
loop $-1 $226 $227 $185 #
torus-surface $-1 -0.050250628144669102 0 -0.070000000000000007 0 1 0 0.025000000000000001 0.0050000000000000001 0 0 1 forward_v I I I I #
loop $-1 $-1 $228 $152 #
coedge $229 $210 $210 $227 $230 forward $186 $-1 #
coedge $231 $211 $211 $228 $232 forward $188 $-1 #
attrib_hh_coedge_geombuild-attrib_entity_geombuild-individual_entity_attribute-attrib_HH-attrib $-1 $-1 $-1 $189 F #
attrib_hh_coedge_geombuild-attrib_entity_geombuild-individual_entity_attribute-attrib_HH-attrib $-1 $-1 $-1 $190 F #
attrib_hh_edge_geombuild-attrib_entity_geombuild-individual_entity_attribute-attrib_HH-attrib $-1 $-1 $-1 $192 F #
vertex $233 $192 $234 #
ellipse-curve $-1 7.8539776465436098e-005 0 0.044999931461098 -0.9999984769132878 0 0.0017453283658985096 8.7266418294925493e-006 0 0.0049999923845664403 1 I I #
attrib_hh_edge_geombuild-attrib_entity_geombuild-individual_entity_attribute-attrib_HH-attrib $-1 $-1 $-1 $194 F #
vertex $235 $194 $236 #
ellipse-curve $-1 -0.173163824504659 0 0.0453022967341817 -0.9999984769132878 2.0127171625061895e-030 0.0017453283659152295 -8.7266418295761599e-006 -6.1230317691118603e-019 -0.0049999923845664403 1 I I #
pid_name-sg-attrib $-1 $-1 $204 $152 7 rwilson 784252905 1251 1 #
attrib_hh_face_geombuild-attrib_entity_geombuild-individual_entity_attribute-attrib_HH-attrib $-1 $237 $205 $185 F #
model_id-kcp-attrib $-1 $238 $-1 $206 1 1017696002 60 1765539841 11 #
face $239 $240 $241 $7 $-1 $242 forward single #
loop $-1 $243 $244 $206 #
torus-surface $-1 -0.10000000000000001 0 -0.065000000000000002 0 -1 0 0.025000000000000001 0.0050000000000000001 0 0 -1 forward_v I I I I #
loop $-1 $-1 $245 $185 #
coedge $246 $227 $227 $210 $230 reversed $207 $-1 #
coedge $247 $228 $228 $211 $232 reversed $209 $-1 #
attrib_hh_coedge_geombuild-attrib_entity_geombuild-individual_entity_attribute-attrib_HH-attrib $-1 $-1 $-1 $210 F #
edge $248 $249 -3.1415926535897931 $249 3.1415926535897931 $227 $250 forward 7 unknown #
attrib_hh_coedge_geombuild-attrib_entity_geombuild-individual_entity_attribute-attrib_HH-attrib $-1 $-1 $-1 $211 F #
edge $251 $252 -3.1415926535897931 $252 3.1415926535897931 $228 $253 forward 7 unknown #
attrib_hh_vertex_geombuild-attrib_entity_geombuild-individual_entity_attribute-attrib_HH-attrib $-1 $-1 $-1 $215 F #
point $-1 6.9813134635943498e-005 -6.1230317691118901e-019 0.039999939076531502 #
attrib_hh_vertex_geombuild-attrib_entity_geombuild-individual_entity_attribute-attrib_HH-attrib $-1 $-1 $-1 $218 F #
point $-1 -0.17315509786282901 6.1230317691118901e-019 0.050302289118748102 #
pid_name-sg-attrib $-1 $-1 $221 $185 7 rwilson 784252905 1252 1 #
attrib_hh_face_geombuild-attrib_entity_geombuild-individual_entity_attribute-attrib_HH-attrib $-1 $254 $222 $206 F #
model_id-kcp-attrib $-1 $255 $-1 $223 1 1017696002 60 1765539841 12 #
face $256 $257 $258 $7 $-1 $259 forward single #
loop $-1 $260 $261 $223 #
torus-surface $-1 -0.14974937185533099 0 -0.070000000000000007 0 1 0 0.025000000000000001 0.0050000000000000001 0 0 1 forward_v I I I I #
loop $-1 $-1 $262 $206 #
coedge $263 $244 $244 $261 $264 forward $224 $-1 #
coedge $265 $245 $245 $262 $266 forward $226 $-1 #
attrib_hh_coedge_geombuild-attrib_entity_geombuild-individual_entity_attribute-attrib_HH-attrib $-1 $-1 $-1 $227 F #
attrib_hh_coedge_geombuild-attrib_entity_geombuild-individual_entity_attribute-attrib_HH-attrib $-1 $-1 $-1 $228 F #
attrib_hh_edge_geombuild-attrib_entity_geombuild-individual_entity_attribute-attrib_HH-attrib $-1 $-1 $-1 $230 F #
vertex $267 $230 $268 #
ellipse-curve $-1 -0.050250628144668998 0 -0.044999999999999998 1 0 0 0 0 -0.0050000000000000001 1 I I #
attrib_hh_edge_geombuild-attrib_entity_geombuild-individual_entity_attribute-attrib_HH-attrib $-1 $-1 $-1 $232 F #
vertex $269 $232 $270 #
ellipse-curve $-1 -1.00725092329335e-017 0 -0.044999999999999998 1 -2.9055843502749501e-031 2.14883449575764e-015 -1.0744172478788199e-017 -6.1230317691118805e-019 0.0050000000000000001 1 I I #
pid_name-sg-attrib $-1 $-1 $238 $206 7 rwilson 784252905 1253 1 #
attrib_hh_face_geombuild-attrib_entity_geombuild-individual_entity_attribute-attrib_HH-attrib $-1 $271 $239 $223 F #
model_id-kcp-attrib $-1 $272 $-1 $240 1 1017696002 60 1765539841 13 #
face $273 $-1 $274 $7 $-1 $275 reversed single #
loop $-1 $276 $277 $240 #
cone-surface $-1 -0.33500000000000002 0 -0.044999999999999998 1 0 -6.2883726004159196e-017 -3.1441863002079599e-019 0 -0.0050000000000000001 1 I I 0 1 0.0050000000000000001 forward I I I I #
loop $-1 $-1 $278 $223 #
coedge $279 $261 $261 $244 $264 reversed $241 $-1 #
coedge $280 $262 $262 $245 $266 reversed $243 $-1 #
attrib_hh_coedge_geombuild-attrib_entity_geombuild-individual_entity_attribute-attrib_HH-attrib $-1 $-1 $-1 $244 F #
edge $281 $282 -3.1415926535897931 $282 3.1415926535897931 $261 $283 forward 7 unknown #
attrib_hh_coedge_geombuild-attrib_entity_geombuild-individual_entity_attribute-attrib_HH-attrib $-1 $-1 $-1 $245 F #
edge $284 $285 -3.1415926535897931 $285 3.1415926535897931 $262 $286 forward 7 unknown #
attrib_hh_vertex_geombuild-attrib_entity_geombuild-individual_entity_attribute-attrib_HH-attrib $-1 $-1 $-1 $249 F #
point $-1 -0.050250628144668998 -6.1230317691118805e-019 -0.040000000000000001 #
attrib_hh_vertex_geombuild-attrib_entity_geombuild-individual_entity_attribute-attrib_HH-attrib $-1 $-1 $-1 $252 F #
point $-1 -1.11916769254816e-017 0 -0.050000000000000003 #
pid_name-sg-attrib $-1 $-1 $255 $223 7 rwilson 784252905 1254 1 #
attrib_hh_face_geombuild-attrib_entity_geombuild-individual_entity_attribute-attrib_HH-attrib $-1 $287 $256 $240 F #
model_id-kcp-attrib $-1 $288 $-1 $257 1 1017696002 60 1765539841 14 #
loop $-1 $-1 $289 $257 #
plane-surface $-1 -0.33500000000000002 0 -0.044999999999999998 1 0 -6.2883726004159196e-017 -6.2883726004159196e-017 0 -1 forward_v I I I I #
loop $-1 $-1 $290 $240 #
coedge $291 $277 $277 $289 $292 forward $258 $-1 #
coedge $293 $278 $278 $290 $294 forward $260 $-1 #
attrib_hh_coedge_geombuild-attrib_entity_geombuild-individual_entity_attribute-attrib_HH-attrib $-1 $-1 $-1 $261 F #
attrib_hh_coedge_geombuild-attrib_entity_geombuild-individual_entity_attribute-attrib_HH-attrib $-1 $-1 $-1 $262 F #
attrib_hh_edge_geombuild-attrib_entity_geombuild-individual_entity_attribute-attrib_HH-attrib $-1 $-1 $-1 $264 F #
vertex $295 $264 $296 #
ellipse-curve $-1 -0.124874685927665 0 -0.067500000000000004 0.099999999999999797 0 -0.99498743710661997 -0.0049749371855330902 0 -0.00050000000000000001 1 I I #
attrib_hh_edge_geombuild-attrib_entity_geombuild-individual_entity_attribute-attrib_HH-attrib $-1 $-1 $-1 $266 F #
vertex $297 $266 $298 #
ellipse-curve $-1 -0.075125314072334595 0 -0.067500000000000004 0.10000000000000001 7.0874221953450301e-032 0.99498743710661997 -0.0049749371855330998 -1.2246063538223799e-018 0.00050000000000000001 1 I I #
pid_name-sg-attrib $-1 $-1 $272 $240 7 rwilson 784252905 1255 1 #
attrib_hh_face_geombuild-attrib_entity_geombuild-individual_entity_attribute-attrib_HH-attrib $-1 $299 $273 $257 F #
coedge $300 $289 $289 $277 $292 reversed $274 $-1 #
coedge $301 $290 $290 $278 $294 reversed $276 $-1 #
attrib_hh_coedge_geombuild-attrib_entity_geombuild-individual_entity_attribute-attrib_HH-attrib $-1 $-1 $-1 $277 F #
edge $302 $303 -3.1415926535897931 $303 3.1415926535897931 $289 $304 forward 7 unknown #
attrib_hh_coedge_geombuild-attrib_entity_geombuild-individual_entity_attribute-attrib_HH-attrib $-1 $-1 $-1 $278 F #
edge $305 $306 -3.1415926535897931 $306 3.1415926535897931 $290 $307 forward 7 unknown #
attrib_hh_vertex_geombuild-attrib_entity_geombuild-individual_entity_attribute-attrib_HH-attrib $-1 $-1 $-1 $282 F #
point $-1 -0.119899748742132 -6.1230317691118901e-019 -0.067000000000000004 #
attrib_hh_vertex_geombuild-attrib_entity_geombuild-individual_entity_attribute-attrib_HH-attrib $-1 $-1 $-1 $285 F #
point $-1 -0.070150376886801494 6.1230317691118805e-019 -0.068000000000000005 #
pid_name-sg-attrib $-1 $-1 $288 $257 7 rwilson 784252905 1256 1 #
attrib_hh_coedge_geombuild-attrib_entity_geombuild-individual_entity_attribute-attrib_HH-attrib $-1 $-1 $-1 $289 F #
attrib_hh_coedge_geombuild-attrib_entity_geombuild-individual_entity_attribute-attrib_HH-attrib $-1 $-1 $-1 $290 F #
attrib_edge_convexity-kcp-attrib $-1 $308 $-1 $292 1 #
vertex $309 $292 $310 #
ellipse-curve $-1 -0.33500000000000002 0 -0.044999999999999998 1 0 0 0 0 -0.0050000000000000001 1 I I #
attrib_hh_edge_geombuild-attrib_entity_geombuild-individual_entity_attribute-attrib_HH-attrib $-1 $-1 $-1 $294 F #
vertex $311 $294 $312 #
ellipse-curve $-1 -0.14974937185533099 0 -0.044999999999999998 1 -2.5910472763487499e-032 -3.1730129576708599e-048 0 -6.12303176911192e-019 0.0050000000000000001 1 I I #
convexity-sys-attrib $-1 $313 $302 $292 #
attrib_hh_vertex_geombuild-attrib_entity_geombuild-individual_entity_attribute-attrib_HH-attrib $-1 $-1 $-1 $303 F #
point $-1 -0.33500000000000002 -6.1230317691118901e-019 -0.040000000000000001 #
attrib_hh_vertex_geombuild-attrib_entity_geombuild-individual_entity_attribute-attrib_HH-attrib $-1 $-1 $-1 $306 F #
point $-1 -0.14974937185533099 6.1230317691118805e-019 -0.050000000000000003 #
attrib_hh_edge_geombuild-attrib_entity_geombuild-individual_entity_attribute-attrib_HH-attrib $-1 $-1 $308 $292 F #
End-of-ACIS-data 