600 0 2 0           
24 FBMach with ACIS - 6.0.3 13 ACIS 6.0.3 NT 24 Wed May 23 19:34:57 2001 
1 9.9999999999999995e-007 1e-010 
body $2 $3 $-1 $4 #
bdycol-kcp $-1 1 1 $5 #
model_id-kcp-attrib $-1 $-1 $-1 $0 1 990660897 70 1195769857 1 #
lump $-1 $-1 $6 $0 #
transform $-1 1 0 0 0 1 0 0 0 1 0 0 0 1 no_rotate no_reflect no_shear #
body $7 $8 $-1 $9 #
shell $-1 $-1 $-1 $10 $-1 $3 #
model_id-kcp-attrib $-1 $-1 $-1 $5 1 990660897 80 1196425218 1 #
lump $-1 $-1 $11 $5 #
transform $-1 1 0 0 0 1 0 0 0 1 -0.14250000000000002 0 0.00019454763116605323 1 no_rotate no_reflect no_shear #
face $12 $13 $14 $6 $-1 $15 forward single #
shell $-1 $-1 $-1 $16 $-1 $8 #
model_id-kcp-attrib $-1 $17 $-1 $10 1 990660897 70 1195769857 2 #
face $18 $19 $20 $6 $-1 $21 forward single #
loop $-1 $-1 $22 $10 #
plane-surface $-1 -0.30892098958974001 0 0.045539237926160499 -0.9999984769132878 0 0.0017453283658986696 0.0017453283658986701 0 0.99999847691328803 forward_v I I I I #
face $-1 $23 $24 $11 $-1 $25 forward single #
pid_name-sg-attrib $-1 $-1 $12 $10 7 114 119 105 108 115 111 110 784252905 1244 1 #
model_id-kcp-attrib $-1 $26 $-1 $13 1 990660897 70 1195769857 3 #
face $27 $28 $29 $6 $-1 $30 forward single #
loop $-1 $31 $32 $13 #
cone-surface $-1 -0.27266241667010599 0 0.045475954713951001 -0.9999984769132878 0 0.0017453283658986696 8.7266418294933506e-006 0 0.0049999923845664403 1 I I 0 1 0.0050000000000000018 forward I I I I #
coedge $-1 $22 $22 $33 $34 reversed $14 $-1 #
face $-1 $35 $36 $11 $-1 $37 reversed single #
loop $-1 $-1 $38 $16 #
plane-surface $-1 0 0 0.095194547631166054 0 0 1 1 0 0 forward_v I I I I #
pid_name-sg-attrib $-1 $-1 $18 $13 7 114 119 105 108 115 111 110 784252905 1245 1 #
model_id-kcp-attrib $-1 $39 $-1 $19 1 990660897 70 1195769857 4 #
face $40 $41 $42 $6 $-1 $43 forward single #
loop $-1 $44 $45 $19 #
torus-surface $-1 -0.27261878346095902 0 0.070475916636783195 0 1 0 0.025000000000000001 0.0050000000000000001 0 0 1 forward_v I I I I #
loop $-1 $-1 $33 $13 #
coedge $-1 $32 $32 $45 $46 forward $20 $-1 #
coedge $-1 $33 $33 $22 $34 forward $31 $-1 #
edge $-1 $47 -6.2831853071795862 $47 0 $22 $48 reversed 7 unknown #
face $-1 $49 $50 $11 $-1 $51 reversed single #
loop $-1 $-1 $52 $23 #
plane-surface $-1 0 0 -0.095194547631166054 0 0 1 1 0 0 forward_v I I I I #
coedge $-1 $53 $54 $55 $56 forward $24 $-1 #
pid_name-sg-attrib $-1 $-1 $27 $19 7 114 119 105 108 115 111 110 784252905 1246 1 #
model_id-kcp-attrib $-1 $57 $-1 $28 1 990660897 70 1195769857 5 #
face $58 $59 $60 $6 $-1 $61 forward single #
loop $-1 $62 $63 $28 #
torus-surface $-1 -0.222878214020064 0 0.065389095262332095 0 -1 0 0.025000000000000001 0.0050000000000000001 0 0 -1 forward_v I I I I #
loop $-1 $-1 $64 $19 #
coedge $-1 $45 $45 $32 $46 reversed $29 $-1 #
edge $-1 $65 -3.1415926535897931 $65 3.1415926535897931 $45 $66 forward 7 unknown #
vertex $-1 $34 $67 #
ellipse-curve $-1 -0.30892098958974001 0 0.045539237926160499 -0.9999984769132878 0 0.0017453283658985796 8.7266418294928999e-006 0 0.0049999923845664403 1 I I #
face $68 $69 $70 $11 $-1 $71 reversed single #
loop $-1 $-1 $72 $35 #
plane-surface $-1 0 -0.0050000000000000131 0 0 1 0 0 0 1 forward_v I I I I #
coedge $-1 $73 $74 $75 $76 forward $36 $-1 #
coedge $-1 $77 $38 $78 $79 forward $24 $-1 #
coedge $-1 $38 $77 $80 $81 forward $24 $-1 #
coedge $-1 $82 $83 $38 $56 reversed $84 $-1 #
edge $-1 $85 -0.0050000000000000131 $86 0.0050000000000000131 $55 $87 forward 7 unknown #
pid_name-sg-attrib $-1 $-1 $40 $28 7 114 119 105 108 115 111 110 784252905 1247 1 #
model_id-kcp-attrib $-1 $88 $-1 $41 1 990660897 70 1195769857 6 #
face $89 $90 $91 $6 $-1 $92 forward single #
loop $-1 $93 $94 $41 #
torus-surface $-1 -0.17312019129551101 0 0.070302258657013797 0 1 0 0.025000000000000001 0.0050000000000000001 0 0 1 forward_v I I I I #
loop $-1 $-1 $95 $28 #
coedge $-1 $63 $63 $94 $96 forward $42 $-1 #
coedge $-1 $64 $64 $95 $97 forward $44 $-1 #
vertex $-1 $46 $98 #
ellipse-curve $-1 -0.27266241667010599 0 0.045475954713951001 -0.9999984769132878 0 0.0017453283658985796 8.7266418294928999e-006 0 0.0049999923845664403 1 I I #
point $-1 -0.30891226294791102 0 0.0505392303107269 #
model_id-kcp-attrib $-1 $-1 $-1 $49 1 990660897 80 1196425218 2 #
face $-1 $99 $100 $11 $-1 $101 reversed single #
loop $-1 $-1 $102 $49 #
plane-surface $-1 -0.1925 0 0 1 0 0 0 0 -1 forward_v I I I I #
coedge $-1 $103 $80 $104 $105 forward $50 $-1 #
coedge $-1 $106 $52 $103 $107 forward $36 $-1 #
coedge $-1 $52 $106 $108 $109 forward $36 $-1 #
coedge $-1 $83 $82 $52 $76 reversed $84 $-1 #
edge $-1 $110 -0.0050000000000000131 $111 0.0050000000000000131 $75 $112 forward 7 unknown #
coedge $-1 $54 $53 $113 $114 forward $24 $-1 #
coedge $-1 $115 $116 $53 $79 reversed $100 $-1 #
edge $-1 $86 -0.1925 $117 0.1925 $78 $118 forward 7 unknown #
coedge $-1 $72 $119 $54 $81 reversed $50 $-1 #
edge $-1 $120 -0.1925 $85 0.1925 $80 $121 forward 7 unknown #
coedge $-1 $75 $55 $119 $122 forward $84 $-1 #
coedge $-1 $55 $75 $115 $123 reversed $84 $-1 #
loop $-1 $-1 $82 $99 #
vertex $-1 $56 $124 #
vertex $-1 $56 $125 #
straight-curve $-1 0.1925 0 0.095194547631166054 0 1 0 I I #
pid_name-sg-attrib $-1 $-1 $58 $41 7 114 119 105 108 115 111 110 784252905 1248 1 #
model_id-kcp-attrib $-1 $126 $-1 $59 1 990660897 70 1195769857 7 #
face $127 $128 $129 $6 $-1 $130 forward single #
loop $-1 $131 $132 $59 #
cone-surface $-1 7.8539776465436098e-005 0 0.044999931461098 -0.9999984769132878 0 0.0017453283658985096 8.7266418294925408e-006 0 0.0049999923845664403 1 I I 0 1 0.0050000000000000018 forward I I I I #
loop $-1 $-1 $133 $41 #
coedge $-1 $94 $94 $63 $96 reversed $60 $-1 #
coedge $-1 $95 $95 $64 $97 reversed $62 $-1 #
edge $-1 $134 -3.1415926535897931 $134 3.1415926535897931 $94 $135 forward 7 unknown #
edge $-1 $136 -3.1415926535897931 $136 3.1415926535897931 $95 $137 forward 7 unknown #
point $-1 -0.27267114331193598 -6.1230317691118901e-019 0.0404759623293846 #
face $-1 $-1 $84 $11 $-1 $138 reversed single #
loop $-1 $-1 $115 $69 #
plane-surface $-1 0 0.0050000000000000131 0 0 -1 0 0 0 -1 forward_v I I I I #
coedge $-1 $139 $113 $116 $140 forward $70 $-1 #
coedge $-1 $119 $72 $73 $107 reversed $50 $-1 #
coedge $-1 $113 $139 $72 $105 reversed $70 $-1 #
edge $-1 $120 -0.095194547631166054 $141 0.095194547631166054 $104 $142 forward 7 unknown #
coedge $-1 $74 $73 $139 $143 forward $36 $-1 #
edge $-1 $111 -0.1925 $141 0.1925 $103 $144 forward 7 unknown #
coedge $-1 $116 $115 $74 $109 reversed $100 $-1 #
edge $-1 $145 -0.1925 $110 0.1925 $108 $146 forward 7 unknown #
vertex $-1 $76 $147 #
vertex $-1 $122 $148 #
straight-curve $-1 0.1925 0 -0.095194547631166054 0 -1 0 I I #
coedge $-1 $102 $104 $77 $114 reversed $70 $-1 #
edge $-1 $117 -0.0050000000000000131 $120 0.0050000000000000131 $113 $149 forward 7 unknown #
coedge $-1 $108 $78 $83 $123 forward $100 $-1 #
coedge $-1 $78 $108 $102 $140 reversed $100 $-1 #
vertex $-1 $79 $150 #
straight-curve $-1 0 0.0050000000000000131 0.095194547631166054 -1 0 0 I I #
coedge $-1 $80 $103 $82 $122 reversed $50 $-1 #
vertex $-1 $114 $151 #
straight-curve $-1 0 -0.0050000000000000131 0.095194547631166054 1 0 0 I I #
edge $-1 $85 -0.095194547631166054 $111 0.095194547631166054 $82 $152 forward 7 unknown #
edge $-1 $86 -0.095194547631166054 $110 0.095194547631166054 $83 $153 forward 7 unknown #
point $-1 0.1925 -0.0050000000000000131 0.095194547631166054 #
point $-1 0.1925 0.0050000000000000131 0.095194547631166054 #
pid_name-sg-attrib $-1 $-1 $89 $59 7 114 119 105 108 115 111 110 784252905 1249 1 #
model_id-kcp-attrib $-1 $154 $-1 $90 1 990660897 70 1195769857 8 #
face $155 $156 $157 $6 $-1 $158 forward single #
loop $-1 $159 $160 $90 #
torus-surface $-1 0 0 2.0816681711721701e-017 0 -1 0 0.044999999999999998 0.0050000000000000001 0 0 -1 forward_v I I I I #
loop $-1 $-1 $161 $59 #
coedge $-1 $132 $132 $160 $162 forward $91 $-1 #
coedge $-1 $133 $133 $161 $163 forward $93 $-1 #
vertex $-1 $96 $164 #
ellipse-curve $-1 -0.197999202657788 0 0.067845676959673001 -0.098263267893633835 0 0.99516045449106549 0.0049758022724553401 0 0.00049131633946816701 1 I I #
vertex $-1 $97 $165 #
ellipse-curve $-1 -0.247748498740512 0 0.0679325059495577 -0.10173642748902199 -7.7037197775489401e-032 -0.994811388817886 0.0049740569440894196 -1.2246063538223799e-018 -0.00050868213744510705 1 I I #
plane-surface $-1 0.1925 0 0 -1 0 0 0 0 1 forward_v I I I I #
coedge $-1 $104 $102 $106 $143 reversed $70 $-1 #
edge $-1 $117 -0.095194547631166054 $145 0.095194547631166054 $116 $166 forward 7 unknown #
vertex $-1 $143 $167 #
straight-curve $-1 -0.1925 -0.0050000000000000131 0 0 0 -1 I I #
edge $-1 $141 -0.0050000000000000131 $145 0.0050000000000000131 $139 $168 forward 7 unknown #
straight-curve $-1 0 -0.0050000000000000131 -0.095194547631166054 -1 0 0 I I #
vertex $-1 $109 $169 #
straight-curve $-1 0 0.0050000000000000131 -0.095194547631166054 1 0 0 I I #
point $-1 0.1925 0.0050000000000000131 -0.095194547631166054 #
point $-1 0.1925 -0.0050000000000000131 -0.095194547631166054 #
straight-curve $-1 -0.1925 0 0.095194547631166054 0 -1 0 I I #
point $-1 -0.1925 0.0050000000000000131 0.095194547631166054 #
point $-1 -0.1925 -0.0050000000000000131 0.095194547631166054 #
straight-curve $-1 0.1925 -0.0050000000000000131 0 0 0 -1 I I #
straight-curve $-1 0.1925 0.0050000000000000131 0 0 0 -1 I I #
pid_name-sg-attrib $-1 $-1 $127 $90 7 114 119 105 108 115 111 110 784252905 1250 1 #
model_id-kcp-attrib $-1 $170 $-1 $128 1 990660897 70 1195769857 9 #
face $171 $172 $173 $6 $-1 $174 forward single #
loop $-1 $175 $176 $128 #
cone-surface $-1 -0.050250628144668998 0 -0.044999999999999998 1 0 8.6736173798840293e-018 4.3368086899420198e-020 0 -0.0050000000000000001 1 I I 0 1 0.0050000000000000001 forward I I I I #
loop $-1 $-1 $177 $90 #
coedge $-1 $160 $160 $132 $162 reversed $129 $-1 #
coedge $-1 $161 $161 $133 $163 reversed $131 $-1 #
edge $-1 $178 -3.1415926535897931 $178 3.1415926535897931 $160 $179 forward 7 unknown #
edge $-1 $180 -3.1415926535897931 $180 3.1415926535897931 $161 $181 forward 7 unknown #
point $-1 -0.20297500493024301 -6.1230317691118901e-019 0.067354360620204806 #
point $-1 -0.252722555684601 6.1230317691118901e-019 0.068441188087002794 #
straight-curve $-1 -0.1925 0.0050000000000000131 0 0 0 -1 I I #
point $-1 -0.1925 -0.0050000000000000131 -0.095194547631166054 #
straight-curve $-1 -0.1925 0 -0.095194547631166054 0 1 0 I I #
point $-1 -0.1925 0.0050000000000000131 -0.095194547631166054 #
pid_name-sg-attrib $-1 $-1 $155 $128 7 114 119 105 108 115 111 110 784252905 1251 1 #
model_id-kcp-attrib $-1 $182 $-1 $156 1 990660897 70 1195769857 10 #
face $183 $184 $185 $6 $-1 $186 forward single #
loop $-1 $187 $188 $156 #
torus-surface $-1 -0.050250628144669102 0 -0.070000000000000007 0 1 0 0.025000000000000001 0.0050000000000000001 0 0 1 forward_v I I I I #
loop $-1 $-1 $189 $128 #
coedge $-1 $176 $176 $188 $190 forward $157 $-1 #
coedge $-1 $177 $177 $189 $191 forward $159 $-1 #
vertex $-1 $162 $192 #
ellipse-curve $-1 7.8539776465436098e-005 0 0.044999931461098 -0.9999984769132878 0 0.0017453283658985096 8.7266418294925493e-006 0 0.0049999923845664403 1 I I #
vertex $-1 $163 $193 #
ellipse-curve $-1 -0.173163824504659 0 0.0453022967341817 -0.9999984769132878 2.0127171625061895e-030 0.0017453283659152295 -8.7266418295761599e-006 -6.1230317691118603e-019 -0.0049999923845664403 1 I I #
pid_name-sg-attrib $-1 $-1 $171 $156 7 114 119 105 108 115 111 110 784252905 1252 1 #
model_id-kcp-attrib $-1 $194 $-1 $172 1 990660897 70 1195769857 11 #
face $195 $196 $197 $6 $-1 $198 forward single #
loop $-1 $199 $200 $172 #
torus-surface $-1 -0.10000000000000001 0 -0.065000000000000002 0 -1 0 0.025000000000000001 0.0050000000000000001 0 0 -1 forward_v I I I I #
loop $-1 $-1 $201 $156 #
coedge $-1 $188 $188 $176 $190 reversed $173 $-1 #
coedge $-1 $189 $189 $177 $191 reversed $175 $-1 #
edge $-1 $202 -3.1415926535897931 $202 3.1415926535897931 $188 $203 forward 7 unknown #
edge $-1 $204 -3.1415926535897931 $204 3.1415926535897931 $189 $205 forward 7 unknown #
point $-1 6.9813134635943498e-005 -6.1230317691118901e-019 0.039999939076531502 #
point $-1 -0.17315509786282901 6.1230317691118901e-019 0.050302289118748102 #
pid_name-sg-attrib $-1 $-1 $183 $172 7 114 119 105 108 115 111 110 784252905 1253 1 #
model_id-kcp-attrib $-1 $206 $-1 $184 1 990660897 70 1195769857 12 #
face $207 $208 $209 $6 $-1 $210 forward single #
loop $-1 $211 $212 $184 #
torus-surface $-1 -0.14974937185533099 0 -0.070000000000000007 0 1 0 0.025000000000000001 0.0050000000000000001 0 0 1 forward_v I I I I #
loop $-1 $-1 $213 $172 #
coedge $-1 $200 $200 $212 $214 forward $185 $-1 #
coedge $-1 $201 $201 $213 $215 forward $187 $-1 #
vertex $-1 $190 $216 #
ellipse-curve $-1 -0.050250628144668998 0 -0.044999999999999998 1 0 0 0 0 -0.0050000000000000001 1 I I #
vertex $-1 $191 $217 #
ellipse-curve $-1 -1.00725092329335e-017 0 -0.044999999999999998 1 -2.9055843502749501e-031 2.14883449575764e-015 -1.0744172478788199e-017 -6.1230317691118805e-019 0.0050000000000000001 1 I I #
pid_name-sg-attrib $-1 $-1 $195 $184 7 114 119 105 108 115 111 110 784252905 1254 1 #
model_id-kcp-attrib $-1 $218 $-1 $196 1 990660897 70 1195769857 13 #
face $219 $-1 $220 $6 $-1 $221 reversed single #
loop $-1 $222 $223 $196 #
cone-surface $-1 -0.33500000000000002 0 -0.044999999999999998 1 0 -6.2883726004159196e-017 -3.1441863002079599e-019 0 -0.0050000000000000001 1 I I 0 1 0.0050000000000000001 forward I I I I #
loop $-1 $-1 $224 $184 #
coedge $-1 $212 $212 $200 $214 reversed $197 $-1 #
coedge $-1 $213 $213 $201 $215 reversed $199 $-1 #
edge $-1 $225 -3.1415926535897931 $225 3.1415926535897931 $212 $226 forward 7 unknown #
edge $-1 $227 -3.1415926535897931 $227 3.1415926535897931 $213 $228 forward 7 unknown #
point $-1 -0.050250628144668998 -6.1230317691118805e-019 -0.040000000000000001 #
point $-1 -1.11916769254816e-017 0 -0.050000000000000003 #
pid_name-sg-attrib $-1 $-1 $207 $196 7 114 119 105 108 115 111 110 784252905 1255 1 #
model_id-kcp-attrib $-1 $229 $-1 $208 1 990660897 70 1195769857 14 #
loop $-1 $-1 $230 $208 #
plane-surface $-1 -0.33500000000000002 0 -0.044999999999999998 1 0 -6.2883726004159196e-017 -6.2883726004159196e-017 0 -1 forward_v I I I I #
loop $-1 $-1 $231 $196 #
coedge $-1 $223 $223 $230 $232 forward $209 $-1 #
coedge $-1 $224 $224 $231 $233 forward $211 $-1 #
vertex $-1 $214 $234 #
ellipse-curve $-1 -0.124874685927665 0 -0.067500000000000004 0.099999999999999797 0 -0.99498743710661997 -0.0049749371855330902 0 -0.00050000000000000001 1 I I #
vertex $-1 $215 $235 #
ellipse-curve $-1 -0.075125314072334595 0 -0.067500000000000004 0.10000000000000001 7.0874221953450301e-032 0.99498743710661997 -0.0049749371855330998 -1.2246063538223799e-018 0.00050000000000000001 1 I I #
pid_name-sg-attrib $-1 $-1 $219 $208 7 114 119 105 108 115 111 110 784252905 1256 1 #
coedge $-1 $230 $230 $223 $232 reversed $220 $-1 #
coedge $-1 $231 $231 $224 $233 reversed $222 $-1 #
edge $236 $237 -3.1415926535897931 $237 3.1415926535897931 $230 $238 forward 7 unknown #
edge $-1 $239 -3.1415926535897931 $239 3.1415926535897931 $231 $240 forward 7 unknown #
point $-1 -0.119899748742132 -6.1230317691118901e-019 -0.067000000000000004 #
point $-1 -0.070150376886801494 6.1230317691118805e-019 -0.068000000000000005 #
attrib_edge_convexity-kcp-attrib $-1 $241 $-1 $232 1 #
vertex $-1 $232 $242 #
ellipse-curve $-1 -0.33500000000000002 0 -0.044999999999999998 1 0 0 0 0 -0.0050000000000000001 1 I I #
vertex $-1 $233 $243 #
ellipse-curve $-1 -0.14974937185533099 0 -0.044999999999999998 1 -2.5910472763487499e-032 -3.1730129576708599e-048 0 -6.12303176911192e-019 0.0050000000000000001 1 I I #
convexity-sys-attrib $-1 $-1 $236 $232 #
point $-1 -0.33500000000000002 -6.1230317691118901e-019 -0.040000000000000001 #
point $-1 -0.14974937185533099 6.1230317691118805e-019 -0.050000000000000003 #
End-of-ACIS-data 