600 0 1 0           
63 GICL ACIS Healer - Source: sh-r44363-000-u-compressed.sat - 6 0 18 ACIS 6.0.3 Solaris 24 Fri Mar 29 21:35:27 2002 
1 9.999999999999999547e-07 1.000000000000000036e-10 
body $1 $2 $-1 $3 #
aggregate_advspl_attribute-aggregate_geombuild_base_attribute-aggregate_body_attribute-attrib_HH-attrib $-1 $4 $-1 $0 F #
lump $-1 $-1 $5 $0 #
transform $-1 1 0 0 0 1 0 0 0 1 0 0 0 1 no_rotate no_reflect no_shear #
aggregate_secndry_attribute-aggregate_geombuild_base_attribute-aggregate_body_attribute-attrib_HH-attrib $-1 $6 $1 $0 F #
shell $-1 $-1 $-1 $7 $-1 $2 #
aggregate_sharped_attribute-aggregate_geombuild_base_attribute-aggregate_body_attribute-attrib_HH-attrib $-1 $8 $4 $0 F #
face $9 $10 $11 $5 $-1 $12 forward single #
aggregate_reblend_attribute-aggregate_geombuild_base_attribute-aggregate_body_attribute-attrib_HH-attrib $-1 $13 $6 $0 F #
attrib_hh_face_geombuild-attrib_entity_geombuild-individual_entity_attribute-attrib_HH-attrib $-1 $14 $-1 $7 F #
face $15 $16 $17 $5 $-1 $18 forward single #
loop $-1 $-1 $19 $7 #
plane-surface $-1 -0.3089209895897400138 0 0.04553923792616049876 -0.9999984769132878037 0 0.001745328365898669637 0.00174532836589867007 0 0.9999984769132880258 forward_v I I I I #
aggregate_isospline_attribute-aggregate_geombuild_base_attribute-aggregate_body_attribute-attrib_HH-attrib $-1 $20 $8 $0 F #
pid_name-sg-attrib $-1 $-1 $9 $7 7 rwilson 784252905 1244 1 #
attrib_hh_face_geombuild-attrib_entity_geombuild-individual_entity_attribute-attrib_HH-attrib $-1 $21 $-1 $10 F #
face $22 $23 $24 $5 $-1 $25 forward single #
loop $-1 $26 $27 $10 #
cone-surface $-1 -0.2726624166701059893 0 0.04547595471395100147 -0.9999984769132878037 0 0.001745328365898669637 8.726641829493350555e-06 0 0.004999992384566440302 1 I I 0 1 0.005000000000000001839 forward I I I I #
coedge $28 $19 $19 $29 $30 reversed $11 $-1 #
aggregate_analytic_solver_attribute-aggregate_geombuild_base_attribute-aggregate_body_attribute-attrib_HH-attrib $-1 $31 $13 $0 F #
pid_name-sg-attrib $-1 $-1 $15 $10 7 rwilson 784252905 1245 1 #
attrib_hh_face_geombuild-attrib_entity_geombuild-individual_entity_attribute-attrib_HH-attrib $-1 $32 $-1 $16 F #
face $33 $34 $35 $5 $-1 $36 forward single #
loop $-1 $37 $38 $16 #
torus-surface $-1 -0.2726187834609590244 0 0.07047591663678319518 0 1 0 0.02500000000000000139 0.005000000000000000104 0 0 1 forward_v I I I I #
loop $-1 $-1 $29 $10 #
coedge $39 $27 $27 $38 $40 forward $17 $-1 #
attrib_hh_coedge_geombuild-attrib_entity_geombuild-individual_entity_attribute-attrib_HH-attrib $-1 $-1 $-1 $19 F #
coedge $41 $29 $29 $19 $30 forward $26 $-1 #
edge $42 $43 -6.283185307179586232 $43 -0 $19 $44 reversed 7 unknown #
aggregate_geombuild_attribute-aggregate_geombuild_base_attribute-aggregate_body_attribute-attrib_HH-attrib $-1 $45 $20 $0 #
pid_name-sg-attrib $-1 $-1 $22 $16 7 rwilson 784252905 1246 1 #
attrib_hh_face_geombuild-attrib_entity_geombuild-individual_entity_attribute-attrib_HH-attrib $-1 $46 $-1 $23 F #
face $47 $48 $49 $5 $-1 $50 forward single #
loop $-1 $51 $52 $23 #
torus-surface $-1 -0.2228782140200639972 0 0.06538909526233209479 0 -1 0 0.02500000000000000139 0.005000000000000000104 0 0 -1 forward_v I I I I #
loop $-1 $-1 $53 $16 #
coedge $54 $38 $38 $27 $40 reversed $24 $-1 #
attrib_hh_coedge_geombuild-attrib_entity_geombuild-individual_entity_attribute-attrib_HH-attrib $-1 $-1 $-1 $27 F #
edge $55 $56 -3.141592653589793116 $56 3.141592653589793116 $38 $57 forward 7 unknown #
attrib_hh_coedge_geombuild-attrib_entity_geombuild-individual_entity_attribute-attrib_HH-attrib $-1 $-1 $-1 $29 F #
attrib_hh_edge_geombuild-attrib_entity_geombuild-individual_entity_attribute-attrib_HH-attrib $-1 $-1 $-1 $30 F #
vertex $58 $30 $59 #
ellipse-curve $-1 -0.3089209895897400138 0 0.04553923792616049876 -0.9999984769132878037 0 0.001745328365898579648 8.726641829492899933e-06 0 0.004999992384566440302 1 I I #
aggregate_stitch_attribute-aggregate_stitch_base_attribute-aggregate_body_attribute-attrib_HH-attrib $-1 $60 $31 $0 F #
pid_name-sg-attrib $-1 $-1 $33 $23 7 rwilson 784252905 1247 1 #
attrib_hh_face_geombuild-attrib_entity_geombuild-individual_entity_attribute-attrib_HH-attrib $-1 $61 $-1 $34 F #
face $62 $63 $64 $5 $-1 $65 forward single #
loop $-1 $66 $67 $34 #
torus-surface $-1 -0.1731201912955110112 0 0.07030225865701379695 0 1 0 0.02500000000000000139 0.005000000000000000104 0 0 1 forward_v I I I I #
loop $-1 $-1 $68 $23 #
coedge $69 $52 $52 $67 $70 forward $35 $-1 #
coedge $71 $53 $53 $68 $72 forward $37 $-1 #
attrib_hh_coedge_geombuild-attrib_entity_geombuild-individual_entity_attribute-attrib_HH-attrib $-1 $-1 $-1 $38 F #
attrib_hh_edge_geombuild-attrib_entity_geombuild-individual_entity_attribute-attrib_HH-attrib $-1 $-1 $-1 $40 F #
vertex $73 $40 $74 #
ellipse-curve $-1 -0.2726624166701059893 0 0.04547595471395100147 -0.9999984769132878037 0 0.001745328365898579648 8.726641829492899933e-06 0 0.004999992384566440302 1 I I #
attrib_hh_vertex_geombuild-attrib_entity_geombuild-individual_entity_attribute-attrib_HH-attrib $-1 $-1 $-1 $43 F #
point $-1 -0.3089122629479110205 0 0.05053923031072690003 #
aggregate_simgeom_attribute-aggregate_simgeom_base_attribute-aggregate_body_attribute-attrib_HH-attrib $-1 $-1 $45 $0 F #
pid_name-sg-attrib $-1 $-1 $47 $34 7 rwilson 784252905 1248 1 #
attrib_hh_face_geombuild-attrib_entity_geombuild-individual_entity_attribute-attrib_HH-attrib $-1 $75 $-1 $48 F #
face $76 $77 $78 $5 $-1 $79 forward single #
loop $-1 $80 $81 $48 #
cone-surface $-1 7.85397764654360977e-05 0 0.04499993146109800002 -0.9999984769132878037 0 0.001745328365898509608 8.726641829492540791e-06 0 0.004999992384566440302 1 I I 0 1 0.005000000000000001839 forward I I I I #
loop $-1 $-1 $82 $34 #
coedge $83 $67 $67 $52 $70 reversed $49 $-1 #
coedge $84 $68 $68 $53 $72 reversed $51 $-1 #
attrib_hh_coedge_geombuild-attrib_entity_geombuild-individual_entity_attribute-attrib_HH-attrib $-1 $-1 $-1 $52 F #
edge $85 $86 -3.141592653589793116 $86 3.141592653589793116 $67 $87 forward 7 unknown #
attrib_hh_coedge_geombuild-attrib_entity_geombuild-individual_entity_attribute-attrib_HH-attrib $-1 $-1 $-1 $53 F #
edge $88 $89 -3.141592653589793116 $89 3.141592653589793116 $68 $90 forward 7 unknown #
attrib_hh_vertex_geombuild-attrib_entity_geombuild-individual_entity_attribute-attrib_HH-attrib $-1 $-1 $-1 $56 F #
point $-1 -0.2726711433119359818 -6.123031769111890104e-19 0.0404759623293846002 #
pid_name-sg-attrib $-1 $-1 $62 $48 7 rwilson 784252905 1249 1 #
attrib_hh_face_geombuild-attrib_entity_geombuild-individual_entity_attribute-attrib_HH-attrib $-1 $91 $-1 $63 F #
face $92 $93 $94 $5 $-1 $95 forward single #
loop $-1 $96 $97 $63 #
torus-surface $-1 0 0 2.081668171172170054e-17 0 -1 0 0.04499999999999999833 0.005000000000000000104 0 0 -1 forward_v I I I I #
loop $-1 $-1 $98 $48 #
coedge $99 $81 $81 $97 $100 forward $64 $-1 #
coedge $101 $82 $82 $98 $102 forward $66 $-1 #
attrib_hh_coedge_geombuild-attrib_entity_geombuild-individual_entity_attribute-attrib_HH-attrib $-1 $-1 $-1 $67 F #
attrib_hh_coedge_geombuild-attrib_entity_geombuild-individual_entity_attribute-attrib_HH-attrib $-1 $-1 $-1 $68 F #
attrib_hh_edge_geombuild-attrib_entity_geombuild-individual_entity_attribute-attrib_HH-attrib $-1 $-1 $-1 $70 F #
vertex $103 $70 $104 #
ellipse-curve $-1 -0.1979992026577880038 0 0.06784567695967300138 -0.09826326789363383496 0 0.9951604544910654937 0.004975802272455340063 0 0.0004913163394681670064 1 I I #
attrib_hh_edge_geombuild-attrib_entity_geombuild-individual_entity_attribute-attrib_HH-attrib $-1 $-1 $-1 $72 F #
vertex $105 $72 $106 #
ellipse-curve $-1 -0.2477484987405119965 0 0.0679325059495577005 -0.1017364274890219938 -7.703719777548940128e-32 -0.9948113888178859998 0.004974056944089419625 -1.224606353822379947e-18 -0.0005086821374451070462 1 I I #
pid_name-sg-attrib $-1 $-1 $76 $63 7 rwilson 784252905 1250 1 #
attrib_hh_face_geombuild-attrib_entity_geombuild-individual_entity_attribute-attrib_HH-attrib $-1 $107 $-1 $77 F #
face $108 $109 $110 $5 $-1 $111 forward single #
loop $-1 $112 $113 $77 #
cone-surface $-1 -0.05025062814466899758 0 -0.04499999999999999833 1 0 8.673617379884029309e-18 4.336808689942019782e-20 0 -0.005000000000000000104 1 I I 0 1 0.005000000000000000104 forward I I I I #
loop $-1 $-1 $114 $63 #
coedge $115 $97 $97 $81 $100 reversed $78 $-1 #
coedge $116 $98 $98 $82 $102 reversed $80 $-1 #
attrib_hh_coedge_geombuild-attrib_entity_geombuild-individual_entity_attribute-attrib_HH-attrib $-1 $-1 $-1 $81 F #
edge $117 $118 -3.141592653589793116 $118 3.141592653589793116 $97 $119 forward 7 unknown #
attrib_hh_coedge_geombuild-attrib_entity_geombuild-individual_entity_attribute-attrib_HH-attrib $-1 $-1 $-1 $82 F #
edge $120 $121 -3.141592653589793116 $121 3.141592653589793116 $98 $122 forward 7 unknown #
attrib_hh_vertex_geombuild-attrib_entity_geombuild-individual_entity_attribute-attrib_HH-attrib $-1 $-1 $-1 $86 F #
point $-1 -0.2029750049302430082 -6.123031769111890104e-19 0.06735436062020480619 #
attrib_hh_vertex_geombuild-attrib_entity_geombuild-individual_entity_attribute-attrib_HH-attrib $-1 $-1 $-1 $89 F #
point $-1 -0.2527225556846010024 6.123031769111890104e-19 0.06844118808700279388 #
pid_name-sg-attrib $-1 $-1 $92 $77 7 rwilson 784252905 1251 1 #
attrib_hh_face_geombuild-attrib_entity_geombuild-individual_entity_attribute-attrib_HH-attrib $-1 $123 $-1 $93 F #
face $124 $125 $126 $5 $-1 $127 forward single #
loop $-1 $128 $129 $93 #
torus-surface $-1 -0.05025062814466910166 0 -0.07000000000000000666 0 1 0 0.02500000000000000139 0.005000000000000000104 0 0 1 forward_v I I I I #
loop $-1 $-1 $130 $77 #
coedge $131 $113 $113 $129 $132 forward $94 $-1 #
coedge $133 $114 $114 $130 $134 forward $96 $-1 #
attrib_hh_coedge_geombuild-attrib_entity_geombuild-individual_entity_attribute-attrib_HH-attrib $-1 $-1 $-1 $97 F #
attrib_hh_coedge_geombuild-attrib_entity_geombuild-individual_entity_attribute-attrib_HH-attrib $-1 $-1 $-1 $98 F #
attrib_hh_edge_geombuild-attrib_entity_geombuild-individual_entity_attribute-attrib_HH-attrib $-1 $-1 $-1 $100 F #
vertex $135 $100 $136 #
ellipse-curve $-1 7.85397764654360977e-05 0 0.04499993146109800002 -0.9999984769132878037 0 0.001745328365898509608 8.726641829492549262e-06 0 0.004999992384566440302 1 I I #
attrib_hh_edge_geombuild-attrib_entity_geombuild-individual_entity_attribute-attrib_HH-attrib $-1 $-1 $-1 $102 F #
vertex $137 $102 $138 #
ellipse-curve $-1 -0.173163824504659003 0 0.04530229673418170039 -0.9999984769132878037 2.012717162506189522e-30 0.001745328365915229524 -8.726641829576159884e-06 -6.123031769111860252e-19 -0.004999992384566440302 1 I I #
pid_name-sg-attrib $-1 $-1 $108 $93 7 rwilson 784252905 1252 1 #
attrib_hh_face_geombuild-attrib_entity_geombuild-individual_entity_attribute-attrib_HH-attrib $-1 $139 $-1 $109 F #
face $140 $141 $142 $5 $-1 $143 forward single #
loop $-1 $144 $145 $109 #
torus-surface $-1 -0.1000000000000000056 0 -0.06500000000000000222 0 -1 0 0.02500000000000000139 0.005000000000000000104 0 0 -1 forward_v I I I I #
loop $-1 $-1 $146 $93 #
coedge $147 $129 $129 $113 $132 reversed $110 $-1 #
coedge $148 $130 $130 $114 $134 reversed $112 $-1 #
attrib_hh_coedge_geombuild-attrib_entity_geombuild-individual_entity_attribute-attrib_HH-attrib $-1 $-1 $-1 $113 F #
edge $149 $150 -3.141592653589793116 $150 3.141592653589793116 $129 $151 forward 7 unknown #
attrib_hh_coedge_geombuild-attrib_entity_geombuild-individual_entity_attribute-attrib_HH-attrib $-1 $-1 $-1 $114 F #
edge $152 $153 -3.141592653589793116 $153 3.141592653589793116 $130 $154 forward 7 unknown #
attrib_hh_vertex_geombuild-attrib_entity_geombuild-individual_entity_attribute-attrib_HH-attrib $-1 $-1 $-1 $118 F #
point $-1 6.981313463594349762e-05 -6.123031769111890104e-19 0.0399999390765315016 #
attrib_hh_vertex_geombuild-attrib_entity_geombuild-individual_entity_attribute-attrib_HH-attrib $-1 $-1 $-1 $121 F #
point $-1 -0.1731550978628290105 6.123031769111890104e-19 0.05030228911874810166 #
pid_name-sg-attrib $-1 $-1 $124 $109 7 rwilson 784252905 1253 1 #
attrib_hh_face_geombuild-attrib_entity_geombuild-individual_entity_attribute-attrib_HH-attrib $-1 $155 $-1 $125 F #
face $156 $157 $158 $5 $-1 $159 forward single #
loop $-1 $160 $161 $125 #
torus-surface $-1 -0.1497493718553309927 0 -0.07000000000000000666 0 1 0 0.02500000000000000139 0.005000000000000000104 0 0 1 forward_v I I I I #
loop $-1 $-1 $162 $109 #
coedge $163 $145 $145 $161 $164 forward $126 $-1 #
coedge $165 $146 $146 $162 $166 forward $128 $-1 #
attrib_hh_coedge_geombuild-attrib_entity_geombuild-individual_entity_attribute-attrib_HH-attrib $-1 $-1 $-1 $129 F #
attrib_hh_coedge_geombuild-attrib_entity_geombuild-individual_entity_attribute-attrib_HH-attrib $-1 $-1 $-1 $130 F #
attrib_hh_edge_geombuild-attrib_entity_geombuild-individual_entity_attribute-attrib_HH-attrib $-1 $-1 $-1 $132 F #
vertex $167 $132 $168 #
ellipse-curve $-1 -0.05025062814466899758 0 -0.04499999999999999833 1 0 0 0 0 -0.005000000000000000104 1 I I #
attrib_hh_edge_geombuild-attrib_entity_geombuild-individual_entity_attribute-attrib_HH-attrib $-1 $-1 $-1 $134 F #
vertex $169 $134 $170 #
ellipse-curve $-1 -1.007250923293349954e-17 0 -0.04499999999999999833 1 -2.905584350274950133e-31 2.148834495757639991e-15 -1.074417247878819946e-17 -6.123031769111880475e-19 0.005000000000000000104 1 I I #
pid_name-sg-attrib $-1 $-1 $140 $125 7 rwilson 784252905 1254 1 #
attrib_hh_face_geombuild-attrib_entity_geombuild-individual_entity_attribute-attrib_HH-attrib $-1 $171 $-1 $141 F #
face $172 $-1 $173 $5 $-1 $174 reversed single #
loop $-1 $175 $176 $141 #
cone-surface $-1 -0.33500000000000002 0 -0.04499999999999999833 1 0 -6.288372600415919554e-17 -3.144186300207959873e-19 0 -0.005000000000000000104 1 I I 0 1 0.005000000000000000104 forward I I I I #
loop $-1 $-1 $177 $125 #
coedge $178 $161 $161 $145 $164 reversed $142 $-1 #
coedge $179 $162 $162 $146 $166 reversed $144 $-1 #
attrib_hh_coedge_geombuild-attrib_entity_geombuild-individual_entity_attribute-attrib_HH-attrib $-1 $-1 $-1 $145 F #
edge $180 $181 -3.141592653589793116 $181 3.141592653589793116 $161 $182 forward 7 unknown #
attrib_hh_coedge_geombuild-attrib_entity_geombuild-individual_entity_attribute-attrib_HH-attrib $-1 $-1 $-1 $146 F #
edge $183 $184 -3.141592653589793116 $184 3.141592653589793116 $162 $185 forward 7 unknown #
attrib_hh_vertex_geombuild-attrib_entity_geombuild-individual_entity_attribute-attrib_HH-attrib $-1 $-1 $-1 $150 F #
point $-1 -0.05025062814466899758 -6.123031769111880475e-19 -0.04000000000000000083 #
attrib_hh_vertex_geombuild-attrib_entity_geombuild-individual_entity_attribute-attrib_HH-attrib $-1 $-1 $-1 $153 F #
point $-1 -1.119167692548160041e-17 0 -0.05000000000000000278 #
pid_name-sg-attrib $-1 $-1 $156 $141 7 rwilson 784252905 1255 1 #
attrib_hh_face_geombuild-attrib_entity_geombuild-individual_entity_attribute-attrib_HH-attrib $-1 $186 $-1 $157 F #
loop $-1 $-1 $187 $157 #
plane-surface $-1 -0.33500000000000002 0 -0.04499999999999999833 1 0 -6.288372600415919554e-17 -6.288372600415919554e-17 0 -1 forward_v I I I I #
loop $-1 $-1 $188 $141 #
coedge $189 $176 $176 $187 $190 forward $158 $-1 #
coedge $191 $177 $177 $188 $192 forward $160 $-1 #
attrib_hh_coedge_geombuild-attrib_entity_geombuild-individual_entity_attribute-attrib_HH-attrib $-1 $-1 $-1 $161 F #
attrib_hh_coedge_geombuild-attrib_entity_geombuild-individual_entity_attribute-attrib_HH-attrib $-1 $-1 $-1 $162 F #
attrib_hh_edge_geombuild-attrib_entity_geombuild-individual_entity_attribute-attrib_HH-attrib $-1 $-1 $-1 $164 F #
vertex $193 $164 $194 #
ellipse-curve $-1 -0.1248746859276649995 0 -0.06750000000000000444 0.09999999999999979738 0 -0.9949874371066199652 -0.004974937185533090216 0 -0.0005000000000000000104 1 I I #
attrib_hh_edge_geombuild-attrib_entity_geombuild-individual_entity_attribute-attrib_HH-attrib $-1 $-1 $-1 $166 F #
vertex $195 $166 $196 #
ellipse-curve $-1 -0.07512531407233459524 0 -0.06750000000000000444 0.1000000000000000056 7.087422195345030129e-32 0.9949874371066199652 -0.004974937185533099757 -1.224606353822379947e-18 0.0005000000000000000104 1 I I #
pid_name-sg-attrib $-1 $-1 $172 $157 7 rwilson 784252905 1256 1 #
coedge $197 $187 $187 $176 $190 reversed $173 $-1 #
coedge $198 $188 $188 $177 $192 reversed $175 $-1 #
attrib_hh_coedge_geombuild-attrib_entity_geombuild-individual_entity_attribute-attrib_HH-attrib $-1 $-1 $-1 $176 F #
edge $199 $200 -3.141592653589793116 $200 3.141592653589793116 $187 $201 forward 7 unknown #
attrib_hh_coedge_geombuild-attrib_entity_geombuild-individual_entity_attribute-attrib_HH-attrib $-1 $-1 $-1 $177 F #
edge $202 $203 -3.141592653589793116 $203 3.141592653589793116 $188 $204 forward 7 unknown #
attrib_hh_vertex_geombuild-attrib_entity_geombuild-individual_entity_attribute-attrib_HH-attrib $-1 $-1 $-1 $181 F #
point $-1 -0.1198997487421319952 -6.123031769111890104e-19 -0.067000000000000004 #
attrib_hh_vertex_geombuild-attrib_entity_geombuild-individual_entity_attribute-attrib_HH-attrib $-1 $-1 $-1 $184 F #
point $-1 -0.07015037688680149375 6.123031769111880475e-19 -0.06800000000000000488 #
attrib_hh_coedge_geombuild-attrib_entity_geombuild-individual_entity_attribute-attrib_HH-attrib $-1 $-1 $-1 $187 F #
attrib_hh_coedge_geombuild-attrib_entity_geombuild-individual_entity_attribute-attrib_HH-attrib $-1 $-1 $-1 $188 F #
attrib_hh_edge_geombuild-attrib_entity_geombuild-individual_entity_attribute-attrib_HH-attrib $-1 $-1 $-1 $190 F #
vertex $205 $190 $206 #
ellipse-curve $-1 -0.33500000000000002 0 -0.04499999999999999833 1 0 0 0 0 -0.005000000000000000104 1 I I #
attrib_hh_edge_geombuild-attrib_entity_geombuild-individual_entity_attribute-attrib_HH-attrib $-1 $-1 $-1 $192 F #
vertex $207 $192 $208 #
ellipse-curve $-1 -0.1497493718553309927 0 -0.04499999999999999833 1 -2.591047276348749854e-32 -3.173012957670859897e-48 0 -6.123031769111919956e-19 0.005000000000000000104 1 I I #
attrib_hh_vertex_geombuild-attrib_entity_geombuild-individual_entity_attribute-attrib_HH-attrib $-1 $-1 $-1 $200 F #
point $-1 -0.33500000000000002 -6.123031769111890104e-19 -0.04000000000000000083 #
attrib_hh_vertex_geombuild-attrib_entity_geombuild-individual_entity_attribute-attrib_HH-attrib $-1 $-1 $-1 $203 F #
point $-1 -0.1497493718553309927 6.123031769111880475e-19 -0.05000000000000000278 #
End-of-ACIS-data 