105 139 1 0                             
body $-1 $1 $-1 $2 #
lump $-1 $-1 $3 $0 #
transform $-1 1 0 0 0 1 0 0 0 1 0 0 0 1 0 0 0 #
shell $-1 $-1 $-1 $4 $1 #
face $5 $6 $7 $3 $-1 $8 forward single #
pid_name-sg-attrib $-1 $-1 $-1 $4 7 114 119 105 108 115 111 110 784252905 1244 1 #
face $9 $10 $11 $3 $-1 $12 forward single #
loop $-1 $-1 $13 $4 #
plane-surface $-1 -0.30892098958974 0 0.0455392379261605 -0.999998476913288 0 0.00174532836589867 0.00174532836589867 0 0.999998476913288 0 #
pid_name-sg-attrib $-1 $-1 $-1 $6 7 114 119 105 108 115 111 110 784252905 1245 1 #
face $14 $15 $16 $3 $-1 $17 forward single #
loop $-1 $18 $19 $6 #
cone-surface $-1 -0.272662416670106 0 0.045475954713951 -0.999998476913288 0 0.00174532836589867 8.72664182949335e-06 0 0.00499999238456644 1 0 1 0 #
coedge $-1 $13 $13 $20 $21 1 $7 $-1 #
pid_name-sg-attrib $-1 $-1 $-1 $10 7 114 119 105 108 115 111 110 784252905 1246 1 #
face $22 $23 $24 $3 $-1 $25 forward single #
loop $-1 $26 $27 $10 #
torus-surface $-1 -0.272618783460959 0 0.0704759166367832 0 1 0 0.025 0.005 0 0 1 0 #
loop $-1 $-1 $20 $6 #
coedge $-1 $19 $19 $27 $28 0 $11 $-1 #
coedge $-1 $20 $20 $13 $21 0 $18 $-1 #
edge $-1 $29 $29 $13 $30 1 #
pid_name-sg-attrib $-1 $-1 $-1 $15 7 114 119 105 108 115 111 110 784252905 1247 1 #
face $31 $32 $33 $3 $-1 $34 forward single #
loop $-1 $35 $36 $15 #
torus-surface $-1 -0.222878214020064 0 0.0653890952623321 0 -1 0 0.025 0.005 0 0 -1 0 #
loop $-1 $-1 $37 $10 #
coedge $-1 $27 $27 $19 $28 1 $16 $-1 #
edge $-1 $38 $38 $27 $39 0 #
vertex $-1 $21 $40 #
ellipse-curve $-1 -0.30892098958974 0 0.0455392379261605 -0.999998476913288 0 0.00174532836589858 8.7266418294929e-06 0 0.00499999238456644 1 #
pid_name-sg-attrib $-1 $-1 $-1 $23 7 114 119 105 108 115 111 110 784252905 1248 1 #
face $41 $42 $43 $3 $-1 $44 forward single #
loop $-1 $45 $46 $23 #
torus-surface $-1 -0.173120191295511 0 0.0703022586570138 0 1 0 0.025 0.005 0 0 1 0 #
loop $-1 $-1 $47 $15 #
coedge $-1 $36 $36 $46 $48 0 $24 $-1 #
coedge $-1 $37 $37 $47 $49 0 $26 $-1 #
vertex $-1 $28 $50 #
ellipse-curve $-1 -0.272662416670106 0 0.045475954713951 -0.999998476913288 0 0.00174532836589858 8.7266418294929e-06 0 0.00499999238456644 1 #
point $-1 -0.308912262947911 0 0.0505392303107269 #
pid_name-sg-attrib $-1 $-1 $-1 $32 7 114 119 105 108 115 111 110 784252905 1249 1 #
face $51 $52 $53 $3 $-1 $54 forward single #
loop $-1 $55 $56 $32 #
cone-surface $-1 7.85397764654361e-05 0 0.044999931461098 -0.999998476913288 0 0.00174532836589851 8.72664182949254e-06 0 0.00499999238456644 1 0 1 0 #
loop $-1 $-1 $57 $23 #
coedge $-1 $46 $46 $36 $48 1 $33 $-1 #
coedge $-1 $47 $47 $37 $49 1 $35 $-1 #
edge $-1 $58 $58 $46 $59 0 #
edge $-1 $60 $60 $47 $61 0 #
point $-1 -0.272671143311936 -6.12303176911189e-19 0.0404759623293846 #
pid_name-sg-attrib $-1 $-1 $-1 $42 7 114 119 105 108 115 111 110 784252905 1250 1 #
face $62 $63 $64 $3 $-1 $65 forward single #
loop $-1 $66 $67 $42 #
torus-surface $-1 0 0 2.08166817117217e-17 0 -1 0 0.045 0.005 0 0 -1 0 #
loop $-1 $-1 $68 $32 #
coedge $-1 $56 $56 $67 $69 0 $43 $-1 #
coedge $-1 $57 $57 $68 $70 0 $45 $-1 #
vertex $-1 $48 $71 #
ellipse-curve $-1 -0.197999202657788 0 0.067845676959673 -0.0982632678936338 0 0.995160454491065 0.00497580227245534 0 0.000491316339468167 1 #
vertex $-1 $49 $72 #
ellipse-curve $-1 -0.247748498740512 0 0.0679325059495577 -0.101736427489022 -7.70371977754894e-32 -0.994811388817886 0.00497405694408942 -1.22460635382238e-18 -0.000508682137445107 1 #
pid_name-sg-attrib $-1 $-1 $-1 $52 7 114 119 105 108 115 111 110 784252905 1251 1 #
face $73 $74 $75 $3 $-1 $76 forward single #
loop $-1 $77 $78 $52 #
cone-surface $-1 -0.050250628144669 0 -0.045 1 0 8.67361737988403e-18 4.33680868994202e-20 0 -0.005 1 0 1 0 #
loop $-1 $-1 $79 $42 #
coedge $-1 $67 $67 $56 $69 1 $53 $-1 #
coedge $-1 $68 $68 $57 $70 1 $55 $-1 #
edge $-1 $80 $80 $67 $81 0 #
edge $-1 $82 $82 $68 $83 0 #
point $-1 -0.202975004930243 -6.12303176911189e-19 0.0673543606202048 #
point $-1 -0.252722555684601 6.12303176911189e-19 0.0684411880870028 #
pid_name-sg-attrib $-1 $-1 $-1 $63 7 114 119 105 108 115 111 110 784252905 1252 1 #
face $84 $85 $86 $3 $-1 $87 forward single #
loop $-1 $88 $89 $63 #
torus-surface $-1 -0.0502506281446691 0 -0.07 0 1 0 0.025 0.005 0 0 1 0 #
loop $-1 $-1 $90 $52 #
coedge $-1 $78 $78 $89 $91 0 $64 $-1 #
coedge $-1 $79 $79 $90 $92 0 $66 $-1 #
vertex $-1 $69 $93 #
ellipse-curve $-1 7.85397764654361e-05 0 0.044999931461098 -0.999998476913288 0 0.00174532836589851 8.72664182949255e-06 0 0.00499999238456644 1 #
vertex $-1 $70 $94 #
ellipse-curve $-1 -0.173163824504659 0 0.0453022967341817 -0.999998476913288 2.01271716250619e-30 0.00174532836591523 -8.72664182957616e-06 -6.12303176911186e-19 -0.00499999238456644 1 #
pid_name-sg-attrib $-1 $-1 $-1 $74 7 114 119 105 108 115 111 110 784252905 1253 1 #
face $95 $96 $97 $3 $-1 $98 forward single #
loop $-1 $99 $100 $74 #
torus-surface $-1 -0.1 0 -0.065 0 -1 0 0.025 0.005 0 0 -1 0 #
loop $-1 $-1 $101 $63 #
coedge $-1 $89 $89 $78 $91 1 $75 $-1 #
coedge $-1 $90 $90 $79 $92 1 $77 $-1 #
edge $-1 $102 $102 $89 $103 0 #
edge $-1 $104 $104 $90 $105 0 #
point $-1 6.98131346359435e-05 -6.12303176911189e-19 0.0399999390765315 #
point $-1 -0.173155097862829 6.12303176911189e-19 0.0503022891187481 #
pid_name-sg-attrib $-1 $-1 $-1 $85 7 114 119 105 108 115 111 110 784252905 1254 1 #
face $106 $107 $108 $3 $-1 $109 forward single #
loop $-1 $110 $111 $85 #
torus-surface $-1 -0.149749371855331 0 -0.07 0 1 0 0.025 0.005 0 0 1 0 #
loop $-1 $-1 $112 $74 #
coedge $-1 $100 $100 $111 $113 0 $86 $-1 #
coedge $-1 $101 $101 $112 $114 0 $88 $-1 #
vertex $-1 $91 $115 #
ellipse-curve $-1 -0.050250628144669 0 -0.045 1 0 0 0 0 -0.005 1 #
vertex $-1 $92 $116 #
ellipse-curve $-1 -1.00725092329335e-17 0 -0.045 1 -2.90558435027495e-31 2.14883449575764e-15 -1.07441724787882e-17 -6.12303176911188e-19 0.005 1 #
pid_name-sg-attrib $-1 $-1 $-1 $96 7 114 119 105 108 115 111 110 784252905 1255 1 #
face $117 $-1 $118 $3 $-1 $119 reversed single #
loop $-1 $120 $121 $96 #
cone-surface $-1 -0.335 0 -0.045 1 0 -6.28837260041592e-17 -3.14418630020796e-19 0 -0.005 1 0 1 0 #
loop $-1 $-1 $122 $85 #
coedge $-1 $111 $111 $100 $113 1 $97 $-1 #
coedge $-1 $112 $112 $101 $114 1 $99 $-1 #
edge $-1 $123 $123 $111 $124 0 #
edge $-1 $125 $125 $112 $126 0 #
point $-1 -0.050250628144669 -6.12303176911188e-19 -0.04 #
point $-1 -1.11916769254816e-17 0 -0.05 #
pid_name-sg-attrib $-1 $-1 $-1 $107 7 114 119 105 108 115 111 110 784252905 1256 1 #
loop $-1 $-1 $127 $107 #
plane-surface $-1 -0.335 0 -0.045 1 0 -6.28837260041592e-17 -6.28837260041592e-17 0 -1 0 #
loop $-1 $-1 $128 $96 #
coedge $-1 $121 $121 $127 $129 0 $108 $-1 #
coedge $-1 $122 $122 $128 $130 0 $110 $-1 #
vertex $-1 $113 $131 #
ellipse-curve $-1 -0.124874685927665 0 -0.0675 0.0999999999999998 0 -0.99498743710662 -0.00497493718553309 0 -0.0005 1 #
vertex $-1 $114 $132 #
ellipse-curve $-1 -0.0751253140723346 0 -0.0675 0.1 7.08742219534503e-32 0.99498743710662 -0.0049749371855331 -1.22460635382238e-18 0.0005 1 #
coedge $-1 $127 $127 $121 $129 1 $118 $-1 #
coedge $-1 $128 $128 $122 $130 1 $120 $-1 #
edge $-1 $133 $133 $127 $134 0 #
edge $-1 $135 $135 $128 $136 0 #
point $-1 -0.119899748742132 -6.12303176911189e-19 -0.067 #
point $-1 -0.0701503768868015 6.12303176911188e-19 -0.068 #
vertex $-1 $129 $137 #
ellipse-curve $-1 -0.335 0 -0.045 1 0 0 0 0 -0.005 1 #
vertex $-1 $130 $138 #
ellipse-curve $-1 -0.149749371855331 0 -0.045 1 -2.59104727634875e-32 -3.17301295767086e-48 0 -6.12303176911192e-19 0.005 1 #
point $-1 -0.335 -6.12303176911189e-19 -0.04 #
point $-1 -0.149749371855331 6.12303176911188e-19 -0.05 #
