600 0 1 0           
87 GICL ACIS Healer - Source: /gicl/data5/repository/UMD/tmp/keyway_tp/keyway_tp.sat - 6 0 18 ACIS 6.0.3 Solaris 24 Sun Apr 14 00:33:52 2002 
1 9.999999999999999547e-07 1.000000000000000036e-10 
body $-1 $1 $-1 $-1 #
lump $-1 $-1 $2 $0 #
shell $-1 $-1 $-1 $3 $-1 $1 #
face $-1 $4 $5 $2 $-1 $6 forward single #
face $-1 $7 $8 $2 $-1 $6 forward single #
loop $-1 $-1 $9 $3 #
cone-surface $-1 0 0 0 0 0 1 20 -2.842170943040400743e-14 0 1 I I 0 1 20 forward I I I I #
face $-1 $10 $11 $2 $-1 $6 forward single #
loop $-1 $-1 $12 $4 #
coedge $-1 $13 $14 $15 $16 reversed $5 $-1 #
face $-1 $17 $18 $2 $-1 $6 forward single #
loop $-1 $-1 $19 $7 #
coedge $-1 $20 $21 $22 $23 reversed $8 $-1 #
coedge $-1 $24 $9 $25 $26 reversed $5 $-1 #
coedge $-1 $9 $24 $27 $28 reversed $5 $-1 #
coedge $-1 $29 $30 $9 $16 forward $31 $-1 #
edge $-1 $32 -100 $33 100 $15 $34 forward 7 unknown #
face $-1 $35 $36 $2 $-1 $37 reversed single #
loop $-1 $-1 $38 $10 #
coedge $-1 $39 $40 $41 $42 reversed $11 $-1 #
coedge $-1 $43 $12 $44 $45 reversed $8 $-1 #
coedge $-1 $12 $46 $47 $48 reversed $8 $-1 #
coedge $-1 $49 $50 $12 $23 forward $51 $-1 #
edge $-1 $52 -100 $53 100 $22 $54 forward 7 unknown #
coedge $-1 $14 $13 $55 $56 reversed $5 $-1 #
coedge $-1 $57 $58 $13 $26 forward $59 $-1 #
edge $-1 $60 -1.97179771569669815 $32 -1.169794937893083198 $25 $61 forward 7 unknown #
coedge $-1 $62 $63 $14 $28 forward $64 $-1 #
edge $-1 $33 1.169794937893083198 $65 1.97179771569669815 $27 $66 forward 7 unknown #
coedge $-1 $67 $15 $63 $68 reversed $31 $-1 #
coedge $-1 $15 $67 $57 $69 reversed $31 $-1 #
loop $-1 $-1 $15 $70 #
vertex $-1 $69 $71 #
vertex $-1 $68 $72 #
straight-curve $-1 7.80680974322785648 -18.41341146102601556 0 0 -0 -1 I I #
face $-1 $73 $74 $2 $-1 $75 reversed single #
loop $-1 $-1 $76 $17 #
plane-surface $-1 -5.303300858899135939 5.303300858899076431 0 0.7071067811865514585 -0.7071067811865435759 0 0 0 1 forward_v I I I I #
coedge $-1 $77 $78 $76 $79 reversed $18 $-1 #
coedge $-1 $80 $19 $81 $82 reversed $11 $-1 #
coedge $-1 $19 $80 $83 $84 reversed $11 $-1 #
coedge $-1 $85 $86 $19 $42 forward $74 $-1 #
edge $-1 $87 -100 $88 100 $41 $89 forward 7 unknown #
coedge $-1 $90 $20 $91 $92 reversed $8 $-1 #
coedge $-1 $93 $91 $20 $45 forward $59 $-1 #
edge $-1 $94 0 $52 0.401001388901816247 $44 $61 forward 7 unknown #
coedge $-1 $21 $90 $95 $96 reversed $8 $-1 #
coedge $-1 $95 $97 $21 $48 forward $64 $-1 #
edge $-1 $53 -0.401001388901816247 $98 0 $47 $66 forward 7 unknown #
coedge $-1 $99 $22 $97 $100 reversed $51 $-1 #
coedge $-1 $22 $99 $93 $101 reversed $51 $-1 #
loop $-1 $-1 $22 $102 #
vertex $-1 $101 $103 #
vertex $-1 $100 $104 #
straight-curve $-1 18.41341146102597293 7.806809743227899112 0 0 -0 -1 I I #
coedge $-1 $105 $106 $24 $56 forward $107 $-1 #
edge $-1 $65 -100 $60 100 $55 $108 forward 7 unknown #
coedge $-1 $109 $25 $30 $69 forward $59 $-1 #
coedge $-1 $25 $110 $105 $111 forward $59 $-1 #
loop $-1 $-1 $112 $113 #
vertex $-1 $111 $114 #
ellipse-curve $-1 0 0 100 0 0 1 20 -2.842170943040400743e-14 0 1 I I #
coedge $-1 $115 $27 $106 $116 forward $64 $-1 #
coedge $-1 $27 $117 $29 $68 forward $64 $-1 #
loop $-1 $-1 $118 $119 #
vertex $-1 $116 $120 #
ellipse-curve $-1 0 0 -100 0 0 -1 20 -2.842170943040400743e-14 0 1 I I #
coedge $-1 $30 $29 $121 $122 reversed $31 $-1 #
edge $-1 $123 -19.99999999999999645 $33 -18.54049621773920009 $29 $124 forward 7 unknown #
edge $-1 $32 18.54049621773920009 $125 19.99999999999999645 $30 $126 forward 7 unknown #
face $-1 $-1 $31 $2 $-1 $75 reversed single #
point $-1 7.80680974322785648 -18.41341146102601556 100 #
point $-1 7.80680974322785648 -18.41341146102601556 -100 #
face $-1 $119 $127 $2 $-1 $128 reversed single #
loop $-1 $-1 $41 $35 #
plane-surface $-1 -5.303300858899095083 -5.303300858899117287 0 0.7071067811865460184 0.707106781186549016 0 0 0 -1 forward_v I I I I #
coedge $-1 $129 $130 $38 $79 forward $36 $-1 #
coedge $-1 $131 $38 $132 $133 reversed $18 $-1 #
coedge $-1 $38 $131 $112 $134 reversed $18 $-1 #
edge $-1 $135 -100 $136 100 $76 $137 forward 7 unknown #
coedge $-1 $40 $39 $138 $139 reversed $11 $-1 #
coedge $-1 $140 $141 $39 $82 forward $64 $-1 #
edge $-1 $142 2.740591264687977091 $87 3.542594042491599815 $81 $66 forward 7 unknown #
coedge $-1 $143 $144 $40 $84 forward $59 $-1 #
edge $-1 $88 2.740591264687986417 $145 3.542594042491609141 $83 $61 forward 7 unknown #
coedge $-1 $146 $41 $144 $147 reversed $74 $-1 #
coedge $-1 $41 $146 $140 $148 reversed $74 $-1 #
vertex $-1 $148 $149 #
vertex $-1 $147 $150 #
straight-curve $-1 -18.41341146102604753 7.806809743227779208 0 0 0 1 I I #
coedge $-1 $46 $43 $151 $152 reversed $8 $-1 #
coedge $-1 $44 $153 $43 $92 forward $59 $-1 #
edge $-1 $154 -0.401001388901806588 $94 0 $91 $61 forward 7 unknown #
coedge $-1 $155 $44 $50 $101 forward $59 $-1 #
vertex $-1 $92 $156 #
coedge $-1 $157 $47 $46 $96 forward $64 $-1 #
edge $-1 $98 0 $158 0.401001388901806588 $95 $66 forward 7 unknown #
coedge $-1 $47 $159 $49 $100 forward $64 $-1 #
vertex $-1 $48 $160 #
coedge $-1 $50 $49 $161 $162 reversed $51 $-1 #
edge $-1 $163 -19.99999999999997513 $53 -18.54049621773917522 $49 $164 forward 7 unknown #
edge $-1 $52 18.54049621773917522 $165 19.99999999999997513 $50 $166 forward 7 unknown #
face $-1 $70 $51 $2 $-1 $167 reversed single #
point $-1 18.41341146102597293 7.806809743227899112 100 #
point $-1 18.41341146102597293 7.806809743227899112 -100 #
coedge $-1 $168 $55 $58 $111 reversed $107 $-1 #
coedge $-1 $55 $168 $62 $116 reversed $107 $-1 #
loop $-1 $-1 $55 $169 #
straight-curve $-1 -7.806809743227658416 -18.41341146102602622 0 0 0 1 I I #
coedge $-1 $170 $57 $171 $172 reversed $59 $-1 #
coedge $-1 $58 $173 $174 $175 reversed $59 $-1 #
edge $-1 $176 -20.00000000000002842 $60 -18.54049621773912548 $105 $166 forward 7 unknown #
coedge $-1 $177 $178 $78 $134 forward $59 $-1 #
face $-1 $179 $59 $2 $-1 $180 forward single #
point $-1 -7.806809743227658416 -18.41341146102602622 100 #
coedge $-1 $181 $62 $182 $183 reversed $64 $-1 #
edge $-1 $65 18.54049621773912548 $184 20.00000000000002842 $106 $164 forward 7 unknown #
coedge $-1 $63 $185 $186 $187 reversed $64 $-1 #
coedge $-1 $188 $132 $130 $189 forward $64 $-1 #
face $-1 $169 $64 $2 $-1 $190 reversed single #
point $-1 -7.806809743227658416 -18.41341146102602622 -100 #
coedge $-1 $186 $171 $67 $122 forward $191 $-1 #
edge $-1 $125 -100 $123 100 $67 $192 forward 7 unknown #
vertex $-1 $187 $193 #
straight-curve $-1 -5.303300858899095083 -5.303300858899117287 -100 -0.707106781186549016 0.7071067811865460184 0 I I #
vertex $-1 $69 $194 #
straight-curve $-1 -5.303300858899095083 -5.303300858899117287 100 0.707106781186549016 -0.7071067811865460184 0 I I #
loop $-1 $-1 $151 $73 #
plane-surface $-1 5.303300858899095083 5.303300858899117287 0 -0.7071067811865460184 -0.707106781186549016 0 0 0 1 forward_v I I I I #
coedge $-1 $195 $76 $178 $196 reversed $36 $-1 #
coedge $-1 $76 $195 $118 $189 reversed $36 $-1 #
coedge $-1 $78 $77 $197 $198 reversed $18 $-1 #
coedge $-1 $118 $199 $77 $133 forward $64 $-1 #
edge $-1 $200 -1.97179771569671014 $135 -1.169794937893095188 $132 $66 forward 7 unknown #
edge $-1 $136 1.169794937893095188 $201 1.97179771569671014 $112 $61 forward 7 unknown #
vertex $-1 $189 $202 #
vertex $-1 $196 $203 #
straight-curve $-1 7.806809743227658416 18.41341146102602622 0 0 0 1 I I #
coedge $-1 $204 $205 $80 $139 forward $206 $-1 #
edge $-1 $145 -100 $142 100 $138 $207 forward 7 unknown #
coedge $-1 $208 $81 $86 $148 forward $64 $-1 #
coedge $-1 $81 $209 $204 $210 forward $64 $-1 #
vertex $-1 $210 $211 #
coedge $-1 $212 $83 $205 $213 forward $59 $-1 #
coedge $-1 $83 $214 $85 $147 forward $59 $-1 #
vertex $-1 $213 $215 #
coedge $-1 $86 $85 $216 $217 reversed $74 $-1 #
edge $-1 $218 -20 $88 -18.54049621773920009 $85 $126 forward 7 unknown #
edge $-1 $87 18.54049621773920009 $219 20 $86 $124 forward 7 unknown #
point $-1 -18.41341146102604753 7.806809743227779208 -100 #
point $-1 -18.41341146102604753 7.806809743227779208 100 #
coedge $-1 $220 $221 $90 $152 forward $127 $-1 #
edge $-1 $158 -100 $154 100 $151 $222 forward 7 unknown #
coedge $-1 $91 $223 $220 $224 forward $59 $-1 #
vertex $-1 $224 $225 #
coedge $-1 $226 $93 $227 $228 reversed $59 $-1 #
point $-1 20 -2.842170943040400743e-14 100 #
coedge $-1 $229 $95 $221 $230 forward $64 $-1 #
vertex $-1 $230 $231 #
coedge $-1 $97 $232 $233 $234 reversed $64 $-1 #
point $-1 20 -2.842170943040400743e-14 -100 #
coedge $-1 $233 $227 $99 $162 forward $235 $-1 #
edge $-1 $165 -100 $163 100 $99 $236 forward 7 unknown #
vertex $-1 $234 $237 #
straight-curve $-1 5.303300858899135939 -5.303300858899076431 -100 -0.7071067811865435759 -0.7071067811865514585 0 I I #
vertex $-1 $101 $238 #
straight-curve $-1 5.303300858899135939 -5.303300858899076431 100 0.7071067811865435759 0.7071067811865514585 0 I I #
plane-surface $-1 5.303300858899135939 -5.303300858899076431 0 -0.7071067811865514585 0.7071067811865435759 0 -0 0 -1 forward_v I I I I #
coedge $-1 $106 $105 $239 $240 reversed $107 $-1 #
face $-1 $113 $107 $2 $-1 $167 reversed single #
coedge $-1 $223 $109 $241 $242 forward $59 $-1 #
coedge $-1 $121 $243 $109 $172 forward $191 $-1 #
edge $-1 $244 -0.78539816339744839 $125 0.7853981633974488341 $109 $245 forward 7 unknown #
coedge $-1 $110 $212 $246 $247 forward $59 $-1 #
coedge $-1 $248 $239 $110 $175 forward $249 $-1 #
edge $-1 $176 -0.7853981633974452814 $250 0.7853981633974469467 $110 $251 forward 7 unknown #
vertex $-1 $175 $252 #
coedge $-1 $253 $112 $254 $255 forward $59 $-1 #
coedge $-1 $112 $256 $129 $196 forward $59 $-1 #
face $-1 $257 $258 $2 $-1 $259 forward single #
plane-surface $-1 0 0 100 0 0 1 0.7071067811865460184 0.707106781186549016 0 forward_v I I I I #
coedge $-1 $209 $115 $260 $261 forward $64 $-1 #
coedge $-1 $239 $248 $115 $183 forward $249 $-1 #
edge $-1 $262 -0.7853981633974469467 $184 0.7853981633974452814 $115 $263 forward 7 unknown #
vertex $-1 $116 $264 #
coedge $-1 $117 $229 $265 $266 forward $64 $-1 #
coedge $-1 $243 $121 $117 $187 forward $191 $-1 #
edge $-1 $123 -0.7853981633974488341 $267 0.78539816339744839 $117 $268 forward 7 unknown #
coedge $-1 $232 $118 $269 $270 reversed $64 $-1 #
edge $-1 $135 18.54049621773912548 $271 20.00000000000002842 $130 $272 forward 7 unknown #
plane-surface $-1 0 0 -100 0 0 1 0.7071067811865460184 0.707106781186549016 0 forward_v I I I I #
loop $-1 $-1 $243 $273 #
straight-curve $-1 8.838834764831883462 -19.44543648263003632 0 0 0 -1 I I #
point $-1 8.838834764831883462 -19.44543648263003632 -100 #
point $-1 8.838834764831883462 -19.44543648263003632 100 #
coedge $-1 $130 $129 $274 $275 reversed $36 $-1 #
edge $-1 $276 -20.00000000000002842 $136 -18.54049621773912548 $129 $277 forward 7 unknown #
coedge $-1 $278 $254 $131 $198 forward $279 $-1 #
edge $-1 $201 -100 $200 100 $197 $280 forward 7 unknown #
coedge $-1 $132 $281 $278 $282 forward $64 $-1 #
vertex $-1 $282 $283 #
vertex $-1 $255 $284 #
point $-1 7.806809743227658416 18.41341146102602622 -100 #
point $-1 7.806809743227658416 18.41341146102602622 100 #
coedge $-1 $285 $138 $141 $210 reversed $206 $-1 #
coedge $-1 $138 $285 $143 $213 reversed $206 $-1 #
loop $-1 $-1 $138 $286 #
straight-curve $-1 -18.41341146102597293 -7.806809743227899112 0 0 -0 -1 I I #
coedge $-1 $287 $140 $288 $289 reversed $64 $-1 #
coedge $-1 $141 $181 $290 $291 reversed $64 $-1 #
edge $-1 $292 -19.99999999999997513 $142 -18.54049621773917522 $204 $272 forward 7 unknown #
point $-1 -18.41341146102597293 -7.806809743227899112 -100 #
coedge $-1 $173 $143 $293 $294 reversed $59 $-1 #
edge $-1 $145 18.54049621773917522 $295 19.99999999999997513 $205 $277 forward 7 unknown #
coedge $-1 $144 $296 $297 $298 reversed $59 $-1 #
point $-1 -18.41341146102597293 -7.806809743227899112 100 #
coedge $-1 $297 $288 $146 $217 forward $299 $-1 #
edge $-1 $219 -100 $218 100 $146 $300 forward 7 unknown #
vertex $-1 $298 $301 #
vertex $-1 $148 $302 #
coedge $-1 $303 $151 $153 $224 reversed $127 $-1 #
coedge $-1 $151 $303 $157 $230 reversed $127 $-1 #
straight-curve $-1 18.41341146102604753 -7.806809743227779208 0 0 0 1 I I #
coedge $-1 $153 $170 $304 $305 reversed $59 $-1 #
edge $-1 $306 -20 $154 -18.54049621773920009 $220 $307 forward 7 unknown #
point $-1 18.41341146102604753 -7.806809743227779208 100 #
coedge $-1 $256 $155 $308 $309 forward $59 $-1 #
coedge $-1 $161 $310 $155 $228 forward $235 $-1 #
edge $-1 $311 -0.7853981633974496113 $165 0.7853981633974510546 $155 $312 forward 7 unknown #
coedge $-1 $185 $157 $313 $314 reversed $64 $-1 #
edge $-1 $158 18.54049621773920009 $315 20 $221 $316 forward 7 unknown #
point $-1 18.41341146102604753 -7.806809743227779208 -100 #
coedge $-1 $159 $188 $317 $318 forward $64 $-1 #
coedge $-1 $310 $161 $159 $234 forward $235 $-1 #
edge $-1 $163 -0.7853981633974510546 $319 0.7853981633974496113 $159 $320 forward 7 unknown #
loop $-1 $-1 $310 $321 #
straight-curve $-1 19.44543648262999014 8.8388347648319332 0 0 0 -1 I I #
point $-1 19.44543648262999014 8.8388347648319332 -100 #
point $-1 19.44543648262999014 8.8388347648319332 100 #
coedge $-1 $174 $182 $168 $240 forward $249 $-1 #
edge $-1 $184 -100 $176 100 $168 $322 forward 7 unknown #
coedge $-1 $323 $324 $170 $242 reversed $325 $-1 #
edge $-1 $244 -2.5 $326 2.5 $241 $327 forward 7 unknown #
coedge $-1 $171 $186 $323 $328 forward $191 $-1 #
vertex $-1 $328 $329 #
ellipse-curve $-1 12.37436867076461411 -15.90990257669729324 100 0 -0 -1 1.065814103640150279e-14 -5.000000000000003553 0 1 I I #
coedge $-1 $330 $331 $173 $247 reversed $332 $-1 #
edge $-1 $333 -2.499999999999995115 $250 2.500000000000005329 $246 $334 forward 7 unknown #
coedge $-1 $182 $174 $331 $335 forward $249 $-1 #
loop $-1 $-1 $239 $336 #
vertex $-1 $247 $337 #
ellipse-curve $-1 -12.37436867076449865 -15.90990257669739449 100 0 -0 -1 2.486899575160350651e-14 -5.000000000000003553 0 1 I I #
point $-1 -8.838834764831753787 -19.44543648263012514 100 #
coedge $-1 $296 $177 $338 $339 reversed $59 $-1 #
coedge $-1 $197 $340 $177 $255 reversed $279 $-1 #
edge $-1 $201 18.54049621773920009 $341 19.99999999999999645 $254 $307 forward 7 unknown #
coedge $-1 $178 $226 $342 $343 reversed $59 $-1 #
face $-1 $344 $325 $2 $-1 $345 reversed single #
loop $-1 $-1 $346 $179 #
cone-surface $-1 15.90990257669734476 -12.37436867076454838 0 0 0 -1 5.000000000000003553 1.065814103640150279e-14 0 1 I I 0 1 5.000000000000003553 forward I I I I #
coedge $-1 $331 $330 $181 $261 reversed $332 $-1 #
edge $-1 $262 -2.500000000000005329 $347 2.499999999999995115 $260 $348 forward 7 unknown #
vertex $-1 $335 $349 #
ellipse-curve $-1 -12.37436867076449865 -15.90990257669739449 -100 0 0 1 2.486899575160350651e-14 -5.000000000000003553 0 1 I I #
point $-1 -8.838834764831753787 -19.44543648263012514 -100 #
coedge $-1 $324 $323 $185 $266 reversed $325 $-1 #
edge $-1 $350 -2.5 $267 2.5 $265 $351 forward 7 unknown #
vertex $-1 $266 $352 #
ellipse-curve $-1 12.37436867076461411 -15.90990257669729324 -100 0 0 1 1.065814103640150279e-14 -5.000000000000003553 0 1 I I #
coedge $-1 $274 $353 $188 $270 forward $354 $-1 #
edge $-1 $355 -0.7853981633974469467 $271 0.7853981633974452814 $188 $356 forward 7 unknown #
vertex $-1 $189 $357 #
straight-curve $-1 -5.303300858899135939 5.303300858899076431 -100 0.7071067811865435759 0.7071067811865514585 0 I I #
face $-1 $358 $191 $2 $-1 $359 forward single #
coedge $-1 $342 $269 $195 $275 forward $354 $-1 #
edge $-1 $271 -100 $276 100 $195 $360 forward 7 unknown #
vertex $-1 $343 $361 #
straight-curve $-1 -5.303300858899135939 5.303300858899076431 100 -0.7071067811865435759 -0.7071067811865514585 0 I I #
coedge $-1 $340 $197 $199 $282 reversed $279 $-1 #
loop $-1 $-1 $197 $362 #
straight-curve $-1 -7.80680974322785648 18.41341146102601556 0 0 -0 -1 I I #
coedge $-1 $199 $287 $363 $364 reversed $64 $-1 #
edge $-1 $365 -19.99999999999999645 $200 -18.54049621773920009 $278 $316 forward 7 unknown #
point $-1 -7.80680974322785648 18.41341146102601556 -100 #
point $-1 -7.80680974322785648 18.41341146102601556 100 #
coedge $-1 $205 $204 $366 $367 reversed $206 $-1 #
face $-1 $102 $206 $2 $-1 $37 reversed single #
coedge $-1 $281 $208 $368 $369 forward $64 $-1 #
coedge $-1 $216 $370 $208 $289 forward $299 $-1 #
edge $-1 $371 -0.785398163397448168 $219 0.785398163397448057 $208 $372 forward 7 unknown #
coedge $-1 $373 $366 $209 $291 forward $374 $-1 #
edge $-1 $292 -0.7853981633974510546 $347 0.7853981633974496113 $209 $375 forward 7 unknown #
vertex $-1 $291 $376 #
coedge $-1 $366 $373 $212 $294 forward $374 $-1 #
edge $-1 $333 -0.7853981633974496113 $295 0.7853981633974510546 $212 $377 forward 7 unknown #
vertex $-1 $213 $378 #
coedge $-1 $214 $253 $379 $380 forward $59 $-1 #
coedge $-1 $370 $216 $214 $298 forward $299 $-1 #
edge $-1 $218 -0.785398163397448057 $381 0.785398163397448168 $214 $382 forward 7 unknown #
loop $-1 $-1 $216 $383 #
straight-curve $-1 -19.4454364826300754 8.838834764831803525 0 0 0 1 I I #
point $-1 -19.4454364826300754 8.838834764831803525 100 #
point $-1 -19.4454364826300754 8.838834764831803525 -100 #
coedge $-1 $221 $220 $346 $384 reversed $127 $-1 #
coedge $-1 $385 $346 $223 $305 forward $258 $-1 #
edge $-1 $306 -0.785398163397448057 $326 0.785398163397448168 $223 $386 forward 7 unknown #
vertex $-1 $305 $387 #
straight-curve $-1 5.303300858899095083 5.303300858899117287 100 -0.707106781186549016 0.7071067811865460184 0 I I #
coedge $-1 $388 $389 $226 $309 reversed $390 $-1 #
edge $-1 $311 -2.499999999999995115 $391 2.500000000000005329 $308 $392 forward 7 unknown #
coedge $-1 $227 $233 $388 $393 forward $235 $-1 #
vertex $-1 $393 $394 #
ellipse-curve $-1 15.9099025766972435 12.37436867076466385 100 0 -0 -1 5.000000000000003553 2.486899575160350651e-14 0 1 I I #
coedge $-1 $346 $385 $229 $314 forward $258 $-1 #
edge $-1 $350 -0.785398163397448168 $315 0.785398163397448057 $229 $395 forward 7 unknown #
vertex $-1 $230 $396 #
straight-curve $-1 5.303300858899095083 5.303300858899117287 -100 0.707106781186549016 -0.7071067811865460184 0 I I #
coedge $-1 $389 $388 $232 $318 reversed $390 $-1 #
edge $-1 $355 -2.500000000000005329 $319 2.499999999999995115 $317 $397 forward 7 unknown #
vertex $-1 $318 $398 #
ellipse-curve $-1 15.9099025766972435 12.37436867076466385 -100 0 0 1 5.000000000000003553 2.486899575160350651e-14 0 1 I I #
face $-1 $383 $235 $2 $-1 $399 forward single #
straight-curve $-1 -8.838834764831753787 -19.44543648263012514 0 0 0 1 I I #
coedge $-1 $265 $241 $243 $328 reversed $325 $-1 #
coedge $-1 $241 $265 $385 $400 reversed $325 $-1 #
loop $-1 $-1 $324 $257 #
vertex $-1 $242 $401 #
straight-curve $-1 17.67766952966372429 -17.67766952966364968 100 0.7071067811865460184 0.707106781186549016 0 I I #
edge $-1 $267 -100 $244 100 $323 $402 forward 7 unknown #
point $-1 15.90990257669735897 -19.44543648263002211 100 #
coedge $-1 $260 $246 $373 $403 reversed $332 $-1 #
coedge $-1 $246 $260 $248 $335 reversed $332 $-1 #
loop $-1 $-1 $330 $404 #
vertex $-1 $403 $405 #
straight-curve $-1 -17.67766952966358929 -17.67766952966378469 100 0.7071067811865514585 -0.7071067811865435759 0 I I #
edge $-1 $250 -100 $262 100 $331 $406 forward 7 unknown #
face $-1 $286 $249 $2 $-1 $407 forward single #
point $-1 -15.90990257669721331 -19.44543648263015356 100 #
coedge $-1 $408 $409 $253 $339 forward $410 $-1 #
edge $-1 $411 -0.78539816339744839 $341 0.7853981633974488341 $253 $412 forward 7 unknown #
coedge $-1 $254 $278 $408 $413 reversed $279 $-1 #
vertex $-1 $255 $414 #
coedge $-1 $353 $274 $256 $343 forward $354 $-1 #
edge $-1 $276 -0.7853981633974452814 $391 0.7853981633974469467 $256 $415 forward 7 unknown #
face $-1 $416 $354 $2 $-1 $417 forward single #
plane-surface $-1 17.67766952966372429 -17.67766952966364968 0 -0.707106781186549016 0.7071067811865460184 0 0 0 1 forward_v I I I I #
coedge $-1 $304 $313 $303 $384 forward $258 $-1 #
vertex $-1 $261 $418 #
straight-curve $-1 -17.67766952966358929 -17.67766952966378469 -100 -0.7071067811865514585 0.7071067811865435759 0 I I #
point $-1 -15.90990257669721331 -19.44543648263015356 -100 #
vertex $-1 $400 $419 #
straight-curve $-1 17.67766952966372429 -17.67766952966364968 -100 -0.7071067811865460184 -0.707106781186549016 0 I I #
point $-1 15.90990257669735897 -19.44543648263002211 -100 #
coedge $-1 $269 $342 $389 $420 forward $354 $-1 #
loop $-1 $-1 $274 $344 #
vertex $-1 $420 $421 #
ellipse-curve $-1 12.37436867076449865 15.90990257669739449 -100 0 0 1 -2.486899575160350651e-14 5.000000000000003553 0 1 I I #
point $-1 8.838834764831753787 19.44543648263012514 -100 #
face $-1 $362 $410 $2 $-1 $422 forward single #
cone-surface $-1 12.37436867076461411 -15.90990257669729324 0 0 -0 -1 1.065814103640150279e-14 -5.000000000000003553 0 1 I I 0 1 5.000000000000003553 forward I I I I #
straight-curve $-1 8.838834764831753787 19.44543648263012514 0 0 0 1 I I #
point $-1 8.838834764831753787 19.44543648263012514 100 #
face $-1 $423 $279 $2 $-1 $128 reversed single #
coedge $-1 $409 $408 $281 $364 forward $410 $-1 #
edge $-1 $365 -0.7853981633974488341 $424 0.78539816339744839 $281 $425 forward 7 unknown #
vertex $-1 $413 $426 #
coedge $-1 $290 $293 $285 $367 forward $374 $-1 #
edge $-1 $295 -100 $292 100 $285 $427 forward 7 unknown #
coedge $-1 $428 $429 $287 $369 reversed $430 $-1 #
edge $-1 $371 -2.5 $424 2.5 $368 $431 forward 7 unknown #
coedge $-1 $288 $297 $428 $432 forward $299 $-1 #
vertex $-1 $432 $433 #
ellipse-curve $-1 -15.90990257669734476 12.37436867076454838 -100 0 0 1 -5.000000000000003553 -1.065814103640150279e-14 0 1 I I #
coedge $-1 $293 $290 $330 $403 forward $374 $-1 #
loop $-1 $-1 $373 $423 #
ellipse-curve $-1 -15.9099025766972435 -12.37436867076466385 -100 0 0 1 -5.000000000000003553 -2.486899575160350651e-14 0 1 I I #
point $-1 -19.44543648262999014 -8.8388347648319332 -100 #
ellipse-curve $-1 -15.9099025766972435 -12.37436867076466385 100 0 -0 -1 -5.000000000000003553 -2.486899575160350651e-14 0 1 I I #
point $-1 -19.44543648262999014 -8.8388347648319332 100 #
coedge $-1 $429 $428 $296 $380 reversed $430 $-1 #
edge $-1 $411 -2.5 $381 2.5 $379 $434 forward 7 unknown #
vertex $-1 $380 $435 #
ellipse-curve $-1 -15.90990257669734476 12.37436867076454838 100 0 -0 -1 -5.000000000000003553 -1.065814103640150279e-14 0 1 I I #
face $-1 $436 $299 $2 $-1 $437 forward single #
edge $-1 $315 -100 $306 100 $303 $438 forward 7 unknown #
coedge $-1 $313 $304 $324 $400 forward $258 $-1 #
ellipse-curve $-1 15.90990257669734476 -12.37436867076454838 100 0 -0 -1 5.000000000000003553 1.065814103640150279e-14 0 1 I I #
point $-1 19.4454364826300754 -8.838834764831803525 100 #
coedge $-1 $317 $308 $310 $393 reversed $390 $-1 #
coedge $-1 $308 $317 $353 $420 reversed $390 $-1 #
loop $-1 $-1 $389 $416 #
vertex $-1 $309 $439 #
straight-curve $-1 17.67766952966358929 17.67766952966378469 100 -0.7071067811865514585 0.7071067811865435759 0 I I #
edge $-1 $319 -100 $311 100 $388 $440 forward 7 unknown #
point $-1 19.44543648262995816 15.90990257669742292 100 #
ellipse-curve $-1 15.90990257669734476 -12.37436867076454838 -100 0 0 1 5.000000000000003553 1.065814103640150279e-14 0 1 I I #
point $-1 19.4454364826300754 -8.838834764831803525 -100 #
straight-curve $-1 17.67766952966358929 17.67766952966378469 -100 0.7071067811865514585 -0.7071067811865435759 0 I I #
point $-1 19.44543648262995816 15.90990257669742292 -100 #
cone-surface $-1 15.9099025766972435 12.37436867076466385 0 0 0 -1 5.000000000000003553 2.486899575160350651e-14 0 1 I I 0 1 5.000000000000003553 forward I I I I #
edge $-1 $326 -100 $350 100 $324 $441 forward 7 unknown #
point $-1 19.44543648263008961 -15.90990257669727725 100 #
straight-curve $-1 15.90990257669735897 -19.44543648263002211 0 0 0 1 I I #
edge $-1 $347 -100 $333 100 $330 $442 forward 7 unknown #
face $-1 $336 $332 $2 $-1 $443 reversed single #
point $-1 -19.44543648262995816 -15.90990257669742292 100 #
straight-curve $-1 -15.90990257669721331 -19.44543648263015356 0 0 0 -1 I I #
cone-surface $-1 -12.37436867076449865 -15.90990257669739449 0 0 0 -1 2.486899575160350651e-14 -5.000000000000003553 0 1 I I 0 1 5.000000000000003553 forward I I I I #
coedge $-1 $363 $338 $340 $413 forward $410 $-1 #
coedge $-1 $338 $363 $429 $444 forward $410 $-1 #
loop $-1 $-1 $409 $358 #
vertex $-1 $339 $445 #
ellipse-curve $-1 -12.37436867076461411 15.90990257669729324 100 0 -0 -1 -1.065814103640150279e-14 5.000000000000003553 0 1 I I #
edge $-1 $341 -100 $365 100 $340 $446 forward 7 unknown #
point $-1 -8.838834764831883462 19.44543648263003632 100 #
ellipse-curve $-1 12.37436867076449865 15.90990257669739449 100 0 -0 -1 -2.486899575160350651e-14 5.000000000000003553 0 1 I I #
face $-1 $321 $390 $2 $-1 $447 reversed single #
cone-surface $-1 12.37436867076449865 15.90990257669739449 0 0 0 -1 -2.486899575160350651e-14 5.000000000000003553 0 1 I I 0 1 5.000000000000003553 forward I I I I #
point $-1 -19.44543648262995816 -15.90990257669742292 -100 #
point $-1 19.44543648263008961 -15.90990257669727725 -100 #
edge $-1 $391 -100 $355 100 $389 $448 forward 7 unknown #
point $-1 15.90990257669721331 19.44543648263015356 -100 #
cone-surface $-1 -12.37436867076461411 15.90990257669729324 0 0 0 -1 -1.065814103640150279e-14 5.000000000000003553 0 1 I I 0 1 5.000000000000003553 forward I I I I #
face $-1 $404 $374 $2 $-1 $449 forward single #
vertex $-1 $369 $450 #
ellipse-curve $-1 -12.37436867076461411 15.90990257669729324 -100 0 0 1 -1.065814103640150279e-14 5.000000000000003553 0 1 I I #
point $-1 -8.838834764831883462 19.44543648263003632 -100 #
straight-curve $-1 -19.44543648262999014 -8.8388347648319332 0 0 0 -1 I I #
coedge $-1 $379 $368 $370 $432 reversed $430 $-1 #
coedge $-1 $368 $379 $409 $444 reversed $430 $-1 #
loop $-1 $-1 $428 $436 #
straight-curve $-1 -17.67766952966372429 17.67766952966364968 -100 0.7071067811865460184 0.707106781186549016 0 I I #
edge $-1 $381 -100 $371 100 $428 $451 forward 7 unknown #
point $-1 -19.44543648263008961 15.90990257669727725 -100 #
straight-curve $-1 -17.67766952966372429 17.67766952966364968 100 -0.7071067811865460184 -0.707106781186549016 0 I I #
point $-1 -19.44543648263008961 15.90990257669727725 100 #
face $-1 $273 $430 $2 $-1 $452 reversed single #
cone-surface $-1 -15.90990257669734476 12.37436867076454838 0 0 0 -1 -5.000000000000003553 -1.065814103640150279e-14 0 1 I I 0 1 5.000000000000003553 forward I I I I #
straight-curve $-1 19.4454364826300754 -8.838834764831803525 0 0 0 1 I I #
point $-1 15.90990257669721331 19.44543648263015356 100 #
straight-curve $-1 19.44543648262995816 15.90990257669742292 0 0 0 1 I I #
straight-curve $-1 19.44543648263008961 -15.90990257669727725 0 0 0 -1 I I #
straight-curve $-1 -19.44543648262995816 -15.90990257669742292 0 0 0 1 I I #
plane-surface $-1 -17.67766952966358929 -17.67766952966378469 0 0.7071067811865435759 0.7071067811865514585 0 -0 0 -1 forward_v I I I I #
edge $-1 $424 -100 $411 100 $429 $453 forward 7 unknown #
point $-1 -15.90990257669735897 19.44543648263002211 100 #
straight-curve $-1 -8.838834764831883462 19.44543648263003632 0 0 0 -1 I I #
plane-surface $-1 17.67766952966358929 17.67766952966378469 0 -0.7071067811865435759 -0.7071067811865514585 0 0 0 1 forward_v I I I I #
straight-curve $-1 15.90990257669721331 19.44543648263015356 0 0 0 -1 I I #
cone-surface $-1 -15.9099025766972435 -12.37436867076466385 0 0 0 -1 -5.000000000000003553 -2.486899575160350651e-14 0 1 I I 0 1 5.000000000000003553 forward I I I I #
point $-1 -15.90990257669735897 19.44543648263002211 -100 #
straight-curve $-1 -19.44543648263008961 15.90990257669727725 0 0 0 -1 I I #
plane-surface $-1 -17.67766952966372429 17.67766952966364968 0 0.707106781186549016 -0.7071067811865460184 0 0 0 -1 forward_v I I I I #
straight-curve $-1 -15.90990257669735897 19.44543648263002211 0 0 0 1 I I #
End-of-ACIS-data 