105 455 1 0                             
body $-1 $1 $-1 $2 #
lump $-1 $-1 $3 $0 #
transform $-1 0.707106781186546 0.707106781186549 0 -0.707106781186549 0.707106781186546 0 0 0 1 0 0 0 1 1 0 0 #
shell $-1 $-1 $-1 $4 $1 #
face $-1 $5 $6 $3 $-1 $7 forward single #
face $-1 $8 $9 $3 $-1 $7 forward single #
loop $-1 $-1 $10 $4 #
cone-surface $-1 0 0 0 0 0 1 14.1421356237309 -14.142135623731 0 1 0 1 0 #
face $-1 $11 $12 $3 $-1 $7 forward single #
loop $-1 $-1 $13 $5 #
coedge $-1 $14 $15 $16 $17 1 $6 $-1 #
face $-1 $18 $19 $3 $-1 $7 forward single #
loop $-1 $-1 $20 $8 #
coedge $-1 $21 $22 $23 $24 1 $9 $-1 #
coedge $-1 $25 $10 $26 $27 1 $6 $-1 #
coedge $-1 $10 $25 $28 $29 1 $6 $-1 #
coedge $-1 $30 $31 $10 $17 0 $32 $-1 #
edge $-1 $33 $34 $16 $35 0 #
face $-1 $36 $37 $3 $-1 $38 reversed single #
loop $-1 $-1 $39 $11 #
coedge $-1 $40 $41 $42 $43 1 $12 $-1 #
coedge $-1 $44 $13 $45 $46 1 $9 $-1 #
coedge $-1 $13 $47 $48 $49 1 $9 $-1 #
coedge $-1 $50 $51 $13 $24 0 $52 $-1 #
edge $-1 $53 $54 $23 $55 0 #
coedge $-1 $15 $14 $56 $57 1 $6 $-1 #
coedge $-1 $58 $59 $14 $27 0 $60 $-1 #
edge $-1 $61 $33 $26 $62 0 #
coedge $-1 $63 $64 $15 $29 0 $65 $-1 #
edge $-1 $34 $66 $28 $67 0 #
coedge $-1 $68 $16 $64 $69 1 $32 $-1 #
coedge $-1 $16 $68 $58 $70 1 $32 $-1 #
loop $-1 $-1 $16 $71 #
vertex $-1 $70 $72 #
vertex $-1 $69 $73 #
straight-curve $-1 -7.5 -18.5404962177392 0 -0 -0 -1 #
face $-1 $74 $75 $3 $-1 $76 reversed single #
loop $-1 $-1 $77 $18 #
plane-surface $-1 -2.58126853225349e-14 7.5 0 3.44169137633799e-15 -1 0 0 0 1 0 #
coedge $-1 $78 $79 $77 $80 1 $19 $-1 #
coedge $-1 $81 $20 $82 $83 1 $12 $-1 #
coedge $-1 $20 $81 $84 $85 1 $12 $-1 #
coedge $-1 $86 $87 $20 $43 0 $75 $-1 #
edge $-1 $88 $89 $42 $90 0 #
coedge $-1 $91 $21 $92 $93 1 $9 $-1 #
coedge $-1 $94 $92 $21 $46 0 $60 $-1 #
edge $-1 $95 $53 $45 $62 0 #
coedge $-1 $22 $91 $96 $97 1 $9 $-1 #
coedge $-1 $96 $98 $22 $49 0 $65 $-1 #
edge $-1 $54 $99 $48 $67 0 #
coedge $-1 $100 $23 $98 $101 1 $52 $-1 #
coedge $-1 $23 $100 $94 $102 1 $52 $-1 #
loop $-1 $-1 $23 $103 #
vertex $-1 $102 $104 #
vertex $-1 $101 $105 #
straight-curve $-1 18.5404962177392 -7.49999999999994 0 -0 -0 -1 #
coedge $-1 $106 $107 $25 $57 0 $108 $-1 #
edge $-1 $66 $61 $56 $109 0 #
coedge $-1 $110 $26 $31 $70 0 $60 $-1 #
coedge $-1 $26 $111 $106 $112 0 $60 $-1 #
loop $-1 $-1 $113 $114 #
vertex $-1 $112 $115 #
ellipse-curve $-1 0 0 100 0 0 1 14.1421356237309 -14.142135623731 0 1 #
coedge $-1 $116 $28 $107 $117 0 $65 $-1 #
coedge $-1 $28 $118 $30 $69 0 $65 $-1 #
loop $-1 $-1 $119 $120 #
vertex $-1 $117 $121 #
ellipse-curve $-1 0 0 -100 0 0 -1 14.1421356237309 -14.142135623731 0 1 #
coedge $-1 $31 $30 $122 $123 1 $32 $-1 #
edge $-1 $124 $34 $30 $125 0 #
edge $-1 $33 $126 $31 $127 0 #
face $-1 $-1 $32 $3 $-1 $76 reversed single #
point $-1 -7.5 -18.5404962177392 100 #
point $-1 -7.5 -18.5404962177392 -100 #
face $-1 $120 $128 $3 $-1 $129 reversed single #
loop $-1 $-1 $42 $36 #
plane-surface $-1 -7.5 0 0 1 0 0 0 0 -1 0 #
coedge $-1 $130 $131 $39 $80 0 $37 $-1 #
coedge $-1 $132 $39 $133 $134 1 $19 $-1 #
coedge $-1 $39 $132 $113 $135 1 $19 $-1 #
edge $-1 $136 $137 $77 $138 0 #
coedge $-1 $41 $40 $139 $140 1 $12 $-1 #
coedge $-1 $141 $142 $40 $83 0 $65 $-1 #
edge $-1 $143 $88 $82 $67 0 #
coedge $-1 $144 $145 $41 $85 0 $60 $-1 #
edge $-1 $89 $146 $84 $62 0 #
coedge $-1 $147 $42 $145 $148 1 $75 $-1 #
coedge $-1 $42 $147 $141 $149 1 $75 $-1 #
vertex $-1 $149 $150 #
vertex $-1 $148 $151 #
straight-curve $-1 -7.5 18.5404962177392 0 0 0 1 #
coedge $-1 $47 $44 $152 $153 1 $9 $-1 #
coedge $-1 $45 $154 $44 $93 0 $60 $-1 #
edge $-1 $155 $95 $92 $62 0 #
coedge $-1 $156 $45 $51 $102 0 $60 $-1 #
vertex $-1 $93 $157 #
coedge $-1 $158 $48 $47 $97 0 $65 $-1 #
edge $-1 $99 $159 $96 $67 0 #
coedge $-1 $48 $160 $50 $101 0 $65 $-1 #
vertex $-1 $49 $161 #
coedge $-1 $51 $50 $162 $163 1 $52 $-1 #
edge $-1 $164 $54 $50 $165 0 #
edge $-1 $53 $166 $51 $167 0 #
face $-1 $71 $52 $3 $-1 $168 reversed single #
point $-1 18.5404962177392 -7.49999999999994 100 #
point $-1 18.5404962177392 -7.49999999999994 -100 #
coedge $-1 $169 $56 $59 $112 1 $108 $-1 #
coedge $-1 $56 $169 $63 $117 1 $108 $-1 #
loop $-1 $-1 $56 $170 #
straight-curve $-1 -18.5404962177391 -7.50000000000007 0 0 0 1 #
coedge $-1 $171 $58 $172 $173 1 $60 $-1 #
coedge $-1 $59 $174 $175 $176 1 $60 $-1 #
edge $-1 $177 $61 $106 $167 0 #
coedge $-1 $178 $179 $79 $135 0 $60 $-1 #
face $-1 $180 $60 $3 $-1 $181 forward single #
point $-1 -18.5404962177391 -7.50000000000007 100 #
coedge $-1 $182 $63 $183 $184 1 $65 $-1 #
edge $-1 $66 $185 $107 $165 0 #
coedge $-1 $64 $186 $187 $188 1 $65 $-1 #
coedge $-1 $189 $133 $131 $190 0 $65 $-1 #
face $-1 $170 $65 $3 $-1 $191 reversed single #
point $-1 -18.5404962177391 -7.50000000000007 -100 #
coedge $-1 $187 $172 $68 $123 0 $192 $-1 #
edge $-1 $126 $124 $68 $193 0 #
vertex $-1 $188 $194 #
straight-curve $-1 -7.5 0 -100 0 1 0 #
vertex $-1 $70 $195 #
straight-curve $-1 -7.5 0 100 0 -1 0 #
loop $-1 $-1 $152 $74 #
plane-surface $-1 7.5 0 0 -1 0 0 0 -0 1 0 #
coedge $-1 $196 $77 $179 $197 1 $37 $-1 #
coedge $-1 $77 $196 $119 $190 1 $37 $-1 #
coedge $-1 $79 $78 $198 $199 1 $19 $-1 #
coedge $-1 $119 $200 $78 $134 0 $65 $-1 #
edge $-1 $201 $136 $133 $67 0 #
edge $-1 $137 $202 $113 $62 0 #
vertex $-1 $190 $203 #
vertex $-1 $197 $204 #
straight-curve $-1 18.5404962177391 7.50000000000007 0 0 0 1 #
coedge $-1 $205 $206 $81 $140 0 $207 $-1 #
edge $-1 $146 $143 $139 $208 0 #
coedge $-1 $209 $82 $87 $149 0 $65 $-1 #
coedge $-1 $82 $210 $205 $211 0 $65 $-1 #
vertex $-1 $211 $212 #
coedge $-1 $213 $84 $206 $214 0 $60 $-1 #
coedge $-1 $84 $215 $86 $148 0 $60 $-1 #
vertex $-1 $214 $216 #
coedge $-1 $87 $86 $217 $218 1 $75 $-1 #
edge $-1 $219 $89 $86 $127 0 #
edge $-1 $88 $220 $87 $125 0 #
point $-1 -7.5 18.5404962177392 -100 #
point $-1 -7.5 18.5404962177392 100 #
coedge $-1 $221 $222 $91 $153 0 $128 $-1 #
edge $-1 $159 $155 $152 $223 0 #
coedge $-1 $92 $224 $221 $225 0 $60 $-1 #
vertex $-1 $225 $226 #
coedge $-1 $227 $94 $228 $229 1 $60 $-1 #
point $-1 14.1421356237309 -14.142135623731 100 #
coedge $-1 $230 $96 $222 $231 0 $65 $-1 #
vertex $-1 $231 $232 #
coedge $-1 $98 $233 $234 $235 1 $65 $-1 #
point $-1 14.1421356237309 -14.142135623731 -100 #
coedge $-1 $234 $228 $100 $163 0 $236 $-1 #
edge $-1 $166 $164 $100 $237 0 #
vertex $-1 $235 $238 #
straight-curve $-1 2.58126853225349e-14 -7.5 -100 -1 -3.44169137633799e-15 0 #
vertex $-1 $102 $239 #
straight-curve $-1 2.58126853225349e-14 -7.5 100 1 3.44169137633799e-15 0 #
plane-surface $-1 2.58126853225349e-14 -7.5 0 -3.44169137633799e-15 1 0 -0 0 -1 0 #
coedge $-1 $107 $106 $240 $241 1 $108 $-1 #
face $-1 $114 $108 $3 $-1 $168 reversed single #
coedge $-1 $224 $110 $242 $243 0 $60 $-1 #
coedge $-1 $122 $244 $110 $173 0 $192 $-1 #
edge $-1 $245 $126 $110 $246 0 #
coedge $-1 $111 $213 $247 $248 0 $60 $-1 #
coedge $-1 $249 $240 $111 $176 0 $250 $-1 #
edge $-1 $177 $251 $111 $252 0 #
vertex $-1 $176 $253 #
coedge $-1 $254 $113 $255 $256 0 $60 $-1 #
coedge $-1 $113 $257 $130 $197 0 $60 $-1 #
face $-1 $258 $259 $3 $-1 $260 forward single #
plane-surface $-1 0 0 100 0 0 1 1 0 0 0 #
coedge $-1 $210 $116 $261 $262 0 $65 $-1 #
coedge $-1 $240 $249 $116 $184 0 $250 $-1 #
edge $-1 $263 $185 $116 $264 0 #
vertex $-1 $117 $265 #
coedge $-1 $118 $230 $266 $267 0 $65 $-1 #
coedge $-1 $244 $122 $118 $188 0 $192 $-1 #
edge $-1 $124 $268 $118 $269 0 #
coedge $-1 $233 $119 $270 $271 1 $65 $-1 #
edge $-1 $136 $272 $131 $273 0 #
plane-surface $-1 0 0 -100 0 0 1 1 0 0 0 #
loop $-1 $-1 $244 $274 #
straight-curve $-1 -7.5 -20 0 0 0 -1 #
point $-1 -7.5 -20 -100 #
point $-1 -7.5 -20 100 #
coedge $-1 $131 $130 $275 $276 1 $37 $-1 #
edge $-1 $277 $137 $130 $278 0 #
coedge $-1 $279 $255 $132 $199 0 $280 $-1 #
edge $-1 $202 $201 $198 $281 0 #
coedge $-1 $133 $282 $279 $283 0 $65 $-1 #
vertex $-1 $283 $284 #
vertex $-1 $256 $285 #
point $-1 18.5404962177391 7.50000000000007 -100 #
point $-1 18.5404962177391 7.50000000000007 100 #
coedge $-1 $286 $139 $142 $211 1 $207 $-1 #
coedge $-1 $139 $286 $144 $214 1 $207 $-1 #
loop $-1 $-1 $139 $287 #
straight-curve $-1 -18.5404962177392 7.49999999999994 0 -0 -0 -1 #
coedge $-1 $288 $141 $289 $290 1 $65 $-1 #
coedge $-1 $142 $182 $291 $292 1 $65 $-1 #
edge $-1 $293 $143 $205 $273 0 #
point $-1 -18.5404962177392 7.49999999999994 -100 #
coedge $-1 $174 $144 $294 $295 1 $60 $-1 #
edge $-1 $146 $296 $206 $278 0 #
coedge $-1 $145 $297 $298 $299 1 $60 $-1 #
point $-1 -18.5404962177392 7.49999999999994 100 #
coedge $-1 $298 $289 $147 $218 0 $300 $-1 #
edge $-1 $220 $219 $147 $301 0 #
vertex $-1 $299 $302 #
vertex $-1 $149 $303 #
coedge $-1 $304 $152 $154 $225 1 $128 $-1 #
coedge $-1 $152 $304 $158 $231 1 $128 $-1 #
straight-curve $-1 7.5 -18.5404962177392 0 0 0 1 #
coedge $-1 $154 $171 $305 $306 1 $60 $-1 #
edge $-1 $307 $155 $221 $308 0 #
point $-1 7.5 -18.5404962177392 100 #
coedge $-1 $257 $156 $309 $310 0 $60 $-1 #
coedge $-1 $162 $311 $156 $229 0 $236 $-1 #
edge $-1 $312 $166 $156 $313 0 #
coedge $-1 $186 $158 $314 $315 1 $65 $-1 #
edge $-1 $159 $316 $222 $317 0 #
point $-1 7.5 -18.5404962177392 -100 #
coedge $-1 $160 $189 $318 $319 0 $65 $-1 #
coedge $-1 $311 $162 $160 $235 0 $236 $-1 #
edge $-1 $164 $320 $160 $321 0 #
loop $-1 $-1 $311 $322 #
straight-curve $-1 20 -7.49999999999993 0 0 0 -1 #
point $-1 20 -7.49999999999993 -100 #
point $-1 20 -7.49999999999993 100 #
coedge $-1 $175 $183 $169 $241 0 $250 $-1 #
edge $-1 $185 $177 $169 $323 0 #
coedge $-1 $324 $325 $171 $243 1 $326 $-1 #
edge $-1 $245 $327 $242 $328 0 #
coedge $-1 $172 $187 $324 $329 0 $192 $-1 #
vertex $-1 $329 $330 #
ellipse-curve $-1 -2.5 -20 100 -0 -0 -1 -3.53553390593274 -3.53553390593274 0 1 #
coedge $-1 $331 $332 $174 $248 1 $333 $-1 #
edge $-1 $334 $251 $247 $335 0 #
coedge $-1 $183 $175 $332 $336 0 $250 $-1 #
loop $-1 $-1 $240 $337 #
vertex $-1 $248 $338 #
ellipse-curve $-1 -20 -2.50000000000007 100 -0 -0 -1 -3.53553390593273 -3.53553390593275 0 1 #
point $-1 -20 -7.50000000000007 100 #
coedge $-1 $297 $178 $339 $340 1 $60 $-1 #
coedge $-1 $198 $341 $178 $256 1 $280 $-1 #
edge $-1 $202 $342 $255 $308 0 #
coedge $-1 $179 $227 $343 $344 1 $60 $-1 #
face $-1 $345 $326 $3 $-1 $346 reversed single #
loop $-1 $-1 $347 $180 #
cone-surface $-1 2.5 -20 0 0 0 -1 3.53553390593274 -3.53553390593274 0 1 0 1 0 #
coedge $-1 $332 $331 $182 $262 1 $333 $-1 #
edge $-1 $263 $348 $261 $349 0 #
vertex $-1 $336 $350 #
ellipse-curve $-1 -20 -2.50000000000007 -100 0 0 1 -3.53553390593273 -3.53553390593275 0 1 #
point $-1 -20 -7.50000000000007 -100 #
coedge $-1 $325 $324 $186 $267 1 $326 $-1 #
edge $-1 $351 $268 $266 $352 0 #
vertex $-1 $267 $353 #
ellipse-curve $-1 -2.5 -20 -100 0 0 1 -3.53553390593274 -3.53553390593274 0 1 #
coedge $-1 $275 $354 $189 $271 0 $355 $-1 #
edge $-1 $356 $272 $189 $357 0 #
vertex $-1 $190 $358 #
straight-curve $-1 -2.58126853225349e-14 7.5 -100 1 3.44169137633799e-15 0 #
face $-1 $359 $192 $3 $-1 $360 forward single #
coedge $-1 $343 $270 $196 $276 0 $355 $-1 #
edge $-1 $272 $277 $196 $361 0 #
vertex $-1 $344 $362 #
straight-curve $-1 -2.58126853225349e-14 7.5 100 -1 -3.44169137633799e-15 0 #
coedge $-1 $341 $198 $200 $283 1 $280 $-1 #
loop $-1 $-1 $198 $363 #
straight-curve $-1 7.5 18.5404962177392 0 -0 -0 -1 #
coedge $-1 $200 $288 $364 $365 1 $65 $-1 #
edge $-1 $366 $201 $279 $317 0 #
point $-1 7.5 18.5404962177392 -100 #
point $-1 7.5 18.5404962177392 100 #
coedge $-1 $206 $205 $367 $368 1 $207 $-1 #
face $-1 $103 $207 $3 $-1 $38 reversed single #
coedge $-1 $282 $209 $369 $370 0 $65 $-1 #
coedge $-1 $217 $371 $209 $290 0 $300 $-1 #
edge $-1 $372 $220 $209 $373 0 #
coedge $-1 $374 $367 $210 $292 0 $375 $-1 #
edge $-1 $293 $348 $210 $376 0 #
vertex $-1 $292 $377 #
coedge $-1 $367 $374 $213 $295 0 $375 $-1 #
edge $-1 $334 $296 $213 $378 0 #
vertex $-1 $214 $379 #
coedge $-1 $215 $254 $380 $381 0 $60 $-1 #
coedge $-1 $371 $217 $215 $299 0 $300 $-1 #
edge $-1 $219 $382 $215 $383 0 #
loop $-1 $-1 $217 $384 #
straight-curve $-1 -7.5 20 0 0 0 1 #
point $-1 -7.5 20 100 #
point $-1 -7.5 20 -100 #
coedge $-1 $222 $221 $347 $385 1 $128 $-1 #
coedge $-1 $386 $347 $224 $306 0 $259 $-1 #
edge $-1 $307 $327 $224 $387 0 #
vertex $-1 $306 $388 #
straight-curve $-1 7.5 0 100 0 1 0 #
coedge $-1 $389 $390 $227 $310 1 $391 $-1 #
edge $-1 $312 $392 $309 $393 0 #
coedge $-1 $228 $234 $389 $394 0 $236 $-1 #
vertex $-1 $394 $395 #
ellipse-curve $-1 20 -2.49999999999993 100 -0 -0 -1 3.53553390593275 -3.53553390593273 0 1 #
coedge $-1 $347 $386 $230 $315 0 $259 $-1 #
edge $-1 $351 $316 $230 $396 0 #
vertex $-1 $231 $397 #
straight-curve $-1 7.5 0 -100 0 -1 0 #
coedge $-1 $390 $389 $233 $319 1 $391 $-1 #
edge $-1 $356 $320 $318 $398 0 #
vertex $-1 $319 $399 #
ellipse-curve $-1 20 -2.49999999999993 -100 0 0 1 3.53553390593275 -3.53553390593273 0 1 #
face $-1 $384 $236 $3 $-1 $400 forward single #
straight-curve $-1 -20 -7.50000000000007 0 0 0 1 #
coedge $-1 $266 $242 $244 $329 1 $326 $-1 #
coedge $-1 $242 $266 $386 $401 1 $326 $-1 #
loop $-1 $-1 $325 $258 #
vertex $-1 $243 $402 #
straight-curve $-1 0 -25 100 1 0 0 #
edge $-1 $268 $245 $324 $403 0 #
point $-1 -2.5 -25 100 #
coedge $-1 $261 $247 $374 $404 1 $333 $-1 #
coedge $-1 $247 $261 $249 $336 1 $333 $-1 #
loop $-1 $-1 $331 $405 #
vertex $-1 $404 $406 #
straight-curve $-1 -25 -8.60422844084496e-14 100 3.44169137633799e-15 -1 0 #
edge $-1 $251 $263 $332 $407 0 #
face $-1 $287 $250 $3 $-1 $408 forward single #
point $-1 -25 -2.50000000000009 100 #
coedge $-1 $409 $410 $254 $340 0 $411 $-1 #
edge $-1 $412 $342 $254 $413 0 #
coedge $-1 $255 $279 $409 $414 1 $280 $-1 #
vertex $-1 $256 $415 #
coedge $-1 $354 $275 $257 $344 0 $355 $-1 #
edge $-1 $277 $392 $257 $416 0 #
face $-1 $417 $355 $3 $-1 $418 forward single #
plane-surface $-1 0 -25 0 0 1 -0 -0 0 1 0 #
coedge $-1 $305 $314 $304 $385 0 $259 $-1 #
vertex $-1 $262 $419 #
straight-curve $-1 -25 -8.60422844084496e-14 -100 -3.44169137633799e-15 1 0 #
point $-1 -25 -2.50000000000009 -100 #
vertex $-1 $401 $420 #
straight-curve $-1 0 -25 -100 -1 0 0 #
point $-1 -2.5 -25 -100 #
coedge $-1 $270 $343 $390 $421 0 $355 $-1 #
loop $-1 $-1 $275 $345 #
vertex $-1 $421 $422 #
ellipse-curve $-1 20 2.50000000000007 -100 0 0 1 3.53553390593273 3.53553390593275 0 1 #
point $-1 20 7.50000000000007 -100 #
face $-1 $363 $411 $3 $-1 $423 forward single #
cone-surface $-1 -2.5 -20 0 -0 -0 -1 -3.53553390593274 -3.53553390593274 0 1 0 1 0 #
straight-curve $-1 20 7.50000000000007 0 0 0 1 #
point $-1 20 7.50000000000007 100 #
face $-1 $424 $280 $3 $-1 $129 reversed single #
coedge $-1 $410 $409 $282 $365 0 $411 $-1 #
edge $-1 $366 $425 $282 $426 0 #
vertex $-1 $414 $427 #
coedge $-1 $291 $294 $286 $368 0 $375 $-1 #
edge $-1 $296 $293 $286 $428 0 #
coedge $-1 $429 $430 $288 $370 1 $431 $-1 #
edge $-1 $372 $425 $369 $432 0 #
coedge $-1 $289 $298 $429 $433 0 $300 $-1 #
vertex $-1 $433 $434 #
ellipse-curve $-1 -2.5 20 -100 0 0 1 -3.53553390593274 3.53553390593274 0 1 #
coedge $-1 $294 $291 $331 $404 0 $375 $-1 #
loop $-1 $-1 $374 $424 #
ellipse-curve $-1 -20 2.49999999999993 -100 0 0 1 -3.53553390593275 3.53553390593273 0 1 #
point $-1 -20 7.49999999999993 -100 #
ellipse-curve $-1 -20 2.49999999999993 100 -0 -0 -1 -3.53553390593275 3.53553390593273 0 1 #
point $-1 -20 7.49999999999993 100 #
coedge $-1 $430 $429 $297 $381 1 $431 $-1 #
edge $-1 $412 $382 $380 $435 0 #
vertex $-1 $381 $436 #
ellipse-curve $-1 -2.5 20 100 -0 -0 -1 -3.53553390593274 3.53553390593274 0 1 #
face $-1 $437 $300 $3 $-1 $438 forward single #
edge $-1 $316 $307 $304 $439 0 #
coedge $-1 $314 $305 $325 $401 0 $259 $-1 #
ellipse-curve $-1 2.5 -20 100 -0 -0 -1 3.53553390593274 -3.53553390593274 0 1 #
point $-1 7.5 -20 100 #
coedge $-1 $318 $309 $311 $394 1 $391 $-1 #
coedge $-1 $309 $318 $354 $421 1 $391 $-1 #
loop $-1 $-1 $390 $417 #
vertex $-1 $310 $440 #
straight-curve $-1 25 8.60422844084496e-14 100 -3.44169137633799e-15 1 0 #
edge $-1 $320 $312 $389 $441 0 #
point $-1 25 -2.49999999999991 100 #
ellipse-curve $-1 2.5 -20 -100 0 0 1 3.53553390593274 -3.53553390593274 0 1 #
point $-1 7.5 -20 -100 #
straight-curve $-1 25 8.60422844084496e-14 -100 3.44169137633799e-15 -1 0 #
point $-1 25 -2.49999999999991 -100 #
cone-surface $-1 20 -2.49999999999993 0 0 0 -1 3.53553390593275 -3.53553390593273 0 1 0 1 0 #
edge $-1 $327 $351 $325 $442 0 #
point $-1 2.5 -25 100 #
straight-curve $-1 -2.5 -25 0 0 0 1 #
edge $-1 $348 $334 $331 $443 0 #
face $-1 $337 $333 $3 $-1 $444 reversed single #
point $-1 -25 2.49999999999991 100 #
straight-curve $-1 -25 -2.50000000000009 0 0 0 -1 #
cone-surface $-1 -20 -2.50000000000007 0 0 0 -1 -3.53553390593273 -3.53553390593275 0 1 0 1 0 #
coedge $-1 $364 $339 $341 $414 0 $411 $-1 #
coedge $-1 $339 $364 $430 $445 0 $411 $-1 #
loop $-1 $-1 $410 $359 #
vertex $-1 $340 $446 #
ellipse-curve $-1 2.5 20 100 -0 -0 -1 3.53553390593274 3.53553390593274 0 1 #
edge $-1 $342 $366 $341 $447 0 #
point $-1 7.5 20 100 #
ellipse-curve $-1 20 2.50000000000007 100 -0 -0 -1 3.53553390593273 3.53553390593275 0 1 #
face $-1 $322 $391 $3 $-1 $448 reversed single #
cone-surface $-1 20 2.50000000000007 0 0 0 -1 3.53553390593273 3.53553390593275 0 1 0 1 0 #
point $-1 -25 2.49999999999991 -100 #
point $-1 2.5 -25 -100 #
edge $-1 $392 $356 $390 $449 0 #
point $-1 25 2.50000000000009 -100 #
cone-surface $-1 2.5 20 0 0 0 -1 3.53553390593274 3.53553390593274 0 1 0 1 0 #
face $-1 $405 $375 $3 $-1 $450 forward single #
vertex $-1 $370 $451 #
ellipse-curve $-1 2.5 20 -100 0 0 1 3.53553390593274 3.53553390593274 0 1 #
point $-1 7.5 20 -100 #
straight-curve $-1 -20 7.49999999999993 0 0 0 -1 #
coedge $-1 $380 $369 $371 $433 1 $431 $-1 #
coedge $-1 $369 $380 $410 $445 1 $431 $-1 #
loop $-1 $-1 $429 $437 #
straight-curve $-1 0 25 -100 1 0 0 #
edge $-1 $382 $372 $429 $452 0 #
point $-1 -2.5 25 -100 #
straight-curve $-1 0 25 100 -1 0 0 #
point $-1 -2.5 25 100 #
face $-1 $274 $431 $3 $-1 $453 reversed single #
cone-surface $-1 -2.5 20 0 0 0 -1 -3.53553390593274 3.53553390593274 0 1 0 1 0 #
straight-curve $-1 7.5 -20 0 0 0 1 #
point $-1 25 2.50000000000009 100 #
straight-curve $-1 25 -2.49999999999991 0 0 0 1 #
straight-curve $-1 2.5 -25 0 0 0 -1 #
straight-curve $-1 -25 2.49999999999991 0 0 0 1 #
plane-surface $-1 -25 -8.60422844084496e-14 0 1 3.44169137633799e-15 0 -0 0 -1 0 #
edge $-1 $425 $412 $430 $454 0 #
point $-1 2.5 25 100 #
straight-curve $-1 7.5 20 0 0 0 -1 #
plane-surface $-1 25 8.60422844084496e-14 0 -1 -3.44169137633799e-15 0 0 0 1 0 #
straight-curve $-1 25 2.50000000000009 0 0 0 -1 #
cone-surface $-1 -20 2.49999999999993 0 0 0 -1 -3.53553390593275 3.53553390593273 0 1 0 1 0 #
point $-1 2.5 25 -100 #
straight-curve $-1 -2.5 25 0 0 0 -1 #
plane-surface $-1 0 25 0 0 -1 0 0 0 -1 0 #
straight-curve $-1 2.5 25 0 0 0 1 #
