600 0 2 0           
24 FBMach with ACIS - 6.0.3 13 ACIS 6.0.3 NT 24 Tue May 22 12:24:19 2001 
1 9.9999999999999995e-007 1e-010 
body $2 $3 $-1 $4 #
bdycol-kcp $-1 1 4 $5 $6 $7 $8 #
model_id-kcp-attrib $-1 $-1 $-1 $0 1 990548657 70 776339457 1 #
lump $-1 $-1 $9 $0 #
transform $-1 0.70710678118654602 0.70710678118654902 0 -0.70710678118654902 0.70710678118654602 0 0 0 1 0 0 0 1 rotate no_reflect no_shear #
body $10 $11 $-1 $12 #
body $13 $14 $-1 $15 #
body $16 $17 $-1 $18 #
body $19 $20 $-1 $21 #
shell $-1 $-1 $-1 $22 $-1 $3 #
model_id-kcp-attrib $-1 $-1 $-1 $5 1 990548657 80 776994818 1 #
lump $-1 $-1 $23 $5 #
transform $-1 1 0 0 0 1 0 0 0 1 0 0 0 1 no_rotate no_reflect no_shear #
rgb_color-st-attrib $-1 $24 $-1 $6 0.5 1 1 #
lump $-1 $25 $26 $6 #
transform $-1 1 0 0 0 1 0 0 0 1 0 0 0 1 no_rotate no_reflect no_shear #
rgb_color-st-attrib $-1 $27 $-1 $7 0.5 0.5 1 #
lump $-1 $-1 $28 $7 #
transform $-1 1 0 0 0 1 0 0 0 1 0 0 0 1 no_rotate no_reflect no_shear #
rgb_color-st-attrib $-1 $29 $-1 $8 0.5 0.5 1 #
lump $-1 $-1 $30 $8 #
transform $-1 1 0 0 0 1 0 0 0 1 0 0 0 1 no_rotate no_reflect no_shear #
face $31 $32 $33 $9 $-1 $34 forward single #
shell $-1 $-1 $-1 $35 $-1 $11 #
model_id-kcp-attrib $-1 $-1 $13 $6 1 990548657 260 772014083 1 #
lump $-1 $-1 $36 $6 #
shell $-1 $-1 $-1 $37 $-1 $14 #
model_id-kcp-attrib $-1 $-1 $16 $7 1 990548657 320 775946244 1 #
shell $-1 $-1 $-1 $38 $-1 $17 #
model_id-kcp-attrib $-1 $-1 $19 $8 1 990548657 340 777256965 1 #
shell $-1 $-1 $-1 $39 $-1 $20 #
model_id-kcp-attrib $-1 $-1 $-1 $22 1 990548657 70 776339457 2 #
face $40 $41 $42 $9 $-1 $34 forward single #
loop $-1 $-1 $43 $22 #
cone-surface $-1 0 0 0 0 0 1 14.142135623730899 -14.142135623731001 0 1 I I 0 1 20 forward I I I I #
face $44 $45 $46 $23 $-1 $47 forward single #
shell $-1 $-1 $-1 $48 $-1 $25 #
face $-1 $49 $50 $26 $-1 $51 reversed single #
face $-1 $52 $53 $28 $-1 $54 reversed single #
face $-1 $55 $56 $30 $-1 $57 reversed single #
model_id-kcp-attrib $-1 $-1 $-1 $32 1 990548657 70 776339457 3 #
face $58 $59 $60 $9 $-1 $34 forward single #
loop $-1 $-1 $61 $32 #
coedge $-1 $62 $63 $64 $65 reversed $33 $-1 #
model_id-kcp-attrib $-1 $-1 $-1 $35 1 990548657 80 776994818 3 #
face $66 $67 $68 $23 $-1 $69 reversed single #
loop $-1 $-1 $70 $35 #
plane-surface $-1 0 0 100 0 0 1 1 0 0 forward_v I I I I #
face $-1 $71 $72 $36 $-1 $73 reversed single #
face $-1 $74 $75 $26 $-1 $76 reversed single #
loop $-1 $-1 $77 $37 #
plane-surface $-1 35.355339059327378 7.815970093361102e-014 100 0.70710678118654602 0.70710678118654902 0 -0.70710678118654902 0.70710678118654602 0 forward_v I I I I #
face $-1 $78 $79 $28 $-1 $80 forward single #
loop $-1 $-1 $81 $38 #
plane-surface $-1 17.677669529663717 -17.677669529663632 0 0.70710678118654902 -0.70710678118654602 0 0.70710678118654602 0.70710678118654902 0 forward_v I I I I #
face $-1 $82 $83 $30 $-1 $84 reversed single #
loop $-1 $-1 $85 $39 #
plane-surface $-1 -17.677669529663717 17.677669529663632 0 -0.70710678118654902 0.70710678118654602 0 -0.70710678118654602 -0.70710678118654902 0 forward_v I I I I #
model_id-kcp-attrib $-1 $-1 $-1 $41 1 990548657 70 776339457 4 #
face $86 $87 $88 $9 $-1 $34 forward single #
loop $-1 $-1 $89 $41 #
coedge $-1 $90 $91 $92 $93 reversed $42 $-1 #
coedge $-1 $94 $43 $95 $96 reversed $33 $-1 #
coedge $-1 $43 $94 $97 $98 reversed $33 $-1 #
coedge $-1 $99 $100 $43 $65 forward $101 $-1 #
edge $102 $103 -100 $104 100 $64 $105 forward 7 unknown #
model_id-kcp-attrib $-1 $-1 $-1 $45 1 990548657 80 776994818 2 #
face $-1 $106 $107 $23 $-1 $108 reversed single #
loop $-1 $-1 $109 $45 #
plane-surface $-1 0 0 -100 0 0 1 1 0 0 forward_v I I I I #
coedge $-1 $110 $111 $112 $113 forward $46 $-1 #
face $-1 $114 $115 $36 $-1 $116 forward single #
loop $-1 $-1 $117 $48 #
plane-surface $-1 -35.355339059327378 0 0 1 0 0 0 0 -1 forward_v I I I I #
face $-1 $118 $119 $26 $-1 $116 forward single #
loop $-1 $-1 $120 $49 #
plane-surface $-1 0 35.355339059327378 0 0 -1 0 0 0 -1 forward_v I I I I #
coedge $-1 $121 $122 $120 $123 reversed $50 $-1 #
face $-1 $124 $125 $28 $-1 $126 reversed single #
loop $-1 $-1 $127 $52 #
plane-surface $-1 0 0 100 0 0 1 1 0 0 forward_v I I I I #
coedge $-1 $128 $129 $130 $131 reversed $53 $-1 #
face $-1 $132 $133 $30 $-1 $134 reversed single #
loop $-1 $-1 $135 $55 #
plane-surface $-1 0 0 -100 0 0 1 1 0 0 forward_v I I I I #
coedge $-1 $136 $137 $138 $139 reversed $56 $-1 #
model_id-kcp-attrib $-1 $-1 $-1 $59 1 990548657 70 776339457 5 #
face $140 $141 $142 $9 $-1 $143 reversed single #
loop $-1 $-1 $144 $59 #
coedge $-1 $145 $146 $147 $148 reversed $60 $-1 #
coedge $-1 $149 $61 $150 $151 reversed $42 $-1 #
coedge $-1 $61 $152 $153 $154 reversed $42 $-1 #
coedge $-1 $155 $156 $61 $93 forward $157 $-1 #
edge $158 $159 -100 $160 100 $92 $161 forward 7 unknown #
coedge $-1 $63 $62 $162 $163 reversed $33 $-1 #
coedge $-1 $164 $165 $62 $96 forward $166 $-1 #
edge $-1 $167 -1.9717977156966979 $103 -1.169794937893083 $95 $168 forward 7 unknown #
coedge $-1 $169 $170 $63 $98 forward $171 $-1 #
edge $172 $104 1.169794937893083 $173 1.9717977156966979 $97 $174 forward 7 unknown #
coedge $-1 $175 $64 $170 $176 reversed $101 $-1 #
coedge $-1 $64 $175 $164 $177 reversed $101 $-1 #
loop $-1 $-1 $64 $178 #
attrib_edge_convexity-kcp-attrib $-1 $179 $-1 $65 2 #
vertex $-1 $177 $180 #
vertex $-1 $176 $181 #
straight-curve $-1 -7.5 -18.5404962177392 0 0 0 -1 I I #
face $-1 $182 $183 $23 $-1 $184 reversed single #
loop $-1 $-1 $185 $67 #
plane-surface $-1 0 -35.355339059327378 0 0 1 0 0 0 1 forward_v I I I I #
coedge $-1 $186 $187 $188 $189 forward $68 $-1 #
coedge $-1 $190 $70 $191 $192 forward $46 $-1 #
coedge $-1 $70 $190 $193 $194 forward $46 $-1 #
coedge $-1 $195 $196 $70 $113 reversed $197 $-1 #
edge $-1 $198 -35.355339059327378 $199 35.355339059327378 $112 $200 forward 7 unknown #
face $-1 $201 $202 $36 $-1 $203 reversed single #
loop $-1 $-1 $204 $71 #
plane-surface $-1 0 0 100 0 0 1 1 0 0 forward_v I I I I #
coedge $-1 $205 $206 $207 $208 forward $72 $-1 #
face $-1 $209 $210 $26 $-1 $211 reversed single #
loop $-1 $-1 $212 $74 #
coedge $-1 $213 $214 $77 $123 forward $75 $-1 #
coedge $-1 $215 $77 $216 $217 reversed $50 $-1 #
coedge $-1 $77 $215 $212 $218 reversed $50 $-1 #
edge $-1 $219 -150 $220 50 $120 $221 forward 7 unknown #
face $-1 $222 $223 $28 $-1 $224 reversed single #
loop $-1 $-1 $130 $78 #
plane-surface $-1 0 -35.355339059327378 0 0 1 0 0 0 1 forward_v I I I I #
coedge $-1 $225 $226 $128 $227 reversed $79 $-1 #
coedge $-1 $228 $81 $127 $227 forward $53 $-1 #
coedge $-1 $81 $228 $229 $230 forward $53 $-1 #
coedge $-1 $231 $232 $81 $131 forward $125 $-1 #
edge $233 $234 -150 $235 50 $130 $236 forward 7 unknown #
face $-1 $237 $238 $30 $-1 $239 forward single #
loop $-1 $-1 $240 $82 #
plane-surface $-1 0 35.355339059327378 0 0 -1 0 0 0 -1 forward_v I I I I #
coedge $-1 $241 $242 $136 $243 reversed $83 $-1 #
coedge $-1 $244 $85 $135 $243 forward $56 $-1 #
coedge $-1 $85 $244 $245 $246 forward $56 $-1 #
coedge $-1 $247 $248 $85 $139 forward $249 $-1 #
edge $250 $251 -50 $252 150 $138 $253 forward 7 unknown #
model_id-kcp-attrib $-1 $-1 $-1 $87 1 990548657 70 776339457 6 #
face $254 $255 $256 $9 $-1 $257 reversed single #
loop $-1 $-1 $258 $87 #
plane-surface $-1 -2.5812685322534899e-014 7.5 0 3.44169137633799e-015 -1 0 0 0 1 forward_v I I I I #
coedge $-1 $259 $260 $258 $261 reversed $88 $-1 #
coedge $-1 $262 $89 $263 $264 reversed $60 $-1 #
coedge $-1 $89 $262 $265 $266 reversed $60 $-1 #
coedge $-1 $267 $268 $89 $148 forward $256 $-1 #
edge $269 $270 -100 $271 100 $147 $272 forward 7 unknown #
coedge $-1 $273 $90 $274 $275 reversed $42 $-1 #
coedge $-1 $276 $274 $90 $151 forward $166 $-1 #
edge $-1 $277 0 $159 0.40100138890181647 $150 $168 forward 7 unknown #
coedge $-1 $91 $273 $278 $279 reversed $42 $-1 #
coedge $-1 $278 $280 $91 $154 forward $171 $-1 #
edge $281 $160 -0.40100138890181647 $282 0 $153 $174 forward 7 unknown #
coedge $-1 $283 $92 $280 $284 reversed $157 $-1 #
coedge $-1 $92 $283 $276 $285 reversed $157 $-1 #
loop $-1 $-1 $92 $286 #
attrib_edge_convexity-kcp-attrib $-1 $287 $-1 $93 2 #
vertex $-1 $285 $288 #
vertex $-1 $284 $289 #
straight-curve $-1 18.5404962177392 -7.4999999999999396 0 0 0 -1 I I #
coedge $-1 $290 $291 $94 $163 forward $292 $-1 #
edge $293 $173 -100 $167 100 $162 $294 forward 7 unknown #
coedge $-1 $295 $95 $100 $177 forward $166 $-1 #
coedge $-1 $95 $296 $290 $297 forward $166 $-1 #
loop $-1 $-1 $298 $299 #
vertex $-1 $297 $300 #
ellipse-curve $-1 0 0 100 0 0 1 14.142135623730899 -14.142135623731001 0 1 I I #
coedge $-1 $301 $97 $291 $302 forward $171 $-1 #
coedge $-1 $97 $303 $99 $176 forward $171 $-1 #
loop $-1 $-1 $304 $305 #
attrib_edge_convexity-kcp-attrib $-1 $306 $-1 $98 1 #
vertex $-1 $302 $307 #
ellipse-curve $-1 0 0 -100 0 0 -1 14.142135623730899 -14.142135623731001 0 1 I I #
coedge $-1 $100 $99 $308 $309 reversed $101 $-1 #
edge $310 $311 -20 $104 -18.5404962177392 $99 $312 forward 7 unknown #
edge $313 $103 18.5404962177392 $314 20 $100 $315 forward 7 unknown #
face $316 $-1 $101 $9 $-1 $257 reversed single #
convexity-sys-attrib $-1 $-1 $102 $65 #
point $-1 -7.5 -18.5404962177392 100 #
point $-1 -7.5 -18.5404962177392 -100 #
face $-1 $317 $318 $23 $-1 $319 reversed single #
loop $-1 $-1 $320 $106 #
plane-surface $-1 -35.355339059327378 0 0 1 0 0 0 0 -1 forward_v I I I I #
coedge $-1 $321 $193 $322 $323 forward $107 $-1 #
coedge $-1 $324 $109 $321 $325 forward $68 $-1 #
coedge $-1 $109 $324 $326 $327 forward $68 $-1 #
coedge $-1 $196 $195 $109 $189 reversed $197 $-1 #
edge $-1 $328 -35.355339059327378 $329 35.355339059327378 $188 $330 forward 7 unknown #
coedge $-1 $111 $110 $331 $332 forward $46 $-1 #
coedge $-1 $333 $334 $110 $192 reversed $318 $-1 #
edge $-1 $199 -35.355339059327378 $335 35.355339059327378 $191 $336 forward 7 unknown #
coedge $-1 $185 $337 $111 $194 reversed $107 $-1 #
edge $-1 $338 -35.355339059327378 $198 35.355339059327378 $193 $339 forward 7 unknown #
coedge $-1 $188 $112 $337 $340 forward $197 $-1 #
coedge $-1 $112 $188 $333 $341 reversed $197 $-1 #
loop $-1 $-1 $195 $317 #
vertex $-1 $113 $342 #
vertex $-1 $113 $343 #
straight-curve $-1 35.355339059327378 0 100 0 1 0 I I #
face $-1 $344 $345 $36 $-1 $211 reversed single #
loop $-1 $-1 $346 $114 #
plane-surface $-1 0 -35.355339059327378 0 0 1 0 0 0 1 forward_v I I I I #
coedge $-1 $347 $348 $349 $350 forward $115 $-1 #
coedge $-1 $351 $117 $352 $353 reversed $72 $-1 #
coedge $-1 $117 $351 $347 $354 reversed $72 $-1 #
coedge $-1 $349 $355 $117 $208 reversed $356 $-1 #
edge $-1 $357 -150 $358 50 $117 $359 forward 7 unknown #
face $-1 $-1 $360 $26 $-1 $361 reversed single #
loop $-1 $-1 $216 $118 #
plane-surface $-1 0 0 -100 0 0 1 1 0 0 forward_v I I I I #
coedge $-1 $362 $363 $122 $218 forward $119 $-1 #
coedge $-1 $364 $120 $363 $365 reversed $75 $-1 #
coedge $-1 $120 $364 $366 $367 reversed $75 $-1 #
coedge $-1 $122 $121 $368 $369 reversed $50 $-1 #
coedge $-1 $366 $370 $121 $217 forward $210 $-1 #
edge $-1 $371 -12.5 $219 37.5 $216 $372 forward 7 unknown #
edge $-1 $220 -37.5 $373 12.5 $212 $374 forward 7 unknown #
vertex $-1 $367 $375 #
vertex $-1 $123 $376 #
straight-curve $-1 -7.1054273576010019e-014 35.355339059327378 50 0 0 1 I I #
face $-1 $-1 $377 $28 $-1 $378 reversed single #
loop $-1 $-1 $229 $124 #
plane-surface $-1 0 0 -100 0 0 1 1 0 0 forward_v I I I I #
coedge $-1 $226 $127 $232 $379 forward $79 $-1 #
coedge $-1 $127 $225 $380 $381 forward $79 $-1 #
edge $382 $234 -25.000000000000007 $383 25 $127 $384 forward 7 unknown #
coedge $-1 $129 $128 $385 $386 reversed $53 $-1 #
coedge $-1 $387 $388 $129 $230 reversed $223 $-1 #
edge $389 $390 -25 $235 25.000000000000007 $229 $391 forward 7 unknown #
coedge $-1 $392 $130 $388 $393 reversed $125 $-1 #
coedge $-1 $130 $392 $225 $379 reversed $125 $-1 #
convexity-sys-attrib $-1 $-1 $-1 $131 #
vertex $-1 $379 $394 #
vertex $-1 $230 $395 #
straight-curve $-1 6.7501559897209505e-014 -35.355339059327378 -50 0 0 -1 I I #
face $-1 $-1 $249 $30 $-1 $396 reversed single #
loop $-1 $-1 $245 $132 #
plane-surface $-1 0 0 100 0 0 1 1 0 0 forward_v I I I I #
coedge $-1 $397 $398 $244 $399 forward $133 $-1 #
coedge $-1 $242 $135 $248 $400 forward $83 $-1 #
coedge $-1 $135 $241 $397 $401 forward $83 $-1 #
edge $402 $251 -25 $403 25.000000000000007 $135 $404 forward 7 unknown #
coedge $-1 $137 $136 $240 $399 reversed $56 $-1 #
coedge $-1 $405 $406 $137 $246 reversed $238 $-1 #
edge $407 $408 -25.000000000000007 $252 25 $245 $409 forward 7 unknown #
coedge $-1 $410 $138 $406 $411 reversed $249 $-1 #
coedge $-1 $138 $410 $241 $400 reversed $249 $-1 #
loop $-1 $-1 $138 $237 #
convexity-sys-attrib $-1 $-1 $-1 $139 #
vertex $-1 $400 $412 #
vertex $-1 $139 $413 #
straight-curve $-1 -35.355339059327378 -8.1712414612411521e-014 -50 0 0 1 I I #
model_id-kcp-attrib $-1 $-1 $-1 $141 1 990548657 70 776339457 7 #
face $414 $305 $415 $9 $-1 $416 reversed single #
loop $-1 $-1 $147 $141 #
plane-surface $-1 -7.5 0 0 1 0 0 0 0 -1 forward_v I I I I #
coedge $-1 $417 $418 $144 $261 forward $142 $-1 #
coedge $-1 $419 $144 $420 $421 reversed $88 $-1 #
coedge $-1 $144 $419 $298 $422 reversed $88 $-1 #
edge $423 $424 -100 $425 100 $258 $426 forward 7 unknown #
coedge $-1 $146 $145 $427 $428 reversed $60 $-1 #
coedge $-1 $429 $430 $145 $264 forward $171 $-1 #
edge $431 $432 2.7405912646879766 $270 3.5425940424915994 $263 $174 forward 7 unknown #
coedge $-1 $433 $434 $146 $266 forward $166 $-1 #
edge $435 $271 2.7405912646879869 $436 3.5425940424916096 $265 $168 forward 7 unknown #
coedge $-1 $437 $147 $434 $438 reversed $256 $-1 #
coedge $-1 $147 $437 $429 $439 reversed $256 $-1 #
attrib_edge_convexity-kcp-attrib $-1 $440 $-1 $148 2 #
vertex $-1 $439 $441 #
vertex $-1 $438 $442 #
straight-curve $-1 -7.5 18.5404962177392 0 0 0 1 I I #
coedge $-1 $152 $149 $443 $444 reversed $42 $-1 #
coedge $-1 $150 $445 $149 $275 forward $166 $-1 #
edge $-1 $446 -0.40100138890180648 $277 0 $274 $168 forward 7 unknown #
coedge $-1 $447 $150 $156 $285 forward $166 $-1 #
vertex $-1 $275 $448 #
coedge $-1 $449 $153 $152 $279 forward $171 $-1 #
edge $450 $282 0 $451 0.40100138890180648 $278 $174 forward 7 unknown #
coedge $-1 $153 $452 $155 $284 forward $171 $-1 #
attrib_edge_convexity-kcp-attrib $-1 $453 $-1 $154 1 #
vertex $-1 $154 $454 #
coedge $-1 $156 $155 $455 $456 reversed $157 $-1 #
edge $457 $458 -19.999999999999975 $160 -18.540496217739175 $155 $459 forward 7 unknown #
edge $460 $159 18.540496217739175 $461 19.999999999999975 $156 $462 forward 7 unknown #
face $463 $178 $157 $9 $-1 $464 reversed single #
convexity-sys-attrib $-1 $-1 $158 $93 #
point $-1 18.5404962177392 -7.4999999999999396 100 #
point $-1 18.5404962177392 -7.4999999999999396 -100 #
coedge $-1 $465 $162 $165 $297 reversed $292 $-1 #
coedge $-1 $162 $465 $169 $302 reversed $292 $-1 #
loop $-1 $-1 $162 $466 #
attrib_edge_convexity-kcp-attrib $-1 $467 $-1 $163 2 #
straight-curve $-1 -18.540496217739101 -7.5000000000000702 0 0 0 1 I I #
coedge $-1 $468 $164 $469 $470 reversed $166 $-1 #
coedge $-1 $165 $471 $472 $473 reversed $166 $-1 #
edge $474 $475 -20.000000000000025 $167 -18.540496217739125 $290 $462 forward 7 unknown #
coedge $-1 $476 $477 $260 $422 forward $166 $-1 #
face $478 $479 $166 $9 $-1 $480 forward single #
point $-1 -18.540496217739101 -7.5000000000000702 100 #
coedge $-1 $481 $169 $482 $483 reversed $171 $-1 #
edge $484 $173 18.540496217739125 $485 20.000000000000025 $291 $459 forward 7 unknown #
coedge $-1 $170 $486 $487 $488 reversed $171 $-1 #
coedge $-1 $489 $420 $418 $490 forward $171 $-1 #
face $491 $466 $171 $9 $-1 $492 reversed single #
convexity-sys-attrib $-1 $-1 $172 $98 #
point $-1 -18.540496217739101 -7.5000000000000702 -100 #
coedge $-1 $487 $469 $175 $309 forward $493 $-1 #
edge $494 $314 -100 $311 100 $175 $495 forward 7 unknown #
attrib_edge_convexity-kcp-attrib $-1 $496 $-1 $176 1 #
vertex $-1 $488 $497 #
straight-curve $-1 -7.5 0 -100 0 1 0 I I #
attrib_edge_convexity-kcp-attrib $-1 $498 $-1 $177 1 #
vertex $-1 $177 $499 #
straight-curve $-1 -7.5 0 100 0 -1 0 I I #
model_id-kcp-attrib $-1 $-1 $-1 $178 1 990548657 70 776339457 27 #
face $-1 $-1 $197 $23 $-1 $500 reversed single #
loop $-1 $-1 $333 $182 #
plane-surface $-1 0 35.355339059327378 0 0 -1 0 0 0 -1 forward_v I I I I #
coedge $-1 $501 $331 $334 $502 forward $183 $-1 #
coedge $-1 $337 $185 $186 $325 reversed $107 $-1 #
coedge $-1 $331 $501 $185 $323 reversed $183 $-1 #
edge $-1 $338 -100 $503 100 $322 $504 forward 7 unknown #
coedge $-1 $187 $186 $501 $505 forward $68 $-1 #
edge $-1 $329 -35.355339059327378 $503 35.355339059327378 $321 $506 forward 7 unknown #
coedge $-1 $334 $333 $187 $327 reversed $318 $-1 #
edge $-1 $507 -35.355339059327378 $328 35.355339059327378 $326 $508 forward 7 unknown #
vertex $-1 $189 $509 #
vertex $-1 $340 $510 #
straight-curve $-1 35.355339059327378 0 -100 0 -1 0 I I #
coedge $-1 $320 $322 $190 $332 reversed $183 $-1 #
edge $-1 $335 -35.355339059327378 $338 35.355339059327378 $331 $511 forward 7 unknown #
coedge $-1 $326 $191 $196 $341 forward $318 $-1 #
coedge $-1 $191 $326 $320 $502 reversed $318 $-1 #
vertex $-1 $192 $512 #
straight-curve $-1 0 35.355339059327378 100 -1 0 0 I I #
coedge $-1 $193 $321 $195 $340 reversed $107 $-1 #
vertex $-1 $332 $513 #
straight-curve $-1 0 -35.355339059327378 100 1 0 0 I I #
edge $-1 $198 -100 $329 100 $195 $514 forward 7 unknown #
edge $-1 $199 -100 $328 100 $196 $515 forward 7 unknown #
point $-1 35.355339059327378 -35.355339059327378 100 #
point $-1 35.355339059327378 35.355339059327378 100 #
face $-1 $-1 $356 $36 $-1 $516 reversed single #
loop $-1 $-1 $517 $201 #
coedge $-1 $518 $519 $520 $521 forward $202 $-1 #
coedge $-1 $348 $204 $206 $354 forward $115 $-1 #
coedge $-1 $204 $347 $518 $522 forward $115 $-1 #
coedge $-1 $520 $207 $204 $350 reversed $356 $-1 #
edge $-1 $523 -12.499999999999996 $357 37.5 $204 $524 forward 7 unknown #
coedge $-1 $206 $205 $525 $526 reversed $72 $-1 #
coedge $-1 $517 $527 $205 $353 forward $345 $-1 #
edge $-1 $528 -35.355339059327378 $358 -7.815970093361102e-014 $205 $529 forward 7 unknown #
edge $-1 $357 8.0388733884609112e-014 $530 35.355339059327378 $206 $531 forward 7 unknown #
coedge $-1 $207 $520 $517 $532 reversed $356 $-1 #
loop $-1 $-1 $207 $344 #
vertex $-1 $354 $533 #
vertex $-1 $208 $534 #
straight-curve $-1 -35.355339059327378 -8.1712414612411521e-014 -50 0 0 -1 I I #
loop $-1 $-1 $368 $209 #
plane-surface $-1 35.355339059327378 0 0 -1 0 0 0 0 1 forward_v I I I I #
coedge $-1 $363 $212 $535 $536 forward $119 $-1 #
coedge $-1 $212 $362 $213 $365 forward $119 $-1 #
coedge $-1 $214 $213 $537 $538 forward $75 $-1 #
edge $-1 $539 -35.355339059327378 $220 7.1054273576010019e-014 $213 $540 forward 7 unknown #
coedge $-1 $370 $216 $214 $367 forward $210 $-1 #
edge $-1 $219 -7.1054273576010019e-014 $541 35.355339059327378 $214 $542 forward 7 unknown #
coedge $-1 $543 $535 $215 $369 forward $360 $-1 #
edge $-1 $373 -50 $371 150 $368 $544 forward 7 unknown #
coedge $-1 $216 $366 $543 $545 forward $210 $-1 #
vertex $-1 $369 $546 #
straight-curve $-1 26.516504294495515 8.838834764831903 -100 -0.70710678118654902 0.70710678118654602 0 I I #
vertex $-1 $536 $547 #
straight-curve $-1 26.516504294495515 8.838834764831903 100 0.70710678118654902 -0.70710678118654602 0 I I #
point $-1 -7.1054273576010019e-014 35.355339059327378 -100 #
point $-1 -7.1054273576010019e-014 35.355339059327378 100 #
loop $-1 $-1 $385 $222 #
plane-surface $-1 35.355339059327378 0 0 -1 0 0 0 0 1 forward_v I I I I #
edge $-1 $234 7.1054273576010019e-014 $548 35.355339059327378 $232 $549 forward 7 unknown #
coedge $-1 $550 $385 $226 $381 reversed $377 $-1 #
edge $-1 $548 -35.355339059327378 $383 7.815970093361102e-014 $380 $551 forward 7 unknown #
convexity-sys-attrib $-1 $-1 $-1 $227 #
vertex $-1 $386 $552 #
straight-curve $-1 17.677669529663714 -17.677669529663632 100 0.70710678118654602 0.70710678118654902 0 I I #
coedge $-1 $380 $553 $228 $386 forward $377 $-1 #
edge $554 $390 -150 $383 50 $385 $555 forward 7 unknown #
coedge $-1 $388 $229 $553 $556 forward $223 $-1 #
coedge $-1 $229 $387 $231 $393 forward $223 $-1 #
convexity-sys-attrib $-1 $-1 $-1 $230 #
vertex $-1 $556 $557 #
straight-curve $-1 17.677669529663714 -17.677669529663632 -100 -0.70710678118654602 -0.70710678118654902 0 I I #
coedge $-1 $232 $231 $550 $558 reversed $125 $-1 #
edge $-1 $559 -35.355339059327378 $235 -7.1054273576010019e-014 $231 $560 forward 7 unknown #
point $-1 7.1054273576010019e-014 -35.355339059327378 100 #
point $-1 7.1054273576010019e-014 -35.355339059327378 -100 #
plane-surface $-1 -35.355339059327378 0 0 1 0 0 0 0 -1 forward_v I I I I #
coedge $-1 $561 $240 $242 $401 reversed $133 $-1 #
coedge $-1 $240 $561 $405 $562 reversed $133 $-1 #
edge $563 $408 -50 $403 150 $240 $564 forward 7 unknown #
edge $-1 $251 -7.815970093361102e-014 $565 35.355339059327378 $248 $566 forward 7 unknown #
edge $-1 $565 -35.355339059327378 $403 -7.1054273576010019e-014 $397 $567 forward 7 unknown #
convexity-sys-attrib $-1 $-1 $-1 $243 #
vertex $-1 $243 $568 #
straight-curve $-1 -17.677669529663714 17.677669529663632 -100 0.70710678118654602 0.70710678118654902 0 I I #
coedge $-1 $406 $245 $398 $562 forward $238 $-1 #
coedge $-1 $245 $405 $247 $411 forward $238 $-1 #
convexity-sys-attrib $-1 $-1 $-1 $246 #
vertex $-1 $562 $569 #
straight-curve $-1 -17.677669529663714 17.677669529663632 100 -0.70710678118654602 -0.70710678118654902 0 I I #
coedge $-1 $248 $247 $561 $570 forward $249 $-1 #
edge $-1 $571 -35.355339059327378 $252 8.0388733884609112e-014 $247 $572 forward 7 unknown #
point $-1 -35.355339059327378 -7.815970093361102e-014 -100 #
point $-1 -35.355339059327378 -8.0388733884609112e-014 100 #
model_id-kcp-attrib $-1 $-1 $-1 $255 1 990548657 70 776339457 8 #
loop $-1 $-1 $443 $255 #
plane-surface $-1 7.5 0 0 -1 0 0 0 0 1 forward_v I I I I #
coedge $-1 $573 $258 $477 $574 reversed $142 $-1 #
coedge $-1 $258 $573 $304 $490 reversed $142 $-1 #
coedge $-1 $260 $259 $575 $576 reversed $88 $-1 #
coedge $-1 $304 $577 $259 $421 forward $171 $-1 #
edge $578 $579 -1.9717977156967101 $424 -1.1697949378930954 $420 $174 forward 7 unknown #
edge $580 $425 1.1697949378930954 $581 1.9717977156967101 $298 $168 forward 7 unknown #
attrib_edge_convexity-kcp-attrib $-1 $582 $-1 $261 2 #
vertex $-1 $490 $583 #
vertex $-1 $574 $584 #
straight-curve $-1 18.540496217739101 7.5000000000000702 0 0 0 1 I I #
coedge $-1 $585 $586 $262 $428 forward $587 $-1 #
edge $588 $436 -100 $432 100 $427 $589 forward 7 unknown #
coedge $-1 $590 $263 $268 $439 forward $171 $-1 #
coedge $-1 $263 $591 $585 $592 forward $171 $-1 #
model_id-kcp-attrib $-1 $593 $-1 $264 1 990548657 70 776339457 39 #
vertex $-1 $592 $594 #
coedge $-1 $595 $265 $586 $596 forward $166 $-1 #
coedge $-1 $265 $597 $267 $438 forward $166 $-1 #
model_id-kcp-attrib $-1 $-1 $-1 $266 1 990548657 70 776339457 34 #
vertex $-1 $596 $598 #
coedge $-1 $268 $267 $599 $600 reversed $256 $-1 #
edge $601 $602 -20 $271 -18.5404962177392 $267 $315 forward 7 unknown #
edge $603 $270 18.5404962177392 $604 20 $268 $312 forward 7 unknown #
convexity-sys-attrib $-1 $-1 $269 $148 #
point $-1 -7.5 18.5404962177392 -100 #
point $-1 -7.5 18.5404962177392 100 #
coedge $-1 $605 $606 $273 $444 forward $415 $-1 #
edge $607 $451 -100 $446 100 $443 $608 forward 7 unknown #
coedge $-1 $274 $609 $605 $610 forward $166 $-1 #
vertex $-1 $610 $611 #
coedge $-1 $612 $276 $613 $614 reversed $166 $-1 #
point $-1 14.142135623730899 -14.142135623731001 100 #
coedge $-1 $615 $278 $606 $616 forward $171 $-1 #
attrib_edge_convexity-kcp-attrib $-1 $617 $-1 $279 1 #
vertex $-1 $616 $618 #
coedge $-1 $280 $619 $620 $621 reversed $171 $-1 #
convexity-sys-attrib $-1 $-1 $281 $154 #
point $-1 14.142135623730899 -14.142135623731001 -100 #
coedge $-1 $620 $613 $283 $456 forward $622 $-1 #
edge $623 $461 -100 $458 100 $283 $624 forward 7 unknown #
attrib_edge_convexity-kcp-attrib $-1 $625 $-1 $284 1 #
vertex $-1 $621 $626 #
straight-curve $-1 2.5812685322534899e-014 -7.5 -100 -1 -3.44169137633799e-015 0 I I #
attrib_edge_convexity-kcp-attrib $-1 $627 $-1 $285 1 #
vertex $-1 $285 $628 #
straight-curve $-1 2.5812685322534899e-014 -7.5 100 1 3.44169137633799e-015 0 I I #
model_id-kcp-attrib $-1 $-1 $-1 $286 1 990548657 70 776339457 26 #
plane-surface $-1 2.5812685322534899e-014 -7.5 0 -3.44169137633799e-015 1 0 0 0 -1 forward_v I I I I #
coedge $-1 $291 $290 $629 $630 reversed $292 $-1 #
face $631 $299 $292 $9 $-1 $464 reversed single #
convexity-sys-attrib $-1 $-1 $293 $163 #
coedge $-1 $609 $295 $632 $633 forward $166 $-1 #
coedge $-1 $308 $634 $295 $470 forward $493 $-1 #
edge $-1 $635 -0.78539816339744828 $314 0.78539816339744828 $295 $636 forward 7 unknown #
coedge $-1 $296 $595 $637 $638 forward $166 $-1 #
coedge $-1 $639 $629 $296 $473 forward $640 $-1 #
edge $-1 $475 -0.78539816339744539 $641 0.78539816339744717 $296 $642 forward 7 unknown #
attrib_edge_convexity-kcp-attrib $-1 $643 $-1 $297 1 #
vertex $-1 $473 $644 #
coedge $-1 $645 $298 $646 $647 forward $166 $-1 #
coedge $-1 $298 $648 $417 $574 forward $166 $-1 #
model_id-kcp-attrib $-1 $-1 $-1 $299 1 990548657 70 776339457 11 #
face $649 $650 $651 $9 $-1 $652 forward single #
plane-surface $-1 0 0 100 0 0 1 1 0 0 forward_v I I I I #
coedge $-1 $591 $301 $653 $654 forward $171 $-1 #
coedge $-1 $629 $639 $301 $483 forward $640 $-1 #
edge $655 $656 -0.78539816339744717 $485 0.78539816339744539 $301 $657 forward 7 unknown #
attrib_edge_convexity-kcp-attrib $-1 $658 $-1 $302 1 #
vertex $-1 $302 $659 #
coedge $-1 $303 $615 $660 $661 forward $171 $-1 #
coedge $-1 $634 $308 $303 $488 forward $493 $-1 #
edge $662 $311 -0.78539816339744828 $663 0.78539816339744828 $303 $664 forward 7 unknown #
coedge $-1 $619 $304 $665 $666 reversed $171 $-1 #
edge $667 $424 18.540496217739125 $668 20.000000000000025 $418 $669 forward 7 unknown #
model_id-kcp-attrib $-1 $-1 $-1 $305 1 990548657 70 776339457 9 #
plane-surface $-1 0 0 -100 0 0 1 1 0 0 forward_v I I I I #
loop $-1 $-1 $634 $670 #
attrib_edge_convexity-kcp-attrib $-1 $671 $-1 $309 3 #
straight-curve $-1 -7.5 -20 0 0 0 -1 I I #
convexity-sys-attrib $-1 $-1 $310 $176 #
point $-1 -7.5 -20 -100 #
convexity-sys-attrib $-1 $-1 $313 $177 #
point $-1 -7.5 -20 100 #
plane-surface $-1 35.355339059327378 0 0 -1 0 0 0 0 1 forward_v I I I I #
coedge $-1 $322 $320 $324 $505 reversed $183 $-1 #
edge $-1 $335 -100 $507 100 $334 $672 forward 7 unknown #
vertex $-1 $505 $673 #
straight-curve $-1 -35.355339059327378 -35.355339059327378 0 0 0 -1 I I #
edge $-1 $503 -35.355339059327378 $507 35.355339059327378 $501 $674 forward 7 unknown #
straight-curve $-1 0 -35.355339059327378 -100 -1 0 0 I I #
vertex $-1 $327 $675 #
straight-curve $-1 0 35.355339059327378 -100 1 0 0 I I #
point $-1 35.355339059327378 35.355339059327378 -100 #
point $-1 35.355339059327378 -35.355339059327378 -100 #
straight-curve $-1 -35.355339059327378 0 100 0 -1 0 I I #
point $-1 -35.355339059327378 35.355339059327378 100 #
point $-1 -35.355339059327378 -35.355339059327378 100 #
straight-curve $-1 35.355339059327378 -35.355339059327378 0 0 0 -1 I I #
straight-curve $-1 35.355339059327378 35.355339059327378 0 0 0 -1 I I #
plane-surface $-1 7.1054273576010019e-014 -35.355339059327378 -100 -0.70710678118654602 -0.70710678118654902 0 0.70710678118654902 -0.70710678118654602 0 forward_v I I I I #
coedge $-1 $527 $352 $355 $532 forward $345 $-1 #
coedge $-1 $525 $346 $348 $522 reversed $202 $-1 #
coedge $-1 $346 $525 $527 $676 reversed $202 $-1 #
coedge $-1 $355 $349 $346 $521 reversed $356 $-1 #
edge $-1 $677 -50 $523 150 $346 $678 forward 7 unknown #
edge $-1 $530 -35.355339059327378 $523 7.1054273576010019e-014 $518 $679 forward 7 unknown #
vertex $-1 $350 $680 #
straight-curve $-1 -8.8388347648317911 -26.516504294495554 100 -0.70710678118654902 0.70710678118654602 0 I I #
coedge $-1 $519 $518 $351 $526 forward $202 $-1 #
edge $-1 $530 -100 $528 100 $351 $681 forward 7 unknown #
coedge $-1 $352 $517 $519 $676 forward $345 $-1 #
vertex $-1 $353 $682 #
straight-curve $-1 -35.355339059327378 0 -100 0 1 0 I I #
vertex $-1 $354 $683 #
straight-curve $-1 -35.355339059327378 0 100 0 -1 0 I I #
edge $-1 $358 -37.5 $677 12.499999999999996 $517 $684 forward 7 unknown #
point $-1 -35.355339059327378 -8.0388733884609112e-014 100 #
point $-1 -35.355339059327378 -7.815970093361102e-014 -100 #
coedge $-1 $368 $537 $362 $536 reversed $360 $-1 #
edge $-1 $373 7.815970093361102e-014 $539 35.355339059327378 $535 $685 forward 7 unknown #
coedge $-1 $535 $543 $364 $538 reversed $360 $-1 #
edge $-1 $539 -100 $541 100 $537 $686 forward 7 unknown #
vertex $-1 $536 $687 #
straight-curve $-1 0 35.355339059327378 100 -1 0 0 I I #
vertex $-1 $545 $688 #
straight-curve $-1 0 35.355339059327378 -100 1 0 0 I I #
coedge $-1 $537 $368 $370 $545 reversed $360 $-1 #
straight-curve $-1 35.355339059327378 7.9936057773011258e-014 50 0 0 -1 I I #
edge $-1 $541 -35.355339059327378 $371 -7.815970093361102e-014 $543 $689 forward 7 unknown #
point $-1 35.355339059327378 7.815970093361102e-014 -100 #
point $-1 35.355339059327378 7.815970093361102e-014 100 #
vertex $-1 $381 $690 #
straight-curve $-1 0 -35.355339059327378 100 1 0 0 I I #
coedge $-1 $553 $380 $392 $558 forward $377 $-1 #
straight-curve $-1 35.355339059327378 0 100 0 1 0 I I #
point $-1 35.355339059327378 7.815970093361102e-014 100 #
coedge $-1 $385 $550 $387 $556 reversed $377 $-1 #
convexity-sys-attrib $-1 $-1 $-1 $386 #
straight-curve $-1 35.355339059327378 7.9936057773011258e-014 50 0 0 1 I I #
edge $-1 $390 -7.815970093361102e-014 $559 35.355339059327378 $553 $691 forward 7 unknown #
point $-1 35.355339059327378 7.815970093361102e-014 -100 #
edge $-1 $548 -100 $559 100 $550 $692 forward 7 unknown #
vertex $-1 $558 $693 #
straight-curve $-1 0 -35.355339059327378 -100 -1 0 0 I I #
coedge $-1 $398 $397 $410 $570 reversed $133 $-1 #
edge $-1 $408 7.1054273576010019e-014 $571 35.355339059327378 $398 $694 forward 7 unknown #
convexity-sys-attrib $-1 $-1 $-1 $399 #
straight-curve $-1 -7.1054273576010019e-014 35.355339059327378 50 0 0 -1 I I #
vertex $-1 $401 $695 #
straight-curve $-1 -35.355339059327378 0 -100 0 1 0 I I #
straight-curve $-1 0 35.355339059327378 -100 1 0 0 I I #
point $-1 -7.1054273576010019e-014 35.355339059327378 -100 #
point $-1 -7.1054273576010019e-014 35.355339059327378 100 #
edge $-1 $571 -100 $565 100 $561 $696 forward 7 unknown #
vertex $-1 $562 $697 #
straight-curve $-1 -35.355339059327378 0 100 0 -1 0 I I #
coedge $-1 $418 $417 $698 $699 reversed $142 $-1 #
edge $700 $701 -20.000000000000025 $425 -18.540496217739125 $417 $702 forward 7 unknown #
coedge $-1 $703 $646 $419 $576 forward $704 $-1 #
edge $705 $581 -100 $579 100 $575 $706 forward 7 unknown #
coedge $-1 $420 $707 $703 $708 forward $171 $-1 #
model_id-kcp-attrib $-1 $709 $-1 $421 1 990548657 70 776339457 43 #
vertex $-1 $708 $710 #
model_id-kcp-attrib $-1 $-1 $-1 $422 1 990548657 70 776339457 30 #
vertex $-1 $647 $711 #
convexity-sys-attrib $-1 $-1 $423 $261 #
point $-1 18.540496217739101 7.5000000000000702 -100 #
point $-1 18.540496217739101 7.5000000000000702 100 #
coedge $-1 $712 $427 $430 $592 reversed $587 $-1 #
coedge $-1 $427 $712 $433 $596 reversed $587 $-1 #
loop $-1 $-1 $427 $713 #
attrib_edge_convexity-kcp-attrib $-1 $714 $-1 $428 2 #
straight-curve $-1 -18.5404962177392 7.4999999999999396 0 0 0 -1 I I #
coedge $-1 $715 $429 $716 $717 reversed $171 $-1 #
coedge $-1 $430 $481 $718 $719 reversed $171 $-1 #
edge $720 $721 -19.999999999999975 $432 -18.540496217739175 $585 $669 forward 7 unknown #
attrib_edge_convexity-kcp-attrib $-1 $722 $431 $264 1 #
point $-1 -18.5404962177392 7.4999999999999396 -100 #
coedge $-1 $471 $433 $723 $724 reversed $166 $-1 #
edge $725 $436 18.540496217739175 $726 19.999999999999975 $586 $702 forward 7 unknown #
coedge $-1 $434 $727 $728 $729 reversed $166 $-1 #
point $-1 -18.5404962177392 7.4999999999999396 100 #
coedge $-1 $728 $716 $437 $600 forward $730 $-1 #
edge $731 $604 -100 $602 100 $437 $732 forward 7 unknown #
attrib_edge_convexity-kcp-attrib $-1 $733 $-1 $438 1 #
vertex $-1 $729 $734 #
attrib_edge_convexity-kcp-attrib $-1 $735 $-1 $439 1 #
vertex $-1 $439 $736 #
coedge $-1 $737 $443 $445 $610 reversed $415 $-1 #
coedge $-1 $443 $737 $449 $616 reversed $415 $-1 #
attrib_edge_convexity-kcp-attrib $-1 $738 $-1 $444 2 #
straight-curve $-1 7.5 -18.5404962177392 0 0 0 1 I I #
coedge $-1 $445 $468 $739 $740 reversed $166 $-1 #
edge $741 $742 -20 $446 -18.5404962177392 $605 $743 forward 7 unknown #
point $-1 7.5 -18.5404962177392 100 #
coedge $-1 $648 $447 $744 $745 forward $166 $-1 #
coedge $-1 $455 $746 $447 $614 forward $622 $-1 #
edge $-1 $747 -0.78539816339744939 $461 0.78539816339745128 $447 $748 forward 7 unknown #
coedge $-1 $486 $449 $749 $750 reversed $171 $-1 #
edge $751 $451 18.5404962177392 $752 20 $606 $753 forward 7 unknown #
convexity-sys-attrib $-1 $-1 $450 $279 #
point $-1 7.5 -18.5404962177392 -100 #
coedge $-1 $452 $489 $754 $755 forward $171 $-1 #
coedge $-1 $746 $455 $452 $621 forward $622 $-1 #
edge $756 $458 -0.78539816339745128 $757 0.78539816339744939 $452 $758 forward 7 unknown #
loop $-1 $-1 $746 $759 #
attrib_edge_convexity-kcp-attrib $-1 $760 $-1 $456 3 #
straight-curve $-1 20 -7.4999999999999298 0 0 0 -1 I I #
convexity-sys-attrib $-1 $-1 $457 $284 #
point $-1 20 -7.4999999999999298 -100 #
convexity-sys-attrib $-1 $-1 $460 $285 #
point $-1 20 -7.4999999999999298 100 #
coedge $-1 $472 $482 $465 $630 forward $640 $-1 #
edge $761 $485 -100 $475 100 $465 $762 forward 7 unknown #
model_id-kcp-attrib $-1 $-1 $-1 $466 1 990548657 70 776339457 10 #
coedge $-1 $763 $764 $468 $633 reversed $765 $-1 #
edge $766 $635 -2.5 $767 2.5 $632 $768 forward 7 unknown #
coedge $-1 $469 $487 $763 $769 forward $493 $-1 #
vertex $-1 $769 $770 #
ellipse-curve $-1 -2.5 -20 100 0 0 -1 -3.53553390593274 -3.53553390593274 0 1 I I #
coedge $-1 $771 $772 $471 $638 reversed $773 $-1 #
edge $-1 $774 -2.499999999999996 $641 2.500000000000004 $637 $775 forward 7 unknown #
coedge $-1 $482 $472 $772 $776 forward $640 $-1 #
loop $-1 $-1 $629 $777 #
vertex $-1 $638 $778 #
ellipse-curve $-1 -20 -2.5000000000000702 100 0 0 -1 -3.5355339059327302 -3.5355339059327502 0 1 I I #
convexity-sys-attrib $-1 $-1 $474 $297 #
point $-1 -20 -7.5000000000000702 100 #
coedge $-1 $727 $476 $779 $780 reversed $166 $-1 #
coedge $-1 $575 $781 $476 $647 reversed $704 $-1 #
edge $782 $581 18.5404962177392 $783 20 $646 $743 forward 7 unknown #
coedge $-1 $477 $612 $784 $785 reversed $166 $-1 #
model_id-kcp-attrib $-1 $-1 $-1 $479 1 990548657 70 776339457 12 #
face $786 $787 $765 $9 $-1 $788 reversed single #
loop $-1 $-1 $789 $479 #
cone-surface $-1 2.5 -20 0 0 0 -1 3.53553390593274 -3.53553390593274 0 1 I I 0 1 5.0000000000000036 forward I I I I #
coedge $-1 $772 $771 $481 $654 reversed $773 $-1 #
edge $790 $656 -2.500000000000004 $791 2.499999999999996 $653 $792 forward 7 unknown #
attrib_edge_convexity-kcp-attrib $-1 $793 $-1 $483 1 #
vertex $-1 $776 $794 #
ellipse-curve $-1 -20 -2.5000000000000702 -100 0 0 1 -3.5355339059327302 -3.5355339059327502 0 1 I I #
convexity-sys-attrib $-1 $-1 $484 $302 #
point $-1 -20 -7.5000000000000702 -100 #
coedge $-1 $764 $763 $486 $661 reversed $765 $-1 #
edge $795 $796 -2.5 $663 2.5 $660 $797 forward 7 unknown #
attrib_edge_convexity-kcp-attrib $-1 $798 $-1 $488 1 #
vertex $-1 $661 $799 #
ellipse-curve $-1 -2.5 -20 -100 0 0 1 -3.53553390593274 -3.53553390593274 0 1 I I #
coedge $-1 $698 $800 $489 $666 forward $801 $-1 #
edge $802 $803 -0.78539816339744717 $668 0.78539816339744539 $489 $804 forward 7 unknown #
model_id-kcp-attrib $-1 $805 $-1 $490 1 990548657 70 776339457 44 #
vertex $-1 $490 $806 #
straight-curve $-1 -2.5812685322534899e-014 7.5 -100 1 3.44169137633799e-015 0 I I #
face $807 $808 $493 $9 $-1 $809 forward single #
convexity-sys-attrib $-1 $-1 $494 $309 #
straight-curve $-1 -35.355339059327378 35.355339059327378 0 0 0 -1 I I #
point $-1 -35.355339059327378 -35.355339059327378 -100 #
straight-curve $-1 -35.355339059327378 0 -100 0 1 0 I I #
point $-1 -35.355339059327378 35.355339059327378 -100 #
edge $-1 $677 -7.1054273576010019e-014 $528 35.355339059327378 $519 $810 forward 7 unknown #
vertex $-1 $676 $811 #
straight-curve $-1 6.7501559897209505e-014 -35.355339059327378 -50 0 0 1 I I #
straight-curve $-1 0 -35.355339059327378 100 1 0 0 I I #
point $-1 7.1054273576010019e-014 -35.355339059327378 100 #
straight-curve $-1 -35.355339059327378 -35.355339059327378 0 0 0 -1 I I #
point $-1 -35.355339059327378 -35.355339059327378 -100 #
point $-1 -35.355339059327378 -35.355339059327378 100 #
straight-curve $-1 -8.8388347648317911 -26.516504294495554 -100 0.70710678118654902 -0.70710678118654602 0 I I #
straight-curve $-1 35.355339059327378 0 100 0 1 0 I I #
straight-curve $-1 35.355339059327378 35.355339059327378 0 0 0 -1 I I #
point $-1 35.355339059327378 35.355339059327378 100 #
point $-1 35.355339059327378 35.355339059327378 -100 #
straight-curve $-1 35.355339059327378 0 -100 0 -1 0 I I #
point $-1 35.355339059327378 -35.355339059327378 100 #
straight-curve $-1 35.355339059327378 0 -100 0 -1 0 I I #
straight-curve $-1 35.355339059327378 -35.355339059327378 0 0 0 -1 I I #
point $-1 35.355339059327378 -35.355339059327378 -100 #
straight-curve $-1 0 35.355339059327378 100 -1 0 0 I I #
point $-1 -35.355339059327378 35.355339059327378 -100 #
straight-curve $-1 -35.355339059327378 35.355339059327378 0 0 0 -1 I I #
point $-1 -35.355339059327378 35.355339059327378 100 #
coedge $-1 $784 $665 $573 $699 forward $801 $-1 #
edge $812 $668 -100 $701 100 $573 $813 forward 7 unknown #
attrib_edge_convexity-kcp-attrib $-1 $814 $-1 $574 1 #
vertex $-1 $785 $815 #
straight-curve $-1 -2.5812685322534899e-014 7.5 100 -1 -3.44169137633799e-015 0 I I #
coedge $-1 $781 $575 $577 $708 reversed $704 $-1 #
loop $-1 $-1 $575 $816 #
attrib_edge_convexity-kcp-attrib $-1 $817 $-1 $576 2 #
straight-curve $-1 7.5 18.5404962177392 0 0 0 -1 I I #
coedge $-1 $577 $715 $818 $819 reversed $171 $-1 #
edge $820 $821 -20 $579 -18.5404962177392 $703 $753 forward 7 unknown #
attrib_edge_convexity-kcp-attrib $-1 $822 $578 $421 1 #
point $-1 7.5 18.5404962177392 -100 #
point $-1 7.5 18.5404962177392 100 #
coedge $-1 $586 $585 $823 $824 reversed $587 $-1 #
face $825 $286 $587 $9 $-1 $143 reversed single #
convexity-sys-attrib $-1 $-1 $588 $428 #
coedge $-1 $707 $590 $826 $827 forward $171 $-1 #
coedge $-1 $599 $828 $590 $717 forward $730 $-1 #
edge $829 $830 -0.78539816339744828 $604 0.78539816339744828 $590 $831 forward 7 unknown #
coedge $-1 $832 $823 $591 $719 forward $833 $-1 #
edge $834 $721 -0.78539816339745128 $791 0.78539816339744939 $591 $835 forward 7 unknown #
model_id-kcp-attrib $-1 $836 $-1 $592 1 990548657 70 776339457 38 #
vertex $-1 $719 $837 #
convexity-sys-attrib $-1 $-1 $593 $264 #
coedge $-1 $823 $832 $595 $724 forward $833 $-1 #
edge $838 $774 -0.78539816339744939 $726 0.78539816339745128 $595 $839 forward 7 unknown #
attrib_edge_convexity-kcp-attrib $-1 $840 $-1 $596 1 #
vertex $-1 $596 $841 #
coedge $-1 $597 $645 $842 $843 forward $166 $-1 #
coedge $-1 $828 $599 $597 $729 forward $730 $-1 #
edge $844 $602 -0.78539816339744828 $845 0.78539816339744828 $597 $846 forward 7 unknown #
loop $-1 $-1 $599 $847 #
attrib_edge_convexity-kcp-attrib $-1 $848 $-1 $600 3 #
straight-curve $-1 -7.5 20 0 0 0 1 I I #
convexity-sys-attrib $-1 $-1 $601 $438 #
point $-1 -7.5 20 100 #
convexity-sys-attrib $-1 $-1 $603 $439 #
point $-1 -7.5 20 -100 #
coedge $-1 $606 $605 $789 $849 reversed $415 $-1 #
convexity-sys-attrib $-1 $-1 $607 $444 #
coedge $-1 $850 $789 $609 $740 forward $651 $-1 #
edge $-1 $742 -0.78539816339744828 $767 0.78539816339744828 $609 $851 forward 7 unknown #
attrib_edge_convexity-kcp-attrib $-1 $852 $-1 $610 1 #
vertex $-1 $740 $853 #
straight-curve $-1 7.5 0 100 0 1 0 I I #
coedge $-1 $854 $855 $612 $745 reversed $856 $-1 #
edge $857 $747 -2.499999999999996 $858 2.500000000000004 $744 $859 forward 7 unknown #
coedge $-1 $613 $620 $854 $860 forward $622 $-1 #
vertex $-1 $860 $861 #
ellipse-curve $-1 20 -2.4999999999999298 100 0 0 -1 3.5355339059327502 -3.5355339059327302 0 1 I I #
coedge $-1 $789 $850 $615 $750 forward $651 $-1 #
edge $862 $796 -0.78539816339744828 $752 0.78539816339744828 $615 $863 forward 7 unknown #
attrib_edge_convexity-kcp-attrib $-1 $864 $-1 $616 1 #
vertex $-1 $616 $865 #
straight-curve $-1 7.5 0 -100 0 -1 0 I I #
coedge $-1 $855 $854 $619 $755 reversed $856 $-1 #
edge $866 $803 -2.500000000000004 $757 2.499999999999996 $754 $867 forward 7 unknown #
attrib_edge_convexity-kcp-attrib $-1 $868 $-1 $621 1 #
vertex $-1 $755 $869 #
ellipse-curve $-1 20 -2.4999999999999298 -100 0 0 1 3.5355339059327502 -3.5355339059327302 0 1 I I #
face $870 $847 $622 $9 $-1 $871 forward single #
convexity-sys-attrib $-1 $-1 $623 $456 #
attrib_edge_convexity-kcp-attrib $-1 $872 $-1 $630 3 #
straight-curve $-1 -20 -7.5000000000000702 0 0 0 1 I I #
coedge $-1 $660 $632 $634 $769 reversed $765 $-1 #
coedge $-1 $632 $660 $850 $873 reversed $765 $-1 #
loop $-1 $-1 $764 $650 #
attrib_edge_convexity-kcp-attrib $-1 $874 $-1 $633 1 #
vertex $-1 $633 $875 #
straight-curve $-1 0 -25 100 1 0 0 I I #
edge $876 $663 -100 $635 100 $763 $877 forward 7 unknown #
point $-1 -2.5 -25 100 #
coedge $-1 $653 $637 $832 $878 reversed $773 $-1 #
coedge $-1 $637 $653 $639 $776 reversed $773 $-1 #
loop $-1 $-1 $771 $879 #
vertex $-1 $878 $880 #
straight-curve $-1 -25 -8.6042284408449594e-014 100 3.44169137633799e-015 -1 0 I I #
edge $-1 $641 -100 $656 100 $772 $881 forward 7 unknown #
face $882 $713 $640 $9 $-1 $883 forward single #
point $-1 -25 -2.5000000000000902 100 #
coedge $-1 $884 $885 $645 $780 forward $886 $-1 #
edge $887 $888 -0.78539816339744828 $783 0.78539816339744828 $645 $889 forward 7 unknown #
coedge $-1 $646 $703 $884 $890 reversed $704 $-1 #
attrib_edge_convexity-kcp-attrib $-1 $891 $-1 $647 1 #
vertex $-1 $647 $892 #
coedge $-1 $800 $698 $648 $785 forward $801 $-1 #
edge $893 $701 -0.78539816339744539 $858 0.78539816339744717 $648 $894 forward 7 unknown #
model_id-kcp-attrib $-1 $-1 $-1 $650 1 990548657 70 776339457 13 #
face $895 $896 $801 $9 $-1 $897 forward single #
plane-surface $-1 0 -25 0 0 1 0 0 0 1 forward_v I I I I #
coedge $-1 $739 $749 $737 $849 forward $651 $-1 #
attrib_edge_convexity-kcp-attrib $-1 $898 $-1 $654 1 #
vertex $-1 $654 $899 #
straight-curve $-1 -25 -8.6042284408449594e-014 -100 -3.44169137633799e-015 1 0 I I #
convexity-sys-attrib $-1 $-1 $655 $483 #
point $-1 -25 -2.5000000000000902 -100 #
attrib_edge_convexity-kcp-attrib $-1 $900 $-1 $661 1 #
vertex $-1 $873 $901 #
straight-curve $-1 0 -25 -100 -1 0 0 I I #
convexity-sys-attrib $-1 $-1 $662 $488 #
point $-1 -2.5 -25 -100 #
coedge $-1 $665 $784 $855 $902 forward $801 $-1 #
loop $-1 $-1 $698 $787 #
model_id-kcp-attrib $-1 $903 $-1 $666 1 990548657 70 776339457 45 #
vertex $-1 $902 $904 #
ellipse-curve $-1 20 2.5000000000000702 -100 0 0 1 3.5355339059327302 3.5355339059327502 0 1 I I #
attrib_edge_convexity-kcp-attrib $-1 $905 $667 $490 1 #
point $-1 20 7.5000000000000702 -100 #
model_id-kcp-attrib $-1 $-1 $-1 $670 1 990548657 70 776339457 19 #
face $906 $816 $886 $9 $-1 $907 forward single #
cone-surface $-1 -2.5 -20 0 0 0 -1 -3.53553390593274 -3.53553390593274 0 1 I I 0 1 5.0000000000000036 forward I I I I #
straight-curve $-1 0 -35.355339059327378 -100 -1 0 0 I I #
point $-1 7.1054273576010019e-014 -35.355339059327378 -100 #
attrib_edge_convexity-kcp-attrib $-1 $908 $-1 $699 3 #
straight-curve $-1 20 7.5000000000000702 0 0 0 1 I I #
convexity-sys-attrib $-1 $909 $700 $574 #
point $-1 20 7.5000000000000702 100 #
face $910 $911 $704 $9 $-1 $416 reversed single #
convexity-sys-attrib $-1 $-1 $705 $576 #
coedge $-1 $885 $884 $707 $819 forward $886 $-1 #
edge $912 $821 -0.78539816339744828 $913 0.78539816339744828 $707 $914 forward 7 unknown #
attrib_edge_convexity-kcp-attrib $-1 $915 $-1 $708 1 #
vertex $-1 $890 $916 #
convexity-sys-attrib $-1 $-1 $709 $421 #
coedge $-1 $718 $723 $712 $824 forward $833 $-1 #
edge $917 $726 -100 $721 100 $712 $918 forward 7 unknown #
model_id-kcp-attrib $-1 $-1 $-1 $713 1 990548657 70 776339457 25 #
coedge $-1 $919 $920 $715 $827 reversed $921 $-1 #
edge $922 $830 -2.5 $913 2.5 $826 $923 forward 7 unknown #
coedge $-1 $716 $728 $919 $924 forward $730 $-1 #
model_id-kcp-attrib $-1 $925 $-1 $717 1 990548657 70 776339457 40 #
vertex $-1 $924 $926 #
ellipse-curve $-1 -2.5 20 -100 0 0 1 -3.53553390593274 3.53553390593274 0 1 I I #
coedge $-1 $723 $718 $771 $878 forward $833 $-1 #
loop $-1 $-1 $832 $911 #
model_id-kcp-attrib $-1 $927 $-1 $719 1 990548657 70 776339457 37 #
ellipse-curve $-1 -20 2.4999999999999298 -100 0 0 1 -3.5355339059327502 3.5355339059327302 0 1 I I #
attrib_edge_convexity-kcp-attrib $-1 $928 $720 $592 1 #
point $-1 -20 7.4999999999999298 -100 #
model_id-kcp-attrib $-1 $-1 $-1 $724 1 990548657 70 776339457 36 #
ellipse-curve $-1 -20 2.4999999999999298 100 0 0 -1 -3.5355339059327502 3.5355339059327302 0 1 I I #
convexity-sys-attrib $-1 $929 $725 $596 #
point $-1 -20 7.4999999999999298 100 #
coedge $-1 $920 $919 $727 $843 reversed $921 $-1 #
edge $930 $888 -2.5 $845 2.5 $842 $931 forward 7 unknown #
model_id-kcp-attrib $-1 $-1 $-1 $729 1 990548657 70 776339457 33 #
vertex $-1 $843 $932 #
ellipse-curve $-1 -2.5 20 100 0 0 -1 -3.53553390593274 3.53553390593274 0 1 I I #
face $933 $934 $730 $9 $-1 $935 forward single #
convexity-sys-attrib $-1 $-1 $731 $600 #
edge $936 $752 -100 $742 100 $737 $937 forward 7 unknown #
coedge $-1 $749 $739 $764 $873 forward $651 $-1 #
ellipse-curve $-1 2.5 -20 100 0 0 -1 3.53553390593274 -3.53553390593274 0 1 I I #
convexity-sys-attrib $-1 $-1 $741 $610 #
point $-1 7.5 -20 100 #
coedge $-1 $754 $744 $746 $860 reversed $856 $-1 #
coedge $-1 $744 $754 $800 $902 reversed $856 $-1 #
loop $-1 $-1 $855 $896 #
attrib_edge_convexity-kcp-attrib $-1 $938 $-1 $745 1 #
vertex $-1 $745 $939 #
straight-curve $-1 25 8.6042284408449594e-014 100 -3.44169137633799e-015 1 0 I I #
edge $940 $757 -100 $747 100 $854 $941 forward 7 unknown #
point $-1 25 -2.4999999999999098 100 #
attrib_edge_convexity-kcp-attrib $-1 $942 $-1 $750 1 #
ellipse-curve $-1 2.5 -20 -100 0 0 1 3.53553390593274 -3.53553390593274 0 1 I I #
convexity-sys-attrib $-1 $-1 $751 $616 #
point $-1 7.5 -20 -100 #
attrib_edge_convexity-kcp-attrib $-1 $943 $-1 $755 1 #
straight-curve $-1 25 8.6042284408449594e-014 -100 3.44169137633799e-015 -1 0 I I #
convexity-sys-attrib $-1 $-1 $756 $621 #
point $-1 25 -2.4999999999999098 -100 #
model_id-kcp-attrib $-1 $-1 $-1 $759 1 990548657 70 776339457 16 #
cone-surface $-1 20 -2.4999999999999298 0 0 0 -1 3.5355339059327502 -3.5355339059327302 0 1 I I 0 1 5.0000000000000036 forward I I I I #
convexity-sys-attrib $-1 $-1 $761 $630 #
edge $944 $767 -100 $796 100 $764 $945 forward 7 unknown #
convexity-sys-attrib $-1 $-1 $766 $633 #
point $-1 2.5 -25 100 #
attrib_edge_convexity-kcp-attrib $-1 $946 $-1 $769 3 #
straight-curve $-1 -2.5 -25 0 0 0 1 I I #
edge $-1 $791 -100 $774 100 $771 $947 forward 7 unknown #
face $948 $777 $773 $9 $-1 $949 reversed single #
point $-1 -25 2.4999999999999098 100 #
straight-curve $-1 -25 -2.5000000000000902 0 0 0 -1 I I #
model_id-kcp-attrib $-1 $-1 $-1 $777 1 990548657 70 776339457 24 #
cone-surface $-1 -20 -2.5000000000000702 0 0 0 -1 -3.5355339059327302 -3.5355339059327502 0 1 I I 0 1 5.0000000000000036 forward I I I I #
coedge $-1 $818 $779 $781 $890 forward $886 $-1 #
coedge $-1 $779 $818 $920 $950 forward $886 $-1 #
loop $-1 $-1 $885 $808 #
model_id-kcp-attrib $-1 $-1 $-1 $780 1 990548657 70 776339457 31 #
vertex $-1 $780 $951 #
ellipse-curve $-1 2.5 20 100 0 0 -1 3.53553390593274 3.53553390593274 0 1 I I #
edge $952 $783 -100 $821 100 $781 $953 forward 7 unknown #
convexity-sys-attrib $-1 $-1 $782 $647 #
point $-1 7.5 20 100 #
model_id-kcp-attrib $-1 $-1 $-1 $785 1 990548657 70 776339457 28 #
ellipse-curve $-1 20 2.5000000000000702 100 0 0 -1 3.5355339059327302 3.5355339059327502 0 1 I I #
model_id-kcp-attrib $-1 $-1 $-1 $787 1 990548657 70 776339457 14 #
face $954 $759 $856 $9 $-1 $955 reversed single #
cone-surface $-1 20 2.5000000000000702 0 0 0 -1 3.5355339059327302 3.5355339059327502 0 1 I I 0 1 5.0000000000000036 forward I I I I #
convexity-sys-attrib $-1 $-1 $790 $654 #
point $-1 -25 2.4999999999999098 -100 #
convexity-sys-attrib $-1 $-1 $795 $661 #
point $-1 2.5 -25 -100 #
edge $956 $858 -100 $803 100 $855 $957 forward 7 unknown #
attrib_edge_convexity-kcp-attrib $-1 $958 $802 $666 1 #
point $-1 25 2.5000000000000902 -100 #
convexity-sys-attrib $-1 $-1 $805 $490 #
model_id-kcp-attrib $-1 $-1 $-1 $808 1 990548657 70 776339457 20 #
cone-surface $-1 2.5 20 0 0 0 -1 3.53553390593274 3.53553390593274 0 1 I I 0 1 5.0000000000000036 forward I I I I #
convexity-sys-attrib $-1 $-1 $812 $699 #
model_id-kcp-attrib $-1 $-1 $814 $574 1 990548657 70 776339457 29 #
model_id-kcp-attrib $-1 $-1 $-1 $816 1 990548657 70 776339457 21 #
face $959 $879 $833 $9 $-1 $960 forward single #
model_id-kcp-attrib $-1 $961 $-1 $819 1 990548657 70 776339457 42 #
vertex $-1 $827 $962 #
ellipse-curve $-1 2.5 20 -100 0 0 1 3.53553390593274 3.53553390593274 0 1 I I #
convexity-sys-attrib $-1 $-1 $820 $708 #
point $-1 7.5 20 -100 #
attrib_edge_convexity-kcp-attrib $-1 $963 $-1 $824 3 #
straight-curve $-1 -20 7.4999999999999298 0 0 0 -1 I I #
coedge $-1 $842 $826 $828 $924 reversed $921 $-1 #
coedge $-1 $826 $842 $885 $950 reversed $921 $-1 #
loop $-1 $-1 $919 $934 #
model_id-kcp-attrib $-1 $964 $-1 $827 1 990548657 70 776339457 41 #
straight-curve $-1 0 25 -100 1 0 0 I I #
edge $965 $845 -100 $830 100 $919 $966 forward 7 unknown #
attrib_edge_convexity-kcp-attrib $-1 $967 $829 $717 1 #
point $-1 -2.5 25 -100 #
attrib_edge_convexity-kcp-attrib $-1 $968 $834 $719 1 #
convexity-sys-attrib $-1 $-1 $836 $592 #
model_id-kcp-attrib $-1 $-1 $840 $596 1 990548657 70 776339457 35 #
attrib_edge_convexity-kcp-attrib $-1 $969 $-1 $843 1 #
straight-curve $-1 0 25 100 -1 0 0 I I #
point $-1 -2.5 25 100 #
model_id-kcp-attrib $-1 $-1 $-1 $847 1 990548657 70 776339457 17 #
face $970 $670 $921 $9 $-1 $971 reversed single #
cone-surface $-1 -2.5 20 0 0 0 -1 -3.53553390593274 3.53553390593274 0 1 I I 0 1 5.0000000000000036 forward I I I I #
attrib_edge_convexity-kcp-attrib $-1 $972 $-1 $849 3 #
straight-curve $-1 7.5 -20 0 0 0 1 I I #
convexity-sys-attrib $-1 $-1 $857 $745 #
point $-1 25 2.5000000000000902 100 #
attrib_edge_convexity-kcp-attrib $-1 $973 $-1 $860 3 #
straight-curve $-1 25 -2.4999999999999098 0 0 0 1 I I #
convexity-sys-attrib $-1 $-1 $862 $750 #
convexity-sys-attrib $-1 $-1 $866 $755 #
attrib_edge_convexity-kcp-attrib $-1 $974 $-1 $873 3 #
straight-curve $-1 2.5 -25 0 0 0 -1 I I #
convexity-sys-attrib $-1 $-1 $876 $769 #
straight-curve $-1 -25 2.4999999999999098 0 0 0 1 I I #
model_id-kcp-attrib $-1 $-1 $-1 $879 1 990548657 70 776339457 23 #
plane-surface $-1 -25 -8.6042284408449594e-014 0 1 3.44169137633799e-015 0 0 0 -1 forward_v I I I I #
edge $975 $913 -100 $888 100 $920 $976 forward 7 unknown #
point $-1 2.5 25 100 #
attrib_edge_convexity-kcp-attrib $-1 $977 $-1 $890 3 #
straight-curve $-1 7.5 20 0 0 0 -1 I I #
model_id-kcp-attrib $-1 $-1 $-1 $896 1 990548657 70 776339457 15 #
plane-surface $-1 25 8.6042284408449594e-014 0 -1 -3.44169137633799e-015 0 0 0 1 forward_v I I I I #
attrib_edge_convexity-kcp-attrib $-1 $978 $-1 $902 3 #
straight-curve $-1 25 2.5000000000000902 0 0 0 -1 I I #
convexity-sys-attrib $-1 $-1 $903 $666 #
model_id-kcp-attrib $-1 $-1 $-1 $911 1 990548657 70 776339457 22 #
cone-surface $-1 -20 2.4999999999999298 0 0 0 -1 -3.5355339059327502 3.5355339059327302 0 1 I I 0 1 5.0000000000000036 forward I I I I #
attrib_edge_convexity-kcp-attrib $-1 $979 $912 $819 1 #
point $-1 2.5 25 -100 #
convexity-sys-attrib $-1 $-1 $917 $824 #
attrib_edge_convexity-kcp-attrib $-1 $980 $922 $827 1 #
attrib_edge_convexity-kcp-attrib $-1 $981 $-1 $924 3 #
straight-curve $-1 -2.5 25 0 0 0 -1 I I #
convexity-sys-attrib $-1 $-1 $925 $717 #
convexity-sys-attrib $-1 $-1 $927 $719 #
convexity-sys-attrib $-1 $982 $930 $843 #
model_id-kcp-attrib $-1 $-1 $-1 $934 1 990548657 70 776339457 18 #
plane-surface $-1 0 25 0 0 -1 0 0 0 -1 forward_v I I I I #
convexity-sys-attrib $-1 $-1 $936 $849 #
convexity-sys-attrib $-1 $-1 $940 $860 #
convexity-sys-attrib $-1 $-1 $944 $873 #
attrib_edge_convexity-kcp-attrib $-1 $983 $-1 $950 3 #
straight-curve $-1 2.5 25 0 0 0 1 I I #
convexity-sys-attrib $-1 $-1 $952 $890 #
convexity-sys-attrib $-1 $-1 $956 $902 #
convexity-sys-attrib $-1 $-1 $961 $819 #
convexity-sys-attrib $-1 $-1 $964 $827 #
convexity-sys-attrib $-1 $-1 $965 $924 #
model_id-kcp-attrib $-1 $-1 $969 $843 1 990548657 70 776339457 32 #
convexity-sys-attrib $-1 $-1 $975 $950 #
End-of-ACIS-data 