104 380 0 0                             
body $-1 $1 $-1 $2 #
lump $-1 $-1 $3 $0 #
transform $-1 1 0 0 0 1 0 0 0 1 0 0 0 1 0 0 0 #
shell $-1 $-1 $-1 $4 $1 #
face $5 $6 $7 $3 $-1 $8 1 #
face_name-twe-attrib $-1 $-1 $-1 $4 1 #
face $9 $10 $11 $3 $-1 $12 0 #
loop $13 $-1 $14 $4 #
plane-surface $15 0 0 -0.5 0 0 1 1 0 0 0 #
face_name-twe-attrib $-1 $-1 $-1 $6 2 #
face $16 $17 $18 $3 $-1 $19 0 #
loop $20 $-1 $21 $6 #
plane-surface $22 0 0 0.5 0 0 1 1 0 0 0 #
loop_type-twe-attrib $-1 $-1 $-1 $7 0 #
coedge $-1 $23 $24 $25 $26 0 $7 $-1 #
surf-twe-attrib $-1 $-1 $-1 $8 4 #
face_name-twe-attrib $-1 $-1 $-1 $10 3 #
face $27 $28 $29 $3 $-1 $30 0 #
loop $31 $32 $33 $10 #
plane-surface $34 -1.25 0 -0.5 0 -1 0 0 0 -1 0 #
loop_type-twe-attrib $-1 $-1 $-1 $11 0 #
coedge $-1 $35 $36 $37 $38 1 $11 $-1 #
surf-twe-attrib $-1 $-1 $-1 $12 6 #
coedge $-1 $39 $14 $40 $41 0 $7 $-1 #
coedge $-1 $14 $39 $42 $43 0 $7 $-1 #
coedge $-1 $44 $45 $14 $26 1 $46 $-1 #
edge $47 $48 $49 $25 $50 0 #
face_name-twe-attrib $-1 $-1 $-1 $17 4 #
face $51 $52 $53 $3 $-1 $54 0 #
loop $55 $-1 $56 $17 #
plane-surface $57 1.25 0 -0.5 1 0 0 0 0 -1 0 #
loop_type-twe-attrib $-1 $-1 $-1 $18 0 #
loop $58 $-1 $59 $10 #
coedge $-1 $60 $61 $62 $63 1 $18 $-1 #
surf-twe-attrib $-1 $-1 $-1 $19 10 #
coedge $-1 $64 $21 $65 $66 1 $11 $-1 #
coedge $-1 $21 $64 $60 $67 1 $11 $-1 #
coedge $-1 $62 $68 $21 $38 0 $69 $-1 #
edge $70 $71 $72 $37 $73 0 #
coedge $-1 $24 $23 $74 $75 1 $7 $-1 #
coedge $-1 $76 $77 $23 $41 1 $18 $-1 #
edge $78 $49 $79 $40 $80 0 #
coedge $-1 $81 $82 $24 $43 1 $83 $-1 #
edge $84 $85 $48 $42 $86 0 #
coedge $-1 $87 $25 $88 $89 0 $46 $-1 #
coedge $-1 $25 $87 $76 $90 1 $46 $-1 #
loop $91 $-1 $44 $92 #
edge_name-twe-attrib $-1 $-1 $-1 $26 22 8448 #
vertex $-1 $93 $94 #
vertex $-1 $90 $95 #
straight-curve $96 0.8125 0 -0.5 0 -1 0 #
face_name-twe-attrib $-1 $-1 $-1 $28 5 #
face $97 $98 $83 $3 $-1 $99 0 #
loop $100 $-1 $101 $28 #
plane-surface $102 1.25 0.25 -0.5 0.496138938356834 0.868243142124459 0 0 0 1 0 #
loop_type-twe-attrib $-1 $-1 $-1 $29 0 #
coedge $-1 $103 $104 $105 $106 0 $29 $-1 #
surf-twe-attrib $-1 $-1 $-1 $30 17 #
loop_type-twe-attrib $-1 $-1 $-1 $32 1 #
coedge $-1 $107 $108 $109 $110 1 $32 $-1 #
coedge $-1 $111 $33 $36 $67 0 $18 $-1 #
coedge $-1 $33 $76 $103 $112 1 $18 $-1 #
coedge $-1 $105 $37 $33 $63 0 $69 $-1 #
edge $113 $72 $114 $62 $115 0 #
coedge $-1 $36 $35 $116 $117 0 $11 $-1 #
coedge $-1 $82 $81 $35 $66 0 $83 $-1 #
edge $118 $119 $71 $65 $120 0 #
edge $121 $72 $122 $60 $123 0 #
coedge $-1 $37 $105 $101 $124 1 $69 $-1 #
loop $125 $-1 $68 $126 #
edge_name-twe-attrib $-1 $-1 $-1 $38 24 8448 #
vertex $-1 $93 $127 #
vertex $-1 $63 $128 #
straight-curve $129 0.8125 0 0.5 0 -1 0 #
coedge $-1 $130 $131 $39 $75 0 $132 $-1 #
edge $133 $85 $79 $74 $134 0 #
coedge $-1 $61 $40 $45 $90 0 $18 $-1 #
coedge $-1 $40 $135 $130 $136 1 $18 $-1 #
edge_name-twe-attrib $-1 $-1 $-1 $41 2 8704 #
vertex $-1 $136 $137 #
straight-curve $138 -0.8125 0 -0.5 -1 0 0 #
coedge $-1 $65 $42 $139 $140 1 $83 $-1 #
coedge $-1 $42 $65 $141 $93 0 $83 $-1 #
loop $142 $143 $65 $52 #
edge_name-twe-attrib $-1 $-1 $-1 $43 7 8704 #
vertex $-1 $140 $144 #
straight-curve $145 0.8125 0.5 -0.5 1 0 0 #
coedge $-1 $45 $44 $146 $147 0 $46 $-1 #
coedge $-1 $141 $148 $44 $89 1 $53 $-1 #
edge $149 $48 $150 $44 $151 0 #
edge $152 $49 $153 $45 $154 0 #
loop_type-twe-attrib $-1 $-1 $-1 $46 0 #
face $155 $126 $46 $3 $-1 $156 0 #
edge $157 $71 $48 $82 $158 0 #
point $-1 0.8125 0.5 -0.5 #
point $-1 0.8125 0 -0.5 #
cur-twe-attrib $-1 $-1 $-1 $50 26 #
face_name-twe-attrib $-1 $-1 $-1 $52 6 #
face $159 $160 $161 $3 $-1 $162 0 #
plane-surface $163 0.8125 0.5 -0.5 0 1 0 0 0 1 0 #
loop_type-twe-attrib $-1 $-1 $-1 $53 0 #
coedge $-1 $148 $141 $68 $124 0 $53 $-1 #
surf-twe-attrib $-1 $-1 $-1 $54 28 #
coedge $-1 $146 $56 $61 $112 0 $29 $-1 #
coedge $-1 $56 $146 $148 $164 1 $29 $-1 #
coedge $-1 $68 $62 $56 $106 1 $69 $-1 #
edge $165 $166 $114 $105 $167 0 #
coedge $-1 $168 $59 $169 $170 1 $32 $-1 #
coedge $-1 $59 $168 $171 $172 1 $32 $-1 #
coedge $-1 $173 $174 $59 $110 0 $175 $-1 #
edge $176 $177 $178 $109 $179 0 #
coedge $-1 $135 $60 $180 $181 0 $18 $-1 #
edge $182 $114 $153 $103 $183 0 #
edge_name-twe-attrib $-1 $-1 $-1 $63 25 8704 #
vertex $-1 $112 $184 #
straight-curve $185 1.25 0 0.21875 0.841178475376554 0 -0.540757591313499 #
coedge $-1 $186 $180 $64 $117 1 $187 $-1 #
edge $188 $119 $122 $116 $189 0 #
edge_name-twe-attrib $-1 $-1 $-1 $66 5 8704 #
vertex $-1 $140 $190 #
straight-curve $191 0.8125 0.5 0.5 1 0 0 #
edge_name-twe-attrib $-1 $-1 $-1 $67 1 8704 #
vertex $-1 $181 $192 #
straight-curve $193 -0.8125 0 0.5 -1 0 0 #
edge $194 $71 $166 $68 $195 0 #
loop_type-twe-attrib $-1 $-1 $-1 $69 0 #
face $196 $197 $69 $3 $-1 $198 1 #
point $-1 0.8125 0.5 0.5 #
point $-1 0.8125 0 0.5 #
cur-twe-attrib $-1 $-1 $-1 $73 38 #
coedge $-1 $199 $74 $77 $136 0 $132 $-1 #
coedge $-1 $74 $199 $200 $201 1 $132 $-1 #
loop $202 $-1 $131 $203 #
edge_name-twe-attrib $-1 $-1 $-1 $75 12 8448 #
straight-curve $204 -0.8125 0 -0.5 0 -1 0 #
coedge $-1 $77 $111 $205 $206 0 $18 $-1 #
edge $207 $79 $208 $130 $209 0 #
point $-1 -0.8125 0 -0.5 #
cur-twe-attrib $-1 $-1 $-1 $80 41 #
coedge $-1 $200 $210 $81 $140 0 $161 $-1 #
edge $211 $119 $85 $139 $212 0 #
coedge $-1 $101 $88 $82 $93 1 $53 $-1 #
loop_type-twe-attrib $-1 $-1 $-1 $83 0 #
loop $213 $-1 $214 $52 #
point $-1 -0.8125 0.5 -0.5 #
cur-twe-attrib $-1 $-1 $-1 $86 43 #
coedge $-1 $104 $103 $87 $147 1 $29 $-1 #
edge $215 $150 $153 $87 $216 0 #
coedge $-1 $88 $101 $104 $164 0 $53 $-1 #
edge_name-twe-attrib $-1 $-1 $-1 $89 19 8448 #
vertex $-1 $164 $217 #
straight-curve $218 1.25 0.25 -0.21875 0.758142505503435 -0.433224288859106 0.487377324966494 #
edge_name-twe-attrib $-1 $-1 $-1 $90 21 8704 #
vertex $-1 $112 $219 #
straight-curve $220 1.25 0 -0.21875 0.841178475376554 0 0.540757591313499 #
face_name-twe-attrib $-1 $-1 $-1 $92 11 #
plane-surface $221 1.25 0 -0.21875 0.540757591313499 0 -0.841178475376554 -0.841178475376554 0 -0.540757591313499 0 #
edge_name-twe-attrib $-1 $-1 $-1 $93 6 8448 #
straight-curve $222 0.8125 0.5 -0.5 0 0 -1 #
face_name-twe-attrib $-1 $-1 $-1 $98 7 #
face $223 $203 $224 $3 $-1 $225 0 #
loop $226 $-1 $210 $98 #
plane-surface $227 -0.8125 0.5 -0.5 -0.496138938356834 0.868243142124459 0 0 0 1 0 #
surf-twe-attrib $-1 $-1 $-1 $99 52 #
edge $228 $166 $150 $148 $229 0 #
edge_name-twe-attrib $-1 $-1 $-1 $106 26 8448 #
vertex $-1 $164 $230 #
straight-curve $231 1.25 0 0.21875 0 -1 0 #
coedge $-1 $108 $107 $232 $233 1 $32 $-1 #
coedge $-1 $234 $235 $107 $170 0 $236 $-1 #
edge $237 $238 $177 $169 $239 0 #
coedge $-1 $240 $241 $108 $172 0 $242 $-1 #
edge $243 $178 $244 $171 $245 0 #
coedge $-1 $246 $109 $241 $247 1 $175 $-1 #
coedge $-1 $109 $246 $234 $248 0 $175 $-1 #
loop $249 $-1 $109 $197 #
edge_name-twe-attrib $-1 $-1 $-1 $110 27 8704 #
vertex $-1 $248 $250 #
vertex $-1 $247 $251 #
ellipse-curve $252 -0.4375 0 0 0 -1 0 0 0 -0.21875 1 #
coedge $-1 $116 $253 $111 $181 1 $187 $-1 #
edge $254 $122 $255 $180 $256 0 #
edge_name-twe-attrib $-1 $-1 $-1 $112 3 8704 #
straight-curve $257 1.25 0 -0.21875 0 0 -1 #
point $-1 1.25 0 0.21875 #
cur-twe-attrib $-1 $-1 $-1 $115 63 #
coedge $-1 $253 $116 $210 $258 0 $187 $-1 #
loop $259 $-1 $186 $260 #
edge_name-twe-attrib $-1 $-1 $-1 $117 18 8448 #
straight-curve $261 -0.8125 0 0.5 0 -1 0 #
point $-1 -0.8125 0.5 0.5 #
cur-twe-attrib $-1 $-1 $-1 $120 66 #
point $-1 -0.8125 0 0.5 #
cur-twe-attrib $-1 $-1 $-1 $123 67 #
edge_name-twe-attrib $-1 $-1 $-1 $124 23 8448 #
straight-curve $262 1.25 0.25 0.21875 0.758142505503435 -0.433224288859106 -0.487377324966494 #
face_name-twe-attrib $-1 $-1 $-1 $126 12 #
face $263 $264 $175 $3 $-1 $265 1 #
plane-surface $266 1.25 0 0.21875 -0.540757591313499 0 -0.841178475376554 -0.841178475376554 0 0.540757591313499 0 #
coedge $-1 $131 $130 $267 $268 0 $132 $-1 #
coedge $-1 $269 $139 $131 $201 0 $161 $-1 #
edge $270 $85 $271 $131 $272 0 #
loop_type-twe-attrib $-1 $-1 $-1 $132 0 #
face $273 $260 $132 $3 $-1 $274 1 #
cur-twe-attrib $-1 $-1 $-1 $134 75 #
coedge $-1 $275 $267 $135 $206 1 $224 $-1 #
edge $276 $255 $208 $205 $277 0 #
edge_name-twe-attrib $-1 $-1 $-1 $136 13 8704 #
vertex $-1 $268 $278 #
straight-curve $279 -1.25 0 -0.21875 -0.841178475376554 0 0.540757591313499 #
coedge $-1 $139 $269 $186 $258 1 $161 $-1 #
edge_name-twe-attrib $-1 $-1 $-1 $140 8 8448 #
straight-curve $280 -0.8125 0.5 -0.5 0 0 -1 #
loop_type-twe-attrib $-1 $-1 $-1 $143 1 #
coedge $-1 $281 $282 $246 $283 0 $143 $-1 #
edge_name-twe-attrib $-1 $-1 $-1 $147 20 8448 #
straight-curve $284 1.25 0 -0.21875 0 -1 0 #
point $-1 1.25 0.25 -0.21875 #
cur-twe-attrib $-1 $-1 $-1 $151 89 #
point $-1 1.25 0 -0.21875 #
cur-twe-attrib $-1 $-1 $-1 $154 90 #
surf-twe-attrib $-1 $-1 $-1 $156 92 #
cur-twe-attrib $-1 $-1 $-1 $158 93 #
face_name-twe-attrib $-1 $-1 $-1 $160 8 #
loop $285 $-1 $275 $160 #
plane-surface $286 -1.25 0.25 -0.5 -1 0 0 0 0 1 0 #
loop_type-twe-attrib $-1 $-1 $-1 $161 0 #
surf-twe-attrib $-1 $-1 $-1 $162 98 #
edge_name-twe-attrib $-1 $-1 $-1 $164 4 8448 #
straight-curve $287 1.25 0.25 -0.21875 0 0 -1 #
point $-1 1.25 0.25 0.21875 #
cur-twe-attrib $-1 $-1 $-1 $167 106 #
coedge $-1 $288 $289 $168 $233 0 $290 $-1 #
edge $291 $244 $238 $232 $292 0 #
coedge $-1 $293 $169 $174 $248 1 $236 $-1 #
coedge $-1 $169 $293 $288 $294 0 $236 $-1 #
loop $295 $-1 $169 $264 #
edge_name-twe-attrib $-1 $-1 $-1 $170 29 8704 #
vertex $-1 $294 $296 #
straight-curve $297 -0.4375 0 0.21875 -1 0 3.41607084500048e-17 #
coedge $-1 $298 $171 $289 $299 1 $242 $-1 #
coedge $-1 $171 $298 $173 $247 0 $242 $-1 #
loop $300 $-1 $171 $301 #
edge_name-twe-attrib $-1 $-1 $-1 $172 35 8704 #
vertex $-1 $299 $302 #
straight-curve $303 0.375 0 -0.21875 1 0 -3.41607084500048e-17 #
coedge $-1 $174 $173 $214 $283 1 $175 $-1 #
edge $304 $305 $178 $241 $306 0 #
edge $307 $308 $177 $234 $309 0 #
loop_type-twe-attrib $-1 $-1 $-1 $175 0 #
point $-1 -0.4375 0 0.21875 #
point $-1 -0.4375 0 -0.21875 #
cur-twe-attrib $-1 $-1 $-1 $179 110 #
coedge $-1 $180 $186 $275 $310 1 $187 $-1 #
edge_name-twe-attrib $-1 $-1 $-1 $181 17 8704 #
vertex $-1 $310 $311 #
straight-curve $312 -1.25 0 0.21875 -0.841178475376554 0 -0.540757591313499 #
cur-twe-attrib $-1 $-1 $-1 $183 112 #
edge $313 $119 $314 $186 $315 0 #
loop_type-twe-attrib $-1 $-1 $-1 $187 0 #
face $316 $92 $187 $3 $-1 $317 0 #
cur-twe-attrib $-1 $-1 $-1 $189 117 #
cur-twe-attrib $-1 $-1 $-1 $195 124 #
face_name-twe-attrib $-1 $-1 $-1 $197 13 #
face $318 $319 $236 $3 $-1 $320 1 #
cone-surface $321 -0.4375 0 0 0 1 0 0.21875 0 0 1 0 1 0 #
surf-twe-attrib $-1 $-1 $-1 $198 126 #
coedge $-1 $205 $322 $199 $268 1 $224 $-1 #
edge $323 $208 $271 $199 $324 0 #
coedge $-1 $210 $200 $322 $325 1 $161 $-1 #
edge_name-twe-attrib $-1 $-1 $-1 $201 11 8448 #
vertex $-1 $325 $326 #
straight-curve $327 -1.25 0.25 -0.21875 -0.758142505503435 -0.433224288859106 0.487377324966494 #
face_name-twe-attrib $-1 $-1 $-1 $203 9 #
plane-surface $328 -1.25 0 -0.21875 0.540757591313499 0 0.841178475376554 0.841178475376554 0 -0.540757591313499 0 #
coedge $-1 $322 $205 $253 $310 0 $224 $-1 #
edge_name-twe-attrib $-1 $-1 $-1 $206 10 8704 #
straight-curve $329 -1.25 0 -0.21875 0 0 -1 #
point $-1 -1.25 0 -0.21875 #
cur-twe-attrib $-1 $-1 $-1 $209 136 #
cur-twe-attrib $-1 $-1 $-1 $212 140 #
coedge $-1 $330 $214 $298 $331 0 $143 $-1 #
coedge $-1 $214 $330 $293 $332 0 $143 $-1 #
edge $333 $308 $305 $246 $334 0 #
cur-twe-attrib $-1 $-1 $-1 $216 147 #
loop_type-twe-attrib $-1 $-1 $-1 $224 0 #
surf-twe-attrib $-1 $-1 $-1 $225 160 #
cur-twe-attrib $-1 $-1 $-1 $229 164 #
coedge $-1 $335 $232 $235 $294 1 $290 $-1 #
coedge $-1 $232 $335 $240 $299 0 $290 $-1 #
loop $336 $-1 $232 $319 #
edge_name-twe-attrib $-1 $-1 $-1 $233 32 8704 #
ellipse-curve $337 0.375 0 0 0 -1 0 0 0 0.21875 1 #
coedge $-1 $235 $234 $282 $332 1 $236 $-1 #
edge $338 $339 $238 $288 $340 0 #
loop_type-twe-attrib $-1 $-1 $-1 $236 0 #
point $-1 0.375 0 0.21875 #
cur-twe-attrib $-1 $-1 $-1 $239 170 #
coedge $-1 $241 $240 $281 $331 1 $242 $-1 #
edge $341 $342 $244 $240 $343 0 #
loop_type-twe-attrib $-1 $-1 $-1 $242 0 #
face $344 $-1 $242 $3 $-1 $345 1 #
point $-1 0.375 0 -0.21875 #
cur-twe-attrib $-1 $-1 $-1 $245 172 #
edge_name-twe-attrib $-1 $-1 $-1 $247 38 20480 #
vertex $-1 $247 $346 #
straight-curve $347 -0.4375 0 -0.21875 0 -1 0 #
edge_name-twe-attrib $-1 $-1 $-1 $248 30 20480 #
vertex $-1 $248 $348 #
straight-curve $349 -0.4375 0 0.21875 0 -1 0 #
edge $350 $255 $314 $253 $351 0 #
point $-1 -1.25 0 0.21875 #
cur-twe-attrib $-1 $-1 $-1 $256 181 #
edge_name-twe-attrib $-1 $-1 $-1 $258 15 8448 #
vertex $-1 $325 $352 #
straight-curve $353 -1.25 0.25 0.21875 -0.758142505503435 -0.433224288859106 -0.487377324966494 #
face_name-twe-attrib $-1 $-1 $-1 $260 10 #
plane-surface $354 -1.25 0 0.21875 -0.540757591313499 0 0.841178475376554 0.841178475376554 0 0.540757591313499 0 #
face_name-twe-attrib $-1 $-1 $-1 $264 14 #
face $355 $301 $290 $3 $-1 $356 1 #
plane-surface $357 -0.4375 0 0.21875 0 0 1 1 0 0 0 #
surf-twe-attrib $-1 $-1 $-1 $265 197 #
coedge $-1 $267 $275 $269 $325 0 $224 $-1 #
edge_name-twe-attrib $-1 $-1 $-1 $268 14 8448 #
straight-curve $358 -1.25 0.25 -0.21875 0 1 0 #
edge $359 $314 $271 $322 $360 0 #
point $-1 -1.25 0.25 -0.21875 #
cur-twe-attrib $-1 $-1 $-1 $272 201 #
surf-twe-attrib $-1 $-1 $-1 $274 203 #
cur-twe-attrib $-1 $-1 $-1 $277 206 #
coedge $-1 $282 $281 $335 $361 0 $143 $-1 #
edge $362 $305 $342 $298 $363 0 #
edge $364 $339 $308 $293 $365 0 #
edge_name-twe-attrib $-1 $-1 $-1 $283 28 8704 #
ellipse-curve $366 -0.4375 0.5 0 0 -1 0 0 0 -0.21875 1 #
coedge $-1 $289 $288 $330 $361 1 $290 $-1 #
loop_type-twe-attrib $-1 $-1 $-1 $290 0 #
cur-twe-attrib $-1 $-1 $-1 $292 233 #
edge_name-twe-attrib $-1 $-1 $-1 $294 33 20480 #
vertex $-1 $294 $367 #
straight-curve $368 0.375 0 0.21875 0 -1 -5.55111512312578e-17 #
edge_name-twe-attrib $-1 $-1 $-1 $299 36 20480 #
vertex $-1 $299 $369 #
straight-curve $370 0.375 0 -0.21875 0 -1 0 #
face_name-twe-attrib $-1 $-1 $-1 $301 16 #
plane-surface $371 0.375 0 -0.21875 0 0 -1 -1 0 0 0 #
point $-1 -0.4375 0.5 -0.21875 #
cur-twe-attrib $-1 $-1 $-1 $306 247 #
point $-1 -0.4375 0.5 0.21875 #
cur-twe-attrib $-1 $-1 $-1 $309 248 #
edge_name-twe-attrib $-1 $-1 $-1 $310 16 8448 #
straight-curve $372 -1.25 0.25 0.21875 0 1 0 #
point $-1 -1.25 0.25 0.21875 #
cur-twe-attrib $-1 $-1 $-1 $315 258 #
surf-twe-attrib $-1 $-1 $-1 $317 260 #
face_name-twe-attrib $-1 $-1 $-1 $319 15 #
cone-surface $373 0.375 0 0 0 1 0 0.21875 0 0 1 0 1 0 #
surf-twe-attrib $-1 $-1 $-1 $320 264 #
cur-twe-attrib $-1 $-1 $-1 $324 268 #
edge_name-twe-attrib $-1 $-1 $-1 $325 9 8448 #
straight-curve $374 -1.25 0.25 -0.21875 0 0 -1 #
edge $375 $342 $339 $335 $376 0 #
edge_name-twe-attrib $-1 $-1 $-1 $331 37 8704 #
straight-curve $377 0.375 0.5 -0.21875 1 0 -3.41607084500048e-17 #
edge_name-twe-attrib $-1 $-1 $-1 $332 31 8704 #
straight-curve $378 -0.4375 0.5 0.21875 -1 0 0 #
cur-twe-attrib $-1 $-1 $-1 $334 283 #
point $-1 0.375 0.5 0.21875 #
cur-twe-attrib $-1 $-1 $-1 $340 294 #
point $-1 0.375 0.5 -0.21875 #
cur-twe-attrib $-1 $-1 $-1 $343 299 #
surf-twe-attrib $-1 $-1 $-1 $345 301 #
cur-twe-attrib $-1 $-1 $-1 $351 310 #
surf-twe-attrib $-1 $-1 $-1 $356 319 #
cur-twe-attrib $-1 $-1 $-1 $360 325 #
edge_name-twe-attrib $-1 $-1 $-1 $361 34 8704 #
ellipse-curve $379 0.375 0.5 0 0 -1 0 0 0 0.21875 1 #
cur-twe-attrib $-1 $-1 $-1 $363 331 #
cur-twe-attrib $-1 $-1 $-1 $365 332 #
cur-twe-attrib $-1 $-1 $-1 $376 361 #
