600 0 2 0           
24 FBMach with ACIS - 6.0.3 13 ACIS 6.0.3 NT 24 Wed May 23 21:58:22 2001 
1 9.9999999999999995e-007 1e-010 
body $2 $3 $-1 $4 #
bdycol-kcp $-1 1 5 $5 $6 $7 $8 $9 #
model_id-kcp-attrib $-1 $-1 $-1 $0 1 990669502 60 -1606680575 1 #
lump $-1 $-1 $10 $0 #
transform $-1 1.0000000000000004 0 5.5511151231257827e-017 0 1 0 -5.5511151231257827e-017 0 1.0000000000000004 4.4408920985006262e-016 -1.1102230246251565e-016 1.1102230246251565e-016 1 rotate no_reflect no_shear #
body $11 $12 $-1 $13 #
body $14 $15 $-1 $16 #
body $17 $18 $-1 $19 #
body $20 $21 $-1 $22 #
body $23 $24 $-1 $25 #
shell $-1 $-1 $-1 $26 $-1 $3 #
model_id-kcp-attrib $-1 $-1 $-1 $5 1 990669502 60 -1606680574 1 #
lump $-1 $-1 $27 $5 #
transform $-1 1 0 0 0 1 0 0 0 1 0 0.25000000000000011 0 1 no_rotate no_reflect no_shear #
rgb_color-st-attrib $-1 $28 $-1 $6 0.5 1 1 #
lump $-1 $29 $30 $6 #
transform $-1 1 0 0 0 1 0 0 0 1 0 0.25000000000000011 0 1 no_rotate no_reflect no_shear #
rgb_color-st-attrib $-1 $31 $-1 $7 0.5 0.5 1 #
lump $-1 $-1 $32 $7 #
transform $-1 1 0 0 0 1 0 0 0 1 0 0.25000000000000011 0 1 no_rotate no_reflect no_shear #
rgb_color-st-attrib $-1 $33 $-1 $8 0.5 0.5 1 #
lump $-1 $-1 $34 $8 #
transform $-1 1 0 0 0 1 0 0 0 1 0 0.25000000000000011 0 1 no_rotate no_reflect no_shear #
rgb_color-st-attrib $-1 $35 $-1 $9 0.5 1 1 #
lump $-1 $-1 $36 $9 #
transform $-1 1 0 0 0 1 0 0 0 1 0 0 0 1 no_rotate no_reflect no_shear #
face $37 $38 $39 $10 $-1 $40 reversed single #
shell $-1 $-1 $-1 $41 $-1 $12 #
model_id-kcp-attrib $-1 $-1 $14 $6 1 990669502 440 -1598554109 1 #
lump $-1 $42 $43 $6 #
shell $-1 $-1 $-1 $44 $-1 $15 #
model_id-kcp-attrib $-1 $-1 $17 $7 1 990669502 540 -1608777724 1 #
shell $-1 $-1 $-1 $45 $-1 $18 #
model_id-kcp-attrib $-1 $-1 $20 $8 1 990669502 550 -1608122363 1 #
shell $-1 $-1 $-1 $46 $-1 $21 #
model_id-kcp-attrib $-1 $-1 $23 $9 1 990669502 570 -1606811642 1 #
shell $-1 $-1 $-1 $47 $-1 $24 #
model_id-kcp-attrib $-1 $48 $-1 $26 1 990669502 60 -1606680575 2 #
face $49 $50 $51 $10 $-1 $52 forward single #
loop $53 $-1 $54 $26 #
plane-surface $55 0 0 -0.5 0 0 1 1 0 0 forward_v I I I I #
face $56 $57 $58 $27 $-1 $59 forward single #
lump $-1 $60 $61 $6 #
shell $-1 $-1 $-1 $62 $-1 $29 #
face $-1 $63 $64 $30 $-1 $65 reversed single #
face $-1 $66 $67 $32 $-1 $68 reversed single #
face $-1 $69 $70 $34 $-1 $71 reversed single #
face $-1 $72 $73 $36 $-1 $74 forward single #
face_name-twe-attrib $-1 $-1 $37 $26 1 #
model_id-kcp-attrib $-1 $75 $-1 $38 1 990669502 60 -1606680575 3 #
face $76 $77 $78 $10 $-1 $79 forward single #
loop $80 $-1 $81 $38 #
plane-surface $82 0 0 0.5 0 0 1 1 0 0 forward_v I I I I #
loop_type-twe-attrib $-1 $-1 $-1 $39 0 #
coedge $-1 $83 $84 $85 $86 forward $39 $-1 #
surf-twe-attrib $-1 $-1 $-1 $40 4 #
model_id-kcp-attrib $-1 $-1 $-1 $41 1 990669502 60 -1606680574 3 #
face $87 $88 $89 $27 $-1 $90 reversed single #
loop $-1 $-1 $91 $41 #
plane-surface $-1 0 0 0.50000000000000011 0 0 1 1 0 0 forward_v I I I I #
lump $-1 $-1 $92 $6 #
shell $-1 $-1 $-1 $93 $-1 $42 #
face $-1 $94 $95 $43 $-1 $96 forward single #
face $-1 $97 $98 $30 $-1 $99 reversed single #
loop $-1 $-1 $100 $44 #
plane-surface $-1 1.25 -0.25000000000000011 -0.21875 0.54075759131349876 0 -0.84117847537655366 0 1 0 forward_v I I I I #
face $-1 $101 $102 $32 $-1 $103 reversed single #
loop $-1 $-1 $104 $45 #
plane-surface $-1 1.0312499999999998 0.125 0 0.49613893835683404 0.86824314212445908 0 -0.86824314212445908 0.49613893835683404 0 forward_v I I I I #
face $-1 $105 $106 $34 $-1 $107 reversed single #
loop $-1 $-1 $108 $46 #
plane-surface $-1 -1.0312499999999998 0.12499999999999956 0 -0.49613893835683404 0.86824314212445908 0 -0.86824314212445908 -0.49613893835683404 0 forward_v I I I I #
face $-1 $109 $110 $36 $-1 $111 forward single #
loop $-1 $-1 $112 $47 #
plane-surface $-1 -0.4375 0 -0.21875 -3.41607084500048e-017 0 -1 -1 0 3.41607084500048e-017 forward_v I I I I #
face_name-twe-attrib $-1 $-1 $49 $38 2 #
model_id-kcp-attrib $-1 $113 $-1 $50 1 990669502 60 -1606680575 18 #
face $114 $115 $116 $10 $-1 $117 forward single #
loop $118 $119 $120 $50 #
plane-surface $121 -1.25 0 -0.5 0 -1 0 0 0 -1 forward_v I I I I #
loop_type-twe-attrib $-1 $-1 $-1 $51 0 #
coedge $-1 $122 $123 $124 $125 reversed $51 $-1 #
surf-twe-attrib $-1 $-1 $-1 $52 6 #
coedge $-1 $126 $54 $127 $128 forward $39 $-1 #
coedge $-1 $54 $126 $129 $130 forward $39 $-1 #
coedge $-1 $131 $132 $54 $86 reversed $133 $-1 #
edge $134 $135 -0.5 $136 0 $85 $137 forward 7 unknown #
model_id-kcp-attrib $-1 $-1 $-1 $57 1 990669502 60 -1606680574 2 #
face $138 $139 $140 $27 $-1 $141 reversed single #
loop $-1 $-1 $142 $57 #
plane-surface $-1 0 0 -0.50000000000000011 0 0 1 1 0 0 forward_v I I I I #
coedge $-1 $143 $144 $145 $146 forward $58 $-1 #
shell $-1 $-1 $-1 $147 $-1 $60 #
face $-1 $148 $149 $61 $-1 $150 reversed single #
face $-1 $151 $152 $43 $-1 $153 reversed single #
loop $-1 $-1 $154 $62 #
plane-surface $-1 0 0 0.50000000000000011 0 0 1 1 0 0 forward_v I I I I #
face $-1 $155 $156 $30 $-1 $157 reversed single #
loop $-1 $-1 $158 $63 #
plane-surface $-1 0 0.25000000000000011 0 0 -1 0 0 0 -1 forward_v I I I I #
coedge $-1 $159 $160 $158 $161 reversed $64 $-1 #
face $-1 $162 $163 $32 $-1 $164 forward single #
loop $-1 $-1 $165 $66 #
plane-surface $-1 0 0.25000000000000011 0 0 -1 0 0 0 -1 forward_v I I I I #
coedge $-1 $166 $167 $168 $169 forward $67 $-1 #
face $-1 $170 $171 $34 $-1 $172 forward single #
loop $-1 $-1 $173 $69 #
plane-surface $-1 0 0.25000000000000011 0 0 -1 0 0 0 -1 forward_v I I I I #
coedge $-1 $174 $175 $176 $177 forward $70 $-1 #
face $-1 $178 $179 $36 $-1 $180 forward single #
loop $-1 $-1 $181 $72 #
cone-surface $-1 0.375 0 0 0 1 0 0 0 0.21875 1 I I 0 1 0.21875 forward I I I I #
coedge $-1 $182 $183 $184 $185 forward $73 $-1 #
model_id-kcp-attrib $-1 $186 $76 $50 1 990669502 60 -1606680575 4 #
model_id-kcp-attrib $-1 $187 $-1 $77 1 990669502 60 -1606680575 5 #
face $188 $189 $190 $10 $-1 $191 forward single #
loop $192 $-1 $193 $77 #
plane-surface $194 1.25 0 -0.5 1 0 0 0 0 -1 forward_v I I I I #
loop_type-twe-attrib $-1 $-1 $-1 $78 0 #
loop $195 $-1 $196 $50 #
coedge $-1 $197 $198 $199 $200 reversed $78 $-1 #
surf-twe-attrib $-1 $-1 $-1 $79 10 #
coedge $-1 $201 $81 $202 $203 reversed $51 $-1 #
coedge $-1 $81 $201 $197 $204 reversed $51 $-1 #
coedge $-1 $199 $205 $81 $125 forward $206 $-1 #
edge $207 $208 -0.5 $209 0 $124 $210 forward 7 unknown #
coedge $-1 $84 $83 $211 $212 reversed $39 $-1 #
coedge $-1 $213 $214 $83 $128 reversed $78 $-1 #
edge $215 $136 -1.625 $216 0 $127 $217 forward 7 unknown #
coedge $-1 $218 $219 $84 $130 reversed $220 $-1 #
edge $221 $222 -1.625 $135 0 $129 $223 forward 7 unknown #
coedge $-1 $224 $85 $225 $226 forward $133 $-1 #
coedge $-1 $85 $224 $213 $227 reversed $133 $-1 #
loop $228 $-1 $131 $229 #
attrib_edge_convexity-kcp-attrib $-1 $230 $-1 $86 1 #
vertex $-1 $231 $232 #
vertex $-1 $227 $233 #
straight-curve $234 0.8125 0 -0.5 0 -1 0 I I #
model_id-kcp-attrib $-1 $-1 $-1 $88 1 990669502 60 -1606680574 4 #
face $235 $236 $237 $27 $-1 $238 reversed single #
loop $-1 $-1 $239 $88 #
plane-surface $-1 0 -0.25000000000000011 0 0 1 0 0 0 1 forward_v I I I I #
coedge $-1 $240 $241 $242 $243 forward $89 $-1 #
coedge $-1 $244 $91 $245 $246 forward $58 $-1 #
coedge $-1 $91 $244 $247 $248 forward $58 $-1 #
coedge $-1 $249 $250 $91 $146 reversed $251 $-1 #
edge $-1 $252 -0.25000000000000011 $253 0.25000000000000011 $145 $254 forward 7 unknown #
face $-1 $255 $256 $92 $-1 $257 reversed single #
face $-1 $258 $259 $61 $-1 $257 reversed single #
loop $-1 $-1 $260 $93 #
plane-surface $-1 -1.25 -0.25000000000000011 0.21875 -0.54075759131349876 0 0.84117847537655366 0 -1 0 forward_v I I I I #
face $-1 $261 $262 $43 $-1 $99 reversed single #
loop $-1 $-1 $263 $94 #
plane-surface $-1 0 -0.25000000000000011 0 0 1 0 0 0 1 forward_v I I I I #
coedge $-1 $264 $265 $266 $267 forward $95 $-1 #
face $-1 $268 $269 $30 $-1 $153 reversed single #
loop $-1 $-1 $270 $97 #
plane-surface $-1 0 0 -0.50000000000000011 0 0 1 1 0 0 forward_v I I I I #
coedge $-1 $271 $272 $100 $161 forward $98 $-1 #
coedge $-1 $273 $100 $270 $274 reversed $64 $-1 #
coedge $-1 $100 $273 $275 $276 reversed $64 $-1 #
edge $-1 $277 -0.053512469973731672 $278 0.46659118556043211 $158 $279 forward 7 unknown #
face $-1 $280 $281 $32 $-1 $282 forward single #
loop $-1 $-1 $168 $101 #
plane-surface $-1 0.8125 -0.25000000000000011 0.5 0.54075759131349876 0 0.84117847537655366 0 1 0 forward_v I I I I #
coedge $-1 $283 $284 $166 $285 reversed $102 $-1 #
coedge $-1 $286 $104 $165 $285 forward $67 $-1 #
coedge $-1 $104 $286 $287 $288 forward $67 $-1 #
coedge $-1 $289 $290 $104 $169 reversed $163 $-1 #
edge $291 $292 -0.23691953296982365 $293 0.34014875804953237 $168 $294 forward 7 unknown #
face $-1 $295 $296 $34 $-1 $297 forward single #
loop $-1 $-1 $176 $105 #
plane-surface $-1 -0.8125 -0.25000000000000011 -0.5 -0.54075759131349876 0 -0.84117847537655366 0 -1 0 forward_v I I I I #
coedge $-1 $298 $299 $174 $300 reversed $106 $-1 #
coedge $-1 $301 $108 $173 $300 forward $70 $-1 #
coedge $-1 $108 $301 $302 $303 forward $70 $-1 #
coedge $-1 $304 $305 $108 $177 reversed $171 $-1 #
edge $306 $307 -0.23691953296982368 $308 0.34014875804953248 $176 $309 forward 7 unknown #
face $-1 $310 $311 $36 $-1 $312 forward single #
loop $-1 $-1 $313 $109 #
plane-surface $-1 0.375 0 0.21875 3.41607084500048e-017 0 1 1 0 -3.41607084500048e-017 forward_v I I I I #
coedge $-1 $314 $315 $316 $317 forward $110 $-1 #
coedge $-1 $318 $112 $315 $319 reversed $73 $-1 #
coedge $-1 $112 $318 $320 $321 forward $73 $-1 #
coedge $-1 $322 $316 $112 $185 reversed $323 $-1 #
edge $-1 $324 -0.8125 $325 0 $112 $326 forward 7 unknown #
face_name-twe-attrib $-1 $-1 $113 $50 3 #
face_name-twe-attrib $-1 $-1 $114 $77 4 #
model_id-kcp-attrib $-1 $327 $-1 $115 1 990669502 60 -1606680575 6 #
face $328 $329 $220 $10 $-1 $330 forward single #
loop $331 $-1 $332 $115 #
plane-surface $333 1.25 0.25 -0.5 0.49613893835683404 0.86824314212445908 0 0 0 1 forward_v I I I I #
loop_type-twe-attrib $-1 $-1 $-1 $116 0 #
coedge $-1 $334 $335 $336 $337 forward $116 $-1 #
surf-twe-attrib $-1 $-1 $-1 $117 17 #
loop_type-twe-attrib $-1 $-1 $-1 $119 1 #
coedge $-1 $338 $339 $340 $341 reversed $119 $-1 #
coedge $-1 $342 $120 $123 $204 forward $78 $-1 #
coedge $-1 $120 $213 $334 $343 reversed $78 $-1 #
coedge $-1 $336 $124 $120 $200 forward $206 $-1 #
edge $344 $209 -0.5201036555341636 $345 0 $199 $346 forward 7 unknown #
coedge $-1 $123 $122 $347 $348 forward $51 $-1 #
coedge $-1 $219 $218 $122 $203 forward $220 $-1 #
edge $349 $350 -1.625 $208 0 $202 $351 forward 7 unknown #
edge $352 $209 -1.625 $353 0 $197 $354 forward 7 unknown #
coedge $-1 $124 $336 $332 $355 reversed $206 $-1 #
loop $356 $-1 $205 $357 #
edge_name-twe-attrib $-1 $-1 $-1 $125 24 8448 #
vertex $-1 $231 $358 #
vertex $-1 $200 $359 #
straight-curve $360 0.8125 0 0.5 0 -1 0 I I #
coedge $-1 $361 $362 $126 $212 forward $363 $-1 #
edge $364 $222 -0.5 $216 0 $211 $365 forward 7 unknown #
coedge $-1 $198 $127 $132 $227 forward $78 $-1 #
coedge $-1 $127 $366 $361 $367 reversed $78 $-1 #
attrib_edge_convexity-kcp-attrib $-1 $368 $-1 $128 1 #
vertex $-1 $367 $369 #
straight-curve $370 -0.8125 0 -0.5 -1 0 0 I I #
coedge $-1 $202 $129 $371 $372 reversed $220 $-1 #
coedge $-1 $129 $202 $373 $231 forward $220 $-1 #
loop $374 $375 $202 $189 #
model_id-kcp-attrib $-1 $376 $-1 $130 1 990669502 60 -1606680575 22 #
vertex $-1 $372 $377 #
straight-curve $378 0.8125 0.5 -0.5 1 0 0 I I #
coedge $-1 $132 $131 $379 $380 forward $133 $-1 #
coedge $-1 $373 $381 $131 $226 reversed $190 $-1 #
edge $382 $135 -0.57706829101935597 $383 0 $131 $384 forward 7 unknown #
edge $385 $136 -0.5201036555341636 $386 0 $132 $387 forward 7 unknown #
loop_type-twe-attrib $-1 $-1 $-1 $133 0 #
face $388 $357 $133 $10 $-1 $389 forward single #
convexity-sys-attrib $-1 $390 $134 $86 #
edge $391 $208 -1 $135 0 $219 $392 forward 7 unknown #
point $-1 0.8125 0.5 -0.5 #
point $-1 0.8125 0 -0.5 #
cur-twe-attrib $-1 $-1 $-1 $137 26 #
model_id-kcp-attrib $-1 $-1 $-1 $139 1 990669502 60 -1606680574 7 #
face $393 $394 $395 $27 $-1 $396 reversed single #
loop $-1 $-1 $397 $139 #
plane-surface $-1 -1.25 0 0 1 0 0 0 0 -1 forward_v I I I I #
coedge $-1 $398 $247 $399 $400 forward $140 $-1 #
coedge $-1 $401 $142 $398 $402 forward $89 $-1 #
coedge $-1 $142 $401 $403 $404 forward $89 $-1 #
coedge $-1 $250 $249 $142 $243 reversed $251 $-1 #
edge $-1 $405 -0.25000000000000011 $406 0.25000000000000011 $242 $407 forward 7 unknown #
coedge $-1 $144 $143 $408 $409 forward $58 $-1 #
coedge $-1 $410 $411 $143 $246 reversed $395 $-1 #
edge $-1 $253 -1.25 $412 1.25 $245 $413 forward 7 unknown #
coedge $-1 $239 $414 $144 $248 reversed $140 $-1 #
edge $-1 $415 -1.25 $252 1.25 $247 $416 forward 7 unknown #
coedge $-1 $242 $145 $414 $417 forward $251 $-1 #
coedge $-1 $145 $242 $410 $418 reversed $251 $-1 #
loop $-1 $-1 $249 $394 #
vertex $-1 $146 $419 #
vertex $-1 $146 $420 #
straight-curve $-1 1.25 0 0.50000000000000011 0 1 0 I I #
face $-1 $421 $422 $92 $-1 $153 reversed single #
loop $-1 $-1 $423 $147 #
plane-surface $-1 -1.25 0 0 1 0 0 0 0 -1 forward_v I I I I #
face $-1 $424 $425 $61 $-1 $99 reversed single #
loop $-1 $-1 $426 $148 #
coedge $-1 $427 $428 $429 $430 reversed $149 $-1 #
face $-1 $431 $432 $43 $-1 $433 reversed single #
loop $-1 $-1 $434 $151 #
coedge $-1 $435 $436 $437 $438 forward $152 $-1 #
coedge $-1 $439 $154 $436 $440 forward $95 $-1 #
coedge $-1 $154 $439 $441 $442 forward $95 $-1 #
coedge $-1 $443 $437 $154 $267 reversed $444 $-1 #
edge $-1 $445 -0.37500000000000017 $446 0.12500000000000006 $154 $447 forward 7 unknown #
face $-1 $-1 $448 $30 $-1 $433 reversed single #
loop $-1 $-1 $449 $155 #
coedge $-1 $450 $451 $159 $274 forward $156 $-1 #
coedge $-1 $272 $158 $452 $453 forward $98 $-1 #
coedge $-1 $158 $271 $450 $454 reversed $98 $-1 #
coedge $-1 $160 $159 $449 $455 reversed $64 $-1 #
edge $-1 $456 -0.12500000000000006 $277 0.37500000000000017 $270 $457 forward 7 unknown #
coedge $-1 $458 $452 $160 $276 forward $448 $-1 #
edge $-1 $278 -0.37500000000000017 $459 0.12500000000000006 $275 $460 forward 7 unknown #
vertex $-1 $454 $461 #
vertex $-1 $453 $462 #
straight-curve $-1 0.85751353790613727 0.25000000000000011 -0.47106272563176904 0.84117847537655366 0 0.54075759131349876 I I #
face $-1 $-1 $463 $32 $-1 $464 reversed single #
loop $-1 $-1 $465 $162 #
plane-surface $-1 1.25 -0.25000000000000011 -0.21875 0.54075759131349876 0 -0.84117847537655366 0 1 0 forward_v I I I I #
coedge $-1 $466 $165 $290 $467 forward $102 $-1 #
coedge $-1 $165 $466 $468 $469 forward $102 $-1 #
edge $470 $293 -0.5 $471 0.5 $165 $472 forward 7 unknown #
coedge $-1 $167 $166 $465 $473 forward $67 $-1 #
coedge $-1 $474 $475 $167 $288 reversed $463 $-1 #
edge $476 $477 -0.21875000000000006 $292 0.21875 $287 $478 forward 7 unknown #
coedge $-1 $290 $168 $475 $479 reversed $163 $-1 #
coedge $-1 $168 $289 $283 $467 reversed $163 $-1 #
convexity-sys-attrib $-1 $-1 $-1 $169 #
vertex $-1 $169 $480 #
vertex $-1 $169 $481 #
straight-curve $-1 1.0703812316715542 0.10263929618768314 0.33421920821114381 -0.7581425055034352 0.43322428885910608 0.48737732496649405 I I #
face $-1 $-1 $482 $34 $-1 $483 reversed single #
loop $-1 $-1 $484 $170 #
plane-surface $-1 -1.25 -0.25000000000000011 0.21875 -0.54075759131349876 0 0.84117847537655366 0 -1 0 forward_v I I I I #
coedge $-1 $485 $173 $305 $486 forward $106 $-1 #
coedge $-1 $173 $485 $487 $488 forward $106 $-1 #
edge $489 $308 -0.5 $490 0.50000000000000011 $173 $491 forward 7 unknown #
coedge $-1 $175 $174 $484 $492 forward $70 $-1 #
coedge $-1 $493 $494 $175 $303 reversed $482 $-1 #
edge $495 $496 -0.21875000000000006 $307 0.21875 $302 $497 forward 7 unknown #
coedge $-1 $305 $176 $494 $498 reversed $171 $-1 #
coedge $-1 $176 $304 $298 $486 reversed $171 $-1 #
convexity-sys-attrib $-1 $-1 $-1 $177 #
vertex $-1 $177 $499 #
vertex $-1 $177 $500 #
straight-curve $-1 -1.0703812316715542 0.10263929618768278 -0.33421920821114381 0.7581425055034352 0.43322428885910608 -0.48737732496649405 I I #
face $-1 $501 $323 $36 $-1 $502 forward single #
loop $-1 $-1 $503 $178 #
cone-surface $-1 -0.4375 0 0 0 1 0 0 0 -0.21875 1 I I 0 1 0.21875 forward I I I I #
coedge $-1 $504 $505 $506 $507 forward $179 $-1 #
coedge $-1 $508 $181 $505 $509 reversed $110 $-1 #
coedge $-1 $181 $508 $182 $319 forward $110 $-1 #
coedge $-1 $184 $506 $181 $317 reversed $323 $-1 #
edge $-1 $325 -3.1415926535897931 $510 0 $181 $511 forward 7 unknown #
coedge $-1 $183 $182 $512 $513 reversed $73 $-1 #
edge $-1 $514 0 $325 0.5 $315 $515 forward 7 unknown #
coedge $-1 $516 $503 $183 $321 reversed $311 $-1 #
edge $-1 $517 0 $324 0.5 $183 $518 forward 7 unknown #
coedge $-1 $506 $184 $503 $519 reversed $323 $-1 #
loop $-1 $-1 $184 $310 #
vertex $-1 $321 $520 #
vertex $-1 $319 $521 #
straight-curve $-1 0.375 0.5 -0.21875 1 0 -3.41607084500048e-017 I I #
face_name-twe-attrib $-1 $-1 $188 $115 5 #
model_id-kcp-attrib $-1 $522 $-1 $189 1 990669502 60 -1606680575 7 #
face $523 $524 $525 $10 $-1 $526 forward single #
plane-surface $527 0.8125 0.5 -0.5 0 1 0 0 0 1 forward_v I I I I #
loop_type-twe-attrib $-1 $-1 $-1 $190 0 #
coedge $-1 $381 $373 $205 $355 forward $190 $-1 #
surf-twe-attrib $-1 $-1 $-1 $191 28 #
coedge $-1 $379 $193 $198 $343 forward $116 $-1 #
coedge $-1 $193 $379 $381 $528 reversed $116 $-1 #
coedge $-1 $205 $199 $193 $337 reversed $206 $-1 #
edge $529 $530 -0.25 $345 0 $336 $531 forward 7 unknown #
coedge $-1 $532 $196 $533 $534 reversed $119 $-1 #
coedge $-1 $196 $532 $535 $536 reversed $119 $-1 #
coedge $-1 $537 $538 $196 $341 forward $539 $-1 #
edge $540 $541 -3.1415926535897931 $542 0 $340 $543 forward 7 unknown #
coedge $-1 $366 $197 $544 $545 forward $78 $-1 #
edge $546 $345 -0.4375 $386 0 $334 $547 forward 7 unknown #
attrib_edge_convexity-kcp-attrib $-1 $548 $-1 $200 1 #
vertex $-1 $343 $549 #
straight-curve $550 1.25 0 0.21875 0.84117847537655399 0 -0.54075759131349899 I I #
coedge $-1 $551 $544 $201 $348 reversed $552 $-1 #
edge $553 $350 -0.5 $353 0 $347 $554 forward 7 unknown #
model_id-kcp-attrib $-1 $555 $-1 $203 1 990669502 60 -1606680575 20 #
vertex $-1 $372 $556 #
straight-curve $557 0.8125 0.5 0.5 1 0 0 I I #
attrib_edge_convexity-kcp-attrib $-1 $558 $-1 $204 1 #
vertex $-1 $545 $559 #
straight-curve $560 -0.8125 0 0.5 -1 0 0 I I #
edge $561 $208 -0.57706829101935597 $530 0 $205 $562 forward 7 unknown #
loop_type-twe-attrib $-1 $-1 $-1 $206 0 #
face $563 $564 $206 $10 $-1 $565 reversed single #
point $-1 0.8125 0.5 0.5 #
point $-1 0.8125 0 0.5 #
cur-twe-attrib $-1 $-1 $-1 $210 38 #
coedge $-1 $566 $211 $214 $367 forward $363 $-1 #
coedge $-1 $211 $566 $567 $568 reversed $363 $-1 #
loop $569 $-1 $362 $570 #
attrib_edge_convexity-kcp-attrib $-1 $571 $-1 $212 1 #
straight-curve $572 -0.8125 0 -0.5 0 -1 0 I I #
coedge $-1 $214 $342 $573 $574 forward $78 $-1 #
edge $575 $216 -0.5201036555341636 $576 0 $361 $577 forward 7 unknown #
convexity-sys-attrib $-1 $578 $215 $128 #
point $-1 -0.8125 0 -0.5 #
cur-twe-attrib $-1 $-1 $-1 $217 41 #
coedge $-1 $567 $579 $218 $372 forward $525 $-1 #
edge $580 $350 -1 $222 0 $371 $581 forward 7 unknown #
coedge $-1 $332 $225 $219 $231 reversed $190 $-1 #
loop_type-twe-attrib $-1 $-1 $-1 $220 0 #
loop $582 $-1 $583 $189 #
attrib_edge_convexity-kcp-attrib $-1 $584 $221 $130 1 #
point $-1 -0.8125 0.5 -0.5 #
cur-twe-attrib $-1 $-1 $-1 $223 43 #
coedge $-1 $335 $334 $224 $380 reversed $116 $-1 #
edge $585 $383 -0.25 $386 0 $224 $586 forward 7 unknown #
coedge $-1 $225 $332 $335 $528 forward $190 $-1 #
attrib_edge_convexity-kcp-attrib $-1 $587 $-1 $226 1 #
vertex $-1 $528 $588 #
straight-curve $589 1.25 0.25 -0.21875 0.75814250550343498 -0.43322428885910602 0.487377324966494 I I #
attrib_edge_convexity-kcp-attrib $-1 $590 $-1 $227 1 #
vertex $-1 $343 $591 #
straight-curve $592 1.25 0 -0.21875 0.84117847537655399 0 0.54075759131349899 I I #
model_id-kcp-attrib $-1 $593 $-1 $229 1 990669502 60 -1606680575 12 #
plane-surface $594 1.25 0 -0.21875 0.54075759131349876 0 -0.84117847537655366 -0.84117847537655399 0 -0.54075759131349899 forward_v I I I I #
edge_name-twe-attrib $-1 $-1 $230 $86 22 8448 #
attrib_edge_convexity-kcp-attrib $-1 $595 $-1 $231 1 #
straight-curve $596 0.8125 0.5 -0.5 0 0 -1 I I #
model_id-kcp-attrib $-1 $-1 $-1 $236 1 990669502 60 -1606680574 6 #
face $597 $-1 $251 $27 $-1 $598 reversed single #
loop $-1 $-1 $410 $236 #
plane-surface $-1 0 0.25000000000000011 0 0 -1 0 0 0 -1 forward_v I I I I #
coedge $-1 $599 $408 $411 $600 forward $237 $-1 #
coedge $-1 $414 $239 $240 $402 reversed $140 $-1 #
coedge $-1 $408 $599 $239 $400 reversed $237 $-1 #
edge $-1 $415 -0.50000000000000011 $601 0.50000000000000011 $399 $602 forward 7 unknown #
coedge $-1 $241 $240 $599 $603 forward $89 $-1 #
edge $-1 $406 -1.25 $601 1.25 $398 $604 forward 7 unknown #
coedge $-1 $411 $410 $241 $404 reversed $395 $-1 #
edge $-1 $605 -1.25 $405 1.25 $403 $606 forward 7 unknown #
vertex $-1 $243 $607 #
vertex $-1 $417 $608 #
straight-curve $-1 1.25 0 -0.50000000000000011 0 -1 0 I I #
coedge $-1 $397 $399 $244 $409 reversed $237 $-1 #
edge $-1 $412 -0.25000000000000011 $415 0.25000000000000011 $408 $609 forward 7 unknown #
coedge $-1 $403 $245 $250 $418 forward $395 $-1 #
coedge $-1 $245 $403 $397 $600 reversed $395 $-1 #
vertex $-1 $246 $610 #
straight-curve $-1 0 0.25000000000000011 0.50000000000000011 -1 0 0 I I #
coedge $-1 $247 $398 $249 $417 reversed $140 $-1 #
vertex $-1 $409 $611 #
straight-curve $-1 0 -0.25000000000000011 0.50000000000000011 1 0 0 I I #
edge $-1 $252 -0.50000000000000011 $406 0.50000000000000011 $249 $612 forward 7 unknown #
edge $-1 $253 -0.50000000000000011 $405 0.50000000000000011 $250 $613 forward 7 unknown #
point $-1 1.25 -0.25000000000000011 0.50000000000000011 #
point $-1 1.25 0.25000000000000011 0.50000000000000011 #
face $-1 $614 $615 $92 $-1 $99 reversed single #
loop $-1 $-1 $616 $255 #
coedge $-1 $617 $618 $619 $620 forward $256 $-1 #
face $-1 $621 $622 $61 $-1 $153 reversed single #
loop $-1 $-1 $429 $258 #
coedge $-1 $623 $624 $428 $625 forward $259 $-1 #
coedge $-1 $626 $260 $627 $628 reversed $149 $-1 #
coedge $-1 $260 $626 $426 $625 reversed $149 $-1 #
coedge $-1 $629 $630 $260 $430 forward $425 $-1 #
edge $-1 $631 -0.053512469973731921 $632 0.46659118556043211 $429 $633 forward 7 unknown #
face $-1 $-1 $444 $43 $-1 $634 reversed single #
loop $-1 $-1 $635 $261 #
plane-surface $-1 1.25 0 0 -1 0 0 0 0 1 forward_v I I I I #
coedge $-1 $441 $636 $443 $637 forward $262 $-1 #
coedge $-1 $436 $263 $638 $639 reversed $152 $-1 #
coedge $-1 $263 $435 $264 $440 reversed $152 $-1 #
coedge $-1 $266 $640 $263 $438 reversed $444 $-1 #
edge $-1 $446 0.2065393577933502 $641 0.72664301332751391 $263 $642 forward 7 unknown #
coedge $-1 $265 $264 $643 $644 forward $95 $-1 #
edge $-1 $446 0.8125 $645 1.25 $436 $646 forward 7 unknown #
coedge $-1 $636 $434 $265 $442 reversed $262 $-1 #
edge $-1 $647 -1.25 $445 -0.8125 $441 $648 forward 7 unknown #
coedge $-1 $640 $266 $434 $637 reversed $444 $-1 #
loop $-1 $-1 $437 $431 #
vertex $-1 $637 $649 #
vertex $-1 $440 $650 #
straight-curve $-1 0.81249999999999978 -0.12500000000000006 0.50000000000000011 0 -1 0 I I #
loop $-1 $-1 $275 $268 #
coedge $-1 $651 $652 $273 $455 forward $269 $-1 #
coedge $-1 $653 $270 $272 $454 forward $156 $-1 #
coedge $-1 $270 $653 $651 $654 forward $156 $-1 #
coedge $-1 $275 $655 $271 $453 reversed $448 $-1 #
edge $-1 $278 0.21875 $656 0.50000000000000011 $452 $657 forward 7 unknown #
edge $-1 $277 0.8125 $656 1.25 $272 $658 forward 7 unknown #
edge $-1 $459 -0.46659118556043211 $456 0.053512469973731672 $449 $659 forward 7 unknown #
vertex $-1 $455 $660 #
straight-curve $-1 0.8125 -0.12500000000000006 -0.50000000000000011 0 1 0 I I #
coedge $-1 $655 $275 $652 $661 forward $448 $-1 #
vertex $-1 $661 $662 #
straight-curve $-1 1.25 -0.12500000000000006 -0.21875000000000006 0 -1 0 I I #
point $-1 0.8125 0.25000000000000011 -0.5 #
point $-1 1.25 0.25000000000000011 -0.21875 #
loop $-1 $-1 $287 $280 #
plane-surface $-1 1.25 0 0 -1 0 0 0 0 1 forward_v I I I I #
coedge $-1 $468 $663 $286 $473 reversed $281 $-1 #
coedge $-1 $284 $283 $664 $665 forward $102 $-1 #
edge $-1 $293 0.2065393577933502 $666 0.72664301332751391 $283 $667 forward 7 unknown #
coedge $-1 $663 $465 $284 $469 reversed $281 $-1 #
edge $-1 $668 -0.46659118556043211 $471 0.053512469973731672 $284 $669 forward 7 unknown #
convexity-sys-attrib $-1 $-1 $-1 $285 #
vertex $-1 $285 $670 #
straight-curve $-1 0.81249999999999978 0.25000000000000011 0 0 0 -1 I I #
edge $671 $471 -0.57452986745182211 $477 0.0025384235675338313 $465 $672 forward 7 unknown #
coedge $-1 $664 $287 $663 $673 forward $463 $-1 #
coedge $-1 $287 $664 $289 $479 forward $463 $-1 #
convexity-sys-attrib $-1 $-1 $-1 $288 #
vertex $-1 $673 $674 #
straight-curve $-1 1.25 -9.7144514654701197e-017 0 0 0 1 I I #
edge $-1 $666 -0.37500000000000017 $292 -0.12499999999999988 $475 $675 forward 7 unknown #
point $-1 1.25 -1.8041124150158794e-016 0.21875 #
point $-1 0.8125 0.25000000000000011 0.5 #
loop $-1 $-1 $302 $295 #
plane-surface $-1 -1.25 0 0 1 0 0 0 0 -1 forward_v I I I I #
coedge $-1 $487 $676 $301 $492 reversed $296 $-1 #
coedge $-1 $299 $298 $677 $678 reversed $106 $-1 #
edge $-1 $308 0.2065393577933502 $679 0.72664301332751391 $298 $680 forward 7 unknown #
coedge $-1 $676 $484 $299 $488 reversed $296 $-1 #
edge $-1 $681 -0.46659118556043211 $490 0.053512469973731921 $299 $682 forward 7 unknown #
convexity-sys-attrib $-1 $-1 $-1 $300 #
vertex $-1 $488 $683 #
straight-curve $-1 -0.81249999999999889 0.25000000000000011 0 0 0 1 I I #
edge $684 $490 -0.57452986745182233 $496 0.0025384235675340728 $484 $685 forward 7 unknown #
coedge $-1 $677 $302 $676 $686 forward $482 $-1 #
coedge $-1 $302 $677 $304 $498 forward $482 $-1 #
convexity-sys-attrib $-1 $-1 $-1 $303 #
vertex $-1 $686 $687 #
straight-curve $-1 -1.25 -6.3143934525555778e-016 0 0 0 -1 I I #
edge $-1 $679 -0.37500000000000017 $307 -0.12499999999999943 $494 $688 forward 7 unknown #
point $-1 -1.25 -6.2450045135165055e-016 -0.21875 #
point $-1 -0.8125 0.25000000000000011 -0.5 #
face $-1 $-1 $689 $36 $-1 $690 reversed single #
plane-surface $-1 -0.031249999999999986 0.5 0 0 1 0 0 0 1 forward_v I I I I #
coedge $-1 $320 $691 $322 $519 forward $311 $-1 #
coedge $-1 $692 $313 $691 $693 reversed $179 $-1 #
coedge $-1 $313 $692 $314 $509 forward $179 $-1 #
coedge $-1 $316 $322 $313 $507 reversed $323 $-1 #
edge $-1 $510 -0.8125 $694 0 $313 $695 forward 7 unknown #
coedge $-1 $315 $314 $696 $697 reversed $110 $-1 #
edge $-1 $698 0 $510 0.5 $505 $699 forward 7 unknown #
vertex $-1 $509 $700 #
ellipse-curve $-1 0.375 0.5 0 0 -1 0 0 0 0.21875 1 I I #
coedge $-1 $696 $701 $318 $513 forward $689 $-1 #
edge $-1 $517 -0.8125 $514 0 $318 $702 forward 7 unknown #
vertex $-1 $697 $703 #
straight-curve $-1 0.375 0 -0.21875 0 1 0 I I #
coedge $-1 $691 $320 $701 $704 reversed $311 $-1 #
vertex $-1 $704 $705 #
straight-curve $-1 -0.4375 0 -0.21875 0 1 0 I I #
edge $-1 $694 -3.1415926535897931 $324 0 $503 $706 forward 7 unknown #
point $-1 -0.4375 0.5 -0.21875 #
point $-1 0.375 0.5 -0.21875 #
face_name-twe-attrib $-1 $-1 $328 $189 6 #
model_id-kcp-attrib $-1 $707 $-1 $329 1 990669502 60 -1606680575 8 #
face $708 $570 $709 $10 $-1 $710 forward single #
loop $711 $-1 $579 $329 #
plane-surface $712 -0.8125 0.5 -0.5 -0.49613893835683404 0.86824314212445908 0 0 0 1 forward_v I I I I #
surf-twe-attrib $-1 $-1 $-1 $330 52 #
edge $713 $530 -0.4375 $383 0 $381 $714 forward 7 unknown #
attrib_edge_convexity-kcp-attrib $-1 $715 $-1 $337 1 #
vertex $-1 $528 $716 #
straight-curve $717 1.25 0 0.21875 0 -1 0 I I #
coedge $-1 $339 $338 $718 $719 reversed $119 $-1 #
coedge $-1 $720 $721 $338 $534 forward $722 $-1 #
edge $723 $724 -0.8125 $541 0 $533 $725 forward 7 unknown #
coedge $-1 $726 $727 $339 $536 forward $728 $-1 #
edge $729 $542 -0.8125 $730 0 $535 $731 forward 7 unknown #
coedge $-1 $732 $340 $727 $733 reversed $539 $-1 #
coedge $-1 $340 $732 $720 $734 forward $539 $-1 #
loop $735 $-1 $340 $564 #
attrib_edge_convexity-kcp-attrib $-1 $736 $-1 $341 1 #
vertex $-1 $734 $737 #
vertex $-1 $733 $738 #
ellipse-curve $739 -0.4375 0 0 0 -1 0 0 0 -0.21875 1 I I #
coedge $-1 $347 $740 $342 $545 reversed $552 $-1 #
edge $741 $353 -0.5201036555341636 $742 0 $544 $743 forward 7 unknown #
attrib_edge_convexity-kcp-attrib $-1 $744 $-1 $343 1 #
straight-curve $745 1.25 0 -0.21875 0 0 -1 I I #
convexity-sys-attrib $-1 $746 $344 $200 #
point $-1 1.25 0 0.21875 #
cur-twe-attrib $-1 $-1 $-1 $346 63 #
coedge $-1 $740 $347 $579 $747 forward $552 $-1 #
loop $748 $-1 $551 $749 #
attrib_edge_convexity-kcp-attrib $-1 $750 $-1 $348 1 #
straight-curve $751 -0.8125 0 0.5 0 -1 0 I I #
edge_name-twe-attrib $-1 $-1 $349 $203 5 8704 #
point $-1 -0.8125 0.5 0.5 #
cur-twe-attrib $-1 $-1 $-1 $351 66 #
convexity-sys-attrib $-1 $752 $352 $204 #
point $-1 -0.8125 0 0.5 #
cur-twe-attrib $-1 $-1 $-1 $354 67 #
attrib_edge_convexity-kcp-attrib $-1 $753 $-1 $355 1 #
straight-curve $754 1.25 0.25 0.21875 0.75814250550343498 -0.43322428885910602 -0.487377324966494 I I #
model_id-kcp-attrib $-1 $755 $-1 $357 1 990669502 60 -1606680575 13 #
face $756 $757 $539 $10 $-1 $758 reversed single #
plane-surface $759 1.25 0 0.21875 -0.54075759131349876 0 -0.84117847537655366 -0.84117847537655399 0 0.54075759131349899 forward_v I I I I #
coedge $-1 $362 $361 $760 $761 forward $363 $-1 #
coedge $-1 $762 $371 $362 $568 forward $525 $-1 #
edge $763 $222 -0.57706829101935597 $764 0 $362 $765 forward 7 unknown #
loop_type-twe-attrib $-1 $-1 $-1 $363 0 #
face $766 $749 $363 $10 $-1 $767 reversed single #
convexity-sys-attrib $-1 $768 $364 $212 #
cur-twe-attrib $-1 $-1 $-1 $365 75 #
coedge $-1 $769 $760 $366 $574 reversed $709 $-1 #
edge $770 $742 -0.4375 $576 0 $573 $771 forward 7 unknown #
attrib_edge_convexity-kcp-attrib $-1 $772 $-1 $367 1 #
vertex $-1 $761 $773 #
straight-curve $774 -1.25 0 -0.21875 -0.84117847537655399 0 0.54075759131349899 I I #
edge_name-twe-attrib $-1 $-1 $368 $128 2 8704 #
coedge $-1 $371 $762 $551 $747 reversed $525 $-1 #
attrib_edge_convexity-kcp-attrib $-1 $775 $-1 $372 1 #
straight-curve $776 -0.8125 0.5 -0.5 0 0 -1 I I #
loop_type-twe-attrib $-1 $-1 $-1 $375 1 #
coedge $-1 $777 $778 $732 $779 forward $375 $-1 #
convexity-sys-attrib $-1 $780 $376 $130 #
attrib_edge_convexity-kcp-attrib $-1 $781 $-1 $380 1 #
straight-curve $782 1.25 0 -0.21875 0 -1 0 I I #
convexity-sys-attrib $-1 $783 $382 $226 #
point $-1 1.25 0.25 -0.21875 #
cur-twe-attrib $-1 $-1 $-1 $384 89 #
convexity-sys-attrib $-1 $784 $385 $227 #
point $-1 1.25 0 -0.21875 #
cur-twe-attrib $-1 $-1 $-1 $387 90 #
face_name-twe-attrib $-1 $-1 $388 $229 11 #
surf-twe-attrib $-1 $-1 $-1 $389 92 #
convexity-sys-attrib $-1 $785 $391 $231 #
cur-twe-attrib $-1 $-1 $-1 $392 93 #
model_id-kcp-attrib $-1 $-1 $-1 $394 1 990669502 60 -1606680574 5 #
plane-surface $-1 1.25 0 0 -1 0 0 0 0 1 forward_v I I I I #
coedge $-1 $399 $397 $401 $603 reversed $237 $-1 #
edge $-1 $412 -0.50000000000000011 $605 0.50000000000000011 $411 $786 forward 7 unknown #
vertex $-1 $603 $787 #
straight-curve $-1 -1.25 -0.25000000000000011 0 0 0 -1 I I #
edge $-1 $601 -0.25000000000000011 $605 0.25000000000000011 $599 $788 forward 7 unknown #
straight-curve $-1 0 -0.25000000000000011 -0.50000000000000011 -1 0 0 I I #
vertex $-1 $404 $789 #
straight-curve $-1 0 0.25000000000000011 -0.50000000000000011 1 0 0 I I #
point $-1 1.25 0.25000000000000011 -0.50000000000000011 #
point $-1 1.25 -0.25000000000000011 -0.50000000000000011 #
straight-curve $-1 -1.25 0 0.50000000000000011 0 -1 0 I I #
point $-1 -1.25 0.25000000000000011 0.50000000000000011 #
point $-1 -1.25 -0.25000000000000011 0.50000000000000011 #
straight-curve $-1 1.25 -0.25000000000000011 0 0 0 -1 I I #
straight-curve $-1 1.25 0.25000000000000011 0 0 0 -1 I I #
face $-1 $790 $791 $92 $-1 $157 reversed single #
loop $-1 $-1 $792 $421 #
coedge $-1 $793 $794 $795 $796 forward $422 $-1 #
coedge $-1 $797 $423 $798 $799 forward $256 $-1 #
coedge $-1 $423 $797 $793 $800 reversed $256 $-1 #
coedge $-1 $795 $801 $423 $620 reversed $802 $-1 #
edge $-1 $803 -0.12500000000000006 $804 0.37500000000000017 $423 $805 forward 7 unknown #
face $-1 $-1 $806 $61 $-1 $96 forward single #
loop $-1 $-1 $807 $424 #
coedge $-1 $808 $426 $809 $810 reversed $259 $-1 #
coedge $-1 $426 $808 $629 $811 forward $259 $-1 #
edge $-1 $632 -0.37500000000000017 $812 0.12500000000000006 $426 $813 forward 7 unknown #
coedge $-1 $428 $427 $807 $814 reversed $149 $-1 #
coedge $-1 $815 $816 $427 $628 forward $806 $-1 #
edge $-1 $817 -0.12500000000000006 $631 0.37500000000000017 $627 $818 forward 7 unknown #
coedge $-1 $630 $429 $624 $811 reversed $425 $-1 #
coedge $-1 $429 $629 $815 $819 reversed $425 $-1 #
vertex $-1 $819 $820 #
vertex $-1 $430 $821 #
straight-curve $-1 -0.85751353790613727 0.25000000000000011 0.47106272563176904 -0.84117847537655366 0 -0.54075759131349876 I I #
plane-surface $-1 0.8125 -0.25000000000000011 0.5 0.54075759131349876 0 0.84117847537655366 0 1 0 forward_v I I I I #
coedge $-1 $822 $638 $640 $823 forward $432 $-1 #
coedge $-1 $434 $441 $822 $824 forward $262 $-1 #
edge $-1 $825 -0.72664301332751391 $445 -0.2065393577933502 $434 $826 forward 7 unknown #
coedge $-1 $635 $643 $435 $639 forward $432 $-1 #
edge $-1 $645 -0.50000000000000011 $641 -0.21875 $638 $827 forward 7 unknown #
coedge $-1 $437 $443 $635 $823 reversed $444 $-1 #
vertex $-1 $438 $828 #
straight-curve $-1 0.63876353790613727 -0.25000000000000011 0.61168772563176899 0.84117847537655366 0 -0.54075759131349876 I I #
coedge $-1 $638 $822 $439 $644 reversed $432 $-1 #
edge $-1 $645 -0.25000000000000011 $647 0.25000000000000011 $643 $829 forward 7 unknown #
vertex $-1 $644 $830 #
straight-curve $-1 0 -0.25000000000000011 0.50000000000000011 1 0 0 I I #
vertex $-1 $644 $831 #
straight-curve $-1 0 0.25000000000000011 0.50000000000000011 -1 0 0 I I #
point $-1 0.8125 0.25000000000000011 0.5 #
point $-1 0.8125 -0.25000000000000011 0.5 #
coedge $-1 $652 $449 $451 $654 reversed $269 $-1 #
coedge $-1 $449 $651 $458 $661 reversed $269 $-1 #
coedge $-1 $451 $450 $655 $832 forward $156 $-1 #
edge $-1 $833 -1.25 $456 -0.8125 $651 $834 forward 7 unknown #
coedge $-1 $452 $458 $653 $832 reversed $448 $-1 #
vertex $-1 $832 $835 #
straight-curve $-1 1.25 0.25000000000000011 0 0 0 -1 I I #
straight-curve $-1 0 0.25000000000000011 -0.50000000000000011 1 0 0 I I #
straight-curve $-1 0.85751353790613727 -0.25000000000000011 -0.47106272563176904 -0.84117847537655366 0 -0.54075759131349876 I I #
point $-1 0.8125 -0.25000000000000011 -0.5 #
edge $-1 $459 0.21875 $833 0.50000000000000011 $458 $827 forward 7 unknown #
point $-1 1.25 -0.25000000000000011 -0.21875 #
coedge $-1 $465 $468 $474 $673 reversed $281 $-1 #
coedge $-1 $475 $474 $466 $665 reversed $463 $-1 #
edge $-1 $666 -0.21875 $668 0.21875 $664 $836 forward 7 unknown #
vertex $-1 $665 $837 #
straight-curve $-1 0.63876353790613727 0.25000000000000011 0.61168772563176899 0.84117847537655366 0 -0.54075759131349876 I I #
vertex $-1 $469 $838 #
straight-curve $-1 0.85751353790613727 0.25000000000000011 -0.47106272563176904 -0.84117847537655366 0 -0.54075759131349876 I I #
point $-1 0.8125 0.25000000000000011 -0.5 #
convexity-sys-attrib $-1 $-1 $-1 $473 #
straight-curve $-1 1.2480755131964809 0.0010997067448679058 -0.21998717008797652 0.7581425055034352 -0.43322428885910608 0.48737732496649405 I I #
edge $-1 $477 0.12499999999999988 $668 0.37500000000000017 $474 $839 forward 7 unknown #
point $-1 1.25 -1.8041124150158794e-016 -0.21875000000000006 #
straight-curve $-1 1.25 -0.12500000000000006 0.21875 0 -1 0 I I #
coedge $-1 $484 $487 $493 $686 reversed $296 $-1 #
coedge $-1 $494 $493 $485 $678 forward $482 $-1 #
edge $-1 $681 -0.21875 $679 0.21875 $485 $840 forward 7 unknown #
vertex $-1 $486 $841 #
straight-curve $-1 -0.63876353790613727 0.25000000000000011 -0.61168772563176899 -0.84117847537655366 0 0.54075759131349876 I I #
vertex $-1 $678 $842 #
straight-curve $-1 -0.85751353790613727 0.25000000000000011 0.47106272563176904 0.84117847537655366 0 0.54075759131349876 I I #
point $-1 -0.81249999999999978 0.25000000000000011 0.50000000000000011 #
convexity-sys-attrib $-1 $-1 $-1 $492 #
straight-curve $-1 -1.2480755131964807 0.0010997067448675069 0.21998717008797664 -0.7581425055034352 -0.43322428885910608 -0.48737732496649405 I I #
edge $-1 $496 0.12499999999999943 $681 0.37500000000000017 $493 $843 forward 7 unknown #
point $-1 -1.25 -6.2450045135165055e-016 0.21875000000000006 #
straight-curve $-1 -1.25 -0.12500000000000006 -0.21875 0 -1 0 I I #
loop $-1 $-1 $701 $501 #
plane-surface $-1 -0.031249999999999986 0 0 0 1 0 0 0 1 forward_v I I I I #
coedge $-1 $503 $516 $504 $693 forward $311 $-1 #
coedge $-1 $505 $504 $844 $845 reversed $179 $-1 #
edge $-1 $846 0 $694 0.5 $691 $847 forward 7 unknown #
vertex $-1 $693 $848 #
straight-curve $-1 -0.4375 0.5 0.21875 -1 0 3.41607084500048e-017 I I #
coedge $-1 $844 $512 $508 $697 forward $689 $-1 #
edge $-1 $514 -3.1415926535897931 $698 0 $508 $849 forward 7 unknown #
vertex $-1 $845 $850 #
straight-curve $-1 0.375 0 0.21875 0 1 0 I I #
point $-1 0.375 0.5 0.21875 #
coedge $-1 $512 $844 $516 $704 forward $689 $-1 #
straight-curve $-1 0.375 0 -0.21875 1 0 -3.41607084500048e-017 I I #
point $-1 0.375 0 -0.21875 #
edge $-1 $846 -3.1415926535897931 $517 0 $516 $851 forward 7 unknown #
point $-1 -0.4375 0 -0.21875 #
ellipse-curve $-1 -0.4375 0.5 0 0 -1 0 0 0 -0.21875 1 I I #
face_name-twe-attrib $-1 $-1 $523 $329 7 #
model_id-kcp-attrib $-1 $852 $-1 $524 1 990669502 60 -1606680575 9 #
loop $853 $-1 $769 $524 #
plane-surface $854 -1.25 0.25 -0.5 -1 0 0 0 0 1 forward_v I I I I #
loop_type-twe-attrib $-1 $-1 $-1 $525 0 #
surf-twe-attrib $-1 $-1 $-1 $526 98 #
model_id-kcp-attrib $-1 $855 $-1 $528 1 990669502 60 -1606680575 19 #
straight-curve $856 1.25 0.25 -0.21875 0 0 -1 I I #
convexity-sys-attrib $-1 $857 $529 $337 #
point $-1 1.25 0.25 0.21875 #
cur-twe-attrib $-1 $-1 $-1 $531 106 #
coedge $-1 $858 $859 $532 $719 forward $860 $-1 #
edge $861 $730 -3.1415926535897931 $724 0 $718 $862 forward 7 unknown #
coedge $-1 $863 $533 $538 $734 reversed $722 $-1 #
coedge $-1 $533 $863 $858 $864 forward $722 $-1 #
loop $865 $-1 $533 $757 #
attrib_edge_convexity-kcp-attrib $-1 $866 $-1 $534 1 #
vertex $-1 $864 $867 #
straight-curve $868 -0.4375 0 0.21875 -1 0 3.41607084500048e-017 I I #
coedge $-1 $869 $535 $859 $870 reversed $728 $-1 #
coedge $-1 $535 $869 $537 $733 forward $728 $-1 #
loop $871 $-1 $535 $872 #
attrib_edge_convexity-kcp-attrib $-1 $873 $-1 $536 1 #
vertex $-1 $870 $874 #
straight-curve $875 0.375 0 -0.21875 1 0 -3.41607084500048e-017 I I #
coedge $-1 $538 $537 $583 $779 reversed $539 $-1 #
edge $876 $877 -0.5 $542 0 $727 $878 forward 7 unknown #
edge $879 $880 -0.5 $541 0 $720 $881 forward 7 unknown #
loop_type-twe-attrib $-1 $-1 $-1 $539 0 #
convexity-sys-attrib $-1 $882 $540 $341 #
point $-1 -0.4375 0 0.21875 #
point $-1 -0.4375 0 -0.21875 #
cur-twe-attrib $-1 $-1 $-1 $543 110 #
coedge $-1 $544 $551 $769 $883 reversed $552 $-1 #
attrib_edge_convexity-kcp-attrib $-1 $884 $-1 $545 1 #
vertex $-1 $883 $885 #
straight-curve $886 -1.25 0 0.21875 -0.84117847537655399 0 -0.54075759131349899 I I #
convexity-sys-attrib $-1 $887 $546 $343 #
cur-twe-attrib $-1 $-1 $-1 $547 112 #
edge_name-twe-attrib $-1 $-1 $548 $200 25 8704 #
edge $888 $350 -0.57706829101935597 $889 0 $551 $890 forward 7 unknown #
loop_type-twe-attrib $-1 $-1 $-1 $552 0 #
face $891 $229 $552 $10 $-1 $892 forward single #
convexity-sys-attrib $-1 $893 $553 $348 #
cur-twe-attrib $-1 $-1 $-1 $554 117 #
edge_name-twe-attrib $-1 $-1 $558 $204 1 8704 #
convexity-sys-attrib $-1 $894 $561 $355 #
cur-twe-attrib $-1 $-1 $-1 $562 124 #
face_name-twe-attrib $-1 $-1 $563 $357 12 #
model_id-kcp-attrib $-1 $895 $-1 $564 1 990669502 60 -1606680575 14 #
face $896 $897 $722 $10 $-1 $898 reversed single #
cone-surface $899 -0.4375 0 0 0 1 0 0.21875 0 0 1 I I 0 1 0.21875 forward I I I I #
surf-twe-attrib $-1 $-1 $-1 $565 126 #
coedge $-1 $573 $900 $566 $761 reversed $709 $-1 #
edge $901 $576 -0.25 $764 0 $566 $902 forward 7 unknown #
coedge $-1 $579 $567 $900 $903 reversed $525 $-1 #
attrib_edge_convexity-kcp-attrib $-1 $904 $-1 $568 1 #
vertex $-1 $903 $905 #
straight-curve $906 -1.25 0.25 -0.21875 -0.75814250550343498 -0.43322428885910602 0.487377324966494 I I #
model_id-kcp-attrib $-1 $907 $-1 $570 1 990669502 60 -1606680575 10 #
plane-surface $908 -1.25 0 -0.21875 0.54075759131349876 0 0.84117847537655366 0.84117847537655399 0 -0.54075759131349899 forward_v I I I I #
edge_name-twe-attrib $-1 $-1 $571 $212 12 8448 #
coedge $-1 $900 $573 $740 $883 forward $709 $-1 #
attrib_edge_convexity-kcp-attrib $-1 $909 $-1 $574 1 #
straight-curve $910 -1.25 0 -0.21875 0 0 -1 I I #
convexity-sys-attrib $-1 $911 $575 $367 #
point $-1 -1.25 0 -0.21875 #
cur-twe-attrib $-1 $-1 $-1 $577 136 #
convexity-sys-attrib $-1 $912 $580 $372 #
cur-twe-attrib $-1 $-1 $-1 $581 140 #
coedge $-1 $913 $583 $869 $914 forward $375 $-1 #
coedge $-1 $583 $913 $863 $915 forward $375 $-1 #
edge $916 $880 -3.1415926535897931 $877 0 $732 $917 forward 7 unknown #
edge_name-twe-attrib $-1 $-1 $584 $130 7 8704 #
convexity-sys-attrib $-1 $918 $585 $380 #
cur-twe-attrib $-1 $-1 $-1 $586 147 #
edge_name-twe-attrib $-1 $-1 $587 $226 19 8448 #
edge_name-twe-attrib $-1 $-1 $590 $227 21 8704 #
edge_name-twe-attrib $-1 $-1 $595 $231 6 8448 #
straight-curve $-1 -1.25 0.25000000000000011 0 0 0 -1 I I #
point $-1 -1.25 -0.25000000000000011 -0.50000000000000011 #
straight-curve $-1 -1.25 0 -0.50000000000000011 0 1 0 I I #
point $-1 -1.25 0.25000000000000011 -0.50000000000000011 #
face $-1 $-1 $802 $92 $-1 $919 reversed single #
loop $-1 $-1 $920 $614 #
coedge $-1 $921 $798 $801 $922 forward $615 $-1 #
coedge $-1 $794 $616 $618 $800 forward $422 $-1 #
coedge $-1 $616 $793 $923 $924 reversed $422 $-1 #
coedge $-1 $925 $619 $616 $796 reversed $802 $-1 #
edge $-1 $926 0.2065393577933502 $803 0.72664301332751391 $616 $927 forward 7 unknown #
coedge $-1 $618 $617 $928 $929 reversed $256 $-1 #
coedge $-1 $792 $921 $617 $799 reversed $615 $-1 #
edge $-1 $804 0.21875 $930 0.50000000000000011 $798 $931 forward 7 unknown #
edge $-1 $803 0.21875 $932 0.50000000000000011 $618 $933 forward 7 unknown #
coedge $-1 $619 $925 $792 $922 reversed $802 $-1 #
loop $-1 $-1 $801 $790 #
vertex $-1 $800 $934 #
vertex $-1 $799 $935 #
straight-curve $-1 -1.25 -0.12500000000000006 -0.21875 0 1 0 I I #
loop $-1 $-1 $627 $621 #
coedge $-1 $936 $809 $626 $814 forward $622 $-1 #
coedge $-1 $624 $623 $937 $938 reversed $259 $-1 #
coedge $-1 $807 $936 $623 $810 forward $622 $-1 #
edge $-1 $939 -0.50000000000000011 $812 -0.21875 $623 $933 forward 7 unknown #
edge $-1 $940 -0.50000000000000011 $632 -0.21875 $629 $931 forward 7 unknown #
vertex $-1 $814 $941 #
straight-curve $-1 -1.25 -0.12500000000000006 0.21875000000000006 0 -1 0 I I #
edge $-1 $812 -0.46659118556043211 $817 0.053512469973731921 $807 $942 forward 7 unknown #
coedge $-1 $937 $627 $630 $819 forward $806 $-1 #
coedge $-1 $627 $937 $936 $943 forward $806 $-1 #
vertex $-1 $628 $944 #
straight-curve $-1 -0.8125 -0.12500000000000006 0.50000000000000011 0 1 0 I I #
edge $-1 $631 0.81249999999999978 $940 1.25 $630 $648 forward 7 unknown #
point $-1 -0.81249999999999978 0.25000000000000011 0.50000000000000011 #
point $-1 -1.25 0.25000000000000011 0.21875 #
coedge $-1 $643 $635 $636 $824 reversed $432 $-1 #
edge $-1 $641 -0.12500000000000006 $825 0.37500000000000017 $635 $945 forward 7 unknown #
edge $-1 $647 -0.50000000000000011 $825 -0.21875 $822 $657 forward 7 unknown #
vertex $-1 $637 $946 #
straight-curve $-1 0.63876353790613727 0.25000000000000011 0.61168772563176899 -0.84117847537655366 0 0.54075759131349876 I I #
straight-curve $-1 1.25 -0.25000000000000011 0 0 0 -1 I I #
point $-1 1.25 -0.25000000000000011 0.21875 #
straight-curve $-1 1.25 0 0.50000000000000011 0 1 0 I I #
point $-1 1.25 -0.25000000000000011 0.50000000000000011 #
point $-1 1.25 0.25000000000000011 0.50000000000000011 #
edge $-1 $656 -0.25000000000000011 $833 0.25000000000000011 $655 $947 forward 7 unknown #
vertex $-1 $661 $948 #
straight-curve $-1 0 -0.25000000000000011 -0.50000000000000011 -1 0 0 I I #
point $-1 1.25 0.25000000000000011 -0.50000000000000011 #
straight-curve $-1 1.25 0.25000000000000011 0 0 0 -1 I I #
point $-1 1.25 0.25000000000000011 0.21875 #
point $-1 1.25 0.25000000000000011 -0.21875 #
straight-curve $-1 1.25 -0.12500000000000006 -0.21875000000000006 0 1 0 I I #
straight-curve $-1 -1.25 0.25000000000000011 0 0 0 -1 I I #
point $-1 -1.25 0.25000000000000011 -0.21875 #
point $-1 -1.25 0.25000000000000011 0.21875 #
straight-curve $-1 -1.25 -0.12500000000000006 0.21875000000000006 0 1 0 I I #
coedge $-1 $701 $696 $692 $845 forward $689 $-1 #
edge $-1 $698 -0.8125 $846 0 $692 $949 forward 7 unknown #
vertex $-1 $704 $950 #
straight-curve $-1 -0.4375 0 0.21875 0 1 0 I I #
point $-1 -0.4375 0.5 0.21875 #
ellipse-curve $-1 0.375 0 0 0 -1 0 0 0 0.21875 1 I I #
point $-1 0.375 0 0.21875 #
ellipse-curve $-1 -0.4375 0 0 0 -1 0 0 0 -0.21875 1 I I #
face_name-twe-attrib $-1 $-1 $708 $524 8 #
loop_type-twe-attrib $-1 $-1 $-1 $709 0 #
surf-twe-attrib $-1 $-1 $-1 $710 160 #
attrib_edge_convexity-kcp-attrib $-1 $951 $713 $528 1 #
cur-twe-attrib $-1 $-1 $-1 $714 164 #
edge_name-twe-attrib $-1 $-1 $715 $337 26 8448 #
coedge $-1 $952 $718 $721 $864 reversed $860 $-1 #
coedge $-1 $718 $952 $726 $870 forward $860 $-1 #
loop $953 $-1 $718 $897 #
attrib_edge_convexity-kcp-attrib $-1 $954 $-1 $719 1 #
ellipse-curve $955 0.375 0 0 0 -1 0 0 0 0.21875 1 I I #
coedge $-1 $721 $720 $778 $915 reversed $722 $-1 #
edge $956 $957 -0.5 $724 0 $858 $958 forward 7 unknown #
loop_type-twe-attrib $-1 $-1 $-1 $722 0 #
convexity-sys-attrib $-1 $959 $723 $534 #
point $-1 0.375 0 0.21875 #
cur-twe-attrib $-1 $-1 $-1 $725 170 #
coedge $-1 $727 $726 $777 $914 reversed $728 $-1 #
edge $960 $961 -0.5 $730 0 $726 $962 forward 7 unknown #
loop_type-twe-attrib $-1 $-1 $-1 $728 0 #
face $963 $-1 $728 $10 $-1 $964 reversed single #
convexity-sys-attrib $-1 $965 $729 $536 #
point $-1 0.375 0 -0.21875 #
cur-twe-attrib $-1 $-1 $-1 $731 172 #
edge_name-twe-attrib $-1 $-1 $-1 $733 38 20480 #
vertex $-1 $733 $966 #
straight-curve $967 -0.4375 0 -0.21875 0 -1 0 I I #
edge_name-twe-attrib $-1 $-1 $-1 $734 30 20480 #
vertex $-1 $734 $968 #
straight-curve $969 -0.4375 0 0.21875 0 -1 0 I I #
edge_name-twe-attrib $-1 $-1 $736 $341 27 8704 #
edge $970 $742 -0.25 $889 0 $740 $971 forward 7 unknown #
convexity-sys-attrib $-1 $972 $741 $545 #
point $-1 -1.25 0 0.21875 #
cur-twe-attrib $-1 $-1 $-1 $743 181 #
edge_name-twe-attrib $-1 $-1 $744 $343 3 8704 #
attrib_edge_convexity-kcp-attrib $-1 $973 $-1 $747 1 #
vertex $-1 $903 $974 #
straight-curve $975 -1.25 0.25 0.21875 -0.75814250550343498 -0.43322428885910602 -0.487377324966494 I I #
model_id-kcp-attrib $-1 $976 $-1 $749 1 990669502 60 -1606680575 11 #
plane-surface $977 -1.25 0 0.21875 -0.54075759131349876 0 0.84117847537655366 0.84117847537655399 0 0.54075759131349899 forward_v I I I I #
edge_name-twe-attrib $-1 $-1 $750 $348 18 8448 #
edge_name-twe-attrib $-1 $-1 $753 $355 23 8448 #
face_name-twe-attrib $-1 $-1 $756 $564 13 #
model_id-kcp-attrib $-1 $978 $-1 $757 1 990669502 60 -1606680575 15 #
face $979 $872 $860 $10 $-1 $980 reversed single #
plane-surface $981 -0.4375 0 0.21875 0 0 1 1 0 0 forward_v I I I I #
surf-twe-attrib $-1 $-1 $-1 $758 197 #
coedge $-1 $760 $769 $762 $903 forward $709 $-1 #
attrib_edge_convexity-kcp-attrib $-1 $982 $-1 $761 1 #
straight-curve $983 -1.25 0.25 -0.21875 0 1 0 I I #
edge $984 $889 -0.4375 $764 0 $900 $985 forward 7 unknown #
convexity-sys-attrib $-1 $986 $763 $568 #
point $-1 -1.25 0.25 -0.21875 #
cur-twe-attrib $-1 $-1 $-1 $765 201 #
face_name-twe-attrib $-1 $-1 $766 $570 9 #
surf-twe-attrib $-1 $-1 $-1 $767 203 #
convexity-sys-attrib $-1 $987 $770 $574 #
cur-twe-attrib $-1 $-1 $-1 $771 206 #
edge_name-twe-attrib $-1 $-1 $772 $367 13 8704 #
edge_name-twe-attrib $-1 $-1 $775 $372 8 8448 #
coedge $-1 $778 $777 $952 $988 forward $375 $-1 #
edge $989 $877 -0.8125 $961 0 $869 $990 forward 7 unknown #
edge $991 $957 -0.8125 $880 0 $863 $992 forward 7 unknown #
edge_name-twe-attrib $-1 $-1 $-1 $779 28 8704 #
ellipse-curve $993 -0.4375 0.5 0 0 -1 0 0 0 -0.21875 1 I I #
edge_name-twe-attrib $-1 $-1 $781 $380 20 8448 #
plane-surface $-1 -0.8125 -0.25000000000000011 -0.5 -0.54075759131349876 0 -0.84117847537655366 0 -1 0 forward_v I I I I #
coedge $-1 $923 $994 $925 $995 forward $791 $-1 #
coedge $-1 $798 $792 $994 $996 reversed $615 $-1 #
edge $-1 $804 -0.72664301332751391 $997 -0.2065393577933502 $792 $998 forward 7 unknown #
coedge $-1 $928 $920 $794 $924 forward $791 $-1 #
edge $-1 $926 0.8125 $932 1.25 $794 $834 forward 7 unknown #
coedge $-1 $801 $795 $920 $995 reversed $802 $-1 #
vertex $-1 $924 $999 #
straight-curve $-1 -0.63876353790613727 -0.25000000000000011 -0.61168772563176899 -0.84117847537655366 0 0.54075759131349876 I I #
coedge $-1 $994 $923 $797 $929 forward $791 $-1 #
edge $-1 $932 -0.25000000000000011 $930 0.25000000000000011 $797 $1000 forward 7 unknown #
vertex $-1 $996 $1001 #
straight-curve $-1 -1.25 0.25000000000000011 0 0 0 -1 I I #
vertex $-1 $929 $1002 #
straight-curve $-1 -1.25 -0.25000000000000011 0 0 0 -1 I I #
point $-1 -1.25 -0.25000000000000011 -0.21875 #
point $-1 -1.25 0.25000000000000011 -0.21875 #
coedge $-1 $809 $807 $816 $943 reversed $622 $-1 #
coedge $-1 $816 $815 $808 $938 forward $806 $-1 #
edge $-1 $940 -0.25000000000000011 $939 0.25000000000000011 $808 $1003 forward 7 unknown #
vertex $-1 $938 $1004 #
vertex $-1 $819 $1005 #
point $-1 -1.25 -0.25000000000000011 0.21875 #
straight-curve $-1 -0.85751353790613727 -0.25000000000000011 0.47106272563176904 0.84117847537655366 0 0.54075759131349876 I I #
edge $-1 $939 -1.25 $817 -0.81249999999999978 $936 $646 forward 7 unknown #
point $-1 -0.81249999999999978 -0.25000000000000011 0.50000000000000011 #
straight-curve $-1 1.25 -0.12500000000000006 0.21875 0 1 0 I I #
point $-1 1.25 0.25000000000000011 0.21875 #
straight-curve $-1 1.25 0 -0.50000000000000011 0 -1 0 I I #
point $-1 1.25 -0.25000000000000011 -0.50000000000000011 #
straight-curve $-1 -0.4375 0 0.21875 -1 0 3.41607084500048e-017 I I #
point $-1 -0.4375 0 0.21875 #
convexity-sys-attrib $-1 $1006 $855 $528 #
coedge $-1 $859 $858 $913 $988 reversed $860 $-1 #
loop_type-twe-attrib $-1 $-1 $-1 $860 0 #
convexity-sys-attrib $-1 $1007 $861 $719 #
cur-twe-attrib $-1 $-1 $-1 $862 233 #
edge_name-twe-attrib $-1 $-1 $-1 $864 33 20480 #
vertex $-1 $864 $1008 #
straight-curve $1009 0.375 0 0.21875 0 -1 -5.5511151231257802e-017 I I #
edge_name-twe-attrib $-1 $-1 $866 $534 29 8704 #
edge_name-twe-attrib $-1 $-1 $-1 $870 36 20480 #
vertex $-1 $870 $1010 #
straight-curve $1011 0.375 0 -0.21875 0 -1 0 I I #
model_id-kcp-attrib $-1 $1012 $-1 $872 1 990669502 60 -1606680575 17 #
plane-surface $1013 0.375 0 -0.21875 0 0 -1 -1 0 0 forward_v I I I I #
edge_name-twe-attrib $-1 $-1 $873 $536 35 8704 #
point $-1 -0.4375 0.5 -0.21875 #
cur-twe-attrib $-1 $-1 $-1 $878 247 #
point $-1 -0.4375 0.5 0.21875 #
cur-twe-attrib $-1 $-1 $-1 $881 248 #
attrib_edge_convexity-kcp-attrib $-1 $1014 $-1 $883 1 #
straight-curve $1015 -1.25 0.25 0.21875 0 1 0 I I #
edge_name-twe-attrib $-1 $-1 $884 $545 17 8704 #
convexity-sys-attrib $-1 $1016 $888 $747 #
point $-1 -1.25 0.25 0.21875 #
cur-twe-attrib $-1 $-1 $-1 $890 258 #
face_name-twe-attrib $-1 $-1 $891 $749 10 #
surf-twe-attrib $-1 $-1 $-1 $892 260 #
face_name-twe-attrib $-1 $-1 $896 $757 14 #
model_id-kcp-attrib $-1 $1017 $-1 $897 1 990669502 60 -1606680575 16 #
cone-surface $1018 0.375 0 0 0 1 0 0.21875 0 0 1 I I 0 1 0.21875 forward I I I I #
surf-twe-attrib $-1 $-1 $-1 $898 264 #
convexity-sys-attrib $-1 $1019 $901 $761 #
cur-twe-attrib $-1 $-1 $-1 $902 268 #
model_id-kcp-attrib $-1 $1020 $-1 $903 1 990669502 60 -1606680575 21 #
straight-curve $1021 -1.25 0.25 -0.21875 0 0 -1 I I #
edge_name-twe-attrib $-1 $-1 $904 $568 11 8448 #
edge_name-twe-attrib $-1 $-1 $909 $574 10 8704 #
edge $1022 $961 -3.1415926535897931 $957 0 $952 $1023 forward 7 unknown #
edge_name-twe-attrib $-1 $-1 $-1 $914 37 8704 #
straight-curve $1024 0.375 0.5 -0.21875 1 0 -3.41607084500048e-017 I I #
edge_name-twe-attrib $-1 $-1 $-1 $915 31 8704 #
straight-curve $1025 -0.4375 0.5 0.21875 -1 0 0 I I #
cur-twe-attrib $-1 $-1 $-1 $917 283 #
coedge $-1 $920 $928 $921 $996 forward $791 $-1 #
edge $-1 $997 -0.37500000000000017 $926 0.12500000000000006 $920 $1026 forward 7 unknown #
edge $-1 $930 -1.25 $997 -0.8125 $921 $658 forward 7 unknown #
vertex $-1 $922 $1027 #
straight-curve $-1 -0.63876353790613727 0.25000000000000011 -0.61168772563176899 0.84117847537655366 0 -0.54075759131349876 I I #
point $-1 -0.8125 -0.25000000000000011 -0.5 #
straight-curve $-1 -1.25 0 -0.50000000000000011 0 1 0 I I #
point $-1 -1.25 0.25000000000000011 -0.50000000000000011 #
point $-1 -1.25 -0.25000000000000011 -0.50000000000000011 #
straight-curve $-1 -1.25 0 0.50000000000000011 0 -1 0 I I #
point $-1 -1.25 -0.25000000000000011 0.50000000000000011 #
point $-1 -1.25 0.25000000000000011 0.50000000000000011 #
edge_name-twe-attrib $-1 $-1 $951 $528 4 8448 #
edge_name-twe-attrib $-1 $-1 $954 $719 32 8704 #
point $-1 0.375 0.5 0.21875 #
cur-twe-attrib $-1 $-1 $-1 $958 294 #
point $-1 0.375 0.5 -0.21875 #
cur-twe-attrib $-1 $-1 $-1 $962 299 #
face_name-twe-attrib $-1 $-1 $963 $872 16 #
surf-twe-attrib $-1 $-1 $-1 $964 301 #
convexity-sys-attrib $-1 $1028 $970 $883 #
cur-twe-attrib $-1 $-1 $-1 $971 310 #
edge_name-twe-attrib $-1 $-1 $973 $747 15 8448 #
face_name-twe-attrib $-1 $-1 $979 $897 15 #
surf-twe-attrib $-1 $-1 $-1 $980 319 #
edge_name-twe-attrib $-1 $-1 $982 $761 14 8448 #
attrib_edge_convexity-kcp-attrib $-1 $1029 $984 $903 1 #
cur-twe-attrib $-1 $-1 $-1 $985 325 #
edge_name-twe-attrib $-1 $-1 $-1 $988 34 8704 #
ellipse-curve $1030 0.375 0.5 0 0 -1 0 0 0 0.21875 1 I I #
cur-twe-attrib $-1 $-1 $-1 $990 331 #
cur-twe-attrib $-1 $-1 $-1 $992 332 #
straight-curve $-1 -0.81249999999999978 -0.12500000000000006 -0.50000000000000011 0 -1 0 I I #
point $-1 -0.8125 0.25000000000000011 -0.5 #
edge_name-twe-attrib $-1 $-1 $1014 $883 16 8448 #
convexity-sys-attrib $-1 $1031 $1020 $903 #
cur-twe-attrib $-1 $-1 $-1 $1023 361 #
edge_name-twe-attrib $-1 $-1 $1029 $903 9 8448 #
End-of-ACIS-data 