600 0 1 0           
107 GICL ACIS Healer - Source: /gicl/data5/repository/ICEM-CDC/Fixture_Models/PlainClamp1/PlainClamp1.sat - 6 0 18 ACIS 6.0.3 Solaris 24 Sat Apr 13 23:06:35 2002 
1 9.999999999999999547e-07 1.000000000000000036e-10 
body $-1 $1 $-1 $2 #
lump $-1 $-1 $3 $0 #
transform $-1 1 0 0 0 1 0 0 0 1 0 0 0 1 no_rotate no_reflect no_shear #
shell $-1 $-1 $-1 $4 $-1 $1 #
face $5 $6 $7 $3 $-1 $8 reversed single #
face_name-twe-attrib $-1 $-1 $-1 $4 1 #
face $9 $10 $11 $3 $-1 $12 forward single #
loop $13 $-1 $14 $4 #
plane-surface $15 0 0 -0.5 0 0 1 1 0 0 forward_v I I I I #
face_name-twe-attrib $-1 $-1 $-1 $6 2 #
face $16 $17 $18 $3 $-1 $19 forward single #
loop $20 $-1 $21 $6 #
plane-surface $22 0 0 0.5 0 0 1 1 0 0 forward_v I I I I #
loop_type-twe-attrib $-1 $-1 $-1 $7 0 #
coedge $-1 $23 $24 $25 $26 forward $7 $-1 #
surf-twe-attrib $-1 $-1 $-1 $8 4 #
face_name-twe-attrib $-1 $-1 $-1 $10 3 #
face $27 $28 $29 $3 $-1 $30 forward single #
loop $31 $32 $33 $10 #
plane-surface $34 -1.25 0 -0.5 0 -1 0 0 0 -1 forward_v I I I I #
loop_type-twe-attrib $-1 $-1 $-1 $11 0 #
coedge $-1 $35 $36 $37 $38 reversed $11 $-1 #
surf-twe-attrib $-1 $-1 $-1 $12 6 #
coedge $-1 $39 $14 $40 $41 forward $7 $-1 #
coedge $-1 $14 $39 $42 $43 forward $7 $-1 #
coedge $-1 $44 $45 $14 $26 reversed $46 $-1 #
edge $47 $48 -0.5 $49 0 $25 $50 forward 7 unknown #
face_name-twe-attrib $-1 $-1 $-1 $17 4 #
face $51 $52 $53 $3 $-1 $54 forward single #
loop $55 $-1 $56 $17 #
plane-surface $57 1.25 0 -0.5 1 0 0 0 0 -1 forward_v I I I I #
loop_type-twe-attrib $-1 $-1 $-1 $18 0 #
loop $58 $-1 $59 $10 #
coedge $-1 $60 $61 $62 $63 reversed $18 $-1 #
surf-twe-attrib $-1 $-1 $-1 $19 10 #
coedge $-1 $64 $21 $65 $66 reversed $11 $-1 #
coedge $-1 $21 $64 $60 $67 reversed $11 $-1 #
coedge $-1 $62 $68 $21 $38 forward $69 $-1 #
edge $70 $71 -0.5 $72 0 $37 $73 forward 7 unknown #
coedge $-1 $24 $23 $74 $75 reversed $7 $-1 #
coedge $-1 $76 $77 $23 $41 reversed $18 $-1 #
edge $78 $49 -1.625 $79 0 $40 $80 forward 7 unknown #
coedge $-1 $81 $82 $24 $43 reversed $83 $-1 #
edge $84 $85 -1.625 $48 0 $42 $86 forward 7 unknown #
coedge $-1 $87 $25 $88 $89 forward $46 $-1 #
coedge $-1 $25 $87 $76 $90 reversed $46 $-1 #
loop $91 $-1 $44 $92 #
edge_name-twe-attrib $-1 $-1 $-1 $26 22 8448 #
vertex $-1 $93 $94 #
vertex $-1 $90 $95 #
straight-curve $96 0.8125 0 -0.5 0 -1 0 I I #
face_name-twe-attrib $-1 $-1 $-1 $28 5 #
face $97 $98 $83 $3 $-1 $99 forward single #
loop $100 $-1 $101 $28 #
plane-surface $102 1.25 0.25 -0.5 0.4961389383568340361 0.8682431421244590775 0 0 0 1 forward_v I I I I #
loop_type-twe-attrib $-1 $-1 $-1 $29 0 #
coedge $-1 $103 $104 $105 $106 forward $29 $-1 #
surf-twe-attrib $-1 $-1 $-1 $30 17 #
loop_type-twe-attrib $-1 $-1 $-1 $32 1 #
coedge $-1 $107 $108 $109 $110 reversed $32 $-1 #
coedge $-1 $111 $33 $36 $67 forward $18 $-1 #
coedge $-1 $33 $76 $103 $112 reversed $18 $-1 #
coedge $-1 $105 $37 $33 $63 forward $69 $-1 #
edge $113 $72 -0.5201036555341636003 $114 0 $62 $115 forward 7 unknown #
coedge $-1 $36 $35 $116 $117 forward $11 $-1 #
coedge $-1 $82 $81 $35 $66 forward $83 $-1 #
edge $118 $119 -1.625 $71 0 $65 $120 forward 7 unknown #
edge $121 $72 -1.625 $122 0 $60 $123 forward 7 unknown #
coedge $-1 $37 $105 $101 $124 reversed $69 $-1 #
loop $125 $-1 $68 $126 #
edge_name-twe-attrib $-1 $-1 $-1 $38 24 8448 #
vertex $-1 $93 $127 #
vertex $-1 $63 $128 #
straight-curve $129 0.8125 0 0.5 0 -1 0 I I #
coedge $-1 $130 $131 $39 $75 forward $132 $-1 #
edge $133 $85 -0.5 $79 0 $74 $134 forward 7 unknown #
coedge $-1 $61 $40 $45 $90 forward $18 $-1 #
coedge $-1 $40 $135 $130 $136 reversed $18 $-1 #
edge_name-twe-attrib $-1 $-1 $-1 $41 2 8704 #
vertex $-1 $136 $137 #
straight-curve $138 -0.8125 0 -0.5 -1 0 0 I I #
coedge $-1 $65 $42 $139 $140 reversed $83 $-1 #
coedge $-1 $42 $65 $141 $93 forward $83 $-1 #
loop $142 $143 $65 $52 #
edge_name-twe-attrib $-1 $-1 $-1 $43 7 8704 #
vertex $-1 $140 $144 #
straight-curve $145 0.8125 0.5 -0.5 1 0 0 I I #
coedge $-1 $45 $44 $146 $147 forward $46 $-1 #
coedge $-1 $141 $148 $44 $89 reversed $53 $-1 #
edge $149 $48 -0.5770682910193560833 $150 0 $44 $151 forward 7 unknown #
edge $152 $49 -0.5201036555341636003 $153 0 $45 $154 forward 7 unknown #
loop_type-twe-attrib $-1 $-1 $-1 $46 0 #
face $155 $126 $46 $3 $-1 $156 forward single #
edge $157 $71 -1 $48 0 $82 $158 forward 7 unknown #
point $-1 0.8125 0.5 -0.5 #
point $-1 0.8125 0 -0.5 #
cur-twe-attrib $-1 $-1 $-1 $50 26 #
face_name-twe-attrib $-1 $-1 $-1 $52 6 #
face $159 $160 $161 $3 $-1 $162 forward single #
plane-surface $163 0.8125 0.5 -0.5 0 1 0 0 0 1 forward_v I I I I #
loop_type-twe-attrib $-1 $-1 $-1 $53 0 #
coedge $-1 $148 $141 $68 $124 forward $53 $-1 #
surf-twe-attrib $-1 $-1 $-1 $54 28 #
coedge $-1 $146 $56 $61 $112 forward $29 $-1 #
coedge $-1 $56 $146 $148 $164 reversed $29 $-1 #
coedge $-1 $68 $62 $56 $106 reversed $69 $-1 #
edge $165 $166 -0.25 $114 0 $105 $167 forward 7 unknown #
coedge $-1 $168 $59 $169 $170 reversed $32 $-1 #
coedge $-1 $59 $168 $171 $172 reversed $32 $-1 #
coedge $-1 $173 $174 $59 $110 forward $175 $-1 #
edge $176 $177 -3.141592653589793116 $178 0 $109 $179 forward 7 unknown #
coedge $-1 $135 $60 $180 $181 forward $18 $-1 #
edge $182 $114 -0.4375 $153 0 $103 $183 forward 7 unknown #
edge_name-twe-attrib $-1 $-1 $-1 $63 25 8704 #
vertex $-1 $112 $184 #
straight-curve $185 1.25 0 0.21875 0.8411784753765539913 0 -0.5407575913134989865 I I #
coedge $-1 $186 $180 $64 $117 reversed $187 $-1 #
edge $188 $119 -0.5 $122 0 $116 $189 forward 7 unknown #
edge_name-twe-attrib $-1 $-1 $-1 $66 5 8704 #
vertex $-1 $140 $190 #
straight-curve $191 0.8125 0.5 0.5 1 0 0 I I #
edge_name-twe-attrib $-1 $-1 $-1 $67 1 8704 #
vertex $-1 $181 $192 #
straight-curve $193 -0.8125 0 0.5 -1 0 0 I I #
edge $194 $71 -0.5770682910193560833 $166 0 $68 $195 forward 7 unknown #
loop_type-twe-attrib $-1 $-1 $-1 $69 0 #
face $196 $197 $69 $3 $-1 $198 reversed single #
point $-1 0.8125 0.5 0.5 #
point $-1 0.8125 0 0.5 #
cur-twe-attrib $-1 $-1 $-1 $73 38 #
coedge $-1 $199 $74 $77 $136 forward $132 $-1 #
coedge $-1 $74 $199 $200 $201 reversed $132 $-1 #
loop $202 $-1 $131 $203 #
edge_name-twe-attrib $-1 $-1 $-1 $75 12 8448 #
straight-curve $204 -0.8125 0 -0.5 0 -1 0 I I #
coedge $-1 $77 $111 $205 $206 forward $18 $-1 #
edge $207 $79 -0.5201036555341636003 $208 0 $130 $209 forward 7 unknown #
point $-1 -0.8125 0 -0.5 #
cur-twe-attrib $-1 $-1 $-1 $80 41 #
coedge $-1 $200 $210 $81 $140 forward $161 $-1 #
edge $211 $119 -1 $85 0 $139 $212 forward 7 unknown #
coedge $-1 $101 $88 $82 $93 reversed $53 $-1 #
loop_type-twe-attrib $-1 $-1 $-1 $83 0 #
loop $213 $-1 $214 $52 #
point $-1 -0.8125 0.5 -0.5 #
cur-twe-attrib $-1 $-1 $-1 $86 43 #
coedge $-1 $104 $103 $87 $147 reversed $29 $-1 #
edge $215 $150 -0.25 $153 0 $87 $216 forward 7 unknown #
coedge $-1 $88 $101 $104 $164 forward $53 $-1 #
edge_name-twe-attrib $-1 $-1 $-1 $89 19 8448 #
vertex $-1 $164 $217 #
straight-curve $218 1.25 0.25 -0.21875 0.7581425055034349825 -0.4332242888591060215 0.4873773249664939966 I I #
edge_name-twe-attrib $-1 $-1 $-1 $90 21 8704 #
vertex $-1 $112 $219 #
straight-curve $220 1.25 0 -0.21875 0.8411784753765539913 0 0.5407575913134989865 I I #
face_name-twe-attrib $-1 $-1 $-1 $92 11 #
plane-surface $221 1.25 0 -0.21875 0.5407575913134987644 0 -0.8411784753765536582 -0.8411784753765539913 0 -0.5407575913134989865 forward_v I I I I #
edge_name-twe-attrib $-1 $-1 $-1 $93 6 8448 #
straight-curve $222 0.8125 0.5 -0.5 0 0 -1 I I #
face_name-twe-attrib $-1 $-1 $-1 $98 7 #
face $223 $203 $224 $3 $-1 $225 forward single #
loop $226 $-1 $210 $98 #
plane-surface $227 -0.8125 0.5 -0.5 -0.4961389383568340361 0.8682431421244590775 0 0 0 1 forward_v I I I I #
surf-twe-attrib $-1 $-1 $-1 $99 52 #
edge $228 $166 -0.4375 $150 0 $148 $229 forward 7 unknown #
edge_name-twe-attrib $-1 $-1 $-1 $106 26 8448 #
vertex $-1 $164 $230 #
straight-curve $231 1.25 0 0.21875 0 -1 0 I I #
coedge $-1 $108 $107 $232 $233 reversed $32 $-1 #
coedge $-1 $234 $235 $107 $170 forward $236 $-1 #
edge $237 $238 -0.8125 $177 0 $169 $239 forward 7 unknown #
coedge $-1 $240 $241 $108 $172 forward $242 $-1 #
edge $243 $178 -0.8125 $244 0 $171 $245 forward 7 unknown #
coedge $-1 $246 $109 $241 $247 reversed $175 $-1 #
coedge $-1 $109 $246 $234 $248 forward $175 $-1 #
loop $249 $-1 $109 $197 #
edge_name-twe-attrib $-1 $-1 $-1 $110 27 8704 #
vertex $-1 $248 $250 #
vertex $-1 $247 $251 #
ellipse-curve $252 -0.4375 0 0 0 -1 0 0 0 -0.21875 1 I I #
coedge $-1 $116 $253 $111 $181 reversed $187 $-1 #
edge $254 $122 -0.5201036555341636003 $255 0 $180 $256 forward 7 unknown #
edge_name-twe-attrib $-1 $-1 $-1 $112 3 8704 #
straight-curve $257 1.25 0 -0.21875 0 0 -1 I I #
point $-1 1.25 0 0.21875 #
cur-twe-attrib $-1 $-1 $-1 $115 63 #
coedge $-1 $253 $116 $210 $258 forward $187 $-1 #
loop $259 $-1 $186 $260 #
edge_name-twe-attrib $-1 $-1 $-1 $117 18 8448 #
straight-curve $261 -0.8125 0 0.5 0 -1 0 I I #
point $-1 -0.8125 0.5 0.5 #
cur-twe-attrib $-1 $-1 $-1 $120 66 #
point $-1 -0.8125 0 0.5 #
cur-twe-attrib $-1 $-1 $-1 $123 67 #
edge_name-twe-attrib $-1 $-1 $-1 $124 23 8448 #
straight-curve $262 1.25 0.25 0.21875 0.7581425055034349825 -0.4332242888591060215 -0.4873773249664939966 I I #
face_name-twe-attrib $-1 $-1 $-1 $126 12 #
face $263 $264 $175 $3 $-1 $265 reversed single #
plane-surface $266 1.25 0 0.21875 -0.5407575913134987644 0 -0.8411784753765536582 -0.8411784753765539913 0 0.5407575913134989865 forward_v I I I I #
coedge $-1 $131 $130 $267 $268 forward $132 $-1 #
coedge $-1 $269 $139 $131 $201 forward $161 $-1 #
edge $270 $85 -0.5770682910193560833 $271 0 $131 $272 forward 7 unknown #
loop_type-twe-attrib $-1 $-1 $-1 $132 0 #
face $273 $260 $132 $3 $-1 $274 reversed single #
cur-twe-attrib $-1 $-1 $-1 $134 75 #
coedge $-1 $275 $267 $135 $206 reversed $224 $-1 #
edge $276 $255 -0.4375 $208 0 $205 $277 forward 7 unknown #
edge_name-twe-attrib $-1 $-1 $-1 $136 13 8704 #
vertex $-1 $268 $278 #
straight-curve $279 -1.25 0 -0.21875 -0.8411784753765539913 0 0.5407575913134989865 I I #
coedge $-1 $139 $269 $186 $258 reversed $161 $-1 #
edge_name-twe-attrib $-1 $-1 $-1 $140 8 8448 #
straight-curve $280 -0.8125 0.5 -0.5 0 0 -1 I I #
loop_type-twe-attrib $-1 $-1 $-1 $143 1 #
coedge $-1 $281 $282 $246 $283 forward $143 $-1 #
edge_name-twe-attrib $-1 $-1 $-1 $147 20 8448 #
straight-curve $284 1.25 0 -0.21875 0 -1 0 I I #
point $-1 1.25 0.25 -0.21875 #
cur-twe-attrib $-1 $-1 $-1 $151 89 #
point $-1 1.25 0 -0.21875 #
cur-twe-attrib $-1 $-1 $-1 $154 90 #
surf-twe-attrib $-1 $-1 $-1 $156 92 #
cur-twe-attrib $-1 $-1 $-1 $158 93 #
face_name-twe-attrib $-1 $-1 $-1 $160 8 #
loop $285 $-1 $275 $160 #
plane-surface $286 -1.25 0.25 -0.5 -1 0 0 0 0 1 forward_v I I I I #
loop_type-twe-attrib $-1 $-1 $-1 $161 0 #
surf-twe-attrib $-1 $-1 $-1 $162 98 #
edge_name-twe-attrib $-1 $-1 $-1 $164 4 8448 #
straight-curve $287 1.25 0.25 -0.21875 0 0 -1 I I #
point $-1 1.25 0.25 0.21875 #
cur-twe-attrib $-1 $-1 $-1 $167 106 #
coedge $-1 $288 $289 $168 $233 forward $290 $-1 #
edge $291 $244 -3.141592653589793116 $238 0 $232 $292 forward 7 unknown #
coedge $-1 $293 $169 $174 $248 reversed $236 $-1 #
coedge $-1 $169 $293 $288 $294 forward $236 $-1 #
loop $295 $-1 $169 $264 #
edge_name-twe-attrib $-1 $-1 $-1 $170 29 8704 #
vertex $-1 $294 $296 #
straight-curve $297 -0.4375 0 0.21875 -1 0 3.416070845000480004e-17 I I #
coedge $-1 $298 $171 $289 $299 reversed $242 $-1 #
coedge $-1 $171 $298 $173 $247 forward $242 $-1 #
loop $300 $-1 $171 $301 #
edge_name-twe-attrib $-1 $-1 $-1 $172 35 8704 #
vertex $-1 $299 $302 #
straight-curve $303 0.375 0 -0.21875 1 0 -3.416070845000480004e-17 I I #
coedge $-1 $174 $173 $214 $283 reversed $175 $-1 #
edge $304 $305 -0.5 $178 0 $241 $306 forward 7 unknown #
edge $307 $308 -0.5 $177 0 $234 $309 forward 7 unknown #
loop_type-twe-attrib $-1 $-1 $-1 $175 0 #
point $-1 -0.4375 0 0.21875 #
point $-1 -0.4375 0 -0.21875 #
cur-twe-attrib $-1 $-1 $-1 $179 110 #
coedge $-1 $180 $186 $275 $310 reversed $187 $-1 #
edge_name-twe-attrib $-1 $-1 $-1 $181 17 8704 #
vertex $-1 $310 $311 #
straight-curve $312 -1.25 0 0.21875 -0.8411784753765539913 0 -0.5407575913134989865 I I #
cur-twe-attrib $-1 $-1 $-1 $183 112 #
edge $313 $119 -0.5770682910193560833 $314 -0 $186 $315 forward 7 unknown #
loop_type-twe-attrib $-1 $-1 $-1 $187 0 #
face $316 $92 $187 $3 $-1 $317 forward single #
cur-twe-attrib $-1 $-1 $-1 $189 117 #
cur-twe-attrib $-1 $-1 $-1 $195 124 #
face_name-twe-attrib $-1 $-1 $-1 $197 13 #
face $318 $319 $236 $3 $-1 $320 reversed single #
cone-surface $321 -0.4375 0 0 0 1 0 0.21875 0 0 1 I I 0 1 0.21875 forward I I I I #
surf-twe-attrib $-1 $-1 $-1 $198 126 #
coedge $-1 $205 $322 $199 $268 reversed $224 $-1 #
edge $323 $208 -0.25 $271 0 $199 $324 forward 7 unknown #
coedge $-1 $210 $200 $322 $325 reversed $161 $-1 #
edge_name-twe-attrib $-1 $-1 $-1 $201 11 8448 #
vertex $-1 $325 $326 #
straight-curve $327 -1.25 0.25 -0.21875 -0.7581425055034349825 -0.4332242888591060215 0.4873773249664939966 I I #
face_name-twe-attrib $-1 $-1 $-1 $203 9 #
plane-surface $328 -1.25 0 -0.21875 0.5407575913134987644 0 0.8411784753765536582 0.8411784753765539913 0 -0.5407575913134989865 forward_v I I I I #
coedge $-1 $322 $205 $253 $310 forward $224 $-1 #
edge_name-twe-attrib $-1 $-1 $-1 $206 10 8704 #
straight-curve $329 -1.25 0 -0.21875 0 0 -1 I I #
point $-1 -1.25 0 -0.21875 #
cur-twe-attrib $-1 $-1 $-1 $209 136 #
cur-twe-attrib $-1 $-1 $-1 $212 140 #
coedge $-1 $330 $214 $298 $331 forward $143 $-1 #
coedge $-1 $214 $330 $293 $332 forward $143 $-1 #
edge $333 $308 -3.141592653589793116 $305 0 $246 $334 forward 7 unknown #
cur-twe-attrib $-1 $-1 $-1 $216 147 #
loop_type-twe-attrib $-1 $-1 $-1 $224 0 #
surf-twe-attrib $-1 $-1 $-1 $225 160 #
cur-twe-attrib $-1 $-1 $-1 $229 164 #
coedge $-1 $335 $232 $235 $294 reversed $290 $-1 #
coedge $-1 $232 $335 $240 $299 forward $290 $-1 #
loop $336 $-1 $232 $319 #
edge_name-twe-attrib $-1 $-1 $-1 $233 32 8704 #
ellipse-curve $337 0.375 0 0 0 -1 0 0 0 0.21875 1 I I #
coedge $-1 $235 $234 $282 $332 reversed $236 $-1 #
edge $338 $339 -0.5 $238 0 $288 $340 forward 7 unknown #
loop_type-twe-attrib $-1 $-1 $-1 $236 0 #
point $-1 0.375 0 0.21875 #
cur-twe-attrib $-1 $-1 $-1 $239 170 #
coedge $-1 $241 $240 $281 $331 reversed $242 $-1 #
edge $341 $342 -0.5 $244 0 $240 $343 forward 7 unknown #
loop_type-twe-attrib $-1 $-1 $-1 $242 0 #
face $344 $-1 $242 $3 $-1 $345 reversed single #
point $-1 0.375 0 -0.21875 #
cur-twe-attrib $-1 $-1 $-1 $245 172 #
edge_name-twe-attrib $-1 $-1 $-1 $247 38 20480 #
vertex $-1 $247 $346 #
straight-curve $347 -0.4375 0 -0.21875 0 -1 0 I I #
edge_name-twe-attrib $-1 $-1 $-1 $248 30 20480 #
vertex $-1 $248 $348 #
straight-curve $349 -0.4375 0 0.21875 0 -1 0 I I #
edge $350 $255 -0.25 $314 0 $253 $351 forward 7 unknown #
point $-1 -1.25 0 0.21875 #
cur-twe-attrib $-1 $-1 $-1 $256 181 #
edge_name-twe-attrib $-1 $-1 $-1 $258 15 8448 #
vertex $-1 $325 $352 #
straight-curve $353 -1.25 0.25 0.21875 -0.7581425055034349825 -0.4332242888591060215 -0.4873773249664939966 I I #
face_name-twe-attrib $-1 $-1 $-1 $260 10 #
plane-surface $354 -1.25 0 0.21875 -0.5407575913134987644 0 0.8411784753765536582 0.8411784753765539913 0 0.5407575913134989865 forward_v I I I I #
face_name-twe-attrib $-1 $-1 $-1 $264 14 #
face $355 $301 $290 $3 $-1 $356 reversed single #
plane-surface $357 -0.4375 0 0.21875 0 0 1 1 0 0 forward_v I I I I #
surf-twe-attrib $-1 $-1 $-1 $265 197 #
coedge $-1 $267 $275 $269 $325 forward $224 $-1 #
edge_name-twe-attrib $-1 $-1 $-1 $268 14 8448 #
straight-curve $358 -1.25 0.25 -0.21875 0 1 0 I I #
edge $359 $314 -0.4375 $271 0 $322 $360 forward 7 unknown #
point $-1 -1.25 0.25 -0.21875 #
cur-twe-attrib $-1 $-1 $-1 $272 201 #
surf-twe-attrib $-1 $-1 $-1 $274 203 #
cur-twe-attrib $-1 $-1 $-1 $277 206 #
coedge $-1 $282 $281 $335 $361 forward $143 $-1 #
edge $362 $305 -0.8125 $342 0 $298 $363 forward 7 unknown #
edge $364 $339 -0.8125 $308 0 $293 $365 forward 7 unknown #
edge_name-twe-attrib $-1 $-1 $-1 $283 28 8704 #
ellipse-curve $366 -0.4375 0.5 0 0 -1 0 0 0 -0.21875 1 I I #
coedge $-1 $289 $288 $330 $361 reversed $290 $-1 #
loop_type-twe-attrib $-1 $-1 $-1 $290 0 #
cur-twe-attrib $-1 $-1 $-1 $292 233 #
edge_name-twe-attrib $-1 $-1 $-1 $294 33 20480 #
vertex $-1 $294 $367 #
straight-curve $368 0.375 0 0.21875 0 -1 -5.551115123125780237e-17 I I #
edge_name-twe-attrib $-1 $-1 $-1 $299 36 20480 #
vertex $-1 $299 $369 #
straight-curve $370 0.375 0 -0.21875 0 -1 0 I I #
face_name-twe-attrib $-1 $-1 $-1 $301 16 #
plane-surface $371 0.375 0 -0.21875 0 0 -1 -1 0 0 forward_v I I I I #
point $-1 -0.4375 0.5 -0.21875 #
cur-twe-attrib $-1 $-1 $-1 $306 247 #
point $-1 -0.4375 0.5 0.21875 #
cur-twe-attrib $-1 $-1 $-1 $309 248 #
edge_name-twe-attrib $-1 $-1 $-1 $310 16 8448 #
straight-curve $372 -1.25 0.25 0.21875 0 1 0 I I #
point $-1 -1.25 0.25 0.21875 #
cur-twe-attrib $-1 $-1 $-1 $315 258 #
surf-twe-attrib $-1 $-1 $-1 $317 260 #
face_name-twe-attrib $-1 $-1 $-1 $319 15 #
cone-surface $373 0.375 0 0 0 1 0 0.21875 0 0 1 I I 0 1 0.21875 forward I I I I #
surf-twe-attrib $-1 $-1 $-1 $320 264 #
cur-twe-attrib $-1 $-1 $-1 $324 268 #
edge_name-twe-attrib $-1 $-1 $-1 $325 9 8448 #
straight-curve $374 -1.25 0.25 -0.21875 0 0 -1 I I #
edge $375 $342 -3.141592653589793116 $339 0 $335 $376 forward 7 unknown #
edge_name-twe-attrib $-1 $-1 $-1 $331 37 8704 #
straight-curve $377 0.375 0.5 -0.21875 1 0 -3.416070845000480004e-17 I I #
edge_name-twe-attrib $-1 $-1 $-1 $332 31 8704 #
straight-curve $378 -0.4375 0.5 0.21875 -1 0 0 I I #
cur-twe-attrib $-1 $-1 $-1 $334 283 #
point $-1 0.375 0.5 0.21875 #
cur-twe-attrib $-1 $-1 $-1 $340 294 #
point $-1 0.375 0.5 -0.21875 #
cur-twe-attrib $-1 $-1 $-1 $343 299 #
surf-twe-attrib $-1 $-1 $-1 $345 301 #
cur-twe-attrib $-1 $-1 $-1 $351 310 #
surf-twe-attrib $-1 $-1 $-1 $356 319 #
cur-twe-attrib $-1 $-1 $-1 $360 325 #
edge_name-twe-attrib $-1 $-1 $-1 $361 34 8704 #
ellipse-curve $379 0.375 0.5 0 0 -1 0 0 0 0.21875 1 I I #
cur-twe-attrib $-1 $-1 $-1 $363 331 #
cur-twe-attrib $-1 $-1 $-1 $365 332 #
cur-twe-attrib $-1 $-1 $-1 $376 361 #
End-of-ACIS-data 