600 0 1 0           
91 GICL ACIS Healer - Source: /gicl/data5/repository/UMD/tmp/sideLpocket/sideLpocket.sat - 6 0 18 ACIS 6.0.3 Solaris 24 Sun Apr 14 00:34:00 2002 
1 9.999999999999999547e-07 1.000000000000000036e-10 
body $-1 $1 $-1 $-1 #
lump $-1 $-1 $2 $0 #
shell $-1 $-1 $-1 $3 $-1 $1 #
face $-1 $4 $5 $2 $-1 $6 forward single #
face $-1 $7 $8 $2 $-1 $9 reversed single #
loop $-1 $-1 $10 $3 #
cone-surface $-1 45.31250000000007105 24.5625 26.81249999999991118 -1 0 3.491481338843129805e-15 1.458164608670460744e-14 4.176349426383044516 4.176349426383044516 1 I I 0 1 5.906249999999997335 forward I I I I #
face $-1 $11 $12 $2 $-1 $13 forward single #
loop $-1 $-1 $14 $4 #
plane-surface $-1 45.3125 30.46875 7.406249999999910294 0 -1 -0 -0.84375 0 2.945937379648890613e-15 forward_v I I I I #
coedge $-1 $15 $16 $17 $18 forward $5 $-1 #
face $-1 $19 $20 $2 $-1 $21 forward single #
loop $-1 $-1 $22 $7 #
plane-surface $-1 62.1875 22.03125 7.406249999999851674 1 0 -3.491481338843129805e-15 -2.945937379648890613e-15 0 -0.84375 forward_v I I I I #
coedge $-1 $23 $24 $25 $26 reversed $8 $-1 #
coedge $-1 $25 $10 $22 $27 forward $5 $-1 #
coedge $-1 $10 $25 $28 $29 forward $5 $-1 #
coedge $-1 $30 $31 $10 $18 reversed $32 $-1 #
edge $-1 $33 -20 $34 20 $17 $35 forward 7 unknown #
face $-1 $36 $37 $2 $-1 $38 reversed single #
loop $-1 $-1 $39 $11 #
cone-surface $-1 45.31250000000007105 19.5 26.81249999999991118 -1 -0 3.491481338843129805e-15 1.458164608670460744e-14 -4.176349426383044516 4.176349426383044516 1 I I 0 1 5.906249999999997335 forward I I I I #
coedge $-1 $40 $41 $15 $27 reversed $12 $-1 #
coedge $-1 $42 $14 $41 $43 reversed $8 $-1 #
coedge $-1 $14 $42 $44 $45 reversed $8 $-1 #
coedge $-1 $16 $15 $14 $26 forward $5 $-1 #
edge $-1 $46 -20 $47 20.00000000000000355 $14 $48 forward 7 unknown #
edge $-1 $34 -0.785398163397448279 $46 0.785398163397448279 $22 $49 forward 7 unknown #
coedge $-1 $44 $50 $16 $29 reversed $51 $-1 #
edge $-1 $47 -0.785398163397448279 $33 0.785398163397448279 $28 $52 forward 7 unknown #
coedge $-1 $53 $17 $50 $54 reversed $32 $-1 #
coedge $-1 $17 $53 $40 $55 reversed $32 $-1 #
loop $-1 $-1 $17 $56 #
vertex $-1 $54 $57 #
vertex $-1 $27 $58 #
straight-curve $-1 45.31250000000008527 24.5625 32.71874999999990763 0.84375 0 -2.945937379648890613e-15 I I #
face $-1 $59 $51 $2 $-1 $60 reversed single #
loop $-1 $-1 $61 $19 #
plane-surface $-1 45.3125 13.59375 7.406249999999910294 0 1 0 0.84375 0 -2.945937379648890613e-15 forward_v I I I I #
coedge $-1 $62 $63 $61 $64 forward $20 $-1 #
coedge $-1 $65 $22 $31 $55 forward $12 $-1 #
coedge $-1 $22 $66 $23 $43 forward $12 $-1 #
coedge $-1 $24 $23 $67 $68 reversed $8 $-1 #
edge $-1 $69 -33 $46 23 $23 $70 forward 7 unknown #
coedge $-1 $71 $28 $24 $45 forward $51 $-1 #
edge $-1 $47 -53 $72 3 $24 $73 forward 7 unknown #
vertex $-1 $43 $74 #
vertex $-1 $26 $75 #
straight-curve $-1 45.31250000000007105 30.46875 26.81249999999991118 -0.84375 0 2.945937379648890613e-15 I I #
ellipse-curve $-1 62.18750000000007105 24.5625 26.81249999999985079 -1 -0 3.491481338843129805e-15 1.458164608670460744e-14 4.176349426383044516 4.176349426383044516 1 I I #
coedge $-1 $28 $76 $30 $54 forward $51 $-1 #
loop $-1 $-1 $28 $36 #
ellipse-curve $-1 28.4375000000000675 24.5625 26.81249999999997158 1 0 -3.491481338843129805e-15 1.458164608670460744e-14 4.176349426383044516 4.176349426383044516 1 I I #
coedge $-1 $31 $30 $77 $78 reversed $32 $-1 #
edge $-1 $79 -3 $33 3 $30 $80 forward 7 unknown #
edge $-1 $34 -3 $81 3 $31 $82 forward 7 unknown #
face $-1 $-1 $32 $2 $-1 $83 reversed single #
point $-1 28.43750000000008527 24.5625 32.71874999999997158 #
point $-1 62.18750000000008527 24.5625 32.71874999999985079 #
face $-1 $84 $85 $2 $-1 $86 forward single #
plane-surface $-1 28.4375 22.03125 7.406249999999968914 1 0 -3.491481338843129805e-15 -2.945937379648890613e-15 0 -0.84375 forward_v I I I I #
coedge $-1 $87 $88 $39 $64 reversed $37 $-1 #
coedge $-1 $77 $39 $65 $89 forward $20 $-1 #
coedge $-1 $39 $77 $76 $90 forward $20 $-1 #
edge $-1 $91 -20.00000000000000355 $92 20 $61 $93 forward 7 unknown #
coedge $-1 $94 $40 $62 $89 reversed $12 $-1 #
coedge $-1 $41 $95 $96 $97 reversed $12 $-1 #
coedge $-1 $96 $98 $42 $68 forward $85 $-1 #
edge $-1 $72 -19.99999999999999645 $69 20 $42 $99 forward 7 unknown #
vertex $-1 $97 $100 #
straight-curve $-1 62.1875 30.46875 7.406249999999851674 2.945937379648890613e-15 0 0.84375 I I #
coedge $-1 $101 $44 $98 $102 reversed $51 $-1 #
vertex $-1 $45 $103 #
straight-curve $-1 28.43749999999991473 30.46875 -17.90625000000002842 -2.945937379648890613e-15 0 -0.84375 I I #
point $-1 62.18750000000007105 30.46875 26.81249999999985079 #
point $-1 28.4375000000000675 30.46875 26.81249999999997158 #
coedge $-1 $50 $104 $63 $90 reversed $51 $-1 #
coedge $-1 $63 $62 $53 $78 forward $20 $-1 #
edge $-1 $81 -20 $79 20 $53 $105 forward 7 unknown #
vertex $-1 $90 $106 #
straight-curve $-1 28.43750000000008527 22.03125 32.71874999999997158 0 0.84375 0 I I #
vertex $-1 $55 $107 #
straight-curve $-1 62.18750000000008527 22.03125 32.71874999999985079 0 -0.84375 -0 I I #
plane-surface $-1 45.31250000000008527 22.03125 32.71874999999990763 -3.491481338843129805e-15 0 -1 -0.84375 0 2.945937379648890613e-15 forward_v I I I I #
face $-1 $108 $109 $2 $-1 $110 reversed single #
loop $-1 $-1 $67 $59 #
cone-surface $-1 45.31249999999990052 24.5625 -20.43750000000008882 -1 0 3.491481338843129805e-15 -1.458164608670460744e-14 4.176349426383044516 -4.176349426383044516 1 I I 0 1 5.906249999999997335 forward I I I I #
coedge $-1 $111 $61 $104 $112 reversed $37 $-1 #
coedge $-1 $61 $111 $94 $113 reversed $37 $-1 #
edge $-1 $92 -0.785398163397448279 $81 0.785398163397448279 $65 $114 forward 7 unknown #
edge $-1 $79 -0.785398163397448279 $91 0.785398163397448279 $76 $115 forward 7 unknown #
vertex $-1 $112 $116 #
vertex $-1 $64 $117 #
straight-curve $-1 45.31250000000007105 13.59375 26.81249999999991118 0.84375 0 -2.945937379648890613e-15 I I #
coedge $-1 $118 $65 $88 $113 forward $12 $-1 #
coedge $-1 $66 $119 $120 $121 forward $12 $-1 #
coedge $-1 $122 $67 $66 $97 forward $85 $-1 #
edge $-1 $69 -0.785398163397448279 $123 0.785398163397448279 $66 $124 forward 7 unknown #
coedge $-1 $67 $122 $71 $102 forward $85 $-1 #
straight-curve $-1 45.31249999999990052 30.46875 -20.43750000000008882 0.84375 0 -2.945937379648890613e-15 I I #
point $-1 62.18749999999990052 30.46875 -20.43750000000014921 #
coedge $-1 $125 $71 $126 $127 forward $51 $-1 #
edge $-1 $128 -0.785398163397448279 $72 0.785398163397448279 $71 $129 forward 7 unknown #
point $-1 28.43749999999990408 30.46875 -20.43750000000002842 #
coedge $-1 $76 $130 $87 $112 forward $51 $-1 #
straight-curve $-1 45.31250000000008527 19.5 32.71874999999990763 -0.84375 0 2.945937379648890613e-15 I I #
point $-1 28.43750000000008527 19.5 32.71874999999997158 #
point $-1 62.18750000000008527 19.5 32.71874999999985079 #
face $-1 $131 $132 $2 $-1 $133 forward single #
loop $-1 $-1 $134 $84 #
plane-surface $-1 45.31249999999987921 5.15625 -26.34375000000008882 3.491481338843129805e-15 0 1 0.84375 0 -2.945937379648890613e-15 forward_v I I I I #
coedge $-1 $88 $87 $135 $136 forward $37 $-1 #
edge $-1 $137 -19.99999999999999645 $91 23.00000000000000355 $87 $138 forward 7 unknown #
edge $-1 $92 -23 $139 20 $88 $140 forward 7 unknown #
ellipse-curve $-1 62.18750000000007105 19.5 26.81249999999985079 -1 -0 3.491481338843129805e-15 1.458164608670460744e-14 -4.176349426383044516 4.176349426383044516 1 I I #
ellipse-curve $-1 28.4375000000000675 19.5 26.81249999999997158 1 0 -3.491481338843129805e-15 1.458164608670460744e-14 -4.176349426383044516 4.176349426383044516 1 I I #
point $-1 28.4375000000000675 13.59375 26.81249999999997158 #
point $-1 62.18750000000007105 13.59375 26.81249999999985079 #
coedge $-1 $141 $94 $142 $143 forward $12 $-1 #
coedge $-1 $95 $144 $145 $146 reversed $12 $-1 #
coedge $-1 $147 $134 $95 $121 reversed $109 $-1 #
edge $-1 $148 -23 $123 23 $120 $149 forward 7 unknown #
coedge $-1 $98 $96 $134 $150 forward $85 $-1 #
vertex $-1 $121 $151 #
ellipse-curve $-1 62.18749999999990052 24.5625 -20.43750000000014921 -1 -0 3.491481338843129805e-15 -1.458164608670460744e-14 4.176349426383044516 -4.176349426383044516 1 I I #
coedge $-1 $152 $101 $153 $154 reversed $51 $-1 #
coedge $-1 $134 $147 $101 $127 reversed $109 $-1 #
edge $-1 $128 -23 $155 23 $126 $156 forward 7 unknown #
vertex $-1 $150 $157 #
ellipse-curve $-1 28.43749999999990408 24.5625 -20.43750000000002842 1 0 -3.491481338843129805e-15 -1.458164608670460744e-14 4.176349426383044516 -4.176349426383044516 1 I I #
coedge $-1 $104 $158 $159 $160 forward $51 $-1 #
face $-1 $161 $162 $2 $-1 $163 reversed single #
loop $-1 $-1 $164 $108 #
cone-surface $-1 45.31249999999990052 -14.25 -20.43750000000008882 -1 0 3.491481338843129805e-15 -1.458164608670460744e-14 -4.176349426383044516 -4.176349426383044516 1 I I 0 1 5.906249999999997335 forward I I I I #
coedge $-1 $120 $126 $122 $150 reversed $109 $-1 #
coedge $-1 $159 $142 $111 $136 reversed $165 $-1 #
edge $-1 $137 -20.00000000000000355 $139 20 $111 $166 forward 7 unknown #
vertex $-1 $112 $167 #
straight-curve $-1 28.4375 13.59375 7.406249999999968914 2.945937379648890613e-15 0 0.84375 I I #
vertex $-1 $113 $168 #
straight-curve $-1 62.1875 13.59375 7.406249999999851674 -2.945937379648890613e-15 0 -0.84375 I I #
coedge $-1 $144 $118 $169 $170 reversed $12 $-1 #
coedge $-1 $135 $171 $118 $143 reversed $165 $-1 #
edge $-1 $139 -10 $172 23 $142 $173 forward 7 unknown #
coedge $-1 $119 $141 $174 $175 forward $12 $-1 #
coedge $-1 $176 $164 $119 $146 forward $132 $-1 #
edge $-1 $148 -0.785398163397448279 $177 0.785398163397448279 $119 $178 forward 7 unknown #
coedge $-1 $126 $120 $164 $179 reversed $109 $-1 #
vertex $-1 $146 $180 #
straight-curve $-1 62.18749999999988631 5.15625 -26.34375000000014566 0 0.84375 0 I I #
edge $-1 $123 -20.00000000000000711 $128 19.99999999999999645 $134 $181 forward 7 unknown #
point $-1 62.18749999999988631 24.5625 -26.34375000000014566 #
coedge $-1 $158 $125 $182 $183 forward $51 $-1 #
coedge $-1 $164 $176 $125 $154 forward $132 $-1 #
edge $-1 $184 -0.785398163397448279 $155 0.785398163397448279 $125 $185 forward 7 unknown #
vertex $-1 $127 $186 #
straight-curve $-1 28.43749999999988276 5.15625 -26.34375000000003197 0 -0.84375 -0 I I #
point $-1 28.43749999999988276 24.5625 -26.34375000000003197 #
coedge $-1 $130 $152 $187 $188 reversed $51 $-1 #
coedge $-1 $171 $135 $130 $160 reversed $165 $-1 #
edge $-1 $189 -23 $137 10 $159 $190 forward 7 unknown #
face $-1 $191 $192 $2 $-1 $193 forward single #
loop $-1 $-1 $194 $131 #
plane-surface $-1 45.31249999999991473 -20.15625 -17.90625000000008882 0 1 0 0.84375 0 -2.945937379648890613e-15 forward_v I I I I #
coedge $-1 $145 $153 $147 $179 forward $132 $-1 #
loop $-1 $-1 $171 $191 #
straight-curve $-1 45.31249999999994316 13.59375 -9.468750000000088818 0.84375 0 -2.945937379648890613e-15 I I #
point $-1 28.4374999999999396 13.59375 -9.468750000000028422 #
point $-1 62.18749999999994316 13.59375 -9.468750000000149214 #
coedge $-1 $195 $196 $141 $170 forward $192 $-1 #
edge $-1 $197 -0.785398163397448279 $172 0.785398163397448279 $141 $198 forward 7 unknown #
coedge $-1 $142 $159 $195 $199 reversed $165 $-1 #
vertex $-1 $143 $200 #
straight-curve $-1 62.18749999999994316 5.15625 -9.468750000000149214 0 -0.84375 -0 I I #
coedge $-1 $201 $194 $144 $175 reversed $162 $-1 #
edge $-1 $197 -3 $177 3 $174 $202 forward 7 unknown #
coedge $-1 $153 $145 $194 $203 forward $132 $-1 #
vertex $-1 $175 $204 #
ellipse-curve $-1 62.18749999999990052 -14.25 -20.43750000000014921 -1 -0 3.491481338843129805e-15 -1.458164608670460744e-14 -4.176349426383044516 -4.176349426383044516 1 I I #
edge $-1 $155 -19.99999999999999645 $148 20.00000000000000711 $147 $205 forward 7 unknown #
point $-1 62.18749999999988631 -14.25 -26.34375000000014566 #
straight-curve $-1 45.31249999999987921 24.5625 -26.34375000000008882 -0.84375 0 2.945937379648890613e-15 I I #
coedge $-1 $194 $201 $152 $183 reversed $162 $-1 #
edge $-1 $184 -3 $206 3 $182 $207 forward 7 unknown #
vertex $-1 $203 $208 #
ellipse-curve $-1 28.43749999999990408 -14.25 -20.43750000000002842 1 0 -3.491481338843129805e-15 -1.458164608670460744e-14 -4.176349426383044516 -4.176349426383044516 1 I I #
point $-1 28.43749999999988276 -14.25 -26.34375000000003197 #
coedge $-1 $196 $195 $158 $188 forward $192 $-1 #
edge $-1 $189 -0.785398163397448279 $206 0.785398163397448279 $158 $209 forward 7 unknown #
vertex $-1 $188 $210 #
straight-curve $-1 28.4374999999999396 5.15625 -9.468750000000028422 0 0.84375 0 I I #
face $-1 $56 $165 $2 $-1 $211 reversed single #
loop $-1 $-1 $196 $161 #
cone-surface $-1 45.31249999999992184 -14.25 -15.37500000000008882 -1 -0 3.491481338843129805e-15 1.458164608670460744e-14 -4.176349426383044516 4.176349426383044516 1 I I 0 1 5.906249999999997335 forward I I I I #
coedge $-1 $174 $182 $176 $203 reversed $162 $-1 #
coedge $-1 $187 $169 $171 $199 forward $192 $-1 #
coedge $-1 $169 $187 $201 $212 forward $192 $-1 #
vertex $-1 $212 $213 #
ellipse-curve $-1 62.18749999999991473 -14.25 -15.37500000000014921 -1 -0 3.491481338843129805e-15 1.458164608670460744e-14 -4.176349426383044516 4.176349426383044516 1 I I #
edge $-1 $172 -20 $189 20.00000000000000355 $171 $214 forward 7 unknown #
point $-1 62.18749999999994316 -14.25 -9.468750000000149214 #
coedge $-1 $182 $174 $196 $212 reversed $162 $-1 #
straight-curve $-1 62.18749999999991473 -20.15625 -17.90625000000014921 -2.945937379648890613e-15 0 -0.84375 I I #
edge $-1 $177 -20 $184 19.99999999999999645 $194 $215 forward 7 unknown #
point $-1 62.18749999999990052 -20.15625 -20.43750000000014921 #
straight-curve $-1 45.31249999999987921 -14.25 -26.34375000000008882 0.84375 0 -2.945937379648890613e-15 I I #
vertex $-1 $183 $216 #
straight-curve $-1 28.43749999999991473 -20.15625 -17.90625000000002842 2.945937379648890613e-15 0 0.84375 I I #
point $-1 28.43749999999990408 -20.15625 -20.43750000000002842 #
ellipse-curve $-1 28.43749999999991829 -14.25 -15.37500000000002842 1 0 -3.491481338843129805e-15 1.458164608670460744e-14 -4.176349426383044516 4.176349426383044516 1 I I #
point $-1 28.4374999999999396 -14.25 -9.468750000000028422 #
plane-surface $-1 45.31249999999994316 5.15625 -9.468750000000088818 -3.491481338843129805e-15 0 -1 -0.84375 0 2.945937379648890613e-15 forward_v I I I I #
edge $-1 $206 -20.00000000000000355 $197 19.99999999999999289 $201 $217 forward 7 unknown #
point $-1 62.18749999999991473 -20.15625 -15.37500000000014921 #
straight-curve $-1 45.31249999999994316 -14.25 -9.468750000000088818 -0.84375 0 2.945937379648890613e-15 I I #
straight-curve $-1 45.31249999999990052 -20.15625 -20.43750000000008882 -0.84375 0 2.945937379648890613e-15 I I #
point $-1 28.43749999999991829 -20.15625 -15.37500000000002842 #
straight-curve $-1 45.31249999999992184 -20.15625 -15.37500000000008882 0.84375 0 -2.945937379648890613e-15 I I #
End-of-ACIS-data 