105 219 1 0                             
body $-1 $1 $-1 $2 #
lump $-1 $-1 $3 $0 #
transform $-1 -3.49148133884313e-15 0 -1 0 1 0 1 0 -3.49148133884313e-15 45.3125 22.03125 7.40624999999991 0.84375 1 0 0 #
shell $-1 $-1 $-1 $4 $1 #
face $-1 $5 $6 $3 $-1 $7 forward single #
face $-1 $8 $9 $3 $-1 $10 reversed single #
loop $-1 $-1 $11 $4 #
cone-surface $-1 -23 3 0 0 0 -1 -4.94974746830583 4.94974746830583 0 1 0 1 0 #
face $-1 $12 $13 $3 $-1 $14 forward single #
loop $-1 $-1 $15 $5 #
plane-surface $-1 0 10 0 0 -1 0 0 0 -1 0 #
coedge $-1 $16 $17 $18 $19 0 $6 $-1 #
face $-1 $20 $21 $3 $-1 $22 forward single #
loop $-1 $-1 $23 $8 #
plane-surface $-1 0 0 20 0 0 1 1 0 0 0 #
coedge $-1 $24 $25 $26 $27 1 $9 $-1 #
coedge $-1 $26 $11 $23 $28 0 $6 $-1 #
coedge $-1 $11 $26 $29 $30 0 $6 $-1 #
coedge $-1 $31 $32 $11 $19 1 $33 $-1 #
edge $-1 $34 $35 $18 $36 0 #
face $-1 $37 $38 $3 $-1 $39 reversed single #
loop $-1 $-1 $40 $12 #
cone-surface $-1 -23 -3 0 -0 -0 -1 -4.94974746830583 -4.94974746830583 0 1 0 1 0 #
coedge $-1 $41 $42 $16 $28 1 $13 $-1 #
coedge $-1 $43 $15 $42 $44 1 $9 $-1 #
coedge $-1 $15 $43 $45 $46 1 $9 $-1 #
coedge $-1 $17 $16 $15 $27 0 $6 $-1 #
edge $-1 $47 $48 $15 $49 0 #
edge $-1 $35 $47 $23 $50 0 #
coedge $-1 $45 $51 $17 $30 1 $52 $-1 #
edge $-1 $48 $34 $29 $53 0 #
coedge $-1 $54 $18 $51 $55 1 $33 $-1 #
coedge $-1 $18 $54 $41 $56 1 $33 $-1 #
loop $-1 $-1 $18 $57 #
vertex $-1 $55 $58 #
vertex $-1 $28 $59 #
straight-curve $-1 -30 3 0 0 0 1 #
face $-1 $60 $52 $3 $-1 $61 reversed single #
loop $-1 $-1 $62 $20 #
plane-surface $-1 0 -10 0 0 1 -0 -0 0 1 0 #
coedge $-1 $63 $64 $62 $65 0 $21 $-1 #
coedge $-1 $66 $23 $32 $56 0 $13 $-1 #
coedge $-1 $23 $67 $24 $44 0 $13 $-1 #
coedge $-1 $25 $24 $68 $69 1 $9 $-1 #
edge $-1 $70 $47 $24 $71 0 #
coedge $-1 $72 $29 $25 $46 0 $52 $-1 #
edge $-1 $48 $73 $25 $74 0 #
vertex $-1 $44 $75 #
vertex $-1 $27 $76 #
straight-curve $-1 -23 10 0 0 0 -1 #
ellipse-curve $-1 -23 3 20 -0 -0 -1 -4.94974746830583 4.94974746830583 0 1 #
coedge $-1 $29 $77 $31 $55 0 $52 $-1 #
loop $-1 $-1 $29 $37 #
ellipse-curve $-1 -23 3 -20 0 0 1 -4.94974746830583 4.94974746830583 0 1 #
coedge $-1 $32 $31 $78 $79 1 $33 $-1 #
edge $-1 $80 $34 $31 $81 0 #
edge $-1 $35 $82 $32 $83 0 #
face $-1 $-1 $33 $3 $-1 $84 reversed single #
point $-1 -30 3 -20 #
point $-1 -30 3 20 #
face $-1 $85 $86 $3 $-1 $87 forward single #
plane-surface $-1 0 0 -20 0 0 1 1 0 0 0 #
coedge $-1 $88 $89 $40 $65 1 $38 $-1 #
coedge $-1 $78 $40 $66 $90 0 $21 $-1 #
coedge $-1 $40 $78 $77 $91 0 $21 $-1 #
edge $-1 $92 $93 $62 $94 0 #
coedge $-1 $95 $41 $63 $90 1 $13 $-1 #
coedge $-1 $42 $96 $97 $98 1 $13 $-1 #
coedge $-1 $97 $99 $43 $69 0 $86 $-1 #
edge $-1 $73 $70 $43 $100 0 #
vertex $-1 $98 $101 #
straight-curve $-1 0 10 20 -1 0 0 #
coedge $-1 $102 $45 $99 $103 1 $52 $-1 #
vertex $-1 $46 $104 #
straight-curve $-1 30 10 -20 1 0 0 #
point $-1 -23 10 20 #
point $-1 -23 10 -20 #
coedge $-1 $51 $105 $64 $91 1 $52 $-1 #
coedge $-1 $64 $63 $54 $79 0 $21 $-1 #
edge $-1 $82 $80 $54 $106 0 #
vertex $-1 $91 $107 #
straight-curve $-1 -30 0 -20 0 1 0 #
vertex $-1 $56 $108 #
straight-curve $-1 -30 0 20 0 -1 0 #
plane-surface $-1 -30 0 0 1 0 0 0 0 -1 0 #
face $-1 $109 $110 $3 $-1 $111 reversed single #
loop $-1 $-1 $68 $60 #
cone-surface $-1 33 3 0 0 0 -1 4.94974746830583 4.94974746830583 0 1 0 1 0 #
coedge $-1 $112 $62 $105 $113 1 $38 $-1 #
coedge $-1 $62 $112 $95 $114 1 $38 $-1 #
edge $-1 $93 $82 $66 $115 0 #
edge $-1 $80 $92 $77 $116 0 #
vertex $-1 $113 $117 #
vertex $-1 $65 $118 #
straight-curve $-1 -23 -10 0 0 0 1 #
coedge $-1 $119 $66 $89 $114 0 $13 $-1 #
coedge $-1 $67 $120 $121 $122 0 $13 $-1 #
coedge $-1 $123 $68 $67 $98 0 $86 $-1 #
edge $-1 $70 $124 $67 $125 0 #
coedge $-1 $68 $123 $72 $103 0 $86 $-1 #
straight-curve $-1 33 10 0 0 0 1 #
point $-1 33 10 20 #
coedge $-1 $126 $72 $127 $128 0 $52 $-1 #
edge $-1 $129 $73 $72 $130 0 #
point $-1 33 10 -20 #
coedge $-1 $77 $131 $88 $113 0 $52 $-1 #
straight-curve $-1 -30 -3 0 0 0 -1 #
point $-1 -30 -3 -20 #
point $-1 -30 -3 20 #
face $-1 $132 $133 $3 $-1 $134 forward single #
loop $-1 $-1 $135 $85 #
plane-surface $-1 40 -20 0 -1 0 0 0 0 1 0 #
coedge $-1 $89 $88 $136 $137 0 $38 $-1 #
edge $-1 $138 $92 $88 $139 0 #
edge $-1 $93 $140 $89 $141 0 #
ellipse-curve $-1 -23 -3 20 -0 -0 -1 -4.94974746830583 -4.94974746830583 0 1 #
ellipse-curve $-1 -23 -3 -20 0 0 1 -4.94974746830583 -4.94974746830583 0 1 #
point $-1 -23 -10 -20 #
point $-1 -23 -10 20 #
coedge $-1 $142 $95 $143 $144 0 $13 $-1 #
coedge $-1 $96 $145 $146 $147 1 $13 $-1 #
coedge $-1 $148 $135 $96 $122 1 $110 $-1 #
edge $-1 $149 $124 $121 $150 0 #
coedge $-1 $99 $97 $135 $151 0 $86 $-1 #
vertex $-1 $122 $152 #
ellipse-curve $-1 33 3 20 -0 -0 -1 4.94974746830583 4.94974746830583 0 1 #
coedge $-1 $153 $102 $154 $155 1 $52 $-1 #
coedge $-1 $135 $148 $102 $128 1 $110 $-1 #
edge $-1 $129 $156 $127 $157 0 #
vertex $-1 $151 $158 #
ellipse-curve $-1 33 3 -20 0 0 1 4.94974746830583 4.94974746830583 0 1 #
coedge $-1 $105 $159 $160 $161 0 $52 $-1 #
face $-1 $162 $163 $3 $-1 $164 reversed single #
loop $-1 $-1 $165 $109 #
cone-surface $-1 33 -43 0 0 0 -1 4.94974746830583 -4.94974746830583 0 1 0 1 0 #
coedge $-1 $121 $127 $123 $151 1 $110 $-1 #
coedge $-1 $160 $143 $112 $137 1 $166 $-1 #
edge $-1 $138 $140 $112 $167 0 #
vertex $-1 $113 $168 #
straight-curve $-1 0 -10 -20 -1 0 0 #
vertex $-1 $114 $169 #
straight-curve $-1 0 -10 20 1 0 0 #
coedge $-1 $145 $119 $170 $171 1 $13 $-1 #
coedge $-1 $136 $172 $119 $144 1 $166 $-1 #
edge $-1 $140 $173 $143 $174 0 #
coedge $-1 $120 $142 $175 $176 0 $13 $-1 #
coedge $-1 $177 $165 $120 $147 0 $133 $-1 #
edge $-1 $149 $178 $120 $179 0 #
coedge $-1 $127 $121 $165 $180 1 $110 $-1 #
vertex $-1 $147 $181 #
straight-curve $-1 40 -20 20 0 1 0 #
edge $-1 $124 $129 $135 $182 0 #
point $-1 40 3 20 #
coedge $-1 $159 $126 $183 $184 0 $52 $-1 #
coedge $-1 $165 $177 $126 $155 0 $133 $-1 #
edge $-1 $185 $156 $126 $186 0 #
vertex $-1 $128 $187 #
straight-curve $-1 40 -20 -20 0 -1 0 #
point $-1 40 3 -20 #
coedge $-1 $131 $153 $188 $189 1 $52 $-1 #
coedge $-1 $172 $136 $131 $161 1 $166 $-1 #
edge $-1 $190 $138 $160 $191 0 #
face $-1 $192 $193 $3 $-1 $194 forward single #
loop $-1 $-1 $195 $132 #
plane-surface $-1 30 -50 0 0 1 0 0 0 1 0 #
coedge $-1 $146 $154 $148 $180 0 $133 $-1 #
loop $-1 $-1 $172 $192 #
straight-curve $-1 20 -10 0 -0 0 1 #
point $-1 20 -10 -20 #
point $-1 20 -10 20 #
coedge $-1 $196 $197 $142 $171 0 $193 $-1 #
edge $-1 $198 $173 $142 $199 0 #
coedge $-1 $143 $160 $196 $200 1 $166 $-1 #
vertex $-1 $144 $201 #
straight-curve $-1 20 -20 20 0 -1 0 #
coedge $-1 $202 $195 $145 $176 1 $163 $-1 #
edge $-1 $198 $178 $175 $203 0 #
coedge $-1 $154 $146 $195 $204 0 $133 $-1 #
vertex $-1 $176 $205 #
ellipse-curve $-1 33 -43 20 -0 -0 -1 4.94974746830583 -4.94974746830583 0 1 #
edge $-1 $156 $149 $148 $206 0 #
point $-1 40 -43 20 #
straight-curve $-1 40 3 0 0 0 -1 #
coedge $-1 $195 $202 $153 $184 1 $163 $-1 #
edge $-1 $185 $207 $183 $208 0 #
vertex $-1 $204 $209 #
ellipse-curve $-1 33 -43 -20 0 0 1 4.94974746830583 -4.94974746830583 0 1 #
point $-1 40 -43 -20 #
coedge $-1 $197 $196 $159 $189 0 $193 $-1 #
edge $-1 $190 $207 $159 $210 0 #
vertex $-1 $189 $211 #
straight-curve $-1 20 -20 -20 0 1 0 #
face $-1 $57 $166 $3 $-1 $212 reversed single #
loop $-1 $-1 $197 $162 #
cone-surface $-1 27 -43 0 -0 -0 -1 -4.94974746830583 -4.94974746830583 0 1 0 1 0 #
coedge $-1 $175 $183 $177 $204 1 $163 $-1 #
coedge $-1 $188 $170 $172 $200 0 $193 $-1 #
coedge $-1 $170 $188 $202 $213 0 $193 $-1 #
vertex $-1 $213 $214 #
ellipse-curve $-1 27 -43 20 -0 -0 -1 -4.94974746830583 -4.94974746830583 0 1 #
edge $-1 $173 $190 $172 $215 0 #
point $-1 20 -43 20 #
coedge $-1 $183 $175 $197 $213 1 $163 $-1 #
straight-curve $-1 30 -50 20 1 0 0 #
edge $-1 $178 $185 $195 $216 0 #
point $-1 33 -50 20 #
straight-curve $-1 40 -43 0 0 0 1 #
vertex $-1 $184 $217 #
straight-curve $-1 30 -50 -20 -1 0 0 #
point $-1 33 -50 -20 #
ellipse-curve $-1 27 -43 -20 0 0 1 -4.94974746830583 -4.94974746830583 0 1 #
point $-1 20 -43 -20 #
plane-surface $-1 20 -20 0 1 0 0 0 0 -1 0 #
edge $-1 $207 $198 $202 $218 0 #
point $-1 27 -50 20 #
straight-curve $-1 20 -43 0 0 0 -1 #
straight-curve $-1 33 -50 0 0 0 -1 #
point $-1 27 -50 -20 #
straight-curve $-1 27 -50 0 0 0 1 #
