600 0 2 0           
24 FBMach with ACIS - 6.0.3 13 ACIS 6.0.3 NT 24 Sun Mar 31 23:25:14 2002 
1 9.9999999999999995e-007 1e-010 
body $2 $3 $-1 $4 #
bdycol-kcp $-1 1 2 $5 $6 #
model_id-kcp-attrib $-1 $7 $-1 $0 1 1017635114 80 -967835647 1 #
lump $-1 $-1 $8 $0 #
transform $-1 1 0 0 0 1 0 0 0 1 0 0 0 1 rotate no_reflect no_shear #
body $9 $10 $-1 $11 #
body $12 $13 $-1 $14 #
aggregate_advspl_attribute-aggregate_geombuild_base_attribute-aggregate_body_attribute-attrib_HH-attrib $-1 $15 $2 $0 F #
shell $-1 $-1 $-1 $16 $-1 $3 #
model_id-kcp-attrib $-1 $-1 $-1 $5 1 1017635114 80 -967835646 1 #
lump $-1 $-1 $17 $5 #
transform $-1 1 0 0 0 1 0 0 0 1 45.312499999999986 5.15625 3.1874999999999112 1 no_rotate no_reflect no_shear #
rgb_color-st-attrib $-1 $18 $-1 $6 1 0.5 1 #
lump $-1 $-1 $19 $6 #
transform $-1 1 0 0 0 1 0 0 0 1 45.312499999999986 5.15625 3.1874999999999112 1 no_rotate no_reflect no_shear #
aggregate_secndry_attribute-aggregate_geombuild_base_attribute-aggregate_body_attribute-attrib_HH-attrib $-1 $20 $7 $0 F #
face $21 $22 $23 $8 $-1 $24 forward single #
shell $-1 $-1 $-1 $25 $-1 $10 #
model_id-kcp-attrib $-1 $-1 $12 $6 1 1017635114 330 -968228861 1 #
shell $-1 $-1 $-1 $26 $-1 $13 #
aggregate_sharped_attribute-aggregate_geombuild_base_attribute-aggregate_body_attribute-attrib_HH-attrib $-1 $27 $15 $0 F #
model_id-kcp-attrib $-1 $28 $-1 $16 1 1017635114 80 -967835647 2 #
face $29 $30 $31 $8 $-1 $32 reversed single #
loop $-1 $-1 $33 $16 #
cone-surface $-1 45.312500000000071 24.5625 26.812499999999911 -1 0 3.4914813388431298e-015 1.4581646086704607e-014 4.1763494263830445 4.1763494263830445 1 I I 0 1 5.9062499999999973 forward I I I I #
face $34 $35 $36 $17 $-1 $37 forward single #
face $-1 $38 $39 $19 $-1 $40 forward single #
aggregate_reblend_attribute-aggregate_geombuild_base_attribute-aggregate_body_attribute-attrib_HH-attrib $-1 $41 $20 $0 F #
attrib_hh_face_geombuild-attrib_entity_geombuild-individual_entity_attribute-attrib_HH-attrib $-1 $-1 $21 $16 F #
model_id-kcp-attrib $-1 $42 $-1 $22 1 1017635114 80 -967835647 3 #
face $43 $44 $45 $8 $-1 $46 forward single #
loop $-1 $-1 $47 $22 #
plane-surface $-1 45.3125 30.46875 7.4062499999999103 0 -1 0 -0.84375 0 2.9459373796488906e-015 forward_v I I I I #
coedge $48 $49 $50 $51 $52 forward $23 $-1 #
model_id-kcp-attrib $-1 $-1 $-1 $25 1 1017635114 80 -967835646 7 #
face $53 $54 $55 $17 $-1 $56 reversed single #
loop $-1 $-1 $57 $25 #
plane-surface $-1 0 0 29.53125000000006 0 0 1 1 0 0 forward_v I I I I #
face $-1 $58 $59 $19 $-1 $60 forward single #
loop $-1 $-1 $61 $26 #
plane-surface $-1 -16.875000000000043 8.4375 -12.65624999999994 -1 0 0 0 0 1 forward_v I I I I #
aggregate_isospline_attribute-aggregate_geombuild_base_attribute-aggregate_body_attribute-attrib_HH-attrib $-1 $62 $27 $0 F #
attrib_hh_face_geombuild-attrib_entity_geombuild-individual_entity_attribute-attrib_HH-attrib $-1 $-1 $29 $22 F #
model_id-kcp-attrib $-1 $63 $-1 $30 1 1017635114 80 -967835647 4 #
face $64 $65 $66 $8 $-1 $67 forward single #
loop $-1 $-1 $68 $30 #
plane-surface $-1 62.1875 22.03125 7.4062499999998517 1 0 -3.4914813388431298e-015 -2.9459373796488906e-015 0 -0.84375 forward_v I I I I #
coedge $69 $70 $71 $72 $73 reversed $31 $-1 #
attrib_hh_coedge_geombuild-attrib_entity_geombuild-individual_entity_attribute-attrib_HH-attrib $-1 $-1 $-1 $33 F #
coedge $74 $72 $33 $68 $75 forward $23 $-1 #
coedge $76 $33 $72 $77 $78 forward $23 $-1 #
coedge $79 $80 $81 $33 $52 reversed $82 $-1 #
edge $83 $84 -20 $85 20 $51 $86 forward 7 unknown #
model_id-kcp-attrib $-1 $-1 $-1 $35 1 1017635114 80 -967835646 5 #
face $87 $88 $89 $17 $-1 $90 reversed single #
loop $-1 $-1 $91 $35 #
plane-surface $-1 0 0 -29.53125000000006 0 0 1 1 0 0 forward_v I I I I #
coedge $-1 $92 $93 $94 $95 forward $36 $-1 #
face $-1 $96 $97 $19 $-1 $98 forward single #
loop $-1 $-1 $99 $38 #
plane-surface $-1 -16.875000000000099 8.4375 29.53125000000006 0 0 1 1 0 0 forward_v I I I I #
coedge $-1 $100 $101 $102 $103 forward $39 $-1 #
aggregate_analytic_solver_attribute-aggregate_geombuild_base_attribute-aggregate_body_attribute-attrib_HH-attrib $-1 $104 $41 $0 F #
attrib_hh_face_geombuild-attrib_entity_geombuild-individual_entity_attribute-attrib_HH-attrib $-1 $-1 $43 $30 F #
model_id-kcp-attrib $-1 $105 $-1 $44 1 1017635114 80 -967835647 5 #
face $106 $107 $108 $8 $-1 $109 reversed single #
loop $-1 $-1 $110 $44 #
cone-surface $-1 45.312500000000071 19.5 26.812499999999911 -1 0 3.4914813388431298e-015 1.4581646086704607e-014 -4.1763494263830445 4.1763494263830445 1 I I 0 1 5.9062499999999973 forward I I I I #
coedge $111 $112 $113 $49 $75 reversed $45 $-1 #
attrib_hh_coedge_geombuild-attrib_entity_geombuild-individual_entity_attribute-attrib_HH-attrib $-1 $-1 $-1 $47 F #
coedge $114 $115 $47 $113 $116 reversed $31 $-1 #
coedge $117 $47 $115 $118 $119 reversed $31 $-1 #
coedge $120 $50 $49 $47 $73 forward $23 $-1 #
edge $121 $122 -20 $123 20.000000000000004 $47 $124 forward 7 unknown #
attrib_hh_coedge_geombuild-attrib_entity_geombuild-individual_entity_attribute-attrib_HH-attrib $-1 $-1 $-1 $49 F #
edge $125 $85 -0.78539816339744828 $122 0.78539816339744828 $68 $126 forward 7 unknown #
attrib_hh_coedge_geombuild-attrib_entity_geombuild-individual_entity_attribute-attrib_HH-attrib $-1 $-1 $-1 $50 F #
coedge $127 $118 $128 $50 $78 reversed $129 $-1 #
edge $130 $123 -0.78539816339744828 $84 0.78539816339744828 $77 $131 forward 7 unknown #
attrib_hh_coedge_geombuild-attrib_entity_geombuild-individual_entity_attribute-attrib_HH-attrib $-1 $-1 $-1 $51 F #
coedge $132 $133 $51 $128 $134 reversed $82 $-1 #
coedge $135 $51 $133 $112 $136 reversed $82 $-1 #
loop $-1 $-1 $51 $137 #
attrib_hh_edge_geombuild-attrib_entity_geombuild-individual_entity_attribute-attrib_HH-attrib $-1 $-1 $-1 $52 F #
vertex $138 $134 $139 #
vertex $140 $75 $141 #
straight-curve $-1 45.312500000000085 24.5625 32.718749999999908 0.84375 0 -2.9459373796488906e-015 I I #
model_id-kcp-attrib $-1 $-1 $-1 $54 1 1017635114 80 -967835646 6 #
face $142 $143 $144 $17 $-1 $145 reversed single #
loop $-1 $-1 $146 $54 #
plane-surface $-1 0 -25.3125 0 0 1 0 0 0 1 forward_v I I I I #
coedge $-1 $147 $148 $149 $150 forward $55 $-1 #
coedge $-1 $151 $57 $152 $153 forward $36 $-1 #
coedge $-1 $57 $151 $154 $155 forward $36 $-1 #
coedge $-1 $156 $157 $57 $95 reversed $158 $-1 #
edge $-1 $159 -25.3125 $160 25.3125 $94 $161 forward 7 unknown #
face $-1 $162 $163 $19 $-1 $164 forward single #
loop $-1 $-1 $165 $58 #
plane-surface $-1 16.875000000000099 8.4375 29.53125000000006 1 0 0 0 0 -1 forward_v I I I I #
coedge $-1 $166 $167 $168 $169 forward $59 $-1 #
coedge $-1 $170 $61 $167 $171 reversed $39 $-1 #
coedge $-1 $61 $170 $172 $173 forward $39 $-1 #
coedge $-1 $174 $168 $61 $103 reversed $175 $-1 #
edge $-1 $176 -15.39843749999994 $177 26.78906250000006 $61 $178 forward 7 unknown #
aggregate_geombuild_attribute-aggregate_geombuild_base_attribute-aggregate_body_attribute-attrib_HH-attrib $-1 $179 $62 $0 #
attrib_hh_face_geombuild-attrib_entity_geombuild-individual_entity_attribute-attrib_HH-attrib $-1 $-1 $64 $44 F #
model_id-kcp-attrib $-1 $180 $-1 $65 1 1017635114 80 -967835647 6 #
face $181 $182 $129 $8 $-1 $183 reversed single #
loop $-1 $-1 $184 $65 #
plane-surface $-1 45.3125 13.59375 7.4062499999999103 0 1 0 0.84375 0 -2.9459373796488906e-015 forward_v I I I I #
coedge $185 $186 $187 $184 $188 forward $66 $-1 #
attrib_hh_coedge_geombuild-attrib_entity_geombuild-individual_entity_attribute-attrib_HH-attrib $-1 $-1 $-1 $68 F #
coedge $189 $190 $68 $81 $136 forward $45 $-1 #
coedge $191 $68 $192 $70 $116 forward $45 $-1 #
attrib_hh_coedge_geombuild-attrib_entity_geombuild-individual_entity_attribute-attrib_HH-attrib $-1 $-1 $-1 $70 F #
coedge $193 $71 $70 $194 $195 reversed $31 $-1 #
edge $196 $197 -33 $122 23 $70 $198 forward 7 unknown #
attrib_hh_coedge_geombuild-attrib_entity_geombuild-individual_entity_attribute-attrib_HH-attrib $-1 $-1 $-1 $71 F #
coedge $199 $200 $77 $71 $119 forward $129 $-1 #
edge $201 $123 -53 $202 3 $71 $203 forward 7 unknown #
attrib_hh_coedge_geombuild-attrib_entity_geombuild-individual_entity_attribute-attrib_HH-attrib $-1 $-1 $-1 $72 F #
attrib_edge_convexity-kcp-attrib $-1 $204 $-1 $73 3 #
vertex $205 $116 $206 #
vertex $207 $73 $208 #
straight-curve $-1 45.312500000000071 30.46875 26.812499999999911 -0.84375 0 2.9459373796488906e-015 I I #
attrib_edge_convexity-kcp-attrib $-1 $209 $-1 $75 1 #
ellipse-curve $-1 62.187500000000071 24.5625 26.812499999999851 -1 0 3.4914813388431298e-015 1.4581646086704607e-014 4.1763494263830445 4.1763494263830445 1 I I #
attrib_hh_coedge_geombuild-attrib_entity_geombuild-individual_entity_attribute-attrib_HH-attrib $-1 $-1 $-1 $77 F #
coedge $210 $77 $211 $80 $134 forward $129 $-1 #
loop $-1 $-1 $77 $107 #
attrib_hh_edge_geombuild-attrib_entity_geombuild-individual_entity_attribute-attrib_HH-attrib $-1 $-1 $-1 $78 F #
ellipse-curve $-1 28.437500000000068 24.5625 26.812499999999972 1 0 -3.4914813388431298e-015 1.4581646086704607e-014 4.1763494263830445 4.1763494263830445 1 I I #
attrib_hh_coedge_geombuild-attrib_entity_geombuild-individual_entity_attribute-attrib_HH-attrib $-1 $-1 $-1 $80 F #
coedge $212 $81 $80 $213 $214 reversed $82 $-1 #
edge $215 $216 -3 $84 3 $80 $217 forward 7 unknown #
attrib_hh_coedge_geombuild-attrib_entity_geombuild-individual_entity_attribute-attrib_HH-attrib $-1 $-1 $-1 $81 F #
edge $218 $85 -3 $219 3 $81 $220 forward 7 unknown #
face $221 $-1 $82 $8 $-1 $222 reversed single #
attrib_hh_vertex_geombuild-attrib_entity_geombuild-individual_entity_attribute-attrib_HH-attrib $-1 $-1 $-1 $84 F #
point $-1 28.437500000000085 24.5625 32.718749999999972 #
attrib_hh_vertex_geombuild-attrib_entity_geombuild-individual_entity_attribute-attrib_HH-attrib $-1 $-1 $-1 $85 F #
point $-1 62.187500000000085 24.5625 32.718749999999851 #
model_id-kcp-attrib $-1 $-1 $-1 $88 1 1017635114 80 -967835646 4 #
face $223 $224 $225 $17 $-1 $226 reversed single #
loop $-1 $-1 $227 $88 #
plane-surface $-1 -16.875000000000099 0 0 1 0 0 0 0 -1 forward_v I I I I #
coedge $-1 $228 $154 $229 $230 forward $89 $-1 #
coedge $-1 $231 $91 $228 $232 forward $55 $-1 #
coedge $-1 $91 $231 $233 $234 forward $55 $-1 #
coedge $-1 $157 $156 $91 $150 reversed $158 $-1 #
edge $-1 $235 -25.3125 $236 25.3125 $149 $237 forward 7 unknown #
coedge $-1 $93 $92 $238 $239 forward $36 $-1 #
coedge $-1 $240 $241 $92 $153 reversed $225 $-1 #
edge $-1 $160 -16.875000000000099 $242 16.875000000000099 $152 $243 forward 7 unknown #
coedge $-1 $146 $244 $93 $155 reversed $89 $-1 #
edge $-1 $245 -16.875000000000099 $159 16.875000000000099 $154 $246 forward 7 unknown #
coedge $-1 $149 $94 $244 $247 forward $158 $-1 #
coedge $-1 $94 $149 $240 $248 reversed $158 $-1 #
loop $-1 $-1 $156 $224 #
vertex $-1 $95 $249 #
vertex $-1 $95 $250 #
straight-curve $-1 16.875000000000099 0 29.53125000000006 0 1 0 I I #
face $-1 $251 $175 $19 $-1 $252 reversed single #
loop $-1 $-1 $253 $96 #
plane-surface $-1 16.874999999999957 8.4375 -12.65625000000006 -3.4914813388431298e-015 0 -1 -1 0 3.4914813388431298e-015 forward_v I I I I #
coedge $-1 $254 $255 $256 $257 forward $97 $-1 #
coedge $-1 $258 $99 $255 $259 reversed $59 $-1 #
coedge $-1 $99 $258 $100 $171 forward $59 $-1 #
coedge $-1 $102 $256 $99 $169 reversed $175 $-1 #
edge $-1 $177 -16.87500000000011 $260 16.875000000000089 $99 $261 forward 7 unknown #
coedge $-1 $101 $100 $262 $263 reversed $39 $-1 #
edge $-1 $264 0 $177 27.84375 $167 $265 forward 7 unknown #
coedge $-1 $266 $253 $101 $173 reversed $163 $-1 #
edge $-1 $267 0 $176 27.84375 $101 $268 forward 7 unknown #
coedge $-1 $256 $102 $253 $269 reversed $175 $-1 #
loop $-1 $-1 $102 $162 #
vertex $-1 $173 $270 #
vertex $-1 $171 $271 #
straight-curve $-1 -16.875000000000099 -19.40625 2.7421875 0 0 1 I I #
aggregate_stitch_attribute-aggregate_stitch_base_attribute-aggregate_body_attribute-attrib_HH-attrib $-1 $272 $104 $0 F #
attrib_hh_face_geombuild-attrib_entity_geombuild-individual_entity_attribute-attrib_HH-attrib $-1 $-1 $106 $65 F #
model_id-kcp-attrib $-1 $273 $-1 $107 1 1017635114 80 -967835647 7 #
face $274 $275 $276 $8 $-1 $277 forward single #
plane-surface $-1 28.4375 22.03125 7.4062499999999689 1 0 -3.4914813388431298e-015 -2.9459373796488906e-015 0 -0.84375 forward_v I I I I #
coedge $278 $279 $280 $110 $188 reversed $108 $-1 #
attrib_hh_coedge_geombuild-attrib_entity_geombuild-individual_entity_attribute-attrib_HH-attrib $-1 $-1 $-1 $110 F #
coedge $281 $213 $110 $190 $282 forward $66 $-1 #
coedge $283 $110 $213 $211 $284 forward $66 $-1 #
edge $285 $286 -20.000000000000004 $287 20 $184 $288 forward 7 unknown #
attrib_hh_coedge_geombuild-attrib_entity_geombuild-individual_entity_attribute-attrib_HH-attrib $-1 $-1 $-1 $112 F #
coedge $289 $290 $112 $186 $282 reversed $45 $-1 #
attrib_hh_coedge_geombuild-attrib_entity_geombuild-individual_entity_attribute-attrib_HH-attrib $-1 $-1 $-1 $113 F #
coedge $291 $113 $292 $293 $294 reversed $45 $-1 #
attrib_hh_coedge_geombuild-attrib_entity_geombuild-individual_entity_attribute-attrib_HH-attrib $-1 $-1 $-1 $115 F #
coedge $295 $293 $296 $115 $195 forward $276 $-1 #
edge $297 $202 -19.999999999999996 $197 20 $115 $298 forward 7 unknown #
attrib_edge_convexity-kcp-attrib $-1 $299 $-1 $116 1 #
vertex $300 $294 $301 #
straight-curve $-1 62.1875 30.46875 7.4062499999998517 2.9459373796488906e-015 0 0.84375 I I #
attrib_hh_coedge_geombuild-attrib_entity_geombuild-individual_entity_attribute-attrib_HH-attrib $-1 $-1 $-1 $118 F #
coedge $302 $303 $118 $296 $304 reversed $129 $-1 #
attrib_edge_convexity-kcp-attrib $-1 $305 $-1 $119 1 #
vertex $306 $119 $307 #
straight-curve $-1 28.437499999999915 30.46875 -17.906250000000028 -2.9459373796488906e-015 0 -0.84375 I I #
convexity-sys-attrib $-1 $308 $121 $73 #
attrib_hh_vertex_geombuild-attrib_entity_geombuild-individual_entity_attribute-attrib_HH-attrib $-1 $-1 $-1 $122 F #
point $-1 62.187500000000071 30.46875 26.812499999999851 #
attrib_hh_vertex_geombuild-attrib_entity_geombuild-individual_entity_attribute-attrib_HH-attrib $-1 $-1 $-1 $123 F #
point $-1 28.437500000000068 30.46875 26.812499999999972 #
convexity-sys-attrib $-1 $309 $125 $75 #
attrib_hh_coedge_geombuild-attrib_entity_geombuild-individual_entity_attribute-attrib_HH-attrib $-1 $-1 $-1 $128 F #
coedge $310 $128 $311 $187 $284 reversed $129 $-1 #
attrib_hh_coedge_geombuild-attrib_entity_geombuild-individual_entity_attribute-attrib_HH-attrib $-1 $-1 $-1 $133 F #
coedge $312 $187 $186 $133 $214 forward $66 $-1 #
edge $313 $219 -20 $216 20 $133 $314 forward 7 unknown #
attrib_hh_edge_geombuild-attrib_entity_geombuild-individual_entity_attribute-attrib_HH-attrib $-1 $-1 $-1 $134 F #
vertex $315 $284 $316 #
straight-curve $-1 28.437500000000085 22.03125 32.718749999999972 0 0.84375 0 I I #
attrib_edge_convexity-kcp-attrib $-1 $317 $-1 $136 1 #
vertex $318 $136 $319 #
straight-curve $-1 62.187500000000085 22.03125 32.718749999999851 0 -0.84375 0 I I #
model_id-kcp-attrib $-1 $320 $-1 $137 1 1017635114 80 -967835647 14 #
plane-surface $-1 45.312500000000085 22.03125 32.718749999999908 -3.4914813388431298e-015 0 -1 -0.84375 0 2.9459373796488906e-015 forward_v I I I I #
model_id-kcp-attrib $-1 $-1 $-1 $143 1 1017635114 80 -967835646 2 #
face $321 $-1 $158 $17 $-1 $322 reversed single #
loop $-1 $-1 $240 $143 #
plane-surface $-1 0 25.3125 0 0 -1 0 0 0 -1 forward_v I I I I #
coedge $-1 $323 $238 $241 $324 forward $144 $-1 #
coedge $-1 $244 $146 $147 $232 reversed $89 $-1 #
coedge $-1 $238 $323 $146 $230 reversed $144 $-1 #
edge $-1 $245 -29.53125000000006 $325 29.53125000000006 $229 $326 forward 7 unknown #
coedge $-1 $148 $147 $323 $327 forward $55 $-1 #
edge $-1 $236 -16.875000000000099 $325 16.875000000000099 $228 $328 forward 7 unknown #
coedge $-1 $241 $240 $148 $234 reversed $225 $-1 #
edge $-1 $329 -16.875000000000099 $235 16.875000000000099 $233 $330 forward 7 unknown #
vertex $-1 $150 $331 #
vertex $-1 $247 $332 #
straight-curve $-1 16.875000000000099 0 -29.53125000000006 0 -1 0 I I #
coedge $-1 $227 $229 $151 $239 reversed $144 $-1 #
edge $-1 $242 -25.3125 $245 25.3125 $238 $333 forward 7 unknown #
coedge $-1 $233 $152 $157 $248 forward $225 $-1 #
coedge $-1 $152 $233 $227 $324 reversed $225 $-1 #
vertex $-1 $153 $334 #
straight-curve $-1 0 25.3125 29.53125000000006 -1 0 0 I I #
coedge $-1 $154 $228 $156 $247 reversed $89 $-1 #
vertex $-1 $239 $335 #
straight-curve $-1 0 -25.3125 29.53125000000006 1 0 0 I I #
edge $-1 $159 -29.53125000000006 $236 29.53125000000006 $156 $336 forward 7 unknown #
edge $-1 $160 -29.53125000000006 $235 29.53125000000006 $157 $337 forward 7 unknown #
point $-1 16.875000000000099 -25.3125 29.53125000000006 #
point $-1 16.875000000000099 25.3125 29.53125000000006 #
face $-1 $-1 $338 $19 $-1 $339 forward single #
plane-surface $-1 4.4408920985006262e-015 -19.40625 8.4375000000000568 0 1 0 0 0 1 forward_v I I I I #
coedge $-1 $172 $340 $174 $269 forward $163 $-1 #
coedge $-1 $341 $165 $340 $342 reversed $97 $-1 #
coedge $-1 $165 $341 $166 $259 forward $97 $-1 #
coedge $-1 $168 $174 $165 $257 reversed $175 $-1 #
edge $-1 $260 -26.78906250000006 $343 15.39843750000006 $165 $344 forward 7 unknown #
coedge $-1 $167 $166 $345 $346 reversed $59 $-1 #
edge $-1 $347 0 $260 27.84375 $255 $348 forward 7 unknown #
vertex $-1 $259 $349 #
straight-curve $-1 1.0658141036401503e-014 -19.40625 29.53125000000006 1 0 0 I I #
coedge $-1 $345 $350 $170 $263 forward $338 $-1 #
edge $351 $267 -15.39843749999994 $264 26.78906250000006 $170 $352 forward 7 unknown #
vertex $-1 $263 $353 #
straight-curve $-1 -16.875000000000099 8.4375 29.53125000000006 0 -1 0 I I #
coedge $-1 $340 $172 $350 $354 reversed $163 $-1 #
vertex $-1 $354 $355 #
straight-curve $-1 -16.875000000000043 8.4375 -12.65624999999994 0 -1 0 I I #
edge $-1 $343 -16.875 $176 16.875 $253 $356 forward 7 unknown #
point $-1 -16.875000000000043 -19.40625 -12.65624999999994 #
point $-1 -16.875000000000099 -19.40625 29.53125000000006 #
aggregate_simgeom_attribute-aggregate_simgeom_base_attribute-aggregate_body_attribute-attrib_HH-attrib $-1 $-1 $179 $0 F #
attrib_hh_face_geombuild-attrib_entity_geombuild-individual_entity_attribute-attrib_HH-attrib $-1 $-1 $181 $107 F #
model_id-kcp-attrib $-1 $357 $-1 $182 1 1017635114 80 -967835647 8 #
face $358 $359 $360 $8 $-1 $361 reversed single #
loop $-1 $-1 $194 $182 #
cone-surface $-1 45.312499999999901 24.5625 -20.437500000000089 -1 0 3.4914813388431298e-015 -1.4581646086704607e-014 4.1763494263830445 -4.1763494263830445 1 I I 0 1 5.9062499999999973 forward I I I I #
attrib_hh_coedge_geombuild-attrib_entity_geombuild-individual_entity_attribute-attrib_HH-attrib $-1 $-1 $-1 $184 F #
coedge $362 $363 $184 $311 $364 reversed $108 $-1 #
coedge $365 $184 $363 $290 $366 reversed $108 $-1 #
attrib_hh_coedge_geombuild-attrib_entity_geombuild-individual_entity_attribute-attrib_HH-attrib $-1 $-1 $-1 $186 F #
edge $367 $287 -0.78539816339744828 $219 0.78539816339744828 $190 $368 forward 7 unknown #
attrib_hh_coedge_geombuild-attrib_entity_geombuild-individual_entity_attribute-attrib_HH-attrib $-1 $-1 $-1 $187 F #
edge $369 $216 -0.78539816339744828 $286 0.78539816339744828 $211 $370 forward 7 unknown #
attrib_hh_edge_geombuild-attrib_entity_geombuild-individual_entity_attribute-attrib_HH-attrib $-1 $-1 $-1 $188 F #
vertex $371 $364 $372 #
vertex $373 $188 $374 #
straight-curve $-1 45.312500000000071 13.59375 26.812499999999911 0.84375 0 -2.9459373796488906e-015 I I #
attrib_hh_coedge_geombuild-attrib_entity_geombuild-individual_entity_attribute-attrib_HH-attrib $-1 $-1 $-1 $190 F #
coedge $375 $376 $190 $280 $366 forward $45 $-1 #
attrib_hh_coedge_geombuild-attrib_entity_geombuild-individual_entity_attribute-attrib_HH-attrib $-1 $-1 $-1 $192 F #
coedge $377 $192 $378 $379 $380 forward $45 $-1 #
coedge $381 $382 $194 $192 $294 forward $276 $-1 #
edge $383 $197 -0.78539816339744828 $384 0.78539816339744828 $192 $385 forward 7 unknown #
attrib_hh_coedge_geombuild-attrib_entity_geombuild-individual_entity_attribute-attrib_HH-attrib $-1 $-1 $-1 $194 F #
coedge $386 $194 $382 $200 $304 forward $276 $-1 #
attrib_edge_convexity-kcp-attrib $-1 $387 $-1 $195 3 #
straight-curve $-1 45.312499999999901 30.46875 -20.437500000000089 0.84375 0 -2.9459373796488906e-015 I I #
convexity-sys-attrib $-1 $388 $196 $116 #
attrib_hh_vertex_geombuild-attrib_entity_geombuild-individual_entity_attribute-attrib_HH-attrib $-1 $-1 $-1 $197 F #
point $-1 62.187499999999901 30.46875 -20.437500000000149 #
attrib_hh_coedge_geombuild-attrib_entity_geombuild-individual_entity_attribute-attrib_HH-attrib $-1 $-1 $-1 $200 F #
coedge $389 $390 $200 $391 $392 forward $129 $-1 #
edge $393 $394 -0.78539816339744828 $202 0.78539816339744828 $200 $395 forward 7 unknown #
convexity-sys-attrib $-1 $396 $201 $119 #
attrib_hh_vertex_geombuild-attrib_entity_geombuild-individual_entity_attribute-attrib_HH-attrib $-1 $-1 $-1 $202 F #
point $-1 28.437499999999904 30.46875 -20.437500000000028 #
attrib_hh_edge_geombuild-attrib_entity_geombuild-individual_entity_attribute-attrib_HH-attrib $-1 $-1 $204 $73 F #
attrib_hh_edge_geombuild-attrib_entity_geombuild-individual_entity_attribute-attrib_HH-attrib $-1 $-1 $209 $75 F #
attrib_hh_coedge_geombuild-attrib_entity_geombuild-individual_entity_attribute-attrib_HH-attrib $-1 $-1 $-1 $211 F #
coedge $397 $211 $398 $279 $364 forward $129 $-1 #
attrib_hh_coedge_geombuild-attrib_entity_geombuild-individual_entity_attribute-attrib_HH-attrib $-1 $-1 $-1 $213 F #
attrib_hh_edge_geombuild-attrib_entity_geombuild-individual_entity_attribute-attrib_HH-attrib $-1 $-1 $-1 $214 F #
straight-curve $-1 45.312500000000085 19.5 32.718749999999908 -0.84375 0 2.9459373796488906e-015 I I #
attrib_hh_vertex_geombuild-attrib_entity_geombuild-individual_entity_attribute-attrib_HH-attrib $-1 $-1 $-1 $216 F #
point $-1 28.437500000000085 19.5 32.718749999999972 #
convexity-sys-attrib $-1 $399 $218 $136 #
attrib_hh_vertex_geombuild-attrib_entity_geombuild-individual_entity_attribute-attrib_HH-attrib $-1 $-1 $-1 $219 F #
point $-1 62.187500000000085 19.5 32.718749999999851 #
attrib_hh_face_geombuild-attrib_entity_geombuild-individual_entity_attribute-attrib_HH-attrib $-1 $-1 $221 $137 F #
model_id-kcp-attrib $-1 $-1 $-1 $224 1 1017635114 80 -967835646 3 #
plane-surface $-1 16.875000000000099 0 0 -1 0 0 0 0 1 forward_v I I I I #
coedge $-1 $229 $227 $231 $327 reversed $144 $-1 #
edge $-1 $242 -29.53125000000006 $329 29.53125000000006 $241 $400 forward 7 unknown #
vertex $-1 $327 $401 #
straight-curve $-1 -16.875000000000099 -25.3125 0 0 0 -1 I I #
edge $-1 $325 -25.3125 $329 25.3125 $323 $402 forward 7 unknown #
straight-curve $-1 0 -25.3125 -29.53125000000006 -1 0 0 I I #
vertex $-1 $234 $403 #
straight-curve $-1 0 25.3125 -29.53125000000006 1 0 0 I I #
point $-1 16.875000000000099 25.3125 -29.53125000000006 #
point $-1 16.875000000000099 -25.3125 -29.53125000000006 #
straight-curve $-1 -16.875000000000099 0 29.53125000000006 0 -1 0 I I #
point $-1 -16.875000000000099 25.3125 29.53125000000006 #
point $-1 -16.875000000000099 -25.3125 29.53125000000006 #
straight-curve $-1 16.875000000000099 -25.3125 0 0 0 -1 I I #
straight-curve $-1 16.875000000000099 25.3125 0 0 0 -1 I I #
loop $-1 $-1 $350 $251 #
plane-surface $-1 4.4408920985006262e-015 8.4375 8.4375000000000568 0 1 0 0 0 1 forward_v I I I I #
coedge $-1 $253 $266 $254 $342 forward $163 $-1 #
coedge $-1 $255 $254 $404 $405 reversed $97 $-1 #
edge $-1 $406 0 $343 27.84375 $340 $407 forward 7 unknown #
vertex $-1 $342 $408 #
straight-curve $-1 16.875000000000099 -19.40625 2.7421875 0 0 -1 I I #
coedge $-1 $404 $262 $258 $346 forward $338 $-1 #
edge $409 $264 -16.87500000000011 $347 16.875000000000089 $258 $410 forward 7 unknown #
vertex $-1 $346 $411 #
straight-curve $-1 16.875000000000099 8.4375 29.53125000000006 0 -1 0 I I #
point $-1 16.875000000000099 -19.40625 29.53125000000006 #
coedge $-1 $262 $404 $266 $354 forward $338 $-1 #
convexity-sys-attrib $-1 $-1 $-1 $263 #
straight-curve $-1 -16.875000000000099 8.4375 2.7421875 0 0 1 I I #
point $-1 -16.875000000000099 8.4375 29.53125000000006 #
edge $412 $406 -16.875 $267 16.875000000000004 $266 $413 forward 7 unknown #
point $-1 -16.875000000000046 8.4375 -12.65624999999994 #
straight-curve $-1 -4.2326967867627081e-014 -19.40625 -12.65625 -1 0 3.4914813388431298e-015 I I #
attrib_hh_face_geombuild-attrib_entity_geombuild-individual_entity_attribute-attrib_HH-attrib $-1 $-1 $274 $182 F #
model_id-kcp-attrib $-1 $414 $-1 $275 1 1017635114 80 -967835647 9 #
face $415 $416 $417 $8 $-1 $418 forward single #
loop $-1 $-1 $419 $275 #
plane-surface $-1 45.312499999999879 5.15625 -26.343750000000089 3.4914813388431298e-015 0 1 0.84375 0 -2.9459373796488906e-015 forward_v I I I I #
attrib_hh_coedge_geombuild-attrib_entity_geombuild-individual_entity_attribute-attrib_HH-attrib $-1 $-1 $-1 $279 F #
coedge $420 $280 $279 $421 $422 forward $108 $-1 #
edge $423 $424 -19.999999999999996 $286 23.000000000000004 $279 $425 forward 7 unknown #
attrib_hh_coedge_geombuild-attrib_entity_geombuild-individual_entity_attribute-attrib_HH-attrib $-1 $-1 $-1 $280 F #
edge $426 $287 -23 $427 20 $280 $428 forward 7 unknown #
attrib_edge_convexity-kcp-attrib $-1 $429 $-1 $282 1 #
ellipse-curve $-1 62.187500000000071 19.5 26.812499999999851 -1 0 3.4914813388431298e-015 1.4581646086704607e-014 -4.1763494263830445 4.1763494263830445 1 I I #
attrib_hh_edge_geombuild-attrib_entity_geombuild-individual_entity_attribute-attrib_HH-attrib $-1 $-1 $-1 $284 F #
ellipse-curve $-1 28.437500000000068 19.5 26.812499999999972 1 0 -3.4914813388431298e-015 1.4581646086704607e-014 -4.1763494263830445 4.1763494263830445 1 I I #
attrib_hh_vertex_geombuild-attrib_entity_geombuild-individual_entity_attribute-attrib_HH-attrib $-1 $-1 $-1 $286 F #
point $-1 28.437500000000068 13.59375 26.812499999999972 #
attrib_hh_vertex_geombuild-attrib_entity_geombuild-individual_entity_attribute-attrib_HH-attrib $-1 $-1 $-1 $287 F #
point $-1 62.187500000000071 13.59375 26.812499999999851 #
attrib_hh_coedge_geombuild-attrib_entity_geombuild-individual_entity_attribute-attrib_HH-attrib $-1 $-1 $-1 $290 F #
coedge $430 $431 $290 $432 $433 forward $45 $-1 #
attrib_hh_coedge_geombuild-attrib_entity_geombuild-individual_entity_attribute-attrib_HH-attrib $-1 $-1 $-1 $292 F #
coedge $434 $292 $435 $436 $437 reversed $45 $-1 #
coedge $438 $439 $419 $292 $380 reversed $360 $-1 #
edge $440 $441 -23 $384 23 $379 $442 forward 7 unknown #
attrib_hh_coedge_geombuild-attrib_entity_geombuild-individual_entity_attribute-attrib_HH-attrib $-1 $-1 $-1 $293 F #
coedge $443 $296 $293 $419 $444 forward $276 $-1 #
attrib_edge_convexity-kcp-attrib $-1 $445 $-1 $294 1 #
vertex $446 $380 $447 #
ellipse-curve $-1 62.187499999999901 24.5625 -20.437500000000149 -1 0 3.4914813388431298e-015 -1.4581646086704607e-014 4.1763494263830445 -4.1763494263830445 1 I I #
attrib_hh_coedge_geombuild-attrib_entity_geombuild-individual_entity_attribute-attrib_HH-attrib $-1 $-1 $-1 $296 F #
convexity-sys-attrib $-1 $448 $297 $195 #
attrib_hh_edge_geombuild-attrib_entity_geombuild-individual_entity_attribute-attrib_HH-attrib $-1 $-1 $299 $116 F #
attrib_hh_coedge_geombuild-attrib_entity_geombuild-individual_entity_attribute-attrib_HH-attrib $-1 $-1 $-1 $303 F #
coedge $449 $450 $303 $451 $452 reversed $129 $-1 #
coedge $453 $419 $439 $303 $392 reversed $360 $-1 #
edge $454 $394 -23 $455 23 $391 $456 forward 7 unknown #
attrib_hh_edge_geombuild-attrib_entity_geombuild-individual_entity_attribute-attrib_HH-attrib $-1 $-1 $-1 $304 F #
vertex $457 $444 $458 #
ellipse-curve $-1 28.437499999999904 24.5625 -20.437500000000028 1 0 -3.4914813388431298e-015 -1.4581646086704607e-014 4.1763494263830445 -4.1763494263830445 1 I I #
attrib_hh_edge_geombuild-attrib_entity_geombuild-individual_entity_attribute-attrib_HH-attrib $-1 $-1 $305 $119 F #
attrib_hh_coedge_geombuild-attrib_entity_geombuild-individual_entity_attribute-attrib_HH-attrib $-1 $-1 $-1 $311 F #
coedge $459 $311 $460 $461 $462 forward $129 $-1 #
attrib_hh_edge_geombuild-attrib_entity_geombuild-individual_entity_attribute-attrib_HH-attrib $-1 $-1 $317 $136 F #
straight-curve $-1 -16.875000000000099 25.3125 0 0 0 -1 I I #
point $-1 -16.875000000000099 -25.3125 -29.53125000000006 #
straight-curve $-1 -16.875000000000099 0 -29.53125000000006 0 1 0 I I #
point $-1 -16.875000000000099 25.3125 -29.53125000000006 #
coedge $-1 $350 $345 $341 $405 forward $338 $-1 #
edge $463 $347 -26.78906250000006 $406 15.39843750000006 $341 $464 forward 7 unknown #
vertex $-1 $354 $465 #
straight-curve $-1 16.874999999999957 8.4375 -12.65625000000006 0 -1 0 I I #
point $-1 16.874999999999957 -19.40625 -12.65625000000006 #
convexity-sys-attrib $-1 $-1 $-1 $346 #
straight-curve $-1 1.0658141036401503e-014 8.4375 29.53125000000006 1 0 0 I I #
point $-1 16.875000000000099 8.4375 29.53125000000006 #
convexity-sys-attrib $-1 $-1 $-1 $354 #
straight-curve $-1 -4.2326967867627081e-014 8.4375 -12.65625 -1 0 3.4914813388431298e-015 I I #
attrib_hh_face_geombuild-attrib_entity_geombuild-individual_entity_attribute-attrib_HH-attrib $-1 $-1 $358 $275 F #
model_id-kcp-attrib $-1 $466 $-1 $359 1 1017635114 80 -967835647 10 #
face $467 $468 $469 $8 $-1 $470 reversed single #
loop $-1 $-1 $471 $359 #
cone-surface $-1 45.312499999999901 -14.25 -20.437500000000089 -1 0 3.4914813388431298e-015 -1.4581646086704607e-014 -4.1763494263830445 -4.1763494263830445 1 I I 0 1 5.9062499999999973 forward I I I I #
coedge $472 $379 $391 $382 $444 reversed $360 $-1 #
attrib_hh_coedge_geombuild-attrib_entity_geombuild-individual_entity_attribute-attrib_HH-attrib $-1 $-1 $-1 $363 F #
coedge $473 $461 $432 $363 $422 reversed $474 $-1 #
edge $475 $424 -20.000000000000004 $427 20 $363 $476 forward 7 unknown #
attrib_hh_edge_geombuild-attrib_entity_geombuild-individual_entity_attribute-attrib_HH-attrib $-1 $-1 $-1 $364 F #
vertex $477 $364 $478 #
straight-curve $-1 28.4375 13.59375 7.4062499999999689 2.9459373796488906e-015 0 0.84375 I I #
attrib_edge_convexity-kcp-attrib $-1 $479 $-1 $366 1 #
vertex $480 $366 $481 #
straight-curve $-1 62.1875 13.59375 7.4062499999998517 -2.9459373796488906e-015 0 -0.84375 I I #
convexity-sys-attrib $-1 $482 $367 $282 #
attrib_hh_coedge_geombuild-attrib_entity_geombuild-individual_entity_attribute-attrib_HH-attrib $-1 $-1 $-1 $376 F #
coedge $483 $435 $376 $484 $485 reversed $45 $-1 #
coedge $486 $421 $487 $376 $433 reversed $474 $-1 #
edge $488 $427 -10 $489 23 $432 $490 forward 7 unknown #
attrib_hh_coedge_geombuild-attrib_entity_geombuild-individual_entity_attribute-attrib_HH-attrib $-1 $-1 $-1 $378 F #
coedge $491 $378 $431 $492 $493 forward $45 $-1 #
coedge $494 $495 $471 $378 $437 forward $417 $-1 #
edge $496 $441 -0.78539816339744828 $497 0.78539816339744828 $378 $498 forward 7 unknown #
attrib_hh_coedge_geombuild-attrib_entity_geombuild-individual_entity_attribute-attrib_HH-attrib $-1 $-1 $-1 $379 F #
coedge $499 $391 $379 $471 $500 reversed $360 $-1 #
attrib_edge_convexity-kcp-attrib $-1 $501 $-1 $380 1 #
vertex $502 $437 $503 #
straight-curve $-1 62.187499999999886 5.15625 -26.343750000000146 0 0.84375 0 I I #
attrib_hh_coedge_geombuild-attrib_entity_geombuild-individual_entity_attribute-attrib_HH-attrib $-1 $-1 $-1 $382 F #
edge $504 $384 -20.000000000000007 $394 19.999999999999996 $419 $505 forward 7 unknown #
convexity-sys-attrib $-1 $506 $383 $294 #
attrib_hh_vertex_geombuild-attrib_entity_geombuild-individual_entity_attribute-attrib_HH-attrib $-1 $-1 $-1 $384 F #
point $-1 62.187499999999886 24.5625 -26.343750000000146 #
attrib_hh_edge_geombuild-attrib_entity_geombuild-individual_entity_attribute-attrib_HH-attrib $-1 $-1 $387 $195 F #
attrib_hh_coedge_geombuild-attrib_entity_geombuild-individual_entity_attribute-attrib_HH-attrib $-1 $-1 $-1 $390 F #
coedge $507 $460 $390 $508 $509 forward $129 $-1 #
coedge $510 $471 $495 $390 $452 forward $417 $-1 #
edge $511 $512 -0.78539816339744828 $455 0.78539816339744828 $390 $513 forward 7 unknown #
attrib_hh_coedge_geombuild-attrib_entity_geombuild-individual_entity_attribute-attrib_HH-attrib $-1 $-1 $-1 $391 F #
attrib_edge_convexity-kcp-attrib $-1 $514 $-1 $392 1 #
vertex $515 $392 $516 #
straight-curve $-1 28.437499999999883 5.15625 -26.343750000000032 0 -0.84375 0 I I #
attrib_hh_vertex_geombuild-attrib_entity_geombuild-individual_entity_attribute-attrib_HH-attrib $-1 $-1 $-1 $394 F #
point $-1 28.437499999999883 24.5625 -26.343750000000032 #
attrib_hh_coedge_geombuild-attrib_entity_geombuild-individual_entity_attribute-attrib_HH-attrib $-1 $-1 $-1 $398 F #
coedge $517 $398 $450 $518 $519 reversed $129 $-1 #
coedge $520 $487 $421 $398 $462 reversed $474 $-1 #
edge $521 $522 -23 $424 10 $461 $523 forward 7 unknown #
convexity-sys-attrib $-1 $-1 $-1 $405 #
straight-curve $-1 16.875000000000099 8.4375 2.7421875 0 0 -1 I I #
point $-1 16.874999999999957 8.4375 -12.65625000000006 #
attrib_hh_face_geombuild-attrib_entity_geombuild-individual_entity_attribute-attrib_HH-attrib $-1 $-1 $415 $359 F #
model_id-kcp-attrib $-1 $524 $-1 $416 1 1017635114 80 -967835647 11 #
face $525 $526 $527 $8 $-1 $528 forward single #
loop $-1 $-1 $529 $416 #
plane-surface $-1 45.312499999999915 -20.15625 -17.906250000000089 0 1 0 0.84375 0 -2.9459373796488906e-015 forward_v I I I I #
coedge $530 $436 $451 $439 $500 forward $417 $-1 #
attrib_hh_coedge_geombuild-attrib_entity_geombuild-individual_entity_attribute-attrib_HH-attrib $-1 $-1 $-1 $419 F #
attrib_hh_coedge_geombuild-attrib_entity_geombuild-individual_entity_attribute-attrib_HH-attrib $-1 $-1 $-1 $421 F #
loop $-1 $-1 $487 $526 #
attrib_hh_edge_geombuild-attrib_entity_geombuild-individual_entity_attribute-attrib_HH-attrib $-1 $-1 $-1 $422 F #
straight-curve $-1 45.312499999999943 13.59375 -9.4687500000000888 0.84375 0 -2.9459373796488906e-015 I I #
attrib_hh_vertex_geombuild-attrib_entity_geombuild-individual_entity_attribute-attrib_HH-attrib $-1 $-1 $-1 $424 F #
point $-1 28.43749999999994 13.59375 -9.4687500000000284 #
convexity-sys-attrib $-1 $531 $426 $366 #
attrib_hh_vertex_geombuild-attrib_entity_geombuild-individual_entity_attribute-attrib_HH-attrib $-1 $-1 $-1 $427 F #
point $-1 62.187499999999943 13.59375 -9.4687500000001492 #
attrib_hh_edge_geombuild-attrib_entity_geombuild-individual_entity_attribute-attrib_HH-attrib $-1 $-1 $429 $282 F #
attrib_hh_coedge_geombuild-attrib_entity_geombuild-individual_entity_attribute-attrib_HH-attrib $-1 $-1 $-1 $431 F #
coedge $532 $533 $534 $431 $485 forward $527 $-1 #
edge $535 $536 -0.78539816339744828 $489 0.78539816339744828 $431 $537 forward 7 unknown #
attrib_hh_coedge_geombuild-attrib_entity_geombuild-individual_entity_attribute-attrib_HH-attrib $-1 $-1 $-1 $432 F #
coedge $538 $432 $461 $533 $539 reversed $474 $-1 #
attrib_edge_convexity-kcp-attrib $-1 $540 $-1 $433 1 #
vertex $541 $433 $542 #
straight-curve $-1 62.187499999999943 5.15625 -9.4687500000001492 0 -0.84375 0 I I #
attrib_hh_coedge_geombuild-attrib_entity_geombuild-individual_entity_attribute-attrib_HH-attrib $-1 $-1 $-1 $435 F #
coedge $543 $544 $529 $435 $493 reversed $469 $-1 #
edge $545 $536 -3 $497 3 $492 $546 forward 7 unknown #
attrib_hh_coedge_geombuild-attrib_entity_geombuild-individual_entity_attribute-attrib_HH-attrib $-1 $-1 $-1 $436 F #
coedge $547 $451 $436 $529 $548 forward $417 $-1 #
attrib_edge_convexity-kcp-attrib $-1 $549 $-1 $437 1 #
vertex $550 $493 $551 #
ellipse-curve $-1 62.187499999999901 -14.25 -20.437500000000149 -1 0 3.4914813388431298e-015 -1.4581646086704607e-014 -4.1763494263830445 -4.1763494263830445 1 I I #
attrib_hh_coedge_geombuild-attrib_entity_geombuild-individual_entity_attribute-attrib_HH-attrib $-1 $-1 $-1 $439 F #
edge $552 $455 -19.999999999999996 $441 20.000000000000007 $439 $553 forward 7 unknown #
convexity-sys-attrib $-1 $554 $440 $380 #
attrib_hh_vertex_geombuild-attrib_entity_geombuild-individual_entity_attribute-attrib_HH-attrib $-1 $-1 $-1 $441 F #
point $-1 62.187499999999886 -14.25 -26.343750000000146 #
attrib_edge_convexity-kcp-attrib $-1 $555 $-1 $444 3 #
straight-curve $-1 45.312499999999879 24.5625 -26.343750000000089 -0.84375 0 2.9459373796488906e-015 I I #
attrib_hh_edge_geombuild-attrib_entity_geombuild-individual_entity_attribute-attrib_HH-attrib $-1 $-1 $445 $294 F #
attrib_hh_coedge_geombuild-attrib_entity_geombuild-individual_entity_attribute-attrib_HH-attrib $-1 $-1 $-1 $450 F #
coedge $556 $529 $544 $450 $509 reversed $469 $-1 #
edge $557 $512 -3 $558 3 $508 $559 forward 7 unknown #
attrib_hh_coedge_geombuild-attrib_entity_geombuild-individual_entity_attribute-attrib_HH-attrib $-1 $-1 $-1 $451 F #
attrib_hh_edge_geombuild-attrib_entity_geombuild-individual_entity_attribute-attrib_HH-attrib $-1 $-1 $-1 $452 F #
vertex $560 $548 $561 #
ellipse-curve $-1 28.437499999999904 -14.25 -20.437500000000028 1 0 -3.4914813388431298e-015 -1.4581646086704607e-014 -4.1763494263830445 -4.1763494263830445 1 I I #
convexity-sys-attrib $-1 $562 $454 $392 #
attrib_hh_vertex_geombuild-attrib_entity_geombuild-individual_entity_attribute-attrib_HH-attrib $-1 $-1 $-1 $455 F #
point $-1 28.437499999999883 -14.25 -26.343750000000032 #
attrib_hh_coedge_geombuild-attrib_entity_geombuild-individual_entity_attribute-attrib_HH-attrib $-1 $-1 $-1 $460 F #
coedge $563 $534 $533 $460 $519 forward $527 $-1 #
edge $564 $522 -0.78539816339744828 $558 0.78539816339744828 $460 $565 forward 7 unknown #
attrib_hh_coedge_geombuild-attrib_entity_geombuild-individual_entity_attribute-attrib_HH-attrib $-1 $-1 $-1 $461 F #
attrib_hh_edge_geombuild-attrib_entity_geombuild-individual_entity_attribute-attrib_HH-attrib $-1 $-1 $-1 $462 F #
vertex $566 $519 $567 #
straight-curve $-1 28.43749999999994 5.15625 -9.4687500000000284 0 0.84375 0 I I #
attrib_hh_face_geombuild-attrib_entity_geombuild-individual_entity_attribute-attrib_HH-attrib $-1 $-1 $467 $416 F #
model_id-kcp-attrib $-1 $568 $-1 $468 1 1017635114 80 -967835647 12 #
face $569 $137 $474 $8 $-1 $570 reversed single #
loop $-1 $-1 $534 $468 #
cone-surface $-1 45.312499999999922 -14.25 -15.375000000000089 -1 0 3.4914813388431298e-015 1.4581646086704607e-014 -4.1763494263830445 4.1763494263830445 1 I I 0 1 5.9062499999999973 forward I I I I #
coedge $571 $492 $508 $495 $548 reversed $469 $-1 #
attrib_hh_coedge_geombuild-attrib_entity_geombuild-individual_entity_attribute-attrib_HH-attrib $-1 $-1 $-1 $471 F #
attrib_hh_edge_geombuild-attrib_entity_geombuild-individual_entity_attribute-attrib_HH-attrib $-1 $-1 $479 $366 F #
attrib_hh_coedge_geombuild-attrib_entity_geombuild-individual_entity_attribute-attrib_HH-attrib $-1 $-1 $-1 $484 F #
coedge $572 $518 $484 $487 $539 forward $527 $-1 #
coedge $573 $484 $518 $544 $574 forward $527 $-1 #
attrib_edge_convexity-kcp-attrib $-1 $575 $-1 $485 1 #
vertex $576 $574 $577 #
ellipse-curve $-1 62.187499999999915 -14.25 -15.375000000000149 -1 0 3.4914813388431298e-015 1.4581646086704607e-014 -4.1763494263830445 4.1763494263830445 1 I I #
attrib_hh_coedge_geombuild-attrib_entity_geombuild-individual_entity_attribute-attrib_HH-attrib $-1 $-1 $-1 $487 F #
edge $578 $489 -20 $522 20.000000000000004 $487 $579 forward 7 unknown #
convexity-sys-attrib $-1 $580 $488 $433 #
attrib_hh_vertex_geombuild-attrib_entity_geombuild-individual_entity_attribute-attrib_HH-attrib $-1 $-1 $-1 $489 F #
point $-1 62.187499999999943 -14.25 -9.4687500000001492 #
attrib_hh_coedge_geombuild-attrib_entity_geombuild-individual_entity_attribute-attrib_HH-attrib $-1 $-1 $-1 $492 F #
coedge $581 $508 $492 $534 $574 reversed $469 $-1 #
attrib_edge_convexity-kcp-attrib $-1 $582 $-1 $493 1 #
straight-curve $-1 62.187499999999915 -20.15625 -17.906250000000149 -2.9459373796488906e-015 0 -0.84375 I I #
attrib_hh_coedge_geombuild-attrib_entity_geombuild-individual_entity_attribute-attrib_HH-attrib $-1 $-1 $-1 $495 F #
edge $583 $497 -20 $512 19.999999999999996 $529 $584 forward 7 unknown #
convexity-sys-attrib $-1 $585 $496 $437 #
attrib_hh_vertex_geombuild-attrib_entity_geombuild-individual_entity_attribute-attrib_HH-attrib $-1 $-1 $-1 $497 F #
point $-1 62.187499999999901 -20.15625 -20.437500000000149 #
attrib_edge_convexity-kcp-attrib $-1 $586 $-1 $500 3 #
straight-curve $-1 45.312499999999879 -14.25 -26.343750000000089 0.84375 0 -2.9459373796488906e-015 I I #
attrib_hh_edge_geombuild-attrib_entity_geombuild-individual_entity_attribute-attrib_HH-attrib $-1 $-1 $501 $380 F #
convexity-sys-attrib $-1 $587 $504 $444 #
attrib_hh_coedge_geombuild-attrib_entity_geombuild-individual_entity_attribute-attrib_HH-attrib $-1 $-1 $-1 $508 F #
attrib_hh_edge_geombuild-attrib_entity_geombuild-individual_entity_attribute-attrib_HH-attrib $-1 $-1 $-1 $509 F #
vertex $588 $509 $589 #
straight-curve $-1 28.437499999999915 -20.15625 -17.906250000000028 2.9459373796488906e-015 0 0.84375 I I #
attrib_hh_vertex_geombuild-attrib_entity_geombuild-individual_entity_attribute-attrib_HH-attrib $-1 $-1 $-1 $512 F #
point $-1 28.437499999999904 -20.15625 -20.437500000000028 #
attrib_hh_edge_geombuild-attrib_entity_geombuild-individual_entity_attribute-attrib_HH-attrib $-1 $-1 $514 $392 F #
attrib_hh_coedge_geombuild-attrib_entity_geombuild-individual_entity_attribute-attrib_HH-attrib $-1 $-1 $-1 $518 F #
attrib_hh_edge_geombuild-attrib_entity_geombuild-individual_entity_attribute-attrib_HH-attrib $-1 $-1 $-1 $519 F #
ellipse-curve $-1 28.437499999999918 -14.25 -15.375000000000028 1 0 -3.4914813388431298e-015 1.4581646086704607e-014 -4.1763494263830445 4.1763494263830445 1 I I #
attrib_hh_vertex_geombuild-attrib_entity_geombuild-individual_entity_attribute-attrib_HH-attrib $-1 $-1 $-1 $522 F #
point $-1 28.43749999999994 -14.25 -9.4687500000000284 #
attrib_hh_face_geombuild-attrib_entity_geombuild-individual_entity_attribute-attrib_HH-attrib $-1 $-1 $525 $468 F #
model_id-kcp-attrib $-1 $590 $-1 $526 1 1017635114 80 -967835647 13 #
plane-surface $-1 45.312499999999943 5.15625 -9.4687500000000888 -3.4914813388431298e-015 0 -1 -0.84375 0 2.9459373796488906e-015 forward_v I I I I #
attrib_hh_coedge_geombuild-attrib_entity_geombuild-individual_entity_attribute-attrib_HH-attrib $-1 $-1 $-1 $529 F #
attrib_hh_coedge_geombuild-attrib_entity_geombuild-individual_entity_attribute-attrib_HH-attrib $-1 $-1 $-1 $533 F #
attrib_hh_coedge_geombuild-attrib_entity_geombuild-individual_entity_attribute-attrib_HH-attrib $-1 $-1 $-1 $534 F #
edge $591 $558 -20.000000000000004 $536 19.999999999999993 $544 $592 forward 7 unknown #
convexity-sys-attrib $-1 $593 $535 $485 #
attrib_hh_vertex_geombuild-attrib_entity_geombuild-individual_entity_attribute-attrib_HH-attrib $-1 $-1 $-1 $536 F #
point $-1 62.187499999999915 -20.15625 -15.375000000000149 #
attrib_hh_edge_geombuild-attrib_entity_geombuild-individual_entity_attribute-attrib_HH-attrib $-1 $-1 $-1 $539 F #
straight-curve $-1 45.312499999999943 -14.25 -9.4687500000000888 -0.84375 0 2.9459373796488906e-015 I I #
attrib_hh_edge_geombuild-attrib_entity_geombuild-individual_entity_attribute-attrib_HH-attrib $-1 $-1 $540 $433 F #
attrib_hh_coedge_geombuild-attrib_entity_geombuild-individual_entity_attribute-attrib_HH-attrib $-1 $-1 $-1 $544 F #
convexity-sys-attrib $-1 $594 $545 $493 #
attrib_hh_edge_geombuild-attrib_entity_geombuild-individual_entity_attribute-attrib_HH-attrib $-1 $-1 $-1 $548 F #
straight-curve $-1 45.312499999999901 -20.15625 -20.437500000000089 -0.84375 0 2.9459373796488906e-015 I I #
attrib_hh_edge_geombuild-attrib_entity_geombuild-individual_entity_attribute-attrib_HH-attrib $-1 $-1 $549 $437 F #
convexity-sys-attrib $-1 $595 $552 $500 #
attrib_hh_edge_geombuild-attrib_entity_geombuild-individual_entity_attribute-attrib_HH-attrib $-1 $-1 $555 $444 F #
attrib_hh_vertex_geombuild-attrib_entity_geombuild-individual_entity_attribute-attrib_HH-attrib $-1 $-1 $-1 $558 F #
point $-1 28.437499999999918 -20.15625 -15.375000000000028 #
attrib_hh_face_geombuild-attrib_entity_geombuild-individual_entity_attribute-attrib_HH-attrib $-1 $-1 $569 $526 F #
attrib_hh_edge_geombuild-attrib_entity_geombuild-individual_entity_attribute-attrib_HH-attrib $-1 $-1 $-1 $574 F #
straight-curve $-1 45.312499999999922 -20.15625 -15.375000000000089 0.84375 0 -2.9459373796488906e-015 I I #
attrib_hh_edge_geombuild-attrib_entity_geombuild-individual_entity_attribute-attrib_HH-attrib $-1 $-1 $575 $485 F #
attrib_hh_edge_geombuild-attrib_entity_geombuild-individual_entity_attribute-attrib_HH-attrib $-1 $-1 $582 $493 F #
attrib_hh_edge_geombuild-attrib_entity_geombuild-individual_entity_attribute-attrib_HH-attrib $-1 $-1 $586 $500 F #
End-of-ACIS-data 