600 0 2 0           
24 FBMach with ACIS - 6.0.3 13 ACIS 6.0.3 NT 24 Tue May 22 12:24:29 2001 
1 9.9999999999999995e-007 1e-010 
body $2 $3 $-1 $4 #
bdycol-kcp $-1 1 2 $5 $6 #
model_id-kcp-attrib $-1 $-1 $-1 $0 1 990548669 60 -1019478015 1 #
lump $-1 $-1 $7 $0 #
transform $-1 1 0 0 0 0 1 0 -1 0 45.312499999999986 30.46875 3.1874999999999112 1 rotate no_reflect no_shear #
body $8 $9 $-1 $10 #
body $11 $12 $-1 $13 #
shell $-1 $-1 $-1 $14 $-1 $3 #
model_id-kcp-attrib $-1 $-1 $-1 $5 1 990548669 60 -1019478014 1 #
lump $-1 $-1 $15 $5 #
transform $-1 1 0 0 0 1 0 0 0 1 45.312499999999986 5.15625 3.187499999999913 1 no_rotate no_reflect no_shear #
rgb_color-st-attrib $-1 $16 $-1 $6 1 0.5 1 #
lump $-1 $-1 $17 $6 #
transform $-1 1 0 0 0 1 0 0 0 1 45.312499999999986 5.15625 3.187499999999913 1 no_rotate no_reflect no_shear #
face $18 $19 $20 $7 $-1 $21 forward single #
shell $-1 $-1 $-1 $22 $-1 $9 #
model_id-kcp-attrib $-1 $-1 $11 $6 1 990548669 310 -1019871229 1 #
shell $-1 $-1 $-1 $23 $-1 $12 #
model_id-kcp-attrib $-1 $-1 $-1 $14 1 990548669 60 -1019478015 2 #
face $24 $25 $26 $7 $-1 $27 reversed single #
loop $-1 $-1 $28 $14 #
cone-surface $-1 8.1967414447126502e-014 23.625 5.90625 -1 3.4914813388431298e-015 0 1.4581646086704607e-014 4.1763494263830445 -4.1763494263830445 1 I I 0 1 5.9062499999999973 forward I I I I #
face $29 $30 $31 $15 $-1 $32 forward single #
face $-1 $33 $34 $17 $-1 $35 forward single #
model_id-kcp-attrib $-1 $-1 $-1 $19 1 990548669 60 -1019478015 3 #
face $36 $37 $38 $7 $-1 $39 forward single #
loop $-1 $-1 $40 $19 #
plane-surface $-1 1.4210854715202004e-014 4.2187499999999991 0 0 0 1 -0.84375 2.9459373796488906e-015 0 forward_v I I I I #
coedge $-1 $41 $42 $43 $44 forward $20 $-1 #
model_id-kcp-attrib $-1 $-1 $-1 $22 1 990548669 60 -1019478014 7 #
face $45 $46 $47 $15 $-1 $48 reversed single #
loop $-1 $-1 $49 $22 #
plane-surface $-1 0 0 29.531250000000057 0 0 1 1 0 0 forward_v I I I I #
face $-1 $50 $51 $17 $-1 $52 forward single #
loop $-1 $-1 $53 $23 #
plane-surface $-1 -16.875000000000043 8.4375 -12.656249999999943 -1 0 0 0 0 1 forward_v I I I I #
model_id-kcp-attrib $-1 $-1 $-1 $25 1 990548669 60 -1019478015 4 #
face $54 $55 $56 $7 $-1 $57 forward single #
loop $-1 $-1 $58 $25 #
plane-surface $-1 16.875000000000014 4.2187499999999405 8.4375 1 -3.4914813388431298e-015 0 -2.9459373796488906e-015 -0.84375 0 forward_v I I I I #
coedge $-1 $59 $60 $61 $62 reversed $26 $-1 #
coedge $-1 $61 $28 $58 $63 forward $20 $-1 #
coedge $-1 $28 $61 $64 $65 forward $20 $-1 #
coedge $-1 $66 $67 $28 $44 reversed $68 $-1 #
edge $-1 $69 -20 $70 20 $43 $71 forward 7 unknown #
model_id-kcp-attrib $-1 $-1 $-1 $30 1 990548669 60 -1019478014 5 #
face $72 $73 $74 $15 $-1 $75 reversed single #
loop $-1 $-1 $76 $30 #
plane-surface $-1 0 0 -29.531250000000057 0 0 1 1 0 0 forward_v I I I I #
coedge $-1 $77 $78 $79 $80 forward $31 $-1 #
face $-1 $81 $82 $17 $-1 $83 forward single #
loop $-1 $-1 $84 $33 #
plane-surface $-1 -16.875000000000099 8.4375 29.531250000000057 0 0 1 1 0 0 forward_v I I I I #
coedge $-1 $85 $86 $87 $88 forward $34 $-1 #
model_id-kcp-attrib $-1 $-1 $-1 $37 1 990548669 60 -1019478015 5 #
face $89 $90 $91 $7 $-1 $92 reversed single #
loop $-1 $-1 $93 $37 #
cone-surface $-1 8.1967414447126502e-014 23.625 10.96875 -1 3.4914813388431298e-015 0 1.4581646086704607e-014 4.1763494263830445 4.1763494263830445 1 I I 0 1 5.9062499999999973 forward I I I I #
coedge $-1 $94 $95 $41 $63 reversed $38 $-1 #
coedge $-1 $96 $40 $95 $97 reversed $26 $-1 #
coedge $-1 $40 $96 $98 $99 reversed $26 $-1 #
coedge $-1 $42 $41 $40 $62 forward $20 $-1 #
edge $100 $101 -20 $102 20 $40 $103 forward 7 unknown #
edge $104 $70 -0.78539816339744828 $101 0.78539816339744828 $58 $105 forward 7 unknown #
coedge $-1 $98 $106 $42 $65 reversed $107 $-1 #
edge $-1 $102 -0.78539816339744828 $69 0.78539816339744828 $64 $108 forward 7 unknown #
coedge $-1 $109 $43 $106 $110 reversed $68 $-1 #
coedge $-1 $43 $109 $94 $111 reversed $68 $-1 #
loop $-1 $-1 $43 $112 #
vertex $-1 $110 $113 #
vertex $-1 $63 $114 #
straight-curve $-1 1.0258897610466873e-013 29.53125 5.90625 0.84375 -2.9459373796488906e-015 0 I I #
model_id-kcp-attrib $-1 $-1 $-1 $46 1 990548669 60 -1019478014 6 #
face $115 $116 $117 $15 $-1 $118 reversed single #
loop $-1 $-1 $119 $46 #
plane-surface $-1 0 -25.3125 0 0 1 0 0 0 1 forward_v I I I I #
coedge $-1 $120 $121 $122 $123 forward $47 $-1 #
coedge $-1 $124 $49 $125 $126 forward $31 $-1 #
coedge $-1 $49 $124 $127 $128 forward $31 $-1 #
coedge $-1 $129 $130 $49 $80 reversed $131 $-1 #
edge $-1 $132 -25.3125 $133 25.3125 $79 $134 forward 7 unknown #
face $-1 $135 $136 $17 $-1 $137 forward single #
loop $-1 $-1 $138 $50 #
plane-surface $-1 16.875000000000099 8.4375 29.531250000000057 1 0 0 0 0 -1 forward_v I I I I #
coedge $-1 $139 $140 $141 $142 forward $51 $-1 #
coedge $-1 $143 $53 $140 $144 reversed $34 $-1 #
coedge $-1 $53 $143 $145 $146 forward $34 $-1 #
coedge $-1 $147 $141 $53 $88 reversed $148 $-1 #
edge $-1 $149 -15.398437499999943 $150 26.789062500000057 $53 $151 forward 7 unknown #
model_id-kcp-attrib $-1 $-1 $-1 $55 1 990548669 60 -1019478015 6 #
face $152 $153 $107 $7 $-1 $154 reversed single #
loop $-1 $-1 $155 $55 #
plane-surface $-1 1.4210854715202004e-014 4.2187499999999991 16.875 0 0 -1 0.84375 -2.9459373796488906e-015 0 forward_v I I I I #
coedge $-1 $156 $157 $155 $158 forward $56 $-1 #
coedge $-1 $159 $58 $67 $111 forward $38 $-1 #
coedge $-1 $58 $160 $59 $97 forward $38 $-1 #
coedge $-1 $60 $59 $161 $162 reversed $26 $-1 #
edge $163 $164 -33 $101 23 $59 $165 forward 7 unknown #
coedge $-1 $166 $64 $60 $99 forward $107 $-1 #
edge $167 $102 -53 $168 3 $60 $169 forward 7 unknown #
attrib_edge_convexity-kcp-attrib $-1 $170 $-1 $62 3 #
vertex $-1 $97 $171 #
vertex $-1 $62 $172 #
straight-curve $-1 8.1967414447126502e-014 23.625 0 -0.84375 2.9459373796488906e-015 0 I I #
attrib_edge_convexity-kcp-attrib $-1 $173 $-1 $63 1 #
ellipse-curve $-1 16.875000000000082 23.62499999999994 5.90625 -1 3.4914813388431298e-015 0 1.4581646086704607e-014 4.1763494263830445 -4.1763494263830445 1 I I #
coedge $-1 $64 $174 $66 $110 forward $107 $-1 #
loop $-1 $-1 $64 $90 #
ellipse-curve $-1 -16.874999999999918 23.62500000000006 5.90625 1 -3.4914813388431298e-015 0 1.4581646086704607e-014 4.1763494263830445 -4.1763494263830445 1 I I #
coedge $-1 $67 $66 $175 $176 reversed $68 $-1 #
edge $-1 $177 -3 $69 3 $66 $178 forward 7 unknown #
edge $179 $70 -3 $180 3 $67 $181 forward 7 unknown #
face $182 $-1 $68 $7 $-1 $183 reversed single #
point $-1 -16.874999999999901 29.53125000000006 5.90625 #
point $-1 16.875000000000099 29.53124999999994 5.90625 #
model_id-kcp-attrib $-1 $-1 $-1 $73 1 990548669 60 -1019478014 4 #
face $184 $185 $186 $15 $-1 $187 reversed single #
loop $-1 $-1 $188 $73 #
plane-surface $-1 -16.875000000000099 0 0 1 0 0 0 0 -1 forward_v I I I I #
coedge $-1 $189 $127 $190 $191 forward $74 $-1 #
coedge $-1 $192 $76 $189 $193 forward $47 $-1 #
coedge $-1 $76 $192 $194 $195 forward $47 $-1 #
coedge $-1 $130 $129 $76 $123 reversed $131 $-1 #
edge $-1 $196 -25.3125 $197 25.3125 $122 $198 forward 7 unknown #
coedge $-1 $78 $77 $199 $200 forward $31 $-1 #
coedge $-1 $201 $202 $77 $126 reversed $186 $-1 #
edge $-1 $133 -16.875000000000099 $203 16.875000000000099 $125 $204 forward 7 unknown #
coedge $-1 $119 $205 $78 $128 reversed $74 $-1 #
edge $-1 $206 -16.875000000000099 $132 16.875000000000099 $127 $207 forward 7 unknown #
coedge $-1 $122 $79 $205 $208 forward $131 $-1 #
coedge $-1 $79 $122 $201 $209 reversed $131 $-1 #
loop $-1 $-1 $129 $185 #
vertex $-1 $80 $210 #
vertex $-1 $80 $211 #
straight-curve $-1 16.875000000000099 0 29.531250000000057 0 1 0 I I #
face $-1 $212 $148 $17 $-1 $213 reversed single #
loop $-1 $-1 $214 $81 #
plane-surface $-1 16.874999999999954 8.4375 -12.656250000000064 -3.4914813388431298e-015 0 -1 -1 0 3.4914813388431298e-015 forward_v I I I I #
coedge $-1 $215 $216 $217 $218 forward $82 $-1 #
coedge $-1 $219 $84 $216 $220 reversed $51 $-1 #
coedge $-1 $84 $219 $85 $144 forward $51 $-1 #
coedge $-1 $87 $217 $84 $142 reversed $148 $-1 #
edge $-1 $150 -16.87500000000011 $221 16.875000000000089 $84 $222 forward 7 unknown #
coedge $-1 $86 $85 $223 $224 reversed $34 $-1 #
edge $-1 $225 0 $150 27.84375 $140 $226 forward 7 unknown #
coedge $-1 $227 $214 $86 $146 reversed $136 $-1 #
edge $-1 $228 0 $149 27.84375 $86 $229 forward 7 unknown #
coedge $-1 $217 $87 $214 $230 reversed $148 $-1 #
loop $-1 $-1 $87 $135 #
vertex $-1 $146 $231 #
vertex $-1 $144 $232 #
straight-curve $-1 -16.875000000000099 -19.40625 2.7421874999999991 0 0 1 I I #
model_id-kcp-attrib $-1 $-1 $-1 $90 1 990548669 60 -1019478015 7 #
face $233 $234 $235 $7 $-1 $236 forward single #
plane-surface $-1 -16.874999999999986 4.2187500000000577 8.4375 1 -3.4914813388431298e-015 0 -2.9459373796488906e-015 -0.84375 0 forward_v I I I I #
coedge $-1 $237 $238 $93 $158 reversed $91 $-1 #
coedge $-1 $175 $93 $159 $239 forward $56 $-1 #
coedge $-1 $93 $175 $174 $240 forward $56 $-1 #
edge $-1 $241 -20 $242 20 $155 $243 forward 7 unknown #
coedge $-1 $244 $94 $156 $239 reversed $38 $-1 #
coedge $-1 $95 $245 $246 $247 reversed $38 $-1 #
coedge $-1 $246 $248 $96 $162 forward $235 $-1 #
edge $249 $168 -20 $164 20 $96 $250 forward 7 unknown #
attrib_edge_convexity-kcp-attrib $-1 $251 $-1 $97 1 #
vertex $-1 $247 $252 #
straight-curve $-1 16.875000000000014 4.2187499999999405 0 2.9459373796488906e-015 0.84375 0 I I #
coedge $-1 $253 $98 $248 $254 reversed $107 $-1 #
attrib_edge_convexity-kcp-attrib $-1 $255 $-1 $99 1 #
vertex $-1 $99 $256 #
straight-curve $-1 -16.875000000000071 -21.09374999999994 0 -2.9459373796488906e-015 -0.84375 0 I I #
convexity-sys-attrib $-1 $-1 $100 $62 #
point $-1 16.875000000000082 23.62499999999994 0 #
point $-1 -16.874999999999918 23.62500000000006 0 #
convexity-sys-attrib $-1 $-1 $104 $63 #
coedge $-1 $106 $257 $157 $240 reversed $107 $-1 #
coedge $-1 $157 $156 $109 $176 forward $56 $-1 #
edge $-1 $180 -20 $177 20 $109 $258 forward 7 unknown #
vertex $-1 $240 $259 #
straight-curve $-1 -16.874999999999901 29.53125000000006 8.4375 0 0 -0.84375 I I #
attrib_edge_convexity-kcp-attrib $-1 $260 $-1 $111 1 #
vertex $-1 $111 $261 #
straight-curve $-1 16.875000000000099 29.53124999999994 8.4375 0 0 0.84375 I I #
model_id-kcp-attrib $-1 $-1 $-1 $112 1 990548669 60 -1019478015 14 #
plane-surface $-1 1.0258897610466873e-013 29.53125 8.4375 -3.4914813388431298e-015 -1 0 -0.84375 2.9459373796488906e-015 0 forward_v I I I I #
model_id-kcp-attrib $-1 $-1 $-1 $116 1 990548669 60 -1019478014 2 #
face $262 $-1 $131 $15 $-1 $263 reversed single #
loop $-1 $-1 $201 $116 #
plane-surface $-1 0 25.3125 0 0 -1 0 0 0 -1 forward_v I I I I #
coedge $-1 $264 $199 $202 $265 forward $117 $-1 #
coedge $-1 $205 $119 $120 $193 reversed $74 $-1 #
coedge $-1 $199 $264 $119 $191 reversed $117 $-1 #
edge $-1 $206 -29.531250000000057 $266 29.531250000000057 $190 $267 forward 7 unknown #
coedge $-1 $121 $120 $264 $268 forward $47 $-1 #
edge $-1 $197 -16.875000000000099 $266 16.875000000000099 $189 $269 forward 7 unknown #
coedge $-1 $202 $201 $121 $195 reversed $186 $-1 #
edge $-1 $270 -16.875000000000099 $196 16.875000000000099 $194 $271 forward 7 unknown #
vertex $-1 $123 $272 #
vertex $-1 $208 $273 #
straight-curve $-1 16.875000000000099 0 -29.531250000000057 0 -1 0 I I #
coedge $-1 $188 $190 $124 $200 reversed $117 $-1 #
edge $-1 $203 -25.3125 $206 25.3125 $199 $274 forward 7 unknown #
coedge $-1 $194 $125 $130 $209 forward $186 $-1 #
coedge $-1 $125 $194 $188 $265 reversed $186 $-1 #
vertex $-1 $126 $275 #
straight-curve $-1 0 25.3125 29.531250000000057 -1 0 0 I I #
coedge $-1 $127 $189 $129 $208 reversed $74 $-1 #
vertex $-1 $200 $276 #
straight-curve $-1 0 -25.3125 29.531250000000057 1 0 0 I I #
edge $-1 $132 -29.531250000000057 $197 29.531250000000057 $129 $277 forward 7 unknown #
edge $-1 $133 -29.531250000000057 $196 29.531250000000057 $130 $278 forward 7 unknown #
point $-1 16.875000000000099 -25.3125 29.531250000000057 #
point $-1 16.875000000000099 25.3125 29.531250000000057 #
face $-1 $-1 $279 $17 $-1 $280 forward single #
plane-surface $-1 3.5527136788005009e-015 -19.40625 8.4375000000000533 0 1 0 0 0 1 forward_v I I I I #
coedge $-1 $145 $281 $147 $230 forward $136 $-1 #
coedge $-1 $282 $138 $281 $283 reversed $82 $-1 #
coedge $-1 $138 $282 $139 $220 forward $82 $-1 #
coedge $-1 $141 $147 $138 $218 reversed $148 $-1 #
edge $-1 $221 -26.789062500000057 $284 15.398437500000064 $138 $285 forward 7 unknown #
coedge $-1 $140 $139 $286 $287 reversed $51 $-1 #
edge $-1 $288 0 $221 27.84375 $216 $289 forward 7 unknown #
vertex $-1 $220 $290 #
straight-curve $-1 1.0658141036401503e-014 -19.40625 29.531250000000057 1 0 0 I I #
coedge $-1 $286 $291 $143 $224 forward $279 $-1 #
edge $292 $228 -15.398437499999943 $225 26.789062500000057 $143 $293 forward 7 unknown #
vertex $-1 $224 $294 #
straight-curve $-1 -16.875000000000099 8.4375 29.531250000000057 0 -1 0 I I #
coedge $-1 $281 $145 $291 $295 reversed $136 $-1 #
vertex $-1 $295 $296 #
straight-curve $-1 -16.875000000000043 8.4375 -12.656249999999943 0 -1 0 I I #
edge $-1 $284 -16.874999999999996 $149 16.875 $214 $297 forward 7 unknown #
point $-1 -16.875000000000043 -19.40625 -12.656249999999943 #
point $-1 -16.875000000000099 -19.40625 29.531250000000057 #
model_id-kcp-attrib $-1 $-1 $-1 $153 1 990548669 60 -1019478015 8 #
face $298 $299 $300 $7 $-1 $301 reversed single #
loop $-1 $-1 $161 $153 #
cone-surface $-1 -8.3005078813211395e-014 -23.625 5.90625 -1 3.4914813388431298e-015 0 -1.4581646086704607e-014 -4.1763494263830445 -4.1763494263830445 1 I I 0 1 5.9062499999999973 forward I I I I #
coedge $-1 $302 $155 $257 $303 reversed $91 $-1 #
coedge $-1 $155 $302 $244 $304 reversed $91 $-1 #
edge $305 $242 -0.78539816339744828 $180 0.78539816339744828 $159 $306 forward 7 unknown #
edge $-1 $177 -0.78539816339744828 $241 0.78539816339744828 $174 $307 forward 7 unknown #
vertex $-1 $303 $308 #
vertex $-1 $158 $309 #
straight-curve $-1 8.1967414447126502e-014 23.625 16.875 0.84375 -2.9459373796488906e-015 0 I I #
coedge $-1 $310 $159 $238 $304 forward $38 $-1 #
coedge $-1 $160 $311 $312 $313 forward $38 $-1 #
coedge $-1 $314 $161 $160 $247 forward $235 $-1 #
edge $315 $164 -0.78539816339744828 $316 0.78539816339744828 $160 $317 forward 7 unknown #
coedge $-1 $161 $314 $166 $254 forward $235 $-1 #
attrib_edge_convexity-kcp-attrib $-1 $318 $-1 $162 3 #
straight-curve $-1 -8.3005078813211395e-014 -23.625 0 0.84375 -2.9459373796488906e-015 0 I I #
convexity-sys-attrib $-1 $-1 $163 $97 #
point $-1 16.874999999999918 -23.62500000000006 0 #
coedge $-1 $319 $166 $320 $321 forward $107 $-1 #
edge $-1 $322 -0.78539816339744828 $168 0.78539816339744828 $166 $323 forward 7 unknown #
convexity-sys-attrib $-1 $-1 $167 $99 #
point $-1 -16.875000000000082 -23.62499999999994 0 #
coedge $-1 $174 $324 $237 $303 forward $107 $-1 #
straight-curve $-1 1.0258897610466873e-013 29.53125 10.96875 -0.84375 2.9459373796488906e-015 0 I I #
point $-1 -16.874999999999901 29.53125000000006 10.96875 #
convexity-sys-attrib $-1 $-1 $179 $111 #
point $-1 16.875000000000099 29.53124999999994 10.96875 #
model_id-kcp-attrib $-1 $-1 $-1 $185 1 990548669 60 -1019478014 3 #
plane-surface $-1 16.875000000000099 0 0 -1 0 0 0 0 1 forward_v I I I I #
coedge $-1 $190 $188 $192 $268 reversed $117 $-1 #
edge $-1 $203 -29.531250000000057 $270 29.531250000000057 $202 $325 forward 7 unknown #
vertex $-1 $268 $326 #
straight-curve $-1 -16.875000000000099 -25.3125 0 0 0 -1 I I #
edge $-1 $266 -25.3125 $270 25.3125 $264 $327 forward 7 unknown #
straight-curve $-1 0 -25.3125 -29.531250000000057 -1 0 0 I I #
vertex $-1 $195 $328 #
straight-curve $-1 0 25.3125 -29.531250000000057 1 0 0 I I #
point $-1 16.875000000000099 25.3125 -29.531250000000057 #
point $-1 16.875000000000099 -25.3125 -29.531250000000057 #
straight-curve $-1 -16.875000000000099 0 29.531250000000057 0 -1 0 I I #
point $-1 -16.875000000000099 25.3125 29.531250000000057 #
point $-1 -16.875000000000099 -25.3125 29.531250000000057 #
straight-curve $-1 16.875000000000099 -25.3125 0 0 0 -1 I I #
straight-curve $-1 16.875000000000099 25.3125 0 0 0 -1 I I #
loop $-1 $-1 $291 $212 #
plane-surface $-1 3.5527136788005009e-015 8.4375 8.4375000000000533 0 1 0 0 0 1 forward_v I I I I #
coedge $-1 $214 $227 $215 $283 forward $136 $-1 #
coedge $-1 $216 $215 $329 $330 reversed $82 $-1 #
edge $-1 $331 0 $284 27.84375 $281 $332 forward 7 unknown #
vertex $-1 $283 $333 #
straight-curve $-1 16.875000000000099 -19.40625 2.7421874999999991 0 0 -1 I I #
coedge $-1 $329 $223 $219 $287 forward $279 $-1 #
edge $334 $225 -16.87500000000011 $288 16.875000000000089 $219 $335 forward 7 unknown #
vertex $-1 $287 $336 #
straight-curve $-1 16.875000000000099 8.4375 29.531250000000057 0 -1 0 I I #
point $-1 16.875000000000099 -19.40625 29.531250000000057 #
coedge $-1 $223 $329 $227 $295 forward $279 $-1 #
convexity-sys-attrib $-1 $-1 $-1 $224 #
straight-curve $-1 -16.875000000000099 8.4375 2.7421874999999991 0 0 1 I I #
point $-1 -16.875000000000099 8.4375 29.531250000000057 #
edge $337 $331 -16.874999999999996 $228 16.875000000000004 $227 $338 forward 7 unknown #
point $-1 -16.875000000000046 8.4375 -12.656249999999943 #
straight-curve $-1 -4.336463223371198e-014 -19.40625 -12.656250000000004 -1 0 3.4914813388431298e-015 I I #
model_id-kcp-attrib $-1 $-1 $-1 $234 1 990548669 60 -1019478015 9 #
face $339 $340 $341 $7 $-1 $342 forward single #
loop $-1 $-1 $343 $234 #
plane-surface $-1 -1.0362664047075362e-013 -29.53125 25.3125 3.4914813388431298e-015 1 0 0.84375 -2.9459373796488906e-015 0 forward_v I I I I #
coedge $-1 $238 $237 $344 $345 forward $91 $-1 #
edge $-1 $346 -20 $241 23 $237 $347 forward 7 unknown #
edge $348 $242 -23 $349 20 $238 $350 forward 7 unknown #
attrib_edge_convexity-kcp-attrib $-1 $351 $-1 $239 1 #
ellipse-curve $-1 16.875000000000082 23.62499999999994 10.96875 -1 3.4914813388431298e-015 0 1.4581646086704607e-014 4.1763494263830445 4.1763494263830445 1 I I #
ellipse-curve $-1 -16.874999999999918 23.62500000000006 10.96875 1 -3.4914813388431298e-015 0 1.4581646086704607e-014 4.1763494263830445 4.1763494263830445 1 I I #
point $-1 -16.874999999999918 23.62500000000006 16.875 #
point $-1 16.875000000000082 23.62499999999994 16.875 #
coedge $-1 $352 $244 $353 $354 forward $38 $-1 #
coedge $-1 $245 $355 $356 $357 reversed $38 $-1 #
coedge $-1 $358 $343 $245 $313 reversed $300 $-1 #
edge $359 $360 -23 $316 23 $312 $361 forward 7 unknown #
coedge $-1 $248 $246 $343 $362 forward $235 $-1 #
attrib_edge_convexity-kcp-attrib $-1 $363 $-1 $247 1 #
vertex $-1 $313 $364 #
ellipse-curve $-1 16.874999999999918 -23.62500000000006 5.90625 -1 3.4914813388431298e-015 0 -1.4581646086704607e-014 -4.1763494263830445 -4.1763494263830445 1 I I #
convexity-sys-attrib $-1 $-1 $249 $162 #
coedge $-1 $365 $253 $366 $367 reversed $107 $-1 #
coedge $-1 $343 $358 $253 $321 reversed $300 $-1 #
edge $368 $322 -23 $369 23 $320 $370 forward 7 unknown #
vertex $-1 $362 $371 #
ellipse-curve $-1 -16.875000000000082 -23.62499999999994 5.90625 1 -3.4914813388431298e-015 0 -1.4581646086704607e-014 -4.1763494263830445 -4.1763494263830445 1 I I #
coedge $-1 $257 $372 $373 $374 forward $107 $-1 #
straight-curve $-1 -16.875000000000099 25.3125 0 0 0 -1 I I #
point $-1 -16.875000000000099 -25.3125 -29.531250000000057 #
straight-curve $-1 -16.875000000000099 0 -29.531250000000057 0 1 0 I I #
point $-1 -16.875000000000099 25.3125 -29.531250000000057 #
coedge $-1 $291 $286 $282 $330 forward $279 $-1 #
edge $375 $288 -26.789062500000057 $331 15.398437500000064 $282 $376 forward 7 unknown #
vertex $-1 $295 $377 #
straight-curve $-1 16.874999999999954 8.4375 -12.656250000000064 0 -1 0 I I #
point $-1 16.874999999999954 -19.40625 -12.656250000000064 #
convexity-sys-attrib $-1 $-1 $-1 $287 #
straight-curve $-1 1.0658141036401503e-014 8.4375 29.531250000000057 1 0 0 I I #
point $-1 16.875000000000099 8.4375 29.531250000000057 #
convexity-sys-attrib $-1 $-1 $-1 $295 #
straight-curve $-1 -4.336463223371198e-014 8.4375 -12.656250000000004 -1 0 3.4914813388431298e-015 I I #
model_id-kcp-attrib $-1 $-1 $-1 $299 1 990548669 60 -1019478015 10 #
face $378 $379 $380 $7 $-1 $381 reversed single #
loop $-1 $-1 $382 $299 #
cone-surface $-1 -8.3005078813211395e-014 -23.625 44.71875 -1 3.4914813388431298e-015 0 -1.4581646086704607e-014 -4.1763494263830445 4.1763494263830445 1 I I 0 1 5.9062499999999973 forward I I I I #
coedge $-1 $312 $320 $314 $362 reversed $300 $-1 #
coedge $-1 $373 $353 $302 $345 reversed $383 $-1 #
edge $-1 $346 -20 $349 20 $302 $384 forward 7 unknown #
vertex $-1 $303 $385 #
straight-curve $-1 -16.874999999999986 4.2187500000000577 16.875 2.9459373796488906e-015 0.84375 0 I I #
attrib_edge_convexity-kcp-attrib $-1 $386 $-1 $304 1 #
vertex $-1 $304 $387 #
straight-curve $-1 16.875000000000014 4.2187499999999405 16.875 -2.9459373796488906e-015 -0.84375 0 I I #
convexity-sys-attrib $-1 $-1 $305 $239 #
coedge $-1 $355 $310 $388 $389 reversed $38 $-1 #
coedge $-1 $344 $390 $310 $354 reversed $383 $-1 #
edge $391 $349 -10 $392 23 $353 $393 forward 7 unknown #
coedge $-1 $311 $352 $394 $395 forward $38 $-1 #
coedge $-1 $396 $382 $311 $357 forward $341 $-1 #
edge $397 $360 -0.78539816339744828 $398 0.78539816339744828 $311 $399 forward 7 unknown #
coedge $-1 $320 $312 $382 $400 reversed $300 $-1 #
attrib_edge_convexity-kcp-attrib $-1 $401 $-1 $313 1 #
vertex $-1 $357 $402 #
straight-curve $-1 16.874999999999897 -29.531250000000057 25.3125 0 0 -0.84375 I I #
edge $403 $316 -20 $322 20 $343 $404 forward 7 unknown #
convexity-sys-attrib $-1 $-1 $315 $247 #
point $-1 16.874999999999897 -29.531250000000057 5.90625 #
coedge $-1 $372 $319 $405 $406 forward $107 $-1 #
coedge $-1 $382 $396 $319 $367 forward $341 $-1 #
edge $-1 $407 -0.78539816339744828 $369 0.78539816339744828 $319 $408 forward 7 unknown #
attrib_edge_convexity-kcp-attrib $-1 $409 $-1 $321 1 #
vertex $-1 $321 $410 #
straight-curve $-1 -16.875000000000103 -29.531249999999943 25.3125 0 0 0.84375 I I #
point $-1 -16.875000000000103 -29.531249999999943 5.90625 #
coedge $-1 $324 $365 $411 $412 reversed $107 $-1 #
coedge $-1 $390 $344 $324 $374 reversed $383 $-1 #
edge $-1 $413 -23 $346 10 $373 $414 forward 7 unknown #
convexity-sys-attrib $-1 $-1 $-1 $330 #
straight-curve $-1 16.875000000000099 8.4375 2.7421874999999991 0 0 -1 I I #
point $-1 16.874999999999954 8.4375 -12.656250000000064 #
model_id-kcp-attrib $-1 $-1 $-1 $340 1 990548669 60 -1019478015 11 #
face $415 $416 $417 $7 $-1 $418 forward single #
loop $-1 $-1 $419 $340 #
plane-surface $-1 -7.4167266674264723e-014 -21.09375 50.625 0 0 -1 0.84375 -2.9459373796488906e-015 0 forward_v I I I I #
coedge $-1 $356 $366 $358 $400 forward $341 $-1 #
loop $-1 $-1 $390 $416 #
straight-curve $-1 -4.470789287777581e-014 -12.65625 16.875 0.84375 -2.9459373796488906e-015 0 I I #
point $-1 -16.875000000000046 -12.65624999999994 16.875 #
convexity-sys-attrib $-1 $-1 $348 $304 #
point $-1 16.874999999999954 -12.65625000000006 16.875 #
coedge $-1 $420 $421 $352 $389 forward $417 $-1 #
edge $422 $423 -0.78539816339744828 $392 0.78539816339744828 $352 $424 forward 7 unknown #
coedge $-1 $353 $373 $420 $425 reversed $383 $-1 #
attrib_edge_convexity-kcp-attrib $-1 $426 $-1 $354 1 #
vertex $-1 $354 $427 #
straight-curve $-1 16.874999999999954 -12.65625000000006 25.3125 0 0 0.84375 I I #
coedge $-1 $428 $419 $355 $395 reversed $380 $-1 #
edge $429 $423 -3 $398 3 $394 $430 forward 7 unknown #
coedge $-1 $366 $356 $419 $431 forward $341 $-1 #
attrib_edge_convexity-kcp-attrib $-1 $432 $-1 $357 1 #
vertex $-1 $395 $433 #
ellipse-curve $-1 16.874999999999918 -23.62500000000006 44.71875 -1 3.4914813388431298e-015 0 -1.4581646086704607e-014 -4.1763494263830445 4.1763494263830445 1 I I #
edge $434 $369 -20 $360 20 $358 $435 forward 7 unknown #
convexity-sys-attrib $-1 $-1 $359 $313 #
point $-1 16.874999999999897 -29.531250000000057 44.71875 #
attrib_edge_convexity-kcp-attrib $-1 $436 $-1 $362 3 #
straight-curve $-1 -1.0362664047075362e-013 -29.53125 5.90625 -0.84375 2.9459373796488906e-015 0 I I #
coedge $-1 $419 $428 $365 $406 reversed $380 $-1 #
edge $-1 $407 -3 $437 3 $405 $438 forward 7 unknown #
vertex $-1 $431 $439 #
ellipse-curve $-1 -16.875000000000082 -23.62499999999994 44.71875 1 -3.4914813388431298e-015 0 -1.4581646086704607e-014 -4.1763494263830445 4.1763494263830445 1 I I #
convexity-sys-attrib $-1 $-1 $368 $321 #
point $-1 -16.875000000000103 -29.531249999999943 44.71875 #
coedge $-1 $421 $420 $372 $412 forward $417 $-1 #
edge $-1 $413 -0.78539816339744828 $437 0.78539816339744828 $372 $440 forward 7 unknown #
vertex $-1 $412 $441 #
straight-curve $-1 -16.875000000000046 -12.65624999999994 25.3125 0 0 -0.84375 I I #
model_id-kcp-attrib $-1 $-1 $-1 $379 1 990548669 60 -1019478015 12 #
face $442 $112 $383 $7 $-1 $443 reversed single #
loop $-1 $-1 $421 $379 #
cone-surface $-1 -6.5329454535318039e-014 -18.5625 44.71875 -1 3.4914813388431298e-015 0 1.4581646086704607e-014 4.1763494263830445 4.1763494263830445 1 I I 0 1 5.9062499999999973 forward I I I I #
coedge $-1 $394 $405 $396 $431 reversed $380 $-1 #
coedge $-1 $411 $388 $390 $425 forward $417 $-1 #
coedge $-1 $388 $411 $428 $444 forward $417 $-1 #
attrib_edge_convexity-kcp-attrib $-1 $445 $-1 $389 1 #
vertex $-1 $444 $446 #
ellipse-curve $-1 16.874999999999932 -18.56250000000006 44.71875 -1 3.4914813388431298e-015 0 1.4581646086704607e-014 4.1763494263830445 4.1763494263830445 1 I I #
edge $-1 $392 -20 $413 20 $390 $447 forward 7 unknown #
convexity-sys-attrib $-1 $-1 $391 $354 #
point $-1 16.874999999999954 -12.65625000000006 44.71875 #
coedge $-1 $405 $394 $421 $444 reversed $380 $-1 #
attrib_edge_convexity-kcp-attrib $-1 $448 $-1 $395 1 #
straight-curve $-1 16.874999999999929 -21.09375000000006 50.625 -2.9459373796488906e-015 -0.84375 0 I I #
edge $-1 $398 -20 $407 20 $419 $449 forward 7 unknown #
convexity-sys-attrib $-1 $-1 $397 $357 #
point $-1 16.874999999999918 -23.62500000000006 50.625 #
attrib_edge_convexity-kcp-attrib $-1 $450 $-1 $400 3 #
straight-curve $-1 -1.0362664047075362e-013 -29.53125 44.71875 0.84375 -2.9459373796488906e-015 0 I I #
convexity-sys-attrib $-1 $-1 $403 $362 #
vertex $-1 $406 $451 #
straight-curve $-1 -16.875000000000071 -21.09374999999994 50.625 2.9459373796488906e-015 0.84375 0 I I #
point $-1 -16.875000000000082 -23.62499999999994 50.625 #
ellipse-curve $-1 -16.875000000000068 -18.56249999999994 44.71875 1 -3.4914813388431298e-015 0 1.4581646086704607e-014 4.1763494263830445 4.1763494263830445 1 I I #
point $-1 -16.875000000000046 -12.65624999999994 44.71875 #
model_id-kcp-attrib $-1 $-1 $-1 $416 1 990548669 60 -1019478015 13 #
plane-surface $-1 -4.470789287777581e-014 -12.65625 25.3125 -3.4914813388431298e-015 -1 0 -0.84375 2.9459373796488906e-015 0 forward_v I I I I #
edge $-1 $437 -20 $423 20 $428 $452 forward 7 unknown #
convexity-sys-attrib $-1 $-1 $422 $389 #
point $-1 16.874999999999932 -18.56250000000006 50.625 #
straight-curve $-1 -4.470789287777581e-014 -12.65625 44.71875 -0.84375 2.9459373796488906e-015 0 I I #
convexity-sys-attrib $-1 $-1 $429 $395 #
straight-curve $-1 -8.3005078813211395e-014 -23.625 50.625 -0.84375 2.9459373796488906e-015 0 I I #
convexity-sys-attrib $-1 $-1 $434 $400 #
point $-1 -16.875000000000068 -18.56249999999994 50.625 #
straight-curve $-1 -6.5329454535318039e-014 -18.5625 50.625 0.84375 -2.9459373796488906e-015 0 I I #
End-of-ACIS-data 