600 0 1 0           
88 GICL ACIS Healer - Source: /gicl/data5/repository/ICEM-CDC/demos/DEMO08/DEMO08.sat - 6 0 18 ACIS 6.0.3 Solaris 24 Sat Apr 13 23:08:32 2002 
1 9.999999999999999547e-07 1.000000000000000036e-10 
body $-1 $1 $-1 $2 #
lump $-1 $-1 $3 $0 #
transform $-1 1 0 0 0 1 0 0 0 1 0 0 0 1 no_rotate no_reflect no_shear #
shell $-1 $-1 $-1 $4 $-1 $1 #
face $5 $6 $7 $3 $-1 $8 reversed single #
face_name-twe-attrib $-1 $-1 $-1 $4 1 #
face $9 $10 $11 $3 $-1 $12 reversed single #
loop $13 $14 $15 $4 #
plane-surface $16 2.150079999999999991 0.5999200000000000088 -0.5 0 0 1 1 0 0 forward_v I I I I #
face_name-twe-attrib $-1 $-1 $-1 $6 2 #
face $17 $18 $19 $3 $-1 $20 reversed single #
loop $21 $22 $23 $6 #
plane-surface $24 2.150079999999999991 0.5999200000000000088 -0.5999999999999999778 0 0 -1 -1 0 0 forward_v I I I I #
loop_type-twe-attrib $-1 $-1 $-1 $7 0 #
loop $25 $-1 $26 $4 #
coedge $-1 $15 $15 $27 $28 forward $7 $-1 #
surf-twe-attrib $-1 $29 $-1 $8 30 #
face_name-twe-attrib $-1 $-1 $-1 $10 3 #
face $30 $31 $32 $3 $-1 $33 reversed single #
loop $34 $35 $27 $10 #
cone-surface $36 1.75 1 -0.5 0 0 -1 0.4000000000000000222 0 0 1 I I 0 1 0.4000000000000000222 forward I I I I #
loop_type-twe-attrib $-1 $-1 $-1 $11 0 #
loop $37 $-1 $38 $6 #
coedge $-1 $23 $23 $39 $40 forward $11 $-1 #
surf-twe-attrib $-1 $-1 $-1 $12 6 #
loop_type-twe-attrib $-1 $-1 $-1 $14 1 #
coedge $-1 $26 $26 $41 $42 forward $14 $-1 #
coedge $-1 $27 $27 $15 $28 reversed $19 $-1 #
edge $43 $44 0 $44 6.283185307179586232 $27 $45 forward 7 unknown #
surf-twe-attrib $-1 $46 $16 $8 48 #
face_name-twe-attrib $-1 $-1 $-1 $18 4 #
face $47 $48 $49 $3 $-1 $50 reversed single #
loop $51 $-1 $52 $18 #
plane-surface $53 2.312512499999999971 0.9374875000000000291 -0.5 0 0 -1 -1 0 0 forward_v I I I I #
loop_type-twe-attrib $-1 $-1 $-1 $19 0 #
loop $54 $-1 $39 $10 #
surf-twe-attrib $-1 $-1 $-1 $20 10 #
loop_type-twe-attrib $-1 $-1 $-1 $22 1 #
coedge $-1 $38 $38 $55 $56 forward $22 $-1 #
coedge $-1 $39 $39 $23 $40 reversed $35 $-1 #
edge $57 $58 0 $58 6.283185307179586232 $39 $59 forward 7 unknown #
coedge $-1 $41 $41 $26 $42 reversed $60 $-1 #
edge $61 $62 -4.712388980384689674 $62 1.570796326794896558 $41 $63 reversed 7 unknown #
edge_name-twe-attrib $-1 $-1 $-1 $28 1 4608 #
vertex $-1 $28 $64 #
ellipse-curve $-1 1.75 1 -0.5 -0 -0 -1 0.4000000000000000222 0 0 1 I I #
surf-twe-attrib $-1 $65 $29 $8 73 #
face_name-twe-attrib $-1 $-1 $-1 $31 5 #
face $66 $67 $68 $3 $-1 $69 reversed single #
loop $70 $71 $72 $31 #
cone-surface $73 2.25 1 0 0 0 -1 0.0625 0 0 1 I I 0 1 0.0625 forward I I I I #
loop_type-twe-attrib $-1 $-1 $-1 $32 0 #
coedge $-1 $52 $52 $72 $74 forward $32 $-1 #
surf-twe-attrib $-1 $75 $-1 $33 30 #
loop_type-twe-attrib $-1 $-1 $-1 $35 1 #
coedge $-1 $55 $55 $38 $56 reversed $76 $-1 #
edge $77 $78 -7.85398163397448279 $78 -1.570796326794896558 $55 $79 reversed 7 unknown #
edge_name-twe-attrib $-1 $-1 $-1 $40 2 4608 #
vertex $-1 $40 $80 #
ellipse-curve $-1 1.75 1 -0.5999999999999999778 -0 -0 1 0.4000000000000000222 0 0 1 I I #
loop $81 $-1 $41 $82 #
edge_name-twe-attrib $-1 $-1 $-1 $42 8 8704 #
vertex $-1 $42 $83 #
ellipse-curve $-1 1.75 1 -0.5 -0 -0 -1 0.375 0 0 1 I I #
point $-1 2.149999999999999911 1 -0.5 #
surf-twe-attrib $-1 $84 $46 $8 54 #
face_name-twe-attrib $-1 $-1 $-1 $48 6 #
face $85 $86 $87 $3 $-1 $88 reversed single #
loop $89 $-1 $90 $48 #
plane-surface $91 1.812512499999999971 0.4374874999999999736 -0.5 0 0 -1 -1 0 0 forward_v I I I I #
loop_type-twe-attrib $-1 $-1 $-1 $49 0 #
loop $92 $-1 $93 $31 #
coedge $-1 $72 $72 $52 $74 reversed $49 $-1 #
surf-twe-attrib $-1 $-1 $-1 $50 32 #
edge $94 $95 0 $95 6.283185307179586232 $72 $96 forward 7 unknown #
surf-twe-attrib $-1 $97 $53 $33 48 #
loop $98 $-1 $55 $99 #
edge_name-twe-attrib $-1 $-1 $-1 $56 7 8704 #
vertex $-1 $56 $100 #
ellipse-curve $-1 1.75 1 -0.5999999999999999778 -0 -0 1 0.375 0 0 1 I I #
point $-1 2.149999999999999911 1 -0.5999999999999999778 #
loop_type-twe-attrib $-1 $-1 $-1 $60 1 #
face $101 $102 $103 $3 $-1 $104 reversed single #
point $-1 1.75 1.375 -0.5 #
surf-twe-attrib $-1 $105 $65 $8 18 #
face_name-twe-attrib $-1 $-1 $-1 $67 7 #
face $106 $107 $108 $3 $-1 $109 reversed single #
loop $110 $111 $112 $67 #
cone-surface $113 1.75 0.5 0 0 0 -1 0.0625 0 0 1 I I 0 1 0.0625 forward I I I I #
loop_type-twe-attrib $-1 $-1 $-1 $68 0 #
coedge $-1 $90 $90 $112 $114 forward $68 $-1 #
surf-twe-attrib $-1 $115 $-1 $69 30 #
loop_type-twe-attrib $-1 $-1 $-1 $71 1 #
coedge $-1 $93 $93 $116 $117 reversed $71 $-1 #
edge_name-twe-attrib $-1 $-1 $-1 $74 3 4608 #
vertex $-1 $74 $118 #
ellipse-curve $-1 2.25 1 -0.5 -0 -0 1 0.0625 0 0 1 I I #
surf-twe-attrib $-1 $119 $75 $33 73 #
loop_type-twe-attrib $-1 $-1 $-1 $76 1 #
face $120 $82 $121 $3 $-1 $122 reversed single #
point $-1 1.75 1.375 -0.5999999999999999778 #
face_name-twe-attrib $-1 $-1 $-1 $82 13 #
face $123 $124 $125 $3 $-1 $126 forward single #
loop $127 $60 $128 $82 #
cone-surface $129 1.75 1 0.0001000000000000000048 0 0 -1 0.375 0 0 1 I I 0 1 0.375 forward I I I I #
surf-twe-attrib $-1 $-1 $84 $8 4 #
face_name-twe-attrib $-1 $-1 $-1 $86 8 #
face $130 $131 $132 $3 $-1 $133 reversed single #
loop $134 $-1 $135 $86 #
plane-surface $136 1.312512499999999971 0.9374875000000000291 -0.5 0 0 -1 -1 0 0 forward_v I I I I #
loop_type-twe-attrib $-1 $-1 $-1 $87 0 #
loop $137 $-1 $138 $67 #
coedge $-1 $112 $112 $90 $114 reversed $87 $-1 #
surf-twe-attrib $-1 $-1 $-1 $88 87 #
edge $139 $140 0 $140 6.283185307179586232 $112 $141 forward 7 unknown #
surf-twe-attrib $-1 $142 $91 $69 48 #
coedge $-1 $116 $116 $93 $117 forward $143 $-1 #
edge $144 $145 0 $145 6.283185307179586232 $116 $146 forward 7 unknown #
point $-1 2.3125 1 -0.5 #
surf-twe-attrib $-1 $147 $97 $33 54 #
face_name-twe-attrib $-1 $-1 $-1 $99 12 #
loop $148 $76 $149 $99 #
cone-surface $150 1.75 1 0.0001000000000000000048 0 0 -1 0.375 0 0 1 I I 0 1 0.375 forward I I I I #
face_name-twe-attrib $-1 $-1 $-1 $102 14 #
face $151 $152 $153 $3 $-1 $154 forward single #
loop $155 $-1 $156 $102 #
plane-surface $157 1.28806023374420997 1.46193976625579003 -0.25 -0.9238795325112862944 0.382683432365091114 0 0 0 1 forward_v I I I I #
loop_type-twe-attrib $-1 $-1 $-1 $103 0 #
coedge $-1 $128 $128 $158 $159 reversed $103 $-1 #
surf-twe-attrib $-1 $160 $-1 $104 103 #
face_name-twe-attrib $-1 $-1 $-1 $107 9 #
face $161 $162 $163 $3 $-1 $164 reversed single #
loop $165 $166 $167 $107 #
cone-surface $168 1.25 1 0 0 0 -1 0.0625 0 0 1 I I 0 1 0.0625 forward I I I I #
loop_type-twe-attrib $-1 $-1 $-1 $108 0 #
coedge $-1 $135 $135 $167 $169 forward $108 $-1 #
surf-twe-attrib $-1 $170 $-1 $109 30 #
loop_type-twe-attrib $-1 $-1 $-1 $111 1 #
coedge $-1 $138 $138 $171 $172 reversed $111 $-1 #
edge_name-twe-attrib $-1 $-1 $-1 $114 4 4608 #
vertex $-1 $114 $173 #
ellipse-curve $-1 1.75 0.5 -0.5 -0 -0 1 0.0625 0 0 1 I I #
surf-twe-attrib $-1 $174 $115 $69 73 #
loop $175 $176 $116 $177 #
edge_name-twe-attrib $-1 $-1 $-1 $117 25 8704 #
vertex $-1 $117 $178 #
ellipse-curve $-1 2.25 1 0 0 0 -1 0.0625 0 0 1 I I #
surf-twe-attrib $-1 $179 $119 $33 18 #
loop_type-twe-attrib $-1 $-1 $-1 $121 0 #
coedge $-1 $149 $149 $180 $181 reversed $121 $-1 #
surf-twe-attrib $-1 $182 $-1 $122 103 #
face_name-twe-attrib $-1 $-1 $-1 $124 15 #
face $183 $184 $185 $3 $-1 $186 forward single #
loop $187 $-1 $188 $124 #
plane-surface $189 1.75 1.653281482438389904 -0.25 -0.382683432365091114 0.9238795325112862944 0 0 0 1 forward_v I I I I #
loop_type-twe-attrib $-1 $-1 $-1 $125 0 #
coedge $-1 $190 $191 $192 $193 reversed $125 $-1 #
surf-twe-attrib $-1 $-1 $-1 $126 150 #
coedge $-1 $158 $158 $128 $159 forward $194 $-1 #
edge $195 $196 -1.570796326794896558 $196 4.712388980384689674 $158 $197 forward 7 unknown #
surf-twe-attrib $-1 $-1 $129 $104 112 #
face_name-twe-attrib $-1 $-1 $-1 $131 10 #
face $198 $99 $199 $3 $-1 $200 reversed single #
loop $201 $-1 $202 $131 #
plane-surface $203 1.812512499999999971 1.437487500000000029 -0.5 0 0 -1 -1 0 0 forward_v I I I I #
loop_type-twe-attrib $-1 $-1 $-1 $132 0 #
loop $204 $-1 $205 $107 #
coedge $-1 $167 $167 $135 $169 reversed $132 $-1 #
surf-twe-attrib $-1 $-1 $-1 $133 108 #
edge $206 $207 0 $207 6.283185307179586232 $167 $208 forward 7 unknown #
surf-twe-attrib $-1 $209 $136 $109 48 #
coedge $-1 $171 $171 $138 $172 forward $176 $-1 #
edge $210 $211 0 $211 6.283185307179586232 $171 $212 forward 7 unknown #
point $-1 1.8125 0.5 -0.5 #
surf-twe-attrib $-1 $213 $142 $69 54 #
loop_type-twe-attrib $-1 $-1 $-1 $143 1 #
loop $214 $215 $171 $177 #
face $216 $217 $218 $3 $-1 $219 reversed single #
point $-1 2.3125 1 0 #
surf-twe-attrib $-1 $-1 $147 $33 4 #
coedge $-1 $180 $180 $149 $181 forward $220 $-1 #
edge $221 $222 1.570796326794896558 $222 7.85398163397448279 $180 $223 forward 7 unknown #
surf-twe-attrib $-1 $-1 $150 $122 112 #
face_name-twe-attrib $-1 $-1 $-1 $152 16 #
face $224 $225 $226 $3 $-1 $227 forward single #
loop $228 $-1 $229 $152 #
plane-surface $230 2.21193976625579003 1.46193976625579003 -0.25 0.382683432365091114 0.9238795325112862944 0 0 0 1 forward_v I I I I #
loop_type-twe-attrib $-1 $-1 $-1 $153 0 #
coedge $-1 $231 $232 $233 $234 reversed $153 $-1 #
surf-twe-attrib $-1 $-1 $-1 $154 211 #
coedge $-1 $235 $156 $236 $237 forward $125 $-1 #
coedge $-1 $156 $235 $231 $238 forward $125 $-1 #
coedge $-1 $233 $239 $156 $193 forward $240 $-1 #
edge $241 $242 0.1738977574797350711 $243 0.6738977574798772352 $192 $244 forward 7 unknown #
loop $245 $-1 $158 $177 #
edge_name-twe-attrib $-1 $-1 $-1 $159 29 8704 #
vertex $-1 $159 $246 #
ellipse-curve $-1 1.75 1 0 0 0 -1 0.375 0 0 1 I I #
face_name-twe-attrib $-1 $-1 $-1 $162 11 #
loop $247 $248 $249 $162 #
cone-surface $250 1.75 1.5 0 0 0 -1 0.0625 0 0 1 I I 0 1 0.0625 forward I I I I #
loop_type-twe-attrib $-1 $-1 $-1 $163 0 #
coedge $-1 $202 $202 $249 $251 forward $163 $-1 #
surf-twe-attrib $-1 $252 $-1 $164 30 #
loop_type-twe-attrib $-1 $-1 $-1 $166 1 #
coedge $-1 $205 $205 $253 $254 reversed $166 $-1 #
edge_name-twe-attrib $-1 $-1 $-1 $169 5 4608 #
vertex $-1 $169 $255 #
ellipse-curve $-1 1.25 1 -0.5 -0 -0 1 0.0625 0 0 1 I I #
surf-twe-attrib $-1 $256 $170 $109 73 #
edge_name-twe-attrib $-1 $-1 $-1 $172 26 8704 #
vertex $-1 $172 $257 #
ellipse-curve $-1 1.75 0.5 0 0 0 -1 0.0625 0 0 1 I I #
surf-twe-attrib $-1 $258 $174 $69 18 #
loop_type-twe-attrib $-1 $-1 $-1 $176 1 #
loop $259 $260 $253 $177 #
face_name-twe-attrib $-1 $-1 $-1 $177 22 #
face $261 $262 $263 $3 $-1 $264 reversed single #
loop $265 $143 $266 $177 #
plane-surface $267 -0.0003499999999999999964 -0.0002000000000000000096 0 0 0 -1 -1 0 0 forward_v I I I I #
loop $268 $269 $180 $270 #
edge_name-twe-attrib $-1 $-1 $-1 $181 78 8704 #
vertex $-1 $181 $271 #
ellipse-curve $-1 1.75 1 -1 0 0 1 0.375 0 0 1 I I #
face_name-twe-attrib $-1 $-1 $-1 $184 17 #
face $272 $273 $274 $3 $-1 $275 forward single #
loop $276 $-1 $277 $184 #
plane-surface $278 2.403281482438389904 1 -0.25 0.9238795325112862944 0.382683432365091114 0 0 0 -1 forward_v I I I I #
loop_type-twe-attrib $-1 $-1 $-1 $185 0 #
coedge $-1 $279 $280 $281 $282 reversed $185 $-1 #
surf-twe-attrib $-1 $-1 $-1 $186 292 #
coedge $-1 $283 $188 $191 $238 reversed $153 $-1 #
coedge $-1 $188 $283 $279 $284 forward $153 $-1 #
coedge $-1 $281 $192 $188 $234 forward $240 $-1 #
edge $285 $243 0.1820573910802841811 $286 0.6820573910804550444 $233 $287 forward 7 unknown #
coedge $-1 $191 $190 $288 $289 reversed $125 $-1 #
coedge $-1 $290 $291 $190 $237 reversed $292 $-1 #
edge $293 $242 -0 $294 0.25 $236 $295 reversed 7 unknown #
edge $296 $297 -0.25 $243 -0 $231 $298 reversed 7 unknown #
coedge $-1 $192 $299 $290 $300 forward $240 $-1 #
loop $301 $-1 $192 $217 #
edge_name-twe-attrib $-1 $-1 $-1 $193 30 4608 #
vertex $-1 $193 $302 #
vertex $-1 $193 $303 #
straight-curve $-1 1.030170726848669505 0.8393394211148691442 -0.25 0.382683432365091114 0.9238795325112862944 0 I I #
loop_type-twe-attrib $-1 $-1 $-1 $194 1 #
point $-1 1.75 1.375 0 #
loop_type-twe-attrib $-1 $-1 $-1 $199 0 #
loop $304 $-1 $305 $162 #
coedge $-1 $249 $249 $202 $251 reversed $199 $-1 #
surf-twe-attrib $-1 $-1 $-1 $200 75 #
edge $306 $307 0 $307 6.283185307179586232 $249 $308 forward 7 unknown #
surf-twe-attrib $-1 $309 $203 $164 48 #
coedge $-1 $253 $253 $205 $254 forward $215 $-1 #
edge $310 $311 0 $311 6.283185307179586232 $253 $312 forward 7 unknown #
point $-1 1.3125 1 -0.5 #
surf-twe-attrib $-1 $313 $209 $109 54 #
point $-1 1.8125 0.5 0 #
surf-twe-attrib $-1 $-1 $213 $69 4 #
loop_type-twe-attrib $-1 $-1 $-1 $215 1 #
loop $314 $194 $315 $177 #
face_name-twe-attrib $-1 $-1 $-1 $217 23 #
face $316 $317 $318 $3 $-1 $319 forward single #
loop $320 $240 $321 $217 #
plane-surface $322 0.8884615384615389688 0.168615612366939005 -0.25 0 0 -1 -1 0 0 forward_v I I I I #
loop_type-twe-attrib $-1 $-1 $-1 $218 0 #
coedge $-1 $323 $288 $291 $324 forward $218 $-1 #
surf-twe-attrib $-1 $-1 $-1 $219 380 #
loop_type-twe-attrib $-1 $-1 $-1 $220 1 #
loop $325 $326 $327 $270 #
face $328 $329 $330 $3 $-1 $331 reversed single #
point $-1 1.75 1.375 -1 #
face_name-twe-attrib $-1 $-1 $-1 $225 18 #
face $332 $333 $334 $3 $-1 $335 forward single #
loop $336 $-1 $337 $225 #
plane-surface $338 2.21193976625579003 0.5380602337442149663 -0.25 0.9238795325112862944 -0.382683432365091114 0 0 0 -1 forward_v I I I I #
loop_type-twe-attrib $-1 $-1 $-1 $226 0 #
coedge $-1 $339 $340 $341 $342 reversed $226 $-1 #
surf-twe-attrib $-1 $-1 $-1 $227 385 #
coedge $-1 $343 $229 $232 $284 reversed $185 $-1 #
coedge $-1 $229 $343 $339 $344 forward $185 $-1 #
coedge $-1 $341 $233 $229 $282 forward $240 $-1 #
edge $345 $286 -0.1360996399938732004 $346 0.3639003600062691302 $281 $347 forward 7 unknown #
coedge $-1 $232 $231 $348 $349 reversed $153 $-1 #
edge $350 $351 -0.25 $286 -0 $279 $352 reversed 7 unknown #
edge_name-twe-attrib $-1 $-1 $-1 $234 31 4608 #
vertex $-1 $234 $353 #
straight-curve $-1 1.119861136382729327 1.392269418949745319 -0.25 0.9238795325112862944 0.382683432365091114 0 I I #
coedge $-1 $266 $348 $235 $289 forward $218 $-1 #
edge $354 $297 -0.9219471271290440306 $294 -0.4219471271289017555 $288 $355 reversed 7 unknown #
coedge $-1 $356 $236 $239 $300 reversed $292 $-1 #
coedge $-1 $236 $356 $266 $324 reversed $292 $-1 #
loop $357 $-1 $290 $358 #
edge_name-twe-attrib $-1 $-1 $-1 $237 16 8448 #
vertex $-1 $324 $359 #
straight-curve $-1 1.096718517561606765 1.000000000000007772 -0.25 -0 0 -1 I I #
edge_name-twe-attrib $-1 $-1 $-1 $238 9 8448 #
vertex $-1 $349 $360 #
straight-curve $-1 1.28806023374420664 1.461939766255782036 -0.25 0 0 1 I I #
coedge $-1 $239 $361 $362 $363 forward $240 $-1 #
edge $364 $365 -0.1557987380963434809 $242 0.3442012619038155585 $239 $366 forward 7 unknown #
loop_type-twe-attrib $-1 $-1 $-1 $240 1 #
point $-1 1.096718517561606765 1.000000000000007772 -0.25 #
point $-1 1.28806023374420664 1.461939766255782258 -0.25 #
loop_type-twe-attrib $-1 $-1 $-1 $248 1 #
coedge $-1 $305 $305 $315 $367 reversed $248 $-1 #
edge_name-twe-attrib $-1 $-1 $-1 $251 6 4608 #
vertex $-1 $251 $368 #
ellipse-curve $-1 1.75 1.5 -0.5 -0 -0 1 0.0625 0 0 1 I I #
surf-twe-attrib $-1 $369 $252 $164 73 #
edge_name-twe-attrib $-1 $-1 $-1 $254 27 8704 #
vertex $-1 $254 $370 #
ellipse-curve $-1 1.25 1 0 0 0 -1 0.0625 0 0 1 I I #
surf-twe-attrib $-1 $371 $256 $109 18 #
loop_type-twe-attrib $-1 $-1 $-1 $260 1 #
coedge $-1 $315 $315 $305 $367 forward $260 $-1 #
face_name-twe-attrib $-1 $-1 $-1 $262 24 #
face $372 $373 $374 $3 $-1 $375 reversed single #
loop $376 $377 $378 $262 #
cone-surface $379 1.75 1 -0.5 0 0 1 0.8000000000000000444 0 0 1 I I 0 1 0.8000000000000000444 forward I I I I #
loop_type-twe-attrib $-1 $-1 $-1 $263 0 #
coedge $-1 $321 $321 $378 $380 forward $263 $-1 #
surf-twe-attrib $-1 $-1 $-1 $264 481 #
coedge $-1 $381 $266 $382 $383 forward $218 $-1 #
edge $384 $294 -0.2521171812888232111 $385 0.2478828187113360226 $266 $386 reversed 7 unknown #
loop_type-twe-attrib $-1 $-1 $-1 $269 1 #
loop $387 $388 $389 $270 #
coedge $-1 $327 $327 $390 $391 forward $269 $-1 #
face_name-twe-attrib $-1 $-1 $-1 $270 48 #
face $392 $393 $394 $3 $-1 $395 reversed single #
loop $396 $220 $397 $270 #
plane-surface $398 3.500350000000000072 -0.0002000000000000000096 -1 0 0 1 1 0 0 forward_v I I I I #
face_name-twe-attrib $-1 $-1 $-1 $273 19 #
face $399 $358 $400 $3 $-1 $401 forward single #
loop $402 $-1 $403 $273 #
plane-surface $404 1.75 0.3467185175616109838 -0.25 0.382683432365091114 -0.9238795325112862944 0 0 0 -1 forward_v I I I I #
loop_type-twe-attrib $-1 $-1 $-1 $274 0 #
coedge $-1 $405 $406 $407 $408 reversed $274 $-1 #
surf-twe-attrib $-1 $-1 $-1 $275 485 #
coedge $-1 $409 $277 $280 $344 reversed $226 $-1 #
coedge $-1 $277 $409 $405 $410 forward $226 $-1 #
coedge $-1 $407 $281 $277 $342 forward $240 $-1 #
edge $411 $346 -0.5942012619038915533 $412 -0.09420126190372335451 $341 $413 forward 7 unknown #
coedge $-1 $280 $279 $414 $415 reversed $185 $-1 #
edge $416 $417 -0.25 $346 -0 $339 $418 reversed 7 unknown #
edge_name-twe-attrib $-1 $-1 $-1 $282 32 4608 #
vertex $-1 $282 $419 #
straight-curve $-1 1.875739671772501449 1.6011984050618846 -0.25 0.9238795325112862944 -0.382683432365091114 0 I I #
coedge $-1 $288 $414 $283 $349 forward $218 $-1 #
edge $420 $351 -1.124936254391394552 $297 -0.6249362543912237999 $348 $421 reversed 7 unknown #
edge_name-twe-attrib $-1 $-1 $-1 $284 10 8448 #
vertex $-1 $415 $422 #
straight-curve $-1 1.750000000000007994 1.653281482438393235 -0.25 0 -0 1 I I #
point $-1 1.75000000000000755 1.653281482438393235 -0.25 #
edge_name-twe-attrib $-1 $-1 $-1 $289 24 8704 #
straight-curve $-1 0.9352463426753293563 0.6101716854436780579 0 0.382683432365091114 0.9238795325112862944 0 I I #
coedge $-1 $291 $290 $423 $424 reversed $292 $-1 #
loop_type-twe-attrib $-1 $-1 $-1 $292 0 #
face $425 $177 $292 $3 $-1 $426 forward single #
point $-1 1.096718517561606987 1.000000000000007994 0 #
point $-1 1.288060233744206862 1.46193976625578248 0 #
coedge $-1 $299 $407 $403 $427 forward $240 $-1 #
coedge $-1 $428 $423 $299 $363 reversed $400 $-1 #
edge $429 $430 -0.613900360006353174 $365 -0.1139003600061953281 $299 $431 forward 7 unknown #
edge_name-twe-attrib $-1 $-1 $-1 $300 37 4608 #
vertex $-1 $363 $432 #
straight-curve $-1 1.228438637891354546 0.6819994990625158904 -0.25 -0.382683432365091114 0.9238795325112862944 0 I I #
edge $433 $434 0 $434 6.283185307179586232 $315 $435 forward 7 unknown #
point $-1 1.8125 1.5 -0.5 #
surf-twe-attrib $-1 $436 $309 $164 54 #
point $-1 1.3125 1 0 #
surf-twe-attrib $-1 $-1 $313 $109 4 #
face_name-twe-attrib $-1 $-1 $-1 $317 25 #
face $437 $438 $439 $3 $-1 $440 reversed single #
loop $441 $442 $443 $317 #
plane-surface $444 0 2.710505431213759881e-20 -0.5 0 0 -1 -1 0 0 forward_v I I I I #
loop_type-twe-attrib $-1 $-1 $-1 $318 0 #
loop $445 $-1 $446 $262 #
coedge $-1 $378 $378 $321 $380 reversed $318 $-1 #
surf-twe-attrib $-1 $-1 $-1 $319 342 #
edge $447 $448 0 $448 6.283185307179586232 $378 $449 forward 7 unknown #
coedge $-1 $450 $323 $451 $452 forward $218 $-1 #
coedge $-1 $423 $428 $323 $383 reversed $400 $-1 #
edge $453 $385 0.4921762853397401716 $454 0.9921762853398982118 $323 $455 reversed 7 unknown #
edge_name-twe-attrib $-1 $-1 $-1 $324 17 8704 #
vertex $-1 $324 $456 #
straight-curve $-1 1.193199585855425626 0.7670740964128267558 0 -0.382683432365091114 0.9238795325112862944 0 I I #
loop_type-twe-attrib $-1 $-1 $-1 $326 1 #
loop $457 $458 $459 $270 #
coedge $-1 $389 $389 $460 $461 forward $326 $-1 #
coedge $-1 $390 $390 $327 $391 reversed $462 $-1 #
edge $463 $464 1.570796326794896558 $464 7.85398163397448279 $327 $465 forward 7 unknown #
face_name-twe-attrib $-1 $-1 $-1 $329 49 #
face $466 $467 $468 $3 $-1 $469 reversed single #
loop $470 $-1 $471 $329 #
plane-surface $472 0 2 -0.5 1 0 0 0 0 -1 forward_v I I I I #
loop_type-twe-attrib $-1 $-1 $-1 $330 0 #
coedge $-1 $473 $474 $475 $476 reversed $330 $-1 #
surf-twe-attrib $-1 $-1 $-1 $331 429 #
face_name-twe-attrib $-1 $-1 $-1 $333 20 #
loop $477 $-1 $362 $333 #
plane-surface $478 1.288060233744219962 0.5380602337442149663 -0.25 -0.382683432365091114 -0.9238795325112862944 0 0 0 -1 forward_v I I I I #
loop_type-twe-attrib $-1 $-1 $-1 $334 0 #
coedge $-1 $479 $480 $361 $427 reversed $334 $-1 #
surf-twe-attrib $-1 $-1 $-1 $335 588 #
coedge $-1 $481 $337 $340 $410 reversed $274 $-1 #
coedge $-1 $337 $481 $479 $482 forward $274 $-1 #
coedge $-1 $361 $341 $337 $408 forward $240 $-1 #
edge $483 $412 -0.9238977574799575043 $484 -0.4238977574798127312 $407 $485 forward 7 unknown #
coedge $-1 $340 $339 $486 $487 reversed $226 $-1 #
edge $488 $489 -0.25 $412 -0 $405 $490 reversed 7 unknown #
edge_name-twe-attrib $-1 $-1 $-1 $342 33 4608 #
vertex $-1 $342 $491 #
straight-curve $-1 2.439330744676831753 0.912969382190409573 -0.25 0.382683432365091114 -0.9238795325112862944 0 I I #
coedge $-1 $348 $486 $343 $415 forward $218 $-1 #
edge $492 $417 -0.7421762853398137239 $351 -0.2421762853396717541 $414 $493 reversed 7 unknown #
edge_name-twe-attrib $-1 $-1 $-1 $344 11 8448 #
vertex $-1 $487 $494 #
straight-curve $-1 2.21193976625578248 1.461939766255793138 -0.25 0 0 1 I I #
point $-1 2.211939766255782036 1.461939766255793138 -0.25 #
edge_name-twe-attrib $-1 $-1 $-1 $349 23 8704 #
straight-curve $-1 0.7106944191878890038 1.222787015415965017 0 0.9238795325112862944 0.382683432365091114 0 I I #
point $-1 1.750000000000007772 1.653281482438393013 0 #
coedge $-1 $362 $382 $356 $424 forward $400 $-1 #
edge $495 $385 -0.25 $365 -0 $356 $496 reversed 7 unknown #
face_name-twe-attrib $-1 $-1 $-1 $358 21 #
plane-surface $497 1.096718517561610096 1 -0.25 -0.9238795325112862944 -0.382683432365091114 0 0 0 1 forward_v I I I I #
edge $498 $484 -0.9320573910805294293 $430 -0.4320573910803711115 $361 $499 forward 7 unknown #
coedge $-1 $382 $362 $480 $500 reversed $400 $-1 #
edge_name-twe-attrib $-1 $-1 $-1 $363 36 4608 #
vertex $-1 $427 $501 #
straight-curve $-1 1.182830022388822178 0.5816480144590081558 -0.25 -0.9238795325112862944 0.382683432365091114 0 I I #
point $-1 1.288060233744213079 0.5380602337442177419 -0.25 #
edge_name-twe-attrib $-1 $-1 $-1 $367 28 8704 #
vertex $-1 $367 $502 #
ellipse-curve $-1 1.75 1.5 0 0 0 -1 0.0625 0 0 1 I I #
surf-twe-attrib $-1 $503 $369 $164 18 #
face_name-twe-attrib $-1 $-1 $-1 $373 26 #
face $504 $505 $506 $3 $-1 $507 forward single #
loop $508 $462 $509 $373 #
cone-surface $510 3 1.5 -0.625 0 0 -1 0.0625 0 0 1 I I 0 1 0.06250000000000019429 forward I I I I #
loop_type-twe-attrib $-1 $-1 $-1 $374 0 #
loop $511 $512 $513 $317 #
coedge $-1 $514 $515 $516 $517 reversed $374 $-1 #
surf-twe-attrib $-1 $518 $-1 $375 30 #
loop_type-twe-attrib $-1 $-1 $-1 $377 1 #
coedge $-1 $446 $446 $513 $519 reversed $377 $-1 #
edge_name-twe-attrib $-1 $-1 $-1 $380 38 8704 #
vertex $-1 $380 $520 #
ellipse-curve $-1 1.75 1 -0.25 -0 -0 1 0.8000000000000000444 0 0 1 I I #
coedge $-1 $486 $381 $481 $521 forward $218 $-1 #
coedge $-1 $480 $479 $381 $452 reversed $334 $-1 #
edge $522 $454 0.8749362543913108414 $523 1.374936254391468715 $381 $524 reversed 7 unknown #
edge_name-twe-attrib $-1 $-1 $-1 $383 18 8704 #
vertex $-1 $383 $525 #
straight-curve $-1 0.8333486373313927498 0.7264079439467299171 0 -0.9238795325112862944 0.382683432365091114 0 I I #
point $-1 1.288060233744213301 0.5380602337442177419 0 #
loop_type-twe-attrib $-1 $-1 $-1 $388 1 #
loop $526 $-1 $527 $270 #
coedge $-1 $528 $529 $530 $531 forward $388 $-1 #
coedge $-1 $460 $460 $389 $461 reversed $532 $-1 #
edge $533 $534 1.570796326794896558 $534 7.85398163397448279 $389 $535 forward 7 unknown #
loop $536 $-1 $390 $373 #
edge_name-twe-attrib $-1 $-1 $-1 $391 79 8704 #
vertex $-1 $391 $537 #
ellipse-curve $-1 3 1.5 -1 0 0 1 0.0625 0 0 1 I I #
face_name-twe-attrib $-1 $-1 $-1 $393 50 #
face $538 $539 $540 $3 $-1 $541 reversed single #
loop $542 $-1 $543 $393 #
plane-surface $544 3.5 2 -0.5 0 -1 0 0 0 -1 forward_v I I I I #
loop_type-twe-attrib $-1 $-1 $-1 $394 0 #
coedge $-1 $545 $546 $547 $548 forward $394 $-1 #
surf-twe-attrib $-1 $-1 $-1 $395 359 #
coedge $-1 $549 $397 $550 $551 reversed $330 $-1 #
coedge $-1 $397 $549 $552 $553 reversed $330 $-1 #
coedge $-1 $554 $555 $397 $476 forward $540 $-1 #
edge $556 $557 0.0001000000000000000048 $558 2.000100000000000211 $475 $559 forward 7 unknown #
loop_type-twe-attrib $-1 $-1 $-1 $400 0 #
surf-twe-attrib $-1 $-1 $-1 $401 693 #
coedge $-1 $451 $403 $406 $482 reversed $334 $-1 #
coedge $-1 $403 $451 $428 $500 forward $334 $-1 #
coedge $-1 $406 $405 $450 $521 reversed $274 $-1 #
edge $560 $523 -0.25 $484 -0 $479 $561 reversed 7 unknown #
edge_name-twe-attrib $-1 $-1 $-1 $408 34 4608 #
vertex $-1 $408 $562 #
straight-curve $-1 2.0497211174515515 0.146429771731186098 -0.25 -0.382683432365091114 -0.9238795325112862944 -0 I I #
coedge $-1 $414 $450 $409 $487 forward $218 $-1 #
edge $563 $489 0.002117181288731298083 $417 0.5021171812888991504 $486 $564 reversed 7 unknown #
edge_name-twe-attrib $-1 $-1 $-1 $410 12 8448 #
vertex $-1 $521 $565 #
straight-curve $-1 2.403281482438392125 0.9999999999999946709 -0.25 -0 0 1 I I #
point $-1 2.403281482438392125 0.999999999999994782 -0.25 #
edge_name-twe-attrib $-1 $-1 $-1 $415 22 8704 #
straight-curve $-1 1.526258286715072021 1.745958334549606361 0 0.9238795325112862944 -0.382683432365091114 0 I I #
point $-1 2.211939766255782036 1.461939766255793138 0 #
edge_name-twe-attrib $-1 $-1 $-1 $424 15 8448 #
straight-curve $-1 1.288060233744213079 0.5380602337442178529 -0.25 0 0 1 I I #
surf-twe-attrib $-1 $-1 $-1 $426 719 #
edge_name-twe-attrib $-1 $-1 $-1 $427 35 4608 #
straight-curve $-1 1.350831019510622788 0.1813773121642689445 -0.25 -0.9238795325112862944 -0.382683432365091114 -0 I I #
edge $566 $454 -0.25 $430 -0 $428 $567 reversed 7 unknown #
point $-1 1.750000000000001998 0.346718517561611872 -0.25 #
point $-1 1.8125 1.5 0 #
surf-twe-attrib $-1 $-1 $436 $164 4 #
face_name-twe-attrib $-1 $-1 $-1 $438 27 #
face $568 $569 $570 $3 $-1 $571 reversed single #
loop $572 $573 $574 $438 #
plane-surface $575 2.76184301395927978 1.643750000000000044 -0.625 0 0 1 1 0 0 forward_v I I I I #
loop_type-twe-attrib $-1 $-1 $-1 $439 0 #
coedge $-1 $509 $509 $576 $577 forward $439 $-1 #
surf-twe-attrib $-1 $-1 $-1 $440 50 #
loop_type-twe-attrib $-1 $-1 $-1 $442 1 #
loop $578 $579 $580 $317 #
coedge $-1 $513 $513 $446 $519 forward $442 $-1 #
coedge $-1 $581 $443 $582 $583 reversed $374 $-1 #
coedge $-1 $443 $581 $546 $584 reversed $374 $-1 #
coedge $-1 $585 $586 $443 $517 forward $587 $-1 #
edge $588 $589 -3.5 $590 0 $516 $591 forward 7 unknown #
surf-twe-attrib $-1 $592 $444 $375 48 #
edge $593 $594 0 $594 6.283185307179586232 $513 $595 forward 7 unknown #
point $-1 2.549999999999999822 1 -0.25 #
edge $596 $523 0.6719471271289791936 $489 1.171947127129123967 $450 $597 reversed 7 unknown #
edge_name-twe-attrib $-1 $-1 $-1 $452 19 8704 #
vertex $-1 $452 $598 #
straight-curve $-1 0.9416643023157824643 0.01189490863048869862 0 -0.9238795325112862944 -0.382683432365091114 -0 I I #
point $-1 1.750000000000002442 0.3467185175616120385 0 #
loop_type-twe-attrib $-1 $-1 $-1 $458 1 #
coedge $-1 $599 $600 $601 $602 reversed $458 $-1 #
coedge $-1 $603 $459 $604 $605 forward $388 $-1 #
coedge $-1 $459 $606 $607 $608 forward $388 $-1 #
coedge $-1 $609 $610 $459 $531 reversed $611 $-1 #
edge $612 $613 1.452112861783743547 $614 1.709613861729791573 $459 $615 reversed 7 unknown #
loop $616 $-1 $460 $569 #
edge_name-twe-attrib $-1 $-1 $-1 $461 80 8704 #
vertex $-1 $461 $617 #
ellipse-curve $-1 0.5 1.5 -1 0 0 1 0.0625 0 0 1 I I #
loop_type-twe-attrib $-1 $-1 $-1 $462 1 #
point $-1 3 1.5625 -1 #
face_name-twe-attrib $-1 $-1 $-1 $467 51 #
face $618 $-1 $587 $3 $-1 $619 reversed single #
loop $620 $-1 $555 $467 #
plane-surface $621 3.5 0 -0.5 -1 0 0 0 0 1 forward_v I I I I #
loop_type-twe-attrib $-1 $-1 $-1 $468 0 #
coedge $-1 $552 $622 $554 $623 forward $468 $-1 #
surf-twe-attrib $-1 $-1 $-1 $469 449 #
coedge $-1 $624 $471 $549 $625 forward $394 $-1 #
coedge $-1 $471 $624 $515 $584 forward $394 $-1 #
coedge $-1 $622 $552 $471 $548 reversed $468 $-1 #
edge $626 $627 -0 $628 0.5 $547 $629 reversed 7 unknown #
coedge $-1 $474 $473 $545 $625 reversed $330 $-1 #
coedge $-1 $586 $585 $473 $551 forward $587 $-1 #
edge $630 $631 -1.750175000000000036 $557 1.749824999999999964 $550 $632 forward 7 unknown #
coedge $-1 $547 $543 $474 $553 forward $468 $-1 #
edge $633 $558 0.0001750000000000362377 $628 3.500175000000000036 $552 $634 forward 7 unknown #
coedge $-1 $582 $475 $543 $623 reversed $540 $-1 #
coedge $-1 $475 $582 $586 $635 forward $540 $-1 #
edge_name-twe-attrib $-1 $-1 $-1 $476 102 8704 #
vertex $-1 $551 $636 #
vertex $-1 $476 $637 #
straight-curve $-1 3.5 -0.0001000000000000000048 -1 0 1 -0 I I #
edge_name-twe-attrib $-1 $-1 $-1 $482 13 8448 #
straight-curve $-1 2.211939766255791362 0.5380602337442179639 -0.25 0 0 1 I I #
point $-1 2.211939766255791362 0.5380602337442179639 -0.25 #
edge_name-twe-attrib $-1 $-1 $-1 $487 21 8704 #
straight-curve $-1 2.404091692640902611 0.9980439795407203274 0 0.382683432365091114 -0.9238795325112862944 0 I I #
point $-1 2.403281482438391681 0.999999999999995004 0 #
edge_name-twe-attrib $-1 $-1 $-1 $500 14 8448 #
straight-curve $-1 1.750000000000001998 0.3467185175616118165 -0.25 0 0 1 I I #
face_name-twe-attrib $-1 $-1 $-1 $505 28 #
face $638 $639 $640 $3 $-1 $641 reversed single #
loop $642 $643 $644 $505 #
cone-surface $645 3 1.5 -0.499900000000000011 0 0 -1 0.125 0 0 1 I I 0 1 0.125 forward I I I I #
loop_type-twe-attrib $-1 $-1 $-1 $506 0 #
loop $646 $-1 $576 $438 #
coedge $-1 $574 $574 $644 $647 reversed $506 $-1 #
surf-twe-attrib $-1 $648 $-1 $507 233 #
coedge $-1 $576 $576 $509 $577 reversed $573 $-1 #
edge $649 $650 1.570796326794896558 $650 7.85398163397448279 $576 $651 forward 7 unknown #
loop_type-twe-attrib $-1 $-1 $-1 $512 1 #
loop $652 $653 $654 $317 #
coedge $-1 $580 $580 $655 $656 forward $512 $-1 #
coedge $-1 $515 $514 $622 $657 reversed $374 $-1 #
coedge $-1 $555 $554 $514 $583 forward $540 $-1 #
edge $658 $659 -2 $589 1.355252715606879941e-20 $582 $660 forward 7 unknown #
edge $661 $590 -1 $627 1 $546 $662 forward 7 unknown #
coedge $-1 $550 $516 $624 $663 forward $587 $-1 #
coedge $-1 $516 $550 $555 $635 reversed $587 $-1 #
loop $664 $-1 $585 $539 #
edge_name-twe-attrib $-1 $-1 $-1 $517 108 8704 #
vertex $-1 $635 $665 #
vertex $-1 $663 $666 #
straight-curve $-1 0 0 -0.5 -1 0 0 I I #
surf-twe-attrib $-1 $667 $518 $375 73 #
edge_name-twe-attrib $-1 $-1 $-1 $519 39 4608 #
vertex $-1 $519 $668 #
ellipse-curve $-1 1.75 1 -0.5 0 0 -1 0.8000000000000000444 0 0 1 I I #
edge_name-twe-attrib $-1 $-1 $-1 $521 20 8704 #
straight-curve $-1 1.95479673327821124 -0.08273796394000509924 0 -0.382683432365091114 -0.9238795325112862944 -0 I I #
point $-1 2.211939766255791362 0.5380602337442179639 0 #
coedge $-1 $669 $527 $670 $671 forward $458 $-1 #
coedge $-1 $527 $672 $673 $674 forward $458 $-1 #
coedge $-1 $675 $676 $527 $602 forward $677 $-1 #
edge $678 $679 -0.2982370488092898064 $680 -0.04073604886324000418 $527 $681 reversed 7 unknown #
coedge $-1 $682 $528 $683 $684 forward $388 $-1 #
coedge $-1 $685 $686 $528 $605 reversed $687 $-1 #
edge $688 $614 1.570796326794896558 $689 3.141592653589793116 $528 $690 forward 7 unknown #
coedge $-1 $529 $691 $692 $693 forward $388 $-1 #
coedge $-1 $694 $695 $529 $608 reversed $696 $-1 #
edge $697 $698 0 $613 1.570796326794896558 $529 $699 forward 7 unknown #
coedge $-1 $700 $530 $695 $701 reversed $611 $-1 #
coedge $-1 $530 $700 $685 $702 forward $611 $-1 #
loop $703 $-1 $609 $704 #
edge_name-twe-attrib $-1 $-1 $-1 $531 81 8704 #
vertex $-1 $531 $705 #
vertex $-1 $531 $706 #
straight-curve $-1 2.048237138216256525 0.653826915272021969 -1 1 0 -0 I I #
loop_type-twe-attrib $-1 $-1 $-1 $532 1 #
point $-1 0.5 1.5625 -1 #
face_name-twe-attrib $-1 $-1 $-1 $539 52 #
plane-surface $707 0 0 -0.5 0 1 0 0 0 1 forward_v I I I I #
loop_type-twe-attrib $-1 $-1 $-1 $540 0 #
surf-twe-attrib $-1 $-1 $-1 $541 353 #
coedge $-1 $543 $547 $581 $657 forward $468 $-1 #
edge $708 $659 -0 $558 0.5 $554 $709 reversed 7 unknown #
coedge $-1 $546 $545 $585 $663 reversed $394 $-1 #
edge $710 $628 -1.000099999999999989 $631 0.999900000000000011 $545 $711 forward 7 unknown #
edge_name-twe-attrib $-1 $-1 $-1 $548 100 8704 #
vertex $-1 $548 $712 #
vertex $-1 $553 $713 #
straight-curve $-1 0 2 -0.5 -0 0 1 I I #
edge_name-twe-attrib $-1 $-1 $-1 $551 106 8704 #
vertex $-1 $663 $714 #
straight-curve $-1 1.750175000000000036 0 -1 1 0 0 I I #
edge_name-twe-attrib $-1 $-1 $-1 $553 99 8704 #
straight-curve $-1 3.500175000000000036 2 -1 -1 0 0 I I #
edge $715 $589 -0 $557 0.5 $586 $716 reversed 7 unknown #
point $-1 3.5 0 -1 #
point $-1 3.5 2 -1 #
face_name-twe-attrib $-1 $-1 $-1 $569 29 #
face $717 $718 $719 $3 $-1 $720 forward single #
loop $721 $532 $722 $569 #
cone-surface $723 0.5 1.5 -0.625 0 0 -1 0.0625 0 0 1 I I 0 1 0.0625 forward I I I I #
loop_type-twe-attrib $-1 $-1 $-1 $570 0 #
loop $724 $-1 $655 $505 #
coedge $-1 $644 $644 $574 $647 forward $570 $-1 #
surf-twe-attrib $-1 $-1 $-1 $571 119 #
loop_type-twe-attrib $-1 $-1 $-1 $573 1 #
edge $725 $726 -1.570796326794896558 $726 4.712388980384689674 $644 $727 forward 7 unknown #
surf-twe-attrib $-1 $-1 $575 $507 79 #
edge_name-twe-attrib $-1 $-1 $-1 $577 40 8704 #
vertex $-1 $577 $728 #
ellipse-curve $-1 3 1.5 -0.625 0 0 1 0.0625 0 0 1 I I #
loop_type-twe-attrib $-1 $-1 $-1 $579 1 #
loop $729 $730 $731 $317 #
coedge $-1 $654 $654 $732 $733 forward $579 $-1 #
coedge $-1 $655 $655 $580 $656 reversed $643 $-1 #
edge $734 $735 -7.85398163397448279 $735 -1.570796326794896558 $655 $736 reversed 7 unknown #
edge $737 $627 -1.75 $659 1.75 $622 $738 forward 7 unknown #
edge_name-twe-attrib $-1 $-1 $-1 $583 104 8704 #
vertex $-1 $623 $739 #
straight-curve $-1 3.5 1.355252715606879941e-20 -0.5 -0 -1 -0 I I #
edge_name-twe-attrib $-1 $-1 $-1 $584 98 8704 #
straight-curve $-1 0 1 -0.5 -0 1 0 I I #
edge $740 $590 0 $631 0.5 $585 $741 forward 7 unknown #
loop_type-twe-attrib $-1 $-1 $-1 $587 0 #
point $-1 3.5 0 -0.5 #
point $-1 0 0 -0.5 #
surf-twe-attrib $-1 $742 $592 $375 54 #
point $-1 2.549999999999999822 1 -0.5 #
coedge $-1 $743 $599 $744 $745 forward $458 $-1 #
coedge $-1 $746 $747 $599 $671 reversed $748 $-1 #
edge $749 $679 1.570796326794896558 $750 3.141592653589796669 $599 $751 forward 7 unknown #
coedge $-1 $600 $752 $753 $754 reversed $458 $-1 #
coedge $-1 $755 $756 $600 $674 reversed $757 $-1 #
edge $758 $759 0 $680 1.570796326794896558 $600 $760 forward 7 unknown #
coedge $-1 $761 $601 $756 $762 reversed $677 $-1 #
coedge $-1 $601 $761 $746 $763 forward $677 $-1 #
loop $764 $-1 $601 $765 #
edge_name-twe-attrib $-1 $-1 $-1 $602 89 8704 #
vertex $-1 $602 $766 #
vertex $-1 $602 $767 #
straight-curve $-1 3.202112951190709822 0.653826915272021969 -1 -1 0 0 I I #
coedge $-1 $768 $603 $769 $770 forward $388 $-1 #
coedge $-1 $771 $772 $603 $684 reversed $773 $-1 #
edge $774 $689 -0.2957634576360119727 $775 0.01673654448868000522 $603 $776 reversed 7 unknown #
coedge $-1 $777 $604 $610 $702 reversed $687 $-1 #
coedge $-1 $604 $777 $771 $778 forward $687 $-1 #
loop $779 $-1 $685 $780 #
edge_name-twe-attrib $-1 $-1 $-1 $605 82 8704 #
vertex $-1 $605 $781 #
ellipse-curve $-1 0.338623276486465008 0.5913269152720229682 -1 0 0 1 0.0625 0 0 1 I I #
coedge $-1 $606 $768 $782 $783 forward $388 $-1 #
coedge $-1 $784 $785 $606 $693 reversed $786 $-1 #
edge $787 $788 1.570796326794896558 $698 3.141592653589793116 $606 $789 reversed 7 unknown #
coedge $-1 $790 $607 $785 $791 reversed $696 $-1 #
coedge $-1 $607 $790 $609 $701 forward $696 $-1 #
loop $792 $-1 $694 $793 #
edge_name-twe-attrib $-1 $-1 $-1 $608 88 8704 #
vertex $-1 $693 $794 #
ellipse-curve $-1 0.5961242764325129784 0.591326915272021969 -1 0 0 1 0.0625 0 0 1 I I #
coedge $-1 $610 $609 $731 $795 reversed $611 $-1 #
edge $796 $797 0 $613 0.5 $695 $798 forward 7 unknown #
edge $799 $800 0 $614 0.5 $610 $801 forward 7 unknown #
loop_type-twe-attrib $-1 $-1 $-1 $611 0 #
face $802 $793 $611 $3 $-1 $803 forward single #
point $-1 0.5961242764325129784 0.653826915272021969 -1 #
point $-1 0.338623276486465008 0.653826915272021969 -1 #
surf-twe-attrib $-1 $-1 $-1 $619 275 #
edge_name-twe-attrib $-1 $-1 $-1 $623 103 8704 #
straight-curve $-1 3.5 2 -0.5 0 0 1 I I #
edge_name-twe-attrib $-1 $-1 $-1 $625 97 8704 #
straight-curve $-1 0 0.999900000000000011 -1 0 -1 0 I I #
point $-1 0 2 -0.5 #
point $-1 0 2 -1 #
point $-1 0 0 -1 #
edge_name-twe-attrib $-1 $-1 $-1 $635 107 8704 #
straight-curve $-1 3.5 0 -0.5 0 -0 1 I I #
face_name-twe-attrib $-1 $-1 $-1 $639 30 #
face $804 $805 $806 $3 $-1 $807 reversed single #
loop $808 $809 $810 $639 #
plane-surface $811 0.2618430139592790029 1.643750000000000044 -0.625 0 0 1 1 0 0 forward_v I I I I #
loop_type-twe-attrib $-1 $-1 $-1 $640 0 #
coedge $-1 $722 $722 $812 $813 forward $640 $-1 #
surf-twe-attrib $-1 $-1 $-1 $641 170 #
loop_type-twe-attrib $-1 $-1 $-1 $643 1 #
edge_name-twe-attrib $-1 $-1 $-1 $647 41 4608 #
vertex $-1 $647 $814 #
ellipse-curve $-1 3 1.5 -0.625 -0 -0 -1 0.125 0 0 1 I I #
point $-1 3 1.5625 -0.625 #
loop_type-twe-attrib $-1 $-1 $-1 $653 1 #
loop $815 $-1 $816 $317 #
coedge $-1 $817 $818 $700 $795 forward $653 $-1 #
coedge $-1 $732 $732 $654 $733 reversed $819 $-1 #
edge $820 $821 -7.85398163397448279 $821 -1.570796326794896558 $732 $822 reversed 7 unknown #
edge_name-twe-attrib $-1 $-1 $-1 $656 42 8704 #
vertex $-1 $656 $823 #
ellipse-curve $-1 3 1.5 -0.5 -0 -0 1 0.125 0 0 1 I I #
edge_name-twe-attrib $-1 $-1 $-1 $657 101 8704 #
straight-curve $-1 1.75 2 -0.5 1 0 0 I I #
point $-1 3.5 2 -0.5 #
edge_name-twe-attrib $-1 $-1 $-1 $663 105 8704 #
straight-curve $-1 0 0 -0.5 0 0 -1 I I #
surf-twe-attrib $-1 $824 $667 $375 18 #
coedge $-1 $825 $669 $826 $827 forward $458 $-1 #
coedge $-1 $828 $829 $669 $745 reversed $830 $-1 #
edge $831 $750 -3.108624468279594944e-15 $832 1.570796326794896558 $669 $833 reversed 7 unknown #
coedge $-1 $834 $670 $676 $763 reversed $748 $-1 #
coedge $-1 $670 $834 $828 $835 forward $748 $-1 #
loop $836 $-1 $670 $837 #
edge_name-twe-attrib $-1 $-1 $-1 $671 90 8704 #
vertex $-1 $671 $838 #
ellipse-curve $-1 2.903875902381420016 0.5913269152720229682 -1 0 0 1 0.0625 0 0 1 I I #
coedge $-1 $672 $825 $839 $840 forward $458 $-1 #
coedge $-1 $841 $842 $672 $754 forward $843 $-1 #
edge $844 $759 -0.2957634576360119727 $845 0.01673654448867900602 $672 $846 reversed 7 unknown #
coedge $-1 $847 $673 $842 $848 reversed $757 $-1 #
coedge $-1 $673 $847 $675 $762 forward $757 $-1 #
loop $849 $-1 $673 $850 #
edge_name-twe-attrib $-1 $-1 $-1 $674 96 8704 #
vertex $-1 $754 $851 #
ellipse-curve $-1 3.161376902327469818 0.5913269152720229682 -1 0 0 1 0.0625 0 0 1 I I #
coedge $-1 $676 $675 $816 $852 forward $677 $-1 #
edge $853 $854 0 $680 0.5 $675 $855 forward 7 unknown #
edge $856 $857 0 $679 0.5 $746 $858 forward 7 unknown #
loop_type-twe-attrib $-1 $-1 $-1 $677 0 #
face $859 $837 $677 $3 $-1 $860 reversed single #
point $-1 2.903875902381420016 0.653826915272021969 -1 #
point $-1 3.161376902327469818 0.653826915272021969 -1 #
coedge $-1 $691 $682 $861 $862 forward $388 $-1 #
coedge $-1 $863 $864 $682 $770 reversed $865 $-1 #
edge $866 $775 -3.141592653589793116 $867 -1.570796326794896558 $682 $868 forward 7 unknown #
coedge $-1 $869 $683 $686 $778 reversed $773 $-1 #
coedge $-1 $683 $869 $863 $870 forward $773 $-1 #
loop $871 $-1 $771 $872 #
edge_name-twe-attrib $-1 $-1 $-1 $684 83 8704 #
vertex $-1 $684 $873 #
straight-curve $-1 0.2761232764864649525 0.2955634576360109955 -1 0 1 0 I I #
coedge $-1 $686 $685 $818 $874 reversed $687 $-1 #
edge $875 $876 0 $689 0.5 $686 $877 forward 7 unknown #
loop_type-twe-attrib $-1 $-1 $-1 $687 0 #
face $878 $704 $687 $3 $-1 $879 reversed single #
point $-1 0.276123276486465008 0.5913269152720229682 -1 #
coedge $-1 $880 $881 $691 $783 reversed $882 $-1 #
edge $883 $884 -1.570796326794896558 $788 1.570796326794896558 $691 $885 forward 7 unknown #
coedge $-1 $886 $692 $881 $887 reversed $786 $-1 #
coedge $-1 $692 $886 $694 $791 forward $786 $-1 #
loop $888 $-1 $784 $889 #
edge_name-twe-attrib $-1 $-1 $-1 $693 87 8704 #
vertex $-1 $783 $890 #
ellipse-curve $-1 0.9086242764864650434 0.591326915272021969 -1 0 0 1 0.2500000000539520095 0 0 1 I I #
coedge $-1 $695 $694 $817 $891 reversed $696 $-1 #
edge $892 $893 0 $698 0.5 $785 $894 forward 7 unknown #
loop_type-twe-attrib $-1 $-1 $-1 $696 0 #
face $895 $889 $696 $3 $-1 $896 reversed single #
point $-1 0.6586242764325129784 0.591326915272021969 -1 #
edge $897 $800 0.04056113827020851881 $797 0.2980621382162564892 $700 $898 forward 7 unknown #
edge_name-twe-attrib $-1 $-1 $-1 $701 54 20480 #
vertex $-1 $891 $899 #
straight-curve $-1 0.5961242764325129784 0.653826915272021969 -0.5 0 0 -1 I I #
edge_name-twe-attrib $-1 $-1 $-1 $702 52 20480 #
vertex $-1 $795 $900 #
straight-curve $-1 0.338623276486465008 0.653826915272021969 -0.5 0 0 -1 I I #
face_name-twe-attrib $-1 $-1 $-1 $704 35 #
plane-surface $901 0.5961242764325129784 0.653826915272021969 -0.5 0 -1 0 0 0 -1 forward_v I I I I #
face_name-twe-attrib $-1 $-1 $-1 $718 31 #
face $902 $872 $865 $3 $-1 $903 reversed single #
loop $904 $819 $905 $718 #
cone-surface $906 0.5 1.5 -0.499900000000000011 0 0 -1 0.125 0 0 1 I I 0 1 0.125 forward I I I I #
loop_type-twe-attrib $-1 $-1 $-1 $719 0 #
loop $907 $-1 $812 $639 #
coedge $-1 $810 $810 $905 $908 reversed $719 $-1 #
surf-twe-attrib $-1 $909 $-1 $720 233 #
coedge $-1 $812 $812 $722 $813 reversed $809 $-1 #
edge $910 $911 1.570796326794896558 $911 7.85398163397448279 $812 $912 forward 7 unknown #
point $-1 3 1.625 -0.625 #
loop_type-twe-attrib $-1 $-1 $-1 $730 1 #
coedge $-1 $913 $914 $761 $852 reversed $730 $-1 #
coedge $-1 $915 $731 $790 $891 forward $653 $-1 #
coedge $-1 $731 $916 $777 $874 forward $653 $-1 #
loop $917 $-1 $732 $718 #
edge_name-twe-attrib $-1 $-1 $-1 $733 45 8704 #
vertex $-1 $733 $918 #
ellipse-curve $-1 0.5 1.5 -0.5 -0 -0 1 0.125 0 0 1 I I #
point $-1 3 1.625 -0.5 #
surf-twe-attrib $-1 $-1 $742 $375 4 #
coedge $-1 $752 $743 $919 $920 reversed $458 $-1 #
coedge $-1 $921 $922 $743 $827 reversed $923 $-1 #
edge $924 $832 1.570796326794896558 $925 4.712388980384689674 $743 $926 forward 7 unknown #
coedge $-1 $927 $744 $747 $835 reversed $830 $-1 #
coedge $-1 $744 $927 $921 $928 forward $830 $-1 #
loop $929 $-1 $744 $930 #
edge_name-twe-attrib $-1 $-1 $-1 $745 91 8704 #
vertex $-1 $745 $931 #
ellipse-curve $-1 2.591375902327469838 0.591326915272021969 -1 0 0 1 0.2500000000539520095 0 0 1 I I #
coedge $-1 $747 $746 $914 $932 reversed $748 $-1 #
edge $933 $934 0 $750 0.5 $828 $935 forward 7 unknown #
loop_type-twe-attrib $-1 $-1 $-1 $748 0 #
face $936 $930 $748 $3 $-1 $937 reversed single #
point $-1 2.841375902381420016 0.5913269152720227462 -1 #
coedge $-1 $938 $939 $752 $840 reversed $940 $-1 #
edge $941 $942 -1.570796326794896558 $845 0 $752 $943 forward 7 unknown #
coedge $-1 $944 $753 $939 $945 reversed $843 $-1 #
coedge $-1 $753 $944 $755 $848 forward $843 $-1 #
loop $946 $-1 $753 $947 #
edge_name-twe-attrib $-1 $-1 $-1 $754 95 8704 #
vertex $-1 $840 $948 #
straight-curve $-1 3.223876902327469818 0.2955634576360109955 -1 0 1 0 I I #
coedge $-1 $756 $755 $913 $949 reversed $757 $-1 #
edge $950 $951 0 $759 0.5 $755 $952 forward 7 unknown #
loop_type-twe-attrib $-1 $-1 $-1 $757 0 #
face $953 $765 $757 $3 $-1 $954 reversed single #
point $-1 3.223876902327469818 0.5913269152720229682 -1 #
edge $955 $854 -1.70943895113675981 $857 -1.451937951190710008 $761 $956 forward 7 unknown #
edge_name-twe-attrib $-1 $-1 $-1 $762 67 20480 #
vertex $-1 $762 $957 #
straight-curve $-1 3.161376902327469818 0.653826915272021969 -0.5 0 0 -1 I I #
edge_name-twe-attrib $-1 $-1 $-1 $763 69 20480 #
vertex $-1 $763 $958 #
straight-curve $-1 2.903875902381420016 0.653826915272021969 -0.5 0 0 -1 I I #
face_name-twe-attrib $-1 $-1 $-1 $765 43 #
plane-surface $959 2.903875902381420016 0.653826915272021969 -0.5 0 1 0 0 0 1 forward_v I I I I #
coedge $-1 $960 $961 $768 $862 reversed $962 $-1 #
edge $963 $867 -1.580863360923653538 $884 -1.01086236175676758 $768 $964 reversed 7 unknown #
coedge $-1 $965 $769 $772 $870 reversed $865 $-1 #
coedge $-1 $769 $965 $960 $966 forward $865 $-1 #
loop $967 $-1 $863 $805 #
edge_name-twe-attrib $-1 $-1 $-1 $770 84 8704 #
vertex $-1 $770 $968 #
ellipse-curve $-1 0.3386232773195789747 0.2788269131473309903 -1 0 0 1 0.0625 0 0 1 I I #
coedge $-1 $772 $771 $916 $969 reversed $773 $-1 #
edge $970 $971 0 $775 0.5 $772 $972 forward 7 unknown #
loop_type-twe-attrib $-1 $-1 $-1 $773 0 #
face $973 $780 $773 $3 $-1 $974 forward single #
point $-1 0.276123276486465008 0.2788269131473309903 -1 #
edge $975 $876 -3.141592653589793116 $800 -1.570796326794896558 $777 $976 reversed 7 unknown #
edge_name-twe-attrib $-1 $-1 $-1 $778 50 20480 #
vertex $-1 $874 $977 #
straight-curve $-1 0.276123276486465008 0.5913269152720229682 -0.5 0 0 -1 I I #
face_name-twe-attrib $-1 $-1 $-1 $780 34 #
cone-surface $978 0.338623276486465008 0.5913269152720229682 -0.5 0 0 -1 0.0625 0 0 1 I I 0 1 0.06249999999999990286 forward I I I I #
coedge $-1 $979 $782 $961 $980 reversed $882 $-1 #
coedge $-1 $782 $979 $784 $887 forward $882 $-1 #
loop $981 $-1 $880 $982 #
edge_name-twe-attrib $-1 $-1 $-1 $783 86 8704 #
vertex $-1 $862 $983 #
ellipse-curve $-1 0.9086242764864650434 0.2788269137661439911 -1 0 0 1 0.0625 0 0 1 I I #
coedge $-1 $785 $784 $915 $984 reversed $786 $-1 #
edge $985 $986 0 $788 0.5 $881 $987 forward 7 unknown #
loop_type-twe-attrib $-1 $-1 $-1 $786 0 #
face $988 $982 $786 $3 $-1 $989 forward single #
point $-1 0.9086242764864650434 0.3413269137661439911 -1 #
edge $990 $797 -1.570796326794896558 $893 -0 $790 $991 reversed 7 unknown #
edge_name-twe-attrib $-1 $-1 $-1 $791 56 24576 #
vertex $-1 $984 $992 #
straight-curve $-1 0.6586242764325129784 0.591326915272021969 -0.5 0 0 -1 I I #
face_name-twe-attrib $-1 $-1 $-1 $793 36 #
cone-surface $993 0.5961242764325129784 0.591326915272021969 -0.5 0 0 -1 0.0625 0 0 1 I I 0 1 0.0625 forward I I I I #
edge_name-twe-attrib $-1 $-1 $-1 $795 51 8704 #
straight-curve $-1 0.2980621382162564892 0.653826915272021969 -0.5 1 0 0 I I #
point $-1 0.5961242764325129784 0.653826915272021969 -0.5 #
point $-1 0.338623276486465008 0.653826915272021969 -0.5 #
surf-twe-attrib $-1 $994 $-1 $803 770 #
face_name-twe-attrib $-1 $-1 $-1 $805 32 #
cone-surface $995 0.3386232773195789747 0.2788269131473309903 -0.5 0 0 -1 0.0625 0 0 1 I I 0 1 0.06250000083311380017 forward I I I I #
loop_type-twe-attrib $-1 $-1 $-1 $806 0 #
coedge $-1 $905 $905 $810 $908 forward $806 $-1 #
surf-twe-attrib $-1 $-1 $-1 $807 316 #
loop_type-twe-attrib $-1 $-1 $-1 $809 1 #
edge $996 $997 -1.570796326794896558 $997 4.712388980384689674 $905 $998 forward 7 unknown #
surf-twe-attrib $-1 $-1 $811 $720 79 #
edge_name-twe-attrib $-1 $-1 $-1 $813 43 8704 #
vertex $-1 $813 $999 #
ellipse-curve $-1 0.5 1.5 -0.625 0 0 1 0.0625 0 0 1 I I #
coedge $-1 $1000 $816 $847 $949 forward $730 $-1 #
coedge $-1 $816 $1001 $834 $932 forward $730 $-1 #
coedge $-1 $1002 $817 $886 $984 forward $653 $-1 #
coedge $-1 $818 $1003 $869 $969 forward $653 $-1 #
loop_type-twe-attrib $-1 $-1 $-1 $819 1 #
point $-1 0.5 1.625 -0.5 #
coedge $-1 $1004 $1005 $825 $920 forward $1006 $-1 #
edge $1007 $942 0.1694865496693749307 $925 0.7394875488362648852 $825 $1008 reversed 7 unknown #
coedge $-1 $1009 $826 $829 $928 reversed $923 $-1 #
coedge $-1 $826 $1009 $1004 $1010 forward $923 $-1 #
loop $1011 $-1 $826 $1012 #
edge_name-twe-attrib $-1 $-1 $-1 $827 92 8704 #
vertex $-1 $827 $1013 #
ellipse-curve $-1 2.591375902327469838 0.2788269137661429919 -1 0 0 1 0.0625000014519259961 0 0 1 I I #
coedge $-1 $829 $828 $1001 $1014 reversed $830 $-1 #
edge $1015 $1016 0 $832 0.5 $921 $1017 forward 7 unknown #
loop_type-twe-attrib $-1 $-1 $-1 $830 0 #
face $1018 $1012 $830 $3 $-1 $1019 forward single #
point $-1 2.591375902327469838 0.3413269152180699595 -1 #
edge $1020 $934 -3.141592653589796669 $857 -1.570796326794896558 $834 $1021 reversed 7 unknown #
edge_name-twe-attrib $-1 $-1 $-1 $835 71 24576 #
vertex $-1 $835 $1022 #
straight-curve $-1 2.84137590238142046 0.5913269152720227462 -0.5 0 0 -1 I I #
face_name-twe-attrib $-1 $-1 $-1 $837 44 #
cone-surface $1023 2.903875902381420016 0.5913269152720229682 -0.5 0 0 -1 0.0625 0 0 1 I I 0 1 0.06249999999999970163 forward I I I I #
coedge $-1 $1024 $839 $1005 $1025 reversed $940 $-1 #
coedge $-1 $839 $1024 $841 $945 forward $940 $-1 #
loop $1026 $-1 $839 $1027 #
edge_name-twe-attrib $-1 $-1 $-1 $840 94 8704 #
vertex $-1 $920 $1028 #
ellipse-curve $-1 3.161376901494359792 0.2788269131473319895 -1 0 0 1 0.0625 0 0 1 I I #
coedge $-1 $842 $841 $1000 $1029 forward $843 $-1 #
edge $1030 $1031 0 $845 0.5 $841 $1032 forward 7 unknown #
loop_type-twe-attrib $-1 $-1 $-1 $843 0 #
face $1033 $850 $843 $3 $-1 $1034 reversed single #
point $-1 3.223876901494359792 0.2788269131473319895 -1 #
edge $1035 $854 -1.570796326794896558 $951 -0 $847 $1036 reversed 7 unknown #
edge_name-twe-attrib $-1 $-1 $-1 $848 65 20480 #
vertex $-1 $848 $1037 #
straight-curve $-1 3.223876902327469818 0.5913269152720229682 -0.5 0 0 -1 I I #
face_name-twe-attrib $-1 $-1 $-1 $850 42 #
cone-surface $1038 3.161376902327469818 0.5913269152720229682 -0.5 0 0 -1 0.0625 0 0 1 I I 0 1 0.06249999999999990286 forward I I I I #
edge_name-twe-attrib $-1 $-1 $-1 $852 68 8704 #
straight-curve $-1 1.451937951190710008 0.653826915272021969 -0.5 -1 0 0 I I #
point $-1 3.161376902327469818 0.653826915272021969 -0.5 #
point $-1 2.903875902381420016 0.6538269152720229682 -0.5 #
surf-twe-attrib $-1 $1039 $-1 $860 770 #
coedge $-1 $1040 $861 $864 $966 reversed $962 $-1 #
coedge $-1 $861 $1040 $880 $980 forward $962 $-1 #
loop $1041 $-1 $960 $1042 #
edge_name-twe-attrib $-1 $-1 $-1 $862 85 8704 #
straight-curve $-1 1.919486638243232512 0.216326912314217995 -1 -1 0 0 I I #
coedge $-1 $864 $863 $1003 $1043 reversed $865 $-1 #
edge $1044 $1045 0 $867 0.5 $960 $1046 forward 7 unknown #
loop_type-twe-attrib $-1 $-1 $-1 $865 0 #
point $-1 0.3386232773195789747 0.2163269131473309903 -1 #
edge $1047 $971 -0.0168365444886799942 $876 0.2956634576360119837 $869 $1048 forward 7 unknown #
edge_name-twe-attrib $-1 $-1 $-1 $870 48 20480 #
vertex $-1 $969 $1049 #
straight-curve $-1 0.276123276486465008 0.2788269131473309903 -0.5 0 0 -1 I I #
face_name-twe-attrib $-1 $-1 $-1 $872 33 #
plane-surface $1050 0.276123276486465008 0.591326915272021969 -0.5 1 0 0 0 0 -1 forward_v I I I I #
edge_name-twe-attrib $-1 $-1 $-1 $874 49 8704 #
ellipse-curve $-1 0.338623276486465008 0.5913269152720229682 -0.5 -0 -0 1 0.0625 0 0 1 I I #
point $-1 0.276123276486465008 0.5913269152720229682 -0.5 #
surf-twe-attrib $-1 $-1 $-1 $879 624 #
coedge $-1 $881 $880 $1002 $1051 reversed $882 $-1 #
edge $1052 $1053 0 $884 0.5 $961 $1054 forward 7 unknown #
loop_type-twe-attrib $-1 $-1 $-1 $882 0 #
face $1055 $1042 $882 $3 $-1 $1056 reversed single #
point $-1 0.9086242764864650434 0.216326912314217995 -1 #
edge $1057 $893 -3.141592653589793116 $986 -1.570796326794896558 $886 $1058 forward 7 unknown #
edge_name-twe-attrib $-1 $-1 $-1 $887 58 24576 #
vertex $-1 $1051 $1059 #
straight-curve $-1 0.9086242764864650434 0.3413269140565291515 -0.5 0 0 -1 I I #
face_name-twe-attrib $-1 $-1 $-1 $889 37 #
cone-surface $1060 0.9086242764864650434 0.591326915272021969 -0.5 0 0 -1 0.2500000000539520095 0 0 1 I I 0 1 0.2500000000539520095 forward I I I I #
edge_name-twe-attrib $-1 $-1 $-1 $891 53 8704 #
ellipse-curve $-1 0.5961242764325129784 0.591326915272021969 -0.5 -0 -0 1 0.0625 0 0 1 I I #
point $-1 0.6586242764325129784 0.591326915272021969 -0.5 #
surf-twe-attrib $-1 $-1 $-1 $896 786 #
surf-twe-attrib $-1 $-1 $901 $803 677 #
surf-twe-attrib $-1 $-1 $-1 $903 414 #
edge_name-twe-attrib $-1 $-1 $-1 $908 44 4608 #
vertex $-1 $908 $1061 #
ellipse-curve $-1 0.5 1.5 -0.625 -0 -0 -1 0.125 0 0 1 I I #
point $-1 0.5 1.5625 -0.625 #
coedge $-1 $1062 $913 $944 $1029 reversed $730 $-1 #
coedge $-1 $914 $1063 $927 $1014 forward $730 $-1 #
coedge $-1 $1064 $915 $979 $1051 forward $653 $-1 #
coedge $-1 $916 $1064 $965 $1043 forward $653 $-1 #
coedge $-1 $1065 $919 $922 $1010 reversed $1006 $-1 #
coedge $-1 $919 $1065 $938 $1025 forward $1006 $-1 #
loop $1066 $-1 $919 $1067 #
edge_name-twe-attrib $-1 $-1 $-1 $920 93 8704 #
straight-curve $-1 3.330863451163734723 0.216326912314217995 -1 1 0 -0 I I #
coedge $-1 $922 $921 $1063 $1068 reversed $923 $-1 #
edge $1069 $1070 0 $925 0.5 $1004 $1071 forward 7 unknown #
loop_type-twe-attrib $-1 $-1 $-1 $923 0 #
face $1072 $1067 $923 $3 $-1 $1073 reversed single #
point $-1 2.591375902327469838 0.2163269123142169958 -1 #
edge $1074 $1016 -1.570796326794896558 $934 3.108624468279572856e-15 $927 $1075 forward 7 unknown #
edge_name-twe-attrib $-1 $-1 $-1 $928 73 24576 #
vertex $-1 $928 $1076 #
straight-curve $-1 2.591375902327469838 0.3413269152180691823 -0.5 0 0 -1 I I #
face_name-twe-attrib $-1 $-1 $-1 $930 45 #
cone-surface $1077 2.591375902327469838 0.591326915272021969 -0.5 0 0 -1 0.2500000000539520095 0 0 1 I I 0 1 0.2500000000539520095 forward I I I I #
edge_name-twe-attrib $-1 $-1 $-1 $932 70 8704 #
ellipse-curve $-1 2.903875902381420016 0.5913269152720229682 -0.5 -0 -0 1 0.0625 0 0 1 I I #
point $-1 2.841375902381421792 0.5913269152720227462 -0.5 #
surf-twe-attrib $-1 $-1 $-1 $937 898 #
coedge $-1 $939 $938 $1062 $1078 reversed $940 $-1 #
edge $1079 $1080 0 $942 0.5 $1005 $1081 forward 7 unknown #
loop_type-twe-attrib $-1 $-1 $-1 $940 0 #
face $1082 $947 $940 $3 $-1 $1083 reversed single #
point $-1 3.161376901494359792 0.216326912314217995 -1 #
edge $1084 $1031 -0.016836544488678995 $951 0.2956634576360119837 $944 $1085 forward 7 unknown #
edge_name-twe-attrib $-1 $-1 $-1 $945 63 20480 #
vertex $-1 $945 $1086 #
straight-curve $-1 3.223876902327469818 0.2788269131473319895 -0.5 0 0 -1 I I #
face_name-twe-attrib $-1 $-1 $-1 $947 41 #
plane-surface $1087 3.223876902327469818 0.591326915272021969 -0.5 1 0 0 0 0 -1 forward_v I I I I #
edge_name-twe-attrib $-1 $-1 $-1 $949 66 8704 #
ellipse-curve $-1 3.161376902327469818 0.5913269152720229682 -0.5 -0 -0 1 0.0625 0 0 1 I I #
point $-1 3.223876902327469818 0.5913269152720229682 -0.5 #
surf-twe-attrib $-1 $-1 $-1 $954 884 #
surf-twe-attrib $-1 $-1 $959 $860 677 #
coedge $-1 $961 $960 $1064 $1088 reversed $962 $-1 #
loop_type-twe-attrib $-1 $-1 $-1 $962 0 #
face $1089 $1027 $962 $3 $-1 $1090 forward single #
edge $1091 $1045 1.570796326794896558 $971 3.141592653589793116 $965 $1092 reversed 7 unknown #
edge_name-twe-attrib $-1 $-1 $-1 $966 59 20480 #
vertex $-1 $966 $1093 #
straight-curve $-1 0.3386232773195789747 0.216326912314217995 -0.5 0 0 -1 I I #
edge_name-twe-attrib $-1 $-1 $-1 $969 47 8704 #
straight-curve $-1 0.276123276486465008 0.2956634576360109845 -0.5 -0 1 0 I I #
point $-1 0.276123276486465008 0.2788269131473309903 -0.5 #
surf-twe-attrib $-1 $-1 $-1 $974 520 #
edge $1094 $986 -1.570796326794896558 $1053 1.570796326794896558 $979 $1095 reversed 7 unknown #
edge_name-twe-attrib $-1 $-1 $-1 $980 61 20480 #
vertex $-1 $1088 $1096 #
straight-curve $-1 0.9086242764864650434 0.216326912314217995 -0.5 0 0 -1 I I #
face_name-twe-attrib $-1 $-1 $-1 $982 38 #
cone-surface $1097 0.9086242764864650434 0.2788269137661439911 -0.5 0 0 -1 0.0625 0 0 1 I I 0 1 0.06250000145192639855 forward I I I I #
edge_name-twe-attrib $-1 $-1 $-1 $984 55 8704 #
ellipse-curve $-1 0.9086242764864650434 0.591326915272021969 -0.5 -0 -0 1 0.2500000000539520095 0 0 1 I I #
point $-1 0.9086242764864650434 0.3413269137661439911 -0.5 #
surf-twe-attrib $-1 $-1 $-1 $989 921 #
point $-1 0.5 1.625 -0.625 #
coedge $-1 $1098 $1000 $1024 $1078 forward $730 $-1 #
coedge $-1 $1001 $1098 $1009 $1068 forward $730 $-1 #
coedge $-1 $1003 $1002 $1040 $1088 forward $653 $-1 #
coedge $-1 $1005 $1004 $1098 $1099 forward $1006 $-1 #
loop_type-twe-attrib $-1 $-1 $-1 $1006 0 #
face $1100 $270 $1006 $3 $-1 $1101 reversed single #
edge $1102 $1070 -4.712388980384689674 $1016 -1.570796326794896558 $1009 $1103 reversed 7 unknown #
edge_name-twe-attrib $-1 $-1 $-1 $1010 75 20480 #
vertex $-1 $1010 $1104 #
straight-curve $-1 2.591375902327469838 0.216326912314217995 -0.5 0 0 -1 I I #
face_name-twe-attrib $-1 $-1 $-1 $1012 46 #
cone-surface $1105 2.591375902327469838 0.2788269137661429919 -0.5 0 0 -1 0.0625000014519259961 0 0 1 I I 0 1 0.06250000290385222812 forward I I I I #
edge_name-twe-attrib $-1 $-1 $-1 $1014 72 8704 #
ellipse-curve $-1 2.591375902327469838 0.591326915272021969 -0.5 -0 -0 1 0.2500000000539520095 0 0 1 I I #
point $-1 2.591375902327469838 0.3413269152180690158 -0.5 #
surf-twe-attrib $-1 $-1 $-1 $1019 1031 #
edge $1106 $1031 -0 $1080 1.570796326794896558 $1024 $1107 reversed 7 unknown #
edge_name-twe-attrib $-1 $-1 $-1 $1025 77 20480 #
vertex $-1 $1099 $1108 #
straight-curve $-1 3.161376901494359792 0.216326912314217995 -0.5 0 0 -1 I I #
face_name-twe-attrib $-1 $-1 $-1 $1027 40 #
cone-surface $1109 3.161376901494359792 0.2788269131473319895 -0.5 0 0 -1 0.0625 0 0 1 I I 0 1 0.06250000083311380017 forward I I I I #
edge_name-twe-attrib $-1 $-1 $-1 $1029 64 8704 #
straight-curve $-1 3.223876902327469818 0.2956634576360109845 -0.5 -0 1 0 I I #
point $-1 3.223876902327469818 0.2788269131473319895 -0.5 #
surf-twe-attrib $-1 $-1 $-1 $1034 1014 #
edge $1110 $1053 -0.7393126382432325672 $1045 -0.1693116390763464707 $1040 $1111 forward 7 unknown #
face_name-twe-attrib $-1 $-1 $-1 $1042 39 #
plane-surface $1112 0.338623276486465008 0.216326912314217995 -0.5 0 1 0 0 0 1 forward_v I I I I #
edge_name-twe-attrib $-1 $-1 $-1 $1043 46 8704 #
ellipse-curve $-1 0.3386232773195789747 0.2788269131473309903 -0.5 -0 -0 1 0.0625 0 0 1 I I #
point $-1 0.3386232773195789747 0.216326912314217995 -0.5 #
edge_name-twe-attrib $-1 $-1 $-1 $1051 57 8704 #
ellipse-curve $-1 0.9086242764864650434 0.2788269137661439911 -0.5 -0 -0 1 0.0625 0 0 1 I I #
point $-1 0.9086242764864650434 0.216326912314217995 -0.5 #
surf-twe-attrib $-1 $-1 $-1 $1056 1051 #
coedge $-1 $1063 $1062 $1065 $1099 reversed $730 $-1 #
edge $1113 $1070 1.010687451163734929 $1080 1.580688450330624883 $1065 $1114 forward 7 unknown #
face_name-twe-attrib $-1 $-1 $-1 $1067 47 #
plane-surface $1115 3.161376902327469818 0.216326912314217995 -0.5 0 -1 0 0 0 -1 forward_v I I I I #
edge_name-twe-attrib $-1 $-1 $-1 $1068 74 8704 #
ellipse-curve $-1 2.591375902327469838 0.2788269137661429919 -0.5 -0 -0 1 0.0625000014519259961 0 0 1 I I #
point $-1 2.591375902327469838 0.216326912314217995 -0.5 #
surf-twe-attrib $-1 $-1 $-1 $1073 1131 #
edge_name-twe-attrib $-1 $-1 $-1 $1078 62 8704 #
ellipse-curve $-1 3.161376901494359792 0.2788269131473319895 -0.5 -0 -0 1 0.0625 0 0 1 I I #
point $-1 3.161376901494359792 0.216326912314217995 -0.5 #
surf-twe-attrib $-1 $-1 $-1 $1083 1117 #
edge_name-twe-attrib $-1 $-1 $-1 $1088 60 8704 #
straight-curve $-1 0.169311638243232504 0.216326912314217995 -0.5 -1 0 0 I I #
surf-twe-attrib $-1 $1116 $-1 $1090 1180 #
edge_name-twe-attrib $-1 $-1 $-1 $1099 76 8704 #
straight-curve $-1 1.580688451163734909 0.216326912314217995 -0.5 1 0 0 I I #
surf-twe-attrib $-1 $1117 $-1 $1101 1180 #
surf-twe-attrib $-1 $-1 $1112 $1090 1144 #
surf-twe-attrib $-1 $-1 $1115 $1101 1144 #
End-of-ACIS-data 