105 1234 1 0                            
body $-1 $1 $-1 $2 #
lump $-1 $-1 $3 $0 #
transform $-1 1 0 0 0 1 0 0 0 1 0 0 0 1 0 0 0 #
shell $-1 $-1 $-1 $4 $1 #
face $5 $6 $7 $3 $-1 $8 reversed single #
face_name-twe-attrib $-1 $-1 $-1 $4 1 #
face $9 $10 $11 $3 $-1 $12 reversed single #
loop $13 $14 $15 $4 #
plane-surface $16 2.15008 0.59992 -0.5 0 0 1 1 0 0 0 #
face_name-twe-attrib $-1 $-1 $-1 $6 2 #
face $17 $18 $19 $3 $-1 $20 reversed single #
loop $21 $22 $23 $6 #
plane-surface $24 2.15008 0.59992 -0.6 0 0 -1 -1 0 0 0 #
loop_type-twe-attrib $-1 $-1 $-1 $7 0 #
loop $25 $-1 $26 $4 #
coedge $-1 $15 $15 $27 $28 0 $7 $-1 #
surf-twe-attrib $-1 $29 $-1 $8 30 #
face_name-twe-attrib $-1 $-1 $-1 $10 3 #
face $31 $32 $33 $3 $-1 $34 reversed single #
loop $35 $36 $27 $10 #
cone-surface $37 1.75 1 -0.5 0 0 -1 0.4 0 0 1 0 1 0 #
loop_type-twe-attrib $-1 $-1 $-1 $11 0 #
loop $38 $-1 $39 $6 #
coedge $-1 $23 $23 $40 $41 0 $11 $-1 #
surf-twe-attrib $-1 $-1 $-1 $12 6 #
loop_type-twe-attrib $-1 $-1 $-1 $14 1 #
coedge $-1 $26 $26 $42 $43 0 $14 $-1 #
coedge $-1 $27 $27 $15 $28 1 $19 $-1 #
edge $44 $45 $45 $27 $46 0 #
surf-twe-attrib $-1 $47 $16 $8 48 #
face $49 $50 $51 $3 $-1 $52 reversed single #
face_name-twe-attrib $-1 $-1 $-1 $18 4 #
face $53 $54 $55 $3 $-1 $56 reversed single #
loop $57 $-1 $58 $18 #
plane-surface $59 2.3125125 0.9374875 -0.5 0 0 -1 -1 0 0 0 #
loop_type-twe-attrib $-1 $-1 $-1 $19 0 #
loop $60 $-1 $40 $10 #
surf-twe-attrib $-1 $-1 $-1 $20 10 #
loop_type-twe-attrib $-1 $-1 $-1 $22 1 #
coedge $-1 $39 $39 $61 $62 0 $22 $-1 #
coedge $-1 $40 $40 $23 $41 1 $36 $-1 #
edge $63 $64 $64 $40 $65 0 #
coedge $-1 $42 $42 $26 $43 1 $66 $-1 #
edge $67 $68 $68 $42 $69 0 #
edge_name-twe-attrib $-1 $-1 $-1 $28 1 4608 #
vertex $-1 $28 $70 #
ellipse-curve $71 1.75 1 -0.5 0 0 -1 0.4 0 0 1 #
surf-twe-attrib $-1 $72 $29 $8 73 #
face $74 $75 $76 $3 $-1 $77 reversed single #
face_name-twe-attrib $-1 $-1 $-1 $30 25 #
face $78 $79 $80 $3 $-1 $81 reversed single #
loop $82 $83 $84 $30 #
plane-surface $85 0 2.71050543121376e-20 -0.5 0 0 -1 -1 0 0 0 #
face_name-twe-attrib $-1 $-1 $-1 $32 5 #
face $86 $87 $88 $3 $-1 $89 reversed single #
loop $90 $91 $92 $32 #
cone-surface $93 2.25 1 0 0 0 -1 0.0625 0 0 1 0 1 0 #
loop_type-twe-attrib $-1 $-1 $-1 $33 0 #
coedge $-1 $58 $58 $92 $94 0 $33 $-1 #
surf-twe-attrib $-1 $95 $-1 $34 30 #
loop_type-twe-attrib $-1 $-1 $-1 $36 1 #
coedge $-1 $61 $61 $39 $62 1 $96 $-1 #
edge $97 $98 $98 $61 $99 0 #
edge_name-twe-attrib $-1 $-1 $-1 $41 2 4608 #
vertex $-1 $41 $100 #
ellipse-curve $101 1.75 1 -0.6 0 0 1 0.4 0 0 1 #
loop $102 $-1 $42 $103 #
edge_name-twe-attrib $-1 $-1 $-1 $43 8 8704 #
vertex $-1 $43 $104 #
ellipse-curve $105 1.75 1 -0.5 0 0 1 0.375 0 0 1 #
point $-1 2.15 1 -0.5 #
cur-twe-attrib $-1 $-1 $-1 $46 28 #
surf-twe-attrib $-1 $106 $47 $8 54 #
face $107 $108 $109 $3 $-1 $110 reversed single #
face_name-twe-attrib $-1 $-1 $-1 $48 10 #
face $111 $112 $113 $3 $-1 $114 reversed single #
loop $115 $-1 $116 $48 #
plane-surface $117 1.8125125 1.4374875 -0.5 0 0 -1 -1 0 0 0 #
face_name-twe-attrib $-1 $-1 $-1 $50 26 #
face $118 $119 $120 $3 $-1 $121 forward single #
loop $122 $123 $124 $50 #
cone-surface $125 3 1.5 -0.625 0 0 -1 0.0625000000000002 0 0 1 0 1 0 #
loop_type-twe-attrib $-1 $-1 $-1 $51 0 #
loop $126 $127 $128 $30 #
coedge $-1 $129 $130 $131 $132 1 $51 $-1 #
surf-twe-attrib $-1 $133 $-1 $52 30 #
face_name-twe-attrib $-1 $-1 $-1 $54 6 #
face $134 $73 $135 $3 $-1 $136 reversed single #
loop $137 $-1 $138 $54 #
plane-surface $139 1.8125125 0.4374875 -0.5 0 0 -1 -1 0 0 0 #
loop_type-twe-attrib $-1 $-1 $-1 $55 0 #
loop $140 $-1 $141 $32 #
coedge $-1 $92 $92 $58 $94 1 $55 $-1 #
surf-twe-attrib $-1 $-1 $-1 $56 32 #
edge $142 $143 $143 $92 $144 0 #
surf-twe-attrib $-1 $145 $59 $34 48 #
loop $146 $-1 $61 $112 #
edge_name-twe-attrib $-1 $-1 $-1 $62 7 8704 #
vertex $-1 $62 $147 #
ellipse-curve $148 1.75 1 -0.6 0 0 -1 0.375 0 0 1 #
point $-1 2.15 1 -0.6 #
cur-twe-attrib $-1 $-1 $-1 $65 41 #
loop_type-twe-attrib $-1 $-1 $-1 $66 1 #
face $149 $150 $151 $3 $-1 $152 reversed single #
point $-1 1.75 1.375 -0.5 #
cur-twe-attrib $-1 $-1 $-1 $69 43 #
surf-twe-attrib $-1 $153 $72 $8 18 #
face_name-twe-attrib $-1 $-1 $-1 $73 8 #
face $154 $48 $155 $3 $-1 $156 reversed single #
loop $157 $-1 $158 $73 #
plane-surface $159 1.3125125 0.9374875 -0.5 0 0 -1 -1 0 0 0 #
face_name-twe-attrib $-1 $-1 $-1 $75 11 #
face $160 $103 $161 $3 $-1 $162 reversed single #
loop $163 $164 $165 $75 #
cone-surface $166 1.75 1.5 0 0 0 -1 0.0625 0 0 1 0 1 0 #
loop_type-twe-attrib $-1 $-1 $-1 $76 0 #
coedge $-1 $116 $116 $165 $167 0 $76 $-1 #
surf-twe-attrib $-1 $168 $-1 $77 30 #
face_name-twe-attrib $-1 $-1 $-1 $79 27 #
face $169 $170 $171 $3 $-1 $172 reversed single #
loop $173 $174 $175 $79 #
plane-surface $176 2.76184301395928 1.64375 -0.625 0 0 1 1 0 0 0 #
loop_type-twe-attrib $-1 $-1 $-1 $80 0 #
loop $177 $-1 $178 $50 #
coedge $-1 $124 $124 $179 $180 0 $80 $-1 #
surf-twe-attrib $-1 $-1 $-1 $81 50 #
loop_type-twe-attrib $-1 $-1 $-1 $83 1 #
loop $181 $182 $183 $30 #
coedge $-1 $128 $128 $184 $185 0 $83 $-1 #
coedge $-1 $186 $84 $187 $188 1 $51 $-1 #
coedge $-1 $84 $186 $189 $190 1 $51 $-1 #
coedge $-1 $191 $192 $84 $132 0 $193 $-1 #
edge $194 $195 $196 $131 $197 0 #
surf-twe-attrib $-1 $198 $85 $52 48 #
face_name-twe-attrib $-1 $-1 $-1 $87 7 #
loop $199 $200 $201 $87 #
cone-surface $202 1.75 0.5 0 0 0 -1 0.0625 0 0 1 0 1 0 #
loop_type-twe-attrib $-1 $-1 $-1 $88 0 #
coedge $-1 $138 $138 $201 $203 0 $88 $-1 #
surf-twe-attrib $-1 $204 $-1 $89 30 #
loop_type-twe-attrib $-1 $-1 $-1 $91 1 #
coedge $-1 $141 $141 $205 $206 1 $91 $-1 #
edge_name-twe-attrib $-1 $-1 $-1 $94 3 4608 #
vertex $-1 $94 $207 #
ellipse-curve $208 2.25 1 -0.5 0 0 1 0.0625 0 0 1 #
surf-twe-attrib $-1 $209 $95 $34 73 #
loop_type-twe-attrib $-1 $-1 $-1 $96 1 #
point $-1 1.75 1.375 -0.6 #
cur-twe-attrib $-1 $-1 $-1 $99 62 #
face_name-twe-attrib $-1 $-1 $-1 $103 13 #
face $210 $211 $212 $3 $-1 $213 forward single #
loop $214 $66 $215 $103 #
cone-surface $216 1.75 1 0.0001 0 0 -1 0.375 0 0 1 0 1 0 #
surf-twe-attrib $-1 $-1 $106 $8 4 #
face_name-twe-attrib $-1 $-1 $-1 $108 9 #
loop $217 $218 $219 $108 #
cone-surface $220 1.25 1 0 0 0 -1 0.0625 0 0 1 0 1 0 #
loop_type-twe-attrib $-1 $-1 $-1 $109 0 #
coedge $-1 $158 $158 $219 $221 0 $109 $-1 #
surf-twe-attrib $-1 $222 $-1 $110 30 #
face_name-twe-attrib $-1 $-1 $-1 $112 12 #
loop $223 $96 $224 $112 #
cone-surface $225 1.75 1 0.0001 0 0 -1 0.375 0 0 1 0 1 0 #
loop_type-twe-attrib $-1 $-1 $-1 $113 0 #
loop $226 $-1 $227 $75 #
coedge $-1 $165 $165 $116 $167 1 $113 $-1 #
surf-twe-attrib $-1 $-1 $-1 $114 75 #
edge $228 $229 $229 $165 $230 0 #
surf-twe-attrib $-1 $231 $117 $77 48 #
face_name-twe-attrib $-1 $-1 $-1 $119 28 #
face $232 $233 $234 $3 $-1 $235 reversed single #
loop $236 $237 $238 $119 #
cone-surface $239 3 1.5 -0.4999 0 0 -1 0.125 0 0 1 0 1 0 #
loop_type-twe-attrib $-1 $-1 $-1 $120 0 #
loop $240 $-1 $179 $79 #
coedge $-1 $175 $175 $238 $241 1 $120 $-1 #
surf-twe-attrib $-1 $242 $-1 $121 233 #
loop_type-twe-attrib $-1 $-1 $-1 $123 1 #
coedge $-1 $178 $178 $243 $244 1 $123 $-1 #
coedge $-1 $179 $179 $124 $180 1 $174 $-1 #
edge $245 $246 $246 $179 $247 0 #
loop_type-twe-attrib $-1 $-1 $-1 $127 1 #
loop $248 $249 $250 $30 #
coedge $-1 $183 $183 $251 $252 0 $127 $-1 #
coedge $-1 $184 $184 $128 $185 1 $253 $-1 #
edge $254 $255 $255 $128 $256 0 #
coedge $-1 $130 $129 $257 $258 1 $51 $-1 #
coedge $-1 $259 $260 $129 $188 0 $261 $-1 #
edge $262 $263 $195 $187 $264 0 #
coedge $-1 $265 $266 $130 $190 0 $267 $-1 #
edge $268 $196 $269 $189 $270 0 #
coedge $-1 $271 $131 $266 $272 0 $193 $-1 #
coedge $-1 $131 $271 $259 $273 1 $193 $-1 #
loop $274 $-1 $191 $275 #
edge_name-twe-attrib $-1 $-1 $-1 $132 108 8704 #
vertex $-1 $273 $276 #
vertex $-1 $272 $277 #
straight-curve $278 3.5 0 -0.5 -1 0 0 #
surf-twe-attrib $-1 $279 $133 $52 73 #
loop_type-twe-attrib $-1 $-1 $-1 $135 0 #
loop $280 $-1 $281 $87 #
coedge $-1 $201 $201 $138 $203 1 $135 $-1 #
surf-twe-attrib $-1 $-1 $-1 $136 87 #
edge $282 $283 $283 $201 $284 0 #
surf-twe-attrib $-1 $285 $139 $89 48 #
coedge $-1 $205 $205 $141 $206 0 $286 $-1 #
edge $287 $288 $288 $205 $289 0 #
point $-1 2.3125 1 -0.5 #
cur-twe-attrib $-1 $-1 $-1 $144 94 #
surf-twe-attrib $-1 $290 $145 $34 54 #
face_name-twe-attrib $-1 $-1 $-1 $150 14 #
face $291 $292 $293 $3 $-1 $294 forward single #
loop $295 $-1 $296 $150 #
plane-surface $297 1.28806023374421 1.46193976625579 -0.25 -0.923879532511286 0.382683432365091 0 0 0 1 0 #
loop_type-twe-attrib $-1 $-1 $-1 $151 0 #
coedge $-1 $215 $215 $298 $299 1 $151 $-1 #
surf-twe-attrib $-1 $300 $-1 $152 103 #
loop_type-twe-attrib $-1 $-1 $-1 $155 0 #
loop $301 $-1 $302 $108 #
coedge $-1 $219 $219 $158 $221 1 $155 $-1 #
surf-twe-attrib $-1 $-1 $-1 $156 108 #
edge $303 $304 $304 $219 $305 0 #
surf-twe-attrib $-1 $306 $159 $110 48 #
loop_type-twe-attrib $-1 $-1 $-1 $161 0 #
coedge $-1 $224 $224 $307 $308 1 $161 $-1 #
surf-twe-attrib $-1 $309 $-1 $162 103 #
loop_type-twe-attrib $-1 $-1 $-1 $164 1 #
coedge $-1 $227 $227 $310 $311 1 $164 $-1 #
edge_name-twe-attrib $-1 $-1 $-1 $167 6 4608 #
vertex $-1 $167 $312 #
ellipse-curve $313 1.75 1.5 -0.5 0 0 1 0.0624999999999999 0 0 1 #
surf-twe-attrib $-1 $314 $168 $77 73 #
face_name-twe-attrib $-1 $-1 $-1 $170 29 #
face $315 $316 $317 $3 $-1 $318 forward single #
loop $319 $320 $321 $170 #
cone-surface $322 0.5 1.5 -0.625 0 0 -1 0.0625 0 0 1 0 1 0 #
loop_type-twe-attrib $-1 $-1 $-1 $171 0 #
loop $323 $-1 $251 $119 #
coedge $-1 $238 $238 $175 $241 0 $171 $-1 #
surf-twe-attrib $-1 $-1 $-1 $172 119 #
loop_type-twe-attrib $-1 $-1 $-1 $174 1 #
edge $324 $325 $325 $238 $326 0 #
surf-twe-attrib $-1 $-1 $176 $121 79 #
coedge $-1 $243 $243 $178 $244 0 $327 $-1 #
edge $328 $329 $329 $243 $330 0 #
edge_name-twe-attrib $-1 $-1 $-1 $180 40 8704 #
vertex $-1 $180 $331 #
ellipse-curve $332 3 1.5 -0.625 0 0 1 0.0625000000000002 0 0 1 #
loop_type-twe-attrib $-1 $-1 $-1 $182 1 #
loop $333 $334 $335 $30 #
coedge $-1 $250 $250 $336 $337 0 $182 $-1 #
coedge $-1 $251 $251 $183 $252 1 $237 $-1 #
edge $338 $339 $339 $251 $340 0 #
loop $341 $-1 $184 $342 #
edge_name-twe-attrib $-1 $-1 $-1 $185 39 4608 #
vertex $-1 $185 $343 #
ellipse-curve $344 1.75 1 -0.5 0 0 -1 0.8 0 0 1 #
coedge $-1 $345 $346 $186 $258 0 $347 $-1 #
edge $348 $269 $263 $257 $349 0 #
coedge $-1 $350 $187 $192 $273 0 $261 $-1 #
coedge $-1 $187 $350 $345 $351 1 $261 $-1 #
loop $352 $-1 $259 $353 #
edge_name-twe-attrib $-1 $-1 $-1 $188 104 8704 #
vertex $-1 $351 $354 #
straight-curve $355 3.5 2 -0.5 0 -1 0 #
coedge $-1 $356 $189 $346 $357 0 $267 $-1 #
coedge $-1 $189 $356 $191 $272 1 $267 $-1 #
loop $358 $-1 $265 $359 #
edge_name-twe-attrib $-1 $-1 $-1 $190 98 8704 #
vertex $-1 $357 $360 #
straight-curve $361 0 0 -0.5 0 1 0 #
coedge $-1 $192 $191 $362 $363 0 $193 $-1 #
edge $364 $196 $365 $191 $366 0 #
edge $367 $195 $368 $192 $369 0 #
loop_type-twe-attrib $-1 $-1 $-1 $193 0 #
face $370 $-1 $193 $3 $-1 $371 reversed single #
point $-1 3.5 0 -0.5 #
point $-1 0 0 -0.5 #
cur-twe-attrib $-1 $-1 $-1 $197 132 #
surf-twe-attrib $-1 $372 $198 $52 54 #
loop_type-twe-attrib $-1 $-1 $-1 $200 1 #
coedge $-1 $281 $281 $373 $374 1 $200 $-1 #
edge_name-twe-attrib $-1 $-1 $-1 $203 4 4608 #
vertex $-1 $203 $375 #
ellipse-curve $376 1.75 0.5 -0.5 0 0 1 0.0625 0 0 1 #
surf-twe-attrib $-1 $377 $204 $89 73 #
loop $378 $379 $205 $380 #
edge_name-twe-attrib $-1 $-1 $-1 $206 25 8704 #
vertex $-1 $206 $381 #
ellipse-curve $382 2.25 1 0 0 0 -1 0.0625 0 0 1 #
surf-twe-attrib $-1 $383 $209 $34 18 #
face_name-twe-attrib $-1 $-1 $-1 $211 15 #
face $384 $385 $386 $3 $-1 $387 forward single #
loop $388 $-1 $389 $211 #
plane-surface $390 1.75 1.65328148243839 -0.25 -0.382683432365091 0.923879532511286 0 0 0 1 0 #
loop_type-twe-attrib $-1 $-1 $-1 $212 0 #
coedge $-1 $391 $392 $393 $394 1 $212 $-1 #
surf-twe-attrib $-1 $-1 $-1 $213 150 #
coedge $-1 $298 $298 $215 $299 0 $395 $-1 #
edge $396 $397 $397 $298 $398 0 #
surf-twe-attrib $-1 $-1 $216 $152 112 #
loop_type-twe-attrib $-1 $-1 $-1 $218 1 #
coedge $-1 $302 $302 $399 $400 1 $218 $-1 #
edge_name-twe-attrib $-1 $-1 $-1 $221 5 4608 #
vertex $-1 $221 $401 #
ellipse-curve $402 1.25 1 -0.5 0 0 1 0.0625 0 0 1 #
surf-twe-attrib $-1 $403 $222 $110 73 #
coedge $-1 $307 $307 $224 $308 0 $404 $-1 #
edge $405 $406 $406 $307 $407 0 #
surf-twe-attrib $-1 $-1 $225 $162 112 #
coedge $-1 $310 $310 $227 $311 0 $408 $-1 #
edge $409 $410 $410 $310 $411 0 #
point $-1 1.8125 1.5 -0.5 #
cur-twe-attrib $-1 $-1 $-1 $230 167 #
surf-twe-attrib $-1 $412 $231 $77 54 #
face_name-twe-attrib $-1 $-1 $-1 $233 30 #
face $413 $414 $415 $3 $-1 $416 reversed single #
loop $417 $418 $419 $233 #
plane-surface $420 0.261843013959279 1.64375 -0.625 0 0 1 1 0 0 0 #
loop_type-twe-attrib $-1 $-1 $-1 $234 0 #
loop $421 $-1 $422 $170 #
coedge $-1 $321 $321 $423 $424 0 $234 $-1 #
surf-twe-attrib $-1 $-1 $-1 $235 170 #
loop_type-twe-attrib $-1 $-1 $-1 $237 1 #
edge_name-twe-attrib $-1 $-1 $-1 $241 41 4608 #
vertex $-1 $241 $425 #
ellipse-curve $426 3 1.5 -0.625 0 0 -1 0.125 0 0 1 #
loop $427 $428 $243 $429 #
edge_name-twe-attrib $-1 $-1 $-1 $244 79 8704 #
vertex $-1 $244 $430 #
ellipse-curve $431 3 1.5 -1 0 0 1 0.0624999999999999 0 0 1 #
point $-1 3 1.5625 -0.625 #
cur-twe-attrib $-1 $-1 $-1 $247 180 #
loop_type-twe-attrib $-1 $-1 $-1 $249 1 #
loop $432 $-1 $433 $30 #
coedge $-1 $434 $435 $436 $437 0 $249 $-1 #
coedge $-1 $336 $336 $250 $337 1 $438 $-1 #
edge $439 $440 $440 $336 $441 0 #
edge_name-twe-attrib $-1 $-1 $-1 $252 42 8704 #
vertex $-1 $252 $442 #
ellipse-curve $443 3 1.5 -0.5 0 0 -1 0.125 0 0 1 #
loop_type-twe-attrib $-1 $-1 $-1 $253 1 #
face $444 $30 $445 $3 $-1 $446 forward single #
point $-1 2.55 1 -0.5 #
cur-twe-attrib $-1 $-1 $-1 $256 185 #
coedge $-1 $447 $257 $260 $351 0 $347 $-1 #
coedge $-1 $257 $447 $265 $357 1 $347 $-1 #
loop $448 $-1 $345 $449 #
edge_name-twe-attrib $-1 $-1 $-1 $258 101 8704 #
straight-curve $450 0 2 -0.5 1 0 0 #
coedge $-1 $260 $259 $451 $452 0 $261 $-1 #
edge $453 $263 $454 $260 $455 0 #
loop_type-twe-attrib $-1 $-1 $-1 $261 0 #
face $456 $275 $261 $3 $-1 $457 reversed single #
point $-1 3.5 2 -0.5 #
cur-twe-attrib $-1 $-1 $-1 $264 188 #
coedge $-1 $266 $265 $458 $459 0 $267 $-1 #
edge $460 $269 $461 $346 $462 0 #
loop_type-twe-attrib $-1 $-1 $-1 $267 0 #
face $463 $449 $267 $3 $-1 $464 reversed single #
point $-1 0 2 -0.5 #
cur-twe-attrib $-1 $-1 $-1 $270 190 #
coedge $-1 $458 $451 $271 $363 1 $465 $-1 #
edge $466 $365 $368 $271 $467 0 #
edge_name-twe-attrib $-1 $-1 $-1 $272 105 8704 #
vertex $-1 $272 $468 #
straight-curve $469 0 0 -0.5 0 0 -1 #
edge_name-twe-attrib $-1 $-1 $-1 $273 107 8704 #
vertex $-1 $363 $470 #
straight-curve $471 3.5 0 -0.5 0 0 -1 #
face_name-twe-attrib $-1 $-1 $-1 $275 52 #
plane-surface $472 0 0 -0.5 0 1 0 0 0 1 0 #
surf-twe-attrib $-1 $473 $279 $52 18 #
coedge $-1 $373 $373 $281 $374 0 $379 $-1 #
edge $474 $475 $475 $373 $476 0 #
point $-1 1.8125 0.5 -0.5 #
cur-twe-attrib $-1 $-1 $-1 $284 203 #
surf-twe-attrib $-1 $477 $285 $89 54 #
loop_type-twe-attrib $-1 $-1 $-1 $286 1 #
loop $478 $479 $373 $380 #
face $480 $481 $482 $3 $-1 $483 reversed single #
point $-1 2.3125 1 0 #
cur-twe-attrib $-1 $-1 $-1 $289 206 #
surf-twe-attrib $-1 $-1 $290 $34 4 #
face_name-twe-attrib $-1 $-1 $-1 $292 16 #
face $484 $485 $486 $3 $-1 $487 forward single #
loop $488 $-1 $489 $292 #
plane-surface $490 2.21193976625579 1.46193976625579 -0.25 0.382683432365091 0.923879532511286 0 0 0 1 0 #
loop_type-twe-attrib $-1 $-1 $-1 $293 0 #
coedge $-1 $491 $492 $493 $494 1 $293 $-1 #
surf-twe-attrib $-1 $-1 $-1 $294 211 #
coedge $-1 $495 $296 $496 $497 0 $212 $-1 #
coedge $-1 $296 $495 $491 $498 0 $212 $-1 #
coedge $-1 $493 $499 $296 $394 0 $500 $-1 #
edge $501 $502 $503 $393 $504 0 #
loop $505 $-1 $298 $380 #
edge_name-twe-attrib $-1 $-1 $-1 $299 29 8704 #
vertex $-1 $299 $506 #
ellipse-curve $507 1.75 1 0 0 0 -1 0.375 0 0 1 #
coedge $-1 $399 $399 $302 $400 0 $479 $-1 #
edge $508 $509 $509 $399 $510 0 #
point $-1 1.3125 1 -0.5 #
cur-twe-attrib $-1 $-1 $-1 $305 221 #
surf-twe-attrib $-1 $511 $306 $110 54 #
loop $512 $327 $307 $429 #
edge_name-twe-attrib $-1 $-1 $-1 $308 78 8704 #
vertex $-1 $308 $513 #
ellipse-curve $514 1.75 1 -1 0 0 1 0.375 0 0 1 #
loop $515 $395 $310 $380 #
edge_name-twe-attrib $-1 $-1 $-1 $311 28 8704 #
vertex $-1 $311 $516 #
ellipse-curve $517 1.75 1.5 0 0 0 -1 0.0625 0 0 1 #
surf-twe-attrib $-1 $518 $314 $77 18 #
face_name-twe-attrib $-1 $-1 $-1 $316 31 #
face $519 $520 $521 $3 $-1 $522 reversed single #
loop $523 $438 $524 $316 #
cone-surface $525 0.5 1.5 -0.4999 0 0 -1 0.125 0 0 1 0 1 0 #
loop_type-twe-attrib $-1 $-1 $-1 $317 0 #
loop $526 $-1 $423 $233 #
coedge $-1 $419 $419 $524 $527 1 $317 $-1 #
surf-twe-attrib $-1 $528 $-1 $318 233 #
loop_type-twe-attrib $-1 $-1 $-1 $320 1 #
coedge $-1 $422 $422 $529 $530 1 $320 $-1 #
coedge $-1 $423 $423 $321 $424 1 $418 $-1 #
edge $531 $532 $532 $423 $533 0 #
point $-1 3 1.625 -0.625 #
cur-twe-attrib $-1 $-1 $-1 $326 241 #
loop_type-twe-attrib $-1 $-1 $-1 $327 1 #
loop $534 $535 $529 $429 #
face $536 $359 $465 $3 $-1 $537 reversed single #
point $-1 3 1.5625 -1 #
cur-twe-attrib $-1 $-1 $-1 $330 244 #
loop_type-twe-attrib $-1 $-1 $-1 $334 1 #
coedge $-1 $538 $539 $540 $541 1 $334 $-1 #
coedge $-1 $542 $335 $543 $544 0 $249 $-1 #
coedge $-1 $335 $545 $546 $547 0 $249 $-1 #
coedge $-1 $548 $549 $335 $437 1 $550 $-1 #
edge $551 $552 $553 $436 $554 0 #
loop $555 $-1 $336 $316 #
edge_name-twe-attrib $-1 $-1 $-1 $337 45 8704 #
vertex $-1 $337 $556 #
ellipse-curve $557 0.5 1.5 -0.5 0 0 -1 0.125 0 0 1 #
point $-1 3 1.625 -0.5 #
cur-twe-attrib $-1 $-1 $-1 $340 252 #
face_name-twe-attrib $-1 $-1 $-1 $342 24 #
loop $558 $253 $559 $342 #
cone-surface $560 1.75 1 -0.5 0 0 1 0.8 0 0 1 0 1 0 #
coedge $-1 $346 $345 $561 $562 0 $347 $-1 #
loop_type-twe-attrib $-1 $-1 $-1 $347 0 #
face $563 $353 $347 $3 $-1 $564 reversed single #
cur-twe-attrib $-1 $-1 $-1 $349 258 #
coedge $-1 $362 $561 $350 $452 1 $465 $-1 #
edge $565 $368 $454 $350 $566 0 #
edge_name-twe-attrib $-1 $-1 $-1 $351 103 8704 #
vertex $-1 $452 $567 #
straight-curve $568 3.5 2 -0.5 0 0 -1 #
face_name-twe-attrib $-1 $-1 $-1 $353 51 #
plane-surface $569 3.5 0 -0.5 -1 0 0 0 0 1 0 #
coedge $-1 $561 $362 $356 $459 1 $465 $-1 #
edge $570 $461 $365 $356 $571 0 #
edge_name-twe-attrib $-1 $-1 $-1 $357 100 8704 #
vertex $-1 $562 $572 #
straight-curve $573 0 2 -0.5 0 0 -1 #
face_name-twe-attrib $-1 $-1 $-1 $359 49 #
plane-surface $574 0 2 -0.5 1 0 0 0 0 -1 0 #
loop $575 $404 $451 $429 #
edge_name-twe-attrib $-1 $-1 $-1 $363 106 8704 #
straight-curve $576 0 0 -1 1 0 0 #
point $-1 0 0 -1 #
cur-twe-attrib $-1 $-1 $-1 $366 272 #
point $-1 3.5 0 -1 #
cur-twe-attrib $-1 $-1 $-1 $369 273 #
surf-twe-attrib $-1 $-1 $-1 $371 275 #
surf-twe-attrib $-1 $-1 $372 $52 4 #
edge_name-twe-attrib $-1 $-1 $-1 $374 26 8704 #
vertex $-1 $374 $577 #
ellipse-curve $578 1.75 0.5 0 0 0 -1 0.0625 0 0 1 #
surf-twe-attrib $-1 $579 $377 $89 18 #
loop_type-twe-attrib $-1 $-1 $-1 $379 1 #
loop $580 $408 $399 $380 #
face_name-twe-attrib $-1 $-1 $-1 $380 22 #
face $581 $342 $582 $3 $-1 $583 reversed single #
loop $584 $286 $585 $380 #
plane-surface $586 -0.00035 -0.0002 0 0 0 -1 -1 0 0 0 #
face_name-twe-attrib $-1 $-1 $-1 $385 17 #
face $587 $588 $589 $3 $-1 $590 forward single #
loop $591 $-1 $592 $385 #
plane-surface $593 2.40328148243839 1 -0.25 0.923879532511286 0.382683432365091 0 0 0 -1 0 #
loop_type-twe-attrib $-1 $-1 $-1 $386 0 #
coedge $-1 $594 $595 $596 $597 1 $386 $-1 #
surf-twe-attrib $-1 $-1 $-1 $387 292 #
coedge $-1 $598 $389 $392 $498 1 $293 $-1 #
coedge $-1 $389 $598 $594 $599 0 $293 $-1 #
coedge $-1 $596 $393 $389 $494 0 $500 $-1 #
edge $600 $503 $601 $493 $602 0 #
coedge $-1 $392 $391 $603 $604 1 $212 $-1 #
coedge $-1 $605 $606 $391 $497 1 $607 $-1 #
edge $608 $502 $609 $496 $610 0 #
edge $611 $612 $503 $491 $613 0 #
coedge $-1 $393 $614 $605 $615 0 $500 $-1 #
loop $616 $-1 $393 $481 #
edge_name-twe-attrib $-1 $-1 $-1 $394 30 4608 #
vertex $-1 $394 $617 #
vertex $-1 $394 $618 #
straight-curve $619 1.09671851756161 1 -0.25 0.382683432365091 0.923879532511286 0 #
loop_type-twe-attrib $-1 $-1 $-1 $395 1 #
point $-1 1.75 1.375 0 #
cur-twe-attrib $-1 $-1 $-1 $398 299 #
edge_name-twe-attrib $-1 $-1 $-1 $400 27 8704 #
vertex $-1 $400 $620 #
ellipse-curve $621 1.25 1 0 0 0 -1 0.0625000000000001 0 0 1 #
surf-twe-attrib $-1 $622 $403 $110 18 #
loop_type-twe-attrib $-1 $-1 $-1 $404 1 #
point $-1 1.75 1.375 -1 #
cur-twe-attrib $-1 $-1 $-1 $407 308 #
loop_type-twe-attrib $-1 $-1 $-1 $408 1 #
point $-1 1.8125 1.5 0 #
cur-twe-attrib $-1 $-1 $-1 $411 311 #
surf-twe-attrib $-1 $-1 $412 $77 4 #
face_name-twe-attrib $-1 $-1 $-1 $414 32 #
face $623 $624 $625 $3 $-1 $626 forward single #
loop $627 $-1 $628 $414 #
cone-surface $629 0.338623277319579 0.278826913147331 -0.5 0 0 -1 0.0625000008331138 0 0 1 0 1 0 #
loop_type-twe-attrib $-1 $-1 $-1 $415 0 #
coedge $-1 $524 $524 $419 $527 0 $415 $-1 #
surf-twe-attrib $-1 $-1 $-1 $416 316 #
loop_type-twe-attrib $-1 $-1 $-1 $418 1 #
edge $630 $631 $631 $524 $632 0 #
surf-twe-attrib $-1 $-1 $420 $318 79 #
coedge $-1 $529 $529 $422 $530 0 $428 $-1 #
edge $633 $634 $634 $529 $635 0 #
edge_name-twe-attrib $-1 $-1 $-1 $424 43 8704 #
vertex $-1 $424 $636 #
ellipse-curve $637 0.5 1.5 -0.625 0 0 1 0.0625 0 0 1 #
loop_type-twe-attrib $-1 $-1 $-1 $428 1 #
loop $638 $639 $640 $429 #
face_name-twe-attrib $-1 $-1 $-1 $429 48 #
plane-surface $641 3.50035 -0.0002 -1 0 0 1 1 0 0 0 #
coedge $-1 $642 $433 $643 $644 0 $334 $-1 #
coedge $-1 $433 $645 $646 $647 0 $334 $-1 #
coedge $-1 $648 $649 $433 $541 0 $650 $-1 #
edge $651 $652 $653 $540 $654 0 #
coedge $-1 $655 $434 $656 $657 0 $249 $-1 #
coedge $-1 $658 $659 $434 $544 1 $660 $-1 #
edge $661 $553 $662 $543 $663 0 #
coedge $-1 $435 $664 $665 $666 0 $249 $-1 #
coedge $-1 $667 $668 $435 $547 1 $669 $-1 #
edge $670 $671 $552 $546 $672 0 #
coedge $-1 $673 $436 $668 $674 0 $550 $-1 #
coedge $-1 $436 $673 $658 $675 1 $550 $-1 #
loop $676 $-1 $549 $677 #
edge_name-twe-attrib $-1 $-1 $-1 $437 51 8704 #
vertex $-1 $437 $678 #
vertex $-1 $544 $679 #
straight-curve $680 0.338623276486465 0.653826915272022 -0.5 1 0 0 #
loop_type-twe-attrib $-1 $-1 $-1 $438 1 #
point $-1 0.5 1.625 -0.5 #
cur-twe-attrib $-1 $-1 $-1 $441 337 #
loop_type-twe-attrib $-1 $-1 $-1 $445 0 #
coedge $-1 $559 $559 $681 $682 1 $445 $-1 #
surf-twe-attrib $-1 $-1 $-1 $446 342 #
coedge $-1 $451 $458 $447 $562 1 $465 $-1 #
edge $683 $454 $461 $447 $684 0 #
face_name-twe-attrib $-1 $-1 $-1 $449 50 #
plane-surface $685 3.5 2 -0.5 0 -1 0 0 0 -1 0 #
edge_name-twe-attrib $-1 $-1 $-1 $452 102 8704 #
straight-curve $686 3.5 0 -1 0 1 0 #
point $-1 3.5 2 -1 #
cur-twe-attrib $-1 $-1 $-1 $455 351 #
surf-twe-attrib $-1 $-1 $-1 $457 353 #
edge_name-twe-attrib $-1 $-1 $-1 $459 97 8704 #
straight-curve $687 0 2 -1 0 -1 0 #
point $-1 0 2 -1 #
cur-twe-attrib $-1 $-1 $-1 $462 357 #
surf-twe-attrib $-1 $-1 $-1 $464 359 #
loop_type-twe-attrib $-1 $-1 $-1 $465 0 #
cur-twe-attrib $-1 $-1 $-1 $467 363 #
point $-1 1.8125 0.5 0 #
cur-twe-attrib $-1 $-1 $-1 $476 374 #
surf-twe-attrib $-1 $-1 $477 $89 4 #
loop_type-twe-attrib $-1 $-1 $-1 $479 1 #
face_name-twe-attrib $-1 $-1 $-1 $481 23 #
loop $688 $500 $681 $481 #
plane-surface $689 0.888461538461539 0.168615612366939 -0.25 0 0 -1 -1 0 0 0 #
loop_type-twe-attrib $-1 $-1 $-1 $482 0 #
coedge $-1 $690 $603 $606 $691 0 $482 $-1 #
surf-twe-attrib $-1 $-1 $-1 $483 380 #
face_name-twe-attrib $-1 $-1 $-1 $485 18 #
face $692 $693 $694 $3 $-1 $695 forward single #
loop $696 $-1 $697 $485 #
plane-surface $698 2.21193976625579 0.538060233744215 -0.25 0.923879532511286 -0.382683432365091 0 0 0 -1 0 #
loop_type-twe-attrib $-1 $-1 $-1 $486 0 #
coedge $-1 $699 $700 $701 $702 1 $486 $-1 #
surf-twe-attrib $-1 $-1 $-1 $487 385 #
coedge $-1 $703 $489 $492 $599 1 $386 $-1 #
coedge $-1 $489 $703 $699 $704 0 $386 $-1 #
coedge $-1 $701 $493 $489 $597 0 $500 $-1 #
edge $705 $601 $706 $596 $707 0 #
coedge $-1 $492 $491 $708 $709 1 $293 $-1 #
edge $710 $711 $601 $594 $712 0 #
edge_name-twe-attrib $-1 $-1 $-1 $494 31 4608 #
vertex $-1 $494 $713 #
straight-curve $714 1.28806023374421 1.46193976625579 -0.25 0.923879532511286 0.382683432365091 0 #
coedge $-1 $585 $708 $495 $604 0 $482 $-1 #
edge $715 $612 $609 $603 $716 0 #
coedge $-1 $717 $496 $499 $615 1 $607 $-1 #
coedge $-1 $496 $717 $585 $691 1 $607 $-1 #
loop $718 $-1 $605 $719 #
edge_name-twe-attrib $-1 $-1 $-1 $497 16 8448 #
vertex $-1 $691 $720 #
straight-curve $721 1.09671851756161 1 -0.25 0 0 1 #
edge_name-twe-attrib $-1 $-1 $-1 $498 9 8448 #
vertex $-1 $709 $722 #
straight-curve $723 1.28806023374421 1.46193976625579 0 0 0 -1 #
coedge $-1 $499 $724 $725 $726 0 $500 $-1 #
edge $727 $728 $502 $499 $729 0 #
loop_type-twe-attrib $-1 $-1 $-1 $500 1 #
point $-1 1.09671851756161 1 -0.25 #
point $-1 1.28806023374421 1.46193976625579 -0.25 #
cur-twe-attrib $-1 $-1 $-1 $504 394 #
point $-1 1.3125 1 0 #
cur-twe-attrib $-1 $-1 $-1 $510 400 #
surf-twe-attrib $-1 $-1 $511 $110 4 #
face_name-twe-attrib $-1 $-1 $-1 $520 33 #
face $730 $677 $669 $3 $-1 $731 reversed single #
loop $732 $-1 $733 $520 #
plane-surface $734 0.276123276486465 0.591326915272022 -0.5 1 0 0 0 0 -1 0 #
loop_type-twe-attrib $-1 $-1 $-1 $521 0 #
coedge $-1 $735 $736 $737 $738 1 $521 $-1 #
surf-twe-attrib $-1 $-1 $-1 $522 414 #
edge_name-twe-attrib $-1 $-1 $-1 $527 44 4608 #
vertex $-1 $527 $739 #
ellipse-curve $740 0.5 1.5 -0.625 0 0 -1 0.125 0 0 1 #
edge_name-twe-attrib $-1 $-1 $-1 $530 80 8704 #
vertex $-1 $530 $741 #
ellipse-curve $742 0.5 1.5 -1 0 0 1 0.0625000000000002 0 0 1 #
point $-1 0.5 1.5625 -0.625 #
cur-twe-attrib $-1 $-1 $-1 $533 424 #
loop_type-twe-attrib $-1 $-1 $-1 $535 1 #
loop $743 $-1 $744 $429 #
coedge $-1 $745 $746 $673 $747 0 $535 $-1 #
surf-twe-attrib $-1 $-1 $-1 $537 429 #
coedge $-1 $748 $538 $749 $750 1 $334 $-1 #
coedge $-1 $751 $752 $538 $644 1 $753 $-1 #
edge $754 $652 $755 $643 $756 0 #
coedge $-1 $539 $757 $758 $759 0 $334 $-1 #
coedge $-1 $760 $761 $539 $647 1 $762 $-1 #
edge $763 $764 $653 $646 $765 0 #
coedge $-1 $766 $540 $761 $767 0 $650 $-1 #
coedge $-1 $540 $766 $751 $768 1 $650 $-1 #
loop $769 $-1 $766 $770 #
edge_name-twe-attrib $-1 $-1 $-1 $541 68 8704 #
vertex $-1 $768 $771 #
vertex $-1 $767 $772 #
straight-curve $773 3.16137690232747 0.653826915272022 -0.5 -1 0 0 #
coedge $-1 $774 $542 $775 $776 0 $249 $-1 #
coedge $-1 $777 $778 $542 $657 1 $779 $-1 #
edge $780 $662 $781 $656 $782 0 #
coedge $-1 $783 $543 $549 $675 0 $660 $-1 #
coedge $-1 $543 $783 $777 $784 1 $660 $-1 #
loop $785 $-1 $659 $786 #
edge_name-twe-attrib $-1 $-1 $-1 $544 53 8704 #
vertex $-1 $657 $787 #
ellipse-curve $788 0.596124276432513 0.591326915272022 -0.5 0 0 -1 0.0625000000000002 0 0 1 #
coedge $-1 $545 $774 $735 $789 0 $249 $-1 #
coedge $-1 $737 $733 $545 $666 1 $625 $-1 #
edge $790 $791 $671 $665 $792 0 #
coedge $-1 $793 $546 $733 $794 0 $669 $-1 #
coedge $-1 $546 $793 $548 $674 1 $669 $-1 #
loop $795 $-1 $668 $624 #
edge_name-twe-attrib $-1 $-1 $-1 $547 49 8704 #
vertex $-1 $547 $796 #
ellipse-curve $797 0.338623276486465 0.591326915272023 -0.5 0 0 -1 0.0624999999999999 0 0 1 #
coedge $-1 $549 $548 $640 $747 1 $550 $-1 #
edge $798 $552 $799 $548 $800 0 #
edge $801 $553 $802 $658 $803 0 #
loop_type-twe-attrib $-1 $-1 $-1 $550 0 #
face $804 $786 $550 $3 $-1 $805 forward single #
point $-1 0.338623276486465 0.653826915272022 -0.5 #
point $-1 0.596124276432513 0.653826915272022 -0.5 #
cur-twe-attrib $-1 $806 $-1 $554 541 #
coedge $-1 $681 $681 $559 $682 0 $582 $-1 #
edge $807 $808 $808 $559 $809 0 #
edge_name-twe-attrib $-1 $-1 $-1 $562 99 8704 #
straight-curve $810 3.5 2 -1 -1 0 0 #
surf-twe-attrib $-1 $-1 $-1 $564 449 #
cur-twe-attrib $-1 $-1 $-1 $566 452 #
cur-twe-attrib $-1 $-1 $-1 $571 459 #
loop_type-twe-attrib $-1 $-1 $-1 $582 0 #
surf-twe-attrib $-1 $-1 $-1 $583 481 #
coedge $-1 $811 $585 $812 $813 0 $482 $-1 #
edge $814 $609 $815 $585 $816 0 #
face_name-twe-attrib $-1 $-1 $-1 $588 19 #
face $817 $719 $818 $3 $-1 $819 forward single #
loop $820 $-1 $821 $588 #
plane-surface $822 1.75 0.346718517561611 -0.25 0.382683432365091 -0.923879532511286 0 0 0 -1 0 #
loop_type-twe-attrib $-1 $-1 $-1 $589 0 #
coedge $-1 $823 $824 $825 $826 1 $589 $-1 #
surf-twe-attrib $-1 $-1 $-1 $590 485 #
coedge $-1 $827 $592 $595 $704 1 $486 $-1 #
coedge $-1 $592 $827 $823 $828 0 $486 $-1 #
coedge $-1 $825 $596 $592 $702 0 $500 $-1 #
edge $829 $706 $830 $701 $831 0 #
coedge $-1 $595 $594 $832 $833 1 $386 $-1 #
edge $834 $835 $706 $699 $836 0 #
edge_name-twe-attrib $-1 $-1 $-1 $597 32 4608 #
vertex $-1 $597 $837 #
straight-curve $838 1.75 1.65328148243839 -0.25 0.923879532511287 -0.38268343236509 0 #
coedge $-1 $603 $832 $598 $709 0 $482 $-1 #
edge $839 $711 $612 $708 $840 0 #
edge_name-twe-attrib $-1 $-1 $-1 $599 10 8448 #
vertex $-1 $833 $841 #
straight-curve $842 1.75 1.65328148243839 0 0 0 -1 #
point $-1 1.75 1.65328148243839 -0.25 #
cur-twe-attrib $-1 $-1 $-1 $602 494 #
edge_name-twe-attrib $-1 $-1 $-1 $604 24 8704 #
straight-curve $843 1.28806023374421 1.46193976625579 0 -0.382683432365091 -0.923879532511286 0 #
coedge $-1 $606 $605 $844 $845 1 $607 $-1 #
loop_type-twe-attrib $-1 $-1 $-1 $607 0 #
face $846 $380 $607 $3 $-1 $847 forward single #
point $-1 1.09671851756161 1 0 #
cur-twe-attrib $-1 $-1 $-1 $610 497 #
point $-1 1.28806023374421 1.46193976625579 0 #
cur-twe-attrib $-1 $-1 $-1 $613 498 #
coedge $-1 $614 $825 $821 $848 0 $500 $-1 #
coedge $-1 $849 $844 $614 $726 1 $818 $-1 #
edge $850 $851 $728 $614 $852 0 #
edge_name-twe-attrib $-1 $-1 $-1 $615 37 4608 #
vertex $-1 $726 $853 #
straight-curve $854 1.28806023374422 0.538060233744215 -0.25 -0.382683432365091 0.923879532511286 0 #
face_name-twe-attrib $-1 $-1 $-1 $624 34 #
cone-surface $855 0.338623276486465 0.591326915272023 -0.5 0 0 -1 0.0624999999999999 0 0 1 0 1 0 #
loop_type-twe-attrib $-1 $-1 $-1 $625 0 #
coedge $-1 $665 $856 $667 $794 1 $625 $-1 #
surf-twe-attrib $-1 $-1 $-1 $626 520 #
coedge $-1 $857 $628 $664 $789 1 $521 $-1 #
coedge $-1 $628 $857 $858 $859 1 $521 $-1 #
coedge $-1 $856 $665 $628 $738 0 $625 $-1 #
edge $860 $791 $861 $737 $862 0 #
point $-1 0.5 1.625 -0.625 #
cur-twe-attrib $-1 $-1 $-1 $632 527 #
point $-1 0.5 1.5625 -1 #
cur-twe-attrib $-1 $-1 $-1 $635 530 #
loop_type-twe-attrib $-1 $-1 $-1 $639 1 #
coedge $-1 $863 $864 $766 $865 1 $639 $-1 #
coedge $-1 $866 $640 $793 $867 0 $535 $-1 #
coedge $-1 $640 $868 $783 $869 0 $535 $-1 #
edge $870 $802 $799 $640 $871 0 #
coedge $-1 $872 $642 $873 $874 0 $334 $-1 #
coedge $-1 $875 $876 $642 $750 0 $877 $-1 #
edge $878 $879 $755 $749 $880 0 #
coedge $-1 $881 $643 $649 $768 0 $753 $-1 #
coedge $-1 $643 $881 $875 $882 1 $753 $-1 #
loop $883 $-1 $881 $884 #
edge_name-twe-attrib $-1 $-1 $-1 $644 66 8704 #
vertex $-1 $882 $885 #
ellipse-curve $886 3.16137690232747 0.591326915272023 -0.5 0 0 -1 0.0624999999999999 0 0 1 #
coedge $-1 $645 $872 $887 $888 0 $334 $-1 #
coedge $-1 $889 $890 $645 $759 1 $891 $-1 #
edge $892 $893 $764 $758 $894 0 #
coedge $-1 $895 $646 $890 $896 0 $762 $-1 #
coedge $-1 $646 $895 $648 $767 1 $762 $-1 #
loop $897 $-1 $895 $898 #
edge_name-twe-attrib $-1 $-1 $-1 $647 70 8704 #
vertex $-1 $896 $899 #
ellipse-curve $900 2.90387590238142 0.591326915272023 -0.5 0 0 -1 0.0624999999999997 0 0 1 #
coedge $-1 $649 $648 $744 $865 0 $650 $-1 #
edge $901 $653 $902 $761 $903 0 #
edge $904 $652 $905 $649 $906 0 #
loop_type-twe-attrib $-1 $-1 $-1 $650 0 #
face $907 $898 $650 $3 $-1 $908 reversed single #
point $-1 3.16137690232747 0.653826915272022 -0.5 #
point $-1 2.90387590238142 0.653826915272022 -0.5 #
cur-twe-attrib $-1 $909 $-1 $654 541 #
coedge $-1 $664 $655 $910 $911 0 $249 $-1 #
coedge $-1 $912 $913 $655 $776 1 $914 $-1 #
edge $915 $781 $916 $775 $917 0 #
coedge $-1 $918 $656 $659 $784 0 $779 $-1 #
coedge $-1 $656 $918 $912 $919 1 $779 $-1 #
loop $920 $-1 $778 $921 #
edge_name-twe-attrib $-1 $-1 $-1 $657 55 8704 #
vertex $-1 $776 $922 #
ellipse-curve $923 0.908624276486465 0.591326915272022 -0.5 0 0 1 0.250000000053952 0 0 1 #
coedge $-1 $659 $658 $746 $869 1 $660 $-1 #
edge $924 $662 $925 $777 $926 0 #
loop_type-twe-attrib $-1 $-1 $-1 $660 0 #
face $927 $921 $660 $3 $-1 $928 reversed single #
point $-1 0.658624276432513 0.591326915272022 -0.5 #
cur-twe-attrib $-1 $-1 $-1 $663 544 #
edge $929 $930 $791 $735 $931 0 #
edge_name-twe-attrib $-1 $-1 $-1 $666 47 8704 #
vertex $-1 $666 $932 #
straight-curve $933 0.276123276486465 0.278826913980445 -0.5 0 1 0 #
coedge $-1 $668 $667 $745 $867 1 $669 $-1 #
edge $934 $671 $935 $667 $936 0 #
loop_type-twe-attrib $-1 $-1 $-1 $669 0 #
point $-1 0.276123276486465 0.591326915272022 -0.5 #
cur-twe-attrib $-1 $-1 $-1 $672 547 #
edge_name-twe-attrib $-1 $-1 $-1 $674 52 20480 #
vertex $-1 $747 $937 #
straight-curve $938 0.338623276486465 0.653826915272022 -0.5 0 0 -1 #
edge_name-twe-attrib $-1 $-1 $-1 $675 54 20480 #
vertex $-1 $747 $939 #
straight-curve $940 0.596124276432513 0.653826915272022 -0.5 0 0 -1 #
face_name-twe-attrib $-1 $-1 $-1 $677 35 #
plane-surface $941 0.596124276432513 0.653826915272022 -0.5 0 -1 0 0 0 -1 0 #
cur-twe-attrib $-1 $-1 $680 $554 437 #
edge_name-twe-attrib $-1 $-1 $-1 $682 38 8704 #
vertex $-1 $682 $942 #
ellipse-curve $943 1.75 1 -0.25 0 0 1 0.8 0 0 1 #
cur-twe-attrib $-1 $-1 $-1 $684 562 #
coedge $-1 $944 $690 $945 $946 0 $482 $-1 #
coedge $-1 $844 $849 $690 $813 1 $818 $-1 #
edge $947 $815 $948 $690 $949 0 #
edge_name-twe-attrib $-1 $-1 $-1 $691 17 8704 #
vertex $-1 $691 $950 #
straight-curve $951 1.09671851756161 1 0 0.382683432365091 -0.923879532511286 0 #
face_name-twe-attrib $-1 $-1 $-1 $693 20 #
loop $952 $-1 $725 $693 #
plane-surface $953 1.28806023374422 0.538060233744215 -0.25 -0.382683432365091 -0.923879532511286 0 0 0 -1 0 #
loop_type-twe-attrib $-1 $-1 $-1 $694 0 #
coedge $-1 $954 $955 $724 $848 1 $694 $-1 #
surf-twe-attrib $-1 $-1 $-1 $695 588 #
coedge $-1 $956 $697 $700 $828 1 $589 $-1 #
coedge $-1 $697 $956 $954 $957 0 $589 $-1 #
coedge $-1 $724 $701 $697 $826 0 $500 $-1 #
edge $958 $830 $959 $825 $960 0 #
coedge $-1 $700 $699 $961 $962 1 $486 $-1 #
edge $963 $964 $830 $823 $965 0 #
edge_name-twe-attrib $-1 $-1 $-1 $702 33 4608 #
vertex $-1 $702 $966 #
straight-curve $967 2.21193976625579 1.46193976625579 -0.25 0.382683432365091 -0.923879532511286 0 #
coedge $-1 $708 $961 $703 $833 0 $482 $-1 #
edge $968 $835 $711 $832 $969 0 #
edge_name-twe-attrib $-1 $-1 $-1 $704 11 8448 #
vertex $-1 $962 $970 #
straight-curve $971 2.21193976625579 1.46193976625579 0 0 0 -1 #
point $-1 2.21193976625579 1.46193976625579 -0.25 #
cur-twe-attrib $-1 $-1 $-1 $707 597 #
edge_name-twe-attrib $-1 $-1 $-1 $709 23 8704 #
straight-curve $972 1.75 1.65328148243839 0 -0.923879532511286 -0.382683432365091 0 #
point $-1 1.75 1.65328148243839 0 #
cur-twe-attrib $-1 $-1 $-1 $712 599 #
cur-twe-attrib $-1 $-1 $-1 $716 604 #
coedge $-1 $725 $812 $717 $845 0 $818 $-1 #
edge $973 $815 $728 $717 $974 0 #
face_name-twe-attrib $-1 $-1 $-1 $719 21 #
plane-surface $975 1.09671851756161 1 -0.25 -0.923879532511286 -0.382683432365091 0 0 0 1 0 #
edge $976 $959 $851 $724 $977 0 #
coedge $-1 $812 $725 $955 $978 1 $818 $-1 #
edge_name-twe-attrib $-1 $-1 $-1 $726 36 4608 #
vertex $-1 $848 $979 #
straight-curve $980 1.75 0.346718517561611 -0.25 -0.923879532511286 0.382683432365091 0 #
point $-1 1.28806023374422 0.538060233744215 -0.25 #
cur-twe-attrib $-1 $-1 $-1 $729 615 #
surf-twe-attrib $-1 $-1 $-1 $731 624 #
coedge $-1 $733 $737 $866 $981 1 $625 $-1 #
coedge $-1 $736 $735 $982 $983 0 $521 $-1 #
coedge $-1 $984 $866 $736 $859 0 $535 $-1 #
edge $985 $861 $986 $858 $987 0 #
edge_name-twe-attrib $-1 $-1 $-1 $738 48 20480 #
vertex $-1 $981 $988 #
straight-curve $989 0.276123276486465 0.278826913980445 -0.5 0 0 -1 #
coedge $-1 $990 $744 $895 $991 0 $639 $-1 #
coedge $-1 $744 $992 $881 $993 0 $639 $-1 #
edge $994 $902 $905 $744 $995 0 #
coedge $-1 $858 $745 $856 $981 0 $535 $-1 #
edge $996 $799 $935 $745 $997 0 #
coedge $-1 $746 $998 $918 $999 0 $535 $-1 #
edge $1000 $925 $802 $746 $1001 0 #
edge_name-twe-attrib $-1 $-1 $-1 $747 81 8704 #
straight-curve $1002 0.596124276432513 0.653826915272022 -1 -1 0 0 #
coedge $-1 $757 $748 $1003 $1004 1 $334 $-1 #
coedge $-1 $1005 $1006 $748 $874 1 $1007 $-1 #
edge $1008 $879 $1009 $873 $1010 0 #
coedge $-1 $1011 $749 $752 $882 0 $877 $-1 #
coedge $-1 $749 $1011 $1005 $1012 1 $877 $-1 #
loop $1013 $-1 $1011 $1014 #
edge_name-twe-attrib $-1 $-1 $-1 $750 64 8704 #
vertex $-1 $1012 $1015 #
straight-curve $1016 3.22387690232747 0.278826913980445 -0.5 0 1 0 #
coedge $-1 $752 $751 $864 $993 1 $753 $-1 #
edge $1017 $755 $1018 $752 $1019 0 #
loop_type-twe-attrib $-1 $-1 $-1 $753 0 #
face $1020 $770 $753 $3 $-1 $1021 reversed single #
point $-1 3.22387690232747 0.591326915272022 -0.5 #
cur-twe-attrib $-1 $-1 $-1 $756 644 #
coedge $-1 $1022 $1023 $757 $888 1 $1024 $-1 #
edge $1025 $1026 $893 $887 $1027 0 #
coedge $-1 $1028 $758 $1023 $1029 0 $891 $-1 #
coedge $-1 $758 $1028 $760 $896 1 $891 $-1 #
loop $1030 $-1 $1028 $1031 #
edge_name-twe-attrib $-1 $-1 $-1 $759 72 8704 #
vertex $-1 $1029 $1032 #
ellipse-curve $1033 2.59137590232747 0.591326915272023 -0.5 0 0 1 0.250000000053952 0 0 1 #
coedge $-1 $761 $760 $863 $991 1 $762 $-1 #
edge $1034 $764 $1035 $890 $1036 0 #
loop_type-twe-attrib $-1 $-1 $-1 $762 0 #
face $1037 $1031 $762 $3 $-1 $1038 reversed single #
point $-1 2.84137590238142 0.591326915272022 -0.5 #
cur-twe-attrib $-1 $-1 $-1 $765 647 #
edge_name-twe-attrib $-1 $-1 $-1 $767 69 20480 #
vertex $-1 $865 $1039 #
straight-curve $1040 2.90387590238142 0.653826915272022 -0.5 0 0 -1 #
edge_name-twe-attrib $-1 $-1 $-1 $768 67 20480 #
vertex $-1 $865 $1041 #
straight-curve $1042 3.16137690232747 0.653826915272023 -0.5 0 0 -1 #
face_name-twe-attrib $-1 $-1 $-1 $770 43 #
plane-surface $1043 2.90387590238142 0.653826915272022 -0.5 0 1 0 0 0 1 0 #
cur-twe-attrib $-1 $-1 $773 $654 437 #
coedge $-1 $1044 $982 $774 $911 1 $1045 $-1 #
edge $1046 $916 $930 $910 $1047 0 #
coedge $-1 $1048 $775 $778 $919 0 $914 $-1 #
coedge $-1 $775 $1048 $1044 $1049 1 $914 $-1 #
loop $1050 $-1 $913 $1051 #
edge_name-twe-attrib $-1 $-1 $-1 $776 57 8704 #
vertex $-1 $911 $1052 #
ellipse-curve $1053 0.908624276486465 0.278826913766144 -0.5 0 0 -1 0.0625000014519263 0 0 1 #
coedge $-1 $778 $777 $868 $999 1 $779 $-1 #
edge $1054 $781 $1055 $912 $1056 0 #
loop_type-twe-attrib $-1 $-1 $-1 $779 0 #
face $1057 $1051 $779 $3 $-1 $1058 forward single #
point $-1 0.908624276486465 0.34132691521807 -0.5 #
cur-twe-attrib $-1 $-1 $-1 $782 657 #
edge_name-twe-attrib $-1 $-1 $-1 $784 56 24576 #
vertex $-1 $999 $1059 #
straight-curve $1060 0.658624276432513 0.591326915272022 -0.5 0 0 -1 #
face_name-twe-attrib $-1 $-1 $-1 $786 36 #
cone-surface $1061 0.596124276432513 0.591326915272022 -0.5 0 0 -1 0.0625 0 0 1 0 1 0 #
edge_name-twe-attrib $-1 $-1 $-1 $789 46 8704 #
vertex $-1 $983 $1062 #
ellipse-curve $1063 0.338623277319579 0.278826913147332 -0.5 0 0 -1 0.0625000008331138 0 0 1 #
point $-1 0.276123276486465 0.278826913980445 -0.5 #
cur-twe-attrib $-1 $-1 $-1 $792 666 #
edge_name-twe-attrib $-1 $-1 $-1 $794 50 20480 #
vertex $-1 $867 $1064 #
straight-curve $1065 0.276123276486465 0.591326915272022 -0.5 0 0 -1 #
point $-1 0.338623276486465 0.653826915272022 -1 #
cur-twe-attrib $-1 $-1 $-1 $800 674 #
point $-1 0.596124276432513 0.653826915272022 -1 #
cur-twe-attrib $-1 $-1 $-1 $803 675 #
surf-twe-attrib $-1 $1066 $-1 $805 770 #
point $-1 2.55 1 -0.25 #
cur-twe-attrib $-1 $-1 $-1 $809 682 #
coedge $-1 $961 $811 $956 $1067 0 $482 $-1 #
coedge $-1 $955 $954 $811 $946 1 $694 $-1 #
edge $1068 $948 $1069 $811 $1070 0 #
edge_name-twe-attrib $-1 $-1 $-1 $813 18 8704 #
vertex $-1 $813 $1071 #
straight-curve $1072 1.28806023374422 0.538060233744215 0 0.923879532511286 -0.382683432365091 0 #
point $-1 1.28806023374422 0.538060233744215 0 #
cur-twe-attrib $-1 $-1 $-1 $816 691 #
loop_type-twe-attrib $-1 $-1 $-1 $818 0 #
surf-twe-attrib $-1 $-1 $-1 $819 693 #
coedge $-1 $945 $821 $824 $957 1 $694 $-1 #
coedge $-1 $821 $945 $849 $978 0 $694 $-1 #
coedge $-1 $824 $823 $944 $1067 1 $589 $-1 #
edge $1073 $1069 $959 $954 $1074 0 #
edge_name-twe-attrib $-1 $-1 $-1 $826 34 4608 #
vertex $-1 $826 $1075 #
straight-curve $1076 2.40328148243839 1 -0.25 -0.382683432365089 -0.923879532511287 0 #
coedge $-1 $832 $944 $827 $962 0 $482 $-1 #
edge $1077 $964 $835 $961 $1078 0 #
edge_name-twe-attrib $-1 $-1 $-1 $828 12 8448 #
vertex $-1 $1067 $1079 #
straight-curve $1080 2.40328148243839 1 0 0 0 -1 #
point $-1 2.40328148243839 1 -0.25 #
cur-twe-attrib $-1 $-1 $-1 $831 702 #
edge_name-twe-attrib $-1 $-1 $-1 $833 22 8704 #
straight-curve $1081 2.21193976625579 1.46193976625579 0 -0.923879532511287 0.38268343236509 0 #
point $-1 2.21193976625579 1.46193976625579 0 #
cur-twe-attrib $-1 $-1 $-1 $836 704 #
cur-twe-attrib $-1 $-1 $-1 $840 709 #
edge_name-twe-attrib $-1 $-1 $-1 $845 15 8448 #
straight-curve $1082 1.28806023374422 0.538060233744215 0 0 0 -1 #
surf-twe-attrib $-1 $-1 $-1 $847 719 #
edge_name-twe-attrib $-1 $-1 $-1 $848 35 4608 #
straight-curve $1083 2.21193976625579 0.538060233744215 -0.25 -0.923879532511287 -0.38268343236509 0 #
edge $1084 $948 $851 $849 $1085 0 #
point $-1 1.75 0.346718517561611 -0.25 #
cur-twe-attrib $-1 $-1 $-1 $852 726 #
edge $1086 $935 $861 $866 $1087 0 #
coedge $-1 $910 $1088 $857 $983 1 $1045 $-1 #
edge $1089 $930 $986 $982 $1090 0 #
coedge $-1 $998 $858 $1088 $1091 0 $535 $-1 #
edge_name-twe-attrib $-1 $-1 $-1 $859 84 8704 #
vertex $-1 $859 $1092 #
ellipse-curve $1093 0.338623277319578 0.278826913147332 -1 0 0 1 0.0625000008331138 0 0 1 #
point $-1 0.276123276486465 0.278826913980445 -1 #
cur-twe-attrib $-1 $-1 $-1 $862 738 #
coedge $-1 $1094 $863 $1028 $1095 0 $639 $-1 #
edge $1096 $902 $1035 $863 $1097 0 #
coedge $-1 $864 $1098 $1011 $1099 1 $639 $-1 #
edge $1100 $1018 $905 $864 $1101 0 #
edge_name-twe-attrib $-1 $-1 $-1 $865 89 8704 #
straight-curve $1102 2.90387590238142 0.653826915272022 -1 1 0 0 #
edge_name-twe-attrib $-1 $-1 $-1 $867 82 8704 #
ellipse-curve $1103 0.338623276486464 0.591326915272023 -1 0 0 1 0.0624999999999998 0 0 1 #
coedge $-1 $868 $984 $1048 $1104 0 $535 $-1 #
edge $1105 $1055 $925 $868 $1106 0 #
edge_name-twe-attrib $-1 $-1 $-1 $869 88 8704 #
ellipse-curve $1107 0.596124276432513 0.591326915272022 -1 0 0 1 0.0625 0 0 1 #
cur-twe-attrib $-1 $1108 $-1 $871 865 #
coedge $-1 $1109 $1110 $872 $1004 0 $1111 $-1 #
edge $1112 $1026 $1009 $1003 $1113 0 #
coedge $-1 $1114 $873 $876 $1012 0 $1007 $-1 #
coedge $-1 $873 $1114 $1109 $1115 1 $1007 $-1 #
loop $1116 $-1 $1114 $1117 #
edge_name-twe-attrib $-1 $-1 $-1 $874 62 8704 #
vertex $-1 $1004 $1118 #
ellipse-curve $1119 3.16137690149436 0.278826913147332 -0.5 0 0 -1 0.062500000833114 0 0 1 #
coedge $-1 $876 $875 $992 $1099 0 $877 $-1 #
edge $1120 $879 $1121 $876 $1122 0 #
loop_type-twe-attrib $-1 $-1 $-1 $877 0 #
face $1123 $884 $877 $3 $-1 $1124 reversed single #
point $-1 3.22387690232747 0.278826913980445 -0.5 #
cur-twe-attrib $-1 $-1 $-1 $880 750 #
edge_name-twe-attrib $-1 $-1 $-1 $882 65 20480 #
vertex $-1 $1099 $1125 #
straight-curve $1126 3.22387690232747 0.591326915272022 -0.5 0 0 -1 #
face_name-twe-attrib $-1 $-1 $-1 $884 42 #
cone-surface $1127 3.16137690232747 0.591326915272023 -0.5 0 0 -1 0.0624999999999999 0 0 1 0 1 0 #
coedge $-1 $1128 $887 $1110 $1129 0 $1024 $-1 #
coedge $-1 $887 $1128 $889 $1029 1 $1024 $-1 #
loop $1130 $-1 $1128 $1131 #
edge_name-twe-attrib $-1 $-1 $-1 $888 74 8704 #
vertex $-1 $1129 $1132 #
ellipse-curve $1133 2.59137590232747 0.278826913766143 -0.5 0 0 -1 0.0625000014519264 0 0 1 #
coedge $-1 $890 $889 $990 $1095 1 $891 $-1 #
edge $1134 $893 $1135 $1023 $1136 0 #
loop_type-twe-attrib $-1 $-1 $-1 $891 0 #
face $1137 $1131 $891 $3 $-1 $1138 forward single #
point $-1 2.59137590232747 0.34132691521807 -0.5 #
cur-twe-attrib $-1 $-1 $-1 $894 759 #
edge_name-twe-attrib $-1 $-1 $-1 $896 71 24576 #
vertex $-1 $991 $1139 #
straight-curve $1140 2.84137590238142 0.591326915272022 -0.5 0 0 -1 #
face_name-twe-attrib $-1 $-1 $-1 $898 44 #
cone-surface $1141 2.90387590238142 0.591326915272023 -0.5 0 0 -1 0.0624999999999997 0 0 1 0 1 0 #
point $-1 2.90387590238142 0.653826915272023 -1 #
cur-twe-attrib $-1 $-1 $-1 $903 767 #
point $-1 3.16137690232747 0.653826915272023 -1 #
cur-twe-attrib $-1 $-1 $-1 $906 768 #
surf-twe-attrib $-1 $1142 $-1 $908 770 #
coedge $-1 $1088 $910 $913 $1049 0 $1045 $-1 #
loop $1143 $-1 $982 $1144 #
edge_name-twe-attrib $-1 $-1 $-1 $911 60 8704 #
straight-curve $1145 0.908624276486465 0.216326912314218 -0.5 -1 0 0 #
coedge $-1 $913 $912 $998 $1104 1 $914 $-1 #
edge $1146 $916 $1147 $1044 $1148 0 #
loop_type-twe-attrib $-1 $-1 $-1 $914 0 #
face $1149 $1144 $914 $3 $-1 $1150 reversed single #
point $-1 0.908624276486465 0.216326912314218 -0.5 #
cur-twe-attrib $-1 $-1 $-1 $917 776 #
edge_name-twe-attrib $-1 $-1 $-1 $919 58 24576 #
vertex $-1 $1104 $1151 #
straight-curve $1152 0.908624276486465 0.34132691521807 -0.5 0 0 -1 #
face_name-twe-attrib $-1 $-1 $-1 $921 37 #
cone-surface $1153 0.908624276486465 0.591326915272022 -0.5 0 0 -1 0.250000000053952 0 0 1 0 1 0 #
point $-1 0.658624276432513 0.591326915272022 -1 #
cur-twe-attrib $-1 $-1 $-1 $926 784 #
surf-twe-attrib $-1 $-1 $-1 $928 786 #
point $-1 0.338623276486465 0.216326912314218 -0.5 #
cur-twe-attrib $-1 $-1 $-1 $931 789 #
point $-1 0.276123276486465 0.591326915272023 -1 #
cur-twe-attrib $-1 $-1 $-1 $936 794 #
surf-twe-attrib $-1 $-1 $941 $805 677 #
edge $1154 $1069 $964 $944 $1155 0 #
edge_name-twe-attrib $-1 $-1 $-1 $946 19 8704 #
vertex $-1 $946 $1156 #
straight-curve $1157 1.75 0.346718517561611 0 0.923879532511287 0.38268343236509 0 #
point $-1 1.75 0.346718517561611 0 #
cur-twe-attrib $-1 $-1 $-1 $949 813 #
edge_name-twe-attrib $-1 $-1 $-1 $957 13 8448 #
straight-curve $1158 2.21193976625579 0.538060233744215 0 0 0 -1 #
point $-1 2.21193976625579 0.538060233744215 -0.25 #
cur-twe-attrib $-1 $-1 $-1 $960 826 #
edge_name-twe-attrib $-1 $-1 $-1 $962 21 8704 #
straight-curve $1159 2.40328148243839 1 0 -0.382683432365091 0.923879532511286 0 #
point $-1 2.40328148243839 1 0 #
cur-twe-attrib $-1 $-1 $-1 $965 828 #
cur-twe-attrib $-1 $-1 $-1 $969 833 #
cur-twe-attrib $-1 $-1 $-1 $974 845 #
cur-twe-attrib $-1 $-1 $-1 $977 848 #
edge_name-twe-attrib $-1 $-1 $-1 $978 14 8448 #
straight-curve $1160 1.75 0.346718517561611 0 0 0 -1 #
edge_name-twe-attrib $-1 $-1 $-1 $981 83 8704 #
straight-curve $1161 0.276123276486465 0.591326915272022 -1 0 -1 0 #
coedge $-1 $982 $1044 $984 $1091 1 $1045 $-1 #
edge_name-twe-attrib $-1 $-1 $-1 $983 59 20480 #
straight-curve $1162 0.338623276486465 0.216326912314218 -0.5 0 0 -1 #
edge $1163 $986 $1147 $984 $1164 0 #
point $-1 0.338623276486465 0.216326912314218 -1 #
cur-twe-attrib $-1 $-1 $-1 $987 859 #
coedge $-1 $1165 $990 $1128 $1166 0 $639 $-1 #
edge $1167 $1035 $1135 $990 $1168 0 #
edge_name-twe-attrib $-1 $-1 $-1 $991 90 8704 #
ellipse-curve $1169 2.90387590238142 0.591326915272023 -1 0 0 1 0.0624999999999997 0 0 1 #
coedge $-1 $992 $1165 $1114 $1170 0 $639 $-1 #
edge $1171 $1018 $1121 $992 $1172 0 #
edge_name-twe-attrib $-1 $-1 $-1 $993 96 8704 #
ellipse-curve $1173 3.16137690232747 0.591326915272023 -1 0 0 1 0.0624999999999999 0 0 1 #
cur-twe-attrib $-1 $1174 $-1 $995 865 #
cur-twe-attrib $-1 $-1 $-1 $997 867 #
edge $1175 $1147 $1055 $998 $1176 0 #
edge_name-twe-attrib $-1 $-1 $-1 $999 87 8704 #
ellipse-curve $1177 0.908624276486465 0.591326915272022 -1 0 0 -1 0.250000000053952 0 0 1 #
cur-twe-attrib $-1 $-1 $-1 $1001 869 #
cur-twe-attrib $-1 $-1 $1002 $871 747 #
coedge $-1 $1178 $1003 $1006 $1115 0 $1111 $-1 #
coedge $-1 $1003 $1178 $1022 $1129 1 $1111 $-1 #
loop $1179 $-1 $1178 $1180 #
edge_name-twe-attrib $-1 $-1 $-1 $1004 76 8704 #
straight-curve $1181 2.59137590232747 0.216326912314218 -0.5 1 0 0 #
coedge $-1 $1006 $1005 $1098 $1170 1 $1007 $-1 #
edge $1182 $1009 $1183 $1109 $1184 0 #
loop_type-twe-attrib $-1 $-1 $-1 $1007 0 #
face $1185 $1014 $1007 $3 $-1 $1186 reversed single #
point $-1 3.16137690232747 0.216326912314218 -0.5 #
cur-twe-attrib $-1 $-1 $-1 $1010 874 #
edge_name-twe-attrib $-1 $-1 $-1 $1012 63 20480 #
vertex $-1 $1170 $1187 #
straight-curve $1188 3.22387690232747 0.278826913980445 -0.5 0 0 -1 #
face_name-twe-attrib $-1 $-1 $-1 $1014 41 #
plane-surface $1189 3.22387690232747 0.591326915272022 -0.5 1 0 0 0 0 -1 0 #
point $-1 3.22387690232747 0.591326915272023 -1 #
cur-twe-attrib $-1 $-1 $-1 $1019 882 #
surf-twe-attrib $-1 $-1 $-1 $1021 884 #
coedge $-1 $1023 $1022 $1094 $1166 1 $1024 $-1 #
edge $1190 $1026 $1191 $1110 $1192 0 #
loop_type-twe-attrib $-1 $-1 $-1 $1024 0 #
face $1193 $1180 $1024 $3 $-1 $1194 reversed single #
point $-1 2.59137590232747 0.216326912314218 -0.5 #
cur-twe-attrib $-1 $-1 $-1 $1027 888 #
edge_name-twe-attrib $-1 $-1 $-1 $1029 73 24576 #
vertex $-1 $1095 $1195 #
straight-curve $1196 2.59137590232747 0.34132691521807 -0.5 0 0 -1 #
face_name-twe-attrib $-1 $-1 $-1 $1031 45 #
cone-surface $1197 2.59137590232747 0.591326915272022 -0.5 0 0 -1 0.250000000053952 0 0 1 0 1 0 #
point $-1 2.84137590238142 0.591326915272022 -1 #
cur-twe-attrib $-1 $-1 $-1 $1036 896 #
surf-twe-attrib $-1 $-1 $-1 $1038 898 #
surf-twe-attrib $-1 $-1 $1043 $908 677 #
loop_type-twe-attrib $-1 $-1 $-1 $1045 0 #
face $1198 $1117 $1045 $3 $-1 $1199 forward single #
cur-twe-attrib $-1 $1200 $-1 $1047 1004 #
edge_name-twe-attrib $-1 $-1 $-1 $1049 61 20480 #
vertex $-1 $1091 $1201 #
straight-curve $1202 0.908624276486465 0.216326912314217 -0.5 0 0 -1 #
face_name-twe-attrib $-1 $-1 $-1 $1051 38 #
cone-surface $1203 0.908624276486465 0.278826913766144 -0.5 0 0 -1 0.0625000014519264 0 0 1 0 1 0 #
point $-1 0.908624276486465 0.34132691521807 -1 #
cur-twe-attrib $-1 $-1 $-1 $1056 919 #
surf-twe-attrib $-1 $-1 $-1 $1058 921 #
edge_name-twe-attrib $-1 $-1 $-1 $1067 20 8704 #
straight-curve $1204 2.21193976625579 0.538060233744215 0 0.382683432365089 0.923879532511287 0 #
point $-1 2.21193976625579 0.538060233744215 0 #
cur-twe-attrib $-1 $-1 $-1 $1070 946 #
cur-twe-attrib $-1 $-1 $-1 $1074 957 #
cur-twe-attrib $-1 $-1 $-1 $1078 962 #
cur-twe-attrib $-1 $-1 $-1 $1085 978 #
cur-twe-attrib $-1 $-1 $-1 $1087 981 #
cur-twe-attrib $-1 $-1 $-1 $1090 983 #
edge_name-twe-attrib $-1 $-1 $-1 $1091 85 8704 #
straight-curve $1205 0.338623276486465 0.216326912314218 -1 1 0 0 #
coedge $-1 $1098 $1094 $1178 $1206 1 $639 $-1 #
edge $1207 $1135 $1191 $1094 $1208 0 #
edge_name-twe-attrib $-1 $-1 $-1 $1095 91 8704 #
ellipse-curve $1209 2.59137590232747 0.591326915272022 -1 0 0 -1 0.250000000053952 0 0 1 #
cur-twe-attrib $-1 $-1 $-1 $1097 991 #
edge $1210 $1183 $1121 $1098 $1211 0 #
edge_name-twe-attrib $-1 $-1 $-1 $1099 95 8704 #
straight-curve $1212 3.22387690232747 0.591326915272022 -1 0 -1 0 #
cur-twe-attrib $-1 $-1 $-1 $1101 993 #
cur-twe-attrib $-1 $-1 $1102 $995 747 #
edge_name-twe-attrib $-1 $-1 $-1 $1104 86 8704 #
ellipse-curve $1213 0.908624276486465 0.278826913766144 -1 0 0 1 0.0625000014519265 0 0 1 #
cur-twe-attrib $-1 $-1 $-1 $1106 999 #
coedge $-1 $1110 $1109 $1165 $1206 0 $1111 $-1 #
loop_type-twe-attrib $-1 $-1 $-1 $1111 0 #
face $1214 $429 $1111 $3 $-1 $1215 reversed single #
cur-twe-attrib $-1 $1216 $-1 $1113 1004 #
edge_name-twe-attrib $-1 $-1 $-1 $1115 77 20480 #
vertex $-1 $1206 $1217 #
straight-curve $1218 3.16137690232747 0.216326912314218 -0.5 0 0 -1 #
face_name-twe-attrib $-1 $-1 $-1 $1117 40 #
cone-surface $1219 3.16137690149436 0.278826913147332 -0.5 0 0 -1 0.0625000008331138 0 0 1 0 1 0 #
point $-1 3.22387690232747 0.278826913980445 -1 #
cur-twe-attrib $-1 $-1 $-1 $1122 1012 #
surf-twe-attrib $-1 $-1 $-1 $1124 1014 #
edge_name-twe-attrib $-1 $-1 $-1 $1129 75 20480 #
vertex $-1 $1166 $1220 #
straight-curve $1221 2.59137590232747 0.216326912314217 -0.5 0 0 -1 #
face_name-twe-attrib $-1 $-1 $-1 $1131 46 #
cone-surface $1222 2.59137590232747 0.278826913766143 -0.5 0 0 -1 0.0625000014519262 0 0 1 0 1 0 #
point $-1 2.59137590232747 0.34132691521807 -1 #
cur-twe-attrib $-1 $-1 $-1 $1136 1029 #
surf-twe-attrib $-1 $-1 $-1 $1138 1031 #
face_name-twe-attrib $-1 $-1 $-1 $1144 39 #
plane-surface $1223 0.338623276486465 0.216326912314218 -0.5 0 1 0 0 0 1 0 #
cur-twe-attrib $-1 $-1 $1145 $1047 911 #
point $-1 0.908624276486465 0.216326912314217 -1 #
cur-twe-attrib $-1 $-1 $-1 $1148 1049 #
surf-twe-attrib $-1 $-1 $-1 $1150 1051 #
cur-twe-attrib $-1 $-1 $-1 $1155 1067 #
cur-twe-attrib $-1 $1224 $-1 $1164 1206 #
edge $1225 $1183 $1191 $1165 $1226 0 #
edge_name-twe-attrib $-1 $-1 $-1 $1166 92 8704 #
ellipse-curve $1227 2.59137590232747 0.278826913766143 -1 0 0 1 0.0625000014519262 0 0 1 #
cur-twe-attrib $-1 $-1 $-1 $1168 1095 #
edge_name-twe-attrib $-1 $-1 $-1 $1170 94 8704 #
ellipse-curve $1228 3.16137690149436 0.278826913147332 -1 0 0 1 0.0625000008331138 0 0 1 #
cur-twe-attrib $-1 $-1 $-1 $1172 1099 #
cur-twe-attrib $-1 $-1 $-1 $1176 1104 #
face_name-twe-attrib $-1 $-1 $-1 $1180 47 #
plane-surface $1229 3.16137690232747 0.216326912314218 -0.5 0 -1 0 0 0 -1 0 #
cur-twe-attrib $-1 $-1 $1181 $1113 911 #
point $-1 3.16137690232747 0.216326912314218 -1 #
cur-twe-attrib $-1 $-1 $-1 $1184 1115 #
surf-twe-attrib $-1 $-1 $-1 $1186 1117 #
point $-1 2.59137590232747 0.216326912314217 -1 #
cur-twe-attrib $-1 $-1 $-1 $1192 1129 #
surf-twe-attrib $-1 $-1 $-1 $1194 1131 #
surf-twe-attrib $-1 $1230 $-1 $1199 1180 #
cur-twe-attrib $-1 $-1 $1205 $1164 1091 #
edge_name-twe-attrib $-1 $-1 $-1 $1206 93 8704 #
straight-curve $1231 3.16137690232747 0.216326912314218 -1 -1 0 0 #
cur-twe-attrib $-1 $-1 $-1 $1208 1166 #
cur-twe-attrib $-1 $-1 $-1 $1211 1170 #
surf-twe-attrib $-1 $1232 $-1 $1215 1180 #
surf-twe-attrib $-1 $-1 $1223 $1199 1144 #
cur-twe-attrib $-1 $1233 $-1 $1226 1206 #
surf-twe-attrib $-1 $-1 $1229 $1215 1144 #
cur-twe-attrib $-1 $-1 $1231 $1226 1091 #
