  0
SECTION
  2
HEADER
  9
$ACADVER
  1
AC1009
  9
$INSBASE
 10
0.0
 20
0.0
 30
0.0
  9
$EXTMIN
 10
0.0
 20
0.0
 30
0.0
  9
$EXTMAX
 10
8.0
 20
9.0
 30
4.0
  9
$LIMMIN
 10
0.0
 20
0.0
  9
$LIMMAX
 10
12.0
 20
9.0
  9
$ORTHOMODE
 70
     0
  9
$REGENMODE
 70
     1
  9
$FILLMODE
 70
     1
  9
$QTEXTMODE
 70
     0
  9
$MIRRTEXT
 70
     1
  9
$DRAGMODE
 70
     2
  9
$LTSCALE
 40
1.0
  9
$OSMODE
 70
     0
  9
$ATTMODE
 70
     1
  9
$TEXTSIZE
 40
0.2
  9
$TRACEWID
 40
0.05
  9
$TEXTSTYLE
  7
STANDARD
  9
$CLAYER
  8
0
  9
$CELTYPE
  6
BYLAYER
  9
$CECOLOR
 62
   256
  9
$DIMSCALE
 40
1.0
  9
$DIMASZ
 40
0.18
  9
$DIMEXO
 40
0.0625
  9
$DIMDLI
 40
0.38
  9
$DIMRND
 40
0.0
  9
$DIMDLE
 40
0.0
  9
$DIMEXE
 40
0.18
  9
$DIMTP
 40
0.0
  9
$DIMTM
 40
0.0
  9
$DIMTXT
 40
0.18
  9
$DIMCEN
 40
0.09
  9
$DIMTSZ
 40
0.0
  9
$DIMTOL
 70
     0
  9
$DIMLIM
 70
     0
  9
$DIMTIH
 70
     1
  9
$DIMTOH
 70
     1
  9
$DIMSE1
 70
     0
  9
$DIMSE2
 70
     0
  9
$DIMTAD
 70
     0
  9
$DIMZIN
 70
     0
  9
$DIMBLK
  1

  9
$DIMASO
 70
     1
  9
$DIMSHO
 70
     1
  9
$DIMPOST
  1

  9
$DIMAPOST
  1

  9
$DIMALT
 70
     0
  9
$DIMALTD
 70
     2
  9
$DIMALTF
 40
25.4
  9
$DIMLFAC
 40
1.0
  9
$DIMTOFL
 70
     0
  9
$DIMTVP
 40
0.0
  9
$DIMTIX
 70
     0
  9
$DIMSOXD
 70
     0
  9
$DIMSAH
 70
     0
  9
$DIMBLK1
  1

  9
$DIMBLK2
  1

  9
$DIMSTYLE
  2
*UNNAMED
  9
$DIMCLRD
 70
     0
  9
$DIMCLRE
 70
     0
  9
$DIMCLRT
 70
     0
  9
$DIMTFAC
 40
1.0
  9
$DIMGAP
 40
0.09
  9
$LUNITS
 70
     2
  9
$LUPREC
 70
     4
  9
$SKETCHINC
 40
0.1
  9
$FILLETRAD
 40
0.0
  9
$AUNITS
 70
     0
  9
$AUPREC
 70
     0
  9
$MENU
  1
acad
  9
$ELEVATION
 40
0.0
  9
$PELEVATION
 40
0.0
  9
$THICKNESS
 40
0.0
  9
$LIMCHECK
 70
     0
  9
$BLIPMODE
 70
     1
  9
$CHAMFERA
 40
0.0
  9
$CHAMFERB
 40
0.0
  9
$SKPOLY
 70
     0
  9
$TDCREATE
 40
2449378.612587129
  9
$TDUPDATE
 40
2449378.617769421
  9
$TDINDWG
 40
0.0051822917
  9
$TDUSRTIMER
 40
0.0051822917
  9
$USRTIMER
 70
     1
  9
$ANGBASE
 50
0.0
  9
$ANGDIR
 70
     0
  9
$PDMODE
 70
     0
  9
$PDSIZE
 40
0.0
  9
$PLINEWID
 40
0.0
  9
$COORDS
 70
     1
  9
$SPLFRAME
 70
     0
  9
$SPLINETYPE
 70
     6
  9
$SPLINESEGS
 70
     8
  9
$ATTDIA
 70
     0
  9
$ATTREQ
 70
     1
  9
$HANDLING
 70
     1
  9
$HANDSEED
  5
6F
  9
$SURFTAB1
 70
     6
  9
$SURFTAB2
 70
     6
  9
$SURFTYPE
 70
     6
  9
$SURFU
 70
     6
  9
$SURFV
 70
     6
  9
$UCSNAME
  2

  9
$UCSORG
 10
0.0
 20
0.0
 30
0.0
  9
$UCSXDIR
 10
1.0
 20
0.0
 30
0.0
  9
$UCSYDIR
 10
0.0
 20
1.0
 30
0.0
  9
$PUCSNAME
  2

  9
$PUCSORG
 10
0.0
 20
0.0
 30
0.0
  9
$PUCSXDIR
 10
1.0
 20
0.0
 30
0.0
  9
$PUCSYDIR
 10
0.0
 20
1.0
 30
0.0
  9
$USERI1
 70
     0
  9
$USERI2
 70
     0
  9
$USERI3
 70
     0
  9
$USERI4
 70
     0
  9
$USERI5
 70
     0
  9
$USERR1
 40
0.0
  9
$USERR2
 40
0.0
  9
$USERR3
 40
0.0
  9
$USERR4
 40
0.0
  9
$USERR5
 40
0.0
  9
$WORLDVIEW
 70
     1
  9
$SHADEDGE
 70
     3
  9
$SHADEDIF
 70
    70
  9
$TILEMODE
 70
     1
  9
$MAXACTVP
 70
    16
  9
$PINSBASE
 10
0.0
 20
0.0
 30
0.0
  9
$PLIMCHECK
 70
     0
  9
$PEXTMIN
 10
1.000000E+20
 20
1.000000E+20
 30
1.000000E+20
  9
$PEXTMAX
 10
-1.000000E+20
 20
-1.000000E+20
 30
-1.000000E+20
  9
$PLIMMIN
 10
0.0
 20
0.0
  9
$PLIMMAX
 10
12.0
 20
9.0
  9
$UNITMODE
 70
     0
  9
$VISRETAIN
 70
     0
  9
$PLINEGEN
 70
     0
  9
$PSLTSCALE
 70
     1
  9
$TREEDEPTH
 70
  3020
  9
$DWGCODEPAGE
  3
ascii
  0
ENDSEC
  0
SECTION
  2
TABLES
  0
TABLE
  2
VPORT
 70
     2
  0
VPORT
  2
*ACTIVE
 70
     0
 10
0.0
 20
0.0
 11
1.0
 21
1.0
 12
7.896686
 22
4.951264
 13
0.0
 23
0.0
 14
1.0
 24
1.0
 15
0.0
 25
0.0
 16
0.0
 26
0.0
 36
1.0
 17
0.0
 27
0.0
 37
0.0
 40
9.902529
 41
1.594883
 42
50.0
 43
0.0
 44
0.0
 50
0.0
 51
0.0
 71
     0
 72
   100
 73
     1
 74
     1
 75
     0
 76
     0
 77
     0
 78
     0
  0
ENDTAB
  0
TABLE
  2
LTYPE
 70
     1
  0
LTYPE
  2
CONTINUOUS
 70
    64
  3
Solid line
 72
    65
 73
     0
 40
0.0
  0
ENDTAB
  0
TABLE
  2
LAYER
 70
     2
  0
LAYER
  2
0
 70
    64
 62
     7
  6
CONTINUOUS
  0
LAYER
  2
AME_FRZ
 70
    65
 62
     7
  6
CONTINUOUS
  0
ENDTAB
  0
TABLE
  2
STYLE
 70
     1
  0
STYLE
  2
STANDARD
 70
     0
 40
0.0
 41
1.0
 50
0.0
 71
     0
 42
0.2
  3
txt
  4

  0
ENDTAB
  0
TABLE
  2
VIEW
 70
     0
  0
ENDTAB
  0
TABLE
  2
UCS
 70
     0
  0
ENDTAB
  0
TABLE
  2
APPID
 70
     3
  0
APPID
  2
ACAD
 70
    64
  0
APPID
  2
AME_SOL
 70
    64
  0
APPID
  2
AVE_INVOKE
 70
    64
  0
ENDTAB
  0
TABLE
  2
DIMSTYLE
 70
     0
  0
ENDTAB
  0
ENDSEC
  0
SECTION
  2
BLOCKS
  0
BLOCK
  8
0
  5
1
  2
AME_NIL
 70
    64
 10
0.0
 20
0.0
 30
0.0
  1
AME_NIL
  3
AME_NIL
  0
ENDBLK
  8
0
  5
2
  0
BLOCK
  8
0
  5
4
  2
AME_SOL
 70
    64
 10
0.0
 20
0.0
 30
0.0
  1
AME_SOL
  3
AME_SOL
  0
ENDBLK
  8
0
  5
5
  0
BLOCK
  8
0
  5
49
  2
*U6
 70
    65
 10
0.0
 20
0.0
 30
0.0
  1
*U
  3
*U
  0
LINE
  8
0
 62
     7
  5
4A
 10
4.0
 20
9.0
 30
0.0
 11
4.0
 21
9.0
 31
4.0
1001
AME_SOL
1070
     1
1071
       38
  0
LINE
  8
0
 62
     7
  5
4B
 10
4.0
 20
9.0
 30
4.0
 11
4.0
 21
7.0
 31
4.0
1001
AME_SOL
1070
     1
1071
       37
  0
LINE
  8
0
 62
     7
  5
4C
 10
0.0
 20
9.0
 30
4.0
 11
4.0
 21
9.0
 31
4.0
1001
AME_SOL
1070
     1
1071
       36
  0
LINE
  8
0
 62
     7
  5
4D
 10
0.0
 20
9.0
 30
0.0
 11
0.0
 21
9.0
 31
4.0
1001
AME_SOL
1070
     1
1071
       35
  0
LINE
  8
0
 62
     7
  5
4E
 10
0.0
 20
9.0
 30
4.0
 11
0.0
 21
0.0
 31
4.0
1001
AME_SOL
1070
     1
1071
       34
  0
LINE
  8
0
 62
     7
  5
4F
 10
4.0
 20
7.0
 30
4.0
 11
4.0
 21
7.0
 31
0.0
1001
AME_SOL
1070
     1
1071
       33
  0
LINE
  8
0
 62
     7
  5
50
 10
3.0
 20
7.0
 30
4.0
 11
4.0
 21
7.0
 31
4.0
1001
AME_SOL
1070
     1
1071
       32
  0
LINE
  8
0
 62
     7
  5
51
 10
0.0
 20
9.0
 30
0.0
 11
0.0
 21
0.0
 31
0.0
1001
AME_SOL
1070
     1
1071
       31
  0
LINE
  8
0
 62
     7
  5
52
 10
4.0
 20
7.0
 30
0.0
 11
4.0
 21
9.0
 31
0.0
1001
AME_SOL
1070
     1
1071
       30
  0
LINE
  8
0
 62
     7
  5
53
 10
4.0
 20
9.0
 30
0.0
 11
0.0
 21
9.0
 31
0.0
1001
AME_SOL
1070
     1
1071
       29
  0
LINE
  8
0
 62
     7
  5
54
 10
3.0
 20
7.0
 30
0.0
 11
4.0
 21
7.0
 31
0.0
1001
AME_SOL
1070
     1
1071
       28
  0
LINE
  8
0
 62
     7
  5
55
 10
8.0
 20
4.0
 30
0.0
 11
8.0
 21
0.0
 31
0.0
1001
AME_SOL
1070
     1
1071
       27
  0
LINE
  8
0
 62
     7
  5
56
 10
8.0
 20
0.0
 30
4.0
 11
8.0
 21
4.0
 31
4.0
1001
AME_SOL
1070
     1
1071
       26
  0
LINE
  8
0
 62
     7
  5
57
 10
8.0
 20
0.0
 30
0.0
 11
0.0
 21
0.0
 31
0.0
1001
AME_SOL
1070
     1
1071
       25
  0
LINE
  8
0
 62
     7
  5
58
 10
0.0
 20
0.0
 30
0.0
 11
0.0
 21
0.0
 31
4.0
1001
AME_SOL
1070
     1
1071
       24
  0
LINE
  8
0
 62
     7
  5
59
 10
8.0
 20
0.0
 30
4.0
 11
8.0
 21
0.0
 31
0.0
1001
AME_SOL
1070
     1
1071
       23
  0
LINE
  8
0
 62
     7
  5
5A
 10
0.0
 20
0.0
 30
4.0
 11
8.0
 21
0.0
 31
4.0
1001
AME_SOL
1070
     1
1071
       22
  0
LINE
  8
0
 62
     7
  5
5B
 10
3.0
 20
4.732051
 30
0.0
 11
3.0
 21
7.0
 31
0.0
1001
AME_SOL
1070
     1
1071
       21
  0
LINE
  8
0
 62
     7
  5
5C
 10
3.0
 20
7.0
 30
4.0
 11
3.0
 21
4.732051
 31
4.0
1001
AME_SOL
1070
     1
1071
       20
  0
LINE
  8
0
 62
     7
  5
5D
 10
3.0
 20
7.0
 30
4.0
 11
3.0
 21
7.0
 31
0.0
1001
AME_SOL
1070
     1
1071
       19
  0
LINE
  8
0
 62
     7
  5
5E
 10
8.0
 20
4.0
 30
0.0
 11
5.732051
 21
4.0
 31
0.0
1001
AME_SOL
1070
     1
1071
       18
  0
LINE
  8
0
 62
     7
  5
5F
 10
8.0
 20
4.0
 30
4.0
 11
8.0
 21
4.0
 31
0.0
1001
AME_SOL
1070
     1
1071
       17
  0
LINE
  8
0
 62
     7
  5
60
 10
5.732051
 20
4.0
 30
4.0
 11
8.0
 21
4.0
 31
4.0
1001
AME_SOL
1070
     1
1071
       16
  0
ARC
  8
0
 62
     7
  5
61
 10
4.0
 20
3.0
 30
0.0
 40
2.0
 50
120.0
 51
30.0
1001
AME_SOL
1070
     1
1071
       15
  0
LINE
  8
0
 62
     7
  5
62
 10
5.732051
 20
4.0
 30
0.0
 11
5.732051
 21
4.0
 31
4.0
1001
AME_SOL
1070
     1
1071
       14
  0
LINE
  8
0
 62
     7
  5
63
 10
3.0
 20
4.732051
 30
0.0
 11
3.0
 21
4.732051
 31
4.0
1001
AME_SOL
1070
     1
1071
       13
  0
ARC
  8
0
 62
     7
  5
64
 10
4.0
 20
3.0
 30
4.0
 40
2.0
 50
120.0
 51
30.0
1001
AME_SOL
1070
     1
1071
       12
  0
LINE
  8
0
 62
     7
  5
65
 10
2.0
 20
3.0
 30
0.0
 11
2.0
 21
3.0
 31
4.0
1001
AME_SOL
1070
     0
1071
        1
  0
LINE
  8
0
 62
     7
  5
66
 10
4.0
 20
1.0
 30
0.0
 11
4.0
 21
1.0
 31
4.0
1001
AME_SOL
1070
     0
1071
        1
  0
LINE
  8
0
 62
     7
  5
67
 10
6.0
 20
3.0
 30
0.0
 11
6.0
 21
3.0
 31
4.0
1001
AME_SOL
1070
     0
1071
        1
  0
ENDBLK
  8
0
  5
68
  0
BLOCK
  8
0
  5
6C
  2
AME_JNK
 70
     0
 10
0.0
 20
0.0
 30
0.0
  1
AME_JNK
  3
AME_JNK
  0
ENDBLK
  8
0
  5
6D
  0
ENDSEC
  0
SECTION
  2
ENTITIES
  0
INSERT
  8
AME_FRZ
  5
3
  2
AME_NIL
 10
0.0
 20
0.0
 30
0.0
  0
INSERT
  8
AME_FRZ
  5
6
  2
AME_SOL
 10
0.0
 20
0.0
 30
0.0
1001
AME_SOL
1000
R2.1
1000
AME2
1000
sq cm
1070
     3
1070
     0
1070
     3
1000
wire
1040
45.0
1000
U
1040
1.0
1000
cm
1000
gm
1000
MILD_STEEL
1070
    25
1000
CSG
1070
     1
1070
     3
1070
     3
1070
     3
1070
     0
1000
cu cm
1070
     1
1070
     0
1005
3
  0
INSERT
  8
AME_FRZ
  5
15
  2
AME_NIL
 10
0.0
 20
7.0
 30
0.0
1001
AME_SOL
1002
{
1070
     1
1071
  2317024
1070
  1536
1070
     1
1010
4.0
1020
2.0
1030
4.0
1005
0
1005
0
1005
46
1040
0.0
1040
1.0
1070
     0
1000
MILD_STEEL
1000
0
1010
0.0
1020
7.0
1030
0.0
1010
0.0
1020
0.0
1030
1.0
1040
0.0
1002
}
1001
AVE_INVOKE
1000
SOLAVEMESH
  0
INSERT
  8
AME_FRZ
  5
26
  2
AME_NIL
 10
0.0
 20
0.0
 30
0.0
1001
AME_SOL
1002
{
1070
     1
1071
  2479376
1070
  1536
1070
     1
1010
8.0
1020
7.0
1030
4.0
1005
0
1005
0
1005
46
1040
0.0
1040
1.0
1070
     0
1000
MILD_STEEL
1000
0
1010
0.0
1020
0.0
1030
0.0
1010
0.0
1020
0.0
1030
1.0
1040
0.0
1002
}
1001
AVE_INVOKE
1000
SOLAVEMESH
  0
INSERT
  8
AME_FRZ
  5
37
  2
AME_NIL
 10
3.0
 20
4.0
 30
0.0
1001
AME_SOL
1002
{
1070
     1
1071
  2492056
1070
  1536
1070
     1
1010
5.0
1020
3.0
1030
4.0
1005
0
1005
0
1005
47
1040
0.0
1040
1.0
1070
     0
1000
MILD_STEEL
1000
0
1010
3.0
1020
4.0
1030
0.0
1010
0.0
1020
0.0
1030
1.0
1040
0.0
1002
}
1001
AVE_INVOKE
1000
SOLAVEMESH
  0
INSERT
  8
AME_FRZ
  5
43
  2
AME_NIL
 10
4.0
 20
3.0
 30
0.0
1001
AME_SOL
1002
{
1070
     1
1071
  2488416
1070
  1538
1070
     1
1010
2.0
1020
2.0
1030
4.0
1005
0
1005
0
1005
47
1040
0.0
1040
1.0
1070
     0
1000
MILD_STEEL
1000
0
1010
4.0
1020
3.0
1030
0.0
1010
0.0
1020
0.0
1030
1.0
1040
0.0
1002
}
1001
AVE_INVOKE
1000
SOLAVEMESH
  0
INSERT
  8
AME_FRZ
  5
46
  2
AME_NIL
 10
0.0
 20
0.0
 30
0.0
1001
AME_SOL
1002
{
1070
     1
1071
  2419600
1070
   775
1070
     0
1070
     2
1005
15
1005
26
1005
0
1005
0
1005
69
1040
0.0
1040
1.0
1070
     0
1000
MILD_STEEL
1000
0
1010
0.0
1020
0.0
1030
0.0
1010
0.0
1020
0.0
1030
1.0
1040
0.0
1002
}
  0
INSERT
  8
AME_FRZ
  5
47
  2
AME_NIL
 10
0.0
 20
0.0
 30
0.0
1001
AME_SOL
1002
{
1070
     1
1071
  2413904
1070
   775
1070
     0
1070
     2
1005
37
1005
43
1005
0
1005
0
1005
69
1040
0.0
1040
1.0
1070
     0
1000
MILD_STEEL
1000
0
1010
0.0
1020
0.0
1030
0.0
1010
0.0
1020
0.0
1030
1.0
1040
0.0
1002
}
  0
INSERT
  8
0
  5
69
  2
*U6
 10
0.0
 20
0.0
 30
0.0
1001
AME_SOL
1002
{
1070
     1
1071
  2406048
1070
  1543
1070
     1
1070
     0
1005
46
1005
47
1005
0
1005
6A
1005
0
1040
0.0
1040
1.0
1070
     0
1000
MILD_STEEL
1000
0
1002
}
1001
AVE_INVOKE
1000
SOLAVEMESH
  0
INSERT
  8
AME_FRZ
  5
6A
  2
AME_NIL
 10
1.0
 20
1.0
 30
1.0
1001
AME_SOL
1004
C7CF010029019401930191018D0185017901FE006A0120005801D9004101CE0016007A01A0006B0159014201F2002E01FA00F70043012F01E800580030011A0112001A001B012F003000C0008601010002008E0187017B016C015A01440131011C01F40038001D013D00D70032011E019C0085001F016200
1004
0C01A90017000F005B0125004501B00021006D015C014601DF00F8004701F500F3005D01A400EE007C0128006E015E01A8004801E400BC005F014901700079004A017800EF0088017D0184006F01960005007E0170017500600106004B015B008200240092018F0189017F01BF00710161014C01D100AF00
1004
4D01330154001B003401FC002D00800080017201140062014E013501440020010300C900360121011300150022017A002C004F01370123019E0036002401BA00B600380125014C000D011900A60026010E01A70026000F012B00DB00730150000C008A018101F00010008201740163015001390127011001
1004
49004F001101D000740028011201560060001301B30066003A0129011401680001010001270015010201F10092000301950052002A011601040159005C0005015D008C00170106018B005E00070189008800E7007F00750164011C0051010400ED00650152013B012B0118010801870086000901C800C200
1004
19010A01C100BE000B018100BD008D003C01EA00D2004E0090018B0183013F0076016601EB005301E000CF00670154013D019400F9003E01DA0098005F0040008C01840177010A00680155010B00FB00560193003F012C011F005700070078016901080057012200400190002D014D0009001800FF000000
1004
5E9292F4948839CA2A2CF7BF58B866E48B8CA0807BB310194100F76620328201EECC41C163D83A3609AE42C7B0746DD4D4899EB53B855A2EE50C2EA46407071037B041969B9044497D8194100F7662095533D6A770EDA9133D6A77091A9133D6A770AB455E97D5758FBDF8A1B85AF4BFFEA31FFFFFFFA8C7
1004
FFEAB45F746FF9BFF6FF6FFFFFFAF4BFFEA31FFFFFFFA8C7FFEAB45F746FF9BFF6FF6FFFFFEA20EB97AF3473FD463FFFFFFF518FF51EF7BDE42DFD237FC73B16CB45D3B970BC483B16CB45D3B970BCCE2FEEB97A173473FD463FFFFFFF518FF17DDB45F746FF8E762D968BA772E17890762D968BA772E179
1004
9FFC7CEC5B2D174EE5C2F123FFF55A762D968BA772E1799C5FFFF55A3A2007BD1003DE2FFFFAAD75CBD0F9A39FEA31FFFFFFFA8C7FA8F7BDEF2168FEA31FE39D8B65A2E9DCB85E241D8B65A2E9DCB85E67FF1F3B16CB45D3B970BC48FFFD569D8B65A2E9DCB85E6717FFFD568E8801EF4400F78BFFFEAB5D
1004
72F494B9A39FEA31FFFFFFFA8C7FFF682FBA37FC73B16CB45D3B970BC483B16CB45D3B970BCCFFE3E762D968BA772E17891FFFAAD3B16CB45D3B970BCCE2FFFFAAD1D1003DE8801EF17FFFD56B9430BAB34CE2ACB239ED066715659085A328201EECC41C163D83A3609A9133D6A770AB52267AD4EE1568A6
1004
2F84BC9F7BF1562C2CC5FFF518FFFFFFFFFD4605F746FEAB7FCDFFFFFFFFFFCC5FFF518FFFFFFFFFD4605F746FEAB7FCDFFFFFFFFFF51072861756699C5596473DA0CCE2ACB210B4650403DD98814100F7691D1A9133D6A770B8D4899EB53B855A298BECA72115EFC5660598BFFFFFFEA31FFFA8C7F8BEE8
1004
DFD56FF9BFFFFFFFFFF98BFFFFFFEA31FFFA8C7F8BEE8DFD56FF9BFFFFFFFFFEA20E50C2EA328201EECC40650403DD9880CA0807BB3107058F60E8D8268CA0807BB3184899EB53B855A298BE1D9B228B8AB1A1E62FFFA8C7FFFFFFFFEA31FFFFFE6FFFFFFFFFFE62FFFA8C7FFFFFFFFEA31FFFFFE6FFFFFF
1004
FFFFA8C39430BAAED13464B2539C68CA0807BB310194100F76620E0B1EC1D1B04D07A67AD4EE171A9133D6A770AB45317D5071F17156303CC5FFFA3FD443FA3FE8FFA3FD443F04D1FD71BFAAD37FFFFFFFFFF317FFE8FF510FE8FFA3FE8FF510FC1347F5C6FEAB4DFFFFFFFFFF51872861D7C650403DD988
1004
0CA0807BB310194100F76620E0B1EC1D1B04D07A67AD4EE171A328201EECC605317CA659F171D63A3CC5FFFFF518FFFD463FFFFFFFFFCDFFFFFFFFFFD7863CC5FFFFF518FFFD463FFFFFC5F5C6FF9BFFFFFFFFFF98BFFFFEA31FFFA8C7FFFFF8BEB8DFF37FFFFFFFFFD461CA185D59A67156591CF6AED134
1004
64B2522AD194100F76620E0B1EC1D1B04D4899EB53B85C6A44CF5A9DC2AD14C5F65220F8B8EB151662FFFD1FF47FA887EA21FD1FF47F826FEB8DFD569BFFFFFFFFFFAF10798BFFEA31FFFFFFFFFA8C7F8BEB8DFF37FFFFFFFFFF317FFD463FFFFFFFFF518FF17D71BFE6FFFFFFFFFFA8C39430BA8CA0807B
1004
B310194100F76620328201EECC40650403DD98C03D33D6A770B8D4899EB53B855A298BE495ECF8B8EB191E62FFFFFFFA8C7FFEA31FFFFFFFE6FFFFFFFFFFE1C798BFFFFFFEA31FFFA8C7FFF8BEB8DFF37FFFFFFFFFF317FFFFFFD463FFF518FFFF17D71BFE6FFFFFFFFFFA8C39430EBE328201EECC406504
1004
03DD98803338AB2C842D7058F60E8D82683D33D6A770B8D4899EB53B855A298BEE8E63E2E39D8798BFFEA21FD1FF47FD1FEA21FD1FE09A3FAE37F55A6FFFFFFFFFFE80F317FFD443FA3FE8FFA3FD443FA3FD56FEEA6FEAB4DFFFFFFFFFFCC5FFF510FE8FFA3FE8FF510FE8FF55A2FBA9BFAAD37FFFFFFFFF
1004
D461CA185D4650403DD988066E761D990C88ED194100F766209133D6A770AB5C858F60E8DBA9A9133D6A770AB45317C13307C5C55E28F317FFE8FFA3FD443F510FE8FFA3FD56FEEA6FEAB4DFFFFFFFFFFCC5FFFA3FE8FF510FD443FA3FE8FF55A2FBA9BFAAD37FFFFFFFFFD461CA185D4199C55964216AED
1004
13464B2522AD194100F766209133D6A770AB5C858F60E8DBA9A9133D6A770AB45317C8C5F3E2E2AF1C798BFFF47FA887F47FD1FF47FA887EAB7F7537F55A6FFFFFFFFFFE62FFFD1FEA21FD1FF47FD1FEA21FAAD17DD4DFD569BFFFFFFFFFEA304C4E46407071037B041969B9044497D8066715659085A955
1004
33D6A770EDA9133D6A77091A9133D6A770AB4A45D28451CA4775E1D2CA2E94228E523B32C0E8B1C55D72C4F8AF7AAEB1F74731FC774731F55D63E2EF7BDE8B1CCD3DEF7BC90C2534B81A8689592DB221FE94D2E06A1A2564B6C8C1A7BDEF79218FE8FF55A2FBA37F55ABAFF6FF6948BA508A3948EEBC3A59
1004
45D28451CA47665826276699C5596473DA0CCE2ACB210B4650403DD98814100F7691D1A9133D6A77091A9133D6A770AB7FFF55A39A384056287F15EF55D63ECA721171D94E422AAEB1F7BDEF7BDEF3473FD463FFFFFFF518FF17DD1A95D2A03D2D2585D86C6FF8FFFFAAD26276699C5596473DA0CCE2ACB2
1004
10B4650403DD9882554CF5A9DC3B6A44CF5A9DC2AD4899EB53B855BFFFAAD1CD1C5880C1FDEF155758F84BC9FC755D63E12F27DEF7BDEF7BCD1CFF518FFFFFFFD463FD2BA5407A5A4B0BB07B7F55BFE3FFFEAB4989C8C80E0E206F60832D37208892FB0328201EECC412AA67AD4EE1DB52267AD4EE123465
1004
0403DD98C148BA508A3948EEBC3A5945D28451CA4766581D16394BA2BBDE2AAEB1F29967F1D5758F94CB3EF7BDE2E8B1CCD3DEF7BC90C2534B81A8689592DB221FE94D2E06A1A2564B6C8C1A7BDEF79218FE8FF55A2FBA37FD75FEDFED29174A1147291DD7874B28BA508A3948ECCB04C4ECD338AB2C8E7B
1004
4199C5596421683338AB2C842D7058F60E8D826A44CF5A9DC2AD4899EB53B855AB0897A95D60C8125F89BF86C68E68E1012007F15EF09793EE8E63F8EE8E63E12F27C5DEF7BCD1CFFFFFF518FFFD443FC5F4EDFD56FEAB475844BD4AEB064092FC4DFC3634989D7689A325929CE34199C559642168CA0807
1004
BB3107058F60E8D826A44CF5A9DC2AD4899EB53B855BFC3FF68E68E101249FC57BC25E4FAA0E3F8EA838F84BC9F177BDEF3473FD463FFFFFFF510FFFC137F55BFDA3FF0FFDA4C4ECD338AB2C8E7B4199C559642168CA0807BB3107058F60E8D826A44CF5A9DC2AD194100F76631F86D0E97C9501E9692C2E
1004
D50E39A38B10CC9FC57BC25E4F94CB3F8E532CF84BC9F177BDEF3473FFFFFD443FFF510FF17C92C7EAB7FC7FC36874BE4A80F4B496176A8726276699C5596473DABB44D192C948AB4650403DD98814100F7691D1A9133D6A770B8D4899EB53B855BFAA1FFA31CD1C66C323FBDE2B29C84565220FE3B29C84
1004
565220FBDEF78B9A39FFFEA21FFFA887FFF8BEE8D17D71BFE3FEA87FE8C989D9A67156591CF683338AB2C842D066715659085A50403DDA4746A44CF5A9DC2E352267AD4EE1569007BDEF792100D56192F083C82AC022CC0E68E2F09CA7F15EF653908AE8E63F8EE8E63ECA721145DEF7BCD1CFFFFFF518FD
1004
443FFFC5F7468FE1B5BFAAD1C803DEF7BC90806AB0C97841E4156011660989D9A67156591CF683338AB2C842D194100F7662050403DDA4746A44CF5A9DC2E34650403DD98C25DAC3AC086E70E60D1017C92C0E68E118445C57BD94E42294CB3F8E532CFB29C845177BDEF3473FFFFFD443F510FFFF17DD1B
1004
F83DBFE3A5DAC3AC086E70E60D1017C92C13138CA0807BB310194100F766200CCE2ACB210B5C163D83A3609A328201EECC612267AD4EE156FF0E2FBB68E68E328645DEF143B364574731FC70ECD915D1CC7C5C5CD1CFFFFFF518FFFD443FFFB7FFF55A3FF0E2FBB69313AED13464B2539C68CA0807BB3101
1004
94100F76620E0B1EC1D1B04D194100F766309133D6A770AB7F87FED1CD1C5824A445DEF143B3645541C7F1C3B3645541C7C5C5CD1CFF518FFFFFFFD443FFF04DFFFED1FF87FED2627194100F76620328201EECC40650403DD9880CA0807BB318194100F766309133D6A770AB7FFF55A39A393645DEF143B3
1004
64524AF67F1C3B364524AF67C5C5CD1CFF510FFFFFFFD443FFFFFFFC7FFFD5693138CA0807BB310194100F76620328201EECC41C163D83A3609A328201EECC60650403DD98C7E083FF4639A381BCE88BBDE28766C8A532CFE38766C8A532CF8B8B9A39FFFFFEA21FFFA887FFFFFFF8FF820FFD19313AED13
1004
464B2539C68CA0807BB310066715659085AE0B1EC1D1B04D07A67AD4EE171A9133D6A770AB45F041C7F5438E68E2C2B9E45DEF155071F74731FC7541C7DD1CC7C5C5CD1CFFFFFF518FD463FFFFF04D17C137F55A38BE0838FEA8726275DA268C964A738D194100F76620328201EECC41C163D83A3609A0F4
1004
CF5A9DC2E34650403DD98C2EBEE8D1FD71A39A38EB3A1177BC5541C7CA659FC7541C7CA659F17173473FFFFFD443F518FFFFFC1347F5C6FF8EBAFBA347F5C693138CA0807BB3105DA268C964A455A328201EECC41C163D83A3609A9133D6A770B8D194100F766302FBA37F55A39A3812F18FEF78A532CFB2
1004
9107F1CA659F65220F8B8B9A39FFFEA21FFFFFFFA887F8BEB8DFF1C5F746FEAB4989C650403DD988066E761D990C88ED194100F766209133D6A770AB5C858F60E8DBA9A328201EECC63F87FED1CD1C5823B9FDEF14A659F04CC1FC729967C13307C5C5CD1CFFFF518FFFFFFFD443FB45F7537FC7FE1FFB49
1004
89C199C55964216AED13464B2522AD194100F766209133D6A770AB5C858F60E8DBA9A328201EECC6007BDEF797D05D7D4607347261FDEF14A659F2317CFE394CB3E462F9F17173473FD463FFFFFFFFF510FD56FE09BFE380F7BDEF2FA0BAFA8C13138CA0807BB310194100F76620328201EECC40650403DD
1004
98C390B1EC1D1B7534650403DD98C0FF0E2FAE3473470379053FBDE294CB3E495ECFE394CB3E495ECF8B8B9A39FEA21FFFFFFFFFA887F8BEB8DFF1C7F8717D71A4C4E328201EECC417689A32592915683338AB2C842D7058F60E8D826A44CF5A9DC2E352267AD4EE1568FEA31FDA39A38B0ABC13FBDE2B29
1004
107DD1CC7F1D94883EE8E63E2E2E68E7FFFFFA8C7FFEA21FFFDA2FAE37F55A38FEA31FDA4C4E0CCE2ACB210B57689A3259291568CA0807BB3104899EB53B855A9133D6A770B8D4899EB53B855BFC3FF68E68E3ACBC03FBDE2B29107C8C5F3F8ECA441F2317CF8B8B9A39FEA31FFFFFFFA887FFEAB45F5C6F
1004
F68FFC3FF693138CA0807BB310194100F766200CCE2ACB210B4650403DD98C390B1EC1D1B75352267AD4EE156AEBEA21F8268E68E0758F9FDEF1492BD9F74731FC724AF67DD1CC7C5C5CD1CFFFFFF518FD443FFFFFFF04DFD568EBAFA887E09A4C4E328201EECC403373B0ECC8644768CA0807BB31019410
1004
0F76630E42C7B0746DD4D4899EB53B855BFC3FF68E68E28B1E3FBDE29257B3E09983F8E495ECF82660F8B8B9A39FFFEA31FFFA887FFFFF8BEEA6FF68FFC3FF693138CA0807BB3100CDCEC3B321911DA0CCE2ACB210B52267AD4EE156B90B1EC1D1B75352267AD4EE156FEA87FE8C7347012C70FEF78AE8E6
1004
3E09983F8EE8E63E09983E2E2E68E7FFFA8C7FFFFFFEA31FAAD17DD4DFD568FFAA1FFA32627066715659085ABB44D192C948AB4199C55964216A44CF5A9DC2AD72163D83A36EA6A44CF5A9DC2ADFF1FED1CD1C4CB1B3FBDE2BA398F918BE7F1DD1CC7C8C5F3E2E2E68E7FA8C7FFFFF47FFFA8C7EAB45F753
1004
7F55A3FF8FF6931383338AB2C842D0CDCEC3B321911DA328201EECC412267AD4EE156B90B1EC1D1B75352267AD4EE156FEA87FE8C734703790222EF78A09983E462F9FC704CC1F2317CF8B8B9A39FEA31FFFFFFFA8C7FFEAB45F7537F55A3FEA87FE8D2E91658909
1005
6B
  0
INSERT
  8
AME_FRZ
  5
6B
  2
AME_NIL
 10
1.0
 20
1.0
 30
1.0
1001
AME_SOL
1004

1005
0
  0
ENDSEC
  0
EOF
