600 0 1 0           
106 GICL ACIS Healer - Source: /gicl/data5/repository/PTC/V20/web_demos/models/multi_axis/ashaft.prt.sat - 6 0 18 ACIS 6.0.3 Solaris 24 Sat Apr 13 20:48:21 2002 
1 9.999999999999999547e-07 1.000000000000000036e-10 
body $-1 $1 $-1 $-1 #
lump $-1 $-1 $2 $0 #
shell $-1 $-1 $-1 $3 $-1 $1 #
face $-1 $4 $5 $2 $-1 $6 forward single #
face $-1 $7 $8 $2 $-1 $9 forward single #
loop $-1 $10 $11 $3 #
plane-surface $-1 0 0 0 0 0 1 -25.39999999999999858 0 0 forward_v I I I I #
face $-1 $12 $13 $2 $-1 $14 forward single #
loop $-1 $-1 $15 $4 #
torus-surface $-1 0 0 -0.7620000000000062279 0 0 1 10.3416099999999993 0.7619999999999998996 -1 0 0 forward_v I I I I #
loop $-1 $-1 $16 $3 #
coedge $-1 $17 $17 $18 $19 reversed $5 $-1 #
face $-1 $20 $21 $2 $-1 $22 forward single #
loop $-1 $-1 $23 $7 #
torus-surface $-1 0 0 -0.7620000000000062279 0 0 1 10.3416099999999993 0.7619999999999998996 -1 0 0 forward_v I I I I #
coedge $-1 $18 $24 $25 $26 forward $8 $-1 #
coedge $-1 $27 $27 $28 $29 reversed $10 $-1 #
coedge $-1 $11 $11 $30 $31 forward $5 $-1 #
coedge $-1 $32 $15 $11 $19 forward $8 $-1 #
edge $-1 $33 2.950421834939956078e-32 $34 3.141592653589793116 $11 $35 forward 7 unknown #
face $-1 $36 $37 $2 $-1 $38 reversed single #
loop $-1 $-1 $39 $12 #
cone-surface $-1 0 0 -113.3474999999999824 0 0 1 -11.10360999999999976 0 0 1 I I 0 1 11.10360999999999976 forward I I I I #
coedge $-1 $30 $40 $32 $41 forward $13 $-1 #
coedge $-1 $15 $32 $42 $43 reversed $8 $-1 #
coedge $-1 $40 $30 $15 $26 reversed $13 $-1 #
edge $-1 $44 2.970429385110947669e-14 $33 1.570796326794901443 $25 $45 forward 7 unknown #
coedge $-1 $16 $16 $46 $47 reversed $10 $-1 #
coedge $-1 $48 $49 $16 $29 forward $50 $-1 #
edge $-1 $51 0 $52 3.141592653589793116 $16 $53 forward 7 unknown #
coedge $-1 $25 $23 $17 $31 reversed $13 $-1 #
edge $-1 $33 -2.950421834939956078e-32 $34 3.141592653589793116 $17 $54 forward 7 unknown #
coedge $-1 $24 $18 $23 $41 reversed $8 $-1 #
vertex $-1 $31 $55 #
vertex $-1 $31 $56 #
ellipse-curve $-1 0 -3.524958103184871819e-16 0 -6.135335393360192134e-16 -9.604611838263442954e-32 -1 10.3416099999999993 1.618935941793790788e-15 -6.344924585732769471e-15 1 I I #
face $-1 $57 $58 $2 $-1 $59 reversed single #
loop $-1 $-1 $60 $20 #
cone-surface $-1 6.349999999999999645 0 -6.349999999999999645 1 0 0 0 3.174999999999999822 0 1 I I 0 1 3.174999999999999822 forward I I I I #
coedge $-1 $61 $62 $63 $64 forward $21 $-1 #
coedge $-1 $23 $25 $65 $66 forward $13 $-1 #
edge $-1 $67 2.968790276314741911e-14 $34 1.570796326794897446 $23 $68 forward 7 unknown #
coedge $-1 $69 $70 $24 $43 forward $71 $-1 #
edge $-1 $44 0 $67 3.141592653589793116 $42 $72 forward 7 unknown #
vertex $-1 $73 $74 #
ellipse-curve $-1 10.34161000000000108 1.266440131475303902e-15 -0.7620000000000045626 1.2246063538223743e-16 -1 -3.793949496879264871e-31 0.7619999999999977902 9.331500416126465118e-17 -1.762479051592436008e-15 1 I I #
coedge $-1 $75 $76 $27 $47 forward $77 $-1 #
edge $-1 $52 0 $51 3.141592653589793116 $27 $78 forward 7 unknown #
coedge $-1 $79 $28 $76 $80 forward $50 $-1 #
coedge $-1 $28 $79 $75 $81 reversed $50 $-1 #
loop $-1 $-1 $48 $82 #
vertex $-1 $47 $83 #
vertex $-1 $47 $84 #
ellipse-curve $-1 0 0 0 0 0 1 0 -6.349999999999999645 0 1 I I #
ellipse-curve $-1 0 -1.057487430955461447e-15 0 6.135335393360192134e-16 1.378709410370991622e-31 1 10.3416099999999993 2.323927562430765152e-15 -6.344924585732769471e-15 1 I I #
point $-1 10.3416099999999993 1.266440131475303311e-15 -6.344924585732769471e-15 #
point $-1 -10.3416099999999993 0 -6.344924585732769471e-15 #
face $-1 $85 $71 $2 $-1 $86 forward single #
loop $-1 $-1 $87 $36 #
cone-surface $-1 6.349999999999999645 0 -6.349999999999999645 1 0 0 0 3.174999999999999822 0 1 I I 0 1 3.174999999999999822 forward I I I I #
coedge $-1 $88 $63 $89 $90 reversed $37 $-1 #
coedge $-1 $91 $39 $92 $93 forward $21 $-1 #
coedge $-1 $39 $94 $95 $96 forward $21 $-1 #
coedge $-1 $60 $97 $39 $64 reversed $37 $-1 #
edge $-1 $98 0 $99 1 $39 $100 forward 7 unknown #
coedge $-1 $94 $101 $40 $66 reversed $21 $-1 #
edge $-1 $44 0 $67 3.141592653589793116 $65 $102 forward 7 unknown #
vertex $-1 $66 $103 #
ellipse-curve $-1 -10.3416099999999993 -2.532880262950606621e-15 -0.7620000000000057838 -2.449212707644760433e-16 1 2.260225232183395546e-31 -0.7619999999999992335 -1.86630008322530535e-16 -5.287437154777307235e-16 1 I I #
coedge $-1 $104 $42 $101 $105 forward $71 $-1 #
coedge $-1 $42 $106 $94 $73 reversed $71 $-1 #
loop $-1 $-1 $70 $57 #
ellipse-curve $-1 0 0 -0.7620000000000062279 0 0 -1 11.10360999999999976 1.359755135636568467e-15 0 1 I I #
edge $-1 $44 0 $107 0.09500000000000063949 $94 $108 forward 7 unknown #
point $-1 11.10360999999999976 1.359755135636568467e-15 -0.7619999999999836904 #
coedge $-1 $109 $46 $49 $81 forward $77 $-1 #
coedge $-1 $46 $109 $48 $80 reversed $77 $-1 #
loop $-1 $-1 $75 $110 #
ellipse-curve $-1 0 0 0 0 0 1 0 6.349999999999999645 0 1 I I #
coedge $-1 $49 $48 $111 $112 reversed $50 $-1 #
edge $-1 $52 0 $113 1.499999999999999778 $76 $114 forward 7 unknown #
edge $-1 $51 0 $115 1.499999999999999778 $75 $116 forward 7 unknown #
face $-1 $110 $50 $2 $-1 $117 forward single #
point $-1 0 -6.349999999999999645 0 #
point $-1 0 6.349999999999999645 0 #
face $-1 $118 $119 $2 $-1 $120 reversed single #
cone-surface $-1 0 0 -113.3474999999999824 0 0 1 -11.10360999999999976 0 0 1 I I 0 1 11.10360999999999976 forward I I I I #
coedge $-1 $121 $95 $106 $122 reversed $58 $-1 #
coedge $-1 $123 $60 $124 $125 reversed $37 $-1 #
coedge $-1 $95 $126 $60 $90 forward $58 $-1 #
edge $-1 $127 0 $98 0.1688975083478057027 $89 $128 forward 7 unknown #
coedge $-1 $101 $61 $129 $130 forward $21 $-1 #
coedge $-1 $131 $104 $61 $93 reversed $71 $-1 #
edge $-1 $99 0 $132 0.3749999999999999445 $61 $133 forward 7 unknown #
coedge $-1 $62 $65 $70 $73 forward $21 $-1 #
coedge $-1 $87 $89 $62 $96 reversed $58 $-1 #
edge $-1 $107 0 $98 1 $62 $134 forward 7 unknown #
coedge $-1 $63 $123 $131 $135 reversed $37 $-1 #
vertex $-1 $96 $136 #
vertex $-1 $93 $137 #
intcurve-curve $-1 forward { surfintcur full nurbs 3 open 8 
	0 3 0.1425781543776670768 1 0.2857215191539854704 1 0.4287562518749963303 1 0.5714880924698642062 1 
	0.7146435114443009384 1 0.8576796308810610281 1 1 3 
	10.63999671203426445 3.175000000000002043 -6.349999999999999645 1 
	10.64045259519126674 3.175600671189739987 -6.586083654741294424 0.999999999999999889 
	10.65508158074610456 3.124190751557869294 -7.04966323329896305 1 
	10.72445623711837293 2.883392661586128725 -7.745865117352376927 0.999999999999999778 
	10.82282577969737147 2.494848252035200886 -8.355243937828269907 0.999999999999999778 
	10.92703465892296677 1.999163028868235381 -8.850424820113776292 1 
	11.02422834445999555 1.381214161189574519 -9.240696621877152239 1.000000000000000444 
	11.08958371986548563 0.6890036203269358506 -9.475665900769564942 0.999999999999999778 
	11.10339507707161033 0.231640189476996744 -9.526015681251687184 1.000000000000000222 
	11.10360999999999976 1.359755135636568467e-15 -9.524999999999998579 1 
	0.02539999999999999897 
	cone 6.349999999999999645 0 -6.349999999999999645 1 0 0 0 3.174999999999999822 0 1 I I 0 1 3.174999999999999822 forward I I I I 
	cone 0 0 -113.3474999999999824 0 0 1 -11.10360999999999976 0 0 1 I I 0 1 11.10360999999999976 forward I I I I 
	nullbs 
	nullbs 
	I I 
	0 
	0 
	0 
	} I I #
coedge $-1 $65 $91 $69 $105 reversed $21 $-1 #
ellipse-curve $-1 0 0 -0.7619999999999950147 -1.015873750085926076e-15 -1.24404544903659083e-31 1 11.10360999999999976 1.359755135636568467e-15 1.127986593019158982e-14 1 I I #
point $-1 -11.10360999999999976 -2.719510271273136934e-15 -0.7619999999999836904 #
coedge $-1 $92 $69 $138 $139 reversed $71 $-1 #
edge $-1 $67 0 $140 0.7200000000000006395 $101 $141 forward 7 unknown #
coedge $-1 $70 $131 $87 $122 forward $71 $-1 #
vertex $-1 $96 $142 #
straight-curve $-1 11.10360999999999976 1.359755135636568467e-15 -0.7619999999999836904 0 0 -25.39999999999999858 I I #
coedge $-1 $76 $75 $143 $144 reversed $77 $-1 #
face $-1 $145 $77 $2 $-1 $146 forward single #
coedge $-1 $143 $143 $79 $112 forward $147 $-1 #
edge $-1 $115 0 $113 3.141592653589793116 $111 $148 forward 7 unknown #
vertex $-1 $144 $149 #
straight-curve $-1 0 6.349999999999999645 0 0 0 25.39999999999999858 I I #
vertex $-1 $144 $150 #
straight-curve $-1 -7.776250346772095392e-16 -6.349999999999999645 0 0 0 25.39999999999999858 I I #
cone-surface $-1 0 0 0 0 0 1 0 6.349999999999999645 0 1 I I 0 1 6.349999999999999645 forward I I I I #
face $-1 $151 $152 $2 $-1 $153 forward single #
loop $-1 $154 $155 $85 #
plane-surface $-1 0 0 -19.04999999999999716 0 0 1 -25.39999999999999858 0 0 forward_v I I I I #
coedge $-1 $126 $87 $123 $156 reversed $58 $-1 #
edge $-1 $157 0 $107 1 $106 $158 forward 7 unknown #
coedge $-1 $97 $88 $121 $156 forward $37 $-1 #
coedge $-1 $159 $159 $88 $125 forward $160 $-1 #
edge $-1 $161 0 $127 3.141592653589793116 $124 $162 forward 7 unknown #
coedge $-1 $89 $121 $159 $163 reversed $58 $-1 #
vertex $-1 $163 $164 #
straight-curve $-1 6.349999999999999645 3.174999999999999822 -6.349999999999999645 25.39999999999999858 0 0 I I #
coedge $-1 $138 $138 $91 $130 reversed $154 $-1 #
edge $-1 $132 0 $140 3.141592653589793116 $91 $165 forward 7 unknown #
coedge $-1 $106 $92 $97 $135 forward $71 $-1 #
vertex $-1 $130 $166 #
straight-curve $-1 11.10360999999999976 1.359755135636568467e-15 -9.524999999999998579 0 0 -25.39999999999999858 I I #
intcurve-curve $-1 forward { surfintcur full nurbs 3 open 8 
	0 3 0.1423903111349513195 1 0.2854664803438058396 1 0.4285939445936092218 1 0.5713152991082025567 1 
	0.7143866373081609877 1 0.8575086176428035056 1 1 3 
	11.10360999999999976 1.359755135636568467e-15 -3.174999999999999822 1 
	11.10336607998306313 0.2327850432760763255 -3.174065376937510674 1 
	11.08947514934937395 0.6918233705301259917 -3.224705316429414381 1 
	11.02365370162762481 1.385694864577438734 -3.461451654630569585 1 
	10.92656750374906949 2.001505380089065866 -3.851671001323077714 0.999999999999999778 
	10.82246233916519174 2.496464557448970556 -4.346589873911584689 1.000000000000000222 
	10.72385736623328967 2.885598255393258871 -4.958431355295735088 0.9999999999999996669 
	10.65491152108756268 3.124746170066102113 -5.654052675862279997 1.000000000000000222 
	10.64039425928467075 3.175774623318013745 -6.115483836345251945 0.999999999999999889 
	10.63999671203426445 3.175000000000002043 -6.349999999999999645 1 
	0.02539999999999999897 
	cone 6.349999999999999645 0 -6.349999999999999645 1 0 0 0 3.174999999999999822 0 1 I I 0 1 3.174999999999999822 forward I I I I 
	cone 0 0 -113.3474999999999824 0 0 1 -11.10360999999999976 0 0 1 I I 0 1 11.10360999999999976 forward I I I I 
	nullbs 
	nullbs 
	I I 
	0 
	0 
	0 
	} I I #
edge $-1 $99 0 $157 1 $131 $167 forward 7 unknown #
point $-1 10.63999671203426445 3.175000000000002043 -6.349999999999999645 #
point $-1 11.10360999999999976 1.359755135636568467e-15 -9.524999999999998579 #
coedge $-1 $129 $129 $104 $139 forward $154 $-1 #
edge $-1 $132 0 $140 3.141592653589793116 $138 $168 forward 7 unknown #
vertex $-1 $105 $169 #
straight-curve $-1 -11.10360999999999976 -2.719510271273136934e-15 -0.7619999999999836904 0 0 -25.39999999999999858 I I #
point $-1 11.10360999999999976 1.359755135636568467e-15 -3.174999999999999822 #
coedge $-1 $111 $111 $109 $144 forward $147 $-1 #
edge $-1 $113 0 $115 3.141592653589793116 $143 $170 forward 7 unknown #
face $-1 $-1 $147 $2 $-1 $171 forward single #
cone-surface $-1 0 0 0 0 0 1 0 6.349999999999999645 0 1 I I 0 1 6.349999999999999645 forward I I I I #
loop $-1 $-1 $111 $145 #
ellipse-curve $-1 0 0 38.09999999999999432 0 0 1 0 -6.349999999999999645 0 1 I I #
point $-1 0 6.349999999999999645 38.09999999999999432 #
point $-1 0 -6.349999999999999645 38.09999999999999432 #
face $-1 $172 $173 $2 $-1 $174 forward single #
loop $-1 $-1 $175 $118 #
cone-surface $-1 0 0 -113.3474999999999824 0 0 1 -6.349999999999999645 0 0 1 I I 0 1 6.349999999999999645 forward I I I I #
loop $-1 $-1 $129 $85 #
coedge $-1 $176 $176 $175 $177 reversed $119 $-1 #
edge $-1 $161 0 $157 0.1688975083478057859 $121 $178 forward 7 unknown #
vertex $-1 $122 $179 #
intcurve-curve $-1 forward { surfintcur full nurbs 3 open 8 
	0 3 0.1425777189578576465 1 0.2857202481436503794 1 0.4287556755408499232 1 0.5714868130607951846 1 
	0.7146426694108561906 1 0.8576809630545955132 1 1 3 
	10.63999671203426622 -3.174999999999999378 -6.349999999999999645 1 
	10.6404527869101031 -3.175599714910288363 -6.113920431418887524 1 
	10.65508191439355379 -3.124189043350145578 -5.65034718928756341 0.999999999999999889 
	10.72444798881411998 -2.883423476910407235 -4.954196746542256946 1 
	10.82282474449128529 -2.494853208819948875 -4.344759480132155183 1 
	10.92702559766622983 -1.999206139069142241 -3.849616515653326854 1.000000000000000222 
	11.02422416510142433 -1.381265104048579273 -3.459317352956993386 0.999999999999999889 
	11.08958882355932474 -0.6889251215106017012 -3.224316195408262864 1 
	11.10339752115996959 -0.2316031187742336461 -3.173975462379217571 0.999999999999999889 
	11.10360999999999976 1.359755135636568467e-15 -3.174999999999999822 1 
	0.02539999999999999897 
	cone 6.349999999999999645 0 -6.349999999999999645 1 0 0 0 3.174999999999999822 0 1 I I 0 1 3.174999999999999822 forward I I I I 
	cone 0 0 -113.3474999999999824 0 0 1 -11.10360999999999976 0 0 1 I I 0 1 11.10360999999999976 forward I I I I 
	nullbs 
	nullbs 
	I I 
	0 
	0 
	0 
	} I I #
coedge $-1 $124 $124 $126 $163 forward $160 $-1 #
loop $-1 $-1 $124 $180 #
vertex $-1 $163 $181 #
ellipse-curve $-1 6.349999999999999645 0 -6.349999999999999645 1 0 0 0 -3.174999999999999822 0 1 I I #
edge $-1 $127 0 $161 3.141592653589793116 $159 $182 forward 7 unknown #
point $-1 6.349999999999999645 3.174999999999999822 -6.349999999999999645 #
ellipse-curve $-1 0 0 -19.04999999999999716 0 0 1 11.10360999999999976 0 0 1 I I #
point $-1 11.10360999999999976 0 -19.04999999999999716 #
intcurve-curve $-1 forward { surfintcur full nurbs 3 open 8 
	0 3 0.1423897630088570843 1 0.285467669961093129 1 0.4285961280849979183 1 0.571317337376360368 1 
	0.7143896935322331387 1 0.8575102723246624814 1 1 3 
	11.10360999999999976 1.359755135636568467e-15 -9.524999999999998579 1 
	11.1033676341014278 -0.2327654129408245898 -9.525940387899026973 1.000000000000000222 
	11.08947774666555119 -0.6917862669302580203 -9.475303582403203251 1 
	11.02364885412917239 -1.385748237254070592 -9.238532021313451637 0.999999999999999889 
	10.92655307673246945 -2.001581013841200463 -8.848265389724128127 0.999999999999999889 
	10.82245260568304346 -2.4965068887029922 -8.353362339386112723 1 
	10.72383981762295413 -2.88566301099882061 -7.741436702846656637 0.999999999999999778 
	10.65490960736448578 -3.124751826794013088 -7.045886066229955169 1 
	10.64039381226609038 -3.175775434239972217 -6.584491431610838497 1 
	10.63999671203426622 -3.174999999999999378 -6.349999999999999645 1 
	0.02539999999999999897 
	cone 6.349999999999999645 0 -6.349999999999999645 1 0 0 0 3.174999999999999822 0 1 I I 0 1 3.174999999999999822 forward I I I I 
	cone 0 0 -113.3474999999999824 0 0 1 -11.10360999999999976 0 0 1 I I 0 1 11.10360999999999976 forward I I I I 
	nullbs 
	nullbs 
	I I 
	0 
	0 
	0 
	} I I #
ellipse-curve $-1 0 0 -19.04999999999999716 0 0 -1 11.10360999999999976 0 0 1 I I #
point $-1 -11.10360999999999976 0 -19.04999999999999716 #
ellipse-curve $-1 0 0 38.09999999999999432 0 0 1 0 6.349999999999999645 0 1 I I #
plane-surface $-1 0 0 38.09999999999999432 0 0 1 0 25.39999999999999858 0 forward_v I I I I #
face $-1 $183 $184 $2 $-1 $185 forward single #
loop $-1 $-1 $186 $151 #
cone-surface $-1 0 0 -113.3474999999999824 0 0 1 -6.349999999999999645 0 0 1 I I 0 1 6.349999999999999645 forward I I I I #
coedge $-1 $187 $188 $155 $177 forward $152 $-1 #
coedge $-1 $155 $155 $189 $190 forward $119 $-1 #
edge $-1 $191 3.912757915412049441e-32 $192 3.141592653589793116 $155 $193 forward 7 unknown #
straight-curve $-1 6.349999999999999645 -3.174999999999999822 -6.349999999999998757 25.39999999999999858 0 0 I I #
point $-1 10.63999671203426622 -3.174999999999999378 -6.349999999999999645 #
face $-1 $82 $160 $2 $-1 $194 forward single #
point $-1 6.349999999999999645 -3.174999999999999822 -6.349999999999999645 #
ellipse-curve $-1 6.349999999999999645 0 -6.349999999999999645 1 0 0 0 3.174999999999999822 0 1 I I #
face $-1 $195 $196 $2 $-1 $197 forward single #
loop $-1 $198 $199 $172 #
plane-surface $-1 0 0 -93.95548826909313789 0 0 1 -25.39999999999999858 0 0 forward_v I I I I #
coedge $-1 $200 $201 $202 $203 forward $173 $-1 #
coedge $-1 $204 $175 $200 $205 forward $152 $-1 #
coedge $-1 $175 $204 $201 $206 reversed $152 $-1 #
coedge $-1 $201 $200 $176 $190 reversed $173 $-1 #
edge $-1 $191 1.956378957706024721e-32 $192 3.141592653589793116 $176 $207 forward 7 unknown #
vertex $-1 $190 $208 #
vertex $-1 $190 $209 #
ellipse-curve $-1 -7.049916206369743637e-16 -3.524958103184871819e-16 -19.04999999999999716 1.776356839400250465e-15 3.161414003711647653e-31 -1 6.349999999999999645 1.130120844995696721e-15 1.127986593019158982e-14 1 I I #
plane-surface $-1 6.349999999999999645 0 -6.349999999999999645 1 0 0 0 25.39999999999999858 0 forward_v I I I I #
face $-1 $210 $211 $2 $-1 $212 forward single #
loop $-1 $-1 $213 $183 #
cone-surface $-1 0 0 -131.5271897942185717 0 0 -1 -4.478705309995008932 0 0 1 I I -0.1736481776669302757 0.9848077530122080203 4.478705309995008932 forward I I I I #
loop $-1 $-1 $202 $172 #
coedge $-1 $214 $214 $213 $215 reversed $184 $-1 #
coedge $-1 $189 $186 $187 $205 reversed $173 $-1 #
coedge $-1 $186 $189 $188 $206 forward $173 $-1 #
coedge $-1 $216 $216 $186 $203 reversed $198 $-1 #
edge $-1 $217 1.224606353822377258e-16 $218 3.141592653589793116 $186 $219 forward 7 unknown #
coedge $-1 $188 $187 $216 $220 reversed $152 $-1 #
edge $-1 $192 0 $218 2.949034971224139934 $200 $221 forward 7 unknown #
edge $-1 $191 0 $217 2.949034971224139046 $201 $222 forward 7 unknown #
ellipse-curve $-1 0 1.762479051592435909e-16 -19.04999999999999716 -1.776356839400250465e-15 -1.682299806422250518e-31 1 6.349999999999999645 6.01377129517965899e-16 1.127986593019158982e-14 1 I I #
point $-1 6.349999999999999645 7.776250346772095392e-16 -19.0499999999999865 #
point $-1 -6.349999999999999645 0 -19.0499999999999865 #
face $-1 $223 $224 $2 $-1 $225 forward single #
loop $-1 $-1 $226 $195 #
cone-surface $-1 0 0 -131.5271897942185717 0 0 -1 -4.478705309995008932 0 0 1 I I -0.1736481776669302757 0.9848077530122080203 4.478705309995008932 forward I I I I #
coedge $-1 $227 $228 $199 $215 forward $196 $-1 #
coedge $-1 $199 $199 $229 $230 forward $184 $-1 #
edge $-1 $231 0 $232 3.141592653589793116 $199 $233 forward 7 unknown #
coedge $-1 $202 $202 $204 $220 forward $198 $-1 #
vertex $-1 $206 $234 #
vertex $-1 $205 $235 #
ellipse-curve $-1 0 0 -93.95548826909313789 0 0 1 6.349999999999999645 0 0 1 I I #
edge $-1 $217 -1.224606353822377258e-16 $218 3.141592653589793116 $216 $236 forward 7 unknown #
straight-curve $-1 -6.349999999999999645 -1.555250069354419078e-15 -19.0499999999999865 0 0 -25.39999999999999858 I I #
straight-curve $-1 6.349999999999999645 7.776250346772095392e-16 -19.0499999999999865 0 0 -25.39999999999999858 I I #
face $-1 $237 $238 $2 $-1 $239 forward single #
loop $-1 $-1 $240 $210 #
torus-surface $-1 0 0 -105.4099999999999824 0 0 1 6.504686936809708442 2.539999999999999591 -1 0 0 forward_v I I I I #
coedge $-1 $241 $242 $243 $244 forward $211 $-1 #
coedge $-1 $245 $213 $241 $246 forward $196 $-1 #
coedge $-1 $213 $245 $242 $247 reversed $196 $-1 #
coedge $-1 $242 $241 $214 $230 reversed $211 $-1 #
edge $-1 $231 -2.559363819489470365e-32 $232 3.141592653589793116 $214 $248 forward 7 unknown #
vertex $-1 $230 $249 #
vertex $-1 $230 $250 #
ellipse-curve $-1 0 -3.524958103184871819e-16 -93.95548826909313789 2.031747500171851363e-15 3.133090570644206639e-31 -1 11.10361000000000509 1.712250945955056536e-15 2.255973186038317964e-14 1 I I #
point $-1 6.349999999999999645 7.776250346772095392e-16 -93.95548826909310947 #
point $-1 -6.349999999999999645 0 -93.95548826909313789 #
ellipse-curve $-1 0 0 -93.95548826909313789 0 0 -1 6.349999999999999645 0 0 1 I I #
face $-1 $180 $251 $2 $-1 $252 reversed single #
loop $-1 $-1 $253 $223 #
torus-surface $-1 0 0 -105.4099999999999824 0 0 1 6.504686936809708442 2.539999999999999591 -1 0 0 forward_v I I I I #
coedge $-1 $243 $254 $255 $256 forward $224 $-1 #
coedge $-1 $229 $226 $227 $246 reversed $211 $-1 #
coedge $-1 $226 $229 $228 $247 forward $211 $-1 #
coedge $-1 $257 $240 $226 $244 reversed $224 $-1 #
edge $-1 $258 0 $259 3.141592653589793116 $226 $260 forward 7 unknown #
coedge $-1 $228 $227 $261 $262 reversed $196 $-1 #
edge $-1 $232 4.553587863683556372e-33 $259 0.4755545893196768681 $241 $263 forward 7 unknown #
edge $-1 $231 -0 $258 0.4755545893196768681 $242 $264 forward 7 unknown #
ellipse-curve $-1 0 3.524958103184871819e-16 -93.95548826909313789 -2.031747500171851363e-15 -1.84309122550215471e-31 1 11.10361000000000509 1.007259325318082173e-15 2.255973186038317964e-14 1 I I #
point $-1 11.10361000000000509 1.359755135636569256e-15 -93.95548826909310947 #
point $-1 -11.10361000000000509 0 -93.95548826909310947 #
loop $-1 $-1 $265 $237 #
plane-surface $-1 0 0 -107.9499999999999886 0 0 1 -25.39999999999999858 0 0 forward_v I I I I #
coedge $-1 $261 $266 $257 $267 forward $238 $-1 #
coedge $-1 $240 $257 $265 $268 forward $224 $-1 #
coedge $-1 $266 $261 $240 $256 reversed $238 $-1 #
edge $-1 $269 8.304817900738845995e-17 $259 1.396263401595450926 $255 $270 forward 7 unknown #
coedge $-1 $254 $243 $253 $267 reversed $224 $-1 #
vertex $-1 $247 $271 #
vertex $-1 $246 $272 #
ellipse-curve $-1 0 0 -105.8510663712739586 0 0 1 9.006098629460719707 1.102892560478860059e-15 0 1 I I #
coedge $-1 $255 $253 $245 $262 forward $238 $-1 #
edge $-1 $258 0 $259 3.141592653589793116 $245 $273 forward 7 unknown #
straight-curve $-1 -11.10361000000000509 -2.719510271273138512e-15 -93.95548826909310947 4.41066371274002833 1.080265361439048491e-15 -25.01411692651008067 I I #
straight-curve $-1 11.10361000000000509 1.359755135636569256e-15 -93.95548826909310947 -4.41066371274002833 -5.401326807195242455e-16 -25.01411692651008067 I I #
coedge $-1 $274 $274 $254 $268 reversed $251 $-1 #
coedge $-1 $253 $255 $274 $275 reversed $238 $-1 #
edge $-1 $276 8.304817900738845995e-17 $258 1.396263401595450926 $253 $277 forward 7 unknown #
edge $-1 $276 0 $269 3.141592653589793116 $265 $278 forward 7 unknown #
vertex $-1 $275 $279 #
ellipse-curve $-1 -6.504686936809704001 0 -105.409999999999954 0 1 0 -4.229949723821845788e-15 0 -2.540000000000013358 1 I I #
point $-1 9.006098629460719707 1.102892560478860059e-15 -105.851066371273987 #
point $-1 -9.006098629460719707 -2.205785120957720118e-15 -105.851066371273987 #
ellipse-curve $-1 0 0 -105.8510663712739586 0 0 -1 9.006098629460719707 1.102892560478860059e-15 0 1 I I #
coedge $-1 $265 $265 $266 $275 forward $251 $-1 #
edge $-1 $276 0 $269 3.141592653589793116 $274 $280 forward 7 unknown #
vertex $-1 $275 $281 #
ellipse-curve $-1 6.504686936809704001 7.965680952442578542e-16 -105.409999999999954 1.224606353822377258e-16 -1 -4.258110736418632921e-32 4.229949723821845788e-15 6.261583435191780855e-31 -2.540000000000013358 1 I I #
ellipse-curve $-1 0 -7.049916206369743637e-16 -107.9499999999999886 -3.468227153672646542e-15 -8.00615038059690485e-31 1 6.504686936809708442 1.501559715881232908e-15 2.255973186038317964e-14 1 I I #
point $-1 -6.504686936809708442 -1.593136190488517089e-15 -107.9499999999999744 #
ellipse-curve $-1 0 -3.524958103184871819e-16 -107.9499999999999886 3.468227153672646542e-15 6.126681694741862837e-31 -1 6.504686936809708442 1.149063905562745628e-15 2.255973186038317964e-14 1 I I #
point $-1 6.504686936809708442 7.965680952442585444e-16 -107.9499999999999744 #
End-of-ACIS-data 