600 0 1 0           
109 GICL Pro/E ACIS Translator - Source: f:/data5/repository/PTC/V20/web_demos/models/multi_axis/ashaft.prt - 6 0 13 ACIS 6.0.3 NT 24 Thu Apr 04 13:09:11 2002 
1 9.9999999999999995e-007 1e-010 
body $-1 $1 $-1 $2 #
lump $-1 $-1 $3 $0 #
transform $-1 1 0 0 0 1 0 0 0 1 0 0 0 25.399999999999999 no_rotate no_reflect no_shear #
shell $-1 $-1 $-1 $4 $-1 $1 #
face $-1 $5 $6 $3 $-1 $7 forward single #
face $-1 $8 $9 $3 $-1 $10 forward single #
loop $-1 $11 $12 $4 #
plane-surface $-1 0 0 0 0 0 1 -1 0 0 forward_v I I I I #
face $-1 $13 $14 $3 $-1 $15 forward single #
loop $-1 $-1 $16 $5 #
torus-surface $-1 0 0 -0.030000000000000249 0 0 1 0.40715000000000001 0.029999999999999999 -1 0 0 forward_v I I I I #
loop $-1 $-1 $17 $4 #
coedge $-1 $18 $18 $19 $20 reversed $6 $-1 #
face $-1 $21 $22 $3 $-1 $23 forward single #
loop $-1 $-1 $24 $8 #
torus-surface $-1 0 0 -0.030000000000000249 0 0 1 0.40715000000000001 0.029999999999999999 -1 0 0 forward_v I I I I #
coedge $-1 $19 $25 $26 $27 forward $9 $-1 #
coedge $-1 $28 $28 $29 $30 reversed $11 $-1 #
coedge $-1 $12 $12 $31 $32 forward $6 $-1 #
coedge $-1 $33 $16 $12 $20 forward $9 $-1 #
edge $-1 $34 0 $35 3.1415926535897931 $12 $36 forward 7 unknown #
face $-1 $37 $38 $3 $-1 $39 reversed single #
loop $-1 $-1 $40 $13 #
cone-surface $-1 0 0 -4.4624999999999995 0 0 1 -0.43714999999999998 0 0 1 I I 0 1 0.43714999999999998 forward I I I I #
coedge $-1 $31 $41 $33 $42 forward $14 $-1 #
coedge $-1 $16 $33 $43 $44 reversed $9 $-1 #
coedge $-1 $41 $31 $16 $27 reversed $14 $-1 #
edge $-1 $45 2.9605947323337592e-014 $34 1.5707963267949008 $26 $46 forward 7 unknown #
coedge $-1 $17 $17 $47 $48 reversed $11 $-1 #
coedge $-1 $49 $50 $17 $30 forward $51 $-1 #
edge $-1 $52 0 $53 3.1415926535897931 $17 $54 forward 7 unknown #
coedge $-1 $26 $24 $18 $32 reversed $14 $-1 #
edge $-1 $34 0 $35 3.1415926535897931 $18 $55 forward 7 unknown #
coedge $-1 $25 $19 $24 $42 reversed $9 $-1 #
vertex $-1 $32 $56 #
vertex $-1 $32 $57 #
ellipse-curve $-1 0 -1.3877787807814457e-017 0 -6.1353353933601921e-016 -9.604611838263443e-032 -1 0.40715000000000001 6.3737635503692552e-017 -2.4980018054066022e-016 1 I I #
face $-1 $58 $59 $3 $-1 $60 reversed single #
loop $-1 $-1 $61 $21 #
cone-surface $-1 0.25 0 -0.25 1 0 0 0 0.125 0 1 I I 0 1 0.125 forward I I I I #
coedge $-1 $62 $63 $64 $65 forward $22 $-1 #
coedge $-1 $24 $26 $66 $67 forward $14 $-1 #
edge $-1 $68 2.9605947323337535e-014 $35 1.5707963267948972 $24 $69 forward 7 unknown #
coedge $-1 $70 $71 $25 $44 forward $72 $-1 #
edge $-1 $45 0 $68 3.1415926535897931 $43 $73 forward 7 unknown #
vertex $-1 $74 $75 #
ellipse-curve $-1 0.40715000000000007 4.9859847695878108e-017 -0.030000000000000179 1.2246063538223743e-016 -1 -3.7939494968792649e-031 0.029999999999999916 3.6738190614671123e-018 -6.9388939039072284e-017 1 I I #
coedge $-1 $76 $77 $28 $48 forward $78 $-1 #
edge $-1 $53 0 $52 3.1415926535897931 $28 $79 forward 7 unknown #
coedge $-1 $80 $29 $77 $81 forward $51 $-1 #
coedge $-1 $29 $80 $76 $82 reversed $51 $-1 #
loop $-1 $-1 $49 $83 #
vertex $-1 $48 $84 #
vertex $-1 $48 $85 #
ellipse-curve $-1 0 0 0 0 0 1 0 -0.25 0 1 I I #
ellipse-curve $-1 0 -4.163336342344337e-017 0 6.1353353933601921e-016 1.3787094103709916e-031 1 0.40715000000000001 9.1493211119321466e-017 -2.4980018054066022e-016 1 I I #
point $-1 0.40715000000000001 4.985984769587809e-017 -2.4980018054066022e-016 #
point $-1 -0.40715000000000001 0 -2.4980018054066022e-016 #
face $-1 $86 $72 $3 $-1 $87 forward single #
loop $-1 $-1 $88 $37 #
cone-surface $-1 0.25 0 -0.25 1 0 0 0 0.125 0 1 I I 0 1 0.125 forward I I I I #
coedge $-1 $89 $64 $90 $91 reversed $38 $-1 #
coedge $-1 $92 $40 $93 $94 forward $22 $-1 #
coedge $-1 $40 $95 $96 $97 forward $22 $-1 #
coedge $-1 $61 $98 $40 $65 reversed $38 $-1 #
edge $-1 $99 0 $100 1 $40 $101 forward 7 unknown #
coedge $-1 $95 $102 $41 $67 reversed $22 $-1 #
edge $-1 $45 0 $68 3.1415926535897931 $66 $103 forward 7 unknown #
vertex $-1 $67 $104 #
ellipse-curve $-1 -0.40715000000000001 -9.9719695391756167e-017 -0.030000000000000228 -2.4492127076447604e-016 1 2.2602252321833955e-031 -0.029999999999999971 -7.3476381229342739e-018 -2.0816681711721685e-017 1 I I #
coedge $-1 $105 $43 $102 $106 forward $72 $-1 #
coedge $-1 $43 $107 $95 $74 reversed $72 $-1 #
loop $-1 $-1 $71 $58 #
ellipse-curve $-1 0 0 -0.030000000000000249 0 0 -1 0.43714999999999998 5.353366675734522e-017 0 1 I I #
edge $-1 $45 0 $108 0.095000000000000639 $95 $109 forward 7 unknown #
point $-1 0.43714999999999998 5.353366675734522e-017 -0.029999999999999361 #
coedge $-1 $110 $47 $50 $82 forward $78 $-1 #
coedge $-1 $47 $110 $49 $81 reversed $78 $-1 #
loop $-1 $-1 $76 $111 #
ellipse-curve $-1 0 0 0 0 0 1 0 0.25 0 1 I I #
coedge $-1 $50 $49 $112 $113 reversed $51 $-1 #
edge $-1 $53 0 $114 1.5 $77 $115 forward 7 unknown #
edge $-1 $52 0 $116 1.5 $76 $117 forward 7 unknown #
face $-1 $111 $51 $3 $-1 $118 forward single #
point $-1 0 -0.25 0 #
point $-1 0 0.25 0 #
face $-1 $119 $120 $3 $-1 $121 reversed single #
cone-surface $-1 0 0 -4.4624999999999995 0 0 1 -0.43714999999999998 0 0 1 I I 0 1 0.43714999999999998 forward I I I I #
coedge $-1 $122 $96 $107 $123 reversed $59 $-1 #
coedge $-1 $124 $61 $125 $126 reversed $38 $-1 #
coedge $-1 $96 $127 $61 $91 forward $59 $-1 #
edge $-1 $128 0 $99 0.1688975083478057 $90 $129 forward 7 unknown #
coedge $-1 $102 $62 $130 $131 forward $22 $-1 #
coedge $-1 $132 $105 $62 $94 reversed $72 $-1 #
edge $-1 $100 0 $133 0.375 $62 $134 forward 7 unknown #
coedge $-1 $63 $66 $71 $74 forward $22 $-1 #
coedge $-1 $88 $90 $63 $97 reversed $59 $-1 #
edge $-1 $108 0 $99 1 $63 $135 forward 7 unknown #
coedge $-1 $64 $124 $132 $136 reversed $38 $-1 #
vertex $-1 $97 $137 #
vertex $-1 $94 $138 #
intcurve-curve $-1 forward { surfintcur full nurbs 3 open 8 
	0 3 0.14257815437766708 1 0.28572151915398547 1 0.42875625187499633 1 0.57148809246986421 1 
	0.71464351144430094 1 0.85767963088106103 1 1 3 
	0.4188975083478057 0.12500000000000008 -0.25 1 
	0.41891545650359319 0.12502364847203701 -0.25929463207642894 0.99999999999999989 
	0.41949140081677583 0.1229996358881051 -0.27754579658657336 1 
	0.42222268650072337 0.11351939612543814 -0.30495531958080224 0.99999999999999978 
	0.42609550313769179 0.098222372127370117 -0.32894661172552248 0.99999999999999978 
	0.43019821491822707 0.078707205860954157 -0.34844192205172347 1 
	0.43402473797086599 0.05437851028305412 -0.36380695361721077 1.0000000000000004 
	0.43659778424667267 0.027126126784525036 -0.37305771262872306 0.99999999999999978 
	0.43714153846738624 0.00911969249909436 -0.37503998745085387 1.0000000000000002 
	0.43714999999999998 5.353366675734522e-017 -0.375 1 
	0.001 
	cone 0.25 0 -0.25 1 0 0 0 0.125 0 1 I I 0 1 0.125 forward I I I I 
	cone 0 0 -4.4624999999999995 0 0 1 -0.43714999999999998 0 0 1 I I 0 1 0.43714999999999998 forward I I I I 
	nullbs 
	nullbs 
	I I 
	0 
	0 
	0 
	} I I #
coedge $-1 $66 $92 $70 $106 reversed $22 $-1 #
ellipse-curve $-1 0 0 -0.029999999999999805 -1.0158737500859261e-015 -1.2440454490365908e-031 1 0.43714999999999998 5.353366675734522e-017 4.4408920985006262e-016 1 I I #
point $-1 -0.43714999999999998 -1.0706733351469044e-016 -0.029999999999999361 #
coedge $-1 $93 $70 $139 $140 reversed $72 $-1 #
edge $-1 $68 0 $141 0.72000000000000064 $102 $142 forward 7 unknown #
coedge $-1 $71 $132 $88 $123 forward $72 $-1 #
vertex $-1 $97 $143 #
straight-curve $-1 0.43714999999999998 5.353366675734522e-017 -0.029999999999999361 0 0 -1 I I #
coedge $-1 $77 $76 $144 $145 reversed $78 $-1 #
face $-1 $146 $78 $3 $-1 $147 forward single #
coedge $-1 $144 $144 $80 $113 forward $148 $-1 #
edge $-1 $116 0 $114 3.1415926535897931 $112 $149 forward 7 unknown #
vertex $-1 $145 $150 #
straight-curve $-1 0 0.25 0 0 0 1 I I #
vertex $-1 $145 $151 #
straight-curve $-1 -3.0615158845559431e-017 -0.25 0 0 0 1 I I #
cone-surface $-1 0 0 0 0 0 1 0 0.25 0 1 I I 0 1 0.25 forward I I I I #
face $-1 $152 $153 $3 $-1 $154 forward single #
loop $-1 $155 $156 $86 #
plane-surface $-1 0 0 -0.75 0 0 1 -1 0 0 forward_v I I I I #
coedge $-1 $127 $88 $124 $157 reversed $59 $-1 #
edge $-1 $158 0 $108 1 $107 $159 forward 7 unknown #
coedge $-1 $98 $89 $122 $157 forward $38 $-1 #
coedge $-1 $160 $160 $89 $126 forward $161 $-1 #
edge $-1 $162 0 $128 3.1415926535897931 $125 $163 forward 7 unknown #
coedge $-1 $90 $122 $160 $164 reversed $59 $-1 #
vertex $-1 $164 $165 #
straight-curve $-1 0.25 0.125 -0.25 1 0 0 I I #
coedge $-1 $139 $139 $92 $131 reversed $155 $-1 #
edge $-1 $133 0 $141 3.1415926535897931 $92 $166 forward 7 unknown #
coedge $-1 $107 $93 $98 $136 forward $72 $-1 #
vertex $-1 $131 $167 #
straight-curve $-1 0.43714999999999998 5.353366675734522e-017 -0.375 0 0 -1 I I #
intcurve-curve $-1 forward { surfintcur full nurbs 3 open 8 
	0 3 0.14239031113495132 1 0.28546648034380584 1 0.42859394459360922 1 0.57131529910820256 1 
	0.71438663730816099 1 0.85750861764280351 1 1 3 
	0.43714999999999998 5.353366675734522e-017 -0.125 1 
	0.43714039684972694 0.0091647654833100917 -0.12496320381643743 1 
	0.43659350981690453 0.027237140572052204 -0.1269569022216305 1 
	0.43400211423730811 0.054554915928245622 -0.13627762419805392 1 
	0.43017982298224683 0.078799424412955357 -0.15164059060327079 0.99999999999999978 
	0.42608119445532255 0.098286006198778378 -0.17112558558707028 1.0000000000000002 
	0.42219910890682244 0.11360623052729366 -0.19521383288565886 0.99999999999999967 
	0.41948470555462847 0.12302150275850797 -0.22260049904969609 1.0000000000000002 
	0.41891315981435712 0.12503049698102417 -0.24076708017107293 0.99999999999999989 
	0.4188975083478057 0.12500000000000008 -0.25 1 
	0.001 
	cone 0.25 0 -0.25 1 0 0 0 0.125 0 1 I I 0 1 0.125 forward I I I I 
	cone 0 0 -4.4624999999999995 0 0 1 -0.43714999999999998 0 0 1 I I 0 1 0.43714999999999998 forward I I I I 
	nullbs 
	nullbs 
	I I 
	0 
	0 
	0 
	} I I #
edge $-1 $100 0 $158 1 $132 $168 forward 7 unknown #
point $-1 0.4188975083478057 0.12500000000000008 -0.25 #
point $-1 0.43714999999999998 5.353366675734522e-017 -0.375 #
coedge $-1 $130 $130 $105 $140 forward $155 $-1 #
edge $-1 $133 0 $141 3.1415926535897931 $139 $169 forward 7 unknown #
vertex $-1 $106 $170 #
straight-curve $-1 -0.43714999999999998 -1.0706733351469044e-016 -0.029999999999999361 0 0 -1 I I #
point $-1 0.43714999999999998 5.353366675734522e-017 -0.125 #
coedge $-1 $112 $112 $110 $145 forward $148 $-1 #
edge $-1 $114 0 $116 3.1415926535897931 $144 $171 forward 7 unknown #
face $-1 $-1 $148 $3 $-1 $172 forward single #
cone-surface $-1 0 0 0 0 0 1 0 0.25 0 1 I I 0 1 0.25 forward I I I I #
loop $-1 $-1 $112 $146 #
ellipse-curve $-1 0 0 1.5 0 0 1 0 -0.25 0 1 I I #
point $-1 0 0.25 1.5 #
point $-1 0 -0.25 1.5 #
face $-1 $173 $174 $3 $-1 $175 forward single #
loop $-1 $-1 $176 $119 #
cone-surface $-1 0 0 -4.4624999999999995 0 0 1 -0.25 0 0 1 I I 0 1 0.25 forward I I I I #
loop $-1 $-1 $130 $86 #
coedge $-1 $177 $177 $176 $178 reversed $120 $-1 #
edge $-1 $162 0 $158 0.16889750834780576 $122 $179 forward 7 unknown #
vertex $-1 $123 $180 #
intcurve-curve $-1 forward { surfintcur full nurbs 3 open 8 
	0 3 0.14257771895785765 1 0.28572024814365038 1 0.42875567554084992 1 0.57148681306079518 1 
	0.71464266941085619 1 0.85768096305459551 1 1 3 
	0.41889750834780576 -0.12499999999999999 -0.25 1 
	0.41891546405157887 -0.12502361082323971 -0.24070552879601922 1 
	0.41949141395250217 -0.12299956863583252 -0.22245461375147887 0.99999999999999989 
	0.42222236176433547 -0.1135206093271814 -0.19504711600560068 1 
	0.42609546238154666 -0.098222567276375947 -0.17105352283984865 1 
	0.43019785817583583 -0.078708903112958362 -0.15155970534068217 1.0000000000000002 
	0.43402457342918999 -0.054380515907424383 -0.13619359657310998 0.99999999999999989 
	0.43659798517950099 -0.027123036279944952 -0.12694158249638832 1 
	0.43714163469133738 -0.009118233022607624 -0.12495966387319754 0.99999999999999989 
	0.43714999999999998 5.353366675734522e-017 -0.125 1 
	0.001 
	cone 0.25 0 -0.25 1 0 0 0 0.125 0 1 I I 0 1 0.125 forward I I I I 
	cone 0 0 -4.4624999999999995 0 0 1 -0.43714999999999998 0 0 1 I I 0 1 0.43714999999999998 forward I I I I 
	nullbs 
	nullbs 
	I I 
	0 
	0 
	0 
	} I I #
coedge $-1 $125 $125 $127 $164 forward $161 $-1 #
loop $-1 $-1 $125 $181 #
vertex $-1 $164 $182 #
ellipse-curve $-1 0.25 0 -0.25 1 0 0 0 -0.125 0 1 I I #
edge $-1 $128 0 $162 3.1415926535897931 $160 $183 forward 7 unknown #
point $-1 0.25 0.125 -0.25 #
ellipse-curve $-1 0 0 -0.75 0 0 1 0.43714999999999998 0 0 1 I I #
point $-1 0.43714999999999998 0 -0.75 #
intcurve-curve $-1 forward { surfintcur full nurbs 3 open 8 
	0 3 0.14238976300885708 1 0.28546766996109313 1 0.42859612808499792 1 0.57131733737636037 1 
	0.71438969353223314 1 0.85751027232466248 1 1 3 
	0.43714999999999998 5.353366675734522e-017 -0.375 1 
	0.43714045803548929 -0.0091639926354655354 -0.37503702314563103 1.0000000000000002 
	0.43659361207344694 -0.02723567980040386 -0.3730434481261104 1 
	0.43400192339091231 -0.054557017214727194 -0.36372173312257688 0.99999999999999989 
	0.43017925498946735 -0.078802402119732301 -0.34835690510724915 0.99999999999999989 
	0.42608081124736391 -0.098287672783582372 -0.32887253304669734 1 
	0.42219841801665176 -0.11360877996058349 -0.304780972553018 0.99999999999999978 
	0.41948463021120025 -0.12302172546433122 -0.27739708922165179 1 
	0.41891314221520043 -0.12503052890708552 -0.25923194612641098 1 
	0.41889750834780576 -0.12499999999999999 -0.25 1 
	0.001 
	cone 0.25 0 -0.25 1 0 0 0 0.125 0 1 I I 0 1 0.125 forward I I I I 
	cone 0 0 -4.4624999999999995 0 0 1 -0.43714999999999998 0 0 1 I I 0 1 0.43714999999999998 forward I I I I 
	nullbs 
	nullbs 
	I I 
	0 
	0 
	0 
	} I I #
ellipse-curve $-1 0 0 -0.75 0 0 -1 0.43714999999999998 0 0 1 I I #
point $-1 -0.43714999999999998 0 -0.75 #
ellipse-curve $-1 0 0 1.5 0 0 1 0 0.25 0 1 I I #
plane-surface $-1 0 0 1.5 0 0 1 0 1 0 forward_v I I I I #
face $-1 $184 $185 $3 $-1 $186 forward single #
loop $-1 $-1 $187 $152 #
cone-surface $-1 0 0 -4.4624999999999995 0 0 1 -0.25 0 0 1 I I 0 1 0.25 forward I I I I #
coedge $-1 $188 $189 $156 $178 forward $153 $-1 #
coedge $-1 $156 $156 $190 $191 forward $120 $-1 #
edge $-1 $192 0 $193 3.1415926535897931 $156 $194 forward 7 unknown #
straight-curve $-1 0.25 -0.125 -0.24999999999999997 1 0 0 I I #
point $-1 0.41889750834780576 -0.12499999999999999 -0.25 #
face $-1 $83 $161 $3 $-1 $195 forward single #
point $-1 0.25 -0.125 -0.25 #
ellipse-curve $-1 0.25 0 -0.25 1 0 0 0 0.125 0 1 I I #
face $-1 $196 $197 $3 $-1 $198 forward single #
loop $-1 $199 $200 $173 #
plane-surface $-1 0 0 -3.6990349712241395 0 0 1 -1 0 0 forward_v I I I I #
coedge $-1 $201 $202 $203 $204 forward $174 $-1 #
coedge $-1 $205 $176 $201 $206 forward $153 $-1 #
coedge $-1 $176 $205 $202 $207 reversed $153 $-1 #
coedge $-1 $202 $201 $177 $191 reversed $174 $-1 #
edge $-1 $192 0 $193 3.1415926535897931 $177 $208 forward 7 unknown #
vertex $-1 $191 $209 #
vertex $-1 $191 $210 #
ellipse-curve $-1 -2.7755575615628914e-017 -1.3877787807814457e-017 -0.75 1.7763568394002505e-015 3.1614140037116477e-031 -1 0.25 4.4492946653373888e-017 4.4408920985006262e-016 1 I I #
plane-surface $-1 0.25 0 -0.25 1 0 0 0 1 0 forward_v I I I I #
face $-1 $211 $212 $3 $-1 $213 forward single #
loop $-1 $-1 $214 $184 #
cone-surface $-1 0 0 -5.1782358186700224 0 0 -1 -0.17632698070846492 0 0 1 I I -0.17364817766693028 0.98480775301220802 0.17632698070846492 forward I I I I #
loop $-1 $-1 $203 $173 #
coedge $-1 $215 $215 $214 $216 reversed $185 $-1 #
coedge $-1 $190 $187 $188 $206 reversed $174 $-1 #
coedge $-1 $187 $190 $189 $207 forward $174 $-1 #
coedge $-1 $217 $217 $187 $204 reversed $199 $-1 #
edge $-1 $218 1.2246063538223773e-016 $219 3.1415926535897931 $187 $220 forward 7 unknown #
coedge $-1 $189 $188 $217 $221 reversed $153 $-1 #
edge $-1 $193 0 $219 2.9490349712241399 $201 $222 forward 7 unknown #
edge $-1 $192 0 $218 2.949034971224139 $202 $223 forward 7 unknown #
ellipse-curve $-1 0 6.9388939039072284e-018 -0.75 -1.7763568394002505e-015 -1.6822998064222505e-031 1 0.25 2.3676264941652203e-017 4.4408920985006262e-016 1 I I #
point $-1 0.25 3.0615158845559431e-017 -0.74999999999999956 #
point $-1 -0.25 0 -0.74999999999999956 #
face $-1 $224 $225 $3 $-1 $226 forward single #
loop $-1 $-1 $227 $196 #
cone-surface $-1 0 0 -5.1782358186700224 0 0 -1 -0.17632698070846492 0 0 1 I I -0.17364817766693028 0.98480775301220802 0.17632698070846492 forward I I I I #
coedge $-1 $228 $229 $200 $216 forward $197 $-1 #
coedge $-1 $200 $200 $230 $231 forward $185 $-1 #
edge $-1 $232 0 $233 3.1415926535897931 $200 $234 forward 7 unknown #
coedge $-1 $203 $203 $205 $221 forward $199 $-1 #
vertex $-1 $207 $235 #
vertex $-1 $206 $236 #
ellipse-curve $-1 0 0 -3.6990349712241395 0 0 1 0.25 0 0 1 I I #
edge $-1 $218 -1.2246063538223773e-016 $219 3.1415926535897931 $217 $237 forward 7 unknown #
straight-curve $-1 -0.25 -6.1230317691118863e-017 -0.74999999999999956 0 0 -1 I I #
straight-curve $-1 0.25 3.0615158845559431e-017 -0.74999999999999956 0 0 -1 I I #
face $-1 $238 $239 $3 $-1 $240 forward single #
loop $-1 $-1 $241 $211 #
torus-surface $-1 0 0 -4.1499999999999995 0 0 1 0.256090036882272 0.099999999999999992 -1 0 0 forward_v I I I I #
coedge $-1 $242 $243 $244 $245 forward $212 $-1 #
coedge $-1 $246 $214 $242 $247 forward $197 $-1 #
coedge $-1 $214 $246 $243 $248 reversed $197 $-1 #
coedge $-1 $243 $242 $215 $231 reversed $212 $-1 #
edge $-1 $232 0 $233 3.1415926535897931 $215 $249 forward 7 unknown #
vertex $-1 $231 $250 #
vertex $-1 $231 $251 #
ellipse-curve $-1 0 -1.3877787807814457e-017 -3.6990349712241395 2.0317475001718514e-015 3.1330905706442066e-031 -1 0.43715000000000021 6.7411454565159708e-017 8.8817841970012523e-016 1 I I #
point $-1 0.25 3.0615158845559431e-017 -3.6990349712241386 #
point $-1 -0.25 0 -3.6990349712241395 #
ellipse-curve $-1 0 0 -3.6990349712241395 0 0 -1 0.25 0 0 1 I I #
face $-1 $181 $252 $3 $-1 $253 reversed single #
loop $-1 $-1 $254 $224 #
torus-surface $-1 0 0 -4.1499999999999995 0 0 1 0.256090036882272 0.099999999999999992 -1 0 0 forward_v I I I I #
coedge $-1 $244 $255 $256 $257 forward $225 $-1 #
coedge $-1 $230 $227 $228 $247 reversed $212 $-1 #
coedge $-1 $227 $230 $229 $248 forward $212 $-1 #
coedge $-1 $258 $241 $227 $245 reversed $225 $-1 #
edge $-1 $259 -2.4510631683380729e-032 $260 3.1415926535897931 $227 $261 forward 7 unknown #
coedge $-1 $229 $228 $262 $263 reversed $197 $-1 #
edge $-1 $233 4.5535878636835564e-033 $260 0.47555458931967659 $242 $264 forward 7 unknown #
edge $-1 $232 0 $259 0.47555458931967659 $243 $265 forward 7 unknown #
ellipse-curve $-1 0 1.3877787807814457e-017 -3.6990349712241395 -2.0317475001718514e-015 -1.8430912255021547e-031 1 0.43715000000000021 3.9655878949530794e-017 8.8817841970012523e-016 1 I I #
point $-1 0.43715000000000021 5.3533666757345251e-017 -3.6990349712241386 #
point $-1 -0.43715000000000021 0 -3.6990349712241386 #
loop $-1 $-1 $266 $238 #
plane-surface $-1 0 0 -4.25 0 0 1 -1 0 0 forward_v I I I I #
coedge $-1 $262 $267 $258 $268 forward $239 $-1 #
coedge $-1 $241 $258 $266 $269 forward $225 $-1 #
coedge $-1 $267 $262 $241 $257 reversed $239 $-1 #
edge $-1 $270 0 $260 1.3962634015954523 $256 $271 forward 7 unknown #
coedge $-1 $255 $244 $254 $268 reversed $225 $-1 #
vertex $-1 $248 $272 #
vertex $-1 $247 $273 #
ellipse-curve $-1 0 0 -4.1673648177666918 0 0 1 0.35457081218349296 4.3420966947986622e-017 0 1 I I #
coedge $-1 $256 $254 $246 $263 forward $239 $-1 #
edge $-1 $259 2.4510631683380729e-032 $260 3.1415926535897931 $246 $274 forward 7 unknown #
straight-curve $-1 -0.43715000000000021 -1.070673335146905e-016 -3.6990349712241386 0.17364817766693028 4.2530132340120024e-017 -0.98480775301220802 I I #
straight-curve $-1 0.43715000000000021 5.3533666757345251e-017 -3.6990349712241386 -0.17364817766693028 -2.1265066170060012e-017 -0.98480775301220802 I I #
coedge $-1 $275 $275 $255 $269 reversed $252 $-1 #
coedge $-1 $254 $256 $275 $276 reversed $239 $-1 #
edge $-1 $277 0 $259 1.3962634015954523 $254 $278 forward 7 unknown #
edge $-1 $277 0 $270 3.1415926535897931 $266 $279 forward 7 unknown #
vertex $-1 $276 $280 #
ellipse-curve $-1 -0.25609003688227183 0 -4.1499999999999986 0 1 0 -1.6653345369377348e-016 0 -0.10000000000000053 1 I I #
point $-1 0.35457081218349296 4.3420966947986616e-017 -4.1673648177666927 #
point $-1 -0.35457081218349296 -8.6841933895973232e-017 -4.1673648177666927 #
ellipse-curve $-1 0 0 -4.1673648177666918 0 0 -1 0.35457081218349296 4.3420966947986622e-017 0 1 I I #
coedge $-1 $266 $266 $267 $276 forward $252 $-1 #
edge $-1 $277 0 $270 3.1415926535897931 $275 $281 forward 7 unknown #
vertex $-1 $276 $282 #
ellipse-curve $-1 0.25609003688227183 3.1360948631663698e-017 -4.1499999999999986 1.2246063538223773e-016 -1 -4.2581107364186329e-032 1.6653345369377348e-016 2.4651903288156619e-032 -0.10000000000000053 1 I I #
ellipse-curve $-1 0 -2.7755575615628914e-017 -4.25 -3.4682271536726465e-015 -8.0061503805969049e-031 1 0.256090036882272 5.9116524247292636e-017 8.8817841970012523e-016 1 I I #
point $-1 -0.256090036882272 -6.2721897263327445e-017 -4.2499999999999991 #
ellipse-curve $-1 0 -1.3877787807814457e-017 -4.25 3.4682271536726465e-015 6.1266816947418628e-031 -1 0.256090036882272 4.5238736439478179e-017 8.8817841970012523e-016 1 I I #
point $-1 0.256090036882272 3.1360948631663723e-017 -4.2499999999999991 #
End-of-ACIS-data 