700 0 2 0           
24 FBMach with ACIS - 7.0.3 13 ACIS 7.0.3 NT 24 Tue May 14 15:27:32 2002 
1 9.9999999999999995e-007 1e-010 
body $2 -1 $-1 $3 $-1 $4 #
bdycol-kcp $-1 -1 1 4 $5 $6 $7 $8 #
model_id-kcp-attrib $-1 -1 $-1 $-1 $0 1 1021404450 1021404450 1690894337 1 #
lump $-1 -1 $-1 $-1 $9 $0 #
transform $-1 -1 1 0 0 0 1 0 0 0 1 0 0 0 1 rotate no_reflect no_shear #
body $10 -1 $-1 $11 $-1 $12 #
body $13 -1 $-1 $14 $-1 $15 #
body $16 -1 $-1 $17 $-1 $18 #
body $19 -1 $-1 $20 $-1 $21 #
shell $-1 -1 $-1 $-1 $-1 $22 $-1 $3 #
rgb_color-st-attrib $-1 -1 $23 $-1 $5 0.5 1 1 #
lump $-1 -1 $-1 $-1 $24 $5 #
transform $-1 -1 1 0 0 0 1 0 0 0 1 0.012699999999997047 0 -34.925000000000011 1 no_rotate no_reflect no_shear #
model_id-kcp-attrib $-1 -1 $-1 $-1 $6 1 1021404450 1021404450 1690894338 1 #
lump $-1 -1 $-1 $-1 $25 $6 #
transform $-1 -1 1 0 0 0 1 0 0 0 1 0.012699999999997047 0 -34.925000000000011 1 no_rotate no_reflect no_shear #
rgb_color-st-attrib $-1 -1 $26 $-1 $7 1 0.5 1 #
lump $-1 -1 $-1 $-1 $27 $7 #
transform $-1 -1 1 0 0 0 1 0 0 0 1 0.012699999999997047 0 -34.925000000000011 1 no_rotate no_reflect no_shear #
rgb_color-st-attrib $-1 -1 $28 $-1 $8 0 0 1 #
lump $-1 -1 $-1 $-1 $29 $8 #
transform $-1 -1 1 0 0 0 1 0 0 0 1 0.012699999999997047 0 -34.925000000000011 1 no_rotate no_reflect no_shear #
face $30 -1 $-1 $31 $32 $9 $-1 $33 forward single #
model_id-kcp-attrib $-1 -1 $-1 $10 $5 1 1021404450 1021404450 1685258243 1 #
shell $-1 -1 $-1 $-1 $-1 $34 $-1 $11 #
shell $-1 -1 $-1 $-1 $-1 $35 $-1 $14 #
model_id-kcp-attrib $-1 -1 $-1 $16 $7 1 1021404450 1021404452 1686831109 1 #
shell $-1 -1 $-1 $-1 $-1 $36 $-1 $17 #
model_id-kcp-attrib $-1 -1 $-1 $19 $8 1 1021404450 1021404452 1689845764 1 #
shell $-1 -1 $-1 $-1 $-1 $37 $-1 $20 #
model_id-kcp-attrib $-1 -1 $-1 $-1 $22 1 1021404450 1021404450 1690894337 2 #
face $38 -1 $-1 $39 $40 $9 $-1 $41 forward single #
loop $-1 -1 $-1 $42 $43 $22 #
plane-surface $-1 -1 $-1 0 0 0 0 0 1 -25.399999999999999 0 0 forward_v I I I I #
face $-1 -1 $-1 $44 $45 $24 $-1 $46 reversed single #
face $47 -1 $-1 $48 $49 $25 $-1 $50 forward single #
face $-1 -1 $-1 $51 $52 $27 $-1 $53 forward single #
face $-1 -1 $-1 $54 $55 $29 $-1 $56 forward single #
model_id-kcp-attrib $-1 -1 $-1 $-1 $31 1 1021404450 1021404450 1690894337 3 #
face $57 -1 $-1 $58 $59 $9 $-1 $60 forward single #
loop $-1 -1 $-1 $-1 $61 $31 #
torus-surface $-1 -1 $-1 0 0 -0.76200000000000623 0 0 1 10.341609999999999 0.7619999999999999 -1 0 0 forward_v I I I I #
loop $-1 -1 $-1 $-1 $62 $22 #
coedge $-1 -1 $-1 $63 $63 $64 $65 reversed $32 $-1 #
face $-1 -1 $-1 $66 $67 $24 $-1 $46 reversed single #
loop $-1 -1 $-1 $-1 $68 $34 #
cone-surface $-1 -1 $-1 -0.012699999999997047 -4.4408920985006262e-016 -73.024999999999977 0 0 -1 10.639996712034266 -3.1749999999999998 0 1 I I 0 1 11.10361 forward I I I I #
model_id-kcp-attrib $-1 -1 $-1 $-1 $35 1 1021404450 1021404450 1690894338 3 #
face $69 -1 $-1 $70 $71 $25 $-1 $72 reversed single #
loop $-1 -1 $-1 $-1 $73 $35 #
plane-surface $-1 -1 $-1 0 0 73.025000000000006 0 0 1 1 0 0 forward_v I I I I #
face $-1 -1 $-1 $74 $75 $27 $-1 $76 forward single #
loop $-1 -1 $-1 $77 $78 $36 #
cone-surface $-1 -1 $-1 -0.012699999999997047 0 34.925000000000011 0 0 1 0 6.3499999999999996 0 1 I I 0 -1 6.3499999999999996 forward I I I I #
face $-1 -1 $-1 $79 $80 $29 $-1 $81 forward single #
loop $-1 -1 $-1 $82 $83 $37 #
cone-surface $-1 -1 $-1 6.337299999999999 0 28.57500000000001 1 0 0 0 3.1749999999999998 0 1 I I 0 1 3.1749999999999998 forward I I I I #
model_id-kcp-attrib $-1 -1 $-1 $-1 $39 1 1021404450 1021404450 1690894337 4 #
face $84 -1 $-1 $85 $86 $9 $-1 $87 forward single #
loop $-1 -1 $-1 $-1 $88 $39 #
torus-surface $-1 -1 $-1 0 0 -0.76200000000000623 0 0 1 10.341609999999999 0.7619999999999999 -1 0 0 forward_v I I I I #
coedge $-1 -1 $-1 $64 $89 $90 $91 forward $40 $-1 #
coedge $-1 -1 $-1 $92 $92 $93 $94 reversed $42 $-1 #
coedge $-1 -1 $-1 $43 $43 $95 $96 forward $32 $-1 #
coedge $-1 -1 $-1 $97 $61 $43 $65 forward $40 $-1 #
edge $98 -1 $-1 $99 2.9504218349399561e-032 $100 3.1415926535897931 $43 $101 forward @7 unknown #
face $-1 -1 $-1 $102 $103 $24 $-1 $46 reversed single #
loop $-1 -1 $-1 $-1 $104 $44 #
coedge $-1 -1 $-1 $105 $106 $107 $108 reversed $45 $-1 #
model_id-kcp-attrib $-1 -1 $-1 $-1 $48 1 1021404450 1021404450 1690894338 2 #
face $-1 -1 $-1 $109 $110 $25 $-1 $111 reversed single #
loop $-1 -1 $-1 $-1 $112 $48 #
plane-surface $-1 -1 $-1 0 0 -73.025000000000006 0 0 1 1 0 0 forward_v I I I I #
coedge $-1 -1 $-1 $113 $114 $115 $116 forward $49 $-1 #
face $-1 -1 $-1 $117 $118 $27 $-1 $119 forward single #
loop $-1 -1 $-1 $120 $121 $51 #
cone-surface $-1 -1 $-1 -0.012699999999997047 -4.4408920985006262e-016 34.925000000000011 0 0 1 10.639996712034266 -3.1749999999999998 0 1 I I 0 1 11.10361 forward I I I I #
loop $-1 -1 $-1 $-1 $122 $36 #
coedge $-1 -1 $-1 $78 $78 $123 $124 forward $52 $-1 #
face $-1 -1 $-1 $-1 $125 $29 $-1 $126 reversed single #
loop $-1 -1 $-1 $-1 $127 $54 #
plane-surface $-1 -1 $-1 10.627296712034264 0 28.575000000000006 1 0 0 0 0 -1 forward_v I I I I #
loop $-1 -1 $-1 $-1 $128 $37 #
coedge $-1 -1 $-1 $83 $83 $127 $129 forward $55 $-1 #
model_id-kcp-attrib $-1 -1 $-1 $-1 $58 1 1021404450 1021404450 1690894337 5 #
face $130 -1 $-1 $131 $132 $9 $-1 $133 reversed single #
loop $-1 -1 $-1 $-1 $134 $58 #
cone-surface $-1 -1 $-1 0 0 -113.34749999999998 0 0 1 -11.10361 0 0 1 I I 0 1 11.10361 forward I I I I #
coedge $-1 -1 $-1 $95 $135 $97 $136 forward $59 $-1 #
coedge $-1 -1 $-1 $61 $97 $137 $138 reversed $40 $-1 #
coedge $-1 -1 $-1 $135 $95 $61 $91 reversed $59 $-1 #
edge $-1 -1 $-1 $139 2.9704293851109477e-014 $99 1.5707963267949014 $90 $140 forward @7 unknown #
coedge $-1 -1 $-1 $62 $62 $141 $142 reversed $42 $-1 #
coedge $-1 -1 $-1 $143 $144 $62 $94 forward $145 $-1 #
edge $146 -1 $-1 $147 0 $148 3.1415926535897931 $62 $149 forward @7 unknown #
coedge $-1 -1 $-1 $90 $88 $63 $96 reversed $59 $-1 #
edge $150 -1 $-1 $99 -2.9504218349399561e-032 $100 3.1415926535897931 $63 $151 forward @7 unknown #
coedge $-1 -1 $-1 $89 $64 $88 $136 reversed $40 $-1 #
attrib_edge_convexity-kcp-attrib $-1 -1 $152 $-1 $65 3 #
vertex $-1 -1 $-1 $96 $153 #
vertex $-1 -1 $-1 $96 $154 #
ellipse-curve $-1 -1 $-1 0 -3.5249581031848718e-016 0 -6.1353353933601921e-016 -9.604611838263443e-032 -1 10.341609999999999 1.6189359417937908e-015 -6.3449245857327695e-015 1 I I #
face $-1 -1 $-1 $155 $156 $24 $-1 $157 reversed single #
loop $-1 -1 $-1 $-1 $158 $66 #
coedge $-1 -1 $-1 $159 $160 $161 $162 reversed $67 $-1 #
coedge $-1 -1 $-1 $163 $68 $164 $165 forward $45 $-1 #
coedge $-1 -1 $-1 $68 $163 $166 $167 reversed $45 $-1 #
coedge $-1 -1 $-1 $168 $169 $68 $108 forward $170 $-1 #
edge $-1 -1 $-1 $171 2.8516022387752886 $172 4.4223985655701856 $107 $173 forward @7 unknown #
face $-1 -1 $-1 $174 $175 $25 $-1 $176 reversed single #
loop $-1 -1 $-1 $-1 $177 $70 #
plane-surface $-1 -1 $-1 0 -11.103610000000005 0 0 1 0 0 0 1 forward_v I I I I #
coedge $-1 -1 $-1 $178 $179 $180 $181 forward $71 $-1 #
coedge $-1 -1 $-1 $182 $73 $183 $184 forward $49 $-1 #
coedge $-1 -1 $-1 $73 $182 $185 $186 forward $49 $-1 #
coedge $-1 -1 $-1 $187 $188 $73 $116 reversed $189 $-1 #
edge $-1 -1 $-1 $190 -11.103610000000005 $191 11.103610000000005 $115 $192 forward @7 unknown #
face $-1 -1 $-1 $-1 $193 $27 $-1 $194 reversed single #
loop $-1 -1 $-1 $195 $196 $74 #
plane-surface $-1 -1 $-1 -0.62805784335374115 0.18362422522540342 73.025000000000006 4.9512893376522475e-032 9.9025786753044973e-032 1 1 0 -4.9512893376522475e-032 forward_v I I I I #
loop $-1 -1 $-1 $-1 $197 $51 #
coedge $-1 -1 $-1 $121 $121 $196 $198 forward $75 $-1 #
coedge $-1 -1 $-1 $122 $122 $199 $200 reversed $77 $-1 #
coedge $-1 -1 $-1 $123 $123 $78 $124 reversed $195 $-1 #
edge $-1 -1 $-1 $201 -3.1415926535897931 $201 3.1415926535897931 $78 $202 forward @7 unknown #
loop $-1 -1 $-1 $-1 $203 $79 #
plane-surface $-1 -1 $-1 6.337299999999999 0 28.575000000000006 1 0 0 0 0 -1 forward_v I I I I #
coedge $-1 -1 $-1 $127 $127 $83 $129 reversed $80 $-1 #
coedge $-1 -1 $-1 $128 $128 $203 $204 reversed $82 $-1 #
edge $-1 -1 $-1 $205 -3.1415926535897931 $205 3.1415926535897931 $83 $206 forward @7 unknown #
model_id-kcp-attrib $-1 -1 $-1 $-1 $85 1 1021404450 1021404450 1690894337 6 #
face $207 -1 $-1 $208 $209 $9 $-1 $210 reversed single #
loop $-1 -1 $-1 $-1 $211 $85 #
cone-surface $-1 -1 $-1 6.3499999999999996 0 -6.3499999999999996 1 0 0 0 3.1749999999999998 0 1 I I 0 1 3.1749999999999998 forward I I I I #
coedge $-1 -1 $-1 $212 $213 $214 $215 forward $86 $-1 #
coedge $-1 -1 $-1 $88 $90 $216 $217 forward $59 $-1 #
edge $-1 -1 $-1 $218 2.9687902763147419e-014 $100 1.5707963267948974 $88 $219 forward @7 unknown #
coedge $-1 -1 $-1 $220 $221 $89 $138 forward $222 $-1 #
edge $-1 -1 $-1 $139 0 $218 3.1415926535897931 $137 $223 forward @7 unknown #
vertex $-1 -1 $-1 $224 $225 #
ellipse-curve $-1 -1 $-1 10.341610000000001 1.2664401314753039e-015 -0.76200000000000456 1.2246063538223743e-016 -1 -3.7939494968792649e-031 0.76199999999999779 9.3315004161264651e-017 -1.762479051592436e-015 1 I I #
coedge $-1 -1 $-1 $226 $227 $92 $142 forward $228 $-1 #
edge $229 -1 $-1 $148 0 $147 3.1415926535897931 $92 $230 forward @7 unknown #
coedge $-1 -1 $-1 $231 $93 $227 $232 forward $145 $-1 #
coedge $-1 -1 $-1 $93 $231 $226 $233 reversed $145 $-1 #
loop $-1 -1 $-1 $-1 $143 $234 #
attrib_edge_convexity-kcp-attrib $-1 -1 $235 $-1 $94 2 #
vertex $-1 -1 $-1 $142 $236 #
vertex $-1 -1 $-1 $142 $237 #
ellipse-curve $-1 -1 $-1 0 0 0 0 0 1 0 -6.3499999999999996 0 1 I I #
attrib_edge_convexity-kcp-attrib $-1 -1 $238 $-1 $96 3 #
ellipse-curve $-1 -1 $-1 0 -1.0574874309554614e-015 0 6.1353353933601921e-016 1.3787094103709916e-031 1 10.341609999999999 2.3239275624307652e-015 -6.3449245857327695e-015 1 I I #
convexity-sys-attrib $-1 -1 $-1 $98 $65 #
point $-1 -1 $-1 10.341609999999999 1.2664401314753033e-015 -6.3449245857327695e-015 #
point $-1 -1 $-1 -10.341609999999999 0 -6.3449245857327695e-015 #
face $-1 -1 $-1 $239 $240 $24 $-1 $241 reversed single #
loop $-1 -1 $-1 $-1 $166 $102 #
plane-surface $-1 -1 $-1 0 11.103610000000005 0 0 -1 0 0 0 -1 forward_v I I I I #
coedge $-1 -1 $-1 $164 $242 $243 $244 reversed $103 $-1 #
coedge $-1 -1 $-1 $245 $104 $246 $247 reversed $67 $-1 #
coedge $-1 -1 $-1 $104 $245 $106 $167 forward $67 $-1 #
coedge $-1 -1 $-1 $248 $249 $104 $162 forward $250 $-1 #
edge $-1 -1 $-1 $251 -1.2808059119803923 $252 1.8607867416094011 $161 $253 forward @7 unknown #
coedge $-1 -1 $-1 $106 $105 $254 $255 reversed $45 $-1 #
coedge $-1 -1 $-1 $256 $158 $257 $165 reversed $103 $-1 #
edge $-1 -1 $-1 $171 -146.04999999999998 $258 2.8421709430404007e-014 $257 $259 forward @7 unknown #
coedge $-1 -1 $-1 $260 $261 $262 $167 forward $156 $-1 #
edge $-1 -1 $-1 $172 -146.04999999999998 $252 2.8421709430404007e-014 $166 $263 forward @7 unknown #
coedge $-1 -1 $-1 $169 $107 $261 $264 forward $170 $-1 #
coedge $-1 -1 $-1 $107 $168 $265 $266 forward $170 $-1 #
loop $-1 -1 $-1 $-1 $107 $267 #
vertex $-1 -1 $-1 $268 $269 #
vertex $-1 -1 $-1 $264 $270 #
ellipse-curve $-1 -1 $-1 -0.012699999999997047 -4.4408920985006262e-016 73.025000000000006 0 0 -1 10.639996712034266 -3.1749999999999998 0 1 I I #
face $-1 -1 $-1 $271 $272 $25 $-1 $273 reversed single #
loop $-1 -1 $-1 $-1 $274 $109 #
plane-surface $-1 -1 $-1 -11.116310000000002 0 0 1 0 0 0 0 -1 forward_v I I I I #
coedge $-1 -1 $-1 $275 $185 $276 $277 forward $110 $-1 #
coedge $-1 -1 $-1 $278 $112 $275 $279 forward $71 $-1 #
coedge $-1 -1 $-1 $112 $278 $280 $281 forward $71 $-1 #
coedge $-1 -1 $-1 $188 $187 $112 $181 reversed $189 $-1 #
edge $-1 -1 $-1 $282 -11.103610000000005 $283 11.103610000000005 $180 $284 forward @7 unknown #
coedge $-1 -1 $-1 $114 $113 $285 $286 forward $49 $-1 #
coedge $-1 -1 $-1 $287 $288 $113 $184 reversed $272 $-1 #
edge $-1 -1 $-1 $191 -11.116310000000002 $289 11.116310000000002 $183 $290 forward @7 unknown #
coedge $-1 -1 $-1 $177 $291 $114 $186 reversed $110 $-1 #
edge $-1 -1 $-1 $292 -11.116310000000002 $190 11.116310000000002 $185 $293 forward @7 unknown #
coedge $-1 -1 $-1 $180 $115 $291 $294 forward $189 $-1 #
coedge $-1 -1 $-1 $115 $180 $287 $295 reversed $189 $-1 #
loop $-1 -1 $-1 $-1 $187 $271 #
vertex $-1 -1 $-1 $116 $296 #
vertex $-1 -1 $-1 $116 $297 #
straight-curve $-1 -1 $-1 11.116310000000002 0 73.025000000000006 0 1 0 I I #
loop $-1 -1 $-1 $298 $299 $117 #
plane-surface $-1 -1 $-1 -0.62805784335374115 0.18362422522540342 34.925000000000011 4.9512893376522475e-032 9.9025786753044973e-032 1 1 0 -4.9512893376522475e-032 forward_v I I I I #
loop $-1 -1 $-1 $-1 $123 $74 #
coedge $-1 -1 $-1 $196 $196 $121 $198 reversed $118 $-1 #
coedge $-1 -1 $-1 $197 $197 $299 $300 reversed $120 $-1 #
edge $-1 -1 $-1 $301 -3.1415926535897931 $301 3.1415926535897931 $121 $302 forward @7 unknown #
coedge $-1 -1 $-1 $199 $199 $122 $200 forward $298 $-1 #
edge $303 -1 $-1 $304 0 $304 6.2831853071795862 $122 $305 forward @7 unknown #
vertex $-1 -1 $-1 $124 $306 #
ellipse-curve $-1 -1 $-1 -0.012699999999997047 0 73.025000000000006 0 0 1 0 6.3499999999999996 0 1 I I #
coedge $-1 -1 $-1 $203 $203 $128 $204 forward $125 $-1 #
edge $307 -1 $-1 $308 0 $308 6.2831853071795862 $128 $309 forward @7 unknown #
vertex $-1 -1 $-1 $129 $310 #
ellipse-curve $-1 -1 $-1 10.627296712034264 0 28.57500000000001 -1 0 0 0 3.1749999999999998 0 1 I I #
model_id-kcp-attrib $-1 -1 $-1 $-1 $131 1 1021404450 1021404450 1690894337 7 #
face $311 -1 $-1 $312 $222 $9 $-1 $313 forward single #
loop $-1 -1 $-1 $-1 $314 $131 #
cone-surface $-1 -1 $-1 6.3499999999999996 0 -6.3499999999999996 1 0 0 0 3.1749999999999998 0 1 I I 0 1 3.1749999999999998 forward I I I I #
coedge $-1 -1 $-1 $315 $214 $316 $317 reversed $132 $-1 #
coedge $-1 -1 $-1 $318 $134 $319 $320 forward $86 $-1 #
coedge $-1 -1 $-1 $134 $321 $322 $323 forward $86 $-1 #
coedge $-1 -1 $-1 $211 $324 $134 $215 reversed $132 $-1 #
edge $-1 -1 $-1 $325 0 $326 1 $134 $327 forward @7 unknown #
coedge $-1 -1 $-1 $321 $328 $135 $217 reversed $86 $-1 #
edge $-1 -1 $-1 $139 0 $218 3.1415926535897931 $216 $329 forward @7 unknown #
vertex $-1 -1 $-1 $217 $330 #
ellipse-curve $-1 -1 $-1 -10.341609999999999 -2.5328802629506066e-015 -0.76200000000000578 -2.4492127076447604e-016 1 2.2602252321833955e-031 -0.76199999999999923 -1.8663000832253053e-016 -5.2874371547773072e-016 1 I I #
coedge $-1 -1 $-1 $331 $137 $328 $332 forward $222 $-1 #
coedge $-1 -1 $-1 $137 $333 $321 $224 reversed $222 $-1 #
loop $-1 -1 $-1 $-1 $221 $208 #
ellipse-curve $-1 -1 $-1 0 0 -0.76200000000000623 0 0 -1 11.10361 1.3597551356365685e-015 0 1 I I #
edge $-1 -1 $-1 $139 0 $334 0.095000000000000639 $321 $335 forward @7 unknown #
point $-1 -1 $-1 11.10361 1.3597551356365685e-015 -0.76199999999998369 #
coedge $-1 -1 $-1 $336 $141 $144 $233 forward $228 $-1 #
coedge $-1 -1 $-1 $141 $336 $143 $232 reversed $228 $-1 #
loop $-1 -1 $-1 $-1 $226 $337 #
attrib_edge_convexity-kcp-attrib $-1 -1 $338 $-1 $142 2 #
ellipse-curve $-1 -1 $-1 0 0 0 0 0 1 0 6.3499999999999996 0 1 I I #
coedge $-1 -1 $-1 $144 $143 $339 $340 reversed $145 $-1 #
edge $-1 -1 $-1 $148 0 $341 1.4999999999999998 $227 $342 forward @7 unknown #
edge $-1 -1 $-1 $147 0 $343 1.4999999999999998 $226 $344 forward @7 unknown #
face $345 -1 $-1 $337 $145 $9 $-1 $346 forward single #
convexity-sys-attrib $-1 -1 $-1 $146 $94 #
point $-1 -1 $-1 0 -6.3499999999999996 0 #
point $-1 -1 $-1 0 6.3499999999999996 0 #
convexity-sys-attrib $-1 -1 $-1 $150 $96 #
face $-1 -1 $-1 $267 $347 $24 $-1 $348 forward single #
loop $-1 -1 $-1 $-1 $257 $155 #
plane-surface $-1 -1 $-1 -11.116310000000002 0 0 1 0 0 0 0 -1 forward_v I I I I #
coedge $-1 -1 $-1 $158 $256 $159 $247 forward $103 $-1 #
coedge $-1 -1 $-1 $349 $350 $158 $244 forward $351 $-1 #
edge $-1 -1 $-1 $258 -2.8516022387752886 $251 -1.2808059119803923 $243 $253 forward @7 unknown #
coedge $-1 -1 $-1 $160 $159 $352 $353 reversed $67 $-1 #
coedge $-1 -1 $-1 $354 $355 $356 $247 forward $357 $-1 #
edge $-1 -1 $-1 $358 -146.04999999999998 $251 2.8421709430404007e-014 $246 $359 forward @7 unknown #
coedge $-1 -1 $-1 $360 $161 $361 $362 forward $250 $-1 #
coedge $-1 -1 $-1 $161 $360 $354 $363 forward $250 $-1 #
loop $-1 -1 $-1 $-1 $161 $364 #
vertex $-1 -1 $-1 $365 $366 #
vertex $-1 -1 $-1 $362 $367 #
ellipse-curve $-1 -1 $-1 -0.012699999999997047 -4.4408920985006262e-016 -73.025000000000006 0 0 1 10.639996712034266 -3.1749999999999998 0 1 I I #
coedge $-1 -1 $-1 $368 $369 $163 $255 forward $370 $-1 #
edge $-1 -1 $-1 $252 1.8607867416094011 $258 3.4315830684042976 $254 $253 forward @7 unknown #
coedge $-1 -1 $-1 $242 $164 $371 $372 reversed $103 $-1 #
coedge $-1 -1 $-1 $373 $374 $375 $165 forward $240 $-1 #
vertex $-1 -1 $-1 $376 $377 #
straight-curve $-1 -1 $-1 -11.116310000000002 -4.4408920985006262e-016 -73.024999999999977 0 0 -1 I I #
coedge $-1 -1 $-1 $378 $166 $369 $379 reversed $156 $-1 #
coedge $-1 -1 $-1 $166 $378 $168 $264 reversed $156 $-1 #
coedge $-1 -1 $-1 $380 $361 $160 $167 reversed $381 $-1 #
straight-curve $-1 -1 $-1 -0.012699999999997047 11.103610000000005 -73.024999999999977 0 0 -1 I I #
edge $-1 -1 $-1 $172 0.012699999999997047 $382 11.116310000000002 $261 $383 forward @7 unknown #
coedge $-1 -1 $-1 $384 $375 $169 $266 reversed $385 $-1 #
edge $-1 -1 $-1 $382 -11.103610000000005 $171 4.4408920985006262e-016 $265 $386 forward @7 unknown #
face $-1 -1 $-1 $387 $170 $24 $-1 $348 forward single #
edge $-1 -1 $-1 $171 4.4408920985006262e-016 $388 11.103610000000005 $374 $386 forward @7 unknown #
point $-1 -1 $-1 -11.116310000000002 -4.4408920985006262e-016 73.025000000000006 #
point $-1 -1 $-1 -0.012699999999997047 11.103610000000005 73.025000000000006 #
face $-1 -1 $-1 $-1 $189 $25 $-1 $389 reversed single #
loop $-1 -1 $-1 $-1 $287 $174 #
plane-surface $-1 -1 $-1 0 11.103610000000005 0 0 -1 0 0 0 -1 forward_v I I I I #
coedge $-1 -1 $-1 $390 $285 $288 $391 forward $175 $-1 #
coedge $-1 -1 $-1 $291 $177 $178 $279 reversed $110 $-1 #
coedge $-1 -1 $-1 $285 $390 $177 $277 reversed $175 $-1 #
edge $-1 -1 $-1 $292 -73.025000000000006 $392 73.025000000000006 $276 $393 forward @7 unknown #
coedge $-1 -1 $-1 $179 $178 $390 $394 forward $71 $-1 #
edge $-1 -1 $-1 $283 -11.116310000000002 $392 11.116310000000002 $275 $395 forward @7 unknown #
coedge $-1 -1 $-1 $288 $287 $179 $281 reversed $272 $-1 #
edge $-1 -1 $-1 $396 -11.116310000000002 $282 11.116310000000002 $280 $397 forward @7 unknown #
vertex $-1 -1 $-1 $181 $398 #
vertex $-1 -1 $-1 $294 $399 #
straight-curve $-1 -1 $-1 11.116310000000002 0 -73.025000000000006 0 -1 0 I I #
coedge $-1 -1 $-1 $274 $276 $182 $286 reversed $175 $-1 #
edge $-1 -1 $-1 $289 -11.103610000000005 $292 11.103610000000005 $285 $400 forward @7 unknown #
coedge $-1 -1 $-1 $280 $183 $188 $295 forward $272 $-1 #
coedge $-1 -1 $-1 $183 $280 $274 $391 reversed $272 $-1 #
vertex $-1 -1 $-1 $184 $401 #
straight-curve $-1 -1 $-1 0 11.103610000000005 73.025000000000006 -1 0 0 I I #
coedge $-1 -1 $-1 $185 $275 $187 $294 reversed $110 $-1 #
vertex $-1 -1 $-1 $286 $402 #
straight-curve $-1 -1 $-1 0 -11.103610000000005 73.025000000000006 1 0 0 I I #
edge $-1 -1 $-1 $190 -73.025000000000006 $283 73.025000000000006 $187 $403 forward @7 unknown #
edge $-1 -1 $-1 $191 -73.025000000000006 $282 73.025000000000006 $188 $404 forward @7 unknown #
point $-1 -1 $-1 11.116310000000002 -11.103610000000005 73.025000000000006 #
point $-1 -1 $-1 11.116310000000002 11.103610000000005 73.025000000000006 #
loop $-1 -1 $-1 $-1 $199 $117 #
coedge $-1 -1 $-1 $299 $299 $197 $300 forward $193 $-1 #
edge $405 -1 $-1 $406 -3.1415926535897931 $406 3.1415926535897931 $197 $407 forward @7 unknown #
vertex $-1 -1 $-1 $198 $408 #
ellipse-curve $-1 -1 $-1 -0.012699999999997047 -4.4408920985006262e-016 73.025000000000006 0 0 -1 10.639996712034266 -3.1749999999999998 0 1 I I #
convexity-sys-attrib $-1 -1 $-1 $-1 $200 #
vertex $-1 -1 $-1 $200 $409 #
ellipse-curve $-1 -1 $-1 -0.012699999999997047 0 34.925000000000011 0 0 1 0 6.3499999999999996 0 1 I I #
point $-1 -1 $-1 -0.012699999999997047 -6.3499999999999996 73.025000000000006 #
convexity-sys-attrib $-1 -1 $-1 $-1 $204 #
vertex $-1 -1 $-1 $204 $410 #
ellipse-curve $-1 -1 $-1 6.337299999999999 0 28.57500000000001 -1 0 0 0 3.1749999999999998 0 1 I I #
point $-1 -1 $-1 10.627296712034267 -3.1749999999999998 28.57500000000001 #
model_id-kcp-attrib $-1 -1 $-1 $-1 $208 1 1021404450 1021404450 1690894337 8 #
face $411 -1 $-1 $412 $413 $9 $-1 $414 reversed single #
cone-surface $-1 -1 $-1 0 0 -113.34749999999998 0 0 1 -11.10361 0 0 1 I I 0 1 11.10361 forward I I I I #
coedge $-1 -1 $-1 $415 $322 $333 $416 reversed $209 $-1 #
coedge $-1 -1 $-1 $417 $211 $418 $419 reversed $132 $-1 #
coedge $-1 -1 $-1 $322 $420 $211 $317 forward $209 $-1 #
edge $-1 -1 $-1 $421 0 $325 0.1688975083478057 $316 $422 forward @7 unknown #
coedge $-1 -1 $-1 $328 $212 $423 $424 forward $86 $-1 #
coedge $-1 -1 $-1 $425 $331 $212 $320 reversed $222 $-1 #
edge $-1 -1 $-1 $326 0 $426 0.37499999999999994 $212 $427 forward @7 unknown #
coedge $-1 -1 $-1 $213 $216 $221 $224 forward $86 $-1 #
coedge $-1 -1 $-1 $314 $316 $213 $323 reversed $209 $-1 #
edge $-1 -1 $-1 $334 0 $325 1 $213 $428 forward @7 unknown #
coedge $-1 -1 $-1 $214 $417 $425 $429 reversed $132 $-1 #
vertex $-1 -1 $-1 $323 $430 #
vertex $-1 -1 $-1 $320 $431 #
intcurve-curve $-1 -1 $-1 forward { surfintcur full nurbs 3 open 8 
	0 3 0.14257815437766708 1 0.28572151915398547 1 0.42875625187499633 1 0.57148809246986421 1 
	0.71464351144430094 1 0.85767963088106103 1 1 3 
	10.639996712034264 3.175000000000002 -6.3499999999999996 1 
	10.640452595191267 3.17560067118974 -6.5860836547412944 0.99999999999999989 
	10.655081580746105 3.1241907515578693 -7.049663233298963 1 
	10.724456237118373 2.8833926615861287 -7.7458651173523769 0.99999999999999978 
	10.822825779697371 2.4948482520352009 -8.3552439378282699 0.99999999999999978 
	10.927034658922967 1.9991630288682354 -8.8504248201137763 1 
	11.024228344459996 1.3812141611895745 -9.2406966218771522 1.0000000000000004 
	11.089583719865486 0.68900362032693585 -9.4756659007695649 0.99999999999999978 
	11.10339507707161 0.23164018947699674 -9.5260156812516872 1.0000000000000002 
	11.10361 1.3597551356365685e-015 -9.5249999999999986 1 
	0.025399999999999999 
	cone 6.3499999999999996 0 -6.3499999999999996 1 0 0 0 3.1749999999999998 0 1 I I 0 1 3.1749999999999998 forward I I I I 
	cone 0 0 -113.34749999999998 0 0 1 -11.10361 0 0 1 I I 0 1 11.10361 forward I I I I 
	nullbs 
	nullbs 
	I I 
	0 
	0 
	0 
	} I I #
coedge $-1 -1 $-1 $216 $318 $220 $332 reversed $86 $-1 #
ellipse-curve $-1 -1 $-1 0 0 -0.76199999999999501 -1.0158737500859261e-015 -1.2440454490365908e-031 1 11.10361 1.3597551356365685e-015 1.127986593019159e-014 1 I I #
point $-1 -1 $-1 -11.10361 -2.7195102712731369e-015 -0.76199999999998369 #
coedge $-1 -1 $-1 $319 $220 $432 $433 reversed $222 $-1 #
edge $-1 -1 $-1 $218 0 $434 0.72000000000000064 $328 $435 forward @7 unknown #
coedge $-1 -1 $-1 $221 $425 $314 $416 forward $222 $-1 #
vertex $-1 -1 $-1 $323 $436 #
straight-curve $-1 -1 $-1 11.10361 1.3597551356365685e-015 -0.76199999999998369 0 0 -25.399999999999999 I I #
coedge $-1 -1 $-1 $227 $226 $437 $438 reversed $228 $-1 #
face $439 -1 $-1 $440 $228 $9 $-1 $441 forward single #
convexity-sys-attrib $-1 -1 $-1 $229 $142 #
coedge $-1 -1 $-1 $437 $437 $231 $340 forward $442 $-1 #
edge $-1 -1 $-1 $343 0 $341 3.1415926535897931 $339 $443 forward @7 unknown #
vertex $-1 -1 $-1 $438 $444 #
straight-curve $-1 -1 $-1 0 6.3499999999999996 0 0 0 25.399999999999999 I I #
vertex $-1 -1 $-1 $438 $445 #
straight-curve $-1 -1 $-1 -7.7762503467720954e-016 -6.3499999999999996 0 0 0 25.399999999999999 I I #
model_id-kcp-attrib $-1 -1 $-1 $-1 $234 1 1021404450 1021404450 1690894337 19 #
cone-surface $-1 -1 $-1 0 0 0 0 0 1 0 6.3499999999999996 0 1 I I 0 1 6.3499999999999996 forward I I I I #
loop $-1 -1 $-1 $-1 $371 $239 #
plane-surface $-1 -1 $-1 0 0 73.025000000000006 0 0 1 1 0 0 forward_v I I I I #
coedge $-1 -1 $-1 $350 $243 $446 $365 forward $351 $-1 #
coedge $-1 -1 $-1 $243 $349 $373 $447 forward $351 $-1 #
loop $-1 -1 $-1 $-1 $243 $448 #
coedge $-1 -1 $-1 $449 $450 $245 $353 forward $451 $-1 #
edge $-1 -1 $-1 $172 -1.8607867416094011 $358 1.2808059119803923 $352 $173 forward @7 unknown #
coedge $-1 -1 $-1 $452 $246 $249 $363 reversed $357 $-1 #
coedge $-1 -1 $-1 $246 $452 $449 $453 reversed $357 $-1 #
coedge $-1 -1 $-1 $454 $446 $242 $247 reversed $455 $-1 #
loop $-1 -1 $-1 $-1 $246 $456 #
vertex $-1 -1 $-1 $453 $457 #
straight-curve $-1 -1 $-1 -0.012699999999997047 -11.103610000000005 -73.024999999999977 0 0 -1 I I #
coedge $-1 -1 $-1 $249 $248 $458 $459 forward $250 $-1 #
coedge $-1 -1 $-1 $262 $460 $248 $362 reversed $381 $-1 #
edge $-1 -1 $-1 $252 -0.012699999999997047 $461 11.116310000000002 $361 $462 forward @7 unknown #
edge $-1 -1 $-1 $463 -11.116310000000002 $251 0.012699999999997047 $354 $464 forward @7 unknown #
face $-1 -1 $-1 $465 $250 $24 $-1 $466 reversed single #
edge $-1 -1 $-1 $251 0.012699999999997047 $467 11.116310000000002 $446 $464 forward @7 unknown #
point $-1 -1 $-1 -0.012699999999997047 -11.103610000000005 -73.025000000000006 #
point $-1 -1 $-1 -0.012699999999997047 11.103610000000005 -73.025000000000006 #
coedge $-1 -1 $-1 $369 $254 $468 $376 forward $370 $-1 #
coedge $-1 -1 $-1 $254 $368 $260 $379 forward $370 $-1 #
loop $-1 -1 $-1 $-1 $254 $465 #
coedge $-1 -1 $-1 $469 $470 $256 $372 forward $347 $-1 #
edge $-1 -1 $-1 $358 1.2808059119803923 $171 2.8516022387752886 $371 $173 forward @7 unknown #
coedge $-1 -1 $-1 $471 $257 $350 $447 reversed $240 $-1 #
coedge $-1 -1 $-1 $257 $471 $469 $268 reversed $240 $-1 #
coedge $-1 -1 $-1 $265 $468 $105 $165 reversed $385 $-1 #
edge $-1 -1 $-1 $258 -4.4408920985006262e-016 $472 11.103610000000005 $468 $473 forward @7 unknown #
point $-1 -1 $-1 -11.116310000000002 -4.4408920985006262e-016 -73.025000000000006 #
coedge $-1 -1 $-1 $261 $260 $384 $474 reversed $156 $-1 #
edge $-1 -1 $-1 $472 -11.116310000000002 $252 -0.012699999999997047 $260 $462 forward @7 unknown #
coedge $-1 -1 $-1 $460 $262 $450 $475 reversed $381 $-1 #
loop $-1 -1 $-1 $-1 $262 $476 #
vertex $-1 -1 $-1 $264 $477 #
straight-curve $-1 -1 $-1 0 11.103610000000005 73.025000000000006 -1 0 0 I I #
coedge $-1 -1 $-1 $468 $265 $378 $474 forward $385 $-1 #
loop $-1 -1 $-1 $-1 $375 $478 #
straight-curve $-1 -1 $-1 -11.116310000000002 0 73.025000000000006 0 -1 0 I I #
face $-1 -1 $-1 $456 $451 $24 $-1 $348 forward single #
vertex $-1 -1 $-1 $268 $479 #
plane-surface $-1 -1 $-1 11.116310000000002 0 0 -1 0 0 0 0 1 forward_v I I I I #
coedge $-1 -1 $-1 $276 $274 $278 $394 reversed $175 $-1 #
edge $-1 -1 $-1 $289 -73.025000000000006 $396 73.025000000000006 $288 $480 forward @7 unknown #
vertex $-1 -1 $-1 $394 $481 #
straight-curve $-1 -1 $-1 -11.116310000000002 -11.103610000000005 0 0 0 -1 I I #
edge $-1 -1 $-1 $392 -11.103610000000005 $396 11.103610000000005 $390 $482 forward @7 unknown #
straight-curve $-1 -1 $-1 0 -11.103610000000005 -73.025000000000006 -1 0 0 I I #
vertex $-1 -1 $-1 $281 $483 #
straight-curve $-1 -1 $-1 0 11.103610000000005 -73.025000000000006 1 0 0 I I #
point $-1 -1 $-1 11.116310000000002 11.103610000000005 -73.025000000000006 #
point $-1 -1 $-1 11.116310000000002 -11.103610000000005 -73.025000000000006 #
straight-curve $-1 -1 $-1 -11.116310000000002 0 73.025000000000006 0 -1 0 I I #
point $-1 -1 $-1 -11.116310000000002 11.103610000000005 73.025000000000006 #
point $-1 -1 $-1 -11.116310000000002 -11.103610000000005 73.025000000000006 #
straight-curve $-1 -1 $-1 11.116310000000002 -11.103610000000005 0 0 0 -1 I I #
straight-curve $-1 -1 $-1 11.116310000000002 11.103610000000005 0 0 0 -1 I I #
convexity-sys-attrib $-1 -1 $-1 $-1 $300 #
vertex $-1 -1 $-1 $300 $484 #
ellipse-curve $-1 -1 $-1 -0.012699999999997047 -4.4408920985006262e-016 34.925000000000011 0 0 -1 10.639996712034266 -3.1749999999999998 0 1 I I #
point $-1 -1 $-1 -10.652696712034263 3.1750000000000007 73.025000000000006 #
point $-1 -1 $-1 -0.012699999999997047 6.3499999999999996 34.925000000000011 #
point $-1 -1 $-1 6.3373000000000026 3.1749999999999998 28.57500000000001 #
model_id-kcp-attrib $-1 -1 $-1 $-1 $312 1 1021404450 1021404450 1690894337 9 #
face $485 -1 $-1 $486 $487 $9 $-1 $488 forward single #
loop $-1 -1 $-1 $489 $490 $312 #
plane-surface $-1 -1 $-1 0 0 -19.049999999999997 0 0 1 -25.399999999999999 0 0 forward_v I I I I #
coedge $-1 -1 $-1 $420 $314 $417 $491 reversed $209 $-1 #
edge $-1 -1 $-1 $492 0 $334 1 $333 $493 forward @7 unknown #
coedge $-1 -1 $-1 $324 $315 $415 $491 forward $132 $-1 #
coedge $-1 -1 $-1 $494 $494 $315 $419 forward $495 $-1 #
edge $496 -1 $-1 $497 0 $421 3.1415926535897931 $418 $498 forward @7 unknown #
coedge $-1 -1 $-1 $316 $415 $494 $499 reversed $209 $-1 #
vertex $-1 -1 $-1 $499 $500 #
straight-curve $-1 -1 $-1 6.3499999999999996 3.1749999999999998 -6.3499999999999996 25.399999999999999 0 0 I I #
coedge $-1 -1 $-1 $432 $432 $318 $424 reversed $489 $-1 #
edge $-1 -1 $-1 $426 0 $434 3.1415926535897931 $318 $501 forward @7 unknown #
coedge $-1 -1 $-1 $333 $319 $324 $429 forward $222 $-1 #
vertex $-1 -1 $-1 $424 $502 #
straight-curve $-1 -1 $-1 11.10361 1.3597551356365685e-015 -9.5249999999999986 0 0 -25.399999999999999 I I #
intcurve-curve $-1 -1 $-1 forward { surfintcur full nurbs 3 open 8 
	0 3 0.14239031113495132 1 0.28546648034380584 1 0.42859394459360922 1 0.57131529910820256 1 
	0.71438663730816099 1 0.85750861764280351 1 1 3 
	11.10361 1.3597551356365685e-015 -3.1749999999999998 1 
	11.103366079983063 0.23278504327607633 -3.1740653769375107 1 
	11.089475149349374 0.69182337053012599 -3.2247053164294144 1 
	11.023653701627625 1.3856948645774387 -3.4614516546305696 1 
	10.926567503749069 2.0015053800890659 -3.8516710013230777 0.99999999999999978 
	10.822462339165192 2.4964645574489706 -4.3465898739115847 1.0000000000000002 
	10.72385736623329 2.8855982553932589 -4.9584313552957351 0.99999999999999967 
	10.654911521087563 3.1247461700661021 -5.65405267586228 1.0000000000000002 
	10.640394259284671 3.1757746233180137 -6.1154838363452519 0.99999999999999989 
	10.639996712034264 3.175000000000002 -6.3499999999999996 1 
	0.025399999999999999 
	cone 6.3499999999999996 0 -6.3499999999999996 1 0 0 0 3.1749999999999998 0 1 I I 0 1 3.1749999999999998 forward I I I I 
	cone 0 0 -113.34749999999998 0 0 1 -11.10361 0 0 1 I I 0 1 11.10361 forward I I I I 
	nullbs 
	nullbs 
	I I 
	0 
	0 
	0 
	} I I #
edge $-1 -1 $-1 $326 0 $492 1 $425 $503 forward @7 unknown #
point $-1 -1 $-1 10.639996712034264 3.175000000000002 -6.3499999999999996 #
point $-1 -1 $-1 11.10361 1.3597551356365685e-015 -9.5249999999999986 #
coedge $-1 -1 $-1 $423 $423 $331 $433 forward $489 $-1 #
edge $-1 -1 $-1 $426 0 $434 3.1415926535897931 $432 $504 forward @7 unknown #
vertex $-1 -1 $-1 $332 $505 #
straight-curve $-1 -1 $-1 -11.10361 -2.7195102712731369e-015 -0.76199999999998369 0 0 -25.399999999999999 I I #
point $-1 -1 $-1 11.10361 1.3597551356365685e-015 -3.1749999999999998 #
coedge $-1 -1 $-1 $339 $339 $336 $438 forward $442 $-1 #
edge $-1 -1 $-1 $341 0 $343 3.1415926535897931 $437 $506 forward @7 unknown #
model_id-kcp-attrib $-1 -1 $-1 $-1 $337 1 1021404450 1021404450 1690894337 20 #
face $507 -1 $-1 $-1 $442 $9 $-1 $508 forward single #
cone-surface $-1 -1 $-1 0 0 0 0 0 1 0 6.3499999999999996 0 1 I I 0 1 6.3499999999999996 forward I I I I #
loop $-1 -1 $-1 $-1 $339 $440 #
ellipse-curve $-1 -1 $-1 0 0 38.099999999999994 0 0 1 0 -6.3499999999999996 0 1 I I #
point $-1 -1 $-1 0 6.3499999999999996 38.099999999999994 #
point $-1 -1 $-1 0 -6.3499999999999996 38.099999999999994 #
coedge $-1 -1 $-1 $356 $509 $349 $365 reversed $455 $-1 #
edge $-1 -1 $-1 $467 -11.103610000000005 $258 -4.4408920985006262e-016 $373 $473 forward @7 unknown #
face $-1 -1 $-1 $364 $351 $24 $-1 $466 reversed single #
coedge $-1 -1 $-1 $510 $352 $355 $453 forward $451 $-1 #
coedge $-1 -1 $-1 $352 $510 $380 $475 forward $451 $-1 #
loop $-1 -1 $-1 $-1 $352 $387 #
coedge $-1 -1 $-1 $355 $354 $511 $512 reversed $357 $-1 #
edge $-1 -1 $-1 $358 -0.012699999999997047 $513 11.116310000000002 $355 $514 forward @7 unknown #
coedge $-1 -1 $-1 $509 $356 $470 $515 reversed $455 $-1 #
loop $-1 -1 $-1 $-1 $356 $516 #
face $-1 -1 $-1 $448 $357 $24 $-1 $517 reversed single #
point $-1 -1 $-1 -0.012699999999997047 -11.103610000000005 73.025000000000006 #
coedge $-1 -1 $-1 $518 $511 $360 $459 reversed $519 $-1 #
edge $-1 -1 $-1 $461 -11.103610000000005 $463 11.103610000000005 $458 $520 forward @7 unknown #
coedge $-1 -1 $-1 $361 $380 $518 $521 forward $381 $-1 #
vertex $-1 -1 $-1 $459 $522 #
straight-curve $-1 -1 $-1 0 11.103610000000005 -73.025000000000006 1 0 0 I I #
vertex $-1 -1 $-1 $512 $523 #
straight-curve $-1 -1 $-1 0 -11.103610000000005 -73.025000000000006 -1 0 0 I I #
face $-1 -1 $-1 $516 $370 $24 $-1 $466 reversed single #
plane-surface $-1 -1 $-1 0 0 -73.025000000000006 0 0 1 1 0 0 forward_v I I I I #
vertex $-1 -1 $-1 $447 $524 #
coedge $-1 -1 $-1 $375 $384 $368 $376 reversed $385 $-1 #
coedge $-1 -1 $-1 $470 $371 $374 $268 forward $347 $-1 #
coedge $-1 -1 $-1 $371 $469 $454 $515 forward $347 $-1 #
coedge $-1 -1 $-1 $374 $373 $509 $525 reversed $240 $-1 #
vertex $-1 -1 $-1 $379 $526 #
straight-curve $-1 -1 $-1 -11.116310000000002 0 -73.025000000000006 0 1 0 I I #
edge $-1 -1 $-1 $382 -73.025000000000006 $472 73.025000000000006 $378 $527 forward @7 unknown #
edge $-1 -1 $-1 $528 -11.116310000000002 $172 0.012699999999997047 $380 $383 forward @7 unknown #
face $-1 -1 $-1 $529 $381 $24 $-1 $157 reversed single #
point $-1 -1 $-1 -11.116310000000002 11.103610000000005 73.025000000000006 #
face $-1 -1 $-1 $476 $385 $24 $-1 $241 reversed single #
point $-1 -1 $-1 -11.116310000000002 -11.103610000000005 73.025000000000006 #
straight-curve $-1 -1 $-1 -11.116310000000002 11.103610000000005 0 0 0 -1 I I #
point $-1 -1 $-1 -11.116310000000002 -11.103610000000005 -73.025000000000006 #
straight-curve $-1 -1 $-1 -11.116310000000002 0 -73.025000000000006 0 1 0 I I #
point $-1 -1 $-1 -11.116310000000002 11.103610000000005 -73.025000000000006 #
point $-1 -1 $-1 -10.652696712034263 3.1750000000000007 34.925000000000011 #
model_id-kcp-attrib $-1 -1 $-1 $-1 $412 1 1021404450 1021404450 1690894337 10 #
face $530 -1 $-1 $531 $532 $9 $-1 $533 forward single #
loop $-1 -1 $-1 $-1 $534 $412 #
cone-surface $-1 -1 $-1 0 0 -113.34749999999998 0 0 1 -6.3499999999999996 0 0 1 I I 0 1 6.3499999999999996 forward I I I I #
loop $-1 -1 $-1 $-1 $423 $312 #
coedge $-1 -1 $-1 $535 $535 $534 $536 reversed $413 $-1 #
edge $-1 -1 $-1 $497 0 $492 0.16889750834780579 $415 $537 forward @7 unknown #
vertex $-1 -1 $-1 $416 $538 #
intcurve-curve $-1 -1 $-1 forward { surfintcur full nurbs 3 open 8 
	0 3 0.14257771895785765 1 0.28572024814365038 1 0.42875567554084992 1 0.57148681306079518 1 
	0.71464266941085619 1 0.85768096305459551 1 1 3 
	10.639996712034266 -3.1749999999999994 -6.3499999999999996 1 
	10.640452786910103 -3.1755997149102884 -6.1139204314188875 1 
	10.655081914393554 -3.1241890433501456 -5.6503471892875634 0.99999999999999989 
	10.72444798881412 -2.8834234769104072 -4.9541967465422569 1 
	10.822824744491285 -2.4948532088199489 -4.3447594801321552 1 
	10.92702559766623 -1.9992061390691422 -3.8496165156533269 1.0000000000000002 
	11.024224165101424 -1.3812651040485793 -3.4593173529569934 0.99999999999999989 
	11.089588823559325 -0.6889251215106017 -3.2243161954082629 1 
	11.10339752115997 -0.23160311877423365 -3.1739754623792176 0.99999999999999989 
	11.10361 1.3597551356365685e-015 -3.1749999999999998 1 
	0.025399999999999999 
	cone 6.3499999999999996 0 -6.3499999999999996 1 0 0 0 3.1749999999999998 0 1 I I 0 1 3.1749999999999998 forward I I I I 
	cone 0 0 -113.34749999999998 0 0 1 -11.10361 0 0 1 I I 0 1 11.10361 forward I I I I 
	nullbs 
	nullbs 
	I I 
	0 
	0 
	0 
	} I I #
coedge $-1 -1 $-1 $418 $418 $420 $499 forward $495 $-1 #
loop $-1 -1 $-1 $-1 $418 $539 #
attrib_edge_convexity-kcp-attrib $-1 -1 $540 $-1 $419 2 #
vertex $-1 -1 $-1 $499 $541 #
ellipse-curve $-1 -1 $-1 6.3499999999999996 0 -6.3499999999999996 1 0 0 0 -3.1749999999999998 0 1 I I #
edge $542 -1 $-1 $421 0 $497 3.1415926535897931 $494 $543 forward @7 unknown #
point $-1 -1 $-1 6.3499999999999996 3.1749999999999998 -6.3499999999999996 #
ellipse-curve $-1 -1 $-1 0 0 -19.049999999999997 0 0 1 11.10361 0 0 1 I I #
point $-1 -1 $-1 11.10361 0 -19.049999999999997 #
intcurve-curve $-1 -1 $-1 forward { surfintcur full nurbs 3 open 8 
	0 3 0.14238976300885708 1 0.28546766996109313 1 0.42859612808499792 1 0.57131733737636037 1 
	0.71438969353223314 1 0.85751027232466248 1 1 3 
	11.10361 1.3597551356365685e-015 -9.5249999999999986 1 
	11.103367634101428 -0.23276541294082459 -9.525940387899027 1.0000000000000002 
	11.089477746665551 -0.69178626693025802 -9.4753035824032033 1 
	11.023648854129172 -1.3857482372540706 -9.2385320213134516 0.99999999999999989 
	10.926553076732469 -2.0015810138412005 -8.8482653897241281 0.99999999999999989 
	10.822452605683043 -2.4965068887029922 -8.3533623393861127 1 
	10.723839817622954 -2.8856630109988206 -7.7414367028466566 0.99999999999999978 
	10.654909607364486 -3.1247518267940131 -7.0458860662299552 1 
	10.64039381226609 -3.1757754342399722 -6.5844914316108385 1 
	10.639996712034266 -3.1749999999999994 -6.3499999999999996 1 
	0.025399999999999999 
	cone 6.3499999999999996 0 -6.3499999999999996 1 0 0 0 3.1749999999999998 0 1 I I 0 1 3.1749999999999998 forward I I I I 
	cone 0 0 -113.34749999999998 0 0 1 -11.10361 0 0 1 I I 0 1 11.10361 forward I I I I 
	nullbs 
	nullbs 
	I I 
	0 
	0 
	0 
	} I I #
ellipse-curve $-1 -1 $-1 0 0 -19.049999999999997 0 0 -1 11.10361 0 0 1 I I #
point $-1 -1 $-1 -11.10361 0 -19.049999999999997 #
ellipse-curve $-1 -1 $-1 0 0 38.099999999999994 0 0 1 0 6.3499999999999996 0 1 I I #
model_id-kcp-attrib $-1 -1 $-1 $-1 $440 1 1021404450 1021404450 1690894337 21 #
plane-surface $-1 -1 $-1 0 0 38.099999999999994 0 0 1 0 25.399999999999999 0 forward_v I I I I #
coedge $-1 -1 $-1 $446 $454 $471 $525 forward $455 $-1 #
coedge $-1 -1 $-1 $450 $449 $544 $545 forward $451 $-1 #
coedge $-1 -1 $-1 $458 $544 $452 $512 forward $519 $-1 #
edge $-1 -1 $-1 $513 -73.025000000000006 $463 73.025000000000006 $511 $546 forward @7 unknown #
vertex $-1 -1 $-1 $545 $547 #
straight-curve $-1 -1 $-1 0 -11.103610000000005 73.025000000000006 1 0 0 I I #
edge $-1 -1 $-1 $388 -11.116310000000002 $358 -0.012699999999997047 $454 $514 forward @7 unknown #
face $-1 -1 $-1 $478 $455 $24 $-1 $517 reversed single #
plane-surface $-1 -1 $-1 0 -11.103610000000005 0 0 1 0 0 0 1 forward_v I I I I #
coedge $-1 -1 $-1 $544 $458 $460 $521 reversed $519 $-1 #
loop $-1 -1 $-1 $-1 $511 $529 #
straight-curve $-1 -1 $-1 11.116310000000002 0 -73.025000000000006 0 -1 0 I I #
edge $-1 -1 $-1 $528 -73.025000000000006 $461 73.025000000000006 $518 $548 forward @7 unknown #
point $-1 -1 $-1 11.116310000000002 11.103610000000005 -73.025000000000006 #
point $-1 -1 $-1 11.116310000000002 -11.103610000000005 -73.025000000000006 #
point $-1 -1 $-1 -11.116310000000002 -11.103610000000005 -73.025000000000006 #
edge $-1 -1 $-1 $388 -73.025000000000006 $467 73.025000000000006 $471 $549 forward @7 unknown #
point $-1 -1 $-1 -11.116310000000002 11.103610000000005 -73.025000000000006 #
straight-curve $-1 -1 $-1 -11.116310000000002 11.103610000000005 0 0 0 -1 I I #
vertex $-1 -1 $-1 $545 $550 #
face $-1 -1 $-1 $-1 $519 $24 $-1 $551 reversed single #
model_id-kcp-attrib $-1 -1 $-1 $-1 $486 1 1021404450 1021404450 1690894337 11 #
face $552 -1 $-1 $553 $554 $9 $-1 $555 forward single #
loop $-1 -1 $-1 $-1 $556 $486 #
cone-surface $-1 -1 $-1 0 0 -113.34749999999998 0 0 1 -6.3499999999999996 0 0 1 I I 0 1 6.3499999999999996 forward I I I I #
coedge $-1 -1 $-1 $557 $558 $490 $536 forward $487 $-1 #
coedge $-1 -1 $-1 $490 $490 $559 $560 forward $413 $-1 #
edge $-1 -1 $-1 $561 3.9127579154120494e-032 $562 3.1415926535897931 $490 $563 forward @7 unknown #
straight-curve $-1 -1 $-1 6.3499999999999996 -3.1749999999999998 -6.3499999999999988 25.399999999999999 0 0 I I #
point $-1 -1 $-1 10.639996712034266 -3.1749999999999994 -6.3499999999999996 #
face $564 -1 $-1 $234 $495 $9 $-1 $565 forward single #
convexity-sys-attrib $-1 -1 $-1 $496 $419 #
point $-1 -1 $-1 6.3499999999999996 -3.1749999999999998 -6.3499999999999996 #
attrib_edge_convexity-kcp-attrib $-1 -1 $566 $-1 $499 2 #
ellipse-curve $-1 -1 $-1 6.3499999999999996 0 -6.3499999999999996 1 0 0 0 3.1749999999999998 0 1 I I #
coedge $-1 -1 $-1 $511 $518 $510 $545 reversed $519 $-1 #
edge $-1 -1 $-1 $513 -11.103610000000005 $528 11.103610000000005 $544 $567 forward @7 unknown #
straight-curve $-1 -1 $-1 11.116310000000002 -11.103610000000005 0 0 0 -1 I I #
point $-1 -1 $-1 11.116310000000002 -11.103610000000005 73.025000000000006 #
straight-curve $-1 -1 $-1 11.116310000000002 11.103610000000005 0 0 0 -1 I I #
straight-curve $-1 -1 $-1 -11.116310000000002 -11.103610000000005 0 0 0 -1 I I #
point $-1 -1 $-1 11.116310000000002 11.103610000000005 73.025000000000006 #
plane-surface $-1 -1 $-1 11.116310000000002 0 0 -1 0 0 0 0 1 forward_v I I I I #
model_id-kcp-attrib $-1 -1 $-1 $-1 $531 1 1021404450 1021404450 1690894337 12 #
face $568 -1 $-1 $569 $570 $9 $-1 $571 forward single #
loop $-1 -1 $-1 $572 $573 $531 #
plane-surface $-1 -1 $-1 0 0 -93.955488269093138 0 0 1 -25.399999999999999 0 0 forward_v I I I I #
coedge $-1 -1 $-1 $574 $575 $576 $577 forward $532 $-1 #
coedge $-1 -1 $-1 $578 $534 $574 $579 forward $487 $-1 #
coedge $-1 -1 $-1 $534 $578 $575 $580 reversed $487 $-1 #
coedge $-1 -1 $-1 $575 $574 $535 $560 reversed $532 $-1 #
edge $-1 -1 $-1 $561 1.9563789577060247e-032 $562 3.1415926535897931 $535 $581 forward @7 unknown #
vertex $-1 -1 $-1 $560 $582 #
vertex $-1 -1 $-1 $560 $583 #
ellipse-curve $-1 -1 $-1 -7.0499162063697436e-016 -3.5249581031848718e-016 -19.049999999999997 1.7763568394002505e-015 3.1614140037116477e-031 -1 6.3499999999999996 1.1301208449956967e-015 1.127986593019159e-014 1 I I #
model_id-kcp-attrib $-1 -1 $-1 $-1 $539 1 1021404450 1021404450 1690894337 18 #
plane-surface $-1 -1 $-1 6.3499999999999996 0 -6.3499999999999996 1 0 0 0 25.399999999999999 0 forward_v I I I I #
convexity-sys-attrib $-1 -1 $-1 $542 $499 #
straight-curve $-1 -1 $-1 11.116310000000002 0 73.025000000000006 0 1 0 I I #
model_id-kcp-attrib $-1 -1 $-1 $-1 $553 1 1021404450 1021404450 1690894337 13 #
face $584 -1 $-1 $585 $586 $9 $-1 $587 forward single #
loop $-1 -1 $-1 $-1 $588 $553 #
cone-surface $-1 -1 $-1 0 0 -131.52718979421857 0 0 -1 -4.4787053099950089 0 0 1 I I -0.17364817766693028 0.98480775301220802 4.4787053099950089 forward I I I I #
loop $-1 -1 $-1 $-1 $576 $531 #
coedge $-1 -1 $-1 $589 $589 $588 $590 reversed $554 $-1 #
coedge $-1 -1 $-1 $559 $556 $557 $579 reversed $532 $-1 #
coedge $-1 -1 $-1 $556 $559 $558 $580 forward $532 $-1 #
coedge $-1 -1 $-1 $591 $591 $556 $577 reversed $572 $-1 #
edge $-1 -1 $-1 $592 1.2246063538223773e-016 $593 3.1415926535897931 $556 $594 forward @7 unknown #
coedge $-1 -1 $-1 $558 $557 $591 $595 reversed $487 $-1 #
edge $-1 -1 $-1 $562 0 $593 2.9490349712241399 $574 $596 forward @7 unknown #
edge $-1 -1 $-1 $561 0 $592 2.949034971224139 $575 $597 forward @7 unknown #
ellipse-curve $-1 -1 $-1 0 1.7624790515924359e-016 -19.049999999999997 -1.7763568394002505e-015 -1.6822998064222505e-031 1 6.3499999999999996 6.013771295179659e-016 1.127986593019159e-014 1 I I #
point $-1 -1 $-1 6.3499999999999996 7.7762503467720954e-016 -19.049999999999986 #
point $-1 -1 $-1 -6.3499999999999996 0 -19.049999999999986 #
model_id-kcp-attrib $-1 -1 $-1 $-1 $569 1 1021404450 1021404450 1690894337 14 #
face $598 -1 $-1 $599 $600 $9 $-1 $601 forward single #
loop $-1 -1 $-1 $-1 $602 $569 #
cone-surface $-1 -1 $-1 0 0 -131.52718979421857 0 0 -1 -4.4787053099950089 0 0 1 I I -0.17364817766693028 0.98480775301220802 4.4787053099950089 forward I I I I #
coedge $-1 -1 $-1 $603 $604 $573 $590 forward $570 $-1 #
coedge $-1 -1 $-1 $573 $573 $605 $606 forward $554 $-1 #
edge $-1 -1 $-1 $607 0 $608 3.1415926535897931 $573 $609 forward @7 unknown #
coedge $-1 -1 $-1 $576 $576 $578 $595 forward $572 $-1 #
vertex $-1 -1 $-1 $580 $610 #
vertex $-1 -1 $-1 $579 $611 #
ellipse-curve $-1 -1 $-1 0 0 -93.955488269093138 0 0 1 6.3499999999999996 0 0 1 I I #
edge $-1 -1 $-1 $592 -1.2246063538223773e-016 $593 3.1415926535897931 $591 $612 forward @7 unknown #
straight-curve $-1 -1 $-1 -6.3499999999999996 -1.5552500693544191e-015 -19.049999999999986 0 0 -25.399999999999999 I I #
straight-curve $-1 -1 $-1 6.3499999999999996 7.7762503467720954e-016 -19.049999999999986 0 0 -25.399999999999999 I I #
model_id-kcp-attrib $-1 -1 $-1 $-1 $585 1 1021404450 1021404450 1690894337 15 #
face $613 -1 $-1 $614 $615 $9 $-1 $616 forward single #
loop $-1 -1 $-1 $-1 $617 $585 #
torus-surface $-1 -1 $-1 0 0 -105.40999999999998 0 0 1 6.5046869368097084 2.5399999999999996 -1 0 0 forward_v I I I I #
coedge $-1 -1 $-1 $618 $619 $620 $621 forward $586 $-1 #
coedge $-1 -1 $-1 $622 $588 $618 $623 forward $570 $-1 #
coedge $-1 -1 $-1 $588 $622 $619 $624 reversed $570 $-1 #
coedge $-1 -1 $-1 $619 $618 $589 $606 reversed $586 $-1 #
edge $-1 -1 $-1 $607 -2.5593638194894704e-032 $608 3.1415926535897931 $589 $625 forward @7 unknown #
vertex $-1 -1 $-1 $606 $626 #
vertex $-1 -1 $-1 $606 $627 #
ellipse-curve $-1 -1 $-1 0 -3.5249581031848718e-016 -93.955488269093138 2.0317475001718514e-015 3.1330905706442066e-031 -1 11.103610000000005 1.7122509459550565e-015 2.255973186038318e-014 1 I I #
point $-1 -1 $-1 6.3499999999999996 7.7762503467720954e-016 -93.955488269093109 #
point $-1 -1 $-1 -6.3499999999999996 0 -93.955488269093138 #
ellipse-curve $-1 -1 $-1 0 0 -93.955488269093138 0 0 -1 6.3499999999999996 0 0 1 I I #
model_id-kcp-attrib $-1 -1 $-1 $-1 $599 1 1021404450 1021404450 1690894337 16 #
face $628 -1 $-1 $539 $629 $9 $-1 $630 reversed single #
loop $-1 -1 $-1 $-1 $631 $599 #
torus-surface $-1 -1 $-1 0 0 -105.40999999999998 0 0 1 6.5046869368097084 2.5399999999999996 -1 0 0 forward_v I I I I #
coedge $-1 -1 $-1 $620 $632 $633 $634 forward $600 $-1 #
coedge $-1 -1 $-1 $605 $602 $603 $623 reversed $586 $-1 #
coedge $-1 -1 $-1 $602 $605 $604 $624 forward $586 $-1 #
coedge $-1 -1 $-1 $635 $617 $602 $621 reversed $600 $-1 #
edge $-1 -1 $-1 $636 0 $637 3.1415926535897931 $602 $638 forward @7 unknown #
coedge $-1 -1 $-1 $604 $603 $639 $640 reversed $570 $-1 #
edge $-1 -1 $-1 $608 4.5535878636835564e-033 $637 0.47555458931967687 $618 $641 forward @7 unknown #
edge $-1 -1 $-1 $607 0 $636 0.47555458931967687 $619 $642 forward @7 unknown #
ellipse-curve $-1 -1 $-1 0 3.5249581031848718e-016 -93.955488269093138 -2.0317475001718514e-015 -1.8430912255021547e-031 1 11.103610000000005 1.0072593253180822e-015 2.255973186038318e-014 1 I I #
point $-1 -1 $-1 11.103610000000005 1.3597551356365693e-015 -93.955488269093109 #
point $-1 -1 $-1 -11.103610000000005 0 -93.955488269093109 #
model_id-kcp-attrib $-1 -1 $-1 $-1 $614 1 1021404450 1021404450 1690894337 17 #
loop $-1 -1 $-1 $-1 $643 $614 #
plane-surface $-1 -1 $-1 0 0 -107.94999999999999 0 0 1 -25.399999999999999 0 0 forward_v I I I I #
coedge $-1 -1 $-1 $639 $644 $635 $645 forward $615 $-1 #
coedge $-1 -1 $-1 $617 $635 $643 $646 forward $600 $-1 #
coedge $-1 -1 $-1 $644 $639 $617 $634 reversed $615 $-1 #
edge $-1 -1 $-1 $647 8.304817900738846e-017 $637 1.3962634015954509 $633 $648 forward @7 unknown #
coedge $-1 -1 $-1 $632 $620 $631 $645 reversed $600 $-1 #
vertex $-1 -1 $-1 $624 $649 #
vertex $-1 -1 $-1 $623 $650 #
ellipse-curve $-1 -1 $-1 0 0 -105.85106637127396 0 0 1 9.0060986294607197 1.1028925604788601e-015 0 1 I I #
coedge $-1 -1 $-1 $633 $631 $622 $640 forward $615 $-1 #
edge $-1 -1 $-1 $636 0 $637 3.1415926535897931 $622 $651 forward @7 unknown #
straight-curve $-1 -1 $-1 -11.103610000000005 -2.7195102712731385e-015 -93.955488269093109 4.4106637127400283 1.0802653614390485e-015 -25.014116926510081 I I #
straight-curve $-1 -1 $-1 11.103610000000005 1.3597551356365693e-015 -93.955488269093109 -4.4106637127400283 -5.4013268071952425e-016 -25.014116926510081 I I #
coedge $-1 -1 $-1 $652 $652 $632 $646 reversed $629 $-1 #
coedge $-1 -1 $-1 $631 $633 $652 $653 reversed $615 $-1 #
edge $-1 -1 $-1 $654 8.304817900738846e-017 $636 1.3962634015954509 $631 $655 forward @7 unknown #
edge $656 -1 $-1 $654 0 $647 3.1415926535897931 $643 $657 forward @7 unknown #
vertex $-1 -1 $-1 $653 $658 #
ellipse-curve $-1 -1 $-1 -6.504686936809704 0 -105.40999999999995 0 1 0 -4.2299497238218458e-015 0 -2.5400000000000134 1 I I #
point $-1 -1 $-1 9.0060986294607197 1.1028925604788601e-015 -105.85106637127399 #
point $-1 -1 $-1 -9.0060986294607197 -2.2057851209577201e-015 -105.85106637127399 #
ellipse-curve $-1 -1 $-1 0 0 -105.85106637127396 0 0 -1 9.0060986294607197 1.1028925604788601e-015 0 1 I I #
coedge $-1 -1 $-1 $643 $643 $644 $653 forward $629 $-1 #
edge $659 -1 $-1 $654 0 $647 3.1415926535897931 $652 $660 forward @7 unknown #
vertex $-1 -1 $-1 $653 $661 #
ellipse-curve $-1 -1 $-1 6.504686936809704 7.9656809524425785e-016 -105.40999999999995 1.2246063538223773e-016 -1 -4.2581107364186329e-032 4.2299497238218458e-015 6.2615834351917809e-031 -2.5400000000000134 1 I I #
attrib_edge_convexity-kcp-attrib $-1 -1 $662 $-1 $646 3 #
ellipse-curve $-1 -1 $-1 0 -7.0499162063697436e-016 -107.94999999999999 -3.4682271536726465e-015 -8.0061503805969049e-031 1 6.5046869368097084 1.5015597158812329e-015 2.255973186038318e-014 1 I I #
point $-1 -1 $-1 -6.5046869368097084 -1.5931361904885171e-015 -107.94999999999997 #
attrib_edge_convexity-kcp-attrib $-1 -1 $663 $-1 $653 3 #
ellipse-curve $-1 -1 $-1 0 -3.5249581031848718e-016 -107.94999999999999 3.4682271536726465e-015 6.1266816947418628e-031 -1 6.5046869368097084 1.1490639055627456e-015 2.255973186038318e-014 1 I I #
point $-1 -1 $-1 6.5046869368097084 7.9656809524425854e-016 -107.94999999999997 #
convexity-sys-attrib $-1 -1 $-1 $656 $646 #
convexity-sys-attrib $-1 -1 $-1 $659 $653 #
End-of-ACIS-data 