700 0 2 0           
24 FBMach with ACIS - 7.0.3 13 ACIS 7.0.3 NT 24 Tue May 14 15:27:07 2002 
1 9.9999999999999995e-007 1e-010 
body $2 -1 $-1 $3 $-1 $4 #
bdycol-kcp $-1 -1 1 3 $5 $6 $7 #
model_id-kcp-attrib $-1 -1 $-1 $-1 $0 1 1021404426 1021404426 1722548225 1 #
lump $-1 -1 $-1 $-1 $8 $0 #
transform $-1 -1 1 0 0 0 1 0 0 0 1 0 0 0 1 rotate no_reflect no_shear #
body $9 -1 $-1 $10 $-1 $11 #
body $12 -1 $-1 $13 $-1 $14 #
body $15 -1 $-1 $16 $-1 $17 #
shell $-1 -1 $-1 $-1 $-1 $18 $-1 $3 #
rgb_color-st-attrib $-1 -1 $19 $-1 $5 0.5 1 1 #
lump $-1 -1 $-1 $-1 $20 $5 #
transform $-1 -1 1 0 0 0 1 0 0 0 1 0 4.7624999999999993 0 1 no_rotate no_reflect no_shear #
model_id-kcp-attrib $-1 -1 $-1 $-1 $6 1 1021404426 1021404426 1722548226 1 #
lump $-1 -1 $-1 $-1 $21 $6 #
transform $-1 -1 1 0 0 0 1 0 0 0 1 0 4.7624999999999993 0 1 no_rotate no_reflect no_shear #
rgb_color-st-attrib $-1 -1 $22 $-1 $7 1 0.5 1 #
lump $-1 -1 $-1 $-1 $23 $7 #
transform $-1 -1 1 0 0 0 1 0 0 0 1 0 4.7624999999999993 0 1 no_rotate no_reflect no_shear #
face $24 -1 $-1 $25 $26 $8 $-1 $27 reversed single #
model_id-kcp-attrib $-1 -1 $-1 $9 $5 1 1021404426 1021404426 1712979971 1 #
shell $-1 -1 $-1 $-1 $-1 $28 $-1 $10 #
shell $-1 -1 $-1 $-1 $-1 $29 $-1 $13 #
model_id-kcp-attrib $-1 -1 $-1 $15 $7 1 1021404426 1021404427 1713111044 1 #
shell $-1 -1 $-1 $-1 $-1 $30 $-1 $16 #
model_id-kcp-attrib $-1 -1 $-1 $-1 $18 1 1021404426 1021404426 1722548225 2 #
face $31 -1 $-1 $32 $33 $8 $-1 $34 forward single #
loop $-1 -1 $-1 $-1 $35 $18 #
plane-surface $-1 -1 $-1 0 0 0 0 1 0 25.399999999999999 0 0 forward_v I I I I #
face $-1 -1 $-1 $36 $37 $20 $-1 $38 reversed single #
face $-1 -1 $-1 $39 $40 $21 $-1 $41 forward single #
face $-1 -1 $-1 $42 $43 $23 $-1 $44 forward single #
model_id-kcp-attrib $-1 -1 $-1 $-1 $25 1 1021404426 1021404426 1722548225 3 #
face $45 -1 $-1 $46 $47 $8 $-1 $48 forward single #
loop $-1 -1 $-1 $-1 $49 $25 #
cone-surface $-1 -1 $-1 0 0 0 0 1 0 3.1749999999999998 0 0 1 I I 0 1 3.1749999999999998 forward I I I I #
coedge $-1 -1 $-1 $50 $50 $51 $52 reversed $26 $-1 #
face $-1 -1 $-1 $53 $54 $20 $-1 $38 reversed single #
loop $-1 -1 $-1 $-1 $55 $28 #
cone-surface $-1 -1 $-1 -1.1903556979463215e-032 -4.7624999999999993 0 0 -1 0 3.1749999999999998 0 0 1 I I 0 1 3.1749999999999998 forward I I I I #
face $-1 -1 $-1 $56 $57 $21 $-1 $58 reversed single #
loop $-1 -1 $-1 $-1 $59 $29 #
plane-surface $-1 -1 $-1 0 0 3.1749999999999998 0 0 1 1 0 0 forward_v I I I I #
face $-1 -1 $-1 $60 $61 $23 $-1 $62 forward single #
loop $-1 -1 $-1 $-1 $63 $30 #
plane-surface $-1 -1 $-1 1.2699999999999996 1.5875000000000004 1.2699999999999998 -1 0 0 0 0 1 forward_v I I I I #
model_id-kcp-attrib $-1 -1 $-1 $-1 $32 1 1021404426 1021404426 1722548225 4 #
face $64 -1 $-1 $65 $66 $8 $-1 $67 forward single #
loop $-1 -1 $-1 $-1 $68 $32 #
cone-surface $-1 -1 $-1 0 0 0 0 1 0 3.1749999999999998 0 0 1 I I 0 1 3.1749999999999998 forward I I I I #
coedge $-1 -1 $-1 $69 $51 $70 $71 forward $33 $-1 #
coedge $-1 -1 $-1 $35 $35 $72 $73 reversed $26 $-1 #
coedge $-1 -1 $-1 $49 $74 $35 $52 forward $33 $-1 #
edge $75 -1 $-1 $76 0 $77 3.1415926535897931 $35 $78 forward @7 unknown #
face $-1 -1 $-1 $79 $80 $20 $-1 $38 reversed single #
loop $-1 -1 $-1 $-1 $81 $36 #
coedge $-1 -1 $-1 $82 $83 $84 $85 reversed $37 $-1 #
face $86 -1 $-1 $87 $88 $21 $-1 $89 reversed single #
loop $-1 -1 $-1 $-1 $90 $39 #
plane-surface $-1 -1 $-1 0 0 -3.1749999999999998 0 0 1 1 0 0 forward_v I I I I #
coedge $-1 -1 $-1 $91 $92 $93 $94 forward $40 $-1 #
face $-1 -1 $-1 $95 $96 $23 $-1 $97 forward single #
loop $-1 -1 $-1 $-1 $98 $42 #
cone-surface $-1 -1 $-1 0 1.5875000000000004 -1.2699999999999998 0 1 0 1.2699999999999998 0 0 1 I I 0 -1 1.2699999999999998 forward I I I I #
coedge $-1 -1 $-1 $99 $100 $101 $102 forward $43 $-1 #
model_id-kcp-attrib $-1 -1 $-1 $-1 $46 1 1021404426 1021404426 1722548225 5 #
face $103 -1 $-1 $104 $105 $8 $-1 $106 forward single #
loop $-1 -1 $-1 $-1 $107 $46 #
torus-surface $-1 -1 $-1 0 6.0959999999999992 0 0 1 0 2.9209999999999998 0.254 1 0 0 forward_v I I I I #
coedge $-1 -1 $-1 $108 $72 $74 $109 forward $47 $-1 #
coedge $-1 -1 $-1 $74 $49 $110 $111 reversed $33 $-1 #
coedge $-1 -1 $-1 $72 $108 $49 $71 reversed $47 $-1 #
edge $-1 -1 $-1 $77 0 $112 0.23999999999999999 $70 $113 forward @7 unknown #
coedge $-1 -1 $-1 $68 $70 $50 $73 forward $47 $-1 #
edge $114 -1 $-1 $77 0 $76 3.1415926535897931 $50 $115 forward @7 unknown #
coedge $-1 -1 $-1 $51 $69 $68 $109 reversed $33 $-1 #
attrib_edge_convexity-kcp-attrib $-1 -1 $116 $-1 $52 1 #
vertex $-1 -1 $-1 $73 $117 #
vertex $-1 -1 $-1 $73 $118 #
ellipse-curve $-1 -1 $-1 0 0 0 0 1 0 -3.1749999999999998 0 0 1 I I #
face $-1 -1 $-1 $119 $120 $20 $-1 $38 reversed single #
loop $-1 -1 $-1 $-1 $121 $53 #
coedge $-1 -1 $-1 $122 $123 $124 $125 reversed $54 $-1 #
coedge $-1 -1 $-1 $126 $55 $127 $128 forward $37 $-1 #
coedge $-1 -1 $-1 $55 $126 $129 $130 reversed $37 $-1 #
coedge $-1 -1 $-1 $131 $132 $55 $85 forward $133 $-1 #
edge $-1 -1 $-1 $134 0 $135 1.5707963267948966 $84 $136 forward @7 unknown #
model_id-kcp-attrib $-1 -1 $-1 $-1 $56 1 1021404426 1021404426 1722548226 2 #
face $-1 -1 $-1 $137 $138 $21 $-1 $139 reversed single #
loop $-1 -1 $-1 $-1 $140 $56 #
plane-surface $-1 -1 $-1 0 -4.7624999999999993 0 0 1 0 0 0 1 forward_v I I I I #
coedge $-1 -1 $-1 $141 $142 $143 $144 forward $57 $-1 #
coedge $-1 -1 $-1 $145 $59 $146 $147 forward $40 $-1 #
coedge $-1 -1 $-1 $59 $145 $148 $149 forward $40 $-1 #
coedge $-1 -1 $-1 $150 $151 $59 $94 reversed $152 $-1 #
edge $-1 -1 $-1 $153 -4.7624999999999993 $154 4.7624999999999993 $93 $155 forward @7 unknown #
face $-1 -1 $-1 $156 $157 $23 $-1 $158 forward single #
loop $-1 -1 $-1 $-1 $159 $60 #
plane-surface $-1 -1 $-1 -1.2699999999999998 1.5875000000000021 -1.27 1 0 0 0 0 -1 forward_v I I I I #
coedge $-1 -1 $-1 $160 $161 $162 $163 forward $61 $-1 #
coedge $-1 -1 $-1 $164 $63 $161 $165 reversed $43 $-1 #
coedge $-1 -1 $-1 $63 $164 $166 $167 forward $43 $-1 #
coedge $-1 -1 $-1 $168 $162 $63 $102 reversed $169 $-1 #
edge $-1 -1 $-1 $170 0 $171 2.5399999999999996 $63 $172 forward @7 unknown #
model_id-kcp-attrib $-1 -1 $-1 $-1 $65 1 1021404426 1021404426 1722548225 6 #
face $173 -1 $-1 $174 $175 $8 $-1 $176 forward single #
loop $-1 -1 $-1 $-1 $177 $65 #
torus-surface $-1 -1 $-1 0 6.0959999999999992 0 0 1 0 2.9209999999999998 0.254 1 0 0 forward_v I I I I #
coedge $-1 -1 $-1 $178 $179 $180 $181 forward $66 $-1 #
coedge $-1 -1 $-1 $70 $68 $178 $182 reversed $47 $-1 #
edge $-1 -1 $-1 $76 0 $183 0.23999999999999999 $68 $184 forward @7 unknown #
coedge $-1 -1 $-1 $180 $177 $69 $111 forward $105 $-1 #
edge $-1 -1 $-1 $183 0 $112 3.1415926535897931 $69 $185 forward @7 unknown #
vertex $-1 -1 $-1 $71 $186 #
straight-curve $-1 -1 $-1 3.1749999999999998 0 0 0 25.399999999999999 0 I I #
attrib_edge_convexity-kcp-attrib $-1 -1 $187 $-1 $73 1 #
ellipse-curve $-1 -1 $-1 0 0 0 0 1 0 3.1749999999999998 0 0 1 I I #
convexity-sys-attrib $-1 -1 $-1 $75 $52 #
point $-1 -1 $-1 -3.1749999999999998 0 0 #
point $-1 -1 $-1 3.1749999999999998 0 0 #
face $-1 -1 $-1 $188 $189 $20 $-1 $190 forward single #
loop $-1 -1 $-1 $-1 $191 $79 #
coedge $-1 -1 $-1 $192 $193 $191 $194 forward $80 $-1 #
coedge $-1 -1 $-1 $195 $81 $196 $197 reversed $54 $-1 #
coedge $-1 -1 $-1 $81 $195 $83 $130 forward $54 $-1 #
coedge $-1 -1 $-1 $198 $199 $81 $125 forward $200 $-1 #
edge $-1 -1 $-1 $201 -3.1415926535897931 $202 -1.5707963267948966 $124 $203 forward @7 unknown #
coedge $-1 -1 $-1 $83 $82 $204 $205 reversed $37 $-1 #
coedge $-1 -1 $-1 $193 $192 $206 $128 reversed $80 $-1 #
edge $-1 -1 $-1 $134 -9.5249999999999986 $207 0 $206 $208 forward @7 unknown #
coedge $-1 -1 $-1 $209 $210 $211 $130 forward $212 $-1 #
edge $-1 -1 $-1 $135 -9.5249999999999986 $202 0 $129 $213 forward @7 unknown #
coedge $-1 -1 $-1 $132 $84 $210 $214 reversed $133 $-1 #
coedge $-1 -1 $-1 $84 $131 $215 $216 forward $133 $-1 #
loop $-1 -1 $-1 $-1 $84 $217 #
vertex $-1 -1 $-1 $218 $219 #
vertex $-1 -1 $-1 $220 $221 #
ellipse-curve $-1 -1 $-1 -1.1903556979463215e-032 4.7624999999999993 0 0 -1 0 3.1749999999999998 0 0 1 I I #
face $222 -1 $-1 $223 $224 $21 $-1 $225 reversed single #
loop $-1 -1 $-1 $-1 $226 $87 #
plane-surface $-1 -1 $-1 -3.1749999999999998 0 0 1 0 0 0 0 -1 forward_v I I I I #
coedge $-1 -1 $-1 $227 $148 $228 $229 forward $88 $-1 #
coedge $-1 -1 $-1 $230 $90 $227 $231 forward $57 $-1 #
coedge $-1 -1 $-1 $90 $230 $232 $233 forward $57 $-1 #
coedge $-1 -1 $-1 $151 $150 $90 $144 reversed $152 $-1 #
edge $-1 -1 $-1 $234 -4.7624999999999993 $235 4.7624999999999993 $143 $236 forward @7 unknown #
coedge $-1 -1 $-1 $92 $91 $237 $238 forward $40 $-1 #
coedge $-1 -1 $-1 $239 $240 $91 $147 reversed $224 $-1 #
edge $-1 -1 $-1 $154 -3.1749999999999998 $241 3.1749999999999998 $146 $242 forward @7 unknown #
coedge $-1 -1 $-1 $140 $243 $92 $149 reversed $88 $-1 #
edge $-1 -1 $-1 $244 -3.1749999999999998 $153 3.1749999999999998 $148 $245 forward @7 unknown #
coedge $-1 -1 $-1 $143 $93 $243 $246 forward $152 $-1 #
coedge $-1 -1 $-1 $93 $143 $239 $247 reversed $152 $-1 #
loop $-1 -1 $-1 $-1 $150 $223 #
vertex $-1 -1 $-1 $94 $248 #
vertex $-1 -1 $-1 $94 $249 #
straight-curve $-1 -1 $-1 3.1749999999999998 0 3.1749999999999998 0 1 0 I I #
face $-1 -1 $-1 $250 $251 $23 $-1 $252 forward single #
loop $-1 -1 $-1 $-1 $253 $95 #
cone-surface $-1 -1 $-1 0 1.5875000000000008 1.2699999999999998 0 1 0 1.2699999999999998 0 0 1 I I 0 -1 1.2699999999999998 forward I I I I #
coedge $-1 -1 $-1 $254 $255 $256 $257 forward $96 $-1 #
coedge $-1 -1 $-1 $258 $98 $255 $259 reversed $61 $-1 #
coedge $-1 -1 $-1 $98 $258 $99 $165 forward $61 $-1 #
coedge $-1 -1 $-1 $101 $256 $98 $163 reversed $169 $-1 #
edge $-1 -1 $-1 $171 0 $260 3.1415926535897931 $98 $261 forward @7 unknown #
coedge $-1 -1 $-1 $100 $99 $262 $263 reversed $43 $-1 #
edge $264 -1 $-1 $265 0 $171 2.9209999999999976 $161 $266 forward @7 unknown #
coedge $-1 -1 $-1 $267 $253 $100 $167 reversed $157 $-1 #
edge $268 -1 $-1 $269 0 $170 2.9209999999999976 $100 $270 forward @7 unknown #
coedge $-1 -1 $-1 $256 $101 $253 $271 reversed $169 $-1 #
loop $-1 -1 $-1 $-1 $101 $250 #
vertex $-1 -1 $-1 $167 $272 #
vertex $-1 -1 $-1 $165 $273 #
straight-curve $-1 -1 $-1 1.2699999999999998 4.508499999999998 1.2699999999999998 0 0 -1 I I #
model_id-kcp-attrib $-1 -1 $-1 $-1 $104 1 1021404426 1021404426 1722548225 7 #
face $274 -1 $-1 $275 $276 $8 $-1 $277 forward single #
loop $-1 -1 $-1 $278 $279 $104 #
plane-surface $-1 -1 $-1 0 6.3499999999999996 0 0 1 0 25.399999999999999 0 0 forward_v I I I I #
coedge $-1 -1 $-1 $110 $280 $281 $282 forward $105 $-1 #
coedge $-1 -1 $-1 $281 $107 $108 $182 forward $66 $-1 #
coedge $-1 -1 $-1 $107 $281 $283 $284 reversed $66 $-1 #
coedge $-1 -1 $-1 $280 $110 $107 $181 reversed $105 $-1 #
edge $-1 -1 $-1 $285 0 $112 1.5707963267949001 $180 $286 forward @7 unknown #
edge $-1 -1 $-1 $112 0 $183 3.1415926535897931 $108 $287 forward @7 unknown #
vertex $-1 -1 $-1 $182 $288 #
straight-curve $-1 -1 $-1 -3.1749999999999998 0 -3.8881251733860477e-016 0 25.399999999999999 0 I I #
ellipse-curve $-1 -1 $-1 0 6.0959999999999992 0 0 1 0 -3.1749999999999998 0 -3.8881251733860477e-016 1 I I #
point $-1 -1 $-1 3.1749999999999998 6.0959999999999992 0 #
convexity-sys-attrib $-1 -1 $-1 $114 $73 #
face $-1 -1 $-1 $289 $290 $20 $-1 $291 reversed single #
loop $-1 -1 $-1 $-1 $211 $119 #
plane-surface $-1 -1 $-1 0 0 3.1749999999999998 0 0 1 1 0 0 forward_v I I I I #
coedge $-1 -1 $-1 $292 $293 $294 $194 reversed $120 $-1 #
coedge $-1 -1 $-1 $127 $121 $295 $296 reversed $80 $-1 #
coedge $-1 -1 $-1 $121 $127 $297 $298 reversed $80 $-1 #
edge $-1 -1 $-1 $299 -9.5249999999999986 $300 0 $294 $301 forward @7 unknown #
coedge $-1 -1 $-1 $123 $122 $302 $303 reversed $54 $-1 #
coedge $-1 -1 $-1 $304 $305 $306 $197 forward $307 $-1 #
edge $-1 -1 $-1 $308 -9.5249999999999986 $201 0 $196 $309 forward @7 unknown #
coedge $-1 -1 $-1 $199 $124 $310 $311 reversed $200 $-1 #
coedge $-1 -1 $-1 $124 $198 $304 $312 forward $200 $-1 #
loop $-1 -1 $-1 $-1 $124 $313 #
vertex $-1 -1 $-1 $314 $315 #
vertex $-1 -1 $-1 $316 $317 #
ellipse-curve $-1 -1 $-1 -1.1903556979463215e-032 -4.7624999999999993 0 0 1 0 3.1749999999999998 0 0 1 I I #
coedge $-1 -1 $-1 $318 $319 $126 $205 forward $320 $-1 #
edge $-1 -1 $-1 $202 -1.5707963267948966 $207 0 $204 $203 forward @7 unknown #
coedge $-1 -1 $-1 $321 $322 $323 $128 forward $290 $-1 #
vertex $-1 -1 $-1 $324 $325 #
straight-curve $-1 -1 $-1 3.1749999999999998 -4.7624999999999993 0 0 -1 0 I I #
coedge $-1 -1 $-1 $326 $129 $319 $316 forward $212 $-1 #
coedge $-1 -1 $-1 $129 $326 $131 $214 forward $212 $-1 #
coedge $-1 -1 $-1 $327 $310 $123 $130 reversed $189 $-1 #
loop $-1 -1 $-1 $-1 $129 $328 #
straight-curve $-1 -1 $-1 -1.1903556979463215e-032 -4.7624999999999993 3.1749999999999998 0 -1 0 I I #
edge $-1 -1 $-1 $329 -3.1749999999999998 $135 1.1903556979463215e-032 $131 $330 forward @7 unknown #
coedge $-1 -1 $-1 $331 $323 $132 $216 reversed $332 $-1 #
edge $-1 -1 $-1 $329 -3.1749999999999998 $134 0 $215 $333 forward @7 unknown #
face $-1 -1 $-1 $334 $133 $20 $-1 $335 reversed single #
edge $-1 -1 $-1 $134 0 $336 3.1749999999999998 $322 $333 forward @7 unknown #
point $-1 -1 $-1 3.1749999999999998 4.7624999999999993 0 #
edge $-1 -1 $-1 $135 1.1903556979463215e-032 $337 3.1749999999999998 $338 $330 forward @7 unknown #
point $-1 -1 $-1 -1.1903556979463215e-032 4.7624999999999993 3.1749999999999998 #
model_id-kcp-attrib $-1 -1 $-1 $-1 $137 1 1021404426 1021404426 1722548226 3 #
face $-1 -1 $-1 $-1 $152 $21 $-1 $339 reversed single #
loop $-1 -1 $-1 $-1 $239 $137 #
plane-surface $-1 -1 $-1 0 4.7624999999999993 0 0 -1 0 0 0 -1 forward_v I I I I #
coedge $-1 -1 $-1 $340 $237 $240 $341 forward $138 $-1 #
coedge $-1 -1 $-1 $243 $140 $141 $231 reversed $88 $-1 #
coedge $-1 -1 $-1 $237 $340 $140 $229 reversed $138 $-1 #
edge $-1 -1 $-1 $244 -3.1749999999999998 $342 3.1749999999999998 $228 $343 forward @7 unknown #
coedge $-1 -1 $-1 $142 $141 $340 $344 forward $57 $-1 #
edge $-1 -1 $-1 $235 -3.1749999999999998 $342 3.1749999999999998 $227 $345 forward @7 unknown #
coedge $-1 -1 $-1 $240 $239 $142 $233 reversed $224 $-1 #
edge $-1 -1 $-1 $346 -3.1749999999999998 $234 3.1749999999999998 $232 $347 forward @7 unknown #
vertex $-1 -1 $-1 $144 $348 #
vertex $-1 -1 $-1 $246 $349 #
straight-curve $-1 -1 $-1 3.1749999999999998 0 -3.1749999999999998 0 -1 0 I I #
coedge $-1 -1 $-1 $226 $228 $145 $238 reversed $138 $-1 #
edge $-1 -1 $-1 $241 -4.7624999999999993 $244 4.7624999999999993 $237 $350 forward @7 unknown #
coedge $-1 -1 $-1 $232 $146 $151 $247 forward $224 $-1 #
coedge $-1 -1 $-1 $146 $232 $226 $341 reversed $224 $-1 #
vertex $-1 -1 $-1 $147 $351 #
straight-curve $-1 -1 $-1 0 4.7624999999999993 3.1749999999999998 -1 0 0 I I #
coedge $-1 -1 $-1 $148 $227 $150 $246 reversed $88 $-1 #
vertex $-1 -1 $-1 $238 $352 #
straight-curve $-1 -1 $-1 0 -4.7624999999999993 3.1749999999999998 1 0 0 I I #
edge $-1 -1 $-1 $153 -3.1749999999999998 $235 3.1749999999999998 $150 $353 forward @7 unknown #
edge $-1 -1 $-1 $154 -3.1749999999999998 $234 3.1749999999999998 $151 $354 forward @7 unknown #
point $-1 -1 $-1 3.1749999999999998 -4.7624999999999993 3.1749999999999998 #
point $-1 -1 $-1 3.1749999999999998 4.7624999999999993 3.1749999999999998 #
face $-1 -1 $-1 $355 $356 $23 $-1 $357 forward single #
loop $-1 -1 $-1 $358 $359 $156 #
cone-surface $-1 -1 $-1 -1.1903556979463215e-032 1.5875000000000004 0 0 1 0 3.1749999999999998 0 0 1 I I 0 1 3.1749999999999998 forward I I I I #
coedge $-1 -1 $-1 $166 $360 $168 $271 forward $157 $-1 #
coedge $-1 -1 $-1 $361 $159 $360 $362 reversed $96 $-1 #
coedge $-1 -1 $-1 $159 $361 $160 $259 forward $96 $-1 #
coedge $-1 -1 $-1 $162 $168 $159 $257 reversed $169 $-1 #
edge $-1 -1 $-1 $260 -2.2204460492503131e-016 $363 2.5399999999999996 $159 $364 forward @7 unknown #
coedge $-1 -1 $-1 $161 $160 $365 $366 reversed $61 $-1 #
edge $367 -1 $-1 $368 0 $260 2.9209999999999976 $255 $369 forward @7 unknown #
vertex $-1 -1 $-1 $259 $370 #
ellipse-curve $-1 -1 $-1 0 4.508499999999998 -1.2699999999999998 0 1 0 1.2699999999999998 0 0 1 I I #
coedge $-1 -1 $-1 $365 $371 $164 $263 forward $372 $-1 #
edge $373 -1 $-1 $269 0 $265 2.5399999999999996 $164 $374 forward @7 unknown #
convexity-sys-attrib $-1 -1 $-1 $-1 $165 #
vertex $-1 -1 $-1 $263 $375 #
straight-curve $-1 -1 $-1 1.2699999999999996 1.5875000000000004 -1.2699999999999998 0 1 0 I I #
coedge $-1 -1 $-1 $360 $166 $371 $376 reversed $157 $-1 #
convexity-sys-attrib $-1 -1 $-1 $-1 $167 #
vertex $-1 -1 $-1 $376 $377 #
straight-curve $-1 -1 $-1 1.2699999999999996 1.5875000000000004 1.2699999999999998 0 1 0 I I #
edge $-1 -1 $-1 $363 -3.1415926535897931 $170 0 $253 $378 forward @7 unknown #
point $-1 -1 $-1 1.2699999999999996 4.508499999999998 1.2699999999999998 #
point $-1 -1 $-1 1.2699999999999996 4.508499999999998 -1.2699999999999998 #
model_id-kcp-attrib $-1 -1 $-1 $-1 $174 1 1021404426 1021404426 1722548225 8 #
face $379 -1 $-1 $380 $381 $8 $-1 $382 forward single #
loop $-1 -1 $-1 $-1 $383 $174 #
cone-surface $-1 -1 $-1 0 2.2223977014999989 1.2699999999999998 0 1 0 1.2699999999999998 0 0 1 I I 0 1 1.2699999999999998 forward I I I I #
loop $-1 -1 $-1 $-1 $384 $104 #
coedge $-1 -1 $-1 $283 $283 $280 $385 forward $175 $-1 #
coedge $-1 -1 $-1 $177 $180 $279 $385 reversed $105 $-1 #
coedge $-1 -1 $-1 $179 $178 $177 $282 reversed $66 $-1 #
edge $-1 -1 $-1 $386 9.8054424627580345e-048 $183 1.5707963267949001 $177 $387 forward @7 unknown #
coedge $-1 -1 $-1 $279 $279 $179 $284 forward $175 $-1 #
edge $388 -1 $-1 $285 0 $386 3.1415926535897931 $283 $389 forward @7 unknown #
vertex $-1 -1 $-1 $284 $390 #
ellipse-curve $-1 -1 $-1 2.9209999999999998 6.0960000000000001 0 0 0 -1 0 0.2539999999999995 0 1 I I #
ellipse-curve $-1 -1 $-1 0 6.0959999999999992 0 0 1 0 3.1749999999999998 0 0 1 I I #
point $-1 -1 $-1 -3.1749999999999998 6.0959999999999992 -3.8881251733860477e-016 #
face $-1 -1 $-1 $391 $392 $20 $-1 $393 reversed single #
loop $-1 -1 $-1 $-1 $206 $188 #
plane-surface $-1 -1 $-1 3.1749999999999998 0 0 -1 0 0 0 0 1 forward_v I I I I #
coedge $-1 -1 $-1 $394 $191 $395 $396 reversed $120 $-1 #
coedge $-1 -1 $-1 $191 $394 $397 $398 reversed $120 $-1 #
coedge $-1 -1 $-1 $399 $400 $401 $194 forward $402 $-1 #
coedge $-1 -1 $-1 $403 $404 $192 $296 forward $405 $-1 #
edge $-1 -1 $-1 $207 0 $300 1.5707963267948966 $295 $203 forward @7 unknown #
coedge $-1 -1 $-1 $406 $407 $193 $298 forward $408 $-1 #
edge $-1 -1 $-1 $299 -1.5707963267948966 $134 0 $297 $136 forward @7 unknown #
vertex $-1 -1 $-1 $409 $410 #
vertex $-1 -1 $-1 $411 $412 #
straight-curve $-1 -1 $-1 -1.1903556979463215e-032 -4.7624999999999993 -3.1749999999999998 0 -1 0 I I #
coedge $-1 -1 $-1 $413 $338 $195 $303 forward $414 $-1 #
edge $-1 -1 $-1 $135 1.5707963267948966 $308 3.1415926535897931 $302 $136 forward @7 unknown #
coedge $-1 -1 $-1 $415 $196 $199 $312 reversed $307 $-1 #
coedge $-1 -1 $-1 $196 $415 $413 $416 forward $307 $-1 #
coedge $-1 -1 $-1 $417 $418 $394 $197 reversed $392 $-1 #
loop $-1 -1 $-1 $-1 $196 $419 #
vertex $-1 -1 $-1 $420 $421 #
straight-curve $-1 -1 $-1 -3.1749999999999998 -4.7624999999999993 0 0 -1 0 I I #
coedge $-1 -1 $-1 $211 $422 $198 $311 forward $189 $-1 #
edge $-1 -1 $-1 $423 -3.1749999999999998 $202 -1.1903556979463215e-032 $198 $424 forward @7 unknown #
edge $-1 -1 $-1 $423 -3.1749999999999998 $201 0 $304 $425 forward @7 unknown #
face $-1 -1 $-1 $426 $200 $20 $-1 $427 reversed single #
edge $-1 -1 $-1 $201 0 $428 3.1749999999999998 $418 $425 forward @7 unknown #
point $-1 -1 $-1 -3.1749999999999998 -4.7624999999999993 0 #
edge $-1 -1 $-1 $202 -1.1903556979463215e-032 $429 3.1749999999999998 $319 $424 forward @7 unknown #
point $-1 -1 $-1 -1.1903556979463215e-032 -4.7624999999999993 3.1749999999999998 #
coedge $-1 -1 $-1 $319 $204 $430 $431 reversed $320 $-1 #
coedge $-1 -1 $-1 $204 $318 $209 $316 reversed $320 $-1 #
loop $-1 -1 $-1 $-1 $204 $426 #
coedge $-1 -1 $-1 $432 $206 $404 $324 forward $290 $-1 #
coedge $-1 -1 $-1 $206 $432 $406 $218 reversed $290 $-1 #
coedge $-1 -1 $-1 $215 $430 $82 $128 reversed $332 $-1 #
edge $-1 -1 $-1 $207 0 $433 3.1749999999999998 $321 $434 forward @7 unknown #
point $-1 -1 $-1 3.1749999999999998 -4.7624999999999993 0 #
coedge $-1 -1 $-1 $210 $209 $331 $435 forward $212 $-1 #
coedge $-1 -1 $-1 $422 $211 $338 $220 forward $189 $-1 #
face $-1 -1 $-1 $436 $212 $20 $-1 $190 forward single #
vertex $-1 -1 $-1 $435 $437 #
straight-curve $-1 -1 $-1 0 4.7624999999999993 3.1749999999999998 -1 0 0 I I #
coedge $-1 -1 $-1 $430 $215 $326 $435 reversed $332 $-1 #
loop $-1 -1 $-1 $-1 $323 $438 #
straight-curve $-1 -1 $-1 3.1749999999999998 4.7624999999999993 0 0 0 -1 I I #
face $-1 -1 $-1 $439 $414 $20 $-1 $335 reversed single #
plane-surface $-1 -1 $-1 0 4.7624999999999993 0 0 -1 0 0 0 -1 forward_v I I I I #
vertex $-1 -1 $-1 $440 $441 #
vertex $-1 -1 $-1 $220 $442 #
coedge $-1 -1 $-1 $302 $413 $327 $220 reversed $414 $-1 #
plane-surface $-1 -1 $-1 3.1749999999999998 0 0 -1 0 0 0 0 1 forward_v I I I I #
coedge $-1 -1 $-1 $228 $226 $230 $344 reversed $138 $-1 #
edge $-1 -1 $-1 $241 -3.1749999999999998 $346 3.1749999999999998 $240 $443 forward @7 unknown #
vertex $-1 -1 $-1 $344 $444 #
straight-curve $-1 -1 $-1 -3.1749999999999998 -4.7624999999999993 0 0 0 -1 I I #
edge $-1 -1 $-1 $342 -4.7624999999999993 $346 4.7624999999999993 $340 $445 forward @7 unknown #
straight-curve $-1 -1 $-1 0 -4.7624999999999993 -3.1749999999999998 -1 0 0 I I #
vertex $-1 -1 $-1 $233 $446 #
straight-curve $-1 -1 $-1 0 4.7624999999999993 -3.1749999999999998 1 0 0 I I #
point $-1 -1 $-1 3.1749999999999998 4.7624999999999993 -3.1749999999999998 #
point $-1 -1 $-1 3.1749999999999998 -4.7624999999999993 -3.1749999999999998 #
straight-curve $-1 -1 $-1 -3.1749999999999998 0 3.1749999999999998 0 -1 0 I I #
point $-1 -1 $-1 -3.1749999999999998 4.7624999999999993 3.1749999999999998 #
point $-1 -1 $-1 -3.1749999999999998 -4.7624999999999993 3.1749999999999998 #
straight-curve $-1 -1 $-1 3.1749999999999998 -4.7624999999999993 0 0 0 -1 I I #
straight-curve $-1 -1 $-1 3.1749999999999998 4.7624999999999993 0 0 0 -1 I I #
face $-1 -1 $-1 $-1 $447 $23 $-1 $448 reversed single #
loop $-1 -1 $-1 $169 $449 $250 #
plane-surface $-1 -1 $-1 -0.17443974761980802 4.508499999999998 8.9479879949114501e-017 5.4510194194370456e-033 1 -6.4886258894581639e-017 0 6.4886258894581639e-017 1 forward_v I I I I #
loop $-1 -1 $-1 $-1 $450 $156 #
coedge $-1 -1 $-1 $359 $359 $449 $451 forward $251 $-1 #
coedge $-1 -1 $-1 $253 $267 $254 $362 forward $157 $-1 #
coedge $-1 -1 $-1 $255 $254 $452 $453 reversed $96 $-1 #
edge $454 -1 $-1 $455 0 $363 2.9209999999999976 $360 $456 forward @7 unknown #
vertex $-1 -1 $-1 $362 $457 #
straight-curve $-1 -1 $-1 -1.2699999999999998 4.508499999999998 -1.2699999999999998 0 0 1 I I #
coedge $-1 -1 $-1 $452 $262 $258 $366 forward $372 $-1 #
edge $458 -1 $-1 $265 0 $368 3.1415926535897931 $258 $459 forward @7 unknown #
convexity-sys-attrib $-1 -1 $-1 $-1 $259 #
vertex $-1 -1 $-1 $366 $460 #
straight-curve $-1 -1 $-1 -1.2699999999999998 1.5875000000000021 -1.27 0 1 0 I I #
point $-1 -1 $-1 -1.2699999999999998 4.5084999999999997 -1.27 #
coedge $-1 -1 $-1 $262 $452 $267 $376 forward $372 $-1 #
loop $-1 -1 $-1 $-1 $371 $355 #
convexity-sys-attrib $-1 -1 $-1 $-1 $263 #
straight-curve $-1 -1 $-1 1.2699999999999998 1.5875000000000004 1.2699999999999998 0 0 -1 I I #
point $-1 -1 $-1 1.2699999999999998 1.5875000000000004 -1.2699999999999998 #
edge $461 -1 $-1 $455 -3.1415926535897931 $269 0 $267 $462 forward @7 unknown #
point $-1 -1 $-1 1.2699999999999998 1.5875000000000004 1.2699999999999998 #
ellipse-curve $-1 -1 $-1 0 4.508499999999998 1.2699999999999998 0 1 0 1.2699999999999998 0 0 1 I I #
model_id-kcp-attrib $-1 -1 $-1 $-1 $275 1 1021404426 1021404426 1722548225 9 #
face $463 -1 $-1 $464 $465 $8 $-1 $466 forward single #
loop $-1 -1 $-1 $-1 $467 $275 #
torus-surface $-1 -1 $-1 0 9.270999999999999 1.2699999999999998 0 1 0 1.016 0.254 1 0 0 forward_v I I I I #
coedge $-1 -1 $-1 $468 $469 $470 $471 forward $276 $-1 #
coedge $-1 -1 $-1 $472 $473 $474 $475 reversed $278 $-1 #
edge $476 -1 $-1 $386 -1.155705906017264e-032 $285 3.1415926535897931 $279 $477 forward @7 unknown #
vertex $-1 -1 $-1 $284 $478 #
ellipse-curve $-1 -1 $-1 -2.9209999999999998 6.0960000000000001 -3.5770751595151633e-016 -1.2246063538223778e-016 3.0814879110195831e-031 1 0 0.2539999999999995 -7.8269792939897261e-032 1 I I #
attrib_edge_convexity-kcp-attrib $-1 -1 $479 $-1 $284 3 #
ellipse-curve $-1 -1 $-1 -1.7624790515924359e-016 6.3499999999999996 8.8123952579621795e-017 0 1 0 2.9210000000000003 0 -8.8123952579621795e-017 1 I I #
point $-1 -1 $-1 2.9209999999999998 6.3499999999999996 0 #
face $-1 -1 $-1 $313 $480 $20 $-1 $427 reversed single #
loop $-1 -1 $-1 $-1 $306 $289 #
plane-surface $-1 -1 $-1 -3.1749999999999998 0 0 1 0 0 0 0 -1 forward_v I I I I #
coedge $-1 -1 $-1 $293 $292 $122 $197 forward $120 $-1 #
coedge $-1 -1 $-1 $481 $482 $292 $396 forward $483 $-1 #
edge $-1 -1 $-1 $308 -3.1415926535897931 $299 -1.5707963267948966 $395 $136 forward @7 unknown #
coedge $-1 -1 $-1 $484 $485 $293 $398 forward $480 $-1 #
edge $-1 -1 $-1 $300 1.5707963267948966 $201 3.1415926535897931 $397 $203 forward @7 unknown #
coedge $-1 -1 $-1 $486 $294 $485 $411 forward $402 $-1 #
coedge $-1 -1 $-1 $294 $486 $481 $487 forward $402 $-1 #
coedge $-1 -1 $-1 $488 $489 $121 $194 reversed $490 $-1 #
loop $-1 -1 $-1 $-1 $294 $436 #
coedge $-1 -1 $-1 $404 $295 $489 $491 reversed $405 $-1 #
coedge $-1 -1 $-1 $295 $403 $321 $324 reversed $405 $-1 #
loop $-1 -1 $-1 $-1 $295 $492 #
coedge $-1 -1 $-1 $407 $297 $322 $218 forward $408 $-1 #
coedge $-1 -1 $-1 $297 $406 $488 $409 reversed $408 $-1 #
loop $-1 -1 $-1 $-1 $297 $493 #
edge $-1 -1 $-1 $299 -1.1903556979463215e-032 $336 3.1749999999999998 $407 $494 forward @7 unknown #
point $-1 -1 $-1 -1.1903556979463215e-032 4.7624999999999993 -3.1749999999999998 #
edge $-1 -1 $-1 $300 1.1903556979463215e-032 $428 3.1749999999999998 $485 $495 forward @7 unknown #
point $-1 -1 $-1 -1.1903556979463215e-032 -4.7624999999999993 -3.1749999999999998 #
coedge $-1 -1 $-1 $338 $302 $305 $416 reversed $414 $-1 #
loop $-1 -1 $-1 $-1 $302 $334 #
coedge $-1 -1 $-1 $305 $304 $422 $496 reversed $307 $-1 #
edge $-1 -1 $-1 $337 -3.1749999999999998 $308 0 $413 $497 forward @7 unknown #
coedge $-1 -1 $-1 $498 $306 $482 $420 forward $392 $-1 #
coedge $-1 -1 $-1 $306 $498 $484 $314 reversed $392 $-1 #
face $-1 -1 $-1 $438 $307 $20 $-1 $393 reversed single #
edge $-1 -1 $-1 $308 0 $499 3.1749999999999998 $482 $497 forward @7 unknown #
point $-1 -1 $-1 -3.1749999999999998 4.7624999999999993 0 #
coedge $-1 -1 $-1 $310 $327 $415 $496 forward $189 $-1 #
vertex $-1 -1 $-1 $496 $500 #
straight-curve $-1 -1 $-1 0 -4.7624999999999993 3.1749999999999998 1 0 0 I I #
straight-curve $-1 -1 $-1 -3.1749999999999998 -4.7624999999999993 0 0 0 -1 I I #
face $-1 -1 $-1 $492 $320 $20 $-1 $427 reversed single #
plane-surface $-1 -1 $-1 0 -4.7624999999999993 0 0 1 0 0 0 1 forward_v I I I I #
vertex $-1 -1 $-1 $501 $502 #
vertex $-1 -1 $-1 $435 $503 #
coedge $-1 -1 $-1 $323 $331 $318 $431 forward $332 $-1 #
edge $-1 -1 $-1 $429 -3.1749999999999998 $207 0 $430 $434 forward @7 unknown #
coedge $-1 -1 $-1 $322 $321 $504 $440 reversed $290 $-1 #
vertex $-1 -1 $-1 $324 $505 #
straight-curve $-1 -1 $-1 3.1749999999999998 -4.7624999999999993 0 0 0 -1 I I #
edge $-1 -1 $-1 $429 -4.7624999999999993 $329 4.7624999999999993 $331 $506 forward @7 unknown #
face $-1 -1 $-1 $419 $402 $20 $-1 $507 reversed single #
point $-1 -1 $-1 3.1749999999999998 4.7624999999999993 3.1749999999999998 #
face $-1 -1 $-1 $-1 $332 $20 $-1 $291 reversed single #
face $-1 -1 $-1 $508 $483 $20 $-1 $335 reversed single #
edge $-1 -1 $-1 $336 -4.7624999999999993 $433 4.7624999999999993 $432 $509 forward @7 unknown #
point $-1 -1 $-1 3.1749999999999998 4.7624999999999993 -3.1749999999999998 #
point $-1 -1 $-1 -3.1749999999999998 4.7624999999999993 3.1749999999999998 #
straight-curve $-1 -1 $-1 -3.1749999999999998 4.7624999999999993 0 0 0 -1 I I #
point $-1 -1 $-1 -3.1749999999999998 -4.7624999999999993 -3.1749999999999998 #
straight-curve $-1 -1 $-1 -3.1749999999999998 0 -3.1749999999999998 0 1 0 I I #
point $-1 -1 $-1 -3.1749999999999998 4.7624999999999993 -3.1749999999999998 #
loop $-1 -1 $-1 $372 $510 $355 #
plane-surface $-1 -1 $-1 -0.17443974761980802 1.5875000000000008 8.9479879949114501e-017 5.4510194194370456e-033 1 -6.4886258894581639e-017 0 6.4886258894581639e-017 1 forward_v I I I I #
coedge $-1 -1 $-1 $449 $449 $359 $451 reversed $356 $-1 #
coedge $-1 -1 $-1 $450 $450 $510 $511 reversed $358 $-1 #
edge $-1 -1 $-1 $512 -3.1415926535897931 $512 3.1415926535897931 $359 $513 forward @7 unknown #
coedge $-1 -1 $-1 $371 $365 $361 $453 forward $372 $-1 #
edge $514 -1 $-1 $368 -2.2204460492503131e-016 $455 2.5399999999999996 $361 $515 forward @7 unknown #
convexity-sys-attrib $-1 -1 $-1 $-1 $362 #
vertex $-1 -1 $-1 $376 $516 #
straight-curve $-1 -1 $-1 -1.2699999999999998 1.5875000000000004 1.2699999999999998 0 1 0 I I #
point $-1 -1 $-1 -1.2699999999999998 4.508499999999998 1.2699999999999998 #
convexity-sys-attrib $-1 -1 $-1 $-1 $366 #
ellipse-curve $-1 -1 $-1 0 1.5875000000000004 -1.2699999999999998 0 1 0 1.2699999999999998 0 0 1 I I #
point $-1 -1 $-1 -1.2699999999999998 1.5875000000000021 -1.27 #
convexity-sys-attrib $-1 -1 $-1 $-1 $376 #
ellipse-curve $-1 -1 $-1 0 1.5875000000000008 1.2699999999999998 0 1 0 1.2699999999999998 0 0 1 I I #
model_id-kcp-attrib $-1 -1 $-1 $-1 $380 1 1021404426 1021404426 1722548225 10 #
face $517 -1 $-1 $518 $519 $8 $-1 $520 forward single #
loop $-1 -1 $-1 $-1 $521 $380 #
cone-surface $-1 -1 $-1 -1.016 9.270999999999999 -1.2699999999999998 0 0 1 0 0.254 0 1 I I 0 1 0.254 forward I I I I #
coedge $-1 -1 $-1 $470 $522 $523 $524 forward $381 $-1 #
coedge $-1 -1 $-1 $474 $383 $525 $526 reversed $276 $-1 #
coedge $-1 -1 $-1 $383 $474 $527 $528 forward $276 $-1 #
coedge $-1 -1 $-1 $529 $467 $383 $471 reversed $381 $-1 #
edge $-1 -1 $-1 $530 0 $531 3.1415926535897931 $383 $532 forward @7 unknown #
coedge $-1 -1 $-1 $533 $384 $534 $535 reversed $278 $-1 #
coedge $-1 -1 $-1 $384 $533 $536 $537 reversed $278 $-1 #
coedge $-1 -1 $-1 $469 $468 $384 $475 forward $276 $-1 #
edge $538 -1 $-1 $539 -1.0818118054910491e-016 $540 3.141592653589794 $384 $541 forward @7 unknown #
attrib_edge_convexity-kcp-attrib $-1 -1 $542 $-1 $385 3 #
ellipse-curve $-1 -1 $-1 1.7624790515924359e-016 6.3499999999999996 -8.8123952579621795e-017 0 1 0 -2.9210000000000003 0 -2.6958356337189461e-016 1 I I #
point $-1 -1 $-1 -2.9209999999999998 6.3499999999999996 -3.5770751595151643e-016 #
convexity-sys-attrib $-1 -1 $-1 $388 $284 #
loop $-1 -1 $-1 $-1 $397 $391 #
coedge $-1 -1 $-1 $482 $395 $400 $487 reversed $483 $-1 #
coedge $-1 -1 $-1 $395 $481 $417 $420 reversed $483 $-1 #
loop $-1 -1 $-1 $-1 $395 $439 #
coedge $-1 -1 $-1 $485 $397 $418 $314 forward $480 $-1 #
coedge $-1 -1 $-1 $397 $484 $399 $411 reversed $480 $-1 #
coedge $-1 -1 $-1 $400 $399 $498 $501 forward $402 $-1 #
edge $-1 -1 $-1 $499 -3.1749999999999998 $299 -1.1903556979463215e-032 $481 $494 forward @7 unknown #
coedge $-1 -1 $-1 $504 $401 $407 $409 forward $490 $-1 #
coedge $-1 -1 $-1 $401 $504 $403 $491 forward $490 $-1 #
loop $-1 -1 $-1 $-1 $401 $508 #
edge $-1 -1 $-1 $433 -3.1749999999999998 $300 1.1903556979463215e-032 $403 $495 forward @7 unknown #
face $-1 -1 $-1 $493 $405 $20 $-1 $427 reversed single #
face $-1 -1 $-1 $217 $408 $20 $-1 $335 reversed single #
straight-curve $-1 -1 $-1 0 4.7624999999999993 -3.1749999999999998 1 0 0 I I #
straight-curve $-1 -1 $-1 0 -4.7624999999999993 -3.1749999999999998 -1 0 0 I I #
edge $-1 -1 $-1 $337 -4.7624999999999993 $423 4.7624999999999993 $415 $543 forward @7 unknown #
straight-curve $-1 -1 $-1 -3.1749999999999998 4.7624999999999993 0 0 0 -1 I I #
coedge $-1 -1 $-1 $418 $417 $486 $501 reversed $392 $-1 #
vertex $-1 -1 $-1 $487 $544 #
point $-1 -1 $-1 -3.1749999999999998 -4.7624999999999993 3.1749999999999998 #
edge $-1 -1 $-1 $428 -4.7624999999999993 $499 4.7624999999999993 $498 $545 forward @7 unknown #
point $-1 -1 $-1 -3.1749999999999998 -4.7624999999999993 -3.1749999999999998 #
point $-1 -1 $-1 3.1749999999999998 -4.7624999999999993 3.1749999999999998 #
coedge $-1 -1 $-1 $489 $488 $432 $440 forward $490 $-1 #
point $-1 -1 $-1 3.1749999999999998 -4.7624999999999993 -3.1749999999999998 #
straight-curve $-1 -1 $-1 3.1749999999999998 0 3.1749999999999998 0 1 0 I I #
plane-surface $-1 -1 $-1 0 0 -3.1749999999999998 0 0 1 1 0 0 forward_v I I I I #
face $-1 -1 $-1 $328 $490 $20 $-1 $507 reversed single #
straight-curve $-1 -1 $-1 3.1749999999999998 0 -3.1749999999999998 0 -1 0 I I #
coedge $-1 -1 $-1 $510 $510 $450 $511 forward $447 $-1 #
edge $546 -1 $-1 $547 -3.1415926535897931 $547 3.1415926535897931 $450 $548 forward @7 unknown #
vertex $-1 -1 $-1 $451 $549 #
ellipse-curve $-1 -1 $-1 -1.1903556979463215e-032 4.508499999999998 0 0 -1 0 3.1749999999999998 0 0 1 I I #
convexity-sys-attrib $-1 -1 $-1 $-1 $453 #
straight-curve $-1 -1 $-1 -1.2699999999999998 1.5875000000000004 -1.2699999999999998 0 0 1 I I #
point $-1 -1 $-1 -1.2699999999999998 1.5875000000000004 1.2699999999999998 #
model_id-kcp-attrib $-1 -1 $-1 $-1 $464 1 1021404426 1021404426 1722548225 11 #
face $550 -1 $-1 $551 $552 $8 $-1 $553 forward single #
loop $-1 -1 $-1 $-1 $554 $464 #
torus-surface $-1 -1 $-1 0 9.270999999999999 -1.2699999999999998 0 -1 0 1.016 0.254 1 0 0 forward_v I I I I #
coedge $-1 -1 $-1 $555 $556 $557 $558 forward $465 $-1 #
coedge $-1 -1 $-1 $467 $529 $559 $560 forward $381 $-1 #
coedge $-1 -1 $-1 $556 $555 $467 $524 reversed $465 $-1 #
edge $-1 -1 $-1 $561 -1.8030196758184354e-016 $531 1.5707963267949043 $467 $562 forward @7 unknown #
coedge $-1 -1 $-1 $563 $534 $468 $526 forward $564 $-1 #
edge $565 -1 $-1 $539 3.4967654318902568e-017 $531 0.11499999999999995 $525 $566 forward @7 unknown #
coedge $-1 -1 $-1 $536 $567 $469 $528 reversed $568 $-1 #
edge $569 -1 $-1 $540 3.4967654318902568e-017 $530 0.11499999999999995 $527 $570 forward @7 unknown #
coedge $-1 -1 $-1 $522 $470 $571 $572 reversed $381 $-1 #
vertex $-1 -1 $-1 $528 $573 #
vertex $-1 -1 $-1 $574 $575 #
ellipse-curve $-1 -1 $-1 0 9.270999999999999 1.2699999999999998 0 -1 0 1.27 0 0 1 I I #
coedge $-1 -1 $-1 $473 $472 $576 $577 reversed $278 $-1 #
coedge $-1 -1 $-1 $525 $578 $472 $535 forward $564 $-1 #
edge $579 -1 $-1 $580 -8.7419135797256419e-018 $539 0.099999999999999992 $472 $581 forward @7 unknown #
coedge $-1 -1 $-1 $582 $527 $473 $537 forward $568 $-1 #
edge $583 -1 $-1 $540 0 $584 0.099999999999999992 $473 $585 forward @7 unknown #
attrib_edge_convexity-kcp-attrib $-1 -1 $586 $-1 $475 2 #
vertex $-1 -1 $-1 $535 $587 #
vertex $-1 -1 $-1 $537 $588 #
ellipse-curve $-1 -1 $-1 0 6.3499999999999996 1.2700000000000005 0 1 0 -1.2699999999999998 0 -5.2874371547773072e-016 1 I I #
convexity-sys-attrib $-1 -1 $-1 $476 $385 #
straight-curve $-1 -1 $-1 -3.1749999999999998 0 3.1749999999999998 0 -1 0 I I #
point $-1 -1 $-1 -3.1749999999999998 4.7624999999999993 -3.1749999999999998 #
straight-curve $-1 -1 $-1 -3.1749999999999998 0 -3.1749999999999998 0 1 0 I I #
convexity-sys-attrib $-1 -1 $-1 $-1 $511 #
vertex $-1 -1 $-1 $511 $589 #
ellipse-curve $-1 -1 $-1 -1.1903556979463215e-032 1.5875000000000004 0 0 -1 0 3.1749999999999998 0 0 1 I I #
point $-1 -1 $-1 -3.1749999999999998 4.508499999999998 -3.8881251733860477e-016 #
model_id-kcp-attrib $-1 -1 $-1 $-1 $518 1 1021404426 1021404426 1722548225 12 #
face $590 -1 $-1 $591 $568 $8 $-1 $592 forward single #
loop $-1 -1 $-1 $-1 $571 $518 #
cone-surface $-1 -1 $-1 1.016 9.270999999999999 1.2699999999999998 0 0 -1 0 0.254 0 1 I I 0 1 0.254 forward I I I I #
coedge $-1 -1 $-1 $593 $594 $595 $596 forward $519 $-1 #
coedge $-1 -1 $-1 $523 $521 $563 $574 forward $465 $-1 #
coedge $-1 -1 $-1 $521 $523 $597 $598 reversed $465 $-1 #
coedge $-1 -1 $-1 $594 $593 $521 $558 reversed $519 $-1 #
edge $-1 -1 $-1 $599 0 $600 1.5707963267948966 $557 $601 forward @7 unknown #
coedge $-1 -1 $-1 $602 $597 $522 $560 reversed $603 $-1 #
edge $-1 -1 $-1 $604 -4.507549189546036e-017 $561 3.1415926535897931 $559 $605 forward @7 unknown #
vertex $-1 -1 $-1 $560 $606 #
ellipse-curve $-1 -1 $-1 -1.0160000000000002 9.270999999999999 1.2699999999999998 0 0 1 1.7624790515924359e-016 0.25400000000000023 0 1 I I #
coedge $-1 -1 $-1 $578 $525 $555 $574 reversed $564 $-1 #
loop $-1 -1 $-1 $-1 $534 $607 #
attrib_edge_convexity-kcp-attrib $-1 -1 $608 $-1 $526 3 #
straight-curve $-1 -1 $-1 -1.2699999999999998 6.3499999999999988 1.27 0 25.399999999999999 0 I I #
coedge $-1 -1 $-1 $527 $582 $609 $610 reversed $568 $-1 #
loop $-1 -1 $-1 $-1 $567 $551 #
attrib_edge_convexity-kcp-attrib $-1 -1 $611 $-1 $528 3 #
straight-curve $-1 -1 $-1 1.2699999999999998 6.3499999999999988 1.2699999999999998 0 25.399999999999999 0 I I #
coedge $-1 -1 $-1 $609 $612 $529 $572 forward $552 $-1 #
edge $-1 -1 $-1 $604 0 $530 1.5707963267949037 $571 $613 forward @7 unknown #
point $-1 -1 $-1 1.2699999999999998 9.2709999999999972 1.2699999999999998 #
edge $614 -1 $-1 $600 -8.7419135797256419e-018 $531 0.10000000000000001 $563 $615 forward @7 unknown #
point $-1 -1 $-1 -1.2699999999999998 9.2709999999999972 1.27 #
coedge $-1 -1 $-1 $616 $617 $533 $577 forward $618 $-1 #
edge $619 -1 $-1 $584 -1.0818118054910483e-016 $580 3.1415926535897936 $533 $620 forward @7 unknown #
coedge $-1 -1 $-1 $534 $563 $616 $621 forward $564 $-1 #
attrib_edge_convexity-kcp-attrib $-1 -1 $622 $-1 $535 2 #
vertex $-1 -1 $-1 $577 $623 #
straight-curve $-1 -1 $-1 -1.2699999999999998 6.3499999999999996 -1.2699999999999998 0 0 25.399999999999999 I I #
coedge $-1 -1 $-1 $567 $536 $617 $624 reversed $568 $-1 #
attrib_edge_convexity-kcp-attrib $-1 -1 $625 $-1 $537 2 #
vertex $-1 -1 $-1 $537 $626 #
straight-curve $-1 -1 $-1 1.2699999999999998 6.3499999999999996 1.2699999999999998 0 0 -25.399999999999999 I I #
convexity-sys-attrib $-1 -1 $-1 $538 $475 #
point $-1 -1 $-1 -1.2699999999999998 6.3499999999999996 1.2699999999999998 #
point $-1 -1 $-1 1.2699999999999998 6.3499999999999996 1.2699999999999998 #
point $-1 -1 $-1 -3.1749999999999998 1.5875000000000004 -3.8881251733860477e-016 #
model_id-kcp-attrib $-1 -1 $-1 $-1 $551 1 1021404426 1021404426 1722548225 13 #
face $627 -1 $-1 $607 $618 $8 $-1 $628 forward single #
plane-surface $-1 -1 $-1 1.2699999999999998 6.3499999999999996 2.5399999999999996 1 0 0 0 0 -25.399999999999999 forward_v I I I I #
coedge $-1 -1 $-1 $557 $554 $629 $630 reversed $519 $-1 #
coedge $-1 -1 $-1 $554 $557 $631 $632 forward $519 $-1 #
coedge $-1 -1 $-1 $612 $609 $554 $596 reversed $552 $-1 #
edge $-1 -1 $-1 $633 5.6822438268218259e-016 $634 1.570796326794891 $554 $635 forward @7 unknown #
coedge $-1 -1 $-1 $559 $631 $556 $598 forward $603 $-1 #
edge $-1 -1 $-1 $599 -8.7419135797256419e-018 $561 0.10000000000000001 $597 $636 forward @7 unknown #
vertex $-1 -1 $-1 $632 $637 #
vertex $-1 -1 $-1 $621 $638 #
ellipse-curve $-1 -1 $-1 -1.016 9.270999999999999 -1.2699999999999998 0 0 1 0 0.25400000000000023 0 1 I I #
coedge $-1 -1 $-1 $631 $559 $612 $639 forward $603 $-1 #
loop $-1 -1 $-1 $-1 $597 $640 #
vertex $-1 -1 $-1 $639 $641 #
ellipse-curve $-1 -1 $-1 2.6437185773886536e-016 9.5249999999999986 1.27 0 -1 0 1.0159999999999998 0 -1.7624790515924359e-016 1 I I #
point $-1 -1 $-1 -1.016 9.5249999999999986 1.27 #
face $642 -1 $-1 $640 $564 $8 $-1 $643 forward single #
convexity-sys-attrib $-1 -1 $-1 $565 $526 #
coedge $-1 -1 $-1 $595 $571 $567 $610 forward $552 $-1 #
edge $644 -1 $-1 $530 7.7643789883957859e-032 $634 0.099999999999999992 $567 $645 forward @7 unknown #
convexity-sys-attrib $-1 -1 $-1 $569 $528 #
coedge $-1 -1 $-1 $571 $595 $602 $639 reversed $552 $-1 #
ellipse-curve $-1 -1 $-1 1.016 9.270999999999999 1.2699999999999998 0 0 -1 0 0.25400000000000023 0 1 I I #
attrib_edge_convexity-kcp-attrib $-1 -1 $646 $-1 $574 3 #
straight-curve $-1 -1 $-1 -1.2699999999999998 9.270999999999999 -1.2699999999999998 0 1.4099832412739488e-014 25.399999999999999 I I #
coedge $-1 -1 $-1 $629 $576 $578 $621 reversed $618 $-1 #
coedge $-1 -1 $-1 $576 $629 $582 $624 forward $618 $-1 #
loop $-1 -1 $-1 $-1 $576 $591 #
attrib_edge_convexity-kcp-attrib $-1 -1 $647 $-1 $577 2 #
ellipse-curve $-1 -1 $-1 8.8123952579621795e-017 6.3499999999999996 -1.2700000000000005 0 1 0 1.2699999999999996 0 5.2874371547773072e-016 1 I I #
edge $648 -1 $-1 $600 0 $580 0.11499999999999991 $578 $649 forward @7 unknown #
convexity-sys-attrib $-1 -1 $-1 $579 $535 #
point $-1 -1 $-1 -1.2699999999999998 6.3500000000000014 -1.27 #
edge $650 -1 $-1 $634 0 $584 0.11499999999999998 $582 $651 forward @7 unknown #
convexity-sys-attrib $-1 -1 $-1 $583 $537 #
point $-1 -1 $-1 1.2699999999999998 6.3499999999999996 -1.2699999999999998 #
model_id-kcp-attrib $-1 -1 $-1 $-1 $591 1 1021404426 1021404426 1722548225 14 #
cone-surface $-1 -1 $-1 0 13.652677166340109 -1.2699999999999998 0 -1 0 1.2699999999999998 0 0 1 I I 0 1 1.2699999999999998 forward I I I I #
coedge $-1 -1 $-1 $617 $616 $593 $630 forward $618 $-1 #
edge $-1 -1 $-1 $600 3.6060393516368302e-017 $634 3.1415926535897931 $629 $652 forward @7 unknown #
coedge $-1 -1 $-1 $597 $602 $594 $632 reversed $603 $-1 #
edge $-1 -1 $-1 $599 0 $633 3.1415926535897931 $631 $653 forward @7 unknown #
vertex $-1 -1 $-1 $632 $654 #
vertex $-1 -1 $-1 $624 $655 #
ellipse-curve $-1 -1 $-1 1.0159999999999985 9.270999999999999 -1.2699999999999998 0 0 -1 1.4099832412739487e-015 0.25400000000000023 0 1 I I #
straight-curve $-1 -1 $-1 -1.016 9.5249999999999986 -1.2699999999999998 0 0 25.399999999999999 I I #
point $-1 -1 $-1 -1.016 9.5249999999999986 -1.27 #
point $-1 -1 $-1 -1.2699999999999998 9.270999999999999 -1.27 #
edge $-1 -1 $-1 $604 0 $633 0.099999999999999992 $602 $656 forward @7 unknown #
face $657 -1 $-1 $-1 $603 $8 $-1 $658 forward single #
point $-1 -1 $-1 1.016 9.5249999999999986 1.2699999999999998 #
model_id-kcp-attrib $-1 -1 $-1 $-1 $607 1 1021404426 1021404426 1722548225 15 #
plane-surface $-1 -1 $-1 -1.2699999999999998 6.3499999999999996 -2.5399999999999996 -1 0 0 0 0 25.399999999999999 forward_v I I I I #
attrib_edge_convexity-kcp-attrib $-1 -1 $659 $-1 $610 3 #
straight-curve $-1 -1 $-1 1.2699999999999998 9.2710000000000008 1.2699999999999998 0 -1.4099832412739488e-014 -25.399999999999999 I I #
convexity-sys-attrib $-1 -1 $-1 $614 $574 #
convexity-sys-attrib $-1 -1 $-1 $619 $577 #
attrib_edge_convexity-kcp-attrib $-1 -1 $660 $-1 $621 3 #
straight-curve $-1 -1 $-1 -1.2699999999999998 9.270999999999999 -1.27 0 -25.399999999999999 0 I I #
attrib_edge_convexity-kcp-attrib $-1 -1 $661 $-1 $624 3 #
straight-curve $-1 -1 $-1 1.2699999999999998 9.270999999999999 -1.27 0 -25.399999999999999 0 I I #
ellipse-curve $-1 -1 $-1 0 9.270999999999999 -1.2699999999999998 0 -1 0 -1.27 0 -1.7624790515924359e-016 1 I I #
ellipse-curve $-1 -1 $-1 1.3218592886943268e-016 9.5249999999999986 -1.27 0 -1 0 -1.0160000000000002 0 0 1 I I #
point $-1 -1 $-1 1.016 9.5249999999999986 -1.2699999999999998 #
point $-1 -1 $-1 1.2699999999999998 9.270999999999999 -1.2699999999999998 #
straight-curve $-1 -1 $-1 1.016 9.5249999999999986 1.2699999999999998 0 0 -25.399999999999999 I I #
model_id-kcp-attrib $-1 -1 $-1 $-1 $640 1 1021404426 1021404426 1722548225 16 #
plane-surface $-1 -1 $-1 0 9.5249999999999986 0 0 1 0 25.399999999999999 0 0 forward_v I I I I #
convexity-sys-attrib $-1 -1 $-1 $644 $610 #
convexity-sys-attrib $-1 -1 $-1 $648 $621 #
convexity-sys-attrib $-1 -1 $-1 $650 $624 #
End-of-ACIS-data 