600 0 1 0           
115 GICL Pro/E ACIS Translator - Source: f:/data5/repository/PTC/V20/web_demos/models/multi_axis/multi_chuck6.prt - 6 0 13 ACIS 6.0.3 NT 24 Thu Apr 04 13:09:11 2002 
1 9.9999999999999995e-007 1e-010 
body $-1 $1 $-1 $2 #
lump $-1 $-1 $3 $0 #
transform $-1 1 0 0 0 1 0 0 0 1 0 0 0 25.399999999999999 no_rotate no_reflect no_shear #
shell $-1 $-1 $-1 $4 $-1 $1 #
face $-1 $5 $6 $3 $-1 $7 reversed single #
face $-1 $8 $9 $3 $-1 $10 reversed single #
loop $-1 $-1 $11 $4 #
plane-surface $-1 0 0 0 0 0 1 1 0 0 forward_v I I I I #
face $-1 $12 $13 $3 $-1 $14 reversed single #
loop $-1 $-1 $15 $5 #
cone-surface $-1 0 0 0 0 0 1 0.68999999999999995 0 0 1 I I 0 1 0.68999999999999995 forward I I I I #
coedge $-1 $16 $17 $18 $19 reversed $6 $-1 #
face $-1 $20 $21 $3 $-1 $22 reversed single #
loop $-1 $-1 $23 $8 #
plane-surface $-1 3.8999999999999999 -0.56000000000000005 0.25666666666666682 0 0 1 0 1 0 forward_v I I I I #
coedge $-1 $24 $25 $26 $27 reversed $9 $-1 #
coedge $-1 $28 $11 $29 $30 forward $6 $-1 #
coedge $-1 $11 $28 $31 $32 forward $6 $-1 #
coedge $-1 $25 $33 $11 $19 forward $9 $-1 #
edge $-1 $34 -2.3902092002536988e-015 $35 0.20064364213522567 $11 $36 forward 7 unknown #
face $-1 $37 $38 $3 $-1 $39 reversed single #
loop $-1 $-1 $40 $12 #
plane-surface $-1 3.8999999999999999 -0.37333333333333335 0.25666666666666682 0 -1 0 0 0 1 forward_v I I I I #
coedge $-1 $26 $41 $42 $43 reversed $13 $-1 #
coedge $-1 $44 $15 $45 $46 forward $9 $-1 #
coedge $-1 $15 $18 $47 $48 forward $9 $-1 #
coedge $-1 $49 $23 $15 $27 forward $13 $-1 #
edge $-1 $50 0 $51 0.37517537102734166 $15 $52 forward 7 unknown #
coedge $-1 $17 $16 $53 $54 reversed $6 $-1 #
coedge $-1 $55 $56 $16 $30 reversed $57 $-1 #
edge $-1 $34 0 $58 2.7982774355541431 $16 $59 forward 7 unknown #
coedge $-1 $60 $47 $17 $32 reversed $61 $-1 #
edge $-1 $62 0 $35 2.7982774355541413 $17 $63 forward 7 unknown #
coedge $-1 $18 $64 $55 $65 reversed $9 $-1 #
vertex $-1 $30 $66 #
vertex $-1 $32 $67 #
ellipse-curve $-1 0 0 0 0 0 -1 -0.28341778241182275 -0.6291060010942231 0 1 I I #
face $-1 $68 $69 $3 $-1 $70 reversed single #
loop $-1 $-1 $71 $20 #
plane-surface $-1 3.8999999999999999 -0.37333333333333335 0.7133333333333336 0 0 -1 0 -1 0 forward_v I I I I #
coedge $-1 $45 $72 $73 $74 reversed $21 $-1 #
coedge $-1 $23 $49 $75 $76 reversed $13 $-1 #
coedge $-1 $72 $45 $23 $43 forward $21 $-1 #
edge $-1 $50 0 $77 2.6482083460145134 $23 $78 forward 7 unknown #
coedge $-1 $79 $24 $80 $81 forward $9 $-1 #
coedge $-1 $42 $40 $24 $46 reversed $21 $-1 #
edge $-1 $50 0 $82 0.45666666666666678 $24 $83 forward 7 unknown #
coedge $-1 $31 $84 $25 $48 reversed $61 $-1 #
edge $-1 $35 8.7642318508219097e-031 $51 0.25666666666666682 $25 $85 forward 7 unknown #
coedge $-1 $41 $26 $84 $86 forward $13 $-1 #
vertex $-1 $46 $87 #
vertex $-1 $48 $88 #
ellipse-curve $-1 -8.8817841970012523e-016 -8.8817841970012523e-016 0.25666666666666682 0 0 1 -0.58027771129194816 -0.37333333333333246 0 1 I I #
coedge $-1 $89 $90 $28 $54 forward $91 $-1 #
edge $-1 $62 0 $58 1.7480512552329999 $28 $92 forward 7 unknown #
coedge $-1 $93 $29 $33 $65 forward $57 $-1 #
coedge $-1 $29 $93 $89 $94 reversed $57 $-1 #
loop $-1 $-1 $29 $95 #
vertex $-1 $54 $96 #
straight-curve $-1 -0.28341778241182114 -0.62910600109422354 0 0.49999999999999994 -0.8660254037844386 0 I I #
coedge $-1 $84 $31 $90 $97 forward $61 $-1 #
loop $-1 $-1 $84 $98 #
vertex $-1 $32 $99 #
straight-curve $-1 -3.2013903229690688 -0.56000000000000005 0 1 0 0 I I #
coedge $-1 $33 $100 $101 $102 reversed $9 $-1 #
edge $-1 $34 3.8418550578945358e-031 $103 0.25666666666666682 $33 $104 forward 7 unknown #
point $-1 -0.28341778241182114 -0.62910600109422354 0 #
point $-1 -0.40311288741492746 -0.56000000000000005 0 #
face $-1 $105 $106 $3 $-1 $107 reversed single #
loop $-1 $-1 $108 $37 #
plane-surface $-1 3.8999999999999999 -0.56000000000000005 0.7133333333333336 0 -1 0 0 0 1 forward_v I I I I #
coedge $-1 $80 $109 $110 $111 reversed $38 $-1 #
coedge $-1 $40 $42 $112 $113 forward $21 $-1 #
coedge $-1 $109 $80 $40 $74 forward $38 $-1 #
edge $-1 $82 0 $114 2.6482083460145125 $40 $115 forward 7 unknown #
coedge $-1 $90 $112 $41 $76 forward $91 $-1 #
edge $-1 $77 0 $116 0.058045984335769615 $75 $117 forward 7 unknown #
vertex $-1 $76 $118 #
straight-curve $-1 -0.58027771129194905 -0.37333333333333335 0.25666666666666682 -1 0 0 I I #
coedge $-1 $119 $44 $120 $121 forward $9 $-1 #
coedge $-1 $73 $71 $44 $81 reversed $38 $-1 #
edge $-1 $82 0 $122 0.37517537102733794 $44 $123 forward 7 unknown #
vertex $-1 $81 $124 #
straight-curve $-1 -0.58027771129194905 -0.37333333333333335 0.25666666666666682 0 0 1 I I #
coedge $-1 $47 $60 $49 $86 reversed $61 $-1 #
straight-curve $-1 -0.40311288741492796 -0.55999999999999961 0 2.1627721258931608e-016 -1.7302177007145287e-015 1 I I #
edge $-1 $51 0 $116 2.7982774355541418 $84 $125 forward 7 unknown #
point $-1 -0.58027771129194905 -0.37333333333333335 0.25666666666666682 #
point $-1 -0.4031128874149279 -0.56000000000000005 0.25666666666666682 #
coedge $-1 $126 $53 $56 $94 forward $91 $-1 #
coedge $-1 $53 $75 $60 $97 reversed $91 $-1 #
loop $-1 $-1 $53 $127 #
ellipse-curve $-1 0 0 0 0 0 1 -3.2013903229690688 -0.56000000000000005 0 1 I I #
coedge $-1 $56 $55 $128 $129 forward $57 $-1 #
edge $-1 $58 6.1469680926312573e-030 $130 0.25666666666666682 $89 $131 forward 7 unknown #
face $-1 $132 $57 $3 $-1 $133 reversed single #
point $-1 1.1157209353652497 -3.052485347120883 0 #
edge $-1 $62 2.3051130347367216e-030 $116 0.25666666666666682 $90 $134 forward 7 unknown #
face $-1 $-1 $61 $3 $-1 $135 reversed single #
point $-1 -3.2013903229690688 -0.56000000000000005 0 #
coedge $-1 $64 $136 $137 $138 reversed $9 $-1 #
coedge $-1 $139 $128 $64 $102 forward $140 $-1 #
edge $-1 $103 -5.8297785372045553e-016 $141 0.37517537102735438 $64 $142 forward 7 unknown #
vertex $-1 $65 $143 #
straight-curve $-1 -0.28341778241182136 -0.62910600109422377 0 8.6510885035726434e-016 8.6510885035726434e-016 1 I I #
face $-1 $144 $145 $3 $-1 $146 reversed single #
loop $-1 $-1 $147 $68 #
plane-surface $-1 3.8999999999999999 -0.56000000000000005 1.1700000000000002 0 0 1 0 1 0 forward_v I I I I #
coedge $-1 $120 $148 $149 $150 reversed $69 $-1 #
coedge $-1 $71 $73 $151 $152 forward $38 $-1 #
coedge $-1 $148 $120 $71 $111 forward $69 $-1 #
edge $-1 $122 0 $153 2.7982774355541409 $71 $154 forward 7 unknown #
coedge $-1 $75 $151 $72 $113 reversed $91 $-1 #
edge $-1 $77 0 $114 0.45666666666666678 $112 $155 forward 7 unknown #
vertex $-1 $113 $156 #
straight-curve $-1 -0.58027771129194905 -0.37333333333333335 0.7133333333333336 -1 0 0 I I #
vertex $-1 $97 $157 #
ellipse-curve $-1 7.4207306965945463e-013 1.2345680033831741e-013 0.25666666666666682 0 0 1 -3.2284860573072045 -0.37333333333345681 0 1 I I #
point $-1 -3.2284860573064624 -0.37333333333333335 0.25666666666666682 #
coedge $-1 $158 $79 $159 $160 reversed $9 $-1 #
coedge $-1 $110 $108 $79 $121 reversed $69 $-1 #
edge $-1 $122 0 $161 0.45666666666666655 $79 $162 forward 7 unknown #
vertex $-1 $121 $163 #
ellipse-curve $-1 3.9968028886505635e-015 3.6082248300317588e-015 0.7133333333333336 0 0 1 -0.58027771129195305 -0.37333333333333696 0 1 I I #
point $-1 -0.58027771129194905 -0.37333333333333335 0.7133333333333336 #
straight-curve $-1 -0.4031128874149279 -0.56000000000000005 0.25666666666666682 -1 0 0 I I #
coedge $-1 $164 $89 $165 $166 forward $91 $-1 #
face $-1 $95 $91 $3 $-1 $167 forward single #
coedge $-1 $101 $165 $93 $129 reversed $140 $-1 #
edge $-1 $103 -9.9122967947845703e-016 $130 2.7982774355541422 $128 $168 forward 7 unknown #
vertex $-1 $166 $169 #
straight-curve $-1 1.1157209353652497 -3.0524853471208822 0 3.4604354014290573e-015 -6.9208708028581147e-015 1 I I #
face $-1 $170 $140 $3 $-1 $171 reversed single #
plane-surface $-1 -3.0900990829049482 4.2322086120133644 0.25666666666666682 -0.86602540378443871 -0.5 0 0 0 -1 forward_v I I I I #
straight-curve $-1 -3.2013903229690692 -0.55999999999999917 0 -1.7302177007145287e-015 -3.4604354014290573e-015 1 I I #
plane-surface $-1 3.8999999999999999 -0.56000000000000005 -0.19999999999999998 0 -1 0 0 0 1 forward_v I I I I #
coedge $-1 $100 $172 $173 $174 forward $9 $-1 #
coedge $-1 $175 $176 $100 $138 forward $177 $-1 #
edge $-1 $141 0 $178 0.45666666666666678 $100 $179 forward 7 unknown #
coedge $-1 $165 $101 $176 $180 forward $140 $-1 #
loop $-1 $-1 $128 $132 #
vertex $-1 $102 $181 #
ellipse-curve $-1 -3.9968028886505635e-015 -2.3980817331903381e-014 0.25666666666666682 0 0 1 -0.28341778241181714 -0.62910600109419867 0 1 I I #
point $-1 -0.28341778241182158 -0.62910600109422266 0.25666666666666682 #
face $-1 $182 $183 $3 $-1 $184 reversed single #
loop $-1 $-1 $185 $105 #
plane-surface $-1 3.8999999999999999 0.56000000000000005 1.1700000000000002 0 1 0 0 0 -1 forward_v I I I I #
coedge $-1 $186 $187 $188 $189 reversed $106 $-1 #
coedge $-1 $108 $110 $190 $191 forward $69 $-1 #
coedge $-1 $192 $159 $108 $150 forward $106 $-1 #
edge $-1 $161 0 $193 2.7982774355541418 $108 $194 forward 7 unknown #
coedge $-1 $112 $190 $109 $152 reversed $91 $-1 #
edge $-1 $114 4.2043948861524402e-017 $153 0.058045984335769282 $151 $195 forward 7 unknown #
vertex $-1 $152 $196 #
straight-curve $-1 -0.4031128874149279 -0.56000000000000005 0.7133333333333336 -1 0 0 I I #
straight-curve $-1 -3.2284860573064615 -0.37333333333333335 0.25666666666666682 0 0 1 I I #
point $-1 -3.2284860573064615 -0.37333333333333335 0.7133333333333336 #
point $-1 -3.2013903229690697 -0.56000000000000005 0.25666666666666682 #
coedge $-1 $197 $119 $198 $199 forward $9 $-1 #
coedge $-1 $149 $186 $119 $160 forward $106 $-1 #
edge $-1 $200 0 $161 0.9468757301289823 $119 $201 forward 7 unknown #
vertex $-1 $160 $202 #
straight-curve $-1 -0.4031128874149279 -0.56000000000000005 0.7133333333333336 0 0 1 I I #
point $-1 -0.4031128874149279 -0.56000000000000005 0.7133333333333336 #
coedge $-1 $203 $126 $204 $205 forward $91 $-1 #
coedge $-1 $128 $139 $126 $166 reversed $140 $-1 #
edge $-1 $130 0 $206 0.058045984335794464 $126 $207 forward 7 unknown #
cone-surface $-1 0 0 0 0 0 1 3.25 0 0 1 I I 0 1 3.25 forward I I I I #
straight-curve $-1 -0.28341778241182114 -0.62910600109422354 0.25666666666666682 0.50000000000000011 -0.86602540378443871 0 I I #
point $-1 1.1157209353652493 -3.052485347120883 0.25666666666666682 #
face $-1 $208 $177 $3 $-1 $209 reversed single #
plane-surface $-1 -2.9284410075318532 4.3255419453466981 0.25666666666666682 0 0 1 -0.86602540378443871 -0.5 0 forward_v I I I I #
coedge $-1 $136 $210 $211 $212 reversed $9 $-1 #
coedge $-1 $213 $214 $136 $174 reversed $215 $-1 #
edge $-1 $216 0 $178 0.3751753710273486 $136 $217 forward 7 unknown #
coedge $-1 $204 $137 $214 $218 forward $177 $-1 #
coedge $-1 $137 $204 $139 $180 reversed $177 $-1 #
loop $-1 $-1 $176 $170 #
vertex $-1 $138 $219 #
straight-curve $-1 -0.033177295100215165 -0.68920190589538688 0.25666666666666682 0 0 1 I I #
edge $-1 $141 -9.9122967947845723e-016 $206 2.6482083460145138 $176 $220 forward 7 unknown #
point $-1 -0.033177295100215609 -0.68920190589538599 0.25666666666666682 #
face $-1 $221 $222 $3 $-1 $223 reversed single #
loop $-1 $-1 $224 $144 #
plane-surface $-1 3.8999999999999999 0.56000000000000005 0.7133333333333336 0 0 -1 0 -1 0 forward_v I I I I #
coedge $-1 $225 $226 $227 $228 reversed $145 $-1 #
coedge $-1 $159 $147 $229 $230 forward $106 $-1 #
coedge $-1 $147 $192 $231 $232 reversed $106 $-1 #
coedge $-1 $226 $225 $147 $189 forward $145 $-1 #
edge $-1 $233 0 $234 2.7982774355541418 $147 $235 forward 7 unknown #
coedge $-1 $151 $236 $148 $191 reversed $91 $-1 #
edge $-1 $153 0 $193 0.45666666666666655 $190 $237 forward 7 unknown #
coedge $-1 $187 $149 $236 $238 reversed $106 $-1 #
vertex $-1 $191 $239 #
straight-curve $-1 -0.4031128874149279 -0.56000000000000005 1.1700000000000002 -1 0 0 I I #
ellipse-curve $-1 7.6294526252240757e-013 1.2639889135357407e-013 0.7133333333333336 0 0 1 -3.2284860573072254 -0.37333333333345975 0 1 I I #
point $-1 -3.2013903229690688 -0.56000000000000005 0.7133333333333336 #
coedge $-1 $240 $158 $241 $242 reversed $9 $-1 #
coedge $-1 $229 $243 $158 $199 reversed $244 $-1 #
edge $-1 $200 0 $245 1.5700000000000001 $158 $246 forward 7 unknown #
vertex $-1 $199 $247 #
ellipse-curve $-1 1.3322676295501878e-015 2.2204460492503131e-016 1.1700000000000002 0 0 1 -0.69000000000000128 -1.1102230246251565e-016 0 1 I I #
point $-1 -0.4031128874149279 -0.56000000000000005 1.1700000000000002 #
coedge $-1 $248 $164 $249 $250 reversed $91 $-1 #
coedge $-1 $176 $175 $164 $205 reversed $177 $-1 #
edge $-1 $206 0 $251 0.45666666666666678 $164 $252 forward 7 unknown #
vertex $-1 $205 $253 #
ellipse-curve $-1 2.3714363805993344e-013 -5.844214001626824e-013 0.25666666666666682 0 0 1 1.1157209353650122 -3.0524853471202986 0 1 I I #
face $-1 $254 $215 $3 $-1 $255 reversed single #
plane-surface $-1 -2.9284410075318532 4.3255419453466981 0.7133333333333336 -0.86602540378443871 -0.5 0 0 0 -1 forward_v I I I I #
coedge $-1 $172 $256 $257 $258 reversed $9 $-1 #
coedge $-1 $259 $260 $172 $212 forward $261 $-1 #
edge $-1 $216 0 $262 0.45666666666666655 $172 $263 forward 7 unknown #
coedge $-1 $249 $173 $260 $264 forward $215 $-1 #
coedge $-1 $173 $249 $175 $218 reversed $215 $-1 #
loop $-1 $-1 $214 $208 #
vertex $-1 $174 $265 #
ellipse-curve $-1 -1.3322676295501878e-015 -1.2434497875801753e-014 0.7133333333333336 0 0 1 -0.28341778241182025 -0.62910600109421022 0 1 I I #
edge $-1 $178 0 $251 2.6482083460145147 $214 $266 forward 7 unknown #
point $-1 -0.033177295100215609 -0.68920190589538599 0.7133333333333336 #
straight-curve $-1 -0.033177295100215165 -0.68920190589538688 0.25666666666666682 0.5 -0.8660254037844386 0 I I #
face $-1 $267 $268 $3 $-1 $269 reversed single #
loop $-1 $-1 $270 $182 #
plane-surface $-1 3.8999999999999999 0.37333333333333335 0.7133333333333336 0 1 0 0 0 -1 forward_v I I I I #
coedge $-1 $271 $272 $273 $274 reversed $183 $-1 #
coedge $-1 $188 $185 $275 $276 forward $145 $-1 #
coedge $-1 $185 $188 $277 $278 reversed $145 $-1 #
coedge $-1 $272 $271 $185 $228 forward $183 $-1 #
edge $-1 $279 0 $280 2.7982774355541409 $185 $281 forward 7 unknown #
coedge $-1 $275 $198 $186 $230 reversed $244 $-1 #
edge $-1 $233 0 $200 0.94687573012898851 $229 $282 forward 7 unknown #
coedge $-1 $283 $277 $187 $232 forward $284 $-1 #
edge $-1 $234 0 $285 0.1731719235801108 $231 $286 forward 7 unknown #
vertex $-1 $230 $287 #
vertex $-1 $232 $288 #
straight-curve $-1 -0.4031128874149279 0.56000000000000005 1.1700000000000002 -1 0 0 I I #
coedge $-1 $190 $289 $192 $238 forward $91 $-1 #
straight-curve $-1 -3.2013903229690697 -0.56000000000000005 0.7133333333333336 0 0 1 I I #
edge $-1 $285 0 $193 0.17317192358010564 $236 $290 forward 7 unknown #
point $-1 -3.2013903229690697 -0.56000000000000005 1.1700000000000002 #
coedge $-1 $291 $197 $292 $293 reversed $9 $-1 #
coedge $-1 $294 $294 $197 $242 forward $295 $-1 #
edge $-1 $296 0 $245 3.1415926535897931 $241 $297 forward 7 unknown #
coedge $-1 $198 $292 $294 $298 reversed $244 $-1 #
loop $-1 $-1 $275 $299 #
vertex $-1 $242 $300 #
straight-curve $-1 -0.68999999999999995 8.449783841374402e-017 1.1700000000000002 0 0 1 I I #
point $-1 -0.68999999999999995 1.1102230246251565e-016 1.1700000000000002 #
coedge $-1 $301 $203 $302 $303 forward $91 $-1 #
coedge $-1 $214 $213 $203 $250 forward $215 $-1 #
edge $-1 $304 0 $251 0.058045984335787545 $203 $305 forward 7 unknown #
vertex $-1 $250 $306 #
straight-curve $-1 1.2909268779070415 -2.9826176080579261 0.25666666666666682 0 0 1 I I #
point $-1 1.2909268779070415 -2.9826176080579261 0.25666666666666682 #
face $-1 $307 $261 $3 $-1 $308 reversed single #
plane-surface $-1 -3.0900990829049482 4.2322086120133644 0.7133333333333336 0 0 -1 0.86602540378443871 0.5 0 forward_v I I I I #
coedge $-1 $210 $309 $310 $311 forward $9 $-1 #
coedge $-1 $312 $313 $210 $258 forward $314 $-1 #
edge $-1 $262 0 $315 1.8937514602579779 $210 $316 forward 7 unknown #
coedge $-1 $302 $211 $313 $317 forward $261 $-1 #
coedge $-1 $211 $302 $213 $264 reversed $261 $-1 #
loop $-1 $-1 $260 $254 #
vertex $-1 $212 $318 #
straight-curve $-1 -0.2834177824118207 -0.62910600109422443 0.7133333333333336 0 0 1 I I #
edge $-1 $216 -9.9122967947845703e-016 $304 2.7982774355541427 $260 $319 forward 7 unknown #
point $-1 -0.28341778241182158 -0.62910600109422266 0.7133333333333336 #
straight-curve $-1 -0.033177295100215609 -0.68920190589538599 0.7133333333333336 0.49999999999999972 -0.86602540378443882 0 I I #
face $-1 $320 $321 $3 $-1 $322 reversed single #
loop $-1 $-1 $323 $221 #
plane-surface $-1 3.8999999999999999 0.37333333333333335 0.25666666666666682 0 0 1 0 1 0 forward_v I I I I #
coedge $-1 $324 $325 $326 $327 reversed $222 $-1 #
coedge $-1 $227 $224 $328 $329 reversed $183 $-1 #
coedge $-1 $224 $227 $330 $331 forward $183 $-1 #
coedge $-1 $325 $324 $224 $274 forward $222 $-1 #
edge $-1 $332 0 $333 2.6482083460145134 $224 $334 forward 7 unknown #
coedge $-1 $328 $229 $225 $276 reversed $244 $-1 #
edge $-1 $279 0 $233 0.45666666666666655 $275 $335 forward 7 unknown #
coedge $-1 $231 $330 $226 $278 forward $284 $-1 #
edge $-1 $280 0 $234 0.45666666666666655 $277 $336 forward 7 unknown #
vertex $-1 $329 $337 #
vertex $-1 $278 $338 #
straight-curve $-1 -0.4031128874149279 0.56000000000000005 0.7133333333333336 -1 0 0 I I #
ellipse-curve $-1 -3.1086244689504383e-015 1.9984014443252818e-015 1.1700000000000002 0 0 1 -0.40311288741492479 0.55999999999999805 0 1 I I #
coedge $-1 $339 $231 $289 $340 forward $284 $-1 #
loop $-1 $-1 $283 $341 #
vertex $-1 $232 $342 #
ellipse-curve $-1 -2.4247270857813419e-013 2.7422508708241367e-014 1.1700000000000002 0 0 1 -3.2013903229688272 0.55999999999997263 0 1 I I #
point $-1 -0.4031128874149279 0.56000000000000005 1.1700000000000002 #
point $-1 -3.2013903229690697 0.56000000000000005 1.1700000000000002 #
coedge $-1 $236 $343 $283 $340 reversed $91 $-1 #
ellipse-curve $-1 -1.461053500406706e-013 -1.9095836023552692e-014 1.1700000000000002 0 0 1 -3.2499999999998535 1.9095836023552692e-014 0 1 I I #
coedge $-1 $344 $240 $345 $346 forward $9 $-1 #
coedge $-1 $243 $347 $240 $293 forward $244 $-1 #
edge $-1 $348 1.0423189338095173e-032 $296 2.7400000000000002 $240 $349 forward 7 unknown #
coedge $-1 $241 $241 $243 $298 forward $295 $-1 #
loop $-1 $-1 $294 $350 #
vertex $-1 $242 $351 #
ellipse-curve $-1 0 -2.7755575615628914e-017 2.7400000000000002 0 0 -1 0.68999999999999995 2.7755575615628914e-017 0 1 I I #
edge $-1 $245 0 $296 3.1415926535897931 $294 $352 forward 7 unknown #
face $-1 $353 $244 $3 $-1 $354 reversed single #
point $-1 -0.68999999999999995 0 2.7400000000000002 #
coedge $-1 $355 $248 $356 $357 reversed $91 $-1 #
coedge $-1 $260 $259 $248 $303 reversed $261 $-1 #
edge $-1 $304 0 $358 0.45666666666666655 $248 $359 forward 7 unknown #
vertex $-1 $303 $360 #
ellipse-curve $-1 9.4146912488213275e-014 -2.2382096176443156e-013 0.7133333333333336 0 0 1 1.1157209353651556 -3.0524853471206592 0 1 I I #
point $-1 1.290926877907042 -2.9826176080579261 0.7133333333333336 #
face $-1 $361 $314 $3 $-1 $362 reversed single #
plane-surface $-1 -3.0900990829049482 4.2322086120133644 1.1700000000000002 -0.86602540378443871 -0.5 0 0 0 -1 forward_v I I I I #
coedge $-1 $256 $363 $364 $365 forward $9 $-1 #
coedge $-1 $366 $367 $256 $311 reversed $368 $-1 #
edge $-1 $369 0 $315 0.45666666666666655 $256 $370 forward 7 unknown #
coedge $-1 $356 $257 $367 $371 forward $314 $-1 #
coedge $-1 $257 $356 $259 $317 reversed $314 $-1 #
loop $-1 $-1 $313 $307 #
vertex $-1 $258 $372 #
ellipse-curve $-1 3.1086244689504383e-015 -3.5527136788005009e-015 1.1700000000000002 0 0 1 -0.28341778241182425 -0.62910600109421999 0 1 I I #
edge $-1 $262 -7.6918507455342553e-016 $358 2.79827743555414 $313 $373 forward 7 unknown #
point $-1 -0.28341778241182114 -0.62910600109422354 1.1700000000000002 #
straight-curve $-1 -0.28341778241182114 -0.62910600109422354 0.7133333333333336 0.50000000000000011 -0.86602540378443871 0 I I #
face $-1 $341 $374 $3 $-1 $375 reversed single #
loop $-1 $-1 $376 $267 #
plane-surface $-1 3.8999999999999999 0.56000000000000005 0.25666666666666682 0 1 0 0 0 -1 forward_v I I I I #
coedge $-1 $377 $378 $379 $380 reversed $268 $-1 #
coedge $-1 $273 $270 $381 $382 forward $222 $-1 #
coedge $-1 $270 $273 $383 $384 reversed $222 $-1 #
coedge $-1 $378 $377 $270 $327 forward $268 $-1 #
edge $-1 $385 0 $386 2.6482083460145134 $270 $387 forward 7 unknown #
coedge $-1 $381 $275 $271 $329 forward $244 $-1 #
edge $-1 $279 0 $332 0.37517537102734405 $328 $388 forward 7 unknown #
coedge $-1 $277 $383 $272 $331 reversed $284 $-1 #
edge $-1 $280 -4.2043948861555488e-017 $333 0.058045984335790717 $330 $389 forward 7 unknown #
vertex $-1 $382 $390 #
vertex $-1 $331 $391 #
straight-curve $-1 -0.58027771129194905 0.37333333333333335 0.7133333333333336 -1 0 0 I I #
straight-curve $-1 -0.4031128874149279 0.56000000000000005 0.7133333333333336 0 0 1 I I #
straight-curve $-1 -3.2013903229690688 0.56000000000000005 0.7133333333333336 0 0 1 I I #
point $-1 -0.4031128874149279 0.56000000000000005 0.7133333333333336 #
point $-1 -3.2013903229690688 0.56000000000000005 0.7133333333333336 #
coedge $-1 $392 $283 $393 $394 reversed $284 $-1 #
edge $-1 $285 0 $395 1.5700000000000001 $283 $396 forward 7 unknown #
face $-1 $127 $284 $3 $-1 $397 forward single #
point $-1 -3.2499999999999996 0 1.1700000000000002 #
coedge $-1 $289 $398 $399 $400 reversed $91 $-1 #
coedge $-1 $401 $291 $402 $403 forward $9 $-1 #
coedge $-1 $404 $405 $291 $346 reversed $406 $-1 #
edge $-1 $348 2.4492127076447545e-016 $407 0.10032182106761298 $345 $408 forward 7 unknown #
coedge $-1 $292 $409 $404 $410 forward $244 $-1 #
vertex $-1 $410 $411 #
straight-curve $-1 0.68999999999999995 0 0 0 -6.1677254316601465e-017 1 I I #
face $-1 $98 $412 $3 $-1 $413 forward single #
point $-1 0.68999999999999995 0 2.7400000000000002 #
ellipse-curve $-1 2.7755575615628914e-017 -5.5511151231257827e-017 2.7400000000000002 0 0 -1 -0.68999999999999995 5.5511151231257827e-017 0 1 I I #
face $-1 $414 $415 $3 $-1 $416 reversed single #
cone-surface $-1 0 0 0 0 0 1 0.68999999999999995 0 0 1 I I 0 1 0.68999999999999995 forward I I I I #
coedge $-1 $417 $301 $418 $419 reversed $91 $-1 #
coedge $-1 $313 $312 $301 $357 forward $314 $-1 #
edge $-1 $420 -3.3635159089235634e-016 $358 0.34634384716019689 $301 $421 forward 7 unknown #
vertex $-1 $357 $422 #
straight-curve $-1 1.1157209353652506 -3.0524853471208839 0.7133333333333336 0 0 1 I I #
point $-1 1.1157209353652497 -3.052485347120883 0.7133333333333336 #
face $-1 $423 $368 $3 $-1 $424 reversed single #
plane-surface $-1 -2.1201506306663767 4.7922086120133649 1.1700000000000002 0 0 1 -0.86602540378443871 -0.5 0 forward_v I I I I #
coedge $-1 $309 $401 $425 $426 forward $9 $-1 #
coedge $-1 $427 $428 $309 $365 reversed $429 $-1 #
edge $-1 $430 0 $369 0.37517537102732718 $309 $431 forward 7 unknown #
coedge $-1 $418 $310 $428 $432 forward $368 $-1 #
coedge $-1 $310 $418 $312 $371 reversed $368 $-1 #
loop $-1 $-1 $367 $361 #
vertex $-1 $311 $433 #
straight-curve $-1 0.68653066982675082 -0.069106001094223934 0.7133333333333336 0 0 1 I I #
edge $-1 $315 0 $420 2.7982774355541409 $367 $434 forward 7 unknown #
point $-1 0.68653066982675082 -0.069106001094223934 1.1700000000000002 #
straight-curve $-1 -0.28341778241182114 -0.62910600109422443 1.1700000000000002 0.50000000000000011 -0.8660254037844386 0 I I #
loop $-1 $-1 $435 $320 #
plane-surface $-1 0 0 0 0 0 1 1 0 0 forward_v I I I I #
coedge $-1 $436 $437 $438 $439 forward $321 $-1 #
coedge $-1 $326 $323 $440 $441 forward $268 $-1 #
coedge $-1 $323 $326 $442 $443 reversed $268 $-1 #
coedge $-1 $437 $436 $323 $380 forward $321 $-1 #
edge $-1 $444 0 $445 2.7982774355541418 $323 $446 forward 7 unknown #
coedge $-1 $440 $328 $324 $382 reversed $244 $-1 #
edge $-1 $385 0 $332 0.45666666666666678 $381 $447 forward 7 unknown #
coedge $-1 $330 $442 $325 $384 forward $284 $-1 #
edge $-1 $386 0 $333 0.45666666666666678 $383 $448 forward 7 unknown #
vertex $-1 $441 $449 #
vertex $-1 $384 $450 #
straight-curve $-1 -0.58027771129194905 0.37333333333333335 0.25666666666666682 -1 0 0 I I #
ellipse-curve $-1 -3.9968028886505635e-015 3.9968028886505635e-015 0.7133333333333336 0 0 1 -0.4031128874149239 0.55999999999999606 0 1 I I #
ellipse-curve $-1 -4.2499337382650992e-013 6.1284310959308641e-014 0.7133333333333336 0 0 1 -3.2013903229686447 0.55999999999993877 0 1 I I #
point $-1 -0.58027771129194905 0.37333333333333335 0.7133333333333336 #
point $-1 -3.2284860573064624 0.37333333333333335 0.7133333333333336 #
coedge $-1 $451 $339 $398 $452 reversed $284 $-1 #
coedge $-1 $399 $399 $339 $394 forward $412 $-1 #
edge $-1 $453 0 $395 3.1415926535897931 $393 $454 forward 7 unknown #
vertex $-1 $394 $455 #
straight-curve $-1 -3.25 3.9799706499227261e-016 1.1700000000000002 0 0 1 I I #
cone-surface $-1 0 0 0 0 0 1 3.25 0 0 1 I I 0 1 3.25 forward I I I I #
coedge $-1 $343 $456 $392 $452 forward $91 $-1 #
coedge $-1 $393 $393 $343 $400 forward $412 $-1 #
edge $-1 $395 0 $453 3.1415926535897931 $399 $457 forward 7 unknown #
coedge $-1 $363 $344 $458 $459 reversed $9 $-1 #
coedge $-1 $460 $461 $344 $403 reversed $462 $-1 #
edge $-1 $407 -5.4026086751641906e-031 $463 0.25666666666666682 $344 $464 forward 7 unknown #
coedge $-1 $465 $345 $347 $410 reversed $406 $-1 #
coedge $-1 $345 $466 $460 $467 reversed $406 $-1 #
loop $-1 $-1 $345 $468 #
vertex $-1 $467 $469 #
ellipse-curve $-1 0 0 0 0 0 -1 0.68999999999999995 0 0 1 I I #
coedge $-1 $347 $470 $471 $472 reversed $244 $-1 #
edge $-1 $473 0 $348 0.10032182106761661 $404 $474 forward 7 unknown #
point $-1 0.68999999999999995 -1.6899567682748804e-016 0 #
loop $-1 $295 $399 $350 #
plane-surface $-1 0 0 2.7400000000000002 0 0 1 1 0 0 forward_v I I I I #
face $-1 $475 $476 $3 $-1 $477 reversed single #
loop $-1 $-1 $478 $353 #
plane-surface $-1 -3.0892446353839698 -4.2307286654946274 -0.19999999999999998 -0.86602540378443871 0.5 0 0 0 1 forward_v I I I I #
coedge $-1 $479 $355 $480 $481 reversed $91 $-1 #
coedge $-1 $367 $366 $355 $419 forward $368 $-1 #
edge $-1 $482 0 $420 0.45666666666666655 $355 $483 forward 7 unknown #
vertex $-1 $419 $484 #
ellipse-curve $-1 3.5527136788005009e-015 -5.3290705182007514e-015 1.1700000000000002 0 0 -1 2.0856693876038164 -2.4924853471208772 0 1 I I #
point $-1 1.1157209353652469 -3.052485347120883 1.1700000000000002 #
face $-1 $485 $429 $3 $-1 $486 reversed single #
plane-surface $-1 -2.1201506306663767 4.7922086120133649 0.7133333333333336 0.86602540378443871 0.5 0 0 0 1 forward_v I I I I #
coedge $-1 $487 $488 $363 $426 reversed $489 $-1 #
edge $-1 $490 0 $430 0.45666666666666678 $363 $491 forward 7 unknown #
coedge $-1 $480 $364 $488 $492 forward $429 $-1 #
coedge $-1 $364 $480 $366 $432 reversed $429 $-1 #
loop $-1 $-1 $428 $423 #
vertex $-1 $365 $493 #
ellipse-curve $-1 -2.3980817331903381e-014 7.9936057773011271e-015 0.7133333333333336 0 0 1 0.61345500639218997 -0.3158685725620618 0 1 I I #
edge $-1 $369 0 $482 2.7982774355541409 $428 $494 forward 7 unknown #
point $-1 0.68653066982675082 -0.069106001094223934 0.7133333333333336 #
straight-curve $-1 0.68653066982675082 -0.069106001094223934 1.1700000000000002 0.50000000000000011 -0.8660254037844386 0 I I #
coedge $-1 $495 $438 $496 $497 reversed $374 $-1 #
coedge $-1 $379 $376 $498 $499 forward $321 $-1 #
coedge $-1 $376 $379 $500 $501 reversed $321 $-1 #
coedge $-1 $435 $502 $376 $439 reversed $374 $-1 #
edge $-1 $503 -4.4408920985006262e-016 $504 2.7982774355541413 $438 $505 forward 7 unknown #
coedge $-1 $498 $381 $377 $441 reversed $244 $-1 #
edge $-1 $444 0 $385 0.37517537102733456 $440 $506 forward 7 unknown #
coedge $-1 $383 $500 $378 $443 forward $284 $-1 #
edge $-1 $445 0 $386 0.058045984335790342 $442 $507 forward 7 unknown #
vertex $-1 $499 $508 #
vertex $-1 $443 $509 #
straight-curve $-1 -0.4031128874149279 0.56000000000000005 0.25666666666666682 -1 0 0 I I #
straight-curve $-1 -0.58027771129194905 0.37333333333333335 0.25666666666666682 0 0 1 I I #
straight-curve $-1 -3.2284860573064624 0.37333333333333335 0.25666666666666682 0 0 1 I I #
point $-1 -0.58027771129194905 0.37333333333333335 0.25666666666666682 #
point $-1 -3.2284860573064624 0.37333333333333335 0.25666666666666682 #
coedge $-1 $510 $392 $511 $512 forward $284 $-1 #
edge $-1 $513 0 $453 2.7400000000000002 $392 $514 forward 7 unknown #
vertex $-1 $394 $515 #
ellipse-curve $-1 0 0 2.7400000000000002 0 0 1 3.25 0 0 1 I I #
point $-1 -3.25 0 2.7400000000000002 #
coedge $-1 $398 $516 $466 $517 forward $91 $-1 #
ellipse-curve $-1 0 0 2.7400000000000002 0 0 1 -3.25 0 0 1 I I #
coedge $-1 $518 $519 $401 $459 forward $520 $-1 #
edge $-1 $490 0 $463 0.37517537102734888 $401 $521 forward 7 unknown #
coedge $-1 $522 $402 $405 $467 forward $462 $-1 #
coedge $-1 $402 $522 $518 $523 reversed $462 $-1 #
loop $-1 $-1 $461 $524 #
vertex $-1 $459 $525 #
straight-curve $-1 0.68653066982674937 -0.069106001094223379 0 5.6232075273222177e-015 -2.1627721258931608e-015 1 I I #
coedge $-1 $511 $404 $526 $527 forward $406 $-1 #
coedge $-1 $405 $511 $456 $517 reversed $406 $-1 #
edge $-1 $407 -1.4187189398203938e-015 $528 2.7982774355541404 $405 $529 forward 7 unknown #
face $-1 $299 $406 $3 $-1 $530 reversed single #
point $-1 0.68653066982674937 -0.06910600109422313 0 #
coedge $-1 $409 $531 $532 $533 reversed $244 $-1 #
coedge $-1 $534 $526 $409 $472 forward $535 $-1 #
edge $-1 $473 5.4221180953800619e-030 $536 0.25666666666666682 $409 $537 forward 7 unknown #
vertex $-1 $527 $538 #
ellipse-curve $-1 0 0 0 0 0 -1 0.68653066982674915 0.069106001094225447 0 1 I I #
face $-1 $539 $540 $3 $-1 $541 reversed single #
loop $-1 $-1 $542 $414 #
plane-surface $-1 -3.0892446353839698 -4.2307286654946274 0.25666666666666682 0 0 1 0.86602540378443871 -0.5 0 forward_v I I I I #
coedge $-1 $543 $544 $545 $546 reversed $415 $-1 #
coedge $-1 $547 $417 $548 $549 reversed $91 $-1 #
coedge $-1 $428 $427 $417 $481 forward $429 $-1 #
edge $-1 $550 0 $482 0.058045984335807613 $417 $551 forward 7 unknown #
vertex $-1 $481 $552 #
straight-curve $-1 2.0856693876038221 -2.4924853471208834 0.7133333333333336 0 0 1 I I #
point $-1 2.0856693876038213 -2.4924853471208825 1.1700000000000002 #
face $-1 $553 $489 $3 $-1 $554 reversed single #
plane-surface $-1 -2.2818087060394721 4.6988752786800312 0.7133333333333336 0 0 -1 0.86602540378443871 0.5 0 forward_v I I I I #
coedge $-1 $548 $425 $519 $555 forward $489 $-1 #
coedge $-1 $425 $548 $427 $492 reversed $489 $-1 #
loop $-1 $-1 $488 $485 #
vertex $-1 $426 $556 #
straight-curve $-1 0.61345500639216599 -0.31586857256205381 0.25666666666666682 0 0 1 I I #
edge $-1 $430 0 $550 2.6482083460145138 $488 $557 forward 7 unknown #
point $-1 0.61345500639216599 -0.31586857256205381 0.7133333333333336 #
straight-curve $-1 0.68653066982675082 -0.069106001094223934 0.7133333333333336 0.50000000000000011 -0.8660254037844386 0 I I #
coedge $-1 $502 $435 $558 $559 reversed $374 $-1 #
coedge $-1 $500 $560 $435 $497 forward $284 $-1 #
edge $-1 $561 -5.46571335200077e-016 $503 1.7480512552329992 $435 $562 forward 7 unknown #
coedge $-1 $563 $440 $436 $499 reversed $244 $-1 #
edge $-1 $504 -2.4011594111840835e-032 $444 0.25666666666666682 $498 $564 forward 7 unknown #
coedge $-1 $442 $496 $437 $501 forward $284 $-1 #
edge $-1 $503 4.8023188223681697e-032 $445 0.25666666666666682 $500 $565 forward 7 unknown #
coedge $-1 $438 $495 $563 $566 reversed $374 $-1 #
vertex $-1 $439 $567 #
vertex $-1 $439 $568 #
straight-curve $-1 -3.2013903229690688 0.56000000000000005 0 1 0 0 I I #
ellipse-curve $-1 8.4376949871511897e-015 -8.0491169285323849e-015 0.25666666666666682 0 0 1 -0.40311288741493634 0.56000000000000805 0 1 I I #
ellipse-curve $-1 -4.0367709175370692e-013 5.8231197641589461e-014 0.25666666666666682 0 0 1 -3.201390322968666 0.55999999999994188 0 1 I I #
point $-1 -0.4031128874149279 0.56000000000000005 0.25666666666666682 #
point $-1 -3.2013903229690697 0.56000000000000005 0.25666666666666682 #
coedge $-1 $569 $451 $570 $571 forward $284 $-1 #
coedge $-1 $466 $465 $451 $512 reversed $406 $-1 #
edge $-1 $513 0 $572 0.87402562761649993 $511 $573 forward 7 unknown #
vertex $-1 $517 $574 #
straight-curve $-1 3.25 0 0 0 0 1 I I #
point $-1 3.25 0 2.7400000000000002 #
coedge $-1 $456 $547 $522 $575 reversed $91 $-1 #
edge $-1 $528 0 $513 0.87402562761649993 $466 $576 forward 7 unknown #
coedge $-1 $577 $458 $461 $523 forward $520 $-1 #
coedge $-1 $458 $577 $487 $555 reversed $520 $-1 #
loop $-1 $-1 $519 $553 #
ellipse-curve $-1 1.4210854715202004e-014 -4.4408920985006262e-015 0.25666666666666682 0 0 1 0.61345500639215178 -0.31586857256204937 0 1 I I #
coedge $-1 $461 $460 $516 $575 forward $462 $-1 #
edge $-1 $463 0 $578 2.7982774355541409 $461 $579 forward 7 unknown #
face $-1 $468 $462 $3 $-1 $580 reversed single #
point $-1 0.68653066982675082 -0.069106001094223934 0.25666666666666682 #
coedge $-1 $471 $570 $465 $527 reversed $535 $-1 #
edge $-1 $473 -1.0610190874769158e-015 $572 2.79827743555414 $465 $581 forward 7 unknown #
vertex $-1 $467 $582 #
straight-curve $-1 0.68653066982675082 -0.069106001094223934 0 0.50000000000000011 -0.8660254037844386 0 I I #
plane-surface $-1 0 0 0 0 0 1 1 0 0 forward_v I I I I #
coedge $-1 $470 $583 $584 $585 reversed $244 $-1 #
coedge $-1 $586 $587 $470 $533 forward $588 $-1 #
edge $-1 $536 -1.2825512781848692e-015 $589 0.37517537102733295 $470 $590 forward 7 unknown #
coedge $-1 $570 $471 $587 $591 forward $535 $-1 #
loop $-1 $-1 $526 $592 #
vertex $-1 $472 $593 #
straight-curve $-1 0.68653066982674926 0.069106001094223865 0 4.3255442517863216e-015 3.7307819171657023e-015 1 I I #
point $-1 0.68653066982674915 0.069106001094225447 0 #
face $-1 $594 $595 $3 $-1 $596 reversed single #
loop $-1 $-1 $597 $475 #
plane-surface $-1 -2.9275865600108744 -4.3240619988279612 0.25666666666666682 -0.86602540378443871 0.5 0 0 0 1 forward_v I I I I #
coedge $-1 $598 $599 $600 $601 reversed $476 $-1 #
coedge $-1 $558 $478 $602 $603 reversed $415 $-1 #
coedge $-1 $478 $558 $560 $604 forward $415 $-1 #
coedge $-1 $599 $598 $478 $546 forward $476 $-1 #
edge $-1 $605 0 $606 2.7982774355541435 $478 $607 forward 7 unknown #
coedge $-1 $516 $479 $577 $608 forward $91 $-1 #
coedge $-1 $488 $487 $479 $549 forward $489 $-1 #
edge $-1 $609 0 $550 0.45666666666666678 $479 $610 forward 7 unknown #
vertex $-1 $549 $611 #
ellipse-curve $-1 8.4066087424616853e-013 -1.0844658504538529e-012 0.7133333333333336 0 0 1 1.937559179398582 -2.6092842747235085 0 1 I I #
point $-1 2.0856693876038213 -2.4924853471208825 0.7133333333333336 #
face $-1 $524 $520 $3 $-1 $612 reversed single #
plane-surface $-1 -2.2818087060394721 4.6988752786800312 0.25666666666666682 0.86602540378443871 0.5 0 0 0 1 forward_v I I I I #
edge $-1 $490 -1.2132742844034883e-015 $609 2.6482083460145125 $519 $613 forward 7 unknown #
point $-1 0.61345500639216599 -0.31586857256205381 0.25666666666666682 #
straight-curve $-1 0.61345500639216599 -0.31586857256205381 0.7133333333333336 0.5 -0.8660254037844386 0 I I #
coedge $-1 $544 $543 $495 $559 forward $415 $-1 #
edge $-1 $614 5.1739213334171944e-016 $561 2.798277435554144 $495 $615 forward 7 unknown #
coedge $-1 $496 $616 $544 $604 reversed $284 $-1 #
vertex $-1 $559 $617 #
ellipse-curve $-1 0 0 0 0 0 1 1.1157209353652473 3.052485347120883 0 1 I I #
coedge $-1 $602 $498 $502 $566 forward $244 $-1 #
straight-curve $-1 -0.40311288741492757 0.55999999999999983 0 -1.2976632755358966e-015 8.6510885035726434e-016 1 I I #
straight-curve $-1 -3.2013903229690688 0.55999999999999994 0 0 4.3255442517863217e-016 1 I I #
edge $-1 $504 0 $614 0.2006436421352247 $502 $618 forward 7 unknown #
point $-1 -3.2013903229690692 0.56000000000000005 0 #
point $-1 -0.4031128874149274 0.56000000000000005 0 #
coedge $-1 $619 $510 $620 $621 forward $284 $-1 #
coedge $-1 $526 $534 $510 $571 reversed $535 $-1 #
edge $-1 $572 1.5367420231578143e-029 $622 0.25666666666666682 $510 $623 forward 7 unknown #
vertex $-1 $512 $624 #
ellipse-curve $-1 0 0 0 0 0 1 3.25 0 0 1 I I #
point $-1 3.25 0 0 #
edge $-1 $528 0 $578 0.25666666666666682 $516 $625 forward 7 unknown #
ellipse-curve $-1 0 0 0 0 0 1 2.0856693876038199 -2.4924853471208825 0 1 I I #
coedge $-1 $519 $518 $547 $608 reversed $520 $-1 #
vertex $-1 $575 $626 #
straight-curve $-1 0.68653066982675082 -0.069106001094223934 0.25666666666666682 0.50000000000000011 -0.8660254037844386 0 I I #
plane-surface $-1 -2.1201506306663767 4.7922086120133649 -0.19999999999999998 0.86602540378443871 0.5 0 0 0 1 forward_v I I I I #
straight-curve $-1 0.68653066982675082 0.069106001094225711 0 0.5 0.86602540378443871 0 I I #
point $-1 2.0856693876038199 -2.4924853471208825 0 #
coedge $-1 $531 $627 $628 $629 forward $244 $-1 #
coedge $-1 $630 $631 $531 $585 forward $632 $-1 #
edge $-1 $589 0 $633 0.45666666666666678 $531 $634 forward 7 unknown #
coedge $-1 $620 $532 $631 $635 forward $588 $-1 #
coedge $-1 $532 $620 $534 $591 reversed $588 $-1 #
loop $-1 $-1 $587 $636 #
vertex $-1 $533 $637 #
ellipse-curve $-1 -9.7699626167013776e-015 -3.5527136788005009e-015 0.25666666666666682 0 0 1 0.68653066982676014 0.069106001094229264 0 1 I I #
edge $-1 $536 -9.9122967947845723e-016 $622 2.7982774355541395 $587 $638 forward 7 unknown #
face $-1 $350 $535 $3 $-1 $639 reversed single #
point $-1 0.68653066982675037 0.069106001094224823 0.25666666666666682 #
face $-1 $640 $641 $3 $-1 $642 reversed single #
loop $-1 $-1 $643 $539 #
plane-surface $-1 -2.9275865600108744 -4.3240619988279612 0.7133333333333336 0 0 -1 -0.86602540378443871 0.5 0 forward_v I I I I #
coedge $-1 $644 $645 $646 $647 reversed $540 $-1 #
coedge $-1 $545 $542 $648 $649 forward $476 $-1 #
coedge $-1 $542 $545 $616 $650 reversed $476 $-1 #
coedge $-1 $645 $644 $542 $601 forward $540 $-1 #
edge $-1 $651 0 $652 2.6482083460145143 $542 $653 forward 7 unknown #
coedge $-1 $648 $563 $543 $603 forward $244 $-1 #
edge $-1 $614 -1.2846202849834853e-030 $605 0.25666666666666682 $602 $654 forward 7 unknown #
edge $-1 $561 1.1525565173683609e-029 $606 0.25666666666666682 $560 $655 forward 7 unknown #
vertex $-1 $649 $656 #
vertex $-1 $604 $657 #
straight-curve $-1 -0.28341778241182203 0.62910600109422266 0.25666666666666682 0.49999999999999983 0.8660254037844386 0 I I #
edge $-1 $609 0 $578 0.058045984335795664 $547 $658 forward 7 unknown #
vertex $-1 $608 $659 #
straight-curve $-1 1.9375591793994227 -2.609284274724593 0.25666666666666682 0 0 1 I I #
point $-1 1.9375591793994227 -2.609284274724593 0.7133333333333336 #
plane-surface $-1 -2.1201506306663767 4.7922086120133649 0.25666666666666682 0 0 1 -0.86602540378443871 -0.5 0 forward_v I I I I #
straight-curve $-1 0.61345500639216688 -0.31586857256205469 0.25666666666666682 0.49999999999999983 -0.8660254037844386 0 I I #
vertex $-1 $566 $660 #
straight-curve $-1 -0.28341778241182247 0.62910600109422177 0 0.49999999999999994 0.86602540378443871 0 I I #
coedge $-1 $560 $661 $599 $650 forward $284 $-1 #
point $-1 1.1157209353652493 3.052485347120883 0 #
ellipse-curve $-1 0 0 0 0 0 -1 -0.4031128874149274 0.56000000000000005 0 1 I I #
coedge $-1 $662 $569 $663 $664 forward $284 $-1 #
coedge $-1 $587 $586 $569 $621 reversed $588 $-1 #
edge $-1 $622 0 $665 0.058045984335791827 $569 $666 forward 7 unknown #
vertex $-1 $621 $667 #
straight-curve $-1 2.0856693876038195 2.492485347120883 0 8.6510885035726432e-015 8.6510885035726432e-015 1 I I #
point $-1 2.0856693876038208 2.4924853471208834 0 #
straight-curve $-1 2.0856693876038199 -2.4924853471208825 0 8.6510885035726432e-015 -3.4604354014290573e-015 1 I I #
point $-1 2.0856693876038213 -2.4924853471208825 0.25666666666666682 #
coedge $-1 $583 $668 $669 $670 reversed $244 $-1 #
coedge $-1 $671 $672 $583 $629 reversed $673 $-1 #
edge $-1 $674 0 $633 0.37517537102733678 $583 $675 forward 7 unknown #
coedge $-1 $663 $584 $672 $676 forward $632 $-1 #
coedge $-1 $584 $663 $586 $635 reversed $632 $-1 #
loop $-1 $-1 $631 $677 #
vertex $-1 $585 $678 #
straight-curve $-1 0.61345500639216555 0.31586857256205381 0.25666666666666682 0 0 1 I I #
edge $-1 $589 0 $665 2.6482083460145134 $631 $679 forward 7 unknown #
face $-1 $592 $588 $3 $-1 $680 reversed single #
point $-1 0.61345500639216555 0.31586857256205381 0.25666666666666682 #
straight-curve $-1 0.68653066982675082 0.069106001094225711 0.25666666666666682 0.49999999999999994 0.8660254037844386 0 I I #
plane-surface $-1 -2.1192961831453982 -4.7907286654946271 0.25666666666666682 0.86602540378443871 -0.5 0 0 0 -1 forward_v I I I I #
face $-1 $681 $682 $3 $-1 $683 reversed single #
loop $-1 $-1 $684 $594 #
plane-surface $-1 -3.0892446353839698 -4.2307286654946274 0.7133333333333336 -0.86602540378443871 0.5 0 0 0 1 forward_v I I I I #
coedge $-1 $685 $686 $687 $688 reversed $595 $-1 #
coedge $-1 $600 $597 $689 $690 reversed $540 $-1 #
coedge $-1 $597 $600 $661 $691 forward $540 $-1 #
coedge $-1 $686 $685 $597 $647 forward $595 $-1 #
edge $-1 $692 0 $693 2.6482083460145147 $597 $694 forward 7 unknown #
coedge $-1 $689 $602 $598 $649 reversed $244 $-1 #
edge $-1 $651 0 $605 0.37517537102734533 $648 $695 forward 7 unknown #
edge $-1 $652 0 $606 0.058045984335772953 $616 $696 forward 7 unknown #
vertex $-1 $690 $697 #
vertex $-1 $650 $698 #
straight-curve $-1 -0.033177295100215609 0.68920190589538599 0.25666666666666682 0.50000000000000022 0.8660254037844386 0 I I #
straight-curve $-1 -0.28341778241182297 0.62910600109422299 0 3.6767126140183731e-015 -1.2976632755358966e-015 1 I I #
straight-curve $-1 1.1157209353652489 3.0524853471208822 0 5.1906531021435862e-015 1.0381306204287172e-014 1 I I #
point $-1 -0.28341778241182203 0.62910600109422266 0.25666666666666682 #
point $-1 1.1157209353652493 3.052485347120883 0.25666666666666682 #
ellipse-curve $-1 4.2454928461665986e-013 -5.5777604757167865e-013 0.25666666666666682 0 0 1 1.9375591793989981 -2.6092842747240352 0 1 I I #
point $-1 1.9375591793994227 -2.609284274724593 0.25666666666666682 #
point $-1 -0.28341778241182336 0.62910600109422288 0 #
coedge $-1 $616 $699 $645 $691 reversed $284 $-1 #
coedge $-1 $700 $619 $701 $702 reversed $284 $-1 #
coedge $-1 $631 $630 $619 $664 reversed $632 $-1 #
edge $-1 $665 0 $703 0.45666666666666678 $619 $704 forward 7 unknown #
vertex $-1 $664 $705 #
ellipse-curve $-1 3.1041835768519377e-013 3.7836400679225335e-013 0.25666666666666682 0 0 1 2.0856693876035104 2.4924853471205042 0 1 I I #
point $-1 2.0856693876038208 2.4924853471208825 0.25666666666666682 #
coedge $-1 $627 $706 $707 $708 reversed $244 $-1 #
coedge $-1 $709 $710 $627 $670 forward $711 $-1 #
edge $-1 $674 0 $712 0.45666666666666655 $627 $713 forward 7 unknown #
coedge $-1 $701 $628 $710 $714 forward $673 $-1 #
coedge $-1 $628 $701 $630 $676 reversed $673 $-1 #
loop $-1 $-1 $672 $715 #
vertex $-1 $629 $716 #
ellipse-curve $-1 -5.773159728050814e-015 0 0.7133333333333336 0 0 1 0.68653066982675615 0.069106001094224823 0 1 I I #
edge $-1 $633 -2.2204460492503141e-016 $703 2.6482083460145129 $672 $717 forward 7 unknown #
face $-1 $636 $632 $3 $-1 $718 reversed single #
point $-1 0.61345500639216555 0.31586857256205381 0.7133333333333336 #
straight-curve $-1 0.61345500639216555 0.31586857256205381 0.25666666666666682 0.49999999999999989 0.86602540378443871 0 I I #
plane-surface $-1 -2.2809542585184936 -4.6973953321612942 0.25666666666666682 0 0 1 0.86602540378443871 -0.5 0 forward_v I I I I #
face $-1 $715 $711 $3 $-1 $719 reversed single #
loop $-1 $-1 $720 $640 #
plane-surface $-1 -3.0892446353839698 -4.2307286654946274 1.1700000000000002 0 0 1 0.86602540378443871 -0.5 0 forward_v I I I I #
coedge $-1 $721 $722 $723 $724 reversed $641 $-1 #
coedge $-1 $646 $643 $725 $726 reversed $595 $-1 #
coedge $-1 $643 $646 $699 $727 forward $595 $-1 #
coedge $-1 $722 $721 $643 $688 forward $641 $-1 #
edge $-1 $728 -9.9122967947845703e-016 $729 2.7982774355541435 $643 $730 forward 7 unknown #
coedge $-1 $725 $648 $644 $690 forward $244 $-1 #
edge $-1 $651 0 $692 0.45666666666666678 $689 $731 forward 7 unknown #
edge $-1 $652 0 $693 0.45666666666666678 $661 $732 forward 7 unknown #
vertex $-1 $726 $733 #
vertex $-1 $691 $734 #
straight-curve $-1 -0.033177295100215609 0.68920190589538599 0.7133333333333336 0.5 0.8660254037844386 0 I I #
ellipse-curve $-1 -4.4408920985006262e-016 5.3290705182007514e-015 0.25666666666666682 0 0 1 -0.033177295100215165 0.68920190589538066 0 1 I I #
ellipse-curve $-1 -2.0916601783937949e-013 -5.3645976549887564e-013 0.25666666666666682 0 0 1 1.2909268779072507 2.9826176080584625 0 1 I I #
point $-1 -0.033177295100215609 0.68920190589538599 0.25666666666666682 #
point $-1 1.2909268779070415 2.9826176080579261 0.25666666666666682 #
coedge $-1 $661 $735 $686 $727 reversed $284 $-1 #
coedge $-1 $736 $662 $737 $738 forward $284 $-1 #
coedge $-1 $672 $671 $662 $702 forward $673 $-1 #
edge $-1 $739 0 $703 0.058045984335801042 $662 $740 forward 7 unknown #
vertex $-1 $702 $741 #
straight-curve $-1 1.9375591793994222 2.609284274724593 0.25666666666666682 0 0 1 I I #
point $-1 1.9375591793994222 2.609284274724593 0.25666666666666682 #
coedge $-1 $668 $725 $721 $742 forward $244 $-1 #
coedge $-1 $723 $720 $668 $708 forward $682 $-1 #
edge $-1 $712 1.2825512781849157e-015 $743 1.8937514602579748 $668 $744 forward 7 unknown #
coedge $-1 $737 $669 $720 $745 forward $711 $-1 #
coedge $-1 $669 $737 $671 $714 reversed $711 $-1 #
loop $-1 $-1 $710 $681 #
vertex $-1 $670 $746 #
straight-curve $-1 0.68653066982675037 0.069106001094224823 0.7133333333333336 0 0 1 I I #
edge $-1 $674 0 $739 2.7982774355541413 $710 $747 forward 7 unknown #
face $-1 $677 $673 $3 $-1 $748 reversed single #
point $-1 0.68653066982675037 0.069106001094224823 0.7133333333333336 #
straight-curve $-1 0.61345500639216599 0.31586857256205381 0.7133333333333336 0.5 0.8660254037844386 0 I I #
plane-surface $-1 -2.2809542585184936 -4.6973953321612942 0.7133333333333336 0.86602540378443871 -0.5 0 0 0 -1 forward_v I I I I #
plane-surface $-1 -2.1192961831453982 -4.7907286654946271 1.1700000000000002 0.86602540378443871 -0.5 0 0 0 -1 forward_v I I I I #
coedge $-1 $707 $749 $709 $745 reversed $682 $-1 #
coedge $-1 $687 $684 $706 $742 reversed $641 $-1 #
coedge $-1 $684 $687 $735 $750 forward $641 $-1 #
coedge $-1 $749 $707 $684 $724 forward $682 $-1 #
edge $-1 $743 0 $751 2.7982774355541435 $684 $752 forward 7 unknown #
coedge $-1 $706 $689 $685 $726 forward $244 $-1 #
edge $-1 $692 0 $728 0.37517537102736093 $725 $753 forward 7 unknown #
edge $-1 $693 0 $729 0.058045984335772953 $699 $754 forward 7 unknown #
vertex $-1 $742 $755 #
vertex $-1 $727 $756 #
straight-curve $-1 -0.28341778241182203 0.62910600109422266 0.7133333333333336 0.49999999999999983 0.8660254037844386 0 I I #
straight-curve $-1 -0.033177295100215609 0.68920190589538599 0.25666666666666682 0 0 1 I I #
straight-curve $-1 1.2909268779070415 2.9826176080579261 0.25666666666666682 0 0 1 I I #
point $-1 -0.033177295100215609 0.68920190589538599 0.7133333333333336 #
point $-1 1.2909268779070415 2.9826176080579261 0.7133333333333336 #
coedge $-1 $699 $736 $722 $750 reversed $284 $-1 #
coedge $-1 $735 $700 $749 $757 reversed $284 $-1 #
coedge $-1 $710 $709 $700 $738 reversed $711 $-1 #
edge $-1 $739 0 $758 0.45666666666666655 $700 $759 forward 7 unknown #
vertex $-1 $738 $760 #
ellipse-curve $-1 6.4304117586289067e-013 7.8959061511341133e-013 0.7133333333333336 0 0 1 2.0856693876031778 2.4924853471200938 0 1 I I #
point $-1 1.9375591793994218 2.6092842747245921 0.7133333333333336 #
edge $-1 $728 0 $743 0.45666666666666655 $706 $761 forward 7 unknown #
vertex $-1 $708 $762 #
ellipse-curve $-1 2.2204460492503131e-015 1.7763568394002505e-015 1.1700000000000002 0 0 1 0.68653066982674815 0.069106001094222158 0 1 I I #
edge $-1 $712 -2.2204460492503136e-016 $758 2.7982774355541404 $720 $763 forward 7 unknown #
point $-1 0.68653066982675037 0.069106001094224823 1.1700000000000002 #
straight-curve $-1 0.68653066982675037 0.069106001094224823 0.7133333333333336 0.49999999999999994 0.86602540378443871 0 I I #
plane-surface $-1 -2.1192961831453982 -4.7907286654946271 0.7133333333333336 0 0 -1 -0.86602540378443871 0.5 0 forward_v I I I I #
coedge $-1 $720 $723 $736 $757 forward $682 $-1 #
edge $-1 $729 0 $751 0.45666666666666655 $735 $764 forward 7 unknown #
vertex $-1 $750 $765 #
straight-curve $-1 -0.28341778241182203 0.62910600109422266 1.1700000000000002 0.49999999999999983 0.8660254037844386 0 I I #
ellipse-curve $-1 -7.9936057773011271e-015 3.1086244689504383e-014 0.7133333333333336 0 0 1 -0.033177295100207616 0.6892019058953549 0 1 I I #
ellipse-curve $-1 -2.0916601783937949e-013 -5.3645976549887564e-013 0.7133333333333336 0 0 1 1.2909268779072507 2.9826176080584625 0 1 I I #
point $-1 -0.28341778241182247 0.62910600109422177 0.7133333333333336 #
point $-1 1.1157209353652493 3.052485347120883 0.7133333333333336 #
edge $-1 $751 4.2043948861544787e-016 $758 0.34634384716019723 $736 $766 forward 7 unknown #
vertex $-1 $757 $767 #
straight-curve $-1 2.0856693876038217 2.4924853471208852 0.7133333333333336 0 0 1 I I #
point $-1 2.0856693876038208 2.4924853471208834 0.7133333333333336 #
straight-curve $-1 -0.28341778241182203 0.62910600109422266 0.7133333333333336 0 0 1 I I #
point $-1 -0.28341778241182203 0.62910600109422266 1.1700000000000002 #
straight-curve $-1 0.68653066982675082 0.069106001094224823 1.1700000000000002 0.49999999999999994 0.8660254037844386 0 I I #
straight-curve $-1 1.1157209353652502 3.0524853471208848 0.7133333333333336 0 0 1 I I #
point $-1 1.1157209353652493 3.052485347120883 1.1700000000000002 #
ellipse-curve $-1 8.8817841970012523e-015 1.3322676295501878e-014 1.1700000000000002 0 0 -1 1.1157209353652389 3.0524853471208693 0 1 I I #
point $-1 2.085669387603819 2.4924853471208834 1.1700000000000002 #
End-of-ACIS-data 