600 0 1 0           
109 GICL ACIS Healer - Source: /gicl/data5/repository/PTC/V20/web_demos/models/multi_axis/multi_pin.prt.sat - 6 0 18 ACIS 6.0.3 Solaris 24 Sat Apr 13 20:47:54 2002 
1 9.999999999999999547e-07 1.000000000000000036e-10 
body $-1 $1 $-1 $-1 #
lump $-1 $-1 $2 $0 #
shell $-1 $-1 $-1 $3 $-1 $1 #
face $-1 $4 $5 $2 $-1 $6 reversed single #
face $-1 $7 $8 $2 $-1 $9 forward single #
loop $-1 $-1 $10 $3 #
plane-surface $-1 0 0 0 0 1 0 25.39999999999999858 0 0 forward_v I I I I #
face $-1 $11 $12 $2 $-1 $13 forward single #
loop $-1 $-1 $14 $4 #
cone-surface $-1 0 0 0 0 1 0 3.174999999999999822 0 0 1 I I 0 1 3.174999999999999822 forward I I I I #
coedge $-1 $15 $15 $16 $17 reversed $5 $-1 #
face $-1 $18 $19 $2 $-1 $20 forward single #
loop $-1 $-1 $21 $7 #
cone-surface $-1 0 0 0 0 1 0 3.174999999999999822 0 0 1 I I 0 1 3.174999999999999822 forward I I I I #
coedge $-1 $22 $16 $23 $24 forward $8 $-1 #
coedge $-1 $10 $10 $25 $26 reversed $5 $-1 #
coedge $-1 $14 $27 $10 $17 forward $8 $-1 #
edge $-1 $28 0 $29 3.141592653589793116 $10 $30 forward 7 unknown #
face $-1 $31 $32 $2 $-1 $33 forward single #
loop $-1 $-1 $34 $11 #
torus-surface $-1 0 6.095999999999999197 0 0 1 0 2.920999999999999819 0.2540000000000000036 1 0 0 forward_v I I I I #
coedge $-1 $35 $25 $27 $36 forward $12 $-1 #
coedge $-1 $27 $14 $37 $38 reversed $8 $-1 #
coedge $-1 $25 $35 $14 $24 reversed $12 $-1 #
edge $-1 $29 0 $39 0.2399999999999999911 $23 $40 forward 7 unknown #
coedge $-1 $21 $23 $15 $26 forward $12 $-1 #
edge $-1 $29 0 $28 3.141592653589793116 $15 $41 forward 7 unknown #
coedge $-1 $16 $22 $21 $36 reversed $8 $-1 #
vertex $-1 $26 $42 #
vertex $-1 $26 $43 #
ellipse-curve $-1 0 0 0 0 1 0 -3.174999999999999822 0 0 1 I I #
face $-1 $44 $45 $2 $-1 $46 forward single #
loop $-1 $-1 $47 $18 #
torus-surface $-1 0 6.095999999999999197 0 0 1 0 2.920999999999999819 0.2540000000000000036 1 0 0 forward_v I I I I #
coedge $-1 $48 $49 $50 $51 forward $19 $-1 #
coedge $-1 $23 $21 $48 $52 reversed $12 $-1 #
edge $-1 $28 0 $53 0.2399999999999999911 $21 $54 forward 7 unknown #
coedge $-1 $50 $47 $22 $38 forward $32 $-1 #
edge $-1 $53 0 $39 3.141592653589793116 $22 $55 forward 7 unknown #
vertex $-1 $24 $56 #
straight-curve $-1 3.174999999999999822 0 0 0 25.39999999999999858 0 I I #
ellipse-curve $-1 0 0 0 0 1 0 3.174999999999999822 0 0 1 I I #
point $-1 -3.174999999999999822 0 0 #
point $-1 3.174999999999999822 0 0 #
face $-1 $57 $58 $2 $-1 $59 forward single #
loop $-1 $60 $61 $31 #
plane-surface $-1 0 6.349999999999999645 0 0 1 0 25.39999999999999858 0 0 forward_v I I I I #
coedge $-1 $37 $62 $63 $64 forward $32 $-1 #
coedge $-1 $63 $34 $35 $52 forward $19 $-1 #
coedge $-1 $34 $63 $65 $66 reversed $19 $-1 #
coedge $-1 $62 $37 $34 $51 reversed $32 $-1 #
edge $-1 $67 0 $39 1.570796326794900111 $50 $68 forward 7 unknown #
edge $-1 $39 0 $53 3.141592653589793116 $35 $69 forward 7 unknown #
vertex $-1 $52 $70 #
straight-curve $-1 -3.174999999999999822 0 -3.888125173386047696e-16 0 25.39999999999999858 0 I I #
ellipse-curve $-1 0 6.095999999999999197 0 0 1 0 -3.174999999999999822 0 -3.888125173386047696e-16 1 I I #
point $-1 3.174999999999999822 6.095999999999999197 0 #
face $-1 $71 $72 $2 $-1 $73 forward single #
loop $-1 $-1 $74 $44 #
cone-surface $-1 0 2.222397701499998934 1.269999999999999796 0 1 0 1.269999999999999796 0 0 1 I I 0 1 1.269999999999999796 forward I I I I #
loop $-1 $-1 $75 $31 #
coedge $-1 $65 $65 $62 $76 forward $45 $-1 #
coedge $-1 $47 $50 $61 $76 reversed $32 $-1 #
coedge $-1 $49 $48 $47 $64 reversed $19 $-1 #
edge $-1 $77 9.805442462758034547e-48 $53 1.570796326794900111 $47 $78 forward 7 unknown #
coedge $-1 $61 $61 $49 $66 forward $45 $-1 #
edge $-1 $67 0 $77 3.141592653589793116 $65 $79 forward 7 unknown #
vertex $-1 $66 $80 #
ellipse-curve $-1 2.920999999999999819 6.096000000000000085 0 0 0 -1 0 0.253999999999999504 0 1 I I #
ellipse-curve $-1 0 6.095999999999999197 0 0 1 0 3.174999999999999822 0 0 1 I I #
point $-1 -3.174999999999999822 6.095999999999999197 -3.888125173386047696e-16 #
face $-1 $81 $82 $2 $-1 $83 forward single #
loop $-1 $-1 $84 $57 #
torus-surface $-1 0 9.270999999999999019 1.269999999999999796 0 1 0 1.016000000000000014 0.2540000000000000036 1 0 0 forward_v I I I I #
coedge $-1 $85 $86 $87 $88 forward $58 $-1 #
coedge $-1 $89 $90 $91 $92 reversed $60 $-1 #
edge $-1 $77 -1.155705906017264039e-32 $67 3.141592653589793116 $61 $93 forward 7 unknown #
vertex $-1 $66 $94 #
ellipse-curve $-1 -2.920999999999999819 6.096000000000000085 -3.577075159515163348e-16 -1.224606353822377751e-16 3.081487911019583058e-31 1 0 0.253999999999999504 -7.826979293989726069e-32 1 I I #
ellipse-curve $-1 -1.762479051592435909e-16 6.349999999999999645 8.812395257962179547e-17 0 1 0 2.921000000000000263 0 -8.812395257962179547e-17 1 I I #
point $-1 2.920999999999999819 6.349999999999999645 0 #
face $-1 $95 $96 $2 $-1 $97 forward single #
loop $-1 $-1 $98 $71 #
cone-surface $-1 -1.016000000000000014 9.270999999999999019 -1.269999999999999796 0 0 1 0 0.2540000000000000036 0 1 I I 0 1 0.2540000000000000036 forward I I I I #
coedge $-1 $87 $99 $100 $101 forward $72 $-1 #
coedge $-1 $91 $74 $102 $103 reversed $58 $-1 #
coedge $-1 $74 $91 $104 $105 forward $58 $-1 #
coedge $-1 $106 $84 $74 $88 reversed $72 $-1 #
edge $-1 $107 0 $108 3.141592653589793116 $74 $109 forward 7 unknown #
coedge $-1 $110 $75 $111 $112 reversed $60 $-1 #
coedge $-1 $75 $110 $113 $114 reversed $60 $-1 #
coedge $-1 $86 $85 $75 $92 forward $58 $-1 #
edge $-1 $115 -1.081811805491049117e-16 $116 3.141592653589794004 $75 $117 forward 7 unknown #
ellipse-curve $-1 1.762479051592435909e-16 6.349999999999999645 -8.812395257962179547e-17 0 1 0 -2.921000000000000263 0 -2.695835633718946133e-16 1 I I #
point $-1 -2.920999999999999819 6.349999999999999645 -3.577075159515164334e-16 #
face $-1 $118 $119 $2 $-1 $120 forward single #
loop $-1 $-1 $121 $81 #
torus-surface $-1 0 9.270999999999999019 -1.269999999999999796 0 -1 0 1.016000000000000014 0.2540000000000000036 1 0 0 forward_v I I I I #
coedge $-1 $122 $123 $124 $125 forward $82 $-1 #
coedge $-1 $84 $106 $126 $127 forward $72 $-1 #
coedge $-1 $123 $122 $84 $101 reversed $82 $-1 #
edge $-1 $128 -1.803019675818435369e-16 $108 1.57079632679490433 $84 $129 forward 7 unknown #
coedge $-1 $130 $111 $85 $103 forward $131 $-1 #
edge $-1 $115 3.496765431890256772e-17 $108 0.1149999999999999495 $102 $132 forward 7 unknown #
coedge $-1 $113 $133 $86 $105 reversed $134 $-1 #
edge $-1 $116 3.496765431890256772e-17 $107 0.1149999999999999495 $104 $135 forward 7 unknown #
coedge $-1 $99 $87 $136 $137 reversed $72 $-1 #
vertex $-1 $105 $138 #
vertex $-1 $139 $140 #
ellipse-curve $-1 0 9.270999999999999019 1.269999999999999796 0 -1 0 1.270000000000000018 0 0 1 I I #
coedge $-1 $90 $89 $141 $142 reversed $60 $-1 #
coedge $-1 $102 $143 $89 $112 forward $131 $-1 #
edge $-1 $144 -8.741913579725641929e-18 $115 0.09999999999999999167 $89 $145 forward 7 unknown #
coedge $-1 $146 $104 $90 $114 forward $134 $-1 #
edge $-1 $116 0 $147 0.09999999999999999167 $90 $148 forward 7 unknown #
vertex $-1 $112 $149 #
vertex $-1 $114 $150 #
ellipse-curve $-1 0 6.349999999999999645 1.270000000000000462 0 1 0 -1.269999999999999796 0 -5.287437154777307235e-16 1 I I #
face $-1 $151 $134 $2 $-1 $152 forward single #
loop $-1 $-1 $136 $95 #
cone-surface $-1 1.016000000000000014 9.270999999999999019 1.269999999999999796 0 0 -1 0 0.2540000000000000036 0 1 I I 0 1 0.2540000000000000036 forward I I I I #
coedge $-1 $153 $154 $155 $156 forward $96 $-1 #
coedge $-1 $100 $98 $130 $139 forward $82 $-1 #
coedge $-1 $98 $100 $157 $158 reversed $82 $-1 #
coedge $-1 $154 $153 $98 $125 reversed $96 $-1 #
edge $-1 $159 0 $160 1.570796326794896558 $124 $161 forward 7 unknown #
coedge $-1 $162 $157 $99 $127 reversed $163 $-1 #
edge $-1 $164 -4.507549189546036036e-17 $128 3.141592653589793116 $126 $165 forward 7 unknown #
vertex $-1 $127 $166 #
ellipse-curve $-1 -1.016000000000000236 9.270999999999999019 1.269999999999999796 0 0 1 1.762479051592435909e-16 0.2540000000000002256 0 1 I I #
coedge $-1 $143 $102 $122 $139 reversed $131 $-1 #
loop $-1 $-1 $111 $167 #
straight-curve $-1 -1.269999999999999796 6.349999999999998757 1.270000000000000018 0 25.39999999999999858 0 I I #
coedge $-1 $104 $146 $168 $169 reversed $134 $-1 #
loop $-1 $-1 $133 $118 #
straight-curve $-1 1.269999999999999796 6.349999999999998757 1.269999999999999796 0 25.39999999999999858 0 I I #
coedge $-1 $168 $170 $106 $137 forward $119 $-1 #
edge $-1 $164 0 $107 1.570796326794903663 $136 $171 forward 7 unknown #
point $-1 1.269999999999999796 9.270999999999997243 1.269999999999999796 #
edge $-1 $160 -8.741913579725641929e-18 $108 0.1000000000000000056 $130 $172 forward 7 unknown #
point $-1 -1.269999999999999796 9.270999999999997243 1.270000000000000018 #
coedge $-1 $173 $174 $110 $142 forward $175 $-1 #
edge $-1 $147 -1.081811805491048254e-16 $144 3.14159265358979356 $110 $176 forward 7 unknown #
coedge $-1 $111 $130 $173 $177 forward $131 $-1 #
vertex $-1 $142 $178 #
straight-curve $-1 -1.269999999999999796 6.349999999999999645 -1.269999999999999796 0 0 25.39999999999999858 I I #
coedge $-1 $133 $113 $174 $179 reversed $134 $-1 #
vertex $-1 $114 $180 #
straight-curve $-1 1.269999999999999796 6.349999999999999645 1.269999999999999796 0 0 -25.39999999999999858 I I #
point $-1 -1.269999999999999796 6.349999999999999645 1.269999999999999796 #
point $-1 1.269999999999999796 6.349999999999999645 1.269999999999999796 #
face $-1 $167 $175 $2 $-1 $181 forward single #
plane-surface $-1 1.269999999999999796 6.349999999999999645 2.539999999999999591 1 0 0 0 0 -25.39999999999999858 forward_v I I I I #
coedge $-1 $124 $121 $182 $183 reversed $96 $-1 #
coedge $-1 $121 $124 $184 $185 forward $96 $-1 #
coedge $-1 $170 $168 $121 $156 reversed $119 $-1 #
edge $-1 $186 5.682243826821825858e-16 $187 1.570796326794891007 $121 $188 forward 7 unknown #
coedge $-1 $126 $184 $123 $158 forward $163 $-1 #
edge $-1 $159 -8.741913579725641929e-18 $128 0.1000000000000000056 $157 $189 forward 7 unknown #
vertex $-1 $185 $190 #
vertex $-1 $177 $191 #
ellipse-curve $-1 -1.016000000000000014 9.270999999999999019 -1.269999999999999796 0 0 1 0 0.2540000000000002256 0 1 I I #
coedge $-1 $184 $126 $170 $192 forward $163 $-1 #
loop $-1 $-1 $157 $193 #
vertex $-1 $192 $194 #
ellipse-curve $-1 2.643718577388653617e-16 9.524999999999998579 1.270000000000000018 0 -1 0 1.015999999999999792 0 -1.762479051592435909e-16 1 I I #
point $-1 -1.016000000000000014 9.524999999999998579 1.270000000000000018 #
face $-1 $193 $131 $2 $-1 $195 forward single #
coedge $-1 $155 $136 $133 $169 forward $119 $-1 #
edge $-1 $107 7.764378988395785926e-32 $187 0.09999999999999999167 $133 $196 forward 7 unknown #
coedge $-1 $136 $155 $162 $192 reversed $119 $-1 #
ellipse-curve $-1 1.016000000000000014 9.270999999999999019 1.269999999999999796 0 0 -1 0 0.2540000000000002256 0 1 I I #
straight-curve $-1 -1.269999999999999796 9.270999999999999019 -1.269999999999999796 0 1.409983241273948806e-14 25.39999999999999858 I I #
coedge $-1 $182 $141 $143 $177 reversed $175 $-1 #
coedge $-1 $141 $182 $146 $179 forward $175 $-1 #
loop $-1 $-1 $141 $151 #
ellipse-curve $-1 8.812395257962179547e-17 6.349999999999999645 -1.270000000000000462 0 1 0 1.269999999999999574 0 5.287437154777307235e-16 1 I I #
edge $-1 $160 0 $144 0.1149999999999999079 $143 $197 forward 7 unknown #
point $-1 -1.269999999999999796 6.350000000000001421 -1.270000000000000018 #
edge $-1 $187 0 $147 0.1149999999999999772 $146 $198 forward 7 unknown #
point $-1 1.269999999999999796 6.349999999999999645 -1.269999999999999796 #
cone-surface $-1 0 13.65267716634010853 -1.269999999999999796 0 -1 0 1.269999999999999796 0 0 1 I I 0 1 1.269999999999999796 forward I I I I #
coedge $-1 $174 $173 $153 $183 forward $175 $-1 #
edge $-1 $160 3.606039351636830185e-17 $187 3.141592653589793116 $182 $199 forward 7 unknown #
coedge $-1 $157 $162 $154 $185 reversed $163 $-1 #
edge $-1 $159 0 $186 3.141592653589793116 $184 $200 forward 7 unknown #
vertex $-1 $185 $201 #
vertex $-1 $179 $202 #
ellipse-curve $-1 1.01599999999999846 9.270999999999999019 -1.269999999999999796 0 0 -1 1.409983241273948727e-15 0.2540000000000002256 0 1 I I #
straight-curve $-1 -1.016000000000000014 9.524999999999998579 -1.269999999999999796 0 0 25.39999999999999858 I I #
point $-1 -1.016000000000000014 9.524999999999998579 -1.270000000000000018 #
point $-1 -1.269999999999999796 9.270999999999999019 -1.270000000000000018 #
edge $-1 $164 0 $186 0.09999999999999999167 $162 $203 forward 7 unknown #
face $-1 $-1 $163 $2 $-1 $204 forward single #
point $-1 1.016000000000000014 9.524999999999998579 1.269999999999999796 #
plane-surface $-1 -1.269999999999999796 6.349999999999999645 -2.539999999999999591 -1 0 0 0 0 25.39999999999999858 forward_v I I I I #
straight-curve $-1 1.269999999999999796 9.271000000000000796 1.269999999999999796 0 -1.409983241273948806e-14 -25.39999999999999858 I I #
straight-curve $-1 -1.269999999999999796 9.270999999999999019 -1.270000000000000018 0 -25.39999999999999858 0 I I #
straight-curve $-1 1.269999999999999796 9.270999999999999019 -1.270000000000000018 0 -25.39999999999999858 0 I I #
ellipse-curve $-1 0 9.270999999999999019 -1.269999999999999796 0 -1 0 -1.270000000000000018 0 -1.762479051592435909e-16 1 I I #
ellipse-curve $-1 1.321859288694326809e-16 9.524999999999998579 -1.270000000000000018 0 -1 0 -1.016000000000000236 0 0 1 I I #
point $-1 1.016000000000000014 9.524999999999998579 -1.269999999999999796 #
point $-1 1.269999999999999796 9.270999999999999019 -1.269999999999999796 #
straight-curve $-1 1.016000000000000014 9.524999999999998579 1.269999999999999796 0 0 -25.39999999999999858 I I #
plane-surface $-1 0 9.524999999999998579 0 0 1 0 25.39999999999999858 0 0 forward_v I I I I #
End-of-ACIS-data 