600 0 1 0           
112 GICL Pro/E ACIS Translator - Source: f:/data5/repository/PTC/V20/web_demos/models/multi_axis/multi_tj6.prt - 6 0 13 ACIS 6.0.3 NT 24 Thu Apr 04 13:09:06 2002 
1 9.9999999999999995e-007 1e-010 
body $-1 $1 $-1 $2 #
lump $-1 $-1 $3 $0 #
transform $-1 1 0 0 0 1 0 0 0 1 0 0 0 25.399999999999999 no_rotate no_reflect no_shear #
shell $-1 $-1 $-1 $4 $-1 $1 #
face $-1 $5 $6 $3 $-1 $7 forward single #
face $-1 $8 $9 $3 $-1 $10 reversed single #
loop $-1 $-1 $11 $4 #
plane-surface $-1 0 0 0.56000000000000005 0 -1 0 0 0 -1 forward_v I I I I #
face $-1 $12 $13 $3 $-1 $14 reversed single #
loop $-1 $-1 $15 $5 #
plane-surface $-1 0 -0.26900000000000013 -0.18666666666666676 0.86602540378443882 0 0.49999999999999989 0.5 0 -0.86602540378443904 forward_v I I I I #
coedge $-1 $16 $17 $18 $19 forward $6 $-1 #
face $-1 $20 $21 $3 $-1 $22 reversed single #
loop $-1 $-1 $23 $8 #
cone-surface $-1 -0.32344444444444409 -0.26900000000000013 0 0 1 0 0.37344444444444413 0 0 1 I I 0 1 0.37344444444444413 forward I I I I #
coedge $-1 $24 $18 $23 $25 forward $9 $-1 #
coedge $-1 $26 $11 $27 $28 forward $6 $-1 #
coedge $-1 $11 $29 $30 $31 forward $6 $-1 #
coedge $-1 $15 $32 $11 $19 reversed $9 $-1 #
edge $-1 $33 0 $34 0.43108820099492046 $11 $35 forward 7 unknown #
face $-1 $36 $37 $3 $-1 $38 reversed single #
loop $-1 $-1 $39 $12 #
plane-surface $-1 2.8820000000000001 0.17000000000000001 -0.1575 0 0 -1 0 -1 0 forward_v I I I I #
coedge $-1 $30 $40 $15 $25 reversed $13 $-1 #
coedge $-1 $32 $15 $41 $42 forward $9 $-1 #
edge $-1 $33 0 $43 1.3700000000000001 $23 $44 forward 7 unknown #
coedge $-1 $45 $16 $46 $47 reversed $6 $-1 #
coedge $-1 $48 $49 $16 $28 reversed $50 $-1 #
edge $-1 $34 0 $51 0.90445589950254013 $16 $52 forward 7 unknown #
coedge $-1 $17 $53 $39 $54 reversed $6 $-1 #
coedge $-1 $55 $23 $17 $31 reversed $13 $-1 #
edge $-1 $56 0 $33 0.088053073137562915 $17 $57 forward 7 unknown #
coedge $-1 $18 $24 $48 $58 reversed $9 $-1 #
vertex $-1 $31 $59 #
vertex $-1 $28 $60 #
straight-curve $-1 0 0 -0.18666666666666676 0.49999999999999983 0 -0.86602540378443893 I I #
face $-1 $61 $62 $3 $-1 $63 reversed single #
loop $-1 $-1 $64 $20 #
cone-surface $-1 0.62000000000000011 1.3700000000000001 0 0 -1 0 0.20300000000000001 0 0 1 I I 0 1 0.20300000000000001 forward I I I I #
coedge $-1 $65 $66 $29 $54 forward $21 $-1 #
coedge $-1 $23 $67 $68 $69 forward $13 $-1 #
coedge $-1 $68 $70 $24 $42 reversed $71 $-1 #
edge $-1 $43 1.2018516789897266e-017 $72 0.43108820099492046 $41 $73 forward 7 unknown #
vertex $-1 $69 $74 #
straight-curve $-1 0 0 -0.18666666666666676 0 1 0 I I #
coedge $-1 $53 $26 $75 $76 reversed $6 $-1 #
coedge $-1 $77 $78 $26 $47 forward $79 $-1 #
edge $-1 $80 0 $51 0.40250000000000008 $26 $81 forward 7 unknown #
coedge $-1 $82 $27 $32 $58 forward $50 $-1 #
coedge $-1 $27 $83 $77 $84 forward $50 $-1 #
loop $-1 $-1 $85 $86 #
vertex $-1 $47 $87 #
straight-curve $-1 0.21554410049745998 0 -0.56000000000000005 1 0 0 I I #
coedge $-1 $29 $45 $88 $89 reversed $6 $-1 #
edge $-1 $56 1.5439038936193583e-016 $90 0.47676451463295333 $29 $91 forward 7 unknown #
coedge $-1 $92 $30 $66 $93 forward $13 $-1 #
vertex $-1 $31 $94 #
ellipse-curve $-1 -0.32344444444444942 0 1.7763568394002505e-015 0 1 0 0.33860670856677239 0 -0.15750000000000175 1 I I #
edge $-1 $34 0 $72 1.3700000000000001 $48 $95 forward 7 unknown #
point $-1 0 0 -0.18666666666666676 #
point $-1 0.21554410049745998 0 -0.56000000000000005 #
face $-1 $96 $97 $3 $-1 $98 reversed single #
loop $-1 $-1 $99 $36 #
plane-surface $-1 2.8820000000000001 0.17000000000000001 -0.1575 0 0 -1 0 -1 0 forward_v I I I I #
coedge $-1 $88 $100 $65 $101 forward $37 $-1 #
coedge $-1 $102 $39 $64 $101 reversed $21 $-1 #
coedge $-1 $39 $102 $55 $93 reversed $21 $-1 #
coedge $-1 $40 $103 $104 $105 forward $13 $-1 #
coedge $-1 $106 $41 $40 $69 reversed $71 $-1 #
edge $-1 $107 0 $43 1.0468540096048207 $68 $108 forward 7 unknown #
coedge $-1 $41 $109 $82 $110 reversed $71 $-1 #
loop $-1 $-1 $109 $111 #
vertex $-1 $110 $112 #
straight-curve $-1 -2.4037033579794545e-017 1.3700000000000001 -0.1866666666666667 0.49999999999999972 0 -0.86602540378443882 I I #
point $-1 0 1.3700000000000001 -0.1866666666666667 #
coedge $-1 $99 $113 $45 $76 forward $62 $-1 #
edge $-1 $114 0 $80 0.37192677875527602 $45 $115 forward 7 unknown #
coedge $-1 $116 $46 $49 $84 reversed $79 $-1 #
coedge $-1 $46 $117 $118 $119 forward $79 $-1 #
loop $-1 $-1 $46 $120 #
vertex $-1 $76 $121 #
straight-curve $-1 1.1200000000000001 0 -0.15749999999999997 0 0 -1 I I #
coedge $-1 $122 $48 $70 $110 forward $50 $-1 #
coedge $-1 $49 $123 $124 $125 forward $50 $-1 #
edge $-1 $126 0 $51 0.12 $49 $127 forward 7 unknown #
coedge $-1 $128 $122 $129 $130 forward $50 $-1 #
face $-1 $131 $50 $3 $-1 $132 forward single #
point $-1 1.1200000000000001 0 -0.56000000000000005 #
coedge $-1 $133 $64 $53 $89 forward $37 $-1 #
edge $-1 $90 -8.419148613054443e-017 $114 1.3654319432253148 $53 $134 forward 7 unknown #
vertex $-1 $54 $135 #
straight-curve $-1 0.015162264122322799 0 -0.1575 1 0 0 I I #
coedge $-1 $136 $55 $137 $138 reversed $13 $-1 #
edge $-1 $56 0 $139 0.17000000000000001 $66 $140 forward 7 unknown #
point $-1 0.015162264122322954 0 -0.15749999999999997 #
straight-curve $-1 0.21554410049746012 0 -0.56000000000000005 0 1 0 I I #
face $-1 $141 $142 $3 $-1 $143 reversed single #
loop $-1 $-1 $144 $61 #
plane-surface $-1 0 0 0.56000000000000005 0 -1 0 0 0 -1 forward_v I I I I #
coedge $-1 $145 $75 $146 $147 reversed $62 $-1 #
coedge $-1 $64 $148 $149 $150 forward $37 $-1 #
edge $-1 $151 0 $90 0.17000000000000001 $64 $152 forward 7 unknown #
coedge $-1 $66 $65 $153 $154 forward $21 $-1 #
coedge $-1 $67 $136 $155 $156 reversed $13 $-1 #
coedge $-1 $157 $158 $67 $105 reversed $159 $-1 #
edge $-1 $160 0 $107 1.3700000000000001 $104 $161 forward 7 unknown #
coedge $-1 $162 $68 $158 $163 reversed $71 $-1 #
vertex $-1 $163 $164 #
ellipse-curve $-1 -0.32344444444444442 1.3700000000000001 0 0 1 0 0.32344444444444442 0 0.18666666666666676 1 I I #
coedge $-1 $70 $165 $166 $167 reversed $71 $-1 #
edge $-1 $72 0 $168 0.57696019514932595 $82 $169 forward 7 unknown #
face $-1 $170 $71 $3 $-1 $171 forward single #
point $-1 0.21554410049745992 1.3700000000000001 -0.56000000000000005 #
coedge $-1 $75 $172 $133 $173 forward $62 $-1 #
vertex $-1 $89 $174 #
straight-curve $-1 0.74807322124472408 0 -0.1575 1 0 0 I I #
coedge $-1 $175 $77 $176 $177 forward $79 $-1 #
coedge $-1 $78 $175 $178 $179 forward $79 $-1 #
coedge $-1 $144 $146 $78 $119 reversed $97 $-1 #
edge $-1 $180 0 $80 0.31499999999999995 $78 $181 forward 7 unknown #
face $-1 $86 $79 $3 $-1 $182 forward single #
point $-1 1.1200000000000001 0 -0.15749999999999997 #
coedge $-1 $85 $82 $183 $184 reversed $50 $-1 #
coedge $-1 $83 $185 $186 $187 reversed $50 $-1 #
coedge $-1 $188 $176 $83 $125 reversed $189 $-1 #
edge $-1 $190 0 $126 0.49900000000000011 $83 $191 forward 7 unknown #
vertex $-1 $84 $192 #
straight-curve $-1 1.1200000000000001 -0.12 -0.56000000000000005 0 1 0 I I #
coedge $-1 $193 $85 $194 $195 reversed $50 $-1 #
coedge $-1 $196 $197 $85 $130 reversed $198 $-1 #
edge $-1 $199 0 $200 0.87333333333333341 $85 $201 forward 7 unknown #
face $-1 $202 $198 $3 $-1 $203 reversed single #
plane-surface $-1 0 0 -0.56000000000000005 0 0 -1 0 1 0 forward_v I I I I #
coedge $-1 $204 $88 $113 $173 reversed $37 $-1 #
ellipse-curve $-1 0.62000000000000022 0 2.2204460492503131e-016 0 -1 0 -0.12807322124472403 0 -0.1575000000000002 1 I I #
point $-1 0.49192677875527613 0 -0.1575 #
coedge $-1 $103 $92 $205 $206 reversed $13 $-1 #
coedge $-1 $153 $207 $92 $138 forward $208 $-1 #
edge $-1 $209 0 $139 0.87074786332969345 $137 $210 forward 7 unknown #
vertex $-1 $138 $211 #
straight-curve $-1 0.015162264122322799 0 -0.1575 0 1 0 I I #
face $-1 $212 $213 $3 $-1 $214 reversed single #
loop $-1 $-1 $215 $96 #
plane-surface $-1 2.8820000000000001 0 0.1575 0 0 1 0 1 0 forward_v I I I I #
coedge $-1 $216 $118 $217 $218 reversed $97 $-1 #
coedge $-1 $219 $99 $220 $221 forward $62 $-1 #
coedge $-1 $118 $216 $99 $147 forward $97 $-1 #
edge $-1 $222 0 $80 0.49900000000000011 $99 $223 forward 7 unknown #
coedge $-1 $100 $224 $225 $226 forward $37 $-1 #
coedge $-1 $227 $153 $100 $150 reversed $208 $-1 #
edge $-1 $228 0 $151 0.8880803551822456 $100 $229 forward 7 unknown #
vertex $-1 $150 $230 #
straight-curve $-1 0.49192677875527613 0.17000000000000001 -0.1575 0 -1 0 I I #
coedge $-1 $149 $137 $102 $154 reversed $208 $-1 #
edge $-1 $151 0 $139 0.47676451463295333 $153 $231 forward 7 unknown #
coedge $-1 $232 $233 $103 $156 forward $234 $-1 #
edge $-1 $160 0 $235 0.088053073137564303 $155 $236 forward 7 unknown #
coedge $-1 $237 $104 $233 $238 reversed $159 $-1 #
coedge $-1 $104 $237 $106 $163 forward $159 $-1 #
loop $-1 $-1 $237 $239 #
vertex $-1 $156 $240 #
straight-curve $-1 -2.4980018054066022e-016 0 0.18666666666666687 0 1 0 I I #
coedge $-1 $241 $106 $242 $243 forward $71 $-1 #
edge $-1 $244 -1.3877787807814452e-017 $107 0.4310882009949204 $106 $245 forward 7 unknown #
point $-1 0 1.3700000000000001 0.18666666666666676 #
coedge $-1 $109 $246 $247 $248 reversed $71 $-1 #
coedge $-1 $249 $183 $109 $167 forward $250 $-1 #
edge $-1 $168 0 $251 0.16165807537309504 $109 $252 forward 7 unknown #
vertex $-1 $184 $253 #
straight-curve $-1 0.21554410049745992 1.3700000000000001 -0.56000000000000005 1 0 0 I I #
face $-1 $254 $250 $3 $-1 $255 reversed single #
plane-surface $-1 0 1.3700000000000001 -0.56000000000000005 0 1 0 0 0 1 forward_v I I I I #
coedge $-1 $113 $219 $256 $257 forward $62 $-1 #
edge $-1 $258 0 $114 0.17000000000000001 $133 $259 forward 7 unknown #
point $-1 0.74807322124472408 0 -0.15749999999999997 #
coedge $-1 $117 $116 $260 $261 forward $79 $-1 #
coedge $-1 $124 $262 $116 $177 reversed $189 $-1 #
edge $-1 $126 0 $263 1.1200000000000001 $176 $264 forward 7 unknown #
coedge $-1 $265 $266 $117 $179 reversed $234 $-1 #
edge $-1 $267 0 $180 0.40250000000000008 $178 $268 forward 7 unknown #
vertex $-1 $179 $269 #
straight-curve $-1 1.1200000000000001 0 0.15749999999999997 0 0 -1 I I #
plane-surface $-1 1.1200000000000001 -0.12 -0.56000000000000005 -1 0 0 0 0 1 forward_v I I I I #
coedge $-1 $166 $270 $122 $184 forward $250 $-1 #
edge $-1 $199 0 $168 0.34250000000000003 $122 $271 forward 7 unknown #
coedge $-1 $123 $272 $273 $274 reversed $50 $-1 #
coedge $-1 $275 $276 $123 $187 forward $277 $-1 #
edge $-1 $190 0 $278 0.12 $123 $279 forward 7 unknown #
coedge $-1 $262 $124 $276 $280 reversed $189 $-1 #
loop $-1 $-1 $124 $281 #
vertex $-1 $125 $282 #
straight-curve $-1 1.6190000000000002 -0.12 -0.56000000000000005 -1 0 0 I I #
point $-1 1.1200000000000001 -0.12 -0.56000000000000005 #
coedge $-1 $272 $128 $283 $284 forward $50 $-1 #
coedge $-1 $285 $286 $128 $195 forward $287 $-1 #
edge $-1 $288 0 $200 0.34250000000000003 $128 $289 forward 7 unknown #
coedge $-1 $290 $129 $270 $291 forward $198 $-1 #
coedge $-1 $129 $292 $285 $293 forward $198 $-1 #
loop $-1 $-1 $294 $131 #
vertex $-1 $184 $295 #
vertex $-1 $195 $296 #
straight-curve $-1 0.79250429564678593 1.0275000000000001 -0.56000000000000005 1 0 0 I I #
face $-1 $297 $298 $3 $-1 $299 reversed single #
plane-surface $-1 0.87333333333333341 1.0275000000000001 -0.67200000000000049 0 -1 0 1 0 0 forward_v I I I I #
coedge $-1 $300 $133 $301 $302 forward $37 $-1 #
coedge $-1 $303 $304 $136 $206 forward $305 $-1 #
edge $-1 $235 0 $209 0.17000000000000001 $205 $306 forward 7 unknown #
coedge $-1 $137 $227 $303 $307 forward $208 $-1 #
loop $-1 $-1 $153 $308 #
vertex $-1 $206 $309 #
ellipse-curve $-1 -0.3234444444444442 0.17000000000000001 0 0 1 0 0.338606708566767 0 0.1575 1 I I #
point $-1 0.015162264122322799 0.17000000000000001 -0.1575 #
face $-1 $310 $234 $3 $-1 $311 forward single #
loop $-1 $-1 $312 $141 #
cone-surface $-1 0.62000000000000011 1.3700000000000001 0 0 -1 0 0.20300000000000001 0 0 1 I I 0 1 0.20300000000000001 forward I I I I #
coedge $-1 $313 $314 $315 $316 reversed $142 $-1 #
coedge $-1 $146 $144 $317 $318 forward $97 $-1 #
coedge $-1 $314 $319 $144 $218 forward $142 $-1 #
edge $-1 $320 0 $180 0.49900000000000011 $217 $321 forward 7 unknown #
coedge $-1 $172 $145 $322 $323 reversed $62 $-1 #
coedge $-1 $324 $325 $145 $221 reversed $326 $-1 #
edge $-1 $222 0 $327 0.37292677875527613 $220 $328 forward 7 unknown #
vertex $-1 $221 $329 #
straight-curve $-1 1.6190000000000002 0 -0.1575 -1 0 0 I I #
coedge $-1 $148 $300 $330 $331 reversed $37 $-1 #
coedge $-1 $332 $333 $148 $226 reversed $213 $-1 #
edge $-1 $334 1.1102230246251565e-016 $228 0.51500000000000012 $225 $335 forward 7 unknown #
coedge $-1 $207 $149 $333 $336 reversed $208 $-1 #
vertex $-1 $226 $337 #
ellipse-curve $-1 0.61999999999999877 0.17000000000000001 -9.4368957093138306e-016 0 -1 0 -0.20299999999999851 0 9.7144514654701197e-016 1 I I #
point $-1 0.49192677875527613 0.17000000000000001 -0.1575 #
straight-curve $-1 0.49192677875527613 0.17000000000000001 -0.1575 -1 0 0 I I #
coedge $-1 $338 $155 $304 $339 forward $234 $-1 #
coedge $-1 $155 $265 $157 $238 forward $234 $-1 #
loop $-1 $-1 $232 $212 #
vertex $-1 $156 $340 #
ellipse-curve $-1 -0.32344444444444426 0 2.2204460492503131e-016 0 1 0 0.32344444444444426 0 0.18666666666666654 1 I I #
coedge $-1 $158 $157 $341 $342 reversed $159 $-1 #
edge $-1 $343 0 $160 0.4310882009949204 $233 $344 forward 7 unknown #
face $-1 $281 $159 $3 $-1 $345 reversed single #
point $-1 0 0 0.18666666666666676 #
coedge $-1 $346 $162 $347 $348 forward $71 $-1 #
coedge $-1 $341 $349 $162 $243 reversed $350 $-1 #
edge $-1 $244 2.7755575615628914e-017 $351 0.57696019514932595 $162 $352 forward 7 unknown #
vertex $-1 $243 $353 #
straight-curve $-1 0.21554410049745981 1.3700000000000001 0.56000000000000005 -0.49999999999999972 0 -0.86602540378443871 I I #
coedge $-1 $165 $354 $355 $356 reversed $71 $-1 #
coedge $-1 $357 $358 $165 $248 forward $359 $-1 #
edge $-1 $251 0 $360 0.20516229277679446 $165 $361 forward 7 unknown #
coedge $-1 $270 $166 $358 $362 reversed $250 $-1 #
loop $-1 $-1 $166 $170 #
vertex $-1 $248 $363 #
straight-curve $-1 0.79250429564678593 1.3700000000000001 -0.56000000000000005 0.49999999999999972 0 0.8660254037844386 I I #
point $-1 0.79250429564678593 1.3700000000000001 -0.56000000000000005 #
face $-1 $364 $359 $3 $-1 $365 reversed single #
plane-surface $-1 0.79250429564678593 1.0275000000000001 -0.56000000000000005 -0.86602540378443882 0 0.49999999999999989 0.5 0 0.86602540378443904 forward_v I I I I #
coedge $-1 $366 $301 $172 $257 reversed $367 $-1 #
edge $-1 $368 2.2204460492503131e-016 $258 1.2438535575105523 $256 $369 forward 7 unknown #
vertex $-1 $302 $370 #
straight-curve $-1 0.74807322124472408 0.17000000000000001 -0.1575 0 -1 0 I I #
coedge $-1 $371 $372 $175 $261 reversed $350 $-1 #
edge $-1 $263 1.1102230246251565e-016 $267 0.12000000000000011 $260 $373 forward 7 unknown #
coedge $-1 $176 $188 $371 $374 reversed $189 $-1 #
vertex $-1 $374 $375 #
straight-curve $-1 1.1200000000000001 -0.12 -0.56000000000000005 0 0 1 I I #
coedge $-1 $233 $178 $372 $376 reversed $234 $-1 #
coedge $-1 $178 $338 $314 $377 forward $234 $-1 #
vertex $-1 $376 $378 #
straight-curve $-1 1.1200000000000001 0 0.56000000000000005 0 0 -1 I I #
point $-1 1.1200000000000001 0 0.15749999999999997 #
coedge $-1 $183 $249 $196 $291 reversed $250 $-1 #
straight-curve $-1 0.79250429564678593 1.0275000000000001 -0.56000000000000005 0 1 0 I I #
coedge $-1 $185 $193 $379 $380 reversed $50 $-1 #
coedge $-1 $381 $324 $185 $274 forward $326 $-1 #
edge $-1 $278 0 $382 0.78545589950254024 $273 $383 forward 7 unknown #
coedge $-1 $317 $186 $324 $384 reversed $277 $-1 #
coedge $-1 $186 $385 $188 $280 forward $277 $-1 #
loop $-1 $-1 $386 $387 #
vertex $-1 $274 $388 #
straight-curve $-1 1.6190000000000002 -0.12 -0.56000000000000005 0 1 0 I I #
edge $-1 $389 0 $190 1.1200000000000001 $188 $390 forward 7 unknown #
face $-1 $391 $189 $3 $-1 $392 reversed single #
point $-1 1.6190000000000002 -0.12 -0.56000000000000005 #
coedge $-1 $393 $394 $193 $284 reversed $395 $-1 #
edge $-1 $288 0 $396 0.73861827052242113 $193 $397 forward 7 unknown #
coedge $-1 $398 $194 $197 $293 reversed $287 $-1 #
coedge $-1 $194 $398 $393 $399 reversed $287 $-1 #
loop $-1 $-1 $285 $400 #
vertex $-1 $284 $401 #
straight-curve $-1 1.6658376289801193 0.68500000000000005 -0.56000000000000005 0 1 0 I I #
coedge $-1 $402 $196 $403 $404 forward $198 $-1 #
edge $-1 $199 9.6148134319178215e-017 $405 0.16165807537309507 $196 $406 forward 7 unknown #
coedge $-1 $197 $294 $407 $408 reversed $198 $-1 #
edge $-1 $409 1.4874168143337402e-017 $200 0.16165807537309546 $197 $410 forward 7 unknown #
coedge $-1 $292 $411 $412 $413 reversed $198 $-1 #
point $-1 0.79250429564678593 1.0275000000000001 -0.56000000000000005 #
point $-1 1.6658376289801193 1.0275000000000001 -0.56000000000000005 #
face $-1 $414 $415 $3 $-1 $416 reversed single #
loop $-1 $-1 $417 $202 #
plane-surface $-1 1.7466666666666668 0.68500000000000005 0.42000000000000004 -0.86602540378443871 0 -0.50000000000000011 -0.5 0 0.8660254037844386 forward_v I I I I #
coedge $-1 $224 $204 $418 $419 reversed $37 $-1 #
coedge $-1 $256 $420 $204 $302 reversed $367 $-1 #
edge $-1 $258 0 $421 0.88808035518224127 $204 $422 forward 7 unknown #
coedge $-1 $423 $205 $207 $307 reversed $305 $-1 #
coedge $-1 $205 $423 $232 $339 reversed $305 $-1 #
loop $-1 $-1 $303 $310 #
straight-curve $-1 0.015162264122322799 0 0.1575 0 1 0 I I #
edge $-1 $424 0 $209 0.47676451463295333 $303 $425 forward 7 unknown #
face $-1 $120 $208 $3 $-1 $426 reversed single #
point $-1 0.015162264122322799 0.17000000000000001 0.1575 #
face $-1 $308 $305 $3 $-1 $427 reversed single #
plane-surface $-1 0 0 0.56000000000000005 0 -1 0 0 0 -1 forward_v I I I I #
coedge $-1 $428 $315 $338 $429 forward $213 $-1 #
coedge $-1 $430 $215 $431 $432 reversed $142 $-1 #
coedge $-1 $215 $217 $266 $377 reversed $142 $-1 #
coedge $-1 $312 $433 $215 $316 forward $213 $-1 #
edge $-1 $434 0 $435 0.17000000000000001 $315 $436 forward 7 unknown #
coedge $-1 $386 $275 $216 $318 reversed $277 $-1 #
edge $-1 $320 0 $222 0.31499999999999995 $317 $437 forward 7 unknown #
coedge $-1 $217 $430 $438 $439 reversed $142 $-1 #
vertex $-1 $439 $440 #
straight-curve $-1 1.6190000000000002 0 0.15749999999999997 -1 0 0 I I #
coedge $-1 $441 $442 $219 $323 forward $443 $-1 #
edge $-1 $368 0 $327 0.17000000000000001 $322 $444 forward 7 unknown #
coedge $-1 $273 $220 $275 $384 forward $326 $-1 #
coedge $-1 $220 $445 $441 $446 reversed $326 $-1 #
loop $-1 $-1 $324 $447 #
vertex $-1 $221 $448 #
straight-curve $-1 1.6190000000000002 0 -0.1575 1 0 0 I I #
point $-1 1.6190000000000002 0 -0.15749999999999997 #
coedge $-1 $449 $449 $224 $331 forward $450 $-1 #
edge $-1 $334 0 $451 3.1415926535897931 $224 $452 forward 7 unknown #
coedge $-1 $418 $225 $449 $453 reversed $213 $-1 #
coedge $-1 $225 $428 $227 $336 forward $213 $-1 #
vertex $-1 $453 $454 #
straight-curve $-1 0.41700000000000009 0.68500000000000016 2.4859508982594261e-017 0 -1 0 I I #
edge $-1 $424 0 $228 0.88808035518223882 $333 $455 forward 7 unknown #
point $-1 0.41700000000000026 0.17000000000000001 2.7755575615628914e-017 #
coedge $-1 $266 $232 $312 $429 reversed $234 $-1 #
edge $-1 $235 2.1337098754514727e-016 $456 0.47676451463295338 $232 $457 forward 7 unknown #
point $-1 0.015162264122323013 0 0.15749999999999997 #
coedge $-1 $372 $242 $237 $342 forward $350 $-1 #
edge $-1 $244 0 $343 1.3700000000000001 $341 $458 forward 7 unknown #
vertex $-1 $238 $459 #
straight-curve $-1 0.21554410049745981 0 0.56000000000000005 -0.49999999999999972 0 -0.86602540378443871 I I #
plane-surface $-1 0.21554410049745981 -0.26900000000000013 0.56000000000000005 0.86602540378443882 0 -0.49999999999999978 -0.5 0 -0.86602540378443915 forward_v I I I I #
coedge $-1 $354 $241 $460 $461 reversed $71 $-1 #
coedge $-1 $462 $463 $241 $348 reversed $464 $-1 #
edge $-1 $351 0 $465 0.16165807537309498 $241 $466 forward 7 unknown #
coedge $-1 $242 $467 $462 $468 reversed $350 $-1 #
loop $-1 $-1 $242 $469 #
vertex $-1 $348 $470 #
straight-curve $-1 0.21554410049745981 1.3700000000000001 0.56000000000000005 1 0 0 I I #
point $-1 0.21554410049745984 1.3700000000000001 0.56000000000000005 #
coedge $-1 $246 $346 $471 $472 reversed $71 $-1 #
coedge $-1 $473 $474 $246 $356 forward $475 $-1 #
edge $-1 $360 0 $476 2.2246711058460953 $246 $477 forward 7 unknown #
coedge $-1 $403 $247 $474 $478 reversed $359 $-1 #
coedge $-1 $247 $403 $249 $362 forward $359 $-1 #
loop $-1 $-1 $357 $254 #
vertex $-1 $248 $479 #
ellipse-curve $-1 1.7053333333333449 1.3700000000000001 4.4408920985006262e-015 0 1 0 -0.83200000000001162 0 -0.42000000000000459 1 I I #
edge $-1 $405 0 $251 0.34250000000000003 $249 $480 forward 7 unknown #
point $-1 0.87333333333333329 1.3700000000000001 -0.42000000000000015 #
face $-1 $481 $475 $3 $-1 $482 reversed single #
cone-surface $-1 1.7053333333333336 1.0275000000000001 0 0 1 0 0.93200000000000027 0 0 1 I I 0 1 0.93200000000000027 forward I I I I #
coedge $-1 $483 $256 $442 $484 reversed $367 $-1 #
loop $-1 $-1 $301 $485 #
vertex $-1 $484 $486 #
straight-curve $-1 1.9919267787552764 0.17000000000000001 -0.1575 -1 0 0 I I #
point $-1 0.74807322124472408 0.17000000000000001 -0.1575 #
coedge $-1 $487 $260 $262 $374 forward $350 $-1 #
coedge $-1 $260 $341 $265 $376 forward $350 $-1 #
straight-curve $-1 1.1200000000000001 -0.12000000000000011 0.56000000000000005 0 1 0 I I #
edge $-1 $263 0 $389 0.49900000000000011 $371 $488 forward 7 unknown #
point $-1 1.1200000000000001 -0.12 0.56000000000000005 #
edge $-1 $343 0 $267 0.90445589950254024 $265 $489 forward 7 unknown #
edge $-1 $435 0 $180 0.37192677875527602 $266 $490 forward 7 unknown #
point $-1 1.1200000000000001 0 0.56000000000000005 #
coedge $-1 $491 $492 $272 $380 forward $493 $-1 #
edge $-1 $382 0 $396 0.68500000000000005 $272 $494 forward 7 unknown #
coedge $-1 $495 $273 $492 $496 forward $326 $-1 #
vertex $-1 $496 $497 #
straight-curve $-1 1.6190000000000002 0 -0.56000000000000005 1 0 0 I I #
edge $-1 $222 0 $278 0.40250000000000008 $324 $498 forward 7 unknown #
coedge $-1 $276 $386 $487 $499 reversed $277 $-1 #
coedge $-1 $385 $317 $500 $501 reversed $277 $-1 #
face $-1 $502 $277 $3 $-1 $503 forward single #
point $-1 1.6190000000000002 0 -0.56000000000000005 #
vertex $-1 $499 $504 #
straight-curve $-1 1.6190000000000002 -0.12 0.56000000000000005 0 0 -1 I I #
face $-1 $400 $505 $3 $-1 $506 reversed single #
plane-surface $-1 0 -0.12 0 0 1 0 1 0 0 forward_v I I I I #
coedge $-1 $507 $283 $286 $399 forward $395 $-1 #
coedge $-1 $283 $508 $491 $509 reversed $395 $-1 #
loop $-1 $-1 $510 $297 #
vertex $-1 $380 $511 #
straight-curve $-1 1.6658376289801193 0.68500000000000005 -0.56000000000000005 1 0 0 I I #
coedge $-1 $286 $285 $512 $513 reversed $287 $-1 #
edge $-1 $288 0 $514 0.16165807537309521 $393 $515 forward 7 unknown #
face $-1 $516 $287 $3 $-1 $517 reversed single #
point $-1 1.6658376289801193 0.68500000000000005 -0.56000000000000005 #
coedge $-1 $518 $290 $519 $520 reversed $198 $-1 #
coedge $-1 $358 $357 $290 $404 reversed $359 $-1 #
edge $-1 $405 0 $521 0.20516229277679712 $290 $522 forward 7 unknown #
vertex $-1 $404 $523 #
straight-curve $-1 0.79250429564678593 1.0275000000000001 -0.56000000000000016 0.49999999999999967 0 0.86602540378443882 I I #
coedge $-1 $524 $512 $292 $408 forward $525 $-1 #
edge $-1 $409 0 $526 0.93497272347560489 $292 $527 forward 7 unknown #
vertex $-1 $293 $528 #
straight-curve $-1 1.746666666666667 1.0275000000000001 -0.41999999999999982 -0.49999999999999983 0 -0.86602540378443882 I I #
coedge $-1 $294 $529 $467 $530 reversed $198 $-1 #
coedge $-1 $531 $532 $294 $413 forward $298 $-1 #
edge $-1 $526 3.5139263826046117e-016 $533 0.16165807537309562 $294 $534 forward 7 unknown #
face $-1 $535 $536 $3 $-1 $537 reversed single #
loop $-1 $395 $538 $297 #
plane-surface $-1 1.7466666666666668 0.68500000000000005 -0.67200000000000004 0 -1 0 1 0 0 forward_v I I I I #
coedge $-1 $532 $531 $539 $540 reversed $298 $-1 #
coedge $-1 $433 $332 $300 $419 forward $213 $-1 #
edge $-1 $451 1.1102230246251565e-016 $421 0.51499999999999979 $418 $541 forward 7 unknown #
coedge $-1 $301 $431 $433 $542 reversed $367 $-1 #
vertex $-1 $542 $543 #
ellipse-curve $-1 0.62000000000000055 0.17000000000000001 -5.2735593669694936e-016 0 -1 0 0.12807322124472353 0 -0.15749999999999947 1 I I #
coedge $-1 $304 $303 $428 $544 forward $305 $-1 #
vertex $-1 $336 $545 #
straight-curve $-1 0.49192677875527613 0.17000000000000001 0.1575 -1 0 0 I I #
plane-surface $-1 2.8820000000000001 0.17000000000000001 0.1575 0 1 0 0 0 -1 forward_v I I I I #
plane-surface $-1 2.8820000000000001 0 0.1575 0 0 1 0 1 0 forward_v I I I I #
coedge $-1 $333 $312 $423 $544 reversed $213 $-1 #
edge $-1 $435 -3.3676594452217939e-016 $456 1.3654319432253177 $338 $546 forward 7 unknown #
coedge $-1 $319 $313 $547 $548 forward $142 $-1 #
coedge $-1 $420 $483 $313 $432 forward $367 $-1 #
edge $-1 $549 0 $434 1.243853557510552 $313 $550 forward 7 unknown #
coedge $-1 $315 $418 $420 $542 forward $213 $-1 #
vertex $-1 $316 $551 #
vertex $-1 $377 $552 #
straight-curve $-1 0.74807322124472408 0.17000000000000001 0.1575 0 -1 0 I I #
straight-curve $-1 1.6190000000000002 0 0.15749999999999997 0 0 -1 I I #
coedge $-1 $553 $500 $319 $439 forward $554 $-1 #
edge $-1 $320 0 $555 0.37292677875527591 $438 $556 forward 7 unknown #
point $-1 1.6190000000000002 0 0.15749999999999997 #
coedge $-1 $557 $322 $325 $446 forward $443 $-1 #
coedge $-1 $322 $558 $366 $484 forward $443 $-1 #
loop $-1 $-1 $322 $559 #
straight-curve $-1 1.9919267787552764 0.17000000000000001 -0.1575 0 -1 0 I I #
coedge $-1 $325 $495 $560 $561 reversed $326 $-1 #
edge $-1 $327 0 $562 1.365431943225321 $325 $563 forward 7 unknown #
face $-1 $387 $326 $3 $-1 $564 forward single #
point $-1 1.9919267787552764 0 -0.15749999999999997 #
coedge $-1 $330 $330 $332 $453 forward $450 $-1 #
loop $-1 $-1 $330 $565 #
vertex $-1 $419 $566 #
ellipse-curve $-1 0.62000000000000011 0.68500000000000005 0 0 -1 0 -0.20300000000000001 0 0 1 I I #
edge $-1 $451 0 $334 3.1415926535897931 $332 $567 forward 7 unknown #
point $-1 0.41700000000000009 0.68500000000000005 0 #
ellipse-curve $-1 0.62000000000000011 0.17000000000000001 1.9428902930940239e-016 0 -1 0 -0.12807322124472398 0 0.15749999999999981 1 I I #
vertex $-1 $429 $568 #
straight-curve $-1 0.015162264122322799 0 0.1575 1 0 0 I I #
straight-curve $-1 0.21554410049745981 1.3700000000000001 0.56000000000000005 0 -1 0 I I #
point $-1 0.21554410049745981 0 0.56000000000000005 #
coedge $-1 $569 $570 $346 $461 forward $571 $-1 #
edge $-1 $572 3.1953498424666274e-017 $465 0.20516229277679146 $346 $573 forward 7 unknown #
coedge $-1 $574 $347 $349 $468 forward $464 $-1 #
coedge $-1 $347 $574 $569 $575 forward $464 $-1 #
loop $-1 $-1 $462 $576 #
vertex $-1 $461 $577 #
straight-curve $-1 0.79250429564678582 1.3700000000000001 0.56000000000000005 0.5 0 -0.86602540378443871 I I #
coedge $-1 $349 $578 $411 $530 forward $350 $-1 #
edge $-1 $351 0 $579 0.34250000000000003 $349 $580 forward 7 unknown #
face $-1 $111 $350 $3 $-1 $581 forward single #
point $-1 0.79250429564678582 1.3700000000000001 0.56000000000000005 #
coedge $-1 $582 $583 $354 $472 forward $584 $-1 #
edge $-1 $476 -1.2246063538223773e-016 $572 2.2246711058460953 $354 $585 forward 7 unknown #
coedge $-1 $586 $355 $583 $587 reversed $475 $-1 #
coedge $-1 $355 $519 $357 $478 forward $475 $-1 #
loop $-1 $-1 $474 $364 #
vertex $-1 $356 $588 #
ellipse-curve $-1 0.62000000000000011 1.3700000000000001 0 0 1 0 0.1852171503890252 0 -0.24169165728623981 1 I I #
edge $-1 $521 2.5191725987897273e-031 $360 0.34250000000000003 $474 $589 forward 7 unknown #
point $-1 0.8052171503890253 1.3700000000000001 -0.24169165728623981 #
straight-curve $-1 0.87333333333333341 1.0275000000000001 -0.42000000000000026 0 1 0 I I #
face $-1 $565 $584 $3 $-1 $590 reversed single #
cone-surface $-1 0.62000000000000011 0.68500000000000005 0 0 1 0 0.30449999999999999 0 0 1 I I 0 1 0.30449999999999999 forward I I I I #
coedge $-1 $431 $366 $591 $592 reversed $367 $-1 #
edge $-1 $593 0 $368 0.88808035518223238 $442 $594 forward 7 unknown #
face $-1 $595 $367 $3 $-1 $596 reversed single #
point $-1 1.9919267787552761 0.17000000000000001 -0.1575 #
coedge $-1 $597 $371 $385 $499 forward $350 $-1 #
straight-curve $-1 1.1200000000000001 -0.12000000000000011 0.56000000000000005 1 0 0 I I #
straight-curve $-1 0.21554410049745981 0 0.56000000000000005 1 0 0 I I #
straight-curve $-1 0.74807322124472408 0 0.1575 1 0 0 I I #
coedge $-1 $598 $379 $394 $509 forward $493 $-1 #
coedge $-1 $379 $598 $381 $496 reversed $493 $-1 #
loop $-1 $-1 $379 $599 #
straight-curve $-1 2.4044558995025405 0 -0.56000000000000005 0 1 0 I I #
coedge $-1 $445 $381 $600 $601 forward $326 $-1 #
edge $-1 $382 0 $602 0.43108820099492007 $381 $603 forward 7 unknown #
point $-1 2.4044558995025405 0 -0.56000000000000005 #
straight-curve $-1 1.6190000000000002 0 -0.15749999999999997 0 0 -1 I I #
edge $-1 $389 1.1102230246251565e-016 $604 0.12000000000000011 $487 $605 forward 7 unknown #
coedge $-1 $438 $606 $386 $501 forward $554 $-1 #
edge $-1 $604 0 $320 0.40250000000000008 $500 $607 forward 7 unknown #
face $-1 $608 $554 $3 $-1 $609 forward single #
plane-surface $-1 1.6190000000000002 -0.12 0.56000000000000005 1 0 0 0 0 -1 forward_v I I I I #
point $-1 1.6190000000000002 -0.12 0.56000000000000005 #
loop $-1 $-1 $610 $391 #
plane-surface $-1 2.8820000000000001 0 0.1575 0 0 1 0 1 0 forward_v I I I I #
coedge $-1 $539 $393 $611 $612 forward $395 $-1 #
coedge $-1 $394 $510 $613 $614 reversed $395 $-1 #
edge $-1 $396 0 $615 0.43108820099492007 $394 $616 forward 7 unknown #
coedge $-1 $508 $617 $618 $619 reversed $395 $-1 #
point $-1 2.4044558995025405 0.68500000000000005 -0.56000000000000005 #
coedge $-1 $407 $611 $398 $513 forward $525 $-1 #
edge $-1 $514 3.5988179982710392e-032 $409 0.34250000000000003 $398 $620 forward 7 unknown #
vertex $-1 $612 $621 #
straight-curve $-1 1.6658376289801193 0.68500000000000005 -0.56000000000000005 0.49999999999999939 0 0.86602540378443904 I I #
face $-1 $-1 $525 $3 $-1 $622 reversed single #
plane-surface $-1 1.6658376289801193 0.68500000000000005 -0.56000000000000005 -0.86602540378443882 0 0.49999999999999989 0.5 0 0.86602540378443904 forward_v I I I I #
coedge $-1 $623 $402 $624 $625 reversed $198 $-1 #
coedge $-1 $474 $626 $402 $520 forward $475 $-1 #
edge $-1 $627 0 $521 0.91692154774369783 $402 $628 forward 7 unknown #
vertex $-1 $520 $629 #
ellipse-curve $-1 1.7053333333333336 1.0275000000000001 0 0 1 0 -0.83200000000000018 0 -0.42000000000000026 1 I I #
point $-1 0.87333333333333341 1.0275000000000001 -0.42000000000000026 #
coedge $-1 $611 $407 $532 $630 reversed $525 $-1 #
loop $-1 $-1 $512 $516 #
vertex $-1 $408 $631 #
ellipse-curve $-1 2.5786666666666673 1.0275000000000001 -2.2204460492503131e-016 0 1 0 -0.83200000000000052 0 -0.41999999999999948 1 I I #
point $-1 1.7466666666666668 1.0275000000000001 -0.41999999999999971 #
coedge $-1 $411 $623 $574 $632 forward $198 $-1 #
edge $-1 $533 0 $579 0.87333333333333352 $467 $633 forward 7 unknown #
coedge $-1 $417 $412 $578 $634 forward $298 $-1 #
coedge $-1 $412 $417 $524 $630 forward $298 $-1 #
vertex $-1 $530 $635 #
straight-curve $-1 1.746666666666667 1.0275000000000001 0.41999999999999976 -0.50000000000000067 0 0.86602540378443826 I I #
face $-1 $636 $637 $3 $-1 $638 reversed single #
loop $-1 $-1 $639 $414 #
cone-surface $-1 2.1200000000000001 0.34250000000000003 0 0 1 0 0.30449999999999999 0 0 1 I I 0 1 0.30449999999999999 forward I I I I #
coedge $-1 $640 $640 $641 $642 reversed $415 $-1 #
coedge $-1 $617 $507 $417 $540 forward $395 $-1 #
edge $-1 $643 0 $644 0.16165807537309537 $539 $645 forward 7 unknown #
straight-curve $-1 0.82300000000000018 0.68500000000000016 0 0 -1 0 I I #
edge $-1 $421 2.7345394695201552e-016 $434 0.88808035518224526 $433 $646 forward 7 unknown #
point $-1 0.82300000000000018 0.17000000000000037 0 #
edge $-1 $424 0 $456 0.17000000000000001 $428 $647 forward 7 unknown #
point $-1 0.49192677875527613 0.17000000000000001 0.1575 #
ellipse-curve $-1 0.62000000000000011 0 3.3306690738754696e-016 0 -1 0 0.12807322124472387 0 0.15749999999999964 1 I I #
coedge $-1 $591 $648 $430 $548 reversed $649 $-1 #
edge $-1 $549 0 $555 0.17000000000000001 $547 $650 forward 7 unknown #
vertex $-1 $592 $651 #
straight-curve $-1 1.9919267787552761 0.17000000000000001 0.1575 -1 0 0 I I #
point $-1 0.74807322124472408 0.17000000000000001 0.1575 #
point $-1 0.74807322124472408 0 0.1575 #
coedge $-1 $652 $438 $648 $653 reversed $554 $-1 #
loop $-1 $-1 $553 $502 #
vertex $-1 $439 $654 #
straight-curve $-1 1.6190000000000002 0 0.1575 1 0 0 I I #
coedge $-1 $655 $441 $656 $657 reversed $443 $-1 #
coedge $-1 $442 $658 $659 $660 forward $443 $-1 #
face $-1 $447 $443 $3 $-1 $661 reversed single #
coedge $-1 $662 $656 $445 $561 forward $663 $-1 #
edge $-1 $562 0 $664 0.35676451463295278 $445 $665 forward 7 unknown #
vertex $-1 $446 $666 #
ellipse-curve $-1 2.1200000000000001 0 -8.8817841970012523e-016 0 -1 0 -0.12807322124472376 0 -0.15749999999999909 1 I I #
plane-surface $-1 0 0 0.56000000000000005 0 -1 0 0 0 -1 forward_v I I I I #
face $-1 $667 $668 $3 $-1 $669 forward single #
point $-1 0.82300000000000018 0.68500000000000005 0 #
ellipse-curve $-1 0.62000000000000011 0.68500000000000005 0 0 -1 0 0.20300000000000007 0 0 1 I I #
point $-1 0.49192677875527618 0 0.15749999999999997 #
coedge $-1 $670 $460 $463 $575 reversed $571 $-1 #
coedge $-1 $460 $670 $582 $671 forward $571 $-1 #
loop $-1 $-1 $569 $667 #
vertex $-1 $472 $672 #
ellipse-curve $-1 1.7053333333333587 1.3700000000000001 -8.7707618945387367e-015 0 1 0 -0.90011618294433327 0 0.24169165728624853 1 I I #
coedge $-1 $463 $462 $529 $632 reversed $464 $-1 #
edge $-1 $673 4.4985224978387991e-032 $465 0.34250000000000003 $569 $674 forward 7 unknown #
face $-1 $239 $464 $3 $-1 $675 reversed single #
point $-1 0.87333333333333329 1.3700000000000001 0.42000000000000026 #
coedge $-1 $467 $676 $531 $634 reversed $350 $-1 #
vertex $-1 $468 $677 #
straight-curve $-1 0.79250429564678582 1.3700000000000001 0.56000000000000005 0 -1 0 I I #
plane-surface $-1 0 1.3700000000000001 0.56000000000000005 0 0 1 0 -1 0 forward_v I I I I #
coedge $-1 $624 $471 $570 $671 reversed $584 $-1 #
coedge $-1 $471 $678 $473 $587 forward $584 $-1 #
loop $-1 $-1 $624 $481 #
ellipse-curve $-1 0.62000000000000011 1.3700000000000001 0 0 1 0 -0.30449999999999999 0 0 1 I I #
coedge $-1 $626 $473 $679 $680 reversed $475 $-1 #
edge $-1 $681 0 $476 0.68500000000000005 $473 $682 forward 7 unknown #
point $-1 0.31550000000000011 1.3700000000000001 -3.7289263473891387e-017 #
straight-curve $-1 0.8052171503890253 1.0275000000000001 -0.24169165728623959 0 1 -6.4830541583950747e-016 I I #
cone-surface $-1 0.62000000000000011 0.68500000000000005 0 0 1 0 0.30449999999999999 0 0 1 I I 0 1 0.30449999999999999 forward I I I I #
coedge $-1 $659 $547 $483 $592 forward $649 $-1 #
edge $-1 $549 0 $593 0.88808035518223227 $591 $683 forward 7 unknown #
vertex $-1 $660 $684 #
ellipse-curve $-1 2.1200000000000014 0.17000000000000001 6.3837823915946501e-016 0 -1 0 -0.2030000000000014 0 -6.106226635438361e-016 1 I I #
face $-1 $685 $686 $3 $-1 $687 reversed single #
plane-surface $-1 2.8820000000000001 0.17000000000000001 0.1575 0 1 0 0 0 -1 forward_v I I I I #
coedge $-1 $688 $487 $606 $689 forward $350 $-1 #
coedge $-1 $492 $491 $690 $691 reversed $493 $-1 #
face $-1 $692 $493 $3 $-1 $693 reversed single #
coedge $-1 $690 $694 $495 $601 reversed $695 $-1 #
edge $-1 $602 0 $664 0.088053073137577043 $495 $696 forward 7 unknown #
vertex $-1 $601 $697 #
straight-curve $-1 2.4044558995025405 0 -0.56000000000000005 0.50000000000000011 0 0.8660254037844386 I I #
vertex $-1 $501 $698 #
straight-curve $-1 1.6190000000000002 -0.12000000000000011 0.56000000000000005 0 1 0 I I #
coedge $-1 $500 $699 $597 $689 reversed $554 $-1 #
straight-curve $-1 1.6190000000000002 0 0.56000000000000005 0 0 -1 I I #
face $-1 $485 $649 $3 $-1 $700 reversed single #
plane-surface $-1 0 0 0.56000000000000005 0 -1 0 0 0 -1 forward_v I I I I #
coedge $-1 $701 $702 $703 $704 reversed $505 $-1 #
coedge $-1 $512 $524 $507 $612 reversed $525 $-1 #
edge $-1 $514 0 $643 0.93497272347560567 $507 $705 forward 7 unknown #
coedge $-1 $706 $690 $508 $614 forward $695 $-1 #
edge $-1 $615 0 $707 1.0468540096048149 $508 $708 forward 7 unknown #
vertex $-1 $509 $709 #
straight-curve $-1 2.4044558995025405 0.68500000000000005 -0.56000000000000005 0.50000000000000011 0 0.8660254037844386 I I #
coedge $-1 $510 $539 $676 $710 reversed $395 $-1 #
coedge $-1 $711 $712 $510 $619 forward $713 $-1 #
edge $-1 $707 0 $714 0.43108820099492051 $510 $715 forward 7 unknown #
straight-curve $-1 1.7466666666666668 0.68500000000000005 -0.42000000000000004 6.4830541583950747e-016 1 6.4830541583950747e-016 I I #
point $-1 1.7466666666666668 0.68500000000000005 -0.41999999999999998 #
cone-surface $-1 2.5786666666666669 0.68500000000000005 0 0 1 0 0.93199999999999994 0 0 1 I I 0 1 0.93199999999999994 forward I I I I #
coedge $-1 $529 $518 $670 $716 forward $198 $-1 #
coedge $-1 $717 $582 $518 $625 forward $584 $-1 #
edge $-1 $718 -6.7353188904435899e-016 $627 0.91692154774369861 $518 $719 forward 7 unknown #
coedge $-1 $519 $586 $717 $720 forward $475 $-1 #
vertex $-1 $625 $721 #
ellipse-curve $-1 0.61999999999999988 1.0275000000000001 0 0 1 0 0.30450000000000021 0 0 1 I I #
point $-1 0.8052171503890253 1.0275000000000001 -0.24169165728623998 #
edge $-1 $643 1.7994089991355196e-031 $526 0.34250000000000003 $524 $722 forward 7 unknown #
point $-1 1.7466666666666668 1.0275000000000001 0.42000000000000004 #
edge $-1 $673 0 $579 0.16165807537309526 $529 $723 forward 7 unknown #
straight-curve $-1 1.6658376289801193 1.0275000000000001 0.56000000000000005 -1 0 0 I I #
edge $-1 $533 0 $644 0.34250000000000003 $578 $724 forward 7 unknown #
point $-1 1.6658376289801193 1.0275000000000001 0.56000000000000016 #
face $-1 $559 $725 $3 $-1 $726 forward single #
loop $-1 $-1 $727 $535 #
cone-surface $-1 2.1200000000000001 0.34250000000000003 0 0 1 0 0.30449999999999999 0 0 1 I I 0 1 0.30449999999999999 forward I I I I #
coedge $-1 $728 $641 $729 $730 reversed $536 $-1 #
coedge $-1 $538 $538 $731 $732 reversed $415 $-1 #
coedge $-1 $639 $733 $538 $642 forward $536 $-1 #
edge $-1 $734 0 $735 3.1415926535897927 $538 $736 forward 7 unknown #
vertex $-1 $540 $737 #
vertex $-1 $634 $738 #
straight-curve $-1 1.7466666666666668 0.68500000000000005 0.42000000000000004 -0.50000000000000011 0 0.8660254037844386 I I #
ellipse-curve $-1 0.62000000000000144 0.17000000000000001 7.7715611723760958e-016 0 -1 0 0.20299999999999851 0 -8.3266726846886741e-016 1 I I #
straight-curve $-1 0.49192677875527613 0.17000000000000001 0.1575 0 -1 0 I I #
coedge $-1 $547 $703 $553 $653 forward $649 $-1 #
loop $-1 $-1 $648 $608 #
straight-curve $-1 1.9919267787552761 0.17000000000000001 0.1575 -1.3061447348531252e-015 -1 0 I I #
point $-1 1.9919267787552761 0.17000000000000001 0.1575 #
coedge $-1 $739 $553 $702 $740 forward $554 $-1 #
edge $-1 $741 -1.5996382364803521e-015 $555 1.3654319432253197 $553 $742 forward 7 unknown #
point $-1 1.9919267787552761 0 0.15749999999999997 #
coedge $-1 $743 $557 $744 $745 forward $443 $-1 #
coedge $-1 $560 $746 $557 $657 forward $663 $-1 #
edge $-1 $747 0 $562 0.17000000000000001 $557 $748 forward 7 unknown #
coedge $-1 $558 $743 $749 $750 reversed $443 $-1 #
coedge $-1 $751 $591 $558 $660 reversed $649 $-1 #
edge $-1 $752 5.5511151231257827e-017 $593 0.17250000000000007 $659 $753 forward 7 unknown #
cone-surface $-1 2.1200000000000001 0.68500000000000005 0 0 -1 0 0.20300000000000001 0 0 1 I I 0 1 0.20300000000000001 forward I I I I #
coedge $-1 $746 $560 $694 $754 forward $663 $-1 #
loop $-1 $-1 $662 $685 #
vertex $-1 $561 $755 #
straight-curve $-1 2.2480732212447241 0 -0.1575 1 0 0 I I #
point $-1 2.2480732212447241 0 -0.15749999999999997 #
face $-1 $576 $571 $3 $-1 $756 reversed single #
loop $-1 $450 $757 $565 #
plane-surface $-1 0 0.68500000000000005 -0.56000000000000005 0 1 0 1 0 0 forward_v I I I I #
coedge $-1 $570 $569 $623 $716 reversed $571 $-1 #
edge $-1 $718 4.4985224978387991e-032 $572 0.34250000000000003 $582 $758 forward 7 unknown #
point $-1 0.8052171503890253 1.3700000000000001 0.24169165728623984 #
vertex $-1 $632 $759 #
straight-curve $-1 0.87333333333333329 1.0275000000000001 0.4200000000000001 3.2415270791975373e-016 1 -1.6207635395987687e-016 I I #
plane-surface $-1 0.87333333333333341 1.0275000000000001 0.42000000000000004 -0.86602540378443871 0 -0.49999999999999994 -0.5 0 0.86602540378443882 forward_v I I I I #
coedge $-1 $578 $688 $617 $710 forward $350 $-1 #
point $-1 0.79250429564678582 1.0275000000000001 0.56000000000000005 #
coedge $-1 $583 $717 $757 $760 reversed $584 $-1 #
coedge $-1 $757 $757 $586 $680 forward $668 $-1 #
edge $-1 $761 0 $681 3.1415926535897931 $679 $762 forward 7 unknown #
vertex $-1 $680 $763 #
straight-curve $-1 0.31550000000000011 0.68500000000000005 -3.7289263473891387e-017 0 1 0 I I #
ellipse-curve $-1 2.1200000000000014 0.17000000000000001 -6.106226635438361e-016 0 -1 0 -0.12807322124472531 0 0.15750000000000061 1 I I #
point $-1 1.917 0.17000000000000001 2.7755575615628914e-017 #
face $-1 $764 $663 $3 $-1 $765 reversed single #
loop $-1 $-1 $744 $595 #
plane-surface $-1 2.8820000000000001 0.17000000000000001 0.1575 0 1 0 0 0 -1 forward_v I I I I #
coedge $-1 $676 $597 $711 $766 forward $350 $-1 #
edge $-1 $604 0 $767 0.7854558995025398 $606 $768 forward 7 unknown #
coedge $-1 $613 $600 $598 $691 forward $695 $-1 #
edge $-1 $602 2.7755575615628914e-017 $615 0.68500000000000005 $598 $769 forward 7 unknown #
face $-1 $469 $713 $3 $-1 $770 reversed single #
plane-surface $-1 2.4044558995025405 -0.20050000000000012 -0.56000000000000005 -0.86602540378443871 0 0.49999999999999989 0.5 0 0.86602540378443893 forward_v I I I I #
coedge $-1 $600 $771 $662 $754 reversed $695 $-1 #
loop $-1 $-1 $771 $764 #
ellipse-curve $-1 2.9434444444443986 0 -2.2759572004815709e-014 0 1 0 -0.32344444444439846 0 -0.18666666666664422 1 I I #
point $-1 2.6200000000000001 0 -0.18666666666666698 #
point $-1 1.6190000000000002 0 0.56000000000000005 #
coedge $-1 $606 $739 $772 $773 forward $554 $-1 #
cone-surface $-1 2.1200000000000001 0.68500000000000005 0 0 -1 0 0.20300000000000001 0 0 1 I I 0 1 0.20300000000000001 forward I I I I #
coedge $-1 $774 $610 $775 $776 reversed $505 $-1 #
coedge $-1 $610 $774 $652 $740 reversed $505 $-1 #
coedge $-1 $648 $777 $610 $704 forward $649 $-1 #
edge $-1 $778 0 $741 0.17000000000000001 $703 $779 forward 7 unknown #
ellipse-curve $-1 2.5786666666666669 0.68500000000000005 0 0 1 0 -0.83200000000000007 0 -0.41999999999999998 1 I I #
coedge $-1 $780 $613 $712 $781 reversed $695 $-1 #
vertex $-1 $614 $782 #
ellipse-curve $-1 2.943444444444447 0.68500000000000005 -1.1102230246251565e-016 0 1 0 -0.32344444444444687 0 -0.18666666666666687 1 I I #
point $-1 2.6200000000000001 0.68500000000000005 -0.18666666666666698 #
edge $-1 $714 0 $644 0.73861827052242091 $676 $783 forward 7 unknown #
coedge $-1 $772 $618 $688 $766 reversed $713 $-1 #
coedge $-1 $618 $772 $706 $781 forward $713 $-1 #
loop $-1 $-1 $712 $692 #
vertex $-1 $710 $784 #
straight-curve $-1 2.6200000000000001 0.68500000000000005 0.18666666666666687 -0.49999999999999972 0 0.86602540378443893 I I #
edge $-1 $718 1.9172099054800856e-016 $673 0.20516229277679723 $623 $785 forward 7 unknown #
coedge $-1 $678 $624 $626 $720 reversed $584 $-1 #
vertex $-1 $716 $786 #
ellipse-curve $-1 0.62000000000000055 1.0275000000000001 1.1102230246251565e-016 0 1 0 0.18521715038902486 0 0.24169165728623954 1 I I #
edge $-1 $761 0 $627 0.34250000000000003 $626 $787 forward 7 unknown #
point $-1 0.9245000000000001 1.0275000000000001 0 #
straight-curve $-1 1.746666666666667 0.68500000000000005 0.41999999999999993 -6.4830541583950747e-016 1 3.2415270791975373e-016 I I #
straight-curve $-1 0.87333333333333341 1.0275000000000001 0.42000000000000004 -0.50000000000000022 0 0.86602540378443849 I I #
straight-curve $-1 1.6658376289801191 1.0275000000000001 0.56000000000000005 0 -1 0 I I #
loop $-1 $788 $789 $636 #
plane-surface $-1 1.7466666666666668 0.34250000000000003 -0.67200000000000004 0 1 0 1 0 0 forward_v I I I I #
coedge $-1 $790 $731 $733 $791 reversed $637 $-1 #
coedge $-1 $733 $639 $789 $792 reversed $536 $-1 #
coedge $-1 $731 $790 $639 $730 forward $637 $-1 #
edge $-1 $793 0 $735 0.34250000000000003 $729 $794 forward 7 unknown #
coedge $-1 $727 $729 $640 $732 forward $637 $-1 #
edge $-1 $735 0 $734 3.1415926535897936 $640 $795 forward 7 unknown #
coedge $-1 $641 $728 $727 $791 forward $536 $-1 #
vertex $-1 $732 $796 #
vertex $-1 $732 $797 #
ellipse-curve $-1 2.1200000000000001 0.68500000000000005 0 0 1 0 -0.30449999999999999 0 0 1 I I #
point $-1 1.7466666666666668 0.68500000000000005 0.42000000000000004 #
point $-1 1.6658376289801191 0.68500000000000005 0.56000000000000016 #
coedge $-1 $699 $652 $780 $798 forward $554 $-1 #
edge $-1 $741 4.4408920985006262e-016 $799 0.35676451463295278 $652 $800 forward 7 unknown #
vertex $-1 $740 $801 #
ellipse-curve $-1 2.1200000000000001 0 5.5511151231257827e-016 0 -1 0 0.12807322124472398 0 0.15749999999999942 1 I I #
coedge $-1 $658 $655 $802 $803 reversed $443 $-1 #
coedge $-1 $804 $805 $655 $745 reversed $686 $-1 #
edge $-1 $747 0 $806 0.8880803551822517 $655 $807 forward 7 unknown #
coedge $-1 $656 $662 $804 $808 forward $663 $-1 #
vertex $-1 $745 $809 #
straight-curve $-1 2.2480732212447241 0.17000000000000001 -0.1575 0 -1 0 I I #
coedge $-1 $810 $810 $658 $750 forward $788 $-1 #
edge $-1 $752 0 $811 3.1415926535897922 $658 $812 forward 7 unknown #
coedge $-1 $802 $659 $810 $813 reversed $649 $-1 #
vertex $-1 $813 $814 #
straight-curve $-1 1.917 0.34250000000000008 2.4859508982594261e-017 0 -1 0 I I #
edge $-1 $664 0 $815 0.17000000000000001 $694 $816 forward 7 unknown #
point $-1 2.6048377358776769 0 -0.15749999999999997 #
cone-surface $-1 1.7053333333333336 1.0275000000000001 0 0 1 0 0.93200000000000027 0 0 1 I I 0 1 0.93200000000000027 forward I I I I #
coedge $-1 $679 $679 $678 $760 forward $668 $-1 #
straight-curve $-1 0.80521715038902542 1.0275000000000001 0.24169165728623979 -3.2415270791975373e-016 1 1.6207635395987687e-016 I I #
point $-1 0.87333333333333341 1.0275000000000001 0.42000000000000004 #
edge $-1 $681 0 $761 3.1415926535897931 $757 $817 forward 7 unknown #
vertex $-1 $680 $818 #
ellipse-curve $-1 0.62000000000000011 0.68500000000000005 0 0 1 0 0.30449999999999999 0 0 1 I I #
point $-1 0.31550000000000011 0.68500000000000005 0 #
face $-1 $599 $695 $3 $-1 $819 reversed single #
plane-surface $-1 2.8820000000000001 0.17000000000000001 -0.1575 0 0 -1 0 -1 0 forward_v I I I I #
edge $-1 $767 0 $714 0.68500000000000005 $688 $820 forward 7 unknown #
vertex $-1 $689 $821 #
straight-curve $-1 1.6190000000000002 0 0.56000000000000005 1 0 0 I I #
straight-curve $-1 2.6200000000000006 -2.7755575615628914e-017 -0.18666666666666704 0 1 0 I I #
plane-surface $-1 2.6200000000000001 -0.20050000000000012 0.18666666666666687 -0.86602540378443871 0 -0.49999999999999989 -0.5 0 0.86602540378443893 forward_v I I I I #
coedge $-1 $694 $822 $823 $824 reversed $695 $-1 #
coedge $-1 $712 $711 $699 $773 reversed $713 $-1 #
edge $-1 $825 0 $767 0.43108820099492029 $699 $826 forward 7 unknown #
coedge $-1 $702 $701 $822 $827 reversed $505 $-1 #
coedge $-1 $805 $823 $701 $776 forward $686 $-1 #
edge $-1 $828 0 $778 0.35676451463295278 $701 $829 forward 7 unknown #
coedge $-1 $703 $802 $805 $830 forward $649 $-1 #
vertex $-1 $704 $831 #
straight-curve $-1 2.2480732212447241 0.17000000000000001 0.1575 2.6122894697062505e-015 -1 0 I I #
coedge $-1 $822 $706 $739 $798 reversed $695 $-1 #
edge $-1 $825 0 $707 0.68500000000000005 $706 $832 forward 7 unknown #
point $-1 2.6200000000000001 0.68500000000000005 0.18666666666666687 #
straight-curve $-1 2.40445589950254 0.68500000000000005 0.56000000000000005 -1 0 0 I I #
point $-1 2.40445589950254 0.68500000000000005 0.56000000000000016 #
ellipse-curve $-1 1.7053333333333336 1.0275000000000001 0 0 1 0 -0.90011618294430817 0 0.24169165728623965 1 I I #
point $-1 0.8052171503890253 1.0275000000000001 0.24169165728623984 #
straight-curve $-1 0.9245000000000001 0.68500000000000005 0 0 1 0 I I #
loop $-1 $-1 $749 $636 #
coedge $-1 $833 $833 $728 $792 forward $725 $-1 #
coedge $-1 $729 $727 $833 $834 reversed $637 $-1 #
edge $-1 $835 0 $734 0.34250000000000003 $727 $836 forward 7 unknown #
edge $-1 $835 0 $793 3.1415926535897931 $789 $837 forward 7 unknown #
vertex $-1 $834 $838 #
straight-curve $-1 2.4245000000000001 0.34250000000000003 0 0 1 0 I I #
ellipse-curve $-1 2.1200000000000001 0.68500000000000005 0 0 1 0 0.30449999999999999 0 1.1102230246251565e-016 1 I I #
point $-1 1.8155000000000001 0.68500000000000005 0 #
point $-1 2.4245000000000001 0.68500000000000005 1.1102230246251565e-016 #
edge $-1 $799 9.9510346105943732e-017 $825 0.088053073137598969 $739 $839 forward 7 unknown #
vertex $-1 $798 $840 #
straight-curve $-1 2.2480732212447241 0 0.1575 1 0 0 I I #
point $-1 2.2480732212447245 0 0.1575 #
coedge $-1 $777 $751 $743 $803 forward $649 $-1 #
edge $-1 $811 5.5511151231257827e-017 $806 0.17249999999999993 $802 $841 forward 7 unknown #
coedge $-1 $823 $744 $746 $808 reversed $686 $-1 #
coedge $-1 $744 $775 $777 $830 reversed $686 $-1 #
vertex $-1 $830 $842 #
ellipse-curve $-1 2.1200000000000028 0.17000000000000001 -1.6375789613221059e-015 0 -1 0 0.12807322124472131 0 -0.15749999999999836 1 I I #
edge $-1 $815 0 $747 0.35676451463295278 $804 $843 forward 7 unknown #
point $-1 2.2480732212447241 0.17000000000000001 -0.1575 #
coedge $-1 $749 $749 $751 $813 forward $788 $-1 #
vertex $-1 $803 $844 #
ellipse-curve $-1 2.1200000000000001 0.34250000000000003 1.1102230246251565e-016 0 -1 0 -0.20300000000000007 0 -1.1102230246251565e-016 1 I I #
edge $-1 $811 0 $752 3.1415926535897931 $751 $845 forward 7 unknown #
point $-1 1.917 0.34250000000000003 0 #
vertex $-1 $754 $846 #
straight-curve $-1 2.6048377358776769 0 -0.1575 0 1 0 I I #
ellipse-curve $-1 0.62000000000000011 0.68500000000000005 0 0 1 0 -0.30449999999999999 0 0 1 I I #
point $-1 0.9245000000000001 0.68500000000000005 0 #
cone-surface $-1 2.9434444444444452 -0.20050000000000012 0 0 1 0 0.37344444444444513 0 0 1 I I 0 1 0.37344444444444513 forward I I I I #
straight-curve $-1 2.40445589950254 0 0.56000000000000005 0 1 0 I I #
point $-1 2.40445589950254 0 0.56000000000000005 #
coedge $-1 $771 $780 $774 $827 forward $695 $-1 #
coedge $-1 $775 $804 $771 $824 forward $686 $-1 #
edge $-1 $815 0 $828 0.87074786332968246 $771 $847 forward 7 unknown #
vertex $-1 $773 $848 #
straight-curve $-1 2.6200000000000001 0 0.18666666666666692 -0.49999999999999989 0 0.86602540378443871 I I #
edge $-1 $799 0 $828 0.17000000000000001 $822 $849 forward 7 unknown #
vertex $-1 $827 $850 #
straight-curve $-1 2.6048377358776769 0.17000000000000001 0.1575 -1 0 0 I I #
edge $-1 $806 2.7345394695200502e-016 $778 0.88808035518222472 $777 $851 forward 7 unknown #
point $-1 2.2480732212447241 0.17000000000000001 0.1575 #
straight-curve $-1 2.6200000000000001 0 0.18666666666666687 0 1 0 I I #
coedge $-1 $789 $789 $790 $834 forward $725 $-1 #
edge $-1 $793 0 $835 3.1415926535897931 $833 $852 forward 7 unknown #
vertex $-1 $834 $853 #
straight-curve $-1 1.8155000000000001 0.34250000000000003 -3.7289263473891387e-017 0 1 0 I I #
ellipse-curve $-1 2.1200000000000001 0.34250000000000003 0 0 1 0 -0.30449999999999999 0 0 1 I I #
point $-1 2.4245000000000001 0.34250000000000003 0 #
ellipse-curve $-1 2.9434444444443155 0 6.5614180755346752e-014 0 1 0 -0.33860670856663866 0 0.15749999999993436 1 I I #
point $-1 2.6048377358776769 0 0.1575 #
straight-curve $-1 2.323 0.34250000000000008 0 0 -1 0 I I #
point $-1 2.323 0.17000000000000015 0 #
straight-curve $-1 2.6048377358776769 0.17000000000000001 -0.1575 -1 0 0 I I #
point $-1 2.323 0.34250000000000003 0 #
ellipse-curve $-1 2.1200000000000001 0.34250000000000003 0 0 -1 0 0.20299999999999985 0 0 1 I I #
point $-1 2.6048377358776769 0.17000000000000001 -0.1575 #
ellipse-curve $-1 2.9434444444444487 0.17000000000000001 0 0 1 0 -0.33860670856677189 0 -0.1575 1 I I #
point $-1 2.6200000000000001 0 0.18666666666666692 #
straight-curve $-1 2.6048377358776769 0 0.1575 0 1 0 I I #
point $-1 2.6048377358776769 0.17000000000000001 0.1575 #
ellipse-curve $-1 2.119999999999997 0.17000000000000001 -1.2212453270876722e-015 0 -1 0 0.20300000000000296 0 1.1657341758564144e-015 1 I I #
ellipse-curve $-1 2.1200000000000001 0.34250000000000003 0 0 1 0 0.30449999999999999 0 0 1 I I #
point $-1 1.8155000000000001 0.34250000000000003 0 #
End-of-ACIS-data 