600 0 1 0           
112 GICL ACIS Healer - Source: /gicl/data5/repository/PTC/V20/web_demos/models/multi_axis/multi_chuck6.prt.sat - 6 0 18 ACIS 6.0.3 Solaris 24 Sat Apr 13 20:48:24 2002 
1 9.999999999999999547e-07 1.000000000000000036e-10 
body $-1 $1 $-1 $-1 #
lump $-1 $-1 $2 $0 #
shell $-1 $-1 $-1 $3 $-1 $1 #
face $-1 $4 $5 $2 $-1 $6 reversed single #
face $-1 $7 $8 $2 $-1 $9 reversed single #
loop $-1 $-1 $10 $3 #
plane-surface $-1 0 0 0 0 0 1 25.39999999999999858 0 0 forward_v I I I I #
face $-1 $11 $12 $2 $-1 $13 reversed single #
loop $-1 $-1 $14 $4 #
cone-surface $-1 0 0 0 0 0 1 17.52599999999999625 0 0 1 I I 0 1 17.52599999999999625 forward I I I I #
coedge $-1 $15 $16 $17 $18 reversed $5 $-1 #
face $-1 $19 $20 $2 $-1 $21 reversed single #
loop $-1 $-1 $22 $7 #
plane-surface $-1 99.05999999999998806 -14.2240000000000002 6.519333333333336533 0 0 1 0 25.39999999999999858 0 forward_v I I I I #
coedge $-1 $23 $24 $25 $26 reversed $8 $-1 #
coedge $-1 $27 $10 $28 $29 forward $5 $-1 #
coedge $-1 $10 $27 $30 $31 forward $5 $-1 #
coedge $-1 $24 $32 $10 $18 forward $8 $-1 #
edge $-1 $33 -2.359525965085786494e-15 $34 0.2006436421352256472 $10 $35 forward 7 unknown #
face $-1 $36 $37 $2 $-1 $38 reversed single #
loop $-1 $-1 $39 $11 #
plane-surface $-1 99.05999999999998806 -9.482666666666666799 6.519333333333336533 0 -1 0 0 0 25.39999999999999858 forward_v I I I I #
coedge $-1 $25 $40 $41 $42 reversed $12 $-1 #
coedge $-1 $43 $14 $44 $45 forward $8 $-1 #
coedge $-1 $14 $17 $46 $47 forward $8 $-1 #
coedge $-1 $48 $22 $14 $26 forward $12 $-1 #
edge $-1 $49 0 $50 0.3751753710273415532 $14 $51 forward 7 unknown #
coedge $-1 $16 $15 $52 $53 reversed $5 $-1 #
coedge $-1 $54 $55 $15 $29 reversed $56 $-1 #
edge $-1 $33 0 $57 2.798277435554141768 $15 $58 forward 7 unknown #
coedge $-1 $59 $46 $16 $31 reversed $60 $-1 #
edge $-1 $61 0 $34 2.798277435554141324 $16 $62 forward 7 unknown #
coedge $-1 $17 $63 $54 $64 reversed $8 $-1 #
vertex $-1 $29 $65 #
vertex $-1 $31 $66 #
ellipse-curve $-1 0 0 0 0 0 -1 -7.198811673260297361 -15.97929242779326664 0 1 I I #
face $-1 $67 $68 $2 $-1 $69 reversed single #
loop $-1 $-1 $70 $19 #
plane-surface $-1 99.05999999999998806 -9.482666666666666799 18.11866666666667314 0 0 -1 0 -25.39999999999999858 0 forward_v I I I I #
coedge $-1 $44 $71 $72 $73 reversed $20 $-1 #
coedge $-1 $22 $48 $74 $75 reversed $12 $-1 #
coedge $-1 $71 $44 $22 $42 forward $20 $-1 #
edge $-1 $49 0 $76 2.648208346014512937 $22 $77 forward 7 unknown #
coedge $-1 $78 $23 $79 $80 forward $8 $-1 #
coedge $-1 $41 $39 $23 $45 reversed $20 $-1 #
edge $-1 $49 0 $81 0.4566666666666668317 $23 $82 forward 7 unknown #
coedge $-1 $30 $83 $24 $47 reversed $60 $-1 #
edge $-1 $34 8.318977487566908003e-31 $50 0.2566666666666668206 $24 $84 forward 7 unknown #
coedge $-1 $40 $25 $83 $85 forward $12 $-1 #
vertex $-1 $45 $86 #
vertex $-1 $47 $87 #
ellipse-curve $-1 -2.255973186038317964e-14 -2.255973186038317964e-14 6.519333333333336533 0 0 1 -14.7390538668154818 -9.482666666666643707 0 1 I I #
coedge $-1 $88 $89 $27 $53 forward $90 $-1 #
edge $-1 $61 0 $57 1.74805125523300009 $27 $91 forward 7 unknown #
coedge $-1 $92 $28 $32 $64 forward $56 $-1 #
coedge $-1 $28 $92 $88 $93 reversed $56 $-1 #
loop $-1 $-1 $28 $94 #
vertex $-1 $53 $95 #
straight-curve $-1 -7.198811673260256505 -15.9792924277932773 0 12.69999999999999751 -21.99704525612473915 0 I I #
coedge $-1 $83 $30 $89 $96 forward $60 $-1 #
loop $-1 $-1 $83 $97 #
vertex $-1 $31 $98 #
straight-curve $-1 -81.31531420341434568 -14.2240000000000002 0 25.39999999999999858 0 0 I I #
coedge $-1 $32 $99 $100 $101 reversed $8 $-1 #
edge $-1 $33 3.630099267301923795e-31 $102 0.2566666666666668206 $32 $103 forward 7 unknown #
point $-1 -7.198811673260256505 -15.9792924277932773 0 #
point $-1 -10.23906734033915633 -14.2240000000000002 0 #
face $-1 $104 $105 $2 $-1 $106 reversed single #
loop $-1 $-1 $107 $36 #
plane-surface $-1 99.05999999999998806 -14.2240000000000002 18.11866666666667314 0 -1 0 0 0 25.39999999999999858 forward_v I I I I #
coedge $-1 $79 $108 $109 $110 reversed $37 $-1 #
coedge $-1 $39 $41 $111 $112 forward $20 $-1 #
coedge $-1 $108 $79 $39 $73 forward $37 $-1 #
edge $-1 $81 0 $113 2.648208346014512493 $39 $114 forward 7 unknown #
coedge $-1 $89 $111 $40 $75 forward $90 $-1 #
edge $-1 $76 3.336614454879529387e-17 $115 0.05804598433576963618 $74 $116 forward 7 unknown #
vertex $-1 $75 $117 #
straight-curve $-1 -14.73905386681550489 -9.482666666666666799 6.519333333333336533 -25.39999999999999858 0 0 I I #
coedge $-1 $118 $43 $119 $120 forward $8 $-1 #
coedge $-1 $72 $70 $43 $80 reversed $37 $-1 #
edge $-1 $81 9.253043000336264856e-17 $121 0.3751753710273380005 $43 $122 forward 7 unknown #
vertex $-1 $80 $123 #
straight-curve $-1 -14.73905386681550489 -9.482666666666666799 6.519333333333336533 0 0 25.39999999999999858 I I #
coedge $-1 $46 $59 $48 $85 reversed $60 $-1 #
straight-curve $-1 -10.23906734033916877 -14.22399999999998954 0 5.493441199768628045e-15 -4.394752959814902436e-14 25.39999999999999858 I I #
edge $-1 $50 0 $115 2.798277435554141768 $83 $124 forward 7 unknown #
point $-1 -14.73905386681550489 -9.482666666666666799 6.519333333333336533 #
point $-1 -10.23906734033916877 -14.2240000000000002 6.519333333333336533 #
coedge $-1 $125 $52 $55 $93 forward $90 $-1 #
coedge $-1 $52 $74 $59 $96 reversed $90 $-1 #
loop $-1 $-1 $52 $126 #
ellipse-curve $-1 0 0 0 0 0 1 -81.31531420341434568 -14.2240000000000002 0 1 I I #
coedge $-1 $55 $54 $127 $128 forward $56 $-1 #
edge $-1 $57 3.872105885122051814e-30 $129 0.2566666666666668206 $88 $130 forward 7 unknown #
face $-1 $131 $56 $2 $-1 $132 reversed single #
point $-1 28.3393117582773435 -77.53312781687041877 0 #
edge $-1 $61 1.936052942561026257e-30 $115 0.2566666666666668206 $89 $133 forward 7 unknown #
face $-1 $-1 $60 $2 $-1 $134 reversed single #
point $-1 -81.31531420341434568 -14.2240000000000002 0 #
coedge $-1 $63 $135 $136 $137 reversed $8 $-1 #
coedge $-1 $138 $127 $63 $101 forward $139 $-1 #
edge $-1 $102 -6.014477950219096687e-16 $140 0.3751753710273544318 $63 $141 forward 7 unknown #
vertex $-1 $64 $142 #
straight-curve $-1 -7.198811673260261834 -15.97929242779328263 0 2.197376479907451218e-14 2.197376479907451218e-14 25.39999999999999858 I I #
face $-1 $143 $144 $2 $-1 $145 reversed single #
loop $-1 $-1 $146 $67 #
plane-surface $-1 99.05999999999998806 -14.2240000000000002 29.71800000000000352 0 0 1 0 25.39999999999999858 0 forward_v I I I I #
coedge $-1 $119 $147 $148 $149 reversed $68 $-1 #
coedge $-1 $70 $72 $150 $151 forward $37 $-1 #
coedge $-1 $147 $119 $70 $110 forward $68 $-1 #
edge $-1 $121 0 $152 2.79827743555414088 $70 $153 forward 7 unknown #
coedge $-1 $74 $150 $71 $112 reversed $90 $-1 #
edge $-1 $76 0 $113 0.4566666666666668317 $111 $154 forward 7 unknown #
vertex $-1 $112 $155 #
straight-curve $-1 -14.73905386681550489 -9.482666666666666799 18.11866666666667314 -25.39999999999999858 0 0 I I #
vertex $-1 $96 $156 #
ellipse-curve $-1 1.884865596935014506e-11 3.135802728593262065e-12 6.519333333333336533 0 0 1 -82.0035458556029937 -9.482666666669802069 0 1 I I #
point $-1 -82.00354585558413589 -9.482666666666666799 6.519333333333336533 #
coedge $-1 $157 $78 $158 $159 reversed $8 $-1 #
coedge $-1 $109 $107 $78 $120 reversed $68 $-1 #
edge $-1 $121 0 $160 0.4566666666666665542 $78 $161 forward 7 unknown #
vertex $-1 $120 $162 #
ellipse-curve $-1 1.015187933717243115e-13 9.164891068280667241e-14 18.11866666666667314 0 0 1 -14.73905386681560614 -9.482666666666757394 0 1 I I #
point $-1 -14.73905386681550489 -9.482666666666666799 18.11866666666667314 #
straight-curve $-1 -10.23906734033916877 -14.2240000000000002 6.519333333333336533 -25.39999999999999858 0 0 I I #
coedge $-1 $163 $88 $164 $165 forward $90 $-1 #
face $-1 $94 $90 $2 $-1 $166 forward single #
coedge $-1 $100 $164 $92 $128 reversed $139 $-1 #
edge $-1 $102 -1.014644553796845543e-15 $129 2.798277435554141324 $127 $167 forward 7 unknown #
vertex $-1 $165 $168 #
straight-curve $-1 28.3393117582773435 -77.53312781687040456 0 8.789505919629804873e-14 -1.757901183925960975e-13 25.39999999999999858 I I #
face $-1 $169 $139 $2 $-1 $170 reversed single #
plane-surface $-1 -78.48851670578568474 107.4980987451394441 6.519333333333336533 -0.8660254037844387076 -0.5 0 0 0 -25.39999999999999858 forward_v I I I I #
straight-curve $-1 -81.31531420341435989 -14.22399999999997888 0 -4.394752959814902436e-14 -8.789505919629804873e-14 25.39999999999999858 I I #
plane-surface $-1 99.05999999999998806 -14.2240000000000002 -5.079999999999999183 0 -1 0 0 0 25.39999999999999858 forward_v I I I I #
coedge $-1 $99 $171 $172 $173 forward $8 $-1 #
coedge $-1 $174 $175 $99 $137 forward $176 $-1 #
edge $-1 $140 0 $177 0.4566666666666668317 $99 $178 forward 7 unknown #
coedge $-1 $164 $100 $175 $179 forward $139 $-1 #
loop $-1 $-1 $127 $131 #
vertex $-1 $101 $180 #
ellipse-curve $-1 -1.015187933717243115e-13 -6.091127602303458439e-13 6.519333333333336533 0 0 1 -7.198811673260155253 -15.97929242779264492 0 1 I I #
point $-1 -7.198811673260268051 -15.97929242779325421 6.519333333333336533 #
face $-1 $181 $182 $2 $-1 $183 reversed single #
loop $-1 $-1 $184 $104 #
plane-surface $-1 99.05999999999998806 14.2240000000000002 29.71800000000000352 0 1 0 0 0 -25.39999999999999858 forward_v I I I I #
coedge $-1 $185 $186 $187 $188 reversed $105 $-1 #
coedge $-1 $107 $109 $189 $190 forward $68 $-1 #
coedge $-1 $191 $158 $107 $149 forward $105 $-1 #
edge $-1 $160 0 $192 2.798277435554141768 $107 $193 forward 7 unknown #
coedge $-1 $111 $189 $108 $151 reversed $90 $-1 #
edge $-1 $113 1.668307227439743123e-17 $152 0.0580459843357692476 $150 $194 forward 7 unknown #
vertex $-1 $151 $195 #
straight-curve $-1 -10.23906734033916877 -14.2240000000000002 18.11866666666667314 -25.39999999999999858 0 0 I I #
straight-curve $-1 -82.00354585558412168 -9.482666666666666799 6.519333333333336533 0 0 25.39999999999999858 I I #
point $-1 -82.00354585558412168 -9.482666666666666799 18.11866666666667314 #
point $-1 -81.31531420341435989 -14.2240000000000002 6.519333333333336533 #
coedge $-1 $196 $118 $197 $198 forward $8 $-1 #
coedge $-1 $148 $185 $118 $159 forward $105 $-1 #
edge $-1 $199 0 $160 0.9468757301289821848 $118 $200 forward 7 unknown #
vertex $-1 $159 $201 #
straight-curve $-1 -10.23906734033916877 -14.2240000000000002 18.11866666666667314 0 0 25.39999999999999858 I I #
point $-1 -10.23906734033916877 -14.2240000000000002 18.11866666666667314 #
coedge $-1 $202 $125 $203 $204 forward $90 $-1 #
coedge $-1 $127 $138 $125 $165 reversed $139 $-1 #
edge $-1 $129 6.673228909764732409e-17 $205 0.05804598433579451905 $125 $206 forward 7 unknown #
cone-surface $-1 0 0 0 0 0 1 82.54999999999999716 0 0 1 I I 0 1 82.54999999999999716 forward I I I I #
straight-curve $-1 -7.198811673260256505 -15.9792924277932773 6.519333333333336533 12.70000000000000462 -21.99704525612474271 0 I I #
point $-1 28.33931175827732929 -77.53312781687041877 6.519333333333336533 #
face $-1 $207 $176 $2 $-1 $208 reversed single #
plane-surface $-1 -74.38240159130906193 109.8687654118061232 6.519333333333336533 0 0 1 -21.99704525612474271 -12.69999999999999929 0 forward_v I I I I #
coedge $-1 $135 $209 $210 $211 reversed $8 $-1 #
coedge $-1 $212 $213 $135 $173 reversed $214 $-1 #
edge $-1 $215 0 $177 0.3751753710273486586 $135 $216 forward 7 unknown #
coedge $-1 $203 $136 $213 $217 forward $176 $-1 #
coedge $-1 $136 $203 $138 $179 reversed $176 $-1 #
loop $-1 $-1 $175 $169 #
vertex $-1 $137 $218 #
straight-curve $-1 -0.8427032955454651919 -17.50572840974282585 6.519333333333336533 0 0 25.39999999999999858 I I #
edge $-1 $140 -9.475223647102068486e-16 $205 2.648208346014512937 $175 $219 forward 7 unknown #
point $-1 -0.8427032955454764052 -17.50572840974280453 6.519333333333336533 #
face $-1 $220 $221 $2 $-1 $222 reversed single #
loop $-1 $-1 $223 $143 #
plane-surface $-1 99.05999999999998806 14.2240000000000002 18.11866666666667314 0 0 -1 0 -25.39999999999999858 0 forward_v I I I I #
coedge $-1 $224 $225 $226 $227 reversed $144 $-1 #
coedge $-1 $158 $146 $228 $229 forward $105 $-1 #
coedge $-1 $146 $191 $230 $231 reversed $105 $-1 #
coedge $-1 $225 $224 $146 $188 forward $144 $-1 #
edge $-1 $232 0 $233 2.798277435554141768 $146 $234 forward 7 unknown #
coedge $-1 $150 $235 $147 $190 reversed $90 $-1 #
edge $-1 $152 0 $192 0.4566666666666665542 $189 $236 forward 7 unknown #
coedge $-1 $186 $148 $235 $237 reversed $105 $-1 #
vertex $-1 $190 $238 #
straight-curve $-1 -10.23906734033916877 -14.2240000000000002 29.71800000000000352 -25.39999999999999858 0 0 I I #
ellipse-curve $-1 1.93788096680691511e-11 3.21053184038078119e-12 18.11866666666667314 0 0 1 -82.0035458556035195 -9.482666666669876676 0 1 I I #
point $-1 -81.31531420341434568 -14.2240000000000002 18.11866666666667314 #
coedge $-1 $239 $157 $240 $241 reversed $8 $-1 #
coedge $-1 $228 $242 $157 $198 reversed $243 $-1 #
edge $-1 $199 0 $244 1.570000000000000062 $157 $245 forward 7 unknown #
vertex $-1 $198 $246 #
ellipse-curve $-1 3.38395977905747663e-14 5.63993296509579491e-15 29.71800000000000352 0 0 1 -17.52600000000003178 -2.819966482547897455e-15 0 1 I I #
point $-1 -10.23906734033916877 -14.2240000000000002 29.71800000000000352 #
coedge $-1 $247 $163 $248 $249 reversed $90 $-1 #
coedge $-1 $175 $174 $163 $204 reversed $176 $-1 #
edge $-1 $205 0 $250 0.4566666666666668317 $163 $251 forward 7 unknown #
vertex $-1 $204 $252 #
ellipse-curve $-1 6.023448406722308654e-12 -1.484430356413213368e-11 6.519333333333336533 0 0 1 28.33931175827130744 -77.53312781685558264 0 1 I I #
face $-1 $253 $214 $2 $-1 $254 reversed single #
plane-surface $-1 -74.38240159130906193 109.8687654118061232 18.11866666666667314 -0.8660254037844387076 -0.5 0 0 0 -25.39999999999999858 forward_v I I I I #
coedge $-1 $171 $255 $256 $257 reversed $8 $-1 #
coedge $-1 $258 $259 $171 $211 forward $260 $-1 #
edge $-1 $215 0 $261 0.4566666666666665542 $171 $262 forward 7 unknown #
coedge $-1 $248 $172 $259 $263 forward $214 $-1 #
coedge $-1 $172 $248 $174 $217 reversed $214 $-1 #
loop $-1 $-1 $213 $207 #
vertex $-1 $173 $264 #
ellipse-curve $-1 -3.38395977905747663e-14 -3.158362460453645023e-13 18.11866666666667314 0 0 1 -7.198811673260234301 -15.97929242779293801 0 1 I I #
edge $-1 $177 0 $250 2.648208346014513825 $213 $265 forward 7 unknown #
point $-1 -0.8427032955454764052 -17.50572840974280453 18.11866666666667314 #
straight-curve $-1 -0.8427032955454651919 -17.50572840974282585 6.519333333333336533 12.69999999999999929 -21.99704525612473915 0 I I #
face $-1 $266 $267 $2 $-1 $268 reversed single #
loop $-1 $-1 $269 $181 #
plane-surface $-1 99.05999999999998806 9.482666666666666799 18.11866666666667314 0 1 0 0 0 -25.39999999999999858 forward_v I I I I #
coedge $-1 $270 $271 $272 $273 reversed $182 $-1 #
coedge $-1 $187 $184 $274 $275 forward $144 $-1 #
coedge $-1 $184 $187 $276 $277 reversed $144 $-1 #
coedge $-1 $271 $270 $184 $227 forward $182 $-1 #
edge $-1 $278 0 $279 2.79827743555414088 $184 $280 forward 7 unknown #
coedge $-1 $274 $197 $185 $229 reversed $243 $-1 #
edge $-1 $232 9.253043000336497817e-17 $199 0.9468757301289884021 $228 $281 forward 7 unknown #
coedge $-1 $282 $276 $186 $231 forward $283 $-1 #
edge $-1 $233 0 $284 0.1731719235801107704 $230 $285 forward 7 unknown #
vertex $-1 $229 $286 #
vertex $-1 $231 $287 #
straight-curve $-1 -10.23906734033916877 14.2240000000000002 29.71800000000000352 -25.39999999999999858 0 0 I I #
coedge $-1 $189 $288 $191 $237 forward $90 $-1 #
straight-curve $-1 -81.31531420341435989 -14.2240000000000002 18.11866666666667314 0 0 25.39999999999999858 I I #
edge $-1 $284 0 $192 0.1731719235801056356 $235 $289 forward 7 unknown #
point $-1 -81.31531420341435989 -14.2240000000000002 29.71800000000000352 #
coedge $-1 $290 $196 $291 $292 reversed $8 $-1 #
coedge $-1 $293 $293 $196 $241 forward $294 $-1 #
edge $-1 $295 0 $244 3.141592653589793116 $240 $296 forward 7 unknown #
coedge $-1 $197 $291 $293 $297 reversed $243 $-1 #
loop $-1 $-1 $274 $298 #
vertex $-1 $241 $299 #
straight-curve $-1 -17.52599999999999625 2.146245095709097812e-15 29.71800000000000352 0 0 25.39999999999999858 I I #
point $-1 -17.52599999999999625 2.819966482547897455e-15 29.71800000000000352 #
coedge $-1 $300 $202 $301 $302 forward $90 $-1 #
coedge $-1 $213 $212 $202 $249 forward $214 $-1 #
edge $-1 $303 6.673228909763138664e-17 $250 0.05804598433578753852 $202 $304 forward 7 unknown #
vertex $-1 $249 $305 #
straight-curve $-1 32.78954269883885075 -75.7584872446713149 6.519333333333336533 0 0 25.39999999999999858 I I #
point $-1 32.78954269883885075 -75.7584872446713149 6.519333333333336533 #
face $-1 $306 $260 $2 $-1 $307 reversed single #
plane-surface $-1 -78.48851670578568474 107.4980987451394441 18.11866666666667314 0 0 -1 21.99704525612474271 12.69999999999999929 0 forward_v I I I I #
coedge $-1 $209 $308 $309 $310 forward $8 $-1 #
coedge $-1 $311 $312 $209 $257 forward $313 $-1 #
edge $-1 $261 0 $314 1.893751460257977914 $209 $315 forward 7 unknown #
coedge $-1 $301 $210 $312 $316 forward $260 $-1 #
coedge $-1 $210 $301 $212 $263 reversed $260 $-1 #
loop $-1 $-1 $259 $253 #
vertex $-1 $211 $317 #
straight-curve $-1 -7.198811673260244959 -15.97929242779330039 18.11866666666667314 0 0 25.39999999999999858 I I #
edge $-1 $215 -1.014644553796845543e-15 $303 2.798277435554141324 $259 $318 forward 7 unknown #
point $-1 -7.198811673260268051 -15.97929242779325421 18.11866666666667314 #
straight-curve $-1 -0.8427032955454764052 -17.50572840974280453 18.11866666666667314 12.69999999999999218 -21.99704525612474626 0 I I #
face $-1 $319 $320 $2 $-1 $321 reversed single #
loop $-1 $-1 $322 $220 #
plane-surface $-1 99.05999999999998806 9.482666666666666799 6.519333333333336533 0 0 1 0 25.39999999999999858 0 forward_v I I I I #
coedge $-1 $323 $324 $325 $326 reversed $221 $-1 #
coedge $-1 $226 $223 $327 $328 reversed $182 $-1 #
coedge $-1 $223 $226 $329 $330 forward $182 $-1 #
coedge $-1 $324 $323 $223 $273 forward $221 $-1 #
edge $-1 $331 0 $332 2.648208346014512937 $223 $333 forward 7 unknown #
coedge $-1 $327 $228 $224 $275 reversed $243 $-1 #
edge $-1 $278 0 $232 0.4566666666666665542 $274 $334 forward 7 unknown #
coedge $-1 $230 $329 $225 $277 forward $283 $-1 #
edge $-1 $279 0 $233 0.4566666666666665542 $276 $335 forward 7 unknown #
vertex $-1 $328 $336 #
vertex $-1 $277 $337 #
straight-curve $-1 -10.23906734033916877 14.2240000000000002 18.11866666666667314 -25.39999999999999858 0 0 I I #
ellipse-curve $-1 -7.895906151134112558e-14 5.075939668586215577e-14 29.71800000000000352 0 0 1 -10.23906734033908883 14.22399999999995046 0 1 I I #
coedge $-1 $338 $230 $288 $339 forward $283 $-1 #
loop $-1 $-1 $282 $340 #
vertex $-1 $231 $341 #
ellipse-curve $-1 -6.158806797884608225e-12 6.965317211893306296e-13 29.71800000000000352 0 0 1 -81.31531420340820659 14.22399999999930387 0 1 I I #
point $-1 -10.23906734033916877 14.2240000000000002 29.71800000000000352 #
point $-1 -81.31531420341435989 14.2240000000000002 29.71800000000000352 #
coedge $-1 $235 $342 $282 $339 reversed $90 $-1 #
ellipse-curve $-1 -3.71107589103303342e-12 -4.850342349982384096e-13 29.71800000000000352 0 0 1 -82.54999999999627391 4.850342349982384096e-13 0 1 I I #
coedge $-1 $343 $239 $344 $345 forward $8 $-1 #
coedge $-1 $242 $346 $239 $292 forward $243 $-1 #
edge $-1 $347 1.042318933809517329e-32 $295 2.740000000000000213 $239 $348 forward 7 unknown #
coedge $-1 $240 $240 $242 $297 forward $294 $-1 #
loop $-1 $-1 $293 $349 #
vertex $-1 $241 $350 #
ellipse-curve $-1 0 -7.049916206369743637e-16 69.59600000000000364 0 0 -1 17.52599999999999625 7.049916206369743637e-16 0 1 I I #
edge $-1 $244 0 $295 3.141592653589793116 $293 $351 forward 7 unknown #
face $-1 $352 $243 $2 $-1 $353 reversed single #
point $-1 -17.52599999999999625 0 69.59600000000000364 #
coedge $-1 $354 $247 $355 $356 reversed $90 $-1 #
coedge $-1 $259 $258 $247 $302 reversed $260 $-1 #
edge $-1 $303 0 $357 0.4566666666666665542 $247 $358 forward 7 unknown #
vertex $-1 $302 $359 #
ellipse-curve $-1 2.391331577200616852e-12 -5.685052428816560941e-12 18.11866666666667314 0 0 1 28.33931175827494897 -77.53312781686473443 0 1 I I #
point $-1 32.78954269883886496 -75.7584872446713149 18.11866666666667314 #
face $-1 $360 $313 $2 $-1 $361 reversed single #
plane-surface $-1 -78.48851670578568474 107.4980987451394441 29.71800000000000352 -0.8660254037844387076 -0.5 0 0 0 -25.39999999999999858 forward_v I I I I #
coedge $-1 $255 $362 $363 $364 forward $8 $-1 #
coedge $-1 $365 $366 $255 $310 reversed $367 $-1 #
edge $-1 $368 0 $314 0.4566666666666665542 $255 $369 forward 7 unknown #
coedge $-1 $355 $256 $366 $370 forward $313 $-1 #
coedge $-1 $256 $355 $258 $316 reversed $313 $-1 #
loop $-1 $-1 $312 $306 #
vertex $-1 $257 $371 #
ellipse-curve $-1 7.895906151134112558e-14 -9.023892744153271856e-14 29.71800000000000352 0 0 1 -7.198811673260335553 -15.9792924277931867 0 1 I I #
edge $-1 $261 -7.873548007239789577e-16 $357 2.798277435554139547 $312 $372 forward 7 unknown #
point $-1 -7.198811673260256505 -15.9792924277932773 29.71800000000000352 #
straight-curve $-1 -7.198811673260256505 -15.9792924277932773 18.11866666666667314 12.70000000000000462 -21.99704525612474271 0 I I #
face $-1 $340 $373 $2 $-1 $374 reversed single #
loop $-1 $-1 $375 $266 #
plane-surface $-1 99.05999999999998806 14.2240000000000002 6.519333333333336533 0 1 0 0 0 -25.39999999999999858 forward_v I I I I #
coedge $-1 $376 $377 $378 $379 reversed $267 $-1 #
coedge $-1 $272 $269 $380 $381 forward $221 $-1 #
coedge $-1 $269 $272 $382 $383 reversed $221 $-1 #
coedge $-1 $377 $376 $269 $326 forward $267 $-1 #
edge $-1 $384 0 $385 2.648208346014512937 $269 $386 forward 7 unknown #
coedge $-1 $380 $274 $270 $328 forward $243 $-1 #
edge $-1 $278 9.253043000336555748e-17 $331 0.3751753710273439957 $327 $387 forward 7 unknown #
coedge $-1 $276 $382 $271 $330 reversed $283 $-1 #
edge $-1 $279 -6.67322890976390657e-17 $332 0.05804598433579069572 $329 $388 forward 7 unknown #
vertex $-1 $381 $389 #
vertex $-1 $330 $390 #
straight-curve $-1 -14.73905386681550489 9.482666666666666799 18.11866666666667314 -25.39999999999999858 0 0 I I #
straight-curve $-1 -10.23906734033916877 14.2240000000000002 18.11866666666667314 0 0 25.39999999999999858 I I #
straight-curve $-1 -81.31531420341434568 14.2240000000000002 18.11866666666667314 0 0 25.39999999999999858 I I #
point $-1 -10.23906734033916877 14.2240000000000002 18.11866666666667314 #
point $-1 -81.31531420341434568 14.2240000000000002 18.11866666666667314 #
coedge $-1 $391 $282 $392 $393 reversed $283 $-1 #
edge $-1 $284 0 $394 1.570000000000000062 $282 $395 forward 7 unknown #
face $-1 $126 $283 $2 $-1 $396 forward single #
point $-1 -82.54999999999998295 0 29.71800000000000352 #
coedge $-1 $288 $397 $398 $399 reversed $90 $-1 #
coedge $-1 $400 $290 $401 $402 forward $8 $-1 #
coedge $-1 $403 $404 $290 $345 reversed $405 $-1 #
edge $-1 $347 2.449212707644754516e-16 $406 0.100321821067613004 $344 $407 forward 7 unknown #
coedge $-1 $291 $408 $403 $409 forward $243 $-1 #
vertex $-1 $409 $410 #
straight-curve $-1 17.52599999999999625 0 0 0 -1.566602259641677134e-15 25.39999999999999858 I I #
face $-1 $97 $411 $2 $-1 $412 forward single #
point $-1 17.52599999999999625 0 69.59600000000000364 #
ellipse-curve $-1 7.049916206369743637e-16 -1.409983241273948727e-15 69.59600000000000364 0 0 -1 -17.52599999999999625 1.409983241273948727e-15 0 1 I I #
face $-1 $413 $414 $2 $-1 $415 reversed single #
cone-surface $-1 0 0 0 0 0 1 17.52599999999999625 0 0 1 I I 0 1 17.52599999999999625 forward I I I I #
coedge $-1 $416 $300 $417 $418 reversed $90 $-1 #
coedge $-1 $312 $311 $300 $356 forward $313 $-1 #
edge $-1 $419 -2.669291563904867938e-16 $357 0.3463438471601968383 $300 $420 forward 7 unknown #
vertex $-1 $356 $421 #
straight-curve $-1 28.33931175827736482 -77.53312781687044719 18.11866666666667314 0 0 25.39999999999999858 I I #
point $-1 28.3393117582773435 -77.53312781687041877 18.11866666666667314 #
face $-1 $422 $367 $2 $-1 $423 reversed single #
plane-surface $-1 -53.8518260189259621 121.722098745139462 29.71800000000000352 0 0 1 -21.99704525612474271 -12.69999999999999929 0 forward_v I I I I #
coedge $-1 $308 $400 $424 $425 forward $8 $-1 #
coedge $-1 $426 $427 $308 $364 reversed $428 $-1 #
edge $-1 $429 0 $368 0.3751753710273271758 $308 $430 forward 7 unknown #
coedge $-1 $417 $309 $427 $431 forward $367 $-1 #
coedge $-1 $309 $417 $311 $370 reversed $367 $-1 #
loop $-1 $-1 $366 $360 #
vertex $-1 $310 $432 #
straight-curve $-1 17.43787901359947057 -1.755292427793287757 18.11866666666667314 0 0 25.39999999999999858 I I #
edge $-1 $314 0 $419 2.798277435554141324 $366 $433 forward 7 unknown #
point $-1 17.43787901359947057 -1.755292427793287757 29.71800000000000352 #
straight-curve $-1 -7.198811673260256505 -15.97929242779330039 29.71800000000000352 12.70000000000000284 -21.99704525612473915 0 I I #
loop $-1 $-1 $434 $319 #
plane-surface $-1 0 0 0 0 0 1 25.39999999999999858 0 0 forward_v I I I I #
coedge $-1 $435 $436 $437 $438 forward $320 $-1 #
coedge $-1 $325 $322 $439 $440 forward $267 $-1 #
coedge $-1 $322 $325 $441 $442 reversed $267 $-1 #
coedge $-1 $436 $435 $322 $379 forward $320 $-1 #
edge $-1 $443 0 $444 2.798277435554141768 $322 $445 forward 7 unknown #
coedge $-1 $439 $327 $323 $381 reversed $243 $-1 #
edge $-1 $384 0 $331 0.4566666666666668317 $380 $446 forward 7 unknown #
coedge $-1 $329 $441 $324 $383 forward $283 $-1 #
edge $-1 $385 0 $332 0.4566666666666668317 $382 $447 forward 7 unknown #
vertex $-1 $440 $448 #
vertex $-1 $383 $449 #
straight-curve $-1 -14.73905386681550489 9.482666666666666799 6.519333333333336533 -25.39999999999999858 0 0 I I #
ellipse-curve $-1 -1.015187933717243115e-13 1.015187933717243115e-13 18.11866666666667314 0 0 1 -10.23906734033906574 14.22399999999989895 0 1 I I #
ellipse-curve $-1 -1.079483169519335174e-11 1.556621498366439401e-12 18.11866666666667314 0 0 1 -81.31531420340357386 14.22399999999844411 0 1 I I #
point $-1 -14.73905386681550489 9.482666666666666799 18.11866666666667314 #
point $-1 -82.00354585558413589 9.482666666666666799 18.11866666666667314 #
coedge $-1 $450 $338 $397 $451 reversed $283 $-1 #
coedge $-1 $398 $398 $338 $393 forward $411 $-1 #
edge $-1 $452 0 $394 3.141592653589793116 $392 $453 forward 7 unknown #
vertex $-1 $393 $454 #
straight-curve $-1 -82.54999999999999716 1.010912545080372332e-14 29.71800000000000352 0 0 25.39999999999999858 I I #
cone-surface $-1 0 0 0 0 0 1 82.54999999999999716 0 0 1 I I 0 1 82.54999999999999716 forward I I I I #
coedge $-1 $342 $455 $391 $451 forward $90 $-1 #
coedge $-1 $392 $392 $342 $399 forward $411 $-1 #
edge $-1 $394 0 $452 3.141592653589793116 $398 $456 forward 7 unknown #
coedge $-1 $362 $343 $457 $458 reversed $8 $-1 #
coedge $-1 $459 $460 $343 $402 reversed $461 $-1 #
edge $-1 $406 -5.482962434987280394e-31 $462 0.2566666666666668206 $343 $463 forward 7 unknown #
coedge $-1 $464 $344 $346 $409 reversed $405 $-1 #
coedge $-1 $344 $465 $459 $466 reversed $405 $-1 #
loop $-1 $-1 $344 $467 #
vertex $-1 $466 $468 #
ellipse-curve $-1 0 0 0 0 0 -1 17.52599999999999625 0 0 1 I I #
coedge $-1 $346 $469 $470 $471 reversed $243 $-1 #
edge $-1 $472 0 $347 0.1003218210676165983 $403 $473 forward 7 unknown #
point $-1 17.52599999999999625 -4.292490191418195623e-15 0 #
loop $-1 $294 $398 $349 #
plane-surface $-1 0 0 69.59600000000000364 0 0 1 25.39999999999999858 0 0 forward_v I I I I #
face $-1 $474 $475 $2 $-1 $476 reversed single #
loop $-1 $-1 $477 $352 #
plane-surface $-1 -78.46681373875283327 -107.4605081035635266 -5.079999999999999183 -0.8660254037844387076 0.5 0 0 0 25.39999999999999858 forward_v I I I I #
coedge $-1 $478 $354 $479 $480 reversed $90 $-1 #
coedge $-1 $366 $365 $354 $418 forward $367 $-1 #
edge $-1 $481 0 $419 0.4566666666666665542 $354 $482 forward 7 unknown #
vertex $-1 $418 $483 #
ellipse-curve $-1 9.023892744153271856e-14 -1.353583911622990652e-13 29.71800000000000352 0 0 -1 52.97600244513693468 -63.30912781687028001 0 1 I I #
point $-1 28.33931175827726889 -77.53312781687041877 29.71800000000000352 #
face $-1 $484 $428 $2 $-1 $485 reversed single #
plane-surface $-1 -53.8518260189259621 121.722098745139462 18.11866666666667314 0.8660254037844387076 0.5 0 0 0 25.39999999999999858 forward_v I I I I #
coedge $-1 $486 $487 $362 $425 reversed $488 $-1 #
edge $-1 $489 0 $429 0.4566666666666668317 $362 $490 forward 7 unknown #
coedge $-1 $479 $363 $487 $491 forward $428 $-1 #
coedge $-1 $363 $479 $365 $431 reversed $428 $-1 #
loop $-1 $-1 $427 $422 #
vertex $-1 $364 $492 #
ellipse-curve $-1 -6.091127602303458439e-13 2.030375867434486231e-13 18.11866666666667314 0 0 1 15.58175716236162422 -8.023061743076368657 0 1 I I #
edge $-1 $368 0 $481 2.798277435554141324 $427 $493 forward 7 unknown #
point $-1 17.43787901359947057 -1.755292427793287757 18.11866666666667314 #
straight-curve $-1 17.43787901359947057 -1.755292427793287757 29.71800000000000352 12.70000000000000284 -21.99704525612473915 0 I I #
coedge $-1 $494 $437 $495 $496 reversed $373 $-1 #
coedge $-1 $378 $375 $497 $498 forward $320 $-1 #
coedge $-1 $375 $378 $499 $500 reversed $320 $-1 #
coedge $-1 $434 $501 $375 $438 reversed $373 $-1 #
edge $-1 $502 -5.594824691024410835e-16 $503 2.798277435554141768 $437 $504 forward 7 unknown #
coedge $-1 $497 $380 $376 $440 reversed $243 $-1 #
edge $-1 $443 9.253043000336098456e-17 $384 0.3751753710273346698 $439 $505 forward 7 unknown #
coedge $-1 $382 $499 $377 $442 forward $283 $-1 #
edge $-1 $444 0 $385 0.0580459843357903349 $441 $506 forward 7 unknown #
vertex $-1 $498 $507 #
vertex $-1 $442 $508 #
straight-curve $-1 -10.23906734033916877 14.2240000000000002 6.519333333333336533 -25.39999999999999858 0 0 I I #
straight-curve $-1 -14.73905386681550489 9.482666666666666799 6.519333333333336533 0 0 25.39999999999999858 I I #
straight-curve $-1 -82.00354585558413589 9.482666666666666799 6.519333333333336533 0 0 25.39999999999999858 I I #
point $-1 -14.73905386681550489 9.482666666666666799 6.519333333333336533 #
point $-1 -82.00354585558413589 9.482666666666666799 6.519333333333336533 #
coedge $-1 $509 $391 $510 $511 forward $283 $-1 #
edge $-1 $512 0 $452 2.740000000000000213 $391 $513 forward 7 unknown #
vertex $-1 $393 $514 #
ellipse-curve $-1 0 0 69.59600000000000364 0 0 1 82.54999999999999716 0 0 1 I I #
point $-1 -82.54999999999999716 0 69.59600000000000364 #
coedge $-1 $397 $515 $465 $516 forward $90 $-1 #
ellipse-curve $-1 0 0 69.59600000000000364 0 0 1 -82.54999999999999716 0 0 1 I I #
coedge $-1 $517 $518 $400 $458 forward $519 $-1 #
edge $-1 $489 9.25304300033677022e-17 $462 0.3751753710273489362 $400 $520 forward 7 unknown #
coedge $-1 $521 $401 $404 $466 forward $461 $-1 #
coedge $-1 $401 $521 $517 $522 reversed $461 $-1 #
loop $-1 $-1 $460 $523 #
vertex $-1 $458 $524 #
straight-curve $-1 17.43787901359943149 -1.755292427793273768 0 1.428294711939843134e-13 -5.493441199768628361e-14 25.39999999999999858 I I #
coedge $-1 $510 $403 $525 $526 forward $405 $-1 #
coedge $-1 $404 $510 $455 $516 reversed $405 $-1 #
edge $-1 $406 -1.465794564887068908e-15 $527 2.79827743555414088 $404 $528 forward 7 unknown #
face $-1 $298 $405 $2 $-1 $529 reversed single #
point $-1 17.43787901359943149 -1.755292427793267329 0 #
coedge $-1 $408 $530 $531 $532 reversed $243 $-1 #
coedge $-1 $533 $525 $408 $471 forward $534 $-1 #
edge $-1 $472 5.298148787394174684e-30 $535 0.2566666666666668206 $408 $536 forward 7 unknown #
vertex $-1 $526 $537 #
ellipse-curve $-1 0 0 0 0 0 -1 17.43787901359942794 1.755292427793326171 0 1 I I #
face $-1 $538 $539 $2 $-1 $540 reversed single #
loop $-1 $-1 $541 $413 #
plane-surface $-1 -78.46681373875283327 -107.4605081035635266 6.519333333333336533 0 0 1 21.99704525612474271 -12.69999999999999929 0 forward_v I I I I #
coedge $-1 $542 $543 $544 $545 reversed $414 $-1 #
coedge $-1 $546 $416 $547 $548 reversed $90 $-1 #
coedge $-1 $427 $426 $416 $480 forward $428 $-1 #
edge $-1 $549 0 $481 0.05804598433580757111 $416 $550 forward 7 unknown #
vertex $-1 $480 $551 #
straight-curve $-1 52.97600244513707679 -63.30912781687043633 18.11866666666667314 0 0 25.39999999999999858 I I #
point $-1 52.97600244513705547 -63.30912781687041502 29.71800000000000352 #
face $-1 $552 $488 $2 $-1 $553 reversed single #
plane-surface $-1 -57.95794113340258491 119.3514320784727829 18.11866666666667314 0 0 -1 21.99704525612474271 12.69999999999999929 0 forward_v I I I I #
coedge $-1 $547 $424 $518 $554 forward $488 $-1 #
coedge $-1 $424 $547 $426 $491 reversed $488 $-1 #
loop $-1 $-1 $487 $484 #
vertex $-1 $425 $555 #
straight-curve $-1 15.58175716236101493 -8.023061743076166152 6.519333333333336533 0 0 25.39999999999999858 I I #
edge $-1 $429 0 $549 2.648208346014512937 $487 $556 forward 7 unknown #
point $-1 15.58175716236101493 -8.023061743076166152 18.11866666666667314 #
straight-curve $-1 17.43787901359947057 -1.755292427793287757 18.11866666666667314 12.70000000000000284 -21.99704525612473915 0 I I #
coedge $-1 $501 $434 $557 $558 reversed $373 $-1 #
coedge $-1 $499 $559 $434 $496 forward $283 $-1 #
edge $-1 $560 -5.338583127809715167e-16 $502 1.748051255232999424 $434 $561 forward 7 unknown #
coedge $-1 $562 $439 $435 $498 reversed $243 $-1 #
edge $-1 $503 -9.075248168254807297e-32 $443 0.2566666666666668206 $497 $563 forward 7 unknown #
coedge $-1 $441 $495 $436 $500 forward $283 $-1 #
edge $-1 $502 3.02508272275160298e-32 $444 0.2566666666666668206 $499 $564 forward 7 unknown #
coedge $-1 $437 $494 $562 $565 reversed $373 $-1 #
vertex $-1 $438 $566 #
vertex $-1 $438 $567 #
straight-curve $-1 -81.31531420341434568 14.2240000000000002 0 25.39999999999999858 0 0 I I #
ellipse-curve $-1 2.143174526736402034e-13 -2.044475699847225769e-13 6.519333333333336533 0 0 1 -10.23906734033938193 14.22400000000020448 0 1 I I #
ellipse-curve $-1 -1.025339813054415507e-11 1.479072420096372217e-12 6.519333333333336533 0 0 1 -81.31531420340411387 14.22399999999852227 0 1 I I #
point $-1 -10.23906734033916877 14.2240000000000002 6.519333333333336533 #
point $-1 -81.31531420341435989 14.2240000000000002 6.519333333333336533 #
coedge $-1 $568 $450 $569 $570 forward $283 $-1 #
coedge $-1 $465 $464 $450 $511 reversed $405 $-1 #
edge $-1 $512 0 $571 0.8740256276164999338 $510 $572 forward 7 unknown #
vertex $-1 $516 $573 #
straight-curve $-1 82.54999999999999716 0 0 0 0 25.39999999999999858 I I #
point $-1 82.54999999999999716 0 69.59600000000000364 #
coedge $-1 $455 $546 $521 $574 reversed $90 $-1 #
edge $-1 $527 0 $512 0.8740256276165000449 $465 $575 forward 7 unknown #
coedge $-1 $576 $457 $460 $522 forward $519 $-1 #
coedge $-1 $457 $576 $486 $554 reversed $519 $-1 #
loop $-1 $-1 $518 $552 #
ellipse-curve $-1 3.609557097661308742e-13 -1.127986593019159045e-13 6.519333333333336533 0 0 1 15.58175716236065433 -8.023061743076054242 0 1 I I #
coedge $-1 $460 $459 $515 $574 forward $461 $-1 #
edge $-1 $462 0 $577 2.798277435554141324 $460 $578 forward 7 unknown #
face $-1 $467 $461 $2 $-1 $579 reversed single #
point $-1 17.43787901359947057 -1.755292427793287757 6.519333333333336533 #
coedge $-1 $470 $569 $464 $526 reversed $534 $-1 #
edge $-1 $472 -1.073916000023308902e-15 $571 2.798277435554139103 $464 $580 forward 7 unknown #
vertex $-1 $466 $581 #
straight-curve $-1 17.43787901359947057 -1.755292427793287757 0 12.70000000000000284 -21.99704525612473915 0 I I #
plane-surface $-1 0 0 0 0 0 1 25.39999999999999858 0 0 forward_v I I I I #
coedge $-1 $469 $582 $583 $584 reversed $243 $-1 #
coedge $-1 $585 $586 $469 $532 forward $587 $-1 #
edge $-1 $535 -1.306992323797475956e-15 $588 0.3751753710273328934 $469 $589 forward 7 unknown #
coedge $-1 $569 $470 $586 $590 forward $534 $-1 #
loop $-1 $-1 $525 $591 #
vertex $-1 $471 $592 #
straight-curve $-1 17.43787901359943149 1.755292427793285981 0 1.098688239953725672e-13 9.476186069600883181e-14 25.39999999999999858 I I #
point $-1 17.43787901359942794 1.755292427793326171 0 #
face $-1 $593 $594 $2 $-1 $595 reversed single #
loop $-1 $-1 $596 $474 #
plane-surface $-1 -74.36069862427621047 -109.8311747702302057 6.519333333333336533 -0.8660254037844387076 0.5 0 0 0 25.39999999999999858 forward_v I I I I #
coedge $-1 $597 $598 $599 $600 reversed $475 $-1 #
coedge $-1 $557 $477 $601 $602 reversed $414 $-1 #
coedge $-1 $477 $557 $559 $603 forward $414 $-1 #
coedge $-1 $598 $597 $477 $545 forward $475 $-1 #
edge $-1 $604 0 $605 2.798277435554143544 $477 $606 forward 7 unknown #
coedge $-1 $515 $478 $576 $607 forward $90 $-1 #
coedge $-1 $487 $486 $478 $548 forward $488 $-1 #
edge $-1 $608 0 $549 0.4566666666666668317 $478 $609 forward 7 unknown #
vertex $-1 $548 $610 #
ellipse-curve $-1 2.135278620585267943e-11 -2.754543260152786194e-11 18.11866666666667314 0 0 1 49.21400315672398307 -66.27582057797711457 0 1 I I #
point $-1 52.97600244513705547 -63.30912781687041502 18.11866666666667314 #
face $-1 $523 $519 $2 $-1 $611 reversed single #
plane-surface $-1 -57.95794113340258491 119.3514320784727829 6.519333333333336533 0.8660254037844387076 0.5 0 0 0 25.39999999999999858 forward_v I I I I #
edge $-1 $489 -1.241934306869712424e-15 $608 2.648208346014512049 $518 $612 forward 7 unknown #
point $-1 15.58175716236101493 -8.023061743076166152 6.519333333333336533 #
straight-curve $-1 15.58175716236101493 -8.023061743076166152 18.11866666666667314 12.69999999999999929 -21.99704525612473915 0 I I #
coedge $-1 $543 $542 $494 $558 forward $414 $-1 #
edge $-1 $613 5.144725562837793091e-16 $560 2.798277435554143988 $494 $614 forward 7 unknown #
coedge $-1 $495 $615 $543 $603 reversed $283 $-1 #
vertex $-1 $558 $616 #
ellipse-curve $-1 0 0 0 0 0 1 28.33931175827727955 77.53312781687041877 0 1 I I #
coedge $-1 $601 $497 $501 $565 forward $243 $-1 #
straight-curve $-1 -10.23906734033915988 14.22399999999999487 0 -3.296064719861177143e-14 2.197376479907451218e-14 25.39999999999999858 I I #
straight-curve $-1 -81.31531420341434568 14.22399999999999842 0 0 1.098688239953725609e-14 25.39999999999999858 I I #
edge $-1 $503 0 $613 0.2006436421352245647 $501 $617 forward 7 unknown #
point $-1 -81.31531420341435989 14.2240000000000002 0 #
point $-1 -10.23906734033915455 14.2240000000000002 0 #
coedge $-1 $618 $509 $619 $620 forward $283 $-1 #
coedge $-1 $525 $533 $509 $570 reversed $534 $-1 #
edge $-1 $571 1.694046324740897502e-29 $621 0.2566666666666668206 $509 $622 forward 7 unknown #
vertex $-1 $511 $623 #
ellipse-curve $-1 0 0 0 0 0 1 82.54999999999999716 0 0 1 I I #
point $-1 82.54999999999999716 0 0 #
edge $-1 $527 0 $577 0.2566666666666668206 $515 $624 forward 7 unknown #
ellipse-curve $-1 0 0 0 0 0 1 52.97600244513701995 -63.30912781687041502 0 1 I I #
coedge $-1 $518 $517 $546 $607 reversed $519 $-1 #
vertex $-1 $574 $625 #
straight-curve $-1 17.43787901359947057 -1.755292427793287757 6.519333333333336533 12.70000000000000284 -21.99704525612473915 0 I I #
plane-surface $-1 -53.8518260189259621 121.722098745139462 -5.079999999999999183 0.8660254037844387076 0.5 0 0 0 25.39999999999999858 forward_v I I I I #
straight-curve $-1 17.43787901359947057 1.755292427793333054 0 12.69999999999999929 21.99704525612474271 0 I I #
point $-1 52.97600244513701995 -63.30912781687041502 0 #
coedge $-1 $530 $626 $627 $628 forward $243 $-1 #
coedge $-1 $629 $630 $530 $584 forward $631 $-1 #
edge $-1 $588 0 $632 0.4566666666666668317 $530 $633 forward 7 unknown #
coedge $-1 $619 $531 $630 $634 forward $587 $-1 #
coedge $-1 $531 $619 $533 $590 reversed $587 $-1 #
loop $-1 $-1 $586 $635 #
vertex $-1 $532 $636 #
ellipse-curve $-1 -2.481570504642149697e-13 -9.023892744153271856e-14 6.519333333333336533 0 0 1 17.43787901359970505 1.755292427793423204 0 1 I I #
edge $-1 $535 -9.820192881619332453e-16 $621 2.798277435554139103 $586 $637 forward 7 unknown #
face $-1 $349 $534 $2 $-1 $638 reversed single #
point $-1 17.43787901359945991 1.755292427793310406 6.519333333333336533 #
face $-1 $639 $640 $2 $-1 $641 reversed single #
loop $-1 $-1 $642 $538 #
plane-surface $-1 -74.36069862427621047 -109.8311747702302057 18.11866666666667314 0 0 -1 -21.99704525612474271 12.69999999999999929 0 forward_v I I I I #
coedge $-1 $643 $644 $645 $646 reversed $539 $-1 #
coedge $-1 $544 $541 $647 $648 forward $475 $-1 #
coedge $-1 $541 $544 $615 $649 reversed $475 $-1 #
coedge $-1 $644 $643 $541 $600 forward $539 $-1 #
edge $-1 $650 0 $651 2.648208346014514269 $541 $652 forward 7 unknown #
coedge $-1 $647 $562 $542 $602 forward $243 $-1 #
edge $-1 $613 -1.361287225238221357e-30 $604 0.2566666666666668206 $601 $653 forward 7 unknown #
edge $-1 $560 7.986218388064232523e-30 $605 0.2566666666666668206 $559 $654 forward 7 unknown #
vertex $-1 $648 $655 #
vertex $-1 $603 $656 #
straight-curve $-1 -7.19881167326027871 15.97929242779325421 6.519333333333336533 12.69999999999999574 21.99704525612473915 0 I I #
edge $-1 $608 0 $577 0.05804598433579555294 $546 $657 forward 7 unknown #
vertex $-1 $607 $658 #
straight-curve $-1 49.21400315674533488 -66.2758205780046552 6.519333333333336533 0 0 25.39999999999999858 I I #
point $-1 49.21400315674533488 -66.2758205780046552 18.11866666666667314 #
plane-surface $-1 -53.8518260189259621 121.722098745139462 6.519333333333336533 0 0 1 -21.99704525612474271 -12.69999999999999929 0 forward_v I I I I #
straight-curve $-1 15.58175716236103803 -8.023061743076189245 6.519333333333336533 12.69999999999999574 -21.99704525612473915 0 I I #
vertex $-1 $565 $659 #
straight-curve $-1 -7.198811673260290256 15.97929242779323111 0 12.69999999999999751 21.99704525612474271 0 I I #
coedge $-1 $559 $660 $598 $649 forward $283 $-1 #
point $-1 28.33931175827732929 77.53312781687041877 0 #
ellipse-curve $-1 0 0 0 0 0 -1 -10.23906734033915455 14.2240000000000002 0 1 I I #
coedge $-1 $661 $568 $662 $663 forward $283 $-1 #
coedge $-1 $586 $585 $568 $620 reversed $587 $-1 #
edge $-1 $621 0 $664 0.05804598433579187533 $568 $665 forward 7 unknown #
vertex $-1 $620 $666 #
straight-curve $-1 52.97600244513701284 63.30912781687042212 0 2.197376479907451344e-13 2.197376479907451344e-13 25.39999999999999858 I I #
point $-1 52.97600244513704837 63.30912781687043633 0 #
straight-curve $-1 52.97600244513701995 -63.30912781687041502 0 2.197376479907451344e-13 -8.789505919629804873e-14 25.39999999999999858 I I #
point $-1 52.97600244513705547 -63.30912781687041502 6.519333333333336533 #
coedge $-1 $582 $667 $668 $669 reversed $243 $-1 #
coedge $-1 $670 $671 $582 $628 reversed $672 $-1 #
edge $-1 $673 0 $632 0.3751753710273367237 $582 $674 forward 7 unknown #
coedge $-1 $662 $583 $671 $675 forward $631 $-1 #
coedge $-1 $583 $662 $585 $634 reversed $631 $-1 #
loop $-1 $-1 $630 $676 #
vertex $-1 $584 $677 #
straight-curve $-1 15.58175716236100428 8.023061743076166152 6.519333333333336533 0 0 25.39999999999999858 I I #
edge $-1 $588 0 $664 2.648208346014512937 $630 $678 forward 7 unknown #
face $-1 $591 $587 $2 $-1 $679 reversed single #
point $-1 15.58175716236100428 8.023061743076166152 6.519333333333336533 #
straight-curve $-1 17.43787901359947057 1.755292427793333054 6.519333333333336533 12.69999999999999751 21.99704525612473915 0 I I #
plane-surface $-1 -53.83012305189311064 -121.6845081035635161 6.519333333333336533 0.8660254037844387076 -0.5 0 0 0 -25.39999999999999858 forward_v I I I I #
face $-1 $680 $681 $2 $-1 $682 reversed single #
loop $-1 $-1 $683 $593 #
plane-surface $-1 -78.46681373875283327 -107.4605081035635266 18.11866666666667314 -0.8660254037844387076 0.5 0 0 0 25.39999999999999858 forward_v I I I I #
coedge $-1 $684 $685 $686 $687 reversed $594 $-1 #
coedge $-1 $599 $596 $688 $689 reversed $539 $-1 #
coedge $-1 $596 $599 $660 $690 forward $539 $-1 #
coedge $-1 $685 $684 $596 $646 forward $594 $-1 #
edge $-1 $691 0 $692 2.648208346014514269 $596 $693 forward 7 unknown #
coedge $-1 $688 $601 $597 $648 reversed $243 $-1 #
edge $-1 $650 -5.783151875210355047e-18 $604 0.3751753710273452724 $647 $694 forward 7 unknown #
edge $-1 $651 0 $605 0.05804598433577298766 $615 $695 forward 7 unknown #
vertex $-1 $689 $696 #
vertex $-1 $649 $697 #
straight-curve $-1 -0.8427032955454764052 17.50572840974280453 6.519333333333336533 12.70000000000000462 21.99704525612473915 0 I I #
straight-curve $-1 -7.19881167326030269 15.97929242779326309 0 9.338850039606667519e-14 -3.296064719861177143e-14 25.39999999999999858 I I #
straight-curve $-1 28.33931175827731863 77.53312781687040456 0 1.318425887944470857e-13 2.636851775888941714e-13 25.39999999999999858 I I #
point $-1 -7.19881167326027871 15.97929242779325421 6.519333333333336533 #
point $-1 28.33931175827732929 77.53312781687041877 6.519333333333336533 #
ellipse-curve $-1 1.07835518292631595e-11 -1.416751160832063664e-11 6.519333333333336533 0 0 1 49.21400315673454884 -66.27582057799048698 0 1 I I #
point $-1 49.21400315674533488 -66.2758205780046552 6.519333333333336533 #
point $-1 -7.198811673260313349 15.97929242779325953 0 #
coedge $-1 $615 $698 $644 $690 reversed $283 $-1 #
coedge $-1 $699 $618 $700 $701 reversed $283 $-1 #
coedge $-1 $630 $629 $618 $663 reversed $631 $-1 #
edge $-1 $664 0 $702 0.4566666666666668317 $618 $703 forward 7 unknown #
vertex $-1 $663 $704 #
ellipse-curve $-1 7.884626285203921079e-12 9.610445772523234741e-12 6.519333333333336533 0 0 1 52.97600244512916134 63.30912781686080137 0 1 I I #
point $-1 52.97600244513704837 63.30912781687041502 6.519333333333336533 #
coedge $-1 $626 $705 $706 $707 reversed $243 $-1 #
coedge $-1 $708 $709 $626 $669 forward $710 $-1 #
edge $-1 $673 0 $711 0.4566666666666665542 $626 $712 forward 7 unknown #
coedge $-1 $700 $627 $709 $713 forward $672 $-1 #
coedge $-1 $627 $700 $629 $675 reversed $672 $-1 #
loop $-1 $-1 $671 $714 #
vertex $-1 $628 $715 #
ellipse-curve $-1 -1.466382570924906708e-13 0 18.11866666666667314 0 0 1 17.43787901359960557 1.755292427793310406 0 1 I I #
edge $-1 $632 -2.09805925913415431e-16 $702 2.648208346014512049 $671 $716 forward 7 unknown #
face $-1 $635 $631 $2 $-1 $717 reversed single #
point $-1 15.58175716236100428 8.023061743076166152 18.11866666666667314 #
straight-curve $-1 15.58175716236100428 8.023061743076166152 6.519333333333336533 12.69999999999999574 21.99704525612474271 0 I I #
plane-surface $-1 -57.93623816636973345 -119.3138414368968654 6.519333333333336533 0 0 1 21.99704525612474271 -12.69999999999999929 0 forward_v I I I I #
face $-1 $714 $710 $2 $-1 $718 reversed single #
loop $-1 $-1 $719 $639 #
plane-surface $-1 -78.46681373875283327 -107.4605081035635266 29.71800000000000352 0 0 1 21.99704525612474271 -12.69999999999999929 0 forward_v I I I I #
coedge $-1 $720 $721 $722 $723 reversed $640 $-1 #
coedge $-1 $645 $642 $724 $725 reversed $594 $-1 #
coedge $-1 $642 $645 $698 $726 forward $594 $-1 #
coedge $-1 $721 $720 $642 $687 forward $640 $-1 #
edge $-1 $727 -1.014644553796845937e-15 $728 2.798277435554143544 $642 $729 forward 7 unknown #
coedge $-1 $724 $647 $643 $689 forward $243 $-1 #
edge $-1 $650 0 $691 0.4566666666666668317 $688 $730 forward 7 unknown #
edge $-1 $651 0 $692 0.4566666666666668317 $660 $731 forward 7 unknown #
vertex $-1 $725 $732 #
vertex $-1 $690 $733 #
straight-curve $-1 -0.8427032955454764052 17.50572840974280453 18.11866666666667314 12.69999999999999929 21.99704525612473915 0 I I #
ellipse-curve $-1 -1.127986593019158982e-14 1.353583911622990652e-13 6.519333333333336533 0 0 1 -0.8427032955454651919 17.50572840974266953 0 1 I I #
ellipse-curve $-1 -5.312816853120238941e-12 -1.362607804367143997e-11 6.519333333333336533 0 0 1 32.78954269884416561 75.75848724468494311 0 1 I I #
point $-1 -0.8427032955454764052 17.50572840974280453 6.519333333333336533 #
point $-1 32.78954269883885075 75.7584872446713149 6.519333333333336533 #
coedge $-1 $660 $734 $685 $726 reversed $283 $-1 #
coedge $-1 $735 $661 $736 $737 forward $283 $-1 #
coedge $-1 $671 $670 $661 $701 forward $672 $-1 #
edge $-1 $738 0 $702 0.05804598433580115263 $661 $739 forward 7 unknown #
vertex $-1 $701 $740 #
straight-curve $-1 49.21400315674532067 66.2758205780046552 6.519333333333336533 0 0 25.39999999999999858 I I #
point $-1 49.21400315674532067 66.2758205780046552 6.519333333333336533 #
coedge $-1 $667 $724 $720 $741 forward $243 $-1 #
coedge $-1 $722 $719 $667 $707 forward $681 $-1 #
edge $-1 $711 1.283859716296682394e-15 $742 1.893751460257975028 $667 $743 forward 7 unknown #
coedge $-1 $736 $668 $719 $744 forward $710 $-1 #
coedge $-1 $668 $736 $670 $713 reversed $710 $-1 #
loop $-1 $-1 $709 $680 #
vertex $-1 $669 $745 #
straight-curve $-1 17.43787901359945991 1.755292427793310406 18.11866666666667314 0 0 25.39999999999999858 I I #
edge $-1 $673 0 $738 2.798277435554141324 $709 $746 forward 7 unknown #
face $-1 $676 $672 $2 $-1 $747 reversed single #
point $-1 17.43787901359945991 1.755292427793310406 18.11866666666667314 #
straight-curve $-1 15.58175716236101493 8.023061743076166152 18.11866666666667314 12.69999999999999929 21.99704525612473915 0 I I #
plane-surface $-1 -57.93623816636973345 -119.3138414368968654 18.11866666666667314 0.8660254037844387076 -0.5 0 0 0 -25.39999999999999858 forward_v I I I I #
plane-surface $-1 -53.83012305189311064 -121.6845081035635161 29.71800000000000352 0.8660254037844387076 -0.5 0 0 0 -25.39999999999999858 forward_v I I I I #
coedge $-1 $706 $748 $708 $744 reversed $681 $-1 #
coedge $-1 $686 $683 $705 $741 reversed $640 $-1 #
coedge $-1 $683 $686 $734 $749 forward $640 $-1 #
coedge $-1 $748 $706 $683 $723 forward $681 $-1 #
edge $-1 $742 0 $750 2.798277435554143544 $683 $751 forward 7 unknown #
coedge $-1 $705 $688 $684 $725 forward $243 $-1 #
edge $-1 $691 -1.156630375042158678e-17 $727 0.3751753710273609821 $724 $752 forward 7 unknown #
edge $-1 $692 0 $728 0.05804598433577298766 $698 $753 forward 7 unknown #
vertex $-1 $741 $754 #
vertex $-1 $726 $755 #
straight-curve $-1 -7.19881167326027871 15.97929242779325421 18.11866666666667314 12.69999999999999574 21.99704525612473915 0 I I #
straight-curve $-1 -0.8427032955454764052 17.50572840974280453 6.519333333333336533 0 0 25.39999999999999858 I I #
straight-curve $-1 32.78954269883885075 75.7584872446713149 6.519333333333336533 0 0 25.39999999999999858 I I #
point $-1 -0.8427032955454764052 17.50572840974280453 18.11866666666667314 #
point $-1 32.78954269883885075 75.7584872446713149 18.11866666666667314 #
coedge $-1 $698 $735 $721 $749 reversed $283 $-1 #
coedge $-1 $734 $699 $748 $756 reversed $283 $-1 #
coedge $-1 $709 $708 $699 $737 reversed $710 $-1 #
edge $-1 $738 0 $757 0.4566666666666665542 $699 $758 forward 7 unknown #
vertex $-1 $737 $759 #
ellipse-curve $-1 1.633324586691742168e-11 2.005560162388064653e-11 18.11866666666667314 0 0 1 52.97600244512071299 63.30912781685037771 0 1 I I #
point $-1 49.21400315674531356 66.27582057800464099 18.11866666666667314 #
edge $-1 $727 0 $742 0.4566666666666665542 $705 $760 forward 7 unknown #
vertex $-1 $707 $761 #
ellipse-curve $-1 5.639932965095795225e-14 4.511946372076635928e-14 29.71800000000000352 0 0 1 17.43787901359940307 1.755292427793242682 0 1 I I #
edge $-1 $711 -2.098059259134153817e-16 $757 2.798277435554139547 $719 $762 forward 7 unknown #
point $-1 17.43787901359945991 1.755292427793310406 29.71800000000000352 #
straight-curve $-1 17.43787901359945991 1.755292427793310406 18.11866666666667314 12.69999999999999751 21.99704525612474271 0 I I #
plane-surface $-1 -53.83012305189311064 -121.6845081035635161 18.11866666666667314 0 0 -1 -21.99704525612474271 12.69999999999999929 0 forward_v I I I I #
coedge $-1 $719 $722 $735 $756 forward $681 $-1 #
edge $-1 $728 0 $750 0.4566666666666665542 $734 $763 forward 7 unknown #
vertex $-1 $749 $764 #
straight-curve $-1 -7.19881167326027871 15.97929242779325421 29.71800000000000352 12.69999999999999574 21.99704525612473915 0 I I #
ellipse-curve $-1 -2.030375867434486231e-13 7.895906151134113315e-13 18.11866666666667314 0 0 1 -0.8427032955452733454 17.50572840974201227 0 1 I I #
ellipse-curve $-1 -5.312816853120238941e-12 -1.362607804367143997e-11 18.11866666666667314 0 0 1 32.78954269884416561 75.75848724468494311 0 1 I I #
point $-1 -7.198811673260290256 15.97929242779323111 18.11866666666667314 #
point $-1 28.33931175827732929 77.53312781687041877 18.11866666666667314 #
edge $-1 $750 4.671260236833546501e-16 $757 0.3463438471601972823 $735 $765 forward 7 unknown #
vertex $-1 $756 $766 #
straight-curve $-1 52.97600244513706969 63.30912781687047897 18.11866666666667314 0 0 25.39999999999999858 I I #
point $-1 52.97600244513704837 63.30912781687043633 18.11866666666667314 #
straight-curve $-1 -7.19881167326027871 15.97929242779325421 18.11866666666667314 0 0 25.39999999999999858 I I #
point $-1 -7.19881167326027871 15.97929242779325421 29.71800000000000352 #
straight-curve $-1 17.43787901359947057 1.755292427793310406 29.71800000000000352 12.69999999999999751 21.99704525612473915 0 I I #
straight-curve $-1 28.33931175827735416 77.53312781687047561 18.11866666666667314 0 0 25.39999999999999858 I I #
point $-1 28.33931175827732929 77.53312781687041877 29.71800000000000352 #
ellipse-curve $-1 2.25597318603831809e-13 3.383959779057477135e-13 29.71800000000000352 0 0 -1 28.33931175827706639 77.53312781687007771 0 1 I I #
point $-1 52.97600244513699863 63.30912781687043633 29.71800000000000352 #
End-of-ACIS-data 