600 0 1 0           
112 GICL Pro/E ACIS Translator - Source: f:/data5/repository/PTC/V20/web_demos/models/multi_axis/multi_pin.prt - 6 0 13 ACIS 6.0.3 NT 24 Thu Apr 04 13:09:07 2002 
1 9.9999999999999995e-007 1e-010 
body $-1 $1 $-1 $2 #
lump $-1 $-1 $3 $0 #
transform $-1 1 0 0 0 1 0 0 0 1 0 0 0 25.399999999999999 no_rotate no_reflect no_shear #
shell $-1 $-1 $-1 $4 $-1 $1 #
face $-1 $5 $6 $3 $-1 $7 reversed single #
face $-1 $8 $9 $3 $-1 $10 forward single #
loop $-1 $-1 $11 $4 #
plane-surface $-1 0 0 0 0 1 0 1 0 0 forward_v I I I I #
face $-1 $12 $13 $3 $-1 $14 forward single #
loop $-1 $-1 $15 $5 #
cone-surface $-1 0 0 0 0 1 0 0.125 0 0 1 I I 0 1 0.125 forward I I I I #
coedge $-1 $16 $16 $17 $18 reversed $6 $-1 #
face $-1 $19 $20 $3 $-1 $21 forward single #
loop $-1 $-1 $22 $8 #
cone-surface $-1 0 0 0 0 1 0 0.125 0 0 1 I I 0 1 0.125 forward I I I I #
coedge $-1 $23 $17 $24 $25 forward $9 $-1 #
coedge $-1 $11 $11 $26 $27 reversed $6 $-1 #
coedge $-1 $15 $28 $11 $18 forward $9 $-1 #
edge $-1 $29 0 $30 3.1415926535897931 $11 $31 forward 7 unknown #
face $-1 $32 $33 $3 $-1 $34 forward single #
loop $-1 $-1 $35 $12 #
torus-surface $-1 0 0.23999999999999999 0 0 1 0 0.115 0.01 1 0 0 forward_v I I I I #
coedge $-1 $36 $26 $28 $37 forward $13 $-1 #
coedge $-1 $28 $15 $38 $39 reversed $9 $-1 #
coedge $-1 $26 $36 $15 $25 reversed $13 $-1 #
edge $-1 $30 0 $40 0.23999999999999999 $24 $41 forward 7 unknown #
coedge $-1 $22 $24 $16 $27 forward $13 $-1 #
edge $-1 $30 0 $29 3.1415926535897931 $16 $42 forward 7 unknown #
coedge $-1 $17 $23 $22 $37 reversed $9 $-1 #
vertex $-1 $27 $43 #
vertex $-1 $27 $44 #
ellipse-curve $-1 0 0 0 0 1 0 -0.125 0 0 1 I I #
face $-1 $45 $46 $3 $-1 $47 forward single #
loop $-1 $-1 $48 $19 #
torus-surface $-1 0 0.23999999999999999 0 0 1 0 0.115 0.01 1 0 0 forward_v I I I I #
coedge $-1 $49 $50 $51 $52 forward $20 $-1 #
coedge $-1 $24 $22 $49 $53 reversed $13 $-1 #
edge $-1 $29 0 $54 0.23999999999999999 $22 $55 forward 7 unknown #
coedge $-1 $51 $48 $23 $39 forward $33 $-1 #
edge $-1 $54 0 $40 3.1415926535897931 $23 $56 forward 7 unknown #
vertex $-1 $25 $57 #
straight-curve $-1 0.125 0 0 0 1 0 I I #
ellipse-curve $-1 0 0 0 0 1 0 0.125 0 0 1 I I #
point $-1 -0.125 0 0 #
point $-1 0.125 0 0 #
face $-1 $58 $59 $3 $-1 $60 forward single #
loop $-1 $61 $62 $32 #
plane-surface $-1 0 0.25 0 0 1 0 1 0 0 forward_v I I I I #
coedge $-1 $38 $63 $64 $65 forward $33 $-1 #
coedge $-1 $64 $35 $36 $53 forward $20 $-1 #
coedge $-1 $35 $64 $66 $67 reversed $20 $-1 #
coedge $-1 $63 $38 $35 $52 reversed $33 $-1 #
edge $-1 $68 0 $40 1.5707963267948994 $51 $69 forward 7 unknown #
edge $-1 $40 0 $54 3.1415926535897931 $36 $70 forward 7 unknown #
vertex $-1 $53 $71 #
straight-curve $-1 -0.125 0 -1.5307579422779716e-017 0 1 0 I I #
ellipse-curve $-1 0 0.23999999999999999 0 0 1 0 -0.125 0 -1.5307579422779716e-017 1 I I #
point $-1 0.125 0.23999999999999999 0 #
face $-1 $72 $73 $3 $-1 $74 forward single #
loop $-1 $-1 $75 $45 #
cone-surface $-1 0 0.087495972499999963 0.049999999999999996 0 1 0 0.049999999999999996 0 0 1 I I 0 1 0.049999999999999996 forward I I I I #
loop $-1 $-1 $76 $32 #
coedge $-1 $66 $66 $63 $77 forward $46 $-1 #
coedge $-1 $48 $51 $62 $77 reversed $33 $-1 #
coedge $-1 $50 $49 $48 $65 reversed $20 $-1 #
edge $-1 $78 0 $54 1.5707963267948994 $48 $79 forward 7 unknown #
coedge $-1 $62 $62 $50 $67 forward $46 $-1 #
edge $-1 $68 0 $78 3.1415926535897931 $66 $80 forward 7 unknown #
vertex $-1 $67 $81 #
ellipse-curve $-1 0.115 0.24000000000000002 0 0 0 -1 0 0.0099999999999999811 0 1 I I #
ellipse-curve $-1 0 0.23999999999999999 0 0 1 0 0.125 0 0 1 I I #
point $-1 -0.125 0.23999999999999999 -1.5307579422779716e-017 #
face $-1 $82 $83 $3 $-1 $84 forward single #
loop $-1 $-1 $85 $58 #
torus-surface $-1 0 0.36499999999999999 0.049999999999999996 0 1 0 0.040000000000000001 0.01 1 0 0 forward_v I I I I #
coedge $-1 $86 $87 $88 $89 forward $59 $-1 #
coedge $-1 $90 $91 $92 $93 reversed $61 $-1 #
edge $-1 $78 0 $68 3.1415926535897931 $62 $94 forward 7 unknown #
vertex $-1 $67 $95 #
ellipse-curve $-1 -0.115 0.24000000000000002 -1.4082973068957337e-017 -1.2246063538223778e-016 3.0814879110195831e-031 1 0 0.0099999999999999811 -3.0814879110195774e-033 1 I I #
ellipse-curve $-1 -6.9388939039072284e-018 0.25 3.4694469519536142e-018 0 1 0 0.11500000000000002 0 -3.4694469519536142e-018 1 I I #
point $-1 0.115 0.25 0 #
face $-1 $96 $97 $3 $-1 $98 forward single #
loop $-1 $-1 $99 $72 #
cone-surface $-1 -0.040000000000000001 0.36499999999999999 -0.049999999999999996 0 0 1 0 0.01 0 1 I I 0 1 0.01 forward I I I I #
coedge $-1 $88 $100 $101 $102 forward $73 $-1 #
coedge $-1 $92 $75 $103 $104 reversed $59 $-1 #
coedge $-1 $75 $92 $105 $106 forward $59 $-1 #
coedge $-1 $107 $85 $75 $89 reversed $73 $-1 #
edge $-1 $108 0 $109 3.1415926535897931 $75 $110 forward 7 unknown #
coedge $-1 $111 $76 $112 $113 reversed $61 $-1 #
coedge $-1 $76 $111 $114 $115 reversed $61 $-1 #
coedge $-1 $87 $86 $76 $93 forward $59 $-1 #
edge $-1 $116 0 $117 3.141592653589794 $76 $118 forward 7 unknown #
ellipse-curve $-1 6.9388939039072284e-018 0.25 -3.4694469519536142e-018 0 1 0 -0.11500000000000002 0 -1.0613526117003726e-017 1 I I #
point $-1 -0.115 0.25 -1.408297306895734e-017 #
face $-1 $119 $120 $3 $-1 $121 forward single #
loop $-1 $-1 $122 $82 #
torus-surface $-1 0 0.36499999999999999 -0.049999999999999996 0 -1 0 0.040000000000000001 0.01 1 0 0 forward_v I I I I #
coedge $-1 $123 $124 $125 $126 forward $83 $-1 #
coedge $-1 $85 $107 $127 $128 forward $73 $-1 #
coedge $-1 $124 $123 $85 $102 reversed $83 $-1 #
edge $-1 $129 0 $109 1.5707963267949028 $85 $130 forward 7 unknown #
coedge $-1 $131 $112 $86 $104 forward $132 $-1 #
edge $-1 $116 2.7755575615628914e-017 $109 0.11499999999999996 $103 $133 forward 7 unknown #
coedge $-1 $114 $134 $87 $106 reversed $135 $-1 #
edge $-1 $117 2.7755575615628914e-017 $108 0.11499999999999996 $105 $136 forward 7 unknown #
coedge $-1 $100 $88 $137 $138 reversed $73 $-1 #
vertex $-1 $106 $139 #
vertex $-1 $140 $141 #
ellipse-curve $-1 0 0.36499999999999999 0.049999999999999996 0 -1 0 0.050000000000000003 0 0 1 I I #
coedge $-1 $91 $90 $142 $143 reversed $61 $-1 #
coedge $-1 $103 $144 $90 $113 forward $132 $-1 #
edge $-1 $145 -6.9388939039072284e-018 $116 0.099999999999999992 $90 $146 forward 7 unknown #
coedge $-1 $147 $105 $91 $115 forward $135 $-1 #
edge $-1 $117 0 $148 0.099999999999999992 $91 $149 forward 7 unknown #
vertex $-1 $113 $150 #
vertex $-1 $115 $151 #
ellipse-curve $-1 0 0.25 0.050000000000000017 0 1 0 -0.049999999999999996 0 -2.0816681711721685e-017 1 I I #
face $-1 $152 $135 $3 $-1 $153 forward single #
loop $-1 $-1 $137 $96 #
cone-surface $-1 0.040000000000000001 0.36499999999999999 0.049999999999999996 0 0 -1 0 0.01 0 1 I I 0 1 0.01 forward I I I I #
coedge $-1 $154 $155 $156 $157 forward $97 $-1 #
coedge $-1 $101 $99 $131 $140 forward $83 $-1 #
coedge $-1 $99 $101 $158 $159 reversed $83 $-1 #
coedge $-1 $155 $154 $99 $126 reversed $97 $-1 #
edge $-1 $160 0 $161 1.5707963267948966 $125 $162 forward 7 unknown #
coedge $-1 $163 $158 $100 $128 reversed $164 $-1 #
edge $-1 $165 0 $129 3.1415926535897931 $127 $166 forward 7 unknown #
vertex $-1 $128 $167 #
ellipse-curve $-1 -0.040000000000000008 0.36499999999999999 0.049999999999999996 0 0 1 6.9388939039072284e-018 0.010000000000000009 0 1 I I #
coedge $-1 $144 $103 $123 $140 reversed $132 $-1 #
loop $-1 $-1 $112 $168 #
straight-curve $-1 -0.049999999999999996 0.24999999999999997 0.050000000000000003 0 1 0 I I #
coedge $-1 $105 $147 $169 $170 reversed $135 $-1 #
loop $-1 $-1 $134 $119 #
straight-curve $-1 0.049999999999999996 0.24999999999999997 0.049999999999999996 0 1 0 I I #
coedge $-1 $169 $171 $107 $138 forward $120 $-1 #
edge $-1 $165 0 $108 1.5707963267949021 $137 $172 forward 7 unknown #
point $-1 0.049999999999999996 0.36499999999999994 0.049999999999999996 #
edge $-1 $161 -6.9388939039072284e-018 $109 0.10000000000000001 $131 $173 forward 7 unknown #
point $-1 -0.049999999999999996 0.36499999999999994 0.050000000000000003 #
coedge $-1 $174 $175 $111 $143 forward $176 $-1 #
edge $-1 $148 0 $145 3.1415926535897936 $111 $177 forward 7 unknown #
coedge $-1 $112 $131 $174 $178 forward $132 $-1 #
vertex $-1 $143 $179 #
straight-curve $-1 -0.049999999999999996 0.25 -0.049999999999999996 0 0 1 I I #
coedge $-1 $134 $114 $175 $180 reversed $135 $-1 #
vertex $-1 $115 $181 #
straight-curve $-1 0.049999999999999996 0.25 0.049999999999999996 0 0 -1 I I #
point $-1 -0.049999999999999996 0.25 0.049999999999999996 #
point $-1 0.049999999999999996 0.25 0.049999999999999996 #
face $-1 $168 $176 $3 $-1 $182 forward single #
plane-surface $-1 0.049999999999999996 0.25 0.099999999999999992 1 0 0 0 0 -1 forward_v I I I I #
coedge $-1 $125 $122 $183 $184 reversed $97 $-1 #
coedge $-1 $122 $125 $185 $186 forward $97 $-1 #
coedge $-1 $171 $169 $122 $157 reversed $120 $-1 #
edge $-1 $187 0 $188 1.570796326794891 $122 $189 forward 7 unknown #
coedge $-1 $127 $185 $124 $159 forward $164 $-1 #
edge $-1 $160 -6.9388939039072284e-018 $129 0.10000000000000001 $158 $190 forward 7 unknown #
vertex $-1 $186 $191 #
vertex $-1 $178 $192 #
ellipse-curve $-1 -0.040000000000000001 0.36499999999999999 -0.049999999999999996 0 0 1 0 0.010000000000000009 0 1 I I #
coedge $-1 $185 $127 $171 $193 forward $164 $-1 #
loop $-1 $-1 $158 $194 #
vertex $-1 $193 $195 #
ellipse-curve $-1 1.0408340855860843e-017 0.375 0.050000000000000003 0 -1 0 0.039999999999999994 0 -6.9388939039072284e-018 1 I I #
point $-1 -0.040000000000000001 0.375 0.050000000000000003 #
face $-1 $194 $132 $3 $-1 $196 forward single #
coedge $-1 $156 $137 $134 $170 forward $120 $-1 #
edge $-1 $108 6.1629758220391547e-032 $188 0.099999999999999992 $134 $197 forward 7 unknown #
coedge $-1 $137 $156 $163 $193 reversed $120 $-1 #
ellipse-curve $-1 0.040000000000000001 0.36499999999999999 0.049999999999999996 0 0 -1 0 0.010000000000000009 0 1 I I #
straight-curve $-1 -0.049999999999999996 0.36499999999999999 -0.049999999999999996 0 5.5511151231257827e-016 1 I I #
coedge $-1 $183 $142 $144 $178 reversed $176 $-1 #
coedge $-1 $142 $183 $147 $180 forward $176 $-1 #
loop $-1 $-1 $142 $152 #
ellipse-curve $-1 3.4694469519536142e-018 0.25 -0.050000000000000017 0 1 0 0.049999999999999989 0 2.0816681711721685e-017 1 I I #
edge $-1 $161 0 $145 0.11499999999999994 $144 $198 forward 7 unknown #
point $-1 -0.049999999999999996 0.25000000000000006 -0.050000000000000003 #
edge $-1 $188 0 $148 0.11499999999999999 $147 $199 forward 7 unknown #
point $-1 0.049999999999999996 0.25 -0.049999999999999996 #
cone-surface $-1 0 0.53750697505276024 -0.049999999999999996 0 -1 0 0.049999999999999996 0 0 1 I I 0 1 0.049999999999999996 forward I I I I #
coedge $-1 $175 $174 $154 $184 forward $176 $-1 #
edge $-1 $161 1.9259299443872359e-032 $188 3.1415926535897931 $183 $200 forward 7 unknown #
coedge $-1 $158 $163 $155 $186 reversed $164 $-1 #
edge $-1 $160 0 $187 3.1415926535897931 $185 $201 forward 7 unknown #
vertex $-1 $186 $202 #
vertex $-1 $180 $203 #
ellipse-curve $-1 0.039999999999999945 0.36499999999999999 -0.049999999999999996 0 0 -1 5.5511151231257827e-017 0.010000000000000009 0 1 I I #
straight-curve $-1 -0.040000000000000001 0.375 -0.049999999999999996 0 0 1 I I #
point $-1 -0.040000000000000001 0.375 -0.050000000000000003 #
point $-1 -0.049999999999999996 0.36499999999999999 -0.050000000000000003 #
edge $-1 $165 0 $187 0.099999999999999992 $163 $204 forward 7 unknown #
face $-1 $-1 $164 $3 $-1 $205 forward single #
point $-1 0.040000000000000001 0.375 0.049999999999999996 #
plane-surface $-1 -0.049999999999999996 0.25 -0.099999999999999992 -1 0 0 0 0 1 forward_v I I I I #
straight-curve $-1 0.049999999999999996 0.36500000000000005 0.049999999999999996 0 -5.5511151231257827e-016 -1 I I #
straight-curve $-1 -0.049999999999999996 0.36499999999999999 -0.050000000000000003 0 -1 0 I I #
straight-curve $-1 0.049999999999999996 0.36499999999999999 -0.050000000000000003 0 -1 0 I I #
ellipse-curve $-1 0 0.36499999999999999 -0.049999999999999996 0 -1 0 -0.050000000000000003 0 -6.9388939039072284e-018 1 I I #
ellipse-curve $-1 5.2041704279304213e-018 0.375 -0.050000000000000003 0 -1 0 -0.040000000000000008 0 0 1 I I #
point $-1 0.040000000000000001 0.375 -0.049999999999999996 #
point $-1 0.049999999999999996 0.36499999999999999 -0.049999999999999996 #
straight-curve $-1 0.040000000000000001 0.375 0.049999999999999996 0 0 -1 I I #
plane-surface $-1 0 0.375 0 0 1 0 1 0 0 forward_v I I I I #
End-of-ACIS-data 