105 284 1 0                             
body $-1 $1 $-1 $2 #
lump $-1 $-1 $3 $0 #
transform $-1 0.707106781186546 0.707106781186549 0 -0.707106781186549 0.707106781186546 0 0 0 1 0 0 25 1 1 0 0 #
shell $-1 $-1 $-1 $4 $1 #
face $-1 $5 $6 $3 $-1 $7 reversed single #
face $-1 $8 $9 $3 $-1 $7 reversed single #
loop $-1 $10 $11 $4 #
cone-surface $-1 0 0 -12.5 -0.707106781186549 -0.707106781186546 -3.49148133884313e-15 2.82842712474619 -2.8284271247462 0 1 0 1 0 #
face $-1 $12 $13 $3 $-1 $14 reversed single #
loop $-1 $15 $16 $5 #
loop $-1 $-1 $17 $4 #
coedge $-1 $11 $11 $18 $19 1 $6 $-1 #
face $-1 $20 $21 $3 $-1 $22 forward single #
loop $-1 $23 $24 $8 #
cone-surface $-1 0 0 -25 0 0 1 17.6776695296637 -17.6776695296637 0 1 0 1 0 #
loop $-1 $-1 $25 $5 #
coedge $-1 $16 $16 $24 $26 1 $9 $-1 #
coedge $-1 $17 $17 $27 $28 1 $10 $-1 #
coedge $-1 $18 $18 $11 $19 0 $29 $-1 #
edge $-1 $30 $30 $18 $31 0 #
face $-1 $32 $33 $3 $-1 $22 forward single #
loop $-1 $-1 $34 $12 #
plane-surface $-1 0 0 -25 0 0 1 0.707106781186546 -0.707106781186549 0 0 #
loop $-1 $35 $27 $8 #
coedge $-1 $24 $24 $16 $26 0 $13 $-1 #
coedge $-1 $25 $25 $36 $37 1 $15 $-1 #
edge $-1 $38 $38 $24 $39 0 #
coedge $-1 $27 $27 $17 $28 0 $23 $-1 #
edge $-1 $40 $40 $27 $41 0 #
loop $-1 $42 $18 $43 #
vertex $-1 $19 $44 #
ellipse-curve $-1 35.3553390593274 35.3553390593273 -12.4999999999998 -0.707106781186549 -0.707106781186546 0 2.82842712474619 -2.8284271247462 0 1 #
face $-1 $45 $46 $3 $-1 $22 forward single #
loop $-1 $-1 $47 $20 #
coedge $-1 $48 $49 $50 $51 1 $21 $-1 #
loop $-1 $52 $53 $8 #
coedge $-1 $36 $36 $25 $37 0 $54 $-1 #
edge $-1 $55 $55 $36 $56 0 #
vertex $-1 $26 $57 #
intcurve-curve $-1 0 { surfintcur nubs 3 periodic 33 
	0 3 0.754777383366865 2 1.50955476673373 2 2.26433215010059 2 3.01910953346746 2 
	3.77386983006117 2 4.52863012665488 2 5.28339042324859 2 6.0381507198423 2 6.79291101643601 2 
	7.54767131302972 2 8.30243160962343 2 9.05719190621715 2 9.81196928958404 2 10.5667466729509 2 
	11.3215240563178 2 12.0763014396847 2 12.8310788230516 2 13.5858562064184 2 14.3406335897853 2 
	15.0954109731522 2 15.8501712697459 2 16.6049315663396 2 17.3596918629333 2 18.114452159527 2 
	18.8692124561207 2 19.6239727527145 2 20.3787330493082 2 21.1334933459019 2 21.8882707292688 2 
	22.6430481126357 2 23.3978254960025 2 24.1526028793694 3 
	-14.621501241869 -20.2783554913613 -12.5000000000001 
	-14.621501241869 -20.2783554913613 -12.2484075388778 
	-14.6413500339168 -20.264094028224 -11.9883626007813 
	-14.7244832757448 -20.2037677145117 -11.4713509532595 
	-14.7877430720725 -20.1577110899514 -11.2143793201702 
	-14.9537452193832 -20.0348737262706 -10.7217520933844 
	-15.0565991020026 -19.9579747158691 -10.4856958903325 
	-15.2919836786571 -19.7781992721414 -10.049265961809 
	-15.4244996533307 -19.6752805237539 -9.84890172932211 
	-15.7038333253336 -19.4530581321284 -9.4942480355852 
	-15.8602723285204 -19.326141945253 -9.32777098421952 
	-16.1965448705782 -19.0452076669717 -9.03420670474637 
	-16.3763440991305 -18.8911686901496 -8.90710016334857 
	-16.7460741265826 -18.564210241066 -8.70285749832329 
	-16.9362863617256 -18.3910057690632 -8.62555891680188 
	-17.3131366038062 -18.0366901027333 -8.52411856925555 
	-17.4997708216998 -17.8555682376276 -8.50000000000009 
	-17.8555682376276 -17.4997708216998 -8.50000000000009 
	-18.0366901027332 -17.3131366038063 -8.52411856925553 
	-18.3910057690632 -16.9362863617256 -8.62555891680184 
	-18.5642102410659 -16.7460741265826 -8.70285749832325 
	-18.8911686901496 -16.3763440991305 -8.90710016334852 
	-19.0452076669717 -16.1965448705782 -9.03420670474632 
	-19.326141945253 -15.8602723285204 -9.32777098421945 
	-19.4530581321284 -15.7038333253336 -9.49424803558512 
	-19.6752805237539 -15.4244996533306 -9.84890172932203 
	-19.7781992721414 -15.2919836786571 -10.049265961809 
	-19.9579747158692 -15.0565991020026 -10.4856958903324 
	-20.0348737262706 -14.9537452193832 -10.7217520933844 
	-20.1577110899515 -14.7877430720724 -11.2143793201701 
	-20.2037677145117 -14.7244832757447 -11.4713509532595 
	-20.2640940282241 -14.6413500339167 -11.9883626007813 
	-20.2783554913614 -14.6215012418689 -12.2484075388778 
	-20.2783554913614 -14.6215012418689 -12.7515924611224 
	-20.2640940282241 -14.6413500339167 -13.0116373992188 
	-20.2037677145117 -14.7244832757447 -13.5286490467406 
	-20.1577110899515 -14.7877430720724 -13.78562067983 
	-20.0348737262707 -14.9537452193832 -14.2782479066157 
	-19.9579747158692 -15.0565991020025 -14.5143041096677 
	-19.7781992721415 -15.291983678657 -14.9507340381911 
	-19.675280523754 -15.4244996533306 -15.1510982706781 
	-19.4530581321285 -15.7038333253336 -15.505751964415 
	-19.3261419452531 -15.8602723285204 -15.6722290157807 
	-19.0452076669717 -16.1965448705781 -15.9657932952538 
	-18.8911686901497 -16.3763440991304 -16.0928998366516 
	-18.564210241066 -16.7460741265826 -16.2971425016769 
	-18.3910057690633 -16.9362863617256 -16.3744410831983 
	-18.0366901027333 -17.3131366038062 -16.4758814307446 
	-17.8555682376277 -17.4997708216997 -16.5000000000001 
	-17.4997708216998 -17.8555682376276 -16.5000000000001 
	-17.3131366038063 -18.0366901027332 -16.4758814307446 
	-16.9362863617257 -18.3910057690632 -16.3744410831983 
	-16.7460741265827 -18.5642102410659 -16.2971425016769 
	-16.3763440991305 -18.8911686901496 -16.0928998366516 
	-16.1965448705782 -19.0452076669717 -15.9657932952538 
	-15.8602723285205 -19.326141945253 -15.6722290157807 
	-15.7038333253336 -19.4530581321284 -15.505751964415 
	-15.4244996533307 -19.6752805237539 -15.1510982706781 
	-15.2919836786571 -19.7781992721414 -14.9507340381912 
	-15.0565991020026 -19.9579747158691 -14.5143041096677 
	-14.9537452193833 -20.0348737262706 -14.2782479066158 
	-14.7877430720725 -20.1577110899514 -13.78562067983 
	-14.7244832757448 -20.2037677145117 -13.5286490467407 
	-14.6413500339168 -20.264094028224 -13.0116373992189 
	-14.621501241869 -20.2783554913613 -12.7515924611224 
	-14.621501241869 -20.2783554913613 -12.5000000000001 
	0.001 
	cone 0 0 -12.5 -0.707106781186549 -0.707106781186546 -3.49148133884313e-15 2.82842712474619 -2.8284271247462 0 1 0 1 0 
	cone 0 0 -25 0 0 1 17.6776695296637 -17.6776695296637 0 1 -0 -1 0 
	nullbs 
	nullbs 
	} #
vertex $-1 $28 $58 #
intcurve-curve $-1 0 { surfintcur nubs 3 periodic 33 
	0 3 0.754777383366881 2 1.50955476673376 2 2.26433215010064 2 3.01910953346753 2 
	3.77386983006124 2 4.52863012665496 2 5.28339042324867 2 6.03815071984238 2 6.7929110164361 2 
	7.54767131302982 2 8.30243160962353 2 9.05719190621725 2 9.81196928958411 2 10.566746672951 2 
	11.3215240563178 2 12.0763014396847 2 12.8310788230516 2 13.5858562064185 2 14.3406335897854 2 
	15.0954109731523 2 15.850171269746 2 16.6049315663397 2 17.3596918629334 2 18.1144521595271 2 
	18.8692124561208 2 19.6239727527145 2 20.3787330493083 2 21.133493345902 2 21.8882707292688 2 
	22.6430481126357 2 23.3978254960026 2 24.1526028793694 3 
	20.2783554913614 14.6215012418689 -12.4999999999999 
	20.2783554913614 14.6215012418689 -12.7515924611222 
	20.2640940282241 14.6413500339167 -13.0116373992187 
	20.2037677145117 14.7244832757447 -13.5286490467405 
	20.1577110899515 14.7877430720724 -13.7856206798298 
	20.0348737262707 14.9537452193832 -14.2782479066156 
	19.9579747158692 15.0565991020026 -14.5143041096676 
	19.7781992721415 15.291983678657 -14.950734038191 
	19.675280523754 15.4244996533306 -15.1510982706779 
	19.4530581321285 15.7038333253336 -15.5057519644148 
	19.326141945253 15.8602723285204 -15.6722290157805 
	19.0452076669717 16.1965448705781 -15.9657932952537 
	18.8911686901497 16.3763440991304 -16.0928998366515 
	18.564210241066 16.7460741265826 -16.2971425016767 
	18.3910057690632 16.9362863617256 -16.3744410831981 
	18.0366901027333 17.3131366038062 -16.4758814307445 
	17.8555682376276 17.4997708216998 -16.4999999999999 
	17.4997708216998 17.8555682376276 -16.4999999999999 
	17.3131366038062 18.0366901027332 -16.4758814307445 
	16.9362863617256 18.3910057690632 -16.3744410831981 
	16.7460741265826 18.5642102410659 -16.2971425016767 
	16.3763440991305 18.8911686901496 -16.0928998366514 
	16.1965448705782 19.0452076669717 -15.9657932952536 
	15.8602723285204 19.326141945253 -15.6722290157805 
	15.7038333253336 19.4530581321284 -15.5057519644148 
	15.4244996533307 19.6752805237539 -15.1510982706779 
	15.2919836786571 19.7781992721414 -14.950734038191 
	15.0565991020026 19.9579747158691 -14.5143041096675 
	14.9537452193832 20.0348737262706 -14.2782479066156 
	14.7877430720725 20.1577110899514 -13.7856206798298 
	14.7244832757448 20.2037677145117 -13.5286490467405 
	14.6413500339168 20.264094028224 -13.0116373992187 
	14.621501241869 20.2783554913613 -12.7515924611222 
	14.621501241869 20.2783554913613 -12.2484075388776 
	14.6413500339168 20.264094028224 -11.9883626007811 
	14.7244832757448 20.2037677145117 -11.4713509532593 
	14.7877430720725 20.1577110899514 -11.21437932017 
	14.9537452193833 20.0348737262706 -10.7217520933842 
	15.0565991020026 19.9579747158691 -10.4856958903322 
	15.2919836786571 19.7781992721414 -10.0492659618088 
	15.4244996533307 19.6752805237539 -9.84890172932186 
	15.7038333253337 19.4530581321284 -9.49424803558495 
	15.8602723285205 19.326141945253 -9.32777098421928 
	16.1965448705782 19.0452076669716 -9.03420670474614 
	16.3763440991305 18.8911686901496 -8.90710016334835 
	16.7460741265827 18.5642102410659 -8.70285749832308 
	16.9362863617257 18.3910057690632 -8.62555891680168 
	17.3131366038063 18.0366901027332 -8.52411856925536 
	17.4997708216998 17.8555682376275 -8.49999999999991 
	17.8555682376277 17.4997708216997 -8.49999999999991 
	18.0366901027333 17.3131366038062 -8.52411856925537 
	18.3910057690633 16.9362863617256 -8.6255589168017 
	18.564210241066 16.7460741265826 -8.70285749832311 
	18.8911686901497 16.3763440991304 -8.9071001633484 
	19.0452076669717 16.1965448705781 -9.03420670474619 
	19.3261419452531 15.8602723285204 -9.32777098421934 
	19.4530581321285 15.7038333253335 -9.49424803558502 
	19.675280523754 15.4244996533306 -9.84890172932193 
	19.7781992721415 15.291983678657 -10.0492659618089 
	19.9579747158692 15.0565991020025 -10.4856958903323 
	20.0348737262707 14.9537452193832 -10.7217520933843 
	20.1577110899515 14.7877430720724 -11.21437932017 
	20.2037677145117 14.7244832757447 -11.4713509532594 
	20.2640940282241 14.6413500339167 -11.9883626007812 
	20.2783554913614 14.6215012418689 -12.2484075388776 
	20.2783554913614 14.6215012418689 -12.4999999999999 
	0.001 
	cone 0 0 -12.5 -0.707106781186549 -0.707106781186546 -3.49148133884313e-15 2.82842712474619 -2.8284271247462 0 1 0 1 0 
	cone 0 0 -25 0 0 1 17.6776695296637 -17.6776695296637 0 1 -0 -1 0 
	nullbs 
	nullbs 
	} #
loop $-1 $-1 $59 $43 #
face $-1 $60 $29 $3 $-1 $61 reversed single #
point $-1 38.1837661840736 32.5269119345811 -12.4999999999998 #
face $-1 $62 $63 $3 $-1 $22 forward single #
loop $-1 $-1 $64 $32 #
coedge $-1 $65 $66 $67 $68 1 $33 $-1 #
coedge $-1 $49 $34 $69 $70 0 $21 $-1 #
coedge $-1 $34 $48 $71 $72 0 $21 $-1 #
coedge $-1 $73 $74 $34 $51 0 $75 $-1 #
edge $-1 $76 $77 $50 $78 1 #
loop $-1 $-1 $79 $8 #
coedge $-1 $53 $53 $80 $81 1 $35 $-1 #
loop $-1 $82 $36 $83 #
vertex $-1 $37 $84 #
ellipse-curve $-1 -35.3553390593275 -35.3553390593274 -12.5000000000002 0.707106781186549 0.707106781186546 0 2.82842712474619 -2.8284271247462 0 1 #
point $-1 -14.621501241869 -20.2783554913613 -12.5000000000001 #
point $-1 20.2783554913614 14.6215012418689 -12.4999999999999 #
coedge $-1 $85 $69 $74 $86 0 $42 $-1 #
face $-1 $87 $88 $3 $-1 $89 reversed single #
plane-surface $-1 35.3553390593274 35.3553390593273 -25 -0.707106781186549 -0.707106781186546 0 0 0 -1 0 #
face $-1 $90 $91 $3 $-1 $92 reversed single #
loop $-1 $-1 $93 $45 #
coedge $-1 $94 $95 $96 $97 1 $46 $-1 #
coedge $-1 $66 $47 $98 $99 0 $33 $-1 #
coedge $-1 $47 $65 $100 $101 0 $33 $-1 #
coedge $-1 $102 $103 $47 $68 0 $104 $-1 #
edge $-1 $105 $106 $67 $107 1 #
coedge $-1 $59 $108 $48 $70 1 $42 $-1 #
edge $-1 $76 $109 $69 $110 0 #
coedge $-1 $111 $112 $49 $72 1 $113 $-1 #
edge $-1 $109 $77 $71 $114 0 #
coedge $-1 $115 $50 $112 $116 1 $75 $-1 #
coedge $-1 $50 $115 $59 $86 1 $75 $-1 #
loop $-1 $-1 $73 $87 #
vertex $-1 $51 $117 #
vertex $-1 $116 $118 #
straight-curve $-1 0 50 -25 1 0 0 #
coedge $-1 $79 $79 $119 $120 1 $52 $-1 #
coedge $-1 $80 $80 $53 $81 0 $91 $-1 #
edge $-1 $121 $121 $80 $122 0 #
loop $-1 $-1 $123 $83 #
face $-1 $124 $54 $3 $-1 $125 reversed single #
point $-1 -32.5269119345813 -38.1837661840735 -12.5000000000002 #
coedge $-1 $126 $59 $127 $128 1 $42 $-1 #
edge $-1 $76 $129 $74 $130 0 #
face $-1 $131 $75 $3 $-1 $132 reversed single #
loop $-1 $-1 $133 $60 #
plane-surface $-1 35.3553390593273 -35.3553390593274 -25 -0.707106781186546 0.707106781186549 0 0 0 1 0 #
face $-1 $83 $113 $3 $-1 $134 reversed single #
loop $-1 $135 $80 $62 #
plane-surface $-1 0 0 -50 0 0 1 0.707106781186546 -0.707106781186549 0 0 #
coedge $-1 $136 $137 $138 $139 1 $63 $-1 #
coedge $-1 $95 $64 $140 $141 0 $46 $-1 #
coedge $-1 $64 $94 $142 $143 0 $46 $-1 #
coedge $-1 $144 $145 $64 $97 0 $146 $-1 #
edge $-1 $147 $148 $96 $149 1 #
coedge $-1 $133 $150 $65 $99 1 $88 $-1 #
edge $-1 $105 $151 $98 $152 0 #
coedge $-1 $153 $126 $66 $101 1 $42 $-1 #
edge $-1 $151 $106 $100 $110 0 #
coedge $-1 $154 $67 $126 $155 1 $104 $-1 #
coedge $-1 $67 $154 $133 $156 1 $104 $-1 #
loop $-1 $-1 $102 $131 #
vertex $-1 $68 $157 #
vertex $-1 $155 $158 #
straight-curve $-1 50 0 -25 0 -1 0 #
coedge $-1 $69 $159 $111 $160 1 $42 $-1 #
vertex $-1 $70 $161 #
straight-curve $-1 35.3553390593274 35.3553390593273 -25 -0.707106781186546 0.707106781186549 0 #
coedge $-1 $162 $71 $108 $160 0 $113 $-1 #
coedge $-1 $71 $163 $73 $116 0 $113 $-1 #
loop $-1 $-1 $112 $90 #
straight-curve $-1 -35.3553390593273 35.3553390593274 -25 -0.707106781186549 -0.707106781186546 0 #
coedge $-1 $74 $73 $164 $165 1 $75 $-1 #
edge $-1 $166 $77 $73 $167 0 #
point $-1 20.7106781186548 50 -25 #
point $-1 -20.7106781186547 50 -25 #
coedge $-1 $119 $119 $79 $120 0 $168 $-1 #
edge $-1 $169 $169 $119 $170 0 #
vertex $-1 $81 $171 #
ellipse-curve $-1 0 0 -50 0 0 1 17.6776695296637 -17.6776695296637 0 1 #
coedge $-1 $172 $173 $174 $175 0 $82 $-1 #
face $-1 $43 $168 $3 $-1 $176 forward single #
plane-surface $-1 -35.3553390593274 -35.3553390593273 -25 0.707106781186549 0.707106781186546 0 0 0 1 0 #
coedge $-1 $100 $85 $102 $155 0 $42 $-1 #
coedge $-1 $164 $177 $85 $128 0 $178 $-1 #
edge $-1 $179 $129 $85 $180 0 #
vertex $-1 $165 $181 #
straight-curve $-1 20.7106781186548 50 -12.5 0 0 1 #
face $-1 $182 $104 $3 $-1 $183 reversed single #
plane-surface $-1 0 50 0 0 -1 0 0 0 -1 0 #
coedge $-1 $184 $98 $103 $156 0 $88 $-1 #
plane-surface $-1 -35.3553390593273 35.3553390593274 -25 0.707106781186546 -0.707106781186549 0 0 0 -1 0 #
loop $-1 $-1 $185 $62 #
coedge $-1 $137 $93 $186 $187 0 $63 $-1 #
coedge $-1 $93 $136 $172 $188 0 $63 $-1 #
coedge $-1 $174 $189 $93 $139 0 $190 $-1 #
edge $-1 $191 $192 $138 $193 1 #
coedge $-1 $194 $195 $94 $141 1 $82 $-1 #
edge $-1 $147 $196 $140 $197 0 #
coedge $-1 $198 $199 $95 $143 1 $88 $-1 #
edge $-1 $196 $148 $142 $152 0 #
coedge $-1 $200 $96 $199 $201 1 $146 $-1 #
coedge $-1 $96 $200 $194 $202 1 $146 $-1 #
loop $-1 $-1 $145 $182 #
vertex $-1 $97 $203 #
vertex $-1 $143 $204 #
straight-curve $-1 0 -50 -25 -1 0 0 #
coedge $-1 $98 $205 $153 $206 1 $88 $-1 #
vertex $-1 $99 $207 #
straight-curve $-1 35.3553390593273 -35.3553390593274 -25 0.707106781186549 0.707106781186546 0 #
coedge $-1 $159 $100 $150 $206 0 $42 $-1 #
coedge $-1 $103 $102 $177 $208 1 $104 $-1 #
edge $-1 $179 $106 $102 $209 0 #
edge $-1 $105 $210 $103 $211 0 #
point $-1 50 -20.7106781186548 -25 #
point $-1 50 20.7106781186547 -25 #
coedge $-1 $108 $153 $212 $213 1 $42 $-1 #
edge $-1 $109 $214 $108 $215 0 #
point $-1 1.20792265079217e-13 70.7106781186548 -25 #
coedge $-1 $216 $111 $217 $218 1 $113 $-1 #
coedge $-1 $112 $219 $220 $221 1 $113 $-1 #
coedge $-1 $220 $127 $115 $165 0 $178 $-1 #
edge $-1 $129 $166 $115 $222 0 #
vertex $-1 $165 $223 #
straight-curve $-1 -20.7106781186547 50 -12.5 0 0 -1 #
loop $-1 $178 $119 $124 #
vertex $-1 $120 $224 #
ellipse-curve $-1 0 0 0 -0 -0 -1 17.6776695296637 -17.6776695296637 0 1 #
point $-1 17.6776695296637 -17.6776695296637 -50 #
coedge $-1 $225 $123 $137 $188 1 $82 $-1 #
coedge $-1 $123 $194 $226 $227 1 $82 $-1 #
coedge $-1 $228 $138 $123 $175 1 $190 $-1 #
edge $-1 $229 $192 $174 $230 0 #
plane-surface $-1 0 0 0 0 0 1 0.707106781186546 -0.707106781186549 0 0 #
coedge $-1 $127 $231 $154 $208 0 $178 $-1 #
loop $-1 $-1 $164 $124 #
vertex $-1 $208 $232 #
straight-curve $-1 35.3553390593274 35.3553390593273 0 -0.707106781186546 0.707106781186549 0 #
point $-1 20.7106781186548 50 0 #
face $-1 $233 $146 $3 $-1 $234 reversed single #
plane-surface $-1 50 0 0 -1 0 0 0 -0 1 0 #
coedge $-1 $199 $133 $231 $235 1 $88 $-1 #
coedge $-1 $236 $212 $205 $237 0 $135 $-1 #
coedge $-1 $219 $216 $136 $187 1 $113 $-1 #
edge $-1 $191 $238 $186 $114 0 #
edge $-1 $238 $192 $172 $197 0 #
coedge $-1 $138 $228 $219 $239 1 $190 $-1 #
loop $-1 $-1 $189 $233 #
vertex $-1 $139 $240 #
vertex $-1 $188 $241 #
straight-curve $-1 -50 0 -25 0 1 0 #
coedge $-1 $173 $140 $145 $202 0 $82 $-1 #
coedge $-1 $140 $242 $198 $243 1 $82 $-1 #
vertex $-1 $143 $244 #
straight-curve $-1 -35.3553390593274 -35.3553390593273 -25 0.707106781186546 -0.707106781186549 0 #
coedge $-1 $205 $142 $195 $243 0 $88 $-1 #
coedge $-1 $142 $184 $144 $201 0 $88 $-1 #
coedge $-1 $145 $144 $245 $246 1 $146 $-1 #
edge $-1 $247 $148 $144 $248 0 #
edge $-1 $147 $249 $145 $250 0 #
point $-1 -20.7106781186548 -50 -25 #
point $-1 20.7106781186547 -50 -25 #
coedge $-1 $150 $198 $185 $237 1 $88 $-1 #
edge $-1 $151 $251 $150 $252 0 #
point $-1 70.7106781186548 -1.20792265079217e-13 -25 #
edge $-1 $210 $179 $154 $253 0 #
straight-curve $-1 50 20.7106781186547 -12.5 -0 0 -1 #
vertex $-1 $208 $254 #
straight-curve $-1 50 -20.7106781186548 -12.5 0 0 1 #
coedge $-1 $185 $217 $159 $213 0 $135 $-1 #
edge $-1 $214 $251 $159 $255 0 #
vertex $-1 $213 $256 #
straight-curve $-1 1.20792265079217e-13 70.7106781186548 -37.5 0 0 -1 #
coedge $-1 $186 $162 $225 $257 1 $113 $-1 #
coedge $-1 $212 $236 $162 $218 0 $135 $-1 #
edge $-1 $258 $214 $162 $259 0 #
coedge $-1 $163 $186 $189 $239 0 $113 $-1 #
coedge $-1 $260 $164 $163 $221 0 $178 $-1 #
edge $-1 $166 $261 $163 $262 0 #
straight-curve $-1 0 50 0 -1 0 0 #
point $-1 -20.7106781186547 50 0 #
point $-1 17.6776695296637 -17.6776695296637 0 #
coedge $-1 $242 $172 $216 $257 0 $82 $-1 #
coedge $-1 $245 $260 $173 $227 0 $178 $-1 #
edge $-1 $229 $249 $173 $263 0 #
coedge $-1 $189 $174 $260 $264 1 $190 $-1 #
vertex $-1 $264 $265 #
straight-curve $-1 -50 -20.7106781186547 -12.5 0 0 -1 #
coedge $-1 $177 $245 $184 $235 0 $178 $-1 #
point $-1 50 20.7106781186547 0 #
face $-1 $-1 $190 $3 $-1 $266 reversed single #
plane-surface $-1 0 -50 0 0 1 -0 -0 0 1 0 #
edge $-1 $247 $210 $184 $267 0 #
coedge $-1 $217 $185 $242 $268 0 $135 $-1 #
edge $-1 $251 $269 $205 $270 0 #
vertex $-1 $187 $271 #
edge $-1 $191 $261 $189 $272 0 #
point $-1 -50 20.7106781186548 -25 #
point $-1 -50 -20.7106781186547 -25 #
coedge $-1 $195 $225 $236 $268 1 $82 $-1 #
edge $-1 $196 $269 $198 $273 0 #
point $-1 -1.20792265079217e-13 -70.7106781186548 -25 #
coedge $-1 $231 $226 $200 $246 0 $178 $-1 #
edge $-1 $249 $247 $200 $274 0 #
vertex $-1 $246 $275 #
straight-curve $-1 20.7106781186547 -50 -12.5 -0 0 -1 #
vertex $-1 $246 $276 #
straight-curve $-1 -20.7106781186548 -50 -12.5 -0 0 1 #
vertex $-1 $237 $277 #
straight-curve $-1 70.7106781186548 -1.20792265079217e-13 -37.5 0 0 -1 #
straight-curve $-1 50 0 0 0 1 -0 #
point $-1 50 -20.7106781186548 0 #
straight-curve $-1 35.3553390593274 35.3553390593273 -50 0.707106781186546 -0.707106781186549 0 #
point $-1 1.20792265079217e-13 70.7106781186548 -50 #
edge $-1 $238 $258 $216 $278 0 #
vertex $-1 $218 $279 #
straight-curve $-1 -35.3553390593273 35.3553390593274 -50 0.707106781186549 0.707106781186546 0 #
coedge $-1 $226 $220 $228 $264 0 $178 $-1 #
vertex $-1 $264 $280 #
straight-curve $-1 -35.3553390593273 35.3553390593274 0 -0.707106781186549 -0.707106781186546 0 #
straight-curve $-1 -35.3553390593274 -35.3553390593273 0 0.707106781186546 -0.707106781186549 0 #
edge $-1 $261 $229 $228 $281 0 #
point $-1 -50 -20.7106781186547 0 #
plane-surface $-1 -50 0 0 1 0 0 0 0 -1 0 #
straight-curve $-1 35.3553390593273 -35.3553390593274 0 0.707106781186549 0.707106781186546 0 #
edge $-1 $269 $258 $242 $282 0 #
vertex $-1 $243 $283 #
straight-curve $-1 35.3553390593273 -35.3553390593274 -50 -0.707106781186549 -0.707106781186546 0 #
point $-1 -70.7106781186548 1.20792265079217e-13 -25 #
straight-curve $-1 -50 20.7106781186548 -12.5 -0 0 1 #
straight-curve $-1 -1.20792265079217e-13 -70.7106781186548 -37.5 0 0 -1 #
straight-curve $-1 0 -50 0 1 -0 0 #
point $-1 20.7106781186547 -50 0 #
point $-1 -20.7106781186548 -50 0 #
point $-1 70.7106781186548 -1.20792265079217e-13 -50 #
straight-curve $-1 -70.7106781186548 1.20792265079217e-13 -37.5 0 0 -1 #
point $-1 -70.7106781186548 1.20792265079217e-13 -50 #
point $-1 -50 20.7106781186548 0 #
straight-curve $-1 -50 0 0 0 -1 0 #
straight-curve $-1 -35.3553390593274 -35.3553390593273 -50 -0.707106781186546 0.707106781186549 0 #
point $-1 -1.20792265079217e-13 -70.7106781186548 -50 #
