600 0 1 0           
97 GICL ACIS Healer - Source: /gicl/data5/repository/UMD/unmachinable-ex1/unmachinable-ex1.sat - 6 0 18 ACIS 6.0.3 Solaris 24 Sun Apr 14 00:34:28 2002 
1 9.999999999999999547e-07 1.000000000000000036e-10 
body $-1 $1 $-1 $-1 #
lump $-1 $-1 $2 $0 #
shell $-1 $-1 $-1 $3 $-1 $1 #
face $-1 $4 $5 $2 $-1 $6 reversed single #
face $-1 $7 $8 $2 $-1 $6 reversed single #
loop $-1 $9 $10 $3 #
cone-surface $-1 0 0 12.5 0 -1 -3.491481338843129805e-15 4.000000000000007105 1.332267629550187849e-15 0 1 I I 0 1 4.000000000000007105 forward I I I I #
face $-1 $11 $12 $2 $-1 $13 reversed single #
loop $-1 $14 $15 $4 #
loop $-1 $-1 $16 $3 #
coedge $-1 $10 $10 $17 $18 reversed $5 $-1 #
face $-1 $19 $20 $2 $-1 $21 forward single #
loop $-1 $22 $23 $7 #
cone-surface $-1 0 0 0 0 0 1 25.00000000000001421 5.151434834260726348e-14 0 1 I I 0 1 25.00000000000001421 forward I I I I #
loop $-1 $-1 $24 $4 #
coedge $-1 $15 $15 $23 $25 reversed $8 $-1 #
coedge $-1 $16 $16 $26 $27 reversed $9 $-1 #
coedge $-1 $17 $17 $10 $18 forward $28 $-1 #
edge $-1 $29 0 $29 6.283185307179586232 $17 $30 forward 7 unknown #
face $-1 $31 $32 $2 $-1 $21 forward single #
loop $-1 $-1 $33 $11 #
plane-surface $-1 0 0 0 0 0 1 1 0 0 forward_v I I I I #
loop $-1 $34 $26 $7 #
coedge $-1 $23 $23 $15 $25 forward $12 $-1 #
coedge $-1 $24 $24 $35 $36 reversed $14 $-1 #
edge $-1 $37 0 $37 24.15260287936940031 $23 $38 forward 7 unknown #
coedge $-1 $26 $26 $16 $27 forward $22 $-1 #
edge $-1 $39 0 $39 24.15260287936940031 $26 $40 forward 7 unknown #
loop $-1 $41 $17 $42 #
vertex $-1 $18 $43 #
ellipse-curve $-1 -3.552713678800500929e-14 49.99999999999995737 12.50000000000020073 0 -1 0 4.000000000000007105 1.332267629550187849e-15 0 1 I I #
face $-1 $44 $45 $2 $-1 $21 forward single #
loop $-1 $-1 $46 $19 #
coedge $-1 $47 $48 $49 $50 reversed $20 $-1 #
loop $-1 $51 $52 $7 #
coedge $-1 $35 $35 $24 $36 forward $53 $-1 #
edge $-1 $54 0 $54 6.283185307179586232 $35 $55 forward 7 unknown #
vertex $-1 $25 $56 #
intcurve-curve $-1 forward { surfintcur full nubs 3 periodic 33 
	0 3 0.7547773833668649512 2 1.509554766733729902 2 2.264332150100590191 2 3.019109533467459805 2 
	3.773869830061169939 2 4.528630126654880073 2 5.283390423248589762 2 6.03815071984230034 2 6.79291101643601003 2 
	7.54767131302971972 2 8.302431609623429409 2 9.057191906217150645 2 9.811969289584039799 2 10.56674667295090053 2 
	11.32152405631780034 2 12.07630143968470016 2 12.83107882305159997 2 13.5858562064184003 2 14.34063358978530012 2 
	15.09541097315219993 2 15.85017126974589985 2 16.60493156633960155 2 17.35969186293329969 2 18.11445215952700138 2 
	18.86921245612069953 2 19.6239727527145007 2 20.37873304930819884 2 21.13349334590190054 2 21.88827072926880035 2 
	22.64304811263570016 2 23.3978254960025005 2 24.15260287936940031 3 
	3.999999999999994671 -24.67792535850612623 12.49999999999990052 
	3.999999999999994671 -24.67792535850612623 12.75159246112220046 
	3.975880407250610205 -24.68187619666746002 13.01163739921869933 
	3.87443918270205323 -24.69800313019610627 13.52864904674049917 
	3.797140800197105648 -24.71016760961074965 13.78562067982979933 
	3.59290042330041004 -24.74068972082390516 14.27824790661560073 
	3.465795933707431331 -24.75904258697401161 14.51430410966749918 
	3.172233468017632063 -24.79836418196245873 14.95073403819099944 
	3.005755978814352858 -24.81929258137367356 15.15109827067789006 
	2.651102285077479692 -24.85967635501078021 15.50575196441480053 
	2.450739908700095171 -24.88055213862429582 15.67222901578048067 
	2.01430878064372898 -24.91968220019974822 15.96579329525362922 
	1.778249521804344369 -24.93789744888324478 16.09289983665142998 
	1.285616375671427392 -24.96814152198966497 16.29714250167670997 
	1.028641957652144612 -24.98016782663891533 16.37444108319812131 
	0.5116295856426589239 -24.99610217796339739 16.475881430744451 
	0.251586765531250478 -25.00000000000001776 16.49999999999990763 
	-0.2515867655311438966 -25.00000000000001776 16.49999999999990763 
	-0.5116295856424120103 -24.99610217796340095 16.47588143074447231 
	-1.02864195765203803 -24.98016782663891888 16.37444108319816038 
	-1.285616375671249756 -24.96814152198960102 16.2971425016767526 
	-1.778249521804237787 -24.93789744888325188 16.09289983665147972 
	-2.014308780643624175 -24.91968220019975888 15.96579329525368074 
	-2.45073990869998859 -24.88055213862430293 15.67222901578054994 
	-2.651102285077374887 -24.85967635501079087 15.50575196441488046 
	-3.005755978814319107 -24.81929258137361671 15.15109827067796999 
	-3.172233468017527258 -24.79836418196246939 14.95073403819099944 
	-3.46579593370739758 -24.75904258697409688 14.51430410966760043 
	-3.592900423300307011 -24.74068972082391937 14.27824790661560073 
	-3.797140800197144728 -24.71016760961077097 13.78562067982990058 
	-3.87443918270201948 -24.69800313019604943 13.52864904674049917 
	-3.975880407250645732 -24.68187619666747779 13.01163739921869933 
	-4.000000000000031974 -24.67792535850614399 12.75159246112220046 
	-4.000000000000031974 -24.67792535850614399 12.24840753887760059 
	-3.975880407250645732 -24.68187619666747779 11.98836260078119942 
	-3.87443918270201948 -24.69800313019604943 11.47135095325939957 
	-3.797140800197144728 -24.71016760961077097 11.21437932016999994 
	-3.592900423300376289 -24.74068972082399043 10.7217520933842998 
	-3.465795933707468635 -24.75904258697402582 10.4856958903323001 
	-3.172233468017669367 -24.79836418196246939 10.04926596180889931 
	-3.005755978814390161 -24.81929258137368421 9.848901729321900334 
	-2.651102285077444165 -24.85967635501086193 9.494248035585000522 
	-2.450739908700059644 -24.88055213862437398 9.327770984219300843 
	-2.014308780643693453 -24.91968220019968783 9.034206704746200245 
	-1.778249521804381672 -24.93789744888325544 8.907100163348399491 
	-1.28561637567132081 -24.96814152198966852 8.702857498323101737 
	-1.028641957652110861 -24.98016782663898994 8.625558916801701059 
	-0.5116295856425523425 -24.99610217796340095 8.524118569255399791 
	-0.2515867655312877815 -25.00000000000001421 8.499999999999900524 
	0.251586765531250478 -25.00000000000001776 8.499999999999900524 
	0.5116295856425168154 -24.99610217796340095 8.524118569255399791 
	1.028641957652073557 -24.98016782663898283 8.625558916801701059 
	1.285616375671287059 -24.96814152198966497 8.702857498323101737 
	1.778249521804344369 -24.93789744888324478 8.907100163348399491 
	2.01430878064372898 -24.91968220019974822 9.034206704746200245 
	2.450739908700024117 -24.88055213862436688 9.327770984219300843 
	2.651102285077479692 -24.85967635501078021 9.494248035585000522 
	3.005755978814352858 -24.81929258137367356 9.848901729321900334 
	3.172233468017632063 -24.79836418196245873 10.04926596180879983 
	3.465795933707431331 -24.75904258697401161 10.4856958903323001 
	3.592900423300338986 -24.74068972082397622 10.72175209338420032 
	3.797140800197105648 -24.71016760961074965 11.21437932016999994 
	3.87443918270205323 -24.69800313019610627 11.4713509532593001 
	3.975880407250610205 -24.68187619666746002 11.98836260078109994 
	3.999999999999994671 -24.67792535850612623 12.24840753887760059 
	3.999999999999994671 -24.67792535850612623 12.49999999999990052 
	0.001000000000000000021 
	cone 0 0 12.5 0 -1 -3.491481338843129805e-15 4.000000000000007105 1.332267629550187849e-15 0 1 I I 0 1 4.000000000000007105 forward I I I I 
	cone 0 0 0 0 0 1 25.00000000000001421 5.151434834260726348e-14 0 1 I I -0 -1 25.00000000000001421 forward I I I I 
	nullbs 
	nullbs 
	I I 
	0 
	0 
	0 
	} I I #
vertex $-1 $27 $57 #
intcurve-curve $-1 forward { surfintcur full nubs 3 periodic 33 
	0 3 0.7547773833668810495 2 1.509554766733760101 2 2.264332150100639929 2 3.019109533467529971 2 
	3.773869830061240105 2 4.528630126654960009 2 5.283390423248669698 2 6.038150719842380276 2 6.792911016436099736 2 
	7.547671313029820084 2 8.302431609623530662 2 9.057191906217250121 2 9.811969289584110854 2 10.56674667295100001 2 
	11.32152405631780034 2 12.07630143968470016 2 12.83107882305159997 2 13.58585620641849978 2 14.34063358978539959 2 
	15.09541097315229941 2 15.85017126974599933 2 16.60493156633970102 2 17.35969186293339916 2 18.11445215952710086 2 
	18.869212456120799 2 19.6239727527145007 2 20.37873304930829832 2 21.13349334590200002 2 21.88827072926880035 2 
	22.64304811263570016 2 23.39782549600259998 2 24.15260287936940031 3 
	4.000000000000031974 24.67792535850614399 12.50000000000009948 
	4.000000000000031974 24.67792535850614399 12.24840753887779954 
	3.975880407250645732 24.68187619666747779 11.98836260078130067 
	3.87443918270201948 24.69800313019604943 11.47135095325950083 
	3.797140800197144728 24.71016760961077097 11.21437932017020067 
	3.592900423300376289 24.74068972082399043 10.72175209338439927 
	3.46579593370739758 24.75904258697409688 10.48569589033239957 
	3.172233468017669367 24.79836418196246939 10.04926596180900056 
	3.005755978814390161 24.81929258137368421 9.848901729322099285 
	2.651102285077444165 24.85967635501086193 9.494248035585199474 
	2.45073990869998859 24.88055213862430293 9.327770984219499795 
	2.014308780643693453 24.91968220019968783 9.034206704746299721 
	1.778249521804381672 24.93789744888325544 8.907100163348498967 
	1.28561637567132081 24.96814152198966852 8.702857498323300689 
	1.02864195765203803 24.98016782663891888 8.625558916801900011 
	0.5116295856425523425 24.99610217796340095 8.524118569255499267 
	0.2515867655311438966 25.00000000000001776 8.500000000000099476 
	-0.251586765531250478 25.00000000000001776 8.500000000000099476 
	-0.5116295856425878696 24.99610217796332989 8.524118569255499267 
	-1.028641957652144612 24.98016782663891533 8.625558916801900011 
	-1.285616375671358114 24.96814152198959391 8.702857498323300689 
	-1.778249521804344369 24.93789744888324478 8.907100163348598443 
	-2.01430878064372898 24.91968220019974822 9.034206704746399197 
	-2.450739908700095171 24.88055213862429582 9.327770984219499795 
	-2.651102285077479692 24.85967635501078021 9.494248035585199474 
	-3.005755978814352858 24.81929258137367356 9.848901729322099285 
	-3.172233468017632063 24.79836418196245873 10.04926596180900056 
	-3.465795933707431331 24.75904258697401161 10.48569589033250082 
	-3.59290042330041004 24.74068972082390516 10.72175209338439927 
	-3.797140800197105648 24.71016760961074965 11.21437932017020067 
	-3.87443918270205323 24.69800313019610627 11.47135095325950083 
	-3.975880407250610205 24.68187619666746002 11.98836260078130067 
	-3.999999999999994671 24.67792535850612623 12.24840753887779954 
	-3.999999999999994671 24.67792535850612623 12.75159246112239941 
	-3.975880407250610205 24.68187619666746002 13.01163739921890006 
	-3.87443918270205323 24.69800313019610627 13.5286490467406999 
	-3.797140800197105648 24.71016760961074965 13.78562067983000006 
	-3.592900423300338986 24.74068972082397622 14.27824790661579968 
	-3.465795933707431331 24.75904258697401161 14.51430410966779938 
	-3.172233468017632063 24.79836418196245873 14.95073403819120017 
	-3.005755978814352858 24.81929258137367356 15.15109827067814052 
	-2.651102285077408638 24.85967635501085127 15.50575196441504922 
	-2.450739908700024117 24.88055213862436688 15.67222901578072047 
	-2.014308780643657926 24.91968220019967717 15.96579329525386015 
	-1.778249521804344369 24.93789744888324478 16.09289983665165025 
	-1.285616375671287059 24.96814152198966497 16.29714250167691958 
	-1.028641957652073557 24.98016782663898283 16.37444108319832026 
	-0.5116295856425168154 24.99610217796340095 16.47588143074463929 
	-0.2515867655311812001 24.99999999999995026 16.50000000000009237 
	0.2515867655312877815 25.00000000000001421 16.50000000000009237 
	0.5116295856425523425 24.99610217796340095 16.47588143074462863 
	1.028641957652110861 24.98016782663898994 16.37444108319829894 
	1.28561637567132081 24.96814152198966852 16.2971425016768876 
	1.778249521804381672 24.93789744888325544 16.09289983665160051 
	2.014308780643693453 24.91968220019968783 15.96579329525381041 
	2.450739908700059644 24.88055213862437398 15.67222901578066008 
	2.651102285077515219 24.85967635501079087 15.50575196441497994 
	3.005755978814390161 24.81929258137368421 15.15109827067806947 
	3.172233468017669367 24.79836418196246939 14.95073403819110069 
	3.465795933707468635 24.75904258697402582 14.5143041096676999 
	3.592900423300376289 24.74068972082399043 14.2782479066157002 
	3.797140800197144728 24.71016760961077097 13.78562067983000006 
	3.87443918270201948 24.69800313019604943 13.52864904674060043 
	3.975880407250645732 24.68187619666747779 13.01163739921880058 
	4.000000000000031974 24.67792535850614399 12.75159246112239941 
	4.000000000000031974 24.67792535850614399 12.50000000000009948 
	0.001000000000000000021 
	cone 0 0 12.5 0 -1 -3.491481338843129805e-15 4.000000000000007105 1.332267629550187849e-15 0 1 I I 0 1 4.000000000000007105 forward I I I I 
	cone 0 0 0 0 0 1 25.00000000000001421 5.151434834260726348e-14 0 1 I I -0 -1 25.00000000000001421 forward I I I I 
	nullbs 
	nullbs 
	I I 
	0 
	0 
	0 
	} I I #
loop $-1 $-1 $58 $42 #
face $-1 $59 $28 $2 $-1 $60 reversed single #
point $-1 3.999999999999975131 49.99999999999997158 12.50000000000020073 #
face $-1 $61 $62 $2 $-1 $21 forward single #
loop $-1 $-1 $63 $31 #
coedge $-1 $64 $65 $66 $67 reversed $32 $-1 #
coedge $-1 $48 $33 $68 $69 forward $20 $-1 #
coedge $-1 $33 $47 $70 $71 forward $20 $-1 #
coedge $-1 $72 $73 $33 $50 forward $74 $-1 #
edge $-1 $75 -20.71067811865479769 $76 20.71067811865470532 $49 $77 reversed 7 unknown #
loop $-1 $-1 $78 $7 #
coedge $-1 $52 $52 $79 $80 reversed $34 $-1 #
loop $-1 $81 $35 $82 #
vertex $-1 $36 $83 #
ellipse-curve $-1 3.552713678800500929e-14 -50.00000000000009948 12.49999999999979927 0 1 0 4.000000000000007105 1.332267629550187849e-15 0 1 I I #
point $-1 3.999999999999994671 -24.67792535850612623 12.49999999999990052 #
point $-1 4.000000000000031974 24.67792535850614399 12.50000000000009948 #
coedge $-1 $84 $68 $73 $85 forward $41 $-1 #
face $-1 $86 $87 $2 $-1 $88 reversed single #
plane-surface $-1 -3.552713678800500929e-14 49.99999999999995737 0 0 -1 0 0 0 -1 forward_v I I I I #
face $-1 $89 $90 $2 $-1 $91 reversed single #
loop $-1 $-1 $92 $44 #
coedge $-1 $93 $94 $95 $96 reversed $45 $-1 #
coedge $-1 $65 $46 $97 $98 forward $32 $-1 #
coedge $-1 $46 $64 $99 $100 forward $32 $-1 #
coedge $-1 $101 $102 $46 $67 forward $103 $-1 #
edge $-1 $104 -20.71067811865479769 $105 20.71067811865470532 $66 $106 reversed 7 unknown #
coedge $-1 $58 $107 $47 $69 reversed $41 $-1 #
edge $-1 $75 20.71067811865478347 $108 50.00000000000001421 $68 $109 forward 7 unknown #
coedge $-1 $110 $111 $48 $71 reversed $112 $-1 #
edge $-1 $108 -50.00000000000004974 $76 -20.71067811865471597 $70 $113 forward 7 unknown #
coedge $-1 $114 $49 $111 $115 reversed $74 $-1 #
coedge $-1 $49 $114 $58 $85 reversed $74 $-1 #
loop $-1 $-1 $72 $86 #
vertex $-1 $50 $116 #
vertex $-1 $115 $117 #
straight-curve $-1 -35.35533905932744858 35.35533905932729937 0 0.7071067811865460184 0.707106781186549016 0 I I #
coedge $-1 $78 $78 $118 $119 reversed $51 $-1 #
coedge $-1 $79 $79 $52 $80 forward $90 $-1 #
edge $-1 $120 0 $120 6.283185307179586232 $79 $121 forward 7 unknown #
loop $-1 $-1 $122 $82 #
face $-1 $123 $53 $2 $-1 $124 reversed single #
point $-1 3.999999999999975131 -50.00000000000002132 12.49999999999979927 #
coedge $-1 $125 $58 $126 $127 reversed $41 $-1 #
edge $-1 $75 -12.5 $128 12.5 $73 $129 forward 7 unknown #
face $-1 $130 $74 $2 $-1 $131 reversed single #
loop $-1 $-1 $132 $59 #
plane-surface $-1 49.99999999999995737 3.552713678800500929e-14 0 -1 0 0 0 0 1 forward_v I I I I #
face $-1 $82 $112 $2 $-1 $133 reversed single #
loop $-1 $134 $79 $61 #
plane-surface $-1 0 0 -25 0 0 1 1 0 0 forward_v I I I I #
coedge $-1 $135 $136 $137 $138 reversed $62 $-1 #
coedge $-1 $94 $63 $139 $140 forward $45 $-1 #
coedge $-1 $63 $93 $141 $142 forward $45 $-1 #
coedge $-1 $143 $144 $63 $96 forward $145 $-1 #
edge $-1 $146 -20.71067811865479769 $147 20.71067811865470532 $95 $148 reversed 7 unknown #
coedge $-1 $132 $149 $64 $98 reversed $87 $-1 #
edge $-1 $104 20.71067811865478347 $150 50.00000000000001421 $97 $151 forward 7 unknown #
coedge $-1 $152 $125 $65 $100 reversed $41 $-1 #
edge $-1 $150 -50.00000000000004974 $105 -20.71067811865471597 $99 $109 forward 7 unknown #
coedge $-1 $153 $66 $125 $154 reversed $103 $-1 #
coedge $-1 $66 $153 $132 $155 reversed $103 $-1 #
loop $-1 $-1 $101 $130 #
vertex $-1 $67 $156 #
vertex $-1 $154 $157 #
straight-curve $-1 35.35533905932729937 35.35533905932744858 0 0.707106781186549016 -0.7071067811865460184 0 I I #
coedge $-1 $68 $158 $110 $159 reversed $41 $-1 #
vertex $-1 $69 $160 #
straight-curve $-1 -3.552713678800500929e-14 49.99999999999995737 0 -1 0 0 I I #
coedge $-1 $161 $70 $107 $159 forward $112 $-1 #
coedge $-1 $70 $162 $72 $115 forward $112 $-1 #
loop $-1 $-1 $111 $89 #
straight-curve $-1 -49.99999999999995737 -3.552713678800500929e-14 0 0 -1 0 I I #
coedge $-1 $73 $72 $163 $164 reversed $74 $-1 #
edge $-1 $165 -12.5 $76 12.5 $72 $166 forward 7 unknown #
point $-1 -20.710678118654819 49.99999999999998579 0 #
point $-1 -50.00000000000000711 20.71067811865468045 0 #
coedge $-1 $118 $118 $78 $119 forward $167 $-1 #
edge $-1 $168 0 $168 6.283185307179586232 $118 $169 forward 7 unknown #
vertex $-1 $80 $170 #
ellipse-curve $-1 0 0 -25 0 0 1 25.00000000000001421 5.151434834260726348e-14 0 1 I I #
coedge $-1 $171 $172 $173 $174 forward $81 $-1 #
face $-1 $42 $167 $2 $-1 $175 forward single #
plane-surface $-1 3.552713678800500929e-14 -49.99999999999995737 0 0 1 0 0 0 1 forward_v I I I I #
coedge $-1 $99 $84 $101 $154 forward $41 $-1 #
coedge $-1 $163 $176 $84 $127 forward $177 $-1 #
edge $-1 $178 -20.71067811865471597 $128 20.71067811865478347 $84 $179 forward 7 unknown #
vertex $-1 $164 $180 #
straight-curve $-1 -20.710678118654819 49.99999999999998579 12.5 0 0 1 I I #
face $-1 $181 $103 $2 $-1 $182 reversed single #
plane-surface $-1 -35.35533905932744858 35.35533905932729937 25 0.707106781186549016 -0.7071067811865460184 0 0 0 -1 forward_v I I I I #
coedge $-1 $183 $97 $102 $155 forward $87 $-1 #
plane-surface $-1 -49.99999999999995737 -3.552713678800500929e-14 0 1 0 0 0 0 -1 forward_v I I I I #
loop $-1 $-1 $184 $61 #
coedge $-1 $136 $92 $185 $186 forward $62 $-1 #
coedge $-1 $92 $135 $171 $187 forward $62 $-1 #
coedge $-1 $173 $188 $92 $138 forward $189 $-1 #
edge $-1 $190 -20.71067811865479769 $191 20.71067811865470532 $137 $192 reversed 7 unknown #
coedge $-1 $193 $194 $93 $140 reversed $81 $-1 #
edge $-1 $146 20.71067811865478347 $195 50.00000000000001421 $139 $196 forward 7 unknown #
coedge $-1 $197 $198 $94 $142 reversed $87 $-1 #
edge $-1 $195 -50.00000000000004974 $147 -20.71067811865471597 $141 $151 forward 7 unknown #
coedge $-1 $199 $95 $198 $200 reversed $145 $-1 #
coedge $-1 $95 $199 $193 $201 reversed $145 $-1 #
loop $-1 $-1 $144 $181 #
vertex $-1 $96 $202 #
vertex $-1 $142 $203 #
straight-curve $-1 35.35533905932744858 -35.35533905932729937 0 -0.7071067811865460184 -0.707106781186549016 0 I I #
coedge $-1 $97 $204 $152 $205 reversed $87 $-1 #
vertex $-1 $98 $206 #
straight-curve $-1 49.99999999999995737 3.552713678800500929e-14 0 0 1 0 I I #
coedge $-1 $158 $99 $149 $205 forward $41 $-1 #
coedge $-1 $102 $101 $176 $207 reversed $103 $-1 #
edge $-1 $178 -12.5 $105 12.5 $101 $208 forward 7 unknown #
edge $-1 $104 -12.5 $209 12.5 $102 $210 forward 7 unknown #
point $-1 49.99999999999998579 20.710678118654819 0 #
point $-1 20.71067811865468045 50.00000000000000711 0 #
coedge $-1 $107 $152 $211 $212 reversed $41 $-1 #
edge $-1 $108 -12.5 $213 12.5 $107 $214 forward 7 unknown #
point $-1 -50.00000000000004974 50.00000000000001421 0 #
coedge $-1 $215 $110 $216 $217 reversed $112 $-1 #
coedge $-1 $111 $218 $219 $220 reversed $112 $-1 #
coedge $-1 $219 $126 $114 $164 forward $177 $-1 #
edge $-1 $128 -20.71067811865479769 $165 20.71067811865470532 $114 $221 forward 7 unknown #
vertex $-1 $164 $222 #
straight-curve $-1 -50.00000000000000711 20.71067811865468045 12.5 0 0 -1 I I #
loop $-1 $177 $118 $123 #
vertex $-1 $119 $223 #
ellipse-curve $-1 0 0 25 0 -0 -1 25.00000000000001421 5.151434834260726348e-14 0 1 I I #
point $-1 25.00000000000001421 5.151434834260726348e-14 -25 #
coedge $-1 $224 $122 $136 $187 reversed $81 $-1 #
coedge $-1 $122 $193 $225 $226 reversed $81 $-1 #
coedge $-1 $227 $137 $122 $174 reversed $189 $-1 #
edge $-1 $228 -12.5 $191 12.5 $173 $229 forward 7 unknown #
plane-surface $-1 0 0 25 0 0 1 1 0 0 forward_v I I I I #
coedge $-1 $126 $230 $153 $207 forward $177 $-1 #
loop $-1 $-1 $163 $123 #
vertex $-1 $207 $231 #
straight-curve $-1 -3.552713678800500929e-14 49.99999999999995737 25 -1 0 0 I I #
point $-1 -20.710678118654819 49.99999999999998579 25 #
face $-1 $232 $145 $2 $-1 $233 reversed single #
plane-surface $-1 35.35533905932729937 35.35533905932744858 25 -0.7071067811865460184 -0.707106781186549016 0 0 0 1 forward_v I I I I #
coedge $-1 $198 $132 $230 $234 reversed $87 $-1 #
coedge $-1 $235 $211 $204 $236 forward $134 $-1 #
coedge $-1 $218 $215 $135 $186 reversed $112 $-1 #
edge $-1 $190 20.71067811865478347 $237 50.00000000000001421 $185 $113 forward 7 unknown #
edge $-1 $237 -50.00000000000004974 $191 -20.71067811865471597 $171 $196 forward 7 unknown #
coedge $-1 $137 $227 $218 $238 reversed $189 $-1 #
loop $-1 $-1 $188 $232 #
vertex $-1 $138 $239 #
vertex $-1 $187 $240 #
straight-curve $-1 -35.35533905932729937 -35.35533905932744858 0 -0.707106781186549016 0.7071067811865460184 0 I I #
coedge $-1 $172 $139 $144 $201 forward $81 $-1 #
coedge $-1 $139 $241 $197 $242 reversed $81 $-1 #
vertex $-1 $142 $243 #
straight-curve $-1 3.552713678800500929e-14 -49.99999999999995737 0 1 0 0 I I #
coedge $-1 $204 $141 $194 $242 forward $87 $-1 #
coedge $-1 $141 $183 $143 $200 forward $87 $-1 #
coedge $-1 $144 $143 $244 $245 reversed $145 $-1 #
edge $-1 $246 -12.5 $147 12.5 $143 $247 forward 7 unknown #
edge $-1 $146 -12.5 $248 12.5 $144 $249 forward 7 unknown #
point $-1 20.710678118654819 -49.99999999999998579 0 #
point $-1 50.00000000000000711 -20.71067811865468045 0 #
coedge $-1 $149 $197 $184 $236 reversed $87 $-1 #
edge $-1 $150 -12.5 $250 12.5 $149 $251 forward 7 unknown #
point $-1 50.00000000000001421 50.00000000000004974 0 #
edge $-1 $209 -20.71067811865479769 $178 20.71067811865470532 $153 $252 forward 7 unknown #
straight-curve $-1 20.71067811865468045 50.00000000000000711 12.5 -0 0 -1 I I #
vertex $-1 $207 $253 #
straight-curve $-1 49.99999999999998579 20.710678118654819 12.5 0 0 1 I I #
coedge $-1 $184 $216 $158 $212 forward $134 $-1 #
edge $-1 $213 -50.00000000000001421 $250 50.00000000000004974 $158 $254 forward 7 unknown #
vertex $-1 $212 $255 #
straight-curve $-1 -50.00000000000004974 50.00000000000001421 -12.5 0 0 -1 I I #
coedge $-1 $185 $161 $224 $256 reversed $112 $-1 #
coedge $-1 $211 $235 $161 $217 forward $134 $-1 #
edge $-1 $257 -50.00000000000001421 $213 50.00000000000004974 $161 $258 forward 7 unknown #
coedge $-1 $162 $185 $188 $238 forward $112 $-1 #
coedge $-1 $259 $163 $162 $220 forward $177 $-1 #
edge $-1 $165 -20.71067811865471597 $260 20.71067811865478347 $162 $261 forward 7 unknown #
straight-curve $-1 -35.35533905932744858 35.35533905932729937 25 -0.7071067811865460184 -0.707106781186549016 0 I I #
point $-1 -50.00000000000000711 20.71067811865468045 25 #
point $-1 25.00000000000001421 5.151434834260726348e-14 25 #
coedge $-1 $241 $171 $215 $256 forward $81 $-1 #
coedge $-1 $244 $259 $172 $226 forward $177 $-1 #
edge $-1 $228 -20.71067811865471597 $248 20.71067811865478347 $172 $262 forward 7 unknown #
coedge $-1 $188 $173 $259 $263 reversed $189 $-1 #
vertex $-1 $263 $264 #
straight-curve $-1 -20.71067811865468045 -50.00000000000000711 12.5 0 0 -1 I I #
coedge $-1 $176 $244 $183 $234 forward $177 $-1 #
point $-1 20.71067811865468045 50.00000000000000711 25 #
face $-1 $-1 $189 $2 $-1 $265 reversed single #
plane-surface $-1 35.35533905932744858 -35.35533905932729937 25 -0.707106781186549016 0.7071067811865460184 0 0 0 1 forward_v I I I I #
edge $-1 $246 -20.71067811865471597 $209 20.71067811865478347 $183 $266 forward 7 unknown #
coedge $-1 $216 $184 $241 $267 forward $134 $-1 #
edge $-1 $250 -50.00000000000001421 $268 50.00000000000004974 $204 $269 forward 7 unknown #
vertex $-1 $186 $270 #
edge $-1 $190 -12.5 $260 12.5 $188 $271 forward 7 unknown #
point $-1 -49.99999999999998579 -20.710678118654819 0 #
point $-1 -20.71067811865468045 -50.00000000000000711 0 #
coedge $-1 $194 $224 $235 $267 reversed $81 $-1 #
edge $-1 $195 -12.5 $268 12.5 $197 $272 forward 7 unknown #
point $-1 50.00000000000004974 -50.00000000000001421 0 #
coedge $-1 $230 $225 $199 $245 forward $177 $-1 #
edge $-1 $248 -20.71067811865479769 $246 20.71067811865470532 $199 $273 forward 7 unknown #
vertex $-1 $245 $274 #
straight-curve $-1 50.00000000000000711 -20.71067811865468045 12.5 -0 0 -1 I I #
vertex $-1 $245 $275 #
straight-curve $-1 20.710678118654819 -49.99999999999998579 12.5 0 0 1 I I #
vertex $-1 $236 $276 #
straight-curve $-1 50.00000000000001421 50.00000000000004974 -12.5 0 0 -1 I I #
straight-curve $-1 35.35533905932729937 35.35533905932744858 25 -0.707106781186549016 0.7071067811865460184 0 I I #
point $-1 49.99999999999998579 20.710678118654819 25 #
straight-curve $-1 -3.552713678800500929e-14 49.99999999999995737 -25 1 0 0 I I #
point $-1 -50.00000000000004974 50.00000000000001421 -25 #
edge $-1 $237 -12.5 $257 12.5 $215 $277 forward 7 unknown #
vertex $-1 $217 $278 #
straight-curve $-1 -49.99999999999995737 -3.552713678800500929e-14 -25 0 1 0 I I #
coedge $-1 $225 $219 $227 $263 forward $177 $-1 #
vertex $-1 $263 $279 #
straight-curve $-1 -49.99999999999995737 -3.552713678800500929e-14 25 0 -1 0 I I #
straight-curve $-1 3.552713678800500929e-14 -49.99999999999995737 25 1 0 0 I I #
edge $-1 $260 -20.71067811865479769 $228 20.71067811865470532 $227 $280 forward 7 unknown #
point $-1 -20.71067811865468045 -50.00000000000000711 25 #
plane-surface $-1 -35.35533905932729937 -35.35533905932744858 25 0.7071067811865460184 0.707106781186549016 0 0 0 -1 forward_v I I I I #
straight-curve $-1 49.99999999999995737 3.552713678800500929e-14 25 0 1 0 I I #
edge $-1 $268 -50.00000000000001421 $257 50.00000000000004974 $241 $281 forward 7 unknown #
vertex $-1 $242 $282 #
straight-curve $-1 49.99999999999995737 3.552713678800500929e-14 -25 0 -1 0 I I #
point $-1 -50.00000000000001421 -50.00000000000004974 0 #
straight-curve $-1 -49.99999999999998579 -20.710678118654819 12.5 0 0 1 I I #
straight-curve $-1 50.00000000000004974 -50.00000000000001421 -12.5 0 0 -1 I I #
straight-curve $-1 35.35533905932744858 -35.35533905932729937 25 0.7071067811865460184 0.707106781186549016 0 I I #
point $-1 50.00000000000000711 -20.71067811865468045 25 #
point $-1 20.710678118654819 -49.99999999999998579 25 #
point $-1 50.00000000000001421 50.00000000000004974 -25 #
straight-curve $-1 -50.00000000000001421 -50.00000000000004974 -12.5 0 0 -1 I I #
point $-1 -50.00000000000001421 -50.00000000000004974 -25 #
point $-1 -49.99999999999998579 -20.710678118654819 25 #
straight-curve $-1 -35.35533905932729937 -35.35533905932744858 25 0.707106781186549016 -0.7071067811865460184 0 I I #
straight-curve $-1 3.552713678800500929e-14 -49.99999999999995737 -25 -1 0 0 I I #
point $-1 50.00000000000004974 -50.00000000000001421 -25 #
End-of-ACIS-data 