105 539 1 0                             
body $-1 $1 $-1 $-1 #
lump $-1 $-1 $2 $0 #
shell $-1 $-1 $-1 $3 $1 #
face $-1 $4 $5 $2 $-1 $6 forward single #
face $-1 $7 $8 $2 $-1 $9 forward single #
loop $-1 $-1 $10 $3 #
plane-surface $-1 -21.0629921259843 3.93700787401575e-15 0 0 0 -1 -1 0 0 0 #
face $-1 $11 $12 $2 $-1 $13 forward single #
loop $-1 $-1 $14 $4 #
plane-surface $-1 0 3.93700787401575e-15 0 0 -1 0 0 0 -1 0 #
coedge $-1 $15 $16 $17 $18 0 $5 $-1 #
face $-1 $19 $20 $2 $-1 $21 forward single #
loop $-1 $-1 $22 $7 #
plane-surface $-1 0 0 0 1 0 0 0 0 -1 0 #
coedge $-1 $23 $24 $25 $26 1 $8 $-1 #
coedge $-1 $27 $10 $28 $29 0 $5 $-1 #
coedge $-1 $10 $30 $31 $32 1 $5 $-1 #
coedge $-1 $33 $34 $10 $18 1 $35 $-1 #
edge $-1 $36 $37 $10 $38 0 #
face $-1 $39 $40 $2 $-1 $41 reversed single #
loop $-1 $-1 $42 $11 #
plane-surface $-1 0 26.5748031496063 0 0 1 0 0 0 1 0 #
coedge $-1 $43 $44 $45 $46 1 $12 $-1 #
coedge $-1 $47 $14 $48 $49 1 $8 $-1 #
coedge $-1 $14 $50 $51 $52 1 $8 $-1 #
coedge $-1 $53 $54 $14 $26 0 $55 $-1 #
edge $-1 $56 $57 $14 $58 0 #
coedge $-1 $59 $15 $43 $60 0 $5 $-1 #
coedge $-1 $42 $61 $15 $29 1 $20 $-1 #
edge $-1 $37 $62 $15 $63 0 #
coedge $-1 $16 $59 $64 $65 1 $5 $-1 #
coedge $-1 $66 $67 $16 $32 0 $68 $-1 #
edge $-1 $36 $69 $16 $70 0 #
coedge $-1 $71 $17 $67 $72 1 $35 $-1 #
coedge $-1 $17 $73 $42 $74 1 $35 $-1 #
loop $-1 $-1 $34 $75 #
vertex $-1 $18 $76 #
vertex $-1 $18 $77 #
straight-curve $-1 -0.984251968503937 0 0 0 1 0 #
face $-1 $78 $79 $2 $-1 $80 reversed single #
loop $-1 $-1 $81 $19 #
plane-surface $-1 -23.9255913876828 16.7495560847196 0 0.819205504986504 -0.573500078988493 0 0 0 -1 0 #
coedge $-1 $82 $28 $34 $74 0 $20 $-1 #
coedge $-1 $83 $22 $27 $60 1 $12 $-1 #
coedge $-1 $22 $83 $84 $85 0 $12 $-1 #
coedge $-1 $50 $86 $22 $46 0 $8 $-1 #
edge $-1 $87 $88 $45 $89 0 #
coedge $-1 $90 $23 $91 $92 1 $8 $-1 #
coedge $-1 $93 $94 $23 $49 0 $95 $-1 #
edge $-1 $96 $56 $23 $97 0 #
coedge $-1 $24 $45 $98 $99 0 $8 $-1 #
coedge $-1 $100 $101 $24 $52 0 $102 $-1 #
edge $-1 $57 $103 $24 $104 0 #
coedge $-1 $105 $25 $101 $106 1 $55 $-1 #
coedge $-1 $25 $107 $93 $108 0 $55 $-1 #
loop $-1 $-1 $54 $109 #
vertex $-1 $26 $110 #
vertex $-1 $26 $111 #
straight-curve $-1 0 0 6.22047244094488 -1 0 0 #
coedge $-1 $30 $27 $86 $112 0 $5 $-1 #
edge $-1 $62 $87 $27 $113 0 #
coedge $-1 $28 $114 $83 $115 1 $20 $-1 #
vertex $-1 $29 $116 #
straight-curve $-1 0 26.5748031496063 0 1 0 0 #
coedge $-1 $117 $118 $30 $65 0 $119 $-1 #
edge $-1 $69 $120 $30 $121 0 #
coedge $-1 $122 $31 $118 $123 0 $68 $-1 #
coedge $-1 $31 $124 $33 $72 0 $68 $-1 #
loop $-1 $-1 $125 $126 #
vertex $-1 $65 $127 #
straight-curve $-1 0 0.984251968503937 0 -1 0 0 #
coedge $-1 $128 $33 $129 $130 0 $35 $-1 #
edge $-1 $131 $36 $33 $132 0 #
coedge $-1 $34 $128 $133 $134 0 $35 $-1 #
edge $-1 $37 $135 $42 $136 0 #
face $-1 $137 $35 $2 $-1 $138 reversed single #
point $-1 -0.984251968503937 0.984251968503937 0 #
point $-1 -0.984251968503937 26.5748031496063 0 #
face $-1 $75 $139 $2 $-1 $140 reversed single #
loop $-1 $141 $129 $39 #
plane-surface $-1 -21.0629921259843 3.93700787401575e-15 9.05511811023622 0 0 -1 -1 0 0 0 #
coedge $-1 $142 $143 $144 $145 0 $40 $-1 #
coedge $-1 $146 $42 $147 $148 0 $20 $-1 #
coedge $-1 $44 $43 $61 $115 0 $12 $-1 #
coedge $-1 $149 $98 $44 $85 1 $141 $-1 #
edge $-1 $150 $88 $44 $151 0 #
coedge $-1 $45 $152 $59 $112 1 $8 $-1 #
vertex $-1 $60 $153 #
vertex $-1 $46 $154 #
straight-curve $-1 0 3.93700787401575e-15 0 0 0 1 #
coedge $-1 $155 $47 $156 $157 0 $8 $-1 #
coedge $-1 $158 $159 $47 $92 0 $160 $-1 #
edge $-1 $161 $96 $47 $162 0 #
coedge $-1 $163 $48 $54 $108 1 $95 $-1 #
coedge $-1 $48 $163 $158 $164 0 $95 $-1 #
loop $-1 $-1 $94 $165 #
vertex $-1 $49 $166 #
straight-curve $-1 -19.2913385826772 0 0 0 0 1 #
coedge $-1 $84 $167 $50 $99 1 $141 $-1 #
edge $-1 $88 $103 $50 $168 0 #
coedge $-1 $169 $51 $167 $170 0 $102 $-1 #
coedge $-1 $51 $171 $53 $106 0 $102 $-1 #
loop $-1 $-1 $172 $173 #
vertex $-1 $99 $174 #
straight-curve $-1 -21.0629921259843 3.93700787401575e-15 0 0 0 1 #
coedge $-1 $175 $53 $176 $177 1 $55 $-1 #
edge $-1 $178 $57 $101 $179 0 #
coedge $-1 $54 $175 $180 $181 0 $55 $-1 #
edge $-1 $182 $56 $93 $183 0 #
face $-1 $-1 $55 $2 $-1 $184 forward single #
point $-1 -19.2913385826772 0 6.22047244094488 #
point $-1 -21.0629921259843 0 6.22047244094488 #
edge $-1 $87 $120 $59 $185 0 #
straight-curve $-1 0 0 0 0 -1 0 #
coedge $-1 $61 $186 $149 $187 0 $20 $-1 #
edge $-1 $62 $150 $83 $188 0 #
point $-1 0 26.5748031496063 0 #
coedge $-1 $189 $64 $152 $190 0 $119 $-1 #
coedge $-1 $64 $189 $66 $123 1 $119 $-1 #
loop $-1 $-1 $64 $191 #
vertex $-1 $112 $192 #
straight-curve $-1 -4.21259842519685 0 0 0 -1 0 #
coedge $-1 $193 $66 $194 $195 0 $68 $-1 #
edge $-1 $69 $196 $118 $197 0 #
coedge $-1 $67 $198 $199 $200 0 $68 $-1 #
coedge $-1 $201 $202 $203 $204 0 $68 $-1 #
face $-1 $165 $68 $2 $-1 $205 reversed single #
point $-1 -4.21259842519685 0.984251968503937 0 #
coedge $-1 $73 $71 $206 $207 0 $35 $-1 #
coedge $-1 $199 $208 $71 $130 1 $79 $-1 #
edge $-1 $131 $209 $129 $210 0 #
vertex $-1 $130 $211 #
straight-curve $-1 -0.984251968503937 0.984251968503937 0 0 0 -1 #
coedge $-1 $212 $147 $73 $134 1 $213 $-1 #
edge $-1 $214 $135 $73 $215 0 #
vertex $-1 $74 $216 #
straight-curve $-1 -0.984251968503937 26.5748031496063 0 0 0 1 #
face $-1 $217 $218 $2 $-1 $219 forward single #
plane-surface $-1 -0.984251968503937 0 0 1 0 0 0 0 -1 0 #
loop $-1 $-1 $220 $78 #
plane-surface $-1 -22.8194726166329 16.4807302231237 0 -0.810679228399881 0.585490553844358 0 0 -0 1 0 #
loop $-1 $-1 $149 $39 #
coedge $-1 $221 $81 $169 $222 1 $40 $-1 #
coedge $-1 $81 $221 $186 $223 0 $40 $-1 #
coedge $-1 $224 $225 $81 $145 1 $226 $-1 #
edge $-1 $227 $228 $81 $229 0 #
coedge $-1 $230 $82 $231 $232 0 $20 $-1 #
coedge $-1 $133 $233 $82 $148 1 $213 $-1 #
edge $-1 $135 $234 $82 $235 0 #
coedge $-1 $236 $84 $114 $187 1 $141 $-1 #
vertex $-1 $115 $237 #
straight-curve $-1 0 0 9.05511811023622 0 -1 0 #
coedge $-1 $86 $238 $117 $190 1 $8 $-1 #
point $-1 0 3.93700787401575e-15 0 #
point $-1 0 3.93700787401575e-15 9.05511811023622 #
coedge $-1 $239 $90 $240 $241 1 $8 $-1 #
coedge $-1 $242 $243 $90 $157 1 $244 $-1 #
edge $-1 $161 $245 $90 $246 0 #
coedge $-1 $203 $91 $94 $164 1 $160 $-1 #
coedge $-1 $91 $203 $242 $247 1 $160 $-1 #
loop $-1 $-1 $158 $248 #
vertex $-1 $92 $249 #
straight-curve $-1 0 3.93700787401575e-15 0 -1 0 0 #
coedge $-1 $94 $93 $201 $250 1 $95 $-1 #
edge $-1 $251 $96 $158 $252 0 #
face $-1 $109 $95 $2 $-1 $253 reversed single #
point $-1 -19.2913385826772 0 0 #
coedge $-1 $98 $236 $100 $170 1 $141 $-1 #
straight-curve $-1 0 3.93700787401575e-15 9.05511811023622 -1 0 0 #
coedge $-1 $254 $100 $142 $222 0 $102 $-1 #
edge $-1 $103 $255 $167 $256 0 #
coedge $-1 $101 $172 $257 $258 0 $102 $-1 #
coedge $-1 $171 $254 $259 $260 0 $102 $-1 #
face $-1 $261 $102 $2 $-1 $262 forward single #
point $-1 -21.0629921259843 3.93700787401575e-15 9.05511811023622 #
coedge $-1 $107 $105 $263 $264 0 $55 $-1 #
coedge $-1 $257 $265 $105 $177 0 $266 $-1 #
edge $-1 $267 $178 $176 $268 0 #
vertex $-1 $258 $269 #
straight-curve $-1 -21.0629921259843 0 6.22047244094488 0 -1 0 #
coedge $-1 $198 $201 $107 $181 1 $68 $-1 #
edge $-1 $270 $182 $180 $271 0 #
vertex $-1 $250 $272 #
straight-curve $-1 -19.2913385826772 0 6.22047244094488 0 -1 0 #
plane-surface $-1 -20.0787401574803 0 6.22047244094488 0 0 -1 -1 0 0 0 #
straight-curve $-1 0 3.93700787401575e-15 0 -1 0 0 #
coedge $-1 $114 $273 $143 $223 1 $20 $-1 #
edge $-1 $274 $150 $114 $275 0 #
straight-curve $-1 0 26.5748031496063 0 0 0 1 #
coedge $-1 $118 $117 $276 $277 0 $119 $-1 #
edge $-1 $120 $278 $152 $279 0 #
face $-1 $248 $119 $2 $-1 $280 reversed single #
point $-1 -4.21259842519685 0 0 #
coedge $-1 $281 $122 $282 $283 1 $68 $-1 #
coedge $-1 $276 $284 $122 $195 1 $285 $-1 #
edge $-1 $196 $286 $194 $287 0 #
vertex $-1 $195 $288 #
straight-curve $-1 -4.21259842519685 0.984251968503937 0 0 0 1 #
coedge $-1 $124 $180 $289 $290 1 $68 $-1 #
coedge $-1 $291 $129 $124 $200 1 $79 $-1 #
edge $-1 $292 $131 $199 $293 0 #
coedge $-1 $180 $125 $163 $250 0 $68 $-1 #
coedge $-1 $125 $294 $295 $296 1 $68 $-1 #
coedge $-1 $159 $158 $125 $204 1 $160 $-1 #
edge $-1 $297 $251 $203 $298 0 #
plane-surface $-1 0 0.984251968503937 0 0 -1 0 0 0 -1 0 #
coedge $-1 $299 $300 $128 $207 1 $301 $-1 #
edge $-1 $209 $214 $128 $302 0 #
coedge $-1 $129 $303 $299 $304 1 $79 $-1 #
vertex $-1 $130 $305 #
straight-curve $-1 -0.984251968503937 0 9.05511811023622 0 1 0 #
point $-1 -0.984251968503937 0.984251968503937 9.05511811023622 #
coedge $-1 $233 $133 $300 $306 0 $213 $-1 #
loop $-1 $-1 $212 $307 #
vertex $-1 $207 $308 #
straight-curve $-1 -0.984251968503937 0 3.22834645669291 0 1 0 #
point $-1 -0.984251968503937 26.5748031496063 3.22834645669291 #
face $-1 $309 $285 $2 $-1 $310 reversed single #
loop $-1 $-1 $311 $137 #
plane-surface $-1 -21.0629921259843 3.93700787401575e-15 0 0 0 -1 -1 0 0 0 #
coedge $-1 $312 $313 $314 $315 0 $139 $-1 #
coedge $-1 $143 $142 $236 $316 0 $40 $-1 #
edge $-1 $255 $228 $142 $317 0 #
edge $-1 $274 $227 $186 $318 0 #
coedge $-1 $319 $144 $273 $320 0 $226 $-1 #
coedge $-1 $144 $321 $254 $322 0 $226 $-1 #
loop $-1 $-1 $321 $323 #
vertex $-1 $320 $324 #
vertex $-1 $145 $325 #
straight-curve $-1 -23.9255913876828 16.7495560847196 2.36220472440945 -0.573500078988493 -0.819205504986504 0 #
coedge $-1 $326 $146 $327 $328 0 $20 $-1 #
coedge $-1 $329 $330 $146 $232 1 $331 $-1 #
edge $-1 $234 $332 $146 $333 0 #
coedge $-1 $147 $212 $329 $334 0 $213 $-1 #
vertex $-1 $148 $335 #
ellipse-curve $-1 -3.26771653543307 26.5748031496063 3.22834645669291 0 -1 0 1.61465327987479 0 1.61465327987479 1 #
coedge $-1 $167 $149 $221 $316 1 $141 $-1 #
point $-1 0 26.5748031496063 9.05511811023622 #
coedge $-1 $152 $336 $337 $338 1 $8 $-1 #
coedge $-1 $339 $155 $340 $341 1 $8 $-1 #
coedge $-1 $342 $343 $155 $241 0 $344 $-1 #
edge $-1 $345 $245 $155 $346 0 #
coedge $-1 $295 $156 $159 $247 0 $244 $-1 #
coedge $-1 $156 $295 $342 $347 0 $244 $-1 #
loop $-1 $-1 $242 $348 #
vertex $-1 $157 $349 #
straight-curve $-1 -15.8661417322835 0 0 0 0 1 #
edge $-1 $161 $297 $159 $350 0 #
face $-1 $351 $160 $2 $-1 $352 forward single #
point $-1 -15.8661417322835 0 0 #
edge $-1 $251 $182 $201 $353 0 #
vertex $-1 $164 $354 #
straight-curve $-1 -19.2913385826772 0 0 0 -1 0 #
plane-surface $-1 -19.2913385826772 0 0 1 0 0 0 0 -1 0 #
coedge $-1 $172 $169 $225 $322 1 $102 $-1 #
vertex $-1 $222 $355 #
straight-curve $-1 -21.0629921259843 0 9.05511811023622 0 1 0 #
coedge $-1 $356 $176 $171 $258 1 $266 $-1 #
edge $-1 $357 $178 $171 $358 0 #
coedge $-1 $359 $360 $172 $260 1 $361 $-1 #
edge $-1 $362 $357 $172 $363 0 #
face $-1 $364 $365 $2 $-1 $366 reversed single #
plane-surface $-1 -21.0629921259843 0 0 -1 0 0 0 -0 1 0 #
coedge $-1 $367 $289 $175 $264 1 $365 $-1 #
edge $-1 $267 $270 $263 $368 0 #
coedge $-1 $176 $356 $367 $369 0 $266 $-1 #
loop $-1 $-1 $265 $370 #
vertex $-1 $369 $371 #
straight-curve $-1 0 5 6.22047244094488 -1 0 0 #
point $-1 -21.0629921259843 5 6.22047244094488 #
vertex $-1 $290 $372 #
straight-curve $-1 0 0.984251968503937 6.22047244094488 1 0 0 #
point $-1 -19.2913385826772 0.984251968503937 6.22047244094488 #
coedge $-1 $186 $326 $224 $320 1 $20 $-1 #
vertex $-1 $223 $373 #
straight-curve $-1 0 26.5748031496063 9.05511811023622 1 0 0 #
coedge $-1 $337 $194 $189 $277 1 $285 $-1 #
edge $-1 $278 $196 $276 $374 0 #
vertex $-1 $338 $375 #
straight-curve $-1 -4.21259842519685 0 0 0 0 1 #
plane-surface $-1 -4.21259842519685 0 0 1 0 0 0 0 -1 0 #
coedge $-1 $376 $193 $377 $378 0 $68 $-1 #
coedge $-1 $379 $380 $193 $283 0 $381 $-1 #
edge $-1 $382 $286 $282 $383 0 #
coedge $-1 $194 $337 $379 $384 1 $285 $-1 #
loop $-1 $-1 $337 $217 #
vertex $-1 $384 $385 #
ellipse-curve $-1 -6.10236220472441 0.984251968503937 4.33070866141732 0 -1 -1e-16 2.31429316374303e-16 -1.88976377952756e-16 1.88976377952756 1 #
point $-1 -4.21259842519685 0.984251968503937 4.33070866141732 #
coedge $-1 $263 $386 $198 $290 0 $365 $-1 #
edge $-1 $292 $270 $289 $387 0 #
coedge $-1 $303 $199 $386 $388 1 $79 $-1 #
vertex $-1 $200 $389 #
straight-curve $-1 0 0.984251968503937 9.05511811023622 1 0 0 #
coedge $-1 $202 $376 $390 $391 0 $68 $-1 #
coedge $-1 $243 $242 $202 $296 0 $244 $-1 #
edge $-1 $297 $392 $295 $393 0 #
vertex $-1 $204 $394 #
straight-curve $-1 0 0.984251968503937 0 -1 0 0 #
coedge $-1 $395 $206 $208 $304 0 $301 $-1 #
coedge $-1 $206 $396 $212 $306 1 $301 $-1 #
loop $-1 $-1 $396 $397 #
straight-curve $-1 -0.984251968503937 25.5905511811024 0 0 0 -1 #
coedge $-1 $208 $291 $398 $399 1 $79 $-1 #
edge $-1 $209 $400 $208 $401 0 #
point $-1 -0.984251968503937 25.5905511811024 9.05511811023622 #
edge $-1 $214 $402 $300 $403 0 #
face $-1 $404 $213 $2 $-1 $405 reversed single #
point $-1 -0.984251968503937 25.5905511811024 3.22834645669291 #
face $-1 $191 $381 $2 $-1 $406 reversed single #
cone-surface $-1 -6.10236220472441 0 4.33070866141732 0 1 0 0 0 1.88976377952756 1 0 1 0 #
coedge $-1 $377 $407 $408 $409 1 $218 $-1 #
coedge $-1 $398 $220 $395 $410 1 $139 $-1 #
coedge $-1 $220 $398 $411 $412 0 $139 $-1 #
coedge $-1 $413 $414 $220 $315 1 $226 $-1 #
edge $-1 $415 $416 $220 $417 0 #
edge $-1 $255 $274 $221 $418 0 #
straight-curve $-1 -21.0629921259843 20.8385826771654 0 0 0 -1 #
straight-curve $-1 -17.0472440944882 26.5748031496063 0 0 0 -1 #
coedge $-1 $414 $224 $419 $420 0 $226 $-1 #
edge $-1 $227 $421 $273 $422 0 #
coedge $-1 $225 $413 $359 $423 0 $226 $-1 #
edge $-1 $362 $228 $225 $424 0 #
face $-1 $425 $226 $2 $-1 $426 forward single #
point $-1 -17.0472440944882 26.5748031496063 2.36220472440945 #
point $-1 -21.0629921259843 20.8385826771654 2.36220472440945 #
coedge $-1 $273 $230 $427 $428 1 $20 $-1 #
coedge $-1 $429 $430 $230 $328 1 $431 $-1 #
edge $-1 $332 $432 $230 $433 0 #
coedge $-1 $434 $231 $233 $334 1 $331 $-1 #
coedge $-1 $231 $434 $429 $435 0 $331 $-1 #
loop $-1 $-1 $434 $404 #
vertex $-1 $232 $436 #
straight-curve $-1 0 26.5748031496063 5.51181102362205 -1 0 0 #
edge $-1 $402 $234 $233 $437 0 #
point $-1 -3.26771653543307 26.5748031496063 5.51181102362205 #
coedge $-1 $238 $339 $438 $439 0 $8 $-1 #
coedge $-1 $284 $276 $238 $338 0 $285 $-1 #
edge $-1 $278 $440 $238 $441 0 #
coedge $-1 $336 $239 $407 $442 1 $8 $-1 #
coedge $-1 $443 $408 $239 $341 0 $444 $-1 #
edge $-1 $445 $345 $239 $446 0 #
coedge $-1 $390 $240 $243 $347 1 $344 $-1 #
coedge $-1 $240 $390 $443 $447 1 $344 $-1 #
loop $-1 $-1 $240 $351 #
vertex $-1 $241 $448 #
ellipse-curve $-1 -13.9763779527559 0 4.33070866141732 0 -1 -1e-16 2.31429316374303e-16 -1.88976377952756e-16 1.88976377952756 1 #
edge $-1 $392 $245 $342 $449 0 #
face $-1 $450 $244 $2 $-1 $451 reversed single #
point $-1 -15.8661417322835 0 4.33070866141732 #
straight-curve $-1 -15.8661417322835 0 0 0 1 0 #
face $-1 $348 $344 $2 $-1 $452 reversed single #
plane-surface $-1 -21.0629921259843 3.93700787401575e-15 0 0 0 -1 -1 0 0 0 #
straight-curve $-1 -19.2913385826772 0.984251968503937 0 0 0 1 #
point $-1 -19.2913385826772 0.984251968503937 0 #
point $-1 -21.0629921259843 20.8385826771654 9.05511811023622 #
coedge $-1 $265 $257 $360 $453 1 $266 $-1 #
vertex $-1 $260 $454 #
ellipse-curve $-1 -21.0629921259843 5 3.93700787401575 1 0 0 0 1.61465327987479 1.61465327987479 1 #
coedge $-1 $455 $259 $321 $423 1 $361 $-1 #
coedge $-1 $259 $455 $356 $453 0 $361 $-1 #
loop $-1 $-1 $259 $364 #
vertex $-1 $423 $456 #
straight-curve $-1 -21.0629921259843 7.28346456692913 0 0 0 1 #
face $-1 $370 $361 $2 $-1 $457 reversed single #
loop $-1 $-1 $367 $261 #
plane-surface $-1 -20.0787401574803 0 0 -1 0 0 0 -0 1 0 #
coedge $-1 $458 $263 $265 $369 1 $365 $-1 #
straight-curve $-1 -20.0787401574803 0 6.22047244094488 0 -1 0 #
edge $-1 $459 $267 $367 $460 0 #
face $-1 $126 $266 $2 $-1 $461 reversed single #
point $-1 -20.0787401574803 5 6.22047244094488 #
point $-1 -20.0787401574803 0.984251968503937 6.22047244094488 #
point $-1 -17.0472440944882 26.5748031496063 9.05511811023622 #
straight-curve $-1 -4.21259842519685 0 4.33070866141732 0 1 0 #
point $-1 -4.21259842519685 0 4.33070866141732 #
coedge $-1 $294 $281 $462 $463 0 $68 $-1 #
coedge $-1 $464 $311 $281 $378 1 $218 $-1 #
edge $-1 $382 $465 $377 $466 0 #
coedge $-1 $438 $282 $284 $384 0 $381 $-1 #
coedge $-1 $282 $438 $464 $467 0 $381 $-1 #
loop $-1 $-1 $380 $309 #
vertex $-1 $378 $468 #
straight-curve $-1 -7.99212598425197 0.984251968503937 0 0 0 1 #
edge $-1 $286 $440 $284 $469 0 #
point $-1 -7.99212598425197 0.984251968503937 4.33070866141732 #
coedge $-1 $289 $411 $291 $388 0 $365 $-1 #
straight-curve $-1 -20.0787401574803 0.984251968503937 0 0 0 -1 #
edge $-1 $470 $292 $291 $471 0 #
point $-1 -20.0787401574803 0.984251968503937 9.05511811023622 #
coedge $-1 $343 $342 $294 $391 1 $344 $-1 #
edge $-1 $472 $392 $390 $473 0 #
vertex $-1 $347 $474 #
straight-curve $-1 -15.8661417322835 0.984251968503937 0 0 0 1 #
point $-1 -15.8661417322835 0.984251968503937 0 #
coedge $-1 $475 $299 $312 $410 0 $301 $-1 #
coedge $-1 $300 $476 $434 $477 1 $301 $-1 #
face $-1 $307 $301 $2 $-1 $478 reversed single #
coedge $-1 $313 $312 $303 $399 0 $139 $-1 #
edge $-1 $400 $470 $303 $479 0 #
vertex $-1 $399 $480 #
straight-curve $-1 0 25.5905511811024 9.05511811023622 -1 0 0 #
vertex $-1 $477 $481 #
ellipse-curve $-1 -3.26771653543307 25.5905511811024 3.22834645669291 0 -1 0 1.61465327987479 0 1.61465327987479 1 #
face $-1 $173 $331 $2 $-1 $482 reversed single #
cone-surface $-1 -3.26771653543307 25.5905511811024 3.22834645669291 0 1 0 0 0 2.28346456692913 1 0 1 0 #
plane-surface $-1 -7.99212598425197 0 0 -1 0 0 0 -0 1 0 #
coedge $-1 $311 $464 $339 $442 0 $218 $-1 #
coedge $-1 $340 $462 $311 $409 0 $444 $-1 #
edge $-1 $465 $445 $311 $483 0 #
edge $-1 $400 $416 $312 $484 0 #
coedge $-1 $386 $485 $313 $412 1 $365 $-1 #
edge $-1 $470 $415 $313 $486 0 #
coedge $-1 $321 $314 $485 $487 1 $226 $-1 #
coedge $-1 $314 $319 $475 $488 1 $226 $-1 #
vertex $-1 $315 $489 #
vertex $-1 $315 $490 #
straight-curve $-1 -22.8194726166329 16.4807302231237 2.36220472440945 0.585490553844358 0.810679228399882 0 #
straight-curve $-1 -23.9255913876828 16.7495560847196 9.05511811023622 0.573500078988493 0.819205504986504 0 #
coedge $-1 $427 $491 $319 $420 1 $492 $-1 #
edge $-1 $421 $493 $319 $494 0 #
vertex $-1 $428 $495 #
straight-curve $-1 0 26.5748031496063 2.36220472440945 1 0 0 #
edge $-1 $496 $362 $321 $497 0 #
straight-curve $-1 -21.0629921259843 0 2.36220472440945 0 1 0 #
face $-1 $498 $431 $2 $-1 $499 reversed single #
plane-surface $-1 -21.0629921259843 0.984251968503937 2.36220472440945 0 0 -1 -1 0 0 0 #
coedge $-1 $500 $419 $326 $428 0 $492 $-1 #
edge $-1 $421 $432 $326 $501 0 #
coedge $-1 $502 $327 $330 $435 1 $431 $-1 #
coedge $-1 $327 $502 $500 $503 1 $431 $-1 #
loop $-1 $-1 $502 $425 #
vertex $-1 $328 $504 #
ellipse-curve $-1 -7.67716535433071 26.5748031496063 5.51181102362205 0 -1 -1e-16 2.31429316374303e-16 -1.88976377952756e-16 1.88976377952756 1 #
coedge $-1 $330 $329 $396 $477 0 $331 $-1 #
edge $-1 $505 $332 $429 $506 0 #
point $-1 -5.78740157480315 26.5748031496063 5.51181102362205 #
straight-curve $-1 -3.26771653543307 0 5.51181102362205 0 1 0 #
coedge $-1 $380 $379 $336 $439 1 $381 $-1 #
edge $-1 $507 $440 $336 $508 0 #
vertex $-1 $439 $509 #
ellipse-curve $-1 -6.10236220472441 0 4.33070866141732 0 -1 -1e-16 2.31429316374303e-16 -1.88976377952756e-16 1.88976377952756 1 #
edge $-1 $507 $445 $339 $510 0 #
coedge $-1 $462 $340 $343 $447 0 $444 $-1 #
loop $-1 $-1 $408 $450 #
vertex $-1 $341 $511 #
straight-curve $-1 -12.0866141732283 0 0 0 0 1 #
edge $-1 $345 $472 $343 $512 0 #
point $-1 -12.0866141732283 0 4.33070866141732 #
straight-curve $-1 -15.8661417322835 0 4.33070866141732 0 -1 0 #
face $-1 $323 $444 $2 $-1 $513 reversed single #
plane-surface $-1 -15.8661417322835 0 0 -1 0 0 0 -0 1 0 #
cone-surface $-1 -13.9763779527559 0 4.33070866141732 0 1 0 0 0 1.88976377952756 1 0 1 0 #
edge $-1 $459 $357 $360 $514 0 #
point $-1 -21.0629921259843 7.28346456692913 3.93700787401575 #
coedge $-1 $360 $359 $458 $515 0 $361 $-1 #
point $-1 -21.0629921259843 7.28346456692913 2.36220472440945 #
plane-surface $-1 -20.0787401574803 7.28346456692913 0 0 1 0 0 0 1 0 #
coedge $-1 $485 $367 $455 $515 1 $365 $-1 #
vertex $-1 $369 $516 #
ellipse-curve $-1 -20.0787401574803 5 3.93700787401575 1 0 0 0 1.61465327987479 1.61465327987479 1 #
cone-surface $-1 -20.0787401574803 5 3.93700787401575 -1 0 0 0 0 2.28346456692913 1 0 1 0 #
coedge $-1 $408 $443 $376 $463 1 $444 $-1 #
edge $-1 $465 $472 $462 $517 0 #
coedge $-1 $407 $377 $380 $467 1 $218 $-1 #
vertex $-1 $409 $518 #
straight-curve $-1 0 0.984251968503937 0 -1 0 0 #
edge $-1 $507 $382 $464 $519 0 #
point $-1 -7.99212598425197 0.984251968503937 0 #
straight-curve $-1 -7.99212598425197 0 4.33070866141732 0 -1 0 #
vertex $-1 $388 $520 #
straight-curve $-1 -20.0787401574803 0 9.05511811023622 0 -1 0 #
vertex $-1 $391 $521 #
ellipse-curve $-1 -13.9763779527559 0.984251968503937 4.33070866141732 0 -1 -1e-16 2.31429316374303e-16 -1.88976377952756e-16 1.88976377952756 1 #
point $-1 -15.8661417322835 0.984251968503937 4.33070866141732 #
coedge $-1 $522 $395 $414 $488 0 $301 $-1 #
coedge $-1 $396 $522 $502 $523 1 $301 $-1 #
edge $-1 $402 $505 $396 $524 0 #
plane-surface $-1 0 25.5905511811024 0 0 1 0 0 0 1 0 #
straight-curve $-1 -22.8194726166329 16.4807302231237 9.05511811023622 -0.585490553844358 -0.810679228399882 0 #
point $-1 -16.240157480315 25.5905511811024 9.05511811023622 #
point $-1 -3.26771653543307 25.5905511811024 5.51181102362205 #
plane-surface $-1 0 25.5905511811024 5.51181102362205 0 0 1 1 0 0 0 #
straight-curve $-1 -12.0866141732283 0 0 0 -1 0 #
straight-curve $-1 -16.240157480315 25.5905511811024 0 0 0 -1 #
coedge $-1 $411 $458 $413 $487 0 $365 $-1 #
straight-curve $-1 -20.0787401574803 20.2755905511811 0 0 0 -1 #
edge $-1 $496 $415 $413 $525 0 #
edge $-1 $416 $493 $414 $526 0 #
point $-1 -20.0787401574803 20.2755905511811 2.36220472440945 #
point $-1 -16.240157480315 25.5905511811024 2.36220472440945 #
coedge $-1 $419 $500 $522 $527 1 $492 $-1 #
loop $-1 $-1 $491 $498 #
vertex $-1 $420 $528 #
straight-curve $-1 -9.56692913385827 0.984251968503937 2.36220472440945 0 -1 0 #
point $-1 -9.56692913385827 26.5748031496063 2.36220472440945 #
vertex $-1 $423 $529 #
straight-curve $-1 -21.0629921259843 7.28346456692913 2.36220472440945 -1 0 0 #
face $-1 $397 $492 $2 $-1 $530 reversed single #
cone-surface $-1 -7.67716535433071 25.5905511811024 5.51181102362205 0 1 0 0 0 1.88976377952756 1 0 1 0 #
coedge $-1 $491 $427 $430 $503 0 $492 $-1 #
straight-curve $-1 -9.56692913385827 26.5748031496063 0 0 0 1 #
coedge $-1 $430 $429 $476 $523 0 $431 $-1 #
edge $-1 $432 $531 $430 $532 0 #
point $-1 -9.56692913385827 26.5748031496063 5.51181102362205 #
vertex $-1 $523 $533 #
straight-curve $-1 -5.78740157480315 0 5.51181102362205 0 1 0 #
vertex $-1 $442 $534 #
straight-curve $-1 -7.99212598425197 0 0 0 0 1 #
point $-1 -7.99212598425197 0 4.33070866141732 #
straight-curve $-1 0 3.93700787401575e-15 0 -1 0 0 #
point $-1 -12.0866141732283 0 0 #
straight-curve $-1 -12.0866141732283 0 4.33070866141732 0 1 0 #
plane-surface $-1 -12.0866141732283 0 0 1 0 0 0 0 -1 0 #
straight-curve $-1 0 7.28346456692913 3.93700787401575 -1 0 0 #
edge $-1 $496 $459 $458 $535 0 #
point $-1 -20.0787401574803 7.28346456692913 3.93700787401575 #
straight-curve $-1 -12.0866141732283 0.984251968503937 0 0 0 1 #
point $-1 -12.0866141732283 0.984251968503937 0 #
straight-curve $-1 -7.99212598425197 0 0 0 1 0 #
point $-1 -20.0787401574803 20.2755905511811 9.05511811023622 #
point $-1 -12.0866141732283 0.984251968503937 4.33070866141732 #
coedge $-1 $476 $475 $491 $527 0 $301 $-1 #
edge $-1 $505 $531 $502 $536 0 #
straight-curve $-1 0 25.5905511811024 5.51181102362205 -1 0 0 #
straight-curve $-1 -20.0787401574803 0 2.36220472440945 0 1 0 #
straight-curve $-1 0 25.5905511811024 2.36220472440945 1 0 0 #
edge $-1 $493 $531 $491 $537 0 #
point $-1 -9.56692913385827 25.5905511811024 2.36220472440945 #
point $-1 -20.0787401574803 7.28346456692913 2.36220472440945 #
plane-surface $-1 -9.56692913385827 0 0 -1 0 0 0 -0 1 0 #
vertex $-1 $523 $538 #
straight-curve $-1 -9.56692913385827 25.5905511811024 5.51181102362205 0 -1 0 #
point $-1 -5.78740157480315 25.5905511811024 5.51181102362205 #
point $-1 -7.99212598425197 0 0 #
straight-curve $-1 -20.0787401574803 7.28346456692913 0 0 0 1 #
ellipse-curve $-1 -7.67716535433071 25.5905511811024 5.51181102362205 0 -1 -1e-16 2.31429316374303e-16 -1.88976377952756e-16 1.88976377952756 1 #
straight-curve $-1 -9.56692913385827 25.5905511811024 0 0 0 1 #
point $-1 -9.56692913385827 25.5905511811024 5.51181102362205 #
