600 0 1 0           
98 GICL ACIS STEP Translator - Source: f:/data5/repository/Parasolid/NIST/misc/frame/frame.step - 6 0 13 ACIS 6.0.3 NT 24 Mon Apr 08 10:51:52 2002 
1 9.9999999999999995e-007 1e-010 
body $-1 $1 $-1 $-1 #
lump $-1 $-1 $2 $0 #
shell $-1 $-1 $-1 $3 $-1 $1 #
face $-1 $4 $5 $2 $-1 $6 forward single #
face $-1 $7 $8 $2 $-1 $9 forward single #
loop $-1 $-1 $10 $3 #
plane-surface $-1 -535.00000000000125 1.0000000000000005e-013 0 0 0 -1 -25.399999999999999 0 0 forward_v I I I I #
face $-1 $11 $12 $2 $-1 $13 forward single #
loop $-1 $-1 $14 $4 #
plane-surface $-1 0 1.0000000000000005e-013 0 0 -1 0 0 0 -25.399999999999999 forward_v I I I I #
coedge $-1 $15 $16 $17 $18 forward $5 $-1 #
face $-1 $19 $20 $2 $-1 $21 forward single #
loop $-1 $-1 $22 $7 #
plane-surface $-1 0 0 0 1 0 0 0 0 -25.399999999999999 forward_v I I I I #
coedge $-1 $23 $24 $25 $26 reversed $8 $-1 #
coedge $-1 $27 $10 $28 $29 forward $5 $-1 #
coedge $-1 $10 $30 $31 $32 reversed $5 $-1 #
coedge $-1 $33 $34 $10 $18 reversed $35 $-1 #
edge $-1 $36 0.98425196850393704 $37 26.5748031496063 $10 $38 forward 7 unknown #
face $-1 $39 $40 $2 $-1 $41 reversed single #
loop $-1 $-1 $42 $11 #
plane-surface $-1 0 675 0 0 1 0 0 0 25.399999999999999 forward_v I I I I #
coedge $-1 $43 $44 $45 $46 reversed $12 $-1 #
coedge $-1 $47 $14 $48 $49 reversed $8 $-1 #
coedge $-1 $14 $50 $51 $52 reversed $8 $-1 #
coedge $-1 $53 $54 $14 $26 forward $55 $-1 #
edge $-1 $56 19.291338582677199 $57 21.062992125984302 $14 $58 forward 7 unknown #
coedge $-1 $59 $15 $43 $60 forward $5 $-1 #
coedge $-1 $42 $61 $15 $29 reversed $20 $-1 #
edge $-1 $37 -0.98425196850393704 $62 0 $15 $63 forward 7 unknown #
coedge $-1 $16 $59 $64 $65 reversed $5 $-1 #
coedge $-1 $66 $67 $16 $32 forward $68 $-1 #
edge $-1 $36 0.98425196850393704 $69 4.21259842519685 $16 $70 forward 7 unknown #
coedge $-1 $71 $17 $67 $72 reversed $35 $-1 #
coedge $-1 $17 $73 $42 $74 reversed $35 $-1 #
loop $-1 $-1 $34 $75 #
vertex $-1 $18 $76 #
vertex $-1 $18 $77 #
straight-curve $-1 -25 0 0 0 25.399999999999999 0 I I #
face $-1 $78 $79 $2 $-1 $80 reversed single #
loop $-1 $-1 $81 $19 #
plane-surface $-1 -607.71002124714312 425.43872455187784 0 0.8192055049865038 -0.57350007898849287 0 0 0 -25.399999999999999 forward_v I I I I #
coedge $-1 $82 $28 $34 $74 forward $20 $-1 #
coedge $-1 $83 $22 $27 $60 reversed $12 $-1 #
coedge $-1 $22 $83 $84 $85 forward $12 $-1 #
coedge $-1 $50 $86 $22 $46 forward $8 $-1 #
edge $-1 $87 0 $88 9.0551181102362204 $45 $89 forward 7 unknown #
coedge $-1 $90 $23 $91 $92 reversed $8 $-1 #
coedge $-1 $93 $94 $23 $49 forward $95 $-1 #
edge $-1 $96 0 $56 6.2204724409448797 $23 $97 forward 7 unknown #
coedge $-1 $24 $45 $98 $99 forward $8 $-1 #
coedge $-1 $100 $101 $24 $52 forward $102 $-1 #
edge $-1 $57 6.2204724409448797 $103 9.0551181102362204 $24 $104 forward 7 unknown #
coedge $-1 $105 $25 $101 $106 reversed $55 $-1 #
coedge $-1 $25 $107 $93 $108 forward $55 $-1 #
loop $-1 $-1 $54 $109 #
vertex $-1 $26 $110 #
vertex $-1 $26 $111 #
straight-curve $-1 0 0 157.99999999999994 -25.399999999999999 0 0 I I #
coedge $-1 $30 $27 $86 $112 forward $5 $-1 #
edge $-1 $62 -26.5748031496063 $87 -3.9370078740157501e-015 $27 $113 forward 7 unknown #
coedge $-1 $28 $114 $83 $115 reversed $20 $-1 #
vertex $-1 $29 $116 #
straight-curve $-1 0 675 0 25.399999999999999 0 0 I I #
coedge $-1 $117 $118 $30 $65 forward $119 $-1 #
edge $-1 $69 -0.98425196850393704 $120 0 $30 $121 forward 7 unknown #
coedge $-1 $122 $31 $118 $123 forward $68 $-1 #
coedge $-1 $31 $124 $33 $72 forward $68 $-1 #
loop $-1 $-1 $125 $126 #
vertex $-1 $65 $127 #
straight-curve $-1 0 25 0 -25.399999999999999 0 0 I I #
coedge $-1 $128 $33 $129 $130 forward $35 $-1 #
edge $-1 $131 -9.0551181102362204 $36 0 $33 $132 forward 7 unknown #
coedge $-1 $34 $128 $133 $134 forward $35 $-1 #
edge $-1 $37 0 $135 3.2283464566929099 $42 $136 forward 7 unknown #
face $-1 $137 $35 $2 $-1 $138 reversed single #
point $-1 -25 25 0 #
point $-1 -25 675 0 #
face $-1 $75 $139 $2 $-1 $140 reversed single #
loop $-1 $141 $129 $39 #
plane-surface $-1 -535.00000000000125 1.0000000000000005e-013 229.99999999999997 0 0 -1 -25.399999999999999 0 0 forward_v I I I I #
coedge $-1 $142 $143 $144 $145 forward $40 $-1 #
coedge $-1 $146 $42 $147 $148 forward $20 $-1 #
coedge $-1 $44 $43 $61 $115 forward $12 $-1 #
coedge $-1 $149 $98 $44 $85 reversed $141 $-1 #
edge $-1 $150 -26.5748031496063 $88 -3.9370078740157501e-015 $44 $151 forward 7 unknown #
coedge $-1 $45 $152 $59 $112 reversed $8 $-1 #
vertex $-1 $60 $153 #
vertex $-1 $46 $154 #
straight-curve $-1 0 1.0000000000000005e-013 0 0 0 25.399999999999999 I I #
coedge $-1 $155 $47 $156 $157 forward $8 $-1 #
coedge $-1 $158 $159 $47 $92 forward $160 $-1 #
edge $-1 $161 15.8661417322835 $96 19.291338582677199 $47 $162 forward 7 unknown #
coedge $-1 $163 $48 $54 $108 reversed $95 $-1 #
coedge $-1 $48 $163 $158 $164 forward $95 $-1 #
loop $-1 $-1 $94 $165 #
vertex $-1 $49 $166 #
straight-curve $-1 -490.0000000000008 0 0 0 0 25.399999999999999 I I #
coedge $-1 $84 $167 $50 $99 reversed $141 $-1 #
edge $-1 $88 0 $103 21.062992125984302 $50 $168 forward 7 unknown #
coedge $-1 $169 $51 $167 $170 forward $102 $-1 #
coedge $-1 $51 $171 $53 $106 forward $102 $-1 #
loop $-1 $-1 $172 $173 #
vertex $-1 $99 $174 #
straight-curve $-1 -535.00000000000125 1.0000000000000005e-013 0 0 0 25.399999999999999 I I #
coedge $-1 $175 $53 $176 $177 reversed $55 $-1 #
edge $-1 $178 -5 $57 0 $101 $179 forward 7 unknown #
coedge $-1 $54 $175 $180 $181 forward $55 $-1 #
edge $-1 $182 -0.98425196850393704 $56 0 $93 $183 forward 7 unknown #
face $-1 $-1 $55 $2 $-1 $184 forward single #
point $-1 -490.0000000000008 0 157.99999999999994 #
point $-1 -535.00000000000125 0 157.99999999999994 #
edge $-1 $87 0 $120 4.21259842519685 $59 $185 forward 7 unknown #
straight-curve $-1 0 0 0 0 -25.399999999999999 0 I I #
coedge $-1 $61 $186 $149 $187 forward $20 $-1 #
edge $-1 $62 0 $150 9.0551181102362204 $83 $188 forward 7 unknown #
point $-1 0 675 0 #
coedge $-1 $189 $64 $152 $190 forward $119 $-1 #
coedge $-1 $64 $189 $66 $123 reversed $119 $-1 #
loop $-1 $-1 $64 $191 #
vertex $-1 $112 $192 #
straight-curve $-1 -106.99999999999999 0 0 0 -25.399999999999999 0 I I #
coedge $-1 $193 $66 $194 $195 forward $68 $-1 #
edge $-1 $69 0 $196 4.3307086614173196 $118 $197 forward 7 unknown #
coedge $-1 $67 $198 $199 $200 forward $68 $-1 #
coedge $-1 $201 $202 $203 $204 forward $68 $-1 #
face $-1 $165 $68 $2 $-1 $205 reversed single #
point $-1 -106.99999999999999 25 0 #
coedge $-1 $73 $71 $206 $207 forward $35 $-1 #
coedge $-1 $199 $208 $71 $130 reversed $79 $-1 #
edge $-1 $131 0.98425196850393704 $209 25.590551181102398 $129 $210 forward 7 unknown #
vertex $-1 $130 $211 #
straight-curve $-1 -25 25 0 0 0 -25.399999999999999 I I #
coedge $-1 $212 $147 $73 $134 reversed $213 $-1 #
edge $-1 $214 25.590551181102398 $135 26.5748031496063 $73 $215 forward 7 unknown #
vertex $-1 $74 $216 #
straight-curve $-1 -25 675 0 0 0 25.399999999999999 I I #
face $-1 $217 $218 $2 $-1 $219 forward single #
plane-surface $-1 -25 0 0 1 0 0 0 0 -25.399999999999999 forward_v I I I I #
loop $-1 $-1 $220 $78 #
plane-surface $-1 -579.61460446247565 418.61054766734196 0 -0.81067922839988149 0.58549055384435766 0 0 0 25.399999999999999 forward_v I I I I #
loop $-1 $-1 $149 $39 #
coedge $-1 $221 $81 $169 $222 reversed $40 $-1 #
coedge $-1 $81 $221 $186 $223 forward $40 $-1 #
coedge $-1 $224 $225 $81 $145 reversed $226 $-1 #
edge $-1 $227 -11.99362919936506 $228 -4.9914539972642951 $81 $229 forward 7 unknown #
coedge $-1 $230 $82 $231 $232 forward $20 $-1 #
coedge $-1 $133 $233 $82 $148 reversed $213 $-1 #
edge $-1 $135 1.5707963267948966 $234 3.1415926535897931 $82 $235 forward 7 unknown #
coedge $-1 $236 $84 $114 $187 reversed $141 $-1 #
vertex $-1 $115 $237 #
straight-curve $-1 0 0 229.99999999999997 0 -25.399999999999999 0 I I #
coedge $-1 $86 $238 $117 $190 reversed $8 $-1 #
point $-1 0 1.0000000000000005e-013 0 #
point $-1 0 1.0000000000000005e-013 229.99999999999997 #
coedge $-1 $239 $90 $240 $241 reversed $8 $-1 #
coedge $-1 $242 $243 $90 $157 reversed $244 $-1 #
edge $-1 $161 0 $245 4.3307086614173196 $90 $246 forward 7 unknown #
coedge $-1 $203 $91 $94 $164 reversed $160 $-1 #
coedge $-1 $91 $203 $242 $247 reversed $160 $-1 #
loop $-1 $-1 $158 $248 #
vertex $-1 $92 $249 #
straight-curve $-1 0 1.0000000000000005e-013 0 -25.399999999999999 0 0 I I #
coedge $-1 $94 $93 $201 $250 reversed $95 $-1 #
edge $-1 $251 -0.98425196850393704 $96 0 $158 $252 forward 7 unknown #
face $-1 $109 $95 $2 $-1 $253 reversed single #
point $-1 -490.0000000000008 0 0 #
coedge $-1 $98 $236 $100 $170 reversed $141 $-1 #
straight-curve $-1 0 1.0000000000000005e-013 229.99999999999997 -25.399999999999999 0 0 I I #
coedge $-1 $254 $100 $142 $222 forward $102 $-1 #
edge $-1 $103 3.9370078740157501e-015 $255 20.838582677165402 $167 $256 forward 7 unknown #
coedge $-1 $101 $172 $257 $258 forward $102 $-1 #
coedge $-1 $171 $254 $259 $260 forward $102 $-1 #
face $-1 $261 $102 $2 $-1 $262 forward single #
point $-1 -535.00000000000125 1.0000000000000005e-013 229.99999999999997 #
coedge $-1 $107 $105 $263 $264 forward $55 $-1 #
coedge $-1 $257 $265 $105 $177 forward $266 $-1 #
edge $-1 $267 20.078740157480301 $178 21.062992125984302 $176 $268 forward 7 unknown #
vertex $-1 $258 $269 #
straight-curve $-1 -535.00000000000125 0 157.99999999999994 0 -25.399999999999999 0 I I #
coedge $-1 $198 $201 $107 $181 reversed $68 $-1 #
edge $-1 $270 -20.078740157480301 $182 -19.291338582677199 $180 $271 forward 7 unknown #
vertex $-1 $250 $272 #
straight-curve $-1 -490.0000000000008 0 157.99999999999994 0 -25.399999999999999 0 I I #
plane-surface $-1 -509.9999999999996 0 157.99999999999994 0 0 -1 -25.399999999999999 0 0 forward_v I I I I #
straight-curve $-1 0 1.0000000000000005e-013 0 -25.399999999999999 0 0 I I #
coedge $-1 $114 $273 $143 $223 reversed $20 $-1 #
edge $-1 $274 -17.0472440944882 $150 0 $114 $275 forward 7 unknown #
straight-curve $-1 0 675 0 0 0 25.399999999999999 I I #
coedge $-1 $118 $117 $276 $277 forward $119 $-1 #
edge $-1 $120 0 $278 4.3307086614173196 $152 $279 forward 7 unknown #
face $-1 $248 $119 $2 $-1 $280 reversed single #
point $-1 -106.99999999999999 0 0 #
coedge $-1 $281 $122 $282 $283 reversed $68 $-1 #
coedge $-1 $276 $284 $122 $195 reversed $285 $-1 #
edge $-1 $196 1.5707963267948966 $286 4.7123889803846897 $194 $287 forward 7 unknown #
vertex $-1 $195 $288 #
straight-curve $-1 -106.99999999999999 25 0 0 0 25.399999999999999 I I #
coedge $-1 $124 $180 $289 $290 reversed $68 $-1 #
coedge $-1 $291 $129 $124 $200 reversed $79 $-1 #
edge $-1 $292 -20.078740157480301 $131 -0.98425196850393704 $199 $293 forward 7 unknown #
coedge $-1 $180 $125 $163 $250 forward $68 $-1 #
coedge $-1 $125 $294 $295 $296 reversed $68 $-1 #
coedge $-1 $159 $158 $125 $204 reversed $160 $-1 #
edge $-1 $297 15.8661417322835 $251 19.291338582677199 $203 $298 forward 7 unknown #
plane-surface $-1 0 25 0 0 -1 0 0 0 -25.399999999999999 forward_v I I I I #
coedge $-1 $299 $300 $128 $207 reversed $301 $-1 #
edge $-1 $209 -9.0551181102362204 $214 -3.2283464566929099 $128 $302 forward 7 unknown #
coedge $-1 $129 $303 $299 $304 reversed $79 $-1 #
vertex $-1 $130 $305 #
straight-curve $-1 -25 0 229.99999999999997 0 25.399999999999999 0 I I #
point $-1 -25 25 229.99999999999997 #
coedge $-1 $233 $133 $300 $306 forward $213 $-1 #
loop $-1 $-1 $212 $307 #
vertex $-1 $207 $308 #
straight-curve $-1 -25 0 81.999999999999901 0 25.399999999999999 0 I I #
point $-1 -25 675 81.999999999999901 #
face $-1 $309 $285 $2 $-1 $310 reversed single #
loop $-1 $-1 $311 $137 #
plane-surface $-1 -535.00000000000125 1.0000000000000005e-013 0 0 0 -1 -25.399999999999999 0 0 forward_v I I I I #
coedge $-1 $312 $313 $314 $315 forward $139 $-1 #
coedge $-1 $143 $142 $236 $316 forward $40 $-1 #
edge $-1 $255 -9.0551181102362204 $228 -2.36220472440945 $142 $317 forward 7 unknown #
edge $-1 $274 -9.0551181102362204 $227 -2.36220472440945 $186 $318 forward 7 unknown #
coedge $-1 $319 $144 $273 $320 forward $226 $-1 #
coedge $-1 $144 $321 $254 $322 forward $226 $-1 #
loop $-1 $-1 $321 $323 #
vertex $-1 $320 $324 #
vertex $-1 $145 $325 #
straight-curve $-1 -607.71002124714312 425.43872455187784 60.000000000000028 -14.566902006307721 -20.807819826657202 0 I I #
coedge $-1 $326 $146 $327 $328 forward $20 $-1 #
coedge $-1 $329 $330 $146 $232 reversed $331 $-1 #
edge $-1 $234 3.2677165354330699 $332 5.78740157480315 $146 $333 forward 7 unknown #
coedge $-1 $147 $212 $329 $334 forward $213 $-1 #
vertex $-1 $148 $335 #
ellipse-curve $-1 -82.999999999999972 675 81.999999999999901 0 -1 0 0 0 -57.999999999999893 1 I I #
coedge $-1 $167 $149 $221 $316 reversed $141 $-1 #
point $-1 0 675 229.99999999999997 #
coedge $-1 $152 $336 $337 $338 reversed $8 $-1 #
coedge $-1 $339 $155 $340 $341 reversed $8 $-1 #
coedge $-1 $342 $343 $155 $241 forward $344 $-1 #
edge $-1 $345 1.5707963267948966 $245 4.7123889803846897 $155 $346 forward 7 unknown #
coedge $-1 $295 $156 $159 $247 forward $244 $-1 #
coedge $-1 $156 $295 $342 $347 forward $244 $-1 #
loop $-1 $-1 $242 $348 #
vertex $-1 $157 $349 #
straight-curve $-1 -403.00000000000091 0 0 0 0 25.399999999999999 I I #
edge $-1 $161 0 $297 0.98425196850393704 $159 $350 forward 7 unknown #
face $-1 $351 $160 $2 $-1 $352 forward single #
point $-1 -403.00000000000091 0 0 #
edge $-1 $251 0 $182 6.2204724409448797 $201 $353 forward 7 unknown #
vertex $-1 $164 $354 #
straight-curve $-1 -490.0000000000008 0 0 0 -25.399999999999999 0 I I #
plane-surface $-1 -490.0000000000008 0 0 1 0 0 0 0 -25.399999999999999 forward_v I I I I #
coedge $-1 $172 $169 $225 $322 reversed $102 $-1 #
vertex $-1 $222 $355 #
straight-curve $-1 -535.00000000000125 0 229.99999999999997 0 25.399999999999999 0 I I #
coedge $-1 $356 $176 $171 $258 reversed $266 $-1 #
edge $-1 $357 1.5707963267948966 $178 3.1415926535897931 $171 $358 forward 7 unknown #
coedge $-1 $359 $360 $172 $260 reversed $361 $-1 #
edge $-1 $362 2.36220472440945 $357 3.9370078740157499 $172 $363 forward 7 unknown #
face $-1 $364 $365 $2 $-1 $366 reversed single #
plane-surface $-1 -535.00000000000125 0 0 -1 0 0 0 0 25.399999999999999 forward_v I I I I #
coedge $-1 $367 $289 $175 $264 reversed $365 $-1 #
edge $-1 $267 -5 $270 -0.98425196850393704 $263 $368 forward 7 unknown #
coedge $-1 $176 $356 $367 $369 forward $266 $-1 #
loop $-1 $-1 $265 $370 #
vertex $-1 $369 $371 #
straight-curve $-1 0 127 157.99999999999994 -25.399999999999999 0 0 I I #
point $-1 -535.00000000000125 127 157.99999999999994 #
vertex $-1 $290 $372 #
straight-curve $-1 0 25 157.99999999999994 25.399999999999999 0 0 I I #
point $-1 -490.0000000000008 25 157.99999999999994 #
coedge $-1 $186 $326 $224 $320 reversed $20 $-1 #
vertex $-1 $223 $373 #
straight-curve $-1 0 675 229.99999999999997 25.399999999999999 0 0 I I #
coedge $-1 $337 $194 $189 $277 reversed $285 $-1 #
edge $-1 $278 0 $196 0.98425196850393704 $276 $374 forward 7 unknown #
vertex $-1 $338 $375 #
straight-curve $-1 -106.99999999999999 0 0 0 0 25.399999999999999 I I #
plane-surface $-1 -106.99999999999999 0 0 1 0 0 0 0 -25.399999999999999 forward_v I I I I #
coedge $-1 $376 $193 $377 $378 forward $68 $-1 #
coedge $-1 $379 $380 $193 $283 forward $381 $-1 #
edge $-1 $382 0 $286 4.3307086614173196 $282 $383 forward 7 unknown #
coedge $-1 $194 $337 $379 $384 reversed $285 $-1 #
loop $-1 $-1 $337 $217 #
vertex $-1 $384 $385 #
ellipse-curve $-1 -155 25 109.99999999999991 0 -1 -9.9999999999999998e-017 0 4.8000000000000023e-015 -48.000000000000021 1 I I #
point $-1 -106.99999999999999 25 109.99999999999991 #
coedge $-1 $263 $386 $198 $290 forward $365 $-1 #
edge $-1 $292 -9.0551181102362204 $270 -6.2204724409448797 $289 $387 forward 7 unknown #
coedge $-1 $303 $199 $386 $388 reversed $79 $-1 #
vertex $-1 $200 $389 #
straight-curve $-1 0 25 229.99999999999997 25.399999999999999 0 0 I I #
coedge $-1 $202 $376 $390 $391 forward $68 $-1 #
coedge $-1 $243 $242 $202 $296 forward $244 $-1 #
edge $-1 $297 0 $392 4.3307086614173196 $295 $393 forward 7 unknown #
vertex $-1 $204 $394 #
straight-curve $-1 0 25 0 -25.399999999999999 0 0 I I #
coedge $-1 $395 $206 $208 $304 forward $301 $-1 #
coedge $-1 $206 $396 $212 $306 reversed $301 $-1 #
loop $-1 $-1 $396 $397 #
straight-curve $-1 -25 650.00000000000091 0 0 0 -25.399999999999999 I I #
coedge $-1 $208 $291 $398 $399 reversed $79 $-1 #
edge $-1 $209 0.98425196850393704 $400 16.240157480314998 $208 $401 forward 7 unknown #
point $-1 -25 650.00000000000091 229.99999999999997 #
edge $-1 $214 1.5707963267948966 $402 3.1415926535897931 $300 $403 forward 7 unknown #
face $-1 $404 $213 $2 $-1 $405 reversed single #
point $-1 -25 650.00000000000091 81.999999999999901 #
face $-1 $191 $381 $2 $-1 $406 reversed single #
cone-surface $-1 -155 0 109.99999999999991 0 1 0 0 0 48.000000000000021 1 I I 0 1 48.000000000000021 forward I I I I #
coedge $-1 $377 $407 $408 $409 reversed $218 $-1 #
coedge $-1 $398 $220 $395 $410 reversed $139 $-1 #
coedge $-1 $220 $398 $411 $412 forward $139 $-1 #
coedge $-1 $413 $414 $220 $315 reversed $226 $-1 #
edge $-1 $415 4.6810874080833571 $416 11.237269488154572 $220 $417 forward 7 unknown #
edge $-1 $255 4.9914539972642951 $274 11.99362919936506 $221 $418 forward 7 unknown #
straight-curve $-1 -535.00000000000125 529.30000000000121 0 0 0 -25.399999999999999 I I #
straight-curve $-1 -433.00000000000023 675 0 0 0 -25.399999999999999 I I #
coedge $-1 $414 $224 $419 $420 forward $226 $-1 #
edge $-1 $227 -17.0472440944882 $421 -9.5669291338582703 $273 $422 forward 7 unknown #
coedge $-1 $225 $413 $359 $423 forward $226 $-1 #
edge $-1 $362 7.2834645669291298 $228 20.838582677165402 $225 $424 forward 7 unknown #
face $-1 $425 $226 $2 $-1 $426 forward single #
point $-1 -433.00000000000023 675 60.000000000000028 #
point $-1 -535.00000000000125 529.30000000000121 60.000000000000028 #
coedge $-1 $273 $230 $427 $428 reversed $20 $-1 #
coedge $-1 $429 $430 $230 $328 reversed $431 $-1 #
edge $-1 $332 1.5707963267948966 $432 4.7123889803846897 $230 $433 forward 7 unknown #
coedge $-1 $434 $231 $233 $334 reversed $331 $-1 #
coedge $-1 $231 $434 $429 $435 forward $331 $-1 #
loop $-1 $-1 $434 $404 #
vertex $-1 $232 $436 #
straight-curve $-1 0 675 140.00000000000006 -25.399999999999999 0 0 I I #
edge $-1 $402 25.590551181102398 $234 26.5748031496063 $233 $437 forward 7 unknown #
point $-1 -82.999999999999972 675 140.00000000000006 #
coedge $-1 $238 $339 $438 $439 forward $8 $-1 #
coedge $-1 $284 $276 $238 $338 forward $285 $-1 #
edge $-1 $278 1.5707963267948966 $440 4.7123889803846897 $238 $441 forward 7 unknown #
coedge $-1 $336 $239 $407 $442 reversed $8 $-1 #
coedge $-1 $443 $408 $239 $341 forward $444 $-1 #
edge $-1 $445 0 $345 4.3307086614173196 $239 $446 forward 7 unknown #
coedge $-1 $390 $240 $243 $347 reversed $344 $-1 #
coedge $-1 $240 $390 $443 $447 reversed $344 $-1 #
loop $-1 $-1 $240 $351 #
vertex $-1 $241 $448 #
ellipse-curve $-1 -354.99999999999983 0 109.99999999999991 0 -1 -9.9999999999999998e-017 0 4.8000000000000023e-015 -48.000000000000021 1 I I #
edge $-1 $392 -0.98425196850393704 $245 0 $342 $449 forward 7 unknown #
face $-1 $450 $244 $2 $-1 $451 reversed single #
point $-1 -403.00000000000091 0 109.99999999999991 #
straight-curve $-1 -403.00000000000091 0 0 0 25.399999999999999 0 I I #
face $-1 $348 $344 $2 $-1 $452 reversed single #
plane-surface $-1 -535.00000000000125 1.0000000000000005e-013 0 0 0 -1 -25.399999999999999 0 0 forward_v I I I I #
straight-curve $-1 -490.0000000000008 25 0 0 0 25.399999999999999 I I #
point $-1 -490.0000000000008 25 0 #
point $-1 -535.00000000000125 529.30000000000121 229.99999999999997 #
coedge $-1 $265 $257 $360 $453 reversed $266 $-1 #
vertex $-1 $260 $454 #
ellipse-curve $-1 -535.00000000000125 127 100.00000000000004 1 0 0 0 0 -57.999999999999893 1 I I #
coedge $-1 $455 $259 $321 $423 reversed $361 $-1 #
coedge $-1 $259 $455 $356 $453 forward $361 $-1 #
loop $-1 $-1 $259 $364 #
vertex $-1 $423 $456 #
straight-curve $-1 -535.00000000000125 184.99999999999989 0 0 0 25.399999999999999 I I #
face $-1 $370 $361 $2 $-1 $457 reversed single #
loop $-1 $-1 $367 $261 #
plane-surface $-1 -509.9999999999996 0 0 -1 0 0 0 0 25.399999999999999 forward_v I I I I #
coedge $-1 $458 $263 $265 $369 reversed $365 $-1 #
straight-curve $-1 -509.9999999999996 0 157.99999999999994 0 -25.399999999999999 0 I I #
edge $-1 $459 1.5707963267948966 $267 3.1415926535897931 $367 $460 forward 7 unknown #
face $-1 $126 $266 $2 $-1 $461 reversed single #
point $-1 -509.9999999999996 127 157.99999999999994 #
point $-1 -509.9999999999996 25 157.99999999999994 #
point $-1 -433.00000000000023 675 229.99999999999997 #
straight-curve $-1 -106.99999999999999 0 109.99999999999991 0 25.399999999999999 0 I I #
point $-1 -106.99999999999999 0 109.99999999999991 #
coedge $-1 $294 $281 $462 $463 forward $68 $-1 #
coedge $-1 $464 $311 $281 $378 reversed $218 $-1 #
edge $-1 $382 7.9921259842519703 $465 12.0866141732283 $377 $466 forward 7 unknown #
coedge $-1 $438 $282 $284 $384 forward $381 $-1 #
coedge $-1 $282 $438 $464 $467 forward $381 $-1 #
loop $-1 $-1 $380 $309 #
vertex $-1 $378 $468 #
straight-curve $-1 -203.00000000000003 25 0 0 0 25.399999999999999 I I #
edge $-1 $286 -0.98425196850393704 $440 0 $284 $469 forward 7 unknown #
point $-1 -203.00000000000003 25 109.99999999999991 #
coedge $-1 $289 $411 $291 $388 forward $365 $-1 #
straight-curve $-1 -509.9999999999996 25 0 0 0 -25.399999999999999 I I #
edge $-1 $470 -20.2755905511811 $292 -0.98425196850393704 $291 $471 forward 7 unknown #
point $-1 -509.9999999999996 25 229.99999999999997 #
coedge $-1 $343 $342 $294 $391 reversed $344 $-1 #
edge $-1 $472 1.5707963267948966 $392 4.7123889803846897 $390 $473 forward 7 unknown #
vertex $-1 $347 $474 #
straight-curve $-1 -403.00000000000091 25 0 0 0 25.399999999999999 I I #
point $-1 -403.00000000000091 25 0 #
coedge $-1 $475 $299 $312 $410 forward $301 $-1 #
coedge $-1 $300 $476 $434 $477 reversed $301 $-1 #
face $-1 $307 $301 $2 $-1 $478 reversed single #
coedge $-1 $313 $312 $303 $399 forward $139 $-1 #
edge $-1 $400 -11.237269488154572 $470 -4.6810874080833571 $303 $479 forward 7 unknown #
vertex $-1 $399 $480 #
straight-curve $-1 0 650.00000000000091 229.99999999999997 -25.399999999999999 0 0 I I #
vertex $-1 $477 $481 #
ellipse-curve $-1 -82.999999999999972 650.00000000000091 81.999999999999901 0 -1 0 0 0 -57.999999999999893 1 I I #
face $-1 $173 $331 $2 $-1 $482 reversed single #
cone-surface $-1 -82.999999999999972 650.00000000000091 81.999999999999901 0 1 0 0 0 57.999999999999893 1 I I 0 1 57.999999999999893 forward I I I I #
plane-surface $-1 -203.00000000000003 0 0 -1 0 0 0 0 25.399999999999999 forward_v I I I I #
coedge $-1 $311 $464 $339 $442 forward $218 $-1 #
coedge $-1 $340 $462 $311 $409 forward $444 $-1 #
edge $-1 $465 -0.98425196850393704 $445 0 $311 $483 forward 7 unknown #
edge $-1 $400 -9.0551181102362204 $416 -2.36220472440945 $312 $484 forward 7 unknown #
coedge $-1 $386 $485 $313 $412 reversed $365 $-1 #
edge $-1 $470 -9.0551181102362204 $415 -2.36220472440945 $313 $486 forward 7 unknown #
coedge $-1 $321 $314 $485 $487 reversed $226 $-1 #
coedge $-1 $314 $319 $475 $488 reversed $226 $-1 #
vertex $-1 $315 $489 #
vertex $-1 $315 $490 #
straight-curve $-1 -579.61460446247565 418.61054766734196 60.000000000000028 14.871460067646691 20.591252401357004 0 I I #
straight-curve $-1 -607.71002124714312 425.43872455187784 229.99999999999997 14.566902006307721 20.807819826657202 0 I I #
coedge $-1 $427 $491 $319 $420 reversed $492 $-1 #
edge $-1 $421 -25.590551181102363 $493 -24.606299212598461 $319 $494 forward 7 unknown #
vertex $-1 $428 $495 #
straight-curve $-1 0 675 60.000000000000028 25.399999999999999 0 0 I I #
edge $-1 $496 -0.98425196850400098 $362 0 $321 $497 forward 7 unknown #
straight-curve $-1 -535.00000000000125 0 60.000000000000028 0 25.399999999999999 0 I I #
face $-1 $498 $431 $2 $-1 $499 reversed single #
plane-surface $-1 -535.00000000000125 25 60.000000000000028 0 0 -1 -25.399999999999999 0 0 forward_v I I I I #
coedge $-1 $500 $419 $326 $428 forward $492 $-1 #
edge $-1 $421 2.36220472440945 $432 5.5118110236220499 $326 $501 forward 7 unknown #
coedge $-1 $502 $327 $330 $435 reversed $431 $-1 #
coedge $-1 $327 $502 $500 $503 reversed $431 $-1 #
loop $-1 $-1 $502 $425 #
vertex $-1 $328 $504 #
ellipse-curve $-1 -195.00000000000003 675 140.00000000000006 0 -1 -9.9999999999999998e-017 0 4.8000000000000023e-015 -48.000000000000021 1 I I #
coedge $-1 $330 $329 $396 $477 forward $331 $-1 #
edge $-1 $505 25.590551181102398 $332 26.5748031496063 $429 $506 forward 7 unknown #
point $-1 -147 675 140.00000000000006 #
straight-curve $-1 -82.999999999999972 0 140.00000000000006 0 25.399999999999999 0 I I #
coedge $-1 $380 $379 $336 $439 reversed $381 $-1 #
edge $-1 $507 0 $440 4.3307086614173196 $336 $508 forward 7 unknown #
vertex $-1 $439 $509 #
ellipse-curve $-1 -155 0 109.99999999999991 0 -1 -9.9999999999999998e-017 0 4.8000000000000023e-015 -48.000000000000021 1 I I #
edge $-1 $507 7.9921259842519703 $445 12.0866141732283 $339 $510 forward 7 unknown #
coedge $-1 $462 $340 $343 $447 forward $444 $-1 #
loop $-1 $-1 $408 $450 #
vertex $-1 $341 $511 #
straight-curve $-1 -306.99999999999881 0 0 0 0 25.399999999999999 I I #
edge $-1 $345 0 $472 0.98425196850393704 $343 $512 forward 7 unknown #
point $-1 -306.99999999999881 0 109.99999999999991 #
straight-curve $-1 -403.00000000000091 0 109.99999999999991 0 -25.399999999999999 0 I I #
face $-1 $323 $444 $2 $-1 $513 reversed single #
plane-surface $-1 -403.00000000000091 0 0 -1 0 0 0 0 25.399999999999999 forward_v I I I I #
cone-surface $-1 -354.99999999999983 0 109.99999999999991 0 1 0 0 0 48.000000000000021 1 I I 0 1 48.000000000000021 forward I I I I #
edge $-1 $459 20.078740157480301 $357 21.062992125984302 $360 $514 forward 7 unknown #
point $-1 -535.00000000000125 184.99999999999989 100.00000000000004 #
coedge $-1 $360 $359 $458 $515 forward $361 $-1 #
point $-1 -535.00000000000125 184.99999999999989 60.000000000000028 #
plane-surface $-1 -509.9999999999996 184.99999999999989 0 0 1 0 0 0 25.399999999999999 forward_v I I I I #
coedge $-1 $485 $367 $455 $515 reversed $365 $-1 #
vertex $-1 $369 $516 #
ellipse-curve $-1 -509.9999999999996 127 100.00000000000004 1 0 0 0 0 -57.999999999999893 1 I I #
cone-surface $-1 -509.9999999999996 127 100.00000000000004 -1 0 0 0 0 57.999999999999893 1 I I 0 1 57.999999999999893 forward I I I I #
coedge $-1 $408 $443 $376 $463 reversed $444 $-1 #
edge $-1 $465 0 $472 4.3307086614173196 $462 $517 forward 7 unknown #
coedge $-1 $407 $377 $380 $467 reversed $218 $-1 #
vertex $-1 $409 $518 #
straight-curve $-1 0 25 0 -25.399999999999999 0 0 I I #
edge $-1 $507 0 $382 0.98425196850393704 $464 $519 forward 7 unknown #
point $-1 -203.00000000000003 25 0 #
straight-curve $-1 -203.00000000000003 0 109.99999999999991 0 -25.399999999999999 0 I I #
vertex $-1 $388 $520 #
straight-curve $-1 -509.9999999999996 0 229.99999999999997 0 -25.399999999999999 0 I I #
vertex $-1 $391 $521 #
ellipse-curve $-1 -354.99999999999983 25 109.99999999999991 0 -1 -9.9999999999999998e-017 0 4.8000000000000023e-015 -48.000000000000021 1 I I #
point $-1 -403.00000000000091 25 109.99999999999991 #
coedge $-1 $522 $395 $414 $488 forward $301 $-1 #
coedge $-1 $396 $522 $502 $523 reversed $301 $-1 #
edge $-1 $402 3.2677165354330699 $505 5.78740157480315 $396 $524 forward 7 unknown #
plane-surface $-1 0 650.00000000000091 0 0 1 0 0 0 25.399999999999999 forward_v I I I I #
straight-curve $-1 -579.61460446247565 418.61054766734196 229.99999999999997 -14.871460067646691 -20.591252401357004 0 I I #
point $-1 -412.50000000000091 650.00000000000091 229.99999999999997 #
point $-1 -82.999999999999972 650.00000000000091 140.00000000000006 #
plane-surface $-1 0 650.00000000000091 140.00000000000006 0 0 1 25.399999999999999 0 0 forward_v I I I I #
straight-curve $-1 -306.99999999999881 0 0 0 -25.399999999999999 0 I I #
straight-curve $-1 -412.50000000000091 650.00000000000091 0 0 0 -25.399999999999999 I I #
coedge $-1 $411 $458 $413 $487 forward $365 $-1 #
straight-curve $-1 -509.9999999999996 514.99999999999989 0 0 0 -25.399999999999999 I I #
edge $-1 $496 7.2834645669291298 $415 20.2755905511811 $413 $525 forward 7 unknown #
edge $-1 $416 -16.240157480314998 $493 -9.5669291338582703 $414 $526 forward 7 unknown #
point $-1 -509.9999999999996 514.99999999999989 60.000000000000028 #
point $-1 -412.50000000000091 650.00000000000091 60.000000000000028 #
coedge $-1 $419 $500 $522 $527 reversed $492 $-1 #
loop $-1 $-1 $491 $498 #
vertex $-1 $420 $528 #
straight-curve $-1 -243.00000000000006 25 60.000000000000028 0 -25.399999999999999 0 I I #
point $-1 -243.00000000000006 675 60.000000000000028 #
vertex $-1 $423 $529 #
straight-curve $-1 -535.00000000000125 184.99999999999989 60.000000000000028 -25.399999999999999 0 0 I I #
face $-1 $397 $492 $2 $-1 $530 reversed single #
cone-surface $-1 -195.00000000000003 650.00000000000091 140.00000000000006 0 1 0 0 0 48.000000000000021 1 I I 0 1 48.000000000000021 forward I I I I #
coedge $-1 $491 $427 $430 $503 forward $492 $-1 #
straight-curve $-1 -243.00000000000006 675 0 0 0 25.399999999999999 I I #
coedge $-1 $430 $429 $476 $523 forward $431 $-1 #
edge $-1 $432 -0.98425196850390151 $531 0 $430 $532 forward 7 unknown #
point $-1 -243.00000000000006 675 140.00000000000006 #
vertex $-1 $523 $533 #
straight-curve $-1 -147 0 140.00000000000006 0 25.399999999999999 0 I I #
vertex $-1 $442 $534 #
straight-curve $-1 -203.00000000000003 0 0 0 0 25.399999999999999 I I #
point $-1 -203.00000000000003 0 109.99999999999991 #
straight-curve $-1 0 1.0000000000000005e-013 0 -25.399999999999999 0 0 I I #
point $-1 -306.99999999999881 0 0 #
straight-curve $-1 -306.99999999999881 0 109.99999999999991 0 25.399999999999999 0 I I #
plane-surface $-1 -306.99999999999881 0 0 1 0 0 0 0 -25.399999999999999 forward_v I I I I #
straight-curve $-1 0 184.99999999999989 100.00000000000004 -25.399999999999999 0 0 I I #
edge $-1 $496 2.36220472440945 $459 3.9370078740157499 $458 $535 forward 7 unknown #
point $-1 -509.9999999999996 184.99999999999989 100.00000000000004 #
straight-curve $-1 -306.99999999999881 25 0 0 0 25.399999999999999 I I #
point $-1 -306.99999999999881 25 0 #
straight-curve $-1 -203.00000000000003 0 0 0 25.399999999999999 0 I I #
point $-1 -509.9999999999996 514.99999999999989 229.99999999999997 #
point $-1 -306.99999999999881 25 109.99999999999991 #
coedge $-1 $476 $475 $491 $527 forward $301 $-1 #
edge $-1 $505 1.5707963267948966 $531 4.7123889803846897 $502 $536 forward 7 unknown #
straight-curve $-1 0 650.00000000000091 140.00000000000006 -25.399999999999999 0 0 I I #
straight-curve $-1 -509.9999999999996 0 60.000000000000028 0 25.399999999999999 0 I I #
straight-curve $-1 0 650.00000000000091 60.000000000000028 25.399999999999999 0 0 I I #
edge $-1 $493 2.36220472440945 $531 5.5118110236220499 $491 $537 forward 7 unknown #
point $-1 -243.00000000000006 650.00000000000091 60.000000000000028 #
point $-1 -509.9999999999996 184.99999999999989 60.000000000000028 #
plane-surface $-1 -243.00000000000006 0 0 -1 0 0 0 0 25.399999999999999 forward_v I I I I #
vertex $-1 $523 $538 #
straight-curve $-1 -243.00000000000006 650.00000000000091 140.00000000000006 0 -25.399999999999999 0 I I #
point $-1 -147 650.00000000000091 140.00000000000006 #
point $-1 -203.00000000000003 0 0 #
straight-curve $-1 -509.9999999999996 184.99999999999989 0 0 0 25.399999999999999 I I #
ellipse-curve $-1 -195.00000000000003 650.00000000000091 140.00000000000006 0 -1 -9.9999999999999998e-017 0 4.8000000000000023e-015 -48.000000000000021 1 I I #
straight-curve $-1 -243.00000000000006 650.00000000000091 0 0 0 25.399999999999999 I I #
point $-1 -243.00000000000006 650.00000000000091 140.00000000000006 #
End-of-ACIS-data 